<?xml version="1.0" encoding="utf-8"?>
<!-- Generator: Adobe Illustrator 24.2.3, SVG Export Plug-In . SVG Version: 6.00 Build 0)  -->
<svg version="1.1" id="coiffure_x5F_10" xmlns="http://www.w3.org/2000/svg" xmlns:xlink="http://www.w3.org/1999/xlink" x="0px"
	 y="0px" viewBox="0 0 553 574" style="enable-background:new 0 0 553 574;" xml:space="preserve">
<style type="text/css">
	.st0{fill:#06000A;}
	.st1{fill:#1E1919;}
	.st2{stroke:#C4BBBB;stroke-width:0.5;stroke-miterlimit:10;}
	.st3{fill:#C4BBBB;}
</style>
<g>
	<g>
		<g>
			<path d="M261.7,109.6c3.6,0,5.3,5.2,1.1,5.8c-10.5-0.2-24-4.4-32.6,3.5C235.3,106.9,250.7,107.7,261.7,109.6z"/>
			<g>
				<path class="st0" d="M261.7,109.6c0.8,0,1.5,0.2,2.2,0.7c0.6,0.5,1.1,1.1,1.3,1.9c0.2,0.7,0.1,1.6-0.4,2.2
					c-0.5,0.6-1.3,0.9-2,1.1l0,0l0,0c-5.6-0.1-11.2-1.1-16.9-1.1c-2.8,0-5.6,0.2-8.3,0.9c-2.7,0.7-5.2,2-7.3,3.9l-0.8,0.7l0.4-1
					c1.2-2.8,3.1-5.3,5.6-6.9c2.5-1.7,5.4-2.6,8.4-3.1c2.9-0.5,5.9-0.5,8.9-0.4C255.9,108.7,258.8,109.1,261.7,109.6z M261.7,109.6
					c-5.8-1-11.9-1.6-17.7-0.5c-2.9,0.5-5.8,1.5-8.2,3.2c-2.4,1.7-4.3,4.1-5.4,6.8l-0.4-0.3c2.1-2,4.7-3.3,7.5-4
					c2.8-0.7,5.6-0.9,8.4-0.8c2.8,0.1,5.6,0.4,8.4,0.7c2.8,0.3,5.6,0.7,8.4,0.7l0,0c0.8-0.1,1.5-0.4,2-1c0.5-0.6,0.6-1.4,0.4-2.2
					c-0.2-0.7-0.7-1.4-1.3-1.9C263.3,109.9,262.5,109.6,261.7,109.6z"/>
			</g>
		</g>
		<g>
			<path d="M291.3,108.9c-3.6,0-5.3,5.2-1.1,5.8c10.5-0.2,24-4.4,32.6,3.5C317.7,106.2,302.3,107,291.3,108.9z"/>
			<g>
				<path class="st0" d="M291.3,108.9c-0.8,0-1.5,0.3-2.2,0.7c-0.6,0.5-1.1,1.1-1.3,1.9c-0.2,0.7-0.1,1.6,0.4,2.2
					c0.5,0.6,1.2,0.9,2,1l0,0c2.8-0.1,5.6-0.4,8.4-0.7c2.8-0.3,5.6-0.6,8.4-0.7c2.8-0.1,5.7,0.1,8.4,0.8c2.8,0.7,5.4,2.1,7.5,4
					l-0.4,0.3c-1.1-2.7-3-5.1-5.4-6.8c-2.4-1.7-5.3-2.7-8.2-3.2C303.1,107.4,297.1,108,291.3,108.9z M291.3,108.9
					c2.9-0.5,5.9-0.9,8.9-1.1c3-0.2,6-0.1,8.9,0.4c2.9,0.5,5.9,1.4,8.4,3.1c2.5,1.7,4.4,4.2,5.6,6.9l0.4,1l-0.8-0.7
					c-2-1.9-4.6-3.2-7.3-3.9c-2.7-0.7-5.5-0.9-8.3-0.9c-5.6,0-11.2,1-16.9,1.1l0,0l0,0c-0.8-0.1-1.5-0.4-2-1.1
					c-0.5-0.6-0.6-1.5-0.4-2.2c0.2-0.7,0.7-1.4,1.3-1.9C289.7,109.2,290.5,108.9,291.3,108.9z"/>
			</g>
		</g>
		<g>
			<path class="st1" d="M258,122.2c-6-4.1-14-2-19.6,1.8c-0.6-0.9-1.9-1.3-2-2.6c-0.1,1.1,0.1,2.5,1.1,3.2c-0.1,0.1-0.3,0.2-0.4,0.2
				c-1.1-0.7-2.3-1.4-2.6-2.8c-0.1,1.3,0.1,2.7,1.2,3.5c-0.3,0.1-0.5,0.2-0.8,0.3c-1.1-0.6-2.2-1.4-2.5-2.7c-0.1,1.4,0.2,3,1.5,3.7
				c0.7,6.9,3.8,13.9,10.8,16.1c-22.5-14.6,7.8-33.2,18.3-13.4C262.4,126.7,260.3,123.7,258,122.2z"/>
			<path class="st1" d="M320.9,122.9c-0.3,1.3-1.4,2.1-2.5,2.7c-0.3-0.1-0.5-0.2-0.8-0.3c1.1-0.8,1.3-2.3,1.2-3.5
				c-0.3,1.4-1.5,2.2-2.6,2.8c-0.1-0.1-0.3-0.2-0.4-0.2c1-0.7,1.2-2,1.1-3.2c-0.1,1.4-1.4,1.8-2,2.6c-7.6-5.9-21.8-6-24.5,5
				c10.8-19.5,40.6-0.5,18.2,13.9c7.1-2.2,10.2-9.3,10.9-16.2C320.7,126,321,124.3,320.9,122.9z"/>
		</g>
	</g>
	<path class="st2" d="M228.1,116.5c-3.1,9.1-4,20.2-3.6,31c0.2,6.7,3.2,16.5,7.5,22.5c13.1,17.9,30.8,20.3,31.7,25.1
		c-16.9-1.3-34.8-0.9-51.4-1c-3.3-9.7-6.6-19.4-8.5-29.4s-2.5-20.5-0.2-30.4c2.1-9.5,6.7-18.2,9.2-27.5c1.5-5.7,2.3-11.6,4.3-17.1
		c2-5.5,8.4-14.2,13.6-17.6c16.8-11.9,35.6-20.7,56.5-19.2c28.1,3.1,48,21.8,53.1,30.6c5.1,8.8,6,19.3,8,29.3
		c2.4,12.2,6.7,23.9,9.1,36.1c2.4,12.2,2.8,25.2-1.5,36.5c-8.2,7.5-19.8,10.3-30.9,10.9c-11.1,0.6-24.6-1.1-35.8-0.4
		c0.2-4.3,12.5-7.4,17.8-10.2c10.8-5.8,21-13.9,25.4-33.7c2.8-12.9,0.5-20.9-3.5-33.5c-2.6,0-12.1-1.5-14.3-1.6
		c-1.8-5.5-2.1-7.5-2.3-13.2c-2.4,5.1-3.1,7.3-1.7,12.9c-22.9,0.4-45.7,1.2-68.6-0.9c0.1-2.7,0.4-3.6-0.9-5.9
		c-0.6-1.1-1.5-2-1.9-3.2c-0.7-2,0.3-4.3,1.2-6.2s1.7-4.3,0.8-6.2c-0.1,3-2.7,5.4-3.5,8.3c-0.7,2.6,0.1,5.4,0.6,8.1
		c0.5,2.7,1.4,3.5-0.4,5.6C236.1,115.1,230.1,115.8,228.1,116.5z"/>
	<g>
		<path class="st3" d="M231.8,101.2c0.3,2.4,0.3,4.9,0.3,7.3c-0.1,2.4-0.3,4.9-0.8,7.2c-0.1-2.4,0-4.9,0-7.3
			C231.4,106,231.5,103.6,231.8,101.2z"/>
	</g>
	<g>
		<path class="st3" d="M257.6,101.6c-0.5,1.1-0.7,2.4-0.7,3.6c0,1.2,0.2,2.4,0.5,3.6c0.3,1.2,0.6,2.3,1,3.5c0.2,0.6,0.3,1.3,0.3,1.9
			c-0.1,0.6-0.2,1.3-0.5,1.8c0.1-0.6,0.2-1.2,0.1-1.8c0-0.6-0.2-1.1-0.5-1.7c-0.5-1.1-0.9-2.3-1.2-3.6c-0.3-1.2-0.5-2.5-0.4-3.8
			C256.5,103.8,256.9,102.6,257.6,101.6z"/>
	</g>
	<g>
		<path class="st3" d="M263.8,108.7c-0.1,0.7,0.1,1.3,0.4,1.9c0.2,0.6,0.6,1.1,0.9,1.7c0.3,0.6,0.6,1.3,0.5,2c0,0.7-0.3,1.5-0.9,1.9
			c0.4-0.6,0.4-1.2,0.3-1.8c-0.1-0.6-0.3-1.2-0.6-1.7c-0.3-0.6-0.6-1.2-0.8-1.9C263.4,110.1,263.4,109.3,263.8,108.7z"/>
	</g>
	<g>
		<path class="st3" d="M323.5,117.6c-0.6-2.2-1-4.4-1.4-6.6c-0.2-1.1-0.4-2.2-0.4-3.4c-0.1-1.1,0-2.3,0.3-3.4c0,2.3,0.5,4.4,0.9,6.6
			C323.2,113.1,323.5,115.3,323.5,117.6z"/>
	</g>
</g>
</svg>
