<?xml version="1.0" encoding="utf-8"?>
<!-- Generator: Adobe Illustrator 24.2.3, SVG Export Plug-In . SVG Version: 6.00 Build 0)  -->
<svg version="1.1" id="coiffure_x5F_14" xmlns="http://www.w3.org/2000/svg" xmlns:xlink="http://www.w3.org/1999/xlink" x="0px"
	 y="0px" viewBox="0 0 553 574" style="enable-background:new 0 0 553 574;" xml:space="preserve">
<style type="text/css">
	.st0{fill:#1E1919;}
	.st1{fill:#06000A;}
	.st2{fill:#C4BBBB;}
</style>
<g>
	<g>
		<path class="st0" d="M258,122.2c-6-4.1-14-2-19.6,1.8c-0.6-0.9-1.9-1.3-2-2.6c-0.1,1.1,0.1,2.5,1.1,3.2c-0.1,0.1-0.3,0.2-0.4,0.2
			c-1.1-0.7-2.3-1.4-2.6-2.8c-0.1,1.3,0.1,2.7,1.2,3.5c-0.3,0.1-0.5,0.2-0.8,0.3c-1.1-0.6-2.2-1.4-2.5-2.7c-0.1,1.4,0.2,3,1.5,3.7
			c0.7,6.9,3.8,13.9,10.8,16.1c-22.5-14.6,7.8-33.2,18.3-13.4C262.4,126.7,260.3,123.7,258,122.2z"/>
		<path class="st0" d="M320.9,122.9c-0.3,1.3-1.4,2.1-2.5,2.7c-0.3-0.1-0.5-0.2-0.8-0.3c1.1-0.8,1.3-2.3,1.2-3.5
			c-0.3,1.4-1.5,2.2-2.6,2.8c-0.1-0.1-0.3-0.2-0.4-0.2c1-0.7,1.2-2,1.1-3.2c-0.1,1.4-1.4,1.8-2,2.6c-7.6-5.9-21.8-6-24.5,5
			c10.8-19.5,40.6-0.5,18.2,13.9c7.1-2.2,10.2-9.3,10.9-16.2C320.7,126,321,124.3,320.9,122.9z"/>
		<g>
			<g>
				<path d="M261.7,109.6c3.6,0,5.3,5.2,1.1,5.8c-10.5-0.2-24-4.4-32.6,3.5C235.3,106.9,250.7,107.7,261.7,109.6z"/>
				<g>
					<path class="st1" d="M261.7,109.6c0.8,0,1.5,0.2,2.2,0.7c0.6,0.5,1.1,1.1,1.3,1.9c0.2,0.7,0.1,1.6-0.4,2.2
						c-0.5,0.6-1.3,0.9-2,1.1l0,0h0c-5.6-0.1-11.2-1.1-16.9-1.1c-2.8,0-5.6,0.2-8.3,0.9c-2.7,0.7-5.2,2-7.3,3.9l-0.8,0.7l0.4-1
						c1.2-2.8,3.1-5.3,5.6-6.9c2.5-1.7,5.4-2.6,8.4-3.1c2.9-0.5,5.9-0.5,8.9-0.4C255.9,108.7,258.8,109.1,261.7,109.6z M261.7,109.6
						c-5.8-1-11.9-1.6-17.7-0.5c-2.9,0.5-5.8,1.5-8.2,3.2c-2.4,1.7-4.3,4.1-5.4,6.8l-0.4-0.3c2.1-2,4.7-3.3,7.5-4
						c2.8-0.7,5.6-0.9,8.4-0.8c2.8,0.1,5.6,0.4,8.4,0.7c2.8,0.3,5.6,0.7,8.4,0.7l0,0c0.8-0.1,1.5-0.4,2-1c0.5-0.6,0.6-1.4,0.4-2.2
						c-0.2-0.7-0.7-1.4-1.3-1.9C263.3,109.9,262.5,109.6,261.7,109.6z"/>
				</g>
			</g>
			<g>
				<path d="M291.3,108.9c-3.6,0-5.3,5.2-1.1,5.8c10.5-0.2,24-4.4,32.6,3.5C317.7,106.2,302.3,107,291.3,108.9z"/>
				<g>
					<path class="st1" d="M291.3,108.9c-0.8,0-1.5,0.3-2.2,0.7c-0.6,0.5-1.1,1.1-1.3,1.9c-0.2,0.7-0.1,1.6,0.4,2.2
						c0.5,0.6,1.2,0.9,2,1l0,0c2.8-0.1,5.6-0.4,8.4-0.7c2.8-0.3,5.6-0.6,8.4-0.7c2.8-0.1,5.7,0.1,8.4,0.8c2.8,0.7,5.4,2.1,7.5,4
						l-0.4,0.3c-1.1-2.7-3-5.1-5.4-6.8c-2.4-1.7-5.3-2.7-8.2-3.2C303.1,107.4,297.1,108,291.3,108.9z M291.3,108.9
						c2.9-0.5,5.9-0.9,8.9-1.1c3-0.2,6-0.1,8.9,0.4c2.9,0.5,5.9,1.4,8.4,3.1c2.5,1.7,4.4,4.2,5.6,6.9l0.4,1l-0.8-0.7
						c-2-1.9-4.6-3.2-7.3-3.9c-2.7-0.7-5.5-0.9-8.3-0.9c-5.6,0-11.2,1-16.9,1.1l0,0l0,0c-0.8-0.1-1.5-0.4-2-1.1
						c-0.5-0.6-0.6-1.5-0.4-2.2c0.2-0.7,0.7-1.4,1.3-1.9C289.7,109.2,290.5,108.9,291.3,108.9z"/>
				</g>
			</g>
		</g>
	</g>
	<g>
		<g>
			<path d="M239.3,60.5c-16.2,8.7-27.6,25.2-33,43.2s-5.3,37.3-2.5,55.9c3,20.3,9.2,40.4,8.3,61c-0.5,13.5-3.8,28.2,3.3,39.5
				c-2.7-8.3-2-17.7,1.8-25.7c-2.4,7.6,0,16.1,4,23c4,6.9,9.4,12.9,13.5,19.7c4.1,6.8,7,15,5.3,22.7c11-29,12.9-62.5,5.2-92.6
				c4.3,0.5,9.5,0.5,13.4-1.3c3.9-1.7,5.9-2.1,4.8-8.6c-0.7-4.4-5.4-5.3-9.3-7.1c-11.5-5.3-27.3-19.7-29.4-36.5
				c-1.4-8-4.2-12.8-2.6-18.8c1.6-11.6,4.7-21,12.6-27.3c8-6.3,17.8-9.4,27.2-13.3c9.3-3.8,18.8-8.9,23.6-17.4
				c6.2,13.5,20.1,21.2,29.3,32.6c11.8,14.6,15.4,35.7,9.6,53.7c3.8-9.9,7-20.1,9.8-30.4c2.2-1.2,1.4,9.4-0.2,17.3
				c-4.5,18.4-17.3,32.2-32.3,38c-1.6,0.6-7,2.7-8.5,3.5c-3.5,1.8-4.6,3.6-4.4,7.1c0.2,2.8,2.4,5,4.3,7c7.2,7.7,12.2,17.6,14.2,28.1
				c2.2,11.7,0.8,23.8,1.5,35.7s4.2,24.6,12.6,31.9c-0.1-17.9,9.4-34.1,16.4-50.5c12.8-29.8,17.8-62.5,19-95.1
				c0.5-14.9,0.3-29.9-2.8-44.5c-3.1-14.5-9.2-24.9-19.2-35.6c-8.9-9.6-30.9-20.2-45.2-13.3C289.1,62.6,255.5,51.8,239.3,60.5z"/>
			<g>
				<path class="st2" d="M239.3,60.5c-7.9,4.2-14.6,10.3-20,17.4c-5.4,7.1-9.5,15.2-12.3,23.6c-2.8,8.5-4.3,17.3-4.8,26.3
					c-0.5,8.9-0.1,17.9,1,26.7c2.1,17.7,7.2,35,8.7,52.8c0.4,4.4,0.5,8.9,0.3,13.4c-0.2,4.5-0.6,8.9-0.9,13.4
					c-0.3,4.4-0.4,8.9,0.1,13.4c0.5,4.4,1.8,8.8,4.2,12.6l-0.1,0.1c-2.7-8.4-2-17.8,1.8-25.7l0.2,0.1c-0.4,1.4-0.7,2.9-0.9,4.4
					c-0.1,1.5-0.1,3,0,4.5c0.2,1.5,0.4,2.9,0.8,4.4c0.4,1.4,0.9,2.9,1.4,4.2c2.2,5.6,5.8,10.5,9.3,15.3c3.5,4.8,7.2,9.6,9.6,15.1
					c1.2,2.7,2.2,5.6,2.7,8.6c0.2,1.5,0.4,3,0.4,4.5c0,1.5-0.2,3-0.5,4.5l-0.2-0.1c5.6-14.7,8.7-30.2,9.6-45.9
					c0.9-15.7-0.6-31.4-4.4-46.6l-0.1-0.2l0.2,0c2.2,0.2,4.4,0.3,6.5,0.2c2.2-0.1,4.3-0.5,6.4-1.3c1-0.4,2-0.8,3-1.3
					c1-0.5,1.8-1.2,2.1-2.2c0.3-1,0.3-2.1,0.2-3.2c-0.1-1.1-0.2-2.2-0.6-3.2c-0.4-1-1.1-1.8-2-2.5c-0.9-0.7-1.8-1.1-2.8-1.6
					c-2-0.9-4.1-1.6-6-2.7c-3.9-2.1-7.5-4.6-10.8-7.5c-3.3-2.9-6.3-6.1-8.9-9.7c-2.6-3.5-4.8-7.4-6.2-11.6c-0.7-2.1-1.3-4.2-1.6-6.4
					c-0.3-2.2-0.9-4.3-1.4-6.4c-0.6-2.1-1.2-4.2-1.5-6.4c-0.2-1.1-0.2-2.2-0.2-3.3c0-1.1,0.2-2.2,0.5-3.3l0,0
					c0.5-3.8,1.2-7.5,2.3-11.2c0.5-1.8,1.2-3.6,2-5.4c0.8-1.7,1.7-3.4,2.8-5c2.2-3.2,5.1-5.8,8.2-7.9c3.2-2.1,6.5-3.9,10-5.5
					c6.9-3.1,14.2-5.4,21-8.8c3.4-1.7,6.7-3.6,9.6-6c3-2.3,5.5-5.2,7.4-8.4l0.2-0.4l0.2,0.4c1.8,3.8,4.2,7.2,7,10.4
					c2.8,3.1,5.8,6,8.9,8.8c6.2,5.6,12.6,11.3,17.1,18.6c4.5,7.2,7.2,15.4,8.2,23.7c1,8.4,0.3,17-2.3,25l-0.4-0.1
					c3.8-9.9,7.1-20.1,9.8-30.4l0-0.1l0.1,0c0.1-0.1,0.3-0.1,0.5-0.1c0.2,0,0.4,0.1,0.5,0.2c0.2,0.2,0.3,0.5,0.4,0.8
					c0.2,0.5,0.2,1.1,0.3,1.6c0.1,1.1,0.1,2.1,0,3.1c-0.1,2.1-0.3,4.2-0.6,6.2c-0.3,2.1-0.6,4.1-1.1,6.2c-0.5,2-1.1,4-1.8,6
					c-2.9,7.8-7.5,15-13.5,20.8c-3,2.9-6.3,5.4-10,7.5c-1.8,1-3.7,2-5.6,2.8l-5.8,2.3c-1.9,0.8-3.9,1.5-5.6,2.6
					c-0.8,0.6-1.6,1.3-2.1,2.1c-0.5,0.9-0.7,1.9-0.7,2.9c0,1,0.1,2,0.5,3c0.4,0.9,1,1.8,1.6,2.6c0.7,0.8,1.4,1.5,2.1,2.3
					c0.7,0.8,1.4,1.5,2.1,2.4c5.3,6.4,9.2,14,11.3,22.1c2.1,8.1,2.2,16.5,2.2,24.8c0,8.3-0.2,16.7,1.5,24.8c0.8,4.1,2.1,8,3.9,11.8
					c1.8,3.7,4.2,7.2,7.3,9.9l-0.2,0.1c0-6,1-11.9,2.7-17.7c1.7-5.7,4-11.3,6.4-16.7c2.4-5.5,5-10.8,7.4-16.3
					c2.3-5.5,4.4-11.1,6.3-16.7c7.4-22.7,11-46.5,12.3-70.3c0.7-11.9,1-23.9,0-35.8c-0.5-5.9-1.3-11.9-2.7-17.7
					c-1.3-5.8-3.3-11.5-6.1-16.8c-2.8-5.3-6.3-10.2-10.2-14.7c-2-2.2-3.9-4.5-6.3-6.3c-2.3-1.9-4.8-3.6-7.4-5
					c-5.2-2.9-10.8-5.2-16.6-6.4c-2.9-0.6-5.9-0.8-8.9-0.7c-1.5,0.1-3,0.3-4.4,0.6c-1.4,0.4-2.9,0.9-4.2,1.5l0,0
					c-4.2-1.1-8.3-2.1-12.5-3c-4.2-0.9-8.4-1.5-12.7-2c-4.3-0.4-8.6-0.6-12.8-0.2C247.4,57.7,243.1,58.5,239.3,60.5z M239.3,60.5
					c3.8-2,8.1-2.8,12.3-3.2c4.3-0.3,8.6-0.2,12.8,0.2c4.3,0.4,8.5,1.1,12.7,1.9c4.2,0.8,8.4,1.9,12.5,3l0,0
					c1.4-0.6,2.8-1.1,4.2-1.5c1.5-0.3,2.9-0.6,4.4-0.7c3-0.2,6,0.1,8.9,0.7c5.9,1.1,11.5,3.4,16.7,6.4c2.6,1.5,5.1,3.1,7.4,5
					c2.3,1.9,4.3,4.1,6.3,6.4c3.9,4.5,7.4,9.4,10.2,14.7c2.8,5.3,4.8,11,6.1,16.8c1.3,5.8,2.2,11.7,2.7,17.7
					c1,11.9,0.7,23.9,0.1,35.8c-1.3,23.8-4.9,47.6-12.3,70.4c-1.9,5.7-4,11.3-6.3,16.8c-2.3,5.5-4.9,10.9-7.4,16.3
					c-2.4,5.4-4.7,11-6.4,16.7c-1.7,5.7-2.7,11.6-2.7,17.6l0,0.3l-0.2-0.2c-3.2-2.7-5.6-6.2-7.4-10c-1.8-3.8-3.1-7.8-3.9-11.8
					c-1.8-8.2-1.6-16.6-1.5-24.9c0-8.3,0-16.7-2.2-24.7c-2.1-8-6-15.6-11.3-21.9c-0.7-0.8-1.4-1.6-2-2.3c-0.7-0.8-1.4-1.5-2.1-2.3
					c-0.7-0.8-1.3-1.7-1.7-2.7c-0.4-1-0.6-2.1-0.6-3.1c0-1,0.2-2.1,0.7-3.1c0.5-0.9,1.3-1.7,2.2-2.3c1.8-1.2,3.8-1.9,5.7-2.7
					l5.8-2.3c1.9-0.8,3.8-1.7,5.5-2.8c3.6-2.1,6.9-4.6,9.9-7.5c6-5.7,10.6-12.9,13.4-20.7c0.7-1.9,1.3-3.9,1.8-5.9
					c0.5-2,0.8-4.1,1.1-6.1c0.3-2.1,0.5-4.1,0.6-6.2c0-1,0.1-2.1,0-3.1c0-0.5-0.1-1-0.2-1.5c-0.1-0.2-0.2-0.5-0.3-0.6
					c-0.1-0.1-0.3-0.2-0.5,0l0.1-0.1c-2.7,10.3-6,20.5-9.8,30.4l-0.4-0.1c2.5-8,3.3-16.5,2.2-24.8c-1-8.3-3.7-16.4-8.2-23.5
					c-4.4-7.2-10.8-12.8-17-18.4c-3.1-2.8-6.2-5.7-9-8.9c-2.8-3.2-5.2-6.7-7-10.5l0.4,0c-1.9,3.3-4.5,6.2-7.5,8.6
					c-3,2.4-6.3,4.3-9.7,6c-6.8,3.4-14.1,5.7-21,8.8c-3.5,1.5-6.8,3.3-10,5.4c-3.1,2.1-6,4.6-8.1,7.8c-1.1,1.5-2,3.2-2.8,4.9
					c-0.8,1.7-1.4,3.5-2,5.3c-1.1,3.6-1.8,7.4-2.3,11.1l0,0l0,0c-0.3,1-0.5,2.1-0.5,3.2c0,1.1,0.1,2.2,0.2,3.2
					c0.3,2.1,0.9,4.3,1.5,6.4c0.6,2.1,1.1,4.3,1.4,6.4c0.3,2.2,0.9,4.3,1.6,6.3c1.4,4.1,3.6,8,6.2,11.5c2.6,3.5,5.6,6.7,8.8,9.6
					c3.3,2.9,6.9,5.4,10.7,7.5c1.9,1,4,1.8,6,2.7c1,0.4,2,0.9,2.9,1.6c0.9,0.7,1.7,1.6,2.1,2.6c0.4,1.1,0.5,2.2,0.6,3.3
					c0.1,1.1,0.1,2.2-0.3,3.3c-0.4,1.1-1.3,1.9-2.3,2.4c-1,0.5-2,0.9-3,1.3c-2.1,0.8-4.3,1.2-6.5,1.3c-2.2,0.1-4.4,0-6.6-0.2
					l0.2-0.2c3.9,15.2,5.3,31.1,4.4,46.7c-0.9,15.7-4.1,31.2-9.6,45.9l-0.2-0.1c0.3-1.5,0.5-2.9,0.5-4.4c0-1.5-0.1-3-0.4-4.4
					c-0.5-2.9-1.4-5.8-2.7-8.5c-2.4-5.5-6.1-10.3-9.6-15.1c-3.5-4.8-7.1-9.7-9.3-15.3c-0.5-1.4-1-2.8-1.4-4.3
					c-0.4-1.5-0.6-2.9-0.8-4.4c-0.1-1.5-0.2-3,0-4.5c0.1-1.5,0.4-3,0.9-4.4l0.2,0.1c-3.8,7.9-4.5,17.2-1.8,25.6l0.2,0.6l-0.3-0.5
					c-2.4-3.8-3.7-8.2-4.2-12.6c-0.5-4.4-0.4-8.9-0.1-13.4c0.3-4.5,0.8-8.9,1-13.3c0.2-4.5,0-8.9-0.3-13.4
					c-1.5-17.8-6.5-35.1-8.6-52.8c-1.1-8.9-1.5-17.8-1-26.7c0.5-8.9,2.1-17.8,4.8-26.3c2.8-8.5,6.9-16.5,12.3-23.6
					C224.6,70.8,231.4,64.7,239.3,60.5z"/>
			</g>
		</g>
		<g>
			<path class="st2" d="M321,82c3,3.4,5.5,7.2,7.5,11.3c2.1,4,3.6,8.3,4.8,12.7c1.1,4.4,1.8,8.9,2,13.5c0.2,4.5-0.2,9.1-1.1,13.5
				c0.6-4.5,0.8-9,0.5-13.5c-0.3-4.5-0.9-9-2.1-13.3c-1.1-4.4-2.7-8.6-4.6-12.6C326.1,89.5,323.7,85.6,321,82z"/>
		</g>
		<g>
			<path class="st2" d="M337.7,97.5c1.4,2.4,2.6,4.9,3.6,7.5c1,2.6,1.8,5.3,2.4,8c0.6,2.7,1,5.5,1.2,8.3c0.2,2.8,0.1,5.6-0.1,8.3
				c0-2.8-0.1-5.6-0.4-8.3c-0.3-2.7-0.7-5.5-1.3-8.2c-0.6-2.7-1.3-5.4-2.2-8C339.9,102.6,338.9,100,337.7,97.5z"/>
		</g>
		<g>
			<path class="st2" d="M341,151.1c0.2,3.9,0.1,7.9-0.3,11.8c-0.4,3.9-1,7.8-1.9,11.7c-0.9,3.8-2,7.6-3.4,11.3
				c-1.4,3.7-3,7.3-4.9,10.7c1.6-3.6,3.1-7.2,4.3-10.9c1.3-3.7,2.4-7.5,3.2-11.3c0.9-3.8,1.6-7.7,2-11.5
				C340.6,159,340.8,155.1,341,151.1z"/>
		</g>
		<g>
			<path class="st2" d="M328.9,203.5c-1.4,3.9-2.8,7.9-4.1,11.9c-1.4,4-2.7,7.9-3.9,11.9c-2.4,8-4.5,16.1-5.7,24.4
				c-1.3,8.2-1.6,16.6-0.8,24.9c0.4,4.2,1.1,8.3,2.2,12.3c1,4,2.4,8,4.2,11.8c-1.9-3.7-3.4-7.6-4.6-11.7c-1.1-4-1.9-8.2-2.4-12.4
				c-0.9-8.4-0.6-16.8,0.7-25.1c1.3-8.3,3.4-16.4,5.9-24.4c1.3-4,2.7-7.9,4.1-11.9C325.9,211.4,327.4,207.4,328.9,203.5z"/>
		</g>
		<g>
			<path class="st2" d="M306.5,190.5c-0.5,2.4-1,4.8-1.4,7.2c-0.4,2.4-0.8,4.8-1,7.3c-0.3,2.4-0.5,4.9-0.7,7.3
				c-0.2,2.4-0.3,4.9-0.3,7.4c-0.2-2.5-0.3-4.9-0.2-7.4c0-2.5,0.2-4.9,0.5-7.4c0.3-2.4,0.7-4.9,1.2-7.3
				C305,195.2,305.7,192.8,306.5,190.5z"/>
		</g>
		<g>
			<path class="st2" d="M293.9,195.5c-0.3,1.7-0.6,3.4-0.8,5.1c-0.2,1.7-0.2,3.4-0.3,5.1c-0.5-1.7-0.6-3.4-0.4-5.2
				C292.6,198.7,293.1,197,293.9,195.5z"/>
		</g>
		<g>
			<path class="st2" d="M245.8,209.5c-0.4-1.7-0.8-3.5-1.2-5.2c-0.4-1.7-0.9-3.4-1.4-5.1c-0.5-1.7-1-3.4-1.6-5.1
				c-0.5-1.7-1.1-3.3-1.7-5c0.9,1.6,1.6,3.2,2.3,4.8c0.7,1.6,1.2,3.3,1.7,5c0.5,1.7,0.9,3.4,1.2,5.2
				C245.5,206,245.7,207.7,245.8,209.5z"/>
		</g>
		<g>
			<path class="st2" d="M235.5,199l1,4.3l0.9,4.3l0.8,4.4l0.7,4.4c0.8,5.9,1.3,11.8,1.5,17.7c0.2,5.9,0.1,11.8-0.3,17.7l-0.4,4.4
				l-0.5,4.4l-0.6,4.4l-0.7,4.4l0.5-4.4l0.4-4.4l0.4-4.4l0.3-4.4c0.3-5.9,0.4-11.8,0.1-17.7c-0.2-5.9-0.7-11.8-1.4-17.6l-0.6-4.4
				l-0.7-4.4l-0.7-4.4L235.5,199z"/>
		</g>
		<g>
			<path class="st2" d="M224,233.9l0.3-5.1l0.2-5.1l0-5.1l-0.1-5.1c-0.2-6.7-0.8-13.5-1.7-20.1c-0.9-6.7-2.2-13.3-3.8-19.8l-1.3-4.9
				l-1.4-4.9l-1.5-4.8l-1.7-4.8l1.8,4.7l1.7,4.8l1.5,4.8l1.4,4.9c1.7,6.5,3,13.2,4,19.9c0.9,6.7,1.4,13.5,1.5,20.2l0,5.1l-0.2,5.1
				l-0.3,5.1L224,233.9z"/>
		</g>
		<g>
			<path class="st2" d="M221,155c0.2,1.9,0.4,3.7,0.7,5.6c0.3,1.8,0.7,3.7,1.2,5.5c0.5,1.8,1,3.6,1.6,5.3c0.6,1.8,1.3,3.5,2.1,5.2
				c-1-1.6-1.9-3.3-2.6-5c-0.7-1.7-1.3-3.5-1.8-5.4c-0.5-1.8-0.8-3.7-1-5.6C220.9,158.8,220.8,156.9,221,155z"/>
		</g>
		<g>
			<path class="st2" d="M218.7,132.3c0.1-4.4,0.9-8.8,2.4-13c1.5-4.2,3.8-8,6.5-11.6c5.3-7.1,12.6-12.7,20.3-16.9
				c7.8-4.3,16.1-7.4,24.4-10.4c4-1.7,7.9-4,11.3-6.7c1.7-1.4,3.2-3,4.3-5c1.1-1.9,1.7-4.1,1.7-6.3c0.1,2.2-0.5,4.4-1.6,6.4
				c-1,2-2.5,3.7-4.2,5.2c-3.5,2.8-7.3,5.1-11.3,6.9c-2.1,0.9-4.1,1.6-6.2,2.4c-2.1,0.8-4.1,1.6-6.1,2.4c-4.1,1.7-8.1,3.5-11.9,5.7
				c-3.9,2.1-7.6,4.5-11,7.2c-3.4,2.7-6.5,5.9-9.2,9.4c-2.7,3.5-5,7.3-6.6,11.4C219.8,123.5,218.9,127.9,218.7,132.3z"/>
		</g>
		<g>
			<path class="st2" d="M288.2,70.6c-4.7-1-9.4-1.9-14.1-2.5c-4.7-0.6-9.5-0.8-14.3-0.3c-4.7,0.5-9.4,1.7-13.6,3.8
				c-4.3,2.1-8.1,5-11.4,8.4c-1.7,1.7-3.2,3.5-4.7,5.4c-1.4,1.9-2.8,3.9-4,5.9c-1.2,2-2.3,4.2-3.4,6.3c-1,2.2-1.9,4.4-2.8,6.6
				c-1.7,4.5-3.1,9-4.3,13.7c-1.3,4.6-2.4,9.3-3.5,13.9c1-4.7,2-9.4,3.1-14c1.2-4.6,2.5-9.3,4.2-13.8c3.3-9,8-17.6,14.9-24.5
				c3.4-3.4,7.3-6.4,11.7-8.5c4.3-2.1,9.1-3.4,13.9-3.8c4.8-0.4,9.6-0.1,14.4,0.5C278.8,68.4,283.5,69.4,288.2,70.6z"/>
		</g>
		<g>
			<path class="st2" d="M285.7,77.4c0.1-1.3,0.4-2.6,0.8-3.8c0.4-1.2,0.9-2.4,1.4-3.6c0.5-1.2,0.9-2.3,1.3-3.6
				c0.3-1.2,0.5-2.5,0.5-3.7c0.4,1.2,0.3,2.6,0.1,3.9c-0.2,1.3-0.7,2.5-1.2,3.7c-0.5,1.2-1.1,2.3-1.6,3.5
				C286.5,75,286.1,76.1,285.7,77.4z"/>
		</g>
	</g>
</g>
</svg>
