<?xml version="1.0" encoding="utf-8"?>
<!-- Generator: Adobe Illustrator 24.2.3, SVG Export Plug-In . SVG Version: 6.00 Build 0)  -->
<svg version="1.1" id="corps_x5F_3" xmlns="http://www.w3.org/2000/svg" xmlns:xlink="http://www.w3.org/1999/xlink" x="0px"
	 y="0px" viewBox="0 0 553 574" style="enable-background:new 0 0 553 574;" xml:space="preserve">
<style type="text/css">
	.st0{fill:none;}
	.st1{fill:#E0A17C;stroke:#BE8D70;stroke-width:0.35;stroke-miterlimit:10;}
	.st2{fill:#AD8269;}
	.st3{opacity:0.31;fill:#BE8D70;}
	.st4{opacity:0.73;fill:#BE8D70;}
	.st5{fill:#BA7E73;}
	.st6{opacity:0.52;fill:#BE8D70;}
	.st7{opacity:0.43;fill:#A77E66;}
	.st8{fill:#856552;}
	.st9{opacity:0.34;fill:#BE8D70;}
	.st10{opacity:0.48;fill:#BE8D70;}
	.st11{fill:#BE8D70;}
	.st12{fill:#9B6E54;}
	.st13{fill:#040404;}
	.st14{fill:#FFFFFF;}
	.st15{fill:#934940;}
	.st16{fill:#BB6B5D;stroke:#BB6B5D;stroke-width:0.5;stroke-miterlimit:10;}
</style>
<g id="cadre_8_">
	<rect x="0" class="st0" width="553" height="574"/>
</g>
<g id="corps_x5F_3_1_">
	<g>
		<path class="st1" d="M353.1,368.4c2.1-0.2,1.8-2,3.4-2.1c1.2-0.1,1.5,0.3,2.3-0.2c5.9-8.6,2.6-21.2,2.2-31
			c-4-38.4-4.9-62.1-18.7-97.3c-2.1-5.1-9.1-23.3-20.1-22.8c-1.9,0-23.5-2.3-27.4-6.7l-1.8-8.4c0.9-0.2,22.8-7.2,26.7-22.6
			c5-21.5,10.5-51.3,6.5-74.9c-4-43.4-41.2-29.2-71.2-31.5c-40.5-2.9-34.5,49.4-31.8,76.9c4.1,29.6,10,45.5,35.1,52
			c-0.8,4.3-2.1,8-2.1,8c-1.1,4.4-24.5,7.4-26.4,7.4c-22.4,5.7-25.2,48.1-31.4,63c-3.2,15.8-2,32.8-6.3,55.8
			c-0.4,6-4.3,31.8,4.5,31.2c1.2,0,2.9,3.6,4.4,1.4c0-0.6,0.4-1.1,1-1c5.2-0.4-4.5-10.3-1.9-15c2.4-2.5,4.7,4.3,4.1,6.2
			c-0.4,1.1,0.6,2.4,1.6,1.3c3.4-3.1,1.2-7.9,0.8-11.6c-0.2-1.8-0.6-2.4,0.4-4c1.3-2-0.4-9.2-0.6-9.6c-3.8-9.1,5.5-20.1,8.9-38.8
			c2.3-12.4,14.4-34.2,14.4-34.2c-2.3,22.6-4.1,79.1-2.8,108.5c1.4,43.1,12.5,59.8,11.6,107.1c0.8,9.4,6.2,42.3,5.9,46.1
			c-1.6,8.7-4,12.7-9.6,18.8c-2.1,1.1-2.3,3.4-0.5,3.7c1.1,0.1,0.8,1.4,2.1,1.5c0.8,0.2,1.5-0.3,2,0.4c0.6,0.9,2.7,0.4,3.1,0
			c0.4-0.3,0.3,0.6,1.1,0.7c0.7,0.1,1.4,0.5,2.5-0.1c2.4,0,3.6,1.9,6.9-1c1.5-1.8,3.1-9.3,3.8-9.9c0.7-0.6,2.5-0.8,2.5-2.1
			c0.2-2.7-2.4-6.3-1.4-8.8c1-1.3,0.8-3.3-0.3-4.4c-2.2-6,6.6-31.3,7.7-43.1c3.7-32.4-1-77.4,4.4-109c0.8-4.9,13.4-4.2,13.8-0.2
			c-0.6,8.7,1,119.1,12.6,148.5c0.5,4-2.9,5.6-0.9,8.7c1,2.5-1.6,6.1-1.4,8.8c0,1.3,1.8,1.4,2.5,2.1c0.7,0.6,2.3,8,3.8,9.9
			c3.3,2.9,4.5,1,6.9,1c1.1,0.5,1.8,0.2,2.5,0.1c0.9-0.1,0.7-1.1,1.1-0.7c0.5,0.4,2.5,0.9,3.1,0c0.2-0.3,0.6-0.5,1-0.4
			c1.5,0.5,2.2-1.1,3.2-1.5c0.6,0,1-0.3,1.1-0.8c0.1-0.6,0.1-2.1-1.6-2.8c-2.1-1-6.5-9.2-7-9.9c-6.2-9.6,2.6-39.4,3.3-55
			c-0.9-47.3,10.2-64.1,11.6-107.1c2.2-28.2-0.8-85.8-1.5-107.8l0.5,1.3c0,0,11.6,20.6,14,32.9c5.2,28,13.2,30.8,8.9,38.8
			c-0.1,0.5-1.8,7.6-0.6,9.6c1,1.6,0.6,2.2,0.4,4c-0.3,3.2-1.7,6.2-0.6,9.5c0.3,1.7,3.5,4,3.1,0.8c-0.5-1.9,1.8-8.7,4.1-6.2
			c2.1,5.7-4.9,11-3.1,14.7c0.7,0.6,2.3,0,2.2,1.3C352,367.8,352.1,368.5,353.1,368.4z"/>
		<path class="st2" d="M201.1,366.1c-1.5-4.7-7.2-7.4-5.2-13.1C194.5,358.7,200.3,361.1,201.1,366.1z"/>
		<path class="st2" d="M197.5,365.6c-1.8-2.8-4.6-5.7-4.9-9C193.5,359.7,196.2,362.4,197.5,365.6z"/>
		<path class="st2" d="M206.9,334.5c-0.8-1.5-2-2.7-3.7-3C205.1,331,206.8,332.7,206.9,334.5z"/>
		<path class="st2" d="M246.7,546.1c-0.8-2,1.7-2.6,2.2-4.1C248.8,543.7,246.3,544.2,246.7,546.1z"/>
		<path class="st2" d="M242.7,545.9c0.2-1.2,1.1-2.3,2.3-2.7C244.1,544,243.3,544.8,242.7,545.9z"/>
		<path class="st2" d="M239.5,545c0-0.9,0.7-1.6,1.6-1.8C240.4,543.8,240,544.3,239.5,545z"/>
		<path class="st2" d="M236.4,543.7c0.3-0.8,1-1.5,1.8-1.9C237.6,542.6,237,543.1,236.4,543.7z"/>
		<path class="st3" d="M256.2,207.5c-0.4,1.5,3.5,1,4,1.3c1.8,0.4,2.8-1,4.6-0.9c1.7,0.4,3.1,0.3,3.6-1.5c5.7-1.2,7.3-1.1,9.9-7.4
			c-3.7,0.5-16.8,1.5-20.4,0.7C257.8,199.7,256.8,205.2,256.2,207.5z"/>
		<path class="st4" d="M256.9,205c-0.4,2.3,4.5,0.1,5.5,0.6c1.4,0.8,1.4-1.1,2.2-1.4c2.2,1.6,2.7-2.7,5.3-1.4c3,0.2,5-3.3,8.1-3.6
			c-13.5,2.1-20.1,0.6-20.1,0.6S257.4,202.1,256.9,205z"/>
		<path class="st2" d="M289.1,200.2c2.2-0.1,4.4-0.5,6.6-1.2C293.7,200.1,291.3,200.6,289.1,200.2z"/>
		<path class="st2" d="M277.8,317.2c3,7.6-6.1,4.9-2.3,1.6C273.3,321.5,279,323.6,277.8,317.2z"/>
		<path class="st2" d="M231.4,252.5c-0.3,2.3-0.8,4.5-0.9,6.9C229.8,257.1,230.4,254.6,231.4,252.5z"/>
		<path class="st2" d="M321.5,253.5c1,2.1,1.5,4.6,0.9,6.9C322.3,258.1,321.8,255.9,321.5,253.5z"/>
		<path class="st2" d="M215.4,294.1c-0.9,1.4-2.6,0.2-3.7,0.7c0.1-0.2,0.3-0.3,0.5-0.4l0,0C213.3,294.2,214.3,294.6,215.4,294.1z"/>
		<path class="st2" d="M351.9,367.3c0.8-5,6.5-7.4,5.2-13.1C359.1,359.9,353.3,362.6,351.9,367.3z"/>
		<path class="st2" d="M355.5,366.7c1.2-3.2,3.9-5.8,4.9-9C360,361.1,357.3,364,355.5,366.7z"/>
		<path class="st2" d="M346.5,334.3c-0.1-1.8,1.3-3.7,3.2-3.6C348,331.3,347.1,332.7,346.5,334.3z"/>
		<path class="st2" d="M337.5,295.3c1.1,0.5,2.1,0.1,3.2,0.3l0,0c0.2,0.1,0.4,0.2,0.5,0.4C340.1,295.6,338.4,296.7,337.5,295.3z"/>
		<path class="st2" d="M305,546.6c0.4-2-2.2-2.4-2.2-4.1C303.3,543.9,305.9,544.6,305,546.6z"/>
		<path class="st2" d="M308.9,546.3c-0.6-1-1.3-1.9-2.3-2.7C307.8,544.1,308.8,545.1,308.9,546.3z"/>
		<path class="st2" d="M312.2,545.4c-0.5-0.7-1-1.2-1.6-1.8C311.5,543.8,312.2,544.6,312.2,545.4z"/>
		<path class="st2" d="M315.3,544.2c-0.7-0.6-1.3-1.2-1.8-1.9C314.3,542.7,315,543.3,315.3,544.2z"/>
		<path class="st5" d="M267.7,184.9c3.3,2.7,12.1,3.2,13.6-0.1C277,188.3,270.8,185.6,267.7,184.9L267.7,184.9z"/>
		<path class="st2" d="M278.1,205.9c1.5,2,1,4.8-0.6,6.6C278.6,210.5,279.1,208,278.1,205.9z"/>
		<path class="st3" d="M305.3,442.3c2.4-0.2,1.1-2.7,1.1-4.2c4.7,1.8,2.5-9.4-1.2-8c-0.9,0.6-0.5,2.6-1.9,2.6
			c-0.9,0-2.8-2.5-3.1-0.7c0.2,0.9-0.4,1.4-1.3,1.1c-1.4-0.7-1.8,0.5-2.6,1.4c-0.5,0.3-1.6,0.2-1.5,1c1,0.6,1,4.7,1.7,5.5
			c1.6,1.4,3.2-0.4,4.2,1.4C301.7,444.8,303.7,442.7,305.3,442.3z"/>
		<path class="st6" d="M305.5,440.3c0.3-0.7-0.6-1.9,0.4-2.2c0.3,0,0.6,0,0.7-0.4c0.9-3.4-1.4-7.9-4.2-3.7c-4.3-2.1-0.8,0.8-4.2,1
			c-0.2,0.2,0,4.3,0.2,4.7c1.5,1.3,2.3,0.2,3.5,1.7C302.6,442.4,304.9,441.4,305.5,440.3z"/>
		<path class="st7" d="M303.5,439.7c0.7-0.3-0.2-1.3,0.2-1.8c1.4-0.7,1.6-2.6,0.1-3.4c-1.2-0.6-1.4,1.1-2.1,1.4
			c-0.4,0.1-1.1-0.3-1.4,0.1c-0.1,0.5-0.9,0.3-0.5,0.9c0.3,0.4-0.1,1.9,0.3,2.3c0.5,0.5,1.6,0,2,0.6
			C302.3,440.5,303.1,439.8,303.5,439.7z"/>
		<path class="st8" d="M305,434.7c-1.4,2.1-4.5,2.8-6.6,1.5C300.6,437,303.2,436.4,305,434.7z"/>
		<path class="st3" d="M247.5,442.3c-2.4-0.2-1.1-2.7-1.1-4.2c-4.7,1.8-2.5-9.4,1.2-8c0.9,0.6,0.5,2.6,1.9,2.6
			c0.9,0,2.8-2.5,3.1-0.7c-0.2,0.9,0.4,1.4,1.3,1.1c1.4-0.7,1.8,0.5,2.6,1.4c0.5,0.3,1.6,0.2,1.5,1c-1,0.6-1,4.7-1.7,5.5
			c-1.6,1.4-3.2-0.4-4.2,1.4C251.1,444.8,249.1,442.7,247.5,442.3z"/>
		<path class="st6" d="M247.3,440.3c-0.3-0.7,0.6-1.9-0.4-2.2c-0.3,0-0.6,0-0.7-0.4c-0.9-3.4,1.4-7.9,4.2-3.7c4.3-2.1,0.8,0.8,4.2,1
			c0.2,0.2,0,4.3-0.2,4.7c-1.5,1.3-2.3,0.2-3.5,1.7C250.2,442.4,247.9,441.4,247.3,440.3z"/>
		<path class="st7" d="M249.2,439.7c-0.7-0.3,0.2-1.3-0.2-1.8c-1.4-0.7-1.6-2.6-0.1-3.4c1.2-0.6,1.4,1.1,2.1,1.4
			c0.4,0.1,1.1-0.3,1.4,0.1c0.1,0.5,0.9,0.3,0.5,0.9c-0.3,0.4,0.1,1.9-0.3,2.3c-0.5,0.5-1.6,0-2,0.6
			C250.5,440.5,249.7,439.8,249.2,439.7z"/>
		<path class="st8" d="M247.8,434.7c1.4,2.1,4.5,2.8,6.6,1.5C252.2,437,249.6,436.4,247.8,434.7z"/>
		<path class="st9" d="M354.4,279.1c-0.4,0.6-1.2-0.1-1.7,0.1c-0.6,0.4-0.7,1.2-1.5,1.2c-0.4,0.1-0.5,0.5-0.2,0.7
			c0.5,0.4,0.6,3.2,1,3.6c1.1,1,2.2-0.3,2.9,0.9c0.4,0.7,0.4,0.9,1,0.8c-0.1-2.7-0.7-5.2-1.4-7.7C354.5,278.9,354.5,279,354.4,279.1
			z"/>
		<path class="st10" d="M354.3,279.5c-0.3,0.4,0,1.1-0.6,1c-0.3,0.1-0.9,0-0.7,0.4c-0.1,4,0.2,2.6,2.9,4.4c-0.2-2.1-0.7-4-1.2-5.9
			C354.5,279.4,354.4,279.4,354.3,279.5z"/>
		<path class="st11" d="M355,281.2c-0.5-0.2-0.5,0.4-0.8,0.4c0,0.4,0,1.5,0.2,1.9c0.3,0.3,1,0,1.3,0.3c-0.1-0.9-0.3-1.8-0.5-2.6
			C355.1,281.2,355.1,281.2,355,281.2z"/>
		<path class="st9" d="M198.4,278.4c0.4,0.5,1.2-0.2,1.7,0c0.6,0.4,0.7,1.2,1.6,1.2c0.4,0.1,0.5,0.5,0.2,0.7
			c-0.5,0.4-0.5,3.2-0.9,3.7c-1.1,1-2.2-0.2-2.9,1c-0.4,0.7-0.3,0.9-1,0.9c0-2.7,0.6-5.2,1.2-7.7
			C198.4,278.3,198.4,278.4,198.4,278.4z"/>
		<path class="st10" d="M198.6,278.9c0.3,0.3,0,1.1,0.7,1c0.3,0.1,0.9,0,0.7,0.4c0.3,4-0.1,2.6-2.8,4.4c0.1-2.1,0.5-4,1-6
			C198.4,278.8,198.5,278.8,198.6,278.9z"/>
		<path class="st11" d="M197.9,280.6c0.5-0.2,0.5,0.4,0.8,0.4c0.1,0.4,0,1.5-0.1,1.9c-0.3,0.3-1,0.1-1.3,0.4
			c0.1-0.9,0.3-1.8,0.4-2.6C197.8,280.6,197.9,280.6,197.9,280.6z"/>
		<g id="Nez_3_">
			<path class="st12" d="M271.9,163.4c-1.2-0.8-2.7-0.6-4-0.2c-0.8-0.5-1.1-2.2-0.5-2.9c0.3-0.3-0.2-0.7-0.5-0.5
				c-1.4,1.6,0.1,5.1,2.4,3.7C270,163,272.5,164.8,271.9,163.4"/>
			<path class="st12" d="M277.1,163.9c1.3-0.9,4.1,0.7,4.5-1.7c0.2-0.6-0.3-3-0.8-1.6c1.3,3.5-2.6,1.6-4.2,2.9
				C276.3,163.7,276.8,164.1,277.1,163.9"/>
		</g>
		<g>
			<path class="st13" d="M314.5,140.3c-2.7-13.5-23.9-13.2-26.1,0.4C292.9,127.8,308,129.5,314.5,140.3z"/>
			<path class="st14" d="M314.4,140c-4.6-13.6-28-10.6-26.1,5.3C295.4,153.4,312,151.7,314.4,140"/>
			<path class="st13" d="M233.3,140.3c2.8-13.2,24.1-12.9,26.4,0.4C255,128.1,239.8,129.8,233.3,140.3z"/>
			<path class="st14" d="M233.7,140.2c4.6-13.6,28-10.6,26.1,5.3C252.7,153.6,236.1,151.9,233.7,140.2"/>
		</g>
		<g>
			<path class="st15" d="M291.1,176.3c-6,13.9-27.8,13.1-34,0.3C257.1,176.5,281.7,174.7,291.1,176.3z"/>
			<path class="st14" d="M257.1,176.5c7.7,3.7,34.2,5.8,36.8-5.2c-12.6,4.1-27,3.4-39.7,1.1C255,174.2,256.8,176.3,257.1,176.5z"/>
			<path class="st16" d="M294.4,170.6c0,0.1-0.1,0.2-0.1,0.2c-12.3,4-29.4,6.3-40.8-0.1C260.7,192.9,288.6,191.3,294.4,170.6z
				 M280.1,185.4c-11,4.6-21.1-3.5-25.6-13.3c11.9,4.8,27.4,3.3,39.5-0.7C291.3,177.6,286.6,183.1,280.1,185.4z"/>
		</g>
	</g>
</g>
</svg>
