<svg xmlns="http://www.w3.org/2000/svg" viewBox="0 0 806 136"><defs><style>.a{fill:#3b4647;}.b{fill:#fff;}</style></defs><path class="a" d="M710.84,11.1c1.1,4.5,2.9,76.6,2.9,77.2-.4,4.1-3.7,6.6-6.5,4.7-1.9-1.4-2.2-5.5-3.3-36.3-1.5-46.4-1.6-47.6,1.7-48.4,2.3-.6,4.3-.7,5.2,2.8m2.9,97.5c1.4,2.2,2.1,11,.9,13.2-1,2.1-4.1,3.1-6,1.7-2.4-1.8-2.2-12.3-1.5-13.7.9-2.3,5.3-3.1,6.6-1.2"/><polygon class="a" points="351.24 23.3 351.24 68.5 369.24 67.8 369.64 75.8 351.24 76.7 351.24 113.1 371.84 113.3 371.84 121.2 343.14 121 343.14 15.2 372.84 14.8 372.94 22.9 351.24 23.3"/><polygon class="a" points="382.24 33.6 417.04 34.1 416.84 41 402.54 40.8 402.04 122.4 395.14 122.4 395.64 40.7 382.14 40.5 382.24 33.7 382.24 33.6"/><polygon class="a" points="435.74 122 428.54 122 427.64 32.3 434.94 32.3 435.74 122"/><path class="a" d="M470.44,119.6l1.9,8.9-6.6,1.5-1.7-7.9a8.5,8.5,0,0,1-5.9-3,24,24,0,0,1-4.3-7,52.13,52.13,0,0,1-2.9-9.5,99.6,99.6,0,0,1-1.8-10.2,80.89,80.89,0,0,1-.9-9.3c-.2-2.9-.3-5.1-.3-6.8,0-2,0-4.5.1-7.3s.3-5.9.7-9.1a80.51,80.51,0,0,1,1.7-9.6,37.89,37.89,0,0,1,2.9-8.6,21,21,0,0,1,4.5-6.2,8.53,8.53,0,0,1,12.1.2,22.54,22.54,0,0,1,4.1,6.1,49.6,49.6,0,0,1,2.8,8.2c.7,3,1.3,6,1.7,8.9s.7,5.6.9,8.1.3,4.5.4,6.1c.1,1.9.1,4.2.1,6.8s-.2,5.4-.3,8.4-.5,5.9-.9,9a85.46,85.46,0,0,1-1.7,8.8,54.13,54.13,0,0,1-2.7,7.7,18.48,18.48,0,0,1-3.9,5.8m-6.5-79.7a4.51,4.51,0,0,0-3.7,2.3,24.42,24.42,0,0,0-2.6,5.7,40.75,40.75,0,0,0-1.7,7.7c-.4,2.8-.7,5.6-1,8.4s-.4,5.3-.5,7.7a51.37,51.37,0,0,0,0,5.6c.1,2.2.2,5.1.5,8.7s.7,7.2,1.3,11a90.51,90.51,0,0,0,2.4,10.3q1.5,4.8,3.6,6.9l-1.9-8.8,6.5-1.4,1.5,6.7a51.34,51.34,0,0,0,2.6-8.7c.6-3.2,1.1-6.4,1.5-9.7s.6-6.6.6-9.8.1-6.3,0-9.1c-.1-4.2-.5-8.3-.9-12.2a92.09,92.09,0,0,0-1.8-10.5,30.26,30.26,0,0,0-2.8-7.6c-1-1.8-2.2-2.9-3.6-3.2"/><path class="a" d="M497.64,33.4c0,.9-.1,2.8-.2,5.7s-.2,6.4-.2,10.4V62.9c0,4.9.2,9.8.4,14.6s.6,9.6,1,14.2a98.25,98.25,0,0,0,1.9,12.1,34.8,34.8,0,0,0,2.9,8.4c1.2,2.1,2.6,3,4.2,2.9,2.4-.2,4.3-1.9,5.6-5.4a52.14,52.14,0,0,0,2.9-13,142.17,142.17,0,0,0,.8-17.3c0-6.3-.1-12.4-.4-18.3s-.6-11.3-.9-16.1-.5-8.4-.6-10.7l6.5-.3q.15,3.45.6,9c.3,3.7.6,7.7.8,12.3s.5,9.2.6,14.3.1,9.9,0,14.8a120.51,120.51,0,0,1-1.1,13.9,67.11,67.11,0,0,1-2.6,11.8,23.53,23.53,0,0,1-4.7,8.3,9.94,9.94,0,0,1-7.1,3.5,8.32,8.32,0,0,1-7.1-2.8,25.12,25.12,0,0,1-5-8.5,65.49,65.49,0,0,1-3.2-12.5A138.35,138.35,0,0,1,491,83.2c-.4-5.2-.6-10.4-.6-15.7s0-10.1.1-14.6.2-8.5.3-12,.3-6,.3-7.6Z"/><polygon class="a" points="541.14 40.6 541.14 78 556.04 77.4 556.44 84.1 541.14 84.8 541.14 114.9 558.24 115 558.24 121.6 534.54 121.4 534.54 34 559.04 33.6 559.14 40.3 541.14 40.6"/><polygon class="a" points="569.34 32.9 602.94 33.3 602.84 40 588.94 39.8 588.54 118.6 581.84 118.6 582.24 39.7 569.24 39.6 569.34 33 569.34 32.9"/><polygon class="a" points="644.04 32.2 644.04 38.9 631.84 38.9 631.44 118.6 624.74 118.6 625.24 38.9 614.44 38.9 614.44 32.2 644.04 32.2"/><polygon class="a" points="660.44 40.3 660.44 77.8 675.44 77.2 675.74 83.9 660.44 84.6 660.44 114.9 677.64 115 677.64 121.6 653.74 121.4 653.74 33.6 678.44 33.2 678.54 39.9 660.44 40.3"/><path class="a" d="M121.74,37c-.7-1.5-.7-3.5-.9-4.9a23.2,23.2,0,0,0-1.3-5.8,13.66,13.66,0,0,0-2.6-4.9,6,6,0,0,0-4.5-2.3,6.18,6.18,0,0,0-5.5,3,27.25,27.25,0,0,0-3.8,8.3,108,108,0,0,0-2.4,11.3c-.6,4.1-1.1,8.1-1.3,12s-.5,7.5-.6,10.7v6.9q0,1.5.3,5.4c.2,2.6.6,5.5,1.1,8.7s1.1,6.6,1.8,10a76.57,76.57,0,0,0,2.5,9.4,23.52,23.52,0,0,0,3.4,6.7c1.3,1.7,2.7,2.4,4.4,2.1a6.06,6.06,0,0,0,3.5-2.1,12.28,12.28,0,0,0,2.3-4,36.76,36.76,0,0,0,1.5-4.7c.7-3.2,1.1-5,5-4.5,5.1.5,3.3,5.6,2.4,8.7a27,27,0,0,1-2.7,6.6,19.58,19.58,0,0,1-4.3,5.2,12.43,12.43,0,0,1-6.3,2.8,10.61,10.61,0,0,1-8.3-1.7,20.53,20.53,0,0,1-6-7.1,43.43,43.43,0,0,1-4.1-10.3c-1.1-3.9-1.9-7.8-2.6-11.7s-1.1-7.6-1.4-11-.5-6.1-.6-8.2V62a120.48,120.48,0,0,1,.8-12.9q.75-6.9,2.1-13.8a54.94,54.94,0,0,1,3.9-12.5,24.38,24.38,0,0,1,6.4-8.8,12.15,12.15,0,0,1,9.1-3,14.28,14.28,0,0,1,8.1,2.9,20.59,20.59,0,0,1,5,6.4,34.79,34.79,0,0,1,2.6,8.3c.3,1.8,1.7,6.6.7,8.2-.4.7-4.3,2.1-5.2,2a2.86,2.86,0,0,1-2.5-1.8"/><path class="a" d="M188.94,13.5a2.86,2.86,0,0,1,1.7-1.7,7.88,7.88,0,0,1,4.8-.4,8.3,8.3,0,0,1,2.1.6c2.5,1.3,2.6,6.4,3.1,8.9l3,15,6.5,32.6c.3,1.3.1,2.9.7,4.1,1.2,2.4,1.7-1.5,2-2.6l3-14.5c2.3-11.2,4.7-22.4,7-33.6.5-2.2.9-4.4,1.4-6.6a14.16,14.16,0,0,1,.4-2c.7-2,3-2.6,5-2.4,1.3.1,4,.6,5,1.5s.5,3.4.6,4.8c.5,19.4,1.1,38.9,1.6,58.3.2,8.7.4,17.4.6,26.2.1,4.4,3.6,19.6-4.2,18-4.5-.9-3.4-5.4-3.5-8.8-.2-5.6-.3-11.1-.5-16.6-.5-18.5-1-36.9-1.5-55.4-.2.8-.3,1.6-.5,2.4-2.1,10.1-4.2,20.2-6.2,30.3-1.1,5.1-2.1,10.3-3.2,15.4-.8,4-1.2,8.8-6.7,8.8a5.53,5.53,0,0,1-4-1.8c-1.9-2.5-1.9-8.3-2.5-11.3-1.1-5.8-2.3-11.6-3.4-17.4-1.6-8-3.1-15.9-4.7-23.9.4,2.3-.1,5.2-.2,7.5-.1,6.2-.3,12.4-.4,18.5-.2,11.3-.5,22.6-.7,33.9-.1,5.3,2.2,12.2.1,17.3a5.22,5.22,0,0,1-6.8,2.7c-.2-.1-.3-.2-.5-.3-3.1-2-1.4-7.4-1.4-10.3.1-4.3.2-8.5.3-12.8l.8-34.1c.2-9.1.4-18.1.6-27.2l.3-13.4c.1-2.3.1-4.6.2-6.9a6.72,6.72,0,0,1,.1-2.8"/><path class="a" d="M263.74,121.9a9.59,9.59,0,0,1-5.8-2.1,17.81,17.81,0,0,1-4.2-5.2,37,37,0,0,1-2.8-7.2,71,71,0,0,1-1.7-8c-.4-2.7-.7-5.2-.9-7.6s-.3-4.5-.4-6.1c-.1-2-.1-4.6,0-8s.3-6.9.7-10.7.9-7.7,1.6-11.6A67.43,67.43,0,0,1,253,44.7a29.38,29.38,0,0,1,4.3-8,9.59,9.59,0,0,1,6.1-3.7,7.7,7.7,0,0,1,6.6,2.2,19.79,19.79,0,0,1,4.6,7.1,44.57,44.57,0,0,1,2.8,10.1,111.14,111.14,0,0,1,1.5,11.2c.3,3.7.6,7.2.6,10.4s.1,5.8,0,7.7c-.1,1.5-.2,3.5-.4,6s-.5,5.3-1,8.3-1.1,6-1.8,9.1a49,49,0,0,1-2.9,8.4,19.58,19.58,0,0,1-4.2,6.1,7.31,7.31,0,0,1-5.5,2.3m.3-6.7c1.4-.2,2.6-1.3,3.7-3.3a30.26,30.26,0,0,0,2.8-7.6,75.49,75.49,0,0,0,1.7-10.6c.4-3.9.7-8,.9-12.2,0-1.1,0-3-.1-5.6s-.2-5.4-.4-8.6-.5-6.4-1-9.8c-.4-3-.9-6.1-1.6-9.1a26.12,26.12,0,0,0-2.4-6.6c-1-1.7-2-2.4-3.3-2.3-1.5.1-2.7,1.2-3.7,3.2A27.69,27.69,0,0,0,258,50a78.91,78.91,0,0,0-1.8,9.7c-.5,3.5-.8,7-1.1,10.3s-.4,6.4-.5,9.1a60.22,60.22,0,0,0,0,6.1c0,.9.1,2.3.2,4.1s.4,3.8.6,6a55,55,0,0,0,1.1,6.7,45,45,0,0,0,1.7,6.3,16.33,16.33,0,0,0,2.5,4.7,4,4,0,0,0,3.3,2.2"/><path class="a" d="M290.34,34.2c1-2.4,4.4-1.8,6.2-.7,3,1.8,3.1,6.1,3.9,9.2,2.5,9.1,5.1,18.2,7.6,27.2l10.4,37.5c.1-14.1.2-28.3.3-42.4,0-6.9.1-13.7.1-20.6,0-2.3,0-4.6.1-6.9a7.39,7.39,0,0,1,0-2.1c.7-2.1,4.9-3.3,6.4-1.4s.3,9,.3,11.5l-.2,26.7c-.1,10-.1,20-.2,29.9l-.1,11.5c0,2.9,1.1,7.7-2.8,7.9a14.1,14.1,0,0,1-4.1-.1c-4-.7-4.2-5.2-5.1-8.5-1.1-3.8-2.1-7.7-3.2-11.5-4.2-15-8.3-30.1-12.5-45.1.2,5.9.5,11.9.7,17.8l1.1,28.9c.2,5.7,1.7,13,.6,18.7-2.8-.2-6.2.3-6.6-3.3-.5-3.8-.3-7.9-.5-11.7-.3-7.7-.6-15.3-.9-23-.4-9.7-.8-19.4-1.1-29.1-.2-6.1-1.2-12.7-.7-18.9a2.15,2.15,0,0,1,.3-1.5"/><path class="a" d="M164.54,70.1l9.6,1.3c.9,1.7,0,3.9-1.4,5.2-1.6,1.4-7.5,2-6.7,5,.6,2.2,4.3,11.1,2.5,12.9-2.4,2.4-6.4-1.7-7.6-3.6-.7-1.1-1.6-2.4-2.9-2.5-2.8-.2-5.1,3.6-6.4,5.4a2.94,2.94,0,0,1-1.2,1,1.68,1.68,0,0,1-1.9-.9,6,6,0,0,1-.6-2.3c-.3-2.8.2-7.1-1.1-9.5-1.2-2.2-4.5-3.5-6.3-5.1-1.3-1.2-2.4-3.2-1.2-4.5a3.23,3.23,0,0,1,2.1-.8l7.4-1.1a5.68,5.68,0,0,0,2.2-.7,4.57,4.57,0,0,0,1.4-1.7c1.8-3.4,2.3-12.7,5.8-5.7,1,2,.9,6.9,3.4,7.3l2.9.3"/><path class="b" d="M161.64,80.1c1.1-.3,2.3-.8,2.5-1.9a2.16,2.16,0,0,0-1.3-2.2,6.35,6.35,0,0,0-2.7-.4c-2.6,0-10.5.4-11,2.7C148.54,81.8,158.84,80.8,161.64,80.1Z"/></svg>