<?xml version="1.0" encoding="utf-8"?>
<!-- Generator: Adobe Illustrator 25.3.1, SVG Export Plug-In . SVG Version: 6.00 Build 0)  -->
<svg version="1.1" id="Calque_1" xmlns="http://www.w3.org/2000/svg" xmlns:xlink="http://www.w3.org/1999/xlink" x="0px" y="0px"
	 viewBox="0 0 805 355" style="enable-background:new 0 0 805 355;" xml:space="preserve">
<style type="text/css">
	.st0{fill:#F2F4F4;}
	.st1{fill:#3B4647;}
	.st2{fill:#FFFFFF;}
</style>
<path class="st0" d="M522.55,25.05c79.78,13.04,161.56,43.78,209.31,88.6c75.37,70.74,43.46,156.27-39.75,200.74
	c-20.81,11.12-45.03,20.55-74.21,23.49c-86,8.65-184.72-39.69-275.55-41.06c-49.8-0.75-93.52,12.82-144.21,8.55
	c-77.01-6.49-148.61-55.76-163.77-103.03s16.88-89.96,67.82-117.37C202.92,30.73,367.71-0.26,522.55,25.05z"/>
<g>
	<path class="st1" d="M377.19,192.13l0.3,41.9h-8l-0.7-105.3l29.2-1.7l0.4,8.2l-21.5,1.3l0.3,47.5h17.7v8.1H377.19z"/>
	<path class="st1" d="M419.29,151.13v38.3l15.2-0.6l0.4,6.8l-15.6,0.7v30.9l17.5,0.1v6.7l-24.3-0.1v-89.6l25.1-0.4l0.1,6.8
		L419.29,151.13z"/>
	<path class="st1" d="M475.99,234.23l-13.4-36.8c-0.6,0.3-1.3,0.5-2,0.6l0.5,36.1l-6.8,0.1l-1.3-90.2c4.1-0.2,8.3,0.1,12.3,0.9
		c3.5,0.7,6.9,2.1,9.8,4.2c2.8,2.1,4.9,4.9,6.1,8.1c1.4,3.4,1.8,7.7,1.4,12.9c-0.4,4.8-1.8,9.5-4.2,13.7c-2.3,4.3-5.6,7.9-9.6,10.6
		l13.7,37.4L475.99,234.23z M459.89,150.83l0.6,40.1c2.2-0.7,4.3-1.8,6-3.3c1.8-1.5,3.4-3.2,4.7-5.1c1.3-1.9,2.4-4,3.1-6.2
		c0.8-2.2,1.3-4.5,1.4-6.8c0.6-5.6-0.5-10-3.2-13.3S465.59,151.13,459.89,150.83z"/>
	<path class="st1" d="M492.49,144.13l8.2-0.2l20.6,74.4l0.5-73.7h6.8l-0.6,88.1h-9.7l-18.2-65.8l2.5,66.2l-6.7,0.2L492.49,144.13z"
		/>
	<path class="st1" d="M547.09,143.93h9.4l9.3,87.8l-6.9,0.7l-2.4-22.3l-9.8,0.1l-2.5,22.6l-6.9-0.7L547.09,143.93z M551.79,164.83
		l-4.2,38.2l8.2-0.1L551.79,164.83z"/>
	<path class="st1" d="M572.39,144.23l8.3-0.2l21,75.7l0.5-75.1h6.9l-0.6,89.7h-9.9l-18.6-67l2.6,67.4l-6.8,0.2L572.39,144.23z"/>
	<path class="st1" d="M620.49,143.93c6.2,0,11.4,1.3,15.4,3.8c4,2.4,7.4,5.8,9.8,9.9c2.5,4.3,4.2,9,5.1,13.8
		c2,10.6,1.9,21.6-0.1,32.2c-1,5.2-2.8,10.3-5.3,15c-2.4,4.4-5.8,8.2-10,11s-9.4,4.3-15.7,4.4L620.49,143.93z M627.39,151.23
		l-0.6,75.4c3.5-0.9,6.6-3,8.9-5.9c2.4-3.1,4.4-6.6,5.7-10.3c1.5-3.9,2.5-8,3.1-12.1c0.6-3.7,0.9-7.4,1-11.1c0-3.5-0.3-7-0.8-10.5
		c-0.5-3.8-1.4-7.5-2.8-11.1c-1.3-3.4-3.2-6.5-5.6-9.3C633.99,153.73,630.79,151.83,627.39,151.23z"/>
	<path class="st1" d="M676.69,128.03c1.1,4.5,2.9,76,2.9,76.7c-0.4,4-3.7,6.6-6.4,4.7c-1.9-1.4-2.2-5.4-3.3-36.1
		c-1.5-46.1-1.6-47.3,1.7-48.1C673.79,124.73,675.79,124.53,676.69,128.03z M679.59,224.93c1.4,2.2,2,10.9,0.8,13.1
		c-1,2.1-4.1,3.1-6,1.7c-2.4-1.8-2.2-12.3-1.5-13.6C673.99,223.83,678.29,223.13,679.59,224.93z"/>
	<path class="st1" d="M127.89,231.73c-0.7-0.8-1.2-2.1-1.6-4.2c-0.8-4.1,0-8.3,0-12.3c-0.2-15.5-0.5-30.9-0.7-46.4l-0.3-23.7
		c-0.1-5.3-2.3-11.8-0.8-17c1.7-5.8,10-3.2,15.1-2c4.1,0.9,8.1,2.7,11.4,5.3c3.3,2.6,5.9,6,7.6,9.8c2,4.6,3,9.5,3.1,14.5
		c0.1,4.3-0.4,8.6-1.6,12.8c-1.1,4.1-2.9,7.9-5.3,11.4c-2.3,3.5-5.3,6.5-8.7,8.9c-3.5,2.5-7.6,4.3-11.8,5.1c-0.2,0,0.1,6.3,0.1,6.7
		l0.2,19.9c0,2.8,0.1,5.6,0.1,8.4c0,1.6,0.2,2.5-1.4,3.3C131.79,233.13,129.29,233.33,127.89,231.73z M133.59,133.23
		c0.2,17.4,0.5,34.7,0.7,52.1c3.1-0.8,6-2.3,8.4-4.3s4.5-4.3,6.1-7s2.8-5.5,3.6-8.6s1.1-6.2,1-9.4c0-5.6-1.9-11-5.3-15.5
		C144.79,136.33,139.99,133.93,133.59,133.23z"/>
	<path class="st1" d="M184.89,151.63c-0.1,0.1-0.2,0.3-0.3,0.5c-0.5,1.1,0,2.4,0,3.6v29.4c0,0.8,0,1.6,0,2.5c0.2,1.9,0.9,2,2.6,1.9
		l4.3-0.2l5.1-0.2c1.8-0.1,2.9-0.5,3.2,1.7c0.1,0.6,0.1,1.2,0.2,1.8c0.1,1.3,0.4,2.7-0.8,3.1c-0.7,0.3-2,0.1-2.8,0.1l-4.6,0.2
		l-5.4,0.2c-0.8,0-1.3-0.1-1.7,0.5c-0.7,1-0.1,3.3-0.1,4.5v22.8c0,0.7-0.2,2.1,0.1,2.7c0.7,0.9,2.4,0.4,3.3,0.4h5.6
		c2-0.1,4.1-0.1,6.1,0c2.3,0.3,2.8,3.2,2.4,5.2c-0.4,2.2-2.1,1.5-4,1.5l-11.8-0.1c-2.3,0-4.6,0.2-6.9,0c-3-0.3-1.7-4.9-1.7-7.1
		v-76.1c0-2.2-1.2-6,1.8-6.1c2.3,0,4.6-0.1,6.9-0.1l9.9-0.1c1.4,0,3.7-0.5,4.9-0.1c1.3,0.4,1.6,1.9,1.6,3.2c0,0.7,0.1,2.7-0.3,3.3
		c-0.4,0.6-1.9,0.3-2.6,0.3l-6.6,0.1c-2.1,0-4.3,0.1-6.4,0.1C186.09,151.23,185.39,151.13,184.89,151.63z"/>
	<path class="st1" d="M212.49,145.13c0.7-0.8,2.2-0.5,3.6-0.4h5.9c4.2,0.1,8.3,0.1,12.5,0.2l6.2,0.1c1.4,0,2.9-0.4,4.2,0.1
		c1.6,0.6,1.4,1.6,1.4,3c0,1.3,0.3,2.7-0.9,3.5c-2,1.2-5.1,0.2-7.2,0.2c-1.6,0-3.3-0.2-4.9-0.1c-1.1,0.1-1.1,0-1.2,1.1
		c-0.1,0.9-0.1,1.8,0,2.7v4.6c-0.1,9.3-0.1,18.6-0.2,27.9c0,10-0.1,20.1-0.2,30.1c0,4,0.4,8.3-0.1,12.3c-0.3,2.6-2.9,1.9-4.9,1.8
		c-2.3-0.1-2-1.4-2-3.4c0-1.1,0-2.2,0-3.3l0.2-26.5l0.2-30.5l0.1-11.2c0-1.2,0-2.4,0-3.6c0.1-0.5,0.1-1,0-1.6
		c-0.6-1.3-3-0.6-4.2-0.6l-5.1-0.1c-1.2,0-3.4,0.5-4-0.7s0-3.2,0.1-4.4C211.99,145.93,212.19,145.53,212.49,145.13z"/>
	<path class="st1" d="M259.59,231.73c-1,0.7-2.6,0.7-3.9,0.6c-1.9-0.2-2.1-0.5-2.1-2.3c0-3.5,0-7-0.1-10.4l-0.3-29.3
		c-0.1-10.1-0.2-20.1-0.3-30.2c0-3.2-0.1-6.5-0.1-9.7c0-1.1,0-2.3,0-3.4c0-1.7,0-2.8,2.1-3c0.8-0.1,1.6-0.1,2.4,0
		c2.4,0.3,2.3,1.6,2.3,3.4c0,1.4,0,2.7,0,4.1c0,3.9,0.1,7.9,0.1,11.8c0.1,10.3,0.2,20.7,0.3,31l0.2,28.2c0,2.5,0.5,5.6,0.1,8.1
		C260.29,231.03,259.99,231.43,259.59,231.73z"/>
	<path class="st1" d="M268.59,144.53c0.2-0.2,0.4-0.3,0.6-0.4c1.4-0.4,4.1,0.1,5.6,0.2l16.2,0.2l5,0.1c1.7,0,3.5-0.4,5.2,0.1
		c2.3,0.6,1.6,3.5,1.4,5.5s-1.8,1.4-3.5,1.4l-5-0.1c-1.2,0-4.1-0.6-5.2,0s-0.7,2.6-0.7,3.7c0,1.7,0,3.4,0,5.1
		c-0.1,9.3-0.1,18.7-0.2,28c0,10-0.1,20-0.2,30l-0.1,10.2c0,1.5,0.5,3-1,3.6c-1.3,0.5-3.3,0.3-4.6,0c-1.9-0.4-1.3-2-1.3-3.7
		c0-8.3,0.1-16.6,0.1-25c0.1-10.7,0.1-21.3,0.2-31.9c0-4.2,0-8.4,0.1-12.6v-4.4c0-0.6,0-1.1,0-1.7c-0.3-1.7-1.5-1.7-3-1.8h-4.1
		c-1.6,0-3.2,0-4.7,0c-1.8-0.1-1.7-0.9-1.8-2.6C267.89,147.23,267.69,145.53,268.59,144.53z"/>
	<path class="st1" d="M335.09,181.33l10.3,1.4c0.9,1.9,0,4.2-1.5,5.6c-1.7,1.5-8,2.2-7.2,5.3c0.6,2.4,4.7,11.9,2.7,13.8
		c-2.6,2.5-6.8-1.8-8.2-3.9c-0.8-1.2-1.7-2.6-3.1-2.7c-3-0.2-5.4,3.8-6.9,5.7c-0.3,0.5-0.7,0.8-1.2,1.1c-0.8,0.2-1.7-0.2-2.1-0.9
		s-0.6-1.5-0.6-2.4c-0.3-3,0.3-7.6-1.2-10.2c-1.3-2.4-4.7-3.7-6.7-5.5c-1.3-1.2-2.6-3.4-1.3-4.7c0.6-0.5,1.4-0.9,2.2-0.9l7.9-1.2
		c0.8-0.1,1.6-0.3,2.3-0.7c0.6-0.5,1.2-1.1,1.5-1.8c2-3.6,2.4-13.6,6.2-6.1c1.1,2.1,0.9,7.4,3.7,7.8L335.09,181.33"/>
	<path class="st2" d="M331.99,192.03c1.1-0.3,2.5-0.9,2.7-2c0.1-1-0.5-2-1.4-2.4s-1.9-0.5-2.9-0.5c-2.8,0-11.3,0.4-11.7,2.9
		C317.99,193.83,328.99,192.83,331.99,192.03z"/>
</g>
</svg>
