<svg xmlns="http://www.w3.org/2000/svg" viewBox="0 0 195.62 71.63"><defs><style>.a,.c{fill:#46a0ce;}.a{fill-rule:evenodd;}.b{fill:#fff;}.d{fill:#207ea6;}.e{fill:#83cbda;}.f{fill:#1e7fa8;}.g{fill:#6dc3d6;}.h{fill:#1b181d;}.i{fill:#080b0a;}.j{fill:#ffd206;}</style></defs><title>logo_fr_FR</title><path class="a" d="M99.68,11.06l1.25,2.55.85,1.72c.09.19.23.7.41.83a2.89,2.89,0,0,0,.84.12l1.87.27,2.91.42-2,2-1.37,1.33c-.16.15-.6.44-.67.65s.12.65.15.84l.32,1.86.49,2.9-2.51-1.32-1.7-.9c-.18-.09-.6-.43-.81-.43s-.59.31-.76.4l-1.67.88-2.6,1.37.48-2.8.32-1.89c0-.21.23-.7.16-.91s-.47-.46-.61-.6L93.64,19,91.54,17l2.81-.4,1.9-.28c.21,0,.73,0,.91-.13s.29-.59.38-.77l.84-1.69Z"/><path class="b" d="M97.8,21a.69.69,0,0,1-.64-1.14c.38-.47,1.59-.38,2.17-.55a5.45,5.45,0,0,0,1.71-1c.29-.19.48-.32.84-.17l-.1,0a.7.7,0,0,1,.33.92c-.2.47-.83.54-1.27.69a14.65,14.65,0,0,0-3,1.32"/><path d="M76.92,12.81c3.32-.43,6.47,1.31,6.93,4.83A6.4,6.4,0,0,1,84,19.27a1.21,1.21,0,0,1-1.81.95c-.81-.55-.38-2.4-.74-3.27-1.34-3.25-6.48-2.16-8.4-.15-2.41,2.52-3.5,6.76-.46,9.19a11.45,11.45,0,0,0,9.78,1.75,9.41,9.41,0,0,0,4.4-3,12.92,12.92,0,0,0,1.53-2.41,3.38,3.38,0,0,0,.37-1.36,1.41,1.41,0,0,1,.55-1.06,1,1,0,0,1,1.53.07c.66.84,0,2.4-.32,3.29a12.37,12.37,0,0,1-4.56,5.31c-3.71,2.51-8,2.38-12,.68a9,9,0,0,1-3.48-2.15,7.74,7.74,0,0,1-1.64-3,8.87,8.87,0,0,1,.16-5.3,10,10,0,0,1,3.9-4.52A6.51,6.51,0,0,1,75.22,13C75.78,12.93,76.35,12.88,76.92,12.81Z"/><path d="M168.56,10.45c-.68.07-1.2,1.28-1.58,1.76a6.59,6.59,0,0,1-1.39,1.45,1.12,1.12,0,0,1-1.15.2c-.61-.24-.67-.88-.82-1.46-.38-1.47-1.05-2.71-2.75-2.7a11.91,11.91,0,0,0-1.34.12,4.3,4.3,0,0,0-1.34.66c.06-1.44-1.51-2-2.66-1.78-1.66.32-2.42,1.86-3.7,2.72-.43-.43-.44-1.16-.8-1.68a6.6,6.6,0,0,0-1.1-1.14c-.27-.23-.46-.48-.68-.7s-.16-.29-.39-.37c-1.38-.47-3.14,1.26-3.7,2.3a5.76,5.76,0,0,0-.16,4.05c.05.17.35.73.31.89s-.43.41-.45.43c-.41.41-.79.86-1.17,1.3a11.76,11.76,0,0,1-2.78,2.44c-.65.39-2.51,1.33-3.19.67a4.31,4.31,0,0,1-.54-1.85c-.08-.54-.07-1.09-.13-1.63-.19-1.82-1-3.94-2.83-4.64a3.6,3.6,0,0,0-2.36,0,6.73,6.73,0,0,0-2.13.88,5.59,5.59,0,0,0-1.19,1.19c-.39.5-.41,1.05-.83.48-.61-.83-1-1.77-2-2.2-1.81-.76-4.07.71-5.21,2-.13-1.64-.5-3.79-2.11-4.65s-3.47,0-4.64,1a17.63,17.63,0,0,0-3,3.71,21.75,21.75,0,0,0-1.8,3.1c-.12.28-.46.79-.29,1,.35.51,1.08.19,1.42-.11a4.27,4.27,0,0,0,1-1.37,17,17,0,0,1,1.29-2.17c1-1.39,2.35-3.59,4.19-3.85s2.34,2.19,2.45,3.64c.17,2.24-.66,4.28-1.21,6.42-.37,1.42-1.1,3.31-.89,4.82.09.66.66,1,1.19.56a5.18,5.18,0,0,0,1-2.08,19.84,19.84,0,0,0,1.09-4.27,13.73,13.73,0,0,1,.68-3.36A4.7,4.7,0,0,1,122.59,14c.73-.49,1.87-1.22,2.71-.65a4.34,4.34,0,0,1,1.32,2.5,11.21,11.21,0,0,1,.19,3.7c0,.81-.5,3.78,1,3.42.8-.19.78-1.3.79-2a19.67,19.67,0,0,1,.27-4.33c.49-2.12,2.14-4.06,4.51-3.7,1.72.26,2.11,2.84,2.24,4.25.11,1.21.2,4,1.77,4.13a7.21,7.21,0,0,0,4.45-1.07,15.15,15.15,0,0,0,3-2.7,12.19,12.19,0,0,1,.86-.9c.55-.51.45-.46,1,0,1.9,1.61,4.7,1.14,5.33-1.47a5.24,5.24,0,0,0,0-2.55c.59.06.69-.52.92-.86a6.8,6.8,0,0,1,1.71-1.63c.78-.54,2.11-1,2.5.2s-.33,2.59-.63,3.78c-.16.61.11,1.43.78.76.91-.9.71-2.65,1.59-3.65a2.25,2.25,0,0,1,2.24-.52c2.34.53.88,4.28,3.74,4.15,1.46-.06,2.32-1.35,3.12-2.41C168.15,12.35,169.83,10.33,168.56,10.45ZM147.9,8.87a1.73,1.73,0,0,1,1.7.77,6,6,0,0,1,1,1.47c0,.12.41.81.36.93s-.58.28-.72.3a3.15,3.15,0,0,1-2.54-1.45C147.2,10.32,146.6,9,147.9,8.87Zm3.26,5.7c-.21.93-.63,1.95-1.68,2.12A3,3,0,0,1,147,15.54c.36-.34,1.42-1,1.56-1.44a.75.75,0,0,0-.35-.76c-.54-.25-1.6.47-2,.77-.39-1.11-.75-2.83,0-3.87.12,1.24,1.75,2.54,2.82,3a3.52,3.52,0,0,0,2.13,0C151.14,13.62,151.11,14.08,151.16,14.57Z"/><path d="M90.72,52.26c-.71.14-.67.12-.93.83A4.45,4.45,0,0,1,88.69,55,6.46,6.46,0,0,1,85,56.14a4.83,4.83,0,0,1-2.7-1.51,5.56,5.56,0,0,1-1.46-2.25,22,22,0,0,1-1-9.26c0-.57-.16-2,.14-2.4s1.16-.29,1.51-.31c.67,0,2.23.28,2.73-.27a1,1,0,0,0-.53-1.52,4.18,4.18,0,0,0-1,0H79.9V34.81c0-1,.32-3.7-1.34-3.45-1,.15-.68,1.15-.6,1.81A12.79,12.79,0,0,1,78.1,35v3.84c-.82,0-2.73-.38-2.79.83s1.92,1,2.78,1a38,38,0,0,0,0,7.54c-1.2-.59-2.69,1.38-3.2,2.14a5.72,5.72,0,0,0-.82,1.38c-.06.22,0,.46-.07.69a3.37,3.37,0,0,1-1.16,1.45,13.11,13.11,0,0,1-2.22,1.39,4.67,4.67,0,0,1-1.66.63,6.88,6.88,0,0,1-1.5-.09,5,5,0,0,1-3.73-1.93c-.24-.36-.74-1.26-.61-1.71.09-.3,1.72-.62,2.16-.82a28.31,28.31,0,0,0,5.2-2.8C72.63,47,74.34,44.89,74,42.12c-.29-2.11-.56-5.56-3.16-6.17a6.86,6.86,0,0,0-2.73.26,5.68,5.68,0,0,0-1.47.65,14.14,14.14,0,0,0-2.67,1.68,15.2,15.2,0,0,0-3.47,5.63A12.36,12.36,0,0,0,59.8,50c.29,2.3.56,4.75,2.27,6.49a9.12,9.12,0,0,0,8.75,1.9,9.74,9.74,0,0,0,3.86-2.26,20.09,20.09,0,0,0,3.7-5.81,11.37,11.37,0,0,0,1,3.72,10.56,10.56,0,0,0,2.43,2.69,5.19,5.19,0,0,0,4,1.21,7.92,7.92,0,0,0,4.81-2.2C91.25,55.12,92.4,52.27,90.72,52.26Zm-28-3.17a21.55,21.55,0,0,1,.63-4.16,8.34,8.34,0,0,1,2-3.37c.79-.87,3.39-3.62,4.75-2.53a3.8,3.8,0,0,1,1,2.7,4.07,4.07,0,0,1-.33,2.33,9.47,9.47,0,0,1-1.42,1.55A11.87,11.87,0,0,1,62.68,49.09Z"/><path d="M174.11,42.62a2.36,2.36,0,0,0-2,.38,4.73,4.73,0,0,0-1.14.93,2,2,0,0,1-.6.6,4.29,4.29,0,0,1-5.44-1c-.31-.42-.81-1.54-.41-2a12.9,12.9,0,0,1,2.55-.08c1.7-.09,3.71-.34,5.06-1.49s2.52-5.58.13-6.35c-3.49-1.12-7.36,1.5-8.76,4.67a9.52,9.52,0,0,0-.88,4.25c.06.68.4,1.1,0,1.73a2.07,2.07,0,0,1-1.05.88,5.09,5.09,0,0,1-2.27.69,4.44,4.44,0,0,1-3.1-2.13,12.55,12.55,0,0,1-1.38-5.1,21.93,21.93,0,0,1-.17-3.34c0-1-.4-1.8.75-2,.66-.11,1.34,0,2-.13s1.26-.95.43-1.39a3.46,3.46,0,0,0-1.47,0c-.34,0-1.47.26-1.72.07s-.16-2.38-.18-2.89,0-1-.06-1.49-.7-2.13-1.54-1.22c-.45.49.05,1.54.1,2.08s0,1.2.07,1.79c0,.41.29,1.54.08,1.9s-.95.13-1.33.17-.64,0-.82.33a.82.82,0,0,0,.31,1.07,4.67,4.67,0,0,0,1.9,0,30.4,30.4,0,0,0,.16,5.23c.21,2.07.51,4.6,1.91,6.21-.14,0-.46,0-.57.14s-.28.74-.36,1a4.48,4.48,0,0,1-.91,1.71,6.77,6.77,0,0,1-3.6,1.41c-1.73.14-3.61-1.6-4.38-3-1.33-2.46-1.59-5.51-1.77-8.24-.06-.89,0-1.76,0-2.65,0-.53-.24-1.56.17-1.92.65-.57,2.34-.27,3.18-.34.44,0,.9,0,1.12-.49a1,1,0,0,0-.54-1.35,6.74,6.74,0,0,0-2.24,0c-.32,0-1.59.24-1.81,0s-.06-1.7-.08-2l-.11-2.88a3.19,3.19,0,0,0-.5-2.14,1,1,0,0,0-1.54,0c-.28.34-.15.68-.08,1.08a17.86,17.86,0,0,1,.3,2.52l.13,3.19c0,.08.08.61,0,.66s-1,0-1.21,0c-.4,0-1,0-1.33.21a1,1,0,0,0,.12,1.57c.61.36,1.84.07,2.5,0a37.86,37.86,0,0,0,.51,9c-.49-.61-1.53.15-1.92.52a4.57,4.57,0,0,0-1.1,1.42,2.14,2.14,0,0,1-.51.9,5.4,5.4,0,0,1-3.22,1.38,4.35,4.35,0,0,1-2.76-1.1,2.35,2.35,0,0,1-.58-1,1.54,1.54,0,0,1-.11-.59c.07-.33-.07-.16.33-.3,1.1-.41,2.27-.6,3.38-1.06,1.62-.7,3.55-1.78,4-3.65a6.32,6.32,0,0,0-.53-4.26c-.76-1.28-2.35-1.25-3.62-.75a7.67,7.67,0,0,0-3.31,2.3,10.89,10.89,0,0,0-1.2,1.73c-.31.56-.43,1.25-.75,1.79-.17.29-.46.53-.64.83a9.43,9.43,0,0,0-.67,1.61,11.56,11.56,0,0,1-2,3.71c-1,1.21-2.63,2.48-4.2,1.5-2.07-1.27-2.42-4.19-3.06-6.27-.2-.65-.49-1.78-1.18-2.1s-1.41.45-1.4,1.14a20.78,20.78,0,0,0,.68,3.55,5,5,0,0,1-1.18,4.58c-.78.75-2,1.57-3.11,1.32A6.86,6.86,0,0,1,110.82,48a3.55,3.55,0,0,1-.77-1.68,18.79,18.79,0,0,1-.64-3.31,8.61,8.61,0,0,1,0-1.83c.13-.88.37-2.4-1.08-2s-1,2.77-1,3.9a10.61,10.61,0,0,0,1,4.8c1.12,1.89,2.84,3.92,5.21,4a7.19,7.19,0,0,0,5.17-2.32,2.91,2.91,0,0,0,1-2.12c1.27,1.65,2.79,2.68,4.91,2.45,2.68-.29,4.56-2.67,5.72-4.89.64,2.53,3.41,3.84,5.87,3.6,3-.29,4.87-2.78,6.28-5.29a17.4,17.4,0,0,0,1.06,3.61,8.64,8.64,0,0,0,2.26,2.64,7,7,0,0,0,2.68,1.57,6,6,0,0,0,1.53,0c2.75-.11,6.49-1.94,6.3-5.13a4.48,4.48,0,0,0,3.82,1.29,6.33,6.33,0,0,0,3.91-2,6.1,6.1,0,0,0,5.4,1.58,8.37,8.37,0,0,0,3.22-1.75C172.88,44.91,175.36,42.93,174.11,42.62Zm-7.1-6c1.17-.75,5.37-3,4.8.13a3.56,3.56,0,0,1-.68,1.7,6.27,6.27,0,0,1-2.32,1,7.06,7.06,0,0,1-3.76.14A10.07,10.07,0,0,1,167,36.61Zm-33.85,1.68a7.91,7.91,0,0,1,3.42-2.59c1.07-.3,1.4.48,1.46,1.49a4.05,4.05,0,0,1-.21,1.76,6.37,6.37,0,0,1-2.11,1.73A7.4,7.4,0,0,1,132,41.85,10.73,10.73,0,0,1,133.16,38.29Z"/><path d="M175.22,5.82c1.88-.14,2.25,4,2.41,5.15.42,3,.73,6.11,1,9.17l.78,10.41.21,2.8a8.36,8.36,0,0,1,.12,1.5,1.29,1.29,0,0,1-1.56,1c-.7-.1-.9-.62-1-1.23l-.78-10.3c-.3-3.95-.64-7.92-1.24-11.84-.2-1.3-.42-2.59-.74-3.86-.28-1.12-1-2.66.78-2.8m3.43,35.36a2.07,2.07,0,0,1,2.06,2A1.89,1.89,0,0,1,178.84,45c-2,.09-2.2-3.66-.19-3.81"/><path d="M87.05,35.48c1.72-.07,1.17-2.61-.43-2.43C85.24,33.2,85.77,35.53,87.05,35.48Z"/><path d="M105.24,69.83c-2.4-2.08-2.77-6.4-2.79-9.33,0-2,.27-4.11.45-6.13s.32-3.91.53-5.85c.32-2.85,1.21-5.64,1.47-8.49.08-.77.14-1.75-.64-2.1a8,8,0,0,0-4.08-.18,6.62,6.62,0,0,0-4.59,2.19A14.78,14.78,0,0,0,93.1,45c-.14.55-.1,1.11-.28,1.64A6.65,6.65,0,0,1,91,49.05c-.78.76-2,1.74-3,.77-1.36-1.3-1-4.34-.89-6.09.06-.8.14-1.6.21-2.4s.57-2.27-.34-2.56-1,1-1.15,1.59a26.78,26.78,0,0,0-.15,8.24,3.58,3.58,0,0,0,3.31,3.25c1.9,0,3.5-1.87,4.57-3.29a4,4,0,0,0,3.92,1.68c1.76-.18,3.3-1.75,4.5-2.9-.33,2-.54,4.12-.73,6.18a44,44,0,0,0-.38,8.8,23.52,23.52,0,0,0,1.23,5.74,7.47,7.47,0,0,0,1.56,2.63c.34.36.63.7,1.13.37A1,1,0,0,0,105.24,69.83Zm-3.3-25.3c-1,1.62-3.2,4.84-5.56,4.17-2.8-.8-1.59-4.24-.58-6a9.52,9.52,0,0,1,2-2.68,7.42,7.42,0,0,1,2.9-.84,4.11,4.11,0,0,1,2.28,0c.37.16.17,0,.25.35a2.49,2.49,0,0,1-.09.81A23.09,23.09,0,0,1,101.94,44.53Z"/><path d="M53.25,35.08c3-1.47,6-3.07,8.92-4.81.76-.45,3-1.45,3.07-2.37,0-.3-.22-.46,0-.8s.44-.49.75-.28c.57.39-.2,1.26.87,1.1.54-.09,1-1.24,1.55-1,.83.34-.59,1.2-.62,1.5s.16.54.39.57.45-.4.71-.46.59,0,.56.42-.52.5-.81.67-.61.47-.39.78.31-.06.59,0c1.1.14.11.92-.42,1.07a39.51,39.51,0,0,0-4,1.57c-3.59,1.52-7.15,3.11-10.74,4.62"/><path d="M24.62,28.6a69.42,69.42,0,0,1-7.49-6.2c-.43-.4-.84-.81-1.24-1.25-.15-.16-.45-.4-.43-.65s.44-.44.49-.75c.14-.82-.7-.64-1-.15-.13.18-.13.43-.36.54a1,1,0,0,1-1-.37c-.19-.27-.49-1.39-1-.59-.4.6.53.82.27,1.36-.44.89-.81-.06-1.21-.17a.49.49,0,0,0-.63.35c-.13.49.31.49.53.74s.35.41.14.69-.28.05-.57,0c-.61-.09-1.06.35-.56.85a8.86,8.86,0,0,0,1.48.73c.64.36,1.26.77,1.88,1.16,3.12,2,6.19,4.06,9.32,6"/><path d="M25.84,42.52c-.92,1.7-1.85,3.4-2.82,5.08a13.67,13.67,0,0,1-1.25,2c-.42.51-.82.35-1.46.22-.37-.07-1.8-.53-1.44.1.22.4,1.07.76,1.44,1A14.12,14.12,0,0,0,22,52.25c.54.28.65,0,1-.39.58-.61,1.11-1.27,1.65-1.93,1.35-1.64,2.66-3.31,4-5"/><path d="M44.17,47.75c.39,1.82.79,3.63,1.22,5.44.22.91.44,1.81.69,2.71.09.31.18,1.11.47,1.31s.85-.05,1.08-.09c.76-.13,1.51-.31,2.27-.44.12,0,1.14-.07,1.18-.29s-.62-.36-.77-.41c-.53-.15-1.56-.19-1.87-.7a5.46,5.46,0,0,1-.26-1.94c-.2-2.17-.3-4.36-.41-6.54"/><path class="c" d="M31.22,51.6h0m9.25,1.26h0m-5.93-1.21h0m0,0h0m10.13,1.24h0M26.55,49.21h0M46,52.58h0m-19.4-3.37h0m25.07,4h0m.4-.28h0m0,0h0M21.49,46.05h0m-4.73-1h0m2.58.28h0m33.38,4.58h0m0,0h0M18,42.82h0m37.24,5.6h0M17.61,41.17h0m0,0h0m-.68-.12h0m-1.21-6.17h0m1.49-1.49h0M17.27,29h0m.23-.31h0M63,31.18h0m-1.23-.84h0m0,0h0m1.41-.18h0M20.31,19.56h0m40.93,5.53h0m-40-7.83h0m-1.5-1.48h0m3.13.19h0m36.24-1.76h0M28,7.74h0m.43-.45h0m2.33-1.35h0m3.81-.74h0M32.32,3.94h0M50.78,6.62h0M36,3.88h0m0,0h0m2.9-.55h0m7.8.48h0m-4.88-2h0M28.12,48.58l-.24-.32c.47.21.47.48.73.9-.17-.19-.33-.39-.49-.58m22.94,3s0,.06,0,0M49.81,51a2.13,2.13,0,0,1,1-.67c0,.4-.86,1.16-1.11,1.45a4,4,0,0,1,.08-.78m1.42.08c-.08-.51.47-.82.76-1.21,0,0-.18.4-.21.38s.32-.58-.07.2a7.75,7.75,0,0,1-.46.79l0-.16m-30.9-8.73a3.69,3.69,0,0,1-.42.9,7.36,7.36,0,0,1,.42-.9M19,32.38a2.31,2.31,0,0,1-1.11,1.39A8.26,8.26,0,0,1,19,32.38m.66-1.47c-.35.64-.81,1.22-1.2,1.83-.23.36-.42.93-.76,1.15.6-1,1.26-2,2-3m39.46,7.23.09-.45c0,.12,0,.61-.09.45M19.4,28.19c.05,0-.06.07,0,0M60.12,34.5q.12.36.21.72-.12-.36-.21-.72m-.22.78a1.58,1.58,0,0,1-.07-1.07,7.47,7.47,0,0,1,.66,2.12,4,4,0,0,1-.59-1M20.4,27l.37-.3s-.57.55-.37.3m39.72,5.42a1.21,1.21,0,0,1,0-.6c.16.15,1.62,1.66,1.43,1.82,0,0-.38-.89-.39-.9.29.24.34.72.45,1.07a8.11,8.11,0,0,1-1.48-1.39M61,32.3c-.17-.34-.34-.69-.52-1a2.53,2.53,0,0,1,.8,1.35c-.1-.1-.19-.21-.28-.32m-.7-1.8a4.28,4.28,0,0,1,.37.57,3.47,3.47,0,0,1-.37-.57m.92-.93a.48.48,0,0,1,.28.38l-.28-.38m-.44.25a1,1,0,0,1-.51-.94,5.3,5.3,0,0,1,1.55,1.72,5.65,5.65,0,0,1-1-.78m-38.6-8.29c-.16.92-1.72,1.65-2.46,2,.82-.65,1.65-1.3,2.46-2m38.46,7.22c-.12-.17-.37-.44-.38-.67a3.92,3.92,0,0,1,.88,1.14l-.5-.47m1.55-3.61a2.69,2.69,0,0,1,.24.48,3.58,3.58,0,0,0-.24-.48M24.67,16.86A6.17,6.17,0,0,1,21.73,19c1-.74,1.93-1.47,2.94-2.15m34.41,3.61L58.94,20c.65.91,1.24,1.86,1.82,2.8a14.37,14.37,0,0,0-1.68-2.33M30.32,8l1.29.12a5.46,5.46,0,0,1-2.09-.24c.26,0,.53.09.8.12m24.07,3.09a13.62,13.62,0,0,1,4.06,2.5,6.81,6.81,0,0,1-1.8-1c-.76-.48-1.51-1-2.26-1.48M36.59,6.61c0-.24-.49-.36-.62-.44a.72.72,0,0,1-.38-.86,4.35,4.35,0,0,0,1.14,1.31c-.24.11-.29.11-.14,0M40,6c.06-.06.08,0,0,0M38.66,6a3.68,3.68,0,0,0-.33-.35l.82.43c-.26,0-.33.12-.49-.08m-1-.73a2.76,2.76,0,0,1,.7.78,2.89,2.89,0,0,1-.7-.78m0,0-.18-.33.31.39-.13-.06m8.1,1.24a15.49,15.49,0,0,1,2,.1,5,5,0,0,1-2-.1M39.45,4.13c.13.59.65.94.18,1.41a5.66,5.66,0,0,1-.54-1.38c0-.15-.07-.72-.18-.83.09.09.05.75.06.85a6,6,0,0,0,.35,1.45c-.18-.13-1.66-2-1.49-2.14a6.67,6.67,0,0,0,.55,1.3,4.79,4.79,0,0,1-1.09-1.2c.09.68,1.15,1.67,1.58,2.15a2.48,2.48,0,0,1-1.53-1.13c0-.05-.46-1.37-.33-1.43-.4.12.46,2.48.62,2.71-.06,0-1.51-1-1.43-1.1-.06,0,.57.65.61.7a7.47,7.47,0,0,1-1-.59s1.68,1.38,1.8,1.49a1.82,1.82,0,0,1-1.8-.92c-.41-.67.23-.94.18-1.59,0,.24-.48.89-.55,1.12l-.13-.18c.17.31,0,.52,0,.86-.14-.13-1.22-1.46-1.09-1.59a9.18,9.18,0,0,0,.7,1.5,3.37,3.37,0,0,0-.37-.39l.12.17a.66.66,0,0,1-.18-.19,11.61,11.61,0,0,1,.89,1.21c-.14-.09-1.45-1-1.33-1.2-.14.09,1.48,1.65,1.58,1.79-.9.34-1.89-.88-2-1.74-.07.35.33,1.06.45,1.35-1.43-.93-.81-2.48-.54-3.82A13.77,13.77,0,0,0,32.9,4.7a2.57,2.57,0,0,0,1.17,2.61c-.58,0-1-1.12-1.25-1.57s-.26-1.24-.5-1.8a9.87,9.87,0,0,1,.1,1.23,5.53,5.53,0,0,0,.7,2c-.28-.08-3-1.45-2.77-1.8-.28.4,2.36,2.12,2.56,2.21-.81,0-1.16.23-1.62-.46a4.67,4.67,0,0,1-.55-1.15,5.12,5.12,0,0,0,.62,1.66c-.59,0-1.18,0-1.78,0a3.27,3.27,0,0,1-1.17-.31l.32.27-.5,0a18.58,18.58,0,0,0,2.61,1,3,3,0,0,1-1.76-.12c-.38-.14-.73-.52-1.1-.62.5.2.88.76,1.43,1A12,12,0,0,1,27.17,9c0,.1,3.18,0,3.48,0a13.43,13.43,0,0,0-4,2,9,9,0,0,1-2.49,1.06,8.8,8.8,0,0,1-1.31.19s1.77,0,1.92-.08A17.32,17.32,0,0,0,28.23,11c-.32.2-3.88,2.71-4,2.42.06.17,1.53-.5,1.63-.54a6,6,0,0,1-2.26,1.06c-.1,0-1.63.53-1.65.49s2.1-.32,2.21-.34l-.42.12,1.51-.27A12.21,12.21,0,0,1,22,15.34a14.62,14.62,0,0,1-1.49.33,2.57,2.57,0,0,0-.73.1c.13-.07.48,0,.62,0a12.29,12.29,0,0,0,1.49-.09,12.56,12.56,0,0,0,3.36-.9A19.92,19.92,0,0,1,22.87,16c.94-.29,1.92-.51,2.87-.79-.16.24-2.15,1.5-2.25,1.25,0,.07.69-.08.72-.08-.86.73-2,.59-3,.91.67-.14,1.42,0,2.12-.14-.59.55-1.16,1.11-1.72,1.69-.41.42-.91.41-1.33.74a3.28,3.28,0,0,1,.76-.14,6.19,6.19,0,0,0-.47.55c-.18-.3,2.95-1.41,3.21-1.54a4.42,4.42,0,0,1-1.63,1.64c-.09.06-1.38.82-1.39.8s.87-.36.9-.37c-.12.09-1.84,1.55-2,1.42a18.83,18.83,0,0,0,2.39-1.29c-.58.64-1.19,1.27-1.79,1.9-.1.11-1.49,1.61-1.64,1.31a4,4,0,0,1,.46-.07,7.28,7.28,0,0,0-.54.58c-.14-.14,1.44-.81,1.46-.81s-1.23.93-1.29.84,3-1.57,3.21-1.7c-.39,1.11-1.54,1.6-2.47,2.16L17,26.35a32.35,32.35,0,0,0,3.91-2.27A9.25,9.25,0,0,1,18.23,26a16.36,16.36,0,0,1-2,1c.08-.22,1.88-.59,2.11-.67-.07.05-1.28,1-1.29,1-.09-.25,3.84-2,4.2-2.17-.22.8-1.29,1.57-1.88,2.14s-1.27,1-1.87,1.5a5,5,0,0,1,.48-.21c.06,0-.47.43-.51.39s1.94-1.18,2.06-1.25a3.53,3.53,0,0,1-1.34.92c-.23.12-.76.25-.92.47.26-.3,1.29-.45,1.66-.62a8.85,8.85,0,0,1-1.44,1.36l.88-.63-.77,1a14.94,14.94,0,0,1,3.1-2.68c-.09.5-4.16,4.07-3.91,4.29-.18-.21,2.95-2.4,3.21-2.59-.3.43-.54.89-.88,1.29s-.74.78-1.05,1.23-.52,1.19-.86,1.72a18.85,18.85,0,0,1,1.5-2c-.24.48-.47,1-.69,1.45A4.51,4.51,0,0,1,17.54,34c-.45.5-1.34.49-1.82.91a2.66,2.66,0,0,1,.63-.17,5.22,5.22,0,0,0,.56-.18l.32-.12c.16-.11.21-.1.14.06,0,0,1-.6,1.15-.67-.08.3-1.37,2.71-1.33,2.74s.06-.14,0,.17c.75-.79,1.41-1.66,2.13-2.47A4.66,4.66,0,0,1,17.82,37c.38-.14.82-.82,1.07-1.09l-.05.23c.31-.43.59-.84.93-1.25a4.44,4.44,0,0,1-1.31,2.47,15.71,15.71,0,0,1-1.12,1.32c.06.06,2.3-2.17,2.42-2.32.06,2-1.73,3.27-2.83,4.7a24.43,24.43,0,0,0,2.64-2.46,9.47,9.47,0,0,1-1.05,1.56c-.17.21-.89.78-.91,1,0-.21,1-.85,1.15-1,0,.06-.47,1.1-.47,1.1-.17-.14,1.59-2.3,1.71-2.46.24,1.46-1,3-2,4a12.27,12.27,0,0,0,1.11-.94A15.28,15.28,0,0,1,17.68,44c-.15.18-.92.8-.92,1,0-.3,1.26-1.09,1.47-1.3a17.28,17.28,0,0,0,2.1-2.58,3.2,3.2,0,0,1-.38.95,10,10,0,0,0-.41,1.42,10.64,10.64,0,0,1-.2,1.79c.16-.09.23-1.08.28-1.23a6.9,6.9,0,0,1,.78-1.56A9.26,9.26,0,0,0,21,44.93a5.94,5.94,0,0,1,.52,1.12,11.59,11.59,0,0,0-.42-1.47,9.5,9.5,0,0,1-.14-2.66c.18.39,1.35,4.64,1.72,4.51a7,7,0,0,1-.56-1.85c.63.85,1.2,1.8,1.9,2.58.13.14,1.76,1.71,1.74,1.73s-.37-.49-.33-.43c.37.28.76.5,1.15.75a8.07,8.07,0,0,1-2.81-3.55A5.94,5.94,0,0,1,25,47.1,10.64,10.64,0,0,0,26.57,49c.22.21,3.1,2.57,3.29,2.35a11.13,11.13,0,0,1-1.55-1.31,11.63,11.63,0,0,1-2.2-2.7,13,13,0,0,1,2.45,2.3c.37.36,1,1.24,1.51,1.4a6.83,6.83,0,0,1-1.35-1.67c.85.69,1.6,1.57,2.49,2.22L31,51.27l.6.39c-.37.24-2-2.53-2.16-2.77a10.07,10.07,0,0,1,2.09,1.29c.14.09,1.33,1.33,1.32,1.35s-.55-.78-.56-.8a7.34,7.34,0,0,0,2.29.92,6,6,0,0,1-2.87-2C32,49.73,34.85,51,34.83,51a12.59,12.59,0,0,1-1.37-.87,3.5,3.5,0,0,1,1.21.38,3.51,3.51,0,0,1,.5.55,5.12,5.12,0,0,0-.43-.64,45.11,45.11,0,0,0,8.9,1.08,15.84,15.84,0,0,1-2,1c-.24.1-1,.21-1.12.41.17-.17.94-.19,1.18-.25A17.73,17.73,0,0,0,44,51.87a2.93,2.93,0,0,1-.45.3c.36,0,.76-.42,1.08-.55a5,5,0,0,1,1.54-.22c-.18.17-2.51,2.14-2.67,2l1.7-.85a3.71,3.71,0,0,0-.56.35,6.37,6.37,0,0,1,1.15-.54c.67-.35,1.32-1,2-1.17a14.29,14.29,0,0,1-1.32,1c-.1.07-.58.29-.6.4,0-.08.57-.27.62-.3A13.07,13.07,0,0,0,48,51.5a10.84,10.84,0,0,1-1.22,1.4s.88-.73.9-.74a4.48,4.48,0,0,1,1.65-1.3,14.19,14.19,0,0,1-2.24,2.27s2.12-1.54,2.22-1.62c0,.65.14.63-.32,1.13,0,0-.5.56-.51.56l1-.82a3.27,3.27,0,0,0,1.47,1.76,3.5,3.5,0,0,1-1.08-1.47.92.92,0,0,0,.24.28c0-.11-.34-.49-.33-.69s.54-.61.77-.83l-.23.33s.46-.49.47-.5.13,1.24-.22,1.07c0,0,.4-.42.35-.36a5.73,5.73,0,0,0,.72,1.25c-.15-.34-.78-1.17-.49-1.52A11.38,11.38,0,0,0,52,52.93c-.24-.49-.82-1-.64-1.54a4.75,4.75,0,0,1,.75-1l.93-1.21a3,3,0,0,0-.34.67c.08-.47.82-1,1.13-1.31-.07.17-1.63,2.29-1.64,2.28a11.87,11.87,0,0,1,1-.9c0,.09-.91,1.41-.89,1.44A11.7,11.7,0,0,1,53.45,50c.55-.75,1.09-1.57,1.57-2.37A2.21,2.21,0,0,1,55,48c-.31-.15,1.25-1.88,1.39-2.07a22.93,22.93,0,0,1-1.11,2.47c.3-.56.79-1,1.11-1.59,0,.12,0,.25,0,.37-.05,0,1-3,1-3.34,0,.16,0,2.45-.17,2.44.14,0,.85-4.32.95-4.62a8.85,8.85,0,0,1,0,2.67A7.31,7.31,0,0,1,58,45.74a15,15,0,0,1,.56-2.13,3.49,3.49,0,0,0,.22.69c-.37,0,.22-2.69.25-2.87a9.86,9.86,0,0,1-.27,2s.7-2.59.73-2.76,0,.43,0,.43.26-2.27.25-2.49a12.23,12.23,0,0,1-.16-3.07A8.63,8.63,0,0,0,60.22,37a13.06,13.06,0,0,1-.4-1.52,6.13,6.13,0,0,0,.55.85.88.88,0,0,1-.19-.34,3.3,3.3,0,0,1,.28,2.31c0,.09-.22,1.51-.2,1.52s.39-1.39.4-1.44a11.53,11.53,0,0,0,.33-2.8l.12.36c.27-.11-.6-2.51-.71-2.79.14.1,1.6,1.15,1.72,1-.37.29-.62-1.1-.63-1.16s.43.35.44.33c-.3.23-.61-1.31-.63-1.38a7.68,7.68,0,0,0,.77.45,7.2,7.2,0,0,1-.81-.65c-.26-.44-.3-1.06-.56-1.52.37.23,1,.39,1.27.74-.06-.21.74.14,1,.18a2.8,2.8,0,0,1-1-.45,2,2,0,0,1-.41-.87c.09.06.75.39.78.5s-.43-.37-.48-.41a1.68,1.68,0,0,1-.58-.95,5.2,5.2,0,0,0,1.86,1.16c-.58-.11-1.68-1.29-2-1.71a7.79,7.79,0,0,1-.71-1.85A8.33,8.33,0,0,1,60,24.79c.18.21,2.33,2.38,2.13,2.55,0,0-.26-.63-.22-.54a.79.79,0,0,0,.22.18,14.68,14.68,0,0,1-1.33-2.48,4.51,4.51,0,0,1,.49.59c-.46-1-1.52-2-1.78-3.09.25.27,3.09,3.48,2.92,3.64.06,0-2-4.71-2.15-5.08a15.67,15.67,0,0,0,1.41,1.27c.09-.09-3.44-4-3.67-4.51a32,32,0,0,1,3.42,2.89s-1.65-1.94-1.78-2.08c-.49-.53-1-1.05-1.51-1.56a7.72,7.72,0,0,1-1.44-1.87c.27.25,3.66,3.21,3.53,3.37a65,65,0,0,0-5-5.88c.82.4,1.65.8,2.5,1.14.22.09.49.14.71.25s.46.45.73.63A16.37,16.37,0,0,1,58,12.86a13.6,13.6,0,0,0-2.83-2.25,20.58,20.58,0,0,1,2.39.39,39.08,39.08,0,0,1-4.61-1.52,1.42,1.42,0,0,1,.8.27,1.36,1.36,0,0,0-.34-.23c.33,0,3.51.59,3.62.38a10.71,10.71,0,0,0-2.15-.54C54,9.15,53.15,9,52.29,8.79a12.65,12.65,0,0,1-2-.78c-.63-.26-1.26-.4-1.88-.66a11.8,11.8,0,0,1,3.11.54,15.73,15.73,0,0,1,2.07.8c.09-.19-3-1.53-3.18-1.6A23.13,23.13,0,0,0,46.09,6a12.5,12.5,0,0,1,2.73.18,10.1,10.1,0,0,0,2,.46,2.62,2.62,0,0,1-.67-.29,13.69,13.69,0,0,0-1.63-.57,11.35,11.35,0,0,0-3.93-.44c.21-.07,2.78-.57,2.84-.34a14.37,14.37,0,0,0-1.94-.14,14.11,14.11,0,0,0,1.26-1A9.6,9.6,0,0,1,42.9,5.25a10.74,10.74,0,0,1,2.35-1.66c.32-.15,1.18-.25,1.41-.49A9.21,9.21,0,0,0,43.78,4c-.58.31-1.09.69-1.64,1a1.92,1.92,0,0,1-1.27.3c.08-.09.94-1.26.91-1.28s-1,1.08-1.09,1.16c-.08-.08.75-1.71.84-2a8.92,8.92,0,0,1,.3-1.42A6.81,6.81,0,0,0,41.41,3a7.64,7.64,0,0,1-1.12,1.8,5.62,5.62,0,0,1-1-3.52,6.64,6.64,0,0,0,.18,2.84m-.18-2.84h0m0,0h0"/><path d="M59.75,24.79a30.77,30.77,0,0,1-6.36-.24c-4.63-.51-9.55-1.21-13.89-3-3.44-1.4-6.88-2.83-10.31-4.26a6,6,0,0,0-2.42-.79c-1,0-1.36.69-1.83,1.43s-1.06,1.66-1.6,2.48A33.1,33.1,0,0,0,21.05,24c-.78,1.61-.08,3,1.11,4.14A22.92,22.92,0,0,0,28.21,32a104.87,104.87,0,0,0,17.34,6,36.53,36.53,0,0,0,9.26,1.64,7.36,7.36,0,0,0,1.15,0c.74-.14,1.1-1.11,1.37-1.76a31.62,31.62,0,0,0,1.34-4.58,43.41,43.41,0,0,0,1.22-6.57C59.91,26.51,60.11,24.79,59.75,24.79Z"/><path class="d" d="M54.79,39.74a35.26,35.26,0,0,1-8.7-1.5A117.92,117.92,0,0,1,30.22,33c-2.92-1.22-11.83-4.86-9-9.41.83-1.37,1.76-2.68,2.63-4s1.6-3.37,3.38-3.1a10,10,0,0,1,2.2.84l4.4,1.83c2.46,1,4.93,2.24,7.47,3a60.68,60.68,0,0,0,8.45,1.77c1.95.32,3.92.58,5.9.71q.94.08,1.89.09h.88a4.68,4.68,0,0,1,1.34-.05c.93.4.09,3.84-.09,4.7-.61,3-1.11,6.25-2.44,9-.26.55-.55,1.29-1.27,1.29A10.47,10.47,0,0,0,54.79,39.74Zm-28-23.11c-1.48,0-2.4,2.33-3.09,3.4-.83,1.26-1.78,2.5-2.51,3.83-1.3,2.37.83,4.22,2.59,5.52a36.11,36.11,0,0,0,8.66,4.31,117.93,117.93,0,0,0,16.3,5,35.74,35.74,0,0,0,4.57.77,13,13,0,0,0,1.39.08c1,0,1.63.07,2.14-.95a32.66,32.66,0,0,0,2.25-7.83,29,29,0,0,0,.69-4.45c0-.32.18-1.23-.13-1.41s-1.41.06-1.76.05a61.35,61.35,0,0,1-11.45-1.39A35.45,35.45,0,0,1,40.37,22c-1.36-.54-2.71-1.1-4.06-1.65-2.83-1.17-5.64-2.39-8.48-3.52A2.41,2.41,0,0,0,26.83,16.63Z"/><path class="e" d="M54.48,39a40.71,40.71,0,0,1-9.23-1.44,116.67,116.67,0,0,1-15.74-4.81,26.78,26.78,0,0,1-6.79-3.59,6.43,6.43,0,0,1-2.3-2.48,3.64,3.64,0,0,1,.49-3.17q1.32-2.13,2.62-4.26c.72-1.2,1.32-2.94,3-2.77a8.13,8.13,0,0,1,1.91.65l4.3,1.64c2.61,1,5.22,2.16,7.9,3a55.13,55.13,0,0,0,8,1.49c2.05.29,4.11.51,6.17.61.76,0,1.53.06,2.29.05.55,0,1.1,0,1.64-.05a2.18,2.18,0,0,1,.62-.06c.6.24.35,1.67.32,2.18a23.36,23.36,0,0,1-.35,2.91c-.51,2.91-.92,6.06-2.14,8.79-.25.56-.52,1.28-1.25,1.28C55.45,38.9,55,39,54.48,39ZM26.28,16.7c-1.48,0-2.22,2.12-2.88,3.2-.81,1.34-1.68,2.65-2.46,4a3.11,3.11,0,0,0,.17,3.51,12.76,12.76,0,0,0,2,1.77,29.16,29.16,0,0,0,7.2,3.63,120.17,120.17,0,0,0,15.78,4.7A33.72,33.72,0,0,0,55,38.75c1,0,1.44,0,1.88-1a6.65,6.65,0,0,0,.27-.61,23.18,23.18,0,0,0,.94-3.25,49,49,0,0,0,1.32-7.49c0-.51.33-2.16-.18-2.36a3.67,3.67,0,0,0-1,.07c-.55,0-1.1,0-1.65,0A69.94,69.94,0,0,1,44.2,22.72a29.26,29.26,0,0,1-4.82-1.19C38,21,36.61,20.49,35.22,20c-2.68-1-5.33-2.11-8-3.06A2.24,2.24,0,0,0,26.28,16.7Z"/><path class="d" d="M35,48c-4.62.08-9.39-5.17-10-9.5-.32-2.18.84-4.26,3.19-4.4s4.35,1.46,6.55,2.26a25.39,25.39,0,0,0,8.35,1.23c1.78,0,4.15.08,5.52,1.42s1,4.16-.2,5.52a9.09,9.09,0,0,1-4.17,2.33A30.78,30.78,0,0,1,35,48ZM28.46,34.29c-2.37,0-3.63,2-3.3,4.23a11.65,11.65,0,0,0,3.46,6.15,10.17,10.17,0,0,0,6.19,3.18,34.12,34.12,0,0,0,4.74-.22A17.12,17.12,0,0,0,47,45.49a4.58,4.58,0,0,0,2.29-4.71C49,38.65,46.77,38.1,45,37.89c-2.94-.33-5.81-.07-8.72-.85a18.08,18.08,0,0,1-3.91-1.54A8,8,0,0,0,28.46,34.29Z"/><path class="f" d="M36.12,48.57a8.73,8.73,0,0,1-6-1.94A14.17,14.17,0,0,1,26,40.9c-.8-2-1.35-4.79.33-6.53,1.52-1.57,4.11-.89,5.69.23a17.33,17.33,0,0,0,6.93,2.89c2.34.43,4.82.15,7.09,1s2.81,2.57,2.38,4.79a5.12,5.12,0,0,1-3,3.66C42.54,48.37,39.28,48.57,36.12,48.57Zm-7.52-15c-2.35,0-3.39,2.25-3.23,4.32a12.51,12.51,0,0,0,2.94,6.72,9.73,9.73,0,0,0,5.6,3.75,23.52,23.52,0,0,0,5.17,0,14.51,14.51,0,0,0,7.27-2.18,5.14,5.14,0,0,0,2.09-4.78c-.18-2.09-2-2.88-3.85-3.22-1.44-.27-2.9-.23-4.34-.4a18.68,18.68,0,0,1-4.17-.95A16.64,16.64,0,0,1,32.31,35,6.61,6.61,0,0,0,28.6,33.57Z"/><path class="b" d="M42,47.36a11.65,11.65,0,0,0,4.27-1.65,5.27,5.27,0,0,0,2.24-5c-.19-2-2-2.85-3.78-3.2s-3.42-.25-5.13-.51a18.84,18.84,0,0,1-4.28-1.16c-2.35-1-5-3.78-7.81-2.81-2.25.78-2.43,3.5-2,5.47A13.82,13.82,0,0,0,29.09,45a8.65,8.65,0,0,0,6.07,2.91c1.24,0,2.48,0,3.72-.06A8.6,8.6,0,0,0,42,47.36Z"/><path class="b" d="M36.38,24.76a6.64,6.64,0,0,0-3.83-3.49c-2.95-1-5.64.7-7,3.34-1.18,2.36-1.28,5.86,1.19,7.45a6.69,6.69,0,0,0,6.17.16c1.32-.69,2.17-2.25,2.87-3.5A7.07,7.07,0,0,0,36.64,27,5.21,5.21,0,0,0,36.38,24.76Z"/><path class="c" d="M29.81,33a4.8,4.8,0,0,1-5.11-4.41c-.29-2.93,1.52-6.35,4.35-7.38a6,6,0,0,1,6.46,2.08,4.16,4.16,0,0,1,.94,4.51,15.89,15.89,0,0,1-2.32,3.63A5.59,5.59,0,0,1,29.81,33Zm.86-11.89c-5.88,0-8.46,10.72-1.81,11.63a7.41,7.41,0,0,0,3.87-.47,6.52,6.52,0,0,0,2.48-2.67,6.64,6.64,0,0,0,1.38-3.12,4.36,4.36,0,0,0-.51-2A6.34,6.34,0,0,0,30.67,21.06Z"/><path class="c" d="M29.13,32.94a4.8,4.8,0,0,1-5.1-4.4c-.29-2.93,1.52-6.34,4.35-7.37a6,6,0,0,1,6.44,2.08,4.14,4.14,0,0,1,.94,4.49,15.68,15.68,0,0,1-2.32,3.63A5.62,5.62,0,0,1,29.13,32.94ZM30,21.05c-5.9,0-8.48,10.74-1.82,11.65a7.25,7.25,0,0,0,3.88-.47,6.48,6.48,0,0,0,2.49-2.67,6.63,6.63,0,0,0,1.38-3.13,4.37,4.37,0,0,0-.51-2A6.36,6.36,0,0,0,30,21.05Z"/><path class="c" d="M30.44,32.83a4.85,4.85,0,0,1-5.13-4.44c-.29-3,1.58-6.47,4.5-7.45a6,6,0,0,1,6.4,2.21,4.14,4.14,0,0,1,.89,4.46,16.66,16.66,0,0,1-2.32,3.64A5.66,5.66,0,0,1,30.44,32.83Zm.87-11.9c-5.73,0-8.47,10.44-2,11.56a7.71,7.71,0,0,0,3.66-.28,5.3,5.3,0,0,0,2.61-2.36c1.13-1.7,2.23-3.49,1.2-5.51A6.32,6.32,0,0,0,31.31,20.93Z"/><path class="g" d="M31.59,33.47a4.71,4.71,0,0,1-5-4.06,7.32,7.32,0,0,1,4.21-7.58,5.87,5.87,0,0,1,6.38,2,4.15,4.15,0,0,1,1,4.5,15.86,15.86,0,0,1-2.29,3.59A5.55,5.55,0,0,1,31.59,33.47Zm.86-11.9c-5.79,0-8.59,10.54-2.11,11.73a7.53,7.53,0,0,0,4-.36A6,6,0,0,0,37,30.29C38,28.62,39,26.93,38,25A6.42,6.42,0,0,0,32.45,21.57Z"/><path class="c" d="M29.42,32.07A4.77,4.77,0,0,1,24.36,28a7.39,7.39,0,0,1,4.18-7.61,5.93,5.93,0,0,1,6.52,2c1.06,1.25,1.79,3,1,4.56a16,16,0,0,1-2.31,3.63A5.6,5.6,0,0,1,29.42,32.07Zm.86-11.9c-5.89,0-8.47,10.74-1.81,11.66a7.35,7.35,0,0,0,3.88-.48,6.46,6.46,0,0,0,2.48-2.67,6.75,6.75,0,0,0,1.39-3.13,4.37,4.37,0,0,0-.52-2A6.33,6.33,0,0,0,30.28,20.17Z"/><path class="c" d="M28.69,32.5a4.77,4.77,0,0,1-5.06-4.11,7.39,7.39,0,0,1,4.18-7.61,5.91,5.91,0,0,1,6.52,2c1.06,1.25,1.79,3,1,4.56A16,16,0,0,1,33,30.93,5.59,5.59,0,0,1,28.69,32.5Zm.86-11.89c-6,0-8.46,10.85-1.71,11.67a7.39,7.39,0,0,0,3.67-.45A6,6,0,0,0,34,29.23c1-1.65,2-3.32,1-5.23A6.35,6.35,0,0,0,29.55,20.61Z"/><path class="h" d="M30.39,28.62a1.07,1.07,0,0,0-2,.67C28.6,30.71,30.64,29.87,30.39,28.62Z"/><path class="h" d="M29.25,30.15c-1.93,0-.58-3.3.92-2C31,28.86,30.24,30.15,29.25,30.15Zm.15-2.07c-1,0-1.32,1.83-.15,1.83S30.75,28.15,29.4,28.08Z"/><path class="b" d="M51.36,26.43a6.84,6.84,0,0,1,4.3,1.23c2.33,1.76,2.34,5.23.72,7.47-.93,1.28-3,3.13-4.7,3.16-2,0-4.28-1.93-4.87-3.74C45.82,31.5,47.82,26.73,51.36,26.43Z"/><path class="i" d="M51.7,38.39a6.34,6.34,0,0,1-4.31-2.48c-1.7-2.34-.92-5.94,1-7.95,3-3.14,8.71-1.33,9.22,3a6.15,6.15,0,0,1-1.92,5.13C54.76,37,53.09,38.39,51.7,38.39Zm-.13-11.86c-3.46,0-5.41,4.65-4.79,7.54a5.11,5.11,0,0,0,2.56,3.29,7.58,7.58,0,0,0,1.58.67c.25.08.66.08.78.26.11-.22,1-.41,1.32-.55A9.07,9.07,0,0,0,55.51,36a5.92,5.92,0,0,0,1.67-6C56.42,27.61,53.93,26.53,51.57,26.53Z"/><path class="c" d="M51.22,37.91a6.38,6.38,0,0,1-4.32-2.49c-1.7-2.34-.91-5.94,1-7.94a5.47,5.47,0,0,1,9.23,3,6.2,6.2,0,0,1-1.93,5.13C54.27,36.53,52.6,37.91,51.22,37.91ZM51.09,26c-3.46,0-5.41,4.65-4.79,7.54a5.05,5.05,0,0,0,2.56,3.29,7,7,0,0,0,1.57.68c.26.07.67.08.79.26.1-.22,1-.42,1.32-.56A9.36,9.36,0,0,0,55,35.5a5.91,5.91,0,0,0,1.67-6C55.94,27.12,53.44,26,51.09,26Z"/><path class="c" d="M52.58,38a6.32,6.32,0,0,1-4.08-2.21c-1.79-2.16-1.25-5.58.37-7.68a5,5,0,0,1,5.49-1.83,5.09,5.09,0,0,1,4.08,4.67,6.22,6.22,0,0,1-2,4.9C55.51,36.64,53.9,38,52.58,38Zm-.13-11.86c-2.46,0-4.28,2.62-4.76,4.76a5.38,5.38,0,0,0,2.82,6.33,5.18,5.18,0,0,0,2,.67,5.28,5.28,0,0,0,2.66-1.17c2.62-1.79,4.36-5.36,2.38-8.3A6.08,6.08,0,0,0,52.45,26.09Z"/><path class="c" d="M52,38.72a6.34,6.34,0,0,1-4.3-2.48c-1.7-2.34-.91-5.93,1-7.93a5.46,5.46,0,0,1,9.21,3A6.19,6.19,0,0,1,56,36.44C55.05,37.33,53.37,38.72,52,38.72Zm-.13-11.86c-3.46,0-5.42,4.65-4.8,7.55a5.12,5.12,0,0,0,2.57,3.3,7.58,7.58,0,0,0,1.58.67c.25.08.65.09.78.25.13-.22,1-.39,1.33-.54a9.22,9.22,0,0,0,2.49-1.76,5.92,5.92,0,0,0,1.67-6C56.72,27.94,54.22,26.86,51.86,26.86Z"/><path class="c" d="M50.68,38.39a6.4,6.4,0,0,1-4.08-2.22C44.81,34,45.35,30.6,47,28.5a5,5,0,0,1,5.49-1.83,5.07,5.07,0,0,1,4.08,4.67,6.2,6.2,0,0,1-2,4.89C53.62,37.08,52,38.39,50.68,38.39Zm-.13-11.86c-2.46,0-4.28,2.61-4.76,4.76a5.38,5.38,0,0,0,2.82,6.33,5.16,5.16,0,0,0,2,.66,5.12,5.12,0,0,0,2.65-1.16c2.62-1.8,4.37-5.37,2.38-8.3A6.05,6.05,0,0,0,50.55,26.53Z"/><path class="j" d="M39.83,30.92a6.27,6.27,0,0,1,1.93.19c.29.08,1.46.4,1.53.72s-.25.44-.36.57c-.81.93-1.7,1.79-2.56,2.68C40.2,33.7,40.1,32.29,39.83,30.92Z"/><path class="c" d="M40.33,35.21c-.18-1.44-.31-2.91-.57-4.34a5.8,5.8,0,0,1,2.73.43c.93.41,1,.54.39,1.23C42.06,33.45,41.18,34.32,40.33,35.21ZM39.9,31c.27,1.3.35,2.66.52,4,.82-.86,1.7-1.7,2.47-2.6.1-.11.33-.29.33-.44s-.79-.52-1-.6A5.55,5.55,0,0,0,39.9,31Z"/><path class="f" d="M40.48,34.63c-.19-1.45-.31-2.91-.58-4.34a5.69,5.69,0,0,1,2.74.42c.92.41,1,.55.39,1.24C42.21,32.87,41.33,33.74,40.48,34.63ZM40,30.39c.27,1.3.36,2.66.52,4,.83-.86,1.7-1.7,2.48-2.6.09-.11.33-.29.32-.44s-.79-.52-1-.61A5.93,5.93,0,0,0,40,30.39Z"/><path class="f" d="M40.91,35.21c-.18-1.44-.31-2.91-.57-4.34a5.8,5.8,0,0,1,2.73.43c.93.41,1,.54.4,1.23C42.65,33.45,41.77,34.32,40.91,35.21ZM40.48,31c.27,1.3.35,2.65.52,4,.83-.86,1.7-1.7,2.48-2.6.09-.11.32-.29.32-.44s-.79-.52-1-.6A5.59,5.59,0,0,0,40.48,31Z"/><path class="f" d="M40.77,35.21c-.18-1.44-.31-2.91-.58-4.34a5.82,5.82,0,0,1,2.74.43c.92.41,1,.54.39,1.23C42.5,33.45,41.62,34.32,40.77,35.21ZM40.33,31c.27,1.3.36,2.66.52,4,.83-.86,1.7-1.7,2.48-2.6.09-.11.33-.29.33-.44s-.8-.52-1-.6A5.57,5.57,0,0,0,40.33,31Z"/><path class="h" d="M51.6,30.86a1.07,1.07,0,0,0-2,.67C49.81,33,51.85,32.11,51.6,30.86Z"/><path class="h" d="M50.46,32.39c-1.93,0-.58-3.3.92-2C52.21,31.1,51.45,32.39,50.46,32.39Zm.15-2.07c-1.52,0-.83,2.72.48,1.62C51.75,31.39,51.6,30.33,50.61,30.32Z"/><path class="b" d="M24.77,35.32A2.11,2.11,0,0,1,26.49,33c.26.53-.39.49-.72.75a1.65,1.65,0,0,0-.56.83C25.1,34.92,25.35,35.43,24.77,35.32Z"/><path class="b" d="M24,34.74a2.15,2.15,0,0,1,1.87-2.36c.28.55-.46.51-.8.75a1.61,1.61,0,0,0-.63.86C24.37,34.36,24.6,34.84,24,34.74Z"/><path class="d" d="M37.17,42c-.69,0-1.12-.77-1.56-1.19A2,2,0,0,0,34,40.19a4,4,0,0,0-1.67.59c-.23.13-.43.42-.6.17,1.29-1,2.9-1.37,4.14-.15.71.69,1,1.26,2,.74a2.54,2.54,0,0,1,2.25-.08c0,.2-1.23-.11-1.58,0S37.64,42,37.17,42Z"/><path class="d" d="M36.12,48.6a8.71,8.71,0,0,1-5.89-1.86,14.09,14.09,0,0,1-4.13-5.5c-.87-2-1.52-4.81,0-6.7,1.41-1.7,4-1.2,5.65-.15a19.52,19.52,0,0,0,6.84,3c2.38.48,4.88.2,7.2,1s3,2.31,2.67,4.59a5.14,5.14,0,0,1-2.92,3.93C42.68,48.4,39.32,48.6,36.12,48.6Zm-7.52-15c-2.34,0-3.36,2.24-3.2,4.29a12.55,12.55,0,0,0,2.93,6.7c1.44,1.78,3.51,3.52,5.87,3.79a28,28,0,0,0,4.76,0,14.89,14.89,0,0,0,7.2-2.05,5.09,5.09,0,0,0,2.25-4.88c-.17-2.08-2-2.86-3.83-3.2-1.44-.26-2.9-.22-4.34-.39a18.68,18.68,0,0,1-4.17-.95,16.49,16.49,0,0,1-3.64-1.81A6.9,6.9,0,0,0,28.6,33.6Z"/><path class="b" d="M36.65,48.1a9.17,9.17,0,0,1-5.81-1.65,14,14,0,0,1-4.42-5.56c-.93-2-1.66-4.9-.05-6.81,1.39-1.66,3.93-1.2,5.61-.23a35.34,35.34,0,0,0,3.09,1.83,18.59,18.59,0,0,0,3.72,1.21c2.53.55,5.23.24,7.71,1a3.69,3.69,0,0,1,2.69,4.56,5.07,5.07,0,0,1-2.93,3.86C43.31,47.9,39.91,48.1,36.65,48.1Zm-7.79-15c-2.33,0-3.44,2.17-3.29,4.26a12.46,12.46,0,0,0,3.06,6.85c1.49,1.78,3.59,3.47,6,3.74a31.29,31.29,0,0,0,5,0,14.79,14.79,0,0,0,7.45-2.21,5.08,5.08,0,0,0,2-5c-.31-2-2.26-2.66-4-3-1.54-.27-3.11-.22-4.65-.42a19.44,19.44,0,0,1-4.12-1,17.19,17.19,0,0,1-3.6-1.77A7.13,7.13,0,0,0,28.86,33.09Z"/><path class="d" d="M37,47.69a9.68,9.68,0,0,1-6.12-1.57,13.41,13.41,0,0,1-4.31-5.27c-.91-2-1.67-4.66-.25-6.56s3.92-1.44,5.63-.42a23,23,0,0,0,6,2.85c2.46.63,5,.43,7.45,1,1.76.41,3.37,1.3,3.46,3.31a5,5,0,0,1-2.33,4.66C43.81,47.46,40.2,47.69,37,47.69ZM28.93,33.2c-2.32,0-3.36,2.17-3.17,4.23a12.2,12.2,0,0,0,3,6.54A9.63,9.63,0,0,0,34.2,47.4a25.26,25.26,0,0,0,5.7,0,13.76,13.76,0,0,0,7-2.19,4.8,4.8,0,0,0,1.69-5.06c-.56-1.78-2.71-2.27-4.33-2.5-2.79-.39-5.47-.38-8.16-1.38a16.42,16.42,0,0,1-3.59-1.83A6.42,6.42,0,0,0,28.93,33.2Z"/></svg>