<svg id="Scene" xmlns="http://www.w3.org/2000/svg" width="1500" height="800" viewBox="0 0 623.62 340.16"><defs><style>.cls-1,.cls-4{fill:#fff;}.cls-2{fill:#edafb5;}.cls-3,.cls-5{fill:none;}.cls-3,.cls-4{stroke:#fff;stroke-miterlimit:10;}.cls-3{stroke-width:0.49px;}.cls-4{stroke-width:0.68px;}</style></defs><path class="cls-1" d="M289.39,34.27V18.68a1.53,1.53,0,0,0-3.05,0V34.31a6.82,6.82,0,0,0-5.26,6.62h13.7A6.83,6.83,0,0,0,289.39,34.27Z"/><path class="cls-1" d="M301.23,196.66h-25l.07-.54c0-.35,4.32-34.67,3.91-45.64l0-.51h15.91l0,.45c0,.4,3.75,40.46,5,45.64Zm-23.93-1H300c-1.28-6.75-4.41-40.26-4.83-44.74h-14C281.42,161.68,277.84,191.29,277.3,195.69Z"/><path class="cls-1" d="M341.8,243.21H317.67l-.08-.39a52.5,52.5,0,0,0-5.9-14.93c-5.87-9.83-13.86-14.81-23.75-14.81a27.06,27.06,0,0,0-12.44,3.24c-5.95,3.18-13.63,10.21-16.38,25.66l-.07.4H234.53l.41-.72c.38-.69,38.68-70.23,45.65-183.49V40.81h14.67l0,17.35c0,.31,2.15,31.39,8.88,69.47,6.2,35.13,17.68,83.56,37.18,114.84Zm-23.34-1h21.59c-10.77-17.56-25.75-51.55-36.85-114.45-6.29-35.62-8.57-65.13-8.86-69.11h-.06V41.78H281.56V58.2c-3.65,59.33-15.9,106.17-25.53,135-9.25,27.71-17.93,44.59-19.85,48.19h22.05c2.89-15.58,10.75-22.72,16.86-26A27.41,27.41,0,0,1,288,212.11c10.1,0,18.61,5.29,24.58,15.3A53.81,53.81,0,0,1,318.46,242.24Z"/><rect class="cls-1" x="348.25" y="199.78" width="28.27" height="1.6" rx="0.8" transform="translate(6.06 -10.58) rotate(1.69)"/><path class="cls-1" d="M385.94,197.82l.41,1.82c0,.12.07.26.18.31a.38.38,0,0,0,.21,0,2.53,2.53,0,0,0,.75-.24.47.47,0,0,0,.21-.16.53.53,0,0,0,0-.39l-.51-1.54a.63.63,0,0,0-.13-.24c-.23-.21-.58.08-.89.05"/><rect class="cls-1" x="404.91" y="179.58" width="13.96" height="1.35" rx="0.68" transform="translate(5.49 -12.05) rotate(1.69)"/><rect class="cls-1" x="403.99" y="178.82" width="7.19" height="2.71" rx="1.35" transform="translate(5.48 -11.92) rotate(1.69)"/><path class="cls-1" d="M418.14,193.16l-1.73.59c-3.19,18.71-24,23.37-24,23.37L388,199.26l-1.8.52.95,4.29-6.84,7.07.69.73,6.54-6.61,5.78,23,1.44,0,26-24.24,2.58,6.63,1.3-.68Zm-23.48,32.78L393,219s19.26-4.46,24.68-21.61l.15-.39,2.05,5.44S399,222.22,394.66,225.94Z"/><path class="cls-1" d="M432.83,207.19a19.87,19.87,0,1,0,19.28,20.45A19.87,19.87,0,0,0,432.83,207.19Zm-1.12,37.94a18.09,18.09,0,1,1,18.62-17.55A18.08,18.08,0,0,1,431.71,245.13Z"/><path class="cls-1" d="M394.05,233.56h-.15a5.42,5.42,0,1,1,.15,0Zm0-10.36a4.94,4.94,0,0,0-.15,9.87h.14a4.9,4.9,0,0,0,4.86-4.79h0a4.9,4.9,0,0,0-4.71-5.08Z"/><path class="cls-1" d="M399.27,229.35l-.23,0-32.39-3.75,22-2.81c4.29-1,7.38-.6,9.14,1.1a6.18,6.18,0,0,1,1.49,5.26Zm-28.59-3.8,28.19,3.27a5.7,5.7,0,0,0-1.39-4.6c-1.64-1.58-4.57-1.91-8.71-1Z"/><path class="cls-1" d="M410.14,228.11a24.51,24.51,0,0,1,22.78-22.53c1.55-.09,1.56-2.53,0-2.43a26.66,26.66,0,0,0-25.22,25c-.11,1.56,2.32,1.55,2.44,0Z"/><rect class="cls-1" x="395.18" y="227.28" width="0.88" height="8.5" rx="0.44" transform="translate(-61.47 197.04) rotate(-26.02)"/><rect class="cls-1" x="394.5" y="234.6" width="6.47" height="2.49" rx="1.25" transform="matrix(0.86, -0.5, 0.5, 0.86, -64.65, 231.87)"/><circle class="cls-1" cx="432.62" cy="227.05" r="1.99"/><polygon class="cls-1" points="440.69 244.18 424.32 210.57 424.67 210.39 441.05 244.01 440.69 244.18"/><polygon class="cls-1" points="415.8 235.91 415.65 235.6 449.47 218.82 449.71 219.31 415.8 235.91"/><polygon class="cls-1" points="426.74 245.07 426.41 244.95 438.59 209.6 438.89 209.71 426.74 245.07"/><polygon class="cls-1" points="450.47 233.46 414.68 221.41 414.82 220.99 450.62 233 450.47 233.46"/><polygon class="cls-1" points="420.35 241.16 420.01 240.86 445.04 213.08 445.33 213.34 420.35 241.16"/><polygon class="cls-1" points="446.65 239.68 418.42 214.61 418.71 214.27 446.94 239.35 446.65 239.68"/><polygon class="cls-1" points="413.6 228.45 413.58 228.02 450.9 225.84 450.93 226.31 413.6 228.45"/><polygon class="cls-1" points="433.37 245.9 430.89 208.22 431.34 208.19 433.84 245.87 433.37 245.9"/><path class="cls-1" d="M416.57,180.9a10,10,0,0,0-2-6.17,5.71,5.71,0,0,0-2.06-1.75c-.47-.23-1.47-.66-1.9-.15s.05,1.55.26,2a2.56,2.56,0,0,0,1.54,1.53c2,.55,3.21-1.78,3.46-3.35.43-2.68-.73-5.28-.62-7.95,0-.38-.57-.38-.58,0-.09,2.11.62,4.13.71,6.23a6.23,6.23,0,0,1-.51,3c-.52,1-1.83,2.15-2.92,1.11a3,3,0,0,1-.7-1.22,5,5,0,0,1-.14-.52c-.09-.44-.08-.52.42-.46a4.25,4.25,0,0,1,2.36,1.56A9.28,9.28,0,0,1,416,180.9a.29.29,0,0,0,.58,0Z"/><path class="cls-1" d="M414.89,164.46a15.11,15.11,0,0,1-5.56-5.8,8.11,8.11,0,0,1,.87-8.65,6.07,6.07,0,0,1,7.58-1.77c2.75,1.54,3.07,5.13,2.22,7.85-1.06,3.39-3.56,6.07-5.19,9.18-.18.33.33.62.5.29,1.7-3.24,4.34-6,5.34-9.61.78-2.75.37-6.15-2.12-7.92a6.42,6.42,0,0,0-7.83.63,8.54,8.54,0,0,0-2.56,8.46c.87,3.41,3.61,6,6.46,7.85.32.2.61-.3.29-.51Z"/><path class="cls-1" d="M416.42,179.47c.21-2.24,2-3.85,3.57-5.28s3.17-2.77,4.57-4.34c2.38-2.66,4.13-6.3,3-9.9-.11-.36-.67-.21-.56.15,1.35,4.3-1.56,8.23-4.52,11-2.43,2.29-6.31,4.69-6.64,8.33,0,.38.55.37.58,0Z"/><path class="cls-2" d="M427.45,159.6a30.42,30.42,0,0,0,3.85-8,10.2,10.2,0,0,0-1.22-8.53,7.52,7.52,0,0,0-13.38,2.73c-.89,3.71,1.15,7.52,3.7,10.36a10.77,10.77,0,0,0,2.38,2.09,13.3,13.3,0,0,0,4.3,1.43"/><path class="cls-2" d="M427,159.14c.16.67-1,1.34-.53,1.87a.81.81,0,0,0,.6.24,1.76,1.76,0,0,0,1.11-.19.73.73,0,0,0,.29-1c-.28-.41-1-.32-1.24-.77"/><path class="cls-1" d="M414.69,164.49c.14.58-.84,1.16-.46,1.63a.69.69,0,0,0,.52.2,1.6,1.6,0,0,0,1-.15.65.65,0,0,0,.25-.86c-.25-.36-.89-.29-1.08-.68"/><path class="cls-1" d="M265.66,231.81c2.21-5.65,6.91-9.79,11.72-13.26.3-.21,0-.72-.3-.5-4.94,3.56-9.71,7.8-12,13.61-.14.35.43.5.56.15Z"/><path class="cls-1" d="M391.09,150.3A22.09,22.09,0,0,1,383,140.21c-1.5-3.57-2.9-7.55-6.52-9.49-.33-.17-.63.33-.3.51,4,2.15,5.14,6.85,6.94,10.68a21.77,21.77,0,0,0,7.66,8.89c.31.21.6-.3.29-.5Z"/><path class="cls-2" d="M376,130.62c.51.47,0,1.64.61,1.85a.86.86,0,0,0,.63-.14,1.85,1.85,0,0,0,.82-.77.75.75,0,0,0-.31-1c-.47-.18-1,.3-1.46,0"/><path class="cls-2" d="M376,131.49a14.05,14.05,0,0,1-11.29-2c-3.17-2.36-4.9-6.75-3.55-10.46a5.41,5.41,0,0,1,1.69-2.48,5.71,5.71,0,0,1,2.21-1,10,10,0,0,1,11.14,5.73c1.27,3.1.84,6.62.23,9.91"/><path class="cls-1" d="M450.83,239.42a192.59,192.59,0,0,0,53.09,5.75c5.09-.16,10.18-.53,15.24-1.1.37,0,.38-.62,0-.58A191.93,191.93,0,0,1,465.7,242q-7.41-1.28-14.71-3.12c-.37-.09-.52.48-.16.57Z"/><path class="cls-1" d="M358.21,119.41a8.82,8.82,0,0,0,1.36,7.67c.22.3.73,0,.5-.29a8.29,8.29,0,0,1-1.3-7.23c.11-.36-.46-.51-.56-.15Z"/><path class="cls-1" d="M429.68,168.83a6.59,6.59,0,0,0,1.58-3.23.3.3,0,0,0-.2-.36.3.3,0,0,0-.36.21,6.07,6.07,0,0,1-1.43,3c-.25.28.16.69.41.41Z"/><path class="cls-1" d="M424.24,181.22a32,32,0,0,1,7.9-9.35,28.69,28.69,0,0,1,2.54-1.83c.41-.27.84-.54,1.27-.79.23-.13.47-.37.73-.23s.13.4,0,.65a28.54,28.54,0,0,1-1.75,3c-.58.93-1.19,1.86-1.82,2.77a67.34,67.34,0,0,1-4.87,6.17c-.25.28.16.69.41.41a69,69,0,0,0,4.83-6.09c.75-1.07,1.46-2.16,2.15-3.27.33-.54.65-1.08,1-1.63a6.4,6.4,0,0,0,.77-1.52c.13-.58-.08-1.34-.81-1.19a4.44,4.44,0,0,0-1.29.68c-.55.33-1.09.67-1.62,1a32.08,32.08,0,0,0-9.93,10.92.29.29,0,0,0,.5.29Z"/><path class="cls-1" d="M177.76,175.54c-1.74,2.26-.79,5.15.27,7.47a22.76,22.76,0,0,1,1.78,4.85,16.87,16.87,0,0,1,.23,5.35c0,.25.37.25.39,0a17.1,17.1,0,0,0-1.28-8.68c-1.15-2.68-3.18-6-1.05-8.79.15-.2-.19-.39-.34-.2Z"/><path class="cls-1" d="M179.17,184.36c-.33-2.57,1.74-4.53,4-5.29l-.24-.24a37.48,37.48,0,0,1-1.39,3.56,3,3,0,0,1-2.54,1.92.2.2,0,0,0,0,.39,3.26,3.26,0,0,0,2.74-1.86,12,12,0,0,0,.76-1.76c.27-.71.53-1.43.8-2.15a.2.2,0,0,0-.24-.24,6.83,6.83,0,0,0-3.19,2.1,4.79,4.79,0,0,0-1.09,3.57c0,.25.42.25.39,0Z"/><path class="cls-1" d="M177.51,182.57a.42.42,0,0,0,.45.32.51.51,0,0,0,.3-.12.58.58,0,0,0,.17-.29.77.77,0,0,0,0-.34.17.17,0,0,0,0-.13.19.19,0,0,0-.28,0,.15.15,0,0,0-.05.13,1.48,1.48,0,0,1,0,.21v0a.57.57,0,0,1,0,.14l0,0a.41.41,0,0,1-.05.09l0,0s0,0-.05.05l0,0a.09.09,0,0,1-.06,0l.05,0-.07,0h0l-.07,0,0,0-.06,0,0,0,0,0,0,0,0,0,0,.05,0-.05s0-.09-.09-.12a.25.25,0,0,0-.15,0,.24.24,0,0,0-.11.09.2.2,0,0,0,0,.15Z"/><path class="cls-1" d="M177,179.91a4.53,4.53,0,0,0-4.73,2.81c-.07.17.15.29.28.22a11.39,11.39,0,0,1,1.48-.64c.41-.14.82-.26,1.22-.42a3.8,3.8,0,0,0,1-.57c.33-.28.52-.7.88-1,.2-.14,0-.48-.2-.33a8.85,8.85,0,0,0-.83.9,3.21,3.21,0,0,1-1.1.64c-.4.15-.81.27-1.22.41a13.09,13.09,0,0,0-1.44.63l.28.22A4.16,4.16,0,0,1,177,180.3c.25,0,.25-.36,0-.39Z"/><path class="cls-1" d="M178.1,169a1.2,1.2,0,0,0-1,.25.61.61,0,0,0,0,.86,2,2,0,0,0,2.17.36,1.25,1.25,0,0,0,.84-1.66c-.41-.83-1.41-.87-2.21-.79a9,9,0,0,0-2.92.75c-.72.34-.19,1.31.21,1.71a5.18,5.18,0,0,0,2.61,1.11,3.92,3.92,0,0,0,2.64-.44c.7-.37,1.56-1,1.44-1.88a1.76,1.76,0,0,0-2-1.33c-.25,0-.25.4,0,.39a1.46,1.46,0,0,1,1.55.78c.23.62-.26,1.12-.73,1.44a4.5,4.5,0,0,1-1.64.7,4.61,4.61,0,0,1-2.11-.28,3.37,3.37,0,0,1-1.64-.93c-.14-.18-.43-.64-.27-.86s.31-.15.43-.2.36-.13.54-.18a9.81,9.81,0,0,1,2-.4c.59-.06,1.35-.06,1.7.52.44.75-.55,1.28-1.17,1.32a1.71,1.71,0,0,1-1-.25c-.06-.05-.18-.12-.2-.2a.32.32,0,0,1,.15-.35,1.12,1.12,0,0,1,.63-.05c.25,0,.25-.37,0-.39Z"/><path class="cls-1" d="M174.35,169.57a.78.78,0,0,0-1.3.24c-.33.74.26,1.48.64,2.07a9.61,9.61,0,0,0,3.33,3.49,1.88,1.88,0,0,0,2.14-.06,16.86,16.86,0,0,0,2.09-1.61,5.66,5.66,0,0,0,1.49-1.91c.19-.47.08-1.1-.55-1a3.39,3.39,0,0,0-1.15.55,9.24,9.24,0,0,1-1.48.81,6.07,6.07,0,0,1-1.62.38c-.45,0-1.48.18-1.68-.39l-.09.22c.55-.23,1.13.41,1.45.76a6,6,0,0,1,.81,1.13c.12.22.45,0,.33-.2-.48-.85-1.61-2.54-2.78-2a.18.18,0,0,0-.09.22c.36,1,2.11.72,2.91.54a6.49,6.49,0,0,0,1.93-.79c.28-.17.55-.36.83-.52a1.62,1.62,0,0,1,.46-.22c.1,0,.38,0,.43.14s-.09.32-.14.41a9,9,0,0,1-3,2.94,3.62,3.62,0,0,1-.86.53,1.71,1.71,0,0,1-1.38-.28,6.37,6.37,0,0,1-1.51-1.22,13,13,0,0,1-1.39-1.83,10,10,0,0,1-.6-.94,1.49,1.49,0,0,1-.25-.73c0-.36.42-.77.73-.4.16.19.44-.09.28-.28Z"/><path class="cls-1" d="M232.94,193.21l-6.44,19.16a6,6,0,0,1-1.2,2.27,6.34,6.34,0,0,1,1.54,1.86,5.62,5.62,0,0,1,.82,2.59l1.48,16.68s-.61,1.29-1.15-.11l-1.54-15.83s-.13-2.47-1-2.91l-1.15-1.4-12,1.72a3.27,3.27,0,0,0-3,2.65l-1.86,16.78-.58,6s-1,.5-1.21-.12l2.17-22.48s.91-3.1,2.94-3.88l11.73-1.63s2.24-.33,2.77-2L229,201l2.8-8.12Z"/><path class="cls-1" d="M207.3,208.25s2.24-.33,2.77-2l3.75-11.58,1.83-5.28,1.18.28-5.52,16.4a6,6,0,0,1-1.2,2.27,6.2,6.2,0,0,1,1.54,1.86,5.56,5.56,0,0,1,.82,2.59L214,229.47s-.61,1.28-1.15-.12l-1.54-15.82s-.12-2.47-1-2.92l-1.15-1.39-12,1.72a3.21,3.21,0,0,0-.61.1v-1.3Z"/><path class="cls-1" d="M194.11,213.59l-1.86,16.78-.58,6s-1,.5-1.21-.12l2.17-22.49s.91-3.09,3-3.88l.94-.13V211A3.2,3.2,0,0,0,194.11,213.59Z"/><path class="cls-1" d="M230.71,197.28l-17.21-4.41a.85.85,0,0,0-1.06.26,6.52,6.52,0,0,0-.53,2.34s-.07.57.67.68l11.85,3.41,5.24,1.54Z"/><path class="cls-1" d="M232,192.91,214.69,189a.87.87,0,0,0-1.06.3,6.57,6.57,0,0,0-.46,2.35s0,.57.69.66l11.94,3.06,5.29,1.4Z"/><path class="cls-1" d="M196.52,210.54v5.33l11.4,5.5s1-4.29,3.66-4.6l12.3-1.81a3.53,3.53,0,0,0,1.92-2.29L210.32,207a2.62,2.62,0,0,1-.89,1.15Zm25,3.68-12.39-5A.19.19,0,0,1,209,209a.2.2,0,0,1,.25-.11l12.39,5a.19.19,0,0,1-.14.35ZM204.08,210a.18.18,0,0,1-.09-.24.18.18,0,0,1,.25-.09l12.1,5.65a.17.17,0,0,1,.08.24.18.18,0,0,1-.24.09Zm-5.09.86a.19.19,0,0,1-.09-.25.19.19,0,0,1,.25-.08l12.1,5.64a.2.2,0,0,1,.09.25.2.2,0,0,1-.25.09Z"/><path class="cls-1" d="M193.56,214.1c-.12-1.16,1.84-3.36,1.84-3.36l1.12-.2v5.33l-3-1.45Z"/><path class="cls-1" d="M231.77,192.86l1.94.42a.78.78,0,0,1,.36.91l-.71,2.64s-.11.41-1,.19l-1.69-.39Z"/><path class="cls-1" d="M230.49,197.27l1.94.43s.47.19.36.9l-.71,2.65s-.11.41-1,.19l-1.68-.4Z"/><path class="cls-1" d="M104.46,241a117.77,117.77,0,0,0,30.34-1.55c5.08-.93,10.11-2.17,15.2-3a138.29,138.29,0,0,1,16-1.81c.37,0,.37-.61,0-.59a143,143,0,0,0-15.17,1.67c-5.1.84-10.12,2.06-15.2,3a117.89,117.89,0,0,1-31.15,1.71c-.37,0-.37.55,0,.58Z"/><rect class="cls-1" x="263.92" y="149.2" width="47.9" height="3.74"/><rect class="cls-1" x="250.01" y="192.11" width="75.83" height="8.14"/><rect class="cls-1" x="279.89" y="46.81" width="16.07" height="2.22"/><rect class="cls-1" x="278.23" y="52.19" width="19.39" height="6.48"/><path class="cls-1" d="M378.68,216a.31.31,0,0,0-.21.25.33.33,0,0,0,.17.33.3.3,0,0,0,.15.05c.24,0,.48-.13.72-.5A2.39,2.39,0,0,0,378.68,216Z"/><path class="cls-1" d="M368.3,212.14c-.19,0-.61.3-1.25,1a2.8,2.8,0,0,0-.78,1.16c0,.16,0,.25.16.27s.4-.11.73-.37a5.57,5.57,0,0,0,.65-.62,2.56,2.56,0,0,0,.68-1.14C368.51,212.25,368.45,212.16,368.3,212.14Z"/><path class="cls-1" d="M368.11,202.52c-17.23.17-21.5,13.62-21.5,13.62l42.29,4.67C385.87,203.84,368.11,202.52,368.11,202.52ZM378,210a1,1,0,0,1,.89-.32,1.1,1.1,0,0,1,.59.26.58.58,0,0,1,.13.54,1.37,1.37,0,0,1-.48.91,1.17,1.17,0,0,1-.93.3.86.86,0,0,1-.52-.23.64.64,0,0,1-.15-.57A1.56,1.56,0,0,1,378,210Zm-15.41,3.14a3.59,3.59,0,0,1-1.26-.41,5,5,0,0,1-2.07,2.2,3.53,3.53,0,0,1-2.19.45,2.75,2.75,0,0,1-1.7-.8,1.79,1.79,0,0,1-.53-1.56,1.62,1.62,0,0,1,.66-1.2,1.29,1.29,0,0,1,.92-.23.87.87,0,0,1,.58.32.79.79,0,0,1,.17.59.71.71,0,0,1-.42.54l-.41.21a.73.73,0,0,0-.3.49c0,.34.17.54.63.59q1.15.28,3.42-2.87a1.67,1.67,0,0,1-.16-.78c0-.19.11-.28.26-.26s.25.15.3.4v.07a10.91,10.91,0,0,1,2.94-3,2.7,2.7,0,0,0-1.67-.77,3.18,3.18,0,0,0-2.38.61,3,3,0,0,0-1.22,2.09,2,2,0,0,0,.25,1.45l.56.53a.34.34,0,0,1,.05.23.31.31,0,0,1-.38.31.63.63,0,0,1-.3-.16,2.47,2.47,0,0,1-.76-2.27,3.6,3.6,0,0,1,1.47-2.5,4.25,4.25,0,0,1,3.23-.78,3.66,3.66,0,0,1,2,.82c.31-.15.65-.29,1-.44a.72.72,0,0,1,.33-.06c.15,0,.22.09.2.22s-.13.24-.34.31a4.19,4.19,0,0,0-.8.35,3.74,3.74,0,0,1,.81,1.46,3.54,3.54,0,0,1,.14,1.46,2.79,2.79,0,0,1-3,2.36Zm18.5,1.45s.06.25.16.64a1.55,1.55,0,0,1,.05.63,1.42,1.42,0,0,0,.46-.26.39.39,0,0,1,.33-.12.2.2,0,0,1,.2.25q0,.1-.24.3a1.42,1.42,0,0,1-.94.39,2.19,2.19,0,0,1-1.1,1.07,1.78,1.78,0,0,1-.93.14c-.7-.09-1.12-.33-1.27-.71a1.39,1.39,0,0,1-.11-.68.8.8,0,0,1,.53-.71,1.67,1.67,0,0,1,.73-.07,7.73,7.73,0,0,1,.77.18,4.6,4.6,0,0,0,.16-1,3.59,3.59,0,0,1,.21-.93,5.42,5.42,0,0,0-1.12.84l-.86.76-.05.08a5.36,5.36,0,0,1-1.41,1.08,2.93,2.93,0,0,1-1.63.63.63.63,0,0,1-.5-.33.65.65,0,0,1-.11-.43,2.37,2.37,0,0,1,.32-.88c.1-.18.42-.68,1-1.51-.25.25-.54.52-.85.8h0s-.08.15-.24.29a6.85,6.85,0,0,1-2.39,1.54,1.32,1.32,0,0,1-.61.07.81.81,0,0,1-.63-.38.85.85,0,0,1-.14-.64,4.8,4.8,0,0,1,1.38-1.86,1.55,1.55,0,0,0,.51-.73c0-.19-.12-.3-.44-.34a23.83,23.83,0,0,1-1.81,1.71.36.36,0,0,1-.11.1l-.33.28q-.27.22-.93.66a9,9,0,0,1-.89.54,1.39,1.39,0,0,1-.75.13A.77.77,0,0,1,367,216a.58.58,0,0,1-.17-.52,1.69,1.69,0,0,1,.1-.35,7.32,7.32,0,0,1-1.11.61,1.6,1.6,0,0,1-.85.13.9.9,0,0,1-.63-.34.82.82,0,0,1-.18-.68,2,2,0,0,1,.31-.8c-.16,0-.26,0-.3-.08s-.05-.16,0-.35c0,0,.08-.12.22-.22l.41-.29a7.88,7.88,0,0,0,1-.78,5.61,5.61,0,0,1,.7-.66,2.85,2.85,0,0,1,1.21-.48,1.89,1.89,0,0,1,.63,0,2,2,0,0,1,1,.33q.27-.41.27-.42a.76.76,0,0,1,.47-.39c.12,0,.29.13.5.43a1,1,0,0,1,.22.65,1.84,1.84,0,0,1-.34.66l-1.08,1.55a1.49,1.49,0,0,0-.31.66c0,.12,0,.2.05.24s.22,0,.52-.22.32-.22.45-.32,0,0,0,0c.36-.31.64-.56.84-.76a10.24,10.24,0,0,0,.91-1,.63.63,0,0,1-.18-.55,1.31,1.31,0,0,1,.24-.56.85.85,0,0,1,.87-.42.48.48,0,0,1,.32.15.41.41,0,0,1,.09.36,1.15,1.15,0,0,1-.2.49,1.1,1.1,0,0,0,.86.08,2.71,2.71,0,0,1,.71-.07.32.32,0,0,1,.32.29,1.09,1.09,0,0,1,0,.18.89.89,0,0,1-.16.4l-.27.41c-.31.48-.66,1-1,1.67-.12.23-.14.38-.06.44a.4.4,0,0,0,.35-.14l.58-.43s0,0,0-.07c.17-.15.52-.48,1.06-1l.84-.94c.32-.35.56-.53.71-.55l.36,0a.28.28,0,0,1,.19.16,1.67,1.67,0,0,1,.38.89,4.71,4.71,0,0,1-.61,1.22,4,4,0,0,0-.57,1.14c0,.08,0,.12.08.13s.28-.12.61-.38a3.19,3.19,0,0,1,.62-.43l1.67-1.47a4.87,4.87,0,0,1,1.19-.71,2.23,2.23,0,0,1,1-.21c.49.07.71.31.66.73a.55.55,0,0,1-.24.38.57.57,0,0,1-.42.12l-.11,0q-.31-.13-.45,0a.39.39,0,0,0-.16.26A3.06,3.06,0,0,0,381.1,214.6Z"/><path class="cls-1" d="M361.7,212l.21.05.22.06a1.42,1.42,0,0,0,1.29-.6,2.92,2.92,0,0,0,.69-1.6,2.41,2.41,0,0,0-.23-1.43A14.2,14.2,0,0,0,361.7,212Z"/><path class="cls-1" d="M416,191.29c.31,0,.67-.26.9,0a.55.55,0,0,1,.12.24l.51,1.54a.45.45,0,0,1,0,.39.42.42,0,0,1-.21.16,2.38,2.38,0,0,1-.74.24.3.3,0,0,1-.39-.32l-.41-1.82-.7-12,2.74.08,6.45.18,4.58.11a10.08,10.08,0,0,1,2.26.23,1.06,1.06,0,0,1,.59.31,1.19,1.19,0,0,1,.2.58,31.17,31.17,0,0,1-.13,9.83,6.83,6.83,0,0,1-.75,2.38,5.18,5.18,0,0,1-2.85,2.12,15.25,15.25,0,0,1-3.56.61l-6.53.6"/><path class="cls-1" d="M126.75,192.59l6.44,19.16a6,6,0,0,0,1.2,2.27,6.07,6.07,0,0,0-1.53,1.86,5.69,5.69,0,0,0-.83,2.59l-1.48,16.68s.62,1.28,1.15-.11l1.54-15.83s.13-2.47,1-2.92l1.15-1.39,12,1.72a3.27,3.27,0,0,1,3,2.65l1.86,16.78.58,6s1,.5,1.21-.12l-2.17-22.49s-.91-3.09-2.94-3.88l-11.73-1.62s-2.24-.33-2.77-2l-3.75-11.57-2.8-8.12Z"/><path class="cls-1" d="M148,209.58a6.2,6.2,0,0,1,1.54-1.86,6,6,0,0,1-1.2-2.28l-5.51-16.39,1.18-.29,1.82,5.29,3.75,11.58c.53,1.66,2.77,2,2.77,2l9.21,1.27v1.28l-11-1.58L149.43,210c-.87.45-1,2.92-1,2.92l-1.54,15.82c-.54,1.4-1.15.11-1.15.11l1.48-16.67A5.56,5.56,0,0,1,148,209.58Z"/><path class="cls-1" d="M164.12,209.25c2,.78,2.94,3.88,2.94,3.88l2.17,22.49c-.24.61-1.21.11-1.21.11l-.58-6L165.58,213a3.27,3.27,0,0,0-3-2.65l-1-.14V208.9Z"/><path class="cls-1" d="M129,196.66l17.21-4.41a.85.85,0,0,1,1.06.26,6.69,6.69,0,0,1,.54,2.34s.06.57-.67.67l-11.86,3.41L130,200.48Z"/><path class="cls-1" d="M127.67,192.29,145,188.37a.87.87,0,0,1,1.06.3,6.74,6.74,0,0,1,.47,2.35s0,.57-.69.65l-12,3.07-5.28,1.4Z"/><path class="cls-1" d="M133.89,212.05a3.53,3.53,0,0,0,1.92,2.29l12.3,1.81c2.65.31,3.66,4.6,3.66,4.6L161.6,216v-6.39l-11.33-2.09a2.6,2.6,0,0,1-.9-1.16Zm14.55,3.48,12.1-5.65a.2.2,0,0,1,.25.09.19.19,0,0,1-.09.25l-12.1,5.65a.19.19,0,1,1-.16-.34Zm-5.08-.86,12.1-5.65a.18.18,0,0,1,.24.09.19.19,0,0,1-.09.25L143.51,215a.18.18,0,0,1-.24-.09A.18.18,0,0,1,143.36,214.67Zm-5.4-1.18a.19.19,0,0,1,.1-.24l12.4-5a.19.19,0,0,1,.24.1.18.18,0,0,1-.11.24l-12.39,5A.19.19,0,0,1,138,213.49Z"/><path class="cls-1" d="M164.29,210.12s2,2.2,1.84,3.36l.05.32L161.6,216v-6.39Z"/><path class="cls-1" d="M127.92,192.24l-1.94.42a.78.78,0,0,0-.36.9l.71,2.65s.11.41,1,.19L129,196Z"/><path class="cls-1" d="M129.2,196.65l-1.94.42a.8.8,0,0,0-.36.91l.71,2.65s.12.41,1,.18l1.69-.39Z"/><path class="cls-1" d="M378.18,192.47a2,2,0,0,0-.77,1.94,3.41,3.41,0,0,0,1.89,2.14,11.27,11.27,0,0,0,3.05,1.15c4.32.92,8.78-.86,12.49-3.26a1.22,1.22,0,0,0,.58-.63.85.85,0,0,0-.63-1,2.64,2.64,0,0,0-1.25,0c-5.1.81-10.25.26-15.36-.38"/><rect class="cls-1" x="178.28" y="187.22" width="3.03" height="13.43"/><path class="cls-1" d="M278.48,106.49l-.88,9.39c0,.38.55.38.58,0l.89-9.39c0-.38-.55-.37-.59,0Z"/><path class="cls-1" d="M299.08,117.72q2.15,14.88,5.45,29.57c.08.37.65.21.56-.16q-3.3-14.67-5.45-29.57c-.05-.37-.61-.21-.56.16Z"/><path class="cls-1" d="M301.25,141.63l1.29,5.66c.08.37.65.21.56-.16l-1.29-5.66c-.08-.36-.65-.21-.56.16Z"/><path class="cls-1" d="M337.35,230.71a49,49,0,0,0,7,11.88c.24.29.65-.12.41-.41a48.4,48.4,0,0,1-6.9-11.62c-.14-.35-.7-.2-.56.15Z"/><path class="cls-1" d="M241.91,60.46a8.63,8.63,0,0,1-2-.25l-.21-.05-.11-.19c-1.89-3.47-1-8.36,2.06-11.38.12-.12.26-.23.39-.34l.46-.39.3.18A12,12,0,0,1,246,50.75h0c1.69,2.08,2.43,5.53.49,7.83A5.92,5.92,0,0,1,241.91,60.46Zm-1.58-1.17c1.71.37,4.08.23,5.43-1.36,1.53-1.82,1-4.76-.5-6.55h0a10.43,10.43,0,0,0-2.7-2.29l-.25.22A8.91,8.91,0,0,0,240.33,59.29Z"/><path class="cls-1" d="M214.25,106.12l-.92,0c-5.84-.26-11.14-3.29-13.49-7.74-2.87-5.42-1.36-13,3.59-17.92,3.84-3.85,9.58-6.35,16.62-7.25-1.86-3-3.94-6.52-3.81-10.44a13.77,13.77,0,0,1,1.49-5.49c4-8.19,13.07-12.8,21.56-10.95l.11,0c1,.49,2.08,1,3.06,1.53a14.26,14.26,0,0,1,10.42-2.76A15.19,15.19,0,0,1,264.19,52l.05.09a2.24,2.24,0,0,0,.86,1c.6.23,1.33-.39,2-1,3.41-3.2,8-5.32,13.75-6.29l.6-.1L281,66.06l-1.4,15.71-1.49,12-.24.12a18.43,18.43,0,0,1-7.06,1.93c-4,.26-8.32-.74-13.29-3.06h0a53.41,53.41,0,0,1-6.16-3.39,5.15,5.15,0,0,0-2.86-1.14,4.16,4.16,0,0,0-2,.86,35.64,35.64,0,0,0-3.66,3l-1,1a63.07,63.07,0,0,1-13.22,9C223.31,104.79,218.59,106.12,214.25,106.12ZM235.5,46.9a19.08,19.08,0,0,0-16.87,10.8,12.67,12.67,0,0,0-1.39,5.08c-.13,3.92,2.21,7.59,4.08,10.55l.43.68-.8.09c-7.18.77-13,3.21-16.81,7.05-4,4-6.44,11-3.41,16.75,2.19,4.13,7.15,7,12.64,7.2,4.42.19,9.26-1.09,14.81-3.92a61.48,61.48,0,0,0,13-8.88l1-.94A36.82,36.82,0,0,1,246,88.23a5.09,5.09,0,0,1,2.47-1,5.9,5.9,0,0,1,3.43,1.28A53.82,53.82,0,0,0,258,91.81h0c4.82,2.25,9,3.22,12.81,3a18,18,0,0,0,6.44-1.71l1.41-11.41L280,66l.34-19.1a24.68,24.68,0,0,0-12.63,5.93c-.62.58-1.77,1.65-3,1.18a2.93,2.93,0,0,1-1.35-1.39l-.05-.08a14.33,14.33,0,0,0-10.57-6.44,13.35,13.35,0,0,0-9.4,2.31A11.2,11.2,0,0,1,246,50.75c1.69,2.08,2.43,5.53.49,7.83-1.69,2-4.64,2.13-6.65,1.63l-.21-.05-.11-.19c-1.89-3.47-1-8.36,2.06-11.38l0,0c-.83-.46-1.71-.87-2.61-1.29A16.94,16.94,0,0,0,235.5,46.9Zm4.83,12.39c1.71.37,4.09.23,5.43-1.36,1.53-1.82,1-4.76-.5-6.55a10.43,10.43,0,0,0-2.7-2.29l-.25.22A8.91,8.91,0,0,0,240.33,59.29Z"/><path class="cls-1" d="M201.24,93.12a10.69,10.69,0,0,0,6.28,8.41c.34.14.64-.36.29-.51a10.08,10.08,0,0,1-6-7.9c-.05-.37-.63-.37-.59,0Z"/><polygon class="cls-1" points="366.74 225.59 361.54 213.75 361.99 213.56 366.86 224.66 373.21 216.84 373.59 217.14 366.74 225.59"/><polygon class="cls-1" points="375.66 242.15 366.11 222.54 366.52 222.34 376.09 241.94 375.66 242.15"/><polygon class="cls-1" points="350.73 233.79 350.51 233.35 384.32 216.53 384.55 217 350.73 233.79"/><polygon class="cls-1" points="361.76 243.05 361.38 242.92 367.32 224.65 367.66 224.76 361.76 243.05"/><polygon class="cls-1" points="385.44 231.43 349.65 219.38 349.69 218.98 385.48 231.03 385.44 231.43"/><polygon class="cls-1" points="355.12 239.04 354.87 238.83 368.24 223.73 368.55 224.01 355.12 239.04"/><polygon class="cls-1" points="381.62 237.65 358.06 216.72 358.4 216.33 381.99 237.24 381.62 237.65"/><polygon class="cls-1" points="348.56 226.23 348.54 225.77 366.65 224.69 366.8 225.24 348.56 226.23"/><polygon class="cls-1" points="368.21 243.87 366.8 216.26 367.34 216.23 368.58 243.85 368.21 243.87"/><circle class="cls-1" cx="367.43" cy="225.14" r="3.2"/><path class="cls-1" d="M366.21,245a19.86,19.86,0,0,1-19.27-20.44,19.59,19.59,0,0,1,2-8.13l1.89.22a18.08,18.08,0,1,0,34,9,18.29,18.29,0,0,0-.61-5.21l1.87.22A19.79,19.79,0,0,1,366.21,245Z"/><path class="cls-1" d="M192.08,242.07a2,2,0,0,1-.42,0,5.13,5.13,0,0,1-2.6-1.6,28.64,28.64,0,0,1-7.16-13.32,86.56,86.56,0,0,1-2.09-15,42.12,42.12,0,0,1-.1-8.2l.6.07a41,41,0,0,0,.1,8.09h0A86,86,0,0,0,182.48,227a28.13,28.13,0,0,0,7,13,4.69,4.69,0,0,0,2.28,1.44,1.66,1.66,0,0,0,2-1.07.57.57,0,0,0,0-.13,1.07,1.07,0,0,0-.56-.87.67.67,0,0,0-.78,0l-.4-.45a1.25,1.25,0,0,1,1.48-.08,1.66,1.66,0,0,1,.86,1.39,2.11,2.11,0,0,1,0,.25A2.19,2.19,0,0,1,192.08,242.07Z"/><path class="cls-1" d="M167.32,242.07a2.17,2.17,0,0,1-2.21-1.58,1.07,1.07,0,0,1,0-.25,1.66,1.66,0,0,1,.86-1.39,1.24,1.24,0,0,1,1.48.08l-.39.45a.68.68,0,0,0-.79,0,1.09,1.09,0,0,0-.56.87.59.59,0,0,0,0,.13,1.65,1.65,0,0,0,1.94,1.07,4.6,4.6,0,0,0,2.28-1.44,28,28,0,0,0,7-13A86,86,0,0,0,179,212a41.83,41.83,0,0,0,.1-8.09l.6-.07a42.1,42.1,0,0,1-.11,8.2h0a103.83,103.83,0,0,1-1.49,12.45c-.1.49-.2,1-.32,1.45s-.18.76-.28,1.13a28.72,28.72,0,0,1-7.15,13.32,5.21,5.21,0,0,1-2.6,1.6A2,2,0,0,1,167.32,242.07Z"/><path class="cls-1" d="M434.08,170.16a4.47,4.47,0,0,1,.33.7c0,.12.1.24.14.36a1.39,1.39,0,0,1,.1.33c0,.19-.25.08-.35,0a1,1,0,0,1-.39-.45c-.08-.21-.41-.09-.32.12a1.17,1.17,0,0,0,.4.53.83.83,0,0,0,.62.22.44.44,0,0,0,.38-.53,3.61,3.61,0,0,0-.25-.72,4.78,4.78,0,0,0-.38-.79.17.17,0,1,0-.28.2Z"/><path class="cls-1" d="M432.1,171.92a5.94,5.94,0,0,1,.44.92c.07.17.13.33.19.49a1.71,1.71,0,0,1,.13.44c0,.26-.33.11-.46,0a1.17,1.17,0,0,1-.52-.6c-.11-.27-.54-.11-.43.16a1.66,1.66,0,0,0,.53.72,1.26,1.26,0,0,0,.83.29.59.59,0,0,0,.5-.72,5.59,5.59,0,0,0-.32-1,7.71,7.71,0,0,0-.51-1,.24.24,0,0,0-.33-.06.24.24,0,0,0,0,.32Z"/><path class="cls-1" d="M429.81,173.88a6,6,0,0,1,.45.92l.18.49a1.39,1.39,0,0,1,.13.44c0,.25-.32.1-.45,0a1.17,1.17,0,0,1-.52-.6c-.11-.28-.55-.12-.44.16a1.65,1.65,0,0,0,.54.71,1.19,1.19,0,0,0,.82.3.6.6,0,0,0,.51-.72,5.34,5.34,0,0,0-.33-1,6.68,6.68,0,0,0-.51-1,.23.23,0,0,0-.32-.06.24.24,0,0,0-.06.32Z"/><path class="cls-1" d="M427.66,176.3a5.18,5.18,0,0,1,.44.92c.07.16.13.32.19.49a1.71,1.71,0,0,1,.13.44c0,.25-.33.1-.46,0a1.17,1.17,0,0,1-.52-.6.23.23,0,0,0-.43.16,1.63,1.63,0,0,0,.53.71,1.16,1.16,0,0,0,.83.29.58.58,0,0,0,.5-.71,4.43,4.43,0,0,0-.32-.95A7.83,7.83,0,0,0,428,176a.25.25,0,0,0-.33-.05.23.23,0,0,0,0,.32Z"/><path class="cls-3" d="M379.74,209.18l7-8.68"/><path class="cls-4" d="M151.3,201c0-1.59,12.66-2.88,28.27-2.88s28.27,1.29,28.27,2.88-12.56,2.88-28.08,2.89h-.38C163.85,203.9,151.3,202.61,151.3,201Z"/><rect class="cls-1" x="378.81" y="199.62" width="0.36" height="8.38" transform="matrix(0.59, -0.8, 0.8, 0.59, -10.07, 387.66)"/><rect class="cls-1" x="355.11" y="199.06" width="0.36" height="8.38" transform="translate(-48.93 267.65) rotate(-38.82)"/><rect id="cadre" class="cls-5" x="-0.5" y="0.33" width="623.62" height="340.16"/></svg>