<?xml version="1.0" encoding="utf-8"?>
<!-- Generator: Adobe Illustrator 25.2.3, SVG Export Plug-In . SVG Version: 6.00 Build 0)  -->
<svg version="1.1" id="Calque_1" xmlns="http://www.w3.org/2000/svg" xmlns:xlink="http://www.w3.org/1999/xlink" x="0px" y="0px"
	 viewBox="0 0 553 574" style="enable-background:new 0 0 553 574;" xml:space="preserve">
<style type="text/css">
	.st0{fill:#819361;}
	.st1{fill:#080707;}
	.st2{fill:#FFFFFF;}
</style>
<g>
	<g>
		<path class="st0" d="M311.4,131c0-4.7-4-8.5-9-8.4c-4.9,0-8.9,3.8-8.9,8.5c0,4.7,4,8.5,9,8.4C307.4,139.5,311.4,135.7,311.4,131"
			/>
		<path class="st1" d="M308.9,131c0-3.5-2.9-6.4-6.5-6.4c-3.6,0-6.5,2.9-6.5,6.4c0,3.5,2.9,6.4,6.5,6.4
			C306,137.4,308.9,134.5,308.9,131"/>
		<path class="st2" d="M300.5,126.7c0-1-0.8-1.7-1.7-1.7s-1.7,0.8-1.7,1.7s0.8,1.7,1.7,1.7C299.7,128.5,300.5,127.7,300.5,126.7"/>
		<path class="st2" d="M297.6,132c0-0.7-0.6-1.3-1.3-1.3s-1.3,0.6-1.3,1.3c0,0.7,0.6,1.3,1.3,1.3C297.1,133.2,297.6,132.7,297.6,132
			"/>
	</g>
	<g>
		<path class="st0" d="M259.5,131c0-4.7-4-8.5-9-8.4c-4.9,0-8.9,3.8-8.9,8.5c0,4.7,4,8.5,9,8.4C255.5,139.5,259.5,135.7,259.5,131"
			/>
		<path class="st1" d="M257,131c0-3.5-2.9-6.4-6.5-6.4c-3.6,0-6.5,2.9-6.5,6.4c0,3.5,2.9,6.4,6.5,6.4C254.1,137.4,257,134.5,257,131
			"/>
		<path class="st2" d="M248.6,126.7c0-1-0.8-1.7-1.7-1.7s-1.7,0.8-1.7,1.7c0,1,0.8,1.7,1.7,1.7C247.8,128.5,248.6,127.7,248.6,126.7
			"/>
		<path class="st2" d="M245.7,132c0-0.7-0.6-1.3-1.3-1.3c-0.7,0-1.3,0.6-1.3,1.3c0,0.7,0.6,1.3,1.3,1.3S245.7,132.7,245.7,132"/>
	</g>
</g>
</svg>
