<svg id="Illustrations" xmlns="http://www.w3.org/2000/svg" viewBox="0 0 581.1 269.29"><title>sticker_kawaii</title><line x1="-0.43" y1="-0.2" x2="5.28" y2="-0.2" style="fill:none;stroke:#674935;stroke-miterlimit:10;stroke-width:0.5px"/><line x1="-0.18" y1="3.82" x2="-0.18" y2="-0.03" style="fill:none;stroke:#674935;stroke-miterlimit:10;stroke-width:0.5px"/><line x1="581.59" y1="269.07" x2="575.89" y2="269.07" style="fill:none;stroke:#674935;stroke-miterlimit:10;stroke-width:0.5px"/><line x1="581.35" y1="265.04" x2="581.35" y2="268.89" style="fill:none;stroke:#674935;stroke-miterlimit:10;stroke-width:0.5px"/><line x1="-0.19" y1="265.53" x2="-0.19" y2="269.38" style="fill:none;stroke:#674935;stroke-miterlimit:10;stroke-width:0.5px"/><path d="M570.12,125.52a1.27,1.27,0,0,1,0,.34,1.8,1.8,0,0,1-.27,1.11,2.29,2.29,0,0,1-1,.86,5.58,5.58,0,0,1-1.84.52,9.2,9.2,0,0,1-2,0,.32.32,0,0,1-.22-.12.31.31,0,0,1-.08-.24.35.35,0,0,1,.12-.23.34.34,0,0,1,.24-.07,8.36,8.36,0,0,0,1.87,0,4.73,4.73,0,0,0,1.63-.47,1.34,1.34,0,0,0,.89-1.33,2.42,2.42,0,0,0-.87-1.59h0l-3.38,0a.33.33,0,0,1-.23-.1.32.32,0,0,1-.1-.23.34.34,0,0,1,.33-.33l3.61,0,3.62,0a.37.37,0,0,1,.24.1.35.35,0,0,1,.09.23.32.32,0,0,1-.09.23.33.33,0,0,1-.24.1h-2.78l2.92,2.51a.45.45,0,0,1,.11.23.32.32,0,0,1-.09.24.32.32,0,0,1-.22.12.35.35,0,0,1-.24-.08Z" style="fill:#6bb7c6"/><path d="M569.94,129.65a3,3,0,0,1,.58.86,2,2,0,0,1,.09,1c-.14,1-1,1.54-2.44,1.67a15.09,15.09,0,0,1-1.63,0,10.52,10.52,0,0,0-1.23,0,.34.34,0,0,1-.36-.3.31.31,0,0,1,.16-.33,3,3,0,0,1-.33-1.33,2.2,2.2,0,0,1,.61-1.71,1.84,1.84,0,0,1,1.47-.52,2,2,0,0,1,1.41.73,2.16,2.16,0,0,1,.46,1.72,2.27,2.27,0,0,1-.32,1c1-.13,1.46-.49,1.54-1.07a1.34,1.34,0,0,0-.05-.68,1.81,1.81,0,0,0-.44-.61.4.4,0,0,1-.09-.25.29.29,0,0,1,.1-.23.31.31,0,0,1,.24-.1A.33.33,0,0,1,569.94,129.65Zm-2.52,2.92a1.46,1.46,0,0,0,.46-.47,1.66,1.66,0,0,0,.19-.67,1.55,1.55,0,0,0-.31-1.21,1.3,1.3,0,0,0-1-.5,1.19,1.19,0,0,0-1,.34,1.61,1.61,0,0,0-.4,1.21,2.42,2.42,0,0,0,.4,1.29h1.58Z" style="fill:#6bb7c6"/><path d="M570.14,134.54l-1.19,0q-1,0-1.65,0a4.54,4.54,0,0,0-1.38.28c-.29.11-.43.28-.42.48s.06.18.19.29a2,2,0,0,0,.6.27,6,6,0,0,0,1.39.27H569l.06,0a.31.31,0,0,1,.17.15.32.32,0,0,1-.06.39l-.11.08-.06,0-.19,0a7.14,7.14,0,0,1-1.07,0,6.6,6.6,0,0,0-1,0,1.8,1.8,0,0,0-1.24.58.44.44,0,0,0,0,.47.78.78,0,0,0,.43.41,10.31,10.31,0,0,0,4.24,0,.37.37,0,0,1,.24.07.35.35,0,0,1,.12.22.33.33,0,0,1-.06.25.35.35,0,0,1-.22.14,10.55,10.55,0,0,1-4.54-.06,1.32,1.32,0,0,1-.8-.74A1.06,1.06,0,0,1,565,137a2,2,0,0,1,.81-.63,2.43,2.43,0,0,1-.56-.29,1.06,1.06,0,0,1-.45-.81,1.14,1.14,0,0,1,.82-1.13,4.74,4.74,0,0,1,1.61-.32c.44,0,1,0,1.7,0l1.15,0a.37.37,0,0,1,.24.1.33.33,0,0,1,.1.24.36.36,0,0,1-.09.24A.31.31,0,0,1,570.14,134.54Z" style="fill:#6bb7c6"/><path d="M569.94,140.27a2.83,2.83,0,0,1,.58.86,2,2,0,0,1,.09,1c-.14,1-1,1.53-2.44,1.67a13.23,13.23,0,0,1-1.63,0c-.65,0-1.06,0-1.23,0a.27.27,0,0,1-.23-.07.29.29,0,0,1-.13-.22.31.31,0,0,1,.16-.33,3,3,0,0,1-.33-1.33,2.19,2.19,0,0,1,.61-1.71,1.85,1.85,0,0,1,1.47-.53,2,2,0,0,1,1.41.73,2.18,2.18,0,0,1,.46,1.73,2.36,2.36,0,0,1-.32,1c1-.14,1.46-.49,1.54-1.07a1.39,1.39,0,0,0-.05-.69,1.81,1.81,0,0,0-.44-.61.38.38,0,0,1-.09-.25.29.29,0,0,1,.1-.23.34.34,0,0,1,.24-.09A.29.29,0,0,1,569.94,140.27Zm-2.52,2.91a1.44,1.44,0,0,0,.46-.46,1.77,1.77,0,0,0,.19-.67,1.57,1.57,0,0,0-.31-1.22,1.34,1.34,0,0,0-1-.5,1.23,1.23,0,0,0-1,.34,1.61,1.61,0,0,0-.4,1.21,2.37,2.37,0,0,0,.4,1.29h1.58Z" style="fill:#6bb7c6"/><path d="M570.18,145c-1.25,0-2.93.08-5,.08a.37.37,0,0,1-.24-.1.35.35,0,0,1-.09-.23.31.31,0,0,1,.33-.33c2.09,0,3.76,0,5-.08a.32.32,0,0,1,.23.09.31.31,0,0,1,.11.22.36.36,0,0,1-.09.24A.3.3,0,0,1,570.18,145Zm1.4-.1a.29.29,0,0,1-.23.1.34.34,0,0,1-.33-.33.29.29,0,0,1,.1-.23.3.3,0,0,1,.23-.1.34.34,0,0,1,.33.33A.3.3,0,0,1,571.58,144.92Z" style="fill:#6bb7c6"/><path d="M570.18,146.12c-1.25,0-2.93.08-5,.08a.37.37,0,0,1-.24-.1.35.35,0,0,1-.09-.23.31.31,0,0,1,.33-.33c2.09,0,3.76,0,5-.08a.32.32,0,0,1,.23.09.31.31,0,0,1,.11.22.36.36,0,0,1-.09.24A.34.34,0,0,1,570.18,146.12Zm1.4-.1a.29.29,0,0,1-.23.1.34.34,0,0,1-.33-.33.29.29,0,0,1,.1-.23.3.3,0,0,1,.23-.1.34.34,0,0,1,.33.33A.3.3,0,0,1,571.58,146Z" style="fill:#6bb7c6"/><path d="M228.43,234.67c-12.41,7.58-28.21,16.31-34,17.88a15.56,15.56,0,0,1-16.13-4.21c-6.07-6.07-6-11.72-4.71-15.18s7-10.13,12.83-6.76c0,0-6.19-3.2-3.54-12.56s19.4-15.22,25.47-2.91c0,0-.28-7,6.72-7.57,6.62-.55,8.84,5.9,7.94,8.1,0,0,4.72-7,12.26-2.79S239.91,227.67,228.43,234.67Z" style="fill:#d4ecf5"/><path d="M191,236.39a1.83,1.83,0,0,0-.09,2.19,2.07,2.07,0,0,0,2,.87,2,2,0,0,0,1.63-2.09,2.1,2.1,0,0,0-1.9-2c-1,0-2.18,1-2.08,1.94" style="fill:#443f3b"/><path d="M192.25,236.89a.75.75,0,0,0,.64.39.61.61,0,0,0,.37-.12.4.4,0,0,0,.16-.35.6.6,0,0,0-.1-.25.81.81,0,0,0-.56-.38A.5.5,0,0,0,192.25,236.89Z" style="fill:#fff"/><path d="M219,221.64a1.84,1.84,0,0,0-.09,2.19,2,2,0,0,0,3.68-1.23,2.11,2.11,0,0,0-1.91-1.94c-1,0-2.18.94-2.08,1.93" style="fill:#443f3b"/><path d="M220.29,222.13a.73.73,0,0,0,.64.39.54.54,0,0,0,.37-.11.42.42,0,0,0,.16-.35.55.55,0,0,0-.1-.25.8.8,0,0,0-.56-.39A.51.51,0,0,0,220.29,222.13Z" style="fill:#fff"/><path d="M209,236.14a2.34,2.34,0,0,1-.5.19A2.24,2.24,0,0,1,206,235.1a.5.5,0,0,1,.15-.68.49.49,0,0,1,.67.14c.66,1,1.24.86,1.43.82a1.42,1.42,0,0,0,.94-.89,1.1,1.1,0,0,0-.24-1,.49.49,0,0,1,.76-.62,2.08,2.08,0,0,1,.43,1.88A2.39,2.39,0,0,1,209,236.14Z" style="fill:#443f3b"/><path d="M190.05,242.43a1.28,1.28,0,0,0,1.3,1,1.85,1.85,0,0,0,1.43-.9,1.26,1.26,0,0,0,.14-1.25,1.09,1.09,0,0,0-.94-.51,2.38,2.38,0,0,0-1.07.29A1.48,1.48,0,0,0,190.05,242.43Z" style="fill:#f087ad"/><path d="M222.72,225.46a1.26,1.26,0,0,0,1.29.95,1.82,1.82,0,0,0,1.43-.9,1.26,1.26,0,0,0,.15-1.25,1.1,1.1,0,0,0-1-.51,2.43,2.43,0,0,0-1.07.3A1.44,1.44,0,0,0,222.72,225.46Z" style="fill:#f087ad"/><path d="M156.78,124.67a18.44,18.44,0,0,0-14.19.24c-.16-.62.38-1.23.88-1.7a57.69,57.69,0,0,1,5.67-4.65,38.8,38.8,0,0,0-15,2.77c-.21-.5.17-1.07.56-1.5,2.81-3,7.13-4.27,11.18-5.34a40.3,40.3,0,0,0-14.44-4.13c1.25-1.71,3.64-2.19,5.76-2.52a17.72,17.72,0,0,1,5.84-.24,6.07,6.07,0,0,0-2.76-2.45,49.27,49.27,0,0,0-10.22-4.28,11.78,11.78,0,0,1,5.8-1.23c2.15,0,4.3,0,6.44.08-.53-4.13-1.39-8-2.28-12,3.64,1.85,5.61,5.59,7.38,9.13A15.53,15.53,0,0,1,153.79,86l-.85,4.92a10.91,10.91,0,0,0-.13,4.75c3.05-2.26,6.18-4.16,9.93-4.22a30.85,30.85,0,0,0-5.69,15.14,12.86,12.86,0,0,1,9.88-3.34,23.94,23.94,0,0,0-7.84,11.53,12.07,12.07,0,0,1,11.47-3.22,17.08,17.08,0,0,0-9.42,13.07,1.65,1.65,0,0,1-.59,1.35,1.72,1.72,0,0,1-.74.18c-1.19.1-2.71,0-3-1.08C156.93,124.93,156.67,124.83,156.78,124.67Z" style="fill:#8caf76"/><path d="M182.56,129a44.68,44.68,0,0,0-8.28-7.73,15.28,15.28,0,0,0-3.55-1.88,10.46,10.46,0,0,0-2.54-1.13c-2.35-.7-8.63.46-10.71,1.57a25,25,0,0,0-6.74,5.62,16.8,16.8,0,0,0-2.76,3.89,14.33,14.33,0,0,0-1.16,4.74,45.1,45.1,0,0,0,.6,11.32c.75,4.74,1.87,9.51,4.54,13.47s7.12,7,12.23,7.11c3.92.06,7.74-1.6,11.36-3.27l1.11-.52,1.1-.51c3.61-1.7,7.33-3.57,9.81-6.61,3.22-4,3.73-9.35,2.41-13.94S185.71,132.65,182.56,129Z" style="fill:#faef81"/><path d="M160.84,165.68l-.05,0a.2.2,0,0,1-.25-.15c-1.67-9-1.18-21.6,1.26-32.09.92-4,2.2-7.94,3.44-11.76l.09-.3a28.57,28.57,0,0,1,1.26-3.37.23.23,0,0,1,.29-.13.2.2,0,0,1,.11.27,27.12,27.12,0,0,0-1.23,3.33l-.1.3c-1.23,3.81-2.51,7.75-3.43,11.72-2.43,10.44-2.92,23-1.26,31.93A.22.22,0,0,1,160.84,165.68Z" style="fill:#fdcf08"/><path d="M171,164.36l-.05,0a.2.2,0,0,1-.25-.15c-1.17-6.53-2.06-20.62,5.12-41.66a.24.24,0,0,1,.28-.15.19.19,0,0,1,.14.25c-3.07,9-7.81,26.34-5.11,41.46A.2.2,0,0,1,171,164.36Z" style="fill:#fdcf08"/><path d="M180.9,159.48l-.06,0a.2.2,0,0,1-.24-.17c-.74-8,.94-17.81,4.58-26.9a.26.26,0,0,1,.29-.14.19.19,0,0,1,.12.26c-3.62,9-5.28,18.78-4.55,26.72A.23.23,0,0,1,180.9,159.48Z" style="fill:#fdcf08"/><path d="M149.17,153l-.07,0a.2.2,0,0,1-.24-.17c-1.16-9.84,2.2-23.41,6-31.17a.23.23,0,0,1,.29-.12.2.2,0,0,1,.11.27c-3.73,7.71-7.08,21.18-5.92,30.95A.23.23,0,0,1,149.17,153Z" style="fill:#fdcf08"/><path d="M171.88,164.56a.26.26,0,0,1-.15,0c-7.26-1.48-18.32-8.35-23.36-13.5a.2.2,0,0,1,0-.29.22.22,0,0,1,.31,0c4.9,5,16.07,11.94,23.15,13.38a.19.19,0,0,1,.15.25A.24.24,0,0,1,171.88,164.56Z" style="fill:#fdcf08"/><path d="M187.65,155.29l-.13,0c-14.24-1.8-31.87-9.61-41-18.17a.2.2,0,0,1,0-.29.23.23,0,0,1,.32,0c9.07,8.5,26.6,16.26,40.77,18a.19.19,0,0,1,.17.24A.21.21,0,0,1,187.65,155.29Z" style="fill:#fdcf08"/><path d="M189.53,140.12l-.1,0c-12.4-.3-26.52-5.87-37.77-14.9a.21.21,0,0,1,0-.3.23.23,0,0,1,.31,0c11.19,9,25.22,14.52,37.52,14.81a.2.2,0,0,1,.2.22A.25.25,0,0,1,189.53,140.12Z" style="fill:#fdcf08"/><path d="M180.24,126.75a.22.22,0,0,1-.14,0s-2.33-.49-3.48-.67a31,31,0,0,1-15.32-6.95.21.21,0,0,1,0-.3.23.23,0,0,1,.32,0,30.65,30.65,0,0,0,15.11,6.86c1.16.18,3.48.67,3.5.67a.2.2,0,0,1,.15.25A.25.25,0,0,1,180.24,126.75Z" style="fill:#fdcf08"/><path d="M158.54,150.23a3.33,3.33,0,0,1-1.51.31,3.27,3.27,0,0,1-2-.82,3.54,3.54,0,0,1-1-1.62.44.44,0,0,1,.31-.54.42.42,0,0,1,.54.26,2.74,2.74,0,0,0,.82,1.27,2.42,2.42,0,0,0,1.44.62,2.64,2.64,0,0,0,2.31-1.4,3,3,0,0,0,0-2.71.42.42,0,0,1,.22-.56.43.43,0,0,1,.58.17,3.8,3.8,0,0,1,0,3.43A3.69,3.69,0,0,1,158.54,150.23Z" style="fill:#24211d"/><path d="M177.83,141.22a3.63,3.63,0,0,1-2.18.29,3.84,3.84,0,0,1-2.72-2.1.45.45,0,0,1,.8-.39,3,3,0,0,0,2.14,1.67,2.59,2.59,0,0,0,2.52-.95,2.34,2.34,0,0,0,.4-1.51,2.74,2.74,0,0,0-.5-1.43.41.41,0,0,1,.14-.58.45.45,0,0,1,.61.09,3.56,3.56,0,0,1,.63,1.82,3.2,3.2,0,0,1-.55,2A3.24,3.24,0,0,1,177.83,141.22Z" style="fill:#24211d"/><path d="M170.09,150.62a2.5,2.5,0,0,1-1.41.2,2.92,2.92,0,0,1-1.7-.95,1.06,1.06,0,0,1-.32-.64.45.45,0,0,1,.39-.48.4.4,0,0,1,.48.34.46.46,0,0,0,.14.21,2,2,0,0,0,1.2.69,1.43,1.43,0,0,0,1.23-.37.89.89,0,0,0,.23-.87,1.27,1.27,0,0,1-.13-.22.42.42,0,0,1,.2-.54.45.45,0,0,1,.57.09,1.42,1.42,0,0,1,.14.23.92.92,0,0,0,.52.31,1.25,1.25,0,0,0,1-.13,1.41,1.41,0,0,0,.54-1.68.45.45,0,0,1,.26-.56.43.43,0,0,1,.57.21,2.28,2.28,0,0,1-.92,2.72,2.23,2.23,0,0,1-1.68.25l-.16-.05a1.87,1.87,0,0,1-.45.78A2.47,2.47,0,0,1,170.09,150.62Z" style="fill:#24211d"/><path d="M156.07,154a1.45,1.45,0,0,0-.36.62,1.07,1.07,0,0,0,.84,1.2,3,3,0,0,0,1.7-.16,3.92,3.92,0,0,0,1.45-.78,1.6,1.6,0,0,0,.54-1.42,1.26,1.26,0,0,0-.86-.9C158.31,152.21,156.75,153.21,156.07,154Z" style="fill:#f5afb0"/><path d="M179.33,143.13a1.5,1.5,0,0,0-.37.61,1.08,1.08,0,0,0,.85,1.21,3,3,0,0,0,1.69-.16A4,4,0,0,0,183,144a1.59,1.59,0,0,0,.55-1.42,1.24,1.24,0,0,0-.87-.9C181.56,141.36,180,142.36,179.33,143.13Z" style="fill:#f5afb0"/><path d="M460.05,198.29a13.84,13.84,0,0,0-5.4-2.89.48.48,0,0,0-.5.72c1.57,2.75,4.2,4.8,6.76,6.72Q475.7,214,491.14,224.19a5.08,5.08,0,0,0,2.84,1.12.78.78,0,0,0,.55-.2.84.84,0,0,0,.12-.74,3.77,3.77,0,0,0-2-2.79c-2.25-1.29-4.52-2.54-6.68-4-6.06-4.06-11.83-8.51-17.59-13C465.59,202.51,462.83,200.38,460.05,198.29Z" style="fill:#dcac6a"/><path d="M495.49,253.35c2.34.16,3.19,3.07,4.76,4.78,2.5,2.73,7.67,1.9,9.8-1.57a5.09,5.09,0,0,0,4.44,2.66,16.64,16.64,0,0,0,5.51-1,69.74,69.74,0,0,0,10.25-3.61c3.66-1.73,7.27-4.31,9.06-8.11-1.5.78-3.38,1.55-4.6.55-.94-.76-1-2.21-1.07-3.51A52.14,52.14,0,0,0,531.2,228c-1.05-3-3.41-6.13-6.46-5.23a17.5,17.5,0,0,0-4.66-12,5.76,5.76,0,0,0-3.53-2c-1.55-.12-3.18.73-4.69.42-2.59-.54-3.71-4.23-6.39-4.31a5.7,5.7,0,0,0-3.47,1.63,8.75,8.75,0,0,0-3.87-3.41,6.7,6.7,0,0,0-3.94,0,18.2,18.2,0,0,0-6.7,4.13,81.87,81.87,0,0,0-11.71,12.62A14.94,14.94,0,0,0,473,225a5.85,5.85,0,0,0,1.19,5.55,9.74,9.74,0,0,1,1.51,1.5c1.06,1.68-.34,3.83-.3,5.82s1.77,3.83,3.51,5.06a19,19,0,0,0,2.11,1.3,18.82,18.82,0,0,0,2.83,5.33c2,2.77,5,5.38,8.45,4.58A11.53,11.53,0,0,1,495.49,253.35Z" style="fill:#fae1e6"/><g style="opacity:0.14"><path d="M538,248.09c-.12-.14-.35-.07-.53,0l.31.13C537.77,248.43,538.18,248.24,538,248.09Z" style="fill:#f6b8c8"/><path d="M537.47,248.11h0a.56.56,0,0,0-.4,0,3,3,0,0,1-.69.24,1.79,1.79,0,0,1-.69-.11,2.76,2.76,0,0,1-1.33-.64,2.18,2.18,0,0,1-.43-.68,3.74,3.74,0,0,1-.29-.72,3,3,0,0,1-.13-1.12,18.43,18.43,0,0,0-1-9.4,8.31,8.31,0,0,1-.62-1.84c-.12-.79.06-1.59,0-2.38a3.72,3.72,0,0,0-1.56-2.7,2,2,0,0,0,.42-2.39,5.48,5.48,0,0,0-1.79-1.89,5.06,5.06,0,0,0-2-1.08,1.81,1.81,0,0,0-2,.78,2.73,2.73,0,0,0-.22.85q-.76,5.37-1.52,10.74a3.39,3.39,0,0,0,0,1.52,1.16,1.16,0,0,0,1.12.87,5.49,5.49,0,0,0,.69-.21,1.41,1.41,0,0,1,1.62,1.72c.64-.69,1.87-.14,2.3.69a13.91,13.91,0,0,1,.64,2.73c0,.17.13.35.29.4a.82.82,0,0,0,.41,0,1.17,1.17,0,0,1,1.18.72,7.56,7.56,0,0,1,.4,1.43A4.16,4.16,0,0,0,537.47,248.11Z" style="fill:#f6b8c8"/><path d="M498.67,225.68c.12-.17.22-.36.41-.42a1,1,0,0,1,.57.1,1.46,1.46,0,0,0,1.83-1.87,2.48,2.48,0,0,0,1.92-.86,5.06,5.06,0,0,1,1.72-1.31,2.73,2.73,0,0,1,2.18.34,2.14,2.14,0,0,1,2.92-1.32,1.3,1.3,0,0,1,2.47.24,7.47,7.47,0,0,1-.51,1,10.58,10.58,0,0,1-1.39,1.75,44.49,44.49,0,0,1-5.79,5.27,4.1,4.1,0,0,1,2.12-.86c.78,0,1.61.64,1.5,1.41A2,2,0,0,1,510,228a1.14,1.14,0,0,1,1.34,1,3.16,3.16,0,0,1,1.84-1.2c.74-.09,1.59.54,1.43,1.27a2.41,2.41,0,0,1,3,.48,4.46,4.46,0,0,1,.8,2.58,1.37,1.37,0,0,1,1.17.63,3.79,3.79,0,0,1,.52,1.28.9.9,0,0,1,1.33.24,2.91,2.91,0,0,1,.28,1.48c1.63-1,1.59-3,1.86-4.64a46.34,46.34,0,0,0,.72-6.43,26.44,26.44,0,0,0-.15-3.67,4.26,4.26,0,0,0-.51-1.8,1.07,1.07,0,0,1-.21-.46,1.09,1.09,0,0,1,.07-.4,2.73,2.73,0,0,0-.31-2.21c-.26-.41-.63-.74-.9-1.15a12.9,12.9,0,0,1-.65-1.22,11.3,11.3,0,0,0-1.91-2.35,4.52,4.52,0,0,0-6.19-1.22,1.14,1.14,0,0,0-.42.26l-.3-.64a.38.38,0,0,0-.12-.16.44.44,0,0,0-.32,0,2.58,2.58,0,0,1-2.52-.73c-.4-.5-.56-1.26-1.17-1.49-.33-.13-.76-.08-1-.37a1.23,1.23,0,0,1-.16-.43,1.45,1.45,0,0,0-2.6-.34c-.09-.35-.23-.75-.57-.86a.88.88,0,0,0-.53,0,2.18,2.18,0,0,0-1.21,1.56s0,.09,0,.13a2.91,2.91,0,0,0-.81-1.17c-.3-.25-.66-.43-1-.66-.75-.59-1.38-1.61-2.32-1.5a2.29,2.29,0,0,1-.85.11,1.69,1.69,0,0,1-.64-.46c-.11-.1-3.1.74-2.56.15-.16.18-.31.4-.53.47a1.23,1.23,0,0,1-.6,0,2.19,2.19,0,0,0-2,.42,2.06,2.06,0,0,0-.52,1.51c-1.89.37-3.36,1.83-4.7,3.22-1.55,1.62-3.27,3.19-4.69,4.92a2.21,2.21,0,0,1,3.11.63,2.66,2.66,0,0,1,1.32-.93c.54-.1,1.2.29,1.15.83a1.59,1.59,0,0,1,2.13.21,2.26,2.26,0,0,0,.2-.13,10,10,0,0,1-.91,1.82c-1.15,1.65-3.21,2.43-4.54,3.93a5.45,5.45,0,0,1,3.54.26.9.9,0,0,0,.33.09c.42,0,.51-.67.9-.83s.84.35,1.31.45c.77.16,1.41-.9,2.17-.72.58.15,1,1,1.56.67.19-.11.27-.34.4-.53a1.38,1.38,0,0,1,1.56-.37,4,4,0,0,1,1.39,1,1.47,1.47,0,0,1,1.45-1.2c.63,0,1,.65,1.66.42l.09-.06c-.32.82-.66,1.64-1,2.45a11.27,11.27,0,0,1-2.43,3.89,1,1,0,0,0,1,.33A1.5,1.5,0,0,0,498.67,225.68Zm14-5.14,0-.85a2.83,2.83,0,0,0,.46-.31C513,219.78,512.86,220.16,512.71,220.54Z" style="fill:#f6b8c8"/></g><g style="opacity:0.44"><path d="M524.82,223.5a27,27,0,0,1-.65,8.77,18.84,18.84,0,0,1-4.73,7.45,52.26,52.26,0,0,0-5.82,6.49c-1.62,2.34-2.82,5.18-2.37,8.12a8.9,8.9,0,0,1,.08-4.38,14.92,14.92,0,0,1,1.84-4c1.58-2.53,3.79-4.53,5.75-6.67a18.85,18.85,0,0,0,4.73-7.13A32.88,32.88,0,0,0,524.82,223.5Z" style="fill:#fff"/><path d="M500.2,252.6a1.08,1.08,0,0,1-1,.94h0l0,0a31.55,31.55,0,0,1-1.62-12,20.46,20.46,0,0,1,4.18-11.36c2.61-3.2,6.13-5.34,8.88-8.22a13.93,13.93,0,0,0,3.11-5,7.81,7.81,0,0,0-.09-5.84,7.74,7.74,0,0,1,.41,5.94,14.2,14.2,0,0,1-3,5.28c-2.73,3-6.27,5.18-8.72,8.3a20.19,20.19,0,0,0-4.16,11,33.83,33.83,0,0,0,1.15,11.91l-.05,0A1,1,0,0,0,500.2,252.6Z" style="fill:#fff"/><path d="M502.68,205.1a25.68,25.68,0,0,1-1.05,11.76A26.32,26.32,0,0,1,491,231a48.22,48.22,0,0,0-4.86,3.31,8.48,8.48,0,0,0-2,10.55,8.43,8.43,0,0,1-1.23-5.73,8.65,8.65,0,0,1,2.84-5.23,39,39,0,0,1,4.87-3.43,28.39,28.39,0,0,0,12-25.33Z" style="fill:#fff"/><path d="M491.62,205.58a8,8,0,0,1,0,3.91,12.76,12.76,0,0,1-1.56,3.64,25.57,25.57,0,0,1-5.45,5.68,34.57,34.57,0,0,0-5.63,5.3,11,11,0,0,0-2.63,7.08,8.64,8.64,0,0,1,.37-3.9,13.34,13.34,0,0,1,1.83-3.51,31.79,31.79,0,0,1,5.61-5.51,26.76,26.76,0,0,0,5.45-5.44A10.1,10.1,0,0,0,491.62,205.58Z" style="fill:#fff"/></g><path d="M495.45,217.91a3.39,3.39,0,0,0,1.53.63,1.5,1.5,0,0,0,.66,0,1.78,1.78,0,0,0,.93-.73,4.07,4.07,0,0,0,.43-.71,2.56,2.56,0,0,0-.86-3,.29.29,0,0,0-.32,0,.34.34,0,0,0-.09.08.29.29,0,0,0,.08.41,2,2,0,0,1,.65,2.3,2.74,2.74,0,0,1-.35.59,1.35,1.35,0,0,1-.62.52,1.19,1.19,0,0,1-.43,0,2.79,2.79,0,0,1-1.35-.59.35.35,0,0,0-.44,0,.33.33,0,0,0-.09.38A.32.32,0,0,0,495.45,217.91Z" style="fill:#443f3b"/><path d="M485.08,229.56a.3.3,0,0,0,0,.41,4.71,4.71,0,0,0,1.19.84,1.83,1.83,0,0,0,1.58,0,2.16,2.16,0,0,0,.76-.74,2.94,2.94,0,0,0,.51-1,2.49,2.49,0,0,0-1.29-2.81.3.3,0,0,0-.29,0,.24.24,0,0,0-.1.12.28.28,0,0,0,.13.38,1.92,1.92,0,0,1,1,2.15,2.57,2.57,0,0,1-.42.85,1.64,1.64,0,0,1-.56.55,1.26,1.26,0,0,1-1.07,0,4.8,4.8,0,0,1-1.05-.75A.29.29,0,0,0,485.08,229.56Z" style="fill:#443f3b"/><path d="M489.43,223.46a.29.29,0,0,0-.08-.4,1.92,1.92,0,0,1-.67-.76.71.71,0,0,1,.11-.63.4.4,0,0,1,.12-.11l.21-.05.22,0a1.67,1.67,0,0,0,1-1.41l0-.12a1,1,0,0,1,.16-.5.72.72,0,0,1,.7-.11,1.64,1.64,0,0,1,.79.44.29.29,0,1,0,.4-.42,2.45,2.45,0,0,0-1-.59,1.46,1.46,0,0,0-1.08.12.76.76,0,0,0-.21.19,1.47,1.47,0,0,0-.29.78l0,.11c0,.19-.18.82-.63,1l-.15,0a1.16,1.16,0,0,0-.38.11,1,1,0,0,0-.3.25,1.29,1.29,0,0,0-.21,1.18,2.48,2.48,0,0,0,.89,1.06A.29.29,0,0,0,489.43,223.46Z" style="fill:#443f3b"/><path d="M483.48,230.15c.73-.17,1.53-1.19,1.1-1.94s-1.35-.15-1.7.41a1.91,1.91,0,0,0-.29.69.76.76,0,0,0,.21.69A.73.73,0,0,0,483.48,230.15Z" style="fill:#f087ad"/><path d="M496.43,214c.73-.17,1.53-1.2,1.1-1.94s-1.36-.16-1.7.4a2.07,2.07,0,0,0-.29.69.78.78,0,0,0,.21.7A.72.72,0,0,0,496.43,214Z" style="fill:#f087ad"/><path d="M406.57,126.09c.34,1.28.21,2.75.95,3.85,1.27,1.89,4.41,1.41,6.09-.25s2.36-4,3.3-6.16c2.86-6.55,9.48-13,16.27-15.07a21.66,21.66,0,0,1,19.49,3c6,4.38,9.75,12.06,9.13,19.29-1,11.47-11.92,20.67-22.12,23.53a32.93,32.93,0,0,1-18.2.05A25.66,25.66,0,0,1,407.88,144a24.82,24.82,0,0,1-3.45-8.07,24.43,24.43,0,0,1-.58-4.44c-.05-1.48.41-3.13.27-4.57-.28-2.7-3.71-3.5-5.82-2.3C401.17,122.63,405.44,121.91,406.57,126.09Z" style="fill:#f4f3f4"/><path d="M428.4,122.32a2.78,2.78,0,0,1,3.75-.08,2.26,2.26,0,0,1,.81,1.69,3.56,3.56,0,0,1-.91,2c-.25.31.18.74.44.44a4.34,4.34,0,0,0,1.09-2.47,2.89,2.89,0,0,0-1-2.13,3.42,3.42,0,0,0-4.62.09c-.29.27.14.7.44.43Z" style="fill:#443f3b"/><path d="M442.23,135.57a2.78,2.78,0,0,1,3.75-.09,2.3,2.3,0,0,1,.81,1.69,3.59,3.59,0,0,1-.91,2c-.25.3.18.74.44.43a4.31,4.31,0,0,0,1.09-2.47,2.85,2.85,0,0,0-1-2.12,3.42,3.42,0,0,0-4.62.08c-.29.27.14.71.44.44Z" style="fill:#443f3b"/><path d="M434.26,132.51a1.31,1.31,0,0,0-1,.25,3.14,3.14,0,0,0-.76.74,2.18,2.18,0,0,0-.55,1.09,1.18,1.18,0,0,0,1,1.26,2.19,2.19,0,0,0,1.72-.71,2,2,0,0,0,.56-.89,1.29,1.29,0,0,0-.24-1.11,1.58,1.58,0,0,0-.92-.64" style="fill:#443f3b"/><path d="M470.33,112.83a2.47,2.47,0,0,1-1.12.7,3,3,0,0,1-1.29.1,1.3,1.3,0,0,1,.21.49,1.46,1.46,0,0,1,0,.51,1.62,1.62,0,0,1-.18.49,1.89,1.89,0,0,1-.34.46,2,2,0,0,1-.89.56,2.23,2.23,0,0,1-1,.06,2.89,2.89,0,0,1-.94-.31,3.35,3.35,0,0,1-.8-.58,2.77,2.77,0,0,1-.36-.4,1.7,1.7,0,0,1-.26-.45c0-.06,0-.15.06-.28a5.35,5.35,0,0,1,.31-.45l.43-.53.47-.53.4-.43.25-.26.5-.52.51-.51.2-.2.31-.31.36-.35.37-.33a3.78,3.78,0,0,1,.32-.24.45.45,0,0,1,.22-.08,4.33,4.33,0,0,1,.55.13q.29.09.57.21a3.25,3.25,0,0,1,.52.28,2.53,2.53,0,0,1,.44.33,2.23,2.23,0,0,1,.42.55,1.59,1.59,0,0,1,.19.63,1.56,1.56,0,0,1-.47,1.26Zm-3.58,1.4a.24.24,0,0,0,.08-.25.41.41,0,0,0-.13-.23.7.7,0,0,0-.25-.15.63.63,0,0,0-.29,0s-.06,0-.1,0a.75.75,0,0,0-.14.12l-.13.12-.09.08-.05.06-.09.1a.61.61,0,0,0-.07.1s0,0,0,.06a.68.68,0,0,0,.27.15,1.36,1.36,0,0,0,.36.06,1,1,0,0,0,.35,0A.55.55,0,0,0,466.75,114.23Zm2.06-2.1a.33.33,0,0,0,.11-.26.48.48,0,0,0-.13-.24.87.87,0,0,0-.25-.15.79.79,0,0,0-.3,0,.36.36,0,0,0-.15.09,1.46,1.46,0,0,0-.25.2l-.25.23a2,2,0,0,0-.15.15l-.05.05-.06.07a.35.35,0,0,0-.05.08s0,0,0,0a.55.55,0,0,0,.33.13,1.31,1.31,0,0,0,.44,0,2.32,2.32,0,0,0,.45-.13A.89.89,0,0,0,468.81,112.13Z" style="fill:#b6dab8"/><path d="M469,118.21a1.68,1.68,0,0,1-.52-.92,2.45,2.45,0,0,1,.07-1.1,4.67,4.67,0,0,1,.54-1.17,7.4,7.4,0,0,1,.91-1.15,7.25,7.25,0,0,1,1.11-.94,5,5,0,0,1,1.25-.65,2.92,2.92,0,0,1,1.22-.16,1.74,1.74,0,0,1,1.07.49,1.54,1.54,0,0,1,.51,1,2.42,2.42,0,0,1-.16,1.14,4.9,4.9,0,0,1-.63,1.19,9.58,9.58,0,0,1-.91,1.11,7.33,7.33,0,0,1-1.14,1,4.59,4.59,0,0,1-1.19.6,2.5,2.5,0,0,1-1.14.09A1.7,1.7,0,0,1,469,118.21Zm4-4a.37.37,0,0,0-.33-.1,1.19,1.19,0,0,0-.43.14,2.23,2.23,0,0,0-.48.32,4.58,4.58,0,0,0-.46.42,5.83,5.83,0,0,0-.46.55,3.67,3.67,0,0,0-.36.55,1.58,1.58,0,0,0-.16.48.41.41,0,0,0,.1.35.38.38,0,0,0,.4.06,1.89,1.89,0,0,0,.52-.25,4.92,4.92,0,0,0,.52-.41,5.09,5.09,0,0,0,.4-.39,4.15,4.15,0,0,0,.38-.44A2.94,2.94,0,0,0,473,115a1.49,1.49,0,0,0,.15-.45A.38.38,0,0,0,473,114.18Z" style="fill:#b6dab8"/><path d="M472.45,122.51a1.66,1.66,0,0,1-.51-.93,2.31,2.31,0,0,1,.06-1.1,4.67,4.67,0,0,1,.54-1.17,8.05,8.05,0,0,1,.91-1.15,7.25,7.25,0,0,1,1.11-.94,5.16,5.16,0,0,1,1.25-.65,3,3,0,0,1,1.23-.16,1.72,1.72,0,0,1,1.07.5,1.59,1.59,0,0,1,.51,1,2.76,2.76,0,0,1-.16,1.15,5.27,5.27,0,0,1-.64,1.18,9.49,9.49,0,0,1-.9,1.11,7.39,7.39,0,0,1-1.15,1,4.59,4.59,0,0,1-1.19.6,2.5,2.5,0,0,1-1.14.09A1.81,1.81,0,0,1,472.45,122.51Zm4-4a.37.37,0,0,0-.33-.1,1.19,1.19,0,0,0-.43.14,2.67,2.67,0,0,0-.48.32,4.6,4.6,0,0,0-.46.43,6,6,0,0,0-.46.54,3.19,3.19,0,0,0-.35.56,1.46,1.46,0,0,0-.17.48.41.41,0,0,0,.11.34.38.38,0,0,0,.39.07,2.29,2.29,0,0,0,.52-.26,4.92,4.92,0,0,0,.52-.41c.17-.15.3-.28.41-.39l.38-.44a4.32,4.32,0,0,0,.31-.48,1.54,1.54,0,0,0,.15-.46A.35.35,0,0,0,476.47,118.47Z" style="fill:#b6dab8"/><path d="M480,126.56a.66.66,0,0,1-.26.16.71.71,0,0,1-.29,0,1,1,0,0,1-.29-.1.91.91,0,0,1-.23-.17.72.72,0,0,1-.21-.36.39.39,0,0,1,.12-.4.58.58,0,0,1,.25-.15.76.76,0,0,1,.3,0,1.11,1.11,0,0,1,.3.08,1.43,1.43,0,0,1,.24.16.82.82,0,0,1,.21.36A.46.46,0,0,1,480,126.56Zm2.82-2.68-.32.31-.46.39c-.17.14-.35.27-.53.4a5.42,5.42,0,0,1-.54.32,1.41,1.41,0,0,1-.47.15.39.39,0,0,1-.34-.08.44.44,0,0,1-.1-.41,2.36,2.36,0,0,1,.2-.58,5.11,5.11,0,0,1,.42-.66c.16-.22.33-.44.5-.65l.5-.56a4.87,4.87,0,0,1,.36-.38l.32-.34c.13-.13.27-.27.43-.41a4.52,4.52,0,0,1,.49-.4,2.21,2.21,0,0,1,.5-.3,1.12,1.12,0,0,1,.49-.11.59.59,0,0,1,.42.18.46.46,0,0,1,.13.41,1.86,1.86,0,0,1-.21.56,4.78,4.78,0,0,1-.41.63c-.17.21-.34.42-.51.61s-.34.38-.5.54Z" style="fill:#b6dab8"/><path d="M414.92,120.29a2,2,0,0,0-.65,1.45c.08,2,3,2.48,4.4,1.7a2,2,0,0,0,1.14-1.62c0-.64-.13-1.55-.64-1.52C418.32,120.36,416,119.41,414.92,120.29Z" style="fill:#f4f3f4"/><path d="M445.28,157c1.22,0,1.77-1.77,1.61-2.8-.1-.71-.21-1.41-.31-2.12s0-1.21-.62-1.3a4.19,4.19,0,0,0-2.43,1.35c-.87,1.13-.49,2.8.23,3.91a2,2,0,0,0,1.2.92A1.75,1.75,0,0,0,445.28,157Z" style="fill:#f4f3f4"/><path d="M424.94,123.7a1.44,1.44,0,0,0-.71.14,1.14,1.14,0,0,0-.5,1.16,2.19,2.19,0,0,0,.64,1.17,4.17,4.17,0,0,0,1.27.93,1.26,1.26,0,0,0,.53.16,1,1,0,0,0,.75-.34C428.28,125.54,426.38,123.73,424.94,123.7Z" style="fill:#f6b8c8"/><path d="M442.38,140.92a1.4,1.4,0,0,0-.7.18,1.16,1.16,0,0,0-.43,1.2,2.29,2.29,0,0,0,.72,1.12,4.32,4.32,0,0,0,1.33.85,1.24,1.24,0,0,0,.53.12,1,1,0,0,0,.73-.39C445.83,142.53,443.81,140.86,442.38,140.92Z" style="fill:#f6b8c8"/><path d="M314.05,159.33a4.69,4.69,0,0,0,1.41,6.94,2.64,2.64,0,0,0-1.1,2.78,2.6,2.6,0,0,0,2.23,2,3.13,3.13,0,0,0,.59,3.81,7.25,7.25,0,0,0,3.64,1.72,5.49,5.49,0,0,0,2.2,2.69,2.27,2.27,0,0,0,3-.68,4.6,4.6,0,0,0,6.34,1.18,1.19,1.19,0,0,1,.53-.28,1.21,1.21,0,0,1,.59.21,3.12,3.12,0,0,0,3.65-.53,5.62,5.62,0,0,1,.69-.69c1-.7,2.37.11,3.57-.1a2.27,2.27,0,0,0,1.77-1.88,6.11,6.11,0,0,0,6.52-1.61,6.23,6.23,0,0,0,6.74-2.27,4,4,0,0,0,5.21-1.79,3.92,3.92,0,0,0,4.6-2.57c.53-.12,1,0,1.52-.13a4.36,4.36,0,0,0,2.44-1.13,1.7,1.7,0,0,0-.16-2.47,3,3,0,0,0,1.83-2.19,3.17,3.17,0,0,0-.82-2.82,2.13,2.13,0,0,0-.56-3.7,3.3,3.3,0,0,0-1-4.73,4,4,0,0,0-2-5.09,4.32,4.32,0,0,0-2.57-2.82,16.53,16.53,0,0,0-3.56-.79c-2.74-.48-5.38-1.54-8.11-2.1a33.24,33.24,0,0,0-11.6,0,42.09,42.09,0,0,0-15.82,5.41,63.42,63.42,0,0,0-7.51,5.7c-1.62,1.36-3.33,2.85-3.88,5-.26,1-.24,2-.49,3,0,.13-.06.3.05.38S314.18,159.33,314.05,159.33Z" style="fill:#f4f3f4"/><path d="M341.57,166.75a1.94,1.94,0,0,0,1.63,1.57,2.16,2.16,0,0,0,1.63-.29,1.67,1.67,0,0,0,.72-1.5.74.74,0,0,0,.38.73,1.51,1.51,0,0,0,.81.18,2.29,2.29,0,0,0,1.71-.68,1.48,1.48,0,0,0,.15-1.8" style="fill:none;stroke:#443f3b;stroke-linecap:round;stroke-linejoin:round;stroke-width:0.779412711182479px"/><path d="M354.72,156.84c-.68.88-1.34,1.79-2,2.72-.06.08-.11.19,0,.27a.23.23,0,0,0,.24,0l3.55-.66" style="fill:none;stroke:#443f3b;stroke-linecap:round;stroke-linejoin:round;stroke-width:0.779412711182479px"/><path d="M330.65,164.08a2.55,2.55,0,0,0,1.37,2,2.08,2.08,0,0,0,2.15-.24,2.16,2.16,0,0,0,.87-1.55,2.31,2.31,0,0,0-1.11-2.06C332.62,161.5,330.46,162.09,330.65,164.08Z" style="fill:#443f3b"/><path d="M333,162.51a.7.7,0,0,0-.89.57.91.91,0,0,0,.62.95.81.81,0,0,0,1-.65.72.72,0,0,0-.83-.8" style="fill:#fff"/><path d="M331.84,167.6a2.39,2.39,0,0,0-1,.82,1.89,1.89,0,0,0-.32,1.24.67.67,0,0,0,.13.35.71.71,0,0,0,.3.18,2.66,2.66,0,0,0,2.54-.49,1.46,1.46,0,0,0,.44-.57,1.2,1.2,0,0,0-.19-1.22A1.85,1.85,0,0,0,331.84,167.6Z" style="fill:#f6b8c8"/><path d="M357.62,159.89a2.44,2.44,0,0,0-1,.82,1.93,1.93,0,0,0-.31,1.24.55.55,0,0,0,.43.53,2.66,2.66,0,0,0,2.54-.49,1.65,1.65,0,0,0,.44-.57,1.19,1.19,0,0,0-.2-1.22A1.84,1.84,0,0,0,357.62,159.89Z" style="fill:#f6b8c8"/><path d="M377.76,141.38a14.84,14.84,0,0,1,8.37,1.94,1.27,1.27,0,0,1,.65.7.94.94,0,0,1-.51,1,2.65,2.65,0,0,1-1.15.26c-4.9.33-7,.51-11.84-.46,2.81.51,2.77.76,5.45,1.74a10.23,10.23,0,0,1,3.06,1.58,4,4,0,0,1,1.57,3c-3,.33-5.86-1.17-8.29-2.94-.11-.63-2.92-2.25-3.5-2.68a24.52,24.52,0,0,0-3.85-2.36C371.08,142.56,374.32,141.5,377.76,141.38Z" style="fill:#f087ad"/><path d="M369.71,144.48a85.2,85.2,0,0,0-40.34,8.07c-4.49,2.13-8.8,4.65-13.38,6.58a9.12,9.12,0,0,1-3.67.92,3.56,3.56,0,0,1-3.19-1.82c-1.38-2.88-2.27-6-1-8.92a18,18,0,0,1,6.17-7.05,36,36,0,0,1,6.26-3.79,47.43,47.43,0,0,1,11.21-3.26c6.31-1.2,12.8-1.91,19.17-1a38.8,38.8,0,0,1,20.37,9.63l-1.45.45C370.07,144.26,369.48,144.52,369.71,144.48Z" style="fill:#f6b8c8"/><path d="M314,143.58a10.48,10.48,0,0,1,5.85,5.09,31,31,0,0,1,2.68,7.46" style="fill:none;stroke:#fff;stroke-linecap:round;stroke-linejoin:round;stroke-width:0.797866166409143px"/><path d="M323.53,137.8a13.61,13.61,0,0,1,5.35,4c2.17,2.66,3.24,6,4.26,9.31" style="fill:none;stroke:#fff;stroke-linecap:round;stroke-linejoin:round;stroke-width:0.797866166409143px"/><path d="M334.33,135.41c1.69.13,3.07,1.38,4.18,2.66a17.82,17.82,0,0,1,4.47,9.14" style="fill:none;stroke:#fff;stroke-linecap:round;stroke-linejoin:round;stroke-width:0.797866166409143px"/><path d="M344.23,134.19a16,16,0,0,1,7.53,11.4" style="fill:none;stroke:#fff;stroke-linecap:round;stroke-linejoin:round;stroke-width:0.797866166409143px"/><path d="M354.17,135.58a8.37,8.37,0,0,1,3.23,3.93,20.76,20.76,0,0,1,1.28,5" style="fill:none;stroke:#fff;stroke-linecap:round;stroke-linejoin:round;stroke-width:0.797866166409143px"/><path d="M362.87,138.4a4.79,4.79,0,0,1,1.49,2.54,15.59,15.59,0,0,1,.82,3.43" style="fill:none;stroke:#fff;stroke-linecap:round;stroke-linejoin:round;stroke-width:0.797866166409143px"/><path d="M309.13,149.58a6,6,0,0,0,1.1.8,4.71,4.71,0,0,1,1,1.13,15.05,15.05,0,0,1,2.81,7.48" style="fill:none;stroke:#fff;stroke-linecap:round;stroke-linejoin:round;stroke-width:0.797866166409143px"/><path d="M42.48,135.62c-.88,3-.53,6.81,1.58,9,1.87,1.9,4.94,5.95,7.37,6.5,3.36.77,7.2,2.7,10.4,4.11,9.36,4.12,18.37,2.55,28.19,1a31.54,31.54,0,0,0,24-17.7,10.42,10.42,0,0,0,1.19-5.23c-.25-2.55-2-4.6-3.7-6.22-8.69-8.09-20.35-10.84-31.35-10-8,.63-15.8,3-23.34,6C50.41,125.67,44.83,127.54,42.48,135.62Z" style="fill:#efc37c"/><path d="M50.44,132.92A5.18,5.18,0,0,1,50.9,123a9.33,9.33,0,0,1-1.55-6.13,7.91,7.91,0,0,1,3.11-5.45c2.55-1.84,6-1.82,9.11-1.73a15.65,15.65,0,0,1,2.19-13.5,18.56,18.56,0,0,1,11.84-7c2.74-.45,6.06-.06,7.47,2.33-1-.6-2.2,0-3.18.52a4.63,4.63,0,0,0-1.72,1.4c-1,1.5.2,3.6,1.82,4.34s3.49.55,5.26.47c4.74-.2,9.72.63,13.49,3.51s5.91,8.19,4.11,12.57a9.38,9.38,0,0,1,6.64,7.31,6.34,6.34,0,0,1-.06,3.15,7.5,7.5,0,0,1-3.17,3.72c-5.43,3.74-12.22,4.67-18.64,6.18C84.76,135.33,59.73,136.13,50.44,132.92Z" style="fill:#fae1e6"/><path d="M50.49,121c.4,1.89,2,2.93,3.56,3.57a14.61,14.61,0,0,0,2.51.76c.87.18,1.74.35,2.62.45a22.81,22.81,0,0,0,5.29,0c1.8-.17,3.59-.32,5.51-.43a51.5,51.5,0,0,1,11.3.7,42.92,42.92,0,0,1,10.77,3.24c-3.73-.38-7.38-.74-11-.93s-7.28-.2-10.9,0c-1.78.08-3.69.2-5.58.27-.47,0-.94,0-1.42,0s-1,0-1.47-.1a19,19,0,0,1-2.89-.5,17.57,17.57,0,0,1-5.4-2.2,7.81,7.81,0,0,1-2.15-2.06A4,4,0,0,1,50.49,121Z" style="fill:#f087ad"/><path d="M61.14,108.05a6.54,6.54,0,0,0,4.09,3.22,29.09,29.09,0,0,0,5.28,1.11,56.05,56.05,0,0,0,10.83.43,70.42,70.42,0,0,1,11.28-.16,20.27,20.27,0,0,1,5.62,1.42,12.37,12.37,0,0,1,4.66,3.31,19.78,19.78,0,0,0-10.41-2.55c-3.59,0-7.22.59-11,.77a37.61,37.61,0,0,1-11.39-1.09,22.25,22.25,0,0,1-5.43-2,8.6,8.6,0,0,1-2.31-1.85A4.91,4.91,0,0,1,61.14,108.05Z" style="fill:#f087ad"/><path d="M107.7,147.08c-.09-1.31-2-.6-2.55-.18s-1.38.77-1.85.29c-.19-.19-.26-.48-.47-.65-.53-.42-1.31.2-1.58.81s-.55,1.4-1.24,1.48-1.27-.77-2-1c-.93-.31-1.85.45-2.46,1.18s-1.3,1.61-2.28,1.61c-1.39,0-2.4-1.77-3.73-1.43s-1.57,2.29-2.87,2.36c-.84,0-1.43-.79-2.22-1-1.1-.36-2.21.42-3.11,1.13s-2.08,1.43-3.13,1c-.33-.15-.6-.4-.92-.58a2.7,2.7,0,0,0-3.38.9c-1.22.21-1.94-1.45-3.16-1.61-1.51-.19-2.5,2-4,1.81s-2.19-2.31-3.61-2c-1.05.21-1.55,1.71-2.61,1.63-1.35-.11-1.47-2.59-2.82-2.46-.88.08-1.36,1.38-2.24,1.23-.67-.11-.83-.93-1.24-1.44a1.65,1.65,0,0,0-1.83-.44c-.63.25-1.22.89-1,1.48l11,25.37A2.42,2.42,0,0,0,63.78,178a52.07,52.07,0,0,0,32.09-.81c2.07-.73,4.32-1.86,4.87-3.89C103.18,164.17,105.41,156.26,107.7,147.08Z" style="fill:#a4daf0"/><path d="M55.6,152.7a58,58,0,0,0,2.66,7.53l6.68,16.48" style="fill:none;stroke:#f4f3f4;stroke-linecap:round;stroke-linejoin:round;stroke-width:0.852093268137901px"/><path d="M97.17,174.22Q100,161.57,103,149" style="fill:none;stroke:#f4f3f4;stroke-linecap:round;stroke-linejoin:round;stroke-width:0.852093268137901px"/><path d="M92.85,175.65q1.74-11.94,3-24" style="fill:none;stroke:#f4f3f4;stroke-linecap:round;stroke-linejoin:round;stroke-width:0.852093268137901px"/><path d="M68.88,176.8q-3.09-11.37-7.11-22.44" style="fill:none;stroke:#f4f3f4;stroke-linecap:round;stroke-linejoin:round;stroke-width:0.852093268137901px"/><path d="M72.92,177.45q-1.77-11.69-4.1-23.27" style="fill:none;stroke:#f4f3f4;stroke-linecap:round;stroke-linejoin:round;stroke-width:0.852093268137901px"/><path d="M88.1,175.94q0-11.38.94-22.73" style="fill:none;stroke:#f4f3f4;stroke-linecap:round;stroke-linejoin:round;stroke-width:0.852093268137901px"/><path d="M78.34,177.3Q77,165.9,75.21,154.55" style="fill:none;stroke:#f4f3f4;stroke-linecap:round;stroke-linejoin:round;stroke-width:0.852093268137901px"/><path d="M83,177q-1-11.1-1.48-22.22" style="fill:none;stroke:#f4f3f4;stroke-linecap:round;stroke-linejoin:round;stroke-width:0.852093268137901px"/><path d="M63.1,140a5.14,5.14,0,0,0,1.38,3.13,2.78,2.78,0,0,0,3.2.56c1.22-.7,1.47-2.33,1.46-3.73" style="fill:none;stroke:#24211d;stroke-linecap:round;stroke-linejoin:round;stroke-width:1.01111384180908px"/><path d="M94,137.7A5.23,5.23,0,0,1,93,141,2.8,2.8,0,0,1,90,142c-1.3-.51-1.8-2.09-2-3.48" style="fill:none;stroke:#24211d;stroke-linecap:round;stroke-linejoin:round;stroke-width:1.01111384180908px"/><path d="M76.48,144.64a1.8,1.8,0,0,0,1.69,1.86,1.66,1.66,0,0,0,1.59-1.87,1.6,1.6,0,1,0,3.06-.58" style="fill:none;stroke:#24211d;stroke-linecap:round;stroke-linejoin:round;stroke-width:1.01111384180908px"/><path d="M81.51,100.4a11.37,11.37,0,0,0-3.26,2.27c-.41.41-.79,1.13-.35,1.51a2,2,0,0,0,1.58-.5l2.25-1.49a1.85,1.85,0,0,0,.81-.83A.91.91,0,0,0,81,100.5" style="fill:#f4f3f4"/><path d="M79.62,116.88a11.68,11.68,0,0,0-3.28-2.23c-.53-.24-1.33-.33-1.53.21a2,2,0,0,0,1,1.3l2.2,1.57a1.83,1.83,0,0,0,1.06.45.91.91,0,0,0,.24-1.77" style="fill:#f4f3f4"/><path d="M99.66,110.41a11.28,11.28,0,0,0-3.28-2.23c-.53-.24-1.34-.34-1.54.21a2.08,2.08,0,0,0,1,1.3l2.2,1.57a1.84,1.84,0,0,0,1,.45.91.91,0,0,0,.25-1.78" style="fill:#67a886"/><path d="M67.6,95.22l-1.95,1.85a2.28,2.28,0,0,0-.79,1.15c-.09.46.26,1,.73,1a1.08,1.08,0,0,0,.54-.28l1.81-1.42A3.44,3.44,0,0,0,69,96.31a1.22,1.22,0,0,0-.23-1.48c-.43-.33-1.22,0-1.19.51" style="fill:#f4f3f4"/><path d="M64.37,107.68l1.88-.69a2,2,0,0,0,.94-.57c.24-.32.3-.86,0-1a.8.8,0,0,0-.43,0l-1.62.42a2.79,2.79,0,0,0-1.12.49,1.32,1.32,0,0,0-.51,1.19.48.48,0,0,0,.89,0" style="fill:#67a886"/><path d="M90.46,111.48l-1-2.48a2.31,2.31,0,0,0-.78-1.16c-.4-.25-1-.14-1.17.32a1.07,1.07,0,0,0,.06.61l.67,2.2a3.52,3.52,0,0,0,.69,1.46,1.21,1.21,0,0,0,1.47.32c.46-.28.47-1.13,0-1.29" style="fill:#f4f3f4"/><path d="M91.35,103.26l2.77,1.83a3.12,3.12,0,0,0,1.14.53,1,1,0,0,0,1.1-.44c.32-.59-.22-1.27-.73-1.7a17.78,17.78,0,0,0-2.51-1.73,1.51,1.51,0,0,0-1.3-.25c-.68.31-.57,1.28-.35,2h.35" style="fill:#f4f3f4"/><path d="M83.51,106.62l-2,1.75a2.48,2.48,0,0,0-.65.76.83.83,0,0,0,.1.94c.39.37,1,.1,1.47-.2a13.32,13.32,0,0,0,1.86-1.57,1.21,1.21,0,0,0,.47-1c-.09-.58-.87-.7-1.46-.69l-.07.28" style="fill:#67a886"/><path d="M65.28,112.21l-2.83,1.72a3.05,3.05,0,0,0-1,.8,1,1,0,0,0-.07,1.18c.39.54,1.24.35,1.85.07a17.72,17.72,0,0,0,2.64-1.52c.37-.27.78-.61.78-1.07,0-.74-.91-1.06-1.64-1.17l-.15.32" style="fill:#f4f3f4"/><path d="M71.62,98.21a2.26,2.26,0,0,0-.57.67.77.77,0,0,0,.06.84c.29.33.83.22,1.23,0a7.42,7.42,0,0,0,2.45-1.69,1,1,0,0,0,.24-.37.64.64,0,0,0-.3-.66C73.61,96.3,72.4,97.51,71.62,98.21Z" style="fill:#a4daf0"/><path d="M75,107.82a2.35,2.35,0,0,0-.88.05.79.79,0,0,0-.57.62c0,.44.41.76.81.93a7.18,7.18,0,0,0,2.91.62.93.93,0,0,0,.44-.08.63.63,0,0,0,.27-.68C77.74,108,76,107.91,75,107.82Z" style="fill:#a4daf0"/><path d="M88,103.83a2.16,2.16,0,0,0-.88,0,.8.8,0,0,0-.57.62c0,.44.41.76.81.94a7.3,7.3,0,0,0,2.91.61.93.93,0,0,0,.44-.08.62.62,0,0,0,.27-.67C90.7,104,89,103.91,88,103.83Z" style="fill:#a4daf0"/><path d="M204.67,11.9a5.14,5.14,0,0,0-7.24-1.28L169.71,30.09a4.46,4.46,0,0,1,2.17,2.33,4.65,4.65,0,0,1-.76,4.74,4,4,0,0,1,2.22,2.21,4.22,4.22,0,0,1-2.27,5.45,4.09,4.09,0,0,1-1.87.32,4.24,4.24,0,0,1,.43.82A4.7,4.7,0,0,1,167.1,52l-.31.11,18,26.12L225.64,43Z" style="fill:#874e3a"/><path d="M191.32,16.52,208,41.2" style="fill:none;stroke:#5c2011;stroke-linecap:round;stroke-linejoin:round;stroke-width:1.19646316847017px"/><path d="M174.11,39.05l13.61,20.11" style="fill:none;stroke:#5c2011;stroke-linecap:round;stroke-linejoin:round;stroke-width:1.19646316847017px"/><path d="M180.49,24.3,198.3,50.62" style="fill:none;stroke:#5c2011;stroke-linecap:round;stroke-linejoin:round;stroke-width:1.19646316847017px"/><line x1="208.68" y1="21.37" x2="170.09" y2="50.77" style="fill:none;stroke:#5c2011;stroke-linecap:round;stroke-linejoin:round;stroke-width:1.19646316847017px"/><path d="M250.89,84.29,210.5,111.94a2.1,2.1,0,0,1-2.92-.53L184.29,77a2.13,2.13,0,0,1,.59-2.95l40.24-27.33a2.08,2.08,0,0,1,2.9.52l23.44,34.1A2.14,2.14,0,0,1,250.89,84.29Z" style="fill:#d8c4e5"/><path d="M218.67,32.56,178.31,69.69a1.65,1.65,0,0,0-.3,2.07L192.8,96a1.65,1.65,0,0,0,3-.53,16.49,16.49,0,0,0,.27-1.66c.45-4.23,1.7-21.24,2.46-21.29s8.92,2,10.61,1c1-.61,1.92-3.78,2.48-6.18a1.64,1.64,0,0,1,2.66-.91c1.83,1.57,4.38,3.48,5.5,3,1.35-.57,1.36-8,1.26-12.06a1.66,1.66,0,0,1,2.19-1.61c1.27.42,2.7.74,3.27.27s.6-1.5.57-2.58a1.67,1.67,0,0,1,2.19-1.65c2.22.79,5.25,1.63,6.11.75,1.18-1.21-10.65-15.44-14.36-19.83A1.61,1.61,0,0,0,218.67,32.56Z" style="fill:#f4f3f4"/><path d="M203.31,88.54a4,4,0,0,1,1-5.41,3.21,3.21,0,0,1,2.46-.64,5.16,5.16,0,0,1,2.68,1.91c.36.44,1-.19.63-.62-1.2-1.48-3-2.67-5-2a4.84,4.84,0,0,0-3.28,4,5.11,5.11,0,0,0,.71,3.24c.29.48,1.06,0,.76-.45Z" style="fill:#443f3b"/><path d="M225.77,72.6a4,4,0,0,1,1-5.41,3.17,3.17,0,0,1,2.46-.64,5.18,5.18,0,0,1,2.68,1.91c.36.44,1-.19.62-.63-1.2-1.47-3-2.66-5-2a4.88,4.88,0,0,0-3.29,4A5.15,5.15,0,0,0,225,73a.44.44,0,0,0,.76-.44Z" style="fill:#443f3b"/><path d="M219.23,83a1.92,1.92,0,0,0,.06,1.43,4.8,4.8,0,0,0,.83,1.27,3.13,3.13,0,0,0,1.36,1.07,1.71,1.71,0,0,0,2.06-1.14A3.11,3.11,0,0,0,223,83,2.71,2.71,0,0,0,222,82a1.86,1.86,0,0,0-1.63,0,2.25,2.25,0,0,0-1.16,1.13" style="fill:#443f3b"/><path d="M204.25,93.75a2.19,2.19,0,0,0,0,1,1.63,1.63,0,0,0,1.49,1,3.15,3.15,0,0,0,1.81-.59,6.44,6.44,0,0,0,1.67-1.54,1.89,1.89,0,0,0,.37-.7,1.55,1.55,0,0,0-.26-1.16C207.76,89.55,204.7,91.74,204.25,93.75Z" style="fill:#d891b5"/><path d="M233.29,73.79a2,2,0,0,0,.06,1,1.59,1.59,0,0,0,1.55.92,3.18,3.18,0,0,0,1.77-.7,6.32,6.32,0,0,0,1.57-1.65,1.94,1.94,0,0,0,.32-.72,1.46,1.46,0,0,0-.34-1.13C236.52,69.37,233.61,71.75,233.29,73.79Z" style="fill:#d891b5"/><line x1="177.36" y1="64.84" x2="207.16" y2="42.21" style="fill:none;stroke:#5c2011;stroke-linecap:round;stroke-linejoin:round;stroke-width:1.19646316847017px"/><path d="M345.61,16.8c-.21-.22-.68-.52-.87-.77-1-1.39-3-2-4.47-2.61-3.9-1.71-8.15-3.15-12.49-2.51.33.17.7.31.85.61-.91.44-2.69.21-3.72.52-2.14.64-4.86,1.78-6.41,3.45.12,0,.31,0,.44,0a15.54,15.54,0,0,1-2.37,3.13c-.83,1-3.13,3.58-2.88,4.9.44-.21.76-.6,1.2-.81-.21,1.77-1.73,3.65-2.33,5.32a15.74,15.74,0,0,0-.86,3.77c0,.33-.28,1.53-.07,1.81s.74.15,1.26.15a11,11,0,0,1,3.68.87,32.94,32.94,0,0,0,4.72,1.08,7.89,7.89,0,0,0,6.35-1c.76-.54,2.45-2.55,3.61-2.34.72.13.86.84,1.66.89,1.57.11,4-2,4.92-3,1.06-1.19,3.15-3.86,3.48-4,.6-.26.49.44,1.05,0a7.79,7.79,0,0,0,2-3.1C345,21.79,346.14,17.47,345.61,16.8Z" style="fill:#8caf76"/><path d="M352.34,15.38a12.49,12.49,0,0,1-3.17.65c-2.45.3-4.9.65-7.32,1.17a54.43,54.43,0,0,0-26.47,14.29A35.72,35.72,0,0,1,322.76,26c7-4.26,14.62-8,22.8-8.45,1.29-.06,2.58,0,3.86-.14a19.72,19.72,0,0,0,3.15-.52,2.26,2.26,0,0,0,1.52-.9c.2-.36.12-1.12-.34-1.26S352.69,15.24,352.34,15.38Z" style="fill:#9fbf9f"/><path d="M370.51,45.68c-.13,0,0,.23.09.17s.1-.22.08-.35a45.22,45.22,0,0,0-1.05-4.72c-1.49-5.1-4.4-9.67-7.47-14-2.31-3.27-4.64-6.36-8.29-8a28,28,0,0,1,.21,5.49c-.12,4.3-.26,8.66-1.49,12.78s-3.67,8.06-7.42,10.16c-.35-.33-.63-.89-1-1.23a11.76,11.76,0,0,0,3.13-2.88c4-5.09,4.82-11.93,4.7-18.37a37.85,37.85,0,0,0-.37-5,25,25,0,0,0-1-4.1l1.46-1.09a49.56,49.56,0,0,1,21.41,32.33C372.6,47,370.88,46.55,370.51,45.68Z" style="fill:#8caf76"/><path d="M350.58,65.57a21,21,0,0,1-14.09,5c-.22-.17-1.12-.12-1.59-.29a16.83,16.83,0,0,1-2.54-.85c-.79-.44-1.49-1-2.29-1.45-1.25-.65-2.7-.87-3.9-1.62a8,8,0,0,1-2.06-2A17.26,17.26,0,0,1,321,57.2a18,18,0,0,1-.11-5.63,15.93,15.93,0,0,1,5.14-9.75,13.21,13.21,0,0,1,10.44-3.18,7.75,7.75,0,0,1,5,2.62c.68.87,1.09,1.93,1.75,2.81a5.21,5.21,0,0,0,3.05,2,10.61,10.61,0,0,1,6.76,4.73,10.44,10.44,0,0,1,1.11,8,19.48,19.48,0,0,1-1.4,3.85A9.38,9.38,0,0,1,350.58,65.57Z" style="fill:#f6b8c8"/><path d="M353.06,50.82a10.61,10.61,0,0,0-6.76-4.73,5.21,5.21,0,0,1-3.05-2c-.66-.88-1.07-1.94-1.75-2.81a7.75,7.75,0,0,0-5-2.62,12.1,12.1,0,0,0-2.33-.12l.5.22a5.79,5.79,0,0,1,2.17,1.79A9.42,9.42,0,0,1,338.07,43c.17.45.32.91.46,1.36s.31,1,.52,1.54a7.67,7.67,0,0,0,1.8,2.46c.73.7,1.54,1.32,2.28,2a12.66,12.66,0,0,1,1.07,1.13,8.29,8.29,0,0,1,.93,1.47A22.38,22.38,0,0,0,347,56.32a16.31,16.31,0,0,1,1.87,3,10.38,10.38,0,0,1,.62,1.69c.17.64.37,1.26.54,1.9a8.72,8.72,0,0,1,.33,2.91l.26-.2a9.38,9.38,0,0,0,2.19-2.91,19.48,19.48,0,0,0,1.4-3.85A10.44,10.44,0,0,0,353.06,50.82Z" style="fill:#fae1e6"/><path d="M389.15,47.19a10,10,0,0,0-5.42-4.47,15.36,15.36,0,0,0-2.27-.57,9.08,9.08,0,0,0-3.17.1c-1.85.38-3.49,1.43-5.32,1.84a36.06,36.06,0,0,1-5.31.31c-3,.22-6.07,1.6-7.53,4.22a10.09,10.09,0,0,0-1.07,4.08,18.55,18.55,0,0,0,4.27,13.17A12.88,12.88,0,0,0,367,69c.57.3,1,.68,1.6,1a14.91,14.91,0,0,0,1.57.57,8,8,0,0,0,5.75.17,12.14,12.14,0,0,1,2.87-1,13.2,13.2,0,0,1,1.88.08A8.62,8.62,0,0,0,387.19,67a14.11,14.11,0,0,0,3.33-6.38,21.08,21.08,0,0,0,.61-6.57A15.27,15.27,0,0,0,389.15,47.19Z" style="fill:#f6b8c8"/><path d="M342.53,52.29a4.21,4.21,0,0,1,1.87-.64,4.47,4.47,0,0,1,1.46,0,3.3,3.3,0,0,1,2.28,2,4.55,4.55,0,0,1-.53,4.51,3,3,0,0,1-1.17,1,1.8,1.8,0,0,1-1.57,0c-.62-.36-.79-1.09-1.15-1.68a20,20,0,0,0-1.51-1.7A2.46,2.46,0,0,1,342.53,52.29Z" style="fill:#fff;opacity:0.48"/><path d="M377.93,48a5.2,5.2,0,0,1,2-1.43,5.43,5.43,0,0,1,1.75-.52,4.14,4.14,0,0,1,3.42,1.68,6,6,0,0,1,.91,5.75,3.6,3.6,0,0,1-1.07,1.6,2.19,2.19,0,0,1-1.89.49c-.88-.24-1.33-1.09-2-1.69a25.09,25.09,0,0,0-2.41-1.59A3.22,3.22,0,0,1,377.93,48Z" style="fill:#fff;opacity:0.48"/><path d="M351.72,18.7c-.24-.25-.27-.87-.39-1.22a27,27,0,0,0-1.27-3.11c-.22-.45-.3-.53.05-.92A22,22,0,0,1,352,11.63c.2-.17.15-.19.36-.12s.59.92.74,1.17c.54.89.94,1.79,1.4,2.72a18.64,18.64,0,0,0,1.05,1.71,2.64,2.64,0,0,1,.43.76c-.25,0-.52-.16-.77-.22a13.67,13.67,0,0,0-1.45-.19C353.08,17.36,351.75,17.33,351.72,18.7Z" style="fill:#8caf76"/><path d="M331.77,68.82s0,.13,0,.06a19.66,19.66,0,0,0-2-3c-1.2-1.29-2.86-1.73-3.59-3.52s-.3-3.59-.84-5.35-1.86-3.5-2.28-5.41a9.84,9.84,0,0,1,1.87-7.64c.76-1.09,2.05-1.85,2.72-3-.31-.18-1.05.4-1.32.57a8.51,8.51,0,0,0-2.14,2.37A19.48,19.48,0,0,0,321,49.81a16.22,16.22,0,0,0,.08,9.11,19.74,19.74,0,0,0,2.38,4.72,7.59,7.59,0,0,0,2.73,2.7c.95.41,2,.22,2.92.83C330.22,67.9,330.89,69,331.77,68.82Z" style="fill:#f087ad"/><path d="M324.84,53.29c-.29.24-.07.74.09,1,.5,0,.64-.87.34-1.19-.23,0-.28.17-.31.37" style="fill:#f087ad"/><path d="M324.23,50.22c-.63-.39-.56.67.06.6s.66-1,.08-1" style="fill:#f087ad"/><path d="M326.75,49.2c-.13.22-.33,1.53.18,1.08a.6.6,0,0,0-.1-.85c-.27-.17-.64.09-.86.24" style="fill:#f087ad"/><path d="M325.33,45.78c-.34,0-.34.33-.08.52.32-.12.32-.44.15-.71" style="fill:#f087ad"/><path d="M326.7,43.56a.31.31,0,0,0-.15.57c.33.22.75-.22.27-.44" style="fill:#f087ad"/><path d="M323.43,47c-.35.28-.2.93.32.82,1.13-.26-.55-1.67-.46-.45" style="fill:#f087ad"/><path d="M323.51,54.75c-.07.15.15.64.47.54s0-1.13-.48-.75a.83.83,0,0,0,.18.47" style="fill:#f087ad"/><path d="M325.46,56.3c0,.12.17.67.49.65s.05-.68-.37-.52" style="fill:#f087ad"/><path d="M325.07,59.2c-.09.26.38.82.75.67a.7.7,0,0,0-.68-.82.32.32,0,0,0,0,.34" style="fill:#f087ad"/><path d="M328,60c-.36.14.13.85.48.76.94-.25-1-1.75-.62-.58" style="fill:#f087ad"/><path d="M327.9,63.7c-.08,0-.13,0-.15.12.25.24.65.49.95.25a.73.73,0,0,0-.79-.62.32.32,0,0,0,.18.26" style="fill:#f087ad"/><path d="M330.35,64c-.4.2.4.71.67.71a.87.87,0,0,0-.72-.9" style="fill:#f087ad"/><path d="M331.23,66.9a1,1,0,0,0-.18,0c.45,1,1.46-.59.21-.41a.45.45,0,0,0,0,.34" style="fill:#f087ad"/><path d="M333.65,66.7a1.2,1.2,0,0,0-.19,0,1.18,1.18,0,0,0,.85.69,1,1,0,0,0-.85-.7" style="fill:#f087ad"/><path d="M365.13,67.38a3.91,3.91,0,0,0-.69-1.78,18.55,18.55,0,0,1-1.9-5.18c-.43-2.81,1.49-4.84,2.09-7.48.53-2.31.95-4.73,2.61-6.52a10.5,10.5,0,0,1,2.6-2.06,5.08,5.08,0,0,0-2.36,0,12.67,12.67,0,0,0-2.88.57,10.82,10.82,0,0,0-5,4.61c-1.68,3.75-.42,7.82.86,11.44a12.71,12.71,0,0,0,2.38,4.17C363.71,66.2,364.9,66.92,365.13,67.38Z" style="fill:#fae1e6"/><path d="M380.36,69.52c.49.37,1.35-.67,1.64-1,1.06-1.39,2-2,2.41-3.62.82-3,3.53-4.38,4.36-7.41a18.71,18.71,0,0,0,.38-8.09c-.32-1.63-1.54-3.27-2.18-4.75a12.87,12.87,0,0,1,3.44,5.46,16.48,16.48,0,0,1,.7,8.63c-.68,2.89-1.48,6.08-3.75,8.15a10.93,10.93,0,0,1-2.07,1.5C384.45,68.88,381.21,70.43,380.36,69.52Z" style="fill:#f087ad"/><path d="M382.57,66.19c-.22.16-.58.6-.36.88.41.53.54-.75.49-1a.73.73,0,0,0-.3.39" style="fill:#f087ad"/><path d="M382.64,63.88c-.33,0-.32.58-.08.7s.55-1.09-.07-.79" style="fill:#f087ad"/><path d="M380.9,64.11c-.24,0-.52.56-.36.76.32.39.67-.54.51-.84-.05,0-.27.07-.23,0" style="fill:#f087ad"/><path d="M382.12,60.79c-.38,0-.69.78-.32.93s.55-.57.19-.74" style="fill:#f087ad"/><path d="M383.8,59.22c-.31-.31-.57.66-.43,1,.39.77,1.07-.31.78-.78" style="fill:#f087ad"/><path d="M383.38,57.43c-.28-.17-.69.41-.57.64.2.38.62-.11.57-.42a.32.32,0,0,0-.17,0" style="fill:#f087ad"/><path d="M385.16,57.05s0-.08-.05-.1c-.37.11-.49,1,0,.77s-.06-1-.13-.45" style="fill:#f087ad"/><path d="M386.84,56.57c-.47-.1-.73,1-.31,1.13s.64-.84.26-1" style="fill:#f087ad"/><path d="M387.7,54.06a.09.09,0,0,0-.11-.05c-.19.19-.46.76-.13.92a.9.9,0,0,0,0-.8" style="fill:#f087ad"/><path d="M389.09,51.22c-.31,0-.5.92-.24,1.18.39-.21.67-1.38,0-1.42" style="fill:#f087ad"/><path d="M387.87,48.81c-.22.16-.5,1.1,0,.84.23-.13.17-.84-.08-.73" style="fill:#f087ad"/><path d="M386,45.11s.21.83.55.91c.16-.27-.08-.7-.23-.94" style="fill:#f087ad"/><path d="M387,46.92a.42.42,0,0,0,.33.54c.23-.22,0-.89-.32-.81" style="fill:#f087ad"/><path d="M389,47.8c-.47-.3-.65.57-.41.86.43.53.43-.44.09-.68" style="fill:#f087ad"/><path d="M325,53.43a2.34,2.34,0,0,1,2.92-.85A2,2,0,0,1,329,53.71a2.83,2.83,0,0,1-.33,2c-.15.29.3.56.44.26a3.4,3.4,0,0,0,.39-2.35,2.42,2.42,0,0,0-1.3-1.47,2.84,2.84,0,0,0-3.61,1c-.19.27.26.53.44.26Z" style="fill:#443f3b"/><path d="M338.73,61.56a2.32,2.32,0,0,1,2.91-.84,2,2,0,0,1,1.06,1.13,2.87,2.87,0,0,1-.33,2c-.15.3.29.56.44.26a3.4,3.4,0,0,0,.39-2.35,2.45,2.45,0,0,0-1.3-1.47,2.85,2.85,0,0,0-3.61,1c-.19.27.25.53.44.26Z" style="fill:#443f3b"/><path d="M331.69,60.6A1.11,1.11,0,0,0,331,61a2.91,2.91,0,0,0-.48.75,1.94,1.94,0,0,0-.25,1,1,1,0,0,0,1.09.82,1.83,1.83,0,0,0,1.27-.9,1.68,1.68,0,0,0,.28-.83,1.07,1.07,0,0,0-.4-.86,1.32,1.32,0,0,0-.86-.35" style="fill:#443f3b"/><path d="M377.31,62.67a1.09,1.09,0,0,0-.32.77,2.66,2.66,0,0,0,.11.88,1.76,1.76,0,0,0,.44.92,1,1,0,0,0,1.36-.06,1.81,1.81,0,0,0,.4-1.5,1.71,1.71,0,0,0-.31-.82,1.11,1.11,0,0,0-.86-.41,1.31,1.31,0,0,0-.89.29" style="fill:#443f3b"/><path d="M366.53,60.46a7.14,7.14,0,0,1,5.66,1.36v-.34a4.47,4.47,0,0,1-1.07.29,7.18,7.18,0,0,0-1.09.33,7.43,7.43,0,0,0-1.9,1.07c-.2.16,0,.5.21.35a7.29,7.29,0,0,1,2-1.11,16.31,16.31,0,0,0,2.07-.59.2.2,0,0,0,0-.34,7.48,7.48,0,0,0-6-1.4c-.25.05-.15.43.11.38Z" style="fill:#443f3b"/><path d="M386.41,56.67A7.25,7.25,0,0,0,382.27,60c-.11.19.16.42.31.24a3.17,3.17,0,0,1,2.07-.9c.89-.1,1.79-.09,2.69-.12.26,0,.26-.41,0-.4a25.31,25.31,0,0,0-2.89.15,3.4,3.4,0,0,0-2.15,1l.31.24a7,7,0,0,1,3.91-3.15c.24-.07.14-.46-.11-.38Z" style="fill:#443f3b"/><path d="M49.4,37.43c-.43,1.19-2.16,11.5,2.87,18.36,4.65,6.34,12.61,15.43,39.47,19s40.33-5.25,44.33-9.55,8.13-14.4,5.63-21.44-47-23.48-69.79-18.61S49.4,37.43,49.4,37.43Z" style="fill:#f0d1a6;opacity:0.6900000000000001"/><path d="M137.82,47.43a5.75,5.75,0,0,0,3.88-3.64,10.8,10.8,0,0,0,.36-5.42,21.42,21.42,0,0,0-9.5-14.52c-4.93-3.18-10.91-4.25-16.51-6.05-7.75-2.48-15.4-6.49-23.48-5.85-4,.31-7.8,1.77-11.65,2.85-6.66,1.87-13.72,2.65-20,5.49a25,25,0,0,0-5.23,3.18c-4.11,3.27-11.4,13.8-2.52,16.18,2.25.6,4.73.57,6.75,1.74,3.55,2,4.18,6.79,6.78,9.91S73.43,55.57,77.4,56s8,.33,11.9,1.41c2.2.61,4.27,1.6,6.45,2.28a23.86,23.86,0,0,0,16.59-.89c3.47-1.53,7-4,10.71-3.16,2.47.53,4.84,2.46,7.24,1.74a5,5,0,0,0,3-3.23c.53-1.42.72-2.94,1.23-4.36a3.37,3.37,0,0,1,1.4-1.91A7.54,7.54,0,0,1,137.82,47.43Zm-24.93-5.11a30.29,30.29,0,0,1-10.18,3.35A23.2,23.2,0,0,1,98.3,46c-3.28-.15-6.42-1.33-9.49-2.5a32.72,32.72,0,0,1-3.94-1.7,20.1,20.1,0,0,1-6.27-5c-1.69-2.27,1.74-3.47,3.68-3.27,2.1.22,4,1.69,6.08,1.72s3.7-1.2,5.52-1.94A11.55,11.55,0,0,1,99,32.45a6.35,6.35,0,0,1,2.23.5c2,.94,3,3.33,4.89,4.56,2.2,1.43,5.33,1.09,7.3,2.81a1.31,1.31,0,0,1,.46.67C114,41.57,113.41,42,112.89,42.32Z" style="fill:#f087ad"/><path d="M106.75,44.51c.55-.27.17-1.24-.23-1.72a3.36,3.36,0,0,0-1.18-.81,34.88,34.88,0,0,0-18.76-3.09,5.76,5.76,0,0,0-3.77,1.48S96.43,49.56,106.75,44.51Z" style="fill:#fff"/><path d="M63.61,34.26a.47.47,0,0,1,.14-.3.44.44,0,0,1,.3-.07,28.41,28.41,0,0,1,5,.16,3,3,0,0,1,1.07.32,1.09,1.09,0,0,1,.58.9,1.05,1.05,0,0,1-.67.88,3.14,3.14,0,0,1-1.18.19,28.28,28.28,0,0,1-5.26-.54C63.07,35.69,63.55,34.63,63.61,34.26Z" style="fill:#f087ad"/><path d="M116.62,26.09a.56.56,0,0,1,.12-.31.44.44,0,0,1,.25-.08,21.35,21.35,0,0,1,4.23,0,2.13,2.13,0,0,1,.89.29,1,1,0,0,1,.46.87,1.11,1.11,0,0,1-.59.9,2,2,0,0,1-1,.22,20.28,20.28,0,0,1-4.4-.37C116.11,27.53,116.55,26.46,116.62,26.09Z" style="fill:#a4daf0"/><path d="M72.28,42.72a3.17,3.17,0,0,1,1.84-.83,3.25,3.25,0,0,1,2.19,1.48c-.9.39-1.36,1.41-2.27,1.78a2.52,2.52,0,0,1-1.81-.06C70.24,44.35,71,43.68,72.28,42.72Z" style="fill:#d3e6d4"/><path d="M100.21,18.07a.52.52,0,0,1,.27-.05.51.51,0,0,1,.23.12c.51.4,1,.81,1.48,1.23.16.14.33.35.22.52a.51.51,0,0,1-.24.16,7.94,7.94,0,0,0-1.86,1.62A9.11,9.11,0,0,1,98,23.06a2.15,2.15,0,0,1-.89.27,1.94,1.94,0,0,1-.92-.28,7.14,7.14,0,0,1-1.34-.9c-1-.85,1-1.69,1.69-2.14A19.84,19.84,0,0,1,100.21,18.07Z" style="fill:#d3e6d4"/><path d="M127.3,32.35a.44.44,0,0,1,.31-.18.53.53,0,0,1,.3.09,14.26,14.26,0,0,1,4,2.93,2.36,2.36,0,0,1,.6.93.81.81,0,0,1-.3.93c-.54.35-1.36,0-2-.33a13.2,13.2,0,0,1-2.77-2.1C126.43,33.55,126.39,33.3,127.3,32.35Z" style="fill:#d3e6d4"/><path d="M122,44.49a2.58,2.58,0,0,0-1.11.2.87.87,0,0,0-.51.91c.13.58.9.72,1.51.81,1.84.27,3.53,1.25,5.38,1.53a.76.76,0,0,0,.63-.1.74.74,0,0,0,.17-.37C128.61,44.32,124,44.47,122,44.49Z" style="fill:#f087ad"/><path d="M107.88,49.86a1.68,1.68,0,0,0-.81.37,1.8,1.8,0,0,0-.16,1.7,25.79,25.79,0,0,0,3.57.67,26.64,26.64,0,0,0,4.64.16.6.6,0,0,0,.35-.1.52.52,0,0,0,.16-.36C116.34,47.57,110.42,49.23,107.88,49.86Z" style="fill:#a4daf0"/><path d="M84.72,48.12a13.48,13.48,0,0,0,2.48,2.41,14.35,14.35,0,0,0,4.62,1.8.79.79,0,0,0,.37,0,.64.64,0,0,0,.32-.31,1.15,1.15,0,0,0,.25-1,1.24,1.24,0,0,0-.56-.5L87.71,48a4.54,4.54,0,0,0-2-.83C85.37,47.18,84.34,47.68,84.72,48.12Z" style="fill:#f087ad"/><path d="M84.16,22.33a.53.53,0,0,1,.3.12.5.5,0,0,1,.11.4,1.66,1.66,0,0,1-.5,1.45,1.74,1.74,0,0,1-1,.18c-1.62-.06-6.37.51-6.6-1.56C76.22,21,78,21.59,79.3,21.7Q81.75,21.89,84.16,22.33Z" style="fill:#a4daf0"/><path d="M103.65,25.31a3.33,3.33,0,0,1,.75-1.41,8,8,0,0,1,2.28.8.74.74,0,0,1,.31.24.78.78,0,0,1,.08.48,1.45,1.45,0,0,1-.49,1.21,1.26,1.26,0,0,1-.92.07,3.42,3.42,0,0,1-2.16-1.52" style="fill:#fdcf08"/><path d="M73.52,29.72c-.15.14-.33-.14-.33-.34l0-1a.37.37,0,0,1,0-.24.39.39,0,0,1,.21-.11l1-.24a2.75,2.75,0,0,1,1.27-.1.92.92,0,0,1,.77.88c0,.48-.58.74-1.06.87a8.38,8.38,0,0,1-1.72.3" style="fill:#fdcf08"/><path d="M118.06,38l.68-1a6.16,6.16,0,0,1,2.85,1.28.78.78,0,0,1,.25.29.77.77,0,0,1,0,.45l-.17.85a.45.45,0,0,1-.12.27.51.51,0,0,1-.44,0,8.53,8.53,0,0,1-3.11-1.6" style="fill:#fdcf08"/><path d="M96.75,55.26a8.94,8.94,0,0,1,.36-1.63.57.57,0,0,1,.16-.27.6.6,0,0,1,.38-.06,6.32,6.32,0,0,1,1.76.44.63.63,0,0,1,.34.23.69.69,0,0,1,.06.47l-.14,1.23a.49.49,0,0,1-.11.31.44.44,0,0,1-.3.08,3.5,3.5,0,0,1-2.17-.66" style="fill:#fdcf08"/><path d="M77.93,62.21a2.77,2.77,0,0,1,2.53-2.28,4.35,4.35,0,0,1,1,.07,2,2,0,0,1,1.15.5,1.85,1.85,0,0,1,.33.6,3.64,3.64,0,0,1,.14,2s0,.08,0,.09,0-.06,0,0" style="fill:none;stroke:#443f3b;stroke-linecap:round;stroke-linejoin:round;stroke-width:0.719365750112581px"/><path d="M97.5,66.73a2.67,2.67,0,0,1,2.1-2.61,4,4,0,0,1,1.33,0,2.61,2.61,0,0,1,1.1.37,1.93,1.93,0,0,1,.74,1.48,5.45,5.45,0,0,1-.24,1.65" style="fill:none;stroke:#443f3b;stroke-linecap:round;stroke-linejoin:round;stroke-width:0.719365750112581px"/><path d="M87.11,65.61a2.56,2.56,0,0,0,0,1.29,1.23,1.23,0,0,0,.81,1,1.9,1.9,0,0,0,1-.15,1.83,1.83,0,0,1,1.8.27,3.56,3.56,0,0,0,.42.45.83.83,0,0,0,.32.13,1.23,1.23,0,0,0,1.1-.32,2.5,2.5,0,0,0,.56-1.35" style="fill:none;stroke:#443f3b;stroke-linecap:round;stroke-linejoin:round;stroke-width:0.719365750112581px"/><path d="M102.67,70.88a2.28,2.28,0,0,0,.94-.06.94.94,0,0,0,.65-.6.91.91,0,0,0-.22-.84c-.62-.7-2.23-1-2.81-.14S101.85,70.81,102.67,70.88Z" style="fill:#f087ad"/><path d="M77.08,65.59a2.48,2.48,0,0,0,.94-.06,1,1,0,0,0,.65-.61.93.93,0,0,0-.23-.83c-.61-.7-2.22-1-2.8-.14S76.25,65.52,77.08,65.59Z" style="fill:#f087ad"/><path d="M349.39,84.74a27.11,27.11,0,0,0-5.35,0c-4.48.57-7.74,1.35-11.05,4.44a16.69,16.69,0,0,0-4.46,7.63,19.51,19.51,0,0,0,.58,12.8,17.73,17.73,0,0,0,17.73,10.85,20.23,20.23,0,0,0,7.13-2,14.39,14.39,0,0,0,4.48-3.14,15,15,0,0,0,2.55-4.08,27.44,27.44,0,0,0,2.41-10.35,15,15,0,0,0-1.26-7.08A16.39,16.39,0,0,0,358.46,89c-2.68-2.37-5-3.87-9.07-4.22" style="fill:#d4ecf5"/><path d="M329.93,92.59a17.77,17.77,0,0,0-7.81-5.25,8.33,8.33,0,0,0-4.33-.43,4.06,4.06,0,0,0-3.14,2.74,4.64,4.64,0,0,0,.57,3.22c.52,1,1.23,1.85,1.82,2.79a1.53,1.53,0,0,1,.29.81c0,.5-.49.84-.89,1.15a6.27,6.27,0,0,0-2.37,3.26,3.82,3.82,0,0,0,1,3.78,6.52,6.52,0,0,0,3.09,1.22c.37.08.82.24.87.62a1,1,0,0,1-.12.46c-.72,1.67-1.33,3.68-.35,5.21a3.69,3.69,0,0,0,3.36,1.49,6.28,6.28,0,0,0,3.46-1.57,9.87,9.87,0,0,0,2.73-3.67" style="fill:#a4daf0"/><path d="M363.68,97.62c-.28-.13-.17-.56,0-.83a14.58,14.58,0,0,1,6.92-5.89,8.08,8.08,0,0,1,5.65-.45,4.35,4.35,0,0,1,3.06,4.37c-.32,2.48-3.11,3.87-4.1,6.17a1.85,1.85,0,0,0-.15,1.32,2.7,2.7,0,0,0,.53.81,4.68,4.68,0,0,1,1.16,2.74,2.72,2.72,0,0,1-1.34,2.53,8.93,8.93,0,0,0-1.34.59,2.62,2.62,0,0,0-.73,2.54,7.56,7.56,0,0,1,.19,2.75,3.2,3.2,0,0,1-2.79,2.23,5.93,5.93,0,0,1-3.62-1,10.39,10.39,0,0,1-4.8-6.86" style="fill:#a4daf0"/><path d="M318.55,86.66c-1.61,2.48-.51,4.75,1.1,6.87,1.2,1.58,2.12,3.3.63,5a7.83,7.83,0,0,0-1.82,2.35c-.81,2.35,1.71,3.15,2.87,4.6s.36,3.21.47,4.8a3.49,3.49,0,0,0,1.4,2.78c.56.41,1.09-.52.54-.93-1.29-.94-.81-2.81-.74-4.15a4.47,4.47,0,0,0-.67-3,12.5,12.5,0,0,0-2.11-1.87c-1.2-1.07-.81-2.12.17-3.16,1.39-1.49,2.31-2.89,1.45-5-1.1-2.66-4.41-4.68-2.36-7.83.37-.59-.56-1.13-.93-.55Z" style="fill:#32a4ae"/><path d="M373.24,90.9a3.28,3.28,0,0,1,1.43,3.4,7,7,0,0,1-2,3.42,7.92,7.92,0,0,0-1.47,2.53,6.75,6.75,0,0,0-.6,2.89c.13.88,1,1.32,1.22,2.13.38,1.37-1.05,2.56-1.76,3.53-1.37,1.86-1,5.08-3,6.34-.59.36-.05,1.3.54.93,2.47-1.51,1.89-4.79,3.54-6.89a6.81,6.81,0,0,0,1.78-3c.18-1.23-.48-1.72-1-2.68s.45-3.45,1.11-4.41c.81-1.16,1.86-2,2.4-3.37A4.56,4.56,0,0,0,373.78,90c-.59-.37-1.13.56-.54.93Z" style="fill:#32a4ae"/><path d="M345.59,101.65c-.11-5.42.82-11.72,5.11-15.49.52-.45-.25-1.21-.76-.76-4.5,3.95-5.54,10.56-5.42,16.25a.54.54,0,0,0,1.07,0Z" style="fill:#32a4ae"/><path d="M353.61,118.37a19.91,19.91,0,0,1-6.4-8.54c-.26-.64-1.3-.36-1,.28a21.21,21.21,0,0,0,6.9,9.18c.55.42,1.09-.51.54-.92Z" style="fill:#32a4ae"/><path d="M333.43,99.23a32.07,32.07,0,0,1,3.34-12c.31-.61-.61-1.16-.93-.54a33.47,33.47,0,0,0-3.49,12.5c-.06.69,1,.69,1.08,0Z" style="fill:#32a4ae"/><path d="M339.81,119.1a27,27,0,0,1-6.41-12.51c-.15-.67-1.19-.39-1,.29a28.22,28.22,0,0,0,6.69,13c.47.52,1.23-.25.76-.76Z" style="fill:#32a4ae"/><path d="M360.3,112.56a23.1,23.1,0,0,1-1.82-2.47,14.76,14.76,0,0,1-1.29-2.76.56.56,0,0,0-.66-.38.54.54,0,0,0-.38.66,16,16,0,0,0,1.41,3,23.56,23.56,0,0,0,2,2.69.55.55,0,0,0,.76,0,.56.56,0,0,0,0-.76Z" style="fill:#32a4ae"/><path d="M356.21,99.73a20.08,20.08,0,0,1,.94-4.61,8.92,8.92,0,0,1,2.41-3.5c.48-.49-.28-1.25-.76-.76a10,10,0,0,0-2.64,3.83,21.7,21.7,0,0,0-1,5c-.06.69,1,.69,1.08,0Z" style="fill:#32a4ae"/><path d="M329.58,104.76a.9.9,0,0,0,.48,1,1.29,1.29,0,0,0,1.19-.07.9.9,0,0,0,.52-.73.76.76,0,0,0-.41-.63,1.68,1.68,0,0,0-.77-.18A1,1,0,0,0,329.58,104.76Z" style="fill:#f5afb0"/><path d="M357.14,105.46a.91.91,0,0,0,.48,1,1.32,1.32,0,0,0,1.19-.07.91.91,0,0,0,.52-.73.79.79,0,0,0-.41-.64,1.68,1.68,0,0,0-.77-.18A1,1,0,0,0,357.14,105.46Z" style="fill:#f5afb0"/><path d="M340.46,105.68a2.11,2.11,0,0,0,1.35,1.66,1.76,1.76,0,0,0,1.88-.73,8.66,8.66,0,0,1,.55-.87,10.25,10.25,0,0,0,.75.85,2.18,2.18,0,0,0,2,.76,2.14,2.14,0,0,0,1.38-1.76" style="fill:none;stroke:#1e1e1c;stroke-linecap:round;stroke-linejoin:round;stroke-width:0.877024301786452px"/><circle cx="334.17" cy="102.96" r="2.29" style="fill:#443f3b"/><circle cx="334.57" cy="102.34" r="1.08" style="fill:#fff"/><circle cx="354.74" cy="103.45" r="2.29" style="fill:#443f3b"/><circle cx="355.08" cy="102.82" r="1.08" style="fill:#fff"/><path d="M278.9,49.46c.38.44.18,1.15.28,1.73l9.19,46.31s-2.25,2.69-4.52.73l-8-48.28S276.72,47,278.9,49.46Z" style="fill:#ffde85"/><path d="M288.89,47.31a14.79,14.79,0,0,0,4.63-3.67A14.92,14.92,0,0,0,296,38.21a25.06,25.06,0,0,0-.07-13.74,19.84,19.84,0,0,0-8.1-11,21.91,21.91,0,0,0-11.31-3.17,25.45,25.45,0,0,0-7,.82,23,23,0,0,0-10.43,6.12,16.56,16.56,0,0,0-2.76,3.64,18.92,18.92,0,0,0-2.16,9A40.51,40.51,0,0,0,255,38a26.26,26.26,0,0,0,1.85,5,12.56,12.56,0,0,0,5.44,5.52,34.83,34.83,0,0,0,7.36,2.81,9.38,9.38,0,0,0,5,.52c1.21-.33,2.38-1.38,2.24-2.63.13,1.13,5,.51,5.56.42A20.55,20.55,0,0,0,288.89,47.31Z" style="fill:#eba8cc"/><path d="M291.29,59.77a1.67,1.67,0,0,0,.51-.55,1.44,1.44,0,0,0,0-.94,9.24,9.24,0,0,0-2.21-3.64c-.6-.71-1.36-1.49-2.29-1.43a3,3,0,0,0-1.81,1.18,32.4,32.4,0,0,0-4.29,6.21c-.44.82-.92,2.28.15,2.9.68.39,1.91-.16,2.61-.32A18.89,18.89,0,0,0,291.29,59.77Z" style="fill:#35a69c"/><path d="M276.15,64.47a7,7,0,0,0-1.45,2.29,30.37,30.37,0,0,0-1.45,4,35.45,35.45,0,0,1-1.31,4.41,6.71,6.71,0,0,1-2.89,3.46,11.83,11.83,0,0,0,2.78-.49A3.89,3.89,0,0,0,274,76.47a7.21,7.21,0,0,1,.12,4.61,6,6,0,0,0,2.54-4.91c.11-1.91-.29-3.82-.37-5.74a7.56,7.56,0,0,1,.48-3.37,3.83,3.83,0,0,1,2.47-2.18C279.46,62.81,277,63.69,276.15,64.47Z" style="fill:#35a69c"/><path d="M283,63.06a13.72,13.72,0,0,1,4.08,4.09,33.22,33.22,0,0,0,3.55,4.59,7.66,7.66,0,0,0,5.13,2.42,3.43,3.43,0,0,1-2.62,1,10.15,10.15,0,0,1-2.82-.6,13.66,13.66,0,0,0,1.23,2.66c-2.93-.76-4.94-3.51-6-6.35A18.37,18.37,0,0,0,284,67.15a7.75,7.75,0,0,0-2.77-2.5c-.37-.2-.81-.48-.78-.91a1.07,1.07,0,0,1,.25-.54C281.42,62.23,282,62.49,283,63.06Z" style="fill:#35a69c"/><path d="M268.31,55.9a1.7,1.7,0,0,0-1-.1,1.41,1.41,0,0,0-.61.5,7,7,0,0,0-1.17,4,28,28,0,0,0,0,3.3,1.4,1.4,0,0,0,1.4,1.51,15.61,15.61,0,0,0,10.49-1.3c3.4-1.83-1.88-4.72-3.38-5.52A34.47,34.47,0,0,0,268.31,55.9Z" style="fill:#35a69c"/><path d="M271.21,52.29a43.68,43.68,0,0,1-7.31-2.39,4.24,4.24,0,0,1-1.65-1,3.43,3.43,0,0,1-.6-1.21,9.5,9.5,0,0,1,1.8-8.93,8.55,8.55,0,0,0,2,3.79c.91,1,2.17,1.78,3,2.84.69.85.6,1.95.83,3C269.49,49.09,270.29,52.08,271.21,52.29Z" style="fill:#fff9f8"/><path d="M254.82,36.37a22.74,22.74,0,0,1,.09-13.25A9.6,9.6,0,0,1,256.56,20a6.46,6.46,0,0,1,9.91.07A7.79,7.79,0,0,0,264,21.86a9.24,9.24,0,0,0-1.76,2.05c-.59,1.09-.75,2.48-1.38,3.5s-1.83,1.48-2.58,2.25A13.1,13.1,0,0,0,256,32.79C255.6,33.58,254.57,35.46,254.82,36.37Z" style="fill:#fff9f8"/><path d="M289.25,17.07A7.5,7.5,0,0,0,288,14.18a9.21,9.21,0,0,0-4.62-2.7c-3.87-1.3-8.15-2.29-12-.84,2.72,1.32,4.2,4.32,5,7.24,0,.11,3.79,1,4.2,1.12a19.43,19.43,0,0,1,4.06,2.2c1.22.86,2.16,2.21,3.36,3,1,.68,1.15-.79,1.36-1.67A12,12,0,0,0,289.25,17.07Z" style="fill:#fff9f8"/><path d="M289.75,35a11,11,0,0,1-7,8.39q2.29,1.09,4.64,2a5.75,5.75,0,0,0,3.52.6,5.41,5.41,0,0,0,3-2.79,27.72,27.72,0,0,0,3.5-9.61c.12-.73.38-2.06-.61-1.63-.71.3-1.39,1.25-2.1,1.66C294.27,33.84,289.7,35.29,289.75,35Z" style="fill:#fff9f8"/><path d="M283.93,28.42a3.27,3.27,0,0,1-2.39.52,5.18,5.18,0,0,1-.56,3.9,7,7,0,0,1-2.91,2.71,10.29,10.29,0,0,0,3.73,1.17,10.62,10.62,0,0,0,3.73-.07,15.37,15.37,0,0,0,2.29-.76,1.89,1.89,0,0,0,.56-.3,1.81,1.81,0,0,0,.3-.41,7.22,7.22,0,0,0,.82-2.46,12.57,12.57,0,0,0-.4-4.56c-.19-.82-.69-3.4-1.94-2.44A25.53,25.53,0,0,1,283.93,28.42Z" style="fill:#fff9f8"/><path d="M277.91,21.71a21.42,21.42,0,0,0-1.39-2,1.91,1.91,0,0,0-.53-.53,2,2,0,0,0-.64-.2,13.1,13.1,0,0,0-9.56,2.62,5.81,5.81,0,0,1,4.29,4.55,11.21,11.21,0,0,1,8.67-1.44c-.55-.13-.14-.88-.17-1.28A4.2,4.2,0,0,0,277.91,21.71Z" style="fill:#fff9f8"/><path d="M264.38,28.53a8.52,8.52,0,0,0-2.12,1.71,2.76,2.76,0,0,0-.86,1.31,2.83,2.83,0,0,0,0,.87A24.56,24.56,0,0,0,263.86,40a5.81,5.81,0,0,1,3.89-4.85c0-2-.43-3.91-.08-5.95.12-.73.17-1.27-.71-1.31A5.77,5.77,0,0,0,264.38,28.53Z" style="fill:#fff9f8"/><path d="M276.38,43.15a12.18,12.18,0,0,1-3.53-1.57,11.51,11.51,0,0,1-1.76-1.73,7.79,7.79,0,0,1-1.83-2.93,4.57,4.57,0,0,1,.71-3.69A6,6,0,0,1,273.08,31a2.62,2.62,0,0,0,.23,2.75,5,5,0,0,0,1,1.07c.23.2,1,.55,1.1.84s-.27.9-.33,1.17a8.62,8.62,0,0,0-.17,1.34,8,8,0,0,0,.32,2.63C275.39,41.27,275.87,43,276.38,43.15Z" style="fill:#fff9f8"/><path d="M276.25,25.8a2.1,2.1,0,0,1,.58-.53,2,2,0,0,1,1.54-.06A4.11,4.11,0,0,1,281,28a5,5,0,0,1-.51,3.8A2.13,2.13,0,0,0,279,30.08a2.18,2.18,0,0,0-2.16.49c.19-.19-.94-.82-1.09-.86-.52-.15-.84.12-1-.43C274.55,28.27,275.66,26.52,276.25,25.8Z" style="fill:#fff9f8"/><path d="M281.24,61.07a2.61,2.61,0,0,1,1.62,1.28,1.46,1.46,0,0,1,.21.7,2.38,2.38,0,0,1-.39,1,1.4,1.4,0,0,1-.53.61,1.82,1.82,0,0,1-.58.21,5.64,5.64,0,0,1-2,.22,2,2,0,0,1-2-1.63C277.5,62.23,279.43,60.56,281.24,61.07Z" style="fill:#2e9a8e"/><path d="M266.7,45.15a1.76,1.76,0,0,1,.59-2,1.6,1.6,0,0,1,2.12.3,1.71,1.71,0,0,1,.41,1.32.35.35,0,0,0,.69,0,2.42,2.42,0,0,0-.44-1.61,2.57,2.57,0,0,0-1.37-.91,2.23,2.23,0,0,0-2.59,1.34,2.26,2.26,0,0,0-.07,1.73.34.34,0,0,0,.42.24.34.34,0,0,0,.24-.42Z" style="fill:#443f3b"/><path d="M284.39,41.57a1.82,1.82,0,0,1,.48-2.12,1.15,1.15,0,0,1,1.74.39,3.47,3.47,0,0,1,.25,1.31.35.35,0,1,0,.69,0,4.41,4.41,0,0,0-.3-1.56,1.71,1.71,0,0,0-1.1-1,2,2,0,0,0-1.47.17,2.11,2.11,0,0,0-1,1.2,2.71,2.71,0,0,0,0,1.8.35.35,0,0,0,.42.24.35.35,0,0,0,.24-.43Z" style="fill:#443f3b"/><path d="M274.87,44.52a2.19,2.19,0,0,0,1.6,2.42,2.31,2.31,0,0,0,2.66-1.37,2.46,2.46,0,0,0,0-1.79.36.36,0,0,0-.43-.24.36.36,0,0,0-.24.43,1.66,1.66,0,0,1-1.14,2.31,1.48,1.48,0,0,1-1.78-1.58.36.36,0,0,0-.25-.42.34.34,0,0,0-.42.24Z" style="fill:#443f3b"/><path d="M495.28,148a102.3,102.3,0,0,1,10-15.69,3.74,3.74,0,0,1,1.25-1.16,1.28,1.28,0,0,1,1.56.29c1.29,1.83,2.75,3.33,3.64,5.39l5.43,12.59a112.75,112.75,0,0,1,19.68,4.07,4,4,0,0,1,.88.36,2.12,2.12,0,0,1,.89,2,4.81,4.81,0,0,1-1.94,2.78l-7.13,6.25-6.92,6.06a95.79,95.79,0,0,1,1.23,16.31,5.4,5.4,0,0,1-.26,2,2,2,0,0,1-1.4,1.29,2.92,2.92,0,0,1-1.79-.5c-5.77-3.06-11.57-6.15-16.61-10.3a51.44,51.44,0,0,0-5.82,2.75,60.71,60.71,0,0,1-12.61,4.08,4.87,4.87,0,0,1-2.56.16,1.69,1.69,0,0,1-1.27-1.94c1-3.12,1.2-6.52,2-9.68a19.26,19.26,0,0,1,.79-2.55c.64-1.57,1.67-3.21,1.15-4.82-.61-1.91-2.11-3.11-3.57-4.48a19.71,19.71,0,0,1-2.46-2.46c-.83-1.12-1.32-2.46-2.09-3.62a39.78,39.78,0,0,1-2.5-3.45,3.43,3.43,0,0,1,.26-4,4.62,4.62,0,0,1,2.88-.93C483.81,148.3,489.48,148.5,495.28,148Z" style="fill:#faef81"/><path d="M492.24,161.75h-.07a.33.33,0,0,1-.22-.41,3.55,3.55,0,0,1,3.56-2.44h0a3.56,3.56,0,0,1,3,2.55.36.36,0,0,1,.09.22v.25a.32.32,0,0,1-.3.32A.34.34,0,0,1,498,162a2.86,2.86,0,0,0-2.53-2.41h0a2.87,2.87,0,0,0-2.89,2A.31.31,0,0,1,492.24,161.75Z" style="fill:#443f3b"/><path d="M512.21,163.37l-.07,0a.32.32,0,0,1-.22-.4,3.55,3.55,0,0,1,3.56-2.44h0a3.56,3.56,0,0,1,3,2.55.31.31,0,0,1,.09.22v.25a.32.32,0,0,1-.3.32.31.31,0,0,1-.34-.28,2.88,2.88,0,0,0-2.54-2.41h0a2.87,2.87,0,0,0-2.89,2A.31.31,0,0,1,512.21,163.37Z" style="fill:#443f3b"/><ellipse cx="492.37" cy="165.77" rx="2.45" ry="3.19" transform="translate(287.37 643.14) rotate(-85.37)" style="fill:#f6b8c8"/><ellipse cx="517.32" cy="167.55" rx="2.45" ry="3.19" transform="translate(308.52 669.65) rotate(-85.37)" style="fill:#f6b8c8"/><path d="M506.07,170.32a2.28,2.28,0,0,1-1.31-.54,1.78,1.78,0,0,1-.42-.5,2.73,2.73,0,0,1-1.1.49,2.54,2.54,0,0,1-2.12-.3,2.32,2.32,0,0,1-.64-2.35,1.45,1.45,0,0,1,.74-1.07.31.31,0,0,1,.43.16.33.33,0,0,1-.16.43.89.89,0,0,0-.38.63,1.68,1.68,0,0,0,.41,1.69,2,2,0,0,0,1.58.18c.41-.1.95-.3,1.1-.72a.33.33,0,0,1,.38-.2.32.32,0,0,1,.24.35.92.92,0,0,0,.36.72,1.66,1.66,0,0,0,2.61-1.89.32.32,0,1,1,.59-.26,2.35,2.35,0,0,1-.76,2.76A2.39,2.39,0,0,1,506.07,170.32Z" style="fill:#443f3b"/><path d="M215.16,176.31a12.64,12.64,0,0,1-8.44-6,10.59,10.59,0,0,1-.13-10.21c2.2-3.86,6.74-5.72,11.09-6.62a6.19,6.19,0,0,1,4.06.15,5.45,5.45,0,0,1,1.83,1.68,19.8,19.8,0,0,1,3.76,8.75,16.42,16.42,0,0,1-.13,6.77c-.71,2.88-1.71,4.17-4.51,5A15.26,15.26,0,0,1,215.16,176.31Z" style="fill:#443f3b"/><path d="M266.86,113.44a13,13,0,0,0-7.58-7.4A10.84,10.84,0,0,0,249,107.8c-3.49,2.91-4.52,7.83-4.63,12.38a6.43,6.43,0,0,0,.89,4.06,5.83,5.83,0,0,0,2,1.53,20.44,20.44,0,0,0,9.5,2.18,16.8,16.8,0,0,0,6.79-1.38c2.77-1.25,3.88-2.49,4.24-5.46A15.56,15.56,0,0,0,266.86,113.44Z" style="fill:#443f3b"/><path d="M259.85,115.7a4.57,4.57,0,0,0-4.58-2,5.27,5.27,0,0,0-3.38,2.43,6.14,6.14,0,0,0-.82,4c1.75-.43,3.6,0,5.36,0,.72,0,4.1.42,4.31.26C261.63,119.7,260.22,116.28,259.85,115.7Z" style="fill:#f6b8c8"/><path d="M217.77,169.37a5.33,5.33,0,0,1-3-4.39,4.39,4.39,0,0,1,1.73-3.5,5.68,5.68,0,0,1,3.86-1.07c-.06,1.76.72,3.56,1.1,5.3.15.71,1.29,4,1.17,4.25C222.15,170.88,218.43,169.71,217.77,169.37Z" style="fill:#f6b8c8"/><path d="M258.06,119.16c-3.6.19-12.17-.66-24.69,13.64a1.82,1.82,0,0,0-.66-.77,1,1,0,0,0-.64-.18,1.33,1.33,0,0,0-.86.67,8.89,8.89,0,0,0-1.53,4.59l-.2.25c-.39-1-.81-2-1.29-3a18.11,18.11,0,0,0-1.26,6.22c-3.09,4.08-6.56,9.35-7.14,13.08-1.3,8.35.32,15.1,8.13,24.66s16.22,16.25,23.69,16c7.3-.23,17.73-7.1,28.4-21.58l.7-1c10.9-15.14,14.68-21.66,11.12-32.33S263.15,118.88,258.06,119.16Z" style="fill:#f4f3f4"/><path d="M263.76,164.16a6.63,6.63,0,0,1-2.57,1.4,1.53,1.53,0,0,1-1.24,0,1.44,1.44,0,0,1-.33-1.77,7.52,7.52,0,0,1,3.25-3.89,1.54,1.54,0,0,1,1.42-.24,1.26,1.26,0,0,1,.68,1.15,3.72,3.72,0,0,1-.18,1.24,10.33,10.33,0,0,1-.77,1.77c-.16.32-1,1.15-1.39.94" style="fill:#443f3b"/><path d="M265.18,168a1.41,1.41,0,0,0,.86-1.44,4.31,4.31,0,0,0-.61-1.68,3.81,3.81,0,0,0,1.77.17,1.9,1.9,0,0,0,1.4-1" style="fill:none;stroke:#443f3b;stroke-linecap:round;stroke-linejoin:round;stroke-width:0.929837937498599px"/><path d="M237.57,179.79a38.42,38.42,0,0,1-2.23-9.47,9.11,9.11,0,0,1,.73-5.57,10.09,10.09,0,0,1,3.7-3.24,10.43,10.43,0,0,1,3.44-1.58c3.12-.59,6,1.64,8.18,4a39.5,39.5,0,0,1,4.67,6.26,7.32,7.32,0,0,1,1.21,3.08,6.82,6.82,0,0,1-1,3.67,20.69,20.69,0,0,1-6.76,7.37C244.15,187.8,239.71,185.56,237.57,179.79Z" style="fill:#443f3b"/><path d="M244.53,179.11a2.24,2.24,0,0,1-1.41-1.35,5.34,5.34,0,0,1-.46-3.07,5.56,5.56,0,0,1,1.56-3.08,5,5,0,0,1,3.16-1.4,5.12,5.12,0,0,1,3,.81" style="fill:none;stroke:#fff;stroke-linecap:round;stroke-linejoin:round;stroke-width:1.17520698497247px"/><path d="M260.77,151c-1.88-1.13-3.76-2.66-4.19-4.8a12.08,12.08,0,0,1-.16-4.79,15.71,15.71,0,0,1,1.81-4.85c1.36-2.27,4.41-2.76,7.07-2.82A55.9,55.9,0,0,1,272,134a15.79,15.79,0,0,1,7,1.92,5.08,5.08,0,0,1,2.35,2.84,6,6,0,0,1-.26,3.2c-1.24,4.28-4.12,10.22-8.14,12.59-1.53.9-3,.11-4.63-.34A30.54,30.54,0,0,1,260.77,151Z" style="fill:#443f3b"/><path d="M283.58,145.23a3.66,3.66,0,0,0-.33,2.78,2.26,2.26,0,0,0,2.16,1.57,3.64,3.64,0,0,0,1.69-.73,6.58,6.58,0,0,0,2.42-2.23,3.71,3.71,0,0,0,.42-1.57,3.2,3.2,0,0,0-.42-1.82,2.19,2.19,0,0,0-1.51-1C286.23,141.93,284.31,143.82,283.58,145.23Z" style="fill:#f6b8c8"/><path d="M250,187.67a3.66,3.66,0,0,0-.33,2.78A2.26,2.26,0,0,0,251.8,192a3.64,3.64,0,0,0,1.69-.73,6.58,6.58,0,0,0,2.42-2.23,3.71,3.71,0,0,0,.42-1.57,3.2,3.2,0,0,0-.42-1.82,2.19,2.19,0,0,0-1.51-1C252.62,184.37,250.7,186.26,250,187.67Z" style="fill:#f6b8c8"/><path d="M268.9,149a2.24,2.24,0,0,1-1.4-1.36,5.32,5.32,0,0,1-.46-3.07,5.59,5.59,0,0,1,1.56-3.08,5,5,0,0,1,3.16-1.4,5.12,5.12,0,0,1,2.95.81" style="fill:none;stroke:#fff;stroke-linecap:round;stroke-linejoin:round;stroke-width:1.17520698497247px"/><path d="M265.49,164.83c-.68-.44-1.21-.93-2-1.37" style="fill:none;stroke:#443f3b;stroke-linecap:round;stroke-linejoin:round;stroke-width:0.929837937498599px"/><path d="M242.9,144.59a15.26,15.26,0,0,0,2.33,2.16,3,3,0,0,0,.47-.4.2.2,0,0,0,.08-.14.35.35,0,0,0-.05-.13,7.63,7.63,0,0,0-1.74-2,.65.65,0,0,0-.29-.14c-.14,0-.26.08-.43.09A1.64,1.64,0,0,0,242.9,144.59Z" style="fill:#e1dfdf"/><path d="M242.74,137.27a10.54,10.54,0,0,0,2.2,1.29,2.93,2.93,0,0,0,.39-.48.33.33,0,0,0,.06-.14.15.15,0,0,0-.06-.11,4.72,4.72,0,0,0-1.66-1.28.49.49,0,0,0-.27-.05c-.13,0-.22.15-.37.2A2,2,0,0,0,242.74,137.27Z" style="fill:#e1dfdf"/><path d="M238.57,150.69a8.89,8.89,0,0,0,2.25,1.49.81.81,0,0,0,.43-.72,6.12,6.12,0,0,0-1.37-1.22c-.16-.1-.54-.36-.74-.34S238.65,150.34,238.57,150.69Z" style="fill:#e1dfdf"/><path d="M232.18,144.25a8.62,8.62,0,0,0,1.77,2,.8.8,0,0,0,.61-.58,6.27,6.27,0,0,0-1-1.54c-.13-.14-.42-.49-.62-.52S232.35,143.93,232.18,144.25Z" style="fill:#e1dfdf"/><path d="M227.76,150a8.86,8.86,0,0,0,1.77,2,.8.8,0,0,0,.61-.59,6,6,0,0,0-1-1.53c-.13-.14-.42-.49-.62-.52S227.92,149.66,227.76,150Z" style="fill:#e1dfdf"/><path d="M237.26,144.36a.62.62,0,0,0,.11.17,5.79,5.79,0,0,0,1.72,1.43.32.32,0,0,0,.25,0,.35.35,0,0,0,.13-.08,2.49,2.49,0,0,0,.57-.68,4.69,4.69,0,0,0-1.84-1.45c-.23-.11-.43-.2-.66,0A.63.63,0,0,0,237.26,144.36Z" style="fill:#e1dfdf"/><path d="M237.87,138a.49.49,0,0,0,.11.18,5.76,5.76,0,0,0,1.72,1.42.35.35,0,0,0,.24.06.42.42,0,0,0,.14-.09,2.81,2.81,0,0,0,.57-.67,4.78,4.78,0,0,0-1.84-1.46c-.24-.1-.44-.2-.67,0A.63.63,0,0,0,237.87,138Z" style="fill:#e1dfdf"/><path d="M232.93,149.85a.68.68,0,0,0,.07.2,5.72,5.72,0,0,0,1.39,1.75.33.33,0,0,0,.23.1.34.34,0,0,0,.14-.05,2.67,2.67,0,0,0,.7-.54,4.61,4.61,0,0,0-1.5-1.81c-.21-.15-.38-.29-.64-.18S232.91,149.65,232.93,149.85Z" style="fill:#e1dfdf"/><path d="M242.11,132.55l1.65.64a.34.34,0,0,0,.2,0,.65.65,0,0,1,.22,0c.2,0,.7-.47.55-.64l-1.82-.65a.54.54,0,0,0-.71.23C242.13,132.27,242,132.45,242.11,132.55Z" style="fill:#e1dfdf"/><path d="M401.65,31.31c-.29-.06-.13-.57.16-.58s.52.24.7.48a365.67,365.67,0,0,0,24.65,29.24C431,64.57,436,71.28,441.57,72.31a8.17,8.17,0,0,1-10.34,10c-3.87-1.18-6.31-4.89-8.39-8.36-5.92-9.86-11.61-19.87-17.3-29.87-2.87-5.07-5.77-10.2-7.24-15.84C399.4,28.69,400.54,30.86,401.65,31.31Z" style="fill:#f087ad"/><path d="M399.2,29.86a7.93,7.93,0,0,1,1-7.93,10.83,10.83,0,0,1,12.3-3.67c3.22,1.24,5.64,4,7.46,6.92s3.15,6.16,5,9.07a56,56,0,0,0,4.07,5.39c4.89,6,11.11,10.12,17.06,15.06,1.53,1.28,1.34,3,3.21,3.65.83.29,1.44-.62,2,0,.82.84,1.31,4.52,1.12,5.68-.82,4.82-5.86,8.16-10.76,8.17s-8.4-1.78-13.47-5.73a95,95,0,0,1-12.15-12C409.16,46.45,403.89,39.37,399.2,29.86Z" style="fill:#d8c4e5"/><path d="M442.13,17.46c2.94,1.67,4.91,4.64,6.32,7.7s2.37,6.33,3.91,9.33,3.8,5.82,6.92,7.1a4.45,4.45,0,0,1,1.71.93,3.12,3.12,0,0,1,.63,1.29c.6,2.11.44,4.61-1.06,6.21-2.12,2.24-5.89,1.77-8.55.22a29.87,29.87,0,0,1-9.89-10.16c-1.89-3.12-2.91-6.51-4.81-9.63-1.59-2.62-6.36-8.78-7.15-11.77C430.16,18.68,434,14.37,442.13,17.46Z" style="fill:#b6dab8"/><path d="M456.57,25.3c.73,1.92,3.2,2.65,5.12,3.38a8.39,8.39,0,0,0,6,.12,18.09,18.09,0,0,0-4,7.13c-.56,1.93-1,4.23-2.82,5.1s-3.95-.25-5.39-1.65C452,36,447.65,25.51,446.46,20.8,446.46,20.8,454.41,19.63,456.57,25.3Z" style="fill:#faef81"/><path d="M423.65,15.94a12.11,12.11,0,0,1,8.93,4.58,25.25,25.25,0,0,1,2.74,4.76l3,6.28c3.45,7.17,7.39,14.85,14.54,18.33A11.71,11.71,0,0,0,461,51a8.21,8.21,0,0,1-4.34,6.81c-3.94,2.05-8.79.53-12.63-1.7-8.71-5.08-15-13.49-20.08-22.19-1.91-3.25-3.7-6.58-5.91-9.64C417.34,23.3,415,19,415,19,417,17.54,421.18,15.85,423.65,15.94Z" style="fill:#d4ecf5"/><path d="M414.9,31.45a2.82,2.82,0,0,0-1.71,1.7,3,3,0,0,0,.05,1.52,3.08,3.08,0,0,0,1.18,1.89,2.7,2.7,0,0,0,2.14.2c.71-.21,2.6-.9,2.61-2.34A3,3,0,0,0,414.9,31.45Z" style="fill:#443f3b"/><path d="M414.87,34.15a1.19,1.19,0,0,0-.49,1.13.71.71,0,0,0,.1.32.9.9,0,0,0,.28.27,1.6,1.6,0,0,0,1.11.31,1.12,1.12,0,0,0,.83-.57C417.3,34.55,415.76,33.55,414.87,34.15Z" style="fill:#fff"/><path d="M416.8,32a.45.45,0,0,0,.14.24.59.59,0,0,0,.53.11,1.7,1.7,0,0,0,.51-.24c-.11.09-.24.15-.35.24a.53.53,0,0,0-.24.33.77.77,0,0,0,.08.42c-.14-.34-.65-.26-1.06-.13.07-.12.37-.35.41-.5A.94.94,0,0,0,416.8,32Z" style="fill:#fff"/><path d="M429.38,58.63a2.81,2.81,0,0,0-1.71,1.69,3,3,0,0,0,.06,1.53,3,3,0,0,0,1.18,1.88,2.66,2.66,0,0,0,2.14.2c.7-.21,2.59-.9,2.6-2.34A3,3,0,0,0,429.38,58.63Z" style="fill:#443f3b"/><path d="M429.35,61.33a1.19,1.19,0,0,0-.49,1.12.71.71,0,0,0,.1.32.83.83,0,0,0,.29.27,1.62,1.62,0,0,0,1.1.32,1.14,1.14,0,0,0,.83-.58C431.78,61.72,430.24,60.72,429.35,61.33Z" style="fill:#fff"/><path d="M431.29,59.19a.41.41,0,0,0,.13.23.59.59,0,0,0,.53.11,1.59,1.59,0,0,0,.51-.24c-.11.09-.24.15-.35.24a.57.57,0,0,0-.24.33.7.7,0,0,0,.09.42c-.15-.34-.66-.26-1.07-.13.07-.12.37-.35.41-.49A1.06,1.06,0,0,0,431.29,59.19Z" style="fill:#fff"/><path d="M418.89,46.74a2.62,2.62,0,0,0-.58.29,1.52,1.52,0,0,0-.23,2.11,1.47,1.47,0,0,0,2.09.18,1.32,1.32,0,0,0-.95,1.1,1.8,1.8,0,0,0,.53,1.46,1.48,1.48,0,0,0,2,0" style="fill:none;stroke:#443f3b;stroke-linecap:round;stroke-linejoin:round;stroke-width:1.01771049362164px"/><path d="M437.56,31.67c.27.54.68,1.16,1.28,1.13a1.8,1.8,0,0,0,.56-.16l1.46-.64a5,5,0,0,0-1.4.88,1.68,1.68,0,0,0-.52,1.5c.06.28.2.64-.05.8a1,1,0,0,0-.6-.91,2.33,2.33,0,0,0-2,.23C437.28,33.85,438.22,33,437.56,31.67Z" style="fill:#fff"/><path d="M444.27,64.94c.28.53.69,1.15,1.29,1.12a1.88,1.88,0,0,0,.56-.16l1.45-.64a5,5,0,0,0-1.39.88,1.69,1.69,0,0,0-.53,1.5c.07.28.2.64,0,.8a1,1,0,0,0-.61-.91,2.31,2.31,0,0,0-2,.23C444,67.11,444.94,66.22,444.27,64.94Z" style="fill:#fff"/><path d="M453.7,46.6c.27.54.68,1.16,1.28,1.13a1.58,1.58,0,0,0,.56-.17l1.46-.63a5,5,0,0,0-1.4.88,1.67,1.67,0,0,0-.52,1.49c.06.28.19.65-.05.81a1,1,0,0,0-.61-.91,2.28,2.28,0,0,0-2,.23C453.42,48.78,454.36,47.89,453.7,46.6Z" style="fill:#fff"/><path d="M458.13,22c.28.54.69,1.15,1.29,1.13a1.65,1.65,0,0,0,.56-.17l1.45-.63a5,5,0,0,0-1.39.87,1.69,1.69,0,0,0-.53,1.5c.07.28.2.64,0,.8a1,1,0,0,0-.61-.9,2.25,2.25,0,0,0-2,.23C457.86,24.15,458.8,23.26,458.13,22Z" style="fill:#fff"/><path d="M442.91,26.44a.85.85,0,0,0,0-.73.94.94,0,0,0,.12.38.39.39,0,0,0,.32.21.66.66,0,0,0,.2-.06l.61-.25a2,2,0,0,0-.48.25.66.66,0,0,0-.26.47.83.83,0,0,0,.11.37.52.52,0,0,0-.49-.4c-.22,0-.42.14-.64.16A1.16,1.16,0,0,0,442.91,26.44Z" style="fill:#fff"/><path d="M450,38.83a.79.79,0,0,0,0-.73,1.21,1.21,0,0,0,.12.38.36.36,0,0,0,.33.2.41.41,0,0,0,.19,0l.62-.25a2.26,2.26,0,0,0-.49.25.63.63,0,0,0-.25.47,1,1,0,0,0,.1.37.52.52,0,0,0-.48-.4,3.33,3.33,0,0,0-.64.16A1.14,1.14,0,0,0,450,38.83Z" style="fill:#fff"/><path d="M429.86,28.61a.85.85,0,0,0,0-.73,1.05,1.05,0,0,0,.12.38.4.4,0,0,0,.32.2.65.65,0,0,0,.2-.05l.61-.26a1.72,1.72,0,0,0-.48.26.62.62,0,0,0-.26.46.8.8,0,0,0,.11.37.53.53,0,0,0-.49-.4c-.22,0-.43.14-.64.17A1.16,1.16,0,0,0,429.86,28.61Z" style="fill:#fff"/><path d="M443.5,49.37c0-.1-.13-.16-.21-.1a.27.27,0,0,0-.07.27.32.32,0,0,0,.12.18.21.21,0,1,0,.06-.38" style="fill:#fff"/><path d="M448.41,37.78c0-.1-.13-.15-.21-.09a.24.24,0,0,0-.06.27.25.25,0,0,0,.12.18.22.22,0,0,0,.31-.15.21.21,0,0,0-.26-.23" style="fill:#fff"/><path d="M449.53,16.5c0-.1-.14-.15-.22-.09a.24.24,0,0,0-.06.27.32.32,0,0,0,.12.18.21.21,0,1,0,.05-.38" style="fill:#fff"/><path d="M424.92,25.19c0-.09-.13-.15-.21-.09a.24.24,0,0,0-.06.27.25.25,0,0,0,.12.18.21.21,0,1,0,.05-.38" style="fill:#fff"/><path d="M279.68,233.57c.59,0,.16-1.17.24-1.75,0,0,2.33-18.33,22.81-18.19s20.14,20.15,20.14,20.15a9.48,9.48,0,0,1,6.13,3.49,19.8,19.8,0,0,1,12.15-5.38S340.27,196,304,194.64c-37.34-1.37-41.54,34.88-41.54,34.88s8.77-2.32,11.61,6.34A8.13,8.13,0,0,1,279.68,233.57Z" style="fill:#faef81"/><path d="M266.5,228.83s6-29.42,37.62-29.18C334.17,199.87,337,232,337,232l-4.72,2.8s-2.5-30.53-28.33-29.89-32.33,25.63-32.33,25.63Z" style="fill:#f087ad"/><path d="M274.58,235.4a36,36,0,0,1,5.93-15.57c5.06-7,14.12-10.51,24.29-10.18s17,5.83,19.36,13.32a60.15,60.15,0,0,1,2.71,12.59l2.13,1.71,3.29-2.5a39.23,39.23,0,0,0-11.59-24.39c-11-10.45-28-4.21-28-4.21s-15.21,2.41-21.06,24.34C271.63,230.51,273.94,231.54,274.58,235.4Z" style="fill:#d8c4e5"/><path d="M279.81,234s1-20,22.33-20.34,20.73,20.15,20.73,20.15l4.58,2s.43-11.91-6.81-20c-5.69-6.35-16.55-8.54-26.42-5.39s-17.1,9.83-19.94,25.85C274.28,236.27,276.94,233.82,279.81,234Z" style="fill:#b6dab8"/><path d="M259.91,231.08a10.07,10.07,0,0,1,8.91-2.12,9,9,0,0,1,6.35,6.7,7.94,7.94,0,0,1,10.21-.06c2.8,2.53,3.18,7.6.54,10.3a4.28,4.28,0,0,1,3.19,4.12,6.11,6.11,0,0,1-2.47,4.88,9.71,9.71,0,0,1-5.14,1.81c-2.51.22-5.34-.37-6.79-2.53a9.07,9.07,0,0,1-9.5,4.12,9.56,9.56,0,0,1-7-7.9,11.05,11.05,0,0,1-8.4,1.51,7.69,7.69,0,0,1-5.67-6.25,8.07,8.07,0,0,1,4.2-7.66,10.43,10.43,0,0,1,4.21-1.25c.92-.09,4,.13,4,.13s.71-1.91,1.08-2.77A8.33,8.33,0,0,1,259.91,231.08Z" style="fill:#f4f3f4"/><path d="M322.77,233.46a12,12,0,0,0-12.44,6.46,8.44,8.44,0,0,0-.26,7.27,8.57,8.57,0,0,0,5.3,4.07,23.85,23.85,0,0,0,6.8.72,5.69,5.69,0,0,0,2.27,3.64,10.34,10.34,0,0,0,7.29,2.73c2.65-.22,5.24-2.13,5.68-4.75a4.23,4.23,0,0,0,3.26,2.53,9.68,9.68,0,0,0,4.27-.37,11.09,11.09,0,0,0,4.28-2,5,5,0,0,0,2-4.11,3.33,3.33,0,0,0-3-3.12c1.79-.46,2.7-2.48,2.85-4.32a10,10,0,0,0-5.05-9.38,12,12,0,0,0-9.51-.59,17.1,17.1,0,0,0-4.3,2.19c-.79.54-3.29,2.5-3.29,2.5s-1.48-1.14-2.13-1.72A8.12,8.12,0,0,0,322.77,233.46Z" style="fill:#f4f3f4"/><path d="M261.16,243.69h-.08a.32.32,0,0,1-.34-.3s-.18-2.73-2-2.74a2.84,2.84,0,0,0-3,2.18.32.32,0,0,1-.4.22.32.32,0,0,1-.22-.4,3.49,3.49,0,0,1,3.58-2.64c1.95,0,2.59,2.19,2.66,3.34A.34.34,0,0,1,261.16,243.69Z" style="fill:#3d3d3b"/><path d="M278.62,245.74l-.1,0a.32.32,0,0,1-.31-.33s0-2.74-1.84-2.87a2.86,2.86,0,0,0-3.12,2,.32.32,0,0,1-.41.19.33.33,0,0,1-.19-.41,3.49,3.49,0,0,1,3.76-2.39c2,.14,2.45,2.36,2.44,3.52A.32.32,0,0,1,278.62,245.74Z" style="fill:#3d3d3b"/><path d="M266.78,248.54a1.92,1.92,0,0,1-2.08-.8,3.1,3.1,0,0,1-.38-2.27.34.34,0,0,1,.38-.26.33.33,0,0,1,.26.38,2.46,2.46,0,0,0,.27,1.79,1.25,1.25,0,0,0,1.44.52c.48-.2.77-.77.92-1.79a.32.32,0,0,1,.63.09,2.7,2.7,0,0,1-1.3,2.29Z" style="fill:#3d3d3b"/><path d="M326.39,244.43h0l-3.24,1a.33.33,0,0,1-.38-.17.31.31,0,0,1,.1-.4l.35-.24a.3.3,0,0,1,.38,0l2.15-.64a5.25,5.25,0,0,0-3.61-1.74.33.33,0,0,1-.31-.34.32.32,0,0,1,.34-.3,5.81,5.81,0,0,1,4.39,2.36.3.3,0,0,1,0,.29A.32.32,0,0,1,326.39,244.43Z" style="fill:#3d3d3b"/><path d="M341,244a.31.31,0,0,1-.21,0,7.24,7.24,0,0,0-4.12-.31.32.32,0,0,1-.34-.15.33.33,0,0,1,0-.37,9.75,9.75,0,0,1,3.36-2.62.54.54,0,0,1,.67.2.35.35,0,0,1-.14.48.32.32,0,0,1-.38,0,9.12,9.12,0,0,0-2.42,1.72,7.93,7.93,0,0,1,3.58.48.32.32,0,0,1,.19.41A.34.34,0,0,1,341,244Zm-1-2.87h0Z" style="fill:#3d3d3b"/><path d="M333.61,248a1.81,1.81,0,0,1-1.27-.08,1.83,1.83,0,0,1-.72-.52,1.61,1.61,0,0,1-2.9-1.2,1.41,1.41,0,0,1,1-1.09.32.32,0,0,1,.09.64.84.84,0,0,0-.42.55,1,1,0,0,0,1.92.33.33.33,0,0,1,.3-.26.31.31,0,0,1,.32.23,1.21,1.21,0,0,0,.69.73,1.18,1.18,0,0,0,1,0,1.16,1.16,0,0,0,.57-.82,1.12,1.12,0,0,0-.21-1,.33.33,0,0,1,0-.46.33.33,0,0,1,.45,0,1.9,1.9,0,0,1-.55,2.78A1.69,1.69,0,0,1,333.61,248Z" style="fill:#3d3d3b"/><ellipse cx="255.83" cy="244.43" rx="1.47" ry="2.07" transform="translate(-18.45 467.96) rotate(-82.87)" style="fill:#f6b8c8"/><ellipse cx="277.86" cy="246.7" rx="1.47" ry="2.07" transform="translate(-1.4 491.8) rotate(-82.87)" style="fill:#f6b8c8"/><ellipse cx="322.87" cy="247.44" rx="2.07" ry="1.47" transform="translate(-6.12 8.2) rotate(-1.44)" style="fill:#f6b8c8"/><ellipse cx="341.01" cy="246.19" rx="2.07" ry="1.47" transform="translate(-6.08 8.65) rotate(-1.44)" style="fill:#f6b8c8"/><path d="M49.14,229.51a9.75,9.75,0,0,0,.56,5.62,7.22,7.22,0,0,0,2.44,3.53,1.26,1.26,0,0,0,.66.27,1.77,1.77,0,0,0,.6-.08,27.11,27.11,0,0,0,9-3.56,5.63,5.63,0,0,0,1.93-1.92,3.43,3.43,0,0,0,.1-2.61c-.79-2.68-3-4.73-5.42-6.43C54.74,221.35,50.15,225.13,49.14,229.51Z" style="fill:#fdcf08"/><path d="M52.16,230.91a7.53,7.53,0,0,1,4.16-.16c1.39.44,2.43,1.27,3.78,1.6a4.56,4.56,0,0,1-2.07-.29c-.66-.22-1.27-.51-1.89-.69A20.19,20.19,0,0,0,52.16,230.91Z" style="fill:#fdcf08"/><path d="M69.7,221.93c-6.87-5.14-4.77-15.81-11-21.46a3.58,3.58,0,0,0-2.11-1.05,4.12,4.12,0,0,0-3,1.28,7.75,7.75,0,0,0-1.61,2.62c-3.3,7.83-2.22,15.9,1.12,22.78,2.74,5.66,9.17,11,15.56,11.31,1.57.07,2.17-2.79,3.5-3.73a4.65,4.65,0,0,0,1.7-2.29,5.88,5.88,0,0,0-.78-5.18A15.31,15.31,0,0,0,69.7,221.93Z" style="fill:#f2f0d7"/><path d="M99,235.5a3.93,3.93,0,0,1-1.78-1.37c-.51-.64-1.88-1-3.2-1.1s-2.7,0-4,0a19,19,0,0,1-12.58-5.67,6.93,6.93,0,0,1-.77-6.57A5.4,5.4,0,0,1,78,218.64a8.87,8.87,0,0,1,2.3-1.39c2.73-1.26,5.84-2.33,8.55-1.77,2.17.44,3.69,1.86,5.11,3.22-.29-3.39-1.66-6.81-5.17-8.15s-7.91-.37-11.32,1.8a17.79,17.79,0,0,0-7,8.71A27,27,0,0,0,69,230.91a11.15,11.15,0,0,0-7.4,1.93,10,10,0,0,0-8.11,3c-2.81,3.11-2.38,7.12-1.35,10.44,1.17,3.79,3,7.46,6.21,10.06a7.92,7.92,0,0,0,5.76,1.95,2.46,2.46,0,0,0,1.46-.57,1.69,1.69,0,0,0,.36-1.48c-.29-2.43-1.3-4.67-1.88-7a20.93,20.93,0,0,1-.54-6.63,17.11,17.11,0,0,1,.43-2.61,30,30,0,0,0,12.75,5.88,21.87,21.87,0,0,0,15.65-3.13c1.89-1.3,3.64-3,5.9-3.45a6.64,6.64,0,0,0,1.6-.36,2.68,2.68,0,0,0,1.32-2.82C101,235.55,99.7,235.69,99,235.5Z" style="fill:#faef81"/><path d="M57.66,246a6.11,6.11,0,0,1-1.46-3.43,7.45,7.45,0,0,1,.6-3.76,10.35,10.35,0,0,1,5.28-5.19,13.56,13.56,0,0,0-4.68,5.45A7.7,7.7,0,0,0,57.66,246Z" style="fill:#fdcf08"/><path d="M69.7,231.59a23.07,23.07,0,0,0,4.44,2.48A24.42,24.42,0,0,0,79,235.54a32.75,32.75,0,0,0,5,.63c1.7.1,3.41.09,5.12.06a29.37,29.37,0,0,1-5.13.44,27.93,27.93,0,0,1-5.16-.5,21.89,21.89,0,0,1-4.92-1.64A16.25,16.25,0,0,1,69.7,231.59Z" style="fill:#fdcf08"/><path d="M63.58,240.36a3.48,3.48,0,0,1,.19-.66c.22-.85.39-1.72.65-2.55a10.41,10.41,0,0,1,1.9-3.12,7.93,7.93,0,0,1,2.3-2.28c.18-.08,1.12-.37,1.31-.19s-.37,1.66-.43,1.94a4.25,4.25,0,0,0,0,1.59,1.81,1.81,0,0,1-.11,1c-.32.76-1,1.25-1.35,2s-.51,1.55-1.3,1.87A5.07,5.07,0,0,1,65,240,3.87,3.87,0,0,0,63.58,240.36Z" style="fill:#fdcf08;opacity:0.22"/><path d="M62,215.17a1.36,1.36,0,0,0,.36-.76,1.81,1.81,0,0,0-.38-1.1,1.85,1.85,0,0,0,.89.62,1,1,0,0,0,.81-.15,4.09,4.09,0,0,0-.2.42,1.75,1.75,0,0,0,0,.72c.06.21.18.39.23.6,0,0,0,0,0,0S62.75,214.7,62,215.17Z" style="fill:#fff;stroke:#1e1e1c;stroke-linecap:round;stroke-linejoin:round;stroke-width:0.273993498646512px"/><path d="M66.31,216.13a1.09,1.09,0,0,0,.25-.53,1.3,1.3,0,0,0-.27-.75,1.31,1.31,0,0,0,.61.43.79.79,0,0,0,.56-.1,1.82,1.82,0,0,0-.13.28,1.06,1.06,0,0,0,0,.5c0,.14.13.27.16.41h0C67.45,216.33,66.84,215.8,66.31,216.13Z" style="fill:none;stroke:#1e1e1c;stroke-linecap:round;stroke-linejoin:round;stroke-width:0.273993498646512px"/><path d="M58.5,233.13c.26.07.55-.12.82-.14.51,0,.84-.15,1.32-.22.32,0,.63.26.92.06a9.4,9.4,0,0,0,1.21-.7c-.56-.4-1.41-.42-2-.89a5.35,5.35,0,0,1-.87-1.19,4.55,4.55,0,0,0-1.33-1.22c-1.6-1.06-2.15-2.57-3.16-4.11-.56-.84-1.36-1.49-1.89-2.34a8.35,8.35,0,0,1-.89-2.57,14.17,14.17,0,0,0-.71-2.08,5.74,5.74,0,0,1-.26-2.37c0-1.81-.72-3.52-.34-5.34a14.89,14.89,0,0,0,.4-1.85,11.2,11.2,0,0,1,.05-1.92,31.33,31.33,0,0,1,.82-3.13A5.1,5.1,0,0,1,56,199.56c-.63-.18-1.67.6-2.14,1A7.78,7.78,0,0,0,51.31,204a24.91,24.91,0,0,0-1.29,3.7,20.62,20.62,0,0,0-.61,5.31,35.11,35.11,0,0,0,.7,5.77,27.65,27.65,0,0,0,1.61,5.17,26.54,26.54,0,0,0,3.66,6.4,16.59,16.59,0,0,0,2.13,2.3c.42.37.55.52,1,.52" style="fill:#eae7cb"/><path d="M62.14,223.51h0" style="fill:none"/><path d="M63.28,224.81a.62.62,0,0,0-.3.18c-.26.21-.5.43-.75.64a6.4,6.4,0,0,1-.5.41l-.39.27c-.09.08-.24.16-.27.29s.08.3.15.4a2.76,2.76,0,0,0,1.23.9,1.62,1.62,0,0,0,1.26,0,1.23,1.23,0,0,0,.68-1.1,2.66,2.66,0,0,0-.36-1.18,3.17,3.17,0,0,0-.32-.49,3.85,3.85,0,0,0-.27-.3A.19.19,0,0,0,63.28,224.81Z" style="fill:#443f3b"/><path d="M62.44,227.6a.93.93,0,0,1,.25-.78,1.35,1.35,0,0,1,1-.48c.21,0,.48,0,.52.23a1.24,1.24,0,0,1-.14.65,1.07,1.07,0,0,1-1.15.58A.53.53,0,0,1,62.44,227.6Z" style="fill:#eaaed0"/><path d="M57.34,226.93c-.18,0-.42.2-.54.32a.89.89,0,0,0-.21,1,1.2,1.2,0,0,0,1.94.44C59.16,228,58.09,226.66,57.34,226.93Z" style="fill:#443f3b"/><path d="M65,220.61c-.18,0-.42.2-.54.32a.89.89,0,0,0-.21,1,1.21,1.21,0,0,0,1.94.44C66.83,221.65,65.77,220.33,65,220.61Z" style="fill:#443f3b"/><path d="M57.44,227.17a.26.26,0,0,0,0,.49.32.32,0,0,0,.47-.22C58,227.22,57.57,227,57.44,227.17Z" style="fill:#fff"/><path d="M65.11,220.85a.26.26,0,0,0,0,.49.33.33,0,0,0,.48-.22C65.61,220.9,65.23,220.65,65.11,220.85Z" style="fill:#fff"/><path d="M63.79,239.79a7.59,7.59,0,0,1,1.44-2,4.15,4.15,0,0,0,.66-.59,4.1,4.1,0,0,0,.38-1.2,1.9,1.9,0,0,1,.76-1c.28-.23.63-.38.67-.75a2.64,2.64,0,0,0-.12-.88c0-.22,0-.45-.08-.67a6.62,6.62,0,0,0-2.59,3.13,16.93,16.93,0,0,0-1,2.05C63.79,238.21,63.39,239.34,63.79,239.79Z" style="fill:#fdcf08;opacity:0.64"/><path d="M63.72,240.15a4.87,4.87,0,0,1,.1-2.85,5.93,5.93,0,0,1,.61-1.33l.75-1.19A8.34,8.34,0,0,1,67,232.56a8.54,8.54,0,0,1,1.23-.74,2.39,2.39,0,0,1,1.43-.23A4.76,4.76,0,0,0,67.38,233a10.11,10.11,0,0,0-1.66,2.14L65,236.3a7.57,7.57,0,0,0-.66,1.18A6.62,6.62,0,0,0,63.72,240.15Z" style="fill:#fdcf08"/><path d="M387.93,201a76,76,0,0,0-27.85,2.17s-.48,12.58,12.57,26.52C372.65,229.72,372.82,211,387.93,201Z" style="fill:#f4f3f4"/><path d="M375.23,218a1.64,1.64,0,0,0-.18-1.85,33.33,33.33,0,0,0-14.84-13c.24.1.43,3.83.51,4.29.25,1.47.57,2.93,1,4.36.8,2.92,2.29,5.26,3.64,8s7.73,11,7.78,10.19A52.44,52.44,0,0,1,375.23,218Z" style="fill:#fae1e6"/><path d="M383.13,204.92s13.35-14,32.49-9.24,25,18.77,24.86,28.31-8.69,16.71-19.55,21.49-22.71,6.88-30.48,5.49-12.42-4.64-16.28-12.38S373.86,213.94,383.13,204.92Z" style="fill:#f4f3f4"/><path d="M405,194.94a80.23,80.23,0,0,1,23.3-15.25S437.37,190,435.79,209C435.79,209,426.85,194.16,405,194.94Z" style="fill:#f4f3f4"/><path d="M393.43,238.58a2.41,2.41,0,1,1-2.85-1A2.17,2.17,0,0,1,393.43,238.58Z" style="fill:#f6b8c8"/><path d="M430,225.86a2.19,2.19,0,0,1-1.6,2.59,2,2,0,1,1,1.6-2.59Z" style="fill:#f6b8c8"/><circle cx="391.95" cy="233.15" r="3.69" style="fill:#443f3b"/><path d="M393.64,231.26a1.54,1.54,0,0,1-.94,2,1.53,1.53,0,1,1-1-2.89A1.54,1.54,0,0,1,393.64,231.26Z" style="fill:#fff"/><path d="M391,235a.6.6,0,0,1-.38.78A.61.61,0,1,1,391,235Z" style="fill:#fff"/><circle cx="423.19" cy="222.28" r="3.69" transform="translate(135.16 603.78) rotate(-80.66)" style="fill:#443f3b"/><path d="M422.05,223.9a.62.62,0,0,1-.38.79.61.61,0,1,1-.4-1.16A.6.6,0,0,1,422.05,223.9Z" style="fill:#fff"/><path d="M424.93,220.37a1.52,1.52,0,1,1-1.94-.94A1.53,1.53,0,0,1,424.93,220.37Z" style="fill:#fff"/><path d="M403.88,234.61a2.44,2.44,0,0,0,2.58,1.69,3.36,3.36,0,0,0,3-3.41c.35,1.09,1.74,1.49,2.88,1.34a3.75,3.75,0,0,0,2.33-1.14,2.35,2.35,0,0,0,.44-2.46" style="fill:none;stroke:#443f3b;stroke-linecap:round;stroke-linejoin:round;stroke-width:0.70187741885642px"/><path d="M425.44,199.86a2.16,2.16,0,0,1-.73-.56,2,2,0,0,1-.26-.91,31.06,31.06,0,0,1,4.06-18.54c-.12.22,2,3.07,2.21,3.46a40.11,40.11,0,0,1,1.88,3.77,40.87,40.87,0,0,1,2.55,8.16,40.14,40.14,0,0,1,.77,8.41c0,.7.14,6.31-.26,5.75a42.42,42.42,0,0,0-2.51-3.56A33.56,33.56,0,0,0,425.44,199.86Z" style="fill:#fae1e6"/><path d="M432.22,222.08l5.79-2.3" style="fill:none;stroke:#443f3b;stroke-linecap:round;stroke-linejoin:round;stroke-width:0.561954199069444px"/><path d="M433.23,225.4l5.55-.79" style="fill:none;stroke:#443f3b;stroke-linecap:round;stroke-linejoin:round;stroke-width:0.561954199069444px"/><path d="M379.31,242.64c.09.09.23,0,.33,0l4.83-2.56" style="fill:none;stroke:#443f3b;stroke-linecap:round;stroke-linejoin:round;stroke-width:0.561954199069444px"/><path d="M383.66,246.78l.49-.45,1.24-1.09a10.1,10.1,0,0,0,2.15-2.18" style="fill:none;stroke:#443f3b;stroke-linecap:round;stroke-linejoin:round;stroke-width:0.561954199069444px"/><path d="M133.72,252.23a5.18,5.18,0,0,0,.5,2.21c.75,1.3,2.46,1.68,4,1.64a3.72,3.72,0,0,0,2-.49,3.81,3.81,0,0,0,1.34-2.22c1.66-5.81-.48-12,.1-18,0,.25-5.44.71-6,.78s-2.29,0-2.67.56c-.25.4.12,2,.14,2.48C133.22,243.52,133.42,247.88,133.72,252.23Z" style="fill:#efc37c"/><path d="M119.8,233.36a4.39,4.39,0,0,0,.77,2.52,3.75,3.75,0,0,0,1.9,1.07c3.44,1.05,7.13.8,10.71.43,5.26-.53,10.5-1.29,15.69-2.26,1.83-.34,3.92-.91,4.68-2.61a5.94,5.94,0,0,0,.19-3l-1.85-16.38A89.68,89.68,0,0,0,149,196.85a9.44,9.44,0,0,0-1.75-3.6,7.81,7.81,0,0,0-3.45-2.09c-4.43-1.47-9.31-.76-13.74.69a25.49,25.49,0,0,0-7.63,3.8c-2,1.54-4.89,4.43-5,7.16a16.49,16.49,0,0,0,.65,2.91c.26,1.78.13,3.69.21,5.49Q118.8,222.3,119.8,233.36Z" style="fill:#d8c4e5"/><path d="M116.85,198.37c.31-1.48.68-3,1.09-4.41a16.42,16.42,0,0,1,2.21-5.18,17.55,17.55,0,0,1,3.64-3.45,17.76,17.76,0,0,1,6.72-3.69,17.07,17.07,0,0,1,5.1-.13c4,.32,8.23.94,11.41,3.41a13.66,13.66,0,0,1,4.67,7.4,21,21,0,0,1,.2,8.83,2.68,2.68,0,0,1-.32,1,1.86,1.86,0,0,1-2.77,0,4.48,4.48,0,0,1-.94-3,3.33,3.33,0,0,0-.59-2.31c-.9-1-2.62-.31-3.26.83a8.76,8.76,0,0,0-.67,3.82,15.36,15.36,0,0,1-.71,3.63c-.4,1.19-1.32,2.54-2.54,2.3a2.32,2.32,0,0,1-1.35-1,10.07,10.07,0,0,1-1.39-6.16c0-1.58.08-3.44-1.18-4.39a2.91,2.91,0,0,0-3.1,0,5.44,5.44,0,0,0-2.08,2.46c-.51,1.07-1,2.37-2.11,2.7-1.55.47-2.84-1.25-4.37-1.78a3.27,3.27,0,0,0-4,2.07c-.43,1.42.64,7.14-2.52,4.94C115.6,204.55,116.35,200.71,116.85,198.37Z" style="fill:#f087ad"/><path d="M149.59,215.27a7.36,7.36,0,0,0-2.87.45,4.24,4.24,0,0,0-2.18,1.84,4.74,4.74,0,0,1,4.71.81" style="fill:none;stroke:#443f3b;stroke-linecap:round;stroke-linejoin:round;stroke-width:0.77846914390169px"/><path d="M123,216.94a7.23,7.23,0,0,1,3.94,1.61,3.05,3.05,0,0,1,1,1,4,4,0,0,0-2.23-.14,12.7,12.7,0,0,0-2.16.71" style="fill:none;stroke:#443f3b;stroke-linecap:round;stroke-linejoin:round;stroke-width:0.77846914390169px"/><path d="M138.43,220.12a11.53,11.53,0,0,1-.44,3.65,3.69,3.69,0,0,1-.55,1.19,1.57,1.57,0,0,1-1.1.63,2.08,2.08,0,0,1-1.67-1.19,7.84,7.84,0,0,1-1.16-4.3A31.11,31.11,0,0,0,137,220a11.4,11.4,0,0,0,1.43-.18C138.46,219.92,138.51,220.06,138.43,220.12Z" style="fill:#f087ad"/><path d="M138.37,221.13a3.89,3.89,0,0,0,.08-1.32,4.8,4.8,0,0,1-2,.23,7,7,0,0,1-.92.11c-.65-.05-1.31,0-2-.05.33,0-.48,3.66,1.19,2.26a5.06,5.06,0,0,1,1.66-.87A7.06,7.06,0,0,1,138.37,221.13Z" style="fill:#443f3b"/><path d="M123.24,190.52a23.85,23.85,0,0,0,2.51-1.85.64.64,0,0,0,0-.9.65.65,0,0,0-.9,0c-.18.16-.37.31-.56.46l-.14.11s-.09.08,0,0l0,0-.3.23c-.39.28-.79.56-1.2.82a.63.63,0,1,0,.64,1.09Z" style="fill:#fdcf08"/><path d="M128.9,192.37a.37.37,0,0,1-.16.09c-.11,0-.13,0-.06,0-.18,0,0,0,0,0s0,0-.05,0l.07,0,.18.11.69.39,1.41.82a.65.65,0,0,0,.87-.23.65.65,0,0,0-.23-.87l-1.66-1c-.59-.33-1.35-.88-2-.28a.63.63,0,0,0,0,.89.64.64,0,0,0,.9,0Z" style="fill:#fdcf08"/><path d="M134,188.7c1-.35,1.93-.75,2.86-1.19a.64.64,0,0,0,.23-.87.66.66,0,0,0-.87-.23l-.65.31-.33.14-.17.07s0,0,0,0l-.1,0c-.44.18-.89.36-1.34.52a.63.63,0,1,0,.33,1.22Z" style="fill:#fdcf08"/><path d="M141.08,190.23l.18,0h.07l.36.05.75.11,1.46.22a.66.66,0,0,0,.71-.29,1,1,0,0,0,.13-.84.64.64,0,0,0-.77-.45.65.65,0,0,0-.45.78c0,.06,0,.06,0,0a.28.28,0,0,1,0-.13c0-.08.05-.07,0,0l.71-.29c-1-.17-2.1-.32-3.15-.46a.63.63,0,0,0-.63.64.65.65,0,0,0,.63.63Z" style="fill:#fdcf08"/><path d="M140.83,185c.23,0,.47-.1.7-.13h.06l.19,0,.35,0a8.66,8.66,0,0,1,1.44,0,.63.63,0,0,0,.63-.64.65.65,0,0,0-.63-.63,10.29,10.29,0,0,0-3.08.23.63.63,0,1,0,.34,1.22Z" style="fill:#fdcf08"/><path d="M131.69,182.13l2,1.17a.64.64,0,0,0,.64-1.1l-2-1.17a.64.64,0,1,0-.64,1.1Z" style="fill:#fdcf08"/><path d="M121.12,195.78l2,.6a.64.64,0,0,0,.78-.44.65.65,0,0,0-.44-.78l-2-.6a.63.63,0,0,0-.34,1.22Z" style="fill:#32a4ae"/><path d="M129.12,186.9l.95.95a.64.64,0,0,0,.89,0,.6.6,0,0,0,.19-.45A.64.64,0,0,0,131,187l-1-.95a.62.62,0,0,0-.89,0,.64.64,0,0,0-.19.45.7.7,0,0,0,.19.45Z" style="fill:#32a4ae"/><path d="M136.56,192.48a7.21,7.21,0,0,1,1-.91l-.13.1c.13-.1.25-.2.39-.29a.71.71,0,0,0,.29-.37.64.64,0,0,0-.07-.49.56.56,0,0,0-.38-.29.58.58,0,0,0-.48.06,9.43,9.43,0,0,0-1.52,1.29.68.68,0,0,0-.19.45.64.64,0,0,0,.19.45.68.68,0,0,0,.45.19.7.7,0,0,0,.45-.19Z" style="fill:#32a4ae"/><path d="M145.28,187l.84.81a.68.68,0,0,0,.45.19.48.48,0,0,0,.24-.06.46.46,0,0,0,.21-.13.63.63,0,0,0,.18-.45A.69.69,0,0,0,147,187l-.85-.81a.65.65,0,0,0-.44-.18.43.43,0,0,0-.25,0,.53.53,0,0,0-.2.13.63.63,0,0,0,0,.9Z" style="fill:#32a4ae"/><path d="M146.8,193.15a5,5,0,0,0,1.23-.8.61.61,0,0,0,.19-.44.64.64,0,0,0-.19-.45.68.68,0,0,0-.45-.19l-.17,0a.66.66,0,0,0-.28.16l-.16.13.13-.09a5,5,0,0,1-.94.56.59.59,0,0,0-.29.38.62.62,0,0,0,.06.48.66.66,0,0,0,.38.3l.17,0a.62.62,0,0,0,.32-.09Z" style="fill:#32a4ae"/><path d="M136.59,183.09l.59.71a.46.46,0,0,0,.2.13.4.4,0,0,0,.24,0,.43.43,0,0,0,.25,0,.53.53,0,0,0,.2-.13.68.68,0,0,0,.19-.45l0-.17a.61.61,0,0,0-.16-.28l-.58-.7a.52.52,0,0,0-.2-.14A.53.53,0,0,0,137,182a.47.47,0,0,0-.24.05.49.49,0,0,0-.21.14.6.6,0,0,0-.18.44l0,.17a.71.71,0,0,0,.16.28Z" style="fill:#32a4ae"/><path d="M510.32,100.69a4.75,4.75,0,0,0,.29,4A12.93,12.93,0,0,0,513.2,108" style="fill:none;stroke:#443f3b;stroke-linecap:round;stroke-linejoin:round;stroke-width:0.991779368424223px"/><path d="M510.13,109.18a2.92,2.92,0,0,0-.67.52c-.17.2-.26.43-.18.58.48-.24,4.52-2.16,4.13-2.23A10.67,10.67,0,0,0,510.13,109.18Z" style="fill:#443f3b"/><path d="M527.5,91.64a4.78,4.78,0,0,1,4,.12,13.1,13.1,0,0,1,3.38,2.45" style="fill:none;stroke:#443f3b;stroke-linecap:round;stroke-linejoin:round;stroke-width:0.991779368424223px"/><path d="M536,91.09a2.89,2.89,0,0,1,.49-.68c.18-.18.41-.29.57-.21-.22.49-2,4.61-2.06,4.22A10.73,10.73,0,0,1,536,91.09Z" style="fill:#443f3b"/><path d="M537.79,70.43c2.75-1,5-4.7,4.2-7.53" style="fill:none;stroke:#443f3b;stroke-linecap:round;stroke-linejoin:round;stroke-width:0.968291347927654px"/><path d="M539,60.15a4.56,4.56,0,0,0,2.7,2.67.41.41,0,0,0,.31,0,.63.63,0,0,0,.3-.26,5,5,0,0,0,1-3.93" style="fill:none;stroke:#443f3b;stroke-linecap:round;stroke-linejoin:round;stroke-width:0.968291347927654px"/><path d="M541.8,62.63a16.57,16.57,0,0,1-.81-3.17" style="fill:none;stroke:#443f3b;stroke-linecap:round;stroke-linejoin:round;stroke-width:0.968291347927654px"/><path d="M481.56,85.46a8.49,8.49,0,0,1-8.79-4" style="fill:none;stroke:#443f3b;stroke-linecap:round;stroke-linejoin:round;stroke-width:0.968291347927654px"/><path d="M468.84,80.79a4.93,4.93,0,0,0,4,.68" style="fill:none;stroke:#443f3b;stroke-linecap:round;stroke-linejoin:round;stroke-width:0.968291347927654px"/><path d="M472.36,81.5A12.23,12.23,0,0,0,471,79" style="fill:none;stroke:#443f3b;stroke-linecap:round;stroke-linejoin:round;stroke-width:0.968291347927654px"/><path d="M472.51,81.45c.69-.32.76-1.26.65-2a10,10,0,0,0-.67-2.34" style="fill:none;stroke:#443f3b;stroke-linecap:round;stroke-linejoin:round;stroke-width:0.968291347927654px"/><path d="M527.49,59.78c-1.87.86-4.6,1.07-6.36-.07s-1.85-1.16-2.84-1.13a5.77,5.77,0,0,0-3.52,2.15c-2,2.23-7,2.21-9.6,1-2.11-1-2.74-3.23-3.47-5.41a15.46,15.46,0,0,0-.91-1.74c-.37-.7-1.35-.45-2.23-.48-1.09,0-2.2.26-3.31.26a5.57,5.57,0,0,1-1.72-.27,5.17,5.17,0,0,1-2.77-2.29c-.36-.63-.29-2.48-2.37-2.51-.06.15-1.05,1.22-1.13,1.39-1.06,2.13,2,4.09,2.51,6.28A12.19,12.19,0,0,0,491,60.59a11.9,11.9,0,0,0,2.36,2.7,51.73,51.73,0,0,0,9,6.58,28.47,28.47,0,0,0,7.64,3.2,15,15,0,0,0,8.2-.22c3.09-1,9.53-6,11.44-8.67s.8-3.07,2-6.09c.47-1.18-.51-2.28-.73-3.54a4.43,4.43,0,0,0-.23-.67C530.42,56.24,529.14,59,527.49,59.78Z" style="fill:#dcac6a"/><path d="M531.43,53.59c-.09-.13-.22-.28-.34-.42a4.72,4.72,0,0,1-.63,2.11c.93,2.28-.69,7.31-3,8.36-1.87.86-4.6,1.07-6.36-.07s-2-4.54-3.45-4.39c-.86.12-1.52,3.88-2.91,5.4-2,2.23-7.11,2.46-9.6,1-3.42-1.93-4.22-5.24-4.77-8.88-.05-.32-.75-1-1.33-.54s-1.19,1.52-2.24,1.83c-2.28.66-5.05-.17-6-2.43a17.44,17.44,0,0,1-1.79-5.86c0-.34-.25-.65-.66-.41-6.91,6.55-10.63,14.76-10.5,25.71a25.41,25.41,0,0,0,.83,7.13,26.14,26.14,0,0,0,4.62,8.1c2.76,3.57,6,7,10.17,8.72a36.44,36.44,0,0,0,9.78,2.65c6.28.51,12.37,0,18-3a26.07,26.07,0,0,0,6.54-5.21c4.23-4.42,8.54-11.33,9.22-17.3.49-4.35.68-7.21-.37-11.4A33.78,33.78,0,0,0,531.43,53.59Z" style="fill:#efc37c"/><path d="M481.32,74.31a28.77,28.77,0,0,0,12.17,17.9,17.63,17.63,0,0,0,6,2.7c4.29.91,8.81-.38,13-1.9a25.63,25.63,0,0,0,7.12-3.54c2.11-1.63,3.73-3.8,5.59-5.71s4-3.56,5.72-5.59a22.24,22.24,0,0,0,5.08-15.68A22.22,22.22,0,0,1,536.21,78a33.31,33.31,0,0,1-9.08,13.46,29.4,29.4,0,0,1-6,4.41,40.18,40.18,0,0,1-6.2,2.5c-4.78,1.59-9.84,3-14.71,2.09a22,22,0,0,1-9.74-5c-6.32-5.18-11-12.51-12.16-20.67-.93-6.61.88-14.85,5.91-19.94.13,1.26-1.38,2.2-1.8,3.42a32.34,32.34,0,0,0-1.32,5.3A29.64,29.64,0,0,0,481.32,74.31Z" style="fill:#e1b16b;opacity:0.63"/><path d="M481,60.72a22.55,22.55,0,0,0-1.77,5.72,24.5,24.5,0,0,0,.1,6.17,37.77,37.77,0,0,0,3.4,12.92,23.4,23.4,0,0,0,4.34,6c6.84,6.88,18.17,9,27.36,5,2.26-1,4.37-2.29,6.55-3.44a35.69,35.69,0,0,0,4.34-2.47,26,26,0,0,0,4-3.82c2.17-2.42,4.39-4.92,5.59-7.92a28,28,0,0,0,2.33-11.54c1.37,5.55,2.82,10.22-2,15.89-3.82,4.47-7.34,11-12.3,14.19-7,4.48-18.39,7-26.29,5.15s-12.23-8.14-16-15.21c-4.7-8.69-6.85-20.57,0-28,.95-1,2.9-4.72,4.72-6.72C484.15,55.25,482.2,58,481,60.72Z" style="fill:#dcac6a"/><path d="M485.38,67.94c1.69-.08,3.33-1.71,3-3.35a12.16,12.16,0,0,0-.75-2.92c-1.38-1.78-5.22-2.25-6.63.68C479.77,65,482.79,68.07,485.38,67.94Z" style="fill:#874e3a"/><path d="M481,88.83c2.08,0,5.56-3,5.19-5a15.4,15.4,0,0,0-.93-3.62c-1.71-2.2-6-3.59-7.51.13A59.82,59.82,0,0,0,481,88.83Z" style="fill:#874e3a"/><path d="M534.94,83.41c.18,0,.82-.47,1.68-2.08.21-.4,1.52-2.6,1.34-3a2.71,2.71,0,0,0-4.77-.26C531.74,80,532.87,83.23,534.94,83.41Z" style="fill:#874e3a"/><path d="M529.4,64.5c0,1.93,1.75,3.77,3.66,3.4a17.89,17.89,0,0,0,4-1.17c1-.82-3.55-7.15-4-7.19C531.38,59.38,529.43,61.56,529.4,64.5Z" style="fill:#874e3a"/><path d="M508.74,94.09c-1.64.89-2.47,3.24-1.38,4.67a13,13,0,0,0,2.18,2.43c2.24,1,6.28-.36,6.24-3.84C515.75,94.22,511.24,92.72,508.74,94.09Z" style="fill:#874e3a"/><path d="M520.92,82.8a2.46,2.46,0,0,0-1,3.41A9.37,9.37,0,0,0,521.5,88c1.64.76,4.59-.26,4.57-2.81C526,82.9,522.75,81.8,520.92,82.8Z" style="fill:#874e3a"/><path d="M501.73,63.69c-1.83,1-3.4,3.88-2.18,5.47A14.52,14.52,0,0,0,502,71.89c2.51,1.16,7.65-1.4,7-5.23-.12-.66-2.62-.41-4.1-1.2S503,63,501.73,63.69Z" style="fill:#874e3a"/><path d="M495.45,98.34a2.1,2.1,0,0,0,2,.44,2.6,2.6,0,0,0,1.15-1.49c.63-1.51,1.48-2.67,1.37-4.84l-.44-.38c-1.47.59-3-.75-4.65-.66C490.56,91.63,493.92,97.25,495.45,98.34Z" style="fill:#874e3a"/><path d="M492.68,84.4a3.1,3.1,0,0,0-1.51,2.14,1.62,1.62,0,0,0,.22,1.16,1.85,1.85,0,0,0,1.33.68,5,5,0,0,0,2.17-.29,4.79,4.79,0,0,0,1.52-.79,2.51,2.51,0,0,0,.88-1.44,2,2,0,0,0-.52-1.68C495.73,83.11,493.77,83.72,492.68,84.4Z" style="fill:#f087ad"/><path d="M523.91,73a3.14,3.14,0,0,0-1.5,2.15,1.59,1.59,0,0,0,.22,1.15A1.82,1.82,0,0,0,524,77a5.19,5.19,0,0,0,2.17-.29,4.82,4.82,0,0,0,1.52-.8,2.39,2.39,0,0,0,.87-1.44,2,2,0,0,0-.52-1.67C527,71.68,525,72.3,523.91,73Z" style="fill:#f087ad"/><path d="M513.64,80.12a.76.76,0,0,1,.39-.05c.28.06.42.36.51.63a5.39,5.39,0,0,1,.12,3.13,3.3,3.3,0,0,1-4.88,2.06,5.61,5.61,0,0,1-2.1-2c-.25-.38-.85-1.14-.36-1.47C507.57,82.22,512.22,80.52,513.64,80.12Z" style="fill:#443f3b"/><path d="M511,84.15a3.3,3.3,0,0,1,2-.36,1.78,1.78,0,0,1,1,.35.25.25,0,0,1,.11.12,1.35,1.35,0,0,1,.09.33c0,.4-.36.63-.64.94a2.23,2.23,0,0,1-.77.59,3.33,3.33,0,0,1-2.07.08,2.46,2.46,0,0,1-.82-.38c-.2-.16.06-.37.16-.59A2.43,2.43,0,0,1,511,84.15Z" style="fill:#f6b8c8"/><path d="M490.44,77.53a22.36,22.36,0,0,1,8.81,1.21,35.55,35.55,0,0,0-7.55,4.66" style="fill:none;stroke:#443f3b;stroke-linecap:round;stroke-linejoin:round;stroke-width:0.927833427697866px"/><path d="M524.7,65a22.26,22.26,0,0,0-6,6.61,35.72,35.72,0,0,1,8.78-1.31" style="fill:none;stroke:#443f3b;stroke-linecap:round;stroke-linejoin:round;stroke-width:0.927833427697866px"/><path d="M523.85,45.82c-1.27-.48-2.7-1.35-2.66-2.7a3,3,0,0,1,1.31-2.07,10.35,10.35,0,0,1,5.1-2.2,1.2,1.2,0,0,1,.75.08,1.25,1.25,0,0,1,.45.84l.93,4a3.7,3.7,0,0,1,.08,1.95C529,48.15,525.3,46.37,523.85,45.82Z" style="fill:#efc37c"/><path d="M515.06,52.07a4.84,4.84,0,0,1-1.31-1.94,3,3,0,0,1,2-1.71,1.88,1.88,0,0,1,2.15,1.26,2.22,2.22,0,0,1-.11,1.22,2.41,2.41,0,0,1-1.39,1.6,1.32,1.32,0,0,1-1.72-.88" style="fill:#efc37c"/><path d="M511.81,42.79a4.25,4.25,0,0,1-1.15-.71,1,1,0,0,1-.37-.5c-.12-.45.3-.86.67-1.15l3.76-2.86a9.34,9.34,0,0,1,1,5,.58.58,0,0,1-.07.35.52.52,0,0,1-.33.16c-1.51.33-3.3.25-4.31-.92" style="fill:#efc37c"/></svg>