<svg viewBox="0 0 166.8 36.24" xmlns="http://www.w3.org/2000/svg"><rect fill="#fff" height="36.24" rx="18.12" width="166.8"/><g fill="#e6eadc"><path d="m156.18 33.38a2.85 2.85 0 0 1 -1.61-.83c-.44-.48-.55-.94-1.3-.9-1.37.06-2.88 1-4.14 1.44a20.89 20.89 0 0 1 -4.52 1.24 8.12 8.12 0 0 0 -2 .24c-.53.26-.94 1.2-1.23 1.67h6.48a19 19 0 0 0 10.89-3.08 7.43 7.43 0 0 1 -2.57.22z"/><path d="m139.59 6.8c0 2.11 1.08 3.1 2.87 4 .94.46 1.84 1.09 2.81 1.5 1.39.6 2.7 0 3.93-.7a11.62 11.62 0 0 1 7.15-1.26c2.35.18 4.83.52 7.08-.38l.55-.25c.44-.22.49-.14.4-.56a5.35 5.35 0 0 0 -.94-1.46 18.49 18.49 0 0 0 -8.32-6.46c-3.12-1.23-6.35-1.23-9.65-1.23h-2.47a7.72 7.72 0 0 0 -1.86 0c-.62.17-.76 1.44-.92 2.06a18.44 18.44 0 0 0 -.63 4.74z"/><path d="m160.52 12.09a4.18 4.18 0 0 0 -1.62 2.91c-.21-1.51-1.65-2.32-3-2.68-1.71-.47-2.74.21-4.17 1-2.74 1.56-6 0-8.76 1.48a4.17 4.17 0 0 0 -2 3.43c-.23 1.74-.31 3.51-.45 5.26s-.34 3.79-.47 5.69c-.05.86-.16 1.76-.15 2.62 0 .4.07.78.46 1 .8.4 2-.33 2.75-.64.87-.38 2.85-.82 3.24-1.6 1-.5.84-3.09 1.05-4q.38.64.69 1.32c.15.32.28 1 .55 1.21.51.42 1.45-.2 2-.38a9.7 9.7 0 0 1 5.32-.6c1.69.36 3.3 1.13 5.07.87a7.75 7.75 0 0 0 2.34-.72 3.81 3.81 0 0 0 1.4-1.85 18 18 0 0 0 .81-14.81c-.26-.66-.27-.63-1-.53l-1.4.23a7.58 7.58 0 0 0 -2.66.79z"/></g><path d="m160.33 29.05a13.05 13.05 0 0 1 -3.7-.77 8.17 8.17 0 0 0 -3.87-.17 15.46 15.46 0 0 0 -1.77.49 8.92 8.92 0 0 1 -1.75.62c-.53.05-.61-.2-.81-.64a20.81 20.81 0 0 0 -1-2c-.18.77-.22 1.56-.38 2.32-.09.44-.22 1.43-.67 1.67-.43.7-2 1.07-2.84 1.42a7.77 7.77 0 0 1 -2.55.9c-1.31.06-1-1.19-1-2.13.1-1.89.26-3.77.42-5.66l.45-5.51c.12-1.41.19-3 1.22-4.09 2.18-2.29 5.83-.75 8.5-1.62 1.57-.51 2.71-1.93 4.48-1.72 1.58.19 3.58 1.07 3.82 2.85a4 4 0 0 1 1.93-3.08 15.49 15.49 0 0 1 4.49-.94c-.24-.55-.51-1.09-.8-1.62-2.75 1.72-6 1-9.08.88a11.58 11.58 0 0 0 -4.42.43c-1.51.51-2.79 1.82-4.45 1.86-1.4 0-2.78-1.12-4-1.72a5.53 5.53 0 0 1 -2.42-1.72c-.73-1.14-.59-2.68-.48-4a16.45 16.45 0 0 1 1.23-5.1h-5.43c1.2.88 1.19 1.7 1.14 3.09l-.15 4.16c-.05 1.18-.08 2.1-1.06 2.88s-1.87 1.32-2.73 2.09a58.39 58.39 0 0 0 -4.81 5.14c-.76.86-1.53 1.71-2.35 2.52-.64.64-1.75 2.07-2.79 1.88-.55-.1-1-.42-1.6-.51s-1.15 0-1.71-.07c-.77-.11-1-.57-1.12-1.32s.1-1.41 0-2.12a4.88 4.88 0 0 0 -1-2.58c-1-1.29-4.11-2.54-2.68-4.52a8 8 0 0 1 2.33-1.8 22.14 22.14 0 0 0 2.51-1.91 7.67 7.67 0 0 0 2.28-2.78 5.72 5.72 0 0 0 .29-2.15c0-.29.06-1.83-.15-2s-1.33 0-1.66 0h-1.68c.19 1.66.26 3.26-1.06 4.47a6.51 6.51 0 0 1 -3.93 1.53c-1.3.12-3.57-.36-4.56.69-.61.66-.81 1.7-1.92 1.56-2.56-.33-1.56-4.91-1.32-6.43 0-.34.32-1.57.07-1.77s-.79 0-.94 0h-2.16c.24 1.61-.56 3-.3 4.58a11.58 11.58 0 0 0 .61 2.12c.25.69.56 1.11-.17 1.56s-1.39.24-2.15.33a5 5 0 0 0 -1.84.74 9.13 9.13 0 0 1 -1.69.83 8.37 8.37 0 0 1 -2.5.08c-1.51 0-2.73 1.18-4.26.77a4.1 4.1 0 0 1 -2.87-2.9c-.08-.72.06-1.49 0-2.23a12.65 12.65 0 0 0 -.52-2.58 21.28 21.28 0 0 0 -.86-2.17c-.14-.37-.32-1.02-.64-1.18a3.55 3.55 0 0 0 -1 0h-3.5c2.08 2.93 2.86 6.54 4.76 9.57a11.42 11.42 0 0 0 1.51 1.95 2.89 2.89 0 0 1 1.15 1.92 5.91 5.91 0 0 1 -1.85 4.29 5.62 5.62 0 0 1 -5.44 1.68c-2.15-.59-4.29-1.31-6.41-2a26.87 26.87 0 0 1 -6.07-2.34 10.25 10.25 0 0 1 -3.16-3.75c-.48-.83-1-1.66-1.45-2.48a2.28 2.28 0 0 1 .06-2.92c1.51-2.06 3.21-4 4.9-5.92h-2.49c-.56 0-.59.1-1 .5-.62.54-1.31 1-1.89 1.59-1.11 1.16-1.28 3-2.58 4-1.56 1.2-3.44.06-4.77-.92a44.15 44.15 0 0 1 -4.48-3.94 3.46 3.46 0 0 0 -2-1.24c-1.48-.11-3 0-4.48 0h-6.72a45.27 45.27 0 0 0 -4.66 0c-.76.08-1 .65-1.44 1.32a19.9 19.9 0 0 0 -2.54 5c-1 3-.65 7.31-4.38 8.42-1.85.55-3.6-.45-5.13-1.38a16.2 16.2 0 0 0 -2.65-1.44 21.67 21.67 0 0 0 -3.08-.77c-1.86-.43-3.8-1-4.3-3-.55-2.31.34-4.68 1.11-6.83a18.13 18.13 0 0 0 -4.15 2.3 1.08 1.08 0 0 0 -.56.74c-.13.4-.11.86-.23 1.27a3.44 3.44 0 0 1 -1 1.72c-1 .91-1.56 2.25-2.65 3.06a4 4 0 0 1 -.85.49c-.55.25-.64.26-.86.85a21 21 0 0 0 -.72 2.26 18.22 18.22 0 0 0 3.13-.39 25.08 25.08 0 0 1 3.1-1 9.21 9.21 0 0 1 4.45 1.14 4.34 4.34 0 0 1 1.73 1.16c.59.81.17 1.76-.18 2.58a27.29 27.29 0 0 1 -2.73 5.42c-1.37 1.91-2.95 3.68-4.33 5.59a8.75 8.75 0 0 0 -1 1.27c-.17.43-.26-.06 0 .48.06.14.32.34.43.46a19.16 19.16 0 0 0 2.36 2 18.26 18.26 0 0 0 5.54 2.78 6.11 6.11 0 0 0 1.4.35c.49 0 .52-.24.95-.56a25.1 25.1 0 0 1 2.74-1.51l3.56-2c1.08-.61 2.43-1.65 3.68-1.84 2.07-.3 4.28 2.31 5.06 3.94.22-1.14.43-2.29.65-3.43s.75-1.26 1.94-1.35a13 13 0 0 1 6.42.79c1.72.76 3.26 1.84 5 2.52a4.6 4.6 0 0 1 2.12 1.24 3.48 3.48 0 0 1 .16 2.6h2.08c.36 0 1.79.23 2.07 0s.2-1.13.24-1.36c.1-.45.2-.9.34-1.34a8.21 8.21 0 0 1 1.24-2.43 20.78 20.78 0 0 0 2.92-4.44c.33-.8.5-1.65.81-2.45a6.29 6.29 0 0 1 1.54-2 8.82 8.82 0 0 0 2.13-4.31c.18-.81.3-1.63.4-2.45.06-.51 0-.56.46-.58a3.18 3.18 0 0 1 1.13.28 17.41 17.41 0 0 1 3.65 2.27 7.56 7.56 0 0 0 4.06 1.53c1.6.08 3.18.29 3.58 2.12a6.84 6.84 0 0 1 -.33 2.92c-.16.8 0 1.32.89 1.08 1.26-.32 2.3-1.45 3.64-1.51 1.75-.08 1.67 1.81 1.07 2.93-.3.57-.92 1.1-.72 1.81s1 1.06 1.59 1.36 1.35.66 1.49 1.4-.43 1.36-.65 2c-.29.84.16 1.34.37 2.12 0 .2 0 .93.12 1s.26 0 .33 0a7.07 7.07 0 0 0 1.38 0 4.64 4.64 0 0 0 1.29 0c.42-.16.29-.61.65-1 .53-.57 1.51-.57 2.21-.68l6.3-.91 3.16-.44c.82-.11 2.09-.52 2.88-.14s1.2 1.33 1.63 2c.21.31.53 1.06.87 1.21a3.63 3.63 0 0 0 1.14 0h13.36c.17 0 .75.1.89 0s.13-.58.25-.74a1.39 1.39 0 0 1 .86-.49 21.76 21.76 0 0 1 2.91 0c2.06-.1 3.68-1.07 5.62-1.59a8.94 8.94 0 0 1 5.47.59 9.4 9.4 0 0 1 2.21 1 1.58 1.58 0 0 1 .54.66c.06.14.08.55.17.61.31.22 1.58 0 1.94 0h3a7.93 7.93 0 0 0 1.09 0c.41-.07.23.07.55-.32.52-.64.65-1.31 1.53-1.42a27.51 27.51 0 0 0 3-.46 54.59 54.59 0 0 0 5.56-1.94c.67-.23 1.74-.75 2.38-.24s.77 1.06 1.57 1.36a4.82 4.82 0 0 0 2.69 0 5 5 0 0 0 2-1.27 18.12 18.12 0 0 0 3.47-3.89 8.91 8.91 0 0 1 -3.37.96zm-130.51-1.05c.11 1-2-.2-2.31-.34a3.42 3.42 0 0 0 -2.4-.55 13.91 13.91 0 0 0 -3.4 1.55c-1.14.62-2.24 1.28-3.35 2-1.82 1.1-4 3.15-6.26 2.62a16.28 16.28 0 0 1 -2.86-1.11 8.89 8.89 0 0 1 -1.24-.6c-.54-.37-.31-.59 0-1.05a119.37 119.37 0 0 0 7.34-11.39c.41-.68.93-2.17 1.8-2.25 1-.09 2 1.05 2.8 1.46a5.06 5.06 0 0 0 3.13.45c1.15-.24 2-1 3.15-.44a17 17 0 0 1 3.78 2.15 2.18 2.18 0 0 1 .56 1.85c-.08 1.87-.96 3.73-.74 5.65zm28-11.23a63.5 63.5 0 0 1 -3.91 7.44 4.2 4.2 0 0 1 -2.71 2.22c-1.36.21-2.62-.59-3.95-.72-2.4-.24-4.09 2-6.42 2-1.4 0-2.46-1.11-3.44-2a22.61 22.61 0 0 1 -3-3.08c-1.8-2.35-1.92-5-1.31-7.84a76 76 0 0 1 2.76-9.47c.43-1.18.81-2.72 1.78-3.59s2.47-.48 3.49.32 1.79 1.95 3.1 2.29 2.56-.09 3.84-.06c1.76 0 2.5 1.25 3.66 2.38a35.51 35.51 0 0 0 3.54 2.78c2.36 1.75 3.9 4.33 2.59 7.29zm38.59 6.8a8.47 8.47 0 0 0 -1.25 2.73c-.26.94-.13 2.26-.55 3.11-.52 1-1.19.2-2 .4s-1.21.9-1.89 1.23a2.77 2.77 0 0 1 -2.85-.09c-.83-.53-1.37-1.62-2.48-1.28-.73.23-1.38.7-2.14.28a2.75 2.75 0 0 1 -1.06-1.56c-.25-.71-.39-1.45-.59-2.18a4.45 4.45 0 0 1 -.31-1.94 1.6 1.6 0 0 1 1-1.26c.9-.39 1.83.2 2.72-.14a2.65 2.65 0 0 0 1.44-2 2.85 2.85 0 0 1 .48-1.24c.41-.45 1.13-.66 1.6-1.07a16.62 16.62 0 0 0 2.06-2.44 4 4 0 0 1 2.63-1.46 5.76 5.76 0 0 1 2.18-.19c.62.18.81.84 1.1 1.36.65 1.15 1.3 2.25 2 3.33 1.5 2.13-.98 2.89-2.07 4.37zm21.77 6.72c-.34.66-1.6 1-2.2 1.32a13.37 13.37 0 0 0 -2.26 1.63c-.59.53-1.16 1.42-1.9 1.74s-1.73-.14-2.55-.17a6 6 0 0 1 -2.79-.45 18.79 18.79 0 0 1 -2.4-1.77 29.85 29.85 0 0 1 -4.66-3.78 3.72 3.72 0 0 1 0-4.76c.77-1.1 2-2.08 2.38-3.41s-.86-2.53-1.67-3.39-2.59-1.66-2.74-2.83c-.1-.73.81-1.5 1.29-2s1.28-1 2-.53c1.16.67 1.79 2.39 2.42 3.5-.09-1.2-.48-2.36-.6-3.56-.07-.65-.09-.84.6-.89a7.5 7.5 0 0 1 1.88.23 9.24 9.24 0 0 0 1.89.25c.56 0 1.11-.2 1.67-.19 1.26 0 1.57.87 2 1.9.55 1.45 1.71.62 2.84 1a3.54 3.54 0 0 1 2 2.77 2.74 2.74 0 0 1 -.6 2.59c-.85.89-2.26 1.13-2.92 2.2.74-.12 2.94-.84 3.46-.35.22.21.31 1 .42 1.27a3.73 3.73 0 0 0 .65 1.21 6.9 6.9 0 0 0 1 .74c.57.44.58 1 .63 1.65s.09 1.32.14 2a4.36 4.36 0 0 1 .04 2.04zm18.91-.42a18.1 18.1 0 0 1 -.65 2.4c-.57 1.25-1.46 1-2.43.27a18.72 18.72 0 0 0 -4.41-2.56 5 5 0 0 0 -2.7 0q-1.87.38-3.75.69a14.62 14.62 0 0 1 -2.54.41c-.91 0-1-.73-1-1.51a14.25 14.25 0 0 1 .27-2.25c.2-1.07.91-1.51 1.84-1.94a18.72 18.72 0 0 1 2.74-1c.93-.27 2-.33 2.61-1.15a17.15 17.15 0 0 0 1.47-2.82c.4-.8.79-2.2 1.64-2.65a7.26 7.26 0 0 1 2.91-.24 15.89 15.89 0 0 1 2.39 0c.7.1 1 .46 1.18 1.13a30.91 30.91 0 0 1 .64 3.73 27 27 0 0 1 .66 3.55 12.79 12.79 0 0 1 -.85 3.9z" fill="#fffdf8"/><g fill="#e6eadc"><path d="m52.78 2.29a26.07 26.07 0 0 0 4.12 3.36c1.18.77 2.71 1.44 4 .53 1.07-.76 1.36-2.1 2-3.17.72-1.29 2.1-2.01 3.1-3.01h-15.91a10.52 10.52 0 0 1 2.69 2.29z"/><path d="m5.41 7.4c1.09-.76 1.33-2.19 1.43-3.4a18.34 18.34 0 0 0 -5.41 7.1 4.54 4.54 0 0 0 2.33-1.6 8.37 8.37 0 0 1 1.65-2.1z"/><path d="m10.68 9c.5 1.19 2 1.63 3.1 2a30.14 30.14 0 0 1 4.56 1.24c2.29 1.08 4.61 3.47 7.36 2.55a4.93 4.93 0 0 0 2.71-2.37c.68-1.26.66-2.74 1-4.11a20.34 20.34 0 0 1 4.09-8.31h-8.28a77.45 77.45 0 0 0 -9.22.13 18.33 18.33 0 0 0 -3.16.67 4 4 0 0 0 -1.32.47 5.9 5.9 0 0 0 -.52 1.58c-.66 1.95-1.14 4.15-.32 6.15z"/><path d="m56.35 10.29c-1.05-.87-2.2-1.61-3.27-2.45s-2-2.14-3.12-3-2.34-.58-3.54-.47a4.75 4.75 0 0 1 -3.63-.8c-1.06-.82-1.9-2.06-3.29-2.34s-2.2.64-2.74 1.77a49 49 0 0 0 -3 9.07c-.71 2.72-1.6 5.76-.58 8.52.94 2.55 3.53 4.76 5.64 6.35 2.31 1.75 4.25-.08 6.47-.93a5.42 5.42 0 0 1 3.68.09c1.29.37 2.55.58 3.68-.33a11 11 0 0 0 2.35-3.43c.77-1.38 1.53-2.77 2.23-4.2a7.59 7.59 0 0 0 1.05-4.14 5.5 5.5 0 0 0 -1.93-3.71z"/><path d="m63.52 7.23c-.1 1.18 1.17 2.61 1.73 3.59a16.16 16.16 0 0 0 2.08 3.1c2 2.17 5.45 2.85 8.16 3.72 1.64.54 3.3 1.05 5 1.55a5.31 5.31 0 0 0 4.41-.19c1.94-1 4.12-3.59 3.49-6-.28-1.1-1.54-1.89-2.19-2.8a19.88 19.88 0 0 1 -1.88-3.49c-.55-1.23-1-2.49-1.61-3.71-.27-.59-.56-1.17-.88-1.73-.17-.27-.5-1.13-.83-1.27a2.69 2.69 0 0 0 -.85 0h-9.56a5.7 5.7 0 0 0 -1.43 0c-.27.09-.41.33-.62.57-.62.7-1.23 1.42-1.83 2.14s-1.19 1.45-1.78 2.19a5.13 5.13 0 0 0 -1.41 2.33z"/><path d="m87.49 7.86c-.17 2.16 2.9 3.75 4.69 3.09a9.1 9.1 0 0 1 1.6-.61 8 8 0 0 1 1.7 0 5.27 5.27 0 0 0 3.07-.81 5.3 5.3 0 0 1 2.79-.89c.92 0 2.2-.27 1.82-1.39a12.07 12.07 0 0 1 -.85-3.34c-.06-1.12.89-2.48.43-3.58-.25-.57.1-.19-.29-.32a3.21 3.21 0 0 0 -.82 0h-16c.48 1.31 1.15 2.51 1.5 3.86a12.25 12.25 0 0 1 .36 3.99z"/><path d="m105.36 4.15c-.06 1.1-.07 2.63.68 3.52 1 1.21 2 .26 2.64-.64 1-1.44 3.09-.94 4.66-1.07a6 6 0 0 0 4.6-2.1 3.86 3.86 0 0 0 .65-2.39c0-.35 0-1.31-.23-1.47s-1.26 0-1.61 0h-10.9c.03 1.41-.4 2.75-.49 4.15z"/><path d="m97.67 18c-.32-.56-.63-1.13-1-1.7a7.89 7.89 0 0 0 -.9-1.58c-.71-.7-2.64-.18-3.49.08-2.09.64-2.81 3.17-4.65 4.27-.48.29-.88.47-1.11 1s-.19.88-.35 1.3a2.16 2.16 0 0 1 -2 1.52c-.8 0-1.59-.33-2.31.2a1.78 1.78 0 0 0 -.66 1.52 8.59 8.59 0 0 0 .45 1.93 12.43 12.43 0 0 0 .68 2.25 2 2 0 0 0 1.22 1.21c.94.26 1.71-.74 2.6-.47s1.38 1.3 2.24 1.63a3 3 0 0 0 2.83-.53c.57-.42 1-1 1.8-.94.39 0 .73.3 1.1.18.53-.18.61-.82.66-1.29.24-2.15.73-4.41 2.45-5.87.63-.54 1.51-1.1 1.73-1.95.29-1.08-.8-1.86-1.29-2.76z"/><path d="m118.2 30.25a3.78 3.78 0 0 0 0-1.8c0-.73-.09-1.45-.15-2.18a2 2 0 0 0 -.52-1.57 11.78 11.78 0 0 1 -1.14-.82 3.55 3.55 0 0 1 -.61-1.09c-.13-.34-.21-1.14-.46-1.39-.48-.49-2.76.23-3.46.35.66-1.07 2.08-1.31 2.92-2.2a2.74 2.74 0 0 0 .6-2.59 3.57 3.57 0 0 0 -1.86-2.72c-1.14-.5-2.4.39-3-1.1-.36-1-.64-1.82-1.83-1.9a12.66 12.66 0 0 0 -1.64.18 8.25 8.25 0 0 1 -2-.24 7.07 7.07 0 0 0 -1.88-.23c-.66.06-.67.27-.6.89.13 1.2.51 2.36.6 3.56a13.42 13.42 0 0 0 -2-3.2c-1.25-1.2-2.74.29-3.46 1.42s.88 2.17 1.69 2.84a7.25 7.25 0 0 1 2.48 3.19c.36 1.3-.86 2.5-1.61 3.41-1 1.22-2.1 2.78-1.55 4.44s2.64 2.93 4 4 3.14 3 5 3.23c1.05.13 2.08.13 3.14.3s1.59-.58 2.27-1.26a13.36 13.36 0 0 1 2.43-1.94c.69-.44 2.26-.83 2.64-1.58z"/><path d="m137.84 24.91c-.27-1.09-.45-2.2-.63-3.31a14.21 14.21 0 0 0 -.62-3.32c-.53-1.21-2.22-.79-3.29-.77a9 9 0 0 0 -3 .18c-.93.38-1.34 1.89-1.75 2.71a20.85 20.85 0 0 1 -1.39 2.7c-.62.88-1.55 1-2.52 1.22-1.64.45-4.38 1.07-4.75 3-.18 1-.89 3.6.6 3.76a11 11 0 0 0 2.66-.41c1.19-.2 2.38-.42 3.57-.65a5.46 5.46 0 0 1 2.75-.12 11.14 11.14 0 0 1 2.53 1.26c.86.52 1.66 1.15 2.53 1.65 1.17.68 1.79 0 2.15-1.1.31-1 .5-2 .79-2.93a7.44 7.44 0 0 0 .37-3.87z"/><path d="m123 21.8c.79-.06 1.59-1.06 2.12-1.57.75-.72 1.46-1.49 2.15-2.26 1.35-1.51 2.64-3.07 4.06-4.51a25.2 25.2 0 0 1 2.16-2 26.92 26.92 0 0 0 2.19-1.62 3.46 3.46 0 0 0 .74-2.61c0-1.26.09-2.52.14-3.78 0-.91.24-2-.33-2.74a1.55 1.55 0 0 0 -1.59-.71h-12.83c.17 1.6.44 3.46-.48 4.88a13.1 13.1 0 0 1 -3.07 3c-1.53 1.21-5.74 3-3.23 5.27a12.15 12.15 0 0 1 2.6 2.51 5.06 5.06 0 0 1 .66 3c0 .75-.22 1.94.55 2.4.54.32 1.33.13 1.92.18.76.04 1.54.6 2.24.56z"/><path d="m80.54 34.9a2.47 2.47 0 0 1 -.34-1.54 8.07 8.07 0 0 1 .55-1.24c.51-1.26-.25-1.89-1.31-2.42-.8-.4-2-1-1.54-2.11.35-.89 1.1-1.52 1.1-2.59 0-2.73-3.36-.67-4.48-.17-.4.18-1.25.63-1.59.15s0-1.08.14-1.45c.43-1.68.58-3.84-1.51-4.45-1-.29-2.11-.09-3.14-.34a8.4 8.4 0 0 1 -2.74-1.37c-.82-.56-1.61-1.19-2.47-1.7a7.54 7.54 0 0 0 -1.18-.57 4.83 4.83 0 0 0 -.74-.22 4.34 4.34 0 0 0 -.52-.08c-.27-.1-.37 0-.3.29a7.14 7.14 0 0 0 -.2 1.54c-.09.56-.2 1.12-.34 1.67a8.7 8.7 0 0 1 -1.41 3.15c-.9 1.2-1.88 1.88-2.35 3.37a15.32 15.32 0 0 1 -1.5 3.6c-.76 1.24-1.87 2.25-2.59 3.53a12.74 12.74 0 0 0 -1.26 4.28h29.94a3.4 3.4 0 0 0 -.22-1.33z"/><path d="m99 33.08a3.5 3.5 0 0 0 -1.9 0l-2.17.3-4.36.62c-1.44.2-2.89.41-4.33.63-1.12.17-2 .35-2.24 1.61h17.41c-.61-.92-1.41-2.66-2.41-3.16z"/><path d="m134 34.84a8.09 8.09 0 0 0 -2-.88 11.65 11.65 0 0 0 -2.39-.68 8.05 8.05 0 0 0 -4.49.6 13 13 0 0 1 -4.58 1.12c-1.15 0-3.6-.58-3.66 1.24h18.05a1.63 1.63 0 0 0 -.93-1.4z"/><path d="m46.72 33.92c-.53-1.25-2.54-1.53-3.62-2.06a32.91 32.91 0 0 0 -5-2.46 15.23 15.23 0 0 0 -5.67-.27c-1.09.09-1.24.45-1.44 1.5s-.42 2.16-.62 3.24a7.73 7.73 0 0 0 -2.8-3.17 4.08 4.08 0 0 0 -2-.78 5.54 5.54 0 0 0 -2.45 1c-1.6.85-3.17 1.76-4.75 2.65-1.08.61-3 1.23-3.71 2.33a29.88 29.88 0 0 0 5.59.33h25.89c.1 0 .43.06.52 0 .34-.23.23-1.91.06-2.31z"/><path d="m9.81 23.16a18.41 18.41 0 0 0 2-3.59 11.84 11.84 0 0 0 1.36-3.66c.11-2-3.13-2.75-4.59-3.14a4.72 4.72 0 0 0 -3.27.17 12.76 12.76 0 0 1 -4.18 1c-.5 0-.56 0-.74.42a5.88 5.88 0 0 0 -.21 1.11 17.17 17.17 0 0 0 -.18 2.46 18.63 18.63 0 0 0 .42 4.07 18.35 18.35 0 0 0 4.08 8c.91-.95 1.63-2.13 2.45-3.16.96-1.2 1.92-2.44 2.86-3.68z"/><path d="m30 20.5q-1.68-1-3.42-2c-1.23-.65-1.81-.25-3.05.14a4.93 4.93 0 0 1 -3.28-.18c-.94-.39-1.65-1.29-2.65-1.54-1.17-.3-1.5.95-2 1.78-.58 1-1.16 2-1.75 2.93-1.21 2-2.44 4-3.74 5.92-.59.88-1.2 1.76-1.84 2.61-.2.27-.74.74-.63 1.1s.88.5 1.22.64c1.79.77 3.73 2 5.66 1 2.37-1.22 4.54-2.82 6.87-4.11 1.89-1 3.81-2.37 5.92-1.29.58.29 2.2 1.4 2.52.45a8.56 8.56 0 0 0 0-1.25c0-.48.15-1 .24-1.45.23-1.07 1.19-3.96-.07-4.75z"/></g></svg>