<svg xmlns="http://www.w3.org/2000/svg" xmlns:xlink="http://www.w3.org/1999/xlink" viewBox="0 0 166.8 36.24"><defs><style>.a{fill:#fff;}.b{fill:none;opacity:0.6;}.c{mask:url(#a);}.d{opacity:0.45;}.e{fill:#bfddbc;}.f{fill:#89c693;}.g{fill:#dfeddc;}.h{fill:#c14f96;}.i{fill:#9dbf9a;}.j{fill:#a0e2ba;}.k{fill:#6fa983;}.l{fill:#d45b9c;}.m{fill:#fbd977;}.n{fill:#24a194;}</style><mask id="a" x="-5.91" y="-3.29" width="170.08" height="42.52" maskUnits="userSpaceOnUse"><path class="a" d="M-5.91,18h0c0-11.74,7.47-21.26,16.7-21.26H147.46c9.23,0,16.7,9.52,16.7,21.26s-7.47,21.26-16.7,21.26H10.79C1.56,39.23-5.91,29.71-5.91,18Z"/></mask></defs><title>tropical</title><path class="b" d="M148.68,36.24H19c-6.57,0-12.67-2.83-16.25-8.5A18.28,18.28,0,0,1,10.72,1.59C14.1.06,17.54,0,21.12,0H148.55a18.45,18.45,0,0,1,10.3,3.14,18.12,18.12,0,0,1-10.17,33.1Z"/><g class="c"><g class="d"><path class="e" d="M29.88,0c1.49,2.3,2.9,4.65,4.2,7.07C32.94,4.68,31.71,2.32,30.37,0"/><path class="e" d="M33.17,4.43c-.18-.29-1-1.79-1.24-.82-.14.61.92,2.22,1.17,2.75a31.53,31.53,0,0,0,2.16,4.11,12.06,12.06,0,0,1,1.92,3.4A32.81,32.81,0,0,0,33.17,4.43Z"/><path class="e" d="M31.09,1.57c-.92-.4-.78,4-.75,4.36a24.67,24.67,0,0,0,1.89,6.84A56.34,56.34,0,0,0,31.9,5.9c-.09-.88-.23-1.76-.33-2.64C31.52,2.87,31.54,1.76,31.09,1.57Z"/><path class="e" d="M28.7,0a18,18,0,0,0-.15,5.54A14.07,14.07,0,0,0,28.88,8a5.08,5.08,0,0,1,.39,2,28.68,28.68,0,0,0,.33-5.93A12.64,12.64,0,0,0,29.27,0"/><path class="e" d="M26.91,0a51.42,51.42,0,0,0-.51,10.15c-.06-1.5.74-3.15,1-4.64A42.33,42.33,0,0,0,27.8,0"/><path class="e" d="M31.43,1.4c-.06,1.32,3.11,2,4,2.24,1.76.58,3.52,1.13,5.29,1.69A37.77,37.77,0,0,0,35.6,2.67C34.39,2.11,32.82,1.18,31.43,1.4Z"/><path class="e" d="M31,0a15.24,15.24,0,0,0,4.42,1.09,36.35,36.35,0,0,0,5,.38A18.87,18.87,0,0,0,36.15,0"/><path class="e" d="M23.89,0c-.16,1.25-.28,2.51-.4,3.77a10.44,10.44,0,0,1-.28,3A24.9,24.9,0,0,0,25,0"/><path class="e" d="M20.76,0c-.33,1.71-.62,3.43-.85,5.15A29.27,29.27,0,0,0,22.12,0"/><path class="f" d="M139.26.11a2.88,2.88,0,0,0-.88,0c-.44.2-1.11,1.59-1.39,2q-1.32,2-2.53,4a94.84,94.84,0,0,0-4.58,8.7A108.27,108.27,0,0,1,139.26.11Z"/><path class="f" d="M130.77,12.12a33.25,33.25,0,0,0-3.93,9.48,12.1,12.1,0,0,1,1.9-3.42,33.5,33.5,0,0,0,2.12-4.13c.25-.55,1.29-2.14,1.14-2.77C131.76,10.3,130.94,11.84,130.77,12.12Z"/><path class="f" d="M132.83,9.24c-.43.18-.42,1.24-.46,1.6-.11.92-.23,1.83-.32,2.74a60.61,60.61,0,0,0-.27,6.87,24,24,0,0,0,1.83-6.86C133.64,13.24,133.74,8.84,132.83,9.24Z"/><path class="f" d="M134.34,12a24.49,24.49,0,0,0,.38,5.67,5.49,5.49,0,0,1,.4-2.14,15,15,0,0,0,.31-2.83A14.23,14.23,0,0,0,135,7.06C133.85,8,134.38,10.72,134.34,12Z"/><path class="f" d="M136.32,11.09a30.5,30.5,0,0,0,.55,3.66,11.83,11.83,0,0,1,.73,3,47.44,47.44,0,0,0-1.33-13.54A28,28,0,0,0,136.32,11.09Z"/><path class="f" d="M127.79,10.62a30,30,0,0,0-4.52,2.47c1.76-.57,3.52-1.14,5.27-1.74.85-.29,4-1,3.94-2.28C130.91,8.83,129.17,10,127.79,10.62Z"/><path class="f" d="M123.5,9.24a34.87,34.87,0,0,0,6.52-.7c1.38-.27,3.27-.57,4.09-1.86a12.13,12.13,0,0,0-2.6.35c-.92.14-1.84.29-2.75.47A20.57,20.57,0,0,0,123.5,9.24Z"/><path class="f" d="M132.94,4.63a33.32,33.32,0,0,0-4.67.6,20.18,20.18,0,0,0-2.2.54,10,10,0,0,1-1.93.59c2.76-.26,5.51-.48,8.27-.76.36,0,2.21,0,2.34-.55C134.93,4.24,133.3,4.61,132.94,4.63Z"/><path class="f" d="M135.69,2.42a78.32,78.32,0,0,0-11.15.37c2.81.08,5.59.54,8.39.54A8.45,8.45,0,0,0,136.29,3C137.31,2.49,136.16,2.44,135.69,2.42Z"/><path class="f" d="M136.44.39C134.72.46,133,.21,131.3.16A46.43,46.43,0,0,0,126,.39q4.52.6,9.06.93c.69.06,2.18.35,2.59-.44S136.88.37,136.44.39Z"/><path class="f" d="M140.4,11c-.22-2.12-.46-4.24-.86-6.34-.2-1.05-.17-3-1-3.74-.81,1.88,0,4.56.32,6.49a25.77,25.77,0,0,0,1.91,7,4.2,4.2,0,0,1-.16-1.5C140.55,12.29,140.47,11.66,140.4,11Z"/><path class="f" d="M142.6,9.77A29.36,29.36,0,0,0,144,12.7c-.39-2.77-1-5.53-1.54-8.27a27,27,0,0,0-1-3.74c-.17-.45-.13-.48-.51-.58a3.84,3.84,0,0,0-.83,0A29.68,29.68,0,0,0,142.6,9.77Z"/><path class="f" d="M146.22,6.8l-1.56-5c-.14-.45-.26-1.49-.66-1.67a3.15,3.15,0,0,0-1,0A21.71,21.71,0,0,0,146.22,6.8Z"/><path class="f" d="M147.74.11h-.92a28.11,28.11,0,0,0,1.75,2.94C148.32,2.06,148,1.09,147.74.11Z"/><path class="f" d="M41.48,36.35h.7a71.65,71.65,0,0,0-11.7-16A87,87,0,0,1,41.48,36.35Z"/><path class="f" d="M29.64,18.92a26.5,26.5,0,0,0-3.38-2.77c1.13.78,1.78,2.18,2.67,3.2s1.82,2,2.77,2.94c.2.2.61.76.91.7.47-.09,0-.64-.11-.84A23.69,23.69,0,0,0,29.64,18.92Z"/><path class="f" d="M32.38,23.2a47.18,47.18,0,0,0-6.68-3,16.63,16.63,0,0,0,6.05,3.92c.3.09,1.77.65,2,.23S32.65,23.36,32.38,23.2Z"/><path class="f" d="M31.28,24.51a18.81,18.81,0,0,0-4.34-1.34,4.06,4.06,0,0,1,1.41.86,12.43,12.43,0,0,0,2,1.06,11.72,11.72,0,0,0,4.41,1.35C34.44,25.31,32.21,24.91,31.28,24.51Z"/><path class="f" d="M28.72,25.65A13,13,0,0,1,26,25.28a38,38,0,0,0,10.5,2.9A25.07,25.07,0,0,0,28.72,25.65Z"/><path class="f" d="M33.65,15.93c-.08,1.49-.16,3-.22,4.46,0,.75-.44,3.25.56,3.58.55-1,.3-2.36.23-3.39A31.59,31.59,0,0,0,33.65,15.93Z"/><path class="f" d="M35.05,22.58c-.16,1-.4,2.38.27,3.29a17.81,17.81,0,0,0,.91-4.18,16,16,0,0,0,.22-4.48A28.47,28.47,0,0,0,35.05,22.58Z"/><path class="f" d="M36.62,26.85c.37-.09.43-.83.52-1.13.23-.79.47-1.56.65-2.36a25.41,25.41,0,0,0,.45-2.61,15,15,0,0,1,.18-2.23c-.49,1.73-1,3.46-1.48,5.2C36.85,24.06,35.77,27.05,36.62,26.85Z"/><path class="f" d="M37.49,28.85c.3.5.77-1.1.84-1.26.33-.81.65-1.62,1-2.44.64-1.74,1.21-3.51,1.69-5.3-.66,1.59-1.49,3.11-2.21,4.68a24.14,24.14,0,0,0-.92,2.31C37.69,27.3,37.2,28.37,37.49,28.85Z"/><path class="f" d="M38.62,30.2c.44.58.59-.34.68-.64a17.15,17.15,0,0,1,1-2.35,38,38,0,0,0,2.06-5.57q-1.26,2.3-2.41,4.65C39.55,27.05,38,29.33,38.62,30.2Z"/><path class="f" d="M39.7,32.32c.68,0,1.81-2.53,2.09-3a16.5,16.5,0,0,0,2.27-5.88q-1.16,2.38-2.49,4.67C40.91,29.21,39.39,30.91,39.7,32.32Z"/><path class="f" d="M40.2,33.57l0,0"/><path class="f" d="M27.63,28.61a9.45,9.45,0,0,1,2.61.7c1.07.29,2.14.58,3.22.82.9.21,1.81.36,2.71.54.61.13,1.54.45,2.15.14-1.11-1.08-3.12-1.23-4.56-1.54A21.13,21.13,0,0,0,27.63,28.61Z"/><path class="f" d="M30.56,31.32a22.62,22.62,0,0,0-2.6.23c2.29.53,4.61.91,6.93,1.27.79.13,4.09,1,4.67-.08C36.92,31.46,33.45,31.22,30.56,31.32Z"/><path class="f" d="M41.47,34.46a8.74,8.74,0,0,0,1.92-3.11,17.48,17.48,0,0,0,1.44-4.29A54.08,54.08,0,0,1,42,32.3a7.18,7.18,0,0,0-.68,1.46C41.23,34,41,34.85,41.47,34.46Z"/><path class="f" d="M38.64,34.5a19.12,19.12,0,0,0-6.91.38c2.25.15,4.51.38,6.76.45.32,0,1.66,0,1.56-.56C40,34.39,38.9,34.52,38.64,34.5Z"/><path class="f" d="M46.65,29.59c-1,2.34-2.59,4.39-3.52,6.76.26,0,.86.12,1.08,0,.38-.2.72-1.3.9-1.69A19.55,19.55,0,0,0,46.65,29.59Z"/><path class="f" d="M47.24,34.6a5.16,5.16,0,0,0,.32-1.5,13.92,13.92,0,0,1-1.31,3.25c.55,0,.65.13.89-.32a6.89,6.89,0,0,0,.49-2.34Z"/><path class="g" d="M55.67,15.31a72.55,72.55,0,0,0-1.6,11.37c-.11,1.83-.14,3.67-.1,5.5,0,1,.07,2,.13,3,0,.24,0,1.06.15,1.15a1.81,1.81,0,0,0,.57,0A87.21,87.21,0,0,1,55.67,15.31Z"/><path class="g" d="M55,17.44c0,.24-.28,1.52.32,1.19.4-.22.53-1.78.63-2.19a29.29,29.29,0,0,0,.67-3.72A10.55,10.55,0,0,1,57,9.5,26,26,0,0,0,55,17.44Z"/><path class="g" d="M54.86,20.27c.39.7,2.47-2.18,2.65-2.46a19.76,19.76,0,0,0,2.12-5.19,46.78,46.78,0,0,0-3.16,4.51C56.23,17.52,54.56,19.73,54.86,20.27Z"/><path class="g" d="M57.15,19.25c-.58.83-2.26,2.34-1.95,3.47a11.51,11.51,0,0,0,2.94-3.31,14.16,14.16,0,0,0,1.22-2,4.43,4.43,0,0,1,.79-1.58A20,20,0,0,0,57.15,19.25Z"/><path class="g" d="M59.93,18.87a25.14,25.14,0,0,0-5.29,6.25,38,38,0,0,0,7.4-8A12.21,12.21,0,0,1,59.93,18.87Z"/><path class="g" d="M53.91,18c-1.06-1.63-2.17-3.22-3.27-4.81a30.2,30.2,0,0,0,2,4.25c.48.93,1,2.24,2,2.77C55.05,19.63,54.22,18.47,53.91,18Z"/><path class="g" d="M48.92,15.75a16.23,16.23,0,0,0,2.5,3.64,17.57,17.57,0,0,0,3,3.13c.11-1.37-1.24-2.66-2.08-3.58A26.65,26.65,0,0,0,48.92,15.75Z"/><path class="g" d="M53.62,23.12c-1.87-1.76-3.79-3.48-5.69-5.22a20.76,20.76,0,0,1,1.68,2.24,26.65,26.65,0,0,0,2.19,2.31c.41.38,1.17,1.35,1.72,1.51C54.31,24.2,54,23.47,53.62,23.12Z"/><path class="g" d="M53.46,25.27c-2.07-2-4.69-3.24-7-4.9,1.58,1.48,3.24,2.88,5,4.2a12.17,12.17,0,0,0,2.28,1.68C54.64,26.6,53.8,25.59,53.46,25.27Z"/><path class="g" d="M52.86,26.66q-3.26-2.13-6.62-4.05a54,54,0,0,0,5.54,4.23,11.82,11.82,0,0,1,1.2.91c.16.14.39.5.61.51C54.61,28.26,53.1,26.82,52.86,26.66Z"/><path class="g" d="M51.75,28.45a68.92,68.92,0,0,1-6-3.42,16.39,16.39,0,0,0,4.86,3.73c.5.27,2.94,1.94,3.52,1.55C53.75,29.34,52.6,28.87,51.75,28.45Z"/><path class="g" d="M54.32,31.64v0"/><path class="g" d="M54.48,28.31c.64-.06,1.23-.76,1.67-1.17.7-.66,1.42-1.29,2.1-2s1.47-1.5,2.19-2.26c.56-.6,1.24-1.73,2-2.1a20.52,20.52,0,0,0-4.69,3.61C56.61,25.49,54.86,26.74,54.48,28.31Z"/><path class="g" d="M57.6,27.3a15.74,15.74,0,0,0-3.17,3.3c.49.27,1.33-.34,1.72-.58a19.92,19.92,0,0,0,2.41-1.9c1.75-1.5,3.48-3,5.12-4.63A24.3,24.3,0,0,0,57.6,27.3Z"/><path class="g" d="M52.76,31.84c-1.92-1.12-4-2-5.79-3.31a20.17,20.17,0,0,0,5.32,4c.25.13,1.7.91,1.67.35C54,32.53,53,32,52.76,31.84Z"/><path class="g" d="M56.14,31.61c-.21.16-1.09.55-1.07.88,0,.71,1.46-.14,1.69-.29,1.85-1.23,3.64-2.6,5.46-3.89A18.93,18.93,0,0,0,56.14,31.61Z"/><path class="g" d="M55.1,35.75c-1,1.32,1.7-.3,1.92-.44,1.68-1.08,3.31-2.24,4.87-3.47C59.62,32.6,56.59,33.77,55.1,35.75Z"/><path class="g" d="M53.89,36c-2.15-1.82-4.86-2.76-7.14-4.37a19.59,19.59,0,0,0,4.42,3.8,4.87,4.87,0,0,0,1.8.91,10.43,10.43,0,0,0,1.25,0A2.13,2.13,0,0,0,53.89,36Z"/><path class="g" d="M58.77,36.09l-.64.26a6,6,0,0,0,1.2,0c.64-.13,1.3-.87,1.82-1.3A8.44,8.44,0,0,1,58.77,36.09Z"/><path class="g" d="M48.87,36.22l-.8-.57c.44.57.57.7,1.25.7a11.1,11.1,0,0,1-1.5-1.24A5.26,5.26,0,0,0,48.87,36.22Z"/><path class="e" d="M62,.2h-.63A87.13,87.13,0,0,1,65.1,18.06,70.78,70.78,0,0,0,62,.2Z"/><path class="e" d="M64.69,14.68c-.32.15-.14,1.1-.13,1.37,0,.94.06,1.88.13,2.83.13,1.64.85,3.52.6,5.15a26.56,26.56,0,0,0,.23-5.91C65.5,17.88,65.32,14.4,64.69,14.68Z"/><path class="e" d="M63.67,13.87C62.25,16.21,62,19,62,21.69a47.92,47.92,0,0,0,2.27-6.59c.12-.45.56-1.34.42-1.8C64.41,12.49,63.87,13.54,63.67,13.87Z"/><path class="e" d="M61.72,14.57A13,13,0,0,0,61,17a4.57,4.57,0,0,1-.36,1.73,26.27,26.27,0,0,0,2.22-4.63c.33-.8,1.28-2.44.77-3.31A10.8,10.8,0,0,0,61.72,14.57Z"/><path class="e" d="M60.06,15.73a25,25,0,0,0,3.49-7.4A37.77,37.77,0,0,0,58.47,18,12.76,12.76,0,0,1,60.06,15.73Z"/><path class="e" d="M64.9,13c-.44.94,1.68,2.4,2.22,2.87,1.12,1,2.25,1.93,3.39,2.89a30.36,30.36,0,0,0-2.9-3.51C66.87,14.5,66,13.31,64.9,13Z"/><path class="e" d="M65.51,11.4a5.11,5.11,0,0,0-1.09-.62c.24,1.31,1.76,2.17,2.79,2.83a27.92,27.92,0,0,0,4.29,2.27A22.73,22.73,0,0,0,65.51,11.4Z"/><path class="e" d="M68.92,11.3a34.83,34.83,0,0,0-3.16-1.76c-.27-.13-.77-.53-1.09-.4s-.13.49.1.68a19.51,19.51,0,0,0,3.35,1.78l3.78,2C70.84,13,69.94,12,68.92,11.3Z"/><path class="e" d="M64.53,7.15c-.47-.18-1.27-.37-.51.35a8.26,8.26,0,0,0,2.56,1.26c2,.78,4.09,1.27,6.1,2A61.2,61.2,0,0,0,64.53,7.15Z"/><path class="e" d="M64.59,5.41c-.34-.15-1.11-.76-1.06,0s1.37,1,1.89,1.15c2.28.73,4.58,1.41,6.89,2a37.2,37.2,0,0,0-3.68-1.7C67.3,6.35,65.89,6,64.59,5.41Z"/><path class="e" d="M65.12,3.45c-.48-.1-2-.74-2.39-.29.75,1.11,2.7,1.18,3.88,1.44,1.88.41,3.75.91,5.59,1.48A18.45,18.45,0,0,0,65.12,3.45Z"/><path class="e" d="M62.16,1.94V2"/><path class="e" d="M61.25,7.28C60.43,8.49,59.71,9.75,59,11l-1,1.85a6.13,6.13,0,0,1-.86,1.62A20.28,20.28,0,0,0,60.61,10c.84-1.37,2.3-3.14,2.26-4.82C62.1,5.48,61.67,6.65,61.25,7.28Z"/><path class="e" d="M60.59,4.23a33.21,33.21,0,0,0-2.76,3.91c-.9,1.35-1.78,2.71-2.59,4.1A24.32,24.32,0,0,0,59.4,8a17.14,17.14,0,0,0,2.92-5C61.71,2.82,60.94,3.85,60.59,4.23Z"/><path class="e" d="M62.38.41c-.84.13,1.53,1,1.78,1.07A57.7,57.7,0,0,1,70.07,3a17.83,17.83,0,0,0-4-1.86A8.89,8.89,0,0,0,62.38.41Z"/><path class="e" d="M61,1.15C60,1,58.94,2.91,58.43,3.52l-3,3.69a16.63,16.63,0,0,0,4-3.58C59.59,3.46,61.6,1.22,61,1.15Z"/><path class="e" d="M58.93.2c-.63,0-1.07-.12-1.52.29a22.14,22.14,0,0,0-2.62,3.23A22.49,22.49,0,0,0,58.93.2Z"/><path class="e" d="M54.88.2c-.11,0-.18.06-.2.22Z"/><path class="e" d="M98.82.11c-.74,0-.81,0-1.17.65q-.78,1.52-1.5,3.06c-.91,1.95-1.75,3.93-2.5,5.95a84.41,84.41,0,0,0-3.54,12.57A101.06,101.06,0,0,1,98.82.11Z"/><path class="e" d="M90.34,19.73a30.86,30.86,0,0,0-1.52,9.43,11.1,11.1,0,0,1,1-3.45,30.72,30.72,0,0,0,1.08-4.35c.09-.48.69-2.23.4-2.69C90.79,17.94,90.44,19.44,90.34,19.73Z"/><path class="e" d="M92.5,17.77c-.13-.33-.48-1.58-1-1-.35.39,0,1.61.08,2.08a58.57,58.57,0,0,0,1.46,8.21C93.49,24,93.71,20.72,92.5,17.77Z"/><path class="e" d="M95,21.48c-.22-2.3-.57-5.28-1.9-7.24-.74.91.05,3,.29,4a29.82,29.82,0,0,0,1.72,5.71C94.78,23.18,95.08,22.25,95,21.48Z"/><path class="e" d="M95.15,17.6a26,26,0,0,0,1.28,3.2,10.58,10.58,0,0,1,1.31,2.6,44.14,44.14,0,0,0-4.11-12A25.87,25.87,0,0,0,95.15,17.6Z"/><path class="e" d="M87.32,19a30.18,30.18,0,0,0-3.57,3.21c1.45-.88,2.9-1.76,4.33-2.66.74-.47,3.5-1.77,3.16-2.95C89.76,16.73,88.44,18.17,87.32,19Z"/><path class="e" d="M83.14,18.69a32.51,32.51,0,0,0,5.59-2c1.23-.56,3-1.25,3.46-2.64a11.84,11.84,0,0,0-2.31.89c-.78.31-1.56.64-2.33,1A19.06,19.06,0,0,0,83.14,18.69Z"/><path class="e" d="M90.7,12.49A30.35,30.35,0,0,0,86.59,14a37.18,37.18,0,0,1-3.49,1.91c2.46-.84,4.94-1.64,7.4-2.49.36-.13,2-.43,1.91-1S91,12.39,90.7,12.49Z"/><path class="e" d="M92.71,9.89a72.39,72.39,0,0,0-10,2.73c2.47-.51,5-.7,7.46-1.26a10.49,10.49,0,0,0,3.06-1c.2-.12.63-.41.38-.65S92.86,9.86,92.71,9.89Z"/><path class="e" d="M93,7.89c-1.55.44-3.15.58-4.71.9a41.21,41.21,0,0,0-4.74,1.34Q87.71,9.7,91.88,9c.62-.1,2.12-.16,2.3-1S93.38,7.77,93,7.89Z"/><path class="e" d="M92.69,5.54a21.32,21.32,0,0,0-8.6,1.76q3.33-.5,6.69-.71c1.41-.09,3.64.19,4.72-1C95.12,5,93.27,5.51,92.69,5.54Z"/><path class="e" d="M96.36,4.34v0"/><path class="e" d="M98.83,16.69c-.63-1.82-1.28-3.64-2.07-5.4-.41-.94-.84-2.81-1.8-3.33-.34,1.9,1,4.17,1.72,5.88a23.38,23.38,0,0,0,3.19,5.82A11.37,11.37,0,0,1,98.83,16.69Z"/><path class="e" d="M97.76,7.25c-.33-.51-1-1.82-1.77-1.76a20.4,20.4,0,0,0,2.55,6.43,28.08,28.08,0,0,0,3.94,5.49c-.69-1.77-1.47-3.5-2.27-5.22A37.21,37.21,0,0,0,97.76,7.25Z"/><path class="e" d="M96.38,2.53c-1.27-.41-3,0-4.3.21a21.18,21.18,0,0,0-5,1.43,71.06,71.06,0,0,1,7.14-.73A7.77,7.77,0,0,0,96,3.12C96.21,3,97,2.75,96.38,2.53Z"/><path class="e" d="M97.82,3.63c-.6,0,0,.9.15,1.1.46.74.88,1.5,1.35,2.23a19.17,19.17,0,0,0,3.87,4.64q-1.44-2.43-2.87-4.87C99.86,6,98.94,3.66,97.82,3.63Z"/><path class="e" d="M100.38,2.9a26.59,26.59,0,0,0,4.13,4.79c-.88-1.66-1.82-3.29-2.83-4.87-.47-.74-.93-1.5-1.45-2.2-.4-.55-.5-.51-1.15-.51A7.43,7.43,0,0,0,100.38,2.9Z"/><path class="e" d="M94.53.11H91.71c-.52,0-1,0-1.56,0a5.35,5.35,0,0,0-1.84.66C90.36.36,92.46.32,94.53.11Z"/><path class="e" d="M105.23,3.92c-.33-.64-.66-1.28-1-1.92a6.64,6.64,0,0,0-1-1.73c-.34-.3-1-.16-1.52-.16C102.79,1.36,104.48,2.45,105.23,3.92Z"/><path class="h" d="M117.61.11a5.33,5.33,0,0,0-1.13,0,13.38,13.38,0,0,0-3,1.68c-2,1.16-3.9,2.41-5.78,3.73A95.87,95.87,0,0,1,117.61.11Z"/><path class="h" d="M109.55,3.89a29,29,0,0,0-7.12,5.48,10.33,10.33,0,0,1,2.88-1.75,28.86,28.86,0,0,0,3.4-2.18c.4-.29,2-1.1,2.13-1.63C111.1,2.94,109.83,3.74,109.55,3.89Z"/><path class="h" d="M112.37,2.6c-.44-.05-.9.82-1.11,1.1-.49.67-1,1.33-1.48,2a50.64,50.64,0,0,0-3.1,5A21.48,21.48,0,0,0,111,6.38C111.19,6.07,113.24,2.69,112.37,2.6Z"/><path class="h" d="M112.32,5.35a21.3,21.3,0,0,0-2.19,4.47c.21-.63.92-1.07,1.35-1.56a15.89,15.89,0,0,0,1.43-2A12,12,0,0,0,115,1.9C113.72,2.07,112.9,4.41,112.32,5.35Z"/><path class="h" d="M113.12,8.31a14.18,14.18,0,0,1-.86,2.87A41.52,41.52,0,0,0,117.17.32,27.13,27.13,0,0,0,113.12,8.31Z"/><path class="h" d="M103.43,1.35c1.59.33,3.18.67,4.78,1,.8.16,3.44,1,4,0-.93-.74-2.47-.72-3.59-.82A34.33,34.33,0,0,0,103.43,1.35Z"/><path class="h" d="M114.46,1.22C112.62,0,110.67.11,108.59.11,110.14.75,112.79,2.09,114.46,1.22Z"/><path class="h" d="M114.67.11c.22,0,1.09.14,1.07-.14"/><path class="h" d="M115.73.11h-1.06C114.9.21,115.63.57,115.73.11Z"/><path class="h" d="M116.13,10a9,9,0,0,1,1.05-2.36c.36-.81.73-1.63,1.08-2.46.7-1.65,1.36-3.35,1.9-5.06-.75,0-.86-.11-1.19.63-.43,1-.79,1.94-1.16,2.91A22.86,22.86,0,0,0,116.13,10Z"/><path class="h" d="M119.56,7.28a24.65,24.65,0,0,0-.19,2.85c.7-1.75,1.32-3.53,1.91-5.32a35.25,35.25,0,0,0,1.41-4.7,3.57,3.57,0,0,0-1.13,0c-.42.19-.62,1.32-.77,1.79A27.6,27.6,0,0,0,119.56,7.28Z"/><path class="h" d="M123.61,6.61c.48-2.17,1-4.33,1.46-6.5a2.38,2.38,0,0,0-.8,0c-.39.18-.41,1.21-.48,1.67A16.64,16.64,0,0,0,123.61,6.61Z"/><path class="h" d="M127,4.78c.43-1.54.78-3.1,1.09-4.67a3.09,3.09,0,0,0-.68,0c-.48.11-.34.15-.39.78A24.06,24.06,0,0,0,127,4.78Z"/><path class="h" d="M130,2.67c.24-.85.48-1.7.7-2.56H130A7.85,7.85,0,0,1,130,2.67Z"/><path class="e" d="M163.57,28.16l-.37.53"/><path class="e" d="M163.2,28.69l.37-.53a75.76,75.76,0,0,0-25.25-8A87.45,87.45,0,0,1,163.2,28.69Z"/><path class="e" d="M140.56,20.17a26.5,26.5,0,0,0-8.18-.69,10.36,10.36,0,0,1,3.19.65,29.55,29.55,0,0,0,3.86.62c.4,0,1.83.43,2.15.13C142.07,20.41,140.8,20.23,140.56,20.17Z"/><path class="e" d="M141.56,21.16a45.62,45.62,0,0,0-7.1,1.81,16.33,16.33,0,0,0,7.25-.77c.29-.11,1.81-.61,1.59-1.09S141.92,21.1,141.56,21.16Z"/><path class="e" d="M141.53,22.86a19.5,19.5,0,0,0-4.23,1.67,3.93,3.93,0,0,1,1.64-.2,13.38,13.38,0,0,0,2.41-.49,11.33,11.33,0,0,0,4.1-1.66C144.49,21.51,142.5,22.59,141.53,22.86Z"/><path class="e" d="M140.24,25.35a12.44,12.44,0,0,1-2.34,1.41,37.92,37.92,0,0,0,10-4.31A25.51,25.51,0,0,0,140.24,25.35Z"/><path class="e" d="M138,14.69c.87,1.21,1.73,2.42,2.62,3.61.44.59,1.71,2.8,2.68,2.44-.18-1.12-1.29-2.08-2-2.88A31.67,31.67,0,0,0,138,14.69Z"/><path class="e" d="M141,13.93a28,28,0,0,0,2.09,4.75c.55,1,1.24,2.4,2.44,2.72a17.63,17.63,0,0,0-1.93-3.89A16.39,16.39,0,0,0,141,13.93Z"/><path class="e" d="M145.35,16.87c-.57-1.07-1.54-2.05-2-3.15.55,1.3,1.09,2.61,1.64,3.92a18.59,18.59,0,0,0,1.51,3.48c.17.22.39.55.65.22s-.19-.94-.29-1.18A32.6,32.6,0,0,0,145.35,16.87Z"/><path class="e" d="M148.28,18.7a58,58,0,0,0-2.12-5.54c.73,2.51,1.05,5.14,2,7.58.11.26,1.09,2.38,1.16,1.33a4.9,4.9,0,0,0-.37-1.22C148.74,20.13,148.52,19.42,148.28,18.7Z"/><path class="e" d="M149.81,17.67a34.94,34.94,0,0,0-1.46-4c.28,1.53.58,3.05.91,4.57.26,1.2.35,2.89,1,3.95.13.21.6.75.9.44s-.14-.66-.2-.82A37.3,37.3,0,0,1,149.81,17.67Z"/><path class="e" d="M152.51,18.78a15.54,15.54,0,0,0-1.7-4.77q.65,2.82,1.05,5.69c.16,1.2.07,3.14,1.12,4,.4-.3.05-1.5,0-1.88C152.81,20.79,152.71,19.78,152.51,18.78Z"/><path class="e" d="M154.15,24.34h0"/><path class="e" d="M147.48,24.51a24.71,24.71,0,0,0-6.24,3.83,9.66,9.66,0,0,1,2.48-1.08c1-.45,2-.89,3-1.38.83-.4,1.63-.85,2.45-1.27.55-.29,1.48-.62,1.76-1.24C149.73,23.25,148.54,24,147.48,24.51Z"/><path class="e" d="M145.23,28.62a24.81,24.81,0,0,0-1.89,1.81c2.07-1,4.08-2.13,6.07-3.27.72-.41,3.92-1.87,3.73-3.06C150.28,24.76,147.43,26.74,145.23,28.62Z"/><path class="e" d="M153.69,16.37a48.23,48.23,0,0,1,1,5.47c.06.37.25,2.49.79,2.61s0-2.55,0-2.94A18.8,18.8,0,0,0,153.69,16.37Z"/><path class="e" d="M153.52,26.05a18.94,18.94,0,0,0-5.15,4.62c1.83-1.28,3.71-2.51,5.49-3.85.21-.15,1.47-1.17.89-1.48C154.43,25.17,153.76,25.88,153.52,26.05Z"/><path class="e" d="M157.77,26.45c-2.37.75-4.49,3.2-6,5.09q2.46-1.54,4.76-3.32a7.81,7.81,0,0,0,1.56-1.31C158.47,26.44,158.39,26.25,157.77,26.45Z"/><path class="e" d="M156.69,17.2c.25.89,1.27,9.23,2.34,9,.7-.17-.22-3.5-.37-4.05A19.78,19.78,0,0,0,156.69,17.2Z"/><path class="e" d="M159.77,27.37a9.71,9.71,0,0,0-2.59,2.28,10.54,10.54,0,0,1-2.1,2.27,37.51,37.51,0,0,0,4.1-2.74,3.24,3.24,0,0,0,1.17-1.4C160.53,27.15,160.29,27.11,159.77,27.37Z"/><path class="e" d="M160.29,20.74a4.84,4.84,0,0,0-.69-1.36,15,15,0,0,1,1.13,4c.08.46.42,3.8.88,3.7.74-.15.1-3.05,0-3.55A11.57,11.57,0,0,0,160,19.79Z"/><path class="e" d="M113.66,36.35h.57a93.46,93.46,0,0,0-3.69-10.84A110,110,0,0,1,113.66,36.35Z"/><path class="e" d="M110.25,23.43a33.22,33.22,0,0,0-2.63-4.79c.85,1.29.95,3,1.41,4.41.56,1.75,1.3,3.43,2,5.13.12.29.37,1.25.74,1.34.57.14.4-.65.32-1A34.4,34.4,0,0,0,110.25,23.43Z"/><path class="e" d="M105.09,23a25.29,25.29,0,0,0,3.49,5.68c.35.41,3.28,3.55,3.93,2.86s-2.07-3.1-2.39-3.46A58.81,58.81,0,0,0,105.09,23Z"/><path class="e" d="M109.55,30.67a24.22,24.22,0,0,0-4.42-3.58c.61.37.92,1.19,1.3,1.75A15.18,15.18,0,0,0,108.29,31a14.3,14.3,0,0,0,4.41,3.53C112.83,33.07,110.44,31.56,109.55,30.67Z"/><path class="e" d="M108.86,32.74a27,27,0,0,0-3.16-2.14,11.3,11.3,0,0,1-2.62-1.49,54.88,54.88,0,0,0,5.33,4.66c.91.71,1.85,1.38,2.82,2a2.61,2.61,0,0,0,1.78.58A34,34,0,0,0,108.86,32.74Z"/><path class="e" d="M112.73,30.13c0,.38-.12.89.22,1.17,1.08-.86,1.45-2.61,1.85-3.86a38.72,38.72,0,0,0,1.48-5.62c-.64,1.39-1.29,2.78-1.92,4.17A16.15,16.15,0,0,0,112.73,30.13Z"/><path class="e" d="M113.6,34.12A13.51,13.51,0,0,0,115.11,32c.52-.77,1-1.54,1.52-2.34a19.94,19.94,0,0,0,2.31-5,35.5,35.5,0,0,0-3.65,4.8C114.47,30.7,113.17,32.5,113.6,34.12Z"/><path class="e" d="M114.66,35.86c.47.07,1-.89,1.22-1.2.67-.85,1.34-1.69,2-2.59s1-1.64,1.52-2.49A19.42,19.42,0,0,1,120.62,27c-1.34,1.74-2.69,3.46-4,5.19C116.33,32.58,113.58,35.7,114.66,35.86Z"/><path class="e" d="M123,29.77c-2.22,2.25-4.78,4.16-6.83,6.58a4.17,4.17,0,0,0,1.17,0c.58-.2,1.25-1.24,1.66-1.7Q121.06,32.3,123,29.77Z"/><path class="e" d="M119.22,36.35c.82,0,1.12.1,1.7-.52,1-1.07,1.89-2.21,2.79-3.35C122.18,33.74,120.69,35,119.22,36.35Z"/><path class="e" d="M123.72,36.35c.68,0,.82-.42,1.16-1C124.5,35.69,124.1,36,123.72,36.35Z"/><path class="e" d="M104.72,34.7c.68.52,1.58,1.5,2.41,1.65a9.38,9.38,0,0,0,1.59,0,23.05,23.05,0,0,0-5.31-2.63C103.93,33.89,104.3,34.39,104.72,34.7Z"/></g></g><path class="e" d="M137.11,33.63c.58-2.11-.73-4.05-1.62-5.88a18.84,18.84,0,0,1-1.89,4.16c-.24.33-.73,1-1,.39s.48-1.26.73-1.62c.61-.88,1.73-2.68,1.29-3.75s-2-1.93-3-2.52a5.71,5.71,0,0,1,.23,3.95c-.14.57-.44,1.41-1.1,1.57-.89.23-.78-.62-.59-1.19.37-1.12,1.48-3,.84-4.22s-2.91-1.24-4-1.41c.77,1,1.67,2.56,1.3,3.92-.14.48-.59,1.08-1.09.57s-.21-1.21-.21-1.68c0-.87,0-2.13-.9-2.63a4.78,4.78,0,0,0-1.92-.35,7.46,7.46,0,0,1-2.2-.76c.71,1.88-1.15,3.64-1.26,5.49s2.8,2.06,4.14,2c.51,0,2.12-.18,2,.72-.11.74-1.5.95-2,1-1.84.14-3.24-.77-4.64-1.85a4.08,4.08,0,0,0,.7,2.72,2.53,2.53,0,0,0,1.4,1.31,8.19,8.19,0,0,0,2.32.08,11.07,11.07,0,0,1,2.37,0c1,.19.15.78-.37.92a9.91,9.91,0,0,1-4.62-.22c.14.72.39,1.87,1.17,2.06a10.2,10.2,0,0,0,2.21,0,11.23,11.23,0,0,0,2.15-.29,2.2,2.2,0,0,1,1.08,0,2.53,2.53,0,0,1,.29.32c.11,0,.23,0,.33,0a9.67,9.67,0,0,0,1.94,0h2.5a5.54,5.54,0,0,0,1.35,0C136,36.07,136.87,34.52,137.11,33.63Z"/><path class="i" d="M127.68,29.06a43.25,43.25,0,0,0-4-4.39c1.57,2.09,3.16,4.17,4.72,6.28.75,1,1.48,2,2.17,3.1.31.49,1.09,2.5,1.74,2.3A56.42,56.42,0,0,0,127.68,29.06Z"/><path class="e" d="M69.84,35.18c-.78.06-4.84-.38-4.11-2,.32-.68,1.69-.38,2.23-.29a8.8,8.8,0,0,0,2.71.21,4.76,4.76,0,0,0,2.55-.87c.52-.58.31-1.82.19-2.5-.29-1.76-1.49-3.63-.55-5.39a8.57,8.57,0,0,1-2.59.6,6.53,6.53,0,0,0-2.53.09c-1.15.43-1.4,2-1.54,3.05-.07.58,0,1.86-.7,2.13s-1-.59-1.06-1.15c-.08-1.69,1.09-3.22,2.2-4.37a20.42,20.42,0,0,0-3,.26c-.75.12-1.68.17-2.08.9-.8,1.45.12,3.64.41,5.12.14.75.08,2-1,1.32a2.43,2.43,0,0,1-1-1.88,7,7,0,0,1,.88-4.88A10.13,10.13,0,0,0,57,28c-1,1.1.16,3.63.74,4.75.28.54,1.06,1.59.71,2.24s-.92-.2-1.14-.63A24,24,0,0,1,55.71,29c-1.05,1.58-2.54,3.28-2.87,5.2-.07.41-.27,1.84.1,2.14.06,0,.26,0,.33,0a7.86,7.86,0,0,0,1.68,0H70.83a7.91,7.91,0,0,0,1.82,0c.84-.21,1.34-2,1.26-2.81A9.83,9.83,0,0,1,69.84,35.18Z"/><path class="i" d="M70.41,27.12a61.36,61.36,0,0,0-9.49,9.23,2,2,0,0,0,.6,0c.38-.16.89-1,1.17-1.28.83-.89,1.67-1.77,2.53-2.64Z"/><path class="j" d="M70,1.45C69.45,2.53,68.55,4,69.18,5.2a4.39,4.39,0,0,0,2.33,1.86A13.73,13.73,0,0,1,72.3,1.7c.15-.35.87-1.6,1.31-.84.15.26-.13.92-.18,1.18-.13.58-.27,1.15-.4,1.73a12.46,12.46,0,0,0-.57,2.88,2.85,2.85,0,0,0,1.1,2.1,5.11,5.11,0,0,0,3.2,1.64C75.74,8.31,75,6.26,75.84,4c.21-.56,1-2.21,1.87-1.71s.1,2.25-.07,2.9a6.66,6.66,0,0,0-.06,3.2,3,3,0,0,0,.63,1.52,2.11,2.11,0,0,0,1.28.31c2.08.11,4.56-1.38,6.49-.15a8.74,8.74,0,0,1-.4-2.63,6.54,6.54,0,0,0,.11-2.53c-.35-1.18-1.89-1.55-2.93-1.77C82.2,3,80.91,3,80.69,2.25s.67-1,1.23-1c1.69.06,3.13,1.34,4.19,2.53,0-.74,0-1.48,0-2.22,0-.26,0-1.34-.15-1.48s-.56,0-.69,0H72.51a9.75,9.75,0,0,0-1.43,0C70.4.22,70.38.79,70,1.45Z"/><path class="j" d="M68.33,1c.09-.29.2-.58.31-.87H65.31a7.46,7.46,0,0,0,2.14,4.18C67.69,3.17,68,2.07,68.33,1Z"/><path class="k" d="M83.42,7.39a56.89,56.89,0,0,0-3.32-4.7q-.87-1.08-1.83-2.1C77.79.09,77.69.11,77,.11,79.19,2.52,81.3,5,83.42,7.39Z"/><path class="j" d="M148.31,2.33c.47.13,1.38.3,1.69.75s-.13.7-.69.67a5.49,5.49,0,0,1-1.66-.59,9.51,9.51,0,0,0-2-.61,7,7,0,0,0-1.93-.17,2.11,2.11,0,0,0-1.38,1.08,12.49,12.49,0,0,0-1.51,3.3,6.92,6.92,0,0,1,4.54-1.24,2.58,2.58,0,0,1,2.15.8c.74,1.09-.56,1.18-1.31,1.09-1.45-.17-3.69-.9-5,0-.68.45-.65,1.37-.72,2.11a23.4,23.4,0,0,0,0,3c1.06-1.19,2.49-2.46,4.17-2.51.55,0,1.43.22,1.21,1s-1.49.74-2.05.86c-1,.22-2.56.58-2.9,1.75a6.26,6.26,0,0,0,.11,2.51,8.93,8.93,0,0,1-.4,2.61c1.88-1.2,4.24.21,6.26.16a2.7,2.7,0,0,0,1.32-.24,2.32,2.32,0,0,0,.72-1.42,6.74,6.74,0,0,0,0-3.34c-.17-.68-.83-2.23-.14-2.81s1.65.93,1.87,1.48c.93,2.3.17,4.41-.86,6.51a4.93,4.93,0,0,0,3.07-1.52,3,3,0,0,0,1.2-2,11.58,11.58,0,0,0-.56-3L153,11c-.07-.33-.33-.92-.23-1.26.26-.86,1.08.2,1.24.58a13.39,13.39,0,0,1,.85,5.47c1.08-.47,2.53-1.3,2.57-2.65,0-1.53-1.3-3-1.84-4.37-.19-.45-.58-1.37,0-1.67s1.38.48,1.68.94a14.81,14.81,0,0,1,1.62,5,8.57,8.57,0,0,0,2.36-6.82c-.16-1.36-1.54-2.17-2.6-2.89a7.35,7.35,0,0,0-1.6-1,1.71,1.71,0,0,0-1.48.16,1.77,1.77,0,0,0-.53-1.1A4.29,4.29,0,0,0,154,1a20.27,20.27,0,0,0-2-.52A19.38,19.38,0,0,0,148.3.11h-2.16c-1,0-1.53.69-2.32,1.3A45.8,45.8,0,0,1,148.31,2.33Z"/><path class="j" d="M145.49.11c3.35,0,6.57.05,9.74,1.34"/><path class="k" d="M156.16,1.87l.46.23"/><path class="k" d="M149.37,8.13a51,51,0,0,0-6.3,8c4.24-4.84,8.29-10.23,13.55-14-.49-.26-.53-.18-1,.17-.27.21-.54.42-.8.64-.63.52-1.24,1.07-1.84,1.62C151.76,5.69,150.56,6.91,149.37,8.13Z"/><path class="l" d="M36.64,3.37A4.05,4.05,0,0,1,38.19,0a7.38,7.38,0,0,0-2.1,0c-.06,0-.2,0-.24,0s0,.93,0,1.11A5.46,5.46,0,0,0,36.64,3.37Z"/><path class="l" d="M39.62,3c.17.89.35,1.78.53,2.66.06.31.14,1.54.52,1.7a5.85,5.85,0,0,1,.25-2.39,8.53,8.53,0,0,1,1.21-2,7.9,7.9,0,0,1,.58-1,2.8,2.8,0,0,1,.74-.49c.34-.23.36-.22.23-.63a2.51,2.51,0,0,0-.4-.82c-.19-.11-.74,0-1,0H40.74c-.19,0-.88-.11-1,0s-.23.85-.25,1.06A6.1,6.1,0,0,0,39.62,3Z"/><path class="l" d="M41.72,1.37a5.89,5.89,0,0,0,1.4,2,2.35,2.35,0,0,0,2,.93,13.15,13.15,0,0,1,2.41-.46,5.31,5.31,0,0,1,2.29.76,4.32,4.32,0,0,0-1.08-1.22c-.49-.49-1-1-1.51-1.44a8.94,8.94,0,0,0-3-1.93,7.13,7.13,0,0,0-1.6,0A2.15,2.15,0,0,0,42,0C41.7.2,41.63,1.05,41.72,1.37Z"/><path class="l" d="M45.23,2.5c-1.84-.5-2.56,1-1.82,2.53A17,17,0,0,0,46,8.83c-.46-1.44.37-2.52.82-3.81S46.49,2.84,45.23,2.5Z"/><path class="l" d="M47.08,3.51c-1.55-1-2.15,2.33-1.27,3.23.51.53,1.43.39,2.08.71A6.17,6.17,0,0,1,49.69,9C49.46,7.13,48.77,4.59,47.08,3.51Z"/><path class="l" d="M48.55,7.39c.12-1.22-2-1.51-2.57-.63C45,8.39,47.56,10,48.65,10.6,48,9.45,48.44,8.57,48.55,7.39Z"/><path class="l" d="M49,8.09c-.63-.73-1.52-.09-1.39.77s1.47,1.47,2,2.17a16.09,16.09,0,0,0-.31-1.71C49.27,8.92,49.31,8.41,49,8.09Z"/><path class="m" d="M36.68,1.81a.24.24,0,0,1-.35,0,5.86,5.86,0,0,0,.14,1.51A7,7,0,0,1,38.13,0C37,0,37.27,1.15,36.68,1.81Z"/><path class="m" d="M43.49.56c-.05,0-.57,1.31-.6,1.37-.2.34-.31.31-.51.57s-.31.52-.5.74c-.42.52-.91.67-1.22,1.31A3.85,3.85,0,0,0,40.51,7,4.83,4.83,0,0,1,42.3,3.35C42.5,3.18,44.34.72,43.49.56Z"/><path class="m" d="M48.66,3.81C47.74,3.14,47,3.4,46,3.63a5.19,5.19,0,0,1-1.42.14c-.13,0-.75-.17-.88-.06.58.84,1.87.37,2.65.25a5,5,0,0,1,3.34.79A6.76,6.76,0,0,0,48.66,3.81Z"/><path class="m" d="M46.77,4.26c-.1,0-.33.62-.36.74a5.05,5.05,0,0,1-.52,1A3.43,3.43,0,0,0,46,8.83,3.35,3.35,0,0,1,46.4,6C46.44,6,47.16,4.21,46.77,4.26Z"/><path class="m" d="M48.54,7.66c-.23,0-.24-.23-.42-.33a2.8,2.8,0,0,0-.9-.2,5.11,5.11,0,0,0-.82-.2c-.25,0-.21.19-.45.32.42.41,1.47.4,2,.63a3,3,0,0,1,1.6,1.32C49.47,8.85,49,7.65,48.54,7.66Z"/><path class="m" d="M48.26,9.61c0-.36,0-.7,0-1s0-.84-.32-.34.22,2.17.59,2.61A2.64,2.64,0,0,1,48.26,9.61Z"/><path class="m" d="M48.84,9.61c0-.16-.6-.29-.38.14.07.12.41.26.53.37a5.2,5.2,0,0,1,.7.92,1.73,1.73,0,0,0-.37-.84C49.18,10,48.83,9.86,48.84,9.61Z"/><path class="n" d="M48.53,4.05c-.31-.07-.55-.25-.87-.3a4.63,4.63,0,0,0-1.39.07,11.93,11.93,0,0,1-1.19.24c-.33,0-.86-.21-1.17-.11.6.78,2.08.35,2.86.24a4.11,4.11,0,0,1,3,.79A2.9,2.9,0,0,0,48.53,4.05Z"/><path class="n" d="M43.24,1.66c-.29.32-.33.87-.66,1.24a9.81,9.81,0,0,0-1.2,1.37,4.08,4.08,0,0,0-.7,3.44,6.45,6.45,0,0,1,1.39-4c.45-.53,1.09-.83,1.43-1.47.14-.27.5-1.21.12-1.48A2.15,2.15,0,0,1,43.24,1.66Z"/><path class="n" d="M37.51.79c-.4.66-1.4,2-.92,2.85A9.46,9.46,0,0,1,38.5,0C38-.12,37.74.41,37.51.79Z"/><path class="n" d="M46.78,5.15c-.23.73-.83,1.28-1,2a3.1,3.1,0,0,0,.2,2c-.43-1.66,1.13-3,.91-4.66C46.77,4.61,46.81,5,46.78,5.15Z"/><path class="n" d="M47.82,7.69c-.16-.06-1.59-.35-1.53-.19.16.39,1.27.39,1.55.46a3,3,0,0,1,1.81,1.31A3,3,0,0,0,47.82,7.69Z"/><path class="n" d="M48.47,8.82a.91.91,0,0,0,.05-.65c0-.1-.27-.2-.28-.27.08.39-.13.88-.06,1.32a3.3,3.3,0,0,0,.43,1.65c-.06-.11,0-.13.08-.07A3.29,3.29,0,0,1,48.47,8.82Z"/><path class="n" d="M49.12,10.2c-.12-.15-.46-.57-.71-.39,0,0,1.19,1.18,1.28,1.28A5.59,5.59,0,0,0,49.12,10.2Z"/><path class="l" d="M84.65,35.8c1.43-.89.61-2.68,0-3.82a10.07,10.07,0,0,1-1.68-4.59A14.57,14.57,0,0,0,82.06,32c0,1.39.28,3.15-.5,4.39h1.53a3.39,3.39,0,0,0,.78,0C84.19,36.26,84.34,36,84.65,35.8Z"/><path class="l" d="M89.1,33.72a2.76,2.76,0,0,0-2.53-.54,3.45,3.45,0,0,1-1.24.38,2.33,2.33,0,0,0-1.2.35c-.46.33-1.14,1.41-.71,2,.22.31.58.17.91.16a7.89,7.89,0,0,1,1.53.26,33.38,33.38,0,0,0,5.1,0A10,10,0,0,0,89.1,33.72Z"/><path class="l" d="M89.47,28.2c-.69-1.48-.39-2.48.11-3.94a11.33,11.33,0,0,0-2.11,4.34,18.67,18.67,0,0,0-.89,2.71,5.19,5.19,0,0,0-.18,2.13c.24.54,1.17.52,1.72.54.81,0,1.23-.63,1.62-1.28a4.15,4.15,0,0,0,.62-2.11A5.31,5.31,0,0,0,89.47,28.2Z"/><path class="l" d="M95,33.14c-.42-.75-1.19-1.07-1.45-1.93-.15-.5,0-.66-.61-.63-.39,0-.78.2-1.18.2a3.61,3.61,0,0,0-1.92.38c-2.14,1.19,1.14,3.3,2.25,3.71a12.68,12.68,0,0,0,3.58.43c.49,0,2.56.5,2.94,0A5.07,5.07,0,0,1,95,33.14Z"/><path class="l" d="M98.3,25.47a7.54,7.54,0,0,0-2.46,1.32,14.8,14.8,0,0,0-2.4,1.76c-1,1-3.36,3-1.1,4,1.19.53,3.84-.81,4.31-2,.33-.86,0-1.85.23-2.76A5.46,5.46,0,0,1,98.3,25.47Z"/><path class="l" d="M96.58,28.15c-1.63.24-3,3.2-.9,3.81a5.54,5.54,0,0,0,3-.42,17.92,17.92,0,0,0,2.84-1.14,4.07,4.07,0,0,1-2.71-1.1C98.14,28.78,97.5,28,96.58,28.15Z"/><path class="l" d="M99.2,26.8c-.85.16-2.43.46-2.88,1.32s.62,1.76,1.36,2a2.29,2.29,0,0,0,1.53,0c.57-.24.66-.67.91-1.18a5.09,5.09,0,0,1,2.51-2.13A10.67,10.67,0,0,0,99.2,26.8Z"/><path class="l" d="M102.14,28.19c-.72-.24-1.47-1.1-2.25-.6a1.93,1.93,0,0,0-.71,1.77c.19,1,1.38,1,2.14.78a6.22,6.22,0,0,0,2.63-1.9A3.19,3.19,0,0,1,102.14,28.19Z"/><path class="l" d="M101.56,27.19c-.86.42-.53,1.43.32,1.57,1,.17,1.92-1,2.77-1.41-.59-.12-1.19-.07-1.79-.14A2.49,2.49,0,0,0,101.56,27.19Z"/><path class="m" d="M85.45,33.24A6,6,0,0,0,84.56,32c-.33-.5-.66-1-1-1.52A6.66,6.66,0,0,1,83,29.2c-.09-.28-.15-1.33-.35-1.52a7.12,7.12,0,0,0-.45,2.17c.11.5,0,.18.33.25.08,0,.16-.09.29,0s.17.67.18.71c.26.84,3.62,4.26,1.64,5C86.16,35.94,85.75,34.09,85.45,33.24Z"/><path class="m" d="M90.15,35.1c-.46-.92-1.22-2-2.36-2,1,.21,1.32,1.23,1.8,1.95.21.31.42.66.63,1s.27.36.73.36A11,11,0,0,1,90.15,35.1Z"/><path class="m" d="M90.39,29.15c-.38-1-1.36-2.46-1-3.62,0-.11.72-1.13.15-1.06-.15,0-.55,1-.59,1.14a2.19,2.19,0,0,0,0,1.77c.13.25.34.41.45.66s.16.69.29,1c.4,1.06,1.2,2.81.3,3.83C91.19,32.23,90.79,30.19,90.39,29.15Z"/><path class="m" d="M95.43,33.32c-.36-.39-.46-.93-.78-1.35a3.67,3.67,0,0,0-1.34-1.2c-.17-.08-.71-.29-.68,0s.79.57.91.67a8,8,0,0,1,1.7,2.49,3.41,3.41,0,0,0,2.94,1.45C97,35.18,96.2,34.15,95.43,33.32Z"/><path class="m" d="M96.39,27.55a12.88,12.88,0,0,0-.13,2.06c0,.26-.59,1.55-.48,1.76,1-.38.86-1.94,1-2.79a5.2,5.2,0,0,1,1.65-2.89A3.57,3.57,0,0,0,96.39,27.55Z"/><path class="m" d="M97.82,28.52c-.06,0-.65-.26-.67-.09s.55.52.63.57a2.36,2.36,0,0,1,.77.64,3.47,3.47,0,0,0,2.93.81C99.71,30.58,99.22,29.11,97.82,28.52Z"/><path class="m" d="M101,27.57c-.06.23-.29.18-.43.33a2.73,2.73,0,0,0-.45.84,6.61,6.61,0,0,0-.42.76c0,.26.14.26.21.54.46-.28.73-1.28,1.06-1.71A3.18,3.18,0,0,1,102.81,27C102.44,27,101.12,27.06,101,27.57Z"/><path class="m" d="M103.56,28.45a6.5,6.5,0,0,1-1.64-.3c-.13,0-.76-.46-.65,0,.17.73,2.53.42,2.9.24A2.47,2.47,0,0,1,103.56,28.45Z"/><path class="m" d="M103.46,27.62c-.09.07-1.1.37-.54.62.13.06.44-.34.51-.39a5,5,0,0,1,1.24-.53A1.79,1.79,0,0,0,103.46,27.62Z"/><path class="n" d="M97.41,26.62a8.88,8.88,0,0,0-.53.78,4.8,4.8,0,0,0-.3,1.4,10.49,10.49,0,0,1-.08,1.25c-.06.33-.43.8-.42,1.13.91-.37.9-1.91,1-2.7a4.31,4.31,0,0,1,1.61-2.9A3,3,0,0,0,97.41,26.62Z"/><path class="n" d="M95.06,32.52a3.94,3.94,0,0,0-1-1.51c-.24-.2-1-.66-1.31-.4a12.51,12.51,0,0,1,1.31.95,7.33,7.33,0,0,1,1.18,1.69A4.5,4.5,0,0,0,99,35.4,6.28,6.28,0,0,1,95.06,32.52Z"/><path class="n" d="M90.69,29.25c-.25-.89-.74-1.68-.92-2.6s.24-1.78,0-2.64c-1.53,2.47.86,4.95.88,7.5,0-.31.19-.59.2-.92A4.36,4.36,0,0,0,90.69,29.25Z"/><path class="n" d="M90,34.23a4.25,4.25,0,0,0-1.09-.78,7.24,7.24,0,0,1,1.4,1.77c.2.37.46,1.28,1,1.13C90.77,35.7,90.51,34.84,90,34.23Z"/><path class="n" d="M88.86,33.45a1.06,1.06,0,0,0-.64-.35Z"/><path class="n" d="M84.83,31.9a14.74,14.74,0,0,1-1.4-2.4c-.34-.83-.22-1.81-.56-2.6a3.5,3.5,0,0,0-.49,1.2,1.42,1.42,0,0,1,.21-.17,9.39,9.39,0,0,0,1.48,3.45c.54.72,1.5,1.83,1.56,2.75C86.13,34.22,85,32.1,84.83,31.9Z"/><path class="n" d="M97.49,28.36c0,.13.53.28.65.37a9.45,9.45,0,0,1,1,1c.54.47,2,1.16,2.72.8C100.12,30.49,99.17,28.56,97.49,28.36Z"/><path class="n" d="M100.84,28.29c-.07.11-.85,1.39-.6,1.47s.47-.52.54-.65c.58-1.05.89-1.79,2.12-2.22A3.12,3.12,0,0,0,100.84,28.29Z"/><path class="n" d="M104.17,28.26a3.62,3.62,0,0,1-1.76-.19c-.25-.1-.53-.38-.8-.37s-.34.24-.45.23c.36,0,.73.33,1.12.39a3.87,3.87,0,0,0,1.94,0C104.09,28.38,104.07,28.35,104.17,28.26Z"/><path class="n" d="M103.68,27.66c-.18.09-.68.31-.57.6,0,0,1.48-.86,1.61-.92A6.56,6.56,0,0,0,103.68,27.66Z"/><path class="n" d="M79.83,28.74c-1.57,1.42-3.23,3-3.85,5-.15.49-.54,2.24,0,2.57.22.15,1,0,1.3,0h1.62c.66,0,.63-.17.84-.91C80.31,33.23,79.28,31,79.83,28.74Z"/><path class="l" d="M152.11,35.83l-.06.16.42-.11A.22.22,0,0,0,152.11,35.83Z"/><path class="l" d="M152.28,34.59a24.15,24.15,0,0,1,.6-2.93,13.05,13.05,0,0,0,0-3.42c-.48,2-2.28,3-3.1,4.73a1.74,1.74,0,0,0,.4,2.15c.17.22.41,1,.65,1.06s1.29-.21,1.61-.28A3.41,3.41,0,0,1,152.28,34.59Z"/><path class="l" d="M150.11,33a4.2,4.2,0,0,1-1-.36c-.39-.28-.39-.43-.92-.5a2.73,2.73,0,0,0-2.17.66c-1.2,1-2,2.71-3.85,2.53,2.16,1.21,4.39.12,6.6-.22a3.82,3.82,0,0,1,1.39,0c.41.09.68.3.92-.15C151.45,34.29,150.77,33.27,150.11,33Z"/><path class="l" d="M149,29c-.24-1.54-.22-3.16-1.06-4.53a5.19,5.19,0,0,1,.09,2,4.24,4.24,0,0,1-1.07,1.69,3.2,3.2,0,0,0-.52,3.55c.24.58.39.91,1,1.05.32.08,1.2.25,1.47,0s.22-1.13.25-1.48A9,9,0,0,0,149,29Z"/><path class="l" d="M145.37,29.52c-.14-.08-.12,0-.29,0a4.94,4.94,0,0,1-.88-.33c-.62-.24-.52-.13-.8.38a6.78,6.78,0,0,1-1.91,1.65,4.7,4.7,0,0,1-3,.8c.25.52,2.2.48,2.66.55a7.48,7.48,0,0,0,3.67,0c.73-.25,2-.68,2.06-1.63S146,29.85,145.37,29.52Z"/><path class="l" d="M142.9,26.08c-.63-.64-1.57-1.85-2.43-2.14A4.77,4.77,0,0,1,141,27.8c-.23,1.35,1.13,2.26,2.18,2.83.86.46,2.32,0,2-1.16A8.93,8.93,0,0,0,142.9,26.08Z"/><path class="l" d="M141.42,26.46c-.78-.29-1.51.32-2.17.64a3.27,3.27,0,0,1-2.29.36c1.1.88,3.16,2.54,4.66,2.31C143.31,29.5,142.67,26.92,141.42,26.46Z"/><path class="l" d="M139.49,24.89a9.14,9.14,0,0,0-2.83-.62,4.35,4.35,0,0,1,1.7,2.2c.27,1,.7,1.54,1.84,1.42.7-.07,1.7-.66,1.4-1.48S140.17,25.17,139.49,24.89Z"/><path class="l" d="M138.1,25.18c-1,.15-1.79.58-2.79.06.56.89,2.09,3.11,3.45,2.15C139.49,26.87,139.17,25,138.1,25.18Z"/><path class="l" d="M136.39,24.58c-.5,0-1-.19-1.5-.19.67.48,1.46,2.05,2.47,1.57a.66.66,0,0,0,.41-.78C137.61,24.59,136.86,24.64,136.39,24.58Z"/><path class="m" d="M153,28.65a9.46,9.46,0,0,1-2.66,3.49c-.63.51-2,2.56-.34,2.75-1.5-1,1.88-3.24,2.24-3.86.15-.25.14-.53.41-.58s.14.26.36.18.15-1,.17-1.21.06-1-.11-.89Z"/><path class="m" d="M146.53,32.41a10.4,10.4,0,0,0-1.78,1.73,5.84,5.84,0,0,1-2.59,1.36,4.79,4.79,0,0,0,1.31.06c-.38-.27.76-.64.85-.7a5.89,5.89,0,0,0,1.15-1.07c.6-.56,1.46-1.69,2.36-1.69A1.93,1.93,0,0,0,146.53,32.41Z"/><path class="m" d="M148.06,25.21c-.19-.69-.37-.64-.32.05a3.8,3.8,0,0,1-.85,2.44c-.64.91-2,2.85-.8,3.85-.65-1.14.58-2.44,1.08-3.36C147.8,27.06,148.45,26.64,148.06,25.21Z"/><path class="m" d="M143.67,29.2c-1,.23-1.41,1-2,1.62a4.34,4.34,0,0,1-2.81,1.34,3.5,3.5,0,0,0,2-.17c.64-.3.75-.76,1.23-1.2a9.67,9.67,0,0,1,1.1-.93c.05,0,1.17-.56,1.16-.59C144.22,29.08,143.79,29.18,143.67,29.2Z"/><path class="m" d="M141.68,26a3,3,0,0,0-1.33-1.89,4.44,4.44,0,0,1,.85,2.77c-.06.7-.46,1.9.32,2.39.14-.17-.12-1.27-.09-1.54A10.31,10.31,0,0,0,141.68,26Z"/><path class="m" d="M140.33,26.55c-1.26.25-1.92,1.37-3.37.95a2.94,2.94,0,0,0,2.54-.13,3.87,3.87,0,0,1,.65-.36c.09,0,.74-.31.75-.42S140.4,26.54,140.33,26.55Z"/><path class="m" d="M138.37,26.2a2.35,2.35,0,0,0-1.89-1.82,2.56,2.56,0,0,1,1.22,1.33c.22.44.29,1.4.64,1.73.1-.22.23-.19.26-.41S138.39,26.41,138.37,26.2Z"/><path class="m" d="M137.17,25.44a2.91,2.91,0,0,1-2.07-.1,3.06,3.06,0,0,0,1.7.48c.12,0,.6,0,.69-.11S137.4,25.34,137.17,25.44Z"/><path class="m" d="M136.21,25c-.47-.19-.77-.62-1.33-.67a4.85,4.85,0,0,1,.71.47s.4.48.42.48.18.27.27,0C136.3,25.28,136.28,25.06,136.21,25Z"/><path class="n" d="M141.17,25.37a5.17,5.17,0,0,0-1-1.4,3.59,3.59,0,0,1,.82,2.62c-.05.69-.37,2,.34,2.47.06-.23-.14-.62-.15-.86a4.53,4.53,0,0,1,.12-1A2.92,2.92,0,0,0,141.17,25.37Z"/><path class="n" d="M143.38,29.11c-1,.23-1.33,1.24-2.08,1.81A5.8,5.8,0,0,1,138.17,32a3.82,3.82,0,0,0,3.43-1.13,6.82,6.82,0,0,1,1.27-1.19,9.88,9.88,0,0,1,1.25-.55C144,29,143.58,29.07,143.38,29.11Z"/><path class="n" d="M147.83,24.73a1.52,1.52,0,0,0-.09-.51c-.26.58-.09,1.26-.28,1.86a5,5,0,0,1-.81,1.45,6.7,6.7,0,0,0-.77,1.32,5.92,5.92,0,0,0-.19,1.43,10.37,10.37,0,0,1,1.6-3.12A3.75,3.75,0,0,0,147.83,24.73Z"/><path class="n" d="M145.84,32.66c-.67.47-1.06,1.25-1.75,1.73a14.13,14.13,0,0,1-2.19,1c.83.42,2.17-.7,2.75-1.18a18.73,18.73,0,0,1,2.23-2A3.45,3.45,0,0,0,145.84,32.66Z"/><path class="n" d="M146.88,32.21l.59-.18A.86.86,0,0,0,146.88,32.21Z"/><path class="n" d="M152.75,28.47A6.28,6.28,0,0,1,151,31.11c-.39.38-.78.76-1.14,1.17,0,0-.86,1-.46,1.06.2-.74,1.14-1.44,1.69-1.94A8.28,8.28,0,0,0,153,28.74a.52.52,0,0,1,.15.18,3.11,3.11,0,0,0-.19-1.08A1.87,1.87,0,0,0,152.75,28.47Z"/><path class="n" d="M136.62,27.47a2.8,2.8,0,0,0,2.09,0c.42-.16.73-.51,1.13-.7.07,0,.77-.2.79-.28C139.21,26.35,138.08,27.78,136.62,27.47Z"/><path class="n" d="M137.88,25.83a2.63,2.63,0,0,0-1.46-1.52,2.72,2.72,0,0,1,1.28,1.83c.06.24.13.92.41,1S137.9,25.9,137.88,25.83Z"/><path class="n" d="M137.5,25.27c-.26-.19-.71.08-1,.12a3.12,3.12,0,0,1-1.39-.17c.06.09,0,.11-.06.07a2.63,2.63,0,0,0,1.3.28c.43,0,.92-.15,1.3-.1C137.61,25.41,137.56,25.34,137.5,25.27Z"/><path class="n" d="M135.63,24.81a5.67,5.67,0,0,0-.8-.45c.09.07,1.14,1.09,1.17,1.05C136.14,25.19,135.76,24.91,135.63,24.81Z"/><path class="n" d="M155.18,29.9c.06,1.91-1.14,3.6-1.06,5.52a18.55,18.55,0,0,0,2-.79c.26-.12.52-.26.78-.4.49-.25.49-.26.32-.8A12.54,12.54,0,0,0,155.18,29.9Z"/></svg>