<?xml version="1.0" encoding="utf-8"?>
<!-- Generator: Adobe Illustrator 24.2.0, SVG Export Plug-In . SVG Version: 6.00 Build 0)  -->
<svg version="1.1" id="calque_1" xmlns="http://www.w3.org/2000/svg" xmlns:xlink="http://www.w3.org/1999/xlink" x="0px" y="0px"
	 viewBox="0 0 161.6 31.2" style="enable-background:new 0 0 161.6 31.2;" xml:space="preserve">
<style type="text/css">
	.st0{fill:#E1F0E6;}
	.st1{fill:#A46B5A;}
	.st2{fill:#FAD3CF;}
	.st3{fill:#3B68AF;}
	.st4{fill:#DEB319;}
	.st5{fill:#EFC4C3;}
</style>
<path class="st0" d="M145.8,0L15.6,0.2C7,0.2-0.1,7.2-0.1,15.7C0,24.3,7,31.2,15.7,31.2L145.9,31c8.7,0,15.7-7,15.7-15.5
	C161.5,6.9,154.5,0,145.8,0z"/>
<g>
	<path class="st1" d="M152.8,24.1c0,0.5,0.4,1,0.9,1.1c0.4,0,0.8-0.2,1.1-0.6c0.3-0.4,0.5-0.9,0.4-1.4c-0.2-0.5-0.8-0.8-1.2-0.5
		c-0.2,0.1-0.3,0.4-0.6,0.4h0.4C153.3,23.2,152.9,23.6,152.8,24.1z"/>
	<path class="st2" d="M154.1,23C154,22.9,154,23,154.1,23L154.1,23z"/>
	<path class="st2" d="M153.9,23.2c0,0.1,0.1,0.2,0.2,0.2c0.1,0,0.2-0.1,0.2-0.1c0.1-0.1,0.1-0.2,0.1-0.3c-0.1-0.1-0.2-0.2-0.3,0
		C154,23,153.9,23.1,153.9,23.2z"/>
	<path class="st1" d="M154.6,26.4c0,0.5,0.4,1,0.9,1.1c0.4,0,0.8-0.2,1.1-0.6c0.3-0.4,0.5-0.9,0.4-1.4c-0.2-0.5-0.8-0.8-1.2-0.5
		c-0.2,0.1-0.3,0.4-0.6,0.4h0.4C155.1,25.5,154.7,25.9,154.6,26.4z"/>
	<path class="st2" d="M156.1,25.6c0.1-0.1,0.1-0.2,0.1-0.3c0-0.1-0.2-0.1-0.3,0c-0.1,0-0.2,0.1-0.2,0.2c0,0.1,0.1,0.2,0.2,0.2
		S156.1,25.6,156.1,25.6z"/>
	<path class="st1" d="M151.2,27.7c0,0.5,0.4,1,0.9,1.1c0.4,0,0.8-0.2,1.1-0.6s0.5-0.9,0.4-1.4c-0.2-0.5-0.8-0.8-1.2-0.5
		c-0.2,0.1-0.3,0.4-0.6,0.4h0.4C151.7,26.8,151.3,27.2,151.2,27.7z"/>
	<path class="st2" d="M152.3,26.7c0,0.1,0.1,0.2,0.2,0.2c0.1,0,0.2-0.1,0.2-0.1c0.1-0.1,0.1-0.2,0.1-0.3c-0.1,0-0.2-0.1-0.3,0
		C152.4,26.5,152.3,26.6,152.3,26.7z"/>
	<path class="st1" d="M156.2,23.7c0,0.5,0.4,1,0.9,1.1c0.4,0,0.8-0.2,1.1-0.6s0.5-0.9,0.4-1.4c-0.2-0.5-0.8-0.8-1.2-0.5
		c-0.2,0.1-0.3,0.4-0.6,0.4h0.4C156.7,22.8,156.3,23.2,156.2,23.7z"/>
	<path class="st2" d="M157.7,22.9c0.1-0.1,0.1-0.2,0.1-0.3c0-0.1-0.2-0.1-0.3,0c-0.1,0-0.2,0.1-0.2,0.2c0,0.1,0.1,0.2,0.2,0.2
		C157.6,23,157.7,22.9,157.7,22.9z"/>
</g>
<g>
	<path class="st3" d="M161.3,11.7"/>
	<g>
		<g>
			<path class="st3" d="M157.5,11.3c-0.9,1.8,1.3,2.1,2.6,1.9c0.2,0,0.7-0.3,1.3-0.7c-0.2-1-0.5-1.9-0.9-2.9
				C159.2,9.8,157.9,10.3,157.5,11.3z"/>
			<path class="st3" d="M157.3,6.7c-0.5,0.9-0.6,2-0.6,3c0,0.9-0.2,4.3,1,4.6c1.3,0.2,2.2-2.9,2.3-3.7c0.1-0.6,0.1-1.2,0.1-1.8
				c-0.6-1.1-1.2-2.2-2-3.1C157.8,5.9,157.5,6.3,157.3,6.7z"/>
			<path class="st4" d="M146.7,24.5c0.8,0.8,1.8-0.2,2.6-0.2c0.8,0,1.4,0.5,2.3,0.4c2-0.2,3.8-1.4,5.2-2.7c0.9-0.8,1.7-1.7,2.1-2.8
				c0.9-2.4-0.2-4.3-0.5-6.5c0-0.2,0-0.3-0.1-0.5c-0.2-0.3-1.7-0.3-2.1-0.3c-1.3-0.1-2.6,0.1-3.9,0.3l-1.2,0.1c-2,0.8-3.3,3-3.7,5.1
				c-0.2,1.1-0.1,2.1-0.1,3.2c0,1.6,0,1.2-0.7,2.5C146.4,23.5,146.3,24.1,146.7,24.5z"/>
		</g>
		<path class="st3" d="M151.7,16.8c-0.1-0.3-0.4-0.5-0.6-0.5c-0.2,0.2-0.5,0.5-0.7,0.7C150.6,17.5,151.4,17.2,151.7,16.8z"/>
		<path class="st3" d="M150.4,19.1c-0.1-0.3-0.3-0.5-0.6-0.5c-0.2,0.2-0.5,0.5-0.7,0.7C149.3,19.8,150.1,19.5,150.4,19.1z"/>
		<path class="st3" d="M153,19.2c0-0.4-0.3-0.6-0.6-0.5c-0.2,0.2-0.5,0.5-0.7,0.7C151.9,19.9,152.7,19.6,153,19.2z"/>
	</g>
	<g>
		<path class="st5" d="M146.9,7.7c0.4,0.3,0.8,0.5,1.3,0.7c1.2,0.5,2.4,0.8,3.7,0.8c1.2-0.1,2.5-0.6,3.2-1.7c0,0-1.3-1.1-1.4-1.2
			c-0.4-0.4-0.8-0.6-1.3-0.8c-1.1-0.5-2.2-1.5-3.2-2.2c-0.6-0.4-1.1-0.8-1.7-1.2c-0.4-0.4-1-0.9-1.5-1.1c-0.6,1.7-1,3.9,0,5.5
			C146.2,6.9,146.5,7.4,146.9,7.7z"/>
		<path class="st3" d="M144.3,6.9c0.3,1.5,1.5,2.9,2.9,3.5c1.5,0.7,3.2,0.7,4.7,0.2c1.2-0.4,2.4-1.2,2.6-2.4c-0.9,0.5-1.9,0.9-2.9,1
			c-1.3,0.2-2.6,0-3.8-0.6c-1.2-0.6-2.1-1.6-2.5-2.8c-0.5-1.3,0-2.6,0-3.9C144.1,2.8,144.1,5.7,144.3,6.9z"/>
		<path class="st3" d="M146.4,3c0.3-0.1,0.6-0.2,0.9-0.4c-0.2,0-0.4,0-0.6,0C146.5,2.7,146.4,2.8,146.4,3z"/>
		<path class="st3" d="M146.4,4c0.4-0.1,0.7-0.3,0.9-0.4c-0.2,0-0.4,0-0.6,0C146.5,3.7,146.4,3.8,146.4,4z"/>
		<path class="st3" d="M146.3,4.9c0.4,0,0.7-0.2,0.9-0.4c-0.2,0-0.4,0-0.6,0C146.4,4.6,146.3,4.7,146.3,4.9z"/>
		<path class="st3" d="M147.6,6.4c0.3-0.1,0.7-0.3,0.9-0.4c-0.2,0-0.4,0-0.6,0C147.7,6.1,147.6,6.2,147.6,6.4z"/>
		<path class="st3" d="M147.4,4.4c0.3-0.1,0.6-0.3,0.9-0.4c-0.2,0-0.4,0-0.6,0C147.5,4.1,147.4,4.2,147.4,4.4z"/>
		<path class="st3" d="M147.5,5.4c0.3-0.1,0.6-0.3,0.9-0.4c-0.2,0-0.4,0-0.6,0C147.6,5.1,147.5,5.2,147.5,5.4z"/>
		<path class="st3" d="M148.7,5.3c0.3,0,0.7-0.2,0.9-0.4c-0.2,0-0.4,0-0.6,0C148.8,5,148.7,5.1,148.7,5.3z"/>
		<path class="st3" d="M151.5,6.9c0.3,0,0.6-0.2,0.9-0.4c-0.2,0-0.4,0-0.6,0C151.6,6.6,151.5,6.7,151.5,6.9z"/>
		<path class="st3" d="M150.7,6.7c-0.1,0-0.3,0.2-0.2,0.4c0.3-0.1,0.5-0.2,0.7-0.4C151,6.7,150.9,6.6,150.7,6.7z"/>
		<path class="st3" d="M148.5,7.1c0.3-0.1,0.7-0.3,0.9-0.4c-0.2,0-0.4,0-0.6,0C148.6,6.8,148.5,6.9,148.5,7.1z"/>
		<path class="st3" d="M149.9,6.2c0.4-0.1,0.7-0.2,0.9-0.4c-0.2,0-0.4,0-0.6,0C150,5.9,149.9,6,149.9,6.2z"/>
		<path class="st3" d="M150.6,8c0.4,0,0.7-0.2,0.9-0.4c-0.2,0-0.4,0-0.6,0C150.7,7.7,150.6,7.8,150.6,8z"/>
		<path class="st3" d="M152.3,7.6c0.3,0,0.7-0.2,0.9-0.4c-0.2,0-0.4,0-0.6,0C152.4,7.3,152.3,7.4,152.3,7.6z"/>
	</g>
	<path class="st5" d="M11.9,20.5c-0.9,0.3-1.6,1.2-1.6,2.1l0.3-0.3c-0.1,0.3-0.1,0.5-0.1,0.7C11.5,22.7,12.2,21.5,11.9,20.5z"/>
	<path class="st5" d="M14.7,18.3c-0.9,0.3-1.6,1.2-1.6,2.1l0.3-0.3c-0.1,0.3-0.1,0.5-0.1,0.7C14.3,20.5,15,19.3,14.7,18.3z"/>
	<path class="st5" d="M14.4,21.4c-0.9,0.3-1.6,1.2-1.6,2.1l0.3-0.3C13,23.5,13,23.7,13,23.9C14,23.6,14.7,22.4,14.4,21.4z"/>
	<path class="st5" d="M16.5,22.9c-0.9,0.3-1.6,1.2-1.6,2.1l0.3-0.3c-0.1,0.3-0.1,0.5-0.1,0.7C16.1,25.1,16.8,23.9,16.5,22.9z"/>
	<path class="st5" d="M14,24.4c-0.9,0.3-1.6,1.2-1.6,2.1l0.3-0.3c-0.1,0.3-0.1,0.5-0.1,0.7C13.6,26.6,14.3,25.4,14,24.4z"/>
	<path class="st5" d="M16.8,19.8c-0.9,0.3-1.6,1.2-1.6,2.1l0.3-0.3c-0.1,0.3-0.1,0.5-0.1,0.7C16.4,22,17.1,20.8,16.8,19.8z"/>
	<path class="st5" d="M9,17.9c-0.9,0.3-1.6,1.2-1.6,2.1l0.3-0.3c-0.1,0.3-0.1,0.5-0.1,0.7C8.6,20.1,9.3,18.9,9,17.9z"/>
	<path class="st5" d="M11.5,17.3c-0.9,0.3-1.6,1.2-1.6,2.1l0.3-0.3c-0.1,0.3-0.1,0.5-0.1,0.7C11.1,19.5,11.8,18.3,11.5,17.3z"/>
	<path class="st5" d="M9.6,20.3C8.7,20.6,8,21.5,8,22.4l0.3-0.3c-0.1,0.3-0.1,0.5-0.1,0.7C9.2,22.5,9.9,21.3,9.6,20.3z"/>
	<path class="st5" d="M11.7,23.6c-0.9,0.3-1.6,1.2-1.6,2.1l0.3-0.3c-0.1,0.3-0.1,0.5-0.1,0.7C11.3,25.8,12,24.6,11.7,23.6z"/>
	<path class="st4" d="M5.7,26c0.4-0.2,0.8-0.4,1.1-0.7c1.8-1.5,3.1-3.4,3.7-5.7c0.6-2.4,0.9-4.7,0.2-7c-0.4-1.4-1.6-2.1-3.1-1.6
		c-0.3,0.1-0.7,0.2-1,0.4c-2,1-3.8,2.3-5.3,3.9C1.2,15.5,1,15.7,0.9,16c-0.3,0.4-0.5,1-0.7,1.6c0.4,3.2,1.8,6,3.8,8.3
		C4.6,26.1,5.2,26.1,5.7,26z"/>
	<path class="st3" d="M7.5,20.8c0.1,0,0.1-0.1,0.1,0c0.1-0.4,0.1-0.7,0-1c0-0.1-0.1-0.1-0.1-0.1H7.4c-0.3,0.2-0.6,0.4-0.8,0.6
		c0,0.1,0,0.1,0,0.2c0.1,0,0.1,0,0.2,0C7,20.3,7.2,20.2,7.4,20c0.1,0.2,0.1,0.4,0,0.6C7.3,20.7,7.4,20.8,7.5,20.8z"/>
	<path class="st3" d="M7.2,23.8C7.3,23.8,7.3,23.8,7.2,23.8c0.2-0.4,0.2-0.7,0.1-1c0-0.1-0.1-0.1-0.1-0.1H7.1
		c-0.3,0.2-0.6,0.4-0.8,0.6c0,0.1,0,0.1,0,0.2c0.1,0,0.1,0,0.2,0c0.2-0.2,0.4-0.3,0.6-0.5c0.1,0.2,0.1,0.4,0,0.6
		C7,23.7,7.1,23.8,7.2,23.8z"/>
	<path class="st3" d="M5.5,22.5c0.1,0,0.1-0.1,0.1,0c0.1-0.4,0.1-0.7,0-1c0-0.1-0.1-0.1-0.1-0.1H5.4c-0.3,0.2-0.6,0.4-0.8,0.6
		c0,0.1,0,0.1,0,0.2c0.1,0,0.1,0,0.2,0C5,22,5.2,21.9,5.4,21.7c0.1,0.2,0.1,0.4,0,0.6C5.3,22.4,5.4,22.5,5.5,22.5z"/>
	<path class="st3" d="M4,24.2c0.1,0,0.1,0,0.1,0c0.1-0.4,0.1-0.7,0-1c0-0.1-0.1-0.1-0.1-0.1H3.9c-0.3,0.2-0.6,0.4-0.8,0.6
		c0,0.1,0,0.1,0,0.2c0.1,0,0.1,0,0.2,0c0.2-0.2,0.4-0.3,0.6-0.5C4,23.6,4,23.8,3.9,24C3.8,24.1,3.9,24.2,4,24.2z"/>
	<path class="st3" d="M3.6,21.2C3.7,21.2,3.7,21.1,3.6,21.2c0.2-0.4,0.2-0.7,0.1-1c0-0.1-0.1-0.1-0.1-0.1H3.5
		c-0.3,0.2-0.6,0.4-0.8,0.6c0,0.1,0,0.1,0,0.2c0.1,0,0.1,0,0.2,0c0.2-0.2,0.4-0.3,0.6-0.5c0.1,0.2,0.1,0.4,0,0.6
		C3.4,21.1,3.5,21.2,3.6,21.2z"/>
	<path class="st3" d="M1.8,22C1.8,21.9,1.7,21.9,1.8,22l-0.2-0.1c0,0-0.1,0.1-0.1,0.1c0,0.1,0.1,0.1,0.1,0.2c0,0,0,0,0,0
		c0,0,0,0,0,0.1c0.1,0.2,0.1,0.3,0.2,0.5C1.9,22.4,1.9,22.2,1.8,22z"/>
	<path class="st3" d="M0.6,19.6c0,0.1,0,0.1,0,0.2c0,0,0.1,0,0.1,0C0.7,19.7,0.7,19.6,0.6,19.6C0.6,19.5,0.6,19.5,0.6,19.6z"/>
	<path class="st3" d="M1.4,19.3c0.1,0.2,0.1,0.4,0,0.6c-0.1,0.1,0,0.2,0.1,0.2h0.1c0.1-0.4,0.1-0.7,0-1C1.6,19,1.5,19,1.5,19H1.4
		c-0.3,0.2-0.6,0.4-0.8,0.6c0,0.1,0,0.1,0.1,0.2c0,0,0.1,0,0.1,0C1,19.6,1.2,19.5,1.4,19.3z"/>
	<path class="st3" d="M5.6,19.8C5.7,19.8,5.7,19.7,5.6,19.8c0.2-0.4,0.2-0.7,0.1-1c0-0.1-0.1-0.1-0.1-0.1H5.5
		c-0.3,0.2-0.6,0.4-0.8,0.6c0,0.1,0,0.1,0,0.2c0.1,0,0.1,0,0.2,0c0.2-0.2,0.4-0.3,0.6-0.5c0.1,0.2,0.1,0.4,0,0.6
		C5.4,19.7,5.5,19.8,5.6,19.8z"/>
	<path class="st3" d="M3.6,18.5C3.7,18.5,3.7,18.4,3.6,18.5c0.2-0.4,0.2-0.7,0.1-1c0-0.1-0.1-0.1-0.1-0.1H3.5
		c-0.3,0.2-0.6,0.4-0.8,0.6c0,0.1,0,0.1,0,0.2c0.1,0,0.1,0,0.2,0c0.2-0.2,0.4-0.3,0.6-0.5c0.1,0.2,0.1,0.4,0,0.6
		C3.4,18.4,3.5,18.5,3.6,18.5z"/>
	<path class="st3" d="M5.7,17.3L5.7,17.3c0.2-0.4,0.2-0.7,0.1-1c0-0.1-0.1-0.1-0.1-0.1H5.6c-0.3,0.2-0.6,0.4-0.8,0.6
		c0,0.1,0,0.1,0,0.2c0.1,0,0.1,0,0.2,0c0.2-0.2,0.4-0.3,0.6-0.5c0.1,0.2,0.1,0.4,0,0.6C5.5,17.2,5.6,17.3,5.7,17.3z"/>
	<path class="st3" d="M3.8,16c0.1,0,0.1-0.1,0.1,0c0.1-0.4,0.1-0.7,0-1c0-0.1-0.1-0.1-0.1-0.1H3.7c-0.3,0.2-0.6,0.4-0.8,0.6
		c0,0.1,0,0.1,0,0.2c0.1,0,0.1,0,0.2,0c0.2-0.2,0.4-0.4,0.6-0.5c0.1,0.2,0.1,0.4,0,0.6C3.6,15.9,3.7,16,3.8,16z"/>
	<path class="st3" d="M7.6,18.3c0.1-0.4,0.1-0.7,0-1c0-0.1-0.1-0.1-0.1-0.1H7.4c-0.3,0.2-0.6,0.4-0.8,0.6c0,0.1,0,0.1,0,0.2
		c0.1,0,0.1,0,0.2,0c0.2-0.2,0.4-0.3,0.6-0.5c0.1,0.2,0.1,0.4,0,0.6c-0.1,0.1,0,0.2,0.1,0.2C7.5,18.3,7.5,18.2,7.6,18.3z"/>
	<path class="st3" d="M9.7,19c0.1-0.4,0.1-0.7,0-1c0-0.1-0.1-0.1-0.1-0.1H9.5c-0.3,0.2-0.6,0.4-0.8,0.6c0,0.1,0,0.1,0,0.2
		c0.1,0,0.1,0,0.2,0c0.2-0.2,0.4-0.3,0.6-0.5c0.1,0.2,0.1,0.4,0,0.6C9.4,18.9,9.5,19,9.7,19C9.6,19,9.7,18.9,9.7,19z"/>
	<path class="st3" d="M6.5,15.3c0.1,0,0.1,0,0.1,0c0.1-0.4,0.1-0.7,0-1c0-0.1-0.1-0.1-0.1-0.1H6.4c-0.3,0.2-0.6,0.4-0.8,0.6
		c0,0.1,0,0.1,0,0.2c0.1,0,0.1,0,0.2,0c0.2-0.2,0.4-0.3,0.6-0.5c0.1,0.2,0.1,0.4,0,0.6C6.3,15.2,6.4,15.3,6.5,15.3z"/>
	<path class="st3" d="M9.3,16.6C9.3,16.6,9.3,16.6,9.3,16.6C9.4,16.6,9.4,16.6,9.3,16.6z"/>
	<path class="st3" d="M9.3,15.7C9.3,15.6,9.2,15.6,9.3,15.7l-0.2-0.1c-0.3,0.2-0.6,0.4-0.8,0.6c0,0.1,0,0.1,0,0.2c0.1,0,0.1,0,0.2,0
		c0.2-0.2,0.4-0.3,0.6-0.5c0.1,0.2,0.1,0.4,0,0.6c0,0.1,0,0.1,0.2,0.1c0,0,0,0,0,0C9.4,16.2,9.4,15.9,9.3,15.7z"/>
	<path class="st3" d="M9.3,16.6C9.2,16.7,9.3,16.7,9.3,16.6L9.3,16.6z"/>
	<path class="st3" d="M15.5,8.2c0.6-0.4,1.3-1,0.9-1.6c-1.5,0.7-2.8,1.7-4,2.8C13.9,6.7,15.5,4,16.2,1c-2.3,2-4.3,4.5-5.7,7.3
		c-0.1,0.2-0.3,0.4-0.5,0.3C9.9,8.5,9.9,8.3,9.9,8.2c0.2-2,1.1-4.1,0.3-5.9c-0.6,2.3-1.1,4.6-1.5,7C8.4,8.5,8.2,7.8,7.9,7
		C7.8,6.7,7.5,6.3,7.2,6.5C7,6.6,7.2,8.3,7.1,8.8C7,10.5,6.5,11.3,7.2,13c0.1,0,0.1,0.1,0.2,0.2c0.3,0.3,0.7-0.4,1.2-0.4
		c0,0.5,0.1,1,0.2,1.5c1-0.5,2.1-0.9,3.1-1.4c1.2-0.6,2.5-1.3,3.8-1.9c0.2-0.2,0.5-0.3,0.7-0.6s0.1-0.7-0.2-0.8
		c-1,0.3-1.9,0.7-2.9,1C13.9,9.7,14.6,8.9,15.5,8.2z"/>
</g>
</svg>
