<?xml version="1.0" encoding="utf-8"?>
<!-- Generator: Adobe Illustrator 24.2.0, SVG Export Plug-In . SVG Version: 6.00 Build 0)  -->
<svg version="1.1" id="calque_1" xmlns="http://www.w3.org/2000/svg" xmlns:xlink="http://www.w3.org/1999/xlink" x="0px" y="0px"
	 viewBox="0 0 161.6 31.2" style="enable-background:new 0 0 161.6 31.2;" xml:space="preserve">
<style type="text/css">
	.st0{fill:#D6EADD;}
	.st1{fill:#F18C91;}
	.st2{fill:#76AE9D;}
	.st3{fill:#FFFFFF;}
	.st4{fill:#EFBC47;}
	.st5{fill:#2C2623;}
	.st6{fill:#FBDDD8;}
</style>
<path class="st0" d="M146.1,0.1L15.7,0C7.1,0,0.1,6.9,0.1,15.5C0.1,24.1,7.1,31,15.8,31l130.1,0.2c8.7,0,15.7-7.4,15.7-15.9
	C161.6,6.7,154.7,0.1,146.1,0.1z"/>
<g>
	<path class="st1" d="M153.9,2.1c0.7,0.4,1.3,0.8,2,1.3"/>
	<path class="st1" d="M153.1,3c-0.2-0.3-0.4-0.6-0.8-0.8c-0.6-0.4-1.4-0.3-1.6,0.5c-0.3,1.2,0.8,2.8,1.4,3.7c0.3,0.5,1,1.4,1.7,1.5
		c0.4-0.1,0.6-0.6,0.7-0.8c0.6-1.1,1.1-2.3,1.3-3.5c0-0.1,0-0.1,0-0.2c-0.6-0.5-1.3-0.9-2-1.3c-0.2,0.4-0.3,0.9-0.5,1.3
		C153.2,3.3,153.2,3.1,153.1,3z"/>
	<path class="st1" d="M158.1,6.6c-0.3,0-0.6,0.3-0.8,0.6c-0.1,0.2-0.1,0.4-0.2,0.5c-0.2-0.2-0.4-0.6-0.6-0.8
		c-0.3-0.4-0.7-0.3-0.7,0.2c0,0.8,0.5,1.5,0.9,2.1c0.1,0.2,0.3,0.4,0.5,0.5c0.4-0.5,0.8-1,1.2-1.6C158.7,7.6,158.8,6.6,158.1,6.6z"
		/>
	<g>
		<g>
			<path class="st2" d="M11,22.5c-0.1,0-0.3,0.1-0.3,0.2c-0.1,0.4-0.3,0.8-0.6,1.2c-0.2,0.4-0.5,0.8-0.6,1.2c0,0.2,0.1,0.3,0.3,0.4
				c0.1,0,0.2-0.1,0.1-0.2c0.1-0.4,0.4-0.7,0.6-1.1c0.3-0.5,0.6-0.9,0.7-1.4C11.2,22.7,11.2,22.5,11,22.5z"/>
		</g>
		<g>
			<path class="st2" d="M12.1,26.9c-0.1,0-0.3,0.1-0.3,0.2c-0.1,0.4-0.2,0.7-0.4,1c-0.1,0.1-0.1,0.1-0.1,0.2
				c-0.2,0.1-0.3,0.3-0.2,0.4c0.1,0.2,0.2,0.2,0.3,0.2c0.2,0,0.3-0.2,0.3-0.4c0.1,0,0.1-0.1,0.1-0.1c0.2-0.3,0.4-0.7,0.5-1.1
				C12.3,27.1,12.2,26.9,12.1,26.9z"/>
		</g>
		<g>
			<path class="st2" d="M15.1,24c-0.2-0.1-0.3,0-0.4,0.1c-0.1,0.2-0.2,0.4-0.3,0.6c-0.2,0.3-0.4,0.7-0.5,1.1c0,0.2,0.1,0.3,0.3,0.4
				c0.1,0,0.2-0.1,0.3-0.3c0.1-0.3,0.3-0.7,0.5-1c0.1-0.2,0.2-0.4,0.3-0.6C15.3,24.2,15.3,24,15.1,24z"/>
		</g>
		<g>
			<path class="st2" d="M15.5,26.9c-0.1,0.4-0.3,0.7-0.5,1c0,0.1-0.1,0.3-0.2,0.4s-0.1,0.1-0.1,0.2c-0.1,0.1-0.1,0.3,0,0.4
				c0,0.1,0.1,0.1,0.2,0.1c0.2-0.1,0.3-0.2,0.4-0.3c0.1-0.1,0.1-0.1,0.1-0.2c0-0.1,0.1-0.3,0.2-0.4c0.2-0.3,0.4-0.6,0.5-1
				c0-0.2-0.1-0.3-0.2-0.4C15.7,26.7,15.5,26.8,15.5,26.9z"/>
		</g>
		<g>
			<path class="st2" d="M18.6,27.2c-0.1,0.2-0.2,0.3-0.3,0.5c-0.2,0.2-0.4,0.5-0.5,0.8c0,0.2,0.1,0.3,0.3,0.4c0.1,0,0.3-0.1,0.3-0.2
				c0.1-0.2,0.2-0.5,0.4-0.7c0.1-0.1,0.2-0.3,0.3-0.5c0.1-0.2,0-0.3-0.1-0.4C18.8,27,18.7,27.1,18.6,27.2z"/>
		</g>
		<g>
			<path class="st2" d="M20.4,29.7c-0.1-0.1-0.3,0-0.4,0.1c-0.3,0.5-0.5,0.9-0.6,1.1l0.7,0c0.1-0.2,0.2-0.5,0.5-0.8
				C20.6,29.9,20.5,29.8,20.4,29.7z"/>
		</g>
		<g>
			<path class="st2" d="M18.4,22.9c-0.2,0.3-0.4,0.6-0.6,0.9c-0.2,0.2-0.4,0.5-0.5,0.7c-0.1,0.1,0,0.3,0.1,0.4h0.1
				c0.1,0,0.2,0,0.3,0c0.2-0.2,0.3-0.5,0.5-0.7c0.2-0.3,0.4-0.7,0.6-1c0.1-0.2,0-0.3-0.1-0.4C18.6,22.7,18.5,22.8,18.4,22.9z"/>
		</g>
		<g>
			<path class="st2" d="M15.5,19.7c-0.2,0.2-0.4,0.5-0.6,0.7c-0.2,0.3-0.3,0.5-0.5,0.6c-0.2,0.1-0.2,0.3-0.1,0.4
				c0,0.1,0.1,0.1,0.2,0.1c0,0,0.1-0.1,0.2,0c0.2-0.2,0.4-0.5,0.6-0.7c0.2-0.3,0.3-0.5,0.5-0.6c0.2-0.1,0.2-0.3,0.1-0.4
				C15.8,19.6,15.6,19.6,15.5,19.7z"/>
		</g>
		<g>
			<path class="st2" d="M21.3,24.2c-0.2-0.1-0.3,0-0.4,0.1c-0.1,0.2-0.3,0.7-0.4,0.8c-0.1,0.1,0,0.3,0.1,0.4c0.1,0,0.1,0,0.2,0
				c0,0,0.1,0,0.1,0c0.1-0.2,0.4-0.6,0.5-0.9C21.5,24.4,21.5,24.3,21.3,24.2z"/>
		</g>
		<g>
			<path class="st2" d="M8.6,28.9c-0.2-0.1-0.3,0-0.4,0.1c0,0,0,0,0,0c0.2,0.1,0.3,0.2,0.5,0.2C8.8,29.1,8.7,29,8.6,28.9z"/>
		</g>
		<g>
			<path class="st2" d="M6.3,24.9c-0.1,0.2-0.2,0.4-0.3,0.6c-0.2,0.3-0.3,0.5-0.4,0.8c0,0.2,0.1,0.3,0.3,0.4c0.1,0,0.2,0,0.4-0.2
				c0-0.2,0.2-0.5,0.3-0.7c0.1-0.2,0.2-0.5,0.3-0.7c0-0.2-0.1-0.3-0.2-0.4C6.5,24.7,6.4,24.8,6.3,24.9z"/>
		</g>
		<g>
			<path class="st2" d="M10.3,19.3c-0.1,0.2-0.3,0.3-0.4,0.5c-0.2,0.3-0.5,0.6-0.7,0.9c-0.1,0.1,0,0.3,0.1,0.4c0.1,0,0.1,0,0.2,0
				c0.1,0,0.1,0,0.2-0.1c0.2-0.3,0.5-0.6,0.7-0.9c0.1-0.2,0.3-0.3,0.4-0.5c0-0.1,0-0.3-0.1-0.4C10.6,19.2,10.4,19.2,10.3,19.3z"/>
		</g>
	</g>
	<g>
		<g>
			<path class="st3" d="M144.6,24.5c-0.4,0.5-1.1,1.1-1.4,1.2c-0.2,0.1-0.3,0.2-0.2,0.4c0.1,0.1,0.2,0.2,0.3,0.2
				c0.5-0.2,1.4-1,1.7-1.4c0.1-0.1,0.1-0.3,0-0.4C144.9,24.4,144.7,24.4,144.6,24.5z"/>
		</g>
		<g>
			<path class="st3" d="M148.5,24.7c-0.5,0.2-0.8,0.5-1.2,0.8l-0.2,0.1c-0.1,0.1-0.1,0.3,0,0.4c0,0.1,0.1,0.1,0.2,0.1
				c0,0,0.1-0.1,0.2,0l0.2-0.1c0.4-0.3,0.7-0.6,1.1-0.8c0.1-0.1,0.2-0.2,0.1-0.4C148.8,24.7,148.7,24.6,148.5,24.7z"/>
		</g>
		<g>
			<path class="st3" d="M151.6,25.7c-0.3,0.1-0.7,0.4-1,0.6c-0.2,0.2-0.4,0.4-0.5,0.4c-0.2,0.1-0.3,0.2-0.2,0.4
				c0.1,0.1,0.2,0.2,0.3,0.2c0,0,0,0,0.1,0c0.2-0.1,0.4-0.3,0.7-0.5c0.3-0.2,0.6-0.4,0.8-0.5s0.3-0.2,0.2-0.4
				C151.9,25.7,151.8,25.6,151.6,25.7z"/>
		</g>
		<g>
			<path class="st3" d="M149.4,20.8l-0.2,0.1c-0.4,0.2-1,0.5-1.3,0.9c-0.1,0.1-0.1,0.3,0,0.4c0.1,0.1,0.1,0.1,0.2,0.1
				c0.1,0,0.2,0,0.3-0.2c0.3-0.3,0.7-0.5,1.1-0.7l0.2-0.1c0.1-0.1,0.2-0.2,0.1-0.4C149.7,20.8,149.6,20.7,149.4,20.8z"/>
		</g>
		<g>
			<path class="st3" d="M150.9,23.2C150.9,23.2,150.9,23.2,150.9,23.2c-0.1,0-0.1,0-0.1,0C150.9,23.2,150.9,23.2,150.9,23.2z"/>
			<path class="st3" d="M152.1,21.8c-0.3,0.2-0.7,0.4-1.1,0.6c0,0-0.1,0-0.2,0.1c0,0,0,0-0.1,0.1c-0.1,0.1-0.2,0.3-0.1,0.4
				c0.1,0.1,0.1,0.1,0.2,0.2c0-0.1,0.1-0.1,0.1-0.1c0.5-0.3,0.9-0.5,1.4-0.7c0.2-0.1,0.3-0.2,0.2-0.4
				C152.4,21.8,152.3,21.7,152.1,21.8z"/>
		</g>
		<g>
			<path class="st3" d="M154.6,24.8c-0.3,0.2-1.2,0.9-1.2,0.9l0.4,0.5c0,0,0.9-0.7,1.1-0.9c0.2-0.1,0.2-0.3,0.1-0.4
				C154.9,24.7,154.7,24.7,154.6,24.8z"/>
		</g>
	</g>
	<g>
		<g>
			<path class="st2" d="M153,11.9c-0.4-0.7,0.2-1.8-0.2-2.5c-0.4,0.4-0.8,1.1-1.1,1.6c-0.4-0.9,0.1-2.1-0.3-3
				c-0.2,0.7-0.4,1.6-0.8,2.2c-0.6-1-1.5-2.9-2.6-3.4c0.1,1.3,0.8,2.8,1.4,3.9c-0.6-0.3-1.6-1-2.2-1c0.5,1.1,1.4,2.1,2.1,3.1
				c-0.1,0.1-0.1,0.1-0.1,0.1c-0.9,0.2-2,0.1-2.9,0.1c1,0.7,3.2,1.2,3.8,2.2c-0.7,0.3-1.6,0.3-2.4,0.5c1.4,0.4,3.1,0.2,4.5,0.7
				c0,0.1,0,0-0.1,0.1c1.5,0.1,1.6-0.6,1.8-2.3c0.2-1.1,0.4-2.1,0.2-3.1C153.7,11.3,153.4,11.7,153,11.9z"/>
		</g>
		<g>
			<path class="st4" d="M151,16.8l2.3-1.5C152.2,15,151.4,15.9,151,16.8z"/>
			<path class="st4" d="M153.5,14.1c-1.1,0.5-2.1,1.8-2.7,2.7l0.1-0.1c0.5-0.9,1.2-1.7,2.3-1.5l-2.3,1.5c-0.2,0.4-0.3,0.8-0.4,1.1
				c-0.7,2.7,0.8,4.8,2.6,6.7c1,1.1,2.6,1.7,4.1,1.6c1.8-1.9,3.2-4.3,3.9-7C160.1,15.9,157.3,12.6,153.5,14.1z"/>
		</g>
		<g>
			<path class="st3" d="M152.5,15.1c-0.1,0-0.1,0.1-0.1,0.1c0,0.3-0.1,0.6-0.1,0.9c0,0.1,0,0.1,0,0.2c-0.1,1.1-0.2,2.2-0.3,3.4
				c-0.1,1,0,2.1,0,3.1v0.1c0,0.1,0,0.4,0.1,0.6c0.1,0,0.1,0,0.1-0.3c0,0,0-0.2,0-0.4v-0.1c0-1-0.1-2.1,0-3.1c0-1.2,0.1-2.3,0.3-3.3
				c0-0.1,0-0.1,0-0.2c0.1-0.3,0.1-0.6,0.1-0.9C152.6,15.1,152.5,15.1,152.5,15.1z"/>
		</g>
		<g>
			<path class="st3" d="M154.9,14c-0.1,0-0.1,0-0.1,0.1c-0.1,0.5-0.1,1.1-0.1,1.6c0,0.6,0,1.2-0.1,1.8c0,0.3-0.1,0.7-0.1,1
				c-0.1,1.7-0.3,3.5-0.3,5.3c0,0,0,0.1,0,0.2c-0.1,1.1,0,1.2,0.1,1.3c0,0,0,0,0,0c0,0,0,0,0,0c0.1-0.1,0-0.2,0.1-0.1
				c0-0.1,0-0.9,0-1.2c0-0.1,0-0.2,0-0.2c0-1.8,0.1-3.6,0.3-5.3c0-0.3,0.1-0.7,0.1-1c0-0.6,0.1-1.2,0.1-1.8
				C154.9,15.2,155,14.6,154.9,14C155,14,155,14,154.9,14z"/>
		</g>
		<g>
			<path class="st3" d="M156.5,26.1C156.5,26.1,156.5,26.1,156.5,26.1C156.5,26.1,156.5,26.1,156.5,26.1z"/>
			<path class="st3" d="M157.2,14.4c-0.1,0-0.1,0.1-0.1,0.1c0,0.2,0,0.5,0,0.7c0,0,0,0.1,0,0.2c0,1.4-0.1,2.7-0.2,4
				c-0.1,0.6-0.1,1.2-0.2,1.8c-0.1,1.1-0.2,2.3-0.3,3.4c-0.1,0.1-0.1,0.2-0.1,0.4c0,0.3-0.1,0.7,0.1,1.1c0.1,0,0.1,0,0.1,0
				c-0.1-0.3,0-0.7,0-1c0.1-0.2,0.1-0.4,0.1-0.5c0-1.1,0.2-2.3,0.3-3.4c0.1-0.6,0.1-1.2,0.2-1.8c0.1-1.3,0.2-2.6,0.2-4
				c0,0,0-0.1,0-0.2c0-0.2,0-0.5,0-0.7C157.3,14.4,157.3,14.4,157.2,14.4z"/>
		</g>
		<g>
			<path class="st3" d="M159.5,23.2c-0.1,0.2-0.2,0.3-0.3,0.5c0,0,0,0.1,0,0.1"/>
			<path class="st3" d="M160,19.1c0-0.2,0-0.3,0-0.5c0.1-0.6,0.1-1.1,0.1-1.7c0-0.1-0.1-0.1-0.1-0.1c-0.1,0-0.1,0.1-0.1,0.1
				c0,0.6,0,1.1-0.1,1.7c0,0.2,0,0.3,0,0.5c-0.2,1.6-0.4,3.1-0.7,4.6c0.1-0.2,0.2-0.3,0.3-0.5C159.7,21.9,160,20.5,160,19.1z"/>
		</g>
		<g>
			<path class="st3" d="M157.4,24c-0.4-0.1-0.8-0.1-1.2-0.2c-0.8-0.1-1.7-0.2-2.5-0.4c-0.7-0.2-1.2-0.3-1.7-0.2
				c-0.1,0-0.1,0.1-0.1,0.1c0,0.1,0.1,0.1,0.1,0.1h0.1c0.1,0,0.1,0,0.1,0c0.4,0,0.9,0.1,1.5,0.2c0.8,0.2,1.7,0.3,2.5,0.4
				c0.4,0.1,0.8,0.1,1.2,0.2c0.4,0.1,0.8,0.1,1.3,0.2c0-0.1,0.1-0.1,0.2-0.2C158.4,24.2,157.9,24.1,157.4,24z"/>
		</g>
		<g>
			<path class="st3" d="M160.1,22c0,0,0,0.1-0.1,0.1"/>
			<path class="st3" d="M158.2,21.7c-1.1-0.2-2.1-0.3-3.2-0.4c-0.5-0.1-1-0.1-1.5-0.2c-0.2-0.1-0.5-0.1-0.8-0.2
				c-0.8-0.2-1.7-0.4-2-0.2v0.1h0.1c0.2-0.2,1.1,0,1.8,0.2c0.3,0.1,0.6,0.2,0.8,0.2c0.5,0.1,1,0.2,1.5,0.2c1.1,0.1,2.1,0.2,3.2,0.4
				c0.6,0.1,1.3,0.2,1.9,0.2c0,0,0-0.1,0.1-0.1C159.5,21.9,158.8,21.8,158.2,21.7z"/>
		</g>
		<g>
			<path class="st3" d="M161,19.6C161,19.7,161,19.7,161,19.6c0,0.1,0.1,0.1,0.1,0.1c0,0,0-0.1,0.1-0.1
				C161.1,19.6,161.1,19.6,161,19.6z"/>
			<path class="st3" d="M161.2,19.6"/>
			<path class="st3" d="M158.9,19.2c-0.5-0.1-1.1-0.2-1.6-0.3c-0.4-0.1-1.9-0.3-3.5-0.6c-3.1-0.5-3.1-0.5-3.1-0.4l0.1,0.1
				c0.2,0,5.7,0.9,6.4,1c0.5,0,1.1,0.2,1.6,0.3c0.7,0.1,1.4,0.3,2.2,0.4c0,0,0-0.1,0-0.1C160.3,19.6,159.6,19.4,158.9,19.2z"/>
		</g>
		<g>
			<path class="st3" d="M159.7,16.2c-1.4-0.4-2.8-0.5-4.2-0.7c-1.2-0.1-2.3-0.3-3.4-0.5l-0.1,0.1l0.1,0.1c1.1,0.2,2.2,0.4,3.4,0.5
				c1.4,0.2,2.9,0.4,4.2,0.7C159.8,16.3,159.8,16.2,159.7,16.2z"/>
		</g>
		<g>
			<path class="st5" d="M154.8,22.1c-0.1,0.1-0.2,0.3-0.1,0.4c-0.3,0.3,0.3,0.8,0.6,0.7c0.5-0.1,0.4-0.6,0.1-0.9
				C155.3,22.1,155,22,154.8,22.1z"/>
		</g>
		<g>
			<path class="st5" d="M158.9,19.7c-0.1-0.2-0.4-0.3-0.6-0.2c-0.1,0.2-0.2,0.4-0.1,0.4c-0.3,0.3,0.3,0.8,0.6,0.7
				C159.3,20.5,159.2,20,158.9,19.7z"/>
		</g>
		<g>
			<path class="st5" d="M158,21.7c0-0.1-0.1-0.1-0.1-0.1c-0.1,0-0.1,0.1-0.1,0.1c0.1,0.3,0,0.6-0.2,0.8c-0.3,0.2-0.7,0.2-0.9,0h-0.1
				v0.1c0.1,0.1,0.3,0.2,0.5,0.2c0.2,0,0.4-0.1,0.6-0.1C158,22.5,158.1,22,158,21.7z"/>
		</g>
	</g>
	<g>
		<path class="st4" d="M15.1,8.4c-1.7-2.6-4.6-4.2-7.7-3.2c-3.5,1.2-5.8,4.2-6.1,8c-0.1,1.4,0,2.7,0.4,4.1c0,0.6,0.3,1.1,0.5,1.8
			c0.2,0.7,2.2,0.1,2.6-0.2c0,0-0.1-0.4-0.1-1c-0.1-1.3,0-2.8,0.2-4.1c0.3-1.8,1.3-3.9,3-4.6c1.5-0.7,3-0.1,4,1
			c1.2,1.4,1.4,3.6,1.8,5.3c1,0,2.1-0.4,3.1-0.7c0.1-0.6,0-1.3-0.1-1.9C16.5,11.3,16,9.8,15.1,8.4z"/>
		<path class="st3" d="M0.6,19.8C0.7,19.8,0.7,19.8,0.6,19.8c0.1-0.1,0.1-0.1,0-0.1C0.6,19.7,0.6,19.8,0.6,19.8z"/>
		<path class="st3" d="M2.9,19.6c0,0-0.2-2-0.2-2.6c-0.1-1.2,0.1-2.6,0.3-3.9c0.4-2,1.3-4.4,3.5-5.2c1-0.4,2.1-0.7,3.2-0.5
			c1,0.1,1.9,0.8,2.7,1.4c1.5,1.3,2.5,4.3,2.8,6.6c0,0,0.2,0,1.2-0.4c0.5-0.2,1.3-0.4,1.4-1c0-0.2,0.3-0.5,0.2-0.7
			c-0.2-0.6-0.4-1.2-0.7-1.7c-0.4-1-1-1.9-1.6-2.7c-1.2-1.6-2.7-3-4.4-3.9C9.1,3.9,6.5,3.7,4.4,4.8c-2.7,2.8-4.3,6.5-4.3,10.7
			c0,1.4,0.2,2.7,0.6,4c0,0,0.1,0.1,0.1,0.1c0,0,0,0-0.1,0.1c0,0,0,0.1,0,0.1C1.5,19.6,2.3,20,2.9,19.6z"/>
		<path class="st6" d="M1.3,19.6c0.1-0.2-0.1-0.6-0.1-0.8C1.1,18.2,1,17.6,1,17c-0.1-1.2-0.1-2.3,0-3.5c0.2-2,0.7-3.8,2-5.4
			C4,6.9,5.7,6,7.2,5.7c0.7-0.1,1.5-0.2,2.2-0.1c1.4,0.3,2.5,0.8,3.6,1.7c1.1,1,1.8,2,2.4,3.4c0.3,0.7,0.8,1.4,1,2.1
			c0.1,0.4,0.7,1.8,0.7,1.8c0.2,0.1,2.2-0.8,2.6-1.2c0.2-0.1-0.5-0.1-0.4-0.3s-0.1-0.7-0.2-0.9c-0.2-0.7-0.4-1.4-0.7-2.1
			c-0.9-2.4-2.2-5-4.6-6.1C11.7,3,9,2.5,6.5,3c-3.9,2.8-6.5,7.4-6.4,12.5c0,1.6,0.2,3,0.7,4.5C1.1,19.9,1.3,19.8,1.3,19.6z"/>
		<path class="st1" d="M16.6,8.3c1.1,1.7,1.9,3.7,2.5,5.6c0.7-0.1,1.6-0.4,2.2-0.7c-1-5.4-5.8-11-11.3-11.5c-0.5,0-1,0-1.5,0
			c-2,1-3.7,2.4-5.1,4.2C4.6,5,6,4.4,7.4,4.1C11.1,3.3,14.7,5.1,16.6,8.3z"/>
	</g>
	<path class="st4" d="M18.4,1.2c-0.1-0.3-0.2-0.5-0.3-0.8C18,0.3,18,0.1,17.9,0.1c-0.1,0.5-0.2,1-0.5,1.4C17.3,1.8,17,1.9,16.7,2
		c0,0.1,0.2,0.2,0.3,0.2c0.2,0.1,0.3,0.2,0.5,0.3c0.2,0.1,0.3,0.4,0.3,0.6c0.1,0.1,0.1,0.3,0.1,0.5v0.1c0,0,0,0.1,0.1,0.1
		c0-0.1,0.1-0.2,0.1-0.3c0.1-0.2,0.1-0.4,0.2-0.6c0.2-0.3,0.4-0.5,0.6-0.7c0.1-0.1,0.3-0.3,0.4-0.4c-0.1,0-0.3,0-0.4-0.1
		C18.7,1.6,18.5,1.4,18.4,1.2z"/>
	<path class="st4" d="M20.6,3.1c-0.2-0.3-0.2-0.6-0.3-0.9c0,0.1,0,0.2,0,0.3c-0.1,0.2-0.1,0.4-0.2,0.6c-0.1,0.2-0.2,0.3-0.4,0.4
		c-0.1,0-0.3,0-0.3,0.1c0.1,0,0.2,0.1,0.3,0.1C19.8,3.8,20,3.9,20.1,4c0.2,0.2,0.2,0.5,0.2,0.8c0.1-0.2,0.2-0.5,0.2-0.7
		c0.2-0.3,0.5-0.4,0.7-0.6c0,0-0.2-0.1-0.3-0.1C20.8,3.3,20.7,3.2,20.6,3.1z"/>
</g>
</svg>
