<?xml version="1.0" encoding="utf-8"?>
<!-- Generator: Adobe Illustrator 24.2.0, SVG Export Plug-In . SVG Version: 6.00 Build 0)  -->
<svg version="1.1" id="calque_1" xmlns="http://www.w3.org/2000/svg" xmlns:xlink="http://www.w3.org/1999/xlink" x="0px" y="0px"
	 viewBox="0 0 161.6 31.2" style="enable-background:new 0 0 161.6 31.2;" xml:space="preserve">
<style type="text/css">
	.st0{fill:#F6F6F6;}
	.st1{fill:#DEB319;}
	.st2{fill:#F18E60;}
	.st3{fill:#2E60A9;}
	.st4{fill:#3B68AF;}
</style>
<g>
	<g>
		<path class="st0" d="M145.9,0L15.7,0.1c-8.7,0-15.7,7-15.7,15.5c0,8.6,7.1,15.5,15.7,15.5l130.3,0.1c8.7,0,15.5-7.2,15.5-15.8
			C161.6,6.8,154.6,0,145.9,0z"/>
	</g>
	<g>
		<path class="st1" d="M17.2,27.4c-0.2-0.4-0.4-0.7-0.5-1.2c-0.2-1.2,0.7-2.2,1.1-3.3c0.5-1.3,0.2-2.9-0.8-4
			c-2.2-2.5-4.1-0.5-6.4,0.5c-1,0.4-5.1,2.2-4.4-0.4c0.4-1.5,1.6-2.7,2.1-4.1c1.3-3.3-0.9-3.9-3.4-3.6c-1.5,0.2-3,0.7-3.9,1.1
			c-0.2,0.1-0.4,0.2-0.6,0.3c-0.2,0.9-0.3,1.9-0.3,2.9c0,8.6,7.1,15.5,15.7,15.5l4.3,0c-0.2-0.2-0.4-0.5-0.6-0.7
			C18.6,29.5,17.9,28.5,17.2,27.4z"/>
		<path class="st2" d="M159,6.8c-2.8,0.2-5.6,0.9-8.2,2.4c-2.3,1.3-4.4,3.1-6.1,5.1c-2.1,2.4-3.1,4.1-3,7.4c0,1.6-0.1,3.5-1.3,4.6
			c-1,0.9-2.5,1-3.8,1.6c-1.4,0.7-2.1,1.9-2.3,3.2l11.6,0.1c2.4,0,4.9-0.7,7-1.6c0.7-2.6,2-5.3,6.9-7.3c0.1,0,0.2-0.1,0.3-0.1
			c1-2,1.5-4.3,1.5-6.7C161.6,12.2,160.7,9.3,159,6.8z"/>
		<path class="st3" d="M157,4.4c0.1,0.3,0.2,0.5,0.3,0.8c0.3,1.2-0.3,1.1-1.1,0.4c-1-1-1.6-2.5-2.8-3.4c-1.1-0.8-4.1-0.7-4.5,0.9
			c-0.3,1.1,1.7,1.2,2.4,1.7c0.9,0.6,3,2.2,2.8,3.6c-2.9,0.1-6.1-6.5-8.3-2.3c1,0.5,2,0.7,3,1.4c0.6,0.5,1.9,1.6,2,2.6
			c0.1,1.1-0.7,0.7-1.4,0.3c-0.5-0.3-1.1-0.6-1.5-1c-0.5-0.4-0.8-1.2-1.3-1.6c-2.1-1.6-3.6,2.8-4.3,4.3c1.8,0.5,2.6,3.1,4.4,3.8
			c1.5,0.6,1.8-1.2,2.6-2.1c1-1.1,1.4-0.5,1,0.9c-0.2,0.8-0.5,1.4-0.9,2c-0.1,0.2-0.6,0.6-0.6,0.8c0,0.5,1.1,1.1,1.5,1.2
			c3,0.7,1.2-5.7,3.4-6.2c1.4,1.4,0.6,3.7,0.2,5.1c-0.3,1.2-1,2.2-1.9,2.9c1.5,0.7,3,0.6,3.8-0.9c0.9-1.8-0.5-4.9,0.9-6.4
			c1.6-1.8,1.4,3.1,1.4,4.1c0,1.1,0.1,2.3-0.5,3.1c-0.3,0.4-0.8,0.6-1.2,1c0.9,1.5,3.7-1.3,4.9-2.6c0.2-1.1,0.4-2.2,0.4-3.4
			C161.6,11.1,159.9,7.2,157,4.4z M155.8,8.8c-0.4-0.4-1.4-1.4-0.8-1.9c0.3-0.3,0.7-0.2,1,0c0.3,0.2,0.5,0.5,0.7,0.7
			c0.1,0.1,0.4,0.3,0.5,0.4C157.5,8.8,156.3,9.4,155.8,8.8z M159.8,12.4c-0.1,0.3-0.5,0.5-1,0.2c-0.2-0.1-0.4-0.3-0.5-0.8
			c-0.1-0.8,0.7-1.5,1.5-1.2C160.5,10.8,160,11.9,159.8,12.4z"/>
		<path class="st3" d="M153,5.7L153,5.7C153,5.8,153,5.8,153,5.7z"/>
		<path class="st3" d="M153,5.7L153,5.7L153,5.7z"/>
		<path class="st4" d="M6.2,3.9C6.1,4.2,5.9,4.5,5.8,4.8c1.4-0.1,2.7-1.5,2.8-2.9c-0.9,0.4-1.7,1-2.5,1.6C6,3.6,5.9,3.8,5.8,4.1
			L6.2,3.9z"/>
		<path class="st4" d="M9,4.1l0.4-0.2C9.3,4.2,9.1,4.5,9,4.8c1.4-0.1,2.7-1.5,2.8-3C10.7,1.8,9.5,2.8,9,4.1z"/>
		<path class="st4" d="M5.4,7.7l0.4-0.2C5.7,7.8,5.5,8.1,5.4,8.4c1.4-0.1,2.7-1.5,2.8-3C7.1,5.3,5.8,6.3,5.4,7.7z"/>
		<path class="st4" d="M8.1,8.8l0.4-0.2C8.4,8.9,8.2,9.2,8.1,9.5c1.4-0.1,2.7-1.5,2.8-3C9.8,6.4,8.6,7.5,8.1,8.8z"/>
		<path class="st4" d="M12.4,6.8l0.4-0.2l-0.4,0.9c1.4-0.1,2.7-1.5,2.8-3C14.1,4.4,12.9,5.5,12.4,6.8z"/>
		<path class="st4" d="M10.7,11l0.4-0.2c-0.1,0.3-0.3,0.6-0.4,0.9c1.4-0.1,2.7-1.5,2.8-3C12.4,8.6,11.1,9.6,10.7,11z"/>
		<path class="st4" d="M12.5,13.9l0.4-0.2c-0.1,0.3-0.3,0.6-0.4,0.9c1.4-0.1,2.7-1.5,2.8-3C14.2,11.5,13,12.5,12.5,13.9z"/>
		<path class="st4" d="M8.8,15.1l0.4-0.2c-0.1,0.3-0.3,0.6-0.4,0.9c1.4-0.1,2.7-1.5,2.8-3C10.5,12.7,9.2,13.8,8.8,15.1z"/>
		<path class="st4" d="M6.4,13.1l0.4-0.2l-0.4,0.9c1.4-0.1,2.7-1.5,2.8-3C8,10.7,6.8,11.8,6.4,13.1z"/>
		<path class="st4" d="M14.3,9.7l0.4-0.2c-0.1,0.3-0.3,0.6-0.4,0.9c1.4-0.1,2.7-1.5,2.8-3C16,7.3,14.7,8.3,14.3,9.7z"/>
	</g>
</g>
</svg>
