<?xml version="1.0" encoding="utf-8"?>
<!-- Generator: Adobe Illustrator 24.2.0, SVG Export Plug-In . SVG Version: 6.00 Build 0)  -->
<svg version="1.1" id="calque_1" xmlns="http://www.w3.org/2000/svg" xmlns:xlink="http://www.w3.org/1999/xlink" x="0px" y="0px"
	 viewBox="0 0 161.6 31.2" style="enable-background:new 0 0 161.6 31.2;" xml:space="preserve">
<style type="text/css">
	.st0{fill:#F7F5ED;}
	.st1{fill:#EBA31F;}
	.st2{fill:#E3F3FA;}
	.st3{fill:#628273;}
	.st4{fill:#D9E2D7;}
	.st5{fill:none;}
	.st6{fill:#FFFFFF;}
</style>
<g>
	<path class="st0" d="M146.2,0.1L15.7,0C7.1,0,0.1,6.9,0.1,15.5C0.1,24.1,7.1,31,15.8,31l130,0c8.7,0,15.8-7.1,15.8-15.7
		C161.6,6.7,154.8,0.1,146.2,0.1z"/>
</g>
<g>
	<path class="st1" d="M25.1,7.6c-0.2,0.1-0.3,0.2-0.3,0.2L25.1,7.6z"/>
	<path class="st1" d="M21.8,8.2c0.3-0.2-0.6-0.1-0.7-0.1c-0.3,0.1-0.6,0.4-0.2,0.5c-0.2,0.3,0.7,0,0.6,0.1
		C21.8,8.5,22.4,8.1,21.8,8.2z"/>
	<path class="st2" d="M33.1,24.1c-3.3-0.9-3.6-1.8-4.4-5.5c-0.3-1.4-0.8-2.7-2.2-3.3c-0.9-0.4-1.9-0.7-2.6-1.5
		c-0.9-1.1-0.5-2.7-1.1-4c-1.2-2.9-5.5-3.5-7.9-4.2C12,4.8,8.7,3.8,5.5,3.9c-0.1,0-0.2,0-0.2,0c-3.2,2.8-5.2,7-5.2,11.5
		C0.1,24.1,7.1,31,15.8,31l28.7,0C42.9,25.3,37,25.2,33.1,24.1z"/>
	<g>
		<path class="st3" d="M152.3,2.4c0.1-0.1,0.1-0.1,0.2-0.2C152.4,2.2,152.4,2.3,152.3,2.4z"/>
		<path class="st3" d="M149.8,1.9c-1,0.5-1.9,1.1-2.7,1.8c-1.4,1.3-2.8,2.9-3.3,4.8c3.5-0.6,6.3-3.4,8.5-6.1
			c0.1-0.1,0.1-0.2,0.2-0.2c-0.1,0.1-0.1,0.1-0.2,0.2c-1,1.7-2.1,3.4-2.7,5.4c-0.7,2.4-0.8,4.6-0.8,7.1c1.7-1.6,2.9-3.3,3.8-5.5
			c0.8-1.9,1.2-3.9,1.5-5.9c0.1,0.5-0.2,1.3-0.1,1.8c0,1.3,0.2,2.8,0.7,4c0.6,1.3,1.4,2.4,2.2,3.5c0.4,0.6,0.8,1.2,1.4,1.6
			c-0.1-1,0.5-2.2,0.6-3.1c0.3-1.5,0.3-3.1,0.1-4.7c-1.8-2.6-4.3-4.6-7.3-5.8c-0.2,0.1-0.5,0.2-0.7,0.4
			C150.6,1.4,150.2,1.7,149.8,1.9z"/>
		<path class="st1" d="M155,26.9c-1.2-0.4-2.3-0.8-3.6-0.9c-1.8-0.1-3.8,0.3-5.6-0.2c1.3,1.7,4.7,1.8,6.6,1.7c1.1,0,2-0.1,2.9,0.1
			c0.2-0.1,0.4-0.3,0.6-0.4C155.6,27.2,155.3,27.1,155,26.9z"/>
		<path class="st1" d="M158.7,15.9c0,0.3-0.1,0.6-0.1,1c-0.2,1.3-0.5,2.7-0.7,4.1c-0.2,1.5,0,2.8,0.1,4.1c0.6-0.7,1.1-1.4,1.5-2.2
			c0.1-0.6,0.1-1.1,0.1-1.7C159.8,19.4,159.6,17.5,158.7,15.9z"/>
		<path class="st1" d="M151.4,18.9c1.2,0.5,1.7,1.8,2.3,2.9c0.8,1.5,2.5,2.8,3,4.3c-2.8-1.7-5.9-4.1-9.5-3.3c1.4,0.2,2.5,1,3.7,1.7
			c1.7,0.9,4.1,0.8,5.3,2.4c0.3-0.2,0.6-0.5,0.8-0.8c-0.6-1-1-2.5-1.2-3.1C155.1,21.1,153.5,19.3,151.4,18.9z"/>
	</g>
	<g>
		<path class="st1" d="M20.7,6.9c-0.6,0.3-0.2,0.4-0.5,0.8c0.3,0.1,0.7,0,1-0.1c0.4-0.2,1-0.6,0.9-0.9C21.9,6.5,21,6.8,20.7,6.9z"/>
		<path class="st1" d="M23.6,4c0.2-0.2,0-0.3-0.2-0.3c-0.3,0-0.7,0.2-0.9,0.4c-0.4,0.4-0.2,0.8,0.2,0.7c0,0,0.1,0,0.2-0.1
			c0.4-0.2,0.7-0.3,1.1-0.5C24.2,3.9,23.9,3.9,23.6,4z"/>
		<path class="st1" d="M19.1,5.5c0-0.2,0.4-0.4,0.1-0.5c-0.2-0.1-0.6,0.1-0.9,0.2c-0.2,0.1-0.4,0.1-0.5,0.3
			c-0.1,0.1-0.1,0.2,0.1,0.2c-0.1,0.1-0.2,0.1-0.2,0.2c0.1,0.2,0.5,0.1,0.8,0L18.3,6c0.3-0.1,0.7-0.2,0.9-0.3
			C19.5,5.5,19.2,5.5,19.1,5.5z"/>
		<path class="st1" d="M20,1.1c-0.1,0.2-0.4,0.3-0.4,0.5s0.3,0.3,0.5,0.3c0.4-0.1,0.8-0.3,1.1-0.5C21.5,1.1,21.4,1,21.1,1
			C21.7,0.3,19.7,0.9,20,1.1z"/>
		<path class="st1" d="M16.4,3.4c0-0.1-0.1-0.1-0.2-0.1c-0.2,0-0.4,0.1-0.6,0.2c-0.3,0.1-0.4,0.2-0.4,0.5s0.2,0.5,0.4,0.4
			c0.3-0.1,0.8-0.3,1-0.6c0.2-0.2-0.1-0.1-0.2-0.2C16.4,3.5,16.4,3.4,16.4,3.4z"/>
		<path class="st1" d="M26.7,4.6c0-0.1,0-0.2,0-0.2c0-0.1-0.1-0.1-0.2-0.1c-0.2,0-0.4,0.1-0.6,0.2c-0.3,0.1-0.4,0.2-0.4,0.5
			s0.2,0.5,0.4,0.4c0.3-0.1,0.8-0.3,1-0.6C27.1,4.5,26.8,4.7,26.7,4.6z"/>
		<path class="st1" d="M25.1,0.7c-0.1,0,0-0.1,0-0.2c0-0.1-0.1-0.1-0.2-0.1c-0.2,0-0.4,0.1-0.6,0.2c-0.3,0.1-0.4,0.2-0.4,0.5
			s0.2,0.5,0.4,0.4c0.3-0.1,0.8-0.3,1-0.6C25.5,0.6,25.2,0.8,25.1,0.7z"/>
		<path class="st1" d="M15.2,6.3c-0.3-0.1-0.7,0-1,0.1c-0.1,0.1-0.7,0.5-0.5,0.5c-0.1,0.1-0.1,0.2-0.1,0.3c0.1,0.2,0.7,0.2,1,0
			l-0.3,0.2c0.3-0.1,0.6-0.2,0.8-0.3c0.3-0.2,0.3-0.2,0.1-0.4C15.4,6.5,15.4,6.3,15.2,6.3z"/>
		<path class="st1" d="M28.4,2.1C28.7,1.9,27.8,2,27.7,2c-0.3,0.1-0.6,0.4-0.2,0.5c-0.2,0.3,0.7,0,0.6,0.1
			C28.5,2.5,29.1,2.1,28.4,2.1z"/>
	</g>
	<path class="st4" d="M6.2,27.3c1.7-0.1,3.9-1,3.8-2.5c0.9-2.4,3-3.8,5.4-4.4c1.9-0.5,5.2,0.2,6.6-1.5c1.6-1.9,0.6-4.5-0.7-6.2
		c-1.6-2.1-3.1-3.9-4.4-6.1c-2-3.2-5.6-4.1-9.3-4.4C3.1,5,0.1,9.9,0.1,15.5c0,4.7,2.2,9,5.6,11.8c0.2,0,0.3,0,0.5,0H6.2z"/>
	<g>
		<path class="st3" d="M-1,26.4c0.1,0,0.1-0.1,0.1-0.1C-0.9,26.3-0.9,26.3-1,26.4C-1,26.3-1,26.4-1,26.4z"/>
		<path class="st3" d="M6.3,17.8c1.4-1.3,2.9-2.5,4.4-3.6c0.7-0.5,2.5-0.9,2.7-1.7c0.5-1.2-1.3-0.1-1.7,0.1
			c-1.2,0.6-2.2,1.4-3.2,2.2c-2,1.8-3.9,3.7-5.9,5.6c-0.4,0.4-0.8,0.9-1.2,1.3c0.1,0.3,0.3,0.6,0.5,0.9c0.2-0.3,0.5-0.6,0.7-0.9
			C3.7,20.4,5,19,6.3,17.8z"/>
		<path class="st3" d="M20.8,9c-0.7-0.2-1.7,0.2-2.4,0.3c-1.2,0.2-2.2,0.4-3.3,1c-1.4,0.7-3,1.6-3.9,2.9c0.5,0.1,1.3-0.1,1.2-0.1
			c0.1-0.2,0.3-0.2,0.6-0.2c0.7-0.1,1.4-0.1,2.2-0.1c1.2,0,2.3-0.5,3.4-1.1C18.8,11.6,22.4,9.5,20.8,9z"/>
		<path class="st3" d="M13.3,5.1c-0.6,1.1-1.1,2.4-1.6,3.6c-0.4,1.2-0.8,2.6-0.6,3.8c0.1,0.4,0.4,0.8,0.4,0.3
			c0.2-0.7,1.1-1.6,1.5-2.3c0.6-1.1,1-2.2,1.3-3.4c0.2-1.1,0.3-2.4,0.2-3.5C14,3.8,13.5,4.7,13.3,5.1z"/>
		<path class="st3" d="M9.5,5.6C9.1,7,8.9,8.3,8.8,9.7C8.7,10.9,8.9,12,9,13.2c0,0.1,0.1,1.9,0.3,0.9c0.4-0.6,0.6-1.6,0.7-2.3
			c0.3-1.3,0.5-2.6,0.5-3.9c0-1.3,0.2-2.9-0.2-4.2C9.8,3.9,9.6,5.1,9.5,5.6z"/>
		<path class="st3" d="M7.8,5.7C7.6,5.3,7.1,4.3,6.6,4.1C6.1,4.5,6,5.6,6,6.2C5.8,7.5,5.8,9,6.1,10.4c0.3,1.9,0.5,4,1.4,5.2
			c0,0,0-0.1,0.1,0C8.3,13.2,8,10.3,8,7.9C8,7.2,8,6.4,7.8,5.7z"/>
		<path class="st3" d="M5.4,10.5C5.1,9.3,4.9,8.1,4.5,7C4.4,6.6,4.2,5.9,3.8,5.8c-1.4,2.6,0.4,5.9,1.3,8.4c0.4,1.1,0.6,2.5,1.2,2.9
			c0.1-0.5,0-1-0.1-1.5C5.9,13.8,5.7,12.1,5.4,10.5z"/>
		<path class="st3" d="M4.6,18.1c0.3-0.2-0.2-1.2-0.2-1.5c-0.3-1.3-0.8-2.6-1.3-3.9c-0.3-0.7-0.7-1.8-1.3-2.3c-0.9,3,1.1,6,2.7,8.5
			C5.1,18.9,4.8,18.1,4.6,18.1z"/>
		<path class="st3" d="M2.7,21.3c0.4,0,0.6-0.5,0.4-0.8c-0.6-2.4-1.3-4.7-3-6.5c0,0.5-0.1,1-0.1,1.4c0,0.1,0,0.3,0,0.4
			c0.3,1.4,0.8,2.7,1.5,3.9C1.8,20.1,2.4,21.2,2.7,21.3z"/>
		<path class="st3" d="M19,14.5c-1.3-0.5-2.6-0.9-3.9-1.4c-0.6-0.2-2-0.9-2.6-0.4c-0.2,0.2-0.4,0.5-0.1,0.6c1.2,0.7,2.7,1.3,4.1,1.5
			c0.8,0.1,1.6,0.2,2.4,0.3c0.6,0.1,1.3,0.3,1.8,0.1C20.5,14.8,19.4,14.7,19,14.5z"/>
		<path class="st3" d="M18.2,16.6c-1.4-0.7-2.9-1.2-4.4-1.8c-0.9-0.3-3.1-1.3-4.1-0.6c0.1,0.1,0.2,0.3,0.2,0.2
			c0.1,0.1,0.6,0.3,0.8,0.4c1.2,0.7,2.5,1.1,3.7,1.7c1.9,0.9,3.6,1.2,5.6,1C20,17.1,18.6,16.8,18.2,16.6z"/>
		<path class="st3" d="M14.1,17.6c-1.2-0.6-2.5-1.4-3.9-1.8c-0.5-0.2-1.7-0.7-2.2-0.4c-0.3,0.2-0.4,0.7,0,0.6
			c1.6,0.9,3.6,1.4,5.2,2.3c1.3,0.8,3.5,2,5.1,1.6c-0.3-0.3-0.7-0.4-1.1-0.6C16.2,18.7,15.2,18.1,14.1,17.6z"/>
		<path class="st3" d="M15.1,20.7c-0.7-0.5-1.5-1-2.2-1.3c-1.1-0.5-2.3-1-3.4-1.5c-0.7-0.3-1.6-0.7-2.4-0.8
			c-0.4-0.1-1.2,0.4-0.6,0.6c1.8,0.9,3.3,2.4,5.2,3.3c1,0.4,2,0.7,3.1,0.8c0.5,0.1,1.4,0.3,1.8,0C16.4,21.3,15.5,20.9,15.1,20.7z"/>
		<path class="st3" d="M7,19.3c-0.8-0.3-2.1-0.6-2.6,0.2c0.7,0.3,1.2,0.9,1.8,1.3c1,0.7,2.2,1.2,3.4,1.5c1.4,0.4,3.6,1.1,5,0.7
			c-0.6-0.7-2.2-1-3.1-1.5C10,20.9,8.5,19.8,7,19.3z"/>
		<path class="st3" d="M7.5,22.6c-0.9-0.5-1.7-1-2.7-1.3c-0.2-0.1-2.3-0.4-2,0.4c0.3-0.1,0.8,0.7,1.1,0.9c0.8,0.8,1.5,1.2,2.5,1.5
			c1.1,0.3,3.5,1.2,4.5,0.4c-0.3-0.3-0.8-0.4-1.2-0.6C9,23.5,8.3,23,7.5,22.6z"/>
		<path class="st3" d="M7.9,26c-0.8-0.7-2.1-1-3-1.5c-0.7-0.5-1.4-0.8-2.2-1c-0.1,0-0.3-0.1-0.4-0.1c0.4,0.7,0.9,1.4,1.5,2.1
			C4.2,25.8,4.6,26,5,26.1C5.9,26.4,7.1,26.4,7.9,26z"/>
	</g>
</g>
<path class="st5" d="M145.9-0.2L15.7,0C7.1,0,0.1,6.9,0.1,15.5C0.1,24.1,7.1,31,15.8,31L146,30.8c8.7,0,15.7-7,15.7-15.5
	C161.6,6.7,154.6-0.2,145.9-0.2z"/>
<path class="st6" d="M25.1,7.6c-0.2,0.1-0.3,0.2-0.3,0.2L25.1,7.6z"/>
</svg>
