<svg viewBox="0 0 426 233" xmlns="http://www.w3.org/2000/svg" xmlns:xlink="http://www.w3.org/1999/xlink"><clipPath id="a"><path d="m426 221.006s-150.885 10.388-214.093 10.388c-63.388 0-211.907-10.388-211.907-10.388v-211.032s138.141-10.704 214.206-10.704c55.022 0 211.794 10.704 211.794 10.704z"/></clipPath><g clip-path="url(#a)"><path d="m83.796 199.635c.095-.626.21-1.292.641-1.756.264-.284.621-.46.969-.63 1.297-.634 2.606-1.273 4.007-1.618 1.26-.31 2.569-.377 3.836-.659 1.477-.329 2.873-.947 4.327-1.365 1.355-.39 2.753-.604 4.147-.815 5.83-.882 11.835-1.711 17.571-.347-7.256 2.781-14.527 5.568-21.469 9.062-4.04 2.033-8.054 4.335-12.511 5.101-1.47.253-2.515-.248-2.318-1.784.222-1.732.537-3.461.8-5.189z" fill="#d4ecf5"/><path d="m120.032 192.663c-1.29.533-2.472 1.293-3.646 2.048-10.37 6.671-20.799 13.389-29.844 21.77a16.165 16.165 0 0 1 -2.548-8.815c.021-2.489 3.279-3.528 5.149-4.551a85.773 85.773 0 0 1 7.07-3.449c4.888-2.116 9.959-3.797 15.118-5.118a117.06 117.06 0 0 1 4.336-1.022c1.357-.294 3.089-.336 4.365-.863z" fill="#474c64"/><path d="m120.68 192.387a171.897 171.897 0 0 0 -34.636 25.008c.001-2.212-.894-4.309-1.573-6.414-1.041-3.228-1.874-6.981-1.628-10.396.227-3.165 3.346-3.64 5.903-4.462 6.567-2.113 13.348-3.714 20.247-4.174 3.897-.26 7.823-.149 11.687.438zm-36.56 13.665c10.557-7.033 23.747-11.277 35.968-13.339" style="fill:none;stroke:#1d1e1b;stroke-width:.768;stroke-linecap:round;stroke-linejoin:round;stroke-miterlimit:10"/><path d="m79.325 204.488s4.811-7.783 4.975-7.737c.163.046 1.008 9.408 1.008 9.408l7.816 2.663-6.885 2.401s.569 6.99.434 6.846c-.136-.145-5.49-5.536-5.49-5.536s-7.597 3.483-7.488 3.3c.11-.183 3.62-6.034 3.661-6.183s-5.904-7.412-5.754-7.317c.15.094 7.723 2.155 7.723 2.155z" style="fill:#fee787;stroke:#1d1e1b;stroke-width:.75;stroke-linecap:round;stroke-linejoin:round;stroke-miterlimit:10"/><path d="m383.518 28.887c.377.4.208 1.052-.032 1.546a8.288 8.288 0 0 1 -3.531 3.662c-.251.134-.52.257-.804.253-.31-.004-.595-.158-.868-.305-2.442-1.31-5.034-2.315-7.618-3.317l-4.087-1.584c-.723-.28-1.446-.561-2.182-.805a23.546 23.546 0 0 0 -6.738-1.186c-.156-.109.014-.286.191-.356 1.446-.576 3.004-.808 4.552-.963a49.4 49.4 0 0 1 7.498-.177c4.29.224 8.536 1.006 12.707 2.034.276.068.569.147.76.358.189.211.396.694.152.84z" fill="#d4ecf5"/><path d="m377.356 28.15c2.043.657 4.039 1.527 6.165 1.814-.345-1.051-.713-2.14-1.478-2.94-.465-.487-1.054-.838-1.657-1.137-3.292-1.631-7.112-1.819-10.777-1.565a49.236 49.236 0 0 0 -4.673.549c-1.782.296-3.55.691-5.277 1.222-.221.068-.821.16-.876.469-.058.324.398.149.632.127a70.344 70.344 0 0 1 2.512-.185c3.33-.184 6.685-.114 9.986.384a34.74 34.74 0 0 1 5.443 1.262z" fill="#474c64"/><path d="m384.973 26.161c.189.228.539.263.817.16.277-.103.498-.316.702-.53a14.713 14.713 0 0 0 2.716-3.972c-5.228-2.295-11.189-2.653-16.797-1.576s-10.885 3.529-15.683 6.624c5.66-2.076 11.682-2.75 17.708-2.536 1.599.057 3.214.184 4.731.692.988.331 1.92.82 2.921 1.11 1 .291 1.961.509 2.885.028z" fill="#1abee5"/><path d="m379.17 34.373s-3.212-1.367-4.276-1.857c-1.795-.826-3.777-1.565-5.604-2.315-4.029-1.653-8.484-3.028-12.855-3.149.282.008.987-.633 1.243-.79a47.991 47.991 0 0 1 4.471-2.424c1.827-.868 3.71-1.584 5.609-2.268a32.4 32.4 0 0 1 11.066-1.899c3.507.014 6.955.52 10.137 2.03.065.031.141.081.132.153-.01.072-.158.036-.109-.017-1.05 1.589-1.359 3.455-2.268 5.129-.963 1.771-2.357 3.263-3.735 4.734-.287.306-.578.616-.932.843-.252.162-.531.278-.802.407a7.323 7.323 0 0 0 -2.077 1.423z" style="fill:none;stroke:#1d1e1b;stroke-width:.557;stroke-linecap:round;stroke-linejoin:round;stroke-miterlimit:10"/><path d="m378.958 25.122a39.18 39.18 0 0 0 -21.997 1.824c5.87-.85 11.741-.816 17.525.494 1.706.386 3.383.893 5.058 1.4l3.106.939" style="fill:none;stroke:#1d1e1b;stroke-width:.557;stroke-linecap:round;stroke-linejoin:round;stroke-miterlimit:10"/><path d="m389.148 21.738c-.118.127-4.257 3.821-4.257 3.821l-5.934-.437 3.386 4.404-3.578 5.368c.245-.008 6.021-1.977 6.021-1.977l4.032 4.69.113-5.682 4.694-1.168-5.037-3.304z" style="fill:#fee787;stroke:#1d1e1b;stroke-width:.75;stroke-linecap:round;stroke-linejoin:round;stroke-miterlimit:10"/><path d="m73.415 117.808 2.034-2.435 8.48-2.299s36.469 57.277 35.943 56.985c-.526-.293-17.581-12.386-17.581-12.386l-21.147-19.993-9.025-18.712z" style="fill:#474c64;stroke:#1d1e1b;stroke-width:.636;stroke-linecap:round;stroke-linejoin:round;stroke-miterlimit:10"/><path d="m68.584 123.971 51.288 46.088-37.435-20.823-17.716-4.851s-5.209-9.2-5.263-10.163c-.053-.962 2.816-9.054 2.816-9.054zm31.688-15.919s20.788 62.347 19.924 61.696-28.998-54.001-28.998-54.001 1.513-8.068 2.007-8.15 7.067.455 7.067.455zm3.849-6.938 16.075 68.633s-1.518-24.047-1.358-24.88.474-31.024.474-31.024l-2.563-6.421zm22.525-7.03c.208.547-5.889 75.687-5.889 75.687s8.147-25.285 8.323-25.945 6.978-27.86 6.978-27.86z" style="fill:#474c64;stroke:#1d1e1b;stroke-width:.636;stroke-linecap:round;stroke-linejoin:round;stroke-miterlimit:10"/><path d="m146.771 92.293-25.106 77.183 16.208-62.168 1.765-14.838 6.034-1.965z" style="fill:#474c64;stroke:#1d1e1b;stroke-width:.636;stroke-linecap:round;stroke-linejoin:round;stroke-miterlimit:10"/><path d="m118.857 146.349c-.322-8.413-2.554-16.327-2.876-24.74-.1-2.604-3.206-4.852-2.591-7.385.345-1.423-2.705-4.505-2.144-5.857.857-2.065 8.337-2.803 9.194-4.869.279-.673.64-1.423 1.337-1.633 1.182-.356 2.082 1.045 2.521 2.199 1.645 4.329 3.285 8.719 3.819 13.319.822 7.081-1.016 14.158-2.022 21.215-.952 6.677-1.176 13.449-2.424 20.086-.562 2.989-1.151 6.816-2.754 9.454-1.249 2.056-.508-.966-.812-2.161-.484-1.9.319-2.597.047-4.538-.615-4.374-1.126-10.681-1.295-15.09z" fill="#474c64"/><path d="m70.277 149.729 48.341 20.739-.279-.857-36.984-25.685zm82.594-35.17s-30.48 55.206-30.54 54.699-1.203-.135-1.203-.135l15.388-51.749 1.026-19.112 2.513 9.977s4.57 5.622 4.825 5.433c.254-.187 7.991.887 7.991.887z" style="fill:#d4ecf5;stroke:#1d1e1b;stroke-width:.75;stroke-linecap:round;stroke-linejoin:round;stroke-miterlimit:10"/><path d="m139.189 119.54-17.524 49.936-.908.295 13.773-49.801 1.91-1.499zm-55.005 22.645s35.287 28.486 35.146 28.056.542-.181.542-.181l-25.766-36.601-2.937 3.658-7.422 3.73zm15.692-7.36c.456.38 19.997 35.234 19.997 35.234l.324-.312-10.533-42.83-2.158 2.175zm14.534-6.45 6.201 40.947.32-.806-1.671-41.368-2.366-1.113z" style="fill:#d4ecf5;stroke:#1d1e1b;stroke-width:.75;stroke-linecap:round;stroke-linejoin:round;stroke-miterlimit:10"/><path d="m127.374 123.593-6.617 46.178.527-.171 10.282-47.121-1.631-1.395z" style="fill:#d4ecf5;stroke:#1d1e1b;stroke-width:.75;stroke-linecap:round;stroke-linejoin:round;stroke-miterlimit:10"/><path d="m89.95 122.287c-1.33-2.701-2.68-5.427-4.597-7.748-.85-1.03-1.847-1.999-3.099-2.464-1.089-.405-2.406-.345-3.337.314-.807.088-1.589.419-2.339.752-2.107.935-4.371 2.06-5.319 4.161-.69 1.529-.539 3.308-.131 4.935 1.094 4.364 3.85 8.083 6.255 11.886 1.331 2.105 2.573 4.274 4.108 6.235.691.883 1.572 1.787 2.693 1.827.564.02 1.108-.187 1.629-.405a31.517 31.517 0 0 0 6.298-3.533c.712-.515 1.427-1.09 1.801-1.885.419-.892.348-1.931.196-2.904-.617-3.941-2.396-7.592-4.158-11.171zm.598 11.438c.067.502.102 1.037-.116 1.494-.314.658-1.052.979-1.73 1.246-.876.345-1.754.69-2.653.971-.325.102-.675.195-1.002.101-.273-.078-.493-.277-.698-.475-1.731-1.68-3.039-3.739-4.289-5.803-2.017-3.33-3.954-6.802-4.707-10.622-.357-1.814.952-3.65 2.821-4.381 1.932-.756 3.306-.021 4.472 1.428 1.675 2.081 2.963 4.442 4.24 6.789 1.596 2.931 3.22 5.946 3.662 9.252z" style="fill:#1abee5;stroke:#1d1e1b;stroke-width:.75;stroke-linecap:round;stroke-linejoin:round;stroke-miterlimit:10"/><path d="m80.46 142.996-2.324-2.779c-.251.905-.984 1.581-1.685 2.206-.953.85-1.933 1.716-3.12 2.187-1.973.782-4.309.322-6.042-.904-1.732-1.227-2.901-3.135-3.541-5.158-.64-2.024-.79-4.17-.797-6.293-.004-1.33.055-2.701.611-3.909.484-1.051 1.31-1.903 2.15-2.699.82-.777 1.749-1.561 2.873-1.675l-2.667-3.72c-2.36 1.214-4.821 2.48-6.501 4.535-2.275 2.783-2.834 6.643-2.413 10.214.399 3.381 1.622 6.699 3.74 9.365 2.117 2.666 5.157 4.644 8.51 5.236.81.143 1.639.206 2.458.131.889-.081 1.756-.324 2.595-.625a18.945 18.945 0 0 0 7.01-4.458c.106-.107.218-.232.215-.383-.003-.13-.093-.241-.178-.339-.287-.336-.611-.593-.894-.932z" fill="#95d324" stroke="#1d1e1b" stroke-miterlimit="10" stroke-width=".75"/><path d="m100.272 108.052a4.899 4.899 0 0 0 -3.845 1.865 4.897 4.897 0 0 0 -.853 4.187c.187.71.549 1.387 1.105 1.866 1.361 1.171 3.388.873 5.183.886 1.696.012 3.477.414 4.71 1.577.762.719 1.258 1.673 1.664 2.638a20.336 20.336 0 0 1 1.19 3.866c.214 1.06.342 2.16.127 3.219-.318 1.565-1.37 2.911-2.656 3.858s-2.798 1.538-4.317 2.031c-.893.29-1.795.55-2.705.78a14.878 14.878 0 0 1 -1.232-3.411c2.17.087 4.411-.829 5.712-2.568s1.511-4.293.315-6.106c-.263-.398-.589-.761-.988-1.023-.592-.389-1.314-.537-2.021-.567-1.988-.084-4.044.695-5.927.051-1.498-.513-2.568-1.834-3.385-3.191-1.344-2.234-2.241-4.781-2.278-7.388-.019-1.323.211-2.713 1.029-3.753.373-.475.853-.855 1.345-1.204a17.15 17.15 0 0 1 2.699-1.564c.627-.291 2.043-1.126 2.746-.925.672.192.879 1.436 1.108 1.993.126.302 1.028 2.881 1.274 2.883z" fill="#fee787" stroke="#1d1e1b" stroke-miterlimit="10" stroke-width=".75"/><path d="m122.694 94.712-2.345.777c-.513.17-1.029.341-1.565.412-.454.06-.92.048-1.363.166-.048.013-.099.03-.127.071-.029.042-.024.098-.019.149.043.405.092.585.156.986.47 2.949.263 6.003-.6 8.861-3.003-2.531-6.906-3.994-9.19-7.189a78.395 78.395 0 0 0 -3.52 2.17l10.289 27.26c1.622-.441 3.228-.786 4.85-1.227-.572-.549-.879-1.312-1.149-2.057-1.948-5.378-2.83-11.136-5.243-16.322a23.044 23.044 0 0 0 5.221 4.162c.571.333 1.184.668 1.519 1.237l-.296-.324c.507-3.279 1.288-6.487 1.905-9.747 3.074 6.13 4.992 12.738 6.155 19.496l3.865-.963c.118-.029.243-.063.327-.151.177-.187.077-.49-.03-.723-3.946-8.597-5.156-18.19-8.408-27.073-.028-.076-.066-.162-.144-.185-.075-.022-.354.168-.288.214z" style="fill:#95d324;stroke:#1d1e1b;stroke-width:.75;stroke-linecap:round;stroke-linejoin:round;stroke-miterlimit:10"/><path d="m126.646 94.084a69.183 69.183 0 0 1 4.862-1.614c.127 1.561.537 3.084.952 4.594a515.573 515.573 0 0 0 6.729 22.476c-.143-.442-3.954.876-4.658.43-.669-.424-.663-1.621-.814-2.308a165.864 165.864 0 0 0 -7.071-23.578z" style="fill:#1abee5;stroke:#1d1e1b;stroke-width:.75;stroke-linecap:round;stroke-linejoin:round;stroke-miterlimit:10"/><path d="m152.269 115.094c-1.34.794-2.745 1.596-4.298 1.719-1.247.099-2.493-.255-3.631-.776-2.117-.97-3.96-2.545-5.214-4.507-.852-1.332-1.429-2.823-1.871-4.341-.74-2.541-1.114-5.209-.869-7.844.246-2.635 1.132-5.238 2.734-7.344 1.517-1.994 3.928-3.571 6.405-3.197.386 1.188.719 2.357 1.245 3.49-2.27.416-4.167 2.115-5.235 4.16-1.068 2.046-1.395 4.404-1.396 6.712 0 1.1.073 2.215.427 3.256.95 2.791 3.837 4.596 6.762 4.967 1.448.184 2.996.05 4.229-.73a68.394 68.394 0 0 1 1.312 3.9c.08.257-.34.604-.6.535z" fill="#fee787" stroke="#1d1e1b" stroke-miterlimit="10" stroke-width=".75"/><path d="m80.46 142.996-2.324-2.779c-.251.905-.984 1.581-1.685 2.206-.953.85-1.933 1.716-3.12 2.187-1.973.782-4.309.322-6.042-.904-1.732-1.227-2.901-3.135-3.541-5.158-.64-2.024-.79-4.17-.797-6.293-.004-1.33.055-2.701.611-3.909.484-1.051 1.31-1.903 2.15-2.699.82-.777 1.749-1.561 2.873-1.675l-2.667-3.72c-2.36 1.214-4.821 2.48-6.501 4.535-2.275 2.783-2.834 6.643-2.413 10.214.399 3.381 1.622 6.699 3.74 9.365 2.117 2.666 5.157 4.644 8.51 5.236.81.143 1.639.206 2.458.131.889-.081 1.756-.324 2.595-.625a18.945 18.945 0 0 0 7.01-4.458c.106-.107.218-.232.215-.383-.003-.13-.093-.241-.178-.339-.287-.336-.611-.593-.894-.932zm-.933-30.627c-1.025-.063-2.011.357-2.949.773-2.107.935-4.371 2.06-5.319 4.161-.69 1.529-.539 3.308-.131 4.935 1.094 4.364 3.85 8.083 6.255 11.886 1.331 2.105 2.573 4.274 4.108 6.235.691.883 1.572 1.787 2.693 1.827.564.02 1.108-.187 1.629-.405a31.517 31.517 0 0 0 6.298-3.533c.712-.515 1.427-1.09 1.801-1.885.419-.892.348-1.931.196-2.904-.616-3.941-2.395-7.592-4.157-11.171-1.33-2.701-2.68-5.427-4.597-7.748-.85-1.03-1.847-1.999-3.099-2.464s-2.805-.318-3.726.648m21.743-4.672a4.899 4.899 0 0 0 -3.845 1.865 4.897 4.897 0 0 0 -.853 4.187c.187.71.549 1.387 1.105 1.866 1.361 1.171 3.388.873 5.183.886 1.696.012 3.477.414 4.71 1.577.762.719 1.258 1.673 1.664 2.638a20.336 20.336 0 0 1 1.19 3.866c.214 1.06.342 2.16.127 3.219-.318 1.565-1.37 2.911-2.656 3.858s-2.798 1.538-4.317 2.031c-.893.29-1.795.55-2.705.78a14.878 14.878 0 0 1 -1.232-3.411c2.17.087 4.411-.829 5.712-2.568s1.511-4.293.315-6.106c-.263-.398-.589-.761-.988-1.023-.592-.389-1.314-.537-2.021-.567-1.988-.084-4.044.695-5.927.051-1.498-.513-2.568-1.834-3.385-3.191-1.344-2.234-2.241-4.781-2.278-7.388-.019-1.323.211-2.713 1.029-3.753.373-.475.853-.855 1.345-1.204a17.15 17.15 0 0 1 2.699-1.564c.627-.291 2.043-1.126 2.746-.925.672.192.879 1.436 1.108 1.993.126.302 1.028 2.881 1.274 2.883zm22.422-13.34-2.345.777c-.513.17-1.029.341-1.565.412-.454.06-.92.048-1.363.166-.048.013-.099.03-.127.071-.029.042-.024.098-.019.149.043.405.092.585.156.986.47 2.949.263 6.003-.6 8.861-3.003-2.531-6.906-3.994-9.19-7.189a78.395 78.395 0 0 0 -3.52 2.17l10.289 27.26c1.622-.441 3.228-.786 4.85-1.227-.572-.549-.879-1.312-1.149-2.057-1.948-5.378-2.83-11.136-5.243-16.322a23.044 23.044 0 0 0 5.221 4.162c.571.333 1.184.668 1.519 1.237l-.296-.324c.507-3.279 1.288-6.487 1.905-9.747 3.074 6.13 4.992 12.738 6.155 19.496l3.865-.963c.118-.029.243-.063.327-.151.177-.187.077-.49-.03-.723-3.946-8.597-5.156-18.19-8.408-27.073-.028-.076-.066-.162-.144-.185-.075-.022-.354.168-.288.214zm3.952-.628a69.183 69.183 0 0 1 4.862-1.614c.127 1.561.537 3.084.952 4.594a515.573 515.573 0 0 0 6.729 22.476c-.143-.442-3.954.876-4.658.43-.669-.424-.663-1.621-.814-2.308a165.864 165.864 0 0 0 -7.071-23.578zm25.623 21.01c-1.34.794-2.745 1.596-4.298 1.719-1.247.099-2.493-.255-3.631-.776-2.117-.97-3.96-2.545-5.214-4.507-.852-1.332-1.429-2.823-1.871-4.341-.74-2.541-1.114-5.209-.869-7.844.246-2.635 1.132-5.238 2.734-7.344 1.517-1.994 3.928-3.571 6.405-3.197.386 1.188.719 2.357 1.245 3.49-2.27.416-4.167 2.115-5.235 4.16-1.068 2.046-1.395 4.404-1.396 6.712 0 1.1.073 2.215.427 3.256.95 2.791 3.837 4.596 6.762 4.967 1.448.184 2.996.05 4.229-.73a68.394 68.394 0 0 1 1.312 3.9c.08.257-.34.604-.6.535z" style="fill:none;stroke:#1d1e1b;stroke-width:.636;stroke-linecap:round;stroke-linejoin:round;stroke-miterlimit:10"/><path d="m75.218 120.692c.752 3.82 2.69 7.291 4.707 10.622 1.249 2.063 2.557 4.123 4.289 5.803.204.198.424.396.698.475.328.094.677 0 1.002-.101.899-.281 1.776-.626 2.653-.971.678-.267 1.416-.588 1.73-1.246.218-.458.184-.992.116-1.494-.442-3.307-2.066-6.321-3.661-9.251-1.278-2.347-2.565-4.707-4.24-6.789-1.166-1.449-2.54-2.183-4.472-1.428-1.87.73-3.179 2.566-2.822 4.38z" style="fill:none;stroke:#1d1e1b;stroke-width:.636;stroke-linecap:round;stroke-linejoin:round;stroke-miterlimit:10"/><path d="m259.856 77.636c1.02-3.829 2.973-7.51 5.672-10.724 2.379-2.833 5.273-5.24 8.537-6.987 2.362-1.264 3.741-1.28 6.597-1.707 7.615-1.139 15.281 2.495 20.816 7.848 2.023 1.957 3.936 4.142 4.904 6.785.996 2.719.915 5.704.685 8.59-.2 2.511-.505 5.026-1.193 7.449-1.547 5.452-5.075 10.319-9.776 13.484s-10.537 4.604-16.171 3.986c-5.885-.645-10.214-3.13-14.503-7.472-6.078-6.153-7.509-13.969-5.568-21.252" fill="#d4ecf5"/><path d="m304.638 92.251c-1.852 4.068-4.831 7.625-8.541 10.123-4.701 3.165-10.537 4.604-16.171 3.986-5.885-.645-10.214-3.13-14.503-7.472-6.078-6.153-7.73-14.625-5.156-22.637" fill="#d4ecf5" stroke="#1d1e1b" stroke-miterlimit="10" stroke-width=".75"/><path d="m306.98 84.724c13.524 6.486 23.044 18.862 13.838 19.78-13.405 1.337-25.153-2.392-39.229-6.946s-30.636-13.386-37.398-19.458-5.796-11.592 3.036-12.006 16.836 3.726 16.836 3.726c-.61 1.006-1.519 1.829-2.129 2.835-.124.205-.257.418-.466.534-.237.132-.526.114-.797.092l-5.137-.416c-.583-.047-1.19-.091-1.735.123-.544.214-1.002.77-.902 1.346.048.275.211.514.37.744l1.615 2.327c.772 1.112 1.555 2.237 2.574 3.129.718.629 1.537 1.129 2.353 1.625l6.258 3.812c2.892 1.762 6.03 2.852 9.16 4.145 2.793 1.154 5.748 1.857 8.689 2.556l19.636 4.663c2.66.632 5.454 1.263 8.094.55.371-.1.749-.235 1.02-.506.525-.525.485-1.425.113-2.067-.373-.642-1.001-1.087-1.611-1.511l-4.91-3.416c-.243-.169-.497-.351-.615-.622-.097-.223-.088-.477-.07-.72.112-1.557.759-2.898 1.407-4.319z" fill="#474c64"/><g stroke="#1d1e1b" stroke-miterlimit="10"><path d="m261.331 73.484c-2.238-.711-4.608-1-6.951-.849-.636.041-1.33.144-1.758.616-.913 1.007.103 2.563 1.103 3.482a65.134 65.134 0 0 0 5.739 4.705c11.504 8.376 25.208 12.778 39.083 15.288 4.054.733 8.09 1.646 12.231 1.663.416.002.844-.008 1.228-.169 1.589-.671.549-2.837-.208-3.731-1.689-1.998-4.407-4.135-6.99-4.71" fill="none" stroke-width=".75"/><path d="m263.386 69.496c-2.107-.967-8.85-3.744-16.159-3.401-8.832.414-9.798 5.934-3.036 12.006s23.322 14.904 37.398 19.458 25.093 8.509 38.486 7.05c10.998-1.197.43-13.398-13.094-19.884l-.434-.206" fill="none" stroke-width=".75"/><path d="m260.268 76.251c1.093-3.329 2.888-6.514 5.26-9.339 4.109-4.894 10.2-8.356 16.682-8.859 11.786-.915 23.519 6.633 25.124 18.734.695 5.239-.526 10.697-2.696 15.465" fill="#d4ecf5" stroke-width=".75"/><path d="m285.09 57.936c1.609 1.305 2.749 3.228 3.54 5.179 1.055 2.602 1.649 5.387 2.896 7.903 2.847 5.746 9.233 9.545 15.641 9.303m-30.912-20.982c4.184 4.836 4.961 11.693 7.879 17.383 3.917 7.637 12.658 13.192 21.221 13.767m-42.187-20.919c.764 4.083 3.077 7.791 6.139 10.598s6.841 4.755 10.79 6.043c3.156 1.029 6.471 1.668 9.406 3.217 3.396 1.792 6.06 4.682 8.652 7.515m-37.588-21.679a15.381 15.381 0 0 0 4.176 9.582" fill="none" stroke-width=".674"/><path d="m275.227 159.49a3.919 3.919 0 0 0 1.766-2.135 13.99 13.99 0 0 0 -2.901.298c-.334-.96-.788-1.874-1.285-2.76a23.557 23.557 0 0 0 -1.234 3.471c-.977.203-1.857.541-2.754.978.894.524 1.874.9 2.888 1.109.007.674-.035 1.452-.027 2.126.003.313.01.639.158.914l1.633-2.683c.018-.029 1.003.602 1.512.833s1.068.418 1.619.325c-.419-.795-.926-1.7-1.375-2.476z" fill="#fee787" stroke-linecap="round" stroke-linejoin="round" stroke-width=".557"/><path d="m86.297 170.71c.713 2.158 1.254 3.594 1.884 5.784-.149-.157-4.251-3.332-4.581-3.723 2.012-.031 3.8-.146 5.811-.052-1.58 1.252-3.146 2.533-4.745 3.755.974-1.436 1.309-4.023 1.631-5.764zm-22.034-76.658c.713 2.158 1.254 3.594 1.884 5.784-.149-.157-4.251-3.332-4.581-3.723 2.012-.031 3.8-.146 5.811-.052-1.58 1.252-3.146 2.533-4.745 3.755.973-1.436 1.309-4.023 1.631-5.764z" fill="none" stroke-linecap="round" stroke-linejoin="round" stroke-width=".485"/><path d="m44.683 141.577a4.71 4.71 0 0 0 2.341-2.371 16.85 16.85 0 0 0 -3.507.051c-.298-1.185-.746-2.328-1.248-3.442a28.38 28.38 0 0 0 -1.845 4.028c-1.192.14-2.282.452-3.402.881a11.441 11.441 0 0 0 3.343 1.634c-.062.808-.195 1.735-.257 2.544-.029.375-.055.767.093 1.112l2.239-3.043c.024-.033 1.138.827 1.723 1.157s1.236.613 1.906.56a90.03 90.03 0 0 0 -1.386-3.111zm132.834 65.884a4.71 4.71 0 0 0 -2.412-2.299 16.844 16.844 0 0 0 .113 3.506c-1.18.319-2.315.787-3.42 1.309a28.421 28.421 0 0 0 4.06 1.774c.161 1.189.492 2.273.94 3.386a11.474 11.474 0 0 0 1.575-3.371c.809.048 1.739.164 2.548.212.375.022.768.042 1.11-.112l-3.081-2.186c-.033-.024.807-1.152 1.127-1.743s.591-1.246.526-1.915c-.989.434-2.117.965-3.086 1.439zm-16.121-126.262a6.051 6.051 0 0 0 4.265.354 21.549 21.549 0 0 0 -2.939-3.414c.922-1.27 1.68-2.653 2.364-4.066a36.579 36.579 0 0 0 -5.489 1.499c-1.119-1.059-2.325-1.876-3.67-2.627.125 1.595.513 3.17 1.144 4.64-.848.605-1.871 1.237-2.719 1.842-.393.28-.801.577-1.02 1.008l4.843-.299c.052-.003.123 1.802.279 2.651.157.849.414 1.723 1.018 2.339a114.947 114.947 0 0 0 1.924-3.927z" fill="#fee787" stroke-linecap="round" stroke-linejoin="round" stroke-width=".67"/><path d="m149.662 138.262c1.05 2.524 1.829 4.196 2.782 6.766-.193-.174-5.399-3.611-5.83-4.051 2.41-.219 4.544-.518 6.964-.587-1.782 1.644-3.544 3.322-5.351 4.932 1.038-1.81 1.206-4.943 1.435-7.06zm71.629-69.196c1.05 2.524 1.829 4.196 2.782 6.766-.193-.174-5.399-3.611-5.83-4.051 2.41-.219 4.544-.518 6.964-.587-1.782 1.644-3.544 3.322-5.351 4.932 1.038-1.809 1.206-4.942 1.435-7.06z" fill="none" stroke-linecap="round" stroke-linejoin="round" stroke-width=".583"/><path d="m341.129 184.71c1.734 1.555 2.961 2.553 4.62 4.181-.231-.06-6.067-.708-6.598-.882 2.151-1.109 4.024-2.172 6.229-3.168-1.139 1.973-2.249 3.965-3.422 5.921.404-1.813-.395-4.316-.829-6.052z" fill="none" stroke-linecap="round" stroke-linejoin="round" stroke-width=".532"/><g stroke-linecap="round" stroke-linejoin="round"><path d="m409.606 92.02a34.702 34.702 0 0 1 2.298 7.308c-2.754-1.106-5.152-2.651-7.469-4.586a209.016 209.016 0 0 1 -8.342 4.537c.818-2.752 1.725-5.636 2.543-8.387-1.581-1.075-4.76-4.614-4.895-5.231 2.528-.469 6.479-.106 6.803-.309s3.102-4.815 4.41-6.714a35.314 35.314 0 0 1 2.957 7.769c2.487.448 4.932.886 7.439 1.184.081.01.169.023.226.086.135.152-.033.388-.191.513a27.476 27.476 0 0 1 -3.818 2.547c-.696.385-2.038 1.323-1.961 1.283z" fill="#474c64" stroke-width=".75"/><path d="m393.931 80.365 1.042.935c.059.053.18.09.195.011m3.612-3.651.683 1.375m10.596 1.34c.267-.509.584-.991.945-1.438m3.114 5.416c.486-.137.968-.289 1.445-.454m-14.094 16.863a7.323 7.323 0 0 1 -1.036 1.511.24.24 0 0 1 .102-.155m6.582-1.339c.352.488.594 1.056.702 1.648m-17.032-7.041a7.17 7.17 0 0 1 1.604-1.185m-2.624-4.577a8.07 8.07 0 0 0 1.932-.107m22.884 6.248 1.082 1.104.006-.162m.312-4.635c.487.045.98.014 1.458-.092" fill="none" stroke-width=".557"/></g><g stroke-linecap="round" stroke-linejoin="round"><path d="m337.901 67.084.398-8.465-15.635-2.461-.768 10.351 15.612.755 12.822 8.352 10.348 22.316" fill="none" stroke-width=".557"/><g fill="#fee787"><path d="m319.605 67.136a4.158 4.158 0 0 0 -.693 2.855c.95-.467 1.793-.981 2.628-1.63.764.76 1.621 1.422 2.506 2.036a24.934 24.934 0 0 0 -.434-3.882c.837-.647 1.52-1.377 2.172-2.21a10.112 10.112 0 0 0 -3.269.282c-.32-.639-.64-1.4-.96-2.04-.148-.296-.306-.605-.575-.799l-.312 3.316c-.003.036-1.235-.108-1.828-.092-.592.016-1.212.097-1.695.442a83.39 83.39 0 0 0 2.46 1.722zm28.434 9.107a4.158 4.158 0 0 0 -.693 2.855c.95-.467 1.793-.981 2.628-1.63.764.76 1.621 1.422 2.506 2.036a24.934 24.934 0 0 0 -.434-3.882c.837-.647 1.52-1.377 2.172-2.21a10.112 10.112 0 0 0 -3.269.282c-.32-.639-.64-1.4-.96-2.04-.148-.296-.306-.605-.575-.799l-.312 3.316c-.003.036-1.236-.108-1.828-.092s-1.212.097-1.695.442a79.764 79.764 0 0 0 2.46 1.722zm10.347 22.316a4.158 4.158 0 0 0 -.693 2.855c.95-.467 1.793-.981 2.628-1.63.764.76 1.621 1.422 2.506 2.036a24.934 24.934 0 0 0 -.434-3.882c.837-.647 1.52-1.377 2.172-2.21a10.112 10.112 0 0 0 -3.269.282c-.32-.639-.64-1.4-.96-2.04-.148-.296-.306-.605-.575-.799l-.312 3.316c-.003.036-1.236-.108-1.828-.092s-1.212.097-1.695.442a79.764 79.764 0 0 0 2.46 1.722zm-21.05-29.935a3.366 3.366 0 0 0 1.786-.723c.208-.167.403-.37.476-.627.134-.467-.181-.96-.587-1.228-.496-.328-1.155-.417-1.704-.186s-.955.791-.96 1.386.422 1.179 1.001 1.315m19.499 18.403a3.367 3.367 0 0 1 -1.276 1.444c-.227.141-.483.257-.749.241-.485-.029-.845-.49-.964-.962-.145-.577-.009-1.228.391-1.669s1.063-.638 1.626-.445.972.79.908 1.381" stroke-width=".557"/><path d="m337.708 60.177a2.678 2.678 0 0 0 1.601-.593c.182-.148.349-.332.402-.574.097-.441-.221-.932-.609-1.212-.475-.343-1.086-.466-1.577-.276s-.834.704-.804 1.275.455 1.156.995 1.319" stroke-width=".522"/><path d="m323.978 56.368a2.603 2.603 0 0 1 -1.069 1.298c-.197.12-.423.214-.667.182-.443-.058-.801-.522-.938-.98-.168-.56-.086-1.173.25-1.569.336-.395.927-.542 1.451-.321.524.22.935.816.914 1.377" stroke-width=".518"/></g></g><g><g fill="none" stroke-width=".75"><path d="m287.442 215.361c-.883-.841-1.476-2.016-1.968-3.209-1.538-3.734-2.25-7.884-2.307-12.019s.528-8.259 1.486-12.243c.333-1.387.721-2.78 1.414-3.976s1.735-2.187 2.962-2.437c1.298-.264 2.651.34 3.642 1.343s1.661 2.367 2.163 3.775c1.738 4.875 1.62 10.345 1.229 15.598-.215 2.893-.507 5.79-1.141 8.599-.375 1.66-.885 3.32-1.817 4.655-1.319 1.889-4.172 1.335-5.663-.086z"/><path d="m274.668 205.086c.219-1.199.877-2.339 1.605-3.405 2.28-3.333 5.361-6.204 8.787-8.518 3.427-2.314 7.197-4.086 11.054-5.468 1.343-.481 2.721-.921 4.101-.997s2.78.253 3.662 1.142c.933.941 1.169 2.403.873 3.782s-1.069 2.687-1.972 3.878c-3.125 4.126-7.764 7.025-12.372 9.578-2.537 1.406-5.12 2.75-7.818 3.76-1.594.596-3.262 1.079-4.89 1.032-2.3-.068-3.401-2.758-3.03-4.784z"/><path d="m275.42 189.798c1.135-.445 2.45-.487 3.74-.429 4.034.182 8.097 1.288 11.87 2.981s7.265 3.964 10.472 6.514c1.116.888 2.216 1.827 3.008 2.96s1.25 2.496.959 3.714c-.308 1.288-1.427 2.259-2.755 2.735s-2.847.507-4.335.368c-5.153-.482-10.062-2.898-14.66-5.469-2.532-1.416-5.035-2.903-7.315-4.664-1.347-1.04-2.636-2.204-3.453-3.612-1.155-1.993.552-4.345 2.469-5.098z"/></g><path d="m286.901 212.322c-.333-.285-.853-.258-1.232-.038-.379.221-.641.596-.854.979-.178.319-.335.665-.341 1.031-.007.401.173.791.44 1.09s.615.516.98.683c.291.133.611.239.927.189.2-.032.386-.125.553-.24.513-.352.871-.924.964-1.539s-.081-1.267-.469-1.755c-.375-.473-1.032-.792-1.591-.563m-7.322-24.184c-.333-.285-.853-.258-1.232-.038s-.641.596-.854.979c-.178.319-.335.665-.341 1.031-.007.401.173.791.44 1.09s.615.516.98.683c.291.133.611.239.927.189.2-.032.386-.125.553-.24.513-.352.871-.924.964-1.539s-.081-1.267-.469-1.755c-.375-.473-1.032-.792-1.591-.563m26.099 5.161c-.221-.378-.722-.523-1.152-.439s-.801.354-1.128.646c-.273.244-.534.519-.659.863-.137.377-.095.804.059 1.174s.413.689.703.966c.231.221.499.426.814.481.2.035.406.008.601-.046.6-.165 1.125-.588 1.414-1.14s.337-1.224.131-1.811c-.2-.57-.716-1.086-1.319-1.052" fill="#fee787" stroke-linecap="round" stroke-linejoin="round" stroke-width=".557"/></g><path d="m18.673 87.489c12.892-6.901 28.857 3.938 30.095 17.711.723 8.047-3.521 16.2-10.17 20.677-4.251 2.862-9.529 4.163-14.624 3.605-5.322-.584-9.237-2.83-13.115-6.757-8.386-8.49-6.989-20.48.094-28.917 2.15-2.563 4.768-4.739 7.72-6.319z" fill="#d4ecf5" stroke-width=".75"/><path d="m22.396 85.995c.101 1.65.328 3.822.429 5.471.046.752.092 1.513-.048 2.253a4.654 4.654 0 0 1 -2.711 3.364c-1.226.518-2.769.566-3.575 1.625-.387.509-.519 1.161-.64 1.789l-.709 3.67c-.246 1.272-.576 2.679-1.652 3.402-.815.548-1.872.562-2.849.46a14.851 14.851 0 0 1 -4.956-1.424c-.364-3.231 1.011-5.898 2.287-8.442a25.49 25.49 0 0 1 2.478-3.995c.953-1.252 2.113-2.178 3.287-3.226 2.927-2.609 5.655-4.117 8.659-4.947zm13.083 6.103c-1.253 1.277-2.088 2.93-2.435 4.685-.161.816-.218 1.724.24 2.418.579.877 1.847 1.202 2.219 2.185.308.813-.14 1.695-.522 2.476a18.565 18.565 0 0 0 -1.238 3.296c-.067.249-.124.534.018.749.11.166.309.243.496.31 1.46.522 3.043.989 4.541.584 1.346-.364 2.406-1.375 3.403-2.349l3.588-3.505c.597-.583 1.231-1.242 1.298-2.074.047-.589.25-1.181.006-1.718-1.971-4.337-6.392-12.379-11.614-7.057zm-19.97 21.704c.588-.886 1.361-1.752 2.401-1.979 1.695-.372 3.262 1.111 3.995 2.684.331.71.587 1.491 1.164 2.022 1.203 1.107 3.234.66 4.574 1.597.949.664 1.339 1.88 1.477 3.03.055.459.077.938-.09 1.368-.409 1.051-1.71 1.38-2.827 1.533-1.874.256-3.761.42-5.651.492-.871.033-1.757.045-2.595-.195-1.159-.332-2.127-1.115-3.059-1.879-2.939-2.408-1.224-5.908.611-8.673zm29.826 5.056c-3.188.481-6.551 2.228-8.272 4.955-.646 1.024-1.228 2.741-1.702 3.856 1.686-1.034 3.366-1.974 4.989-3.104.506-.353 1.071-.984 1.536-1.389 1.336-1.165 2.498-2.821 3.449-4.318z" fill="#95d324" stroke-width=".75"/><g><g fill="#95d324" stroke-width=".75"><path d="m46.894 192.164c-1.685-.725-1.372-4.153-1.521-5.555a87.082 87.082 0 0 0 -1.025-6.949c-.269-1.421-.574-2.839-.709-4.279-.184-1.956-.054-3.926-.088-5.891a35.287 35.287 0 0 0 -2.594-12.666c-.649-1.592-1.657-3.329-3.353-3.611-1.709-.284-3.327 1.177-3.8 2.844-.376 1.328-.205 2.749.094 4.096.672 3.03 1.96 5.881 3.045 8.789a68.734 68.734 0 0 1 4.051 17.813c.157 1.743.523 4.055-1.542 4.518-.271.061-.471.033-.683-.09-.194-.064-.28-.273-.372-.481a61.492 61.492 0 0 0 -4.249-7.971c-1.148-1.818-2.395-3.582-3.331-5.516-.722-1.492-1.251-3.068-1.868-4.606-.765-1.907-1.664-3.757-2.562-5.605l-1.939-3.985c-.806-1.656-1.755-3.451-3.466-4.129-.652-.257-1.482-.291-1.969.212-.276.285-.389.686-.479 1.073-1.024 4.45-.047 9.323 2.617 13.033 1.294 1.803 2.942 3.317 4.411 4.979a31.877 31.877 0 0 1 6.003 10.057c.385 1.041.689 2.441 1.18 3.689-.083-.007-.161 0-.245-.009-1.138-.124-2.082-1.292-3.205-1.064-.434.088-.801.381-1.085.72-1.054 1.26-1.026 3.293.062 4.523.538.607 1.271 1.009 1.84 1.586 1.206 1.222 1.517 3.034 1.956 4.693.704 2.664 2.006 5.351 4.362 6.78 1.988 1.207 4.451 1.356 6.537 2.386 2.191-.192 4.206-.836 5.981-2.136.22-.161.443-.34.559-.586.2-.423.042-.917.001-1.383-.118-1.371.813-2.575 1.474-3.781.719-1.315 1.149-2.767 1.523-4.22.495-1.93.852-4.143-.282-5.782-.77-1.113-2.187-1.74-3.528-1.562-.604.081-1.24.306-1.801.066z"/><path d="m27.323 195.353c.051.256.13.518.306.709.214.232.538.327.851.373 1.082.162 2.39-.044 3.086.8.498.603.481 1.573 1.114 2.032.332.241.765.276 1.163.38 1.905.499 3.098 2.627 5.037 2.97.407.072.902.019 1.116-.335.107-.177.119-.395.114-.603a4.48 4.48 0 0 0 -2.171-3.676c-.377-.221-.797-.393-1.089-.719-.469-.523-.522-1.351-1.059-1.804-.376-.317-.908-.376-1.325-.638-.547-.344-.819-.978-1.129-1.544-.664-1.214-2.504-3.227-4.101-2.578-1.564.637-2.206 3.164-1.913 4.633z"/><path d="m51.893 193.075c-1.024-.882-2.338-1.036-3.605-.978-1.311.061-2.594.38-3.866.698l-4.248 1.061c-.362.09-.728.182-1.059.354-.382.198-.703.496-1.012.795a31.047 31.047 0 0 0 -3.141 3.55c-.223.295-.451.621-.451.99-.001.425.315.804.7.985s.826.197 1.251.167c2.22-.157 4.312-1.556 5.303-3.549.11-.222.213-.458.401-.62.279-.242.68-.268 1.05-.269a15 15 0 0 1 4.506.684" stroke-linecap="round"/></g><path d="m39.964 172.4c.586.061 1.145.281 1.729.363a3.725 3.725 0 0 0 2.388-.475m-3.773 2.883h1.403c.424 0 .853 0 1.262-.111.409-.11.802-.345 1.011-.713m-18.475 3.942a19.752 19.752 0 0 0 2.92-.921m-1.198 2.614c-.035.099.124.14.227.122.868-.15 1.807-.339 2.384-1.005m11.799 16.029c.291.202.465.562.442.915a1.05 1.05 0 0 1 -.558.849m-10.081-.154c.258-.62.808-1.11 1.453-1.296" fill="none" stroke-linecap="round" stroke-linejoin="round" stroke-width=".435"/></g></g><path d="m41.49 204.276c.122-.735.296-1.464.606-2.162.298-.702.808-1.325 1.417-1.799 1.278-.898 2.797-1.214 4.27-1.343-1.403.481-2.869.825-4.01 1.692-.581.411-1.033.966-1.379 1.6-.355.63-.611 1.327-.904 2.012z" fill="#1d1e1b"/><g stroke="#1d1e1b" stroke-miterlimit="10" stroke-width=".75"><path d="m372.534 48.153c.081.75-.41 1.461-1.152 1.594a3.26 3.26 0 0 0 -1.98 1.166c-.151.192-.286.424-.259.667.015.135.079.26.157.371.585.843 1.767.929 2.737 1.265 1.527.529 2.705 1.845 3.297 3.348.592 1.504.644 3.178.401 4.776-.129.848-.346 1.702-.817 2.419-.381.58-.912 1.047-1.477 1.449-.782.556-1.649 1.004-2.577 1.247-1.254.329-2.584.279-3.864.168a10.99 10.99 0 0 1 -2.362-.465c-.29-.092-.588-.2-.809-.411-.23-.22-.351-.528-.453-.829a11.668 11.668 0 0 1 -.238-.794c-.282-1.077.657-2.051 1.758-1.884.529.08 1.075.106 1.603.126.711.026 2.303.2 3 .052 1.539-.327 1.929-1.523 2.091-2.592.103-.681-.052-2.089-.904-2.589-.682-.4-2.009-.627-2.792-.732-.784-.105-1.595-.094-2.336-.368-.972-.359-1.73-1.195-2.105-2.161s-.391-2.048-.162-3.059c.152-.673.414-1.331.84-1.874.427-.544 1.002-.954 1.601-1.3a11.19 11.19 0 0 1 4.935-1.469c.742-.043 1.439-.229 1.645.59.104.417.174.851.222 1.289z" fill="#95d324"/><path d="m378.438 63.889c-.637-3.421-1.087-6.874-1.53-10.325-.056-.435-.106-.902.099-1.289.211-.399.645-.623 1.064-.792a9.569 9.569 0 0 1 2.174-.589c1.114-.164 2.349-.095 3.218.621 1.028.849 1.238 2.391.889 3.678a5.566 5.566 0 0 1 -3.291 3.667c-.152.06-.322.125-.395.272-.054.11-.04.24-.024.362.334 2.562.753 5.113 1.257 7.648.073.37.148.76.032 1.119-.266.824-2.156 1.845-2.589.738-.282-.722-.263-1.659-.397-2.422-.16-.899-.341-1.792-.507-2.688z" fill="#d4ecf5"/><path d="m385.872 59.639c-.257-1.851-.049-3.029.183-4.884.225-1.796.495-3.586.81-5.368.055-.31.117-.634.317-.878.159-.194.388-.315.617-.419.578-.261 1.204-.441 1.838-.419s1.276.264 1.696.739c.31.35.482.8.622 1.246.646 2.059.747 4.243 1.11 6.37.158.925.365 1.881.123 2.788s-1.109 1.731-2.03 1.552a.86.86 0 0 1 -.337-.133c-.235-.165-.327-.465-.394-.744a10.78 10.78 0 0 1 -.287-2.841l-1.199-.019c.031.632.095 1.267.023 1.895s-.298 1.264-.76 1.696-1.193.61-1.75.311c-.327-.176-.573-.52-.582-.892" fill="#95d324"/><path d="m401.799 47.439c-.097-.136-.433-.273-.558-.293-1.893-.308-3.429.726-4.626 2.225s-1.711 3.451-1.795 5.367c-.064 1.451.163 3.042 1.211 4.047 1.097 1.052 2.761 1.172 4.279 1.233.359.014.725.028 1.07-.075.904-.27 1.415-1.43 1.003-2.279-.727-.256-1.564-.192-2.332-.259-.957-.083-1.836-.675-2.352-1.485s-.685-1.815-.557-2.767c.132-.976.632-1.972 1.527-2.383.506-.233 1.078-.256 1.629-.338s1.13-.251 1.482-.681c.531-.649.229-1.5.019-2.312z" fill="#d4ecf5"/><path d="m409.616 50.964c.331-.118.66-.269.904-.521.257-.265.398-.619.501-.973.131-.448.211-.921.141-1.383-.14-.93-.865-1.677-1.678-2.151-.426-.248-.89-.442-1.378-.519-1.58-.25-3.153.802-3.937 2.197s-.921 3.059-.882 4.658c.026 1.062.129 2.148.581 3.109.223.473.526.906.869 1.301.747.862 1.699 1.56 2.779 1.928s2.288.392 3.353-.017c.53-.204 1.028-.519 1.375-.969.347-.449.528-1.043.411-1.598a.606.606 0 0 0 -.116-.273c-.148-.176-.413-.178-.642-.167-1.153.051-2.332.033-3.425-.338s-2.1-1.144-2.503-2.225c-.136-.364-.328-1.074-.164-1.455.164-.38.351-.302.735-.274 1.061.076 2.065.032 3.076-.33z" fill="#95d324"/></g><path d="m180.667 131.858c.615-1.206.806-2.584.989-3.934.332-2.454.552-4.818.885-7.272a106.46 106.46 0 0 1 6.863-5.325c1.075-.767 2.339-1.719 2.795-2.948 2.35-6.346 7.555-22.716 9.781-28.988-.172-.199-.394-.348-.613-.495-.549-.368-1.106-.564-1.618-.98-.692-.563-1.517-.884-2.391-1.034-1.238 1.285-2.735 3.162-3.685 4.434-.709.95-1.485 1.849-2.26 2.747-4.601 5.336-9.586 10.893-13.723 16.13-.212.269-.382.67-.466 1.002-.904 3.562-1.677 7.292-2.062 10.964l-8.582 7.35c-.087.075-.178.155-.21.265-.043.151.038.312.119.453 1.392 2.422 3.682 4.303 6.214 5.571 2.002 1.002 4.178 1.877 6.377 2.199.527.076 1.356.314 1.587-.139z" fill="#d4ecf5"/><path d="m184.092 96.156c2.251-2.686 5.134-4.871 6.906-7.894.109-.186.235-.392.444-.445.165-.042.335.025.492.092a65.257 65.257 0 0 1 7.209 3.596c-3.08 7.016-4.441 14.705-7.697 21.641-.077.165-.165.34-.324.429-.136.076-.302.076-.458.067a5.798 5.798 0 0 1 -3.037-1.079c-.457-.33-.872-.731-1.384-.966-.337-.155-.704-.232-1.058-.341-1.528-.472-2.792-1.532-4.012-2.568-1.03-.874-2.564-1.778-3.363-2.861-.791-1.073.094-1.542.863-2.407 2.012-2.264 3.476-4.945 5.419-7.264z" fill="#95d324"/><g stroke="#1d1e1b" stroke-miterlimit="10"><g fill="none"><path d="m180.656 131.851c.615-1.206.806-2.584.989-3.934.332-2.454.552-4.818.885-7.272a106.46 106.46 0 0 1 6.863-5.325c1.075-.767 2.339-1.719 2.795-2.948 2.35-6.346 7.555-22.716 9.781-28.988-.172-.199-.394-.348-.613-.495-.549-.368-1.106-.564-1.618-.98-.692-.563-1.517-.884-2.391-1.034-1.238 1.285-2.735 3.162-3.685 4.434-.709.95-1.485 1.849-2.26 2.747-4.601 5.336-9.586 10.893-13.723 16.13-.212.269-.382.67-.466 1.002-.904 3.562-1.677 7.292-2.062 10.964l-8.582 7.35c-.087.075-.178.155-.21.265-.043.151.038.312.119.453 1.392 2.422 3.682 4.303 6.214 5.571 2.002 1.002 4.178 1.877 6.377 2.199.526.076 1.356.314 1.587-.139z" stroke-width=".75"/><path d="m177.115 104.786c.338.876.997 1.61 1.697 2.262 2.614 2.437 5.918 4.007 9.158 5.535 1.09.514 2.214 1.037 3.404 1.116" stroke-width=".75"/><path d="m175.306 116.2c.718 1.199 1.86 2.128 3.108 2.797s2.607 1.096 3.965 1.481c.128.036.305.05.347-.069" stroke-width=".5"/></g><path d="m191.754 87.485a68.682 68.682 0 0 1 7.591 4.258" fill="#d4ecf5" stroke-width=".75"/></g><path d="m187.916 112.326c.405-1.054-.496-1.827-.039-2.859.276-.623.994-.913 1.661-1.054s1.383-.207 1.934-.609c.488-.356.77-.928.962-1.5.194-.58.313-1.217.123-1.798-.265-.807-1.053-1.313-1.817-1.684-.534-.26-1.091-.489-1.68-.565a3.446 3.446 0 0 0 -2.865.996 3.445 3.445 0 0 0 -.922 2.89c.085.547.305 1.075.303 1.629-.003 1.149-1.383 2.443-2.526 2.325.832.516 1.623.564 2.455 1.08.766.475 1.524.987 2.411 1.149zm5.101-20.523.067.038c-.196.234-.197.58-.075.86s.341.503.556.72c.175.177.354.356.575.469.591.3 1.32.045 1.859-.34.485-.347.903-.812 1.097-1.376.193-.564.133-1.232-.241-1.696-.145-.18-.331-.323-.514-.465-.441-.339-.889-.681-1.401-.899s-1.102-.303-1.627-.117a1.723 1.723 0 0 0 -1.11 1.409 1.724 1.724 0 0 0 .789 1.611c.14.087.069-.374.025-.214z" style="fill:#1abee5;stroke:#1d1e1b;stroke-width:.557;stroke-linecap:round;stroke-linejoin:round;stroke-miterlimit:10"/><path d="m189.313 97.118c1.427.464 3.126-.078 4.008-1.293.881-1.215.864-3.01-.053-4.198-.379-.49-.882-.87-1.401-1.209-.582-.38-1.212-.724-1.901-.815-1.057.991-3.17 3.749-3.17 3.749-.17 1.475 1.209 3.341 2.517 3.766z" style="fill:#1abee5;stroke:#1d1e1b;stroke-width:.557;stroke-linecap:round;stroke-linejoin:round;stroke-miterlimit:10"/><path d="m175.602 94.648c.554.222 1.126.4 1.708.532m-1.429-6.817a50.98 50.98 0 0 0 3.035 1.705m1.307-4.994c.377.506.777.995 1.196 1.466m2.689-5.21c.544.933.935 1.757 1.258 2.739m15.743 25.697a11.258 11.258 0 0 1 -1.326-1.2m6.597-2.237a51.008 51.008 0 0 1 -3.012-1.747m3.636-3.664a21.86 21.86 0 0 1 -1.87-.285m3.118-4.963c-1.08.006-1.988.088-2.998.31" fill="none" stroke="#1d1e1b" stroke-linecap="round" stroke-miterlimit="10" stroke-width=".75"/><path d="m194.211 98.684c.178-.35.357-.713.386-1.104s-.13-.824-.479-1.004c-.813.743-1.28 1.781-1.714 2.793-.988 2.302-2.126 4.673-2.821 7.08 1.067-.475 1.553-2.186 2.099-3.125a91.713 91.713 0 0 0 2.529-4.64z" fill="#fff"/><g stroke="#1d1e1b" stroke-linecap="round" stroke-linejoin="round" stroke-miterlimit="10"><path d="m295.575 136.57-16.502-4.054-.798 1.995 13.033 9.453z" fill="#10b8e2" stroke-width=".75"/><path d="m277.816 130.319c.902.067 1.723.702 2.072 1.536.35.835.241 1.831-.227 2.606a2.6 2.6 0 0 1 -.933.933c-.767.43-1.772.344-2.5-.149s-1.173-1.351-1.238-2.227c-.046-.634.11-1.307.544-1.771.312-.334.739-.534 1.164-.703.29-.115.592-.221.904-.221s.64.125.812.386" fill="#474c64" stroke-width=".75"/><path d="m285.945 143.414c-.334.009-.759-.042-.857-.361a.742.742 0 0 1 .002-.338c.229-1.345.835-2.591 1.405-3.831.74-1.609 1.431-3.246 1.917-4.949.15-.526.284-1.066.565-1.535.27-.451 1.329-1.411 1.846-.742.403.521-.508 2.027-.711 2.535a112.683 112.683 0 0 1 -3.385 7.648c-.084.173-.637 1.569-.782 1.573zm1.891-11.654a7.746 7.746 0 0 0 -.952-.37c-.72 1.201-1.226 2.515-1.728 3.821l-1.402 3.643c-.163.424-1.283 2.565-.596 2.693.904.169 1.357-1.754 1.562-2.266.477-1.193.962-2.384 1.453-3.572.138-.332 1.671-3.945 1.663-3.949zm-3.157.854c.116-.276.169-.7-.12-.777-.176-.047-.388.089-.535-.019-1.368 1.758-2.088 3.921-2.785 6.037-.145.442-.412 1.665.409 1.636.685-.024.898-1.344 1.064-1.811a94.19 94.19 0 0 1 1.967-5.066z" fill="#7fef7d" stroke-width=".5"/><g stroke-width=".75"><path d="m293.928 133.519a.52.52 0 0 0 -.263.001.518.518 0 0 0 -.197.158c-1.897 2.122-3.572 4.519-4.38 7.249-.346 1.169-.527 2.379-.708 3.584-.019.126-.037.258.008.377a.732.732 0 0 0 .201.259 7.86 7.86 0 0 0 1.665 1.185c1.221-3.258 2.933-6.308 4.287-9.513.316-.747.682-1.561.775-2.374.103-.899-.668-.805-1.388-.926z" fill="#fff"/><path d="m306.63 164.867c.821-.869 1.666-1.777 2.032-2.915.293-.907.256-1.892.518-2.809s.991-1.833 1.944-1.807c.732.02 1.334.588 1.735 1.201 1.252 1.909.631 3.765-1.006 5.163-.58.495-1.319.842-2.034 1.093a5.18 5.18 0 0 1 -1.629.31c-.176.003-1.54-.257-1.56-.236z" fill="#fee787"/><path d="m304.43 137.004c.628-1.571 8.382-3.345 11.652-3.013s6.949 1.108 9.94 2.473c4.787 2.184 9.346 5.125 12.588 9.27.362.462.655 1.244.146 1.536-.204.117-.457.086-.692.066-2.341-.194-4.707 1.421-5.381 3.671m-7.044 18.278c.098 2.753.763 5.516.331 8.236-.218 1.37-.758 2.757-1.834 3.633-.735.598-1.656.91-2.567 1.169a31.134 31.134 0 0 1 -5.142 1.003c-.698.076-1.437.122-2.07-.182-1.458-.702-1.536-2.709-1.449-4.325a80.553 80.553 0 0 0 -1.41-19.905c.155.783 2.908 1.954 3.574 2.271a18.095 18.095 0 0 0 4.269 1.404c1.431.282 2.898.393 4.355.324 1.353-.064 2.901-.693 4.193-.575-1.721 1.98-2.344 4.332-2.25 6.947z" fill="#95d324"/><path d="m290.947 146.118c3.085 3.631 7.037 6.629 10.996 9.28 3.754 2.513 7.614 4.748 11.847 6.326 4.047 1.508 8.39 2.097 12.707 2.212 1.467.039 2.957.022 4.371-.372s2.762-1.206 3.529-2.458c1.046-1.707.844-3.925.132-5.796-.813-2.138-2.213-4.001-3.709-5.73-6.807-7.869-19.104-13.835-29.487-14.516-1.303-.086 0 0-1.036-.794-3.449 3.94-6.24 8.474-8.387 13.249-.124.276.339.565.532.332s-.176-.635-.424-.462" fill="#1abee5"/><path d="m297.259 141.101a62.139 62.139 0 0 0 -3.365 8.672 16.71 16.71 0 0 1 -3.841-2.211c-.344-.265-.695-.57-.805-.98-.061-.23-.039-.47-.013-.704.551-4.84 2.919-9.418 6.562-12.689.157-.141.326-.284.537-.328.152-.031.311-.007.466.018 1.236.195 2.497.399 3.665.874.344.14 1.424.511 1.544.901.137.448-.614.729-.939.995-1.746 1.432-2.861 3.46-3.811 5.452z" fill="#fee787"/><path d="m315.298 162.335a30.906 30.906 0 0 1 1.087 8.128c0 2.297-.252 4.641.344 6.859.154.574.498 1.236 1.093 1.247.187.003.367-.063.542-.129.434-.163.867-.329 1.299-.497.754-.293 1.547-.627 2.011-1.289.604-.862.48-2.019.349-3.064-.215-1.711-.381-3.439-.256-5.159s.426-3.223 1.328-4.693c-.626.218-1.327.07-1.981-.041a47.063 47.063 0 0 1 -5.816-1.362z" fill="#fff"/></g><path d="m322.029 173.288a3.585 3.585 0 0 1 -.501.353c-.782.488-1.601.988-2.518 1.078a4.71 4.71 0 0 1 -1.054-.038 16.688 16.688 0 0 1 -1.215-.214c-.078-.016-.163-.129-.085-.146m4.992-4.019c-.498.272-1.001.538-1.537.726a5.771 5.771 0 0 1 -3.621.057l.134-.203m5.219-4.02c.064.068-.039.165-.126.2-.844.34-1.712.64-2.614.764s-1.844.064-2.681-.293l.051-.149" fill="none" stroke-width=".5"/><path d="m313.408 137.699c3.528-.41 7.031.821 10.287 2.239a83.724 83.724 0 0 1 7.927 3.967c.643.366 1.372 1.135.908 1.712-.183.228-.489.303-.765.4a3.65 3.65 0 0 0 -2.196 2.193c-4.834-4.52-10.045-7.982-16.161-10.511zm8.44 10.788c1.012.548 2.045 1.185 2.61 2.189.548.975.572 2.154.493 3.27-.076 1.08-.301 2.272-1.167 2.922-1.179.885-2.852.316-4.185-.316a84.587 84.587 0 0 1 -15.253-9.331c-.834-.64-2.909-1.67-2.257-2.689.418-.654 1.747-.844 2.445-.869 2.575-.094 5.467.583 7.95 1.199a39.769 39.769 0 0 1 9.364 3.625z" fill="#fff" stroke-width=".75"/><path d="m320.686 150.796c.616.046 1.176.479 1.415 1.049s.164 1.25-.155 1.779c-.157.26-.372.488-.637.637-.523.294-1.21.235-1.707-.101s-.801-.922-.845-1.521c-.032-.433.075-.892.371-1.209.213-.228.505-.364.794-.48.198-.079.404-.151.617-.151s.437.085.554.264m-5.798-2.928c.616.046 1.176.479 1.415 1.049s.164 1.25-.155 1.779c-.157.26-.372.488-.637.637-.523.294-1.21.235-1.707-.101s-.801-.922-.845-1.521c-.032-.433.075-.892.371-1.209.213-.228.505-.364.794-.48.198-.079.404-.151.617-.151s.437.085.554.264m-6.135-2.983c.616.046 1.176.479 1.415 1.049s.164 1.25-.155 1.779c-.157.26-.372.488-.637.637-.523.294-1.21.235-1.707-.101s-.801-.922-.845-1.521c-.032-.433.075-.892.371-1.209.213-.228.505-.364.794-.48.198-.079.404-.151.617-.151s.437.085.554.264" fill="#474c64" stroke-width=".5"/><path d="m269.074 124.564-.687-2.693c-.035-.137-.074-.281-.173-.382-.25-.253-.685-.079-.951.157s-.537.542-.892.53a37.577 37.577 0 0 1 -.758-3.893l-2.486.464m3.537 9.806-1.533-2.209-1.514 1.243c-.116.095-.253.196-.401.17-.133-.024-.225-.143-.304-.253l-1.467-2.063-2.145 1.794m6.419 7.875a4.539 4.539 0 0 1 -2.752-1.035 15.186 15.186 0 0 0 -.936 2.235l-1.984-1.185c-.088-.053-.187-.107-.288-.086-.115.025-.185.138-.242.241l-.964 1.755.299-.704" fill="none" stroke-width=".579"/></g><path d="m230.999 97.838 4.173-2.629-1.065 11.776 4.055-1.587a241.612 241.612 0 0 0 -4.567 11.745l-.779-8.687-5.153 3.152c.033-4.006.064-6.876.397-10.696a21.242 21.242 0 0 1 -5.885 4.011c-.02-4.273.059-8.077-.449-12.48 3.622-1.945 7.181-3.725 10.802-5.67-.001-.002-.999 7.503-1.529 11.065z" style="fill:#fee787;stroke:#1d1e1b;stroke-width:.75;stroke-linecap:round;stroke-linejoin:round;stroke-miterlimit:10"/><path d="m255.575 180.357c6.453-20.223-8.61-48.119-31.332-48.735a42.855 42.855 0 0 0 -22.847 5.924c-7.182 4.251-13.165 10.841-15.701 18.792-1.041 3.264-1.494 6.699-1.534 10.125-.099 8.496 2.34 16.911 6.298 24.428 3.959 7.518 9.4 14.179 15.447 20.147 4.114 4.06 8.862 7.984 14.582 8.818 4.019.586 7.845-1.863 10.971-4.458 11.09-9.205 19.735-21.312 24.116-35.041z" fill="#95d324" stroke="#1d1e1b" stroke-miterlimit="10" stroke-width=".8"/><path d="m235.201 182.862c1-.98 2.111-1.866 3.377-2.462 1.217-.572 2.546-.862 3.873-1.078 1.379-.225 2.777-.375 4.172-.302.516.027 1.084.111 1.419.505.299.351.328.852.324 1.314-.03 3.088-.938 6.143-2.458 8.831s-3.64 5.016-6.077 6.914c-1.869 1.456-3.966 2.683-6.275 3.215-1.024.236-3.601 1.031-4.393.021-.643-.819-.259-2.669-.181-3.608a21.486 21.486 0 0 1 2.926-9.139 20.567 20.567 0 0 1 3.293-4.211z" fill="#1d1e1b"/><path d="m245.234 182.404a3.266 3.266 0 0 0 -1.035-.623c-.274-.102-.592-.163-.852-.028-.208.108-.337.32-.446.527-.13.248-.246.545-.127.798.115.246.408.352.678.387.27.034.553.024.799.141.136.065.252.165.384.237.358.195.848.146 1.126-.153.278-.298.274-.83-.038-1.092-.208-.175-.496-.211-.745-.321" fill="#fff"/><path d="m206.597 182.862c-1-.98-2.111-1.866-3.377-2.462-1.217-.572-2.546-.862-3.873-1.078-1.379-.225-2.777-.375-4.172-.302-.516.027-1.084.111-1.419.505-.299.351-.328.852-.324 1.314.03 3.088.938 6.143 2.458 8.831s3.64 5.016 6.077 6.914c1.869 1.456 3.966 2.683 6.275 3.215 1.024.236 3.601 1.031 4.393.021.643-.819.259-2.669.181-3.608a21.486 21.486 0 0 0 -2.926-9.139 20.602 20.602 0 0 0 -3.293-4.211z" fill="#1d1e1b"/><path d="m196.563 182.404c.302-.27.656-.482 1.035-.623.274-.102.592-.163.852-.028.208.108.337.32.446.527.13.248.246.545.127.798-.115.246-.408.352-.678.387-.27.034-.553.024-.799.141-.136.065-.252.165-.384.237-.358.195-.848.146-1.126-.153-.278-.298-.274-.83.038-1.092.208-.175.496-.211.745-.321" fill="#fff"/><path d="m216.758 205.502c-.086.342.006.753.304.941.429.271.979-.035 1.388-.336.573-.422 1.744-2.609.987-2.798-.973-.243-2.481 1.405-2.679 2.193zm7.719 0c.086.342-.006.753-.304.941-.429.271-.979-.035-1.388-.336-.573-.422-1.744-2.609-.987-2.798.973-.243 2.481 1.405 2.679 2.193z" fill="#1d1e1b"/><path d="m219.644 210.176c1.556-.332 3.276.15 4.397 1.231.324.312.609.692.661 1.128s-.196.927-.639 1.044c-.475.126-.937-.188-1.383-.389-1.079-.486-2.289-.303-3.396-.018-.65.167-1.913.923-2.47.31-1.248-1.378 1.897-3.107 2.83-3.306z" fill="#1d1e1b"/><path d="m385.264 155.22c.488-1.103-.294-2.446-1.387-2.957s-2.37-.393-3.554-.165c-1.385.266-2.869.757-3.614 1.955-.399.641-.773.59-.931 1.328-.787 3.675-2.119 7.942-3.39 11.479-.725 2.018-1.355 4.069-1.983 6.119l-5.048 16.456c-.051.168-.103.348-.052.516.061.202.252.331.431.444l5.385 3.412c.559.354 1.123.711 1.746.933.809.288 1.68.338 2.537.384l5.303.287c4.322.234 8.879-1.211 12.514-3.561.538-.348 1.084-.732 1.394-1.293s.306-1.346-.175-1.768c-.605-1.86-.978-3.946-1.684-5.77-.424-1.097-.593-2.268-.969-3.383-.314-.931-.335-1.917-.602-2.862-.215-.765-.701-2.341-.917-3.106-1.826-6.481-3.914-11.803-5.004-18.448z" fill="#fee787"/><path d="m384.726 154.23c-.376-.829-1.394-1.122-2.296-1.242a15.99 15.99 0 0 0 -4.215.002 5.144 5.144 0 0 0 -1.059.231c-.386.138-.576.189-.878.467l-10.855 36.766c3.511 3.217 8.287 4.722 13.045 4.909a34.043 34.043 0 0 0 10.032-1.105c2.249-.596 4.515-1.472 6.138-3.14.235-.242.469-.532.463-.87-.007-.433-.394-.752-.752-.995-3.624-2.458-7.981-3.759-12.356-3.93s-8.763.764-12.79 2.483c-1.445.617-2.909 1.386-3.798 2.682-.057.084-.11.204-.04.277.07.074.195-.107.093-.107m29.765-.205-10.855-36.766" fill="none" stroke="#1d1e1b" stroke-miterlimit="10" stroke-width=".75"/><g stroke="#1d1e1b" stroke-linecap="round" stroke-linejoin="round" stroke-miterlimit="10"><path d="m369.613 152.236c.25.22 4.091 4.044 5.125 4.44 1.033.396 4.967 1.383 10.987.127 0 0 3.967-2.814 6.062-4.567z" fill="#1abee5" stroke-width=".75"/><path d="m374.241 153.194.906 1.672c.202.372.404.746.64 1.097.231.344.494.667.784.962m7.315-.036c.403-.238.716-.6 1.019-.958.74-.874 1.468-1.759 2.181-2.656m-7.798 3.894a6.145 6.145 0 0 1 -.857-3.576m3.039 3.592a15.095 15.095 0 0 0 1.087-3.816" fill="none" stroke-width=".53"/></g><path d="m365.768 138.785a92.476 92.476 0 0 0 -13.838 7.213s3.945 3.423 14.932 5.875 25.516 2.815 40.862-5.539l.636-.241s-6.356-4.299-14.529-7.841c-8.172-3.542-28.063.533-28.063.533z" style="fill:#474c64;stroke:#1d1e1b;stroke-width:.75;stroke-linecap:round;stroke-linejoin:round;stroke-miterlimit:10"/><path d="m394.44 138.58c-.12-4.047-2.232-7.988-5.536-10.328-2.111-1.495-4.639-2.34-7.205-2.669-2.177-.279-4.44-.189-6.49.595-1.19.455-2.285 1.136-3.288 1.922-3.266 2.561-5.597 6.376-6.069 10.499 1.334 1.01 2.971 1.499 4.563 2.013 1.971.635 3.952 1.273 6 1.579 6.169.92 12.366-.986 18.025-3.611z" style="fill:#d4ecf5;stroke:#1d1e1b;stroke-width:.75;stroke-linecap:round;stroke-linejoin:round;stroke-miterlimit:10"/><path d="m362.721 145.424c.124.284.331.522.55.742.179.18.373.354.607.453.254.107.542.118.812.064.895-.178 1.561-1.128 1.423-2.03-.399-2.614-4.396-1.534-3.392.771zm10.397 2.409c.124.284.331.522.55.742.179.18.373.354.607.453.254.107.542.118.812.064.895-.178 1.561-1.128 1.423-2.03-.399-2.614-4.396-1.534-3.392.771zm11.412 0c.124.284.331.522.55.742.179.18.373.354.607.453.254.107.542.118.812.064.895-.178 1.561-1.128 1.423-2.03-.399-2.614-4.396-1.534-3.392.771zm9.562-2.806c.124.284.331.522.55.742.179.18.373.354.607.453.254.107.542.118.812.064.895-.178 1.561-1.128 1.423-2.03-.399-2.614-4.396-1.534-3.392.771z" style="fill:#fee787;stroke:#1d1e1b;stroke-width:.539;stroke-linecap:round;stroke-linejoin:round;stroke-miterlimit:10"/><path d="m373.584 133.99c-.882.015-1.762.088-2.634.217-.045-.37.163-.72.375-1.028.403-.584.851-1.137 1.339-1.652.291-.307 1.263-1.515 1.699-1.514.691.003-.62 3.459-.779 3.977zm-1.198 2.123c.127 0 .277.014.339.124.039.07.028.156.015.236a84.744 84.744 0 0 1 -.335 1.943.19.19 0 0 1 -.036.096c-.028.032-.072.042-.114.049-.382.069-.777.07-1.16.003a6.504 6.504 0 0 1 -.832-.223c-.886-.279-.761-.961-.367-1.615.546-.903 1.518-.616 2.49-.613z" fill="#fff"/><path d="m354.831 132.626c.167.133-2.454-2.523-4.172-3.686-1.041.716-2.172 1.271-2.549 1.016-.534-.193 4.031-5.771 4.458-5.78.484.199-.074 1.571-.846 3.433 1.609 1.038 3.005 2.622 4.615 3.66 1.282-1.427 2.466-2.164 2.964-1.765a76.399 76.399 0 0 1 -5.154 6.189c-.402-.147.185-2.291.684-3.067zm2.68-13.802c1.998.925 3.443 2.643 4.638 4.492-.106-1.851.008-3.884-.099-5.735.616-.514 1.908 3.378 3.372 4.606.558-2.361.592-6.917 1.014-6.906 1.207 2.127.643 4.553 1.085 6.959.082.446.209.893.173 1.346-.036.452-.281.927-.712 1.068-.456.15-.938-.11-1.339-.373a20.608 20.608 0 0 1 -2.025-1.516c.041.652.642 2.878.086 3.309-.645.5-1.934-1.26-2.345-1.695a33.965 33.965 0 0 1 -2.198-2.567c-.453-.585-2.156-2.681-1.65-2.988zm20.737-6.323c.217-.137.477.088.632.292a36.597 36.597 0 0 1 3.47 5.522c.564-2.02 1.393-6.12 2.113-5.921.211 2.934-.017 5.88-.244 8.812-.009.12-.024.253-.113.335-.149.138-.387.044-.562-.059a11.295 11.295 0 0 1 -4.142-4.299c-.085 1.678-.284 3.35-.905 4.922-.574-.016-.397-6.486-.249-9.604zm13.167 4.044a6.248 6.248 0 0 0 3.525-.348c.187-.076.406-.244.329-.431-2.908-1.241-5.956-2.433-9.116-2.313a11.078 11.078 0 0 0 3.026 2.915c-.451 2.209-1.491 6.679-.906 6.671.564.076 1.212-1.555 1.529-2.5.487-1.453 1.126-2.54 1.613-3.994zm12.946 9.39-2.071 2.213c-.429.459-.861.92-1.359 1.303-.328.252-.71.476-1.123.461a13.457 13.457 0 0 1 3.019-5.183c-.87-1.1-1.452-2.626-1.695-4.007 1.406.295 2.567 1.251 3.662 2.182 1.442 1.225 2.918 2.515 3.715 4.231-1.365-.207-2.892-.628-4.148-1.2zm-29.644-8.543c-.538-.749-1.132-1.47-1.521-2.306-.247-.533-.422-1.128-.855-1.526-.083-.077-.203-.148-.303-.096-.072.038-.101.124-.125.202-.669 2.281-1.327 4.58-1.64 6.936-.44 3.317.092 2.86.092 2.86.264-.014.791-1.684.905-1.905.072-.138.582-1.469.647-1.473a8.758 8.758 0 0 0 2.049-.388 8.59 8.59 0 0 0 1.993 1.883c.356.242.807.463 1.2.288a20.672 20.672 0 0 0 -2.442-4.475zm-2.672 1.393c.015-.352.048-.703.097-1.051.042-.293.062-.632.171-.91.031-.078.101-.186.214-.183.137.004.182.16.231.251.289.532.546 1.076.771 1.63-.535.142-1.01.202-1.484.263zm38.265 10.826c-.193-.516-.61-.976-1.148-1.09l.779.182c-.116-.324-.512-.437-.855-.474a5.921 5.921 0 0 0 -3.812.901c-.788.508-1.466 1.232-1.773 2.119-.306.887-.195 1.943.413 2.659.655.772 1.779 1.031 2.774.845s1.882-.755 2.656-1.408c.348-.294.689-.617.881-1.031.155-.333.205-.705.234-1.072.045-.548.043-1.115-.149-1.631zm-1.81 2.179c-.59.753-1.471 1.352-2.427 1.324a1.201 1.201 0 0 1 -.408-.073c-.41-.161-.611-.685-.445-1.09-.016.105-.09.197-.084.304l.085-.346c-.005.014.005.029-.001.043.038-.242.066-.49.194-.7.184-.301.434-.556.699-.788.29-.254.609-.488.978-.598.253-.075.521-.09.784-.074.312.019.643.091.857.319.212.225.264.566.197.867-.068.302-.239.57-.429.812zm-43.33 69.774c.028-.117.061-.241.15-.32.131-.115.329-.094.5-.064a45.21 45.21 0 0 1 3.958.862c.231.061.52.212.468.446-.023.105-.114.18-.203.24-.468.314-1.041.421-1.599.503a26.83 26.83 0 0 1 -2.281.238l-.043.701c1.021.309 2.002.748 2.913 1.303-.997.337-2.047.515-3.099.526a10.338 10.338 0 0 1 -.153 1.684 17.678 17.678 0 0 1 3.485.213c-.21-.034-.894.468-1.112.566-.412.186-.833.352-1.262.496-.631.212-1.512.577-2.193.394-.793-.213-.614-.978-.553-1.631a44.034 44.034 0 0 1 1.024-6.157zm16.408 2.067c-.003-.118-.003-.244.063-.342.095-.142.289-.171.46-.186a44.11 44.11 0 0 1 3.982-.17c.236.001.548.072.557.307.004.106-.063.2-.133.279-.367.416-.885.661-1.395.879-.692.296-1.396.562-2.11.797l.134.678a12.51 12.51 0 0 1 3.097.51 9.86 9.86 0 0 1 -2.817 1.276c.137.538.229 1.087.276 1.641a17.42 17.42 0 0 1 3.369-.67c-.209.02-.734.669-.916.817-.345.28-.705.543-1.076.788-.548.36-1.294.928-1.988.924-.808-.004-.829-.777-.934-1.414a43.973 43.973 0 0 1 -.569-6.114zm-10.693 5.676c-.012.178-.008.391.141.49a.49.49 0 0 0 .213.064c1.605.231 3.241.248 4.85.052.062-.008.128-.017.177-.057.149-.124-.007-.359-.161-.476a7.428 7.428 0 0 0 -3.584-1.455 40.265 40.265 0 0 0 -.515-5.811c-.024-.145-.429.368-.449.413-.08.191-.073.429-.096.631-.078.688-.159 1.376-.23 2.065a121.06 121.06 0 0 0 -.346 4.084zm7.708-6.326c.242.335.352.734.448 1.126.509 2.066.771 4.183.78 6.302 0 .068-.001.14-.038.199-.052.084-.161.119-.262.144-.243.06-.978.261-1.204.116-.206-.133-.163-.551-.188-.772a20.514 20.514 0 0 1 -.152-2.401 18.548 18.548 0 0 1 .362-3.618c.034-.169.34-.977.254-1.096zm13.674 5.982c.124.135.312.279.47.187.068-.04.106-.114.141-.185.578-1.164 1.158-2.334 1.555-3.572.337-1.049.449-3.086.371-4.444-.014-.242-.333-.33-.469-.129-1.056 1.561-1.762 4.146-2.23 5.81-.409-.545-3.499-4.924-4.121-4.551-.656.394 1.739 3.687 1.976 4.023a28.433 28.433 0 0 0 2.307 2.861zm4.811-4.038c-.567-1.552-1.136-3.109-1.523-4.716.574-.309 1.225-.437 1.866-.56l3.09-.596c.075-.014.161-.027.221.021.111.088.025.266-.07.37-.785.855-1.905 1.314-3.006 1.68-.175.058-.379.144-.415.326-.022.112.03.224.081.326l.932 1.881a16.276 16.276 0 0 1 2.064-.608c-.008.505-.54.804-.934 1.12-.432.347-.752 1.018-.383 1.431.217.244.593.281.91.203s.602-.251.906-.37a3.011 3.011 0 0 1 1.786-.119c-.901.851-2.23 1.938-3.469 2.234-1.203.288-1.752-1.794-2.056-2.623zm-33.478-4.253c-.438-.975-1.227-1.808-2.205-2.331-.362-.193-.79-.348-1.188-.231-.525.155-.776.704-.953 1.194a47.43 47.43 0 0 0 -1.696 5.816c-.211.944-.607 1.535.518 1.965.833.318 1.81.306 2.63-.042.334-.142.655-.35.826-.655.262-.465.114-1.047-.162-1.505a3.322 3.322 0 0 0 -1.453-1.283 14.417 14.417 0 0 0 2.599-.824c.535-.227 1.108-.547 1.249-1.083.09-.339-.019-.698-.165-1.021zm-3.276 4.777a.5.5 0 0 1 .035.363c-.129.376-1.04.574-1.394.595-.364.021-.418-.095-.384-.431.038-.369.211-.736.302-1.096.067-.266.016-.413.306-.394.2.013.576.331.71.458.174.142.337.305.425.505zm1.42-3.946c-.373.198-1.725 1.17-1.881.508-.064-.27.093-.648.164-.905.105-.382.167-1.109.434-1.412.118-.133.346-.073.509.008.308.153.595.342.853.563s.503.552.369.855c-.08.178-.269.287-.448.383z" fill="#95d324"/><path d="m151.792 173.434c-.503-.27-1.22.202-1.171.771.045.523.614.876 1.138.86s.999-.304 1.423-.612c.144-.105.3-.241.295-.419-.004-.133-.099-.244-.198-.334a2.209 2.209 0 0 0 -1.855-.534" fill="#a68ab7"/><path d="m157.19 201.374c-2.488.998-7.284 1.476-9.986 1.114-6.427-.86-11.685-5.301-12.962-12.134-.757-4.053-.371-8.443 1.784-11.958 1.796-2.929 4.707-5.066 7.888-6.363 3.518-1.435 7.5-1.9 11.159-.876 3.901 1.092 7.288 3.898 9.086 7.528 1.332 2.689 2.142 5.759 2.075 8.759-.063 2.801-.939 5.624-2.288 8.08-1.513 2.755-3.946 4.724-6.756 5.85z" style="fill:#1abee5;stroke:#1d1e1b;stroke-width:.557;stroke-linecap:round;stroke-linejoin:round;stroke-miterlimit:10"/><path d="m145.061 171.848c.108 1.509 1.207 2.835 2.574 3.483 1.368.648 2.959.691 4.446.411 2.039-.383 4.193-1.664 4.477-3.719l2.695 1.25c.187.087.384.183.49.36.24.402-.132.883-.474 1.201-2.645 2.459-5.64 5.067-9.251 5.135-3.346.063-6.288-2.085-9.498-3.03-.739-.217-1.521-.372-2.276-.223s-1.48.66-1.689 1.401c.188-.689 1.08-1.805 1.655-2.229 2.182-1.608 4.409-2.859 6.851-4.04zm7.055 23.482c.869.268 1.717.666 2.626.706 2.446.107 4.231-2.301 6.555-3.071 1.266-.42 2.636-.332 3.966-.24-1.642 5.046-6.36 8.948-11.624 9.615-2.309.293-3.939-.295-6.158.405-.398.126-1.096-.289-1.511-.333-.348-.037-1.346-.228-1.645-.409-3.282-1.985-3.661-3.135-.195-5.415 2.315-1.524 5.314-2.083 7.986-1.258zm-8.292-8.825c3.594.446 7.107 1.708 10.727 1.577 1.208-.044 2.426-.249 3.517-.769 2.275-1.084 3.722-3.393 4.63-5.744.435-1.126.805-2.218 2.006-2.099.139 1.119.986 1.897.862 2.876-.736 5.807-2.324 2.183-3.284 3.787-1.838 3.071-4.991 5.443-8.568 5.584-2.012.079-4.01-.45-6.023-.397-4.111.108-8.025 2.89-9.48 6.737.005-.012-2.684-4.25-2.927-4.781-.572-1.249-1.396-2.784-.977-3.945 1.131-3.141 6.801-3.162 9.517-2.826z" fill="#fff" opacity=".29"/><path d="m151.679 170.94c-3.378.522-6.303 2.932-7.88 5.965s-1.903 6.612-1.374 9.989c.181 1.154.457 2.293.825 3.402.953 2.868 2.574 5.58 4.971 7.421.972.746 2.052 1.337 3.143 1.895.749.383 1.51.754 2.313 1.007 1.339.421 3.043.627 4.42.356-1.553.831-3.566 1.358-5.441 1.53-3.005.276-5.735.164-8.609-.757s-5.648-2.997-7.361-5.482c-1.142-1.657-1.82-3.331-2.486-5.23-.288-.822-.306-3.069-.306-3.94 0-13.785 11.463-15.63 14.385-16.28.96-.214 2.517-.304 3.4.124z" fill="#089dbf" opacity=".43"/><path d="m156.578 177.965a1.629 1.629 0 0 0 -.577.292c-.49.399-.66.986-.71 1.547-.103 1.149.281 2.403 1.386 3.129s3.017.656 3.743-.336c.342-.467.378-1.034.406-1.575.058-1.142.03-2.455-1.046-3.195-.871-.599-2.302-.566-3.129.072" fill="#089dbf" stroke="#1d1e1b" stroke-linecap="round" stroke-miterlimit="10" stroke-width=".5"/><path d="m158.665 176.277c.529-.229 1.177-.218 1.742 0a3.162 3.162 0 0 1 1.441 1.097c.355.499.579 1.077.651 1.664.042.292.043.587.017.875a4.962 4.962 0 0 1 -.073.428c-.019.065-.016.142-.072.229-.03.037-.094.088-.156.023-.024-.047.026-.125.056-.077-.023.12.023-.047-.027-.178a4.803 4.803 0 0 0 -.096-.402 8.54 8.54 0 0 0 -.222-.767c-.175-.492-.391-.956-.688-1.353a3.793 3.793 0 0 0 -1.083-1.011 3.733 3.733 0 0 0 -1.49-.528z" fill="#089dbf"/><path d="m161.894 184.546c-.137.03-.194.191-.227.327-.11.453-.221.924-.133 1.382s.432.903.896.949c.468.047.903-.339 1.026-.792.123-.454-.011-.943-.24-1.354-.152-.273-.36-.533-.649-.654s-.67-.06-.841.202m-2.604 9.528c-.252.743-.015 1.674.662 2.071.57.335 1.328.227 1.872-.147.918-.63 1.975-2.735.784-3.58-1.135-.805-2.958.594-3.318 1.656z" fill="#089dbf" stroke="#1d1e1b" stroke-miterlimit="10" stroke-width=".5"/><path d="m158.415 192.636c-.417.76-.708 1.435-.853 2.164a3.778 3.778 0 0 0 -.086 1.079c.036.357.104.724.357 1.083-.431-.109-.787-.51-.931-.949-.163-.438-.167-.924-.079-1.364.184-.881.766-1.698 1.592-2.013z" fill="#089dbf"/><path d="m141.023 183.963c-.032.29-.032.599.108.855.112.203.304.353.516.447.664.292 1.456.035 2.036-.401.683-.514 1.191-1.331 1.127-2.183-.046-.613-.376-1.169-.751-1.656-1.337-1.737-2.911 1.785-3.036 2.938z" fill="#089dbf" stroke="#1d1e1b" stroke-miterlimit="10" stroke-width=".5"/><path d="m144.998 180.103c-.738-.395-1.423-.53-2.079-.434a2.883 2.883 0 0 0 -.96.326 3.388 3.388 0 0 0 -.457.297c-.08.053-.155.114-.228.182-.068.062-.156.128-.046.116.011.074-.144.072-.155-.031-.011-.084.019-.137.029-.187.028-.104.064-.208.109-.309a1.96 1.96 0 0 1 .39-.536 2.209 2.209 0 0 1 1.205-.604c.919-.141 1.902.361 2.192 1.18z" fill="#089dbf"/><path d="m140.635 196.765c.827-.233 1.81-.127 2.402.495.552.579.646 1.46.561 2.255-.042.396-.185.86-.568.966-.205.057-.422-.011-.623-.078l-1.237-.409c-.468-.155-.943-.313-1.351-.59-1.495-1.011-.574-2.247.816-2.639z" fill="#089dbf" stroke="#1d1e1b" stroke-miterlimit="10" stroke-width=".5"/><path d="m140.689 195.131c.802-.562 1.961-.539 2.85-.04.442.255.824.613 1.081 1.045.132.212.229.445.296.681.028.121.05.242.063.363l.012.093c.007.059-.012.092-.022.116-.035.052-.024.059-.014.036.037-.027.036.072-.042.061-.054-.035-.05-.081-.057-.113-.002-.033-.007-.058-.016-.055l-.048-.068a2.635 2.635 0 0 0 -.208-.269 5.473 5.473 0 0 0 -.431-.485 4.5 4.5 0 0 0 -.984-.748c-.713-.402-1.524-.589-2.48-.617z" fill="#089dbf"/><path d="m149.925 189.969c-.095.356-.098.795.188 1.027.156.126.367.162.568.162.774.001 1.482-.452 2.032-.996.33-.326.641-.758.554-1.214-.146-.764-1.28-1.028-1.928-.81-.708.24-1.233 1.152-1.414 1.831z" fill="#089dbf" stroke="#1d1e1b" stroke-miterlimit="10" stroke-width=".5"/><path d="m157.19 201.374c-2.488.998-7.284 1.476-9.986 1.114-6.427-.86-11.685-5.301-12.962-12.134-.757-4.053-.371-8.443 1.784-11.958 1.796-2.929 4.707-5.066 7.888-6.363 3.518-1.435 7.5-1.9 11.159-.876 3.901 1.092 7.288 3.898 9.086 7.528 1.332 2.689 2.142 5.759 2.075 8.759-.063 2.801-.939 5.624-2.288 8.08-1.513 2.755-3.946 4.724-6.756 5.85z" style="fill:none;stroke:#1d1e1b;stroke-width:.75;stroke-linecap:round;stroke-linejoin:round;stroke-miterlimit:10"/></g></svg>