<svg viewBox="0 0 426 233" xmlns="http://www.w3.org/2000/svg"><path d="m353.318 101.455 4.066-1.891-2.87 1.847s3.486.089 5.728-1.082c0 0-2.975 1.96-4.69 2.676 0 0 4.287 1.148 6.029 4.131 0 0 .986 3.12 1.549 6.581 0 0-5.237-4.669-4.782-2.762.129.539 4.129 2.786 4.886 5.588l.457 12.39s-6.647-3.941-4.79-2.979c.627.325 4.814 3.631 4.89 5.696s-1.526 5.824-3.169 8.497-5.704 4.673-5.704 4.673l-7.22-6.916s1.772-5.072 4.316-6.907c0 0-4.018 3.195-4.952 4.427 0 0-2.149-5.144-2.394-8.836-.245-3.691.231-14.374.231-14.374s3.353-3.497 4.944-4.644l-5.004 3.014s2.194-5.414 5.934-7.293l-3.204-1.297 2.846.439s-1.244-1.26-1.4-2.56c0 0 2.417 2.071 4.303 1.582z" fill="#219da4"/><path d="m354.718 122.806c.009-6.234.704-12.473.276-18.692-.258-3.748-.919-7.557-.095-11.222l-1.559.278c.06 14.569.519 29.135 1.375 43.679.146 2.482.178 4.941.187 7.424.897-7.09-.194-14.353-.184-21.467z" fill="#c3ddd0"/><path d="m354.953 123.427c-.134-.079-.275-.165-.35-.302-.079-.144-.069-.319-.057-.483l.246-3.414a42.67 42.67 0 0 0 7.989 4.67c.294.132.605.272.789.536.193.277.21.636.22.973.031 1.026.239 2.276.035 3.258-2.902-1.816-5.916-3.499-8.872-5.238z" fill="#d9a6c0"/><path d="m355.655 115.219c-.204-.091-.429-.207-.492-.421-.035-.119-.011-.246.011-.368.212-1.176.233-2.385.062-3.568a245.089 245.089 0 0 0 6.459 3.35c.346.173.699.35.965.631.472.498.588 1.233.601 1.919.012.649.071 1.341.011 1.966-2.561-.658-5.182-2.415-7.617-3.509zm-.422 16.163-.028 2.186c-.005.38-.004.783.196 1.106.148.24.387.405.62.564l3.583 2.442c1.16.791 2.176 1.194 2.457-.483.154-.921.054-1.464-.668-2.088-.859-.741-2.148-1.146-3.143-1.68-.461-.248-3.025-1.448-3.017-2.047z" fill="#c4e2d2"/><path d="m345.075 128.262a38.004 38.004 0 0 1 -.107-4.147c.003-.104.008-.215.067-.302.068-.1.191-.145.305-.185a37.347 37.347 0 0 0 8.661-4.306c-.285.191.223 2.985.009 3.515-.34.844-1.164 1.084-1.954 1.525z" fill="#d9a6c0"/><path d="m353.556 114.584c-.002.131-.006.269-.076.38-.073.117-.206.182-.332.24a93.416 93.416 0 0 1 -8.679 3.501c.247-1.024.373-2.077.374-3.13l4.506-2.238c1.119-.556 2.997-1.962 4.208-1.902.138 1.015.015 2.119-.001 3.149zm-4.54 24.294c.025-.284-.33-.43-.613-.47s-.64-.131-.676-.414c-.017-.133.051-.26.116-.377l1.246-2.223c.138-.245.278-.495.481-.69.212-.204.48-.338.741-.474 1.472-.769 2.726-1.773 4.032-2.773.242 1.321.208 2.664-.739 3.679-.617.662-1.464 1.164-2.169 1.724-.404.322-2.377 1.536-2.419 2.018z" fill="#c4e2d2"/><path d="m362.338 133.555-.004-.109c-.025-.698-1.113-.701-1.088 0l.004.109c.026.698 1.113.702 1.088 0zm-2.493-.882c.355-.243.439-.809-.006-1.028-.626-.308-1.178.63-.549.939l.037.018-.269-.47.003.048.269-.47-.034.023c-.573.394-.03 1.337.549.94zm-2.169-1.034c.7 0 .701-1.088 0-1.088-.699.001-.701 1.088 0 1.088zm-4.15-.391c.7 0 .701-1.088 0-1.088-.699.001-.7 1.088 0 1.088zm-1.819.829c.7 0 .701-1.088 0-1.088-.7.001-.701 1.088 0 1.088zm1.374-13.98-.109.004c-.698.025-.701 1.113 0 1.088l.109-.004c.698-.026.701-1.113 0-1.088zm-1.815 2.025c.7 0 .701-1.088 0-1.088-.7.001-.701 1.088 0 1.088zm-2.426-.2-.105.113c-.476.512.291 1.283.769.769l.105-.113c.476-.512-.291-1.283-.769-.769zm-1.038 1.155-.113-.105c-.512-.476-1.283.292-.769.769l.113.105c.512.476 1.283-.291.769-.769zm-1.886 1.528c.7 0 .701-1.088 0-1.088-.7.001-.701 1.088 0 1.088zm16.777.469c.7 0 .701-1.088 0-1.088-.7.001-.701 1.088 0 1.088zm-1.394-1.951-.113-.105c-.512-.476-1.283.292-.769.769l.113.105c.512.476 1.283-.291.769-.769zm-1.842-.738-.004-.109c-.026-.698-1.114-.701-1.088 0l.004.109c.027.697 1.114.701 1.088 0zm-1.608-1.311-.113-.105c-.512-.476-1.283.292-.769.769l.113.105c.513.476 1.283-.291.769-.769zm-1.072-.549-.004-.109c-.025-.698-1.113-.701-1.088 0l.004.109c.026.697 1.113.701 1.088 0zm-7.203 14.719c.7 0 .701-1.088 0-1.088-.7.001-.701 1.088 0 1.088zm3.136-23.869-.315.234c-.555.413-.014 1.357.549.939l.315-.234c.555-.413.014-1.358-.549-.939zm-1.226.837-.109.004c-.698.025-.701 1.113 0 1.088l.109-.004c.698-.026.702-1.114 0-1.088zm-2.145 1.928c.7 0 .701-1.088 0-1.088-.7 0-.701 1.088 0 1.088zm-2.13 1.276c.7 0 .701-1.088 0-1.088-.699 0-.701 1.088 0 1.088z" fill="#fff"/><path d="m346.139 113.891c.7 0 .701-1.088 0-1.088-.7 0-.701 1.088 0 1.088zm13.339-1.818.004.109c.026.698 1.114.701 1.088 0l-.004-.109c-.026-.698-1.114-.701-1.088 0zm-1.67-.463c.7 0 .701-1.088 0-1.088-.7 0-.701 1.088 0 1.088zm-1.562-1.031c.7 0 .701-1.088 0-1.088-.699.001-.701 1.088 0 1.088zm-8.049 23.172-.004-.109c-.026-.698-1.114-.701-1.088 0l.004.109c.026.697 1.114.701 1.088 0z" fill="#fff"/><path d="m392.736 99.246s1.982-2.891 4.847-3.381c0 0-3.008 2.197-3.72 3.888 0 0 4.482-.54 6.648.186 0 0-4.946.147-5.746 1.55 0 0 4.737 3.934 7.543 8.955 0 0-1.775-1.095-2.73-.932 0 0 2.466 3.585 3.159 5.981 0 0-2.856-3.216-3.326-3.419s2.287 3.2 2.389 6.339-1.497 19.537-1.8 20.193c0 0-1.047-3.356-3.004-4.741 0 0 2.073 4.05 2.302 6.052l-2.011 7.357s-.962-2.973-1.883-4.044c0 0 1.318 3.839.806 5.155s-4.594 4.529-5.749 5.066c0 0-4.17-3.823-4.681-5.928s-.486-9.803-.257-11.222c.23-1.419 3.53-3.893 3.53-3.893l-3.546 1.897.199-7.122s-.422-2.768 2.425-6.015c0 0-2.324 1.551-3.119 2.764 0 0 .284-6.74.226-8.072s3.473-5.225 3.473-5.225-3.401 2.661-3.897 3.408c0 0 .402-4.171.919-5.677s3.378-5.228 4.726-5.855c0 0-2.084-.248-3.54.851 0 0 .507-1.126 3.087-1.624 0 0-3.4-.76-5.316-.244 0 0 4.232-1.782 5.833-1.263z" fill="#d9a6c0"/><path d="m393.068 140.111c-.173-.175-.356-.36-.415-.598-.054-.221.007-.452.066-.672.546-2.044.868-4.148.959-6.262a14.395 14.395 0 0 0 2.419 3.275c.506.507 1.054.971 1.56 1.478.849.851 1.61 1.918 1.617 3.12.003.594-.18 1.172-.361 1.738-.451 1.41-.777 2.99-1.411 4.322-.731-.316-1.453-2.563-1.939-3.307-.59-.9-1.523-2.573-2.495-3.094zm-.922-3.051c-.029.648-.067 1.328-.407 1.88-.237.384-.599.671-.953.949l-5.442 4.273-.362-5.342c-.01-.148-.018-.303.047-.436.062-.126.182-.212.296-.292 1.74-1.223 3.528-2.385 5.222-3.67 3.805-2.888 1.639 1.217 1.599 2.638z" fill="#219da4"/><path d="m394.032 130.232c-.151-.095-.312-.198-.382-.362-.05-.117-.045-.249-.039-.376.033-.696.086-1.392.158-2.085a32.195 32.195 0 0 1 6.196 4.913c.285.289.57.593.727.967.144.343.171.724.177 1.096.009.562.21 2.408-.75 2.057-.543-.198-1.296-1.845-1.692-2.328a18.258 18.258 0 0 0 -4.395-3.882zm-1.475-.888c-.006.113-.013.232-.072.329-.065.108-.182.172-.294.231l-3.661 1.926c-1.088.573-2.242 1.21-2.802 2.304a5.082 5.082 0 0 1 -.249-1.718c.006-.228.03-.462.14-.662a1.59 1.59 0 0 1 .297-.358 15.835 15.835 0 0 1 4.124-2.914c.422-.206 1.842-1.065 2.298-.905.524.185.244 1.279.219 1.767z" fill="#fff"/><path d="m399.806 130.073-.618-2.398-1.358.772c-.051.029-.11.058-.165.037-.05-.019-.075-.074-.095-.124a11.547 11.547 0 0 1 -.519-1.665c-.028-.121-.067-.26-.181-.31-.081-.036-.175-.013-.259.012-.428.126-.838.31-1.217.545-.069.043-.166.086-.224.029a.189.189 0 0 1 -.04-.08l-.72-2.366a1.018 1.018 0 0 0 -.62.013 4.013 4.013 0 0 1 .069-.96c.388-.065.845-.11 1.12.171.104.106.165.246.225.382l.676 1.554a8.14 8.14 0 0 1 1.911-.534c.232.564.41 1.15.53 1.748a7.462 7.462 0 0 0 1.734-.43l.384 2.153c.272-.155.509-.373.686-.631-.078.113-.02.663-.041.827-.02.155-.016.388-.084.532-.181.391-.808.619-1.194.723zm-14.109-1.8c.063-.115.059-.253.096-.379.038-.125.155-.25.281-.214.089.025.138.118.18.2.202.388.5.726.859.976l1.026-2.729 1.172 1.427a12.252 12.252 0 0 0 1.34-2.819c.448.193.539.785.858 1.153.019.022.041.044.07.047.043.004.075-.039.098-.076.366-.606.709-1.225 1.031-1.856-.034-.355.054-.729.02-1.084l-1.134 1.197-1.301-1.015c-.452.81-.89 1.627-1.316 2.451l-1.07-.929-.95 2.173a3.689 3.689 0 0 1 -.693-1.103c-.602.569-.859 1.805-.567 2.58z" fill="#219da4"/><path d="m390.155 92.121c-.07-.296-.139-.62-.008-.895s.56-.411.742-.167c2.446 7.888 2.695 16.265 2.925 24.521.067 2.407.134 4.814.114 7.221-.04 4.825-.43 9.64-.996 14.43-.529 4.474-.638 9.853-2.109 14.096-.793-.617.096-4.123.21-5.193.21-1.971.414-3.944.604-5.917.38-3.948.708-7.901.931-11.861.44-7.809.48-15.659-.303-23.448-.433-4.3-1.117-8.578-2.11-12.787z" fill="#fff"/><path d="m316.066 100.848s2.86 2.53 3.63 4.18l-1.815-1.21s2.475 3.63 3.135 6.6c0 0-1.65-2.64-2.475-3.08 0 0 2.145 3.63 2.475 5.17s.66 5.94.66 5.94 0 .99.55 2.64l.88 8.689s-1.54-1.1-3.52-2.31c0 0 3.08 2.64 3.52 3.74s1.43 6.05 1.43 6.05-3.19-1.54-5.39-2.2c0 0 3.85 2.53 5.39 3.63s1.76 7.919-.66 15.399c0 0-6.16-1.32-9.239-5.06 0 0 .22-2.53 1.21-4.07 0 0-1.32 1.21-1.98 2.42 0 0-1.65-2.64-1.87-5.06 0 0 1.1-2.42 2.64-3.85 0 0-2.53 1.32-3.3 2.42s.859-3.63-.231-2.09c0 0-1.639-5.06-1.749-8.909v-1.1s-.55-3.3 0-6.05c0 0 1.54-1.43 2.64-1.87 0 0-2.029.11-2.884.44 0 0 .024-7.589.574-9.569l.55-1.98s.33-1.98 2.42-2.75l1.43-.55s-1.65-.22-2.97.22c0 0 .55-1.54 2.75-2.53l1.43-.88-3.63.55z" fill="#96dce6"/><path d="m316.351 134.204s-2.155 1.951-4.912 6.131c-3.005 4.555.034.314.4 0s1.014-1.03 2.797-1.87l-2.64 3.85s.413 2.664 1.87 5.06c0 0 1.319-1.905 2.64-3.08 0 0-1.43 1.1-1.87 4.73 0 0 3.63 4.29 9.239 5.06 0 0 1.87-4.95 2.42-9.624.55-4.675-1.76-5.775-1.76-5.775s-3.74-2.86-5.39-3.63c0 0 4.73 1.54 5.39 2.2s-.885-.692-4.185-1.792c-3.299-1.101-3.999-1.26-3.999-1.26z" fill="#c4e2d2"/><path d="m323.335 131.09a4.223 4.223 0 0 0 .289 2.453 276.578 276.578 0 0 1 -6.943-4.883 23.252 23.252 0 0 1 -6.269 7.354l-.358-2.574a20.244 20.244 0 0 0 6.67-7.44 20.366 20.366 0 0 0 4.18 3.165c.743.425 1.531.816 2.105 1.451s.889 1.597.505 2.362m-.335-5.784c-.347-.385-.77-.579-1.282-.627-.348-.033-.346.511 0 .544.372.035.652.196.897.468.236.26.619-.125.385-.385zm-2.512-1.379a4.305 4.305 0 0 1 -.929-.492c-.289-.198-.562.273-.274.47.333.228.682.404 1.059.547.327.123.469-.402.144-.525zm-2.323-1.394-1.001-.5c-.312-.156-.588.313-.274.47l1.001.5c.311.156.587-.313.274-.47zm-3.391.592-1.08 1.311c-.221.268.162.655.385.385l1.08-1.311c.22-.268-.162-.655-.385-.385zm-2.099 2.565a1.727 1.727 0 0 1 -.664.663c-.303.175-.029.646.274.47a2.3 2.3 0 0 0 .859-.859c.176-.303-.293-.577-.469-.274zm-1.915 1.902-.761.762c-.248.248.137.632.384.385l.761-.762c.248-.248-.137-.633-.384-.385zm-1.306 1.414c-.114.095-.227.225-.361.292l.409.235.01.076c.231-.261-.152-.647-.384-.385-.087.098-.157.174-.169.309-.021.221.242.318.409.235.174-.086.323-.253.471-.377.269-.225-.117-.607-.385-.385zm12.692-10.151a22.193 22.193 0 0 1 -5.883-3.454c-.269-.219-.656.163-.384.385a23.1 23.1 0 0 0 6.122 3.593c.326.13.467-.396.145-.524zm-7.817-3.102-5.351 3.142.329.427.416-.38c.259-.237-.126-.62-.385-.385l-.416.38c-.23.21.066.582.329.427l5.351-3.142c.303-.176.029-.646-.273-.469zm7.285.358c-1.056.088-2.228-.776-3.112-1.293a31.654 31.654 0 0 1 -2.506-1.642c-.284-.205-.556.267-.274.47a31.25 31.25 0 0 0 3.201 2.037c.826.454 1.714 1.054 2.691.973.346-.03.349-.574 0-.545zm-7.174-2.867-5.799 4.303c-.278.206-.007.678.274.47l5.799-4.303c.279-.207.008-.679-.274-.47z" fill="#fff"/><path d="m323.126 152.507c-1.68-1.454-2.458-3.666-3.123-5.785-1.211-3.858-2.279-7.776-2.821-11.784-.309-2.288-.445-4.596-.58-6.901-.539-9.167-1.074-18.423.398-27.487.487-2.996 1.193-6.015.867-9.032l-1.567-.14-.022 2.297c-.077 8.068-1.947 16.069-1.761 24.135.079 3.424.37 6.84.744 10.245.786 7.152 1.984 14.405 5.274 20.803.715 1.389 1.267 2.82 2.591 3.649z" fill="#c3ddd0"/><path d="m238.384 101.904 4.066-1.891-2.87 1.847s3.486.089 5.728-1.082c0 0-2.975 1.96-4.69 2.676 0 0 4.287 1.148 6.029 4.131 0 0 .986 3.12 1.549 6.581 0 0-5.237-4.669-4.782-2.762.129.539 4.13 2.786 4.886 5.588l.457 12.39s-6.647-3.941-4.79-2.979c.627.325 4.814 3.631 4.89 5.696s-1.526 5.824-3.169 8.497c-1.643 2.672-5.704 4.672-5.704 4.672l-7.22-6.916s1.772-5.072 4.316-6.907c0 0-4.018 3.195-4.952 4.427 0 0-2.149-5.145-2.394-8.836s.231-14.374.231-14.374 3.353-3.497 4.944-4.644l-5.004 3.014s2.194-5.414 5.934-7.293l-3.204-1.297 2.846.439s-1.244-1.26-1.4-2.56c0 .001 2.417 2.072 4.303 1.583z" fill="#219da4"/><path d="m239.784 123.255c.009-6.234.704-12.473.276-18.692-.258-3.748-.919-7.557-.095-11.222l-1.559.278c.06 14.569.519 29.135 1.375 43.679.146 2.482.178 4.941.187 7.424.897-7.09-.194-14.353-.184-21.467z" fill="#c3ddd0"/><path d="m240.019 123.876c-.135-.079-.275-.165-.35-.302-.078-.144-.069-.319-.057-.483l.246-3.414a42.67 42.67 0 0 0 7.989 4.67c.294.131.605.272.789.536.193.277.21.636.22.973.031 1.026.239 2.276.035 3.258-2.902-1.816-5.916-3.499-8.872-5.238z" fill="#d9a6c0"/><path d="m240.721 115.668c-.204-.091-.429-.207-.492-.421-.035-.119-.011-.246.011-.368.212-1.176.233-2.385.062-3.568a245.089 245.089 0 0 0 6.459 3.35c.346.173.699.35.965.631.472.498.588 1.233.601 1.919.012.649.071 1.34.011 1.966-2.561-.657-5.182-2.415-7.617-3.509zm-.422 16.163-.028 2.186c-.005.38-.004.783.196 1.106.148.24.387.405.62.564l3.583 2.442c1.16.791 2.176 1.194 2.457-.483.154-.921.054-1.464-.669-2.088-.859-.741-2.148-1.146-3.142-1.68-.461-.248-3.025-1.448-3.017-2.047z" fill="#c4e2d2"/><path d="m230.142 128.711a38.004 38.004 0 0 1 -.107-4.147c.003-.104.008-.215.067-.302.068-.1.191-.145.305-.185a37.347 37.347 0 0 0 8.661-4.306c-.285.191.223 2.985.009 3.515-.34.844-1.164 1.084-1.954 1.525z" fill="#d9a6c0"/><path d="m238.622 115.033c-.002.131-.006.269-.076.38-.074.117-.206.182-.332.24a93.416 93.416 0 0 1 -8.679 3.501c.247-1.024.373-2.077.374-3.13l4.506-2.238c1.119-.556 2.997-1.962 4.208-1.902.138 1.015.015 2.119-.001 3.149zm-4.54 24.295c.025-.284-.33-.43-.613-.47s-.64-.131-.676-.414c-.017-.133.051-.26.116-.377l1.246-2.223c.138-.245.278-.495.481-.69.212-.204.48-.338.741-.474 1.472-.769 2.726-1.773 4.032-2.773.242 1.321.208 2.664-.739 3.679-.617.662-1.464 1.164-2.169 1.724-.404.321-2.377 1.536-2.419 2.018z" fill="#c4e2d2"/><path d="m247.404 134.005-.004-.109c-.026-.698-1.114-.701-1.088 0l.004.109c.026.697 1.114.701 1.088 0zm-2.493-.883c.354-.243.44-.809-.006-1.028-.626-.307-1.178.631-.549.939l.037.018-.269-.47.003.048.269-.47-.034.023c-.573.395-.03 1.338.549.94zm-2.168-1.034c.7 0 .701-1.088 0-1.088-.7.001-.701 1.088 0 1.088zm-4.15-.391c.7 0 .701-1.088 0-1.088-.7.001-.701 1.088 0 1.088zm-1.82.829c.7 0 .701-1.088 0-1.088-.7.001-.701 1.088 0 1.088zm1.374-13.98-.109.004c-.698.026-.701 1.114 0 1.088l.109-.004c.698-.026.702-1.114 0-1.088zm-1.815 2.025c.7 0 .701-1.088 0-1.088-.7.001-.701 1.088 0 1.088zm-2.425-.2-.105.113c-.476.512.291 1.283.769.769l.105-.113c.475-.512-.292-1.283-.769-.769zm-1.039 1.155-.113-.105c-.512-.476-1.283.292-.769.769l.113.105c.512.476 1.283-.291.769-.769zm-1.886 1.528c.7 0 .701-1.088 0-1.088-.7.001-.701 1.088 0 1.088zm16.777.469c.7 0 .701-1.088 0-1.088-.7.001-.701 1.088 0 1.088zm-1.394-1.951-.113-.105c-.512-.476-1.283.292-.769.769l.113.105c.512.476 1.283-.291.769-.769zm-1.842-.738-.004-.109c-.026-.698-1.114-.701-1.088 0l.004.109c.027.697 1.114.701 1.088 0zm-1.608-1.311-.113-.105c-.512-.476-1.283.291-.769.769l.113.105c.512.476 1.283-.291.769-.769zm-1.072-.549-.004-.109c-.025-.698-1.113-.701-1.088 0l.004.109c.026.697 1.113.701 1.088 0zm-7.203 14.719c.7 0 .701-1.088 0-1.088-.7.001-.701 1.088 0 1.088zm3.136-23.869-.315.234c-.555.413-.014 1.357.549.939l.315-.234c.556-.413.014-1.357-.549-.939zm-1.225.837-.109.004c-.698.026-.701 1.114 0 1.088l.109-.004c.697-.027.701-1.114 0-1.088zm-2.146 1.928c.7 0 .701-1.088 0-1.088-.7.001-.701 1.088 0 1.088zm-2.13 1.276c.7 0 .701-1.088 0-1.088-.699 0-.7 1.088 0 1.088z" fill="#fff"/><path d="m231.205 114.34c.7 0 .701-1.088 0-1.088-.7 0-.701 1.088 0 1.088zm13.339-1.818.004.109c.026.698 1.114.701 1.088 0l-.004-.109c-.026-.698-1.114-.701-1.088 0zm-1.67-.463c.7 0 .701-1.088 0-1.088-.7 0-.701 1.088 0 1.088zm-1.562-1.031c.7 0 .701-1.088 0-1.088-.699.001-.701 1.088 0 1.088zm-8.049 23.172-.004-.109c-.025-.698-1.113-.701-1.088 0l.004.109c.026.698 1.114.701 1.088 0z" fill="#fff"/><path d="m277.803 99.695s1.982-2.891 4.847-3.381c0 0-3.008 2.197-3.72 3.888 0 0 4.482-.54 6.648.186 0 0-4.946.147-5.746 1.55 0 0 4.737 3.934 7.543 8.955 0 0-1.775-1.095-2.73-.932 0 0 2.466 3.585 3.159 5.981 0 0-2.856-3.216-3.326-3.419s2.287 3.2 2.389 6.339-1.497 19.537-1.8 20.193c0 0-1.047-3.356-3.004-4.741 0 0 2.073 4.05 2.302 6.052l-2.012 7.357s-.962-2.973-1.883-4.044c0 0 1.318 3.838.806 5.155-.512 1.316-4.594 4.529-5.749 5.066 0 0-4.17-3.823-4.681-5.928s-.486-9.803-.256-11.222 3.53-3.893 3.53-3.893l-3.546 1.897.199-7.122s-.422-2.768 2.425-6.015c0 0-2.324 1.551-3.119 2.764 0 0 .284-6.74.226-8.072s3.473-5.225 3.473-5.225-3.401 2.661-3.897 3.408c0 0 .402-4.171.919-5.677s3.378-5.228 4.726-5.855c0 0-2.084-.248-3.54.851 0 0 .507-1.126 3.087-1.624 0 0-3.4-.76-5.316-.244 0 0 4.232-1.782 5.833-1.262z" fill="#d9a6c0"/><path d="m278.134 140.56c-.173-.175-.356-.36-.415-.598-.054-.221.007-.452.066-.672.546-2.044.868-4.148.959-6.262a14.395 14.395 0 0 0 2.419 3.275c.506.507 1.054.971 1.56 1.478.849.851 1.61 1.918 1.617 3.12.003.594-.18 1.172-.361 1.738-.451 1.41-.777 2.99-1.411 4.322-.731-.316-1.453-2.563-1.939-3.307-.59-.9-1.523-2.573-2.495-3.094zm-.922-3.051c-.029.648-.067 1.328-.407 1.88-.237.384-.599.671-.953.949l-5.442 4.273-.362-5.342c-.01-.148-.018-.303.047-.436.062-.126.182-.212.296-.292 1.74-1.223 3.528-2.384 5.222-3.67 3.805-2.888 1.639 1.217 1.599 2.638z" fill="#219da4"/><path d="m279.098 130.681c-.151-.095-.312-.198-.382-.362-.05-.117-.045-.249-.039-.376.033-.696.086-1.392.159-2.085a32.195 32.195 0 0 1 6.196 4.913c.285.289.57.593.727.967.144.343.171.724.177 1.096.009.562.21 2.408-.75 2.057-.543-.198-1.296-1.845-1.692-2.328a18.303 18.303 0 0 0 -4.396-3.882zm-1.474-.888c-.006.113-.013.232-.072.329-.065.108-.182.172-.294.231l-3.661 1.926c-1.088.573-2.242 1.21-2.802 2.304a5.082 5.082 0 0 1 -.249-1.718c.006-.228.03-.462.14-.662.075-.136.186-.249.297-.358a15.835 15.835 0 0 1 4.124-2.914c.422-.206 1.842-1.065 2.298-.905.523.185.244 1.279.219 1.767z" fill="#fff"/><path d="m284.872 130.522-.618-2.398-1.358.772c-.051.029-.11.058-.165.037-.05-.019-.075-.074-.095-.124a11.547 11.547 0 0 1 -.519-1.665c-.028-.121-.067-.26-.181-.31-.081-.036-.175-.013-.259.012-.428.126-.838.31-1.217.545-.069.043-.166.086-.224.029a.189.189 0 0 1 -.04-.08l-.719-2.366a1.018 1.018 0 0 0 -.62.013 4.013 4.013 0 0 1 .069-.96c.388-.065.845-.11 1.12.171.104.106.165.246.225.382l.676 1.554a8.14 8.14 0 0 1 1.911-.534c.232.564.41 1.15.53 1.748a7.462 7.462 0 0 0 1.734-.43l.384 2.153c.272-.155.509-.373.686-.631-.078.113-.02.663-.041.827-.019.155-.016.388-.084.532-.182.391-.809.619-1.195.723zm-14.109-1.8c.063-.115.059-.254.096-.379.038-.125.155-.25.281-.214.089.025.137.118.18.2.202.388.5.726.859.976l1.026-2.73 1.172 1.427a12.252 12.252 0 0 0 1.34-2.819c.448.193.539.785.858 1.153.019.022.041.044.07.047.043.004.075-.038.098-.076.366-.606.709-1.225 1.031-1.856-.034-.355.054-.729.02-1.084l-1.134 1.197-1.301-1.015c-.451.81-.89 1.627-1.316 2.451l-1.07-.929-.95 2.174a3.689 3.689 0 0 1 -.693-1.103c-.602.569-.859 1.805-.567 2.58z" fill="#219da4"/><path d="m275.221 92.57c-.07-.296-.139-.62-.008-.895s.56-.411.742-.167c2.446 7.888 2.695 16.265 2.925 24.521.067 2.407.134 4.814.114 7.221-.04 4.825-.43 9.64-.996 14.43-.529 4.474-.638 9.853-2.109 14.096-.793-.617.096-4.123.21-5.193.21-1.971.414-3.944.604-5.917.38-3.948.708-7.901.931-11.861.44-7.809.48-15.659-.303-23.448-.433-4.3-1.117-8.578-2.11-12.787z" fill="#fff"/><path d="m201.133 101.297s2.86 2.53 3.63 4.18l-1.815-1.21s2.475 3.63 3.135 6.6c0 0-1.65-2.64-2.475-3.08 0 0 2.145 3.63 2.475 5.17s.66 5.94.66 5.94 0 .99.55 2.64l.88 8.689s-1.54-1.1-3.52-2.31c0 0 3.08 2.64 3.52 3.74s1.43 6.05 1.43 6.05-3.19-1.54-5.39-2.2c0 0 3.85 2.53 5.39 3.63s1.76 7.919-.66 15.399c0 0-6.16-1.32-9.239-5.06 0 0 .22-2.53 1.21-4.07 0 0-1.32 1.21-1.98 2.42 0 0-1.65-2.64-1.87-5.06 0 0 1.1-2.42 2.64-3.85 0 0-2.53 1.32-3.3 2.42s.859-3.63-.231-2.09c0 0-1.639-5.06-1.749-8.909v-1.1s-.55-3.3 0-6.05c0 0 1.54-1.43 2.64-1.87 0 0-2.029.11-2.884.44 0 0 .024-7.589.574-9.569l.55-1.98s.33-1.98 2.42-2.75l1.43-.55s-1.65-.22-2.97.22c0 0 .55-1.54 2.75-2.53l1.43-.88-3.63.55z" fill="#96dce6"/><path d="m201.417 134.653s-2.155 1.951-4.912 6.131c-3.005 4.555.034.314.4 0s1.014-1.03 2.798-1.87l-2.64 3.85s.413 2.664 1.87 5.06c0 0 1.319-1.906 2.64-3.08 0 0-1.43 1.1-1.87 4.73 0 0 3.63 4.29 9.239 5.06 0 0 1.87-4.95 2.42-9.624.55-4.675-1.76-5.775-1.76-5.775s-3.74-2.86-5.39-3.63c0 0 4.73 1.54 5.39 2.2s-.885-.692-4.185-1.792c-3.3-1.101-4-1.26-4-1.26z" fill="#c4e2d2"/><path d="m208.401 131.54a4.223 4.223 0 0 0 .289 2.453 276.578 276.578 0 0 1 -6.943-4.883 23.252 23.252 0 0 1 -6.269 7.354l-.358-2.574a20.244 20.244 0 0 0 6.67-7.44 20.366 20.366 0 0 0 4.18 3.165c.743.425 1.531.816 2.105 1.451s.889 1.597.505 2.362m-.335-5.784c-.347-.385-.77-.579-1.282-.628-.348-.033-.346.511 0 .544.372.035.652.196.897.468.236.261.619-.125.385-.384zm-2.512-1.38a4.305 4.305 0 0 1 -.929-.492c-.289-.198-.562.273-.274.47.333.228.682.404 1.059.547.327.123.469-.402.144-.525zm-2.323-1.394-1.001-.5c-.312-.156-.588.313-.274.47l1.001.5c.311.156.587-.313.274-.47zm-3.391.592-1.08 1.311c-.221.268.162.655.385.385l1.08-1.311c.22-.268-.162-.655-.385-.385zm-2.099 2.565a1.727 1.727 0 0 1 -.664.663c-.303.175-.029.646.274.47.367-.213.646-.492.859-.858.177-.304-.293-.578-.469-.275zm-1.915 1.903-.761.762c-.248.248.137.632.385.385l.761-.762c.247-.249-.137-.633-.385-.385zm-1.306 1.413c-.114.095-.227.225-.361.292l.409.235.01.076c.231-.261-.152-.647-.385-.385-.087.098-.157.174-.169.309-.021.221.242.318.409.235.174-.086.323-.253.471-.377.27-.225-.116-.608-.384-.385zm12.692-10.15c-2.139-.848-4.099-2-5.882-3.454-.269-.219-.656.163-.385.385a23.1 23.1 0 0 0 6.122 3.593c.326.129.467-.397.145-.524zm-7.817-3.103-5.351 3.142.329.427.416-.38c.259-.237-.127-.62-.385-.385l-.416.38c-.23.21.066.582.329.427l5.351-3.142c.303-.176.029-.646-.273-.469zm7.285.358c-1.056.088-2.228-.776-3.112-1.293a31.654 31.654 0 0 1 -2.506-1.642c-.284-.205-.556.267-.274.47a31.25 31.25 0 0 0 3.201 2.037c.826.454 1.714 1.054 2.691.973.346-.03.349-.574 0-.545zm-7.174-2.867-5.799 4.303c-.278.206-.007.678.274.47l5.799-4.303c.279-.207.008-.679-.274-.47z" fill="#fff"/><path d="m208.192 152.956c-1.68-1.454-2.458-3.666-3.123-5.785-1.211-3.858-2.279-7.776-2.821-11.784-.309-2.288-.445-4.596-.58-6.902-.539-9.167-1.074-18.423.398-27.487.486-2.996 1.193-6.015.867-9.033l-1.567-.14-.022 2.297c-.077 8.068-1.947 16.069-1.761 24.135.079 3.424.37 6.84.744 10.245.786 7.152 1.984 14.404 5.274 20.803.715 1.391 1.267 2.822 2.591 3.651z" fill="#219da4"/><path d="m123.45 102.353 4.066-1.891-2.87 1.847s3.486.089 5.728-1.082c0 0-2.975 1.96-4.69 2.676 0 0 4.287 1.148 6.029 4.131 0 0 .986 3.12 1.549 6.581 0 0-5.237-4.669-4.782-2.762.129.539 4.13 2.786 4.886 5.588l.457 12.39s-6.647-3.941-4.79-2.979c.627.325 4.814 3.631 4.89 5.696s-1.526 5.824-3.169 8.497c-1.643 2.672-5.704 4.673-5.704 4.673l-7.22-6.916s1.772-5.072 4.316-6.907c0 0-4.018 3.195-4.952 4.427 0 0-2.149-5.144-2.394-8.836-.245-3.691.231-14.374.231-14.374s3.353-3.497 4.944-4.644l-5.004 3.014s2.194-5.414 5.934-7.293l-3.204-1.297 2.846.439s-1.244-1.26-1.4-2.56c0 0 2.417 2.071 4.303 1.582z" fill="#219da4"/><path d="m124.85 123.704c.009-6.234.704-12.473.276-18.692-.258-3.748-.919-7.557-.095-11.222l-1.559.278a799.45 799.45 0 0 0 1.375 43.679c.146 2.482.178 4.941.187 7.424.897-7.09-.194-14.352-.184-21.467z" fill="#c3ddd0"/><path d="m125.085 124.325c-.135-.079-.275-.165-.35-.302-.078-.144-.069-.319-.057-.483l.246-3.414a42.67 42.67 0 0 0 7.989 4.67c.294.131.605.272.789.536.193.277.21.636.22.973.031 1.026.239 2.276.035 3.258-2.902-1.816-5.916-3.499-8.872-5.238z" fill="#d9a6c0"/><path d="m125.787 116.117c-.204-.091-.429-.207-.492-.421-.035-.119-.011-.246.011-.368.212-1.176.233-2.385.062-3.568a245.089 245.089 0 0 0 6.459 3.35c.346.173.699.35.965.631.472.498.588 1.233.601 1.919.012.649.071 1.34.011 1.966-2.561-.657-5.181-2.414-7.617-3.509zm-.422 16.163-.028 2.186c-.005.38-.004.783.196 1.106.148.24.387.405.62.564l3.583 2.442c1.16.791 2.176 1.194 2.457-.483.154-.921.054-1.464-.669-2.088-.859-.741-2.148-1.146-3.142-1.68-.461-.248-3.024-1.448-3.017-2.047z" fill="#c4e2d2"/><path d="m115.208 129.16a38.004 38.004 0 0 1 -.107-4.147c.003-.104.008-.215.067-.302.068-.1.191-.145.305-.185a37.347 37.347 0 0 0 8.661-4.306c-.285.191.223 2.985.009 3.515-.34.844-1.164 1.084-1.954 1.525z" fill="#d9a6c0"/><path d="m123.688 115.483c-.002.131-.006.269-.076.38-.073.117-.206.182-.332.24a93.416 93.416 0 0 1 -8.679 3.501c.247-1.024.373-2.076.374-3.13l4.506-2.238c1.119-.556 2.997-1.962 4.208-1.902.139 1.014.015 2.119-.001 3.149zm-4.54 24.294c.025-.284-.33-.43-.613-.47s-.64-.131-.676-.414c-.017-.133.051-.26.116-.377l1.246-2.223c.138-.245.278-.495.481-.69.212-.204.48-.338.741-.474 1.472-.769 2.726-1.773 4.032-2.773.242 1.321.208 2.664-.739 3.679-.617.662-1.464 1.164-2.169 1.724-.403.321-2.376 1.536-2.419 2.018z" fill="#c4e2d2"/><path d="m132.47 134.454-.004-.109c-.026-.698-1.114-.701-1.088 0l.004.109c.026.697 1.114.701 1.088 0zm-2.493-.883c.355-.243.44-.809-.006-1.028-.626-.307-1.178.631-.549.939l.037.018-.269-.47.003.048.269-.47-.034.023c-.573.395-.03 1.337.549.94zm-2.168-1.034c.7 0 .701-1.088 0-1.088-.7.001-.701 1.088 0 1.088zm-4.15-.391c.7 0 .701-1.088 0-1.088-.7.001-.701 1.088 0 1.088zm-1.82.829c.7 0 .701-1.088 0-1.088-.7.001-.701 1.088 0 1.088zm1.375-13.98-.109.004c-.698.026-.701 1.114 0 1.088l.109-.004c.697-.026.701-1.114 0-1.088zm-1.816 2.025c.7 0 .701-1.088 0-1.088-.7.001-.701 1.088 0 1.088zm-2.425-.2-.105.113c-.476.512.292 1.283.769.769l.105-.113c.475-.512-.292-1.283-.769-.769zm-1.039 1.155-.113-.105c-.512-.476-1.283.291-.769.769l.113.105c.512.476 1.283-.291.769-.769zm-1.886 1.528c.7 0 .701-1.088 0-1.088-.7.001-.701 1.088 0 1.088zm16.777.469c.7 0 .701-1.088 0-1.088-.7.001-.701 1.088 0 1.088zm-1.394-1.95-.113-.105c-.512-.476-1.283.292-.769.769l.113.105c.512.475 1.283-.292.769-.769zm-1.841-.739-.004-.109c-.026-.698-1.114-.701-1.088 0l.004.109c.026.697 1.114.701 1.088 0zm-1.609-1.311-.113-.105c-.512-.476-1.283.292-.769.769l.113.105c.513.476 1.284-.291.769-.769zm-1.072-.549-.004-.109c-.026-.698-1.114-.701-1.088 0l.004.109c.026.697 1.114.701 1.088 0zm-7.203 14.719c.7 0 .701-1.088 0-1.088-.7.001-.701 1.088 0 1.088zm3.137-23.869-.315.234c-.555.413-.014 1.357.549.939l.315-.234c.555-.413.013-1.357-.549-.939zm-1.226.837-.109.004c-.698.026-.701 1.114 0 1.088l.109-.004c.697-.027.701-1.114 0-1.088zm-2.146 1.928c.7 0 .701-1.088 0-1.088-.7.001-.701 1.088 0 1.088zm-2.129 1.276c.7 0 .701-1.088 0-1.088-.7 0-.701 1.088 0 1.088z" fill="#fff"/><path d="m116.271 114.789c.7 0 .701-1.088 0-1.088-.7 0-.701 1.088 0 1.088zm13.339-1.818.004.109c.025.698 1.113.701 1.088 0l-.004-.109c-.026-.698-1.113-.701-1.088 0zm-1.67-.463c.7 0 .701-1.088 0-1.088-.7 0-.701 1.088 0 1.088zm-1.561-1.031c.7 0 .701-1.088 0-1.088-.7.001-.701 1.088 0 1.088zm-8.05 23.172-.004-.109c-.025-.698-1.113-.701-1.088 0l.004.109c.026.698 1.114.701 1.088 0z" fill="#fff"/><path d="m162.869 100.144s1.982-2.891 4.847-3.381c0 0-3.008 2.197-3.72 3.888 0 0 4.482-.54 6.648.186 0 0-4.946.147-5.746 1.55 0 0 4.737 3.934 7.543 8.955 0 0-1.775-1.095-2.73-.932 0 0 2.466 3.585 3.159 5.981 0 0-2.856-3.216-3.326-3.419s2.287 3.2 2.389 6.34c.102 3.139-1.497 19.537-1.8 20.193 0 0-1.047-3.356-3.004-4.741 0 0 2.073 4.05 2.302 6.052l-2.011 7.357s-.962-2.973-1.883-4.044c0 0 1.318 3.838.806 5.155-.512 1.316-4.594 4.529-5.749 5.066 0 0-4.17-3.823-4.681-5.928s-.486-9.803-.257-11.222 3.53-3.893 3.53-3.893l-3.546 1.897.199-7.122s-.422-2.768 2.425-6.015c0 0-2.324 1.551-3.119 2.764 0 0 .284-6.74.226-8.072s3.473-5.225 3.473-5.225-3.401 2.661-3.897 3.408c0 0 .402-4.171.919-5.677s3.378-5.228 4.726-5.855c0 0-2.084-.248-3.54.851 0 0 .507-1.126 3.087-1.624 0 0-3.4-.76-5.315-.244 0 0 4.232-1.783 5.833-1.263z" fill="#d9a6c0"/><path d="m163.2 141.009c-.173-.175-.356-.36-.415-.598-.054-.221.007-.452.066-.672.546-2.044.868-4.148.959-6.262a14.395 14.395 0 0 0 2.419 3.275c.506.507 1.054.971 1.56 1.478.849.851 1.61 1.918 1.617 3.12.003.594-.18 1.172-.361 1.738-.451 1.41-.777 2.99-1.411 4.322-.731-.316-1.453-2.563-1.939-3.307-.59-.9-1.523-2.573-2.495-3.094zm-.922-3.051c-.029.648-.067 1.328-.407 1.88-.237.384-.599.671-.953.949l-5.442 4.273-.362-5.342c-.01-.148-.018-.303.047-.436.062-.126.182-.212.296-.292 1.74-1.223 3.528-2.385 5.222-3.67 3.805-2.888 1.639 1.217 1.599 2.638z" fill="#219da4"/><path d="m164.165 131.13c-.151-.095-.312-.198-.382-.361-.05-.117-.045-.249-.039-.376.033-.696.086-1.392.158-2.085a32.195 32.195 0 0 1 6.196 4.913c.285.289.57.593.727.967.144.343.171.724.177 1.096.009.562.211 2.408-.75 2.057-.543-.198-1.296-1.845-1.692-2.328a18.28 18.28 0 0 0 -4.395-3.883zm-1.475-.888c-.006.113-.013.232-.072.329-.065.108-.182.172-.294.231l-3.661 1.926c-1.088.573-2.242 1.21-2.802 2.304a5.082 5.082 0 0 1 -.249-1.718c.006-.228.03-.462.14-.662a1.59 1.59 0 0 1 .297-.358 15.835 15.835 0 0 1 4.124-2.914c.422-.207 1.842-1.065 2.298-.905.524.185.244 1.279.219 1.767z" fill="#fff"/><path d="m169.938 130.971-.618-2.398-1.358.772c-.051.029-.11.058-.165.037-.05-.019-.075-.074-.095-.124a11.547 11.547 0 0 1 -.519-1.665c-.028-.121-.067-.26-.181-.31-.081-.036-.175-.013-.259.012-.428.126-.838.31-1.217.545-.069.043-.166.086-.224.029a.189.189 0 0 1 -.04-.08l-.719-2.366a1.018 1.018 0 0 0 -.62.013 4.013 4.013 0 0 1 .069-.96c.388-.065.845-.11 1.12.171.104.106.165.246.225.382l.676 1.554a8.14 8.14 0 0 1 1.911-.534c.232.564.41 1.15.53 1.748a7.462 7.462 0 0 0 1.734-.43l.384 2.153c.272-.155.509-.372.686-.631-.078.113-.02.663-.041.827-.019.155-.016.388-.084.532-.182.391-.809.619-1.195.723zm-14.109-1.8c.063-.115.059-.254.096-.379.038-.125.155-.25.281-.214.089.025.137.118.18.2.202.388.5.726.86.976l1.026-2.729 1.172 1.427a12.252 12.252 0 0 0 1.34-2.819c.448.193.539.785.858 1.153.019.022.041.044.07.047.043.004.075-.038.098-.076.366-.606.709-1.225 1.031-1.856-.034-.355.054-.728.02-1.084l-1.134 1.197-1.301-1.015c-.451.81-.89 1.627-1.316 2.451l-1.07-.929-.95 2.174a3.689 3.689 0 0 1 -.693-1.103c-.603.569-.86 1.804-.568 2.579z" fill="#219da4"/><path d="m160.287 93.019c-.07-.296-.139-.62-.008-.895s.56-.411.742-.167c2.446 7.888 2.695 16.265 2.925 24.521.067 2.407.134 4.814.114 7.221-.04 4.825-.43 9.64-.996 14.429-.529 4.474-.638 9.853-2.109 14.096-.793-.617.096-4.123.21-5.193.21-1.971.414-3.944.604-5.917.38-3.948.708-7.901.931-11.861.44-7.809.48-15.659-.303-23.448-.433-4.299-1.117-8.577-2.11-12.786z" fill="#fff"/><path d="m47.82 100.168s1.982-2.891 4.847-3.381c0 0-3.008 2.197-3.72 3.888 0 0 4.482-.54 6.648.186 0 0-4.946.147-5.746 1.55 0 0 4.737 3.934 7.543 8.955 0 0-1.775-1.095-2.73-.932 0 0 2.466 3.585 3.159 5.981 0 0-2.856-3.216-3.326-3.419s2.287 3.2 2.389 6.34c.102 3.139-1.497 19.537-1.8 20.193 0 0-1.047-3.356-3.004-4.741 0 0 2.073 4.05 2.302 6.052l-2.011 7.357s-.962-2.973-1.883-4.044c0 0 1.318 3.838.806 5.155-.512 1.316-4.594 4.529-5.749 5.066 0 0-4.17-3.823-4.681-5.928s-.486-9.803-.256-11.222 3.53-3.893 3.53-3.893l-3.546 1.897.199-7.122s-.422-2.768 2.425-6.015c0 0-2.324 1.551-3.119 2.764 0 0 .284-6.74.226-8.072s3.473-5.225 3.473-5.225-3.401 2.661-3.897 3.408c0 0 .402-4.171.919-5.677s3.378-5.228 4.726-5.855c0 0-2.084-.248-3.54.851 0 0 .507-1.126 3.087-1.624 0 0-3.4-.76-5.315-.244 0 0 4.232-1.783 5.833-1.263z" fill="#d9a6c0"/><path d="m48.151 141.033c-.173-.175-.356-.36-.415-.598-.054-.221.007-.452.066-.672.546-2.044.868-4.148.959-6.262a14.395 14.395 0 0 0 2.419 3.275c.506.507 1.054.971 1.56 1.478.849.851 1.61 1.918 1.617 3.12.003.594-.18 1.172-.361 1.738-.451 1.41-.777 2.99-1.411 4.322-.731-.316-1.453-2.563-1.939-3.307-.59-.9-1.523-2.573-2.495-3.094zm-.922-3.051c-.029.648-.067 1.328-.407 1.88-.237.384-.599.671-.953.949l-5.442 4.273-.362-5.342c-.01-.148-.018-.303.047-.436.062-.126.182-.212.296-.292 1.74-1.223 3.528-2.385 5.222-3.67 3.805-2.888 1.639 1.217 1.599 2.638z" fill="#219da4"/><path d="m49.115 131.154c-.151-.095-.312-.198-.382-.362-.05-.117-.045-.249-.039-.376.033-.696.086-1.392.158-2.085a32.195 32.195 0 0 1 6.196 4.913c.285.289.57.593.727.967.144.343.171.724.177 1.096.009.562.211 2.408-.75 2.057-.543-.198-1.296-1.845-1.692-2.328a18.258 18.258 0 0 0 -4.395-3.882zm-1.474-.888c-.006.113-.013.232-.072.329-.065.108-.182.172-.294.231l-3.661 1.926c-1.088.573-2.242 1.21-2.802 2.304a5.082 5.082 0 0 1 -.249-1.718c.006-.228.03-.462.14-.662a1.59 1.59 0 0 1 .297-.358 15.835 15.835 0 0 1 4.124-2.914c.422-.207 1.842-1.065 2.298-.905.523.185.244 1.279.219 1.767z" fill="#fff"/><path d="m54.889 130.995-.618-2.398-1.358.772c-.051.029-.11.058-.165.037-.05-.019-.075-.074-.095-.124a11.547 11.547 0 0 1 -.519-1.665c-.028-.121-.067-.26-.181-.31-.081-.036-.175-.013-.259.012-.428.126-.838.31-1.217.545-.069.043-.166.086-.224.029a.189.189 0 0 1 -.04-.08l-.719-2.366a1.018 1.018 0 0 0 -.62.013 4.013 4.013 0 0 1 .069-.96c.388-.065.845-.11 1.12.171.104.106.165.246.225.382l.676 1.554a8.14 8.14 0 0 1 1.911-.534c.232.564.41 1.15.53 1.748a7.462 7.462 0 0 0 1.734-.43l.384 2.153c.272-.155.509-.372.686-.631-.078.113-.02.663-.041.827-.02.155-.016.388-.084.532-.182.391-.809.619-1.195.723zm-14.109-1.8c.063-.115.059-.254.096-.379.038-.125.155-.25.281-.214.089.025.137.118.18.2.202.388.5.726.86.976l1.026-2.729 1.172 1.427a12.252 12.252 0 0 0 1.34-2.819c.448.193.539.785.858 1.153.019.022.041.044.07.047.043.004.075-.039.098-.076.366-.606.709-1.225 1.031-1.856-.034-.355.054-.729.02-1.084l-1.134 1.197-1.301-1.015c-.451.81-.89 1.627-1.316 2.451l-1.07-.929-.95 2.174a3.689 3.689 0 0 1 -.693-1.103c-.603.568-.86 1.804-.568 2.579z" fill="#219da4"/><path d="m45.238 93.043c-.07-.296-.139-.62-.008-.895s.56-.411.742-.167c2.446 7.888 2.695 16.265 2.925 24.521.067 2.407.134 4.814.114 7.221-.04 4.825-.43 9.64-.996 14.43-.529 4.474-.638 9.853-2.109 14.096-.793-.617.096-4.123.21-5.193.21-1.971.414-3.944.604-5.917.38-3.948.708-7.901.931-11.861.44-7.809.48-15.659-.303-23.448-.433-4.301-1.117-8.579-2.11-12.787z" fill="#fff"/><path d="m86.199 101.746s2.86 2.53 3.63 4.18l-1.815-1.21s2.475 3.63 3.135 6.6c0 0-1.65-2.64-2.475-3.08 0 0 2.145 3.63 2.475 5.17s.66 5.94.66 5.94 0 .99.55 2.64l.88 8.689s-1.54-1.1-3.52-2.31c0 0 3.08 2.64 3.52 3.74s1.43 6.05 1.43 6.05-3.19-1.54-5.39-2.2c0 0 3.85 2.53 5.39 3.63s1.76 7.919-.66 15.399c0 0-6.16-1.32-9.239-5.06 0 0 .22-2.53 1.21-4.07 0 0-1.32 1.21-1.98 2.42 0 0-1.65-2.64-1.87-5.06 0 0 1.1-2.42 2.64-3.85 0 0-2.53 1.32-3.3 2.42s.859-3.63-.231-2.09c0 0-1.639-5.06-1.749-8.909v-1.1s-.55-3.3 0-6.05c0 0 1.54-1.43 2.64-1.87 0 0-2.029.11-2.884.44 0 0 .024-7.589.574-9.569l.55-1.98s.33-1.98 2.42-2.75l1.43-.55s-1.65-.22-2.97.22c0 0 .55-1.54 2.75-2.53l1.43-.88-3.63.55z" fill="#96dce6"/><path d="m86.483 135.103s-2.155 1.951-4.912 6.131c-3.005 4.555.034.314.4 0s1.014-1.03 2.798-1.87l-2.64 3.85s.413 2.664 1.87 5.06c0 0 1.319-1.906 2.64-3.08 0 0-1.43 1.1-1.87 4.73 0 0 3.63 4.29 9.239 5.06 0 0 1.87-4.95 2.42-9.624.55-4.675-1.76-5.775-1.76-5.775s-3.74-2.86-5.39-3.63c0 0 4.73 1.54 5.39 2.2s-.885-.692-4.185-1.792c-3.3-1.102-4-1.26-4-1.26z" fill="#c4e2d2"/><path d="m93.467 131.989a4.223 4.223 0 0 0 .289 2.453 271.465 271.465 0 0 1 -6.943-4.883 23.252 23.252 0 0 1 -6.269 7.354l-.358-2.574a20.244 20.244 0 0 0 6.67-7.44 20.366 20.366 0 0 0 4.18 3.165c.743.425 1.531.816 2.105 1.451s.889 1.597.505 2.362m-.334-5.784c-.347-.385-.77-.579-1.282-.627-.348-.033-.346.511 0 .544.372.035.652.196.897.468.235.26.618-.126.385-.385zm-2.513-1.38a4.305 4.305 0 0 1 -.929-.492c-.289-.198-.562.273-.274.47.333.228.682.404 1.059.547.327.123.469-.402.144-.525zm-2.323-1.394-1.001-.5c-.312-.156-.588.313-.274.47l1.001.5c.312.156.587-.313.274-.47zm-3.391.592-1.08 1.311c-.221.268.162.655.385.385l1.08-1.311c.22-.268-.162-.655-.385-.385zm-2.099 2.565a1.727 1.727 0 0 1 -.664.663c-.303.175-.029.646.274.47.367-.213.646-.492.859-.858.177-.304-.293-.578-.469-.275zm-1.915 1.903-.761.762c-.248.248.137.632.385.385l.761-.762c.247-.249-.137-.633-.385-.385zm-1.305 1.413c-.114.095-.227.225-.361.292l.409.235.01.076c.231-.261-.152-.647-.385-.385-.087.098-.157.174-.169.309-.021.221.242.318.409.235.174-.086.323-.253.471-.377.269-.224-.117-.607-.384-.385zm12.691-10.15a22.172 22.172 0 0 1 -5.882-3.454c-.269-.219-.656.163-.385.385a23.1 23.1 0 0 0 6.122 3.593c.326.129.467-.397.145-.524zm-7.817-3.103-5.351 3.142.329.427.416-.38c.259-.237-.127-.62-.385-.385l-.416.38c-.23.21.066.582.329.427l5.351-3.142c.303-.176.03-.646-.273-.469zm7.285.358c-1.056.088-2.228-.776-3.112-1.293a31.654 31.654 0 0 1 -2.506-1.642c-.284-.205-.556.267-.274.47a31.25 31.25 0 0 0 3.201 2.037c.826.454 1.714 1.054 2.691.973.346-.03.349-.574 0-.545zm-7.174-2.867-5.799 4.303c-.278.206-.007.678.274.47l5.799-4.303c.279-.207.008-.679-.274-.47z" fill="#fff"/><path d="m93.258 153.406c-1.68-1.454-2.458-3.666-3.123-5.785-1.211-3.858-2.279-7.776-2.821-11.784-.309-2.288-.445-4.596-.58-6.902-.539-9.167-1.074-18.423.398-27.487.487-2.996 1.193-6.015.867-9.032l-1.567-.14-.022 2.297c-.077 8.068-1.947 16.069-1.761 24.135.079 3.424.37 6.841.744 10.245.786 7.152 1.984 14.404 5.274 20.803.715 1.389 1.267 2.82 2.591 3.65z" fill="#219da4"/><path d="m166.685 174.82 4.582-4.275-4.601-4.254-4.602-4.253-4.581 4.275-4.582 4.275 4.602 4.254 4.601 4.254z" fill="#c4e2d2"/><path d="m180.72 166.722 2.261 2.09 1.888 1.745-1.88 1.754-2.251 2.1-2.261-2.09-1.888-1.745 1.88-1.754zm-.011-4.684-4.581 4.275-4.581 4.275 4.601 4.254 4.601 4.254 4.581-4.275 4.581-4.275-4.601-4.254z" fill="#219da4"/><path d="m111.397 174.82 4.581-4.275-4.601-4.254-4.601-4.253-4.582 4.275-4.581 4.275 4.601 4.254 4.601 4.254z" fill="#c4e2d2"/><path d="m125.431 166.722 2.261 2.09 1.888 1.745-1.88 1.754-2.251 2.1-2.261-2.09-1.888-1.745 1.88-1.754zm-.011-4.684-4.581 4.275-4.581 4.275 4.601 4.254 4.601 4.254 4.581-4.275 4.581-4.275-4.601-4.254z" fill="#219da4"/><path d="m56.108 174.82 4.582-4.275-4.602-4.254-4.601-4.253-4.581 4.275-4.582 4.275 4.601 4.254 4.602 4.254z" fill="#c4e2d2"/><path d="m70.143 166.722 2.261 2.09 1.888 1.745-1.88 1.754-2.251 2.1-2.261-2.09-1.888-1.745 1.88-1.754zm-.011-4.684-4.581 4.275-4.581 4.275 4.601 4.254 4.601 4.254 4.581-4.275 4.581-4.275-4.601-4.254z" fill="#219da4"/><path d="m332.831 174.82 4.581-4.275-4.601-4.254-4.602-4.253-4.581 4.275-4.582 4.275 4.602 4.254 4.601 4.254z" fill="#c4e2d2"/><path d="m346.865 166.722 2.261 2.09 1.888 1.745-1.88 1.754-2.251 2.1-2.261-2.09-1.888-1.745 1.88-1.754zm-.011-4.684-4.581 4.275-4.581 4.275 4.601 4.254 4.601 4.254 4.581-4.275 4.582-4.275-4.601-4.254z" fill="#219da4"/><path d="m277.542 174.82 4.581-4.275-4.601-4.254-4.601-4.253-4.582 4.275-4.581 4.275 4.601 4.254 4.601 4.254z" fill="#c4e2d2"/><path d="m291.576 166.722 2.261 2.09 1.888 1.745-1.88 1.754-2.251 2.1-2.261-2.09-1.888-1.745 1.88-1.754zm-.011-4.684-4.582 4.275-4.581 4.275 4.601 4.254 4.601 4.254 4.582-4.275 4.581-4.275-4.601-4.254z" fill="#219da4"/><path d="m222.253 174.82 4.582-4.275-4.602-4.254-4.601-4.253-4.581 4.275-4.582 4.275 4.601 4.254 4.602 4.254z" fill="#c4e2d2"/><path d="m236.288 166.722 2.261 2.09 1.888 1.745-1.88 1.754-2.251 2.1-2.261-2.09-1.888-1.745 1.88-1.754zm-.011-4.684-4.581 4.275-4.581 4.275 4.601 4.254 4.601 4.254 4.581-4.275 4.581-4.275-4.601-4.254z" fill="#219da4"/><path d="m388.486 174.82 4.581-4.275-4.601-4.254-4.601-4.253-4.582 4.275-4.581 4.275 4.601 4.254 4.601 4.254z" fill="#c4e2d2"/><path d="m402.52 166.722 2.261 2.09 1.888 1.745-1.88 1.754-2.251 2.1-2.261-2.09-1.888-1.745 1.88-1.754zm-.011-4.684-4.581 4.275-4.581 4.275 4.601 4.254 4.601 4.254 4.581-4.275 4.581-4.275-4.601-4.254z" fill="#219da4"/><path d="m22.549 202.114v-12.041l8.817 6.02 8.817 6.021-8.817 6.021-8.817 6.021z" fill="#219da4"/><path d="m57.548 202.114v-12.041l8.818 6.02 8.817 6.021-8.817 6.021-8.818 6.021z" fill="#96dce6"/><path d="m75.048 202.114v-12.041l8.817 6.02 8.817 6.021-8.817 6.021-8.817 6.021z" fill="#c4e2d2"/><path d="m92.548 202.114v-12.041l8.817 6.02 8.817 6.021-8.817 6.021-8.817 6.021z" fill="#219da4"/><path d="m127.548 202.114v-12.041l8.817 6.02 8.817 6.021-8.817 6.021-8.817 6.021z" fill="#96dce6"/><path d="m145.047 202.114v-12.041l8.818 6.02 8.817 6.021-8.817 6.021-8.818 6.021z" fill="#c4e2d2"/><path d="m162.547 202.114v-12.041l8.817 6.02 8.817 6.021-8.817 6.021-8.817 6.021z" fill="#219da4"/><path d="m198.903 202.114v-12.041l8.818 6.02 8.817 6.021-8.817 6.021-8.818 6.021zm140.738 0v-12.041l8.817 6.02 8.817 6.021-8.817 6.021-8.817 6.021z" fill="#96dce6"/><path d="m216.403 202.114v-12.041l8.817 6.02 8.817 6.021-8.817 6.021-8.817 6.021z" fill="#c4e2d2"/><path d="m233.903 202.114v-12.041l8.817 6.02 8.817 6.021-8.817 6.021-8.817 6.021z" fill="#219da4"/><path d="m203.696 174.82 4.581-4.275-4.601-4.254-4.601-4.253-4.582 4.275-4.581 4.275 4.601 4.254 4.602 4.254zm-55.289 0 4.582-4.275-4.602-4.254-4.601-4.253-4.581 4.275-4.582 4.275 4.602 4.254 4.601 4.254zm-55.288 0 4.581-4.275-4.601-4.254-4.602-4.253-4.581 4.275-4.581 4.275 4.601 4.254 4.601 4.254zm276.722 0 4.581-4.275-4.601-4.254-4.601-4.253-4.582 4.275-4.581 4.275 4.601 4.254 4.602 4.254zm-55.289 0 4.582-4.275-4.602-4.254-4.601-4.253-4.581 4.275-4.582 4.275 4.602 4.254 4.601 4.254zm-55.288 0 4.581-4.275-4.601-4.254-4.602-4.253-4.581 4.275-4.581 4.275 4.601 4.254 4.601 4.254zm-221.434 0 4.582-4.275-4.602-4.254-4.601-4.253-4.582 4.275-4.581 4.275 4.601 4.254 4.602 4.254zm2.219 27.294v-12.041l8.817 6.02 8.817 6.021-8.817 6.021-8.817 6.021zm69.999 0v-12.041l8.817 6.02 8.817 6.021-8.817 6.021-8.817 6.021zm70.12 0v-12.041l8.817 6.02 8.817 6.021-8.817 6.021-8.817 6.021zm71.235 0v-12.041l8.817 6.02 8.817 6.021-8.817 6.021-8.817 6.021zm70.12 0v-12.041l8.817 6.02 8.817 6.021-8.817 6.021-8.817 6.021z" fill="#d9a6c0"/><path d="m268.903 202.114v-12.041l8.817 6.02 8.817 6.021-8.817 6.021-8.817 6.021z" fill="#96dce6"/><path d="m286.402 202.114v-12.041l8.818 6.02 8.817 6.021-8.817 6.021-8.818 6.021z" fill="#c4e2d2"/><path d="m303.902 202.114v-12.041l8.817 6.02 8.818 6.021-8.818 6.021-8.817 6.021z" fill="#219da4"/><path d="m393.03 202.114v-12.041l8.818 6.02 8.817 6.021-8.817 6.021-8.818 6.021z" fill="#d9a6c0"/><path d="m357.91 202.114v-12.041l8.817 6.02 8.818 6.021-8.818 6.021-8.817 6.021z" fill="#c4e2d2"/><path d="m375.41 202.114v-12.041l8.817 6.02 8.817 6.021-8.817 6.021-8.817 6.021z" fill="#219da4"/><path d="m249.537 94.58a1.824 1.824 0 1 1 0-3.649 1.824 1.824 0 0 1 0 3.649z" fill="#219da4"/><path d="m236.723 94.58a1.824 1.824 0 1 1 0-3.649 1.824 1.824 0 0 1 0 3.649z" fill="#c4e2d2"/><path d="m230.316 94.58a1.824 1.824 0 1 1 0-3.649 1.824 1.824 0 0 1 0 3.649z" fill="#219da4"/><path d="m217.502 94.58a1.824 1.824 0 1 1 0-3.649 1.824 1.824 0 0 1 0 3.649z" fill="#c4e2d2"/><path d="m211.095 94.58a1.824 1.824 0 1 1 0-3.649 1.824 1.824 0 0 1 0 3.649zm172.835 0a1.824 1.824 0 1 1 0-3.649 1.824 1.824 0 0 1 0 3.649z" fill="#219da4"/><path d="m371.116 94.58a1.824 1.824 0 1 1 0-3.649 1.824 1.824 0 0 1 0 3.649z" fill="#c4e2d2"/><path d="m364.709 94.58a1.824 1.824 0 1 1 0-3.649 1.824 1.824 0 0 1 0 3.649z" fill="#219da4"/><path d="m351.895 94.58a1.824 1.824 0 1 1 0-3.649 1.824 1.824 0 0 1 0 3.649zm57.663 0a1.824 1.824 0 1 1 0-3.649 1.824 1.824 0 0 1 0 3.649z" fill="#c4e2d2"/><path d="m403.151 94.58a1.824 1.824 0 1 1 0-3.649 1.824 1.824 0 0 1 0 3.649z" fill="#219da4"/><path d="m390.337 94.58a1.824 1.824 0 1 1 0-3.649 1.824 1.824 0 0 1 0 3.649z" fill="#c4e2d2"/><path d="m345.488 94.58a1.824 1.824 0 1 1 0-3.649 1.824 1.824 0 0 1 0 3.649z" fill="#219da4"/><path d="m332.674 94.58a1.824 1.824 0 1 1 0-3.649 1.824 1.824 0 0 1 0 3.649z" fill="#c4e2d2"/><path d="m326.267 94.58a1.824 1.824 0 1 1 0-3.649 1.824 1.824 0 0 1 0 3.649z" fill="#219da4"/><path d="m313.453 94.58a1.824 1.824 0 1 1 0-3.649 1.824 1.824 0 0 1 0 3.649z" fill="#c4e2d2"/><path d="m307.046 94.58a1.824 1.824 0 1 1 0-3.649 1.824 1.824 0 0 1 0 3.649z" fill="#219da4"/><path d="m294.232 94.58a1.824 1.824 0 1 1 0-3.649 1.824 1.824 0 0 1 0 3.649z" fill="#c4e2d2"/><path d="m287.825 94.58a1.824 1.824 0 1 1 0-3.649 1.824 1.824 0 0 1 0 3.649z" fill="#219da4"/><path d="m275.012 94.58a1.824 1.824 0 1 1 0-3.649 1.824 1.824 0 0 1 0 3.649z" fill="#c4e2d2"/><path d="m268.605 94.58a1.824 1.824 0 1 1 0-3.649 1.824 1.824 0 0 1 0 3.649z" fill="#219da4"/><path d="m243.13 94.58a1.824 1.824 0 1 1 0-3.649 1.824 1.824 0 0 1 0 3.649zm-19.221 0a1.824 1.824 0 1 1 0-3.649 1.824 1.824 0 0 1 0 3.649zm-19.221 0a1.824 1.824 0 1 1 0-3.649 1.824 1.824 0 0 1 0 3.649zm172.835 0a1.824 1.824 0 1 1 0-3.649 1.824 1.824 0 0 1 0 3.649zm-19.221 0a1.824 1.824 0 1 1 0-3.649 1.824 1.824 0 0 1 0 3.649zm38.442 0a1.824 1.824 0 1 1 0-3.649 1.824 1.824 0 0 1 0 3.649zm-57.663 0a1.824 1.824 0 1 1 0-3.649 1.824 1.824 0 0 1 0 3.649zm-19.221 0a1.824 1.824 0 1 1 0-3.649 1.824 1.824 0 0 1 0 3.649zm-19.221 0a1.824 1.824 0 1 1 0-3.649 1.824 1.824 0 0 1 0 3.649zm-19.22 0a1.824 1.824 0 1 1 0-3.649 1.824 1.824 0 0 1 0 3.649zm-19.221 0a1.824 1.824 0 1 1 0-3.649 1.824 1.824 0 0 1 0 3.649z" fill="#d9a6c0"/><path d="m255.791 94.58a1.824 1.824 0 1 1 0-3.649 1.824 1.824 0 0 1 0 3.649z" fill="#c4e2d2"/><path d="m37.726 94.58a1.824 1.824 0 1 1 0-3.649 1.824 1.824 0 0 1 0 3.649z" fill="#219da4"/><path d="m24.912 94.58a1.824 1.824 0 1 1 0-3.649 1.824 1.824 0 0 1 0 3.649z" fill="#c4e2d2"/><path d="m172.119 94.58a1.824 1.824 0 1 1 0-3.649 1.824 1.824 0 0 1 0 3.649z" fill="#219da4"/><path d="m159.305 94.58a1.824 1.824 0 1 1 0-3.649 1.824 1.824 0 0 1 0 3.649z" fill="#c4e2d2"/><path d="m152.898 94.58a1.824 1.824 0 1 1 0-3.649 1.824 1.824 0 0 1 0 3.649z" fill="#219da4"/><path d="m140.084 94.58a1.824 1.824 0 1 1 0-3.649 1.824 1.824 0 0 1 0 3.649zm57.663 0a1.824 1.824 0 1 1 0-3.649 1.824 1.824 0 0 1 0 3.649z" fill="#c4e2d2"/><path d="m191.34 94.58a1.824 1.824 0 1 1 0-3.649 1.824 1.824 0 0 1 0 3.649z" fill="#219da4"/><path d="m178.526 94.58a1.824 1.824 0 1 1 0-3.649 1.824 1.824 0 0 1 0 3.649z" fill="#c4e2d2"/><path d="m133.677 94.58a1.824 1.824 0 1 1 0-3.649 1.824 1.824 0 0 1 0 3.649z" fill="#219da4"/><path d="m120.863 94.58a1.824 1.824 0 1 1 0-3.649 1.824 1.824 0 0 1 0 3.649z" fill="#c4e2d2"/><path d="m114.456 94.58a1.824 1.824 0 1 1 0-3.649 1.824 1.824 0 0 1 0 3.649z" fill="#219da4"/><path d="m101.642 94.58a1.824 1.824 0 1 1 0-3.649 1.824 1.824 0 0 1 0 3.649z" fill="#c4e2d2"/><path d="m95.235 94.58a1.824 1.824 0 1 1 0-3.649 1.824 1.824 0 0 1 0 3.649z" fill="#219da4"/><path d="m82.422 94.58a1.824 1.824 0 1 1 0-3.649 1.824 1.824 0 0 1 0 3.649z" fill="#c4e2d2"/><path d="m76.015 94.58a1.824 1.824 0 1 1 0-3.649 1.824 1.824 0 0 1 0 3.649z" fill="#219da4"/><path d="m63.201 94.58a1.824 1.824 0 1 1 0-3.649 1.824 1.824 0 0 1 0 3.649z" fill="#c4e2d2"/><path d="m56.794 94.58a1.824 1.824 0 1 1 0-3.649 1.824 1.824 0 0 1 0 3.649z" fill="#219da4"/><path d="m31.319 94.58a1.824 1.824 0 1 1 0-3.649 1.824 1.824 0 0 1 0 3.649zm134.393 0a1.824 1.824 0 1 1 0-3.649 1.824 1.824 0 0 1 0 3.649zm-19.221 0a1.824 1.824 0 1 1 0-3.649 1.824 1.824 0 0 1 0 3.649zm38.442 0a1.824 1.824 0 1 1 0-3.649 1.824 1.824 0 0 1 0 3.649zm-57.663 0a1.824 1.824 0 1 1 0-3.649 1.824 1.824 0 0 1 0 3.649zm-19.221 0a1.824 1.824 0 1 1 0-3.649 1.824 1.824 0 0 1 0 3.649zm-19.22 0a1.824 1.824 0 1 1 0-3.649 1.824 1.824 0 0 1 0 3.649zm-19.221 0a1.824 1.824 0 1 1 0-3.649 1.824 1.824 0 0 1 0 3.649zm-19.221 0a1.824 1.824 0 1 1 0-3.649 1.824 1.824 0 0 1 0 3.649z" fill="#d9a6c0"/><path d="m43.98 94.58a1.824 1.824 0 1 1 0-3.649 1.824 1.824 0 0 1 0 3.649z" fill="#c4e2d2"/><path d="m262.798 71.098-7.708-9.105-11.192-.018 7.064 9.104-7.087 9.081 11.192.018z" fill="#d9a6c0"/><path d="m233.074 66.205 4.701 4.887-4.73 4.859-4.701-4.887zm.013-4.245-8.85 9.092 8.797 9.144 8.85-9.092zm45.911 4.215 4.701 4.887-4.73 4.859-4.701-4.887zm.012-4.245-8.85 9.092 8.797 9.144 8.85-9.092zm45.882 4.254 4.701 4.887-4.73 4.859-4.701-4.887zm.013-4.244-8.85 9.092 8.797 9.144 8.85-9.092z" fill="#219da4"/><path d="m354.315 71.089-7.708-9.105-11.192-.018 7.065 9.104-7.088 9.081 11.193.018z" fill="#d9a6c0"/><path d="m257.852 61.959 3.193.001 7.641 9.118-7.644 9.115h-3.192l7.45-9.116zm-20.696.002 3.192.001 7.641 9.118-7.644 9.115-3.192-.001 7.45-9.115zm-8.211 18.234-3.193-.001-7.641-9.118 7.644-9.115 3.192.001-7.45 9.115zm120.425-18.244h3.192l7.641 9.118-7.644 9.115h-3.192l7.45-9.115zm-20.377-.011 3.193.001 7.641 9.118-7.644 9.115h-3.193l7.451-9.116zm-8.693 18.255-3.193-.001-7.641-9.118 7.644-9.115h3.192l-7.45 9.116z" fill="#c4e2d2"/><path d="m294.916 71.105 7.707-9.105 11.192-.018-7.064 9.104 7.087 9.081-11.192.018z" fill="#d9a6c0"/><path d="m299.861 61.967h-3.193l-7.641 9.118 7.644 9.116 3.193-.001-7.451-9.115z" fill="#c4e2d2"/><path d="m171.54 71.08-7.707-9.105-11.192-.018 7.064 9.104-7.087 9.081 11.192.018z" fill="#d9a6c0"/><path d="m187.74 66.157 4.701 4.887-4.73 4.859-4.701-4.887zm.013-4.245-8.85 9.092 8.797 9.144 8.85-9.092z" fill="#219da4"/><path d="m166.595 61.942h3.193l7.641 9.118-7.644 9.116-3.193-.001 7.451-9.115zm-20.697.001 3.193.001 7.641 9.118-7.644 9.115h-3.192l7.45-9.116z" fill="#c4e2d2"/><path d="m203.658 71.088 7.708-9.106 11.192-.018-7.064 9.104 7.087 9.081-11.192.019z" fill="#d9a6c0"/><path d="m208.604 61.949h-3.193l-7.641 9.119 7.644 9.115 3.192-.001-7.45-9.115z" fill="#c4e2d2"/><path d="m370.435 66.175 4.701 4.887-4.73 4.859-4.701-4.887zm.012-4.245-8.85 9.092 8.797 9.144 8.85-9.092z" fill="#219da4"/><path d="m411.737 80.195-3.193-.001-7.641-9.118 7.644-9.115h3.193l-7.451 9.116z" fill="#c4e2d2"/><path d="m386.353 71.105 7.707-9.105 11.193-.018-7.065 9.104 7.088 9.081-11.193.018z" fill="#d9a6c0"/><path d="m391.298 61.967h-3.192l-7.641 9.118 7.643 9.116 3.193-.001-7.451-9.115z" fill="#c4e2d2"/></svg>