<?xml version="1.0" encoding="utf-8"?>
<!-- Generator: Adobe Illustrator 24.0.2, SVG Export Plug-In . SVG Version: 6.00 Build 0)  -->
<svg version="1.1" xmlns="http://www.w3.org/2000/svg" xmlns:xlink="http://www.w3.org/1999/xlink" x="0px" y="0px"
	 viewBox="0 0 426 233" style="enable-background:new 0 0 426 233;" xml:space="preserve">
<style type="text/css">
	.st0{fill:none;}
	.st1{fill:#FFC931;}
	.st2{fill:#E9007E;}
	.st3{fill:#C5BCDC;}
	.st4{fill:#BFE3D6;}
	.st5{fill:#F9EFF7;}
	.st6{fill:none;stroke:#3C3C3B;stroke-width:0.5159;stroke-linecap:round;stroke-linejoin:round;stroke-miterlimit:10;}
	.st7{fill:#F6B4D1;}
	.st8{fill:#FDF6EB;}
	.st9{fill:#6AC2B0;}
	.st10{fill:#F9C4D3;}
	.st11{fill:#F388A0;}
	.st12{fill:#3C3C3B;}
	.st13{fill:#FFFFFF;}
	.st14{fill:#1D1D1B;}
	.st15{fill:#575756;}
	.st16{fill:#E1B391;}
	.st17{fill:#201D1D;}
	.st18{fill:#FFF9FA;}
	.st19{fill:#FFF5DD;}
	.st20{fill:#672E16;}
	.st21{fill:#FED2A5;}
	.st22{fill:none;stroke:#C58259;stroke-width:0.1786;stroke-linecap:round;stroke-linejoin:round;stroke-miterlimit:10;}
	.st23{fill:#B96633;}
	.st24{fill:#FBEDCF;}
	.st25{fill:#C58259;}
	.st26{fill:#591D08;}
	.st27{fill:#F6B926;}
	.st28{fill:none;stroke:#3D3D3C;stroke-width:0.5159;stroke-linecap:round;stroke-linejoin:round;stroke-miterlimit:10;}
	.st29{fill:none;stroke:#C58259;stroke-width:0.1346;stroke-linecap:round;stroke-linejoin:round;stroke-miterlimit:10;}
	.st30{fill:#E4A06C;}
	.st31{opacity:0.52;}
	.st32{fill:none;stroke:#BFE3D6;stroke-width:0.6433;stroke-linecap:round;stroke-linejoin:round;stroke-miterlimit:10;}
	.st33{fill:none;stroke:#FFFFFF;stroke-width:0.6433;stroke-linecap:round;stroke-linejoin:round;stroke-miterlimit:10;}
	.st34{fill:none;stroke:#24211D;stroke-width:0.5159;stroke-linecap:round;stroke-linejoin:round;stroke-miterlimit:10;}
	.st35{fill:#FEE8D8;}
	.st36{fill:none;stroke:#201D1D;stroke-width:0.5159;stroke-linecap:round;stroke-linejoin:round;stroke-miterlimit:10;}
	.st37{fill:#E90081;}
	.st38{fill:#F8C90F;}
	.st39{fill:#A5BAE0;}
	.st40{fill:#CCE9E0;}
	.st41{fill:#ED4373;}
	.st42{fill:none;stroke:#C58259;stroke-width:0.1328;stroke-linecap:round;stroke-linejoin:round;stroke-miterlimit:10;}
	.st43{fill:#F49ABC;}
	.st44{fill:#F7D3B3;}
	.st45{fill:#8F3B1F;}
	.st46{fill:#5C3023;}
	.st47{clip-path:url(#SVGID_2_);}
	.st48{fill:#BFE8DA;}
	.st49{fill:none;stroke:#3C3C3B;stroke-width:0.3543;stroke-linecap:round;stroke-linejoin:round;stroke-miterlimit:10;}
	.st50{fill:none;stroke:#3C3C3B;stroke-width:0.369;stroke-linecap:round;stroke-linejoin:round;stroke-miterlimit:10;}
	.st51{fill:none;stroke:#3C3C3B;stroke-width:0.3848;stroke-linecap:round;stroke-linejoin:round;stroke-miterlimit:10;}
	.st52{fill:#ECCAC7;}
	.st53{fill:none;stroke:#3C3C3B;stroke-width:0.505;stroke-miterlimit:10;}
	.st54{fill:#BFE8DA;stroke:#3C3C3B;stroke-width:0.4467;stroke-miterlimit:10;}
	.st55{fill:#FFFFFF;stroke:#3C3C3B;stroke-width:0.505;stroke-miterlimit:10;}
	.st56{fill:#F37F82;}
	.st57{fill:none;stroke:#3C3C3B;stroke-width:0.3259;stroke-linecap:round;stroke-linejoin:round;stroke-miterlimit:10;}
	.st58{fill:none;stroke:#3C3C3B;stroke-width:0.3732;stroke-linecap:round;stroke-linejoin:round;stroke-miterlimit:10;}
	.st59{fill:#DDAECD;}
	.st60{fill:#EBCEE1;}
	.st61{fill:none;stroke:#3C3C3B;stroke-width:0.6042;stroke-miterlimit:10;}
	.st62{fill:none;stroke:#1D1D1B;stroke-width:0.6042;stroke-linecap:round;stroke-linejoin:round;stroke-miterlimit:10;}
	.st63{fill:#F7F0C6;}
	.st64{fill:#FAEE81;}
	.st65{fill:none;stroke:#3C3C3B;stroke-width:0.6234;stroke-miterlimit:10;}
	.st66{fill:none;stroke:#1D1D1B;stroke-width:0.6234;stroke-linecap:round;stroke-linejoin:round;stroke-miterlimit:10;}
	.st67{fill:#EECEB8;stroke:#1D1D1B;stroke-width:0.3107;stroke-linecap:round;stroke-linejoin:round;stroke-miterlimit:10;}
	.st68{fill:#C5BCDC;stroke:#1D1D1B;stroke-width:0.3107;stroke-linecap:round;stroke-linejoin:round;stroke-miterlimit:10;}
	.st69{fill:#C2498E;stroke:#1D1D1B;stroke-width:0.3107;stroke-linecap:round;stroke-linejoin:round;stroke-miterlimit:10;}
	.st70{fill:none;stroke:#3C3C3B;stroke-width:0.3019;stroke-linecap:round;stroke-linejoin:round;stroke-miterlimit:10;}
	.st71{fill:#ECCAC7;stroke:#3C3C3B;stroke-width:0.1994;stroke-linecap:round;stroke-linejoin:round;stroke-miterlimit:10;}
	.st72{fill:#F7E486;}
	.st73{fill:none;stroke:#F7F0C6;stroke-width:0.4074;stroke-linecap:round;stroke-linejoin:round;stroke-miterlimit:10;}
	.st74{fill:none;stroke:#F7E486;stroke-width:0.4074;stroke-linecap:round;stroke-linejoin:round;stroke-miterlimit:10;}
	.st75{fill:none;stroke:#1D1D1B;stroke-width:0.4525;stroke-linecap:round;stroke-linejoin:round;stroke-miterlimit:10;}
	.st76{fill:#BFE8DA;stroke:#3C3C3B;stroke-width:0.4525;stroke-linecap:round;stroke-linejoin:round;stroke-miterlimit:10;}
	.st77{fill:none;stroke:#3C3C3B;stroke-width:0.3771;stroke-linecap:round;stroke-linejoin:round;stroke-miterlimit:10;}
	.st78{fill:#C2498E;}
	.st79{fill:#C2498E;stroke:#3C3C3B;stroke-width:0.4525;stroke-linecap:round;stroke-linejoin:round;stroke-miterlimit:10;}
	.st80{fill:none;stroke:#3C3C3B;stroke-width:0.4074;stroke-linecap:round;stroke-linejoin:round;stroke-miterlimit:10;}
	.st81{fill:#EECEB8;stroke:#3C3C3B;stroke-width:0.5972;stroke-linecap:round;stroke-linejoin:round;stroke-miterlimit:10;}
	.st82{fill:#C5BCDC;stroke:#3C3C3B;stroke-width:0.5972;stroke-linecap:round;stroke-linejoin:round;stroke-miterlimit:10;}
	.st83{fill:#FFFFFF;stroke:#3C3C3B;stroke-width:0.5972;stroke-linecap:round;stroke-linejoin:round;stroke-miterlimit:10;}
	.st84{fill:#DDAECD;stroke:#3C3C3B;stroke-width:0.5972;stroke-linecap:round;stroke-linejoin:round;stroke-miterlimit:10;}
	.st85{fill:#BFE8DA;stroke:#3C3C3B;stroke-width:0.5972;stroke-linecap:round;stroke-linejoin:round;stroke-miterlimit:10;}
	.st86{fill:#C2498E;stroke:#3C3C3B;stroke-width:0.5972;stroke-linecap:round;stroke-linejoin:round;stroke-miterlimit:10;}
	.st87{fill:#F7E486;stroke:#3C3C3B;stroke-width:0.5972;stroke-linecap:round;stroke-linejoin:round;stroke-miterlimit:10;}
	.st88{fill:#7B5F95;stroke:#3C3C3B;stroke-width:0.5972;stroke-linecap:round;stroke-linejoin:round;stroke-miterlimit:10;}
	.st89{fill:#EECEB8;stroke:#3C3C3B;stroke-width:0.5839;stroke-linecap:round;stroke-linejoin:round;stroke-miterlimit:10;}
	.st90{fill:#BFE8DA;stroke:#3C3C3B;stroke-width:0.5839;stroke-linecap:round;stroke-linejoin:round;stroke-miterlimit:10;}
	.st91{fill:none;stroke:#3C3C3B;stroke-width:0.5839;stroke-linecap:round;stroke-linejoin:round;stroke-miterlimit:10;}
	.st92{fill:#C5BCDC;stroke:#3C3C3B;stroke-width:0.5839;stroke-linecap:round;stroke-linejoin:round;stroke-miterlimit:10;}
	.st93{fill:#FAEE81;stroke:#3C3C3B;stroke-width:0.5839;stroke-linecap:round;stroke-linejoin:round;stroke-miterlimit:10;}
	.st94{fill:#C2498E;stroke:#3C3C3B;stroke-width:0.5839;stroke-linecap:round;stroke-linejoin:round;stroke-miterlimit:10;}
	.st95{fill:#DDAECD;stroke:#3C3C3B;stroke-width:0.5839;stroke-linecap:round;stroke-linejoin:round;stroke-miterlimit:10;}
	.st96{fill:#F9EFF7;stroke:#3C3C3B;stroke-width:0.5972;stroke-linecap:round;stroke-linejoin:round;stroke-miterlimit:10;}
	.st97{fill:none;stroke:#3C3C3B;stroke-width:0.4285;stroke-linecap:round;stroke-linejoin:round;stroke-miterlimit:10;}
	.st98{fill:#C5BCDC;stroke:#3C3C3B;stroke-width:0.6523;stroke-linecap:round;stroke-linejoin:round;stroke-miterlimit:10;}
	.st99{fill:#FAEE81;stroke:#3C3C3B;stroke-width:0.6523;stroke-linecap:round;stroke-linejoin:round;stroke-miterlimit:10;}
	.st100{fill:#E27FB8;stroke:#3C3C3B;stroke-width:0.6523;stroke-linecap:round;stroke-linejoin:round;stroke-miterlimit:10;}
	.st101{fill:#BFE8DA;stroke:#3C3C3B;stroke-width:0.6523;stroke-linecap:round;stroke-linejoin:round;stroke-miterlimit:10;}
	.st102{fill:#FAEE81;stroke:#3C3C3B;stroke-width:0.5972;stroke-linecap:round;stroke-linejoin:round;stroke-miterlimit:10;}
	.st103{fill:none;stroke:#3C3C3B;stroke-width:0.4941;stroke-linecap:round;stroke-linejoin:round;stroke-miterlimit:10;}
	.st104{fill:none;stroke:#3C3C3B;stroke-width:0.5972;stroke-linecap:round;stroke-linejoin:round;stroke-miterlimit:10;}
	.st105{fill:#BFE8DA;stroke:#3C3C3B;stroke-width:0.4941;stroke-linecap:round;stroke-linejoin:round;stroke-miterlimit:10;}
	.st106{fill:#FAEE81;stroke:#3C3C3B;stroke-width:0.4941;stroke-linecap:round;stroke-linejoin:round;stroke-miterlimit:10;}
	.st107{fill:#BFE8DA;stroke:#3C3C3B;stroke-width:0.447;stroke-linecap:round;stroke-linejoin:round;stroke-miterlimit:10;}
	.st108{fill:none;stroke:#3C3C3B;stroke-width:0.447;stroke-linecap:round;stroke-linejoin:round;stroke-miterlimit:10;}
	.st109{fill:#FAEE81;stroke:#3C3C3B;stroke-width:0.447;stroke-linecap:round;stroke-linejoin:round;stroke-miterlimit:10;}
	.st110{fill:#FAEE81;stroke:#3C3C3B;stroke-width:0.6334;stroke-linecap:round;stroke-linejoin:round;stroke-miterlimit:10;}
	.st111{fill:#E27FB8;}
	.st112{fill:#BFE8DA;stroke:#3C3C3B;stroke-width:0.6334;stroke-linecap:round;stroke-linejoin:round;stroke-miterlimit:10;}
	.st113{fill:#F5F5F5;stroke:#3C3C3B;stroke-width:0.6194;stroke-linecap:round;stroke-linejoin:round;stroke-miterlimit:10;}
	.st114{fill:#F5F5F5;stroke:#3C3C3B;stroke-width:0.6334;stroke-linecap:round;stroke-linejoin:round;stroke-miterlimit:10;}
	.st115{fill:none;stroke:#3C3C3B;stroke-width:0.6194;stroke-linecap:round;stroke-linejoin:round;stroke-miterlimit:10;}
	.st116{fill:#FEF6F3;stroke:#3C3C3B;stroke-width:0.505;stroke-miterlimit:10;}
	.st117{fill:#FEF6F3;stroke:#3C3C3B;stroke-width:0.4285;stroke-miterlimit:10;}
	.st118{fill:#FFD0C7;}
	.st119{fill:none;stroke:#3C3C3B;stroke-width:0.5352;stroke-linecap:round;stroke-linejoin:round;stroke-miterlimit:10;}
	.st120{fill:none;stroke:#3C3C3B;stroke-width:0.4285;stroke-miterlimit:10;}
	.st121{fill:#C2498E;stroke:#3C3C3B;stroke-width:0.5251;stroke-linecap:round;stroke-linejoin:round;stroke-miterlimit:10;}
	.st122{fill:#FAEE81;stroke:#3C3C3B;stroke-width:0.6142;stroke-linecap:round;stroke-linejoin:round;stroke-miterlimit:10;}
	.st123{fill:#575756;stroke:#3C3C3B;stroke-width:0.505;stroke-miterlimit:10;}
	.st124{fill:none;stroke:#3C3C3B;stroke-width:0.6195;stroke-linecap:round;stroke-linejoin:round;stroke-miterlimit:10;}
	.st125{fill:#FFFFFF;stroke:#3C3C3B;stroke-width:0.505;stroke-linecap:round;stroke-linejoin:round;stroke-miterlimit:10;}
	.st126{clip-path:url(#SVGID_4_);}
	.st127{clip-path:url(#SVGID_6_);}
	.st128{clip-path:url(#SVGID_8_);}
	.st129{fill:none;stroke:#C58259;stroke-width:0.4054;stroke-linecap:round;stroke-linejoin:round;stroke-miterlimit:10;}
	.st130{fill:#E4BD8F;}
	.st131{fill:none;stroke:#3D3D3C;stroke-width:0.347;stroke-linecap:round;stroke-linejoin:round;stroke-miterlimit:10;}
	.st132{fill:none;stroke:#3D3D3C;stroke-width:0.2778;stroke-linecap:round;stroke-linejoin:round;stroke-miterlimit:10;}
	.st133{fill:#602F26;}
	.st134{fill:none;stroke:#C58259;stroke-width:0.1435;stroke-linecap:round;stroke-linejoin:round;stroke-miterlimit:10;}
	.st135{clip-path:url(#SVGID_10_);}
	.st136{clip-path:url(#SVGID_12_);}
	.st137{fill:none;stroke:#C58259;stroke-width:0.4058;stroke-linecap:round;stroke-linejoin:round;stroke-miterlimit:10;}
	.st138{fill:none;stroke:#3D3D3C;stroke-width:0.3473;stroke-linecap:round;stroke-linejoin:round;stroke-miterlimit:10;}
	.st139{fill:none;stroke:#3D3D3C;stroke-width:0.2781;stroke-linecap:round;stroke-linejoin:round;stroke-miterlimit:10;}
	.st140{fill:none;stroke:#C58259;stroke-width:0.1436;stroke-linecap:round;stroke-linejoin:round;stroke-miterlimit:10;}
	.st141{fill:none;stroke:#C58259;stroke-width:0.4035;stroke-linecap:round;stroke-linejoin:round;stroke-miterlimit:10;}
	.st142{fill:none;stroke:#3D3D3C;stroke-width:0.3454;stroke-linecap:round;stroke-linejoin:round;stroke-miterlimit:10;}
	.st143{fill:none;stroke:#3D3D3C;stroke-width:0.2766;stroke-linecap:round;stroke-linejoin:round;stroke-miterlimit:10;}
	.st144{fill:none;stroke:#C58259;stroke-width:0.1428;stroke-linecap:round;stroke-linejoin:round;stroke-miterlimit:10;}
	.st145{display:none;}
	.st146{display:inline;fill:none;stroke:#CC0000;stroke-width:1.2064;stroke-miterlimit:10;}
	.st147{display:inline;fill:#FFD0C7;}
	.st148{display:inline;fill:#FEF6F3;}
	.st149{display:inline;fill:#EECEB8;}
	.st150{display:inline;fill:#7B5F95;}
	.st151{display:inline;fill:#C5BCDC;}
	.st152{display:inline;fill:#DDAECD;}
	.st153{display:inline;fill:#EBCEE1;}
	.st154{display:inline;fill:#F9EFF7;}
	.st155{display:inline;fill:#FAEE81;}
	.st156{display:inline;fill:#F7F0C6;}
	.st157{display:inline;fill:#E27FB8;}
	.st158{display:inline;fill:#C2498E;}
	.st159{display:inline;fill:#F5F5F5;}
	.st160{display:inline;fill:#BFE8DA;}
	.st161{display:inline;fill:#575756;}
	.st162{display:inline;fill:#3C3C3B;}
	.st163{display:inline;fill:#6AC2B0;}
	.st164{display:inline;fill:#BFE3D6;}
	.st165{display:inline;fill:#796C96;}
	.st166{display:inline;fill:#F6B4D1;}
	.st167{display:inline;fill:#F9C4D3;}
	.st168{display:inline;fill:#F388A0;}
	.st169{display:inline;fill:#E9007E;}
	.st170{display:inline;fill:#E1B391;}
	.st171{display:inline;fill:#FED2A5;}
	.st172{display:inline;fill:#FFC931;}
	.st173{display:inline;fill:#FDF6EB;}
	.st174{display:inline;fill:#C58259;}
	.st175{display:inline;fill:#672E16;}
	.st176{display:inline;fill:#591D08;}
	.st177{display:inline;}
	.st178{fill:none;stroke:#FF0000;stroke-width:0.25;stroke-miterlimit:10;}
	.st179{fill:none;stroke:#FF0000;stroke-width:0.2683;stroke-miterlimit:10;}
</style>
<g id="Lunch">
	<g>
		<path class="st0" d="M259.03,45.88c0,0.03,0,0.06,0,0.09"/>
		<g>
			<g>
				<path class="st1" d="M99.43,194.18c0.5,0.13,0.42-0.94,0.63-1.41c0,0,6.43-14.8,23.57-9.69s11.97,21.81,11.97,21.81
					s3.05,1.2,4.29,4.43c0,0,5.19-3,11.5-1.55c0,0,8.03-30.34-22.06-40.3c-30.98-10.26-43.35,19.12-43.35,19.12s7.92,0.2,8.19,8.16
					C94.16,194.74,96.35,193.37,99.43,194.18z"/>
				<path class="st2" d="M89.53,186.99c0,0,12.17-23.22,38.67-15.29c25.14,7.52,19.69,35.13,19.69,35.13l-4.64,1.19
					c0,0,5.35-26.21-16.47-31.98c-21.82-5.77-33.37,13.6-33.37,13.6L89.53,186.99z"/>
				<path class="st3" d="M94.71,194.47c0,0,2.83-7.01,8.77-11.6c5.94-4.59,14.4-5.37,22.85-2.61c8.45,2.76,12.82,9.03,12.98,15.89
					c0.15,6.86-0.79,11.22-0.79,11.22l1.37,1.96l3.37-1.3c0,0,2.89-11.83-3.77-23.28c-6.66-11.45-22.46-10.36-22.46-10.36
					s-13.35-1.69-23.6,15.27C93.42,189.65,95.11,191.08,94.71,194.47z"/>
				<path class="st4" d="M99.44,194.55c0,0,5.73-16.55,23.69-11.6c17.96,4.95,12.46,21.95,12.46,21.95l3.35,2.83
					c0,0,3.27-9.89-0.83-18.43c-3.22-6.72-11.79-11.2-20.84-10.97c-9,0.23-16.29,3.82-22.58,16.56
					C94.69,194.88,97.07,193.73,99.44,194.55z"/>
				<path class="st5" d="M83.01,187.32c2.57-1.12,5.63-1.05,7.99,0.39c2.36,1.44,3.91,4.29,3.68,7.16c3-1.33,6.85-0.36,8.58,2.45
					c1.73,2.8,0.81,7.15-2.06,8.77c1.44,0.71,2.1,2.62,1.68,4.24c-0.42,1.62-1.75,2.89-3.27,3.49c-1.51,0.59-3.18,0.57-4.75,0.26
					c-2.16-0.43-4.39-1.61-5.08-3.77c-2.43,2.21-6.18,2.69-8.97,1.13c-2.79-1.56-4.44-5.03-3.95-8.33
					c-2.49,0.65-5.23,0.54-7.42-0.79c-2.19-1.32-3.67-4-3.23-6.63c0.45-2.7,2.82-4.8,5.39-5.4c1.27-0.29,2.58-0.27,3.84-0.02
					c0.79,0.15,3.28,1.07,3.28,1.07s1.06-1.43,1.58-2.06C81.02,188.41,82.01,187.76,83.01,187.32z"/>
				<path class="st5" d="M135.59,204.89c-3.94-1.9-9.08-0.88-12,2.38c-1.46,1.63-2.39,3.87-1.99,6.03c0.36,1.97,1.77,3.62,3.45,4.71
					c1.68,1.09,3.61,1.69,5.53,2.26c-0.26,1.26,0.31,2.54,1.02,3.61c1.28,1.94,3.17,3.59,5.44,4.06c2.27,0.47,4.92-0.5,5.93-2.59
					c0.07,1.26,1,2.35,2.12,2.92c1.12,0.57,2.41,0.7,3.67,0.73c1.38,0.03,2.8-0.06,4.07-0.61c1.27-0.55,2.38-1.62,2.67-2.97
					c0.29-1.35-0.43-2.93-1.75-3.35c1.61,0.05,2.87-1.42,3.44-2.93c1.16-3.07,0.37-6.78-1.95-9.1c-2.02-2.02-4.98-2.92-7.83-2.81
					c-1.41,0.05-2.8,0.34-4.14,0.78c-0.79,0.26-3.37,1.3-3.37,1.3s-0.96-1.32-1.37-1.96C137.82,206.26,136.76,205.45,135.59,204.89z
					"/>
				<path class="st0" d="M93.54,189.22c0,0,8.47-19.17,30.28-14.35c21.81,4.82,21.22,24.58,19.44,33.16"/>
				<path class="st0" d="M89.96,187.18c0,0,11.86-23.33,37.48-15.71c25.62,7.62,19.96,35.77,19.96,35.77"/>
			</g>
			<path class="st6" d="M76.87,195.97c0.36-0.56,1-0.9,1.66-1c0.66-0.09,1.33,0.04,1.95,0.28c0.57,0.22,1.12,0.55,1.51,1.02
				c0.39,0.47,0.61,1.12,0.48,1.72"/>
			<path class="st6" d="M89.59,200.33c0.95-0.77,2.34-0.96,3.46-0.48c1.13,0.48,1.94,1.61,2.05,2.83"/>
			<path class="st6" d="M83.9,200.54c-0.27,0.55-0.41,1.2-0.23,1.78s0.77,1.06,1.38,0.99c0.7-0.09,1.14-0.79,1.43-1.44"/>
			<path class="st6" d="M133.02,211.52c1.34,0.46,2.45,1.55,2.93,2.88c-0.98,0-1.97,0.01-2.95,0.01c0.12-0.04,0.23-0.08,0.35-0.12"
				/>
			<path class="st6" d="M148.27,215.14c0.11-0.03-0.05-0.17-0.16-0.15c-1.2,0.18-2.35,0.64-3.34,1.33c1.27,0.09,2.52,0.55,3.53,1.32
				"/>
			<path class="st6" d="M138.48,216.55c-0.25-0.19-0.62,0.04-0.75,0.32c-0.25,0.53,0,1.24,0.53,1.5s1.24,0.02,1.51-0.51
				c0,0.78,0.81,1.44,1.57,1.29s1.25-1.09,0.94-1.8"/>
			
				<ellipse transform="matrix(0.3963 -0.9181 0.9181 0.3963 -134.9492 189.7023)" class="st7" cx="76.78" cy="197.47" rx="1.29" ry="1.8"/>
			
				<ellipse transform="matrix(0.3963 -0.9181 0.9181 0.3963 -130.8133 210.5455)" class="st7" cx="94.7" cy="204.75" rx="1.29" ry="1.8"/>
			
				<ellipse transform="matrix(0.2551 -0.9669 0.9669 0.2551 -110.6742 289.0385)" class="st7" cx="132.26" cy="216.35" rx="1.29" ry="1.8"/>
			
				<ellipse transform="matrix(0.2551 -0.9669 0.9669 0.2551 -102.3821 306.5665)" class="st7" cx="147.78" cy="219.73" rx="1.29" ry="1.8"/>
		</g>
		<g>
			<g>
				<path class="st8" d="M386.51,104.26c-1.48,2.91-1.95,6.24-1.87,9.5c0.05,1.97,0.38,4.12,1.85,5.43
					c1.09,0.97,2.59,1.28,4.01,1.56c1.07,0.21,2.14,0.31,3.23,0.29c0.96-0.02,1.92-0.11,2.86-0.31c1.9-0.4,3.81-0.81,5.59-1.58
					c1.94-0.83,3.52-1.64,5.21-2.9c0.86-0.64,1.89-1.72,2.47-2.62c1.15-1.8,0.67-4.03-0.32-5.92s-2.39-3.54-4.05-4.89
					c-1.69-1.37-3.45-2.69-5.42-3.61c-2.41-1.12-5.36-1.74-7.86-0.61C389.72,99.74,387.74,101.85,386.51,104.26z"/>
				<path class="st9" d="M389.8,110.09c0.14,0.25,0.3,0.52,0.56,0.65c0.29,0.15,0.65,0.11,0.97,0.06c3.14-0.47,6.23-1.2,9.24-2.2
					c0.2-0.07,0.41-0.14,0.53-0.32c0.14-0.2,0.1-0.47,0.07-0.71c-0.37-2.41-0.75-4.82-1.12-7.24c-0.03-0.21-0.07-0.42-0.19-0.6
					c-0.11-0.16-0.28-0.27-0.45-0.36c-1.81-1.03-4-1.36-6.03-0.89c-1.93,0.44-4.87,1.99-5.32,4.15
					C387.59,104.96,388.7,108.1,389.8,110.09z"/>
				<path class="st6" d="M404.1,109.68c-1.13,0.63-2.09,1.59-2.79,2.77c1.2-0.26,2.4-0.52,3.61-0.78"/>
				<path class="st6" d="M390.25,113.69c1-0.11,2.04,0,3.01,0.33c0.39,0.13,0.79,0.31,1.03,0.66c-1.21,0.31-2.4,0.75-3.52,1.31
					c0.05-0.02,0.11-0.05,0.16-0.07"/>
				<path class="st6" d="M396.11,115.86c-0.26,0.16-0.33,0.53-0.19,0.8c0.14,0.27,0.43,0.43,0.73,0.47c0.3,0.04,0.6-0.03,0.89-0.13
					c0.44-0.15,0.92-0.48,0.85-0.93c0.5,0.52,1.39,0.41,1.98,0c0.25-0.17,0.47-0.4,0.54-0.69c0.07-0.29-0.07-0.65-0.36-0.73"/>
				
					<ellipse transform="matrix(0.9634 -0.268 0.268 0.9634 -17.123 109.2167)" class="st10" cx="391.45" cy="117.32" rx="1.57" ry="1.01"/>
				
					<ellipse transform="matrix(0.9634 -0.268 0.268 0.9634 -15.5541 112.6716)" class="st10" cx="404.89" cy="113.3" rx="1.57" ry="1.06"/>
			</g>
			<g>
				<g>
					<path class="st9" d="M402.17,130.1c-0.25,0.31,0.5,1.89,0.64,2.21c0.33,0.76,0.75,1.47,1.21,2.16c0.97,1.46,2.1,2.83,2.93,4.38
						c0.24,0.45,0.47,0.94,0.85,1.28c0.33,0.29,0.74,0.47,1.16,0.6c1.88,0.61,3.91,0.53,5.85,0.17c2.25-0.42,4.44-1.21,6.35-2.47
						c1.91-1.26,3.52-3,4.49-5.07c0.15-0.32,0.29-0.66,0.33-1.02c0.05-0.46-0.06-0.92-0.18-1.37c-1.02-3.77-2.51-7.42-4.43-10.83"/>
					<path class="st8" d="M420.78,119.02c-0.66-0.8-1.75-1.16-2.78-1.16s-2.05,0.32-3.03,0.66c-0.67,0.24-1.33,0.49-1.98,0.76
						c-3.65,1.5-7.92,3.48-10.3,6.76c-0.38,0.53-0.71,1.1-0.85,1.73c-0.29,1.3,0.41,2.8,1.84,2.92c1.77,0.15,3.57,0.14,5.27-0.35
						c0.99-0.28,1.93-0.72,2.85-1.16c2.16-1.03,4.3-2.1,6.28-3.43c1.14-0.77,2.24-1.66,2.88-2.87
						C421.59,121.68,421.65,120.08,420.78,119.02z"/>
					<path class="st11" d="M407.68,122.83c1.26-1.04,2.8-1.71,4.36-2.2c0.69-0.22,1.43-0.4,2.12-0.2c0.35,0.1,0.66,0.28,1.02,0.34
						c0.41,0.06,0.89-0.05,1.2,0.22c0.31,0.27,0.26,0.76,0.18,1.17c-0.11,0.6-0.26,1.26-0.74,1.64c-0.25,0.2-0.57,0.3-0.87,0.41
						c-0.67,0.25-1.3,0.59-1.89,1c-0.84,0.59-1.59,1.33-2.54,1.69c-0.58,0.22-1.21,0.3-1.84,0.33c-0.72,0.04-1.44,0.02-2.16-0.06
						c-0.73-0.07-1.39-0.07-1.19-0.96C405.64,124.9,406.66,123.67,407.68,122.83z"/>
					<path class="st4" d="M410.62,123.9c1.15-0.83,2.53-1.33,3.94-1.42c0.24-0.02,0.49-0.02,0.7,0.11c0.28,0.17,0.39,0.53,0.33,0.84
						c-0.06,0.32-0.25,0.59-0.48,0.82c-0.36,0.36-0.81,0.62-1.25,0.88c-0.72,0.43-1.45,0.86-2.2,1.23
						c-0.43,0.21-1.79,1.05-2.27,0.83c-0.43-0.2-0.15-1.2-0.06-1.54C409.51,124.9,410,124.35,410.62,123.9z"/>
					<path class="st6" d="M415.15,135.88c-0.01,0.31,0.21,0.59,0.49,0.72c0.28,0.13,0.6,0.14,0.91,0.09
						c0.46-0.07,0.91-0.24,1.24-0.57c0.33-0.33,0.51-0.81,0.4-1.26c-0.03-0.13-0.11-0.27-0.24-0.3"/>
					<g>
						<circle class="st12" cx="410.96" cy="136.07" r="1.55"/>
						<circle class="st13" cx="411.08" cy="135.54" r="0.65"/>
					</g>
					<g>
						<circle class="st12" cx="420.78" cy="131.55" r="1.55"/>
						<circle class="st13" cx="420.9" cy="131.02" r="0.65"/>
					</g>
				</g>
				
					<ellipse transform="matrix(0.9259 -0.3779 0.3779 0.9259 -21.7262 165.9373)" class="st10" cx="412" cy="138.33" rx="1.09" ry="0.69"/>
				
					<ellipse transform="matrix(0.8232 -0.5677 0.5677 0.8232 -1.0165 263.376)" class="st10" cx="422.4" cy="133.32" rx="1.09" ry="0.69"/>
			</g>
			<g>
				<g>
					<path class="st8" d="M375.44,140.96c-0.25-1.63,0.18-3.3,0.79-4.84c1.57-3.95,4.44-7.37,8.06-9.6c1.79-1.1,4.04-2.23,5.96-1.38
						c5.72,2.53,8.73,9.4,9.23,10.41c0.35,0.71,0.82,1.86,1.04,2.62c0.49,1.64,0.89,2.35,0.62,4.04c-0.09,0.53-0.4,2.08-2.34,3.08
						c-1.31,0.67-2.82,0.83-4.28,1c-2.84,0.33-5.71,0.66-8.56,0.47c-2.57-0.17-4.72-0.97-7.1-1.85
						C377,144.21,375.75,143.03,375.44,140.96z"/>
					<path class="st9" d="M381.67,142.59c0.11-0.19,0.24-0.39,0.44-0.49c0.25-0.13,0.56-0.1,0.84-0.07
						c4.17,0.51,8.39,0.62,12.58,0.31c-0.1,1.02-0.26,2.03-0.48,3.03c-0.06,0.28-0.12,0.58-0.28,0.82c-0.07,0.11-1.47,0.1-2.28,0.19
						c-5.68,0.62-7.85,0.2-11.73-0.84c0.59,0.16,0.36-0.91,0.38-1.16C381.18,143.75,381.37,143.14,381.67,142.59z"/>
				</g>
				<g>
					<circle class="st14" cx="382.4" cy="136.08" r="1.27"/>
					<circle class="st14" cx="393.83" cy="136.56" r="1.27"/>
					<circle class="st13" cx="382.63" cy="135.73" r="0.6"/>
					<circle class="st13" cx="394.03" cy="136.22" r="0.6"/>
				</g>
				
					<ellipse transform="matrix(0.0427 -0.9991 0.9991 0.0427 226.9924 513.7377)" class="st10" cx="381.57" cy="138.42" rx="0.98" ry="1.52"/>
				
					<ellipse transform="matrix(0.0427 -0.9991 0.9991 0.0427 239.6932 527.6312)" class="st10" cx="395.17" cy="138.74" rx="1.03" ry="1.52"/>
				<path class="st6" d="M386.28,137.8c0.09,0.43,0.47,0.77,0.91,0.82s0.84-0.2,1.03-0.59c0.06,0.21,0.17,0.42,0.35,0.53
					c0.25,0.15,0.55,0.23,0.84,0.16c0.28-0.07,0.54-0.35,0.62-0.63"/>
			</g>
		</g>
		<g>
			<path class="st5" d="M332.6,172.45c0.38-1.46,4.97-10.68,3.41-17.33s-15.38-11.28-20.41-13.08
				c-12.13-4.34-17.41-13.31-18.45-21.74l-1.17-9.41c0,0,3.97-2.13,3.93-7.07c0,0-3.83-1.23-7.28,2.12c0,0-3.19-3.18-6.49-3.3
				c0,0,0.06-5-3.39-7.18c0,0-4.05,3.61-3.31,7.02c0,0-7.96,2.5-12.09,5.73c-4.09,3.19-6.49,9.07-1.49,12.17
				c4.99,3.1,14.04,2.09,14.04,2.09s-2.94,11.89-1.43,17.92c0,0-12.61,3.24-20.26,9.26c0,0-0.36,1.8,0.98,2.63
				c0,0,14.82-3.23,19.22-3.18c0,0,2.22,0.48,0.95,1.89c0,0-10.36,4.2-15.93,8.51c0,0-1.24,2.52,1.22,2.9c0,0,12.55-4.24,19.08-4.74
				c0,0,18.22,14.51,31.71,18.49c0,0,10.39,16.01,13.77,19.37c0,0,1.77,0.61,2.6-0.97c0,0-8.46-17.31-7.66-18.57
				c0.8-1.26,2.99-0.18,4.53,2.24c1.54,2.43,8.71,15.94,8.71,15.94s1.53,0.71,2.27-0.9C339.66,193.26,332.21,173.91,332.6,172.45z"
				/>
			<path class="st6" d="M271.61,106.4c0.15,1.54,1.63,2.82,3.18,2.75c0.6-0.03,1.23-0.27,1.53-0.79"/>
			<path class="st6" d="M280.92,110.45c0.17,1.1,0.87,2.13,1.88,2.6s2.31,0.33,3.12-0.44"/>
			<path class="st6" d="M265.16,115.07c0.17-0.37,0.61-0.59,1.01-0.5s0.7,0.49,0.68,0.89"/>
			<path class="st6" d="M271.09,117.76c-0.01,0.06-0.12,0.03-0.12-0.03s0.06-0.11,0.12-0.14c0.35-0.17,0.79-0.13,1.1,0.1
				c0.31,0.23,0.48,0.64,0.41,1.03"/>
			<path class="st3" d="M340.03,157.92c1.15,0.05,2.14-0.83,2.96-1.64s1.49-1.76,2.32-2.55c1.88-1.8,4.55-2.73,7.14-2.5
				c2.09,0.18,4.08,1.09,5.71,2.41c0.73,0.59,1.41,1.28,1.84,2.11c0.45,0.86,0.62,1.84,0.93,2.77c1.04,3.13,3.78,5.64,6.99,6.41
				c3.21,0.77,6.79-0.24,9.13-2.56c-1.34,2.95-4.01,5.66-7.18,6.34c-2.86,0.62-5.08-0.08-5.08-0.08c1.14,1.71,2.72,3.12,4.54,4.06
				c-2.46,2.26-5.04,3.44-7.65,3.04c0.34,0.76,0.94,1.4,1.68,1.77c-1.2,1.35-2.91,2.36-4.72,2.32c-0.94-0.02-1.86-0.31-2.72-0.69
				c-3.8-1.71-6.63-5.43-7.26-9.54c-0.22-1.45-0.19-2.95-0.73-4.32c-0.99-2.54-3.84-4.05-6.56-3.99c-1.01,0.02-2.03,0.22-3.04,0.11
				s-1.78-0.43-2.13-1.39c0,0,0.09-2.3-0.04-3.89C336.18,156.05,337.9,157.83,340.03,157.92z"/>
			<path class="st1" d="M315.02,141.65c2.32-1.75,3.34-4.7,4.23-7.47c-0.6,0.93-1.8,1.33-2.91,1.23c-1.1-0.1-2.12-0.63-3.04-1.23
				c1.74-1.29,3.12-3.07,3.94-5.09c-2.54,1.63-6.22,1.19-8.31-1c1.22,0.27,2.52-0.31,3.38-1.21c0.87-0.9,1.37-2.09,1.74-3.29
				c-2.82,0.46-5.83-0.42-7.94-2.33c-0.06-0.06,1.84-0.05,3.02-0.86c1.64-1.14,2.73-2.96,2.97-3.95c-0.46,0.63-1.36,0.72-2.13,0.62
				c-1.73-0.21-3.37-1.07-4.52-2.37c-1.07-1.2-1.71-2.72-2.58-4.08c-0.87-1.36-2.12-2.63-3.72-2.85c0,0-1.31,2.25-3.17,3.12
				l1.22,9.82c0,0,0.21,7.24,6.54,13.78C310.07,141.04,315.02,141.65,315.02,141.65z"/>
			<path class="st1" d="M285.76,99.96l5.91-13.5c0,0,0.71-0.62,0.81,0.32c0.09,0.94,0.84,18.55,0.84,18.55l-0.69,0.6
				c0,0-3.38-3.46-6.49-3.3C286.14,102.64,286.22,101.32,285.76,99.96z"/>
			<path class="st2" d="M299.33,115.14c0.81,0.35,1.63,0.7,2.35,1.21c0.64,0.45,1.18,1.02,1.76,1.54c1.03,0.92,2.2,1.68,3.46,2.26
				c0.5,0.23,1.03,0.44,1.58,0.4c1.1-0.08,1.87-1.08,2.48-1.99c0.28-0.41,0.56-0.83,0.67-1.31c-0.92-0.1-1.83-0.28-2.72-0.54
				c-0.46-0.13-0.92-0.29-1.34-0.51c-0.51-0.27-0.96-0.65-1.4-1.02c-0.61-0.51-1.23-1.03-1.61-1.73c-0.3-0.53-0.44-1.13-0.68-1.69
				c-0.78-1.77-2.5-2.91-4.13-3.95c-0.1-0.06-0.21-0.13-0.33-0.12c-0.12,0.01-0.22,0.1-0.31,0.19c-0.94,0.91-1.88,1.83-2.82,2.74
				c-0.08,0.08-0.17,0.17-0.19,0.28c-0.02,0.07,0,0.15,0.01,0.22c0.1,0.6,0.2,1.2,0.3,1.8c0.07,0.4,0.04,1.13,0.32,1.45
				c0.27,0.31,0.79,0.21,1.16,0.28C298.38,114.74,298.85,114.95,299.33,115.14z"/>
			<path class="st3" d="M301.26,122.76c1.06,0.91,1.89,2.05,2.84,3.07c0.3,0.33,0.62,0.65,0.99,0.91c0.88,0.63,1.97,0.88,3.03,1.1
				c0.53,0.11,1.06,0.22,1.6,0.18c1.08-0.08,2.06-0.75,2.74-1.6s1.12-1.86,1.55-2.86c-0.51,0.41-1.25,0.32-1.9,0.21
				c-1.13-0.2-2.27-0.41-3.34-0.81c-1.07-0.4-2.1-1.01-2.83-1.89c0.69-0.27,1.63,0.09,2.14-0.45c-1.2-0.29-2.32-0.88-3.24-1.71
				c-0.51-0.46-0.95-0.99-1.44-1.47c-1.77-1.73-4.2-2.78-6.67-2.88c-0.11,0-0.23,0-0.31,0.07c-0.08,0.07-0.09,0.18-0.1,0.28
				c-0.14,1.78,0.49,3.72,0.86,5.44c0.19,0.86,0.66,0.89,1.44,1.05C299.61,121.6,300.5,122.11,301.26,122.76z"/>
			<path class="st4" d="M300.92,130.99c1.43-0.22,2.66,0.63,3.9,1.37c1.39,0.83,2.84,1.59,4.42,1.94c1.58,0.34,3.31,0.23,4.69-0.61
				c1.71-1.04,2.62-2.97,3.43-4.79c-1.22,1.01-2.9,1.37-4.46,1.11c-1.56-0.26-2.87-0.77-3.97-1.91c-2.23-0.18-4.41-1.56-5.93-3.21
				c-0.45-0.49-0.85-1.03-1.32-1.5c-1.22-1.22-2.64-1.92-4.36-1.93c0.46,3.07,0.85,4.61,2,6.87
				C299.85,129.37,300.41,130.25,300.92,130.99z"/>
		</g>
		<g>
			<path class="st15" d="M208.03,72.13c0,0-2.74-1.09-4.34-3.8c-1.47-2.48-1.72-5.57-1.04-8.38c0.98-3.98,3.95-7.51,7.85-8.76
				s8.6,0.06,10.98,3.39c1.32,1.84,1.88,4.11,1.96,6.38C223.44,60.96,213.35,63.16,208.03,72.13z"/>
			<path class="st15" d="M262.77,84.01c0,0,3.41,0.07,5.95-1.78c2.33-1.7,3.79-4.44,4.26-7.28c0.68-4.04-0.66-8.46-3.75-11.15
				c-3.09-2.69-7.92-3.35-11.43-1.23c-1.93,1.17-3.35,3.03-4.32,5.09C253.48,67.65,261.42,73.67,262.77,84.01z"/>
			<path class="st10" d="M209.43,66.35c-0.16-0.57-0.3-1.16-0.25-1.75c0.11-1.21,0.98-2.2,1.91-2.98c1.11-0.94,2.43-1.74,3.88-1.79
				c1.45-0.05,3.01,0.89,3.24,2.32c0.03,0.17,0.04,0.36-0.04,0.51c-0.07,0.15-0.22,0.26-0.36,0.36c-1.3,0.93-2.58,1.88-3.83,2.87
				c-1.07,0.83-2.39,2.4-3.63,2.85C209.89,68.07,209.66,67.12,209.43,66.35z"/>
			<path class="st10" d="M259.48,69.97c1.44-0.75,3.22-0.13,4.57,0.78c0.65,0.44,1.27,0.97,1.67,1.64c0.72,1.18,0.7,2.73,0.1,3.97
				c-0.59,1.25-1.71,2.2-2.97,2.77c-0.31,0.14-0.68,0.25-0.97,0.07c-0.22-0.14-0.31-0.41-0.39-0.66c-0.55-1.7-1.34-3.32-2.34-4.8
				C258.12,72.2,257.34,71.09,259.48,69.97z"/>
			<path class="st8" d="M224.37,60.34c0,0,16.35-5.46,29.08,6.72c12.74,12.17,11.22,25.99,7.03,33.62s-13.91,9.66-24.35,8.77
				c-10.45-0.89-20.51-4.36-25.92-8.86c-5.4-4.51-7.6-9.15-7.25-17.06S213.33,63.56,224.37,60.34z"/>
			
				<ellipse transform="matrix(0.1663 -0.9861 0.9861 0.1663 108.7431 328.0417)" class="st10" cx="248.37" cy="99.71" rx="2.71" ry="3.6"/>
			
				<ellipse transform="matrix(0.1663 -0.9861 0.9861 0.1663 86.8625 291.1017)" class="st10" cx="215.59" cy="94.18" rx="2.71" ry="3.6"/>
			<path class="st6" d="M226.93,94.53c-0.28,0.95,0.38,1.99,1.29,2.41c1.35,0.62,3.14-0.02,3.78-1.36c-0.2,1,0.71,1.9,1.66,2.27
				c0.73,0.28,1.56,0.37,2.29,0.11c0.73-0.27,1.34-0.94,1.39-1.72"/>
			<path class="st15" d="M234.37,92.95c-0.12,0.71-1.07,1.5-2.06,1.33s-1.63-1.23-1.51-1.93c0.12-0.71,1.01-1.15,2-0.98
				S234.49,92.25,234.37,92.95z"/>
			<g>
				<path class="st15" d="M214.04,82.03c0,0,1.85-3.26,6.93-3.48s6.56,2.67,7.05,4.54c0.49,1.87-0.33,6.73-5.39,8.38
					c-5.06,1.65-8.6-0.91-9.68-2.97C211.87,86.44,213.1,83.3,214.04,82.03z"/>
				<circle class="st13" cx="223.48" cy="83.21" r="1.92"/>
			</g>
			<g>
				<path class="st15" d="M253.38,88.78c0,0-0.67-3.69-5.41-5.56s-7.08,0.37-8.15,1.98s-1.9,6.47,2.34,9.69s8.43,1.96,10.12,0.37
					C253.98,93.66,253.85,90.29,253.38,88.78z"/>
				<circle class="st13" cx="244.15" cy="86.7" r="1.92"/>
			</g>
			<path class="st0" d="M224.37,60.34c0,0,16.35-5.46,29.08,6.72c12.74,12.17,11.22,25.99,7.03,33.62s-13.91,9.66-24.35,8.77
				c-10.45-0.89-20.51-4.36-25.92-8.86c-5.4-4.51-7.6-9.15-7.25-17.06S213.33,63.56,224.37,60.34z"/>
			<path class="st8" d="M245.97,61.95c-0.05-1.06-0.29-2.12-0.71-3.09c-0.25-0.58-0.59-1.16-1.14-1.47
				c-1.01-0.58-2.5,0.18-2.63,1.33c-0.77-1.54-2.67-2.35-4.36-2.01c-0.49,0.1-0.97,0.29-1.34,0.63c-0.48,0.46-0.7,1.17-0.55,1.81
				s0.64,1.2,1.27,1.41c-0.43-0.29-1.03-0.26-1.49-0.02s-0.8,0.67-1.04,1.13c-0.35,0.65-0.52,1.46-0.22,2.13
				c0.29,0.66,0.97,1.06,1.66,1.27c0.75,0.23,1.55,0.27,2.32,0.12"/>
		</g>
		<g>
			<g>
				<g>
					<path class="st16" d="M149.25,139.5c-0.21,0.96-0.41,1.98-0.1,2.91c0.38,1.12,1.42,1.89,2.5,2.38
						c1.08,0.49,2.33,0.78,3.47,0.41c1.4-0.45,2.32-1.79,2.97-3.11c1.39-2.82,2.03-5.91,2.65-8.96c0.63-3.08,1.98-6.25,2.43-9.28
						c-2.1-0.54-4.4-1.02-6.57-1.38c-0.71-0.12-2.5-0.78-3.1-0.28c-1.55,1.29-1.65,5.7-2.06,7.54c-0.72,3.22-1.44,6.44-2.17,9.66
						C149.27,139.43,149.26,139.47,149.25,139.5z"/>
					<path class="st1" d="M140.23,114.2c-0.21,1-0.41,2.07,0,3.01c0.33,0.78,1.03,1.33,1.73,1.8c3.42,2.29,7.54,3.24,11.59,4.04
						c5.93,1.16,11.92,2.08,17.93,2.75c2.12,0.23,4.59,0.3,5.98-1.31c0.77-0.89,1.01-2.11,1.23-3.27
						c1.14-6.18,2.28-12.36,3.42-18.54c1.14-6.19,2.29-12.42,2.28-18.72c0-1.54-0.08-3.12-0.72-4.52c-0.65-1.42-1.82-2.54-3.09-3.44
						c-4.35-3.09-9.93-3.93-15.26-3.82c-3.26,0.07-6.56,0.47-9.61,1.62c-2.71,1.02-6.83,3.22-7.86,6.17
						c-0.38,1.08-0.08,2.28-0.25,3.41c-0.31,2.03-1.08,4.08-1.6,6.07C143.87,97.66,141.95,105.91,140.23,114.2z"/>
					<path class="st7" d="M149.94,72.69c0.41-0.97,0.86-1.92,1.34-2.82c3.63-6.82,11.1-9.94,18.1-8.83c1.7,0.27,3.42,0.89,5.03,1.52
						c3.53,1.38,7.13,3.19,9.46,6.46c1.9,2.66,2.76,6.09,2.72,9.48s-0.94,6.74-2.28,9.84c-0.16,0.36-0.33,0.73-0.6,1
						c-0.84,0.83-2.3,0.29-2.84-0.76s-0.4-2.36-0.13-3.55c0.2-0.91,0.46-1.92,0.04-2.73c-0.66-1.3-2.61-1.06-3.59,0.02
						c-0.98,1.08-1.3,2.63-1.76,4.05c-0.43,1.34-1.02,2.63-1.75,3.83c-0.74,1.21-2.06,2.45-3.25,1.84c-0.55-0.28-0.88-0.9-1.1-1.52
						c-0.78-2.28-0.35-4.86,0.31-7.21c0.49-1.74,1.05-3.79,0.02-5.18c-0.72-0.97-2.04-1.24-3.17-0.9c-1.13,0.34-2.07,1.19-2.83,2.15
						c-0.82,1.04-1.66,2.35-2.92,2.41c-1.72,0.08-2.56-2.17-3.99-3.18c-1.49-1.06-3.78-0.49-4.73,1.18
						c-0.8,1.39-0.76,3.19-1.51,4.63c-0.5,0.97-1.28,1.15-2.1,0.5c-0.51-0.4-0.88-0.98-1.05-1.63c-0.22-0.86-0.09-1.78,0.09-2.66
						C148.02,77.98,148.86,75.24,149.94,72.69z"/>
				</g>
				<g>
					<g>
						<path class="st17" d="M151.19,96.69c0.95,0.31,1.88,0.87,2.67,1.49c0.66,0.52,1.68,1.41,1.43,2.34
							c0.14-0.08,0.27-0.16,0.41-0.23c-1.62-0.48-3.24-0.85-4.93-0.57c-0.42,0.07-0.24,0.72,0.18,0.65
							c1.57-0.26,3.08,0.13,4.57,0.57c0.17,0.05,0.37-0.06,0.41-0.23c0.24-0.89-0.29-1.72-0.88-2.34c-0.7-0.73-1.57-1.3-2.46-1.77
							c-0.4-0.21-0.81-0.4-1.23-0.54C150.96,95.91,150.79,96.56,151.19,96.69L151.19,96.69z"/>
					</g>
				</g>
				<g>
					<path class="st18" d="M164.96,106.18c-0.35,1.36-0.86,2.39-1.63,3.57c-0.28,0.42-0.58,0.83-0.99,1.12s-0.94,0.45-1.42,0.33
						c-0.79-0.21-1.22-1.06-1.43-1.86c-0.44-1.66-0.38-3.46,0.16-5.09c1.24,0.44,2.56,0.76,3.84,1.05c0.54,0.12,1.08,0.23,1.63,0.29
						C165.13,105.69,165.02,105.9,164.96,106.18z"/>
				</g>
				<g>
					<g>
						<path class="st17" d="M175.87,101.81c-1.14-0.24-2.38-0.21-3.53-0.03c-1.07,0.17-2.44,0.59-2.76,1.77
							c-0.05,0.17,0.06,0.37,0.23,0.41c1.52,0.36,3.03,0.78,4.26,1.79c0.33,0.27,0.81-0.2,0.47-0.47c-1.33-1.09-2.91-1.57-4.55-1.96
							c0.08,0.14,0.16,0.27,0.23,0.41c0.26-0.95,1.59-1.2,2.42-1.32c0.99-0.14,2.06-0.16,3.04,0.05
							C176.11,102.55,176.29,101.9,175.87,101.81L175.87,101.81z"/>
					</g>
				</g>
				<path class="st11" d="M185.82,80.68c-0.73,0.44-1.4,0.82-2.4,0.49c-1.32-0.43-2.09-1.78-3.26-2.53c-1.09-0.7-2.54-0.82-3.73-0.3
					c-0.85,0.37-1.75,1.06-2.61,0.7c-0.98-0.41-0.99-1.74-1.2-2.78c-0.26-1.29-1.08-2.46-2.2-3.14c-1.13-0.68-2.54-0.86-3.8-0.49
					c-1.67,0.49-2.94,1.86-3.95,3.29c-0.64,0.91-1.22,1.87-2.06,2.6c-0.14,0.12-0.29,0.24-0.48,0.28c-0.27,0.06-0.54-0.06-0.77-0.21
					c-0.81-0.55-1.25-1.52-2.02-2.13c-1.38-1.1-3.52-0.7-4.86,0.45c-1.34,1.15-2.05,2.85-2.63,4.52c-0.16,0.46-0.32,0.93-0.62,1.31
					c-0.31,0.38-0.8,0.64-1.28,0.53c-0.33-0.08-0.46-0.43-0.69-0.61c0.02,0.55,0.22,1.23,0.49,1.7c0.16,0.29,0.35,0.57,0.6,0.78
					c0.26,0.21,0.6,0.34,0.92,0.28c1.08-0.21,1.86-1.65,2.17-2.56c0.37-1.11,0.63-2.29,1.32-3.24c0.69-0.95,1.98-1.6,3.05-1.11
					c1.11,0.5,1.45,1.89,2.27,2.79c0.91,0.99,2.49,1.29,3.7,0.7c1.18-0.58,1.87-1.81,2.72-2.82c0.85-1.01,2.21-1.87,3.43-1.36
					c0.73,0.31,1.2,1.07,1.36,1.85c0.16,0.78,0.08,1.59-0.01,2.38c-0.19,1.73-0.39,3.45-0.58,5.18c-0.1,0.89-0.2,1.81-0.01,2.68
					s0.73,1.73,1.57,2.06c0.75,0.29,1.63,0.12,2.32-0.29c0.69-0.41,1.24-1.04,1.73-1.68c0.78-1.02,1.47-2.11,2.05-3.26
					c0.69-1.35,1.25-2.81,2.28-3.92c0.21-0.22,0.51-0.44,0.79-0.32c0.29,0.13,0.31,0.53,0.27,0.84c-0.11,1-0.34,1.98-0.39,2.98
					c-0.04,1,0.12,2.06,0.72,2.86c0.6,0.81,1.71,1.28,2.65,0.92c1.49-0.57,2.17-2.48,2.62-3.86c0.35-1.06,0.58-2.16,0.77-3.27
					c0.1-0.57,0.17-1.15,0.26-1.72c0.02-0.09,0.23-1.05-0.01-0.92C186.17,80.47,185.99,80.58,185.82,80.68z"/>
				<path class="st10" d="M154.66,70.22c-0.09,0.4-0.15,0.83-0.04,1.22c0.32,1.14,1.87,1.46,2.97,1.02c1.1-0.43,1.93-1.35,2.93-1.99
					c1.24-0.79,2.75-1.15,4.21-0.98c0.76,0.08,1.56,0.29,2.25-0.03c0.6-0.28,0.96-0.91,1.23-1.52c2.05-4.75-2.31-5.81-6.02-5.08
					C158.55,63.57,155.44,66.6,154.66,70.22z"/>
			</g>
			<path class="st9" d="M180.34,69.43c0,0.1,0.01,0.2,0.05,0.28c0.04,0.09,0.13,0.16,0.22,0.15c0.11-0.25,0.6-1.62,0.25-1.78
				C180.38,67.88,180.33,69.23,180.34,69.43z"/>
			<path class="st9" d="M183.97,75.24c0.09-0.03,0.21-0.05,0.28,0.02c0.03,0.11-0.02,0.23-0.1,0.32c-0.08,0.08-0.19,0.13-0.3,0.18
				c-0.23,0.11-0.81,0.51-0.86,0.04C182.95,75.39,183.7,75.32,183.97,75.24z"/>
			<path class="st2" d="M177.98,74.39c0.26,0.02,0.52,0.01,0.78-0.03c0.15-0.03,0.31-0.06,0.46-0.1c0.14-0.03,0.25-0.13,0.26-0.28
				c0.01-0.13-0.07-0.25-0.18-0.31c-0.15-0.08-0.34-0.04-0.5,0c-0.21,0.05-0.42,0.12-0.62,0.19c-0.1,0.04-0.2,0.07-0.3,0.11
				c-0.07,0.03-0.18,0.06-0.21,0.14C177.62,74.26,177.84,74.38,177.98,74.39z"/>
			<path class="st9" d="M171.38,69.31c0.12-0.08,0.53-0.19,0.57-0.06c0.2,0.6-0.61,0.97-1.18,1.1c-0.31,0.07-0.47-0.09-0.32-0.4
				C170.6,69.65,171.12,69.48,171.38,69.31z"/>
			<path class="st9" d="M158.21,69.3c-0.22,0.13-0.18,0.45-0.12,0.7c0.07,0.27,0.48,1.77,0.85,1.08
				C159.19,70.64,158.48,69.63,158.21,69.3z"/>
			<path class="st9" d="M152.46,73.76c0.11,0.02,0.27,0.07,0.25,0.18c-0.03,0.15-0.21,0.23-0.36,0.27c-0.15,0.03-0.31,0.02-0.46,0
				c-0.25-0.03-1.43-0.17-1.23-0.57C150.82,73.3,152.16,73.71,152.46,73.76z"/>
			<path class="st9" d="M174.46,84.1c0.06,0.08,0.13,0.17,0.15,0.27s0,0.22-0.09,0.28c-0.26,0.16-1.77-1.38-1.57-1.65
				C173.27,82.55,174.34,83.94,174.46,84.1z"/>
			<path class="st19" d="M184.21,80.58c-0.57,0.13-1.1,0.42-1.51,0.84c0.06,0.16,0.25,0.23,0.42,0.21s0.32-0.11,0.46-0.21
				c0.19-0.12,0.38-0.24,0.57-0.36c0.08-0.05,0.17-0.11,0.2-0.2c0.04-0.09-0.01-0.22-0.11-0.22"/>
			<path class="st19" d="M159.91,75.88c0.02-0.23,0.05-0.46,0.07-0.69c0.01-0.12,0.03-0.25,0.1-0.34c0.08-0.09,0.24-0.13,0.36-0.05
				c0.14,0.09,0.14,0.26,0.12,0.39c-0.06,0.41,0.02,0.94-0.31,1.18C160.09,76.5,159.88,76.38,159.91,75.88"/>
			<path class="st19" d="M168.93,63.17c-0.11,0.04-0.23,0.08-0.31,0.16c-0.08,0.08-0.13,0.22-0.07,0.32
				c0.09,0.15,0.31,0.13,0.48,0.09c0.25-0.06,1.15-0.24,1.1-0.63C170.07,62.68,169.15,63.1,168.93,63.17z"/>
			<path class="st19" d="M149.25,83.98c-0.18,0.05-0.37,0.1-0.52,0.23c-0.05,0.05-0.1,0.1-0.12,0.18c-0.02,0.08,0.01,0.18,0.07,0.22
				c0.05,0.04,0.11,0.03,0.17,0.02c0.34-0.05,0.67-0.13,1-0.21c0.14-0.04,0.3-0.09,0.38-0.24C150.6,83.52,149.38,83.95,149.25,83.98
				z"/>
			<path class="st19" d="M173.14,78.2c0.15-0.23,0.28-0.47,0.37-0.73c0.08-0.22,0.14-0.49,0.01-0.68c-0.03-0.05-0.08-0.09-0.14-0.11
				c-0.16-0.05-0.3,0.12-0.37,0.28c-0.15,0.32-0.25,0.66-0.31,1.01c-0.02,0.09-0.03,0.18-0.01,0.27s0.09,0.17,0.18,0.18
				S173.04,78.33,173.14,78.2"/>
			<path class="st2" d="M164.27,67.74c-0.04,0.08-0.09,0.16-0.1,0.25c-0.01,0.09,0.02,0.19,0.1,0.24c0.15,0.09,0.32-0.07,0.43-0.21
				c0.19-0.27,0.38-0.54,0.47-0.85c0.03-0.11,0.04-0.24-0.01-0.34C164.86,66.33,164.36,67.58,164.27,67.74z"/>
			<path class="st2" d="M155.44,65.64c-0.02,0-0.04,0-0.06,0.01c-0.04,0.02-0.05,0.09-0.03,0.13s0.06,0.07,0.11,0.1
				c0.29,0.19,0.59,0.36,0.9,0.51c0.38,0.18,0.67-0.15,0.38-0.45C156.47,65.67,155.77,65.63,155.44,65.64z"/>
			<path class="st2" d="M170.89,87.66c0.02-0.05,0.04-0.11,0.09-0.13c0.07-0.04,0.16,0,0.2,0.06c0.04,0.06,0.05,0.14,0.06,0.22
				c0.03,0.45-0.06,0.9-0.15,1.34c-0.11,0.55-0.45,0.29-0.45-0.13C170.64,88.56,170.73,88.09,170.89,87.66z"/>
			<path class="st2" d="M183.1,86.46c0.26-0.15,0.59-0.3,0.85-0.14c-0.01,0.17-0.1,0.34-0.23,0.45c-0.13,0.11-0.29,0.19-0.45,0.25
				c-0.19,0.08-0.92,0.42-0.93,0.02C182.33,86.79,182.93,86.56,183.1,86.46z"/>
			<path class="st20" d="M169.02,74.84c-0.27-0.28-0.57-0.54-0.89-0.77c-0.02-0.02-0.05-0.03-0.07-0.03c-0.04,0-0.07,0.02-0.09,0.05
				c-0.1,0.12-0.1,0.29-0.04,0.44s0.17,0.25,0.29,0.35c0.23,0.2,0.45,0.58,0.76,0.54C169.23,75.38,169.21,75.02,169.02,74.84"/>
			<path class="st20" d="M152.38,76.8c-0.09,0.22-0.17,0.46-0.21,0.7c-0.02,0.12-0.04,0.24-0.01,0.35c0.03,0.11,0.12,0.28,0.23,0.25
				c0.33-0.11,0.37-0.61,0.39-0.96c0.01-0.19-0.03-0.51-0.21-0.49C152.47,76.66,152.41,76.72,152.38,76.8"/>
			<path class="st20" d="M161.34,62.49c0.1,0.34,0.67,0,1.01-0.1c0.14-0.04,0.28-0.09,0.37-0.2
				C163.42,61.31,161.23,62.13,161.34,62.49z"/>
			<path class="st20" d="M176.95,65.57c-0.19-0.49-0.51-0.9-0.92-1.17c-0.1,0.11-0.09,0.28-0.06,0.42c0.12,0.53,0.36,1.01,0.69,1.38
				c0.05,0.06,0.11,0.11,0.19,0.1c0.08-0.02,0.14-0.1,0.17-0.18c0.12-0.29,0.04-0.63-0.17-0.79"/>
		</g>
		<g>
			<g>
				<path class="st21" d="M47.19,176.85c-3.4-3.06-6.92-6.11-10.62-8.88l-0.15-0.07c-4.54-0.91-9.15-1.48-13.7-1.97
					c-3.16-0.34-3.08,0.31-3.7,3.32c-0.54,2.64-1.06,5.27-1.57,7.92c-0.99,5.2-1.92,10.41-2.77,15.63
					c-0.96,5.84-1.83,11.7-2.61,17.56c-0.18,1.35-0.35,2.73-0.05,4.06c0.3,1.3,1.16,2.55,2.43,2.95c1.15,0.67,2.65,0.48,3.82-0.17
					c1.19-0.66,2.11-1.71,2.99-2.75c3.84-4.5,7.61-9.06,11.32-13.68c3.31-4.13,6.57-8.3,9.77-12.51c1.63-2.14,3.24-4.29,4.84-6.46
					C49.02,179.35,49.55,178.98,47.19,176.85z"/>
				<path class="st22" d="M16.86,180.29c9.13,0.18,18.03,0.36,27.16,0.54"/>
				<path class="st22" d="M15.35,188.75c8.74,0.23,17.48,0.32,26.22,0.29"/>
				<path class="st22" d="M14.21,196.6c7,0.51,14.01,0.81,21.02,0.89"/>
				<path class="st22" d="M12.93,204.82c5.24,0.38,10.49,0.59,15.74,0.62"/>
				<path class="st22" d="M11.8,213.44c3.28,0.29,6.58,0.45,9.88,0.47"/>
				<path class="st22" d="M18.81,171.57c2.37-0.01,4.74,0.09,7.1,0.32"/>
				<path class="st22" d="M13.03,204.59c2.02,3.87,3.92,7.81,5.7,11.8"/>
				<path class="st22" d="M14.62,193.13c2.65,5.61,6.84,11.3,9.33,16.98"/>
				<path class="st22" d="M16.58,181.83c5.51,6.12,10.75,13.43,14.62,20.7"/>
				<path class="st22" d="M18.93,171.63c5.56,8.32,12.06,15.66,17.55,24.03"/>
				<path class="st22" d="M33.91,178.26c0.5,0.39,0.92,0.88,1.32,1.37c2.33,2.83,4.25,6.41,6.35,9.42"/>
				<path class="st22" d="M46.24,180.79c0.37,0.46,0.63,0.53,0.95,1.03"/>
				<path class="st0" d="M47.19,176.85c-3.4-3.06-6.92-6.11-10.62-8.88l-0.15-0.07c-4.54-0.91-9.15-1.48-13.7-1.97
					c-3.16-0.34-3.08,0.31-3.7,3.32c-0.54,2.64-1.06,5.27-1.57,7.92c-0.99,5.2-1.92,10.41-2.77,15.63
					c-0.96,5.84-1.83,11.7-2.61,17.56c-0.18,1.35-0.35,2.73-0.05,4.06c0.3,1.3,1.16,2.55,2.43,2.95c1.15,0.67,2.65,0.48,3.82-0.17
					c1.19-0.66,2.11-1.71,2.99-2.75c3.84-4.5,7.61-9.06,11.32-13.68c3.31-4.13,6.57-8.3,9.77-12.51c1.63-2.14,3.24-4.29,4.84-6.46
					C49.02,179.35,49.55,178.98,47.19,176.85z"/>
			</g>
			<path class="st4" d="M56.48,174.09c-0.1-0.36-0.23-0.72-0.39-1.06c0.87-0.95,1.93-1.84,2.59-2.94c4.88-8.05,4.2-19.17-1.8-26.43
				c-6-7.26-16.96-9.99-25.58-6.2s-14.24,13.91-12.41,23.15c0.05,0.25-0.25,0.15-0.88,0.32c-2.37,0.64-4.14,3.86-3.44,6.31
				c0.7,2.45,2.72,3.82,5.26,3.93c2.54,0.11,5-0.96,7.15-2.32c-2.52,2.73-1.01,7.74,2.4,9.23c3.4,1.49,7.63-0.17,9.8-3.19
				c-1.18,2.53,0.43,5.94,3.13,6.63c2.03,0.52,4.26-0.59,5.32-2.36c1.42,1.92,3.63,3.27,5.94,2.23c0.83-0.37,1.5-1.02,2.01-1.77
				C56.66,178.04,56.99,175.96,56.48,174.09z"/>
			<g>
				<g>
					<path class="st17" d="M27.43,152.33c1.18-1.08,3.04-1.36,4.47-0.61c1.41,0.74,2.23,2.32,2.1,3.89c-0.04,0.43,0.64,0.43,0.67,0
						c0.15-1.82-0.87-3.7-2.52-4.51c-1.69-0.83-3.8-0.5-5.19,0.76C26.63,152.14,27.11,152.62,27.43,152.33L27.43,152.33z"/>
				</g>
			</g>
			<g>
				<g>
					<path class="st17" d="M45.65,161.25c1.25-1.02,3.11-1.26,4.56-0.54c1.42,0.71,2.35,2.23,2.37,3.81c0,0.43,0.68,0.43,0.67,0
						c-0.02-1.84-1.11-3.65-2.8-4.44c-1.73-0.81-3.8-0.51-5.28,0.69C44.84,161.05,45.32,161.52,45.65,161.25L45.65,161.25z"/>
				</g>
			</g>
			<g>
				<g>
					<path class="st17" d="M36.67,158.24c-0.38,0.21-0.58,0.64-0.55,1.06c0.04,0.48,0.35,0.9,0.71,1.21
						c0.73,0.64,1.82,0.89,2.59,0.17c-0.19-0.11-0.37-0.22-0.56-0.33c-0.36,0.98,0.89,1.72,1.7,1.83c0.93,0.12,1.83-0.46,1.94-1.43
						c0.05-0.43-0.62-0.42-0.67,0c-0.07,0.56-0.69,0.83-1.18,0.76c-0.41-0.05-1.34-0.44-1.14-0.99c0.12-0.33-0.33-0.54-0.56-0.33
						c-0.46,0.43-1.13,0.24-1.58-0.11c-0.31-0.24-0.94-0.97-0.37-1.28C37.39,158.61,37.05,158.03,36.67,158.24L36.67,158.24z"/>
				</g>
			</g>
			
				<ellipse transform="matrix(0.4072 -0.9133 0.9133 0.4072 -128.4999 115.2874)" class="st7" cx="24.56" cy="156.64" rx="1.49" ry="2.38"/>
			
				<ellipse transform="matrix(0.4072 -0.9133 0.9133 0.4072 -124.1263 146.7593)" class="st7" cx="51" cy="169" rx="1.49" ry="2.38"/>
			<path class="st9" d="M61.38,163.27c0.09-0.3,0.08-0.44,0.15-0.75c0.04-0.15,0.2-1.31,0.22-1.46c0.12-1.09,0.17-2.19,0.17-3.27
				c-0.09-10.69-7.38-19.81-18.12-21.64c-9.36-1.59-17.71,2.27-22.26,10.28c-0.34,0.6-0.3,1.32,0.16,1.83
				c0.7,0.8,2.01,0.38,2.92-0.18c0.91-0.55,2.04-1.19,2.96-0.66c0.52,0.3,0.81,0.92,1.36,1.18c0.72,0.35,1.56-0.04,2.28-0.38
				c1.85-0.87,4.24-1.35,5.77-0.01c1.23,1.07,1.41,2.87,1.6,4.49s0.61,3.45,2.04,4.23c1.22,0.67,2.74,0.31,4.03-0.22
				s2.57-1.23,3.96-1.21c0.52,0.01,1.06,0.14,1.42,0.51c0.59,0.61,0.54,1.75,1.3,2.15c1.04,0.56,2.12-0.94,3.3-0.89
				c0.98,0.04,1.59,1.13,1.67,2.11c0.08,0.98-0.16,1.98,0.03,2.94c0.32,1.57,2.65,3.44,4.2,2.49
				C61.19,164.41,61.13,164.32,61.38,163.27z"/>
			<path class="st4" d="M58.93,146.67c-0.51,0.68-1.35,1.15-2.2,1.17s-1.7-0.34-2.3-0.94c-0.78-0.78-1.2-1.97-2.2-2.45
				c-0.86-0.42-1.9-0.18-2.76,0.24s-1.64,1-2.55,1.3c-1.98,0.65-4.35-0.36-5.27-2.22c-0.48-0.97-0.58-2.1-1.1-3.06
				c-0.77-1.42-2.49-2.27-4.09-2.01c-0.78,0.13-1.5,0.48-2.25,0.75c-0.74,0.27-1.57,0.45-2.32,0.22c-0.6-0.18-1.24-0.41-1.41-1.08
				c-0.05-0.18-0.05-0.38,0.01-0.56c0.12-0.34,0.53-0.46,0.83-0.6c0.39-0.18,0.79-0.35,1.19-0.5c0.79-0.29,1.6-0.53,2.43-0.71
				c0.98-0.21,1.47-0.25,2.47-0.34c5.55-0.5,11.44,0.93,16,4.36c0.93,0.7,2.58,2.29,3.32,3.23
				C57.85,144.89,58.2,145.38,58.93,146.67z"/>
			<path class="st4" d="M42.07,137.03c0.83-0.1,1.66-0.21,2.5-0.15c0.83,0.06,1.67,0.3,2.33,0.82c0.64,0.51,1.05,1.24,1.64,1.8
				c1.09,1.04,2.68,1.42,3.75,2.47c0.15,0.15,0.29,0.32,0.31,0.53c0.03,0.37-0.34,0.65-0.7,0.76c-0.55,0.16-1.14,0.09-1.71,0.15
				c-0.84,0.09-1.63,0.45-2.43,0.72c-1,0.33-2.05,0.52-3.09,0.71c-0.47,0.08-0.95,0.17-1.42,0.11s-0.95-0.28-1.21-0.69
				c-0.18-0.29-0.23-0.63-0.29-0.96c-0.19-1.06-0.53-2.11-1.13-3c-0.28-0.43-0.63-0.82-1.02-1.15c-0.32-0.27-0.89-0.5-0.65-1.01
				C39.35,137.3,41.29,137.12,42.07,137.03z"/>
			<path class="st23" d="M53.57,140.1c0.27-0.23,0.68-0.28,0.99-0.12c0.09,0.04,0.17,0.1,0.22,0.17c0.05,0.08,0.08,0.17,0.1,0.26
				c0.2,0.74-0.28,1.44-1.12,1.19C53.16,141.41,53.14,140.48,53.57,140.1z"/>
			<path class="st20" d="M53.01,148.58c0.27-0.23,0.68-0.28,0.99-0.12c0.09,0.04,0.17,0.1,0.22,0.17c0.05,0.08,0.08,0.17,0.1,0.26
				c0.2,0.74-0.28,1.44-1.12,1.19C52.6,149.89,52.57,148.95,53.01,148.58z"/>
			<path class="st24" d="M26.12,147.4c0.27-0.23,0.68-0.28,0.99-0.12c0.09,0.04,0.17,0.1,0.22,0.17c0.05,0.08,0.08,0.17,0.1,0.26
				c0.2,0.74-0.28,1.44-1.12,1.19C25.7,148.7,25.68,147.77,26.12,147.4z"/>
			<path class="st20" d="M57.62,144.68c0.27-0.23,0.68-0.28,0.99-0.12c0.09,0.04,0.17,0.1,0.22,0.17c0.05,0.08,0.08,0.17,0.1,0.26
				c0.2,0.74-0.28,1.44-1.12,1.19C57.2,145.99,57.18,145.05,57.62,144.68z"/>
			<path class="st24" d="M49.49,142.78c0.27-0.23,0.68-0.28,0.99-0.12c0.09,0.04,0.17,0.1,0.22,0.17c0.05,0.08,0.08,0.17,0.1,0.26
				c0.2,0.74-0.28,1.44-1.12,1.19C49.07,144.08,49.05,143.15,49.49,142.78z"/>
			<path class="st20" d="M42.55,138.77c0.27-0.23,0.68-0.28,0.99-0.12c0.09,0.04,0.17,0.1,0.22,0.17c0.05,0.08,0.08,0.17,0.1,0.26
				c0.2,0.74-0.28,1.44-1.12,1.19C42.14,140.07,42.12,139.14,42.55,138.77z"/>
			<path class="st23" d="M40.91,144.22c0.27-0.23,0.68-0.28,0.99-0.12c0.09,0.04,0.17,0.1,0.22,0.17c0.05,0.08,0.08,0.17,0.1,0.26
				c0.2,0.74-0.28,1.44-1.12,1.19C40.49,145.53,40.47,144.6,40.91,144.22z"/>
			<path class="st23" d="M37.37,135.04c0.27-0.23,0.68-0.28,0.99-0.12c0.09,0.04,0.17,0.1,0.22,0.17c0.05,0.08,0.08,0.17,0.1,0.26
				c0.2,0.74-0.28,1.44-1.12,1.19C36.96,136.35,36.93,135.41,37.37,135.04z"/>
			<path class="st24" d="M29.96,139.3c0.27-0.23,0.68-0.28,0.99-0.12c0.09,0.04,0.17,0.1,0.22,0.17c0.05,0.08,0.08,0.17,0.1,0.26
				c0.2,0.74-0.28,1.44-1.12,1.19C29.54,140.61,29.52,139.67,29.96,139.3z"/>
			<path class="st9" d="M29.11,140.87c0.36-0.15,0.62-0.46,0.97-0.63c0.19-0.09,0.41-0.13,0.62-0.12c0.23,0.01,0.47,0.09,0.63,0.27
				c0.16,0.18,0.2,0.46,0.07,0.65c-0.07,0.1-0.18,0.17-0.29,0.23c-0.67,0.36-1.46,0.4-2.21,0.43c-0.13,0.01-0.27,0.01-0.39-0.02
				c-0.23-0.06-0.61-0.42-0.43-0.68C28.24,140.78,28.85,140.98,29.11,140.87z"/>
			<path class="st4" d="M36.66,136.06c0.25-0.09,0.52-0.1,0.79-0.12c0.2-0.01,0.4-0.02,0.6-0.03c0.11-0.01,0.23-0.01,0.34,0.03
				c0.12,0.05,0.21,0.16,0.29,0.26c0.05,0.07,0.11,0.14,0.13,0.22c0.05,0.21-0.13,0.4-0.31,0.51c-0.52,0.3-1.2,0.29-1.71-0.03
				c-0.18-0.12-0.59-0.1-0.64-0.35C36.09,136.3,36.47,136.13,36.66,136.06z"/>
			<path class="st4" d="M42.6,139.63c0.03,0.1,0.03,0.2,0.09,0.29c0.06,0.08,0.16,0.12,0.24,0.17c0.27,0.19,0.3,0.64,0.05,0.86
				c-0.21,0.18-0.52,0.18-0.8,0.13c-0.15-0.03-0.31-0.07-0.43-0.17c-0.17-0.13-0.26-0.33-0.39-0.49c-0.14-0.15-0.31-0.26-0.47-0.39
				c-0.23-0.17-0.47-0.45-0.22-0.73c0.21-0.23,0.82-0.18,1.1-0.17C42.09,139.15,42.49,139.28,42.6,139.63z"/>
			<path class="st9" d="M41,145c0.13,0.04,0.28,0.09,0.37,0.19c0.23,0.24,0.14,0.65,0.3,0.94c0.03,0.06,0.08,0.11,0.1,0.17
				c0.09,0.2-0.05,0.44-0.25,0.53c-0.2,0.09-0.43,0.06-0.63,0c-0.38-0.12-0.71-0.35-1-0.6c-0.38-0.33-0.75-0.85-0.44-1.36
				C39.76,144.37,40.59,144.87,41,145z"/>
			<path class="st4" d="M49.31,143.73c0.07,0.01,0.14,0.04,0.21,0.06c0.21,0.08,0.45,0.09,0.68,0.06c0.09-0.01,0.19-0.03,0.28,0
				c0.09,0.03,0.17,0.11,0.16,0.21c-0.02,0.1-0.13,0.15-0.22,0.19c-0.32,0.12-0.64,0.24-0.98,0.22c-0.09-0.01-0.18-0.02-0.25-0.09
				c-0.06-0.06-0.08-0.14-0.13-0.21c-0.04-0.06-0.11-0.09-0.18-0.1C48.92,143.91,49.12,143.71,49.31,143.73z"/>
			<path class="st4" d="M53.52,140.45c0.05,0.04,0.07,0.1,0.11,0.16c0.11,0.18,0.31,0.28,0.45,0.44c0.22,0.27,0.21,0.71-0.04,0.96
				c-0.25,0.25-0.71,0.25-0.94-0.01c-0.09-0.1-0.15-0.23-0.2-0.35c-0.12-0.28-0.5-0.82-0.32-1.13
				C52.72,140.28,53.34,140.28,53.52,140.45z"/>
			<path class="st4" d="M57.1,145.16c0.19,0.05,0.37,0.18,0.44,0.37c0.02,0.06,0.04,0.13,0.08,0.18c0.1,0.13,0.3,0.09,0.45,0.15
				c0.19,0.08,0.28,0.3,0.28,0.5c0,0.09-0.01,0.18-0.07,0.24c-0.09,0.11-0.25,0.13-0.39,0.12c-0.6-0.02-1.48-0.23-1.88-0.73
				C55.55,145.44,56.68,145.06,57.1,145.16z"/>
			<path class="st9" d="M51.96,149.63c0.07-0.1,0.17-0.18,0.29-0.2c0.32-0.07,0.64,0.3,0.95,0.19c0.13-0.05,0.24-0.18,0.37-0.16
				c0.04,0,0.08,0.02,0.12,0.04c0.24,0.11,0.5,0.25,0.56,0.51c0.06,0.23-0.09,0.47-0.29,0.61c-0.2,0.14-0.44,0.19-0.67,0.25
				c-0.25,0.06-0.5,0.14-0.76,0.16c-0.11,0.01-0.23,0-0.34-0.03C51.66,150.82,51.67,150.01,51.96,149.63z"/>
			<path class="st9" d="M25.53,147.5c0.22-0.01,0.47,0.03,0.59,0.21c0.11,0.16,0.08,0.39,0.18,0.57c0.08,0.14,0.23,0.23,0.28,0.38
				c0.05,0.16-0.03,0.33-0.16,0.43c-0.13,0.1-0.3,0.14-0.46,0.15c-0.4,0.03-0.83-0.06-1.09-0.36c-0.24-0.27-0.41-0.85-0.27-1.2
				C24.74,147.29,25.2,147.51,25.53,147.5z"/>
		</g>
		<g>
			<path class="st16" d="M62.54,100.28c0.29,0.77,1.46,7.54-1.91,12.15c-3.12,4.26-8.46,10.4-26.5,13.23
				c-18.05,2.83-27.12-2.74-29.81-5.51c-2.69-2.77-5.48-9.34-3.81-14.03c1.67-4.68,31.58-16.32,46.89-13.51
				S62.54,100.28,62.54,100.28z"/>
			<path class="st2" d="M54.77,89.19c-4.22-1.76-8.96-2.15-13.45-3.26c-2.59-0.64-5.14-1.54-7.83-1.67
				c-5.43-0.28-10.57,2.5-15.78,4.28c-3.77,1.28-7.78,2.1-11.09,4.28c-3.4,2.25-5.78,5.89-6.37,9.74c-0.18,1.2-0.19,2.45,0.25,3.57
				c0.44,1.11,1.39,2.08,2.61,2.33c0.43,0.09,0.9,0.09,1.29,0.29c0.48,0.24,0.76,0.74,0.94,1.23c0.35,0.93,0.48,1.93,0.83,2.85
				c0.36,0.92,1.02,1.81,2.02,2.08c1.61,0.43,3.2-0.88,4.86-1.28c2.52-0.6,4.87,0.95,7.2,1.89c3.45,1.4,7.51,1.51,11.16,0.29
				c1.46-0.49,2.86-1.18,4.33-1.62c2.59-0.78,5.32-0.76,7.99-1.14c2.67-0.37,5.48-1.26,7.18-3.31c1.75-2.11,2.16-5.24,4.55-6.66
				c1.36-0.81,3.02-0.83,4.54-1.27c5.96-1.72,1.05-8.53-1.71-10.61C57.21,90.38,56.03,89.71,54.77,89.19z"/>
			<path class="st25" d="M38.7,103.78c-0.85,0.47-1.75,0.83-2.65,1.19c-2.06,0.83-4.17,1.66-6.38,1.82c-0.99,0.07-1.99,0-2.96-0.12
				c-2.4-0.3-4.75-0.93-6.84-2.02c-0.35-0.18-0.74-0.47-0.66-0.86c0.04-0.18,0.17-0.33,0.31-0.45c1.32-1.17,3.42-1,4.9-1.98
				c1.27-0.85,1.91-2.44,3.29-3.1c0.47-0.22,0.98-0.32,1.5-0.36c1.17-0.1,2.36,0.06,3.44,0.46c1.22,0.46,2.38,1.24,3.71,1.19
				c1.42-0.06,2.67-1.06,4.09-1.24c1.3-0.17,3.61,0.57,2.48,2.09C41.91,101.72,40.17,102.96,38.7,103.78z"/>
			<path class="st13" d="M24.15,104.83c0.2-0.25,0.5-0.41,0.8-0.55c3.9-1.91,8.33-2.75,12.61-2.37c0.93,0.08,1.92,0.26,2.54,0.91
				c0,0-9.14,6.3-16.09,3.15C23.63,105.8,23.88,105.15,24.15,104.83z"/>
			<path class="st3" d="M58,96.5c-0.01-0.07-0.03-0.15-0.09-0.2c-0.05-0.04-0.13-0.04-0.2-0.04c-1.13,0-3.08-0.35-4.2-0.16
				c-0.25,0.04,0.3,0.45,0.08,0.59c-0.22,0.13-0.39,0.36-0.39,0.6c0,0.26,0.21,0.47,0.45,0.57c0.24,0.1,0.52,0.11,0.79,0.1
				c1.18-0.02,2.37-0.22,3.53-0.45C58.37,97.43,58.05,96.74,58,96.5z"/>
			<path class="st9" d="M35.6,91.74c-0.03-0.02-0.06-0.05-0.1-0.04c-0.03,0.01-0.05,0.04-0.07,0.06c-0.15,0.22-0.29,0.44-0.43,0.67
				c-0.05,0.08-0.09,0.19-0.05,0.3c0.02,0.05,0.06,0.08,0.09,0.11c0.28,0.23,0.48,0.69,0.72,1.04c0.26,0.39,0.57,0.66,0.88,0.93
				c0.1,0.09,0.21,0.18,0.32,0.2c0.11,0.02,0.21-0.05,0.3-0.13c0.15-0.13,0.29-0.29,0.4-0.49c0.29-0.47-0.44-1.05-0.7-1.35
				C36.38,92.37,36.28,92.26,35.6,91.74z"/>
			<path class="st3" d="M12.43,96.19c-0.06-0.07-0.13-0.15-0.23-0.15c-0.08,0-0.15,0.04-0.22,0.08c-1.08,0.64-2.07,1.44-2.83,2.42
				c-0.18,0.24-0.36,0.49-0.42,0.78s0.01,0.61,0.24,0.78c0.4,0.29,1,0.02,1.42-0.27c0.72-0.49,1.41-1.07,1.96-1.74
				C13.09,97.2,13.12,96.99,12.43,96.19z"/>
			<path class="st26" d="M11.6,105.98c0.26,0,0.53,0,0.75,0.11s0.4,0.35,0.34,0.59c-0.09,0.39-0.61,0.49-1.01,0.56
				c-1.24,0.21-2.37,0.89-3.62,1.11c-0.15,0.03-0.32,0.04-0.43-0.06c-0.07-0.06-0.09-0.15-0.11-0.24
				C7.17,105.98,10.29,106,11.6,105.98z"/>
			<path class="st9" d="M22.52,110.11c0.2,0.04,0.4,0.1,0.54,0.23c0.29,0.27,0.21,0.73,0.11,1.12c-0.79,0.22-1.59,0.39-2.4,0.51
				c-1.03,0.15-2.08,0.21-3.12,0.19c-0.08,0-0.18-0.01-0.24-0.06c-0.07-0.06-0.09-0.15-0.1-0.24
				C16.83,108.76,20.81,109.75,22.52,110.11z"/>
			<path class="st26" d="M40.48,108.22c-0.51,0.59-1.02,1.18-1.67,1.63c-1.43,1.01-2.42,1.08-3.11,1.27
				c-0.08,0.02-0.17,0.05-0.25,0.02c-0.1-0.03-0.16-0.11-0.21-0.19c-0.14-0.21-0.28-0.46-0.17-0.69c0.07-0.15,0.23-0.25,0.38-0.34
				c1-0.58,2.01-1.16,3.01-1.74c0.33-0.19,0.91-0.6,1.32-0.58C40.04,107.61,40.73,107.93,40.48,108.22z"/>
			<path class="st3" d="M31.44,86.54c-0.07,0.01-0.15,0.03-0.2,0.08c-0.07,0.07-0.07,0.17-0.07,0.27c0,0.35,0.03,0.76,0.34,0.95
				c0.2,0.13,0.46,0.12,0.7,0.1c1.09-0.07,4.28,0.22,4.43-1.14c0.14-1.24-1.03-0.85-1.93-0.76C33.61,86.15,32.52,86.32,31.44,86.54z
				"/>
			<path class="st27" d="M24.31,92.67c-0.12-0.37-0.42-0.69-0.85-0.94c-1.99,0.42-2.37,0.63-3.18,0.94
				c-0.17,0.06-0.34,0.13-0.44,0.23c-0.14,0.12-0.15,0.25-0.15,0.37c-0.01,0.33,0.02,0.71,0.52,0.83c0.34,0.08,0.8,0.01,1.23-0.08
				c1.22-0.28,2.37-0.82,3.09-1.46"/>
			<path class="st27" d="M16.39,101.87c-0.15-0.22-0.31-0.43-0.46-0.65c-0.7,0.13-1.37,0.44-1.91,0.89
				c-0.07,0.06-0.14,0.12-0.17,0.2c-0.04,0.1-0.02,0.2,0,0.3c0.04,0.19,0.08,0.37,0.11,0.56c0.01,0.06,0.03,0.13,0.08,0.17
				c0.08,0.06,0.2,0.04,0.3,0.01c0.76-0.23,1.48-0.61,2.09-1.11"/>
			<path class="st9" d="M47.84,103.93c0.28,0.1,0.58,0.21,0.79,0.44c0.21,0.22,0.29,0.59,0.09,0.83c-0.07,0.09-0.18,0.15-0.29,0.19
				c-0.39,0.15-0.84,0.08-1.24-0.05c-0.4-0.13-0.78-0.32-1.19-0.4c-0.28-0.06-0.56-0.07-0.83-0.15c-0.27-0.08-0.53-0.26-0.62-0.52
				c-0.18-0.55,0.37-1.26,0.92-1.18C46.25,103.2,47.1,103.66,47.84,103.93z"/>
			<path class="st27" d="M49.72,92.04c0.24,0.1,0.48,0.21,0.67,0.39c0.18,0.18,0.29,0.47,0.19,0.71c-0.08,0.2-0.29,0.33-0.5,0.37
				c-0.21,0.04-0.43,0.01-0.64-0.04c-0.73-0.16-1.43-0.45-2.05-0.86c-0.55-0.36-0.32-1.11,0.32-1.18
				C48.34,91.36,49.16,91.81,49.72,92.04z"/>
			<path class="st3" d="M29.23,112.63c0.28,0.24,0.57,0.56,0.5,0.92c-0.05,0.28-0.3,0.48-0.52,0.65c-0.17,0.13-0.38,0.26-0.58,0.2
				c-0.17-0.05-0.26-0.22-0.36-0.36c-0.5-0.7-1.47-1.03-1.75-1.84c-0.23-0.67,0.36-0.96,0.88-0.71
				C28.06,111.79,28.68,112.17,29.23,112.63z"/>
		</g>
		<g>
			<path class="st16" d="M418.48,183.97c0.49,0.69,3.42,7.06,1.3,12.49c-1.96,5.03-5.62,12.48-22.7,20.01
				c-17.08,7.52-27.49,4.4-30.87,2.38s-7.86-7.78-7.44-12.85c0.42-5.06,26.89-24.39,42.74-25.63
				C417.36,179.12,418.48,183.97,418.48,183.97z"/>
			<path class="st8" d="M407.9,175.06c-4.63-0.63-9.41,0.23-14.13,0.3c-2.73,0.04-5.47-0.17-8.17,0.4
				c-5.43,1.15-9.78,5.24-14.45,8.36c-3.38,2.25-7.13,4.11-9.82,7.14c-2.77,3.11-4.16,7.33-3.73,11.29
				c0.13,1.23,0.45,2.47,1.18,3.46c0.73,0.99,1.91,1.69,3.19,1.61c0.45-0.03,0.91-0.15,1.34-0.06c0.54,0.11,0.94,0.53,1.25,0.97
				c0.59,0.82,0.97,1.78,1.57,2.6c0.6,0.82,1.48,1.52,2.54,1.52c1.71,0,2.93-1.71,4.46-2.54c2.33-1.25,5.06-0.34,7.61-0.02
				c3.78,0.48,7.81-0.48,11.09-2.64c1.32-0.87,2.51-1.91,3.85-2.74c2.35-1.45,5.06-2.15,7.59-3.22s5.08-2.68,6.22-5.15
				c1.17-2.54,0.76-5.74,2.74-7.76c1.13-1.15,2.76-1.61,4.15-2.44c5.43-3.26-1.2-8.7-4.47-10.03
				C410.63,175.6,409.28,175.24,407.9,175.06z"/>
			<path class="st16" d="M395.87,193.67c-0.71,0.68-1.51,1.28-2.3,1.87c-1.82,1.36-3.68,2.73-5.82,3.46
				c-0.96,0.33-1.96,0.52-2.96,0.65c-2.44,0.33-4.93,0.33-7.29-0.2c-0.39-0.09-0.86-0.27-0.88-0.67c-0.01-0.18,0.08-0.37,0.19-0.53
				c1-1.5,3.12-1.88,4.32-3.24c1.03-1.17,1.24-2.91,2.43-3.92c0.4-0.34,0.89-0.57,1.38-0.75c1.13-0.41,2.34-0.56,3.51-0.45
				c1.33,0.13,2.67,0.6,3.97,0.2c1.39-0.43,2.36-1.75,3.71-2.3c1.24-0.51,3.71-0.39,2.99,1.42
				C398.5,190.8,397.11,192.48,395.87,193.67z"/>
			<path class="st13" d="M381.78,198.52c0.14-0.3,0.39-0.53,0.64-0.75c3.35-2.91,7.5-4.9,11.82-5.65c0.94-0.16,1.97-0.25,2.74,0.23
				c0,0-7.37,8.62-15.05,7.33C381.52,199.62,381.6,198.91,381.78,198.52z"/>
			<path class="st2" d="M413.01,181.42c-0.03-0.07-0.07-0.14-0.14-0.17c-0.06-0.03-0.14-0.01-0.21,0.01
				c-1.12,0.3-3.13,0.46-4.19,0.95c-0.24,0.11,0.42,0.37,0.24,0.56s-0.29,0.46-0.22,0.69c0.07,0.25,0.33,0.41,0.6,0.45
				c0.27,0.04,0.54-0.03,0.81-0.11c1.16-0.33,2.28-0.83,3.37-1.37C413.62,182.25,413.12,181.65,413.01,181.42z"/>
			<path class="st2" d="M389.65,182.61c-0.04-0.02-0.08-0.03-0.11-0.02c-0.03,0.01-0.04,0.05-0.05,0.08
				c-0.09,0.25-0.17,0.51-0.25,0.78c-0.03,0.09-0.04,0.22,0.03,0.31c0.04,0.05,0.08,0.06,0.12,0.08c0.34,0.16,0.66,0.55,0.99,0.84
				c0.36,0.32,0.74,0.5,1.11,0.68c0.13,0.06,0.25,0.12,0.36,0.11c0.11-0.01,0.19-0.1,0.26-0.2c0.11-0.17,0.2-0.36,0.27-0.59
				c0.16-0.54-0.71-0.92-1.04-1.15C390.58,183.02,390.46,182.94,389.65,182.61z"/>
			<path class="st2" d="M367.94,193.07c-0.08-0.05-0.17-0.11-0.27-0.09c-0.08,0.02-0.14,0.08-0.19,0.13
				c-0.9,0.92-1.67,1.97-2.16,3.14c-0.12,0.28-0.22,0.58-0.21,0.87c0.01,0.3,0.17,0.6,0.44,0.7c0.47,0.19,0.99-0.24,1.33-0.64
				c0.59-0.68,1.11-1.42,1.48-2.23C368.86,193.89,368.83,193.69,367.94,193.07z"/>
			<path class="st26" d="M369.7,202.95c0.25-0.07,0.52-0.14,0.77-0.09c0.25,0.05,0.49,0.24,0.49,0.49c0.01,0.4-0.47,0.64-0.85,0.82
				c-1.17,0.53-2.11,1.5-3.28,2.04c-0.14,0.06-0.31,0.12-0.44,0.06c-0.08-0.04-0.13-0.12-0.17-0.21
				C365.32,204.12,368.41,203.31,369.7,202.95z"/>
			<path class="st4" d="M381.56,204.17c0.21-0.01,0.42-0.01,0.6,0.09c0.35,0.19,0.4,0.67,0.4,1.07c-0.72,0.42-1.47,0.8-2.23,1.13
				c-0.98,0.42-2,0.75-3.03,1c-0.08,0.02-0.18,0.04-0.25,0.01c-0.08-0.04-0.13-0.13-0.16-0.21
				C375.59,204.32,379.78,204.25,381.56,204.17z"/>
			<path class="st26" d="M398.79,197.59c-0.35,0.71-0.7,1.43-1.22,2.05c-1.15,1.37-2.1,1.7-2.73,2.07
				c-0.07,0.04-0.15,0.09-0.24,0.09c-0.1,0-0.19-0.07-0.26-0.14c-0.19-0.17-0.4-0.38-0.35-0.64c0.03-0.17,0.16-0.31,0.29-0.43
				c0.84-0.84,1.68-1.67,2.52-2.51c0.28-0.28,0.74-0.83,1.15-0.92C398.2,197.11,398.96,197.24,398.79,197.59z"/>
			<path class="st4" d="M384.18,178.56c-0.07,0.03-0.14,0.07-0.18,0.14c-0.05,0.09-0.03,0.19,0,0.28c0.09,0.35,0.23,0.74,0.58,0.85
				c0.23,0.07,0.49-0.01,0.72-0.09c1.05-0.35,4.28-0.9,4.07-2.29c-0.19-1.26-1.24-0.57-2.11-0.24
				C386.23,177.61,385.19,178.06,384.18,178.56z"/>
			<path class="st27" d="M378.75,186.48c-0.22-0.33-0.59-0.57-1.09-0.7c-1.85,0.94-2.17,1.24-2.89,1.76
				c-0.15,0.11-0.3,0.22-0.38,0.34c-0.11,0.15-0.08,0.28-0.05,0.4c0.08,0.33,0.21,0.7,0.73,0.68c0.36-0.01,0.8-0.2,1.19-0.4
				c1.13-0.6,2.12-1.43,2.67-2.26"/>
			<path class="st27" d="M373.35,197.64c-0.21-0.17-0.42-0.35-0.62-0.52c-0.65,0.31-1.23,0.79-1.65,1.38
				c-0.05,0.07-0.1,0.15-0.12,0.24c-0.01,0.1,0.03,0.2,0.08,0.3c0.09,0.17,0.17,0.35,0.26,0.52c0.03,0.06,0.06,0.12,0.12,0.15
				c0.09,0.04,0.2-0.01,0.29-0.07c0.69-0.42,1.3-0.99,1.78-1.64"/>
			<path class="st4" d="M404.93,191.43c0.31,0.03,0.63,0.06,0.89,0.22c0.26,0.17,0.44,0.51,0.31,0.79c-0.05,0.11-0.14,0.2-0.24,0.27
				c-0.35,0.25-0.81,0.3-1.23,0.27c-0.43-0.02-0.86-0.11-1.28-0.09c-0.29,0.02-0.57,0.08-0.86,0.07c-0.29-0.01-0.59-0.11-0.75-0.35
				c-0.32-0.49,0.04-1.34,0.6-1.4C403.16,191.12,404.13,191.36,404.93,191.43z"/>
			<path class="st27" d="M403.67,179.2c0.26,0.04,0.53,0.08,0.76,0.21c0.23,0.13,0.41,0.39,0.37,0.65c-0.03,0.22-0.2,0.4-0.4,0.49
				c-0.2,0.1-0.42,0.12-0.64,0.13c-0.76,0.03-1.53-0.07-2.25-0.31c-0.64-0.21-0.6-1.01,0-1.25
				C402.13,178.89,403.05,179.11,403.67,179.2z"/>
			<path class="st2" d="M388.84,204.9c0.34,0.16,0.71,0.4,0.74,0.78c0.03,0.29-0.17,0.55-0.35,0.78c-0.13,0.17-0.3,0.36-0.52,0.35
				c-0.18-0.01-0.32-0.15-0.45-0.26c-0.67-0.56-1.72-0.63-2.21-1.36c-0.4-0.6,0.1-1.04,0.69-0.94
				C387.47,204.38,388.18,204.59,388.84,204.9z"/>
		</g>
		<g>
			<path class="st8" d="M102.84,110.93c0,0-15.39-1.09-24.1,12.01s-4.62,24.52,0.57,30.1c5.19,5.58,14.1,5.2,23.06,2.17
				c8.96-3.02,17.07-8.15,20.9-13.15c3.83-5,4.82-9.42,2.94-16.07C124.31,119.34,113.14,111.27,102.84,110.93z"/>
			<path class="st8" d="M84.6,117.02c0,0-10.92-0.48-21.92,3.52c0,0,0.16,10.98,11.31,21.38C73.99,141.91,71.28,128.33,84.6,117.02z
				"/>
			<path class="st8" d="M97.91,111.21c0,0,7.08-8.49,17.57-13.7c0,0,7.05,7.17,6.85,22.43C122.33,119.94,112.16,108.95,97.91,111.21
				z"/>
			
				<ellipse transform="matrix(0.9187 -0.395 0.395 0.9187 -44.3382 57.3177)" class="st10" cx="117.03" cy="136.33" rx="2.38" ry="1.94"/>
			
				<ellipse transform="matrix(0.9187 -0.395 0.395 0.9187 -51.5563 46.8079)" class="st10" cx="87.89" cy="148.61" rx="2.38" ry="1.94"/>
			<g>
				<g>
					
						<ellipse transform="matrix(0.975 -0.2223 0.2223 0.975 -26.5944 28.3842)" class="st14" cx="112.81" cy="132.35" rx="2.94" ry="2.95"/>
					
						<ellipse transform="matrix(0.975 -0.2223 0.2223 0.975 -26.4629 28.1696)" class="st13" cx="111.92" cy="131.66" rx="1.22" ry="1.22"/>
					
						<ellipse transform="matrix(0.975 -0.2223 0.2223 0.975 -26.632 28.8413)" class="st13" cx="114.82" cy="132.74" rx="0.49" ry="0.49"/>
				</g>
				<g>
					
						<ellipse transform="matrix(0.975 -0.2223 0.2223 0.975 -29.5078 23.2558)" class="st14" cx="88.57" cy="142.73" rx="2.94" ry="2.95"/>
					
						<ellipse transform="matrix(0.975 -0.2223 0.2223 0.975 -29.4918 23.7033)" class="st13" cx="90.56" cy="142.88" rx="0.49" ry="0.49"/>
					
						<ellipse transform="matrix(0.975 -0.2223 0.2223 0.975 -29.3816 23.032)" class="st13" cx="87.64" cy="142.05" rx="1.22" ry="1.22"/>
				</g>
			</g>
			<path class="st28" d="M106.57,139.62c0.45,0.78,0.09,1.83-0.62,2.39c-1.05,0.83-2.76,0.64-3.6-0.4c0.39,0.84-0.22,1.82-0.97,2.34
				c-0.58,0.4-1.28,0.66-1.98,0.58c-0.7-0.08-1.38-0.54-1.59-1.22"/>
			<path class="st10" d="M74.89,131.43c0.07-0.23,0.14-0.46,0.11-0.7c-0.04-0.25-0.18-0.46-0.33-0.66
				c-2.91-4.03-7.39-7.96-12.08-9.59c0.14,1.15,0.48,3.02,0.56,3.37c0.32,1.46,0.9,3.2,1.41,4.6c1.49,4.06,3.69,7.38,6.59,10.58
				c0.36,0.4,1.75,1.89,2.59,2.64c0.74,0.66,0.3-2.56,0.3-3.17C74.06,135.98,74.17,133.85,74.89,131.43z"/>
			<path class="st10" d="M114.85,114.2c-0.21-0.11-0.43-0.22-0.58-0.41c-0.15-0.2-0.21-0.45-0.25-0.69
				c-0.91-4.89-0.59-11.07,1.47-15.59c0.71,0.69,1.69,2.23,2.56,3.66c0.57,0.94,1.2,2.33,1.56,3.23c1.13,2.83,1.23,3.81,1.83,5.96
				c0.59,2.12,1.35,10,0.91,9.57C120.5,118.2,117.09,115.35,114.85,114.2z"/>
			<path class="st28" d="M83.14,147.46c-1.55,0.59-3.1,1.17-4.65,1.76"/>
			<path class="st28" d="M84.33,149.97c-1.23,0.84-2.46,1.68-3.69,2.52"/>
			<path class="st28" d="M125.36,131.15c-0.01,0.09-0.12,0.14-0.21,0.16c-1.41,0.36-2.81,0.72-4.22,1.08"/>
			<path class="st28" d="M125.02,135.93c-0.18,0-0.36,0-0.53,0c-0.44,0-0.88,0-1.32,0.02c-0.81,0.03-1.65,0.09-2.43-0.13"/>
			<path class="st0" d="M97.91,111.21c0,0,7.08-8.49,17.57-13.7c0,0,7.05,7.17,6.85,22.43C122.33,119.94,112.16,108.95,97.91,111.21
				z"/>
			<path class="st0" d="M84.51,116.64c0,0-10.92-0.48-21.92,3.52c0,0,0.16,10.98,11.31,21.38C73.9,141.53,71.19,127.96,84.51,116.64
				z"/>
		</g>
		<g>
			<g>
				<path class="st21" d="M200.23,149.59c-0.34-0.08-0.09-0.85-0.02-1.18l6.23-27.2c0.17-0.86,1.03-1.42,1.93-1.25l10.38,1.95
					c-0.22,0.25-0.34,0.57-0.34,0.91c0.01,0.54,0.33,1,0.8,1.22c-0.23,0.23-0.37,0.54-0.37,0.89c0.01,0.69,0.6,1.24,1.32,1.22
					c0.21,0,0.41-0.06,0.58-0.14c-0.02,0.09-0.03,0.18-0.02,0.28c0.01,0.77,0.67,1.38,1.48,1.37c0.03,0,0.07,0,0.08,0.08L217,152.05
					c-0.09,0.39-0.46,1.12-0.95,1.01L200.23,149.59z"/>
				<path class="st29" d="M210.89,120.65c-0.59,2.98-6.15,26.69-6.75,29.67"/>
				<path class="st29" d="M218.79,123.97c-0.59,2.98-5.63,25.17-6.23,28.15"/>
				<path class="st29" d="M214.98,121.4c-0.59,2.98-6.12,26.85-6.71,29.83"/>
				<line class="st29" x1="205.79" y1="124.63" x2="221.98" y2="128.31"/>
				<line class="st29" x1="221.06" y1="132.55" x2="204.86" y2="128.87"/>
				<line class="st29" x1="203.81" y1="133.11" x2="220.17" y2="136.71"/>
				<line class="st29" x1="219.28" y1="141.02" x2="202.92" y2="137.35"/>
				<line class="st29" x1="201.92" y1="141.37" x2="218.42" y2="145.13"/>
				<line class="st29" x1="217.54" y1="148.97" x2="201.06" y2="145.43"/>
			</g>
			<g>
				<path class="st30" d="M163.96,169.66c-0.99,2.57-0.96,5.88,0.72,7.91c1.48,1.79,3.86,5.54,5.93,6.19
					c2.86,0.91,6.06,2.88,8.74,4.34c7.83,4.26,15.78,3.56,24.43,2.96s17.4-5.23,22.14-13.63c0.76-1.34,1.43-2.85,1.41-4.45
					c-0.02-2.24-1.36-4.14-2.76-5.68c-6.96-7.67-16.9-10.92-26.53-10.96c-7.02-0.03-13.96,1.49-20.73,3.53
					C171.58,161.58,166.6,162.8,163.96,169.66z"/>
				<g>
					<path class="st4" d="M171.07,167.89c-1.77-0.78-2.9-2.8-2.65-4.72c0.25-1.92,1.87-3.58,3.78-3.88c-0.9-1.65-1.26-3.6-0.89-5.44
						c0.37-1.84,1.49-3.54,3.1-4.51c2.35-1.42,5.31-1.15,8.05-0.84c-0.82-4.02,0.19-8.5,2.9-11.58c2.71-3.08,6.71-4.91,10.8-5.23
						c2.42-0.19,5.28,0.39,6.32,2.57c-0.79-0.6-1.91-0.2-2.8,0.22c-0.59,0.27-1.21,0.57-1.6,1.09c-0.94,1.24-0.09,3.15,1.27,3.91
						c1.35,0.76,2.99,0.73,4.54,0.8c4.13,0.17,8.41,1.25,11.47,4.04c3.06,2.78,4.54,7.55,2.66,11.23c2.88,0.95,4.9,3.83,5.24,6.84
						c0.1,0.92,0.07,1.88-0.28,2.74c-0.54,1.34-1.77,2.28-3.03,3c-4.99,2.85-10.97,3.16-16.66,4.01
						C200.74,172.5,178.92,171.36,171.07,167.89z"/>
					<g class="st31">
						<path class="st9" d="M172,157.49c-0.01,0.81,0.29,1.59,0.78,2.22c0.48,0.63,1.12,1.13,1.79,1.55c1.35,0.83,2.9,1.35,4.43,1.76
							c3.1,0.87,6.34,0.54,9.58,0.68c3.25,0.15,6.48,0.52,9.66,1.21c3.17,0.68,6.29,1.62,9.28,2.86c-3.08-0.99-6.21-1.8-9.38-2.37
							c-3.17-0.58-6.37-0.95-9.59-1.05l-4.85-0.13c-1.62,0.01-3.27-0.26-4.84-0.72c-1.56-0.47-3.1-1.05-4.48-1.97
							c-0.67-0.47-1.29-1.03-1.76-1.71C172.17,159.13,171.91,158.3,172,157.49z"/>
					</g>
					<g class="st31">
						<path class="st9" d="M182.2,147.06c0.4,1.61,1.7,2.76,3.11,3.48c1.41,0.76,2.97,1.21,4.53,1.64c3.12,0.84,6.32,1.33,9.55,1.4
							c3.22,0.14,6.5-0.03,9.75,0.48c1.62,0.26,3.22,0.69,4.72,1.36c1.49,0.68,2.89,1.6,3.97,2.81c-2.39-2.24-5.6-3.27-8.76-3.68
							c-3.19-0.4-6.44-0.25-9.7-0.33c-3.27-0.12-6.53-0.61-9.66-1.56c-1.55-0.49-3.12-1-4.55-1.84
							C183.76,149.98,182.45,148.71,182.2,147.06z"/>
					</g>
				</g>
				<path class="st9" d="M219.82,184.4c0.01-1.15-1.72-0.68-2.21-0.34c-0.49,0.33-1.25,0.57-1.63,0.12
					c-0.15-0.18-0.19-0.43-0.36-0.6c-0.43-0.41-1.15,0.08-1.43,0.59s-0.58,1.17-1.19,1.2c-0.67,0.03-1.04-0.76-1.66-1.03
					c-0.78-0.34-1.64,0.25-2.22,0.85c-0.58,0.6-1.25,1.3-2.1,1.23c-1.2-0.1-1.95-1.71-3.14-1.51c-1.12,0.19-1.53,1.88-2.66,1.84
					c-0.74-0.03-1.18-0.79-1.86-1.08c-0.93-0.39-1.95,0.2-2.78,0.75c-0.83,0.55-1.91,1.09-2.79,0.62c-0.28-0.15-0.49-0.39-0.76-0.57
					c-0.86-0.58-2.5-0.34-3.01,0.54c-1.07,0.09-1.58-1.4-2.63-1.63c-1.3-0.28-2.32,1.52-3.63,1.28c-1.25-0.23-1.73-2.17-2.99-2.02
					c-0.93,0.11-1.47,1.37-2.39,1.22c-1.16-0.19-1.09-2.36-2.26-2.34c-0.78,0.01-1.29,1.1-2.04,0.91c-0.57-0.15-0.65-0.87-0.97-1.34
					c-0.33-0.47-1-0.69-1.56-0.52c-0.56,0.17-1.12,0.69-0.94,1.22c2.58,7.62,5.15,15.24,7.73,22.86c0.2,0.58,0.44,1.21,1.03,1.45
					c8.79,3.47,18.8,4.06,27.96,1.65c1.85-0.49,3.89-1.3,4.51-3.03C214.64,198.92,217.16,192.21,219.82,184.4z"/>
				<path class="st32" d="M174.11,185.46c0.38,2.3,1.07,4.52,1.76,6.74c1.53,4.94,3.07,9.88,4.6,14.82"/>
				<path class="st33" d="M208.68,207.23c2.24-7.19,4.55-14.36,6.93-21.51"/>
				<path class="st32" d="M204.82,208.15c1.59-6.84,3.05-13.71,4.37-20.61"/>
				<path class="st32" d="M183.89,207.39c-1.23-6.74-2.74-13.42-4.53-20.03"/>
				<path class="st32" d="M187.36,208.26c-0.46-6.86-1.08-13.71-1.86-20.53"/>
				<path class="st32" d="M200.66,208.05c0.56-6.6,1.39-13.17,2.48-19.7"/>
				<path class="st32" d="M192.08,208.52c-0.22-6.67-0.58-13.34-1.05-20"/>
				<path class="st32" d="M196.14,208.56c-0.01-6.48,0.1-12.95,0.35-19.43"/>
				<g>
					<path class="st34" d="M181.57,174.94c0.04,1.01,0.3,2.06,0.97,2.82c0.67,0.76,1.83,1.15,2.75,0.72
						c1.11-0.52,1.45-1.92,1.54-3.14"/>
					<path class="st34" d="M208.55,175.23c-0.06,1.01-0.34,2.06-1.03,2.8s-1.85,1.11-2.76,0.66c-1.1-0.54-1.41-1.95-1.47-3.17"/>
					<path class="st34" d="M192.85,179.99c-0.12,0.81,0.52,1.66,1.33,1.74c0.81,0.07,1.61-0.7,1.52-1.51
						c-0.11,0.83,0.69,1.66,1.53,1.58c0.84-0.09,1.46-1.06,1.18-1.85"/>
				</g>
				<circle class="st20" cx="183.87" cy="154.1" r="2.37"/>
				<circle class="st20" cx="188.05" cy="134.69" r="2.37"/>
				<circle class="st20" cx="190.52" cy="167.42" r="2.37"/>
				<circle class="st20" cx="199.61" cy="158.72" r="2.37"/>
				<circle class="st20" cx="212.93" cy="162.77" r="2.37"/>
				<circle class="st20" cx="214.04" cy="148.55" r="2.37"/>
				<circle class="st20" cx="196.75" cy="145.53" r="2.37"/>
				<path class="st4" d="M185.69,155.85c0.88,0.18,1.91,0.33,2.35,1.11c0.43,0.77-0.01,1.8-0.74,2.28c-0.74,0.48-1.67,0.54-2.55,0.5
					c-1.48-0.07-5.71-1.01-5.13-3.35C180.19,154.03,184.27,155.56,185.69,155.85z"/>
				<path class="st4" d="M192.11,134.93c-0.68-0.69-1.87-0.64-2.7-0.14c-0.84,0.5-1.41,1.33-1.95,2.14c-0.51,0.75-1,1.82-0.37,2.48
					c0.5,0.53,1.42,0.36,1.96-0.12c0.54-0.48,0.83-1.18,1.21-1.8s0.93-1.22,1.65-1.29"/>
				<path class="st4" d="M200.65,149.23c-0.06,0.81-0.8,1.44-1.58,1.65c-1.87,0.5-8.23-0.7-5.24-3.65
					C195.23,145.83,200.85,146.63,200.65,149.23z"/>
				<path class="st4" d="M193.09,157.58c1.05,0.6,2.35,0.46,3.56,0.45c1.21-0.01,2.6,0.24,3.23,1.27c0.66,1.08,0.09,2.63-1.02,3.23
					s-2.55,0.36-3.58-0.38c-1.03-0.74-1.69-1.89-2.11-3.08"/>
				<path class="st4" d="M185.55,169.34c1.02-0.38,2.05-0.76,3.07-1.15c1.14-0.43,2.52-0.82,3.48-0.06
					c0.82,0.65,0.84,2.07,0.04,2.74c-0.54,0.45-1.29,0.55-2,0.55c-1.3,0-2.61-0.24-3.83-0.71"/>
				<path class="st35" d="M207.22,166.42c1.12-2.32,4.13-3.51,6.54-2.59c0.28,0.11,0.56,0.25,0.77,0.47
					c0.57,0.59,0.46,1.53,0.32,2.33c-0.06,0.36-0.15,0.76-0.44,0.98c-0.2,0.15-0.47,0.19-0.73,0.22c-2.26,0.21-4.57-0.2-6.62-1.19"
					/>
				<path class="st35" d="M216.72,150.13c-0.82-0.76-2.1-0.97-3.12-0.51c-1.02,0.46-1.72,1.56-1.69,2.68
					c1.61,0.98,4.05-0.04,4.48-1.88"/>
				<circle class="st20" cx="173.95" cy="162.62" r="2.37"/>
				<path class="st4" d="M176.61,164.22c-0.82-0.76-2.1-0.98-3.12-0.53c-1.02,0.45-1.73,1.55-1.71,2.67
					c1.61,0.99,4.05-0.02,4.49-1.86"/>
			</g>
		</g>
		<g>
			<g>
				<g>
					<path class="st21" d="M279.22,230.32l-0.14,0.11c-0.68,0.51-1.65,0.37-2.16-0.31l-21.47-28.71c-0.51-0.68-0.37-1.65,0.31-2.16
						l0.14-0.11c0.68-0.51,1.65-0.37,2.16,0.31l21.47,28.71C280.04,228.85,279.9,229.81,279.22,230.32z"/>
					<circle class="st3" cx="247.63" cy="188.49" r="15.26"/>
					<path class="st8" d="M255.15,178.29c0.33-0.29,0.77-0.43,1.22-0.22c0.38,0.18,0.66,0.52,0.92,0.86
						c1.14,1.44,2.28,2.89,3.41,4.33c0.16,0.2,0.33,0.41,0.55,0.55s0.52,0.18,0.74,0.05c0.53-0.31-0.04-1.17-0.26-1.51
						c-0.64-0.99-1.11-2.09-1.7-3.12c-3.39-5.88-10.43-7.64-16.64-5.59c-6.3,2.09-12.26,8.7-11.12,16.11
						c0.42,2.74,0.93,4.91,2.59,7.13c0.36,0.48,0.73,0.98,1.26,1.31c0.55,0.35,1.03-0.19,1-0.72c-0.05-0.83-0.72-1.63-1.1-2.33
						c-0.78-1.45-1.14-3.09-1.49-4.7c-0.24-1.11,0.75-0.2,1.01,0.16c0.33,0.46,0.56,0.97,0.86,1.45c0.75,1.21,1.51,2.41,2.31,3.58
						c0.21,0.3,0.43,0.61,0.75,0.79c0.32,0.18,0.77,0.18,1.01-0.1c0.3-0.34,0.14-0.87-0.04-1.29c-0.3-0.71-0.57-1.45-0.87-2.16
						c-0.13-0.32-0.35-0.58-0.53-0.87c-0.18-0.29-0.27-0.69-0.47-0.96c-0.07-0.21-0.19-0.56-0.08-0.78c0.25-0.53,1-0.1,1.34,0.17
						c0.35,0.28,0.68,0.62,1.12,0.73c0.55,0.15,1.13-0.11,1.59-0.45c0.22-0.16,0.43-0.35,0.51-0.61c0.11-0.38-0.09-0.78-0.04-1.17
						c0.05-0.43,0.44-1.02,0.89-1.12c0.55-0.13,1.03,0.54,1.38,0.92c1,1.09,1.71,2.41,2.62,3.56c0.27,0.35,0.58,0.69,0.99,0.86
						c0.4,0.18,0.93,0.15,1.23-0.18c0.26-0.28,0.28-0.71,0.17-1.08c-0.11-0.36-0.35-0.67-0.58-0.98c-0.65-0.88-1.27-1.79-1.86-2.72
						c-0.09-0.14-0.18-0.29-0.19-0.46s0.11-0.35,0.27-0.36c0.1-0.01,0.2,0.05,0.28,0.12c0.31,0.23,0.56,0.54,0.85,0.8
						c0.29,0.26,0.64,0.48,1.03,0.48s0.8-0.28,0.82-0.67c0.02-0.31-0.2-0.57-0.38-0.82c-0.76-1.01-1.22-2.21-1.62-3.41
						c-0.15-0.47-0.3-0.96-0.22-1.44c0.17-0.98,1.18-1,1.92-0.59c0.78,0.44,1.4,1.44,1.91,2.16c1.05,1.5,2.12,3.34,4.19,3.36
						c0.13,0,0.27-0.01,0.39-0.08c0.13-0.08,0.2-0.21,0.26-0.35c0.85-2.09-1.34-4.09-2.28-5.71c-0.36-0.61-0.66-1.33-0.46-2.04
						C254.68,178.85,254.88,178.52,255.15,178.29z"/>
					<g>
						<path class="st9" d="M233.65,186.02c-0.14,0.08-0.28,0.17-0.34,0.31c-0.06,0.14-0.01,0.35,0.14,0.39
							c0.08,0.02,0.16,0,0.23-0.03c0.47-0.14,0.93-0.29,1.4-0.43c0.11-0.04,0.23-0.07,0.33-0.14c0.12-0.08,0.22-0.22,0.21-0.37
							C235.58,185.09,233.92,185.88,233.65,186.02z"/>
						<path class="st9" d="M242.47,186.47c0.18,0.03,0.42-0.03,0.42-0.21c0-0.1-0.08-0.19-0.16-0.25c-0.24-0.2-1.74-1.47-1.88-0.79
							C240.74,185.78,242.09,186.41,242.47,186.47z"/>
						<path class="st9" d="M243.24,177.05c0.18,0.03,0.44-0.03,0.44-0.22c0-0.11-0.09-0.2-0.17-0.26c-0.25-0.21-1.82-1.54-1.96-0.82
							C241.43,176.33,242.84,176.99,243.24,177.05z"/>
						<path class="st9" d="M253.3,175.73c0.15,0.02,0.37-0.03,0.37-0.18c0-0.09-0.07-0.16-0.14-0.22c-0.21-0.18-1.52-1.29-1.65-0.69
							C251.78,175.12,252.97,175.67,253.3,175.73z"/>
						<path class="st9" d="M234.5,193.11c0.15,0.02,0.36-0.02,0.37-0.18c0-0.09-0.07-0.16-0.14-0.22c-0.21-0.18-1.51-1.28-1.63-0.68
							C232.99,192.51,234.17,193.06,234.5,193.11z"/>
						<path class="st9" d="M252.16,179.39c0.01-0.13,0.02-0.26,0.08-0.37c0.06-0.11,0.18-0.21,0.31-0.2
							c0.21,0.02,0.3,0.27,0.34,0.48c0.1,0.52,0.14,1.04,0.14,1.57c0,0.23-0.02,0.47-0.16,0.64
							C252.1,182.44,252.14,179.68,252.16,179.39z"/>
						<path class="st9" d="M246.66,185.35c0.06-0.09,0.13-0.18,0.23-0.24s0.22-0.07,0.31-0.01c0.15,0.11,0.1,0.33,0.04,0.5
							c-0.16,0.42-0.36,0.83-0.6,1.22c-0.1,0.17-0.22,0.34-0.41,0.4C245.25,187.57,246.52,185.55,246.66,185.35z"/>
						<path class="st9" d="M246.88,179.62c0.02-0.04,0.07-0.07,0.12-0.06c-0.7,0.07-1.34,0.56-1.59,1.21
							c-0.02,0.06-0.04,0.12-0.02,0.17c0.04,0.15,0.26,0.13,0.41,0.08c0.45-0.18,0.87-0.43,1.23-0.75c0.08-0.07,0.16-0.15,0.19-0.25
							s-0.01-0.23-0.11-0.27"/>
						<path class="st9" d="M246.78,175.42c-0.04-0.09-0.09-0.19-0.08-0.29c0.01-0.1,0.07-0.21,0.17-0.22
							c0.07-0.01,0.13,0.02,0.19,0.05c0.56,0.29,0.95,0.83,1.25,1.38c0.08,0.14,0.16,0.3,0.14,0.47
							C248.33,177.65,246.91,175.68,246.78,175.42z"/>
						<path class="st9" d="M238.46,187.73c-0.36-0.1-0.75-0.08-1.09,0.06c-0.11,0.04-0.23,0.1-0.3,0.21s-0.07,0.25,0.01,0.34
							c0.05,0.05,0.13,0.07,0.21,0.08c0.43,0.07,0.88,0.02,1.28-0.15c0.15-0.06,0.32-0.19,0.27-0.34c-0.05-0.15-0.26-0.17-0.41-0.15
							"/>
						<path class="st9" d="M240.39,181.06c-0.15,0.35-0.19,0.75-0.11,1.12c0.03,0.12,0.07,0.25,0.16,0.33
							c0.09,0.09,0.25,0.11,0.35,0.04c0.06-0.05,0.09-0.12,0.11-0.2c0.14-0.43,0.15-0.89,0.05-1.33c-0.04-0.16-0.14-0.35-0.31-0.33
							c-0.16,0.02-0.21,0.23-0.22,0.4"/>
						<path class="st9" d="M237.59,191.61c-0.15,0.38-0.19,0.81-0.09,1.23c0.03,0.14,0.08,0.28,0.18,0.37
							c0.1,0.1,0.26,0.14,0.36,0.05c0.06-0.05,0.09-0.13,0.11-0.21c0.13-0.46,0.14-0.97,0.02-1.46c-0.04-0.18-0.16-0.39-0.33-0.37
							c-0.17,0.02-0.22,0.25-0.22,0.43"/>
						<path class="st9" d="M235.66,181.53c0.35-0.1,0.69-0.27,0.98-0.48c0.25-0.18,0.51-0.46,0.45-0.77
							c-0.01-0.06-0.03-0.12-0.09-0.14c-0.04-0.02-0.09,0-0.13,0.01c-0.47,0.16-0.9,0.43-1.26,0.77c-0.08,0.08-0.17,0.17-0.2,0.28
							s0,0.25,0.1,0.31"/>
						<path class="st9" d="M256.32,177.58c0.36,0.07,0.73,0.09,1.09,0.04c0.31-0.04,0.66-0.17,0.76-0.46
							c0.02-0.05,0.02-0.12-0.01-0.16c-0.03-0.03-0.08-0.05-0.12-0.05c-0.49-0.08-1-0.05-1.48,0.09c-0.11,0.03-0.23,0.07-0.31,0.16
							c-0.08,0.08-0.12,0.22-0.06,0.32"/>
					</g>
				</g>
				<path class="st6" d="M243.93,197.52c0.03,0.34,0.32,0.62,0.65,0.73c0.33,0.11,0.69,0.07,1.02-0.02c0.5-0.14,0.97-0.4,1.29-0.8
					c0.32-0.41,0.45-0.97,0.27-1.46c-0.05-0.14-0.15-0.29-0.31-0.3"/>
				<path class="st6" d="M254.5,190.17c0.03,0.34,0.32,0.62,0.65,0.73c0.33,0.11,0.69,0.07,1.02-0.02c0.5-0.14,0.97-0.4,1.29-0.8
					c0.32-0.41,0.45-0.97,0.27-1.46c-0.05-0.14-0.15-0.29-0.31-0.3"/>
			</g>
			<path class="st6" d="M250.66,198.31c0.32,0.49,1.03,0.58,1.56,0.33c0.79-0.37,1.17-1.41,0.82-2.2c0.37,0.47,1.12,0.4,1.64,0.11
				c0.4-0.22,0.75-0.55,0.91-0.98c0.16-0.43,0.09-0.95-0.24-1.27"/>
		</g>
		<g>
			<g>
				<path class="st21" d="M283.83,232.05l-0.16,0.04c-0.78,0.19-1.56-0.28-1.75-1.06l-8.08-32.59c-0.19-0.78,0.28-1.56,1.06-1.75
					l0.16-0.04c0.78-0.19,1.56,0.28,1.75,1.06l8.08,32.59C285.08,231.07,284.6,231.86,283.83,232.05z"/>
				<circle class="st2" cx="271.8" cy="184.45" r="14.29"/>
				<path class="st8" d="M262.42,173.66c-0.12,0.1-0.26,0.19-0.33,0.32c-0.09,0.14-0.09,0.32-0.11,0.48
					c-0.02,0.18-0.05,0.36-0.07,0.54c-0.08,0.51-0.09,1-0.18,1.5c-0.17,1.03-0.39,2.05-0.72,3.04c-0.13,0.39-0.72,0.54-1.01,0.24
					c-0.32-0.33-0.31-0.85-0.33-1.32c-0.02-0.56,0.08-1.12,0.08-1.68c0,0.03-0.07,0.1-0.09,0.12c-0.03,0.05-0.06,0.1-0.09,0.15
					c-0.05,0.09-0.1,0.18-0.15,0.27c-0.11,0.21-0.23,0.42-0.34,0.63c-0.15,0.29-0.29,0.59-0.42,0.89c-0.06,0.14-0.12,0.28-0.18,0.42
					c-0.03,0.07-0.13,0.28-0.11,0.36c0.4,1.54,1.4,2.87,3.29,2.08c0.64-0.27,1.07-0.81,1.29-1.4c0.48-1.31,0.48-2.6,0.61-3.94
					c0.06-0.64,0.08-1.26,0.18-1.9c0.06-0.42,0.13-0.94,0.24-1.35c0.04-0.14,0.09-0.69,0.09-0.69c0.01,0.03-0.48,0.32-0.53,0.35
					c-0.18,0.13-0.36,0.26-0.54,0.4c-0.17,0.14-0.35,0.28-0.52,0.42C262.46,173.63,262.44,173.64,262.42,173.66z"/>
				<path class="st8" d="M273.23,170.22c-0.73,3.23-0.13,7.81-0.51,9.23c-0.08,0.31-0.49,0.51-0.8,0.36
					c-0.82-0.39-1.31-2.02-1.43-2.7c-0.41-2.24-0.31-4.35-0.61-6.84c-0.22,0.04-1.1,0.19-1.34,0.25c-0.16,0.04-0.35,0.09-0.56,0.14
					c1.03,3.66,0.41,8.23,3.32,11.2c0.32,0.33,0.75,0.66,1.27,0.61c0.75-0.07,1.14-0.85,1.31-1.49c0.25-0.93,0.64-6.79,1.67-10.34
					c-0.44-0.08-0.85-0.27-1.63-0.35C273.71,170.28,273.51,170.26,273.23,170.22z"/>
				<path class="st8" d="M282.27,174.72c-0.06,0.07-0.15,0.14-0.23,0.2c-0.38,0.34-0.88,0.43-1.25,0.12
					c-0.15-0.13-0.22-0.32-0.27-0.5c-0.15-0.54-0.16-1-0.19-1.56c-0.06-0.04-0.23-0.17-0.29-0.21c-0.43-0.29-0.63-0.42-1.17-0.74
					c0.04,0.96,0.07,1.79,0.37,2.69c0.22,0.68,0.62,1.34,1.33,1.66c0.73,0.33,1.69,0.22,2.42-0.18c0.12-0.07,0.23-0.14,0.33-0.22
					C283.01,175.57,282.88,175.38,282.27,174.72z"/>
				<path class="st11" d="M286.36,185.45c-0.43,0.72-1.95,1.42-2.73,1.81c-3.46,1.77-7.62,2.48-11.47,3.23
					c-3.07,0.6-6.16,1.17-9.26,1.44c-1.2,0.1-3.64,0.46-4.18-0.48c-0.85-1.49-1.66-3.34-1.69-5.05c0.63-0.14,1.49-0.02,2.15-0.04
					c0.76-0.02,1.52-0.07,2.29-0.14c3.57-0.33,7.09-1.16,10.6-1.95c3.19-0.72,6.43-1.32,9.49-2.47c1.54-0.58,3.04-1.29,4.36-2.17
					c-0.06,0.04,0.42,1.34,0.45,1.5c0.1,0.46,0.16,0.93,0.18,1.41c0.05,0.85-0.03,1.72-0.1,2.58
					C286.47,185.23,286.43,185.34,286.36,185.45z"/>
			</g>
			<path class="st36" d="M272.64,194.08c-0.05,0.34,0.17,0.68,0.46,0.86c0.29,0.18,0.65,0.22,1,0.21c0.52-0.02,1.04-0.16,1.44-0.49
				c0.4-0.32,0.66-0.84,0.6-1.35c-0.02-0.15-0.08-0.32-0.23-0.36"/>
		</g>
		<g>
			<g>
				<g>
					<g>
						<path class="st21" d="M418.13,61.69c-0.05,0.77-0.12,1.55-0.36,2.28c-0.79,2.35-3.16,3.75-5.42,4.78
							c-10.25,4.71-21.72,6.21-32.99,6.05c-1.1-0.02-2.24-0.06-3.22-0.55c-1.27-0.63-2.07-1.9-2.82-3.11
							c-1.66-2.7-3.38-5.66-3.09-8.81c0.12-1.27,0.56-2.49,1.01-3.69c0.71-1.87,1.48-3.74,2.67-5.35c3.02-4.08,8.23-5.82,13.15-7.06
							c6.45-1.62,13.26-2.79,19.72-1.22c1.86,0.45,3.66,1.12,5.36,1.99c2.38,1.22,5.07,3.36,5.75,6.09
							C418.56,55.72,418.29,59.03,418.13,61.69z"/>
						<path class="st3" d="M403.9,28.71c6.91,1.58,11.15,5.19,13.11,12.5c0.66,2.47,2.46,8.4,1.04,10.75
							c-1.64,2.71-5.61,0.72-7.51-0.5c-1.97-1.26-4.72-2.42-6.46-0.85c-1.22,1.1-1.24,3.02-2.14,4.39
							c-1.62,2.48-5.53,2.27-7.91,0.51c-1.07-0.78-1.97-1.8-3.12-2.46c-1.15-0.66-2.71-0.89-3.74-0.06
							c-1.43,1.15-1.37,3.85-3.15,4.32c-0.93,0.25-1.86-0.31-2.79-0.57c-2.67-0.76-5.51,1.03-6.99,3.38
							c-1.08,1.72-2.12,4.05-4.15,4.04c-1.05,0-1.96-0.7-2.67-1.47c-2.35-2.55-3.3-6.1-3.59-9.55c-0.98-11.74,5.8-19.16,16.46-22.7
							c7.05-2.34,14.71-3.34,22.07-2.04C402.88,28.5,403.4,28.6,403.9,28.71z"/>
						<path class="st37" d="M399.42,42.7c-0.05,0.38-0.1,0.79,0.05,1.14c0.07,0.16,0.24,0.33,0.4,0.26c0.11-0.05,0.16-0.18,0.19-0.3
							c0.14-0.52,0.81-2.52,0.05-2.83C399.47,40.71,399.47,42.34,399.42,42.7z"/>
						<path class="st38" d="M376,47.26c-0.09,0.16-0.18,0.33-0.16,0.51c0.02,0.18,0.2,0.35,0.38,0.3c0.05-0.02,0.09-0.05,0.14-0.08
							c0.34-0.25,0.68-0.5,1.02-0.76c0.27-0.2,0.54-0.4,0.77-0.65c0.59-0.63,0.79-1.55-0.28-1.13C377.1,45.76,376.4,46.59,376,47.26
							z"/>
						<path class="st38" d="M411.06,40.54c-0.09,0.16-0.18,0.33-0.16,0.51c0.02,0.18,0.2,0.35,0.38,0.3
							c0.05-0.02,0.09-0.05,0.14-0.08c0.34-0.25,0.68-0.5,1.02-0.76c0.27-0.2,0.54-0.4,0.77-0.65c0.59-0.63,0.79-1.55-0.28-1.13
							C412.16,39.03,411.47,39.87,411.06,40.54z"/>
						<path class="st39" d="M386.38,49.29c-0.15,0-0.32,0.03-0.4,0.15c-0.11,0.17,0.02,0.39,0.16,0.53c0.66,0.64,1.68,0.72,2.6,0.76
							c0.88,0.04,0.18-0.8-0.2-0.99C387.93,49.41,387.06,49.27,386.38,49.29z"/>
						<path class="st40" d="M369.39,56.3c-0.03,0.21-0.03,0.44,0.08,0.61c0.11,0.18,0.37,0.28,0.54,0.17
							c0.06-0.04,0.1-0.09,0.15-0.15c0.56-0.71,1.14-1.5,1.17-2.4c0-0.12-0.01-0.25-0.1-0.33C370.49,53.58,369.46,55.84,369.39,56.3
							z"/>
						<path class="st39" d="M405.31,34.03c0.09,0.09,0.21,0.18,0.33,0.14c0.07-0.02,0.12-0.09,0.16-0.16
							c0.23-0.43,0.15-0.98-0.1-1.4c-0.25-0.42-0.65-0.74-1.06-1c-0.65-0.41-0.79,0.26-0.61,0.74
							C404.24,32.96,404.86,33.59,405.31,34.03z"/>
						<path class="st39" d="M368.28,45.76c0.07,0.06,0.17,0.12,0.26,0.08c0.12-0.05,0.12-0.21,0.1-0.33
							c-0.12-0.73-0.36-1.44-0.71-2.09c-0.41-0.76-0.98-0.24-0.85,0.41C367.2,44.49,367.77,45.35,368.28,45.76z"/>
						<path class="st39" d="M412.42,46.46c0.17-0.13,0.36-0.28,0.57-0.27c0.09,0,0.18,0.04,0.22,0.12c0.03,0.05,0.02,0.12,0.01,0.17
							c-0.07,0.52-0.4,0.98-0.82,1.31c-0.34,0.26-1.74,1.15-1.62,0.16C410.85,47.41,412.02,46.78,412.42,46.46z"/>
						<path class="st40" d="M389.76,41.07c0.12-0.08,0.26-0.15,0.4-0.11c0.18,0.04,0.28,0.27,0.25,0.45
							c-0.03,0.19-0.15,0.34-0.28,0.49c-0.34,0.4-0.71,0.79-1.1,1.14c-0.71,0.65-0.92-0.09-0.59-0.66
							C388.75,41.85,389.25,41.39,389.76,41.07z"/>
						<path class="st37" d="M373.53,36.63c-0.15,0.18-0.3,0.37-0.33,0.6c-0.03,0.23,0.11,0.5,0.34,0.52
							c0.17,0.02,0.33-0.09,0.46-0.21c0.38-0.33,0.7-0.72,0.96-1.15c0.23-0.39,0.17-0.83-0.34-0.78
							C374.25,35.66,373.75,36.37,373.53,36.63z"/>
						<path class="st37" d="M380.95,52.72c-0.21-0.09-0.45-0.17-0.67-0.13s-0.44,0.26-0.4,0.48c0.03,0.17,0.19,0.29,0.34,0.38
							c0.43,0.26,0.9,0.45,1.38,0.56c0.44,0.1,0.84-0.09,0.64-0.56C382.1,53.12,381.27,52.86,380.95,52.72z"/>
						<path class="st40" d="M398.15,53.94c0.21-0.39,0.43-0.79,0.64-1.18c0.57-1.04,1.35-0.57,0.93,0.46
							c-0.14,0.34-0.36,0.63-0.58,0.92c-0.19,0.25-0.4,0.51-0.69,0.61c-0.1,0.03-0.23,0.04-0.29-0.04
							c-0.04-0.05-0.04-0.11-0.04-0.17c-0.01-0.21-0.02-0.42-0.03-0.63"/>
						<path class="st38" d="M398.41,34.97c0.04,0.07,0.08,0.13,0.15,0.16c0.19,0.07,0.32-0.2,0.34-0.41
							c0.05-0.53,0.06-1.06,0.04-1.59c-0.02-0.65-0.67-1.47-1.03-0.54C397.66,33.26,398.09,34.39,398.41,34.97z"/>
					</g>
				</g>
				<g>
					<g>
						<path class="st17" d="M385.27,62.61c1.7,1.05,3.98,0.65,5.09-1.05c0.23-0.36-0.35-0.7-0.58-0.34
							c-0.91,1.41-2.79,1.67-4.17,0.81C385.25,61.8,384.91,62.38,385.27,62.61L385.27,62.61z"/>
					</g>
				</g>
				<g>
					<g>
						<path class="st17" d="M398.8,59.66c1.7,1.05,3.98,0.65,5.09-1.05c0.23-0.36-0.35-0.7-0.58-0.34
							c-0.91,1.41-2.79,1.67-4.17,0.81C398.78,58.86,398.44,59.44,398.8,59.66L398.8,59.66z"/>
					</g>
				</g>
				<path class="st13" d="M393.53,63.46c-0.59-0.08-1.43-0.19-1.83,0.47c-0.27,0.45-0.12,1.11,0.21,1.49
					c0.34,0.38,0.82,0.55,1.29,0.65c1.25,0.28,2.75,0.32,3.94-0.26c0.51-0.25,0.98-0.64,1.24-1.2s0.24-1.31-0.14-1.76
					c-0.21-0.26-0.52-0.4-0.82-0.45c-0.79-0.12-1.11,0.37-1.7,0.77C395.07,63.64,394.28,63.56,393.53,63.46z"/>
			</g>
			<g>
				<path class="st9" d="M388.41,28.91c-0.8-2.24-0.81-4.66-0.4-6.96s1.21-4.52,2.01-6.72c0.61-1.68,1.29-3.45,2.77-4.55
					c0.64-0.08,1.05,0.69,0.98,1.29c-0.07,0.6-0.51,1.09-0.9,1.56c-3.31,3.88-4.76,10.62-4.54,15.64"/>
				<path class="st41" d="M380.11,27.54c-0.21,0.59-0.35,1.22-0.42,1.84c-0.27,2.37,0.44,4.77,1.89,6.48
					c2.71,3.19,7.06,3.53,10.15,0.22c1.73-1.86,4.22-7.25,1.58-9.39c-1.29-1.04-2.95-0.38-4.46-0.45c-1.62-0.07-2.93-1.22-4.5-1.56
					c-0.56-0.12-1.15-0.2-1.73-0.07C381.33,24.88,380.55,26.34,380.11,27.54z"/>
			</g>
			<path class="st3" d="M380.39,38.58c-0.17-0.96,0.86-1.69,1.79-2.01c2.91-1.02,6.26-0.68,8.91,0.9c0.29,0.17,0.59,0.39,0.65,0.72
				C392.33,41.14,381.52,38.87,380.39,38.58z"/>
		</g>
		<g>
			<path class="st0" d="M321.3,62.61c0.17-0.36,0.22-0.77,0.14-1.16"/>
			<g>
				<g>
					<path class="st21" d="M354.78,98.35c-4.25,0.39-8.56,0.86-12.8,1.63l-0.14,0.06c-3.49,2.53-6.81,5.32-10.03,8.12
						c-2.23,1.95-1.74,2.31-0.07,4.63c1.46,2.04,2.93,4.07,4.42,6.09c2.92,3.97,5.9,7.91,8.93,11.8c3.39,4.36,6.84,8.66,10.35,12.92
						c0.81,0.98,1.64,1.98,2.75,2.61c1.08,0.62,2.48,0.82,3.56,0.21c1.19-0.36,2.01-1.51,2.31-2.72c0.3-1.23,0.16-2.53,0.01-3.79
						c-0.64-5.48-1.37-10.95-2.18-16.41c-0.72-4.88-1.51-9.75-2.35-14.61c-0.43-2.47-0.88-4.94-1.34-7.4
						C357.65,98.69,357.73,98.08,354.78,98.35z"/>
					<path class="st42" d="M337.91,121.26c5.91-6.13,11.67-12.1,17.58-18.22"/>
					<path class="st42" d="M342.74,127.65c5.69-5.83,11.3-11.74,16.82-17.74"/>
					<path class="st42" d="M347.38,133.4c4.78-4.46,9.43-9.06,13.93-13.8"/>
					<path class="st42" d="M352.19,139.49c3.58-3.34,7.05-6.8,10.4-10.37"/>
					<path class="st42" d="M357.36,145.72c2.28-2.06,4.48-4.21,6.58-6.45"/>
					<path class="st42" d="M333.18,114.4c1.49-1.63,3.07-3.18,4.72-4.65"/>
					<path class="st42" d="M352.1,139.28c3.93,1.07,7.83,2.27,11.68,3.58"/>
					<path class="st42" d="M345.27,130.93c5.52,1.75,12.06,2.49,17.52,4.39"/>
					<path class="st42" d="M338.79,122.43c7.68,0.11,15.99,1.16,23.41,3.13"/>
					<path class="st42" d="M333.3,114.36c9.21,1.47,18.35,1.68,27.54,3.23"/>
					<path class="st42" d="M347.32,108.32c0.58-0.1,1.18-0.07,1.77-0.03c3.41,0.2,7.08,1.16,10.46,1.63"/>
					<path class="st42" d="M356.88,101.49c0.55,0.04,0.76-0.1,1.3,0.01"/>
					<path class="st0" d="M354.78,98.35c-4.25,0.39-8.56,0.86-12.8,1.63l-0.14,0.06c-3.49,2.53-6.81,5.32-10.03,8.12
						c-2.23,1.95-1.74,2.31-0.07,4.63c1.46,2.04,2.93,4.07,4.42,6.09c2.92,3.97,5.9,7.91,8.93,11.8c3.39,4.36,6.84,8.66,10.35,12.92
						c0.81,0.98,1.64,1.98,2.75,2.61c1.08,0.62,2.48,0.82,3.56,0.21c1.19-0.36,2.01-1.51,2.31-2.72c0.3-1.23,0.16-2.53,0.01-3.79
						c-0.64-5.48-1.37-10.95-2.18-16.41c-0.72-4.88-1.51-9.75-2.35-14.61c-0.43-2.47-0.88-4.94-1.34-7.4
						C357.65,98.69,357.73,98.08,354.78,98.35z"/>
				</g>
				<path class="st35" d="M358.79,90.25c-0.31-0.16-0.63-0.3-0.97-0.4c-0.1-1.2-0.04-2.48-0.36-3.63
					c-2.41-8.44-10.44-15.02-19.21-15.52c-8.76-0.5-17.58,5.26-20.45,13.56s0.49,18.55,7.96,23.15c0.2,0.12-0.05,0.27-0.34,0.81
					c-1.06,2.02,0.02,5.28,2.13,6.35c2.12,1.07,4.33,0.56,6.02-1.1c1.69-1.67,2.51-4.03,2.95-6.36c0.27,3.45,4.65,5.59,7.83,4.21
					c3.18-1.38,4.72-5.32,4.03-8.72c0.98,2.41,4.33,3.47,6.52,2.06c1.64-1.06,2.29-3.29,1.76-5.13c2.21,0.25,4.53-0.41,5.28-2.65
					c0.27-0.8,0.25-1.68,0.06-2.5C361.59,92.63,360.38,91.08,358.79,90.25z"/>
				<g>
					<g>
						<path class="st12" d="M325.52,96.32c0.01-1.46,0.96-2.9,2.35-3.41c1.39-0.52,3.01-0.09,4.01,1c0.29,0.32,0.77-0.16,0.47-0.47
							c-1.17-1.28-3.13-1.77-4.75-1.13c-1.63,0.64-2.73,2.28-2.75,4.02C324.84,96.76,325.51,96.76,325.52,96.32L325.52,96.32z"/>
					</g>
				</g>
				<g>
					<g>
						<path class="st12" d="M343.17,89.53c0.09-1.45,1.02-2.8,2.35-3.39c1.4-0.61,3.11-0.3,4.23,0.72c0.32,0.29,0.79-0.18,0.47-0.47
							c-1.33-1.2-3.31-1.58-4.96-0.86c-1.59,0.69-2.65,2.29-2.76,4C342.47,89.96,343.14,89.96,343.17,89.53L343.17,89.53z"/>
					</g>
				</g>
				<g>
					<g>
						<path class="st12" d="M335.37,93.72c-0.1,0.41,0.05,0.82,0.38,1.08c0.37,0.29,0.87,0.34,1.33,0.29
							c0.89-0.1,1.76-0.69,1.75-1.67c-0.21,0.06-0.42,0.11-0.62,0.17c0.42,0.85,1.67,0.53,2.27,0.09c0.74-0.55,0.99-1.6,0.36-2.33
							c-0.28-0.33-0.75,0.15-0.47,0.47c0.36,0.42,0.11,1.03-0.29,1.32c-0.28,0.2-1.07,0.55-1.29,0.11
							c-0.15-0.31-0.63-0.15-0.62,0.17c0,0.56-0.5,0.89-1.01,0.99c-0.33,0.06-1.29,0.07-1.14-0.51
							C336.13,93.48,335.48,93.3,335.37,93.72L335.37,93.72z"/>
					</g>
				</g>
				
					<ellipse transform="matrix(0.9196 -0.3929 0.3929 0.9196 -13.419 136.4379)" class="st43" cx="326.63" cy="101" rx="2.22" ry="1.39"/>
				
					<ellipse transform="matrix(0.9196 -0.3929 0.3929 0.9196 -7.3741 145.5171)" class="st43" cx="351.83" cy="90.77" rx="2.22" ry="1.39"/>
			</g>
			<path class="st44" d="M354.49,80.04c-0.15-0.25-0.25-0.33-0.42-0.57c-0.08-0.12-0.76-0.97-0.86-1.08
				c-0.67-0.77-1.39-1.51-2.13-2.18c-7.36-6.72-18.22-7.51-26.27-1.33c-7.02,5.38-9.67,13.54-7.08,21.73
				c0.19,0.61,0.71,1.04,1.35,1.05c0.99,0.03,1.53-1.14,1.73-2.11s0.47-2.15,1.42-2.44c0.54-0.17,1.14,0.03,1.67-0.18
				c0.69-0.27,0.96-1.09,1.18-1.8c0.58-1.81,1.76-3.75,3.65-3.95c1.51-0.16,2.86,0.86,4.08,1.75c1.23,0.9,2.74,1.77,4.18,1.28
				c1.23-0.41,1.95-1.68,2.4-2.9c0.45-1.22,0.79-2.54,1.68-3.48c0.33-0.35,0.76-0.64,1.25-0.65c0.8-0.01,1.54,0.74,2.29,0.48
				c1.04-0.36,0.71-2.04,1.49-2.82c0.65-0.65,1.78-0.37,2.5,0.19c0.72,0.57,1.25,1.37,2.03,1.84c1.28,0.77,4.03,0.36,4.37-1.29
				C355.15,80.9,355.05,80.88,354.49,80.04z"/>
			<path class="st45" d="M341.59,71.2c0.14,0.78-0.07,1.65-0.59,2.25s-1.31,0.95-2.1,0.98c-1.03,0.04-2.11-0.43-3.07-0.05
				c-0.83,0.32-1.32,1.19-1.58,2.04c-0.26,0.85-0.36,1.76-0.73,2.57c-0.81,1.76-3,2.75-4.86,2.19c-0.97-0.29-1.81-0.93-2.79-1.19
				c-1.46-0.37-3.13,0.27-3.96,1.52c-0.41,0.61-0.62,1.33-0.91,2.01c-0.29,0.68-0.68,1.36-1.32,1.72c-0.5,0.29-1.07,0.58-1.63,0.28
				c-0.16-0.08-0.3-0.21-0.37-0.36c-0.15-0.3,0.02-0.65,0.12-0.95c0.12-0.38,0.26-0.76,0.41-1.13c0.3-0.73,0.65-1.44,1.06-2.11
				c0.48-0.8,0.76-1.17,1.33-1.91c3.17-4.11,7.88-7.23,13.12-8.17c1.07-0.19,3.2-0.32,4.31-0.22
				C339.69,70.81,340.25,70.88,341.59,71.2z"/>
			<path class="st46" d="M339.15,76.45c0.01-0.33,0.24-0.64,0.55-0.76c0.08-0.03,0.17-0.05,0.26-0.04c0.09,0.01,0.17,0.05,0.24,0.09
				c0.63,0.34,0.8,1.11,0.1,1.52C339.78,77.57,339.12,76.99,339.15,76.45z"/>
			<path class="st46" d="M339.84,70.79c0.01-0.33,0.24-0.64,0.55-0.76c0.08-0.03,0.17-0.05,0.26-0.04c0.09,0.01,0.17,0.05,0.24,0.09
				c0.63,0.34,0.8,1.11,0.1,1.52C340.47,71.9,339.82,71.33,339.84,70.79z"/>
			<path class="st23" d="M328.5,81.53c0.01-0.33,0.24-0.64,0.55-0.76c0.08-0.03,0.17-0.05,0.26-0.04c0.09,0.01,0.17,0.05,0.24,0.09
				c0.63,0.34,0.8,1.11,0.1,1.52C329.13,82.64,328.48,82.07,328.5,81.53z"/>
			<path class="st23" d="M319.98,78.56c0.01-0.33,0.24-0.64,0.55-0.76c0.08-0.03,0.17-0.05,0.26-0.04c0.09,0.01,0.17,0.05,0.24,0.09
				c0.63,0.34,0.8,1.11,0.1,1.52C320.61,79.68,319.96,79.1,319.98,78.56z"/>
			<path class="st24" d="M318.19,86.33c0.01-0.33,0.24-0.64,0.55-0.76c0.08-0.03,0.17-0.05,0.26-0.04c0.09,0.01,0.17,0.05,0.24,0.09
				c0.63,0.34,0.8,1.11,0.1,1.52C318.82,87.44,318.17,86.87,318.19,86.33z"/>
			<path class="st44" d="M318.73,87.9c0.13-0.34,0.08-0.72,0.19-1.07c0.06-0.19,0.17-0.36,0.31-0.5c0.16-0.15,0.37-0.26,0.58-0.26
				c0.22,0.01,0.44,0.15,0.49,0.36c0.03,0.11,0.01,0.23-0.02,0.35c-0.18,0.68-0.65,1.25-1.11,1.79c-0.08,0.09-0.16,0.19-0.26,0.25
				c-0.19,0.12-0.67,0.16-0.73-0.14C318.12,88.45,318.64,88.15,318.73,87.9z"/>
			<path class="st45" d="M320.23,79.7c0.1-0.23,0.26-0.42,0.42-0.61c0.12-0.14,0.24-0.29,0.36-0.43c0.07-0.08,0.14-0.17,0.24-0.21
				c0.11-0.05,0.24-0.04,0.36-0.03c0.08,0.01,0.16,0.01,0.23,0.05c0.18,0.1,0.19,0.34,0.15,0.54c-0.12,0.55-0.56,1.01-1.1,1.15
				c-0.2,0.05-0.45,0.34-0.64,0.21C320.03,80.23,320.15,79.87,320.23,79.7z"/>
			<path class="st44" d="M329.09,81.96c0.12-0.06,0.24-0.13,0.37-0.14c0.31-0.01,0.53,0.32,0.84,0.39c0.06,0.01,0.12,0.02,0.18,0.04
				c0.19,0.07,0.27,0.31,0.21,0.51c-0.06,0.19-0.23,0.33-0.4,0.43c-0.32,0.18-0.68,0.26-1.05,0.3c-0.47,0.05-1.06-0.02-1.21-0.56
				C327.88,82.41,328.74,82.16,329.09,81.96z"/>
			<path class="st45" d="M339.84,71.45c0.15-0.1,0.36-0.13,0.53-0.07c0.06,0.02,0.11,0.06,0.17,0.06c0.15,0.01,0.25-0.14,0.39-0.21
				c0.17-0.08,0.38,0,0.52,0.12c0.06,0.05,0.11,0.12,0.12,0.2c0.02,0.13-0.07,0.25-0.17,0.35c-0.39,0.4-1.09,0.87-1.69,0.82
				C339.05,72.69,339.51,71.67,339.84,71.45z"/>
			<path class="st44" d="M339.2,77.84c-0.02-0.11-0.01-0.23,0.04-0.33c0.16-0.27,0.61-0.24,0.73-0.53c0.05-0.12,0.03-0.27,0.13-0.36
				c0.03-0.03,0.07-0.04,0.11-0.06c0.22-0.09,0.49-0.18,0.7-0.06c0.19,0.11,0.27,0.36,0.24,0.58s-0.15,0.42-0.25,0.61
				c-0.12,0.21-0.22,0.43-0.37,0.62c-0.07,0.08-0.14,0.16-0.24,0.21C339.82,78.8,339.27,78.28,339.2,77.84z"/>
			<g>
				<path class="st11" d="M321.85,73.52c-2.99-4.37-1.97-11.49,3.47-13.19c1.1-0.34,2.28-0.43,3.45-0.4
					c2.98,0.07,6.78,3.12,7.73,5.97c0.74,2.22-0.05,4.42-0.85,6.41c-1.31,3.26-5.6,5.27-9.02,4.49
					C324.53,76.32,322.93,75.1,321.85,73.52z"/>
				<g>
					<path class="st10" d="M333.35,71.91c1-0.68,1.66-1.82,1.62-2.97c-0.03-1.16-0.66-2.21-1.41-3.08
						c-0.76-0.89-1.64-1.66-2.67-2.18c-1.02-0.5-2.15-0.8-3.25-0.71c-1.1,0.08-2.13,0.5-2.95,1.21c-0.82,0.71-1.48,1.64-1.65,2.66
						c-0.4,2.03,0.94,4.31,2.47,5.77c0.78,0.71,1.75,0.93,2.79,0.74c1.01-0.22,2-0.8,2.71-1.59c0.73-0.79,1.18-1.78,1.01-2.78
						c-0.15-1.01-0.75-1.97-1.64-2.57c-0.88-0.6-2.04-0.89-3.1-0.73c-0.53,0.08-1.02,0.3-1.34,0.66c-0.32,0.36-0.44,0.88-0.4,1.42
						c0.08,1.07,0.76,2.2,1.8,2.62c0.52,0.22,1.12,0.16,1.57-0.2c0.46-0.33,0.75-0.95,0.56-1.54c0.26,0.56,0.04,1.28-0.43,1.71
						c-0.46,0.45-1.21,0.6-1.83,0.39c-1.26-0.4-2.13-1.59-2.36-2.89c-0.1-0.65,0.01-1.42,0.47-2c0.46-0.58,1.13-0.89,1.78-1.03
						c1.33-0.26,2.69,0,3.85,0.69c1.16,0.69,2.04,1.9,2.27,3.28c0.13,0.69,0.05,1.44-0.18,2.1c-0.23,0.67-0.61,1.24-1.05,1.75
						c-0.88,1.02-2.08,1.74-3.42,2.05c-0.68,0.14-1.4,0.15-2.1-0.03c-0.71-0.17-1.36-0.54-1.87-0.99c-1.02-0.93-1.71-1.97-2.29-3.15
						c-0.55-1.17-0.87-2.58-0.57-3.94c0.29-1.38,1.16-2.51,2.17-3.34c1.02-0.87,2.37-1.33,3.69-1.34c2.68-0.02,5.03,1.54,6.49,3.54
						c0.72,1,1.32,2.22,1.24,3.51C335.28,70.24,334.43,71.37,333.35,71.91z"/>
				</g>
			</g>
			<path class="st45" d="M326.1,77.83c-0.53-0.07-1.07-0.17-1.5-0.46c-0.43-0.29-0.7-0.83-0.51-1.28c0.24-0.57,1.04-0.73,1.71-0.71
				c1.03,0.04,2.08,0.31,3.06,0.01c1.17-0.36,1.89-1.46,2.99-1.98c0.44-0.21,0.93-0.32,1.43-0.32c0.44,0,2.5-0.44,2.8-0.14
				c0.51,0.52-1.31,1.88-1.56,2.54c-0.16,0.42-0.33,0.84-0.62,1.2c-0.5,0.62-1.33,0.96-2.15,1.08
				C330.05,78.02,327.78,78.06,326.1,77.83z"/>
			<path class="st23" d="M337.16,72.71c0.01-0.33,0.24-0.64,0.55-0.76c0.08-0.03,0.17-0.05,0.26-0.04c0.09,0.01,0.17,0.05,0.24,0.09
				c0.63,0.34,0.8,1.11,0.1,1.52C337.79,73.82,337.13,73.25,337.16,72.71z"/>
			<path class="st24" d="M332.95,75.18c0.01-0.33,0.24-0.64,0.55-0.76c0.08-0.03,0.17-0.05,0.26-0.04c0.09,0.01,0.17,0.05,0.24,0.09
				c0.63,0.34,0.8,1.11,0.1,1.52C333.58,76.3,332.93,75.72,332.95,75.18z"/>
			<path class="st45" d="M333.49,75.91c0.05-0.05,0.11-0.07,0.17-0.1c0.19-0.1,0.34-0.25,0.47-0.42c0.05-0.07,0.1-0.15,0.18-0.19
				c0.08-0.05,0.19-0.05,0.24,0.02c0.06,0.07,0.03,0.18-0.01,0.27c-0.12,0.29-0.24,0.59-0.47,0.81c-0.06,0.06-0.13,0.11-0.22,0.11
				c-0.08,0-0.15-0.03-0.23-0.05c-0.07-0.01-0.13,0.02-0.18,0.06C333.36,76.29,333.36,76.03,333.49,75.91z"/>
			<path class="st45" d="M337.36,72.96c0.06-0.01,0.12,0.01,0.18,0.03c0.19,0.04,0.39-0.04,0.59-0.03c0.33,0.02,0.62,0.31,0.63,0.63
				c0.01,0.33-0.28,0.64-0.61,0.64c-0.13,0-0.25-0.04-0.37-0.09c-0.27-0.09-0.88-0.18-0.97-0.5
				C336.74,73.41,337.13,72.98,337.36,72.96z"/>
			<path class="st46" d="M325.81,77.38c0.01-0.33,0.24-0.64,0.55-0.76c0.08-0.03,0.17-0.05,0.26-0.04c0.09,0.01,0.17,0.05,0.24,0.09
				c0.63,0.34,0.8,1.11,0.1,1.52C326.44,78.49,325.79,77.92,325.81,77.38z"/>
			<path class="st45" d="M326.43,77.9c0.08,0.04,0.16,0.11,0.25,0.12c0.09,0.01,0.18-0.03,0.27-0.06c0.3-0.07,0.63,0.2,0.62,0.51
				c-0.01,0.26-0.21,0.47-0.42,0.63c-0.12,0.09-0.25,0.16-0.39,0.19c-0.2,0.03-0.39-0.04-0.58-0.04c-0.19,0-0.38,0.05-0.56,0.08
				c-0.26,0.04-0.61,0.04-0.64-0.31c-0.02-0.29,0.39-0.68,0.58-0.86C325.78,77.94,326.12,77.75,326.43,77.9z"/>
			<path class="st24" d="M347.13,74.01c0.01-0.33,0.24-0.64,0.55-0.76c0.08-0.03,0.17-0.05,0.26-0.04c0.09,0.01,0.17,0.05,0.24,0.09
				c0.63,0.34,0.8,1.11,0.1,1.52C347.76,75.13,347.11,74.55,347.13,74.01z"/>
			<path class="st44" d="M346.83,74.48c0.13-0.15,0.32-0.3,0.52-0.27c0.18,0.03,0.32,0.19,0.5,0.24c0.14,0.04,0.3-0.01,0.44,0.05
				c0.14,0.06,0.21,0.23,0.2,0.38s-0.1,0.29-0.19,0.41c-0.23,0.29-0.57,0.53-0.94,0.52c-0.34-0.01-0.83-0.26-0.99-0.58
				C346.19,74.88,346.63,74.71,346.83,74.48z"/>
		</g>
		<path class="st6" d="M280.51,183.77c-1.17,0.55-2.19,1.45-2.97,2.58c1.22-0.18,2.43-0.36,3.65-0.54"/>
		<path class="st6" d="M264.2,187.48c1.01-0.04,2.03,0.14,2.99,0.53c0.38,0.15,0.76,0.36,0.98,0.73c-1.23,0.23-2.44,0.59-3.6,1.08
			c0.06-0.02,0.11-0.04,0.17-0.06"/>
	</g>
	<path id="Cadre_1_" class="st0" d="M427.68,223.01c0,0-152.07,10.47-215.78,10.47c-63.89,0-213.57-10.47-213.57-10.47V10.31
		c0,0,139.23-10.79,215.89-10.79c55.45,0,213.46,10.79,213.46,10.79V223.01z"/>
</g>
<g id="Canette_360_xB0_">
</g>
<g id="Canette">
</g>
<g id="Gourde_360_xB0_">
</g>
<g id="Gourde">
</g>
<g id="Mug_360_xB0_">
</g>
<g id="Mug">
</g>
<g id="Textes__x26__Nuancier" class="st145">
	<rect x="153.05" y="10.54" class="st146" width="186.58" height="33.33"/>
	<g class="st177">
		<g>
			<path class="st178" d="M34.14,77.52c-0.11,0-0.21,0-0.32,0c-13.25,0-23.99-15.74-23.99-28.99s10.74-28.99,23.99-28.99
				c0.11,0,0.21,0,0.32,0"/>
			<path class="st178" d="M111.32,10.23c1.54-0.24,3.13-0.36,4.74-0.36c17.04,0,30.86,19.82,30.86,36.86s-13.82,35.86-30.86,35.86
				c-0.92,0-1.83-0.04-2.73-0.12"/>
			<line class="st178" x1="33.82" y1="19.54" x2="113.51" y2="9.87"/>
			<line class="st178" x1="33.82" y1="77.52" x2="115.01" y2="82.59"/>
		</g>
		<g>
			<rect class="st179" width="147.19" height="82.59"/>
		</g>
	</g>
</g>
</svg>
