<svg viewBox="0 0 426 233" xmlns="http://www.w3.org/2000/svg" xmlns:xlink="http://www.w3.org/1999/xlink"><clipPath id="a"><path d="m352.801 129.093s2.445 2.52 7.724 2.637c1.218.027 2.968.389 4.764-.295 1.693-.645 3.253-1.194 4.137-1.874 7.484-5.749 5.472-11.234 5.472-11.234l.575-3.504-10.108-5.577-7.609-2.44-3.95 4.125-5.693 5.867-4.125 2.788-1.801 2.382-.548 2.038 5.772 3.293 4.661-1.026z"/></clipPath><path d="m36.637 219.843s83.103-68.657 231.205-51.71c112.539 12.877 138.078 48.716 138.078 48.716l-77.8 9.028-111.864 4.583-92.414-1.662-87.205-8.955z" fill="#ddd"/><path d="m46.253 201.245s-2.325.333-2.574-.773c-.266-1.181 1.875-1.957 1.875-1.957m-19.62-24.13s1.333-2.046 2.335-1.514c1.069.568.078 3.165.078 3.165m24.216-23.669s1.117-1.959 1.956-1.449c.895.544.065 3.03.065 3.03" fill="#e10918" stroke="#1d1d1b" stroke-miterlimit="10" stroke-width=".3"/><path d="m50.266 152.423s-.098-2.439 1.026-2.586c1.2-.156 1.897 2.534 1.897 2.534m-9.441 2.848s-1.496-1.93-.665-2.701c.887-.824 3.015.963 3.015.963" fill="#e10918" stroke="#1d1d1b" stroke-miterlimit="10" stroke-width=".3"/><path d="m310.565 177.962c26.721 7.195 48.726 15.123 77.235 29.877" style="fill:none;stroke:#1d1d1b;stroke-width:.3;stroke-linecap:round;stroke-linejoin:round;stroke-miterlimit:10"/><path d="m43.29 154.787s-6.064-2.658-1.971 1.353c0 0-7.154-3.887-.894 2.802 0 0-6.173-1.987-1.463 1.912 0 0-2.853-.207.083 2.398 0 0-2.056.66.044 2.528 0 0-1.243 1.15.239 2.256 0 0-.69 1.479.739 1.823 0 0-.985 1.084.739 1.429" fill="#e10918"/><path d="m44.947 214.397s3.448-6.896.75-8.096c-2.698-1.199 10.495-9.145 15.742-7.796 0 0 .899 5.847 4.647 7.347 3.748 1.499-21.139 8.545-21.139 8.545z" fill="#ddd"/><path d="m42.744 174.595s-2.641.39-3.655-.42-1.104-4.407-1.981-3.308-.993 6.683 3.872 8.25c0 0 2.286.994 3.107-1.618.82-2.612-1.343-2.904-1.343-2.904" fill="#e10918"/><path d="m43.2 174.544s-3.045 1.068-4.131-.46c-.752-1.058-1.083-3.994-1.96-2.895s.323 7.002 4.354 7.451" style="fill:none;stroke:#1d1d1b;stroke-width:.3;stroke-linecap:round;stroke-linejoin:round;stroke-miterlimit:10"/><path d="m71.264 222.061s-.196-3.143 3.437-3.928 7.854-.688 6.971 1.964c-.885 2.651-9.132 4.32-10.408 1.964zm69.9-12.817s-.196-3.142 3.436-3.927c3.633-.785 7.854-.688 6.971 1.964-.884 2.65-9.131 4.319-10.407 1.963z" fill="#a6adaa"/><path d="m122.479 200.932s-.107-1.358 1.874-1.697c1.981-.34 4.283-.298 3.801.849-.482 1.145-4.978 1.866-5.675.848z" fill="#6f6f6e"/><path d="m173.668 209.913s.502-3.11 4.836-2.888c4.335.223 9.138 1.465 7.515 3.804-1.623 2.338-11.437 1.722-12.351-.916zm143.193-3.844s.385-2.053 2.318-2.13c1.935-.076 4.026.487 3.179 2.096-.849 1.608-5.222 1.708-5.497.034z" fill="#a6adaa"/><path d="m169.681 184.169s7.705-1.083 9.269-.843c1.565.241 10.713 0 8.426 3.853s-21.186.723-17.695-3.01zm80.331 31.257s3.562-.757 4.286-.589 4.955 0 3.897 2.691c-1.057 2.692-9.797.506-8.183-2.102zm99.822-10.554s5.961.757 7.091 1.222c1.131.466 8.026 2.071 5.641 4.235-2.386 2.164-15.998-3.608-12.732-5.457z" fill="#6f6f6e"/><path d="m146.802 173.991c41.604-7.696 106.033-12.718 165.658 3.134" style="fill:none;stroke:#1d1d1b;stroke-width:.3;stroke-linecap:round;stroke-linejoin:round;stroke-miterlimit:10"/><path d="m6.563 130.842s-3.35-2.72.939-6.969c2.44-2.417 6.723.419 7.32 1.123s1.754 3.6-1.323 6.831-6.755-.373-6.936-.985z" fill="#1ca8e0"/><path d="m8.193 123.552c1.298-.433 3.504-.526 4.661.101 2.205 1.196 2.832 4.305 1.635 6.509a4.542 4.542 0 0 1 -6.157 1.827c-2.205-1.196-3.375-4.144-2.179-6.348.469-.865 2.056-2.024 2.98-2.455m53.271 80.783c23.553-10.311 59.547-24.505 91.692-30.723m-119.408 46.49s10.218-8.226 16.478-11.163m331.923 5.691s4.257-1.824 2.433-4.864c0 0 12.288 3.933 12.768 2.736.951-2.368-10.363-2.666-10.363-2.666m10.126 3.3s-2.138 3.929-.617 6.057m-30.062-19.577s1.514-1.917.908-2.926c-.605-1.009 2.522 2.522 3.935 1.815 1.412-.706-2.623-1.715-2.623-1.715m3.168 2.036s-1.311 1.752-.908 3.026m-299.121 8.366s5.135-3.438 5.96-1.754c.826 1.685-7.003 2.634-5.504.179m9.28 10.185s-9.148 6.365-10.723 3.39 11.644-6.002 9.039-1.549m61.228-12.5s6.434-3.539 8.042-1.608c1.609 1.93-10.295 4.825-8.042 1.608zm28.808-23.524s15.576-2.01 16.078 2.01c.503 4.02-22.61 2.01-14.571-4.02m77.538 34.208s6.765-1.721 7.202.025c.437 1.747-9.868 2.098-6.644-.993m114.436.081s4.851.855 4.373 2.583c-.477 1.729-6.9-1.618-3.622-3.256m-76.191-7.55s2.456-.446 3.573 0c1.116.447-4.913 2.903-3.127-.894m-166.25-6.82s2.457-.447 3.573 0c1.116.446-4.913 2.902-3.127-.894m61.114 12.777s-7.309.775-10.488-.78c-3.18-1.555 15.056-7.448 8.982 3.306m166.345-9.557s12.867 2.742 11.812 5.272c-1.055 2.531-14.976-4.64-10.547-4.429m-32.905-.633s1.688-.422 3.164.422c1.477.844-2.953 1.477-2.741.633m-45.442-23.207s-.427 1.603 3.205.748c1.933-.455 0-1.495 0-1.495" style="fill:none;stroke:#1d1d1b;stroke-width:.3;stroke-linecap:round;stroke-linejoin:round;stroke-miterlimit:10"/><path d="m256.518 74.873s5.241-10.517 12.996-9.402 9.876 11.771 9.651 13.863c-.225 2.093-3.194 8.559-13.372 8.552-10.177-.006-10.002-11.753-9.275-13.013z" fill="#f9ba05"/><path d="m271.131 66.108c2.754 1.464 6.377 4.964 7.159 7.862 1.489 5.524-2.665 11.447-8.189 12.937-5.524 1.489-11.21-1.782-12.698-7.306-1.489-5.524 1.544-12.092 7.068-13.581 2.168-.585 6.578.215 8.742 1.066" style="fill:none;stroke:#1d1d1b;stroke-width:.3;stroke-linecap:round;stroke-linejoin:round;stroke-miterlimit:10"/><path d="m256.244 76.384s-9.248 5.353-5.458 6.189c3.79.835 35.547-4.561 35.063-9.976 0 0-.406-3.093-9.063-1.747l.614.849s4.057.381 4.35 1.403c.294 1.021-30.956 14.081-25.459 4.982z" fill="#95bf1e"/><path d="m278.294 71.869c1.711.06 2.802.405 2.976 1.049.44 1.632-7.007 5.135-14.382 7.123s-11.885 1.709-12.326.076c-.168-.624.548-1.437 1.91-2.316" style="fill:none;stroke:#1d1d1b;stroke-width:.3;stroke-linecap:round;stroke-linejoin:round;stroke-miterlimit:10"/><path d="m258.863 75.787c-2.419.762-5.965 2.671-5.965 2.671-1.813 1.167-2.769 2.247-2.546 3.074.584 2.164 9.828 1.504 19.652-1.144s16.926-6.441 15.924-8.446c-.727-1.454-4.611-1.519-6.266-1.259-.937.147-1.535.336-2.47.491" style="fill:none;stroke:#1d1d1b;stroke-width:.3;stroke-linecap:round;stroke-linejoin:round;stroke-miterlimit:10"/><path d="m378.006 29.426c-6.625-4.502-17.637-5.668-23.305-.104-8.188 8.037-2.296 22.117.332 23.727 3.431 2.101 10.011 8.828 22.019 0 6.732-4.95 8.774-15.134 2.791-21.553-.769-.825-.831-1.386-1.837-2.07z" fill="#1ca8e0"/><path d="m353.346 31.475c-1.982 4.116-3.226 11.387-1.636 15.484 3.029 7.811 13.065 11.202 20.876 8.172s11.687-11.818 8.656-19.628c-3.029-7.811-12.302-12.934-20.112-9.904-3.065 1.189-7.577 5.955-9.395 8.835" style="fill:none;stroke:#1d1d1b;stroke-width:.3;stroke-linecap:round;stroke-linejoin:round;stroke-miterlimit:10"/><g fill="#95bf1e"><path d="m360.145 26.494s-.434.173-.086.867c.347.694.26.867.086 1.214-.173.347.867.607 1.041.086.174-.52-.954-1.04-.607-1.301.347-.259-.434-.866-.434-.866z"/><path d="m361.589 28.848s-.78.867-1.388.78c-.608-.086.26.174.347.781s.087.867-.606.867h-1.388s0 .78.174 1.214c.173.434.78.434.78.434s.867 1.041 1.04.173c.174-.867.261-1.214.694-1.301.434-.087.173-.52.606-.52s.607 0 .867-.087c.261-.086-.347 0 .261-.086.606-.087 1.571.826 1.371 1.526-.16.559.536-.659.536-.659s-1.475-.954-1.041-1.214 1.301.26 1.561.867 1.127 1.647 1.127 1.647-.347-1.301.347-1.214.954 1.561 2.168 1.474 1.041.26.954.867-1.041 1.041.173 2.254c1.215 1.214 2.081 1.734 2.168 3.208s1.041.26 1.561 0 2.341-.78 2.428-1.734-.78-1.734-1.127-1.474c-.348.26-.781.78-1.215.26-.434-.521-1.214-1.128-.867-1.647.348-.521 2.602 1.561 3.296 1.127.693-.434 0-.954 0-1.821s-1.128-2.081-1.647-1.821c-.521.26-1.561.173-1.908-.173-.347-.347-.867-.347-1.907-.521-1.041-.173-2.689.521-3.122-.867-.434-1.387-1.475-2.081-1.821-1.561-.347.521 2.689 1.127 3.209.607.52-.521 1.301-.867.52-1.301a12.761 12.761 0 0 1 -2.081-1.474c-.606-.521-2.167-1.214-2.428-.607-.26.607-.867.954-1.474 1.041s-2.081.868-2.168.955z"/><path d="m355.045 38.517c.238-.429 2.162-2.394 2.855-2.741s.566-1.725 1.087-1.985c.52-.26.606 0 1.301 0 .693 0 .78-.434 1.734-.521.954-.086 1.907.78 2.602 1.214.693.434.953.087 1.82.26.867.174 2.168.521 3.035 1.561.867 1.041 1.475 4.683 3.382 4.596 1.908-.086 2.168.347 1.127 1.474-1.04 1.127-2.688 1.214-2.601 3.122.086 1.908 1.474 2.602 0 3.729-1.475 1.127-.521 2.167-1.388 3.122-.867.954-1.994 2.948-3.469 2.688-1.474-.26-1.821-1.734-1.734-3.035.087-1.3.694-4.855.087-5.376s-3.122-3.555-3.902-3.642c-.78-.086-3.647.652-3.995.218-.346-.434-2.374-3.904-1.941-4.684zm17.036 12.79c0-.274.173-.607.347-1.301s.867-.607 1.388-1.214.78-.434.434.693c-.347 1.127-.434 2.602-1.128 2.688-.694.087-1.041-.693-1.041-.866z"/></g><g style="fill:none;stroke:#1d1d1b;stroke-width:.3;stroke-linecap:round;stroke-linejoin:round;stroke-miterlimit:10"><path d="m360.32 26.593s-.434.173-.087.867c.347.693.26.867.087 1.214-.174.347.867.607 1.04.087.174-.52-.953-1.041-.607-1.301.347-.26-.433-.867-.433-.867zm1.821 2.255s-.781.867-1.388.78c-.607-.086.26.174.347.781s.087.867-.607.867h-1.387s0 .78.173 1.214c.174.434.78.434.78.434s.867 1.041 1.041.173c.174-.867.26-1.214.693-1.301.434-.087.174-.52.607-.52s.606 0 .867-.087c.26-.086-.347 0 .26-.086.608-.087.938 1.125.738 1.825-.16.56.709-.78.709-.78s-1.45-1.064-1.017-1.325c.434-.26 1.737.193 1.998.8.26.607 1.127 1.647 1.127 1.647s-.347-1.301.347-1.214c.693.087.954 1.561 2.168 1.474s.34.331.253.938-.663.989.551 2.203 2.404 1.715 2.491 3.189 1.041.26 1.56 0c.521-.26 2.342-.78 2.429-1.734.086-.954-.781-1.734-1.128-1.474s-.78.78-1.214.26c-.434-.521-2.046-.979-1.699-1.5.347-.52 3.434 1.413 4.127.979.694-.434-.9-.978-.9-1.845s-.227-2.057-.747-1.797-1.56.173-1.907-.173c-.347-.347-.867-.347-1.908-.521-1.04-.173-3.234.627-3.668-.761s-.031-1.845-.378-1.325c-.348.52 1.792.785 2.312.265.52-.521.361-1.085-.419-1.518-.781-.434-.534-.736-1.142-1.256-.607-.521-2.168-1.214-2.428-.607s-.867.954-1.475 1.041c-.605.086-2.08.867-2.166.954z"/><path d="m355.609 37.458c.238-.429 1.194-1.463 1.889-1.81 1.012-.506 1.807-1.74 2.042-1.858.52-.26.606 0 1.301 0 .693 0 .78-.434 1.733-.521.954-.086 1.908.78 2.602 1.214s.954.087 1.821.26c.867.174 2.168.521 3.035 1.561.867 1.041 1.474 4.683 3.382 4.596 1.907-.086 1.255.309.215 1.436-1.041 1.127-1.775 1.252-1.689 3.16.087 1.908 1.475 2.602 0 3.729-1.474 1.127-.52 2.167-1.387 3.122-.867.954-1.995 2.948-3.469 2.688-1.475-.26-2.355-1.64-2.269-2.941.087-1.301.371-4.988-.235-5.508-.607-.52-2.266-3.517-3.046-3.604-.78-.086-3.611.339-3.958-.094-.347-.434-2.401-4.649-1.967-5.43zm17.024 13.849c0-.274.173-.607.347-1.301.173-.694.867-.607 1.388-1.214.52-.607.78-.434.434.693-.348 1.127-.434 2.602-1.128 2.688-.694.087-1.041-.693-1.041-.866z"/></g><path d="m98.519 129.906s.817-.793 2.355.569c.692.614 2.332 6.301 1.336 6.288s-5.086-3.842-3.691-6.857z" fill="#fff"/><path d="m109.12 204.116s-.232.588 3.488.417c3.721-.17.537-1.445-1.132-1.101m-15.5 2.399s2.093.239 2.166.473c.325 1.042-4.285 1.148-4.23.046" style="fill:none;stroke:#1d1d1b;stroke-width:.3;stroke-linecap:round;stroke-linejoin:round;stroke-miterlimit:10"/><path d="m32.776 121.472a1.428 1.428 0 1 1 -2.856 0 1.428 1.428 0 0 1 2.856 0zm172.418-48.308a1.427 1.427 0 1 1 -2.855.001 1.427 1.427 0 0 1 2.855-.001z" fill="#e10918"/><path d="m23.747 142.019a1.062 1.062 0 1 1 -2.124 0 1.062 1.062 0 0 1 2.124 0z" fill="#1d1d1b"/><circle cx="3.798" cy="44.161" fill="#f9ba05" r="1.633"/><path d="m421.049 54.931a1.271 1.271 0 1 1 -2.508.416 1.271 1.271 0 0 1 2.508-.416z" fill="#f9ba05"/><path d="m138.298 83.725a.793.793 0 1 1 -1.586 0 .793.793 0 0 1 1.586 0zm75.156 36.596a.794.794 0 1 1 -1.588 0 .794.794 0 0 1 1.588 0zm113.233-42.092a1.155 1.155 0 1 1 -2.31 0 1.155 1.155 0 0 1 2.31 0zm72.815 84.074a1.155 1.155 0 1 1 -2.311-.001 1.155 1.155 0 0 1 2.311.001z" fill="#1d1d1b"/><circle cx="177.661" cy="111.602" fill="#f9ba05" r="1.255"/><path d="m9.692 81.832a1.26 1.26 0 1 1 -2.521-.001 1.26 1.26 0 0 1 2.521.001zm402.452 119.653a.812.812 0 1 1 -1.623 0 .812.812 0 0 1 1.623 0z" fill="#95bf1e"/><path d="m361.551 62.098a.714.714 0 1 1 -1.428.002.714.714 0 0 1 1.428-.002zm-124.281-4.061a.715.715 0 1 1 -1.43 0 .715.715 0 0 1 1.43 0z" fill="#e10918"/><path d="m417 114.282a1.004 1.004 0 1 1 -2.008 0 1.004 1.004 0 0 1 2.008 0z" fill="#e20613"/><circle cx="130.772" cy="8.397" fill="#95bf1e" r=".73"/><path d="m82.604 164.524a.73.73 0 1 1 -1.46-.002.73.73 0 0 1 1.46.002zm100.602-149.063a.958.958 0 1 1 -1.916 0 .958.958 0 0 1 1.916 0zm-9.268 54.309a.958.958 0 1 1 -1.916 0 .958.958 0 0 1 1.916 0z" fill="#95bf1e"/><path d="m46.489 212.117s3.182-4.839-.818-6.752c0 0 15.531-4.373 15.207-5.954-.642-3.125-12.649 4.369-12.649 4.369m12.839-3.544s.48 5.573 3.533 6.745" style="fill:none;stroke:#1d1d1b;stroke-width:.3;stroke-linecap:round;stroke-linejoin:round;stroke-miterlimit:10"/><path d="m5.115 127.521s-1.361 1.368 2.963.636c4.325-.732 8.583-2.401 8.051-2.599-.532-.197-1.599.02-1.599.02" style="fill:none;stroke:#1d1d1b;stroke-width:.3;stroke-linecap:round;stroke-linejoin:round;stroke-miterlimit:10"/><path d="m5.53 126.738s-2.191.298-2.7 1.087c-.508.79 5.031 1.9 11.303-.571" style="fill:none;stroke:#1d1d1b;stroke-width:.3;stroke-linecap:round;stroke-linejoin:round;stroke-miterlimit:10"/><path d="m71.148 130.424a.713.713 0 1 1 -.634 1.276.713.713 0 0 1 .634-1.276zm334.674-96.099a.893.893 0 1 0 1.101 1.405.893.893 0 0 0 -1.101-1.405zm-148.415 25.792a.893.893 0 1 0 1.101 1.405.893.893 0 0 0 -1.101-1.405z" fill="#1d1d1b"/><path d="m254.082 126.343s9.461-1.22 15.969 17.274c7.225 20.528 5.102 26.531 5.102 26.531-.497.385-1.612.757-2.242.519-.683-.259-4.712-8.322-5.99-8.346-3.674-.066-6.292 1.774-6.292 1.774s2.099 12.257.372 12.632c-1.727.376-24.192-25.093-17.524-45.548" fill="#8b5123"/><path d="m245.521 152.241c3.429 8.786 7.85 17.628 15.219 24.26l.737-.737c0-3.684-.737-7.368-1.474-11.052 0-.737.737-1.474.737-1.474 2.21-1.475 4.421-2.211 6.631-1.475 2.947 1.475 3.684 5.896 5.895 8.843.737.736 2.211 0 2.211-.737.737-7.368-.737-14-2.886-20.398" style="fill:none;stroke:#1d1d1b;stroke-width:.3;stroke-linecap:round;stroke-linejoin:round;stroke-miterlimit:10"/><path d="m255.452 124.715s-.67 0-1.117.268-10.459 3.844-11.71 7.553l1.386 1.386 12.693-7.777z" style="fill:#1ca8e0;stroke:#1d1d1b;stroke-width:.3;stroke-linecap:round;stroke-linejoin:round;stroke-miterlimit:10"/><path d="m246.512 154.319s-.419 1.284-3.218-1.324c0 0 .882 5.077 4.89 4.993" style="fill:#8b5123;stroke:#1d1d1b;stroke-width:.3;stroke-linecap:round;stroke-linejoin:round;stroke-miterlimit:10"/><path d="m272.92 168.667.837 2.15m.531-2.375.21 1.986m-13.824 3.871.24 2.184m-1.269-2.226.602 1.739" style="fill:none;stroke:#1d1d1b;stroke-width:.3;stroke-linecap:round;stroke-linejoin:round;stroke-miterlimit:10"/><path d="m259.364 97.526c-.145-.879-.166-1.934.276-2.735.928-1.685 3.973-.294 2.814.939-.538.572-3.329.351-3.09 1.796z" fill="#fff" stroke="#1d1d1b" stroke-linejoin="round" stroke-miterlimit="10" stroke-width=".3"/><path d="m238.766 113.13s.543 1.25 1.019 3.622c1.183 5.895 2.504 13.544 4.641 16.062 0 0 4.469 1.892 7.371-1.115s5.455-21.202 5.057-25.136c-.398-3.933-2.822-7.636-3.716-.981l-.345 4.716s-4.857-.196-9.31 1.272c-1.286.424-4.435-7.391-6.521-7.13-2.125.265-.224 5.442 1.804 8.69" fill="#8b5123"/><path d="m243.356 116.797c.008.237-.53.864-.911.673-.682-.343.163-.861.518-.859.279.001.389.082.393.186z" style="fill:none;stroke:#1d1d1b;stroke-width:.3;stroke-linecap:round;stroke-linejoin:round;stroke-miterlimit:10"/><path d="m254.285 116.136c.016.687-.257 1.418-.821 2.031-1.335 1.453-4.199 3.6-5.041 1.693-1.082-2.45 1.817-6.5 3.967-5.948 1.237.319 1.871 1.225 1.895 2.224z" fill="#1d1d1b"/><path d="m250.4 115.807c.025.053.372.438.368.457-.034.163-.329.607-.856.592-1.402-.04-.806-.951.27-1.087a.416.416 0 0 1 .21.028" fill="#fff"/><path d="m249.884 116.05c.017.036.252.297.249.31a.604.604 0 0 1 -.58.401c-.951-.027-.547-.645.183-.737.052-.006.1.001.143.019" fill="#1d1d1b"/><path d="m250.334 131.353a.063.063 0 1 1 -.125.015.062.062 0 0 1 .055-.07.063.063 0 0 1 .07.055zm-4.641.446a.062.062 0 0 1 -.055.07.063.063 0 1 1 -.016-.125.064.064 0 0 1 .071.055zm.425-.808a.063.063 0 0 1 -.055.07.063.063 0 1 1 -.016-.125.065.065 0 0 1 .071.055zm-1.249.257a.063.063 0 1 1 -.125.015.063.063 0 1 1 .125-.015zm6.243-.493a.062.062 0 0 1 -.055.07.062.062 0 0 1 -.07-.055.063.063 0 0 1 .125-.015zm-1.049-.746a.063.063 0 0 1 -.055.07.065.065 0 0 1 -.071-.055.062.062 0 0 1 .055-.07.064.064 0 0 1 .071.055z" fill="none" stroke="#1d1d1b" stroke-miterlimit="10" stroke-width=".3"/><path d="m239.526 112.042s.194 1.483.545 3.671c.85 5.299 2.615 14.733 4.751 17.252 0 0 3.393 1.826 6.295-1.181s7.091-21.715 6.693-25.649-3.411-7.164-3.963-1.243l-.558 5.592s-5.862-.691-10.487 1.171c-1.256.506-4.038-5.511-5.703-6.794-1.665-1.284-1.115 5.373 1.894 8.779" style="fill:none;stroke:#1d1d1b;stroke-width:.3;stroke-linecap:round;stroke-linejoin:round;stroke-miterlimit:10"/><path d="m241.779 116.196 1.685-.923m7.97-2.009 1.912.196" style="fill:#fff;stroke:#1d1d1b;stroke-width:.3;stroke-linecap:round;stroke-linejoin:round;stroke-miterlimit:10"/><path d="m248.456 130.08s-.34 2.377-1.723 1.283" style="fill:#f29fb4;stroke:#1d1d1b;stroke-width:.3;stroke-linecap:round;stroke-linejoin:round;stroke-miterlimit:10"/><path d="m242.546 116.819.146.641-.38-.242zm36.827 71.431s1.197-.064 2.719-.011c2.515.087 5.914.491 6.252 2.024.544 2.46-4.35 4.697-9.243 4.026l-4.894-.671zm1.625.264-4.97 5.242m-1.201-5.843-4.97 5.243m13.927-4.751-5.55 5.885m7.738-5.293-4.755 5.306m-4.151-6.007-4.648 4.876s-3.803.671-4.026-.672c-.224-1.342 2.635-5.099 8.674-4.204zm10.191 1.82s-2.25 4.43-9.202 3.271m-28.404 2.907s-2.948-3.091-1.346-5.125m1.021 3.209s-1.292-3.059 1.04-3.881" style="fill:none;stroke:#1d1d1b;stroke-width:.3;stroke-linecap:round;stroke-linejoin:round;stroke-miterlimit:10"/><path d="m254.158 176.911s-8.387 7.765-8.243 10.007c0 0 5.824 1.989 6.768 3.091s-3.856 2.015-1.373 4.889c2.483 2.875 5.666 4.035 10.035-1.929 0 0 3.116-5.309 2.814-5.887 0 0-7.176-9.929-10.001-10.171z" fill="#1ca8e0"/><path d="m246.667 187.02s7.434 2.509 7.222 3.334c-.212.826-3.283 1.787-2.545 3.474s3.868 5.626 9.805-1.477l3.018-3.935.379.588-2.572 3.559s-1.284-.544-1.509-.427m3.123-4.418s-6.628-9.543-9.778-9.827" style="fill:none;stroke:#1d1d1b;stroke-width:.3;stroke-linecap:round;stroke-linejoin:round;stroke-miterlimit:10"/><path d="m246.726 186.995s8.67-7.289 8.229-9.888-8.706 8.003-8.706 8.003m8.668-8.263s5.478.102-4.82 8.711" style="fill:none;stroke:#1d1d1b;stroke-width:.3;stroke-linecap:round;stroke-linejoin:round;stroke-miterlimit:10"/><path d="m273.082 142.91s-10.117-22.006-17.54-18.194c0 0 .888 14.019-12.559 7.572 0 0-5.089 9.761.765 20.493 0 0 9.808-1.396 9.808.261" fill="#1ca8e0"/><path d="m247.079 174.396s-10.137-1.021-9.488 2.479c.649 3.498 17.394-.974 8.406-4.739" style="fill:none;stroke:#1d1d1b;stroke-width:.3;stroke-linecap:round;stroke-linejoin:round;stroke-miterlimit:10"/><path d="m248.086 143.762c.787-.057 1.381-.711 1.327-1.462s-.736-1.314-1.523-1.257c-.787.058-1.381.712-1.327 1.463.054.75.736 1.313 1.523 1.256zm7.035 41.25c.787-.058 1.381-.712 1.327-1.463-.054-.75-.736-1.312-1.523-1.256-.787.057-1.381.711-1.327 1.462s.736 1.314 1.523 1.257z" fill="#e10918"/><path d="m247.959 143.766a1.225 1.225 0 0 0 -.176-2.443c-.674.049-1.419.575-1.371 1.25s.873 1.242 1.547 1.193z" style="fill:none;stroke:#1d1d1b;stroke-width:.3;stroke-linecap:round;stroke-linejoin:round;stroke-miterlimit:10"/><path d="m272.586 142.998s2.943 8.033 1.842 9.701c-3.93 5.956-23.532 10.655-24.637 10.655s-4.959-12.742-4.959-12.742" fill="#1ca8e0"/><path d="m274.186 152.001s-4.974 7.553-25.789 10.685c0 0-1.312-.627.736-1.843" style="fill:none;stroke:#1d1d1b;stroke-width:.3;stroke-linecap:round;stroke-linejoin:round;stroke-miterlimit:10"/><path d="m250.872 152.02c.3.089 1.68.377 1.974.493.011.004.213.041.225.045.441 3.012.226 4.917-.977 5.021-1.607.139-3.495-2.631-5.03-5.564 1.634.032 2.183.176 3.808.005z" fill="#8b5123"/><path d="m246.842 152.424c.86 1.324 2.981 4.951 4.998 4.649 1.864-.278 1.416-3.166 1.256-4.496m-1.852 3.363.422.984m.463-1.015.183 1.008" style="fill:none;stroke:#1d1d1b;stroke-width:.3;stroke-linecap:round;stroke-linejoin:round;stroke-miterlimit:10"/><path d="m266.908 146.13c1.158-1.448 2.68-2.456 4.369-3.148 1.744 2.894 2.896 5.449 2.324 6.478-1.012 1.821-4.162-.231-7.195-2.895.177-.11.349-.244.502-.435z" fill="#8b5123"/><path d="m272.337 148.776.637 1.064m-1.159-.844.222.914m.986-1.491.792.772m-1.874-5.74c.697 1.228 2.906 4.49 1.836 5.994-1.719 2.415-5.565-1.957-6.453-3.131m-13.198-19.71c.834-.286 1.151-.344 2.018-.192m17.185 16.136s-6.879 2.637-6.879 4.295" style="fill:none;stroke:#1d1d1b;stroke-width:.3;stroke-linecap:round;stroke-linejoin:round;stroke-miterlimit:10"/><path d="m273.266 142.974s-9.21-18.604-17.684-18.236c0 0 .638 14.391-12.809 7.944 0 0-3.769 9.74 1.204 19.502 0 0 9.763-.737 9.763.921" style="fill:none;stroke:#1d1d1b;stroke-width:.3;stroke-linecap:round;stroke-linejoin:round;stroke-miterlimit:10"/><path d="m267.503 163.363s9.708-2.463 9.26-3.517c0 0-.284 4.755.229 5.755.513.999 2.574-2.172 3.905.45s1.229 5.242-4.326 6.624c0 0-4.717.676-5.043.289.001 0-4.68-7.505-4.025-9.601z" fill="#1ca8e0"/><path d="m276.532 160.9s-.299 5.577.354 5.667c.654.091 2.243-1.828 3.235-.804.992 1.023 2.896 4.421-3.934 6.591l-3.705 1.008.311.444 3.304-.799s-.013-1.08.137-1.206m.633-10.641s.505 1.727-8.041 3.2m3.327 8.383s-4.893-7.548-4.172-9.888" style="fill:none;stroke:#1d1d1b;stroke-width:.3;stroke-linecap:round;stroke-linejoin:round;stroke-miterlimit:10"/><g style="fill:none;stroke:#1d1d1b;stroke-width:.3;stroke-linecap:round;stroke-linejoin:round;stroke-miterlimit:10"><path d="m267.875 114.668c.092 1.106.157 2.86.058 4.086-.59 7.284-9.158 16.018-16.256 18.51-11.281 3.96-21.019-6.133-22.527-17.066-3.554-25.765 36.806-28.717 38.725-5.53z"/><path d="m265.181 110.976s2.202 3.784.294 7.485l-1.471-.281s1.54-.74 1.379-4.921m-33.696 11.571s-3.086-6.411.475-12.166l1.29.796s-3.733 2.833-1.626 10.129"/></g><path d="m252.266 133.948s7.812 10.231 11.421 25.605m4.911 3.807s8.129-2.304 7.778-3.099c-.35-.796-1.51-.65-1.51-.65m-2.171-18.455s0-1.334-1.185-1.038c-1.186.297-6.669 2.075-6.965 5.483m-10.374 6.669s.641-2.678-4.89-2.816c-5.928-.148-6.817 1.778-6.817 1.778s-.608.654 1.129.47m9.131-2.142s-.703-5.296-.54-5.891" style="fill:none;stroke:#1d1d1b;stroke-width:.3;stroke-linecap:round;stroke-linejoin:round;stroke-miterlimit:10"/><path d="m266.286 146.023c-.551-.601-6.794-6.768-5.479-7.293.536-.215 1.233.911 1.233 1.661m-16.76 11.392c3.476 11.559 3.619 10.056 4.305 10.97m23.05-19.649s2.361 6.596 2.222 9.512m-5.337-1.957s-2.963 1.679-3.555.987c-.593-.691-1.777-3.259-1.777-3.259m-7.901.297s2.435 5.49 1.58 6.122c-.774.573-1.876 1.284-4.246 1.383" style="fill:none;stroke:#1d1d1b;stroke-width:.3;stroke-linecap:round;stroke-linejoin:round;stroke-miterlimit:10"/><path d="m271.404 166.749c.787-.057 1.381-.712 1.327-1.462-.054-.751-.736-1.313-1.523-1.257-.787.057-1.381.712-1.327 1.462.054.751.736 1.313 1.523 1.257z" fill="#e10918"/><path d="m272.186 164.788a.894.894 0 1 1 -1.367 1.152.894.894 0 0 1 1.367-1.152z" style="fill:none;stroke:#1d1d1b;stroke-width:.3;stroke-linecap:round;stroke-linejoin:round;stroke-miterlimit:10"/><ellipse cx="362.177" cy="119.553" fill="#bcbebc" rx="20.095" ry="19.815"/><path d="m352.703 112.031 2.779.926-1.503 3.576-2.737-1.09zm14.623 4.384 2.95.891-.615 3.706-3.727-1.131z" fill="#e10918"/><path d="m356.046 112.633 3.375.958-1.343 3.4-3.639-.83z" fill="#f9ba05"/><path d="m348.897 114.48 25.753 8.472m-26.62-6.176 25.111 7.602" style="fill:#9cc31a;stroke:#1d1d1b;stroke-width:.3;stroke-linecap:round;stroke-linejoin:round;stroke-miterlimit:10"/><path d="m364.833 112.924 2.754.765-.776 2.837-2.891-.845z" fill="#9cc31a"/><path d="m356.749 110.214-3.319 8.098m14.067-4.365-1.648 8.604m-4.061-10.691-1.65 8.603m10.251-5.695-.803 8.325m-15.75-13.844-3.351 8.221m9.466-5.885-2.934 6.306m-3.872-9.022 20.845 7.27m-22.871-4.835 23.25 7.904" style="fill:#9cc31a;stroke:#1d1d1b;stroke-width:.3;stroke-linecap:round;stroke-linejoin:round;stroke-miterlimit:10"/><path d="m329.773 126.197s-13.44-6.886-25.462 40.565c0 0 15.185-12.337 18.98-12.653 0 0 4.901-24.432 6.482-27.912z" fill="#f9ba05"/><path d="m316.819 152.746c0 1.266-.979 2.291-2.186 2.291s-2.185-1.025-2.185-2.291.978-2.292 2.185-2.292 2.186 1.026 2.186 2.292z" fill="#e10918"/><path d="m375.633 147.149s5.461 2.753 5.062 10.439c-1.266 24.358-22.91 39.818-22.91 39.818s5.195-23.052.767-30.012z" fill="#f9ba05"/><path d="m366.466 85.64 14.413-5.738s4.972 8.084 4.972 10.93c0 0-8.284-5.619-19.385-5.192z" fill="#7a7979"/><path d="m334.126 168.653-5.222 7.767s-1.458 4.434 8.435 4.819l2.41-10.309" style="fill:none;stroke:#1d1d1b;stroke-width:.3;stroke-linecap:round;stroke-linejoin:round;stroke-miterlimit:10"/><path d="m331.051 177.442s-6.249 1.418-7.844 6.587l2.869-1.058s-4.834 2.954-4.134 8.285l3.17-2.591s-4.392 4.386-2.815 9.744l3.262-3.169s-2.839 4.574-2.208 6.773c0 0 5.051-1.533 6.74-7.159l1.646 2.546s.551-1.684.402-3.621l.977 1.343s.636-.381.892-3.564c0 0-.012 2.025.753 2.21.075-.591.168-1.872.298-2.453.275-1.23 1.157-2.195 1.526-3.396.783-2.551.577-6.56-.32-9.063" fill="#f9b300"/><path d="m374.767 148.348s6.597 1.244 4.415 15.162c-2.181 13.919-20.848 32.689-20.848 32.689s3.104-19.575.026-27.089m-25.443-41.548s-7.762-3.404-14.474 3.612-14.171 36.841-14.171 36.841 16.387-14.51 20.478-13.324" style="fill:none;stroke:#1d1d1b;stroke-width:.3;stroke-linecap:round;stroke-linejoin:round;stroke-miterlimit:10"/><path d="m330.301 177.753s-4.212 1.116-5.623 5.087l2.613-.896s-4.048 4.573-3.858 7.047l2.176-1.716s-3.318 5.231-2.117 8.759l2.533-2.648s-2.29 3.726-1.704 5.769c0 0 4.346-.899 5.915-6.127l1.062 1.729s.804-1.646.666-3.444l1.046 1.503s.641-.727.879-3.686c0 0-.125 2.139.586 2.31.046-.358.178-.806.377-1.7.255-1.144 1.075-2.04 1.418-3.154.728-2.371.663-5.704-.171-8.03" fill="#ec7409"/><path d="m328.245 176.314c3.33-.539 6.868-.054 9.595 2.012.551.418.682.393.973 1.039.302.671-.588 1.442-1.565 1.622m-9.126-2.933c-.177.035 7.848-2.43 9.608 1.727" style="fill:none;stroke:#1d1d1b;stroke-width:.3;stroke-linecap:round;stroke-linejoin:round;stroke-miterlimit:10"/><path d="m378.644 81.636 5.029-8.112-2.577 9.41s.288-.865-2.452-1.298z" style="fill:#7a7979;stroke:#1d1d1b;stroke-width:.3;stroke-linecap:round;stroke-linejoin:round;stroke-miterlimit:10"/><path d="m366.974 85.743s17.645 2.562 19.069 5.123c.772 1.391-.712 1.423-.712 1.423m-68.521 60.253a1.964 1.964 0 1 1 -3.928 0c0-1.084.757-2.337 1.842-2.337s2.086 1.253 2.086 2.337z" style="fill:none;stroke:#1d1d1b;stroke-width:.3;stroke-linecap:round;stroke-linejoin:round;stroke-miterlimit:10"/><path d="m367.542 181.29c0 1.085-1.804 2.681-2.889 2.681a1.964 1.964 0 0 1 -1.964-1.964c0-1.085.489-2.754 1.553-2.967 1.751-.35 3.3 1.166 3.3 2.25z" fill="#e10918"/><path d="m366.975 181.462c0 1.084-.629 2.434-1.714 2.434-1.084 0-2.768-1.685-2.768-2.77 0-1.084 1.434-1.628 2.518-1.628a1.966 1.966 0 0 1 1.964 1.964zm-42.691-53.856s-.364 6.007.546 7.464m-4.188-5.826s2.367 9.285 3.459 10.013m-5.807-9.027s.666 5.325 4.897 11.212m55.888 11.469s-4.915 1.456-6.189 1.639m6.372 1.091-7.101.729m7.283 2.002s-8.213.822-10.033.459m-68.445.896s-1.785 6.069-.357 7.498m-1.087-7.069s-2.439 4.938-1.18 6.337" style="fill:none;stroke:#1d1d1b;stroke-width:.3;stroke-linecap:round;stroke-linejoin:round;stroke-miterlimit:10"/><path d="m380.507 79.753-5.792 1.519c-52.416 23.901-54.968 81.571-54.968 81.571 20.373 17.227 35.397 16.699 35.397 16.699 58.375-58.2 25.363-99.789 25.363-99.789zm-19.379 52.76c-8.02 0-14.528-6.403-14.528-13.945 0-7.543 6.502-13.657 14.521-13.657s14.522 6.114 14.522 13.657c0 7.542-6.494 13.945-14.515 13.945z" fill="#e10918"/><path d="m322.817 145.125.938-3.957s22.596 18.951 44.983 19.472c0 0-3.229 4.895-3.645 4.79 0-.001-24.157-1.354-42.276-20.305z" fill="#fff"/><path d="m323.951 141.296s16.067 17.673 43.738 19.28m-44.452-15.354s8.033 13.39 41.417 19.816" style="fill:none;stroke:#1d1d1b;stroke-width:.3;stroke-linecap:round;stroke-linejoin:round;stroke-miterlimit:10"/><path d="m355.646 176.705c53.365-58.832 24.202-95.276 24.202-95.276-56.604 12.945-59.831 79.101-59.831 79.101s9.683 14.538 37.417 16.162c0 0 1.586-1.542-1.107-3.323" style="fill:none;stroke:#1d1d1b;stroke-width:.3;stroke-linecap:round;stroke-linejoin:round;stroke-miterlimit:10"/><circle cx="327.538" cy="147.278" fill="#1d1d1b" r=".536"/><path d="m362.445 162.11a.536.536 0 1 1 -1.072 0 .536.536 0 0 1 1.072 0zm-9.05-2a.536.536 0 1 1 -1.072 0 .536.536 0 0 1 1.072 0z" fill="#1d1d1b"/><circle cx="334.663" cy="152.448" fill="#1d1d1b" r=".536"/><path d="m344.231 156.898c0 .416-.3.754-.67.754s-.67-.338-.67-.754c0-.417.3-.754.67-.754s.67.337.67.754z" fill="#1d1d1b"/><path d="m398.283 94.889a.81.81 0 1 1 -1.622 0 .81.81 0 0 1 1.622 0z" fill="#95bf1e"/><path d="m376.343 117.506c.621 8.08-5.319 14.858-13.77 15.507-8.45.649-16.211-5.076-16.831-13.156-.621-8.08 5.726-15.156 14.177-15.805 8.45-.649 15.804 5.374 16.424 13.454z" fill="none" stroke="#7a7979" stroke-miterlimit="10" stroke-width="3"/><path d="m345.478 115.649s4.429-16.96 20.907-11.349c16.478 5.612 13.342 24.479 4.204 28.619-9.138 4.141-29.692 1.422-25.111-17.27z" style="fill:none;stroke:#1d1d1b;stroke-width:.3;stroke-linecap:round;stroke-linejoin:round;stroke-miterlimit:10"/><path d="m348.51 115.995s3.685-14.337 17.449-9.579c13.766 4.758 11.162 20.709 3.534 24.202-7.627 3.494-24.793 1.178-20.983-14.623z" style="fill:none;stroke:#1d1d1b;stroke-width:.3;stroke-linecap:round;stroke-linejoin:round;stroke-miterlimit:10"/><path d="m348.877 112.479a.578.578 0 1 1 -1.152.088.578.578 0 0 1 1.152-.088zm26.308 14.874a.576.576 0 1 1 -1.142.155.576.576 0 0 1 1.142-.155zm-20.128 4.411a.577.577 0 1 1 -1.15.09.577.577 0 0 1 1.15-.09zm1.312-26.49a.577.577 0 1 1 -1.15.089.577.577 0 0 1 1.15-.089zm10.875 27.613a.577.577 0 1 1 -1.15.09.577.577 0 0 1 1.15-.09zm10.318-14.824a.578.578 0 1 1 -1.152.088.578.578 0 0 1 1.152-.088z" fill="#1d1d1b"/><path d="m331.542 177.442s-5.898.634-7.492 5.803l2.518-.273s-5.677 2.622-4.976 7.954l4.012-2.26s-4.272 3.923-2.695 9.282l3.143-2.707s-3.861 4.546-3.23 6.744c0 0 6.074-1.504 7.763-7.13l.796 2.785s1.401-1.924 1.253-3.86l.81 2.104s.315-.985.571-4.169c0 0 .476 1.868 1.24 2.053.075-.591.168-1.872.298-2.453.275-1.23.639-2.307 1.007-3.506.783-2.551.547-6.669-.351-9.173" style="fill:none;stroke:#1d1d1b;stroke-width:.3;stroke-linecap:round;stroke-linejoin:round;stroke-miterlimit:10"/><path d="m331.999 177.624c-.945.193-2.941 1.937-3.698 2.592-.434.377-1.107 1.142-1.254 1.267l1.559-.191s-3.421 3.073-3.034 5.22l2.171-1.307s-2.377 2.311-1.534 5.27c0 0 1.375-1.963 2.072-1.903 0 0 .595 1.989.161 2.359 0 0 2.917-1.429 3.247-3.14 0 0 .48.739.352 1.532 0 0 2.075-1.176 2.463-3.415.135-.778.092-.47.092-.47s.429 1.048.356 1.713c.976-1.648 1.914-3.775 1.837-5.708-.029-.759-.046-2.689-.665-3.173-.616-.482-1.431-.821-2.186-.789-.201.007.218-.3-1.939.143z" fill="#e10918"/><path d="m331.681 177.943s-2.863 1.689-3.923 3.555l.919-.07s-2.656 3.013-2.536 4.576l.885-.517s-.535 2.062-.708 4.323c0 0 1.576-2.031 2.274-1.973 0 0 .745 2.19.311 2.561 0 0 1.953-1.02 2.283-2.731 0 0 .427.667.299 1.46 0 0 1.715-1.115 2.103-3.354.135-.778.127-1.003.127-1.003s.691 1.499.618 2.163c0 0 2.583-4.03 1.416-6.396" style="fill:none;stroke:#1d1d1b;stroke-width:.3;stroke-linecap:round;stroke-linejoin:round;stroke-miterlimit:10"/><path d="m62.316 171.021s7.454-12.296 5.37-12.574c-1.539-.205-3.605 3.214-3.605 3.214" style="fill:#ec7409;stroke:#1d1d1b;stroke-width:.3;stroke-linecap:round;stroke-linejoin:round;stroke-miterlimit:10"/><path d="m62.905 158.382s4.18-9.072 2.902-10.993c-1.278-1.92-7.98 5.896-7.98 5.896" fill="#ec7409"/><path d="m62.826 158.253s4.79-8.59 3.512-10.51c-1.278-1.921-8.398 5.657-8.398 5.657" style="fill:none;stroke:#1d1d1b;stroke-width:.3;stroke-linecap:round;stroke-linejoin:round;stroke-miterlimit:10"/><path d="m57.13 180.96c5.978-3.606 8.44-13.622 6.877-19.426-1.448-5.377-5.805-11.552-14.219-10.099-4.923.85-9.213 5.303-10.302 10.24-1.276 5.788 3.386 13.223.773 18.779-3.479.759-7.711-2.301-10.977-4.729-6.864-5.103-9.29 2.793-8.369 4.635.901 1.803 3.874-2.143 4.193-1.323 1.194 3.067 6.4 5.817 8.673 6.476 2 .579 11.517 1.408 11.557 1.448 1.375 1.375-1.802 13.237 2.029 16.867 2.688 2.546 10.708-1.451 4.088-6.971-3.102-2.586-2.901-10.723 5.677-15.897z" fill="#ec7409"/><path d="m57.418 180.618c4.008-4.468 6.918-12.744 6.399-18.732-.602-6.938-8.769-11.767-15.05-10.171-4.843 1.23-7.646 5.331-8.735 10.269-1.277 5.789 3.792 13.55 1.179 19.106-3.479.759-9.305-1.64-12.036-4.657-5.301-5.857-7.584 1.747-7.747 3.8-.08.996 3.899-1.88 4.201-1.077 2.446 6.51 11.815 6.878 17.498 7.281.149.011 2.746.12 2.75.377.104 6.652-.095 13.73 1.178 16.095 1.469 2.729 11.723.976 3.577-6.695-2.942-2.771.499-8.586 6.786-15.596z" style="fill:none;stroke:#1d1d1b;stroke-width:.3;stroke-linecap:round;stroke-linejoin:round;stroke-miterlimit:10"/><path d="m59.24 157.881c-.857.164-1.602.771-1.738 1.902a2.352 2.352 0 1 0 4.67.564c.178-1.474-2.262-2.598-3.46-2.721" style="fill:#fff;stroke:#1d1d1b;stroke-width:.3;stroke-linecap:round;stroke-linejoin:round;stroke-miterlimit:10"/><path d="m59.741 161.133c-.044.364.294.884.659.928.364.044.879-.278.923-.643.044-.364-.479-.821-.843-.865a.665.665 0 0 0 -.739.58z" fill="#1d1d1b"/><path d="m53.193 157.662c-1.122.6-1.8 1.621-1.602 2.951.253 1.691 1.289 3.707 4.081 2.725 1.702-.6 2.297-1.712 2.044-3.403a3.096 3.096 0 0 0 -3.52-2.604c-.046.007-1.618.255-1.664.264" style="fill:#fff;stroke:#1d1d1b;stroke-width:.3;stroke-linecap:round;stroke-linejoin:round;stroke-miterlimit:10"/><path d="m53.772 160.132c.071.477.183 2.177 2.311 1.46.458-.154.514-.93.443-1.407s-.568-1.123-1.046-1.052c-.478.072-1.779.522-1.708.999z" fill="#1d1d1b"/><path d="m44.771 163.853s1.285 7.314-.181 7.397c-1.688.096-1.501-1.346-3.265-6.006" style="fill:none;stroke:#1d1d1b;stroke-width:.3;stroke-linecap:round;stroke-linejoin:round;stroke-miterlimit:10"/><path d="m50.895 151.757s-6.052-8.178-7.473-6.668c-1.581 1.679 2 10.896 2 10.896" fill="#ec7409"/><path d="m51.064 151.986s-4.488-7.479-6.757-6.985c-2.27.493.638 9.855.638 9.855" style="fill:none;stroke:#1d1d1b;stroke-width:.3;stroke-linecap:round;stroke-linejoin:round;stroke-miterlimit:10"/><path d="m51.324 161.329c-.148-1.322.271-4.355 2.477-4.723 3.046-.51 4.033 1.664 4.247 3.491l-6.22 1.418s-.075-.213-.152-.552" fill="#e10918" stroke="#1d1d1b" stroke-miterlimit="10" stroke-width=".3"/><path d="m62.315 159.777s-4.368.528-5.334.316c0 0 .137-3.04 2.875-2.992 1.228.022 3.075 1.741 2.459 2.676z" fill="#e10918" stroke="#1d1d1b" stroke-miterlimit="10" stroke-width=".3"/><path d="m47.623 153.108s-2.467-7.97-3.847-7.399m-19.149 37.03s-.392-1.959-3.179-.459-2.376-1.456-3.815-1.302-1.76.553-4.646-1.248" style="fill:none;stroke:#1d1d1b;stroke-width:.3;stroke-linecap:round;stroke-linejoin:round;stroke-miterlimit:10"/><path d="m97.054 142.751-1.531 63.945 1.289.109 1.866-60.236 12.002 57.516 1.523-.086-12.77-58.664" style="fill:#616261;stroke:#1d1d1b;stroke-width:.3;stroke-linecap:round;stroke-linejoin:round;stroke-miterlimit:10"/><path d="m60.91 160.426 41.413-29.709s1.35-1.08 3.094 1.073c2.013 2.484 2.924 8.381.566 9.749-2.357 1.369-43.619 21.47-43.619 21.47s-2.477-1.101-1.454-2.583z" fill="#616261"/><path d="m60.876 161.338 41.111-29.729s-1.119 5.275 3.043 7.641 1.367-9.125-1.835-8.311" style="fill:none;stroke:#1d1d1b;stroke-width:.3;stroke-linecap:round;stroke-linejoin:round;stroke-miterlimit:10"/><path d="m104.556 140.887-42.595 21.926s-2.084-1.559-.972-2.807" style="fill:none;stroke:#1d1d1b;stroke-width:.3;stroke-linecap:round;stroke-linejoin:round;stroke-miterlimit:10"/><path d="m96.732 169.462 6.411-2.129 1.217 1.235-6.41 1.753" style="fill:#616261;stroke:#1d1d1b;stroke-width:.3;stroke-linecap:round;stroke-linejoin:round;stroke-miterlimit:10"/><path d="m95.737 143.3s.233-.307.436.053c.534.947 1.617 3.02 3.372 1.301l1.467-.654s.01.617-.303 1.064c-.293.418-4.218 3.91-4.972-1.764z" fill="#1d1d1b"/><path d="m89.851 139.603s-2.057.512-.702 3.417c1.354 2.906 4.489 5.872 6.104 4.636 0 0-6.151-3.541-5.402-8.053" fill="#fff"/><g stroke="#1d1d1b" stroke-width=".3"><path d="m91.286 139.089s-3.388.384-1.311 3.58c2.078 3.196 5.239 5.478 5.353 4.146" fill="none" stroke-linecap="round" stroke-linejoin="round" stroke-miterlimit="10"/><path d="m89.37 139.882s-1.546.967.047 3.756c1.594 2.789 4.771 4.705 5.723 3.734" fill="none" stroke-linecap="round" stroke-linejoin="round" stroke-miterlimit="10"/><path d="m51.428 156.4s1.757-.75 2.075-.798m5.912.498 1.083.319" fill="#f9ba05" stroke-linecap="round" stroke-linejoin="round" stroke-miterlimit="10"/><path d="m55.993 166.833-.645 2.487-2.395-1.013 1.357-2.12m7.828.072 1.984 2.468-2.514.596-.817-2.359" fill="#fff" stroke-linecap="round" stroke-linejoin="round" stroke-miterlimit="10"/><path d="m43.704 154.663s-6.257-2.809-1.521 1.94c0 0-9.355-3.84-1.345 2.214 0 0-6.464-2.283-.772 2.104 0 0-4.297-.654-.389 2.501 0 0-2.274.366-.174 2.234 0 0-1.308 1.493.466 2.281 0 0-1.084 1.43.394 1.626 0 0-.985 1.232.443 1.528" fill="none" stroke-linecap="round" stroke-linejoin="round" stroke-miterlimit="10"/><path d="m64.329 157.613s.65 1.302 1.383 1.058c.732-.244 2.685-2.521 2.359-3.173-.326-.651-3.254.895-3.742 2.115z" fill="#ec7409" stroke-linecap="round" stroke-linejoin="round" stroke-miterlimit="10"/><path d="m51.993 165.829-.698 2.017-1.863-1.382 1.661-1.533" fill="#fff" stroke-linecap="round" stroke-linejoin="round" stroke-miterlimit="10"/><path d="m45.561 161.669s4.283 10.061 11.16 9.202c0 0 3.394-.849 2.415-3.72" fill="none" stroke-linecap="round" stroke-linejoin="round" stroke-miterlimit="10"/><path d="m58.175 166.963-.82 2.438 2.874.655-.276-2.947m-11.758-3.334-1.606 1.487-.659-1.779 1.488-.714" fill="#fff" stroke-linecap="round" stroke-linejoin="round" stroke-miterlimit="10"/><path d="m45.58 161.522s9.099 8.246 18.19 4.524" fill="none" stroke-linecap="round" stroke-linejoin="round" stroke-miterlimit="10"/><path d="m56.915 170.613-.229-1.927 2.036-.056-.488 1.426m-6.532-.681.349-1.296 1.864.113-.953 1.829m-3.194-2.304.626-.967 1.535.796-1.046 1.111" fill="#fff" stroke-linecap="round" stroke-linejoin="round" stroke-miterlimit="10"/></g><path d="m102.841 135.018s-.497-3.518.497-3.395c.993.124 4.139 4.719 3.146 6.707 0 0-2.567 1.407-3.643-3.312z" fill="#1ca8e0"/><path d="m103.456 136.563s1.056 2.016 2.452 2.078" style="fill:none;stroke:#1d1d1b;stroke-width:.3;stroke-linecap:round;stroke-linejoin:round;stroke-miterlimit:10"/><path d="m225.814 211.68s-1.729 5.172.447 5.537c2.176.366 3.1-5.525 3.1-5.525zm-3.219-.377s-1.59 3.912.173 4.37l2.753-4.255zm-22.39-5.69s-1.457 4.496.375 4.897c1.267.277 1.314-1.393 1.314-1.393s.631 1.354 1.713.809c1.082-.547 1.895-3.443 1.895-3.443z" fill="#f9b300"/><path d="m198.299 204.413s5.105-7.064 11.92-7.115c6.358-.048 21.497 4.568 20.896 15.792.001-.001-34.195-5.725-32.816-8.677z" fill="#f9b300"/><path d="m209.363 200.863s.765-1.386 2.301-.846c1.536.541 3.367 1.517 3.041 3.349-.326 1.831-1.69 2.166-2.756 1.961-1.067-.204-4.072-2.39-2.586-4.464z" fill="#fff"/><path d="m198.607 204.897s1.363-9.983 17.099-5.934c15.735 4.05 15.014 14.209 15.014 14.209" style="fill:none;stroke:#1d1d1b;stroke-width:.3;stroke-linecap:round;stroke-linejoin:round;stroke-miterlimit:10"/><path d="m209.559 203.713s-.951-3.712 1.766-3.557 3.494 3.425 2.901 4.149c-.593.725-3.054 1.429-4.667-.592z" style="fill:none;stroke:#1d1d1b;stroke-width:.3;stroke-linecap:round;stroke-linejoin:round;stroke-miterlimit:10"/><path d="m212.305 202.783s-.387.824-.077 1.375c.212.377 1.058.584 1.365.512 1.479-.349.659-3.295-1.288-1.887z" fill="#1d1d1b"/><path d="m197.756 203.972s-1.695.64 2.449 1.641 32.392 8.767 31.333 7.095" style="fill:none;stroke:#1d1d1b;stroke-width:.3;stroke-linecap:round;stroke-linejoin:round;stroke-miterlimit:10"/><path d="m200.655 205.837s-1.616 3.882-.223 4.06c1.394.177 1.745-3.847 1.745-3.847m24.414 5.721s-1.976 4.605-.181 4.854 2.141-4.56 2.141-4.56m-15.949-13.199s-1.93-.393-2.575.585m10.679-1.067s2.176.356 2.042 1.909m-19.896 5.637s-1.047 3.228-.138 3.797c.909.57 2.047-3.379 2.047-3.379m18.213 5.061s-1.327 3.471-.075 3.762c1.252.29 1.863-3.483 1.863-3.483m5.758 7.335s-3.992 1.844-5.577 1.719m5.29-2.929s-2.334 1.972-3.431 1.922" style="fill:none;stroke:#1d1d1b;stroke-width:.3;stroke-linecap:round;stroke-linejoin:round;stroke-miterlimit:10"/><path d="m216.552 200.819s.993-1.777 3.01-1.071 4.422 1.976 4.008 4.329c-.414 2.354-2.198 2.774-3.598 2.504-1.399-.271-5.913-.012-3.42-5.762z" fill="#fff"/><path d="m215.977 204.687s-.444-4.79 2.748-4.737c1.968.032 5.349 2.627 4.281 4.936s-6.592 1.368-7.688-.957" style="fill:none;stroke:#1d1d1b;stroke-width:.3;stroke-linecap:round;stroke-linejoin:round;stroke-miterlimit:10"/><path d="m218.926 204.437s1.262-.116 1.477-.623c.557-1.313.247-3.914-1.409-3.979-2.294-.091-4 3.724-.068 4.602z" fill="#1d1d1b"/><path d="m208.356 199.441a6.825 6.825 0 0 0 1.917 1.402c.697.349 1.504.628 2.277.731.679.09 1.503-.048 2.025.512.501.537.327 1.102-.236 1.527-1.462 1.102-6.382 1-8.265-1.421" style="fill:#f9b300;stroke:#1d1d1b;stroke-width:.3;stroke-linecap:round;stroke-linejoin:round;stroke-miterlimit:10"/><path d="m223.848 202.794s-1.71 3.11-5.249 3.381c0 0-1.81.496-.236 1.43 1.575.934 6.454.287 8.057-2.328" style="fill:none;stroke:#1d1d1b;stroke-width:.3;stroke-linecap:round;stroke-linejoin:round;stroke-miterlimit:10"/><path d="m216.589 208.62-.765 1.996-.994-.326.645-1.935m-1.826-.875-1.069 1.998-1.294-.323.556-2.267m-.449.14.444-1.356-1.204-.294-.571 1.627m5.169 1.366.444-1.356-1.204-.294-.654 1.387" style="fill:#fff;stroke:#1d1d1b;stroke-width:.3;stroke-linecap:round;stroke-linejoin:round;stroke-miterlimit:10"/><path d="m216.736 209.277s-.881-1.588-7.739-2.327m-6.903-11.294s.366 2.056-.65 1.907c-1.017-.149-.997.225-1.499 1.115-.502.891-1.244-.627-1.728 1.156" style="fill:none;stroke:#1d1d1b;stroke-width:.3;stroke-linecap:round;stroke-linejoin:round;stroke-miterlimit:10"/><path d="m254.219 184.052c.295.564.919.944 1.484.648.565-.295.7-1.339.405-1.904-.295-.564-.813-.385-1.378-.089-.566.296-.806.78-.511 1.345z" style="fill:none;stroke:#1d1d1b;stroke-width:.3;stroke-linecap:round;stroke-linejoin:round;stroke-miterlimit:10"/><path d="m49.454 88.69c-.035.255-.301.557-.531.526s-.578-.427-.543-.682.456-.6.686-.569.423.471.388.725z" fill="#1d1d1b"/><path d="m52.329 90.782s-1.696-2.276-2.927-1.964m.108.809s-.099.048-.248.095c-.447.14-1.346.262-1.383-.991-.05-1.671 1.324-.655 1.324-.655s1.186 1.327-.109 2.124m-1.707-1.742s-.225-2.232 1.106-1.821" style="fill:none;stroke:#1d1d1b;stroke-width:.3;stroke-linecap:round;stroke-linejoin:round;stroke-miterlimit:10"/><path d="m48.342 94.098s.922-2.874 3.729-3.585c2.807-.712 6.694-2.19 9.577 3.915 0 0 1.004 9.653-4.805 11.885 0-.001-11.51 1.918-8.501-12.215z" fill="#f9ba05"/><path d="m51.593 105.021s-.117 4.974.798 4.858c.914-.115 2.456-3.671 2.456-3.671m2.026-.606s2.03 3.714 3.001 3.075c.972-.638-.472-5.529-.472-5.529" fill="#9cc31a"/><path d="m49.795 91.921c-2.045 2.563-1.949 7.634-.056 11.036 1.073 1.929 2.958 3.261 5.43 3.399 2.535.142 4.46-1.822 5.389-3.772 1.679-3.526 2.336-8.309-.805-11.256-1.55-1.455-3.892-1.375-5.858-.946 0 0-3.671.649-4.109 2.798m6.755-2.567s.125-2.09 1.376-2.688" style="fill:none;stroke:#1d1d1b;stroke-width:.3;stroke-linecap:round;stroke-linejoin:round;stroke-miterlimit:10"/><path d="m57.081 87.577s.245.967 1.169.92c.923-.047 1.202-2.247.059-1.957s-.969 1.195-.969 1.195m.431-2.229s1.466-.124 2.089 1.049" style="fill:none;stroke:#1d1d1b;stroke-width:.3;stroke-linecap:round;stroke-linejoin:round;stroke-miterlimit:10"/><path d="m58.136 87.253c-.314.363-.033.855.35 1.022.484.212 1.01-.235.732-.767-.167-.32-.803-.576-1.082-.255z" fill="#1d1d1b"/><path d="m51.883 105.172s-.196 4.726.87 4.325 1.157-3.612 1.157-3.612m3.145-.527s2.333 4.214 2.729 2.767-.466-3.973-.466-3.973m-4.593-12.667s-.139.878.59.772c.328-.047.341-.292.115-.485-.28-.238-.647-.07-.957-.001" style="fill:none;stroke:#1d1d1b;stroke-width:.3;stroke-linecap:round;stroke-linejoin:round;stroke-miterlimit:10"/><path d="m72.925 107.628a.794.794 0 1 1 -1.579.169.794.794 0 0 1 1.579-.169z" fill="#e10918"/><path d="m65.214 99.17s17.074 2.937 21.005 8.64c1.374 1.992-4.756 5.876-12.934 6.144-14.578.476-33.308-2.04-47.062-6.359 0 0-24.623-6.099-9.842-9.917 0 0 18.151-4.386 27.485-1.219 0 0-.591 1.519 1.533 2.385 2.125.866 20.42 5.962 19.815.326z" fill="#e10918"/><path d="m78.232 106.944s-1.485-.618-2.246.162c-.761.781-1.689 1.943.253 1.49 1.967-.459 2.403-.752 1.993-1.652z" fill="#fff"/><path d="m43.62 96.455c-15.267-2.57-26.483 1.277-26.483 1.277s-10.621 3.483 2.449 8.04" style="fill:none;stroke:#1d1d1b;stroke-width:.3;stroke-linecap:round;stroke-linejoin:round;stroke-miterlimit:10"/><path d="m66.783 102.154a.575.575 0 0 0 .201.788c.273.162.875.321 1.038.048.162-.273-.178-.874-.451-1.036a.574.574 0 0 0 -.788.2zm-4.023 2.731c-.162.273.11.629.383.791a.575.575 0 0 0 .587-.989c-.273-.161-.808-.075-.97.198zm-7.903-.612c-.162.273-.214.863.059 1.025s.767-.166.929-.438a.575.575 0 0 0 -.988-.587zm-9.759-1.947c-.277.154-.619.638-.465.916.154.277.746.243 1.023.088a.575.575 0 0 0 -.558-1.004zm-4.509-4.98c-.316-.029-.871.179-.899.495-.029.316.479.621.795.649a.575.575 0 1 0 .104-1.144z" fill="#1d1d1b"/><path d="m64.898 101.515s.027.571-2.69.749c-3.16.207-10.039.211-19.714-4.255m12.667 16.798 2.55 5.47m-3.557-4.247.183 2.788m-3.735-5.421-1.722 3.712m35.825-7.546c-.712 3.563-6.141 4.147-9.014 4.461-6.708.733-13.72.145-20.382-.769-3.607-.494-7.199-1.087-10.796-1.648-6.271-.978-12.5-2.23-18.631-3.878m39.393-7.687s16.867 2.797 21.112 9.106" style="fill:none;stroke:#1d1d1b;stroke-width:.3;stroke-linecap:round;stroke-linejoin:round;stroke-miterlimit:10"/><path d="m84.281 108.029s1.612 3.729-9.182 4.575c-10.794.847-40.301-1.758-54.999-8.111m44.798-2.978s6.86-16.08-7.393-19.582c-10.208-2.508-15.967 8.57-13.438 15.785" style="fill:none;stroke:#1d1d1b;stroke-width:.3;stroke-linecap:round;stroke-linejoin:round;stroke-miterlimit:10"/><path d="m77.801 107.724s.244-1.336-1.496-.411c-1.739.925-.868 1.405 1.414.579m-54.541-10.82s2.003.084 1.12.507-3.77.763-3.423.179c.346-.584 2.303-.686 2.303-.686zm42.18 3.844s.815.717.177 1.269c-.955.826-2.488 1.08-3.646 1.172-6.21.5-12.926-.77-18.391-3.828-.41-.229-2.448-1.527-1.425-2.273" style="fill:none;stroke:#1d1d1b;stroke-width:.3;stroke-linecap:round;stroke-linejoin:round;stroke-miterlimit:10"/><path d="m98.292 93.745a.633.633 0 1 0 1.238-.264.633.633 0 0 0 -1.238.264z" fill="#1d1d1b"/><path d="m156.745 64.143s-7.706-2.196-10.594 2.038 1.633 10.044 2.742 10.86 5.54 2.24 10.034-2.674c4.493-4.914-1.253-10.019-2.182-10.224z" fill="#a6adaa"/><path d="m146.061 67.321c-.51 1.976-.422 5.27.631 6.927 2.008 3.159 6.7 3.771 9.859 1.764a6.777 6.777 0 0 0 2.085-9.354c-2.008-3.159-6.517-4.597-9.675-2.589-1.24.788-2.802 3.269-3.348 4.689" style="fill:none;stroke:#1d1d1b;stroke-width:.3;stroke-linecap:round;stroke-linejoin:round;stroke-miterlimit:10"/><path d="m147.78 69.421a1.255 1.255 0 1 0 2.455-.52 1.255 1.255 0 0 0 -2.455.52z" fill="#f9ba05"/><path d="m335.306 21.454a.881.881 0 1 0 1.724-.366.881.881 0 0 0 -1.724.366z" fill="#1d1d1b"/><path d="m309.296 13.267a1.077 1.077 0 1 0 2.106-.446 1.077 1.077 0 0 0 -2.106.446z" fill="#f9ba05"/><path d="m21.891 83.261a.812.812 0 1 0 1.587-.338.812.812 0 0 0 -1.587.338z" fill="#95bf1e"/><path d="m5.995 99.867s-3.488 2.388 1.723 5.199m-.622-4.638s-2.303 2.986 2.893 3.938" style="fill:none;stroke:#1d1d1b;stroke-width:.3;stroke-linecap:round;stroke-linejoin:round;stroke-miterlimit:10"/><path d="m143.625 133.048c-3.376-1.558-6.555-2.981-6.72-2.893-.357.191-1.609.491-1.614-.039-.007-.734 1.006-.605.733-.665-.273-.061-1.351-.253-1.067-.753.435-.768 1.481-.003 1.481-.003s-1.353-.791-.532-1.16c.82-.369 1.823 1.43 1.823 1.43s5.19 3.086 5.939 3.468" style="fill:#9cc31a;stroke:#1d1d1b;stroke-width:.3;stroke-linecap:round;stroke-linejoin:round;stroke-miterlimit:10"/><path d="m143.886 129.434c.54-.214 1.345-.104 1.77.013 2.603.721 4.871 2.338 6.177 4.716.358.653.796 1.363.964 2.099l.552-.699c-.651-2.856-2.985-5.781-5.581-7.116-1.579-.812-3.905-1.585-5.497-.448-.909.749-.152 2.075 1.615 1.435z" style="fill:#f19eb3;stroke:#1d1d1b;stroke-width:.3;stroke-linecap:round;stroke-linejoin:round;stroke-miterlimit:10"/><path d="m204.511 153.757s1.701-2.962 2.314.492c0 0 .793-3.715 1.433-.24m-2.279-7.534c1.512 3.686 2.627-1.529 2.627-1.529 2.884 4.101 3.612-1.314 3.612-1.314 3.651 4.983 3.96-1.15 3.96-1.15 1.864 4.254 3.984.001 3.984.001s-15.555.647-14.183 3.992z" style="fill:#fff;stroke:#1d1d1b;stroke-width:.3;stroke-linecap:round;stroke-linejoin:round;stroke-miterlimit:10"/><path d="m204.283 149.438s7.982-.696 7.139 3.737c0 0-.374.462-.777-.171-.404-.633-1.236-3.385-6.402-2.76" style="fill:#f19eb3;stroke:#1d1d1b;stroke-width:.3;stroke-linecap:round;stroke-linejoin:round;stroke-miterlimit:10"/><path d="m195.229 158.535c-.316-.008-8.685 7.855-8.685 7.855s.853 1.752.717 2.44c-.122.62-1.02.246-1.79-1.57 0 0-.405-.881-.085-1.53.12-.244 7.462-8.817 7.771-8.493.31.323 2.389 1.305 2.072 1.298z" fill="#e10918"/><path d="m194.472 158.784c-1.186.009-8.329 7.814-8.329 7.814s1.301 2.177.636 1.951c-1.215-.414-1.159-2.443-1.159-2.443s6.171-7.53 7.608-8.458" style="fill:none;stroke:#1d1d1b;stroke-width:.3;stroke-linecap:round;stroke-linejoin:round;stroke-miterlimit:10"/><path d="m187.356 146.719c-.446.363-38.616-3.87-42.745-6.895-1.599-1.171-1.948-4.477-1.399-6.575.062-.24.252-.462.295-.425 5.425 4.711 9.201-1.052 9.545-2.74.695-3.416-4.797-5.429-4.797-5.429.034.013.107-.006.145-.008.463-.027.922-.083 1.382-.142.607-.078 1.24-.155 1.843-.003 3.023.764 4.4 7.935 2.879 12.517-.641 1.933 32.175 9.276 32.576 8.642" fill="#9cc31a"/><path d="m187.439 146.474c-.447.363-38.343-4.276-42.473-7.302-1.599-1.171-1.8-4.065-1.453-6.206.004-.026.208-.849.252-.812 5.424 4.712 9.244-.665 9.588-2.352.695-3.417-4.797-5.429-4.797-5.429.034.012.107-.006.145-.008.464-.027.922-.083 1.382-.143.607-.077 1.24-.155 1.843-.002 3.023.764 3.199 8.697 1.679 13.28-.641 1.933 32.78 8.369 33.458 8.302" style="fill:none;stroke:#1d1d1b;stroke-width:.3;stroke-linecap:round;stroke-linejoin:round;stroke-miterlimit:10"/><path d="m143.766 132.155c.201-.158 1.615-.82 2.104-.374.49.447-.239 1.509-.239 1.509s1.421-1.398 1.945-1.207c.524.192.333 1.803.333 1.803s.862-2.409 1.472-1.663.512 1.425.512 1.425" style="fill:none;stroke:#1d1d1b;stroke-width:.3;stroke-linecap:round;stroke-linejoin:round;stroke-miterlimit:10"/><path d="m148.672 124.428s-.7 2.615.213 2.773c.876.151 2.038-1.446 2.038-1.446s-1.241 2.14-.346 2.468c.896.328 1.715-1.12 1.715-1.12" style="fill:#fff;stroke:#1d1d1b;stroke-width:.3;stroke-linecap:round;stroke-linejoin:round;stroke-miterlimit:10"/><path d="m152.888 120.949a2.152 2.152 0 1 1 -.947 4.2 2.153 2.153 0 1 1 .947-4.2z" fill="#fff" stroke="#1d1d1b" stroke-miterlimit="10" stroke-width=".3"/><path d="m151.213 121.361a1.367 1.367 0 1 1 -.601 2.667 1.367 1.367 0 0 1 .601-2.667z" fill="#1d1d1b"/><path d="m151.605 119.509s1.155-.856 3.045.425" style="fill:#fff;stroke:#1d1d1b;stroke-width:.3;stroke-linecap:round;stroke-linejoin:round;stroke-miterlimit:10"/><path d="m192.265 158.495c-.183.017-.314-.131-.379-.489-.068-.377-.167-.752-.253-1.125-.467-2.018-.793-4.326-2.556-5.682-1.786-1.373-4.071-.695-5.785.438-2.544 1.681-4.421 4.207-6.694 6.208-.439.387-.953.893-1.525 1.082-1.079.357-1.291-1.347-1.615-2.984-1.117-5.65-2.144-3.117-2.236-2.577-.292 1.704 2.386 8.051 3.417 7.443 2.73-1.608 4.696-4.261 7.351-5.992.854-.558 4.593-3.178 5.161-.948 3.389 13.32 7.268 7.696 10.105 3.555" fill="#e10918" stroke="#1d1d1b" stroke-miterlimit="10" stroke-width=".3"/><path d="m210.127 142.43s2.472-4.508 4.002-5.168c0 0-11.777-5.896-9.452 7.632" style="fill:#e10918;stroke:#1d1d1b;stroke-width:.3;stroke-linecap:round;stroke-linejoin:round;stroke-miterlimit:10"/><path d="m221.256 143.365s-5.817-4.354-14.681-1.657c-11.72 3.566-13.786 11.322-15.312 17.465 1.319.321 2.22.893 2.849 1.63.1-.271.246-.535.441-.774.126-.155.417.484.546.331 1.213-1.122 3.295-6.069 5.479-6.904 0 0 4.591 3.91 7.611.607 0 0-4.764 1.864-3.489-4.626 1.614-8.224 16.556-6.072 16.556-6.072z" fill="#e10918"/><path d="m194.629 160.854c1.83-2.09 3.884-5.523 6-6.753 0 0 4.874 2.899 7.628-.092 0 0-3.96 2.561-4.084-3.982-.184-9.74 16.594-6.705 16.594-6.705s-5.518-5.022-15.128-1.033c-14.906 6.186-13.083 18.066-13.782 15.628m22.171-20.362s1.976 1.054 1.701 3.212" style="fill:none;stroke:#1d1d1b;stroke-width:.3;stroke-linecap:round;stroke-linejoin:round;stroke-miterlimit:10"/><path d="m214.342 138.091s-.882 2.859 1.195 2.091c1.372-.508.202-2.938-1.195-2.091z" fill="#1d1d1b"/><path d="m183.493 166.508s.311-2.556 1.411-2.881m-2.916 3.335s-.587-2.507.334-3.189" style="fill:none;stroke:#1d1d1b;stroke-width:.3;stroke-linecap:round;stroke-linejoin:round;stroke-miterlimit:10"/><path d="m199.315 164.825s1.72 1.916 1.242 2.957m-1.031-3.657s2.274 1.207 2.184 2.35" style="fill:none;stroke:#1d1d1b;stroke-width:.3;stroke-linecap:round;stroke-linejoin:round;stroke-miterlimit:10"/><path d="m195.932 156.109c-.207.34 3.097 14.387 3.097 14.387s1.434-.42 2.099.16c.598.521.713 2.035-1.747 1.732 0 0-1.083-.277-1.495-1.27-.13-.315-5.214-13.436-4.667-13.568.546-.133 2.92-1.78 2.713-1.441z" fill="#e10918"/><path d="m195.727 157.09c-.734 1.297 3.277 13.975 3.277 13.975s2.342-.314 1.939.47c-.976 1.898-2.803-.21-2.803-.21s-4.323-11.447-4.43-13.593m20.186-21.162s.058-.803-1.345.037c-1.387.831-2.812 4.861-2.812 4.861m-17.412 14.924c-.663-1.146.236-1.447.236-1.447-.795-.926.475-1.395.475-1.395-.77-1.42.766-1.581.766-1.581-1.256-2.61.993-1.973.993-1.973-1.113-2.75 1.372-1.175 1.372-1.175-1.452-2.506 1.074-1.403 1.074-1.403-.967-2.601 1.469-1.37 1.469-1.37-.748-2.378 1.457-1.235 1.457-1.235s-.993-2.306 1.893-1.102c0 0-.268-2.46 1.597-1.246" style="fill:none;stroke:#1d1d1b;stroke-width:.3;stroke-linecap:round;stroke-linejoin:round;stroke-miterlimit:10"/><path d="m199.795 147.556s-7.908-.708-10.581-.601c-.9.037-3.903 2.631-3.758-1.223.068-1.805 15.391.611 15.391.611" style="fill:#e10918;stroke:#1d1d1b;stroke-width:.3;stroke-linecap:round;stroke-linejoin:round;stroke-miterlimit:10"/><path d="m188.698 147.368c.142.176 4.151 3.227 1.573 7.424.027-.044.28-.15.333-.189.287-.211.554-.477.761-.768.67-.935.833-2.156.709-3.271-.114-1.034-.38-2.345-1.037-3.182-.302-.386-1.19-.506-1.708-.396-.279.06-.672.331-.631.382z" style="fill:#9cc31a;stroke:#1d1d1b;stroke-width:.3;stroke-linecap:round;stroke-linejoin:round;stroke-miterlimit:10"/><path d="m140.768 138.715s.092 3.121 2.12 3.261m-2.977-3.936s-.132 2.74.257 3.228" style="fill:none;stroke:#1d1d1b;stroke-width:.3;stroke-linecap:round;stroke-linejoin:round;stroke-miterlimit:10"/><path d="m150.442 121.103s1.396 3.885 2.503 3.885c.452 0 1.036-.41 1.344-.693.799-.732.695-1.803.188-2.701-.362-.641-1.072-1.205-1.805-1.328-.367-.061-.721.004-1.062.143-.125.051-1.202.6-1.168.694zm-1.672 16.298-15.045-7.231s-.311-1.791-1.298-1.445.386.987.386.987-1.905-.547-1.987.006.599.839.896.901c.298.061-1.092.272-.938.633.154.36 1.38.234 1.814.054s15.631 6.611 15.631 6.611" style="fill:#9cc31a;stroke:#1d1d1b;stroke-width:.3;stroke-linecap:round;stroke-linejoin:round;stroke-miterlimit:10"/><path d="m111.206 114.682 14.768 7.486s-.319 2.098.642 1.834c.96-.264.191-1.355.191-1.355s1.413 1.479 1.884.11c.171-.495-.508-.816-.786-.89-.278-.075.983-.173.935-.534-.151-1.112-1.292-.298-1.717-.156-.424.142-13.979-7.142-13.979-7.142" style="fill:#9cc31a;stroke:#1d1d1b;stroke-width:.3;stroke-linecap:round;stroke-linejoin:round;stroke-miterlimit:10"/><path d="m81.516 108.588c3.109-1.197 7.317 3.337 10.143 4.788 2.825 1.451 4.755-1.743 7.213-.771 2.274.899 3.803 3.023 6.103 3.847 4.34 1.555 12.23 2.278 15.77-1.47.53-.561.919-1.266 1.164-1.996.008-.024.21-.851.154-.838-7.011 1.661-7.902-4.893-7.422-6.551.972-3.359 6.789-2.591 6.789-2.591-1.188-.614-6.487-7.202-10.618 9.216-.224.887-.658 1.966-1.271 2.659-1.743 1.97-5.536.301-6.916-1.354-1.085-1.302-1.643-3.038-3.388-3.675-1.851-.675-5.347 2.958-8.329 1.055-2.64-1.685-5.191-4.867-8.495-5.133-.773-.062-3.079.165-3.414 1.11-.387 1.083 1.747 2 2.517 1.704z" style="fill:#9cc31a;stroke:#1d1d1b;stroke-width:.3;stroke-linecap:round;stroke-linejoin:round;stroke-miterlimit:10"/><path d="m117.689 98.396a1.624 1.624 0 1 0 -.426 3.22 1.624 1.624 0 0 0 .426-3.22z" fill="#fff" stroke="#1d1d1b" stroke-miterlimit="10" stroke-width=".3"/><path d="m114.72 106.172s3.342 2.645 4.312 1.165 3.023-3.054 4.503-2.085c1.479.97 4.56 3.341 5.616 2.111 0 0 1.132.447-.314 1.03-1.447.583-3.234-.308-4.457-1.422-1.222-1.114-2.433-1.869-3.297-.733-.865 1.136-1.875 4.277-6.361.827" style="fill:#f19eb3;stroke:#1d1d1b;stroke-width:.3;stroke-linecap:round;stroke-linejoin:round;stroke-miterlimit:10"/><path d="m118.437 99.71a.754.754 0 1 0 -.198 1.494.754.754 0 0 0 .198-1.494z" fill="#1d1d1b"/><path d="m119.147 97.949s-1.339-.776-1.441-.81m4.357 15.008c-.105-.234-.436-1.152-1.079-.983-.643.17-1.108 1.124-1.108 1.124s-.166-1.518-.721-1.591-1.579 1.062-1.579 1.062m3.724-8.758s.039 1.615-.846 1.331c-.849-.273-1.772-1.199-1.772-1.199s.629 1.933-.319 1.808c-.949-.125-1.524-1.247-1.524-1.247" style="fill:#fff;stroke:#1d1d1b;stroke-width:.3;stroke-linecap:round;stroke-linejoin:round;stroke-miterlimit:10"/><path d="m83.918 104.323s-3.1-1.771-4.178-.13m4.248-.568s-2.137-1.785-3.191-.672" style="fill:none;stroke:#1d1d1b;stroke-width:.3;stroke-linecap:round;stroke-linejoin:round;stroke-miterlimit:10"/><g style="fill:none;stroke:#1d1d1b;stroke-width:.3;stroke-linecap:round;stroke-linejoin:round;stroke-miterlimit:10"><path d="m106.071 108.568c.184.719.526 1.843.857 2.596 1.965 4.477 9.291 8.127 14.324 8.15 7.999.038 11.95-8.472 10.514-15.715-3.385-17.067-29.55-10.111-25.695 4.969z"/><path d="m106.967 105.645s-.565 2.873 1.45 4.797l.869-.499s-1.135-.131-1.948-2.81m23.835-.049s.55-4.729-2.96-7.589l-.641.786s2.98.976 3.242 6.049"/></g><path d="m107.984 116.196 13.648 9.373s-.056 1.691.931 1.556-.169-.972-.169-.972 1.67.849 1.854.358c.184-.49-.396-.876-.661-.986-.266-.11 1.071-.048.997-.405s-1.241-.467-1.681-.382c-.439.085-12.913-8.927-12.913-8.927" style="fill:#9cc31a;stroke:#1d1d1b;stroke-width:.3;stroke-linecap:round;stroke-linejoin:round;stroke-miterlimit:10"/><path d="m59.976 110.105s-1.15-1.893-2.253-1.551c-1.103.341-2.546 1.009-.453 1.976 2.122.98 2.682.969 2.706-.425zm-22.706-4.5s-1.48-1.822-3.103-1.371c-1.622.452-3.766 1.268-.838 2.058 2.967.801 3.775.738 3.941-.687z" fill="#fff"/><path d="m59.272 109.976s.694-1.168-1.565-1.088-1.391 1.544 1.453 1.811m-22.76-5.301s-1.124-1.299-3.219-.964c-2.095.336-.409 2.285 2.69 2.387 3.098.102 1.109-1.869.037-2.19" style="fill:none;stroke:#1d1d1b;stroke-width:.3;stroke-linecap:round;stroke-linejoin:round;stroke-miterlimit:10"/><path d="m51.323 100.584s2.042-3.228 5.432-2.074c2.85.97 2.546 3.4 2.546 3.4" fill="none" stroke="#616261" stroke-linejoin="round" stroke-miterlimit="10" stroke-width="1.2"/><path d="m50.89 100.383s2.618-3.041 5.935-2.332 2.849 3.779 2.849 3.779" style="fill:none;stroke:#1d1d1b;stroke-width:.3;stroke-linecap:round;stroke-linejoin:round;stroke-miterlimit:10"/><path d="m51.791 100.728s1.837-1.9 3.604-1.837 2.88.947 3.323 2.802" style="fill:none;stroke:#1d1d1b;stroke-width:.3;stroke-linecap:round;stroke-linejoin:round;stroke-miterlimit:10"/><path d="m61.686 93.563c-.077-.042 4.205 2.408 2.393 3.499-2.045 1.232-5.205 1.783-5.205 1.783s.543-.029.106-.264c-.391-.21-.868.537-.868.537s-1.085.591-1.476.3c-.253-.188.284-.537 1.009-.813 0 0-.806-.465.071-.896 0 0-.052.399.78.51.118.016 2.038-.889 4.125-1.908.997-.487-.651-1.359-.618-1.244.09.303-.121-1.396-.317-1.504z" fill="#f9ba05"/><path d="m61.847 93.764c-.308-.157 3.68 2.715 1.399 3.452-2.138.69-4.571 1.537-4.571 1.537s-1.38 1.477-1.859.399c-.27-.606 1.333-.708 1.333-.708s-.85-.13-.595-.539c.163-.261.955.369.955.369s2.239-.959 4.305-1.76c1.405-.544-.145-.921-.866-1.357" style="fill:none;stroke:#1d1d1b;stroke-width:.3;stroke-linecap:round;stroke-linejoin:round;stroke-miterlimit:10"/><path d="m48.321 94.583c.069-.054-3.763 3.052-1.8 3.838 2.217.888 5.423.924 5.423.924s-1.121.533-.727.231c.352-.271 1.664-.155 1.664-.155s1.025.48 1.364.13c.219-.226-.366-.484-1.127-.641 0 0 1.093-.146.157-.431 0 0-.255-.056-1.06.187-.114.034-2.154-.55-4.378-1.221-1.062-.32.424-1.446.41-1.327-.038.314-.102-1.398.074-1.535z" fill="#f9ba05"/><path d="m48.195 94.807c.278-.205-3.196 3.271-.826 3.632 2.221.338 3.824.866 4.513.869.398.001 1.63.871 2.209.093.397-.532-1.026-.571-1.026-.571s.948-.2.631-.562c-.203-.231-1.48.455-1.48.455s-2.364-.587-4.531-1.045c-1.474-.312-.005-.933.637-1.479" style="fill:none;stroke:#1d1d1b;stroke-width:.3;stroke-linecap:round;stroke-linejoin:round;stroke-miterlimit:10"/><path d="m52.842 95.668s4.116 1.701 5.198-.782" style="fill:none;stroke:#1d1d1b;stroke-width:.3;stroke-linecap:round;stroke-linejoin:round;stroke-miterlimit:10"/><path clip-path="url(#a)" d="m364.175 114.432c.832-.521.224-1.39-.574-1.302-1.058.117-.342 1.469.535 1.302" fill="#1d1d1b"/><path clip-path="url(#a)" d="m368.126 120.176s-1.13-3.385-4.459-4.187c-3.328-.802-7.943-2.496-11.268 4.763 0 0-1.227 11.679 5.672 14.236.001.001 13.811 1.855 10.055-14.812z" fill="#1ca8e0"/><path d="m366.826 117.631c1.871 4.121 2.411 8.998.221 13.046-1.242 2.296-3.45 3.897-6.371 4.095-2.995.203-5.299-2.092-6.424-4.385-2.035-4.145-2.878-9.79.793-13.319 1.812-1.742 4.582-1.68 6.913-1.201 0 0 4.349.716 4.896 3.251" style="fill:none;stroke:#1d1d1b;stroke-width:.3;stroke-linecap:round;stroke-linejoin:round;stroke-miterlimit:10;clip-path:url(#a)"/><path d="m360.241 119.344s.813.665.087 1.146c-.327.216-.531.01-.483-.338.06-.431.517-.571.844-.754m-2.105-2.591s-.571-3.121 1.034-4.429" style="fill:none;stroke:#1d1d1b;stroke-width:.3;stroke-linecap:round;stroke-linejoin:round;stroke-miterlimit:10;clip-path:url(#a)"/><path d="m357.796 111.781s.572 1.226 1.812.998c1.24-.227 1.072-3.164-.405-2.578-1.477.585-1.017 1.741-1.017 1.741" style="fill:#fff;stroke:#1d1d1b;stroke-width:.3;stroke-linecap:round;stroke-linejoin:round;stroke-miterlimit:10;clip-path:url(#a)"/><path clip-path="url(#a)" d="m359.661 110.19c-.458-.258-.924.151-1.021.598-.122.565.473 1.032.982.618.307-.249.444-.988.039-1.216z" fill="#1d1d1b"/><path d="m361.691 117.612s2.673-1.605 2.544-2.974" style="fill:none;stroke:#1d1d1b;stroke-width:.3;stroke-linecap:round;stroke-linejoin:round;stroke-miterlimit:10;clip-path:url(#a)"/><path clip-path="url(#a)" d="m364.229 114.87s.13.009.314-.005c.552-.045 1.592-.308 1.077-1.699-.132-.357-.372-.815-.802-.826-.622-.015-1.346.522-1.46 1.152-.025.137.005.291.015.428.028.427.199.626.546.881.283.209.887.087 1.281-.076" fill="#fff"/><path d="m373.101 123.682s-11.842 2.645-24.241 1.345c-3.819-.4 25.421-2.734 24.176-1.503-.553.547-1.82.78-1.82.78" style="fill:#fff;stroke:#1d1d1b;stroke-width:.3;stroke-linecap:round;stroke-linejoin:round;stroke-miterlimit:10;clip-path:url(#a)"/><g clip-path="url(#a)"><path d="m367.958 120.293c.045.116 8.27.634 7.055 2.31-.769 1.059-1.357.612-1.357.612s-.612-1.427-1.139-.451c-.325.603.067.702.067.702s-2.361-.024-2.064.56c.081.158.162.728 2.319.411 0 0 .443 1.377.951.448 0 0 .096-.539.001-.743-.045-.096 1.955-.146 3.176-1.519 1.584-1.781-9.652-4.057-9.559-3.886.042.073.456 1.311.55 1.556z" fill="#1ca8e0"/><path d="m367.382 119.879c.23.239 8.944 1.32 7.848 2.904-.774 1.119-1.733.633-1.733.633s-.213-.832-.523-.822c-.311.01-.445.636-.064.903.382.267-2.51-.404-2.134.644.236.657 2.337-.122 2.337-.122s-.022 1.274.312 1.015c.333-.259.153-1.03.153-1.03s1.675-.262 2.993-1.266c2.112-1.609-9.177-3.702-9.438-3.984" style="fill:none;stroke:#1d1d1b;stroke-width:.3;stroke-linecap:round;stroke-linejoin:round;stroke-miterlimit:10"/></g><g clip-path="url(#a)"><path d="m353.085 121.661c.052.124-8.019.474-7.485 1.405.649 1.136 2.404 1.111 2.404 1.111s.683-1.097 1.094-.415c.354.587-.259.838-.259.838s1.554-.745 1.453.616c-.009.117-.445.407-1.641.084 0 0-.814 1.498-1.12.484 0 0 .017-.548.151-.728.063-.085-3.382-.229-4.297-1.821-1.186-2.067 9.741-2.533 9.817-2.713.144-.34-.215.897-.117 1.139z" fill="#1ca8e0"/><path d="m352.902 121.677c-.748-.032-7.992.346-7.336 1.438.64 1.066 2.553 1.293 2.553 1.293s.379-.771.681-.698.307.713-.121.897c-.429.184 2.053-.334 1.408.573-.036.051-1.714-.104-1.714-.104s-.239 1.252-.513.93c-.273-.322.059-1.039.059-1.039s-3.52-.607-4.393-2.016c-.814-1.314 9.02-2.449 9.718-2.377" style="fill:none;stroke:#1d1d1b;stroke-width:.3;stroke-linecap:round;stroke-linejoin:round;stroke-miterlimit:10"/></g><path d="m361.237 123.605s-2.334-.252-2.137.965-.472 1.412-.472 1.412-1.707.687-.242 1.549 3.126-.822 2.906-2.091-.507-1.836.268-1.916" style="fill:#f19eb3;stroke:#1d1d1b;stroke-width:.3;stroke-linecap:round;stroke-linejoin:round;stroke-miterlimit:10;clip-path:url(#a)"/><path d="m360.478 128.972s1.49.106 1.632-.802m-.821 1.304s1.283-.415 1.054-1.305" style="fill:none;stroke:#1d1d1b;stroke-width:.3;stroke-linecap:round;stroke-linejoin:round;stroke-miterlimit:10;clip-path:url(#a)"/><path d="m358.624 126.504s-2.22.641-1.689 1.709c.53 1.067 1.689-1.709 1.689-1.709zm4.073-.63s.629 1.245 1.202.811c.574-.435-1.202-.811-1.202-.811zm-5.619-.318s-1.536-.553-1.675.278c-.138.831 1.675-.278 1.675-.278z" style="fill:#58c2f0;stroke:#1d1d1b;stroke-width:.3;stroke-linecap:round;stroke-linejoin:round;stroke-miterlimit:10;clip-path:url(#a)"/><path d="m360.504 123.579s-.595.19-.377.749c.318.821-.374 1.873-.53 1.989m-1.646-15.606s1.74-.495 2.685 0" style="fill:none;stroke:#1d1d1b;stroke-width:.3;stroke-linecap:round;stroke-linejoin:round;stroke-miterlimit:10;clip-path:url(#a)"/><path clip-path="url(#a)" d="m364.724 114.164a.378.378 0 0 1 -.752.058.377.377 0 0 1 .752-.058z" fill="#1d1d1b"/><path clip-path="url(#a)" d="m362.703 113.601s.724-2.2 2.257-1.233.73 2.449.73 2.449-.935-1.399-2.987-1.216z" fill="#1ca8e0"/><path d="m362.504 113.846s1.599-.852 3.283 1.071m-1.525-.047s.13.009.314-.005c.552-.045 1.592-.308 1.077-1.699-.132-.357-.372-.815-.802-.826-.622-.015-1.346.522-1.46 1.152-.025.137.005.291.015.428.028.427.199.626.546.881.283.209.887.087 1.281-.076" style="fill:none;stroke:#1d1d1b;stroke-width:.3;stroke-linecap:round;stroke-linejoin:round;stroke-miterlimit:10;clip-path:url(#a)"/></svg>