<svg viewBox="0 0 426 233" xmlns="http://www.w3.org/2000/svg" xmlns:xlink="http://www.w3.org/1999/xlink"><clipPath id="a"><path d="m426.17 222.26s-151 10.39-214.26 10.39c-63.44 0-212.08-10.39-212.08-10.39v-211.2s138.25-10.71 214.38-10.71c55.06 0 212 10.71 212 10.71z"/></clipPath><g clip-path="url(#a)"><g fill="#2d3a66"><path d="m294.56 63.84s-.49-1.65-.69-2.49a22.09 22.09 0 0 1 -.63 2.25 3 3 0 0 0 -.08.32c.27.76.51 1.54.78 2.3.15-.81.67-2.22.62-2.38z"/><path d="m291.6 63.83c.8.2 1.6.38 2.41.54 0 0 0-.8-.06-.89s-.29-.21-.49-.16c-.62.17-1.22.39-1.86.51z"/><path d="m296.07 63.78c-.8.21-1.6.41-2.41.58 0 0 0-.8 0-.9s.29-.21.49-.16c.67.16 1.27.37 1.92.48z"/><path d="m388.35 49s-.49-1.64-.7-2.48c-.17.76-.38 1.51-.62 2.25a3 3 0 0 0 -.08.32c.27.76.51 1.53.78 2.3.15-.82.67-2.28.62-2.39z"/><path d="m385.38 49c.8.2 1.61.38 2.42.54 0 0 0-.8-.06-.89s-.29-.21-.49-.16c-.63.15-1.25.38-1.87.51z"/><path d="m389.85 48.94c-.79.21-1.59.4-2.4.58 0 0 0-.81 0-.9s.29-.21.49-.16c.67.16 1.27.37 1.91.48z"/><path d="m379.86 146.26s-.87-2.95-1.24-4.46a40.08 40.08 0 0 1 -1.12 4 5.45 5.45 0 0 0 -.14.58c.49 1.37.91 2.75 1.4 4.12.24-1.41 1.24-4.04 1.1-4.24z"/><path d="m374.56 146.25c1.43.35 2.87.68 4.32 1 0 0 0-1.44-.1-1.6-.17-.38-.52-.37-.88-.28-1.12.26-2.19.63-3.34.88z"/><path d="m382.57 146.17c-1.43.37-2.87.71-4.31 1 0 0 0-1.44.07-1.61.17-.37.52-.38.88-.29 1.13.31 2.2.73 3.36.9z"/><path d="m49.24 172.61s-.87-3-1.24-4.45c-.31 1.36-.68 2.7-1.12 4-.05.15-.11.43-.15.58.49 1.37.91 2.75 1.41 4.12.25-1.42 1.19-4.05 1.1-4.25z"/><path d="m43.93 172.6c1.44.36 2.88.68 4.32 1 0 0 0-1.45-.09-1.61-.17-.37-.53-.37-.89-.28-1.12.29-2.19.67-3.34.89z"/><path d="m51.94 172.52c-1.43.37-2.86.72-4.31 1 0 0 0-1.44.08-1.6.16-.38.52-.38.88-.29 1.12.3 2.2.69 3.35.89z"/><path d="m152.46 85.83s-.38-1.62-.53-2.44c-.21.72-.45 1.44-.73 2.14 0 .08-.07.23-.09.31.22.75.4 1.51.63 2.27.18-.77.77-2.11.72-2.28z"/><path d="m149.6 85.67c.76.23 1.53.45 2.3.65 0 0 0-.78 0-.87s-.27-.21-.47-.17c-.62.12-1.21.3-1.83.39z"/><path d="m153.93 85.87c-.78.15-1.57.3-2.36.42 0 0 0-.78.09-.86s.29-.19.48-.13c.6.18 1.17.42 1.79.57z"/><path d="m253 111.8s-.62-2.3-.87-3.47a30.59 30.59 0 0 1 -1 3.09c0 .12-.09.33-.12.44.35 1.07.65 2.15 1 3.22.24-1.08.99-3.08.99-3.28z"/><path d="m248.85 111.69c1.11.3 2.21.58 3.33.84 0 0 0-1.12-.05-1.25-.12-.29-.39-.3-.67-.23-.88.2-1.71.49-2.61.64z"/><path d="m255.05 111.78c-1.11.26-2.23.5-3.35.72 0 0 0-1.12.09-1.24.13-.29.41-.29.68-.21.87.24 1.69.55 2.58.73z"/><path d="m341.7 198.79c-.5.8-1.27 1.71-1.77 2.5 0-.94-.24-2.17-.27-3.11a24.94 24.94 0 0 1 -3.66-.48l3.45-1.95c.09-1.16.25-2.38.27-3.55a11.12 11.12 0 0 1 1.87 2.51c.11.06 2.44-.69 3.52-.82a19.26 19.26 0 0 1 -2.26 3.05 6.41 6.41 0 0 1 1.76 2.93c-1.1-.42-1.81-.66-2.91-1.08z"/><path d="m337.2 201a.21.21 0 0 1 -.17-.08.22.22 0 0 1 0-.31l.9-.7a.2.2 0 0 1 .3 0 .21.21 0 0 1 0 .3l-.9.71a.2.2 0 0 1 -.13.08z"/><path d="m337.58 194.77a.2.2 0 0 1 -.11 0c-.31-.19-.62-.38-1-.55a.22.22 0 0 1 .21-.39c.33.18.66.37 1 .57a.22.22 0 0 1 .07.3.21.21 0 0 1 -.17.07z"/><path d="m342.45 193.17h-.08a.22.22 0 0 1 -.13-.28l.37-1a.22.22 0 0 1 .27-.13.22.22 0 0 1 .14.28l-.37 1a.2.2 0 0 1 -.2.13z"/><path d="m345.51 197.09h-.64a.22.22 0 0 1 -.21-.23.21.21 0 0 1 .22-.21h1.24a.22.22 0 0 1 .22.21.23.23 0 0 1 -.21.23z"/><path d="m342.67 202.49a.24.24 0 0 1 -.21-.16c-.11-.44-.24-.86-.38-1.29a.23.23 0 0 1 .14-.27.22.22 0 0 1 .28.14c.14.43.27.86.38 1.3a.21.21 0 0 1 -.15.27z"/><path d="m179.23 195.6c-.74 1.18-1.89 2.54-2.63 3.72 0-1.4-.36-3.23-.4-4.63a37.1 37.1 0 0 1 -5.46-.72l5.15-2.9c.13-1.74.36-3.55.39-5.29 1.2.84 2.7 3.68 2.79 3.74s3.63-1 5.24-1.22a27.54 27.54 0 0 1 -3.36 4.53 9.67 9.67 0 0 1 2.62 4.37c-1.64-.63-2.7-.97-4.34-1.6z"/><path d="m172.53 198.87a.32.32 0 0 1 -.2-.57l1.33-1.05a.32.32 0 1 1 .4.51l-1.33 1.05a.36.36 0 0 1 -.2.06z"/><path d="m173.11 189.61a.41.41 0 0 1 -.18-.05c-.46-.29-.93-.57-1.41-.82a.33.33 0 0 1 -.13-.44.32.32 0 0 1 .44-.13c.49.26 1 .54 1.45.84a.33.33 0 0 1 .1.45.32.32 0 0 1 -.27.15z"/><path d="m180.35 187.23h-.11a.33.33 0 0 1 -.19-.42l.54-1.48a.32.32 0 1 1 .6.22l-.53 1.49a.34.34 0 0 1 -.31.19z"/><path d="m184.91 193.06h-1a.32.32 0 0 1 -.31-.34.29.29 0 0 1 .33-.31h1.84a.3.3 0 0 1 .34.31.34.34 0 0 1 -.32.34z"/><path d="m180.69 201.1a.33.33 0 0 1 -.32-.24c-.17-.64-.36-1.28-.56-1.91a.33.33 0 0 1 .21-.41.33.33 0 0 1 .41.21c.2.64.4 1.29.57 1.94a.33.33 0 0 1 -.23.4z"/><path d="m373.5 181.39a11.83 11.83 0 0 0 -.73-2.25 6.62 6.62 0 0 1 -.45-1.56c-.06-.32 0-.71-.33-.79-.12 0-.25 0-.38 0l-1-.12-2.78-.33-3.87-.46 4.3-2.89 2.32-1.56c.17-.12.33-.19.37-.4a3.28 3.28 0 0 0 -.13-.75l-.15-.85c-.18-1.08-.34-2.17-.49-3.25-.08-.52-.14-1-.21-1.57 0-.12-.12-.49.06-.55s.32.22.4.29c.32.27.66.51 1 .76l2.85 2.17 1.11.85s.41.36.45.34l4-1.88a14.16 14.16 0 0 1 2.24-1 11.76 11.76 0 0 0 -.64 2.31 11.86 11.86 0 0 1 -.44 1.1c-.33.86-.69 1.71-1.09 2.55-.16.34-.4.66-.12 1a5.33 5.33 0 0 0 .62.54l2.67 2.24 2 1.7-7.56-.27-3.42 6.92-2-6.82"/><path d="m159.56 114.88a10.22 10.22 0 0 0 -.56-1.88 5.26 5.26 0 0 1 -.38-1.3c0-.26 0-.58-.27-.66-.1 0-.21 0-.31 0l-.83-.1-2.31-.28-3.21-.38 3.56-2.4 1.94-1.3c.14-.1.27-.15.3-.33a2.32 2.32 0 0 0 -.11-.63l-.12-.7c-.15-.9-.28-1.8-.41-2.71-.06-.43-.12-.86-.17-1.3 0-.1-.1-.41.05-.45s.26.18.33.24c.26.22.55.42.82.62l2.37 1.81.93.7s.34.31.37.29l3.32-1.56a11.11 11.11 0 0 1 1.85-.87 10 10 0 0 0 -.52 1.93c-.1.31-.21.63-.34.94-.27.71-.58 1.42-.9 2.12-.14.28-.34.55-.1.83a3.73 3.73 0 0 0 .52.45l2.21 1.86 1.69 1.42-6.28-.24-2.85 5.75-1.66-5.67"/><path d="m257.44 87a8.39 8.39 0 0 0 -.5-1.54 4.62 4.62 0 0 1 -.32-1.08c0-.22 0-.49-.22-.55a2.06 2.06 0 0 0 -.26 0l-.69-.08-1.91-.23-2.66-.31 3-2 1.6-1.08c.11-.08.23-.13.25-.27a2.27 2.27 0 0 0 -.09-.52c0-.2-.07-.39-.1-.58-.12-.75-.24-1.5-.34-2.24 0-.36-.1-.72-.14-1.08 0-.09-.09-.34 0-.38s.22.15.27.2c.22.18.46.35.68.52l2 1.49.77.59s.28.25.31.23l2.75-1.29a10.24 10.24 0 0 1 1.54-.72 8.39 8.39 0 0 0 -.44 1.6q-.12.39-.27.78c-.23.59-.48 1.18-.75 1.75-.12.24-.29.46-.09.69a3.81 3.81 0 0 0 .43.37l1.84 1.54 1.35 1.19-5.2-.19-2.36 4.76-1.37-4.69"/><path d="m323.07 90.36a7.73 7.73 0 0 0 -.51-1.54 5.12 5.12 0 0 1 -.31-1.08c0-.22 0-.48-.22-.54h-.26l-.69-.08-1.91-.22-2.66-.32 2.95-2 1.6-1.08c.12-.08.23-.12.26-.27a2.36 2.36 0 0 0 -.09-.52c0-.2-.07-.39-.1-.58-.13-.75-.24-1.49-.34-2.24l-.15-1.08c0-.08-.08-.34 0-.38s.22.15.28.2c.22.18.45.35.68.52l2 1.49.77.59a1.72 1.72 0 0 0 .31.24l2.75-1.3a9.8 9.8 0 0 1 1.54-.72 8.39 8.39 0 0 0 -.44 1.6c-.08.26-.18.52-.28.78-.23.59-.48 1.18-.75 1.75-.11.24-.28.46-.08.7a3.73 3.73 0 0 0 .43.36l1.83 1.55 1.4 1.17-5.2-.19-2.36 4.77-1.38-4.7"/><path d="m378.22 79.38a10.22 10.22 0 0 0 -.61-1.87 5.46 5.46 0 0 1 -.38-1.31c0-.26 0-.58-.27-.65a1.65 1.65 0 0 0 -.31 0l-.84-.1-2.31-.28-3.23-.38 3.58-2.41 1.94-1.38c.14-.09.28-.15.31-.33a2.39 2.39 0 0 0 -.11-.63l-.12-.7c-.15-.91-.29-1.81-.42-2.72-.06-.43-.11-.87-.17-1.3 0-.1-.1-.42.05-.46s.27.18.34.24c.26.22.55.42.82.63l2.38 1.81.93.71s.34.3.37.28l3.33-1.53a12.13 12.13 0 0 1 1.87-.86 9.3 9.3 0 0 0 -.53 1.93c-.1.32-.22.63-.34 1-.28.71-.58 1.42-.91 2.12-.13.29-.34.56-.1.84a4.54 4.54 0 0 0 .52.45l2.23 1.87 1.69 1.42-6.3-.23-2.86 5.77-1.67-5.69"/><path d="m24.62 128.44a8.39 8.39 0 0 0 -.5-1.54 4.62 4.62 0 0 1 -.32-1.08c0-.22 0-.49-.22-.55a2.3 2.3 0 0 0 -.26 0l-.69-.08-1.91-.23-2.66-.31 3-2 1.6-1.08c.12-.08.23-.13.26-.27a2.27 2.27 0 0 0 -.09-.52c0-.2-.07-.39-.1-.59-.13-.74-.24-1.49-.34-2.24-.05-.35-.1-.71-.14-1.07 0-.09-.09-.34 0-.38s.22.15.27.2c.22.18.45.34.68.52l2 1.49.77.59s.28.25.31.23l2.72-1.31a9.8 9.8 0 0 1 1.54-.72 8.49 8.49 0 0 0 -.44 1.59c-.08.27-.18.53-.28.79-.23.59-.48 1.17-.75 1.75-.11.24-.28.46-.08.69a3.81 3.81 0 0 0 .43.37l1.83 1.54 1.4 1.18-5.2-.19-2.38 4.78-1.38-4.69"/><path d="m76.72 109.84a8.39 8.39 0 0 0 -.5-1.54 5.15 5.15 0 0 1 -.32-1.08c0-.22 0-.49-.22-.55a2.06 2.06 0 0 0 -.26 0l-.69-.08-1.91-.23-2.66-.36 3-2 1.6-1.08c.12-.08.23-.13.25-.27a2 2 0 0 0 -.09-.53c0-.19-.07-.38-.1-.58-.12-.74-.24-1.49-.34-2.24 0-.36-.1-.72-.14-1.08 0-.08-.08-.33 0-.37s.22.15.27.2c.22.18.46.34.68.52l2 1.49.76.59s.28.25.31.23l2.75-1.29a10.24 10.24 0 0 1 1.54-.72 8.29 8.29 0 0 0 -.44 1.59c-.08.27-.17.53-.27.79-.23.59-.48 1.17-.75 1.75-.11.24-.28.46-.09.69a3.81 3.81 0 0 0 .43.37l1.84 1.54 1.4 1.18-5.21-.19-2.35 4.76-1.38-4.69"/><path d="m319.54 117.1c-2.17 1.72-4.4 3.63-6.57 5.34 2.77-.21 6.24.65 9 .44.32 1.37 3 6.49 4.14 9.94 1.53-3.59 1.52-6.54 3.05-10.12 3.38-.63 6.9-1.47 10.31-1.91-1.9-2.18-7.82-4.51-7.94-4.68s1.2-6.67 1.23-9.88c-3 2.25-5.69 4.1-8.16 6.89a19 19 0 0 0 -9.15-4.2c1.6 3.08 2.55 5.08 4.09 8.18z"/><path d="m98.58 205.14c-.5.87-1.06 1.76-1.56 2.63-.07-1-.56-2.2-.63-3.2-.51 0-2.48-.74-3.78-1 1.2-.74 2.26-.89 3.46-1.63.05-1.24.17-2.55.15-3.79a11.93 11.93 0 0 1 2.09 2.6c.12.06 2.32-.78 3.47-1a19.21 19.21 0 0 1 -2 3.29 6.79 6.79 0 0 1 2 3c-1.24-.28-2.01-.5-3.2-.9z"/><path d="m400.74 65.63c-.5.87-1.07 1.77-1.57 2.64-.07-1-.56-2.21-.63-3.21-.51 0-2.48-.74-3.78-1 1.21-.74 2.27-.89 3.47-1.62 0-1.25.16-2.55.14-3.8a11.85 11.85 0 0 1 2.09 2.6c.12.06 2.33-.78 3.47-1a17.86 17.86 0 0 1 -2 3.29 7 7 0 0 1 2 3c-1.24-.27-2-.53-3.19-.9z"/><path d="m359 58.87c-.38.66-.82 1.35-1.2 2 0-.77-.43-1.69-.48-2.46-.39 0-1.9-.56-2.89-.73.92-.57 1.73-.68 2.65-1.25 0-1 .13-2 .11-2.9a9 9 0 0 1 1.6 2c.09.05 1.78-.6 2.66-.73a15 15 0 0 1 -1.56 2.51 5.29 5.29 0 0 1 1.52 2.34c-.87-.3-1.41-.47-2.41-.78z"/><path d="m185.43 147.29c-1.17 2-2.49 4.12-3.65 6.14-.16-2.33-1.31-5.13-1.47-7.47-1.18-.1-5.79-1.72-8.81-2.24 2.81-1.72 5.28-2.07 8.08-3.79.11-2.9.38-6 .33-8.85 2.06 1.32 4.73 6 4.88 6.06s5.43-1.82 8.1-2.23a43 43 0 0 1 -4.75 7.66 16 16 0 0 1 4.63 7.13c-2.77-.95-4.56-1.46-7.34-2.41z"/><path d="m314.94 218.08c-.83 1.45-1.78 3-2.62 4.41-.12-1.68-.94-3.69-1.06-5.37-.85-.07-4.16-1.24-6.33-1.61 2-1.24 3.79-1.49 5.81-2.72.08-2.09.28-4.28.24-6.36 1.47.95 3.39 4.3 3.51 4.36s3.89-1.31 5.82-1.61a31.05 31.05 0 0 1 -3.42 5.5 11.61 11.61 0 0 1 3.33 5.13c-2-.68-3.28-1.05-5.28-1.73z"/><path d="m223.67 76.74c-1.16 2-2.48 4.13-3.65 6.15-.16-2.34-1.31-5.14-1.47-7.47-1.18-.1-5.79-1.73-8.81-2.25 2.81-1.72 5.28-2.07 8.08-3.79.11-2.9.39-5.94.33-8.84 2.06 1.32 4.73 6 4.89 6.06s5.42-1.82 8.1-2.24a44.08 44.08 0 0 1 -4.76 7.64 15.94 15.94 0 0 1 4.62 7.16c-2.77-.95-4.55-1.47-7.33-2.42z"/><path d="m26.82 184.22c-.4-.63-.85-1.29-1.26-1.92 0 .75-.34 1.67-.36 2.42-.38.05-1.83.63-2.79.85.93.51 1.72.58 2.65 1.09.07.93.2 1.9.23 2.83a8.84 8.84 0 0 0 1.48-2c.08 0 1.76.5 2.62.6a14 14 0 0 0 -1.63-2.39 5.16 5.16 0 0 0 1.38-2.35c-.88.33-1.44.52-2.32.87z"/><path d="m54.28 205.18c0 .74-.11 1.54-.14 2.28-.39-.64-1.13-1.27-1.52-1.91-.35.14-1.9.36-2.84.65.55-.9 1.2-1.36 1.75-2.26-.39-.85-.76-1.76-1.2-2.58a9.05 9.05 0 0 1 2.28 1c.1 0 1.28-1.32 2-1.83a14.54 14.54 0 0 1 -.23 2.88 5.07 5.07 0 0 1 2.36 1.36c-.95.15-1.53.23-2.46.41z"/><path d="m379.48 195.07c-.4-.63-.86-1.29-1.26-1.92 0 .75-.34 1.67-.36 2.42-.38.05-1.83.63-2.79.85.92.51 1.72.58 2.64 1.09.08.93.21 1.9.24 2.83a8.41 8.41 0 0 0 1.47-2c.09-.05 1.77.5 2.63.6a14 14 0 0 0 -1.63-2.39 5.25 5.25 0 0 0 1.38-2.35c-.88.33-1.44.52-2.32.87z"/><path d="m244.25 161.41c.26-2.94.42-6.06.68-9-1.86 2.3-5.07 4.35-6.93 6.65-1.3-.75-7.23-2.42-10.73-4.07 1.65 3.8 3.95 6 5.6 9.77-2 3.07-3.92 6.41-6.08 9.37 3.08.12 9.21-2.75 9.44-2.72.38.05 4.27 5.82 6.73 8.19.44-3.94 1-7.41.66-11.36a20.17 20.17 0 0 0 9.95-4c-3.57-1.03-5.77-1.8-9.32-2.83z"/><path d="m325.18 66.69a.31.31 0 0 1 -.3-.29l-.48-11.05a.3.3 0 0 1 .28-.31.3.3 0 0 1 .32.29l.48 11a.3.3 0 0 1 -.29.32z"/><path d="m319.41 61.84a.31.31 0 0 1 -.05-.61 44.85 44.85 0 0 1 9.64-.53.3.3 0 0 1 .29.32.29.29 0 0 1 -.32.28 44.25 44.25 0 0 0 -9.55.53z"/><path d="m322.31 63.78a.31.31 0 0 1 -.22-.51 52.45 52.45 0 0 1 5-4.6.3.3 0 0 1 .43 0 .31.31 0 0 1 0 .43 52.58 52.58 0 0 0 -4.9 4.54.28.28 0 0 1 -.31.14z"/><path d="m327.69 64a.27.27 0 0 1 -.17-.06 55.59 55.59 0 0 1 -6.33-4.89.29.29 0 0 1 0-.42.3.3 0 0 1 .43 0 56.57 56.57 0 0 0 6.27 4.84.31.31 0 0 1 .08.42.3.3 0 0 1 -.28.11z"/><path d="m102 160a.31.31 0 0 1 -.31-.27l-1.1-11a.3.3 0 0 1 .27-.33.31.31 0 0 1 .34.27l1.1 11a.31.31 0 0 1 -.27.33z"/><path d="m96 155.46a.31.31 0 0 1 -.29-.24.3.3 0 0 1 .23-.36 45.12 45.12 0 0 1 9.63-1.08.31.31 0 0 1 0 .61h-.17a44.18 44.18 0 0 0 -9.4 1.06z"/><path d="m99 157.23a.26.26 0 0 1 -.19-.07.29.29 0 0 1 0-.42 54 54 0 0 1 4.69-4.87.29.29 0 0 1 .43 0 .29.29 0 0 1 0 .42 52.82 52.82 0 0 0 -4.64 4.82.29.29 0 0 1 -.29.12z"/><path d="m104.36 157.15a.32.32 0 0 1 -.16 0 57 57 0 0 1 -6.59-4.53.31.31 0 0 1 0-.43.3.3 0 0 1 .43 0 57.44 57.44 0 0 0 6.52 4.48.3.3 0 0 1 .11.41.3.3 0 0 1 -.31.07z"/><path d="m282.57 107.11a.3.3 0 0 1 -.3-.28l-.91-11a.3.3 0 0 1 .6 0l.91 11a.3.3 0 0 1 -.28.33z"/><path d="m278.52 101.63h-.52a.29.29 0 0 1 -.29-.31.3.3 0 0 1 .3-.29 43.93 43.93 0 0 0 9.51-.9.31.31 0 0 1 .36.24.3.3 0 0 1 -.23.35 45 45 0 0 1 -9.13.91z"/><path d="m279.89 103.65a.28.28 0 0 1 -.22-.1.3.3 0 0 1 0-.43 52.68 52.68 0 0 0 4.72-4.73.3.3 0 0 1 .43 0 .31.31 0 0 1 0 .43 53.91 53.91 0 0 1 -4.77 4.79.31.31 0 0 1 -.16.04z"/><path d="m285.74 103.5a.26.26 0 0 1 -.19-.07 55 55 0 0 0 -6.45-4.59.32.32 0 0 1 -.1-.42.31.31 0 0 1 .42-.1 56.19 56.19 0 0 1 6.51 4.65.29.29 0 0 1 0 .42.3.3 0 0 1 -.19.11z"/><path d="m33.48 160.34a.31.31 0 0 1 -.3-.3l-.24-11a.3.3 0 0 1 .29-.31.3.3 0 0 1 .3.3l.26 10.97a.3.3 0 0 1 -.3.31z"/><path d="m27.82 155.36a.3.3 0 0 1 -.3-.25.31.31 0 0 1 .26-.35 44.86 44.86 0 0 1 9.69-.33.3.3 0 0 1 .27.33.32.32 0 0 1 -.32.28 44.2 44.2 0 0 0 -9.55.32z"/><path d="m30.67 157.37a.3.3 0 0 1 -.21-.09.3.3 0 0 1 0-.43 52.42 52.42 0 0 1 5-4.49.31.31 0 0 1 .38.48 51.33 51.33 0 0 0 -5 4.44.31.31 0 0 1 -.17.09z"/><path d="m36.05 157.7a.34.34 0 0 1 -.17 0 55.7 55.7 0 0 1 -6.23-5 .3.3 0 0 1 0-.43.29.29 0 0 1 .42 0 56.49 56.49 0 0 0 6.16 5 .3.3 0 0 1 .08.42.3.3 0 0 1 -.26.01z"/><path d="m44.74 102.31a.31.31 0 0 1 0-.61 61.53 61.53 0 0 0 6.36-.55.3.3 0 0 1 .34.25.31.31 0 0 1 -.25.35 63.15 63.15 0 0 1 -6.43.56z"/><path d="m48.39 105a.3.3 0 0 1 -.3-.29c-.09-2.21-.09-4.13-.09-6.39a.3.3 0 0 1 .3-.3.3.3 0 0 1 .3.3c0 2.26 0 4.17.12 6.39a.3.3 0 0 1 -.29.31z"/><path d="m50.3 103.68a.28.28 0 0 1 -.19-.07 24.5 24.5 0 0 1 -3.33-3.19.31.31 0 0 1 0-.43.3.3 0 0 1 .43 0 23.38 23.38 0 0 0 3.25 3.12.31.31 0 0 1 0 .43.32.32 0 0 1 -.16.14z"/><path d="m47.22 103.62a.29.29 0 0 1 -.21-.09.3.3 0 0 1 0-.42l.95-1a10.51 10.51 0 0 0 .89-1.17c.2-.28.39-.56.57-.79a.3.3 0 0 1 .42 0 .29.29 0 0 1 .06.42c-.18.23-.36.49-.55.76a10.57 10.57 0 0 1 -.94 1.24l-1 1a.32.32 0 0 1 -.19.05z"/><path d="m409.31 158.18a.31.31 0 0 1 -.3-.29.32.32 0 0 1 .29-.32 56.45 56.45 0 0 0 6.36-.55.3.3 0 1 1 .09.6 60.42 60.42 0 0 1 -6.43.56z"/><path d="m413 160.9a.3.3 0 0 1 -.3-.29c-.09-2.25-.12-4.17-.12-6.41a.3.3 0 0 1 .3-.3.3.3 0 0 1 .31.3c0 2.24 0 4.15.11 6.39a.3.3 0 0 1 -.29.31z"/><path d="m414.87 159.56a.31.31 0 0 1 -.18-.07 23.45 23.45 0 0 1 -3.33-3.2.3.3 0 0 1 .45-.39 24 24 0 0 0 3.25 3.12.28.28 0 0 1 .05.42.3.3 0 0 1 -.24.12z"/><path d="m411.79 159.49a.32.32 0 0 1 -.21-.08.3.3 0 0 1 0-.43l.95-1a12.27 12.27 0 0 0 .89-1.17c.19-.28.38-.55.56-.79a.31.31 0 1 1 .48.38c-.18.22-.36.49-.55.76a10.32 10.32 0 0 1 -.94 1.24l-.95 1a.31.31 0 0 1 -.23.09z"/><path d="m344.33 170.38a.3.3 0 0 1 -.3-.27 58.15 58.15 0 0 0 -1.12-6.28.3.3 0 1 1 .59-.14 59.44 59.44 0 0 1 1.13 6.35.31.31 0 0 1 -.26.34z"/><path d="m340.35 167.18a.3.3 0 0 1 0-.6c2.22-.19 4.12-.4 6.35-.69a.3.3 0 0 1 .08.6c-2.24.29-4.15.5-6.37.69z"/><path d="m342.35 168.28a.3.3 0 0 1 -.21-.09.31.31 0 0 1 0-.43 23.19 23.19 0 0 0 2.82-3.51.3.3 0 0 1 .51.33 24.51 24.51 0 0 1 -2.89 3.6.28.28 0 0 1 -.23.1z"/><path d="m345.42 167.8a.34.34 0 0 1 -.19-.07l-1.09-.85a9.62 9.62 0 0 0 -1.25-.78l-.83-.5a.3.3 0 1 1 .33-.51c.24.16.52.32.8.48a10.31 10.31 0 0 1 1.32.83l1.09.85a.3.3 0 0 1 0 .43.27.27 0 0 1 -.18.12z"/><path d="m390.32 120.37a.3.3 0 0 1 -.29-.22 63.57 63.57 0 0 1 -1.46-6.28.32.32 0 0 1 .25-.35.3.3 0 0 1 .35.25 60.27 60.27 0 0 0 1.44 6.22.29.29 0 0 1 -.2.37z"/><path d="m386.69 118.13a.3.3 0 0 1 -.29-.25.31.31 0 0 1 .24-.36c2.21-.4 4.11-.7 6.33-1a.3.3 0 0 1 .09.6c-2.22.32-4.11.62-6.31 1z"/><path d="m388.29 119.82a.28.28 0 0 1 -.15 0 .31.31 0 0 1 -.11-.41 23.79 23.79 0 0 1 2.7-3.75.3.3 0 0 1 .46.39 24.09 24.09 0 0 0 -2.64 3.66.28.28 0 0 1 -.26.11z"/><path d="m391.22 118.73a.28.28 0 0 1 -.15 0c-.25-.14-.53-.28-.83-.43a11.55 11.55 0 0 1 -1.36-.76l-1.13-.8a.3.3 0 0 1 -.08-.42.31.31 0 0 1 .43-.07l1.13.8a11.49 11.49 0 0 0 1.28.71c.31.15.61.3.86.45a.29.29 0 0 1 .11.41.28.28 0 0 1 -.26.11z"/><path d="m347.21 78.82a.32.32 0 0 1 -.31-.29.3.3 0 0 1 .3-.31 58.9 58.9 0 0 0 6.36-.56.3.3 0 0 1 .34.26.3.3 0 0 1 -.26.34 60 60 0 0 1 -6.42.56z"/><path d="m350.86 81.54a.31.31 0 0 1 -.3-.29c-.09-2.25-.12-4.16-.12-6.41a.3.3 0 0 1 .31-.3.3.3 0 0 1 .3.3c0 2.24 0 4.15.11 6.39a.29.29 0 0 1 -.29.31z"/><path d="m352.77 80.2a.26.26 0 0 1 -.19-.07 24 24 0 0 1 -3.33-3.2.29.29 0 0 1 0-.42.3.3 0 0 1 .43 0 24 24 0 0 0 3.32 3.15.3.3 0 0 1 0 .43.3.3 0 0 1 -.23.11z"/><path d="m349.68 80.13a.29.29 0 0 1 -.21-.08.31.31 0 0 1 0-.43l1-1a9.51 9.51 0 0 0 .89-1.16 9 9 0 0 1 .57-.79.3.3 0 0 1 .47.37c-.18.23-.36.49-.55.76a10.32 10.32 0 0 1 -.94 1.24l-1 1a.31.31 0 0 1 -.23.09z"/><path d="m399.65 39a.31.31 0 0 1 -.3-.29.31.31 0 0 1 .29-.32 58.88 58.88 0 0 0 6.36-.55.29.29 0 0 1 .34.26.3.3 0 0 1 -.25.34 60.19 60.19 0 0 1 -6.43.56z"/><path d="m403.31 41.69a.32.32 0 0 1 -.31-.29c-.08-2.25-.12-4.17-.11-6.42a.3.3 0 0 1 .3-.3.3.3 0 0 1 .3.31c0 2.23 0 4.14.12 6.38a.3.3 0 0 1 -.29.32z"/><path d="m405.21 40.35a.37.37 0 0 1 -.19-.07 23.92 23.92 0 0 1 -3.32-3.2.31.31 0 0 1 0-.43.3.3 0 0 1 .43 0 23.46 23.46 0 0 0 3.25 3.13.3.3 0 0 1 -.19.54z"/><path d="m402.13 40.28a.32.32 0 0 1 -.21-.08.3.3 0 0 1 0-.43l.95-1a10.8 10.8 0 0 0 .88-1.17l.57-.79a.31.31 0 0 1 .48.38c-.18.22-.36.49-.55.76a11.48 11.48 0 0 1 -.94 1.24l-.95 1a.28.28 0 0 1 -.23.09z"/><path d="m193.6 94.41a.3.3 0 0 1 -.3-.29.29.29 0 0 1 .29-.31 58.9 58.9 0 0 0 6.36-.56.3.3 0 0 1 .34.26.29.29 0 0 1 -.25.34 60.42 60.42 0 0 1 -6.43.56z"/><path d="m197.26 97.13a.31.31 0 0 1 -.31-.29c-.08-2.25-.12-4.16-.11-6.41a.29.29 0 0 1 .3-.3.29.29 0 0 1 .3.3c0 2.24 0 4.15.12 6.39a.3.3 0 0 1 -.29.31z"/><path d="m199.16 95.79a.28.28 0 0 1 -.19-.07 24 24 0 0 1 -3.33-3.2.3.3 0 0 1 .46-.39 24 24 0 0 0 3.25 3.12.31.31 0 0 1 .05.43.32.32 0 0 1 -.24.11z"/><path d="m196.08 95.72a.28.28 0 0 1 -.21-.08.3.3 0 0 1 0-.43l.94-1a9.81 9.81 0 0 0 .89-1.18c.2-.28.39-.55.57-.78a.3.3 0 0 1 .48.37c-.18.22-.36.49-.55.76a11.48 11.48 0 0 1 -.94 1.24l-.95 1a.31.31 0 0 1 -.23.1z"/><path d="m134.52 169.74a5.51 5.51 0 0 0 -.32-1 3.31 3.31 0 0 1 -.2-.68c0-.14 0-.3-.14-.34h-.16-.43l-1.21-.15-1.67-.2 1.86-1.25 1-.68c.07-.05.14-.08.16-.17a2.1 2.1 0 0 0 -.06-.33l-.06-.36c-.08-.47-.15-.94-.22-1.41l-.09-.68s-.05-.21 0-.24.14.1.17.13l.43.32 1.23.94.49.37s.17.16.19.15l1.73-.81a5.64 5.64 0 0 1 1-.45 5.24 5.24 0 0 0 -.27 1 4.09 4.09 0 0 1 -.18.49c-.14.37-.3.74-.47 1.1-.07.16-.18.29-.05.44a1.49 1.49 0 0 0 .27.23l1.15 1 .88.74-3.27-.12-1.49 3-.86-3"/><path d="m330.16 157.41a5.58 5.58 0 0 0 -.31-1 2.55 2.55 0 0 1 -.2-.68c0-.13 0-.3-.14-.34h-.17-.43l-1.2-.14-1.71-.25 1.86-1.25 1-.68c.07 0 .14-.08.16-.17a1.2 1.2 0 0 0 -.06-.33l-.06-.37c-.08-.47-.15-.94-.22-1.41 0-.22-.06-.45-.08-.68 0-.05-.06-.21 0-.24s.14.1.18.13.28.22.42.33l1.24.94.48.37s.18.15.2.14l1.73-.81a6 6 0 0 1 1-.45 5.45 5.45 0 0 0 -.27 1c-.05.17-.11.33-.17.49q-.23.57-.48 1.11c-.07.15-.17.29-.05.43a2.1 2.1 0 0 0 .27.24l1.16 1 .88.74-3.28-.12-1.48 3-.87-3"/><path d="m147.68 139.56c-.71-1.12-1.51-2.27-2.22-3.39 0 1.33-.61 2.94-.64 4.27-.67.09-3.24 1.13-4.94 1.5 1.63.9 3 1 4.68 1.94.13 1.64.37 3.36.41 5 1.13-.8 2.53-3.51 2.61-3.56s3.12.89 4.65 1.06a25.09 25.09 0 0 0 -2.89-4.23 9 9 0 0 0 2.44-4.16c-1.55.62-2.54 1.01-4.1 1.57z"/><path d="m290.33 170.4c-.71-1.12-1.51-2.27-2.22-3.39 0 1.33-.61 2.94-.64 4.27-.67.09-3.24 1.13-4.94 1.5 1.63.9 3 1 4.68 1.94.13 1.64.37 3.36.41 5 1.13-.8 2.53-3.51 2.61-3.56s3.12.89 4.65 1.06a25.09 25.09 0 0 0 -2.88-4.22 9 9 0 0 0 2.44-4.16c-1.56.61-2.55.95-4.11 1.56z"/><path d="m161.61 59.79c-.71-1.12-1.51-2.28-2.23-3.39 0 1.33-.61 2.94-.64 4.27-.67.09-3.23 1.13-4.93 1.5 1.63.9 3 1 4.67 1.94.14 1.64.37 3.36.42 5 1.13-.81 2.52-3.52 2.61-3.57s3.12.9 4.65 1.06a25 25 0 0 0 -2.89-4.22 9 9 0 0 0 2.44-4.16c-1.55.62-2.55.96-4.1 1.57z"/><path d="m237.61 124.91c-.3-1.48-.67-3-1-4.5-.58 1.4-1.85 2.87-2.43 4.26-.74-.18-3.88-.13-5.83-.43 1.36 1.62 2.8 2.34 4.16 4-.53 1.8-1 3.71-1.61 5.47 1.52-.39 4.11-2.68 4.22-2.7s2.93 2.22 4.48 3a27.82 27.82 0 0 0 -1.33-5.65 10.32 10.32 0 0 0 4.28-3.4c-1.86.04-3.05-.06-4.94-.05z"/><path d="m269.79 196.24c-.61-1-1.29-1.94-1.9-2.89 0 1.14-.52 2.51-.54 3.65-.58.07-2.77.95-4.21 1.27 1.39.77 2.59.89 4 1.66.12 1.4.32 2.86.36 4.27a14 14 0 0 0 2.23-3c.12-.08 2.66.76 4 .9a20.69 20.69 0 0 0 -2.47-3.6 7.76 7.76 0 0 0 2.09-3.54c-1.35.48-2.23.76-3.56 1.28z"/><path d="m144.41 206.53c-.86-1.35-1.83-2.74-2.69-4.09 0 1.61-.74 3.55-.77 5.16-.81.1-3.91 1.35-5.95 1.8 2 1.09 3.67 1.25 5.64 2.34.16 2 .44 4 .5 6 1.36-1 3-4.24 3.14-4.3s3.77 1.08 5.61 1.28a29.22 29.22 0 0 0 -3.49-5.09 11 11 0 0 0 2.95-5c-1.87.76-3.07 1.17-4.94 1.9z"/><path d="m209.72 218.38c-1.22 1-2.56 2-3.78 3 .47-1.5.43-3.53.9-5-.72-.35-3.2-2.48-5-3.54 2.17-.4 3.8 0 6-.41.77-1.78 1.68-3.62 2.35-5.44 1 1.32 1.5 4.88 1.58 5s3.83.18 5.6.57a29.33 29.33 0 0 1 -4.83 3.63 10.65 10.65 0 0 1 1.16 5.57c-1.49-1.36-2.48-2.12-3.98-3.38z"/><path d="m264.63 149.79c-.47.81-1 1.66-1.47 2.48-.07-1-.53-2.07-.59-3-.48 0-2.34-.69-3.56-.9 1.13-.69 2.13-.84 3.26-1.53 0-1.17.16-2.39.13-3.56a11.06 11.06 0 0 1 2 2.44c.11.06 2.19-.73 3.27-.9a17.54 17.54 0 0 1 -1.92 3.09 6.5 6.5 0 0 1 1.87 2.87c-1.15-.4-1.87-.61-2.99-.99z"/><path d="m360 129.87c-.72-1.11-1.52-2.27-2.23-3.39 0 1.33-.61 3-.64 4.28-.67.08-3.24 1.12-4.94 1.5 1.64.9 3.05 1 4.68 1.94.14 1.64.37 3.36.42 5 1.13-.8 2.52-3.51 2.61-3.56s3.12.89 4.65 1.06a24.48 24.48 0 0 0 -2.9-4.22 9.1 9.1 0 0 0 2.45-4.16c-1.6.61-2.59.94-4.1 1.55z"/><path d="m413.35 183.47c-.89 1-1.88 2-2.77 3 .2-1.32-.11-3 .09-4.32-.65-.2-3-1.65-4.62-2.3 1.76-.62 3.17-.52 4.94-1.14.4-1.59.92-3.25 1.24-4.86 1 1 1.9 3.88 2 3.94s3.23-.35 4.76-.26a25.23 25.23 0 0 1 -3.55 3.68 9.07 9.07 0 0 1 1.71 4.5c-1.45-.88-2.37-1.38-3.8-2.24z"/><path d="m96.47 172.55c-1.73-2.7-3.67-5.49-5.39-8.2-.07 3.22-1.47 7.12-1.55 10.34-1.62.21-7.83 2.72-11.93 3.62 4 2.18 7.36 2.51 11.31 4.69.32 4 .89 8.12 1 12.1 2.73-1.94 6.1-8.49 6.31-8.61.37-.21 7.55 2.16 11.24 2.56-2.24-3.68-4.06-7-7-10.2a21.92 21.92 0 0 0 5.9-10.06c-3.74 1.47-6.14 2.29-9.89 3.76z"/><path d="m62.59 127.38c-1.82-1.46-3.82-2.93-5.64-4.39.7 2.24.65 5.26 1.35 7.49-1.06.53-4.76 3.72-7.39 5.3 3.24.58 5.67 0 8.91.59 1.16 2.66 2.52 5.4 3.53 8.12 1.43-2 2.22-7.29 2.34-7.43s5.71-.27 8.36-.86a43.46 43.46 0 0 0 -7.22-5.41 16.09 16.09 0 0 0 1.72-8.32c-2.25 1.89-3.72 3.02-5.96 4.91z"/></g><path d="m288.81 76.24a1 1 0 0 0 .13-.4 3.84 3.84 0 0 1 .34-.78 1.25 1.25 0 0 1 .51-.56 1.72 1.72 0 0 1 .65-.14 2.51 2.51 0 0 1 1.31.16 1.43 1.43 0 0 1 .59.58 2.61 2.61 0 0 1 .25.76 2.74 2.74 0 0 1 0 1.14 1.7 1.7 0 0 1 -.64 1 2 2 0 0 1 -1.45.29 2.38 2.38 0 0 1 -1-.44 1.59 1.59 0 0 1 -.48-.74 2.69 2.69 0 0 1 -.21-.87z" fill="#e6b246"/><path d="m242.78 219.83a.73.73 0 0 0 .08-.25 2.42 2.42 0 0 1 .23-.52.76.76 0 0 1 .33-.36 1 1 0 0 1 .42-.09 1.56 1.56 0 0 1 .86.1 1 1 0 0 1 .38.38 1.56 1.56 0 0 1 .17.5 1.84 1.84 0 0 1 0 .74 1.11 1.11 0 0 1 -.41.63 1.3 1.3 0 0 1 -1 .19 1.45 1.45 0 0 1 -.67-.29 1 1 0 0 1 -.31-.49 1.46 1.46 0 0 1 -.08-.54z" fill="#e6b246"/><path d="m273.7 171.2a1.31 1.31 0 0 0 .16-.47 3.85 3.85 0 0 1 .4-.94 1.47 1.47 0 0 1 .6-.66 2.06 2.06 0 0 1 .78-.17 3 3 0 0 1 1.57.19 1.7 1.7 0 0 1 .69.69 3.07 3.07 0 0 1 .31.91 3.28 3.28 0 0 1 0 1.36 2 2 0 0 1 -.76 1.15 2.36 2.36 0 0 1 -1.73.34 2.9 2.9 0 0 1 -1.22-.52 1.85 1.85 0 0 1 -.57-.89 2.9 2.9 0 0 1 -.23-.99z" fill="#e6b246"/><path d="m17.54 101.75a.9.9 0 0 0 .13-.39 3.62 3.62 0 0 1 .34-.78 1.33 1.33 0 0 1 .51-.57 1.57 1.57 0 0 1 .65-.13 2.35 2.35 0 0 1 1.32.16 1.41 1.41 0 0 1 .58.58 2.52 2.52 0 0 1 .25.76 2.69 2.69 0 0 1 0 1.13 1.67 1.67 0 0 1 -.64 1 2 2 0 0 1 -1.45.29 2.4 2.4 0 0 1 -1-.44 1.52 1.52 0 0 1 -.49-.75 2.63 2.63 0 0 1 -.2-.86z" fill="#e6b246"/><path d="m305.52 67.62a1.69 1.69 0 0 0 .3 1.35 1.34 1.34 0 0 0 .36.39 1 1 0 0 0 .71.1 1.65 1.65 0 0 0 .65-.32 2.61 2.61 0 0 0 .67-.77 1.36 1.36 0 0 0 .18-.43 1.63 1.63 0 0 0 0-.54 3 3 0 0 0 -.24-.82 1.1 1.1 0 0 0 -.54-.62 1.38 1.38 0 0 0 -.64-.07 1.47 1.47 0 0 0 -.62.13c-.13.07-.23.17-.36.25s-.49.17-.64.36a.85.85 0 0 0 -.15.37 2.38 2.38 0 0 0 .39 1.82 1 1 0 0 0 .63.44" fill="#e6b246"/><path d="m363.76 40.21a2 2 0 0 0 .35 1.59 1.6 1.6 0 0 0 .42.44 1.09 1.09 0 0 0 .83.13 2 2 0 0 0 .76-.38 3.09 3.09 0 0 0 .79-.9 1.89 1.89 0 0 0 .21-.51 1.85 1.85 0 0 0 0-.62 3.93 3.93 0 0 0 -.28-1 1.4 1.4 0 0 0 -.64-.73 1.68 1.68 0 0 0 -.74-.08 1.8 1.8 0 0 0 -.73.15c-.15.08-.27.2-.42.29s-.57.2-.76.43a.94.94 0 0 0 -.16.43 2.77 2.77 0 0 0 .45 2.13 1.15 1.15 0 0 0 .74.52" fill="#e6b246"/><path d="m11.23 109.84a1.69 1.69 0 0 0 .3 1.35 1.34 1.34 0 0 0 .36.39 1 1 0 0 0 .71.1 1.65 1.65 0 0 0 .65-.32 2.61 2.61 0 0 0 .67-.77 1.36 1.36 0 0 0 .18-.43 1.4 1.4 0 0 0 0-.54 3 3 0 0 0 -.24-.82 1.1 1.1 0 0 0 -.54-.62 1.38 1.38 0 0 0 -.64-.07 1.39 1.39 0 0 0 -.61.13c-.13.07-.24.17-.37.25s-.49.17-.64.36a.85.85 0 0 0 -.15.37 2.43 2.43 0 0 0 .39 1.82 1 1 0 0 0 .64.44" fill="#e6b246"/><path d="m54.12 145.93a.53.53 0 0 0 .07-.2 1.36 1.36 0 0 1 .17-.39.62.62 0 0 1 .25-.28.93.93 0 0 1 .33-.07 1.24 1.24 0 0 1 .66.08.74.74 0 0 1 .29.29 1.71 1.71 0 0 1 .13.38 1.37 1.37 0 0 1 0 .57.84.84 0 0 1 -.31.48 1 1 0 0 1 -.73.14 1.12 1.12 0 0 1 -.51-.22.65.65 0 0 1 -.24-.37 1.23 1.23 0 0 1 -.11-.41z" fill="#e6b246"/><path d="m9.77 104a.48.48 0 0 0 .07-.2 1.49 1.49 0 0 1 .17-.39.62.62 0 0 1 .25-.28.93.93 0 0 1 .33-.07 1.24 1.24 0 0 1 .66.08.81.81 0 0 1 .29.29 1.71 1.71 0 0 1 .13.38 1.37 1.37 0 0 1 0 .57.81.81 0 0 1 -.31.48 1 1 0 0 1 -.73.14 1.11 1.11 0 0 1 -.51-.21.67.67 0 0 1 -.24-.38 1.17 1.17 0 0 1 -.11-.41z" fill="#e6b246"/><path d="m134.46 187.28a.48.48 0 0 0 .07-.2 1.65 1.65 0 0 1 .17-.39.62.62 0 0 1 .25-.28.88.88 0 0 1 .33-.07 1.34 1.34 0 0 1 .66.08.81.81 0 0 1 .29.29 1.29 1.29 0 0 1 .12.38 1.22 1.22 0 0 1 0 .57.8.8 0 0 1 -.32.48 1 1 0 0 1 -.72.15 1.12 1.12 0 0 1 -.51-.22.77.77 0 0 1 -.25-.37 1.5 1.5 0 0 1 -.09-.42z" fill="#e6b246"/><path d="m176.91 76.46a.51.51 0 0 0 .06-.2 2.3 2.3 0 0 1 .17-.39.64.64 0 0 1 .26-.28.68.68 0 0 1 .32-.07 1.22 1.22 0 0 1 .66.08.63.63 0 0 1 .29.29 1.32 1.32 0 0 1 .13.38 1.56 1.56 0 0 1 0 .57.91.91 0 0 1 -.32.48 1 1 0 0 1 -.73.14 1.17 1.17 0 0 1 -.51-.22.77.77 0 0 1 -.24-.37 1.21 1.21 0 0 1 -.09-.41z" fill="#e6b246"/><path d="m148.21 121.5a.48.48 0 0 0 .07-.2 1.65 1.65 0 0 1 .17-.39.62.62 0 0 1 .25-.28.88.88 0 0 1 .33-.07 1.29 1.29 0 0 1 .65.08.76.76 0 0 1 .3.29 1.29 1.29 0 0 1 .12.38 1.22 1.22 0 0 1 0 .57.8.8 0 0 1 -.32.48 1 1 0 0 1 -.72.15 1.21 1.21 0 0 1 -.52-.22.82.82 0 0 1 -.24-.37 1.5 1.5 0 0 1 -.09-.42z" fill="#e6b246"/><path d="m123.52 148.47a1.1 1.1 0 0 0 .16-.47 3.89 3.89 0 0 1 .41-.94 1.49 1.49 0 0 1 .6-.67 2 2 0 0 1 .78-.16 3 3 0 0 1 1.57.19 1.69 1.69 0 0 1 .7.7 2.64 2.64 0 0 1 .3.91 3.23 3.23 0 0 1 0 1.35 2.05 2.05 0 0 1 -.76 1.16 2.39 2.39 0 0 1 -1.74.34 2.78 2.78 0 0 1 -1.22-.52 1.78 1.78 0 0 1 -.58-.9 3.09 3.09 0 0 1 -.22-.99z" fill="#e6b246"/><path d="m193.49 129.4a1.7 1.7 0 0 0 .31 1.35 1.34 1.34 0 0 0 .36.39.94.94 0 0 0 .7.1 1.59 1.59 0 0 0 .65-.32 2.79 2.79 0 0 0 .68-.77 1.33 1.33 0 0 0 .17-.43 1.63 1.63 0 0 0 0-.54 3.86 3.86 0 0 0 -.24-.82 1.16 1.16 0 0 0 -.55-.62 1.35 1.35 0 0 0 -.63-.07 1.47 1.47 0 0 0 -.62.13c-.13.07-.24.17-.36.25s-.49.17-.65.36a.84.84 0 0 0 -.14.37 2.34 2.34 0 0 0 .39 1.82.94.94 0 0 0 .63.44" fill="#e6b246"/><path d="m143.06 92.13a2.45 2.45 0 0 0 .44 2 1.71 1.71 0 0 0 .52.55 1.32 1.32 0 0 0 1 .15 2.32 2.32 0 0 0 .93-.46 3.77 3.77 0 0 0 1-1.1 1.91 1.91 0 0 0 .26-.63 2.16 2.16 0 0 0 0-.76 4.93 4.93 0 0 0 -.35-1.19 1.63 1.63 0 0 0 -.78-.89 2 2 0 0 0 -.91-.09 1.92 1.92 0 0 0 -.89.18c-.18.09-.34.25-.52.35s-.7.25-.93.53a1.11 1.11 0 0 0 -.2.53 3.42 3.42 0 0 0 .55 2.62 1.48 1.48 0 0 0 .91.63" fill="#e6b246"/><path d="m192 123.52a.47.47 0 0 0 .06-.2 2.71 2.71 0 0 1 .17-.39.64.64 0 0 1 .26-.28.83.83 0 0 1 .32-.07 1.21 1.21 0 0 1 .66.08.68.68 0 0 1 .29.29 1.32 1.32 0 0 1 .13.38 1.56 1.56 0 0 1 0 .57.88.88 0 0 1 -.32.48 1 1 0 0 1 -.73.14 1.15 1.15 0 0 1 -.51-.21.8.8 0 0 1 -.24-.38 1.16 1.16 0 0 1 -.09-.41z" fill="#e6b246"/><path d="m223.87 143.16a.44.44 0 0 0 .07-.19 1.55 1.55 0 0 1 .17-.4.62.62 0 0 1 .25-.28.93.93 0 0 1 .33-.07 1.34 1.34 0 0 1 .66.08.89.89 0 0 1 .29.29 1.29 1.29 0 0 1 .12.38 1.22 1.22 0 0 1 0 .57.76.76 0 0 1 -.32.48 1 1 0 0 1 -.72.15 1.12 1.12 0 0 1 -.51-.22.68.68 0 0 1 -.24-.37 1.23 1.23 0 0 1 -.1-.42z" fill="#e6b246"/><path d="m403.33 183.07a.48.48 0 0 0 .07-.2 1.49 1.49 0 0 1 .17-.39.62.62 0 0 1 .25-.28.88.88 0 0 1 .32-.07 1.21 1.21 0 0 1 .66.08.76.76 0 0 1 .3.29 1.29 1.29 0 0 1 .12.38 1.22 1.22 0 0 1 0 .57.83.83 0 0 1 -.32.48 1 1 0 0 1 -.72.14 1.19 1.19 0 0 1 -.52-.21.8.8 0 0 1 -.24-.38 1.16 1.16 0 0 1 -.09-.41z" fill="#e6b246"/><path d="m320 194a.42.42 0 0 0 .06-.19 2 2 0 0 1 .18-.4.66.66 0 0 1 .25-.28.88.88 0 0 1 .32-.07 1.31 1.31 0 0 1 .66.08.7.7 0 0 1 .29.3 1 1 0 0 1 .13.38 1.51 1.51 0 0 1 0 .56.9.9 0 0 1 -.32.49 1 1 0 0 1 -.73.14 1.17 1.17 0 0 1 -.51-.22.77.77 0 0 1 -.24-.37 1.22 1.22 0 0 1 -.09-.42z" fill="#e6b246"/><path d="m367.78 205.31a.42.42 0 0 0 .06-.19 2 2 0 0 1 .18-.4.66.66 0 0 1 .25-.28.88.88 0 0 1 .32-.07 1.31 1.31 0 0 1 .66.08.7.7 0 0 1 .29.3 1 1 0 0 1 .13.38 1.51 1.51 0 0 1 0 .56.9.9 0 0 1 -.32.49 1 1 0 0 1 -.73.14 1.17 1.17 0 0 1 -.51-.22.77.77 0 0 1 -.24-.37 1.22 1.22 0 0 1 -.09-.42z" fill="#e6b246"/><path d="m85.21 208.74a1 1 0 0 0 .13-.39 3.69 3.69 0 0 1 .34-.79 1.25 1.25 0 0 1 .51-.56 1.76 1.76 0 0 1 .65-.14 2.55 2.55 0 0 1 1.32.16 1.47 1.47 0 0 1 .58.58 2.61 2.61 0 0 1 .25.76 2.74 2.74 0 0 1 0 1.14 1.7 1.7 0 0 1 -.64 1 2 2 0 0 1 -1.45.29 2.29 2.29 0 0 1 -1-.44 1.54 1.54 0 0 1 -.49-.74 2.69 2.69 0 0 1 -.2-.87z" fill="#e6b246"/><path d="m79 216.8a2 2 0 0 0 .36 1.61 1.35 1.35 0 0 0 .43.46 1.14 1.14 0 0 0 .83.12 2 2 0 0 0 .77-.38 3.2 3.2 0 0 0 .81-.91 2 2 0 0 0 .21-.52 1.9 1.9 0 0 0 0-.63 4.1 4.1 0 0 0 -.29-1 1.36 1.36 0 0 0 -.65-.74 1.71 1.71 0 0 0 -.75-.08 1.8 1.8 0 0 0 -.73.15c-.16.08-.28.21-.43.3s-.58.2-.77.43a1 1 0 0 0 -.17.44 2.8 2.8 0 0 0 .46 2.16 1.18 1.18 0 0 0 .75.53" fill="#e6b246"/><path d="m77.44 210.94a.44.44 0 0 0 .07-.19 1.55 1.55 0 0 1 .17-.4.74.74 0 0 1 .25-.28.93.93 0 0 1 .33-.07 1.34 1.34 0 0 1 .66.08.83.83 0 0 1 .29.3 1.13 1.13 0 0 1 .12.38 1.18 1.18 0 0 1 0 .56.8.8 0 0 1 -.32.49 1 1 0 0 1 -.72.14 1.12 1.12 0 0 1 -.51-.22.65.65 0 0 1 -.24-.37 1.23 1.23 0 0 1 -.1-.42z" fill="#e6b246"/><path d="m139.94 187.16a.48.48 0 0 0 .07-.2 1.36 1.36 0 0 1 .17-.39.62.62 0 0 1 .25-.28.93.93 0 0 1 .33-.07 1.24 1.24 0 0 1 .66.08.74.74 0 0 1 .29.29 1.29 1.29 0 0 1 .12.38 1.22 1.22 0 0 1 0 .57.81.81 0 0 1 -.32.48 1 1 0 0 1 -.72.14 1.11 1.11 0 0 1 -.51-.21.79.79 0 0 1 -.25-.38 1.51 1.51 0 0 1 -.09-.41z" fill="#e6b246"/><path d="m158.06 216.88a.53.53 0 0 0 .07-.2 1.36 1.36 0 0 1 .17-.39.62.62 0 0 1 .25-.28.93.93 0 0 1 .33-.07 1.24 1.24 0 0 1 .66.08.74.74 0 0 1 .29.29 1.29 1.29 0 0 1 .12.38 1.22 1.22 0 0 1 0 .57.81.81 0 0 1 -.32.48 1 1 0 0 1 -.72.14 1.12 1.12 0 0 1 -.51-.22.65.65 0 0 1 -.24-.37 1.23 1.23 0 0 1 -.1-.41z" fill="#e6b246"/><path d="m241 197.15a1 1 0 0 0 .2.37 3.62 3.62 0 0 1 .34.78 1.21 1.21 0 0 1 .06.75 1.57 1.57 0 0 1 -.34.57 2.52 2.52 0 0 1 -1 .86 1.47 1.47 0 0 1 -.83 0 3 3 0 0 1 -1.55-1.12 1.61 1.61 0 0 1 -.27-1.12 1.94 1.94 0 0 1 .78-1.26 2.42 2.42 0 0 1 1-.45 1.56 1.56 0 0 1 .88.16 2.65 2.65 0 0 1 .73.46z" fill="#e6b246"/><path d="m350.79 211.3a.69.69 0 0 0 .16.29 3.42 3.42 0 0 1 .27.62 1 1 0 0 1 0 .6 1.38 1.38 0 0 1 -.27.45 2 2 0 0 1 -.81.68 1.15 1.15 0 0 1 -.66 0 2.36 2.36 0 0 1 -.58-.27 2 2 0 0 1 -.65-.62 1.32 1.32 0 0 1 -.22-.89 1.55 1.55 0 0 1 .62-1 1.79 1.79 0 0 1 .81-.36 1.2 1.2 0 0 1 .7.12 2.14 2.14 0 0 1 .63.38z" fill="#e6b246"/><path d="m74.36 161.51a.87.87 0 0 0 .19.37 3 3 0 0 1 .34.78 1.29 1.29 0 0 1 .07.75 1.57 1.57 0 0 1 -.34.57 2.62 2.62 0 0 1 -1 .86 1.53 1.53 0 0 1 -.82 0 2.33 2.33 0 0 1 -.73-.34 2.57 2.57 0 0 1 -.83-.78 1.68 1.68 0 0 1 -.27-1.12 2 2 0 0 1 .78-1.26 2.46 2.46 0 0 1 1-.45 1.53 1.53 0 0 1 .87.16 2.61 2.61 0 0 1 .74.46z" fill="#e6b246"/><path d="m189 174.26a1 1 0 0 0 .19.37 3.44 3.44 0 0 1 .35.78 1.36 1.36 0 0 1 .06.75 1.66 1.66 0 0 1 -.34.57 2.49 2.49 0 0 1 -1 .86 1.53 1.53 0 0 1 -.82 0 2.85 2.85 0 0 1 -.73-.34 2.81 2.81 0 0 1 -.83-.78 1.74 1.74 0 0 1 -.27-1.12 2 2 0 0 1 .78-1.26 2.52 2.52 0 0 1 1-.45 1.58 1.58 0 0 1 .88.16 2.55 2.55 0 0 1 .73.46z" fill="#e6b246"/><path d="m217.49 187.49a1.7 1.7 0 0 0 -1.2-.7 1.19 1.19 0 0 0 -.53 0 1 1 0 0 0 -.56.44 1.71 1.71 0 0 0 -.2.7 2.64 2.64 0 0 0 .1 1 1.38 1.38 0 0 0 .19.43 1.52 1.52 0 0 0 .4.36 3.18 3.18 0 0 0 .76.38 1.09 1.09 0 0 0 .83 0 1.38 1.38 0 0 0 .48-.42 1.32 1.32 0 0 0 .33-.54c0-.14 0-.29.07-.43s.21-.48.17-.72a.85.85 0 0 0 -.17-.36 2.4 2.4 0 0 0 -1.6-1 1 1 0 0 0 -.75.16" fill="#e6b246"/><path d="m286.91 203a1.7 1.7 0 0 0 -1.2-.7 1.35 1.35 0 0 0 -.53 0 .94.94 0 0 0 -.55.45 1.54 1.54 0 0 0 -.21.69 2.71 2.71 0 0 0 .1 1 1.23 1.23 0 0 0 .19.42 1.52 1.52 0 0 0 .4.36 3.22 3.22 0 0 0 .76.39 1.19 1.19 0 0 0 .83 0 1.49 1.49 0 0 0 .48-.42 1.46 1.46 0 0 0 .33-.54c0-.14 0-.29.07-.44s.21-.47.17-.72a.76.76 0 0 0 -.17-.35 2.33 2.33 0 0 0 -1.6-1 .94.94 0 0 0 -.75.16" fill="#e6b246"/><path d="m210.44 193.85a.44.44 0 0 0 .1.19 2.3 2.3 0 0 1 .17.39.62.62 0 0 1 0 .38.91.91 0 0 1 -.17.28 1.24 1.24 0 0 1 -.51.43.72.72 0 0 1 -.41 0 1.12 1.12 0 0 1 -.37-.17 1.24 1.24 0 0 1 -.41-.38.87.87 0 0 1 -.13-.57.93.93 0 0 1 .39-.62 1.09 1.09 0 0 1 .5-.23.74.74 0 0 1 .44.08 1.68 1.68 0 0 1 .4.22z" fill="#e6b246"/><path d="m303.85 149.74a1 1 0 0 0 .19.37 3.44 3.44 0 0 1 .35.78 1.36 1.36 0 0 1 .06.75 1.66 1.66 0 0 1 -.34.57 2.49 2.49 0 0 1 -1 .86 1.53 1.53 0 0 1 -.82 0 2.55 2.55 0 0 1 -.73-.34 2.81 2.81 0 0 1 -.83-.78 1.74 1.74 0 0 1 -.27-1.12 2 2 0 0 1 .78-1.26 2.52 2.52 0 0 1 1-.45 1.58 1.58 0 0 1 .88.16 2.55 2.55 0 0 1 .73.46z" fill="#e6b246"/><path d="m296.88 140.66a1.69 1.69 0 0 0 -1.19-.7 1.35 1.35 0 0 0 -.53 0 1 1 0 0 0 -.56.45 1.67 1.67 0 0 0 -.2.69 2.71 2.71 0 0 0 .09 1 1.22 1.22 0 0 0 .6.78 3 3 0 0 0 .76.39 1.19 1.19 0 0 0 .83 0 1.49 1.49 0 0 0 .48-.42 1.61 1.61 0 0 0 .33-.54c0-.14 0-.29.06-.44a2.06 2.06 0 0 0 .18-.72.76.76 0 0 0 -.17-.35 2.35 2.35 0 0 0 -1.6-1 .94.94 0 0 0 -.75.16" fill="#e6b246"/><path d="m261.7 69.36a1.73 1.73 0 0 0 -1.2-.7 1.35 1.35 0 0 0 -.53 0 1 1 0 0 0 -.56.45 1.67 1.67 0 0 0 -.2.69 2.52 2.52 0 0 0 .1 1 1.38 1.38 0 0 0 .19.43 1.68 1.68 0 0 0 .4.35 3 3 0 0 0 .76.39 1.19 1.19 0 0 0 .83 0 1.49 1.49 0 0 0 .48-.42 1.61 1.61 0 0 0 .33-.54c0-.14 0-.29.06-.43a2.17 2.17 0 0 0 .18-.73.76.76 0 0 0 -.17-.35 2.35 2.35 0 0 0 -1.6-1 .94.94 0 0 0 -.75.16" fill="#e6b246"/><path d="m302.14 138.17a.44.44 0 0 0 .1.19 1.53 1.53 0 0 1 .17.39.59.59 0 0 1 0 .37.85.85 0 0 1 -.17.29 1.32 1.32 0 0 1 -.51.43.81.81 0 0 1 -.41 0 1 1 0 0 1 -.36-.17 1.42 1.42 0 0 1 -.42-.39.84.84 0 0 1 -.13-.56 1 1 0 0 1 .39-.63 1.22 1.22 0 0 1 .51-.22.71.71 0 0 1 .43.08 1.23 1.23 0 0 1 .4.22z" fill="#e6b246"/><path d="m292.27 134.53a.64.64 0 0 0 .1.18 1.49 1.49 0 0 1 .17.39.62.62 0 0 1 0 .38.91.91 0 0 1 -.17.28 1.21 1.21 0 0 1 -.5.43.67.67 0 0 1 -.42 0 1.17 1.17 0 0 1 -.36-.16 1.39 1.39 0 0 1 -.41-.39.79.79 0 0 1 -.14-.56 1 1 0 0 1 .39-.63 1.12 1.12 0 0 1 .51-.23.75.75 0 0 1 .44.08 1.2 1.2 0 0 1 .39.23z" fill="#e6b246"/><path d="m206.81 94.93a.46.46 0 0 0 .1.18 1.92 1.92 0 0 1 .17.39.62.62 0 0 1 0 .38.81.81 0 0 1 -.17.28 1.17 1.17 0 0 1 -.51.43.64.64 0 0 1 -.41 0 1.34 1.34 0 0 1 -.37-.16 1.52 1.52 0 0 1 -.41-.39.84.84 0 0 1 -.13-.56 1 1 0 0 1 .39-.63 1.08 1.08 0 0 1 .51-.23.71.71 0 0 1 .43.08 1.25 1.25 0 0 1 .4.23z" fill="#e6b246"/><path d="m252.88 135.53a.46.46 0 0 0 .1.18 2.71 2.71 0 0 1 .17.39.62.62 0 0 1 0 .38.81.81 0 0 1 -.17.28 1.17 1.17 0 0 1 -.51.43.72.72 0 0 1 -.41 0 1.76 1.76 0 0 1 -.37-.17 1.39 1.39 0 0 1 -.41-.39.9.9 0 0 1 -.14-.56 1 1 0 0 1 .4-.63 1.2 1.2 0 0 1 .5-.23.83.83 0 0 1 .44.08 1.39 1.39 0 0 1 .4.24z" fill="#e6b246"/><path d="m359.92 100.19a.64.64 0 0 0 .1.18 1.49 1.49 0 0 1 .17.39.7.7 0 0 1 0 .38 1 1 0 0 1 -.18.28 1.21 1.21 0 0 1 -.5.43.67.67 0 0 1 -.42 0 1.17 1.17 0 0 1 -.36-.16 1.39 1.39 0 0 1 -.41-.39.79.79 0 0 1 -.14-.56 1 1 0 0 1 .39-.63 1.12 1.12 0 0 1 .51-.23.74.74 0 0 1 .44.08 1.2 1.2 0 0 1 .4.23z" fill="#e6b246"/><path d="m278.53 192.12a.64.64 0 0 0 .1.18 1.3 1.3 0 0 1 .19.37.64.64 0 0 1 .05.36.62.62 0 0 1 -.14.25 1 1 0 0 1 -.46.37.65.65 0 0 1 -.39 0 1.35 1.35 0 0 1 -.36-.18 1.64 1.64 0 0 1 -.41-.38.88.88 0 0 1 -.16-.54.8.8 0 0 1 .33-.56 1 1 0 0 1 .47-.18.71.71 0 0 1 .42.1 1.34 1.34 0 0 1 .36.21z" fill="#e6b246"/><path d="m228.62 194.5a.52.52 0 0 0 .1.18 1.42 1.42 0 0 1 .17.4.66.66 0 0 1 0 .37.88.88 0 0 1 -.18.29 1.26 1.26 0 0 1 -.5.42.75.75 0 0 1 -.42 0 1.19 1.19 0 0 1 -.36-.17 1.27 1.27 0 0 1 -.41-.39.79.79 0 0 1 -.14-.56 1 1 0 0 1 .39-.63 1.22 1.22 0 0 1 .51-.22.75.75 0 0 1 .44.08 1.17 1.17 0 0 1 .4.23z" fill="#e6b246"/><path d="m276.68 109.78a.44.44 0 0 0 .09.18 1.49 1.49 0 0 1 .17.39.7.7 0 0 1 0 .38.85.85 0 0 1 -.17.29 1.28 1.28 0 0 1 -.51.42.72.72 0 0 1 -.41 0 1.4 1.4 0 0 1 -.37-.17 1.27 1.27 0 0 1 -.41-.39.84.84 0 0 1 -.14-.56 1 1 0 0 1 .39-.63 1.11 1.11 0 0 1 .51-.22.74.74 0 0 1 .44.07 1.39 1.39 0 0 1 .41.24z" fill="#e6b246"/><path d="m252.39 224.27a.52.52 0 0 0 .1.18 1.42 1.42 0 0 1 .17.4.58.58 0 0 1 0 .37.85.85 0 0 1 -.17.29 1.26 1.26 0 0 1 -.5.42.75.75 0 0 1 -.42 0 1.19 1.19 0 0 1 -.36-.17 1.27 1.27 0 0 1 -.41-.39.79.79 0 0 1 -.14-.56 1 1 0 0 1 .39-.63 1.22 1.22 0 0 1 .51-.22.75.75 0 0 1 .44.08 1 1 0 0 1 .39.23z" fill="#e6b246"/><path d="m252.89 180.83a.44.44 0 0 0 .1.19 1.53 1.53 0 0 1 .17.39.59.59 0 0 1 0 .37.85.85 0 0 1 -.17.29 1.32 1.32 0 0 1 -.51.43.81.81 0 0 1 -.41 0 1 1 0 0 1 -.36-.17 1.42 1.42 0 0 1 -.42-.39.84.84 0 0 1 -.13-.56 1 1 0 0 1 .39-.63 1.22 1.22 0 0 1 .51-.22.71.71 0 0 1 .43.08 1.23 1.23 0 0 1 .4.22z" fill="#e6b246"/><path d="m253.13 146.5a.44.44 0 0 0 .09.18 1.49 1.49 0 0 1 .17.39.7.7 0 0 1 0 .38.73.73 0 0 1 -.17.28 1.3 1.3 0 0 1 -.51.43.72.72 0 0 1 -.41 0 1.4 1.4 0 0 1 -.3-.16 1.27 1.27 0 0 1 -.41-.39.84.84 0 0 1 -.14-.56 1 1 0 0 1 .39-.63 1.24 1.24 0 0 1 .51-.23.83.83 0 0 1 .44.08 1.39 1.39 0 0 1 .34.23z" fill="#e6b246"/><path d="m364.29 95.82a.64.64 0 0 0 .1.18 1.36 1.36 0 0 1 .17.39.62.62 0 0 1 0 .38.75.75 0 0 1 -.17.28 1.28 1.28 0 0 1 -.5.43.67.67 0 0 1 -.42 0 1.17 1.17 0 0 1 -.36-.16 1.39 1.39 0 0 1 -.41-.39.8.8 0 0 1 -.14-.57 1 1 0 0 1 .39-.62 1.12 1.12 0 0 1 .51-.23.75.75 0 0 1 .44.08 1.2 1.2 0 0 1 .39.23z" fill="#e6b246"/><path d="m358.21 84.8a.13.13 0 0 0 0 .09.72.72 0 0 1 .09.2.4.4 0 0 1 0 .19.55.55 0 0 1 -.09.14.63.63 0 0 1 -.25.21.5.5 0 0 1 -.21 0 .76.76 0 0 1 -.18-.09.61.61 0 0 1 -.2-.19.45.45 0 0 1 -.07-.28.51.51 0 0 1 .19-.31.54.54 0 0 1 .26-.11.31.31 0 0 1 .21 0z" fill="#e6b246"/><path d="m363 100.46a.26.26 0 0 0 .05.09.7.7 0 0 1 .08.2.28.28 0 0 1 0 .18.34.34 0 0 1 -.09.14.65.65 0 0 1 -.25.22.34.34 0 0 1 -.2 0 .37.37 0 0 1 -.18-.08.64.64 0 0 1 -.21-.19.45.45 0 0 1 -.07-.28.5.5 0 0 1 .2-.31.58.58 0 0 1 .25-.12.43.43 0 0 1 .22 0 .67.67 0 0 1 .2.15z" fill="#e6b246"/><path d="m360.72 106.36s0 .06 0 .09a1.19 1.19 0 0 1 .08.2.36.36 0 0 1 0 .18.42.42 0 0 1 -.09.14.65.65 0 0 1 -.25.22.37.37 0 0 1 -.21 0 .48.48 0 0 1 -.18-.08.61.61 0 0 1 -.2-.19.45.45 0 0 1 -.07-.28.53.53 0 0 1 .19-.32.85.85 0 0 1 .26-.11.43.43 0 0 1 .22 0 .87.87 0 0 1 .25.15z" fill="#e6b246"/><path d="m244.16 69a.46.46 0 0 0 .1.18 2.71 2.71 0 0 1 .17.39.62.62 0 0 1 0 .38.73.73 0 0 1 -.17.28 1.17 1.17 0 0 1 -.51.43.72.72 0 0 1 -.41 0 1.76 1.76 0 0 1 -.37-.17 1.38 1.38 0 0 1 -.41-.39.84.84 0 0 1 -.13-.56.93.93 0 0 1 .39-.63 1.2 1.2 0 0 1 .5-.23.83.83 0 0 1 .44.08 1.25 1.25 0 0 1 .4.24z" fill="#e6b246"/><path d="m13.19 191.76a.46.46 0 0 0 .1.18 2.3 2.3 0 0 1 .17.39.62.62 0 0 1 0 .38.91.91 0 0 1 -.17.28 1.24 1.24 0 0 1 -.51.43.64.64 0 0 1 -.41 0 1.34 1.34 0 0 1 -.37-.16 1.52 1.52 0 0 1 -.41-.39.85.85 0 0 1 -.13-.57.93.93 0 0 1 .39-.62 1.09 1.09 0 0 1 .5-.23.73.73 0 0 1 .44.08 1.25 1.25 0 0 1 .4.23z" fill="#e6b246"/><path d="m409.69 143.34a.77.77 0 0 0 .12.31 2 2 0 0 1 .19.66 1.12 1.12 0 0 1 0 .67 2.41 2.41 0 0 1 -.37.55 3.42 3.42 0 0 1 -1 .91 1.38 1.38 0 0 1 -.72.14 1.59 1.59 0 0 1 -.59-.21 1.53 1.53 0 0 1 -.62-.59 1.36 1.36 0 0 1 -.08-1 2.7 2.7 0 0 1 .85-1.24 2.9 2.9 0 0 1 .94-.54 1.16 1.16 0 0 1 .74 0 1.44 1.44 0 0 1 .54.34z" fill="#e6b246"/><path d="m51.81 191.4.1.14a1.69 1.69 0 0 1 .17.29.41.41 0 0 1 .08.25.34.34 0 0 1 -.08.17.48.48 0 0 1 -.3.22.61.61 0 0 1 -.29-.05 1.4 1.4 0 0 1 -.28-.17 2 2 0 0 1 -.34-.31.7.7 0 0 1 -.17-.4.38.38 0 0 1 .18-.37.58.58 0 0 1 .65 0 1.07 1.07 0 0 1 .28.23z" fill="#e6b246"/><path d="m135.54 75.76a.42.42 0 0 0 .09.19 1.25 1.25 0 0 1 .17.39.68.68 0 0 1 0 .37.85.85 0 0 1 -.17.29 1.49 1.49 0 0 1 -.51.43.82.82 0 0 1 -.41 0 1 1 0 0 1 -.37-.17 1.27 1.27 0 0 1 -.41-.39.84.84 0 0 1 -.14-.56 1.06 1.06 0 0 1 .39-.63 1.22 1.22 0 0 1 .51-.22.74.74 0 0 1 .44.08 1.36 1.36 0 0 1 .41.22z" fill="#e6b246"/><path d="m361.14 47.38a.36.36 0 0 0 .1.14 1.69 1.69 0 0 1 .17.29.41.41 0 0 1 .08.25.45.45 0 0 1 -.08.17.48.48 0 0 1 -.3.22.61.61 0 0 1 -.29-.05 2 2 0 0 1 -.28-.16 2.08 2.08 0 0 1 -.34-.32.79.79 0 0 1 -.18-.4.41.41 0 0 1 .19-.37.67.67 0 0 1 .33-.08.9.9 0 0 1 .32.12 1.73 1.73 0 0 1 .28.19z" fill="#e6b246"/><path d="m340.08 219.18c0 .08.06.12.1.18a1.78 1.78 0 0 1 .17.4.58.58 0 0 1 0 .37.85.85 0 0 1 -.17.29 1.22 1.22 0 0 1 -.51.42.72.72 0 0 1 -.41 0 1.19 1.19 0 0 1 -.36-.17 1.42 1.42 0 0 1 -.42-.39.84.84 0 0 1 -.13-.56 1 1 0 0 1 .39-.63 1.22 1.22 0 0 1 .51-.22.71.71 0 0 1 .43.08 1 1 0 0 1 .4.23z" fill="#e6b246"/><path d="m397.54 102.4a.88.88 0 0 0 -.24-.23 2.75 2.75 0 0 1 -.44-.52 1 1 0 0 1 -.22-.56 1.17 1.17 0 0 1 .13-.51 1.9 1.9 0 0 1 .57-.88 1.14 1.14 0 0 1 .62-.22 2 2 0 0 1 .64.09 2.28 2.28 0 0 1 .81.4 1.36 1.36 0 0 1 .46.8 1.61 1.61 0 0 1 -.3 1.13 1.89 1.89 0 0 1 -.68.58 1.2 1.2 0 0 1 -.7.08 2 2 0 0 1 -.65-.16z" fill="#e6b246"/><path d="m408.86 75.7a.54.54 0 0 0 -.15-.15 1.74 1.74 0 0 1 -.28-.32.72.72 0 0 1 -.14-.35.73.73 0 0 1 .09-.32 1.18 1.18 0 0 1 .36-.56.68.68 0 0 1 .39-.13 1.37 1.37 0 0 1 .4 0 1.2 1.2 0 0 1 .5.26.84.84 0 0 1 .3.49 1 1 0 0 1 -.2.72 1.12 1.12 0 0 1 -.42.36.74.74 0 0 1 -.44 0 1.17 1.17 0 0 1 -.41 0z" fill="#e6b246"/><path d="m387.77 93.78a.5.5 0 0 0 -.15-.14 1.81 1.81 0 0 1 -.28-.33.68.68 0 0 1 -.14-.35.89.89 0 0 1 .08-.32 1.28 1.28 0 0 1 .37-.56.76.76 0 0 1 .35-.08 1.27 1.27 0 0 1 .39 0 1.3 1.3 0 0 1 .51.26.78.78 0 0 1 .29.5 1 1 0 0 1 -.19.71 1.11 1.11 0 0 1 -.42.36.75.75 0 0 1 -.44 0 1 1 0 0 1 -.37-.05z" fill="#e6b246"/><path d="m356.9 42.65a.54.54 0 0 0 -.15-.15 1.44 1.44 0 0 1 -.27-.33.55.55 0 0 1 -.14-.35.76.76 0 0 1 .08-.32 1.15 1.15 0 0 1 .36-.55.71.71 0 0 1 .39-.14 1.34 1.34 0 0 1 .4.06 1.43 1.43 0 0 1 .51.25.9.9 0 0 1 .29.5 1 1 0 0 1 -.19.71 1.27 1.27 0 0 1 -.43.37.73.73 0 0 1 -.44 0 1.45 1.45 0 0 1 -.41-.05z" fill="#e6b246"/><path d="m358.31 94.2a1.07 1.07 0 0 0 -.3-.3 3.26 3.26 0 0 1 -.56-.66 1.32 1.32 0 0 1 -.29-.72 1.7 1.7 0 0 1 .17-.65 2.54 2.54 0 0 1 .74-1.14 1.53 1.53 0 0 1 .79-.27 2.73 2.73 0 0 1 .81.11 2.83 2.83 0 0 1 1 .52 1.72 1.72 0 0 1 .6 1 2 2 0 0 1 -.4 1.45 2.32 2.32 0 0 1 -.85.74 1.5 1.5 0 0 1 -.91.11 2.73 2.73 0 0 1 -.8-.19z" fill="#e6b246"/><path d="m398.18 142.27a.54.54 0 0 0 -.15-.15 1.64 1.64 0 0 1 -.27-.32.6.6 0 0 1 -.14-.36.66.66 0 0 1 .08-.32 1.15 1.15 0 0 1 .36-.55.71.71 0 0 1 .39-.14 1.34 1.34 0 0 1 .4.06 1.43 1.43 0 0 1 .51.25.94.94 0 0 1 .29.5 1 1 0 0 1 -.19.71 1.27 1.27 0 0 1 -.43.37.73.73 0 0 1 -.44.05 1.45 1.45 0 0 1 -.41-.1z" fill="#e6b246"/><path d="m398.89 108.63a.41.41 0 0 0 -.14-.15 1.48 1.48 0 0 1 -.28-.33.61.61 0 0 1 -.14-.35.89.89 0 0 1 .08-.32 1.23 1.23 0 0 1 .36-.55.74.74 0 0 1 .39-.14 1.34 1.34 0 0 1 .4.06 1.43 1.43 0 0 1 .51.25.85.85 0 0 1 .29.5 1 1 0 0 1 -.19.71 1.24 1.24 0 0 1 -.42.37.86.86 0 0 1 -.45 0 1.45 1.45 0 0 1 -.41-.05z" fill="#e6b246"/><path d="m73.52 156a.46.46 0 0 0 .1.18 1.78 1.78 0 0 1 .17.4.58.58 0 0 1 0 .37.85.85 0 0 1 -.17.29 1.22 1.22 0 0 1 -.51.42.72.72 0 0 1 -.41 0 1.49 1.49 0 0 1 -.36-.17 1.31 1.31 0 0 1 -.42-.39.84.84 0 0 1 -.13-.56 1 1 0 0 1 .39-.63 1.06 1.06 0 0 1 .51-.22.79.79 0 0 1 .43.07 1.25 1.25 0 0 1 .4.24z" fill="#e6b246"/><path d="m94.29 90.29a.94.94 0 0 0 .08.41 3 3 0 0 1 .11.85 1.28 1.28 0 0 1 -.14.74 1.63 1.63 0 0 1 -.49.45 2.5 2.5 0 0 1 -1.21.54 1.37 1.37 0 0 1 -.8-.2 2.55 2.55 0 0 1 -.61-.52 2.86 2.86 0 0 1 -.58-1 1.63 1.63 0 0 1 .06-1.15 2 2 0 0 1 1.09-1 2.49 2.49 0 0 1 1.11-.15 1.49 1.49 0 0 1 .79.4 2.62 2.62 0 0 1 .59.63z" fill="#e6b246"/><path d="m124.55 115.83a1 1 0 0 0 -.36-.22 3.61 3.61 0 0 1 -.69-.49 1.31 1.31 0 0 1 -.44-.62 1.63 1.63 0 0 1 0-.66 2.47 2.47 0 0 1 .43-1.26 1.42 1.42 0 0 1 .69-.44 2.4 2.4 0 0 1 .8-.09 2.65 2.65 0 0 1 1.11.25 1.66 1.66 0 0 1 .81.82 2 2 0 0 1 0 1.48 2.35 2.35 0 0 1 -.64.91 1.49 1.49 0 0 1 -.83.31 2.43 2.43 0 0 1 -.88.01z" fill="#e6b246"/><path d="m12 173.44a1.1 1.1 0 0 0 -.36-.21 3.09 3.09 0 0 1 -.7-.5 1.3 1.3 0 0 1 -.44-.61 1.88 1.88 0 0 1 0-.67 2.57 2.57 0 0 1 .5-1.25 1.44 1.44 0 0 1 .69-.45 2.4 2.4 0 0 1 .8-.08 2.67 2.67 0 0 1 1.11.24 1.66 1.66 0 0 1 .8.83 2 2 0 0 1 0 1.48 2.43 2.43 0 0 1 -.64.9 1.53 1.53 0 0 1 -.84.32 2.63 2.63 0 0 1 -.92 0z" fill="#e6b246"/><path d="m131.12 123.7a1.69 1.69 0 0 0 1.39 0 1.15 1.15 0 0 0 .45-.27 1 1 0 0 0 .25-.67 1.73 1.73 0 0 0 -.18-.7 2.71 2.71 0 0 0 -.6-.82 1.44 1.44 0 0 0 -.43-.24 1.61 1.61 0 0 0 -.53-.1 3 3 0 0 0 -.85.06 1.18 1.18 0 0 0 -.73.4 1.41 1.41 0 0 0 -.19.61 1.34 1.34 0 0 0 0 .63c0 .14.12.26.17.4s.06.52.22.71a.74.74 0 0 0 .33.22 2.4 2.4 0 0 0 1.86 0 1 1 0 0 0 .57-.53" fill="#e6b246"/><path d="m125.07 123.88a.64.64 0 0 0 -.18-.1 1.72 1.72 0 0 1 -.35-.25.63.63 0 0 1 -.22-.31.74.74 0 0 1 0-.33 1.26 1.26 0 0 1 .22-.63.69.69 0 0 1 .34-.22 1.09 1.09 0 0 1 .4 0 1.23 1.23 0 0 1 .56.12.8.8 0 0 1 .4.41 1 1 0 0 1 0 .74 1.23 1.23 0 0 1 -.32.45.75.75 0 0 1 -.42.16 1.19 1.19 0 0 1 -.43-.04z" fill="#e6b246"/><path d="m410.86 136.43a.45.45 0 0 0 -.17-.11 1.4 1.4 0 0 1 -.35-.25.55.55 0 0 1 -.22-.3.74.74 0 0 1 0-.33 1.22 1.22 0 0 1 .22-.63.69.69 0 0 1 .34-.22 1.37 1.37 0 0 1 .4-.05 1.31 1.31 0 0 1 .55.13.78.78 0 0 1 .41.41 1 1 0 0 1 0 .74 1.22 1.22 0 0 1 -.33.45.77.77 0 0 1 -.41.16 1.24 1.24 0 0 1 -.44 0z" fill="#e6b246"/><path d="m20 207.27a.49.49 0 0 0 -.18-.11 1.72 1.72 0 0 1 -.35-.25.61.61 0 0 1 -.22-.3.78.78 0 0 1 0-.34 1.22 1.22 0 0 1 .22-.62.71.71 0 0 1 .34-.23 1.36 1.36 0 0 1 .4 0 1.56 1.56 0 0 1 .56.12.88.88 0 0 1 .4.41 1 1 0 0 1 0 .74 1.27 1.27 0 0 1 -.32.46.84.84 0 0 1 -.42.16 1.48 1.48 0 0 1 -.43-.04z" fill="#e6b246"/><path d="m125.59 97.62a.49.49 0 0 0 -.18-.11 1.72 1.72 0 0 1 -.35-.25.63.63 0 0 1 -.22-.31.74.74 0 0 1 0-.33 1.22 1.22 0 0 1 .22-.62.65.65 0 0 1 .34-.23 1.09 1.09 0 0 1 .4 0 1.56 1.56 0 0 1 .56.12.88.88 0 0 1 .4.41 1 1 0 0 1 0 .74 1.16 1.16 0 0 1 -.32.46.72.72 0 0 1 -.42.15 1.19 1.19 0 0 1 -.43-.03z" fill="#e6b246"/><path d="m12.25 200.75a.45.45 0 0 0 -.17-.11 1.4 1.4 0 0 1 -.35-.25.55.55 0 0 1 -.22-.3.74.74 0 0 1 0-.33 1.22 1.22 0 0 1 .22-.63.71.71 0 0 1 .34-.23 1.36 1.36 0 0 1 .4 0 1.47 1.47 0 0 1 .53.1.84.84 0 0 1 .41.42 1 1 0 0 1 0 .74 1.22 1.22 0 0 1 -.33.45.77.77 0 0 1 -.41.16 1.55 1.55 0 0 1 -.42-.02z" fill="#e6b246"/><path d="m58.29 199.89a.59.59 0 0 0 -.17-.1 2.22 2.22 0 0 1 -.35-.25.58.58 0 0 1 -.22-.31.74.74 0 0 1 0-.33 1.22 1.22 0 0 1 .22-.63.69.69 0 0 1 .34-.22 1.37 1.37 0 0 1 .4-.05 1.31 1.31 0 0 1 .55.13.78.78 0 0 1 .41.41 1 1 0 0 1 0 .74 1.15 1.15 0 0 1 -.33.45.77.77 0 0 1 -.41.16 1.24 1.24 0 0 1 -.44 0z" fill="#e6b246"/><path d="m392.82 207.27a.84.84 0 0 0 .15.68.81.81 0 0 0 .18.19.43.43 0 0 0 .35.05.73.73 0 0 0 .33-.16 1.38 1.38 0 0 0 .34-.38.83.83 0 0 0 .08-.22.82.82 0 0 0 0-.27 1.48 1.48 0 0 0 -.12-.41.59.59 0 0 0 -.27-.31.69.69 0 0 0 -.32 0 .81.81 0 0 0 -.31.06l-.18.13c-.11.06-.24.08-.32.18a.4.4 0 0 0 -.07.18 1.19 1.19 0 0 0 .19.92.52.52 0 0 0 .32.22" fill="#e6b246"/><path d="m398.88 205.79a.86.86 0 0 0 -.65-.25.57.57 0 0 0 -.26 0 .51.51 0 0 0 -.24.26.75.75 0 0 0 -.05.36 1.48 1.48 0 0 0 .13.5.5.5 0 0 0 .13.19.66.66 0 0 0 .22.15 2 2 0 0 0 .41.13.64.64 0 0 0 .41 0 1 1 0 0 0 .33-.54 1.61 1.61 0 0 1 0-.22c0-.12.06-.25 0-.37a.42.42 0 0 0 -.11-.16 1.19 1.19 0 0 0 -.86-.35.48.48 0 0 0 -.36.14" fill="#e6b246"/><path d="m377.66 31.17c-1.24.64-2.92 1.23-4.16 1.87.67-1.23 1.33-3 2-4.2a36.29 36.29 0 0 1 -4.32-3.4l5.9.13c1-1.43 2.12-2.87 3-4.35.61 1.33.45 4.54.5 4.63s3.64 1 5.13 1.63a28.93 28.93 0 0 1 -5.2 2.19 9.66 9.66 0 0 1 0 5.09c-1.03-1.38-1.76-2.21-2.85-3.59z" fill="#2d3a66"/></g></svg>