<svg viewBox="0 0 426 233" xmlns="http://www.w3.org/2000/svg"><path d="m113.93 203.861s-6.724 1.209-10.468.46c-3.743-.749-5.668-1.604-6.417-.642" style="fill:none;stroke:#1d1d1b;stroke-width:.5;stroke-linecap:round;stroke-linejoin:round;stroke-miterlimit:10"/><path d="m74.37 150.167s8.413 2.21 11.123 3.921.571 2.425-1.284 2.567c-1.854.143-4.991-.428-4.991 1.141" fill="#c4262e"/><path d="m74.37 150.167s8.413 2.21 11.123 3.921.571 2.425-1.284 2.567c-1.854.143-4.991-.428-4.991 1.141" fill="none" stroke="#1d1d1b" stroke-miterlimit="10" stroke-width=".5"/><path d="m70.438 202.053s-.132-1.789 13.652-2.32c0 0 6.561.265 4.507 1.458 0 0-.862 2.518-18.159.862" fill="#f7a900"/><path d="m69 202.657s9.956 3.457 21.018-.345l4.978 8.573s-3.181 6.153-24.406 4.217c0 0-7.19-1.038-5.669-5.255z" fill="#f7a900"/><path d="m84.099 199.379s-21.185 1.906-11.184 3.535c10.001 1.628 24.848-2.731 12.425-2.945" style="fill:none;stroke:#1d1d1b;stroke-width:.5;stroke-linecap:round;stroke-linejoin:round;stroke-miterlimit:10"/><path d="m68.981 201.936c.945.816 2.243 1.22 3.435 1.482 2.558.562 5.19.581 7.791.359 1.052-.089 10.623-.647 9.689-2.63-.297-.63-2.183-.573-2.683-.591m7.17 9.48-4.139-8.278m-21.509.594-3.232 8.081m.457.038s-2.12 4.325 10.987 4.373c16.742.063 17.869-4.05 17.436-4.81m-24.968-8.551s-.553-1.659 11.961-2.489" style="fill:none;stroke:#1d1d1b;stroke-width:.5;stroke-linecap:round;stroke-linejoin:round;stroke-miterlimit:10"/><path d="m88.332 203.577 1.457-.398 3.447 7.025-.994.994z" fill="#fff"/><path d="m9.76 204s135.169-55.238 406.195 2.005" style="fill:none;stroke:#1d1d1b;stroke-width:.5;stroke-linecap:round;stroke-linejoin:round;stroke-miterlimit:10"/><path d="m43.506 158.497c-.158-.015-.748 2.234-.79 2.38a139.448 139.448 0 0 0 -1.563 6.043c-.744 3.108-1.415 6.237-1.905 9.398a69.618 69.618 0 0 0 -.844 11.01c.018 3.628.063 7.272.411 10.886.067.695-.095 1.475.295 2.106.848 1.366 3.115.558 4.105-.132.821-.573 1.682-1.405 2.686-1.637 1.586-.366 3.487 1.09 5.084 1.171 1.906.098 2.806-1.86 4.462-2.57 1.176-.503 2.474-.602 3.729-.751 1.267-.15 2.525-.327 3.805-.294.482.013 1.402.094 2.134-.045.986-.19 5.888-25.858-3.257-35.858z" fill="#c4262e"/><path d="m37.162 146.809s.951 5.552 3.785 9.383c1.449 1.958 4.021 2.91 6.186 4.047 3.49 1.832 7.308.215 10.087-2.082 11.304-9.344-1.311-18.434-3.492-21.698-2.181-3.262-3.423-7.539-5.134-1.443l-.601 2.059s-4.713 1.695-7.901 5.482c-.865 1.029-1.132.038-4.446-.949-2.251-.673-2.707 3.615 1.516 5.201" fill="#735123"/><path d="m51.411 140.541s-.856 2.139.856 3.422c1.711 1.283 3.707 2.139 4.849.571 1.14-1.569.713-1.997-.286-2.995-.998-.998-2.424-.713-5.419-.998" fill="#fff"/><path d="m57.472 158.366s12.549-14.973 19.679-13.405l-1.536 1.614s.109 1.951-1.245 3.591c-1.354 1.639-5.562 8.77-12.834 9.768" fill="#735123"/><path d="m42.757 158.497c-.158-.015-.748 2.234-.79 2.38a139.448 139.448 0 0 0 -1.563 6.043c-.744 3.108-1.415 6.237-1.905 9.398a69.5 69.5 0 0 0 -.844 11.01c.018 3.628.063 7.272.411 10.886.067.695-.095 1.475.295 2.106.848 1.366 3.114.558 4.105-.132.821-.573 1.682-1.405 2.686-1.637 1.586-.366 3.341.105 4.939.188 1.906.097 2.951-.876 4.608-1.587 1.176-.503 2.475-.602 3.73-.751 1.267-.15 2.525-.327 3.805-.294.482.013 2.475.23 2.62-.501.001-.001 4.946-25.008-3.316-35.384z" style="fill:none;stroke:#1d1d1b;stroke-width:.5;stroke-linecap:round;stroke-linejoin:round;stroke-miterlimit:10"/><path d="m43.069 158.224c-.158.001-.65 1.941-.685 2.061a46.31 46.31 0 0 0 -1.334 6.014c-.475 3.051-.697 6.142-.779 9.226-.109 4.11.064 8.24.752 12.298.782 4.617 1.316 9.32 3.059 13.653.162.402.652 1.998.961 2.292.344.327 1.184.148 1.697-.025l.892-1.151.719-2.636 1.026-7.967s5.536-2.014 8.324.13l1.116 1.73.161 3.434 4.232.302s5.883-29.66-2.983-39.533z" fill="#735123"/><path d="m74.17 150.59s5.702 5.552 5.032 9.236c0 0-.711 2.528-3.389.185 0 0-2.955-1.064-2.955 1.299 0 2.365-2.128 1.419-2.482.592-.355-.827 1.418-8.629 1.418-8.629" fill="#c4262e"/><path d="m74.17 150.59s5.702 5.552 5.032 9.236c0 0-.711 2.528-3.389.185 0 0-2.955-1.064-2.955 1.299 0 2.365-2.128 1.419-2.482.592-.355-.827 1.418-8.629 1.418-8.629" fill="none" stroke="#1d1d1b" stroke-miterlimit="10" stroke-width=".5"/><path d="m41.658 190.575c-4.66 1.064-5.06 5.611-7.115 9.087-1.615 2.732-3.183 2.578-6.016 2.989-3.254.471-1.83 1.782.576 2.328 10.034 2.281 5.704-11.841 13.189-12.334" fill="#735123"/><path d="m41.658 190.575c-4.66 1.064-5.06 5.611-7.115 9.087-1.615 2.732-3.183 2.578-6.016 2.989-3.254.471-1.83 1.782.576 2.328 10.034 2.281 5.704-11.841 13.189-12.334" style="fill:none;stroke:#1d1d1b;stroke-width:.5;stroke-linecap:round;stroke-linejoin:round;stroke-miterlimit:10"/><path d="m349.467 140.374s19.34 9.926 26.301 11.359c0 0-2.822.775-3.232 2.822-.409 2.046-.587 3.271-2.603 5.824-1.381 1.75-2.442-1.472-3.893 1.997-2.28 5.451-4.815-.155-5.803 2.019-1.757 3.865-4.14-.861-3.731 1.186.409 2.048-2.461 2.531-2.461 2.531l-4.783-26.919" fill="#1d1d1b"/><path d="m290.182 197.667s-22.921-62.781 17.701-82.676c0 0 19.576-9.787 37.694 17.494 18.767 28.257 14.577 66.223 9.997 69.764l-8.539-2.082s8.539-12.495 3.124-20.825c0 0-3.176 18.598-45.208 8.983 0 0-10.291.436-8.52 10.573z" fill="#999"/><path d="m307.611 143.008s-1.044 8.579 3.246 8.115c6.355-.688 3.477-9.043 3.477-9.043" fill="#f29fb4"/><path d="m307.611 143.008s-1.044 8.579 3.246 8.115c6.355-.688 3.477-9.043 3.477-9.043" style="fill:none;stroke:#1d1d1b;stroke-width:.5;stroke-linecap:round;stroke-linejoin:round;stroke-miterlimit:10"/><path d="m293.18 147.307s-1.772 7.348.964 13.871c1.563 3.725 3.991 7.317 7.162 9.839 3.824 3.042 8.703 4.713 13.581 3.794 4.617-.872 8.92-3.289 12.172-6.662 1.151-1.194 2.253-2.53 3.108-3.953.298-.495 2.119-3.79 1.536-4.307-.001-.001-3.839-3.396-3.691-5.168-.022.259-.329.659-.445.889a55.265 55.265 0 0 1 -.92 1.758c-1.129 2.049-2.434 4.006-3.992 5.754-1.776 1.991-2.604 3.083-4.974 4.324-2.525 1.323-6.447 1.874-9.212.965-3.468-1.14-6.58-2.962-9.029-5.6-2.631-2.833-3.955-6.538-4.98-10.196a75.227 75.227 0 0 1 -.76-2.907c-.163-.679-.477-1.701-.52-2.401" fill="#735123"/><path d="m305.33 115.295c-5.765-.31-7.311-2.741-6.05-5.099 1.26-2.358 9.382 3.884 9.382 3.884m7.985-.523s-2.067-9.875 5.978-9.077c5.717.567 5.031 2.786 2.837 3.491-4.525 1.456-6.162 1.456-5.094 5.726z" fill="#b3b3b3"/><path d="m144.792 91.487s-5.035-8.803-12.376-8.982c0 0 4.85 7.394 12.376 8.982" fill="#c4262e"/><path d="m144.792 91.487s-5.035-8.803-12.376-8.982c0 0 4.85 7.394 12.376 8.982z" fill="none" stroke="#1d1d1b" stroke-miterlimit="10" stroke-width=".5"/><path d="m147.231 90.76s-8.444-5.616-15.088-2.49c0 0 7.648 4.44 15.088 2.49" fill="#c4262e"/><path d="m147.231 90.76s-8.444-5.616-15.088-2.49c0 0 7.648 4.44 15.088 2.49z" fill="none" stroke="#1d1d1b" stroke-miterlimit="10" stroke-width=".5"/><path d="m149.301 126.874c.274-5.053 7.151-13.054 5.926-17.956-.214-.856-4.813-1.283-6.121-2.002-8.845 5.828-71.787 36-73.401 39.436 0 0-1.701 3.805.124 3.069 10.794-4.361 26.771 9.252 73.429-8.565.938-4.219-.177-9.902.043-13.982" fill="#c4262e"/><path d="m176.275 98.777c6.817 1.653 17.592 5.653 26.117 6.939 2.367.358-10.837 6.273-10.008 7.958 4.614 9.37 8.145 28.448 8.089 31.809-.452 27.139 4.688 39.74 16.044 44.495 0 0-19.778 6.006-24.471-3.242s-9.619-28.861-16.02-26.2c-4.843 2.015-6.773 5.704-8.511 11.239" fill="#fff"/><path d="m176.275 98.777c6.817 1.653 17.592 5.653 26.117 6.939 2.367.358-10.837 6.273-10.008 7.958 4.614 9.37 8.145 28.448 8.089 31.809-.452 27.139 4.688 39.74 16.044 44.495 0 0-19.778 6.006-24.471-3.242s-9.619-28.861-16.02-26.2c-4.843 2.015-6.773 5.704-8.511 11.239" fill="none" stroke="#1d1d1b" stroke-miterlimit="10" stroke-width=".5"/><path d="m148.81 102.618c-1.155-.928-2.503-2.063-3.716-4.133-12.689-21.657 8.828-30.411 16.868-30.249 13.48.272 21.319 2.79 19.79 25.104 0 0-.998 9.982-10.981 12.976" fill="#fff"/><path d="m148.81 102.618c-1.155-.928-2.503-2.063-3.716-4.133-12.689-21.657 8.828-30.411 16.868-30.249 13.48.272 21.319 2.79 19.79 25.104 0 0-.998 9.982-10.981 12.976" style="fill:none;stroke:#1d1d1b;stroke-width:.5;stroke-linecap:round;stroke-linejoin:round;stroke-miterlimit:10"/><path d="m145.326 170.115c.228-1.536 4.397-27.239 4.28-35.995-.072-5.37-.659-14.14-.607-26.676.012-2.736-1.668-5.374-3.247-6.683" fill="none" stroke="#1d1d1b" stroke-miterlimit="10" stroke-width=".5"/><path d="m156.734 83.451c-.551-1.327-3.381 1.515-1.591 1.338-.254.049.759.053 1.621-.206m14.032-4.345c-.011 0-4.137.552-1.791 1.818m3.353 26.89s-12.263 11.136-7.337 12.963c4.925 1.825 7.337-12.963 7.337-12.963zm.214-.254s-2.086 16.216 1.522 12.13c3.607-4.086-1.522-12.13-1.522-12.13z" style="fill:none;stroke:#1d1d1b;stroke-width:.5;stroke-linecap:round;stroke-linejoin:round;stroke-miterlimit:10"/><path d="m172.438 109.12s3.398-3.438 3.77.927c.343 4.007 4.769 6.467 7.3 5.304m-10.99-6.637c-.124.362-.136 3.763-5.335 4.136" style="fill:none;stroke:#1d1d1b;stroke-width:.5;stroke-linecap:round;stroke-linejoin:round;stroke-miterlimit:10"/><path d="m182.179 82.359c-1.392-5.836-3.132-10.159-6.603-15.057-2.779-3.924-6.623-7.176-11.608-7.275-2.747-.055-11.635 1.997-14.225 2.943-12.214 4.458-9.829 14.155-9.572 20.901.033.887.41 6.322 1.562 8.376 1.362-.101 41.137-6.992 40.446-9.888m-25.714 2.775c-1.115.079-2.061-.414-2.11-1.106-.049-.69.902-2.014 2.017-2.093 1.115-.08 2.698.728 2.747 1.419.05.691-1.537 1.7-2.654 1.78m13.864-2.585c-1.319.095-2.725-.429-2.779-1.196-.056-.768 1.065-2.158 2.385-2.254 1.319-.095 2.335 1.143 2.391 1.91.055.768-.678 1.446-1.997 1.54" fill="#c4262e"/><path d="m182.097 82.359c-1.391-5.836-4.299-11.031-8.413-15.401-3.551-3.771-7.118-5.857-12.103-5.957-2.746-.055-8.408 1.446-10.999 2.391-12.214 4.458-10.748 13.731-10.492 20.477.034.887.41 6.322 1.563 8.376 1.36-.099 41.135-6.99 40.444-9.886zm-25.713 2.775c-1.115.079-2.06-.414-2.109-1.106-.05-.69.901-2.014 2.016-2.093 1.115-.08 2.698.728 2.747 1.419s-1.538 1.7-2.654 1.78zm13.863-2.585c-1.318.095-2.725-.429-2.779-1.196-.056-.768 1.066-2.158 2.385-2.254 1.318-.095 2.335 1.143 2.391 1.91.055.768-.678 1.446-1.997 1.54z" fill="none" stroke="#1d1d1b" stroke-miterlimit="10" stroke-width=".5"/><path d="m144.65 169.454 23.162 2.13s-8.404 27.94-27.178 27.385c-11.03-.327 4.016-29.515 4.016-29.515" fill="#f7a900"/><path d="m145.336 170.267 22.604.978s-4.744 26.292-27.241 27.416c-11.024.551 4.637-28.394 4.637-28.394z" fill="none" stroke="#1d1d1b" stroke-miterlimit="10" stroke-width=".5"/><path d="m183.882 167.471 17.336-6.326s7.837 26.768 17.207 27.792c0 0-18.312 12.775-26.108-.151-7.796-12.925-8.435-21.315-8.435-21.315" fill="#f7a900"/><path d="m183.859 167.715 17.222-6.931s7.118 27.846 16.487 28.872c0 0-17.104 12.262-24.898-.664-7.797-12.927-8.811-21.277-8.811-21.277zm-34.859-60.671c-22.511 10.442-42.971 22.089-65.218 33.212-2.567.856-4.278 3.423-6.845 5.134-.856.856-1.711 2.567-2.126 4.191.745-.404 7.587-2.946 3.677-2.518-.847.152-3.249 1.752-3.677 2.518 4.782-2.618 10.718-.578 15.802-.316 6.941.358 13.977-.572 20.845-1.463 13.421-1.741 25.137-3.948 37.94-8.402" fill="none" stroke="#1d1d1b" stroke-miterlimit="10" stroke-width=".5"/><path d="m148.222 149.09s50.568.233 52.113-4.562l.529 11.63s-19.262-1.52-19.092 7.683c0 0-2.776-5.938-8.429-1.884 0 0 2.267-6.709-26.245-4.041z" fill="#f7a900"/><path d="m148.222 149.09s50.568.233 52.113-4.562l.529 11.63s-19.262-1.52-19.092 7.683c0 0-2.776-5.938-8.429-1.884 0 0 2.267-6.709-26.245-4.041z" fill="none" stroke="#1d1d1b" stroke-miterlimit="10" stroke-width=".5"/><path d="m148.708 144.292s49.579 4.164 51.179-4.192l.898 6.54s-8.288 10.775-52.931 5.258z" fill="#c4262e"/><path d="m148.937 144.274s49.371 3.985 50.821-3.734l.878 6.735s-10.925 10.812-52.82 5.215z" fill="none" stroke="#1d1d1b" stroke-miterlimit="10" stroke-width=".5"/><path d="m171.894 143.621 7.336-1.332 2.47 2.941-3.219 9.759-2.644.423-5.602-8.42z" fill="#c4262e"/><path d="m171.894 143.621 7.336-1.332 2.47 2.941-3.219 9.759-2.644.423-5.602-8.42z" fill="none" stroke="#1d1d1b" stroke-miterlimit="10" stroke-width=".5"/><path d="m176.452 143.801.731 2.376 2.207.691-1.845 1.491.081 2.506-1.871-1.454-2.157.858.688-2.391-1.413-1.974 2.296-.024zm-169.648-58.155 2.748 3.976 3.643-.402-1.898 3.136 2.02 4.19-4.081-1.684-2.711 2.467-.308-3.653-3.184-1.817 3.378-1.422z" fill="#f7a900"/><path d="m356.733 103.958 3.226 4.666 4.276-.471-2.226 3.68 2.368 4.919-4.788-1.977-3.183 2.895-.363-4.287-3.735-2.133 3.965-1.669z" fill="#1d1d1b"/><path d="m210.986 63.012 3.306 5.411 4.569-.97-2.745 3.828 4.7 3.515-6.853-.898-3.273 3.739.117-4.978-4.913-2.068 5.117-1.316zm-190.379 49.43 1.468 3.894 3.328-.202-2.405 1.983 1.494 2.91-2.902-1.483-2.925 1.459 1.132-2.356-1.859-1.295 2.159-.688z" fill="#c4262e"/><path d="m401.207 169.91 1.724 4.57 3.905-.235-2.823 2.326 1.754 3.415-3.405-1.74-3.434 1.712 1.329-2.765-2.182-1.52 2.534-.808zm-120.652-56.219 1.722 4.57 3.906-.235-2.823 2.326 1.753 3.414-3.405-1.739-3.433 1.712 1.329-2.765-2.182-1.52 2.533-.807z" fill="#1d1d1b"/><path d="m320.229 61.99 2.136 5.665 4.84-.293-3.498 2.882 2.173 4.233-4.221-2.155-4.255 2.121 1.647-3.427-2.704-1.884 3.141-1zm101.726 71.936-4.043 1.645.3 3.484-2.143-2.469-3.01 1.645 1.475-3.082-1.607-3.028 2.5 1.124 1.308-1.985.779 2.245zm-309.225-29.658-4.99 2.618.822 4.439-3.062-2.903-3.663 2.489 1.511-4.144-2.444-3.691 3.354 1.132 1.432-2.713 1.282 2.787z" fill="#f7a900"/><path d="m59.236 93.329.146 2.527 2.566.271-2.329 1.459-.017 1.974-1.557-1.214-2.383 1.957 1.174-3.218-1.647-1.818 2.474.278z" fill="#0061ac"/><path d="m273.87 193.632.146 2.525 2.566.272-2.329 1.459-.017 1.974-1.556-1.214-2.383 1.957 1.174-3.218-1.648-1.819 2.473.279z" fill="#1d1d1b"/><path d="m376.659 26.262.361 6.246 6.347.675-5.762 3.607-.041 4.882-3.849-3.002-5.894 4.841 2.903-7.961-4.074-4.496 6.117.687z" fill="#0061ac"/><path d="m391.832 71.302 4.093 2.694 3.392-3.671-.428 5.306 3.048 2.308-3.687 1.015.285 5.967-3.643-5.548-4.731.458 3.294-3.522z" fill="#c4262e"/><path d="m107.479 173.874.009-4.074-4.098-.687 3.885-2.119.219-3.172 2.385 2.102 4.022-2.915-2.2 5.062 2.472 3.081-3.95-.687z" fill="#0061ac"/><path d="m193.887 118.306s46.13-4.916 34.861-10.952c-10.775-5.771-43.392-.972-43.392-.972" fill="#fff"/><path d="m219.215 105.045s-2.715 4.185 1.629 7.956l-8.339 2.094s-5.296-5.983-.317-10.481z" fill="#f7a900"/><g fill="none"><path d="m219.215 105.045s-2.715 4.185 1.629 7.956l-8.339 2.094s-5.296-5.983-.317-10.481z" stroke="#1d1d1b" stroke-miterlimit="10" stroke-width=".5"/><path d="m220.467 112.882c-10.604 3.647-28.602 5.516-27.164 5.341m-6.435-11.823s19.77-2.659 31.248-1.439m3.017.27s4.459-14.267 5.018-13.847c1.89 1.422.978 18.373.978 18.373s-.018 1.399-6.558 3.209" stroke="#1d1d1b" stroke-linecap="round" stroke-linejoin="round" stroke-miterlimit="10" stroke-width=".5"/><path d="m318.376 98.372s-5.651.87-4.781 6.085m8.146-3.982s-5.391-1.905-7.09 3.103m-169.735 68.081c.184-.07.294-.12.294-.12" stroke="#1d1d1b" stroke-miterlimit="10" stroke-width=".5"/><path d="m165.244 179.243-21.132-7.977 21.932 6.709-21.287-7.928" stroke="#1d1d1b" stroke-linecap="round" stroke-linejoin="round" stroke-miterlimit="10" stroke-width=".5"/><path d="m183.991 168.735 17.931-5.535-17.298 7.522 17.617-6.119-17.412 7.043" stroke="#1d1d1b" stroke-miterlimit="10" stroke-width=".5"/><path d="m201.822 163.165s1.788-5.545 3.309-3.158-3.018 3.213-3.018 3.213 4.696-1.699 3.621 1.596-4.188-1.473-4.188-1.473m.567-.123s-.877 3.046 1.251 4.836" stroke="#1d1d1b" stroke-miterlimit="10" stroke-width=".5"/></g><path d="m155.754 66.941 2.748 5.469 1.057-.717 3.263 3.308-2.795-6.359-1.615.631z" fill="#f7a900"/><path d="m155.754 66.941 2.748 5.469 1.057-.717 3.263 3.308-2.795-6.359-1.615.631z" fill="none" stroke="#1d1d1b" stroke-miterlimit="10" stroke-width=".5"/><path d="m159.493 181.428-3.36 3.867.823.654-1.598 3.65 4.014-4.168-.91-1.136z" fill="#c4262e"/><path d="m159.493 181.428-3.36 3.867.823.654-1.598 3.65 4.014-4.168-.91-1.136z" fill="none" stroke="#1d1d1b" stroke-miterlimit="10" stroke-width=".5"/><path d="m189.364 177.822 2.839 4.336.744-.758 2.979 2.405-2.985-5.093-1.196.76z" fill="#c4262e"/><path d="m189.364 177.822 2.839 4.336.744-.758 2.979 2.405-2.985-5.093-1.196.76z" fill="none" stroke="#1d1d1b" stroke-miterlimit="10" stroke-width=".5"/><path d="m174.938 140.706c.017.242-.362.466-.846.501-.484.034-.891-.134-.908-.376-.018-.241.362-.466.846-.501.484-.033.891.134.908.376" fill="#fff"/><path d="m174.938 140.706c.017.242-.362.466-.846.501-.484.034-.891-.134-.908-.376-.018-.241.362-.466.846-.501.484-.033.891.134.908.376z" fill="none" stroke="#1d1d1b" stroke-miterlimit="10" stroke-width=".5"/><path d="m47.077 201.921-.503 1.716m-.829-1.532.222 1.665m15.352-3.207-.166 2.174m-.831-2.404.269 1.806" style="fill:none;stroke:#1d1d1b;stroke-width:.5;stroke-linecap:round;stroke-linejoin:round;stroke-miterlimit:10"/><path d="m53.81 164.782-1.804 5.693 1.226.218.03 4.534 2.376-6.347-1.559-.657z" fill="#f7a900"/><path d="m53.81 164.782-1.804 5.693 1.226.218.03 4.534 2.376-6.347-1.559-.657z" fill="none" stroke="#1d1d1b" stroke-miterlimit="10" stroke-width=".5"/><path d="m175.944 123.236-2.03 6.409 1.379.248.033 5.102 2.675-7.145-1.754-.74z" fill="#f7a900"/><path d="m175.944 123.236-2.03 6.409 1.379.248.033 5.102 2.675-7.145-1.754-.74z" fill="none" stroke="#1d1d1b" stroke-miterlimit="10" stroke-width=".5"/><path d="m42.027 184.016s11.06 3.548 22.728-2.338l-.086 5.004s-4.272-.495-6.984 5.36c0 0-5.216-1.813-8.238.037 0 0-4.659-5.526-7.915-2.91z" fill="#0061ac"/><path d="m42.027 184.016s11.06 3.548 22.728-2.338l-.086 5.004s-4.272-.495-6.984 5.36c0 0-5.216-1.813-8.238.037 0 0-4.659-5.526-7.915-2.91z" fill="none" stroke="#1d1d1b" stroke-miterlimit="10" stroke-width=".5"/><path d="m43.166 158.313c-7.177 14.236-1.262 37.148 1.914 44.457.735 1.693 1.43 1.045 1.66.973 1.675-.52 2.637-11.754 2.637-11.754s3.923-1.811 8.324.13c.407.18.737.997.926 1.583.497 1.545.546 8.312 1.218 8.538.523.175 1.295.391 2.132-.217.953-1.449 1.195-3.199 1.417-5.138.339-2.965.928-5.723 1.246-8.687.246-2.281.091-3.962.175-6.329" style="fill:none;stroke:#1d1d1b;stroke-width:.5;stroke-linecap:round;stroke-linejoin:round;stroke-miterlimit:10"/><path d="m41.586 181.268s13.271 2.923 23.253-6.761l.121 3.503s-6.136 8.499-22.745 6.614z" fill="#f7a900"/><path d="m41.586 181.268s13.271 2.923 23.253-6.761l.121 3.503s-6.136 8.499-22.745 6.614z" fill="none" stroke="#1d1d1b" stroke-miterlimit="10" stroke-width=".5"/><path d="m52.286 179.006 3.98-.465 1.151 1.396-1.858 4.844-1.434.141-2.812-4.298z" fill="#0061ac"/><path d="m52.286 179.006 3.98-.465 1.151 1.396-1.858 4.844-1.434.141-2.812-4.298z" fill="none" stroke="#1d1d1b" stroke-miterlimit="10" stroke-width=".5"/><path d="m54.735 179.213.336 1.191 1.171.397-1.028.688-.017 1.238-.972-.767-1.18.368.427-1.161-.714-1.011 1.236.048z" fill="#f7a900"/><path d="m54.735 179.213.336 1.191 1.171.397-1.028.688-.017 1.238-.972-.767-1.18.368.427-1.161-.714-1.011 1.236.048z" fill="none" stroke="#1d1d1b" stroke-miterlimit="10" stroke-width=".5"/><path d="m150.199 173.153s-6.459-6.405-2.351-5.755c4.106.648 2.351 5.755 2.351 5.755z" style="fill:none;stroke:#1d1d1b;stroke-width:.5;stroke-linecap:round;stroke-linejoin:round;stroke-miterlimit:10"/><path d="m150.066 173.414s2.429-6.984 3.9-4.286c1.469 2.698-3.863 4.581-3.863 4.581s-1.59 3.127-4.122 2.515m5.319-2.88s1.484 3.107 2.348 3.146" style="fill:none;stroke:#1d1d1b;stroke-width:.5;stroke-linecap:round;stroke-linejoin:round;stroke-miterlimit:10"/><path d="m165.941 97.329a2.786 2.786 0 0 0 -1.404-.502c-1.854-.112-3.289.612-4.148 2.308-1.87 3.694-6.111.866-5.369-.468 0 0-2.076 1.482.842 4.22 2.401 2.251 6.287.739 8.719-.655.798-.456 1.777-1.217 2.254-2.017.613-1.028.01-2.26-.894-2.886" fill="#1d1d1b"/><path d="m167.464 97.024a2.816 2.816 0 0 1 1.103-1.003c1.669-.815 3.271-.698 4.716.538 3.146 2.691 5.975-1.55 4.778-2.497 0 0 2.486.57.843 4.219-1.351 3.001-5.52 3.098-8.301 2.747-.912-.116-2.107-.442-2.855-.997-.962-.712-.878-2.081-.284-3.007m181.649 61.944c.456-.411.361-2.267-1.17-1.759-.845.281-.178 1.458-.178 1.458l-5.7 5.347s-1.363-.506-1.38.63c-.018 1.28 1.433 1.268 2.127.752" fill="#1d1d1b"/><path d="m348.547 158.59c.059-.103.626-.22.626-.22.6-.179 2.567-.135 1.75 1.781-.441 1.034-1.934.334-1.934.334s-5.137 4.409-5.159 4.752c-.022.344.902 1.432.091 1.757-2.257.906-2.02-1.332-2.02-1.332s-.034-.342.094-.526" fill="#1d1d1b"/><path d="m347.009 166.947c.169.592 1.878 1.319 2.093-.28.119-.882-1.232-.799-1.232-.799l-2.307-7.468s1.053-1.003.039-1.516c-1.142-.578-1.768.731-1.609 1.581" fill="#1d1d1b"/><path d="m347.597 166.603c.066.099-.075.659-.075.659-.104.618-1.004 2.366-2.369.792-.737-.851.547-1.885.547-1.885s-1.71-6.551-2.009-6.72c-.3-.17-1.681.183-1.619-.689.175-2.426 2.083-1.232 2.083-1.232s.322.119.432.316m32.738 38.407a7.364 7.364 0 1 1 -12.358 8.014 7.365 7.365 0 0 1 12.358-8.014" fill="#1d1d1b"/><path d="m377.328 198.294s-2.241-1.762-1.405-3.373l4.52.121z" fill="#d4d4d3"/><path d="m377.328 198.294s-2.241-1.762-1.405-3.373l4.52.121z" style="fill:none;stroke:#1d1d1b;stroke-width:.5;stroke-linecap:round;stroke-linejoin:round;stroke-miterlimit:10"/><path d="m366.412 195.939s.338 2.83-1.392 3.378l-3.11-3.281z" fill="#d4d4d3"/><path d="m366.412 195.939s.338 2.83-1.392 3.378l-3.11-3.281z" style="fill:none;stroke:#1d1d1b;stroke-width:.5;stroke-linecap:round;stroke-linejoin:round;stroke-miterlimit:10"/><path d="m364.508 201.926s2.695.932 2.433 2.728l-4.31 1.365z" fill="#d4d4d3"/><path d="m364.508 201.926s2.695.932 2.433 2.728l-4.31 1.365z" style="fill:none;stroke:#1d1d1b;stroke-width:.5;stroke-linecap:round;stroke-linejoin:round;stroke-miterlimit:10"/><path d="m375.013 206.37s-.177-2.845 1.582-3.294l2.919 3.453z" fill="#d4d4d3"/><path d="m375.013 206.37s-.177-2.845 1.582-3.294l2.919 3.453z" style="fill:none;stroke:#1d1d1b;stroke-width:.5;stroke-linecap:round;stroke-linejoin:round;stroke-miterlimit:10"/><path d="m373.516 193.735s-2.737.798-3.561-.819l2.726-3.606z" fill="#d4d4d3"/><path d="m373.516 193.735s-2.737.798-3.561-.819l2.726-3.606z" style="fill:none;stroke:#1d1d1b;stroke-width:.5;stroke-linecap:round;stroke-linejoin:round;stroke-miterlimit:10"/><path d="m368.344 205.899s2.849-.107 3.254 1.662l-3.522 2.833z" fill="#d4d4d3"/><path d="m368.344 205.899s2.849-.107 3.254 1.662l-3.522 2.833z" style="fill:none;stroke:#1d1d1b;stroke-width:.5;stroke-linecap:round;stroke-linejoin:round;stroke-miterlimit:10"/><path d="m372.756 198.417a1.85 1.85 0 1 1 -3.104 2.013 1.85 1.85 0 0 1 3.104-2.013" fill="#d4d4d3"/><path d="m372.756 198.417a1.85 1.85 0 1 1 -3.104 2.013 1.85 1.85 0 0 1 3.104-2.013zm7.649.302c.251.388-.262 1.167-1.145 1.741-.883.572-1.804.724-2.055.335-.252-.388.261-1.167 1.145-1.74.883-.574 1.804-.723 2.055-.336zm7.042-2.443c.076.456-.704.968-1.743 1.141-1.039.174-1.942-.055-2.019-.511s.704-.966 1.742-1.14c1.04-.174 1.944.055 2.02.51zm5.21 6.346c-.428.175-1.098-.474-1.497-1.449-.398-.975-.374-1.907.054-2.081.428-.175 1.098.473 1.497 1.449.397.973.374 1.906-.054 2.081zm2.119 3.946c.344-.309 1.194.077 1.896.861.703.785.993 1.67.649 1.979s-1.193-.077-1.897-.861c-.701-.785-.992-1.671-.648-1.979zm9.028 6.527c-.268.377-1.182.186-2.038-.428-.857-.612-1.334-1.414-1.065-1.79s1.181-.185 2.039.428c.856.612 1.333 1.414 1.064 1.79z" style="fill:none;stroke:#1d1d1b;stroke-width:.5;stroke-linecap:round;stroke-linejoin:round;stroke-miterlimit:10"/><path d="m384.044 196.636c.069.108-.747.761-1.826 1.461-1.077.699-2.007 1.178-2.077 1.07s.747-.761 1.825-1.461c1.077-.698 2.008-1.177 2.078-1.07zm6.953 2.474c-.075.104-.98-.42-2.022-1.171-1.043-.75-1.828-1.444-1.751-1.548.075-.104.98.42 2.022 1.171 1.042.75 1.826 1.443 1.751 1.548zm3.743 7.507c-.114.059-.69-.815-1.285-1.952-.597-1.138-.988-2.108-.874-2.168s.689.815 1.285 1.952c.596 1.138.987 2.108.874 2.168zm6.474 4.736c-.063.112-1.024-.302-2.147-.926-1.122-.624-1.982-1.221-1.919-1.333.062-.112 1.023.303 2.146.927 1.121.623 1.981 1.22 1.92 1.332zm6.772 1.86c-.01.129-1.056.151-2.337.053-1.281-.099-2.31-.284-2.3-.412.01-.129 1.056-.151 2.336-.052 1.281.099 2.311.283 2.301.411z" style="fill:none;stroke:#1d1d1b;stroke-width:.5;stroke-linecap:round;stroke-linejoin:round;stroke-miterlimit:10"/><path d="m391.218 195.167s4.694.611 4.731 3.624" fill="none" stroke="#1d1d1b" stroke-miterlimit="10" stroke-width=".5"/><path d="m74.689 146.932.8-.017" fill="#735123"/><path d="m74.689 146.932.8-.017" style="fill:none;stroke:#1d1d1b;stroke-width:.5;stroke-linecap:round;stroke-linejoin:round;stroke-miterlimit:10"/><path d="m74.15 148.131 1.026-.139" fill="#735123"/><path d="m74.15 148.131 1.026-.139m-.154.313c-.148 2.716-4.628 7.079-10.977 10.193m-5.189-1.418c.22-.202 1.387-1.085 1.614-1.279 1.065-.918 2.042-1.97 3.056-2.946 2.279-2.191 4.617-4.362 7.376-5.942.821-.47 1.685-.857 2.563-1.21 1.308-.526 3.594-.147 3.064-.192m273.142 32.89c7.377 3.544-3.385 22.699-3.385 22.699l6.723 1.223c5.665 1.03 5.155-14.182 5.239-17.216.504-18.165-4.272-37.596-14.096-53.003-2.654-4.162-5.94-8.218-9.537-11.609-6.254-5.897-14.355-7.986-22.665-6.095-1.317.3-3.262.556-4.444 1.267-44.135 24.465-16.463 82.328-16.463 82.328l5.388.903s-.588-6.583 2.593-10.959c0 .002 40.503-14.413 50.647-9.538z" style="fill:none;stroke:#1d1d1b;stroke-width:.5;stroke-linecap:round;stroke-linejoin:round;stroke-miterlimit:10"/><path d="m296.506 129.789s3.231-17.766 16.48-15.605c13.249 2.162 16.237 22.549 16.237 22.549" style="fill:none;stroke:#1d1d1b;stroke-width:.5;stroke-linecap:round;stroke-linejoin:round;stroke-miterlimit:10"/><path d="m308.532 130.488s15.628-1.374 19.533 22.156c3.905 23.529 18.618-5.543 8.927-12.266-9.69-6.724-21.454-11.592-26.278-8.253" style="fill:none;stroke:#1d1d1b;stroke-width:.5;stroke-linecap:round;stroke-linejoin:round;stroke-miterlimit:10"/><path d="m302.8 129.488s4.422-.588 5.587-.624c1.166-.036 1.834 3.562-1.501 3.7-3.336.138-4.086-3.076-4.086-3.076" fill="#1d1d1b"/><path d="m296.043 134.857c-2.103 7.504-3.32 16.285.116 23.574 2.947 6.253 10.786 10.83 17.569 10.115 8.277-.873 14.365-8.989 16.529-16.564m-42.396 20.75c4.35 16.602 26.809 20.978 41.266 18.377 8.336-1.5 19.765-3.961 23.643-12.532" style="fill:none;stroke:#1d1d1b;stroke-width:.5;stroke-linecap:round;stroke-linejoin:round;stroke-miterlimit:10"/><path d="m293.479 145.815c-1.522 4.49-1.44 9.395.135 13.835 2.772 7.825 11.827 15.423 20.512 14.821 5.638-.391 9.558-2.803 13.316-7.111 1.593-1.824 3.181-3.856 4.409-5.948" style="fill:none;stroke:#1d1d1b;stroke-width:.5;stroke-linecap:round;stroke-linejoin:round;stroke-miterlimit:10"/><path d="m296.693 132.454 1.075 2.704.842-2.041" fill="#fff"/><path d="m296.693 132.454 1.075 2.704.842-2.041" style="fill:none;stroke:#1d1d1b;stroke-width:.5;stroke-linecap:round;stroke-linejoin:round;stroke-miterlimit:10"/><path d="m316.245 140.464.751 2.682.751-4.238" fill="#fff"/><path d="m316.245 140.464.751 2.682.751-4.238m-7.693-13.581s1.41-4.373 4.223-4.331m-8.897 5.048-1.834-2.862" style="fill:none;stroke:#1d1d1b;stroke-width:.5;stroke-linecap:round;stroke-linejoin:round;stroke-miterlimit:10"/><path d="m312.935 128.001c-.45.856-2.385 1.38-2.069-.363.145-.799 1.092-1.091 1.739-.648.459.315.501.687.33 1.011" fill="#fff"/><path d="m348.391 200.183s.871.547 0 2.137m2.456-1.726s.647.802-.697 2.02m3.659-1.35s.268 1.024-1.662 1.898m-56.253-5.588s-.806.242-.671 2.015m-1.244-2.399s-.721.553-.128 2.124m-2.235-2.423s-.516.881.613 2.313" style="fill:none;stroke:#1d1d1b;stroke-width:.5;stroke-linecap:round;stroke-linejoin:round;stroke-miterlimit:10"/><path d="m323.03 167.111s.835-3.232 2.955-3.093l1.997 4.902z" fill="#fff"/><path d="m323.03 167.111s.835-3.232 2.955-3.093l1.997 4.902z" style="fill:none;stroke:#1d1d1b;stroke-width:.5;stroke-linecap:round;stroke-linejoin:round;stroke-miterlimit:10"/><path d="m313.041 170.841s2.388-2.331 4.13-1.115l-.831 5.227z" fill="#fff"/><path d="m313.041 170.841s2.388-2.331 4.13-1.115l-.831 5.227z" style="fill:none;stroke:#1d1d1b;stroke-width:.5;stroke-linecap:round;stroke-linejoin:round;stroke-miterlimit:10"/><path d="m297.617 163.573s2.863 1.715 2.13 3.71l-5.266.528z" fill="#fff"/><path d="m297.617 163.573s2.863 1.715 2.13 3.71l-5.266.528z" style="fill:none;stroke:#1d1d1b;stroke-width:.5;stroke-linecap:round;stroke-linejoin:round;stroke-miterlimit:10"/><path d="m293.646 151.922s.872 2.447-.556 3.285l-3.428-2.289z" fill="#fff"/><path d="m293.646 151.922s.872 2.447-.556 3.285l-3.428-2.289z" style="fill:none;stroke:#1d1d1b;stroke-width:.5;stroke-linecap:round;stroke-linejoin:round;stroke-miterlimit:10"/><path d="m318.651 113.442s-.401-5.453 1.858-4.763-2.203 2.849-.76 4.857z" fill="#f29fb4"/><path d="m316.99 113.165s-1.837-10.222 6.92-8.074c8.757 2.147-5.927 2.619-3.92 8.342" style="fill:none;stroke:#1d1d1b;stroke-width:.5;stroke-linecap:round;stroke-linejoin:round;stroke-miterlimit:10"/><path d="m302.395 114.619s-1.413-1.742.753-1.381 3.264 1.365 3.264 1.365l-.988.471-1.741-.173z" fill="#f29fb4"/><path d="m307.631 114.327s-6.374-6.612-7.635-4.253c-1.26 2.358-.431 4.911 5.334 5.221" style="fill:none;stroke:#1d1d1b;stroke-width:.5;stroke-linecap:round;stroke-linejoin:round;stroke-miterlimit:10"/><path d="m315.99 149.238s3.216 2.376 1.757 4.029c-1.458 1.654-2.095-2.138-1.757-4.029" fill="#fff"/><path d="m315.99 149.238s3.216 2.376 1.757 4.029c-1.458 1.654-2.095-2.138-1.757-4.029z" style="fill:none;stroke:#1d1d1b;stroke-width:.5;stroke-linecap:round;stroke-linejoin:round;stroke-miterlimit:10"/><path d="m174.382 74.178s3.15.902 2.503 2.589c-.646 1.689-2.221-1.04-2.503-2.589" fill="#fff"/><path d="m174.382 74.178s3.15.902 2.503 2.589c-.646 1.689-2.221-1.04-2.503-2.589z" style="fill:none;stroke:#1d1d1b;stroke-width:.5;stroke-linecap:round;stroke-linejoin:round;stroke-miterlimit:10"/><path d="m312.091 149.498s1.409 1.993.246 2.671c-1.161.678-.804-1.64-.246-2.671" fill="#fff"/><path d="m312.091 149.498s1.409 1.993.246 2.671c-1.161.678-.804-1.64-.246-2.671z" style="fill:none;stroke:#1d1d1b;stroke-width:.5;stroke-linecap:round;stroke-linejoin:round;stroke-miterlimit:10"/><path d="m310.329 156.178s2.029 2.953.31 3.926c-1.718.974-1.149-2.424-.31-3.926" fill="#fff"/><path d="m310.329 156.178s2.029 2.953.31 3.926c-1.718.974-1.149-2.424-.31-3.926z" style="fill:none;stroke:#1d1d1b;stroke-width:.5;stroke-linecap:round;stroke-linejoin:round;stroke-miterlimit:10"/><path d="m351.951 185.405 7.739-2.647s0 5.295-.509 6.924c-.51 1.629-8.656.408-8.656.408z" fill="#1d1d1b"/><path d="m358.875 187.696s-.661-1.936.471-2.579l2.674 1.837z" fill="#fff"/><path d="m358.875 187.696s-.661-1.936.471-2.579l2.674 1.837z" style="fill:none;stroke:#1d1d1b;stroke-width:.5;stroke-linecap:round;stroke-linejoin:round;stroke-miterlimit:10"/><path d="m373.942 150.988s-2.262.214-2.665-1.176l2.675-2.413z" fill="#fff"/><path d="m373.942 150.988s-2.262.214-2.665-1.176l2.675-2.413z" style="fill:none;stroke:#1d1d1b;stroke-width:.5;stroke-linecap:round;stroke-linejoin:round;stroke-miterlimit:10"/><path d="m361.669 146.942s-2.036.193-2.399-1.058l2.408-2.173z" fill="#fff"/><path d="m361.669 146.942s-2.036.193-2.399-1.058l2.408-2.173z" style="fill:none;stroke:#1d1d1b;stroke-width:.5;stroke-linecap:round;stroke-linejoin:round;stroke-miterlimit:10"/><path d="m367.13 148.731s-2.036.193-2.399-1.058l2.409-2.173z" fill="#fff"/><path d="m367.13 148.731s-2.036.193-2.399-1.058l2.409-2.173z" style="fill:none;stroke:#1d1d1b;stroke-width:.5;stroke-linecap:round;stroke-linejoin:round;stroke-miterlimit:10"/><path d="m282.956 151.661s.148 2.04-1.111 2.375l-2.119-2.456z" fill="#fff"/><path d="m282.956 151.661s.148 2.04-1.111 2.375l-2.119-2.456z" style="fill:none;stroke:#1d1d1b;stroke-width:.5;stroke-linecap:round;stroke-linejoin:round;stroke-miterlimit:10"/><path d="m277.191 161.685s.148 2.04-1.11 2.375l-2.12-2.455z" fill="#fff"/><path d="m277.191 161.685s.148 2.04-1.11 2.375l-2.12-2.455z" style="fill:none;stroke:#1d1d1b;stroke-width:.5;stroke-linecap:round;stroke-linejoin:round;stroke-miterlimit:10"/><path d="m279.762 156.882s.148 2.04-1.111 2.376l-2.12-2.455z" fill="#fff"/><path d="m279.762 156.882s.148 2.04-1.111 2.376l-2.12-2.455z" style="fill:none;stroke:#1d1d1b;stroke-width:.5;stroke-linecap:round;stroke-linejoin:round;stroke-miterlimit:10"/><path d="m352.478 186.007s.736 1.909-.369 2.596l-2.744-1.731z" fill="#fff"/><path d="m352.478 186.007s.736 1.909-.369 2.596l-2.744-1.731z" style="fill:none;stroke:#1d1d1b;stroke-width:.5;stroke-linecap:round;stroke-linejoin:round;stroke-miterlimit:10"/><path d="m356.691 187.19a1.286 1.286 0 1 1 -2.572 0 1.286 1.286 0 0 1 2.572 0" fill="#fff"/><path d="m356.691 187.19a1.286 1.286 0 1 1 -2.572 0 1.286 1.286 0 0 1 2.572 0z" style="fill:none;stroke:#1d1d1b;stroke-width:.5;stroke-linecap:round;stroke-linejoin:round;stroke-miterlimit:10"/><path d="m287.334 187.714 11.374 1.692s-1.28 3.221-2.091 4.723c-.811 1.503-7.974-1.269-7.974-1.269z" fill="#1d1d1b"/><path d="m296.173 193.429s-.279-2.026.955-2.442l2.275 2.314z" fill="#fff"/><path d="m296.173 193.429s-.279-2.026.955-2.442l2.275 2.314z" style="fill:none;stroke:#1d1d1b;stroke-width:.5;stroke-linecap:round;stroke-linejoin:round;stroke-miterlimit:10"/><path d="m288.834 189.297s.845 1.863-.22 2.614l-2.839-1.57z" fill="#fff"/><path d="m288.834 189.297s.845 1.863-.22 2.614l-2.839-1.57z" style="fill:none;stroke:#1d1d1b;stroke-width:.5;stroke-linecap:round;stroke-linejoin:round;stroke-miterlimit:10"/><path d="m293.912 192.023a1.286 1.286 0 1 1 -2.524-.492 1.286 1.286 0 0 1 2.524.492" fill="#fff"/><path d="m293.912 192.023a1.286 1.286 0 1 1 -2.524-.492 1.286 1.286 0 0 1 2.524.492z" style="fill:none;stroke:#1d1d1b;stroke-width:.5;stroke-linecap:round;stroke-linejoin:round;stroke-miterlimit:10"/><path d="m312.488 128.307c-.45.856-2.386 1.38-2.069-.363.145-.799 1.092-1.09 1.739-.647.459.314.501.685.33 1.01" fill="#1d1d1b"/><path d="m309.917 128.646s4.851-8.47 10.342.474" style="fill:none;stroke:#1d1d1b;stroke-width:.5;stroke-linecap:round;stroke-linejoin:round;stroke-miterlimit:10"/><path d="m304.774 127.39a.632.632 0 1 1 -1.265.001.632.632 0 0 1 1.265-.001" fill="#fff"/><path d="m305.103 127.356s-5.652-4.42-5.841-.648" style="fill:none;stroke:#1d1d1b;stroke-width:.5;stroke-linecap:round;stroke-linejoin:round;stroke-miterlimit:10"/><path d="m305.137 127.618c-.055.142-.202.276-.426.343-.767.229-.78-.999.007-.856.378.069.499.301.419.513" fill="#1d1d1b"/><path d="m302.68 130.388s-3.831-.605-6.015 1.378" style="fill:none;stroke:#1d1d1b;stroke-width:.5;stroke-linecap:round;stroke-linejoin:round;stroke-miterlimit:10"/><path d="m299.489 132.996.833-1.446.315 2.337" fill="#fff"/><path d="m299.489 132.996.833-1.446.315 2.337" style="fill:none;stroke:#1d1d1b;stroke-width:.5;stroke-linecap:round;stroke-linejoin:round;stroke-miterlimit:10"/><path d="m314.811 141.547v-2.741l1.028 1.862" fill="#fff"/><path d="m314.811 141.547v-2.741l1.028 1.862" style="fill:none;stroke:#1d1d1b;stroke-width:.5;stroke-linecap:round;stroke-linejoin:round;stroke-miterlimit:10"/><path d="m318.942 137.342c-9.409 12.178-14.799 2.269-14.799 2.269-5.324-11.634-10.345-5.851-10.345-5.851s-5.096 5.749.664 7.709" style="fill:none;stroke:#1d1d1b;stroke-width:.5;stroke-linecap:round;stroke-linejoin:round;stroke-miterlimit:10"/><path d="m375.768 151.733s-42.68-18.246-47.881-21.106l.521 2.73s24.834 10.142 28.735 25.615zm-88.557-15.382s-6.807 12.889-4.49 31.716c0 0-1.449-1.593-2.462-.289-1.014 1.304-2.554.364-2.896-.29-.75-1.436-2.523-.617-2.523-.617z" fill="#1d1d1b"/><path d="m164.375 108.174c1.99.147 5.813.629 8.196.519m-24.984-7.131s2.652 2.97 9.617 5.303" fill="none" stroke="#1d1d1b" stroke-miterlimit="10" stroke-width=".5"/><path d="m154.692 84.554c-.079-.121.118-.359.21-.467.501-.578.787-.08.865.041.078.119-.156.784-.651.601-.133-.049-.346-.054-.424-.175m13.704-3.303c.018-.142.461-.601.603-.582.142.018.626.484.607.626-.018.142-.233.699-.83.653-.143-.012-.4-.555-.38-.697" fill="#1d1d1b"/><path d="m163.529 103.503s2.311-2.24 3.855-2.619c.999-.245 1.372 1.532 1.372 1.532" fill="#f29fb4"/><path d="m163.529 103.503s2.311-2.24 3.855-2.619c.999-.245 1.372 1.532 1.372 1.532" fill="none" stroke="#1d1d1b" stroke-miterlimit="10" stroke-width=".5"/><path d="m166.907 79.306s2.152-3.042 3.78-3.367m-12.231 4.902s-1.907-2.132-3.344-2.03c-1.436.104-1.091.595-1.392.719m-69.914 64.421 5.386-2.172c3.443-1.387 6.885-2.776 10.327-4.164 1.406-.567 2.817-1.119 4.225-1.682.563-.226 2.547-.788 2.386-1.69-.136-.769-4.281 1.238-4.734 1.453-.491.232-.983.461-1.474.694-1.938.923-3.836 1.927-5.727 2.94m-18.759 9.179 9.479-6.695m-25.741 15.172s8.031 5.783 5.641 24.883" style="fill:none;stroke:#1d1d1b;stroke-width:.5;stroke-linecap:round;stroke-linejoin:round;stroke-miterlimit:10"/><path d="m173.155 108.559s29.814-4.753 33.631-3.011c0 0-25.412-8.341-26.88-6.771-1.747 1.87-6.751 9.782-6.751 9.782" fill="#c4262e"/><path d="m173.155 108.559s29.814-4.753 33.631-3.011c0 0-25.412-8.341-26.88-6.771-1.747 1.87-6.751 9.782-6.751 9.782z" style="fill:none;stroke:#1d1d1b;stroke-width:.5;stroke-linecap:round;stroke-linejoin:round;stroke-miterlimit:10"/><path d="m50.658 133.913s-.089-1.578 1.662.836c1.75 2.413-.132 1.37-1.662-.836" fill="#f29fb4"/><path d="m50.658 133.913s-.089-1.578 1.662.836c1.75 2.413-.132 1.37-1.662-.836z" style="fill:none;stroke:#1d1d1b;stroke-width:.5;stroke-linecap:round;stroke-linejoin:round;stroke-miterlimit:10"/><path d="m48.518 146.136c.155.269-.082 1.324-.64 1.336-.999.023-.34-1.095.071-1.311.323-.169.501-.144.569-.025" fill="#fff"/><path d="m48.518 146.136c.155.269-.082 1.324-.64 1.336-.999.023-.34-1.095.071-1.311.323-.169.501-.144.569-.025z" style="fill:none;stroke:#1d1d1b;stroke-width:.5;stroke-linecap:round;stroke-linejoin:round;stroke-miterlimit:10"/><path d="m54.396 142.206c.046.035.352-.349.357-.332.045.159-.005.685-.475.917-1.248.618-1.149-.458-.269-1.078a.399.399 0 0 1 .197-.074" fill="#fff"/><path d="m54.396 142.206c.046.035.352-.349.357-.332.045.159-.005.685-.475.917-1.248.618-1.149-.458-.269-1.078a.399.399 0 0 1 .197-.074" style="fill:none;stroke:#1d1d1b;stroke-width:.5;stroke-linecap:round;stroke-linejoin:round;stroke-miterlimit:10"/><path d="m36.919 145.01s1.615 7.229 4.449 11.06c1.449 1.959 3.119 3.622 5.284 4.759 3.49 1.831 7.14-.004 10.087-2.084 14.403-10.163-1.069-19.139-3.249-22.402-2.181-3.264-3.801-5.569-4.664-.638l-.565 1.53s-5.462 2.124-8.649 5.911c-.865 1.029-1.939-.549-3.997-.899-2.057-.35-2.642 2.827 1.581 4.412" style="fill:none;stroke:#1d1d1b;stroke-width:.5;stroke-linecap:round;stroke-linejoin:round;stroke-miterlimit:10"/><path d="m46.303 146.113 1.363-1.336" fill="#fff"/><path d="m46.303 146.113 1.363-1.336" style="fill:none;stroke:#1d1d1b;stroke-width:.5;stroke-linecap:round;stroke-linejoin:round;stroke-miterlimit:10"/><path d="m52.777 139.824 1.767-.718" fill="#fff"/><path d="m52.777 139.824 1.767-.718" style="fill:none;stroke:#1d1d1b;stroke-width:.5;stroke-linecap:round;stroke-linejoin:round;stroke-miterlimit:10"/><path d="m53.369 151.382s.972-3.713 2.971-1.725" fill="#f29fb4"/><path d="m53.369 151.382s.972-3.713 2.971-1.725" style="fill:none;stroke:#1d1d1b;stroke-width:.5;stroke-linecap:round;stroke-linejoin:round;stroke-miterlimit:10"/><path d="m58.251 150.592a.064.064 0 0 1 -.015.088.064.064 0 0 1 -.087-.015.064.064 0 0 1 .015-.088.064.064 0 0 1 .087.015zm-3.86 2.553a.064.064 0 0 1 -.015.088.064.064 0 0 1 -.087-.016.062.062 0 0 1 .016-.087.061.061 0 0 1 .086.015zm-.005-.906a.064.064 0 0 1 -.015.088.064.064 0 0 1 -.087-.016.062.062 0 1 1 .102-.072zm-.975.806a.062.062 0 1 1 -.102.072.062.062 0 0 1 .015-.087.062.062 0 0 1 .087.015zm5.244-3.339a.062.062 0 1 1 -.102.072.062.062 0 1 1 .102-.072zm-1.267-.165a.063.063 0 1 1 -.102.072.063.063 0 0 1 .102-.072z" fill="none" stroke="#1d1d1b" stroke-miterlimit="10" stroke-width=".5"/><path d="m53.309 153.117s-5.58 2.134-6.369 2.747m7.483-2.654s-5.288 2.781-5.999 3.483m8.964-7.152s3.906-4.661 5.362-4.859m-4.182 5.009s4.413-3.76 6.131-3.049" style="fill:none;stroke:#1d1d1b;stroke-width:.5;stroke-linecap:round;stroke-linejoin:round;stroke-miterlimit:10"/><path d="m34.491 144.361s.804-2.166 2.364.432c1.536 2.559-.911 1.828-2.364-.432" fill="#f29fb4"/><path d="m34.491 144.361s.804-2.166 2.364.432c1.536 2.559-.911 1.828-2.364-.432zm20.988 10.337s2.78-.545 2.635-2.555" style="fill:none;stroke:#1d1d1b;stroke-width:.5;stroke-linecap:round;stroke-linejoin:round;stroke-miterlimit:10"/><path d="m54.654 141.824c.127.206.075.467-.113.582-.189.115-.445.042-.571-.164-.127-.206-.075-.467.113-.582.189-.115.445-.042.571.164m-5.889 4.236c.166.272.099.616-.15.768-.249.153-.585.057-.752-.215-.166-.272-.099-.616.149-.769.25-.152.587-.055.753.216" fill="#1d1d1b"/><path d="m177.549 107.49c-6.279 1.742-16.382 3.448-22.888 3.218" fill="none" stroke="#1d1d1b" stroke-miterlimit="10" stroke-width=".5"/><path d="m54.521 153.942s-3.229 1.242-2.608 3.788" style="fill:none;stroke:#1d1d1b;stroke-width:.5;stroke-linecap:round;stroke-linejoin:round;stroke-miterlimit:10"/><path d="m59.161 197.306 4.241.134s.698 4.184-1.621 5.391c-2.32 1.207-3.219-1.529-2.62-5.525" fill="#0061ac"/><path d="m59.161 197.306 4.241.134s.698 4.184-1.621 5.391c-2.32 1.207-3.219-1.529-2.62-5.525zm-7.037-35.98s-1.711 1.497-.107 1.497.107-1.497.107-1.497zm.144.004s1.869 2.031 2.122.446c.253-1.583-2.122-.446-2.122-.446z" fill="none" stroke="#1d1d1b" stroke-miterlimit="10" stroke-width=".5"/><path d="m60.84 197.454s-1.9 1.249-.311 1.468c1.59.219.311-1.468.311-1.468zm.142.023s2.213 2.429 1.545.97c-.375-.817-1.545-.97-1.545-.97zm-.09.153-.528 2.623m.828-2.656.336 2.654" fill="none" stroke="#1d1d1b" stroke-miterlimit="10" stroke-width=".5"/><path d="m72.873 160.952.214-3.744" style="fill:none;stroke:#1d1d1b;stroke-width:.5;stroke-linecap:round;stroke-linejoin:round;stroke-miterlimit:10"/><path d="m40.864 168.772s7.185 11.349 10.586 9.713c3.026-1.456-5.397-17.042-5.397-17.042" fill="#735123"/><path d="m40.864 168.772s7.185 11.349 10.586 9.713c3.026-1.456-5.397-17.042-5.397-17.042m3.932 15.498.91 1.544m.022-1.892.609 1.778" style="fill:none;stroke:#1d1d1b;stroke-width:.5;stroke-linecap:round;stroke-linejoin:round;stroke-miterlimit:10"/><path d="m43.461 158.732s-.981 37.999-.986 38.25c-.008.42-.665.482-1.013.562-.975.225-1.816-.201-2.551.689-.574.697-.81 1.38-.526 2.222-.834-1.425-.718-3.133-.891-4.673-.428-3.807-.12-7.6.172-11.418.223-2.936.513-5.908.981-8.815 2.567-15.936 3.904-17.352 3.957-17.62z" fill="#c4262e"/><path d="m43.461 158.732s-.981 37.999-.986 38.25c-.008.42-.665.482-1.013.562-.975.225-1.816-.201-2.551.689-.574.697-.81 1.38-.526 2.222-.834-1.425-.718-3.133-.891-4.673-.428-3.807-.12-7.6.172-11.418.223-2.936.513-5.908.981-8.815 2.567-15.936 3.904-17.352 3.957-17.62z" style="fill:none;stroke:#1d1d1b;stroke-width:.5;stroke-linecap:round;stroke-linejoin:round;stroke-miterlimit:10"/><path d="m63.996 166.385a.81.81 0 0 0 -.599.78c0 1.319-.06 1.08-1.918 2.398-.965.684-1.372 1.913-1.202 3.047.037.246.107.532.212.819.279.764.803 1.538 1.594 1.61.887.08 1.912-1.337 2.454-1.878.101-.102.345-.395.435-.499-.014-2.365-.762-5.877-.976-6.277m-16.083-.808s-2.386 2.183-.832 2.935c1.576.762 2.083 1.779 2.389 2.135.305.356 1.016.814 1.016.814s-2.065-5.427-2.573-5.884" fill="#fff"/><path d="m28.051 208.898-2.275.539.019 1.161.84-.042-.451 2.629.281 3.015s1.433.016 2.446-1.897c.596-1.122 1.298-2.483 3.297-2.278.868.089 1.46-.43 1.46-.43l-.239-2.9z" fill="#0061ac"/><path d="m28.051 208.898-2.275.539.019 1.161.84-.042-.451 2.629.281 3.015s1.433.016 2.446-1.897c.596-1.122 1.298-2.483 3.297-2.278.868.089 1.46-.43 1.46-.43l-.239-2.9z" fill="none" stroke="#1d1d1b" stroke-miterlimit="10" stroke-width=".5"/><path d="m31.157 212.179s2.401.291 3.694 1.906c2.748 3.435 4.966.738 4.966.738" style="fill:none;stroke:#1d1d1b;stroke-width:.5;stroke-linecap:round;stroke-linejoin:round;stroke-miterlimit:10"/><path d="m31.067 212.172s1.381-.788.909 1.471c-.211 1.008.739 1.232 1.543 1.247 1.3.025 2.605-.504 3.908-.158 1.011.268 1.644.911 2.329 1.644m30.992-6.436.885-2.618.806 1.853 1.449-1.771-.282 3.381m5.782-.57.306-2.746 1.183 1.637 1.037-2.04.448 3.363m-7.145-3.106-.161 3.1m.966.121 1.409-3.221.926 3.06m-.563-1.168-1.088-.04m7.288-3.06s-.604 2.98-.363 3.342m-.08.604s.604-.12.443.121c-.162.241-.524.08-.524.08m139.314-103.306s.887-7.446 3.074-7.682c2.186-.236 1.063 8.587.649 10.065m-7.292-4.294 2.466.277" style="fill:none;stroke:#1d1d1b;stroke-width:.5;stroke-linecap:round;stroke-linejoin:round;stroke-miterlimit:10"/><path d="m313.056 181.363c-2.017 1.847-5.296 1.792-7.077-.441-1.897-2.376-.861-6.09 1.752-7.508 1.633-.886 4.711-.402 6.036.957 1.918 1.968 1.472 4.913-.446 6.732z" fill="#f7a900"/><path d="m314.219 177.962c-.086 2.733-2.415 5.043-5.257 4.759-3.025-.303-4.96-3.636-4.15-6.496.505-1.79 3.001-3.653 4.9-3.653 2.746 0 4.545 2.377 4.508 5.019z" style="fill:none;stroke:#1d1d1b;stroke-width:.5;stroke-linecap:round;stroke-linejoin:round;stroke-miterlimit:10"/><path d="m305.498 178.627s-.176-3.337 2.401-4.507c1.953-.888 4.507-.117 5.327 1.405m-5.035 6.088s2.4.995 4.039-.995" style="fill:none;stroke:#1d1d1b;stroke-width:.5;stroke-linecap:round;stroke-linejoin:round;stroke-miterlimit:10"/><path d="m309.524 175.272.642 1.704 1.457-.087-1.052.867.653 1.273-1.27-.648-1.281.638.496-1.031-.813-.567.945-.301z" fill="#fff"/><path d="m308.307 172.771a1.334 1.334 0 0 1 .968-2.253h.109a1.335 1.335 0 1 1 0 2.67h-.053" style="fill:none;stroke:#1d1d1b;stroke-width:.5;stroke-linecap:round;stroke-linejoin:round;stroke-miterlimit:10"/><path d="m310.443 170.516c0 .43-.474.779-1.058.779-.585 0-1.059-.349-1.059-.779s.474-.78 1.059-.78c.584.001 1.058.35 1.058.78" fill="#1d1d1b"/><path d="m137.718 209.591s-5.882-.853-9.271-3.27c-3.388-2.418-6.522-2.216-10.375-2.604-5.958-.601-3.28-.071-20.831-1.842l-1.27 12.585 20.549 2.073s7.91 1.317 11.612-1.942c0 0 8.169-1.253 9.454-1.123z" style="fill:none;stroke:#1d1d1b;stroke-width:.5;stroke-linecap:round;stroke-linejoin:round;stroke-miterlimit:10"/><path d="m137.836 213.617c4.77.222 10.76.222 15.893 1.078.856 0 2.567-.856 1.711-1.711-12.834-4.278-22.311 3.346-35.83-6.31-2.995-2.139-5.12-1.144-5.562-.856" style="fill:none;stroke:#1d1d1b;stroke-width:.5;stroke-linecap:round;stroke-linejoin:round;stroke-miterlimit:10"/><path d="m115.742 203.694-1.689 11.85-13.639-.986.73-11.414z" fill="#0061ac"/><path d="m141.754 209.164s3.254-4.324 5.475-2.33c2.22 1.993-2.919 2.81-5.475 2.33" fill="#fff"/><path d="m141.754 209.164s3.254-4.324 5.475-2.33c2.22 1.993-2.919 2.81-5.475 2.33z" style="fill:none;stroke:#1d1d1b;stroke-width:.5;stroke-linecap:round;stroke-linejoin:round;stroke-miterlimit:10"/><path d="m110.299 204.416-3.118-.092-.178 1.77m0 1.116 2.895 1.186-3.063.473m2.84 1.738-2.896-.068m2.606 2.942-3.272-.777m3.833-.677-.621 2.841m-1.25-7.214-.089.884" style="fill:none;stroke:#fff;stroke-width:.5;stroke-linecap:round;stroke-linejoin:round;stroke-miterlimit:10"/><path d="m135.894 209.667-.025 3.78" fill="#fff"/><path d="m135.894 209.667-.025 3.78" style="fill:none;stroke:#1d1d1b;stroke-width:.5;stroke-linecap:round;stroke-linejoin:round;stroke-miterlimit:10"/><path d="m105.293 204.548s1.316 5.852-.429 8.234" style="fill:none;stroke:#fff;stroke-width:.5;stroke-linecap:round;stroke-linejoin:round;stroke-miterlimit:10"/><path d="m104.517 204.618s1.214 5.948.365 8.435" style="fill:none;stroke:#f7a900;stroke-width:.5;stroke-linecap:round;stroke-linejoin:round;stroke-miterlimit:10"/><path d="m157.936 214.187c1.624-.358 3.992-.461 4.484-.617 2.707-.855 4.131-2.137 6.551-.997 2.421 1.139 2.706 3.133-.569 3.275-2.914.127-5.79.106-8.705-.013-.594-.025-3.051.156-3.306-.648-.15-.473.56-.782 1.545-1" fill="#fff"/><path d="m157.936 214.187c1.624-.358 3.992-.461 4.484-.617 2.707-.855 4.131-2.137 6.551-.997 2.421 1.139 2.706 3.133-.569 3.275-2.914.127-5.79.106-8.705-.013-.594-.025-3.051.156-3.306-.648-.15-.473.56-.782 1.545-1zm145.142-36.421s-.332 2.91.998 3.575" style="fill:none;stroke:#1d1d1b;stroke-width:.5;stroke-linecap:round;stroke-linejoin:round;stroke-miterlimit:10"/><path d="m31.599 211.688a.498.498 0 1 1 -.995-.001.498.498 0 0 1 .995.001" fill="#1d1d1b"/><path d="m150.18 126.576s10.625-3.97 14.303-16.163c3.052-10.114-20.226 6.035-20.226 6.035s-10.436 12.883 5.923 10.128" fill="#fff"/><path d="m154.921 108.671s2.146 9.532 6.559 8.446l-4.092 4.629s-8.766-.333-7.973-8.563z" fill="#f7a900"/><path d="m154.921 108.671s2.146 9.532 6.559 8.446l-4.092 4.629s-8.766-.333-7.973-8.563z" style="fill:none;stroke:#1d1d1b;stroke-width:.5;stroke-linecap:round;stroke-linejoin:round;stroke-miterlimit:10"/><path d="m147.643 114.495c2.18-1.486 13.358-11.126 14.177-10.617s-.759 3.224-.759 3.224" style="fill:none;stroke:#1d1d1b;stroke-width:.5;stroke-linecap:round;stroke-linejoin:round;stroke-miterlimit:10"/><path d="m149.106 106.916c-.125.09-4.397 9.114-4.397 9.114s-10.154 12.249 3.178 10.862c1.904-.198 3.87-.9 6.362-2.75 0 0 7.477-4.526 10.019-12.731 1.542-4.984-1.095-5.246-4.833-3.773" style="fill:none;stroke:#1d1d1b;stroke-width:.5;stroke-linecap:round;stroke-linejoin:round;stroke-miterlimit:10"/><path d="m144.478 109.132 7.968 1.39" fill="none" stroke="#1d1d1b" stroke-miterlimit="10" stroke-width=".5"/></svg>