<svg viewBox="0 0 87.38 44.23" xmlns="http://www.w3.org/2000/svg" xmlns:xlink="http://www.w3.org/1999/xlink"><linearGradient id="a" gradientUnits="userSpaceOnUse" x1=".01" x2="87.37" y1="22.11" y2="22.11"><stop offset="0" stop-color="#39b1b7"/><stop offset=".58" stop-color="#eb97bf"/><stop offset=".66" stop-color="#ec9cbd"/><stop offset=".76" stop-color="#efabb6"/><stop offset=".86" stop-color="#f4c3ab"/><stop offset=".97" stop-color="#fae59c"/><stop offset="1" stop-color="#fcef97"/></linearGradient><path d="m74.46 44.24h-61.54c-8.81 0-12.92-5.54-12.92-12.34v-19.57c0-6.81 4.11-12.33 12.92-12.33h61.54c8.81 0 12.91 5.53 12.91 12.34v19.56c0 6.8-4.1 12.34-12.91 12.34z" fill="#fff"/><path d="m74.46 44.24h-61.54c-8.81 0-12.92-5.54-12.92-12.34v-19.57c0-6.81 4.11-12.33 12.92-12.33h61.54c8.81 0 12.91 5.53 12.91 12.34v19.56c0 6.8-4.1 12.34-12.91 12.34z" fill="url(#a)" opacity=".5"/></svg>