<svg viewBox="0 0 87.38 44.23" xmlns="http://www.w3.org/2000/svg"><path d="m74.47 44.23h-61.54c-8.81 0-12.93-5.54-12.93-12.34v-19.57c0-6.81 4.12-12.32 12.93-12.32h61.54c8.8 0 12.91 5.53 12.91 12.34v19.55c0 6.8-4.11 12.34-12.91 12.34z" fill="#fff"/><g opacity=".6"><path d="m41.91-.02h-4.88l2.45 2.43z" fill="none"/><path d="m51.63-.02h-4.98l2.49 2.49z" fill="none"/><path d="m71-.02h-4.98l2.49 2.49z" fill="none"/><path d="m22.54-.02h-4.88l2.45 2.43z" fill="none"/><path d="m79.8.82a15.78 15.78 0 0 0 -4-.79l2.4 2.38z" fill="none"/><path d="m32.26-.02h-4.98l2.49 2.49z" fill="none"/><path d="m83 38.73-4.84 4.85-4.8-4.8v-2.39l4.85 4.81 4.79-4.81 2.5 2.5a10.14 10.14 0 0 0 .84-1.68l-3.34-3.34-4.84 4.84-4.8-4.8v-2.38l1.2 1.18 3.65 3.63 3.61-3.63 1.18-1.18 1.19 1.18 2.73 2.74a13.65 13.65 0 0 0 .35-2.14l-.59-.6-3.68-3.71-3.68 3.67-1.16 1.17-1.16-1.13-3.64-3.63v-2.39l4.85 4.81 4.79-4.81 4.35 4.31v-2.49l-4.35-4.34-4.83 4.83-4.8-4.79v-2.38l4.85 4.81 4.78-4.81 4.34 4.34v-2.49l-4.34-4.34-4.84 4.84-4.8-4.8v-2.38l4.85 4.8 4.79-4.8 4.34 4.34v-2.53l-4.34-4.34-4.84 4.85-4.8-4.8v-2.39l1.2 1.19 3.65 3.62 3.61-3.62 1.18-1.19 1.19 1.19 3.15 3.15v-2.47l-.66-.66-3.68-3.7-3.68 3.68-1.16 1.16-1.16-1.16-3.63-3.63v-2.39l4.85 4.81 4.78-4.81 4.31 4.31a14.78 14.78 0 0 0 -.4-2.93l-3.91-3.9-4.83 4.84-4.8-4.8v-2.39l4.85 4.81 4.78-4.74a10.69 10.69 0 0 0 -1.52-1l-3.31 3.28-4.8-4.78-4.86 4.81-4.83-4.81h-.07l-4.81 4.78-4.8-4.78-4.86 4.81-4.83-4.81h-.07l-4.81 4.8-4.79-4.8-4.87 4.81-4.83-4.81h-.07l-4.81 4.8-4.79-4.8-4.87 4.81-3.67-3.67a10.59 10.59 0 0 0 -5.73 5.86l4.54-4.57 4.86 4.87 4.87-4.87v2.35l-4.87 4.86-4.86-4.86-4.84 4.84-.4-.4a15.51 15.51 0 0 0 -.3 2.17l.72.72 4.82-4.81 4.86 4.87 4.87-4.87v2.34l-3.68 3.68-1.19 1.19-1.18-1.19-3.68-3.68-3.68 3.68-1.16 1.16-.7-.71v2.42l.76.75 3.61-3.62 1.19-1.19 1.18 1.19 3.66 3.68 3.68-3.68 1.19-1.19v2.34l-4.87 4.87-4.86-4.87-4.84 4.85-.7-.72v2.45l.76.75 4.78-4.8 4.86 4.86 4.87-4.86v2.34l-4.87 4.86-4.86-4.86-4.84 4.84-.7-.71v2.42l.76.75 4.8-4.81 4.84 4.87 4.87-4.87v2.34l-4.87 4.83-4.86-4.83-4.84 4.83-.7-.7v2.45l.76.75 4.8-4.81 4.86 4.87 4.87-4.87v2.31l-3.68 3.67-1.21 1.23-1.18-1.19-3.68-3.71-3.68 3.71-1.16 1.17-.7-.66a14.49 14.49 0 0 0 .58 3l.12.12 3.61-3.63 1.19-1.18 1.18 1.18 3.72 3.69 3.68-3.69 1.19-1.18v2.34l-4.87 4.86-4.86-4.86-4.18 4.18a10.46 10.46 0 0 0 1 1.57l3.22-3.23 4.86 4.87 4.87-4.87v2.34l-4.91 4.87-4.86-4.87-2.13 2.13a10.59 10.59 0 0 0 1.36 1.14l.77-.77 2.22 2.23a16 16 0 0 0 4.53.75l3-3v2.35l-.66.66h1.27l-.61-.62v-2.38l3 3h3.62l3-3 3 3h3.73l3-3v2.35l-.66.66h1.27l-.61-.62v-2.39l3 3h3.62l3-3 3 3h3.74l3-3v2.35l-.66.66h1.28l-.62-.62v-2.39l3 3h3.62l3-3 3 3h3.73l3-3v2.35l-.66.66h1.31l-.62-.62v-2.39l2.93 2.91a13.65 13.65 0 0 0 5.44-1.63l1.25-1.28.25.25a10.39 10.39 0 0 0 1.25-1.23zm-48.37 0-4.86 4.87-4.86-4.87-4.85 4.85-4.79-4.8v-2.39l4.84 4.81 4.8-4.81 4.86 4.87 4.87-4.87zm0-6v1.16l-4.87 4.86-4.86-4.86-4.85 4.84-4.79-4.8v-2.4l1.19 1.18 3.65 3.63 3.61-3.63 1.19-1.18 1.18 1.18 3.68 3.69 3.68-3.69 1.19-1.18zm0-3.67-3.63 3.65-1.23 1.19-1.19-1.19-3.67-3.71-3.68 3.67-1.17 1.17-1.16-1.13-3.63-3.63v-2.39l4.84 4.81 4.8-4.81 4.86 4.87 4.87-4.87zm0-4.87-4.86 4.81-4.86-4.87-4.85 4.87-4.79-4.79v-2.38l4.84 4.81 4.8-4.81 4.86 4.87 4.87-4.87zm0-4.83-4.86 4.84-4.86-4.86-4.85 4.84-4.79-4.8v-2.38l4.84 4.8 4.8-4.8 4.86 4.86 4.87-4.86zm0-6v1.15l-4.87 4.87-4.86-4.87-4.85 4.85-4.79-4.8v-2.43l1.19 1.19 3.65 3.62 3.61-3.62 1.19-1.19 1.18 1.19 3.69 3.68 3.68-3.68 1.19-1.19zm0-3.68-3.63 3.64-1.19 1.19-1.19-1.19-3.71-3.68-3.68 3.68-1.17 1.16-1.16-1.16-3.63-3.63v-2.39l4.84 4.81 4.8-4.81 4.86 4.87 4.87-4.87zm0-4.86-4.86 4.82-4.86-4.86-4.85 4.84-4.79-4.8v-2.39l4.84 4.81 4.8-4.81 4.86 4.87 4.87-4.87zm19.37 33.91-4.86 4.87-4.86-4.87-4.85 4.85-4.79-4.8v-2.39l4.84 4.81 4.8-4.81 4.86 4.87 4.86-4.87zm0-6v1.16l-4.86 4.86-4.86-4.86-4.85 4.84-4.79-4.8v-2.4l1.19 1.18 3.65 3.63 3.61-3.63 1.19-1.18 1.18 1.18 3.68 3.69 3.68-3.69 1.18-1.18zm0-3.73-3.67 3.67-1.19 1.23-1.14-1.19-3.72-3.71-3.68 3.71-1.17 1.17-1.16-1.17-3.63-3.63v-2.39l4.84 4.81 4.8-4.81 4.86 4.87 4.86-4.87zm0-4.87-4.86 4.87-4.86-4.87-4.85 4.87-4.79-4.79v-2.38l4.84 4.81 4.8-4.81 4.86 4.87 4.86-4.87zm0-4.83-4.86 4.9-4.86-4.86-4.85 4.84-4.79-4.8v-2.38l4.84 4.8 4.8-4.8 4.86 4.86 4.86-4.86zm0-6v1.15l-4.86 4.87-4.86-4.87-4.85 4.85-4.79-4.8v-2.37l1.19 1.19 3.65 3.62 3.61-3.62 1.19-1.19 1.18 1.19 3.68 3.68 3.68-3.68 1.18-1.19zm0-3.68-3.67 3.68-1.19 1.19-1.14-1.17-3.72-3.68-3.68 3.68-1.17 1.16-1.16-1.16-3.63-3.63v-2.39l4.84 4.81 4.8-4.81 4.86 4.87 4.86-4.87zm0-4.86-4.86 4.88-4.86-4.86-4.85 4.84-4.79-4.8v-2.39l4.84 4.81 4.8-4.81 4.86 4.87 4.86-4.87zm19.37 33.97-4.86 4.87-4.87-4.87-4.84 4.85-4.8-4.8v-2.39l4.85 4.81 4.79-4.81 4.87 4.87 4.86-4.87zm0-6v1.16l-4.86 4.86-4.87-4.86-4.84 4.82-4.8-4.8v-2.38l1.2 1.18 3.65 3.63 3.61-3.63 1.18-1.18 1.19 1.18 3.68 3.69 3.68-3.69 1.18-1.18zm0-3.67-3.67 3.65-1.19 1.19-1.19-1.19-3.68-3.71-3.64 3.71-1.2 1.17-1.16-1.17-3.64-3.63v-2.39l4.85 4.81 4.79-4.81 4.87 4.87 4.86-4.87zm0-4.87-4.86 4.81-4.87-4.87-4.84 4.87-4.8-4.78v-2.39l4.85 4.81 4.79-4.81 4.87 4.87 4.86-4.87zm0-4.83-4.86 4.84-4.87-4.86-4.84 4.84-4.8-4.8v-2.38l4.85 4.8 4.79-4.8 4.87 4.86 4.86-4.86zm0-6v1.15l-4.86 4.87-4.87-4.87-4.84 4.81-4.8-4.8v-2.39l1.2 1.19 3.65 3.62 3.61-3.62 1.18-1.19 1.19 1.19 3.68 3.68 3.68-3.68 1.18-1.19zm0-3.68-3.67 3.64-1.19 1.19-1.19-1.19-3.68-3.68-3.64 3.68-1.2 1.16-1.16-1.16-3.64-3.63v-2.39l4.85 4.81 4.79-4.81 4.87 4.87 4.86-4.87zm0-4.86-4.86 4.82-4.87-4.86-4.84 4.84-4.8-4.8v-2.39l4.85 4.81 4.79-4.81 4.87 4.87 4.86-4.87z" fill="none"/><path d="m12.89 0a16.78 16.78 0 0 0 -4.43.53l1.94 1.94z" fill="none"/><path d="m62.98 44.23h1.32l-.66-.66z" fill="none"/><path d="m43.62 44.23h1.32l-.67-.66z" fill="none"/><path d="m83.82 3.24.51.51q-.24-.25-.51-.51z" fill="none"/><path d="m24.25 44.23h1.32l-.66-.66z" fill="none"/><path d="m61.27-.02h-4.87l2.45 2.43z" fill="none"/><g fill="#fdda05"><path d="m73.37 12.13v1.19h1.2z"/><path d="m83.01 12.13-1.18 1.19h2.37z"/><path d="m78.22 12.11-4.85-4.81v2.39l3.63 3.63h2.32l3.68-3.68 3.68 3.68h.66v-1c0-.24 0-.47 0-.71l-4.34-4.31z"/><path d="m73.37 2.43v2.39l4.8 4.8 4.83-4.84 3.91 3.9a11.32 11.32 0 0 0 -2.59-4.93l-.51-.51a8.93 8.93 0 0 0 -.81-.74l-4.78 4.74z"/><path d="m78.17 4.78 3.26-3.26a15.08 15.08 0 0 0 -1.63-.7l-1.58 1.59-2.4-2.41c-.45 0-.9 0-1.38 0h-1.07z"/><path d="m73.37 31.53v1.18h1.2z"/><path d="m83.01 31.53-1.18 1.18h2.37z"/><path d="m78.22 31.5-4.85-4.81v2.39l3.63 3.63h2.32l3.68-3.71 3.68 3.67h.63c0-.27 0-.54 0-.82v-.85l-4.31-4.31z"/><path d="m78.22 26.64-4.85-4.81v2.39l4.8 4.79 4.84-4.84 4.34 4.34v-2.34l-4.34-4.34z"/><path d="m78.22 21.8-4.85-4.8v2.38l4.8 4.8 4.84-4.84 4.34 4.34v-2.34l-4.34-4.34z"/><path d="m81.83 13.32-3.61 3.62-3.65-3.62h-1.2v1.2l4.8 4.8 4.84-4.85 4.34 4.34v-2.34l-3.15-3.15z"/><path d="m78.17 14.48 1.16-1.16h-2.32z"/><path d="m87.35 13.98v-.66h-.66z"/><path d="m73.37 43.61.62.62h.45a18.48 18.48 0 0 0 1.86-.1l-2.93-2.91z"/><path d="m81.74 42.5a10.38 10.38 0 0 0 1.52-1l-.26-.28z"/><path d="m78.22 41.2-4.85-4.81v2.39l4.8 4.8 4.83-4.85 1.5 1.51a10 10 0 0 0 1-1.35l-2.5-2.5z"/><path d="m81.83 32.71-3.61 3.63-3.65-3.63h-1.2v1.2l4.8 4.8 4.83-4.84 3.34 3.34a11.34 11.34 0 0 0 .58-1.76l-2.72-2.74z"/><path d="m87.28 33.31c0-.2 0-.4 0-.6h-.63z"/><path d="m78.17 33.88 1.16-1.17h-2.32z"/><path d="m63.64 12.13-1.18 1.19h2.37z"/><path d="m54 12.13v1.19h1.2z"/><path d="m73.37 13.32v-1.19l-1.18 1.19z"/><path d="m68.51 12.17-4.87-4.87-4.79 4.81-4.85-4.81v2.39l3.64 3.63h2.33l3.67-3.68 3.68 3.68h1.19z"/><path d="m68.51 13.32h1.18l3.68-3.68v-2.34l-4.86 4.87z"/><path d="m63.64 2.43-4.79 4.81-4.85-4.81v2.39l4.8 4.8 4.84-4.84 4.87 4.86v-2.34z"/><path d="m68.51 9.64 4.86-4.86v-2.35l-4.86 4.87z"/><path d="m58.8 4.79 4.81-4.81h-2.34l-2.42 2.43-2.45-2.43h-2.4v.01z"/><path d="m68.51 2.47-2.49-2.49h-2.34l4.83 4.83z"/><path d="m68.51 4.81 4.83-4.83h-2.34l-2.49 2.49z"/><path d="m63.64 31.53-1.18 1.18h2.37z"/><path d="m54 31.53v1.18h1.2z"/><path d="m73.37 32.71v-1.18l-1.18 1.18z"/><path d="m68.51 31.56-4.87-4.87-4.79 4.81-4.85-4.81v2.39l3.64 3.63h2.33l3.67-3.67 3.68 3.67h1.19z"/><path d="m68.51 32.71h1.18l3.68-3.67v-2.35l-4.86 4.87z"/><path d="m63.64 21.83-4.79 4.81-4.85-4.81v2.39l4.8 4.79 4.84-4.84 4.87 4.87v-2.34z"/><path d="m68.51 29.04 4.86-4.87v-2.34l-4.86 4.87z"/><path d="m63.64 17-4.79 4.8-4.85-4.8v2.38l4.8 4.8 4.84-4.84 4.87 4.86v-2.34z"/><path d="m68.51 24.2 4.86-4.86v-2.34l-4.86 4.86z"/><path d="m64.83 13.32h-2.37l-3.61 3.62-3.65-3.62h-1.2v1.2l4.8 4.8 4.84-4.85 4.87 4.87v-2.34z"/><path d="m68.51 17v2.34l4.86-4.87v-1.15h-1.18z"/><path d="m58.8 14.48 1.17-1.16h-2.33z"/><path d="m67.32 13.32 1.19 1.19v-1.19z"/><path d="m68.51 14.51 1.18-1.19h-1.18z"/><path d="m60.65 44.23h2.33l.66-.66.66.66h2.34l-3-3z"/><path d="m54 43.61.62.62h2.41l-3.03-3z"/><path d="m73.37 41.23-3 3h2.34l.66-.66z"/><path d="m63.64 36.39-4.79 4.81-4.85-4.81v2.39l4.8 4.8 4.84-4.85 4.87 4.87v-2.34z"/><path d="m68.51 43.6 4.86-4.87v-2.34l-4.86 4.87z"/><path d="m68.51 36.4-3.68-3.69h-2.37l-3.61 3.63-3.65-3.63h-1.2v1.2l4.8 4.8 4.84-4.84 4.87 4.86z"/><path d="m68.51 36.4v2.33l4.86-4.86v-1.16h-1.18z"/><path d="m67.32 32.71 1.19 1.19v-1.19z"/><path d="m58.8 33.88 1.17-1.17h-2.33z"/><path d="m68.51 33.9 1.18-1.19h-1.18z"/><path d="m34.64 12.13v1.19h1.19z"/><path d="m44.27 12.13-1.18 1.19h2.37z"/><path d="m54 13.32v-1.19l-1.18 1.19z"/><path d="m49.14 12.17-4.87-4.87-4.79 4.81-4.84-4.81v2.39l3.63 3.63h2.33l3.67-3.68 3.68 3.68h1.19z"/><path d="m49.14 13.32h1.19l3.67-3.68v-2.34l-4.86 4.87z"/><path d="m44.27 2.43-4.79 4.81-4.84-4.81v2.39l4.79 4.8 4.84-4.84 4.87 4.86v-2.34z"/><path d="m49.14 9.64 4.86-4.86v-2.35l-4.86 4.87z"/><path d="m49.14 2.47-2.49-2.49h-2.34l4.83 4.83z"/><path d="m39.43 4.79 4.81-4.81h-2.33l-2.43 2.43-2.45-2.43h-2.39v.01z"/><path d="m49.14 4.81 4.83-4.83h-2.34l-2.49 2.49z"/><path d="m44.27 31.53-1.18 1.18h2.37z"/><path d="m34.64 31.53v1.18h1.19z"/><path d="m54 32.71v-1.18l-1.18 1.18z"/><path d="m49.14 31.56-4.87-4.87-4.79 4.81-4.84-4.81v2.39l3.63 3.63h2.33l3.67-3.67 3.68 3.67h1.19z"/><path d="m49.14 32.71h1.19l3.67-3.67v-2.35l-4.86 4.87z"/><path d="m44.27 21.83-4.79 4.81-4.84-4.81v2.39l4.79 4.79 4.84-4.84 4.87 4.87v-2.34z"/><path d="m49.14 29.04 4.86-4.87v-2.34l-4.86 4.87z"/><path d="m44.27 17-4.79 4.8-4.84-4.8v2.38l4.79 4.8 4.84-4.84 4.87 4.86v-2.34z"/><path d="m49.14 24.2 4.86-4.86v-2.34l-4.86 4.86z"/><path d="m45.46 13.32h-2.37l-3.61 3.62-3.65-3.62h-1.19v1.2l4.79 4.8 4.84-4.85 4.87 4.87v-2.34z"/><path d="m49.14 17v2.34l4.86-4.87v-1.15h-1.18z"/><path d="m39.43 14.48 1.17-1.16h-2.33z"/><path d="m47.95 13.32 1.19 1.19v-1.19z"/><path d="m49.14 14.51 1.19-1.19h-1.19z"/><path d="m34.64 43.61.61.62h2.41l-3.02-3z"/><path d="m41.28 44.23h2.34l.65-.66.67.66h2.34l-3.01-3z"/><path d="m54 41.23-3 3h2.34l.66-.66z"/><path d="m44.27 36.39-4.79 4.81-4.84-4.81v2.39l4.79 4.8 4.84-4.85 4.87 4.87v-2.34z"/><path d="m49.14 43.6 4.86-4.87v-2.34l-4.86 4.87z"/><path d="m49.14 36.4-3.68-3.69h-2.37l-3.61 3.63-3.65-3.63h-1.19v1.2l4.79 4.8 4.84-4.84 4.87 4.86z"/><path d="m49.14 36.4v2.33l4.86-4.86v-1.16h-1.18z"/><path d="m39.43 33.88 1.17-1.17h-2.33z"/><path d="m47.95 32.71 1.19 1.19v-1.19z"/><path d="m49.14 33.9 1.19-1.19h-1.19z"/><path d="m24.91 12.13-1.19 1.19h2.37z"/><path d="m15.27 12.13v1.19h1.19z"/><path d="m34.64 13.32v-1.19l-1.19 1.19z"/><path d="m29.77 12.17-4.86-4.87-4.8 4.81-4.84-4.81v2.39l3.63 3.63h2.33l3.68-3.68 3.67 3.68h1.19z"/><path d="m29.77 13.32h1.19l3.68-3.68v-2.34l-4.87 4.87z"/><path d="m24.91 2.43-4.8 4.81-4.84-4.81v2.39l4.8 4.8 4.84-4.84 4.86 4.86v-2.34z"/><path d="m29.77 9.64 4.87-4.86v-2.35l-4.87 4.87z"/><path d="m20.07 4.79 4.8-4.81h-2.33l-2.43 2.43-2.45-2.43h-2.39v.01z"/><path d="m29.77 2.47-2.49-2.49h-2.34l4.83 4.83z"/><path d="m29.77 4.81 4.83-4.83h-2.34l-2.49 2.49z"/><path d="m15.27 31.53v1.18h1.19z"/><path d="m24.91 31.53-1.19 1.18h2.37z"/><path d="m34.64 32.71v-1.18l-1.19 1.18z"/><path d="m29.77 31.56-4.86-4.87-4.8 4.81-4.84-4.81v2.39l3.63 3.63h2.33l3.68-3.67 3.67 3.67h1.19z"/><path d="m29.77 32.71h1.19l3.68-3.67v-2.35l-4.87 4.87z"/><path d="m24.91 21.83-4.8 4.81-4.84-4.81v2.39l4.8 4.79 4.84-4.84 4.86 4.87v-2.34z"/><path d="m29.77 29.04 4.87-4.87v-2.34l-4.87 4.87z"/><path d="m24.91 17-4.8 4.8-4.84-4.8v2.38l4.8 4.8 4.84-4.84 4.86 4.86v-2.34z"/><path d="m29.77 24.2 4.87-4.86v-2.34l-4.87 4.86z"/><path d="m26.09 13.32h-2.37l-3.61 3.62-3.65-3.62h-1.19v1.2l4.8 4.8 4.84-4.85 4.86 4.87v-2.34z"/><path d="m29.77 17v2.34l4.87-4.87v-1.15h-1.19z"/><path d="m20.07 14.48 1.16-1.16h-2.33z"/><path d="m28.58 13.32 1.19 1.19v-1.19z"/><path d="m29.77 14.51 1.19-1.19h-1.19z"/><path d="m15.27 43.61.61.62h2.41l-3.02-3z"/><path d="m21.91 44.23h2.34l.66-.66.66.66h2.34l-3-3z"/><path d="m34.64 41.23-3 3h2.34l.66-.66z"/><path d="m24.91 36.39-4.8 4.81-4.84-4.81v2.39l4.8 4.8 4.84-4.85 4.86 4.87v-2.34z"/><path d="m29.77 43.6 4.87-4.87v-2.34l-4.87 4.87z"/><path d="m29.77 36.4-3.68-3.69h-2.37l-3.61 3.63-3.65-3.63h-1.19v1.2l4.8 4.8 4.84-4.84 4.86 4.86z"/><path d="m29.77 36.4v2.33l4.87-4.86v-1.16h-1.19z"/><path d="m28.58 32.71 1.19 1.19v-1.19z"/><path d="m20.07 33.88 1.16-1.17h-2.33z"/><path d="m29.77 33.9 1.19-1.19h-1.19z"/><path d="m5.54 12.13-1.19 1.19h2.37z"/><path d="m15.27 12.13-1.19 1.19h1.19z"/><path d="m5.54 9.64 3.68 3.68h1.18v-1.15l-4.86-4.87-4.8 4.81-.74-.72v.93 1h1.86z"/><path d="m11.59 13.32 3.68-3.68v-2.34l-4.87 4.87v1.15z"/><path d="m5.54 4.78 4.86 4.86v-2.34l-4.86-4.87-4.54 4.57a12.82 12.82 0 0 0 -.7 2.22l.4.4z"/><path d="m15.27 4.78v-2.35l-4.87 4.87v2.34z"/><path d="m10.4 2.47-1.94-1.94a11.77 11.77 0 0 0 -1.73.61l3.67 3.67z"/><path d="m10.4 4.81 4.83-4.83h-2.34l-2.49 2.49z"/><path d="m5.54 31.53-1.19 1.18h2.37z"/><path d="m15.27 31.53-1.19 1.18h1.19z"/><path d="m5.54 29 3.68 3.67h1.18v-1.11l-4.86-4.87-4.8 4.81-.74-.75v1.14.82h1.86z"/><path d="m11.59 32.71 3.68-3.67v-2.35l-4.87 4.87v1.15z"/><path d="m5.54 24.17 4.86 4.87v-2.34l-4.86-4.87-4.8 4.81-.76-.75v2.41l.72.71z"/><path d="m15.27 24.17v-2.34l-4.87 4.87v2.34z"/><path d="m5.54 19.34 4.86 4.86v-2.34l-4.86-4.86-4.8 4.8-.76-.75v2.42l.72.71z"/><path d="m15.27 19.34v-2.34l-4.87 4.86v2.34z"/><path d="m5.54 14.47 4.86 4.87v-2.34l-3.68-3.68h-2.37l-3.61 3.62-.76-.75v2.41l.72.72z"/><path d="m15.27 14.47v-1.15h-1.19l-3.68 3.68v2.34z"/><path d="m9.22 13.32 1.18 1.19v-1.19z"/><path d="m1.86 13.32h-1.88v.45l.72.71z"/><path d="m10.4 14.51 1.19-1.19h-1.19z"/><path d="m4.77 42a11.72 11.72 0 0 0 3 1.46l-2.23-2.24z"/><path d="m15.27 41.22-3 3h.6 1.72l.66-.66z"/><path d="m10.4 43.6v-2.34l-4.86-4.87-3.22 3.23a9.78 9.78 0 0 0 1.09 1.24l2.13-2.13z"/><path d="m15.27 38.73v-2.34l-4.87 4.87v2.34z"/><path d="m10.4 38.73v-2.33l-3.68-3.69h-2.37l-3.61 3.63-.12-.12a11.67 11.67 0 0 0 .74 1.83l4.18-4.18z"/><path d="m10.4 38.73 4.87-4.86v-1.16h-1.19l-3.68 3.69z"/><path d="m1.86 32.71h-1.86v.51l.66.66z"/><path d="m9.22 32.71 1.18 1.19v-1.19z"/><path d="m10.4 33.9 1.19-1.19h-1.19z"/></g></g></svg>