<svg viewBox="0 0 87.38 44.23" xmlns="http://www.w3.org/2000/svg"><path d="m86.73 26.69c-.94-1.11-3.28-2.18-2.32-3.31.73-.85 1.52-1.93 2.45-1.7a1.36 1.36 0 0 1 .51.3v-3.09a.86.86 0 0 0 -.16 0c-1.3.07-2.29 1.22-3.56 1.48-1 .21-2.07-.16-3.05.12-.5.15-.94.45-1.43.59a2.86 2.86 0 0 1 -2.56-.64c-.69-.59-1.44-1.33-1.37-2.24a11 11 0 0 0 -.76-4.95 10.9 10.9 0 0 1 -1.24-3.68c0-1.3 1-2.76 2.29-2.54a2.24 2.24 0 0 1 .21-2.16 6.8 6.8 0 0 1 1.62-1.59l2.91-2.28a14.38 14.38 0 0 0 -3-.79 1.46 1.46 0 0 1 0 .86c-.15.32-.55.41-.89.49-2.68.59-4.85 2.72-7.55 3.18-1.83.26-3.7-.13-5.32.56-.62.26-1.17.67-1.81.87a1.64 1.64 0 0 1 -1.83-.42 2.15 2.15 0 0 1 -.29-.75c-.38-1.61-.66-3.32-1-5h-2.79a17.08 17.08 0 0 1 1.15 6.34c0 1.78.32 3.33-1 4.73-1 1-2.35 1.66-3 3-.51 1.09-1 2.37-2.06 2.84-1.32.57-2.77-.35-3.91-1.21a29.86 29.86 0 0 1 -3-2.51c-.95-1-1.88-2.12-3.21-2.32a6.51 6.51 0 0 1 -2-.25 3.08 3.08 0 0 1 -1.21-2.2c-.2-.84-.58-1.79-1.42-2-1.22-.31-2.36 1.23-3.57.9a2.48 2.48 0 0 1 -1.23-1l-3.89-5.26a8.35 8.35 0 0 1 -.72-1.06h-3.15q1.84 2.81 3.48 5.74a5 5 0 0 1 .89 3.26 6 6 0 0 1 -1.46 2.4 18 18 0 0 0 -3.86 9.2c-.25 2.14-2.14 4.1-4.28 4s-3.8-1.91-5.81-2.68a34.8 34.8 0 0 0 -3.38-.92c-1.12-.3-2.56-.74-3-1.82-1-2.54.24-5.36 1.13-8a27.17 27.17 0 0 0 1.46-8.25c.6-.37 1.35-.06 2 .21s1.5.43 1.95-.1a2.87 2.87 0 0 0 .38-1 3.33 3.33 0 0 1 2.3-2h-2.45a13.77 13.77 0 0 0 -8.48 2.5 7.61 7.61 0 0 1 -.37 3.43 56 56 0 0 0 -1.23 6.27c-.2 1.47.05 3.63-.82 5a2.39 2.39 0 0 1 -.62.65 6.41 6.41 0 0 0 -1.4 1.63v3.77a5.93 5.93 0 0 0 1-.38 3.81 3.81 0 0 1 2.69-.44c1.1.25 3.9 1.11 4.51 2.12.5.84-.14 1.9-.43 2.65a19.78 19.78 0 0 1 -2.42 4.76q-1.69 2.2-3.44 4.39c-.22.28-.49.69-.8 1.1a11 11 0 0 0 8.49 6.45c.07-1 1.5-1.48 2.45-2 2.13-1.19 4.24-2.43 6.42-3.55a2.61 2.61 0 0 1 .84-.32 2.29 2.29 0 0 1 1.32.29 6.9 6.9 0 0 1 3.24 3.25c.22-1.15.43-2.29.65-3.43a.79.79 0 0 1 .89-.81 14.74 14.74 0 0 1 5.42.21 25.14 25.14 0 0 1 4.38 2.17c1 .53 2.56.79 3.26 1.74a.61.61 0 0 1 .09.16 5.44 5.44 0 0 1 -.11 2.6h3.74a12.83 12.83 0 0 1 1.22-4.36 24.1 24.1 0 0 1 1.84-2.45 10.57 10.57 0 0 0 1.59-3.14 7.84 7.84 0 0 1 .82-2.13 12.23 12.23 0 0 1 1.19-1.3c1.55-1.7 1.88-4.14 2.14-6.42 2.81.08 4.7 3.19 7.47 3.63 1.09.17 2.3-.07 3.19.57a2.54 2.54 0 0 1 .94 2.14c0 1.54-1.69 4 1.27 2.57 1-.49 2.77-1.77 3.62-.35.4.68-.09 1.78-.48 2.36a2.27 2.27 0 0 0 -.46.81c-.14.71.58 1.27 1.23 1.57s1.44.66 1.57 1.36c.16.87-.8 1.63-.7 2.51a3.7 3.7 0 0 0 .35.92 3.42 3.42 0 0 1 .17 1.71h2.84c0-.1 0-.2 0-.3a2 2 0 0 1 .42-1.11 2.14 2.14 0 0 1 1.28-.5c3.39-.5 6.78-1 10.18-1.45a10.59 10.59 0 0 0 2.38-3.52 3.35 3.35 0 0 1 -1.12-2 3.82 3.82 0 0 1 .54-2.17 20 20 0 0 1 1.63-2.13v-3.65c-.12-.23-.31-.42-.58-.73zm-63.37 9.59a.33.33 0 0 1 -.39.36c-1.83-.34-2.49-1.77-4.38-1a43.06 43.06 0 0 0 -5.82 3.16l-2.64 1.6a4.77 4.77 0 0 1 -1.41.66c-1.44.3-3.57-1-5.13-1.58a.34.34 0 0 1 -.16-.48 129.72 129.72 0 0 0 7.89-12.29.94.94 0 0 1 .26-.3.81.81 0 0 1 .51-.06c.91.1 1.5.84 2.26 1.25a5 5 0 0 0 2.54.52c.89 0 1.79-.72 2.62-.7a1.31 1.31 0 0 1 .47.16c1.2.63 2.38 1.31 3.53 2 1.29 1.05-.38 4.79-.15 6.7zm25.21-10.11c-1 2.24-2.43 4.72-3.26 6.24a4.31 4.31 0 0 1 -2.56 2.43c-1.37.29-2.71-.67-4.11-.64-2.14 0-4 2.33-6 1.77a4.83 4.83 0 0 1 -1.74-1.11 19.3 19.3 0 0 1 -4.08-4.34 8.2 8.2 0 0 1 -.53-5.9 67.53 67.53 0 0 1 3.06-10.13 3.35 3.35 0 0 1 1.77-2.22 2.92 2.92 0 0 1 2.65.91 7.75 7.75 0 0 0 2.28 1.82c1.66.59 3.67-.49 5.19.39a4.34 4.34 0 0 1 1.06 1c1.51 1.76 3.35 2.75 4.93 4.06a4.93 4.93 0 0 1 1.34 5.72zm20.66 2.32c-3.31-1-6.62-2-9.85-3.27-2.77-1.06-3.63-3.69-5.13-6a2.65 2.65 0 0 1 -.57-1.57 2.58 2.58 0 0 1 .64-1.29q2.41-3.13 5-6.06a3.88 3.88 0 0 1 1-.9 3.89 3.89 0 0 1 1.73-.27h3.24a5.41 5.41 0 0 1 2.19.3 4.38 4.38 0 0 1 1.72 1.51c2.54 3.42 3.07 8.22 6.26 11 1.18 1 .3 3.48-.7 4.69a6.54 6.54 0 0 1 -2.61 1.85 4 4 0 0 1 -1.36.32 5.55 5.55 0 0 1 -1.56-.31zm14.06 3.8a9 9 0 0 0 -1.49 4.59 1.43 1.43 0 0 1 -.2.79c-.16.21-.43.51-.68.4-1.5-.7-2 .68-3 1a3.32 3.32 0 0 1 -1.24.26 3.55 3.55 0 0 1 -2.15-1.25 1.41 1.41 0 0 0 -.54-.37c-.55-.18-1.07.31-1.63.42-1.94.41-2.09-2.39-2.64-4-.42-1.27 0-2.88 2.29-2.4a1.88 1.88 0 0 0 2.09-1.46c.17-.51.17-1.11.53-1.5a3 3 0 0 1 .74-.47 8.21 8.21 0 0 0 2.39-2.48 3.89 3.89 0 0 1 1.14-1.11 3.67 3.67 0 0 1 1.1-.34 11.15 11.15 0 0 1 2-.24 1 1 0 0 1 .58.1 1 1 0 0 1 .28.36l1.55 2.76c.34.6 1.19 1.37 1.21 2.1.02 1.22-1.71 1.99-2.33 2.84z" fill="#fffcf3"/><g fill="#dae0cf"><path d="m59.87 5.75a1.64 1.64 0 0 0 1.83.42c.64-.2 1.19-.61 1.81-.87 1.62-.69 3.49-.3 5.23-.57 2.7-.46 4.87-2.59 7.55-3.18.34-.08.74-.17.89-.49a1.46 1.46 0 0 0 0-.86 18.56 18.56 0 0 0 -2.72-.2h-15.93c.39 1.65.67 3.36 1 5a2.15 2.15 0 0 0 .34.75z"/><path d="m31.38 6.28a2.48 2.48 0 0 0 1.23 1c1.21.33 2.35-1.21 3.57-.9.84.21 1.22 1.16 1.42 2a3.08 3.08 0 0 0 1.21 2.2 6.51 6.51 0 0 0 2 .25c1.33.2 2.26 1.36 3.21 2.32a29.86 29.86 0 0 0 3 2.51c1.14.86 2.59 1.78 3.91 1.21 1.1-.47 1.55-1.75 2.06-2.84.64-1.34 2-2 3-3 1.29-1.4 1-3 1-4.73a17.08 17.08 0 0 0 -1.2-6.3h-29.07a8.35 8.35 0 0 0 .72 1.07z"/><path d="m1.4 17.79a2.39 2.39 0 0 0 .6-.65c.87-1.32.62-3.48.82-5a56 56 0 0 1 1.25-6.22 7.61 7.61 0 0 0 .37-3.43c-2.99 2.25-4.44 5.82-4.44 9.84v7.19a6.41 6.41 0 0 1 1.4-1.73z"/><path d="m13.06 2a2.87 2.87 0 0 1 -.38 1c-.45.53-1.3.36-1.95.1s-1.39-.58-2-.21a27.17 27.17 0 0 1 -1.47 8.28c-.89 2.6-2.18 5.42-1.13 8 .45 1.08 1.89 1.52 3 1.82a34.8 34.8 0 0 1 3.38.85c2 .77 3.66 2.54 5.81 2.68s4-1.82 4.28-4a18 18 0 0 1 3.86-9.2 6 6 0 0 0 1.48-2.32 5 5 0 0 0 -.89-3.23q-1.63-2.98-3.48-5.77h-8.21a3.33 3.33 0 0 0 -2.3 2z"/><path d="m47.23 20.39c-1.58-1.31-3.42-2.3-4.93-4.06a4.34 4.34 0 0 0 -1.06-1c-1.52-.88-3.53.2-5.19-.39a7.75 7.75 0 0 1 -2.32-1.77 2.92 2.92 0 0 0 -2.65-.91 3.35 3.35 0 0 0 -1.77 2.22 67.53 67.53 0 0 0 -3.06 10.13 8.2 8.2 0 0 0 .53 5.9 19.3 19.3 0 0 0 4.08 4.34 4.83 4.83 0 0 0 1.74 1.15c2.07.56 3.9-1.74 6-1.77 1.4 0 2.74.93 4.11.64a4.31 4.31 0 0 0 2.56-2.43c.83-1.52 2.27-4 3.26-6.24a4.93 4.93 0 0 0 -1.3-5.81z"/><path d="m72.24 28.49a6.54 6.54 0 0 0 2.61-1.85c1-1.21 1.88-3.65.7-4.69-3.19-2.82-3.72-7.62-6.26-11a4.38 4.38 0 0 0 -1.72-1.55 5.41 5.41 0 0 0 -2.19-.3h-3.24a3.89 3.89 0 0 0 -1.73.27 3.88 3.88 0 0 0 -1 .9q-2.64 2.93-5 6.06a2.58 2.58 0 0 0 -.64 1.29 2.65 2.65 0 0 0 .57 1.57c1.5 2.33 2.36 5 5.13 6 3.23 1.25 6.54 2.26 9.85 3.27a5.55 5.55 0 0 0 1.65.32 4 4 0 0 0 1.27-.29z"/><path d="m75.74 4.87a2.24 2.24 0 0 0 -.21 2.13c-1.28-.22-2.33 1.24-2.29 2.54a10.9 10.9 0 0 0 1.24 3.68 11 11 0 0 1 .76 4.95c-.07.91.68 1.65 1.37 2.24a2.86 2.86 0 0 0 2.56.64c.49-.14.93-.44 1.43-.59 1-.28 2.05.09 3.05-.12 1.27-.26 2.26-1.41 3.56-1.48a.86.86 0 0 1 .16 0v-6.53c0-5.08-2.28-9.44-7.1-11.34l-2.91 2.29a6.8 6.8 0 0 0 -1.62 1.59z"/><path d="m82.85 24.59a1 1 0 0 0 -.28-.36 1 1 0 0 0 -.58-.1 11.15 11.15 0 0 0 -2 .24 3.67 3.67 0 0 0 -1.06.35 3.89 3.89 0 0 0 -1.14 1.11 8.21 8.21 0 0 1 -2.39 2.48 3 3 0 0 0 -.74.47c-.36.39-.36 1-.53 1.5a1.88 1.88 0 0 1 -2.09 1.46c-2.3-.48-2.71 1.13-2.29 2.4.55 1.62.7 4.42 2.64 4 .56-.11 1.08-.6 1.63-.42a1.41 1.41 0 0 1 .54.37 3.55 3.55 0 0 0 2.15 1.25 3.32 3.32 0 0 0 1.29-.25c1-.34 1.46-1.72 3-1 .25.11.52-.19.68-.4a1.43 1.43 0 0 0 .2-.79 9 9 0 0 1 1.49-4.59c.62-.85 2.35-1.62 2.32-2.84 0-.73-.87-1.5-1.21-2.1z"/><path d="m85.2 35.35a3.35 3.35 0 0 0 1.12 2 14 14 0 0 0 1.05-5.46v-.85a20 20 0 0 0 -1.63 2.13 3.82 3.82 0 0 0 -.54 2.18z"/><path d="m84.41 23.38c-1 1.13 1.38 2.2 2.32 3.31.25.29.46.5.64.73v-5.42a1.36 1.36 0 0 0 -.51-.3c-.93-.25-1.72.83-2.45 1.68z"/><path d="m69 42.53a3.7 3.7 0 0 1 -.35-.92c-.1-.88.86-1.64.7-2.51-.13-.7-.91-1.06-1.57-1.36s-1.37-.86-1.23-1.57a2.27 2.27 0 0 1 .46-.81c.39-.58.88-1.68.48-2.36-.85-1.42-2.61-.14-3.62.35-3 1.46-1.3-1-1.27-2.57a2.54 2.54 0 0 0 -.94-2.14c-.89-.64-2.1-.4-3.19-.57-2.77-.44-4.66-3.55-7.47-3.63-.26 2.28-.59 4.72-2.14 6.42a12.23 12.23 0 0 0 -1.19 1.3 7.84 7.84 0 0 0 -.82 2.13 10.57 10.57 0 0 1 -1.59 3.14 24.1 24.1 0 0 0 -1.84 2.45 12.83 12.83 0 0 0 -1.22 4.36h27a3.42 3.42 0 0 0 -.2-1.71z"/><path d="m72.48 42.83a2 2 0 0 0 -.42 1.11v.3h2.44c4.22 0 7.36-1.28 9.48-3.36-3.4.46-6.79.95-10.18 1.45a2.14 2.14 0 0 0 -1.32.5z"/><path d="m38.56 41.64a.61.61 0 0 0 -.09-.16c-.7-.95-2.27-1.21-3.26-1.74a25.14 25.14 0 0 0 -4.38-2.17 14.74 14.74 0 0 0 -5.42-.21.79.79 0 0 0 -.89.81c-.22 1.14-.43 2.28-.65 3.43a6.9 6.9 0 0 0 -3.24-3.25 2.29 2.29 0 0 0 -1.32-.29 2.61 2.61 0 0 0 -.84.32c-2.18 1.12-4.29 2.36-6.42 3.55-1 .53-2.38 1-2.45 2a18 18 0 0 0 3.32.3h25.53a5.44 5.44 0 0 0 .11-2.59z"/><path d="m5.35 32a19.78 19.78 0 0 0 2.45-4.76c.29-.75.93-1.81.43-2.65-.61-1-3.41-1.87-4.51-2.12a3.81 3.81 0 0 0 -2.72.44 5.93 5.93 0 0 1 -1 .38v8.61a14 14 0 0 0 1.1 5.59c.31-.41.58-.82.8-1.1q1.75-2.19 3.45-4.39z"/><path d="m23.51 29.57c-1.15-.71-2.33-1.39-3.53-2a1.31 1.31 0 0 0 -.47-.16c-.83 0-1.73.66-2.62.7a5 5 0 0 1 -2.54-.52c-.76-.41-1.35-1.15-2.26-1.25a.81.81 0 0 0 -.51.06.94.94 0 0 0 -.26.3 129.72 129.72 0 0 1 -7.89 12.3.34.34 0 0 0 .16.52c1.56.53 3.69 1.88 5.13 1.58a4.77 4.77 0 0 0 1.41-.66l2.64-1.6a43.06 43.06 0 0 1 5.82-3.16c1.89-.78 2.55.65 4.38 1a.33.33 0 0 0 .39-.36c-.23-1.91 1.44-5.65.2-6.68z"/></g></svg>