<svg viewBox="0 0 87.38 44.23" xmlns="http://www.w3.org/2000/svg"><path d="m81.58 8.93c-.14.3-.27.61-.4.92.13-.31.26-.62.4-.92z" fill="#ddd9d7"/><path d="m50.41 0h-.1l-.06.08z" fill="#ddd9d7"/><path d="m38.69 6.35a14.7 14.7 0 0 1 -2.15 3.5h5.31a15 15 0 0 0 2.54-3.28l-.76.58c.88-1.84 1.77-3.95 3.37-5.25a6.07 6.07 0 0 0 -2 .7 9.59 9.59 0 0 1 1.77-2l-1.27.13a8.75 8.75 0 0 1 .75-.73h-9.92v9.1c.73-.78 1.47-1.66 2.36-2.75z" fill="#ddd9d7"/><path d="m48.77 2.29a6 6 0 0 1 2-.5 13 13 0 0 0 -4.77 4.87 6.62 6.62 0 0 1 1.38-1 17.58 17.58 0 0 1 -3.55 4.22h12.53a18.55 18.55 0 0 0 2.7-3.59 8 8 0 0 1 -1 3.59h3.38a15.69 15.69 0 0 1 3.64-3.77l-.5 1.32a15.11 15.11 0 0 1 2.62-2.56 2.65 2.65 0 0 1 -.5 1.21 18.29 18.29 0 0 0 3.55-4c-.12.51-.24 1-.37 1.52a15.37 15.37 0 0 1 2.38-3.6h-6.43a8.69 8.69 0 0 1 -2.06 1.28 2 2 0 0 0 .63-.9c-2 1.81-3.89 2-5.53 3.3a1.54 1.54 0 0 1 1.07-.25 7.46 7.46 0 0 0 -2 1.45 1.2 1.2 0 0 1 .82-.12 13.54 13.54 0 0 0 -5.26 4.79 9.24 9.24 0 0 1 1.87-3.44l-1 .75a18.67 18.67 0 0 1 5.86-5.76c-.19.18-.48.76-.67.95 1.1-.63 2.16-1.33 3.2-2.06h-5.53a30.2 30.2 0 0 1 -3.3 1.31 18.54 18.54 0 0 0 2.29-1.3h-5a12.61 12.61 0 0 0 -2.45 2.29z" fill="#ddd9d7"/><path d="m74.22 3.58a2.07 2.07 0 0 1 .33-1.28 12.3 12.3 0 0 0 -1.86 2.26 13.8 13.8 0 0 1 -2.92 2.89 1.46 1.46 0 0 1 .56.15l-3.13 1.24h.8l-1 .37c-.49.19-1 .38-1.46.61h11.35a5.78 5.78 0 0 1 1.11-1.42 6.43 6.43 0 0 0 -.14 1.45h.28a22 22 0 0 1 1.93-3.19c-.08.44-.15.88-.23 1.31a11.34 11.34 0 0 1 4.16-4.58 11.57 11.57 0 0 0 -5.74-3 12.13 12.13 0 0 0 -4.04 3.19z" fill="#ddd9d7"/><path d="m84.47 5.79a2.13 2.13 0 0 0 -.2.54 2.13 2.13 0 0 1 .2-.54z" fill="#ddd9d7"/><path d="m57.23 0h-1a18.54 18.54 0 0 1 -2.3 1.3 30.2 30.2 0 0 0 3.3-1.3z" fill="#fff"/><path d="m60.23 1.1a18.67 18.67 0 0 0 -5.84 5.76l1-.75a9.24 9.24 0 0 0 -1.89 3.44 13.54 13.54 0 0 1 5.23-4.79 1.2 1.2 0 0 0 -.82.12 7.46 7.46 0 0 1 2-1.45 1.54 1.54 0 0 0 -1.07.25c1.64-1.32 3.56-1.49 5.53-3.3a2 2 0 0 1 -.63.89 8.69 8.69 0 0 0 2.09-1.27h-3.07c-1 .73-2.1 1.43-3.2 2.06.19-.2.44-.78.67-.96z" fill="#fff"/><path d="m87.05 9.66-.52.19h.47c0-.07 0-.13.05-.19z" fill="#feeceb"/><path d="m80.6 9.59c0 .09-.07.17-.1.26h.12c-.01-.09-.01-.17-.02-.26z" fill="#feeceb"/><path d="m46.8.56a9.59 9.59 0 0 0 -1.8 2.04 6.07 6.07 0 0 1 2-.7c-1.58 1.3-2.47 3.41-3.35 5.25l.76-.58a15 15 0 0 1 -2.54 3.28h2a17.58 17.58 0 0 0 3.53-4.22 6.62 6.62 0 0 0 -1.38 1 13 13 0 0 1 4.74-4.87 6 6 0 0 0 -2 .5 12.61 12.61 0 0 1 2.5-2.26h-.85l-.16.08.06-.08h-4.06a8.75 8.75 0 0 0 -.75.74z" fill="#fff"/><path d="m70.23 2.05a18.29 18.29 0 0 1 -3.55 4 2.65 2.65 0 0 0 .5-1.21 15.11 15.11 0 0 0 -2.62 2.56l.5-1.32a15.69 15.69 0 0 0 -3.64 3.77h4.13c.47-.23 1-.42 1.46-.61l1-.37h-.8l3.12-1.27a1.46 1.46 0 0 0 -.56-.15 13.8 13.8 0 0 0 2.92-2.89 12.3 12.3 0 0 1 1.86-2.26 2.07 2.07 0 0 0 -.33 1.28 12.13 12.13 0 0 1 4-3.18 17.06 17.06 0 0 0 -3.76-.4h-2.2a15.37 15.37 0 0 0 -2.4 3.58c.14-.51.25-1.02.37-1.53z" fill="#fff"/><path d="m79.84 8c.08-.43.15-.87.23-1.31a22 22 0 0 0 -1.93 3.19h2.36c0-.09.07-.17.1-.26v.26h.56c.13-.31.26-.62.4-.92s.3-.6.47-.88a7.79 7.79 0 0 1 1.08-1.4 5.29 5.29 0 0 1 1-.79 3.72 3.72 0 0 1 .38-.22l-.08.15a2.13 2.13 0 0 0 -.2.54c0 .21 0 .39-.06.59a2.26 2.26 0 0 1 -.07.43 5.09 5.09 0 0 1 .34-.78 4.11 4.11 0 0 1 1-1.28 10.65 10.65 0 0 0 -1.42-1.93 11.34 11.34 0 0 0 -4.16 4.61z" fill="#fff"/><path d="m85.82 5.82c0-.08-.09-.17-.14-.26l-.17.53z" fill="#fff"/><path d="m86.53 9.85.52-.19c0 .06 0 .12-.08.19h.21a6.19 6.19 0 0 0 -.13-.62c-.27.21-.55.43-.85.62z" fill="#fff"/><path d="m78 8.4a5.78 5.78 0 0 0 -1.11 1.45h1a6.43 6.43 0 0 1 .11-1.45z" fill="#fff"/><path d="m56.36 9.85h1.64a8 8 0 0 0 1-3.59 18.55 18.55 0 0 1 -2.64 3.59z" fill="#fff"/><path d="m36.33 9.09v.76h.21a14.7 14.7 0 0 0 2.15-3.5c-.89 1.09-1.63 1.97-2.36 2.74z" fill="#fff"/><path d="m77.31 14.52c-.45.61-.89 1.18-1.27 1.63.38-.45.82-1.02 1.27-1.63z" fill="#ddd9d7"/><path d="m39.76 40.43a4.82 4.82 0 0 1 .49-2.06 14.89 14.89 0 0 0 -3.92 3.92v2h3.67a27.63 27.63 0 0 0 3-6.78 8.64 8.64 0 0 0 -3.24 2.92z" fill="#ddd9d7"/><path d="m78.14 9.85h-.28a4.84 4.84 0 0 0 0 .53c.14-.18.19-.38.28-.53z" fill="#ddd9d7"/><path d="m87.37 22.17v-.17l-.85.31c.11.01.48-.05.85-.14z" fill="#ddd9d7"/><path d="m54.65 38.75c3-4.18 4-4.63 8-6.86a3.27 3.27 0 0 0 -1.12 0c1.43-1.47 7.41-3.13 7.41-3.13a6.11 6.11 0 0 0 -2.41.36c4.12-2.79 9.42-3.25 13.73-5.74l-2.37.29a27.22 27.22 0 0 1 9.48-3.67v-5.61a11 11 0 0 1 -4.37 1.44 5.41 5.41 0 0 0 1.94-1.13 12.5 12.5 0 0 0 -2.94 1.05c.12-.19.6-.88.71-1.08a12.36 12.36 0 0 0 -3.71 2.25 2.66 2.66 0 0 1 1.44-.36 9.87 9.87 0 0 0 -4 2.85 5.68 5.68 0 0 1 1-1.74 14.68 14.68 0 0 0 -4.55 3.7 2.39 2.39 0 0 1 .63-1.56 19.61 19.61 0 0 0 -4.29 3.13c-1.23 1.28-2.79 2.86-4.23 4.39a18.92 18.92 0 0 1 2-3.9 28.57 28.57 0 0 1 4.77-5.8l-.41 1.37c1.12-1.44 2.1-3.26 3.1-4.78a8.31 8.31 0 0 1 -.3 1.71 62.23 62.23 0 0 1 2.73-6h-11.34l-.27.13a7.35 7.35 0 0 0 -3.36 3.8 9.66 9.66 0 0 0 -.34 3.42c-.61-.93-.55-3.56-.3-4.64l-.44.76a6.23 6.23 0 0 1 .45-2.17c-.25.24-.49.38-.74.62a7.43 7.43 0 0 1 .87-1.92h-3.42a25.15 25.15 0 0 1 -2.07 3.07 6.12 6.12 0 0 0 1.37-.87c-1.06 2.41-3.75 3.6-5.63 5.46l1.77-2.52a32.73 32.73 0 0 0 -4.85 4.49l1.41-1.12-1.76 2.76a3.11 3.11 0 0 1 .85-.53 21.49 21.49 0 0 1 -2.66 3.21l1.09-.71c-.86 2-2.84 3.28-4 5.12.16-.57.31-1.14.47-1.72a6.17 6.17 0 0 1 -1.79 2.23 13.74 13.74 0 0 1 -2.44 1.61 10.36 10.36 0 0 1 -2.23.8s1-.9 1.19-1.13a11.63 11.63 0 0 0 1.68-2.38 11.51 11.51 0 0 0 1.12-3.1 3.5 3.5 0 0 1 .08 1.73 15.27 15.27 0 0 0 1.37-4c.12.46.23.91.34 1.36a20.76 20.76 0 0 1 3.15-7.51 8.53 8.53 0 0 0 -.46 2.12 21.55 21.55 0 0 1 2.78-4.05 3.63 3.63 0 0 1 -.3 1.24q2-1.77 3.88-3.69a3.1 3.1 0 0 1 -.1 1.25 18.66 18.66 0 0 0 4.09-3.2h-12.5a15.52 15.52 0 0 1 -4.08 2.51 4.62 4.62 0 0 1 -2.48.33 9.67 9.67 0 0 0 4.51-2.8h.05-5.31l-.21.25v15.14a15.48 15.48 0 0 0 1.91-2.34 8.6 8.6 0 0 1 -1.91 3.75v12.31c.44-.45.89-.88 1.36-1.3a6.36 6.36 0 0 1 -.64 1.63l5-5c-.17.63-.34 1.26-.52 1.88a10.6 10.6 0 0 1 4.38-2.16l-1 1.77a14.77 14.77 0 0 1 3.4-1.9c2.29-2.47 3.65-6.26 4.49-8.29l-1.22 1.1a14.23 14.23 0 0 1 2.75-4.15l-1.56.87a19.21 19.21 0 0 1 6.15-4.18l-.92 1.31 5.18-3.58-1.18 2.12c1.46-1.46 2.84-2.1 4.31-3.56a12.64 12.64 0 0 1 -.91 2.9c1.06-.71 3.4-2.51 3.78-3.76a12.73 12.73 0 0 1 -1.84 4.83c-1.12 1.89-2.67 3.44-4 5.2-.16.21-.68.76-.68 1a2.9 2.9 0 0 1 .34-1.26l-2.3 2v-.78a12.44 12.44 0 0 1 -2.74 2.43c.09-.22.17-.45.26-.67a14.27 14.27 0 0 1 -5.22 2.61 4.08 4.08 0 0 0 1.21-1.43c-2.51.74-3.61 4.35-6 5.29a4.08 4.08 0 0 0 -1.14 1.13 4.19 4.19 0 0 1 -.26.33 11.37 11.37 0 0 0 -.68 1c-.11.18-.21.36-.31.54a2.09 2.09 0 0 1 -.25.52l2-1.4q-1.14 2.9-2.52 5.68l1.38-1.18a39.29 39.29 0 0 0 -2.21 3.72h8.56a22.59 22.59 0 0 0 4.42-7.26 27.43 27.43 0 0 0 -2.55 1.75z" fill="#ddd9d7"/><path d="m81 36.51.55-1.11-3.85 2.41.86-1.29-3.6 3 .92-1.18c-2.68 1.43-5.44 2.92-7.33 5.3a3.57 3.57 0 0 1 .64-1.83 9 9 0 0 0 -2.5 2.46h7.77a18.13 18.13 0 0 0 2.62-.19 20.47 20.47 0 0 0 7.86-5.63c-.12.53-.23 1.07-.35 1.6a11.49 11.49 0 0 1 1.49-2.11 13.64 13.64 0 0 0 1.29-6v-2.22a46.58 46.58 0 0 1 -6.37 6.79z" fill="#ddd9d7"/><path d="m83.47 26.11a9.81 9.81 0 0 0 -3.29 2.6 8.14 8.14 0 0 1 1.14-2.53 78.39 78.39 0 0 1 -7.73 5.82 4.22 4.22 0 0 0 1.41-2l-5 3.18a6.35 6.35 0 0 0 1.61-2.29q-3.28 2-6.51 4l1.37-2a18.17 18.17 0 0 0 -7 6.24 21.33 21.33 0 0 1 .78-2.45 30 30 0 0 1 -6.53 7.51h7.6c.59-.71 1.18-1.43 1.78-2.13a20.47 20.47 0 0 1 -.84 2.13h.17a14 14 0 0 1 .87-1.16 4.55 4.55 0 0 0 -.14 1.16h.15a63.56 63.56 0 0 1 4.16-5.78c-.15.61-.29 1.22-.43 1.83a8.18 8.18 0 0 1 2.34-2c-.25.52-.49 1.05-.73 1.57a8.27 8.27 0 0 1 2.8-2.25l-.45.86 2.64-1.45-1 1.11a36 36 0 0 0 3.58-2.52 1.2 1.2 0 0 0 -.27.51 28.4 28.4 0 0 0 4.35-3.54 12.56 12.56 0 0 0 -1.3 2.22c1.64-1.26 3.23-2.58 4.75-4-.39.72-.79 1.43-1.18 2.14a23 23 0 0 0 4.85-3.85v-4.34a27.76 27.76 0 0 0 -4.53 2.92z" fill="#ddd9d7"/><path d="m65.89 44.24h.7c.11-.62.23-1.23.34-1.85-.32.61-.67 1.25-1.04 1.85z" fill="#ddd9d7"/><path d="m57.59 25.68a18 18 0 0 0 2.29-2 2.92 2.92 0 0 1 -.52 1.32 11.09 11.09 0 0 0 3.08-2.91c-.17.48-.34 1-.52 1.45a7.71 7.71 0 0 0 2.79-3.17c-.37.32-.81.53-1.18.85a3.22 3.22 0 0 1 .75-2 28.66 28.66 0 0 0 -4.12 3.24l.39-1.17a16.25 16.25 0 0 1 -3.31 2.19c.19-.45.37-.9.56-1.34a11.74 11.74 0 0 0 -3.94 5.54 22.8 22.8 0 0 1 4.14-3.13 2.64 2.64 0 0 0 -.41 1.13z" fill="#ddd9d7"/><path d="m84.94 38.42a20.47 20.47 0 0 1 -7.86 5.63c4.49-.64 7.45-2.95 9-6.14a11.49 11.49 0 0 0 -1.49 2.09c.12-.51.23-1 .35-1.58z" fill="#fff"/><path d="m62.39 44.24h.73a4.55 4.55 0 0 1 .14-1.16 14 14 0 0 0 -.87 1.16z" fill="#fff"/><path d="m61.28 44.24h.94a20.47 20.47 0 0 0 .84-2.13c-.6.7-1.19 1.42-1.78 2.13z" fill="#fff"/><path d="m82.52 32.92c.39-.71.79-1.42 1.18-2.14-1.52 1.39-3.11 2.71-4.75 4a12.56 12.56 0 0 1 1.31-2.13 28.4 28.4 0 0 1 -4.35 3.54 1.2 1.2 0 0 1 .27-.51 36 36 0 0 1 -3.58 2.52l1-1.11-2.6 1.42.45-.86a8.27 8.27 0 0 0 -2.8 2.25c.24-.52.48-1 .73-1.57a8.18 8.18 0 0 0 -2.34 2c.14-.61.28-1.22.43-1.83a63.56 63.56 0 0 0 -4.16 5.78h2.62c.37-.6.72-1.22 1-1.85-.11.62-.23 1.23-.34 1.85h.1a9 9 0 0 1 2.5-2.46 3.57 3.57 0 0 0 -.64 1.83c1.89-2.38 4.65-3.87 7.33-5.3l-.88 1.14 3.6-3-.86 1.29 3.84-2.41-.58 1.14a46.58 46.58 0 0 0 6.38-6.79v-.65a23 23 0 0 1 -4.86 3.85z" fill="#fff"/><path d="m86.52 22.33.85-.31v-2.02a27.22 27.22 0 0 0 -9.53 3.68l2.37-.29c-4.31 2.49-9.61 2.95-13.73 5.74a6.11 6.11 0 0 1 2.41-.36s-6 1.66-7.41 3.13a3.27 3.27 0 0 1 1.12 0c-4 2.23-5 2.68-8 6.86a27.43 27.43 0 0 1 2.6-1.76 22.59 22.59 0 0 1 -4.33 7.22h.81a30 30 0 0 0 6.53-7.51 21.33 21.33 0 0 0 -.78 2.45 18.17 18.17 0 0 1 7-6.24l-1.37 2q3.23-2.07 6.51-4a6.35 6.35 0 0 1 -1.57 2.26l5-3.18a4.22 4.22 0 0 1 -1.41 2 78.39 78.39 0 0 0 7.73-5.85 8.14 8.14 0 0 0 -1.14 2.53 9.81 9.81 0 0 1 3.29-2.6l-.63 1.51a27.76 27.76 0 0 1 4.53-2.92v-2.5c-.37.09-.74.15-.85.16z" fill="#fff"/><path d="m54.24 28.63a4.08 4.08 0 0 1 -1.24 1.43 14.27 14.27 0 0 0 5.17-2.61c-.09.22-.17.45-.26.67a12.44 12.44 0 0 0 2.74-2.43v.78l2.3-2a2.9 2.9 0 0 0 -.29 1.29c0-.27.52-.82.68-1 1.29-1.76 2.84-3.31 4-5.2a12.73 12.73 0 0 0 1.84-4.83c-.38 1.25-2.72 3.05-3.78 3.76a12.64 12.64 0 0 0 .91-2.9c-1.46 1.41-2.84 2.07-4.31 3.53l1.18-2.12-5.18 3.58.92-1.31a19.21 19.21 0 0 0 -6.15 4.18l1.56-.87a14.23 14.23 0 0 0 -2.75 4.15l1.22-1.1c-.84 2-2.2 5.82-4.49 8.29 2.32-.92 3.42-4.55 5.93-5.29zm3.56-6.49c-.19.44-.37.89-.56 1.34a16.25 16.25 0 0 0 3.31-2.19l-.39 1.17a28.66 28.66 0 0 1 4.12-3.24 3.22 3.22 0 0 0 -.75 2c.37-.32.81-.53 1.18-.85a7.71 7.71 0 0 1 -2.79 3.17c.18-.48.35-1 .52-1.45a11.09 11.09 0 0 1 -3.08 2.91 2.92 2.92 0 0 0 .52-1.26 18 18 0 0 1 -2.29 2 2.64 2.64 0 0 1 .41-1.19 22.8 22.8 0 0 0 -4.18 3.13 11.74 11.74 0 0 1 3.98-5.54z" fill="#fff"/><path d="m45.14 41.7q1.38-2.79 2.52-5.68l-2 1.4a2.09 2.09 0 0 0 .25-.52c.1-.18.2-.36.31-.54a11.37 11.37 0 0 1 .68-1 4.19 4.19 0 0 0 .26-.33 4.08 4.08 0 0 1 1.14-1.13 14.77 14.77 0 0 0 -3.4 1.9l1-1.77a10.6 10.6 0 0 0 -4.38 2.16c.18-.62.35-1.25.52-1.88l-5 5a6.36 6.36 0 0 0 .64-1.63c-.47.42-.92.85-1.36 1.3v3.27a14.89 14.89 0 0 1 3.92-3.92 4.82 4.82 0 0 0 -.49 2.06 8.64 8.64 0 0 1 3.29-3 27.63 27.63 0 0 1 -3 6.78h4.29a39.29 39.29 0 0 1 2.21-3.72z" fill="#fff"/><path d="m38.24 22.94a15.48 15.48 0 0 1 -1.91 2.34v1.41a8.6 8.6 0 0 0 1.91-3.75z" fill="#fff"/><path d="m84.48 6.57a5.09 5.09 0 0 0 -.34.78 2.26 2.26 0 0 0 .07-.43c0-.2 0-.38.06-.59a2.13 2.13 0 0 1 .2-.54l.08-.15a3.72 3.72 0 0 0 -.38.22 5.29 5.29 0 0 0 -1 .79 7.79 7.79 0 0 0 -1.08 1.4c-.17.28-.32.58-.47.88s-.27.61-.4.92c-.12.31-.24.63-.35.94l-.18.47c0-.15 0-.31 0-.47s0-.63 0-.94h-.19c-.2.48-.43 1-.65 1.43-.12.23-.21.48-.33.71a1.7 1.7 0 0 0 .1-.32 1.88 1.88 0 0 0 0-.33 1.71 1.71 0 0 0 0-.45c0-.07 0-.15 0-.22a11.7 11.7 0 0 1 -1.16 2.22c-.34.55-.73 1.1-1.11 1.63s-.93 1.18-1.35 1.63l-.3.34a11.61 11.61 0 0 0 1.4-.78 17.47 17.47 0 0 0 3.14-2.63c.15-.17.3-.34.42-.5a4.26 4.26 0 0 1 -.2.85 6.07 6.07 0 0 1 -.37.8l.51-.38c.23-.18.42-.34.62-.52l.7-.59c-.27.63-.2 1-.47 1.62a7 7 0 0 1 .67-.66 12.57 12.57 0 0 1 1.65-1.22c.28-.17.55-.33.81-.47s.48-.27.71-.42a5.37 5.37 0 0 0 .71-.49 3.39 3.39 0 0 0 1-1.25h-.44l-.86.31.53-.31c.3-.19.58-.41.85-.62a12.16 12.16 0 0 0 -1.23-3.41l-.31.27.17-.53-.17-.27a4.11 4.11 0 0 0 -1.06 1.28z" fill="#ddd9d7"/><path d="m41.8 9.89a9.67 9.67 0 0 1 -4.51 2.8 4.62 4.62 0 0 0 2.48-.33 15.52 15.52 0 0 0 4.08-2.51h-2z" fill="#fff"/><path d="m60.55 11.77c.25-.24.49-.38.74-.62a6.23 6.23 0 0 0 -.45 2.17l.44-.76c-.25 1.08-.31 3.71.3 4.64a9.66 9.66 0 0 1 .34-3.42 7.35 7.35 0 0 1 3.36-3.78l.27-.13h-4.13a7.43 7.43 0 0 0 -.87 1.9z" fill="#fff"/><path d="m80.65 11.26.18-.47c.11-.31.23-.63.35-.94h-.56v.94s.03.32.03.47z" fill="#fff"/><path d="m86.2 9.85-.53.31.86-.31z" fill="#fff"/><path d="m87 9.85a3.39 3.39 0 0 1 -1 1.25 5.37 5.37 0 0 1 -.66.49c-.23.15-.47.29-.71.42s-.53.3-.81.47a12.57 12.57 0 0 0 -1.65 1.22 7 7 0 0 0 -.67.66c.27-.64.2-1 .47-1.62l-.7.59c-.2.18-.39.34-.62.52l-.51.38a6.07 6.07 0 0 0 .37-.8 4.26 4.26 0 0 0 .2-.85c-.12.16-.27.33-.42.5a17.47 17.47 0 0 1 -3.14 2.63 11.61 11.61 0 0 1 -1.4.78l.3-.34c.38-.45.82-1 1.27-1.63s.77-1.08 1.11-1.63a11.7 11.7 0 0 0 1.16-2.22v.22a1.71 1.71 0 0 1 0 .45 1.88 1.88 0 0 1 0 .33 1.7 1.7 0 0 1 -.1.32c.12-.23.21-.48.33-.71.22-.48.45-.95.65-1.43h-2.33c-.09.17-.17.35-.25.53a4.84 4.84 0 0 1 0-.53h-1a62.23 62.23 0 0 0 -2.73 6 8.31 8.31 0 0 0 .3-1.71c-1 1.52-2 3.34-3.1 4.78l.42-1.32a28.57 28.57 0 0 0 -4.78 5.83 18.92 18.92 0 0 0 -2 3.9c1.49-1.53 3.09-3.11 4.24-4.39a19.61 19.61 0 0 1 4.29-3.13 2.39 2.39 0 0 0 -.63 1.56 14.68 14.68 0 0 1 4.55-3.7 5.68 5.68 0 0 0 -1 1.74 9.87 9.87 0 0 1 4-2.85 2.66 2.66 0 0 0 -1.44.36 12.36 12.36 0 0 1 3.74-2.25c-.11.2-.59.89-.71 1.08a12.5 12.5 0 0 1 2.91-1.05 5.41 5.41 0 0 1 -1.95 1.13 11 11 0 0 0 4.4-1.44v-2.06a15.48 15.48 0 0 0 -.19-2.48z" fill="#fff"/><path d="m52.27 13.05a3.1 3.1 0 0 0 .1-1.25q-1.86 1.92-3.88 3.69a3.63 3.63 0 0 0 .3-1.24 21.55 21.55 0 0 0 -2.79 4.05 8.53 8.53 0 0 1 .45-2.12 20.76 20.76 0 0 0 -3.15 7.51c-.11-.45-.22-.9-.34-1.36a15.27 15.27 0 0 1 -1.37 4 3.5 3.5 0 0 0 -.08-1.73 11.51 11.51 0 0 1 -1.12 3.1 11.63 11.63 0 0 1 -1.68 2.38c-.2.23-1.19 1.13-1.19 1.13a10.36 10.36 0 0 0 2.23-.8 13.74 13.74 0 0 0 2.45-1.61 6.17 6.17 0 0 0 1.8-2.23c-.16.58-.31 1.15-.47 1.72 1.18-1.84 3.16-3.12 4-5.12l-1.09.71a21.49 21.49 0 0 0 2.66-3.21 3.11 3.11 0 0 0 -.85.53l1.75-2.76-1.41 1.16a32.73 32.73 0 0 1 4.85-4.49l-1.77 2.52c1.88-1.86 4.57-3 5.63-5.46a6.12 6.12 0 0 1 -1.37.87 25.15 25.15 0 0 0 2.07-3.19h-1.64a18.66 18.66 0 0 1 -4.09 3.2z" fill="#fff"/><path d="m36.33 10.1.21-.25h-.21z" fill="#fff"/><path d="m18.05 8.67a8.85 8.85 0 0 0 .5-1.62 31.38 31.38 0 0 1 -2.75 2.8h3.2a25.35 25.35 0 0 0 2-4.07c-.59.59-2.32 2.3-2.95 2.89z" fill="#ddd9d7"/><path d="m19.21 9.85h1.5c.21-.6.33-1.21.49-1.84-.71.62-1.32 1.22-1.99 1.84z" fill="#ddd9d7"/><path d="m21.29 9.85h.84c.06-.26.12-.52.17-.78-.42.3-.7.55-1.01.78z" fill="#ddd9d7"/><path d="m24.94.46a23.84 23.84 0 0 1 -3.05 6.25l2.73-2.27-1.62 2.47 2.7-2.35-1.82 3.44a24.65 24.65 0 0 0 2.76-2.12 31.69 31.69 0 0 1 -2 4h10.9l.76-.76v-9.12h-12.68a17 17 0 0 1 -1.46 3c.93-.85 1.84-1.69 2.78-2.54z" fill="#ddd9d7"/><path d="m8.28 6.55a4.48 4.48 0 0 1 -.48 1.76l3.53-4c-.12.9-.24 1.8-.35 2.7a34.92 34.92 0 0 1 3-3.87l-.14 2.31a11 11 0 0 1 4-4.14l-.99 2.69a34.61 34.61 0 0 0 3.15-2.85 4.32 4.32 0 0 1 -.72 2 18.3 18.3 0 0 0 3.63-3.15h-10c-7.7 0-11.8 4.23-12.71 9.85h5a18.36 18.36 0 0 1 3.08-3.3z" fill="#ddd9d7"/><path d="m12.62 9.85h1.71c.36-.75.69-1.49.85-1.92-.84.66-1.69 1.3-2.56 1.92z" fill="#ddd9d7"/><path d="m9.62 9.85h2a15.71 15.71 0 0 0 1.2-2.35 18.46 18.46 0 0 0 -3.2 2.35z" fill="#ddd9d7"/><path d="m8.45 9.85h.76a3.92 3.92 0 0 0 .15-.66c-.31.21-.62.43-.91.66z" fill="#ddd9d7"/><path d="m19.31 3.19a4.32 4.32 0 0 0 .72-2 34.61 34.61 0 0 1 -3.18 2.81l1-2.67a11 11 0 0 0 -4 4.14l.15-2.29a34.92 34.92 0 0 0 -3 3.87c.11-.9.23-1.8.35-2.7l-3.53 4a4.48 4.48 0 0 0 .48-1.76 18.36 18.36 0 0 0 -3 3.3h3.15c.29-.23.6-.45.91-.66a3.92 3.92 0 0 1 -.15.66h.41a18.46 18.46 0 0 1 3.23-2.39 15.71 15.71 0 0 1 -1.2 2.35h1c.87-.62 1.72-1.26 2.56-1.92-.16.43-.49 1.17-.85 1.92h1.44a31.38 31.38 0 0 0 2.75-2.8 8.85 8.85 0 0 1 -.5 1.62c.63-.59 2.36-2.3 3-2.89a25.35 25.35 0 0 1 -2 4.07h.22c.67-.62 1.28-1.22 2-1.84-.16.63-.28 1.24-.49 1.84h.58c.31-.23.59-.48 1-.78-.05.26-.11.52-.17.78h2.54a31.69 31.69 0 0 0 2-4 24.65 24.65 0 0 1 -2.85 2.15l1.85-3.4-2.73 2.31 1.59-2.47-2.7 2.27a23.84 23.84 0 0 0 3.05-6.25c-.94.85-1.85 1.69-2.78 2.54a17 17 0 0 0 1.46-3h-.71a18.3 18.3 0 0 1 -3.6 3.19z" fill="#fff"/><path d="m35.57 9.85h.76v-.76z" fill="#fff"/><path d="m3.8 24.07a33.71 33.71 0 0 0 2-3.14 9 9 0 0 1 -.23 2.07c2.35-2.94 3.4-4.89 5.86-6.52a8.72 8.72 0 0 0 -1.08 2.92 28.21 28.21 0 0 1 4.72-4.21 25.71 25.71 0 0 1 -1.24 2.66 29 29 0 0 0 3.67-3.15 13.2 13.2 0 0 1 -3.41 5.82c4.59-1.32 9.74-5.1 13.68-8.72-.27.52-.42 1.81-.7 2.33 2.93-1.88 5-2.3 5.59-4 .09.59 0 1.24-1 2.45a19.28 19.28 0 0 0 3.88-2.77h-10.87a31.46 31.46 0 0 1 -5.52 7 18.32 18.32 0 0 0 3-7h-.84a6.37 6.37 0 0 1 -.76.45 4.22 4.22 0 0 0 .18-.45h-1.5l-.39.35.16-.31h-3.2a23.89 23.89 0 0 1 -2.54 2c.27-.41.68-1.21 1.07-2h-1.71c-.65.45-1.3.9-2 1.33a13 13 0 0 0 1-1.33h-2c-.27.23-.51.44-.71.63a3.64 3.64 0 0 0 .3-.63h-.76a13.45 13.45 0 0 0 -2.65 2.73c.21-.67.41-1.34.62-2a15.17 15.17 0 0 0 -3.94 4.76 18.93 18.93 0 0 1 2.75-5.49h-5.03a15.48 15.48 0 0 0 -.2 2.48v6.45a10.25 10.25 0 0 0 3.28-2 8.57 8.57 0 0 1 -3.28 3.22v8.39a27.51 27.51 0 0 0 4.05-6.2 4.26 4.26 0 0 1 -.25 1.88z" fill="#ddd9d7"/><path d="m34.93 39.27-.39 1.79a23.32 23.32 0 0 1 1.79-2v-12.37a11.17 11.17 0 0 1 -5.52 3.7 2 2 0 0 0 .65-1.1 11.81 11.81 0 0 0 -2.93 3.34 7.69 7.69 0 0 1 .47-2.11 7.42 7.42 0 0 0 -2.65 2.63 11.63 11.63 0 0 1 3.57-5.21 13.75 13.75 0 0 0 -.67 1.64 8.63 8.63 0 0 1 3.4-2.65 2.45 2.45 0 0 0 -.69 1.2 12.49 12.49 0 0 0 4.41-2.85v-15.18a35.36 35.36 0 0 1 -4 4.13 9.9 9.9 0 0 0 1.89-.7 20 20 0 0 1 -13.21 8.77 24.52 24.52 0 0 0 5.59-3.47 25.17 25.17 0 0 0 -3.88 1.69l1.7-1.81c-3.13 2.28-10.59 5-15 6.07a4.53 4.53 0 0 0 2.23-2.78 14.55 14.55 0 0 0 -2.35 1.48l1.2-2.14-5.25 5.17a6.35 6.35 0 0 0 1-1.72l-2.49 1.91a4.6 4.6 0 0 0 .87-1.46c-.89.76-3.07 2.51-4.67 3.7v3 1.14a23.15 23.15 0 0 1 2.51-1.77 3.22 3.22 0 0 0 -1.13 1.69l5.83-5.43-1 1.69a12.89 12.89 0 0 1 2.79-1.84 4.57 4.57 0 0 0 -.94 1.24 38 38 0 0 1 9.3-3.77l-1.21.89 3.89-1.23a6.56 6.56 0 0 1 -1.48 1.23c1.92-.57 4.25-1.33 6.11-2.06l-.67.69 3.71-1.78-.83.86s2.49-.49 2.86-.6a9.33 9.33 0 0 0 3.86-2.21 9.79 9.79 0 0 1 -6 3.82l1.61-.13a24.52 24.52 0 0 1 -7.32 2.32 3.38 3.38 0 0 1 1.48.19c-2 .62-4 .89-6 1.36a13 13 0 0 0 -5.6 2.49 4.15 4.15 0 0 1 2-.38c-3.33 1.38-6.72 2.8-9.41 5.19a6.34 6.34 0 0 1 1.64-.48l-4.75 2.76a10.54 10.54 0 0 0 4.45 4.74c.14-.11.28-.22.43-.32-.07.15-.14.3-.2.45a6.85 6.85 0 0 0 .67.31c1.85-1.64 3.48-3.52 5.37-5.15l-1.05 2.6c6.88-3.19 10.38-5.69 13.39-10.53a14.08 14.08 0 0 1 -4.88 7.85c-2.87 2.44-6.75 3.59-9.43 6.23a3.33 3.33 0 0 1 2.53-.3l-1 .48c.43 0 .88.05 1.34.05h12.13a11.44 11.44 0 0 0 1.54-1.69 6.09 6.09 0 0 1 -.8 1.69h5.37a19.46 19.46 0 0 1 3.82-4.96zm-7.18 1.14a12.82 12.82 0 0 1 1.18-4.41c-1.51 1.71-3.13 5.3-6.08 7.71.3-.47.63-.94.92-1.42.17-.28.32-.56.46-.85s.19-.63.34-.77l-1.57 1.45a7.25 7.25 0 0 0 .69-1.68 8.67 8.67 0 0 1 -1 .86 6 6 0 0 0 .39-.7l.51-1.05-.74.7c-.33.27-.68.53-1 .77a17.84 17.84 0 0 1 -2.07 1.22 18.78 18.78 0 0 1 -2.29 1c1.85-1.49 4-3 5.3-4.95.18-.26.36-.53.52-.81s.5-.71.47-.94a3.37 3.37 0 0 1 -.47 2.26c1.14-1.41 2.09-2.46 3.23-3.88-.16 1-.34 1.59-.51 2.61 2.67-3.19 3.41-4 6-5.44a7.2 7.2 0 0 0 -2.18 2.71c1-1.12 2.76-1.5 4.26-1.74-1.92.69-4.87 3.78-6.36 7.35z" fill="#ddd9d7"/><path d="m32.28 44.24h.94c.12-.51.25-1 .36-1.39a10.57 10.57 0 0 0 -1.3 1.39z" fill="#ddd9d7"/><path d="m35.44 43.71a12.1 12.1 0 0 1 .82-2.92 10 10 0 0 0 -2.69 3.45h2.76v-2c-.33.5-.61.97-.89 1.47z" fill="#ddd9d7"/><g fill="#fff"><path d="m4.37 35.54c2.69-2.39 6.08-3.81 9.41-5.19a4.15 4.15 0 0 0 -2 .38 13 13 0 0 1 5.6-2.49c2-.47 4.06-.74 6-1.36a3.38 3.38 0 0 0 -1.48-.19 24.52 24.52 0 0 0 7.32-2.32l-1.61.13a9.79 9.79 0 0 0 6-3.82 9.33 9.33 0 0 1 -3.86 2.21c-.37.11-2.86.6-2.86.6l.83-.86-3.72 1.78.67-.69c-1.86.73-4.19 1.49-6.11 2.06a6.56 6.56 0 0 0 1.48-1.23l-3.89 1.23 1.21-.89a38 38 0 0 0 -9.3 3.77 4.57 4.57 0 0 1 .94-1.24 12.89 12.89 0 0 0 -2.76 1.81l1-1.69-5.86 5.46a3.22 3.22 0 0 1 1.18-1.7 23.15 23.15 0 0 0 -2.51 1.7 13.35 13.35 0 0 0 1.2 4.78l4.75-2.72a6.34 6.34 0 0 0 -1.63.48z"/><path d="m5.7 42.56.23.13c.06-.15.13-.3.2-.45-.13.1-.29.21-.43.32z"/><path d="m10 44q.75.12 1.56.18l1-.48a3.33 3.33 0 0 0 -2.56.3z"/><path d="m24.31 29.92c-3 4.84-6.51 7.34-13.39 10.53l1.08-2.6c-1.92 1.63-3.55 3.51-5.4 5.15a13.13 13.13 0 0 0 3.4 1c2.68-2.65 6.56-3.8 9.43-6.24a14.08 14.08 0 0 0 4.88-7.84z"/><path d="m25 44.24h.74a6.09 6.09 0 0 0 .8-1.69 11.44 11.44 0 0 1 -1.54 1.69z"/><path d="m3.29 16.81a10.25 10.25 0 0 1 -3.28 2v1.19a8.57 8.57 0 0 0 3.28-3.19z"/><path d="m29.83 34.82a7.2 7.2 0 0 1 2.17-2.71c-2.56 1.47-3.3 2.25-6 5.44.17-1 .35-1.58.51-2.61-1.14 1.42-2.09 2.47-3.23 3.88a3.37 3.37 0 0 0 .47-2.26c0 .23-.35.74-.47.94s-.34.55-.52.81c-1.34 2-3.45 3.46-5.3 4.95a18.78 18.78 0 0 0 2.29-1 17.84 17.84 0 0 0 2.11-1.26c.36-.24.71-.5 1-.77l.74-.7-.51 1.05a6 6 0 0 1 -.39.7 8.67 8.67 0 0 0 1-.86 7.25 7.25 0 0 1 -.7 1.7l1.56-1.47c-.15.14-.24.58-.34.77s-.29.57-.46.85c-.29.48-.62.95-.92 1.42 2.95-2.41 4.57-6 6.08-7.71a12.82 12.82 0 0 0 -1.18 4.43c1.49-3.57 4.44-6.66 6.34-7.33-1.49.24-3.23.62-4.25 1.74z"/><path d="m36.26 40.79a12.1 12.1 0 0 0 -.82 2.92c.28-.5.58-1 .89-1.42v-3.29a23.32 23.32 0 0 0 -1.79 2l.39-1.79a19.46 19.46 0 0 0 -3.84 5h1.19a10.57 10.57 0 0 1 1.3-1.39c-.11.39-.24.88-.36 1.39h.35a10 10 0 0 1 2.69-3.42z"/><path d="m32.61 26.93a8.63 8.63 0 0 0 -3.4 2.65 13.75 13.75 0 0 1 .67-1.64 11.63 11.63 0 0 0 -3.57 5.21 7.42 7.42 0 0 1 2.69-2.63 7.69 7.69 0 0 0 -.43 2.11 11.81 11.81 0 0 1 2.93-3.34 2 2 0 0 1 -.65 1.1 11.17 11.17 0 0 0 5.52-3.7v-1.41a12.49 12.49 0 0 1 -4.41 2.85 2.45 2.45 0 0 1 .65-1.2z"/><path d="m10.66 11.18c.66-.43 1.31-.88 2-1.33h-1a13 13 0 0 1 -1 1.33z"/><path d="m20.53 10.3a6.37 6.37 0 0 0 .76-.45h-.58a4.22 4.22 0 0 1 -.18.45z"/><path d="m19.15 16.81a31.46 31.46 0 0 0 5.52-7h-2.54a18.32 18.32 0 0 1 -2.98 7z"/><path d="m8.91 10.48c.2-.19.44-.4.71-.63h-.41a3.64 3.64 0 0 1 -.3.63z"/><path d="m2.48 15.33a15.17 15.17 0 0 1 3.94-4.76c-.21.67-.41 1.34-.62 2a13.45 13.45 0 0 1 2.65-2.72h-3.22a18.93 18.93 0 0 0 -2.75 5.48z"/><path d="m13.26 11.85a23.89 23.89 0 0 0 2.54-2h-1.47c-.39.79-.8 1.59-1.07 2z"/><path d="m18.82 10.2.39-.35h-.21z"/><path d="m3.8 26.7 2.46-1.91a6.35 6.35 0 0 1 -1 1.72l5.25-5.16-1.2 2.14a14.55 14.55 0 0 1 2.38-1.49 4.53 4.53 0 0 1 -2.22 2.77c4.4-1 11.86-3.79 15-6.07l-1.7 1.81a25.17 25.17 0 0 1 3.88-1.69 24.52 24.52 0 0 1 -5.59 3.47 20 20 0 0 0 13.14-8.77 9.9 9.9 0 0 1 -1.89.7 35.36 35.36 0 0 0 4-4.13v-.24h-.76a19.28 19.28 0 0 1 -3.88 2.77c.95-1.21 1.06-1.86 1-2.45-.61 1.66-2.66 2.08-5.59 4 .28-.52.43-1.81.7-2.33-3.94 3.62-9.09 7.4-13.68 8.72a13.2 13.2 0 0 0 3.4-5.86 29 29 0 0 1 -3.67 3.14 25.71 25.71 0 0 0 1.24-2.66 28.21 28.21 0 0 0 -4.72 4.21 8.72 8.72 0 0 1 1.08-2.92c-2.43 1.63-3.51 3.58-5.86 6.53a9 9 0 0 0 .27-2.06 33.71 33.71 0 0 1 -2 3.14 4.26 4.26 0 0 0 .26-1.9 27.51 27.51 0 0 1 -4 6.2v.57c1.59-1.19 3.77-2.9 4.66-3.7a4.6 4.6 0 0 1 -.96 1.45z"/></g></svg>