<svg viewBox="0 0 87.38 44.23" xmlns="http://www.w3.org/2000/svg"><g fill="#fffcf3"><path d="m83.83 38.55-.1.2c-.15.25-.3.52-.46.78l-.08.13-.19.34-.3.47c-.42.67-.85 1.31-1.22 1.85l-.37.54a10.57 10.57 0 0 0 4.31-3.76l.21-.36.11-.2c.19-.33.36-.68.54-1a13.92 13.92 0 0 0 1.11-5.62v-1.92c0 .11-.05.21-.09.33a39.19 39.19 0 0 1 -3.47 8.22z"/><path d="m34.77 2a59.92 59.92 0 0 1 -6 4.89c-2 1.48-4.08 2.88-6 4.31s-3.84 2.89-5.6 4.43c-.87.76-1.72 1.57-2.54 2.39-.36.36-.71.73-1.06 1.1h7c.53-.65 1.06-1.28 1.67-1.93a27 27 0 0 1 2-1.88c.68-.59 1.4-1.15 2.12-1.68s1.48-1 2.23-1.47c1.49-.91 3-1.71 4.48-2.48l1.1-.56.55-.28.28-.1.24-.13c.64-.35 1.27-.71 1.88-1.11a28 28 0 0 0 3.46-2.64 28.39 28.39 0 0 0 3-3.12c.42-.55.82-1.13 1.23-1.74h-8.05c-.65.7-1.31 1.39-1.99 2z"/><path d="m13.12 11.42c1.82-1.84 3.72-3.52 5.58-5.18s3.71-3.24 5.47-4.93c.48-.44.94-.88 1.4-1.32h-11.75c-2.22 1.59-4.33 3.16-6.3 4.85a8.55 8.55 0 0 1 -.68.64 1.86 1.86 0 0 1 -.32.24l-.06.06-.17.22-.16.16-.13.07-.48.49c-.31.32-.6.63-.87.94-.13.16-.26.31-.38.47l-.18.23-.09.12-.05.08-.42.61c-.12.19-.26.38-.38.58-.25.39-.49.78-.72 1.18-.12.2-.23.41-.34.61s-.22.41-.32.62c-.21.41-.41.84-.6 1.26a27.49 27.49 0 0 0 -1.17 3.13v2.61h6.78a53.29 53.29 0 0 1 6.34-7.74z"/><path d="m51.72 3.55c-.28.37-.55.73-.84 1.09-.58.71-1.18 1.36-1.82 2.06a33.23 33.23 0 0 1 -4.06 3.62 36.32 36.32 0 0 1 -4.55 2.93c-.8.43-1.6.83-2.42 1.19l-2.26 1c-.73.32-1.45.65-2.15 1s-1.38.67-2 1a27.45 27.45 0 0 0 -2.81 1.73h8.47l1.42-.77c1.29-.65 2.56-1.23 3.81-1.78s2.45-1.09 3.62-1.66c.58-.29 1.15-.58 1.71-.89s1.1-.62 1.62-1l.77-.53c.24-.18.5-.36.74-.55s.47-.39.7-.59l.71-.66c.25-.21.47-.45.7-.68s.46-.45.68-.69l.66-.72.58-.71a32.75 32.75 0 0 0 2.32-3.15c.09-.14.18-.28.26-.42l.26-.37.25-.42.13-.21.11-.21.48-.87.44-.88c.22-.45.42-.91.62-1.37h-5.87a26.89 26.89 0 0 1 -1.47 2.36c-.26.39-.53.77-.81 1.15z"/><path d="m59.77 6.23-.51.93-.54.91c-.17.31-.37.6-.56.9s-.38.61-.58.89l-.6.88-.63.86c-.21.29-.44.57-.66.85s-.43.56-.67.83l-.7.82c-.25.27-.5.56-.76.82s-.53.52-.8.78l-.83.74c-.56.48-1.14.93-1.72 1.36s-1.21.84-1.78 1.2l-.18.13h11.36c.23-.33.46-.66.69-1a50 50 0 0 0 3.86-6.91c.55-1.2 1.06-2.43 1.51-3.66l.09-.24.24-.67c.09-.28.2-.6.3-.92 0-.11.07-.22.1-.34l.18-.58.13-.48.13-.47c.32-1.2.58-2.46.81-3.83v-.03h-5.13q-.44 1.23-.93 2.43c-.54 1.29-1.16 2.57-1.82 3.8z"/><path d="m74.63 6.42-.15.58c-.07.3-.16.6-.24.89l-.08.24c-.11.4-.24.79-.35 1.13l-.28.84-.1.28c-.51 1.44-1.08 2.88-1.71 4.28s-1.43 3-2.25 4.51h5.72l.15-.41c.06-.15.11-.31.17-.46l.15-.46.15-.46.13-.47c0-.16.09-.32.13-.47s.08-.32.11-.48a24.28 24.28 0 0 0 .56-3.96.38.38 0 0 1 .41-.36.38.38 0 0 1 .35.29 19.64 19.64 0 0 1 .27 7.22h3.84a38.37 38.37 0 0 1 -.5-6.25 41.82 41.82 0 0 1 .73-7.9c.19-.94.41-1.88.66-2.81a13.42 13.42 0 0 0 -6.69-2.19 51.4 51.4 0 0 1 -1 5.82z"/><path d="m85 11.59-.27.89c-.09.29-.17.59-.27.89-.34 1.19-.66 2.4-1 3.62-.17.72-.33 1.44-.49 2.17h4.23c0-.16 0-.33 0-.49.05-.48.1-1 .13-1.44v-4.9a14.29 14.29 0 0 0 -.84-4.95c-.32.82-.65 1.63-.94 2.47-.17.58-.35 1.15-.55 1.74z"/></g><path d="m81.11 12.91a38.37 38.37 0 0 0 .5 6.25h1.39c.16-.73.32-1.45.49-2.17.3-1.22.62-2.43 1-3.62.1-.3.18-.6.27-.89l.27-.89c.2-.58.38-1.16.59-1.74.29-.84.62-1.65.94-2.47a10.59 10.59 0 0 0 -4-5.22c-.31.93-.56 1.84-.72 2.84a41.82 41.82 0 0 0 -.73 7.91z" fill="#fff"/><path d="m81.11 12.91a38.37 38.37 0 0 0 .5 6.25h1.39c.16-.73.32-1.45.49-2.17.3-1.22.62-2.43 1-3.62.1-.3.18-.6.27-.89l.27-.89c.2-.58.38-1.16.59-1.74.29-.84.62-1.65.94-2.47a10.59 10.59 0 0 0 -4-5.22c-.31.93-.56 1.84-.72 2.84a41.82 41.82 0 0 0 -.73 7.91z" fill="#f3ce91" opacity=".41"/><path d="m66.84 3.86-.13.47-.13.48-.18.58c0 .12-.07.23-.1.34-.1.32-.21.64-.3.92l-.24.68-.09.24c-.45 1.23-1 2.46-1.51 3.66a50 50 0 0 1 -3.86 6.91c-.23.36-.46.69-.69 1h9.86c.82-1.47 1.57-3 2.25-4.51s1.2-2.84 1.71-4.28l.1-.28.28-.84c.11-.34.24-.73.35-1.13l.08-.24c.08-.29.17-.59.24-.89l.15-.57.14-.56a51.4 51.4 0 0 0 1-5.82c-.44 0-.88 0-1.35 0h-6.77v-.02c-.23 1.4-.49 2.66-.81 3.86z" fill="#fff"/><path d="m66.84 3.86-.13.47-.13.48-.18.58c0 .12-.07.23-.1.34-.1.32-.21.64-.3.92l-.24.68-.09.24c-.45 1.23-1 2.46-1.51 3.66a50 50 0 0 1 -3.86 6.91c-.23.36-.46.69-.69 1h9.86c.82-1.47 1.57-3 2.25-4.51s1.2-2.84 1.71-4.28l.1-.28.28-.84c.11-.34.24-.73.35-1.13l.08-.24c.08-.29.17-.59.24-.89l.15-.57.14-.56a51.4 51.4 0 0 0 1-5.82c-.44 0-.88 0-1.35 0h-6.77v-.02c-.23 1.4-.49 2.66-.81 3.86z" fill="#f3ce91" opacity=".41"/><path d="m87.37 18.69v-1.46c0 .48-.08 1-.13 1.44z" fill="#fff"/><path d="m87.37 18.69v-1.46c0 .48-.08 1-.13 1.44z" fill="#f3ce91" opacity=".41"/><path d="m87.2 19.16h.17v-.47h-.13c-.02.14-.02.31-.04.47z" fill="#fffcf3"/><path d="m87.2 19.16h.17v-.47h-.13c-.02.14-.02.31-.04.47z" fill="#f3ce91" opacity=".41"/><path d="m58.81 2.24-.48.87-.11.21-.13.21-.25.47-.26.42c-.08.14-.17.28-.26.42a32.75 32.75 0 0 1 -2.32 3.1l-.63.74-.66.72c-.22.24-.45.46-.68.69s-.45.47-.7.68l-.71.66c-.23.2-.46.4-.7.59s-.5.37-.74.55l-.77.53q-.78.51-1.62 1c-.56.31-1.13.6-1.71.89-1.17.57-2.38 1.1-3.62 1.66s-2.52 1.13-3.81 1.78l-1.42.77h11l.18-.13c.6-.39 1.19-.8 1.78-1.23s1.16-.88 1.72-1.36l.83-.74c.27-.26.54-.51.8-.78s.51-.55.76-.82l.7-.82c.24-.27.45-.55.67-.83s.45-.56.66-.85l.63-.86.6-.88c.2-.28.39-.59.58-.89s.39-.59.56-.9l.54-.91.51-.93c.66-1.24 1.28-2.51 1.82-3.81q.49-1.2.93-2.43h-2.63c-.2.46-.4.92-.62 1.37z" fill="#fff"/><path d="m58.81 2.24-.48.87-.11.21-.13.21-.25.47-.26.42c-.08.14-.17.28-.26.42a32.75 32.75 0 0 1 -2.32 3.1l-.63.74-.66.72c-.22.24-.45.46-.68.69s-.45.47-.7.68l-.71.66c-.23.2-.46.4-.7.59s-.5.37-.74.55l-.77.53q-.78.51-1.62 1c-.56.31-1.13.6-1.71.89-1.17.57-2.38 1.1-3.62 1.66s-2.52 1.13-3.81 1.78l-1.42.77h11l.18-.13c.6-.39 1.19-.8 1.78-1.23s1.16-.88 1.72-1.36l.83-.74c.27-.26.54-.51.8-.78s.51-.55.76-.82l.7-.82c.24-.27.45-.55.67-.83s.45-.56.66-.85l.63-.86.6-.88c.2-.28.39-.59.58-.89s.39-.59.56-.9l.54-.91.51-.93c.66-1.24 1.28-2.51 1.82-3.81q.49-1.2.93-2.43h-2.63c-.2.46-.4.92-.62 1.37z" fill="#f3ce91" opacity=".41"/><path d="m77.5 11.94a.38.38 0 0 0 -.35-.29.38.38 0 0 0 -.41.36 24.28 24.28 0 0 1 -.56 3.99c0 .16-.07.32-.11.48s-.08.31-.13.47l-.13.47-.15.46-.15.46c-.06.15-.11.31-.17.46l-.15.41h2.58a19.64 19.64 0 0 0 -.27-7.27z" fill="#fff"/><path d="m77.5 11.94a.38.38 0 0 0 -.35-.29.38.38 0 0 0 -.41.36 24.28 24.28 0 0 1 -.56 3.99c0 .16-.07.32-.11.48s-.08.31-.13.47l-.13.47-.15.46-.15.46c-.06.15-.11.31-.17.46l-.15.41h2.58a19.64 19.64 0 0 0 -.27-7.27z" fill="#f3ce91" opacity=".41"/><path d="m43.52 1.74a28.39 28.39 0 0 1 -3 3.12 28 28 0 0 1 -3.45 2.64c-.61.4-1.24.76-1.88 1.11l-.19.13-.27.14-.55.28-1.18.56c-1.47.77-3 1.57-4.48 2.48-.75.46-1.5 1-2.23 1.47s-1.44 1.09-2.12 1.68a27 27 0 0 0 -2 1.88c-.61.65-1.14 1.28-1.67 1.93h8.2a27.45 27.45 0 0 1 2.81-1.73c.66-.36 1.34-.7 2-1s1.42-.66 2.15-1l2.26-1c.82-.36 1.62-.76 2.42-1.19a36.32 36.32 0 0 0 4.66-2.92 33.23 33.23 0 0 0 4.06-3.62c.64-.7 1.24-1.35 1.82-2.06.29-.36.56-.72.84-1.09s.55-.76.81-1.15a26.89 26.89 0 0 0 1.47-2.4h-9.16c-.44.61-.84 1.19-1.32 1.74z" fill="#fff"/><path d="m43.52 1.74a28.39 28.39 0 0 1 -3 3.12 28 28 0 0 1 -3.45 2.64c-.61.4-1.24.76-1.88 1.11l-.19.13-.27.14-.55.28-1.18.56c-1.47.77-3 1.57-4.48 2.48-.75.46-1.5 1-2.23 1.47s-1.44 1.09-2.12 1.68a27 27 0 0 0 -2 1.88c-.61.65-1.14 1.28-1.67 1.93h8.2a27.45 27.45 0 0 1 2.81-1.73c.66-.36 1.34-.7 2-1s1.42-.66 2.15-1l2.26-1c.82-.36 1.62-.76 2.42-1.19a36.32 36.32 0 0 0 4.66-2.92 33.23 33.23 0 0 0 4.06-3.62c.64-.7 1.24-1.35 1.82-2.06.29-.36.56-.72.84-1.09s.55-.76.81-1.15a26.89 26.89 0 0 0 1.47-2.4h-9.16c-.44.61-.84 1.19-1.32 1.74z" fill="#f3ce91" opacity=".41"/><path d="m1.74 12.22c.1-.21.21-.41.32-.62s.22-.41.34-.61c.23-.4.47-.79.72-1.18.12-.2.26-.39.38-.58l.42-.61.08-.08.08-.12.18-.23c.12-.16.25-.31.38-.47.27-.31.56-.62.87-.94l.49-.55.12-.12.17-.11.18-.19.06-.06a1.86 1.86 0 0 0 .32-.24 8.55 8.55 0 0 0 .68-.64c2-1.69 4.08-3.26 6.3-4.85h-.9c-8.82-.02-12.93 5.5-12.93 12.31v4.22a27.49 27.49 0 0 1 1.13-3.07c.2-.42.4-.85.61-1.26z" fill="#fff"/><path d="m1.74 12.22c.1-.21.21-.41.32-.62s.22-.41.34-.61c.23-.4.47-.79.72-1.18.12-.2.26-.39.38-.58l.42-.61.08-.08.08-.12.18-.23c.12-.16.25-.31.38-.47.27-.31.56-.62.87-.94l.49-.55.12-.12.17-.11.18-.19.06-.06a1.86 1.86 0 0 0 .32-.24 8.55 8.55 0 0 0 .68-.64c2-1.69 4.08-3.26 6.3-4.85h-.9c-8.82-.02-12.93 5.5-12.93 12.31v4.22a27.49 27.49 0 0 1 1.13-3.07c.2-.42.4-.85.61-1.26z" fill="#f3ce91" opacity=".41"/><path d="m18.7 6.24c-1.86 1.66-3.76 3.34-5.58 5.18a53.29 53.29 0 0 0 -6.34 7.74h6.76c.35-.37.7-.74 1.06-1.1.82-.82 1.67-1.63 2.54-2.39 1.76-1.54 3.64-3 5.6-4.43s4-2.83 6-4.31a59.92 59.92 0 0 0 6-4.89c.68-.65 1.34-1.34 2-2h-11.17c-.46.44-.92.88-1.4 1.32-1.76 1.64-3.6 3.22-5.47 4.88z" fill="#fff"/><path d="m18.7 6.24c-1.86 1.66-3.76 3.34-5.58 5.18a53.29 53.29 0 0 0 -6.34 7.74h6.76c.35-.37.7-.74 1.06-1.1.82-.82 1.67-1.63 2.54-2.39 1.76-1.54 3.64-3 5.6-4.43s4-2.83 6-4.31a59.92 59.92 0 0 0 6-4.89c.68-.65 1.34-1.34 2-2h-11.17c-.46.44-.92.88-1.4 1.32-1.76 1.64-3.6 3.22-5.47 4.88z" fill="#f3ce91" opacity=".41"/><path d="m55.52 42.06c.12-.15.25-.28.38-.42l.38-.41c.12-.14.25-.27.38-.4l.39-.39c.51-.51 1-1 1.55-1.48s1-.94 1.55-1.4l1.52-1.33c.49-.45 1-.88 1.46-1.33s.95-.9 1.43-1.35l.71-.68.69-.7.69-.7.67-.71.68-.76.65-.73c.86-1 1.68-2 2.46-3s1.49-2.11 2.15-3.21c.33-.55.64-1.12.93-1.69s.57-1.16.82-1.75c.07-.17.13-.33.2-.49h-5.74c-.68 1.22-1.4 2.43-2.17 3.6-1 1.44-1.82 2.65-2.74 3.8a45.55 45.55 0 0 1 -3.17 3.52c-1.83 1.83-3.71 3.45-5.52 5l-1.08.95-1.57 1.4-.37.33-.37.34-.5.46-.22.21c-.9.87-1.82 1.83-2.71 2.84s-1.49 1.76-2.17 2.66h6.92l.27-.39c.46-.63.93-1.22 1.45-1.79z" fill="#fffcf3"/><path d="m74.46 44.24.92-1.11.51-.61c.74-.87 1.5-1.77 2.22-2.66.39-.48.85-1 1.3-1.63l.32-.42.3-.41c.16-.21.31-.43.46-.64l.13-.19c.16-.22.32-.46.47-.68l.1-.16.19-.3.35-.56.27-.45.26-.44c.13-.22.25-.44.37-.66l.13-.24a37.65 37.65 0 0 0 1.76-3.73 39.15 39.15 0 0 0 2.68-10.19h-4.2c-.12.51-.23 1-.35 1.56a.39.39 0 0 1 -.76 0c-.11-.52-.21-1-.29-1.56h-3.83q-.09.63-.21 1.26c-.14.71-.33 1.4-.52 2.1s-.43 1.38-.69 2.05a34.58 34.58 0 0 1 -1.8 3.91c-.67 1.26-1.41 2.48-2.2 3.67l-.6.88-.62.87c-.42.56-.85 1.13-1.29 1.69-.87 1.11-1.78 2.19-2.72 3.23-.23.26-.46.53-.7.79l-.72.77-1.42 1.48-1.38 1.45-.85.93z" fill="#fffcf3"/><path d="m85.61 38.75-.21.36a12.1 12.1 0 0 0 .86-1.59c-.18.35-.35.7-.54 1z" fill="#fffcf3"/><path d="m42.77 36.13c1-1.13 2-2.27 3.18-3.38l.23-.23.62-.58.84-.78 1.65-1.46 1-.89c1.84-1.59 3.57-3.1 5.13-4.67a34.62 34.62 0 0 0 2.58-2.85c.5-.61 1-1.33 1.59-2.13h-11.34c-1.13.74-2.26 1.42-3.36 2.09a49 49 0 0 0 -6.34 4.3c-.44.39-.87.79-1.27 1.2l-.63.66c-.21.22-.41.45-.61.68a35.37 35.37 0 0 0 -2.23 2.91 41.43 41.43 0 0 0 -3.59 6.57c-.95 2.14-1.79 4.38-2.63 6.68h3l.23-.51a15.15 15.15 0 0 1 2.11-3.3.38.38 0 0 1 .6.46 11.76 11.76 0 0 0 -.89 1.59c-.27.56-.49 1.14-.71 1.72h5.07c.11-.19.21-.38.32-.56a52.52 52.52 0 0 1 5.45-7.52z" fill="#fffcf3"/><path d="m0 19.16v12.74 1.13a54.92 54.92 0 0 1 6.78-13.87z" fill="#fffcf3"/><path d="m10.78 39.9.3-1.18c.11-.4.22-.81.34-1.21q.67-2.43 1.57-4.82a50.8 50.8 0 0 1 4.49-9.2 41.39 41.39 0 0 1 3-4.25l.07-.08h-7c-.45.48-.89 1-1.32 1.46s-.76.9-1.13 1.35-.73.91-1.08 1.38c-.71.94-1.4 1.9-2 2.88a53.38 53.38 0 0 0 -6.18 12.67 11.15 11.15 0 0 0 7.78 5c.17-.57.35-1.15.51-1.73.22-.73.44-1.5.65-2.27z" fill="#fffcf3"/><path d="m23.7 34.45a47.66 47.66 0 0 1 4.64-7.45 33.77 33.77 0 0 1 3-3.37c.28-.25.54-.52.82-.77l.84-.75c.6-.51 1.22-1 1.85-1.43s1.27-.84 1.91-1.21l.5-.29h-8.5c-.3.21-.59.42-.88.65a20 20 0 0 0 -1.64 1.41c-.13.12-.26.25-.38.38s-.26.26-.39.39-.27.27-.39.41l-.39.42a37.87 37.87 0 0 0 -2.84 3.56c-.45.63-.87 1.27-1.28 1.92s-.81 1.31-1.19 2q-1.14 2-2.1 4.16t-1.77 4.37c-.13.37-.26.74-.38 1.11l-.4 1.17c-.27.78-.54 1.57-.83 2.34-.09.27-.21.53-.31.8h5.72c.31-.71.61-1.41.91-2.14 1.07-2.54 2.18-5.13 3.48-7.68z" fill="#fffcf3"/><path d="m51.76 38.74.22-.21.5-.46.37-.34.37-.33 1.57-1.4 1.08-.93c1.81-1.56 3.69-3.18 5.52-5a45.55 45.55 0 0 0 3.17-3.52c.92-1.15 1.79-2.36 2.74-3.8.77-1.17 1.49-2.38 2.17-3.6h-9.86c-.56.8-1.09 1.52-1.59 2.13a34.62 34.62 0 0 1 -2.58 2.85c-1.56 1.57-3.29 3.08-5.13 4.67l-1 .89-1.65 1.46-.84.78-.62.58-.23.23c-1.13 1.11-2.2 2.25-3.18 3.38a52.52 52.52 0 0 0 -5.41 7.55c-.11.18-.21.37-.32.56h9.84c.68-.9 1.4-1.79 2.17-2.66s1.79-1.96 2.69-2.83z" fill="#fff"/><path d="m51.76 38.74.22-.21.5-.46.37-.34.37-.33 1.57-1.4 1.08-.93c1.81-1.56 3.69-3.18 5.52-5a45.55 45.55 0 0 0 3.17-3.52c.92-1.15 1.79-2.36 2.74-3.8.77-1.17 1.49-2.38 2.17-3.6h-9.86c-.56.8-1.09 1.52-1.59 2.13a34.62 34.62 0 0 1 -2.58 2.85c-1.56 1.57-3.29 3.08-5.13 4.67l-1 .89-1.65 1.46-.84.78-.62.58-.23.23c-1.13 1.11-2.2 2.25-3.18 3.38a52.52 52.52 0 0 0 -5.41 7.55c-.11.18-.21.37-.32.56h9.84c.68-.9 1.4-1.79 2.17-2.66s1.79-1.96 2.69-2.83z" fill="#f3ce91" opacity=".41"/><path d="m84.55 29.35a37.65 37.65 0 0 1 -1.76 3.73l-.13.24c-.12.22-.24.44-.37.66l-.26.44-.27.45-.35.56-.19.3-.1.16c-.15.22-.31.46-.47.68l-.13.19c-.15.21-.3.43-.46.64l-.3.41-.32.42c-.45.58-.91 1.15-1.3 1.63-.72.89-1.48 1.79-2.22 2.66l-.51.61-.92 1.11a15.16 15.16 0 0 0 6.6-1.37l.37-.54c.37-.54.8-1.18 1.22-1.85l.32-.48.21-.35.08-.13c.16-.26.31-.53.46-.78l.1-.2a39.19 39.19 0 0 0 3.45-8.25c0-.12.06-.22.09-.33v-10.8h-.19a39.15 39.15 0 0 1 -2.65 10.19z" fill="#fffcf3"/><path d="m84.55 29.35a37.65 37.65 0 0 1 -1.76 3.73l-.13.24c-.12.22-.24.44-.37.66l-.26.44-.27.45-.35.56-.19.3-.1.16c-.15.22-.31.46-.47.68l-.13.19c-.15.21-.3.43-.46.64l-.3.41-.32.42c-.45.58-.91 1.15-1.3 1.63-.72.89-1.48 1.79-2.22 2.66l-.51.61-.92 1.11a15.16 15.16 0 0 0 6.6-1.37l.37-.54c.37-.54.8-1.18 1.22-1.85l.32-.48.21-.35.08-.13c.16-.26.31-.53.46-.78l.1-.2a39.19 39.19 0 0 0 3.45-8.25c0-.12.06-.22.09-.33v-10.8h-.19a39.15 39.15 0 0 1 -2.65 10.19z" fill="#f3ce91" opacity=".41"/><path d="m32.64 42.49a11.76 11.76 0 0 1 .89-1.59.38.38 0 0 0 -.6-.46 15.15 15.15 0 0 0 -2.11 3.3l-.23.51h1.33c.23-.62.45-1.2.72-1.76z" fill="#fff"/><path d="m32.64 42.49a11.76 11.76 0 0 1 .89-1.59.38.38 0 0 0 -.6-.46 15.15 15.15 0 0 0 -2.11 3.3l-.23.51h1.33c.23-.62.45-1.2.72-1.76z" fill="#f3ce91" opacity=".41"/><path d="m33.81 31a35.37 35.37 0 0 1 2.19-2.91c.2-.23.4-.46.61-.68l.63-.66c.4-.41.83-.81 1.27-1.2a49 49 0 0 1 6.34-4.3c1.1-.67 2.23-1.35 3.36-2.09h-11l-.5.29c-.64.37-1.28.78-1.91 1.21s-1.25.92-1.85 1.43l-.84.75c-.28.25-.54.52-.82.77a33.77 33.77 0 0 0 -3 3.37 47.66 47.66 0 0 0 -4.64 7.47c-1.3 2.56-2.41 5.14-3.48 7.65-.3.73-.6 1.43-.91 2.14h8.28c.84-2.3 1.68-4.54 2.63-6.68a41.43 41.43 0 0 1 3.64-6.56z" fill="#fff"/><path d="m33.81 31a35.37 35.37 0 0 1 2.19-2.91c.2-.23.4-.46.61-.68l.63-.66c.4-.41.83-.81 1.27-1.2a49 49 0 0 1 6.34-4.3c1.1-.67 2.23-1.35 3.36-2.09h-11l-.5.29c-.64.37-1.28.78-1.91 1.21s-1.25.92-1.85 1.43l-.84.75c-.28.25-.54.52-.82.77a33.77 33.77 0 0 0 -3 3.37 47.66 47.66 0 0 0 -4.64 7.47c-1.3 2.56-2.41 5.14-3.48 7.65-.3.73-.6 1.43-.91 2.14h8.28c.84-2.3 1.68-4.54 2.63-6.68a41.43 41.43 0 0 1 3.64-6.56z" fill="#f3ce91" opacity=".41"/><path d="m14.73 41.1.4-1.17c.12-.37.25-.74.38-1.11q.81-2.22 1.77-4.37t2.1-4.16c.38-.68.78-1.34 1.19-2s.83-1.29 1.28-1.92a37.87 37.87 0 0 1 2.84-3.56l.39-.42c.12-.14.26-.27.39-.41s.26-.27.39-.39.25-.26.38-.38a20 20 0 0 1 1.64-1.41c.29-.23.58-.44.88-.65h-8.2l-.07.08a41.39 41.39 0 0 0 -3 4.25 50.8 50.8 0 0 0 -4.49 9.21q-.9 2.39-1.57 4.82c-.12.4-.23.81-.34 1.21l-.3 1.18c-.21.77-.43 1.54-.65 2.31-.16.58-.34 1.16-.51 1.73a17.9 17.9 0 0 0 3.3.3h.67c.1-.27.22-.53.31-.8.28-.77.55-1.56.82-2.34z" fill="#fff"/><path d="m14.73 41.1.4-1.17c.12-.37.25-.74.38-1.11q.81-2.22 1.77-4.37t2.1-4.16c.38-.68.78-1.34 1.19-2s.83-1.29 1.28-1.92a37.87 37.87 0 0 1 2.84-3.56l.39-.42c.12-.14.26-.27.39-.41s.26-.27.39-.39.25-.26.38-.38a20 20 0 0 1 1.64-1.41c.29-.23.58-.44.88-.65h-8.2l-.07.08a41.39 41.39 0 0 0 -3 4.25 50.8 50.8 0 0 0 -4.49 9.21q-.9 2.39-1.57 4.82c-.12.4-.23.81-.34 1.21l-.3 1.18c-.21.77-.43 1.54-.65 2.31-.16.58-.34 1.16-.51 1.73a17.9 17.9 0 0 0 3.3.3h.67c.1-.27.22-.53.31-.8.28-.77.55-1.56.82-2.34z" fill="#f3ce91" opacity=".41"/><path d="m10 23.35c.35-.47.72-.92 1.08-1.38s.74-.91 1.13-1.35.87-1 1.32-1.46h-6.75a54.92 54.92 0 0 0 -6.73 13.84 12.76 12.76 0 0 0 1.79 5.9 53.38 53.38 0 0 1 6.16-12.67c.61-.98 1.3-1.94 2-2.88z" fill="#fff"/><path d="m10 23.35c.35-.47.72-.92 1.08-1.38s.74-.91 1.13-1.35.87-1 1.32-1.46h-6.75a54.92 54.92 0 0 0 -6.73 13.84 12.76 12.76 0 0 0 1.79 5.9 53.38 53.38 0 0 1 6.16-12.67c.61-.98 1.3-1.94 2-2.88z" fill="#f3ce91" opacity=".41"/><path d="m64.28 41.86 1.42-1.48.72-.77c.24-.26.47-.53.7-.79.94-1 1.85-2.12 2.72-3.23.44-.56.87-1.13 1.29-1.69l.62-.87.6-.88c.79-1.19 1.53-2.41 2.2-3.67a34.58 34.58 0 0 0 1.8-3.91c.26-.67.48-1.36.69-2.05s.38-1.39.52-2.1q.12-.63.21-1.26h-2.58c-.07.16-.13.32-.2.49-.25.59-.53 1.17-.82 1.75s-.6 1.14-.93 1.69c-.66 1.1-1.38 2.17-2.15 3.21s-1.6 2-2.46 3l-.63.7-.66.72-.67.71-.69.7-.69.7-.71.68c-.48.45-.94.91-1.43 1.35s-1 .88-1.46 1.33l-1.52 1.33c-.51.46-1 .92-1.55 1.4s-1 1-1.55 1.48l-.39.39c-.13.13-.26.26-.38.4l-.38.41c-.13.14-.26.27-.38.42-.5.57-1 1.16-1.45 1.79l-.27.39h8.25l.85-.93z" fill="#fff"/><path d="m64.28 41.86 1.42-1.48.72-.77c.24-.26.47-.53.7-.79.94-1 1.85-2.12 2.72-3.23.44-.56.87-1.13 1.29-1.69l.62-.87.6-.88c.79-1.19 1.53-2.41 2.2-3.67a34.58 34.58 0 0 0 1.8-3.91c.26-.67.48-1.36.69-2.05s.38-1.39.52-2.1q.12-.63.21-1.26h-2.58c-.07.16-.13.32-.2.49-.25.59-.53 1.17-.82 1.75s-.6 1.14-.93 1.69c-.66 1.1-1.38 2.17-2.15 3.21s-1.6 2-2.46 3l-.63.7-.66.72-.67.71-.69.7-.69.7-.71.68c-.48.45-.94.91-1.43 1.35s-1 .88-1.46 1.33l-1.52 1.33c-.51.46-1 .92-1.55 1.4s-1 1-1.55 1.48l-.39.39c-.13.13-.26.26-.38.4l-.38.41c-.13.14-.26.27-.38.42-.5.57-1 1.16-1.45 1.79l-.27.39h8.25l.85-.93z" fill="#f3ce91" opacity=".41"/><path d="m81.9 20.72a.39.39 0 0 0 .76 0c.12-.53.23-1 .35-1.56h-1.4c.08.52.18 1.04.29 1.56z" fill="#fff"/><path d="m81.9 20.72a.39.39 0 0 0 .76 0c.12-.53.23-1 .35-1.56h-1.4c.08.52.18 1.04.29 1.56z" fill="#f3ce91" opacity=".41"/></svg>