<?xml version="1.0" encoding="utf-8"?>
<!-- Generator: Adobe Illustrator 24.2.3, SVG Export Plug-In . SVG Version: 6.00 Build 0)  -->
<svg version="1.1" id="tenue_x5F_feminine_x5F_7" xmlns="http://www.w3.org/2000/svg" xmlns:xlink="http://www.w3.org/1999/xlink"
	 x="0px" y="0px" viewBox="0 0 553 574" style="enable-background:new 0 0 553 574;" xml:space="preserve">
<style type="text/css">
	.st0{fill:none;}
	.st1{fill:#BFBABA;}
	.st2{fill:#A09D9D;}
	.st3{fill:#858889;}
	.st4{fill:#8C8C8C;}
	.st5{fill:#696D6F;}
	.st6{fill:#010201;}
	.st7{fill:#686869;}
	.st8{fill:#848484;}
	.st9{fill:#546D5D;}
	.st10{fill:#24332A;}
	.st11{fill:#FFFFFF;}
	.st12{fill:#BABCBF;}
</style>
<g id="cadre_8_">
	<rect x="0" class="st0" width="553" height="574"/>
</g>
<g>
	<g>
		<path class="st1" d="M309.7,204.7c10.6,0.6,16.3,6.9,21.5,13.4c6.1,7.5,3.4,10.9,7.4,19.7c2.4,5.3,6.1,21.1,6.6,25.7
			c1,10.9,6.3,19.8,7.6,30.9c0,4.3,0.5,11.7,0.7,16.4c-3.8,2.9-11.7,4.4-16.8,2.9c-1.4-3.2-3.3-6.3-3.7-9.4
			c-6.7-6.2-8.8-14.6-10.5-23.7c-0.5-2.7-0.7-5.5-1.3-8.2s-2-5.3-3.8-6.4c-0.8,14.3,6.8,27.8,7.8,42.2c1,22.4,0.4,64.1,1.3,86.3
			c-6.1,7-14.5,11.7-23.3,14.7s-18,4.1-27.3,4.8c-9,0.7-18.2,0.9-27.1-0.7s-17.7-5.1-25-11.3c-1.8-27.1,1.5-73.5,6.5-100.2
			c2.1-11,4.4-26.8,2.5-37.7c0.5,6.4-6.2,12-7.2,21.9c-0.3,2.7-1.2,5.2-1.6,7.8c-1.1,6.9-3.5,13.6-6.6,19.6
			c-0.1,2.9-0.6,5.8-1.5,8.8c-4.5,1.8-9.7,1.7-14.3-0.1c-0.9-4.3-1.1-8.8-0.8-12.6c4.7-28.4,3.7-49.7,11.3-68.5
			c1.9-4.7,7.5-23.4,11-27.1c5.8-6.3,7.3-8.2,15.8-8.2c0,0,14.1,0.1,18.2-0.6c7.6-1.4,10,4.8,18.4,4.6c10.1-0.2,20.7-7.2,20.7-7.2
			L309.7,204.7z"/>
		<g>
			<path class="st2" d="M309.7,204.7c4.4,0.2,8.8,1.7,12.4,4.2c3.6,2.5,6.6,5.9,9.3,9.4c1.4,1.7,2.6,3.6,3.4,5.7
				c0.8,2.1,1.1,4.3,1.5,6.4c0.4,2.2,1,4.3,1.9,6.3c0.9,2,1.6,4.1,2.3,6.2c1.3,4.2,2.4,8.5,3.4,12.8c0.5,2.2,0.9,4.3,1.3,6.5
				l0.4,3.3c0.2,1.1,0.4,2.2,0.6,3.3c0.9,4.3,2.4,8.5,3.7,12.7c1.3,4.2,2.5,8.5,3.1,12.9l0,0v0c0,2.7,0.1,5.5,0.3,8.2l0.5,8.2l0,0
				l0,0c-1.2,0.9-2.5,1.5-3.9,2c-1.4,0.5-2.8,0.9-4.2,1.1c-1.4,0.2-2.9,0.4-4.4,0.4c-1.5,0-2.9-0.2-4.3-0.6l0,0l0,0
				c-0.7-1.5-1.5-3-2.2-4.6c-0.7-1.5-1.3-3.1-1.6-4.8l0,0.1c-2.6-2.4-4.7-5.3-6.2-8.5c-1.5-3.2-2.5-6.6-3.3-10
				c-0.4-1.7-0.7-3.4-1.1-5.2c-0.3-1.7-0.5-3.5-0.8-5.2c-0.3-1.7-0.6-3.5-1.3-5.1c-0.7-1.6-1.6-3.2-3.1-4.1l0.2-0.1
				c-0.3,5.4,0.6,10.7,1.9,16c1.3,5.2,2.9,10.4,4.2,15.6c0.6,2.6,1.2,5.3,1.5,8c0.3,2.7,0.3,5.4,0.5,8.1c0.2,5.4,0.3,10.8,0.3,16.2
				l0.3,32.4c0.1,10.8,0.2,21.6,0.6,32.3l0,0.1l-0.1,0.1c-6.1,7-14.4,11.7-23.2,14.7c-8.8,3-18,4.2-27.2,4.9
				c-9.2,0.7-18.5,0.9-27.6-0.7c-9.1-1.6-17.9-5.3-25-11.3l-0.1-0.1l0-0.1c-0.7-11.5-0.6-23.1-0.1-34.6c0.4-11.5,1.3-23.1,2.4-34.5
				c1.2-11.5,2.7-23,4.8-34.3c1-5.7,1.8-11.4,2.3-17.1c0.4-5.7,0.6-11.5-0.4-17.2l0.3,0c0.2,2.2-0.5,4.4-1.4,6.4
				c-0.9,2-1.9,3.9-2.9,5.8c-0.9,2-1.7,4-2.3,6.1c-0.3,1-0.5,2.1-0.6,3.2c-0.1,1.1-0.3,2.2-0.5,3.2c-0.5,2.1-1.1,4.2-1.4,6.4
				c-0.4,2.1-0.9,4.3-1.5,6.3c-1.2,4.2-2.9,8.2-4.9,12.1l0-0.1c-0.1,3-0.6,6-1.5,8.9l0,0.1l-0.1,0c-4.6,1.9-9.8,1.7-14.4-0.1l-0.1,0
				l0-0.1c-0.9-4.1-1.1-8.4-0.8-12.6l0,0l0,0c1.2-7.3,2.1-14.6,2.9-21.9c0.8-7.3,1.5-14.7,2.5-22c1-7.3,2.4-14.6,4.9-21.6
				c2.7-6.9,4.8-14,7.5-20.8c0.7-1.7,1.4-3.4,2.1-5.1c0.8-1.7,1.6-3.4,2.9-4.7c1.3-1.3,2.5-2.7,3.9-4c1.4-1.2,2.9-2.3,4.7-2.9
				c1.8-0.6,3.6-0.7,5.5-0.8c1.8,0,3.7,0,5.5,0c3.7,0,7.4-0.1,11.1-0.3c0.9-0.1,1.8-0.1,2.7-0.3c0.9-0.2,1.8-0.3,2.8-0.2
				c1.9,0.1,3.6,0.7,5.3,1.6c1.7,0.8,3.3,1.7,5,2.4c1.7,0.6,3.6,0.9,5.4,0.9c1.8-0.1,3.7-0.3,5.5-0.7c1.8-0.4,3.6-0.9,5.3-1.6
				c3.5-1.3,6.8-2.9,9.9-4.9l0,0l0,0L309.7,204.7z M309.7,204.7l-13.6-1.8l0,0c-3.1,2-6.5,3.6-9.9,4.9c-1.7,0.6-3.5,1.2-5.3,1.6
				c-1.8,0.4-3.6,0.6-5.5,0.7c-1.8,0-3.7-0.2-5.4-0.9c-1.7-0.6-3.4-1.5-5-2.4c-1.6-0.8-3.4-1.5-5.3-1.5c-0.9,0-1.8,0-2.7,0.2
				c-0.9,0.2-1.8,0.2-2.8,0.3c-3.7,0.2-7.4,0.3-11.1,0.3c-3.7,0.1-7.4-0.3-11,0.8c-1.8,0.5-3.3,1.6-4.7,2.9c-1.4,1.3-2.6,2.6-3.8,4
				c-1.3,1.3-2.1,3-2.9,4.7c-0.8,1.7-1.5,3.4-2.1,5.1c-2.7,6.9-4.8,14-7.5,20.8c-2.4,7-3.8,14.3-4.8,21.6c-1,7.3-1.6,14.7-2.4,22
				c-0.8,7.3-1.7,14.7-2.9,22l0,0c-0.3,4.2-0.1,8.4,0.8,12.5l-0.1-0.1c4.5,1.8,9.7,1.9,14.2,0.1l-0.1,0.1c0.9-2.9,1.4-5.8,1.5-8.8
				l0,0l0,0c2-3.9,3.6-7.9,4.8-12c0.6-2.1,1.1-4.2,1.5-6.3c0.3-2.1,0.9-4.3,1.4-6.4c0.2-1.1,0.4-2.1,0.5-3.2
				c0.1-1.1,0.3-2.2,0.6-3.2c0.5-2.1,1.4-4.1,2.3-6.1c0.9-2,2-3.9,2.9-5.8c0.9-2,1.6-4.1,1.4-6.2l0.3,0c1,5.7,0.8,11.6,0.4,17.3
				c-0.4,5.8-1.3,11.5-2.2,17.2c-2.2,11.3-3.7,22.8-4.8,34.3c-1.1,11.5-2,23-2.4,34.5c-0.4,11.5-0.6,23.1,0.1,34.6l-0.1-0.2
				c7,5.9,15.8,9.6,24.8,11.2c9,1.6,18.3,1.4,27.5,0.7c9.2-0.7,18.3-1.9,27.1-4.8c8.7-2.9,16.9-7.6,23-14.5l0,0.1
				c-0.4-10.8-0.5-21.6-0.5-32.4l-0.2-32.4c-0.1-5.4-0.2-10.8-0.3-16.2c-0.1-2.7-0.1-5.4-0.5-8.1c-0.3-2.7-0.8-5.3-1.5-7.9
				c-1.2-5.2-2.9-10.4-4.1-15.6c-1.3-5.2-2.2-10.6-1.9-16l0-0.2l0.2,0.1c1.6,0.9,2.5,2.6,3.2,4.2c0.7,1.6,1,3.4,1.3,5.1
				c0.3,1.7,0.4,3.5,0.8,5.2c0.3,1.7,0.7,3.5,1.1,5.2c0.8,3.4,1.8,6.8,3.3,10c1.5,3.2,3.6,6.1,6.1,8.5l0,0l0,0
				c0.2,1.7,0.8,3.2,1.5,4.8c0.7,1.5,1.5,3,2.2,4.6l-0.1-0.1c1.4,0.4,2.8,0.6,4.3,0.6c1.5,0,2.9-0.1,4.3-0.3
				c1.4-0.2,2.8-0.6,4.2-1.1c1.4-0.5,2.7-1.1,3.8-2l0,0.1l-0.4-8.2c-0.1-2.7-0.3-5.5-0.3-8.2l0,0c-0.5-4.4-1.7-8.7-3-12.9
				c-1.3-4.2-2.8-8.4-3.7-12.7c-0.2-1.1-0.4-2.2-0.6-3.3l-0.4-3.3c-0.3-2.2-0.8-4.3-1.3-6.5c-1-4.3-2.1-8.6-3.3-12.8
				c-0.6-2.1-1.4-4.2-2.3-6.2c-0.8-2-1.4-4.2-1.9-6.4c-0.4-2.2-0.7-4.4-1.5-6.4c-0.8-2.1-2-4-3.4-5.7c-2.8-3.4-5.7-6.8-9.3-9.4
				C318.5,206.3,314.1,204.9,309.7,204.7z"/>
		</g>
	</g>
	<g>
		<path class="st3" d="M234,274.6c-0.5-2.3-0.8-4.7-1-7.1c-0.2-2.4-0.2-4.8-0.2-7.2c0.1-2.4,0.3-4.8,0.7-7.1c0.4-2.4,0.9-4.7,1.5-7
			c-0.5,2.3-0.8,4.7-1.1,7.1c-0.3,2.4-0.5,4.7-0.5,7.1c-0.1,2.4-0.1,4.8,0.1,7.1C233.4,269.8,233.6,272.2,234,274.6z"/>
	</g>
	<g>
		<path class="st3" d="M313.7,244c0.8,2,1.4,4.1,2,6.2c0.5,2.1,0.9,4.2,1.3,6.4c0.3,2.2,0.5,4.3,0.6,6.5c0.1,2.2,0,4.3-0.1,6.5
			c0-2.2-0.1-4.3-0.3-6.5c-0.2-2.2-0.4-4.3-0.7-6.4c-0.3-2.1-0.7-4.3-1.1-6.4C314.8,248.2,314.3,246.1,313.7,244z"/>
	</g>
	<g>
		<path class="st2" d="M275.1,210c7.3-0.3,17-1.8,23.1-6c1.8-1.3,7.8,2,8.8,0c1-2-2.3-11.2-3.8-12.9c0,0-1.6-1.4-2.8-1.4
			c-1.2,0-9.4,3.7-11.4,6C286.9,197.9,275.1,210,275.1,210"/>
		<path class="st4" d="M275.1,210c3.9-0.2,7.8-0.7,11.6-1.6c3.8-0.9,7.6-2.1,10.8-4.2l0.6-0.4c0.2-0.1,0.5-0.2,0.8-0.3
			c0.5-0.1,1,0,1.5,0c1,0.1,1.9,0.4,2.9,0.6c0.9,0.2,1.9,0.4,2.8,0.2c0.9-0.2,0.8-1.3,0.7-2.3c-0.2-1.9-0.8-3.8-1.4-5.6
			c-0.3-0.9-0.7-1.8-1.1-2.7c-0.4-0.9-0.8-1.8-1.4-2.5l0,0c-0.5-0.5-1.2-0.9-1.8-1.2c-0.3-0.1-0.7-0.2-1-0.2c-0.3,0.1-0.7,0.2-1,0.3
			c-1.4,0.5-2.8,1.1-4.1,1.8c-2.7,1.4-5.4,2.7-7.3,5.1C283.6,201.5,279.3,205.8,275.1,210l12.5-13.1c0.5-0.5,1-1.1,1.6-1.7
			c0.6-0.5,1.2-1,1.8-1.4c1.3-0.8,2.6-1.6,3.9-2.2c1.4-0.7,2.7-1.3,4.2-1.8c0.4-0.1,0.7-0.3,1.1-0.3c0.5,0,0.8,0.1,1.2,0.2
			c0.7,0.3,1.4,0.8,2,1.3l0,0l0,0c0.7,0.8,1,1.7,1.5,2.6c0.4,0.9,0.7,1.8,1.1,2.8c0.6,1.9,1.2,3.8,1.4,5.7c0,0.5,0.1,1,0,1.5
			c0,0.3-0.1,0.5-0.3,0.8c-0.2,0.2-0.5,0.4-0.7,0.4c-1.1,0.2-2,0-3-0.2c-1-0.2-1.9-0.5-2.9-0.6c-0.5-0.1-1-0.1-1.4,0
			c-0.2,0-0.4,0.1-0.6,0.2l-0.6,0.4c-3.3,2.1-7.1,3.3-11,4.2C282.9,209.5,279,209.9,275.1,210z"/>
	</g>
	<g>
		<path class="st5" d="M296.9,193.7c-0.4,1.4-1,2.7-1.9,3.9c-0.8,1.2-1.8,2.2-2.9,3.2c-1.1,1-2.2,1.8-3.4,2.6
			c-1.2,0.8-2.4,1.6-3.7,2.2c-2.6,1.2-5.3,2.2-7.9,3.3c-1.3,0.6-2.6,1.2-3.8,1.9c-1.2,0.7-2.4,1.5-3.3,2.6c1.8-2.3,4.4-3.6,7-4.8
			c2.6-1.2,5.3-2.1,7.9-3.4c2.5-1.3,4.9-2.8,7.1-4.7C294,198.6,295.9,196.4,296.9,193.7z"/>
	</g>
	<g>
		<path class="st2" d="M275.1,210c-7.6,0-10-2.1-16.9-3.8c-2.3-0.5-10.9,1.7-12-0.4c-1.1-2.1,1-12.4,2.4-14.2c0,0,1.5-1.6,2.8-1.7
			s11.4,3.5,12,6.7C264,199.8,275.1,210,275.1,210"/>
		<path class="st4" d="M275.1,210c-1.8,0-3.7-0.1-5.5-0.4c-1.8-0.3-3.6-0.8-5.4-1.4c-1.8-0.6-3.5-1.1-5.3-1.6
			c-0.5-0.1-0.9-0.2-1.3-0.3c-0.4,0-0.9,0-1.4,0c-0.9,0.1-1.8,0.2-2.8,0.3c-1.8,0.2-3.7,0.4-5.6,0.2c-0.5-0.1-1-0.2-1.4-0.5
			c-0.2-0.1-0.4-0.4-0.5-0.6c-0.1-0.2-0.2-0.5-0.2-0.7c-0.1-1-0.1-1.9,0-2.8c0.1-1.9,0.5-3.7,0.9-5.5c0.2-0.9,0.4-1.8,0.7-2.7
			c0.3-0.9,0.6-1.8,1.1-2.6l0,0l0,0c0.5-0.5,1.1-1,1.8-1.4c0.3-0.2,0.7-0.3,1.1-0.4c0.5,0,0.8,0.1,1.2,0.2c1.4,0.4,2.8,0.9,4.2,1.5
			c1.4,0.6,2.7,1.3,4,2.1c0.6,0.4,1.2,0.8,1.8,1.4c0.5,0.5,1,1.2,1.1,2c0.5,1.3,1.4,2.5,2.3,3.7c0.9,1.1,1.9,2.2,2.9,3.3
			C270.9,205.9,272.9,208,275.1,210c-2.2-2-4.3-4-6.4-6.2c-1-1.1-2-2.2-3-3.3c-0.5-0.6-0.9-1.2-1.4-1.8c-0.4-0.6-0.8-1.2-1.1-2
			c-0.1-0.7-0.5-1.3-1.1-1.8c-0.5-0.5-1.1-0.9-1.7-1.3c-1.2-0.8-2.6-1.4-3.9-2c-1.4-0.6-2.7-1.1-4.1-1.4c-0.3-0.1-0.7-0.2-1-0.2
			c-0.3,0-0.6,0.2-1,0.3c-0.6,0.3-1.2,0.8-1.7,1.3l0,0c-0.5,0.7-0.8,1.6-1.1,2.5c-0.3,0.9-0.5,1.8-0.7,2.7c-0.4,1.8-0.7,3.6-0.9,5.4
			c-0.1,0.9-0.1,1.8,0,2.7c0.1,0.4,0.2,0.8,0.5,1.1c0.3,0.2,0.8,0.3,1.2,0.4c1.8,0.2,3.6,0,5.5-0.2c0.9-0.1,1.8-0.2,2.8-0.3
			c0.5,0,0.9,0,1.4,0c0.5,0,0.9,0.2,1.4,0.3c1.8,0.5,3.6,1,5.3,1.6c1.7,0.6,3.5,1.2,5.3,1.5C271.4,209.9,273.2,210,275.1,210z"/>
	</g>
	<g>
		<path class="st5" d="M255.2,194c1,2.6,2.8,4.8,4.8,6.6c2.1,1.8,4.4,3.3,6.8,4.6c2.4,1.4,4.9,2.6,7.2,4.1c2.3,1.5,4.5,3.3,6.2,5.5
			c-1.8-2.1-4-3.7-6.4-5.2c-2.3-1.4-4.8-2.7-7.2-4c-2.4-1.4-4.8-2.9-6.8-4.8c-1-0.9-1.9-2-2.7-3.1
			C256.3,196.6,255.7,195.3,255.2,194z"/>
	</g>
	<g>
		<path class="st6" d="M269.7,212.3c0.6,0,1.2,0.4,1.4,1.1c0.1,0.7-0.4,1.4-1.2,1.5c-0.8,0-1.4-0.6-1.4-1.3
			C268.5,212.8,269.1,212.3,269.7,212.3z M269.7,212.3c-0.3,0-0.6,0.2-0.8,0.4c-0.2,0.2-0.2,0.5-0.2,0.8c0.1,0.5,0.6,0.9,1.1,0.8
			c0.4,0,0.9-0.4,1-1C270.8,212.8,270.3,212.2,269.7,212.3z"/>
	</g>
	<g>
		<path class="st6" d="M280.4,212.4c0.4,0,0.7,0.3,0.8,0.6c0.1,0.4-0.1,0.8-0.3,1c-0.5,0.5-1.3,0.9-2.1,0.4c-0.4-0.2-0.6-0.6-0.6-1
			c-0.1-0.4,0.1-0.8,0.3-1.1c0.3-0.3,0.6-0.5,1-0.5C279.9,212,280.2,212.1,280.4,212.4z M280.4,212.4c-0.6-0.3-1.3-0.2-1.6,0.3
			c-0.3,0.5-0.2,1.1,0.2,1.4c0.4,0.3,1.1,0.1,1.5-0.3c0.2-0.2,0.4-0.5,0.4-0.7C281,212.8,280.8,212.4,280.4,212.4z"/>
	</g>
	<g>
		<path class="st7" d="M279.7,213.2c1.4,1.5,2.1,3.6,2.4,5.6c0.3,2,0.3,4.1,0.3,6.2c-0.1,2.1-0.2,4.1-0.4,6.1
			c-0.1,2-0.2,4.1-0.1,6.1c-0.3-2-0.3-4.1-0.3-6.2l0.2-6.1c0.1-2,0.1-4.1-0.2-6.1C281.5,216.9,281,214.9,279.7,213.2z"/>
	</g>
	<g>
		<path class="st7" d="M269.9,213.4c-0.9,1.6-1.5,3.3-1.8,5.1c-0.3,1.8-0.3,3.6-0.3,5.4c0,1.8,0.2,3.6,0.3,5.4
			c0.1,1.8,0.1,3.7-0.2,5.5c0.1-3.6-0.5-7.2-0.6-10.9c0-1.8,0-3.7,0.4-5.5C268.1,216.6,268.8,214.8,269.9,213.4z"/>
	</g>
	<g>
		<path class="st8" d="M217.2,313.6c-2.7,1-5.6,1.2-8.5,0.8c-2.8-0.5-5.6-1.6-7.8-3.4c2.4,1.5,5.1,2.5,7.9,2.9
			C211.6,314.4,214.5,314.3,217.2,313.6z"/>
	</g>
	<g>
		<path class="st8" d="M334.9,303.6c0.7-0.5,1.6-0.7,2.4-0.8c0.8-0.1,1.7-0.1,2.5-0.1c1.7,0,3.4,0.3,5,0c1.6-0.3,3.1-1.1,4.4-2
			c1.4-0.9,2.6-2.1,3.9-3.1c-1.1,1.2-2.3,2.4-3.7,3.5c-1.4,1-2.9,1.9-4.6,2.2c-1.7,0.3-3.4,0-5.1-0.1c-0.8-0.1-1.7-0.1-2.5-0.1
			C336.5,303.1,335.7,303.2,334.9,303.6z"/>
	</g>
	<g>
		<path class="st3" d="M321.7,382c-3.6,1.9-7.3,3.6-11.1,5.1c-3.8,1.5-7.6,2.8-11.6,3.9c-7.9,2.1-16,3.3-24.1,3.5
			c-8.1,0.1-16.3,0.1-24.4-0.9c-4-0.5-8.1-1.3-12-2.4c-3.9-1.1-7.7-2.5-11.4-4.2c7.5,3.2,15.4,5.3,23.5,6.3c8.1,1,16.2,0.9,24.3,0.7
			c8.1-0.2,16.2-1.2,24.1-3.3c3.9-1,7.8-2.3,11.6-3.8C314.4,385.4,318.1,383.8,321.7,382z"/>
	</g>
	<g>
		<g>
			<path class="st9" d="M290,518.6c-0.9-1-2.6-0.5-3.3,0.6s-0.7,2.6-0.4,3.9c0.2,1.3,0.6,2.7,0.4,4c-0.2,1.2-0.7,2.2-1.1,3.4
				s-0.6,2.4-0.1,3.5c0.8,1.5,2.7,1.9,3.8,3.1c1.5,1.6,1.2,4.2,1.8,6.3c0.9,2.7,3.4,4.6,6.1,5.2c2.7,0.6,5.5,0.1,8.1-0.7
				c1.7-0.5,3.3-1.2,4.6-2.3c1.3-1.2,2.3-2.9,2.2-4.7c-0.1-1.8-1.1-3.4-2.4-4.6c-1.3-1.2-2.7-2.1-4-3.3c-3.1-2.7-3.4-6.5-3.9-10.7
				c-0.3-2.5-0.4-5.8-1.9-7.8c-1.3-1.7-5.2-2-7.1-1.1C291.1,514.3,289.9,516.6,290,518.6z"/>
			<path class="st10" d="M290,518.6c-0.4-0.4-0.9-0.6-1.4-0.5c-0.5,0.1-1,0.3-1.4,0.7c-0.8,0.7-1,1.9-0.9,2.9c0,1.1,0.3,2.1,0.5,3.1
				c0.2,1,0.2,2.2-0.1,3.2c-0.3,1-0.8,2-1.1,3c-0.3,1-0.4,2.1,0.2,3c0.5,0.9,1.5,1.4,2.4,1.9c0.5,0.3,0.9,0.6,1.3,1
				c0.4,0.4,0.7,0.9,0.8,1.4c0.8,2.1,0.5,4.3,1.5,6.1c1,1.8,2.8,3.1,4.8,3.7c2,0.6,4.1,0.5,6.2,0.1c2-0.5,4.1-1.1,5.9-2.1
				c1.8-1,3.2-2.9,3.3-4.9c0.1-2.1-1.2-3.9-2.7-5.3c-1.6-1.4-3.5-2.4-4.8-4.2c-1.3-1.7-1.9-3.9-2.2-6c-0.3-2.1-0.5-4.2-0.7-6.3
				c-0.1-1-0.3-2.1-0.7-3.1c-0.4-1-0.8-2-1.7-2.5c-0.9-0.5-1.9-0.8-3-0.9c-1-0.1-2.1,0-3.1,0.4C291.1,514.3,290,516.5,290,518.6z
				 M290,518.6c-0.1-2.1,1-4.3,2.9-5.3c1-0.5,2.1-0.5,3.2-0.5c1.1,0.1,2.2,0.3,3.1,0.8c1,0.6,1.5,1.6,1.9,2.6c0.4,1,0.6,2.1,0.7,3.1
				c0.3,2.1,0.5,4.2,0.8,6.3c0.3,2.1,0.9,4.2,2.2,5.8c1.3,1.7,3.2,2.7,4.8,4.1c0.8,0.7,1.6,1.5,2.1,2.5c0.5,0.9,0.9,2,0.8,3.2
				c-0.1,2.3-1.6,4.2-3.5,5.3c-1.9,1.1-4,1.7-6.1,2.2c-2.1,0.4-4.3,0.5-6.4-0.1c-2.1-0.7-3.9-2-5-4c-1.1-2-0.8-4.2-1.5-6.2
				c-0.2-0.5-0.4-0.9-0.8-1.3c-0.3-0.4-0.8-0.7-1.2-1c-0.9-0.6-1.9-1-2.5-2c-0.6-1-0.5-2.2-0.2-3.2c0.3-1,0.8-2,1.1-3
				c0.7-2-0.3-4.1-0.3-6.3c0-1.1,0.2-2.2,1-3c0.4-0.4,0.9-0.6,1.4-0.6C289.1,518,289.7,518.2,290,518.6z"/>
		</g>
		<g>
			<path class="st11" d="M290.4,542.5c0,0,1.1,8.4,12,6.6c10.9-1.8,12.3-8.5,8.9-12C308.3,534,290.4,542.5,290.4,542.5z"/>
			<path class="st12" d="M290.4,542.5c0.5,2.3,1.9,4.4,3.9,5.5c2,1.2,4.5,1.4,6.8,1.2c2.3-0.3,4.6-0.8,6.7-1.8
				c2.1-1,4.1-2.6,4.8-4.8c0.3-1.1,0.3-2.3-0.1-3.4c-0.2-0.5-0.5-1-0.8-1.5c-0.2-0.2-0.4-0.5-0.6-0.6c-0.2-0.2-0.5-0.3-0.7-0.4
				c-1.1-0.3-2.3-0.2-3.4,0c-1.2,0.2-2.3,0.5-3.4,0.8c-2.3,0.6-4.5,1.4-6.7,2.3C294.7,540.6,292.6,541.5,290.4,542.5z M290.4,542.5
				c4.2-2,8.6-3.8,13.1-5.2c1.1-0.3,2.3-0.6,3.4-0.8c1.2-0.2,2.4-0.3,3.5,0c0.3,0.1,0.6,0.2,0.8,0.4c0.2,0.2,0.4,0.4,0.6,0.7
				c0.4,0.5,0.7,1,0.9,1.6c0.4,1.1,0.5,2.4,0.1,3.5c-0.4,1.1-1.1,2.2-1.9,3c-0.9,0.8-1.9,1.4-3,1.9c-2.1,1-4.5,1.5-6.8,1.8
				c-2.3,0.2-4.8,0-6.9-1.2C292.3,546.9,290.9,544.8,290.4,542.5z"/>
		</g>
		<g>
			<path class="st11" d="M303.8,530.6c-1.3,1.9-4.9,2.1-7.1,1.4s-3.8-2.6-4.7-4.8c-1-2.1-1.3-4.5-1.5-6.9c0,0-1.6-4.6,2.1-6.7
				c3.6-2.1,9.1-0.5,9.1,6.2C301.6,526.6,303.8,530.6,303.8,530.6z"/>
			<g>
				<path class="st10" d="M303.8,530.6c-0.5,0.7-1.4,1.2-2.2,1.5c-0.9,0.3-1.8,0.4-2.7,0.3c-0.9,0-1.8-0.2-2.6-0.6
					c-0.8-0.4-1.6-0.9-2.2-1.5c-1.3-1.3-2.2-2.9-2.7-4.6c-0.5-1.7-0.8-3.5-1-5.3l0,0c-0.4-1.3-0.5-2.7-0.1-4.1
					c0.2-0.7,0.5-1.3,1-1.8c0.5-0.5,1-0.9,1.7-1.2c1.2-0.6,2.7-0.8,4-0.5c1.3,0.3,2.6,1.1,3.4,2.2c0.8,1.1,1.2,2.5,1.3,3.8
					c0.1,1.4,0,2.7,0.2,4C302,525.5,302.6,528.1,303.8,530.6z M303.8,530.6c-1.2-2.4-1.9-5.1-2.1-7.8c-0.2-1.3-0.1-2.7-0.2-4
					c-0.1-1.3-0.5-2.6-1.3-3.7c-0.8-1.1-2-1.8-3.3-2.1c-1.3-0.2-2.7-0.1-3.9,0.5c-0.6,0.3-1.1,0.7-1.6,1.2c-0.4,0.5-0.8,1.1-0.9,1.7
					c-0.4,1.3-0.3,2.7,0.1,3.9l0,0l0,0c0.2,1.8,0.4,3.6,0.9,5.3c0.5,1.7,1.4,3.3,2.7,4.6c0.6,0.6,1.4,1.2,2.2,1.5
					c0.8,0.4,1.7,0.5,2.6,0.6c0.9,0,1.8,0,2.7-0.3C302.4,531.8,303.3,531.3,303.8,530.6z"/>
			</g>
		</g>
		<g>
			<path class="st9" d="M301.9,528c-0.5,0-1,0-1.4,0c-0.2,0-0.5-0.1-0.7-0.1c-0.2,0-0.5,0.1-0.7,0.2c-0.9,0.4-1.6,0.8-2.6,1.2l0,0
				c0.5-0.9,1.5-1.4,2.5-1.4c0.2,0,0.5,0,0.7-0.1c0.2,0,0.5-0.1,0.7-0.2C301,527.6,301.5,527.7,301.9,528L301.9,528z"/>
		</g>
		<g>
			<path class="st9" d="M300.7,525.5c-0.6,0-1.1,0-1.6,0c-0.3,0-0.5-0.1-0.8-0.1c-0.3,0-0.5,0.1-0.8,0.2c-1,0.5-1.8,0.9-2.8,1.4l0,0
				c0.6-1,1.7-1.6,2.8-1.7c0.3,0,0.6-0.1,0.8-0.1c0.3-0.1,0.5-0.2,0.8-0.2C299.6,525,300.2,525.1,300.7,525.5L300.7,525.5z"/>
		</g>
		<g>
			<path class="st9" d="M300,523.3c-0.6-0.1-1.1-0.1-1.7-0.2c-0.3-0.1-0.5-0.1-0.8-0.2c-0.3,0-0.6,0.1-0.8,0.1c-1.1,0.4-2,0.9-3,1.4
				l0,0c0.6-1,1.8-1.6,3-1.6c0.3,0,0.6,0,0.9,0c0.3,0,0.6-0.1,0.9-0.1C299,522.6,299.6,522.8,300,523.3L300,523.3z"/>
		</g>
		<g>
			<g>
				<path class="st10" d="M306.7,519.6c-0.4-1-1.1-1.8-2-2.3c-0.9-0.5-1.9-0.8-2.9-0.8c-1,0-2.1,0.2-3,0.7c-0.9,0.5-1.8,1.1-2.5,1.9
					l-0.1-0.2c1.2-0.1,2.3,0.4,3.3,0.9l3,1.6c0.5,0.2,1,0.4,1.5,0.6c0.5,0.2,1,0.3,1.6,0.3c0.5,0,1-0.4,1.1-0.9
					C306.9,520.7,306.8,520.1,306.7,519.6z M306.7,519.5c0.2,0.5,0.3,1.1,0.1,1.7c-0.1,0.6-0.6,1.1-1.2,1.2
					c-1.2,0.2-2.3-0.3-3.3-0.8c-1-0.5-2-1.1-3-1.6c-1-0.5-2-1-3.1-1l-0.3,0l0.2-0.2c0.8-0.7,1.6-1.4,2.5-1.9c0.9-0.5,2-0.9,3.1-0.9
					c1.1,0,2.2,0.3,3.1,1C305.7,517.6,306.4,518.5,306.7,519.5z"/>
			</g>
			<g>
				<path class="st10" d="M289.3,519.6c-0.9,0.9-1.1,2.3-0.9,3.4c0.1,0.6,0.4,1.2,0.8,1.4c0.5,0.3,1.1,0,1.5-0.5
					c0.8-0.9,1.6-1.9,2.5-2.8c0.9-0.9,1.9-1.7,3-2.3l0.1,0.5c-1.2-0.3-2.4-0.7-3.6-0.7c-0.6,0-1.2,0-1.8,0.2
					C290.3,518.9,289.7,519.2,289.3,519.6z M289.3,519.6c0.9-0.9,2.1-1.4,3.4-1.5c1.3,0,2.5,0.3,3.7,0.7l0.6,0.2l-0.5,0.3
					c-1.1,0.6-2.1,1.3-3.1,2.1c-1,0.8-1.8,1.7-2.5,2.8c-0.2,0.2-0.4,0.5-0.8,0.6c-0.3,0.2-0.7,0.2-1.1,0.1c-0.7-0.3-1-1-1.1-1.7
					C287.9,521.8,288.4,520.5,289.3,519.6z"/>
			</g>
		</g>
		<g>
			<path class="st11" d="M285.6,530.4c1.2,0.3,3-0.1,3.8-1.1c0.8-1,1-2.6,0.4-3.8c-0.5-1.2-1.8-2-3.1-2c0,0,0.7,1.9,0.1,3.8
				C286.3,529.2,285.6,530.4,285.6,530.4z"/>
			<path class="st10" d="M285.6,530.4c1,0.2,2,0,2.9-0.5c0.9-0.5,1.4-1.4,1.5-2.4c0.1-1-0.1-2-0.8-2.7c-0.6-0.7-1.6-1.2-2.5-1.2
				l0.1-0.1c0.4,1.2,0.5,2.4,0.2,3.6C286.6,528.3,286.2,529.4,285.6,530.4z M285.6,530.4c0.3-0.5,0.5-1.1,0.7-1.7
				c0.2-0.6,0.4-1.1,0.5-1.7c0.3-1.2,0.1-2.4-0.2-3.5l0-0.1l0.1,0c1,0,2.1,0.5,2.7,1.3c0.7,0.8,0.9,1.9,0.8,2.9
				c-0.1,1-0.7,2-1.6,2.5C287.7,530.6,286.6,530.7,285.6,530.4z"/>
		</g>
		<g>
			<path class="st11" d="M290.4,542.5c4.4,1.9,9.6,2.2,14.2,1.3c3.2-0.7,9.3-2.6,7.6-5.7c-0.5-0.9-1.6-2-2.6-2.9
				c-2.5-2.3-6.1-3.1-9.2-1.9c-1,0.4-1.9,0.9-2.7,1.5C295,536.7,292.5,539.7,290.4,542.5"/>
			<path class="st12" d="M290.4,542.5c2,0.9,4.2,1.4,6.4,1.6c2.2,0.2,4.4,0.2,6.6-0.2c2.2-0.4,4.3-0.9,6.3-1.9c1-0.5,2-1.1,2.5-2
				c0.3-0.5,0.3-1,0.2-1.5c-0.2-0.5-0.5-0.9-0.8-1.4c-0.7-0.8-1.5-1.6-2.3-2.3c-0.9-0.7-1.8-1.2-2.8-1.6c-2.1-0.7-4.4-0.7-6.4,0.2
				c-2,0.9-3.7,2.3-5.3,3.9C293.1,539,291.8,540.7,290.4,542.5c1.3-1.8,2.6-3.5,4.2-5.1c1.5-1.6,3.2-3.1,5.3-4c2-0.9,4.4-1,6.5-0.3
				c1.1,0.4,2,0.9,2.9,1.6c0.9,0.7,1.7,1.5,2.4,2.3c0.3,0.4,0.7,0.9,0.9,1.4c0.2,0.6,0.1,1.2-0.2,1.7c-0.6,1-1.6,1.6-2.6,2.1
				c-2,0.9-4.2,1.5-6.4,1.9C299.1,544.7,294.5,544.3,290.4,542.5z"/>
		</g>
	</g>
	<g>
		<g>
			<path class="st9" d="M261.6,518.6c0.9-1,2.6-0.5,3.3,0.6s0.7,2.6,0.4,3.9c-0.2,1.3-0.6,2.7-0.4,4c0.2,1.2,0.7,2.2,1.1,3.4
				s0.6,2.4,0.1,3.5c-0.8,1.5-2.7,1.9-3.8,3.1c-1.5,1.6-1.2,4.2-1.8,6.3c-0.9,2.7-3.4,4.6-6.1,5.2c-2.7,0.6-5.5,0.1-8.1-0.7
				c-1.7-0.5-3.3-1.2-4.6-2.3c-1.3-1.2-2.3-2.9-2.2-4.7c0.1-1.8,1.1-3.4,2.4-4.6c1.3-1.2,2.7-2.1,4-3.3c3.1-2.7,3.4-6.5,3.9-10.7
				c0.3-2.5,0.4-5.8,1.9-7.8c1.3-1.7,5.2-2,7.1-1.1C260.6,514.3,261.7,516.6,261.6,518.6z"/>
			<path class="st10" d="M261.6,518.6c0.3-0.4,0.9-0.6,1.4-0.6c0.5,0.1,1,0.3,1.4,0.6c0.8,0.7,1,1.9,1,3c0,2.1-1,4.2-0.3,6.3
				c0.3,1,0.8,1.9,1.1,3c0.3,1,0.4,2.2-0.2,3.2c-0.6,1-1.6,1.5-2.5,2c-0.4,0.3-0.9,0.6-1.2,1c-0.3,0.4-0.6,0.8-0.8,1.3
				c-0.7,1.9-0.4,4.2-1.5,6.2c-1,1.9-2.9,3.3-5,4c-2.1,0.7-4.3,0.6-6.4,0.1c-2.1-0.5-4.2-1-6.1-2.2c-1.8-1.1-3.4-3.1-3.5-5.3
				c-0.1-1.1,0.3-2.2,0.8-3.2c0.5-1,1.3-1.8,2.1-2.5c1.6-1.4,3.5-2.5,4.8-4.1c1.3-1.7,1.8-3.7,2.2-5.8c0.3-2.1,0.5-4.2,0.8-6.3
				c0.1-1.1,0.3-2.1,0.7-3.1c0.4-1,0.9-2.1,1.9-2.6c0.9-0.6,2-0.8,3.1-0.8c1.1,0,2.2,0.1,3.2,0.5
				C260.6,514.3,261.7,516.5,261.6,518.6z M261.6,518.6c0.1-2.1-1.1-4.3-3-5.2c-1-0.4-2-0.5-3.1-0.4c-1,0.1-2.1,0.3-3,0.9
				c-0.9,0.5-1.4,1.5-1.7,2.5c-0.3,1-0.5,2-0.7,3.1c-0.3,2.1-0.4,4.2-0.7,6.3c-0.3,2.1-0.9,4.3-2.2,6c-1.3,1.8-3.3,2.8-4.8,4.2
				c-1.6,1.3-2.9,3.2-2.7,5.3c0.1,2.1,1.5,3.9,3.3,4.9c1.8,1.1,3.8,1.7,5.9,2.1c2,0.4,4.2,0.5,6.2-0.1c2-0.6,3.8-1.9,4.8-3.7
				c1-1.8,0.8-4.1,1.5-6.1c0.2-0.5,0.5-1,0.8-1.4c0.4-0.4,0.8-0.7,1.3-1c0.9-0.6,1.9-1,2.4-1.9c0.5-0.9,0.4-2,0.2-3
				c-0.3-1-0.8-2-1.1-3c-0.3-1-0.3-2.2-0.1-3.2c0.2-1.1,0.4-2.1,0.5-3.1c0-1-0.2-2.2-0.9-2.9c-0.4-0.4-0.9-0.6-1.4-0.7
				C262.5,518,261.9,518.2,261.6,518.6z"/>
		</g>
		<g>
			<path class="st11" d="M261.2,542.5c0,0-1.1,8.4-12,6.6c-10.9-1.8-12.3-8.5-8.9-12C243.3,534,261.2,542.5,261.2,542.5z"/>
			<path class="st12" d="M261.2,542.5c-0.4,2.3-1.8,4.4-3.9,5.6c-2.1,1.2-4.5,1.4-6.9,1.2c-2.3-0.2-4.7-0.8-6.8-1.8
				c-1.1-0.5-2.1-1.1-3-1.9c-0.9-0.8-1.6-1.8-1.9-3c-0.4-1.1-0.3-2.4,0.1-3.5c0.2-0.6,0.5-1.1,0.9-1.6c0.2-0.2,0.4-0.5,0.6-0.7
				c0.2-0.2,0.5-0.3,0.8-0.4c1.2-0.3,2.4-0.2,3.5,0c1.2,0.2,2.3,0.5,3.4,0.8C252.6,538.7,256.9,540.5,261.2,542.5z M261.2,542.5
				c-2.1-1-4.3-1.9-6.5-2.7c-2.2-0.9-4.4-1.6-6.7-2.3c-1.1-0.3-2.3-0.6-3.4-0.8c-1.1-0.2-2.3-0.3-3.4,0c-0.3,0.1-0.5,0.2-0.7,0.4
				c-0.2,0.2-0.4,0.4-0.6,0.6c-0.4,0.5-0.6,1-0.8,1.5c-0.4,1.1-0.4,2.3-0.1,3.4c0.7,2.2,2.7,3.8,4.8,4.8c2.1,1,4.4,1.5,6.7,1.8
				c2.3,0.2,4.7,0,6.8-1.2C259.3,546.9,260.7,544.8,261.2,542.5z"/>
		</g>
		<g>
			<path class="st11" d="M247.8,530.6c1.3,1.9,4.9,2.1,7.1,1.4c2.1-0.7,3.8-2.6,4.7-4.8c1-2.1,1.3-4.5,1.5-6.9c0,0,1.6-4.6-2.1-6.7
				c-3.6-2.1-9.1-0.5-9.1,6.2C250.1,526.6,247.8,530.6,247.8,530.6z"/>
			<g>
				<path class="st10" d="M247.8,530.6c0.5,0.7,1.4,1.2,2.2,1.4c0.9,0.2,1.8,0.3,2.7,0.3c0.9,0,1.8-0.2,2.6-0.6
					c0.8-0.4,1.6-0.9,2.2-1.5c1.3-1.3,2.1-2.9,2.7-4.6c0.5-1.7,0.8-3.5,0.9-5.3l0,0l0,0c0.4-1.3,0.5-2.7,0.1-3.9
					c-0.2-0.6-0.5-1.2-0.9-1.7c-0.5-0.5-1-0.9-1.6-1.2c-1.2-0.6-2.6-0.8-3.9-0.5c-1.3,0.3-2.5,1-3.3,2.1c-0.8,1.1-1.2,2.4-1.3,3.7
					c-0.1,1.3-0.1,2.7-0.2,4C249.7,525.5,249.1,528.2,247.8,530.6z M247.8,530.6c1.2-2.4,1.7-5.1,2-7.8c0.2-1.3,0.1-2.7,0.2-4
					c0.1-1.3,0.5-2.7,1.3-3.8c0.8-1.1,2-1.9,3.4-2.2c1.3-0.3,2.8-0.1,4,0.5c0.6,0.3,1.2,0.7,1.7,1.2c0.5,0.5,0.8,1.1,1,1.8
					c0.4,1.3,0.3,2.7-0.1,4.1l0,0c-0.2,1.8-0.4,3.6-1,5.3c-0.5,1.7-1.4,3.4-2.7,4.6c-0.6,0.6-1.4,1.2-2.2,1.5
					c-0.8,0.4-1.7,0.5-2.6,0.6c-0.9,0-1.8-0.1-2.7-0.3C249.2,531.8,248.4,531.3,247.8,530.6z"/>
			</g>
		</g>
		<g>
			<path class="st9" d="M249.7,528c0.4-0.3,0.9-0.4,1.4-0.4c0.3,0,0.5,0.1,0.7,0.2c0.2,0,0.5,0.1,0.7,0.1c1,0,2,0.5,2.5,1.4l0,0
				c-0.9-0.4-1.7-0.8-2.6-1.2c-0.2-0.1-0.5-0.2-0.7-0.2c-0.2,0-0.5,0.1-0.7,0.1C250.7,528.1,250.2,528.1,249.7,528L249.7,528z"/>
		</g>
		<g>
			<path class="st9" d="M250.9,525.4c0.5-0.3,1.1-0.4,1.6-0.4c0.3,0,0.5,0.1,0.8,0.2c0.3,0.1,0.5,0.1,0.8,0.1
				c1.1,0.1,2.2,0.7,2.8,1.7l0,0c-1-0.5-1.9-1-2.8-1.4c-0.2-0.1-0.5-0.2-0.8-0.2c-0.3,0-0.5,0-0.8,0.1
				C252,525.5,251.5,525.5,250.9,525.4L250.9,525.4z"/>
		</g>
		<g>
			<path class="st9" d="M251.6,523.2c0.5-0.4,1-0.6,1.6-0.6c0.3,0,0.6,0.1,0.9,0.1c0.3,0,0.6,0,0.9,0c1.2,0,2.4,0.6,3,1.6l0,0
				c-1-0.5-1.9-1-3-1.4c-0.3-0.1-0.5-0.1-0.8-0.1c-0.3,0-0.6,0.1-0.8,0.2C252.7,523.1,252.2,523.2,251.6,523.2L251.6,523.2z"/>
		</g>
		<g>
			<g>
				<path class="st10" d="M244.9,519.5c0.3-1,1-1.9,1.9-2.5c0.9-0.6,2-1,3.1-1c1.1,0,2.1,0.4,3.1,0.9c0.9,0.5,1.8,1.2,2.5,1.9
					l0.2,0.2l-0.3,0c-1.1,0-2.1,0.5-3.1,1c-1,0.5-1.9,1.1-3,1.6c-1,0.5-2.1,0.9-3.3,0.8c-0.6-0.1-1.1-0.6-1.2-1.2
					C244.7,520.6,244.7,520.1,244.9,519.5z M245,519.6c-0.2,0.5-0.2,1.1-0.1,1.6c0.2,0.5,0.6,0.9,1.1,0.9c0.5,0,1-0.1,1.6-0.3
					c0.5-0.2,1-0.4,1.5-0.6l3-1.6c1-0.5,2.1-0.9,3.3-0.9l-0.1,0.2c-0.7-0.8-1.5-1.4-2.5-1.9c-0.9-0.5-2-0.7-3-0.7
					c-1,0-2,0.3-2.9,0.8C246.1,517.8,245.3,518.6,245,519.6z"/>
			</g>
			<g>
				<path class="st10" d="M262.4,519.6c0.8,0.9,1.4,2.2,1.3,3.5c-0.1,0.6-0.4,1.4-1.1,1.7c-0.3,0.2-0.7,0.1-1.1-0.1
					c-0.3-0.2-0.5-0.4-0.8-0.6c-0.7-1-1.5-2-2.5-2.8c-1-0.8-2-1.5-3.1-2.1l-0.5-0.3l0.6-0.2c1.2-0.4,2.4-0.7,3.7-0.7
					C260.2,518.2,261.5,518.7,262.4,519.6z M262.3,519.6c-0.4-0.4-1-0.8-1.6-0.9c-0.6-0.2-1.2-0.2-1.8-0.2c-1.2,0.1-2.4,0.4-3.6,0.7
					l0.1-0.5c1.1,0.6,2.1,1.4,3,2.3c0.9,0.9,1.7,1.9,2.5,2.8c0.4,0.4,1,0.7,1.5,0.5c0.5-0.2,0.7-0.8,0.8-1.4
					C263.4,521.9,263.2,520.5,262.3,519.6z"/>
			</g>
		</g>
		<g>
			<path class="st11" d="M266,530.4c-1.2,0.3-3-0.1-3.8-1.1c-0.8-1-1-2.6-0.4-3.8c0.5-1.2,1.8-2,3.1-2c0,0-0.7,1.9-0.1,3.8
				C265.4,529.2,266,530.4,266,530.4z"/>
			<path class="st10" d="M266,530.4c-1,0.2-2,0.1-2.9-0.4c-0.9-0.5-1.5-1.5-1.6-2.5c-0.1-1,0.1-2.1,0.8-2.9c0.7-0.8,1.7-1.3,2.7-1.3
				l0.1,0l0,0.1c-0.4,1.1-0.5,2.4-0.2,3.5c0.1,0.6,0.3,1.2,0.5,1.7C265.5,529.3,265.8,529.9,266,530.4z M266,530.4
				c-0.6-1.1-1-2.2-1.3-3.4c-0.3-1.2-0.2-2.4,0.2-3.6l0.1,0.1c-1,0-1.9,0.5-2.5,1.2c-0.6,0.7-0.9,1.8-0.8,2.7c0.1,1,0.6,1.9,1.5,2.4
				C264,530.4,265,530.6,266,530.4z"/>
		</g>
		<g>
			<path class="st11" d="M261.2,542.5c-4.4,1.9-9.6,2.2-14.2,1.3c-3.2-0.7-9.3-2.6-7.6-5.7c0.5-0.9,1.6-2,2.6-2.9
				c2.5-2.3,6.1-3.1,9.2-1.9c1,0.4,1.9,0.9,2.7,1.5C256.7,536.7,259.2,539.7,261.2,542.5"/>
			<path class="st12" d="M261.2,542.5c-4,1.8-8.6,2.2-13,1.6c-2.2-0.3-4.3-0.9-6.4-1.9c-1-0.5-2-1.1-2.6-2.1
				c-0.3-0.5-0.4-1.1-0.2-1.7c0.2-0.6,0.5-1,0.9-1.4c0.7-0.8,1.5-1.6,2.4-2.3c0.9-0.7,1.9-1.2,2.9-1.6c2.1-0.7,4.5-0.7,6.5,0.3
				c2,0.9,3.7,2.4,5.3,4C258.6,538.9,259.9,540.7,261.2,542.5c-1.3-1.8-2.7-3.5-4.3-5.1c-1.6-1.5-3.3-3-5.3-3.9
				c-2-0.9-4.3-1-6.4-0.2c-1,0.4-2,0.9-2.8,1.6c-0.8,0.7-1.6,1.5-2.3,2.3c-0.3,0.4-0.7,0.9-0.8,1.4c-0.2,0.5-0.1,1,0.2,1.5
				c0.6,0.9,1.5,1.5,2.5,2c2,0.9,4.1,1.5,6.3,1.9c2.2,0.3,4.4,0.4,6.6,0.2C257,543.9,259.2,543.3,261.2,542.5z"/>
		</g>
	</g>
	<g>
		<path class="st2" d="M246.8,331.5c-0.2,1.4-0.3,2.9,0.6,3.9c0.6,0.6,1.4,0.7,2.2,0.9c18.1,3.8,37.1,3.5,55.1-0.7
			c0.2-9.6-0.6-19.1-2.5-28.5c-16.2-0.1-32.3-0.2-48.5-0.3C247.4,306.7,247.6,326.5,246.8,331.5z"/>
		<g>
			<path class="st4" d="M246.8,331.5c-0.1,0.6-0.2,1.3-0.1,1.9c0,0.6,0.2,1.3,0.6,1.8c0.4,0.5,1,0.8,1.7,0.9
				c0.6,0.2,1.3,0.3,1.9,0.4c1.3,0.2,2.5,0.5,3.8,0.7c1.3,0.2,2.6,0.4,3.8,0.6c5.1,0.7,10.3,1.1,15.4,1.1
				c10.3,0.1,20.7-1.1,30.7-3.5l-0.1,0.2c0.2-9.5-0.7-19.1-2.6-28.5l0.2,0.2l-37.7-0.4l-9.4-0.1c-0.8,0-1.6-0.1-2.3,0.2
				c-0.7,0.3-1.3,0.8-1.7,1.5c-0.9,1.3-1.4,2.8-1.8,4.3C247.5,318.9,247.5,325.2,246.8,331.5z M246.8,331.5
				c0.7-6.2,0.6-12.6,2.2-18.7c0.4-1.5,0.9-3,1.8-4.4c0.5-0.6,1-1.2,1.8-1.5c0.8-0.3,1.6-0.2,2.4-0.2l9.4,0l37.7,0.1l0.2,0l0,0.2
				c2,9.4,2.7,19,2.5,28.6l0,0.1l-0.1,0c-10.1,2.3-20.4,3.4-30.8,3.3c-5.2-0.1-10.3-0.5-15.5-1.2c-1.3-0.2-2.6-0.4-3.8-0.6
				c-1.3-0.2-2.5-0.5-3.8-0.7c-0.6-0.1-1.3-0.2-1.9-0.4c-0.6-0.2-1.3-0.4-1.7-0.9c-0.4-0.5-0.6-1.2-0.6-1.8
				C246.6,332.7,246.7,332.1,246.8,331.5z"/>
		</g>
	</g>
</g>
</svg>
