<?xml version="1.0" encoding="utf-8"?>
<!-- Generator: Adobe Illustrator 24.2.3, SVG Export Plug-In . SVG Version: 6.00 Build 0)  -->
<svg version="1.1" id="tenue_x5F_feminine_x5F_6" xmlns="http://www.w3.org/2000/svg" xmlns:xlink="http://www.w3.org/1999/xlink"
	 x="0px" y="0px" viewBox="0 0 553 574" style="enable-background:new 0 0 553 574;" xml:space="preserve">
<style type="text/css">
	.st0{fill:none;}
	.st1{fill:#F8E9DF;}
	.st2{fill:#C8B8AE;}
	.st3{fill:#F05C4A;}
	.st4{fill:#BD4940;}
	.st5{fill:#9B3532;}
	.st6{fill:#BD483E;}
	.st7{fill:#E77A78;}
	.st8{fill:#F0C16F;}
	.st9{fill:#DF5C42;}
	.st10{fill:#9D9998;}
	.st11{fill:#C6BCB0;}
	.st12{fill:#ED4142;}
	.st13{fill:#EA3230;}
	.st14{fill:#FEE3CF;}
	.st15{fill:#F2D4C1;}
</style>
<g id="cadre_8_">
	<rect x="0" class="st0" width="553" height="574"/>
</g>
<g id="tenue_x5F_feminine_x5F_6_1_">
	<g>
		<path class="st1" d="M314.1,249.8c0.3,1.8,0.3,3.3-0.1,5.2c-0.3,2.1-0.9,4.3-0.9,6.4c-0.2,6.6-1.5,13.8,1.9,19.5
			c-11.4,7.1-24.2,12.5-37.6,13.3c-13.4,0.9-29-3.9-38.7-13.2c1.8-10.1,2.4-18.9,0.2-28.9c-2.8-3.6-6.4-7-8.2-9
			c-8.6-9.4-19.2-14.3-10-26.5c5.4-7.1,12.9-13.3,26.2-12.3c3.4,0.3,6.8,0.2,9.9,0.5c0.2,6.1,4.9,13.1,10.2,16.2
			c1.2,0.7,2.5,1.4,3.9,1.7c1.5,0.4,3.1,0.4,4.6,0.3c5.2-0.3,10.4-1.6,14.7-4.6c2.2-1.5,4.1-3.5,5.5-5.7c0.7-1.2,1.3-2.4,1.8-3.8
			c0.2-0.7,0.4-1.5,0.5-2.2c0-0.2,0-0.8,0.2-1c0.1-0.2,2.2-0.8,4.8-1.1c5.2-0.6,9.1-0.4,14.5,0.5c9,1.6,14.2,8.2,17.7,16.2
			C340,232.8,323.6,238.4,314.1,249.8z"/>
		<path class="st2" d="M314.1,249.8c0.2,1.3,0.2,2.6,0.1,3.9c-0.1,1.3-0.4,2.6-0.6,3.9c-0.5,2.6-0.4,5.2-0.6,7.9
			c-0.1,2.6-0.3,5.3-0.1,7.9c0.2,2.6,0.8,5.2,2.2,7.5c0,0,0,0.1,0,0.1c-5.8,3.6-11.9,6.8-18.4,9.2c-6.4,2.4-13.2,3.9-20.1,4.3
			c-6.9,0.3-13.8-0.7-20.3-2.9c-6.5-2.2-12.7-5.6-17.7-10.3c0,0-0.1-0.1-0.1-0.2c0.8-4.8,1.5-9.6,1.6-14.4c0.1-4.8-0.4-9.7-1.4-14.4
			l0,0.1c-2.2-2.8-4.7-5.3-7.1-7.8c-2.4-2.6-4.9-5-7.5-7.5c-1.3-1.2-2.6-2.5-3.7-3.8c-1.2-1.4-2.2-2.8-2.9-4.5
			c-0.7-1.7-0.8-3.6-0.4-5.3c0.4-1.8,1.2-3.4,2.1-4.9c2-3,4.3-5.7,7-8c1.4-1.1,2.8-2.2,4.4-3c1.6-0.8,3.2-1.5,4.9-2
			c3.4-1,7-1.3,10.6-1.1c3.5,0.3,7.1,0.2,10.6,0.5c0.1,0,0.2,0.1,0.2,0.2c0.1,2.9,1.2,5.7,2.7,8.3c1.5,2.5,3.4,4.8,5.7,6.6
			c2.3,1.8,5,3.2,8,3.2c2.9,0,5.9-0.3,8.7-1.1c2.8-0.8,5.6-1.9,8-3.6c2.4-1.7,4.4-3.9,5.9-6.5c0.7-1.3,1.3-2.7,1.6-4.1
			c0.1-0.4,0.2-0.7,0.2-1.1c0-0.2,0-0.4,0-0.6c0-0.1,0-0.2,0.1-0.3c0-0.1,0.1-0.1,0.1-0.2c0.1,0,0.1-0.1,0.1-0.1
			c0.7-0.3,1.4-0.4,2.2-0.6c2.9-0.6,5.9-0.8,8.9-0.8c3,0.1,5.9,0.4,8.8,1c2.9,0.6,5.7,1.8,8.1,3.6c1.2,0.9,2.3,1.9,3.3,3
			c1,1.1,1.9,2.3,2.7,3.6c0.8,1.3,1.5,2.5,2.2,3.9c0.6,1.3,1.3,2.7,1.7,4.1c0.3,1.5,0.3,3-0.1,4.4c-0.4,1.4-1.1,2.8-2,3.9
			c-1.8,2.4-4.1,4.3-6.3,6.2C322.7,241.7,317.9,245.3,314.1,249.8z M314.1,249.8c3.8-4.6,8.6-8.1,13.1-11.9c2.3-1.9,4.5-3.8,6.3-6.2
			c0.9-1.2,1.6-2.5,2-3.9c0.4-1.4,0.4-2.9,0.1-4.3c-0.3-1.4-1-2.7-1.7-4.1c-0.6-1.3-1.4-2.6-2.2-3.8c-0.8-1.2-1.7-2.4-2.7-3.5
			c-1-1.1-2.1-2.1-3.2-3c-2.4-1.8-5.1-3-8-3.6c-2.9-0.6-5.8-0.9-8.8-1c-2.9,0-5.9,0.2-8.8,0.8c-0.7,0.2-1.4,0.3-2.1,0.6l-0.1,0
			c0,0,0,0,0,0c0,0.1,0,0.1-0.1,0.2c0,0.2,0,0.3,0,0.5c-0.1,0.4-0.1,0.7-0.2,1.1c-0.4,1.5-0.9,2.9-1.6,4.2c-1.4,2.6-3.5,4.9-5.9,6.6
			c-2.4,1.7-5.2,2.9-8.1,3.7c-2.9,0.7-5.8,1.1-8.8,1.1c-1.5,0-3-0.3-4.4-1c-1.4-0.6-2.6-1.4-3.8-2.3c-2.3-1.8-4.3-4.1-5.8-6.7
			c-1.5-2.6-2.6-5.4-2.7-8.5l0.2,0.2c-3.5-0.3-7.1-0.2-10.6-0.5c-3.5-0.2-7.1,0.1-10.4,1.1c-1.7,0.5-3.3,1.2-4.8,2
			c-1.5,0.9-3,1.9-4.3,3c-2.7,2.3-5,5-6.9,7.9c-0.9,1.5-1.7,3.1-2.1,4.8c-0.4,1.7-0.2,3.5,0.4,5.1c0.6,1.6,1.6,3.1,2.8,4.4
			c1.1,1.3,2.4,2.6,3.7,3.8c2.6,2.4,5.1,4.9,7.5,7.5c2.5,2.5,5,5.1,7.1,7.9c0,0,0,0.1,0,0.1c1.1,4.8,1.5,9.6,1.4,14.5
			c-0.1,4.9-0.8,9.7-1.6,14.5l-0.1-0.2c4.9,4.7,11.1,8.1,17.5,10.3c6.5,2.2,13.4,3.3,20.2,2.9c6.8-0.3,13.6-1.9,20-4.2
			c6.4-2.3,12.6-5.5,18.4-9.1l0,0.1c-1.3-2.3-2-4.9-2.1-7.6c-0.2-2.6,0-5.3,0.1-7.9c0.2-2.6,0.1-5.3,0.7-7.9
			c0.2-1.3,0.5-2.6,0.6-3.9C314.3,252.4,314.3,251.1,314.1,249.8z"/>
	</g>
	<g>
		<g>
			<path class="st3" d="M234.5,290.8c-6.5,16.5-6.3,38.6-6.1,56.4c0.2,21.6,14,55.6,11.9,86.9c-2.5,38,6.1,72.9,7.3,77.3
				c4.8,3.5,13.8,1.6,19.7,0c1.8-31.9,6.4-54.6,6.5-96.7c0-6,0.7-43.2,2.7-51.3c0.1-0.5,0.8-0.4,0.9,0.1c0.3,12.3,0,44.3,1.1,63.5
				c0.3,6,1.8,23.6,2.2,29.6c0.5,6.9,2.8,16.9,3.7,23.7c2,15.5,0,20.6,2.5,36.3c2.1,1.3,18.6,2.2,20-0.9c0.7-35,5.1-51.4,3.9-86.3
				c-0.3-10.1,8.1-46.1,10.6-55.8c2.5-9.9,4.9-27.4,4-42.2c-0.8-14.8-1.6-29.8-6.8-42.5c-1.4-3.3-0.1-7.3,1.2-10.7
				c-3.1-0.8-6.4-0.4-9.2,1.1c-1.1,0.6-2.2,1.4-3.5,1.6c-1.2,0.2-2.4-0.2-3.6,0c-1.2,0.2-2.4,1.4-1.9,2.5c-0.7,0.3-1.6,0.2-2.3-0.1
				c0.1,0.9-0.4,1.9-1.2,2.5c-2.7-3.5-8-3.6-12.1-1.9c-4.1,1.6-7.5,4.6-11.5,6.3c-0.9,0.4-2,0.7-2.7,0.1c-1.4-1.2,0.6-3.4,0.3-5.2
				c-0.9-1.7-3.6,1.1-5.3,0.2c-0.7-0.4-1-1.3-1.7-1.5c-1.2-0.4-2.4,1.4-3.6,0.8c-0.7-0.3-0.9-1.2-1.6-1.4c-0.7-0.2-1.4,0.4-2.1,0.8
				c-3.2,1.4-5.6-4.8-9-4.1c-1.2,0.3-2.7,1.1-3.2,0.1c-0.2-0.3-0.1-0.7-0.1-1.1c-0.2-2-3.1-2.1-4.9-1.3c-1.8,0.8-4.1,1.8-5.5,0.5
				C236.6,281.8,236.3,286.4,234.5,290.8z"/>
			<path class="st4" d="M234.5,290.8c-3.4,8.7-4.8,18-5.5,27.2c-0.7,9.3-0.6,18.6-0.5,27.8c0,4.6,0.5,9.3,1.3,13.9
				c0.7,4.6,1.7,9.1,2.6,13.7c2,9.1,4,18.1,5.6,27.3c1.6,9.1,2.7,18.4,2.6,27.7c-0.1,4.6-0.5,9.3-0.6,13.9c0,2.3-0.1,4.6-0.1,7
				c0,2.3,0,4.6,0.1,7c0.3,9.3,1.2,18.5,2.4,27.7c0.6,4.6,1.4,9.2,2.2,13.7c0.9,4.6,1.8,9.1,3,13.6l0-0.1c1.4,1,3,1.5,4.7,1.7
				c1.7,0.2,3.4,0.2,5,0.1c3.4-0.3,6.7-1,9.9-1.9l-0.1,0.1c0.7-12.6,2-25.2,3.2-37.8c1.2-12.6,2.3-25.2,2.8-37.8
				c0.5-12.6,0.3-25.3,0.7-37.9c0.2-6.3,0.4-12.6,0.8-18.9c0.2-3.2,0.4-6.3,0.7-9.5c0.2-1.6,0.3-3.1,0.6-4.7
				c0.1-0.4,0.1-0.8,0.2-1.2l0.1-0.3c0-0.1,0.1-0.3,0.2-0.4c0.2-0.2,0.6-0.2,0.8,0c0.1,0.1,0.2,0.2,0.2,0.4c0,0.2,0,0.2,0,0.3l0,0.6
				l0,1.2c0.2,12.6,0.2,25.3,0.4,37.9c0.1,6.3,0.2,12.6,0.5,18.9c0.2,6.3,0.8,12.6,1.3,18.9l0.7,9.4c0.3,3.1,0.4,6.3,0.8,9.4
				c0.8,6.3,2.2,12.4,3.1,18.7c2.1,12.5,0.4,25.3,2.7,37.8l-0.1-0.1c0.7,0.4,1.6,0.5,2.4,0.6c0.8,0.1,1.7,0.2,2.5,0.3
				c1.7,0.2,3.4,0.2,5.1,0.2c1.7,0,3.4-0.1,5.1-0.3c0.8-0.1,1.7-0.3,2.5-0.5c0.8-0.2,1.7-0.6,2-1.2l0,0.1c0.2-10,0.8-20,1.6-30
				c0.8-10,1.7-19.9,2.2-29.9c0.3-5,0.3-10,0.4-15c0-2.5,0-5-0.1-7.5c0-2.5-0.2-5,0-7.5c0.5-5,1.3-9.9,2.2-14.9
				c0.9-4.9,1.9-9.8,3-14.7c1.1-4.9,2.2-9.8,3.3-14.6c1.1-4.9,2.5-9.7,3.4-14.6c1.8-9.8,2.8-19.8,2.8-29.8c0-5-0.4-10-0.7-15
				c-0.3-5-0.8-10-1.5-14.9c-0.7-4.9-1.7-9.9-3.3-14.6c-0.4-1.2-0.8-2.4-1.3-3.5c-0.5-1.2-0.7-2.4-0.7-3.7c0.1-2.5,0.9-4.9,1.8-7.3
				l0,0.1c-1.6-0.4-3.4-0.5-5.1-0.2c-1.7,0.2-3.3,0.8-4.8,1.7c-0.7,0.4-1.5,0.8-2.3,1.1c-0.8,0.2-1.7,0.2-2.6,0.1
				c-0.8,0-1.7-0.1-2.5,0.4c-0.7,0.4-1.3,1.2-1,2.1l0,0.1l-0.1,0c-0.7,0.3-1.6,0.2-2.3-0.2l0.1,0c0.1,1-0.4,1.9-1.2,2.5l0,0l0,0
				c-0.9-1.1-2.1-2-3.5-2.4c-1.4-0.5-2.8-0.6-4.3-0.5c-1.4,0.1-2.9,0.4-4.2,0.9c-1.3,0.5-2.6,1.2-3.9,1.9c-2.5,1.5-4.9,3.1-7.5,4.3
				c-0.6,0.3-1.4,0.6-2.1,0.5c-0.7,0-1.4-0.6-1.4-1.4c0-1.5,1-2.7,0.8-4.2l0,0c-0.2-0.4-0.6-0.6-1.1-0.5c-0.4,0.1-0.9,0.2-1.3,0.4
				c-0.8,0.3-1.7,0.7-2.6,0.5c-0.9-0.3-1.2-1.4-2.1-1.6c-0.4-0.1-0.9,0.1-1.3,0.3c-0.4,0.2-0.8,0.4-1.2,0.6
				c-0.4,0.2-0.9,0.1-1.3-0.2c-0.4-0.3-0.6-0.7-0.9-1c-0.3-0.3-0.8-0.4-1.2-0.2c-0.4,0.2-0.8,0.4-1.2,0.6c-0.4,0.2-0.9,0.3-1.3,0.2
				c-0.4,0-0.9-0.2-1.3-0.4c-0.8-0.4-1.4-1.1-2.1-1.7c-0.7-0.6-1.3-1.2-2.1-1.7c-0.8-0.5-1.7-0.7-2.6-0.5l-1.3,0.4
				c-0.4,0.1-0.9,0.2-1.3,0.1c-0.4-0.2-0.6-0.7-0.6-1.1c0-0.4-0.1-0.9-0.4-1.3c-0.6-0.7-1.6-0.9-2.4-0.9c-0.9,0-1.8,0.2-2.6,0.6
				c-0.8,0.3-1.7,0.7-2.5,0.8c-0.9,0.2-1.9,0.1-2.5-0.6l0,0c0.7,2.1,0.9,4.4,0.7,6.7C235.9,286.5,235.4,288.7,234.5,290.8z
				 M234.5,290.8c0.8-2.1,1.4-4.3,1.5-6.5c0.2-2.2-0.1-4.5-0.7-6.6l0,0l0,0c0.7,0.6,1.7,0.7,2.5,0.5c0.9-0.2,1.7-0.5,2.5-0.8
				c0.8-0.4,1.7-0.6,2.6-0.6c0.9,0,1.9,0.2,2.4,0.9c0.3,0.4,0.4,0.8,0.4,1.3c0,0.4,0.1,0.9,0.5,1.1c0.4,0.2,0.9,0,1.3-0.1l1.3-0.4
				c0.9-0.3,1.8,0,2.6,0.5c0.8,0.5,1.4,1.1,2.1,1.7c0.7,0.6,1.3,1.2,2.1,1.7c0.8,0.5,1.7,0.6,2.5,0.2c0.4-0.2,0.8-0.5,1.2-0.6
				c0.4-0.2,0.9-0.1,1.3,0.2c0.3,0.3,0.5,0.7,0.9,1c0.3,0.3,0.8,0.3,1.2,0.2c0.4-0.1,0.8-0.4,1.2-0.6c0.4-0.2,0.8-0.4,1.3-0.3
				c0.9,0.2,1.2,1.4,2.1,1.6c0.9,0.2,1.8-0.2,2.6-0.5c0.4-0.2,0.8-0.3,1.3-0.4c0.4-0.1,1,0.1,1.1,0.6l0,0l0,0
				c0.2,1.5-0.8,2.8-0.8,4.2c0,0.7,0.7,1.3,1.4,1.3c0.7,0,1.4-0.2,2.1-0.5c2.6-1.2,5-2.9,7.5-4.3c1.2-0.7,2.5-1.4,3.9-1.9
				c1.4-0.5,2.8-0.9,4.2-1c1.4-0.1,2.9,0,4.3,0.5c1.4,0.4,2.6,1.3,3.5,2.5l-0.1,0c0.8-0.6,1.2-1.5,1.1-2.4l0-0.1l0.1,0
				c0.7,0.3,1.5,0.4,2.2,0.1l0,0.1c-0.2-0.4-0.1-0.9,0.1-1.3c0.2-0.4,0.5-0.7,0.9-0.9c0.8-0.5,1.7-0.4,2.5-0.4
				c0.8,0,1.7,0.1,2.5-0.1c0.8-0.2,1.6-0.7,2.3-1.1c1.5-0.9,3.1-1.5,4.8-1.7c1.7-0.2,3.4-0.2,5.1,0.2l0.1,0l0,0.1
				c-0.9,2.3-1.7,4.7-1.8,7.2c-0.2,2.5,1.3,4.8,1.9,7.2c1.6,4.7,2.6,9.7,3.4,14.6c0.7,5,1.2,9.9,1.5,14.9c0.3,5,0.7,10,0.7,15
				c0,10-1,20-2.8,29.9c-0.9,4.9-2.3,9.8-3.4,14.6c-1.1,4.9-2.2,9.7-3.3,14.6c-1.1,4.9-2.1,9.8-3,14.7c-0.9,4.9-1.8,9.9-2.2,14.8
				c-0.2,2.5-0.1,5,0,7.5c0.1,2.5,0.1,5,0.1,7.5c0,5-0.1,10-0.3,15c-0.4,10-1.4,20-2.2,29.9c-0.8,10-1.4,20-1.6,30l0,0l0,0
				c-0.2,0.5-0.6,0.7-1,0.9c-0.4,0.2-0.8,0.4-1.2,0.5c-0.8,0.2-1.7,0.4-2.6,0.5c-1.7,0.2-3.4,0.3-5.2,0.3c-1.7,0-3.4-0.1-5.2-0.2
				c-0.9-0.1-1.7-0.2-2.6-0.3c-0.9-0.2-1.7-0.3-2.6-0.7l-0.1,0l0-0.1c-2.3-12.5-0.7-25.3-2.8-37.8c-0.9-6.2-2.3-12.4-3.1-18.7
				c-0.4-3.1-0.6-6.3-0.8-9.4l-0.7-9.4c-0.5-6.3-1-12.6-1.3-18.9c-0.3-6.3-0.4-12.6-0.5-18.9c-0.2-12.6-0.2-25.3-0.3-37.9l0-1.2
				l0-0.6c0-0.2,0-0.3-0.1-0.4c-0.1-0.1-0.2-0.1-0.3,0c0,0-0.1,0.1-0.1,0.1l-0.1,0.3c-0.1,0.4-0.2,0.8-0.2,1.2
				c-0.3,1.5-0.4,3.1-0.6,4.7c-0.3,3.1-0.5,6.3-0.7,9.4c-0.4,6.3-0.6,12.6-0.8,18.9c-0.5,12.6-0.2,25.3-0.8,37.9
				c-0.5,12.6-1.6,25.2-2.8,37.8c-1.3,12.6-2.5,25.1-3.3,37.7l0,0.1l-0.1,0c-3.3,0.9-6.6,1.6-10,1.9c-1.7,0.1-3.4,0.1-5.1-0.1
				c-1.7-0.3-3.4-0.8-4.8-1.8l0,0l0,0c-1.2-4.5-2.1-9-3-13.6c-0.9-4.6-1.6-9.2-2.2-13.8c-1.2-9.2-2.1-18.5-2.4-27.8
				c-0.1-2.3-0.1-4.6-0.1-7c0-2.3,0.1-4.6,0.1-7c0.1-4.6,0.5-9.3,0.6-13.9c0.1-9.3-1-18.5-2.6-27.7c-1.6-9.2-3.6-18.2-5.6-27.3
				c-1-4.5-1.9-9.1-2.6-13.7c-0.7-4.6-1.3-9.2-1.2-13.9c-0.1-9.3-0.1-18.6,0.6-27.8C229.7,308.8,231.1,299.5,234.5,290.8z"/>
		</g>
		<g>
			<path class="st5" d="M237.1,282.1c1.2-0.3,2.5,0,3.5,0.8c0.5,0.4,0.9,0.8,1.5,1c0.6,0.2,1.2,0.3,1.8,0.4c2.4,0.5,4.8,1,7.2,1.5
				c1.2,0.3,2.4,0.7,3.4,1.5c1,0.7,1.8,1.8,2,3.1c0.1,0.6,0.3,1.2,0.8,1.3c0.5,0.1,1-0.4,1.5-0.7c1.1-0.6,2.3-0.9,3.6-1
				c2.5-0.2,5,0.3,7.2,1.2c2.3,0.9,4.4,2,6.8,2.6c1.2,0.3,2.4,0.3,3.5,0.2c1.2-0.2,2.3-0.6,3.3-1.2c1-0.6,2-1.3,2.9-2.1
				c0.5-0.4,0.9-0.9,1.5-1.2c0.6-0.3,1.5-0.3,1.9,0.4l-0.4,0.1c0.1-0.8,0.7-1.4,1.4-1.6c0.7-0.2,1.5-0.1,2.1,0.2
				c1.3,0.6,2.2,1.6,3.4,2.3c1.1,0.7,2.4,1.2,3.7,1c0.6-0.1,1.2-0.4,1.7-0.9c0.4-0.4,0.8-1.1,0.7-1.7l0-0.1l0.1-0.1l1-0.9l0.1-0.1
				l0.1,0.1c0.2,0.2,0.6,0.2,0.9,0c0.3-0.2,0.5-0.4,0.7-0.7c0.4-0.6,0.9-1.2,1.5-1.6c0.6-0.4,1.3-0.8,2.1-0.8c0.8,0,1.5,0.2,2.1,0.5
				c0.7,0.3,1.3,0.7,2,0.9c0.3,0.1,0.6-0.2,0.8-0.5c0.2-0.3,0.3-0.7,0.5-1c0.4-0.6,0.9-1.2,1.5-1.6c0.6-0.4,1.3-0.6,2.1-0.5
				c-0.7-0.1-1.5,0.2-2,0.6c-0.6,0.4-1.1,1-1.4,1.6c-0.2,0.3-0.3,0.6-0.5,1c-0.1,0.2-0.2,0.3-0.3,0.5c-0.2,0.1-0.4,0.2-0.6,0.1
				c-0.7-0.2-1.3-0.6-2-0.9c-0.7-0.3-1.4-0.5-2.1-0.5c-0.7,0.1-1.4,0.3-1.9,0.8c-0.6,0.4-1,1-1.4,1.6c-0.2,0.3-0.4,0.6-0.8,0.8
				c-0.3,0.2-0.8,0.3-1.2,0l0.2,0l-1,0.9l0-0.1c0.1,0.8-0.3,1.4-0.8,1.9c-0.5,0.5-1.1,0.9-1.8,1c-1.4,0.2-2.8-0.3-3.9-1
				c-1.2-0.7-2.2-1.7-3.3-2.2c-0.6-0.3-1.2-0.4-1.8-0.2c-0.6,0.2-1.1,0.7-1.1,1.2l0,0.7l-0.4-0.6c-0.2-0.4-0.9-0.5-1.4-0.2
				c-0.5,0.3-0.9,0.7-1.4,1.1c-0.9,0.8-1.9,1.6-3,2.2c-1.1,0.6-2.2,1.1-3.5,1.3c-1.2,0.2-2.5,0.1-3.7-0.2c-2.4-0.6-4.6-1.8-6.8-2.7
				c-2.2-0.9-4.6-1.4-7-1.2c-1.2,0.1-2.4,0.4-3.4,1c-0.3,0.1-0.5,0.3-0.8,0.5c-0.3,0.2-0.6,0.3-1,0.3c-0.4-0.1-0.7-0.4-0.8-0.7
				c-0.1-0.3-0.2-0.6-0.2-0.9c-0.2-1.2-0.9-2.2-1.8-2.9c-0.9-0.7-2.1-1.1-3.3-1.4l-7.1-1.6c-0.6-0.1-1.2-0.2-1.8-0.5
				c-0.6-0.2-1-0.7-1.5-1C239.6,282.1,238.3,281.8,237.1,282.1z"/>
		</g>
		<g>
			<path class="st5" d="M234.6,291.8c1.7-0.4,3.6,0.2,4.8,1.4c0.6,0.6,1.2,1.3,1.9,1.7c0.7,0.5,1.5,0.8,2.4,0.9
				c0.8,0.1,1.7,0.1,2.5,0c0.9-0.1,1.8,0.3,2.5,0.7c1.5,0.8,2.9,2,4.6,2.2c1.7,0.3,3.4,0,5.2,0.2c0.9,0.1,1.8,0.3,2.5,0.7
				c0.4,0.2,0.8,0.4,1.2,0.5c0.4,0.1,0.8,0,1.2-0.1c0.4-0.1,0.8-0.3,1.2-0.5c0.4-0.2,0.9-0.2,1.3-0.3c0.9-0.1,1.8,0.1,2.6,0.3
				c0.8,0.2,1.7,0.4,2.5,0.4c0.8,0.1,1.6-0.2,2.5-0.4c0.9-0.2,1.9,0,2.7,0.3c0.8,0.3,1.6,0.5,2.4,0.7c0.8,0.1,1.7,0.1,2.5,0
				c0.8-0.1,1.6-0.3,2.5-0.5c0.9-0.2,1.8-0.1,2.7,0.2c0.8,0.3,1.6,0.7,2.4,0.7c1.6,0,3-1.4,4.7-1.9c1.7-0.6,3.4-0.8,5.2-0.6
				c0.9,0.1,1.7,0.3,2.5,0.2c0.8-0.1,1.7-0.4,2.1-1.1c0.2-0.3,0.4-0.8,0.6-1.1c0.1-0.2,0.2-0.4,0.4-0.5c0.2-0.2,0.5-0.3,0.7-0.2
				c0.5,0.1,0.8,0.6,1.1,0.7c0.3,0.1,0.7-0.1,1.1-0.3l2.2-1.4c0.4-0.2,0.8-0.4,1.2-0.5c0.4-0.1,1-0.1,1.3,0.3l-0.1,0
				c0.5-0.5,0.5-1.3,0.8-1.9c0.2-0.3,0.6-0.6,0.9-0.5c0.4,0,0.7,0.2,1,0.2c0.7,0.1,1.4-0.1,2.1-0.4c0.7-0.3,1.3-0.6,1.9-1
				c-0.6,0.4-1.2,0.8-1.9,1.1c-0.6,0.3-1.4,0.5-2.1,0.4c-0.4,0-0.7-0.2-1-0.2c-0.3,0-0.7,0.2-0.8,0.5c-0.3,0.6-0.3,1.4-0.8,2
				l-0.1,0.1l-0.1-0.1c-0.3-0.3-0.7-0.3-1.1-0.2c-0.4,0.1-0.8,0.3-1.1,0.5l-2.1,1.4c-0.3,0.2-0.8,0.5-1.3,0.4
				c-0.5-0.2-0.7-0.6-1.1-0.6c-0.4-0.1-0.6,0.3-0.8,0.6c-0.2,0.4-0.4,0.8-0.6,1.2c-0.5,0.8-1.4,1.2-2.3,1.3
				c-0.9,0.1-1.8-0.1-2.6-0.2c-1.7-0.2-3.4,0-5,0.6c-0.8,0.3-1.5,0.7-2.3,1.1c-0.8,0.4-1.6,0.8-2.5,0.8c-0.9,0-1.8-0.4-2.6-0.7
				c-0.8-0.3-1.6-0.3-2.4-0.2c-0.8,0.2-1.7,0.4-2.5,0.5c-0.9,0.1-1.8,0.1-2.6,0c-0.9-0.1-1.7-0.4-2.5-0.7c-0.8-0.3-1.6-0.5-2.4-0.3
				c-0.8,0.2-1.7,0.5-2.6,0.4c-0.9,0-1.7-0.2-2.6-0.4c-0.8-0.2-1.7-0.4-2.5-0.3c-0.8,0-1.6,0.4-2.4,0.7c-0.4,0.1-0.9,0.2-1.4,0.1
				c-0.5-0.1-0.8-0.3-1.2-0.5c-0.8-0.4-1.6-0.6-2.4-0.7c-1.7-0.2-3.4,0.1-5.2-0.2c-1.8-0.3-3.2-1.5-4.7-2.3
				c-0.7-0.4-1.6-0.7-2.4-0.7c-0.8,0.1-1.7,0.1-2.6-0.1c-0.9-0.2-1.7-0.5-2.4-1c-0.7-0.5-1.3-1.2-1.9-1.8
				C238.1,292,236.3,291.4,234.6,291.8z"/>
		</g>
		<g>
			<path class="st5" d="M311.9,296.8c1.1,0.9,2,1.9,2.9,3c0.8,1.1,1.5,2.4,2.2,3.6c0.7,1.2,1.2,2.5,1.9,3.7c0.6,1.2,1.4,2.4,1.9,3.8
				c0.5,1.3,0.9,2.7,1.2,4c0.3,1.4,0.7,2.7,1,4c0.3,1.4,0.6,2.7,0.8,4.1c0.2,1.4,0.3,2.8,0.5,4.1c-0.4-2.8-0.9-5.5-1.7-8.2
				c-0.8-2.7-1.3-5.4-2.3-8c-0.5-1.3-1.2-2.5-1.8-3.7c-0.6-1.2-1.2-2.5-1.8-3.7C315.4,301.1,313.9,298.7,311.9,296.8z"/>
		</g>
		<g>
			<path class="st5" d="M311,298.9c2.2,1.8,3.9,4.2,5.3,6.8c1.3,2.6,2.4,5.2,3.3,8c0.9,2.7,1.6,5.5,2.3,8.3l1.8,8.4
				c-0.8-2.8-1.5-5.6-2.2-8.3c-0.7-2.8-1.4-5.6-2.4-8.3c-0.9-2.7-2-5.4-3.2-7.9c-0.6-1.3-1.3-2.5-2.2-3.7
				C312.9,301,312,299.9,311,298.9z"/>
		</g>
		<g>
			<path class="st5" d="M248.4,299.1c-1,2.8-3.3,4.8-4.7,7.2c-0.7,1.2-1.3,2.5-2,3.8c-0.7,1.3-1.4,2.6-2.1,3.8
				c-1.5,2.5-3.2,4.8-5,7.1c-1.8,2.2-3.9,4.3-6.1,6.2c2-2,4-4.2,5.8-6.4c1.8-2.2,3.4-4.6,4.9-7.1c0.7-1.2,1.4-2.5,2.1-3.8
				c0.7-1.3,1.3-2.6,2.1-3.8c0.8-1.2,1.7-2.4,2.6-3.5C247,301.5,247.9,300.4,248.4,299.1z"/>
		</g>
		<g>
			<path class="st5" d="M228.8,328.7c2.2-1.9,4.3-4,6.2-6.3c1.9-2.3,3.6-4.6,5.1-7.2c1.5-2.5,2.7-5.2,4.2-7.8
				c0.7-1.3,1.6-2.5,2.5-3.6c0.9-1.1,1.9-2.3,2.4-3.7c-0.4,1.4-1.3,2.7-2.2,3.8c-0.9,1.2-1.7,2.4-2.4,3.7c-1.4,2.6-2.5,5.3-4.1,7.9
				c-1.5,2.5-3.3,4.9-5.2,7.2C233.3,324.9,231.2,326.9,228.8,328.7z"/>
		</g>
		<g>
			<path class="st5" d="M237,294.4c-0.8,0.9-1.3,2-1.7,3.2c-0.4,1.1-0.7,2.3-1,3.4c-0.6,2.3-1.2,4.6-1.7,7c-0.5,2.3-0.9,4.7-1.2,7.1
				c-0.3,2.4-0.6,4.8-0.7,7.2c0-2.4,0.1-4.8,0.4-7.2c0.2-2.4,0.6-4.8,1.1-7.1c0.5-2.4,1.1-4.7,1.8-7
				C234.6,298.6,235.3,296.2,237,294.4z"/>
		</g>
		<g>
			<path class="st6" d="M245.7,504.2c-1.5,1.8-1.9,5.4-0.9,7.8c0.6,1.5,1.7,2.5,2.7,3.5c1.5,1.3,3,2.7,4.8,3.1c1,0.2,2,0.1,3,0
				c3.5-0.1,7.3,1.1,10.3-1.7c0.2-0.2,0.4-0.4,0.7-0.5c0.5-0.1,0.9,0.2,1.4,0.1c0.8-0.2,1.6-3.3,1.4-4.6c-0.4-2.7-0.6-3.5-1.3-4.7
				c-3.6,1.7-5.8,2.1-9.6,1.7C253.8,508.4,249.3,507.8,245.7,504.2z"/>
			<g>
				<path class="st6" d="M245.7,504.2c-1.2,1.5-1.5,3.4-1.4,5.2c0.1,0.9,0.2,1.8,0.6,2.6c0.4,0.8,0.9,1.6,1.6,2.2
					c0.6,0.6,1.3,1.2,2,1.9c0.7,0.6,1.4,1.2,2.2,1.6c0.8,0.4,1.6,0.7,2.5,0.7c0.9,0,1.8-0.1,2.8-0.1c1.9,0,3.7,0.3,5.5,0.1
					c0.9-0.1,1.8-0.4,2.5-0.8c0.4-0.2,0.8-0.5,1.1-0.8c0.2-0.1,0.3-0.3,0.5-0.5c0.2-0.2,0.5-0.3,0.8-0.3c0.6,0.1,1,0.3,1.2,0.1
					c0.3-0.2,0.5-0.7,0.6-1.1c0.3-0.8,0.5-1.7,0.5-2.6c0-0.4-0.1-0.9-0.2-1.3c-0.1-0.5-0.1-0.9-0.2-1.4c-0.2-0.9-0.5-1.7-0.9-2.5
					l0.3,0.1c-1.8,0.8-3.6,1.6-5.6,1.7c-2,0.2-3.9-0.1-5.9-0.3c-1.9-0.3-3.9-0.7-5.7-1.4C248.8,506.7,247.1,505.6,245.7,504.2z
					 M245.7,504.2c1.4,1.3,3.1,2.4,4.9,3c1.8,0.7,3.7,1,5.7,1.2c1.9,0.2,3.9,0.5,5.8,0.2c1.9-0.2,3.7-0.9,5.5-1.8l0.2-0.1l0.1,0.2
					c0.5,0.8,0.8,1.7,1,2.6c0.1,0.5,0.2,0.9,0.3,1.4c0.1,0.4,0.2,0.9,0.2,1.4c0,1-0.2,1.9-0.6,2.8c-0.2,0.4-0.3,0.9-0.7,1.3
					c-0.2,0.2-0.6,0.2-0.9,0.2c-0.3-0.1-0.5-0.1-0.6-0.1c-0.3,0-0.6,0.4-1,0.7c-0.4,0.3-0.8,0.6-1.2,0.8c-0.8,0.5-1.8,0.7-2.7,0.8
					c-1.9,0.2-3.7-0.1-5.6-0.1c-0.9,0-1.8,0.1-2.8,0c-1,0-1.9-0.3-2.7-0.8c-0.8-0.5-1.5-1.1-2.2-1.7c-0.7-0.6-1.4-1.2-2-1.9
					c-0.6-0.7-1.2-1.5-1.6-2.3c-0.4-0.9-0.5-1.8-0.6-2.7C244.2,507.6,244.5,505.7,245.7,504.2z"/>
			</g>
		</g>
		<g>
			<path class="st6" d="M308.3,505.6c1.5,1.8,1.9,5.4,0.9,7.8c-0.6,1.5-1.7,2.5-2.7,3.5c-1.5,1.3-3,2.7-4.8,3.1c-1,0.2-2,0.1-3,0
				c-3.5-0.1-7.3,1.1-10.3-1.7c-0.2-0.2-0.4-0.4-0.7-0.5c-0.5-0.1-0.9,0.2-1.4,0.1c-0.8-0.2-1.6-3.3-1.4-4.6
				c0.4-2.7,0.6-3.5,1.3-4.7c3.6,1.7,5.8,2.1,9.6,1.7C300.2,509.8,304.7,509.2,308.3,505.6z"/>
			<g>
				<path class="st6" d="M308.3,505.6c1.2,1.4,1.6,3.4,1.5,5.2c0,0.9-0.2,1.9-0.6,2.7c-0.4,0.9-0.9,1.6-1.6,2.3
					c-0.6,0.7-1.3,1.3-2,1.9c-0.7,0.6-1.4,1.2-2.2,1.7c-0.8,0.5-1.8,0.8-2.7,0.8c-1,0-1.9-0.1-2.8,0c-1.8,0-3.7,0.3-5.6,0.1
					c-0.9-0.1-1.9-0.4-2.7-0.8c-0.4-0.2-0.8-0.5-1.2-0.8c-0.4-0.3-0.7-0.7-1-0.7c-0.2,0-0.4,0.1-0.6,0.1c-0.2,0.1-0.6,0.1-0.9-0.2
					c-0.4-0.4-0.6-0.9-0.7-1.3c-0.3-0.9-0.5-1.8-0.6-2.8c0-0.5,0.1-1,0.2-1.4c0.1-0.5,0.2-0.9,0.3-1.4c0.2-0.9,0.5-1.9,1-2.6
					l0.1-0.2l0.2,0.1c1.8,0.8,3.6,1.5,5.5,1.8c1.9,0.2,3.9,0,5.8-0.2c1.9-0.2,3.8-0.6,5.7-1.2C305.2,508,306.9,507,308.3,505.6z
					 M308.3,505.6c-1.4,1.4-3,2.5-4.9,3.2c-1.8,0.7-3.8,1.1-5.7,1.4c-1.9,0.3-3.9,0.5-5.9,0.3c-2-0.2-3.9-0.9-5.6-1.7l0.3-0.1
					c-0.5,0.8-0.8,1.6-0.9,2.5c-0.1,0.4-0.2,0.9-0.2,1.4c-0.1,0.5-0.2,0.9-0.2,1.3c0,0.9,0.2,1.8,0.5,2.6c0.2,0.4,0.3,0.9,0.6,1.1
					c0.2,0.2,0.6,0,1.2-0.1c0.3,0,0.6,0.2,0.8,0.3c0.2,0.2,0.3,0.3,0.5,0.5c0.3,0.3,0.7,0.6,1.1,0.8c0.8,0.4,1.6,0.7,2.5,0.8
					c1.8,0.2,3.6,0,5.5-0.1c0.9,0,1.9,0.1,2.8,0.1c0.9,0,1.8-0.3,2.5-0.7c0.8-0.4,1.5-1,2.2-1.6c0.7-0.6,1.4-1.2,2-1.9
					c0.6-0.7,1.2-1.4,1.6-2.2c0.4-0.8,0.6-1.7,0.6-2.6C309.8,509,309.5,507.1,308.3,505.6z"/>
			</g>
		</g>
		<g>
			<path class="st5" d="M258.4,301.7c0.4,1,0.3,2.1-0.2,3.1c-0.2,0.5-0.6,0.9-1,1.3c-0.4,0.3-0.8,0.6-1.1,1
				c-0.3,0.3-0.5,0.7-0.5,1.2c0,0.5,0,1.1-0.2,1.6c-0.3,1-1,1.9-1.9,2.4c0.8-0.7,1.3-1.6,1.5-2.5c0.1-0.5,0.1-0.9,0.1-1.5
				c0-0.5,0.2-1.2,0.6-1.6c0.4-0.4,0.8-0.7,1.2-1c0.4-0.3,0.7-0.7,0.9-1.1C258.4,303.7,258.6,302.7,258.4,301.7z"/>
		</g>
		<g>
			<path class="st5" d="M273.3,303.6c0,1.4-0.2,2.7-0.4,4c-0.3,1.3-0.7,2.6-1.2,3.9c0.2-1.4,0.5-2.7,0.7-4
				C272.6,306.2,272.9,304.9,273.3,303.6z"/>
		</g>
		<g>
			<path class="st5" d="M276,304.3c-0.1,1.1-0.2,2.1-0.2,3.1c0,1,0.1,2,0.3,3.1c-0.5-0.9-0.8-2-0.8-3.1
				C275.3,306.3,275.5,305.2,276,304.3z"/>
		</g>
		<g>
			<path class="st5" d="M300.1,301.7c-0.1,1.1-0.2,2.2-0.1,3.3c0,1.1,0.2,2.2,0.3,3.3c-0.5-1-0.8-2.1-0.8-3.3
				C299.4,303.9,299.6,302.8,300.1,301.7z"/>
		</g>
		<g>
			<path class="st5" d="M303.6,301.1c1.1,1,2.2,2.1,2.9,3.6c0.3,0.7,0.4,1.5,0.7,2.2c0.1,0.3,0.3,0.7,0.5,0.9c0.2,0.3,0.6,0.4,1,0.4
				c-0.4,0.1-0.8,0-1.1-0.3c-0.3-0.2-0.6-0.6-0.7-0.9c-0.3-0.7-0.4-1.5-0.8-2.1C305.4,303.5,304.4,302.3,303.6,301.1z"/>
		</g>
	</g>
	<g>
		<ellipse transform="matrix(0.927 -0.3751 0.3751 0.927 -71.3057 121.6956)" class="st7" cx="277" cy="244" rx="15.4" ry="15.4"/>
		<path class="st8" d="M278.2,234.6c-3.8-0.8-8.1,1.7-9.8,5.2c-0.8,1.6-0.9,3.1-0.9,3.9c-0.1,2.2,0.3,4.5,1.7,6.3
			c1.3,1.7,3.4,2.8,5.6,3.3c3.5,0.8,7.6,0.2,9.8-2.6c1.3-1.7,1.5-3.5,1.6-4.4c0.4-4.2-1.9-8-4.8-10.1
			C280.5,235.6,279.6,234.9,278.2,234.6z"/>
		<g>
			<g>
				<g>
					<path class="st9" d="M267.7,247c2.6-1.9,5.8-2.8,9-2.6c3.2,0.2,6.3,1.6,8.7,3.8c0.7,0.6,1.6-0.4,1-1c-2.6-2.4-5.9-4-9.5-4.2
						c-3.5-0.3-7,0.8-9.8,2.8C266.3,246.4,267,247.6,267.7,247L267.7,247z"/>
				</g>
				<g>
					<path class="st9" d="M270.5,245.5c0.9,2.6,3.3,4.5,6.1,4.7c2.8,0.2,5.6-1.4,6.8-3.9c0.4-0.8-0.8-1.5-1.2-0.7
						c-1,2-3.1,3.4-5.4,3.2c-2.2-0.1-4.2-1.7-4.9-3.7C271.5,244.3,270.2,244.6,270.5,245.5L270.5,245.5z"/>
				</g>
				<g>
					<path class="st9" d="M280.5,244.9c-0.6,1.3-2.1,2.2-3.5,2.1c-1.5-0.1-2.8-1.1-3.3-2.5L280.5,244.9z"/>
					<g>
						<path class="st9" d="M279.9,244.6c-0.5,1.1-1.7,1.8-2.9,1.8c-1.1-0.1-2.2-0.9-2.6-2c-0.2,0.3-0.4,0.6-0.7,0.9
							c2,0.1,4,0.2,6,0.3c0.3,0,0.6,0,0.9,0c0.9,0.1,0.9-1.3,0-1.4c-2-0.1-4-0.2-6-0.3c-0.3,0-0.6,0-0.9,0c-0.4,0-0.8,0.5-0.7,0.9
							c0.6,1.7,2.1,2.9,3.9,3c1.7,0.1,3.5-0.9,4.2-2.5c0.2-0.3,0.1-0.8-0.3-1C280.5,244.1,280.1,244.2,279.9,244.6z"/>
					</g>
				</g>
			</g>
			<g>
				<g>
					<path class="st9" d="M276.9,235.3c0.2,1.1,0.1,2.2,0.1,3.2c0,0.6,0,1.1,0.1,1.7c0,0.6,0,1.3,0.3,1.8c0.4,0.8,1.6,0.1,1.2-0.7
						c0,0.1,0,0.1,0-0.1c0-0.1,0-0.1,0-0.2c0-0.1,0-0.3,0-0.5c0-0.3,0-0.5-0.1-0.8c0-0.5,0-1.1,0-1.6c0-1.1,0.1-2.2-0.1-3.2
						c-0.1-0.4-0.5-0.6-0.9-0.5C277,234.6,276.8,234.9,276.9,235.3L276.9,235.3z"/>
				</g>
				<g>
					<path class="st9" d="M283.3,244.1c1.5-1.9,3.1-3.8,4.7-5.7c0.3-0.3,0.3-0.7,0-1c-0.3-0.3-0.7-0.3-1,0c-1.7,1.9-3.3,3.9-4.9,5.9
						c-0.2,0.3,0,0.8,0.3,1C282.7,244.5,283,244.4,283.3,244.1L283.3,244.1z"/>
				</g>
				<g>
					<path class="st9" d="M267.6,237.1c1.1,2,2.3,4,3.5,5.9c0.2,0.3,0.6,0.4,1,0.3c0.3-0.2,0.5-0.6,0.3-1c-1.2-1.9-2.4-3.9-3.5-5.9
						C268.4,235.6,267.2,236.3,267.6,237.1L267.6,237.1z"/>
				</g>
				<g>
					<path class="st9" d="M272.8,238.3c0.1,0.2,0.1,0.3,0.2,0.5c0,0.1,0.1,0.2,0.1,0.2c0,0,0,0.1,0,0.1c0-0.1,0,0,0,0
						c0.1,0.3,0.2,0.6,0.4,0.9c0.2,0.6,0.5,1.2,0.7,1.8c0.1,0.3,0.5,0.6,0.9,0.5c0.3-0.1,0.6-0.5,0.5-0.9c-0.5-1.3-1-2.6-1.5-3.8
						c-0.1-0.3-0.7-0.4-1-0.3C272.7,237.6,272.7,237.9,272.8,238.3L272.8,238.3z"/>
				</g>
				<g>
					<path class="st9" d="M281,242.6c0.6-1.5,1.2-2.9,1.8-4.4c0.1-0.3,0.1-0.7-0.3-1c-0.3-0.2-0.8-0.1-1,0.3
						c-0.7,1.6-1.3,3.1-1.9,4.7c-0.1,0.3,0.1,0.8,0.5,0.9C280.5,243.2,280.8,243,281,242.6L281,242.6z"/>
				</g>
				<g>
					<path class="st9" d="M265.7,241.5c0.2,0.2,0.4,0.4,0.5,0.6c0,0.1,0.1,0.1,0.1,0.2c0,0,0.1,0.1,0,0c-0.1-0.1,0,0,0,0
						c0.1,0.1,0.2,0.2,0.2,0.3c0.3,0.4,0.6,0.9,0.8,1.4c0.2,0.3,0.7,0.4,1,0.3c0.3-0.2,0.4-0.6,0.3-1c-0.5-1-1.2-2-2-2.8
						c-0.3-0.3-0.7-0.3-1,0C265.5,240.8,265.5,241.2,265.7,241.5L265.7,241.5z"/>
				</g>
				<g>
					<path class="st9" d="M286.4,245.8c0.9-1,1.8-1.9,2.9-2.8c0.3-0.2,0.3-0.8,0-1c-0.3-0.3-0.7-0.2-1,0c-1,0.8-2,1.8-2.9,2.8
						c-0.2,0.3-0.3,0.7,0,1C285.6,246.1,286.1,246.1,286.4,245.8L286.4,245.8z"/>
				</g>
			</g>
		</g>
	</g>
	<g>
		<g>
			<g>
				<g>
					<path class="st10" d="M311.1,541.2c-1.4-1.4-6.5-1.4-11-1.1c0-1.4,0-2.4-0.2-2.4c-0.7,0.1-14.1-6-14.1-6s-0.7,2.3,0,3.7
						c0.7,1.4,3.9,2.7,4.4,4.7c0.4,1.9,1.8,5.9,1.8,6.1c0,0,0,0,0,0l0,0h0c0.1,0.4,0.3,0.9,0.6,1.2c1.6,1.8,5.9,4.6,13.5,3.2
						C313.8,549.2,313.7,543.8,311.1,541.2z"/>
					<path class="st11" d="M311.1,541.2c-0.7-0.6-1.7-0.8-2.6-1c-0.9-0.1-1.9-0.2-2.8-0.2c-1.9-0.1-3.8,0-5.6,0.1c0,0,0,0,0,0v0
						c0-0.4,0-0.8,0-1.1c0-0.4,0-0.8-0.1-1.1c0,0,0-0.1-0.1-0.1l-0.1,0c-0.1,0-0.2,0-0.3-0.1c-0.2-0.1-0.4-0.1-0.5-0.2
						c-0.3-0.1-0.7-0.3-1-0.4c-1.4-0.5-2.7-1.1-4.1-1.7c-2.7-1.2-5.4-2.4-8.1-3.6l0.1-0.1c-0.2,0.7-0.3,1.4-0.3,2.1
						c0,0.7,0.1,1.4,0.5,1.9c0.4,0.5,1,0.9,1.5,1.4c0.5,0.4,1.1,0.8,1.6,1.3c0.5,0.5,1,1.1,1.1,1.8c0.2,0.7,0.4,1.4,0.6,2
						c0.4,1.3,0.8,2.7,1.2,4l-0.1-0.1l0.1,0.1c0.1,0.3,0.2,0.6,0.4,0.8c0.2,0.3,0.4,0.5,0.6,0.7c0.4,0.4,0.9,0.8,1.4,1.1
						c1,0.6,2.1,1.1,3.3,1.5c2.3,0.7,4.8,0.7,7.2,0.4c0.6-0.1,1.2-0.2,1.8-0.3c0.3-0.1,0.6-0.1,0.9-0.2l0.9-0.3
						c1.1-0.4,2.2-1.1,3.1-2c0.4-0.5,0.7-1,0.9-1.6l0.1-0.5l0.1-0.2l0-0.2l0-0.5l0-0.5l0-0.2l0-0.2l-0.1-0.5
						c-0.1-0.3-0.2-0.6-0.3-0.9C311.9,542.2,311.5,541.7,311.1,541.2z M311.1,541.2c0.4,0.4,0.8,0.9,1.1,1.5
						c0.2,0.3,0.2,0.6,0.3,0.9l0.1,0.5l0,0.2l0,0.2l0,0.5l0,0.5l0,0.2l-0.1,0.2l-0.1,0.5c-0.2,0.6-0.5,1.2-0.9,1.6
						c-0.8,1-1.9,1.6-3.1,2l-0.9,0.3c-0.3,0.1-0.6,0.1-0.9,0.2c-0.6,0.2-1.2,0.2-1.8,0.3c-2.4,0.3-4.9,0.3-7.2-0.4
						c-1.2-0.3-2.3-0.8-3.3-1.5c-0.5-0.3-1-0.7-1.4-1.1c-0.2-0.2-0.4-0.4-0.6-0.7c-0.2-0.3-0.3-0.6-0.4-0.9l0.1,0.1c0,0,0,0,0,0
						c0,0,0,0,0,0c0,0,0,0,0,0l0-0.1c-0.4-1.3-0.9-2.7-1.3-4c-0.2-0.7-0.4-1.3-0.6-2c-0.1-0.7-0.6-1.2-1.1-1.7
						c-0.5-0.5-1-0.9-1.6-1.3c-0.5-0.4-1.1-0.8-1.5-1.4c-0.4-0.6-0.6-1.3-0.6-2c0-0.7,0.1-1.4,0.3-2.1c0,0,0.1-0.1,0.1-0.1
						c0,0,0,0,0,0c2.7,1.2,5.4,2.4,8.1,3.6c1.3,0.6,2.7,1.2,4.1,1.7c0.3,0.1,0.7,0.3,1,0.4c0.2,0.1,0.3,0.1,0.5,0.2
						c0.1,0,0.2,0.1,0.3,0.1c0,0,0.1,0,0.1,0c0.1,0,0.1,0.1,0.1,0.1c0.1,0.4,0.1,0.8,0.1,1.1c0,0.4,0,0.8,0,1.1l0,0
						c1.9-0.1,3.8-0.2,5.6-0.1c0.9,0,1.9,0.1,2.8,0.3C309.4,540.4,310.4,540.6,311.1,541.2z"/>
				</g>
				<g>
					<path class="st12" d="M311,541c-8.3-2.3-16.1,2.4-18,3.6c-2.8-1.7-1.5-4.1-2.3-5.4c-1.3-1.9-4.5-5.4-4.9-7.4
						c-0.4-2,0.5-4.3,0.5-4.3s-0.6-2.2,0.8-1.4c1.3,0.8,2,2.7,2.5,1.9c0.5-0.8,1.2-5.6,6.5-4.2c5.2,1.4,4.6,4.5,6.6,7.8
						C304.5,534.7,309.8,538.9,311,541z"/>
					<path class="st13" d="M311,541c-1.5-0.4-3.1-0.6-4.6-0.6c-1.6,0-3.1,0.2-4.6,0.6c-3.1,0.7-6,2-8.7,3.7c0,0-0.1,0-0.1,0
						c-0.7-0.4-1.3-1-1.7-1.8c-0.3-0.8-0.3-1.6-0.4-2.4c0-0.4-0.1-0.8-0.3-1.1c-0.2-0.3-0.5-0.7-0.7-1l-1.5-1.9
						c-0.5-0.6-1-1.3-1.4-2c-0.4-0.7-0.9-1.4-1.2-2.2c-0.1-0.4-0.2-0.8-0.2-1.2c0-0.4,0-0.8,0-1.3c0.1-0.8,0.3-1.7,0.5-2.4l0,0.1
						c-0.1-0.4-0.2-0.8-0.1-1.3c0-0.1,0.1-0.2,0.2-0.3c0.1-0.1,0.2-0.1,0.3-0.1c0.2,0,0.4,0.1,0.6,0.2c0.7,0.4,1.2,1.1,1.7,1.7
						c0.1,0.1,0.3,0.3,0.4,0.3c0.1,0,0.2-0.1,0.3-0.3c0.2-0.4,0.3-0.8,0.4-1.1c0.3-0.8,0.7-1.5,1.3-2.1c0.6-0.6,1.4-1,2.1-1.1
						c0.4,0,0.8-0.1,1.2,0c0.4,0,0.8,0.1,1.2,0.2c0.4,0.1,0.8,0.2,1.1,0.3l0.5,0.2l0.3,0.1l0.3,0.1c0.7,0.3,1.4,0.8,1.9,1.4
						c1.1,1.2,1.4,2.9,2.1,4.3c0.3,0.7,0.7,1.4,1.1,2.1c0.4,0.6,1,1.2,1.5,1.8c1,1.2,2.2,2.3,3.3,3.4c0.6,0.6,1.1,1.1,1.6,1.7
						C310,539.7,310.6,540.3,311,541z M311,541c-0.4-0.7-1-1.3-1.5-1.8c-0.5-0.6-1.1-1.1-1.7-1.7c-1.1-1.1-2.2-2.2-3.3-3.4
						c-0.5-0.6-1-1.2-1.5-1.8c-0.5-0.6-0.8-1.4-1.2-2.1c-0.6-1.5-1-3.1-2.1-4.3c-0.5-0.6-1.1-1.1-1.8-1.4l-0.3-0.1l-0.3-0.1
						l-0.5-0.2c-0.4-0.1-0.7-0.2-1.1-0.3c-0.4-0.1-0.8-0.2-1.1-0.2c-0.4-0.1-0.8,0-1.2,0c-0.8,0.1-1.5,0.5-2,1c-0.6,0.6-1,1.3-1.3,2
						c-0.2,0.4-0.3,0.8-0.4,1.1c-0.1,0.1-0.1,0.2-0.2,0.3c0,0.1-0.1,0.1-0.2,0.1c-0.1,0-0.1,0-0.2,0c-0.2-0.1-0.4-0.2-0.5-0.4
						c-0.5-0.6-1-1.3-1.6-1.6c-0.2-0.1-0.3-0.2-0.5-0.2c-0.2,0-0.3,0.1-0.3,0.3c-0.1,0.4,0,0.8,0.1,1.1c0,0,0,0,0,0.1
						c-0.3,0.8-0.4,1.6-0.5,2.4c0,0.4-0.1,0.8,0,1.2c0,0.4,0.1,0.8,0.2,1.2c0.3,0.8,0.7,1.4,1.1,2.1c0.4,0.7,0.9,1.3,1.4,2l1.5,1.9
						c0.2,0.3,0.5,0.6,0.7,1c0.2,0.4,0.3,0.8,0.3,1.2c0.1,0.8,0.1,1.7,0.4,2.4c0.3,0.7,0.9,1.3,1.6,1.7l-0.1,0
						c2.7-1.7,5.6-3,8.7-3.6c1.5-0.3,3.1-0.5,4.7-0.5C307.9,540.4,309.5,540.6,311,541z"/>
				</g>
				<g>
					<path class="st14" d="M295.3,527c-1.3,0.1-2.7,0.1-3.9,0.3c-0.8,0.2-1.3,0.6-1.8,1.1c-1,1-2,2.5-1.4,3.8
						c0.7,1.3,2.6,0.3,3.5-0.2c1.9-1.2,1.7-3.2,3.9-4.1c0.5-0.2,0-0.8-0.5-0.6c-0.9,0.4-1.7,0.9-2.2,1.7c-0.7,1.1-1,2.5-2.7,3
						c-0.2,0.1-0.4,0.2-0.7,0.1c-0.4,0.1-0.6,0-0.6-0.3c-0.2-0.3,0-0.8,0.1-1.1c0.2-0.6,0.7-1.2,1.2-1.7c1.2-1.1,3.3-1,5-1.1
						C295.9,527.6,295.9,526.9,295.3,527L295.3,527z"/>
				</g>
				<g>
					<path class="st14" d="M295.7,527.8c1.5-0.3,3.4-0.3,4.8,0.1c0.9,0.3,1.6,0.8,2,1.5c0.3,0.5,1,1.5-0.5,0.9
						c-0.9-0.4-1.6-1.4-2.5-1.9c-1.1-0.6-2.3-1-3.6-1.2c-0.6-0.1-0.8,0.6-0.2,0.7c1.5,0.2,2.8,0.6,3.9,1.4c0.7,0.5,1.2,1.2,2,1.6
						c0.8,0.4,2.3,0.6,2.4-0.4c0.1-1.2-1.4-2.6-2.7-3.1c-1.7-0.6-4.1-0.7-5.9-0.3C294.9,527.2,295.2,527.9,295.7,527.8L295.7,527.8z
						"/>
				</g>
				<g>
					<path class="st14" d="M295.2,527.6c-1,2.6-4.7,4.6-3.2,7.6c0.1,0.1,0.2,0.3,0.4,0.3c0.1,0,0.1,0,0.2,0c0.2,0,0.4-0.1,0.4-0.3
						c0,0,0-0.1,0-0.1c0.2-0.4-0.7-0.6-0.9-0.2c0.5-0.3,0.7-0.7,0.5-1.1c0-0.5,0.1-1,0.3-1.5c0.3-0.7,0.8-1.2,1.3-1.8
						c0.8-0.9,1.5-1.7,1.9-2.7C296.2,527.3,295.3,527.1,295.2,527.6L295.2,527.6z"/>
				</g>
				<g>
					<path class="st14" d="M295.9,527.9c1.8,0.4,3,1.7,4.1,2.8c1.1,1,2,2.1,3,3.2c0.3,0.4,1.1,0,0.8-0.4c-1.1-1.4-2.4-2.7-3.7-3.9
						c-1.1-1-2.2-1.9-3.9-2.3C295.6,527.1,295.4,527.8,295.9,527.9L295.9,527.9z"/>
				</g>
				<g>
					<path class="st14" d="M291.4,534c2.8-1.3,6.6-2.5,9.9-1.6c0.6,0.2,0.8-0.5,0.2-0.7c-3.5-0.9-7.6,0.3-10.6,1.7
						C290.4,533.7,290.9,534.3,291.4,534L291.4,534z"/>
				</g>
				<g>
					<path class="st14" d="M293.1,536.2c3.6-1,7.4-1.5,11.2-1.3c0.6,0,0.6-0.7,0-0.7c-4-0.1-7.8,0.3-11.5,1.4
						C292.3,535.6,292.5,536.3,293.1,536.2L293.1,536.2z"/>
				</g>
				<g>
					<path class="st14" d="M297.2,537.6c2.7-0.5,5.2-0.1,8.6,0c0.6,0,0.6-0.7,0-0.7c-3.5-0.1-9.5-1.3-11.1,1.5
						c-0.3,0.5,0.9,0.2,1.4-0.1L297.2,537.6z"/>
				</g>
				<g>
					<path class="st14" d="M297.2,541.1c3.5-1.1,7-1.6,10.8-1.4c0.6,0,0.6-0.7,0-0.7c-3.8-0.2-7.5,0.3-11,1.5
						C296.4,540.6,296.7,541.2,297.2,541.1L297.2,541.1z"/>
				</g>
				<g>
					<path class="st14" d="M299.9,546.2c-3.5-0.3-5.6-0.9-6.8-1.6c1.8-1.1,9.6-5.9,18-3.6c0,0.1,0.1,0.2,0.1,0.2
						C312.1,543.2,311.2,547.1,299.9,546.2z"/>
					<path class="st15" d="M299.9,546.2c-1.2-0.1-2.4-0.2-3.5-0.5c-1.2-0.2-2.3-0.5-3.3-1.1c0,0,0,0,0-0.1c0,0,0,0,0,0
						c2.7-1.7,5.6-3,8.7-3.7c1.5-0.3,3.1-0.6,4.7-0.6c1.6,0,3.1,0.3,4.6,0.6c0,0,0,0,0,0l0,0l0.1,0.2l0,0c0.3,0.6,0.4,1.2,0.2,1.9
						c-0.1,0.2-0.1,0.3-0.2,0.5l-0.2,0.4c-0.2,0.2-0.4,0.5-0.6,0.7c-1,0.8-2.2,1.2-3.3,1.4c-0.6,0.1-1.2,0.2-1.8,0.3
						c-0.6,0-1.2,0.1-1.8,0.1c-0.6,0-1.2,0-1.8,0L299.9,546.2z M299.9,546.2l1.8,0.1c0.6,0,1.2,0,1.8,0c0.6,0,1.2-0.1,1.8-0.1
						c0.6-0.1,1.2-0.1,1.8-0.3c1.2-0.2,2.4-0.6,3.3-1.4c0.2-0.2,0.4-0.4,0.6-0.7l0.2-0.4c0.1-0.1,0.1-0.3,0.1-0.4
						c0.1-0.6,0-1.2-0.2-1.8l0,0l-0.1-0.2l0,0c-1.5-0.4-3-0.6-4.6-0.6c-1.6,0-3.1,0.2-4.6,0.5c-3.1,0.7-6,1.9-8.7,3.6l0-0.1
						c1,0.6,2.2,0.9,3.3,1.2C297.5,546,298.7,546.1,299.9,546.2z"/>
				</g>
			</g>
		</g>
		<g>
			<g>
				<g>
					<path class="st10" d="M241.7,539.2c1.3-1.4,6.2-1.5,10.5-1.2c0-1.4,0-2.5,0.2-2.5c0.7,0.1,13.4-6.2,13.4-6.2s0.6,2.4,0,3.9
						c-0.7,1.5-3.7,2.9-4.2,4.8c-0.4,1.9-1.7,6.1-1.8,6.4c0,0,0,0,0,0l0,0h0c-0.1,0.5-0.3,0.9-0.6,1.2c-1.5,1.8-5.7,4.8-13,3.3
						C239.2,547.5,239.2,541.9,241.7,539.2z"/>
					<path class="st11" d="M240.7,540.7c-0.2,0.3-0.2,0.6-0.3,0.9l-0.1,0.5l0,0.2l0,0.2l0,0.5l0,0.5l0,0.2l0.1,0.2l0.1,0.5
						c0.2,0.6,0.5,1.2,0.9,1.7c0.8,1,1.8,1.6,2.9,2.1l0.8,0.3c0.3,0.1,0.6,0.1,0.8,0.2c0.6,0.2,1.1,0.2,1.7,0.3
						c2.3,0.3,4.7,0.3,6.9-0.4c1.1-0.3,2.2-0.9,3.1-1.5c0.5-0.3,0.9-0.7,1.4-1.2c0.2-0.2,0.4-0.4,0.6-0.7c0.2-0.3,0.3-0.6,0.3-0.9
						l0.1-0.1l-0.1,0.1c0.4-1.4,0.8-2.8,1.2-4.2c0.2-0.7,0.4-1.4,0.5-2.1c0.1-0.8,0.6-1.4,1.1-1.9c0.5-0.5,1-0.9,1.5-1.4
						c0.5-0.4,1-0.9,1.4-1.4c0.4-0.5,0.5-1.3,0.5-2c0-0.7-0.1-1.5-0.3-2.2l0.1,0.1c-2.6,1.3-5.1,2.5-7.7,3.7
						c-1.3,0.6-2.6,1.2-3.9,1.8c-0.3,0.1-0.7,0.3-1,0.4c-0.2,0.1-0.3,0.1-0.5,0.2c-0.1,0-0.2,0.1-0.3,0.1l-0.1,0c0,0,0,0-0.1,0.1
						c-0.1,0.4-0.1,0.8-0.1,1.2c0,0.4,0,0.8,0,1.2l0,0c0,0,0,0,0,0c-1.8-0.1-3.6-0.2-5.4-0.1c-0.9,0-1.8,0.1-2.7,0.3
						c-0.9,0.2-1.8,0.4-2.5,1C241.3,539.6,241,540.1,240.7,540.7z M244.2,538.1c0.9-0.2,1.8-0.2,2.7-0.3c1.8-0.1,3.6,0,5.4,0.1l0,0
						c0-0.4,0-0.8,0-1.2c0-0.4,0-0.8,0.1-1.2c0,0,0-0.1,0.1-0.1c0.1,0,0.1,0,0.1,0c0.1,0,0.2,0,0.2-0.1c0.2-0.1,0.3-0.1,0.5-0.2
						c0.3-0.1,0.7-0.3,1-0.4c1.3-0.6,2.6-1.2,3.9-1.8c2.6-1.2,5.1-2.5,7.7-3.8c0,0,0,0,0,0c0,0,0.1,0,0.1,0.1
						c0.2,0.7,0.3,1.5,0.3,2.2c0,0.7-0.1,1.5-0.5,2.1c-0.4,0.6-1,1-1.5,1.5c-0.5,0.4-1,0.9-1.5,1.4c-0.5,0.5-0.9,1.1-1,1.8
						c-0.2,0.7-0.4,1.4-0.5,2.1c-0.4,1.4-0.8,2.8-1.2,4.2l0,0.1c0,0,0,0,0,0c0,0,0,0,0,0c0,0,0,0,0,0l0.1-0.1
						c-0.1,0.3-0.2,0.6-0.4,0.9c-0.2,0.3-0.4,0.5-0.6,0.7c-0.4,0.4-0.9,0.8-1.4,1.2c-1,0.7-2.1,1.2-3.2,1.5
						c-2.2,0.7-4.6,0.7-6.9,0.4c-0.6-0.1-1.2-0.2-1.7-0.3c-0.3-0.1-0.6-0.1-0.9-0.2l-0.8-0.3c-1.1-0.5-2.1-1.1-2.9-2.1
						c-0.4-0.5-0.7-1.1-0.9-1.7l-0.1-0.5l-0.1-0.2l0-0.2l0-0.5l0-0.5l0-0.2l0-0.2l0.1-0.5c0.1-0.3,0.2-0.6,0.3-0.9
						c0.2-0.6,0.6-1.1,1-1.6C242.4,538.5,243.3,538.3,244.2,538.1z"/>
				</g>
				<g>
					<path class="st12" d="M241.8,538.9c8-2.4,15.4,2.5,17.2,3.7c2.7-1.7,1.4-4.3,2.2-5.6c1.2-1.9,4.3-5.6,4.7-7.7
						c0.4-2.1-0.5-4.5-0.5-4.5s0.6-2.3-0.7-1.5c-1.3,0.8-1.9,2.8-2.4,2c-0.5-0.8-1.2-5.8-6.2-4.4c-5,1.5-4.4,4.7-6.3,8.1
						C248.1,532.4,243,536.8,241.8,538.9z"/>
					<path class="st12" d="M243.3,536.7c0.5-0.6,1-1.2,1.6-1.8c1.1-1.2,2.1-2,3.1-3.2c0.5-0.6,1-1.2,1.4-1.9
						c0.4-0.7,0.8-1.4,1.1-2.2c0.6-1.5,1-3.2,2-4.5c0.5-0.6,1.1-1.1,1.8-1.5l0.3-0.1l0.3-0.1l0.5-0.2c0.4-0.1,0.7-0.3,1.1-0.3
						c0.4-0.1,0.7-0.2,1.1-0.2c0.4-0.1,0.8,0,1.1,0c0.8,0.1,1.5,0.5,2.1,1.1c0.6,0.6,1,1.4,1.3,2.1c0.2,0.4,0.3,0.8,0.4,1.2
						c0.1,0.2,0.2,0.4,0.3,0.3c0.1,0,0.3-0.2,0.4-0.3c0.5-0.6,0.9-1.3,1.6-1.8c0.2-0.1,0.3-0.2,0.6-0.2c0.1,0,0.2,0,0.3,0.1
						c0.1,0.1,0.1,0.2,0.2,0.3c0.1,0.5,0,0.9-0.1,1.3l0-0.1c0.3,0.8,0.4,1.7,0.5,2.5c0,0.4,0,0.9,0,1.3c0,0.4-0.1,0.9-0.2,1.3
						c-0.3,0.8-0.7,1.5-1.1,2.2c-0.4,0.7-0.9,1.4-1.4,2l-1.4,2c-0.2,0.3-0.5,0.7-0.7,1c-0.2,0.3-0.3,0.8-0.3,1.2
						c-0.1,0.8-0.1,1.7-0.4,2.5c-0.3,0.8-0.9,1.4-1.6,1.8c0,0,0,0-0.1,0c-2.6-1.7-5.4-3.1-8.3-3.8c-1.5-0.4-2.9-0.6-4.4-0.6
						c-1.5,0-3,0.2-4.4,0.6C242.2,538.2,242.8,537.3,243.3,536.7z"/>
				</g>
				<g>
					<path class="st14" d="M256.9,524.4c1.2,0.1,2.5,0.1,3.7,0.3c0.8,0.2,1.2,0.6,1.7,1.1c0.9,1,2,2.6,1.3,3.9
						c-0.6,1.3-2.5,0.3-3.3-0.2c-1.8-1.2-1.6-3.3-3.8-4.3c-0.5-0.2,0-0.9,0.5-0.6c0.9,0.4,1.6,1,2.1,1.7c0.7,1.1,0.9,2.6,2.6,3.1
						c0.2,0.1,0.4,0.2,0.7,0.1c0.4,0.1,0.6,0,0.5-0.3c0.1-0.3,0-0.9-0.1-1.2c-0.2-0.6-0.6-1.2-1.1-1.7c-1.1-1.2-3.1-1-4.8-1.2
						C256.3,525,256.3,524.3,256.9,524.4L256.9,524.4z"/>
				</g>
				<g>
					<path class="st14" d="M256.5,525.2c-1.4-0.3-3.2-0.3-4.6,0.2c-0.9,0.3-1.5,0.8-1.9,1.6c-0.3,0.5-0.9,1.6,0.4,0.9
						c0.9-0.4,1.5-1.4,2.4-2c1-0.6,2.2-1,3.5-1.2c0.6-0.1,0.8,0.6,0.2,0.7c-1.4,0.2-2.6,0.7-3.7,1.5c-0.7,0.5-1.1,1.3-1.9,1.7
						c-0.8,0.4-2.2,0.6-2.3-0.4c-0.1-1.2,1.3-2.7,2.5-3.3c1.6-0.7,4-0.7,5.6-0.3C257.2,524.6,257,525.3,256.5,525.2L256.5,525.2z"/>
				</g>
				<g>
					<path class="st14" d="M257,524.9c1,2.7,4.5,4.7,3.1,7.9c-0.1,0.1-0.2,0.3-0.4,0.3c-0.1,0-0.1,0-0.2,0c-0.2,0-0.4-0.1-0.4-0.3
						c0,0,0-0.1,0-0.1c-0.2-0.4,0.7-0.6,0.9-0.2c-0.5-0.3-0.6-0.7-0.5-1.2c0-0.5-0.1-1.1-0.2-1.6c-0.3-0.7-0.7-1.3-1.2-1.9
						c-0.7-0.9-1.4-1.7-1.8-2.8C256,524.7,256.8,524.5,257,524.9L257,524.9z"/>
				</g>
				<g>
					<path class="st14" d="M256.2,525.3c-1.7,0.5-2.8,1.7-3.9,2.9c-1,1.1-1.9,2.1-2.8,3.3c-0.3,0.4-1.1,0-0.7-0.4
						c1.1-1.4,2.3-2.8,3.6-4c1-1,2.1-2,3.7-2.4C256.6,524.5,256.8,525.2,256.2,525.3L256.2,525.3z"/>
				</g>
				<g>
					<path class="st14" d="M260.6,531.7c-2.7-1.4-6.3-2.6-9.4-1.7c-0.5,0.2-0.7-0.6-0.2-0.7c3.4-1,7.2,0.3,10.1,1.8
						C261.5,531.3,261.1,531.9,260.6,531.7L260.6,531.7z"/>
				</g>
				<g>
					<path class="st14" d="M259,533.9c-3.5-1.1-7.1-1.5-10.8-1.4c-0.6,0-0.5-0.7,0-0.7c3.8-0.1,7.4,0.3,11,1.4
						C259.8,533.3,259.5,534,259,533.9L259,533.9z"/>
				</g>
				<g>
					<path class="st14" d="M255.1,535.4c-2.6-0.6-5-0.1-8.2,0c-0.6,0-0.5-0.7,0-0.7c3.4-0.1,9.1-1.4,10.7,1.5
						c0.3,0.5-0.8,0.2-1.3-0.1L255.1,535.4z"/>
				</g>
				<g>
					<path class="st14" d="M255,539c-3.3-1.2-6.7-1.7-10.3-1.5c-0.6,0-0.5-0.7,0-0.7c3.7-0.2,7.2,0.3,10.6,1.5
						C255.8,538.5,255.5,539.2,255,539L255,539z"/>
				</g>
				<g>
					<path class="st14" d="M252.5,544.3c3.3-0.3,5.3-0.9,6.5-1.7c-1.8-1.2-9.2-6.1-17.2-3.7c0,0.1-0.1,0.2-0.1,0.2
						C240.8,541.2,241.7,545.3,252.5,544.3z"/>
					<path class="st15" d="M250.8,544.4c-0.6,0-1.1,0-1.7,0c-0.6,0-1.1,0-1.7-0.1c-0.6-0.1-1.1-0.1-1.7-0.3
						c-1.1-0.2-2.3-0.6-3.2-1.5c-0.2-0.2-0.4-0.5-0.6-0.7l-0.2-0.4c-0.1-0.1-0.1-0.3-0.1-0.5c-0.1-0.6-0.1-1.3,0.2-1.9l0,0l0.1-0.2
						l0,0c0,0,0,0,0,0c1.4-0.4,2.9-0.6,4.4-0.7c1.5,0,3,0.2,4.5,0.6c2.9,0.7,5.7,2.1,8.3,3.9c0,0,0,0,0,0c0,0,0,0,0,0.1
						c-1,0.6-2.1,0.9-3.2,1.2c-1.1,0.2-2.2,0.4-3.4,0.5L250.8,544.4z M255.9,543.8c1.1-0.3,2.2-0.6,3.2-1.2l0,0.1
						c-2.6-1.7-5.4-3-8.3-3.7c-1.5-0.3-2.9-0.5-4.4-0.5c-1.5,0-3,0.2-4.4,0.6l0,0l-0.1,0.2l0,0c-0.3,0.6-0.3,1.2-0.2,1.8
						c0,0.1,0.1,0.3,0.1,0.4l0.2,0.4c0.2,0.2,0.3,0.5,0.6,0.7c0.9,0.8,2,1.2,3.1,1.5c0.6,0.2,1.1,0.2,1.7,0.3c0.6,0,1.1,0.1,1.7,0.1
						c0.6,0,1.1,0,1.7,0l1.7-0.1C253.6,544.2,254.8,544.1,255.9,543.8z"/>
				</g>
			</g>
		</g>
	</g>
	<g>
		<path class="st2" d="M314.3,250.6c-0.4-2-0.8-4.1-1.3-6.1c-0.5-2-1-4-1.6-6c0.9,1.9,1.6,3.9,2.1,5.9
			C313.9,246.5,314.2,248.5,314.3,250.6z"/>
	</g>
	<g>
		<path class="st2" d="M238.7,253.3c0.3-2.8,1-5.6,2-8.3c1-2.7,2.2-5.3,3.8-7.7c-1.2,2.6-2.4,5.2-3.4,7.8
			C240.2,247.8,239.4,250.6,238.7,253.3z"/>
	</g>
</g>
</svg>
