<?xml version="1.0" encoding="utf-8"?>
<!-- Generator: Adobe Illustrator 24.2.3, SVG Export Plug-In . SVG Version: 6.00 Build 0)  -->
<svg version="1.1" id="tenue_x5F_feminine_x5F_7" xmlns="http://www.w3.org/2000/svg" xmlns:xlink="http://www.w3.org/1999/xlink"
	 x="0px" y="0px" viewBox="0 0 553 574" style="enable-background:new 0 0 553 574;" xml:space="preserve">
<style type="text/css">
	.st0{fill:none;}
	.st1{fill:#FFC879;}
	.st2{fill:#E5AC61;}
	.st3{fill:#CE9552;}
	.st4{fill:#BE8448;}
	.st5{fill:#5A2712;}
	.st6{fill:#3C1910;}
</style>
<g id="cadre_8_">
	<rect x="0" class="st0" width="553" height="574"/>
</g>
<g>
	<g>
		<path class="st1" d="M305.5,205.3c6.3-3.9,14.8-1.8,20.4,3.1c5.6,4.9,8.9,11.9,11.7,18.9c4.3,10.7,7.9,21.7,12,32.7
			c-2.1,3-5.8,4.6-9.4,5.2c-3.6,0.6-7.3,0.5-10.9,1c-3.6,0.5-7.3,1.7-9.9,4.2c-2.1-4.6-3.7-8-4.1-13.1c1.4,5.7-1.8,9.9-2.2,15.8
			c-0.3,5,1.6,9.9,3.2,15c12.7,30.6,8.1,66.8,23.7,97.7c-5.1,9.4-14.4,16.3-24.7,18.3c-14.2,2.7-28.7-3.5-43.1-2.7
			c-8.6,0.5-16.9,3.4-25.4,4.1s-18.2-1.3-23.9-8.2c5.1-29.2-4.5-60.1,4-88.5c2.6-8.6,6.7-16.6,9.3-25.1c2.6-8.6,5.4-16.2,1.8-24.3
			c-2.9,5.7-5.3,11-8.5,16.3c-4.3,0.3-10.7-3.8-14.4-6.1c-3.7-2.3-7.9-4.5-11.3-3.9c1.2-9.3,2.3-18.7,5-27.7c2.7-9,7.1-17.6,13.8-24
			c6.7-6.4,15.9-10.4,25.8-8.7c5.9,4.6,4.5,15.2,10.4,19.9c2.7,2.2,6.4,2.5,9.9,2.6c5.3,0.3,10.6,0.4,15.9,0.3c3.8,0,8-0.2,10.8-2.8
			C300.9,220.5,298.6,209.6,305.5,205.3z"/>
		<path class="st2" d="M305.5,205.3c2.8-1.8,6.3-2.3,9.5-1.9c3.3,0.4,6.4,1.7,9.1,3.6c2.7,1.9,4.9,4.4,6.8,7.1
			c1.9,2.7,3.4,5.7,4.8,8.7c2.7,6,4.9,12.3,7.2,18.5c2.2,6.2,4.4,12.5,6.7,18.6l0,0l0,0c-1.6,2.3-4.1,3.7-6.7,4.6
			c-2.6,0.8-5.4,1.1-8.1,1.2c-2.7,0.2-5.5,0.3-8.1,0.9c-2.6,0.6-5.2,1.8-7.2,3.7l-0.1,0.1l0-0.1c-0.9-2.1-1.9-4.2-2.7-6.4
			c-0.8-2.2-1.3-4.4-1.5-6.7l0.2,0c0.7,2.6,0.3,5.3-0.4,7.8c-0.7,2.5-1.6,5-1.8,7.7c-0.2,2.6,0.2,5.2,0.9,7.8c0.7,2.5,1.6,5,2.3,7.5
			l0,0c3.2,7.8,5.4,16,7,24.2c1.6,8.3,2.7,16.6,3.9,24.9c1.2,8.3,2.5,16.6,4.5,24.8c2,8.2,4.6,16.2,8.4,23.7l0,0.1l0,0.1
			c-5.1,9.4-14.4,16.4-24.9,18.4c-5.2,1-10.6,0.8-15.9,0.2c-5.3-0.6-10.5-1.6-15.7-2.3c-5.2-0.7-10.6-0.9-15.8-0.1
			c-5.2,0.7-10.4,2.1-15.6,3c-5.2,0.9-10.6,1.3-15.9,0.2c-2.6-0.6-5.2-1.4-7.5-2.7c-2.3-1.3-4.5-3-6.2-5l-0.1-0.1l0-0.1
			c2-11.5,1.7-23.3,1.2-35c-0.5-11.7-1.4-23.4-0.4-35.2c0.5-5.8,1.4-11.7,3-17.3c1.6-5.7,4-11.1,6.1-16.5c1.1-2.7,2.1-5.5,3-8.2
			c0.9-2.8,1.8-5.6,2.5-8.4c0.8-2.8,1.4-5.7,1.4-8.6c0.1-2.9-0.5-5.8-1.6-8.5l0.3,0c-2.8,5.5-5.4,11-8.5,16.3l0,0.1l-0.1,0
			c-2.4,0.1-4.7-0.8-6.8-1.8c-2.1-1-4.2-2.2-6.2-3.4c-2-1.2-4-2.5-6.1-3.4c-2.1-1-4.4-1.7-6.7-1.3l-0.2,0l0-0.2
			c0.9-7,1.7-14,3.3-20.9c1.5-6.9,3.7-13.6,7.2-19.8c3.4-6.1,8-11.7,14-15.5c3-1.9,6.3-3.3,9.7-4c1.7-0.4,3.5-0.6,5.2-0.6
			c1.8,0,3.5,0.1,5.3,0.4l0,0l0,0c1.4,1.1,2.4,2.6,3.2,4.1c0.8,1.6,1.3,3.2,1.8,4.9c1,3.3,1.8,6.8,4.1,9.5c1.1,1.3,2.6,2.3,4.3,2.9
			c1.6,0.6,3.4,0.8,5.1,1c3.5,0.2,7,0.3,10.4,0.4l5.2,0.1c1.7,0,3.5,0,5.2-0.1c1.7-0.1,3.5-0.4,5.1-1.1c1.6-0.7,3-1.8,4-3.2
			c1-1.4,1.6-3.1,2.1-4.8c0.5-1.7,0.8-3.4,1.3-5.1c0.5-1.7,1-3.4,1.8-4.9C302.9,207.5,304,206.2,305.5,205.3z M305.5,205.3
			c-1.5,0.9-2.7,2.3-3.5,3.8c-0.8,1.5-1.4,3.2-1.8,4.9c-0.4,1.7-0.8,3.4-1.3,5.1c-0.5,1.7-1.1,3.3-2,4.8c-1,1.5-2.4,2.6-4,3.3
			c-1.6,0.7-3.4,1-5.1,1.1c-1.7,0.1-3.5,0.1-5.2,0.1l-5.2-0.1c-3.5-0.1-7-0.2-10.4-0.4c-1.7-0.1-3.5-0.4-5.1-0.9
			c-1.7-0.6-3.2-1.6-4.3-2.9c-1.1-1.3-1.9-2.9-2.5-4.6c-0.6-1.6-1.1-3.3-1.6-5c-0.5-1.7-1-3.3-1.8-4.9c-0.7-1.6-1.8-3-3.1-4.1l0,0
			c-1.7-0.3-3.5-0.4-5.2-0.4c-1.8,0.1-3.5,0.3-5.2,0.7c-3.4,0.8-6.7,2.2-9.7,4c-6,3.7-10.6,9.3-14,15.5c-3.4,6.2-5.6,12.9-7.1,19.8
			c-1.5,6.9-2.4,13.9-3.2,20.8l-0.1-0.1c2.4-0.4,4.7,0.4,6.8,1.4c2.1,1,4.1,2.2,6.1,3.4c2,1.2,4,2.4,6.1,3.4
			c2.1,0.9,4.3,1.8,6.7,1.7l-0.1,0.1c3.2-5.2,5.7-10.8,8.5-16.3l0.1-0.3l0.1,0.3c1.2,2.7,1.8,5.7,1.7,8.6c-0.1,3-0.7,5.9-1.4,8.7
			c-0.8,2.8-1.6,5.6-2.5,8.4c-0.9,2.8-1.9,5.5-3,8.3c-2.2,5.4-4.5,10.8-6.1,16.5c-1.6,5.6-2.5,11.4-3,17.3
			c-0.9,11.7-0.1,23.4,0.5,35.1c0.5,11.7,0.8,23.5-1.2,35.1l-0.1-0.2c1.7,2,3.8,3.7,6.1,4.9c2.3,1.3,4.8,2.1,7.4,2.6
			c5.2,1.1,10.5,0.8,15.7-0.2c5.2-0.9,10.3-2.2,15.6-3c5.3-0.8,10.6-0.5,15.9,0.1c5.3,0.7,10.5,1.7,15.7,2.3
			c5.2,0.6,10.6,0.8,15.8-0.2c10.4-2,19.6-8.9,24.6-18.2l0,0.2c-3.8-7.5-6.5-15.6-8.4-23.8c-2-8.2-3.3-16.5-4.4-24.9
			c-1.2-8.3-2.3-16.7-3.9-24.9c-1.6-8.3-3.7-16.4-6.9-24.2l0,0l0,0c-0.8-2.5-1.7-5-2.3-7.6c-0.7-2.5-1.1-5.2-0.9-7.8
			c0.2-2.7,1.1-5.2,1.8-7.7c0.7-2.5,1.1-5.2,0.4-7.8l0.2,0c0.2,2.3,0.7,4.5,1.4,6.7c0.8,2.2,1.7,4.3,2.7,6.3l-0.1,0
			c2-1.9,4.6-3.1,7.3-3.7c2.7-0.7,5.4-0.8,8.2-0.9c2.7-0.2,5.5-0.4,8.1-1.2c2.6-0.8,5.1-2.3,6.6-4.5l0,0c-2.3-6.2-4.5-12.4-6.7-18.6
			c-2.2-6.2-4.5-12.4-7.2-18.5c-1.3-3-2.9-6-4.7-8.7c-1.9-2.7-4.1-5.2-6.8-7.1c-2.7-1.9-5.8-3.2-9.1-3.6
			C311.8,202.9,308.4,203.5,305.5,205.3z"/>
	</g>
	<g>
		<path class="st2" d="M305.3,204.8c-1.7,6.4-3.3,12.7-5,19.1c-0.4,1.5-0.8,3.1-1.8,4.2c-1.6,1.8-4.2,2-6.5,2.1
			c-7.5,0.3-15,0.6-22.5,0.9c-3.4,0.1-6.9,0.2-9.9-1.4c-3.8-2.1-5.8-6.7-7.2-11.1c-1.3-4.4-2.4-9-4.8-13c2.3-0.9,5,0.7,6.3,3
			c1.3,2.3,1.6,5,1.9,7.6s0.8,5.4,2.3,7.4c2.8,3.8,8,4,12.5,3.9c5.4-0.1,10.7-0.2,16.1-0.4c2.6-0.1,5.4-0.2,7.5-1.8
			c3.2-2.4,3.6-7.2,4.3-11.3S301.2,205.1,305.3,204.8z"/>
		<g>
			<path class="st3" d="M305.3,204.8l-2.8,11.1l-1.4,5.6l-0.7,2.8c-0.2,0.9-0.5,1.9-0.9,2.7c-0.4,0.9-1.1,1.6-1.9,2.2
				c-0.8,0.5-1.8,0.8-2.7,1c-1.9,0.3-3.8,0.3-5.7,0.4l-11.4,0.5l-5.7,0.2c-1.9,0.1-3.8,0.2-5.7,0.2c-1.9,0-3.9-0.3-5.7-1
				c-1.8-0.7-3.3-2-4.5-3.6c-2.4-3.1-3.5-6.9-4.6-10.5c-1.1-3.7-2.1-7.3-4.1-10.6l-0.2-0.3l0.3-0.1c0.9-0.3,1.9-0.3,2.8-0.1
				c0.9,0.3,1.7,0.8,2.4,1.4c1.4,1.2,2.1,3,2.6,4.8c0.9,3.5,0.6,7.2,2.1,10.4c0.7,1.6,1.9,3,3.4,3.8c1.5,0.9,3.3,1.3,5,1.5
				c1.8,0.2,3.5,0.2,5.3,0.1l5.3-0.1l10.7-0.2c1.8-0.1,3.6-0.1,5.2-0.8c1.7-0.6,3-1.9,3.8-3.4c1.7-3.1,1.8-6.8,2.6-10.3
				c0.4-1.7,1.1-3.4,2.1-4.9C301.9,206.1,303.5,204.9,305.3,204.8z M305.3,204.8c-1.8,0.1-3.4,1.3-4.3,2.8c-1,1.5-1.6,3.2-2,4.9
				c-0.8,3.5-0.8,7.1-2.5,10.4c-0.8,1.6-2.2,2.9-4,3.5c-1.7,0.6-3.5,0.7-5.3,0.8l-10.7,0.3l-5.3,0.1c-1.8,0-3.6,0.1-5.4-0.1
				c-1.8-0.2-3.6-0.6-5.2-1.5c-1.6-0.9-2.9-2.3-3.6-4c-1.5-3.4-1.3-7.1-2.1-10.5c-0.4-1.7-1.1-3.4-2.4-4.5c-1.2-1.2-3.1-1.9-4.7-1.2
				l0.1-0.4c2,3.3,3.1,7.1,4.1,10.7c1,3.6,2.2,7.4,4.4,10.4c1.1,1.5,2.6,2.7,4.3,3.5c1.7,0.7,3.6,1,5.5,1c1.9,0,3.8-0.1,5.7-0.1
				l5.7-0.2l11.4-0.4c1.9-0.1,3.8-0.1,5.7-0.4c0.9-0.2,1.8-0.4,2.6-0.9c0.8-0.5,1.4-1.2,1.8-2.1c0.4-0.8,0.7-1.7,0.9-2.7l0.7-2.8
				l1.5-5.5L305.3,204.8z"/>
		</g>
	</g>
	<g>
		<path class="st3" d="M316.1,286.7c0.3-0.1,4,5.1-0.3,6.9c-2.1,0.9-4.2,1.6-6.5,2c-21.7,3.2-43.8,4.3-65.5,1.1
			c-3.3-0.5-6.8-1.2-9.1-3.7c-2.3-2.5-2.4-7.3,0.7-8.9c0,1.9,3.6,5.7,6.7,6.1c16.1,2,21.9,5.5,65.5,0.5
			C311.6,290.3,316,290.9,316.1,286.7z"/>
		<g>
			<path class="st4" d="M316.1,286.7c0.4,0.3,0.7,0.8,1,1.2c0.3,0.5,0.5,0.9,0.6,1.5c0.3,1,0.3,2.2-0.3,3.1
				c-0.3,0.4-0.7,0.8-1.2,1.1c-0.5,0.2-1,0.4-1.4,0.6c-1,0.4-2,0.7-3,1c-2,0.6-4.2,0.7-6.2,1.1c-2.1,0.3-4.2,0.6-6.3,0.8
				c-8.4,1-16.8,1.6-25.2,1.7c-8.4,0.1-16.9-0.2-25.2-1.2c-2.1-0.2-4.2-0.5-6.3-0.8c-2.1-0.4-4.2-0.9-6.1-2
				c-0.9-0.6-1.8-1.2-2.4-2.1c-0.6-0.9-1-1.9-1.2-3c-0.2-1.1-0.1-2.2,0.3-3.2c0.4-1,1.2-1.9,2.2-2.4l0.3-0.2l0,0.4
				c0,0.8,0.5,1.6,1,2.3c0.5,0.7,1.2,1.3,1.8,1.9c0.7,0.6,1.4,1,2.2,1.4c0.8,0.4,1.7,0.4,2.6,0.5c3.6,0.5,7.1,1.1,10.6,1.6
				c3.5,0.5,7.1,0.9,10.7,1.1c3.6,0.2,7.1,0.2,10.7,0.2c7.1-0.1,14.3-0.7,21.4-1.3c3.6-0.3,7.1-0.7,10.7-1c1.8-0.2,3.6-0.2,5.3-0.5
				c0.9-0.2,1.7-0.5,2.4-1.1C315.9,288.5,316.1,287.5,316.1,286.7z M316.1,286.7c0,0.9-0.3,1.8-0.9,2.5c-0.6,0.6-1.5,1-2.4,1.1
				c-1.8,0.3-3.6,0.3-5.3,0.6c-3.6,0.4-7.1,0.8-10.7,1.2c-7.1,0.7-14.3,1.2-21.4,1.4c-3.6,0.1-7.2,0-10.7-0.1
				c-3.6-0.2-7.1-0.6-10.7-1.1c-3.5-0.5-7.1-1.1-10.6-1.6c-0.9-0.1-1.8-0.2-2.7-0.6c-0.9-0.4-1.6-0.9-2.3-1.4
				c-0.7-0.6-1.4-1.2-1.9-1.9c-0.5-0.7-1.1-1.5-1.1-2.6l0.3,0.2c-0.9,0.5-1.6,1.3-1.9,2.2c-0.3,0.9-0.4,2-0.3,3c0.2,1,0.5,2,1.1,2.8
				c0.6,0.8,1.4,1.5,2.3,2c1.8,1.1,3.8,1.6,5.9,1.9c2.1,0.3,4.2,0.6,6.2,0.9c8.3,1,16.8,1.4,25.2,1.3c8.4-0.1,16.8-0.7,25.2-1.6
				c2.1-0.2,4.2-0.5,6.3-0.8c2.1-0.3,4.2-0.5,6.2-1c1-0.3,2-0.6,3-1c1-0.4,2-0.7,2.6-1.6c0.6-0.9,0.6-2,0.3-3
				c-0.1-0.5-0.3-1-0.6-1.5C316.8,287.4,316.6,286.9,316.1,286.7z"/>
		</g>
	</g>
	<g>
		<path class="st2" d="M276.6,294.8c1.2-0.3,2.4,0.5,2.9,1.6s0.2,2.5-0.5,3.4s-1.9,1.5-3.1,1.6c-1.2,0.1-2.4-0.3-3.2-1.1
			c-0.8-0.8-1.3-2.1-0.9-3.2c0.3-1,1.1-1.7,2.1-2.1C274.7,294.7,275.8,295,276.6,294.8z"/>
		<g>
			<path class="st3" d="M276.6,294.8c1-0.2,2,0.2,2.6,1c0.6,0.8,0.8,1.9,0.5,2.9c-0.3,1-1,1.8-1.9,2.3c-0.9,0.5-2,0.7-3,0.5
				c-1-0.2-2-0.7-2.7-1.5c-0.6-0.8-0.9-2-0.5-3c0.3-1,1.1-1.7,2.1-2.1C274.6,294.6,275.7,295,276.6,294.8z M276.6,294.8
				c-1,0.2-2-0.1-2.9,0.3c-0.9,0.4-1.6,1.2-1.8,2.1c-0.2,0.9,0.1,1.9,0.6,2.6c0.6,0.7,1.5,1.2,2.4,1.3c1.8,0.3,3.9-0.6,4.6-2.5
				c0.3-0.9,0.3-2-0.3-2.8C278.6,295.1,277.6,294.6,276.6,294.8z"/>
		</g>
	</g>
	<g>
		<path class="st2" d="M273,295.1c-0.9-2.4-3.5-3.9-6-4.2c-2.5-0.3-5,0.4-7.5,1.2s-4.8,1.8-7.3,2c1.9,2.5,3.9,5.2,6.7,6.7
			c4,2.3,9.4,1.7,12.9-1.3C271.1,298.3,271.4,296.5,273,295.1z"/>
		<g>
			<path class="st3" d="M273,295.1c-0.7-1.8-2.4-3.1-4.1-3.6c-1.8-0.6-3.7-0.5-5.6-0.2c-1.9,0.4-3.6,1.1-5.4,1.7
				c-1.8,0.6-3.7,1.2-5.6,1.4l0.2-0.4c1.2,1.5,2.4,3.1,3.7,4.4c1.4,1.3,3,2.5,4.8,3.1c1.8,0.6,3.8,0.7,5.7,0.4
				c1.9-0.3,3.7-1.2,5.2-2.4l0,0.1c-0.5-0.8-0.5-1.7-0.2-2.5C271.9,296.3,272.4,295.6,273,295.1z M273,295.1
				c-0.6,0.6-1.1,1.3-1.4,2.1c-0.2,0.8-0.2,1.7,0.3,2.4l0,0.1l-0.1,0.1c-3,2.6-7.3,3.5-11.1,2.3c-1.9-0.6-3.6-1.8-5-3.1
				c-1.4-1.4-2.6-2.9-3.8-4.5l-0.3-0.3l0.4,0c1.9-0.2,3.7-0.7,5.5-1.3c1.8-0.6,3.6-1.3,5.5-1.6c1.9-0.3,3.9-0.4,5.7,0.3
				C270.8,291.9,272.4,293.3,273,295.1z"/>
		</g>
	</g>
	<g>
		<path class="st2" d="M278.6,295.1c2.5-3.8,7.9-5.4,12-3.6c2,0.9,3.7,2.5,5.5,3.8s3.9,2.5,6.1,2.2c-3.1,2.7-6.5,5.6-10.5,6.3
			c-2.8,0.5-5.9-0.1-8.3-1.7C281.1,300.6,279.3,298,278.6,295.1z"/>
		<g>
			<path class="st3" d="M278.6,295.1c1.2-1.9,3.1-3.3,5.3-4c2.2-0.7,4.6-0.7,6.7,0.2c2.1,0.9,3.8,2.5,5.6,3.8c1.8,1.3,3.8,2.4,6,2.2
				l0.8-0.1l-0.6,0.5c-1.9,1.6-3.8,3.3-6,4.6c-2.2,1.3-4.7,2.1-7.2,1.9c-2.5-0.1-5-1.1-6.9-2.8C280.4,299.8,279.1,297.5,278.6,295.1
				z M278.6,295.1c0.6,2.4,2,4.6,3.9,6.2c1.9,1.6,4.3,2.5,6.8,2.6c2.5,0.1,4.9-0.7,7-1.9c2.1-1.2,4-2.9,5.9-4.5l0.2,0.4
				c-1.2,0.1-2.3-0.1-3.4-0.6c-1.1-0.4-2-1.1-2.9-1.7c-1.8-1.3-3.4-2.9-5.5-3.8C286.4,289.8,281.2,291.4,278.6,295.1z"/>
		</g>
	</g>
	<g>
		<path class="st2" d="M271.2,297.2c-3.2,0.6-6.6,0.1-9.5-1.4"/>
		<path class="st3" d="M271.2,297.2c-1.6,0.5-3.3,0.6-4.9,0.3c-1.6-0.3-3.2-0.8-4.6-1.8c1.5,0.6,3.1,1,4.6,1.3
			C267.9,297.3,269.5,297.3,271.2,297.2z"/>
	</g>
	<g>
		<path class="st2" d="M279.3,295.9c1.8-0.8,3.9-0.3,5.6,0.6s3.4,2,5.2,2.6"/>
		<path class="st3" d="M279.3,295.9c0.9-0.5,1.9-0.6,2.9-0.5c1,0.1,2,0.4,2.9,0.8c1.8,0.9,3.3,2,5.1,2.8c-1-0.2-1.9-0.6-2.7-1.1
			c-0.9-0.4-1.7-0.9-2.6-1.3c-0.9-0.4-1.8-0.7-2.7-0.9C281.2,295.6,280.2,295.6,279.3,295.9z"/>
	</g>
	<g>
		<path class="st2" d="M238.4,237c0,3.9-0.1,7.7-0.1,11.6c0,3.9,0.1,7.7,0.2,11.6c-0.5-3.8-0.7-7.7-0.7-11.6
			C237.9,244.7,238,240.8,238.4,237z"/>
	</g>
	<g>
		<path class="st2" d="M313.8,237.9c0.8,3.1,1.2,6.3,1.4,9.5c0.2,3.2,0.2,6.4,0.2,9.6c-0.3-3.2-0.4-6.4-0.7-9.6
			C314.5,244.3,314.2,241.1,313.8,237.9z"/>
	</g>
	<g>
		<path class="st2" d="M268.5,235.1c0.2,1.5,0.2,3.1,0.2,4.6c0,1.5-0.1,3.1-0.3,4.6c-0.2-1.5-0.2-3.1-0.2-4.6
			C268.2,238.2,268.3,236.6,268.5,235.1z"/>
	</g>
	<g>
		<path class="st2" d="M280.4,232.5c0,4.9,0,9.7-0.1,14.6l-0.2,14.6l-0.3,14.6c-0.1,4.9-0.3,9.7-0.4,14.6c0-4.9,0-9.7,0.1-14.6
			l0.2-14.6l0.3-14.6C280.1,242.2,280.2,237.4,280.4,232.5z"/>
	</g>
	<g>
		<path class="st2" d="M274.2,232.6c1.5-0.5,3.1,1.2,2.8,2.7c-0.4,1.5-2.5,2.2-3.7,1.2C272.1,235.4,272.5,233.1,274.2,232.6z"/>
		<g>
			<path class="st3" d="M274.2,232.6c1.1-0.4,2.4,0.4,2.8,1.6c0.2,0.6,0.2,1.3-0.1,1.8c-0.3,0.6-0.9,0.9-1.5,1.1
				c-0.6,0.2-1.3,0.1-1.9-0.2c-0.6-0.3-0.9-0.9-1-1.5C272.3,234.2,273.1,232.9,274.2,232.6z M274.2,232.6c-0.5,0.2-1,0.6-1.3,1.1
				c-0.3,0.5-0.3,1.1-0.1,1.6c0.1,0.5,0.5,1,1,1.2c0.5,0.2,1,0.2,1.5,0.1c1-0.2,1.8-1.3,1.5-2.4
				C276.5,233.2,275.4,232.2,274.2,232.6z"/>
		</g>
	</g>
	<g>
		<path class="st2" d="M273.6,253.8c1.6-0.3,3.1,1.5,2.6,3.1c-0.5,1.5-2.8,2-3.8,0.9C271.2,256.6,271.8,254.1,273.6,253.8z"/>
		<g>
			<path class="st3" d="M273.6,253.8c1.2-0.2,2.4,0.7,2.7,1.9c0.2,0.6,0.1,1.3-0.3,1.8c-0.4,0.5-1,0.9-1.6,1c-0.6,0.1-1.3,0-1.9-0.4
				c-0.5-0.4-0.8-1.1-0.8-1.7C271.6,255.3,272.4,254,273.6,253.8z M273.6,253.8c-0.6,0.1-1.1,0.5-1.4,1c-0.3,0.5-0.4,1.1-0.3,1.7
				c0.1,0.6,0.4,1.1,0.8,1.3c0.4,0.3,1,0.4,1.5,0.3c0.5-0.1,1-0.4,1.4-0.8c0.3-0.4,0.5-1,0.4-1.5
				C275.9,254.7,274.8,253.6,273.6,253.8z"/>
		</g>
	</g>
	<g>
		<path class="st2" d="M273.4,273.9c1.5-0.2,2.9,1.7,2.3,3.1c-0.6,1.5-2.8,1.9-3.8,0.7S271.5,274.1,273.4,273.9z"/>
		<g>
			<path class="st3" d="M273.4,273.9c1.2-0.1,2.3,0.9,2.5,2.1c0.1,0.6,0,1.3-0.4,1.8c-0.4,0.5-1,0.8-1.7,0.9
				c-0.6,0.1-1.3-0.1-1.8-0.5c-0.5-0.4-0.7-1.1-0.7-1.7C271.3,275.3,272.2,274.1,273.4,273.9z M273.4,273.9
				c-0.6,0.1-1.1,0.4-1.4,0.9c-0.3,0.5-0.4,1.1-0.4,1.6c0.1,0.6,0.3,1.1,0.7,1.4c0.4,0.3,1,0.4,1.5,0.4c1-0.1,2-1,1.9-2.1
				C275.6,275,274.6,273.8,273.4,273.9z"/>
		</g>
	</g>
	<g>
		<path class="st1" d="M223.8,331.8c4.1,1.1,8.6,2.3,12.6,0.8c5.2-2,8-7.8,9.3-13.4c1.2-5.6,1.5-11.5,4-16.6
			c-6.4,1-13.1-0.2-18.8-3.3C230.9,299.2,223.2,312.9,223.8,331.8z"/>
		<g>
			<path class="st2" d="M223.8,331.8c1.9,0.5,3.8,1,5.7,1.2c1.9,0.3,3.9,0.3,5.8-0.3c1.9-0.5,3.6-1.5,4.9-2.9c1.4-1.4,2.4-3,3.3-4.8
				c1.7-3.5,2.3-7.4,3-11.3c0.6-3.8,1.3-7.8,3-11.4l0.3,0.3c-6.5,1-13.2-0.2-18.9-3.3l0.3-0.1c-1.3,2.5-2.4,5.1-3.3,7.7
				c-0.9,2.6-1.7,5.3-2.3,8.1c-0.6,2.7-1.1,5.5-1.3,8.3C223.9,326.2,223.8,329,223.8,331.8z M223.8,331.8c-0.1-2.8-0.1-5.6,0.2-8.4
				c0.2-2.8,0.6-5.6,1.2-8.3c0.6-2.8,1.3-5.5,2.2-8.1c0.9-2.7,1.9-5.3,3.3-7.8l0.1-0.2l0.2,0.1c5.7,3.1,12.3,4.2,18.7,3.2l0.4-0.1
				l-0.2,0.4c-1.7,3.5-2.4,7.4-3,11.2c-0.6,3.8-1.3,7.8-3.1,11.3c-0.9,1.8-1.9,3.5-3.4,4.8c-1.4,1.4-3.2,2.5-5.1,2.9
				c-1.9,0.5-3.9,0.4-5.9,0.2C227.6,332.8,225.7,332.3,223.8,331.8z"/>
		</g>
	</g>
	<g>
		<path class="st1" d="M326.3,333.5c-4.7,1.6-9.9,3.2-14.5,1.3c-5.2-2.1-7.9-8-9-13.6c-1-5.6-0.9-11.5-2.5-16.9
			c6.8,1.1,14,0.1,20.3-2.8C320.6,301.4,325.3,316.8,326.3,333.5z"/>
		<g>
			<path class="st2" d="M326.3,333.5c-1.9,0.7-3.9,1.3-5.9,1.8c-2,0.4-4.1,0.6-6.1,0.4c-2-0.3-4-1.2-5.6-2.5c-1.6-1.3-2.8-3-3.8-4.9
				c-0.9-1.8-1.6-3.8-2.1-5.8c-0.5-2-0.7-4-0.9-6.1c-0.4-4.1-0.7-8.2-1.9-12.1l-0.1-0.4l0.4,0.1c3.4,0.5,6.9,0.6,10.3,0.1
				c3.4-0.5,6.8-1.4,9.9-2.8l0.2-0.1l0.1,0.2c1.5,5.2,2.7,10.5,3.7,15.9c0.5,2.7,0.9,5.4,1.2,8.1C325.9,328,326.1,330.8,326.3,333.5
				z M326.3,333.5c-0.2-2.7-0.5-5.4-0.9-8.1c-0.4-2.7-0.8-5.4-1.3-8c-1-5.3-2.2-10.6-3.8-15.8l0.3,0.1c-3.2,1.5-6.5,2.5-10,2.9
				c-3.4,0.5-7,0.5-10.4-0.1l0.3-0.3c1.2,4,1.4,8.1,1.8,12.2c0.2,2,0.5,4.1,0.9,6c0.4,2,1.1,3.9,2,5.7c0.9,1.8,2.1,3.5,3.7,4.8
				c1.5,1.3,3.4,2.2,5.4,2.5c2,0.3,4.1,0.2,6.1-0.2C322.4,334.7,324.4,334.1,326.3,333.5z"/>
		</g>
	</g>
	<g>
		<g>
			<path class="st5" d="M265.1,516.9c0.1,0.2,0.1,0.4,0.1,0.6c0,0.9-0.1,1.8-0.1,2.8c-4.1,0.9-8.4,0.6-12.3-0.9
				c-0.3-1-0.4-2.2-0.3-3.4c1.1-0.1,2.9,0.5,3.9,0.8c2,0.6,2.7,0.5,5.2,0.3C262.5,517,264.8,516.6,265.1,516.9z"/>
			<path class="st6" d="M265.1,516.9c0.2,0.2,0.1,0.5,0.1,0.8l0,0.8l0,1.7l0,0l0,0c-2,0.5-4.1,0.7-6.2,0.6c-2.1-0.1-4.2-0.6-6.1-1.3
				l-0.1,0l0-0.1c-0.3-1.1-0.4-2.3-0.3-3.5l0-0.2l0.2,0c1.2-0.1,2.2,0.3,3.2,0.6c1,0.3,2,0.7,3.1,0.7c1,0.1,2.1,0,3.2-0.1l1.6-0.2
				c0.3,0,0.5,0,0.8,0C264.5,516.8,264.8,516.7,265.1,516.9z M265.1,516.9c-0.2-0.1-0.5-0.1-0.8-0.1c-0.3,0-0.5,0-0.8,0.1l-1.6,0.2
				c-1.1,0.1-2.1,0.2-3.2,0.2c-1.1,0-2.1-0.3-3.1-0.6c-1-0.3-2.1-0.6-3-0.5l0.2-0.2c-0.1,1.1,0,2.2,0.3,3.3l-0.1-0.2
				c1.9,0.8,3.9,1.2,6,1.4c2.1,0.2,4.1,0.1,6.2-0.3l0,0l0.1-1.7l0-0.8C265.2,517.4,265.2,517.1,265.1,516.9z"/>
		</g>
		<g>
			<g>
				<path class="st6" d="M265.6,530.3c0-0.1,0-0.3-0.1-0.4c0-0.2-0.1-0.4-0.1-0.6c0-0.3-0.1-0.5-0.1-0.8c0,0,0,0,0,0c0,0,0,0,0,0
					c0,0,0,0,0,0c0,0,0,0,0,0c0,0,0,0,0,0c0,0,0,0,0,0c0,0,0,0,0,0c0.1,0.3,0.1,0.6,0.1,0.9c0,0,0,0.1,0,0.1c0,0.9-0.3,1.9-0.8,2.6
					c-0.6,1.1-1.7,1.6-2.6,2.5c-1-0.7-2-1.3-3.1-1.8c-1.1-0.5-2.2-1-3.4-1.3c-2.4-0.6-4.8-0.8-7.2-0.4l-0.1,0l0,0.1l-1.6,2.9
					l-0.1,0.1l0.1,0c1.2,0,2.3-0.1,3.5-0.1c1.2,0,2.3,0.1,3.5,0.3c-0.4-0.1-0.9-0.1-1.3-0.2c0.4,0.1,0.9,0.1,1.3,0.2
					c1.4,0.3,2.7,0.8,3.9,1.5c1.1,0.6,2.1,1.4,2.9,2.4c-0.2,0.6-0.4,1.2-0.8,1.7c-0.4,0.5-1,0.8-1.5,1c-1.2,0.4-2.5,0.3-3.7,0.3
					c-1.3,0-2.5-0.1-3.8-0.4c-2.5-0.5-4.8-1.5-6.8-3l-0.2-0.2l-0.1,0.3c-0.3,0.8-0.4,1.6-0.3,2.4c0.1,0.4,0.2,0.8,0.5,1.1
					c0.2,0.4,0.6,0.6,0.9,0.8c1.3,0.9,2.9,1.2,4.4,1.6c1.5,0.3,3,0.6,4.6,0.7c1.5,0.1,3.1,0.2,4.6-0.4c1.5-0.6,2.6-1.8,3.4-3.2
					c0.4-0.7,0.6-1.4,0.8-2.2c0.1-0.8,0.2-1.5,0.4-2.3c0.2-0.7,0.9-1.2,1.5-1.7c0.3-0.2,0.6-0.5,0.8-0.8c0.2-0.3,0.3-0.7,0.4-1.1
					c0.1-0.8,0.1-1.5,0.1-2.3C265.6,530.6,265.6,530.5,265.6,530.3z M264.8,531.7c0-0.1,0.1-0.2,0.1-0.2
					C264.9,531.6,264.9,531.7,264.8,531.7z M265.1,531.1c0-0.1,0.1-0.3,0.1-0.4C265.2,530.8,265.2,530.9,265.1,531.1z M265.3,528.5
					c0.1,0.3,0.1,0.5,0.1,0.8C265.4,529,265.4,528.8,265.3,528.5z M265.3,530.2c0-0.2,0-0.4,0.1-0.6
					C265.4,529.8,265.4,530,265.3,530.2z"/>
			</g>
		</g>
		<g>
			<path class="st5" d="M287.1,516.6c-0.1,0.2-0.1,0.4-0.1,0.6c0,0.9,0.1,1.8,0.1,2.8c4.1,0.9,8.4,0.6,12.3-0.9
				c0.3-1,0.4-2.2,0.3-3.4c-1.1-0.1-2.9,0.5-3.9,0.8c-2,0.6-2.7,0.5-5.2,0.3C289.7,516.7,287.3,516.3,287.1,516.6z"/>
			<path class="st6" d="M287.1,516.6c-0.2,0.2-0.1,0.5-0.1,0.8l0,0.8l0.1,1.7l0,0c2,0.4,4.1,0.5,6.2,0.3c2-0.2,4.1-0.7,6-1.4
				l-0.1,0.2c0.3-1.1,0.4-2.2,0.3-3.3l0.2,0.2c-1-0.1-2,0.2-3,0.5c-1,0.3-2.1,0.6-3.1,0.6c-1.1,0-2.1-0.1-3.2-0.2l-1.6-0.2
				c-0.3,0-0.5-0.1-0.8-0.1C287.6,516.5,287.3,516.4,287.1,516.6z M287.1,516.6c0.2-0.1,0.5-0.1,0.8-0.1c0.3,0,0.5,0,0.8,0l1.6,0.2
				c1.1,0.1,2.1,0.1,3.2,0.1c1-0.1,2-0.4,3.1-0.7c1-0.3,2-0.7,3.2-0.6l0.2,0l0,0.2c0.1,1.2,0,2.3-0.3,3.5l0,0.1l-0.1,0
				c-2,0.7-4,1.2-6.1,1.3c-2.1,0.1-4.2-0.1-6.2-0.6l0,0l0,0l0-1.7l0-0.8C287,517.1,286.9,516.8,287.1,516.6z"/>
		</g>
		<g>
			<g>
				<path class="st6" d="M308.6,539.6l-0.1-0.3l-0.2,0.2c-1.9,1.6-4.3,2.6-6.8,3c-1.2,0.2-2.5,0.4-3.8,0.4c-1.3,0-2.5,0.1-3.7-0.3
					c-0.6-0.2-1.1-0.5-1.5-1c-0.4-0.5-0.6-1.1-0.8-1.7c0.8-1,1.8-1.8,2.9-2.4c1.2-0.7,2.6-1.2,3.9-1.5c0.5-0.1,0.9-0.2,1.3-0.2
					c-0.4,0.1-0.9,0.1-1.3,0.2c1.1-0.2,2.3-0.3,3.5-0.3c1.2,0,2.3,0.1,3.5,0.1l0.1,0l-0.1-0.1l-1.6-2.9l0-0.1l-0.1,0
					c-2.4-0.4-4.9-0.3-7.2,0.4c-1.2,0.3-2.3,0.8-3.4,1.3c-1.1,0.5-2.1,1.1-3.1,1.8c-0.8-0.9-2-1.4-2.6-2.5c-0.5-0.8-0.8-1.7-0.8-2.6
					c0,0,0-0.1,0-0.1c0-0.3,0-0.6,0.1-0.9c-0.1,0.3-0.1,0.5-0.1,0.8c0-0.3,0-0.5,0.1-0.8c-0.1,0.3-0.1,0.5-0.2,0.8
					c0,0.2-0.1,0.4-0.1,0.6c0,0.1,0,0.3-0.1,0.4c0,0.2,0,0.3-0.1,0.5c0,0.8,0,1.5,0.1,2.3c0.1,0.4,0.2,0.8,0.4,1.1
					c0.2,0.3,0.5,0.6,0.8,0.8c0.6,0.4,1.3,0.9,1.5,1.7c0.3,0.7,0.3,1.5,0.4,2.3c0.1,0.8,0.4,1.5,0.8,2.2c0.7,1.4,1.9,2.6,3.4,3.2
					c1.5,0.6,3.1,0.5,4.6,0.4c1.5-0.1,3.1-0.4,4.6-0.7c1.5-0.3,3.1-0.7,4.4-1.6c0.3-0.2,0.6-0.5,0.9-0.8c0.2-0.3,0.4-0.7,0.5-1.1
					C309.1,541.2,308.9,540.4,308.6,539.6z M287,532.3c0,0.2,0.1,0.3,0.1,0.4C287,532.6,287,532.5,287,532.3z M287.3,533.2
					c0,0.1,0.1,0.2,0.1,0.2C287.3,533.4,287.3,533.3,287.3,533.2z M286.9,531.8c0-0.2,0-0.4-0.1-0.6
					C286.8,531.5,286.8,531.7,286.9,531.8z"/>
			</g>
		</g>
	</g>
</g>
</svg>
