<?xml version="1.0" encoding="utf-8"?>
<!-- Generator: Adobe Illustrator 24.2.3, SVG Export Plug-In . SVG Version: 6.00 Build 0)  -->
<svg version="1.1" id="tenue_x5F_feminine_x5F_7" xmlns="http://www.w3.org/2000/svg" xmlns:xlink="http://www.w3.org/1999/xlink"
	 x="0px" y="0px" viewBox="0 0 553 574" style="enable-background:new 0 0 553 574;" xml:space="preserve">
<style type="text/css">
	.st0{fill:none;}
	.st1{fill:#B78575;}
	.st2{fill:#996E63;}
	.st3{fill:#541F11;}
	.st4{fill:#2C100C;}
	.st5{fill:#592E2B;}
	.st6{fill:#9C3C3C;}
	.st7{fill:#EB775F;}
	.st8{fill:#F9FAFA;}
	.st9{fill:#F6CAC6;}
	.st10{fill:#FABFBA;}
	.st11{fill:#25221E;}
	.st12{fill:#181615;}
</style>
<g id="cadre_8_">
	<rect x="0" class="st0" width="553" height="574"/>
</g>
<g>
	<g>
		<path class="st1" d="M251.2,201c-9.3-0.4-19.4-0.4-26.5,5.5c-5.2,4.4-7.7,11.2-9.7,17.7c-9.3,29.7-15.2,60.7-14.8,91.8
			c4.6,3.4,10.6,4.2,16,2.7c5.4-23.8,16.7-40.4,22.3-63.5c2.4,10.8,1.4,15-1.4,25.9c7.7,0.7,15.2,0.8,22.8,0.6
			c18.3-0.1,36.4-1.3,54.3-3.3c0.2-0.2,0.4-0.1,0.6,0c-0.3-8.3-0.6-16.6-0.9-24.9c4.3,8.8,7.4,18.5,9.5,29.4
			c2.1,10.8,5.9,22.9,10.8,32.8c6,1.5,12.8,0.2,18.6-2.9c-1.9-33.8-5.7-70.4-21.5-100.4c-1.6-3.1-4.2-4.8-6.8-7.1
			c-6.3-5.4-16.6-4.2-24.8-3.7C284.6,209.7,265.5,209.5,251.2,201z"/>
		<path class="st2" d="M251.2,201c-5.9-0.2-11.9-0.3-17.6,1.1c-2.8,0.7-5.6,1.9-8,3.7c-2.4,1.7-4.3,4.1-5.8,6.6
			c-3,5.1-4.5,10.9-6.3,16.5c-1.7,5.7-3.3,11.3-4.7,17.1c-1.4,5.7-2.7,11.5-3.8,17.3c-1.1,5.8-2,11.6-2.8,17.5
			c-0.7,5.9-1.3,11.7-1.7,17.6c-0.3,5.9-0.5,11.8-0.4,17.7l0-0.1c2.2,1.6,4.9,2.7,7.6,3.1c2.7,0.4,5.6,0.3,8.2-0.5l-0.1,0.1
			c1.2-5.5,2.9-10.9,4.8-16.2c1.9-5.3,4-10.5,6.2-15.7c2.2-5.2,4.3-10.4,6.3-15.6c1.9-5.3,3.6-10.6,4.9-16.1c0-0.1,0.1-0.2,0.2-0.1
			c0.1,0,0.1,0.1,0.1,0.1c0.9,4.3,1.6,8.7,1.3,13.1c-0.4,4.4-1.6,8.6-2.7,12.9l-0.2-0.3c6.4,0.5,12.8,0.7,19.3,0.6
			c3.2-0.1,6.4-0.1,9.7-0.2c3.2-0.1,6.4-0.2,9.6-0.3c12.9-0.5,25.7-1.5,38.5-2.9l-0.1,0.1c0.1-0.1,0.3-0.2,0.5-0.2
			c0.2,0,0.3,0.1,0.4,0.2l-0.4,0.2l-0.9-24.9c0-0.1,0.1-0.2,0.2-0.2c0.1,0,0.2,0,0.2,0.1c2.4,4.9,4.4,10.1,6,15.3
			c1.6,5.2,2.8,10.6,3.9,15.9c1.1,5.3,2.6,10.6,4.3,15.8c1.7,5.2,3.7,10.3,6.1,15.2l-0.1-0.1c3.1,0.8,6.4,0.8,9.5,0.3
			c3.1-0.5,6.2-1.6,9-3.1l-0.1,0.1c-0.6-11.6-1.5-23.1-2.9-34.6c-1.4-11.5-3.4-22.9-6.4-34.1c-3-11.2-7-22.1-12.5-32.3
			c-1.5-2.5-3.9-4.2-6.1-6.1c-2.2-1.9-4.9-3.1-7.7-3.7c-5.7-1.2-11.5-0.6-17.3-0.3l0,0c-7.4,4.1-15.8,6.1-24.2,6.1
			C266.8,207.5,258.4,205.3,251.2,201z M251.2,201c7.2,4.3,15.7,6.5,24,6.5c8.4,0,16.8-2,24.2-6.1l0,0c5.8-0.3,11.6-0.9,17.3,0.3
			c2.8,0.6,5.6,1.8,7.8,3.7c2.2,1.9,4.6,3.6,6.1,6.1c5.5,10.2,9.6,21.2,12.6,32.3c3,11.2,5,22.6,6.5,34.1c1.4,11.5,2.3,23.1,3,34.6
			c0,0.1,0,0.1-0.1,0.1c-2.8,1.5-5.9,2.6-9.1,3.2c-3.2,0.5-6.5,0.5-9.6-0.2c0,0-0.1,0-0.1-0.1c-2.4-4.9-4.4-10-6.1-15.2
			c-1.7-5.2-3.2-10.5-4.3-15.8c-1-5.4-2.3-10.7-3.9-15.9c-1.6-5.2-3.6-10.3-6-15.2l0.4-0.1l1,24.9c0,0.1-0.1,0.2-0.2,0.2
			c0,0-0.1,0-0.1,0c-0.1-0.1-0.2-0.1-0.2-0.1c0,0,0,0-0.1,0l0,0c0,0-0.1,0-0.1,0c-12.8,1.5-25.6,2.5-38.5,2.9
			c-3.2,0.1-6.4,0.2-9.7,0.3c-3.2,0.1-6.4,0.1-9.7,0.2c-6.4,0.1-12.9-0.1-19.3-0.7c-0.1,0-0.2-0.1-0.2-0.2l0,0
			c1.1-4.2,2.3-8.5,2.7-12.8c0.4-4.3-0.3-8.7-1.2-13l0.4,0c-1.3,5.5-3,10.8-5,16.1c-2,5.3-4.1,10.5-6.3,15.6
			c-2.2,5.2-4.3,10.4-6.2,15.7c-1.9,5.3-3.5,10.7-4.8,16.1c0,0,0,0.1-0.1,0.1c-2.7,0.8-5.6,0.9-8.3,0.5c-2.8-0.5-5.4-1.5-7.7-3.2
			c0,0,0-0.1,0-0.1c0-5.9,0.1-11.8,0.4-17.7c0.4-5.9,0.9-11.8,1.7-17.6c0.8-5.9,1.7-11.7,2.8-17.5c1.1-5.8,2.4-11.6,3.8-17.3
			c1.4-5.7,3-11.4,4.7-17.1c1.7-5.6,3.3-11.4,6.3-16.5c1.5-2.5,3.4-4.8,5.8-6.6c2.4-1.8,5.1-2.9,8-3.7
			C239.3,200.6,245.3,200.8,251.2,201z"/>
	</g>
	<g>
		<path class="st3" d="M235.7,287.4c-8.3,18.9-12.7,39.6-12.8,60.3c-0.1,14.5,1.9,29.4-2.8,43.1c-0.7,2-1.4,4.4-0.1,6
			c1.4,1.6,3.8,1.2,5.9,0.9c12.1-2.2,24.6-0.5,36.8,1.4c12.2,1.9,24.5,4.1,36.8,2.8c12.3-1.3,24.7-6.7,31.6-17
			c-10.8-31.2-1.4-67.9-14.8-99.6c-16.9-0.5-33.8-1-50.6-1.5C255.1,283.5,244.2,283.3,235.7,287.4z"/>
		<path class="st4" d="M235.7,287.4c-7.6,17.5-11.9,36.4-12.6,55.5c-0.4,9.5,0.5,19.1,0.2,28.6c-0.1,4.8-0.6,9.6-1.6,14.2
			c-0.5,2.3-1.3,4.6-2,6.9c-0.3,1.1-0.4,2.4,0,3.4c0.5,1,1.6,1.6,2.7,1.7c1.2,0.1,2.3-0.1,3.5-0.3c1.2-0.2,2.4-0.4,3.5-0.5
			c2.4-0.3,4.8-0.5,7.2-0.5c4.8-0.1,9.6,0.2,14.3,0.8c9.5,1.1,18.9,3,28.3,4.1c9.4,1.1,19.1,1.3,28.3-1.2c4.6-1.2,9-3,13-5.6
			c2-1.3,3.9-2.7,5.6-4.3c1.7-1.6,3.2-3.5,4.6-5.4l0,0.2c-2.8-8-4.2-16.4-5-24.8c-0.8-8.4-1.1-16.8-1.4-25.3
			c-0.3-8.4-0.7-16.8-1.9-25.2c-1.2-8.3-3.1-16.6-6.4-24.4l0.1,0.1l-40.5-1.2l-10.1-0.3c-3.4-0.1-6.8-0.2-10.1-0.1
			c-3.4,0.1-6.8,0.2-10.1,0.8C242,285,238.7,285.9,235.7,287.4z M235.7,287.4c3.1-1.5,6.3-2.4,9.7-2.9c3.3-0.6,6.7-0.8,10.1-0.8
			c3.4-0.1,6.8,0,10.1,0.1l10.1,0.3l40.5,1.1c0.1,0,0.1,0,0.1,0.1c3.3,7.8,5.3,16.1,6.4,24.4c1.2,8.4,1.6,16.8,1.9,25.2
			c0.3,8.4,0.6,16.9,1.4,25.2c0.8,8.4,2.3,16.7,5,24.7c0,0.1,0,0.1,0,0.2c-1.4,2-2.9,3.8-4.6,5.5c-1.7,1.7-3.7,3.1-5.7,4.4
			c-4.1,2.6-8.5,4.4-13.2,5.6c-9.3,2.5-19.1,2.2-28.5,1.1c-9.5-1.1-18.9-3-28.3-4.1c-4.7-0.5-9.5-0.9-14.3-0.8
			c-2.4,0-4.8,0.2-7.1,0.5c-1.2,0.1-2.4,0.3-3.5,0.5c-1.2,0.2-2.4,0.4-3.6,0.3c-1.2-0.1-2.5-0.7-3-1.9c-0.5-1.2-0.3-2.5-0.1-3.6
			c0.7-2.3,1.5-4.5,2-6.9c1-4.6,1.5-9.4,1.7-14.2c0.3-9.5-0.6-19.1-0.1-28.6C223.6,323.8,228,304.8,235.7,287.4z"/>
	</g>
	<g>
		<path d="M274.2,289c0-0.3-0.1-0.6,0.2-0.9l0,0l0,0l0,14l0,14l-0.1,28.1l-0.3,28.1l-0.1,14l-0.2,14l0-14l0-14l0.1-28.1l0.3-28.1
			l0.1-14l0.2-14l0,0C274.1,288.4,274.2,288.7,274.2,289z"/>
	</g>
	<path class="st1" d="M279.5,292c1.6-0.2,3.2,1.2,3.2,2.7c0,1.6-1.5,3-3.1,3s-3-1.5-3.1-3.1C276.5,293.1,277.7,292.3,279.5,292z"/>
	<path class="st1" d="M279.7,319.5c1.6,0,3.1,1.5,3.1,3.1c0,1.6-1.4,3.1-3,3.2c-1.6,0.1-3.2-1.3-3.3-2.9S277.6,319.4,279.7,319.5z"
		/>
	<path class="st1" d="M279.5,348.7c1.6,0.2,2.9,1.9,2.8,3.5c-0.2,1.6-1.7,3-3.4,2.9s-3.1-1.6-3.1-3.2S277.2,348.3,279.5,348.7z"/>
	<path class="st1" d="M280.2,381.1c1.7-0.1,3.3,1.4,3.4,3.1c0.1,1.7-1.4,3.3-3.1,3.4s-3.3-1.4-3.4-3.1
		C277.1,382.8,278.5,381.2,280.2,381.1z"/>
	<g>
		<path d="M223.8,396.9c0.8-4.8,1.4-9.6,2-14.5c0.5-4.8,1-9.7,1.3-14.5c0.3-4.8,0.5-9.7,0.6-14.6c0.1-4.9,0-9.7-0.1-14.6
			c0.3,4.9,0.5,9.7,0.5,14.6c0,4.9-0.2,9.7-0.4,14.6c-0.3,4.9-0.8,9.7-1.4,14.5C225.5,387.3,224.7,392.1,223.8,396.9z"/>
	</g>
	<g>
		<path d="M226.5,397.1l1.1-6.3c0.4-2.1,0.7-4.2,1-6.3c0.3-2.1,0.6-4.2,0.9-6.3l0.8-6.3c-0.1,2.1-0.2,4.3-0.4,6.4
			c-0.2,2.1-0.5,4.2-0.8,6.3c-0.3,2.1-0.7,4.2-1.2,6.3C227.5,392.9,227,395,226.5,397.1z"/>
	</g>
	<g>
		<path d="M229.9,396.6c0-2.6,0.3-5.2,0.9-7.8c0.6-2.5,1.3-5.1,2.4-7.5c-0.7,2.5-1.4,5-1.9,7.6C230.6,391.5,230.3,394,229.9,396.6z"
			/>
	</g>
	<g>
		<path d="M329.1,386.8c-2-3.2-3.5-6.6-4.6-10.2c-1.1-3.6-1.9-7.3-2.4-11c-0.5-3.7-0.7-7.5-0.8-11.2c-0.1-3.7,0-7.5,0.1-11.2
			c0.1,3.7,0.2,7.5,0.3,11.2c0.2,3.7,0.4,7.5,0.9,11.1c0.5,3.7,1.2,7.4,2.2,10.9C325.9,380,327.3,383.5,329.1,386.8z"/>
	</g>
	<g>
		<path d="M318.1,353.8c0.1,3.1,0.4,6.1,0.8,9.2c0.4,3,1,6.1,1.7,9.1c0.7,3,1.6,5.9,2.5,8.9c1,2.9,2.1,5.8,3.4,8.6
			c-1.4-2.7-2.7-5.6-3.7-8.5c-1.1-2.9-1.9-5.9-2.7-8.9c-0.7-3-1.2-6.1-1.6-9.1C318.2,360,318.1,356.9,318.1,353.8z"/>
	</g>
	<g>
		<path d="M315.3,366.3c0.3,2.2,0.7,4.5,1.2,6.7c0.5,2.2,1,4.4,1.7,6.5c0.6,2.2,1.4,4.3,2.2,6.4c0.8,2.1,1.7,4.2,2.7,6.2
			c-1.2-1.9-2.2-4-3.1-6c-0.9-2.1-1.7-4.2-2.4-6.4c-0.6-2.2-1.2-4.4-1.6-6.6C315.7,370.8,315.4,368.6,315.3,366.3z"/>
	</g>
	<g>
		<path class="st5" d="M251.9,509.5c0.9,0.6,2.1,0.8,3.2,1c2.4,0.3,4.9,0.2,7.2-0.3c0.8-0.2,0.7-0.4,1.4-1
			c0.7-0.5,2.4,12.8,2.6,20.3c0,0.9,0,1.9-0.6,2.5c-0.5,0.5-1.2,0.7-1.8,1c-1.8,1.1-1.8,3.6-2.7,5.5c-1.4,3.1-5.1,4.5-8.5,5.2
			c-2.6,0.5-5.5,0.8-7.9-0.4c-2.4-1.2-4.1-4.2-3-6.6c0.6-1.3,1.9-2.2,3-3.2c3.4-3.1,5.2-7.7,5.7-12.3S249.9,508.2,251.9,509.5z"/>
		<path class="st3" d="M251.9,509.5c0.9,0.6,2,0.8,3,0.9c1,0.1,2.1,0.2,3.2,0.2c1.1,0,2.1-0.1,3.1-0.3c0.5-0.1,1.1-0.2,1.5-0.3
			c0.2-0.1,0.4-0.3,0.6-0.5c0.1-0.1,0.2-0.2,0.3-0.3l0.1-0.1c0,0,0.1-0.1,0.2,0c0.1,0.1,0.1,0.1,0.1,0.2c0.4,1,0.5,2.1,0.7,3.1
			c0.2,1,0.3,2.1,0.5,3.1c0.3,2.1,0.5,4.2,0.7,6.3c0.2,2.1,0.4,4.2,0.5,6.3l0.1,1.6c0,0.5,0,1.1-0.2,1.6c-0.2,0.5-0.6,1-1.1,1.3
			c-0.5,0.3-1,0.4-1.4,0.7c-0.8,0.6-1.2,1.6-1.5,2.6c-0.3,1-0.5,2-1,3c-1,2-3,3.3-4.9,4c-2,0.8-4.1,1.2-6.2,1.4
			c-2.1,0.2-4.4,0-6.2-1.3c-0.9-0.6-1.6-1.5-2.1-2.4c-0.5-1-0.7-2.1-0.4-3.2c0.2-1.1,1-2,1.8-2.7c0.8-0.7,1.6-1.4,2.3-2.1
			c2.9-3.1,4.4-7.2,4.9-11.4c0.2-2.1,0.2-4.2,0.2-6.3c0-1.1,0-2.1,0.1-3.2c0-0.5,0.1-1.1,0.2-1.6c0.1-0.3,0.1-0.5,0.3-0.7
			C251.4,509.3,251.7,509.3,251.9,509.5z M251.9,509.5c-0.2-0.2-0.5-0.2-0.7,0c-0.2,0.2-0.2,0.5-0.3,0.7c-0.1,0.5-0.2,1-0.2,1.6
			c-0.1,1.1,0,2.1,0,3.2c0,2.1,0.1,4.2-0.1,6.3c-0.5,4.2-1.9,8.4-4.9,11.5c-0.7,0.8-1.6,1.5-2.3,2.2c-0.8,0.7-1.5,1.5-1.7,2.5
			c-0.5,2,0.7,4.1,2.4,5.3c1.7,1.1,3.9,1.3,6,1.2c2.1-0.2,4.2-0.7,6.1-1.4c1.9-0.8,3.7-2,4.7-3.8c0.5-0.9,0.7-1.9,1-2.9
			c0.3-1,0.8-2.1,1.7-2.8c0.5-0.3,1-0.5,1.4-0.7c0.5-0.2,0.8-0.6,0.9-1c0.3-0.9,0.1-2,0.1-3.1c-0.1-2.1-0.2-4.2-0.4-6.3
			c-0.2-2.1-0.4-4.2-0.7-6.3c-0.1-1-0.3-2.1-0.4-3.1c-0.2-1-0.3-2.1-0.7-3.1c0-0.1-0.1-0.1-0.1-0.1c0,0,0,0-0.1,0.1
			c-0.1,0.1-0.2,0.2-0.3,0.3c-0.2,0.2-0.4,0.4-0.6,0.5c-0.5,0.2-1,0.2-1.6,0.3c-1,0.2-2.1,0.2-3.2,0.2c-1.1,0-2.1-0.1-3.2-0.2
			C253.9,510.3,252.8,510.1,251.9,509.5z"/>
	</g>
	<g>
		<path d="M266.5,529.7c0.1,1.9,0.2,3.8,0.3,5.7c-1.6,1.1-3.3,2-5.1,2.7c-0.1-1.9,0.7-3.9,2.2-5.1c0.6-0.5,1.3-0.9,1.8-1.4
			C266.2,531,266.6,530.3,266.5,529.7z"/>
		<path d="M266.5,529.7c0.1,1,0.1,2,0.2,2.9l0.2,2.7c0,0.1,0,0.1-0.1,0.2l0,0c-1.6,1.2-3.3,2.1-5.1,2.8c-0.1,0-0.3,0-0.3-0.1
			c0,0,0-0.1,0-0.1c-0.1-1.8,0.5-3.6,1.8-4.8c0.6-0.6,1.4-1,2.1-1.5c0.3-0.2,0.6-0.5,0.9-0.9C266.4,530.5,266.5,530.1,266.5,529.7z
			 M266.5,529.7c0.1,0.4,0,0.9-0.2,1.2c-0.2,0.4-0.5,0.7-0.8,1c-0.7,0.6-1.4,1-1.9,1.6c-1.1,1.2-1.7,2.9-1.6,4.5l-0.3-0.2
			c1.8-0.7,3.5-1.6,5-2.7l-0.1,0.2l0-2.9C266.5,531.5,266.5,530.6,266.5,529.7z"/>
	</g>
	<g>
		<path class="st5" d="M300.3,511.6c-1,0.6-2.2,0.8-3.3,1c-2.5,0.3-5,0.2-7.5-0.3c-0.9-0.2-1.7-0.4-2.4-1
			c-0.7-0.6-1.4,13.1-1.6,20.9c0,0.9,0,1.9,0.6,2.6c0.5,0.5,1.3,0.7,1.9,1c1.8,1.1,1.9,3.7,2.8,5.6c1.5,3.2,5.3,4.7,8.8,5.4
			c2.7,0.5,5.7,0.8,8.2-0.4c2.5-1.2,4.3-4.3,3.1-6.8c-0.6-1.4-2-2.3-3.1-3.3c-3.5-3.2-5.3-8-5.9-12.7
			C301.2,518.9,301.3,511,300.3,511.6z"/>
		<path class="st3" d="M300.3,511.6c-0.9,0.6-2,0.8-3.1,1c-1.1,0.2-2.2,0.2-3.3,0.2c-1.1,0-2.2-0.1-3.3-0.2
			c-1.1-0.2-2.2-0.3-3.2-0.9c-0.1-0.1-0.2-0.1-0.4-0.2c-0.2-0.1-0.1-0.1-0.2,0c-0.1,0.2-0.1,0.5-0.2,0.8c-0.1,0.5-0.2,1.1-0.2,1.6
			c-0.1,1.1-0.2,2.2-0.3,3.3c-0.2,2.2-0.3,4.3-0.4,6.5c-0.1,2.2-0.2,4.4-0.2,6.5c0,1.1-0.1,2.2,0,3.2c0.1,0.5,0.2,1,0.6,1.3
			c0.4,0.3,0.9,0.5,1.4,0.7c1.1,0.5,1.8,1.5,2.1,2.5c0.4,1,0.6,2.1,1,3.1c0.8,2,2.6,3.4,4.5,4.2c2,0.9,4.1,1.3,6.2,1.6
			c2.1,0.3,4.4,0.2,6.3-0.8c1.8-1,3.3-3,3.1-5.1c-0.1-1.1-0.6-2-1.4-2.8c-0.7-0.8-1.6-1.4-2.4-2.2c-3.1-3.1-4.8-7.4-5.4-11.7
			c-0.3-2.2-0.4-4.3-0.5-6.5c-0.1-1.1-0.1-2.2-0.2-3.3c0-0.5-0.1-1.1-0.2-1.6c0-0.3-0.1-0.5-0.2-0.8c0-0.1-0.1-0.3-0.1-0.4
			C300.6,511.6,300.4,511.5,300.3,511.6z M300.3,511.6c0.1-0.1,0.3,0,0.3,0.2c0.1,0.1,0.1,0.2,0.1,0.4c0.1,0.3,0.1,0.5,0.2,0.8
			c0.1,0.5,0.1,1.1,0.2,1.6c0.1,1.1,0.2,2.2,0.2,3.3c0.1,2.2,0.3,4.4,0.6,6.5c0.6,4.3,2.3,8.5,5.4,11.6c0.8,0.8,1.7,1.4,2.4,2.2
			c0.8,0.8,1.4,1.8,1.5,2.9c0.1,1.1-0.3,2.3-0.8,3.2c-0.6,0.9-1.4,1.8-2.4,2.3c-2,1.1-4.3,1.2-6.5,0.9c-2.2-0.3-4.3-0.7-6.4-1.6
			c-2-0.9-3.9-2.4-4.7-4.5c-0.4-1-0.6-2.1-1-3.1c-0.4-1-0.9-1.9-1.9-2.4c-0.5-0.2-1-0.4-1.5-0.8c-0.5-0.4-0.7-1-0.7-1.6
			c-0.1-1.1,0-2.2,0-3.3c0.1-2.2,0.2-4.4,0.3-6.5c0.1-2.2,0.3-4.4,0.4-6.5c0.1-1.1,0.2-2.2,0.3-3.3c0.1-0.5,0.1-1.1,0.2-1.6
			c0.1-0.3,0.1-0.5,0.2-0.8c0-0.1,0-0.1,0.2-0.2c0.2,0,0.1,0.1,0.2,0.1c0.1,0.1,0.2,0.2,0.3,0.2c0.9,0.5,2,0.7,3.1,0.9
			c1.1,0.2,2.2,0.3,3.2,0.3c1.1,0,2.2-0.1,3.3-0.2C298.3,512.4,299.4,512.1,300.3,511.6z"/>
	</g>
	<g>
		<path d="M285.3,532.3c-0.1,1.9-0.2,3.9-0.3,5.8c1.6,1.2,3.4,2.1,5.2,2.8c0.1-2-0.7-4-2.2-5.3c-0.6-0.5-1.3-0.9-1.9-1.4
			C285.6,533.7,285.1,533,285.3,532.3z"/>
		<path d="M285.3,532.3c0,0.9-0.1,1.9-0.1,2.8l-0.1,3l-0.1-0.2c1.6,1.1,3.4,2,5.2,2.7L290,541c0.1-1.7-0.5-3.4-1.6-4.6
			c-0.6-0.6-1.3-1.1-2-1.7c-0.3-0.3-0.6-0.6-0.9-1C285.3,533.2,285.2,532.8,285.3,532.3z M285.3,532.3c-0.1,0.4,0.1,0.9,0.3,1.2
			c0.2,0.4,0.6,0.7,0.9,0.9c0.7,0.5,1.5,0.9,2.1,1.6c1.3,1.3,2,3.1,1.8,4.9c0,0.1-0.1,0.2-0.3,0.2c0,0-0.1,0-0.1,0
			c-1.9-0.7-3.7-1.7-5.3-2.9l0,0c-0.1,0-0.1-0.1-0.1-0.2l0.3-2.8C285.2,534.4,285.2,533.4,285.3,532.3z"/>
	</g>
	<path class="st6" d="M259.7,200.3c-1.1-0.8-2.5-1.2-3.8-1c-1.3,0.2-2.6,1-3.7,2.3c6.3,6,14.9,9.5,23.6,9.6
		c8.7,0.1,17.4-3.1,23.8-8.9c-0.1-0.3-0.2-0.6-0.4-0.8c-1.4-2.3-4.6-2.4-6.6-0.5c-2.1,2-5.1,3.2-8.1,3.8
		C276.3,206.3,266.9,206,259.7,200.3z"/>
	<g>
		<path class="st2" d="M238.1,254.4c-0.7-2.6-0.9-5.3-1-8c0-2.7,0.2-5.4,0.9-8c-0.2,2.7-0.4,5.3-0.4,8
			C237.7,249.1,237.9,251.7,238.1,254.4z"/>
	</g>
	<g>
		<path class="st2" d="M311,238.8c1.3,3.3,2.1,6.8,2.6,10.3c0.5,3.5,0.6,7.1,0.3,10.6c-0.1-3.5-0.3-7-0.8-10.5
			C312.7,245.7,311.9,242.2,311,238.8z"/>
	</g>
	<path class="st6" d="M314.3,278c0.5,2.6,1,5.3,1.5,7.9c-20.8,1-41.5,2.1-62.3,3.1c-6.2,0.3-12.5,0.6-18.2-1.7
		c-0.4-2.5,0-5.2,1.3-7.8C262.5,280.6,288.5,279.9,314.3,278z"/>
	<g>
		<path class="st7" d="M294.5,252.1c0.8,0.1,1.7,0.5,2.5,0.6c0-0.1-0.1-0.1-0.1-0.2c0,0,0.1,0.1,0.1,0.1c-0.2-1.5-0.5-3-0.9-4.4
			c-0.9-3.1-2.3-6.1-4.1-8.7c-0.1-0.1,0.6-1.5,0.7-1.8c0.2-0.6,0.4-1.3,0.6-1.9c0.3-1.3,0.5-2.7,0.5-4c0-1.3,0-2.7-0.3-4
			c-0.1-0.4-0.3-2.2-0.6-2.5c-0.4-0.3-0.8-0.1-1.2,0c-0.6,0.2-1.6,0.3-2.2,0.5c-1.2,0.4-2.4,0.8-3.5,1.4c-0.9,0.5-1.8,0.9-2.6,1.5
			c-0.9,0.6-2.3,1.9-3.2,2.3c-4.3-1.1-10.9-0.3-10.6,0c1,0.8-1.5-1.1-2.5-1.8c-1.4-1-3-2-4.6-2.7c-1.2-0.5-2.4-0.7-3.7-1
			c-0.4-0.1-1.2-0.4-1.6-0.1c-0.3,0.2-0.6,0.7-0.7,1.1c-0.1,0.4-0.2,0.8-0.3,1.3c-0.2,1.7-0.3,3.3-0.1,5c0.1,1.1,0.3,2.5,0.6,3.5
			c0.2,0.8,1,2.8,0.8,3.6c-0.5,0.7-1.1,1.8-2.2,4.1c-0.9,1.5-1.5,3.5-1.9,5.2c0,0.2-0.1,0.3-0.1,0.5c-0.2,1-0.4,2-0.5,3
			c0.8-0.1,1.7-0.5,2.4-0.6c0.3,0,0.5-0.1,0.4,0c-0.8,0.2-1.9,1.3-2.4,2c3.4-0.1,6.7,0.4,9.9,1.4c1.8,0.6,3.6,1.3,5.1,2.5
			c0.8,0.6,1.6,1.2,2.3,1.9c0.8,0.9,1.6,1.7,2.4,2.6c0,0,0,0.1,0,0.1c0.3,0.4,0.7,0.8,1.1,1c0.7,0.2,2-0.1,2.4-0.7
			c0.1-0.2,0.3-0.3,0.4-0.5c0.8-0.8,1.4-1.5,2.3-2.3c0.7-0.7,1.6-1.5,2.3-2.1c1.5-1.2,3-1.8,4.9-2.4c3.3-1,6.7-1.5,10.1-1.4
			c-0.5-0.7-1.6-1.7-2.4-2C294,252,294.2,252,294.5,252.1"/>
		<g>
			<g>
				<path class="st8" d="M294.5,252.1c0.8,0.1,1.7,0.5,2.5,0.6c0-0.1-0.1-0.1-0.1-0.2c0,0,0.1,0.1,0.1,0.1c-0.2-1.5-2.5-3.5-2.5-3.5
					c-1.3-1.4-1.2-1.2-2.2-1.9c-0.2-0.1-1.4-0.8-1.5-0.8c-1.7-0.5-1.7-0.4-3.3-0.6c-4.2,0-5.6,1.7-7.1,3c-1.2,1.1-2.5,3.1-2.8,5.3
					c-0.5,3.3-0.9,4.2-1,6.2c0,0-0.1,1-0.1,1.4c0,0.1,0.1,1.1,0.1,1.1c0.8-0.8,1.8-1.9,2.6-2.8c0.7-0.7,1.6-1.5,2.3-2.1
					c1.5-1.2,3-1.8,4.9-2.4c3.3-1,6.7-1.5,10.1-1.4c-0.5-0.7-1.6-1.7-2.4-2C294,252,294.2,252,294.5,252.1z"/>
				<path class="st9" d="M288.5,229.9c-1.6,0.8-3.2,1.7-3.9,3.1c2.1,1,3.8,2.5,4.9,4.3c-0.1-0.1,0.4-0.8,0.4-0.9
					c0.1-0.3,0.3-0.6,0.4-1c0.2-0.7,0.4-1.4,0.5-2.1c0.1-0.7,0.2-1.4,0.2-2.1c0-0.6,0.1-1.5-0.1-2.1
					C290,229.3,289.3,229.5,288.5,229.9"/>
				<path class="st9" d="M262.3,229.6c1.5,0.9,3,1.9,3.6,3.4c-2.1,0.8-4,2.2-5.2,3.8c0.1-0.1-0.3-0.8-0.3-0.9
					c-0.1-0.3-0.2-0.7-0.3-1c-0.2-0.7-0.3-1.4-0.4-2.1c-0.1-0.7-0.1-1.4,0-2.1c0-0.6,0-1.5,0.3-2.1
					C260.8,229,261.5,229.2,262.3,229.6"/>
			</g>
			<g>
				<path class="st8" d="M274,261c-0.8-2.7-1.1-4.1-2.2-6.7c-0.6-1.6-1.2-3.3-1.7-4.9c-0.3-1-0.9-2.2-1.8-2.8
					c-1-0.7-2.7-0.8-3.9-0.6c-3.1,0.3-5.9,1.7-8.4,3.6c-0.9,0.7-3.1,1.8-3.2,3.1c0.8-0.1,1.7-0.5,2.4-0.6c0.3,0,0.5-0.1,0.4,0
					c-0.8,0.2-1.9,1.3-2.4,2c3.4-0.1,6.7,0.4,9.9,1.4c1.8,0.6,3.6,1.3,5.1,2.5c0.8,0.6,1.6,1.2,2.3,1.9c0.8,0.9,1.6,1.7,2.4,2.6
					c0,0,0,0.1,0,0.1c0.3,0.4,0.7,0.8,1.1,1C274.9,263.7,274.2,261.7,274,261z"/>
			</g>
			<path d="M276.4,260.1c-1.4-0.2-0.9-0.1-2.6,0c-0.2,0-0.3,0.1-0.4,0.2c-0.8,0.4-1.1,1.6-0.5,2.1c0,0,0,0.1,0,0.1
				c0.3,0.4,0.7,0.8,1.3,1c0.8,0.2,1.8-0.1,2.4-0.7c0.1-0.2,0.2-0.3,0.3-0.5C277.9,260.3,276.4,260.1,276.4,260.1z"/>
		</g>
		<path class="st10" d="M272.4,242.8C272.4,242.8,272.4,242.7,272.4,242.8C272.4,242.7,272.3,242.8,272.4,242.8
			c-0.1,0.3-0.2,0.7-0.1,1c0.1,0,0.3,0,0.4,0c0.1-0.4,0.2-0.7,0.2-1.1c0,0,0-0.1,0-0.1c0,0-0.1,0-0.1,0c-0.1,0-0.3,0-0.4,0"/>
		<path class="st10" d="M274.2,244.6C274.3,244.6,274.2,244.6,274.2,244.6C274.2,244.6,274.2,244.6,274.2,244.6
			c-0.1,0.2-0.2,0.4-0.1,0.6c0.1,0,0.3,0,0.4,0c0.1-0.2,0.2-0.4,0.2-0.7c0,0,0,0,0,0c0,0-0.1,0-0.1,0
			C274.5,244.6,274.3,244.6,274.2,244.6"/>
		<path class="st10" d="M269.8,240.1C269.8,240.1,269.8,240,269.8,240.1C269.8,240,269.7,240.1,269.8,240.1
			c-0.1,0.3-0.1,0.6-0.1,0.8c0.1,0,0.3,0,0.4,0c0.1-0.3,0.2-0.6,0.2-0.9c0,0,0,0,0-0.1c0,0-0.1,0-0.1,0
			C270,240,269.9,240,269.8,240.1"/>
		<path class="st10" d="M273.3,239.1c0,0.3,0,0.5,0,0.8c0,0.1,0,0.3,0.2,0.4c0.1,0,0.2,0,0.2-0.1c0-0.1,0.1-0.2,0.1-0.3
			c0-0.3,0-0.5,0-0.8C273.7,239,273.5,239,273.3,239.1"/>
		<path class="st10" d="M279.5,237c0,0.2,0,0.4,0,0.6c0,0.1,0,0.2,0.2,0.3c0.1,0,0.2,0,0.2-0.1c0-0.1,0.1-0.1,0.1-0.2
			c0-0.2,0-0.4,0-0.6C279.8,236.9,279.7,236.9,279.5,237"/>
		<path class="st10" d="M276,242c0,0.3,0,0.6,0,0.8c0,0.1,0,0.3,0.2,0.4c0.1,0,0.2,0,0.3-0.1c0.1-0.1,0.1-0.2,0.1-0.3
			c0-0.3,0.1-0.5,0.1-0.8c0,0,0,0,0,0c0,0,0,0-0.1,0C276.4,242,276.2,242,276,242C276,241.9,276.1,241.9,276,242"/>
		<path class="st10" d="M276.8,239C276.8,239,276.8,239,276.8,239c0,0.1,0.1,0.1,0.1,0.1c0.1,0,0.2,0,0.2,0c0,0,0.1,0,0.1,0
			c0.1,0,0.1-0.1,0.1-0.2c0-0.2,0.1-0.5,0.1-0.7c0-0.1,0-0.1,0-0.2c-0.1-0.1-0.4-0.1-0.5-0.1C276.9,238.2,276.8,238.6,276.8,239"/>
		<path class="st10" d="M269.1,236.4c0.1,0.3,0.1,0.7,0.2,1c0,0,0,0,0,0.1c0,0,0,0,0.1,0c0.1,0,0.2-0.1,0.3-0.1c0,0,0.1,0,0.1-0.1
			c0,0,0-0.1,0-0.1c0-0.2,0-0.4-0.1-0.6c0-0.1,0-0.1-0.1-0.1c0,0-0.1,0-0.1,0C269.4,236.4,269.2,236.4,269.1,236.4
			C269.1,236.4,269.1,236.4,269.1,236.4"/>
		<path class="st10" d="M273.4,234.8c0,0.3-0.1,0.7,0,1c0.1,0.1,0.2,0,0.2,0c0.1-0.1,0.1-0.2,0.1-0.2c0-0.1,0-0.2,0-0.4
			c0-0.1,0-0.2,0-0.2C273.6,234.8,273.5,234.8,273.4,234.8"/>
		<path class="st10" d="M279.1,240.5c-0.1,0.3-0.1,0.7-0.2,1c0.1,0,0.2,0,0.4,0c0,0,0.1,0,0.1,0c0,0,0-0.1,0-0.1
			c0-0.2,0.1-0.4,0.1-0.6c0,0,0-0.1,0-0.1c0,0-0.1,0-0.1,0c-0.1,0-0.2,0-0.3,0"/>
		<path class="st10" d="M276.7,235.2c0,0.3,0,0.6-0.1,0.9c0.1,0,0.3,0,0.4-0.1c0.1-0.3,0.2-0.6,0.2-0.9
			C277.1,235.1,276.9,235.1,276.7,235.2"/>
		<g>
			<path class="st11" d="M284.2,253c-0.2,0-0.4,0-0.6-0.1c-0.5-0.2-1-0.6-1.4-1.1c-0.3-0.5-0.4-1-0.5-1.7c0-0.2,0.1-0.3,0.3-0.3
				c0.2,0,0.3,0.1,0.3,0.3c0,0.6,0.2,1.1,0.4,1.4c0.2,0.4,0.6,0.7,1,0.9c0.2,0.1,0.5,0.1,0.7,0c0.8-0.1,1.5-0.7,1.8-1.4
				c0.2-0.3,0.4-1.1,0.4-1.1c0-0.2,0.2-0.2,0.4-0.2c0.2,0,0.2,0.2,0.2,0.4c0,0-0.2,0.8-0.4,1.2c-0.4,0.9-1.3,1.6-2.3,1.7
				C284.4,253,284.3,253,284.2,253z"/>
			<path class="st11" d="M265.8,252.3c-0.1,0-0.3,0-0.4,0c-1-0.1-1.8-0.8-2.3-1.7c-0.2-0.4-0.4-1.2-0.4-1.2c0-0.2,0-0.3,0.2-0.4
				c0.2,0,0.3,0,0.4,0.2c0,0,0.2,0.8,0.4,1.1c0.4,0.7,1.1,1.3,1.9,1.4c0.3,0,0.5,0,0.7,0c0.4-0.1,0.8-0.4,1-0.9
				c0.2-0.4,0.3-0.9,0.4-1.4c0-0.2,0.1-0.3,0.3-0.3c0.2,0,0.3,0.1,0.3,0.3c0,0.7-0.2,1.2-0.4,1.7c-0.3,0.6-0.8,1-1.3,1.1
				C266.2,252.3,266,252.3,265.8,252.3z"/>
		</g>
		<path class="st9" d="M288.5,229.9c-1.6,0.8-3.2,1.7-3.9,3.1c2.1,1,3.8,2.5,4.9,4.3c-0.1-0.1,0.4-0.8,0.4-0.9
			c0.1-0.3,0.3-0.6,0.4-1c0.2-0.7,0.4-1.4,0.5-2.1c0.1-0.7,0.2-1.4,0.2-2.1c0-0.6,0.1-1.5-0.1-2.1
			C290,229.3,289.3,229.5,288.5,229.9"/>
		<path class="st9" d="M262.3,229.6c1.5,0.9,3,1.9,3.6,3.4c-2.1,0.8-4,2.2-5.2,3.8c0.1-0.1-0.3-0.8-0.3-0.9c-0.1-0.3-0.2-0.7-0.3-1
			c-0.2-0.7-0.3-1.4-0.4-2.1c-0.1-0.7-0.1-1.4,0-2.1c0-0.6,0-1.5,0.3-2.1C260.8,229,261.5,229.2,262.3,229.6"/>
		<path class="st12" d="M273,262.4"/>
	</g>
</g>
</svg>
