<?xml version="1.0" encoding="utf-8"?>
<!-- Generator: Adobe Illustrator 24.2.3, SVG Export Plug-In . SVG Version: 6.00 Build 0)  -->
<svg version="1.1" id="yeux_x5F_marron_x5F_fonce_1_"
	 xmlns="http://www.w3.org/2000/svg" xmlns:xlink="http://www.w3.org/1999/xlink" x="0px" y="0px" viewBox="0 0 553 574"
	 style="enable-background:new 0 0 553 574;" xml:space="preserve">
<style type="text/css">
	.st0{fill:none;}
	.st1{fill:#FFFFFF;}
	.st2{fill:#ABA9A6;}
	.st3{fill:#F5C9D4;}
	.st4{fill:#CCA8B1;}
	.st5{fill:#66829E;}
	.st6{fill:#27353F;}
	.st7{fill:#33434F;}
	.st8{fill:none;stroke:#33434F;stroke-width:0.5;stroke-miterlimit:10;}
</style>
<g id="cadre_8_">
	<rect x="0" class="st0" width="553" height="574"/>
</g>
<g id="tenue_x5F_feminine_x5F_1">
	<g>
		<path class="st1" d="M265.1,510.9c-1.6,6.5,2.4,13.4,0.6,19.8c-1.9,10.6-22.6,21.8-22,4.6c0.8-2.9,3.4-5,5.2-7.4
			c3.2-4.3,4.2-10.2,2.4-15.3c-1.5-2.2,0.8-5.5,2.5-2.3c2.2,3.1,2.5-3.7,4.5-0.1c1.2,3.1,2.9,0.6,3.4-1.3
			C263.1,506.9,265.7,509.2,265.1,510.9z"/>
		<path class="st2" d="M265.1,510.9c-0.4,1.6-0.4,3.3-0.3,5c0.1,1.7,0.4,3.3,0.7,4.9c0.3,1.6,0.6,3.3,0.7,4.9c0.1,1.7,0,3.4-0.4,5
			l0,0c-0.5,2.9-2.2,5.4-4.1,7.5c-2,2.1-4.3,3.9-7,5c-1.3,0.6-2.7,1-4.2,1.1c-1.4,0.1-3-0.1-4.2-1c-1.2-0.9-2-2.3-2.4-3.7
			c-0.4-1.4-0.5-2.9-0.4-4.3c0,0,0,0,0-0.1c0.6-2.1,2.1-3.8,3.5-5.3c1.4-1.5,2.7-3.2,3.6-5.1c0.9-1.9,1.4-4,1.5-6
			c0.1-2.1-0.2-4.2-0.8-6.2l0,0c-0.6-0.9-0.7-2.3,0-3.2c0.2-0.2,0.4-0.4,0.7-0.5c0.3-0.1,0.6-0.1,0.9,0.1c0.5,0.3,0.8,0.8,1.1,1.2
			l0,0c0.3,0.4,0.7,0.9,1.1,0.8c0.5-0.1,0.7-0.6,1-1c0.1-0.2,0.3-0.4,0.5-0.6c0.2-0.2,0.4-0.4,0.7-0.3c0.3,0.1,0.5,0.3,0.6,0.5
			c0.2,0.2,0.3,0.4,0.4,0.7l0,0c0.2,0.4,0.4,0.9,0.7,1.2c0.3,0.3,0.9,0.3,1.2,0c0.4-0.3,0.6-0.7,0.8-1.1c0.2-0.4,0.4-0.9,0.5-1.3
			l0,0c0.3-0.4,0.7-0.7,1.2-0.7c0.5-0.1,1,0.1,1.3,0.4C264.9,509,265.4,510,265.1,510.9z M265.1,510.9c0.3-0.9-0.2-1.9-1-2.4
			c-0.4-0.3-0.9-0.4-1.3-0.3c-0.5,0.1-0.9,0.4-1.1,0.7l0,0c-0.1,0.5-0.3,0.9-0.5,1.3c-0.2,0.4-0.5,0.8-0.9,1.2
			c-0.2,0.2-0.4,0.3-0.7,0.3c-0.3,0-0.5-0.1-0.7-0.2c-0.4-0.3-0.6-0.8-0.8-1.2l0,0c-0.3-0.4-0.5-0.9-1-1.1c-0.2,0-0.4,0.1-0.6,0.3
			c-0.2,0.2-0.3,0.4-0.5,0.6c-0.3,0.4-0.6,0.9-1.1,1.1c-0.3,0.1-0.6-0.1-0.8-0.2c-0.2-0.2-0.4-0.4-0.5-0.6l0,0l0,0
			c-0.3-0.5-0.6-0.9-1-1.2c-0.5-0.2-1,0-1.3,0.4c-0.6,0.9-0.5,2.1,0,3l0,0c0.7,2,1,4.1,0.9,6.3c-0.1,2.1-0.6,4.2-1.5,6.2
			c-0.8,2-2.2,3.7-3.6,5.2c-1.4,1.6-2.8,3.2-3.3,5.2l0-0.1c0,1.4,0.1,2.8,0.4,4.2c0.3,1.4,1.1,2.6,2.2,3.4c1.1,0.8,2.6,1.1,3.9,1
			c1.4-0.1,2.8-0.5,4.1-1c2.6-1.1,5-2.9,6.9-4.9c2-2.1,3.6-4.5,4.1-7.3l0,0c0.4-1.6,0.5-3.3,0.4-4.9c-0.1-1.7-0.4-3.3-0.6-4.9
			c-0.3-1.6-0.6-3.3-0.7-4.9C264.6,514.2,264.7,512.6,265.1,510.9z"/>
	</g>
	<g>
		<path class="st1" d="M286.4,510.4c1.6,6.5-2.4,13.4-0.6,19.8c1.9,10.6,22.6,21.8,22,4.6c-0.8-2.9-3.4-5-5.2-7.4
			c-3.2-4.3-4.2-10.2-2.4-15.3c1.5-2.2-0.8-5.5-2.5-2.3c-2.2,3.1-2.5-3.7-4.5-0.1c-1.2,3.1-2.9,0.6-3.4-1.3
			C288.4,506.4,285.8,508.7,286.4,510.4z"/>
		<path class="st2" d="M286.4,510.4c0.4,1.6,0.5,3.3,0.4,5c-0.1,1.7-0.4,3.3-0.7,4.9c-0.3,1.6-0.5,3.3-0.6,4.9
			c-0.1,1.7,0,3.3,0.4,4.9l0,0c0.5,2.8,2.2,5.3,4.1,7.3c2,2.1,4.3,3.8,6.9,4.9c1.3,0.6,2.7,1,4.1,1c1.4,0.1,2.8-0.2,3.9-1
			c1.1-0.8,1.8-2.1,2.2-3.4c0.3-1.4,0.4-2.8,0.4-4.2l0,0.1c-0.6-2-2-3.6-3.3-5.2c-1.4-1.6-2.8-3.3-3.6-5.2c-0.9-1.9-1.4-4.1-1.5-6.2
			c-0.1-2.1,0.2-4.3,0.9-6.3l0,0c0.6-0.9,0.7-2.1,0-3c-0.3-0.4-0.8-0.7-1.3-0.4c-0.5,0.2-0.8,0.7-1,1.2l0,0l0,0
			c-0.2,0.2-0.3,0.4-0.5,0.6c-0.2,0.2-0.5,0.3-0.8,0.2c-0.6-0.2-0.8-0.7-1.1-1.1c-0.1-0.2-0.3-0.4-0.5-0.6c-0.2-0.2-0.4-0.3-0.6-0.3
			c-0.5,0.1-0.7,0.6-1,1.1l0,0c-0.2,0.4-0.4,0.9-0.8,1.2c-0.2,0.1-0.4,0.3-0.7,0.2c-0.3,0-0.5-0.1-0.7-0.3c-0.4-0.3-0.6-0.7-0.9-1.2
			c-0.2-0.4-0.4-0.9-0.5-1.3l0,0c-0.3-0.4-0.7-0.7-1.1-0.7c-0.5-0.1-0.9,0.1-1.3,0.3C286.7,508.5,286.1,509.5,286.4,510.4z
			 M286.4,510.4c-0.3-0.9,0.2-1.9,0.9-2.5c0.4-0.3,0.9-0.4,1.3-0.4c0.5,0.1,0.9,0.4,1.2,0.7l0,0c0.1,0.5,0.3,0.9,0.5,1.3
			c0.2,0.4,0.5,0.8,0.8,1.1c0.3,0.3,0.9,0.4,1.2,0c0.3-0.3,0.5-0.8,0.7-1.2l0,0c0.1-0.2,0.3-0.5,0.4-0.7c0.2-0.2,0.4-0.4,0.6-0.5
			c0.3-0.1,0.6,0.1,0.7,0.3c0.2,0.2,0.3,0.4,0.5,0.6c0.3,0.4,0.6,0.9,1,1c0.5,0.1,0.9-0.4,1.1-0.8l0,0c0.3-0.5,0.6-1,1.1-1.2
			c0.3-0.1,0.6-0.2,0.9-0.1c0.3,0.1,0.5,0.3,0.7,0.5c0.7,0.9,0.6,2.3,0,3.2l0,0c-0.7,2-1,4.1-0.8,6.2c0.1,2.1,0.6,4.2,1.5,6
			c0.8,1.9,2.2,3.6,3.6,5.1c1.4,1.6,2.9,3.2,3.5,5.3c0,0,0,0,0,0.1c0,1.4,0,2.9-0.4,4.3c-0.4,1.4-1.1,2.8-2.4,3.7
			c-1.2,0.9-2.8,1.1-4.2,1c-1.5-0.1-2.9-0.5-4.2-1.1c-2.7-1.2-5-3-7-5c-2-2.1-3.6-4.6-4.1-7.5l0,0c-0.4-1.6-0.5-3.3-0.4-5
			c0.1-1.7,0.4-3.3,0.7-4.9c0.3-1.6,0.6-3.3,0.7-4.9C286.9,513.7,286.8,512.1,286.4,510.4z"/>
	</g>
	<g>
		<g>
			<path d="M266.2,521.4c-3.4-5.5,0,8.7-4.4,7.7c-2.9-1.5-5.7-4.4-9.3-3.2c0.7-1.9,0.6-4.1-0.4-5.8c-0.2,0.2-0.4,0.5-0.6,1
				c0.3,8.8-18.4,16.5-5.7,24.6c6.3,3.1,15.7,1.8,16.1-6.6C267.4,534.6,268.7,528.1,266.2,521.4z M257.6,536.9
				c-4.7,4.1-11.7-2.4-7.2-6.9C254.8,529,263.3,532,257.6,536.9z"/>
		</g>
	</g>
	<g>
		<g>
			<path d="M300.3,521.1c-0.2-0.5-0.4-0.7-0.6-1c-0.9,1.7-1.1,4-0.4,5.8c-3.6-1.2-6.5,1.7-9.3,3.2c-4.4,1-1-13.2-4.4-7.7
				c-2.5,6.7-1.2,13.2,4.4,17.6c0.4,8.4,9.7,9.6,16.1,6.6C318.7,537.6,300.1,529.9,300.3,521.1z M294.3,536.9
				c-5.7-4.9,2.7-7.9,7.2-6.9C306,534.5,299,541,294.3,536.9z"/>
		</g>
	</g>
	<g>
		<path class="st3" d="M218.4,337c-8.9-2.3-13-3.3-22.2-5.8c4.4-28,8.3-133.7,50.1-125.3c14.3,6.8,6.3,25.2,42.8,18.7
			c16.7-3.7,11.3-16.8,19.8-18.8c18.8-2.1,26,18.3,30.1,32.4c7.7,33.6,13.6,54.1,20.7,88c-8.9,3.7-18.5,6-28.3,6.7
			c-2.3,0.4-15.3-76.1-17.6-75.8c-2.4,0.4,8.8,44.9,5.4,46.2c-21.9,8.2-70.8-3.9-84.8-3.6c-1.7,0,6.9-46.3,3.7-44.2
			C236.7,256.5,222.1,329.1,218.4,337z"/>
		<g>
			<path class="st4" d="M218.4,337l-22.2-5.8c0,0,0,0,0,0c0.9-6,1.5-12.1,2.2-18.2c0.7-6.1,1.3-12.1,2.1-18.2
				c1.5-12.1,3.3-24.2,5.9-36.1c1.3-6,2.8-11.9,4.6-17.7c1.8-5.8,4-11.5,6.8-17c2.8-5.4,6.3-10.6,11.2-14.3c2.4-1.9,5.2-3.2,8.2-3.9
				c3-0.7,6.1-0.6,9.1,0l0,0c1.5,0.7,2.9,1.7,4.2,2.8c1.3,1.1,2.3,2.4,3.3,3.7c2,2.7,3.5,5.7,5.8,8c2.3,2.4,5.3,4,8.5,4.7
				c3.2,0.8,6.6,0.9,9.9,0.7c3.3-0.2,6.6-0.6,9.9-1.1c3.3-0.5,6.5-1.7,9.1-3.6c1.3-1,2.4-2.2,3.3-3.6c0.9-1.4,1.6-2.9,2.2-4.4
				c0.6-1.5,1.2-3.1,2.2-4.5c0.5-0.7,1.1-1.3,1.8-1.8c0.7-0.5,1.5-0.8,2.3-1l0,0c2.9-0.3,5.9-0.2,8.7,0.7c2.8,0.8,5.4,2.4,7.5,4.3
				c4.4,3.9,7.3,9.1,9.6,14.4c1.1,2.7,2.1,5.4,3,8.2c0.4,1.4,0.9,2.8,1.3,4.2c0.4,1.4,0.7,2.8,1,4.2c1.3,5.6,2.6,11.3,4,16.9
				l8.3,33.7c2.7,11.3,5.3,22.5,7.7,33.9c0,0.1,0,0.2-0.1,0.3c-9,3.7-18.6,6-28.4,6.7l0,0c-0.4,0-0.4-0.2-0.5-0.3
				c-0.1-0.1-0.1-0.2-0.2-0.3c-0.1-0.2-0.2-0.4-0.3-0.6c-0.2-0.4-0.3-0.8-0.4-1.3c-0.3-0.9-0.5-1.7-0.7-2.6
				c-0.4-1.7-0.8-3.4-1.2-5.2c-0.8-3.4-1.5-6.9-2.2-10.4l-4.2-20.8c-1.4-6.9-2.8-13.9-4.3-20.8c-0.8-3.5-1.5-6.9-2.4-10.3
				c-0.2-0.8-0.5-1.7-0.8-2.5c-0.1-0.2-0.2-0.4-0.3-0.6c0-0.1-0.1-0.2-0.2-0.2c0,0,0,0,0,0c0,0,0,0,0,0c-0.2,0.3-0.2,0.8-0.2,1.2
				c0,1.7,0.3,3.5,0.6,5.2c1.1,7,2.5,13.9,3.7,20.9c0.6,3.5,1.2,7,1.7,10.5c0.2,1.8,0.4,3.5,0.5,5.3c0,0.9,0,1.8-0.4,2.7
				c-0.1,0.1-0.1,0.2-0.3,0.3c-0.1,0.1-0.2,0.1-0.3,0.1l-0.6,0.2l-1.3,0.4c-3.4,1-6.9,1.5-10.5,1.8c-3.5,0.3-7.1,0.4-10.6,0.3
				c-7.1-0.1-14.1-0.7-21.2-1.6c-7-0.8-14-1.8-21-2.8c-3.5-0.5-7-1-10.5-1.4c-1.8-0.2-3.5-0.4-5.3-0.5c-0.9-0.1-1.8-0.1-2.6-0.1
				l-0.7,0l-0.3,0c-0.2,0-0.2-0.2-0.3-0.3c-0.1-0.5-0.1-0.9,0-1.3c0.2-3.5,0.7-7,1.2-10.5l1.4-10.5c0.5-3.5,0.9-7,1.4-10.5
				c0.2-1.8,0.4-3.5,0.5-5.3c0.1-1.8,0.3-3.5,0-5.3c0-0.2-0.1-0.4-0.3-0.5c-0.1,0-0.2,0-0.2,0.1c-0.1,0.1-0.1,0.2-0.2,0.3
				c-0.2,0.4-0.3,0.8-0.4,1.2c-0.3,0.8-0.5,1.7-0.7,2.6c-0.4,1.7-0.9,3.4-1.3,5.1l-2.4,10.3l-4.6,20.7c-1.5,6.9-3.1,13.8-4.7,20.7
				c-0.8,3.4-1.6,6.9-2.5,10.3c-0.4,1.7-0.9,3.4-1.4,5.1C219.6,333.6,219.1,335.3,218.4,337z M218.4,337c0.7-1.6,1.2-3.3,1.7-5
				c0.5-1.7,0.9-3.4,1.4-5.1c0.9-3.4,1.7-6.9,2.5-10.3c1.6-6.9,3.2-13.8,4.7-20.7l4.6-20.7l2.4-10.3c0.4-1.7,0.8-3.4,1.3-5.2
				c0.2-0.9,0.4-1.7,0.7-2.6c0.1-0.4,0.3-0.8,0.4-1.3c0-0.1,0.1-0.2,0.2-0.3c0.1-0.1,0.2-0.1,0.4-0.1c0.2,0.1,0.3,0.4,0.3,0.6
				c0.3,1.8,0.1,3.5,0,5.3c-0.1,1.8-0.3,3.5-0.5,5.3c-0.4,3.5-0.9,7-1.3,10.5l-1.4,10.5c-0.4,3.5-1,7-1.2,10.5c0,0.4,0,0.9,0,1.3
				c0,0.1,0.1,0.2,0.1,0.2l0.3,0l0.7,0c0.9,0,1.8,0,2.7,0.1c1.8,0.1,3.5,0.3,5.3,0.5c3.5,0.4,7,0.9,10.5,1.4c7,1,14,2,21,2.8
				c7,0.8,14.1,1.4,21.1,1.5c3.5,0.1,7.1,0,10.6-0.3c3.5-0.3,7-0.8,10.4-1.8l1.3-0.4l0.6-0.2c0.2-0.1,0.4-0.1,0.5-0.3
				c0.4-0.7,0.3-1.7,0.3-2.5c0-1.8-0.2-3.5-0.5-5.3c-0.5-3.5-1.1-7-1.7-10.5c-1.2-7-2.6-13.9-3.7-20.9c-0.3-1.8-0.5-3.5-0.6-5.3
				c0-0.5-0.1-0.9,0.2-1.4c0.1-0.1,0.1-0.1,0.2-0.2c0.1,0,0.2,0.1,0.3,0.1c0.1,0.1,0.2,0.2,0.2,0.3c0.1,0.2,0.2,0.4,0.3,0.6
				c0.3,0.8,0.6,1.7,0.8,2.5c0.9,3.4,1.7,6.9,2.5,10.3c1.5,6.9,2.9,13.8,4.3,20.8l4.2,20.8c0.7,3.5,1.5,6.9,2.2,10.4
				c0.4,1.7,0.8,3.4,1.2,5.1c0.2,0.9,0.5,1.7,0.7,2.5c0.1,0.4,0.3,0.8,0.4,1.2c0.1,0.2,0.2,0.4,0.2,0.6c0,0.1,0.1,0.2,0.1,0.3
				c0,0.1,0.2,0.1,0,0.1l0,0l0,0l0,0c9.7-0.7,19.2-3.1,28.2-6.7l-0.1,0.3c-2.4-11.3-4.9-22.6-7.7-33.9l-8.3-33.7
				c-2.9-11.2-4.6-22.8-9.3-33.4c-2.3-5.3-5.2-10.4-9.5-14.3c-2.1-1.9-4.7-3.4-7.4-4.3c-2.7-0.9-5.7-1-8.5-0.7l0,0
				c-1.6,0.4-3,1.3-3.9,2.7c-0.9,1.4-1.5,2.9-2.1,4.4c-0.6,1.5-1.3,3.1-2.2,4.5c-0.9,1.4-2.1,2.7-3.4,3.7c-2.7,2-6,3.1-9.2,3.7
				c-3.3,0.6-6.6,1-9.9,1.1c-3.3,0.1-6.7,0.1-9.9-0.7c-3.3-0.7-6.4-2.4-8.7-4.8c-2.3-2.4-3.9-5.4-5.8-8.1c-1-1.3-2-2.6-3.3-3.7
				c-1.2-1.1-2.6-2-4.1-2.7l0,0c-3-0.6-6.1-0.7-9,0c-3,0.7-5.7,2-8.2,3.9c-4.9,3.7-8.4,8.9-11.2,14.2c-2.8,5.4-5,11.1-6.8,16.9
				c-1.8,5.8-3.3,11.7-4.6,17.7c-2.6,11.9-4.4,24-5.9,36.1c-0.8,6.1-1.4,12.1-2.1,18.2c-0.7,6.1-1.3,12.1-2.2,18.2l0,0L218.4,337z"
				/>
		</g>
	</g>
	<g>
		<path class="st3" d="M236.9,242.8c0.4,4.9,1.1,9.7,2.2,14.5"/>
		<path class="st4" d="M236.9,242.8l2.2,14.5c-0.7-2.3-1.2-4.7-1.6-7.2C237.1,247.7,236.9,245.2,236.9,242.8z"/>
	</g>
	<g>
		<path class="st3" d="M312.7,244.4c0.5,4.9,0.7,9.7,0.7,14.6"/>
		<path class="st4" d="M312.7,244.4c0.4,2.4,0.7,4.8,0.8,7.3c0.1,2.4,0.1,4.9-0.1,7.3c-0.2-2.4-0.2-4.9-0.4-7.3
			C312.9,249.3,312.8,246.9,312.7,244.4z"/>
	</g>
	<g>
		<path class="st5" d="M260.7,247.1c-5.2-14-10.2-27.7-15.1-41.6c-3.9-0.1-10.1-1.3-13,1.2c4.7,12.9,11.5,27.9,16,40.7
			c-27.8,73.5-20.7,124-26.4,163c41.4,10,66-9.4,107.6-0.6c-11.1-31.2,7.1-82.8-24.8-161.2c4.4-14.1,9-27.7,13.6-41.7
			c-3.5-1.5-7.6-2.1-11.4-1.2c-3.1,14.3-8.1,28.2-14.3,41.4C292.4,249.8,261.7,249.2,260.7,247.1z"/>
		<path class="st6" d="M260.6,247.1l-15.1-41.6l0.1,0.1c-2.2-0.1-4.4-0.3-6.7-0.3c-1.1,0-2.2,0.1-3.3,0.3c-1.1,0.2-2.1,0.6-3,1.3
			l0-0.1c5.1,13.6,11.2,26.9,16,40.6c0,0,0,0.1,0,0.1c-4.8,13-8.9,26.2-12.4,39.5c-3.3,13.4-5.8,27-7.6,40.7
			c-1.7,13.7-2.7,27.5-3.4,41.3c-0.7,13.8-1.2,27.6-3.2,41.3l-0.1-0.1c8.8,2.1,17.8,3,26.8,2.9c9-0.1,18-1.4,26.9-2.8
			c8.9-1.4,17.9-2.7,26.9-3c9-0.3,18.1,0.4,27,2.2l-0.2,0.3c-2.3-6.5-3.2-13.4-3.7-20.2c-0.5-6.8-0.6-13.7-0.6-20.5
			c-0.1-13.7-0.2-27.4-1.4-41c-1.2-13.6-3.3-27.2-6.5-40.4c-3.2-13.3-7.5-26.3-12.6-39c0-0.1,0-0.1,0-0.2l13.7-41.7l0.1,0.2
			c-3.6-1.5-7.6-2.1-11.3-1.2l0.1-0.1c-3.2,14.3-8.1,28.2-14.3,41.4l0,0c-0.1,0.4-0.5,0.5-0.8,0.7c-0.3,0.1-0.7,0.2-1,0.3
			c-0.7,0.2-1.3,0.3-2,0.4c-1.4,0.2-2.7,0.3-4.1,0.4c-2.7,0.1-5.5,0.2-8.2,0.2c-2.7,0-5.5-0.1-8.2-0.3c-1.4-0.1-2.7-0.2-4.1-0.4
			c-0.7-0.1-1.4-0.2-2-0.3c-0.3-0.1-0.7-0.2-1-0.3C261.2,247.5,260.9,247.4,260.6,247.1z M260.7,247.1c0.2,0.3,0.6,0.4,0.9,0.5
			c0.3,0.1,0.7,0.2,1,0.3c0.7,0.1,1.3,0.2,2,0.3c1.4,0.2,2.7,0.3,4.1,0.4c2.7,0.2,5.5,0.3,8.2,0.3c2.7,0,5.5,0,8.2-0.2
			c1.4-0.1,2.7-0.2,4.1-0.4c0.7-0.1,1.4-0.2,2-0.4c0.3-0.1,0.7-0.2,1-0.3c0.3-0.1,0.6-0.3,0.7-0.6l0,0l0,0
			c6.1-13.3,11.1-27.1,14.2-41.4c0-0.1,0.1-0.1,0.1-0.1c3.8-0.9,7.9-0.3,11.5,1.2c0.1,0,0.1,0.1,0.1,0.2l-13.5,41.7l0-0.2
			c5.1,12.7,9.4,25.7,12.6,39.1c3.2,13.3,5.3,26.9,6.5,40.5c1.2,13.6,1.3,27.4,1.4,41c0,6.8,0.1,13.7,0.6,20.5
			c0.5,6.8,1.4,13.6,3.7,20.1c0,0.1,0,0.2-0.1,0.2c0,0-0.1,0-0.1,0c-8.8-1.8-17.9-2.6-26.9-2.3c-9,0.3-18,1.6-26.9,3
			c-8.9,1.3-17.9,2.6-26.9,2.7c-9,0.2-18.1-0.8-26.9-2.9c0,0-0.1,0-0.1-0.1c1.9-13.7,2.4-27.5,3.1-41.3c0.7-13.8,1.6-27.6,3.3-41.3
			c1.7-13.7,4.2-27.4,7.5-40.8c3.4-13.4,7.7-26.6,12.5-39.6l0,0.1c-4.8-13.7-10.9-27-15.9-40.7c0,0,0-0.1,0-0.1
			c0.9-0.7,2-1.1,3.1-1.3c1.1-0.2,2.2-0.3,3.3-0.3c2.2,0,4.5,0.3,6.7,0.4c0,0,0.1,0,0.1,0.1L260.7,247.1z"/>
	</g>
	<path class="st7" d="M269,261.4c-1.3-2.6-4.9-3.8-7.5-2.4c-1.5-2-3.1-1.5-0.8,0.4c-0.1,0.1-0.2,0.2-0.4,0.3
		c-2.2-1.7-3.8-0.8-0.6,0.6c-0.1,0.1-0.2,0.2-0.3,0.3c-2.5-1.1-3.4,0.2-0.4,0.8c0.1,0.4,0.6,0.5,0.8,0.1c1.8-3.2,6.8-3,8.4,0.2
		C268.5,262.3,269.2,261.9,269,261.4z"/>
	<path class="st7" d="M261.1,266.6C261.1,266.6,261.1,266.6,261.1,266.6c-1.9-1.3-6.4-2.6-8.9-2.1c1.6,1.4,4.9,1,6.7,1.9
		c-9.6,0.3-7.4,2,0.5,0.7c-1.9,1.6-5.1,1.3-6.8,2.4C254.7,270.6,260.1,268.7,261.1,266.6z"/>
	<path class="st7" d="M294.6,260.2l-1.8,0.5c-0.1-0.1-0.2-0.2-0.3-0.3c3.2-1.5,1.6-2.3-0.6-0.6c-0.1-0.1-0.2-0.2-0.4-0.3
		c2.4-2,0.8-2.5-0.8-0.4c-2.2-1.6-8.3,0.4-7.1,3.1c2-3,6.6-4.1,8.8-0.5c0.2,0.3,0.7,0.2,0.8-0.1
		C293.7,261.4,296.3,260.6,294.6,260.2z"/>
	<path class="st7" d="M299.6,267.6c1.4-1.7-5.1-0.5-6.3-1.2c1.8-0.9,5.1-0.5,6.7-1.9c-2.5-0.6-7,0.7-8.9,2c0.8,2.1,6.4,4,8.5,3
		c-1.7-1.2-4.9-0.9-6.8-2.4C295,267.5,297.3,267.7,299.6,267.6z"/>
	<path class="st7" d="M276.2,265.4c1.1-2.4,2.3,1,0.1,2c0.2,1.3,1.7,1.4,2.6,0.8c2,0.9-2.6,2-2.8,0c-0.4,1.3-3.4,1.5-3.4,0.1
		c0.8-0.1,3.3,1,3.1-1C274,266.8,274.8,263.2,276.2,265.4z"/>
	<g>
		<path class="st7" d="M310.8,305.6c-5.8,0.5-11.6,0.8-17.4,1c-5.8,0.2-11.6,0.2-17.4,0.2c-5.8-0.1-11.6-0.3-17.4-0.6
			c-5.8-0.3-11.6-0.8-17.3-1.4c5.8,0.4,11.6,0.8,17.4,1.1c5.8,0.3,11.6,0.4,17.4,0.5c5.8,0.1,11.6,0,17.4-0.1
			C299.2,306.1,305,305.9,310.8,305.6z"/>
	</g>
	<g>
		<path class="st7" d="M263.5,247.6c-6,0.2-8.3-10-12.6-11.2c0.2,1.1-4.3,11.6-2.2,11.9C250.4,248,264.8,249.6,263.5,247.6z
			 M248.8,246.9l2.6-9.6c0.3,0.4,0.7,0.8,1,1.2c-0.8,3-1.7,6.2-2.8,9C249.2,247.5,248.6,247.7,248.8,246.9z M256.6,247.5
			c-2.1,0-4-0.1-5.9,0c0.9-2.5,1.8-5.3,2.5-8.1c2.1,2.9,4.2,6.5,7.4,8.2C259.2,247.6,257.9,247.6,256.6,247.5z"/>
		<path class="st7" d="M305.3,247.2c-4.8-22.8-4-1.4-15.6,0.8c-0.3,2.2,11.6,0.2,14,0.9C304.6,248.9,305.6,248.9,305.3,247.2z
			 M299.9,248c-2.5,0-5.3,0-7.7,0c3.8-1.9,5.7-5,7.9-7.9c0.8,2.7,1.6,5.3,2.6,7.9C301.8,248,300.9,248,299.9,248z M304.4,248
			c-0.2,0.1-0.5,0.1-0.8,0.1c-1.1-2.9-2-5.9-2.9-8.8c0.4-0.5,0.8-1,1.2-1.4C301.8,238.3,305,247.7,304.4,248z"/>
	</g>
	<g>
		<path class="st4" d="M302.6,220.8c-1.1,2.2-2.5,4.2-4.1,5.9c-1.7,1.7-3.7,3.2-5.8,4.4c-4.3,2.3-9.2,3.4-14,3.6
			c-4.9,0.1-9.7-0.7-14.3-2.5c-4.5-1.7-8.8-4.3-12.2-7.7c3.6,3.3,7.8,5.7,12.3,7.3c4.5,1.6,9.3,2.4,14.1,2.3
			c4.8-0.1,9.6-1.2,13.8-3.4C296.8,228.6,300.4,225.1,302.6,220.8z"/>
	</g>
	<path class="st8" d="M261.8,247.7l0.2,0c9.7,1.8,19.6,1.9,29.3,0.4l0,0"/>
	<g>
		<path class="st7" d="M226.2,350.7c1.9,0.2,3.8-0.1,5.4-1c1.6-0.9,2.9-2.4,3.9-4c1-1.6,1.8-3.3,2.6-5c0.7-1.8,1.4-3.5,2-5.3
			c-0.5,1.8-1,3.7-1.7,5.5c-0.7,1.8-1.5,3.5-2.5,5.2c-1.1,1.6-2.4,3.1-4.1,4C230.1,350.9,228.1,351.1,226.2,350.7z"/>
	</g>
	<g>
		<path class="st7" d="M325.5,353.7c-1.9,0.4-3.9,0.2-5.6-0.7c-1.7-0.9-3.1-2.4-4.1-4c-1-1.6-1.9-3.4-2.5-5.2
			c-0.7-1.8-1.2-3.6-1.7-5.5c0.7,1.8,1.3,3.6,2,5.3c0.7,1.7,1.5,3.5,2.6,5c1,1.6,2.3,3,3.9,4C321.7,353.6,323.6,353.9,325.5,353.7z"
			/>
	</g>
</g>
</svg>
