<?xml version="1.0" encoding="utf-8"?>
<!-- Generator: Adobe Illustrator 24.2.3, SVG Export Plug-In . SVG Version: 6.00 Build 0)  -->
<svg version="1.1" id="tenue_x5F_feminine_x5F_7" xmlns="http://www.w3.org/2000/svg" xmlns:xlink="http://www.w3.org/1999/xlink"
	 x="0px" y="0px" viewBox="0 0 553 574" style="enable-background:new 0 0 553 574;" xml:space="preserve">
<style type="text/css">
	.st0{fill:none;}
	.st1{fill:#C3A289;}
	.st2{fill:#A98D79;}
	.st3{fill:#674D39;}
	.st4{fill:#4C382A;}
	.st5{fill:#EBBD9B;}
	.st6{fill:#CEA284;}
	.st7{fill:#AD8D74;}
	.st8{fill:#7F6655;}
	.st9{fill:#EF4D21;}
	.st10{fill:#CE4323;}
	.st11{fill:#FFFFFF;}
	.st12{fill:#FBA318;}
	.st13{fill:#A92521;}
	.st14{fill:#FDDED6;}
	.st15{fill:#D8A89E;}
	.st16{fill:#F9B09C;}
	.st17{fill:#D98D7D;}
	.st18{fill:#EA9A88;}
</style>
<g id="cadre_8_">
	<rect x="0" class="st0" width="553" height="574"/>
</g>
<g>
	<g>
		<path class="st1" d="M284,540c0.2-3.1,0.5-6.1,1.4-9c0.9-2.9,2.3-5.6,4.3-7.4c3.9-3.5,9.7-3.5,14.1-0.4c4.3,3.1,7,8.9,7.6,14.8
			c-1.4,1.7-3.6,2.2-5.6,2.1c-2-0.1-4.1-0.6-6.1-0.6c-2.6,0-5.2,0.8-7.8,1.2C289.2,541.2,286.4,541.2,284,540z"/>
		<path class="st2" d="M284,540c0.2-4.1,0.6-8.4,2.5-12.2c0.9-1.9,2.2-3.7,3.9-4.9c1.7-1.3,3.8-2,5.9-2.1c2.1-0.1,4.3,0.4,6.1,1.4
			c1.9,1,3.5,2.5,4.8,4.1c2.6,3.4,3.9,7.6,4.4,11.7l0,0.1l-0.1,0.1c-0.8,0.9-1.9,1.6-3.1,1.9c-1.2,0.3-2.4,0.3-3.6,0.2
			c-2.4-0.2-4.7-0.8-7-0.5c-2.3,0.3-4.6,1-6.9,1.2C288.6,541.2,286.1,541.1,284,540z M284,540c2.1,1.1,4.6,1.1,6.9,0.8
			c2.3-0.3,4.6-1.1,6.9-1.3c2.4-0.3,4.7,0.2,7.1,0.4c1.2,0.1,2.3,0.1,3.4-0.3c1.1-0.3,2.1-0.9,2.8-1.8l0,0.2
			c-0.5-4.1-1.9-8.2-4.3-11.5c-1.2-1.7-2.8-3.1-4.6-4c-1.8-1-3.9-1.5-5.9-1.4c-2.1,0.1-4.1,0.8-5.7,2c-1.7,1.2-2.9,3-3.8,4.8
			C284.9,531.6,284.3,535.8,284,540z"/>
	</g>
	<g>
		<path class="st3" d="M311.6,537.6c-0.8,1.1-1.9,1.7-3.1,1.9c-1.2,0.2-2.4,0.1-3.7,0.1c-3.4-0.1-6.8,0.1-10.1,0.7
			c-1.8,0.3-3.5,0.7-5.3,0.7c-1.8,0.1-3.7-0.2-5.2-1c-0.2,1.2-0.3,2.6,0.4,3.5c0.5,0.6,1.2,0.8,1.9,0.9c7.4,1.3,14.8-0.5,22.1-2.2
			c1-0.3,2.1-0.5,2.9-1.4C312.2,539.9,312.4,538.2,311.6,537.6z"/>
		<path class="st4" d="M311.6,537.6c-0.7,1-1.8,1.6-2.9,1.9c-1.2,0.3-2.4,0.2-3.5,0.2c-2.4-0.1-4.7,0-7,0.3c-2.3,0.2-4.6,0.8-7,1.1
			c-2.3,0.3-4.9,0.2-7-0.9l0.3-0.2c-0.1,0.7-0.2,1.4-0.1,2.1c0.1,0.7,0.4,1.3,1,1.6c0.6,0.3,1.3,0.4,2,0.5c0.7,0.1,1.4,0.2,2.1,0.2
			c2.9,0.2,5.8,0,8.6-0.4c2.9-0.4,5.7-1,8.5-1.6l2.1-0.5c0.7-0.2,1.4-0.3,2-0.7c0.6-0.4,1.1-1,1.3-1.7
			C312.1,538.9,312.1,538.1,311.6,537.6z M311.6,537.6c0.6,0.5,0.6,1.3,0.4,2c-0.2,0.7-0.6,1.4-1.3,1.8c-0.6,0.4-1.3,0.6-2,0.8
			l-2.1,0.5c-2.8,0.7-5.7,1.4-8.5,1.8c-2.9,0.4-5.8,0.6-8.7,0.4c-0.7-0.1-1.5-0.1-2.2-0.2c-0.7-0.1-1.5-0.2-2.2-0.6
			c-0.7-0.4-1.1-1.2-1.2-2c-0.1-0.8,0-1.5,0.1-2.2l0.1-0.3l0.3,0.1c2.1,1,4.5,1.2,6.8,0.9c1.2-0.1,2.3-0.4,3.5-0.6
			c1.2-0.2,2.3-0.3,3.5-0.4c2.4-0.2,4.7-0.3,7.1-0.1c1.2,0.1,2.4,0.1,3.5-0.1C309.8,539.1,310.9,538.5,311.6,537.6z"/>
	</g>
	<g>
		<path class="st5" d="M280.3,490.4c-0.6-1.3,0.3-2.9,1.4-3.7c1.1-0.8,2.4-1.2,3.3-2.1c0.3-0.4,0.6-0.8,1.1-0.9s1.1,0.3,0.9,0.8
			c0.6-1,1.9-1.1,3-1c3.1,0.1,6.2,0.2,9.3,0.2c0.9,0,1.9,0,2.8,0.2c2.1,0.3,4.2,1.3,6.2,2.3c1.4,0.7,2.7,1.4,3.8,2.5
			c1.1,1.1,2,2.7,2,4.4s-0.9,3.4-2.4,3.7c1.3-0.9,1.3-3.3,0.4-4.7c-1-1.5-2.6-2.1-4.1-2.7C298.6,485.9,288.2,485.5,280.3,490.4z"/>
		<path class="st6" d="M280.3,490.4c-0.4-0.9-0.2-1.9,0.3-2.6c0.5-0.8,1.3-1.3,2.1-1.8c0.8-0.4,1.6-0.9,2.2-1.6
			c0.3-0.3,0.6-0.8,1.1-0.9c0.5-0.1,1.1,0.4,1,1l-0.2-0.1c0.4-0.7,1.3-1,2-1.1c0.8-0.1,1.5,0,2.3,0l4.5,0.1l4.5,0.1
			c1.5,0,3.1,0.3,4.5,0.9c1.4,0.5,2.8,1.2,4.2,1.9c1.3,0.7,2.7,1.5,3.7,2.7c1,1.2,1.7,2.7,1.7,4.3c0,0.8-0.2,1.6-0.7,2.3
			c-0.4,0.7-1.1,1.3-2,1.4l-1.1,0.2l1-0.6c0.6-0.4,0.9-1.2,0.9-1.9c0-0.8-0.1-1.5-0.5-2.2c-0.7-1.4-2.2-2.2-3.7-2.7
			c-3-1.1-6.1-1.9-9.3-2.4c-3.2-0.4-6.4-0.5-9.6,0C286.2,487.7,283.1,488.7,280.3,490.4z M280.3,490.4c2.8-1.7,5.9-2.8,9.1-3.3
			c3.2-0.6,6.5-0.5,9.7-0.1c3.2,0.4,6.4,1.2,9.4,2.3c1.5,0.6,3.1,1.4,3.9,2.9c0.4,0.8,0.6,1.6,0.5,2.5c0,0.8-0.4,1.8-1.1,2.3
			l-0.2-0.4c0.7-0.1,1.3-0.6,1.6-1.2c0.4-0.6,0.6-1.3,0.6-2c0-1.4-0.6-2.9-1.5-4c-1-1.1-2.2-1.9-3.6-2.6c-1.3-0.7-2.7-1.4-4.1-1.9
			c-2.8-1.2-5.9-0.9-8.9-1l-4.5-0.1c-0.8,0-1.5-0.1-2.3,0c-0.7,0.1-1.5,0.3-1.8,0.9l-0.5,0.9l0.3-1c0.1-0.4-0.3-0.8-0.7-0.7
			c-0.4,0.1-0.7,0.5-1,0.8c-0.6,0.7-1.5,1.1-2.3,1.6c-0.8,0.4-1.6,0.9-2.1,1.7C280.2,488.5,279.9,489.5,280.3,490.4z"/>
	</g>
	<g>
		<g>
			<path class="st7" d="M308.2,527.7c-1.1-10.3,1.9-20.3,4.1-30.1c0.4-1.7,0.7-3.7-0.1-5.3c-0.7-1.3-2.1-2-3.4-2.5
				c-4.6-1.9-9.5-3.1-14.3-3.1c-4.8,0-9.7,1.1-13.7,3.7c0.3,9.6,1.4,19.1,2.5,28.6c0.5,4.2,1,8.5,1.5,12.7
				c1.1-5.5,5.3-9.9,10.1-10.8C299.8,520,305.1,522.7,308.2,527.7z"/>
			<path class="st8" d="M308.2,527.7c-0.6-5.8,0-11.6,1.1-17.3c0.5-2.8,1.2-5.7,1.9-8.5l1-4.2c0.3-1.4,0.6-2.8,0.4-4.2
				c-0.1-0.7-0.4-1.3-0.9-1.9c-0.5-0.5-1.1-0.9-1.7-1.2c-1.3-0.6-2.7-1.1-4-1.6c-2.7-0.9-5.6-1.6-8.4-1.9
				c-5.7-0.6-11.7,0.5-16.5,3.5l0.1-0.2c0.1,3.5,0.3,6.9,0.6,10.3c0.3,3.4,0.6,6.9,1,10.3l2.4,20.6l-0.3,0c0.5-2.6,1.8-5,3.5-7
				c1.8-1.9,4.1-3.4,6.8-3.8c2.6-0.4,5.3,0.2,7.6,1.5C304.9,523.5,306.8,525.4,308.2,527.7z M308.2,527.7c-1.4-2.2-3.3-4.1-5.6-5.4
				c-2.3-1.3-5-1.8-7.5-1.4c-2.6,0.5-4.9,1.9-6.6,3.8c-1.7,1.9-2.9,4.3-3.4,6.9l-0.2,0.9l-0.1-1l-2.5-20.6
				c-0.8-6.9-1.5-13.8-1.7-20.7l0-0.1l0.1-0.1c5-3.1,11.1-4.1,16.8-3.5c2.9,0.3,5.7,1,8.5,1.9c1.4,0.5,2.7,1,4.1,1.6
				c0.7,0.3,1.3,0.8,1.8,1.3c0.5,0.6,0.8,1.3,1,2c0.3,1.5-0.1,3-0.4,4.4l-1,4.2c-0.7,2.8-1.3,5.6-1.9,8.5
				C308.4,516.1,307.7,521.9,308.2,527.7z"/>
		</g>
	</g>
	<g>
		<g>
			<path class="st1" d="M269.5,540c-0.2-3.1-0.5-6.1-1.4-9c-0.9-2.9-2.3-5.6-4.3-7.4c-3.9-3.5-9.7-3.5-14.1-0.4
				c-4.3,3.1-7,8.9-7.6,14.8c1.4,1.7,3.6,2.2,5.6,2.1s4.1-0.6,6.1-0.6c2.6,0,5.2,0.8,7.8,1.2C264.3,541.2,267.1,541.2,269.5,540z"/>
			<path class="st2" d="M269.5,540c-0.3-4.1-0.9-8.4-2.7-12.1c-0.9-1.9-2.2-3.6-3.8-4.8c-1.7-1.2-3.7-1.9-5.7-2
				c-2.1-0.1-4.1,0.4-5.9,1.4c-1.8,1-3.4,2.4-4.6,4c-2.5,3.3-3.9,7.4-4.3,11.5l0-0.2c0.7,0.9,1.7,1.5,2.8,1.8
				c1.1,0.3,2.3,0.3,3.4,0.3c2.3-0.2,4.7-0.8,7.1-0.4c2.4,0.3,4.6,1,6.9,1.3C265,541.1,267.4,541,269.5,540z M269.5,540
				c-2.1,1.1-4.6,1.3-6.9,1c-2.4-0.3-4.6-1-6.9-1.2c-2.3-0.3-4.6,0.3-7,0.5c-1.2,0.1-2.4,0.1-3.6-0.2c-1.2-0.3-2.3-0.9-3.1-1.9
				L242,538l0-0.1c0.4-4.2,1.8-8.3,4.4-11.7c1.3-1.7,2.9-3.2,4.8-4.1c1.9-1,4-1.5,6.1-1.4c2.1,0.1,4.2,0.8,5.9,2.1
				c1.7,1.3,3,3.1,3.9,4.9C268.9,531.5,269.3,535.8,269.5,540z"/>
		</g>
		<g>
			<path class="st3" d="M242,537.6c0.8,1.1,1.9,1.7,3.1,1.9c1.2,0.2,2.4,0.1,3.7,0.1c3.4-0.1,6.8,0.1,10.1,0.7
				c1.8,0.3,3.5,0.7,5.3,0.7c1.8,0.1,3.7-0.2,5.2-1c0.2,1.2,0.3,2.6-0.4,3.5c-0.5,0.6-1.2,0.8-1.9,0.9c-7.4,1.3-14.8-0.5-22.1-2.2
				c-1-0.3-2.1-0.5-2.9-1.4C241.4,539.9,241.2,538.2,242,537.6z"/>
			<path class="st4" d="M242,537.6c0.7,1,1.8,1.6,2.9,1.8c1.1,0.2,2.3,0.2,3.5,0.1c2.4-0.1,4.7-0.1,7.1,0.1c1.2,0.1,2.4,0.3,3.5,0.4
				c1.2,0.2,2.3,0.4,3.5,0.6c2.3,0.3,4.7,0.2,6.8-0.9l0.3-0.1l0.1,0.3c0.1,0.7,0.2,1.5,0.1,2.2c-0.1,0.8-0.5,1.6-1.2,2
				c-0.7,0.4-1.5,0.4-2.2,0.6c-0.7,0.1-1.5,0.2-2.2,0.2c-2.9,0.2-5.9,0-8.7-0.4c-2.9-0.4-5.7-1.1-8.5-1.8l-2.1-0.5
				c-0.7-0.2-1.4-0.4-2-0.8c-0.6-0.4-1.1-1-1.3-1.8C241.4,538.9,241.4,538.1,242,537.6z M242,537.6c-0.5,0.5-0.6,1.3-0.4,2
				c0.2,0.7,0.6,1.3,1.3,1.7c0.6,0.4,1.3,0.6,2,0.7l2.1,0.5c2.8,0.6,5.7,1.3,8.5,1.6c2.9,0.4,5.8,0.6,8.6,0.4
				c0.7-0.1,1.4-0.1,2.1-0.2c0.7-0.1,1.4-0.2,2-0.5c0.6-0.3,0.9-0.9,1-1.6c0.1-0.7,0-1.4-0.1-2.1l0.3,0.2c-2.2,1.1-4.7,1.2-7,0.9
				c-2.4-0.3-4.6-0.9-7-1.1c-2.3-0.3-4.7-0.3-7-0.3c-1.2,0-2.4,0.1-3.5-0.2C243.7,539.2,242.6,538.6,242,537.6z"/>
		</g>
		<g>
			<path class="st5" d="M273.3,490.4c0.6-1.3-0.3-2.9-1.4-3.7c-1.1-0.8-2.4-1.2-3.3-2.1c-0.3-0.4-0.6-0.8-1.1-0.9s-1.1,0.3-0.9,0.8
				c-0.6-1-1.9-1.1-3-1c-3.1,0.1-6.2,0.2-9.3,0.2c-0.9,0-1.9,0-2.8,0.2c-2.1,0.3-4.2,1.3-6.2,2.3c-1.4,0.7-2.7,1.4-3.8,2.5
				c-1.1,1.1-2,2.7-2,4.4s0.9,3.4,2.4,3.7c-1.3-0.9-1.3-3.3-0.4-4.7c1-1.5,2.6-2.1,4.1-2.7C254.9,485.9,265.3,485.5,273.3,490.4z"/>
			<path class="st6" d="M273.3,490.4c0.4-0.9,0.1-1.9-0.4-2.6c-0.5-0.8-1.3-1.3-2.1-1.7c-0.8-0.4-1.7-0.8-2.3-1.6
				c-0.3-0.3-0.6-0.7-1-0.8c-0.4-0.1-0.8,0.3-0.7,0.7l0.3,1l-0.5-0.9c-0.4-0.6-1.1-0.9-1.8-0.9c-0.7-0.1-1.5,0-2.3,0l-4.5,0.1
				c-3,0.2-6.1-0.1-8.9,1c-1.4,0.5-2.8,1.2-4.1,1.9c-1.3,0.7-2.6,1.5-3.6,2.6c-0.9,1.1-1.6,2.5-1.5,4c0,0.7,0.2,1.4,0.6,2
				c0.4,0.6,0.9,1.1,1.6,1.2l-0.2,0.4c-0.8-0.5-1.1-1.4-1.1-2.3c0-0.8,0.1-1.7,0.5-2.5c0.8-1.5,2.4-2.4,3.9-2.9
				c3-1.1,6.2-1.9,9.4-2.3c3.2-0.4,6.5-0.5,9.7,0.1C267.4,487.5,270.5,488.7,273.3,490.4z M273.3,490.4c-2.8-1.6-5.9-2.7-9.1-3.1
				c-3.2-0.5-6.4-0.4-9.6,0c-3.2,0.5-6.3,1.3-9.3,2.4c-1.5,0.6-2.9,1.4-3.7,2.7c-0.4,0.7-0.5,1.5-0.5,2.2c0,0.8,0.3,1.5,0.9,1.9
				l1,0.6l-1.1-0.2c-0.8-0.1-1.5-0.7-2-1.4c-0.4-0.7-0.6-1.5-0.7-2.3c0-1.6,0.7-3.1,1.7-4.3c1-1.2,2.4-2,3.7-2.7
				c1.4-0.7,2.7-1.4,4.2-1.9c1.4-0.5,3-0.8,4.5-0.9l4.5-0.1l4.5-0.1c0.8,0,1.5-0.1,2.3,0c0.8,0.1,1.6,0.4,2,1.1l-0.2,0.1
				c-0.1-0.6,0.5-1.1,1-1c0.5,0.1,0.8,0.6,1.1,0.9c0.6,0.7,1.4,1.1,2.2,1.6c0.8,0.4,1.6,1,2.1,1.8
				C273.4,488.5,273.6,489.5,273.3,490.4z"/>
		</g>
		<g>
			<g>
				<path class="st7" d="M245.3,527.7c1.1-10.3-1.9-20.3-4.1-30.1c-0.4-1.7-0.7-3.7,0.1-5.3c0.7-1.3,2.1-2,3.4-2.5
					c4.6-1.9,9.5-3.1,14.3-3.1c4.8,0,9.7,1.1,13.7,3.7c-0.3,9.6-1.4,19.1-2.5,28.6c-0.5,4.2-1,8.5-1.5,12.7
					c-1.1-5.5-5.3-9.9-10.1-10.8C253.7,520,248.4,522.7,245.3,527.7z"/>
				<path class="st8" d="M245.3,527.7c0.5-5.8-0.2-11.6-1.3-17.2c-0.6-2.8-1.2-5.6-1.9-8.5l-1-4.2c-0.3-1.4-0.6-2.9-0.4-4.4
					c0.1-0.7,0.5-1.4,1-2c0.5-0.6,1.1-1,1.8-1.3c1.3-0.6,2.7-1.1,4.1-1.6c2.7-0.9,5.6-1.6,8.5-1.9c5.8-0.6,11.8,0.4,16.8,3.5
					l0.1,0.1l0,0.1c-0.2,6.9-0.9,13.8-1.7,20.7l-2.5,20.6l-0.1,1l-0.2-0.9c-0.5-2.5-1.7-4.9-3.4-6.9c-1.7-1.9-4-3.4-6.6-3.8
					c-2.6-0.5-5.2,0.1-7.5,1.4C248.7,523.6,246.7,525.5,245.3,527.7z M245.3,527.7c1.4-2.2,3.3-4.2,5.6-5.4c2.3-1.3,5-1.9,7.6-1.5
					c2.6,0.4,5,1.9,6.8,3.8c1.8,2,3,4.4,3.5,7l-0.3,0l2.4-20.6c0.4-3.4,0.7-6.9,1-10.3c0.3-3.4,0.5-6.9,0.6-10.3l0.1,0.2
					c-4.9-3.1-10.8-4.1-16.5-3.5c-2.9,0.3-5.7,0.9-8.4,1.9c-1.4,0.5-2.7,0.9-4,1.6c-0.6,0.3-1.2,0.7-1.7,1.2
					c-0.5,0.5-0.8,1.2-0.9,1.9c-0.3,1.4,0,2.8,0.4,4.2l1,4.2c0.7,2.8,1.3,5.6,1.9,8.5C245.3,516.1,246,521.9,245.3,527.7z"/>
			</g>
		</g>
	</g>
	<g>
		<path class="st9" d="M354.8,313.5c-1.5-11.5-3-23-4.5-34.4c0.7-7-1.5-13.8-3.8-20.5c-1.9-5.7-2.6-10.1-4.5-15.8
			c-1.9-5.8-4.8-10.8-6.7-16.6c-1.3-3.9-2.9-10-5.9-13.1c-2.6-2.7-6.1-4.4-9.5-6c-3.6-1.7-7.5-2.8-11.5-2.9
			c-6.2-0.3-7.6,4.3-11.7,5.6c-7,2.2-14.4,4-22.1,2.6c-6.5-1.2-13.2-3.8-17.1-8.8c-4.3-0.5-20.8,1.6-21.9,1.7
			c-7,2.1-7.5,3.3-12.8,8.1c-5.5,5-7.8,13.4-10.2,20.2c-2.8,7.8-8,20.5-8.5,31c-0.4,7.1-4.3,6-3.9,17.9c0.3,8-1.3,27-2.5,37.9
			c-0.1,1.3-0.6,4-0.1,5.2c1.4,3,7.3,3,11.3,3.5c3.5,0.4,9.6,1,10.1-0.2c1.3-3,2.3-5.2,3.2-7.2c4.4-9.9,5.5-18,8.3-27
			c-1.1,6.7-3,14.2,3.5,18.3c28.3,5.4,57.1,4.9,85.3-0.1c3.5-0.6,6-3.6,6-7.1l0-0.1c2.4,5.9,4.9,11.7,7.5,17.6
			c0.4,0.8,1.3,1.3,2.2,1.3c3.7-0.3,6.2-1,9.6-1c3.8-0.1,8.1-0.8,9.8-2.4C356,319.6,355,315.3,354.8,313.5z"/>
		<path class="st10" d="M354.8,313.5l-4.5-34.4l0,0l0,0c0.6-6.2-1.1-12.3-3-18.2c-1-2.9-1.9-5.9-2.7-8.9c-0.8-3-1.5-6-2.5-8.9
			c-1.9-5.9-5-11.3-7-17.2c-1-2.9-1.8-5.9-3.1-8.7c-0.7-1.4-1.4-2.7-2.5-3.9c-1-1.1-2.3-2.1-3.6-2.9c-1.3-0.8-2.7-1.6-4-2.3
			c-1.4-0.7-2.8-1.4-4.2-1.9c-2.9-1.1-5.9-1.8-9-2c-1.5-0.1-3.1,0.1-4.5,0.7c-1.4,0.6-2.6,1.6-3.8,2.6c-1.2,1-2.5,2-4,2.4
			c-1.5,0.5-3,0.9-4.5,1.3c-6,1.6-12.3,2.3-18.4,1c-3-0.6-6-1.5-8.8-2.9c-2.8-1.4-5.4-3.2-7.3-5.7l0.1,0.1c-1.8-0.1-3.6,0-5.5,0.1
			c-1.8,0.1-3.6,0.3-5.5,0.4l-5.5,0.6l-5.5,0.6l0,0c-1.9,0.6-3.8,1.2-5.5,2.2c-1.7,0.9-3.2,2.3-4.7,3.6c-1.4,1.4-3,2.6-4.3,4.1
			c-1.3,1.5-2.3,3.2-3.2,4.9c-1.8,3.5-3.1,7.3-4.4,11.1c-1.3,3.8-2.8,7.5-4.1,11.2c-2.6,7.5-4.9,15.2-5.3,23.1c-0.1,1-0.3,2-0.7,3
			c-0.4,1-0.8,1.8-1.3,2.7c-0.9,1.8-1.4,3.7-1.7,5.6c-0.2,2-0.2,3.9-0.2,5.9c0.1,2,0,4-0.1,6c-0.3,8-0.9,15.9-1.7,23.8l-0.6,5.9
			c-0.2,2-0.6,4-0.5,5.9c0,1,0.7,1.7,1.5,2.3c0.8,0.5,1.8,0.8,2.7,1.1c1.9,0.4,3.9,0.6,5.9,0.8c2,0.2,4,0.4,5.9,0.6
			c1,0.1,2,0.1,3,0.1c0.5,0,1-0.1,1.5-0.1c0.2,0,0.5-0.1,0.6-0.2c0.1-0.1,0.2-0.1,0.2-0.2c0-0.1,0.1-0.2,0.1-0.3
			c1.5-3.7,3.4-7.2,4.8-10.9c2.9-7.4,4.3-15.3,6.7-22.9l0.3,0.1c-0.5,3.3-1.3,6.6-1.1,9.9c0.1,1.6,0.4,3.3,1.2,4.8
			c0.8,1.5,2,2.7,3.3,3.6l0,0c15.7,3,31.7,4.2,47.7,3.8c8-0.2,16-0.8,23.9-1.8c2-0.2,4-0.5,5.9-0.8c2-0.3,4-0.6,5.9-0.9
			c1-0.2,2-0.3,2.9-0.6c0.9-0.3,1.8-0.9,2.5-1.5c1.5-1.3,2.3-3.3,2.3-5.3l0-0.2l0.1,0.2l4.8,11.3l2.4,5.7c0.2,0.5,0.4,1,0.8,1.3
			c0.4,0.3,0.9,0.5,1.4,0.5c1,0,2-0.2,3.1-0.3c2-0.3,4.1-0.6,6.1-0.7c2.1,0,4.1-0.2,6.1-0.6c1-0.2,2-0.5,2.9-0.9
			c0.5-0.2,0.9-0.5,1.3-0.8c0.4-0.3,0.6-0.8,0.7-1.3C355.6,317.5,355.1,315.5,354.8,313.5z M354.8,313.5c0.3,2,0.8,4.1,0.5,6.1
			c-0.1,0.5-0.3,1-0.7,1.3c-0.4,0.3-0.8,0.6-1.3,0.8c-0.9,0.4-1.9,0.7-2.9,0.9c-2,0.4-4.1,0.6-6.1,0.6c-2.1,0.1-4.1,0.4-6.1,0.7
			c-1,0.1-2,0.3-3.1,0.3c-0.5,0-1-0.2-1.4-0.5c-0.4-0.3-0.6-0.8-0.8-1.3l-2.4-5.7l-4.8-11.3l0.1,0c0,2-0.8,4-2.3,5.4
			c-0.7,0.7-1.6,1.2-2.6,1.6c-1,0.3-2,0.4-2.9,0.6c-2,0.3-3.9,0.7-5.9,0.9c-2,0.3-4,0.6-5.9,0.8c-7.9,1-15.9,1.6-23.9,1.9
			c-16,0.4-32-0.7-47.8-3.7l0,0l0,0c-1.4-0.9-2.7-2.1-3.4-3.7c-0.8-1.5-1.1-3.2-1.2-4.9c-0.2-3.4,0.6-6.7,1.1-10l0.3,0.1
			c-2.3,7.6-3.8,15.5-6.6,22.9c-1.4,3.7-3.2,7.3-4.8,10.9c-0.1,0.1-0.1,0.2-0.2,0.4c-0.1,0.2-0.2,0.2-0.3,0.3
			c-0.2,0.1-0.5,0.2-0.8,0.3c-0.5,0.1-1,0.1-1.5,0.2c-1,0-2,0-3-0.1c-2-0.1-4-0.4-5.9-0.5c-2-0.2-4-0.3-5.9-0.8
			c-1-0.2-2-0.5-2.8-1.1c-0.9-0.5-1.6-1.5-1.7-2.5c-0.1-1,0-2,0.1-3c0.1-1,0.2-2,0.3-3l0.6-5.9c0.7-7.9,1.3-15.9,1.6-23.8
			c0.1-2,0.1-4,0.1-6c0-2-0.1-4,0.2-6c0.2-2,0.8-4,1.7-5.8c0.4-0.9,0.9-1.8,1.2-2.7c0.4-0.9,0.5-1.9,0.7-2.8
			c0.4-8,2.7-15.7,5.4-23.2c1.3-3.8,2.8-7.5,4.1-11.2c1.3-3.8,2.6-7.6,4.4-11.1c0.9-1.8,2-3.5,3.3-5c1.3-1.5,2.9-2.8,4.3-4.2
			c1.5-1.3,3-2.7,4.7-3.7c1.8-1,3.7-1.6,5.6-2.2l0,0l0,0l5.4-0.6l5.5-0.5c1.8-0.2,3.6-0.3,5.5-0.4c1.8-0.1,3.7-0.2,5.5-0.1l0.1,0
			l0,0.1c1.9,2.4,4.4,4.3,7.2,5.6c2.8,1.4,5.7,2.3,8.7,2.9c6,1.3,12.3,0.6,18.3-0.9c2.9-0.9,6.1-1.4,8.4-3.6c1.2-1,2.4-2,3.8-2.6
			c1.4-0.7,3-0.8,4.6-0.7c3.1,0.2,6.2,0.9,9.1,2c1.4,0.6,2.8,1.3,4.2,1.9c1.4,0.7,2.8,1.4,4.1,2.3c1.3,0.8,2.5,1.8,3.6,3
			c1.1,1.2,1.8,2.5,2.5,3.9c1.3,2.8,2.2,5.8,3.1,8.7c1.9,5.9,5,11.3,6.9,17.2c1,2.9,1.7,5.9,2.5,8.9c0.8,3,1.7,6,2.6,8.9
			c0.9,2.9,1.8,5.9,2.4,9c0.6,3,0.8,6.1,0.6,9.2l0,0L354.8,313.5z"/>
	</g>
	<path class="st11" d="M305.6,240.1c-0.5-0.7-1.1-1.2-1.8-1.6c0.6-0.1,1.1-0.3,1.6-0.6c1.6-0.7,3.3-2.1,2.8-4.1
		c-0.2-0.8-0.8-1.4-1.6-1.6c-0.9-0.2-1.8,0.2-2.6,0.7c-1.3,0.9-2.4,2.2-3.3,3.5c-0.1-1.3-0.5-2.6-1.1-3.7c-0.7-1.2-2-2.3-3.4-1.5
		c-1.5,0.8-0.8,2.8-0.2,3.9c0.1,0.2,0.3,0.5,0.5,0.7c-0.6-0.1-1.1-0.3-1.7-0.3c-1.7-0.2-3.7,0-4.4,1.8c-0.6,1.6,0.7,3,2.2,3.2
		c1,0.1,2-0.3,2.9-0.6c0.5-0.2,0.9-0.3,1.4-0.5c-0.4,0.9-0.7,1.9-0.9,2.9c-0.2,1.3-0.3,3.4,1.2,4c1.6,0.6,2.8-0.9,3-2.3
		c0.1-0.5,0.1-0.9,0.1-1.4c0.2,0.3,0.4,0.6,0.6,0.8c0.7,0.7,1.5,1.4,2.3,1.9c0.8,0.4,1.8,0.9,2.7,0.4c0.9-0.5,1-1.8,0.9-2.7
		C306.7,241.8,306.2,240.9,305.6,240.1z M303.9,234.8c0.5-0.5,1-1,1.7-1.2c0.7-0.2,1.2,0.1,1.2,0.8c0,1.3-1.8,2.1-2.8,2.4
		c-0.7,0.2-1.3,0.3-2,0.4C302.6,236.4,303.2,235.5,303.9,234.8z M296.8,232.4c0.8-0.8,1.7,1.2,2,1.7c0.4,0.8,0.6,1.7,0.7,2.7
		c-0.5-0.5-1.1-0.9-1.5-1.5C297.5,234.7,296.1,233,296.8,232.4z M294.2,238.6c-0.6,0.2-1.3,0.4-1.9,0.1c-0.5-0.2-0.7-0.7-0.3-1.2
		c0.7-1,2.5-0.7,3.5-0.4c0.6,0.1,1.2,0.3,1.7,0.5C296.2,238,295.2,238.3,294.2,238.6z M298.7,243.8c-0.1,0.3-0.4,1.2-0.9,0.9
		c-0.4-0.2-0.3-1-0.3-1.4c0-0.6,0.1-1.1,0.2-1.6c0.2-0.9,0.5-1.7,0.9-2.4c0,0.9,0,1.8,0.1,2.7C298.7,242.6,298.8,243.2,298.7,243.8z
		 M304.9,244.2c-0.6,0-1.4-0.6-1.8-0.9c-0.6-0.4-1.1-0.9-1.5-1.5c-0.7-0.9-1.2-1.9-1.4-3c1.3,0.2,2.7,0.8,3.7,1.7
		c0.5,0.5,1,1.1,1.2,1.9c0.1,0.4,0.2,0.7,0.2,1.1C305.3,243.8,305.3,244.2,304.9,244.2z"/>
	<path class="st12" d="M301.8,236.9c-0.1-0.2-0.2-0.3-0.4-0.4c-0.4-0.2-0.9-0.2-1.3-0.1c-0.1,0-0.2-0.1-0.3-0.1
		c-0.7-0.1-1.4,0.5-1.5,1.1c0,0,0,0.1-0.1,0.1c-0.1,0.2-0.2,0.4-0.3,0.6c-0.1,0.3,0,0.7,0.3,0.9c0,0,0,0,0,0
		c0.1,0.1,0.1,0.2,0.2,0.2c0,0,0.1,0,0.1,0c0.4,0.3,1,0.5,1.6,0.3c0.2,0,0.4-0.1,0.6-0.2c0.2,0,0.5-0.1,0.6-0.3
		c0.1-0.2,0.2-0.5,0.2-0.7c0,0,0-0.1,0-0.1c0,0,0,0,0-0.1c0,0,0,0,0,0c0.2-0.2,0.3-0.4,0.4-0.6C301.9,237.3,301.9,237.1,301.8,236.9
		z"/>
	<path class="st13" d="M200.8,319c2.7,1.7,6,2.1,9,2.7c3.5,0.7,6.9,1.2,10.4,1.4c0.2,0,0.2-0.3,0-0.3c-3.5-0.2-6.9-0.7-10.4-1.4
		c-3-0.6-6.3-1-8.9-2.6C200.8,318.7,200.6,318.9,200.8,319"/>
	<path class="st13" d="M353,314.3c-2.6,1.8-5.9,2.2-8.9,2.9c-3.4,0.8-6.8,1.4-10.3,1.7c-0.2,0-0.2,0.3,0,0.3c3.5-0.3,7-0.9,10.4-1.7
		c3-0.7,6.3-1.2,8.9-2.9C353.3,314.4,353.1,314.2,353,314.3"/>
	<path class="st13" d="M250.6,308.3c0.6,1.6,1.7,3.1,3.1,4.1c0,0,0.1,0,0.2,0c0.8-0.9,1.3-2,1.4-3.1c0-0.2-0.2-0.2-0.3,0
		c-0.1,1.1-0.6,2.1-1.3,2.9c0.1,0,0.1,0,0.2,0c-1.3-1-2.4-2.4-2.9-4C250.8,308.1,250.5,308.1,250.6,308.3"/>
	<path class="st13" d="M303.6,309c-0.3,1.2-0.1,2.5,0.5,3.6c0,0.1,0.1,0.1,0.2,0l3.1-3c0.1-0.1-0.1-0.3-0.2-0.2l-3.1,3l0.2,0
		c-0.5-1-0.7-2.3-0.4-3.4C303.9,308.9,303.6,308.8,303.6,309"/>
	<path class="st13" d="M296.5,310.7c0.5,0.5,1,1,1.6,1.5c0.1,0.1,0.3-0.1,0.2-0.2c-0.5-0.5-1-1-1.6-1.5
		C296.5,310.4,296.4,310.6,296.5,310.7"/>
	<g>
		<path class="st13" d="M256,205.2c0.2,2.3,1.6,4.3,3.3,5.7c1.7,1.5,3.7,2.6,5.7,3.4c4.2,1.7,8.7,2.3,13.2,2.5
			c4.5,0.3,9.1,0.2,13.4-1c2.2-0.6,4.3-1.5,6.2-2.7c1.9-1.2,3.6-2.7,4.9-4.6c-1.2,1.9-2.9,3.5-4.8,4.8c-1.9,1.3-4,2.2-6.2,2.8
			c-4.4,1.3-9,1.3-13.5,1.1c-4.5-0.3-9.1-0.8-13.3-2.6c-2.1-0.9-4.1-2.1-5.8-3.6C257.5,209.5,256.2,207.4,256,205.2z"/>
	</g>
	<g>
		<path class="st13" d="M229.7,298.4c1-4.1,1.5-8.3,1.9-12.4c0.4-4.2,0.5-8.4,0.7-12.6c0.2-4.2,0.5-8.4,1.2-12.6
			c0.6-4.2,1.6-8.3,3.2-12.2c-1.4,4-2.2,8.1-2.8,12.3c-0.6,4.2-0.8,8.4-1,12.6c-0.2,4.2-0.4,8.4-0.9,12.6
			C231.5,290.2,230.9,294.4,229.7,298.4z"/>
	</g>
	<g>
		<path class="st13" d="M325.7,305.7c-2.4-4.3-3.9-9-4.9-13.8c-1-4.8-1.4-9.7-1.8-14.6c-0.3-4.9-0.6-9.8-1.1-14.6
			c-0.5-4.9-1.3-9.7-2.8-14.4c1.7,4.6,2.6,9.5,3.2,14.3c0.6,4.9,0.9,9.8,1.2,14.6c0.3,4.9,0.8,9.7,1.6,14.6
			C322.1,296.6,323.5,301.3,325.7,305.7z"/>
	</g>
	<g>
		<g>
			<path class="st14" d="M320.3,316.4c1.8-0.4,4.6-0.1,4.6-0.1s2.7-0.8,4.5,9.9c1.4,8.4,6.6,22,9.5,31.4c4,13.2,7.2,22.4,9.6,35.8
				c1,5.3-0.4,7-3.2,8.2c-2.3,0.9-5.4,2.3-7.9,2.4c-4.3,0.1-9.9-0.8-13.9,0.8c-3.5,1.4-6.6,4.4-10.4,4.2c-4.6-0.1-8.7-5.5-13.1-3.9
				c-1.7,0.6-3.3,4.3-5,4.9c-3.1,1.2-7,0.2-11,0.6c-6.1,0.6-7.5-5.2-9.2-5.2c-9.1,0.2-23.1-0.8-26.2,0c-2.2,0.6-1.6,5.3-9.6,4.8
				c-2.3-0.2-5.4-0.5-7-2.3c-1.5-1.7-1.2-4.8-3.9-5.6c-2.3-0.7-4.7-0.4-7,0c-3.7,0.7-7.9,0.7-11.2-1.1c-3.2-1.7-5.7-3.8-3.9-9.3
				c4.8-14.2,12.5-36.5,16.7-54.8c1.7-7.4,2.9-14.8,7.8-18.3C262.4,321.8,290.9,320.5,320.3,316.4z"/>
			<path class="st15" d="M320.3,316.4c1.5-0.3,3.1-0.2,4.6-0.1l0,0c0.4-0.1,0.8,0.2,1.1,0.5c0.3,0.3,0.6,0.6,0.8,1
				c0.5,0.7,0.8,1.5,1.1,2.3c0.6,1.6,0.9,3.3,1.3,5c0.6,3.4,1.4,6.7,2.4,9.9c1.9,6.5,4.2,13,6.3,19.5c4,13,8.4,26,10.8,39.5
				c0.2,1.7,0.4,3.5-0.3,5.1c-0.4,0.8-1,1.5-1.8,1.9c-0.7,0.5-1.6,0.7-2.3,1.1c-1.6,0.6-3.2,1.3-4.8,1.7c-1.7,0.4-3.4,0.3-5.1,0.2
				c-3.4-0.1-6.9-0.4-10.1,0.6c-3.2,1-5.8,3.5-9.3,4.3c-0.8,0.2-1.7,0.2-2.6,0.1c-0.9-0.1-1.7-0.4-2.5-0.8c-1.6-0.7-3-1.6-4.6-2.3
				c-1.5-0.7-3.2-1.3-4.8-0.8c-0.8,0.2-1.4,0.8-1.9,1.4c-0.5,0.6-1,1.3-1.6,2c-0.5,0.6-1.1,1.4-2,1.7c-0.8,0.3-1.7,0.4-2.5,0.5
				c-1.7,0.1-3.4,0-5.1,0c-0.8,0-1.7,0-2.5,0c-0.8,0.1-1.7,0.2-2.6,0c-1.8-0.2-3.4-1.2-4.5-2.4c-0.6-0.6-1.1-1.3-1.7-2
				c-0.3-0.3-0.6-0.6-0.9-0.7c-0.1,0-0.4,0-0.6,0l-0.6,0c-1.7,0-3.4,0-5.1,0l-10.2-0.2c-1.7,0-3.4-0.1-5.1-0.1c-0.9,0-1.7,0-2.5,0.1
				c-0.8,0.1-1.7,0.1-2.4,0.4c-0.7,0.4-1.1,1.2-1.6,1.9c-0.5,0.7-1.1,1.4-1.9,1.8c-1.5,0.9-3.4,1.1-5.1,1.1
				c-1.7-0.1-3.4-0.2-5.1-0.7c-0.8-0.3-1.6-0.6-2.3-1.2c-0.7-0.6-1.2-1.4-1.5-2.2c-0.3-0.8-0.6-1.6-1-2.3c-0.4-0.7-1-1.2-1.8-1.4
				c-1.6-0.5-3.3-0.5-5-0.3c-0.8,0.1-1.7,0.3-2.5,0.4c-0.8,0.1-1.7,0.2-2.6,0.3c-1.7,0.1-3.5,0-5.1-0.4c-1.7-0.4-3.3-1.1-4.7-2.1
				c-0.7-0.5-1.4-1.1-1.9-1.8c-0.5-0.7-0.8-1.6-1-2.5c-0.2-1.8,0.3-3.5,0.9-5.1l1.6-4.8l3.3-9.7c2.1-6.5,4.2-13,6.2-19.5
				c2-6.5,3.8-13.1,5.3-19.8c0.8-3.3,1.4-6.7,2.5-9.9c0.5-1.6,1.2-3.2,2-4.7c0.9-1.5,2-2.8,3.4-3.8l0,0l0,0c14.9,1.4,30,1.9,45,1.4
				C290.5,319.8,305.4,318.4,320.3,316.4z M320.3,316.4c-14.9,2.1-29.8,3.5-44.8,3.9c-15,0.5-30,0-45-1.3l0.1,0
				c-2.8,2-4.3,5.3-5.3,8.5c-1,3.2-1.7,6.6-2.4,9.9c-1.5,6.7-3.3,13.2-5.3,19.8c-1.9,6.5-4,13-6.2,19.5l-3.2,9.7l-1.6,4.9
				c-0.6,1.6-1,3.3-0.8,4.9c0.1,0.8,0.4,1.6,0.9,2.3c0.5,0.7,1.1,1.2,1.8,1.7c1.4,0.9,2.9,1.7,4.6,2c1.6,0.4,3.3,0.5,5,0.4
				c0.8-0.1,1.7-0.1,2.5-0.3c0.8-0.1,1.7-0.3,2.5-0.4c1.7-0.2,3.5-0.2,5.2,0.3c0.9,0.2,1.7,0.9,2.1,1.6c0.5,0.8,0.7,1.6,1,2.4
				c0.3,0.8,0.7,1.5,1.3,2c0.6,0.5,1.4,0.9,2.2,1.1c1.6,0.5,3.3,0.6,5,0.7c1.7,0,3.4-0.1,4.8-1c0.7-0.4,1.3-1,1.8-1.7
				c0.5-0.6,0.9-1.5,1.7-2c0.9-0.4,1.7-0.4,2.6-0.4c0.9-0.1,1.7-0.1,2.6-0.1c1.7,0,3.4,0,5.1,0.1l10.2,0.3c1.7,0,3.4,0,5.1,0l0.6,0
				c0.2,0,0.4,0,0.7,0c0.5,0.2,0.8,0.5,1.1,0.8c0.6,0.7,1.1,1.3,1.7,1.9c1.1,1.2,2.6,2.1,4.3,2.3c0.8,0.1,1.6,0,2.5,0
				c0.9-0.1,1.7-0.1,2.6,0c1.7,0,3.4,0.2,5.1,0c0.8-0.1,1.7-0.2,2.5-0.5c0.8-0.2,1.3-0.9,1.9-1.6c0.5-0.7,1-1.3,1.6-2
				c0.5-0.6,1.2-1.3,2.1-1.5c1.7-0.5,3.5,0.1,5,0.9c1.5,0.8,3,1.7,4.5,2.4c0.8,0.3,1.6,0.6,2.4,0.7c0.8,0.1,1.7,0.1,2.5-0.1
				c3.3-0.7,5.9-3.2,9.2-4.3c3.3-1,6.8-0.7,10.2-0.6c1.7,0,3.4,0.2,5.1-0.2c1.7-0.4,3.2-1,4.8-1.7c0.8-0.3,1.6-0.6,2.3-1.1
				c0.7-0.4,1.3-1.1,1.7-1.8c0.7-1.5,0.6-3.3,0.3-5c-2.3-13.5-6.7-26.4-10.7-39.5c-2.1-6.5-4.4-12.9-6.3-19.5c-1-3.3-1.8-6.6-2.4-10
				c-0.3-1.7-0.7-3.3-1.3-5c-0.3-0.8-0.6-1.6-1.1-2.3c-0.2-0.4-0.5-0.7-0.8-1c-0.3-0.3-0.7-0.5-1.1-0.5l0,0
				C323.3,316.2,321.8,316.1,320.3,316.4z"/>
		</g>
		<g>
			<path class="st16" d="M322.5,308.4c1.3,0.7,2,2.2,2.3,3.6c0.3,1.4,0.1,2.9,0,4.4c-30.7,5.8-62.8,6.9-94.1,2.6
				c0-2,0.3-3.8,0.5-5.6c0.1-0.8,0.2-1.6,0.7-2.2c0.5-0.6,1.7-1.4,2.6-0.6C263.6,315.3,293.6,314.7,322.5,308.4z"/>
			<path class="st17" d="M322.5,308.4c1.3,0.7,2,2.2,2.3,3.6c0.3,1.4,0.1,2.9,0,4.4l0,0l0,0c-7.7,1.5-15.5,2.7-23.4,3.6
				c-7.8,0.9-15.7,1.4-23.6,1.7c-15.8,0.5-31.6-0.3-47.2-2.4l-0.2,0l0-0.2c0-1.9,0.3-3.7,0.5-5.5c0.1-0.9,0.3-1.9,1-2.7
				c0.4-0.3,0.8-0.6,1.3-0.8c0.5-0.2,1.1,0,1.5,0.3l-0.1-0.1c14.5,2.5,29.3,3.6,44,3.2C293.4,313.1,308.1,311.4,322.5,308.4z
				 M322.5,308.4c-14.4,3.2-29.1,5.1-43.9,5.4c-14.8,0.4-29.6-0.7-44.1-3.1l-0.1,0l0,0c-0.6-0.6-1.6-0.2-2.1,0.4
				c-0.6,0.6-0.7,1.5-0.9,2.4c-0.3,1.8-0.5,3.6-0.5,5.4l-0.2-0.2c15.6,2.1,31.4,3,47.1,2.6c7.9-0.2,15.7-0.7,23.6-1.6
				c7.8-0.8,15.6-1.9,23.4-3.4l0,0c0.1-1.4,0.3-2.9,0-4.4C324.5,310.5,323.8,309.1,322.5,308.4z"/>
		</g>
		<path class="st18" d="M249.1,405c2.5-19.7,4.1-39.6,6.2-59.3c0.3-2.7,0.6-5.4,0.9-8.2c0.4-3,0.6-6.1,2-8.8
			c0.1-0.1-0.1-0.3-0.2-0.1c-1.2,2.3-1.5,4.7-1.8,7.2c-0.3,2.1-0.5,4.3-0.8,6.4c-0.6,5-1.1,9.9-1.6,14.9c-1.1,10.4-2,20.8-3.1,31.3
			c-0.6,5.5-1.2,11-1.9,16.5C248.8,405.1,249.1,405.2,249.1,405"/>
		<path class="st18" d="M230.9,402.6c1.3-7.7,3.2-15.2,4.7-22.9c1-5.3,1.7-10.6,2.9-15.8c1.3-5.8,3.2-11.4,5.2-17.1
			c2.1-5.9,4-12,3.7-18.3c0-0.1-0.2-0.2-0.2-0.1c-3.3,6.1-6,12.4-8.1,19c0,0.2,0.2,0.2,0.2,0.1c1.1-3.6,2.4-7.1,3.9-10.6
			c0.7-1.6,1.4-3.2,2.2-4.7c0.4-0.8,0.8-1.6,1.2-2.3c0,0,0.5-0.9,0.5-0.9c0.1,0,0,1.3,0,1.5c-0.1,7-2.7,13.6-5.1,20.1
			c-2.5,7-4.2,14.1-5.4,21.4c-0.9,5-1.7,10-2.8,15c-1.1,5.2-2.3,10.4-3.2,15.6C230.7,402.7,230.9,402.8,230.9,402.6"/>
		<path class="st18" d="M279.2,407.9c-1.6-20.9-1.3-41.9-0.6-62.8c0.2-5.4,0.4-10.8,0.7-16.2c0-0.1-0.2-0.2-0.2-0.1
			c-1.3,3.1-2,6.4-2.1,9.7c0,0.2,0.3,0.2,0.3,0c0-1.8,0.2-3.6,0.7-5.4c0.2-0.8,0.4-1.6,0.7-2.4c0.1-0.3,0.3-0.6,0.3-0.9
			c0.3-1.3,0.1-0.3,0.1,0.1c-0.1,2.5-0.2,5.1-0.4,7.6c-0.2,5.6-0.4,11.3-0.5,16.9c-0.3,11.9-0.3,23.9,0,35.8
			c0.2,5.9,0.4,11.8,0.9,17.7C278.9,408.1,279.2,408.1,279.2,407.9"/>
		<path class="st18" d="M300.8,404.6c-2.6-20.2-7.5-40-9.3-60.3c-0.3-3.6-0.5-7.3-0.5-10.9c0-0.8-0.2-2,0.1-2.7
			c0.2-0.4-0.3-0.8,0.4-0.3c0.3,0.2,0.5,0.7,0.6,1c0.9,1.6,1.3,3.4,1.2,5.3c0,0.2,0.2,0.2,0.3,0c0.1-2.7-0.8-5.1-2.5-7.2
			c-0.1-0.1-0.2,0-0.2,0.1c-0.8,10.7,0.8,21.6,2.5,32.1c1.5,9.4,3.2,18.7,4.8,28.1c0.8,4.9,1.7,9.9,2.3,14.8
			C300.5,404.7,300.8,404.7,300.8,404.6"/>
		<path class="st18" d="M311,397.4c-2.5-18.6-3.9-37.3-4-56c0-4.8,0.3-9.8-1.1-14.5c0-0.1-0.2-0.1-0.2,0c-0.6,0.9-1,1.7-1.1,2.8
			c0,0.2,0.2,0.2,0.2,0.1c0.1-0.6,0.2-1.1,0.5-1.6c0.2-0.5,0.3-0.9,0.7-0.4c0.6,0.8,0.6,2.8,0.7,3.7c0.2,2.2,0.2,4.4,0.2,6.6
			c0,4.8,0.1,9.5,0.2,14.3c0.3,9.6,0.9,19.2,1.9,28.8c0.5,5.4,1.2,10.8,1.9,16.2C310.7,397.6,311,397.6,311,397.4"/>
		<path class="st18" d="M321.9,394.8c-1.7-9.3-3.4-18.5-5.1-27.8c-0.4-2.2-0.8-4.5-1.2-6.7c-0.2-1.2-0.4-2.3-0.6-3.5
			c-0.1-0.4-0.1-1.3-0.4-1.3c0.1,0,0.5,1.4,0.6,1.5c1.6,4.4,3.2,8.8,4.9,13.3c0.1,0.2,0.3,0.1,0.2-0.1c-1.9-5.1-3.7-10.2-5.6-15.3
			c-0.1-0.2-0.3-0.1-0.2,0.1c2.5,13.3,4.9,26.6,7.4,39.9C321.7,395,321.9,395,321.9,394.8"/>
	</g>
</g>
</svg>
