<?xml version="1.0" encoding="utf-8"?>
<!-- Generator: Adobe Illustrator 24.2.3, SVG Export Plug-In . SVG Version: 6.00 Build 0)  -->
<svg version="1.1" id="tenue_x5F_feminine_x5F_7" xmlns="http://www.w3.org/2000/svg" xmlns:xlink="http://www.w3.org/1999/xlink"
	 x="0px" y="0px" viewBox="0 0 553 574" style="enable-background:new 0 0 553 574;" xml:space="preserve">
<style type="text/css">
	.st0{fill:none;}
	.st1{fill:#006786;}
	.st2{fill:#10454F;}
	.st3{fill:#FFFFFF;}
	.st4{fill:#C6CACA;}
	.st5{fill:#DFAC47;}
	.st6{fill:none;stroke:#FFFFFF;stroke-width:0.5;stroke-linecap:round;stroke-linejoin:round;stroke-miterlimit:10;}
	.st7{fill:#AE863C;}
	.st8{fill:#D0A24F;}
</style>
<g id="cadre_8_">
	<rect x="0" class="st0" width="553" height="574"/>
</g>
<g>
	<g>
		<path class="st1" d="M320.9,311c3.6,18.8,4.5,41.2,4.6,61c-15.2,5.3-31.1,6.8-47.3,8.4c-0.2-8.7-1-8.4-2.1-17
			c-1.2,9.2-0.4,8.6-1.6,17.8c-15.1,1.5-31.8-1.2-45.6-7.6c-3.2-20.3-3.2-41.7,2.4-61.5c0,0,1.1,0.2,1.1,0.1
			C261.8,314.9,291.6,314.5,320.9,311z"/>
		<g>
			<path class="st2" d="M320.9,311c1.9,10,3,20.2,3.7,30.4c0.7,10.2,1,20.4,1,30.6c0,0.1,0,0.1-0.1,0.1c-7.6,2.6-15.5,4.4-23.4,5.6
				c-7.9,1.2-15.9,2-23.9,2.8c-0.1,0-0.2-0.1-0.2-0.2l0,0c-0.1-2.9-0.2-5.7-0.7-8.5l-0.8-4.2c-0.2-1.4-0.4-2.8-0.6-4.2l0.4,0
				c-0.4,3-0.7,5.9-0.8,8.9c-0.1,3-0.4,6-0.8,8.9c0,0.1-0.1,0.2-0.2,0.2c-7.8,0.8-15.7,0.5-23.4-0.8c-7.7-1.3-15.3-3.5-22.4-6.8
				c-0.1,0-0.1-0.1-0.1-0.2c-1.6-10.2-2.4-20.6-2.1-30.9c0.3-10.3,1.7-20.7,4.5-30.6l0,0c0,0,0,0,0-0.1c0,0,0.1-0.1,0.1-0.1l0,0l0,0
				l0.1,0l0.1,0l0.3,0.1l0.3,0l0.1,0l0.1,0c0,0,0-0.1-0.1,0.1l0.2-0.1c14.7,1.3,29.5,1.9,44.3,1.7
				C291.4,313.6,306.2,312.7,320.9,311z M320.9,311c-14.7,1.8-29.5,2.8-44.3,3.1c-14.8,0.2-29.6-0.3-44.3-1.6l0.2-0.1
				c-0.2,0.2-0.2,0.1-0.2,0.1l-0.1,0l-0.2,0l-0.3,0l-0.3-0.1l-0.1,0l-0.1,0l0,0l0,0c0,0,0.1,0,0.1,0l0-0.1
				c-2.8,9.9-4.2,20.2-4.5,30.6c-0.3,10.3,0.5,20.7,2.2,30.8l-0.1-0.2c7.1,3.3,14.6,5.5,22.3,6.7c7.7,1.3,15.5,1.6,23.2,0.8
				l-0.2,0.2c0.4-3,0.7-5.9,0.8-8.9c0.1-3,0.4-6,0.8-8.9c0-0.1,0.1-0.2,0.2-0.2c0.1,0,0.2,0.1,0.2,0.2c0.2,1.4,0.4,2.8,0.6,4.2
				l0.8,4.2c0.5,2.8,0.7,5.7,0.7,8.6l-0.2-0.2c8-0.8,16-1.5,23.9-2.8c7.9-1.2,15.8-2.9,23.4-5.6l-0.1,0.1
				c-0.1-10.2-0.3-20.4-0.9-30.6C323.8,331.2,322.8,321,320.9,311z"/>
		</g>
	</g>
	<g>
		<path class="st1" d="M298.7,205.6c4-0.5,10.7-0.8,14.7-0.5c4.1,0.3,8.1,1.4,11.4,3.9c3.2,2.5,5.3,6.1,7.1,9.7
			c4,8.1,7.1,16.7,9.2,25.6c-5.9,7.8-15.5,15.7-24.5,19.6c-3.4-5.3-4.1-12.9-6-18.8c2.3,10.1,4.6,20.3,6.9,30.4
			c2.9,13,5.9,26,9.1,39.8c-31.9,9.8-66.6,10.1-98.7,0.5c6.1-22.7,10-46,11.6-69.5c-1.4,5.4-1.2,13-2.9,18.5
			c-6.7-1.9-14.6-7.3-20.1-11.6c-1.9-1.5-3.8-3.2-4.4-5.5c-0.5-2-0.1-4.1,0.4-6.1c1.9-7.8,4.5-15.5,7.5-23c1.2-3,2.6-6.1,5-8.4
			c3.7-3.5,9.1-4.5,14.2-4.5c5.1,0,10.2,0.8,15.1,0.3c7.9,6.9,15.9,13.9,24,20.9C285.8,219.7,290.7,212.3,298.7,205.6z"/>
		<path class="st2" d="M298.7,205.6c2.7-0.3,5.5-0.5,8.3-0.6c2.8-0.1,5.5-0.1,8.3,0.2c2.7,0.4,5.4,1.2,7.8,2.6
			c2.4,1.4,4.4,3.5,5.9,5.7c1.6,2.3,2.8,4.8,4,7.3c1.2,2.5,2.3,5,3.3,7.6c2,5.2,3.6,10.5,4.9,15.8c0,0,0,0,0,0
			c-3.2,4.2-7,7.9-11.1,11.3c-4.1,3.3-8.6,6.2-13.4,8.4c0,0-0.1,0-0.1,0c-1.8-2.8-2.8-6-3.6-9.2c-0.8-3.2-1.4-6.5-2.5-9.6l0.2-0.1
			l8,35.1l8.1,35.1c0,0.1,0,0.2-0.1,0.2c-16,4.9-32.7,7.5-49.4,7.6c-16.7,0.1-33.4-2.2-49.4-7c-0.1,0-0.2-0.2-0.2-0.3
			c6.1-22.7,10-46,11.7-69.5l0.3,0.1c-0.7,3-1,6.2-1.3,9.3c-0.3,3.1-0.7,6.3-1.6,9.3c0,0.1-0.1,0.1-0.2,0.1
			c-4.1-1.2-7.8-3.2-11.4-5.5c-3.6-2.3-7-4.7-10.2-7.4c-1.6-1.4-2.9-3.2-3.2-5.4c-0.2-2.2,0.4-4.2,0.9-6.3c1.1-4.1,2.3-8.1,3.6-12.1
			c1.4-4,2.8-7.9,4.5-11.8c0.9-1.9,1.9-3.8,3.3-5.4c1.4-1.6,3.2-2.8,5.1-3.6c3.9-1.6,8.3-1.8,12.5-1.7c4.2,0.2,8.4,0.6,12.6,0.2
			c0,0,0,0,0,0l23.9,20.9l0,0c3.6-3.4,6.8-7.1,10.1-10.8C291.6,212.4,294.9,208.7,298.7,205.6z M298.7,205.6
			c-3.8,3.2-7.1,6.8-10.4,10.5c-3.2,3.7-6.5,7.5-10,10.9c0,0,0,0,0,0l-24-20.8l0,0c-4.2,0.4-8.4-0.1-12.6-0.2
			c-4.2-0.2-8.5,0-12.4,1.7c-1.9,0.8-3.7,2-5.1,3.6c-1.4,1.6-2.4,3.5-3.2,5.4c-1.7,3.9-3.1,7.8-4.5,11.8c-1.3,4-2.5,8-3.6,12.1
			c-0.5,2-1.1,4.1-0.9,6.2c0.2,2.1,1.5,3.9,3.1,5.2c3.2,2.7,6.7,5.1,10.2,7.4c3.6,2.2,7.3,4.2,11.3,5.4l-0.2,0.1
			c0.9-3,1.2-6.1,1.6-9.2c0.3-3.1,0.6-6.2,1.3-9.3c0-0.1,0.1-0.1,0.2-0.1c0.1,0,0.1,0.1,0.1,0.2c-1.6,23.5-5.5,46.8-11.6,69.6
			l-0.2-0.3c16,4.8,32.6,7.1,49.3,7.1c16.7-0.1,33.3-2.6,49.3-7.5l-0.1,0.2l-8-35.1l-7.9-35.2c0-0.1,0-0.1,0.1-0.1
			c0.1,0,0.1,0,0.1,0.1c1,3.2,1.6,6.4,2.4,9.6c0.8,3.2,1.8,6.4,3.6,9.2l-0.1,0c4.8-2.1,9.3-5.1,13.4-8.4c4.1-3.3,7.9-7,11.1-11.2
			l0,0c-1.3-5.4-2.9-10.7-4.9-15.8c-1-2.6-2.1-5.1-3.3-7.6c-1.2-2.5-2.4-5-3.9-7.3c-1.5-2.3-3.5-4.4-5.9-5.7
			c-2.4-1.4-5.1-2.2-7.8-2.6c-2.7-0.4-5.5-0.3-8.3-0.3C304.2,205.1,301.5,205.2,298.7,205.6z"/>
	</g>
	<g>
		<path class="st3" d="M290.9,202c3,0.4,6.4,1.1,7.8,3.5c0.5,3.9-1.4,7.8-4,10.7s-6,5.1-9,7.5s-6,5.4-7.6,9.3
			c-5.5-6.8-11.7-13.1-18.5-18.6c-1.5-1.3-3.1-2.5-4.2-4.2c-1-1.7-1.3-4-0.2-5.6c1.3-2,4.8-1.8,7.1-2c-1.9,0.8-3.2,2.8-2.5,4.7
			c0.7,1.9,2.3,3.3,3.9,4.5c4.5,3.7,9.3,7.1,13.5,10.4c2.1-2.3,4.9-3.8,7.6-5.5c2.7-1.7,5.3-3.6,6.9-6.3
			C293.2,207.7,292.7,205,290.9,202z"/>
		<path class="st4" d="M290.9,202c1.5,0.2,2.9,0.4,4.3,0.9c1.4,0.5,2.8,1.3,3.5,2.6l0,0c0.4,3-0.6,6-2.2,8.5
			c-1.6,2.5-3.9,4.5-6.3,6.4c-2.3,1.8-4.8,3.6-6.9,5.6c-2.1,2-4,4.4-5.1,7.1c0,0.1-0.1,0.1-0.2,0.1c0,0-0.1,0-0.1-0.1
			c-4.8-5.9-10.1-11.4-15.9-16.4c-1.4-1.3-2.9-2.4-4.4-3.7c-1.4-1.3-2.8-2.8-3.2-4.8c-0.2-1-0.2-2,0.1-3c0.2-0.5,0.4-0.9,0.8-1.3
			c0.4-0.4,0.8-0.6,1.2-0.9c1.9-0.8,3.8-0.7,5.7-0.8c0.1,0,0.2,0.1,0.2,0.2c0,0.1-0.1,0.2-0.1,0.2c-1.1,0.4-2,1.3-2.3,2.4
			c-0.2,0.5-0.2,1.1-0.1,1.7c0.1,0.5,0.4,1.1,0.7,1.6c1.3,2,3.4,3.3,5.2,4.9c3.8,3,7.7,5.9,11.5,8.8l-0.2,0c1.6-1.7,3.6-3,5.5-4.2
			c2-1.2,4-2.4,5.8-3.8c1.7-1.5,3.4-3.3,3.9-5.5C293,206.3,292.1,204,290.9,202z M290.9,202c0.6,1,1.1,2,1.4,3.1
			c0.3,1.1,0.4,2.3,0.1,3.4c-0.6,2.3-2.2,4.1-3.9,5.6c-1.8,1.5-3.8,2.7-5.8,3.9c-2,1.2-3.9,2.5-5.5,4.2c-0.1,0.1-0.1,0.1-0.2,0
			c-3.8-2.9-7.7-5.8-11.5-8.8c-0.9-0.7-1.9-1.5-2.8-2.3c-0.9-0.8-1.8-1.6-2.5-2.7c-0.3-0.5-0.6-1.1-0.8-1.7
			c-0.1-0.6-0.1-1.3,0.1-1.9c0.4-1.2,1.4-2.2,2.6-2.6l0.1,0.4c-1.9,0.1-3.9,0-5.6,0.8c-0.8,0.4-1.5,1-1.8,1.9
			c-0.3,0.8-0.3,1.8-0.1,2.7c0.4,1.8,1.7,3.3,3.1,4.5c1.4,1.2,2.9,2.4,4.4,3.7c5.8,5,11.1,10.5,15.9,16.5l-0.3,0
			c1.2-2.8,3.1-5.2,5.2-7.2c2.2-2.1,4.6-3.8,7-5.6c2.3-1.8,4.6-3.8,6.2-6.3c1.6-2.4,2.7-5.4,2.3-8.3l0,0c-0.7-1.3-2.1-2.1-3.5-2.6
			C293.8,202.5,292.4,202.3,290.9,202z"/>
	</g>
	<path class="st5" d="M291.2,237.4c4-0.2,8-0.1,11.8,0.2c-2.3,5.3-3.3,11.2-3,17c-1.1,0-2.3-0.1-3.3-0.1c-0.1-2.5-0.2-5.1,0.1-7.5
		c0.4-2.5,1.2-5,2.8-6.9c-2.9,0-5.8,0-8.8-0.1C290.9,239.2,291,238.3,291.2,237.4z"/>
	<g>
		<path class="st3" d="M246.6,239.2c5.2,0.2,10.4,0.4,15.5,0.6c0.5,3.3,0,6.7-1.5,9.6c-1.5,2.9-4,5.4-6.9,7
			c-2.9-1.6-5.3-4.2-6.5-7.3S245.8,242.5,246.6,239.2z"/>
		<path class="st4" d="M246.6,239.2c5.1,0.1,10.3,0.2,15.5,0.4c0.1,0,0.2,0.1,0.2,0.2c0.6,3.3,0,6.8-1.5,9.8c-1.5,3-4.1,5.4-7,7.1
			c-0.1,0-0.2,0-0.2,0c-3-1.6-5.4-4.3-6.6-7.5C245.8,246,245.7,242.4,246.6,239.2z M246.6,239.2c-0.8,3.3-0.6,6.7,0.7,9.8
			c1.3,3.1,3.6,5.6,6.5,7.2l-0.2,0c2.8-1.6,5.3-4,6.8-6.9c1.5-2.9,2.1-6.3,1.5-9.5l0.2,0.2L246.6,239.2z"/>
	</g>
	<g>
		<path class="st3" d="M235.1,318.1c-1.8,18.5-1.3,37.4,0.9,55.9c0,0-0.1,0.1-0.1,0.1l-2.4-0.8c-0.1,0-2.8-1.1-2.9-1.1l-0.3-0.2
			c-3.1-23.1-1.6-30.9-1-38.7c0.1-1.8,0.4-3.6,0.7-5.3c0.6-3.7,1.9-10.7,2.3-10.6C232.7,317.6,235.1,318.1,235.1,318.1z"/>
		<path class="st5" d="M235.1,318.1c-0.5,5.2-0.7,10.3-0.9,15.5c-0.1,5.2-0.1,10.4,0.1,15.5c0.2,5.2,0.5,10.4,1,15.5
			c0.2,2.6,0.5,5.2,0.8,7.7l0.1,1l0.1,0.5l0,0.1l0,0c0,0,0,0.1,0,0.1c0,0.1-0.1,0.1-0.1,0.1c0,0-0.1,0.1-0.2,0.1c0,0-0.1,0-0.2,0
			l0,0l-0.1,0l-1.8-0.6c-1.2-0.5-2.5-0.9-3.6-1.4l-0.1-0.1l0-0.1c-1.2-9.6-2.2-19.3-1.7-29c0.1-2.4,0.3-4.8,0.6-7.2
			c0.2-2.4,0.5-4.8,0.8-7.2c0.4-2.4,0.9-4.8,1.3-7.1c0.3-1.2,0.5-2.4,0.8-3.5c0-0.1,0.1-0.3,0.2-0.4c0-0.1,0-0.2,0.2-0.2l0.2,0.1
			l0.9,0.2L235.1,318.1z M235.1,318.1l-1.8-0.4l-0.9-0.2l-0.2-0.1c0,0-0.1,0.1-0.1,0.2c-0.1,0.1-0.1,0.3-0.1,0.4
			c-0.3,1.2-0.5,2.4-0.8,3.5c-0.4,2.4-0.9,4.8-1.2,7.1c-0.3,2.4-0.6,4.8-0.8,7.2c-0.2,2.4-0.4,4.8-0.5,7.2
			c-0.4,9.7,0.6,19.3,1.8,28.9l-0.1-0.2c1.2,0.5,2.4,1,3.6,1.4l1.8,0.7l0.1,0l0,0c0,0-0.1,0-0.1,0c0,0-0.1,0-0.1,0c0,0,0,0,0,0.1
			c0,0,0,0.1,0,0.1l0,0l0-0.1l-0.1-0.5l-0.1-1c-0.3-2.6-0.5-5.2-0.8-7.7c-0.4-5.2-0.7-10.4-0.9-15.5c-0.1-5.2-0.1-10.4,0-15.6
			C234.2,328.5,234.6,323.3,235.1,318.1z"/>
	</g>
	<g>
		<path class="st3" d="M316.1,318.5c1.8,18.2,1,36.6-1.2,54.8c0,0,0.1,0.1,0.1,0.1l2.4-0.7c0.1,0,3-0.9,3.1-1l0.3-0.2
			c1.2-24.9,1-29.3,0.4-37c-0.1-1.8-0.3-6-0.6-7.7c-0.6-3.7-1.4-9.1-1.7-9C318.5,318,316.1,318.5,316.1,318.5z"/>
		<g>
			<path class="st5" d="M316.1,318.5c0.5,5.1,0.9,10.2,1.1,15.3c0.1,5.1,0.1,10.2-0.1,15.3c-0.2,5.1-0.5,10.2-1,15.3
				c-0.2,2.5-0.5,5.1-0.8,7.6l-0.1,1l0,0.2l0,0.1c0-0.1,0-0.1-0.1-0.1c0,0-0.1,0-0.1,0l0.1,0l0.1,0l0.2-0.1l1.8-0.6
				c1.2-0.4,2.4-0.7,3.6-1.2l-0.1,0.2c0.2-4.7,0.5-9.5,0.7-14.2c0.2-4.7,0.3-9.5,0.3-14.2c-0.1-4.7-0.5-9.5-0.8-14.2
				c-0.1-1.2-0.3-2.3-0.5-3.5l-0.5-3.5c-0.2-1.2-0.4-2.3-0.6-3.5c0-0.1-0.1-0.3-0.1-0.4c0-0.2-0.2,0-0.4,0l-0.9,0.2L316.1,318.5z
				 M316.1,318.5l1.7-0.4l0.9-0.2l0.2-0.1c0,0,0.1,0,0.1,0c0,0,0,0.1,0.1,0.1c0.1,0.1,0.1,0.3,0.1,0.4c0.3,1.2,0.5,2.3,0.7,3.5
				l0.6,3.5c0.2,1.2,0.4,2.3,0.5,3.5c0.3,4.7,0.8,9.5,0.9,14.2c0.1,4.8-0.1,9.5-0.2,14.2c-0.2,4.7-0.4,9.5-0.6,14.2l0,0.2l-0.1,0.1
				c-1.2,0.5-2.5,0.8-3.7,1.2l-1.8,0.6l-0.2,0.1l-0.1,0l-0.1,0c-0.1,0-0.2,0-0.2,0c-0.1-0.1-0.2-0.1-0.2-0.3l0-0.1l0-0.2l0.1-0.9
				c0.3-2.5,0.6-5.1,0.8-7.6c0.5-5.1,0.9-10.2,1.1-15.3c0.2-5.1,0.3-10.2,0.2-15.3C316.9,328.7,316.6,323.6,316.1,318.5z"/>
		</g>
	</g>
	<g>
		<path class="st2" d="M281.3,360.9c-1.4,1.1-3.1,1.9-4.9,2.2c-1.8,0.3-3.7,0.1-5.3-0.7c0.9,0.2,1.7,0.3,2.6,0.4
			c0.9,0,1.7,0,2.6-0.2C278.1,362.4,279.7,361.7,281.3,360.9z"/>
	</g>
	<path class="st6" d="M278.7,325.2c1.2,5.6,2.2,11.3,3,17"/>
	<path class="st6" d="M273.7,326.2c-1.7,5.8-2.2,11.9-1.5,18"/>
	<g>
		<path class="st3" d="M273.3,339.8c-0.5,0.1-1.1,0.1-1.6,0c-0.5-0.1-1-0.2-1.5-0.5c0.5-0.1,1.1-0.1,1.6,0
			C272.3,339.5,272.8,339.6,273.3,339.8z"/>
	</g>
	<g>
		<path class="st3" d="M282.7,338c-0.5,0.3-1.1,0.4-1.7,0.5c-0.6,0.1-1.2,0.1-1.8,0c0.5-0.3,1.1-0.4,1.7-0.5
			C281.6,337.9,282.1,337.9,282.7,338z"/>
	</g>
	<g>
		<path class="st5" d="M265.4,523.6c-3.6-23.9,6.4-48.1,6.2-72.3c-3.4,3.3-7.7,5.3-12.6,5c-4.9-0.3-9.6-2.5-12.6-6.1
			c-1.6,9.3-2.5,20.8-1,30.1c2.1,13.5,6.4,25.7,7,39.3c0.2,5.5,1.1,10.4-2.8,14.3c-1.1,1.1-2.5,2.2-2.6,3.7c-0.2,2,1.8,3.5,3.8,4
			c4.4,1,9.2-1.4,11.8-5.1C265.2,532.8,266,528,265.4,523.6z"/>
		<path class="st7" d="M265.4,523.6c-0.9-6-1-12.1-0.5-18.2c0.4-6.1,1.3-12.1,2.3-18c1-6,2.1-12,2.9-18c0.8-6,1.4-12.1,1.3-18.1
			l0.3,0.1c-1.7,1.6-3.7,3-5.9,3.9c-2.2,0.9-4.6,1.3-7,1.1c-4.8-0.3-9.4-2.5-12.5-6.2l0.4-0.1c-0.9,5-1.4,10.1-1.7,15.2
			c-0.2,5.1-0.1,10.2,0.7,15.3c1.5,10.1,4.5,20,6,30.2c0.4,2.5,0.7,5.1,0.8,7.7c0.1,2.6,0.4,5.1,0.3,7.7c-0.1,1.3-0.2,2.6-0.7,3.8
			c-0.4,1.2-1.1,2.4-1.9,3.3c-0.8,1-1.9,1.7-2.6,2.8c-0.3,0.5-0.5,1.2-0.5,1.8c0,0.6,0.3,1.2,0.7,1.7c0.8,1,2,1.6,3.2,1.8
			c1.2,0.3,2.5,0.3,3.8,0c2.5-0.5,4.8-1.8,6.6-3.7c1.8-1.9,2.9-4.2,3.6-6.7C265.6,528.7,265.7,526.1,265.4,523.6z M265.4,523.6
			c0.4,2.5,0.3,5.1-0.4,7.6c-0.6,2.5-1.8,4.9-3.6,6.7c-1.8,1.9-4.1,3.2-6.6,3.7c-1.3,0.2-2.6,0.3-3.8,0c-1.3-0.2-2.5-0.9-3.3-1.9
			c-0.4-0.5-0.7-1.1-0.8-1.8c-0.1-0.7,0.2-1.3,0.5-1.9c0.7-1.1,1.8-1.9,2.6-2.8c1.7-1.9,2.5-4.5,2.5-7c0.1-2.6-0.2-5.1-0.3-7.7
			c-0.1-2.6-0.4-5.1-0.8-7.6c-1.5-10.1-4.6-20-6.2-30.1c-0.8-5.1-1-10.2-0.8-15.4c0.2-5.1,0.8-10.2,1.7-15.3l0.1-0.5l0.3,0.4
			c3,3.6,7.6,5.7,12.2,6.1c2.3,0.2,4.7-0.2,6.9-1.1c2.2-0.9,4.1-2.2,5.8-3.8l0.3-0.3l0,0.4c0,6.1-0.6,12.1-1.4,18.1
			c-0.9,6-2,12-3,18c-1,6-1.9,12-2.4,18C264.5,511.5,264.5,517.6,265.4,523.6z"/>
	</g>
	<g>
		<path class="st5" d="M270.7,465c-8.3,4.1-17.8,2.9-25.4-2.2"/>
		<path class="st7" d="M270.7,465c-2,1.1-4.1,1.8-6.3,2.3c-2.2,0.4-4.5,0.5-6.7,0.3c-2.2-0.2-4.5-0.8-6.5-1.6
			c-2.1-0.8-4.1-1.9-5.9-3.2c1.9,1.2,3.9,2.1,6,2.9c2.1,0.7,4.3,1.2,6.5,1.4c2.2,0.2,4.4,0.2,6.6-0.2
			C266.5,466.5,268.7,465.9,270.7,465z"/>
	</g>
	<g>
		<path class="st5" d="M280.6,452.4c-0.5,19.1,5.9,46.3,6.7,70.9c0.1,3.1,1.2,8.6,2.4,11.5c0.8,1.9,2.2,3.5,3.5,5.1
			c1.6,1.9,3.3,3.9,5.6,4.9c2.3,1,5.4,0.5,6.6-1.7c0.8-1.5,0.5-3.5-0.3-5.1c-0.8-1.6-2-2.9-2.9-4.4c-3.7-5.8-3.2-13.3-2.1-20.1
			c1.7-10.8,4.5-21.5,6.5-32.3c2-10.8,1.6-22.1-0.2-32.9c-0.2,2-0.1,3.8-1.7,4.9c-1.6,1.1-3.6,1.6-5.5,2c-3.9,0.9-7.9,1.4-11.9,1.5
			c-1.7,0.1-3.4,0-4.9-0.6C280.9,455.6,281,454.2,280.6,452.4z"/>
		<path class="st7" d="M280.6,452.4c-0.1,8.4,0.8,16.8,1.9,25.1c1.1,8.3,2.3,16.6,3.3,25c0.5,4.2,0.9,8.3,1.2,12.5
			c0.2,2.1,0.3,4.2,0.4,6.3c0.1,1,0.1,2.1,0.2,3.1c0.1,1,0.2,2.1,0.4,3.1c0.4,2.1,0.8,4.1,1.5,6.1c0.7,2,1.9,3.7,3.2,5.3
			c1.3,1.6,2.6,3.3,4.3,4.6c0.8,0.6,1.7,1.1,2.7,1.4c1,0.2,2,0.3,3,0c1-0.2,1.9-0.8,2.4-1.6c0.6-0.8,0.7-1.9,0.6-2.9
			c-0.2-2-1.6-3.7-2.8-5.4c-1.3-1.7-2.2-3.7-2.8-5.7c-0.6-2-0.8-4.2-0.9-6.3c-0.1-4.2,0.5-8.4,1.3-12.5c0.7-4.1,1.6-8.2,2.5-12.3
			c0.9-4.1,1.8-8.2,2.7-12.3c0.8-4.1,1.6-8.2,1.9-12.4c0.7-8.3,0.2-16.8-1.2-25l0.3,0c-0.1,1.3-0.1,2.8-0.8,4c-0.4,0.6-1,1-1.6,1.4
			c-0.6,0.3-1.2,0.6-1.9,0.8c-1.3,0.5-2.6,0.8-4,1c-1.3,0.3-2.7,0.5-4,0.7c-2.7,0.4-5.4,0.6-8.1,0.6c-1.4,0-2.7-0.2-4-0.7
			c-0.6-0.3-1-1-1.1-1.6C280.9,453.7,280.8,453.1,280.6,452.4z M280.6,452.4c0.2,0.7,0.2,1.3,0.4,2c0.1,0.7,0.5,1.3,1.1,1.6
			c1.2,0.6,2.6,0.7,4,0.7c2.7,0,5.4-0.3,8.1-0.7c1.3-0.2,2.7-0.4,4-0.7c1.3-0.3,2.7-0.6,3.9-1.1c0.6-0.2,1.3-0.5,1.8-0.8
			c0.6-0.3,1.1-0.7,1.5-1.3c0.7-1.1,0.6-2.6,0.8-3.9l0.1-1l0.2,1c1.4,8.3,1.9,16.7,1.2,25.1c-0.3,4.2-1.1,8.3-1.9,12.5
			c-0.8,4.1-1.7,8.2-2.6,12.3c-0.9,4.1-1.7,8.2-2.5,12.3c-0.7,4.1-1.3,8.3-1.2,12.5c0.1,2.1,0.3,4.2,0.9,6.1c0.6,2,1.5,3.9,2.7,5.6
			c1.2,1.7,2.6,3.5,2.8,5.7c0.1,1.1,0,2.2-0.6,3.2c-0.6,0.9-1.6,1.6-2.7,1.8c-1.1,0.3-2.2,0.3-3.2,0c-1.1-0.3-2-0.8-2.9-1.5
			c-1.7-1.3-3-3-4.3-4.6c-1.3-1.6-2.6-3.4-3.2-5.4c-0.7-2-1.1-4.1-1.5-6.1c-0.2-1-0.3-2.1-0.4-3.1c-0.1-1.1-0.1-2.1-0.2-3.2
			c-0.1-2.1-0.2-4.2-0.4-6.3c-0.3-4.2-0.7-8.4-1.2-12.5c-0.9-8.3-2.2-16.6-3.2-25C281.3,469.2,280.4,460.8,280.6,452.4z"/>
	</g>
	<g>
		<path class="st5" d="M308.2,461.9c-8.4,3.4-17.6,4.8-26.6,4"/>
		<path class="st7" d="M308.2,461.9c-2.1,0.9-4.2,1.7-6.4,2.3c-2.2,0.6-4.4,1.1-6.6,1.5c-2.2,0.3-4.5,0.5-6.8,0.6
			c-2.3,0-4.5-0.1-6.8-0.4c2.3,0.1,4.5,0.1,6.8,0c2.3-0.1,4.5-0.3,6.7-0.7c2.2-0.3,4.4-0.8,6.6-1.3
			C303.9,463.3,306.1,462.6,308.2,461.9z"/>
	</g>
	<g>
		<path class="st1" d="M250.6,524.5c0.1-1.2,0.3-3.1,0-4.2s-0.2-2.6,0.8-3.3c0.7-0.6,1.8-0.7,2.7-0.6c1.4,0,2.7,0.2,4,0.6
			c0.6,0.2,1.3,0.4,1.7,0.9c0.7,0.7,0.7,1.8,0.5,2.7c-0.1,0.9-0.4,1.9-0.1,2.9c2.1-0.5,2.4-1.8,4.4-3.2c0.9,1.9,2.9,4.2,3.2,6.3
			c0.4,2.4,0.8,4.9-0.1,7.1c-1.2,3.1-4.3,5-6.5,7.5c-1.8,2.1-3.1,4.8-5.5,6.3c-1.8,1.1-4,1.4-6.1,1.2s-4.1-0.9-6.1-1.5
			c-1.3-0.4-2.7-0.9-3.6-1.9c-1.1-1.2-1.3-3-0.9-4.5c0.6-2.3,2.3-4.2,4.2-5.8s3.1-3,4.7-4.8C249.7,528.3,250.5,526.7,250.6,524.5z"
			/>
		<path class="st2" d="M250.6,524.5c0-0.9,0.1-1.9,0.1-2.8c0.1-0.9-0.3-1.8-0.3-2.8c0-0.9,0.5-1.9,1.4-2.3c0.9-0.4,1.9-0.4,2.8-0.3
			c0.9,0.1,1.9,0.2,2.8,0.4c0.9,0.2,1.9,0.4,2.5,1.2c0.6,0.8,0.6,1.9,0.4,2.8c-0.1,0.9-0.3,1.9-0.1,2.8l-0.1-0.1
			c0.9-0.2,1.7-0.7,2.3-1.4c0.6-0.6,1.3-1.3,2-1.9c0.1,0,0.1,0,0.2,0l0,0c0.7,1.4,1.6,2.6,2.4,4c0.4,0.7,0.7,1.4,0.9,2.2
			c0.1,0.8,0.3,1.5,0.3,2.3c0.2,1.5,0.2,3.2-0.3,4.7c-0.5,1.5-1.5,2.8-2.6,3.9c-1.1,1.1-2.3,2.1-3.3,3.2c-1.1,1.1-1.9,2.4-2.9,3.6
			c-0.9,1.3-1.9,2.5-3.3,3.4c-1.4,0.9-3,1.2-4.5,1.3c-3.2,0.1-6.2-1-9.1-2c-0.7-0.3-1.5-0.6-2.1-1.1c-0.6-0.5-1.1-1.2-1.3-2
			c-0.4-1.5-0.1-3.2,0.6-4.6c0.7-1.4,1.8-2.6,2.9-3.6c1.2-1,2.4-2,3.4-3.1c1.1-1.1,2.1-2.2,3.1-3.5C250,527.5,250.5,526,250.6,524.5
			z M250.6,524.5c0,1.6-0.6,3.1-1.5,4.4c-0.9,1.3-2,2.4-3,3.5c-1.1,1.1-2.2,2.2-3.4,3.2c-1.1,1-2.2,2.2-2.9,3.6
			c-0.7,1.4-1,3-0.6,4.4c0.2,0.7,0.6,1.4,1.2,1.9c0.6,0.5,1.3,0.8,2,1.1c2.9,1,5.9,2,9,1.9c1.5-0.1,3-0.4,4.3-1.3
			c1.3-0.8,2.3-2,3.2-3.3c0.9-1.3,1.8-2.6,2.9-3.7c1.1-1.1,2.3-2.1,3.4-3.2c1.1-1.1,2-2.3,2.5-3.8c0.5-1.4,0.5-3,0.3-4.5
			c-0.1-0.8-0.2-1.5-0.3-2.3c-0.1-0.7-0.5-1.4-0.8-2.1c-0.7-1.4-1.6-2.6-2.3-4l0.2,0c-0.7,0.5-1.4,1.2-2,1.8
			c-0.3,0.3-0.7,0.6-1.1,0.9c-0.4,0.2-0.9,0.4-1.3,0.5c-0.1,0-0.1,0-0.1-0.1c-0.3-1-0.1-1.9,0.1-2.8c0.1-0.9,0.2-1.9-0.4-2.7
			c-0.6-0.7-1.6-0.9-2.4-1.2c-0.9-0.2-1.8-0.4-2.8-0.4c-0.9-0.1-1.9-0.1-2.8,0.3c-0.9,0.4-1.4,1.3-1.4,2.2c-0.1,0.9,0.3,1.8,0.2,2.8
			C250.8,522.6,250.7,523.5,250.6,524.5z"/>
	</g>
	<g>
		<path class="st1" d="M259.2,527.9c-1.6,2.4-2,5.2-2.9,7.9c-0.9,2.7-2.4,5.4-5.2,6.5c-1.4,0.5-3,0.5-4.5,0.2c-2-0.4-4-1.5-4.7-3.3"
			/>
		<path class="st2" d="M259.2,527.9c-1.2,2-1.7,4.3-2.3,6.5c-0.6,2.2-1.4,4.5-3,6.3c-0.8,0.9-1.8,1.6-2.9,1.9
			c-1.1,0.4-2.3,0.4-3.5,0.3c-1.2-0.2-2.3-0.5-3.3-1.1c-1-0.6-1.9-1.5-2.3-2.6c0.5,1,1.4,1.8,2.4,2.3c1,0.5,2.1,0.8,3.2,1
			c1.1,0.1,2.3,0.1,3.3-0.3c1.1-0.4,2-1,2.7-1.9c1.5-1.7,2.3-3.8,3-6C257.2,532.1,257.9,529.8,259.2,527.9z"/>
	</g>
	<g>
		<path class="st3" d="M265.6,526.5c0.4,2.6-0.1,5.2-1.4,7.5c-1.3,2.2-3.5,4-5.9,5c2.9-3.3,4.9-7.3,5.7-11.6
			c0.1-0.4,0.2-0.9,0.5-1.2S265.5,526.1,265.6,526.5z"/>
		<path class="st8" d="M265.6,526.5c0.4,2.6-0.1,5.3-1.4,7.6c-1.3,2.3-3.4,4.1-5.9,5.1c-0.1,0.1-0.3,0-0.3-0.1c0-0.1,0-0.2,0-0.3
			c1.7-2,3.2-4.2,4.2-6.5c0.5-1.2,1-2.4,1.3-3.7c0.2-0.6,0.2-1.3,0.5-1.9c0.1-0.3,0.4-0.6,0.7-0.6
			C265.1,526,265.5,526.1,265.6,526.5z M265.6,526.5c-0.1-0.3-0.5-0.5-0.8-0.4c-0.3,0-0.6,0.3-0.7,0.6c-0.2,0.6-0.3,1.3-0.4,1.9
			c-0.3,1.3-0.7,2.6-1.2,3.8c-1,2.5-2.4,4.8-4.1,6.8l-0.3-0.4c2.4-0.9,4.5-2.6,5.9-4.8C265.4,531.8,266,529.1,265.6,526.5z"/>
	</g>
	<g>
		<path class="st3" d="M251.4,540.2c-1.2-0.4-2.5-0.8-3.7-1.2c-1.2-0.3-2.5-0.6-3.8-0.8l0,0l-0.2,0l0.2-0.1l0,0
			c1.3-0.1,2.6,0.1,3.9,0.4C249.1,538.9,250.3,539.4,251.4,540.2z"/>
	</g>
	<g>
		<path class="st3" d="M253.6,537c-1.1-0.6-2.2-0.7-3.4-0.8c-1.2-0.1-2.4-0.1-3.6-0.3c0.6-0.1,1.2-0.1,1.8-0.2c0.6,0,1.2-0.1,1.8,0
			c0.6,0,1.2,0.1,1.8,0.3C252.6,536.2,253.2,536.5,253.6,537z"/>
	</g>
	<g>
		<path class="st3" d="M255.1,533.5c-1.1-0.3-2.1-0.6-3.2-0.7c-1.1-0.2-2.2-0.2-3.3-0.2c1.1-0.4,2.2-0.5,3.4-0.3
			C253,532.5,254.1,532.9,255.1,533.5z"/>
	</g>
	<g>
		<path class="st3" d="M256.2,530.7c-1-0.5-2.1-0.8-3.2-0.9c-1.1-0.1-2.2,0-3.3,0.2c1-0.6,2.2-0.8,3.3-0.7
			C254.2,529.4,255.4,529.9,256.2,530.7z"/>
	</g>
	<g>
		<path class="st3" d="M252.9,526.8c-0.8-1.4-2-2.5-3.5-3.1c-0.7-0.3-1.5-0.5-2.3-0.4c-0.8,0-1.5,0.5-1.6,1.2
			c-0.1,0.7,0.4,1.4,1,1.8c0.6,0.4,1.4,0.6,2.2,0.7c0.8,0.1,1.6,0.2,2.3,0.1c0.8-0.1,1.5-0.4,2-1c0.5-0.5,1-1.3,1.6-1.8
			c0.6-0.6,1.3-1.1,2-1.4c0.7-0.3,1.5-0.6,2.4-0.6c0.8,0,1.8,0.5,2.1,1.4c0.1,0.5,0,0.9-0.3,1.3c-0.2,0.4-0.6,0.6-0.9,0.9
			c-0.7,0.5-1.5,0.7-2.3,0.9C256.2,527.1,254.5,527.2,252.9,526.8z M252.9,526.8c1.6,0.4,3.2,0.1,4.7-0.3c0.8-0.2,1.5-0.5,2.1-1
			c0.6-0.4,1.2-1.1,1-1.8c-0.2-0.7-1-1.1-1.7-1c-0.7,0-1.5,0.3-2.2,0.6c-0.7,0.3-1.3,0.8-1.9,1.4c-0.6,0.5-1,1.2-1.5,1.8
			c-0.6,0.6-1.4,1-2.3,1.1c-0.8,0.1-1.7,0-2.5-0.2c-0.8-0.2-1.6-0.3-2.3-0.8c-0.7-0.4-1.3-1.3-1.2-2.2c0.1-0.5,0.3-0.9,0.7-1.1
			c0.4-0.2,0.8-0.3,1.2-0.4c0.8-0.1,1.7,0.2,2.4,0.5C251,524.1,252.2,525.3,252.9,526.8z"/>
	</g>
	<g>
		<path class="st1" d="M301.2,526.2c-0.1-1.2-0.3-3.1,0-4.2c0.3-1.2,0.2-2.6-0.8-3.3c-0.7-0.6-1.8-0.7-2.7-0.6c-1.4,0-2.7,0.2-4,0.6
			c-0.6,0.2-1.3,0.4-1.7,0.9c-0.7,0.7-0.7,1.8-0.5,2.7c0.1,0.9,0.4,1.9,0.1,2.9c-2.1-0.5-2.4-1.8-4.4-3.2c-0.9,1.9-2.9,4.2-3.2,6.3
			c-0.4,2.4-0.8,4.9,0.1,7.1c1.2,3.1,4.3,5,6.5,7.5c1.8,2.1,3.1,4.8,5.5,6.3c1.8,1.1,4,1.4,6.1,1.2s4.1-0.9,6.1-1.5
			c1.3-0.4,2.7-0.9,3.6-1.9c1.1-1.2,1.3-3,0.9-4.5c-0.6-2.3-2.3-4.2-4.2-5.8c-1.9-1.6-3.1-3-4.7-4.8S301.3,528.4,301.2,526.2z"/>
		<path class="st2" d="M301.2,526.2c-0.1-0.9-0.2-1.9-0.2-2.8c-0.1-1,0.3-1.9,0.2-2.8c0-0.9-0.5-1.9-1.4-2.2
			c-0.9-0.4-1.8-0.3-2.8-0.3c-0.9,0.1-1.9,0.2-2.8,0.4c-0.9,0.2-1.9,0.4-2.4,1.2c-0.6,0.7-0.5,1.8-0.4,2.7c0.2,0.9,0.4,1.9,0.1,2.8
			c0,0.1-0.1,0.1-0.1,0.1c-0.5-0.1-0.9-0.3-1.3-0.5c-0.4-0.2-0.8-0.6-1.1-0.9c-0.7-0.7-1.3-1.3-2-1.8l0.2,0c-0.7,1.4-1.6,2.7-2.3,4
			c-0.4,0.7-0.7,1.4-0.8,2.1c-0.1,0.8-0.2,1.5-0.3,2.3c-0.2,1.5-0.2,3.1,0.3,4.5c0.5,1.4,1.4,2.7,2.5,3.8c1.1,1.1,2.3,2.1,3.4,3.2
			c1.1,1.1,2,2.5,2.9,3.7c0.9,1.3,1.9,2.5,3.2,3.3c1.3,0.8,2.8,1.2,4.3,1.3c3.1,0.1,6.1-0.9,9-1.9c0.7-0.3,1.4-0.6,2-1.1
			c0.6-0.5,1-1.1,1.2-1.9c0.4-1.5,0.1-3.1-0.6-4.4c-0.7-1.4-1.7-2.5-2.9-3.6c-1.2-1-2.3-2-3.4-3.2c-1-1.1-2.1-2.3-3-3.5
			C301.8,529.3,301.2,527.7,301.2,526.2z M301.2,526.2c0.1,1.6,0.6,3.1,1.5,4.3c0.9,1.3,2,2.4,3.1,3.5c1.1,1.1,2.2,2.1,3.4,3.1
			c1.1,1,2.2,2.2,2.9,3.6c0.7,1.4,1.1,3,0.6,4.6c-0.2,0.8-0.7,1.5-1.3,2c-0.6,0.5-1.3,0.9-2.1,1.1c-2.9,1-5.9,2.1-9.1,2
			c-1.6-0.1-3.2-0.4-4.5-1.3c-1.4-0.9-2.4-2.1-3.3-3.4c-0.9-1.3-1.8-2.5-2.9-3.6c-1.1-1.1-2.2-2.1-3.3-3.2c-1.1-1.1-2.1-2.4-2.6-3.9
			c-0.5-1.5-0.5-3.1-0.3-4.7c0.1-0.8,0.2-1.5,0.3-2.3c0.2-0.8,0.5-1.5,0.9-2.2c0.7-1.4,1.7-2.6,2.4-4c0-0.1,0.1-0.1,0.2-0.1l0,0
			c0.8,0.6,1.4,1.2,2,1.9c0.6,0.7,1.4,1.1,2.3,1.4l-0.1,0.1c0.3-0.9,0.1-1.8-0.1-2.8c-0.1-0.9-0.2-2,0.4-2.8c0.6-0.8,1.7-1,2.5-1.2
			c0.9-0.2,1.9-0.4,2.8-0.4c0.9,0,1.9-0.1,2.8,0.3c0.9,0.4,1.4,1.4,1.4,2.3c0.1,1-0.3,1.9-0.3,2.8
			C301.1,524.3,301.2,525.2,301.2,526.2z"/>
	</g>
	<g>
		<path class="st1" d="M292.6,529.6c1.6,2.4,2,5.2,2.9,7.9c0.9,2.7,2.4,5.4,5.2,6.5c1.4,0.5,3,0.5,4.5,0.2c2-0.4,4-1.5,4.7-3.3"/>
		<path class="st2" d="M292.6,529.6c1.3,1.9,2,4.2,2.6,6.4c0.6,2.2,1.5,4.4,3,6c0.7,0.8,1.7,1.5,2.7,1.9c1,0.4,2.2,0.4,3.3,0.3
			c1.1-0.1,2.2-0.4,3.2-1c1-0.5,1.9-1.3,2.4-2.3c-0.4,1.1-1.3,2-2.3,2.6c-1,0.6-2.1,1-3.3,1.1c-1.2,0.2-2.4,0.1-3.5-0.3
			c-1.1-0.4-2.1-1.1-2.9-1.9c-1.6-1.8-2.4-4-3-6.3C294.3,533.9,293.8,531.6,292.6,529.6z"/>
	</g>
	<g>
		<path class="st3" d="M286.2,528.2c-0.4,2.6,0.1,5.2,1.4,7.5c1.3,2.2,3.5,4,5.9,5c-2.9-3.3-4.9-7.3-5.7-11.6
			c-0.1-0.4-0.2-0.9-0.5-1.2C287,527.6,286.3,527.8,286.2,528.2z"/>
		<path class="st8" d="M286.2,528.2c-0.4,2.6,0.2,5.3,1.6,7.5c1.4,2.2,3.5,3.9,5.9,4.8l-0.3,0.4c-1.7-2-3.1-4.3-4.1-6.8
			c-0.5-1.2-0.9-2.5-1.2-3.8c-0.2-0.6-0.2-1.3-0.4-1.9c-0.1-0.3-0.4-0.6-0.7-0.6C286.7,527.7,286.3,527.8,286.2,528.2z M286.2,528.2
			c0.1-0.3,0.5-0.5,0.8-0.4c0.3,0,0.6,0.3,0.7,0.6c0.2,0.6,0.3,1.3,0.5,1.9c0.3,1.3,0.8,2.5,1.3,3.7c1.1,2.4,2.5,4.6,4.2,6.5
			c0.1,0.1,0.1,0.3,0,0.4c-0.1,0.1-0.2,0.1-0.3,0c-2.5-1-4.6-2.8-5.9-5.1C286.3,533.5,285.8,530.8,286.2,528.2z"/>
	</g>
	<g>
		<path class="st3" d="M300.4,541.9c1.1-0.8,2.3-1.3,3.6-1.6c1.3-0.3,2.6-0.5,3.9-0.4l0,0l0.2,0.1l-0.2,0l0,0
			c-1.3,0.2-2.5,0.5-3.8,0.8C302.9,541.1,301.7,541.5,300.4,541.9z"/>
	</g>
	<g>
		<path class="st3" d="M298.2,538.7c0.4-0.5,1-0.8,1.6-1c0.6-0.2,1.2-0.3,1.8-0.3c0.6,0,1.2,0,1.8,0c0.6,0,1.2,0.1,1.8,0.2
			c-1.2,0.2-2.4,0.2-3.6,0.3C300.4,537.9,299.3,538.1,298.2,538.7z"/>
	</g>
	<g>
		<path class="st3" d="M296.7,535.2c0.9-0.7,2-1,3.2-1.2c1.1-0.1,2.3-0.1,3.4,0.3c-1.1,0-2.2,0-3.3,0.2
			C298.9,534.7,297.8,534.9,296.7,535.2z"/>
	</g>
	<g>
		<path class="st3" d="M295.6,532.4c0.8-0.8,2-1.2,3.1-1.4c1.2-0.1,2.4,0.1,3.3,0.7c-1.1-0.2-2.2-0.3-3.3-0.2
			C297.7,531.6,296.6,531.9,295.6,532.4z"/>
	</g>
	<g>
		<path class="st3" d="M298.9,528.5c0.7-1.5,1.9-2.6,3.4-3.3c0.7-0.3,1.6-0.6,2.4-0.5c0.4,0,0.8,0.1,1.2,0.4
			c0.4,0.2,0.7,0.6,0.7,1.1c0.1,0.9-0.5,1.8-1.2,2.2c-0.7,0.4-1.6,0.6-2.3,0.8c-0.8,0.2-1.6,0.3-2.5,0.2c-0.8-0.1-1.7-0.5-2.3-1.1
			c-0.6-0.6-1-1.3-1.5-1.8c-0.5-0.6-1.2-1-1.9-1.4c-0.7-0.3-1.5-0.6-2.2-0.6c-0.7,0-1.5,0.4-1.7,1c-0.2,0.7,0.4,1.4,1,1.8
			c0.6,0.4,1.4,0.7,2.1,1C295.7,528.6,297.3,528.8,298.9,528.5z M298.9,528.5c-1.6,0.4-3.2,0.3-4.8-0.1c-0.8-0.2-1.6-0.5-2.3-0.9
			c-0.3-0.2-0.7-0.5-0.9-0.9c-0.2-0.4-0.4-0.8-0.3-1.3c0.2-0.9,1.2-1.4,2.1-1.4c0.9,0,1.7,0.3,2.4,0.6c0.7,0.4,1.4,0.8,2,1.4
			c0.6,0.6,1,1.3,1.6,1.8c0.5,0.6,1.2,0.9,2,1c0.8,0.1,1.5,0,2.3-0.1c0.8-0.2,1.6-0.3,2.2-0.7c0.6-0.4,1.1-1.1,1-1.8
			c-0.1-0.7-0.8-1.2-1.6-1.2c-0.8-0.1-1.5,0.1-2.3,0.4C300.9,526,299.6,527.1,298.9,528.5z"/>
	</g>
	<g>
		<path class="st5" d="M306,452.3c0.6,2.8,0.9,5.6,0.9,8.4"/>
		<path class="st7" d="M306,452.3c0.5,1.3,0.7,2.7,0.9,4.1c0.1,1.4,0.2,2.8,0,4.2c-0.2-1.4-0.4-2.8-0.5-4.2
			C306.2,455.1,306.1,453.7,306,452.3z"/>
	</g>
	<g>
		<path class="st5" d="M303.5,453.8c0.7,2.6,0.8,5.4,0.5,8"/>
		<path class="st7" d="M303.5,453.8c0.5,1.3,0.8,2.6,0.9,4c0.1,1.4,0,2.7-0.4,4.1c0-1.4-0.1-2.7-0.1-4
			C303.8,456.5,303.6,455.1,303.5,453.8z"/>
	</g>
	<g>
		<path class="st5" d="M301.2,454.7c0.5,2.5,0.6,5.1,0.5,7.6"/>
		<path class="st7" d="M301.2,454.7c0.4,1.2,0.6,2.5,0.7,3.8c0.1,1.3,0,2.6-0.2,3.8c-0.1-1.3-0.2-2.5-0.3-3.8
			C301.4,457.2,301.3,456,301.2,454.7z"/>
	</g>
	<g>
		<path class="st5" d="M298.9,455.4c0,2.1,0,4.2,0.1,6.3"/>
		<path class="st7" d="M298.9,455.4c0.2,1,0.3,2.1,0.3,3.1c0,1,0,2.1-0.2,3.2c-0.2-1-0.3-2.1-0.3-3.1
			C298.7,457.5,298.7,456.5,298.9,455.4z"/>
	</g>
	<g>
		<path class="st5" d="M283.2,456.4c0.1,2.3,0.1,4.5,0.2,6.8"/>
		<path class="st7" d="M283.2,456.4c0.2,1.1,0.3,2.3,0.3,3.4c0,1.1,0,2.3-0.2,3.4c-0.2-1.1-0.3-2.3-0.3-3.4
			C283,458.6,283,457.5,283.2,456.4z"/>
	</g>
	<g>
		<path class="st5" d="M286.4,456.9c-0.3,2.2-0.1,4.5,0.6,6.6"/>
		<path class="st7" d="M286.4,456.9c0.1,1.1,0.1,2.2,0.2,3.3c0.1,1.1,0.3,2.2,0.4,3.3c-0.5-1-0.8-2.1-0.9-3.2
			C286,459.2,286.1,458,286.4,456.9z"/>
	</g>
	<g>
		<path class="st5" d="M269.5,454c-0.1,3.1-0.2,6.2-0.5,9.3"/>
		<path class="st7" d="M269.5,454c0.1,1.6,0.1,3.1,0,4.7c-0.1,1.6-0.2,3.1-0.5,4.6c-0.1-1.6-0.1-3.1,0-4.7
			C269.1,457.1,269.2,455.6,269.5,454z"/>
	</g>
	<g>
		<path class="st5" d="M267,455.4c-0.1,3.2-0.3,6.4-0.4,9.6"/>
		<path class="st7" d="M267,455.4c0.1,1.6,0.1,3.2,0,4.8c-0.1,1.6-0.2,3.2-0.5,4.8c-0.1-1.6-0.1-3.2,0-4.8
			C266.6,458.6,266.7,457,267,455.4z"/>
	</g>
	<g>
		<path class="st5" d="M264.9,456.1c-0.2,2.7-0.5,5.4-0.7,8.1"/>
		<path class="st7" d="M264.9,456.1c0.1,1.4,0,2.7-0.1,4.1c-0.1,1.3-0.3,2.7-0.6,4c-0.1-1.4,0-2.7,0.1-4.1
			C264.4,458.8,264.5,457.4,264.9,456.1z"/>
	</g>
	<g>
		<path class="st5" d="M262.5,456.4c0,1.7-0.1,3.4-0.1,5.1"/>
		<path class="st7" d="M262.5,456.4c0.2,0.8,0.2,1.7,0.2,2.5c0,0.8-0.1,1.7-0.3,2.5c-0.2-0.8-0.2-1.7-0.2-2.5
			C262.2,458,262.3,457.2,262.5,456.4z"/>
	</g>
	<g>
		<path class="st5" d="M248.5,452.4c-0.4,1.9-0.7,3.7-0.9,5.6"/>
		<path class="st7" d="M248.5,452.4c0,1-0.2,1.9-0.3,2.8c-0.2,0.9-0.3,1.9-0.6,2.8c-0.1-1,0-1.9,0.1-2.9
			C247.9,454.2,248.1,453.3,248.5,452.4z"/>
	</g>
	<g>
		<path class="st5" d="M250.5,453.8c-0.4,1.7-0.7,3.4-0.7,5.1"/>
		<path class="st7" d="M250.5,453.8c0,0.9-0.2,1.7-0.3,2.6c-0.1,0.8-0.2,1.7-0.5,2.5c-0.2-0.9-0.1-1.7,0-2.6
			C249.8,455.4,250.1,454.6,250.5,453.8z"/>
	</g>
	<g>
		<path class="st5" d="M252.4,455c-0.1,0.7-0.1,1.4-0.2,2.1"/>
		<path class="st7" d="M252.4,455c0.2,0.4,0.2,0.7,0.2,1.1c0,0.3-0.1,0.7-0.3,1c-0.2-0.4-0.2-0.7-0.2-1.1
			C252.1,455.7,252.2,455.4,252.4,455z"/>
	</g>
</g>
</svg>
