<?xml version="1.0" encoding="utf-8"?>
<!-- Generator: Adobe Illustrator 25.4.1, SVG Export Plug-In . SVG Version: 6.00 Build 0)  -->
<svg version="1.1" id="tenue_x5F_1" xmlns="http://www.w3.org/2000/svg" xmlns:xlink="http://www.w3.org/1999/xlink" x="0px"
	 y="0px" viewBox="0 0 553 574" style="enable-background:new 0 0 553 574;" xml:space="preserve">
<style type="text/css">
	.st0{fill:none;}
	.st1{fill:#FEFBF7;}
	.st2{fill:#EAE2D8;}
	.st3{fill:#C5322E;}
	.st4{fill:#813632;}
	.st5{fill:#592322;}
	.st6{fill:#364C32;}
	.st7{fill:#273824;}
	.st8{fill:#2A3627;}
	.st9{fill:#1C231B;}
	.st10{fill:#3D503A;}
	.st11{fill:#1E261D;}
	.st12{fill:#FFFFFF;}
	.st13{fill:#313D2F;}
	.st14{fill:#E5BC96;}
	.st15{fill:#BF9879;}
	.st16{fill:#D3A982;}
	.st17{fill:#B0322D;}
</style>
<g id="cadre_8_">
	<rect x="0" class="st0" width="553" height="574"/>
</g>
<g id="tenue_x5F_19">
	<g>
		<path class="st1" d="M281.1,453.2c8.7,0.8,15.9,1.1,24.5-0.8c0.4-0.1,0.8-0.2,1.2,0.1c0.2,0.2,0.3,0.5,0.4,0.8
			c2.6,10.9,0.6,22.4-2,33.3c-2.6,10.9-5.9,21.9-6,33.1c0,2.4,0.1,4.9,0.8,7.2c1.3,4.2,4.4,7.7,7.4,11c0.6,0.6,1.2,1.3,1.3,2.2
			c0.3,1.8-1.7,3.2-3.4,3.8c-3,1.1-6.3,1.6-9.5,1.4c-2.4-0.1-5-0.8-6.2-2.9c-0.5-0.9-0.6-2.1-1.2-3c-0.7-1.2-2.1-1.9-2.9-3
			c-1.6-2.1-1.1-5-0.7-7.5c1.1-7.5,2.3-13.4,2.1-21c-0.1-4.7-0.3-11.5-1-16.2c-0.9-6.5-2.7-14.7-3.2-21.2
			C282.2,464.1,279.8,459.2,281.1,453.2z"/>
		<path class="st2" d="M281.1,453.2c4.8,0.4,9.6,0.8,14.4,0.5c2.4-0.1,4.8-0.4,7.2-0.8c0.6-0.1,1.2-0.2,1.8-0.3
			c0.6-0.1,1.2-0.3,1.8-0.3c0.3,0,0.7,0.2,0.8,0.5c0.2,0.3,0.2,0.6,0.3,0.9l0.4,1.8c0.9,4.8,0.9,9.6,0.5,14.4
			c-0.4,4.8-1.3,9.6-2.3,14.3c-2.1,9.4-4.9,18.6-6,28.2c-0.3,2.4-0.5,4.8-0.5,7.2c0,2.4,0.1,4.8,0.7,7.1c0.7,2.3,1.9,4.4,3.3,6.3
			c1.4,1.9,3.1,3.7,4.7,5.5c0.4,0.5,0.7,1,0.8,1.7c0.1,0.7-0.1,1.4-0.5,1.9c-0.8,1.1-1.9,1.7-3,2.1c-2.3,0.8-4.7,1.3-7.1,1.4
			c-2.4,0.1-5,0-7.1-1.3c-1.1-0.6-1.9-1.7-2.2-2.9c-0.2-0.6-0.4-1.1-0.6-1.7c-0.3-0.5-0.6-0.9-1.1-1.3c-0.9-0.8-1.9-1.5-2.5-2.7
			c-0.6-1.1-0.7-2.4-0.6-3.6c0.1-1.2,0.3-2.4,0.4-3.6l0.6-3.6c0.8-4.8,1.4-9.5,1.5-14.3c0.1-4.8-0.1-9.6-0.5-14.4
			c-0.3-4.8-1.3-9.5-2.1-14.3c-0.4-2.4-0.8-4.8-1.1-7.1c-0.2-1.2-0.3-2.4-0.4-3.6c-0.1-1.2-0.2-2.4-0.4-3.6c-0.4-2.4-1-4.7-1.3-7.1
			C280.6,458,280.6,455.6,281.1,453.2z M281.1,453.2c-0.5,2.4-0.5,4.8-0.1,7.2c0.4,2.4,1,4.7,1.4,7.1c0.2,1.2,0.3,2.4,0.5,3.6
			c0.1,1.2,0.3,2.4,0.4,3.6c0.3,2.4,0.7,4.8,1.1,7.1c0.8,4.7,1.8,9.5,2.1,14.3c0.4,4.8,0.6,9.6,0.5,14.4c-0.1,4.8-0.8,9.6-1.5,14.4
			l-0.6,3.6c-0.2,1.2-0.4,2.4-0.4,3.6c0,1.2,0.1,2.4,0.6,3.4c0.5,1.1,1.5,1.8,2.4,2.6c0.4,0.4,0.9,0.9,1.2,1.5
			c0.3,0.6,0.5,1.2,0.6,1.7c0.3,1.1,1,2.1,2,2.7c2,1.2,4.5,1.3,6.9,1.2c2.4-0.1,4.7-0.6,7-1.4c1.1-0.4,2.2-1,2.8-2
			c0.3-0.5,0.5-1,0.4-1.5c-0.1-0.5-0.4-1-0.7-1.5c-1.6-1.8-3.2-3.6-4.7-5.5c-1.4-1.9-2.7-4.1-3.4-6.4c-0.7-2.4-0.8-4.8-0.7-7.2
			c0-2.4,0.2-4.8,0.5-7.2c1.1-9.6,4-18.9,6.1-28.2c1.1-4.7,1.9-9.4,2.4-14.2c0.4-4.8,0.3-9.6-0.5-14.4l-0.4-1.8
			c-0.1-0.3-0.1-0.6-0.2-0.8c-0.1-0.2-0.4-0.4-0.7-0.4c-1.1,0.1-2.4,0.5-3.5,0.6c-2.4,0.4-4.8,0.6-7.2,0.7
			C290.7,454,285.9,453.7,281.1,453.2z"/>
	</g>
	<path class="st3" d="M307.6,454.5c-8.7,2.7-17.9,3.3-26.8,1.8c-0.1,1.6-0.1,3.3,0.1,4.9c5.2,1.3,10.7,0.7,16.1-0.1
		c3.2-0.4,6.5-0.9,9.5-2.3c0.4-0.2,0.7-0.4,1-0.7C308.4,457,308,455.4,307.6,454.5z"/>
	<path class="st3" d="M308.6,462.9c-8.3,3.7-17.6,3-26.6,2.3c0.1,1.7,0.4,3.4,0.8,5.1c7.8,0.6,15.6-0.3,23.2-2.4
		c0.8-0.2,1.7-0.5,2.3-1.3C309,465.5,308.8,464.2,308.6,462.9z"/>
	<path class="st3" d="M307.9,471.7c-8.1,2-16.4,2.7-24.7,2.3c0.4,1.2,0.7,2.4,1.1,3.6c0.1,0.3,0.2,0.7,0.5,0.8
		c0.2,0.2,0.5,0.2,0.8,0.2c6.9,0,13.8-0.7,20.5-2c0.5-0.1,1-0.2,1.4-0.6c0.3-0.3,0.4-0.8,0.5-1.2C308,473.6,308.2,472.5,307.9,471.7
		z"/>
	<path class="st3" d="M306.4,480.8c-7.2,1.7-14.7,2.2-22,1.6c0.2,1.1,0.4,2.2,0.7,3.4c0.1,0.2,0.1,0.4,0.3,0.6
		c0.2,0.1,0.4,0.2,0.6,0.2c6.6,0.5,13.4-0.2,19.8-1.9C306.4,483.4,306.6,482,306.4,480.8z"/>
	<path class="st3" d="M304.8,488.7c-6,2.1-12.6,2.6-18.8,1.4c0.1,1.2,0.2,2.4,0.2,3.6c5.6,1.4,11.7,1.1,17.2-0.8
		c0.2-0.1,0.5-0.2,0.7-0.4c0.2-0.2,0.3-0.5,0.3-0.8C304.6,490.7,304.8,489.7,304.8,488.7z"/>
	<g>
		<path class="st1" d="M272.2,453.6c0.8,6.4-1,12.9-2.5,19.2c-2.6,11.3-4.1,22.9-4.3,34.5c-0.1,6.7,0.1,13.5,0.3,20.2
			c0,1.6,0.1,3.2-0.2,4.7c-0.5,2.4-1.8,4.5-3.1,6.6c-1.1,1.8-2.4,3.8-4.5,4.4c-1.2,0.3-2.4,0.2-3.6,0c-4.1-0.7-8.1-2.3-11.6-4.5
			c-0.4-0.3-0.9-0.6-1.2-1c-0.7-0.9-0.5-2.2,0-3.2s3.1-1.5,3.9-2.3c6.1-6.3,6.2-15.9,5.6-24.6c-0.6-8.7-3.3-15-5-23.5
			c-1.9-9.7-2.4-21.8-1.6-31.6c0-0.3,0.1-0.6,0.2-0.8c0.4-0.7,1.5-0.6,2.4-0.4C255.3,453.2,263.7,454,272.2,453.6z"/>
		<path class="st2" d="M272.2,453.6c0.6,4.8-0.2,9.6-1.2,14.2c-1.1,4.6-2.2,9.3-2.9,14c-1.6,9.4-2.5,18.9-2.5,28.5
			c0,4.8,0.1,9.5,0.3,14.3l0.1,3.6c0,1.2,0,2.4-0.1,3.6c-0.4,2.4-1.6,4.6-2.8,6.6c-0.6,1-1.2,2.1-2,3c-0.8,0.9-1.8,1.7-3,2.1
			c-1.2,0.3-2.5,0.2-3.6,0c-1.2-0.2-2.4-0.5-3.5-0.8c-2.3-0.7-4.5-1.6-6.6-2.8c-0.5-0.3-1-0.6-1.5-0.9c-0.5-0.3-1.1-0.7-1.4-1.3
			c-0.3-0.6-0.4-1.3-0.3-1.9c0.1-0.3,0.1-0.6,0.3-0.9c0.1-0.3,0.3-0.6,0.6-0.8c1-0.8,2.3-1,3.2-1.6c0.1-0.1,0.2-0.2,0.3-0.2l0.3-0.3
			l0.6-0.7c0.4-0.4,0.7-0.9,1.1-1.4c1.3-1.9,2.2-4.2,2.8-6.5c1.2-4.6,1.2-9.4,0.9-14.2c-0.3-9.6-4.3-18.5-5.6-28
			c-1.4-9.4-1.8-19.1-1-28.6c0-0.3,0.1-0.6,0.3-0.9c0.2-0.3,0.5-0.4,0.8-0.5c0.6-0.1,1.2,0,1.8,0.2c1.2,0.3,2.3,0.5,3.5,0.8
			c2.3,0.5,4.7,0.8,7.1,1.1C262.7,453.6,267.5,453.8,272.2,453.6z M272.2,453.6c-4.8,0.2-9.6,0.1-14.3-0.4c-2.4-0.3-4.7-0.6-7.1-1
			c-1.2-0.2-2.3-0.5-3.5-0.7c-0.6-0.1-1.2-0.3-1.7-0.2c-0.3,0-0.5,0.2-0.7,0.4c-0.2,0.2-0.2,0.5-0.2,0.8c-0.8,9.5-0.4,19.1,1.1,28.5
			c0.7,4.7,2,9.3,3.2,13.9c1.3,4.6,2.2,9.3,2.5,14.1c0.3,4.8,0.3,9.6-0.9,14.3c-0.6,2.3-1.5,4.6-2.9,6.6c-0.7,1-1.4,1.9-2.4,2.8
			c-1.1,0.7-2.3,0.9-3.2,1.6c-0.4,0.3-0.6,0.9-0.7,1.4c-0.1,0.5,0,1.1,0.2,1.6c0.2,0.5,0.7,0.8,1.2,1.1c0.5,0.3,1,0.6,1.5,0.9
			c2.1,1.2,4.3,2.1,6.5,2.8c1.1,0.3,2.3,0.6,3.5,0.8c1.2,0.2,2.3,0.4,3.5,0.1c1.1-0.3,2-1,2.8-1.9c0.8-0.9,1.4-1.9,2-2.9
			c1.2-2,2.4-4.1,2.8-6.4c0.2-1.2,0.2-2.3,0.2-3.5l-0.1-3.6c-0.1-4.8-0.3-9.5-0.2-14.3c0.1-9.6,0.9-19.1,2.6-28.5
			c0.8-4.7,1.9-9.4,3.1-14C272,463.2,272.9,458.4,272.2,453.6z"/>
	</g>
	<path class="st3" d="M302.8,496.5c-5.3,1.6-10.9,1.9-16.3,1c0.3,1.1,0.4,2.3,0.4,3.4c4.7,0.4,9.3,0.3,14-0.4c0.3,0,0.7-0.1,1-0.3
		c0.2-0.2,0.3-0.4,0.4-0.6C302.7,498.6,302.9,497.5,302.8,496.5z"/>
	<path class="st3" d="M301.2,504c-4.7,1.3-9.5,1.9-14.4,1.7c0.1,1.1,0.1,2.3,0.2,3.4c3.9,0.3,7.9,0.2,11.8-0.5
		c0.5-0.1,1.1-0.2,1.4-0.7c0.2-0.2,0.2-0.5,0.3-0.8C300.7,506,300.8,504.9,301.2,504z"/>
	<path class="st3" d="M299.4,512.1c-4,1.4-8.4,1.5-12.4,0.5c0,1,0.1,1.9,0.2,2.9c4,0.1,8,0.1,12,0
		C299.3,514.3,299.4,513.2,299.4,512.1z"/>
	<path class="st3" d="M244.9,453.2c8.9,2.7,18.3,3.4,27.4,1.9c0.1,1.7,0.1,3.4-0.1,5c-5.4,1.3-11,0.7-16.4-0.1
		c-3.3-0.4-6.7-0.9-9.7-2.4c-0.4-0.2-0.8-0.4-1-0.7C244,455.8,244.5,454.1,244.9,453.2z"/>
	<path class="st3" d="M244.3,460.1c8.6,3.8,18.3,3.1,27.5,2.3c-0.1,1.8-0.4,3.5-0.8,5.2c-8.1,0.6-16.2-0.3-24-2.5
		c-0.9-0.2-1.8-0.6-2.3-1.3C243.9,462.8,244.1,461.4,244.3,460.1z"/>
	<path class="st3" d="M244.7,469.1c8.4,2,17,2.8,25.6,2.3c-0.4,1.2-0.7,2.5-1.1,3.7c-0.1,0.3-0.2,0.7-0.5,0.9
		c-0.2,0.2-0.5,0.2-0.8,0.2c-7.1,0-14.2-0.7-21.2-2.1c-0.5-0.1-1.1-0.2-1.4-0.6c-0.3-0.3-0.4-0.8-0.5-1.2
		C244.5,471.2,244.4,470,244.7,469.1z"/>
	<path class="st3" d="M245.2,478.5c7.5,1.7,15.2,2.3,22.9,1.7c-0.2,1.2-0.4,2.3-0.7,3.5c-0.1,0.2-0.1,0.4-0.3,0.6
		c-0.2,0.1-0.4,0.2-0.6,0.2c-6.9,0.5-13.9-0.2-20.6-2C245.2,481.2,244.9,479.8,245.2,478.5z"/>
	<path class="st3" d="M246.6,486.6c6.5,2.2,13.6,2.7,20.4,1.5c-0.1,1.2-0.2,2.5-0.3,3.7c-6.1,1.5-12.7,1.2-18.6-0.9
		c-0.3-0.1-0.5-0.2-0.7-0.4c-0.2-0.2-0.3-0.5-0.4-0.8C246.9,488.7,246.6,487.7,246.6,486.6z"/>
	<path class="st3" d="M249,494.7c5.5,1.6,11.4,2,17,1c-0.3,1.2-0.4,2.3-0.5,3.5c-4.9,0.4-9.8,0.3-14.6-0.4c-0.4,0-0.7-0.1-1-0.4
		c-0.2-0.2-0.3-0.4-0.4-0.7C249.1,496.8,248.9,495.7,249,494.7z"/>
	<path class="st3" d="M250.6,502.4c4.9,1.3,10.1,1.9,15.2,1.8c-0.1,1.2-0.1,2.3-0.2,3.5c-4.2,0.3-8.4,0.2-12.5-0.5
		c-0.6-0.1-1.2-0.2-1.5-0.7c-0.2-0.3-0.5-0.3-0.5-0.6C250.9,504.7,251,503.4,250.6,502.4z"/>
	<path class="st3" d="M251.6,510.3c4.3,1.4,9.6,2.1,14,1c0,1-0.1,2-0.2,3c-4.3,0.1-9.4-0.2-13.8-0.3
		C251.5,512.8,251.6,511.3,251.6,510.3z"/>
	<g>
		<path class="st1" d="M314.4,250c-1,7.4-2.1,14.9-1.3,22.3c1.6,14.3,6.8,29.3,8.4,43.6c-29.8,11.5-54,8.1-85.9,3.2
			c0-7.1,1.3-13.1,2.9-20.1c1.8-7.9-0.4-16,1.3-24s0.5-15-1.5-22.9c-0.1,4.6-0.8,7.2-2.7,11.4c-1.5,3.3-3.5,6.3-5,9.5
			c-1.4,3-2.4,6.3-3.4,9.5c-1.6,5-3.1,10-4.7,15c-2.5,8-5,16.2-4.6,24.6c0,0.6,0,1.2-0.3,1.6c-0.3,0.3-0.8,0.5-1.3,0.5
			c-2.3,0.4-4.5,1.1-6.8,1.2c-4.9,0-9.7-1.2-9.7-1.2s1.3-15.6,1.6-19.8c0.5-6.9,0.7-11.2,1-18.8c0.6-14.9,4.7-29.4,8.8-43.7
			c2.8-9.9,5.8-20.1,12.5-27.9c2-2.3,6.4-5.3,9.1-6.7c5-2.7,16-0.7,21.8-0.6c1.5,9.4,2.7,12.1,10.3,15.6c7.6,3.5,16.7,3.9,24.3,0.5
			c7.6-3.4,7-8.6,8-16.5c4.4,0.5,15.3-2.2,19.6-1.2c6,1.4,11,5.7,14.5,10.7s5.6,10.9,7.5,16.7c8.6,26.7,13,54.7,12.8,82.8
			c-5.2,2.2-11.3,2.4-17.4-0.4c-1.6-9.4-4.3-16.8-7.8-25.6c-2.5-6.2-4.9-14.1-7.4-20.4C316.5,263,315.1,256.5,314.4,250z"/>
		<path class="st2" d="M314.4,250c-0.8,5.5-1.5,11-1.6,16.6c0,5.6,1,11.1,2,16.6c1.1,5.5,2.5,10.9,3.7,16.3c1.2,5.4,2.3,10.9,3,16.4
			l0,0l0,0c-6.8,2.6-13.8,4.6-20.9,5.9c-7.1,1.3-14.4,1.9-21.7,1.8c-7.3,0-14.5-0.6-21.7-1.5c-7.2-0.9-14.4-1.9-21.6-3l-0.1,0l0-0.1
			c0-5.6,0.9-11.2,2.1-16.7c0.6-2.8,1.3-5.5,1.4-8.3c0.2-2.8,0-5.6,0-8.4c-0.1-2.8-0.1-5.6,0.3-8.4c0.2-1.4,0.5-2.8,0.8-4.2
			c0.2-1.4,0.4-2.8,0.4-4.2c0.2-5.6-0.9-11.2-2.3-16.6l0.3,0c-0.1,1.9-0.2,3.9-0.7,5.8c-0.4,1.9-1.2,3.7-2,5.5
			c-1.6,3.6-3.8,6.8-5.4,10.3c-1.6,3.5-2.6,7.3-3.8,11l-3.5,11.1c-2.3,7.4-4.8,14.9-5.1,22.6c0,1-0.1,1.9,0,2.9c0,0.5,0.1,1,0,1.5
			c0,0.3-0.1,0.5-0.3,0.8c-0.2,0.2-0.4,0.4-0.7,0.5c-0.5,0.2-1,0.2-1.5,0.3l-1.4,0.3c-0.9,0.2-1.9,0.4-2.9,0.6c-1,0.2-2,0.2-2.9,0.1
			c-1,0-2-0.1-2.9-0.2c-1.9-0.2-3.9-0.5-5.8-1l-0.2,0l0-0.2c0.9-12.3,2.1-24.5,2.5-36.8c0.1-6.2,0.9-12.3,2-18.4
			c1.1-6.1,2.6-12,4.3-18l2.5-8.9c0.8-3,1.7-5.9,2.7-8.8c1.9-5.8,4.3-11.6,7.8-16.7c0.5-0.6,0.9-1.3,1.4-1.9c0.5-0.6,1-1.2,1.5-1.8
			c1.1-1.1,2.3-2,3.6-2.9c1.3-0.9,2.6-1.7,3.9-2.5c0.7-0.4,1.3-0.8,2.1-1c0.7-0.3,1.5-0.4,2.3-0.6c6.2-0.9,12.3,0.3,18.4,0.5l0.2,0
			l0,0.2c0.5,2.6,0.9,5.3,1.8,7.8c0.5,1.2,1.1,2.4,2,3.4c0.9,1,1.9,1.8,3.1,2.5c4.6,2.7,9.9,4.4,15.2,4.5c2.7,0.1,5.4-0.2,8-0.8
			c1.3-0.3,2.6-0.7,3.8-1.3c1.2-0.5,2.4-1.1,3.5-1.9c1.1-0.8,2-1.8,2.6-2.9c0.7-1.2,1.1-2.4,1.3-3.7c0.5-2.6,0.7-5.3,1-8l0-0.1
			l0.1,0c1.4,0.1,2.9,0,4.4-0.1c1.5-0.1,2.9-0.3,4.4-0.5c2.9-0.4,5.8-0.8,8.8-0.7c1.5,0,2.9,0.4,4.3,0.9c1.4,0.5,2.7,1.2,4,1.9
			c2.5,1.6,4.7,3.6,6.6,5.8c3.8,4.5,6.2,10,8.1,15.5c1.9,5.5,3.6,11.2,5.1,16.8c3,11.3,5.3,22.9,6.7,34.5
			c1.5,11.6,2.1,23.4,2.1,35.1l0,0l0,0c-2.8,1.2-5.8,1.8-8.8,1.7c-3-0.1-6-0.8-8.7-2.1l0,0l0,0c-1-5.6-2.4-11.1-4.3-16.4
			c-1.8-5.4-4.1-10.6-6-15.9l-2.8-8c-0.9-2.7-2-5.3-2.9-8C316.2,261.2,315,255.6,314.4,250z M314.4,250c0.6,5.6,1.8,11.2,3.6,16.6
			c1,2.7,2,5.3,2.9,8l2.8,8c1.8,5.4,4.2,10.6,6,15.9c1.9,5.4,3.4,10.9,4.3,16.5l0,0c2.7,1.2,5.7,2,8.7,2.1c3,0.1,6-0.5,8.7-1.7
			l0,0.1c0-11.7-0.6-23.4-2.1-35.1c-1.5-11.6-3.7-23.1-6.8-34.5c-1.5-5.7-3.2-11.3-5.1-16.8c-1.9-5.5-4.3-11-8.1-15.5
			c-1.9-2.2-4.1-4.2-6.5-5.8c-1.2-0.8-2.5-1.4-3.9-1.9c-1.4-0.5-2.8-0.9-4.2-0.9c-2.9,0-5.8,0.4-8.7,0.8c-1.5,0.2-2.9,0.4-4.4,0.5
			c-1.5,0.1-2.9,0.3-4.4,0.1l0.2-0.1c-0.4,2.7-0.5,5.4-1,8c-0.3,1.3-0.7,2.6-1.3,3.8c-0.7,1.2-1.6,2.2-2.7,3
			c-4.5,3.1-10.1,4.2-15.5,4.1c-5.4-0.2-10.7-1.8-15.4-4.6c-1.2-0.7-2.3-1.5-3.2-2.6c-0.9-1-1.6-2.2-2.1-3.5c-1-2.5-1.4-5.2-1.8-7.9
			l0.2,0.2c-3.1-0.1-6.1-0.5-9.2-0.7c-3.1-0.2-6.1-0.3-9.2,0.2c-0.7,0.1-1.5,0.3-2.2,0.6c-0.7,0.2-1.4,0.6-2,1
			c-1.3,0.8-2.6,1.6-3.9,2.5c-1.2,0.9-2.5,1.8-3.5,2.9c-0.5,0.5-1,1.1-1.5,1.7c-0.5,0.6-0.9,1.2-1.4,1.8c-3.5,5-5.8,10.8-7.7,16.6
			c-1,2.9-1.8,5.9-2.6,8.8l-2.5,8.9c-1.6,5.9-3.1,11.9-4.3,17.9c-1.1,6-1.9,12.1-2,18.3c-0.5,12.3-1.6,24.6-2.5,36.8l-0.2-0.2
			c1.9,0.4,3.8,0.8,5.7,1c1.9,0.2,3.9,0.3,5.8,0.1c1-0.1,1.9-0.3,2.8-0.6l1.4-0.3c0.5-0.1,1-0.2,1.4-0.3c0.4-0.2,0.7-0.5,0.7-0.9
			c0.1-0.4,0-0.9,0-1.4c0-1,0-2,0-2.9c0.3-7.8,2.9-15.3,5.2-22.7l3.5-11.1c1.2-3.7,2.2-7.5,3.8-11c1.6-3.6,3.8-6.8,5.4-10.3
			c0.8-1.8,1.5-3.6,2-5.5c0.5-1.9,0.6-3.8,0.7-5.8l0-1l0.3,1c1.4,5.5,2.5,11.1,2.3,16.7c-0.1,1.4-0.2,2.8-0.4,4.2
			c-0.2,1.4-0.6,2.8-0.8,4.2c-0.4,2.8-0.4,5.6-0.3,8.4c0.1,2.8,0.2,5.6,0,8.5c-0.1,1.4-0.2,2.8-0.5,4.2c-0.3,1.4-0.6,2.7-0.9,4.1
			c-1.2,5.5-2.2,11.1-2.2,16.7l-0.1-0.1c7.2,1.1,14.4,2.2,21.6,3.1c7.2,0.9,14.5,1.5,21.7,1.5c7.3,0,14.5-0.5,21.7-1.8
			c7.1-1.3,14.1-3.3,20.9-5.9l0,0c-0.6-5.5-1.7-11-2.9-16.4c-1.2-5.4-2.6-10.8-3.7-16.3c-1-5.5-2.1-11-2-16.6
			C312.8,261,313.6,255.5,314.4,250z"/>
	</g>
	<g>
		<path class="st4" d="M297.2,206.3c-0.5,3.3-0.5,4.1-1.2,7.2c-0.7,3.2-3.4,5.8-6.2,7.4c-3.2,1.8-7,2.1-10.7,2.1
			c-3.4,0-6.9-0.1-10.2-0.9c-3.3-0.9-6.5-2.6-8.6-5.3c-1-1.3-1.7-2.7-2.4-4.2c-1.2-2.5-1.9-3.3-2.9-6.1c-2.1-0.3-2,1.4-2.1,2.7
			c-0.3,3.9-0.5,11.3,2.7,16.4c0.8,1.3,8.8,14,17.3,6c1.6-1.5,2.7-3.4,3.6-5.5c0,2.8,1.9,5.2,4.4,6.6c5.7,3.2,12.3-2.3,13.9-3.8
			c5.4-5.2,7.7-11.7,5.7-20.1C299.8,206.4,299.4,205.8,297.2,206.3z"/>
		<path class="st5" d="M297.2,206.3c-0.3,2.5-0.6,5-1.2,7.5c-0.6,2.5-2.4,4.6-4.4,6.1c-1,0.8-2.1,1.5-3.3,1.9
			c-1.2,0.5-2.4,0.8-3.7,1c-2.5,0.4-5,0.4-7.6,0.4c-2.5,0-5.1-0.2-7.5-0.7c-2.5-0.6-4.9-1.5-7-3c-1-0.8-2-1.7-2.7-2.7
			c-0.8-1-1.4-2.1-2-3.3c-0.5-1.2-1.1-2.2-1.7-3.4c-0.6-1.1-1.1-2.3-1.6-3.5l0.3,0.2c-0.5-0.1-0.9,0-1.2,0.2
			c-0.3,0.2-0.4,0.7-0.4,1.2c-0.1,1-0.1,2-0.2,3c-0.1,2,0,4.1,0.2,6.1c0.2,2,0.7,4,1.4,5.8c0.7,1.9,1.9,3.5,3.2,5.1
			c1.3,1.6,2.7,3,4.4,4.1c1.7,1.1,3.6,1.8,5.6,1.5c1.9-0.2,3.7-1.4,5.1-2.8c1.4-1.4,2.4-3.2,3.2-5.1l0.6-1.4l0,1.5
			c-0.1,2,1.1,3.9,2.7,5.2c0.8,0.7,1.7,1.2,2.6,1.6c1,0.4,2,0.5,3,0.5c2.1-0.1,4-0.9,5.8-1.9c1.8-1.1,3.4-2.4,4.8-3.9
			c1.4-1.5,2.6-3.3,3.5-5.1c0.9-1.9,1.5-3.9,1.7-6c0.2-2.1,0.1-4.2-0.2-6.3c-0.2-1-0.4-2.1-0.7-3.1c-0.2-0.5-0.6-0.9-1.1-1
			C298.2,206.1,297.7,206.2,297.2,206.3z M297.2,206.3c0.5-0.1,1-0.2,1.6-0.1c0.5,0.1,1,0.5,1.1,1c0.4,1,0.6,2,0.8,3.1
			c0.4,2.1,0.5,4.2,0.3,6.3c-0.2,2.1-0.7,4.2-1.6,6.1c-0.9,1.9-2.1,3.7-3.5,5.3c-1.4,1.6-3.1,3-4.9,4c-1.8,1.1-3.9,1.9-6,2
			c-1.1,0.1-2.2-0.1-3.2-0.5c-1-0.4-1.9-1-2.8-1.7c-1.6-1.4-2.9-3.4-2.9-5.6l0.5,0.1c-0.8,1.9-1.8,3.8-3.3,5.3
			c-1.4,1.5-3.3,2.7-5.4,3c-2.1,0.3-4.3-0.5-6-1.6c-1.8-1.1-3.2-2.6-4.6-4.2c-1.3-1.6-2.5-3.3-3.3-5.3c-0.8-1.9-1.2-4-1.4-6
			c-0.2-2.1-0.3-4.1-0.2-6.2c0-1,0.1-2,0.2-3.1c0.1-0.5,0.2-1.1,0.6-1.6c0.5-0.5,1.2-0.5,1.7-0.4l0.2,0l0.1,0.2
			c0.8,2.4,2.2,4.5,3.2,6.8c0.5,1.1,1.1,2.2,1.9,3.2c0.7,1,1.6,1.9,2.6,2.6c2,1.5,4.3,2.4,6.7,3c2.4,0.6,4.9,0.7,7.4,0.8
			c2.5,0,5,0,7.5-0.4c2.5-0.4,4.8-1.3,6.8-2.8c2-1.5,3.7-3.4,4.4-5.9C296.4,211.3,296.8,208.8,297.2,206.3z"/>
	</g>
	<g>
		<path class="st6" d="M300.4,206.1c-0.1,14.8-2.5,23.9-4.7,36.1c-13.7,3.9-24.7,0.9-38.9,0.4c-3.7-12.3-5.5-23.4-5.5-36.1
			c-3.2-1.3-6.2-1.4-10.2-0.5c0,13.9,1.1,27,3.2,40.8c0.2,2.9-3,4.7-5.6,5.4c3.1,11-3.7,38.7-5.8,49.9c-6.1,32.6-1.6,54.2,2.6,91.3
			c3.5,0.5,7,1.1,10.5,1.6c5.4,0.8,10.9,1.6,16.4,1.4c4.7-0.2,7.9-3.9,11.5-7c1.1-0.9,1.7-2.3,1.6-3.8c-0.2-2.2,0.2-2.8,0.2-6.3
			c0.1-6-0.7-8.4,1.1-14.7c2.2,5,1.1,12.1,1.5,23.1c12.8,5.9,26.7,11.4,38.9,4.1c2.3-15.9,4-29.2,6.5-43.1c2.1-11.6,1-28.7-0.5-39.7
			c-1.5-11.1-10.8-36.6-8.4-57.2c-0.6-0.1,0.9-2.1-0.1-2.5c-3.7-1.3-6.3-4.6-5.9-8.4c1.1-9.7,1.1-18.8,1.4-33.4c0-1.3,0-1.3-0.3-2.2
			C309.3,204.1,302.6,205.3,300.4,206.1z"/>
		<path class="st7" d="M300.4,206.1c0,6.1-0.5,12.1-1.4,18.2c-0.9,6-2.2,12-3.3,17.9l0,0.1l-0.1,0c-3.1,0.9-6.4,1.5-9.6,1.8
			c-3.3,0.3-6.5,0.3-9.8,0.1c-6.5-0.3-13-1.2-19.5-1.4l-0.1,0l0-0.1c-1.8-5.9-3.2-11.8-4.2-17.9c-1-6.1-1.4-12.2-1.4-18.3l0.1,0.2
			c-1.6-0.6-3.3-1-5-1c-1.7,0-3.4,0.2-5.1,0.6l0.2-0.2c0,13.6,1.2,27.3,3.2,40.7l0,0l0,0c0.1,0.7-0.1,1.5-0.5,2.2
			c-0.4,0.7-0.9,1.2-1.4,1.6c-1.2,0.9-2.5,1.4-3.9,1.8l0.2-0.3c0.8,2.9,0.9,5.9,0.8,8.9c-0.1,3-0.3,5.9-0.7,8.9
			c-0.7,5.9-1.8,11.8-2.9,17.6c-1.1,5.8-2.5,11.6-3.4,17.5c-0.5,2.9-0.9,5.9-1.3,8.8c-0.3,2.9-0.6,5.9-0.8,8.8
			c-0.4,5.9-0.5,11.8-0.2,17.8c0.2,5.9,0.7,11.8,1.3,17.7c1.2,11.8,2.8,23.6,4.2,35.3l-0.3-0.3c5.5,0.8,10.9,1.7,16.4,2.4
			c2.7,0.3,5.5,0.6,8.2,0.6c1.4,0,2.8,0,4-0.3c1.3-0.3,2.5-0.9,3.6-1.7c2.2-1.5,4.2-3.5,6.3-5.3c0.9-0.9,1.3-2.2,1.1-3.6
			c-0.1-1.4,0.1-2.8,0.2-4.2c0.2-2.7,0-5.5,0-8.3c0-2.8,0.4-5.6,1.1-8.3l0.3-0.9l0.4,0.9c0.8,1.8,1.1,3.8,1.3,5.8
			c0.2,2,0.2,3.9,0.2,5.8c0,3.9-0.1,7.8,0.1,11.6l-0.2-0.3c6.2,2.8,12.4,5.5,19.1,6.9c3.3,0.6,6.7,0.9,10,0.5
			c3.3-0.4,6.6-1.5,9.5-3.2l-0.1,0.2c1.7-11.7,3.2-23.4,5.1-35l1.5-8.7c0.5-2.9,0.8-5.8,0.9-8.8c0.3-5.9,0.2-11.8-0.2-17.6
			c-0.2-2.9-0.4-5.9-0.8-8.8c-0.2-1.5-0.3-2.9-0.5-4.4c-0.2-1.4-0.5-2.9-0.8-4.3c-1.3-5.7-2.8-11.4-4.1-17.2
			c-1.3-5.8-2.4-11.6-3.1-17.4c-0.7-5.9-0.9-11.8-0.3-17.7l0.1,0.2c-0.1,0-0.3-0.2-0.3-0.3c0-0.1,0-0.2,0-0.3c0-0.2,0.1-0.3,0.1-0.5
			c0.1-0.3,0.2-0.6,0.2-0.9c0-0.3,0-0.6-0.3-0.6c-0.3-0.1-0.6-0.2-0.9-0.4c-1.1-0.5-2.2-1.3-3-2.2c-0.9-0.9-1.5-2-1.8-3.2
			c-0.3-1.2-0.3-2.5-0.1-3.7c0.5-4.9,0.8-9.9,1-14.8c0.2-4.9,0.3-9.9,0.4-14.8l0.1-3.7c0-0.3-0.1-0.6-0.2-0.9
			c-0.1-0.3-0.2-0.6-0.5-0.7c-0.6-0.2-1.2-0.2-1.8-0.2c-1.2,0-2.5,0.2-3.7,0.4C302.8,205.5,301.6,205.7,300.4,206.1z M300.4,206.1
			c1.2-0.4,2.4-0.7,3.6-0.9c1.2-0.2,2.4-0.4,3.7-0.4c0.6,0,1.3,0,1.8,0.2c0.3,0.1,0.4,0.5,0.5,0.8c0.1,0.3,0.2,0.6,0.2,0.9l-0.1,3.7
			c-0.1,5-0.1,9.9-0.3,14.9c-0.1,4.9-0.4,9.9-0.9,14.8c-0.2,1.2-0.2,2.5,0.1,3.6c0.3,1.2,1,2.3,1.8,3.1c0.8,0.9,1.9,1.6,3,2.1
			c0.3,0.1,0.6,0.2,0.8,0.3c0.2,0.1,0.3,0.2,0.4,0.4c0.1,0.2,0.1,0.4,0,0.5c0,0.3-0.1,0.6-0.2,0.9c0,0.1-0.1,0.3-0.1,0.4
			c0,0.2,0,0.2,0,0.2l0.1-0.1l0,0.2c-0.6,5.9-0.3,11.8,0.3,17.6c0.7,5.8,1.8,11.6,3.1,17.4c1.3,5.7,2.8,11.4,4.1,17.2
			c0.3,1.4,0.6,2.9,0.8,4.4c0.2,1.5,0.4,2.9,0.5,4.4c0.3,2.9,0.6,5.9,0.8,8.8c0.4,5.9,0.5,11.8,0.3,17.7c-0.1,2.9-0.4,5.9-0.9,8.8
			l-1.5,8.7c-1.9,11.6-3.4,23.3-5.1,35l0,0.1l-0.1,0.1c-2.9,1.8-6.3,2.9-9.7,3.3c-3.4,0.4-6.9,0.1-10.2-0.5
			c-6.7-1.3-13-4.1-19.2-6.9l-0.2-0.1l0-0.2c-0.1-3.9-0.1-7.8-0.1-11.7c0-1.9,0-3.9-0.2-5.8c-0.2-1.9-0.5-3.8-1.3-5.5l0.6,0
			c-0.7,2.6-1.2,5.3-1.1,8.1c0,2.7,0.2,5.5,0,8.3c-0.1,1.4-0.3,2.8-0.2,4.1c0.2,1.4-0.2,3-1.3,4.1c-1.1,1-2.1,1.8-3.1,2.8
			c-1,0.9-2.1,1.8-3.3,2.6c-1.2,0.8-2.5,1.4-3.9,1.8c-1.4,0.4-2.8,0.3-4.2,0.3c-2.8,0-5.5-0.3-8.3-0.6c-5.5-0.7-10.9-1.6-16.4-2.4
			l-0.3,0l0-0.3c-1.3-11.8-2.9-23.5-4.1-35.4c-0.6-5.9-1.1-11.8-1.3-17.8c-0.2-5.9-0.1-11.9,0.3-17.8c0.2-3,0.5-5.9,0.8-8.9
			c0.4-2.9,0.8-5.9,1.3-8.8c1-5.9,2.3-11.6,3.5-17.5c1.1-5.8,2.2-11.7,2.9-17.5c0.3-2.9,0.6-5.9,0.7-8.8c0.1-2.9,0-5.9-0.8-8.8
			l-0.1-0.3l0.3-0.1c1.3-0.3,2.6-0.9,3.7-1.7c0.5-0.4,1-0.9,1.3-1.5c0.3-0.6,0.5-1.2,0.4-1.9l0,0c-2-13.5-3.2-27.1-3.2-40.8l0-0.2
			l0.2,0c1.7-0.4,3.5-0.6,5.2-0.6c1.8,0,3.5,0.4,5.1,1.1l0.1,0.1l0,0.1c0,6.1,0.5,12.2,1.4,18.2c0.9,6,2.4,12,4.1,17.8l-0.2-0.1
			c6.5,0.2,13,1.1,19.5,1.5c3.3,0.2,6.5,0.2,9.8-0.1c3.2-0.3,6.5-0.8,9.6-1.7l-0.1,0.1c1.1-6,2.4-11.9,3.3-17.9
			C299.9,218.3,300.3,212.2,300.4,206.1z"/>
	</g>
	<g>
		<path class="st8" d="M233.8,384.8c0.4,4.1,0.7,8.2,0.9,12.3c10,2,20.3,1.9,30.4,1.8c2.5,0,5-0.1,7.4-0.7c1.8-0.5,1.8-0.8,3.3-1.9
			c0-3.7-0.5-7.9-0.5-11.6c-7.3,1.1-12.3,2.2-19.7,2.3C248.3,387.3,240.8,386.4,233.8,384.8z"/>
		<path class="st9" d="M233.8,384.8c0.5,4.1,0.8,8.2,1,12.3l-0.1-0.1c3.4,0.7,6.9,1.1,10.4,1.4c3.5,0.3,7,0.4,10.4,0.4
			c3.5,0,7,0,10.5-0.1c1.7,0,3.5-0.1,5.2-0.4c0.8-0.2,1.7-0.4,2.5-0.7c0.7-0.3,1.4-1,2.1-1.5l-0.1,0.2c0-3.8-0.5-7.7-0.5-11.6
			l0.2,0.2c-3.4,0.5-6.9,1.1-10.4,1.6c-3.5,0.5-7,0.7-10.5,0.7C247.6,387.3,240.6,386.4,233.8,384.8z M233.8,384.8
			c6.8,1.4,13.8,2.2,20.8,2.2c3.5,0,7-0.3,10.4-0.8c3.5-0.5,6.9-1.1,10.3-1.6l0.2,0l0,0.3c0,3.9,0.5,7.7,0.5,11.6l0,0.1l-0.1,0.1
			c-0.7,0.5-1.3,1.1-2.2,1.5c-0.9,0.3-1.7,0.5-2.6,0.7c-1.7,0.3-3.5,0.4-5.3,0.4c-3.5,0-7,0-10.5,0c-7-0.1-14-0.5-20.8-1.9l-0.1,0
			l0-0.1C234.5,393,234.2,388.9,233.8,384.8z"/>
	</g>
	<g>
		<path class="st8" d="M318.3,384.8c0.7,4.3-1.3,8.3-2.2,12.4c-10,2-17.4,1.9-27.6,1.8c-2.5,0-5-0.1-7.4-0.7
			c-1.8-0.5-1.8-0.8-3.3-1.9c0-3.7,0.5-7.9,0.5-11.6c7.3,1.1,12.3,2.2,19.7,2.3C305.4,387.3,311.3,386.4,318.3,384.8z"/>
		<path class="st9" d="M318.3,384.8c0.4,2.1,0.1,4.2-0.5,6.3c-0.5,2.1-1.2,4.1-1.6,6.1l0,0.1l-0.1,0c-3.2,0.7-6.4,1.2-9.7,1.5
			c-3.2,0.3-6.5,0.4-9.8,0.5c-3.3,0-6.5,0-9.8,0c-1.6,0-3.3-0.1-4.9-0.4c-0.8-0.2-1.6-0.3-2.4-0.7c-0.8-0.4-1.4-1-2-1.4l-0.1-0.1
			l0-0.1c0-3.9,0.5-7.7,0.5-11.6l0-0.3l0.2,0c3.3,0.5,6.6,1.1,10,1.6c3.3,0.5,6.7,0.8,10,0.8c3.4,0.1,6.7-0.1,10.1-0.5
			C311.7,386.1,315,385.5,318.3,384.8z M318.3,384.8c-3.3,0.8-6.6,1.4-9.9,1.9c-3.3,0.5-6.7,0.6-10.1,0.6c-3.4,0-6.7-0.3-10.1-0.7
			c-3.3-0.5-6.7-1-10-1.5l0.2-0.2c0,3.9-0.5,7.7-0.5,11.6l-0.1-0.2c0.7,0.5,1.3,1.1,1.9,1.4c0.7,0.3,1.5,0.5,2.3,0.7
			c1.6,0.3,3.2,0.4,4.8,0.4c3.2,0.1,6.5,0.1,9.7,0.1c3.2,0,6.5-0.1,9.7-0.4c3.2-0.3,6.4-0.8,9.6-1.4l-0.1,0.1
			c0.5-2.1,1.2-4.1,1.8-6.1C318.3,389,318.6,386.9,318.3,384.8z"/>
	</g>
	<g>
		<path class="st4" d="M252.9,274.3c15.3-0.6,30.6-0.1,47,1.6c1.4,7.5,1.7,15.2,0.9,22.8c-0.6,5.4-1.8,11-5,15.3
			c-2.1,2.7-4.8,4.8-7.9,6.4c-5.6,2.9-12.2,3.9-18.4,2.5c-6.1-1.5-11.7-5.5-14.6-11.1c-1.5-2.9-2.3-6.1-2.8-9.3
			C250.5,293.3,250.7,283.8,252.9,274.3z"/>
		<path class="st5" d="M252.9,274.3c7.8-0.4,15.7-0.5,23.5-0.3c7.8,0.2,15.7,0.8,23.5,1.6l0.3,0l0.1,0.3c1,5.2,1.4,10.4,1.4,15.7
			c0,2.6-0.2,5.3-0.5,7.9c-0.3,2.6-0.7,5.2-1.5,7.8c-0.8,2.5-1.9,5-3.5,7.2c-1.6,2.1-3.7,3.9-6,5.3c-4.5,2.8-9.8,4.4-15.1,4.4
			c-5.3,0-10.7-1.8-14.8-5.1c-2.1-1.7-3.9-3.7-5.2-6c-1.3-2.3-2.2-4.9-2.7-7.4C250.1,295.2,250.4,284.5,252.9,274.3z M252.9,274.3
			c-2.3,10.2-2.2,20.9,0,31c0.6,2.5,1.4,5,2.8,7.2c1.3,2.2,3.1,4.1,5.1,5.7c2,1.6,4.3,2.8,6.7,3.6c2.4,0.8,5,1.2,7.6,1.2
			c5.1,0,10.3-1.5,14.6-4.3c2.2-1.4,4.1-3.1,5.7-5.1c1.5-2,2.6-4.4,3.4-6.8c0.8-2.5,1.2-5,1.5-7.6c0.3-2.6,0.5-5.2,0.5-7.8
			c0.1-5.2-0.4-10.4-1.3-15.5l0.4,0.3c-7.8-0.9-15.6-1.5-23.4-1.8C268.6,274.2,260.8,274.1,252.9,274.3z"/>
	</g>
	<path class="st10" d="M249.8,522.7c-0.6,1.4-1.1,2.9-1.7,4.3c-0.9,2.2-1.8,4.4-3.8,5.7c-0.8,0.5-1.9,0.8-2.7,0.4
		c-0.9-0.5-1.1-1.7-1.1-2.7c0-0.7,0.2-1.4,0.5-2c0.4-0.6,1-1,1.7-1c-1.2-0.5-2.6,0.3-3.5,1.3c-2.1,2.4-2.8,5.9-1.8,8.9
		c0.4,1.1,1,2.2,1.6,3.2c0.4,0.7,0.9,1.5,1.6,2c0.9,0.8,2.1,1.2,3.3,1.6c2.4,0.7,4.8,1.3,7.3,1.4s5-0.2,7.2-1.4
		c3.5-1.8,5.8-5.4,6.8-9.2c1-3.8,0.8-7.8,0.5-11.5c-0.4-2.8-0.6-5.5-0.6-8.3c-2.4,0.7-4.8,1.4-7.2,1.7c-2.5,0.3-5,0.3-7.3-0.6
		C250.9,518.9,250.5,521,249.8,522.7z"/>
	<path class="st10" d="M301,525.2c0.6,1.4,1.3,2.8,1.9,4.2c1,2.1,2,4.3,4,5.5c0.8,0.5,1.9,0.7,2.7,0.2c0.8-0.5,1-1.7,0.9-2.7
		c-0.1-0.7-0.2-1.4-0.6-2c-0.4-0.6-1.1-1-1.8-0.9c1.2-0.6,2.6,0.2,3.5,1.2c2.2,2.3,3.1,5.8,2.3,8.8c-0.3,1.1-0.9,2.2-1.4,3.3
		c-0.4,0.8-0.8,1.5-1.5,2.1c-0.9,0.9-2.1,1.3-3.3,1.7c-2.3,0.8-4.7,1.6-7.2,1.8c-2.5,0.3-5,0-7.3-1c-3.6-1.6-6.1-5.1-7.2-8.8
		c-1.2-3.7-2.5-5-2.4-8.8c0.2-2.8,2.3-8.1,2.2-10.8c2.4,0.6,4.1,1,6.6,1.2c2.5,0.2,5,0,7.3-0.9C299.7,521.4,300.2,523.5,301,525.2z"
		/>
	<path class="st11" d="M252.7,535.1c-1.8-0.7-3.7-0.8-5.6-0.6c-2.3,0.3-4.8,0.2-6.1-2.1c1.5,4.7,7.1,2.9,10.8,3.4
		c1.5,0.2,2.9,1.1,4.1,2.1C255.1,536.7,254,535.7,252.7,535.1z"/>
	<path class="st11" d="M298.9,536.4c1.8-0.7,3.7-0.8,5.6-0.6c2.3,0.3,4.8,0.2,6.1-2.1c-1.5,4.7-7.1,2.9-10.8,3.4
		c-1.5,0.2-2.9,1.1-4.1,2.1C296.5,538,297.6,537,298.9,536.4z"/>
	<path class="st11" d="M247.7,528.9c-0.2,0.1-0.4,0.2-0.5,0.3c0.3-0.1,0.6-0.1,0.9-0.1c2.2,0.2,3.9,0.8,5.6,1.6
		c1,0.5,1.7,1.4,2.5,2.2C255,529.3,251.3,527.8,247.7,528.9z"/>
	<path class="st11" d="M302.7,530.2c0.2,0.1,0.4,0.2,0.5,0.3c-0.3-0.1-0.6-0.1-0.9-0.1c-2.2,0.2-3.9,0.8-5.6,1.6
		c-1,0.5-1.7,1.4-2.5,2.2C295.4,530.5,299.1,529.1,302.7,530.2z"/>
	<path class="st11" d="M248.9,526.2c-1,0.9-0.1,0.2,0.5,0.2c3,0,5.8,1.1,7.8,3.4C255.9,526.4,252.2,524.5,248.9,526.2z"/>
	<path class="st11" d="M301.5,527.1c1,0.9,0.1,0.2-0.5,0.2c-3,0-5.8,1.1-7.8,3.4C294.5,527.3,298.1,525.4,301.5,527.1z"/>
	<path class="st11" d="M259.7,528.4c-0.7-1.1-0.9-2.4-1.7-3.4c-0.6-0.9-1.6-1.3-2.6-1.5c-0.1,0-0.2-0.1-0.2-0.1
		c-0.1,0-0.1-0.1-0.2-0.1c0.2-0.1,0.4-0.2,0.6-0.3c1.8-0.8,3.5-1.7,5.1-2.8c1.2-0.7,2.8-1.6,2.8-3.2c0.1-1.4-1.4-2.3-2.7-2.4
		c-3.7-0.1-6.3,5.1-6.4,8.5c-0.1,0-0.2-0.1-0.3-0.1c0.7-2.9,0.4-6.3-1.6-8.5c-1.5-1.3-4-2.7-6-2c-1.1,0.6-1.6,2.1-1.3,3.3
		c0.5,2,1.9,3.8,3.7,4.7c1.5,0.9,3.3,1.3,4.7,2.3c-0.4-0.1-0.8-0.1-1.2-0.1c-1.7-0.5-3.6-0.3-4.8,1.3c-0.8,0.9-1.5,2.2-2.8,2.4
		c-0.3,0.1-1.6,0.1-1.1,0.2c0.8,0.3,1.7,0.4,2.6,0c1.4-0.6,2.1-2.1,3.2-3c0.3-0.2,0.5-0.3,0.8-0.4c-0.1,0.1-0.3,0.2-0.4,0.3
		c2.6-0.8,5.6,0.7,7.8,2.4c0.2,0.6,0.4,1.1,0.6,1.7c0.6,1.8,3.2,2.9,4.4,2.9C261.6,530,260.4,529.5,259.7,528.4z M253.8,522.9
		c0-0.1-0.1-0.1-0.1-0.2c-1-1.3-2.3-1.8-3.3-2.8c-1.2-0.9-2.2-2-2.6-3.5c-0.2-0.6-0.5-1.3-0.2-1.8c0,0,0,0,0,0
		c0.5,0.1,1.2,0.3,1.8,0.5c3.3,0.9,4.3,4.6,4.6,7.7C253.9,522.9,253.8,522.9,253.8,522.9z M254.5,523.1c0.8-2.4,4.1-7.4,6.7-6.4
		c0,0,0,0,0,0c0,0,0,0,0.1,0.1c0.1,0,0.2,0.1,0.3,0.1c0,0.1,0.1,0.1,0.1,0.2c-0.1,0.7-0.8,1-1.2,1.4c-0.9,0.7-1.7,1.6-2.6,2.3
		c-0.9,0.8-2,1.5-2.9,2.5C254.8,523.2,254.6,523.1,254.5,523.1z"/>
	<path class="st11" d="M290.5,528.7c0.7-1.1,0.9-2.4,1.7-3.4c0.6-0.9,1.6-1.3,2.6-1.5c0.1,0,0.2-0.1,0.2-0.1c0.1,0,0.1-0.1,0.2-0.1
		c-0.2-0.1-0.4-0.2-0.6-0.3c-1.8-0.8-3.5-1.7-5.1-2.8c-1.2-0.7-2.8-1.6-2.8-3.2c-0.1-1.4,1.4-2.3,2.7-2.4c3.7-0.1,6.3,5.1,6.4,8.5
		c0.1,0,0.2-0.1,0.3-0.1c-0.7-2.9-0.4-6.3,1.6-8.5c1.5-1.3,4-2.7,6-2c1.1,0.6,1.6,2.1,1.3,3.3c-0.5,2-1.9,3.8-3.7,4.7
		c-1.5,0.9-3.3,1.3-4.7,2.3c0.4-0.1,0.8-0.1,1.2-0.1c1.7-0.5,3.6-0.3,4.8,1.3c0.8,0.9,1.5,2.2,2.8,2.4c0.3,0.1,1.6,0.1,1.1,0.2
		c-0.8,0.3-1.7,0.4-2.6,0c-1.4-0.6-2.1-2.1-3.2-3c-0.3-0.2-0.5-0.3-0.8-0.4c0.1,0.1,0.3,0.2,0.4,0.3c-2.6-0.8-5.6,0.7-7.8,2.4
		c-0.2,0.6-0.4,1.1-0.6,1.7c-0.6,1.8-3.2,2.9-4.4,2.9C288.6,530.3,289.8,529.8,290.5,528.7z M296.5,523.2c0-0.1,0.1-0.1,0.1-0.2
		c1-1.3,2.3-1.8,3.3-2.8c1.2-0.9,2.2-2,2.6-3.5c0.2-0.6,0.5-1.3,0.2-1.8c0,0,0,0,0,0c-0.5,0.1-1.2,0.3-1.8,0.5
		c-3.3,0.9-4.3,4.6-4.6,7.7C296.3,523.2,296.4,523.2,296.5,523.2z M295.7,523.4c-0.8-2.4-4.1-7.4-6.7-6.4c0,0,0,0,0,0
		c0,0,0,0-0.1,0.1c-0.1,0-0.2,0.1-0.3,0.1c0,0.1-0.1,0.1-0.1,0.2c0.1,0.7,0.8,1,1.2,1.4c0.9,0.7,1.7,1.6,2.6,2.3
		c0.9,0.8,2,1.5,2.9,2.5C295.5,523.5,295.6,523.4,295.7,523.4z"/>
	<path class="st12" d="M275.5,290.1c0.9-1.3,1.8-2.7,2.3-4.3C276.5,287,275.7,288.5,275.5,290.1z"/>
	<path class="st12" d="M280.2,284.5c2-0.6,3.9-1.6,6-1.4C284.2,281.8,281.7,282.9,280.2,284.5z"/>
	<path class="st12" d="M289.5,285.2c0.9,1.7,2,3.4,2.6,5.2C292.5,288.3,291.2,286.3,289.5,285.2z"/>
	<path class="st12" d="M290.1,297.8c1.4-1.4,1.9-3.3,2-5.2C291.1,294.2,290.6,296,290.1,297.8z"/>
	<path class="st12" d="M283.2,305.6c2.6-1.4,4.5-3.8,5.8-6.5C286.4,301,284.9,303,283.2,305.6z"/>
	<path class="st12" d="M276.5,310.5c-0.5,0.5,0,0.1,0.3,0c2-1,3.8-2.4,5.3-4C280,307.2,277.9,308.6,276.5,310.5z"/>
	<path class="st12" d="M272.6,285.6c0.3,1.4,1.1,2.7,1.9,3.9C274.3,288,273.6,286.7,272.6,285.6z"/>
	<path class="st12" d="M265.7,281.7c1.7,0.9,3.4,1.8,5.1,2.6C269.7,282.7,267.7,281.6,265.7,281.7z"/>
	<path class="st12" d="M258.6,284.7c0.7-0.5,1.2-1.3,2-1.7c0.8-0.5,1.8-0.7,2.7-0.8C260.9,281.3,259.4,282.4,258.6,284.7z"/>
	<path class="st12" d="M258.2,286.3c-1,2.1-1.4,4.8,0.4,6.5C257.8,290.7,258.3,288.5,258.2,286.3z"/>
	<path class="st12" d="M260.3,294.8c0.8,2.2,2.1,4.2,4,5.6C263.3,298.3,262,296.3,260.3,294.8z"/>
	<path class="st12" d="M266.1,302c0.3,1.2,1.1,2.2,2,3C267.6,303.8,267,302.9,266.1,302z"/>
	<path class="st12" d="M270.1,307c0.9,1.6,2.3,2.6,3.7,3.7C273.1,309,271.6,307.9,270.1,307z"/>
	<path class="st12" d="M275.3,311.6"/>
	<path class="st13" d="M276.7,348.3c-1,6.3-0.7,12.8-0.7,19.1c0.5-1.9,0.8-3.5,1.1-5.2C277.6,357.6,277.2,352.9,276.7,348.3z"/>
	<path class="st13" d="M245.9,317c0.1,1.7,0,3.6-0.1,5.2c-0.2,0.8-0.6,1.6-0.8,2.4c-0.3,1.1-0.4,1.9-0.9,2.6c-0.7,0.9-1.5,2.5-1.9,3
		c-1.3,1.5-1.5,2.1-3,3.3c-0.4,0.4-0.7,0.9-1.1,1.2c-0.4,0.3-1.1,0.8-1.5,1.2c-0.6,0.4-0.9,0.5-1.5,1c-0.6,0.4-1.7,1-2,1.2
		c0.4-0.1,0.9-0.3,1.3-0.4c0.6-0.2,1.2-0.6,1.8-0.9c0.9-0.3,1.5-0.9,2.4-1.3c0.9-0.6,1.2-1.2,1.9-1.6c1.1-0.8,1.8-1.9,2.8-2.8
		c0.8-1,1.3-2.2,2.1-3.3c0.8-1.6,0.8-3.4,1.3-5C246.7,320.8,246.3,318.9,245.9,317z"/>
	<path class="st13" d="M307.2,319c-0.1,1.7,0,3.6,0.1,5.2c0.2,0.8,0.6,1.6,0.8,2.4c0.3,1.1,0.4,1.9,0.9,2.6c0.7,0.9,1.5,2.5,1.9,3
		c1.3,1.5,1.5,2.1,3,3.3c0.4,0.4,0.7,0.9,1.1,1.2c0.4,0.3,1.1,0.8,1.5,1.2c0.6,0.4,0.9,0.5,1.5,1c0.6,0.4,1.7,1,2,1.2
		c-0.4-0.1-0.9-0.3-1.3-0.4c-0.6-0.2-1.2-0.6-1.8-0.9c-0.9-0.3-1.5-0.9-2.4-1.3c-0.9-0.6-1.2-1.2-1.9-1.6c-1.1-0.8-1.8-1.9-2.8-2.8
		c-0.8-1-1.3-2.2-2.1-3.3c-0.8-1.6-0.8-3.4-1.3-5C306.5,322.9,306.9,320.9,307.2,319z"/>
	<g>
		<g>
			<path class="st14" d="M301.6,246.6c0.7-0.2,1.4-0.1,2.1,0.3c0.6,0.4,1.1,0.9,1.5,1.5c0.7,1.2,1.2,2.7,0.8,4
				c-0.3,1.2-1.1,2.1-2.1,2.9c-0.5,0.4-1.1,0.8-1.8,1c-1.3,0.4-2.9,0.2-4.1-0.6c-1.2-0.8-1.9-2.2-2-3.6c-0.2-1.5,0.4-3.1,1.5-4.2
				C298.6,246.8,300.2,246.3,301.6,246.6z"/>
			<path class="st15" d="M301.6,246.6c0.6-0.2,1.4-0.1,2,0.2c0.6,0.3,1.1,0.8,1.5,1.4c0.8,1.1,1.3,2.4,1.1,3.8
				c-0.1,1.4-1.1,2.6-2.1,3.4c-0.5,0.4-1.1,0.8-1.8,1.1c-0.7,0.3-1.4,0.4-2.1,0.3c-1.4-0.1-2.7-0.9-3.5-2c-0.8-1.1-1.2-2.6-1-3.9
				c0.2-1.4,0.9-2.6,2-3.5C298.9,246.6,300.3,246.3,301.6,246.6z M301.6,246.6c-1.3-0.2-2.7,0.2-3.7,1c-1,0.8-1.6,2-1.8,3.3
				c-0.2,1.3,0.2,2.6,1,3.6c0.8,1,2,1.7,3.2,1.8c1.3,0.1,2.5-0.4,3.5-1.2c1-0.8,1.8-1.9,2-3.1c0.2-1.3-0.3-2.6-1-3.7
				c-0.3-0.5-0.8-1.1-1.3-1.4C303,246.5,302.3,246.4,301.6,246.6z"/>
		</g>
		<path class="st16" d="M298,248.9c0.7-0.7,1.7-1.1,2.8-1.1c1,0,2.1,0.5,2.8,1.2c0.4,0.5,0.7,1.1,1,1.7c0.2,0.4,0.3,0.9,0.3,1.3
			c0,1.1-0.6,2.2-1.5,2.8s-2.2,0.7-3.2,0.3c-1.1-0.4-1.9-1.2-2.4-2.2c-0.3-0.5-0.4-1.1-0.4-1.7c0-0.8,0.4-1.5,0.7-2.1
			C298,248.9,298.1,248.7,298,248.9z"/>
		<path class="st17" d="M302.5,250.4c0.1,0.2,0.1,0.5,0,0.7c-0.2,0.2-0.5,0.2-0.7,0c-0.2-0.2-0.2-0.5,0-0.7
			C302.1,250.3,302.4,250.2,302.5,250.4z"/>
		<path class="st17" d="M299.4,249.8c0.2,0,0.4,0.1,0.5,0.3c0.1,0.2,0,0.4-0.1,0.6c-0.2,0.2-0.6,0.1-0.7-0.2
			C298.9,250.2,299.3,249.9,299.4,249.8z"/>
		<path class="st17" d="M302.3,253c-0.1,0.3-0.2,0.6-0.4,0.9c-0.3-0.1-0.5-0.4-0.5-0.7s0.3-0.6,0.6-0.6
			C302.3,252.5,302.5,252.9,302.3,253z"/>
		<path class="st17" d="M299.6,252.4c0.2,0,0.3,0,0.4,0.2c0,0.3-0.3,0.6-0.6,0.6c-0.3-0.1-0.5-0.5-0.3-0.8
			C299.3,252.1,299.8,252.1,299.6,252.4z"/>
	</g>
	<g>
		<g>
			<path class="st14" d="M252.3,246.6c0.7-0.2,1.4-0.1,2.1,0.3s1.1,0.9,1.5,1.5c0.7,1.2,1.2,2.7,0.8,4c-0.3,1.2-1.1,2.1-2.1,2.9
				c-0.5,0.4-1.1,0.8-1.8,1c-1.3,0.4-2.9,0.2-4.1-0.6c-1.2-0.8-1.9-2.2-2-3.6c-0.2-1.5,0.4-3.1,1.5-4.2
				C249.2,246.8,250.9,246.3,252.3,246.6z"/>
			<path class="st15" d="M252.3,246.6c0.6-0.2,1.4-0.1,2,0.2c0.6,0.3,1.1,0.8,1.5,1.4c0.8,1.1,1.3,2.4,1.1,3.8
				c-0.1,1.4-1.1,2.6-2.1,3.4c-0.5,0.4-1.1,0.8-1.8,1.1c-0.7,0.3-1.4,0.4-2.1,0.3c-1.4-0.1-2.7-0.9-3.5-2c-0.8-1.1-1.2-2.6-1-3.9
				c0.2-1.4,0.9-2.6,2-3.5C249.6,246.6,251,246.3,252.3,246.6z M252.3,246.6c-1.3-0.2-2.7,0.2-3.7,1c-1,0.8-1.6,2-1.8,3.3
				c-0.2,1.3,0.2,2.6,1,3.6c0.8,1,2,1.7,3.2,1.8c1.3,0.1,2.5-0.4,3.5-1.2c1-0.8,1.8-1.9,2-3.1c0.2-1.3-0.3-2.6-1-3.7
				c-0.3-0.5-0.8-1.1-1.3-1.4C253.6,246.5,252.9,246.4,252.3,246.6z"/>
		</g>
		<path class="st16" d="M248.6,248.9c0.7-0.7,1.7-1.1,2.8-1.1c1,0,2.1,0.5,2.8,1.2c0.4,0.5,0.7,1.1,1,1.7c0.2,0.4,0.3,0.9,0.3,1.3
			c0,1.1-0.6,2.2-1.5,2.8c-0.9,0.6-2.2,0.7-3.2,0.3c-1.1-0.4-1.9-1.2-2.4-2.2c-0.3-0.5-0.4-1.1-0.4-1.7c0-0.8,0.4-1.5,0.7-2.1
			C248.6,248.9,248.8,248.7,248.6,248.9z"/>
		<path class="st17" d="M253.2,250.4c0.1,0.2,0.1,0.5,0,0.7c-0.2,0.2-0.5,0.2-0.7,0c-0.2-0.2-0.2-0.5,0-0.7S253.1,250.2,253.2,250.4
			z"/>
		<path class="st17" d="M250,249.8c0.2,0,0.4,0.1,0.5,0.3c0.1,0.2,0,0.4-0.1,0.6c-0.2,0.2-0.6,0.1-0.7-0.2
			C249.6,250.2,249.9,249.9,250,249.8z"/>
		<path class="st17" d="M252.9,253c-0.1,0.3-0.2,0.6-0.4,0.9c-0.3-0.1-0.5-0.4-0.5-0.7s0.3-0.6,0.6-0.6
			C252.9,252.5,253.2,252.9,252.9,253z"/>
		<path class="st17" d="M250.3,252.4c0.2,0,0.3,0,0.4,0.2c0,0.3-0.3,0.6-0.6,0.6s-0.5-0.5-0.3-0.8
			C250,252.1,250.5,252.1,250.3,252.4z"/>
	</g>
</g>
</svg>
