<svg id="Scene" xmlns="http://www.w3.org/2000/svg" width="1500" height="800" viewBox="0 0 623.62 340.16"><defs><style>.cls-1{fill:#e62a73;}.cls-2{fill:#f4a2a1;}.cls-3{fill:#e6afb6;}.cls-4{fill:none;}.cls-5{fill:#fff;}</style></defs><path class="cls-1" d="M440.51,221.59a2.67,2.67,0,0,0-.88-.57A2.67,2.67,0,0,1,440.51,221.59Z"/><path class="cls-1" d="M193.85,83.86a160.72,160.72,0,0,0,3.92,28.26,6.06,6.06,0,0,0,5.3,4.95c4,.65,7.93.4,10.27-3.54a13.82,13.82,0,0,0,1.49-10.44c-1.05-4.84-.63-12.56,6.92-8.44a4.56,4.56,0,0,1,2.46,3.94c-.08,2.58-1.5,4.7-1.5,7.33a29.2,29.2,0,0,0,2.69,11.24c2.09,4.49,7.2,5,10.58,2.76s4.57-5.49,5.39-9c4.41-19.14,5.25-39.82,5-59.42a16.26,16.26,0,0,0-4.57-11,8.17,8.17,0,0,0-8.18-2.62c-4.62,1.19-7.15,4.75-8.9,8.93-1.64,3.93-1.93,8.08-2,12.28-.06,3,1.8,22.46-5.47,17.62a6.37,6.37,0,0,1-2.38-5.77c.45-6.73,4.32-12.25,3.82-19.3s-5.57-16.53-13.1-18C202.62,33,199,35.08,197,38.16a25,25,0,0,0-3.64,13.2C193.28,61.89,193.2,72.93,193.85,83.86Z"/><path class="cls-1" d="M150.55,138.41a66.42,66.42,0,0,0,10.85-3.62c5.7-2.54,10-6.81,13.62-11.87l.57-.94c.33-.6.7-1.2,1-1.82,2.32-4.55,3.8-9.32,3.22-14.49-.71-6.3-4.86-10.77-11.77-10.17-4.23.37-7.83,2.43-11.43,4.49-2.92,1.67-5.81,3.47-9.31,3.67-8.51.51-6.76-14.7-.59-17.27,6.9-2.88,12.24,3.91,19.24,3.52,5.63-.32,12-2.35,13.76-8.38,1.59-5.54-.52-13.34-3.7-18-4.65-6.75-10.81-10.92-19.35-10.71A34.84,34.84,0,0,0,136.26,60c-2.64,2-4.81,4.61-7.18,6.95l-2.27,2.73c-.12.16-.25.32-.37.49-.69.92-1.45,1.8-2.06,2.77a59.36,59.36,0,0,0-9,26.24c-.83,8.75-.36,17.35,3.66,25.35a25.61,25.61,0,0,0,17.58,14.06A29,29,0,0,0,150.55,138.41Z"/><path class="cls-1" d="M156.26,107.69a6,6,0,0,0,2.85-3l-11.41,3.45,11.4-3.45A6,6,0,0,1,156.26,107.69Z"/><path class="cls-2" d="M141.7,104.23l2.59.83c.78.21,1.5.41,2.23.58l2.25.48,2.69.42a4.22,4.22,0,0,1-2.5,1.8,6.06,6.06,0,0,1-5.83-1.38A4.28,4.28,0,0,1,141.7,104.23Z"/><path class="cls-1" d="M395.44,119.56c3.09,1.6,8.28,3.91,11,.56,1.62-2,1.82-4.78,1.65-7.35a1.64,1.64,0,0,1,.22-1.2c.5-.59,1.46-.19,2.07.28,3.1,2.36,5.42,5.56,8,8.45,4.72,5.24,8.11,6.52,14.79,5,3.53-.8,5.79-3.22,5.09-6.75a13,13,0,0,0-2.45-4.55c-2-2.82-4.17-5.52-6.4-8.44,5.84-1.94,9.71-5.69,12.68-10.5.31-.82.62-1.64.92-2.46a21.64,21.64,0,0,0,2.2-11.52l.09-3a42.7,42.7,0,0,0-4.72-15.78C437.36,56,432.79,51,426.23,48a51.48,51.48,0,0,0-12-3.72c-7.65-1.41-15.05,1.42-16.75,10-1.21,6.18-2.21,12.42-3,18.67-1,7.82-1.91,15.67-2.59,23.53-.44,5.16-.48,10.35-.58,15.53C391.23,115.31,392.46,118,395.44,119.56Zm17.07-46c3.14-.6,5.82.78,8.21,2.68.69.55,1.56.92,1.3,1.85-.34,1.24-.39,2.68-1.16,3.77-1.24,1.74-3.67,2-5.81,2.19l-2,.13c-.53,0-1.32.32-1.52-.23a6.72,6.72,0,0,1,.19-2L411.9,80C412,79.43,412.24,73.56,412.51,73.51Z"/><path class="cls-2" d="M425.89,99.73a20.56,20.56,0,0,0,4.8-1.72,15.37,15.37,0,0,0,3.77-2.75,15.69,15.69,0,0,0,2.7-3.81,21.08,21.08,0,0,0,1.67-4.81,8.62,8.62,0,0,1,.44,5.55,10.53,10.53,0,0,1-7.83,7.91A8.63,8.63,0,0,1,425.89,99.73Z"/><path class="cls-1" d="M330.7,112.25c3.77,2.79,9.11,3.08,11.31-2.24,1.06-2.54,1.11-5.37,1.14-8.12a2.59,2.59,0,0,1,3.15,1,8.71,8.71,0,0,1,1.17,3.4c2.28,10.52,10.44,13.91,20.73,11.59,3.51-.79,5.75-3.19,5.06-6.69a12.93,12.93,0,0,0-2.43-4.52c-2-2.8-4.14-5.48-6.35-8.38,5.79-1.92,9.63-5.65,12.58-10.43.3-.81.61-1.62.92-2.43A21.64,21.64,0,0,0,380.16,74c0-1,0-2,.08-3a42.35,42.35,0,0,0-4.68-15.66c-3.21-6.21-7.75-11.17-14.26-14.12a50.25,50.25,0,0,0-11.9-3.69c-7.59-1.41-14.94,1.4-16.62,10-1.21,6.14-2.19,12.33-3,18.53-1,7.77-1.89,15.56-2.56,23.36-.44,5.12-.47,10.27-.58,15.41A9.41,9.41,0,0,0,330.7,112.25Zm18.52-45.93a11.22,11.22,0,0,1,6.55,1.15,4.16,4.16,0,0,1,2.14,2.37,6.54,6.54,0,0,1-.07,4.1c-.34,1.06-1.73,1.83-2.71,2.27a13.89,13.89,0,0,1-4.63,1c-.38,0-2,.33-2.28.08s.16-2.11.2-2.51l.42-4.49A33.24,33.24,0,0,1,349.22,66.32Z"/><path class="cls-1" d="M269.32,105c4.51,6.12,11.12,7.49,18,7.56,5.18.06,10.37-.89,15.55-1.39l3.46-2.29a35.58,35.58,0,0,0,2.37-3.12c2.17-3.5,1.73-7.32,1.27-11.16-1.06-8.91-11.59-2.74-15.74-6.14a2.65,2.65,0,0,1-.52-3.62c1.07-1.22,3-.82,4.6-.42,2.8.71,6,1,8.37-.67a7.75,7.75,0,0,0,2.92-6.29,9.12,9.12,0,0,0-2.1-6.06,6.94,6.94,0,0,0-5.84-2.41,21.5,21.5,0,0,0-4.5,1.46,5.34,5.34,0,0,1-4.59-.12c-3.55-2.29.66-5.38,3.29-5.12,7.19.7,15.55,1,17.9-6.49,2.22-7-2.17-15.56-7.93-19.36-6.93-4.59-15.05-5.7-23.19-6-4.43-.16-8.57,1.43-12.56,3.23C264.6,39,261,43.2,260.17,49.14a73.06,73.06,0,0,0-.76,15.76c.71,8.62,2,17.22,3.51,25.74A34.51,34.51,0,0,0,269.32,105Z"/><path class="cls-1" d="M519.68,64c-4.62-1.3-9.35-1.27-13.72,1.37s-7.39,6.86-10.07,11.18c-2.05,3.32-4,6.73-6.2,10.55a19,19,0,0,1-.59-2c-.83-4.92-2.37-9.6-5.78-13.29-4.89-5.29-10.75-8.38-18.2-6-9,2.88-8.15,12.41-5,19.59,3.87,8.93,14.44,18.57,15,28.47.46,7.62-4.28,13.91-2.75,21.87,1.59,8.26,7.11,7.35,13.74,5.3a10.74,10.74,0,0,0,6.43-4.87,34.87,34.87,0,0,0,4.57-17.91,22.55,22.55,0,0,1,5.25-14.59c5.22-6.48,10.71-12.75,15.7-19.39a48.55,48.55,0,0,0,5.69-10.55C525.5,69.45,523.71,65.08,519.68,64Z"/><path class="cls-3" d="M365.84,183.49l0,.08v-.07h0Z"/><path class="cls-1" d="M342.1,174.32c-.9-5-2.07-9.83-3.16-14.73-.79-3.54-1.51-7.13-2.52-10.57-1.4-4.76-3.84-11.39-9-13-5.52-1.75-11.58,2.53-14.13,7.16-2.74,5-3.82,10.34-4.91,15.72-.41,2-.78,4-1.25,6.5-.44-.77-.65-1.06-.79-1.4-2.21-5.43-4.33-10.93-6.64-16.3-1.77-4.14-3.69-8.21-6.74-11.3-5.09-5.15-12.93-3.19-15.68,5.46-2.21,6.93-3.14,14-4.16,21.05-.74,5.12-1.22,10.24-1.8,15.37-.54,4.78-1.25,9.57-1.55,14.34a19.94,19.94,0,0,0,2.36,11.52c2.41,4.06,6,6.17,10.28,7.5,11.25,3.53,11.47-9.86,12.92-17a8.45,8.45,0,0,1,1.22-3.42c1.86,1.57,2.19,4.25,2.79,6.61.81,3.24,2.47,6.41,5.27,8.22s6.88,1.85,9.23-.51c2.61-2.64,1.58-16,6.48-15.14,1.84,10.64,3.65,31.17,19.59,20.55,4.39-2.72,7-7.25,6.25-12.37C345,190.4,343.56,182.35,342.1,174.32Zm-48.59,21.5c-.06.14-.12.27-.17.41.05-.14.11-.27.17-.41Zm38.82-55.73v0l0-.07h0Z"/><path class="cls-1" d="M293.51,195.82h0c-.06.14-.12.27-.17.41C293.39,196.09,293.45,196,293.51,195.82Z"/><path class="cls-2" d="M312.75,152.33a8.89,8.89,0,0,1-.07-5.54,10.89,10.89,0,0,1,8.05-7.61,8.89,8.89,0,0,1,5.52.38,22.87,22.87,0,0,0-4.79,1.73,16.69,16.69,0,0,0-3.83,2.67,17.26,17.26,0,0,0-2.9,3.68A22.81,22.81,0,0,0,312.75,152.33Z"/><path class="cls-2" d="M278.85,145.58a5.32,5.32,0,0,1,6.83-6.46,8.72,8.72,0,0,0-6.83,6.46Z"/><path class="cls-1" d="M207.8,176.71a14.15,14.15,0,0,0,.4-16.39,25,25,0,0,0-9.07-8.19,33.68,33.68,0,0,0-14-4.09,29.13,29.13,0,0,0-15.3,2.85,4.76,4.76,0,0,0-2.42,2.73,30.66,30.66,0,0,0-.71,7c0,4,.23,8,.31,11.95.13,5.52.17,11.05.32,16.57.2,7.14.48,14.28.72,21.42a4.42,4.42,0,0,0,4.51,4.11c1.13-.06,2.27,0,3.41,0a41.07,41.07,0,0,0,5.42-.41c1.71-.21,3.47-.41,5.17-.79a6.94,6.94,0,0,1,1.18-.27,5,5,0,0,0,.86,0c.88-.2,1.76-.43,2.63-.69,1.35-.37,2.69-.78,4-1.23a25.67,25.67,0,0,0,11-7.06c3.77-4.18,4.66-9.42,1.78-14.07a13.35,13.35,0,0,0-3.16-3.42,6.12,6.12,0,0,0-1.67-1.1,8,8,0,0,1-3-1.47c.45-.36.91-.7,1.37-1.05l.26-.2A33.76,33.76,0,0,0,207.8,176.71Zm-6.59,8.22a2.47,2.47,0,0,1,.19,1,2.47,2.47,0,0,0-.19-1Zm-18-11.61c.06-1.34-.22-2.7-.18-4,0-.42.58-1.18.86-1.16,2.14.14,4.42.07,6.36.81,1.08.41,1.83,2.19,2.28,3.5.18.54-.66,1.81-1.35,2.18a33.09,33.09,0,0,1-4.65,1.72C184.08,176.31,183.06,176.94,183.23,173.32Zm0,23c.06-1.26-.2-2.53-.16-3.79,0-.39.54-1.1.8-1.09,2,.13,4.13.07,6,.76,1,.39,1.72,2.05,2.13,3.28.18.5-.61,1.69-1.25,2a32.44,32.44,0,0,1-4.36,1.61C184,199.07,183.05,199.67,183.21,196.28Z"/><path class="cls-1" d="M199.69,124.71a1.09,1.09,0,0,0,.46-.12l4.81-2.25-.85,5.34a32.82,32.82,0,0,1,7.07.34l-2.78,3.2a2.73,2.73,0,0,0-.52.78,2.56,2.56,0,0,0,0,1.17l.83,6.75a34,34,0,0,0-5-3.59,39.76,39.76,0,0,0-1.19,6.41,17.47,17.47,0,0,1-2.79-6.35,24.3,24.3,0,0,1-5,4l.3-5.78a1.55,1.55,0,0,0-.24-1.13,1.45,1.45,0,0,0-.74-.37c-1.48-.42-3-.73-4.47-1.08,2.22-.83,6.08-1.58,6.8-4.18.57-2.07-1.21-4.44-.63-6.69C196.67,121.91,198.46,124.62,199.69,124.71Z"/><path class="cls-1" d="M262.51,175.17l-.81-1.54c-.35-1.06-.69-2.11-1-3.17.34,1.06.68,2.11,1,3.17Z"/><path class="cls-1" d="M262.53,171.5l.23-.18a2.11,2.11,0,0,0-.23.19,13.68,13.68,0,0,0-.91-2.57A13.84,13.84,0,0,1,262.53,171.5Z"/><path class="cls-2" d="M230.3,149.91c.33.92-.47,1-1,1.35-1.27.78-2.58,1.52-3.77,2.4a2.06,2.06,0,0,0-.66,2.45,44.16,44.16,0,0,1,1.17,4.38,1.62,1.62,0,0,1-.37,1.28c-7.65,6.74-10,15.27-8.41,25.07A24.19,24.19,0,0,0,227,203.27a23.3,23.3,0,0,0,8.15,3.67,27.74,27.74,0,0,0,10.34.47A19,19,0,0,0,258,200.23c6.48-7.87,9.67-18,6.79-28a21.77,21.77,0,0,0-5-8.18,17.81,17.81,0,0,0-8.39-4.91c-2.6-.69-5.31-1-8-1.57a1.49,1.49,0,0,1-1-.75c-.61-1.84-1.08-6.82-3.52-7a31.41,31.41,0,0,0-3.36-.08c-.78,0-1.55.1-2,.13a85.15,85.15,0,0,0-3.7-8c-2.78-4.69-7.34-5.52-12.11-3.33-3.08,1.42-6.27,2.05-9.5.46a10,10,0,0,1-4.23-4.2c-.25-.45-.41-1-.79-1.31a2.6,2.6,0,0,0-1.73-.62c-.32.06-.78,1.12-.63,1.53a13.26,13.26,0,0,0,1.86,3.63,11.53,11.53,0,0,0,11.24,4.64,21.25,21.25,0,0,0,5.18-1.59c4.7-2,7.16,0,9,3.33A42.35,42.35,0,0,1,230.3,149.91Z"/><path class="cls-1" d="M241.77,153.76a3,3,0,0,0-.38-.61h0A3,3,0,0,1,241.77,153.76Z"/><path class="cls-1" d="M256.28,163a15.59,15.59,0,0,1,2.15,1.67,14.32,14.32,0,0,1,1.79,1.95,13.09,13.09,0,0,1,1.38,2.27l0,0a13.68,13.68,0,0,1,.91,2.57,4.88,4.88,0,0,1,.18,3.75.25.25,0,0,1-.2-.09l-.81-1.54c-.35-1.06-.69-2.11-1-3.17l-.22-.49h0v0l-.05-.06-.15-.2a15.42,15.42,0,0,0-6.8-6.57l-.42-.21-.73-.34-.57-.24-.9-.34c-.91-.33-1.85-.61-2.82-.86-1.34-.34-2.69-.64-4-1a1.26,1.26,0,0,1,.85-.34A19.76,19.76,0,0,1,256.28,163Z"/><path class="cls-1" d="M226.76,194.18c1.68,4.39,4.72,7,8.49,8.94C230.51,203.46,226,198.82,226.76,194.18Z"/><path class="cls-4" d="M425.47,235.8a8.57,8.57,0,0,0-2,1.8c-.11.14.55.88,1.2,1.88a25.76,25.76,0,0,0,1.9-2.74C426.59,236.63,425.59,235.72,425.47,235.8Z"/><path class="cls-1" d="M458.57,154.7a22.14,22.14,0,0,0-2.78-8.26c-5.22-8.71-17.47-7.95-20.73,3.07-3.45,11.64-4.34,24.24-5.47,36.55-1,10.82-3.46,23.61-.32,34.14,1.25,4.21,4.7,6,7.74,3.86,4.44-3.13,7.28-8.35,9.34-14.08,3-8.5,5.72-17.27,8.25-26.09C456.9,175.85,460,164.31,458.57,154.7Zm-26.51,19.14a2.82,2.82,0,0,1,.95.82A2.82,2.82,0,0,0,432.06,173.84Z"/><path class="cls-1" d="M428.32,234.21a1.23,1.23,0,0,0,.55-.15l5.77-2.7-1,6.41a38.82,38.82,0,0,1,8.48.41L438.77,242a2.82,2.82,0,0,0-.62.92,3,3,0,0,0,0,1.41l1,8.09a41.08,41.08,0,0,0-6-4.3,47.76,47.76,0,0,0-1.42,7.69,20.76,20.76,0,0,1-3.35-7.62,29.77,29.77,0,0,1-6,4.83l.36-6.94a1.84,1.84,0,0,0-.29-1.35,1.76,1.76,0,0,0-.89-.45c-1.77-.5-3.58-.87-5.36-1.29,2.67-1,7.29-1.89,8.16-5,.69-2.49-1.45-5.32-.76-8C424.69,230.84,426.84,234.09,428.32,234.21Z"/><path class="cls-2" d="M253.61,129.27c-1.05-2.83-4.42-3.9-7.35-4.61a2.05,2.05,0,0,0-1.2,0,1.9,1.9,0,0,0-.91,1.57c-.64,4.33,1.43,8.7,4.46,11.86s6.92,5.31,10.75,7.42A68.78,68.78,0,0,0,264,129a11,11,0,0,0-.33-6.06c-.82-1.87-3-3.31-4.92-2.62-3.14,1.12-2.77,6.09-5.47,8"/><path class="cls-2" d="M111.08,94.34c-2.15-2.87-6.36-2.94-9.94-2.74a2.34,2.34,0,0,0-1.38.36,2.23,2.23,0,0,0-.5,2.09c.74,5.15,4.59,9.43,9.11,12s9.69,3.7,14.77,4.79a81.53,81.53,0,0,0-.37-20.29c-.34-2.42-.85-4.93-2.43-6.79s-4.54-2.75-6.5-1.31c-3.2,2.34-1.09,7.88-3.49,11"/><path class="cls-2" d="M459.48,177.65c.75-3.52-2-6.73-4.45-9.31a2.4,2.4,0,0,0-1.18-.8,2.22,2.22,0,0,0-1.91,1c-3.4,3.94-4.09,9.65-3.06,14.74s3.57,9.74,6.09,14.29A81.82,81.82,0,0,0,470,184c1.59-1.84,3.15-3.88,3.52-6.29s-.9-5.23-3.28-5.76c-3.86-.87-6.65,4.35-10.61,4.61"/><path class="cls-2" d="M194.77,69.06c1.19,1.59.47,4.26,2,5.45a4,4,0,0,0,2.35.59,5.24,5.24,0,0,1,2.39.42,1.64,1.64,0,0,1,.84,2c-.47.88-1.71.81-2.65,1.14a1,1,0,0,0-.52.35,1,1,0,0,0-.1.65,16.89,16.89,0,0,0,1.13,3.17c.34,1.07.21,2.48-.79,3s-2.32-.3-2.93-1.31A28.88,28.88,0,0,0,195,81.41l-1.8,4.26a1.79,1.79,0,0,1-.41.69c-.67.65-1.88,0-2.14-.91a5.43,5.43,0,0,1,.31-2.74,2.83,2.83,0,0,0-.36-2.65,4.65,4.65,0,0,0-1.76-.85c-1.19-.46-3.38-2.08-1.84-3.32.91-.74,2.38-.46,3.31-1.36C191.37,73.48,192.52,66,194.77,69.06Z"/><path class="cls-2" d="M338.61,139.52c.54,1.91-1.08,4.15,0,5.83a4,4,0,0,0,2,1.38,5.22,5.22,0,0,1,2.09,1.25,1.63,1.63,0,0,1,0,2.21c-.74.66-1.89.15-2.88.13a1,1,0,0,0-.61.14,1,1,0,0,0-.32.57,17.11,17.11,0,0,0-.08,3.36c-.06,1.12-.68,2.4-1.8,2.52s-2.06-1.11-2.26-2.27a29.23,29.23,0,0,0-.36-3.5l-3.19,3.34a1.94,1.94,0,0,1-.63.51c-.86.36-1.75-.69-1.68-1.62a5.43,5.43,0,0,1,1.26-2.45,2.84,2.84,0,0,0,.61-2.61,4.6,4.6,0,0,0-1.34-1.41c-.94-.86-2.43-3.15-.54-3.77,1.12-.36,2.39.42,3.58-.09C333.85,142.45,337.58,135.88,338.61,139.52Z"/><path class="cls-2" d="M374.55,42.27c.7,2.48-1.4,5.38,0,7.56a5.26,5.26,0,0,0,2.58,1.8,6.71,6.71,0,0,1,2.71,1.61,2.12,2.12,0,0,1,.07,2.87c-1,.85-2.45.2-3.74.17a1.2,1.2,0,0,0-.79.19,1.26,1.26,0,0,0-.42.73c-.37,1.41,0,2.91-.1,4.36s-.88,3.11-2.33,3.27-2.68-1.43-2.95-2.94,0-3.08-.45-4.55l-4.15,4.35a2.67,2.67,0,0,1-.81.65c-1.12.47-2.28-.89-2.18-2.09a7,7,0,0,1,1.63-3.19c.69-1,1.27-2.27.79-3.38a5.93,5.93,0,0,0-1.73-1.84c-1.23-1.11-3.15-4.09-.71-4.88,1.45-.47,3.1.54,4.65-.12C368.37,46.07,373.21,37.55,374.55,42.27Z"/><path class="cls-5" d="M235.56,185.31a1.08,1.08,0,0,1-.95-.27c-.23-.21-.42-.37-.59-.5a3.15,3.15,0,0,1-.93-1,4.77,4.77,0,0,1-.36-1.22,5.29,5.29,0,0,0-.13-.54c-.79-2.45-2-3.38-4.64-3.56a3.89,3.89,0,0,1-1.08-.27l-.59-.2a1.12,1.12,0,0,1-.38-1.94l.63-.51c.4-.33.73-.6,1.07-.85a5.65,5.65,0,0,0,2.75-5.22c0-.93-.07-1.87,0-2.8a3.68,3.68,0,0,1,.28-1.13c.05-.14.11-.3.17-.49a1.12,1.12,0,0,1,.85-.76h0a1.12,1.12,0,0,1,1.07.39l.29.35a2.62,2.62,0,0,1,.62.91,4.1,4.1,0,0,1,.24,1.06l.05.35c.62,3.29,1.52,4.09,4.8,4.28a13.56,13.56,0,0,1,1.56.19,1.39,1.39,0,0,1,.92.65,3.27,3.27,0,0,0,.25.32,1.12,1.12,0,0,1-.38,1.72l-.67.34a8.15,8.15,0,0,1-1.48.66c-1.6.47-2.31,1.47-2.36,3.35,0,.6,0,1.2,0,1.8,0,.43,0,.87,0,1.3s0,.9,0,1.5l0,1.06a1.11,1.11,0,0,1-.68,1A.73.73,0,0,1,235.56,185.31Z"/><path class="cls-1" d="M240.57,173.23c-.33-.39-.4-.57-.5-.59a14.12,14.12,0,0,0-1.44-.17c-3.79-.22-5.11-1.39-5.82-5.18a7,7,0,0,0-.24-1.23,5.06,5.06,0,0,0-.74-.95,6.54,6.54,0,0,0-.4,1.33c0,.9,0,1.81,0,2.71a6.85,6.85,0,0,1-3.23,6.19c-.49.34-.93.74-1.64,1.31a8.23,8.23,0,0,0,1.42.43c3.08.21,4.7,1.44,5.63,4.33a11.89,11.89,0,0,0,.43,1.61c.17.35.59.57,1.27,1.2,0-1.2.08-1.87.08-2.53,0-1.05,0-2.09,0-3.13.06-2.17,1-3.74,3.16-4.39A13.84,13.84,0,0,0,240.57,173.23Z"/><path class="cls-5" d="M244.07,192.85a.69.69,0,0,1-.6-.17l-.37-.32a1.83,1.83,0,0,1-.59-.65,3,3,0,0,1-.23-.77c0-.11-.05-.23-.08-.34a2.8,2.8,0,0,0-2.93-2.24,2.52,2.52,0,0,1-.68-.18l-.38-.12a.71.71,0,0,1-.48-.54.7.7,0,0,1,.25-.68l.4-.33a8.53,8.53,0,0,1,.67-.53,3.6,3.6,0,0,0,1.74-3.3c0-.58,0-1.17,0-1.76a2.37,2.37,0,0,1,.17-.72c0-.09.07-.19.11-.3a.72.72,0,0,1,.54-.49h0a.71.71,0,0,1,.67.25l.19.22a1.85,1.85,0,0,1,.39.57,3.1,3.1,0,0,1,.15.68l0,.22c.39,2.07,1,2.57,3,2.69.33,0,.66.07,1,.12a.92.92,0,0,1,.58.42l.16.2a.72.72,0,0,1,.14.6.69.69,0,0,1-.38.48l-.43.22a4.86,4.86,0,0,1-.93.41,2,2,0,0,0-1.49,2.12c0,.37,0,.75,0,1.13s0,.55,0,.82,0,.57,0,.95l0,.67a.7.7,0,0,1-.43.63Z"/><path class="cls-1" d="M247.23,185.23c-.21-.25-.26-.36-.32-.37a5.53,5.53,0,0,0-.9-.11c-2.4-.14-3.23-.88-3.68-3.27a4.89,4.89,0,0,0-.15-.78,2.94,2.94,0,0,0-.47-.59,4.44,4.44,0,0,0-.25.83c0,.57,0,1.14,0,1.71a4.32,4.32,0,0,1-2,3.91c-.3.21-.58.46-1,.83a4.75,4.75,0,0,0,.9.26,3.5,3.5,0,0,1,3.55,2.74,6.82,6.82,0,0,0,.27,1c.11.22.37.36.8.76,0-.76.05-1.18.05-1.6,0-.66,0-1.32,0-2a2.65,2.65,0,0,1,2-2.77A10.46,10.46,0,0,0,247.23,185.23Z"/><path class="cls-2" d="M199.52,106.31a13.9,13.9,0,0,0,1.33,2.37,10.3,10.3,0,0,0,1.44,1.6,10.78,10.78,0,0,0,1.77,1.23,14.1,14.1,0,0,0,2.51,1,3.76,3.76,0,0,1-3,1.15,5,5,0,0,1-4.8-4.24A3.79,3.79,0,0,1,199.52,106.31Z"/><path class="cls-2" d="M290,84.93a30.11,30.11,0,0,0-.73,5,4.28,4.28,0,0,0,1.43,3.4,6.79,6.79,0,0,0,1.87.9,20.47,20.47,0,0,0,2.27.63,24.5,24.5,0,0,0,5,.43,9,9,0,0,1-5.2,1.8,11,11,0,0,1-2.85-.25,7.56,7.56,0,0,1-2.86-1.22A5.24,5.24,0,0,1,287,92.76a6.34,6.34,0,0,1,0-3.12A9.58,9.58,0,0,1,290,84.93Z"/><path class="cls-2" d="M197.86,180.93c.71-1,1.29-1.74,1.82-2.52s1-1.54,1.41-2.33.82-1.57,1.22-2.43.74-1.77,1.17-2.88a5.13,5.13,0,0,1,1,3.31,7.11,7.11,0,0,1-.91,3.39A7,7,0,0,1,201.2,180,5.15,5.15,0,0,1,197.86,180.93Z"/><path class="cls-1" d="M409.75,171.41l.93-1.21a17.75,17.75,0,0,0,1.29-19,30.9,30.9,0,0,0-10.3-11.07,41.63,41.63,0,0,0-16.8-6.55,36,36,0,0,0-19.16,1.85,5.92,5.92,0,0,0-3.28,3.1,37.74,37.74,0,0,0-1.62,8.52c-.45,4.9-.59,9.84-.91,14.76-.44,6.82-1,13.63-1.4,20.44-.52,8.82-.95,17.65-1.43,26.47-.25,4.61,5.78,6.87,9.49,6.76,1.64,0,3.28-.07,4.91-.11,6.16-.13,12.23.28,18.14-1.69a41.82,41.82,0,0,0,15.17-8.7,15.43,15.43,0,0,0,4.8-13.76,11.78,11.78,0,0,0-3.68-6.76c-2-1.82-4.37-3.11-6.45-4.81C402.78,179.88,407.27,174.58,409.75,171.41Zm-9.06,9.38a3,3,0,0,1,.13,1.28,3,3,0,0,0-.13-1.28Zm-20.9-16.24c.22-1.65,0-3.36.23-5,.06-.5.84-1.38,1.18-1.33,2.68.41,7.08.52,8.83,3,1.18,1.67.56,3.73-.68,5.17-1.72,2-5.06,2.45-7.54,2.13S379.5,166.71,379.79,164.55Zm-2.55,28c.16-1.12,0-2.27.16-3.4,0-.34.57-.93.8-.9a18.48,18.48,0,0,1,5.25,1.15c.86.42,1.36,1.95,1.64,3.08.11.46-.69,1.46-1.28,1.72a28.6,28.6,0,0,1-4,1.1C377.74,195.1,376.84,195.56,377.24,192.55Z"/><path class="cls-2" d="M397,175.5c1-1.1,1.79-2,2.51-2.91s1.38-1.79,2-2.71,1.19-1.85,1.75-2.86,1.11-2.1,1.77-3.42a6.48,6.48,0,0,1,.91,4.19,9.07,9.07,0,0,1-4.72,7A6.45,6.45,0,0,1,397,175.5Z"/><path class="cls-2" d="M444.71,146.08c-.63,1.23-1.25,2.28-1.84,3.32l-1.67,3.08-1.57,3.13c-.51,1.08-1,2.2-1.66,3.42a8,8,0,0,1-.49-4,10.71,10.71,0,0,1,1.19-3.86,10.84,10.84,0,0,1,2.49-3.18A8,8,0,0,1,444.71,146.08Z"/><path class="cls-2" d="M354.2,103.91a13.1,13.1,0,0,0,.53,3.08,9.34,9.34,0,0,0,1.27,2.57,9.71,9.71,0,0,0,2,2,12.54,12.54,0,0,0,2.74,1.51,5.26,5.26,0,0,1-3.4-.31,6.45,6.45,0,0,1-4-5.57A5.3,5.3,0,0,1,354.2,103.91Z"/><path class="cls-2" d="M480.25,83.88a20.49,20.49,0,0,0-2-4.7,14.71,14.71,0,0,0-6.9-6.11,21.13,21.13,0,0,0-4.9-1.4,8.62,8.62,0,0,1,5.52-.75,10.56,10.56,0,0,1,8.33,7.39A8.7,8.7,0,0,1,480.25,83.88Z"/><path class="cls-1" d="M440.51,221.59a2.67,2.67,0,0,0-.88-.57A2.67,2.67,0,0,1,440.51,221.59Z"/><path class="cls-3" d="M365.84,183.49l0,.08v-.07h0Z"/><path class="cls-1" d="M293.51,195.82h0c-.06.14-.12.27-.17.41C293.39,196.09,293.45,196,293.51,195.82Z"/><path class="cls-1" d="M262.51,175.17l-.81-1.54c-.35-1.06-.69-2.11-1-3.17.34,1.06.68,2.11,1,3.17Z"/><path class="cls-1" d="M262.53,171.5l.23-.18a2.11,2.11,0,0,0-.23.19,13.68,13.68,0,0,0-.91-2.57A13.84,13.84,0,0,1,262.53,171.5Z"/><path class="cls-1" d="M241.77,153.76a3,3,0,0,0-.38-.61h0A3,3,0,0,1,241.77,153.76Z"/><path class="cls-4" d="M425.47,235.8a8.57,8.57,0,0,0-2,1.8c-.11.14.55.88,1.2,1.88a25.76,25.76,0,0,0,1.9-2.74C426.59,236.63,425.59,235.72,425.47,235.8Z"/><rect id="cadre" class="cls-4" x="-0.5" y="0.33" width="623.62" height="340.16"/></svg>