<?xml version="1.0" encoding="utf-8"?>
<!-- Generator: Adobe Illustrator 25.1.0, SVG Export Plug-In . SVG Version: 6.00 Build 0)  -->
<svg version="1.1" xmlns="http://www.w3.org/2000/svg" xmlns:xlink="http://www.w3.org/1999/xlink" x="0px" y="0px"
	 width="1500" height="800" viewBox="0 0 623.6 340.2" style="enable-background:new 0 0 623.6 340.2;" xml:space="preserve">
<style type="text/css">
	.st0{fill:#FFFFFF;}
	.st1{fill:#DFF2FD;}
	.st2{fill:none;}
	.st3{fill:#D71716;}
	.st4{fill:#105A83;}
	.st5{display:none;}
	.st6{display:inline;fill:#FDEEF6;}
	.st7{display:inline;}
	.st8{fill:#FDEEF6;}
	.st9{display:inline;fill:none;}
</style>
<g id="White">
	<polygon class="st0" points="270,37.8 359,37.8 359,37.5 359,17.3 270,17.3 	"/>
	<path class="st1" d="M292.7,17.4v20.4H336l0.2-20.5c0,0,0,0,0,0L292.7,17.4L292.7,17.4z"/>
	<g>
		<g>
			<path class="st1" d="M340.5,236.7h-52.4v-39.4h8.7c3.2-10.9,6.3-21.4,9.3-31.2c2.9-9.4,5.9-19.6,9.1-30.2h-6.4v14.7h-36.9V97H357
				v33.9c0,0.4,0,0.5-0.9,3.5c-0.6,1.7-1.3,4-2.1,6.7c-0.8,2.6-1.8,5.8-3,9.6c-1.2,3.6-2.4,7.4-3.7,11.3c-1.5,4.6-3,9.1-4.4,13.3
				c-1.4,4.2-2.6,8.1-3.7,11.5c-1,3.3-1.9,6.2-2.7,8.7c-0.2,0.7-0.4,1.3-0.6,1.9h4.6V236.7z M292.3,232.5h44v-31h-5.7l0.5-2.5
				c0.1-0.5,0.4-1.5,1.4-4.9c0.8-2.5,1.7-5.4,2.7-8.7c1.1-3.4,2.3-7.3,3.7-11.6c1.4-4.3,2.9-8.7,4.4-13.3c1.3-3.9,2.5-7.7,3.7-11.3
				c1.2-3.8,2.2-6.9,3-9.5c0.8-2.7,1.5-5,2.1-6.7c0.5-1.5,0.7-2.2,0.7-2.4v-29.5h-76.6v45.2h28.5v-14.7h16.3l-0.8,2.7
				c-3.5,11.6-6.8,22.7-10,32.9c-3.1,10.2-6.4,21.2-9.7,32.7l-0.4,1.5h-7.6V232.5z"/>
		</g>
	</g>
	<g>
		<path class="st1" d="M334.2,230.5h-39.9v-26.9h7.1l0.9-3c3.3-11.4,6.6-22.4,9.7-32.6c3.1-10.1,6.4-21.2,10-32.9l1.6-5.4h-21.1
			v14.7h-24.4v-41.1h72.5l0,27.3c-0.1,0.3-0.3,0.9-0.6,2c-0.6,1.8-1.3,4-2.1,6.7c-0.8,2.6-1.8,5.7-3,9.5c-1.2,3.6-2.4,7.4-3.7,11.3
			c-1.5,4.6-3,9-4.4,13.3c-1.4,4.2-2.6,8.1-3.7,11.6c-1,3.3-1.9,6.2-2.7,8.6c-1.1,3.4-1.4,4.5-1.5,5.1l-1,5h6.1V230.5z M295.8,229
			h36.9v-23.9h-6.5l1.3-6.7c0.1-0.7,0.4-1.8,1.5-5.3c0.8-2.5,1.7-5.4,2.7-8.6c1.1-3.5,2.3-7.4,3.7-11.6c1.4-4.3,2.9-8.7,4.4-13.3
			c1.3-3.9,2.5-7.7,3.7-11.3c1.2-3.7,2.2-6.8,3-9.4c0.8-2.7,1.5-5,2.1-6.8c0.3-0.9,0.5-1.5,0.6-1.8v-25.5h-69.6v38.2h21.4v-14.7
			h24.5l-2.2,7.2c-3.5,11.7-6.9,22.8-10,32.9c-3.1,10.2-6.4,21.2-9.7,32.6l-1.2,4.1h-6.8V229z"/>
	</g>
	<rect id="cadre_2_" x="-0.5" y="0.3" class="st2" width="623.6" height="340.2"/>
</g>
<g id="Scene">
	<g>
		<rect x="292.7" y="37.8" class="st3" width="43.3" height="0"/>
		<g>
			<path class="st2" d="M336.2,17.3C336.3,17.3,336.2,17.3,336.2,17.3L336,37.8h23v-0.3V17.3h-89v20.5h22.8V17.4v0"/>
			<path class="st3" d="M336.2,17.3l-43.5,0.1v0v20.4H336L336.2,17.3C336.2,17.3,336.3,17.3,336.2,17.3z"/>
		</g>
	</g>
	<g>
		<g>
			<path class="st4" d="M340.5,236.7h-52.4v-39.4h8.7c3.2-10.9,6.3-21.4,9.3-31.2c2.9-9.4,5.9-19.6,9.1-30.2h-6.4v14.7h-36.9V97H357
				v33.9c0,0.4,0,0.5-0.9,3.5c-0.6,1.7-1.3,4-2.1,6.7c-0.8,2.6-1.8,5.8-3,9.6c-1.2,3.6-2.4,7.4-3.7,11.3c-1.5,4.6-3,9.1-4.4,13.3
				c-1.4,4.2-2.6,8.1-3.7,11.5c-1,3.3-1.9,6.2-2.7,8.7c-0.2,0.7-0.4,1.3-0.6,1.9h4.6V236.7z M292.3,232.5h44v-31h-5.7l0.5-2.5
				c0.1-0.5,0.4-1.5,1.4-4.9c0.8-2.5,1.7-5.4,2.7-8.7c1.1-3.4,2.3-7.3,3.7-11.6c1.4-4.3,2.9-8.7,4.4-13.3c1.3-3.9,2.5-7.7,3.7-11.3
				c1.2-3.8,2.2-6.9,3-9.5c0.8-2.7,1.5-5,2.1-6.7c0.5-1.5,0.7-2.2,0.7-2.4v-29.5h-76.6v45.2h28.5v-14.7h16.3l-0.8,2.7
				c-3.5,11.6-6.8,22.7-10,32.9c-3.1,10.2-6.4,21.2-9.7,32.7l-0.4,1.5h-7.6V232.5z"/>
		</g>
	</g>
	<g>
		<path class="st4" d="M334.2,230.5h-39.9v-26.9h7.1l0.9-3c3.3-11.4,6.6-22.4,9.7-32.6c3.1-10.1,6.4-21.2,10-32.9l1.6-5.4h-21.1
			v14.7h-24.4v-41.1h72.5l0,27.3c-0.1,0.3-0.3,0.9-0.6,2c-0.6,1.8-1.3,4-2.1,6.7c-0.8,2.6-1.8,5.7-3,9.5c-1.2,3.6-2.4,7.4-3.7,11.3
			c-1.5,4.6-3,9-4.4,13.3c-1.4,4.2-2.6,8.1-3.7,11.6c-1,3.3-1.9,6.2-2.7,8.6c-1.1,3.4-1.4,4.5-1.5,5.1l-1,5h6.1V230.5z M295.8,229
			h36.9v-23.9h-6.5l1.3-6.7c0.1-0.7,0.4-1.8,1.5-5.3c0.8-2.5,1.7-5.4,2.7-8.6c1.1-3.5,2.3-7.4,3.7-11.6c1.4-4.3,2.9-8.7,4.4-13.3
			c1.3-3.9,2.5-7.7,3.7-11.3c1.2-3.7,2.2-6.8,3-9.4c0.8-2.7,1.5-5,2.1-6.8c0.3-0.9,0.5-1.5,0.6-1.8v-25.5h-69.6v38.2h21.4v-14.7
			h24.5l-2.2,7.2c-3.5,11.7-6.9,22.8-10,32.9c-3.1,10.2-6.4,21.2-9.7,32.6l-1.2,4.1h-6.8V229z"/>
	</g>
	<rect id="cadre" x="-0.5" y="0.3" class="st2" width="623.6" height="340.2"/>
</g>
<g id="Varnish" class="st5">
	<path class="st6" d="M270,40.6c-1.6,0-2.8-1.3-2.8-2.8V17.3c0-1.6,1.3-2.8,2.8-2.8h89c1.6,0,2.8,1.3,2.8,2.8v20.5
		c0,1.6-1.3,2.8-2.8,2.8H270z"/>
	<g class="st7">
		<path class="st2" d="M340.9,147.4c1.2-3.7,2.2-6.8,3-9.4c0.8-2.8,1.6-5,2.1-6.8c0.2-0.6,0.3-1.1,0.4-1.4v-22.2h-63.9v32.5h15.8
			v-11.8c0-1.6,1.3-2.8,2.8-2.8h24.5c0.9,0,1.7,0.4,2.3,1.1s0.7,1.6,0.4,2.5l-2.2,7.2c-3.6,11.8-6.9,22.9-10,32.9
			c-3.1,10.2-6.4,21.2-9.7,32.6l-1.2,4.1c-0.4,1.2-1.5,2-2.7,2h-3.9v18.3h31.3v-18.3h-3.6c-0.8,0-1.7-0.4-2.2-1
			c-0.5-0.7-0.8-1.5-0.6-2.3l1.3-6.7c0.2-0.8,0.5-2,1.6-5.6c0.8-2.5,1.7-5.3,2.7-8.6c1.1-3.5,2.3-7.4,3.7-11.7
			c1.4-4.3,2.9-8.7,4.4-13.3C338.5,154.8,339.7,151,340.9,147.4z"/>
		<path class="st8" d="M357,94.2h-85.1c-1.6,0-2.8,1.3-2.8,2.8v53.7c0,1.6,1.3,2.8,2.8,2.8h35c-1.2,4.1-2.4,8-3.6,11.8
			c-2.8,9.2-5.7,19-8.7,29.2h-6.6c-1.6,0-2.8,1.3-2.8,2.8v39.4c0,1.6,1.3,2.8,2.8,2.8h52.4c1.6,0,2.8-1.3,2.8-2.8v-39.4
			c0-1.6-1.3-2.8-2.8-2.8h-0.7c0.7-2.1,1.4-4.4,2.2-6.9c1-3.4,2.2-7.2,3.6-11.4c1.4-4.2,2.9-8.7,4.4-13.3c1.3-3.9,2.5-7.7,3.7-11.3
			c1.2-3.8,2.2-6.9,3.1-9.6c0.8-2.7,1.5-4.9,2.1-6.7c1-3,1.1-3.5,1.1-4.3V97C359.9,95.4,358.6,94.2,357,94.2z M329.1,183.7
			c-1,3.2-1.9,6.1-2.7,8.6c-1.2,3.6-1.5,4.8-1.6,5.6l-1.3,6.7c-0.2,0.8,0.1,1.7,0.6,2.3c0.5,0.7,1.3,1,2.2,1h3.6v18.3h-31.3v-18.3
			h3.9c1.3,0,2.4-0.8,2.7-2l1.2-4.1c3.3-11.4,6.6-22.4,9.7-32.6c3.1-10,6.4-21.1,10-32.9l2.2-7.2c0.3-0.9,0.1-1.8-0.4-2.5
			s-1.4-1.1-2.3-1.1h-24.5c-1.6,0-2.8,1.3-2.8,2.8v11.8h-15.8v-32.5h63.9v22.2c-0.1,0.3-0.2,0.8-0.4,1.4c-0.6,1.8-1.3,4-2.1,6.8
			c-0.8,2.6-1.8,5.7-3,9.4c-1.2,3.6-2.4,7.4-3.7,11.3c-1.5,4.6-3,9-4.4,13.3C331.4,176.3,330.2,180.2,329.1,183.7z"/>
	</g>
	<rect id="cadre_1_" x="-0.5" y="0.3" class="st9" width="623.6" height="340.2"/>
</g>
</svg>
