<svg id="Scene" xmlns="http://www.w3.org/2000/svg" width="1500" height="800" viewBox="0 0 623.62 340.16"><defs><style>.cls-1{fill:#105a83;}.cls-2{fill:none;}</style></defs><path class="cls-1" d="M398.5,157.73l-1.43,5.83c-3.37-2.2,1.09-4.89-1.73-6.9l-3.76,3-.89-.63,7.87-12.33,5.45,4.42C403.71,154.89,401.18,156.4,398.5,157.73Z"/><path class="cls-1" d="M236,140c4.75,1.27,4.43,4.84,4.59,7.95l3.61,4.22-.57.7c-1.74-1.11-3.47-2.23-6.13-4,.38,2.77.62,4.47.86,6.16l-1,.35c-2.14-4.33-4.28-8.66-6.57-13.32Z"/><path class="cls-1" d="M410.62,173.52l9.23-10.37,1.25.66-1.84,7.8,5.58-4.51.74.83a60.73,60.73,0,0,1-9.78,10.73l-1.21-.7q1.19-3.14,2.35-6.25l-.62-.64-4.68,3.26Z"/><path class="cls-1" d="M300.93,122.48l5.24-.24c.56,1.53,1.48,3,1.61,4.59.26,2.87-1.77,4.23-4.27,4.87-.43,1.89-.81,3.61-1.2,5.32l-1.18-.1A69,69,0,0,1,300.93,122.48Z"/><path class="cls-1" d="M352.54,142.58c1.36-4.54,2.71-9.08,4.3-14.42l6,3.26c-.06,5.54-.7,6.19-6.67,7l-2.6,4.54Z"/><path class="cls-1" d="M286.2,125a7.4,7.4,0,0,1,1.39-1.91,2,2,0,0,1,1-.64c2.56-.54,3.1,3.94,3.41,5.44.37,1.84,2.05,5.88,1.56,7.66-.74,2.72-2.51,3.54-4.84,3.19-2.49-.38-3.4-2.29-3.51-4.51C285.09,131.2,284.8,127.76,286.2,125Zm4.12,12.93c1.45-5.67.95-8.85-2.32-13.59-.58,1.9-1.64,3.48-1.22,4.32C288.2,131.45,286.06,135.59,290.32,137.93Z"/><path class="cls-1" d="M385,153.94c-4.09,1.15-4.1,1.15-7-2.25a89.21,89.21,0,0,1,4.87-9.73c.62-1,3-1.38,4.41-1.14a2.82,2.82,0,0,1,2.05,4.07C388,148.08,386.37,151.12,385,153.94Zm-3.45-.73c4.13-2.74,6.27-7.64,4.8-11C382.31,144.71,380.12,149.73,381.56,153.21Z"/><path class="cls-1" d="M430.92,182.85c0,3.14-1.23,4.77-3.44,5.14-1.3.21-3.31-.23-4.05-1.14s-.95-3.34-.27-4.16a37.51,37.51,0,0,1,7.23-6.67c.88-.61,3.32-.18,4.17.65s.84,2.86,1.2,4.35l-1.26.32c-.27-1.31-.54-2.61-.8-3.93a13.28,13.28,0,0,0-9.3,8.35C427.75,188.17,428.49,184.4,430.92,182.85Z"/><path class="cls-1" d="M255.89,132c2-1.88,3.95-2.17,6.37,0l-5,.82-.17,1.16,9,7.65c-3.7,4.45-3.92,4.49-7.68,1.71l4.2.5c1.1-3.59-1.51-4.52-3.54-5.6C256.55,136.9,254.84,135.3,255.89,132Z"/><path class="cls-1" d="M193.29,169.47a9.78,9.78,0,0,1,3.34-3.24c.52-.33,1.29-.59,1.66-.1a1,1,0,0,1-.13,1.17c-.25.34-.62.58-.88.91a2.38,2.38,0,0,0-.17,2.54,3.36,3.36,0,0,0,2.07,1.61l1.07-1.52a1.61,1.61,0,0,1,.52-.55,1.12,1.12,0,0,1,1.4.52,3.11,3.11,0,0,1,.31,1.6c-.7-.39-1.59.36-1.65,1.16a3.47,3.47,0,0,0,.88,2.18c2.36,3.23,4.49-1.55,6.2.86-.35.39-4.06,4.23-4,4.26Q198.58,175.19,193.29,169.47Z"/><path class="cls-1" d="M216.27,149.79A9.55,9.55,0,0,1,220,147c.55-.27,1.35-.43,1.66.09a1,1,0,0,1-.27,1.16c-.29.3-.68.5-1,.8a2.38,2.38,0,0,0-.47,2.5,3.41,3.41,0,0,0,1.87,1.84L223,152a1.79,1.79,0,0,1,.59-.48,1.13,1.13,0,0,1,1.33.68,3.17,3.17,0,0,1,.12,1.62c-.65-.46-1.62.18-1.78,1a3.49,3.49,0,0,0,.62,2.27c2,3.49,4.64-1,6.06,1.59-.4.35-4.53,3.72-4.5,3.76C222.38,158.17,219.31,154,216.27,149.79Z"/><path class="cls-1" d="M217.05,169.07c-5.42-1.34-8.66-5.18-12.19-8.67l.7-1,7.55,6,.88-.59-3.84-8.95,1-.44C214.1,159.41,215.58,164.15,217.05,169.07Z"/><path class="cls-1" d="M343.57,138.57c-.19-.69-.45-1.31-.83-1.48-1.31-.55-3.54,1.71-4.58,2.42l-.62-.39,4-6.14c-.3-1.85-.64-4-1.17-7.33l3.23,3.86c.14.17,3.58-3.15,4.44-2.82,2.64,1-1.39,4.34-2.2,5.24a5,5,0,0,0-1.1,1.58,5.16,5.16,0,0,0-.16,2.18L345,141l-.92-.2C344,140.81,343.85,139.61,343.57,138.57Z"/><path class="cls-1" d="M325.94,122.93c2.05.41,4,.41,6.05.69a5.08,5.08,0,0,1-.4,2.95l-2.92-.35a2.16,2.16,0,0,0-1.61.23,1.37,1.37,0,0,0-.08,1.86,2.51,2.51,0,0,0,1.85.78,1.47,1.47,0,0,1,.51.08c.59.27.28,1.25-.32,1.51a11.87,11.87,0,0,1-1.91.27l-.57,3.7a.74.74,0,0,0,0,.53c.21.32.69.15,1.08.15,2,0,1.61,3.06-.46,3.11s-2.72-1.87-2.58-3.65C324.93,131,325.44,127.28,325.94,122.93Z"/><path class="cls-1" d="M275.56,140.29c-.14,0-2.63-8.32-2.95-9-1.28-2.91-2.71-1.9-5.43-1.67a4.65,4.65,0,0,1-.45-2.58c3.17-2.09,7.09-2.58,10.86-3l.3,2.42a.54.54,0,0,1-.05.4.58.58,0,0,1-.36.17c-1,.18-2,.05-2.44.87s.34,3.3.42,4.12,1,8.1.82,8.15Z"/><path class="cls-1" d="M372.73,135.28c-.09,4.76-6,8.66-2.42,14.47l-4.15-2.21,5.26-13Z"/><path class="cls-1" d="M413.09,157.66q-4.15,5.46-8.32,10.9l-1.09-.82a45.38,45.38,0,0,1,8.17-11Z"/><path class="cls-1" d="M420.89,203.71c-.43,2.07-3.44,1.53-5.87,1.46-5.44-.17-11-.06-16.5-.06H234c-9,0-17.85.58-26.83.19-7.14-.3-2.5-5.46-.59-9.48.22-.47.84-.89,1.16-1.31-2.49,1.31-4.88,2.78-7.27,4.25-1,.61-5.41,2.35-5.93,3.2a65,65,0,0,0-5.16,10.19c12.88-.87,25.86.09,38.75.09h184c8.13,0,16.27.12,24.4-.05L432,204c-1.55-2.84-3.14-5.73-5.54-7.89a10,10,0,0,0-8.83-2.68c.15,0,2.64,7,2.87,7.71A5,5,0,0,1,420.89,203.71Z"/><path class="cls-1" d="M382.7,125.24c-.91-1.92-1.93-4-3-5.83,0-1.07-2.15-3.73-2.68-4.63,0-1.81-3.15-5.47-4.09-7.09l-5.23-9.07Q359.84,85,352,71.36L320.59,17c-2.35-4.07-4.67-8.94-7.49-12.84-2,4.46-5.18,8.11-7.66,12.28Q301,24,296.54,31.59c-10.17,17.35-20.39,34.7-30.24,52.23l-22.62,39.56c.66-1.15,4.45-2.34,5.72-3a31.49,31.49,0,0,0,6.18-4.11c4.06-3.7,6.21-9.81,8.88-14.52,6.88-12.17,14.17-24.1,21.16-36.21l13.94-24.13,7-12.07c1.8-3.1,3.19-8.13,6.16-10.33,6,9,10.94,18.63,16.45,27.92s10.68,18.46,16,27.7c0,1.24,2.21,3.83,2.85,4.94,1.16,2,2.32,4,3.49,6q3.31,5.78,6.65,11.54c3.15,4.91,5.86,10.17,8.78,15.22,1.77,3.07,2.87,6.22,5.84,8.34S379.37,123.78,382.7,125.24Z"/><path class="cls-1" d="M319.47,89.88c2.19,2.27,4.31,4.63,6.62,6.78,1.33,1.24,2.81,2.65,4.47,3.12a14.66,14.66,0,0,1,8.77,7,12.44,12.44,0,0,0,5.44,5,3,3,0,0,1,1.21,1.36,8,8,0,0,1-6.2-2.71c-2.26-2.31-4.69-4.46-7.21-6.84-.57,2.32-.57,2.32,1.8,6-3.51-1.81-4.94-4.74-6.94-7.18a94.56,94.56,0,0,0-6.76-6.84C319,100.34,318,105.33,314,109c.84-2.31,1.7-4.4,2.37-6.56S317.45,98.25,318,96c-2.09-.5-3.11.74-3.85,2.45s-1.23,3.78-3.66,5.18c.38-1.26.61-2,.83-2.75l-.39-.36-8,6.05,3.12,5.19c-1.39-.24-1.39-.23-4.3-3.52-1.36-1.54-2.7-3.1-4-4.64-3.61.71-4.2,4.58-5.92,5.46l-10.24,1.4A65.87,65.87,0,0,0,297.13,98.3l3.83,5.53c4.61-1.1,7.33-3.52,9.79-6.37,2.13-2.47,4-5.22,6.95-6.84C318.16,90.36,318.68,90.21,319.47,89.88Z"/><path class="cls-1" d="M336.83,75.07c0,1.52-.94,3.13-3.54,4.54-3.34,1.8-9.12-.7-9.12-4.82C324.16,66.92,336.6,67.05,336.83,75.07Z"/><path class="cls-1" d="M288.73,153a14.94,14.94,0,0,0-3.48,2c4-1.57,7.57-5.22,8.39-9.48a11,11,0,0,0,6.9,10.17,7.17,7.17,0,0,1-6.24-.92c-.34,1.6,1.14,3.05,2.68,3.6s3.25.55,4.76,1.18a11.36,11.36,0,0,1-7.61.08c-.63,2,1.14,3.88,2.89,5s3.81,2.3,4.22,4.33a22.06,22.06,0,0,1-7-2.14c-1,1.28-.3,3.27,1,4.3a16.23,16.23,0,0,0,4.39,2.07c1.5.63,3,1.67,3.39,3.26a61.81,61.81,0,0,1-10.19-1.64c.41,1.83,2,3.08,3.55,4.16l8,5.77-10.78-.21c2.75,6.09,11.77,7.05,14.88,13l-30.93.13a32.28,32.28,0,0,1,8.46-9c1.69-1.21,3.59-2.36,4.47-4.24a64.89,64.89,0,0,1-12.07-.1,51.42,51.42,0,0,0,9.42-5.33c1.57-1.13,3.2-2.56,3.34-4.48q-4.4.89-8.85,1.44c.19-1.74,2.29-2.41,3.9-3.09a11.05,11.05,0,0,0,5.16-4.51c.3-.5.51-1.24,0-1.58a1.3,1.3,0,0,0-1.06,0l-6.08,1.64c.33-2,2.52-2.93,4.3-3.86s3.61-2.92,2.65-4.68a18.25,18.25,0,0,1-7.6-.57,15,15,0,0,0,5.47-.89,5.1,5.1,0,0,0,3.25-4.18,10,10,0,0,1-6.95.95"/><path class="cls-1" d="M309.46,166.82a10,10,0,0,0-2.4,1.36,9.37,9.37,0,0,0,5.79-6.54,7.64,7.64,0,0,0,4.76,7,4.94,4.94,0,0,1-4.3-.64c-.24,1.11.78,2.11,1.85,2.49s2.24.38,3.28.81a7.76,7.76,0,0,1-5.25.06c-.44,1.37.79,2.68,2,3.46s2.64,1.59,2.92,3a15.23,15.23,0,0,1-4.8-1.49,2.29,2.29,0,0,0,.65,3,11.61,11.61,0,0,0,3,1.43,3.6,3.6,0,0,1,2.34,2.25,43,43,0,0,1-7-1.13,5.39,5.39,0,0,0,2.45,2.87l5.54,4-7.44-.14c1.9,4.21,8.13,4.87,10.27,9l-21.36.09a22.26,22.26,0,0,1,5.85-6.19c1.16-.84,2.48-1.63,3.08-2.93a45.56,45.56,0,0,1-8.34-.07,35.46,35.46,0,0,0,6.52-3.68c1.08-.78,2.2-1.77,2.3-3.1-2,.41-4.06.75-6.11,1,.13-1.21,1.58-1.66,2.69-2.14a7.61,7.61,0,0,0,3.57-3.11c.2-.34.35-.85,0-1.09a.84.84,0,0,0-.73,0l-4.2,1.13c.23-1.36,1.74-2,3-2.66s2.49-2,1.83-3.24a12.59,12.59,0,0,1-5.25-.39,10.21,10.21,0,0,0,3.78-.62,3.49,3.49,0,0,0,2.24-2.88,7,7,0,0,1-4.79.66"/><path class="cls-1" d="M344.36,155.2a14.24,14.24,0,0,0-3.31,1.87,12.91,12.91,0,0,0,8-9,10.5,10.5,0,0,0,6.55,9.67,6.82,6.82,0,0,1-5.93-.88c-.32,1.52,1.08,2.91,2.55,3.43s3.09.52,4.53,1.11a10.84,10.84,0,0,1-7.24.09c-.6,1.88,1.09,3.69,2.74,4.76s3.63,2.19,4,4.13a21,21,0,0,1-6.61-2c-.95,1.22-.29,3.1.9,4.09a15.72,15.72,0,0,0,4.18,2c1.43.6,2.88,1.59,3.22,3.1a58.64,58.64,0,0,1-9.68-1.56c.38,1.73,1.93,2.92,3.37,4l7.63,5.48-10.26-.2c2.62,5.8,11.2,6.71,14.16,12.34l-29.42.13a30.57,30.57,0,0,1,8.05-8.53c1.61-1.15,3.41-2.24,4.25-4a62,62,0,0,1-11.48-.1,48.57,48.57,0,0,0,9-5.07c1.49-1.07,3-2.43,3.17-4.26-2.78.57-5.59,1-8.42,1.37.19-1.66,2.19-2.29,3.72-2.94a10.56,10.56,0,0,0,4.91-4.29c.28-.47.48-1.17,0-1.49a1.18,1.18,0,0,0-1,0l-5.78,1.56c.31-1.88,2.4-2.78,4.09-3.66s3.43-2.79,2.52-4.46a17.27,17.27,0,0,1-7.22-.54,14.27,14.27,0,0,0,5.2-.85,4.85,4.85,0,0,0,3.09-4,9.55,9.55,0,0,1-6.61.9"/><path class="cls-1" d="M271.15,161a12.52,12.52,0,0,0-2.85,1.61,11.11,11.11,0,0,0,6.89-7.77,9.06,9.06,0,0,0,5.66,8.34,5.86,5.86,0,0,1-5.12-.76c-.28,1.32.93,2.51,2.2,3s2.66.45,3.9,1a9.37,9.37,0,0,1-6.25.07c-.51,1.62.95,3.18,2.38,4.11s3.13,1.89,3.46,3.56a18,18,0,0,1-5.71-1.76c-.81,1.06-.24,2.68.79,3.54a13.35,13.35,0,0,0,3.6,1.69,4.27,4.27,0,0,1,2.78,2.68,51.64,51.64,0,0,1-8.36-1.35c.33,1.5,1.67,2.53,2.91,3.42l6.59,4.73-8.85-.17c2.26,5,9.66,5.79,12.21,10.65l-25.38.11a26.31,26.31,0,0,1,6.94-7.36c1.39-1,2.95-1.94,3.67-3.48a53.78,53.78,0,0,1-9.91-.08,42.2,42.2,0,0,0,7.74-4.38c1.28-.92,2.62-2.1,2.73-3.68-2.4.49-4.83.88-7.26,1.18.16-1.43,1.88-2,3.21-2.53a9.12,9.12,0,0,0,4.23-3.7c.24-.41.42-1,0-1.3a1.05,1.05,0,0,0-.87,0l-5,1.34c.27-1.62,2.07-2.4,3.53-3.16s3-2.4,2.17-3.85a14.74,14.74,0,0,1-6.23-.47,12.17,12.17,0,0,0,4.49-.73,4.16,4.16,0,0,0,2.66-3.42,8.23,8.23,0,0,1-5.7.77"/><path class="cls-1" d="M328.77,161a12.37,12.37,0,0,0-2.86,1.61,11.11,11.11,0,0,0,6.89-7.77,9.06,9.06,0,0,0,5.66,8.34,5.86,5.86,0,0,1-5.12-.76c-.28,1.32.93,2.51,2.2,3s2.66.45,3.9,1a9.35,9.35,0,0,1-6.24.07c-.52,1.62.94,3.18,2.37,4.11s3.13,1.89,3.46,3.56a17.82,17.82,0,0,1-5.7-1.76c-.82,1.06-.25,2.68.78,3.54a13.41,13.41,0,0,0,3.61,1.69,4.32,4.32,0,0,1,2.78,2.68,51.58,51.58,0,0,1-8.37-1.35c.34,1.5,1.67,2.53,2.91,3.42l6.59,4.73-8.85-.17c2.26,5,9.66,5.79,12.21,10.65l-25.38.11a26.31,26.31,0,0,1,6.94-7.36c1.39-1,2.95-1.94,3.67-3.48a53.78,53.78,0,0,1-9.91-.08,41.88,41.88,0,0,0,7.74-4.38c1.28-.92,2.62-2.1,2.74-3.68q-3.62.74-7.27,1.18c.16-1.43,1.88-2,3.21-2.53a9.12,9.12,0,0,0,4.23-3.7c.24-.41.42-1,0-1.3a1.05,1.05,0,0,0-.87,0l-5,1.34c.27-1.62,2.07-2.4,3.53-3.16s3-2.4,2.17-3.85a14.74,14.74,0,0,1-6.23-.47,12.17,12.17,0,0,0,4.49-.73,4.18,4.18,0,0,0,2.67-3.42,8.27,8.27,0,0,1-5.71.77"/><path class="cls-1" d="M191.33,192.14l-9.94-10.87c.28-.42.55-.84.83-1.25l8,2.78c-1.84-2.81-3-4.59-4.15-6.38l1-.69a64.77,64.77,0,0,1,10.25,11.5l-.87,1.2-6.34-3.17-.74.59,2.92,5.3Z"/><rect id="cadre" class="cls-2" x="-0.5" y="0.33" width="623.62" height="340.16"/></svg>