<svg id="Scene" xmlns="http://www.w3.org/2000/svg" width="1500" height="800" viewBox="0 0 623.62 340.16"><defs><style>.cls-1{fill:#0e4274;}.cls-2{fill:none;}.cls-3{fill:#fff;}.cls-4{fill:#f5e971;}.cls-5{fill:#36a5b0;}</style></defs><path class="cls-1" d="M403,110.41v-2.74a.17.17,0,0,1,.33,0v2.74a.17.17,0,0,1-.33,0Z"/><path class="cls-1" d="M402.87,104.83v-2.75a.16.16,0,0,1,.32,0v2.75a.16.16,0,0,1-.32,0Z"/><path class="cls-1" d="M405.68,109.1a13.51,13.51,0,0,1-1.54-1.58.16.16,0,0,1,0-.23.17.17,0,0,1,.22,0,13.53,13.53,0,0,0,1.54,1.58.16.16,0,0,1,0,.23.16.16,0,0,1-.22,0Z"/><path class="cls-1" d="M406.8,106.39l-2-.14c-.2,0-.21-.33,0-.32l2,.13c.2,0,.2.34,0,.33Z"/><path class="cls-1" d="M401.62,105l-1.42-1.2a.16.16,0,1,1,.23-.23l1.42,1.2a.16.16,0,1,1-.23.23Z"/><path class="cls-1" d="M401.68,106.37h-2.24a.16.16,0,0,1,0-.32h2.24a.17.17,0,0,1,0,.33Z"/><path class="cls-1" d="M402,107.52l-1.55,1.38a.16.16,0,0,1-.22-.22l1.55-1.39a.17.17,0,0,1,.22,0,.16.16,0,0,1,0,.23Z"/><path class="cls-1" d="M405.79,103.82l-1.55,1.38a.17.17,0,0,1-.23,0,.16.16,0,0,1,0-.23l1.55-1.38a.16.16,0,0,1,.23.23Z"/><circle class="cls-1" cx="403.03" cy="106.16" r="0.48"/><path class="cls-1" d="M403.54,106.16a.51.51,0,0,1-1,0,.51.51,0,1,1,1,0Zm-.06,0a.45.45,0,1,0-.45.45A.45.45,0,0,0,403.48,106.16Z"/><path class="cls-2" d="M403.14,95.76v0h.17v0Z"/><path class="cls-1" d="M393.07,108.13a8.43,8.43,0,0,0,.06-1c0-.32,0-.63-.05-.94h.05v.07a10.26,10.26,0,0,0,6.39,9.5H399A10.52,10.52,0,0,1,393.07,108.13Z"/><path class="cls-1" d="M403.31,95.75a1.77,1.77,0,0,0,0,.23h-.19c0-.08,0-.16,0-.23Z"/><path class="cls-1" d="M393.14,105.9h-.09c0-.23-.06-.45-.1-.67a10.5,10.5,0,0,1,10-9.46c0,.08,0,.15,0,.23A10.27,10.27,0,0,0,393.14,105.9Z"/><path class="cls-1" d="M413.63,105.53A10.27,10.27,0,0,0,403.55,96a1.69,1.69,0,0,1,0-.23,10.51,10.51,0,0,1,10.23,8.92c0,.29-.06.57-.08.86Z"/><path class="cls-1" d="M413.67,106.25c0-.15,0-.29,0-.43h0c0,.07,0,.14,0,.22a10.18,10.18,0,0,0,.13,1.57,10.51,10.51,0,0,1-6,8.14h-.56A10.27,10.27,0,0,0,413.67,106.25Z"/><path class="cls-1" d="M403.53,95.71c0-.07,0-.15,0-.23a10.28,10.28,0,0,0,9.3-10.22c0-.07,0-.14,0-.21h.06a1.7,1.7,0,0,0,0,.22,12.1,12.1,0,0,0,.09,1.36A10.49,10.49,0,0,1,403.53,95.71Z"/><path class="cls-1" d="M403.14,95.73s0,0,0-.08,0-.1,0-.15h.15c0,.07,0,.15,0,.23Z"/><path class="cls-1" d="M412.79,84.73A10.26,10.26,0,0,0,403.17,75c0-.07,0-.15,0-.23A10.49,10.49,0,0,1,413,83.9c0,.28-.05.56-.07.84Z"/><path class="cls-1" d="M392.23,87.19a9.9,9.9,0,0,0,.08-1.23c0-.19,0-.38,0-.56h0a10.27,10.27,0,0,0,10.26,10.13h.36s0,.08,0,.13,0,.06,0,.1h-.36A10.52,10.52,0,0,1,392.23,87.19Z"/><path class="cls-1" d="M392.3,84.93h0c0-.3-.08-.6-.13-.9a10.5,10.5,0,0,1,9.94-9.24h.39c0,.07,0,.14,0,.21A10.26,10.26,0,0,0,392.3,84.93Z"/><path class="cls-1" d="M402.69,74.79h.24c0,.07,0,.15,0,.22h-.26C402.68,74.93,402.69,74.86,402.69,74.79Z"/><polygon class="cls-3" points="392.27 85.16 392.28 85.16 392.28 85.17 392.27 85.17 392.27 85.16"/><path class="cls-1" d="M392,85.18a1.69,1.69,0,0,1,0,.23,10.26,10.26,0,0,0-9.5,8.4v-1A10.49,10.49,0,0,1,392,85.18Z"/><path class="cls-1" d="M392.64,105.92h.18v0c-.21,0-.41,0-.62,0a11.22,11.22,0,0,0-1.31.09,10.51,10.51,0,0,1-8.34-7.49v-1A10.27,10.27,0,0,0,392.64,105.92Z"/><path class="cls-1" d="M393.14,105.9A10.28,10.28,0,0,0,402.9,96h.23A10.51,10.51,0,0,1,394,106.06a7.35,7.35,0,0,0-.82-.11Z"/><path class="cls-1" d="M402.91,95.77v0l.23,0v0Z"/><path class="cls-1" d="M392.64,85.38l-.35,0a.66.66,0,0,1,0-.14v-.09l.36,0a10.51,10.51,0,0,1,10.5,10.35l-.23,0A10.28,10.28,0,0,0,392.64,85.38Z"/><path class="cls-1" d="M393.06,105.94a.06.06,0,0,1,0,0h.09v0Z"/><path class="cls-1" d="M403.13,96h-.23c0-.08,0-.15,0-.23h.23C403.14,95.83,403.13,95.91,403.13,96Z"/><path class="cls-1" d="M403.14,95.73l-.23,0s0-.07,0-.1,0-.09,0-.13l.23,0s0,.1,0,.15S403.14,95.71,403.14,95.73Z"/><path class="cls-1" d="M392.29,85.4h0a1.69,1.69,0,0,0,0-.23h0v.09A.66.66,0,0,0,392.29,85.4Z"/><path class="cls-1" d="M415.65,105.59c-.36,0-.71,0-1.08,0-.22,0-.43,0-.65,0v0a10.27,10.27,0,0,0,9.59-7v.67A10.49,10.49,0,0,1,415.65,105.59Z"/><path class="cls-1" d="M403.55,96a10.27,10.27,0,0,0,10.08,9.55v.06a7,7,0,0,0-.92.13A10.51,10.51,0,0,1,403.32,96h.23Z"/><path class="cls-1" d="M413.78,85c-.23,0-.45,0-.68,0v0l.32,0a10,10,0,0,0,1.65-.15,10.52,10.52,0,0,1,8.44,6.49V92A10.27,10.27,0,0,0,413.78,85Z"/><path class="cls-1" d="M412.81,85.05a10.28,10.28,0,0,0-9.3,10.22c0,.07,0,.14,0,.21l-.23,0c0-.08,0-.15,0-.23a10.51,10.51,0,0,1,8.85-10.36c.22,0,.45,0,.68.06Z"/><path class="cls-1" d="M403.4,95.74h-.09v0l.22,0v0Z"/><path class="cls-1" d="M413.69,105.58h-.06v-.06h.06Z"/><path class="cls-1" d="M403.4,95.74h.14a1.69,1.69,0,0,0,0,.23h-.23a1.77,1.77,0,0,1,0-.23Z"/><path class="cls-1" d="M412.81,85.05V85h.06V85Z"/><path class="cls-1" d="M403.53,95.71l-.22,0c0-.08,0-.16,0-.23l.23,0C403.52,95.56,403.53,95.64,403.53,95.71Z"/><path class="cls-1" d="M414.57,105.77c-.22,0-.44,0-.66,0v0a9.16,9.16,0,0,0,1.74-.17,10.49,10.49,0,0,1,7.86,5V111A10.24,10.24,0,0,0,414.57,105.77Z"/><path class="cls-1" d="M412.71,105.72c.31,0,.62,0,.93,0v.06a10.26,10.26,0,0,0-9.33,9.93h-.24A10.5,10.5,0,0,1,412.71,105.72Z"/><path class="cls-1" d="M413.68,105.82h0v-.06h0Z"/><path class="cls-1" d="M413.64,105.76c-.31,0-.62,0-.93,0a7,7,0,0,1,.92-.13A1,1,0,0,1,413.64,105.76Z"/><path class="cls-1" d="M414.57,105.54c.37,0,.72,0,1.08,0a9.16,9.16,0,0,1-1.74.17c0-.06,0-.12,0-.19C414.14,105.56,414.35,105.54,414.57,105.54Z"/><path class="cls-1" d="M413.69,105.58c0,.06,0,.12,0,.18h0a1,1,0,0,0,0-.17Z"/><path class="cls-1" d="M413.92,105.53h-.06c0-.3-.05-.58-.09-.87a10.51,10.51,0,0,1,8.53-9,9.29,9.29,0,0,0,1.06.05h.15v0A10.27,10.27,0,0,0,413.92,105.53Z"/><path class="cls-1" d="M413.8,107.61a10.24,10.24,0,0,0,.1-1.36c0-.15,0-.3,0-.44h0c0,.08,0,.16,0,.24a10.28,10.28,0,0,0,7,9.71h-.67A10.51,10.51,0,0,1,413.8,107.61Z"/><path class="cls-1" d="M413.9,106.25a10.24,10.24,0,0,1-.1,1.36,10.18,10.18,0,0,1-.13-1.57c0-.08,0-.15,0-.22h.2C413.88,106,413.9,106.1,413.9,106.25Z"/><path class="cls-1" d="M413.69,105.53c0-.29,0-.57.08-.86,0,.29.07.57.09.87h-.17Z"/><path class="cls-1" d="M413.86,105.54h.06v0h-.06Z"/><path class="cls-1" d="M413.69,105.58v0h.17v0Z"/><path class="cls-1" d="M413.91,105.76v0h0v0Z"/><path class="cls-1" d="M413.78,105.77h.09v0h-.2v-.06Z"/><path class="cls-1" d="M413.86,105.58h.06c0,.07,0,.13,0,.19h0A1.15,1.15,0,0,0,413.86,105.58Z"/><path class="cls-1" d="M413.87,105.77h-.19c0-.06,0-.12,0-.18h.17A1.15,1.15,0,0,1,413.87,105.77Z"/><path class="cls-1" d="M392.9,107.12c0-.33,0-.64,0-1h0v.08a10.6,10.6,0,0,0,.17,1.88,10.48,10.48,0,0,1-4.48,7.62h-.43A10.25,10.25,0,0,0,392.9,107.12Z"/><path class="cls-1" d="M393,105.23c0,.22,0,.45,0,.68h-.09a10.28,10.28,0,0,0-10.2-9.06h-.07v-.23h.07A10.53,10.53,0,0,1,393,105.23Z"/><path class="cls-1" d="M393.13,107.12a8.43,8.43,0,0,1-.06,1,10.6,10.6,0,0,1-.17-1.88v-.08h.18C393.11,106.49,393.13,106.8,393.13,107.12Z"/><path class="cls-1" d="M392.91,105.91c0-.23,0-.46,0-.68,0,.22.07.44.1.67Z"/><path class="cls-1" d="M392.91,105.94h-.09v0h.09Z"/><path class="cls-1" d="M393.06,105.94h-.15v0h.14A.06.06,0,0,0,393.06,105.94Z"/><path class="cls-1" d="M393.13,106.18v-.05l.83-.07a10.53,10.53,0,0,1,8.71,9.69h-.23A10.28,10.28,0,0,0,393.13,106.18Z"/><path class="cls-1" d="M392.85,106.14v0c-.22,0-.43,0-.65,0a10.28,10.28,0,0,0-9.65,6.79v-.65a10.5,10.5,0,0,1,8.34-6.28,10.08,10.08,0,0,0,1.75.16Z"/><path class="cls-1" d="M393.13,106.13v.05h-.05v-.05Z"/><path class="cls-1" d="M392.64,106.15a10.08,10.08,0,0,1-1.75-.16,11.22,11.22,0,0,1,1.31-.09c.21,0,.41,0,.62,0l0,.21Z"/><path class="cls-1" d="M394,106.06l-.83.07c0-.06,0-.12,0-.18A7.35,7.35,0,0,1,394,106.06Z"/><path class="cls-1" d="M393.06,105.94h.08c0,.06,0,.12,0,.18h-.05A1.11,1.11,0,0,1,393.06,105.94Z"/><path class="cls-1" d="M392.85,106.16v0h0v0Z"/><path class="cls-1" d="M393.08,106.18h-.18v0h.18Z"/><path class="cls-1" d="M392.9,106.14h0l0-.21h.09C392.91,106,392.9,106.07,392.9,106.14Z"/><path class="cls-1" d="M393.08,106.13h-.18c0-.07,0-.14,0-.2h.15A1.11,1.11,0,0,0,393.08,106.13Z"/><path class="cls-1" d="M402.45,75h.23a10.49,10.49,0,0,1-10.4,10.16,1.79,1.79,0,0,1,0-.23A10.27,10.27,0,0,0,402.45,75Z"/><path class="cls-1" d="M382.55,78.8v-.65A10.27,10.27,0,0,0,392,84.93a1.69,1.69,0,0,1,0,.23A10.5,10.5,0,0,1,382.55,78.8Z"/><path class="cls-1" d="M402.55,75h-.1c0-.07,0-.14,0-.21h.23c0,.07,0,.14,0,.21Z"/><path class="cls-1" d="M392.26,84.93h0a2.46,2.46,0,0,0,0,.26h0A2.35,2.35,0,0,0,392.26,84.93Z"/><path class="cls-1" d="M403,74.79h0Z"/><path class="cls-1" d="M412.79,84.73v.09c-.23,0-.45.05-.67.09a10.5,10.5,0,0,1-9.19-9.9h.23A10.27,10.27,0,0,0,412.79,84.73Z"/><path class="cls-1" d="M415.07,84.85a10.9,10.9,0,0,0-1.29-.08l-.67,0v0l.31,0a10.28,10.28,0,0,0,10.09-8.43v1A10.49,10.49,0,0,1,415.07,84.85Z"/><path class="cls-1" d="M403.17,75h-.23c0-.07,0-.15,0-.22h.23C403.16,74.87,403.17,75,403.17,75Z"/><path class="cls-1" d="M412.8,84.82v-.09h.09v.07Z"/><path class="cls-1" d="M412.13,84.91c.22,0,.44-.07.67-.09a.76.76,0,0,0,0,.15C412.58,85,412.35,84.94,412.13,84.91Z"/><path class="cls-1" d="M413.1,85c0-.06,0-.12,0-.18l.67,0a10.9,10.9,0,0,1,1.29.08,10,10,0,0,1-1.65.15Z"/><path class="cls-1" d="M412.87,85h-.06a.76.76,0,0,1,0-.15h.08S412.87,84.92,412.87,85Z"/><path class="cls-1" d="M423.51,75h-.15a10.28,10.28,0,0,0-10.25,9.76H413c0-.29,0-.57-.08-.85a10.5,10.5,0,0,1,9.93-9.11h.63Z"/><path class="cls-1" d="M422.3,95.71A10.52,10.52,0,0,1,413,86.62a10.12,10.12,0,0,0,.1-1.36c0-.07,0-.15,0-.23h.06c0,.08,0,.15,0,.23a10.27,10.27,0,0,0,10.27,10.27h.15v0A9.74,9.74,0,0,0,422.3,95.71Z"/><path class="cls-1" d="M412.88,84.74c0-.28,0-.56.07-.84,0,.28.06.56.08.85Z"/><path class="cls-1" d="M412.87,85H413c0,.08,0,.16,0,.23a10.12,10.12,0,0,1-.1,1.36,12.1,12.1,0,0,1-.09-1.36A1.7,1.7,0,0,1,412.87,85Z"/><path class="cls-1" d="M413.1,85v0H413v0Z"/><path class="cls-1" d="M412.87,85H413v0h-.17Z"/><path class="cls-1" d="M422.3,95.71a9.74,9.74,0,0,1,1.21-.14v.19h-.15A9.29,9.29,0,0,1,422.3,95.71Z"/><path class="cls-1" d="M413,84.75h.08v0H413Z"/><path class="cls-1" d="M412.88,84.81v-.07H413v0Z"/><path class="cls-1" d="M413,85c0-.06,0-.12,0-.18h.08c0,.06,0,.12,0,.18Z"/><path class="cls-1" d="M412.88,84.81H413c0,.06,0,.12,0,.18h-.17S412.88,84.86,412.88,84.81Z"/><path class="cls-1" d="M392.23,87.19a10.5,10.5,0,0,1-9.68,9.23v-.23A10.27,10.27,0,0,0,392.08,86c0-.19,0-.37,0-.55h0A10.43,10.43,0,0,0,392.23,87.19Z"/><path class="cls-1" d="M392.13,84a8.86,8.86,0,0,0-.07.9h0a10.28,10.28,0,0,0-9.48-9.21v-.23A10.52,10.52,0,0,1,392.13,84Z"/><path class="cls-1" d="M392.05,85.18h0v0h0Z"/><path class="cls-1" d="M392.06,84.93a8.86,8.86,0,0,1,.07-.9c.05.3.1.6.13.9h-.2Z"/><path class="cls-1" d="M392.23,87.19a10.43,10.43,0,0,1-.17-1.78h.22c0,.18,0,.37,0,.56A9.9,9.9,0,0,1,392.23,87.19Z"/><path class="cls-1" d="M392.05,85.16h0Z"/><path class="cls-1" d="M392.05,85.26a.76.76,0,0,0,0,.15h0a1.69,1.69,0,0,0,0-.23h0Z"/><path class="cls-1" d="M392.05,85.26v-.08h.22a1.69,1.69,0,0,1,0,.23h-.22A.76.76,0,0,1,392.05,85.26Z"/><path class="cls-1" d="M392,85.16a1.69,1.69,0,0,0,0-.23h0c0,.08,0,.15,0,.23Z"/><path class="cls-1" d="M392.2,85.17h-.15c0-.08,0-.15,0-.23h.2a1.85,1.85,0,0,1,0,.23Z"/><path class="cls-1" d="M402.69,74.77s0-.07,0-.11,0-.07,0-.11h.23c0,.08,0,.15,0,.23Z"/><path class="cls-1" d="M404.08,115.75c0,.08,0,.15,0,.23h-1.39c0-.07,0-.15,0-.23Z"/><path class="cls-1" d="M382.55,97.49c0-.21-.07-.42-.1-.64h.1Z"/><path class="cls-1" d="M382.55,96.62h-.13a1.21,1.21,0,0,0,0-.19h.14Z"/><path class="cls-1" d="M382.32,112.88V97.51a8.36,8.36,0,0,0,.23,1v13.77A6.37,6.37,0,0,0,382.32,112.88Z"/><path class="cls-1" d="M382.4,96.2c0-.18,0-.37,0-.55a10.16,10.16,0,0,1,.18-1.84v2.38Z"/><path class="cls-1" d="M399,115.75l.52.23H388.23l.36-.23Z"/><path class="cls-1" d="M382.55,115.75h5.61l-.37.23h-5.47v-2.35a5.88,5.88,0,0,1,.23-.71Z"/><path class="cls-1" d="M423.66,75a9.84,9.84,0,0,1-.15,1.33V75Z"/><path class="cls-1" d="M423.51,95.53V92a8.19,8.19,0,0,1,.23.81v2.7Z"/><path class="cls-1" d="M382.55,74.79v.7h-.23v-.93h20.14s0,.08,0,.11,0,.07,0,.11l-.39,0Z"/><path class="cls-1" d="M423.36,74.76c-.17,0-.32,0-.48,0H403.16c0-.08,0-.16,0-.24h20.54a1.79,1.79,0,0,1,0,.23Z"/><path class="cls-1" d="M423.51,77.35a8.52,8.52,0,0,0,.23-1V92a6.56,6.56,0,0,0-.23-.62Z"/><path class="cls-1" d="M402.44,115.75a1.69,1.69,0,0,0,0,.23h-2.3c-.21-.07-.42-.14-.63-.23Z"/><path class="cls-1" d="M382.55,92.79a8.52,8.52,0,0,0-.23,1V78.19c.07.2.14.41.23.61Z"/><path class="cls-1" d="M407.27,115.75a5.85,5.85,0,0,1-.63.23H404.3a1.79,1.79,0,0,1,0-.23Z"/><path class="cls-1" d="M423.51,115.75V111a3.68,3.68,0,0,1,.23.44V116h-2.08c-.27-.07-.53-.14-.79-.23Z"/><path class="cls-1" d="M423.51,99.2c.09-.21.16-.42.23-.63v12.37c-.07-.13-.15-.25-.23-.38Z"/><path class="cls-1" d="M423.51,95.8h.23v1.94a7.32,7.32,0,0,1-.23.8Z"/><path class="cls-1" d="M420.2,115.75c.2.09.42.16.63.23H407.31l.52-.23Z"/><path class="cls-1" d="M407.83,115.75l-.52.23h-.67a5.85,5.85,0,0,0,.63-.23Z"/><path class="cls-1" d="M399.52,115.75c.21.09.42.16.63.23h-.67l-.52-.23Z"/><path class="cls-1" d="M402.69,74.79v0h0Z"/><path class="cls-3" d="M402.07,74.79l.39,0v0Z"/><path class="cls-1" d="M382.55,92.79v1a10.16,10.16,0,0,0-.18,1.84c0,.18,0,.37,0,.55h-.08V93.79A8.52,8.52,0,0,1,382.55,92.79Z"/><path class="cls-1" d="M382.42,96.62h-.1v-.2h.09A1.21,1.21,0,0,1,382.42,96.62Z"/><path class="cls-1" d="M382.55,97.49v1a8.36,8.36,0,0,1-.23-1v-.65h.13C382.48,97.07,382.51,97.28,382.55,97.49Z"/><path class="cls-1" d="M423.51,98.53a7.32,7.32,0,0,0,.23-.8v.84c-.07.21-.14.42-.23.63Z"/><path class="cls-1" d="M423.51,91.34a6.56,6.56,0,0,1,.23.62v.85a8.19,8.19,0,0,0-.23-.81Z"/><path class="cls-1" d="M423.51,110.56c.08.13.16.25.23.38v.51a3.68,3.68,0,0,0-.23-.44Z"/><path class="cls-1" d="M404.32,115.75a1.79,1.79,0,0,0,0,.23h-.23c0-.08,0-.15,0-.23Z"/><path class="cls-1" d="M420.87,115.75c.26.09.52.16.79.23h-.83c-.21-.07-.43-.14-.63-.23Z"/><path class="cls-1" d="M423.51,95.76l.23,0v.05h-.23Z"/><path class="cls-1" d="M388.59,115.75l-.36.23h-.44l.37-.23Z"/><path class="cls-1" d="M382.55,96.85h-.1l0-.23h.13Z"/><path class="cls-1" d="M382.45,96.85h-.13v-.23h.1Z"/><path class="cls-1" d="M402.67,115.75c0,.08,0,.16,0,.23h-.23a1.69,1.69,0,0,1,0-.23Z"/><path class="cls-1" d="M382.55,112.92a5.88,5.88,0,0,0-.23.71v-.75a6.37,6.37,0,0,1,.23-.61Z"/><path class="cls-1" d="M402.69,74.77h-.23s0-.07,0-.11,0-.07,0-.11h.23s0,.08,0,.11S402.69,74.73,402.69,74.77Z"/><path class="cls-1" d="M402.46,74.79v0h.23v0Z"/><path class="cls-1" d="M423.69,74.55h.05v.23h-.07A1.79,1.79,0,0,0,423.69,74.55Z"/><path class="cls-1" d="M423.51,77.35v-1a9.84,9.84,0,0,0,.15-1.33h.08v1.34A8.52,8.52,0,0,1,423.51,77.35Z"/><path class="cls-1" d="M403.16,74.79h-.23c0-.08,0-.15,0-.23h.23C403.15,74.63,403.16,74.71,403.16,74.79Z"/><path class="cls-1" d="M402.93,74.78h0Z"/><path class="cls-1" d="M423.51,74.79h-.63c.16,0,.31,0,.48,0l.31,0a1.85,1.85,0,0,1,0,.23h-.15Z"/><path class="cls-1" d="M423.51,95.53l.23,0v0h-.23Z"/><path class="cls-1" d="M423.51,95.57h.23v.18l-.23,0Z"/><path class="cls-1" d="M423.67,74.78h.07V75h-.08A1.85,1.85,0,0,0,423.67,74.78Z"/><path class="cls-1" d="M382.55,96.42h-.14a1.77,1.77,0,0,0,0-.23h.15Z"/><path class="cls-1" d="M382.41,96.43h-.09V96.2h.08A1.77,1.77,0,0,1,382.41,96.43Z"/><path class="cls-1" d="M392.48,100.24V97.49a.17.17,0,0,1,.33,0v2.75a.17.17,0,0,1-.33,0Z"/><path class="cls-1" d="M392.4,94.66V91.91a.16.16,0,0,1,.32,0v2.75a.16.16,0,0,1-.32,0Z"/><path class="cls-1" d="M395.2,98.93a15.33,15.33,0,0,1-1.54-1.58.16.16,0,1,1,.23-.23,13.53,13.53,0,0,0,1.54,1.58.16.16,0,0,1,0,.23.17.17,0,0,1-.23,0Z"/><path class="cls-1" d="M396.32,96.22l-2-.14c-.21,0-.21-.33,0-.32l2,.13c.21,0,.21.34,0,.33Z"/><path class="cls-1" d="M391.15,94.87l-1.42-1.2a.16.16,0,0,1,.23-.23l1.42,1.2a.16.16,0,0,1-.23.23Z"/><path class="cls-1" d="M391.21,96.2H389a.16.16,0,0,1,0-.32h2.25a.17.17,0,0,1,0,.33Z"/><path class="cls-1" d="M391.5,97.35,390,98.73a.16.16,0,0,1-.23,0,.17.17,0,0,1,0-.22l1.56-1.39a.17.17,0,0,1,.22,0,.16.16,0,0,1,0,.23Z"/><path class="cls-1" d="M395.32,93.65,393.77,95a.17.17,0,0,1-.23,0,.16.16,0,0,1,0-.23l1.55-1.38a.17.17,0,0,1,.23,0,.18.18,0,0,1,0,.23Z"/><circle class="cls-1" cx="392.56" cy="95.99" r="0.48"/><path class="cls-1" d="M393.07,96a.51.51,0,1,1-.51-.51A.51.51,0,0,1,393.07,96ZM393,96a.45.45,0,1,0-.45.45A.45.45,0,0,0,393,96Z"/><path class="cls-1" d="M413.26,99.73V97a.16.16,0,0,1,.32,0v2.75a.16.16,0,0,1-.32,0Z"/><path class="cls-1" d="M413.17,94.14V91.4a.16.16,0,0,1,.32,0v2.74a.16.16,0,0,1-.32,0Z"/><path class="cls-1" d="M416,98.41a13.43,13.43,0,0,1-1.54-1.57.16.16,0,0,1,0-.23.15.15,0,0,1,.22,0,16.41,16.41,0,0,0,1.54,1.58.16.16,0,1,1-.22.22Z"/><path class="cls-1" d="M417.1,95.7l-2-.13c-.2,0-.2-.34,0-.32l2,.13c.2,0,.21.33,0,.32Z"/><path class="cls-1" d="M411.92,94.36l-1.42-1.21a.17.17,0,0,1,0-.22.16.16,0,0,1,.23,0l1.42,1.2a.16.16,0,0,1,0,.23.18.18,0,0,1-.23,0Z"/><path class="cls-1" d="M412,95.68h-2.24a.17.17,0,0,1,0-.33H412a.16.16,0,0,1,0,.32Z"/><path class="cls-1" d="M412.28,96.84l-1.55,1.38a.17.17,0,0,1-.23,0,.16.16,0,0,1,0-.23l1.55-1.38a.16.16,0,0,1,.23.23Z"/><path class="cls-1" d="M416.09,93.13l-1.55,1.39a.18.18,0,0,1-.23,0,.17.17,0,0,1,0-.23l1.55-1.38a.16.16,0,0,1,.23,0,.16.16,0,0,1,0,.22Z"/><circle class="cls-1" cx="413.33" cy="95.47" r="0.48"/><path class="cls-1" d="M413.85,95.47a.52.52,0,1,1-.52-.51A.52.52,0,0,1,413.85,95.47Zm-.07,0a.45.45,0,1,0-.45.45A.45.45,0,0,0,413.78,95.47Z"/><path class="cls-1" d="M402.88,89.05V86.3a.16.16,0,0,1,.32,0v2.75a.16.16,0,0,1-.32,0Z"/><path class="cls-1" d="M402.79,83.46V80.72a.17.17,0,0,1,.33,0v2.74a.17.17,0,0,1-.33,0Z"/><path class="cls-1" d="M405.6,87.73a14.27,14.27,0,0,1-1.54-1.57.16.16,0,0,1,.23-.23,14.34,14.34,0,0,0,1.54,1.58.16.16,0,0,1,0,.22.16.16,0,0,1-.23,0Z"/><path class="cls-1" d="M406.72,85l-2-.13c-.21,0-.21-.34,0-.32l2,.13c.21,0,.21.34,0,.32Z"/><path class="cls-1" d="M401.55,83.68l-1.42-1.21a.16.16,0,0,1,.22-.22l1.42,1.2a.16.16,0,0,1,0,.23.17.17,0,0,1-.22,0Z"/><path class="cls-1" d="M401.61,85h-2.25a.17.17,0,0,1,0-.33h2.25a.16.16,0,0,1,0,.32Z"/><path class="cls-1" d="M401.9,86.16l-1.55,1.38a.16.16,0,1,1-.23-.23l1.55-1.38a.16.16,0,0,1,.23.23Z"/><path class="cls-1" d="M405.71,82.45l-1.55,1.39a.18.18,0,0,1-.23,0,.17.17,0,0,1,0-.23l1.55-1.38a.16.16,0,0,1,.23,0,.15.15,0,0,1,0,.22Z"/><circle class="cls-1" cx="402.95" cy="84.79" r="0.48"/><path class="cls-1" d="M403.47,84.79a.52.52,0,1,1-.52-.51A.52.52,0,0,1,403.47,84.79Zm-.07,0a.45.45,0,1,0-.45.45A.45.45,0,0,0,403.4,84.79Z"/><path class="cls-4" d="M236.37,144.18c-.08-.38-.24-.69-.66-.69a5.64,5.64,0,0,1-.92,0l-.71-.14a2,2,0,0,0-1.33.14.13.13,0,0,0-.07.09,6.42,6.42,0,0,0-4.47,3.68,7.7,7.7,0,0,0-.52,3,10.06,10.06,0,0,0-.15,1.43c.07.43.43.56.81.64a8,8,0,0,0,3.23.19,7.52,7.52,0,0,0,3-1.37,5.58,5.58,0,0,0,2.08-5.08C236.61,145.47,236.51,144.81,236.37,144.18ZM228.84,150a.13.13,0,0,1-.1.17.14.14,0,0,1-.17-.1.14.14,0,1,1,.27-.07Zm.35,1.21a.14.14,0,0,1-.1.17.15.15,0,0,1-.17-.1.14.14,0,0,1,.1-.17A.14.14,0,0,1,229.19,151.16Zm-.09-2.69a.14.14,0,1,1-.27.07.14.14,0,0,1,.27-.07Zm.77,1a.14.14,0,0,1-.09.17.13.13,0,0,1-.17-.1.13.13,0,1,1,.26-.07Zm3.5-4.13a.15.15,0,0,1-.1.17.13.13,0,0,1-.17-.1.14.14,0,1,1,.27-.07Zm.77,1.22a.14.14,0,0,1-.27.08.13.13,0,0,1,.1-.17A.14.14,0,0,1,234.14,146.52Zm.52-1.08a.14.14,0,1,1-.17-.1A.15.15,0,0,1,234.66,145.44Zm.67,1.65a.14.14,0,1,1-.27.07.14.14,0,1,1,.27-.07Z"/><path class="cls-1" d="M245.12,119.29h-2.74a.16.16,0,0,1,0-.32h2.74a.16.16,0,0,1,0,.32Z"/><path class="cls-1" d="M239.54,119.38H236.8a.17.17,0,0,1,0-.33h2.74a.17.17,0,0,1,0,.33Z"/><path class="cls-1" d="M243.81,116.57a13.53,13.53,0,0,1-1.58,1.54.15.15,0,0,1-.22,0,.16.16,0,0,1,0-.23,13.43,13.43,0,0,0,1.57-1.54.17.17,0,0,1,.23,0,.16.16,0,0,1,0,.23Z"/><path class="cls-1" d="M241.1,115.45l-.13,2c0,.21-.34.21-.33,0l.14-2c0-.21.33-.21.32,0Z"/><path class="cls-1" d="M239.76,120.62,238.55,122a.16.16,0,0,1-.23,0,.18.18,0,0,1,0-.23l1.21-1.41a.16.16,0,0,1,.23,0,.17.17,0,0,1,0,.22Z"/><path class="cls-1" d="M241.08,120.56v2.25a.16.16,0,0,1-.32,0v-2.25a.16.16,0,0,1,.32,0Z"/><path class="cls-1" d="M242.23,120.27l1.39,1.55a.16.16,0,1,1-.23.23L242,120.5a.16.16,0,0,1,0-.23.16.16,0,0,1,.22,0Z"/><path class="cls-1" d="M238.53,116.46l1.38,1.55a.16.16,0,0,1,0,.23.16.16,0,0,1-.22,0l-1.39-1.55a.18.18,0,0,1,0-.23.16.16,0,0,1,.23,0Z"/><circle class="cls-1" cx="240.87" cy="119.22" r="0.48"/><path class="cls-1" d="M240.87,118.7a.52.52,0,1,1-.51.52A.52.52,0,0,1,240.87,118.7Zm0,.07a.45.45,0,1,0,.45.45A.45.45,0,0,0,240.87,118.77Z"/><path class="cls-2" d="M230.47,119.1h0a.86.86,0,0,1,0-.16h0C230.46,119,230.47,119.05,230.47,119.1Z"/><path class="cls-1" d="M242.85,129.17c-.34,0-.68,0-1,0s-.63,0-.94,0v0H241a10.3,10.3,0,0,0,9.51-6.4v.56A10.54,10.54,0,0,1,242.85,129.17Z"/><path class="cls-1" d="M230.46,118.94h.23c0,.06,0,.12,0,.19l-.23,0S230.46,119,230.46,118.94Z"/><path class="cls-1" d="M240.61,129.1v.1c-.22,0-.45.06-.67.1a10.51,10.51,0,0,1-9.46-10h.23A10.27,10.27,0,0,0,240.61,129.1Z"/><path class="cls-1" d="M240.25,108.61a10.26,10.26,0,0,0-9.55,10.09h-.24a10.52,10.52,0,0,1,8.92-10.23,8.5,8.5,0,0,0,.87.07Z"/><path class="cls-1" d="M241,108.58l-.43,0v0h.22a11.46,11.46,0,0,0,1.57-.13,10.53,10.53,0,0,1,8.15,6V115A10.3,10.3,0,0,0,241,108.58Z"/><path class="cls-1" d="M230.43,118.71h-.23a10.28,10.28,0,0,0-10.22-9.3l-.22,0v-.06H220a10,10,0,0,0,1.35-.1A10.52,10.52,0,0,1,230.43,118.71Z"/><path class="cls-1" d="M230.45,119.1h-.23a.86.86,0,0,1,0-.16h.23A.86.86,0,0,0,230.45,119.1Z"/><path class="cls-1" d="M219.45,109.45a10.27,10.27,0,0,0-9.71,9.62h-.24a10.52,10.52,0,0,1,9.12-9.79,7.53,7.53,0,0,0,.83.07Z"/><path class="cls-1" d="M221.91,130a10.19,10.19,0,0,0-1.24-.08c-.19,0-.37,0-.56,0h0a10.28,10.28,0,0,0,10.14-10.26c0-.13,0-.24,0-.36h.23c0,.13,0,.24,0,.37A10.51,10.51,0,0,1,221.91,130Z"/><path class="cls-1" d="M219.64,130v0a9.07,9.07,0,0,0-.91.14,10.51,10.51,0,0,1-9.24-9.94v-.4h.21A10.28,10.28,0,0,0,219.64,130Z"/><polygon class="cls-3" points="219.88 129.97 219.88 129.96 219.88 129.96 219.88 129.97 219.88 129.97"/><path class="cls-1" d="M228.51,139.93h2.41v.14c-.18,0-.37,0-.56,0A10.27,10.27,0,0,1,228.51,139.93Z"/><path class="cls-1" d="M219.89,130.2h.23a10.27,10.27,0,0,0,8.4,9.51h-1A10.52,10.52,0,0,1,219.89,130.2Z"/><path class="cls-1" d="M240.63,129.6a1,1,0,0,0,0-.17h0c0,.21,0,.42,0,.63a11.37,11.37,0,0,0,.09,1.31,10.52,10.52,0,0,1-7.48,8.34h-1A10.28,10.28,0,0,0,240.63,129.6Z"/><path class="cls-1" d="M240.61,129.1a10.27,10.27,0,0,0-9.9-9.75c0-.08,0-.16,0-.23a10.49,10.49,0,0,1,10.07,9.17c0,.27-.08.54-.11.81Z"/><path class="cls-1" d="M231.34,139.93s0,.08,0,.12h-.2v-.13Z"/><path class="cls-1" d="M230.48,119.34h0c0-.07,0-.15,0-.23h0C230.47,119.18,230.48,119.26,230.48,119.34Z"/><path class="cls-1" d="M220.09,129.6c0,.12,0,.24,0,.36h-.23c0-.12,0-.24,0-.36a10.51,10.51,0,0,1,10.36-10.49c0,.07,0,.15,0,.23A10.28,10.28,0,0,0,220.09,129.6Z"/><path class="cls-1" d="M231.58,140a.31.31,0,0,0,0-.1h.65Z"/><path class="cls-1" d="M240.66,129.19h0v-.1h0Z"/><path class="cls-1" d="M230.7,119.12c0,.07,0,.15,0,.23h-.23c0-.08,0-.16,0-.24Z"/><path class="cls-1" d="M230.45,119.1c0,.08,0,.16,0,.23h-.23c0-.08,0-.16,0-.23h.23Z"/><path class="cls-1" d="M220.11,130Z"/><path class="cls-1" d="M240.31,106.6a9.46,9.46,0,0,0-.06,1.07c0,.22,0,.44,0,.65h0a10.29,10.29,0,0,0-7-9.59h.66A10.56,10.56,0,0,1,240.31,106.6Z"/><path class="cls-1" d="M230.7,118.7a10.28,10.28,0,0,0,9.55-10.09h.05c0,.31.07.62.13.93a10.53,10.53,0,0,1-9.74,9.39v-.08A.76.76,0,0,1,230.7,118.7Z"/><path class="cls-1" d="M219.71,108.46c0,.23,0,.46,0,.69h-.06c0-.11,0-.21,0-.32a11,11,0,0,0-.14-1.65,10.52,10.52,0,0,1,6.48-8.45h.67A10.28,10.28,0,0,0,219.71,108.46Z"/><path class="cls-1" d="M219.76,109.44A10.28,10.28,0,0,0,230,118.73h.22a1.69,1.69,0,0,0,0,.23H230a10.51,10.51,0,0,1-10.36-8.84c0-.23,0-.45.06-.68Z"/><path class="cls-1" d="M230.46,118.85v.09h0a1.77,1.77,0,0,1,0-.23h0Z"/><path class="cls-1" d="M240.3,108.55v.06h-.05v-.06Z"/><path class="cls-1" d="M230.46,118.85v-.14h.24a.76.76,0,0,0,0,.15v.08h-.23Z"/><path class="cls-1" d="M219.76,109.44h-.08v-.06h.08Z"/><path class="cls-1" d="M230.43,118.71a1.77,1.77,0,0,0,0,.23h-.23a1.69,1.69,0,0,1,0-.23Z"/><path class="cls-1" d="M240.48,107.67c0,.23,0,.45,0,.67h0a10.91,10.91,0,0,0-.17-1.73,10.51,10.51,0,0,1,5-7.87h.44A10.29,10.29,0,0,0,240.48,107.67Z"/><path class="cls-1" d="M240.43,109.54c0-.31,0-.62,0-.94h.05a10.28,10.28,0,0,0,9.94,9.33v.23A10.51,10.51,0,0,1,240.43,109.54Z"/><path class="cls-1" d="M240.53,108.57v0h-.05v0Z"/><path class="cls-1" d="M240.48,108.6c0,.32,0,.63,0,.94-.06-.31-.1-.62-.13-.93Z"/><path class="cls-1" d="M240.25,107.67a9.46,9.46,0,0,1,.06-1.07,10.91,10.91,0,0,1,.17,1.73h-.19C240.27,108.11,240.25,107.89,240.25,107.67Z"/><path class="cls-1" d="M240.3,108.55h.18v0h-.18Z"/><path class="cls-1" d="M240.25,108.32v.06c-.29,0-.58.06-.87.1a10.52,10.52,0,0,1-9-8.53,9.28,9.28,0,0,0,.06-1.06s0-.11,0-.16h0A10.26,10.26,0,0,0,240.25,108.32Z"/><path class="cls-1" d="M242.32,108.45a10.12,10.12,0,0,0-1.36-.1l-.44,0v0h.23a10.29,10.29,0,0,0,9.72-7v.67A10.55,10.55,0,0,1,242.32,108.45Z"/><path class="cls-1" d="M241,108.35a10.12,10.12,0,0,1,1.36.1,11.46,11.46,0,0,1-1.57.13h-.22a1.41,1.41,0,0,1,0-.2Z"/><path class="cls-1" d="M240.25,108.55a8.5,8.5,0,0,1-.87-.07c.29,0,.58-.08.87-.1v.17Z"/><path class="cls-1" d="M240.25,108.38v-.06h0v.06Z"/><path class="cls-1" d="M240.3,108.55h-.05v-.17h0A.91.91,0,0,0,240.3,108.55Z"/><path class="cls-1" d="M240.48,108.33h0v0h0Z"/><path class="cls-1" d="M240.48,108.46v-.09h0a1.41,1.41,0,0,0,0,.2h-.05Z"/><path class="cls-1" d="M240.29,108.38v-.06h.19v0Z"/><path class="cls-1" d="M240.48,108.37v.19h-.18a.91.91,0,0,1,0-.17Z"/><path class="cls-1" d="M241.83,129.35c-.32,0-.64,0-1,.05v-.05H241a10.81,10.81,0,0,0,1.89-.18,10.53,10.53,0,0,1,7.62,4.49v.42A10.28,10.28,0,0,0,241.83,129.35Z"/><path class="cls-1" d="M239.94,129.3c.23,0,.45,0,.68,0v.1a10.28,10.28,0,0,0-9.06,10.19v.08h-.23v-.08A10.51,10.51,0,0,1,239.94,129.3Z"/><path class="cls-1" d="M241.83,129.12c.34,0,.68,0,1,0a10.81,10.81,0,0,1-1.89.18h-.08a1.09,1.09,0,0,1,0-.18C241.2,129.14,241.51,129.12,241.83,129.12Z"/><path class="cls-1" d="M240.62,129.33c-.23,0-.45,0-.68,0,.22,0,.45-.08.67-.1C240.61,129.24,240.62,129.29,240.62,129.33Z"/><path class="cls-1" d="M240.65,129.33v.09h0v-.1Z"/><path class="cls-1" d="M231.57,139.93a.31.31,0,0,1,0,.1l-.23,0s0-.08,0-.12Z"/><path class="cls-1" d="M240.66,129.19a.71.71,0,0,0,0,.14h0s0-.09,0-.13Z"/><path class="cls-1" d="M240.89,129.12h0a7.56,7.56,0,0,0-.07-.82,10.51,10.51,0,0,1,9.7-8.71v.23A10.27,10.27,0,0,0,240.89,129.12Z"/><path class="cls-1" d="M240.85,129.4h0c0,.21,0,.43,0,.65a10.28,10.28,0,0,0,6.79,9.65H247a10.57,10.57,0,0,1-6.28-8.34,10.19,10.19,0,0,0,.16-1.76A1.34,1.34,0,0,0,240.85,129.4Z"/><path class="cls-1" d="M240.84,129.11h0v0h0Z"/><path class="cls-1" d="M240.86,129.6a10.19,10.19,0,0,1-.16,1.76,11.37,11.37,0,0,1-.09-1.31c0-.21,0-.42,0-.63l.2,0A1.34,1.34,0,0,1,240.86,129.6Z"/><path class="cls-1" d="M240.77,128.29a7.56,7.56,0,0,1,.07.82h-.18C240.69,128.83,240.73,128.56,240.77,128.29Z"/><path class="cls-1" d="M240.66,129.19v-.09h.18v.06Z"/><path class="cls-1" d="M240.88,129.4h0v-.06h0Z"/><path class="cls-1" d="M240.89,129.17a1.09,1.09,0,0,0,0,.18h0c0-.05,0-.11,0-.17Z"/><path class="cls-1" d="M240.85,129.34v.06l-.2,0v-.09Z"/><path class="cls-1" d="M240.84,129.17c0,.06,0,.12,0,.17h-.2a.71.71,0,0,1,0-.14Z"/><path class="cls-1" d="M209.71,119.79s0-.06,0-.09,0-.09,0-.14A10.51,10.51,0,0,1,219.88,130h-.24A10.27,10.27,0,0,0,209.71,119.79Z"/><path class="cls-1" d="M213.51,139.7h-.65a10.28,10.28,0,0,0,6.78-9.48l.23,0A10.5,10.5,0,0,1,213.51,139.7Z"/><path class="cls-3" d="M209.7,119.7s0,.06,0,.09h-.21v-.23h.21S209.7,119.65,209.7,119.7Z"/><path class="cls-1" d="M219.65,130s0,0,0,0h0Z"/><path class="cls-3" d="M209.5,119.21v-.13h0Z"/><path class="cls-1" d="M219.45,109.45h.08c0,.22.06.44.09.67a10.5,10.5,0,0,1-9.9,9.18c0-.07,0-.15,0-.23A10.26,10.26,0,0,0,219.45,109.45Z"/><path class="cls-1" d="M219.57,107.18a10.86,10.86,0,0,0-.09,1.28c0,.23,0,.45,0,.68h0c0-.1,0-.2,0-.3a10.28,10.28,0,0,0-8.43-10.1h1A10.53,10.53,0,0,1,219.57,107.18Z"/><path class="cls-1" d="M219.53,109.45h-.08v-.09h.08Z"/><path class="cls-1" d="M219.62,110.12c0-.23-.07-.45-.09-.67h.15C219.67,109.67,219.65,109.89,219.62,110.12Z"/><path class="cls-1" d="M219.69,109.15h-.18c0-.23,0-.45,0-.68a10.86,10.86,0,0,1,.09-1.28,11,11,0,0,1,.14,1.65C219.71,108.94,219.7,109,219.69,109.15Z"/><path class="cls-1" d="M219.68,109.38v.06h-.15v-.08Z"/><path class="cls-1" d="M209.71,98.73s0,.11,0,.16a10.27,10.27,0,0,0,9.76,10.24v.09c-.28,0-.57,0-.84.07a10.49,10.49,0,0,1-9.12-9.92v-.64Z"/><path class="cls-1" d="M230.42,100a10.5,10.5,0,0,1-9.09,9.34,10,10,0,0,0-1.35-.1l-.23,0v-.06H220a10.29,10.29,0,0,0,10.27-10.27s0-.11,0-.16h0C230.31,99.14,230.35,99.55,230.42,100Z"/><path class="cls-1" d="M219.45,109.36a7.53,7.53,0,0,1-.83-.07c.27,0,.56-.06.84-.07A.61.61,0,0,1,219.45,109.36Z"/><path class="cls-1" d="M219.76,109.38a1,1,0,0,1,0-.17l.23,0a10,10,0,0,1,1.35.1,10,10,0,0,1-1.35.1Z"/><path class="cls-1" d="M219.69,109.15h.06v.06h-.06Z"/><path class="cls-1" d="M219.68,109.38a1,1,0,0,0,0-.17h.06a1,1,0,0,0,0,.17Z"/><path class="cls-1" d="M230.42,100c-.07-.4-.11-.81-.14-1.22h.19s0,.11,0,.16A9.28,9.28,0,0,1,230.42,100Z"/><path class="cls-1" d="M219.46,109.22v-.09h0a.19.19,0,0,1,0,.08Z"/><path class="cls-1" d="M219.53,109.37h-.08a.61.61,0,0,0,0-.14h.06A.76.76,0,0,0,219.53,109.37Z"/><path class="cls-1" d="M219.69,109.21h-.17a.19.19,0,0,0,0-.08h.18Z"/><path class="cls-1" d="M219.53,109.37a.76.76,0,0,1,0-.15h.17a1,1,0,0,1,0,.17Z"/><path class="cls-1" d="M221.91,130a10.53,10.53,0,0,1,9.23,9.69h-.24a10.27,10.27,0,0,0-10.23-9.54l-.55,0h0A10.54,10.54,0,0,0,221.91,130Z"/><path class="cls-1" d="M218.74,130.12l.9.06v0a10.26,10.26,0,0,0-9.2,9.48h-.23A10.5,10.5,0,0,1,218.74,130.12Z"/><path class="cls-1" d="M219.89,130.19h0Z"/><path class="cls-1" d="M219.64,130.18l-.9-.06a9.07,9.07,0,0,1,.91-.14v.07S219.64,130.14,219.64,130.18Z"/><path class="cls-1" d="M221.91,130a10.54,10.54,0,0,1-1.79.18c0-.08,0-.15,0-.23.19,0,.37,0,.56,0A10.19,10.19,0,0,1,221.91,130Z"/><path class="cls-1" d="M219.87,130.19c0-.05,0-.09,0-.14V130h0c0,.08,0,.15,0,.22Z"/><path class="cls-1" d="M220,130.2h0Z"/><path class="cls-1" d="M230.92,139.93h.23v.13h-.23Z"/><path class="cls-1" d="M220,130.2h-.09c0-.07,0-.14,0-.22h.23c0,.08,0,.15,0,.23Z"/><path class="cls-1" d="M219.87,130.2l-.23,0v0h.23Z"/><path class="cls-1" d="M219.88,130.05s0,.09,0,.14h-.23s0-.09,0-.13V130h.23Z"/><path class="cls-1" d="M250.47,118.16h.23v1.4h-.23Z"/><path class="cls-1" d="M232.2,139.7l-.63.1s0-.07,0-.1Z"/><path class="cls-1" d="M231.33,139.7s0,.08,0,.12h-.2v-.13Z"/><path class="cls-1" d="M247.59,139.93H232.22c.34-.06.67-.14,1-.23H247Z"/><path class="cls-1" d="M230.91,139.84c-.18,0-.36,0-.55,0a10.16,10.16,0,0,1-1.84-.17h2.38A.71.71,0,0,1,230.91,139.84Z"/><path class="cls-1" d="M250.47,123.28c.08-.17.15-.34.23-.52V134l-.23-.36Z"/><path class="cls-1" d="M250.47,139.7v-5.62l.23.38v5.47h-2.36l-.71-.23Z"/><path class="cls-1" d="M209.72,98.58a11.51,11.51,0,0,1,1.33.15h-1.34S209.72,98.63,209.72,98.58Z"/><path class="cls-1" d="M230.24,98.73h-3.52c.26-.09.53-.16.8-.23h2.71C230.23,98.58,230.24,98.65,230.24,98.73Z"/><path class="cls-1" d="M209.5,139.7h.71c0,.07,0,.15,0,.23h-.92V119.78h.21c0,.14,0,.27,0,.4Z"/><path class="cls-1" d="M209.47,98.89c0,.16,0,.32,0,.48v19.71l-.23,0V98.56h.22C209.49,98.68,209.47,98.78,209.47,98.89Z"/><path class="cls-1" d="M212.06,98.73c-.32-.09-.66-.17-1-.23h15.62l-.63.23Z"/><path class="cls-1" d="M250.47,119.81h.23v2.3c-.08.21-.15.42-.23.62Z"/><path class="cls-1" d="M227.51,139.7c.32.09.66.17,1,.23H212.9l.61-.23Z"/><path class="cls-1" d="M250.47,115l.23.63v2.34h-.23Z"/><path class="cls-1" d="M250.47,98.73h-4.75l.44-.23h4.54v2.09c-.07.27-.15.53-.23.79Z"/><path class="cls-1" d="M233.91,98.73l-.62-.23h12.37l-.38.23Z"/><path class="cls-1" d="M230.51,98.73c0-.08,0-.15,0-.23h1.94c.27.07.54.14.81.23Z"/><path class="cls-1" d="M250.47,102.05l.23-.63v13.51c-.08-.17-.15-.34-.23-.52Z"/><path class="cls-1" d="M250.47,114.41c.08.18.15.35.23.52v.67l-.23-.63Z"/><path class="cls-1" d="M250.47,122.72c.08-.2.15-.41.23-.62v.66c-.08.18-.15.35-.23.52Z"/><path class="cls-1" d="M227.51,139.7h1a10.16,10.16,0,0,0,1.84.17c.19,0,.37,0,.55,0v.09h-2.41C228.17,139.87,227.83,139.79,227.51,139.7Z"/><path class="cls-1" d="M231.34,139.82v.11h-.19s0-.07,0-.1Z"/><path class="cls-1" d="M232.2,139.7h1c-.33.09-.66.17-1,.23h-.65v-.13Z"/><path class="cls-1" d="M233.25,98.73c-.27-.09-.54-.16-.81-.23h.85l.62.23Z"/><path class="cls-1" d="M226.05,98.73l.63-.23h.84c-.27.07-.54.14-.8.23Z"/><path class="cls-1" d="M245.28,98.73l.38-.23h.5l-.44.23Z"/><path class="cls-1" d="M250.47,117.93h.23v.23h-.23Z"/><path class="cls-1" d="M250.47,101.38c.08-.26.16-.52.23-.79v.83l-.23.63Z"/><path class="cls-1" d="M230.47,98.73c0-.08,0-.15,0-.23h0c0,.08,0,.15,0,.23Z"/><path class="cls-1" d="M250.47,133.66l.23.36v.44l-.23-.38Z"/><path class="cls-1" d="M231.56,139.7s0,.06,0,.1l-.23,0s0-.08,0-.12Z"/><path class="cls-1" d="M231.57,139.8v.13h-.23v-.11Z"/><path class="cls-1" d="M250.47,119.58h.23v.23h-.23Z"/><path class="cls-1" d="M247.63,139.7l.71.23h-.75l-.61-.23Z"/><path class="cls-3" d="M209.5,119.78h0s0-.06,0-.08,0-.1,0-.15h0Z"/><path class="cls-1" d="M209.27,98.56V98.5h.22v.07Z"/><path class="cls-1" d="M212.06,98.73h-1a11.51,11.51,0,0,0-1.33-.15V98.5h1.34C211.4,98.56,211.74,98.64,212.06,98.73Z"/><path class="cls-1" d="M209.5,98.73v.64c0-.16,0-.32,0-.48s0-.21,0-.32h.23s0,.1,0,.15Z"/><path class="cls-1" d="M230.24,98.73c0-.08,0-.15,0-.23h0c0,.08,0,.15,0,.23Z"/><path class="cls-1" d="M230.28,98.73c0-.08,0-.15,0-.23h.19c0,.08,0,.15,0,.23Z"/><path class="cls-1" d="M209.49,98.57V98.5h.23v.08Z"/><path class="cls-1" d="M231.14,139.7v.13h-.23a.71.71,0,0,0,0-.14Z"/><path class="cls-1" d="M231.14,139.83s0,.07,0,.1h-.23v-.09Z"/><path class="cls-1" d="M234.44,109h-2.75a.16.16,0,0,1,0-.32h2.75a.16.16,0,0,1,0,.32Z"/><path class="cls-1" d="M228.86,109.07h-2.75a.16.16,0,0,1,0-.32h2.75a.16.16,0,0,1,0,.32Z"/><path class="cls-1" d="M233.13,106.27a15.31,15.31,0,0,1-1.58,1.54.18.18,0,0,1-.23,0,.16.16,0,0,1,0-.23A13.53,13.53,0,0,0,232.9,106a.16.16,0,0,1,.23.23Z"/><path class="cls-1" d="M230.41,105.15l-.13,2c0,.21-.33.21-.32,0l.13-2c0-.21.34-.21.32,0Z"/><path class="cls-1" d="M229.07,110.32l-1.2,1.42a.16.16,0,0,1-.23-.23l1.2-1.42a.18.18,0,0,1,.23,0,.16.16,0,0,1,0,.23Z"/><path class="cls-1" d="M230.4,110.26v2.25a.16.16,0,0,1-.32,0v-2.25a.17.17,0,0,1,.33,0Z"/><path class="cls-1" d="M231.55,110l1.38,1.55a.16.16,0,0,1,0,.23.16.16,0,0,1-.22,0l-1.39-1.55a.17.17,0,0,1,0-.23.16.16,0,0,1,.23,0Z"/><path class="cls-1" d="M227.85,106.16l1.38,1.55a.16.16,0,0,1,0,.22.16.16,0,0,1-.23,0l-1.38-1.55a.15.15,0,0,1,0-.22.16.16,0,0,1,.23,0Z"/><circle class="cls-1" cx="230.19" cy="108.91" r="0.48"/><path class="cls-1" d="M230.19,108.4a.52.52,0,1,1-.52.51A.51.51,0,0,1,230.19,108.4Zm0,.06a.45.45,0,0,0-.45.45.45.45,0,0,0,.45.45.45.45,0,0,0,.45-.45A.46.46,0,0,0,230.19,108.46Z"/><rect id="cadre" class="cls-2" width="623.62" height="340.16"/><path class="cls-1" d="M179.26,142.15h41.43v41.42H179.26Zm41.2.23h-41v41h41Z"/><path class="cls-1" d="M211.25,153s.92,8.36,9.32,9.63C220.57,162.6,220.09,154.94,211.25,153Z"/><path class="cls-1" d="M200.39,142.26s.92,8.36,9.33,9.63C209.72,151.89,209.23,144.23,200.39,142.26Z"/><path class="cls-1" d="M210,153.12s-8.36.92-9.63,9.32C200.39,162.44,208.05,162,210,153.12Z"/><path class="cls-1" d="M220.57,142.52s-8.36.92-9.63,9.33C210.94,151.85,218.6,151.37,220.57,142.52Z"/><path class="cls-1" d="M190,152.81s.92,8.36,9.33,9.63C199.3,162.44,198.81,154.78,190,152.81Z"/><path class="cls-1" d="M179.38,142.26s.92,8.36,9.32,9.63C188.7,151.89,188.22,144.23,179.38,142.26Z"/><path class="cls-1" d="M189,153.12s-8.36.92-9.63,9.32C179.38,162.44,187,162,189,153.12Z"/><path class="cls-1" d="M199.56,142.26s-8.36.92-9.63,9.33C189.93,151.59,197.59,151.11,199.56,142.26Z"/><path class="cls-1" d="M189.93,173.83s.92,8.36,9.32,9.63C199.25,183.46,198.77,175.8,189.93,173.83Z"/><path class="cls-1" d="M179.38,163.36s.92,8.37,9.32,9.64C188.7,173,188.22,165.33,179.38,163.36Z"/><path class="cls-1" d="M189,174.13s-8.36.92-9.63,9.33C179.38,183.46,187,183,189,174.13Z"/><path class="cls-1" d="M199.56,163.63s-8.36.92-9.63,9.32C189.93,173,197.59,172.47,199.56,163.63Z"/><path class="cls-1" d="M211.25,173.91s.92,8.37,9.32,9.64C220.57,183.55,220.09,175.88,211.25,173.91Z"/><path class="cls-1" d="M200.39,163.63s.92,8.36,9.33,9.63C209.72,173.26,209.23,165.6,200.39,163.63Z"/><path class="cls-1" d="M210,174.22s-8.36.92-9.63,9.33C200.39,183.55,208.05,183.06,210,174.22Z"/><path class="cls-1" d="M220.57,163.89s-8.36.92-9.63,9.32C210.94,173.21,218.6,172.73,220.57,163.89Z"/><path class="cls-1" d="M262.82,95.09H370.39v112H262.82ZM369.47,96H263.74V206.18H369.47Z"/><path class="cls-1" d="M271.1,52.67h91V89.26h-91Zm90.09.92H272V88.34h89.17Z"/><path class="cls-1" d="M315.36,132.54v-18a5.07,5.07,0,0,0-5.06-5.05h0a5.07,5.07,0,0,0-5.06,5.05v18Z"/><path class="cls-1" d="M328,132.54v-18a5.06,5.06,0,0,0-5.06-5.05h0a5.06,5.06,0,0,0-5.05,5.05v18Z"/><path class="cls-1" d="M315.36,163.74v-18a5.08,5.08,0,0,0-5.06-5.06h0a5.08,5.08,0,0,0-5.06,5.06v18Z"/><path class="cls-1" d="M328,163.74v-18a5.07,5.07,0,0,0-5.06-5.06h0a5.07,5.07,0,0,0-5.05,5.06v18Z"/><rect class="cls-1" x="302.27" y="158.46" width="28.67" height="7.47"/><path class="cls-1" d="M321.67,189.25V178.13a5.08,5.08,0,0,0-5.06-5.06h0a5.08,5.08,0,0,0-5.06,5.06v11.12Z"/><path class="cls-1" d="M321.67,72.54V61.42a5.08,5.08,0,0,0-5.06-5.06h0a5.08,5.08,0,0,0-5.06,5.06V72.54Z"/><rect class="cls-1" x="263.85" y="19.78" width="15.43" height="29.19" rx="7.57"/><path class="cls-1" d="M263.93,50.37l-.05-16.46h15.37V50.17l-7.69,15.9Zm14.4-15.54H264.8V50.07L271.56,64l6.77-13.9Z"/><rect class="cls-1" x="264.34" y="40.09" width="14.45" height="10.08"/><circle class="cls-1" cx="271.56" cy="65.02" r="1.44"/><rect class="cls-1" x="271.1" y="52.98" width="0.92" height="12.04"/><rect class="cls-1" x="265.71" y="52.52" width="11.48" height="0.92"/><rect class="cls-1" x="353.94" y="19.77" width="15.43" height="29.19" rx="7.57"/><path class="cls-1" d="M354,50.37l0-16.47h15.37V50.16l-7.69,15.9Zm14.4-15.55H354.89V50.06L361.65,64l6.77-13.9Z"/><rect class="cls-1" x="354.43" y="40.08" width="14.45" height="10.08"/><circle class="cls-1" cx="361.65" cy="65.01" r="1.44"/><rect class="cls-1" x="361.19" y="52.97" width="0.92" height="12.04"/><rect class="cls-1" x="355.8" y="52.51" width="11.48" height="0.92"/><rect class="cls-1" x="360.01" y="166.42" width="20.32" height="39.19" rx="9.7"/><path class="cls-1" d="M360.07,207.43,360,185.56h20.31v21.67l-10.15,21Zm19.34-21H360.94v20.64l9.24,19,9.23-19Z"/><rect class="cls-1" x="360.48" y="193.69" width="19.39" height="13.53"/><circle class="cls-1" cx="370.18" cy="227.16" r="1.93"/><polygon class="cls-1" points="262.45 246.7 370.39 246.7 370.64 227.16 370.64 211 369.72 211 369.72 227.16 369.48 245.78 263.37 245.78 263.37 229.09 262.45 229.09 262.45 246.7"/><rect class="cls-1" x="362.32" y="210.54" width="15.41" height="0.92"/><rect class="cls-1" x="267.94" y="76.23" width="8" height="11.26"/><rect class="cls-1" x="280.69" y="76.23" width="8" height="11.26"/><rect class="cls-1" x="293.44" y="76.23" width="8" height="11.26"/><rect class="cls-1" x="306.19" y="76.23" width="8" height="11.26"/><rect class="cls-1" x="318.94" y="76.23" width="8" height="11.26"/><rect class="cls-1" x="331.78" y="76.23" width="8" height="11.26"/><rect class="cls-1" x="344.53" y="76.23" width="8" height="11.26"/><rect class="cls-1" x="357.28" y="76.23" width="8" height="11.26"/><rect class="cls-1" x="289.24" y="39.7" width="5.5" height="7.74"/><rect class="cls-1" x="301.69" y="39.7" width="5.5" height="7.74"/><rect class="cls-1" x="314.13" y="39.7" width="5.5" height="7.74"/><rect class="cls-1" x="326.58" y="39.7" width="5.5" height="7.74"/><rect class="cls-1" x="339.03" y="39.7" width="5.5" height="7.74"/><rect class="cls-1" x="268.73" y="17.2" width="5.67" height="7.68" rx="2.84"/><rect class="cls-1" x="358.82" y="17.2" width="5.67" height="7.68" rx="2.84"/><rect class="cls-1" x="367.1" y="163.56" width="5.67" height="7.68" rx="2.84"/><rect class="cls-1" x="252.74" y="166.42" width="20.32" height="39.19" rx="9.7"/><path class="cls-1" d="M252.8,207.43l-.05-21.87h20.31v21.67l-10.15,21Zm19.34-21H253.67v20.64l9.24,19,9.23-19Z"/><rect class="cls-1" x="253.21" y="193.69" width="19.39" height="13.53"/><circle class="cls-1" cx="262.91" cy="227.16" r="1.93"/><rect class="cls-1" x="262.45" y="211" width="0.92" height="16.16"/><rect class="cls-1" x="255.05" y="210.54" width="15.41" height="0.92"/><rect class="cls-1" x="260.44" y="163.56" width="5.67" height="7.68" rx="2.84"/><path class="cls-1" d="M188.7,116.69v5.19a.16.16,0,0,1-.32,0v-5.19a.16.16,0,0,1,.32,0Z"/><path class="cls-1" d="M188.86,127.25v5.19a.16.16,0,0,1-.32,0v-5.19a.16.16,0,0,1,.32,0Z"/><path class="cls-1" d="M183.6,119.27a27.3,27.3,0,0,1,2.91,3c.13.16-.1.39-.23.23a25.6,25.6,0,0,0-2.91-3c-.16-.14.07-.37.23-.23Z"/><path class="cls-1" d="M181.58,124.44l3.77.25c.21,0,.21.34,0,.32l-3.77-.25c-.21,0-.21-.33,0-.32Z"/><path class="cls-1" d="M191.26,126.94l2.69,2.28c.16.13-.07.36-.23.23L191,127.17c-.15-.13.07-.36.23-.23Z"/><path class="cls-1" d="M191.25,124.48h4.25a.16.16,0,0,1,0,.32h-4.25a.16.16,0,0,1,0-.32Z"/><path class="cls-1" d="M190.8,122.25l2.93-2.61c.16-.14.39.09.23.22L191,122.48c-.16.14-.39-.09-.23-.23Z"/><path class="cls-1" d="M183.59,129.26l2.93-2.62c.15-.13.38.09.23.23l-2.94,2.62c-.15.13-.38-.09-.22-.23Z"/><circle class="cls-1" cx="188.7" cy="124.73" r="0.91"/><path class="cls-1" d="M187.76,124.73a.94.94,0,1,1,.94.94A.94.94,0,0,1,187.76,124.73Zm.06,0a.88.88,0,1,0,.88-.88A.89.89,0,0,0,187.82,124.73Z"/><path class="cls-1" d="M226.72,73.91V79.1a.17.17,0,0,1-.33,0V73.91a.17.17,0,0,1,.33,0Z"/><path class="cls-1" d="M226.88,84.47v5.2a.16.16,0,0,1-.32,0v-5.2a.16.16,0,0,1,.32,0Z"/><path class="cls-1" d="M221.61,76.49a26.5,26.5,0,0,1,2.91,3c.14.16-.09.39-.22.23a26.59,26.59,0,0,0-2.92-3c-.15-.14.08-.36.23-.23Z"/><path class="cls-1" d="M219.59,81.67l3.78.25c.2,0,.21.33,0,.32L219.59,82c-.2,0-.2-.34,0-.32Z"/><path class="cls-1" d="M229.28,84.17,232,86.44c.16.14-.07.36-.22.23l-2.69-2.27c-.16-.14.07-.37.23-.23Z"/><path class="cls-1" d="M229.27,81.7h4.25a.16.16,0,0,1,0,.32h-4.25a.17.17,0,0,1,0-.33Z"/><path class="cls-1" d="M228.82,79.48l2.93-2.62c.15-.14.38.09.23.23L229,79.71c-.15.13-.38-.09-.22-.23Z"/><path class="cls-1" d="M221.6,86.48l2.94-2.61c.15-.14.38.09.22.23l-2.93,2.61c-.15.14-.38-.09-.23-.23Z"/><circle class="cls-1" cx="226.72" cy="81.95" r="0.91"/><path class="cls-1" d="M225.77,82a.95.95,0,1,1,.95,1A.95.95,0,0,1,225.77,82Zm.07,0a.88.88,0,1,0,.88-.87A.87.87,0,0,0,225.84,82Z"/><path class="cls-1" d="M236.89,164v5.19a.16.16,0,0,1-.32,0V164a.16.16,0,0,1,.32,0Z"/><path class="cls-1" d="M237.05,174.58v5.19a.16.16,0,0,1-.32,0v-5.19a.16.16,0,0,1,.32,0Z"/><path class="cls-1" d="M231.79,166.6a27.4,27.4,0,0,1,2.91,3c.13.16-.1.38-.23.22a27.28,27.28,0,0,0-2.91-3c-.16-.14.07-.37.23-.23Z"/><path class="cls-1" d="M229.77,171.78l3.77.25c.21,0,.21.33,0,.32l-3.77-.25c-.21,0-.21-.34,0-.32Z"/><path class="cls-1" d="M239.45,174.28l2.69,2.27c.16.14-.07.36-.23.23l-2.69-2.28c-.15-.13.08-.36.23-.22Z"/><path class="cls-1" d="M239.44,171.81h4.25a.17.17,0,0,1,0,.33h-4.25a.16.16,0,0,1,0-.32Z"/><path class="cls-1" d="M239,169.59l2.93-2.62c.16-.14.39.09.23.23l-2.93,2.61c-.16.14-.38-.09-.23-.22Z"/><path class="cls-1" d="M231.78,176.59l2.93-2.61c.15-.14.38.09.23.22L232,176.82c-.15.14-.38-.09-.22-.23Z"/><circle class="cls-1" cx="236.89" cy="172.06" r="0.91"/><path class="cls-1" d="M236,172.06a.94.94,0,1,1,.94.94A.94.94,0,0,1,236,172.06Zm.06,0a.88.88,0,1,0,.88-.88A.88.88,0,0,0,236,172.06Z"/><path class="cls-1" d="M152.5,68.87h41.42V110.3H152.5Zm41.19.24h-41v41h41Z"/><path class="cls-1" d="M184.48,79.69s.92,8.37,9.33,9.64C193.81,89.33,193.33,81.66,184.48,79.69Z"/><path class="cls-1" d="M173.63,69s.92,8.36,9.32,9.63C183,78.62,182.47,71,173.63,69Z"/><path class="cls-1" d="M183.26,79.85s-8.36.92-9.63,9.32C173.63,89.17,181.29,88.69,183.26,79.85Z"/><path class="cls-1" d="M193.81,69.25s-8.36.92-9.63,9.33C184.18,78.58,191.84,78.1,193.81,69.25Z"/><path class="cls-1" d="M163.21,79.54s.92,8.36,9.32,9.63C172.53,89.17,172.05,81.51,163.21,79.54Z"/><path class="cls-1" d="M156.62,70.58a4.66,4.66,0,0,1-2.37,2.94,10.37,10.37,0,0,0,7.69,5.1A11,11,0,0,0,156.62,70.58Z"/><path class="cls-1" d="M162.24,79.85s-8.36.92-9.63,9.32C152.61,89.17,160.27,88.69,162.24,79.85Z"/><path class="cls-1" d="M172.8,69s-8.37.92-9.64,9.33C163.16,78.32,170.83,77.83,172.8,69Z"/><path class="cls-1" d="M163.16,100.56s.92,8.36,9.33,9.63C172.49,110.19,172,102.53,163.16,100.56Z"/><path class="cls-1" d="M152.61,90.09s.92,8.36,9.33,9.63C161.94,99.72,161.46,92.06,152.61,90.09Z"/><path class="cls-1" d="M162.24,100.86s-8.36.92-9.63,9.33C152.61,110.19,160.27,109.71,162.24,100.86Z"/><path class="cls-1" d="M172.8,90.36s-8.37.91-9.64,9.32C163.16,99.68,170.83,99.2,172.8,90.36Z"/><path class="cls-1" d="M184.48,100.64s.92,8.37,9.33,9.64C193.81,110.28,193.33,102.61,184.48,100.64Z"/><path class="cls-1" d="M173.63,90.36s.92,8.36,9.32,9.63C183,100,182.47,92.33,173.63,90.36Z"/><path class="cls-1" d="M183.26,101s-8.36.92-9.63,9.33C173.63,110.28,181.29,109.79,183.26,101Z"/><path class="cls-1" d="M193.81,90.62s-8.36.92-9.63,9.32C184.18,99.94,191.84,99.46,193.81,90.62Z"/><path class="cls-3" d="M208.57,136.63a.16.16,0,0,0,0-.32.16.16,0,0,0,0,.32Z"/><path class="cls-3" d="M209.88,137a.16.16,0,0,0,0-.32.16.16,0,0,0,0,.32Z"/><path class="cls-3" d="M210.56,131.06a.16.16,0,0,0,0-.32.16.16,0,0,0,0,.32Z"/><path class="cls-3" d="M212,131.72a.17.17,0,0,0,0-.33.17.17,0,0,0,0,.33Z"/><path class="cls-3" d="M211.84,130.39a.16.16,0,0,0,0-.32.16.16,0,0,0,0,.32Z"/><path class="cls-3" d="M213.48,131.5a.16.16,0,0,0,0-.32.16.16,0,0,0,0,.32Z"/><path class="cls-5" d="M231.58,137.09c0-.2-.35-.2-.33,0,0,0,0,.1,0,.15a.15.15,0,0,0-.09,0c-2.22,1.59-4.2,3.8-4.38,6.66a.16.16,0,0,0,.16.16,5.11,5.11,0,0,0,3.56-2.23A7.17,7.17,0,0,0,231.58,137.09Z"/><path class="cls-5" d="M231.39,137c-3.37-.88-7.31-1.63-10.26.75-.1.08,0,.23.07.27a14.17,14.17,0,0,0,5.7,1.12,8,8,0,0,0,4.49-1.84h0A.15.15,0,0,0,231.39,137Z"/><path class="cls-5" d="M243.3,143.18a9.55,9.55,0,0,0-4.3-2.78,14.15,14.15,0,0,0-2.65-.61,4,4,0,0,0-2.43.21c-.19.09,0,.37.16.28h0l.16.26a.17.17,0,0,0,0,.27,13.42,13.42,0,0,0,8.94,2.66A.17.17,0,0,0,243.3,143.18Z"/><path class="cls-5" d="M214.31,119.9a.17.17,0,0,0-.3,0,18,18,0,0,0-.65,5,6.59,6.59,0,0,0,1,4.14,0,0,0,0,0,0,0,.16.16,0,0,0,.27.16h0c.09,0,.15-.11.1-.2A8.94,8.94,0,0,0,214.31,119.9Z"/><path class="cls-5" d="M208.72,125.9l-.14-.2a.33.33,0,0,0,0-.26c-.08-.19-.39-.1-.31.09s-.81.32-.9.34a6,6,0,0,0-.83.24,9.68,9.68,0,0,0-1.35.62,10.81,10.81,0,0,0-2.42,1.94,16.43,16.43,0,0,0-1.94,2.6,4.24,4.24,0,0,0-1,2.86.16.16,0,0,0,.2.11,13.35,13.35,0,0,0,6.14-2.85A8,8,0,0,0,209,126,.16.16,0,0,0,208.72,125.9Z"/><path class="cls-5" d="M206.68,118.31c-2.07-3.77-6.52-5.09-10.58-4.48a.16.16,0,0,0-.07.27c.77.69,1.56,1.37,2.35,2a9.85,9.85,0,0,0,2.13,1.55,10.08,10.08,0,0,0,2.66.61c1,.16,2,.3,3,.41.14,0,.18-.12.13-.22l.06,0h0C206.51,118.66,206.78,118.49,206.68,118.31Z"/><path class="cls-5" d="M237.54,147.47c-.21,0-.29.28-.09.31l.07,0a.13.13,0,0,0-.12.18,13.57,13.57,0,0,0,6.61,7.68.18.18,0,0,0,.25-.14A8,8,0,0,0,237.54,147.47Z"/><path class="cls-1" d="M445.69,122.64v2.75a.16.16,0,0,1-.32,0v-2.75a.16.16,0,0,1,.32,0Z"/><path class="cls-1" d="M445.78,128.22V131a.17.17,0,0,1-.33,0v-2.75a.17.17,0,0,1,.33,0Z"/><path class="cls-1" d="M443,124a15.31,15.31,0,0,1,1.54,1.58.16.16,0,1,1-.23.23,13.51,13.51,0,0,0-1.54-1.58A.16.16,0,1,1,443,124Z"/><path class="cls-1" d="M441.85,126.67l2,.13c.21,0,.21.33,0,.32l-2-.13c-.21,0-.21-.34,0-.32Z"/><path class="cls-1" d="M447,128l1.42,1.2a.16.16,0,0,1-.23.23l-1.41-1.2a.16.16,0,0,1,0-.23.15.15,0,0,1,.22,0Z"/><path class="cls-1" d="M447,126.68h2.25a.16.16,0,0,1,0,.32H447c-.2,0-.2-.32,0-.33Z"/><path class="cls-1" d="M446.67,125.53l1.55-1.38a.16.16,0,0,1,.23,0,.17.17,0,0,1,0,.23l-1.55,1.38a.16.16,0,1,1-.23-.23Z"/><path class="cls-1" d="M442.86,129.23l1.55-1.38a.17.17,0,0,1,.23,0,.18.18,0,0,1,0,.23l-1.55,1.38a.16.16,0,0,1-.23-.23Z"/><circle class="cls-1" cx="445.62" cy="126.89" r="0.48"/><path class="cls-1" d="M445.1,126.89a.52.52,0,1,1,.52.52A.51.51,0,0,1,445.1,126.89Zm.07,0a.45.45,0,1,0,.89,0,.45.45,0,1,0-.89,0Z"/><path class="cls-2" d="M445.5,137.29v0h-.16v0Z"/><path class="cls-2" d="M445.12,137.57c0,.07,0,.14,0,.21A10.29,10.29,0,0,1,435.84,148a1.8,1.8,0,0,1,0-.22A10.28,10.28,0,0,1,445.12,137.57Z"/><path class="cls-1" d="M455.57,124.92c0,.33-.05.67-.05,1s0,.64.05.95h-.05v-.06a10.28,10.28,0,0,0-6.4-9.51h.56A10.52,10.52,0,0,1,455.57,124.92Z"/><path class="cls-1" d="M445.34,137.3c0-.07,0-.15,0-.23h.19c0,.08,0,.16,0,.23Z"/><path class="cls-1" d="M455.5,127.16h.1c0,.23.06.45.1.67a10.5,10.5,0,0,1-10,9.46,1.77,1.77,0,0,1,0-.23A10.27,10.27,0,0,0,455.5,127.16Z"/><path class="cls-1" d="M435,127.52a10.28,10.28,0,0,0,10.09,9.55c0,.08,0,.15,0,.23a10.51,10.51,0,0,1-10.23-8.92,8.09,8.09,0,0,0,.07-.86Z"/><path class="cls-1" d="M435,126.81c0,.14,0,.28,0,.42h0c0-.08,0-.15,0-.22a11.75,11.75,0,0,0-.13-1.58,10.51,10.51,0,0,1,6-8.14h.56A10.28,10.28,0,0,0,435,126.81Z"/><path class="cls-1" d="M445.11,137.34c0,.07,0,.15,0,.23a10.28,10.28,0,0,0-9.3,10.22,1.8,1.8,0,0,0,0,.22h-.06c0-.08,0-.15,0-.22a10.24,10.24,0,0,0-.1-1.36A10.5,10.5,0,0,1,445.11,137.34Z"/><path class="cls-1" d="M445.5,137.32v.08s0,.1,0,.15h-.16c0-.08,0-.16,0-.23Z"/><path class="cls-1" d="M435.85,148.32a10.28,10.28,0,0,0,9.62,9.71,1.77,1.77,0,0,1,0,.23,10.5,10.5,0,0,1-9.79-9.11,7.93,7.93,0,0,0,.07-.84Z"/><path class="cls-1" d="M456.41,145.86a10.16,10.16,0,0,0-.08,1.23c0,.19,0,.38,0,.57h0a10.28,10.28,0,0,0-10.26-10.14l-.36,0s0-.09,0-.14v-.09l.37,0A10.51,10.51,0,0,1,456.41,145.86Z"/><path class="cls-1" d="M456.35,148.12h0a8.87,8.87,0,0,0,.14.9,10.51,10.51,0,0,1-9.94,9.25h-.4c0-.07,0-.14,0-.21A10.28,10.28,0,0,0,456.35,148.12Z"/><path class="cls-3" d="M446,158.27h-.23c0-.08,0-.15,0-.23H446C446,158.13,446,158.19,446,158.27Z"/><polygon class="cls-3" points="456.37 147.89 456.36 147.89 456.36 147.89 456.37 147.88 456.37 147.89"/><path class="cls-1" d="M456.6,147.87a1.85,1.85,0,0,0,0-.23,10.27,10.27,0,0,0,9.51-8.4v1A10.51,10.51,0,0,1,456.6,147.87Z"/><path class="cls-1" d="M456,127.13h-.17v0c.21,0,.42,0,.63,0a11.37,11.37,0,0,0,1.31-.09,10.51,10.51,0,0,1,8.34,7.49v1A10.28,10.28,0,0,0,456,127.13Z"/><path class="cls-1" d="M455.5,127.16a10.26,10.26,0,0,0-9.75,9.89h-.23A10.5,10.5,0,0,1,454.69,127a7.5,7.5,0,0,0,.81.11Z"/><path class="cls-1" d="M445.74,137.28v0h-.23v0Z"/><path class="cls-1" d="M456,147.67h.36s0,.08,0,.13,0,.06,0,.1H456a10.5,10.5,0,0,1-10.49-10.35h.23A10.27,10.27,0,0,0,456,147.67Z"/><path class="cls-1" d="M455.59,127.11a.06.06,0,0,0,0,0h-.1v-.06Z"/><path class="cls-1" d="M445.52,137.06h.23a1.77,1.77,0,0,0,0,.23h-.24C445.51,137.22,445.51,137.14,445.52,137.06Z"/><path class="cls-1" d="M445.5,137.32h.23v.09s0,.09,0,.14h-.23c0-.05,0-.1,0-.15Z"/><path class="cls-1" d="M456.36,147.66h0a1.69,1.69,0,0,1,0,.23h0s0-.07,0-.1S456.36,147.7,456.36,147.66Z"/><path class="cls-1" d="M433,127.46c.35,0,.71.05,1.07.05s.44,0,.65,0v0a10.28,10.28,0,0,0-9.59,7v-.67A10.52,10.52,0,0,1,433,127.46Z"/><path class="cls-1" d="M445.1,137.07A10.28,10.28,0,0,0,435,127.52v-.06c.31,0,.62-.07.93-.12a10.51,10.51,0,0,1,9.39,9.73h-.23Z"/><path class="cls-1" d="M434.86,148.05l.69,0v0l-.32,0a10,10,0,0,0-1.66.15,10.54,10.54,0,0,1-8.44-6.48v-.67A10.29,10.29,0,0,0,434.86,148.05Z"/><path class="cls-1" d="M435.84,148a10.29,10.29,0,0,0,9.29-10.23c0-.07,0-.14,0-.21h.23c0,.07,0,.15,0,.22a10.51,10.51,0,0,1-8.84,10.36c-.23,0-.45,0-.68,0Z"/><path class="cls-1" d="M445.25,137.31h.09v0h-.23v0Z"/><path class="cls-1" d="M435,127.47H435v.06H435Z"/><path class="cls-1" d="M445.25,137.31h-.14c0-.08,0-.15,0-.23h.23c0,.08,0,.16,0,.23Z"/><path class="cls-1" d="M435.84,148v.08h-.06V148Z"/><path class="cls-1" d="M445.11,137.34h.23c0,.07,0,.15,0,.23h-.23C445.12,137.49,445.11,137.41,445.11,137.34Z"/><path class="cls-1" d="M434.07,127.28c.23,0,.45,0,.67,0v0a10.91,10.91,0,0,0-1.73.17,10.51,10.51,0,0,1-7.87-5v-.44A10.28,10.28,0,0,0,434.07,127.28Z"/><path class="cls-1" d="M435.94,127.34c-.31,0-.62,0-.94,0v-.06a10.28,10.28,0,0,0,9.33-9.93h.23A10.52,10.52,0,0,1,435.94,127.34Z"/><path class="cls-1" d="M435,127.24h0v.06h0A.43.43,0,0,1,435,127.24Z"/><path class="cls-1" d="M435,127.29c.32,0,.63,0,.94,0-.31,0-.62.1-.93.12C435,127.41,435,127.35,435,127.29Z"/><path class="cls-1" d="M434.07,127.51c-.36,0-.72,0-1.07-.05a10.91,10.91,0,0,1,1.73-.17,1.21,1.21,0,0,1,0,.19C434.51,127.49,434.29,127.51,434.07,127.51Z"/><path class="cls-1" d="M435,127.47a1.09,1.09,0,0,0,0-.18h0c0,.06,0,.12,0,.17Z"/><path class="cls-1" d="M434.72,127.52h.06c0,.29.06.58.1.86a10.51,10.51,0,0,1-8.53,9c-.35,0-.7-.05-1.06-.05h-.16v-.05A10.26,10.26,0,0,0,434.72,127.52Z"/><path class="cls-1" d="M434.85,125.44a10.27,10.27,0,0,0-.1,1.37c0,.14,0,.29,0,.44h0c0-.08,0-.16,0-.23a10.29,10.29,0,0,0-7-9.72h.67A10.55,10.55,0,0,1,434.85,125.44Z"/><path class="cls-1" d="M434.75,126.81a10.27,10.27,0,0,1,.1-1.37A11.75,11.75,0,0,1,435,127c0,.07,0,.14,0,.22h-.2C434.76,127.1,434.75,127,434.75,126.81Z"/><path class="cls-1" d="M435,127.52a8.09,8.09,0,0,1-.07.86c0-.28-.08-.57-.1-.86H435Z"/><path class="cls-1" d="M434.78,127.52h-.06v0h.06Z"/><path class="cls-1" d="M435,127.47v0h-.17v0Z"/><path class="cls-1" d="M434.73,127.29v0h0v0Z"/><path class="cls-1" d="M434.86,127.28h-.09v0h.2a.43.43,0,0,0,0,.05Z"/><path class="cls-1" d="M434.78,127.48h-.06a1.21,1.21,0,0,0,0-.19h0C434.77,127.35,434.78,127.41,434.78,127.48Z"/><path class="cls-1" d="M434.77,127.29H435a1.09,1.09,0,0,1,0,.18h-.17C434.78,127.41,434.77,127.35,434.77,127.29Z"/><path class="cls-1" d="M455.75,125.93c0,.33,0,.64.05,1h-.05v-.08a10.62,10.62,0,0,0-.18-1.89,10.49,10.49,0,0,1,4.49-7.62h.42A10.26,10.26,0,0,0,455.75,125.93Z"/><path class="cls-1" d="M455.7,127.82c0-.22,0-.45,0-.68h.1A10.28,10.28,0,0,0,466,136.21h.08v.23H466A10.52,10.52,0,0,1,455.7,127.82Z"/><path class="cls-1" d="M455.52,125.93c0-.34,0-.68.05-1a10.62,10.62,0,0,1,.18,1.89v.08h-.18C455.54,126.57,455.52,126.25,455.52,125.93Z"/><path class="cls-1" d="M455.73,127.14c0,.23,0,.46,0,.68,0-.22-.08-.44-.1-.67Z"/><path class="cls-1" d="M455.73,127.12h.09v0h-.1Z"/><path class="cls-1" d="M455.59,127.11h.14v0h-.13A.06.06,0,0,1,455.59,127.11Z"/><path class="cls-1" d="M455.52,126.87s0,0,0,.06c-.27,0-.55,0-.82.06A10.49,10.49,0,0,1,446,117.3h.23A10.27,10.27,0,0,0,455.52,126.87Z"/><path class="cls-1" d="M455.8,126.91v0c.21,0,.43,0,.65,0a10.28,10.28,0,0,0,9.65-6.79v.65a10.53,10.53,0,0,1-8.34,6.28,10.19,10.19,0,0,0-1.76-.16Z"/><path class="cls-1" d="M455.51,126.93s0,0,0-.06h.05v0Z"/><path class="cls-1" d="M456,126.9a10.19,10.19,0,0,1,1.76.16,11.37,11.37,0,0,1-1.31.09c-.21,0-.42,0-.63,0a1.49,1.49,0,0,0,0-.21Z"/><path class="cls-1" d="M454.69,127c.27,0,.55,0,.82-.06a1,1,0,0,1,0,.17A7.5,7.5,0,0,1,454.69,127Z"/><path class="cls-1" d="M455.59,127.11h-.09a1,1,0,0,0,0-.17h.06C455.58,127,455.58,127.05,455.59,127.11Z"/><path class="cls-1" d="M455.8,126.89v0h-.06v0Z"/><path class="cls-1" d="M455.57,126.88h.18v0h-.17Z"/><path class="cls-1" d="M455.74,126.91h.06a1.49,1.49,0,0,1,0,.21h-.09A1.48,1.48,0,0,0,455.74,126.91Z"/><path class="cls-1" d="M455.57,126.92h.17a1.48,1.48,0,0,1,0,.21h-.14C455.58,127.05,455.58,127,455.57,126.92Z"/><path class="cls-1" d="M446.19,158.06H446a10.51,10.51,0,0,1,10.4-10.16c0,.08,0,.15,0,.23A10.28,10.28,0,0,0,446.19,158.06Z"/><path class="cls-1" d="M466.1,154.25v.65a10.29,10.29,0,0,0-9.48-6.78c0-.07,0-.15,0-.23A10.54,10.54,0,0,1,466.1,154.25Z"/><path class="cls-3" d="M446.1,158.06h.09c0,.07,0,.14,0,.21H446c0-.08,0-.14,0-.22Z"/><path class="cls-1" d="M456.38,148.12h0c0-.09,0-.17,0-.26h0A2.17,2.17,0,0,1,456.38,148.12Z"/><path class="cls-3" d="M445.61,158.27h0Z"/><path class="cls-1" d="M435.85,148.32v-.08l.67-.1a10.5,10.5,0,0,1,9.18,9.9h-.23A10.25,10.25,0,0,0,435.85,148.32Z"/><path class="cls-1" d="M433.57,148.2a11.18,11.18,0,0,0,1.29.09c.23,0,.45,0,.68,0v.05h-.3a10.28,10.28,0,0,0-10.1,8.43v-1A10.51,10.51,0,0,1,433.57,148.2Z"/><path class="cls-3" d="M445.47,158h.23c0,.08,0,.15,0,.23h-.24A1.77,1.77,0,0,0,445.47,158Z"/><path class="cls-1" d="M435.85,148.24v.08h-.09v-.07Z"/><path class="cls-1" d="M436.52,148.14l-.67.1a.76.76,0,0,1,0-.15C436.07,148.1,436.29,148.11,436.52,148.14Z"/><path class="cls-1" d="M435.55,148.07a1.09,1.09,0,0,0,0,.18c-.23,0-.45,0-.68,0a11.18,11.18,0,0,1-1.29-.09,10,10,0,0,1,1.66-.15Z"/><path class="cls-1" d="M435.78,148.08h.06a.76.76,0,0,0,0,.15h-.08A.86.86,0,0,1,435.78,148.08Z"/><path class="cls-1" d="M425.13,158.05h.16a10.27,10.27,0,0,0,10.24-9.76h.09c0,.29,0,.57.07.85a10.51,10.51,0,0,1-9.92,9.12h-.64Z"/><path class="cls-1" d="M426.35,137.34a10.52,10.52,0,0,1,9.34,9.09,10.24,10.24,0,0,0-.1,1.36,1.79,1.79,0,0,0,0,.23h-.06c0-.08,0-.15,0-.23a10.29,10.29,0,0,0-10.27-10.27h-.16v-.05A9.9,9.9,0,0,0,426.35,137.34Z"/><path class="cls-1" d="M435.76,148.31a7.93,7.93,0,0,1-.07.84c0-.28-.06-.56-.07-.85Z"/><path class="cls-1" d="M435.78,148h-.17a1.79,1.79,0,0,1,0-.23,10.24,10.24,0,0,1,.1-1.36,10.24,10.24,0,0,1,.1,1.36C435.79,147.86,435.78,147.93,435.78,148Z"/><path class="cls-1" d="M435.55,148.07v0h.06v0Z"/><path class="cls-1" d="M435.78,148.08h-.17v0h.17Z"/><path class="cls-1" d="M426.35,137.34a9.9,9.9,0,0,1-1.22.14v-.18h.16C425.65,137.29,426,137.31,426.35,137.34Z"/><path class="cls-1" d="M435.62,148.3h-.09v-.05h.08Z"/><path class="cls-1" d="M435.77,148.24v.07h-.14v-.05Z"/><path class="cls-1" d="M435.61,148.07a1.09,1.09,0,0,0,0,.18h-.08a1.09,1.09,0,0,1,0-.18Z"/><path class="cls-1" d="M435.77,148.24h-.15a1.09,1.09,0,0,1,0-.18h.17A.86.86,0,0,0,435.77,148.24Z"/><path class="cls-1" d="M456.41,145.86a10.51,10.51,0,0,1,9.69-9.23v.23a10.28,10.28,0,0,0-9.54,10.23c0,.19,0,.37,0,.55h0A10.53,10.53,0,0,0,456.41,145.86Z"/><path class="cls-1" d="M456.52,149q0-.44.06-.9h0a10.28,10.28,0,0,0,9.48,9.21v.23A10.51,10.51,0,0,1,456.52,149Z"/><path class="cls-1" d="M456.59,147.87h0v0h0Z"/><path class="cls-1" d="M456.58,148.12q0,.47-.06.9a8.87,8.87,0,0,1-.14-.9h.2Z"/><path class="cls-1" d="M456.41,145.86a10.53,10.53,0,0,1,.18,1.78l-.23,0c0-.19,0-.38,0-.57A10.16,10.16,0,0,1,456.41,145.86Z"/><path class="cls-1" d="M456.59,147.89h-.22l.22,0Z"/><path class="cls-1" d="M456.6,147.79s0-.1,0-.15h0a1.85,1.85,0,0,1,0,.23h0S456.6,147.82,456.6,147.79Z"/><path class="cls-1" d="M456.6,147.79s0,.06,0,.08l-.22,0a1.69,1.69,0,0,0,0-.23l.23,0C456.59,147.69,456.6,147.74,456.6,147.79Z"/><path class="cls-1" d="M456.6,147.89c0,.08,0,.16,0,.23h0c0-.08,0-.15,0-.23Z"/><path class="cls-1" d="M456.45,147.88h.14c0,.08,0,.15,0,.23h-.2a1.69,1.69,0,0,0,0-.23Z"/><path class="cls-3" d="M446,158.28v.22h-.22c0-.08,0-.15,0-.23Z"/><path class="cls-1" d="M444.56,117.3c0-.08,0-.15,0-.23H446a1.77,1.77,0,0,0,0,.23Z"/><path class="cls-1" d="M466.1,135.56c0,.21.07.42.1.64h-.1Z"/><path class="cls-1" d="M466.1,136.43h.12a1.21,1.21,0,0,1,0,.19h-.13Z"/><path class="cls-1" d="M466.33,120.17v15.38c-.06-.34-.14-.68-.23-1V120.78C466.18,120.59,466.25,120.38,466.33,120.17Z"/><path class="cls-1" d="M466.24,136.85c0,.19,0,.37,0,.55a10.07,10.07,0,0,1-.17,1.84v-2.38Z"/><path class="cls-1" d="M449.68,117.3l-.52-.23h11.26l-.36.23Z"/><path class="cls-1" d="M466.1,117.3h-5.62l.38-.23h5.47v2.35c-.07.24-.15.48-.23.71Z"/><path class="cls-1" d="M425,158a11.34,11.34,0,0,1,.15-1.32v1.33Z"/><path class="cls-1" d="M425.13,137.53v3.52c-.09-.27-.16-.54-.23-.81v-2.7Z"/><path class="cls-1" d="M466.1,158.27v-.71h.23v.93H446.18v-.21l.4,0Z"/><path class="cls-1" d="M425.29,158.29l.48,0h19.71a1.64,1.64,0,0,1,0,.23H425c0-.08,0-.15,0-.23Z"/><path class="cls-1" d="M425.13,155.7c-.09.33-.17.66-.23,1V141.09c.07.21.15.42.23.63Z"/><path class="cls-1" d="M446.21,117.3a1.77,1.77,0,0,1,0-.23h2.3l.62.23Z"/><path class="cls-1" d="M466.1,140.26c.09-.33.17-.66.23-1v15.6c-.08-.2-.15-.41-.23-.61Z"/><path class="cls-1" d="M441.37,117.3l.63-.23h2.34c0,.08,0,.15,0,.23Z"/><path class="cls-1" d="M425.13,117.3v4.75c-.08-.15-.15-.3-.23-.44v-4.54H427c.27.07.53.14.79.23Z"/><path class="cls-1" d="M425.13,133.85c-.08.21-.16.42-.23.63V122.11c.07.13.15.25.23.38Z"/><path class="cls-1" d="M425.13,137.25l-.23,0v-2c.07-.27.14-.54.23-.8Z"/><path class="cls-1" d="M428.45,117.3l-.63-.23h13.51l-.52.23Z"/><path class="cls-1" d="M440.81,117.3l.52-.23H442l-.63.23Z"/><path class="cls-1" d="M449.12,117.3l-.62-.23h.66l.52.23Z"/><path class="cls-3" d="M446,158.27h0Z"/><path class="cls-3" d="M446.58,158.27l-.4,0v0Z"/><path class="cls-1" d="M466.1,140.26v-1a10.07,10.07,0,0,0,.17-1.84c0-.18,0-.36,0-.55h.09v2.41C466.27,139.6,466.19,139.93,466.1,140.26Z"/><path class="cls-1" d="M466.22,136.43h.11v.2h-.1A1.21,1.21,0,0,0,466.22,136.43Z"/><path class="cls-1" d="M466.1,135.56v-1c.09.32.17.66.23,1v.64h-.13C466.17,136,466.14,135.77,466.1,135.56Z"/><path class="cls-1" d="M425.13,134.52c-.09.26-.16.53-.23.8v-.84c.07-.21.15-.42.23-.63Z"/><path class="cls-1" d="M425.13,141.72c-.08-.21-.16-.42-.23-.63v-.85c.07.27.14.54.23.81Z"/><path class="cls-1" d="M425.13,122.49c-.08-.13-.16-.25-.23-.38v-.5c.08.14.15.29.23.44Z"/><path class="cls-1" d="M444.33,117.3c0-.08,0-.15,0-.23h.23c0,.08,0,.15,0,.23Z"/><path class="cls-1" d="M427.78,117.3c-.26-.09-.52-.16-.79-.23h.83l.63.23Z"/><path class="cls-1" d="M425.13,137.3h-.23v0l.23,0Z"/><path class="cls-1" d="M460.06,117.3l.36-.23h.44l-.38.23Z"/><path class="cls-1" d="M466.1,136.2h.1c0,.07,0,.15,0,.23h-.12Z"/><path class="cls-1" d="M466.2,136.2h.13v.23h-.11C466.22,136.35,466.2,136.27,466.2,136.2Z"/><path class="cls-1" d="M446,117.3a1.77,1.77,0,0,1,0-.23h.23a1.77,1.77,0,0,0,0,.23Z"/><path class="cls-1" d="M466.1,120.13c.08-.23.16-.47.23-.71v.75c-.08.21-.15.42-.23.61Z"/><path class="cls-3" d="M446,158.28h.23v.21H446v-.22Z"/><path class="cls-3" d="M446.18,158.27v0h0Z"/><path class="cls-1" d="M425,158.5h-.06v-.23H425C425,158.35,425,158.42,425,158.5Z"/><path class="cls-1" d="M425.13,155.7v1A11.34,11.34,0,0,0,425,158h-.08V156.7C425,156.36,425,156,425.13,155.7Z"/><path class="cls-3" d="M445.48,158.27h.24c0,.08,0,.15,0,.23h-.23A1.64,1.64,0,0,0,445.48,158.27Z"/><path class="cls-3" d="M445.72,158.27h0Z"/><path class="cls-1" d="M425.13,158.27h.64l-.48,0-.32,0c0-.07,0-.15,0-.23h.15Z"/><path class="cls-1" d="M425.13,137.53h-.23v0l.23,0Z"/><path class="cls-1" d="M425.13,137.48l-.23,0v-.19h.23Z"/><path class="cls-1" d="M425,158.27h-.07V158H425C425,158.12,425,158.2,425,158.27Z"/><path class="cls-1" d="M466.1,136.63h.13a1.85,1.85,0,0,1,0,.23h-.14Z"/><path class="cls-1" d="M466.23,136.62h.1v.23h-.09A1.85,1.85,0,0,0,466.23,136.62Z"/><path class="cls-1" d="M456.16,132.81v2.75a.16.16,0,0,1-.32,0v-2.75a.16.16,0,0,1,.32,0Z"/><path class="cls-1" d="M456.25,138.4v2.74a.16.16,0,0,1-.32,0V138.4a.16.16,0,0,1,.32,0Z"/><path class="cls-1" d="M453.44,134.12A14.34,14.34,0,0,1,455,135.7a.16.16,0,0,1-.23.23,13.51,13.51,0,0,0-1.54-1.58.16.16,0,0,1,.23-.23Z"/><path class="cls-1" d="M452.32,136.84l2,.13c.2,0,.2.33,0,.32l-2-.13c-.21,0-.21-.34,0-.32Z"/><path class="cls-1" d="M457.49,138.18l1.42,1.2a.16.16,0,0,1,0,.23.15.15,0,0,1-.22,0l-1.42-1.2a.16.16,0,0,1,0-.23.15.15,0,0,1,.22,0Z"/><path class="cls-1" d="M457.44,136.86h2.24a.16.16,0,0,1,0,.32h-2.24a.16.16,0,0,1,0-.32Z"/><path class="cls-1" d="M457.14,135.7l1.55-1.38a.16.16,0,0,1,.23.23l-1.55,1.38a.16.16,0,0,1-.23-.23Z"/><path class="cls-1" d="M453.33,139.4l1.55-1.38a.16.16,0,1,1,.23.23l-1.55,1.38a.16.16,0,0,1-.23-.23Z"/><circle class="cls-1" cx="456.09" cy="137.06" r="0.48"/><path class="cls-1" d="M455.57,137.06a.52.52,0,1,1,.52.52A.51.51,0,0,1,455.57,137.06Zm.07,0a.45.45,0,0,0,.45.45.45.45,0,0,0,.45-.45.46.46,0,0,0-.45-.45A.45.45,0,0,0,455.64,137.06Z"/><path class="cls-1" d="M435.39,133.33v2.74a.16.16,0,0,1-.32,0v-2.74a.16.16,0,0,1,.32,0Z"/><path class="cls-1" d="M435.47,138.91v2.74a.16.16,0,0,1-.32,0v-2.74a.16.16,0,0,1,.32,0Z"/><path class="cls-1" d="M432.67,134.64a13.53,13.53,0,0,1,1.54,1.58.17.17,0,0,1,0,.22.16.16,0,0,1-.23,0,15.31,15.31,0,0,0-1.54-1.58.16.16,0,0,1,0-.22.16.16,0,0,1,.23,0Z"/><path class="cls-1" d="M431.55,137.35l2,.13c.21,0,.21.34,0,.32l-2-.13c-.21,0-.21-.33,0-.32Z"/><path class="cls-1" d="M436.72,138.69l1.42,1.21a.15.15,0,0,1,0,.22.16.16,0,0,1-.23,0l-1.42-1.2a.16.16,0,0,1,.23-.23Z"/><path class="cls-1" d="M436.66,137.37h2.25c.21,0,.21.32,0,.32h-2.25a.16.16,0,0,1,0-.32Z"/><path class="cls-1" d="M436.37,136.21l1.55-1.38a.16.16,0,0,1,.23.23l-1.55,1.38a.16.16,0,0,1-.23-.23Z"/><path class="cls-1" d="M432.56,139.92l1.55-1.38a.16.16,0,1,1,.22.22l-1.55,1.39a.17.17,0,0,1-.22,0,.16.16,0,0,1,0-.23Z"/><circle class="cls-1" cx="435.31" cy="137.58" r="0.48"/><path class="cls-1" d="M434.8,137.58a.52.52,0,1,1,.51.51A.51.51,0,0,1,434.8,137.58Zm.06,0a.45.45,0,0,0,.45.45.45.45,0,1,0,0-.9A.45.45,0,0,0,434.86,137.58Z"/><path class="cls-1" d="M445.78,144v2.74a.17.17,0,0,1-.33,0V144a.17.17,0,0,1,.33,0Z"/><path class="cls-1" d="M443.05,145.32a12.77,12.77,0,0,1,1.54,1.58.16.16,0,1,1-.22.22,15.31,15.31,0,0,0-1.54-1.58.16.16,0,0,1,.22-.22Z"/><path class="cls-3" d="M441.93,148l2,.13c.21,0,.21.34,0,.32l-2-.13c-.2,0-.2-.33,0-.32Z"/><path class="cls-1" d="M447.05,148.05h2.25a.17.17,0,0,1,0,.33h-2.25a.16.16,0,0,1,0-.32Z"/><path class="cls-1" d="M446.76,146.89l1.55-1.38a.16.16,0,0,1,.22,0,.16.16,0,0,1,0,.23L447,147.12a.15.15,0,0,1-.22,0,.16.16,0,0,1,0-.23Z"/><circle class="cls-1" cx="445.7" cy="148.26" r="0.48"/><path class="cls-1" d="M445.19,148.26a.51.51,0,1,1,.51.51A.51.51,0,0,1,445.19,148.26Zm.06,0a.45.45,0,1,0,.9,0,.45.45,0,1,0-.9,0Z"/><path class="cls-1" d="M424.9,74.58h41.43V116H424.9Zm41.2.23h-41v41h41Z"/><path class="cls-1" d="M456.89,85.4s.92,8.36,9.32,9.63C466.21,95,465.73,87.37,456.89,85.4Z"/><path class="cls-1" d="M446,74.7s.92,8.36,9.33,9.63C455.36,84.33,454.87,76.67,446,74.7Z"/><path class="cls-1" d="M455.66,85.55s-8.36.92-9.63,9.33C446,94.88,453.69,94.4,455.66,85.55Z"/><path class="cls-1" d="M466.21,75s-8.36.92-9.63,9.32C456.58,84.28,464.24,83.8,466.21,75Z"/><path class="cls-1" d="M435.61,85.25s.92,8.36,9.33,9.63C444.94,94.88,444.45,87.22,435.61,85.25Z"/><path class="cls-1" d="M425,74.7s.92,8.36,9.32,9.63C434.34,84.33,433.86,76.67,425,74.7Z"/><path class="cls-1" d="M434.65,85.55s-8.36.92-9.63,9.33C425,94.88,432.68,94.4,434.65,85.55Z"/><path class="cls-1" d="M445.2,74.7s-8.36.91-9.63,9.32C435.57,84,443.23,83.54,445.2,74.7Z"/><path class="cls-1" d="M435.57,106.26s.92,8.36,9.32,9.63C444.89,115.89,444.41,108.23,435.57,106.26Z"/><path class="cls-1" d="M425,95.8s.92,8.36,9.32,9.63C434.34,105.43,433.86,97.77,425,95.8Z"/><path class="cls-1" d="M434.65,106.57s-8.36.92-9.63,9.32C425,115.89,432.68,115.41,434.65,106.57Z"/><path class="cls-1" d="M445.2,96.06s-8.36.92-9.63,9.33C435.57,105.39,443.23,104.9,445.2,96.06Z"/><path class="cls-1" d="M456.89,106.35s.92,8.36,9.32,9.63C466.21,116,465.73,108.32,456.89,106.35Z"/><path class="cls-1" d="M446,96.06s.92,8.36,9.33,9.63C455.36,105.69,454.87,98,446,96.06Z"/><path class="cls-1" d="M455.66,106.65s-8.36.92-9.63,9.33C446,116,453.69,115.5,455.66,106.65Z"/><path class="cls-1" d="M466.21,96.32s-8.36.92-9.63,9.33C456.58,105.65,464.24,105.17,466.21,96.32Z"/><path class="cls-1" d="M382.29,117h41.43v41.43H382.29Zm41.2.23h-41v41h41Z"/><path class="cls-1" d="M414.28,127.8s.92,8.36,9.32,9.63C423.6,137.43,423.12,129.77,414.28,127.8Z"/><path class="cls-1" d="M403.42,117.1s.92,8.36,9.33,9.63C412.75,126.73,412.26,119.07,403.42,117.1Z"/><path class="cls-1" d="M413.05,128s-8.36.92-9.63,9.33C403.42,137.28,411.08,136.8,413.05,128Z"/><path class="cls-1" d="M423.6,117.36s-8.36.92-9.63,9.32C414,126.68,421.63,126.2,423.6,117.36Z"/><path class="cls-1" d="M393,127.65s.92,8.36,9.33,9.63C402.33,137.28,401.84,129.62,393,127.65Z"/><path class="cls-1" d="M382.41,117.1s.92,8.36,9.32,9.63C391.73,126.73,391.25,119.07,382.41,117.1Z"/><path class="cls-1" d="M392,128s-8.36.92-9.63,9.33C382.41,137.28,390.07,136.8,392,128Z"/><path class="cls-1" d="M402.59,117.1s-8.36.92-9.63,9.32C393,126.42,400.62,125.94,402.59,117.1Z"/><path class="cls-1" d="M393,148.66s.92,8.36,9.32,9.63C402.28,158.29,401.8,150.63,393,148.66Z"/><path class="cls-1" d="M382.41,138.2s.92,8.36,9.32,9.63C391.73,147.83,391.25,140.17,382.41,138.2Z"/><path class="cls-1" d="M392,149s-8.36.92-9.63,9.32C382.41,158.29,390.07,157.81,392,149Z"/><path class="cls-1" d="M402.59,138.46s-8.36.92-9.63,9.33C393,147.79,400.62,147.31,402.59,138.46Z"/><path class="cls-1" d="M414.28,148.75s.92,8.36,9.32,9.63C423.6,158.38,423.12,150.72,414.28,148.75Z"/><path class="cls-1" d="M403.42,138.46s.92,8.36,9.33,9.63C412.75,148.09,412.26,140.43,403.42,138.46Z"/><path class="cls-1" d="M413.05,149.06s-8.36.92-9.63,9.32C403.42,158.38,411.08,157.9,413.05,149.06Z"/><path class="cls-1" d="M423.6,138.72s-8.36.92-9.63,9.33C414,148.05,421.63,147.57,423.6,138.72Z"/><path class="cls-5" d="M382,82.84a5.31,5.31,0,0,0-1.48,3.32,2.38,2.38,0,0,0,2.25,2.48c2.25.07,4.17-1.92,5.23-3.68,1.95-3.24,2.59-7.11,4.21-10.51a19.46,19.46,0,0,1,14.27-10.73c.21,0,.29.28.09.31a19.27,19.27,0,0,0-10.63,5.57c-3.25,3.37-4.48,7.67-6.05,12-1.12,3-3.22,7.49-7.12,7.42a2.6,2.6,0,0,1-2.49-2.13c-.37-1.58.53-3,1.49-4.23.13-.16.36.07.23.23Z"/><path class="cls-5" d="M445.1,162.19a.15.15,0,0,0-.09,0s0-.1,0-.15c0-.2-.3-.2-.32,0a7.11,7.11,0,0,0,1.06,4.76,5.11,5.11,0,0,0,3.56,2.23.16.16,0,0,0,.16-.16C449.31,166,447.32,163.79,445.1,162.19Z"/><path class="cls-5" d="M455,162.55c-2.95-2.38-6.89-1.62-10.25-.75a.16.16,0,0,0,0,.3h0a8.1,8.1,0,0,0,4.5,1.84,14.34,14.34,0,0,0,5.69-1.13A.16.16,0,0,0,455,162.55Z"/><path class="cls-5" d="M439.78,164.6a14.13,14.13,0,0,0-2.63.61,9.61,9.61,0,0,0-4.3,2.78.16.16,0,0,0,.12.27,13.39,13.39,0,0,0,8.94-2.65.17.17,0,0,0,0-.27l.16-.26h0c.18.1.34-.18.16-.27A4,4,0,0,0,439.78,164.6Z"/><path class="cls-5" d="M460.76,160.52a21,21,0,0,0-3.43-4.52.15.15,0,0,0-.12,0c0-.17-.26-.24-.31-.05a8.49,8.49,0,0,0,5.37,10,.16.16,0,0,0,.2-.11,5,5,0,0,0-.54-2.82A21.56,21.56,0,0,0,460.76,160.52Z"/><path class="cls-5" d="M462.18,144.7a.17.17,0,0,0-.3,0,8.85,8.85,0,0,0-.41,9.22v0s0,0,0,0l0,0,0,0a.12.12,0,0,0,.1,0h0a.2.2,0,0,0,.08,0l0,0a6.51,6.51,0,0,0,1.06-4.26A17.72,17.72,0,0,0,462.18,144.7Z"/><path class="cls-5" d="M473.35,153.17a10.33,10.33,0,0,0-2.58-2,8.22,8.22,0,0,0-1.44-.59c-.11,0-1.42-.37-1.43-.35.09-.19-.19-.35-.28-.16a.34.34,0,0,0,0,.28l-.1.13c-.1-.06-.26,0-.25.12A8,8,0,0,0,470,156a13.35,13.35,0,0,0,6.14,2.85.17.17,0,0,0,.2-.11,4.35,4.35,0,0,0-1-2.92A15.74,15.74,0,0,0,473.35,153.17Z"/><path class="cls-5" d="M480.05,138.68c-4.05-.61-8.51.7-10.58,4.48,0,0,0,.05,0,.08v0s0,0,0,0a.13.13,0,0,0,.06.07h0s.05,0,.08,0h0c1.87-.19,3.91-.08,5.7-.74a8.54,8.54,0,0,0,2.35-1.61q1.23-1,2.43-2.1C480.21,138.87,480.17,138.69,480.05,138.68Z"/><path class="cls-5" d="M438.61,172.57h0l-.07,0a.08.08,0,0,0-.08,0h0l-.05,0a8,8,0,0,0,.65,10.5.16.16,0,0,0,.27-.07,14.16,14.16,0,0,0-.66-10.39A.1.1,0,0,0,438.61,172.57Z"/><path class="cls-1" d="M425.15,70.74c.07-.93.19-3.37.33-6.88,0-.19.21-.26.75-.26.16,0,.25.08.24.24-.08,1.43-.13,3.65-.28,6.25h1.56c.25,0,.49,0,.52.18a3.54,3.54,0,0,1,0,.47c0,.26-.17.32-.52.32h-1.84C425.52,71.06,425.13,71,425.15,70.74Z"/><path class="cls-1" d="M429.2,70.88c0-1,.06-2.51.11-4.73a11.2,11.2,0,0,0-.09-2c0-.25.13-.32.37-.32h.28c.47,0,.41.89.41,2.29,0,.64-.08,2.26-.08,4.54,0,.22-.18.34-.54.39S429.2,71,429.2,70.88Z"/><path class="cls-1" d="M431.47,68.91c0-.48.12-.6.57-.59a.33.33,0,0,1,.36.32c0,.89,0,1.55.75,1.53.27,0,.31-.23.32-.74a2.12,2.12,0,0,0-.64-1.69,2.71,2.71,0,0,1-1.28-2.08c-.05-1.46.06-2,1.41-2.13s1.36.85,1.48,2c0,.34-.12.52-.37.53s-.53-.07-.56-.26c-.06-.73-.05-1.41-.57-1.29a.59.59,0,0,0-.49.71c.07.81.34,1.06,1.17,1.84a3.09,3.09,0,0,1,.8,2.39c-.05.62-.1,1.72-1.43,1.72h0C431.91,71.23,431.44,70.56,431.47,68.91Z"/><path class="cls-1" d="M435.2,70.85V67.51c0-1.23,0-1.48.09-3.35,0-.32.19-.39.8-.45,1.1-.12,1.49.16,1.77.7a2.53,2.53,0,0,1-.46,2.79,1.69,1.69,0,0,1,.76,1.6c0,1-.33,2-1.32,2.22a5,5,0,0,1-1.4.18C435.31,71.2,435.2,71.14,435.2,70.85Zm2.07-5.34c0-.67-.15-.94-.64-1a1.55,1.55,0,0,0-.56.06c0,.89-.06,1.65,0,2.33A1.29,1.29,0,0,0,437.27,65.51Zm.07,3.14a.79.79,0,0,0-.78-.82,1.6,1.6,0,0,0-.45.07l0,2.39C436.92,70.29,437.34,69.71,437.34,68.65Z"/><path class="cls-1" d="M439.07,69.05A16.13,16.13,0,0,1,439,66.8c0-1.75.24-3,1.53-3.12S442,65.8,442,67.43c0,1.21,0,2.59-.67,3.34a1.29,1.29,0,0,1-1.1.39C439.65,71.16,439.26,70.45,439.07,69.05Zm2.05-2.2c0-.84-.15-2.17-.71-2.17s-.61,1.41-.61,2.51c0,2,.27,3,.58,3C440.92,70.21,441.05,69.26,441.12,66.85Z"/><path class="cls-1" d="M443.09,70.89l0-6a1,1,0,0,1,.54-.79,4.43,4.43,0,0,1,1.89-.44h.31c.54,0,.82.29.82.87a17,17,0,0,1,.12,2.26c-.05,2.63-.11,4-.15,4a.55.55,0,0,1-.43.17h-.28c-.15,0-.23-.07-.23-.2,0-.41.07-1.07.13-2.41L444,68.15c0,.3,0,1,0,2.59a1.36,1.36,0,0,1,0,.24c0,.14-.24.21-.71.21Q443.15,71.19,443.09,70.89Zm2.8-5.09c0-.83-.16-1.25-.49-1.25l-.22,0a2.23,2.23,0,0,0-1.1.32,1,1,0,0,0-.15.61l.07,1.81,1.85.08Z"/><path class="cls-5" d="M405.28,64.1c2.8,2.35,6.52,2.6,10,2.86,2.89.21,6.59.34,8.7,2.62.14.15-.08.38-.23.23a8.36,8.36,0,0,0-5-2.15c-1.84-.31-3.7-.37-5.55-.54-2.92-.26-5.89-.86-8.2-2.79-.16-.13.07-.36.23-.23Z"/><path class="cls-1" d="M304.92,218.68c-2.33.27-6.05.73-6.54.88l-.12,0c-.24,0-1,.12-1.29-.33-.15-.24-.07-.56.21-.93l3.57-1.65-2-1.65,0,0c-.23-.23-.71-.81-.47-1.22s.82-.29,1.32-.17l.07,0a13.78,13.78,0,0,0,6.56,1.78c.19,0,19.24-2.13,27.25-.29.21,0,2,.43,2.19,1.42.1.55-.28,1.09-1.15,1.65-.07,0-5,3.48-14.05,3.48A44.68,44.68,0,0,1,304.92,218.68Zm1.34-2.7a13.74,13.74,0,0,1-6.85-1.84,3.87,3.87,0,0,0-.67-.09,1.47,1.47,0,0,0,.37.57l2.67,2.2-4.2,1.91a.6.6,0,0,0-.13.27h0a1.36,1.36,0,0,0,.73.06,58.16,58.16,0,0,1,6.74-.94H305l.06,0c18.59,7,29-.3,29.14-.38.65-.41,1-.8.92-1.09-.1-.49-1.23-.87-1.77-1a45.58,45.58,0,0,0-9.38-.75C315.68,214.93,306.4,216,306.26,216Z"/><path class="cls-1" d="M334.83,233.78h.78a4.91,4.91,0,0,1-3.1,4.5,5.33,5.33,0,0,1-6.74-2.47,5.34,5.34,0,0,1-9.48-.05,5.3,5.3,0,0,1-9.44,0c-1.75,2.77-4.09,3.46-6.77,2.46a4.82,4.82,0,0,1-3.13-4.48l.8-.05a4.34,4.34,0,0,0,1.6,3,4.41,4.41,0,0,0,3,.9,4.17,4.17,0,0,0,4.12-3.87h.73c.65,2.64,2.16,3.95,4.49,3.88s3.75-1.4,4.25-3.88h.73a4.2,4.2,0,0,0,4.57,3.87c2.28-.07,3.73-1.46,4.16-3.88h.73c.66,2.7,2.23,4,4.59,3.89A4.19,4.19,0,0,0,334.83,233.78Z"/><path class="cls-1" d="M325.35,224.43h.8a4.17,4.17,0,0,0,1.8,3.17,4.6,4.6,0,0,0,3.17.7c2-.19,3.27-1.53,3.74-3.86h.73a4.78,4.78,0,0,1-2.95,4.43c-2,.81-4.84.86-6.87-2.38a5.32,5.32,0,0,1-9.47-.09,5.21,5.21,0,0,1-4.69,2.93,5.27,5.27,0,0,1-4.79-2.94A5.19,5.19,0,0,1,300,228.9a4.79,4.79,0,0,1-3-4.46h.73c.58,2.61,2,3.88,4.37,3.89s3.77-1.24,4.38-3.89h.72c.51,2.6,2,3.92,4.48,3.89s3.8-1.39,4.24-3.9l.72,0a4.29,4.29,0,0,0,5,3.91A4.11,4.11,0,0,0,325.35,224.43Z"/><circle class="cls-1" cx="329.87" cy="216.82" r="0.54"/><path class="cls-5" d="M205.77,133.39a.17.17,0,0,0-.24-.1,6.76,6.76,0,0,0-3.42,6.18.17.17,0,0,0,.27.12.13.13,0,0,0,.17,0,6.6,6.6,0,0,1,1.5-1.12,3.73,3.73,0,0,0,1.19-1.18A5.6,5.6,0,0,0,205.77,133.39Z"/><path class="cls-5" d="M210.75,118.08a.15.15,0,0,0-.23-.09,6.78,6.78,0,0,0-3.43,6.18.18.18,0,0,0,.27.12.13.13,0,0,0,.17,0,6.4,6.4,0,0,1,1.51-1.11,3.94,3.94,0,0,0,1.18-1.19A5.55,5.55,0,0,0,210.75,118.08Z"/><path class="cls-5" d="M152.92,80.47a10.88,10.88,0,0,0-2-1.91,6.66,6.66,0,0,0-2.18-1.17,10,10,0,0,0-5.14,0,.16.16,0,0,0-.07.27,9.82,9.82,0,0,0,3.9,3.25,7.06,7.06,0,0,0,5.25-.19s0,0,0,0S153,80.62,152.92,80.47Z"/><path class="cls-3" d="M152.32,82.36a.16.16,0,0,0,0-.32.16.16,0,0,0,0,.32Z"/><path class="cls-3" d="M153.47,82.92a.16.16,0,0,0,0-.32.16.16,0,0,0,0,.32Z"/><path class="cls-3" d="M153.75,81.76a.17.17,0,0,0,0-.33.17.17,0,0,0,0,.33Z"/><path class="cls-3" d="M155.05,81.83a.17.17,0,0,0,0-.33.17.17,0,0,0,0,.33Z"/><path class="cls-3" d="M150.13,87.4a.16.16,0,0,0,0-.32.16.16,0,0,0,0,.32Z"/><path class="cls-3" d="M151.55,87.89a.16.16,0,0,0,0-.32.16.16,0,0,0,0,.32Z"/><path class="cls-3" d="M150.58,88.67a.16.16,0,0,0,0-.32.16.16,0,0,0,0,.32Z"/><path class="cls-3" d="M152.4,89a.16.16,0,0,0,0-.32.16.16,0,0,0,0,.32Z"/><rect class="cls-1" x="277.91" y="51.31" width="1.8" height="1.82"/><rect class="cls-1" x="353.59" y="50.91" width="1.62" height="2.09"/><path class="cls-1" d="M278.68,45.48V53h75.75v-7.5Zm73.4,5.61H281.69V48.36h70.39Z"/><path class="cls-1" d="M261.06,84.64V95.55h111.1V84.64ZM369.94,92.2H263.28V89.47H369.94Z"/><path class="cls-1" d="M272.4,125.54h14.16V131H272.4Zm13.24.92H273.32V130h12.32Z"/><path class="cls-1" d="M282.53,130.49h14.16v5.42H282.53Zm13.24.92H283.45V135h12.32Z"/><rect class="cls-2" x="345.92" y="146.53" width="12.32" height="3.58"/><path class="cls-1" d="M345,145.61V151h14.16v-5.42Zm13.24,4.5H345.92v-3.58h12.32Z"/><path class="cls-1" d="M270.83,183.31H285v5.42H270.83Zm13.24.92H271.75v3.58h12.32Z"/><path class="cls-1" d="M350.2,195.5h14.16v5.42H350.2Zm13.24.92H351.12V200h12.32Z"/><path class="cls-4" d="M390.2,75.71a6.22,6.22,0,0,0-3.71-4.85,8.46,8.46,0,0,0-3.66-.58,8.68,8.68,0,0,0-3.41,1.15c-.38.2-.73.44-.68.92a10.43,10.43,0,0,0,.58,1.49A8.57,8.57,0,0,0,380.77,77a7.16,7.16,0,0,0,5.87,2.65.18.18,0,0,0,.1.07,2.32,2.32,0,0,0,1.48-.24l.71-.35a6.07,6.07,0,0,1,1-.27c.46-.13.54-.5.52-.93C390.39,77.17,390.31,76.43,390.2,75.71Zm-9.7-1.66a.16.16,0,0,1-.15-.16.15.15,0,0,1,.15-.15.16.16,0,0,1,.16.15A.16.16,0,0,1,380.5,74.05Zm0-1.4a.16.16,0,0,1-.16-.15.16.16,0,0,1,.16-.16.16.16,0,0,1,.15.16A.15.15,0,0,1,380.53,72.65Zm.68,2.92a.16.16,0,0,1-.15-.16.15.15,0,0,1,.15-.15.16.16,0,0,1,.16.15A.16.16,0,0,1,381.21,75.57Zm.56-1.27a.15.15,0,0,1-.16-.15.16.16,0,0,1,.16-.15.15.15,0,0,1,.15.15A.15.15,0,0,1,381.77,74.3Zm5,3.42a.15.15,0,0,1-.15-.15.16.16,0,0,1,.15-.16.16.16,0,0,1,.16.16A.16.16,0,0,1,386.72,77.72Zm.47-1.54A.16.16,0,0,1,387,76a.15.15,0,0,1,.15-.15.16.16,0,0,1,.16.15A.16.16,0,0,1,387.19,76.18Zm.88,1a.15.15,0,0,1-.15-.15.16.16,0,0,1,.15-.16.15.15,0,0,1,.15.16A.15.15,0,0,1,388.07,77.19Zm.24-2a.16.16,0,0,1-.16-.15.16.16,0,0,1,.16-.16.16.16,0,0,1,.15.16A.15.15,0,0,1,388.31,75.22Z"/><path class="cls-5" d="M450.88,68.16a.17.17,0,0,0-.29,0A9,9,0,0,0,448.4,73a11.06,11.06,0,0,0,.39,3,6.71,6.71,0,0,0,1,2.42.16.16,0,0,0,.28,0,10.92,10.92,0,0,0,1-10.12A.16.16,0,0,0,450.88,68.16Z"/><path class="cls-5" d="M461.43,77.25c.34-.06.59-.19.46-.57a2.64,2.64,0,0,0-.6-1A4,4,0,0,0,459,74.61a7.55,7.55,0,0,0-2-.08,6.27,6.27,0,0,0,2.3-1.89c.87-1.18,1.31-2.61,2.14-3.81.09-.13-.05-.26-.18-.24-2.82.57-5.92,2.8-5.49,6a.16.16,0,0,0,.15.14.15.15,0,0,0,.1.13s0,0,0,0a.18.18,0,0,0,0,.31,3.84,3.84,0,0,1,1.33,1,2.78,2.78,0,0,0,1.16.78,8,8,0,0,0,1.38.28A4.35,4.35,0,0,0,461.43,77.25Z"/><path class="cls-5" d="M461.71,81.79a.15.15,0,0,0-.2-.1.12.12,0,0,0-.18,0A9.06,9.06,0,0,0,460,91.15a.17.17,0,0,0,.26,0A9,9,0,0,0,462.37,87a9,9,0,0,0-.12-2.42C462.12,83.67,461.93,82.72,461.71,81.79Z"/><path class="cls-5" d="M472.14,84.33a6.26,6.26,0,0,0-2-1.37c-.35-.16-.72-.31-1.08-.44a10.62,10.62,0,0,1-1.19-.43,4.67,4.67,0,0,0,3.27-.89A12.17,12.17,0,0,0,472.76,80a2.63,2.63,0,0,0,1-1.47.16.16,0,0,0-.2-.2,10.57,10.57,0,0,0-5.8,3.37.07.07,0,0,0,0,.06.53.53,0,0,1-.12,0h-.06c-.1,0-.23,0-.23.13.06,1.63.17,3.46,1.4,4.68A8,8,0,0,0,471,87.92a29.89,29.89,0,0,0,2.8,1.15c.12,0,.22-.09.2-.2A9.25,9.25,0,0,0,472.14,84.33Z"/><path class="cls-5" d="M456.38,65.31a4.88,4.88,0,0,0-3.92,4.45.14.14,0,0,0,.16.15.15.15,0,0,0,.16.09,3.48,3.48,0,0,0,2.11-1.63,14,14,0,0,0,1.69-2.86C456.62,65.38,456.48,65.29,456.38,65.31Z"/><path class="cls-4" d="M439.66,170.65a5.45,5.45,0,0,0,1.76,5,6.64,6.64,0,0,0,6,1.43c.37-.06.73-.16.81-.57a8.26,8.26,0,0,0-.07-1.4,7.48,7.48,0,0,0-.36-3,6.24,6.24,0,0,0-4.15-3.78s0-.07-.07-.09a2,2,0,0,0-1.29-.2l-.68.1a5.32,5.32,0,0,1-.9,0c-.41,0-.58.27-.68.63C439.89,169.4,439.76,170,439.66,170.65Zm7.59,4a.14.14,0,0,1,.09.17.14.14,0,1,1-.26-.08A.14.14,0,0,1,447.25,174.65Zm-.39,1.16a.12.12,0,0,1,.08.16.13.13,0,0,1-.17.09.13.13,0,0,1-.08-.17A.12.12,0,0,1,446.86,175.81Zm.21-2.61a.14.14,0,0,1,.09.17.14.14,0,1,1-.26-.08A.14.14,0,0,1,447.07,173.2Zm-.8.9a.14.14,0,0,1-.08.26.14.14,0,0,1,.08-.26Zm-3.18-4.17a.13.13,0,1,1-.09.25.12.12,0,0,1-.08-.17A.13.13,0,0,1,443.09,169.93Zm-.81,1.15a.14.14,0,0,1,.09.17.14.14,0,1,1-.26-.08A.14.14,0,0,1,442.28,171.08Zm-.45-1.08a.14.14,0,0,1-.09.26.13.13,0,0,1-.08-.17A.14.14,0,0,1,441.83,170Zm-.73,1.57a.13.13,0,0,1,.08.17.14.14,0,0,1-.17.09.13.13,0,0,1-.08-.17A.14.14,0,0,1,441.1,171.57Z"/><path class="cls-4" d="M227.36,134.12c.18.39.44.67.9.56a6.52,6.52,0,0,1,1-.25l.8,0a2.16,2.16,0,0,0,1.4-.5c.05,0,.05-.07.06-.11a7.13,7.13,0,0,0,3.84-5.17,8.24,8.24,0,0,0-.24-3.42,10.32,10.32,0,0,0-.22-1.59c-.19-.44-.61-.49-1-.47a8.89,8.89,0,0,0-3.54.64,8.57,8.57,0,0,0-2.92,2.29,6.25,6.25,0,0,0-.89,6C226.76,132.78,227,133.47,227.36,134.12Zm6.61-8.24a.15.15,0,0,1,.06-.21.15.15,0,0,1,.15.27A.16.16,0,0,1,234,125.88Zm-.7-1.21a.15.15,0,0,1,.06-.21.16.16,0,0,1,.21.06.16.16,0,0,1-.06.21A.15.15,0,0,1,233.27,124.67Zm.81,2.88a.16.16,0,0,1,.06-.21.16.16,0,0,1,.21.06.15.15,0,0,1-.06.21A.15.15,0,0,1,234.08,127.55Zm-1.09-.83a.15.15,0,0,1,.06-.21.15.15,0,0,1,.21.06.16.16,0,0,1-.06.21A.16.16,0,0,1,233,126.72Zm-2.68,5.39a.15.15,0,0,1,.27-.15.15.15,0,0,1-.27.15ZM229.15,131a.16.16,0,0,1,.06-.21.15.15,0,0,1,.21.06.15.15,0,0,1-.06.21A.16.16,0,0,1,229.15,131Zm-.27,1.31a.14.14,0,0,1,.06-.21.16.16,0,0,1,.21.06.16.16,0,0,1-.06.21A.15.15,0,0,1,228.88,132.3Zm-1.17-1.61a.16.16,0,0,1,.06-.21.16.16,0,0,1,.21.06.15.15,0,0,1-.06.21A.15.15,0,0,1,227.71,130.69Z"/><path class="cls-1" d="M223.85,119.21H221.1a.16.16,0,0,1,0-.32h2.75a.16.16,0,0,1,0,.32Z"/><path class="cls-1" d="M218.26,119.3h-2.74a.16.16,0,0,1,0-.32h2.74a.16.16,0,0,1,0,.32Z"/><path class="cls-1" d="M222.54,116.49A14.34,14.34,0,0,1,221,118a.16.16,0,0,1-.23,0,.15.15,0,0,1,0-.22,16.41,16.41,0,0,0,1.58-1.54.16.16,0,0,1,.23,0,.17.17,0,0,1,0,.22Z"/><path class="cls-1" d="M219.82,115.37l-.13,2c0,.2-.34.21-.32,0l.13-2c0-.2.34-.2.32,0Z"/><path class="cls-1" d="M218.48,120.55l-1.2,1.42a.18.18,0,0,1-.23,0,.16.16,0,0,1,0-.23l1.2-1.42a.16.16,0,0,1,.23,0,.17.17,0,0,1,0,.23Z"/><path class="cls-1" d="M219.8,120.49v2.24a.16.16,0,0,1-.32,0v-2.24a.16.16,0,0,1,.32,0Z"/><path class="cls-1" d="M221,120.19l1.38,1.56a.16.16,0,0,1,0,.22.16.16,0,0,1-.23,0l-1.38-1.55a.17.17,0,0,1,0-.23.18.18,0,0,1,.23,0Z"/><path class="cls-1" d="M217.25,116.38l1.39,1.55a.18.18,0,0,1,0,.23.16.16,0,0,1-.23,0L217,116.61a.16.16,0,0,1,0-.23.16.16,0,0,1,.22,0Z"/><circle class="cls-1" cx="219.6" cy="119.14" r="0.48"/><path class="cls-1" d="M219.6,118.63a.51.51,0,1,1-.52.51A.51.51,0,0,1,219.6,118.63Zm0,.06a.45.45,0,1,0,.44.45A.45.45,0,0,0,219.6,118.69Z"/><path class="cls-4" d="M212.88,128.32c-.33-.3-.67-.47-1.06-.19a7.28,7.28,0,0,1-.84.62l-.73.34a2.32,2.32,0,0,0-1.13,1,.15.15,0,0,0,0,.13,7.28,7.28,0,0,0-1.63,6.34,8.32,8.32,0,0,0,1.55,3.12,9.24,9.24,0,0,0,.81,1.41c.35.35.76.23,1.16.05a8.92,8.92,0,0,0,3.08-2,8.77,8.77,0,0,0,1.87-3.27,6.35,6.35,0,0,0-1.49-6C214,129.35,213.43,128.81,212.88,128.32Zm-3,10.28a.17.17,0,0,1,0,.22.16.16,0,0,1-.22,0,.15.15,0,0,1,0-.22A.16.16,0,0,1,209.84,138.6Zm1.12.87a.15.15,0,0,1,0,.22.16.16,0,0,1-.22,0,.15.15,0,0,1,0-.22A.16.16,0,0,1,211,139.47Zm-1.88-2.39a.15.15,0,1,1-.22,0A.15.15,0,0,1,209.08,137.08Zm1.36.36a.17.17,0,0,1,0,.22.15.15,0,0,1-.22,0,.16.16,0,0,1,0-.22A.18.18,0,0,1,210.44,137.44Zm.44-6.1a.16.16,0,0,1-.2.25.15.15,0,0,1,0-.22A.16.16,0,0,1,210.88,131.34Zm1.52.61a.16.16,0,0,1,0,.22.16.16,0,0,1-.24-.2A.17.17,0,0,1,212.4,132Zm-.25-1.34a.16.16,0,1,1-.22,0A.16.16,0,0,1,212.15,130.61Zm1.71,1.06a.16.16,0,1,1-.22,0A.16.16,0,0,1,213.86,131.67Z"/><path class="cls-5" d="M219.4,131.2c-.05-.19-.31-.12-.31.05a.14.14,0,0,0-.13,0,21.45,21.45,0,0,0-3.42,4.51,19.9,19.9,0,0,0-1.2,2.51,4.9,4.9,0,0,0-.51,2.73.16.16,0,0,0,.2.11A8.48,8.48,0,0,0,219.4,131.2Z"/><path class="cls-5" d="M209.44,117.15c-2.15-.1-3.55,2.15-3.38,4.12.19,2.14,2,3.8,3.62,5,3.67,2.56,8,4.17,12.09,5.81,3.48,1.39,7.66,2.6,10.28,5.42a27.15,27.15,0,0,1,3.32,4.82,17.45,17.45,0,0,1,2.39,5.7c0,.2-.27.29-.31.08a17.37,17.37,0,0,0-2.36-5.62,27.16,27.16,0,0,0-3.27-4.76c-2.63-2.82-6.85-4-10.34-5.41a77.17,77.17,0,0,1-10.06-4.57c-2.32-1.34-5.17-3.19-5.64-6.07-.36-2.24,1.2-4.91,3.66-4.79.2,0,.21.33,0,.32Z"/><path class="cls-5" d="M160.6,76.14c.2,0,.41.08.62.13l-.5,0s0,0,0,0a.06.06,0,0,1,0,0h0l-.1,0,0,.39c-.66,2.57,3.35,6.76,6.57,6.84C168.34,80,164.24,75.66,160.6,76.14Z"/><path class="cls-5" d="M166,65.89c-.26-1-.57-1.41-.89-1.52h0c-1.41-.47-2.92,5.79.17,7.23.16.12.31-.13.17-.26l0-.06,0-.07C166.61,71.12,166.58,66.94,166,65.89Z"/><path class="cls-5" d="M178,73.38h0l.16,0c-.82-2.23-4.39-5.14-6.33-5.34l-.19-.1c0-.05,0-.09,0-.14,0-.2-.26-.29-.31-.09-.8,3.26,3.68,6.4,6.5,5.75h0l.12,0Z"/><path class="cls-4" d="M162.26,72a6.33,6.33,0,0,0-2.69-5.59,8.77,8.77,0,0,0-3.52-1.33,9,9,0,0,0-3.63.45c-.42.12-.82.28-.87.77a11.27,11.27,0,0,0,.27,1.61,8.64,8.64,0,0,0,.8,3.39,7.27,7.27,0,0,0,5.3,3.84s0,.08.08.1a2.4,2.4,0,0,0,1.52.06c.26-.07.52-.15.78-.21a6.09,6.09,0,0,1,1,0c.48,0,.64-.39.7-.83C162.15,73.5,162.22,72.74,162.26,72ZM153,68.36a.16.16,0,0,1-.13-.18.17.17,0,0,1,.19-.13.16.16,0,0,1,.12.19A.16.16,0,0,1,153,68.36Zm.31-1.38a.15.15,0,0,1-.12-.19.15.15,0,0,1,.18-.12.16.16,0,0,1,.12.19A.16.16,0,0,1,153.27,67Zm.08,3a.16.16,0,0,1-.12-.19.16.16,0,0,1,.18-.12.16.16,0,1,1-.06.31Zm.81-1.14a.16.16,0,0,1-.12-.19.16.16,0,0,1,.18-.12.15.15,0,0,1,.12.18A.16.16,0,0,1,154.16,68.88Zm4.23,4.41a.15.15,0,0,1-.12-.18.15.15,0,0,1,.3.06A.15.15,0,0,1,158.39,73.29Zm.78-1.43a.17.17,0,0,1-.12-.19.16.16,0,0,1,.18-.12.16.16,0,0,1,.13.18A.17.17,0,0,1,159.17,71.86Zm.67,1.18a.16.16,0,0,1-.13-.18.15.15,0,0,1,.19-.12.15.15,0,0,1,.12.18A.15.15,0,0,1,159.84,73Zm.64-1.91a.15.15,0,1,1,.18-.12A.14.14,0,0,1,160.48,71.13Z"/><path class="cls-5" d="M157.88,71.35a.17.17,0,0,0-.26,0,4.61,4.61,0,0,0,.51,6.69.17.17,0,0,0,.17,0,.18.18,0,0,0,.31,0A7.34,7.34,0,0,0,157.88,71.35Z"/><path class="cls-5" d="M152.4,76.24a2.64,2.64,0,0,0-.29,3.3c.72.93,1.84.76,2.85.4a13.16,13.16,0,0,0,4-2.5c2.27-2,4.27-4.23,6.57-6.18,2.1-1.78,4.38-3.65,7.16-4.19,1-.19,4.74-.34,3.62,1.71-.09.18-.37,0-.27-.16.91-1.69-2.66-1.35-3.26-1.23a9.42,9.42,0,0,0-2.62.93,24.13,24.13,0,0,0-4.23,3c-2.41,2-4.49,4.41-6.89,6.45-1.53,1.3-3.91,3.14-6.08,2.72s-1.83-3.17-.77-4.5c.13-.16.35.07.22.23Z"/><path class="cls-4" d="M150.2,90.27a5.86,5.86,0,0,0,5-2.75,8.1,8.1,0,0,0,1.06-3.32,8.27,8.27,0,0,0-.59-3.32c-.13-.38-.3-.73-.75-.76a9.71,9.71,0,0,0-1.47.33,7.82,7.82,0,0,0-3.09.9,6.72,6.72,0,0,0-3.29,5.06.18.18,0,0,0-.08.09,2.1,2.1,0,0,0,0,1.4c.07.23.15.47.22.71a5.11,5.11,0,0,1,.1,1c.06.44.39.57.79.61C148.83,90.24,149.53,90.26,150.2,90.27Zm2.92-8.76a.16.16,0,0,1,.17-.12.15.15,0,0,1,.12.17.14.14,0,0,1-.16.12A.16.16,0,0,1,153.12,81.51Zm1.29.22a.16.16,0,0,1,.17-.12.15.15,0,0,1,.12.17.15.15,0,0,1-.17.12A.16.16,0,0,1,154.41,81.73Zm-2.79.23a.13.13,0,0,1,.16-.12.14.14,0,0,1,0,.28A.13.13,0,0,1,151.62,82Zm1.09.69a.14.14,0,1,1,.28,0,.14.14,0,0,1-.28,0Zm-3.87,4.11a.14.14,0,1,1,.28,0,.14.14,0,0,1-.28,0Zm1.36.65a.15.15,0,0,1,.17-.12.15.15,0,0,1,.12.16.16.16,0,0,1-.17.13A.15.15,0,0,1,150.2,87.41Zm-1.06.67a.14.14,0,0,1,.16-.12.14.14,0,0,1,0,.28A.14.14,0,0,1,149.14,88.08Zm1.79.5a.14.14,0,0,1,.16-.12.14.14,0,1,1,0,.28A.14.14,0,0,1,150.93,88.58Z"/><path class="cls-4" d="M455.44,77.23a5.5,5.5,0,0,0-4.79,2.45,7.47,7.47,0,0,0-1.08,3.08,7.62,7.62,0,0,0,.46,3.13c.11.36.26.7.68.73a8.49,8.49,0,0,0,1.39-.26A7.39,7.39,0,0,0,455,85.6a6.3,6.3,0,0,0,3.23-4.66.2.2,0,0,0,.08-.08,2,2,0,0,0,0-1.32c-.06-.22-.13-.44-.19-.67a5.54,5.54,0,0,1-.07-.9c0-.41-.35-.55-.73-.59C456.73,77.3,456.08,77.26,455.44,77.23Zm-3,8.14a.13.13,0,1,1-.11-.16A.13.13,0,0,1,452.46,85.37Zm-1.2-.24a.14.14,0,0,1-.16.11.15.15,0,0,1-.11-.16.14.14,0,0,1,.16-.11A.14.14,0,0,1,451.26,85.13Zm2.63-.14a.13.13,0,0,1-.16.11.13.13,0,1,1,0-.26A.13.13,0,0,1,453.89,85Zm-1-.67a.13.13,0,0,1-.16.1.13.13,0,1,1,0-.26A.14.14,0,0,1,452.89,84.32Zm3.74-3.76a.14.14,0,0,1-.27,0,.13.13,0,0,1,.16-.11A.13.13,0,0,1,456.63,80.56Zm-1.26-.65a.14.14,0,0,1-.27,0,.13.13,0,0,1,.16-.11A.13.13,0,0,1,455.37,79.91Zm1-.6a.13.13,0,1,1-.11-.15A.12.12,0,0,1,456.38,79.31Zm-1.66-.51a.15.15,0,0,1-.16.11.14.14,0,0,1-.11-.16.13.13,0,0,1,.16-.11A.14.14,0,0,1,454.72,78.8Z"/><path class="cls-5" d="M447.25,66.16a9,9,0,0,1,5.51,3.66c1.7,2.14,3.11,4.53,4.62,6.81,1.39,2.1,2.87,4.7,5.48,5.4a6.32,6.32,0,0,0,4.4-.4,2.18,2.18,0,0,0-.55-4.14c-.21,0-.12-.35.08-.31a2.47,2.47,0,0,1,1.11,4.42c-2,1.56-5.3,1.16-7.19-.32A13.11,13.11,0,0,1,458,78.2c-1-1.5-2-3-3-4.53-2-3-4-6.58-7.87-7.2-.2,0-.12-.35.09-.31Z"/><path class="cls-4" d="M400.18,69.31A6.21,6.21,0,0,0,404.13,74a8.4,8.4,0,0,0,3.69.4A8.88,8.88,0,0,0,411.16,73c.38-.21.71-.47.64-1a11.12,11.12,0,0,0-.66-1.46,8.26,8.26,0,0,0-1.6-3,7.18,7.18,0,0,0-6-2.36s-.05-.06-.11-.06a2.22,2.22,0,0,0-1.46.32c-.23.12-.45.26-.69.38a7,7,0,0,1-1,.32c-.45.15-.51.52-.46,1C399.91,67.87,400,68.6,400.18,69.31ZM410,70.49a.15.15,0,1,1,0,.3.15.15,0,1,1,0-.3Zm.05,1.39a.16.16,0,0,1,.16.15.16.16,0,0,1-.15.16.16.16,0,0,1,0-.31ZM409.16,69a.16.16,0,0,1,.17.14.15.15,0,0,1-.15.16.15.15,0,1,1,0-.3Zm-.48,1.28a.16.16,0,0,1,.16.15.15.15,0,0,1-.15.16.15.15,0,0,1-.16-.14A.16.16,0,0,1,408.68,70.29Zm-5.13-3.16a.16.16,0,0,1,.16.15.15.15,0,1,1-.3,0A.16.16,0,0,1,403.55,67.13Zm-.39,1.57a.14.14,0,0,1,.16.14.15.15,0,1,1-.3,0A.14.14,0,0,1,403.16,68.7Zm-.93-1a.16.16,0,0,1,.17.15.17.17,0,0,1-.15.16.15.15,0,0,1-.16-.15A.15.15,0,0,1,402.23,67.73Zm-.13,2a.16.16,0,0,1,0,.31.16.16,0,0,1-.16-.15A.15.15,0,0,1,402.1,69.71Z"/><path class="cls-4" d="M462.37,154.33a6.22,6.22,0,0,0-1.14,6,8.55,8.55,0,0,0,2,3.12,8.76,8.76,0,0,0,3.13,1.77c.41.15.81.25,1.14-.11a10.66,10.66,0,0,0,.73-1.43,8.42,8.42,0,0,0,1.35-3.15,7.17,7.17,0,0,0-1.94-6.14.21.21,0,0,0,0-.13,2.23,2.23,0,0,0-1.16-.93c-.25-.11-.5-.19-.74-.3a6.35,6.35,0,0,1-.86-.56c-.4-.26-.73-.07-1,.24C463.32,153.22,462.83,153.78,462.37,154.33Zm5.23,8.34a.15.15,0,1,1-.23.2.14.14,0,0,1,0-.21A.15.15,0,0,1,467.6,162.67Zm-1.06.91a.16.16,0,1,1-.21,0A.14.14,0,0,1,466.54,163.58Zm1.72-2.45a.15.15,0,0,1,0,.21.16.16,0,1,1-.21-.23A.16.16,0,0,1,468.26,161.13Zm-1.31.42a.17.17,0,0,1,0,.22.16.16,0,0,1-.21-.23A.17.17,0,0,1,467,161.55Zm-.76-6a.16.16,0,0,1,0,.22.14.14,0,0,1-.21,0,.15.15,0,0,1,0-.22A.17.17,0,0,1,466.19,155.58Zm-1.47.68a.16.16,0,1,1-.21,0A.14.14,0,0,1,464.72,156.26Zm.17-1.33a.16.16,0,0,1-.23.21.17.17,0,0,1,0-.22A.16.16,0,0,1,464.89,154.93Zm-1.62,1.14a.16.16,0,0,1,0,.22.15.15,0,0,1-.21,0,.15.15,0,0,1,0-.22A.16.16,0,0,1,463.27,156.07Z"/><path class="cls-4" d="M450.43,156.61a6.22,6.22,0,0,0-1.08-6,8.46,8.46,0,0,0-3-2.2,8.79,8.79,0,0,0-3.56-.53c-.43,0-.85,0-1,.5a10.58,10.58,0,0,0-.17,1.6,8.26,8.26,0,0,0-.13,3.43,7.14,7.14,0,0,0,4,5,.17.17,0,0,0,.06.11A2.26,2.26,0,0,0,447,159h.8a6.59,6.59,0,0,1,1,.22c.46.1.71-.19.88-.59C449.94,158,450.2,157.29,450.43,156.61Zm-7.86-5.92a.15.15,0,0,1-.07-.21.16.16,0,0,1,.21-.06.14.14,0,0,1,.07.2A.16.16,0,0,1,442.57,150.69Zm.66-1.23a.15.15,0,0,1-.07-.21.16.16,0,0,1,.21-.06.14.14,0,0,1,.07.2A.16.16,0,0,1,443.23,149.46Zm-.72,2.91a.16.16,0,0,1-.07-.21.15.15,0,0,1,.21-.07.16.16,0,0,1,.06.21A.15.15,0,0,1,442.51,152.37Zm1.06-.87a.16.16,0,0,1-.06-.21.15.15,0,0,1,.21-.07.16.16,0,0,1,.06.21A.15.15,0,0,1,443.57,151.5Zm2.85,5.3a.15.15,0,0,1-.07-.21.16.16,0,0,1,.21-.06.14.14,0,0,1,.07.2A.15.15,0,0,1,446.42,156.8Zm1.12-1.16a.15.15,0,0,1-.06-.2.14.14,0,0,1,.2-.07.15.15,0,0,1,.07.21A.16.16,0,0,1,447.54,155.64Zm.32,1.31a.15.15,0,0,1-.07-.21.16.16,0,0,1,.21-.07.16.16,0,0,1-.14.28ZM449,155.3a.15.15,0,0,1-.06-.2.14.14,0,0,1,.2-.07.15.15,0,0,1,.07.21A.16.16,0,0,1,449,155.3Z"/><path class="cls-5" d="M466.72,141.58c2.16-.1,3.64,2,3.7,4,.08,2.72-2.32,4.76-4.4,6.1a58.34,58.34,0,0,1-9.88,4.76c-3.47,1.4-7.41,2.52-10.44,4.77a17.56,17.56,0,0,0-4.18,5.23,19.4,19.4,0,0,0-2.82,6.38c0,.21-.35.12-.31-.08a17.67,17.67,0,0,1,2.39-5.7,28.69,28.69,0,0,1,3.18-4.67c2.62-2.92,6.87-4.16,10.42-5.57,4.08-1.62,8.29-3.22,11.94-5.7,1.71-1.17,3.58-2.85,3.77-5.06.17-2-1.22-4.22-3.37-4.12-.21,0-.21-.31,0-.32Z"/><path class="cls-5" d="M395.28,70.05h.14s0,0,.06,0,0,0,0,0,0,0,0,0a7.26,7.26,0,0,0-.49-4.21,30.35,30.35,0,0,0-1.86-4.06.17.17,0,0,0-.28,0,7.94,7.94,0,0,0-.16,4.8A5.37,5.37,0,0,0,395.28,70.05Z"/><path class="cls-5" d="M400,71.67l-.36-5s0,0,0,0a.11.11,0,0,0,0-.06s0,0,0,0l-.06,0h-.1a0,0,0,0,1,0,0h0a4.6,4.6,0,0,0-2.21,3.17,5.77,5.77,0,0,0,.71,3.74A15.79,15.79,0,0,0,399,75.36c.17.25.46.81.81.43a2.71,2.71,0,0,0,.33-1.73C400.14,73.26,400.06,72.46,400,71.67Z"/><path class="cls-5" d="M403.52,54.84a13.66,13.66,0,0,0-3.43,5.34,6.57,6.57,0,0,0,.12,4.09,4.5,4.5,0,0,0-4-.64.17.17,0,0,0-.12.2,2.63,2.63,0,0,0,1.77,1.46,7.78,7.78,0,0,0,3.11.31l0,0a.13.13,0,0,0,.08,0,.14.14,0,0,0,.21,0A22.35,22.35,0,0,0,403.79,55,.16.16,0,0,0,403.52,54.84Z"/><path class="cls-5" d="M390.81,79a.13.13,0,0,0-.16-.06c-.16,0-.28.2-.11.28h0a5.33,5.33,0,0,0,2.65,3.51,8.25,8.25,0,0,0,5.31.73.17.17,0,0,0,.09-.24C397,80.46,393.45,80.32,390.81,79Z"/><path class="cls-5" d="M415.39,60.72a8,8,0,0,0-9,3,.14.14,0,0,0,.09.22.18.18,0,0,0,0,.09c1.36,1.31,3.49,1.32,5.25,1a11.07,11.07,0,0,0,4.89-2c.39-.3,1.18-.73.73-1.29A4.39,4.39,0,0,0,415.39,60.72Z"/><path class="cls-5" d="M418.93,67.67h0c0-.13-.22-.2-.29-.06a9,9,0,0,0,1,9.45c.08.11.23,0,.27-.07a10.82,10.82,0,0,0-.67-9.44A.16.16,0,0,0,418.93,67.67Z"/><path class="cls-5" d="M424.54,62c-.24-.13-.59.12-.8.23a6.22,6.22,0,0,0-.84.53,7,7,0,0,0-2.8,5c0,.2.28.2.31,0h0a4,4,0,0,0,2.81-1.91,6.13,6.13,0,0,0,.84-1.77c.11-.33.2-.68.3-1a4.48,4.48,0,0,0,.24-.94A.16.16,0,0,0,424.54,62Z"/><path class="cls-5" d="M390.62,78.55l0,0s0,0,0-.06,0,0,0-.08h0a.09.09,0,0,0,0-.06v0a22.54,22.54,0,0,0,.84-4.82,4.62,4.62,0,0,0-1.07-3.11c-.28-.3-.8-.8-1.24-.81s-.39.73-.42,1a13.56,13.56,0,0,0,1.44,7.61,8.12,8.12,0,0,0-4.89.54,5.37,5.37,0,0,0-2.88,3.42.16.16,0,0,0,.16.2,7.9,7.9,0,0,0,4.75-1,6.66,6.66,0,0,0,1.57-1.38,4.2,4.2,0,0,1,1.69-1.35Z"/><rect id="cadre-2" data-name="cadre" class="cls-2" x="-0.5" y="0.33" width="623.62" height="340.16"/></svg>