<?xml version="1.0" encoding="utf-8"?>
<!-- Generator: Adobe Illustrator 24.2.3, SVG Export Plug-In . SVG Version: 6.00 Build 0)  -->
<svg version="1.1" id="coiffure_x5F_12" xmlns="http://www.w3.org/2000/svg" xmlns:xlink="http://www.w3.org/1999/xlink" x="0px"
	 y="0px" viewBox="0 0 553 574" style="enable-background:new 0 0 553 574;" xml:space="preserve">
<style type="text/css">
	.st0{fill:#3D2C23;}
	.st1{fill:#4C3327;}
	.st2{fill:#010201;}
</style>
<g>
	<g>
		<g>
			<path class="st0" d="M261.7,109.6c3.6,0,5.3,5.2,1.1,5.8c-10.5-0.2-24-4.4-32.6,3.5C235.3,106.9,250.7,107.7,261.7,109.6z"/>
			<g>
				<path class="st0" d="M261.7,109.6c0.8,0,1.5,0.2,2.2,0.7c0.6,0.5,1.1,1.1,1.3,1.9c0.2,0.7,0.1,1.6-0.4,2.2
					c-0.5,0.6-1.3,0.9-2,1.1l0,0h0c-5.6-0.1-11.2-1.1-16.9-1.1c-2.8,0-5.6,0.2-8.3,0.9c-2.7,0.7-5.2,2-7.2,3.9l-1.2,1.1l0.6-1.5
					c1.2-2.8,3.1-5.3,5.7-7c2.5-1.7,5.5-2.6,8.4-3.1c3-0.5,6-0.5,8.9-0.3C255.9,108.7,258.8,109.1,261.7,109.6z M261.7,109.6
					c-5.8-1-11.9-1.6-17.7-0.5c-2.9,0.5-5.7,1.5-8.1,3.2c-2.4,1.7-4.2,4.1-5.3,6.8l-0.6-0.4l1.7-1.4l1.8-1.1l2-0.9
					c0.7-0.2,1.4-0.5,2.1-0.7c2.8-0.7,5.7-0.9,8.5-0.8c2.8,0.1,5.6,0.4,8.4,0.7c2.8,0.3,5.6,0.7,8.4,0.8l0,0c0.7-0.1,1.5-0.4,2-1
					c0.5-0.6,0.6-1.4,0.4-2.2c-0.2-0.7-0.7-1.4-1.3-1.9C263.3,109.9,262.5,109.6,261.7,109.6z"/>
			</g>
		</g>
		<g>
			<path class="st0" d="M291.3,108.9c-3.6,0-5.3,5.2-1.1,5.8c10.5-0.2,24-4.4,32.6,3.5C317.7,106.2,302.3,107,291.3,108.9z"/>
			<g>
				<path class="st0" d="M291.3,108.9c-0.8,0-1.5,0.3-2.2,0.7c-0.6,0.5-1.1,1.1-1.3,1.9c-0.2,0.7-0.1,1.6,0.4,2.2
					c0.5,0.6,1.2,0.9,2,1l0,0c2.8-0.1,5.6-0.5,8.4-0.8c2.8-0.3,5.6-0.7,8.4-0.7c2.8-0.1,5.7,0.1,8.5,0.8c0.7,0.2,1.4,0.4,2.1,0.7
					l2,0.9l1.8,1.1l1.7,1.4l-0.6,0.4c-1.1-2.7-3-5.1-5.3-6.8c-2.4-1.7-5.2-2.7-8.1-3.2C303.1,107.4,297.1,108,291.3,108.9z
					 M291.3,108.9c2.9-0.5,5.9-0.9,8.9-1.1c3-0.2,6-0.2,8.9,0.3c2.9,0.5,5.9,1.4,8.4,3.1c2.5,1.7,4.5,4.2,5.7,7l0.6,1.5l-1.2-1.1
					c-2-1.9-4.5-3.2-7.2-3.9c-2.7-0.7-5.5-0.9-8.3-0.9c-5.6,0-11.2,1-16.9,1.1l0,0l0,0c-0.8-0.1-1.5-0.4-2-1.1
					c-0.5-0.6-0.6-1.5-0.4-2.2c0.2-0.7,0.7-1.4,1.3-1.9C289.7,109.2,290.5,108.9,291.3,108.9z"/>
			</g>
		</g>
		<g>
			<path class="st0" d="M258,122.2c-6-4.1-14-2-19.6,1.8c-0.6-0.9-1.9-1.3-2-2.6c-0.1,1.1,0.1,2.5,1.1,3.2c-0.1,0.1-0.3,0.2-0.4,0.2
				c-1.1-0.7-2.3-1.4-2.6-2.8c-0.1,1.3,0.1,2.7,1.2,3.5c-0.3,0.1-0.5,0.2-0.8,0.3c-1.1-0.6-2.2-1.4-2.5-2.7c-0.1,1.4,0.2,3,1.5,3.7
				c0.7,6.9,3.8,13.9,10.8,16.1c-22.5-14.6,7.8-33.2,18.3-13.4C262.4,126.7,260.3,123.7,258,122.2z"/>
			<path class="st0" d="M320.9,122.9c-0.3,1.3-1.4,2.1-2.5,2.7c-0.3-0.1-0.5-0.2-0.8-0.3c1.1-0.8,1.3-2.3,1.2-3.5
				c-0.3,1.4-1.5,2.2-2.6,2.8c-0.1-0.1-0.3-0.2-0.4-0.2c1-0.7,1.2-2,1.1-3.2c-0.1,1.4-1.4,1.8-2,2.6c-7.6-5.9-21.8-6-24.5,5
				c10.8-19.5,40.6-0.5,18.2,13.9c7.1-2.2,10.2-9.3,10.9-16.2C320.7,126,321,124.3,320.9,122.9z"/>
		</g>
	</g>
	<g>
		<path class="st1" d="M225.4,152.4c-2.7,9.7,9.8,28.8,30.1,38.3c2.7,1.3,4.9,1.3,7,3.6c2,2.3,2.5,6.6,0.5,8.9
			c-5.8,6.8-18,3.1-22.3,3.1c-4.9,0-3.9,0.4-9.8,2.7c-1.9-5.6-1.6-8.9-5-13.7c2.2,6.1,3.3,12.6,3.2,19.2c-1.2,0.5-2.5,1-3.8,1.4
			c0.2-4.6-0.9-9.2-3.1-13.2c1,4.8,1.2,9.8,0.4,14.7c-1.9,0-3.9,0-5.9,0.1c-14.4-25.5-17.7-56.4-14.1-85.7
			c2.4-20,8.1-40.1,19.6-56.4C233.7,59,253.9,54.2,273.5,53c22-1.4,44.1,3.8,57.4,21.8s21.7,40.2,24.1,62.7
			c2.6,24.6-4.3,50.1-10.7,74c-4.2,1.2-8.7,1.4-13.2,0.6c0.6-7,0.1-14.1-1.7-20.6c-0.1,7.9,0.8,12.1-3,20.5
			c-5.3-4.7-9.3-5.9-16.3-5.7c-3.1,0.1-6.1,1.3-9.2,0.8c-3.1-0.6-10.6-0.2-11.9-8c-1.3-7.6,8-8.7,10.6-9.8
			c21.9-9.4,30.6-23.4,33.4-40.2c7,0,1.8-14.7-0.2-12.5c-0.9-10.2-0.1-19.3,1.6-29.4c-1.3,9.5-4.5,18.8-9.5,26.9
			c2.9-14,3.2-28.5,0.8-42.6c-1.9,11.4-2.6,23.1-2,34.7c-4.9-10.3-8-21.5-9.1-32.9c-0.6,11.1,0.3,22.3,2.9,33.1
			c-7.1-10.1-11.8-21.9-13.8-34.2c-1.6,9.9-1.1,20.1,1.2,29.8c-8-10.3-12.2-23.6-11.7-36.7c-3.1,8.2-4.8,16.9-4.8,25.7
			c-3.8-14.8-7-18.2-4.2-33.2c-7.7,18.6-8.3,26.7-6.7,46.9c-5.8-11.9-7.7-25.7-5.4-38.8c-2.6,10.3-5.2,20.6-7.8,30.9
			c-3.5-11.9-4-24.6-1.4-36.7c-0.5,14.6-7,29-17.7,38.7c2.6-9.5,3.7-19.3,3.3-29.1c-0.1,14.4-6.4,28.7-16.8,38.3
			c3.4-10.4,3.9-21.8,1.4-32.5c-0.1,12.5-2.7,24.9-7.8,36.2c-0.7-6-1.4-12-1.9-18c0,9.1-1.2,12.8-1,22
			C209.2,130.3,223,152,225.4,152.4z"/>
		<g>
			<path class="st2" d="M225.4,152.4c-0.5,2.1-0.4,4.3,0.1,6.4c0.5,2.1,1.3,4.1,2.2,6c1.9,3.8,4.4,7.4,7.3,10.6
				c5.7,6.4,12.7,11.6,20.5,15.3c1.9,1,4.1,1.3,5.9,2.6c1.8,1.2,2.8,3.4,3,5.5c0.1,1.1,0,2.2-0.4,3.2c-0.4,1-1.2,1.8-2,2.5
				c-1.6,1.4-3.7,2.2-5.8,2.6c-4.3,0.8-8.6,0.2-12.8-0.4c-1.1-0.1-2.1-0.2-3.2-0.2c-1.1,0-2.1,0-3.2,0.3c-1,0.3-2,0.8-3,1.2
				c-1,0.4-2,0.9-3,1.3l-0.1,0l0-0.1c-0.8-2.3-1.3-4.7-1.9-7.1c-0.6-2.4-1.6-4.6-3-6.6l0.2-0.1c2.2,6.1,3.3,12.7,3.2,19.2l0,0.1
				l-0.1,0c-1.2,0.5-2.5,1-3.8,1.4l-0.2,0.1l0-0.2c0.2-4.5-0.9-9.1-3.1-13.1l0.3-0.1c1,4.8,1.2,9.8,0.4,14.7l0,0.1l-0.1,0l-5.9,0.1
				l-0.1,0l0-0.1c-8.5-15-13.2-32.1-14.8-49.2c-1.6-17.2-0.4-34.6,3.1-51.5c1.8-8.4,4.3-16.8,7.7-24.7c1.7-4,3.7-7.8,5.9-11.5
				c2.2-3.7,4.6-7.3,7.6-10.5c3-3.1,6.5-5.8,10.2-8c3.8-2.2,7.8-3.9,11.9-5.2c8.3-2.6,16.9-3.8,25.5-4.3c8.6-0.5,17.3,0,25.8,1.9
				c8.4,2,16.5,5.6,23.2,11.2c3.3,2.8,6.3,6,8.8,9.5c2.6,3.5,4.9,7.1,7,10.9c4.3,7.5,7.9,15.4,10.6,23.6c1.4,4.1,2.5,8.3,3.5,12.5
				c1,4.2,1.7,8.5,2.3,12.8c1.1,8.6,1,17.3,0.2,25.9c-1.7,17.2-6.2,34-10.6,50.6l0,0.2l-0.2,0c-4.3,1.2-8.9,1.4-13.3,0.6l-0.3,0
				l0-0.3c0.6-6.9,0.1-13.8-1.7-20.5l0.6-0.1c-0.1,3.5,0.2,7-0.2,10.5c-0.3,3.5-1.4,6.9-2.9,10.1l-0.2,0.4l-0.3-0.3
				c-1.8-1.6-3.6-3-5.8-4c-2.1-1-4.4-1.4-6.8-1.6c-1.2-0.1-2.3-0.1-3.5-0.1c-1.2,0-2.3,0.2-3.5,0.4c-1.2,0.2-2.3,0.4-3.6,0.5
				c-0.6,0-1.2,0-1.8-0.1c-0.6-0.1-1.2-0.2-1.8-0.2c-2.3-0.3-4.8-0.6-6.9-1.9c-1.1-0.6-2-1.5-2.6-2.6c-0.7-1.1-1.1-2.2-1.3-3.4
				c-0.2-1.2-0.2-2.5,0.2-3.7c0.4-1.2,1.2-2.2,2.1-3c1.9-1.6,4.3-2.3,6.5-3c0.6-0.2,1.1-0.3,1.7-0.5c0.5-0.2,1.1-0.5,1.6-0.7
				c1.1-0.5,2.1-1,3.2-1.5c2.1-1.1,4.2-2.2,6.2-3.5c4-2.5,7.7-5.5,10.8-9c3.2-3.5,5.7-7.5,7.7-11.8c1.9-4.3,3.2-8.9,4-13.5l0.1-0.3
				l0.3,0c0.6,0,1.2-0.1,1.7-0.5c0.5-0.3,0.8-0.8,1.1-1.4c0.4-1.2,0.4-2.5,0.3-3.8c-0.2-1.3-0.5-2.6-1-3.8c-0.3-0.6-0.5-1.2-0.9-1.7
				c-0.2-0.3-0.4-0.5-0.6-0.6c-0.2-0.1-0.3-0.1-0.4,0l-0.6,0.6l-0.1-0.8c-0.4-4.9-0.5-9.9-0.2-14.8c0.3-4.9,0.9-9.8,1.8-14.7
				l0.7,0.1c-1.3,9.5-4.5,18.8-9.5,27l-1.1,1.8l0.4-2c2.9-13.9,3.2-28.4,0.8-42.4l0.7,0c-1.9,11.4-2.6,23-2,34.6l0.1,1.7l-0.7-1.5
				c-4.9-10.4-8-21.6-9.1-33l0.6,0c-0.6,11,0.3,22.2,2.8,33l0.4,1.6l-0.9-1.3c-7.1-10.2-11.9-22.1-13.8-34.4l0.6,0
				c-1.6,9.9-1.1,20,1.2,29.7l0.3,1.3l-0.8-1.1c-8.1-10.4-12.2-23.8-11.7-36.9l0.5,0.1c-3.1,8.1-4.7,16.8-4.8,25.6l0,2.1l-0.5-2
				c-0.7-2.7-1.5-5.4-2.3-8.2c-0.8-2.7-1.7-5.4-2.2-8.2c-0.6-2.8-0.8-5.7-0.7-8.5c0.1-2.8,0.5-5.7,1-8.5l0.5,0.1
				c-3,7.4-5.8,14.9-6.9,22.8c-1,7.9-0.4,15.9,0.2,23.9l0.1,1.2l-0.5-1.1c-5.8-12-7.7-25.8-5.4-38.9l0.4,0.1l-7.8,30.9l-0.2,0.8
				l-0.2-0.8c-3.5-11.9-4-24.7-1.3-36.8l0.4,0c-0.5,14.6-7,28.9-17.8,38.8l-0.5,0.4l0.2-0.6c2.6-9.5,3.7-19.3,3.4-29.1l0.3,0
				c-0.1,14.4-6.3,28.6-16.9,38.4l-0.4,0.3l0.1-0.5c3.4-10.4,3.9-21.8,1.4-32.5l0.2,0c-0.1,12.4-2.8,24.9-7.8,36.2l-0.1,0.2l0-0.2
				c-0.7-6-1.4-12-1.9-18l0.1,0c0,3.7-0.2,7.3-0.6,11c-0.3,3.6-0.5,7.3-0.4,11l0,0l0,0c-1-0.4-2-0.7-3-0.8c-0.5,0-1.1,0-1.5,0.2
				c-0.5,0.2-0.8,0.7-0.9,1.2c-0.3,1,0,2.1,0.2,3.1c0.3,1,0.7,2,1.1,3c0.9,1.9,1.9,3.7,3.1,5.5c0.6,0.9,1.2,1.7,1.8,2.6
				c0.3,0.4,0.7,0.8,1,1.2C224.5,151.8,224.9,152.2,225.4,152.4z M225.4,152.4c-0.5-0.1-0.9-0.6-1.3-0.9c-0.4-0.4-0.7-0.8-1-1.2
				c-0.7-0.8-1.3-1.7-1.9-2.6c-1.2-1.8-2.2-3.6-3.1-5.5c-0.4-1-0.8-1.9-1.1-3c-0.3-1-0.5-2.1-0.2-3.1c0.1-0.5,0.5-1,1-1.2
				c0.5-0.2,1-0.3,1.6-0.2c1.1,0.1,2.1,0.4,3,0.8l0,0c-0.1-3.7,0-7.3,0.4-11c0.3-3.7,0.6-7.3,0.6-11l0.1,0c0.6,6,1.2,12,1.9,18
				l-0.1,0c5-11.4,7.7-23.8,7.7-36.2l0-0.8l0.2,0.8c2.5,10.7,2,22.1-1.4,32.6l-0.2-0.1c10.5-9.7,16.6-23.9,16.7-38.2l0.3,0
				c0.3,9.8-0.8,19.7-3.3,29.2l-0.3-0.2c10.7-9.8,17.1-24.1,17.6-38.6l0.4,0c-2.6,12.1-2.1,24.8,1.4,36.6l-0.4,0l7.8-30.9l0.4,0.1
				c-2.3,13-0.4,26.7,5.4,38.6l-0.5,0.1c-0.6-8-1.2-16-0.2-24c1-8,3.8-15.6,6.9-23l0.9-2.2l-0.4,2.3c-0.5,2.8-0.9,5.6-1,8.4
				c-0.1,2.8,0.1,5.6,0.7,8.4c0.6,2.8,1.4,5.4,2.2,8.2c0.8,2.7,1.6,5.4,2.3,8.2l-0.5,0.1c0.1-8.8,1.7-17.5,4.8-25.7l0.6-1.6
				l-0.1,1.7c-0.5,13,3.6,26.2,11.6,36.6l-0.5,0.2c-2.4-9.8-2.8-20-1.3-30l0.3-1.9l0.3,1.9c2,12.2,6.7,24,13.8,34.1l-0.6,0.3
				c-2.5-10.8-3.5-22-2.9-33.1l0.6,0c1.1,11.3,4.2,22.5,9.1,32.8l-0.6,0.2c-0.5-11.6,0.2-23.3,2-34.8l0.3-2l0.4,2
				c2.4,14.1,2.2,28.7-0.8,42.7l-0.7-0.3c5-8.1,8.2-17.3,9.4-26.8l0.7,0.1c-0.8,4.8-1.4,9.7-1.7,14.6c-0.3,4.9-0.3,9.8,0.1,14.7
				l-0.6-0.2c0.1-0.2,0.4-0.3,0.7-0.4c0.3,0,0.5,0.1,0.7,0.2c0.4,0.2,0.6,0.5,0.8,0.8c0.4,0.6,0.7,1.2,1,1.9c0.5,1.3,0.9,2.6,1.1,4
				c0.2,1.4,0.2,2.8-0.3,4.2c-0.3,0.7-0.7,1.3-1.3,1.8c-0.6,0.4-1.4,0.6-2.1,0.6l0.4-0.3c-0.8,4.7-2.1,9.3-4.1,13.7
				c-2,4.4-4.6,8.4-7.8,12c-3.2,3.5-7,6.6-11,9.1c-2,1.3-4.1,2.4-6.2,3.5c-1.1,0.5-2.1,1-3.2,1.5c-0.6,0.2-1.1,0.5-1.7,0.7
				c-0.6,0.2-1.2,0.4-1.7,0.5c-2.3,0.7-4.5,1.4-6.3,2.9c-0.9,0.7-1.6,1.7-1.9,2.7c-0.3,1.1-0.4,2.2-0.1,3.3c0.4,2.3,1.6,4.4,3.6,5.6
				c2,1.2,4.3,1.5,6.7,1.8c0.6,0.1,1.2,0.2,1.8,0.2c0.6,0.1,1.1,0.1,1.7,0.1c1.2-0.1,2.3-0.3,3.5-0.5c1.2-0.2,2.4-0.4,3.6-0.4
				c1.2,0,2.4,0,3.6,0.1c2.4,0.2,4.8,0.6,7,1.7c2.2,1,4.1,2.5,5.9,4.1l-0.5,0.1c1.4-3.2,2.5-6.5,2.8-9.9c0.3-3.4,0.1-6.9,0.2-10.5
				l0-2.3l0.6,2.2c1.8,6.7,2.3,13.8,1.7,20.7l-0.3-0.3c4.3,0.7,8.8,0.6,13-0.6l-0.2,0.2c4.4-16.6,8.9-33.4,10.6-50.5
				c0.8-8.6,0.9-17.2-0.2-25.7c-0.5-4.3-1.3-8.5-2.2-12.7c-1-4.2-2.1-8.3-3.5-12.4c-2.7-8.2-6.2-16.1-10.5-23.5
				c-2.2-3.7-4.4-7.4-7-10.8c-2.5-3.5-5.4-6.7-8.7-9.4c-6.6-5.5-14.6-9.1-23-11.1c-8.4-2-17-2.5-25.6-2c-8.6,0.5-17.2,1.7-25.4,4.3
				c-4.1,1.3-8.1,3-11.8,5.1c-3.7,2.1-7.1,4.8-10.1,7.9c-3,3.1-5.4,6.7-7.6,10.4c-2.2,3.7-4.2,7.5-5.9,11.5
				c-3.4,7.9-5.9,16.2-7.7,24.6c-3.5,16.9-4.7,34.2-3.1,51.4c1.6,17.1,6.2,34.1,14.7,49.1l-0.1-0.1l5.9,0l-0.2,0.1
				c0.8-4.8,0.6-9.8-0.4-14.6l-0.2-0.9l0.5,0.8c2.2,4,3.3,8.7,3.1,13.2l-0.2-0.1c1.3-0.4,2.5-0.9,3.8-1.4l-0.1,0.1
				c0.1-6.5-1-13-3.2-19.2l-0.3-0.7l0.5,0.6c1.4,2,2.4,4.3,3.1,6.7c0.6,2.4,1.1,4.8,1.9,7.1l-0.1-0.1c1-0.4,2-0.8,3-1.3
				c1-0.4,1.9-0.9,3-1.2c1.1-0.3,2.1-0.3,3.2-0.3c1.1,0,2.2,0.1,3.2,0.2c4.2,0.5,8.5,1.2,12.8,0.4c2.1-0.4,4.1-1.2,5.8-2.6
				c0.8-0.7,1.6-1.5,1.9-2.5c0.4-1,0.5-2.1,0.4-3.1c-0.2-2.1-1.1-4.2-2.9-5.4c-1.7-1.3-3.9-1.6-5.9-2.6c-7.7-3.7-14.8-8.9-20.5-15.3
				c-2.8-3.2-5.4-6.7-7.3-10.6c-0.9-1.9-1.7-3.9-2.2-6C225,156.6,224.9,154.4,225.4,152.4z"/>
		</g>
	</g>
	<g>
		<g>
			<path class="st2" d="M221.4,174.1c-0.8-1.6-1.4-3.3-1.9-5c-0.5-1.7-0.9-3.5-1.2-5.3c-0.3-1.8-0.5-3.6-0.6-5.4
				c-0.1-1.8,0-3.6,0.2-5.4c0.1,1.8,0.2,3.6,0.4,5.3c0.2,1.8,0.4,3.5,0.7,5.3c0.3,1.8,0.7,3.5,1.1,5.2
				C220.4,170.7,220.9,172.4,221.4,174.1z"/>
		</g>
		<g>
			<path class="st2" d="M237.6,182.4c-0.2,1.9-0.5,3.8,0,5.7c0.2,0.9,0.6,1.8,1,2.7l1.1,2.6l0.6,1.5l-1.1-1.2
				c-2.5-2.5-4.8-5.3-6.8-8.3c-2-3-3.7-6.2-5.1-9.4c-1.4-3.3-2.5-6.7-3.3-10.2c-0.8-3.5-1.2-7.1-1.3-10.6c0.3,3.6,0.9,7.1,1.7,10.5
				c0.9,3.4,2,6.8,3.5,10.1c1.4,3.3,3.2,6.3,5.1,9.3c2,3,4.2,5.7,6.7,8.3l-0.5,0.3l-1-2.7c-0.3-0.9-0.7-1.8-0.9-2.8
				c-0.2-1-0.2-2-0.1-2.9C237.2,184.2,237.4,183.3,237.6,182.4z"/>
		</g>
		<g>
			<path class="st2" d="M221.5,135.2c-0.7-2.3-1.2-4.7-1.6-7.1c-0.4-2.4-0.7-4.8-1-7.2c-0.2-2.4-0.4-4.9-0.4-7.3
				c0-2.4,0.1-4.9,0.3-7.3c0.1,2.4,0.2,4.8,0.3,7.3c0.1,2.4,0.3,4.8,0.5,7.2c0.2,2.4,0.5,4.8,0.8,7.2
				C220.8,130.4,221.1,132.8,221.5,135.2z"/>
		</g>
		<g>
			<path class="st2" d="M226.3,110.4c-0.4-1.5-0.7-3-0.9-4.5c-0.2-1.5-0.3-3-0.4-4.5c0-1.5,0-3,0.1-4.6c0.1-1.5,0.3-3,0.6-4.5l0,4.5
				c0,1.5,0,3,0.1,4.5c0,1.5,0.1,3,0.2,4.5L226.3,110.4z"/>
		</g>
		<g>
			<path class="st2" d="M334.2,170.6c-0.7,1.6-1.3,3.3-1.8,4.9c-0.5,1.7-0.9,3.4-1.2,5.1l-0.2,1.3l-0.4-1.3
				c-0.4-1.2-0.9-2.4-1.3-3.6l-1.2-3.7l0.6,0c-0.3,1.5-1,2.9-1.9,4.1c-0.9,1.2-2,2.3-3.3,3c1.2-0.9,2.2-2,2.9-3.3
				c0.8-1.2,1.3-2.6,1.6-4l0.3-1.1l0.4,1.1l1.3,3.6c0.4,1.2,0.8,2.4,1.2,3.7l-0.7,0.1c0.3-1.7,0.8-3.5,1.4-5.1
				C332.6,173.8,333.4,172.2,334.2,170.6z"/>
		</g>
		<g>
			<path class="st2" d="M290.6,55.3c-0.1,1.5-0.3,3-0.6,4.5c-0.3,1.5-0.7,2.9-1.1,4.4c-0.5,1.4-0.9,2.9-1.5,4.3
				c-0.6,1.4-1.1,2.8-1.9,4.1L288,64l1.3-4.3C289.8,58.2,290.2,56.8,290.6,55.3z"/>
		</g>
		<g>
			<path class="st2" d="M341,151.6c-0.1,5-0.1,10.1,0,15.1c0,2.5,0.1,5,0.2,7.5c0.1,2.5,0.2,5,0.3,7.5l0.1,1.5l-0.7-1.3
				c-1.5-2.8-2.8-5.8-3.6-9c-0.9-3.1-1.3-6.3-1.4-9.5c0.3,3.2,1,6.3,1.9,9.4c0.9,3,2.2,6,3.7,8.8l-0.6,0.2c-0.1-2.5-0.3-5-0.3-7.6
				c-0.1-2.5-0.1-5-0.1-7.6C340.4,161.6,340.6,156.6,341,151.6z"/>
		</g>
		<g>
			<path class="st2" d="M340.9,132.7c-0.1-1.5-0.2-3-0.3-4.5c-0.1-1.5-0.1-3-0.1-4.5c0-1.5,0-3,0.1-4.5c0.1-1.5,0.1-3,0.3-4.5
				c0.1,1.5,0.2,3,0.3,4.5c0.1,1.5,0.1,3,0.1,4.5c0,1.5,0,3-0.1,4.5C341.2,129.7,341.1,131.2,340.9,132.7z"/>
		</g>
		<g>
			<path class="st2" d="M216.2,134.7c-0.7-1.2-1.2-2.5-1.5-3.9c-0.3-1.4-0.4-2.8-0.2-4.2c0.4,1.3,0.6,2.7,0.9,4
				C215.7,132,216,133.4,216.2,134.7z"/>
		</g>
	</g>
</g>
</svg>
