<?xml version="1.0" encoding="utf-8"?>
<!-- Generator: Adobe Illustrator 24.2.3, SVG Export Plug-In . SVG Version: 6.00 Build 0)  -->
<svg version="1.1" id="coiffure_x5F_4" xmlns="http://www.w3.org/2000/svg" xmlns:xlink="http://www.w3.org/1999/xlink" x="0px"
	 y="0px" viewBox="0 0 553 574" style="enable-background:new 0 0 553 574;" xml:space="preserve">
<style type="text/css">
	.st0{fill:#4C3327;}
	.st1{fill:#010201;}
	.st2{fill:#F69481;}
	.st3{fill:#EE7F6C;}
	.st4{fill:#3D2C23;}
</style>
<g>
	<g>
		<g>
			<g>
				<path class="st0" d="M332.9,138.7c2.1-9.9,2.2-12.6-1.4-17s-2.6-7.5-2.3-9.7c0.3-2.2,1.8-5.6,2.3-9.4c0.5-3.7-2.3-9.1-3.3-10.6
					c-1.1-1.5-2.3-2.6-6-3.4c-3.7-0.7-5.8-3.3-6.6-4.2c-0.8-0.9-1-1.6-1-1.6l-0.8,0.5l-7.9,5.4c0,0-4.6,2.1-8.3,3.2
					c-3.7,1.1-9.1,1.4-12.5,0.7c-3.4-0.7-5.4-1.9-7.3-2.9c-0.8-0.4-1-0.8-1.1-1c0,0,0,0,0,0.1c-0.4,0.9-0.5,1.7-3.3,2.9
					c-2.8,1.2-10.1,1.4-13.1,1.3c-3-0.1-6.3-1.5-8.9-2.3c-2.6-0.9-12.7-4.4-12.5-4.8c-0.5,0.7-1.3,2-3.8,3.5
					c-3.6,2.1-6.9,0.9-6.9,0.9c3.7,11.3-4,17.1-5.6,19.4c-1.6,2.4-1.3,1.5-1.2,2.3c0.3,3.5,2.8,17.9,2,26.8l-3.1,1.3
					c-0.8-2.8-3.8,6-8.1,5.3c-1.7-0.3-9.6-21.9-8.7-29c0.4-3.1,1.1-6.6,1.1-6.6c-1-1.8-1.8-6.1-0.7-8c1-1.9,2.2-2,2.2-2l-0.5-0.3
					c-2.7-1.1-2.4-4.6-1.5-5.9c0.9-1.3,3-2.5,3-2.5s-2.3-3-2.4-7.1c-0.1-4.1,6.1-6.9,6.1-6.9c-0.5-6.2,8.8-8.9,8.8-8.9
					s6-9.3,11.2-13.7c5-4.3,13.6-8.9,23-9.1c6.8-0.1,16.2,2.4,16.2,2.4s2.2,1.2,4.9,3.3c1.4,1.1,1.9,1.5,2,1.6l0.6-0.6
					c7.8-8.1,21.5-7.5,28.4-5.7c6.9,1.7,13.5,4.9,19.3,10.6c4.1,4.1,6.4,7.3,7.4,8.8c0.3,0.4,0.7,0.6,1.2,0.7c0.7,0,2.3,0.4,5.3,2
					c5.5,2.8,5.3,7.2,5.3,7.2s3.7,1.6,5.5,5c1.8,3.4-1.6,8.9-1.6,8.9l2.6,1.6c3.5,2.4-1.3,6.7-1.3,6.7c3,1.7,2.6,4.4,2.6,4.4
					c-0.2,4-0.6,5.3-1,5.8c0.1,0.7,0.2,1.6,0.4,2.9c1.7,12.4-5.9,30.6-6.7,30.7c-6.8,0.1-10.9-2.6-10.9-2.6L332.9,138.7z"/>
				<path class="st1" d="M332.9,138.7c0.5-2.7,1.1-5.4,1.4-8.2c0.1-1.4,0.1-2.8-0.2-4.1c-0.3-1.3-1-2.6-1.8-3.7
					c-0.8-1.1-1.8-2.1-2.4-3.4c-0.6-1.2-1-2.6-1.1-4c0-1.4,0.3-2.8,0.5-4.1c0.3-1.4,0.7-2.7,1.1-4c0.7-2.6,1.5-5.4,0.8-8.1
					c-0.3-1.3-0.8-2.6-1.3-3.9c-0.6-1.2-1.2-2.5-2-3.6c-0.8-1.1-2-1.8-3.3-2.3c-0.6-0.2-1.3-0.4-2-0.5c-0.7-0.1-1.4-0.3-2-0.5
					c-1.3-0.5-2.5-1.2-3.6-2.2c-0.5-0.5-1-1-1.5-1.5c-0.5-0.5-0.9-1.1-1.1-1.8l0.3,0.1c-0.7,0.4-1.5,1-2.2,1.4l-2.2,1.5l-4.3,2.9
					l0,0l0,0c-2.4,1.1-4.7,2.1-7.2,2.9c-2.4,0.9-5,1.3-7.6,1.4c-2.6,0.1-5.2,0-7.7-0.8c-1.3-0.4-2.5-0.9-3.6-1.4l-1.7-0.9
					c-0.5-0.3-1.3-0.6-1.5-1.4l0.4,0c-0.2,0.4-0.3,0.8-0.6,1.2c-0.3,0.4-0.6,0.7-1,0.9c-0.7,0.5-1.5,0.9-2.3,1.2
					c-1.6,0.6-3.3,0.8-5,0.9c-1.7,0.2-3.4,0.2-5.1,0.3c-1.7,0-3.4,0.1-5.1-0.3c-1.7-0.3-3.3-0.9-4.9-1.5l-4.8-1.6l-4.8-1.7l-2.4-0.9
					l-1.2-0.5l-0.6-0.3l-0.3-0.2c-0.1,0-0.1-0.1-0.2-0.1c0,0-0.1,0-0.1-0.1c0,0,0,0-0.1-0.1c0,0,0-0.1,0-0.1c0-0.1,0-0.1,0-0.2
					l0.5,0.3c-0.6,0.9-1.3,1.7-2.1,2.3c-0.8,0.6-1.7,1.2-2.7,1.7c-1,0.4-2,0.7-3.1,0.8c-1.1,0.1-2.1,0-3.2-0.4l0.4-0.3
					c0.7,2,1.1,4.2,1,6.4c0,2.2-0.6,4.3-1.5,6.3c-0.9,2-2.3,3.7-3.7,5.3l-1,1.2c-0.3,0.4-0.6,0.8-0.9,1.3l-0.5,0.6l-0.2,0.3
					c0,0,0,0.1,0,0c0-0.1,0,0,0,0.1c0.1,0.6,0.1,1.1,0.2,1.6c0.6,4.2,1.2,8.4,1.5,12.7c0.4,4.3,0.6,8.5,0.3,12.8l0,0.2l-0.2,0.1
					l-3.1,1.3l-0.4,0.2l-0.1-0.4c0-0.2-0.2-0.4-0.1-0.3c0,0-0.3,0.1-0.4,0.3c-0.3,0.3-0.6,0.7-0.9,1.1c-0.6,0.8-1.2,1.6-1.9,2.4
					c-0.7,0.7-1.5,1.5-2.5,1.9c-0.5,0.2-1.1,0.3-1.6,0.3c-0.1,0-0.1,0-0.2,0c-0.1,0-0.1,0-0.3-0.1c-0.2-0.1-0.3-0.2-0.4-0.3
					c-0.2-0.2-0.3-0.4-0.5-0.7c-1.1-1.8-1.8-3.6-2.6-5.5c-0.7-1.9-1.4-3.8-2-5.7c-1.2-3.8-2.3-7.7-3-11.7c-0.3-2-0.6-4.1-0.2-6.1
					c0.3-2,0.6-4,1-6l0,0.2c-0.5-0.9-0.8-1.8-1-2.8c-0.2-0.9-0.3-1.9-0.3-2.9c0-1,0.1-2,0.7-2.9c0.5-0.8,1.1-1.7,2.3-2l-0.1,0.7
					l-0.5-0.3l0.1,0c-0.9-0.4-1.7-1.2-2-2.1c-0.4-0.9-0.4-1.9-0.2-2.9c0.1-0.5,0.2-0.9,0.5-1.4c0.3-0.4,0.6-0.8,1-1.1
					c0.7-0.6,1.5-1.1,2.3-1.6l-0.1,0.5c-0.9-1.2-1.5-2.6-1.9-4c-0.2-0.7-0.4-1.4-0.5-2.2c-0.1-0.4-0.1-0.7-0.1-1.1
					c0-0.4,0-0.8,0.1-1.2c0.4-1.5,1.4-2.8,2.5-3.7c1.1-1,2.4-1.8,3.7-2.4l-0.2,0.3c-0.1-1.2,0.2-2.4,0.7-3.4c0.6-1,1.4-1.9,2.2-2.6
					c0.9-0.7,1.9-1.3,2.9-1.9c1-0.5,2.1-1,3.2-1.3l-0.2,0.1c2.8-4.1,5.7-8.1,9.2-11.7c1.7-1.8,3.7-3.4,5.8-4.7
					c2.1-1.4,4.3-2.6,6.6-3.5c4.6-1.9,9.6-3.1,14.6-2.9c2.5,0.1,5,0.4,7.4,0.8c2.4,0.4,4.9,0.9,7.3,1.6l0,0l0,0
					c1.3,0.7,2.5,1.5,3.6,2.3c1.2,0.8,2.3,1.8,3.4,2.7l-0.4,0c2.3-2.6,5.3-4.5,8.5-5.7c3.2-1.2,6.6-1.7,10-1.8
					c3.4-0.1,6.8,0.2,10.2,0.9c3.3,0.8,6.5,1.9,9.6,3.4c3.1,1.5,5.9,3.4,8.5,5.7c2.6,2.3,4.9,4.8,7,7.4c0.5,0.7,1,1.3,1.5,2
					c0.2,0.3,0.5,0.7,0.7,1.1c0.2,0.3,0.5,0.5,0.9,0.6c0.8,0,1.7,0.3,2.5,0.6c0.8,0.3,1.6,0.7,2.3,1c1.5,0.7,3,1.7,4.2,3
					c1.1,1.3,1.9,2.9,2,4.7l-0.1-0.2c1.3,0.6,2.5,1.4,3.5,2.4c1,1,1.9,2.1,2.4,3.6c0.4,1.4,0.2,2.9-0.2,4.3c-0.4,1.4-1,2.7-1.7,3.9
					l-0.1-0.2l2.3,1.5c0.8,0.4,1.5,1.3,1.6,2.3c0.1,1-0.3,1.9-0.8,2.7c-0.5,0.8-1.1,1.5-1.8,2.1l0-0.2c0.4,0.2,0.8,0.5,1.1,0.8
					c0.4,0.3,0.6,0.7,0.9,1.1c0.5,0.8,0.7,1.7,0.7,2.7l0,0c0,1-0.1,2-0.2,3c-0.1,0.5-0.1,1-0.2,1.5c-0.1,0.5-0.2,1-0.5,1.4l0-0.1
					c0.3,1.9,0.6,3.8,0.6,5.7c0.1,1.9-0.1,3.8-0.3,5.8c-0.4,3.8-1.3,7.6-2.4,11.3c-0.5,1.8-1.1,3.7-1.8,5.5
					c-0.3,0.9-0.7,1.8-1.1,2.7c-0.4,0.9-0.8,1.8-1.3,2.6c0,0-0.1,0.1-0.2,0.1c-0.1,0-0.1,0-0.2,0l-0.4,0l-0.7,0c-0.5,0-1,0-1.4-0.1
					c-1-0.1-1.9-0.3-2.8-0.5c-1.9-0.4-3.7-1.1-5.3-2.1l0,0L332.9,138.7z M332.9,138.7l0.8-0.1l0,0c1.6,1,3.5,1.6,5.3,2.1
					c0.9,0.2,1.9,0.4,2.8,0.4c0.5,0.1,1,0.1,1.4,0.1l0.7,0l0.4,0c0.1,0,0.2,0,0.3-0.1c0.6-0.8,0.9-1.7,1.3-2.5
					c0.4-0.9,0.7-1.8,1.1-2.7c0.7-1.8,1.3-3.6,1.8-5.5c1.1-3.7,1.9-7.4,2.3-11.2c0.2-1.9,0.3-3.8,0.3-5.7c0-1.9-0.4-3.8-0.7-5.7l0,0
					l0,0c0.2-0.4,0.4-0.9,0.5-1.4c0.1-0.5,0.2-1,0.2-1.5c0.1-1,0.2-2,0.2-2.9l0,0c0.1-0.9-0.2-1.8-0.6-2.5c-0.2-0.4-0.5-0.7-0.8-1
					c-0.3-0.3-0.7-0.5-1.1-0.8l-0.2-0.1l0.1-0.1c0.6-0.6,1.2-1.3,1.7-2.1c0.5-0.8,0.8-1.6,0.8-2.5c-0.1-0.9-0.7-1.6-1.4-2l-2.3-1.5
					l-0.1-0.1l0.1-0.1c0.7-1.2,1.3-2.5,1.7-3.8c0.4-1.3,0.6-2.8,0.2-4.1c-0.4-1.3-1.3-2.4-2.3-3.4c-1-0.9-2.2-1.8-3.4-2.3l-0.1-0.1
					l0-0.1c0-1.6-0.8-3.2-1.9-4.4c-1.1-1.3-2.5-2.1-4-2.9c-0.8-0.4-1.5-0.7-2.3-1c-0.8-0.3-1.6-0.6-2.4-0.6
					c-0.5-0.1-0.9-0.3-1.2-0.8c-0.2-0.4-0.5-0.7-0.7-1c-0.5-0.7-1-1.4-1.5-2c-2.1-2.6-4.4-5.1-6.9-7.4c-2.5-2.2-5.4-4.1-8.4-5.6
					c-3-1.5-6.2-2.6-9.5-3.4c-3.3-0.7-6.7-1-10-0.9c-3.4,0.1-6.7,0.7-9.9,1.8c-3.1,1.2-6.1,3-8.2,5.5l-0.2,0.2l-0.2-0.2
					c-1.1-0.9-2.2-1.8-3.3-2.6c-1.1-0.8-2.3-1.6-3.6-2.3l0.1,0c-4.8-1.2-9.7-2.2-14.6-2.4c-4.9-0.2-9.8,1-14.3,2.9
					c-2.3,1-4.4,2.1-6.5,3.5c-2.1,1.3-4,2.9-5.7,4.7c-3.4,3.6-6.3,7.6-9.1,11.7l-0.1,0.1l-0.1,0c-1,0.3-2.1,0.8-3,1.3
					c-1,0.5-1.9,1.1-2.7,1.8c-0.8,0.7-1.6,1.5-2.1,2.4c-0.5,0.9-0.7,2-0.7,3l0,0.2l-0.2,0.1c-1.3,0.6-2.5,1.4-3.5,2.3
					c-1,0.9-1.9,2.1-2.2,3.4c-0.2,0.6-0.1,1.3,0,2c0.1,0.7,0.2,1.4,0.4,2.1c0.4,1.3,1,2.6,1.8,3.8l0.2,0.3l-0.4,0.2
					c-0.7,0.4-1.5,0.9-2.1,1.5c-0.3,0.3-0.6,0.6-0.8,0.9c-0.2,0.3-0.3,0.7-0.4,1.1c-0.1,0.8-0.1,1.7,0.2,2.5
					c0.3,0.8,0.9,1.4,1.6,1.7l0,0l0,0l0.5,0.3l0.7,0.5l-0.9,0.2c-0.3,0.1-0.7,0.3-1,0.6c-0.3,0.3-0.6,0.7-0.8,1
					c-0.4,0.7-0.6,1.6-0.6,2.5c0,0.9,0.1,1.8,0.3,2.7c0.2,0.9,0.5,1.8,0.9,2.6l0.1,0.1l0,0.1c-0.4,2-0.7,3.9-1,5.9
					c-0.3,1.9-0.1,3.9,0.2,5.9c0.7,3.9,1.8,7.8,3,11.6c0.6,1.9,1.3,3.8,2,5.7c0.7,1.9,1.5,3.7,2.5,5.4c0.1,0.2,0.3,0.4,0.4,0.6
					c0.2,0.2,0.1,0.2,0.4,0.2c0.4,0,0.9-0.1,1.3-0.2c0.9-0.3,1.6-1,2.3-1.7c0.7-0.7,1.3-1.5,1.9-2.3c0.3-0.4,0.6-0.8,1-1.2
					c0.2-0.2,0.4-0.4,0.9-0.5c0.3,0,0.5,0.2,0.6,0.4c0.1,0.2,0.1,0.3,0.2,0.4l-0.4-0.2l3.1-1.3l-0.2,0.3c0.4-4.2,0.1-8.5-0.3-12.7
					c-0.4-4.2-0.9-8.5-1.5-12.7l-0.2-1.6c0-0.1,0-0.1,0-0.3c0-0.2,0.1-0.3,0.1-0.3l0.2-0.3l0.5-0.6c0.3-0.4,0.6-0.9,1-1.3l1.1-1.2
					c1.4-1.6,2.7-3.3,3.6-5.2c0.9-1.9,1.4-4,1.5-6.1c0.1-2.1-0.3-4.2-1-6.2l-0.2-0.5l0.5,0.2c0.9,0.3,1.9,0.4,2.9,0.3
					c1-0.1,2-0.3,2.9-0.7c0.9-0.4,1.8-1,2.6-1.6c0.8-0.6,1.5-1.3,2-2.2l0.5,0.3c0,0,0-0.1,0-0.2c0,0,0,0,0,0c0,0,0,0,0,0l0,0
					l0.1,0.1l0.3,0.1l0.6,0.3l1.2,0.5l2.4,0.9l4.8,1.7l4.8,1.7c1.6,0.6,3.2,1.1,4.8,1.4c1.6,0.4,3.3,0.3,5,0.3c1.7,0,3.4-0.1,5-0.3
					c1.7-0.2,3.4-0.4,4.9-0.9c1.5-0.6,3.2-1.3,3.6-3l0.2-0.8l0.2,0.9c0.1,0.2,0.3,0.4,0.5,0.6c0.2,0.2,0.5,0.3,0.8,0.5l1.7,0.9
					c1.1,0.6,2.3,1.1,3.5,1.4c2.4,0.7,5,0.9,7.6,0.8c2.6-0.1,5.1-0.5,7.5-1.4c2.4-0.8,4.8-1.8,7.2-2.9l0,0l4.3-2.9l2.2-1.5
					c0.7-0.5,1.4-1,2.2-1.4l0.2-0.1l0.1,0.2c0.2,0.6,0.6,1.2,1.1,1.7c0.5,0.5,0.9,1,1.4,1.5c1,0.9,2.2,1.7,3.5,2.1
					c1.3,0.5,2.7,0.6,4,1.1c1.3,0.5,2.6,1.2,3.4,2.4c0.8,1.1,1.5,2.4,2,3.6c0.6,1.3,1,2.6,1.3,3.9c0.3,1.3,0.4,2.8,0.2,4.1
					c-0.2,1.4-0.6,2.7-1,4c-0.4,1.3-0.8,2.6-1.1,4c-0.2,1.4-0.5,2.7-0.5,4.1c0,1.4,0.4,2.7,1,3.9c0.6,1.2,1.5,2.3,2.4,3.4
					c0.8,1.1,1.5,2.4,1.8,3.7c0.3,1.4,0.3,2.8,0.2,4.1C334.1,133.3,333.5,136,332.9,138.7z"/>
			</g>
			<g>
				<path class="st0" d="M333.6,146.1c-0.1,4.2,10.8-2.3,10.7-1.5c-2.7,24.6-11.8,36.3-13.5,38.8c-2,2.9-2.7,3.7-2.7,3.7l0.8,0.7
					c1.5,5.4-0.9,7.9-2.8,10.6c-0.6,0.8-0.9,1.3-1.1,1.5l0.4,0.7c5.2,6.9-0.3,12.6-1.9,14.3c-0.6,0.6-0.9,0.9-1,1.1l1.1,0
					c1.2,0,1.4,0.8,2.2,2.7c1.7,4-1.3,7-2.9,8.1c-1.6,1-1,1.1-1,1.1c4.9-0.3,3.7,4.8,2.7,7.5c-1,2.8-3.2,5-3.2,5s2.9,0.3,2.4,4.4
					c-0.5,4.2-2.5,5.5-4.5,7.4c-2,1.9-0.7,1.4-0.7,1.4c3.8,0.6,2.9,5,2,7.3c-0.8,2.4-2.1,1.6-3.7,3.6c-1.6,2-0.9,2.6,1.1,3.1
					c2.1,0.6,2.4,1.6,3.9,5.4s-1,4.7-2.8,6.3c-1.7,1.5-1.5,3.6-0.8,5.7c0.6,2.1,2.5,1.5,2.5,1.5s-0.9,0.3-2.7,0.5
					c-1.8,0.2-5.2-2-7.4-4.1c-2.2-2.1-1.8-6.7-1.6-8.8c0.2-2.1,2.3-5,3.6-6.8s1.2-1.8,0.7-2.6c-0.5-0.8-1.7-3.5-1.9-5.3
					s1.4-1.8,1.4-1.8s-0.8-0.9-1.9-3c-1.2-2.1-0.7-3.5-0.4-5.9c0.3-2.4,3-3.5,3-3.5c-3.5-6.1-3.2-8-2.7-10.4
					c0.4-2.4,3.2-3.1,3.2-3.1c-4.1-3.9-2.4-7.1-1.7-9.1c0.7-2.1,2.2-2.5,2.2-2.5c-4.1-4.3-2.9-8.1-2.2-10.5c0.7-2.4,3-2.2,2.5-2.6
					c-0.5-0.4-2.2-3.5-1.5-6.2c0.7-2.7,3.1-4.2,3.1-4.2s-1.1-1.2-2.5-3c-1.4-1.8-2.4-9.9-2.4-9.9c11.8-10.8,15.5-17.4,16.3-19.3
					c1.4-3.6,3.6-10.7,3.6-10.7L333.6,146.1z"/>
				<path class="st1" d="M333.6,146.1c0,0.3,0,0.6,0.2,0.9c0.2,0.3,0.5,0.4,0.7,0.5c0.6,0.1,1.2,0.1,1.8,0c1.2-0.2,2.3-0.7,3.5-1.1
					c1.1-0.5,2.2-1,3.4-1.4c0.3-0.1,0.6-0.2,0.9-0.3c0.1,0,0.1,0,0.2,0c0.1,0,0.1,0.1,0.1,0.1l0,0.1l-0.1,0.5l-0.2,1.8
					c-0.6,4.8-1.5,9.6-2.8,14.3c-1.3,4.7-3,9.3-5.1,13.6c-2.1,4.4-4.9,8.4-7.9,12.3l0-0.3l0.8,0.7l0,0l0,0.1
					c0.3,1.1,0.5,2.2,0.5,3.3c0,1.1-0.2,2.3-0.7,3.3c-0.4,1-1.1,2-1.7,2.9l-1.9,2.7l0-0.3l0.4,0.7l0,0c0.9,1.2,1.6,2.5,2,4
					c0.4,1.4,0.3,3,0,4.4c-0.4,1.4-1.1,2.8-2,4c-0.9,1.2-1.9,2.2-2.9,3.3l-0.2-0.4l1,0c0.3,0,0.7,0,1.1,0.3c0.7,0.5,0.8,1.2,1.1,1.8
					c0.5,1.2,1,2.6,0.8,4c-0.1,1.4-0.8,2.7-1.7,3.7c-0.4,0.5-0.9,1-1.5,1.4c-0.3,0.2-0.6,0.4-0.8,0.6c-0.1,0.1-0.3,0.2-0.3,0.3
					c0,0-0.1,0.1-0.1,0.1c0,0,0-0.1,0-0.1c-0.1-0.1-0.1,0-0.1-0.1l0,0c0.7,0,1.4,0,2.1,0.3c0.7,0.3,1.2,0.9,1.5,1.5
					c0.5,1.4,0.3,2.8,0,4.1c-0.3,1.3-0.8,2.6-1.4,3.8c-0.7,1.2-1.5,2.3-2.4,3.3l-0.2-0.5c0.8,0.1,1.5,0.6,2,1.2
					c0.5,0.6,0.7,1.4,0.7,2.1c0.1,1.5-0.2,2.9-0.7,4.3c-0.5,1.4-1.5,2.5-2.5,3.5l-1.6,1.4c-0.2,0.2-0.5,0.5-0.7,0.7
					c-0.1,0.1-0.2,0.3-0.2,0.3c0,0,0-0.1-0.1-0.2c-0.1,0-0.1,0-0.1,0c0,0,0.1,0,0.2,0l0.1,0l0.1,0c0.9,0.1,1.9,0.6,2.5,1.5
					c0.5,0.8,0.6,1.8,0.6,2.8c0,0.9-0.2,1.8-0.5,2.7c-0.3,0.8-0.5,1.8-1.3,2.5c-0.4,0.3-0.8,0.5-1.2,0.7c-0.4,0.2-0.7,0.5-1,0.7
					c-0.3,0.3-0.6,0.6-0.8,1c-0.2,0.3-0.4,0.7-0.5,1c0,0.3,0.2,0.5,0.6,0.7c0.4,0.2,0.8,0.3,1.2,0.4c0.4,0.1,0.9,0.3,1.3,0.6
					c0.4,0.3,0.8,0.7,1,1.1c0.5,0.8,0.8,1.6,1.2,2.5c0.3,0.8,0.7,1.6,1,2.6c0.2,0.9,0.2,2-0.2,2.9c-0.5,0.9-1.3,1.5-2,2
					c-0.7,0.5-1.4,1-1.8,1.8c-0.4,0.7-0.5,1.5-0.4,2.4c0,0.4,0.1,0.8,0.2,1.3c0.1,0.4,0.2,0.9,0.4,1.2c0.3,0.7,1.1,1,1.8,0.8
					l0.2,0.7c-0.9,0.2-1.7,0.3-2.5,0.4c-0.9,0.2-1.8-0.1-2.6-0.5c-1.6-0.7-3-1.6-4.2-2.7c-0.6-0.5-1.3-1.1-1.8-1.9
					c-0.5-0.8-0.7-1.6-0.9-2.4c-0.3-1.7-0.3-3.4-0.1-5c0-0.4,0.1-0.8,0.2-1.3c0.1-0.4,0.2-0.8,0.4-1.2c0.3-0.8,0.7-1.5,1.2-2.2
					c0.9-1.4,1.9-2.8,2.7-4.1c0.1-0.2,0.2-0.3,0.2-0.5c0-0.1,0-0.2-0.1-0.4c-0.2-0.3-0.4-0.7-0.6-1.1c-0.4-0.8-0.7-1.5-0.9-2.3
					c-0.3-0.8-0.5-1.6-0.6-2.5c0-0.4,0-1,0.4-1.4c0.3-0.4,0.8-0.6,1.3-0.6l-0.2,0.5c-0.8-1-1.4-2-2-3.1c-0.6-1.1-0.9-2.4-0.8-3.7
					c0.1-0.6,0.1-1.2,0.2-1.8c0.1-0.6,0.2-1.3,0.5-1.8c0.6-1.2,1.7-2,2.8-2.5l-0.1,0.4c-0.7-1.1-1.3-2.3-1.8-3.5
					c-0.5-1.2-1-2.5-1.2-3.8c-0.1-0.7-0.1-1.4,0-2c0.1-0.7,0.2-1.3,0.4-2c0.6-1.3,1.9-2.1,3.2-2.5l-0.1,0.4
					c-0.8-0.8-1.6-1.7-2.1-2.8c-0.5-1-0.7-2.3-0.6-3.4c0.1-1.2,0.6-2.2,1-3.3c0.4-1.1,1.2-2.1,2.4-2.6l-0.1,0.4
					c-1.6-1.7-2.8-3.8-2.9-6.2c-0.1-1.2,0.1-2.3,0.4-3.4c0.2-0.6,0.3-1.1,0.5-1.7c0.2-0.6,0.6-1.1,1.1-1.4c0.2-0.2,0.5-0.3,0.8-0.4
					l0.4-0.2c0.1,0,0.1-0.1,0.1-0.1c0,0,0,0,0,0.1c0,0.1,0,0,0,0c-0.4-0.5-0.7-1-0.9-1.5c-0.5-1.1-0.8-2.2-0.8-3.4
					c0-1.2,0.4-2.3,1-3.3c0.6-1,1.4-1.8,2.4-2.5l0,0.3c-0.8-0.9-1.6-1.8-2.3-2.7c-0.2-0.2-0.4-0.5-0.5-0.8c-0.1-0.3-0.3-0.6-0.4-0.8
					c-0.2-0.6-0.4-1.1-0.5-1.7c-0.6-2.3-0.9-4.7-1.2-7l0-0.1l0.1-0.1c2.3-2.1,4.5-4.2,6.6-6.4c2.1-2.2,4.2-4.5,6-6.9
					c1.8-2.4,3.6-5,4.5-7.9c1-2.9,2-5.8,2.9-8.7l0,0L333.6,146.1z M333.6,146.1l-1.7,7.4l0,0c-0.9,2.9-1.9,5.8-2.9,8.7
					c-0.9,3-2.6,5.5-4.4,8c-1.8,2.4-3.9,4.7-6,7c-2.1,2.2-4.3,4.4-6.5,6.4l0.1-0.1c0.3,2.3,0.7,4.7,1.2,6.9c0.3,1.1,0.6,2.3,1.3,3.2
					c0.7,0.9,1.5,1.8,2.3,2.7l0.2,0.2l-0.2,0.1c-1.8,1.3-3.2,3.3-3.2,5.5c0,1.1,0.3,2.2,0.8,3.2c0.2,0.5,0.5,1,0.8,1.4
					c0,0,0.1,0.1,0.1,0.2c0,0.1-0.1,0.3-0.1,0.3c-0.1,0.1-0.2,0.1-0.2,0.1l-0.4,0.2c-0.3,0.1-0.5,0.2-0.7,0.4
					c-0.4,0.3-0.8,0.7-1,1.2c-0.2,0.5-0.3,1.1-0.5,1.6c-0.3,1.1-0.4,2.2-0.4,3.3c0.1,2.2,1.3,4.3,2.8,5.9l0.3,0.3l-0.4,0.1
					c-0.9,0.3-1.7,1.3-2,2.3c-0.4,1.1-0.8,2.1-0.9,3.2c-0.1,1.1,0,2.2,0.5,3.1c0.5,1,1.2,1.8,2,2.6l0.3,0.3l-0.5,0.1
					c-1.2,0.3-2.3,1.1-2.8,2.2c-0.2,0.5-0.3,1.2-0.4,1.8c-0.1,0.6-0.1,1.3,0,1.9c0.1,1.3,0.6,2.5,1.1,3.7c0.5,1.2,1.2,2.3,1.8,3.5
					l0.2,0.3l-0.3,0.1c-1,0.5-2,1.2-2.5,2.2c-0.3,0.5-0.3,1-0.4,1.7c-0.1,0.6-0.2,1.2-0.2,1.8c-0.1,1.2,0.1,2.3,0.7,3.3
					c0.6,1,1.2,2.1,1.9,3l0.4,0.5l-0.6,0c-0.3,0-0.7,0.1-0.8,0.4c-0.2,0.2-0.2,0.6-0.2,1c0.1,0.8,0.3,1.6,0.5,2.3
					c0.3,0.8,0.6,1.5,0.9,2.3c0.2,0.4,0.3,0.7,0.6,1.1c0.1,0.2,0.2,0.5,0.2,0.8c-0.1,0.3-0.2,0.5-0.3,0.7c-0.9,1.4-1.9,2.7-2.7,4.1
					c-0.8,1.4-1.6,2.8-1.6,4.4c-0.1,1.6-0.2,3.3,0.1,4.8c0.2,0.8,0.4,1.5,0.8,2.2c0.4,0.6,1,1.2,1.6,1.7c1.2,1,2.6,2,4.1,2.6
					c0.7,0.3,1.5,0.5,2.2,0.4c0.8-0.1,1.6-0.2,2.4-0.4l0.2,0.7c-0.5,0.1-1.1,0.1-1.6-0.1c-0.5-0.2-0.9-0.6-1.1-1.1
					c-0.2-0.5-0.3-0.9-0.4-1.4c-0.1-0.4-0.2-0.9-0.2-1.4c-0.1-0.9,0-1.9,0.5-2.8c0.2-0.4,0.5-0.8,0.9-1.1c0.4-0.3,0.7-0.6,1.1-0.9
					c0.7-0.5,1.4-1.1,1.8-1.8c0.4-0.7,0.4-1.5,0.2-2.3c-0.2-0.8-0.6-1.6-0.9-2.5c-0.3-0.8-0.7-1.7-1.1-2.4c-0.4-0.7-1.1-1.1-1.9-1.3
					c-0.4-0.1-0.9-0.3-1.3-0.5c-0.2-0.1-0.4-0.2-0.6-0.5c-0.2-0.2-0.3-0.5-0.3-0.8c0-0.6,0.3-1,0.6-1.4c0.3-0.4,0.6-0.7,0.9-1.1
					c0.7-0.7,1.6-1,2.2-1.5c0.6-0.5,0.9-1.3,1.1-2.2c0.2-0.8,0.4-1.7,0.5-2.5c0-0.8-0.1-1.7-0.5-2.4c-0.4-0.7-1.2-1.1-2-1.2l0.1,0
					c-0.1,0-0.2,0.1-0.4,0.1c-0.1,0-0.2,0-0.3-0.1c-0.2-0.1-0.2-0.3-0.2-0.4c0.1-0.3,0.2-0.4,0.3-0.6c0.2-0.3,0.5-0.5,0.8-0.8
					l1.6-1.4c1-0.9,1.9-2,2.4-3.3c0.5-1.3,0.7-2.7,0.7-4c-0.1-0.7-0.2-1.3-0.6-1.8c-0.4-0.5-1-0.9-1.5-1l-0.6-0.1l0.4-0.4
					c0.9-0.9,1.7-2,2.3-3.1c0.7-1.1,1.1-2.4,1.4-3.6c0.3-1.3,0.5-2.6,0-3.8c-0.2-0.6-0.6-1-1.2-1.2c-0.6-0.2-1.2-0.3-1.8-0.2l0,0
					l0,0c-0.1,0-0.2,0-0.3-0.2c-0.1-0.1-0.1-0.3,0-0.4c0.1-0.2,0.1-0.2,0.2-0.3c0.1-0.1,0.3-0.2,0.4-0.3c0.3-0.2,0.6-0.4,0.8-0.6
					c0.5-0.4,1-0.8,1.4-1.3c0.8-1,1.4-2.2,1.6-3.4c0.2-1.3-0.2-2.5-0.8-3.7c-0.3-0.6-0.5-1.3-0.9-1.6c-0.4-0.3-1.2-0.1-1.8-0.2
					l-0.5,0l0.4-0.4c1-1.1,2-2.1,2.9-3.2c0.9-1.2,1.5-2.4,1.9-3.8c0.4-1.4,0.4-2.8,0.1-4.2c-0.3-1.4-1-2.7-1.9-3.8l0,0l0,0l-0.4-0.7
					l-0.1-0.1l0.1-0.1l1.9-2.7c0.6-0.9,1.3-1.8,1.7-2.8c0.4-1,0.7-2.1,0.7-3.2c0-1.1-0.2-2.2-0.5-3.2l0.1,0.1l-0.8-0.7l-0.1-0.1
					l0.1-0.2c2.9-3.8,5.7-7.8,7.9-12.2c2.2-4.3,3.9-8.9,5.2-13.6c1.3-4.7,2.3-9.4,2.9-14.3l0.2-1.8l0.1-0.5c0-0.1,0-0.2,0-0.2
					c-0.1,0-0.1,0-0.2,0c-0.3,0.1-0.6,0.2-0.9,0.3c-1.1,0.5-2.2,1-3.4,1.4c-1.1,0.4-2.3,0.9-3.5,1.1c-0.6,0.1-1.2,0.2-1.8,0
					c-0.3-0.1-0.6-0.2-0.7-0.5C333.7,146.7,333.6,146.4,333.6,146.1z"/>
			</g>
		</g>
		<g>
			<g>
				<path class="st0" d="M232,170.6c5.9,9.7,14.3,14.5,15.6,15.5c1.1,0.8-8.3,7-9.7,8.2c-1.4,1.2,0.2,0.6,0.2,0.6
					c4.3,1.7,3.3,6.1,2.5,8.9c-0.9,2.8-0.5,1.6-0.5,1.6c1.8-0.4,2.7,1.9,2.7,1.9c1.7,6.7-1,8.9-2.2,10.5c-1.3,1.6,0,0.6,0,0.6
					c2.9-0.9,3.5,4.7,3.5,6.5c0,1.9-2.8,5-2.8,5c0,0-0.3,0.3-0.3,0.3c1.5-0.5,3.2,0.5,4,1.8c0.7,1.4,0.7,3,0.3,4.6
					c-0.5,2.5-1.7,4.9-3.4,6.8c0.8-0.3,1.6,0,2.3,0.5c0.6,0.5,1.1,1.2,1.4,1.9c1.4,3,0.7,6.9-1.8,9.2c1,0.7,1.4,1.8,1.3,2.9
					c-0.1,1.1-0.6,2.1-1,3.1c-0.4,0.8-0.8,1.8-1.1,2.6c3.2,2.8,4.6,7.4,3.4,11.5c-1.2,4.1-5,7.3-9.3,7.9c1.3-0.7,1.9-2.3,1.7-3.8
					s-1.2-2.7-2.2-3.7c-0.9-0.9-2-1.7-2.4-2.9c-0.3-0.8-0.3-1.7-0.1-2.6c0.4-2,1.5-3.8,3.2-5c1-0.7,2.3-1.2,3.5-1.4l-1-1.5
					c-1-1.5-1.4-0.8-2.8-2.1c-1.4-1.3-1.1-2.1-1.5-4.1c-0.4-2,0.6-3.1,1.6-3.8c1-0.7,1.2-0.7,1.2-0.7c-0.5-0.7-1.8-1.7-1.8-1.7
					c-2.1-1.4-3.4-4.6-3.7-5.9s0.4-3.4,1.2-4.4c0.8-1.1,1.3-1.2,1.3-1.2l-0.5-0.4c-4.2-3.1-4.4-7.9-4.5-8.8
					c-0.1-0.9,1.4-2.7,2.5-2.7c1.1,0,1.8-0.3,1.8-0.3c0,0-2.3-1.1-3.8-2.3c-1.4-1.3-1.2-2.9-1.3-4.4c-0.1-1.5,1.2-3.9,1.8-4.6
					c0.6-0.7,1.2-0.7,1.2-0.7c-1-0.8-3-3-4.8-8.2c-0.8-2.3,2.2-7.2,2.2-7.2s-2.6-3.6-3.7-5.9s-0.4-4.8,0.1-5.8c0.5-1,1.4-1,1.4-1
					l-0.7-0.6c-0.7-0.8-8.8-14.4-10-17.1c-5.4-7.3-5-23.1-5-23.1s11.3,6.8,11.7,3C223.4,148.1,226.6,161.7,232,170.6z"/>
				<path class="st1" d="M232,170.6c1.6,2.6,3.5,5,5.6,7.3c2.1,2.2,4.4,4.2,6.9,6c0.6,0.4,1.3,0.9,1.9,1.3l1,0.6l0.2,0.2
					c0.1,0,0.2,0.2,0.1,0.3c0,0.2-0.2,0.4-0.3,0.6c-1,1.2-2.3,2.1-3.5,3.1c-1.2,0.9-2.5,1.8-3.7,2.7l-1.9,1.3
					c-0.3,0.2-0.6,0.5-0.9,0.7c-0.1,0.1-0.1,0.1-0.1,0.2c0,0,0,0,0,0c0,0,0,0,0.1,0c0.2,0,0.4-0.1,0.5-0.1l0,0l0,0
					c1,0.4,1.9,1,2.5,1.9c0.6,0.9,0.8,2,0.8,3.1c0,1.1-0.2,2.1-0.5,3.1c-0.1,0.5-0.3,1-0.4,1.5l-0.2,0.8l-0.1,0.4l0,0.1l0,0l0,0l0,0
					l0,0c0.2,0.1-0.3-0.1-0.3-0.1c0,0,0,0,0,0l0.1-0.2l0-0.1l0.1,0c0.3-0.1,0.7-0.1,1,0c0.3,0.1,0.6,0.3,0.8,0.5
					c0.5,0.4,0.8,0.9,1.1,1.5l0,0l0,0c0.5,2.1,0.8,4.4,0.2,6.5c-0.3,1.1-0.8,2.1-1.5,2.9c-0.3,0.4-0.7,0.8-1,1.3
					c-0.2,0.2-0.3,0.4-0.4,0.6c0,0,0,0,0,0.1c0,0,0.1,0-0.1-0.1c-0.1,0-0.1,0,0,0l0.1,0c0.1-0.1,0.2-0.1,0.3-0.2l0,0l0,0
					c0.6-0.2,1.4-0.1,1.8,0.3c0.5,0.4,0.8,1,1,1.5c0.5,1.1,0.7,2.3,0.8,3.5c0,0.6,0.1,1.2,0,1.8c-0.1,0.6-0.4,1.2-0.7,1.7
					c-0.6,1.1-1.3,2-2.1,2.9l0-0.2c0,0.1,0,0.2,0,0.2l0,0l0,0l0,0l0,0l-0.1,0.1l-0.1,0.1l0,0l0,0c0,0,0,0,0,0l0,0c0,0,0.1-0.1,0-0.2
					l-0.3-0.1c1.5-0.5,3.1,0.3,4,1.5c0.9,1.3,1,2.9,0.8,4.3c-0.4,2.9-1.7,5.6-3.6,7.8l-0.3-0.4c0.7-0.2,1.4-0.1,2,0.2
					c0.6,0.3,1.1,0.8,1.4,1.3c0.7,1.1,1.2,2.3,1.3,3.6c0.1,1.3,0,2.6-0.5,3.8c-0.4,1.2-1.2,2.3-2.1,3.2l0-0.5
					c0.7,0.5,1.2,1.3,1.4,2.1c0.2,0.8,0,1.7-0.2,2.5c-0.3,0.8-0.6,1.5-1,2.2l-0.9,2.2l-0.1-0.4c3.3,2.9,4.8,7.7,3.5,11.9
					c-1.3,4.2-5.2,7.4-9.6,8l-2.1,0.3l1.9-1c0.8-0.4,1.3-1.3,1.5-2.2c0.2-0.9-0.1-1.9-0.6-2.8c-0.5-0.9-1.2-1.6-1.9-2.3
					c-0.7-0.7-1.6-1.5-2-2.5c-0.4-1.1-0.3-2.3-0.1-3.3c0.3-1.1,0.8-2.1,1.4-2.9c1.3-1.8,3.4-2.9,5.5-3.2l-0.2,0.5l-1-1.6
					c-0.2-0.3-0.4-0.5-0.6-0.7c-0.2-0.2-0.5-0.3-0.8-0.4c-0.7-0.3-1.2-0.7-1.6-1.3c-0.5-0.5-0.8-1.2-0.9-1.9
					c-0.1-0.7-0.2-1.3-0.3-1.9c-0.1-0.7-0.1-1.4,0.1-2.1c0.2-0.7,0.7-1.3,1.2-1.7c0.3-0.2,0.5-0.4,0.8-0.6l0.4-0.3
					c0.2-0.1,0.2-0.2,0.5-0.3l-0.2,0.4c-0.4-0.6-1.1-1.2-1.7-1.7l0,0c-1-0.7-1.7-1.6-2.3-2.6c-0.6-1-1.1-2.1-1.4-3.2
					c-0.4-1.2,0-2.4,0.4-3.5c0.2-0.5,0.5-1.1,0.9-1.5c0.4-0.5,0.7-0.9,1.4-1.2l-0.1,0.4c-1.2-0.8-2.2-1.8-3-2.9
					c-0.8-1.2-1.4-2.5-1.7-3.9c-0.2-0.7-0.3-1.4-0.3-2.1l0-0.5c0-0.2,0-0.4,0.1-0.6c0.1-0.4,0.3-0.7,0.5-1c0.4-0.6,1-1.1,1.7-1.3
					c0.4-0.1,0.7,0,1.1-0.1c0.3,0,0.7-0.1,1-0.2l0,0.4c-1.2-0.6-2.3-1.2-3.4-2c-0.5-0.4-1-0.9-1.3-1.5c-0.3-0.6-0.4-1.3-0.4-2
					c0-0.7-0.1-1.3,0-2c0.1-0.7,0.3-1.3,0.6-1.9c0.3-0.6,0.6-1.2,0.9-1.8c0.3-0.6,0.9-1.1,1.6-1.2l-0.1,0.3c-1.2-0.9-2-2.1-2.7-3.4
					c-0.7-1.3-1.3-2.6-1.8-3.9c-0.1-0.3-0.2-0.7-0.4-1c-0.1-0.4-0.1-0.8-0.1-1.1c0.1-0.7,0.3-1.4,0.5-2.1c0.5-1.4,1.1-2.7,1.9-3.9
					l0,0.1c-0.7-1-1.4-2-2.1-3.1c-0.7-1-1.3-2.1-1.8-3.2c-0.5-1.2-0.5-2.5-0.3-3.7c0.1-0.6,0.3-1.2,0.6-1.8c0.2-0.6,0.8-1.1,1.5-1.2
					l-0.1,0.2l-0.7-0.6l0,0l0,0c-1-1.4-1.8-2.8-2.6-4.2l-2.5-4.3l-2.5-4.3c-0.8-1.4-1.6-2.9-2.3-4.4l0,0c-1.2-1.6-2-3.5-2.6-5.4
					c-0.6-1.9-1.1-3.8-1.4-5.8c-0.7-3.9-1-7.9-0.9-11.9l0,0l0,0c1.9,1.1,3.9,2.2,5.9,3c1,0.4,2.1,0.8,3.1,1c0.5,0.1,1.1,0.2,1.6,0.1
					c0.3-0.1,0.5-0.2,0.7-0.4c0.2-0.2,0.3-0.5,0.3-0.7l0,0l0,0c0.9,3.9,2.1,7.8,3.5,11.6C228.3,163.4,229.9,167.1,232,170.6z
					 M232,170.6c-2.1-3.5-3.7-7.2-5.1-11c-1.4-3.8-2.5-7.6-3.5-11.6l0,0c0,0.3-0.1,0.6-0.3,0.8c-0.2,0.2-0.5,0.3-0.7,0.4
					c-0.5,0.1-1.1,0-1.7-0.1c-1.1-0.2-2.1-0.6-3.2-1c-2-0.9-4-1.9-5.9-3l0,0c0,4,0.3,8,1,11.9c0.4,2,0.8,3.9,1.4,5.8
					c0.6,1.9,1.5,3.7,2.6,5.3l0,0l0,0c0.7,1.5,1.5,2.9,2.3,4.4l2.5,4.3l2.5,4.2c0.9,1.4,1.7,2.8,2.6,4.2l0,0l0.7,0.6l0.2,0.1l-0.2,0
					c-0.6,0.1-1.1,0.5-1.3,1c-0.2,0.6-0.4,1.1-0.5,1.7c-0.2,1.2-0.2,2.5,0.3,3.6c0.5,1.1,1.2,2.2,1.8,3.2c0.7,1,1.4,2.1,2.1,3.1
					l0.1,0.1l0,0.1c-0.7,1.2-1.4,2.5-1.8,3.9c-0.2,0.7-0.4,1.4-0.5,2.1c0,0.3,0,0.7,0.1,1c0.1,0.3,0.2,0.7,0.3,1
					c0.5,1.3,1.1,2.7,1.8,3.9c0.7,1.2,1.6,2.4,2.7,3.3l0.3,0.3l-0.4,0.1c-0.6,0.1-1.1,0.5-1.4,1.1c-0.3,0.5-0.6,1.1-0.9,1.7
					c-0.2,0.6-0.5,1.2-0.5,1.8c-0.1,0.6,0,1.3,0,1.9c0,0.6,0.1,1.3,0.4,1.8c0.3,0.6,0.7,1,1.2,1.4c1,0.8,2.2,1.4,3.3,2l0.4,0.2
					l-0.5,0.2c-0.4,0.1-0.7,0.2-1.1,0.2c-0.3,0.1-0.8,0-1,0.1c-0.6,0.2-1.1,0.7-1.5,1.2c-0.2,0.3-0.4,0.5-0.5,0.8
					c0,0.1-0.1,0.3-0.1,0.4l0,0.5c0.1,0.7,0.2,1.4,0.3,2c0.3,1.3,0.9,2.6,1.6,3.7c0.8,1.1,1.8,2,2.9,2.8l0.3,0.2l-0.4,0.2
					c-0.4,0.2-0.8,0.7-1.1,1.1c-0.3,0.4-0.6,0.9-0.8,1.4c-0.4,1-0.7,2.1-0.4,3.2c0.3,1.1,0.8,2.1,1.4,3.1c0.6,0.9,1.3,1.8,2.2,2.4
					l0,0l0,0c0.6,0.5,1.3,1.1,1.8,1.8l0.2,0.2l-0.3,0.2c-0.2,0.1-0.5,0.3-0.7,0.5c-0.3,0.2-0.5,0.4-0.8,0.6c-0.5,0.4-0.8,0.9-1,1.4
					c-0.2,0.6-0.2,1.2-0.1,1.8c0.1,0.6,0.2,1.3,0.3,1.9c0.1,0.6,0.3,1.1,0.8,1.6c0.4,0.5,0.9,0.9,1.4,1.1c0.3,0.1,0.6,0.2,0.9,0.5
					c0.3,0.2,0.5,0.5,0.7,0.8l1.1,1.6l0.3,0.4l-0.5,0.1c-2,0.3-3.9,1.4-5,3c-0.6,0.8-1,1.7-1.3,2.7c-0.2,1-0.3,2,0,2.9
					c0.4,0.9,1.1,1.6,1.9,2.3c0.8,0.7,1.5,1.5,2.1,2.5c0.5,0.9,0.9,2.1,0.7,3.2c-0.2,1.1-0.8,2.2-1.9,2.8l-0.2-0.7
					c4.1-0.5,7.8-3.5,9-7.5c1.2-3.9-0.1-8.6-3.2-11.3l-0.2-0.2l0.1-0.2l1-2.2c0.3-0.7,0.7-1.4,0.9-2.1c0.2-0.7,0.4-1.5,0.2-2.2
					c-0.1-0.7-0.6-1.3-1.1-1.7l-0.3-0.2l0.3-0.3c0.9-0.8,1.5-1.8,2-3c0.4-1.1,0.6-2.3,0.5-3.5c-0.1-1.2-0.5-2.4-1.2-3.3
					c-0.6-0.9-1.8-1.7-2.8-1.4l-0.9,0.3l0.6-0.7c1.8-2.1,3.1-4.8,3.5-7.5c0.2-1.4,0.1-2.8-0.7-4c-0.8-1.1-2.2-1.8-3.5-1.4l-0.2,0
					l-0.1-0.2c0-0.1,0-0.2,0-0.2l0,0l0,0l0,0l0,0l0.1-0.1l0.1-0.1l0,0l0,0c0,0,0,0,0,0l0,0c0,0-0.1,0.1,0,0.2l0-0.2
					c0.8-0.9,1.5-1.8,2.1-2.8c0.3-0.5,0.5-1,0.7-1.6c0.1-0.5,0-1.1,0-1.7c-0.1-1.2-0.3-2.3-0.7-3.4c-0.2-0.5-0.5-1-0.9-1.4
					c-0.4-0.4-1-0.4-1.5-0.3l0.1,0c-0.1,0.1-0.2,0.2-0.4,0.2c0,0-0.1,0-0.1,0.1c-0.1,0-0.1,0.1-0.2,0c-0.1,0-0.1-0.2-0.1-0.2
					c0-0.1,0-0.1,0-0.1c0,0,0-0.1,0.1-0.1c0.1-0.3,0.3-0.5,0.5-0.7c0.3-0.4,0.7-0.8,1-1.3c0.7-0.8,1.2-1.8,1.4-2.8
					c0.6-2.1,0.3-4.3-0.2-6.4l0,0c-0.2-0.5-0.6-1-1-1.4c-0.2-0.2-0.5-0.3-0.7-0.4c-0.3-0.1-0.5-0.1-0.8,0l0.1-0.1l-0.1,0.2l0,0.1
					c0.1,0-0.5-0.2-0.3-0.1l0,0l0,0l0,0l0,0l0-0.1l0.1-0.4l0.2-0.8c0.2-0.5,0.3-1,0.5-1.5c0.3-1,0.5-2,0.5-3.1c0-1-0.2-2.1-0.7-2.9
					c-0.5-0.9-1.4-1.5-2.4-1.9l0.1,0c-0.2,0.1-0.4,0.1-0.6,0.1c-0.1,0-0.1,0-0.2,0c-0.1,0-0.1-0.2-0.1-0.3c0.1-0.1,0.1-0.2,0.2-0.3
					c0.3-0.3,0.6-0.5,0.9-0.7l1.9-1.3c1.3-0.9,2.5-1.8,3.7-2.7c1.2-0.9,2.5-1.9,3.4-3c0.1-0.1,0.2-0.3,0.2-0.5c0-0.1,0-0.1-0.1-0.2
					l-0.2-0.2l-1-0.6c-0.6-0.4-1.3-0.9-1.9-1.3c-2.5-1.8-4.8-3.9-6.9-6.1C235.5,175.7,233.6,173.2,232,170.6z"/>
			</g>
		</g>
	</g>
	<g>
		<g>
			<path class="st2" d="M313.4,265.3c-0.8-0.7-1.5-1.5-2.3-2.2c-0.7-0.7-1.4-1.3-2.4-1.5c-0.4-0.1-0.8-0.1-1.1,0.2
				c-0.3,0.2-0.4,0.6-0.4,0.9c-0.1,0.4,0,0.9,0.2,1.3c0.2,0.3,0.7,0.5,0.7,0.9c0,0.4-0.4,0.7-0.7,1c-0.3,0.4-0.2,1,0.1,1.4
				c0.3,0.4,0.9,0.6,1.4,0.6c0.5,0,1-0.1,1.5-0.3c0.5-0.2,1-0.4,1.5-0.4c0.3-0.1,0.7-0.1,0.9-0.3c0.2-0.2,0.4-0.5,0.4-0.8
				C313.5,265.9,313.5,265.6,313.4,265.3z"/>
			<path class="st3" d="M313.3,264.6c-0.7-0.9-1.5-1.6-2.4-2.3c-0.8-0.6-1.6-1.3-2.7-1.3c-0.9,0-1.7,0.6-1.8,1.5
				c0,0.4,0.1,0.9,0.4,1.3c0.3,0.4,0.7,0.7,1,1.1c0,0,0,0,0,0c0,0,0,0-0.1,0.1c-0.1,0.1-0.1,0.1-0.2,0.2c-0.1,0.1-0.3,0.3-0.4,0.4
				c-0.2,0.3-0.4,0.6-0.4,1c-0.1,0.8,0.4,1.3,1.2,1.5c1.5,0.3,3.1,0,4.3-0.9c0.4-0.3,0-0.8-0.4-0.6c-1.1,0.7-2.5,1.1-3.8,0.8
				c-0.3-0.1-0.6-0.2-0.6-0.4c-0.1-0.3,0-0.5,0.2-0.8c0.3-0.5,1.2-1,0.8-1.6c0,0,0,0,0,0c0,0,0,0,0,0c-0.5-0.6-1.3-1-1.2-1.9
				c0.1-0.8,1.1-0.9,1.7-0.7c0.8,0.3,1.5,0.9,2.1,1.4c0.7,0.6,1.3,1.2,1.9,1.9C313.1,265.5,313.6,265,313.3,264.6z"/>
			<path class="st2" d="M316.4,266.5c1.2-1.5,2.9-2.6,4.6-3.6c0.4-0.2,0.9-0.5,1.3-0.6c0.5-0.1,1,0.1,1.3,0.5
				c0.3,0.6-0.1,1.3-0.2,1.9c-0.1,0.6,0.1,1.2,0.2,1.8s0,1.3-0.4,1.7c-0.3,0.3-0.8,0.4-1.3,0.3s-0.9-0.3-1.3-0.4
				c-1-0.4-2-0.6-3.1-0.8c-0.3,0-0.6-0.1-0.9-0.2C316.5,267,316.3,266.6,316.4,266.5z"/>
			<path class="st3" d="M324.2,263.7c0.1-0.5,0-1-0.4-1.3c0,0,0,0,0,0c-1.1-1-2.5-0.2-3.6,0.4c-1.3,0.8-2.6,1.6-3.7,2.6
				c-0.3,0.3,0.2,0.8,0.5,0.5c1-0.8,2-1.6,3.1-2.2c0.8-0.5,2.3-1.7,3.2-0.8c0,0,0,0,0,0c0.3,0.4,0.2,0.8,0,1.2
				c-0.1,0.4-0.3,0.8-0.3,1.2c0,0.8,0.8,1.8,0.1,2.5c-0.8,0.7-2.1,0.2-2.9-0.1c-1.1-0.3-2.2-0.7-3.3-1c-0.4-0.1-0.6,0.5-0.2,0.7
				c1.3,0.4,2.7,0.8,4,1.2c1,0.3,2.3,0.5,3.1-0.4c0.3-0.4,0.4-0.9,0.3-1.3c-0.1-0.5-0.4-1-0.3-1.6
				C323.8,264.7,324.1,264.2,324.2,263.7z"/>
			<path class="st3" d="M317,265c-0.1-0.1-0.3-0.1-0.4,0c-0.1,0-0.2,0-0.3,0.1c-0.1,0.1-0.3,0.2-0.4,0.3c-0.1,0-0.1,0-0.2,0
				c0,0-0.1,0-0.1,0c0,0-0.1,0,0,0c-0.1,0-0.2,0-0.3,0c-0.4,0-0.7-0.2-1-0.4c-0.1-0.1-0.2-0.1-0.3-0.1c0,0,0,0,0,0
				c-0.6-0.1-1.2,0.3-1.3,0.8c-0.2,0.6,0.2,1.2,0.7,1.5c0.6,0.4,1.3,0.3,1.9,0.2c0.6-0.1,1.2-0.3,1.6-0.7
				C317.3,266.2,317.4,265.5,317,265z M316.1,266.5c-0.4,0.3-1,0.4-1.5,0.4c-0.5,0-1-0.1-1.3-0.5c-0.1-0.2-0.1-0.4,0-0.5
				c0.1-0.2,0.3-0.3,0.5-0.2c0,0,0.1,0,0.1,0c0.7,0.7,1.9,0.7,2.7,0.1C316.7,265.9,316.4,266.3,316.1,266.5z"/>
			<path class="st2" d="M316.6,265.2c-0.4,0.1-0.8,0.3-1.2,0.3c-0.4,0.1-0.9,0-1.2-0.2c-0.2-0.1-0.5-0.3-0.7-0.2
				c-0.3,0.1-0.4,0.3-0.4,0.6c0,0.4,0.3,0.9,0.6,1.1c0.4,0.2,0.8,0.3,1.3,0.4c0.3,0,0.6,0.1,0.9,0c0.5-0.2,0.8-0.7,1-1.1
				c0.1-0.2,0.1-0.3,0.1-0.5C316.8,265.5,316.6,265.3,316.6,265.2z"/>
			<path class="st3" d="M310.8,266.1c0.3,0.1,0.6,0.1,0.9,0.1c0.2,0,0.5,0,0.8,0c0.2-0.1,0.4-0.2,0.3-0.5c-0.1-0.2-0.3-0.4-0.5-0.5
				c-0.3-0.2-0.6-0.3-0.9-0.5c-0.2-0.1-0.3,0.1-0.1,0.2c0.3,0.2,0.5,0.3,0.8,0.5c0.1,0.1,0.6,0.3,0.4,0.4c-0.1,0.1-0.2,0.1-0.2,0.1
				c-0.1,0-0.3,0-0.4,0c-0.3,0-0.6-0.1-0.9-0.1C310.6,265.8,310.6,266.1,310.8,266.1"/>
			<path class="st3" d="M318.5,265.3c-0.6,0.1-1.2,0.3-1.7,0.8c-0.1,0.1,0,0.2,0.1,0.2c0.6,0.1,1.3,0.3,1.9,0.4
				c0.2,0,0.2-0.2,0.1-0.3c-0.6-0.1-1.3-0.3-1.9-0.4c0,0.1,0,0.2,0.1,0.2c0.4-0.4,0.9-0.7,1.5-0.7
				C318.7,265.6,318.7,265.3,318.5,265.3"/>
		</g>
		<g>
			<path class="st2" d="M241.2,264.5c-1.2-1.2-2.6-2.3-4-3.3c-0.6-0.4-1.2-0.8-1.9-0.8s-1.5,0.5-1.4,1.2c0,0.4,0.4,0.8,0.4,1.3
				c0.2,0.9-0.9,1.9-0.5,2.8c0.2,0.5,0.8,0.8,1.4,0.9c1.5,0.3,3.1-0.1,4.6-0.4c0.5-0.1,1-0.2,1.3-0.6
				C241.3,265.1,241.2,264.4,241.2,264.5z"/>
			<path class="st2" d="M243.8,263.2c1.2-1,2.4-1.9,3.6-2.9c0.3-0.3,0.7-0.5,1.1-0.7c0.4-0.2,0.8-0.3,1.3-0.1s0.8,0.5,0.8,0.9
				c0,0.8-1,1.4-1,2.2c0,0.6,0.7,1.1,0.9,1.7c0.1,0.6-0.2,1.1-0.6,1.5c-0.5,0.4-1.1,0.7-1.7,0.7c-0.8,0.1-1.6-0.2-2.2-0.6
				s-1.3-0.9-1.8-1.4c0.1,0.3-0.1,0.7-0.4,0.9c-0.3,0.1-0.7,0.1-1.1,0c-0.2,0-0.5-0.1-0.7-0.1c-0.3,0-0.6-0.1-0.8-0.2
				c-0.2-0.1-0.4-0.4-0.3-0.7c0.1-0.3,0.4-0.4,0.7-0.4c0.3,0,0.5,0.1,0.8,0.1C242.9,264.1,243.3,263.5,243.8,263.2z"/>
			<path class="st3" d="M240.1,263.1c-1.1-1.2-2.4-2.1-3.9-2.7c-0.7-0.3-1.5-0.5-2.2-0.2c-0.6,0.3-0.9,0.9-0.7,1.5
				c0.2,0.6,0.8,1,0.7,1.7c-0.2,0.6-0.6,1.1-0.6,1.7c-0.2,1.6,1.9,1.8,3,1.9c1.9,0,3.7-0.4,5.3-1.4c0.4-0.2,0-0.8-0.4-0.6
				c-1.2,0.7-2.6,1.1-4,1.2c-0.7,0.1-1.4,0-2.1-0.1c-0.5-0.1-1.2-0.2-1.2-0.9c0-0.5,0.4-1,0.5-1.4c0.2-0.5,0.2-1,0-1.4
				c-0.2-0.4-0.8-1-0.5-1.4c0.4-0.6,1.3-0.3,1.8-0.1c1.4,0.6,2.7,1.5,3.7,2.6C239.9,263.9,240.4,263.5,240.1,263.1"/>
			<path class="st3" d="M243.7,263.5c1.2-0.6,2.1-1.5,3.1-2.4c0.5-0.5,1-0.9,1.6-1.2c0.4-0.2,1.3-0.4,1.6,0c0.2,0.2,0.1,0.6,0,0.8
				c-0.1,0.3-0.3,0.6-0.5,0.9c-0.3,0.4-0.8,0.9-0.5,1.4c0.1,0.2,0.3,0.3,0.5,0.5c0.2,0.2,0.4,0.5,0.5,0.8c0.2,0.5,0,1.2-0.6,1.4
				c-0.6,0.3-1.4,0.2-2.1,0.2c-0.4,0-0.8,0-1.3-0.1c-0.3,0-0.9-0.1-0.9-0.5c0-0.4-0.7-0.4-0.7,0c0,0.8,0.7,1.1,1.4,1.1
				c0.9,0.1,1.8,0.1,2.6,0.1c0.7,0,1.4-0.2,1.8-0.8c0.4-0.5,0.5-1.3,0.3-1.9c-0.1-0.3-0.3-0.6-0.5-0.9c-0.1-0.1-0.2-0.2-0.3-0.3
				c-0.2-0.2-0.1-0.2,0.1-0.4c0.4-0.6,0.9-1.3,1-2c0.1-0.7-0.3-1.2-1-1.3c-0.7-0.1-1.4,0.1-2.1,0.4c-0.8,0.4-1.4,1.1-2.1,1.7
				c-0.7,0.7-1.5,1.2-2.3,1.7C242.9,263.1,243.3,263.7,243.7,263.5"/>
			<path class="st3" d="M237.9,263.8c1,0.1,1.9,0.3,2.8,0.7c0-0.1,0-0.2,0-0.2c-0.8,0.2-1.5,0.3-2.3,0.4c-0.2,0-0.2,0.3,0,0.3
				c0.8-0.1,1.6-0.2,2.4-0.4c0.1,0,0.1-0.2,0-0.2c-0.9-0.4-1.9-0.7-2.9-0.7C237.8,263.5,237.8,263.8,237.9,263.8"/>
			<path class="st3" d="M245.7,262.7c-0.6,0.3-1.2,0.7-1.8,1.2c-0.1,0.1,0,0.2,0.1,0.2c0.6,0.1,1.2,0.1,1.8,0c0.2,0,0.2-0.3,0-0.3
				c-0.6,0.1-1.2,0-1.8,0c0,0.1,0,0.2,0.1,0.2c0.5-0.4,1.1-0.8,1.7-1.2C246,262.9,245.8,262.7,245.7,262.7"/>
			<path class="st3" d="M240.4,263.2c-0.3,0.5-0.3,1.1,0,1.5c0.4,0.5,1,0.7,1.6,0.8c0.7,0.1,1.4,0.1,2-0.1c0.5-0.2,0.9-0.8,0.9-1.4
				c0-0.7-0.7-1.2-1.4-1c-0.4,0.1-0.2,0.7,0.2,0.6c0.2,0,0.4,0.1,0.5,0.2c0.1,0.2,0.1,0.4,0,0.6c-0.3,0.5-0.8,0.6-1.3,0.6
				c-0.5,0-1.1-0.1-1.6-0.3c-0.3-0.2-0.6-0.7-0.4-1c0.1-0.1,0.1-0.3,0-0.5C240.7,263.1,240.5,263,240.4,263.2"/>
			<path class="st3" d="M240.5,264c0.6,0.3,1.1,0.6,1.8,0.5c0.6,0,1.1-0.3,1.4-0.7c0.1-0.1,0-0.4-0.1-0.4c-0.2-0.1-0.4,0-0.4,0.1
				c-0.2,0.3-0.6,0.4-0.9,0.4c-0.5,0-0.9-0.3-1.4-0.5c-0.2-0.1-0.4,0-0.4,0.1C240.3,263.7,240.3,263.9,240.5,264"/>
		</g>
	</g>
	<g>
		<g>
			<path class="st1" d="M277,83.6c-0.5-2.3-0.9-4.6-1-7c-0.2-2.3-0.1-4.7,0-7.1c0.2-2.3,0.5-4.7,0.7-7c0.2-2.3,0.2-4.6-0.2-7
				c0.7,2.2,0.9,4.6,0.8,7c-0.1,2.4-0.4,4.7-0.5,7c-0.2,2.3-0.2,4.6-0.2,7C276.5,79,276.7,81.3,277,83.6z"/>
		</g>
		<g>
			<path class="st1" d="M218.2,160.3c0.4,2.8,1.5,5.4,3,7.8c1.5,2.4,3.2,4.6,5,6.8c1.8,2.2,3.5,4.5,4.9,7c0.7,1.3,1.3,2.6,1.7,4
				c0.4,1.4,0.6,2.8,0.6,4.2c-0.3-2.8-1.3-5.5-2.8-7.9c-1.4-2.4-3.2-4.6-5-6.8c-1.8-2.2-3.5-4.5-5-7
				C219.3,165.9,218.3,163.2,218.2,160.3z"/>
		</g>
		<g>
			<path class="st1" d="M228.7,187c0,1.3,0.2,2.6,0.5,3.8c0.3,1.2,0.8,2.4,1.4,3.5c0.6,1.1,1.4,2.1,2.2,3.1c0.9,0.9,1.9,1.7,3,2.5
				c-1.2-0.4-2.4-1.2-3.4-2c-1-0.9-1.8-2-2.5-3.1c-0.6-1.2-1.1-2.5-1.3-3.8C228.4,189.6,228.4,188.2,228.7,187z"/>
		</g>
		<g>
			<path class="st1" d="M233.7,195.1c1.3,0.2,2.6,0.8,3.6,1.8c1,1,1.6,2.3,1.7,3.7c0,1.4-0.4,2.8-1.1,3.9c-0.7,1.2-1.5,2.2-2.4,3.2
				c0.7-1.1,1.4-2.3,1.9-3.4c0.5-1.2,0.9-2.4,0.9-3.6c0-1.2-0.5-2.4-1.3-3.4C236,196.4,235,195.6,233.7,195.1z"/>
		</g>
		<g>
			<path class="st1" d="M232.1,201.3c-0.3,1.3-0.5,2.6-0.4,3.9c0.1,1.3,0.3,2.6,0.8,3.8c0.5,1.2,1.1,2.3,2,3.3c0.9,1,2,1.7,3.3,2
				c-0.7,0-1.4-0.2-2-0.5c-0.6-0.3-1.2-0.7-1.7-1.2c-1-0.9-1.8-2.2-2.3-3.4c-0.5-1.3-0.7-2.7-0.7-4.1c0-0.7,0.1-1.4,0.3-2
				C231.6,202.5,231.8,201.9,232.1,201.3z"/>
		</g>
		<g>
			<path class="st1" d="M238.3,206.8c1.2,0.6,2.1,1.8,2.6,3.1c0.5,1.3,0.5,2.8,0,4.2c-0.5,1.3-1.4,2.4-2.2,3.5c-0.9,1-1.8,2-2.8,2.9
				c0.8-1.1,1.6-2.1,2.4-3.2c0.7-1.1,1.5-2.2,2-3.4c0.5-1.2,0.5-2.5,0.2-3.7C240,208.8,239.3,207.7,238.3,206.8z"/>
		</g>
		<g>
			<path class="st1" d="M233.8,216.4c-0.1,1.2-0.7,2.3-1,3.3c-0.1,0.5-0.1,1.1,0,1.5c0.2,0.5,0.5,0.9,0.8,1.3
				c1.5,1.7,3.3,3.1,5.4,4.2c-2.3-0.6-4.4-1.9-6-3.7c-0.4-0.5-0.8-1-0.9-1.6c-0.2-0.6-0.1-1.3,0.1-1.9
				C232.6,218.4,233.3,217.5,233.8,216.4z"/>
		</g>
		<g>
			<path class="st1" d="M238.6,220.3c1.1,0.7,2.2,1.4,2.9,2.5c0.4,0.5,0.6,1.2,0.7,1.9c0,0.7-0.1,1.4-0.4,2c-0.6,1.2-1.6,2.1-2.5,3
				c-0.9,0.9-1.8,1.8-2.3,3c0.1-0.6,0.4-1.2,0.7-1.8c0.3-0.6,0.8-1.1,1.2-1.5c0.8-1,1.7-1.9,2.2-2.9c0.5-1,0.5-2.3-0.1-3.3
				C240.4,222.1,239.5,221.2,238.6,220.3z"/>
		</g>
		<g>
			<path class="st1" d="M234.6,227c-0.3,1.2-0.6,2.4-0.7,3.5c-0.1,1.2,0,2.3,0.6,3.3c0.5,1,1.6,1.5,2.7,2c0.5,0.3,1.1,0.6,1.6,1
				c0.5,0.4,0.9,1,0.9,1.6c-0.2-0.6-0.7-1-1.2-1.3c-0.5-0.3-1-0.5-1.6-0.7c-0.6-0.2-1.1-0.4-1.7-0.8c-0.6-0.3-1-0.8-1.4-1.4
				c-0.6-1.2-0.8-2.5-0.5-3.8C233.5,229.2,234,228,234.6,227z"/>
		</g>
		<g>
			<path class="st1" d="M240.8,232.4c0.9,0.9,1.7,1.8,2.2,2.9c0.3,0.6,0.4,1.2,0.4,1.9c0,0.7-0.2,1.3-0.5,1.9
				c-0.6,1.1-1.5,2-2.3,2.9c-0.8,0.9-1.6,1.8-2.5,2.6c0.6-1,1.3-2,2-3c0.7-1,1.5-1.9,2.1-2.9c0.6-1,0.6-2.1,0.2-3.2
				C242.1,234.4,241.4,233.4,240.8,232.4z"/>
		</g>
		<g>
			<path class="st1" d="M236.6,239.5c-1.2,2-1.5,4.4-0.7,6.5c0.8,2.1,2.5,3.8,4.7,4.5c-2.4-0.2-4.6-1.9-5.4-4.3
				C234.3,243.9,234.9,241.2,236.6,239.5z"/>
		</g>
		<g>
			<path class="st1" d="M240.8,244.9c1.2,1,2.4,2.1,3.1,3.7c0.7,1.5,0.5,3.5-0.7,4.8c-0.3,0.3-0.7,0.6-1.1,0.7
				c-0.4,0.2-0.9,0.2-1.2,0.2c-0.4,0.1-0.6,0.2-0.8,0.4c-0.1,0.2-0.2,0.6-0.2,1c-0.1,0.7,0,1.5,0.2,2.2c0.2,0.7,0.7,1.4,1.3,1.8
				c-0.8-0.2-1.4-0.9-1.7-1.7c-0.3-0.8-0.4-1.6-0.4-2.4c0-0.4,0-0.8,0.2-1.3c0.2-0.5,0.8-0.7,1.2-0.8c0.4-0.1,0.8-0.1,1.1-0.2
				c0.3-0.1,0.6-0.3,0.8-0.6c0.5-0.5,0.8-1.2,0.9-1.9c0.1-0.7,0-1.4-0.2-2.2C242.8,247.3,241.7,246.1,240.8,244.9z"/>
		</g>
		<g>
			<path class="st1" d="M338.5,159.2c-0.6,2.7-1.5,5.4-2.5,8c-1.1,2.6-2.4,5.1-3.9,7.4c-1.5,2.3-3.2,4.6-5.2,6.7
				c-1.9,2.1-4,4-6.2,5.6c2.1-1.9,4-3.9,5.8-6c1.8-2.1,3.5-4.3,5-6.7c1.5-2.3,2.8-4.8,4-7.3C336.7,164.5,337.7,161.9,338.5,159.2z"
				/>
		</g>
		<g>
			<path class="st1" d="M334.7,159.1c0.3,1.6,0.2,3.3-0.2,4.9c-0.4,1.6-1.1,3.2-2.2,4.5c0.5-1.6,1.1-3.1,1.4-4.6
				C334.2,162.3,334.4,160.7,334.7,159.1z"/>
		</g>
		<g>
			<path class="st1" d="M319.7,187.5c-1.4,2.9-1.2,6.2,0.5,9c-1.3-1-2.1-2.7-2.2-4.4C317.9,190.5,318.5,188.7,319.7,187.5z"/>
		</g>
		<g>
			<path class="st1" d="M325.2,188.6c0.7,1.2,0.9,2.8,0.7,4.2c-0.2,1.5-0.8,2.8-1.5,4c-0.8,1.2-1.6,2.3-2.5,3.4
				c-0.5,0.5-0.9,1.1-1.5,1.6c-0.6,0.5-1.2,0.9-1.8,1.1c1.2-0.8,2-1.9,2.8-3c0.8-1.2,1.6-2.3,2.4-3.5c0.7-1.2,1.3-2.4,1.6-3.8
				C325.7,191.3,325.7,189.9,325.2,188.6z"/>
		</g>
		<g>
			<path class="st1" d="M318.5,197.4c-0.8,1.2-1.5,2.3-1.8,3.6c-0.4,1.3-0.3,2.6,0.2,3.8c0.4,1.2,1.2,2.3,2.1,3.3c0.9,1,2,1.9,3,2.8
				c-1.2-0.7-2.4-1.5-3.4-2.4c-1-0.9-1.9-2.1-2.4-3.5c-0.5-1.3-0.5-2.9,0-4.3C316.6,199.5,317.5,198.4,318.5,197.4z"/>
		</g>
		<g>
			<path class="st1" d="M323.1,201.9c0.9,1.2,1.8,2.4,2.1,4c0.2,0.8,0.2,1.6,0,2.3c-0.2,0.8-0.5,1.5-0.9,2.1
				c-0.8,1.3-1.9,2.4-2.9,3.4c-1.1,1-2.2,2-3.5,2.8c1-1.1,2.1-2.1,3.1-3.2c1-1.1,2-2.2,2.7-3.4c0.8-1.2,1.2-2.6,1-4
				C324.4,204.6,323.7,203.3,323.1,201.9z"/>
		</g>
		<g>
			<path class="st1" d="M316.6,209.1c-0.4,1.2-0.9,2.4-1.2,3.6c-0.3,1.2-0.5,2.4-0.4,3.6c0.1,1.2,0.7,2.3,1.5,3.2
				c0.8,0.9,1.8,1.7,2.7,2.6c-1.1-0.6-2.2-1.3-3.2-2.2c-0.9-0.9-1.6-2.2-1.8-3.5c-0.2-1.3,0.1-2.7,0.6-3.9
				C315.3,211.3,316,210.2,316.6,209.1z"/>
		</g>
		<g>
			<path class="st1" d="M322,216.4c0.6,1.1,1.1,2.2,1.3,3.4c0.3,1.2,0.2,2.6-0.5,3.7c-0.6,1.1-1.5,2-2.4,2.8
				c-0.9,0.8-1.8,1.6-2.7,2.4c0.7-1,1.5-1.9,2.3-2.8c0.8-0.9,1.6-1.7,2.2-2.7c0.5-1,0.7-2.1,0.5-3.3
				C322.6,218.7,322.2,217.6,322,216.4z"/>
		</g>
		<g>
			<path class="st1" d="M316.8,222.7c-0.4,1.1-0.9,2.3-1.2,3.4c-0.3,1.1-0.4,2.3-0.1,3.4c0.3,1.1,0.9,2.1,1.7,3
				c0.8,0.9,1.7,1.7,2.5,2.6c-1-0.6-2.1-1.3-2.9-2.2c-0.9-0.9-1.7-1.9-2-3.2c-0.3-1.3-0.2-2.6,0.3-3.8
				C315.5,224.8,316.1,223.7,316.8,222.7z"/>
		</g>
		<g>
			<path class="st1" d="M320.7,229.7c0.8,0.7,1.4,1.7,1.6,2.9c0.2,1.1,0,2.3-0.5,3.3c-0.5,1-1.2,1.9-1.9,2.7
				c-0.7,0.8-1.6,1.6-2.6,1.9c0.9-0.6,1.5-1.4,2.1-2.3c0.6-0.9,1.2-1.7,1.6-2.7C322.1,233.8,321.9,231.5,320.7,229.7z"/>
		</g>
		<g>
			<path class="st1" d="M315.8,234.4c-1.2,1.9-1.6,4.2-1.2,6.2c0.5,2.1,1.9,3.9,3.8,5.1c-2.2-0.6-4-2.6-4.5-4.9
				C313.4,238.5,314.1,236,315.8,234.4z"/>
		</g>
		<g>
			<path class="st1" d="M319.8,241.7c0.8,0.8,1.3,2,1.5,3.2c0.2,1.2-0.1,2.5-0.7,3.6c-0.6,1.1-1.3,2-2.2,2.8c-0.8,0.8-1.7,1.7-2.9,2
				c1-0.6,1.7-1.5,2.4-2.4c0.7-0.9,1.4-1.8,1.9-2.8C321,246.1,321,243.7,319.8,241.7z"/>
		</g>
		<g>
			<path class="st1" d="M315.8,246.6c-0.8,1.3-1.7,2.6-2.1,4c-0.4,1.4-0.3,3,0.5,4.1c0.4,0.6,1,0.9,1.7,1.2c0.7,0.3,1.5,0.8,1.8,1.7
				c0.3,0.8,0.2,1.7,0,2.4c-0.2,0.8-0.5,1.5-0.9,2.1c0.2-0.7,0.5-1.5,0.6-2.2c0.1-0.7,0.1-1.5-0.2-2.1c-0.3-0.6-0.9-1-1.6-1.3
				c-0.7-0.3-1.5-0.7-2-1.4c-1-1.4-1-3.2-0.5-4.7C313.7,249,314.7,247.8,315.8,246.6z"/>
		</g>
		<g>
			<path class="st1" d="M314.8,269.3c-0.7,1.1-1.2,2.3-1.5,3.6c-0.3,1.3-0.4,2.5-0.4,3.8c0.1,1.3,0.3,2.6,0.7,3.8
				c0.4,1.2,1.1,2.4,1.9,3.4c-1-0.9-1.8-2-2.4-3.2c-0.6-1.2-0.9-2.6-0.9-4c-0.1-1.4,0.1-2.7,0.6-4
				C313.2,271.5,313.9,270.3,314.8,269.3z"/>
		</g>
		<g>
			<path class="st1" d="M243,267.4c1,0.8,1.7,2,2,3.3c0.3,1.3,0.3,2.7,0,4c-0.4,1.3-1.1,2.5-2,3.5c-0.9,1-2,1.8-3.2,2.3
				c1-0.8,2-1.7,2.7-2.7c0.7-1,1.4-2.1,1.7-3.3c0.3-1.2,0.4-2.4,0.2-3.7C244.3,269.6,243.8,268.4,243,267.4z"/>
		</g>
		<g>
			<path class="st1" d="M318.2,269.6c1.2,0.9,1.9,2.5,2,4.1c0.1,1.6-0.5,3.2-1.6,4.3c0.7-1.4,0.9-2.8,0.9-4.2
				C319.4,272.3,319,270.9,318.2,269.6z"/>
		</g>
		<g>
			<path class="st1" d="M236.7,268.3c-0.6,0.7-0.8,1.7-0.7,2.5c0.1,0.9,0.5,1.6,1.2,2.1c0.3,0.3,0.7,0.5,1.1,0.8
				c0.4,0.3,0.7,0.7,1,1.2c0.5,0.9,0.6,1.9,0.3,2.8l0,0l0.1,0.2l-0.2-0.1l0,0l0,0c0-0.9-0.3-1.8-0.8-2.5c-0.5-0.7-1.2-1.1-2-1.7
				c-0.4-0.3-0.8-0.7-1-1.2c-0.2-0.5-0.4-1-0.4-1.5C235.5,269.9,236,268.8,236.7,268.3z"/>
		</g>
		<g>
			<path class="st1" d="M315.9,270.7c0.7,0.7,0.9,1.7,0.9,2.7c0,1-0.3,1.9-0.5,2.8c-0.2,0.9-0.4,1.8-0.5,2.6c0,0.9,0.1,1.8,0.7,2.5
				l0,0l0-0.1l0,0.1l0,0l0,0c-0.8-0.5-1.2-1.6-1.3-2.5c-0.1-1,0.1-1.9,0.4-2.9c0.3-0.9,0.5-1.8,0.7-2.6
				C316.3,272.5,316.3,271.6,315.9,270.7z"/>
		</g>
		<g>
			<path class="st1" d="M239,86.2c-1.4-0.7-2.8-1.6-4.2-2.3c-1.4-0.8-2.8-1.5-4.2-2.2c-1.4-0.7-2.9-1.3-4.3-1.8
				c-1.5-0.5-3-0.9-4.6-1.2l0.1,0l-0.4,0.6l0.3-0.6l0,0h0c1.6,0,3.2,0.3,4.8,0.7c1.6,0.4,3.1,1,4.5,1.7c1.4,0.7,2.8,1.5,4.2,2.4
				C236.5,84.3,237.8,85.2,239,86.2z"/>
		</g>
		<g>
			<path class="st1" d="M229.1,90.4c-0.7,0-1.5-0.3-2.1-0.6c-0.6-0.4-1.2-0.9-1.7-1.4c-1-1-1.9-2.2-3.1-3c-1.1-0.9-2.4-1.5-3.7-1.9
				c-1.3-0.4-2.8-0.6-4.2-0.6c1.4-0.3,2.9-0.3,4.4,0c1.4,0.3,2.8,1,4,1.9c1.2,0.9,2.1,2.1,3,3.2C226.7,89.1,227.7,90.1,229.1,90.4z"
				/>
		</g>
		<g>
			<path class="st1" d="M227,89.7c-0.4,1.6-1.1,3.2-2.4,4.3c-0.6,0.6-1.5,1-2.3,1.1c-0.9,0.1-1.8,0-2.6-0.2
				c-1.6-0.5-3.1-1.3-4.6-1.8c-1.5-0.5-3.2-0.4-4.7,0.2c1.4-0.8,3.2-1.1,4.9-0.7c1.7,0.4,3.1,1.2,4.6,1.6c1.5,0.5,3.1,0.4,4.4-0.6
				C225.5,92.6,226.3,91.2,227,89.7z"/>
		</g>
		<g>
			<path class="st1" d="M224.9,93.7c0.5,0.9,0.8,2,0.7,3.1c-0.1,1.1-0.5,2.1-1,3.1c-0.5,0.9-1.3,1.7-2.3,2.4c-0.9,0.6-2,1-3,1.2
				c-2.1,0.4-4.4,0.2-6.4-0.4c-1-0.3-2-0.7-3-0.7c-1,0-2.1,0.5-2.4,1.6c0-0.5,0.4-1,0.8-1.3c0.4-0.3,1-0.5,1.5-0.6
				c1.1-0.1,2.2,0.3,3.2,0.5c2,0.5,4.1,0.7,6.1,0.3c1-0.2,1.9-0.6,2.8-1.1c0.8-0.5,1.6-1.3,2.1-2.1
				C225.2,97.9,225.7,95.6,224.9,93.7z"/>
		</g>
		<g>
			<path class="st1" d="M218.7,103.1c1.1,1.3,1.3,3.3,0.5,4.9c-0.4,0.8-1.1,1.5-1.9,1.9c-0.8,0.4-1.6,0.7-2.5,0.8
				c-1.7,0.3-3.3,0.4-4.8,1.1c-1.5,0.6-2.8,1.7-3.9,2.9c0.8-1.5,2.1-2.7,3.7-3.4c1.5-0.8,3.3-1,4.9-1.3c1.6-0.3,3.2-0.9,4-2.3
				C219.5,106.4,219.6,104.5,218.7,103.1z"/>
		</g>
		<g>
			<path class="st1" d="M314.2,83.4c1.2-1.2,2.1-2.6,3.1-4c0.9-1.4,1.9-2.8,3-4.1c1.1-1.3,2.4-2.5,4-3.3c0.8-0.4,1.6-0.7,2.4-0.8
				c0.8-0.1,1.7-0.1,2.5,0.1c-1.7-0.1-3.3,0.4-4.7,1.3c-1.4,0.9-2.6,2-3.7,3.2c-1.1,1.3-2,2.6-3.1,4
				C316.7,81.1,315.5,82.4,314.2,83.4z"/>
		</g>
		<g>
			<path class="st1" d="M324.4,89.1c1.6,0.5,3.4,0.4,5-0.1c1.5-0.6,2.9-1.6,3.8-3c0.4-0.7,0.7-1.5,1.3-2.3c0.6-0.7,1.3-1.3,2.1-1.7
				c1.7-0.7,3.7-0.6,5.1,0.4c-0.8-0.3-1.6-0.5-2.5-0.5c-0.8,0-1.7,0.2-2.4,0.6c-0.7,0.4-1.4,0.9-1.8,1.6c-0.5,0.7-0.8,1.5-1.2,2.2
				c-0.9,1.6-2.5,2.7-4.2,3.2C327.8,90,325.9,89.9,324.4,89.1z"/>
		</g>
		<g>
			<path class="st1" d="M330.4,89.1c0.2,1.6,1.2,3,2.4,3.8c1.2,0.9,2.8,1.3,4.3,1.2c1.5,0,3-0.5,4.4-1.1c1.4-0.7,2.7-1.6,4-2.6
				c-1.1,1.2-2.3,2.3-3.7,3.1c-1.4,0.8-3,1.3-4.7,1.4c-1.7,0-3.4-0.4-4.7-1.5C331.2,92.4,330.3,90.7,330.4,89.1z"/>
		</g>
		<g>
			<path class="st1" d="M336.3,94.9c-0.2,0.8-0.4,1.5-0.4,2.3c-0.1,0.8,0,1.5,0.3,2.2c0.5,1.3,2,2.1,3.4,1.7c1.4-0.3,2.6-1.3,4-2.2
				c0.7-0.4,1.4-0.8,2.2-1c0.8-0.2,1.6-0.2,2.3,0.2c-0.8-0.2-1.5-0.1-2.2,0.1c-0.7,0.3-1.4,0.7-2,1.1c-1.2,0.9-2.5,2-4.1,2.4
				c-0.8,0.2-1.8,0.1-2.5-0.3c-0.8-0.4-1.4-1.1-1.6-1.9C335.1,97.9,335.6,96.3,336.3,94.9z"/>
		</g>
		<g>
			<path class="st1" d="M340.6,101.4c0.1,1.1,0.2,2.2,0.7,3.1c0.5,0.9,1.4,1.3,2.5,1.3c1,0.1,2.1-0.2,3.2-0.2c0.6,0,1.1,0.1,1.7,0.3
				c0.5,0.2,1,0.5,1.3,1c-0.8-0.8-2-0.8-3-0.7c-1,0.1-2.1,0.4-3.3,0.4c-0.6,0-1.2-0.1-1.7-0.5c-0.5-0.3-1-0.8-1.2-1.4
				C340.3,103.6,340.4,102.5,340.6,101.4z"/>
		</g>
		<g>
			<path class="st1" d="M275,57.3c-2.8-2.7-6.4-4.4-10.1-5.4c-3.7-0.9-7.6-1.3-11.5-1.3c-3.9,0-7.7,0.4-11.4,1.5
				c-3.7,1.1-7.2,3-9.8,5.9c1.2-1.5,2.7-2.8,4.3-3.9c1.6-1.1,3.4-1.9,5.3-2.5c3.7-1.2,7.7-1.7,11.6-1.7c3.9,0,7.8,0.4,11.6,1.5
				c1.9,0.6,3.7,1.3,5.4,2.3C272.2,54.6,273.7,55.9,275,57.3z"/>
		</g>
		<g>
			<path class="st1" d="M278.1,56c3.9-2.4,8.5-3.8,13.1-4.2c4.6-0.4,9.3,0.1,13.8,1.3c4.5,1.3,8.7,3.2,12.7,5.5
				c4,2.3,7.7,5.1,11.3,8c-3.7-2.7-7.5-5.3-11.5-7.5c-4-2.2-8.2-4.1-12.6-5.3c-4.4-1.3-9-1.8-13.5-1.5
				C286.7,52.7,282.2,53.8,278.1,56z"/>
		</g>
		<g>
			<path class="st1" d="M278.5,80.4c2.5-1.2,5.2-2,7.9-2.4c2.7-0.5,5.5-0.5,8.3-0.2c2.7,0.3,5.4,0.7,8.2,0.9c2.7,0.2,5.5,0,8-1.1
				c-1.2,0.7-2.5,1.1-3.9,1.3c-1.4,0.2-2.8,0.3-4.1,0.3c-2.8,0-5.5-0.5-8.2-0.7c-2.7-0.3-5.4-0.3-8.1,0.1
				C283.8,78.8,281.1,79.5,278.5,80.4z"/>
		</g>
		<g>
			<path class="st1" d="M278.6,66.9c0.5-0.8,1.1-1.5,1.8-2.1c0.7-0.6,1.5-1.1,2.4-1.5c1.7-0.8,3.6-1.1,5.5-1.2
				c1.9-0.1,3.8,0.3,5.6,0.8c1.8,0.5,3.6,1.2,5.3,1.9c3.4,1.5,6.8,3.2,10.4,4c1.8,0.4,3.6,0.6,5.5,0.5c0.9-0.1,1.8-0.2,2.7-0.5
				c0.9-0.3,1.7-0.6,2.6-1.1c-1.5,1.1-3.4,1.7-5.3,1.9c-1.9,0.2-3.8,0.1-5.6-0.3c-3.7-0.7-7.1-2.4-10.6-3.9
				c-3.4-1.5-6.9-2.8-10.6-2.8c-1.8,0-3.7,0.3-5.4,0.9c-0.9,0.3-1.7,0.8-2.4,1.3C279.8,65.5,279.2,66.2,278.6,66.9z"/>
		</g>
		<g>
			<path class="st1" d="M279.9,59.3c2.7-1.2,5.6-1.9,8.5-2.4c2.9-0.5,5.9-0.6,8.9-0.4c3,0.2,5.9,0.7,8.7,1.6c2.8,0.8,5.6,2,8.1,3.5
				c-2.7-1.2-5.4-2.2-8.3-2.9c-2.8-0.7-5.7-1.2-8.6-1.4c-2.9-0.2-5.8-0.1-8.7,0.2C285.6,57.8,282.7,58.4,279.9,59.3z"/>
		</g>
		<g>
			<path class="st1" d="M274.8,81.9c-1.7,1.3-3.7,2.2-5.8,2.6c-2.1,0.5-4.3,0.6-6.4,0.4c-4.3-0.3-8.4-1.9-12.3-3.6
				c-3.9-1.7-7.7-3.7-11.6-5.1c-4-1.4-8.2-2.3-12.4-1.7c2.1-0.4,4.2-0.4,6.4-0.2c2.1,0.3,4.2,0.8,6.2,1.4c4.1,1.3,7.9,3.3,11.7,4.9
				c3.8,1.7,7.8,3.2,12,3.7C266.9,84.8,271.3,84.2,274.8,81.9z"/>
		</g>
		<g>
			<path class="st1" d="M274.4,68.1c-1.6-1.6-3.5-2.8-5.6-3.7c-2.1-0.8-4.2-1.4-6.4-1.8c-4.4-0.9-8.9-1.2-13.3-0.9
				c-4.5,0.2-8.9,1-13.2,2.2c-2.1,0.6-4.3,1.4-6.3,2.3c-2.1,0.8-4.1,1.9-6,3c3.7-2.5,7.9-4.5,12.2-5.9c4.3-1.4,8.8-2.2,13.3-2.4
				c4.5-0.2,9.1,0.1,13.5,1.1c2.2,0.5,4.4,1.1,6.5,2C271,65.1,272.9,66.4,274.4,68.1z"/>
		</g>
		<g>
			<path class="st1" d="M274.5,74.5c-1.4-0.5-2.9-1-4.4-1.4c-1.5-0.4-3-0.6-4.5-0.8c-1.5-0.2-3-0.2-4.5-0.2c-1.5,0-3,0.2-4.6,0.4
				c1.5-0.5,3-0.8,4.5-1c1.5-0.2,3.1-0.1,4.6,0c1.5,0.2,3.1,0.5,4.5,1C271.8,73,273.2,73.7,274.5,74.5z"/>
		</g>
		<g>
			<path class="st1" d="M214.9,113c0,1.5,0.1,3,0.5,4.4c0.4,1.4,0.9,2.8,1.7,4.1c0.4,0.7,0.8,1.3,1,2c0.3,0.7,0.5,1.5,0.6,2.2
				c0.3,1.5,0.3,3,0.2,4.5c-0.2-1.5-0.4-3-0.8-4.4c-0.4-1.4-1-2.7-1.8-4c-0.8-1.3-1.4-2.8-1.6-4.3
				C214.6,116.1,214.6,114.5,214.9,113z"/>
		</g>
		<g>
			<path class="st1" d="M208.8,116c-0.2,1.4-0.4,2.8-0.5,4.2c-0.1,1.4-0.1,2.8-0.1,4.1c0,1.4,0.2,2.8,0.4,4.1
				c0.2,1.4,0.5,2.7,0.8,4.1c-0.6-1.3-1.1-2.6-1.4-4c-0.3-1.4-0.5-2.8-0.6-4.2c0-1.4,0-2.8,0.2-4.2C208,118.7,208.3,117.3,208.8,116
				z"/>
		</g>
		<g>
			<path class="st1" d="M345.5,108.8c0.8,1.3,1.3,2.9,1.6,4.4c0.2,1.6,0.2,3.2,0,4.7c-0.2,1.6-0.6,3.1-1.2,4.6
				c-0.5,1.5-1.1,2.9-1.8,4.3l1.2-4.5c0.4-1.5,0.8-3,1-4.5c0.2-1.5,0.3-3,0.2-4.6C346.3,111.7,346,110.2,345.5,108.8z"/>
		</g>
		<g>
			<path class="st1" d="M338.1,105.2c0.1,1.8,0,3.5-0.1,5.3c-0.1,1.8-0.2,3.5-0.1,5.2c0.1,1.7,0.3,3.4,0.8,5.1
				c0.5,1.6,1.3,3.2,2.5,4.5c-1.4-1.1-2.4-2.7-3.1-4.3c-0.7-1.7-0.9-3.5-1-5.3c-0.1-1.8,0.1-3.6,0.3-5.3L338.1,105.2z"/>
		</g>
		<g>
			<path class="st1" d="M215.9,104.8c-0.7,1.4-2,2.5-3.4,3.2c-1.4,0.7-3.1,1-4.6,0.7c1.5-0.3,3-0.7,4.3-1.4
				C213.5,106.7,214.7,105.8,215.9,104.8z"/>
		</g>
		<g>
			<path class="st1" d="M221.7,96.7c-0.9,0.9-2.1,1.5-3.4,1.8c-1.3,0.3-2.7,0.2-4-0.2c-1.2-0.4-2.4-0.7-3.7-0.8
				c-1.2-0.1-2.5,0-3.8,0.3c1.2-0.6,2.5-0.9,3.8-0.9c0.7,0,1.3,0.1,2,0.2c0.7,0.1,1.3,0.3,1.9,0.5c1.2,0.4,2.4,0.5,3.7,0.4
				C219.4,97.8,220.6,97.3,221.7,96.7z"/>
		</g>
		<g>
			<path class="st1" d="M220.5,88.6c-2.3,0-4.7-0.1-6.9-1c-1.1-0.4-2.2-1-3-1.8c-0.9-0.8-1.6-1.8-2-2.9c1.3,2,3.2,3.2,5.3,4
				C216,87.8,218.2,88.1,220.5,88.6z"/>
		</g>
		<g>
			<path class="st1" d="M220.2,72.5c-0.9,1-1.9,1.8-2.8,2.6c-1,0.8-2,1.6-3.1,2.4c0.7-1.1,1.6-2.1,2.6-2.9
				C217.9,73.7,219,73,220.2,72.5z"/>
		</g>
		<g>
			<path class="st1" d="M320.7,81.4c1.8,0.2,3.6,0.4,5.3,0.1c0.9-0.1,1.7-0.3,2.4-0.7c0.7-0.4,1.4-0.9,2-1.6
				c1.2-1.3,2.2-2.8,3.7-3.9c0.7-0.6,1.5-1.1,2.3-1.4c0.9-0.3,1.8-0.5,2.7-0.3c-1.8,0.1-3.4,1-4.6,2.2c-1.3,1.2-2.3,2.6-3.5,4
				c-0.6,0.7-1.4,1.3-2.2,1.7c-0.8,0.4-1.8,0.6-2.7,0.7C324.2,82.2,322.4,81.8,320.7,81.4z"/>
		</g>
		<g>
			<path class="st1" d="M335.2,89.9c4.5-0.3,8.5-2.9,10.6-6.9c-0.5,2.2-2,4.2-4,5.5C339.9,89.7,337.5,90.4,335.2,89.9z"/>
		</g>
		<g>
			<path class="st1" d="M346,94.1c0.5-0.5,1.1-0.9,1.7-1.1c0.6-0.3,1.2-0.5,2-0.5c-0.5,0.5-1.1,0.9-1.7,1.1
				C347.3,93.9,346.7,94.1,346,94.1z"/>
		</g>
	</g>
	<g>
		<g>
			<path class="st4" d="M261.7,109.6c3.6,0,5.3,5.2,1.1,5.8c-10.5-0.2-24-4.4-32.6,3.5C235.3,106.9,250.7,107.7,261.7,109.6z"/>
			<g>
				<path class="st4" d="M261.7,109.6c0.8,0,1.5,0.2,2.2,0.7c0.6,0.5,1.1,1.1,1.3,1.9c0.2,0.7,0.1,1.6-0.4,2.2
					c-0.5,0.6-1.3,0.9-2,1.1l0,0l0,0c-5.6-0.1-11.2-1.1-16.9-1.1c-2.8,0-5.6,0.2-8.3,0.9c-2.7,0.7-5.2,2-7.2,3.9l-1.2,1.1l0.6-1.5
					c1.2-2.8,3.1-5.3,5.7-7c2.5-1.7,5.5-2.6,8.4-3.1c3-0.5,6-0.5,8.9-0.3C255.9,108.7,258.8,109.1,261.7,109.6z M261.7,109.6
					c-5.8-1-11.9-1.6-17.7-0.5c-2.9,0.5-5.7,1.5-8.1,3.2c-2.4,1.7-4.2,4.1-5.3,6.8l-0.6-0.4l1.7-1.4l1.8-1.1l2-0.9
					c0.7-0.2,1.4-0.5,2.1-0.7c2.8-0.7,5.7-0.9,8.5-0.8c2.8,0.1,5.6,0.4,8.4,0.7c2.8,0.3,5.6,0.7,8.4,0.8l0,0c0.7-0.1,1.5-0.4,2-1
					c0.5-0.6,0.6-1.4,0.4-2.2c-0.2-0.7-0.7-1.4-1.3-1.9C263.3,109.9,262.5,109.6,261.7,109.6z"/>
			</g>
		</g>
		<g>
			<path class="st4" d="M291.3,108.9c-3.6,0-5.3,5.2-1.1,5.8c10.5-0.2,24-4.4,32.6,3.5C317.7,106.2,302.3,107,291.3,108.9z"/>
			<g>
				<path class="st4" d="M291.3,108.9c-0.8,0-1.5,0.3-2.2,0.7c-0.6,0.5-1.1,1.1-1.3,1.9c-0.2,0.7-0.1,1.6,0.4,2.2
					c0.5,0.6,1.2,0.9,2,1l0,0c2.8-0.1,5.6-0.5,8.4-0.8c2.8-0.3,5.6-0.7,8.4-0.7c2.8-0.1,5.7,0.1,8.5,0.8c0.7,0.2,1.4,0.4,2.1,0.7
					l2,0.9l1.8,1.1l1.7,1.4l-0.6,0.4c-1.1-2.7-3-5.1-5.3-6.8c-2.4-1.7-5.2-2.7-8.1-3.2C303.1,107.4,297.1,108,291.3,108.9z
					 M291.3,108.9c2.9-0.5,5.9-0.9,8.9-1.1c3-0.2,6-0.2,8.9,0.3c2.9,0.5,5.9,1.4,8.4,3.1c2.5,1.7,4.5,4.2,5.7,7l0.6,1.5l-1.2-1.1
					c-2-1.9-4.5-3.2-7.2-3.9c-2.7-0.7-5.5-0.9-8.3-0.9c-5.6,0-11.2,1-16.9,1.1l0,0l0,0c-0.8-0.1-1.5-0.4-2-1.1
					c-0.5-0.6-0.6-1.5-0.4-2.2c0.2-0.7,0.7-1.4,1.3-1.9C289.7,109.2,290.5,108.9,291.3,108.9z"/>
			</g>
		</g>
	</g>
	<g>
		<path class="st4" d="M258,122.2c-6-4.1-14-2-19.6,1.8c-0.6-0.9-1.9-1.3-2-2.6c-0.1,1.1,0.1,2.5,1.1,3.2c-0.1,0.1-0.3,0.2-0.4,0.2
			c-1.1-0.7-2.3-1.4-2.6-2.8c-0.1,1.3,0.1,2.7,1.2,3.5c-0.3,0.1-0.5,0.2-0.8,0.3c-1.1-0.6-2.2-1.4-2.5-2.7c-0.1,1.4,0.2,3,1.5,3.7
			c0.7,6.9,3.8,13.9,10.8,16.1c-22.5-14.6,7.8-33.2,18.3-13.4C262.4,126.7,260.3,123.7,258,122.2z"/>
		<path class="st4" d="M320.9,122.9c-0.3,1.3-1.4,2.1-2.5,2.7c-0.3-0.1-0.5-0.2-0.8-0.3c1.1-0.8,1.3-2.3,1.2-3.5
			c-0.3,1.4-1.5,2.2-2.6,2.8c-0.1-0.1-0.3-0.2-0.4-0.2c1-0.7,1.2-2,1.1-3.2c-0.1,1.4-1.4,1.8-2,2.6c-7.6-5.9-21.8-6-24.5,5
			c10.8-19.5,40.6-0.5,18.2,13.9c7.1-2.2,10.2-9.3,10.9-16.2C320.7,126,321,124.3,320.9,122.9z"/>
	</g>
</g>
</svg>
