<?xml version="1.0" encoding="utf-8"?>
<!-- Generator: Adobe Illustrator 24.2.3, SVG Export Plug-In . SVG Version: 6.00 Build 0)  -->
<svg version="1.1" id="coiffure_x5F_17" xmlns="http://www.w3.org/2000/svg" xmlns:xlink="http://www.w3.org/1999/xlink" x="0px"
	 y="0px" viewBox="0 0 553 574" style="enable-background:new 0 0 553 574;" xml:space="preserve">
<style type="text/css">
	.st0{fill:#3D2C23;}
	.st1{fill:#4C3327;}
	.st2{fill:#010201;}
	.st3{fill:#4C6AA0;}
	.st4{fill:#132747;}
</style>
<g>
	<g>
		<g>
			<path class="st0" d="M261.7,109.6c3.6,0,5.3,5.2,1.1,5.8c-10.5-0.2-24-4.4-32.6,3.5C235.3,106.9,250.7,107.7,261.7,109.6z"/>
			<g>
				<path class="st0" d="M261.7,109.6c0.8,0,1.5,0.2,2.2,0.7c0.6,0.5,1.1,1.1,1.3,1.9c0.2,0.7,0.1,1.6-0.4,2.2
					c-0.5,0.6-1.3,0.9-2,1.1l0,0h0c-5.6-0.1-11.2-1.1-16.9-1.1c-2.8,0-5.6,0.2-8.3,0.9c-2.7,0.7-5.2,2-7.2,3.9l-1.2,1.1l0.6-1.5
					c1.2-2.8,3.1-5.3,5.7-7c2.5-1.7,5.5-2.6,8.4-3.1c3-0.5,6-0.5,8.9-0.3C255.9,108.7,258.8,109.1,261.7,109.6z M261.7,109.6
					c-5.8-1-11.9-1.6-17.7-0.5c-2.9,0.5-5.7,1.5-8.1,3.2c-2.4,1.7-4.2,4.1-5.3,6.8l-0.6-0.4l1.7-1.4l1.8-1.1l2-0.9
					c0.7-0.2,1.4-0.5,2.1-0.7c2.8-0.7,5.7-0.9,8.5-0.8c2.8,0.1,5.6,0.4,8.4,0.7c2.8,0.3,5.6,0.7,8.4,0.8l0,0c0.7-0.1,1.5-0.4,2-1
					c0.5-0.6,0.6-1.4,0.4-2.2c-0.2-0.7-0.7-1.4-1.3-1.9C263.3,109.9,262.5,109.6,261.7,109.6z"/>
			</g>
		</g>
		<g>
			<path class="st0" d="M291.3,108.9c-3.6,0-5.3,5.2-1.1,5.8c10.5-0.2,24-4.4,32.6,3.5C317.7,106.2,302.3,107,291.3,108.9z"/>
			<g>
				<path class="st0" d="M291.3,108.9c-0.8,0-1.5,0.3-2.2,0.7c-0.6,0.5-1.1,1.1-1.3,1.9c-0.2,0.7-0.1,1.6,0.4,2.2
					c0.5,0.6,1.2,0.9,2,1l0,0c2.8-0.1,5.6-0.5,8.4-0.8c2.8-0.3,5.6-0.7,8.4-0.7c2.8-0.1,5.7,0.1,8.5,0.8c0.7,0.2,1.4,0.4,2.1,0.7
					l2,0.9l1.8,1.1l1.7,1.4l-0.6,0.4c-1.1-2.7-3-5.1-5.3-6.8c-2.4-1.7-5.2-2.7-8.1-3.2C303.1,107.4,297.1,108,291.3,108.9z
					 M291.3,108.9c2.9-0.5,5.9-0.9,8.9-1.1c3-0.2,6-0.2,8.9,0.3c2.9,0.5,5.9,1.4,8.4,3.1c2.5,1.7,4.5,4.2,5.7,7l0.6,1.5l-1.2-1.1
					c-2-1.9-4.5-3.2-7.2-3.9c-2.7-0.7-5.5-0.9-8.3-0.9c-5.6,0-11.2,1-16.9,1.1l0,0l0,0c-0.8-0.1-1.5-0.4-2-1.1
					c-0.5-0.6-0.6-1.5-0.4-2.2c0.2-0.7,0.7-1.4,1.3-1.9C289.7,109.2,290.5,108.9,291.3,108.9z"/>
			</g>
		</g>
		<g>
			<path class="st0" d="M258,122.2c-6-4.1-14-2-19.6,1.8c-0.6-0.9-1.9-1.3-2-2.6c-0.1,1.1,0.1,2.5,1.1,3.2c-0.1,0.1-0.3,0.2-0.4,0.2
				c-1.1-0.7-2.3-1.4-2.6-2.8c-0.1,1.3,0.1,2.7,1.2,3.5c-0.3,0.1-0.5,0.2-0.8,0.3c-1.1-0.6-2.2-1.4-2.5-2.7c-0.1,1.4,0.2,3,1.5,3.7
				c0.7,6.9,3.8,13.9,10.8,16.1c-22.5-14.6,7.8-33.2,18.3-13.4C262.4,126.7,260.3,123.7,258,122.2z"/>
			<path class="st0" d="M320.9,122.9c-0.3,1.3-1.4,2.1-2.5,2.7c-0.3-0.1-0.5-0.2-0.8-0.3c1.1-0.8,1.3-2.3,1.2-3.5
				c-0.3,1.4-1.5,2.2-2.6,2.8c-0.1-0.1-0.3-0.2-0.4-0.2c1-0.7,1.2-2,1.1-3.2c-0.1,1.4-1.4,1.8-2,2.6c-7.6-5.9-21.8-6-24.5,5
				c10.8-19.5,40.6-0.5,18.2,13.9c7.1-2.2,10.2-9.3,10.9-16.2C320.7,126,321,124.3,320.9,122.9z"/>
		</g>
	</g>
	<g>
		<path class="st1" d="M295.5,75.7c-0.9,9.8-13.1,7.5-20,8.5c-7.5,1.4-13.8,7.3-22.1,4.7c-0.7,2.5-3.7,3.3-5.9,4.6
			c-9.7,5.5-12.4,22.4-23.3,26.8c3.5,6.2,4.6,10.2,4.2,16.4c-0.4,7.5,4.9,14.2,0.7,21.7c-0.5-5.2-0.7-23.8-9.3-26.5
			c-6.5-2,0.9,29.3,3.2,35.7c6.2,17.4,8.6,12.3,10.2,20.6c1.7,8.6,1.3,17-5.2,22.8c-5.3,4.7-14,20.8-14.7,29
			c-4.2,13.8-18.7,7.6-23.8,20.8c23.5-40.7-4.4-52.3-2.7-89.5c-4.1,9-5.9,19-5.1,28.8c-9.8-27.1-14.9-34-5.8-62.7
			c-2.7-18-16.2-34.9-9-54.2c9-43,67.1-84.4,93.7-31.9c1.6-0.5,3.3-0.3,5.1,0.4c6.8-21.4,31-5.2,43.4,1.8
			c11.5,3,19.4,10.8,21.6,22.5c17.9,15.2,14.9,54.3,10.4,59.8c-3.5,4.3-7.4,4.5-8.5,6.5C332.2,107,291,109.4,295.5,75.7z"/>
		<g>
			<path class="st2" d="M295.5,75.7c-0.2,1.9-0.9,3.9-2.4,5.2c-1.5,1.3-3.4,2-5.3,2.4c-3.9,0.7-7.8,0.5-11.7,0.9
				c-3.9,0.6-7.4,2.5-11.1,3.8c-1.8,0.7-3.7,1.3-5.7,1.5c-2,0.2-4,0-5.8-0.6l0.1-0.1c-0.2,0.9-0.8,1.7-1.6,2.2
				c-0.7,0.6-1.5,1-2.4,1.4c-1.7,0.8-3.2,1.7-4.6,2.9c-2.7,2.4-4.7,5.5-6.6,8.6c-1.9,3.1-3.7,6.3-5.8,9.3c-1.1,1.5-2.3,2.9-3.7,4.1
				c-1.4,1.2-2.9,2.2-4.6,2.9l0.1-0.2c1.6,2.9,3.1,5.9,3.8,9.1c0.4,1.6,0.5,3.3,0.5,4.9c0,0.8,0,1.7-0.1,2.5c0,0.8,0,1.6,0.1,2.4
				c0.3,3.3,1.4,6.4,2,9.7c0.3,1.6,0.4,3.3,0.2,5c-0.2,1.7-0.8,3.3-1.6,4.7L229,159l0-0.7c-0.4-6.1-0.8-12.4-2.7-18.2
				c-0.5-1.4-1.1-2.9-1.9-4.2c-0.8-1.3-1.8-2.5-3.1-3.2c-0.3-0.2-0.7-0.4-1-0.5c-0.4-0.1-0.7-0.3-1-0.2c-0.7,0-1.1,0.7-1.4,1.4
				c-0.5,1.4-0.5,3-0.5,4.5c0.1,3.1,0.5,6.1,1,9.2c0.5,3,1.1,6.1,1.8,9.1c0.7,3,1.4,6,2.3,9c0.4,1.5,0.9,2.9,1.5,4.4
				c0.5,1.4,1.1,2.9,1.7,4.3c1.2,2.8,2.7,5.5,4.7,7.9c1,1.1,2,2.5,2.4,4c0.5,1.5,0.8,3,1,4.6c0.5,3.1,0.7,6.2,0.3,9.3
				c-0.4,3.1-1.4,6.1-3.2,8.7c-0.9,1.3-2,2.4-3.1,3.4c-1.1,1.1-2.1,2.3-3,3.5c-1.8,2.5-3.4,5.1-4.9,7.8c-1.5,2.7-2.8,5.5-3.9,8.3
				c-1.1,2.9-2.1,5.8-2.4,8.8l0,0l0,0c-0.8,2.6-2.2,5.2-4.4,7c-2.1,1.8-4.8,2.9-7.3,3.8c-2.6,1-5.1,1.9-7.3,3.6
				c-2.2,1.6-3.8,3.9-4.7,6.4l-0.5-0.2c1.9-3.4,3.7-6.8,5.2-10.4c1.5-3.6,2.6-7.3,3.4-11c0.7-3.8,1-7.6,0.8-11.5
				c-0.2-3.8-1-7.6-2.1-11.3c-2.1-7.4-5.2-14.6-7.2-22.1c-2.1-7.5-3.1-15.3-2.8-23.1l0.6,0.2c-4.1,8.9-5.9,18.9-5.1,28.7l0.2,2.5
				l-0.9-2.4l-5.6-15.2c-1.8-5.1-3.6-10.3-4.4-15.7c-0.9-5.4-0.7-10.9,0.2-16.3c0.9-5.4,2.3-10.6,4-15.8l0,0.2
				c-0.7-4.6-2.1-9-3.6-13.4c-1.5-4.4-3.2-8.8-4.6-13.2c-1.4-4.5-2.5-9.1-2.8-13.8c-0.3-4.7,0.4-9.5,2.1-13.9l0,0
				c2.3-10.9,7.4-21,14.1-29.7c6.7-8.8,15.1-16.4,24.9-21.5c4.9-2.5,10.2-4.4,15.7-5.1c5.5-0.8,11.2-0.3,16.4,1.6
				c5.2,1.9,9.9,5.2,13.7,9.2c3.9,4,6.9,8.7,9.4,13.6l-0.3-0.1c1.8-0.5,3.7-0.3,5.3,0.4l-0.3,0.2c0.7-2.1,1.6-4.1,2.9-5.8
				c1.3-1.8,3.1-3.2,5.1-4c2-0.8,4.2-1.1,6.4-1c2.2,0.1,4.3,0.5,6.4,1.1c4.1,1.2,8.1,3,11.8,5c3.8,2,7.5,4.2,11.2,6.3l-0.1,0
				c5.4,1.4,10.5,4,14.4,8c1.9,2,3.6,4.3,4.8,6.8c1.2,2.5,2.1,5.2,2.6,7.9l-0.1-0.1c4.8,4.1,8,9.8,10,15.6
				c2.1,5.9,3.2,12.1,3.6,18.3c0.4,6.2,0.3,12.5-0.8,18.7c-0.3,1.5-0.6,3.1-1.1,4.6c-0.2,0.7-0.5,1.5-0.9,2.2
				c-0.4,0.7-0.9,1.3-1.5,1.8c-1.1,1.1-2.4,2-3.8,2.8c-0.7,0.4-1.4,0.7-2.1,1.1c-0.7,0.4-1.3,0.8-1.7,1.5l-0.2,0.4l0-0.5
				c-0.1-3.3-0.4-6.7-1.3-9.9c-0.9-3.2-2.3-6.3-4.1-9.1c-3.6-5.6-8.8-10-13.9-14.2c-2.6-2.1-5.2-4.2-7.6-6.6
				c-2.4-2.3-4.7-4.8-6.4-7.7c-1.8-2.8-3-6-3.5-9.3C295,82.4,295.1,79,295.5,75.7z M295.5,75.7c-0.4,3.3-0.5,6.7,0.1,10
				c0.6,3.3,1.8,6.5,3.5,9.3c1.7,2.8,4,5.3,6.4,7.6c2.4,2.3,5,4.4,7.6,6.5c5.1,4.2,10.3,8.6,14,14.2c1.8,2.8,3.2,5.9,4.2,9.1
				c0.9,3.2,1.3,6.6,1.4,9.9l-0.2-0.1c0.4-0.7,1.1-1.2,1.8-1.6c0.7-0.4,1.4-0.7,2.1-1.1c1.4-0.7,2.6-1.6,3.7-2.7
				c0.5-0.6,1.1-1.1,1.4-1.8c0.4-0.7,0.6-1.4,0.9-2.1c0.5-1.5,0.8-3,1.1-4.5c1-6.1,1.1-12.4,0.7-18.6c-0.5-6.2-1.5-12.4-3.6-18.2
				c-2.1-5.8-5.2-11.4-9.9-15.4l-0.1,0l0-0.1c-1-5.4-3.4-10.6-7.3-14.5c-3.8-3.9-8.9-6.5-14.2-7.9l0,0l0,0
				c-3.7-2.1-7.4-4.3-11.2-6.3c-3.8-2-7.7-3.8-11.8-5c-2-0.6-4.1-1-6.3-1.1c-2.1-0.1-4.2,0.2-6.2,1c-1.9,0.8-3.6,2.2-4.9,3.9
				c-1.3,1.7-2.1,3.7-2.8,5.7l-0.1,0.3l-0.3-0.1c-1.6-0.6-3.3-0.9-5-0.4l-0.2,0.1l-0.1-0.2c-2.5-4.9-5.5-9.5-9.3-13.5
				c-3.8-3.9-8.4-7.2-13.5-9c-5.1-1.8-10.7-2.3-16.1-1.6c-5.4,0.7-10.7,2.6-15.5,5.1c-9.7,5.1-18,12.6-24.7,21.3
				c-6.6,8.7-11.7,18.8-14,29.5l0,0l0,0c-1.6,4.3-2.3,9-2,13.6c0.3,4.6,1.4,9.2,2.8,13.6c1.4,4.4,3.1,8.8,4.6,13.2
				c1.5,4.4,2.9,8.9,3.6,13.6l0,0.1l0,0.1c-1.6,5.2-3.1,10.4-3.9,15.7c-0.9,5.3-1.1,10.7-0.2,16c0.8,5.3,2.5,10.5,4.4,15.5l5.6,15.2
				l-0.7,0.1c-0.8-9.9,1-20,5.2-29l0.7-1.6l-0.1,1.7c-0.4,7.7,0.6,15.4,2.7,22.9c2,7.5,5.1,14.6,7.2,22.1c1.1,3.7,1.8,7.6,2.1,11.5
				c0.2,3.9,0,7.8-0.8,11.6c-0.8,3.8-2,7.5-3.4,11.1c-1.5,3.6-3.3,7-5.2,10.4l-0.5-0.2c1-2.6,2.7-5,4.9-6.6c2.2-1.7,4.9-2.7,7.4-3.6
				c2.6-1,5.1-2,7.2-3.7c2.1-1.7,3.5-4.2,4.2-6.7l0,0.1c0.3-3.1,1.3-6.1,2.5-9c1.1-2.9,2.5-5.7,4-8.4c1.5-2.7,3.1-5.4,4.9-7.9
				c0.9-1.2,1.9-2.5,3-3.5c1.2-1,2.2-2.1,3.1-3.4c1.8-2.5,2.8-5.5,3.1-8.5c0.4-3,0.2-6.1-0.3-9.2c-0.2-1.5-0.5-3-1-4.5
				c-0.5-1.5-1.3-2.7-2.4-3.8c-2-2.4-3.5-5.2-4.7-8c-0.6-1.4-1.2-2.8-1.7-4.3c-0.6-1.4-1.1-2.9-1.5-4.4c-0.9-3-1.6-6-2.3-9
				c-0.7-3-1.3-6-1.8-9.1c-0.5-3-0.9-6.1-1-9.2c0-1.5,0-3.1,0.5-4.7c0.1-0.4,0.3-0.8,0.6-1.1c0.3-0.3,0.7-0.6,1.1-0.6
				c0.4,0,0.8,0.1,1.2,0.3c0.4,0.1,0.7,0.3,1.1,0.5c1.4,0.8,2.4,2,3.2,3.4c0.8,1.3,1.4,2.8,1.9,4.2c1.9,5.9,2.3,12.2,2.7,18.3
				l-0.4-0.1c0.8-1.4,1.3-3,1.5-4.6c0.2-1.6,0.1-3.3-0.2-4.9c-0.6-3.2-1.7-6.4-2-9.7c-0.1-0.8-0.1-1.7-0.1-2.5
				c0.1-0.8,0.1-1.6,0.1-2.5c0-1.6-0.1-3.3-0.5-4.9c-0.7-3.2-2.1-6.2-3.7-9.1l-0.1-0.1l0.1-0.1c1.7-0.7,3.2-1.7,4.6-2.9
				c1.4-1.2,2.5-2.6,3.6-4c2.2-2.9,3.9-6.1,5.8-9.2c1.9-3.1,3.9-6.2,6.7-8.7c1.4-1.2,3-2.1,4.6-2.9c0.8-0.4,1.6-0.8,2.3-1.4
				c0.7-0.6,1.3-1.3,1.5-2.2l0-0.1l0.1,0c1.9,0.6,3.8,0.8,5.8,0.6c1.9-0.2,3.8-0.8,5.7-1.5c3.7-1.4,7.2-3.3,11.1-3.8
				c3.9-0.4,7.9-0.1,11.7-0.8c1.9-0.4,3.8-1,5.3-2.3C294.6,79.6,295.4,77.6,295.5,75.7z"/>
		</g>
	</g>
	<g>
		<path class="st2" d="M229.8,60.6l-3.9,3.3c-1.3,1.1-2.4,2.4-3.6,3.6c-0.6,0.6-1.2,1.3-1.7,1.9l-1.6,2c-0.3,0.3-0.6,0.6-0.8,1
			l-0.7,1.1l-1.4,2.1c-3.7,5.7-6.4,12.1-7.8,18.8c-1.5,6.7-1.8,13.6-1.1,20.4l0.7,5.1l1.1,5l1.4,5l1.7,4.9l-1.8-4.8l-1.5-4.9l-1.2-5
			l-0.8-5.1c-0.8-6.9-0.5-13.8,0.9-20.6c1.5-6.7,4.2-13.2,8.1-19l1.5-2.1l0.8-1.1c0.3-0.3,0.6-0.7,0.8-1l1.7-2
			c0.6-0.6,1.1-1.3,1.8-1.9c1.3-1.2,2.5-2.4,3.8-3.5L229.8,60.6z"/>
	</g>
	<g>
		<path class="st2" d="M269.4,73.2c-0.4,1.9-1.1,3.7-2,5.4c-0.9,1.7-2.1,3.2-3.5,4.6c-1.4,1.4-2.9,2.6-4.6,3.5
			c-1.7,0.9-3.5,1.6-5.4,2c1.8-0.7,3.5-1.5,5.1-2.5c1.6-1,3.1-2.2,4.4-3.5c1.3-1.3,2.5-2.8,3.5-4.4C267.9,76.8,268.7,75,269.4,73.2z
			"/>
	</g>
	<g>
		<path class="st2" d="M224.2,119.7c1.8-2.8,3-5.9,3.7-9.1c0.6-3.2,0.8-6.5,0.9-9.8c0.1-3.3,0.1-6.6,0.6-10c0.1-0.8,0.3-1.6,0.5-2.5
			c0.2-0.8,0.5-1.6,0.7-2.4c0.3-0.8,0.7-1.5,1-2.3c0.4-0.7,0.9-1.4,1.3-2.1c-1.7,2.9-2.5,6.1-2.9,9.4c-0.4,3.3-0.4,6.6-0.4,9.9
			c-0.1,3.3-0.3,6.7-1.1,9.9c-0.2,0.8-0.4,1.6-0.7,2.4c-0.3,0.8-0.5,1.6-0.9,2.3c-0.4,0.7-0.7,1.5-1.2,2.2L224.2,119.7z"/>
	</g>
	<g>
		<path class="st2" d="M218.7,127.5c-1.8-2.4-3.3-5-4.5-7.8c-1.2-2.8-1.9-5.7-2.4-8.7c-0.4-3-0.5-6-0.2-9c0.3-3,0.8-5.9,1.6-8.8
			c-0.5,2.9-0.9,5.9-1,8.9c-0.1,3-0.1,5.9,0.4,8.9c0.4,2.9,1.1,5.8,2.2,8.6C215.8,122.2,217.1,124.9,218.7,127.5z"/>
	</g>
	<g>
		<path class="st2" d="M265.2,51.7c1.5,0.4,3,1,4.4,1.8c1.4,0.7,2.7,1.6,4,2.6c1.2,1,2.4,2.1,3.5,3.2c1.1,1.2,2,2.4,2.8,3.8
			c-1-1.2-2.1-2.3-3.2-3.4c-1.1-1.1-2.3-2.1-3.5-3c-1.2-1-2.5-1.8-3.8-2.7C268,53.2,266.6,52.4,265.2,51.7z"/>
	</g>
	<g>
		<path class="st2" d="M174.7,96.2c-1.4,3.3-1.9,7-1.6,10.6c0.3,3.6,1.2,7.1,2.3,10.5c1.1,3.4,2.4,6.8,3.5,10.3
			c1.1,3.4,2.1,7,2.5,10.6c0.6,7.3-0.7,14.5-1.3,21.7c-0.3,3.6-0.5,7.2-0.1,10.8c0.4,3.6,1.3,7.1,3,10.3c-1.8-3.1-2.9-6.7-3.4-10.3
			c-0.5-3.6-0.4-7.3-0.1-10.9c0.5-7.2,1.8-14.4,1.1-21.6c-0.6-7.2-3.7-13.9-5.8-20.8c-1-3.5-1.9-7-2.1-10.7
			C172.5,103.1,173.1,99.4,174.7,96.2z"/>
	</g>
	<g>
		<path class="st2" d="M186.2,173.5c0.7-3.2,1.4-6.5,1.9-9.7c0.5-3.3,1-6.5,1.3-9.8c0.4-3.3,0.6-6.6,0.7-9.9
			c0.1-3.3,0.1-6.6,0.1-9.9c0.4,3.3,0.5,6.6,0.5,9.9c0,3.3-0.2,6.6-0.5,9.9c-0.4,3.3-0.8,6.6-1.5,9.8
			C188,167.2,187.2,170.4,186.2,173.5z"/>
	</g>
	<g>
		<path class="st2" d="M220.5,220.4c0.4-3.3,0.6-6.6,0.6-9.9c0-3.3-0.2-6.6-0.6-9.9c-0.4-3.3-1.1-6.5-1.9-9.7
			c-0.8-3.2-1.8-6.4-2.9-9.5c1.3,3,2.5,6.2,3.4,9.4c1,3.2,1.7,6.5,2.1,9.8c0.4,3.3,0.6,6.6,0.5,10
			C221.6,213.9,221.2,217.2,220.5,220.4z"/>
	</g>
	<g>
		<path class="st2" d="M305.5,83.2c1.5,5,4.4,9.3,7.7,13.3c3.3,4,6.9,7.7,10.4,11.5c3.4,3.9,6.8,7.9,9.1,12.6c1.1,2.3,2,4.8,2.4,7.4
			c0.4,2.6,0.4,5.2,0.1,7.8c0.5-5.2-0.6-10.4-3-14.9c-2.4-4.6-5.7-8.6-9.2-12.4c-3.4-3.9-7.1-7.6-10.3-11.7
			c-1.6-2.1-3.1-4.2-4.3-6.5C307.1,88.1,306.1,85.7,305.5,83.2z"/>
	</g>
	<g>
		<path class="st1" d="M339.8,153.9c1.9,10.6-9.2,20.5-5.8,31.2c-4.6-9.1,0.5-25.2-3.3-34.7C333.7,151,337.4,155.1,339.8,153.9z"/>
		<g>
			<path class="st2" d="M339.8,153.9c0.5,2.7,0.2,5.4-0.4,8c-0.7,2.6-1.7,5.1-2.7,7.6c-1,2.5-2,5-2.5,7.6c-0.6,2.6-0.6,5.3,0.3,7.8
				l-0.7,0.3c-1.4-2.7-1.8-5.7-2-8.6c-0.2-3-0.1-5.9,0-8.8c0.1-2.9,0.2-5.9,0.2-8.8c-0.1-2.9-0.4-5.8-1.4-8.6l-0.1-0.3l0.3,0.1
				c0.8,0.2,1.6,0.6,2.3,1c0.7,0.4,1.4,0.9,2.1,1.4c0.7,0.4,1.4,0.9,2.2,1.2C338.1,154.1,339,154.3,339.8,153.9z M339.8,153.9
				c-0.8,0.4-1.7,0.3-2.4,0c-0.8-0.3-1.5-0.7-2.3-1.1c-0.7-0.4-1.4-0.9-2.2-1.3c-0.7-0.4-1.5-0.8-2.3-0.9l0.2-0.2
				c1.1,2.8,1.5,5.7,1.6,8.7c0.1,2.9,0,5.9-0.1,8.8c-0.1,2.9-0.2,5.9,0,8.8c0.2,2.9,0.7,5.8,1.9,8.4l-0.7,0.3
				c-0.9-2.6-0.8-5.5-0.2-8.2c0.6-2.7,1.6-5.2,2.7-7.7c1.1-2.5,2.1-4.9,2.9-7.5C339.8,159.2,340.2,156.5,339.8,153.9z"/>
		</g>
	</g>
	<g>
		<path class="st3" d="M257.4,45c7.6,1.3,3.8,9.4-2.8,7.3c-9.4-1.8-16.7,5.5-24.5,7.7C222.1,49.7,250.5,44.4,257.4,45z"/>
		<path class="st4" d="M257.4,45c1.2,0.3,2.5,0.7,3.4,1.6c0.9,0.9,1.1,2.4,0.5,3.5c-0.6,1.1-1.7,1.9-2.9,2.3
			c-1.2,0.4-2.5,0.3-3.8-0.1l0,0c-2.1-0.4-4.3-0.3-6.4,0.1c-2.1,0.5-4.1,1.3-6.1,2.2c-2,0.9-3.9,2-5.8,3c-1.9,1-3.9,1.9-6.1,2.5
			c-0.1,0-0.2,0-0.3-0.1c-1-1.2-1.7-2.8-1.4-4.4c0.3-1.6,1.4-2.9,2.6-3.8c2.5-1.9,5.4-3,8.3-4c2.9-0.9,5.9-1.6,8.9-2.1
			C251.3,45.2,254.4,44.8,257.4,45z M257.4,45c-3.1-0.2-6.1,0.3-9.1,0.8c-3,0.5-6,1.3-8.8,2.3c-2.9,1-5.7,2.2-8.1,4.1
			c-1.1,1-2.2,2.1-2.4,3.6c-0.2,1.4,0.4,2.9,1.3,4l-0.3-0.1c4.1-1.2,7.9-3.6,11.8-5.4c2-0.9,4-1.7,6.2-2.1c2.1-0.4,4.4-0.5,6.5,0
			l0,0c1.2,0.4,2.5,0.5,3.7,0.1c1.2-0.3,2.3-1.1,2.9-2.2c0.6-1.1,0.4-2.6-0.4-3.5C259.9,45.7,258.7,45.2,257.4,45z"/>
	</g>
</g>
</svg>
