<?xml version="1.0" encoding="utf-8"?>
<!-- Generator: Adobe Illustrator 24.2.3, SVG Export Plug-In . SVG Version: 6.00 Build 0)  -->
<svg version="1.1" id="tenue_x5F_feminine_x5F_7" xmlns="http://www.w3.org/2000/svg" xmlns:xlink="http://www.w3.org/1999/xlink"
	 x="0px" y="0px" viewBox="0 0 553 574" style="enable-background:new 0 0 553 574;" xml:space="preserve">
<style type="text/css">
	.st0{fill:none;}
	.st1{fill:#233C44;stroke:#2B5769;stroke-width:0.5;stroke-miterlimit:10;}
	.st2{fill:#2B5769;}
	.st3{fill:#234A56;}
	.st4{fill:#BFBABA;}
	.st5{fill:#A09D9D;}
	.st6{fill:#7A7777;}
	.st7{fill:#848484;}
	.st8{fill:#666566;}
	.st9{fill:none;stroke:#000000;stroke-width:0.5;stroke-miterlimit:10;}
	.st10{fill:#6D6C6D;}
	.st11{fill:#233C44;}
	.st12{fill:#FFFFFF;}
	.st13{fill:#C6C8CA;}
</style>
<g id="cadre_8_">
	<rect x="0" class="st0" width="553" height="574"/>
</g>
<g>
	<path class="st1" d="M288.9,216.3c4.3,1.5,10.3-0.7,13,3c0.8,1,1,2.3,1.3,3.6c4.5,21.7,9,43.5,13.4,65.2c1.9,9,3.7,18,5,27.2
		c1.8,12.1,2.7,24.8,8.5,35.5c0.5,1,1.1,2,0.9,3.1c-0.3,1.6-2.1,2.4-3.7,2.9c-8.6,2.4-17.7,3.1-26.6,2c-5.8-0.7-11.5-2.2-17.3-2.3
		c-13.3-0.1-26.2,7.3-39.4,5.5c-3.6-0.5-7.2-1.7-10.9-1.6c-3.7,0-8.4,1-10.5-2.1c0.8-4.9,1.6-9.8,2.4-14.8c1.6-10,3.3-20,3.6-30.2
		c0.2-5.6,0-11.2-0.2-16.7c-0.5-12.1-1.1-24.2,0.6-36.1c1.1-7.5,3.1-14.9,4-22.5c1.1-8.8,1-18.5,6.7-25.4c0.7-0.9,1.6-1.8,2.8-1.9
		c1.4-0.2,2.7,0.6,3.8,1.3C259.3,220.1,276,221.8,288.9,216.3z"/>
	<g>
		<path class="st2" d="M251.8,210c4.5,2.4,9.5,3.8,14.6,4.1c2.1,0.1,4.3,0,6.4-0.1c5.2-0.2,10.4-0.4,15.5-0.6
			c0.3,1.8,0.3,3.7-0.1,5.5c-11.5,1.3-23.4,2-34.3-1.8c-0.5-0.2-1-0.4-1.4-0.8c-0.4-0.4-0.6-1-0.8-1.6
			C251.4,213.3,251.4,211.7,251.8,210z"/>
		<g>
			<path class="st3" d="M251.8,210c2.8,1.4,5.7,2.5,8.7,3.2c3,0.7,6.1,0.9,9.2,0.8c3.1-0.1,6.2-0.3,9.3-0.4l9.3-0.4l0.2,0l0,0.2
				c0.3,1.9,0.3,3.8-0.1,5.6l0,0.2l-0.2,0c-7.1,0.8-14.3,1.3-21.4,0.7c-3.6-0.3-7.1-0.9-10.6-1.9c-0.9-0.3-1.7-0.6-2.6-0.8
				c-0.4-0.2-0.8-0.3-1.2-0.7c-0.3-0.3-0.6-0.7-0.7-1.2C251.4,213.6,251.4,211.8,251.8,210z M251.8,210c-0.4,1.7-0.3,3.6,0.2,5.3
				c0.1,0.4,0.4,0.8,0.7,1.1c0.3,0.3,0.7,0.5,1.2,0.6c0.9,0.3,1.7,0.5,2.6,0.8c3.4,1,7,1.5,10.5,1.8c7.1,0.5,14.3-0.1,21.4-0.9
				l-0.2,0.2c0.4-1.8,0.4-3.6,0.1-5.4l0.2,0.2l-9.3,0.3c-3.1,0.1-6.2,0.2-9.3,0.3c-3.1,0.1-6.3-0.2-9.3-0.9
				C257.5,212.7,254.5,211.5,251.8,210z"/>
		</g>
	</g>
	<g>
		<path class="st4" d="M322.5,331.3c7.7,11.8,7.4,26.9,6.9,41c-0.2,6.4-0.5,12.7-1.3,19c-0.3,2.4-0.7,4.8-0.7,7.2
			c0,2.1,0.3,4.2,0.4,6.3c0.5,12.6-7.7,24.5-6.3,37c0.2,2,0.7,4.1,0.6,6.1c-0.2,3.2-1.7,6.2-2.6,9.3c-1.9,6.9-0.1,14.7-3,21.3
			c-0.4,0.9-0.9,1.8-1,2.7c-0.2,2.4,1.9,5.1,0.4,6.9c-1,1.2-2.9,1-4,2.1c-1.6,1.5-0.4,4.2-0.3,6.4c0.1,3.6-3.1,6.4-6,8.5
			c-2.1,1.6-4.2,3.2-6.8,3.6c-2.6,0.4-5.6-0.8-6-3.6c-4.6-6.1-2.8-15.2-6.9-21.6c-1.2-2-3.1-4.3-1.9-6.3c0.8-1.4,3-2.5,2.5-4
			c-0.5-1.4-3.2-1.5-3.2-3.1c0-1.2,1.8-1.6,2.3-2.8c0.6-1.5-1.5-2.7-2-4.2c-1-2.8,3.3-5.7,1.9-8.4c-0.3-0.7-1-1.1-1.4-1.7
			c-1-1.3-0.9-3-0.9-4.5c0.4-13.3-0.5-26.7-2.6-39.8c-0.3-2.1-0.7-4.3,0-6.2c0.3-0.9,0.8-1.8,0.8-2.7c-0.1-1.6-1.9-2.5-3-3.7
			c-3.4-3.6-0.5-10-3.1-14.2c-0.2-0.4-0.5-0.7-0.9-0.9c-1.3-0.4-1.9,1.5-1.9,2.9c0.4,15.1-5.7,30.1-3.4,45c0.6,4,1.8,7.9,1.7,11.9
			c-0.1,3.6-1.3,7-1.8,10.6c-0.5,3.5-0.1,7.5,2.4,10.1c-1.6,1.4-3.7,2.3-5.9,2.3c-0.9,1.6,2.2,3,2,4.8c-0.1,1.1-1.4,1.8-1.4,2.8
			c0,1.7,2.7,1.7,3.6,3.2c0.8,1.2-0.2,2.8-1,4c-1.9,3-2.5,6.8-1.8,10.3c0.2,1.1,0.6,2.3,0.4,3.4c-0.4,1.9-2.4,3.1-3.3,4.8
			c-0.8,1.6-0.9,3.6-2.1,4.8c-1,1-2.5,1.2-3.9,1.3c-5.6,0.4-11.2,0.2-16.8-0.5c0.5-1.9,0-4.1-1.2-5.7c-0.7-0.9-1.6-1.6-2.2-2.6
			c-0.6-1-0.9-2.1-1.1-3.2c-1-5-1.2-10.1-0.6-15.1c0.1-1,0.3-2,0-2.9c-0.5-1.6-2.4-2.6-2.4-4.3c0-1.7,2-3,1.7-4.7
			c-0.2-1.7-2.5-2.6-2.7-4.3c-0.1-1.6,1.7-2.7,2-4.3c0.3-1.9-1.6-3.2-2.6-4.8c-0.8-1.3-1-2.9-1.2-4.5c-0.8-7-1.5-13.9-2.3-20.9
			c-0.3-2.3-0.5-4.7-1.2-6.9c-0.7-2-1.7-3.9-2.5-5.8c-2.8-6.8-2.8-14.4-2.8-21.7c0-10.9,0-21.8,0.1-32.8c0-8,0.2-16.4,4.3-23.3
			c31,5.6,62.9,1,94-3.7c0.4-0.1,0.9-0.2,1-0.6C321.4,330.5,320.6,330.3,322.5,331.3z"/>
		<path class="st5" d="M322.5,331.3c2.2,3.5,3.8,7.3,4.9,11.3c1.1,4,1.7,8.1,2,12.2c0.6,8.2,0.1,16.5-0.3,24.7
			c-0.2,4.1-0.5,8.2-1.1,12.3c-0.3,2-0.6,4.1-0.7,6.1c-0.1,2.1,0.3,4.1,0.4,6.2c0.3,4.1-0.4,8.2-1.4,12.2c-1,4-2.3,7.9-3.4,11.9
			c-1,4-1.8,8.1-1.6,12.2c0,2.1,0.6,4.1,0.7,6.1c0.2,2.1-0.3,4.1-1,6.1c-0.7,2-1.4,3.9-1.8,5.9c-0.4,2-0.6,4.1-0.7,6.1
			c-0.2,4.1-0.1,8.3-1.4,12.3c-0.3,1-0.7,1.9-1.2,2.9c-0.2,0.5-0.4,1-0.4,1.5c0,0.5,0,1,0.1,1.5c0.2,1,0.6,2,0.8,3
			c0.1,0.5,0.1,1.1,0,1.6c-0.1,0.5-0.4,1-0.9,1.3c-0.9,0.7-1.9,0.8-2.8,1.2c-0.9,0.4-1.5,1.3-1.6,2.3c-0.1,2,0.9,4.1,0.3,6.1
			c-0.5,2.1-2,3.7-3.5,5.1c-1.6,1.4-3.2,2.6-4.9,3.7c-1.7,1.1-3.7,2-5.9,1.8c-1-0.1-2.1-0.4-2.9-1.1c-0.9-0.6-1.4-1.6-1.6-2.7l0,0.1
			c-1.4-1.8-2.2-4-2.7-6.2c-0.6-2.2-0.9-4.4-1.3-6.7c-0.4-2.2-0.9-4.4-1.7-6.5c-0.4-1-1-2-1.6-2.9c-0.6-0.9-1.3-1.9-1.6-3
			c-0.2-0.5-0.3-1.1-0.2-1.7c0.1-0.6,0.3-1.1,0.7-1.6c0.7-0.9,1.7-1.5,2.1-2.5c0.2-0.5,0-1-0.4-1.4c-0.4-0.4-0.9-0.6-1.4-0.9
			c-0.5-0.3-1.1-0.6-1.3-1.2c-0.3-0.6,0.1-1.3,0.5-1.7c0.4-0.4,0.9-0.7,1.3-1.1c0.4-0.4,0.6-0.9,0.4-1.4c-0.3-1-1.3-1.7-1.9-2.8
			c-0.3-0.5-0.4-1.1-0.4-1.7c0-0.6,0.3-1.1,0.5-1.7c0.5-1,1.1-2,1.5-3c0.2-0.5,0.3-1,0.3-1.6c0-0.5-0.3-1-0.7-1.4
			c-0.4-0.4-0.8-0.8-1.1-1.3c-0.3-0.5-0.5-1.1-0.6-1.6c-0.2-1.1-0.2-2.3-0.1-3.4l0.1-3.4c0-4.5-0.1-9-0.3-13.5
			c-0.3-4.5-0.6-9-1.2-13.5c-0.3-2.2-0.6-4.5-0.9-6.7c-0.3-2.2-0.9-4.4-0.7-6.8c0.1-0.6,0.2-1.1,0.4-1.7c0.2-0.5,0.4-1.1,0.6-1.6
			c0.2-0.5,0.2-1,0-1.5c-0.2-0.5-0.5-0.9-0.9-1.3c-0.8-0.8-1.8-1.4-2.5-2.4c-0.7-1-1-2.1-1.2-3.2c-0.3-2.3-0.1-4.6-0.3-6.8
			c-0.1-1.1-0.3-2.2-0.8-3.2c-0.2-0.5-0.5-1-0.9-1.2c-0.4-0.2-0.9,0-1.2,0.5c-0.3,0.4-0.4,1-0.5,1.5c-0.1,0.5,0,1.1,0,1.7
			c0,1.1,0,2.3-0.1,3.4c-0.1,2.3-0.3,4.5-0.6,6.8c-0.6,4.5-1.4,8.9-2,13.4c-0.7,4.5-1.2,8.9-1.2,13.4c0,2.2,0.2,4.5,0.5,6.7
			c0.3,2.2,0.8,4.4,1.2,6.7c0.4,2.2,0.6,4.5,0.4,6.8c-0.2,2.3-0.8,4.5-1.2,6.7c-0.5,2.2-0.8,4.4-0.6,6.7c0.2,2.2,0.9,4.4,2.4,6
			l0.2,0.2l-0.2,0.2c-1.6,1.5-3.8,2.3-6,2.3l0.2-0.1c-0.3,0.5,0,1.1,0.4,1.6c0.4,0.5,0.9,1,1.2,1.6c0.4,0.6,0.6,1.4,0.2,2.1
			c-0.3,0.7-0.8,1.1-1.1,1.7c-0.2,0.5-0.1,1.2,0.5,1.5c0.5,0.4,1.1,0.6,1.7,1c0.6,0.3,1.2,0.8,1.5,1.5c0.2,0.7,0,1.5-0.2,2.1
			c-0.3,0.6-0.7,1.2-1,1.8c-0.3,0.6-0.6,1.2-0.9,1.8c-0.5,1.2-0.8,2.5-1,3.8c-0.2,1.3-0.1,2.6,0.1,4c0.2,1.3,0.8,2.6,0.5,4
			c-0.3,1.4-1.4,2.4-2.2,3.4c-0.4,0.5-0.9,1-1.1,1.6c-0.3,0.6-0.5,1.2-0.7,1.9c-0.2,0.6-0.4,1.3-0.7,1.9c-0.3,0.6-0.8,1.2-1.5,1.5
			c-1.3,0.7-2.7,0.7-4,0.8c-5.4,0.4-10.8,0.2-16.1-0.6l-0.2,0l0-0.2c0.4-1.7,0.1-3.6-0.9-5.1c-0.5-0.8-1.1-1.4-1.7-2.1
			c-0.6-0.7-1.1-1.5-1.4-2.4c-1-3.5-1.4-7.2-1.4-10.8c0-1.8,0.1-3.6,0.3-5.5c0.1-0.9,0.3-1.8,0.2-2.7c0-0.9-0.5-1.7-1.1-2.4
			c-0.5-0.7-1.2-1.4-1.4-2.4c-0.2-1,0.3-1.9,0.8-2.7c0.5-0.8,1-1.6,0.9-2.4c-0.1-0.9-0.7-1.5-1.4-2.2c-0.6-0.6-1.3-1.4-1.3-2.4
			c0.1-1,0.7-1.8,1.2-2.5c0.5-0.7,0.9-1.6,0.7-2.4c-0.2-0.9-0.8-1.6-1.3-2.3c-0.6-0.7-1.2-1.4-1.6-2.3c-0.4-0.8-0.6-1.8-0.7-2.7
			c-0.2-1.8-0.4-3.6-0.6-5.4l-1.2-10.8l-0.6-5.4c-0.2-1.8-0.4-3.6-0.8-5.4c-0.7-3.6-2.9-6.6-3.9-10.2c-1.1-3.5-1.6-7.1-1.8-10.8
			c-0.2-3.6-0.2-7.3-0.2-10.9l0-10.9l0.1-21.8c0-3.6,0.2-7.3,0.8-10.9c0.6-3.6,1.7-7.1,3.6-10.3l0,0l0,0c16,2.9,32.4,3.1,48.6,1.9
			c8.1-0.6,16.2-1.5,24.2-2.5c4-0.5,8.1-1.1,12.1-1.7l6-0.9l3-0.4c0.2,0,0.5-0.1,0.7-0.2c0.2-0.1,0.4-0.4,0.2-0.6c0,0,0,0,0,0
			c0,0,0,0,0,0l0.1,0.1l0.2,0.1l0.3,0.2L322.5,331.3z M322.5,331.3l-0.7-0.4l-0.3-0.2l-0.2-0.1l-0.1-0.1l0,0l0,0
			c0.2,0.2,0,0.5-0.2,0.6c-0.2,0.1-0.5,0.2-0.7,0.2l-3,0.5l-6,0.9c-4,0.6-8,1.2-12.1,1.7c-8.1,1.1-16.1,2-24.2,2.6
			c-16.2,1.2-32.6,1-48.6-1.9l0.1,0c-1.9,3.1-2.9,6.7-3.5,10.2c-0.6,3.6-0.7,7.2-0.7,10.9l0,21.8l0,10.9c0,3.6,0,7.3,0.2,10.9
			c0.2,3.6,0.7,7.2,1.8,10.7c1,3.5,3.2,6.5,3.9,10.2c0.4,1.8,0.6,3.6,0.8,5.4l0.6,5.4l1.2,10.8c0.2,1.8,0.4,3.6,0.6,5.4
			c0.1,0.9,0.3,1.8,0.7,2.6c0.4,0.8,1,1.5,1.5,2.2c0.6,0.7,1.2,1.4,1.4,2.4c0.1,0.5,0.1,1-0.1,1.4c-0.2,0.5-0.4,0.8-0.7,1.2
			c-0.5,0.7-1.1,1.5-1.2,2.3c0,0.9,0.6,1.6,1.2,2.2c0.6,0.6,1.4,1.3,1.4,2.4c0.1,1-0.5,1.8-1,2.6c-0.5,0.8-0.9,1.6-0.7,2.4
			c0.2,0.8,0.8,1.5,1.4,2.2c0.6,0.7,1.1,1.6,1.1,2.5c0.1,0.9-0.1,1.8-0.2,2.7c-0.2,1.8-0.3,3.6-0.3,5.4c0.1,3.6,0.4,7.3,1.4,10.7
			c0.3,0.9,0.7,1.6,1.4,2.3c0.6,0.7,1.3,1.3,1.8,2.1c1,1.6,1.3,3.6,0.9,5.4l-0.2-0.2c5.3,0.7,10.7,0.9,16,0.6
			c1.3-0.1,2.7-0.2,3.8-0.8c1.2-0.6,1.6-1.9,2-3.2c0.2-0.6,0.4-1.3,0.7-1.9c0.3-0.6,0.8-1.2,1.2-1.7c0.9-1,1.9-2,2.2-3.2
			c0.3-1.3-0.3-2.5-0.5-3.9c-0.2-1.3-0.3-2.7-0.1-4.1c0.2-1.4,0.5-2.7,1-3.9c0.3-0.6,0.6-1.2,0.9-1.8c0.3-0.6,0.7-1.1,1-1.7
			c0.3-0.6,0.4-1.2,0.2-1.8c-0.2-0.6-0.7-1-1.3-1.3c-0.6-0.3-1.2-0.6-1.8-1c-0.3-0.2-0.6-0.5-0.7-0.9c-0.1-0.4-0.1-0.8,0.1-1.1
			c0.3-0.7,0.8-1.1,1.1-1.7c0.3-0.5,0.1-1.2-0.2-1.7c-0.3-0.5-0.8-1-1.2-1.6c-0.2-0.3-0.4-0.6-0.5-1c-0.1-0.4-0.1-0.8,0.1-1.1
			l0.1-0.1l0.1,0c2.1,0,4.2-0.8,5.7-2.2l0,0.3c-1.6-1.7-2.4-4-2.6-6.3c-0.2-2.3,0.1-4.6,0.6-6.8c0.4-2.2,1-4.4,1.2-6.6
			c0.2-2.2,0-4.5-0.4-6.7c-0.4-2.2-0.9-4.4-1.2-6.7c-0.3-2.2-0.5-4.5-0.4-6.8c0-4.5,0.5-9,1.2-13.5c0.7-4.5,1.5-8.9,2.1-13.4
			c0.3-2.2,0.5-4.5,0.6-6.7c0.1-1.1,0.1-2.2,0.1-3.4c0-0.6,0-1.1,0-1.7c0.1-0.6,0.2-1.2,0.6-1.7c0.2-0.3,0.4-0.5,0.7-0.7
			c0.3-0.1,0.7-0.1,1,0c0.6,0.3,0.9,0.9,1.1,1.4c0.5,1,0.8,2.2,0.9,3.3c0.2,2.3,0,4.5,0.3,6.7c0.2,1.1,0.5,2.2,1.1,3
			c0.6,0.9,1.6,1.5,2.4,2.3c0.4,0.4,0.8,0.9,1,1.5c0.2,0.6,0.2,1.2,0,1.8c-0.2,0.6-0.4,1.1-0.6,1.6c-0.2,0.5-0.3,1.1-0.3,1.6
			c-0.2,2.2,0.4,4.4,0.7,6.7c0.3,2.2,0.6,4.5,0.9,6.7c0.5,4.5,0.9,9,1.2,13.5c0.2,4.5,0.3,9,0.3,13.5l-0.1,3.4
			c0,1.1-0.1,2.3,0.1,3.3c0.1,0.5,0.3,1.1,0.6,1.5c0.3,0.5,0.7,0.8,1.1,1.2c0.4,0.4,0.7,1,0.7,1.6c0.1,0.6-0.1,1.2-0.3,1.7
			c-0.4,1.1-1.1,2-1.6,3c-0.5,1-0.7,2.1-0.2,3.1c0.5,1,1.5,1.7,1.9,2.8c0.2,0.6-0.1,1.3-0.5,1.7c-0.4,0.4-0.9,0.7-1.3,1.1
			c-0.4,0.3-0.7,0.9-0.5,1.3c0.2,0.5,0.7,0.8,1.2,1c0.5,0.3,1,0.5,1.5,0.9c0.4,0.4,0.7,1.1,0.5,1.7c-0.2,0.6-0.6,1-1,1.4
			c-0.4,0.4-0.8,0.8-1.2,1.2c-0.3,0.4-0.6,0.9-0.6,1.4c-0.1,0.5,0,1.1,0.2,1.6c0.4,1,1,2,1.6,2.9c0.6,0.9,1.2,1.9,1.6,3
			c0.9,2.1,1.3,4.3,1.7,6.6c0.4,2.2,0.7,4.5,1.3,6.6c0.6,2.2,1.4,4.3,2.7,6.1l0,0l0,0c0.1,1,0.7,1.9,1.5,2.5c0.8,0.6,1.8,0.9,2.8,1
			c2,0.2,4-0.7,5.7-1.8c1.7-1.1,3.4-2.4,4.9-3.7c1.5-1.4,2.9-3,3.4-4.9c0.6-2-0.4-4-0.3-6.1c0-0.5,0.2-1.1,0.5-1.5
			c0.3-0.4,0.7-0.8,1.2-1c0.9-0.5,2-0.6,2.8-1.2c0.4-0.3,0.7-0.7,0.8-1.2c0.1-0.5,0.1-1,0-1.5c-0.2-1-0.6-2-0.7-3
			c-0.1-0.5-0.1-1-0.1-1.6c0.1-0.5,0.2-1,0.4-1.5c0.4-0.9,0.9-1.9,1.2-2.9c1.3-3.9,1.2-8.1,1.4-12.2c0.1-2.1,0.3-4.1,0.7-6.1
			c0.4-2,1.2-4,1.8-5.9c0.7-1.9,1.2-4,1-6c-0.1-2-0.6-4.1-0.7-6.1c-0.3-4.1,0.6-8.2,1.6-12.2c1.1-4,2.4-7.9,3.4-11.9
			c1-4,1.7-8.1,1.4-12.2c-0.1-2-0.4-4.1-0.4-6.2c0-2.1,0.4-4.1,0.7-6.1c0.6-4.1,0.9-8.2,1.1-12.3c0.3-8.2,0.8-16.5,0.3-24.7
			c-0.3-4.1-0.8-8.2-1.9-12.2C326.3,338.6,324.7,334.8,322.5,331.3z"/>
	</g>
	<g>
		<path class="st6" d="M222.1,367.3c3.3,3.5,7.9,5.6,12.7,5.8l0.2,0l0,0.2l-0.2,17.3l0,0.3l-0.3,0c-2.8-0.1-5.6-0.6-8.2-1.5
			c-1.3-0.5-2.6-1-3.8-1.7c-0.3-0.2-0.6-0.3-0.9-0.7c-0.3-0.3-0.3-0.7-0.4-1.1c0-0.7,0-1.4,0-2.1
			C221.2,378.3,221.2,372.8,222.1,367.3z M222.1,367.3c-0.7,5.5-0.6,11-0.5,16.5c0.1,1.3-0.3,3,1.1,3.5c1.2,0.6,2.5,1.2,3.8,1.6
			c2.6,0.9,5.3,1.4,8,1.4l-0.3,0.2l0.3-17.3l0.2,0.2C229.9,373.2,225.3,370.9,222.1,367.3z"/>
	</g>
	<g>
		<path class="st6" d="M231.3,390.6l0.2,12.6l0.2,12.7l0,0.1l-0.1,0.1c-1.3,0.9-3,0.8-4.4,0.2c-0.7-0.3-1.3-0.7-1.8-1.3
			c-0.5-0.5-0.9-1.2-1.3-1.8c-0.7-1.3-1-2.8-1.3-4.2c-0.3-1.4-0.5-2.8-0.7-4.3c-0.9-5.7-1.4-11.5-0.6-17.3l0-0.2l0.2,0.1
			C224.8,388.6,228,389.6,231.3,390.6z M231.3,390.6c-3.3-0.9-6.5-1.9-9.7-3.1l0.2-0.1c-0.7,5.7-0.1,11.5,0.8,17.2
			c0.2,1.4,0.5,2.8,0.7,4.3c0.3,1.4,0.6,2.8,1.2,4.1c0.3,0.6,0.7,1.2,1.2,1.7c0.5,0.5,1.1,0.9,1.7,1.2c1.2,0.6,2.8,0.6,3.9-0.2
			l-0.1,0.2l0-12.6L231.3,390.6z"/>
	</g>
	<g>
		<path class="st6" d="M328.6,370c-4.2,4.2-9.9,7-15.9,7.7l0.2-0.2c0.6,5.6,1,11.3,1.1,17l-0.2-0.2c2.9,0.5,5.9,0.3,8.7-0.6
			c1.4-0.5,2.7-1.1,4-1.9c0.3-0.2,0.6-0.4,0.8-0.7c0.2-0.2,0.3-0.6,0.4-0.9c0.1-0.7,0.2-1.5,0.3-2.2C328.9,382,328.8,376,328.6,370z
			 M328.6,370c0.4,6,0.5,12-0.1,17.9c-0.1,0.7-0.2,1.5-0.3,2.2c-0.1,0.4-0.2,0.8-0.5,1.1c-0.3,0.3-0.6,0.5-0.9,0.7
			c-1.3,0.8-2.6,1.5-4.1,2c-2.9,1-6,1.2-9,0.7l-0.2,0l0-0.2c-0.1-5.7-0.4-11.3-1-17l0-0.2l0.2,0C318.6,376.7,324.3,374.1,328.6,370z
			"/>
	</g>
	<g>
		<path class="st6" d="M316.2,395.3c-0.9,4.3-1.6,8.6-2.2,13c-0.6,4.3-1.1,8.7-1.5,13.1l-0.2-0.2c1.8,0,3.5,0.2,5.2,0.3
			c1.7,0.1,3.5,0,5-0.7c1.5-0.7,2.6-2.1,3.3-3.7c0.6-1.6,0.9-3.3,1-5l0.6-10.4l0.3-5.2c0.1-1.7,0-3.5-0.6-5.1l0.2,0.1
			c-1.5,1.3-3.4,2.2-5.2,2.9C320.2,395,318.2,395.4,316.2,395.3z M316.2,395.3c2,0,4-0.5,5.8-1.1c1.9-0.7,3.6-1.7,5.1-2.9l0.1-0.1
			l0.1,0.2c0.6,1.7,0.7,3.5,0.6,5.2l-0.3,5.2l-0.5,10.4c-0.1,1.7-0.3,3.5-1,5.2c-0.6,1.7-1.8,3.2-3.5,3.9c-1.7,0.8-3.5,0.8-5.2,0.7
			c-1.7-0.1-3.5-0.4-5.2-0.4l-0.2,0l0-0.2c0.4-4.4,0.9-8.7,1.6-13.1C314.4,403.9,315.2,399.6,316.2,395.3z"/>
	</g>
	<g>
		<path class="st6" d="M285.8,355.3c0,2.3,0,4.6-0.1,6.9l-0.2,6.9c0,0.3,0,0.6-0.1,0.9c-0.1,0.3-0.2,0.7-0.5,0.9
			c-0.6,0.4-1.2,0.4-1.7,0.5c-1.1,0.2-2.3,0.3-3.4,0.4c-2.3,0.1-4.6-0.1-6.8-0.5c2.3,0.2,4.6,0.3,6.8,0.1c1.1-0.1,2.3-0.2,3.4-0.4
			c0.6-0.1,1.1-0.2,1.5-0.5c0.4-0.3,0.4-0.8,0.4-1.4l0.4-6.8C285.5,359.9,285.6,357.6,285.8,355.3z"/>
	</g>
	<g>
		<path class="st6" d="M271.9,346.7c0.2,3.6,0.2,7.1,0.2,10.7c0,3.6-0.1,7.1-0.3,10.7c-0.2-3.6-0.2-7.1-0.2-10.7
			C271.6,353.8,271.6,350.2,271.9,346.7z"/>
	</g>
	<g>
		<path class="st6" d="M228.3,421.8c2.6,1.6,5.1,3.4,7.7,5.1c2.5,1.8,5,3.6,7.4,5.5c-2.6-1.6-5.1-3.4-7.7-5.1
			C233.2,425.6,230.7,423.8,228.3,421.8z"/>
	</g>
	<g>
		<path class="st6" d="M265.6,426.9c-0.6,1.7-1.5,3.4-2.7,4.8c-1.1,1.5-2.4,2.8-3.9,4c-1.5,1.1-3.1,2-4.8,2.8
			c-1.7,0.8-3.4,1.5-4.8,2.7c1.3-1.3,3-2.2,4.6-3c1.6-0.8,3.2-1.7,4.7-2.8C261.7,433.2,264,430.2,265.6,426.9z"/>
	</g>
	<g>
		<path class="st6" d="M266.4,439.9c-0.6,0.5-1.2,0.9-1.9,1.2c-0.7,0.3-1.4,0.6-2.1,0.8c0.6-0.5,1.2-0.9,1.9-1.2
			C264.9,440.4,265.6,440.1,266.4,439.9z"/>
	</g>
	<g>
		<path class="st6" d="M266.9,446c-0.9,0.8-1.8,1.4-2.8,2c-1,0.6-2,1.1-3.1,1.5c0.9-0.8,1.8-1.4,2.8-2
			C264.8,447,265.8,446.4,266.9,446z"/>
	</g>
	<g>
		<path class="st6" d="M266.5,453c-1.2,1-2.6,1.7-3.9,2.4c-1.4,0.7-2.8,1.2-4.3,1.6c1.4-0.7,2.8-1.3,4.1-2
			C263.8,454.3,265.1,453.7,266.5,453z"/>
	</g>
	<g>
		<path class="st6" d="M247.1,450.1c-1.5,0.9-3.2,1.7-5,1.8c-0.9,0-1.8-0.1-2.6,0c-0.8,0.1-1.7,0.4-2.1,1.1
			c-0.5,0.6-0.3,1.5,0.2,2.2c0.5,0.7,1.3,1,2.2,1.2c0.8,0.2,1.7,0.3,2.6,0.6c0.8,0.3,1.7,0.8,2,1.7c-0.5-0.8-1.3-1.2-2.1-1.4
			c-0.8-0.2-1.7-0.3-2.6-0.5c-0.9-0.2-1.8-0.5-2.4-1.3c-0.3-0.4-0.5-0.8-0.6-1.3c-0.1-0.5,0-1,0.3-1.4c0.6-0.8,1.6-1.2,2.5-1.2
			c0.9-0.1,1.8,0.1,2.7,0.1C243.8,451.6,245.4,450.8,247.1,450.1z"/>
	</g>
	<g>
		<path class="st6" d="M246.3,465.7c-1,1.1-2.1,2-3.4,2.8c-1.3,0.7-2.7,1.3-4.1,1.6c1.3-0.6,2.6-1.3,3.9-2
			C243.9,467.3,245.1,466.5,246.3,465.7z"/>
	</g>
	<g>
		<path class="st6" d="M263.9,467.7c-1,1.2-2.4,2.1-3.9,2.5c-1.5,0.4-3,0.4-4.5,0.9c0.6-0.4,1.4-0.7,2.1-0.9
			c0.7-0.2,1.5-0.3,2.2-0.5C261.3,469.3,262.6,468.6,263.9,467.7z"/>
	</g>
	<g>
		<path class="st6" d="M238.1,482.9c2.6,1.4,5.4,2.7,8.2,3.7c2.8,1,5.7,1.7,8.7,2.3l0.2,0l0,0.1c0.1,0.5-0.1,1.1-0.5,1.4
			c-0.4,0.3-0.9,0.5-1.3,0.6c-0.9,0.1-1.8,0-2.7,0c-1.8,0.1-3.5,0.5-5.2,1.1c1.6-0.8,3.3-1.3,5.1-1.5c0.9-0.1,1.8,0,2.6-0.1
			c0.4-0.1,0.8-0.2,1.1-0.5c0.3-0.3,0.5-0.6,0.4-1l0.2,0.2c-3-0.5-5.9-1.2-8.7-2.3C243.4,485.9,240.7,484.5,238.1,482.9z"/>
	</g>
	<g>
		<path class="st6" d="M239.5,496.8c1.9,0.5,3.8,0.9,5.8,1.1c1.9,0.2,3.9,0.2,5.9,0.1c-1.9,0.5-3.9,0.6-5.9,0.4
			C243.2,498.2,241.3,497.7,239.5,496.8z"/>
	</g>
	<g>
		<path class="st6" d="M311.3,497.7c-1.4,1-3.1,1.5-4.7,1.7c-1.7,0.2-3.5,0-5-0.6c1.7,0.3,3.3,0.3,5,0.1
			C308.1,498.7,309.7,498.3,311.3,497.7z"/>
	</g>
	<g>
		<path class="st6" d="M299,491.1c-1.3,1-2.9,1.6-4.6,1.9c-1.6,0.3-3.4,0.3-5-0.2c1.7,0.1,3.3,0,4.9-0.3
			C296,492.3,297.5,491.7,299,491.1z"/>
	</g>
	<g>
		<path class="st6" d="M293.1,474.2c-1.1,0.9-2.3,1.4-3.7,1.8c-1.3,0.3-2.7,0.4-4.1,0.2c1.4-0.1,2.7-0.3,4-0.6
			C290.6,475.2,291.9,474.7,293.1,474.2z"/>
	</g>
	<g>
		<path class="st6" d="M318.5,460.8c-1.5,1.2-3.3,2.2-5.1,2.9c-1.8,0.7-3.8,1.1-5.7,1.2c1.9-0.5,3.8-1,5.6-1.7
			C315,462.6,316.8,461.7,318.5,460.8z"/>
	</g>
	<g>
		<path class="st6" d="M312.4,433.1c-2.2,1.5-4.7,2.5-7.2,3.4c-2.5,0.8-5.1,1.5-7.6,2.2c-1.3,0.4-2.6,0.7-3.4,1.7
			c-0.4,0.5-0.6,1.1-0.5,1.7c0.1,0.6,0.4,1.1,1,1.3c0.6,0.2,1.2,0.1,1.9-0.1l1.9-0.5l3.9-0.9l-3.8,1.1l-1.9,0.5
			c-0.6,0.2-1.3,0.3-2.1,0.2c-0.4-0.1-0.7-0.3-0.9-0.6c-0.2-0.3-0.4-0.7-0.4-1c-0.1-0.7,0.1-1.5,0.6-2c0.9-1.1,2.4-1.5,3.6-1.8
			c2.6-0.7,5.1-1.3,7.7-2.1C307.6,435.3,310.1,434.4,312.4,433.1z"/>
	</g>
	<g>
		<path class="st6" d="M285.7,456.7c2.2,0.3,4.4-0.2,6.4-1c1-0.4,2-0.9,2.9-1.4c0.5-0.3,1-0.5,1.4-0.8c0.4-0.3,0.9-0.7,0.9-1.3
			c0.2,0.6-0.3,1.1-0.7,1.5c-0.5,0.3-0.9,0.6-1.4,0.9c-0.9,0.6-1.9,1.1-2.9,1.6c-1,0.4-2.1,0.8-3.2,0.9
			C287.9,457.1,286.8,457,285.7,456.7z"/>
	</g>
	<g>
		<path class="st6" d="M284,463c2.4,0.3,4.9,0.3,7.2-0.1c2.4-0.4,4.7-1.1,6.9-2.1c-2,1.3-4.4,2.2-6.9,2.6
			C288.9,463.7,286.4,463.7,284,463z"/>
	</g>
	<g>
		<path class="st5" d="M292.9,357.9c4.9,0.6,9.8,1.2,14.7,1.8c4.2,0.5,8.5,1,12.6,0.2c3.9-0.8,7.4-2.8,10.8-4.7
			c0.9-7.7,1.7-14.7,2.6-21.6c0.3-2.2,0.5-4.4-0.2-6.5c-0.8-2.3-2.6-4.1-3.2-6.5c-0.7-2.7,0.3-5.4,0.8-8.1c0.5-3.1,0.3-6.2,0.1-9.3
			c-0.6-7.6-1.1-15.1-1.7-22.7c2.8,3.4,4.9,7.7,5.5,12.2c0.2,1.6,0.3,3.2,0.7,4.7c0.9,2.7,3.1,4.8,3.9,7.5c0.9,3.3-0.5,6.8,0.3,10.1
			c0.7,2.9,2.8,5.2,4.1,7.9c2.8,5.9,1.1,12.8-0.7,19c6.3,1.6,12.9,1.9,19.3,1c-0.3-13.7-0.5-27.5-0.8-41.2c0-1.9-0.1-3.8-0.4-5.7
			c-0.3-1.7-0.7-3.3-1.2-4.9c-3.8-14-7.7-27.9-11.5-41.9c-2.3-8.5-4.7-17.1-9.2-24.7c-4.5-7.6-11.5-14.1-20.1-16.2
			c-5-1.2-11.3-1.6-13-6c2.3-1.8,3.4-5,2.6-7.8c-0.1-0.4-0.3-0.9-0.7-1.1c-0.8-0.5-1.8,0.5-1.9,1.5c-0.1,1,0.2,1.9,0,2.9
			c-0.4,2.2-3.1,3-5.3,2.8c-2.2-0.2-4.5-1-6.6-0.3c-2.5,0.8-3.9,3.5-4.8,6c-2.4,6.9-2.5,14.4-2.3,21.7c0.3,10.6,1.4,21.2,3.1,31.6
			c1.4,8.1,3.1,16.2,3.7,24.4c0.6,8.6-0.2,17.2-0.3,25.8C293.7,326,295.8,342.3,292.9,357.9z"/>
		<path class="st7" d="M292.9,357.9l9.8,1.2c3.3,0.4,6.5,0.8,9.8,1.1c3.3,0.2,6.6,0.1,9.7-0.9c3.1-1,6-2.6,8.9-4.2l0,0l2.2-18.8
			c0.2-1.6,0.4-3.1,0.5-4.7c0.1-1.6,0.1-3.2-0.4-4.7c-0.5-1.5-1.5-2.8-2.2-4.2c-0.4-0.7-0.7-1.4-0.9-2.2c-0.2-0.8-0.3-1.6-0.2-2.4
			c0.1-1.6,0.5-3.1,0.8-4.7c0.3-1.5,0.5-3.1,0.5-4.7c0-3.2-0.3-6.3-0.5-9.5l-1.4-18.9l0-0.3l0.2,0.3c1.7,2.1,3.2,4.5,4.2,7
			c0.5,1.3,0.9,2.6,1.2,3.9c0.3,1.3,0.4,2.7,0.6,4.1c0.2,1.3,0.6,2.6,1.3,3.8c0.7,1.2,1.5,2.3,2.1,3.5c0.7,1.2,1.1,2.5,1.2,3.9
			c0.1,1.4,0,2.7-0.1,4.1c-0.1,1.4-0.2,2.7,0.1,4c0.3,1.3,0.9,2.5,1.6,3.7c0.7,1.2,1.5,2.3,2.1,3.5c0.7,1.2,1.2,2.5,1.5,3.8
			c0.6,2.7,0.5,5.5,0.1,8.2c-0.4,2.7-1.1,5.4-1.8,8l-0.1-0.2c6.3,1.5,12.8,1.9,19.2,1l-0.2,0.2l-0.8-40.8c0-1.7-0.1-3.4-0.2-5.1
			c-0.2-1.7-0.6-3.3-1-5l-2.7-9.8l-5.4-19.7c-1.8-6.6-3.6-13.1-5.4-19.7c-1.9-6.5-4.2-13-7.7-18.8c-3.5-5.7-8.4-10.8-14.5-13.8
			c-1.5-0.7-3.1-1.3-4.8-1.7c-1.6-0.4-3.3-0.7-5-1.1c-1.7-0.4-3.3-0.8-4.9-1.5c-0.8-0.4-1.5-0.9-2.2-1.5c-0.6-0.6-1.1-1.4-1.5-2.2
			l0-0.1l0.1-0.1c1.5-1.2,2.5-3,2.8-4.9c0.1-1,0-1.9-0.2-2.9c-0.1-0.4-0.4-0.9-0.8-1c-0.4-0.1-0.8,0.1-1.1,0.5
			c-0.6,0.7-0.4,1.8-0.3,2.7c0,0.5,0,1-0.2,1.5c-0.2,0.5-0.5,0.9-0.9,1.3c-1.6,1.4-3.8,1.4-5.8,1.1c-1.9-0.3-3.9-0.8-5.7,0
			c-1.8,0.8-2.9,2.5-3.7,4.3c-1.5,3.6-2.2,7.6-2.6,11.5c-0.4,3.9-0.3,7.9-0.2,11.8c0.1,3.9,0.3,7.9,0.7,11.8
			c0.6,7.9,1.7,15.7,3.1,23.5c1.4,7.8,2.9,15.5,3.1,23.5c0.3,7.9-0.4,15.8-0.5,23.7c-0.1,7.9,0.4,15.8,0.5,23.7
			C294.6,342.2,294.4,350.2,292.9,357.9z M292.9,357.9c1.4-7.8,1.6-15.7,1.4-23.6c-0.1-7.9-0.6-15.8-0.6-23.7
			c0-7.9,0.7-15.8,0.4-23.7c-0.2-7.9-1.8-15.7-3.2-23.4c-1.4-7.8-2.5-15.6-3.1-23.5c-0.3-3.9-0.6-7.9-0.7-11.8
			c-0.1-3.9-0.2-7.9,0.2-11.8c0.4-3.9,1.1-7.9,2.6-11.6c0.8-1.8,1.9-3.6,3.8-4.5c0.9-0.4,2-0.5,3-0.5c1,0.1,2,0.2,2.9,0.4
			c1,0.2,1.9,0.3,2.9,0.1c0.9-0.2,1.9-0.5,2.6-1.1c0.7-0.6,1-1.6,0.9-2.5c0-0.5-0.1-1-0.1-1.5c0-0.5,0.2-1.1,0.5-1.5
			c0.3-0.4,0.9-0.8,1.5-0.6c0.6,0.2,0.9,0.7,1,1.2c0.3,1,0.4,2,0.2,3c-0.2,2-1.3,3.9-2.9,5.1l0.1-0.2c0.3,0.8,0.8,1.5,1.4,2
			c0.6,0.6,1.3,1,2.1,1.4c1.5,0.7,3.2,1.1,4.8,1.5c1.7,0.4,3.3,0.6,5,1.1c1.7,0.4,3.3,1,4.8,1.7c6.2,3,11.2,8.1,14.7,13.9
			c3.6,5.8,5.9,12.3,7.8,18.9c1.9,6.5,3.6,13.1,5.5,19.7l5.4,19.7l2.7,9.8c0.4,1.6,0.9,3.3,1,5c0.2,1.7,0.2,3.4,0.2,5.1l0.8,40.8
			l0,0.2l-0.2,0c-6.4,0.9-13,0.6-19.3-1l-0.2,0l0-0.2c0.7-2.6,1.5-5.2,1.9-7.9c0.4-2.7,0.5-5.4-0.1-8.1c-0.3-1.3-0.8-2.6-1.4-3.8
			c-0.7-1.2-1.4-2.3-2.1-3.5c-0.7-1.2-1.3-2.4-1.6-3.8c-0.3-1.4-0.2-2.8-0.1-4.1c0.1-1.4,0.2-2.7,0.1-4.1c-0.1-1.4-0.5-2.6-1.2-3.8
			c-0.6-1.2-1.4-2.3-2.1-3.5c-0.7-1.2-1.1-2.5-1.3-3.9c-0.2-1.4-0.3-2.7-0.5-4c-0.3-1.3-0.7-2.6-1.2-3.9c-1-2.5-2.4-4.9-4.1-7
			l0.2-0.1l1.4,18.9c0.2,3.2,0.5,6.3,0.5,9.5c0,1.6-0.2,3.2-0.5,4.7c-0.3,1.5-0.7,3.1-0.8,4.7c0,0.8,0,1.6,0.2,2.3
			c0.2,0.8,0.5,1.5,0.9,2.2c0.8,1.4,1.7,2.7,2.2,4.2c0.5,1.5,0.5,3.1,0.4,4.7c-0.1,1.6-0.4,3.1-0.5,4.7l-2.2,18.8l0,0l0,0
			c-2.9,1.6-5.7,3.2-8.9,4.2c-3.1,1-6.5,1.1-9.7,0.8c-3.3-0.3-6.5-0.7-9.8-1.1L292.9,357.9z"/>
	</g>
	<g>
		<path class="st8" d="M306.6,202.1c-1.1,1-2.7,1.2-4.1,1.1c-1.5-0.1-2.9-0.4-4.4-0.4c-1.4,0-3,0.5-3.8,1.7c-0.4,0.6-0.7,1.3-0.5,2
			c0.1,0.7,0.4,1.4,0.2,2.2c-0.1,0.4-0.5,0.7-0.8,0.8c-0.4,0.1-0.7,0.2-1,0.5c-0.5,0.4-0.8,1.2-0.8,1.8c0,0.7,0.6,1.3,0.6,2.1
			c0,0.2-0.1,0.4-0.3,0.6c-0.2,0.1-0.3,0.2-0.5,0.3c-0.3,0.2-0.5,0.5-0.5,0.8c-0.1,0.7,0.1,1.4,0.2,2.1c0.1,0.7,0,1.5-0.1,2.2
			c-0.2,1.5-0.6,2.9-1.1,4.3l0,0c-0.7,5.5,0,11.1,1,16.5c1.1,5.4,2.3,10.9,3.2,16.3c1.9,10.9,3.3,22,4.1,33
			c0.8,11.1,1.1,22.2,0.7,33.3c-0.3,11.1-1.2,22.2-2.6,33.2c1.3-11,2-22.1,2.3-33.2c0.3-11.1-0.1-22.2-0.9-33.3
			c-0.2-2.8-0.5-5.5-0.7-8.3c-0.3-2.8-0.6-5.5-0.9-8.3c-0.4-2.7-0.7-5.5-1.1-8.2l-0.6-4.1l-0.7-4.1c-0.9-5.5-2.1-10.9-3.1-16.3
			c-1-5.4-1.7-11.1-0.9-16.6l0,0l0,0c0.4-1.4,0.8-2.8,1.1-4.3c0.1-0.7,0.2-1.4,0.1-2.2c-0.1-0.7-0.3-1.4-0.2-2.2
			c0.1-0.4,0.3-0.8,0.6-1c0.4-0.2,0.6-0.3,0.6-0.7c0-0.7-0.6-1.3-0.6-2.1c0-0.8,0.3-1.6,0.9-2c0.6-0.5,1.5-0.4,1.7-1.1
			c0.2-0.7-0.1-1.4-0.2-2.1c-0.1-0.8,0.1-1.5,0.6-2.1c0.9-1.2,2.5-1.7,4-1.7c1.5,0,2.9,0.4,4.4,0.5
			C303.9,203.3,305.5,203.1,306.6,202.1z"/>
	</g>
	<g>
		<path class="st8" d="M332.4,338.4c-2.6,0.8-5.3,1.2-8,1.2c-2.7,0-5.4-0.6-8.1-0.6c-2.7-0.1-5.4,0.2-8,0.4
			c-2.7,0.2-5.4,0.3-8.1-0.3c2.7,0.4,5.4,0.1,8-0.1c2.7-0.3,5.4-0.6,8.1-0.5c2.7,0.1,5.4,0.7,8,0.8
			C327.1,339.3,329.8,339,332.4,338.4z"/>
	</g>
	<g>
		<path class="st8" d="M328.4,329.5c-1.8-1.2-3.4-2.9-4.6-4.8c-1.2-1.9-2.1-4-2.8-6.1c-0.6-2.1-1-4.3-1.3-6.6
			c-0.2-2.2-0.3-4.4-0.4-6.6c0.3,2.2,0.5,4.4,0.8,6.6c0.3,2.2,0.7,4.4,1.4,6.5c0.6,2.1,1.5,4.1,2.6,6
			C325.3,326.3,326.7,328.1,328.4,329.5z"/>
	</g>
	<g>
		<path class="st8" d="M329.3,280.4c-1.3-2.6-2.6-5.2-3.8-7.8c-1.2-2.7-2.1-5.4-2.9-8.2c-0.7-2.8-1.1-5.7-1-8.7c0-1.4,0-2.9-0.4-4.3
			c-0.4-1.4-1.1-2.7-2.2-3.7c1.1,1,1.9,2.2,2.4,3.6c0.5,1.4,0.5,2.9,0.5,4.3c0,2.9,0.4,5.7,1.1,8.5c0.7,2.8,1.7,5.5,2.7,8.2
			C327,275.1,328.1,277.8,329.3,280.4z"/>
	</g>
	<g>
		<path class="st8" d="M333.1,216.9c0,5.6,0,11.1-0.1,16.7l-0.2,16.7l-0.4,16.6c-0.1,5.5-0.3,11.1-0.5,16.6c0-5.6,0-11.1,0.1-16.7
			l0.2-16.6l0.4-16.6C332.8,228,332.9,222.4,333.1,216.9z"/>
	</g>
	<g>
		<path class="st8" d="M330.3,214.9c0.2,4.5,0.4,8.9,0.4,13.4c0.1,4.5,0,8.9,0,13.4c-0.1,4.5-0.2,8.9-0.4,13.4
			c-0.2,4.5-0.5,8.9-0.9,13.3l0.5-13.4c0.1-4.5,0.3-8.9,0.3-13.4c0.1-4.5,0.1-8.9,0.1-13.4L330.3,214.9z"/>
	</g>
	<g>
		<path class="st8" d="M362.3,338c-2.5,0.2-5,0.2-7.4,0.2c-2.5,0-5-0.1-7.4-0.3c2.5-0.2,5-0.2,7.4-0.2
			C357.4,337.7,359.9,337.8,362.3,338z"/>
	</g>
	<path class="st9" d="M206.5,336.7c-4.1-0.7-8.3-0.7-12.4,0"/>
	<g>
		<path class="st5" d="M233.8,204.1c7.4,2.6,15.3,5.8,19.5,12.4c2.1,3.3,3.1,7.3,3.8,11.1c1,5.9,1.4,12,2.7,17.9
			c0.9,4,2.2,7.8,2.9,11.8c1,5.4,1,11,1.1,16.6c0.6,26.4,5.3,52.6,6.2,79c0,0.9,0,1.9-0.7,2.5c-1,0.8-2.5,0-3.7-0.5
			c-2.9-1.2-6.2-0.7-9.2-0.1c-8.6,1.5-17.2,2.9-25.8,4c-2.8,0.4-6.4,0.2-7.3-2.4c-0.4-1.2-0.1-2.5,0.1-3.8c0.5-2.8,0.4-5.8-0.2-8.6
			c-0.7-3-2-6-2.1-9.1c-0.1-2.4,0.4-4.8,0.6-7.3c0.2-2.4,0-4.8-0.2-7.3c-0.8-11.5-0.5-23.2,1.2-34.7c-9.7,17.1-12.2,36.4-12.7,55.8
			c-5,1.6-14-1.1-18.2,1.4c-0.5-23.5-3.9-47.6,3.6-69.8c1-2.9,2.2-5.8,2.9-8.9c0.7-2.9,0.9-5.8,1.3-8.7c1.4-9.3,5-18.1,8.9-26.7
			c2.9-6.3,6.5-13.1,12.8-15.9C225.4,211.1,230.6,211.1,233.8,204.1z"/>
		<path class="st7" d="M233.8,204.1c5.5,2,11.2,4.1,15.7,8c1.1,1,2.1,2.1,3,3.2c0.9,1.2,1.6,2.5,2.2,3.8c1.2,2.7,1.9,5.6,2.4,8.5
			c1,5.8,1.4,11.7,2.6,17.5c0.6,2.9,1.5,5.7,2.2,8.6c0.7,2.9,1.2,5.8,1.5,8.7c0.3,2.9,0.3,5.9,0.4,8.8c0.1,2.9,0.2,5.9,0.3,8.8
			c0.3,5.9,0.7,11.8,1.3,17.6c1.1,11.7,2.5,23.5,3.5,35.2c0.5,5.9,0.9,11.8,1.2,17.7l0.1,2.2c0,0.7,0,1.5-0.4,2.2
			c-0.2,0.3-0.6,0.6-0.9,0.7c-0.4,0.1-0.8,0.1-1.2,0c-0.8-0.2-1.4-0.5-2.1-0.8c-1.3-0.6-2.8-0.8-4.3-0.7c-1.5,0-2.9,0.3-4.4,0.5
			c-5.8,1.1-11.6,2-17.5,2.9c-2.9,0.4-5.8,0.9-8.8,1.2c-1.5,0.2-3,0.3-4.5,0c-0.7-0.2-1.5-0.4-2.1-0.9c-0.6-0.5-1.1-1.2-1.3-1.9
			c-0.3-1.6,0.2-3,0.4-4.5c0.2-1.4,0.2-2.9,0.1-4.4c-0.1-1.5-0.3-2.9-0.7-4.3c-0.4-1.4-0.8-2.8-1.2-4.2c-0.4-1.4-0.7-2.9-0.7-4.4
			c0-1.5,0.2-3,0.4-4.4c0.4-2.9,0.3-5.8,0.1-8.8c-0.9-11.8-0.6-23.7,1.2-35.3l0.4,0.1c-4.7,8.4-7.9,17.6-9.8,27
			c-1.9,9.4-2.7,19.1-3,28.7l0,0.1l-0.1,0c-1.5,0.4-3.1,0.5-4.6,0.5c-1.5,0-3.1-0.1-4.6-0.2c-1.5-0.1-3.1-0.1-4.6,0
			c-1.5,0.1-3.1,0.3-4.4,1.1l-0.2,0.1l0-0.3c-0.3-12.8-1.4-25.6-1.2-38.4c0.1-6.4,0.6-12.8,1.7-19.1c0.6-3.2,1.3-6.3,2.2-9.4
			c0.9-3.1,2.1-6.1,3.1-9.1c1-3,1.4-6.2,1.8-9.4c0.4-3.2,1-6.3,1.8-9.4c1.7-6.2,4.1-12.1,6.8-18c1.3-2.9,2.7-5.8,4.3-8.6
			c1.7-2.7,3.7-5.3,6.3-7.1c1.3-0.9,2.7-1.7,4.3-2.2c1.5-0.5,3.1-1,4.5-1.6c1.5-0.6,2.8-1.5,3.9-2.7
			C232.3,207,233.1,205.6,233.8,204.1z M233.8,204.1c-0.7,1.4-1.5,2.8-2.7,4c-1.1,1.2-2.5,2-3.9,2.7c-1.5,0.7-3,1.1-4.5,1.6
			c-1.5,0.5-2.9,1.3-4.2,2.2c-2.6,1.9-4.6,4.4-6.3,7.1c-1.7,2.7-3,5.6-4.3,8.6c-2.6,5.8-5.1,11.8-6.7,18c-0.8,3.1-1.4,6.2-1.8,9.4
			c-0.4,3.2-0.8,6.4-1.8,9.4c-1,3.1-2.2,6-3.1,9.1c-0.9,3.1-1.6,6.2-2.2,9.3c-1.1,6.3-1.6,12.7-1.7,19.1
			c-0.2,12.8,0.9,25.6,1.2,38.4l-0.2-0.1c1.4-0.8,3-1,4.5-1.1c1.5-0.1,3.1,0,4.6,0c1.5,0.1,3.1,0.2,4.6,0.2c1.5,0,3.1-0.1,4.5-0.5
			l-0.1,0.2c0.3-9.6,1-19.3,2.9-28.7c1.9-9.4,5-18.7,9.8-27.1l0.6-1.1l-0.2,1.2c-1.8,11.6-2,23.5-1.2,35.2c0.2,2.9,0.4,5.9-0.1,8.9
			c-0.2,1.5-0.4,2.9-0.4,4.4c0,1.5,0.3,2.9,0.7,4.3c0.4,1.4,0.8,2.8,1.2,4.3c0.4,1.4,0.6,2.9,0.7,4.4c0.1,1.5,0,3-0.1,4.5
			c-0.2,1.5-0.7,2.9-0.4,4.3c0.2,0.7,0.6,1.3,1.1,1.7c0.5,0.4,1.2,0.7,1.9,0.8c1.4,0.3,2.9,0.2,4.3,0c2.9-0.4,5.8-0.8,8.8-1.2
			c5.8-0.9,11.6-1.8,17.5-2.9c1.5-0.3,2.9-0.5,4.4-0.5c1.5,0,3,0.2,4.4,0.8c0.7,0.3,1.3,0.6,2,0.8c0.7,0.2,1.4,0,1.8-0.6
			c0.4-0.6,0.4-1.3,0.3-2.1l-0.1-2.2c-0.2-5.9-0.7-11.8-1.2-17.6c-1-11.7-2.4-23.5-3.4-35.2c-0.5-5.9-1-11.8-1.2-17.7
			c-0.1-2.9-0.2-5.9-0.3-8.8c-0.1-2.9-0.1-5.9-0.4-8.8c-0.2-2.9-0.7-5.8-1.5-8.7c-0.7-2.9-1.6-5.7-2.2-8.6
			c-1.2-5.8-1.6-11.7-2.6-17.5c-0.5-2.9-1.2-5.8-2.4-8.5c-0.6-1.4-1.3-2.6-2.2-3.8c-0.9-1.2-1.9-2.2-3-3.2
			C244.9,208.3,239.3,206.1,233.8,204.1z"/>
	</g>
	<g>
		<path class="st8" d="M232.3,207.1c6.5,1.4,12.4,5.2,16.8,10.3c4.3,5.1,7.1,11.6,7.4,18.3c0.2,3.3,0.2,6.7,1,9.9
			c0.8,3.2,1.8,6.4,2.4,9.7c1.3,6.6,1.4,13.3,1.4,20c0,6.7-0.3,13.3,0.1,20c0.4,6.6,1.6,13.2,2.6,19.8c1.1,6.6,2.1,13.2,2.2,19.9
			c0.1,3.3-0.2,6.7-0.4,10c-0.2,3.3-0.1,6.7,0.8,9.9c-1-3.2-1.1-6.6-1-9.9c0.1-3.3,0.4-6.7,0.3-10c-0.1-6.7-1.2-13.3-2.3-19.8
			c-1.1-6.6-2.3-13.1-2.7-19.8c-0.5-6.7-0.2-13.3-0.2-20c0-6.6-0.1-13.3-1.3-19.9c-0.6-3.3-1.6-6.4-2.4-9.7c-0.8-3.3-0.8-6.7-1-10
			c-0.3-6.6-3-13.1-7.3-18.1C244.6,212.5,238.8,208.6,232.3,207.1z"/>
	</g>
	<g>
		<path class="st8" d="M261.3,339.5c-3.1,0.8-6.3,1.3-9.5,1.5c-3.2,0.2-6.5,0.1-9.7-0.1c-3.2-0.2-6.4-0.6-9.6-1
			c-1.6-0.2-3.2-0.5-4.8-0.6c-1.6-0.1-3.2,0-4.7,0.6c1.5-0.7,3.1-0.9,4.7-0.9c1.6,0.1,3.2,0.3,4.8,0.4c3.2,0.3,6.4,0.7,9.6,0.9
			C248.5,340.9,255,340.8,261.3,339.5z"/>
	</g>
	<g>
		<path class="st8" d="M220.2,214.8c0.9,5.4,1.3,11,1.4,16.5c0.1,5.5,0,11,0,16.5c-0.1,5.5-0.1,11,0.1,16.5c0.2,5.5,0.8,11,1.9,16.4
			c-1.3-5.4-1.9-10.9-2.3-16.4c-0.3-5.5-0.3-11-0.2-16.5c0.1-5.5,0.2-11,0.1-16.5C221.2,225.8,221,220.2,220.2,214.8z"/>
	</g>
	<g>
		<path class="st8" d="M222.8,285.1c-1.3-5.7-2.5-11.3-3.6-17.1c-1-5.7-1.8-11.5-2.2-17.3c-0.3-5.8-0.3-11.7,0.5-17.4
			c0.4-2.9,0.8-5.8,0.9-8.6c0.1-2.9,0-5.8-1-8.6c1,2.7,1.3,5.7,1.2,8.6c-0.1,2.9-0.5,5.8-0.8,8.7c-0.7,5.8-0.7,11.6-0.3,17.4
			c0.4,5.8,1.1,11.5,2.1,17.3C220.6,273.7,221.7,279.4,222.8,285.1z"/>
	</g>
	<g>
		<path class="st7" d="M233.5,204.6c1.3-2.6,3.4-4.6,5.5-6.5c2-1.8,4.2-3.6,6.9-3.5c3.6,1.8,9.7,4,13.3,5.8c-2,2-1.3,4.4-1.7,7.3
			c-0.3,2.2-5.2,2.3-4.2,6c0.6,2.2,2.5,4.2,1.9,7c-2.8-2.9-5.4-6.3-8.3-9.1c-1.6-1.5-3.2-3-5.1-4.1
			C239.3,205.9,236.5,205.3,233.5,204.6z"/>
		<path class="st10" d="M233.5,204.6c1.2-2.5,3.2-4.5,5.2-6.4c1-0.9,2.1-1.9,3.2-2.6c1.2-0.7,2.6-1.3,4-1.2l0,0l0,0
			c4.4,2.1,9,3.6,13.4,5.7l0.3,0.1l-0.2,0.2c-0.7,0.7-1.1,1.5-1.3,2.4c-0.2,0.9-0.2,1.9-0.2,2.8c0,0.5,0,1-0.1,1.5
			c0,0.2,0,0.5-0.1,0.8c-0.1,0.3-0.2,0.5-0.4,0.7c-0.7,0.8-1.6,1.2-2.4,1.7c-0.8,0.5-1.4,1.2-1.5,2.1c-0.1,0.9,0.3,1.8,0.7,2.6
			c0.4,0.9,0.9,1.7,1.1,2.7c0.3,0.9,0.4,2,0.2,2.9l-0.1,0.4l-0.3-0.3c-1.6-1.7-3.1-3.4-4.6-5.2c-1.5-1.8-3.1-3.4-4.8-5
			c-1.7-1.6-3.5-3-5.6-3.9C238,205.7,235.7,205.1,233.5,204.6z M233.5,204.6c2.3,0.5,4.5,1,6.7,1.9c2.2,0.9,4.1,2.3,5.7,3.9
			c1.7,1.5,3.3,3.2,4.8,5c1.5,1.7,3,3.5,4.7,5.1l-0.3,0.1c0.2-0.9,0.1-1.8-0.2-2.7c-0.3-0.9-0.7-1.7-1.1-2.6
			c-0.4-0.9-0.8-1.8-0.8-2.9c0-0.5,0.2-1,0.6-1.4c0.3-0.4,0.7-0.7,1.1-1c0.8-0.6,1.7-1,2.3-1.6c0.3-0.3,0.4-0.7,0.4-1.2
			c0.1-0.5,0.1-0.9,0.1-1.4c0-1,0.1-1.9,0.3-2.9c0.2-1,0.7-1.9,1.4-2.6l0.1,0.3c-4.3-2.1-9-3.7-13.3-5.8l0.1,0
			c-1.4,0-2.7,0.4-3.8,1.2c-1.2,0.7-2.2,1.6-3.3,2.5C236.8,200.1,234.7,202.1,233.5,204.6z"/>
	</g>
	<g>
		<g>
			<path class="st11" d="M243.2,522.3c-0.4-3-0.2-6.6,2.3-8.4c2.6-1.8,6.2-0.5,9.4-0.6c0.8,0,1.7-0.1,2.4,0.3c1,0.6,1.1,1.9,1.2,3
				c0.1,1.7,0.3,3.4,0.4,5.2c0,0.6,0.1,1.3-0.1,1.9c-0.2,0.7-0.7,1.3-1.1,1.9c-1.1,1.4-2.1,2.7-3.2,4.1c-2.3,2.8-4.9,5.7-8.5,6.3
				c-0.5,0.1-1,0.1-1.5-0.1c-0.5-0.2-0.8-0.6-1.1-1c-1.5-2-2.1-4.6-1.7-7.1C242.1,525.9,243.5,524.1,243.2,522.3z"/>
			<path class="st2" d="M243.2,522.3c-0.2-1.4-0.2-2.8,0-4.1c0.2-1.4,0.7-2.7,1.7-3.7c1-1,2.4-1.5,3.8-1.6c1.4-0.1,2.8,0.1,4.1,0.2
				c0.7,0.1,1.4,0.1,2.1,0.1c0.7,0,1.4-0.1,2.1,0.1c0.7,0.2,1.3,0.8,1.5,1.5c0.3,0.7,0.3,1.4,0.4,2.1l0.3,4.1c0,0.7,0.1,1.4,0.1,2.1
				c0,0.7-0.4,1.5-0.8,2c-0.8,1.1-1.7,2.2-2.6,3.3c-0.9,1.1-1.7,2.2-2.7,3.2c-1.8,2-4.1,4-6.9,4.5c-0.7,0.1-1.5,0.2-2.1-0.2
				c-0.6-0.4-1-1-1.4-1.6c-0.7-1.2-1.1-2.5-1.3-3.9c-0.1-1.4,0-2.8,0.5-4.1C242.7,524.9,243.4,523.7,243.2,522.3z M243.2,522.3
				c0.2,1.4-0.6,2.7-1,4c-0.5,1.3-0.7,2.7-0.5,4.1c0.2,1.4,0.6,2.7,1.3,3.9c0.4,0.6,0.8,1.2,1.3,1.5c0.6,0.4,1.3,0.3,1.9,0.2
				c2.7-0.5,4.9-2.5,6.6-4.5c0.9-1,1.8-2.1,2.6-3.2c0.8-1.1,1.7-2.2,2.5-3.3c0.4-0.5,0.7-1.1,0.7-1.8c0-0.6,0-1.3-0.1-2l-0.3-4.1
				c0-0.7-0.1-1.4-0.3-2c-0.2-0.6-0.6-1.1-1.3-1.3c-0.6-0.2-1.3-0.1-2-0.1c-0.7,0-1.4-0.1-2.1-0.2c-1.4-0.2-2.7-0.4-4.1-0.3
				c-1.4,0-2.8,0.5-3.7,1.5c-1,1-1.5,2.3-1.7,3.7C243,519.5,243.1,520.9,243.2,522.3z"/>
		</g>
		<g>
			<path class="st2" d="M259,520.7c0.9-0.5,2.1,0.3,2.4,1.3s0,2.1-0.1,3.2c-0.3,1.9-0.3,3.9,0.1,5.7c0.5,2.4,1.5,4.6,1.7,7
				c0.2,2.4-0.7,5.2-3,6.1c-0.8,0.3-1.9,0.5-2.2,1.4c-0.3,0.9,0.7,1.8,0.9,2.7c0.3,1-0.2,2-1,2.7c-0.8,0.6-1.8,1-2.7,1.2
				c-5.4,1.3-11,0.7-16.6,0.1c-0.8-0.1-1.5-0.2-2.2-0.5c-1.9-0.8-2.9-2.8-3.1-4.9c-0.5-3.8,1.2-7.5,3.1-10.8s4.3-6.4,5.4-10
				c0.7-2.3,1.1-4.9,3-6.4c1.9-1.5,4.6-1.1,7-0.6C254.4,519.5,257,520.1,259,520.7z"/>
			<path class="st11" d="M259,520.7c0.5-0.3,1.1-0.1,1.6,0.2c0.5,0.3,0.8,0.8,0.9,1.4c0.3,1.1-0.1,2.3-0.2,3.4
				c-0.3,2.2-0.1,4.5,0.6,6.6c0.6,2.1,1.5,4.3,1.4,6.6c0,1.1-0.3,2.3-0.9,3.3c-0.5,1-1.5,1.9-2.6,2.2c-0.5,0.2-1.1,0.4-1.4,0.7
				c-0.4,0.3-0.4,0.9-0.2,1.4c0.2,0.5,0.6,0.9,0.8,1.5c0.2,0.6,0.2,1.2-0.1,1.8c-0.5,1.1-1.6,1.8-2.6,2.2c-1.1,0.4-2.2,0.6-3.3,0.8
				c-4.5,0.7-9,0.3-13.5-0.1c-1.1-0.1-2.3-0.1-3.4-0.6c-1.1-0.5-1.9-1.5-2.4-2.5c-1-2.1-0.9-4.5-0.4-6.7c0.5-2.2,1.5-4.3,2.7-6.2
				c1.1-1.9,2.4-3.8,3.5-5.7c1.1-1.9,2-4,2.6-6.2c0.3-1.1,0.6-2.2,1.2-3.2c0.5-1,1.4-1.9,2.5-2.3c1.1-0.4,2.2-0.5,3.4-0.4
				c1.1,0.1,2.2,0.3,3.3,0.6L259,520.7z M259,520.7l-6.6-1.5c-1.1-0.3-2.2-0.4-3.3-0.5c-1.1-0.1-2.2,0-3.3,0.5
				c-1,0.4-1.8,1.2-2.3,2.2c-0.5,1-0.8,2.1-1.1,3.1c-0.5,2.2-1.4,4.3-2.6,6.3c-1.1,2-2.4,3.8-3.5,5.8c-1.1,1.9-2.1,4-2.6,6.1
				c-0.5,2.1-0.5,4.5,0.4,6.5c0.5,1,1.2,1.8,2.2,2.3c1,0.4,2.1,0.5,3.2,0.6c4.5,0.5,9,0.9,13.4,0.2c1.1-0.2,2.2-0.4,3.3-0.7
				c1-0.3,2-1,2.4-2c0.2-0.5,0.2-1,0.1-1.5c-0.2-0.5-0.5-0.9-0.8-1.5c-0.3-0.5-0.3-1.3,0.2-1.8c0.5-0.4,1-0.6,1.6-0.8
				c1.1-0.3,1.9-1.1,2.4-2c0.5-1,0.8-2.1,0.8-3.2c0-2.2-0.8-4.4-1.4-6.5c-0.6-2.2-0.8-4.5-0.5-6.7c0.1-1.1,0.5-2.2,0.3-3.3
				c-0.1-0.5-0.4-1-0.9-1.4C260.1,520.5,259.5,520.4,259,520.7z"/>
		</g>
		<g>
			<path class="st12" d="M258.2,525.3c-2.5-0.9-4.9-1.9-7.5-2.3c-1.3-0.3-2.6-0.4-3.9-0.4c-1.3,0-2.6,0.1-3.9,0.4
				c1.2-0.5,2.6-0.7,3.9-0.8c1.3-0.1,2.7,0.1,4,0.3C253.5,523,256,523.9,258.2,525.3z"/>
		</g>
		<g>
			<path class="st12" d="M256.4,527.7c-2.3-1-4.6-2.1-7-2.6c-2.4-0.5-5-0.5-7.3,0.2c1.1-0.6,2.4-0.9,3.7-1c1.3-0.1,2.6,0,3.8,0.3
				C252,525.3,254.3,526.4,256.4,527.7z"/>
		</g>
		<g>
			<path class="st12" d="M254.6,529.9c-1.1-0.4-2.1-0.8-3.2-1.2c-1.1-0.3-2.2-0.7-3.3-0.9c-1.1-0.2-2.2-0.4-3.4-0.6
				c-1.1-0.1-2.3-0.2-3.3,0.2c1-0.6,2.2-0.6,3.4-0.6c1.2,0,2.3,0.2,3.4,0.5C250.5,527.8,252.6,528.7,254.6,529.9z"/>
		</g>
		<g>
			<path class="st12" d="M252.9,532.4c-2-0.2-3.8-1-5.7-1.5c-1.8-0.6-3.8-0.9-5.7-0.4c0.9-0.4,1.9-0.6,2.9-0.6c1,0,2,0.2,2.9,0.5
				C249.3,531,251.1,531.8,252.9,532.4z"/>
		</g>
		<g>
			<path class="st12" d="M250,534.9c-1.1-0.5-2.3-1-3.5-1.2c-1.2-0.3-2.4-0.4-3.6-0.4c1.2-0.4,2.5-0.3,3.8-0.1
				C247.9,533.4,249.1,534,250,534.9z"/>
		</g>
		<path class="st12" d="M261.6,532c-1.8,0.5-2.9,2.2-3.5,3.9c-0.6,1.7-1,3.5-2.1,4.9c-1.3,1.7-3.5,2.6-5.6,2.4
			c-2.6-0.3-4.9-2.1-7.5-2.1c-1.6,0-3.1,0.7-4.7,0.7c-1.6,0-3.4-1.3-1.9-4.6c0,1.5,1.5,2.9,3.1,2.7c1.4-0.2,2.4-1.4,3.8-1.7
			c2.9-0.7,5.5,2.9,8.4,2.2c2-0.4,3-2.6,3.8-4.4C256.5,533.6,258.2,530.9,261.6,532z"/>
		<g>
			<path class="st12" d="M263.4,537.8c0,0-4.2,4.9-6.8,4.2c0.2,2.6,0.1,5.7-2,7c-1.5,1-3.4,0.4-4.9-0.7c-1.4-1.1-2.6-2.6-4-3.7
				c-1.4-1.1-3.3-1.8-4.9-0.9c-1.4,0.8-2.1,2.6-3.1,4c-1,1.4-2.9,2.5-4.1,1.3c0,0,0.1,3.8,9.6,4.1s12.2,0.2,15.6-2.7
				c0,0,1.6-1.5,0-3.4c-1.2-1.4-0.6-2.2,0.9-2.6C261.3,544,264,542.9,263.4,537.8z"/>
			<path class="st13" d="M263.4,537.8c-0.9,1-1.9,2-3,2.9c-0.6,0.4-1.1,0.8-1.8,1.1c-0.6,0.3-1.4,0.5-2.1,0.3l0.1-0.1
				c0.1,1.4,0.1,2.8-0.2,4.2c-0.2,0.7-0.4,1.4-0.8,2c-0.4,0.6-1,1.1-1.7,1.3c-1.4,0.5-2.9-0.1-4.1-0.8c-1.2-0.8-2.1-1.9-3.1-2.8
				c-1-1-2.1-1.8-3.4-2.1c-0.6-0.2-1.3-0.2-1.9,0.1c-0.6,0.2-1.1,0.7-1.6,1.2c-0.9,1.1-1.4,2.4-2.3,3.5c-0.5,0.5-1.1,1-1.8,1.2
				c-0.7,0.3-1.6,0.2-2.2-0.4l0.4-0.2c0.1,0.7,0.7,1.5,1.4,2c0.7,0.5,1.5,0.9,2.4,1.1c1.7,0.5,3.5,0.8,5.3,0.8
				c1.8,0.1,3.6,0.1,5.4,0.2c1.8,0,3.6,0,5.4-0.3c1.8-0.3,3.4-1.1,4.8-2.2c0.7-0.5,1.1-1.4,0.9-2.2c-0.1-0.4-0.3-0.8-0.6-1.1
				c-0.3-0.3-0.6-0.7-0.7-1.2c-0.1-0.5,0.2-1,0.6-1.2c0.4-0.3,0.9-0.4,1.3-0.5c0.9-0.3,1.6-0.7,2.2-1.4
				C263.5,541.5,263.6,539.5,263.4,537.8z M263.4,537.8c0.2,1.8,0.1,3.7-1,5.2c-0.6,0.7-1.4,1.2-2.3,1.5c-0.4,0.1-0.9,0.3-1.2,0.5
				c-0.4,0.2-0.6,0.6-0.5,1c0.1,0.4,0.4,0.8,0.6,1.1c0.3,0.4,0.5,0.8,0.6,1.2c0.2,0.9-0.2,2-1,2.5c-0.7,0.6-1.5,1.1-2.3,1.5
				c-0.8,0.4-1.7,0.6-2.6,0.8c-1.8,0.3-3.6,0.3-5.4,0.4c-1.8,0-3.6-0.1-5.4-0.1c-1.8-0.1-3.6-0.3-5.4-0.8c-0.9-0.3-1.7-0.6-2.5-1.2
				c-0.8-0.5-1.5-1.3-1.6-2.3l-0.1-0.7l0.5,0.5c0.4,0.4,1.1,0.5,1.7,0.3c0.6-0.2,1.2-0.6,1.6-1.1c0.9-1,1.4-2.3,2.3-3.4
				c0.5-0.6,1-1.1,1.8-1.3c0.7-0.3,1.5-0.2,2.2-0.1c1.4,0.4,2.6,1.3,3.6,2.3c1,1,1.9,2,3.1,2.8c1.1,0.8,2.5,1.2,3.8,0.8
				c0.6-0.2,1.2-0.6,1.6-1.2c0.4-0.6,0.6-1.2,0.8-1.9c0.3-1.3,0.3-2.7,0.2-4.1l0-0.1l0.1,0c0.6,0.2,1.3,0,2-0.3
				c0.6-0.3,1.2-0.6,1.8-1C261.5,539.8,262.5,538.8,263.4,537.8z"/>
		</g>
	</g>
	<g>
		<g>
			<path class="st11" d="M311.3,523.4c0.4-3,0.2-6.6-2.3-8.4c-2.6-1.8-6.2-0.5-9.4-0.6c-0.8,0-1.7-0.1-2.4,0.3c-1,0.6-1.1,1.9-1.2,3
				c-0.1,1.7-0.3,3.4-0.4,5.2c0,0.6-0.1,1.3,0.1,1.9c0.2,0.7,0.7,1.3,1.1,1.9c1.1,1.4,2.1,2.7,3.2,4.1c2.3,2.8,4.9,5.7,8.5,6.3
				c0.5,0.1,1,0.1,1.5-0.1c0.5-0.2,0.8-0.6,1.1-1c1.5-2,2.1-4.6,1.7-7.1C312.5,527,311.1,525.2,311.3,523.4z"/>
			<path class="st2" d="M311.3,523.4c0.2-1.4,0.2-2.8,0-4.1c-0.2-1.4-0.7-2.7-1.7-3.7c-1-1-2.4-1.4-3.7-1.5
				c-1.4-0.1-2.7,0.2-4.1,0.3c-0.7,0.1-1.4,0.1-2.1,0.2c-0.7,0-1.4-0.1-2,0.1c-0.6,0.2-1.1,0.7-1.3,1.3c-0.2,0.6-0.3,1.3-0.3,2
				l-0.3,4.1c0,0.7-0.1,1.4-0.1,2c0,0.7,0.3,1.2,0.7,1.8c0.8,1.1,1.7,2.2,2.5,3.3c0.9,1.1,1.7,2.2,2.6,3.2c1.8,2,3.9,4,6.6,4.5
				c0.7,0.1,1.4,0.2,1.9-0.2c0.6-0.4,1-0.9,1.3-1.5c0.7-1.2,1.2-2.5,1.3-3.9c0.2-1.4,0-2.8-0.5-4.1
				C311.9,526.1,311.1,524.9,311.3,523.4z M311.3,523.4c-0.1,1.4,0.6,2.7,1.1,3.9c0.5,1.3,0.7,2.7,0.5,4.1c-0.1,1.4-0.6,2.7-1.3,3.9
				c-0.4,0.6-0.7,1.2-1.4,1.6c-0.6,0.4-1.4,0.4-2.1,0.2c-2.8-0.5-5.1-2.4-6.9-4.5c-0.9-1-1.8-2.1-2.7-3.2c-0.9-1.1-1.7-2.1-2.6-3.3
				c-0.4-0.6-0.7-1.3-0.8-2c0-0.7,0.1-1.4,0.1-2.1l0.3-4.1c0.1-0.7,0.1-1.4,0.4-2.1c0.2-0.7,0.8-1.3,1.5-1.5
				c0.7-0.2,1.4-0.1,2.1-0.1c0.7,0,1.4,0,2.1-0.1c1.4-0.1,2.8-0.3,4.1-0.2c1.4,0.1,2.8,0.6,3.8,1.6c1,1,1.5,2.4,1.7,3.7
				C311.5,520.7,311.5,522.1,311.3,523.4z"/>
		</g>
		<g>
			<path class="st2" d="M295.5,521.9c-0.9-0.5-2.1,0.3-2.4,1.3c-0.3,1,0,2.1,0.1,3.2c0.3,1.9,0.3,3.9-0.1,5.7
				c-0.5,2.4-1.5,4.6-1.7,7s0.7,5.2,3,6.1c0.8,0.3,1.9,0.5,2.2,1.4c0.3,0.9-0.7,1.8-0.9,2.7c-0.3,1,0.2,2,1,2.7
				c0.8,0.6,1.8,1,2.7,1.2c5.4,1.3,11,0.7,16.6,0.1c0.8-0.1,1.5-0.2,2.2-0.5c1.9-0.8,2.9-2.8,3.1-4.9c0.5-3.8-1.2-7.5-3.1-10.8
				c-2-3.3-4.3-6.4-5.4-10c-0.7-2.3-1.1-4.9-3-6.4c-1.9-1.5-4.6-1.1-7-0.6C300.2,520.7,297.5,521.3,295.5,521.9z"/>
			<path class="st11" d="M295.5,521.9c-0.5-0.3-1.1-0.1-1.6,0.2c-0.5,0.3-0.8,0.8-0.9,1.4c-0.2,1.1,0.1,2.2,0.3,3.3
				c0.3,2.2,0.1,4.5-0.5,6.7c-0.6,2.2-1.4,4.3-1.4,6.5c0,1.1,0.3,2.2,0.8,3.2c0.5,1,1.4,1.7,2.4,2c0.5,0.2,1.1,0.3,1.6,0.8
				c0.5,0.4,0.5,1.2,0.2,1.8c-0.2,0.5-0.6,1-0.8,1.5c-0.2,0.5-0.1,1,0.1,1.5c0.4,1,1.4,1.6,2.4,2c1,0.3,2.2,0.5,3.3,0.7
				c4.4,0.6,8.9,0.2,13.4-0.2c1.1-0.1,2.3-0.1,3.2-0.6c1-0.4,1.7-1.3,2.2-2.3c1-2,0.9-4.3,0.4-6.5c-0.5-2.2-1.5-4.2-2.6-6.1
				c-1.1-1.9-2.4-3.8-3.5-5.8c-1.1-1.9-2-4.1-2.6-6.3c-0.3-1.1-0.6-2.2-1.1-3.1c-0.5-1-1.3-1.8-2.3-2.2c-1-0.4-2.1-0.5-3.3-0.5
				c-1.1,0.1-2.2,0.3-3.3,0.5L295.5,521.9z M295.5,521.9l6.6-1.6c1.1-0.3,2.2-0.5,3.3-0.6c1.1-0.1,2.3,0,3.4,0.4
				c1.1,0.4,1.9,1.3,2.5,2.3c0.5,1,0.8,2.1,1.2,3.2c0.5,2.2,1.4,4.2,2.6,6.2c1.1,1.9,2.4,3.8,3.5,5.7c1.1,1.9,2.1,4,2.7,6.2
				c0.5,2.2,0.6,4.6-0.4,6.7c-0.5,1-1.3,2-2.4,2.5c-1.1,0.5-2.3,0.5-3.4,0.6c-4.5,0.4-9,0.8-13.5,0.1c-1.1-0.2-2.2-0.4-3.3-0.8
				c-1.1-0.4-2.2-1-2.6-2.2c-0.2-0.5-0.3-1.2-0.1-1.8c0.2-0.6,0.6-1,0.8-1.5c0.2-0.5,0.2-1-0.2-1.4c-0.4-0.4-0.9-0.5-1.4-0.7
				c-1.1-0.3-2.1-1.2-2.6-2.2c-0.6-1-0.8-2.2-0.9-3.3c0-2.3,0.8-4.5,1.4-6.6c0.6-2.1,0.9-4.4,0.6-6.6c-0.1-1.1-0.5-2.2-0.2-3.4
				c0.1-0.6,0.5-1.1,0.9-1.4C294.4,521.7,295,521.6,295.5,521.9z"/>
		</g>
		<g>
			<path class="st12" d="M296.3,526.5c2.3-1.3,4.8-2.3,7.4-2.8c1.3-0.2,2.6-0.4,4-0.3c1.3,0.1,2.7,0.3,3.9,0.8
				c-1.3-0.3-2.6-0.4-3.9-0.4c-1.3,0-2.6,0.1-3.9,0.4C301.2,524.6,298.8,525.5,296.3,526.5z"/>
		</g>
		<g>
			<path class="st12" d="M298.2,528.9c2.1-1.4,4.4-2.5,6.9-3.1c1.2-0.3,2.5-0.4,3.8-0.3c1.3,0.1,2.5,0.4,3.7,1
				c-2.4-0.8-4.9-0.8-7.3-0.2C302.7,526.9,300.5,527.9,298.2,528.9z"/>
		</g>
		<g>
			<path class="st12" d="M300,531.1c1.9-1.2,4.1-2.1,6.4-2.6c1.1-0.2,2.3-0.4,3.4-0.5c1.1-0.1,2.4-0.1,3.4,0.6
				c-1.1-0.4-2.2-0.3-3.3-0.2c-1.1,0.1-2.2,0.3-3.4,0.6c-1.1,0.2-2.2,0.5-3.3,0.9C302.1,530.2,301,530.6,300,531.1z"/>
		</g>
		<g>
			<path class="st12" d="M301.6,533.6c1.9-0.6,3.6-1.4,5.5-2c0.9-0.3,1.9-0.5,2.9-0.5c1,0,2,0.1,2.9,0.6c-1.9-0.5-3.9-0.1-5.7,0.4
				C305.4,532.6,303.6,533.4,301.6,533.6z"/>
		</g>
		<g>
			<path class="st12" d="M304.5,536.1c0.9-0.9,2.1-1.4,3.3-1.7c1.2-0.3,2.5-0.3,3.8,0.1c-1.3,0-2.5,0.1-3.6,0.4
				C306.8,535.1,305.7,535.5,304.5,536.1z"/>
		</g>
		<path class="st12" d="M292.9,533.2c1.8,0.5,2.9,2.2,3.5,3.9s1,3.5,2.1,4.9c1.3,1.7,3.5,2.6,5.6,2.4c2.6-0.3,4.9-2.1,7.5-2.1
			c1.6,0,3.1,0.7,4.7,0.7c1.6,0,3.4-1.3,1.9-4.6c0,1.5-1.5,2.9-3.1,2.7c-1.4-0.2-2.4-1.4-3.8-1.7c-2.9-0.7-5.5,2.9-8.4,2.2
			c-2-0.4-3-2.6-3.8-4.4C298.1,534.8,296.3,532.1,292.9,533.2z"/>
		<g>
			<path class="st12" d="M291.1,539c0,0,4.2,4.9,6.8,4.2c-0.2,2.6-0.1,5.7,2,7c1.5,1,3.4,0.4,4.9-0.7c1.4-1.1,2.6-2.6,4-3.7
				c1.4-1.1,3.3-1.8,4.9-0.9c1.4,0.8,2.1,2.6,3.1,4s2.9,2.5,4.1,1.3c0,0-0.1,3.8-9.6,4.1s-12.2,0.2-15.6-2.7c0,0-1.6-1.5,0-3.4
				c1.2-1.4,0.6-2.2-0.9-2.6C293.3,545.2,290.5,544.1,291.1,539z"/>
			<path class="st13" d="M291.1,539c0.9,1,1.9,2,3,2.8c0.6,0.4,1.1,0.8,1.8,1c0.6,0.3,1.3,0.4,2,0.3l0.1,0l0,0.1
				c-0.1,1.4-0.1,2.8,0.2,4.1c0.2,0.7,0.4,1.3,0.8,1.9c0.4,0.5,0.9,1,1.6,1.2c1.3,0.4,2.7-0.1,3.8-0.8c1.1-0.8,2-1.8,3.1-2.8
				c1-1,2.2-1.9,3.6-2.3c0.7-0.2,1.5-0.2,2.2,0.1c0.7,0.2,1.3,0.7,1.8,1.3c0.9,1.1,1.4,2.5,2.3,3.4c0.5,0.5,1,0.9,1.6,1.1
				c0.6,0.2,1.3,0.1,1.7-0.3l0.5-0.5l-0.1,0.7c-0.1,1.1-0.9,1.8-1.6,2.3c-0.8,0.5-1.6,0.9-2.5,1.2c-1.8,0.5-3.6,0.7-5.4,0.8
				c-1.8,0.1-3.6,0.1-5.4,0.1c-1.8,0-3.6,0-5.4-0.4c-0.9-0.2-1.8-0.4-2.6-0.8c-0.8-0.4-1.6-0.9-2.3-1.5c-0.8-0.5-1.2-1.6-1-2.5
				c0.1-0.5,0.3-0.9,0.6-1.2c0.3-0.3,0.6-0.7,0.6-1.1c0.1-0.4-0.1-0.8-0.5-1c-0.4-0.2-0.8-0.4-1.2-0.5c-0.9-0.3-1.7-0.8-2.3-1.5
				C291,542.7,290.9,540.7,291.1,539z M291.1,539c-0.2,1.8,0,3.7,1.1,5.1c0.6,0.7,1.4,1.1,2.2,1.4c0.4,0.1,0.9,0.2,1.3,0.5
				c0.4,0.2,0.7,0.7,0.6,1.2c-0.1,0.5-0.4,0.9-0.7,1.2c-0.3,0.3-0.5,0.7-0.6,1.1c-0.2,0.8,0.2,1.7,0.9,2.2c1.4,1.1,3,1.9,4.8,2.2
				c1.8,0.3,3.6,0.3,5.4,0.3c1.8,0,3.6-0.1,5.4-0.2c1.8-0.1,3.6-0.3,5.3-0.8c0.8-0.3,1.7-0.6,2.4-1.1c0.7-0.5,1.3-1.2,1.4-2l0.4,0.2
				c-0.6,0.6-1.5,0.7-2.2,0.4c-0.7-0.2-1.3-0.7-1.8-1.2c-1-1.1-1.5-2.4-2.3-3.5c-0.4-0.5-0.9-1-1.6-1.2c-0.6-0.2-1.3-0.2-1.9-0.1
				c-1.3,0.3-2.4,1.2-3.4,2.1c-1,1-1.9,2-3.1,2.8c-1.2,0.8-2.7,1.3-4.1,0.8c-0.7-0.2-1.3-0.7-1.7-1.3c-0.4-0.6-0.7-1.3-0.8-2
				c-0.3-1.4-0.3-2.8-0.2-4.2l0.1,0.1c-0.7,0.2-1.4,0-2.1-0.3c-0.6-0.3-1.2-0.7-1.8-1.1C293,541,292,540,291.1,539z"/>
		</g>
	</g>
</g>
</svg>
