<?xml version="1.0" encoding="utf-8"?>
<!-- Generator: Adobe Illustrator 24.2.3, SVG Export Plug-In . SVG Version: 6.00 Build 0)  -->
<svg version="1.1" id="tenue_x5F_feminine_x5F_7" xmlns="http://www.w3.org/2000/svg" xmlns:xlink="http://www.w3.org/1999/xlink"
	 x="0px" y="0px" viewBox="0 0 553 574" style="enable-background:new 0 0 553 574;" xml:space="preserve">
<style type="text/css">
	.st0{fill:none;}
	.st1{fill:#C4BCBC;}
	.st2{fill:#A8A4A3;}
	.st3{fill:#6D6A69;}
	.st4{fill:#545253;}
	.st5{fill:#383636;}
	.st6{fill:none;stroke:#000000;stroke-width:0.5;stroke-linecap:round;stroke-linejoin:round;stroke-miterlimit:10;}
	.st7{fill:#EDE2E2;}
	.st8{fill:#807778;}
	.st9{fill:#F5803E;}
	.st10{fill:#A34822;}
	.st11{fill:#807778;stroke:#6D6A69;stroke-width:0.5;stroke-miterlimit:10;}
	.st12{fill:#9F9495;}
	.st13{fill:#BAB1B1;stroke:#9F9495;stroke-width:0.5;stroke-miterlimit:10;}
	.st14{fill:#BAB1B1;}
</style>
<g id="cadre_8_">
	<rect x="0" class="st0" width="553" height="574"/>
</g>
<g>
	<g>
		<g>
			<path class="st1" d="M293.8,509.3c0.5,5.8,0.9,11.8-1.7,17.1c-0.6,1.1-0.6,5.7-0.9,7c-0.3,1.2-0.2,2.6,0.8,3.5
				c1,1,2.8,1.2,3.7,2.3c0.5,0.6,0.7,1.4,0.8,2.1c0.5,2.1,1.3,4.2,2.4,6.1c0.4,0.7,0.8,1.4,1.6,1.9c0.6,0.4,1.4,0.6,2.2,0.7
				c6,1.1,12.5,0,17.8-2.8c1.2-0.7,2.5-1.5,2.9-2.8c0.6-1.5-0.2-3.2-1.4-4.4c-1.2-1.2-2.7-2-4.1-3.1c-5.2-4.1-6.6-10.7-7.3-16.9
				c-0.5-4.8-0.8-9.5-0.9-14.3c-5.4,0.6-11.4-1.6-16.4,0.4C293.1,507.1,293.7,508.1,293.8,509.3z"/>
			<path class="st2" d="M293.8,509.3c0.4,4.6,0.8,9.4-0.4,13.9c-0.3,1.1-0.7,2.2-1.2,3.3c-0.4,1.1-0.4,2.3-0.5,3.4
				c-0.1,1.2-0.1,2.3-0.4,3.5c-0.3,1.1-0.2,2.4,0.6,3.2c0.8,0.9,2,1.1,3,1.7c0.5,0.3,1,0.7,1.3,1.3c0.3,0.5,0.4,1.1,0.5,1.7
				c0.6,2.3,1.4,4.4,2.6,6.4c0.3,0.5,0.6,0.9,1.1,1.3c0.4,0.3,1,0.5,1.5,0.7c1.1,0.3,2.3,0.4,3.4,0.5c2.3,0.2,4.6,0,6.9-0.4
				c2.3-0.4,4.5-1.1,6.6-2.1c1-0.5,2.1-1,3-1.7c0.9-0.7,1.6-1.7,1.5-2.8c-0.1-1.1-0.7-2.1-1.4-2.9c-0.8-0.8-1.7-1.5-2.7-2.1
				c-2-1.3-3.7-3-4.9-5c-2.5-4-3.3-8.8-3.8-13.4c-0.5-4.6-0.8-9.3-0.8-14l0.1,0.1c-2.8,0.3-5.5-0.1-8.2-0.3
				c-2.7-0.2-5.5-0.4-8.1,0.6l0,0c-0.1,0.5,0,1.1,0.1,1.6C293.6,508.2,293.8,508.7,293.8,509.3z M293.8,509.3c0-0.5-0.2-1.1-0.4-1.6
				c-0.1-0.5-0.3-1.1-0.2-1.6l0,0l0,0c2.6-1,5.4-0.9,8.2-0.7c2.7,0.2,5.5,0.6,8.2,0.3l0.1,0l0,0.1c0.1,4.7,0.4,9.3,0.9,14
				c0.5,4.6,1.4,9.3,3.9,13.2c1.2,2,2.9,3.6,4.9,4.9c1,0.7,1.9,1.3,2.8,2.2c0.8,0.9,1.5,2,1.6,3.2c0,0.6-0.1,1.3-0.4,1.8
				c-0.3,0.5-0.8,1-1.2,1.4c-1,0.7-2,1.3-3.1,1.8c-2.1,1-4.4,1.7-6.7,2.1c-2.3,0.4-4.7,0.5-7,0.3c-1.2-0.1-2.3-0.2-3.5-0.5
				c-0.6-0.1-1.2-0.4-1.6-0.7c-0.5-0.4-0.9-0.9-1.2-1.4c-1.2-2-2-4.2-2.6-6.5c-0.1-0.6-0.2-1.1-0.5-1.6c-0.2-0.5-0.7-0.9-1.2-1.2
				c-1-0.6-2.2-0.9-3-1.8c-0.8-0.9-0.9-2.3-0.6-3.4c0.2-1.1,0.3-2.3,0.4-3.5c0.1-1.2,0.1-2.3,0.5-3.5c0.5-1.1,0.9-2.1,1.3-3.3
				C294.5,518.7,294.2,513.9,293.8,509.3z"/>
		</g>
		<g>
			<path class="st3" d="M310,518.5c-1.7-0.5-3.4-0.7-5.1-0.4c-1.7,0.2-3.3,0.8-4.8,1.7l0.1-0.2c0.1,1.4,0.2,2.8,0.3,4.3
				c0.1,1.4,0.1,2.9,0.1,4.3c-0.2-1.4-0.4-2.8-0.5-4.3c-0.2-1.4-0.3-2.9-0.4-4.3l0-0.1l0.1-0.1c1.5-1,3.2-1.5,5-1.7
				C306.6,517.5,308.4,517.7,310,518.5z"/>
		</g>
		<g>
			<path class="st4" d="M311.4,525.8c-3.7,0.1-7.4,0.6-10.6,2.2c-1,0.5-2,1.1-2.4,2.1c-0.4,1,0.3,2.3,1.4,2.3
				c0.8,0.1,1.5-0.5,2.1-0.9c2.9-2,6.7-2.9,10.3-2.3C312.2,528.2,311.9,527.2,311.4,525.8z"/>
			<path class="st5" d="M311.4,525.8c-2.5,0.2-5.1,0.5-7.5,1.2c-1.2,0.4-2.4,0.8-3.5,1.4c-0.5,0.3-1.1,0.7-1.4,1.1
				c-0.4,0.5-0.6,1-0.4,1.6c0.1,0.5,0.6,1,1.1,1c0.5,0.1,1.1-0.2,1.6-0.5c1-0.7,2.2-1.4,3.4-1.9c2.4-0.9,5.1-1.2,7.6-0.7l-0.1,0.1
				C312.1,528,311.7,526.9,311.4,525.8z M311.4,525.8c0.4,1.1,0.8,2.2,1,3.3l0,0.1l-0.1,0c-2.5-0.3-5.1,0-7.4,0.9
				c-1.2,0.5-2.2,1.1-3.3,1.8c-0.5,0.4-1.2,0.7-1.9,0.6c-0.8-0.1-1.3-0.7-1.5-1.4c-0.1-0.3-0.1-0.7,0-1.1c0.1-0.4,0.3-0.7,0.5-0.9
				c0.4-0.5,1-0.9,1.6-1.2c1.2-0.6,2.4-1,3.6-1.4C306.3,526,308.9,525.8,311.4,525.8z"/>
		</g>
		<g>
			<path class="st4" d="M315.4,533.7c-2,0.1-4,0.3-6.1,0.5c-1.4,0.2-2.8,0.4-4.1,1c-1.2,0.6-2.3,1.7-2.4,2.9
				c-0.1,0.6,0.1,1.2,0.7,1.6c0.8,0.4,1.8,0,2.6-0.5c3.4-1.8,7.4-2.8,11.3-2.1C316.7,536,315.9,534.9,315.4,533.7z"/>
			<path class="st5" d="M315.4,533.7l-3.8,0.4c-1.3,0.2-2.5,0.2-3.7,0.5c-1.2,0.2-2.5,0.6-3.4,1.4c-0.5,0.4-0.9,0.8-1.1,1.4
				c-0.2,0.5-0.3,1.2-0.1,1.6c0.2,0.5,0.8,0.7,1.4,0.6c0.6-0.1,1.1-0.4,1.7-0.7c1.1-0.6,2.3-1.1,3.6-1.4c2.5-0.7,5.1-0.9,7.6-0.4
				l-0.1,0.2C316.6,536,315.9,534.9,315.4,533.7z M315.4,533.7c0.6,1.2,1.4,2.2,2.1,3.4l0.1,0.2l-0.3,0c-2.5-0.4-5.1-0.1-7.5,0.6
				c-1.2,0.4-2.4,0.8-3.5,1.4c-0.6,0.3-1.1,0.6-1.8,0.8c-0.3,0.1-0.7,0.1-1.1-0.1c-0.4-0.1-0.7-0.4-0.8-0.8c-0.3-0.7-0.2-1.4,0.1-2
				c0.3-0.6,0.8-1.1,1.3-1.5c1.1-0.8,2.4-1.2,3.6-1.4c1.3-0.2,2.6-0.3,3.8-0.4L315.4,533.7z"/>
		</g>
		<g>
			<path class="st3" d="M302,532.1c0.6,0.3,1.1,0.7,1.5,1.1c0.4,0.5,0.8,1,1,1.6c-0.5-0.4-1-0.8-1.4-1.2
				C302.7,533.1,302.3,532.7,302,532.1z"/>
		</g>
		<g>
			<path class="st3" d="M293.5,530.4c-0.4,0.8-0.3,1.8,0.1,2.6c0.4,0.8,0.9,1.5,1.6,2.1c1.3,1.2,2.9,2.2,3.8,3.8
				c0.9,1.7,0.5,3.6,1.1,5.2c0.3,0.8,0.8,1.5,1.5,1.9c0.7,0.4,1.6,0.5,2.5,0.6c3.5,0.4,7.1,0,10.5-0.9c1.7-0.5,3.4-1.1,4.9-2.1
				c0.7-0.5,1.4-1.1,1.8-1.9c0.4-0.8,0.6-1.7,0.4-2.6c0.3,0.9,0.1,1.8-0.3,2.6c-0.4,0.8-1,1.5-1.8,2c-1.5,1.1-3.2,1.7-4.9,2.2
				c-3.4,1.1-7.1,1.4-10.7,1.1c-0.9-0.1-1.8-0.2-2.7-0.6c-0.9-0.5-1.4-1.3-1.7-2.2c-0.6-1.8-0.3-3.7-1-5.2c-0.8-1.6-2.3-2.6-3.6-3.8
				c-0.6-0.6-1.2-1.4-1.5-2.2C293.2,532.2,293.1,531.2,293.5,530.4z"/>
		</g>
	</g>
	<g>
		<g>
			<path class="st1" d="M260.4,512.8c-0.5,5.8-0.9,11.8,1.7,17.1c0.6,1.1,1.3,2.2,1.6,3.5c0.3,1.2,0.2,2.6-0.8,3.5
				c-1,1-2.8,1.2-3.7,2.3c-0.5,0.6-0.7,1.4-0.8,2.1c-0.5,2.1-1.3,4.2-2.4,6.1c-0.4,0.7-0.8,1.4-1.6,1.9c-0.6,0.4-1.4,0.6-2.2,0.7
				c-6,1.1-12.5,0-17.8-2.8c-1.2-0.7-2.5-1.5-2.9-2.8c-0.6-1.5,0.2-3.2,1.4-4.4c1.2-1.2,2.7-2,4.1-3.1c5.2-4.1,6.6-10.7,7.3-16.9
				c0.5-4.8,0.8-9.5,0.9-14.3c5.4,0.6,10.7,1.9,15.7,3.9C261.1,510.6,260.5,511.6,260.4,512.8z"/>
			<path class="st2" d="M260.4,512.8c-0.4,4.5-0.7,9.1,0.4,13.5c0.3,1.1,0.7,2.2,1.1,3.2c0.5,1,1.1,2,1.5,3c0.4,1,0.6,2.3,0.2,3.4
				c-0.2,0.5-0.6,1-1.1,1.4c-0.5,0.3-1,0.6-1.5,0.8c-0.5,0.2-1,0.5-1.4,0.8c-0.4,0.3-0.7,0.8-0.9,1.4c-0.3,1.1-0.5,2.2-0.9,3.3
				c-0.4,1.1-0.8,2.1-1.3,3.2c-0.5,1-1,2.1-2.1,2.8c-1,0.6-2.2,0.7-3.3,0.9c-1.1,0.1-2.3,0.2-3.4,0.3c-2.3,0-4.6-0.2-6.8-0.7
				c-2.2-0.5-4.4-1.3-6.4-2.4c-1-0.5-2-1.1-2.8-2.1c-0.4-0.5-0.6-1.1-0.7-1.7c-0.1-0.6,0.1-1.2,0.3-1.8c0.4-1.1,1.3-2,2.1-2.7
				c0.9-0.7,1.9-1.3,2.8-2c1.8-1.3,3.3-3,4.5-5c2.3-3.9,3-8.5,3.5-13c0.5-4.5,0.8-9,0.8-13.6l0-0.1l0.1,0c5.4,0.6,10.7,1.9,15.7,3.9
				l0,0l0,0c0.1,0.5,0,1.1-0.2,1.6C260.6,511.7,260.5,512.2,260.4,512.8z M260.4,512.8c0-0.5,0.2-1.1,0.3-1.6
				c0.1-0.5,0.3-1.1,0.1-1.6l0,0c-5-1.9-10.3-3.2-15.7-3.8l0.1-0.1c0,4.5-0.3,9.1-0.7,13.6c-0.5,4.5-1.2,9.1-3.4,13.1
				c-1.1,2-2.7,3.8-4.5,5.1c-0.9,0.7-1.9,1.3-2.7,2c-0.9,0.7-1.6,1.6-2,2.6c-0.4,1-0.3,2.1,0.3,3c0.6,0.9,1.6,1.5,2.6,2
				c2,1.1,4.1,1.9,6.3,2.4c2.2,0.5,4.4,0.8,6.7,0.8c1.1,0,2.3-0.1,3.4-0.2c1.1-0.2,2.3-0.3,3.2-0.8c0.9-0.6,1.4-1.6,2-2.6
				c0.5-1,1-2,1.3-3.1c0.4-1.1,0.6-2.2,0.9-3.3c0.2-0.6,0.5-1.1,1-1.5c0.5-0.4,1-0.6,1.5-0.8c1-0.4,2.1-1,2.5-2
				c0.4-1,0.3-2.2-0.2-3.2c-0.4-1-1-2-1.5-3c-0.5-1-0.9-2.1-1.1-3.2C259.6,521.9,260,517.3,260.4,512.8z"/>
		</g>
		<g>
			<path class="st3" d="M244.9,518.5c1.6-0.7,3.4-1,5.1-0.8c1.8,0.2,3.5,0.7,5,1.7l0.1,0.1l0,0.1c-0.1,1.4-0.2,2.9-0.4,4.3
				c-0.1,1.4-0.3,2.8-0.5,4.3c0-1.4,0.1-2.9,0.1-4.3c0.1-1.4,0.2-2.8,0.3-4.3l0.1,0.2c-1.4-0.9-3.1-1.5-4.8-1.7
				C248.3,517.8,246.5,517.9,244.9,518.5z"/>
		</g>
		<g>
			<path class="st4" d="M243.5,525.8c3.7,0.1,7.4,0.6,10.6,2.2c1,0.5,2,1.1,2.4,2.1c0.4,1-0.3,2.3-1.4,2.3c-0.8,0.1-1.5-0.5-2.1-0.9
				c-2.9-2-6.7-2.9-10.3-2.3C242.7,528.2,243,527.2,243.5,525.8z"/>
			<path class="st5" d="M243.5,525.8c2.5,0,5.1,0.2,7.6,0.9c1.2,0.3,2.5,0.8,3.6,1.4c0.6,0.3,1.1,0.7,1.6,1.2
				c0.2,0.3,0.4,0.6,0.5,0.9c0.1,0.4,0.1,0.7,0,1.1c-0.2,0.7-0.8,1.3-1.5,1.4c-0.8,0.1-1.4-0.3-1.9-0.6c-1-0.8-2.1-1.4-3.3-1.8
				c-2.3-0.9-4.9-1.2-7.4-0.9l-0.1,0l0-0.1C242.7,528,243.1,526.9,243.5,525.8z M243.5,525.8c-0.3,1.1-0.7,2.2-0.8,3.4l-0.1-0.1
				c2.5-0.5,5.2-0.2,7.6,0.7c1.2,0.4,2.4,1.1,3.4,1.9c0.5,0.3,1.1,0.6,1.6,0.5c0.5-0.1,1-0.5,1.1-1c0.2-0.5,0-1.1-0.4-1.6
				c-0.4-0.5-0.9-0.8-1.4-1.1c-1.1-0.6-2.3-1-3.5-1.4C248.6,526.3,246,526,243.5,525.8z"/>
		</g>
		<g>
			<path class="st4" d="M239.6,533.7c2,0.1,4,0.3,6.1,0.5c1.4,0.2,2.8,0.4,4.1,1c1.2,0.6,2.3,1.7,2.4,2.9c0.1,0.6-0.1,1.2-0.7,1.6
				c-0.8,0.4-1.8,0-2.6-0.5c-3.4-1.8-7.4-2.8-11.3-2.1C238.2,536,239,534.9,239.6,533.7z"/>
			<path class="st5" d="M239.6,533.7l3.8,0.2c1.3,0.1,2.6,0.1,3.8,0.4c1.3,0.2,2.6,0.5,3.6,1.4c0.5,0.4,1,0.9,1.3,1.5
				c0.3,0.6,0.4,1.4,0.1,2c-0.2,0.3-0.5,0.6-0.8,0.8c-0.4,0.1-0.7,0.1-1.1,0.1c-0.7-0.1-1.3-0.5-1.8-0.8c-1.1-0.6-2.3-1.1-3.5-1.4
				c-2.4-0.7-5-1-7.5-0.6l-0.3,0l0.1-0.2C238.2,535.9,239,534.9,239.6,533.7z M239.6,533.7c-0.5,1.2-1.3,2.3-1.9,3.5l-0.1-0.2
				c2.5-0.5,5.2-0.3,7.6,0.4c1.2,0.4,2.4,0.8,3.6,1.4c0.6,0.3,1.1,0.6,1.7,0.7c0.6,0.1,1.1-0.1,1.4-0.6c0.2-0.5,0.2-1.1-0.1-1.6
				c-0.2-0.5-0.7-1-1.1-1.4c-1-0.8-2.2-1.1-3.4-1.4c-1.2-0.3-2.5-0.3-3.7-0.5L239.6,533.7z"/>
		</g>
		<g>
			<path class="st3" d="M252.9,532.1c-0.3,0.5-0.7,1-1.1,1.4c-0.4,0.4-0.8,0.9-1.4,1.2c0.2-0.6,0.6-1.1,1-1.6
				C251.8,532.8,252.3,532.4,252.9,532.1z"/>
		</g>
		<g>
			<path class="st3" d="M261.4,530.4c0.5,0.8,0.4,1.8,0,2.6c-0.3,0.8-0.9,1.6-1.5,2.2c-1.3,1.2-2.8,2.3-3.6,3.8
				c-0.8,1.6-0.4,3.4-1,5.2c-0.3,0.9-0.9,1.7-1.7,2.2c-0.9,0.4-1.8,0.5-2.7,0.6c-3.6,0.3-7.2,0-10.7-1.1c-1.7-0.6-3.4-1.2-4.9-2.2
				c-0.7-0.5-1.4-1.2-1.8-2c-0.4-0.8-0.5-1.8-0.3-2.6c-0.2,0.9-0.1,1.8,0.4,2.6c0.4,0.8,1.1,1.4,1.8,1.9c1.5,1,3.2,1.6,4.9,2.1
				c3.4,1,7,1.3,10.5,0.9c0.9-0.1,1.8-0.2,2.5-0.6c0.7-0.4,1.3-1.1,1.5-1.9c0.6-1.6,0.2-3.5,1.1-5.2c0.9-1.7,2.5-2.6,3.8-3.8
				c0.6-0.6,1.2-1.3,1.6-2.1C261.7,532.2,261.8,531.2,261.4,530.4z"/>
		</g>
	</g>
	<path class="st6" d="M317.3,217.4c-3.9,4.9-8.3,9.3-13.1,13.3c-3.4,2.8-7.2,5.4-11.4,6.9c-5.6,2-11.6,1.9-17.5,1.6
		c-3.8-0.2-7.6-0.5-11.4-1.3c-4.8-1-9.5-2.7-13.8-5.1c-6.3-3.5-11.8-8.7-14.6-15.2"/>
	<g>
		<path class="st7" d="M324,209c10.3,6.5,17.6,16.8,22.3,27.8s7.2,22.8,9.6,34.5c1.2,5.9,2.4,11.7,3.6,17.6
			c2.6,12.5,5.2,25.1,5.6,37.7c-0.2,2.8-0.3,5.7-0.5,8.5c-0.1,1-0.2,2.1-1.1,2.6c-0.5,0.3-1,0.3-1.6,0.3c-4.8,0.1-13.2-0.2-17.9-0.1
			c-0.2-3.2-0.2-6.5,0.2-9.4c-4.9-9.9-5.1-19.9-7.9-30.5c-2.8-10.9-4.7-22.5-11.5-31.6c-0.3,30,0.8,60.1,3.1,90
			c0.9,48.6-2.9,97.2-6.8,145.8c-0.1,1.2-0.2,2.5-1,3.4c-0.6,0.8-1.6,1.2-2.6,1.6c-10.6,4.4-22.6,8.7-33.5,4.3
			c-6.8-27.1-11.1-54.8-13.5-82.6c-5.4,21.9-1.1,45.1-5.6,67.2c-1.4,7.1-3.7,14.8-0.4,21.2c-12.5,4.7-27.3,2.8-38.5-4.7
			c-8.7-81.7-7.5-164.3,1.8-245.8c-5.8,11.6-4.6,22.4-10.4,33.9c-4.9,9.8-10,20.4-9,31.9c0.2,2.6-2.1,4.8-4.8,4.3
			c-6.3-1-14.4-1.8-18.5-2.3c-1.4-29.5,2.9-59.3,12.8-87.2c5.1-14.6,12.9-29.8,28-35.2c16.6,1.2,33.1,2.4,49.7,3.6
			c9,0.6,18.1,1.3,27,0C310.2,214.9,317.2,212.6,324,209z"/>
		<path class="st1" d="M324,209c4.5,2.9,8.5,6.5,11.9,10.6c3.4,4.1,6.3,8.7,8.7,13.4c4.7,9.6,7.5,20,9.7,30.5
			c2.2,10.5,4.4,20.9,6.5,31.4c2.1,10.5,4,21,4.3,31.7l0,0l-0.4,7.7c0,0.6,0,1.3-0.2,1.9c-0.1,0.6-0.5,1.3-1.1,1.6
			c-0.6,0.3-1.3,0.2-1.9,0.2l-1.9,0c-5.2,0-10.3-0.2-15.5-0.1l-0.1,0l0-0.1c-0.2-3.1-0.2-6.3,0.2-9.4l0,0
			c-2.4-4.9-3.8-10.2-4.9-15.6c-1-5.4-1.9-10.7-3.3-16c-1.3-5.3-2.5-10.6-4.1-15.8c-1.6-5.2-3.8-10.3-7.1-14.6l0.2-0.1
			c-0.2,23.1,0.4,46.2,1.7,69.3c2.2,23,1.7,46.2,1,69.3c-0.8,23.1-2.3,46.2-4.1,69.2l-1.3,17.3l-0.7,8.6l-0.2,2.2
			c-0.1,0.7-0.1,1.5-0.4,2.2c-0.2,0.7-0.7,1.4-1.3,1.8c-0.6,0.4-1.3,0.7-2,1c-5.3,2.2-10.8,4.3-16.5,5.4c-2.8,0.6-5.8,0.9-8.7,0.7
			c-2.9-0.1-5.8-0.7-8.5-1.8l-0.1,0l0-0.1c-6.8-27.1-11.2-54.8-13.6-82.6l0.4,0c-1.7,7.2-2.5,14.6-2.8,22
			c-0.3,7.4-0.3,14.9-0.5,22.3c-0.2,7.4-0.7,14.9-2.2,22.2c-0.7,3.7-1.7,7.3-2,10.9c-0.4,3.6-0.2,7.5,1.5,10.7l0.1,0.2l-0.3,0.1
			c-6.3,2.4-13.2,3.1-19.9,2.2c-6.7-0.8-13.2-3.2-18.8-7l-0.1-0.1l0-0.1c-8.6-81.7-7.5-164.3,1.9-245.9l0.2,0.1
			c-1.8,3.5-3,7.3-3.9,11.2c-0.9,3.9-1.6,7.8-2.5,11.6c-0.9,3.9-2.2,7.7-4,11.2c-1.8,3.5-3.5,7.1-5,10.8c-1.5,3.7-2.7,7.5-3.4,11.4
			c-0.4,1.9-0.6,3.9-0.6,5.9l0,1.5l0.1,1.5c0,0.5,0.1,1,0,1.5c-0.1,0.5-0.2,1-0.4,1.5c-0.5,0.9-1.3,1.6-2.2,2c-0.9,0.4-2,0.3-3,0.1
			c-2-0.3-3.9-0.6-5.9-0.8c-3.9-0.5-7.9-0.9-11.8-1.4l-0.1,0l0-0.1c-0.3-5.6-0.3-11.3-0.2-16.9c0.2-5.6,0.5-11.3,1.1-16.9
			c1.1-11.2,3.1-22.4,5.8-33.3c1.4-5.5,3-10.9,4.7-16.2c1.8-5.4,3.7-10.7,6.2-15.7c2.5-5.1,5.5-9.9,9.3-14.1
			c3.8-4.1,8.6-7.5,13.9-9.3l0,0l0,0l49.4,3.6c8.2,0.6,16.5,1.2,24.7,0.3C308.7,215.4,316.7,212.9,324,209z M324,209
			c-7.3,3.8-15.3,6.4-23.6,7.2c-8.2,0.9-16.5,0.3-24.7-0.3l-49.4-3.5l0,0c-5.3,1.9-10.1,5.2-13.9,9.3c-3.8,4.1-6.8,9-9.3,14
			c-2.5,5.1-4.4,10.4-6.2,15.7c-1.8,5.4-3.4,10.8-4.7,16.2c-2.8,10.9-4.7,22.1-5.8,33.3c-0.5,5.6-0.9,11.2-1.1,16.9
			c-0.1,5.6-0.1,11.3,0.2,16.9l-0.1-0.1c3.9,0.5,7.9,0.9,11.8,1.4c2,0.2,3.9,0.5,5.9,0.8c1,0.2,2,0.3,2.9-0.1c0.9-0.3,1.7-1,2.1-1.9
			c0.2-0.4,0.4-0.9,0.4-1.4c0.1-0.5,0-1,0-1.5l-0.1-1.5l0-1.5c0.1-2,0.2-4,0.6-5.9c0.7-3.9,2-7.7,3.4-11.4c1.5-3.7,3.2-7.3,5-10.8
			c1.8-3.5,3-7.3,3.9-11.2c0.9-3.9,1.6-7.8,2.5-11.6c0.9-3.9,2.2-7.7,3.9-11.2l0.3-0.7l-0.1,0.7c-9.3,81.5-10.4,164.1-1.7,245.8
			l-0.1-0.2c5.5,3.7,12,6.1,18.6,6.9c6.6,0.8,13.4,0.1,19.7-2.2l-0.1,0.3c-1.8-3.4-2-7.3-1.6-11c0.4-3.7,1.3-7.3,2-11
			c1.4-7.3,1.9-14.7,2.1-22.1c0.2-7.4,0.2-14.9,0.5-22.3c0.3-7.4,1.1-14.9,2.8-22.1l0.3-1.4l0.1,1.4c2.4,27.8,6.7,55.5,13.5,82.6
			l-0.1-0.1c5.3,2.2,11.3,2.2,16.9,1.1c5.7-1.1,11.1-3.2,16.4-5.4c0.7-0.3,1.3-0.5,1.9-0.9c0.6-0.4,1-1,1.2-1.6
			c0.4-1.3,0.4-2.8,0.5-4.2l0.7-8.6l1.3-17.3c1.8-23,3.3-46.1,4.1-69.2c0.7-23.1,1.2-46.2-0.9-69.3c-1.3-23.1-1.9-46.2-1.7-69.3
			l0-0.3l0.2,0.2c3.3,4.4,5.5,9.5,7.1,14.7c1.6,5.2,2.8,10.5,4.1,15.8c1.4,5.3,2.3,10.7,3.3,16c1,5.3,2.4,10.7,4.8,15.5l0,0l0,0
			c-0.5,3.1-0.5,6.3-0.2,9.4l-0.1-0.1c5.2-0.1,10.3,0.1,15.5,0.1l1.9,0c0.6,0,1.3,0,1.9-0.2c0.6-0.3,0.9-0.9,1-1.5
			c0.1-0.6,0.1-1.3,0.2-1.9l0.4-7.7l0,0c-0.3-10.7-2.2-21.3-4.3-31.7c-2.2-10.5-4.3-20.9-6.5-31.4c-2.3-10.4-5-20.9-9.7-30.5
			c-2.4-4.8-5.2-9.3-8.6-13.5C332.5,215.6,328.5,211.9,324,209z"/>
	</g>
	<g>
		<path class="st8" d="M216.8,218.8c8.8,13.7,12.7,30.4,10.8,46.5"/>
		<path class="st3" d="M216.8,218.8c2.3,3.4,4.2,6.9,5.8,10.7c1.6,3.7,2.9,7.6,3.8,11.6c0.9,4,1.5,8,1.7,12.1
			c0.2,4.1,0,8.1-0.5,12.2c0.4-4,0.4-8.1,0.2-12.1c-0.3-4-0.9-8.1-1.8-12c-0.9-3.9-2.2-7.8-3.7-11.6
			C220.8,225.9,218.9,222.3,216.8,218.8z"/>
	</g>
	<g>
		<path class="st8" d="M335.2,219.3c-10.2,14.4-14.1,32.9-10.4,50"/>
		<path class="st3" d="M335.2,219.3c-2.5,3.6-4.5,7.5-6.2,11.5c-1.7,4-3,8.2-3.9,12.5c-0.9,4.3-1.4,8.6-1.4,13c0,4.4,0.3,8.7,1.1,13
			c-1-4.3-1.5-8.7-1.5-13c0-4.4,0.4-8.8,1.3-13.1c0.9-4.3,2.3-8.5,4-12.5C330.4,226.6,332.6,222.8,335.2,219.3z"/>
	</g>
	<g>
		<path class="st9" d="M256.2,249.8c-0.3,2.4-0.7,4.7-1,7.1c-5,0.1-10.1,0.3-15.1,0.4c-2.5,0.1-5.7-0.3-6.5-2.6
			c-0.6-1.7,0.6-3.5,2.2-4.4c1.6-0.9,3.5-0.9,5.3-1C246.6,249.1,252.1,248.9,256.2,249.8z"/>
		<path class="st10" d="M256.2,249.8l-0.9,7.1l0,0.1l-0.1,0l-12.1,0.4c-2,0-4,0.3-6.1-0.1c-1-0.2-2.1-0.5-2.8-1.3
			c-0.8-0.8-1.1-2-0.8-3c0.3-1.1,1-1.9,1.8-2.6c0.9-0.6,1.9-0.9,2.9-1.1c2-0.3,4.1-0.3,6.1-0.3C248.2,248.9,252.3,248.9,256.2,249.8
			z M256.2,249.8c-4-0.7-8.1-0.6-12.1-0.5l-3,0.1c-1,0.1-2,0.1-3,0.3c-1,0.2-1.9,0.5-2.7,1.1c-0.8,0.6-1.4,1.4-1.6,2.3
			c-0.2,0.9,0.1,1.9,0.7,2.6c0.7,0.7,1.6,1,2.6,1.2c1.9,0.4,4,0.1,6,0.1l12.1-0.2l-0.1,0.1L256.2,249.8z"/>
	</g>
	<g>
		<path class="st9" d="M254.8,261.5c-0.1,2.3-0.3,4.6-0.4,6.9c-5.9-0.4-11.9-0.7-17.8-1.1c-0.4,0-0.8-0.1-1.1-0.4
			c-0.3-0.3-0.2-0.7-0.2-1.1c0.1-2,0.2-3.9,0.3-5.9C242,260.2,248.4,260.5,254.8,261.5z"/>
		<path class="st10" d="M254.8,261.5l-0.3,6.9l0,0.1l-0.1,0c-4.3-0.2-8.7-0.4-13-0.7l-3.3-0.2l-1.6-0.1c-0.3,0-0.6,0-0.9-0.2
			c-0.3-0.2-0.5-0.5-0.6-0.8c-0.1-0.6,0-1.1,0-1.7l0.1-1.6l0.2-3.3l0-0.2l0.2,0C242,260,248.4,260.3,254.8,261.5z M254.8,261.5
			c-6.4-0.9-12.8-1-19.2-1.3l0.2-0.2l-0.2,3.3l-0.1,1.6c0,0.5-0.1,1.1,0,1.6c0,0.5,0.5,0.6,1,0.6l1.6,0.1l3.3,0.2
			c4.3,0.3,8.7,0.6,13,0.9l-0.1,0.1L254.8,261.5z"/>
	</g>
	<g>
		<path class="st9" d="M247.7,274c1.4,1.2,2.7,2.7,3.6,4.3c-1.3,1.7-3.7,2.7-5.8,2.2c-2.1-0.6-3.7-2.8-3.1-4.9
			C242.9,273.6,245.7,272.4,247.7,274z"/>
		<path class="st10" d="M247.7,274c1.5,1.2,2.7,2.7,3.7,4.3l0,0.1l0,0.1c-1,1.3-2.5,2.3-4.2,2.5c-0.8,0.1-1.7,0-2.5-0.4
			c-0.8-0.4-1.4-1-1.9-1.7c-0.5-0.7-0.7-1.6-0.7-2.4c0-0.9,0.4-1.7,1.1-2.2c0.6-0.6,1.4-0.9,2.3-0.9
			C246.2,273.2,247,273.5,247.7,274z M247.7,274c-0.6-0.5-1.4-0.8-2.3-0.7c-0.8,0-1.6,0.4-2.1,1c-0.6,0.6-0.9,1.3-0.9,2.1
			c0,0.8,0.3,1.5,0.7,2.2c0.9,1.3,2.4,2,4,1.9c1.5-0.1,3.1-0.9,4.1-2.2l0,0.1C250.3,276.8,249.1,275.3,247.7,274z"/>
	</g>
	<g>
		<path class="st9" d="M307.6,242.9c5,3.3,7.7,9.9,5.8,15.5c-1.9,5.6-8.6,9.4-14.4,7.8c-6.5-1.8-9.9-10.1-7.1-16.1
			C294.7,244.2,303.2,240,307.6,242.9z"/>
		<path class="st10" d="M307.6,242.9c2.6,1.7,4.6,4.3,5.6,7.2c1.1,2.9,1.2,6.2-0.1,9.2c-1.2,2.9-3.7,5.2-6.6,6.5
			c-2.9,1.3-6.3,1.4-9.2,0.1c-5.9-2.7-8.4-10.6-5.4-16.2c1.5-2.8,4-4.9,6.7-6.3c1.4-0.7,2.9-1.2,4.4-1.4
			C304.6,241.9,306.3,242.1,307.6,242.9z M307.6,242.9c-1.3-0.8-2.9-1.1-4.5-0.9c-1.5,0.2-3,0.7-4.4,1.4c-2.7,1.4-5.1,3.6-6.5,6.4
			c-2.8,5.5-0.2,13.1,5.4,15.6c2.7,1.3,6.1,1.2,8.8,0c2.8-1.2,5.3-3.4,6.5-6.2c1.3-2.8,1.2-6.1,0.2-9
			C312.1,247.3,310.2,244.7,307.6,242.9z"/>
	</g>
	<g>
		<path class="st9" d="M313.3,291.7c-2.1-5.9-4.5-11.8-7.2-17.5c-0.8-1.7-2-3.6-3.9-3.5c-1.8,0.1-2.8,1.9-3.5,3.5
			c-1.9,4.5-3.9,9-5.8,13.5c-0.9,2.2-1.6,5.2,0.4,6.4c0.8,0.5,1.9,0.5,2.9,0.5c4.9,0,9.7,0,14.6-0.1
			C312.1,294.6,314.2,294,313.3,291.7z"/>
		<path class="st10" d="M313.3,291.7c-2.1-5.8-4.4-11.5-7.1-17c-0.6-1.4-1.4-2.8-2.7-3.5c-0.6-0.3-1.4-0.4-2.1-0.1
			c-0.7,0.3-1.2,0.8-1.6,1.5c-0.8,1.3-1.3,2.7-1.9,4.1l-1.8,4.2l-1.8,4.2c-0.6,1.4-1.3,2.8-1.7,4.2c-0.2,0.7-0.4,1.5-0.3,2.2
			c0,0.7,0.2,1.5,0.7,2c0.5,0.5,1.2,0.8,1.9,0.9c0.7,0.1,1.5,0.1,2.3,0.1l9.2,0.1l4.6,0c0.8,0,1.6-0.2,2.1-0.8
			c0.3-0.3,0.4-0.7,0.4-1C313.5,292.4,313.5,292.1,313.3,291.7z M313.3,291.7c0.1,0.4,0.2,0.7,0.2,1.1c0,0.4-0.2,0.8-0.4,1
			c-0.5,0.6-1.4,0.8-2.1,0.8l-4.6,0l-9.2,0.1c-0.8,0-1.5,0.1-2.3,0c-0.8-0.1-1.6-0.4-2.2-1c-0.6-0.6-0.8-1.4-0.8-2.2
			c0-0.8,0.1-1.6,0.3-2.3c0.2-0.8,0.5-1.5,0.8-2.2l0.9-2.1l1.8-4.2l1.8-4.2l0.9-2.1c0.3-0.7,0.6-1.4,1.1-2.1c0.4-0.7,1-1.3,1.8-1.6
			c0.8-0.3,1.7-0.3,2.4,0.1c1.4,0.8,2.2,2.3,2.8,3.7C309,280.2,311.3,285.9,313.3,291.7z"/>
	</g>
	<path class="st11" d="M280.1,240.2c-2.7,12.3-1.5,25.1-0.8,37.6c1.4,24.5,0.9,49.2-1.7,73.7c-0.1,0.9-0.2,1.8-1,2.3
		c-1.8,1.2-3.5-1.8-3.5-4c-1-36.5-2.1-72.9-3.1-109.4C273,239.7,276.1,239.6,280.1,240.2z"/>
	<g>
		<path class="st3" d="M201.6,330.1c-2.4-0.1-4.8-0.5-7.1-1c-2.3-0.6-4.6-1.4-6.8-2.5c2.3,0.7,4.6,1.4,6.9,2
			C196.9,329.2,199.2,329.6,201.6,330.1z"/>
	</g>
	<g>
		<path class="st8" d="M365,325.9c-5.4,1.4-11,2.1-16.6,2.3"/>
		<path class="st3" d="M365,325.9c-2.7,0.9-5.4,1.4-8.2,1.9c-2.8,0.4-5.6,0.6-8.4,0.5c2.8-0.3,5.6-0.5,8.4-0.9
			C359.5,326.9,362.2,326.4,365,325.9z"/>
	</g>
	<g>
		<path class="st3" d="M223.8,338.1c1.9,6.9,1.5,14.1,1.6,21.2c0,7.1,0,14.2,0.1,21.3c0.1,14.2,0.4,28.5,0.8,42.7
			c0.3,14.2,0.8,28.4,1.5,42.7c0.3,7.1,0.7,14.2,1,21.3c0.4,7.1,0.8,14.2,1.2,21.3c-0.5-7.1-1-14.2-1.4-21.3
			c-0.4-7.1-0.8-14.2-1.1-21.3c-0.7-14.2-1.2-28.4-1.6-42.7c-0.3-14.2-0.5-28.5-0.6-42.7c0-7.1,0-14.2,0-21.3
			C225.1,352.3,225.7,345.1,223.8,338.1z"/>
	</g>
	<g>
		<path class="st3" d="M326.7,338.4c-1.6,0.8-2.8,2.1-3.6,3.7c-0.8,1.6-1.2,3.3-1.5,5c-0.5,3.5-0.1,7,0.1,10.5
			c0.2,3.5,0.4,7,0.5,10.5c0.2,3.5,0.3,7,0.4,10.5c0.4,14,0.5,28,0.2,42c-0.3,14-1,28-2,42c-0.5,7-1.1,14-1.8,20.9
			c-0.7,7-1.5,13.9-2.4,20.9c0.8-7,1.5-13.9,2.1-20.9c0.6-7,1.2-14,1.7-20.9c1-14,1.6-28,1.8-42c0.3-14,0.3-28-0.1-42
			c-0.1-3.5-0.2-7-0.3-10.5c-0.1-3.5-0.3-7-0.5-10.5c-0.1-3.5-0.5-7,0.1-10.5c0.3-1.7,0.7-3.5,1.5-5
			C323.9,340.5,325.1,339.2,326.7,338.4z"/>
	</g>
	<g>
		<path class="st3" d="M282.9,500.9c3.3,0.7,6.7,0.7,10,0.5c3.3-0.3,6.7-0.7,9.9-1.5c6.6-1.4,12.9-3.7,18.9-6.6
			c-1.5,0.8-3,1.6-4.5,2.3c-1.5,0.7-3.1,1.4-4.7,2c-3.2,1.2-6.4,2.1-9.7,2.8c-3.3,0.7-6.6,1.2-10,1.3
			C289.6,501.9,286.2,501.7,282.9,500.9z"/>
	</g>
	<g>
		<path class="st3" d="M261.6,506.3c-2.9,0.7-5.8,1.3-8.8,1.7c-3,0.4-6,0.5-9,0.4c-3-0.2-6-0.6-8.9-1.4c-2.9-0.8-5.7-2-8.2-3.6
			c2.6,1.4,5.5,2.5,8.3,3.2c2.9,0.7,5.8,1.1,8.8,1.2c3,0.2,6,0,8.9-0.3C255.7,507.3,258.7,506.8,261.6,506.3z"/>
	</g>
	<g>
		<path class="st12" d="M317.5,212.4c-0.2,6.1-3.9,11.7-8.7,15.6c-4.8,3.9-10.6,6.4-16.4,8.8c-6.4,2.5-13,5-19.9,4.7
			c-9.8-0.4-18.4-6.1-26.4-11.7c-6.2-4.3-12.7-9.1-14.7-16.2L317.5,212.4z"/>
		<path class="st8" d="M317.5,212.4c-0.1,4.6-2.2,8.9-5.2,12.4c-3,3.5-6.8,6.1-10.9,8.2c-4.1,2.1-8.3,3.7-12.6,5.4
			c-4.3,1.6-8.7,2.9-13.3,3.3c-4.6,0.3-9.2-0.5-13.4-2.3c-4.3-1.7-8.2-4-12-6.6c-3.8-2.6-7.6-5.1-11.1-8c-1.7-1.5-3.4-3.1-4.7-5
			c-1.4-1.8-2.5-3.9-3.1-6.2l-0.1-0.3l0.3,0L317.5,212.4z M317.5,212.4l-86,1.4l0.2-0.3c0.6,2.2,1.7,4.2,3,6c1.4,1.8,3,3.4,4.7,4.9
			c3.4,2.9,7.3,5.5,11,8c3.8,2.5,7.7,4.9,11.9,6.6c4.2,1.7,8.7,2.6,13.3,2.3c4.5-0.3,8.9-1.6,13.2-3.2c4.2-1.6,8.5-3.3,12.6-5.3
			c4-2.1,7.9-4.6,10.9-8C315.1,221.3,317.3,217,317.5,212.4z"/>
	</g>
	<g>
		<path class="st13" d="M321.2,24.2c-13.7-7.6-36.3-10.4-52.4-11.5c-5.6-0.4-11.4-0.3-16.9,0.8c-7,1.4-13.5,4.5-19.6,7.9
			C210,33.8,191,52.3,183.8,75c-5.2,16.4-4,33.7-2.1,50.6c0.8,6.7,1.6,13.4,3.6,19.8c3.9,12.8,12,24.2,21.2,34.4
			c7.3,8,15.5,15.5,25.4,20.7c18.8,9.8,41.9,10.3,63.6,8c12.3-1.3,20.7-4.5,32-9.2c11.3-4.7,40-30.7,42.9-60.8
			C374.5,95.6,364.2,48,321.2,24.2z M360.6,143.8c-7.4,29-33.2,50-63.8,53.2c-9.5,1-19.1,1.3-28.6,0.5
			c-22.2-1.9-44.3-10.2-58.2-25.9c-4.2-4.8-7.6-10.1-10.4-15.7c-16.9-33.4-11.2-75.3,14.1-104.4c4.9-5.6,10.6-10.9,17.5-14.4
			c4.6-2.3,9.6-3.9,14.6-5c24-5.5,50.3-2.6,71.3,8.9c19.9,10.9,34.4,28.9,41.5,49C364.7,107.2,365.2,126,360.6,143.8z"/>
	</g>
	<g>
		<path class="st14" d="M326.1,199.8c3.9,3.5,5.9,9,5.1,14.2c-18.1,5.8-37,9.3-56.1,9.4s-38.2-3.4-55.5-11.1
			c-0.4-0.2-0.8-0.4-0.9-0.7c-0.1-0.3,0-0.7,0.2-1c1.9-4.5,4.3-8.8,7.1-12.8c11,7.5,25.1,9,38.5,9.7c7.6,0.4,15.3,0.7,23,0.3
			C300.4,206.9,313.2,204,326.1,199.8z"/>
		<path class="st12" d="M326.1,199.8c3.9,3.5,6,9,5.2,14.2l0,0l0,0c-10.4,3.4-21,6-31.8,7.6c-10.8,1.6-21.8,2.3-32.7,1.7
			c-10.9-0.6-21.8-2.3-32.3-5.4c-5.2-1.6-10.4-3.4-15.4-5.7c-0.2-0.1-0.3-0.2-0.4-0.4c-0.1-0.2-0.2-0.4-0.1-0.6
			c0.1-0.4,0.2-0.7,0.4-1c0.3-0.6,0.6-1.2,0.9-1.9c0.6-1.2,1.2-2.5,1.9-3.7c1.3-2.4,2.7-4.7,4.3-7l0.1-0.2l0.2,0.1
			c3.5,2.4,7.4,4.2,11.5,5.6c4.1,1.3,8.2,2.2,12.5,2.8c4.2,0.6,8.5,1,12.8,1.2c4.3,0.3,8.5,0.5,12.8,0.6c8.5,0.2,17.1-0.3,25.6-1.7
			C309.7,204.6,318,202.4,326.1,199.8z M326.1,199.8c-8.1,2.7-16.4,5-24.8,6.4c-8.4,1.5-17,2-25.6,1.8c-4.3-0.1-8.6-0.3-12.8-0.5
			c-4.3-0.3-8.5-0.6-12.8-1.2c-4.2-0.6-8.5-1.5-12.5-2.8c-4.1-1.3-8-3.2-11.6-5.6l0.3-0.1c-1.5,2.2-3,4.6-4.3,7
			c-0.6,1.2-1.3,2.4-1.8,3.6c-0.3,0.6-0.6,1.2-0.8,1.9c-0.1,0.3-0.3,0.6-0.3,0.9c0,0.3,0.1,0.5,0.4,0.6c4.9,2.3,10.1,4.1,15.3,5.7
			c10.4,3.1,21.3,4.9,32.2,5.5c10.9,0.6,21.8-0.1,32.6-1.6c10.8-1.6,21.4-4.2,31.8-7.4l0,0C332,208.8,330,203.3,326.1,199.8z"/>
	</g>
</g>
</svg>
