<?xml version="1.0" encoding="utf-8"?>
<!-- Generator: Adobe Illustrator 25.2.3, SVG Export Plug-In . SVG Version: 6.00 Build 0)  -->
<svg version="1.1" id="tenue_x5F_10" xmlns="http://www.w3.org/2000/svg" xmlns:xlink="http://www.w3.org/1999/xlink" x="0px"
	 y="0px" viewBox="0 0 553 574" style="enable-background:new 0 0 553 574;" xml:space="preserve">
<style type="text/css">
	.st0{fill:none;}
	.st1{fill:#FFFFFF;stroke:#BAAFAF;stroke-width:0.5;stroke-linecap:round;stroke-linejoin:round;stroke-miterlimit:10;}
	.st2{fill:#FFFFFF;}
	.st3{fill:#BAAFAF;}
	.st4{fill:#F4F4F4;}
	.st5{fill:#D7D6D6;}
	.st6{fill:#AB2B2B;}
	.st7{fill:#8F2726;}
	.st8{fill:#C4C2C2;}
	.st9{fill:#0B0A0A;}
</style>
<g id="cadre_8_">
	<rect x="0" class="st0" width="553" height="574"/>
</g>
<g id="tenue_x5F_10_1_">
	<path class="st1" d="M227.4,337.7c-0.3-0.3-0.6-0.5-0.8-0.8c0.1,2.9-0.4,5.8-0.9,8.7c-2.7,17-5.5,34.1-8.2,51.1
		c5.7,7.1,15.1,10.5,24.1,10.6c9,0.1,17.8-2.4,26.4-5c1.6-8,3-15.5,4.4-23c0.7,6.5,1.7,12.9,2.9,19.3c3.7,2.7,8.4,2.7,12.7,2.4
		c4.8-0.2,9.7-0.5,14.5-0.7c5.8-0.3,11.9-0.6,17-3.4c2.8-1.5,5.2-3.8,7.4-6.1c0.5-0.6,1.1-1.2,1.4-1.9c0.3-0.8,0.3-1.6,0.3-2.4
		c-0.3-19.5-2.7-39-6.5-57.8c-17.7-1.6-35.4,3.3-53.1,3.9c-7.7,0.2-15.4-0.3-23,1.1c-4.2,0.8-8.3,2.1-12.6,2.1
		C231.1,335.8,228.5,335.5,227.4,337.7z"/>
	<g>
		<path class="st2" d="M248.2,210.5c-6.8,1-13.5,1.9-20.2,3.1c-2.1,0.4-4.2,0.8-6,1.9c-1.7,1.1-3,2.7-4.2,4.3
			c-4.9,6.7-8.7,14.3-11.2,22.3c-1,3.3-1.8,6.7-3.6,9.9c6.3,6.2,15.2,12.8,22.5,17.9c1.6-3,1.3-6.9,3-9.9
			c-0.8,5.5-2.9,12.5-2.9,18.1c-0.3,24.4-1.8,46.5-2,70.9c14.6-1.2,32.6-0.4,47.2,0.3c13.1,0.6,26.3,1.8,39.4,0.6
			c2.3-0.2,4.6-0.5,6.5-1.8c3.4-2.2,4.3-6.6,5-10.6c0.5,2.8,0.6,5.7,0.5,8.6c1.5-0.4,3.1-0.8,4.6-1.1c0.2-27.3,0.3-54.8-3.9-81.7
			c1.5,2.4,1.2,5.6,3,7.7c5.9-2.4,11.2-9.1,15.2-14.1c3.1-3.8,6.8-7.5,8.9-12c-10.5-6.9-12-23.4-23.1-29.3
			c-7.4-3.9-16.6-1.9-24.5-4.5c-2.2-0.7-4.6-1.9-6.9-1.3c-2.5,0.7-4,3.2-5.6,5.3c-2.9,4-7.6,7.3-12.4,7.4c-2.3,4.6-3.7,9.6-4.3,14.7
			c-0.3-4.3-0.7-8.6-1-12.9c0-0.5-0.1-1.1-0.4-1.5c-0.3-0.4-0.8-0.6-1.2-0.7c-4.9-1.8-10.1-3-14.3-6
			C253.2,213.9,250.3,210.6,248.2,210.5z"/>
		<g>
			<path class="st3" d="M248.2,210.5c-5.6,0.8-11.3,1.6-16.9,2.6l-4.2,0.7c-1.4,0.3-2.8,0.6-4.1,1.2c-2.6,1.2-4.3,3.6-6,5.9
				c-3.3,4.7-6,9.7-8.2,15c-1.1,2.6-2,5.3-2.8,8.1c-0.8,2.7-1.6,5.5-3.1,8l0-0.1c3.4,3.4,7.1,6.4,10.9,9.4c3.8,2.9,7.7,5.8,11.6,8.5
				l-0.1,0c0.8-1.5,1.1-3.2,1.5-4.9c0.3-1.7,0.7-3.4,1.5-5c0,0,0.1-0.1,0.1,0c0,0,0.1,0.1,0,0.1c-0.6,3.7-1.5,7.3-2.1,11
				c-0.3,1.8-0.6,3.7-0.7,5.5c-0.1,1.8-0.1,3.7-0.1,5.6c-0.1,7.4-0.3,14.9-0.6,22.3c-0.5,14.9-1.2,29.7-1.3,44.6l-0.2-0.2
				c8.8-0.7,17.6-0.7,26.4-0.5c8.8,0.2,17.6,0.6,26.4,1.1c8.8,0.5,17.6,1,26.4,0.7c2.2-0.1,4.4-0.2,6.6-0.4c2.2-0.2,4.4-0.4,6.4-1.3
				c1-0.5,1.8-1.1,2.5-1.9c0.7-0.8,1.2-1.8,1.7-2.7c0.9-2,1.3-4.2,1.7-6.3c0-0.1,0.1-0.2,0.3-0.2c0.1,0,0.2,0.1,0.2,0.2
				c0.5,2.9,0.6,5.8,0.5,8.7l-0.3-0.2l4.6-1.1l-0.2,0.2c0.1-13.6,0.2-27.3-0.3-40.9c-0.5-13.6-1.5-27.3-3.6-40.7
				c0-0.1,0-0.2,0.1-0.2c0.1,0,0.1,0,0.2,0.1c0.7,1.2,1,2.6,1.4,4c0.3,1.3,0.7,2.7,1.6,3.7l-0.2,0c2.7-1.2,5.1-3,7.3-5.1
				c2.2-2.1,4.1-4.3,6-6.6l2.8-3.5l2.9-3.4c1.9-2.3,3.8-4.7,5.1-7.4l0,0.2c-3.3-2.2-5.7-5.3-7.7-8.6c-2-3.3-3.7-6.8-5.6-10.1
				c-1.9-3.3-4.1-6.6-7.2-9c-3-2.4-6.9-3.6-10.7-4c-3.8-0.5-7.7-0.5-11.6-1c-1.9-0.3-3.8-0.7-5.6-1.4c-1.8-0.6-3.7-1.4-5.6-1
				c-1.9,0.4-3.3,1.9-4.5,3.4c-1.1,1.6-2.2,3.2-3.6,4.5c-2.7,2.7-6.3,4.8-10.3,4.9l0,0c-2.3,4.6-3.7,9.6-4.3,14.6c0,0,0,0,0,0
				c0,0,0,0,0,0l-0.8-10.3l-0.2-2.6c0-0.4-0.1-0.9-0.3-1.2c-0.2-0.4-0.6-0.6-1-0.8c-1.6-0.6-3.3-1.1-4.9-1.7
				c-3.3-1.1-6.6-2.3-9.4-4.2c-1.4-1-2.7-2.1-4.1-3.2c-0.7-0.6-1.3-1.1-2-1.6C249.9,211,249.1,210.6,248.2,210.5z M248.2,210.5
				c0.9,0.1,1.6,0.5,2.4,1c0.7,0.5,1.4,1,2,1.6c1.3,1.1,2.6,2.3,4.1,3.2c2.9,1.9,6.2,3.1,9.4,4.2c1.6,0.6,3.3,1.1,4.9,1.7
				c0.4,0.2,0.8,0.4,1,0.8c0.2,0.4,0.2,0.8,0.3,1.3l0.2,2.6l0.8,10.3l-0.1,0c0.5-5.1,2-10.1,4.2-14.7c0,0,0,0,0,0
				c3.9-0.1,7.5-2.2,10.2-4.9c1.4-1.3,2.5-2.9,3.6-4.5c0.6-0.8,1.2-1.5,1.9-2.2c0.7-0.6,1.6-1.1,2.6-1.3c2-0.4,3.9,0.4,5.7,1
				c1.8,0.7,3.7,1.1,5.6,1.4c3.8,0.5,7.7,0.5,11.6,1c1.9,0.2,3.8,0.6,5.7,1.3c1.8,0.6,3.6,1.6,5.1,2.8c3.1,2.4,5.3,5.7,7.3,9
				c1.9,3.3,3.6,6.8,5.6,10.1c2,3.3,4.4,6.4,7.7,8.5c0.1,0,0.1,0.1,0,0.2c-1.3,2.7-3.2,5.1-5.1,7.4l-2.9,3.4l-2.8,3.5
				c-1.9,2.3-3.9,4.6-6,6.7c-2.2,2.1-4.6,4-7.4,5.1c-0.1,0-0.1,0-0.2,0c-0.9-1.1-1.3-2.5-1.7-3.8c-0.3-1.3-0.6-2.7-1.3-3.9l0.3-0.1
				c2.1,13.5,3.2,27.1,3.6,40.8c0.5,13.6,0.4,27.3,0.4,40.9c0,0.1-0.1,0.2-0.2,0.2l-4.6,1.1c-0.1,0-0.3,0-0.3-0.2c0,0,0,0,0-0.1
				c0.2-2.9,0-5.7-0.5-8.6l0.5,0c-0.4,2.2-0.8,4.4-1.7,6.4c-0.4,1-1,2-1.8,2.9c-0.7,0.8-1.7,1.6-2.7,2c-2.1,1-4.3,1.1-6.5,1.3
				c-2.2,0.2-4.4,0.3-6.6,0.4c-8.8,0.3-17.6-0.3-26.4-0.8c-8.8-0.5-17.6-0.9-26.4-1.1c-8.8-0.2-17.6-0.2-26.4,0.5
				c-0.1,0-0.2-0.1-0.2-0.2l0,0c0.2-14.9,0.8-29.8,1.4-44.6c0.3-7.4,0.5-14.9,0.6-22.3c0-1.9,0-3.7,0.1-5.6c0.1-1.9,0.4-3.7,0.8-5.5
				c0.7-3.7,1.6-7.3,2.1-11l0.2,0.1c-0.8,1.5-1.1,3.2-1.5,4.9c-0.3,1.7-0.7,3.4-1.5,5c0,0-0.1,0.1-0.1,0l0,0
				c-3.9-2.7-7.8-5.6-11.6-8.5c-3.8-3-7.5-6-10.9-9.4c0,0,0,0,0-0.1c1.4-2.5,2.3-5.2,3.1-7.9c0.8-2.7,1.7-5.4,2.8-8.1
				c2.2-5.3,4.9-10.3,8.2-15c0.8-1.2,1.6-2.3,2.6-3.4c1-1.1,2.1-2,3.4-2.6c1.3-0.6,2.7-0.9,4.1-1.2l4.2-0.7
				C237,212.1,242.6,211.3,248.2,210.5z"/>
		</g>
	</g>
	<g>
		<path class="st4" d="M228.5,259.7c-0.1-1.7-0.1-3.4-0.2-5.1"/>
		<path class="st5" d="M228.5,259.7c-0.2-0.8-0.3-1.7-0.4-2.5c0-0.8,0-1.7,0.1-2.5c0.2,0.8,0.3,1.7,0.4,2.5
			C228.7,258,228.6,258.9,228.5,259.7z"/>
	</g>
	<g>
		<path class="st4" d="M232.2,255.5c-0.5,0.4-0.8,0.9-1.2,1.4c-0.7,0.9-1.5,1.8-2.4,2.5"/>
		<path class="st5" d="M232.2,255.5c-0.3,0.4-0.5,0.7-0.7,1.1c-0.2,0.4-0.5,0.8-0.8,1.1c-0.3,0.3-0.6,0.7-0.9,1
			c-0.3,0.3-0.7,0.6-1.1,0.8c0.6-0.7,1.1-1.4,1.7-2l0.8-1C231.4,256.1,231.8,255.7,232.2,255.5z"/>
	</g>
	<g>
		<path class="st4" d="M322.9,263.4c-0.6-2.4-0.9-4.9-0.9-7.4c0-0.6-0.1-1.3-0.6-1.6"/>
		<path class="st5" d="M322.9,263.4c-0.5-1.5-0.8-3-1-4.5c-0.1-0.8-0.1-1.5-0.1-2.3c0-0.4,0-0.8,0-1.1c0-0.4-0.1-0.7-0.4-1
			c0.4,0.1,0.6,0.6,0.7,0.9c0.1,0.4,0.1,0.8,0.1,1.2l0.2,2.3C322.6,260.4,322.8,261.9,322.9,263.4z"/>
	</g>
	<g>
		<path class="st4" d="M319.6,258.6c0.6,1,1.2,1.9,2,2.7c0.5,0.6,1.1,1.2,1.3,2"/>
		<path class="st5" d="M319.6,258.6c0.7,0.7,1.2,1.4,1.8,2.2c0.3,0.4,0.6,0.7,0.9,1.1c0.3,0.4,0.5,0.9,0.5,1.4
			c-0.5-0.9-1.2-1.4-1.8-2.2C320.4,260.3,319.9,259.5,319.6,258.6z"/>
	</g>
	<g>
		<path class="st6" d="M302.5,261.8c-1.7-1.4-3.5-2.8-5.4-4.1c-0.1-0.1-0.1-0.2-0.1-0.3l0,0c0.3-0.5,0.5-1.1,0.5-1.8
			c0.1-0.6,0.2-1.3-0.1-1.8c-0.2-0.5-0.7-1-1.2-1.2c-0.5-0.2-1.2-0.1-1.7,0.2c-0.5,0.3-0.9,0.8-1.1,1.4c-0.2,0.6-0.1,1.2,0.3,1.7
			c0.9,0.9,2.1,1.4,3.4,1.6c-0.7,0-1.3-0.2-1.9-0.4c-0.6-0.2-1.2-0.5-1.7-1c-0.5-0.5-0.6-1.3-0.5-2c0.1-0.7,0.6-1.3,1.2-1.7
			c0.6-0.4,1.4-0.5,2.1-0.2c0.7,0.2,1.3,0.7,1.5,1.4c0.3,0.7,0.1,1.4,0,2.1c-0.1,0.7-0.2,1.3-0.6,1.9l-0.1-0.3
			C299.2,258.7,300.9,260.2,302.5,261.8z"/>
	</g>
	<g>
		<path class="st6" d="M295.8,262.6l1.3-1.5c0.4-0.5,0.9-1,1.3-1.5c0.5-0.5,1-0.8,1.5-1.3c0.5-0.4,0.9-1,1.4-1.4l0,0.3
			c-0.8-1.3-0.9-3-0.1-4.4c0.2-0.3,0.4-0.6,0.7-0.9c0.3-0.3,0.7-0.4,1.1-0.5c0.8-0.1,1.6,0.1,2.2,0.5c0.7,0.4,1.1,1.2,1.2,2
			c0.1,0.8-0.3,1.6-0.9,2.1c-0.6,0.5-1.3,0.8-2,0.8c-0.7,0.1-1.5,0-2.2,0c1.4,0,3-0.1,4-1.1c0.5-0.5,0.8-1.1,0.7-1.8
			c-0.1-0.7-0.5-1.3-1-1.6c-0.6-0.4-1.3-0.5-1.9-0.4c-0.7,0-1.1,0.6-1.5,1.2c-0.7,1.2-0.7,2.8,0,3.9l0,0c0.1,0.1,0,0.2-0.1,0.3
			c-0.5,0.4-0.9,0.9-1.4,1.3c-0.5,0.4-1.1,0.8-1.6,1.2c-0.5,0.5-1,0.9-1.4,1.4L295.8,262.6z"/>
	</g>
	<g>
		<path class="st4" d="M271.3,372c0.3,2.4,0.7,4.7,1.4,7"/>
		<path class="st5" d="M271.3,372c0.3,1.2,0.6,2.3,0.8,3.5c0.2,1.2,0.4,2.3,0.6,3.5c-0.5-1.1-0.8-2.3-1.1-3.5
			C271.4,374.4,271.3,373.2,271.3,372z"/>
	</g>
	<g>
		<path class="st6" d="M217.4,391.6c14.8,11.9,35.9,13.8,52.4,4.7c-0.2,2.5-0.8,4.9-1.5,7.4c-14,6.2-30.3,6.1-44.2-0.3
			c-2.7-1.2-5.4-2.8-7.2-5.4c0,0-0.1,0-0.2,0C217,395.8,217.3,393.7,217.4,391.6z"/>
		<path class="st7" d="M217.4,391.6c7.3,5.8,16.3,9.2,25.5,10c9.2,0.8,18.7-1.1,26.8-5.6l0.4-0.2l0,0.4c-0.2,2.5-0.8,5-1.5,7.4
			l0,0.1l-0.1,0c-4.2,1.8-8.6,3.1-13.1,3.9c-4.5,0.8-9.1,0.9-13.7,0.4c-4.6-0.4-9.1-1.4-13.3-3l-1.6-0.6l-1.6-0.7
			c-1.1-0.4-2.1-0.9-3.1-1.5c-2-1.1-3.9-2.5-5.1-4.5l0,0l-0.2,0l-0.1,0l0-0.1C217,395.8,217.3,393.7,217.4,391.6z M217.4,391.6
			c-0.1,2.1-0.4,4.2-0.7,6.3l0-0.1l0.2,0l0,0l0,0c1.3,1.9,3.1,3.3,5.1,4.3c1,0.5,2,1,3.1,1.4l1.6,0.7l1.6,0.6
			c4.3,1.5,8.8,2.5,13.3,2.9c4.5,0.4,9.1,0.3,13.6-0.5c4.5-0.8,8.9-2.1,13-3.9l-0.1,0.2c0.7-2.4,1.2-4.8,1.5-7.3l0.3,0.2
			c-8.2,4.5-17.7,6.4-27,5.5c-4.6-0.4-9.2-1.5-13.5-3.3C225.1,396.9,221,394.5,217.4,391.6z"/>
	</g>
	<g>
		<path class="st6" d="M274.6,394.9c-1.1,2,0.2,4.6,2.3,5.8s4.5,1.3,6.9,1.3c8,0.2,16.1,0.2,24-1.3s15.6-4.7,21.5-10.2
			c0.3-2.3,0.3-4.7-0.1-7.2c-5.4,5.3-12.7,8.6-20.1,10.4s-15.2,2.3-23,2.4C282,396.3,277.8,396.3,274.6,394.9z"/>
		<path class="st7" d="M274.6,394.9c-0.6,1.2-0.4,2.6,0.2,3.7c0.6,1.1,1.7,2,2.9,2.4c2.4,1,5.1,0.8,7.6,0.9
			c5.2,0.1,10.4,0.1,15.5-0.4c5.1-0.5,10.3-1.4,15.1-3.3c4.8-1.8,9.4-4.4,13.2-7.9l-0.1,0.1c0.3-2.3,0.3-4.7-0.1-7.1l0.4,0.1
			c-3.5,3.4-7.7,5.9-12.1,7.8c-4.5,1.9-9.2,3-13.9,3.8c-4.8,0.7-9.6,1-14.4,1.2c-2.4,0-4.8,0.1-7.2,0
			C279.3,396.2,276.8,395.9,274.6,394.9z M274.6,394.9c2.2,0.9,4.7,1.2,7,1.3c2.4,0.1,4.8,0,7.2-0.1c4.8-0.2,9.6-0.5,14.3-1.3
			c4.7-0.8,9.4-1.9,13.8-3.8c4.4-1.9,8.5-4.4,12-7.7l0.3-0.3l0.1,0.4c0.4,2.4,0.5,4.8,0.1,7.2l0,0.1l-0.1,0.1
			c-3.9,3.5-8.5,6.1-13.4,7.9c-4.9,1.8-10,2.7-15.2,3.2c-5.2,0.5-10.4,0.4-15.5,0.3c-2.6-0.1-5.2,0-7.7-1c-1.2-0.5-2.3-1.4-2.9-2.5
			C274.1,397.5,273.9,396.1,274.6,394.9z"/>
	</g>
	<g>
		<path class="st6" d="M321.5,384.7c-1.7-1.2-3.5-2.4-5.3-3.5c-0.1-0.1-0.1-0.2-0.1-0.3l0,0c0.5-1.1,0.1-2.6-0.9-3.2
			c-0.5-0.3-1.1-0.5-1.7-0.4c-0.6,0.1-1.1,0.5-1.4,1c-0.3,0.5-0.5,1.1-0.4,1.7c0,0.6,0.4,1.1,1,1.3c1.2,0.5,2.6,0.3,3.7-0.4
			c-1,0.8-2.5,1.1-3.8,0.7c-0.3-0.1-0.6-0.3-0.9-0.6c-0.2-0.3-0.3-0.7-0.4-1c-0.1-0.7,0.1-1.4,0.5-2c0.4-0.6,1-1.1,1.7-1.2
			c0.7-0.1,1.5,0.1,2,0.5c1.2,0.9,1.5,2.5,1,3.8l-0.1-0.3C318.2,382,319.9,383.2,321.5,384.7z"/>
	</g>
	<g>
		<path class="st6" d="M317.5,386.9c0.3-2.5,1.1-5,2.3-7.4l0.3,0.3c-0.1,0.1-0.3,0-0.3,0c-0.1,0-0.2-0.2-0.1-0.3
			c0-0.1,0.1-0.2,0.2-0.3c0.1,0,0.2,0,0.3,0.1l-0.1-0.1c1.1,0.1,2.2-0.7,2.4-1.8c0.2-1-0.5-2.3-1.6-2.5c-0.5-0.1-1.1,0-1.5,0.3
			c-0.5,0.3-0.6,0.9-0.6,1.4c0,0.6,0.1,1.2,0.3,1.7c0.2,0.5,0.6,1,1.2,1.3c-0.6-0.2-1-0.6-1.3-1.2c-0.3-0.5-0.4-1.1-0.5-1.8
			c-0.1-0.6,0.1-1.3,0.7-1.7c0.5-0.4,1.2-0.5,1.9-0.4c1.3,0.3,2.2,1.7,2,3c-0.2,1.3-1.6,2.3-2.9,2.1l-0.1-0.1c0.1,0.1,0.1,0,0.1,0
			c0,0,0.1,0,0.1-0.1c0-0.1,0-0.1-0.1-0.1c0,0-0.1,0-0.1,0l0.3,0.3C318.9,382,318.1,384.4,317.5,386.9z"/>
	</g>
	<g>
		<path class="st6" d="M272,219.5c-2.4,3.6-3.5,8-3.1,12.3c-4.4-2.1-8.8-4.3-12.6-7.2c-3.8-3-7.1-6.9-8.4-11.6
			c-0.1-0.5-0.3-1.1-0.2-1.6c0.1-0.7,0.4-1.3,0.8-1.8c1.8-2.5,4.5-4.3,7.5-5C257.7,211.9,264.1,218.1,272,219.5z"/>
		<g>
			<path class="st7" d="M272,219.5c-2.4,3.6-3.4,8-3,12.3l0,0.2l-0.2-0.1c-3.2-1.5-6.3-3-9.3-4.9c-3-1.8-5.8-4.1-8-6.8
				c-1.1-1.4-2.1-2.9-2.8-4.5c-0.4-0.8-0.7-1.6-0.9-2.5c-0.3-0.8-0.5-1.8-0.1-2.7c0.4-0.9,0.9-1.5,1.5-2.2c0.6-0.7,1.3-1.3,2-1.8
				c1.4-1.1,3.1-1.8,4.8-2.3l0.2,0l0,0.2c0.8,3.8,2.9,7.2,5.7,9.8C264.7,216.9,268.2,218.8,272,219.5z M272,219.5
				c-3.8-0.7-7.5-2.5-10.3-5.1c-2.9-2.6-5-6.1-5.9-9.9l0.2,0.1c-1.7,0.4-3.3,1.2-4.6,2.2c-0.7,0.5-1.3,1.1-1.9,1.8
				c-0.6,0.6-1.1,1.3-1.4,2.1c-0.3,0.8-0.1,1.6,0.1,2.4c0.2,0.8,0.6,1.6,0.9,2.4c0.7,1.6,1.7,3,2.7,4.4c2.2,2.7,4.9,4.9,7.9,6.8
				c3,1.9,6.1,3.4,9.2,4.9l-0.2,0.1C268.3,227.5,269.5,223.1,272,219.5z"/>
		</g>
	</g>
	<g>
		<path class="st6" d="M276.3,220.1c2.7,2.9,4.8,6.4,6.1,10.2c1.8-1.2,3.5-2.3,5.3-3.5c2.5-1.7,5.1-3.4,7.2-5.6c2.1-2.2,3.7-5,3.9-8
			c0.2-3-1.1-6.3-3.8-7.8c-0.3-0.2-0.6-0.3-0.9-0.2c-0.2,0-0.4,0.2-0.6,0.3C287.8,210.4,282,215.2,276.3,220.1z"/>
		<g>
			<path class="st7" d="M276.3,220.1c2.7,2.9,4.9,6.4,6.3,10.2l-0.2-0.1l6-4c2-1.3,4-2.7,5.7-4.4c1.7-1.7,3.1-3.6,3.9-5.9
				c0.8-2.2,0.9-4.7-0.1-6.9c-0.5-1.1-1.2-2-2.1-2.8c-0.2-0.2-0.5-0.4-0.7-0.5c-0.2-0.2-0.5-0.3-0.7-0.3c-0.2,0-0.4,0.1-0.6,0.3
				l-0.7,0.6l-5.5,4.6L276.3,220.1z M276.3,220.1l10.9-9.4l5.5-4.7l0.7-0.6c0.2-0.2,0.6-0.5,1-0.4c0.4,0,0.7,0.2,0.9,0.4
				c0.3,0.2,0.5,0.3,0.8,0.5c1,0.8,1.7,1.8,2.2,3c1,2.3,1,4.9,0.1,7.2c-0.8,2.3-2.3,4.3-4.1,6c-1.8,1.7-3.8,3.1-5.8,4.4l-6.1,3.9
				l-0.2,0.1l-0.1-0.2C281,226.6,279,223,276.3,220.1z"/>
		</g>
	</g>
	<g>
		<path class="st2" d="M264.6,480.1c-2.1,9.4-4,18.1-6,27.9c-0.3,1.3-0.5,2.6-0.4,3.9c0.4,2.7,1.2,6.5,0.1,9c-0.8,1.9-3,3.4-5.1,3.3
			c-2.1-0.1-4.3-1.5-6.4-1.3c-0.9,0.1-1.8,0.3-2.7,0c-1.5-0.5-2.1-2.3-2-3.9c0.2-2,1.1-3.8,1.3-5.8c0.3-2.4-0.5-4.8-1.1-7.1
			c-2.4-8.7-3.2-17.7-3.9-26.7C247,481.2,255.8,481.6,264.6,480.1z"/>
		<path class="st8" d="M264.6,480.1l-5.2,25l-0.7,3.1c-0.2,1-0.4,2.1-0.4,3.1c0.2,2.1,0.7,4.2,0.7,6.3c0,1.1-0.1,2.2-0.5,3.2
			c-0.4,1-1.2,1.9-2.1,2.5c-0.9,0.6-2,1-3.1,1c-1.1,0-2.1-0.4-3.2-0.7c-1-0.3-2-0.6-3-0.6c-1,0-2.1,0.4-3.3-0.1
			c-1.1-0.5-1.6-1.7-1.8-2.7c-0.2-1.1,0-2.2,0.3-3.3c0.3-1,0.6-2,0.8-3.1c0.2-1,0.2-2.1,0.1-3.1c-0.3-2.1-1-4.1-1.5-6.2
			c-2.1-8.3-2.8-16.8-3.5-25.3l0-0.2l0.2,0c4.3,1,8.6,1.5,13,1.7C255.9,481,260.2,480.8,264.6,480.1z M264.6,480.1
			c-4.3,0.8-8.7,1.1-13.1,1c-4.4-0.1-8.7-0.7-13-1.6l0.2-0.2c0.7,8.5,1.5,17,3.6,25.2c0.5,2.1,1.2,4.1,1.5,6.2
			c0.1,1.1,0.1,2.2-0.1,3.2c-0.2,1.1-0.5,2.1-0.8,3.1c-0.3,1-0.5,2.1-0.3,3.1c0.2,1,0.6,2,1.5,2.4c0.9,0.4,1.9,0.1,3,0
			c1.1,0,2.2,0.3,3.2,0.7c1,0.3,2,0.7,3,0.7c1,0,2-0.3,2.9-0.9c0.8-0.6,1.6-1.4,1.9-2.3c0.4-0.9,0.5-2,0.5-3.1
			c0-2.1-0.5-4.2-0.7-6.3c0-1.1,0.2-2.2,0.4-3.2l0.7-3.1L264.6,480.1z"/>
	</g>
	<g>
		<path class="st6" d="M261.3,496.3c-4.9,1.8-10.3,2.6-15.6,2.2c-2.1-0.2-3.8-0.2-5.5-1.4c0,1.9,1,3.4,1.5,5.4
			c2.9,0.5,5.8,0.9,8.7,0.8c2.9-0.1,5.9-0.7,8.3-2.2c0.4-0.2,0.7-0.5,1-0.8c0.2-0.3,0.3-0.6,0.5-0.9
			C260.6,498.3,261.1,497.3,261.3,496.3z"/>
		<g>
			<path class="st7" d="M261.3,496.3c-1.7,0.7-3.4,1.2-5.2,1.6c-1.8,0.4-3.6,0.7-5.4,0.8c-1.8,0.1-3.6,0.1-5.4,0
				c-0.9-0.1-1.8-0.1-2.7-0.3c-0.9-0.2-1.8-0.6-2.5-1.1l0.4-0.2c0,1.8,1.1,3.4,1.5,5.3l-0.2-0.2c3.8,0.6,7.6,1.2,11.4,0.7
				c1.9-0.3,3.7-0.8,5.4-1.8c0.4-0.2,0.8-0.5,1.1-0.8c0.3-0.4,0.5-0.8,0.7-1.2C260.7,498.1,261,497.3,261.3,496.3z M261.3,496.3
				c-0.2,0.9-0.5,1.8-0.9,2.7c-0.2,0.4-0.3,0.9-0.6,1.3c-0.3,0.4-0.7,0.7-1.1,0.9c-1.7,1-3.5,1.6-5.4,1.9c-1.9,0.3-3.9,0.3-5.8,0.2
				c-1.9-0.1-3.8-0.4-5.7-0.7l-0.2,0l0-0.2c-0.2-0.9-0.6-1.7-0.9-2.6c-0.3-0.9-0.6-1.8-0.6-2.8l0-0.5l0.4,0.3c1.4,1.1,3.2,1.2,5,1.4
				c1.8,0.1,3.6,0.2,5.4,0.1C254.3,498.2,257.9,497.5,261.3,496.3z"/>
		</g>
	</g>
	<g>
		<path class="st6" d="M263.6,485.2c-5.8,1.8-12,2.5-18.2,2.1c-2.5-0.2-4.5-0.2-6.5-1.4c0,1.8,0.1,3.5,0.6,5.4
			c3.4,0.4,7.9,0.6,11.3,0.6c3.7,0,6.8,0.7,9.7-0.7c0.4-0.2,0.9-0.5,1.2-0.8c0.2-0.3,0.4-0.6,0.5-0.9
			C262.7,488.5,263.3,486.1,263.6,485.2z"/>
		<g>
			<path class="st7" d="M263.6,485.2c-2,0.6-4,1.2-6.1,1.6c-2.1,0.4-4.1,0.6-6.2,0.8c-2.1,0.1-4.2,0.1-6.3,0
				c-2.1-0.1-4.3-0.2-6.2-1.4l0.4-0.2c0,1.8,0.1,3.6,0.6,5.4l-0.2-0.2c2.3,0.3,4.7,0.4,7,0.5c2.3,0.1,4.7,0,7,0.2
				c2.3,0.1,4.7,0.3,6.8-0.8c0.5-0.3,1-0.5,1.4-1c0.3-0.5,0.6-1,0.8-1.6C263,487.4,263.3,486.3,263.6,485.2z M263.6,485.2
				c-0.3,1.1-0.5,2.3-0.9,3.4c-0.2,0.6-0.4,1.1-0.7,1.6c-0.3,0.5-0.9,0.8-1.4,1.1c-2.1,1.2-4.7,1-7,0.9c-2.3-0.1-4.7,0-7-0.1
				c-2.4-0.1-4.7-0.2-7-0.5l-0.2,0l0-0.2c-0.5-1.8-0.6-3.7-0.6-5.5l0-0.4l0.4,0.2c1.7,1.1,3.9,1.2,5.9,1.3c2.1,0.1,4.2,0.2,6.3,0.1
				C255.4,487,259.6,486.3,263.6,485.2z"/>
		</g>
	</g>
	<g>
		<path class="st2" d="M258.5,519.5c1.7,1.9,0.4,5.4,1.2,7.4c0.7,1.7,2.1,3.6,1.4,5.3c-0.6,1.3-2,1.8-3.1,2.6
			c-2.8,2.2-2.8,6.3-4.6,9.3c-1.4,2.4-4,4.1-6.8,4.7s-5.7,0.5-8.4-0.1c-1.6-0.3-3.1-0.8-4.4-1.7c-1.3-0.9-2.3-2.3-2.5-3.9
			c-0.2-1.8,0.9-3.6,2.1-4.9c1.3-1.3,2.8-2.3,4.2-3.6c2.4-2.2,3.9-5.3,4.4-8.5c0.2-1.3,0.2-2.6,0.9-3.7c1.3-2.2,4.3-2.5,6.9-2.6
			c1.2,0,2.8,0.2,3,1.4c0.1,0.8-0.4,1.6,0,2.3c0.3,0.4,1.2,0.1,1.7,0.1C256.9,523.7,256.3,520.5,258.5,519.5z"/>
		<g>
			<path class="st8" d="M258.5,519.5c0.7,0.8,0.9,1.9,0.9,2.9c0,1,0,2.1,0.1,3.1c0.1,2.1,2.1,3.7,1.9,5.9c-0.1,0.5-0.3,1.1-0.7,1.5
				c-0.4,0.4-0.8,0.7-1.3,1c-0.9,0.5-1.8,1.1-2.4,1.9c-1.3,1.6-1.7,3.7-2.4,5.7c-0.3,1-0.7,2-1.3,2.9c-0.6,0.9-1.3,1.7-2.2,2.4
				c-1.7,1.3-3.7,2.1-5.8,2.5c-2.1,0.3-4.2,0.2-6.3-0.2c-2.1-0.4-4.2-0.9-5.9-2.3c-0.8-0.7-1.5-1.6-1.9-2.6c-0.4-1-0.3-2.2,0.1-3.2
				c0.8-2.1,2.5-3.5,4.1-4.8c0.8-0.7,1.6-1.3,2.4-2c0.7-0.7,1.4-1.6,1.9-2.4c1.1-1.7,1.8-3.7,2.1-5.8c0.1-1,0.2-2.1,0.7-3.1
				c0.4-1,1.3-1.8,2.3-2.2c1-0.4,2-0.6,3.1-0.7c1.1-0.1,2.1-0.2,3.2,0c0.5,0.1,1.1,0.3,1.5,0.7c0.4,0.4,0.5,1.1,0.4,1.6
				c-0.1,0.5-0.2,1.1,0,1.5c0.1,0.2,0.4,0.2,0.7,0.2c0.3,0,0.5-0.1,0.8-0.1c0.5,0,1-0.1,1.4-0.5c0.4-0.4,0.6-0.8,0.8-1.3
				C257,521,257.5,519.9,258.5,519.5z M258.5,519.5c-1,0.4-1.5,1.5-1.9,2.4c-0.2,0.5-0.4,1-0.8,1.4c-0.4,0.4-1,0.5-1.5,0.5
				c-0.3,0-0.5,0.1-0.8,0.1c-0.3,0-0.6,0-0.8-0.2c-0.3-0.5-0.1-1.1-0.1-1.6c0.1-0.5,0-1-0.3-1.4c-0.3-0.3-0.8-0.5-1.3-0.6
				c-1-0.2-2.1-0.1-3.1,0c-1,0.1-2.1,0.3-3,0.7c-0.9,0.4-1.7,1.1-2.1,2.1c-0.4,0.9-0.5,2-0.6,3c-0.3,2.1-1,4.1-2.1,5.9
				c-0.6,0.9-1.2,1.7-2,2.5c-0.7,0.8-1.6,1.4-2.4,2.1c-1.6,1.3-3.3,2.7-3.9,4.6c-0.3,0.9-0.4,2-0.1,2.9c0.3,0.9,1,1.8,1.7,2.4
				c1.6,1.3,3.6,1.9,5.7,2.2c2,0.4,4.1,0.5,6.2,0.2c2-0.3,4-1.1,5.7-2.3c0.8-0.6,1.5-1.4,2.1-2.3c0.6-0.9,1-1.8,1.3-2.8
				c0.7-1.9,1.2-4.1,2.5-5.8c0.6-0.9,1.6-1.5,2.5-2c0.9-0.5,1.7-1.2,1.9-2.3c0.1-1-0.3-2-0.7-2.9c-0.4-0.9-1-1.9-1.1-3
				c-0.1-1.1,0-2.1,0-3.1C259.4,521.4,259.2,520.3,258.5,519.5z"/>
		</g>
	</g>
	<g>
		<path class="st6" d="M242.3,549.6c3.3-0.9,6.2-3.1,8.1-5.9c2.3-3.5,3.2-7.8,5.7-11.2c1.2-1.5,2.7-2.9,4.6-3.3
			c0.9,0.9,0.5,2.5-0.3,3.5c-0.8,1-2,1.6-2.9,2.6c-1.6,1.8-1.8,4.3-2.6,6.6C253,546.9,247.5,550.2,242.3,549.6z"/>
		<g>
			<path class="st7" d="M242.3,549.6c2.3-0.7,4.4-2,6-3.6c1.7-1.6,2.9-3.7,3.8-5.9c0.9-2.2,1.7-4.4,3-6.5c1.2-2,3.1-3.9,5.5-4.6
				l0.1,0l0.1,0.1c0.5,0.5,0.7,1.3,0.5,2c-0.1,0.7-0.4,1.3-0.9,1.8c-0.9,1-2,1.6-2.8,2.6c-0.8,0.9-1.3,2.1-1.6,3.3
				c-0.4,1.2-0.6,2.5-1.2,3.7C252.8,547.2,247.4,550.2,242.3,549.6z M242.3,549.6c2.5,0.2,5.1-0.5,7.3-1.8c2.2-1.3,4-3.2,4.9-5.5
				c0.5-1.1,0.8-2.4,1.1-3.6c0.4-1.2,0.8-2.5,1.7-3.5c0.9-1,2-1.6,2.8-2.6c0.7-0.9,1.1-2.3,0.3-3.2l0.2,0.1c-2.2,0.6-4,2.3-5.2,4.3
				c-1.2,2-2,4.2-3,6.4c-1,2.2-2.2,4.3-4,5.9C246.8,547.8,244.6,549,242.3,549.6z"/>
		</g>
	</g>
	<g>
		<path class="st2" d="M231.6,540.7c1.9-2.1,4.8-2.7,7.4-2.9c1.7-0.1,3.5,0,5.1,0.6c1.4,0.5,2.6,1.4,3.6,2.6
			c0.7,0.8,1.2,1.8,1.3,2.9c0.1,1.2-0.5,2.4-1.3,3.2s-1.8,1.4-2.9,1.7c-2.6,1-5.5,1.1-8.2,0.4c-1.3-0.3-2.6-0.9-3.7-1.9
			C231.3,545.8,230,542.5,231.6,540.7z"/>
		<g>
			<path class="st8" d="M231.6,540.7c1.3-1.5,3.3-2.3,5.3-2.7c2-0.3,4-0.5,6-0.1c2,0.4,3.9,1.5,5.1,3.1c0.6,0.8,1.2,1.8,1.3,2.8
				c0.1,1.1-0.3,2.1-0.9,3c-0.6,0.9-1.5,1.5-2.4,1.9c-0.9,0.4-1.9,0.7-2.9,0.9c-2,0.4-4.1,0.3-6-0.2c-1-0.2-1.9-0.6-2.8-1.1
				c-0.9-0.5-1.6-1.3-2.1-2.1c-0.6-0.8-1-1.8-1.1-2.8C230.7,542.6,230.9,541.5,231.6,540.7z M231.6,540.7c-0.7,0.8-0.8,1.9-0.6,2.8
				c0.2,1,0.6,1.9,1.2,2.7c1.1,1.7,3,2.7,4.9,3c1.9,0.4,4,0.4,5.9,0c1.9-0.4,3.9-1.2,5-2.7c0.6-0.8,0.9-1.7,0.8-2.7
				c-0.1-0.9-0.5-1.8-1.1-2.6c-1.2-1.6-2.9-2.7-4.9-3.1c-1.9-0.4-4-0.4-6-0.1C234.9,538.4,232.9,539.2,231.6,540.7z"/>
		</g>
	</g>
	<g>
		<path d="M242.7,537.5c2.9-4.9,7.4-8.8,9.6-14"/>
		<path class="st9" d="M242.7,537.5c1.3-2.5,3.1-4.8,4.8-7c1.8-2.2,3.4-4.5,4.8-7c-0.9,2.7-2.6,5.1-4.4,7.3
			C246.2,533.1,244.4,535.2,242.7,537.5z"/>
	</g>
	<g>
		<path class="st9" d="M242.3,526c1.2-0.7,2.5-1,3.9-1c0.7,0,1.4,0.1,2,0.3c0.6,0.2,1.3,0.4,1.9,0.7c-0.7-0.1-1.3-0.2-2-0.3
			c-0.7-0.1-1.3-0.2-2-0.2c-0.7,0-1.3,0-2,0.1C243.6,525.7,242.9,525.8,242.3,526z"/>
	</g>
	<g>
		<path class="st9" d="M241.1,528.8c1-1,2.4-1.5,3.8-1.5c1.4,0,2.9,0.4,3.9,1.2C246.3,527.4,243.6,527.5,241.1,528.8z"/>
	</g>
	<g>
		<path class="st9" d="M239.6,531.6c1-0.7,2.3-1.1,3.6-1.2c0.6-0.1,1.3,0,1.9,0.1c0.3,0.1,0.6,0.1,0.9,0.2c0.1,0,0.3,0.1,0.5,0.2
			c0.1,0.1,0.3,0.3,0.2,0.4c0-0.2-0.1-0.3-0.2-0.3c-0.1-0.1-0.3-0.1-0.4-0.1c-0.3,0-0.6-0.1-0.9-0.1c-0.6,0-1.2,0-1.8,0
			C242,531,240.8,531.3,239.6,531.6z"/>
	</g>
	<g>
		<path class="st9" d="M236.8,534.9c1.1-0.6,2.3-1.1,3.7-1.3c1.3-0.2,2.7,0,3.8,0.8c-1.2-0.4-2.5-0.5-3.7-0.3
			C239.3,534.2,238.1,534.6,236.8,534.9z"/>
	</g>
	<g>
		<path class="st2" d="M288,481c0.5,9.2,2.7,19,4.7,28.8c0.3,1.3,0.5,2.6,0.4,3.9c-0.4,2.7-1.6,5.6-0.5,8c0.8,1.9,3,3.4,5.1,3.3
			s4.3-1.5,6.4-1.3c0.9,0.1,1.8,0.3,2.7,0c1.5-0.5,2.1-2.3,2-3.9c-0.2-2-0.3-3.9-0.5-5.9c-0.3-2.4,0.5-4.8,1.1-7.1
			c2.4-8.7,3-17.8,3.8-26.8C304.6,481.8,296.8,482.5,288,481z"/>
		<path class="st8" d="M288,481c0.6,8.5,2.4,16.8,4.1,25.1l0.7,3.1c0.2,1,0.5,2.1,0.5,3.2c0.1,1.1-0.2,2.2-0.4,3.2
			c-0.2,1-0.5,2.1-0.6,3.1c-0.1,1,0,2.1,0.4,3c0.4,0.9,1.2,1.7,2,2.3c0.9,0.6,1.9,0.9,2.9,0.8c1-0.1,2-0.4,3-0.8
			c1-0.3,2.1-0.7,3.2-0.6c1.1,0.1,2.1,0.4,3-0.1c0.9-0.5,1.3-1.5,1.4-2.5c0.1-0.5,0-1,0-1.5l-0.1-1.6l-0.3-3.2c-0.1-1-0.2-2.2,0-3.2
			c0.3-2.1,1-4.2,1.5-6.2c2.1-8.2,2.7-16.7,3.4-25.2l0.2,0.2c-4.1,0.9-8.3,1.6-12.5,1.7C296.4,482,292.2,481.7,288,481z M288,481
			c4.1,0.7,8.4,0.9,12.6,0.7c4.2-0.2,8.3-0.9,12.4-1.8l0.2,0l0,0.2c-0.7,8.5-1.3,17-3.3,25.3c-0.5,2.1-1.2,4.1-1.5,6.2
			c-0.2,1-0.1,2.1,0,3.1c0.1,1.1,0.2,2.1,0.3,3.2l0.1,1.6c0,0.5,0.1,1.1,0,1.6c-0.2,1.1-0.6,2.2-1.7,2.8c-1.1,0.6-2.3,0.2-3.3,0.1
			c-1-0.1-2,0.2-3,0.6c-1,0.3-2,0.7-3.1,0.8c-1.1,0.1-2.2-0.3-3.1-0.9c-0.9-0.6-1.7-1.4-2.1-2.4c-0.5-1-0.5-2.1-0.4-3.2
			c0.2-2.1,1-4.2,1-6.3c-0.1-1-0.3-2.1-0.5-3.1l-0.6-3.1C290.1,497.8,288.5,489.5,288,481z"/>
	</g>
	<g>
		<path class="st6" d="M289.9,497c5,1.8,10.4,2.6,15.8,2.2c2.1-0.2,3.9-0.2,5.6-1.4c0,1.9-1,3.4-1.5,5.4c-2.9,0.5-5.9,0.9-8.8,0.8
			c-3-0.1-6-0.7-8.5-2.2c-0.4-0.2-0.8-0.5-1-0.8c-0.2-0.3-0.3-0.6-0.5-0.9C290.6,499,290.1,498,289.9,497z"/>
		<g>
			<path class="st7" d="M289.9,497c3.5,1.2,7.1,1.9,10.7,2.1c1.8,0.1,3.6,0,5.4-0.1c1.8-0.1,3.7-0.3,5.1-1.4l0.4-0.3l0,0.5
				c0,1-0.3,1.9-0.6,2.8c-0.3,0.9-0.7,1.7-0.9,2.6l0,0.2l-0.2,0c-3.8,0.6-7.8,1.2-11.7,0.5c-1.9-0.3-3.8-0.9-5.5-1.9
				c-0.4-0.3-0.8-0.5-1.2-0.9c-0.3-0.4-0.5-0.9-0.7-1.3C290.5,498.9,290.1,498,289.9,497z M289.9,497c0.2,0.9,0.6,1.8,1,2.7
				c0.2,0.4,0.4,0.9,0.7,1.2c0.3,0.3,0.7,0.6,1.2,0.8c1.7,0.9,3.6,1.5,5.5,1.8c3.8,0.5,7.7,0,11.5-0.7l-0.2,0.2
				c0.4-1.9,1.5-3.5,1.5-5.3l0.4,0.2c-0.8,0.6-1.7,0.9-2.6,1.1c-0.9,0.2-1.8,0.2-2.8,0.3c-1.8,0.1-3.7,0.1-5.5,0
				c-1.8-0.1-3.7-0.4-5.4-0.8C293.4,498.2,291.6,497.7,289.9,497z"/>
		</g>
	</g>
	<g>
		<path class="st6" d="M288.4,485.8c5.6,1.8,11.7,2.5,17.7,2.1c2.4-0.2,4.4-0.2,6.3-1.4c0,1.8-0.1,3.5-0.6,5.4
			c-3.3,0.4-7.7,0.6-11,0.6c-3.6,0-6.6,0.7-9.4-0.7c-0.4-0.2-0.9-0.5-1.2-0.8c-0.2-0.3-0.4-0.6-0.5-0.9
			C289.2,489.1,288.7,486.7,288.4,485.8z"/>
		<g>
			<path class="st7" d="M288.4,485.8c3.9,1.2,8,1.8,12,2c2,0.1,4.1,0,6.1-0.1c2-0.1,4.1-0.3,5.8-1.3l0.4-0.2l0,0.4
				c0,1.8-0.1,3.7-0.6,5.5l0,0.2l-0.2,0c-2.3,0.3-4.6,0.4-6.9,0.5c-2.3,0.1-4.6,0-6.9,0.1c-1.1,0.1-2.3,0.1-3.5,0
				c-1.2-0.1-2.3-0.4-3.3-1c-0.5-0.3-1-0.6-1.3-1.1c-0.3-0.5-0.5-1.1-0.7-1.6C288.9,488,288.7,486.9,288.4,485.8z M288.4,485.8
				c0.3,1.1,0.6,2.2,1,3.3c0.2,0.5,0.4,1.1,0.7,1.5c0.3,0.5,0.8,0.8,1.3,1c2,1.1,4.4,1,6.7,0.8c2.3-0.2,4.6-0.1,6.9-0.2
				c2.3-0.1,4.6-0.2,6.9-0.5l-0.2,0.2c0.5-1.7,0.6-3.5,0.6-5.4l0.4,0.2c-1.8,1.2-4,1.3-6,1.4c-2,0.1-4.1,0.1-6.1,0
				c-2-0.1-4.1-0.4-6.1-0.8C292.3,486.9,290.3,486.4,288.4,485.8z"/>
		</g>
	</g>
	<g>
		<path class="st2" d="M292.1,520.1c-1.7,1.9-0.4,5.4-1.2,7.4c-0.7,1.7-2.1,3.6-1.4,5.3c0.6,1.3,2,1.8,3.1,2.6
			c2.8,2.2,2.8,6.3,4.6,9.3c1.4,2.4,4,4.1,6.8,4.7s5.7,0.5,8.4-0.1c1.6-0.3,3.1-0.8,4.4-1.7c1.3-0.9,2.3-2.3,2.5-3.9
			c0.2-1.8-0.9-3.6-2.1-4.9c-1.3-1.3-2.8-2.3-4.2-3.6c-2.4-2.2-3.9-5.3-4.4-8.5c-0.2-1.3-0.2-2.6-0.9-3.7c-1.3-2.2-4.3-2.5-6.9-2.6
			c-1.2,0-2.8,0.2-3,1.4c-0.1,0.8,0.4,1.6,0,2.3c-0.3,0.4-1.2,0.1-1.7,0.1C293.7,524.3,294.3,521.1,292.1,520.1z"/>
		<g>
			<path class="st8" d="M292.1,520.1c-0.7,0.8-0.9,1.9-0.9,2.9c0,1,0.1,2.1,0,3.1c0,1.1-0.6,2-1.1,3c-0.4,0.9-0.9,1.9-0.7,2.9
				c0.2,1,1,1.7,1.9,2.3c0.9,0.5,1.8,1.1,2.5,2c1.3,1.7,1.8,3.8,2.5,5.8c0.3,1,0.7,1.9,1.3,2.8c0.6,0.9,1.3,1.6,2.1,2.3
				c1.6,1.3,3.6,2,5.7,2.3c2,0.3,4.1,0.2,6.2-0.2c2-0.4,4.1-0.9,5.7-2.2c0.8-0.7,1.4-1.5,1.7-2.4c0.3-0.9,0.3-2,0-2.9
				c-0.7-1.9-2.3-3.3-3.9-4.6c-0.8-0.7-1.6-1.3-2.4-2.1c-0.7-0.8-1.4-1.6-2-2.5c-1.1-1.8-1.9-3.8-2.1-5.9c-0.1-1-0.2-2.1-0.6-3
				c-0.4-0.9-1.2-1.7-2.1-2.1c-0.9-0.4-2-0.6-3-0.7c-1-0.1-2.1-0.2-3.1,0c-0.5,0.1-1,0.3-1.3,0.6c-0.4,0.3-0.4,0.9-0.3,1.4
				c0.1,0.5,0.3,1.1-0.1,1.6c-0.2,0.3-0.5,0.2-0.8,0.2c-0.3,0-0.5-0.1-0.8-0.1c-0.5,0-1.1-0.1-1.5-0.5c-0.4-0.4-0.6-0.9-0.8-1.4
				C293.6,521.6,293.1,520.5,292.1,520.1z M292.1,520.1c1,0.4,1.5,1.4,2,2.4c0.2,0.5,0.5,1,0.8,1.3c0.4,0.4,0.9,0.5,1.4,0.5
				c0.3,0,0.5,0.1,0.8,0.1c0.2,0,0.5,0,0.7-0.2c0.3-0.4,0.1-1,0-1.5c-0.1-0.5-0.1-1.2,0.4-1.6c0.4-0.4,0.9-0.6,1.5-0.7
				c1.1-0.2,2.1-0.1,3.2,0c1,0.1,2.1,0.3,3.1,0.7c1,0.4,1.8,1.2,2.3,2.2c0.4,1,0.5,2.1,0.7,3.1c0.3,2.1,1,4,2.1,5.8
				c0.6,0.9,1.2,1.7,1.9,2.4c0.7,0.7,1.5,1.4,2.4,2c1.6,1.3,3.4,2.7,4.1,4.8c0.4,1,0.4,2.2,0.1,3.2c-0.4,1-1,2-1.9,2.6
				c-1.7,1.4-3.9,1.9-5.9,2.3c-2.1,0.4-4.2,0.5-6.3,0.2c-2.1-0.3-4.1-1.1-5.8-2.5c-0.8-0.7-1.6-1.5-2.2-2.4c-0.6-0.9-1-1.9-1.3-2.9
				c-0.7-2-1.2-4.1-2.4-5.7c-0.6-0.8-1.5-1.4-2.4-1.9c-0.4-0.3-0.9-0.6-1.3-1c-0.4-0.4-0.6-0.9-0.7-1.5c-0.2-2.3,1.8-3.9,1.9-5.9
				c0.1-1,0-2.1,0.1-3.1C291.2,522,291.4,520.9,292.1,520.1z"/>
		</g>
	</g>
	<g>
		<path class="st6" d="M308.3,550.2c-3.3-0.9-6.2-3.1-8.1-5.9c-2.3-3.5-3.2-7.8-5.7-11.2c-1.2-1.5-2.7-2.9-4.6-3.3
			c-0.9,0.9-0.5,2.5,0.3,3.5c0.8,1,2,1.6,2.9,2.6c1.6,1.8,1.8,4.3,2.6,6.6C297.6,547.5,303.1,550.8,308.3,550.2z"/>
		<g>
			<path class="st7" d="M308.3,550.2c-2.3-0.6-4.4-1.8-6.2-3.5c-1.8-1.6-3-3.8-4-5.9c-1-2.2-1.8-4.4-3-6.4c-1.2-2-3-3.7-5.2-4.3
				l0.2-0.1c-0.8,0.8-0.4,2.3,0.3,3.2c0.8,0.9,1.9,1.6,2.8,2.6c0.9,1,1.4,2.3,1.7,3.5c0.4,1.2,0.6,2.5,1.1,3.6
				c1,2.3,2.8,4.3,4.9,5.5C303.2,549.7,305.7,550.4,308.3,550.2z M308.3,550.2c-5.1,0.6-10.4-2.4-12.5-7.2c-0.5-1.2-0.8-2.5-1.2-3.7
				c-0.4-1.2-0.8-2.4-1.6-3.3c-0.8-0.9-2-1.5-2.8-2.6c-0.4-0.5-0.7-1.1-0.9-1.8c-0.1-0.7,0-1.5,0.5-2l0.1-0.1l0.1,0
				c2.4,0.6,4.2,2.5,5.5,4.6c1.3,2.1,2.1,4.3,3,6.5c0.9,2.2,2.1,4.3,3.8,5.9C303.9,548.3,306,549.5,308.3,550.2z"/>
		</g>
	</g>
	<g>
		<path class="st2" d="M319,541.3c-1.9-2.1-4.8-2.7-7.4-2.9c-1.7-0.1-3.5,0-5.1,0.6c-1.4,0.5-2.6,1.4-3.6,2.6
			c-0.7,0.8-1.2,1.8-1.3,2.9c-0.1,1.2,0.5,2.4,1.3,3.2s1.8,1.4,2.9,1.7c2.6,1,5.5,1.1,8.2,0.4c1.3-0.3,2.6-0.9,3.7-1.9
			C319.3,546.4,320.6,543.1,319,541.3z"/>
		<g>
			<path class="st8" d="M319,541.3c-1.4-1.5-3.3-2.3-5.3-2.6c-2-0.3-4-0.3-6,0.1c-1.9,0.4-3.7,1.6-4.9,3.1c-0.6,0.8-1.1,1.7-1.1,2.6
				c-0.1,0.9,0.3,1.9,0.8,2.7c1.1,1.6,3.1,2.3,5,2.7c1.9,0.4,4,0.4,5.9,0c1.9-0.4,3.8-1.3,4.9-3c0.6-0.8,1-1.8,1.2-2.7
				C319.8,543.2,319.7,542.1,319,541.3z M319,541.3c0.7,0.8,0.8,1.9,0.7,2.8c-0.2,1-0.6,1.9-1.1,2.8c-0.5,0.8-1.3,1.6-2.1,2.1
				c-0.9,0.5-1.8,0.9-2.8,1.1c-2,0.5-4,0.6-6,0.2c-1-0.2-2-0.5-2.9-0.9c-0.9-0.4-1.8-1-2.4-1.9c-0.6-0.8-1-1.9-0.9-3
				c0.1-1.1,0.6-2,1.3-2.8c1.3-1.6,3.1-2.7,5.1-3.1c2-0.4,4-0.2,6,0.1C315.7,539,317.7,539.8,319,541.3z"/>
		</g>
	</g>
	<g>
		<path d="M307.9,538.1c-2.9-4.9-7.4-8.8-9.6-14"/>
		<path class="st9" d="M307.9,538.1c-1.6-2.3-3.5-4.5-5.2-6.7c-1.7-2.2-3.4-4.6-4.4-7.3c1.3,2.5,3,4.8,4.8,7
			C304.7,533.4,306.6,535.6,307.9,538.1z"/>
	</g>
	<g>
		<path class="st9" d="M308.3,526.6c-0.7-0.2-1.3-0.3-2-0.4c-0.7-0.1-1.3-0.1-2-0.1c-0.7,0-1.3,0.1-2,0.2c-0.7,0.1-1.3,0.3-2,0.3
			c0.6-0.3,1.3-0.5,1.9-0.7c0.7-0.2,1.3-0.3,2-0.3C305.8,525.5,307.2,525.9,308.3,526.6z"/>
	</g>
	<g>
		<path class="st9" d="M309.5,529.4c-2.4-1.3-5.2-1.4-7.7-0.3c1.1-0.9,2.5-1.3,3.9-1.2C307.1,527.9,308.5,528.4,309.5,529.4z"/>
	</g>
	<g>
		<path class="st9" d="M311,532.2c-1.2-0.4-2.4-0.7-3.6-0.8c-0.6-0.1-1.2-0.1-1.8,0c-0.3,0-0.6,0-0.9,0.1c-0.2,0-0.3,0-0.4,0.1
			c-0.1,0.1-0.3,0.1-0.2,0.3c-0.1-0.2,0-0.3,0.2-0.4c0.1-0.1,0.3-0.1,0.5-0.2c0.3-0.1,0.6-0.2,0.9-0.2c0.6-0.1,1.3-0.1,1.9-0.1
			C308.7,531.1,310,531.5,311,532.2z"/>
	</g>
	<g>
		<path class="st9" d="M313.8,535.5c-1.3-0.3-2.5-0.6-3.7-0.8c-1.2-0.2-2.5-0.1-3.7,0.3c1-0.8,2.5-1,3.8-0.8
			C311.4,534.4,312.6,534.9,313.8,535.5z"/>
	</g>
</g>
</svg>
