<?xml version="1.0" encoding="utf-8"?>
<!-- Generator: Adobe Illustrator 24.2.3, SVG Export Plug-In . SVG Version: 6.00 Build 0)  -->
<svg version="1.1" id="tenue_x5F_feminine_x5F_7" xmlns="http://www.w3.org/2000/svg" xmlns:xlink="http://www.w3.org/1999/xlink"
	 x="0px" y="0px" viewBox="0 0 553 574" style="enable-background:new 0 0 553 574;" xml:space="preserve">
<style type="text/css">
	.st0{fill:none;}
	.st1{fill:#040404;}
	.st2{fill:#FFFFFF;}
	.st3{fill:#2D2D2D;}
	.st4{fill:#6D6E6E;}
	.st5{fill:#000006;}
	.st6{fill:#060A0F;}
</style>
<g id="cadre_8_">
	<rect x="0" class="st0" width="553" height="574"/>
</g>
<g>
	<g>
		<path d="M318.8,131.1c-3.9-7.1-15.3-30.6-23.3-16.4c-7.8,10.4-22.6,19.4-31.2,13.3c-8.5-5.5-16.6-12.5-25.8-16.4
			c-8.6,4.3-12.7,15.6-13.2,25.2c-0.4,13,8.1,31.1,22.6,30c9-2.6,17-8.5,26-10.9c9.3-0.6,17.2,9.5,26.9,7.7
			C315.7,161,325.4,145.5,318.8,131.1z M259.7,146.1c-7.2,8.2-23.9,6.5-26.3-5.3c0.1-0.2,0.2-0.4,0.3-0.7c-0.2,0.2-0.4,0.5-0.7,0.7
			c2.8-13.3,24.3-13,26.6,0.4c-0.3-0.8-0.7-1.6-1.2-2.4C259.5,141,260,143.5,259.7,146.1z M303.4,150.8c-5.4,0.9-11.3-1-14.9-4.9
			c-0.3-2.4,0.1-4.7,1-6.7c-0.4,0.7-0.7,1.4-0.9,2.1c2.3-13.6,23.1-14.1,26.3-0.8c-0.1,0.1,0,0.2,0,0.3c0,0-0.1-0.1-0.1-0.1
			C313.4,146.3,308.7,149.9,303.4,150.8z"/>
		<path class="st1" d="M298.9,131.1c6.3-1,13,2.7,15.3,8.3c-3.5-13-23.9-12-26.1,1.3C289.8,135.8,293.7,131.8,298.9,131.1z"/>
		<path class="st1" d="M314.4,140c0,0,0,0.1,0,0.1c0,0,0.1,0.1,0.1,0.1C314.4,140.1,314.4,140,314.4,140z"/>
		<path class="st2" d="M314.4,139.9c-0.1-0.2-0.1-0.3-0.2-0.5c0.1,0.2,0.1,0.4,0.2,0.6C314.4,139.9,314.4,139.9,314.4,139.9z"/>
		<path class="st1" d="M248.5,131.3c5.1,0.7,9,4.6,10.7,9.3c-2.3-13.4-23.8-13.7-26.6-0.4C235.5,134.6,241.5,130.1,248.5,131.3z"/>
	</g>
	<g>
		<g>
			<path class="st3" d="M322.2,213.2c17.3,32.4,2,72.9,10.6,107.8c6.7,16.7-2.2,36.9,5.8,52.1c16.3,13.5,11.5,21.7,14.1,40.2
				c2.5,8,9.6,13.6,13.2,21.1c5.1,10.9,2.9,28.2,16,33.6c-50.7,33.4-32.9,12.3-80.1,13.7c-23.5,11.9-26.3,16.3-52.1,4.3
				c-25.1-7.1-56.3,15.4-78.7-3.1c17.5-4.9,7.6-28.8,14.1-41c25.3-26,14.4-21.3,17.4-53.1c4.6-10.2,10.3-19.9,9.8-31.6
				c3.2-43.1,6.3-86.2,7.6-129.3c1.1-45.5,36.7-7.8,66.1-17.2C299.8,205.6,310.8,198.7,322.2,213.2z"/>
			<g>
				<path d="M322.2,213.2c4.3,8,6.7,17,7.8,26c1.1,9.1,1.1,18.2,0.8,27.3c-0.3,9.1-0.8,18.2-0.8,27.3c0,9.1,0.7,18.3,2.9,27.1l0,0
					c1.7,4.1,2.4,8.5,2.6,13c0.2,4.4,0,8.8-0.2,13.2c-0.2,4.4-0.3,8.8,0,13.2c0.4,4.4,1.3,8.8,3.4,12.7l0,0c2.8,2.4,5.5,5,7.7,8
					c2.2,3,3.7,6.5,4.5,10.1c0.7,3.7,0.8,7.4,1,11.1c0.2,3.7,0.5,7.4,1,11.1l0,0c0.8,2.5,2.1,4.9,3.5,7c1.5,2.2,3.1,4.3,4.7,6.4
					c1.6,2.1,3.2,4.3,4.4,6.6c1.2,2.4,2.1,4.9,2.7,7.5c1.3,5.1,2,10.4,3.8,15.4c0.9,2.5,2,4.9,3.7,6.9c1.7,2,3.8,3.6,6.3,4.6
					c0.1,0,0.1,0.1,0.1,0.2c0,0,0,0.1-0.1,0.1c-6,3.9-11.9,7.8-18.1,11.3c-3.1,1.8-6.2,3.5-9.5,4.9c-1.6,0.7-3.3,1.4-5,1.8
					c-1.7,0.5-3.5,0.9-5.3,0.9c-3.6,0.2-7.1-0.7-10.6-1.7c-3.4-0.9-6.9-1.8-10.4-2.4c-7-1.2-14.2-1.4-21.3-1.2l0.1,0
					c-4.1,2.1-8.2,4.3-12.4,6.4c-4.2,2-8.4,4.1-13.1,4.8c-4.7,0.7-9.4-0.2-13.8-1.6c-4.4-1.4-8.7-3.3-13-5.2l0,0
					c-6.5-1.8-13.3-1.6-20-0.8c-6.7,0.8-13.3,2.3-19.9,3.5c-6.6,1.2-13.4,2.1-20.2,1.5c-3.4-0.3-6.7-1-9.9-2.2
					c-3.2-1.2-6.1-3-8.7-5.2c-0.1-0.1-0.1-0.2,0-0.3c0,0,0.1-0.1,0.1-0.1c1.8-0.5,3.6-1.3,5.1-2.5c1.5-1.1,2.7-2.7,3.6-4.4
					c1.7-3.4,2.2-7.3,2.4-11.1c0.2-3.8,0.2-7.7,0.4-11.6c0.2-3.8,0.7-7.8,2.5-11.3c0,0,0,0,0,0c3.4-3.6,6.8-7.1,9.9-10.9
					c0.8-0.9,1.5-1.9,2.3-2.9c0.8-1,1.4-2,2-3c0.4-0.5,0.6-1.1,0.9-1.6c0.3-0.6,0.6-1.1,0.8-1.7l0.6-1.7c0.2-0.6,0.3-1.2,0.4-1.8
					c0.4-2.4,0.4-4.9,0.2-7.3c-0.1-2.5-0.3-4.9-0.3-7.4c-0.1-4.9,0.1-9.8,0.5-14.7c0,0,0,0,0-0.1c2.3-5.1,4.9-10,6.8-15.2
					c2-5.2,3.2-10.7,3-16.3l0,0c3.1-42,6.2-84,7.6-126.2c0.1-2.6,0.2-5.3,0.4-7.9c0.2-1.3,0.2-2.6,0.5-3.9l0.4-1.9
					c0.2-0.6,0.4-1.3,0.5-1.9c0.8-2.5,1.9-5,3.7-6.9c1.8-1.9,4.4-3.1,7-3.4c2.6-0.4,5.3-0.1,7.9,0.3c2.6,0.4,5.2,1,7.7,1.7
					c5.1,1.3,10.2,2.8,15.3,3.9c2.6,0.5,5.2,1,7.8,1.2c0.7,0.1,1.3,0.1,2,0.1l2,0.1c1.3,0,2.6,0,3.9-0.2c2.6-0.2,5.2-0.8,7.7-1.6
					l7.4-2.9c2.5-1,5-1.8,7.5-2.4c2.6-0.6,5.2-0.9,7.8-0.5c2.6,0.4,5.1,1.5,7.2,3C318.8,209.2,320.5,211.2,322.2,213.2z
					 M322.2,213.2c-1.7-2-3.4-4-5.6-5.5c-2.1-1.5-4.6-2.6-7.2-3c-2.6-0.4-5.3-0.1-7.8,0.5c-2.6,0.6-5.1,1.5-7.5,2.4l-7.4,2.9
					c-2.5,0.8-5.1,1.4-7.7,1.6c-1.3,0.2-2.6,0.1-3.9,0.2l-2-0.1c-0.7,0-1.3-0.1-2-0.1c-2.6-0.2-5.2-0.7-7.8-1.2
					c-5.2-1.1-10.2-2.5-15.3-3.8c-2.6-0.6-5.1-1.3-7.7-1.7c-2.6-0.4-5.2-0.6-7.8-0.2c-2.6,0.4-5.1,1.5-6.9,3.4
					c-1.8,1.9-2.9,4.4-3.7,6.9c-0.2,0.6-0.4,1.3-0.5,1.9l-0.4,1.9c-0.3,1.3-0.3,2.6-0.5,3.9c-0.2,2.6-0.3,5.3-0.4,7.9
					c-1.3,42.1-4.4,84.2-7.5,126.2l0,0c0.2,5.6-1,11.2-3,16.4c-2,5.2-4.5,10.2-6.8,15.3l0-0.1c-0.4,4.9-0.7,9.8-0.5,14.7
					c0.1,2.5,0.2,4.9,0.3,7.4c0.1,2.4,0.2,4.9-0.2,7.4c-0.1,0.6-0.2,1.2-0.4,1.8l-0.6,1.8c-0.2,0.6-0.5,1.1-0.8,1.7
					c-0.3,0.6-0.5,1.1-0.9,1.6c-0.7,1-1.3,2.1-2.1,3.1c-0.7,1-1.5,2-2.3,2.9c-3.1,3.8-6.6,7.3-10,10.9l0,0
					c-1.8,3.4-2.2,7.3-2.5,11.1c-0.2,3.8-0.2,7.7-0.4,11.6c-0.2,3.8-0.7,7.8-2.5,11.3c-0.9,1.8-2.1,3.3-3.7,4.5
					c-1.6,1.2-3.4,2-5.2,2.6l0.1-0.4c2.6,2.1,5.5,3.9,8.6,5.1c3.1,1.2,6.4,1.9,9.8,2.2c6.7,0.6,13.4-0.4,20.1-1.5
					c6.6-1.2,13.2-2.7,20-3.5c6.7-0.8,13.6-1,20.2,0.8l0,0c4.2,1.9,8.5,3.8,12.9,5.2c4.4,1.4,9,2.3,13.6,1.6c4.6-0.7,8.8-2.7,13-4.7
					c4.2-2.1,8.3-4.3,12.4-6.4c0,0,0.1,0,0.1,0c7.1-0.2,14.3,0,21.3,1.2c3.5,0.6,7,1.4,10.4,2.4c3.4,0.9,6.9,1.9,10.4,1.7
					c1.8-0.1,3.5-0.4,5.2-0.9c1.7-0.5,3.4-1.1,5-1.8c3.3-1.4,6.4-3.1,9.5-4.9c6.2-3.5,12.2-7.4,18.1-11.3l0,0.3
					c-2.5-1.1-4.7-2.7-6.4-4.7c-1.7-2.1-2.9-4.5-3.7-7c-1.8-5-2.5-10.3-3.8-15.5c-0.6-2.6-1.5-5.1-2.7-7.4c-1.2-2.3-2.8-4.5-4.4-6.6
					c-1.6-2.1-3.3-4.2-4.7-6.4c-1.5-2.2-2.8-4.6-3.6-7.1l0,0c-0.5-3.7-0.8-7.4-1-11.1c-0.2-3.7-0.3-7.4-1-11
					c-0.7-3.6-2.2-7.1-4.4-10.1c-2.2-3-4.9-5.6-7.7-7.9c0,0,0,0,0,0c-2.1-3.9-3-8.4-3.4-12.8c-0.4-4.4-0.2-8.8,0-13.2
					c0.2-4.4,0.4-8.8,0.2-13.2c-0.2-4.4-0.9-8.8-2.6-12.9l0,0c-2.2-8.9-2.8-18-2.8-27.1c0-9.1,0.5-18.2,0.8-27.3
					c0.3-9.1,0.4-18.2-0.7-27.3C328.9,230.2,326.5,221.3,322.2,213.2z"/>
			</g>
		</g>
		<g>
			<path class="st4" d="M293.3,202.7c0.6,3.2,2.3,6.5,5.8,7c15.4,2.8,31,5.6,33.8,8.4c17.5,17.6,26.7,74.6,27.7,99.5
				c0.2,5.2-10.4,7.6-16.2,7.3c-10.4-19.3-11.8-42.5-20.3-55.8c9.4,61.2-9.8,215.1-12.4,233.4c-5.4,0.5-20.5,9.3-22.7,2.2
				c-9.2-43.4-9.3-83.8-7.4-128.1c0.2-5-1.6-8.3-6.7-8c-4.3,0.3-5.6,9.1-5.8,13.4c-1.7,45.5-1.7,92.7-10.2,124.1
				c-5.9,1.3-13.7,0.8-19,0.2c-16.3-77.5-23.8-158.6-13.6-237c-12.7,16.5-11.3,38.7-20.8,57.7c-6.3-1.9-8.7,0-14.5-3.4
				c-1.2-34.9,8.3-71.8,24.7-102.6c8.8-14.3,36.6-2,40.3-19.4C267.8,203.6,281.7,204.1,293.3,202.7z"/>
			<path d="M293.3,202.7c0.3,1.7,0.9,3.4,2,4.8c0.5,0.7,1.2,1.3,2,1.7c0.8,0.4,1.7,0.5,2.5,0.7l10.4,1.9c3.5,0.7,6.9,1.3,10.3,2.1
				c1.7,0.4,3.4,0.8,5.1,1.3c1.7,0.5,3.4,1,5,1.7c0.8,0.3,1.6,0.8,2.2,1.4c0.6,0.7,1.2,1.3,1.8,2c0.5,0.7,1.1,1.4,1.6,2.1
				c0.5,0.7,1,1.4,1.5,2.2c1.9,3,3.5,6.1,5,9.3c2.9,6.4,5.2,13.1,7.1,19.8c3.9,13.5,6.6,27.4,8.5,41.3c0.9,7,1.7,14,2.1,21l0.1,1.3
				c0,0.4,0.1,0.9,0,1.3c-0.1,0.9-0.6,1.7-1.2,2.3c-1.3,1.3-2.9,2.1-4.5,2.7c-3.3,1.2-6.9,1.7-10.4,1.6c0,0,0,0-0.1,0
				c-4.7-8.8-7.6-18.4-10.2-27.9c-1.3-4.8-2.6-9.6-4.1-14.3c-1.5-4.7-3.3-9.4-5.9-13.6l0.2-0.1l0.8,7.3l0.4,3.6
				c0.1,0.6,0.2,1.2,0.2,1.8l0.1,1.8l0.4,7.3c0.1,2.4,0.3,4.9,0.3,7.3c0.1,4.9,0.2,9.8,0.2,14.6l-0.1,14.6
				c-0.4,19.5-1.5,39-2.9,58.5c-1.4,19.5-3.2,38.9-5.1,58.3c-2,19.4-4.1,38.8-6.7,58.2c0,0.1-0.1,0.1-0.2,0.2l0,0
				c-2,0.2-3.9,1-5.9,1.7c-1.9,0.7-3.9,1.4-5.8,2c-2,0.6-4,1.1-6.1,1.2c-1,0-2.1,0-3.1-0.5c-1-0.4-1.7-1.4-2-2.4l0,0
				c-4.9-22.9-7.4-46.3-8.1-69.7c-0.4-11.7-0.4-23.4-0.1-35.1c0.1-5.9,0.3-11.7,0.5-17.6l0.2-4.4c0.1-1.5,0.1-2.9-0.1-4.3
				c-0.2-1.4-0.9-2.8-2-3.6c-0.6-0.4-1.2-0.7-1.9-0.9c-0.7-0.1-1.4-0.2-2.1-0.2c-1.4,0-2.5,1-3.3,2.2c-0.7,1.2-1.2,2.6-1.6,4
				c-0.7,2.8-1,5.7-1,8.7l-0.6,17.6c-0.4,11.7-0.7,23.4-1.3,35.1c-0.5,11.7-1.2,23.4-2.4,35.1c-1.2,11.7-2.9,23.3-5.9,34.6
				c0,0.1-0.1,0.1-0.2,0.1c-3.1,0.7-6.3,0.8-9.5,0.8c-3.2,0-6.4-0.3-9.5-0.7c-0.1,0-0.2-0.1-0.2-0.2c-8.2-38.9-14.1-78.3-16.7-118
				c-2.6-39.7-2-79.6,3.2-119l0.2,0.1c-3.1,4.1-5.5,8.7-7.3,13.5c-1.8,4.8-3.1,9.8-4.3,14.8c-1.2,5-2.3,10-3.7,15
				c-1.4,5-3.1,9.8-5.4,14.5c0,0-0.1,0.1-0.1,0c-1.2-0.4-2.4-0.6-3.7-0.8c-1.2-0.2-2.5-0.2-3.7-0.3c-1.2-0.1-2.5-0.3-3.7-0.7
				c-1.2-0.4-2.3-0.9-3.4-1.6c0,0,0,0,0-0.1c-0.2-6.4-0.1-12.9,0.4-19.3c0.5-6.4,1.2-12.8,2.4-19.1c1.1-6.3,2.4-12.6,4.1-18.8
				c1.7-6.2,3.6-12.4,5.8-18.4c1.1-3,2.3-6,3.5-9c1.3-2.9,2.5-5.9,3.9-8.8c1.3-2.9,2.8-5.8,4.3-8.6c0.8-1.4,1.8-2.7,3-3.7
				c1.2-1,2.6-1.9,4.1-2.5c3-1.3,6.2-1.8,9.4-2.2c3.2-0.4,6.4-0.6,9.6-1.1c3.2-0.4,6.4-1.1,9.2-2.7c1.4-0.8,2.6-1.9,3.5-3.2
				c0.9-1.3,1.5-2.9,1.8-4.4c0,0,0,0,0,0c6.1,1,12.3,1.5,18.6,1.7C280.9,203.6,287.1,203.4,293.3,202.7z M293.3,202.7
				c-6.2,0.7-12.4,0.9-18.6,0.8c-6.2-0.2-12.4-0.7-18.6-1.7l0,0c-0.4,1.6-0.9,3.1-1.8,4.4c-0.9,1.3-2.1,2.4-3.5,3.3
				c-2.8,1.6-6,2.3-9.2,2.7c-3.2,0.4-6.4,0.7-9.6,1.1c-3.2,0.4-6.4,1-9.3,2.2c-2.9,1.3-5.6,3.4-7.1,6.2c-1.5,2.9-3,5.7-4.3,8.6
				c-1.4,2.9-2.6,5.9-3.9,8.8c-1.2,3-2.4,6-3.5,9c-2.2,6-4.1,12.2-5.8,18.4c-1.7,6.2-3,12.5-4.1,18.8c-1.1,6.3-1.8,12.7-2.3,19.1
				c-0.5,6.4-0.6,12.8-0.4,19.3l0-0.1c1.1,0.6,2.2,1.2,3.4,1.5c1.2,0.4,2.4,0.6,3.7,0.7c1.2,0.1,2.5,0.2,3.7,0.3
				c1.2,0.2,2.5,0.4,3.7,0.8l-0.1,0c2.3-4.6,4-9.5,5.4-14.4c1.4-4.9,2.5-10,3.7-15c1.2-5,2.5-10,4.3-14.8c1.8-4.8,4.2-9.5,7.4-13.5
				c0,0,0.1-0.1,0.1,0c0,0,0,0.1,0,0.1c-5.1,39.4-5.7,79.3-3.1,119c2.7,39.7,8.6,79,16.8,117.9l-0.2-0.2c3.1,0.4,6.3,0.6,9.5,0.6
				c3.2,0,6.4-0.2,9.4-0.8l-0.2,0.1c2.9-11.3,4.7-22.9,5.9-34.6c1.2-11.6,1.9-23.3,2.4-35c0.5-11.7,0.9-23.4,1.2-35.1l0.6-17.6
				c0.1-2.9,0.3-5.9,1-8.8c0.4-1.4,0.8-2.9,1.6-4.1c0.4-0.6,0.9-1.3,1.5-1.7c0.3-0.3,0.7-0.4,1-0.6c0.4-0.1,0.8-0.2,1.1-0.2
				c0.7,0,1.5,0,2.2,0.2c0.7,0.2,1.5,0.5,2.1,1c1.2,1,1.9,2.4,2.2,3.9c0.3,1.5,0.2,3,0.1,4.4l-0.2,4.4c-0.2,5.9-0.4,11.7-0.6,17.6
				c-0.3,11.7-0.3,23.4,0.1,35.1c0.7,23.4,3.2,46.8,8.1,69.7l0,0c0.3,0.9,0.9,1.7,1.8,2.2c0.9,0.4,1.9,0.5,2.9,0.4
				c2-0.1,4-0.6,6-1.2c2-0.6,3.9-1.3,5.8-2c1.9-0.7,3.9-1.4,6-1.7l-0.2,0.2c2.6-19.3,4.8-38.7,6.8-58.2c2-19.4,3.8-38.9,5.2-58.3
				c1.4-19.5,2.5-39,2.9-58.5l0.2-14.6c0-4.9-0.2-9.8-0.2-14.6c0-2.4-0.2-4.9-0.3-7.3l-0.4-7.3l-0.1-1.8c0-0.6-0.1-1.2-0.2-1.8
				l-0.4-3.6l-0.8-7.3c0,0,0-0.1,0.1-0.1c0,0,0.1,0,0.1,0c2.6,4.2,4.4,8.9,6,13.6c1.5,4.7,2.8,9.5,4.1,14.3
				c2.6,9.5,5.5,19.1,10.2,27.9l-0.1,0c3.5,0.2,7-0.4,10.3-1.5c1.6-0.6,3.3-1.4,4.5-2.6c0.6-0.6,1.1-1.4,1.2-2.3
				c0.1-0.9,0-1.7,0-2.6c-0.4-7-1.1-14-2.1-21c-1.9-13.9-4.6-27.8-8.5-41.3c-2-6.7-4.2-13.4-7.1-19.8c-1.4-3.2-3.1-6.3-5-9.3
				c-0.5-0.7-1-1.4-1.5-2.2c-0.5-0.7-1.1-1.4-1.6-2.1c-0.6-0.7-1.2-1.3-1.8-2c-0.7-0.6-1.4-1-2.2-1.4c-1.6-0.7-3.3-1.2-5-1.7
				c-1.7-0.5-3.4-0.9-5.1-1.3c-3.4-0.8-6.9-1.5-10.3-2.1l-10.4-1.9c-0.9-0.2-1.7-0.3-2.5-0.7c-0.8-0.4-1.5-1-2-1.7
				C294.2,206.1,293.6,204.4,293.3,202.7z"/>
		</g>
		<g>
			<path d="M267.1,220.9c-1.1-1.3-2.5-2.3-4.1-2.6c-1.6-0.3-3.3-0.1-5,0.2c-1.7,0.2-3.4,0.5-5.2,0.3c-0.4-0.1-0.9-0.2-1.3-0.3
				c-0.4-0.2-0.8-0.3-1.2-0.5c-0.4-0.3-0.7-0.5-1.1-0.8c-0.3-0.3-0.6-0.7-0.9-1c1.3,1.2,2.9,1.8,4.5,1.8c1.6,0,3.3-0.3,5-0.5
				c1.7-0.2,3.5-0.5,5.3,0c0.9,0.3,1.7,0.7,2.4,1.3c0.3,0.3,0.7,0.6,0.9,1C266.7,220.2,266.9,220.5,267.1,220.9z"/>
		</g>
		<g>
			<path d="M282.2,220.9c0.2-0.4,0.5-0.7,0.7-1.1c0.2-0.4,0.6-0.6,0.9-1c0.7-0.6,1.5-1,2.4-1.3c1.8-0.5,3.6-0.3,5.3,0
				c1.7,0.3,3.4,0.6,5,0.5c1.6,0,3.2-0.6,4.5-1.8c-0.3,0.3-0.6,0.7-0.9,1c-0.3,0.3-0.7,0.5-1.1,0.8c-0.4,0.2-0.8,0.4-1.2,0.5
				c-0.4,0.1-0.9,0.2-1.3,0.3c-1.8,0.2-3.5-0.1-5.2-0.3c-1.7-0.3-3.4-0.5-5-0.2C284.8,218.6,283.3,219.6,282.2,220.9z"/>
		</g>
		<g>
			<path d="M204.3,260.2c1.2,3,2,6.2,2.3,9.4c0.3,3.2,0.2,6.5-0.4,9.8c-0.6,3.2-1.8,6.4-3.7,9.1c-0.5,0.7-1,1.3-1.5,1.9l-1.8,1.7
				l-2,1.4c-0.7,0.4-1.4,0.7-2.2,1.1c2.8-1.6,5.2-3.9,6.8-6.6c1.7-2.7,2.7-5.7,3.3-8.8c0.6-3.1,0.8-6.3,0.6-9.5l-0.2-2.4l-0.3-2.4
				c-0.1-0.8-0.3-1.6-0.4-2.4L204.3,260.2z"/>
		</g>
		<g>
			<path d="M311.4,210.1c1.1,1.8,1.9,3.7,2.6,5.7c0.7,2,1.3,4,2,5.9c1.3,4,2.6,7.9,4.9,11.3c2.3,3.4,5.7,5.9,9.3,7.8
				c1.8,1,3.7,1.8,5.8,2.1c1,0.2,2,0.2,3.1,0.1c1-0.1,2-0.6,2.9-1.1c-0.8,0.6-1.8,1.1-2.8,1.4c-1,0.2-2.1,0.3-3.2,0.1
				c-2.1-0.2-4.1-1-6-1.9c-1.9-0.9-3.7-2.1-5.4-3.4c-1.7-1.3-3.2-2.9-4.4-4.6c-2.4-3.6-3.7-7.6-4.8-11.6
				C314.1,217.9,313.1,213.9,311.4,210.1z"/>
		</g>
		<g>
			<path d="M237.2,210.1c-1.8,3.8-2.8,7.8-3.9,11.9c-1.1,4-2.5,8.1-4.8,11.6c-1.2,1.7-2.7,3.3-4.4,4.6c-1.7,1.3-3.5,2.5-5.4,3.4
				c-1.9,0.9-3.9,1.6-6,1.9c-1.1,0.1-2.1,0.1-3.2-0.1c-1-0.2-2-0.7-2.8-1.4c0.9,0.6,1.8,1,2.9,1.1c1,0.1,2,0.1,3.1-0.1
				c2-0.3,4-1.1,5.8-2.1c3.6-1.9,7-4.5,9.3-7.8c2.3-3.4,3.6-7.3,4.9-11.3c0.6-2,1.3-4,2-5.9C235.3,213.8,236.1,211.9,237.2,210.1z"
				/>
		</g>
		<g>
			<path d="M349.2,261.1c-1.1,2.2-1.8,4.6-2,7c-0.2,2.4,0,4.8,0.6,7.2c0.6,2.4,1.5,4.6,2.5,6.8l0.8,1.6l0.9,1.6l0.9,1.6
				c0.3,0.5,0.7,1,1,1.6c-1.7-1.8-3.1-3.9-4.4-6c-1.2-2.2-2.2-4.5-2.8-7c-0.6-2.4-0.8-5-0.4-7.5c0.1-0.6,0.2-1.2,0.4-1.8
				c0.2-0.6,0.4-1.2,0.6-1.8c0.3-0.6,0.5-1.1,0.8-1.7C348.5,262.1,348.8,261.6,349.2,261.1z"/>
		</g>
		<g>
			<path d="M272,257.6c-0.4,1-0.4,2.1-0.5,3.2c-0.1,1.1-0.1,2.2-0.2,3.2c-0.1,1.1-0.3,2.2-0.7,3.2c-0.4,1-1.3,2-2.5,2.4l0,0l0,0
				c-2.4,0.4-4.9,0.7-7.3,0.9c-2.4,0.2-4.9,0.3-7.4,0.1c-2.5-0.1-4.9-0.4-7.3-0.8c-2.4-0.5-4.8-1.1-7.1-2l0,0
				c-0.1,0-0.1-0.1-0.2-0.1c-0.5-1.2-0.6-2.5-0.7-3.7c-0.1-1.2-0.1-2.5-0.3-3.7c0.3,1.2,0.4,2.4,0.6,3.6c0.2,1.2,0.4,2.4,0.9,3.5
				l-0.2-0.2c2.3,0.8,4.7,1.3,7.1,1.7c2.4,0.4,4.8,0.6,7.2,0.7c2.4,0.1,4.8,0.1,7.3-0.1c2.4-0.1,4.8-0.4,7.2-0.7l-0.1,0
				c0.9-0.3,1.7-1,2.1-1.9c0.4-0.9,0.6-2,0.8-3c0.2-1.1,0.3-2.1,0.4-3.2C271.3,259.7,271.5,258.6,272,257.6z"/>
		</g>
		<g>
			<path d="M316.2,256.5c-0.3,1-0.4,2.1-0.4,3.2c0,1.1,0,2.2-0.1,3.3c-0.1,1.1-0.2,2.2-0.7,3.3c-0.2,0.5-0.6,1-1.1,1.4
				c-0.2,0.2-0.5,0.3-0.8,0.5l-0.8,0.3l0,0l0,0c-3.5,0.5-7.1,1.1-10.7,1.6c-3.6,0.5-7.2,0.7-10.8,0.5c-1.8-0.1-3.6-0.3-5.4-0.8
				c-1.8-0.5-3.5-1.2-5-2.3c-1.5-1.1-2.7-2.6-3.3-4.3c-0.7-1.7-1-3.5-1-5.3c0.2,1.8,0.6,3.6,1.3,5.2c0.8,1.6,1.9,3,3.4,4
				c1.4,1,3.1,1.6,4.8,2c1.7,0.4,3.5,0.6,5.2,0.7c3.6,0.1,7.1-0.2,10.7-0.6c3.6-0.4,7.1-1,10.7-1.4l0,0c1-0.2,1.8-0.8,2.3-1.7
				c0.5-0.9,0.7-2,0.8-3c0.1-1.1,0.2-2.2,0.3-3.2C315.7,258.6,315.8,257.5,316.2,256.5z"/>
		</g>
		<g>
			<path d="M300,280.6c-3.8,1.4-7.8,2.3-11.8,3c-4,0.7-8.1,0.9-12.2,1c-4.1,0-8.2-0.3-12.2-1l-3-0.6l-3-0.7l-2.9-0.8
				c-1-0.3-1.9-0.6-2.9-0.9c1,0.2,2,0.5,3,0.7l3,0.6l3,0.5l3,0.4c4,0.5,8,0.8,12.1,0.8c4,0,8.1-0.2,12.1-0.7
				C292.1,282.3,296.1,281.5,300,280.6z"/>
		</g>
		<g>
			<path d="M302.8,295.1c-1,0.6-2.1,1.2-3.1,1.8c-1.1,0.5-2.2,1-3.3,1.4c-1.1,0.4-2.3,0.8-3.4,1.1c-1.2,0.3-2.3,0.6-3.5,0.8
				c-4.8,0.9-9.6,1.1-14.4,0.9c-4.8-0.3-9.6-0.9-14.3-1.8c-2.4-0.5-4.7-1-7-1.6c-2.3-0.6-4.6-1.3-6.9-2l3.5,0.8l3.5,0.8
				c2.3,0.5,4.7,0.9,7.1,1.3c4.7,0.8,9.5,1.4,14.2,1.6c4.8,0.3,9.5,0.1,14.3-0.7C293.9,298.8,298.5,297.4,302.8,295.1z"/>
		</g>
		<g>
			<path d="M306.1,308.9c-4.5,2.4-9.3,4.1-14.3,5.4c-5,1.2-10.1,1.9-15.2,2c-5.1,0.1-10.2-0.3-15.2-1.4l-3.7-0.9L254,313l-3.6-1.3
				l-3.5-1.5l3.6,1.3l3.6,1.1l3.7,0.9l3.7,0.7c5,0.9,10,1.3,15.1,1.1c5-0.1,10.1-0.7,15-1.8C296.6,312.4,301.5,310.9,306.1,308.9z"
				/>
		</g>
		<g>
			<path d="M302.9,323c-4.1,1.9-8.5,3.3-12.9,4.3c-4.4,1-9,1.7-13.5,2c-4.5,0.2-9.1,0.2-13.6-0.5c-4.5-0.7-9-2-12.7-4.7l1.5,0.8
				c0.5,0.3,1,0.6,1.5,0.7l1.6,0.6c0.3,0.1,0.5,0.2,0.8,0.3l0.8,0.2c1.1,0.3,2.2,0.6,3.3,0.8c1.1,0.2,2.2,0.4,3.3,0.5
				c4.5,0.5,9,0.6,13.5,0.3c4.5-0.2,9-0.9,13.4-1.7c2.2-0.4,4.4-0.9,6.6-1.5c1.1-0.2,2.2-0.6,3.3-0.9
				C300.7,323.7,301.8,323.3,302.9,323z"/>
		</g>
		<g>
			<path d="M276.2,274.8c-0.4,5-0.8,10-1.1,14.9c-0.3,5-0.6,10-0.7,14.9c-0.2,5-0.3,10-0.4,14.9c0,2.5-0.1,5-0.1,7.5l0,7.5
				c-0.2-2.5-0.3-5-0.5-7.5c-0.1-2.5-0.2-5-0.2-7.5c-0.1-5,0-10,0.2-15c0.2-5,0.5-10,1-15C274.9,284.7,275.4,279.8,276.2,274.8z"/>
		</g>
		<g>
			<path d="M312.2,338.5c-1.5,1.9-3.3,3.5-5.2,5c-1.9,1.4-4,2.8-6.2,3.7c1.8-1.6,3.7-3,5.6-4.5C308.3,341.2,310.2,339.8,312.2,338.5
				z"/>
		</g>
		<g>
			<path d="M245.3,346c-1.3-1.3-2.6-2.6-3.9-3.9c-1.3-1.3-2.6-2.4-4-3.7c1.8,0.6,3.3,1.7,4.7,3C243.5,342.7,244.6,344.2,245.3,346z"
				/>
		</g>
		<g>
			<path class="st5" d="M342.2,320.6c2.4,5,2,8.9,1.2,14c-0.5,3.4-0.6,6.9-0.2,10.3c0.7,7,1.4,21,5.9,15c0.8-3.2,1.1-9.9,1.7-5.7
				c1.7,4-3.3,11.1-1.5,13.3c6.9,6.7,12.6,1.7,12.5-6.5c1.4-14.8,2.8-31.1-1.4-45.3C355.4,318.5,348.3,322.1,342.2,320.6z"/>
			<path class="st5" d="M342.2,320.6c0.8,1.7,1.4,3.5,1.7,5.3c0.3,1.8,0.2,3.7,0,5.6c-0.2,1.9-0.6,3.7-0.7,5.5
				c-0.2,1.8-0.2,3.7-0.1,5.6c0.1,1.9,0.3,3.7,0.5,5.6c0.2,1.8,0.4,3.7,0.6,5.5c0.3,1.8,0.6,3.7,1.2,5.4c0.2,0.4,0.3,0.9,0.6,1.2
				c0.2,0.4,0.6,0.8,1,0.9c0.4,0.1,0.9-0.1,1.2-0.4c0.4-0.3,0.7-0.6,0.9-1l0,0c0.3-1.4,0.5-2.8,0.7-4.3c0.1-0.7,0.2-1.4,0.3-2.1
				c0-0.2,0.1-0.4,0.2-0.5c0,0,0-0.1,0.1-0.1c0,0,0.1,0,0.1,0c0,0,0.1,0.1,0.1,0.1c0.1,0.1,0.1,0.2,0.1,0.3c0.1,0.4,0.1,0.7,0.2,1.1
				l0,0c0.5,1.1,0.4,2.3,0.3,3.4c-0.2,1.1-0.5,2.2-0.8,3.3c-0.3,1.1-0.7,2.2-1,3.3c-0.1,0.5-0.3,1.1-0.3,1.7c0,0.6,0,1.1,0.4,1.5
				l0,0c1.2,1.1,2.5,2.2,4.1,2.7c1.5,0.6,3.3,0.5,4.7-0.4c1.4-0.9,2.3-2.4,2.8-3.9c0.5-1.6,0.8-3.2,0.8-4.9l0,0l0,0
				c0.7-7.6,1.4-15.1,1.4-22.7c0-7.6-0.6-15.2-2.7-22.5l0,0c-2.8,1.6-5.6,3.1-8.7,4.2C348.7,320.8,345.4,321.3,342.2,320.6z
				 M342.2,320.6c3.2,0.8,6.5,0.2,9.5-0.9c3-1,5.9-2.6,8.7-4.2l0,0l0,0c2.1,7.3,2.8,15,2.8,22.6c0,7.6-0.7,15.2-1.4,22.8l0,0
				c0,1.7-0.2,3.4-0.7,4.9c-0.5,1.6-1.5,3.1-2.9,4c-0.7,0.5-1.5,0.7-2.4,0.8c-0.9,0.1-1.7-0.1-2.5-0.4c-1.6-0.6-3-1.6-4.2-2.8l0,0
				l0,0c-0.4-0.5-0.4-1.1-0.4-1.7c0-0.6,0.2-1.1,0.3-1.7c0.3-1.1,0.7-2.2,1-3.3c0.3-1.1,0.7-2.2,0.8-3.3c0.2-1.1,0.2-2.3-0.2-3.3
				l0,0l0,0c-0.1-0.6-0.3-2-0.5-0.7c-0.1,0.7-0.2,1.4-0.3,2.1c-0.2,1.4-0.4,2.9-0.7,4.3l0,0l0,0c-0.3,0.4-0.6,0.7-1,1
				c-0.4,0.3-0.8,0.5-1.3,0.4c-0.5-0.1-0.8-0.5-1.1-0.9c-0.2-0.4-0.4-0.8-0.6-1.3c-0.6-1.8-0.9-3.6-1.2-5.5
				c-0.3-1.8-0.4-3.7-0.6-5.5c-0.1-1.9-0.4-3.7-0.5-5.6c-0.1-1.9-0.1-3.7,0.1-5.6c0.2-1.9,0.6-3.7,0.8-5.5c0.2-1.8,0.3-3.7,0-5.6
				C343.6,324,343,322.3,342.2,320.6z"/>
		</g>
		<g>
			<path class="st5" d="M208.9,319.5c-3.4,7.1-0.7,12.4-0.4,19.8c0.5,12.8-0.7,26.5-6.3,18.9c-0.8-3.2-1.8-9.1-2.4-4.9
				c-1.7,4,6.2,8.6,3.5,13.1c-4.8,8.3-14.6,1.9-14.5-6.4c-1.4-14.8-1.7-31.2,2.5-45.3C196.3,317.7,202.8,321,208.9,319.5z"/>
			<path class="st5" d="M208.9,319.5c-0.8,1.7-1.4,3.6-1.6,5.5c-0.2,1.9-0.1,3.8,0.2,5.7c0.3,1.9,0.6,3.8,0.8,5.7
				c0.2,1.9,0.3,3.8,0.3,5.7c0.1,3.8,0,7.7-0.4,11.5c-0.3,1.9-0.6,3.8-1.5,5.6c-0.2,0.4-0.6,0.8-1,1c-0.5,0.2-1,0.2-1.4,0
				c-0.9-0.4-1.5-1.2-2.1-2l0,0l0,0l-0.9-4.1c-0.2-0.7-0.3-1.4-0.6-2c-0.1-0.1-0.2-0.3-0.2-0.3c-0.1,0.1-0.2,0.2-0.2,0.4
				c-0.1,0.3-0.1,0.7-0.2,1l0,0l0,0c-0.3,0.7-0.3,1.5-0.1,2.2c0.2,0.7,0.5,1.4,0.9,2.1c0.8,1.3,1.7,2.5,2.4,3.9
				c0.7,1.3,1.2,3,0.6,4.5c-0.6,1.4-1.6,2.6-2.9,3.5c-1.3,0.9-2.9,1.2-4.4,0.9c-1.5-0.3-2.9-1.1-4.1-2.1c-2.3-2.1-3.6-5.1-3.6-8.2
				l0,0c-0.7-7.6-1.1-15.2-0.8-22.8c0.3-7.6,1.2-15.2,3.4-22.5l0,0l0,0c2.7,1.6,5.4,3.1,8.4,4.1
				C202.6,319.8,205.8,320.2,208.9,319.5z M208.9,319.5c-3,0.8-6.3,0.3-9.2-0.7c-3-1-5.7-2.5-8.4-4l0,0c-2.1,7.3-3,14.9-3.3,22.5
				c-0.3,7.6,0.2,15.2,0.9,22.8l0,0l0,0c0,3,1.3,6,3.5,8c1.1,1,2.5,1.8,3.9,2c1.5,0.3,3,0,4.3-0.8c1.2-0.8,2.2-2.1,2.8-3.4
				c0.6-1.4,0.1-3-0.6-4.3c-0.7-1.3-1.6-2.6-2.4-3.9c-0.4-0.7-0.7-1.4-0.9-2.1c-0.2-0.7-0.2-1.6,0.1-2.3l0,0c0.1-0.3,0.1-0.7,0.2-1
				c0.1-0.2,0.1-0.3,0.3-0.5c0.1-0.1,0.3,0,0.3,0.1c0.1,0.1,0.1,0.2,0.2,0.2c0.3,0.6,0.5,1.3,0.6,2l0.9,4.1l0,0
				c0.6,0.7,1.2,1.5,2,1.9c0.4,0.2,0.9,0.3,1.3,0c0.4-0.2,0.7-0.6,1-1c0.9-1.7,1.2-3.6,1.5-5.5c0.5-3.8,0.5-7.7,0.5-11.5
				c0-1.9-0.1-3.8-0.3-5.7c-0.2-1.9-0.6-3.8-0.8-5.7c-0.3-1.9-0.4-3.8-0.2-5.7C207.5,323.1,208,321.2,208.9,319.5z"/>
		</g>
		<g>
			<path class="st6" d="M236.7,488.1c0.8,17.7,10.6,38.9-5.1,52.9c-5.1,10.2,21.6,13.3,23,3.4c0.3-9.2,5.7-4,6.6-10.2
				c-4.7-14.7-2.9-30.1,1.2-44.9c0.8-2.1-1-3-2.8-2.2C252,488.6,244.2,488.9,236.7,488.1z"/>
			<path d="M236.7,488.1c0.5,9.3,3.2,18.3,3.9,27.6c0.3,4.6,0.2,9.4-1.2,13.9c-0.7,2.3-1.7,4.4-2.9,6.4c-1.3,2-2.9,3.8-4.6,5.3
				l0.1-0.1c-0.6,1.1-0.8,2.4-0.4,3.5c0.4,1.1,1.3,2.1,2.3,2.8c2.1,1.4,4.8,2.1,7.4,2.3c2.6,0.3,5.3,0.1,7.7-0.7
				c1.2-0.4,2.4-1,3.3-1.8c0.9-0.8,1.6-1.9,1.8-3.1l0,0.1l0.1-1.7c0.1-0.6,0.1-1.1,0.4-1.7c0.3-1.1,1-2.3,2-2.9
				c1.1-0.6,2.2-0.8,2.9-1.4c0.7-0.6,1-1.6,1.2-2.6l0,0.2c-2.3-7.3-3.1-15-2.7-22.6c0.4-7.6,2-15.1,4.1-22.4l0,0l0,0
				c0.3-0.7,0.3-1.5-0.3-1.9c-0.6-0.4-1.4-0.3-2.1,0.1l0,0l0,0C252,488.7,244.2,489,236.7,488.1z M236.7,488.1
				c7.6,0.7,15.3,0.3,22.8-1.2l-0.1,0c0.4-0.2,0.8-0.3,1.3-0.4c0.4,0,0.9,0,1.4,0.3c0.4,0.3,0.7,0.7,0.8,1.2c0.1,0.5,0,0.9-0.2,1.4
				l0,0c-2,7.3-3.4,14.8-3.8,22.3c-0.4,7.5,0.4,15.1,2.7,22.3l0,0.1l0,0.1c-0.2,1.1-0.5,2.4-1.5,3.2c-1,0.8-2.2,1-3,1.5
				c-0.8,0.5-1.3,1.3-1.6,2.3c-0.2,0.5-0.2,1-0.3,1.5l-0.1,1.6l0,0l0,0c-0.2,1.5-1,2.8-2.1,3.7c-1.1,0.9-2.4,1.5-3.7,2
				c-2.6,0.8-5.4,1-8.1,0.7c-2.7-0.3-5.4-1-7.8-2.5c-1.2-0.8-2.2-1.8-2.7-3.3c-0.5-1.4-0.2-3,0.4-4.2l0-0.1l0.1-0.1
				c3.4-3,6.1-6.9,7.4-11.3c1.4-4.4,1.6-9.1,1.3-13.7c-0.3-4.6-1-9.2-1.7-13.8C237.5,497.3,236.8,492.7,236.7,488.1z"/>
		</g>
		<g>
			<path class="st6" d="M313.1,488.1c-0.1,15.9-10.2,34.9,1.7,48.8c11.5,9.2-2.6,13.9-11.3,13.7c-12.5-0.8-6.1-11.8-13.6-12.9
				c-3.1-1.3-2.3-5.2-1.3-7.7c4.4-13.3,1.1-27.5-2.2-40.6c-0.8-2.2,1.1-3,2.9-2.2C297.2,488.6,305.2,488.9,313.1,488.1z"/>
			<path d="M313.1,488.1c0,4.2-0.6,8.4-1.3,12.5c-0.7,4.1-1.5,8.3-2,12.4c-0.5,4.2-0.7,8.4,0.1,12.5c0.7,4.1,2.6,7.9,5.3,11.1
				l-0.1-0.1c0.8,0.6,1.5,1.3,2.2,2c0.7,0.7,1.3,1.6,1.8,2.5c0.4,0.9,0.7,2.1,0.4,3.1c-0.2,1.1-0.9,2-1.7,2.7
				c-1.5,1.4-3.4,2.2-5.3,2.8c-1.9,0.6-3.9,1-5.9,1.2c-1,0.1-2,0.1-3,0.1c-1-0.1-2-0.2-3-0.4c-1-0.2-2-0.6-2.9-1.2
				c-0.9-0.6-1.6-1.3-2.2-2.2c-1.1-1.8-1.4-3.8-2-5.6c-0.3-0.9-0.7-1.7-1.3-2.4c-0.6-0.6-1.5-0.9-2.4-1.1l-0.1,0l0,0
				c-0.5-0.2-1.1-0.5-1.4-1c-0.4-0.5-0.7-1-0.8-1.6c-0.3-1.1-0.2-2.3,0-3.3c0.1-0.5,0.3-1,0.4-1.6c0.2-0.5,0.4-1,0.5-1.5
				c0.3-1,0.6-2,0.8-3c0.9-4,1.3-8.2,1.1-12.3c-0.2-4.1-0.7-8.3-1.4-12.3c-0.8-4.1-1.7-8.1-2.7-12.2l0,0c-0.1-0.4-0.3-0.9-0.2-1.4
				c0.1-0.5,0.4-1,0.8-1.2c0.9-0.5,1.9-0.3,2.7,0.1l-0.1,0C297.2,488.4,305.2,488.8,313.1,488.1z M313.1,488.1
				c-7.9,0.9-15.9,0.7-23.7-0.7l0,0l0,0c-0.7-0.3-1.6-0.4-2.2-0.1c-0.3,0.2-0.5,0.5-0.5,0.8c0,0.3,0,0.7,0.2,1.1l0,0l0,0
				c2.1,8.1,4.1,16.2,4.4,24.6c0.2,4.2-0.1,8.4-1.1,12.5c-0.2,1-0.5,2-0.8,3.1c-0.1,0.5-0.3,1-0.5,1.5c-0.2,0.5-0.3,1-0.4,1.5
				c-0.2,1-0.3,2,0,2.9c0.2,0.9,0.9,1.6,1.7,1.9l-0.1,0c1,0.1,2.1,0.6,2.9,1.3c0.8,0.8,1.2,1.8,1.6,2.7c0.6,1.9,0.9,3.9,1.9,5.4
				c1,1.6,2.6,2.6,4.5,3c0.9,0.2,1.9,0.3,2.8,0.4c0.9,0,1.9,0,2.9-0.1c1.9-0.2,3.8-0.5,5.7-1.1c1.8-0.6,3.6-1.4,5-2.6
				c0.7-0.6,1.2-1.4,1.4-2.2c0.2-0.9,0-1.8-0.4-2.6c-0.8-1.7-2.2-3-3.7-4.2l0,0l0,0c-2.8-3.3-4.6-7.3-5.3-11.5
				c-0.7-4.2-0.5-8.5,0.1-12.7c0.6-4.2,1.5-8.3,2.3-12.4C312.3,496.4,313,492.3,313.1,488.1z"/>
		</g>
		<g>
			<path d="M250.4,430.2c-2.4,0.1-4.8-0.5-6.9-1.7c-2.1-1.2-4-2.9-5.2-5c1.8,1.6,3.6,3,5.6,4.1C245.9,428.8,248.1,429.6,250.4,430.2
				z"/>
		</g>
		<g>
			<path d="M295.7,432c2.3-0.7,4.4-1.5,6.5-2.6c2-1.1,3.9-2.5,5.6-4.1c-1.2,2.1-3,3.8-5.2,5C300.5,431.4,298.1,432.1,295.7,432z"/>
		</g>
	</g>
</g>
</svg>
