<?xml version="1.0" encoding="utf-8"?>
<!-- Generator: Adobe Illustrator 24.2.3, SVG Export Plug-In . SVG Version: 6.00 Build 0)  -->
<svg version="1.1" id="tenue_x5F_feminine_x5F_7" xmlns="http://www.w3.org/2000/svg" xmlns:xlink="http://www.w3.org/1999/xlink"
	 x="0px" y="0px" viewBox="0 0 553 574" style="enable-background:new 0 0 553 574;" xml:space="preserve">
<style type="text/css">
	.st0{fill:none;}
	.st1{fill:#D9D6D1;}
	.st2{fill:#B2AEA8;}
	.st3{fill:#AD6826;}
	.st4{fill:#D0C7BA;}
	.st5{fill:#C6BCB0;}
	.st6{fill:#ED4142;}
	.st7{fill:#EA3230;}
	.st8{fill:#FEE3CF;}
	.st9{fill:#F2D4C1;}
	.st10{fill:#CDB997;}
	.st11{fill:#7C9BA2;}
	.st12{fill:#6A8D93;}
	.st13{fill:#415456;}
	.st14{fill:#69888D;}
	.st15{fill:#C7993D;}
	.st16{fill:#577275;}
	.st17{fill:#466364;}
	.st18{fill:#C5A370;}
	.st19{fill:#B19065;}
	.st20{fill:#E6D4B2;}
	.st21{fill:#DABE8D;}
	.st22{fill:#BDA175;}
	.st23{fill:#BC9968;}
	.st24{fill:#A58D6A;}
</style>
<g id="cadre_8_">
	<rect x="0" class="st0" width="553" height="574"/>
</g>
<g>
	<g>
		<g>
			<g>
				<g>
					<path class="st1" d="M238.7,484.1c1.2,11.8,2.4,22.1,3.3,33.5c0.3,3.5,1.2,7.3-0.9,10.4c-2.1,3-5.1,5.3-8,7.7
						c-2.9,2.4-5,6.4-1.4,8.1c1,0.5,2.2,0.6,3.3,0.7c5.1,0.5,10.3,1,15.4,1.4c1.5,0.1,3.2,0.2,4.1-0.8c0.6-0.8,0.4-1.8,0.8-2.7
						c0.6-1.6,2.6-2.5,4-3.7c3.7-3.2,2.7-8.4,1.9-12.8c-2.3-12.9-0.3-24.1,2.7-36.5c1.8-7.5-3.7-4.5-10.3-4.1
						C245.6,485.6,246.4,485.5,238.7,484.1z"/>
					<path class="st2" d="M238.7,484.1l2.4,22c0.4,3.7,0.7,7.4,1,11c0.1,1.8,0.5,3.7,0.5,5.5c0.1,1.8-0.3,3.8-1.4,5.4
						c-2.1,3.1-5.2,5.3-7.9,7.7c-1.4,1.2-2.6,2.6-3.1,4.4c-0.2,0.8-0.2,1.8,0.3,2.5c0.5,0.7,1.4,1.1,2.2,1.3
						c0.9,0.2,1.8,0.3,2.7,0.4l2.8,0.3l5.5,0.5l5.5,0.5c0.9,0.1,1.8,0.2,2.7,0.2c0.9,0,1.8-0.2,2.3-0.9c0.5-0.6,0.4-1.6,0.7-2.6
						c0.3-1,1.1-1.7,1.8-2.2c0.8-0.6,1.5-1,2.2-1.6c0.7-0.6,1.3-1.3,1.7-2.1c0.9-1.6,1.1-3.4,1-5.3c-0.1-1.8-0.4-3.6-0.7-5.5
						c-1.3-7.3-1.2-14.8-0.1-22.1c0.5-3.7,1.3-7.3,2.1-10.9l0.6-2.7c0.2-0.9,0.4-1.8,0.5-2.7c0.1-0.9,0-1.9-0.7-2.4
						c-0.7-0.5-1.7-0.5-2.6-0.5c-1.8,0.1-3.6,0.5-5.5,0.7c-1.8,0.2-3.7,0.2-5.5,0.3C245.9,485.7,242.3,484.8,238.7,484.1z
						 M238.7,484.1c3.6,0.6,7.3,1.5,11,1.2c1.8-0.1,3.7-0.2,5.5-0.4c1.8-0.2,3.6-0.6,5.5-0.7c0.9,0,1.9-0.1,2.8,0.5
						c0.8,0.6,0.9,1.8,0.8,2.7c-0.1,0.9-0.3,1.9-0.5,2.7l-0.6,2.7c-0.8,3.6-1.5,7.2-2,10.9c-1.1,7.3-1.1,14.7,0.2,22
						c0.3,1.8,0.7,3.6,0.8,5.5c0.1,1.9-0.1,3.8-1,5.5c-0.4,0.8-1.1,1.6-1.8,2.2c-0.7,0.6-1.5,1.1-2.2,1.6c-0.7,0.5-1.4,1.2-1.6,2
						c-0.3,0.8-0.1,1.9-0.8,2.7c-0.7,0.8-1.8,1-2.7,1c-1,0-1.9-0.1-2.8-0.2l-5.5-0.5l-5.5-0.5l-2.8-0.3c-0.9-0.1-1.8-0.2-2.8-0.4
						c-0.9-0.2-1.8-0.7-2.4-1.5c-0.6-0.8-0.7-1.9-0.4-2.8c0.6-1.8,1.9-3.3,3.3-4.5c2.8-2.4,5.8-4.6,7.9-7.6c1.1-1.5,1.4-3.4,1.3-5.2
						c0-1.8-0.4-3.7-0.5-5.5c-0.3-3.7-0.6-7.4-1-11L238.7,484.1z"/>
				</g>
			</g>
			<path class="st3" d="M263.1,492.2c-7.6-1.2-15.8-1.8-23.7-1.4l-0.1-0.8c8-0.5,16.3,0.3,23.9,1.5L263.1,492.2z"/>
			<path class="st3" d="M262.2,496.4c-7.4-0.7-14.4-1.1-22.4-0.8l-0.1-0.7c8-0.3,15.2,0,22.6,0.8L262.2,496.4z"/>
			<path class="st3" d="M261.4,500.5c-6.1-0.8-10.7-0.7-16.2-0.6c-1.3,0-3.4,0.1-4.8,0.2l-0.1-0.7c1.4,0,3.6-0.1,4.9-0.1
				c5.6-0.2,10.3-0.3,16.4,0.5L261.4,500.5z"/>
			<g>
				<g>
					<g>
						<path class="st1" d="M313.4,485.8c0.2,3.5-1.3,7.5-1.5,11c-0.2,3.6-0.9,7.2-0.9,10.8c0,3.6-0.1,7.2-0.3,10.8
							c-0.1,1.8-0.4,3.6-0.4,5.4c0,0.9,0.1,1.8,0.4,2.6c0.2,0.9,0.7,1.6,1.2,2.3c2.2,2.9,5.3,4.8,8,7.3c0.7,0.6,1.2,1.3,1.7,2.1
							c0.5,0.8,0.9,1.6,1.1,2.5c0.2,0.9,0.1,1.9-0.5,2.7c-0.6,0.7-1.5,1.1-2.4,1.4c-0.9,0.2-1.8,0.3-2.7,0.4l-2.7,0.3l-5.4,0.5
							l-5.4,0.5l-1.4,0.1c-0.4,0.1-0.8,0.2-1.3,0.4c-0.2,0.1-0.5,0.2-0.8,0.1c-0.3-0.1-0.5-0.3-0.6-0.4c-0.3-0.4-0.5-0.8-0.7-1.2
							c-0.1-0.4-0.3-0.9-0.4-1.3c-0.1-0.4-0.2-0.9-0.5-1.2c-0.5-0.7-1.2-1.2-2-1.8c-0.7-0.5-1.5-1-2.3-1.5c-0.7-0.5-1.4-1.2-1.9-2
							c-1-1.6-1.3-3.4-1.3-5.2c0-1.8,0.3-3.6,0.6-5.4c1.4-7.1,1.1-15,0.2-22.2c-0.4-3.6-0.5-4.1-1.3-7.6c-0.4-1.8-0.9-5.8-1.3-7.6
							c-0.2-0.9-0.3-1.8-0.3-2.7c0-0.5,0.1-0.9,0.4-1.3c0.3-0.4,0.7-0.7,1.2-0.8c0.9-0.2,1.8-0.1,2.8,0c0.9,0.1,1.8,0.3,2.7,0.4
							c0.9,0.1,1.8,0.3,2.7,0.3c0.9,0.1,1.8,0.1,2.7,0.2c0.9,0.1,1.8,0.2,2.7,0.4c0.9,0.2,1.8,0.4,2.7,0.5c0.9,0.1,1.8,0,2.7-0.1
							C310.1,486.3,312.5,485.9,313.4,485.8z"/>
						<g>
							<path class="st2" d="M313.4,485.8c0.2,3.7-1.2,7.2-1.4,10.9c-0.1,3.7-0.8,7.3-0.9,10.9l-0.3,11c-0.1,1.8-0.4,3.7-0.3,5.5
								c0,0.9,0.2,1.8,0.5,2.6c0.3,0.8,0.8,1.6,1.4,2.3c2.3,2.9,5.5,4.7,8.1,7.3c1.2,1.4,2.4,3,2.6,4.9c0.1,0.9-0.3,2-1,2.6
								c-0.7,0.6-1.7,0.9-2.6,1.1c-3.7,0.5-7.3,0.7-10.9,1.1l-5.5,0.5c-0.5,0.1-0.9,0.1-1.3,0.2c-0.4,0.1-0.8,0.4-1.4,0.4
								c-0.3,0-0.6-0.1-0.8-0.3c-0.2-0.2-0.4-0.4-0.5-0.6c-0.3-0.4-0.4-0.9-0.6-1.3l-0.4-1.3c-0.1-0.4-0.3-0.8-0.6-1.1
								c-0.6-0.7-1.3-1.2-2.1-1.7c-0.8-0.5-1.5-1-2.3-1.6c-0.7-0.6-1.3-1.3-1.8-2.2c-0.9-1.7-1.1-3.6-1-5.4c0.1-1.9,0.4-3.7,0.7-5.5
								c1.3-7.2,1-14.6,0.1-21.8c-0.2-1.8-0.5-3.6-0.8-5.4c-0.2-0.9-0.4-1.8-0.5-2.7l-0.4-2.7l-0.4-2.7c-0.1-0.9-0.4-1.8-0.5-2.7
								c-0.1-0.9-0.1-1.9,0.4-2.7c0.3-0.4,0.7-0.7,1.2-0.8c0.5-0.1,0.9-0.2,1.4-0.1c0.9,0,1.8,0.2,2.7,0.3c0.9,0.1,1.8,0.3,2.7,0.4
								c1.8,0.3,3.7,0.3,5.5,0.6c1.8,0.2,3.6,1,5.4,0.7c0.9,0,1.8-0.2,2.7-0.3L313.4,485.8z M313.4,485.8l-2.7,0.4
								c-0.9,0.2-1.8,0.3-2.7,0.4c-0.9,0.1-1.8,0-2.7-0.2l-1.3-0.3l-1.4-0.2c-1.8-0.3-3.6-0.3-5.5-0.6c-0.9-0.1-1.8-0.2-2.7-0.3
								c-0.9-0.1-1.8-0.3-2.7-0.3c-0.9,0-1.9,0.1-2.4,0.8c-0.5,0.7-0.5,1.7-0.4,2.6c0.1,0.9,0.4,1.8,0.5,2.7l0.4,2.7l0.4,2.7
								c0.2,0.9,0.4,1.8,0.5,2.7c0.4,1.8,0.7,3.6,0.9,5.4c0.9,7.3,1.2,14.7,0,21.9c-0.3,1.8-0.7,3.6-0.7,5.4c-0.1,1.8,0.2,3.6,1,5.2
								c0.4,0.8,1,1.5,1.7,2c0.7,0.6,1.5,1,2.2,1.6c0.8,0.5,1.5,1,2.2,1.8c0.3,0.3,0.6,0.8,0.7,1.3l0.4,1.3c0.1,0.4,0.3,0.9,0.5,1.2
								c0.2,0.3,0.5,0.7,0.9,0.7c0.3,0,0.8-0.3,1.2-0.4c0.5-0.1,1-0.1,1.4-0.2l5.5-0.5c3.6-0.4,7.3-0.6,10.9-1.1
								c0.9-0.2,1.7-0.4,2.4-1c0.7-0.6,1-1.4,0.9-2.3c-0.2-1.8-1.2-3.4-2.4-4.7c-2.6-2.5-5.8-4.5-8.1-7.4c-0.6-0.7-1.1-1.5-1.4-2.4
								c-0.3-0.9-0.4-1.8-0.5-2.7c-0.1-1.9,0.3-3.7,0.4-5.5l0.3-11c0.1-3.7,0.8-7.3,1-10.9C312.1,493,313.5,489.5,313.4,485.8z"/>
						</g>
					</g>
				</g>
				<path class="st3" d="M289.5,492.8l-0.1-0.6c0.6-0.1,1.1-0.2,1.7-0.3c4.7-0.7,11.7-1.8,21.7-1.2l-0.2,1
					c-10-0.5-16.8,0.2-21.4,0.9C290.7,492.6,290.1,492.7,289.5,492.8z"/>
				<path class="st3" d="M290.1,497.1l-0.1-0.7l1-0.1c5-0.5,10.1-1.1,21-0.7l-0.1,0.8c-10.8-0.4-15.8-0.1-20.8,0.5L290.1,497.1z"/>
				<path class="st3" d="M291,501.3l-0.2-0.7c4.7-0.7,8.8-0.6,18.6-0.4l2.2,0l-0.1,0.8l-2.2-0.1C299.6,500.6,295.6,500.6,291,501.3z
					"/>
			</g>
		</g>
		<g>
			<g>
				<path class="st4" d="M328,543.8c-2.2-1.8-9.7-1.5-16.4-0.7c-0.1-2-0.3-3.4-0.6-3.4c-1,0.2-21.4-7.3-21.4-7.3s-0.7,3.3,0.5,5.3
					c1.2,2,6,3.6,6.9,6.3c0.9,2.6,3.2,8.2,3.4,8.6c0,0,0,0,0,0l0,0h0c0.2,0.6,0.6,1.2,1,1.6c2.5,2.4,9.3,6,20.3,3.4
					C332.8,554.9,332.1,547.3,328,543.8z"/>
				<path class="st5" d="M328,543.8c-1.1-0.8-2.6-1-3.9-1.2c-1.4-0.1-2.8-0.1-4.1-0.1c-2.8,0.1-5.5,0.3-8.3,0.7c0,0-0.1,0-0.1,0l0,0
					c0-0.5-0.1-1.1-0.1-1.6c-0.1-0.5-0.1-1.1-0.3-1.6c0-0.1-0.1-0.1-0.1-0.1l-0.2,0c-0.1,0-0.3,0-0.4-0.1c-0.3-0.1-0.5-0.1-0.8-0.2
					c-0.5-0.2-1-0.3-1.6-0.5c-2.1-0.7-4.1-1.4-6.2-2.1c-4.1-1.4-8.2-2.9-12.3-4.4l0.2-0.1c-0.2,1-0.3,2-0.2,3c0.1,1,0.3,2,1,2.7
					c0.7,0.7,1.5,1.3,2.4,1.8c0.8,0.6,1.7,1.1,2.5,1.7c0.8,0.7,1.5,1.4,1.8,2.5c0.3,0.9,0.7,1.9,1,2.8c0.7,1.9,1.5,3.7,2.3,5.6
					l-0.1-0.1l0.1,0.1c0.2,0.4,0.4,0.8,0.6,1.1c0.3,0.3,0.6,0.6,0.9,0.9c0.7,0.6,1.4,1,2.2,1.5c1.6,0.8,3.3,1.4,5,1.8
					c3.5,0.8,7.1,0.7,10.6,0c0.9-0.2,1.8-0.3,2.6-0.6c0.4-0.1,0.9-0.2,1.3-0.4l1.2-0.5c1.6-0.7,3.2-1.7,4.3-3.1
					c0.6-0.7,0.9-1.5,1.2-2.4l0.1-0.7l0.1-0.3l0-0.3l0-0.7l-0.1-0.7l-0.1-0.3l-0.1-0.3l-0.2-0.6c-0.2-0.4-0.3-0.8-0.6-1.2
					C329.3,545.1,328.6,544.4,328,543.8z M328,543.8c0.7,0.6,1.3,1.2,1.7,2c0.3,0.4,0.4,0.8,0.6,1.2l0.2,0.6l0.1,0.3l0.1,0.3
					l0.1,0.7l0,0.7l0,0.3l-0.1,0.3l-0.1,0.7c-0.3,0.9-0.6,1.7-1.2,2.4c-1.1,1.4-2.7,2.4-4.3,3.1l-1.2,0.5c-0.4,0.2-0.9,0.3-1.3,0.4
					c-0.9,0.3-1.7,0.4-2.6,0.6c-3.5,0.7-7.2,0.8-10.7,0c-1.8-0.4-3.5-1-5.1-1.8c-0.8-0.4-1.6-0.9-2.3-1.5c-0.3-0.3-0.7-0.6-1-1
					c-0.3-0.4-0.5-0.8-0.7-1.2l0.1,0.1c0,0,0,0,0,0.1c0,0,0,0-0.1,0c0,0,0,0,0,0l-0.1-0.1c-0.8-1.9-1.6-3.7-2.3-5.6
					c-0.4-0.9-0.7-1.9-1.1-2.8c-0.3-0.9-1-1.7-1.7-2.3c-0.8-0.6-1.6-1.2-2.4-1.7c-0.8-0.6-1.7-1.1-2.4-1.9c-0.7-0.8-1-1.9-1.1-2.9
					c-0.1-1,0-2,0.2-3c0-0.1,0.1-0.1,0.1-0.1c0,0,0,0,0,0c4.1,1.5,8.2,3,12.3,4.5c2.1,0.7,4.1,1.5,6.2,2.1c0.5,0.2,1,0.3,1.6,0.5
					c0.3,0.1,0.5,0.2,0.8,0.2c0.1,0,0.3,0.1,0.4,0.1c0.1,0,0.1,0,0.2,0c0.1,0,0.1,0.1,0.2,0.2c0.2,0.5,0.2,1.1,0.3,1.6
					c0.1,0.5,0.1,1.1,0.1,1.6l-0.1,0c2.8-0.3,5.5-0.6,8.3-0.6c1.4,0,2.8,0,4.2,0.1C325.4,542.8,326.8,543,328,543.8z"/>
			</g>
			<g>
				<path class="st6" d="M327.8,543.5c-12.5-2.6-23.5,4.7-26.1,6.5c-4.4-2.1-2.6-5.7-4.1-7.5c-2.1-2.5-7.2-7.3-8-10.2
					c-0.8-2.9,0.2-6.2,0.2-6.2s-1.1-3,1-2.1c2.1,1,3.3,3.7,3.9,2.5c0.6-1.1,1.2-8.1,9.1-6.5c7.9,1.6,7.3,6,10.5,10.5
					C317.5,535.1,325.8,540.7,327.8,543.5z"/>
				<path class="st7" d="M327.8,543.5c-2.3-0.4-4.6-0.6-6.9-0.5c-2.3,0.2-4.6,0.6-6.8,1.2c-4.4,1.2-8.6,3.3-12.4,5.9
					c0,0-0.1,0-0.1,0c-1.1-0.5-2-1.3-2.6-2.4c-0.6-1.1-0.7-2.3-0.8-3.4c-0.1-0.6-0.2-1.1-0.6-1.6c-0.3-0.5-0.8-0.9-1.1-1.3l-2.4-2.6
					c-0.8-0.9-1.6-1.7-2.3-2.7c-0.7-0.9-1.4-1.9-2-3c-0.3-0.5-0.4-1.1-0.5-1.7c-0.1-0.6-0.1-1.2-0.1-1.8c0-1.2,0.2-2.4,0.5-3.5
					l0,0.1c-0.2-0.6-0.3-1.1-0.3-1.8c0-0.2,0.1-0.3,0.2-0.5c0.1-0.2,0.3-0.2,0.5-0.2c0.3,0,0.6,0.1,0.9,0.3c1.1,0.5,1.8,1.5,2.6,2.3
					c0.2,0.2,0.4,0.4,0.6,0.4c0.2,0.1,0.3-0.2,0.4-0.4c0.2-0.5,0.3-1.1,0.5-1.6c0.4-1.1,0.9-2.2,1.7-3c0.8-0.9,1.9-1.5,3-1.7
					c0.6-0.1,1.2-0.2,1.7-0.1c0.6,0,1.2,0.1,1.7,0.2c0.6,0.1,1.1,0.3,1.7,0.4l0.8,0.3l0.4,0.1l0.4,0.2c1.1,0.4,2.1,1.1,2.9,1.9
					c1.7,1.7,2.4,4,3.5,6c0.5,1,1.2,2,1.9,2.8c0.7,0.9,1.6,1.7,2.4,2.5c1.7,1.6,3.4,3.1,5.2,4.6c0.9,0.7,1.8,1.5,2.6,2.3
					C326.2,541.8,327.1,542.6,327.8,543.5z M327.8,543.5c-0.7-0.9-1.6-1.7-2.4-2.5c-0.9-0.8-1.7-1.5-2.6-2.2
					c-1.8-1.5-3.5-2.9-5.2-4.5c-0.8-0.8-1.7-1.6-2.4-2.5c-0.8-0.9-1.4-1.9-1.9-2.9c-1.1-2-1.9-4.3-3.5-5.9c-0.8-0.8-1.8-1.4-2.9-1.8
					l-0.4-0.2l-0.4-0.1l-0.8-0.3c-0.6-0.1-1.1-0.3-1.7-0.4c-0.6-0.1-1.1-0.2-1.7-0.2c-0.6,0-1.1,0.1-1.7,0.1
					c-1.1,0.2-2.1,0.8-2.9,1.6c-0.8,0.8-1.3,1.9-1.7,2.9c-0.2,0.5-0.3,1.1-0.5,1.6c-0.1,0.1-0.1,0.3-0.2,0.4c0,0.1-0.1,0.1-0.2,0.2
					c-0.1,0-0.2,0.1-0.3,0c-0.4-0.1-0.6-0.3-0.8-0.5c-0.8-0.8-1.6-1.7-2.6-2.2c-0.2-0.1-0.5-0.2-0.7-0.2c-0.2,0-0.4,0.2-0.4,0.4
					c-0.1,0.5,0.1,1.1,0.3,1.6c0,0,0,0.1,0,0.1c-0.3,1.1-0.5,2.3-0.5,3.4c0,0.6,0,1.2,0.1,1.7c0.1,0.6,0.2,1.1,0.5,1.6
					c0.5,1,1.2,2,1.9,2.9c0.7,0.9,1.5,1.8,2.3,2.7l2.4,2.6c0.4,0.4,0.8,0.9,1.2,1.3c0.4,0.5,0.5,1.1,0.6,1.7
					c0.2,1.2,0.3,2.3,0.8,3.4c0.6,1,1.5,1.8,2.5,2.3l-0.1,0c3.8-2.6,8-4.7,12.4-5.9c2.2-0.6,4.5-1,6.8-1.1
					C323.2,542.9,325.5,543.1,327.8,543.5z"/>
			</g>
			<g>
				<path class="st8" d="M303.1,524.9c-1.8,0.2-3.9,0.3-5.7,0.7c-1.2,0.3-1.8,0.9-2.5,1.7c-1.3,1.4-2.7,3.7-1.6,5.5
					c1.1,1.8,3.9,0.2,5.1-0.6c2.6-1.8,2.2-4.7,5.3-6.2c0.7-0.4,0-1.2-0.8-0.8c-1.3,0.6-2.4,1.5-3,2.5c-1,1.6-1.2,3.6-3.6,4.5
					c-0.3,0.2-0.6,0.3-1,0.1c-0.6,0.2-0.9,0.1-0.8-0.3c-0.3-0.4,0-1.2,0.1-1.6c0.2-0.9,0.9-1.7,1.5-2.4c1.6-1.7,4.7-1.7,7.2-2
					C304.1,525.8,304,524.8,303.1,524.9L303.1,524.9z"/>
			</g>
			<g>
				<path class="st8" d="M303.8,526c2.2-0.6,4.9-0.6,7.1-0.2c1.4,0.3,2.4,1,3.1,2c0.5,0.7,1.6,2.1-0.6,1.3c-1.4-0.5-2.5-1.8-3.8-2.5
					c-1.7-0.8-3.5-1.2-5.5-1.4c-0.9-0.1-1.1,0.9-0.3,1c2.2,0.2,4.1,0.7,5.9,1.7c1.1,0.6,1.8,1.6,3.1,2.1c1.3,0.5,3.4,0.6,3.4-0.8
					c0-1.6-2.3-3.6-4.3-4.2c-2.5-0.8-6.2-0.6-8.7,0.1C302.6,525.3,303,526.2,303.8,526L303.8,526z"/>
			</g>
			<g>
				<path class="st8" d="M303,525.7c-1.2,3.7-6.4,6.9-3.9,11c0.1,0.2,0.4,0.3,0.7,0.3c0.1,0,0.2,0,0.2,0c0.3,0,0.5-0.2,0.6-0.4
					c0-0.1,0-0.1,0.1-0.2c0.2-0.6-1.1-0.8-1.3-0.2c0.7-0.5,0.9-1,0.6-1.7c-0.1-0.7,0-1.4,0.2-2.2c0.3-1,1-1.8,1.7-2.6
					c1-1.3,2-2.5,2.5-4C304.5,525.3,303.2,525.1,303,525.7L303,525.7z"/>
			</g>
			<g>
				<path class="st8" d="M304.2,526.2c2.7,0.5,4.6,2.1,6.3,3.6c1.7,1.4,3.2,2.8,4.7,4.2c0.5,0.5,1.6-0.1,1.1-0.6
					c-1.8-1.8-3.8-3.6-5.9-5.2c-1.7-1.3-3.4-2.5-5.9-3C303.6,525,303.3,526,304.2,526.2L304.2,526.2z"/>
			</g>
			<g>
				<path class="st8" d="M298.2,535.2c4-2.1,9.4-4.1,14.3-3.1c0.8,0.2,1.1-0.8,0.3-1c-5.3-1.1-11.1,1.1-15.4,3.3
					C296.7,534.8,297.4,535.6,298.2,535.2L298.2,535.2z"/>
			</g>
			<g>
				<path class="st8" d="M300.9,538.1c5.2-1.7,10.7-2.7,16.4-2.8c0.9,0,0.8-1-0.1-1c-5.9,0.1-11.4,1.1-16.8,2.9
					C299.6,537.4,300.1,538.4,300.9,538.1L300.9,538.1z"/>
			</g>
			<g>
				<path class="st8" d="M307.1,539.8c4-1,7.6-0.6,12.6-0.7c0.9,0,0.8-1-0.1-1c-5.2,0.2-14.1-1.1-16.2,3c-0.4,0.7,1.3,0.1,2-0.2
					L307.1,539.8z"/>
			</g>
			<g>
				<path class="st8" d="M307.5,544.7c5-1.9,10.2-2.9,15.8-2.9c0.9,0,0.8-1-0.1-1c-5.7,0.1-11,1.1-16.1,3
					C306.3,544.1,306.8,545,307.5,544.7L307.5,544.7z"/>
			</g>
			<g>
				<path class="st8" d="M312,551.8c-5.2-0.1-8.3-0.8-10.2-1.8c2.6-1.8,13.5-9.1,26.1-6.5c0.1,0.1,0.1,0.2,0.2,0.3
					C329.6,546.5,328.7,552.2,312,551.8z"/>
				<path class="st9" d="M312,551.8c-1.7,0-3.5-0.1-5.2-0.4c-1.7-0.2-3.5-0.6-5-1.3c0,0,0,0,0-0.1c0,0,0,0,0,0c3.8-2.6,8-4.7,12.4-6
					c2.2-0.6,4.5-1,6.8-1.2c2.3-0.1,4.6,0.1,6.9,0.5c0,0,0.1,0,0.1,0.1l0,0l0.2,0.3l0,0c0.5,0.8,0.7,1.7,0.5,2.6
					c-0.1,0.2-0.1,0.4-0.2,0.7l-0.3,0.6c-0.3,0.4-0.5,0.7-0.9,1c-1.3,1.2-3.1,1.8-4.8,2.3c-0.9,0.3-1.7,0.3-2.6,0.5
					c-0.9,0.1-1.8,0.2-2.6,0.3c-0.9,0-1.8,0.1-2.7,0.1L312,551.8z M312,551.8l2.7,0c0.9,0,1.8-0.1,2.6-0.1c0.9-0.1,1.8-0.2,2.6-0.3
					c0.9-0.2,1.7-0.3,2.6-0.5c1.7-0.4,3.4-1.1,4.7-2.3c0.3-0.3,0.6-0.7,0.8-1l0.3-0.6c0.1-0.2,0.1-0.4,0.2-0.6
					c0.1-0.8-0.1-1.7-0.5-2.5l0,0l-0.2-0.3l0.1,0.1c-2.3-0.4-4.5-0.6-6.8-0.5c-2.3,0.2-4.6,0.5-6.8,1.1c-4.4,1.2-8.6,3.2-12.4,5.8
					l0-0.1c1.6,0.8,3.3,1.1,5,1.4C308.5,551.6,310.2,551.8,312,551.8z"/>
			</g>
			<g>
				<path class="st4" d="M261.6,530.4c0,0-19.7,9.1-20.7,9c-0.3,0-0.4,1.4-0.3,3.4c-6.7-0.2-14.2,0-16.2,2
					c-3.9,3.8-3.9,11.5,7.3,13.2c11.2,1.7,17.6-2.4,19.9-5c0.4-0.5,0.7-1.1,0.9-1.7h0c0,0,0,0,0,0c0,0,0,0,0,0
					c0.1-0.4,2-6.1,2.7-8.8c0.7-2.8,5.3-4.7,6.4-6.8C262.6,533.6,261.6,530.4,261.6,530.4z"/>
				<path class="st5" d="M261.6,530.4c-3.9,1.9-7.9,3.7-11.9,5.5c-2,0.9-4,1.8-6,2.6c-0.5,0.2-1,0.4-1.5,0.6
					c-0.3,0.1-0.5,0.2-0.8,0.3c-0.1,0-0.3,0.1-0.4,0.1l-0.2,0c0,0-0.1,0.1-0.1,0.1c-0.2,0.5-0.2,1-0.2,1.6c0,0.5,0,1.1,0,1.6
					c0,0.1,0,0.1-0.1,0.1h0c-2.5-0.1-5-0.1-7.4,0c-1.2,0.1-2.5,0.2-3.7,0.3c-1.2,0.2-2.4,0.4-3.6,0.8c-0.6,0.2-1.1,0.5-1.5,0.9
					l-0.6,0.7l-0.5,0.8c-0.6,1-1,2.2-1.1,3.4c-0.1,1.2,0.3,2.4,0.9,3.5c0.6,1.1,1.6,1.9,2.6,2.5c2.1,1.3,4.5,1.9,7,2.2
					c2.4,0.3,4.9,0.4,7.4,0.1c1.2-0.1,2.4-0.4,3.6-0.7c1.2-0.3,2.3-0.8,3.5-1.3c1.1-0.5,2.2-1.2,3.1-2c0.5-0.4,0.9-0.8,1.3-1.3
					c0.4-0.5,0.7-1,0.8-1.6l0.1-0.1l-0.1,0.1l0,0l0,0c0.6-1.9,1.2-3.8,1.8-5.8c0.3-1,0.6-1.9,0.8-2.9c0.2-1,0.9-1.8,1.6-2.5
					c0.7-0.7,1.5-1.3,2.3-1.9c0.8-0.6,1.6-1.2,2.2-2c0.6-0.8,0.8-1.8,0.8-2.8C262,532.3,261.9,531.3,261.6,530.4z M261.6,530.4
					c0.3,1,0.4,2,0.4,3c0,1-0.2,2.1-0.8,2.9c-0.6,0.8-1.4,1.4-2.2,2c-0.8,0.6-1.6,1.2-2.3,1.9c-0.7,0.7-1.3,1.5-1.5,2.5
					c-0.2,1-0.5,1.9-0.8,2.9c-0.6,1.9-1.2,3.9-1.8,5.8l0,0l0,0l-0.1,0.1l0.1-0.1c-0.2,0.6-0.4,1.2-0.9,1.7c-0.4,0.5-0.9,0.9-1.4,1.3
					c-1,0.8-2,1.4-3.1,2c-1.1,0.5-2.3,1-3.5,1.3c-1.2,0.3-2.4,0.6-3.7,0.7c-2.5,0.3-5,0.2-7.4-0.1c-2.5-0.3-4.9-0.9-7.1-2.2
					c-1.1-0.7-2.1-1.5-2.7-2.6c-0.7-1.1-1-2.4-0.9-3.6c0.1-1.3,0.5-2.5,1.1-3.6l0.5-0.8l0.6-0.7c0.5-0.5,1-0.8,1.6-1
					c1.2-0.5,2.4-0.7,3.6-0.8c1.2-0.2,2.5-0.2,3.7-0.3c2.5-0.1,5-0.1,7.4,0l-0.1,0.1c0-0.5,0-1.1,0-1.6c0-0.5,0-1.1,0.2-1.7
					c0-0.1,0.1-0.2,0.2-0.2c0.2,0,0.2,0,0.2,0c0.1,0,0.3-0.1,0.4-0.1c0.3-0.1,0.5-0.2,0.8-0.3c0.5-0.2,1-0.4,1.5-0.6
					c2-0.8,4-1.7,6-2.6C253.7,534,257.6,532.2,261.6,530.4z"/>
			</g>
			<g>
				<path class="st6" d="M224.5,544.5c12.3-3.6,23.8,2.8,26.5,4.4c4.2-2.5,2.1-5.9,3.4-7.8c1.9-2.7,6.6-7.9,7.2-10.8
					c0.5-2.9-0.7-6.1-0.7-6.1s0.8-3.1-1.2-2c-2,1.1-3,3.9-3.7,2.8c-0.7-1.1-1.9-8-9.6-5.7c-7.7,2.2-6.8,6.6-9.6,11.3
					C234.1,535.3,226.3,541.5,224.5,544.5z"/>
				<path class="st7" d="M224.5,544.5c2.2-0.6,4.5-1,6.8-1.1c2.3-0.1,4.6,0.1,6.9,0.5c4.5,0.8,8.9,2.6,12.9,4.8l-0.1,0
					c1-0.6,1.9-1.4,2.3-2.5c0.5-1.1,0.5-2.2,0.5-3.4c0-0.6,0.1-1.2,0.5-1.7c0.3-0.5,0.7-1,1-1.4l2.2-2.8c0.7-0.9,1.4-1.9,2.1-2.8
					c0.6-1,1.3-2,1.7-3c0.2-0.5,0.3-1.1,0.3-1.7c0-0.6,0-1.2,0-1.7c-0.1-1.1-0.4-2.3-0.8-3.4c0,0,0-0.1,0-0.1
					c0.1-0.5,0.2-1.1,0.1-1.6c-0.1-0.3-0.2-0.4-0.4-0.4c-0.2,0-0.5,0.1-0.7,0.3c-1,0.6-1.6,1.5-2.4,2.4c-0.2,0.2-0.4,0.5-0.7,0.6
					c-0.1,0-0.2,0-0.3,0c-0.1,0-0.2-0.1-0.2-0.2c-0.1-0.1-0.2-0.3-0.3-0.4c-0.2-0.5-0.4-1.1-0.7-1.6c-0.5-1-1.1-2-1.9-2.8
					c-0.8-0.8-1.9-1.3-3-1.4c-0.6,0-1.1-0.1-1.7,0c-0.6,0-1.1,0.2-1.7,0.3c-0.6,0.1-1.1,0.3-1.6,0.5l-0.8,0.3l-0.4,0.2l-0.4,0.2
					c-1,0.5-2,1.2-2.7,2.1c-1.5,1.7-2.1,4.1-3,6.2c-0.5,1.1-1,2.1-1.7,3c-0.7,0.9-1.4,1.8-2.2,2.7c-1.6,1.7-3.2,3.3-4.9,4.9
					c-0.8,0.8-1.6,1.6-2.4,2.5C225.9,542.7,225.1,543.5,224.5,544.5z M224.5,544.5c0.6-1,1.4-1.8,2.2-2.7c0.8-0.8,1.6-1.7,2.4-2.5
					c1.6-1.6,3.3-3.3,4.8-5c0.8-0.9,1.5-1.7,2.2-2.7c0.7-0.9,1.2-1.9,1.7-3c0.9-2.1,1.5-4.4,3-6.2c0.8-0.9,1.7-1.6,2.8-2.1l0.4-0.2
					l0.4-0.2l0.8-0.3c0.6-0.2,1.1-0.4,1.7-0.5c0.6-0.1,1.1-0.3,1.7-0.3c0.6-0.1,1.2,0,1.8,0c1.2,0.1,2.3,0.7,3.2,1.5
					c0.9,0.8,1.5,1.8,2,2.9c0.2,0.5,0.4,1.1,0.7,1.6c0.1,0.2,0.3,0.5,0.4,0.4c0.2-0.1,0.4-0.3,0.6-0.5c0.7-0.9,1.4-1.8,2.5-2.5
					c0.3-0.2,0.5-0.3,0.9-0.3c0.2,0,0.4,0,0.5,0.2c0.1,0.1,0.2,0.3,0.2,0.5c0.1,0.6,0,1.2-0.1,1.8l0-0.1c0.4,1.1,0.7,2.3,0.8,3.5
					c0.1,0.6,0.1,1.2,0,1.8c0,0.6-0.1,1.2-0.3,1.8c-0.4,1.1-1.1,2.1-1.7,3.1c-0.7,1-1.4,1.9-2.1,2.8l-2.2,2.8
					c-0.4,0.5-0.7,0.9-1,1.4c-0.3,0.5-0.4,1.1-0.4,1.6c-0.1,1.2-0.1,2.4-0.6,3.5c-0.5,1.1-1.4,2-2.4,2.6c0,0-0.1,0-0.1,0
					c-4-2.3-8.3-4-12.8-4.9c-2.3-0.4-4.5-0.7-6.8-0.6C229,543.6,226.7,543.9,224.5,544.5z"/>
			</g>
			<g>
				<path class="st8" d="M247.6,524c1.8,0.1,3.9,0,5.7,0.3c1.2,0.2,1.9,0.8,2.7,1.5c1.4,1.3,3,3.5,2.1,5.3c-1,1.8-3.8,0.6-5.1-0.2
					c-2.7-1.6-2.5-4.5-5.8-5.7c-0.8-0.3-0.1-1.2,0.7-0.9c1.4,0.5,2.5,1.3,3.2,2.3c1.1,1.5,1.5,3.5,4,4.1c0.3,0.2,0.6,0.2,1.1,0.1
					c0.6,0.1,0.9,0,0.8-0.4c0.2-0.4-0.1-1.2-0.2-1.6c-0.3-0.9-1-1.6-1.7-2.3c-1.7-1.6-4.8-1.3-7.4-1.4
					C246.7,524.9,246.7,523.9,247.6,524L247.6,524z"/>
			</g>
			<g>
				<path class="st8" d="M246.9,525.1c-2.2-0.4-5-0.2-7.1,0.4c-1.4,0.4-2.3,1.2-2.9,2.2c-0.4,0.7-1.4,2.2,0.7,1.3
					c1.4-0.6,2.3-2,3.6-2.8c1.6-0.9,3.4-1.5,5.3-1.8c0.9-0.1,1.2,0.8,0.3,1c-2.1,0.3-4.1,1-5.7,2.2c-1,0.7-1.7,1.8-2.9,2.3
					c-1.2,0.6-3.4,0.9-3.5-0.5c-0.1-1.6,2-3.8,3.9-4.6c2.5-1,6.1-1.1,8.7-0.7C248.2,524.3,247.8,525.2,246.9,525.1L246.9,525.1z"/>
			</g>
			<g>
				<path class="st8" d="M247.8,524.8c1.5,3.6,7,6.3,4.8,10.7c-0.1,0.2-0.4,0.4-0.7,0.4c-0.1,0-0.2,0-0.2,0c-0.3,0-0.5-0.1-0.6-0.4
					c0,0,0-0.1-0.1-0.1c-0.3-0.6,1-0.9,1.3-0.3c-0.7-0.4-1-1-0.8-1.6c0-0.7-0.1-1.4-0.4-2.1c-0.4-0.9-1.1-1.7-1.9-2.5
					c-1.1-1.2-2.2-2.3-2.8-3.7C246.2,524.4,247.5,524.2,247.8,524.8L247.8,524.8z"/>
			</g>
			<g>
				<path class="st8" d="M246.6,525.3c-2.6,0.7-4.4,2.5-6,4.1c-1.5,1.5-3,3-4.3,4.6c-0.5,0.6-1.6,0.1-1.2-0.5c1.7-2,3.5-3.9,5.5-5.7
					c1.6-1.5,3.2-2.8,5.7-3.5C247.1,524.1,247.4,525.1,246.6,525.3L246.6,525.3z"/>
			</g>
			<g>
				<path class="st8" d="M253.4,533.8c-4.1-1.8-9.7-3.3-14.5-2c-0.8,0.2-1.1-0.7-0.3-1c5.2-1.5,11.1,0.1,15.6,2
					C254.8,533.3,254.1,534.1,253.4,533.8L253.4,533.8z"/>
			</g>
			<g>
				<path class="st8" d="M250.9,536.9c-5.4-1.3-10.9-1.8-16.6-1.5c-0.9,0.1-0.8-0.9,0-1c5.8-0.4,11.5,0.1,16.9,1.5
					C252.1,536.2,251.7,537.1,250.9,536.9L250.9,536.9z"/>
			</g>
			<g>
				<path class="st8" d="M244.8,539.2c-4-0.7-7.6,0-12.7,0.3c-0.9,0-0.8-1,0-1c5.2-0.3,14-2.2,16.4,1.6c0.4,0.7-1.3,0.3-2-0.1
					L244.8,539.2z"/>
			</g>
			<g>
				<path class="st8" d="M244.8,544.1c-5.1-1.5-10.4-2-15.9-1.6c-0.9,0.1-0.8-0.9,0-1c5.7-0.4,11.1,0.2,16.3,1.7
					C245.9,543.3,245.6,544.3,244.8,544.1L244.8,544.1z"/>
			</g>
			<g>
				<path class="st8" d="M241,551.5c5.1-0.5,8.2-1.5,10.1-2.6c-2.7-1.6-14.2-8-26.5-4.4c-0.1,0.1-0.1,0.2-0.2,0.3
					C222.9,547.6,224.3,553.2,241,551.5z"/>
				<path class="st9" d="M241,551.5c1.7-0.2,3.5-0.4,5.2-0.8c1.7-0.4,3.4-0.9,4.9-1.8l0,0.1c-4-2.3-8.3-4-12.8-4.8
					c-2.3-0.4-4.5-0.6-6.8-0.6c-2.3,0.1-4.6,0.4-6.8,1l0.1-0.1l-0.2,0.3l0,0c-0.4,0.8-0.5,1.7-0.3,2.5c0.1,0.2,0.1,0.4,0.2,0.6
					l0.3,0.6c0.3,0.3,0.5,0.7,0.9,0.9c1.4,1.1,3.1,1.6,4.9,1.9c0.9,0.2,1.8,0.2,2.6,0.3c0.9,0,1.8,0.1,2.6,0.1c0.9,0,1.8,0,2.6-0.1
					L241,551.5z M241,551.5l-2.6,0.2c-0.9,0.1-1.8,0.1-2.7,0.1c-0.9,0-1.8,0-2.7,0c-0.9-0.1-1.8-0.1-2.6-0.3
					c-1.7-0.3-3.5-0.8-4.9-1.9c-0.4-0.3-0.7-0.6-0.9-1l-0.3-0.6c-0.1-0.2-0.1-0.4-0.2-0.6c-0.2-0.9-0.1-1.8,0.3-2.7l0,0l0.2-0.3l0,0
					c0,0,0,0,0.1-0.1c2.2-0.6,4.5-1,6.8-1.1c2.3-0.1,4.6,0.2,6.9,0.6c4.5,0.9,8.9,2.6,12.8,4.9c0,0,0,0,0,0.1c0,0,0,0,0,0
					c-1.5,0.9-3.2,1.4-4.9,1.8C244.4,551.1,242.7,551.3,241,551.5z"/>
			</g>
		</g>
		<g>
			<path class="st10" d="M232.9,349.2c-1.6-0.7-3.4-0.9-5-1c-2.6-0.1-10,0.7-4.9,4c1.1,0.7,3.8,1.2,3.8,1.2l-0.1-3.9
				C226.7,349.5,233.2,349.3,232.9,349.2z"/>
			<path class="st10" d="M329.7,347.8c0.4-0.3,0.5-0.6,0.2-1.1c-0.2-0.2-0.5-0.4-0.9-0.6c-1-0.5-2.2-0.6-3.2-0.6
				c-1.2,0-3.8,0.3-4.1,1.2c-0.1,0.4,3.3,0.7,3.3,0.7l0.2,1.4C325.2,348.8,328.8,348.4,329.7,347.8z"/>
			<g>
				<path class="st11" d="M327.6,406c-0.2-1.7-0.4-3.1-0.6-3.9c-1.1-6.3-0.3-13.3,0.4-19.8c0.7-7.6,1-14.3,0.8-22
					c-0.1-3.9,0.1-7.7,0.1-11.5c0-7.8,1.3-15.5-0.5-24.2c-14.5,5.6-30.8,9.6-46.5,10.2c0,0-4,0.1-4,0.1c-9.3-0.4-18.2-1.5-27.3-3.7
					c-4.5-1.1-9-2.4-13.4-3.9c-2.4-0.8-10.1-3.3-10.1-3.3s0.5,10.9-0.2,14.1c-0.8,3.5,0.3,5.8,0.1,9.4c-0.2,3.9,0.4,8.8,0.2,12.8
					c-0.2,7.6-0.1,15.3,0.4,22.9c0.3,5.2,0.8,10.8,0.4,16.2c-0.2,2.9-0.2,5.8-0.2,8.7c0,1.9-0.5,7.1,0.5,8.7
					c1.6,2.5,6.7,2.1,9.6,2.3c12.1,0.8,20.9,1.3,33.1,2.1c0.5-8.4,1.7-13.9,3.3-21.5c0.5-2.5,2.1-13.2,2.7-15.8
					c-0.7,3,3.1,13.3,4.2,15.8c1.7,3.8,2.3,8,2.3,12.2c0,2.6,0.7,10.4,0.7,10.4s10-1.6,12.6-1.8c7.7-0.5,15.4-1,23.1-1.5
					c1.3-0.1,1.5-0.4,2.8-0.5c1.8-0.2,3.3-0.1,4.6-1.2C328.4,415.8,328.1,410.2,327.6,406z"/>
				<path class="st12" d="M327.6,406c-0.2-1.7-0.5-3.4-0.7-5c-0.2-1.7-0.3-3.4-0.4-5.1c0-3.4,0.2-6.8,0.5-10.2
					c0.3-3.4,0.7-6.8,0.9-10.2c0.2-3.4,0.3-6.8,0.3-10.2c0-3.4-0.2-6.8-0.1-10.2l0.1-5.1c0-1.7,0-3.4,0.1-5.1
					c0.1-3.4,0.4-6.8,0.4-10.2c0-3.4-0.3-6.8-0.9-10.1l0.1,0c-7.4,2.9-15,5.2-22.8,7c-7.8,1.8-15.7,2.9-23.7,3.2l-0.1-0.1
					c0,0,0,0.1,0,0.1c0,0,0,0,0,0l0,0l0,0l-0.1,0l-0.1,0l-0.2,0l-0.5,0l-1,0l-1,0l-0.5,0l-0.2,0l-0.1,0l-0.1,0l0,0l0,0c0,0,0,0,0,0
					c0,0-0.1-0.1-0.1-0.1l0.1,0.1c-8.7-0.3-17.4-1.4-25.8-3.4c-4.2-1-8.4-2.1-12.6-3.5l-12.3-4.1l0.2-0.1c0.1,2.8,0.2,5.6,0.1,8.4
					c0,1.4,0,2.8-0.2,4.2c-0.1,0.7-0.2,1.4-0.3,2.1c-0.1,0.7-0.2,1.4-0.2,2.1c0,1.4,0.2,2.8,0.3,4.2c0.1,0.7,0.1,1.4,0.1,2.1
					c0,0.7-0.1,1.4-0.1,2.1c0,2.8,0.2,5.6,0.3,8.4c0,1.4,0,2.8,0,4.2l-0.1,4.2c0,2.8,0,5.6,0.1,8.4c0.1,2.8,0.2,5.6,0.4,8.4
					c0.2,2.8,0.4,5.6,0.5,8.4c0.1,2.8,0.1,5.6-0.1,8.4c-0.2,2.8-0.2,5.6-0.1,8.4c0,1.4-0.1,2.8-0.1,4.2c0,0.7,0,1.4,0.1,2.1
					c0.1,0.7,0.1,1.4,0.4,2c0.3,0.6,0.8,1.1,1.5,1.4c0.6,0.3,1.3,0.5,2,0.7c1.4,0.3,2.9,0.3,4.3,0.3c1.5,0,2.9,0.1,4.4,0.2l4.4,0.3
					l8.7,0.5l17.4,1.1l-0.1,0.1c0.2-3.1,0.5-6.3,1-9.4c0.5-3.1,1.1-6.2,1.8-9.3c0.3-1.5,0.7-3.1,0.9-4.6l0.8-4.7
					c0.5-3.1,1-6.2,1.6-9.3c0,0,0-0.1,0.1-0.1c0,0,0.1,0,0.1,0.1l0,0c-0.1,0.8,0,1.6,0.1,2.4c0.1,0.8,0.3,1.6,0.5,2.4
					c0.4,1.6,0.9,3.2,1.4,4.7c0.5,1.6,1.1,3.1,1.6,4.6c0.3,0.8,0.6,1.5,0.9,2.3c0.3,0.8,0.6,1.5,0.8,2.3c0.9,3.2,1.2,6.5,1.2,9.7
					c0.1,3.3,0.4,6.5,0.7,9.8l0,0c2.3-0.4,4.6-0.7,6.8-1c2.3-0.3,4.6-0.7,6.9-0.8l13.8-0.9l6.9-0.4c0.6,0,1.2-0.1,1.7-0.1
					c0.6-0.1,1.1-0.3,1.7-0.4c1.1-0.2,2.3-0.2,3.4-0.4c1.1-0.3,2.2-0.9,2.5-2.1c0.3-1.1,0.4-2.2,0.5-3.3
					C328,410.4,327.8,408.2,327.6,406z M327.6,406c0.3,2.2,0.5,4.4,0.4,6.7c0,1.1-0.1,2.2-0.5,3.3c-0.3,1.1-1.4,1.8-2.5,2.1
					c-1.1,0.3-2.3,0.2-3.4,0.4c-0.6,0.1-1.1,0.3-1.7,0.4c-0.6,0.1-1.2,0.1-1.7,0.1l-6.9,0.4l-13.8,0.9c-2.3,0.1-4.6,0.5-6.9,0.8
					c-2.3,0.3-4.6,0.7-6.8,1c0,0,0,0,0,0l0,0c-0.3-3.3-0.6-6.5-0.7-9.8c0-3.3-0.3-6.6-1.2-9.7c-0.2-0.8-0.5-1.6-0.8-2.3
					c-0.3-0.8-0.6-1.5-0.9-2.3c-0.6-1.5-1.1-3.1-1.7-4.7c-0.5-1.6-1-3.1-1.4-4.7c-0.2-0.8-0.4-1.6-0.5-2.4c-0.1-0.8-0.2-1.6-0.1-2.5
					l0.1,0c-0.6,3.1-1.1,6.2-1.6,9.3l-0.8,4.7c-0.3,1.6-0.6,3.1-0.9,4.6c-0.7,3.1-1.3,6.2-1.7,9.3c-0.5,3.1-0.8,6.2-1,9.4
					c0,0.1-0.1,0.1-0.1,0.1l0,0l-17.4-1.1l-8.7-0.5l-4.4-0.3c-1.5-0.1-2.9-0.2-4.4-0.2c-1.5,0-2.9-0.1-4.4-0.3
					c-0.7-0.1-1.4-0.3-2.1-0.7c-0.7-0.3-1.3-0.8-1.6-1.5c-0.3-0.7-0.4-1.4-0.4-2.1c-0.1-0.7-0.1-1.4-0.1-2.1c0-1.4,0.1-2.8,0.1-4.2
					c-0.1-2.8,0-5.6,0.1-8.4c0.2-2.8,0.2-5.6,0.1-8.4c-0.1-2.8-0.3-5.6-0.5-8.4c-0.2-2.8-0.3-5.6-0.4-8.4c-0.1-2.8-0.1-5.6-0.1-8.4
					l0.1-4.2c0-1.4,0.1-2.8,0-4.2c-0.1-2.8-0.3-5.6-0.3-8.4c0-0.7,0-1.4,0.1-2.1c0-0.7,0-1.4-0.1-2.1c-0.1-1.4-0.3-2.8-0.3-4.2
					c0.9-5.6,0.7-11.2,0.5-16.8c0-0.1,0.1-0.1,0.1-0.1c0,0,0,0,0,0l12.3,4.1c4.1,1.3,8.3,2.5,12.5,3.5c8.5,1.9,17.1,3,25.8,3.4
					l0.1,0.1c0,0,0-0.1,0-0.1c0,0,0,0,0,0l0,0l0,0l0.1,0l0.1,0l0.2,0l0.5,0l1,0l1,0l0.5,0l0.2,0l0.1,0l0.1,0l0,0l0,0c0,0,0,0,0,0
					c0,0,0.1,0.1,0.1,0.1l-0.1-0.1c8-0.3,15.9-1.5,23.7-3.2c7.8-1.7,15.4-4.1,22.8-7c0,0,0.1,0,0.1,0l0,0c0.7,3.3,0.9,6.8,0.9,10.2
					c0,3.4-0.2,6.8-0.4,10.2c-0.1,1.7-0.1,3.4-0.1,5.1l-0.1,5.1c-0.1,3.4,0.1,6.8,0.1,10.2c0,3.4-0.1,6.8-0.3,10.2
					c-0.2,3.4-0.6,6.8-0.9,10.2c-0.3,3.4-0.6,6.8-0.6,10.2c0,1.7,0.1,3.4,0.3,5.1C327.1,402.6,327.4,404.3,327.6,406z"/>
			</g>
			<g>
				<path class="st13" d="M225.6,337.7c8.4,2.6,17.2,4.2,26,5.1c4.4,0.4,8.8,0.7,13.2,0.9c2.2,0.1,4.4,0.1,6.6,0.1l6.6,0
					c4.4,0,8.8,0.1,13.3,0c2.2-0.1,4.4-0.1,6.6-0.3c2.2-0.2,4.4-0.5,6.6-0.7l6.6-0.8c2.2-0.3,4.4-0.5,6.6-0.9
					c2.2-0.4,4.3-0.9,6.4-1.6c1-0.4,2-0.8,3-1.3c0.5-0.3,1-0.5,1.4-0.8l0.7-0.4l0.3-0.2l0.2-0.1c0.1-0.1,0,0,0.1,0.1c0,0,0,0,0.1,0
					c0,0,0,0,0,0l-0.1,0.1l-0.2,0.1l-0.4,0.2c-0.2,0.2-0.5,0.3-0.7,0.4c-0.5,0.3-1,0.5-1.5,0.8c-1,0.5-2,0.9-3.1,1.3
					c-2.1,0.7-4.3,1.2-6.4,1.6c-2.2,0.4-4.4,0.6-6.6,0.9l-6.6,0.8c-4.4,0.5-8.8,0.9-13.2,1c-4.4,0.1-8.8,0.1-13.3,0.1
					c-8.8,0-17.7-0.3-26.5-1.2c-4.4-0.5-8.8-1.1-13.1-1.9c-2.2-0.4-4.3-0.9-6.5-1.5c-1.1-0.3-2.1-0.6-3.2-0.9L227,338l-0.8-0.2
					l-0.4-0.1l-0.2-0.1C225.5,337.5,225.5,337.6,225.6,337.7z M225.6,337.7c-0.1,0,0-0.2,0-0.1l0.2,0.1l0.4,0.1l0.8,0.2l1.6,0.5
					c1.1,0.3,2.1,0.6,3.2,0.9c2.1,0.5,4.3,1,6.5,1.4c4.3,0.8,8.7,1.5,13.1,1.9c8.8,0.9,17.7,1.1,26.5,1.1c4.4,0,8.8-0.1,13.3-0.1
					c4.4-0.1,8.8-0.5,13.2-1.1l6.6-0.8c2.2-0.3,4.4-0.5,6.6-0.9c2.2-0.4,4.3-0.9,6.4-1.6c1-0.4,2.1-0.8,3-1.3c0.5-0.2,1-0.5,1.5-0.8
					c0.2-0.1,0.5-0.3,0.7-0.4l0.3-0.2l0.2-0.1l0.1-0.1l0.1,0c0,0,0.1,0,0.2,0c0.1,0,0.1,0.1,0.1,0.3c-0.1,0.1-0.1,0.1-0.1,0.1
					l-0.2,0.1l-0.3,0.2l-0.7,0.4c-0.5,0.3-1,0.5-1.5,0.8c-1,0.5-2,0.9-3.1,1.3c-2.1,0.8-4.3,1.3-6.4,1.6c-2.2,0.4-4.4,0.6-6.6,0.8
					l-6.6,0.8c-2.2,0.2-4.4,0.6-6.6,0.7c-2.2,0.2-4.4,0.3-6.6,0.3c-4.4,0.1-8.8,0-13.3,0l-6.6,0c-2.2,0-4.4,0-6.6-0.1
					c-4.4-0.2-8.8-0.5-13.2-0.9C242.8,341.9,234,340.3,225.6,337.7z"/>
			</g>
			<g>
				<path class="st13" d="M252.3,342.6c-0.6,3.3,0.4,6.5,0,9.8c-0.1,0.8-0.4,1.6-0.8,2.3c-0.4,0.7-1,1.4-1.6,1.9
					c-1.3,1.1-2.8,1.8-4.3,2.4c-3.1,1.1-6.5,1.3-9.7,0.6c-1.6-0.3-3.2-0.9-4.6-1.7c-0.7-0.4-1.4-0.8-2.1-1.3c-0.3-0.2-0.7-0.5-1-0.8
					l-0.5-0.4c-0.1-0.1-0.2-0.2-0.2-0.2c0,0,0.1,0,0.1-0.1c0,0,0.1,0.1,0.1,0.1c2.4,2.2,5.4,3.7,8.6,4.3c3.2,0.6,6.6,0.4,9.7-0.7
					c1.5-0.5,3-1.4,4.2-2.5c1.2-1.1,2-2.6,2.2-4.2c0.2-1.6,0.1-3.3,0-4.9c-0.1-0.8-0.1-1.6-0.1-2.5c0-0.4,0-0.8,0.1-1.2
					c0-0.2,0-0.4,0.1-0.6l0-0.3c0,0,0-0.1,0-0.1C252.4,342.5,252.3,342.5,252.3,342.6z M252.3,342.6c0-0.1,0.1-0.1,0.1,0
					c0,0,0,0.1,0,0.2l0,0.3c0,0.2-0.1,0.4-0.1,0.6c0,0.4-0.1,0.8-0.1,1.2c0,0.8,0.1,1.6,0.1,2.5c0.1,1.6,0.3,3.3,0.1,4.9
					c-0.2,1.6-1,3.2-2.2,4.3c-1.2,1.1-2.7,2-4.2,2.5c-3.1,1.1-6.5,1.4-9.7,0.8c-3.2-0.6-6.3-2.1-8.8-4.3c0,0-0.1,0-0.1-0.1
					c-0.1-0.2,0.1-0.3,0.2-0.3c0.2,0.1,0.2,0.1,0.3,0.2l0.5,0.4c0.3,0.3,0.6,0.5,1,0.8c0.7,0.5,1.4,0.9,2.1,1.3
					c1.4,0.8,3,1.3,4.6,1.7c3.2,0.7,6.6,0.5,9.7-0.6c1.5-0.6,3-1.3,4.3-2.3c0.6-0.5,1.2-1.1,1.6-1.9c0.4-0.7,0.6-1.5,0.8-2.3
					C252.7,349.1,251.7,345.8,252.3,342.6z"/>
			</g>
			<g>
				<path class="st13" d="M300.9,342.8c0.4,3,1.3,6,2.8,8.7c0.7,1.3,1.6,2.6,2.7,3.7c1,1.1,2.3,2.1,3.6,2.7c1.4,0.7,2.9,0.9,4.4,1
					c1.5,0.1,3.1,0,4.6-0.2c1.5-0.2,3-0.5,4.5-1c0.7-0.2,1.4-0.5,2.2-0.8c0.4-0.1,0.7-0.3,1.1-0.5l0.5-0.2l0.3-0.1l0.1-0.1l0.1,0
					c0,0,0,0,0,0.1c0,0,0.1,0.1,0.1,0.1l-0.1,0.1l-0.3,0.1l-0.5,0.2c-0.4,0.2-0.7,0.3-1.1,0.5c-0.7,0.3-1.4,0.6-2.2,0.8
					c-1.5,0.5-3,0.8-4.5,1c-3,0.3-6.3,0.4-9.1-0.9c-2.8-1.4-4.8-3.9-6.3-6.6c-0.7-1.4-1.3-2.8-1.8-4.2c-0.2-0.7-0.4-1.5-0.6-2.2
					c-0.1-0.4-0.2-0.8-0.2-1.1l-0.1-0.6l0-0.3c0,0,0-0.1,0-0.1C300.9,342.7,300.9,342.8,300.9,342.8z M300.9,342.8
					c0-0.1,0.1-0.1,0.1,0c0,0,0,0.1,0,0.1l0,0.3l0.1,0.6c0.1,0.4,0.1,0.8,0.2,1.1c0.2,0.8,0.4,1.5,0.6,2.2c0.5,1.5,1.1,2.9,1.8,4.2
					c1.5,2.7,3.5,5.2,6.3,6.5c2.8,1.3,6,1.2,9,0.9c1.5-0.2,3-0.5,4.5-1c0.7-0.2,1.4-0.5,2.2-0.8c0.4-0.1,0.7-0.3,1-0.5l0.5-0.2
					l0.3-0.1l0.1-0.1c0.1-0.1,0.3,0,0.3,0.2c0,0.1-0.1,0.2-0.1,0.2l-0.1,0l-0.1,0.1l-0.3,0.1l-0.5,0.2c-0.4,0.2-0.7,0.3-1.1,0.5
					c-0.7,0.3-1.4,0.6-2.2,0.8c-1.5,0.5-3,0.8-4.5,1c-1.5,0.2-3.1,0.3-4.6,0.2c-1.5-0.1-3.1-0.4-4.5-1.1c-1.4-0.7-2.6-1.6-3.7-2.8
					c-1-1.1-1.9-2.4-2.7-3.8C302.2,348.9,301.3,345.9,300.9,342.8z"/>
			</g>
			<g>
				<path class="st14" d="M255.2,337.8c0,1.2-0.1,2.3-0.2,3.5c-0.1,0.6-0.6,2.9-0.2,3.3c0.1,0.1,0.2,0.1,0.3,0.1c1,0.3,2,0.4,3,0.4
					c0.1,0,0.2,0,0.2,0c0.1,0,0.1-0.1,0.2-0.2c0.6-0.9,0.7-1.9,0.7-3c0.1-2.4,0.9-9.1,0.9-9.1s-3.2-1.4-4.1-0.6
					C255.1,333.3,255.2,336.5,255.2,337.8z"/>
				<path class="st14" d="M258.1,345.2C258.1,345.2,258.1,345.2,258.1,345.2c-1.1,0-2.1-0.2-3-0.4c-0.1,0-0.2-0.1-0.3-0.1
					c-0.3-0.3-0.1-1.8,0.1-2.7c0-0.3,0.1-0.5,0.1-0.7l0-0.1c0.1-1.1,0.2-2.3,0.2-3.4l0,0c0-0.2,0-0.3,0-0.6c0-1.5,0-4.1,0.9-5
					c0.4-0.4,1.1-0.4,2.4,0c0.9,0.2,1.7,0.6,1.7,0.6l0,0l0,0c0,0.1-0.8,6.7-0.9,9.1c-0.1,1-0.1,2.1-0.7,3c0,0.1-0.1,0.2-0.2,0.2
					C258.2,345.2,258.2,345.2,258.1,345.2z M255.2,337.8c0,1.1-0.1,2.3-0.2,3.4l0,0.1c0,0.1-0.1,0.4-0.1,0.7
					c-0.2,0.9-0.4,2.3-0.1,2.7c0.1,0.1,0.2,0.1,0.3,0.1c1,0.3,2,0.4,3,0.4c0.1,0,0.2,0,0.2,0c0.1,0,0.1-0.1,0.2-0.2
					c0.6-0.9,0.7-2,0.7-3c0.1-2.4,0.9-8.8,0.9-9.1c-0.2-0.1-3.2-1.4-4-0.6c-0.9,0.9-0.9,3.4-0.9,5
					C255.2,337.5,255.2,337.7,255.2,337.8L255.2,337.8z"/>
			</g>
			<g>
				<path class="st14" d="M295.5,337.9c0,2.3,0.8,4.8,0.8,7.1c0,0.1-0.7,0.1-0.8,0.2c-0.1,0.1-0.2,0.1-0.3,0.1
					c-0.8,0.1-1.6,0.2-2.4,0.2c-0.8-0.8-0.9-2.1-0.9-3.2c-0.1-2.4-0.9-9.4-0.9-9.4s3-1.5,3.9-0.7
					C295.7,333.3,295.4,336.6,295.5,337.9z"/>
				<path class="st14" d="M292.7,345.6L292.7,345.6c-0.8-0.8-0.9-2.1-0.9-3.2c-0.1-2.4-0.9-9.3-0.9-9.4l0,0l0,0c0,0,0.8-0.4,1.6-0.7
					c1.1-0.4,1.9-0.4,2.3,0c0.8,0.8,0.8,3.1,0.7,4.7c0,0.4,0,0.7,0,0.9c0,1.2,0.2,2.4,0.4,3.6c0.2,1.2,0.4,2.4,0.4,3.6
					c0,0.1-0.2,0.1-0.4,0.1c-0.2,0-0.3,0.1-0.3,0.1c-0.1,0.1-0.2,0.1-0.3,0.1L292.7,345.6z M290.9,333c0,0.3,0.8,7,0.9,9.4
					c0.1,1.1,0.1,2.4,0.9,3.2l2.4-0.2c0.1,0,0.2,0,0.3-0.1c0,0,0.2-0.1,0.4-0.1c0.2,0,0.4-0.1,0.4-0.1c0-1.2-0.2-2.4-0.4-3.6
					c-0.2-1.2-0.4-2.4-0.4-3.6c0-0.2,0-0.5,0-0.9c0-1.5,0.1-3.8-0.7-4.6C293.9,331.5,291.1,332.9,290.9,333z"/>
			</g>
			<g>
				<path class="st13" d="M275.9,335l0.3,24.5l0.2,12.2l0,6.1l0,3.1l0,1.5l0,0.8l0,0.4l0,0.2c0-0.1-0.1-0.1-0.1,0l-0.1-24.5l0-12.2
					l-0.1-6.1l0-3.1l0-1.5l0-0.8l0-0.4l0-0.2C276,334.9,275.9,334.9,275.9,335z M275.9,335c0-0.1,0.1-0.1,0.1,0l0,0.2l0,0.4l0,0.8
					l0,1.5l0,3.1l0.1,6.1l0.1,12.2l0.2,24.5c0,0.2-0.3,0.3-0.4,0c0-0.1,0-0.1,0-0.2l0-0.4l0-0.8l0-1.5l0-3.1l0-6.1l-0.1-12.2
					L275.9,335z"/>
			</g>
			<g>
				<path class="st13" d="M287.3,343.8c-0.3,7.7,1,15.3,1.2,22.9c0.1,1.9,0.1,3.8-0.1,5.7c-0.1,1-0.2,1.9-0.5,2.8
					c-0.3,0.9-0.8,1.8-1.4,2.5c-1.3,1.5-2.9,2.6-4.6,3.4c-0.9,0.4-1.8,0.7-2.8,0.8c-0.5,0.1-1,0.1-1.4,0.1c-0.2,0-0.5,0-0.7,0
					l-0.4,0l0,0c0,0,0,0,0,0c0,0,0-0.1,0-0.1c-0.1-0.1,0,0,0.1,0c3.8,0.3,7.7-1.5,10-4.5c0.6-0.8,1-1.6,1.3-2.5
					c0.3-0.9,0.4-1.9,0.5-2.8c0.2-1.9,0.1-3.8,0-5.7c-0.2-3.8-0.5-7.6-0.8-11.5c-0.1-1.9-0.3-3.8-0.3-5.7c0-1,0-1.9,0-2.9l0-1.4
					l0-0.7l0-0.4c0-0.1,0-0.1,0-0.2C287.4,343.7,287.3,343.8,287.3,343.8z M287.3,343.8c0-0.1,0.1-0.1,0.1,0c0,0.1,0,0.1,0,0.2
					l0,0.4l0,0.7l0,1.4c0,1,0,1.9,0.1,2.9c0.1,1.9,0.2,3.8,0.4,5.7c0.3,3.8,0.7,7.6,0.9,11.5c0.1,1.9,0.2,3.8,0,5.7
					c-0.1,1-0.2,1.9-0.5,2.8c-0.3,0.9-0.8,1.8-1.3,2.6c-2.4,3.1-6.3,4.9-10.1,4.6l-0.1,0c0,0-0.1,0-0.2-0.1c0-0.1,0-0.2,0-0.2
					c0,0,0.1,0,0.1,0l0,0l0.4,0c0.2,0,0.5,0,0.7,0c0.5,0,0.9,0,1.4-0.1c0.9-0.2,1.8-0.4,2.7-0.8c1.7-0.8,3.3-1.9,4.6-3.3
					c0.6-0.7,1.1-1.5,1.4-2.4c0.3-0.9,0.4-1.8,0.5-2.8c0.1-1.9,0.1-3.8,0.1-5.7C288.2,359.1,286.9,351.5,287.3,343.8z"/>
			</g>
			<g>
				<path class="st13" d="M284.3,343.8l0.7,20.8c0.1,1.7,0.1,3.5,0.2,5.2c0,0.9,0,1.7,0,2.6c0,0.9,0,1.7-0.3,2.6
					c-0.2,0.9-0.7,1.6-1.4,2.2c-0.7,0.6-1.5,1-2.2,1.4c-0.8,0.4-1.6,0.7-2.5,0.9c-0.4,0.1-0.9,0.1-1.3,0c-0.2,0-0.4-0.1-0.7-0.1
					l-0.3-0.1c0,0,0.1,0,0.1,0c0,0,0,0,0-0.1c-0.1-0.1,0,0,0.1,0c1.6,0.6,3.4,0,4.9-0.8c0.7-0.4,1.5-0.9,2.1-1.4
					c0.6-0.6,1-1.4,1.2-2.2c0.4-1.7,0.2-3.4,0.3-5.2c0-1.7,0-3.5-0.1-5.2l-0.4-10.4l-0.1-5.2l-0.1-2.6l0-1.3l0-0.6l0-0.3
					c0-0.1,0-0.1,0-0.2C284.4,343.7,284.3,343.8,284.3,343.8z M284.3,343.8c0-0.1,0.1-0.1,0.1,0c0,0,0,0.1,0,0.2l0,0.3l0,0.6l0,1.3
					l0.1,2.6l0.2,5.2l0.4,10.4c0.1,1.7,0.1,3.5,0.1,5.2l0,2.6c0,0.9,0,1.7-0.2,2.6c-0.2,0.9-0.6,1.7-1.3,2.3c-0.7,0.6-1.4,1-2.2,1.5
					c-1.5,0.8-3.3,1.4-5.1,0.8c-0.1,0-0.1,0-0.2-0.1c0-0.1,0-0.1,0-0.2c0-0.1,0.2-0.1,0.2-0.1l0.3,0.1c0.2,0.1,0.4,0.1,0.6,0.1
					c0.4,0.1,0.8,0,1.3,0c0.8-0.1,1.6-0.5,2.4-0.9c0.8-0.4,1.5-0.8,2.2-1.3c0.7-0.5,1.2-1.3,1.4-2.1c0.4-1.7,0.2-3.4,0.2-5.1
					c0-1.7-0.1-3.5-0.1-5.2L284.3,343.8z"/>
			</g>
			<g>
				<path class="st13" d="M227.2,359.2c3.3,1.4,6.8,2.3,10.3,2.6c1.8,0.2,3.6,0.2,5.3,0.2c1.8-0.1,3.6-0.3,5.3-0.8
					c1.7-0.5,3.3-1.5,4.4-2.9c1.1-1.4,1.6-3.2,1.7-4.9c0.1-1.8,0.1-3.6,0.1-5.4l0-2.7l0-1.3l0-0.7l0-0.3l0-0.2c0-0.1,0-0.1,0-0.1
					c0,0,0,0,0.1,0c0,0,0-0.1,0,0l0,0.2l0,0.3l0,0.7l0,1.3l0,2.7c0,1.8,0,3.6-0.1,5.4c-0.1,1.8-0.5,3.6-1.7,5
					c-1.1,1.4-2.8,2.4-4.5,2.9c-1.7,0.5-3.5,0.7-5.3,0.8c-1.8,0.1-3.6,0-5.4-0.2c-1.8-0.2-3.5-0.5-5.3-1c-0.9-0.2-1.7-0.5-2.6-0.8
					c-0.4-0.1-0.8-0.3-1.3-0.5l-0.6-0.2l-0.3-0.1c-0.1,0-0.1-0.1-0.2-0.1C227.2,359.1,227.1,359.2,227.2,359.2z M227.2,359.2
					c-0.1,0,0-0.1,0-0.1c0.1,0,0.1,0,0.2,0.1l0.3,0.1l0.6,0.2c0.4,0.2,0.8,0.3,1.3,0.5c0.8,0.3,1.7,0.5,2.6,0.8
					c1.7,0.4,3.5,0.8,5.3,1c1.8,0.2,3.6,0.3,5.3,0.2c1.8-0.1,3.6-0.2,5.3-0.8c1.7-0.5,3.3-1.5,4.4-2.9c1.1-1.4,1.5-3.2,1.6-5
					c0.1-1.8,0-3.6,0-5.4l0-2.7l0-1.3l0-0.7l0-0.3l0-0.2c0,0,0-0.1,0.1-0.2c0.1,0,0.1,0,0.2,0c0.1,0,0.1,0.2,0.1,0.2l0,0.1l0,0.2
					l0,0.3l0,0.7l0,1.3l0,2.7c0,1.8,0,3.6-0.1,5.4c-0.1,1.8-0.6,3.6-1.7,5c-1.1,1.4-2.7,2.4-4.4,2.9c-1.7,0.6-3.5,0.7-5.3,0.8
					c-1.8,0.1-3.6,0-5.4-0.2C234,361.5,230.5,360.6,227.2,359.2z"/>
			</g>
			<g>
				<path class="st13" d="M298.2,342.9c0.8,3.4,2.1,6.7,3.4,10c0.6,1.6,1.3,3.3,2.4,4.7c1,1.4,2.4,2.6,4,3.4c3.1,1.7,6.8,2,10.2,1.4
					c1.7-0.3,3.4-0.8,5-1.5l2.4-1.1c0.4-0.2,0.8-0.3,1.2-0.5c0.2-0.1,0.4-0.1,0.6-0.2l0.3-0.1c0.1,0,0.3-0.1,0.2,0c0,0,0,0,0.1,0
					c0,0,0,0-0.1,0l-0.2,0l-0.3,0.1c-0.2,0.1-0.4,0.1-0.6,0.2c-0.4,0.1-0.8,0.3-1.2,0.4c-0.8,0.3-1.6,0.7-2.4,1
					c-1.6,0.7-3.3,1.3-5,1.5c-3.5,0.6-7.2,0.3-10.3-1.5c-1.5-0.9-2.9-2-3.9-3.5c-1-1.4-1.7-3.1-2.3-4.7c-0.6-1.6-1.3-3.3-1.9-4.9
					c-0.3-0.8-0.6-1.7-0.8-2.5l-0.3-1.3l-0.2-0.6l-0.1-0.3c0-0.1,0-0.1,0-0.2C298.3,342.8,298.2,342.9,298.2,342.9z M298.2,342.9
					c0-0.1,0.1-0.1,0.1-0.1c0,0,0,0.1,0,0.2l0.1,0.3l0.2,0.6l0.4,1.3c0.2,0.8,0.5,1.7,0.8,2.5c0.6,1.7,1.2,3.3,1.9,4.9
					c0.7,1.6,1.3,3.3,2.3,4.7c1,1.4,2.4,2.6,3.9,3.4c3.1,1.7,6.8,2.1,10.2,1.4c1.7-0.3,3.4-0.8,5-1.6c0.8-0.4,1.6-0.7,2.4-1
					c0.4-0.2,0.8-0.3,1.2-0.5c0.2-0.1,0.4-0.1,0.6-0.2l0.3-0.1l0.2,0c0,0,0,0,0.1,0c0.1,0,0.2,0.1,0.2,0.1c0,0.1,0,0.2-0.1,0.2
					c-0.1,0-0.1,0-0.1,0l-0.2,0l-0.3,0.1c-0.2,0.1-0.4,0.1-0.6,0.2c-0.4,0.1-0.8,0.3-1.2,0.5l-2.4,1c-1.6,0.7-3.3,1.2-5.1,1.5
					c-3.5,0.6-7.2,0.2-10.3-1.5c-1.5-0.8-2.9-2-4-3.4c-1-1.4-1.7-3.1-2.4-4.7C300.3,349.7,299,346.4,298.2,342.9z"/>
			</g>
			<ellipse class="st15" cx="281.1" cy="340.5" rx="2.6" ry="2.4"/>
			<g>
				<path class="st13" d="M232.7,338.4c-1.5,2.7-2.8,5.7-2.6,8.9c0,1.6,0.1,3.1,0,4.7c-0.1,0.8-0.2,1.6-0.3,2.3
					c-0.1,0.4-0.2,0.8-0.3,1.2l-0.1,0.6l-0.1,0.3c0,0,0,0.2,0,0.1c0,0-0.1,0-0.1,0c0.9-2.9,1-6.2,1-9.3c0-1.6,0.2-3.2,0.7-4.6
					c0.3-0.7,0.6-1.5,0.9-2.2l0.5-1l0.3-0.5l0.1-0.3c0,0,0.1-0.1,0-0.1C232.8,338.4,232.7,338.4,232.7,338.4z M232.7,338.4
					c0-0.1,0.1,0,0.1,0c0,0.1,0,0.1,0,0.1l-0.1,0.3l-0.3,0.5l-0.5,1.1c-0.3,0.7-0.7,1.4-0.9,2.2c-0.5,1.5-0.7,3.1-0.7,4.6
					c0.1,3.1,0,6.3-0.9,9.4c-0.1,0.1-0.3,0.1-0.3,0c0-0.2,0-0.2,0-0.2l0.1-0.3l0.2-0.6c0.1-0.4,0.2-0.8,0.3-1.1
					c0.2-0.8,0.3-1.5,0.4-2.3c0.2-1.6,0.1-3.1,0.1-4.7c0-1.6,0.2-3.2,0.7-4.6C231.2,341.2,231.9,339.8,232.7,338.4z"/>
			</g>
			<g>
				<path class="st13" d="M228.6,359.9c-0.2,4.8,0.2,9.7,0,14.5l-0.3,14.5c-0.1,4.8,0,9.7,0.2,14.5c0.1,2.4,0.3,4.8,0.6,7.2
					c0.1,1.2,0.3,2.4,0.4,3.6l0.3,1.8l0.1,0.9l0.1,0.4l0,0.2c0,0.1,0,0-0.1,0c0,0,0,0-0.1,0c-1.6-9.5-1.8-19.3-1.6-29l0.3-14.5
					c0.1-2.4,0-4.8,0-7.3l0-3.6l0-1.8l0-0.9l0-0.5l0-0.2C228.8,359.8,228.6,359.8,228.6,359.9z M228.6,359.9c0-0.1,0.2-0.1,0.1,0
					l0,0.2l0,0.5l0,0.9l0,1.8l0,3.6c0.1,2.4,0.1,4.8,0,7.3l-0.3,14.5c-0.1,9.7,0.1,19.4,1.7,29c0,0.1-0.1,0.2-0.2,0.2
					c-0.1,0-0.1,0-0.1-0.1c0-0.1,0-0.1,0-0.1l0-0.2l-0.1-0.4l-0.1-0.9l-0.3-1.8c-0.2-1.2-0.3-2.4-0.4-3.6c-0.2-2.4-0.4-4.8-0.5-7.2
					c-0.2-4.8-0.2-9.7-0.1-14.5l0.3-14.5C228.8,369.5,228.4,364.7,228.6,359.9z"/>
			</g>
			<g>
				<path class="st13" d="M323.4,337.7c0.7,3.1,1.4,6.3,1.9,9.4c0.3,1.6,0.5,3.2,0.7,4.8l0.3,2.4l0.1,1.2l0.1,0.6l0,0.3l0,0.1
					c0,0,0,0,0,0c0,0,0,0,0,0c0,0,0,0.1,0,0c-0.3-3.2-0.6-6.4-1.1-9.6c-0.2-1.6-0.5-3.2-0.8-4.7l-0.5-2.4l-0.3-1.2l-0.1-0.6
					l-0.1-0.3C323.6,337.7,323.6,337.6,323.4,337.7C323.5,337.6,323.4,337.6,323.4,337.7z M323.4,337.7
					C323.4,337.6,323.5,337.6,323.4,337.7c0.1,0,0.1,0,0.2,0.1l0.1,0.3l0.1,0.6l0.3,1.2l0.5,2.4c0.3,1.6,0.6,3.2,0.9,4.7
					c0.5,3.2,0.9,6.4,1.2,9.6c0,0,0,0.1-0.1,0.2c-0.1,0-0.1,0-0.2,0c-0.1,0-0.1-0.1-0.1-0.2l0-0.1l0-0.3l0-0.6l-0.1-1.2l-0.2-2.4
					c-0.2-1.6-0.4-3.2-0.6-4.8C324.7,344,324.1,340.8,323.4,337.7z"/>
			</g>
			<g>
				<path class="st13" d="M326.4,359.3c0,4.9,0.2,9.7,0.1,14.6c-0.1,2.4-0.2,4.9-0.6,7.3c-0.4,2.4-0.8,4.8-0.9,7.2
					c-0.2,4.8,0.2,9.7,0.5,14.5c0.2,2.4,0.3,4.8,0.3,7.3c0,1.2,0,2.4-0.1,3.6c0,0.6-0.1,1.2-0.1,1.8l-0.1,0.9l-0.1,0.5l0,0.2
					c0,0.1,0-0.1-0.1-0.1c0,0,0,0-0.1,0c1.3-9.7-0.9-19.4-0.3-29.1c0.1-1.2,0.2-2.4,0.4-3.6c0.2-1.2,0.4-2.4,0.5-3.6
					c0.3-2.4,0.5-4.8,0.6-7.2c0.1-2.4,0-4.9,0-7.3l0-3.6l0-1.8l0-0.9l0-0.5l0-0.2C326.5,359.2,326.4,359.2,326.4,359.3z
					 M326.4,359.3c0-0.1,0.2-0.1,0.1,0l0,0.2l0,0.5l0,0.9l0,1.8l0,3.6c0,2.4,0.1,4.9,0,7.3c-0.1,2.4-0.3,4.8-0.6,7.3
					c-0.2,1.2-0.4,2.4-0.5,3.6c-0.2,1.2-0.3,2.4-0.3,3.6c-0.5,9.7,1.7,19.4,0.4,29.1c0,0.1-0.1,0.2-0.2,0.2c0,0-0.1,0-0.1-0.1
					c0-0.1,0-0.1,0-0.1l0-0.2l0.1-0.5l0.1-0.9c0.1-0.6,0.1-1.2,0.1-1.8c0.1-1.2,0.1-2.4,0.1-3.6c0-2.4-0.1-4.8-0.3-7.3
					c-0.3-4.8-0.7-9.7-0.4-14.6c0.1-2.4,0.5-4.8,0.9-7.2c0.3-2.4,0.5-4.8,0.6-7.2C326.5,369,326.3,364.2,326.4,359.3z"/>
			</g>
			<g>
				<path class="st16" d="M271.4,415.4c-5.2-0.1-9-0.8-14.2-1.3c-5.6-0.6-11.2-0.9-16.8-1.7c-2.8-0.4-5.6-0.8-8.3-1.5
					c-2.7-0.6-1.1-1.7-3.8-2.5c-0.4-0.1-0.9-0.2-1.3-0.3c0,0-0.1,0-0.1-0.1c-0.4,3.4-1.3,6.6-0.7,9.9c3.9,1.7,5.2,2.6,9.4,3.3
					c11.4,2,22.9,2.9,34.4,3.5c0.5,0,1.3-3.6,1.2-4C271.2,418.9,271.1,417.3,271.4,415.4z"/>
				<path class="st17" d="M271.4,415.4c-3.8-0.1-7.6-0.5-11.4-0.9c-3.8-0.4-7.6-0.7-11.4-1.1c-3.8-0.3-7.6-0.7-11.4-1.3
					c-1.9-0.3-3.8-0.7-5.6-1.1c-0.5-0.1-0.9-0.4-1.3-0.7c-0.3-0.4-0.5-0.8-0.9-1.1c-0.4-0.3-0.8-0.4-1.3-0.5
					c-0.4-0.1-0.9-0.2-1.4-0.3l0.2-0.1c-0.2,1.7-0.5,3.3-0.7,4.9c-0.2,1.6-0.2,3.3,0.1,4.9l-0.1-0.1c2.1,0.9,4.1,2,6.3,2.6
					c1.1,0.3,2.2,0.6,3.3,0.8c1.1,0.2,2.2,0.4,3.4,0.6c4.5,0.7,9,1.3,13.6,1.7c4.5,0.4,9.1,0.8,13.7,1.1l3.4,0.2l0.1,0
					c0,0,0,0,0.1,0c0,0,0.1-0.1,0.1-0.1c0.1-0.1,0.1-0.2,0.2-0.4c0.1-0.3,0.2-0.5,0.3-0.8c0.2-0.5,0.3-1.1,0.4-1.6
					c0.1-0.3,0.1-0.5,0.2-0.8c0-0.3,0-0.5,0-0.8l0-1.7C271.1,417.6,271.2,416.5,271.4,415.4z M271.4,415.4c-0.2,1.1-0.2,2.2-0.2,3.3
					l0.1,1.7c0,0.3,0,0.6,0,0.8c0,0.3-0.1,0.5-0.1,0.8c-0.1,0.5-0.2,1.1-0.4,1.6c-0.1,0.3-0.2,0.5-0.3,0.8c-0.1,0.1-0.1,0.3-0.2,0.4
					c0,0.1-0.1,0.1-0.1,0.2c0,0-0.1,0.1-0.1,0l-0.1,0l-3.4-0.2c-4.6-0.3-9.1-0.6-13.7-1c-4.6-0.4-9.1-1-13.6-1.7
					c-1.1-0.2-2.3-0.4-3.4-0.5c-1.1-0.2-2.3-0.4-3.4-0.7c-2.2-0.7-4.2-1.7-6.3-2.6c-0.1,0-0.1-0.1-0.1-0.1c-0.3-1.7-0.2-3.4,0-5
					c0.2-1.7,0.5-3.3,0.7-4.9c0-0.1,0.1-0.1,0.2-0.1c0,0,0,0,0,0c0.4,0.2,0.9,0.2,1.4,0.3c0.5,0.1,0.9,0.3,1.3,0.6
					c0.4,0.3,0.6,0.8,0.9,1.1c0.3,0.3,0.7,0.5,1.1,0.7c1.8,0.5,3.7,0.8,5.6,1.1c3.8,0.6,7.6,1,11.4,1.4c3.8,0.4,7.6,0.7,11.4,1.1
					C263.8,414.9,267.6,415.3,271.4,415.4z"/>
			</g>
			<g>
				<path class="st16" d="M282.6,415.2c5.2-0.1,12-0.5,17.2-1c5.6-0.6,11.2-0.9,16.8-1.7c2.8-0.4,2.6-0.8,5.3-1.5
					c2.7-0.6,2.9-1.7,5.6-2.5c0.4-0.1,0.9-0.2,1.3-0.3c0,0,0.1,0,0.1-0.1c0.4,3.4,1.3,6.6,0.7,9.9c-3.9,1.7-4,2.6-8.2,3.3
					c-11.4,2-26.4,2.8-37.9,3.5C283.1,425,282.3,417.1,282.6,415.2z"/>
				<path class="st17" d="M282.6,415.2c3.9-0.1,7.9-0.3,11.8-0.6c3.9-0.3,7.8-0.7,11.8-1.1c2-0.2,3.9-0.4,5.9-0.6
					c1-0.1,2-0.2,2.9-0.3c1-0.1,2-0.2,2.9-0.4c0.9-0.2,1.8-0.7,2.8-0.9c1-0.3,1.9-0.4,2.8-0.9c0.9-0.4,1.6-1,2.6-1.4
					c0.5-0.2,0.9-0.4,1.4-0.5c0.5-0.1,1-0.2,1.4-0.3c0.1,0,0.2,0,0.2,0.1c0,0,0,0,0,0c0.2,1.6,0.5,3.3,0.7,4.9c0.2,1.7,0.3,3.4,0,5
					c0,0.1,0,0.1-0.1,0.1c-1.1,0.5-2.1,1-3.2,1.6c-1,0.6-2.1,1.1-3.3,1.4c-1.2,0.3-2.4,0.5-3.5,0.7c-1.2,0.2-2.4,0.4-3.5,0.5
					c-4.7,0.6-9.5,1.1-14.2,1.5c-4.8,0.4-9.5,0.7-14.3,0.9L284,425l-0.4,0c0,0-0.1,0-0.1-0.1c0,0,0-0.1-0.1-0.1
					c0-0.1-0.1-0.1-0.1-0.2c-0.1-0.3-0.1-0.6-0.2-0.9c-0.1-0.6-0.2-1.1-0.2-1.7c-0.1-1.1-0.2-2.3-0.3-3.4
					C282.6,417.5,282.5,416.3,282.6,415.2z M282.6,415.2c-0.1,1.1,0,2.3,0,3.4c0.1,1.1,0.2,2.3,0.3,3.4c0.1,0.6,0.1,1.1,0.2,1.7
					c0.1,0.3,0.1,0.6,0.2,0.8c0,0.1,0.1,0.3,0.2,0.3l0.4,0l3.6-0.2c4.8-0.3,9.5-0.6,14.3-1c4.8-0.4,9.5-0.9,14.2-1.5
					c1.2-0.2,2.4-0.3,3.5-0.5c1.2-0.2,2.4-0.4,3.5-0.7c1.1-0.3,2.2-0.8,3.2-1.4c1-0.6,2.1-1.1,3.2-1.6l-0.1,0.1
					c0.3-1.6,0.3-3.3,0.1-4.9c-0.2-1.6-0.5-3.3-0.7-4.9l0.2,0.1c-0.5,0.2-1,0.2-1.4,0.4c-0.5,0.1-0.9,0.3-1.4,0.5
					c-0.9,0.4-1.7,1-2.6,1.4c-0.9,0.4-1.9,0.6-2.8,0.9c-0.9,0.3-1.8,0.7-2.8,0.9c-1,0.2-2,0.3-2.9,0.4c-1,0.1-2,0.2-2.9,0.3
					c-2,0.2-3.9,0.4-5.9,0.5c-3.9,0.3-7.8,0.8-11.8,1C290.5,414.9,286.5,415.1,282.6,415.2z"/>
			</g>
		</g>
		<g>
			<path class="st18" d="M256.4,205.2c-0.9,0.4-2.3-0.1-3.2-0.1c-1.1-0.1-2.2-0.1-3.2-0.2c-0.3,0-0.7,0-0.8,0.3
				c-0.1,0.2,0,0.4,0.1,0.6c0.8,1.6,1.8,3.2,3,4.5c0.1,0.1,0.2,0.2,0.3,0.3c0.3,0.1,0.3-0.4,0.7-0.5c0.7-0.2,0.4-0.5,0.9-1
				c0.5-0.6,1.7-0.8,1.9-1.6C256.2,206.6,256.6,205.2,256.4,205.2z"/>
			<path class="st19" d="M256.4,205.2c-0.4,0.2-0.9,0.2-1.3,0.2c-0.4,0-0.9-0.1-1.3-0.2c-0.4-0.1-0.9-0.1-1.3-0.1l-1.3,0l-1.3,0
				c-0.2,0-0.4,0-0.5,0.1c-0.1,0.1-0.1,0.3,0,0.5c0.4,0.8,0.8,1.6,1.3,2.3c0.5,0.7,1,1.4,1.6,2.1c0.1,0.2,0.3,0.4,0.4,0.4
				c0.1,0,0.1,0,0.1,0c0.1-0.1,0.1-0.2,0.2-0.3c0.1-0.1,0.2-0.2,0.3-0.2c0.1,0,0.2-0.1,0.3-0.1c0.1-0.1,0.2-0.3,0.3-0.5
				c0.5-0.8,1.6-0.8,2.1-1.6c0.2-0.4,0.3-0.8,0.4-1.3l0.2-0.6l0.1-0.3C256.4,205.5,256.5,205.3,256.4,205.2z M256.4,205.2
				c0.1,0,0,0.1,0,0.1l0,0.2l-0.1,0.3l-0.1,0.6c-0.1,0.4-0.2,0.9-0.4,1.3c-0.5,0.8-1.6,0.9-2,1.7c-0.1,0.2-0.1,0.4-0.3,0.6
				c-0.1,0.1-0.2,0.1-0.3,0.2c-0.1,0-0.2,0.1-0.2,0.1c-0.1,0.1-0.1,0.2-0.2,0.3c0,0.1-0.1,0.1-0.2,0.1c-0.1,0-0.2,0-0.2,0
				c-0.3-0.1-0.4-0.3-0.5-0.5c-0.6-0.7-1.1-1.4-1.6-2.1c-0.5-0.8-0.9-1.5-1.3-2.4c0-0.1-0.1-0.2-0.1-0.4c0-0.1,0.1-0.3,0.2-0.4
				c0.2-0.2,0.5-0.2,0.7-0.2l1.3,0.1c0.9,0.1,1.8,0.1,2.6,0.2C254.7,205.3,255.6,205.6,256.4,205.2z"/>
		</g>
		<g>
			<path class="st18" d="M301.8,204.7c0.3,0,0.7,0,1,0.1c0.3,0.1,0.6,0.1,0.8,0.4c0.2,0.4,0,1-0.1,1.4c-0.4,1-0.8,1.9-1.3,2.8
				c-0.6,0.9-1.4,1.6-2.3,2c-0.1,0.1-0.3,0.1-0.4,0.1c-0.1,0,0,0.2-0.1,0.2c-0.4-0.2-0.9-0.8-1.2-1.1c-1.1-1-2.6-1.2-3.6-2.6
				c-0.2-0.3-0.4-1.3-0.6-2.3c0-0.1,0.9-0.2,1-0.2c1.4-0.3,2.3-0.4,3.7-0.5C299.6,204.8,300.7,204.7,301.8,204.7z"/>
			<path class="st19" d="M301.8,204.7c0.6,0,1.1,0,1.6,0.4c0.2,0.2,0.2,0.5,0.2,0.8c0,0.3-0.1,0.6-0.2,0.8c-0.4,1-0.8,2.1-1.4,3
				c-0.3,0.5-0.7,0.9-1.2,1.2c-0.2,0.2-0.5,0.3-0.7,0.5c-0.1,0.1-0.3,0.1-0.4,0.2c-0.1,0-0.4,0.1-0.2,0c0,0,0,0,0,0.1
				c0,0-0.1,0.1-0.1,0.1c0,0-0.1,0-0.1,0c0,0,0,0,0,0c0,0-0.1,0-0.1-0.1c-0.1,0-0.1-0.1-0.2-0.1c-0.1-0.1-0.2-0.2-0.3-0.3l-0.6-0.6
				c-0.4-0.4-0.9-0.7-1.3-0.9c-0.5-0.3-1-0.5-1.5-0.9c-0.2-0.2-0.4-0.4-0.6-0.6c-0.1-0.1-0.2-0.2-0.3-0.3c-0.1-0.2-0.1-0.3-0.2-0.4
				c-0.2-0.6-0.2-1.1-0.4-1.6l-0.1-0.2l0-0.1c0,0,0-0.1,0-0.1c0,0,0,0,0,0c0.1,0,0.1,0,0.1,0c0.1,0,0.3-0.1,0.4-0.1
				c0.3,0,0.5-0.1,0.8-0.1c1.1-0.2,2.2-0.3,3.3-0.4C299.6,204.8,300.7,204.7,301.8,204.7z M301.8,204.7c-1.1,0-2.2,0.1-3.3,0.2
				c-1.1,0.1-2.2,0.3-3.3,0.5c-0.3,0.1-0.6,0.1-0.8,0.2c-0.1,0-0.3,0-0.4,0.1c0,0-0.1,0-0.1,0c0,0,0,0,0,0c0,0,0-0.1,0-0.1l0,0.1
				l0.1,0.2l0.4,1.6c0,0.1,0.1,0.3,0.1,0.3c0.1,0.1,0.2,0.2,0.3,0.3c0.2,0.2,0.4,0.4,0.6,0.5c0.4,0.3,0.9,0.6,1.4,0.8
				c0.5,0.3,1,0.6,1.4,1l0.6,0.6c0.1,0.1,0.2,0.2,0.3,0.3c0.1,0,0.1,0.1,0.2,0.1l0.1,0c0,0,0,0,0,0c0,0,0,0-0.1,0c0,0-0.1,0-0.1,0.1
				c0,0.1,0,0,0,0c0,0,0,0,0-0.1c0,0,0-0.1,0.1-0.2c0.1,0,0.1,0,0.1,0l0,0c0.1,0,0.1,0,0.2,0c0.1,0,0.3-0.1,0.4-0.2
				c0.2-0.1,0.5-0.3,0.7-0.4c0.4-0.3,0.8-0.7,1.2-1.2c0.7-0.9,1.1-1.9,1.5-3c0.1-0.3,0.2-0.5,0.2-0.8c0-0.3,0-0.6-0.2-0.8
				C302.9,204.8,302.3,204.7,301.8,204.7z"/>
		</g>
		<g>
			<path class="st20" d="M220.6,286.7l7.4-25.1l-0.2,8.9l-1.7,19.4l-4.7,59.5c17.1-2.8,22.8,6,81.2-3.3c8.6-1.4,24.1,1.4,27.5,1.1
				c1.4-0.1,0.6-4.5,0.5-6.6c-0.9-15.4-6.8-70.4-6.9-77.6c0-0.7,3.7,17.8,5.4,22.5c3.1,6.3,24.9-0.7,29.5-5.2
				c1-1-14.5-57.1-28.8-64.6c-6.9-3.6-12.8-1.8-20.8-3.8c-6.4-1.6-16.7,21.8-33.1,22c-14.5,0.1-26.5-24.1-32.1-22.4
				c-1.3,0.4-9-0.9-19.4,3.4c-21.3,8.9-21.5,38.5-32.1,64.1C192.4,278.8,208.1,290.7,220.6,286.7z"/>
			<path class="st10" d="M220.6,286.6l7.4-25.1c0,0,0-0.1,0.1,0c0,0,0,0,0,0.1l-0.1,5.5l-0.1,2.8c0,0.5,0,0.9-0.1,1.4l-0.1,1.4
				l-1,11c-0.7,7.3-1.2,14.6-1.8,22l-3.4,43.9l-0.2-0.2c2.3-0.4,4.6-0.6,6.9-0.6c2.3,0,4.6,0.2,6.9,0.4c4.6,0.4,9.1,0.9,13.7,1.1
				c9.2,0.4,18.3,0,27.5-0.8c9.1-0.8,18.2-2.1,27.3-3.5c4.6-0.5,9.2-0.2,13.7,0.2c2.3,0.2,4.6,0.4,6.8,0.6c1.1,0.1,2.3,0.2,3.4,0.3
				c0.6,0,1.1,0.1,1.7,0.1c0.3,0,0.6,0,0.8,0c0.3,0,0.4-0.3,0.5-0.5c0.2-0.5,0.2-1.1,0.2-1.6c0-0.6,0-1.1-0.1-1.7
				c-0.1-1.1-0.2-2.2-0.3-3.3c-0.1-2.2-0.3-4.5-0.5-6.7c-0.4-4.5-0.8-8.9-1.2-13.3l-2.6-26.7c-0.8-8.9-1.7-17.8-2.4-26.7l-0.1-1.7
				l-0.1-1.7l0-0.2l0-0.1c-0.1-0.1,0.4-0.1,0.2,0l0,0.1l0.1,0.4l0.2,0.8l0.4,1.6l1.4,6.6c0.5,2.2,1,4.4,1.5,6.5
				c0.5,2.2,1.1,4.3,1.8,6.5l0,0c0.3,0.7,0.9,1.2,1.6,1.6c0.7,0.4,1.4,0.6,2.2,0.7c1.5,0.2,3.1,0.2,4.7,0.1c3.1-0.3,6.2-1,9.2-2
				c3-1,6-2.1,8.7-3.6c0.7-0.4,1.3-0.8,2-1.3c0.3-0.2,0.6-0.5,0.9-0.7c0,0,0-0.1,0-0.2c0-0.1,0-0.2,0-0.3c0-0.2,0-0.4-0.1-0.6
				c-0.3-1.5-0.6-3-1-4.5c-1.5-6-3.4-11.9-5.3-17.8c-2-5.9-4.2-11.7-6.6-17.3c-2.5-5.7-5.1-11.3-8.6-16.4c-0.9-1.3-1.8-2.5-2.8-3.7
				c-1-1.2-2.2-2.3-3.4-3.1c-2.6-1.7-5.8-2.5-8.9-2.8c-3.1-0.3-6.3-0.3-9.5-0.8c-0.8-0.1-1.6-0.3-2.3-0.4c-0.4-0.1-0.8-0.2-1.1-0.3
				c-0.4-0.1-0.7,0-1.1,0.1c-0.7,0.2-1.4,0.6-2.1,1c-0.6,0.4-1.2,0.9-1.8,1.5c-2.3,2.1-4.3,4.5-6.5,6.8c-2.1,2.3-4.3,4.5-6.8,6.5
				c-2.4,2-5.1,3.8-8.1,4.9c-1.5,0.6-3,1-4.6,1.2c-1.6,0.2-3.2,0.2-4.8-0.2c-3.1-0.7-6-2.3-8.5-4.1c-2.5-1.9-4.8-4.1-7-6.3
				c-2.2-2.2-4.2-4.6-6.4-6.9c-1.1-1.1-2.2-2.3-3.4-3.2c-0.6-0.5-1.2-1-1.9-1.3c-0.3-0.2-0.7-0.3-1.1-0.4c-0.2,0-0.4,0-0.6,0
				c-0.2,0-0.4,0.1-0.6,0.1c-0.8,0.1-1.6,0-2.4,0.1c-0.8,0-1.6,0-2.4,0.1c-1.6,0.1-3.2,0.2-4.7,0.5c-3.1,0.5-6.2,1.4-9.1,2.5
				c-2.9,1.2-5.7,2.8-8,4.8c-2.4,2-4.4,4.5-6.1,7.1c-3.4,5.2-5.6,11.1-7.5,16.9c-3.7,11.8-6.3,23.9-11.1,35.4l0,0
				c2,1.5,4.2,2.8,6.4,4c2.2,1.2,4.5,2.2,6.9,3c2.4,0.8,4.8,1.4,7.4,1.6c1.3,0.1,2.5,0.1,3.8,0C218.1,287.3,219.4,287,220.6,286.6z
				 M220.6,286.7c-1.2,0.4-2.5,0.6-3.7,0.7c-1.3,0.1-2.5,0.1-3.8,0c-2.5-0.2-5-0.8-7.4-1.6c-2.4-0.8-4.7-1.8-6.9-3
				c-2.2-1.2-4.4-2.5-6.4-4c0,0,0,0,0,0c4.7-11.5,7.3-23.6,11-35.4c1.9-5.9,4.1-11.7,7.5-17c1.7-2.6,3.7-5.1,6.1-7.1
				c2.4-2.1,5.1-3.7,8.1-4.9c2.9-1.2,6-2.1,9.1-2.6c1.6-0.3,3.1-0.4,4.7-0.5c0.8,0,1.6-0.1,2.4-0.1c0.8,0,1.6,0,2.4-0.1
				c0.2,0,0.4-0.1,0.6-0.1c0.2,0,0.4,0,0.6,0c0.4,0.1,0.8,0.2,1.2,0.4c0.7,0.4,1.4,0.8,2,1.3c1.2,1,2.3,2.1,3.4,3.3
				c2.1,2.3,4.2,4.6,6.4,6.8c2.2,2.2,4.4,4.4,7,6.3c2.5,1.8,5.3,3.4,8.4,4.1c1.5,0.3,3.1,0.4,4.7,0.2c1.6-0.2,3.1-0.6,4.5-1.1
				c2.9-1.1,5.6-2.9,8-4.9c2.4-2,4.6-4.2,6.7-6.5c2.1-2.3,4.2-4.6,6.5-6.8c0.6-0.5,1.2-1,1.8-1.5c0.7-0.4,1.4-0.9,2.2-1.1
				c0.4-0.1,0.8-0.1,1.2-0.1c0.4,0.1,0.8,0.2,1.2,0.3c0.8,0.2,1.5,0.3,2.3,0.4c3.1,0.5,6.3,0.5,9.5,0.8c3.2,0.3,6.3,1.2,9,2.9
				c1.3,0.9,2.5,2,3.5,3.2c1,1.2,2,2.4,2.9,3.7c3.5,5.2,6.2,10.8,8.6,16.5c2.4,5.7,4.6,11.5,6.6,17.4c2,5.9,3.8,11.8,5.3,17.8
				c0.4,1.5,0.7,3,1,4.5c0,0.2,0.1,0.4,0.1,0.6c0,0.1,0,0.2,0,0.3c0,0.1,0,0.2-0.1,0.4c-0.3,0.3-0.6,0.5-0.9,0.8
				c-0.6,0.5-1.3,0.9-2,1.3c-2.8,1.5-5.7,2.7-8.8,3.6c-3,0.9-6.1,1.7-9.3,2c-1.6,0.1-3.2,0.2-4.8-0.1c-0.8-0.1-1.6-0.3-2.3-0.7
				c-0.7-0.4-1.3-0.9-1.7-1.7c0,0,0,0,0,0c-0.7-2.1-1.3-4.3-1.8-6.5c-0.5-2.2-1-4.4-1.5-6.5l-1.4-6.6l-0.4-1.6l-0.2-0.8l-0.1-0.4
				l0-0.1c-0.2,0,0.2,0,0.2,0l0,0.1l0,0.2l0.1,1.7l0.1,1.7c0.7,8.9,1.5,17.8,2.4,26.7l2.5,26.7l1.2,13.4c0.2,2.2,0.4,4.5,0.5,6.7
				c0.1,1.1,0.2,2.2,0.3,3.3c0,0.6,0.1,1.1,0.1,1.7c0,0.6,0,1.1-0.2,1.7c-0.1,0.3-0.3,0.6-0.6,0.6c-0.3,0-0.6,0-0.9,0
				c-0.6,0-1.1,0-1.7-0.1c-1.1-0.1-2.3-0.2-3.4-0.3c-2.3-0.2-4.6-0.5-6.8-0.6c-4.6-0.4-9.2-0.7-13.7-0.2c-9.1,1.4-18.1,2.7-27.3,3.6
				c-9.1,0.8-18.3,1.3-27.5,0.9c-4.6-0.2-9.2-0.7-13.7-1.1c-2.3-0.2-4.6-0.4-6.9-0.4c-2.3,0-4.6,0.2-6.8,0.6c-0.1,0-0.2,0-0.2-0.1
				c0,0,0,0,0,0l3.5-43.9c0.6-7.3,1.1-14.6,1.8-22l1-11l0.1-1.4c0-0.5,0.1-0.9,0.1-1.4l0.1-2.8l0.1-5.5l0.1,0L220.6,286.7z"/>
		</g>
		<g>
			<path class="st21" d="M276.3,234.3c-5.2,3.1-10.1,6.8-16,8.5c-0.8,0.2-0.9,0-1.6-0.5c-0.6-0.4-1.1-0.8-1.7-1.3
				c-2.2-1.7-4.2-3.5-6.1-5.5c-4.2-4.4-7.6-9.4-10.2-14.8c-0.4-0.8-0.8-1.7-1.1-2.5c-0.1-0.3-0.3-0.7-0.3-1c0.1-0.7,1.8-1.9,2.3-2.4
				c1-1,1.9-2,2.8-3c1.8-2,3-4.4,4.5-6.5c2.9,3.9,5.4,8.1,8.4,11.9C262.6,223.7,268.9,230.3,276.3,234.3z"/>
			<path class="st22" d="M276.3,234.3c-2.4,1.5-4.7,3-7.1,4.5c-2.4,1.4-4.9,2.8-7.6,3.7l-1,0.3c-0.3,0.1-0.7,0.2-1.1,0.1
				c-0.6-0.4-1.1-0.8-1.7-1.2c-1.1-0.8-2.2-1.7-3.3-2.7c-2.1-1.9-4.1-3.9-5.9-6c-3.6-4.3-6.6-9.2-8.9-14.3c-0.1-0.3-0.3-0.6-0.4-1
				c0-0.2-0.1-0.4,0-0.6c0.1-0.2,0.2-0.4,0.3-0.5c0.5-0.6,1-1,1.6-1.4c0.5-0.4,1-1,1.5-1.5l1.5-1.5c1.9-2,3.2-4.5,4.9-6.9
				c0-0.1,0.1-0.1,0.2,0c0,0,0,0,0,0c2,2.7,3.8,5.5,5.7,8.3c1.9,2.8,4,5.4,6.2,7.9c2.2,2.5,4.5,4.9,7.1,7.1
				C270.6,230.7,273.4,232.7,276.3,234.3z M276.3,234.3c-2.9-1.6-5.7-3.6-8.2-5.7c-2.6-2.2-4.9-4.6-7.1-7.1
				c-2.2-2.5-4.3-5.2-6.2-7.9c-1.9-2.7-3.7-5.6-5.8-8.2l0.2,0c-1.6,2.3-2.9,4.8-4.9,6.9l-1.5,1.5c-0.5,0.5-0.9,1.1-1.5,1.5
				c-0.5,0.5-1.1,0.9-1.5,1.4c-0.5,0.5-0.2,1.1,0.1,1.8c2.2,5.2,5.1,10,8.8,14.3c1.8,2.1,3.8,4.2,5.9,6c1.1,0.9,2.1,1.8,3.3,2.7
				c0.6,0.4,1.1,0.9,1.7,1.2c0.3,0.1,0.6,0,1-0.1l1-0.3C266.9,240.5,271.5,237.2,276.3,234.3z"/>
		</g>
		<g>
			<path class="st21" d="M276.2,234.3c5.2,3.1,10.1,6.8,16,8.5c0.8,0.2,0.9,0,1.6-0.5c0.6-0.4,1.1-0.8,1.7-1.3
				c2.2-1.7,4.2-3.5,6.1-5.5c4.2-4.4,7.6-9.4,10.2-14.8c0.4-0.8,0.8-1.7,1.1-2.5c0.1-0.3,0.3-0.7,0.3-1c-0.1-0.7-1.8-1.9-2.3-2.4
				c-1-1-1.9-2-2.8-3c-1.8-2-3-4.4-4.5-6.5c-2.9,3.9-5.4,8.1-8.4,11.9C289.9,223.7,283.5,230.3,276.2,234.3z"/>
			<path class="st22" d="M276.2,234.3c4.8,2.9,9.4,6.2,14.8,8l1,0.3c0.3,0.1,0.7,0.2,1,0.1c0.6-0.3,1.1-0.8,1.7-1.2
				c1.1-0.8,2.2-1.7,3.3-2.7c2.1-1.9,4.1-3.9,5.9-6c3.6-4.3,6.6-9.1,8.8-14.3c0.3-0.6,0.7-1.3,0.1-1.8c-0.4-0.5-1-0.9-1.5-1.4
				c-0.6-0.5-1-1-1.5-1.5l-1.5-1.5c-2-2.1-3.3-4.6-4.9-6.9l0.2,0c-2,2.7-3.8,5.5-5.8,8.2c-1.9,2.8-4,5.4-6.2,7.9
				c-2.2,2.5-4.6,4.9-7.1,7.1C281.9,230.8,279.1,232.7,276.2,234.3z M276.2,234.3c2.9-1.6,5.6-3.6,8.2-5.8c2.5-2.2,4.9-4.6,7.1-7.1
				c2.2-2.5,4.3-5.2,6.2-7.9c1.9-2.8,3.7-5.6,5.7-8.3c0-0.1,0.1-0.1,0.2,0c0,0,0,0,0,0c1.6,2.3,2.9,4.8,4.9,6.9l1.5,1.5
				c0.5,0.5,0.9,1.1,1.5,1.5c0.5,0.5,1.1,0.9,1.6,1.4c0.1,0.1,0.2,0.3,0.3,0.5c0.1,0.2,0,0.4,0,0.6c-0.1,0.4-0.3,0.7-0.4,1
				c-2.2,5.2-5.2,10-8.9,14.3c-1.8,2.2-3.8,4.2-5.9,6c-1.1,0.9-2.1,1.8-3.3,2.7c-0.6,0.4-1.1,0.9-1.7,1.2c-0.4,0.2-0.8,0-1.1-0.1
				l-1-0.3c-2.7-0.9-5.2-2.2-7.6-3.7C280.9,237.4,278.6,235.8,276.2,234.3z"/>
		</g>
		<g>
			<ellipse class="st18" cx="276.7" cy="263.1" rx="3.2" ry="3.1"/>
			<path class="st23" d="M279.9,263.1c0.1,1.7-1.5,3.2-3.2,3.2c-0.8,0-1.7-0.3-2.3-0.9c-0.6-0.6-1-1.4-1-2.3c0-0.9,0.4-1.7,1-2.3
				c0.6-0.6,1.5-0.9,2.3-0.9C278.4,260,280,261.4,279.9,263.1z M279.9,263.1c0-0.8-0.4-1.6-1-2.2c-0.6-0.6-1.4-0.8-2.2-0.8
				c-1.6,0-3.1,1.4-3,3c0,1.6,1.4,3,3,3c0.8,0,1.6-0.3,2.2-0.8C279.5,264.8,279.9,263.9,279.9,263.1z"/>
		</g>
		<g>
			<ellipse class="st18" cx="276.8" cy="282" rx="3.2" ry="3.1"/>
			<path class="st23" d="M280,282c0.1,1.7-1.5,3.2-3.2,3.2c-0.8,0-1.7-0.3-2.3-0.9c-0.6-0.6-1-1.4-1-2.3c0-0.9,0.4-1.7,1-2.3
				c0.6-0.6,1.5-0.9,2.3-0.9C278.5,278.8,280,280.3,280,282z M280,282c0-0.8-0.4-1.6-1-2.2c-0.6-0.6-1.4-0.8-2.2-0.8
				c-1.6,0-3.1,1.4-3,3c0,1.6,1.4,3,3,3c0.8,0,1.6-0.3,2.2-0.8C279.6,283.6,280,282.8,280,282z"/>
		</g>
		<g>
			<ellipse class="st18" cx="276.5" cy="242.5" rx="3.2" ry="3.1"/>
			<path class="st23" d="M279.4,243.9c-0.7,1.5-2.7,2.2-4.3,1.6c-0.8-0.3-1.4-1-1.8-1.8c-0.3-0.8-0.3-1.7,0.1-2.5
				c0.4-0.8,1.1-1.4,1.9-1.6c0.8-0.3,1.7-0.2,2.5,0.2c0.8,0.4,1.4,1,1.7,1.8C279.8,242.2,279.7,243.1,279.4,243.9z M279.4,243.9
				c0.4-0.7,0.4-1.6,0.1-2.4c-0.3-0.8-0.9-1.4-1.7-1.7c-1.5-0.6-3.4,0-4,1.5c-0.4,0.7-0.4,1.5-0.1,2.3c0.3,0.7,0.8,1.4,1.6,1.7
				c0.7,0.3,1.6,0.4,2.4,0.2C278.3,245.2,279,244.6,279.4,243.9z"/>
		</g>
		<path class="st18" d="M283.6,288.6l-3.4,0.1l-3.4,0.1c-2.3,0-4.5,0.1-6.8,0c-0.1,0-0.1,0-0.1-0.1l0-11l0-11l0-11c0-3.7,0-7.3,0-11
			l0,0c-0.1-1.9,0.2-3.9,1.4-5.4c0.2-0.2,0.3-0.4,0.5-0.5l0.5-0.5c0.4-0.2,0.8-0.5,1.3-0.7c0.9-0.4,1.9-0.5,2.8-0.5
			c0.5,0,1,0,1.4,0.1l0.7,0.1l0.4,0.1c0.1,0,0.2,0.1,0.3,0.1c0.9,0.3,1.7,0.9,2.3,1.6c0.6,0.8,1,1.7,1.2,2.6
			c0.2,0.9,0.3,1.9,0.2,2.9l0,0l0.2,11.1l0.2,11.1L283.6,288.6z M283.6,288.5l-0.5-22.1l-0.2-11l-0.2-11l0,0l0,0
			c0.2-1.8-0.2-3.8-1.3-5.2c-0.6-0.7-1.3-1.3-2.2-1.6c-0.1,0-0.2-0.1-0.3-0.1l-0.3-0.1l-0.7-0.1c-0.5,0-0.9-0.1-1.4-0.1
			c-0.9,0-1.9,0.1-2.7,0.5c-0.4,0.1-0.8,0.4-1.2,0.6l-0.5,0.5c-0.2,0.1-0.3,0.3-0.5,0.5c-1.1,1.5-1.5,3.4-1.4,5.3l0,0l0,0
			c0,3.7,0,7.3,0,11l0,11l0,11l0,11l-0.1-0.1c2.2,0.1,4.5,0.1,6.8,0.1l3.4,0L283.6,288.5z"/>
	</g>
	<g>
		<path class="st24" d="M228.2,242.2c0.5,3.4,0.6,6.8,0.5,10.2c-0.1,3.4-0.4,6.8-1,10.1c0.2-3.4,0.4-6.8,0.5-10.1
			C228.4,248.9,228.3,245.6,228.2,242.2z"/>
	</g>
	<g>
		<path class="st24" d="M322.3,247.7c0.1,2.7,0.2,5.4,0.4,8.1c0.2,2.7,0.5,5.4,0.8,8c-0.7-2.6-1.1-5.3-1.3-8
			C322,253.1,322,250.4,322.3,247.7z"/>
	</g>
</g>
</svg>
