<svg viewBox="0 0 680.31 878.74" xmlns="http://www.w3.org/2000/svg"><path d="m0 0h680.31v878.74h-680.31z" fill="none"/><path d="m302.31 247.54c-5.16 17.13-16.71 33.48-24.69 49.63-16.16 32.69-32.69 64.91-49.12 97.44q-23.38 46.31-46.8 92.68c-6 11.91-11.46 24.15-17.15 36.23-2.1 4.45-11.39 17.06-10.87 21.35 1.12 9.37 26.46 4.34 36.32 5.32 24.31 2.43 50.19 4 74 8.23-2.25 8.61-10.12 18.41-14.73 26.72-12.09 21.77-24.42 42.81-38 63.68-15.72 24.17-30.57 48.85-46.45 72.92-7.45 11.3-17.57 22.57-24.6 40.35 14.74-10.85 31.86-18.72 48.71-27.72 43.18-23.08 80.71-52.08 118.65-82.9 42.64-34.62 83.18-70.66 123.55-107.85 11.78-10.85 28-22 36.58-35-18.45.76-37.1-6.06-55.63-8.73-21.19-3.06-46.67 1.39-66.81-6.33 15.95-9.51 25.37-26.95 38.05-40 20.18-20.71 37.42-44 57.3-65 22.38-23.62 42.38-49.25 64.71-72.82 13.44-14.15 23.84-22.16 35.57-37.59-38.71-5.55-77.73-14.67-116.72-19.16-29.8-3.42-59.32-9.1-89-12.94-10.2-1.32-22.94-3.76-32.83 1.49" fill="#db3031"/><path d="m152.58 547.28c33.73-60.35 70.94-119.81 112.51-175.28 17.54-23.4 31.12-49 47.74-72.86 10.27-14.76 29-34.25 33.58-51.89-14.31-4.1-38.58-8.25-50.16-11.25 0 0-5.89 15.93-10.33 23.68-12.05 21.08-22.55 41.93-32.83 64-23.92 51.32-51.3 101.22-75.68 152.25a359.39 359.39 0 0 0 -24.83 71.35" fill="#bee3ed"/><path d="m140.2 760.35c10.65-19 27.51-35.64 40.39-53.37 15.12-20.8 31.12-40.8 45.89-61.82 13.15-18.71 27.55-36.76 40-55.89 6.49-10 17.84-29.6 17.84-29.6s-8.17-2.48-14.06-2.18c-4.39.22-13.94-2.94-17.7-1.21 0 0-7.54 13.28-9.37 17.27-6.73 14.67-15 28.3-23.81 41.86-17 26-32.45 52.65-49 78.88-11.87 18.78-18.29 40.46-30.15 66.06" fill="#bee3ed"/><g fill="#2e3264"><path d="m155.27 542.27c1.88-10.6 10.56-21.45 15.38-31.11 10.55-21.11 68.76-117 87.06-144.73 19.1-28.94 67.74-113.59 75-122.85 0 0 15 3.42 22.45 5.08-14 12.75-25.51 29.43-36.87 44.69-17.44 23.44-32 47.67-46.54 73.08-23.9 41.84-56.18 84.28-82.95 124.09-7.33 10.9-13.11 17.89-19.36 29.38a208.35 208.35 0 0 1 -14.18 22.37"/><path d="m140.65 759.08c1.76-.87 3-3.19 4.33-4.87 4.25-5.38 7.59-11.36 11.91-16.66 16.81-20.61 33.28-41.5 48.82-63.12 19.26-26.8 39.9-52.61 59.41-79.24 8.77-12 16.44-25 24.93-37a68.71 68.71 0 0 0 -12.7-.78c0 3.1-3.13 6-4.67 8.48-4.21 6.95-8.37 13.94-12.62 20.87-10.43 17-24.37 33.4-35.19 50.08-18.37 28.26-78.22 109.16-84.22 122.24"/></g></svg>