<svg viewBox="0 0 680.31 878.74" xmlns="http://www.w3.org/2000/svg"><path d="m0 0h680.31v878.74h-680.31z" fill="none"/><path d="m323.86 493.47c-11.69-2.47-25.56 2.08-36.86-2.47-19-7.63-12.22-30.07-7.29-44.14 8 23.31 43.2 27.5 52.1 45.4-4.47.36-9.06.31-7.9 1.22" fill="#e9bc31"/><path d="m349.37 489.74c-12.87-19.07-39.18-24.82-54.64-42-18.36-20.38-13.56-43.41-3.73-66.74 4.17 12.05 19.92 21.69 30.34 28.12 19.13 11.8 37.21 24.86 55.8 37.45 9.1 6.16 20.27 15.33 26.17 24.84 2.71 4.37 3.28 12 3.44 17.11a128.3 128.3 0 0 0 -23.15.52c-11.29 1.45-24.75 4.07-34.19.68" fill="#fcdf54"/><path d="m397.7 449.69c-9.86-12.18-24-19.66-37-28.24-13.94-9.17-27.83-17.65-41.41-27.29-21-14.94-31.82-47.3-16.36-70 3 2.61 4.59 7.16 7.63 10.21 7 7 13.89 13.17 23.06 17.12 15 6.48 30.41 10.82 42.46 22.52 20.5 19.91 20.58 43.22 21.65 75.64" fill="#fcdf54"/><path d="m386.43 374c1.53-4-18.34-18.9-23.83-21.4-11.59-5.28-24.33-7.91-34.48-15.84-16.39-12.81-27.66-41.09-15.58-60.32 2.83 8.58 14 16.65 21.75 21.1 11.41 6.6 26.1 9.19 35.44 19 7 7.32 11.14 19.32 13 29.06 1.67 8.77 0 16.36 3.69 28.38" fill="#fcdf54"/><path d="m375.19 313c.37-8.81-11.22-16.64-18.32-20-10.77-5.14-20.43-6.26-29.64-14.69-11-10.09-14.42-32.33-3.59-44.06q.32-.33 0 0c-3.7 15.13 31.32 24.41 39.89 32.09 5 4.49 18.18 36.13 11.69 46.72" fill="#fcdf54"/><path d="m362.45 256.05c1.25-2.7-12.56-10.62-15.86-12.21-7.4-3.55-13.68-7.18-17-15-6.52-15.35 1.22-28.8 7.59-42.31-2.87 8.6 12.53 18.21 17.31 24 9.88 11.91 9.54 29.74 8 45.55" fill="#fcdf54"/><path d="m352.78 201.32c1.19-3.3-3.72-8.25-5.81-11.24-3.65-5.23-6.27-10-6.83-16.43-.74-8.5 1-17.68 7-24.06 5.71 5.51 5.55 17.76 6.24 25.18.81 8.88 1.15 17.59-.56 26.55" fill="#fcdf54"/><path d="m200.23 449.83c-4.14-8.33-5.22-19.14-10.38-27.94-12-20.43-28.52-37.94-44.33-55.38-21.9-24.16-50.84-47.44-81.64-58.94-20-7.47-25 .6-30.93 21.53-14.16 49.91-15.86 100.4 3 149.12 7.22 18.68 17.71 33.31 31.2 47.9 6.88 7.44 13.07 17.12 20.64 23.51 40.35-21.55 92.17-51 112.47-99.8" fill="#f9f6f6"/><path d="m110.45 515.78c17-8.63 32.88-15.3 46.22-29.73 9.9-10.72 20.12-17.83 11.35-32.46-11.18-18.68-33.08-33.84-52.86-42.28-6.58-2.81-17.47-7.73-23.54-1.32-6.27 6.62-5.66 22.59-5.6 30.93.2 25.93 8 52.67 24.43 74.86" fill="#f7c1c0"/><path d="m474.24 459c4.14-8.32 5.22-19.14 10.38-27.94 12-20.43 28.52-37.94 44.33-55.38 21.9-24.16 50.85-47.44 81.64-58.94 20-7.47 25 .6 30.93 21.53 14.16 49.92 15.86 100.41-3 149.13-7.21 18.67-17.71 33.3-31.2 47.89-6.88 7.44-13.07 17.12-20.64 23.51-40.35-21.55-92.17-51-112.47-99.8" fill="#f9f6f6"/><path d="m564 524.9c-17-8.63-32.88-15.29-46.22-29.73-9.9-10.71-20.12-17.83-11.35-32.46 11.18-18.68 33.08-33.84 52.86-42.28 6.58-2.81 17.47-7.73 23.54-1.32 6.27 6.63 5.66 22.59 5.6 30.93-.2 25.93-8 52.67-24.43 74.86" fill="#f7c1c0"/><path d="m138.2 485.23c.51-.84-.61-8.14-.4-11.07.47-6.84 3.07-12.28 8.37-16.21 8.94-6.62 6.77-18.13 12.72-27.19 6.21-9.44 22.73-16.78 33.75-17.68 6.46-.53 12.06.69 16.35 5.62 1.63 1.89 2.81 4.41 5 5.4s6.48-.14 8.31-.88c6.19-2.51 10.67-6.15 17.74-6.33 13.9-.34 37.37 7.54 41.49 22.51 1.61 5.87-2 9.67 1.61 14.17 3.95 4.87 10.09 7.23 13.62 12.61s4.59 13.51 3.6 20a27 27 0 0 1 -8.13 15.68c-3 3-4.29 4.86-5.21 9.08-2.22 10.25-4 14.21-13.79 17.8.13 11.12-10.59 24.36-19.84 29.45-11.67 6.43-20.92 2.22-31.94-1.75-1.72 9.63-19 14.74-26.95 15.73-8.33 1-18.81-1.11-25.75-6.11-5.22-3.76-5.88-8.17-8.16-13.54-4.7-11.1-20.51-11.52-27.27-22.4-9.11-14.66-4.86-39.15 4.85-44.91" fill="#f8ebe6"/><g fill="#e9cbc0"><path d="m203.53 520.8c-.48 1.23-1.47.77-2.84.64-6.52-.6-10.27-6-12.63-11.58a25.16 25.16 0 0 1 1.21-21.44c1-1.95 2.95-6.35 5.23-6.67.37 1.63-.27 4.1-.39 5.89a60.25 60.25 0 0 0 1.2 16c1.41 7.06 3.59 12.64 8.22 17.2"/><path d="m203 507.78c-4.85-3.95-1.48-16.94 2.08-20.87 4.22-4.65 9.57-1.66 13.36 1.94a17.5 17.5 0 0 1 4.71 17.62c-1.72 5.63-8.74 11.61-14.2 7 5.07-2.72 12.36-14 7.09-19.54-6-6.28-12.91 6.57-13 13.89"/><path d="m206.36 473.23c13.57-.38 20 14.68 23 26.39 7.14-3.75 1.9-18.24-1.79-22.66-5.11-6.12-12.36-5.18-21.18-3.73"/><path d="m216 458.79c8.95-.16 21.44 1.44 25.49 10.77 3 6.87-1.06 15.12-1.18 22.29-4.73-6.08-6.39-11.32-8.3-18.58-1.82-6.93-7.82-9.57-16-14.48"/><path d="m243.46 494.75c-.23-.27-.23-.45-.53-.55 1.87 7.91-2.16 15.57-9.1 19.33 4 2.07 9.91 1.35 12.85-2.42 4.64-6 1.58-11.88-3.22-16.36"/><path d="m191.36 528.73c1.41-1.61 4.92.7 6.69 1.1a24.19 24.19 0 0 0 13.95-1.07c6.23-2.32 10.57-6.27 14.71-11-2.33 5.92-1.78 12.66-7.49 17-8.1 6.15-20.28-.38-27.86-6"/><path d="m188.81 531.85c-9.44-3.82-12.17-12.54-11.46-21.9.34-4.43 1-11.19-1.78-14.89-.38 1.26-1.15 1.81-2 2.82-3.18 3.76-5.7 7-6.27 12.13-1.19 10.79 6.39 24.42 21.51 21.84"/><path d="m181.73 495.89c-.16-10.3 3.92-23.53 14.81-27.15 5.68-1.89 13.16-.13 19.06.26a16.51 16.51 0 0 0 -19.2-8.55c-12.52 3.5-17.82 22.51-14.67 35.44"/><path d="m162.77 502.81c.62-.33.56-.86.81-2.1 1.09-5.5-1.61-10.91.13-16.66 3.09-10.2 10.16-12.33 18.9-15.58-2.71-5.18-15.27 0-18.29 2.33-5.21 4-6.85 9.79-6.26 16.16.68 7.43 2.25 9 4.71 15.85"/><path d="m157.94 530.71c-2.46-3.52-7.51-7.76-9.62-12.19-3.46-7.29-2.77-17.19 1.13-24.17 1.46-2.62 3.18-4.86 4-7.8.38-1.4.4-2.9 1.08-4.22-1.29.82-2.09 2.56-3.17 3.7-3.59 3.78-6.79 6.3-9 11.29-3.12 6.95-3.88 13.48-1.35 20.78 2.73 7.91 8.91 15.43 17 12.61"/><path d="m161.34 467.42c2.39-4.55 3.89-10.16 7.24-14.66 5.39-7.25 12.09-14.3 21-17.05 7.32-2.26 13.58.8 20.67.3-6-8-17.4-10.6-26.33-6.87-16.75 7-24.14 21.65-22.56 38.28"/><path d="m167.85 533.83c-.35 1.54 4.54 6.23 5.57 7.35a22.09 22.09 0 0 0 14.82 7.55c7.93.9 22.11-.64 26.66-8.32-2.51 6.64-4.1 11.8-11 15.85a25.7 25.7 0 0 1 -13.53 3c-13.62-.38-20.91-10.65-22.55-25.48"/><path d="m247.57 542.92c7-4.46 11.95-12.73 14.88-20.37-.55 9.18 1.53 17.29-5.68 24.65-5.69 5.81-12.62 6.74-20.28 5.09-3.17-.68-7.71-1.23-10.47-3-1.1-.7-4.37-4.52-3.49-6 1-1.69 5.67 1.31 7.1 1.74a21.55 21.55 0 0 0 17.94-2.1"/><path d="m230.15 530.43c-.13.06 1.74-.27 2.11-.32 5.63-.83 9.6-2.24 13.82-6.45 5.54-5.53 11.25-14.33 10.39-21.86 1.44 4.82 4.85 12.49 3.27 17.6-1.16 3.74-5.67 9.48-9.16 11.33-5.33 2.84-12 0-20.43-.3"/><path d="m250.54 493.34c-.06.26-.5 0-.25.52 2.28 0 3.56-5.07 4-6.72a28.5 28.5 0 0 0 -1.55-17.32c-2.23-5.54-9.61-13.09-7.22-19.78 6.11 3.2 13.88 9.33 16.63 15.79 4.47 10.51-1.75 24.94-11.59 27.51"/><path d="m225.9 433.87c.38.42 5.08.34 6.45.59 6.37 1.17 13.2 2.89 18.87 6.07 8.78 4.94 13 13.1 16.19 22.25 0-3.74 1.53-8.18 1.85-12.14.54-6.62-2.35-12.06-7.22-16.43-8.16-7.3-25.33-7.43-36.14-.34"/><path d="m266.09 464.29c4.74-2 12.26 10.77 14 14.45a65.12 65.12 0 0 1 5.95 23.36c-2.33-7.66 5.39-14.51 3.24-22.71-1.3-4.95-3.71-11-8-14.05-2.08-1.49-11.06-4.8-15.26-1"/><path d="m267.72 482.17c-.13-1 1.25 2.3 1.44 2.74a49.57 49.57 0 0 1 3.57 13.95c.74 7.33-4.29 13.18-8.43 18.79 8.21-1.1 17.88-3 17.57-13.18-.14-4.47-1.08-9.3-4.06-12.78-3.56-4.15-8.46-6.52-10.09-9.52"/><path d="m194 458.7c2.41-2.21 4-5.08 6.62-7.11a17.48 17.48 0 0 1 12.08-3.25c4.48.35 8.51 2.53 12.58 4.27 2.19.95 5.21 2.84 7.64 2.69-2.16-5.71-5.9-15.87-13.29-16-4.44-.07-10.31 1.73-14.22 3.75-2.43 1.26-5.17 2.56-7 4.62a17.44 17.44 0 0 0 -4.37 11"/></g><path d="m549.89 477.15c-.49-.81.59-7.85.39-10.68-.46-6.59-3-11.83-8.08-15.63-8.62-6.38-6.52-17.49-12.26-26.22-6-9.11-21.93-16.18-32.55-17.06-6.23-.51-11.63.67-15.77 5.43-1.58 1.82-2.71 4.25-4.85 5.2s-6.25-.13-8-.84c-6-2.43-10.29-5.94-17.11-6.11-13.4-.33-36.05 7.27-40 21.71-1.55 5.66 2 9.32-1.55 13.67-3.81 4.7-9.73 7-13.14 12.16s-4.42 13-3.47 19.31a26 26 0 0 0 7.84 15.12c2.91 2.87 4.14 4.69 5 8.76 2.15 9.88 3.84 13.71 13.31 17.17-.13 10.72 10.21 23.49 19.13 28.41 11.26 6.19 20.18 2.13 30.81-1.69 1.66 9.28 18.31 14.21 26 15.16 8 1 18.14-1.06 24.84-5.89 5-3.62 5.67-7.88 7.87-13.06 4.54-10.7 19.78-11.11 26.3-21.6 8.79-14.14 4.69-37.76-4.68-43.32" fill="#f8ebe6"/><path d="m486.88 511.46c.47 1.19 1.42.74 2.74.62 6.29-.58 9.91-5.81 12.19-11.18a24.29 24.29 0 0 0 -1.17-20.67c-1-1.88-2.85-6.13-5.05-6.43-.35 1.57.27 3.95.38 5.68a58.09 58.09 0 0 1 -1.16 15.39c-1.36 6.82-3.46 12.19-7.93 16.59" fill="#e9cbc0"/><path d="m487.43 498.9c4.67-3.81 1.42-16.34-2-20.12-4.07-4.5-9.23-1.61-12.89 1.86a16.88 16.88 0 0 0 -4.54 17c1.66 5.43 8.43 11.19 13.7 6.72-4.9-2.63-11.93-13.49-6.84-18.85 5.75-6.06 12.45 6.33 12.58 13.39" fill="#e9cbc0"/><path d="m484.15 465.58c-13.09-.37-19.32 14.16-22.15 25.45-6.89-3.62-1.83-17.58 1.73-21.85 4.93-5.9 11.92-5 20.42-3.6" fill="#e9cbc0"/><path d="m474.86 451.65c-8.62-.15-20.68 1.39-24.58 10.39-2.88 6.63 1 14.58 1.14 21.5 4.56-5.87 6.16-10.92 8-17.93 1.76-6.67 7.55-9.22 15.44-14" fill="#e9cbc0"/><path d="m448.37 486.34c.22-.26.23-.44.51-.54-1.8 7.63 2.08 15 8.77 18.65-3.88 2-9.55 1.3-12.38-2.34-4.49-5.77-1.53-11.46 3.1-15.77" fill="#e9cbc0"/><path d="m498.62 519.11c-1.36-1.56-4.74.67-6.46 1.06a23.43 23.43 0 0 1 -13.45-1c-6-2.24-10.19-6-14.18-10.64 2.24 5.71 1.72 12.21 7.22 16.39 7.81 5.93 19.56-.37 26.87-5.78" fill="#e9cbc0"/><path d="m501.08 522.12c9.1-3.69 11.74-12.1 11.05-21.12-.33-4.28-.93-10.8 1.72-14.37a7.34 7.34 0 0 0 1.93 2.72c3.07 3.63 5.49 6.75 6 11.71 1.16 10.4-6.16 23.55-20.74 21.06" fill="#e9cbc0"/><path d="m507.91 487.43c.15-9.93-3.78-22.69-14.29-26.18-5.47-1.82-12.69-.13-18.38.25a15.92 15.92 0 0 1 18.52-8.24c12.07 3.37 17.18 21.7 14.15 34.17" fill="#e9cbc0"/><path d="m526.2 494.11c-.6-.32-.54-.83-.78-2-1.06-5.31 1.55-10.53-.13-16.07-3-9.84-9.8-11.89-18.23-15 2.61-5 14.72 0 17.64 2.25 5 3.87 6.6 9.44 6 15.58-.65 7.17-2.17 8.71-4.54 15.29" fill="#e9cbc0"/><path d="m530.85 521c2.38-3.4 7.25-7.48 9.28-11.75 3.34-7 2.67-16.58-1.09-23.32-1.41-2.53-3.06-4.68-3.83-7.52a19.45 19.45 0 0 0 -1-4.07c1.24.79 2 2.46 3.06 3.57 3.47 3.64 6.55 6.08 8.71 10.89 3 6.69 3.75 13 1.31 20-2.63 7.62-8.6 14.88-16.4 12.16" fill="#e9cbc0"/><path d="m527.57 460c-2.3-4.38-3.75-9.79-7-14.14-5.2-7-11.66-13.79-20.23-16.44-7.06-2.18-13.1.78-19.94.29 5.83-7.68 16.78-10.23 25.39-6.62 16.21 6.72 23.31 20.85 21.78 36.91" fill="#e9cbc0"/><path d="m521.29 524c.34 1.48-4.37 6-5.37 7.08a21.32 21.32 0 0 1 -14.3 7.29c-7.64.87-21.32-.62-25.71-8 2.43 6.4 4 11.38 10.59 15.28a24.75 24.75 0 0 0 13 2.94c13.14-.37 20.18-10.27 21.75-24.57" fill="#e9cbc0"/><path d="m444.4 532.8c-6.76-4.31-11.52-12.28-14.35-19.65.53 8.85-1.47 16.67 5.48 23.77 5.49 5.6 12.17 6.5 19.56 4.92 3.06-.66 7.43-1.19 10.1-2.88 1.06-.66 4.22-4.35 3.37-5.81-.95-1.64-5.47 1.25-6.86 1.67a20.83 20.83 0 0 1 -17.3-2" fill="#e9cbc0"/><path d="m461.21 520.75c.12.06-1.68-.26-2-.31-5.43-.8-9.27-2.16-13.34-6.22-5.34-5.33-10.85-13.82-10-21.09-1.38 4.65-4.68 12.06-3.15 17 1.11 3.61 5.47 9.14 8.83 10.93 5.14 2.73 11.59 0 19.71-.29" fill="#e9cbc0"/><path d="m441.54 485c.06.26.48 0 .25.51-2.21 0-3.44-4.89-3.85-6.49a27.49 27.49 0 0 1 1.5-16.7c2.15-5.34 9.26-12.62 7-19.08-5.89 3.08-13.38 9-16 15.24-4.31 10.13 1.69 24.05 11.18 26.52" fill="#e9cbc0"/><path d="m465.3 427.62c-.36.4-4.89.32-6.21.56-6.15 1.13-12.74 2.79-18.2 5.86-8.47 4.77-12.51 12.63-15.62 21.46 0-3.6-1.48-7.89-1.79-11.71-.51-6.38 2.27-11.63 7-15.84 7.87-7.05 24.43-7.17 34.85-.33" fill="#e9cbc0"/><path d="m426.54 457c-4.54-2-11.82 10.35-13.54 13.89a63 63 0 0 0 -5.74 22.53c2.25-7.38-5.2-14-3.12-21.9 1.25-4.77 3.58-10.6 7.68-13.55 2-1.44 10.66-4.63 14.71-1" fill="#e9cbc0"/><path d="m425 474.2c.12-1-1.21 2.22-1.39 2.64a48 48 0 0 0 -3.44 13.46c-.71 7.07 4.14 12.71 8.13 18.13-7.92-1.07-17.24-2.94-16.95-12.71.13-4.32 1-9 3.92-12.33 3.44-4 8.16-6.29 9.73-9.19" fill="#e9cbc0"/><path d="m496.12 451.57c-2.32-2.14-3.83-4.9-6.38-6.86a16.85 16.85 0 0 0 -11.65-3.14c-4.33.34-8.22 2.44-12.14 4.13-2.11.9-5 2.73-7.37 2.59 2.08-5.52 5.7-15.31 12.82-15.43 4.29-.07 9.94 1.67 13.72 3.62 2.34 1.21 5 2.47 6.78 4.45a16.83 16.83 0 0 1 4.22 10.64" fill="#e9cbc0"/><path d="m358.12 443.09c19.3-9.49 48.8-8.58 64.69 8.2 13.05 13.8 13.08 31.57 8.5 48.83 2.89.78 4.95 4.16 7 6.23 6.2 6.24 10.24 12.62 12.59 21.2 4.83 17.65 7.27 35.72-5.11 50.81-4.12 5-10.15 9.59-16.52 11.2-2.23.56-6.31 0-7.83 1.82-.34.42-.24 2.85-.41 3.44-1.06 3.62-3.63 6.4-6.09 9.15a60.9 60.9 0 0 1 -21.18 15.8c-8.6 3.72-20.95 7.24-30.38 5.52-6.57-1.2-10.87-5.77-15.7-9.88-19.67 13.3-48.15 15.71-65.59-3.7-6.72-7.47-9.66-15-10.07-25-.12-2.68.92-6.17.39-8.69-.56-2.7.08-1.45-1.86-2.76-4.73-3.18-10.18-4.69-14.75-8.57-6.17-5.22-10.66-11.17-13.15-18.91-5.19-16.13-3.67-42.26 8.68-54.9a32.48 32.48 0 0 1 12.07-8c3.11-1.29 2.2-.44 3.6-2.86 3.71-6.41 5-13.83 9.29-20.23 5.08-7.57 10.23-14.5 17.91-19.62a56 56 0 0 1 43.61-8.43c6.28 1.44 14.24 4.12 20.3 9.32" fill="#fdf4f3"/><path d="m366.88 568.24c.63 1.6 1.9 1 3.68.83 8.46-.78 13.33-7.81 16.39-15a32.6 32.6 0 0 0 -1.58-27.8c-1.33-2.53-3.82-8.24-6.78-8.65-.47 2.11.36 5.31.51 7.64a79 79 0 0 1 -1.55 20.69c-1.84 9.17-4.67 16.4-10.67 22.32" fill="#f1dcd3"/><path d="m367.61 551.35c6.29-5.13 1.92-22-2.69-27.06-5.48-6-12.42-2.17-17.34 2.5a22.74 22.74 0 0 0 -6.11 22.86c2.23 7.31 11.34 15.05 18.42 9-6.58-3.53-16-18.13-9.19-25.34 7.73-8.15 16.74 8.51 16.91 18" fill="#f1dcd3"/><path d="m363.2 506.54c-17.59-.5-26 19-29.78 34.22-9.27-4.86-2.46-23.64 2.33-29.38 6.62-7.94 16-6.73 27.45-4.84" fill="#f1dcd3"/><path d="m350.72 487.81c-11.6-.21-27.81 1.86-33.07 14-3.86 8.91 1.39 19.61 1.54 28.91 6.13-7.89 8.28-14.69 10.76-24.11 2.36-9 10.15-12.4 20.77-18.77" fill="#f1dcd3"/><path d="m315.09 534.45c.3-.35.31-.59.68-.72-2.41 10.27 2.81 20.2 11.8 25.08-5.21 2.68-12.85 1.75-16.65-3.14-6-7.76-2.06-15.42 4.17-21.22" fill="#f1dcd3"/><path d="m382.67 578.52c-1.83-2.09-6.39.91-8.69 1.43a31.5 31.5 0 0 1 -18.09-1.38c-8.08-3-13.7-8.14-19.07-14.32 3 7.68 2.31 16.43 9.71 22 10.5 8 26.31-.49 36.14-7.77" fill="#f1dcd3"/><path d="m386 582.56c12.24-4.95 15.79-16.26 14.86-28.39-.44-5.75-1.24-14.52 2.31-19.32.5 1.63 1.49 2.35 2.6 3.66 4.13 4.88 7.39 9.07 8.13 15.74 1.55 14-8.28 31.67-27.9 28.31" fill="#f1dcd3"/><path d="m395.16 535.92c.2-13.35-5.08-30.51-19.22-35.21-7.36-2.44-17.06-.17-24.71.35a21.38 21.38 0 0 1 24.89-11.06c16.24 4.54 23.12 29.18 19 45.95" fill="#f1dcd3"/><path d="m415.08 536.26c-.8-.43-.72-1.11-1-2.71-1.42-7.14 2.09-14.16-.17-21.61-4-13.23-13.18-16-24.52-20.22 3.52-6.71 19.8 0 23.72 3 6.76 5.21 8.88 12.7 8.13 21-.88 9.63-2.92 11.7-6.12 20.55" fill="#f1dcd3"/><path d="m419.22 578c3.19-4.57 9.74-10.06 12.48-15.81 4.49-9.45 3.59-22.29-1.46-31.35-1.9-3.4-4.12-6.3-5.15-10.12-.49-1.82-.53-3.76-1.41-5.47 1.68 1.06 2.72 3.32 4.12 4.8 4.66 4.9 8.81 8.18 11.72 14.64 4 9 5 17.48 1.76 27-3.55 10.25-11.57 20-22.06 16.35" fill="#f1dcd3"/><path d="m421.6 499c-3.1-5.9-5.05-13.17-9.39-19-7-9.41-15.68-18.55-27.21-22.11-9.49-2.94-17.62 1-26.81.38 7.83-10.33 22.56-13.75 34.15-8.9 21.72 9.08 31.31 28.08 29.26 49.64" fill="#f1dcd3"/><path d="m409.81 581.88c.46 2-5.88 8.08-7.22 9.53a28.65 28.65 0 0 1 -19.22 9.8c-10.28 1.16-28.68-.83-34.58-10.79 3.26 8.6 5.32 15.3 14.24 20.55 5.18 3 11.62 4.12 17.54 4 17.66-.5 27.12-13.82 29.24-33" fill="#f1dcd3"/><path d="m309.75 596.93c-9.09-5.79-15.49-16.51-19.29-26.42.71 11.9-2 22.42 7.37 32 7.37 7.53 16.36 8.74 26.3 6.6 4.11-.88 10-1.59 13.58-3.86 1.42-.89 5.67-5.85 4.53-7.82-1.28-2.2-7.36 1.69-9.22 2.25-7.81 2.36-16.3 1.72-23.27-2.72" fill="#f1dcd3"/><path d="m332.35 580.73c.17.07-2.25-.35-2.73-.42-7.3-1.07-12.45-2.91-17.93-8.37-7.18-7.17-14.59-18.58-13.47-28.35-1.87 6.25-6.3 16.21-4.25 22.83 1.51 4.85 7.37 12.29 11.89 14.7 6.91 3.68 15.58 0 26.49-.39" fill="#f1dcd3"/><path d="m305.91 532.62c.08.34.65 0 .33.67-3 0-4.63-6.57-5.17-8.71-1.86-7.4-.81-15.46 2-22.46 2.89-7.18 12.46-17 9.36-25.66-7.92 4.14-18 12.1-21.56 20.49-5.8 13.62 2.26 32.34 15 35.67" fill="#f1dcd3"/><path d="m337.86 455.49c-.49.55-6.58.43-8.36.76-8.26 1.52-17.12 3.75-24.47 7.88-11.39 6.41-16.83 17-21 28.85 0-4.84-2-10.61-2.4-15.75-.69-8.57 3.05-15.63 9.37-21.29 10.59-9.48 32.85-9.65 46.87-.45" fill="#f1dcd3"/><path d="m285.74 495c-6.14-2.59-15.9 14-18.2 18.73a84.7 84.7 0 0 0 -7.72 30.3c3-9.93-7-18.82-4.19-29.45 1.68-6.42 4.8-14.26 10.32-18.22 2.7-1.94 14.34-6.24 19.79-1.36" fill="#f1dcd3"/><path d="m281.29 524.13c.18-1.35-1.62 3-1.86 3.55a64.14 64.14 0 0 0 -4.62 18.09c-1 9.51 5.56 17.09 10.93 24.38-10.65-1.44-23.19-3.95-22.79-17.09.17-5.8 1.39-12.07 5.26-16.58 4.63-5.39 11-8.46 13.08-12.35" fill="#f1dcd3"/><path d="m379.31 487.7c-3.13-2.87-5.15-6.6-8.59-9.23a22.58 22.58 0 0 0 -15.67-4.21c-5.81.45-11 3.28-16.31 5.54-2.85 1.22-6.76 3.68-9.92 3.49 2.8-7.42 7.66-20.59 17.24-20.75 5.77-.09 13.37 2.25 18.45 4.87 3.15 1.63 6.7 3.32 9.12 6 3.75 4.12 5.81 10.29 5.68 14.31" fill="#f1dcd3"/><path d="m282.3 730.7c-5.82 1.55-11.36 4.84-17.27 6.57a108.63 108.63 0 0 1 -31.26 4.09c-20.21-.18-39.24-9-53.54-23.21-11-11-16.45-33.55-34.06-36.43-9.57-1.56-18.71 2.92-28.12 3-7.25.08-14.71-2.57-20.75-6.25 5.1 7.69 15.78 14.83 24.15 18.59a48 48 0 0 0 17.39 4.27c1.94.11 6.8-1 8.53 0 3.83 2.28 1.51 5.91-1.55 8.23-10 7.55-23 3.68-34 4 8 6.62 19.52 11.57 29.74 13.41 9.36 1.69 17.57-1.75 26-2.64-5.16 14.52-27.68 18.52-40.84 18.6 8.16 1 16.12 4.21 24.55 4.95 6.45.56 13.47.54 19.66-1.71 3-1.09 6.76-4.58 9.95-4.77 3.89-.22 5.06.73 5.21 5.61.31 10.19-12.86 19.83-20.44 24.66 7.74-2.8 15.68-4.48 22.62-9.62 2.25-1.67 8.3-9.23 11.48-9.41 11.24-.65 3 25.24.48 30.13 4-6.8 9.72-12.41 13.38-19.69 2.23-4.43 1.69-6 5.76-7.38 3.76-1.26 11.51-.24 16-.91 17.6-2.61 31.09-10.31 46.93-24.13" fill="#2c2623"/><path d="m420.15 730.7c5.82 1.55 11.36 4.84 17.27 6.57a108.63 108.63 0 0 0 31.26 4.09c20.21-.18 39.24-9 53.54-23.21 11-11 16.45-33.55 34.06-36.43 9.57-1.56 18.71 2.92 28.13 3 7.25.08 14.71-2.57 20.74-6.25-5.1 7.69-15.78 14.83-24.14 18.59a48.06 48.06 0 0 1 -17.4 4.27c-1.94.11-6.8-1-8.53 0-3.82 2.28-1.51 5.91 1.56 8.23 10 7.55 23 3.68 34 4-8 6.62-19.51 11.57-29.74 13.41-9.36 1.69-17.57-1.75-26-2.64 5.16 14.52 27.69 18.52 40.84 18.6-8.15 1-16.12 4.21-24.55 4.95-6.45.56-13.47.54-19.66-1.71-3-1.09-6.76-4.58-9.95-4.77-3.89-.22-5.06.73-5.21 5.61-.31 10.19 12.86 19.83 20.45 24.66-7.75-2.8-15.69-4.48-22.62-9.62-2.26-1.67-8.31-9.23-11.48-9.41-11.25-.65-3 25.24-.49 30.13-4-6.8-9.72-12.41-13.38-19.69-2.22-4.43-1.69-6-5.75-7.38-3.77-1.26-11.51-.24-16-.91-17.6-2.61-31.1-10.31-46.94-24.13" fill="#2c2623"/><path d="m630.78 639.57c1.86-.41 1.5-4.47 1.66-5.94.38-3.59-.13-7.68.6-11.13 2.07 3.89 5.24 7.24 7.52 11 .54.9 2.49 3.4 2.49 3.4.84.23 5.25-.51 6.81-.88a28.37 28.37 0 0 1 8.4-.92c-1.1 1.44-2.14 2.94-3.14 4.49-1.28 2-2.73 3.89-4 5.9-.43.68-1.64 2.08-1.62 3 .06 2 2.44 4.75 3.39 6.45 1.55 2.79 3.66 5.44 5 8.28-3.85.38-8.95-3.31-12.2-4.84-1.43-.67-3.55-2.17-4-2.08-.69.15-4.73 4.37-6.8 6.08a40.54 40.54 0 0 0 -4.31 4.08c-.46.51-.87 1.09-1.46 1.22-.29-3.63.48-7.53.88-11.14.15-1.4.63-5.36.63-5.36l-6.8-3.75c-2.33-1.28-5.71-2.56-7.31-4.73 2.13-.64 4.7-.78 6.94-1.34 2.54-.65 5.33-1.84 7.29-1.79" fill="#fcdf54"/><path d="m616 593.89c1.34-3.9 1.93-6.46 4.17-10.91 1.13 4.68 1.85 7.18 3.11 11.82a38.72 38.72 0 0 1 10.7 2.84 40.66 40.66 0 0 0 -8.52 4.36c-1.15.84.33 4.83.44 6.19.17 2.25.7 4.57.51 6.84-3.69-1.84-5.22-6.91-8.31-9.47a11.83 11.83 0 0 1 -2.65 2c-2.09 1.34-4.33 3.67-6.59 4.47 0-3.32 4-10.18 3.88-10.52-.26-.69-6.05-5.43-7.54-7.87 2.51-.1 8-.64 10.8.27" fill="#fcdf54"/></svg>