<svg viewBox="0 0 680.31 878.74" xmlns="http://www.w3.org/2000/svg"><path d="m0 0h680.31v878.74h-680.31z" fill="none"/><path d="m517.67 593.16c-1.44-31-8.1-54.44-30.64-76.4-11.65-11.35-22.79-22.16-36.5-31.12-13.9-9.08-31.65-13-47.82-15.74-9.33-1.58-19.19-2.77-29.27-3.53a182.32 182.32 0 0 0 -63.26-.43c-20.39 1.14-39.88 8.3-56.7 18.32h-.09c-13.82 6.08-26.77 13.88-37.17 24a136.73 136.73 0 0 0 -28.15 39c-14.2 27.17-19.29 58.53-15.68 90.64l.17-.18a120.81 120.81 0 0 0 6.19 25.48c.07.2.15.39.22.58 3.52 17 9.12 33.41 17.71 48.07 9.86 16.85 37.52 47.67 59.45 46.51l8.24 1.53a146.51 146.51 0 0 0 22.87 9.4c30.47 9.56 67.45 10.5 100.59 2.73a176 176 0 0 0 34.58-10.73c30.32-13 67-41.61 79.15-73.24 11.12-29 17.54-63.84 16.11-94.85" fill="#f7f0e2"/><g fill="#201b20"><path d="m336.65 690.79a4.88 4.88 0 0 1 -4.87-4.6c-.14-2.5-.25-5-.36-7.48-.12-2.7-.23-5.26-.38-7.79-.19-3.14-.39-6.29-.58-9.45-.9-14.36-1.83-29.18-2.06-43.7 0 0 0-.06 0-.1a14.34 14.34 0 0 1 0-1.7c0-.14 0-.28 0-.42a4.89 4.89 0 0 1 4.85-4.88 4.88 4.88 0 0 1 4.88 4.83c.16 15 1.13 30.41 2.07 45.36.19 3.17.39 6.33.58 9.48.16 2.61.28 5.32.39 7.95.1 2.43.21 4.89.35 7.35a4.88 4.88 0 0 1 -4.59 5.15z"/><path d="m56.71 357.91c-7.71 11.54-1.83 34.42 12.67 38.09 19.09 4.88 36.79-19.5 31.22-36.34-10-30.21-44.14-22.12-43.89-1.79"/><path d="m580.41 360.85c-4.63 14.27 2.17 34.14 16.84 37.08 19.32 3.87 35.21-21.21 29.28-37.93-10.49-29.6-42.47-19.53-46.12.85"/><path d="m360.81 708.55c-9.66 0-16.36-8.47-22.29-16-.72-.9-1.42-1.79-2.11-2.64a44.86 44.86 0 0 1 -8 8.33c-6.12 5-12.58 7.58-18.21 7.4a4.88 4.88 0 0 1 .32-9.76h.22c6 0 17-7.78 20.2-16a4.88 4.88 0 0 1 7.82-1.83 70.88 70.88 0 0 1 7.37 8.43c4.55 5.75 9.7 12.26 14.68 12.26h.36a4.88 4.88 0 0 1 .17 9.75z"/><path d="m377.4 512c-25.78-16.18-78.6-16.2-98.84 8.61-11.18 13.71-9.59 30.67-3.57 47 .57 1.93 1.28 3.86 2 5.75 1.25 3.23 2.13 6.64 3.59 9.79s3 6.56 4.84 9.66c13.38 24.69 34.23 28.13 60.4 24.48 15-2.08 23.67-5.17 33.48-16.9 18.21-21.79 27.12-70.15-1.91-88.38"/></g></svg>