<?xml version="1.0" encoding="utf-8"?>
<!-- Generator: Adobe Illustrator 24.2.0, SVG Export Plug-In . SVG Version: 6.00 Build 0)  -->
<svg version="1.1" id="tigre2" xmlns="http://www.w3.org/2000/svg" xmlns:xlink="http://www.w3.org/1999/xlink" x="0px" y="0px"
	 viewBox="0 0 680.3 878.7" style="enable-background:new 0 0 680.3 878.7;" xml:space="preserve">
<style type="text/css">
	.st0{fill:#78B2A9;}
	.st1{fill:#2E5C5C;}
	.st2{fill:#D1D9AF;}
	.st3{fill:#DC7F30;}
	.st4{fill:#362630;}
	.st5{fill:#F39440;}
	.st6{fill:#FEFEFD;}
	.st7{fill:#42313F;}
	.st8{fill:#F6EEBF;}
	.st9{fill:#BC721B;}
	.st10{fill:#F8D3B7;}
	.st11{fill:#FFFFFF;}
	.st12{fill:none;}
</style>
<g>
	<g>
		<path class="st0" d="M79.5,725.5c9.5-22.3,12.2-47.5,17-71c1.2-5.8,1.8-11.7,1.8-17.7c0-26.9,1-54,1.7-81c0-1.7,0.5-26.8,1.2-26.8
			c-1.1-0.1-1.1-0.3-6.5-3.8c-5.2-3.1-10.6-6.3-31.1-11.1c-3.4-0.8-6.4-1.5-9.1-2.1c-2.1,1.8-4.5,3.3-6.8,4.8
			c-2.9,1.9-5.6,3.7-5.6,3.7c-8.8,6-7.5,4.4-16.1,10c-10,6.4-10.7,5.9-12.9,12.6c-1.3,4.1-2.6,6-3.1,13.1c-1,12.9,0.9,24.2,4.2,41.7
			c0.7,3.7,3.1,14.3,4.1,17.8c3.4,11.5,6.6,14.5,12.6,30.4c9.1,24.2,9.8,18.1,22,43c8.9,18.2,7.4,18.2,11.7,27.6
			c1.2,2.6,3.7,7.3,5.6,10c1.5,2.1,4.4,5.5,4.6,5.7c0,0.5,0.1,1,0.2,1.5C76.9,731.5,78.3,728.5,79.5,725.5z"/>
		<path class="st0" d="M126.1,441.1c0.8-2.5,1.4-5,1.1-7.2c-0.6-5-6.9-9.2-10.4-12.9c-5.8-6-11.7-11.3-18.6-16
			c-7.2-5-11.2-6.8-18.6-10c-12.7-5.4-10.4-3.6-21-6.6c-0.6-0.2-3-0.7-3.7-0.8c-1.1-0.1-1.6-1.6-0.8-2.4c-5.5,2.2-9.8,9.2-16.9,26.2
			c-9.7,23.5-8.4,15.5-19.7,46.4c-3.4,9.5-9.3,27.6-9.9,37.7c-0.2,3.2-0.4,8,1.9,10.9c0.1-0.2,0.3-0.3,0.5-0.4
			c1.4-0.6,0.5-0.3,15.6-1.2c1.6-0.1,7.6-0.7,13.4-0.2c12.6,1.1,26.2,3.6,38.7,7.5c4,1.2,8.1,2.4,11.9,4.1c5,2.2,10.6,8.7,14,3.6
			c3.3-4.8,3.7-15.4,5.2-21.1c2-7.4,4.1-14.7,6.5-22c2.4-7.5,3.9-15.3,5.8-22.9C122.2,450.1,124.7,445.5,126.1,441.1z"/>
		<path class="st0" d="M13.1,508.6c0.2,0.1,0.4,0.1,0.7,0.2c1,0.2,2,0,3-0.3c-0.5,0-1,0.1-1.5,0.1C14.3,508.6,13.6,508.6,13.1,508.6
			z"/>
		<path class="st0" d="M125.7,426.8c0.1,1,0.3,2,0.9,2.7c4.5,4.9,7-2.9,7.9-6.7c3.4-13.9,9.3-27,13.8-40.6c3.2-10.5,4.6-21.3,6-32.1
			c0.7-5.6,1.8-11.2,2.4-16.7c1-10,1.7-20,2.6-30c0.4-4.4,0.7-8.8,1.2-13.2c0.5-4.6,1.3-9.2,2.1-13.7c1.5-8.5,3.8-17.7,6.6-26.2
			c2.8-8.3,6.7-14.6,11.7-21.7c0.5-0.8,1.8-0.9,2.5-0.3c2.6,2-3.5,7.5-4.5,9.2c-3,4.5-4.5,11.6-6.3,16.7c-2.6,7.6-4.3,15.6-6,23.5
			c-1.7,7.8-3.5,15.6-3.7,23.6c-0.1,4.7,2.9,28.6-0.5,31.1c8.1-5.8,17.3-8.4,27-8.8c4-0.2,11.1,0.5,15.8,1.1
			c-7.3-1.4-17.4-2.6-23.3-1.9c-0.5,0.1-1,0.1-1,0.1c6.3-4.3,12.4-7.8,21.6-7.9c6.1,0.2,15.6,2.5,17.4,3c0.9,0.3,2.1,0.7,3.2,0.6
			c1.7-0.2,3.1-1.6,3.4-3.4c0.1-0.9-0.1-1.7-0.4-2.5c-2.4-7.5,0.6-41.6-11.6-69.7c-5.4-12.5-12.4-20.7-27-23.4
			c-14.9-2.7-23.4,2.3-30.8,6.9c-4.1,2.6-15.5,10.8-24.3,20.3c-5.7,6.2-11.6,15.4-20.9,27.1c-4.5,5.6-7.1,9.7-7.1,9.7
			c-12.4,17.7-23.2,36.6-33.5,55.6c-5.2,9.6-9.4,13.2-1.3,21.3c4.4,4.4,11.5,6.3,15.3,11.4c4.6,6.2,9.8,19.1,12.6,26.8
			c0.9,2.6,9.7,7.2,12,9.4c3.9,3.5,7.5,7.2,11,11c1.7,1.8,3.8,3.5,4.9,5.8C125.5,425.3,125.6,426,125.7,426.8z"/>
		<path class="st0" d="M213.7,331.9c-4.2-0.9-4.5-1.4-7.1-2.2c-2.4-0.6-14-2.9-21.4-2.4c-6.3,0.4-12.5,1.8-18.1,5
			c-6.3,3.6-7.2,7-8.8,14.1c-2.3,10.1-3.9,20.4-5.8,30.6c-1.8,10.2-3,22.8-7.7,32.1c-6,11.9-11.9,24-16.5,36.5
			c-3.1,8.5-4.9,17.3-7.1,26c-2.1,8.5-6.6,15.4-8.3,24c-2.5,13-4,26.2-4.7,39.4c-0.3,4.4-1.8,10.6-0.9,14.9
			c0.9,4.2,5.6,12.6,10.8,12.5c2.9,0,3.8-3,5.7-4.6c2.7-2.1,5.4-2.8,8.5-4.3c5.5-2.7,11.2-5.2,17.1-6.7c-1.4,0.4,9.3-2.7,19.4-3.9
			c9.3-1.1,13.3-0.4,20.2-0.3c6.3,0,7.3,0,9.8,1c0.1,0,0.1,0.1,0.2,0.1c1.2-13.5,4.1-26.9,8.7-39.7c2-5.5,4.2-10.9,6.9-16
			c1.4-10.2,1.6-14.7,1.8-43.5c0-4.1,0.1-7.4,0.3-10.4c1.2-22.9,25.8-91.5-1.4-106.5c0.2,0.2,0.4,0.4,0.6,0.6
			C217.1,329.7,215.6,332.3,213.7,331.9z M184.2,499.2c0,0,0.1,0,0.2,0C184.4,499.2,184.3,499.2,184.2,499.2z M151.9,546.1
			c-0.2,0,0,0,0.1,0C152,546.1,152,546.1,151.9,546.1z"/>
		<path class="st0" d="M190.6,547.7c-12.2,0-17.9-0.5-29.8,1.3c-14.9,2.3-28.1,6.8-41.6,15.5c3.9,2.7,8.1,4.4,12.4,5.4
			c3.6-1.7,6.7-3,9.7-3.9c10-3.1,41.4-10.1,51.8-8.1c0.9,0.2,1.5,0.7,1.7,1.3c1.1-0.1,2.3-0.1,3.4,0c0-3.9,0.1-7.8,0.4-11.7
			C197.8,547.8,193,547.7,190.6,547.7z"/>
		<path class="st0" d="M181.1,604.8c-1.3,0.1-2.5,0-3.7-0.2c-2.8-0.4-21.8-0.3-34.6,3.5c-8,2.4-24.1,10.2-36.4,19.2
			c-0.1,4.1-0.3,7.5-0.6,11.6c5.5-3.5,17.6-9.6,25.5-13.1c19.4-8.7,28.2-8,31.3-8.2c3.2-0.2,5.2-0.5,8.4-0.3c2,0.1,2.6,3.3,0.5,4.1
			c-7.9,2.9-13.2,1.7-24.4,4.5c-15.2,4.2-35,13.6-41.8,18.3c-0.5,4.8-0.9,7.5-1.7,11.5c9-7.2,37.9-22.7,57.2-24.7
			c3.6-0.4,4.2-0.2,6.5-0.3c2-0.1,2.1,2.3,0.8,2.8c-11.8,4.3-19.6,0.4-55.7,21c-2.9,1.7-5.7,3.6-10.1,7.6c-0.9,4.1-1.4,6.6-2.9,15
			c0.9-0.9,1.8-1.8,2.8-2.7c10.9-9.5,24.7-17,37.4-22.3c6.3-2.6,12.7-5,20-5.2c0.6,0,1,0.1,1.5,0.4c0.8,0.7,1,1.9,0.3,2.8
			c-0.9,1.1-2.2,0.8-10,2.8c-4,1.1-5.8,1.9-8.2,2.8c-28.8,11.4-38,20.7-44.9,27.8c-0.3,1.7-0.9,5-1.3,7
			c10.8-8.4,32.3-17.8,45.8-21.7c0.9-0.3,1.9-0.5,2.8-0.8c1.1-0.4,1.9-0.8,3.5-1.1c1.1-0.2,2.1,0.7,2.2,1.7c0.3,2-2,2.5-4.1,3.1
			c-6.6,2-12.6,3.1-35.6,14.3c-8.5,4.1-12.5,7.4-15.9,10.2c-1,4-2.2,8.6-3.2,12.1c20.3-7.9,23.4-12.9,33.4-14.5
			c1.6-0.2,2.8,1.7,1.7,3c-0.4,0.5-2.8,1.6-3.4,1.9c-11.3,4.7-4.2,4.1-33.6,16c-3.1,10.2-4.8,14.9-6.7,18.9c1.2-0.6,2.9-1.3,6.7-3.3
			c35.5-18.4,48-28.7,77.8-80.5c7.4-12.9,12.1-26.4,15.1-40.9c1.7-1.8,0.9-4.5-0.4-5.4c-0.2-0.2-0.4-0.3-0.6-0.4
			C182.4,603.9,181.9,604.7,181.1,604.8z"/>
		<path class="st0" d="M134.1,594.8c-2.5,1.5-5.1,3-7.8,4.7c-7.2,4.5-10.3,7.3-15.1,11.7c-4.8,4.9-4.4,4.5-4.7,4.7
			c0,1.5,0,2.9,0,5.5c7.9-5.7,20.2-12.2,21.5-12.9c9-4.6,17.2-7.4,27.4-8.6c1.3-0.9,2.5-1.8,3.7-2.5
			C150.6,597.5,142.2,596.6,134.1,594.8z"/>
		<path class="st0" d="M80.5,599.6c0.2,0.1,0.1,0.1,0.3,0.2C80.7,599.7,80.4,599.5,80.5,599.6z"/>
		<path class="st0" d="M59.3,384.9c2.2,0,4.1,0,6.6,0.4c-1.8-0.3-3.6-0.6-5.2-0.8c-1.8-0.1-3.4-0.1-4.8,0.2
			C56.8,384.8,57.8,384.9,59.3,384.9z"/>
		<path class="st0" d="M185.7,219.1c-0.2,0-0.3-0.1-0.3-0.1C185.4,219.1,185.6,219.1,185.7,219.1z"/>
		<path class="st0" d="M140.2,570.8c12.4,0.1,25.7-4.4,38.3-8.1c-4.3,0.4-9.9,1.2-17.7,2.8C152.8,567.2,146.1,568.8,140.2,570.8z"/>
		<path class="st0" d="M185.4,219.1C185.4,219.1,185.4,219.1,185.4,219.1L185.4,219.1z"/>
		<path class="st0" d="M187.2,219.4c-0.6-0.1-1.1-0.2-1.5-0.3C186,219.2,186.5,219.3,187.2,219.4z"/>
		<path class="st0" d="M188.6,219.7C189.2,219.8,189.1,219.7,188.6,219.7L188.6,219.7z"/>
		<path class="st0" d="M188.2,219.6c0.2,0,0.3,0.1,0.4,0.1C188.5,219.6,188.4,219.6,188.2,219.6z"/>
		<path class="st0" d="M187.2,219.4c0.4,0.1,0.7,0.1,1,0.2C187.9,219.5,187.5,219.5,187.2,219.4z"/>
		<path class="st0" d="M77,388.4c-1.5-0.6-3.2-1.1-5-1.6c2.2,0.7,5.4,1.8,9,3.3C79.7,389.5,78.3,388.9,77,388.4z"/>
		<path class="st0" d="M109.5,585.6c-1-0.6-1.9-1.1-2.9-1.7c0,1.7-0.1,2.9-0.1,4.9C107.6,587.6,108.6,586.6,109.5,585.6z"/>
		<path class="st0" d="M106.5,594.7c-0.1,7.1-0.1,8.1,0,15.3c5-5.1,11.1-10.4,21.4-16.8c-3.7-1.1-7.3-2.3-10.7-3.8
			c-0.2-0.1-0.3-0.1-0.5-0.2c-1.3-0.4-2.6-0.9-3.9-1.4C110.8,589.9,108.7,592.1,106.5,594.7z"/>
		<path class="st1" d="M188.9,542.7c-6.8-0.1-10.9-0.8-20.2,0.3c-10,1.2-20.8,4.2-19.4,3.9c-8.2,2.2-21.2,8.1-32.8,15.6
			c0.9,0.7,1.8,1.4,2.7,2.1c13.5-8.7,26.7-13.2,41.6-15.5c11.9-1.8,17.6-1.3,29.8-1.3c2.4,0,7.2,0.1,8-0.1c0.1-1.2,0.2-2.5,0.3-3.7
			c-0.1,0-0.1-0.1-0.2-0.1C196.2,542.6,195.2,542.7,188.9,542.7z"/>
		<path class="st1" d="M106.5,621.3c0-2.6,0-4,0-5.5c0.4-0.2-0.1,0.1,4.7-4.7c4.8-4.4,7.9-7.1,15.1-11.7c2.7-1.7,5.3-3.2,7.8-4.7
			c-2.1-0.5-4.1-1-6.2-1.6c-10.4,6.4-16.4,11.7-21.4,16.8c-0.1-7.2-0.1-8.2,0-15.3c2.2-2.5,4.3-4.8,6.4-6.8
			c-0.5-0.2-1.1-0.4-1.6-0.6c0.1-0.2,0.2-0.3,0.2-0.5c-0.7-0.4-1.3-0.7-2-1.1c-0.9,1-1.9,2-3,3.1c0-1.9,0-3.1,0.1-4.9
			c-7.3-4.7-13.7-10.8-18.2-18.1c-20.8-11.1-42.3-14.4-64.9-11.8c-4.8,0.6-5.6,0.7-5.5,1.5c0.1,0.9,1,0.6,2.8,0.6
			c3.8,0,26.2,0.9,44.6,5.9c1.6,0.5,3.3,1,4.9,1.5c1.7,0.6,3.4,1.2,5.1,1.8c10.5,4,17.4,8.4,17.1,8.2c2.8,1.9,4.7,3,6.1,4.2
			c-0.1,3-0.2,5.5-0.2,11.5c-18.3-11.1-24.6-14.9-44.8-18.6c-19.7-3.6-28.3-3.1-37.9-1.8c-1,0.1-0.8,1.5,0,1.6
			c11.1,0.2,29.5,2.7,45.2,7c13.5,3.9,25.6,10.8,37.5,18.2c0,4.2,0,8,0,11.7C80.6,593,70,587.3,27.6,581.7c-2.2-0.3-5.2-0.6-7.4-0.6
			c-2.3-0.1-4.6-0.2-4.9,1.8c-0.1,1,0.6,2.1,1.6,2.2c52.3,5.8,60.7,10.6,81.7,27.7c0.1,2.6,0.1,5.2,0.1,7.7
			c-8.6-5.9-13.6-10.2-21.2-13.5c-11.3-6.5-27.5-11-39.1-12.1c-5-0.5-12.4,0.2-12.4,0.2c-6.2-0.6-6.7-0.6-7.4-0.1
			c-1.3,1-0.6,2.9,0.8,3.1c0.2,0,2,0.1,2,0.1c0,0,0,0,0,0s2.9,0.2,7.8,0.4c18,0.7,35.1,5.5,48.4,12.2c2.8,1.6,20.6,13.4,21.2,13.8
			c0,3.6-0.1,7.2-0.3,10.7c-13.4-10.7-24.5-22.7-72.6-26.2c-1.8-0.1-3.9-0.4-4.5-0.2c-0.7,0.3-1.1,1.2-0.8,1.9
			c0.4,1,1.2,1.1,6.5,1.6c47.6,4.8,52,13,71.1,28.1c-0.3,4.6-0.8,9.2-1.7,13.8c-7.8-7.9-21.3-23.4-56.9-29
			c-4.1-0.6-8.9-0.8-11.2-0.5c-1.6,0.1-2.3,2.8,0,3.4c11.8,3,25.2,1.8,46.5,14.1c6.2,4,9.5,6.4,19.8,17c0.2,0.2,0.4,0.4,0.7,0.6
			c-0.8,3.8-1.5,7.7-2.2,11.5c-16.1-18.4-25-21.6-35.4-24.8c-5.9-1.8-13.6-4-19.7-3.9c-0.7,0.1-1.3,0.7-1.4,1.4
			c-0.3,2.3,2.1,1.7,12.3,4.4c17.2,5.1,25.9,8.8,43.1,29.4c-1,5.7-0.8,4.6-1.1,6.7c-18.7-20.2-32.6-23.3-44.8-26.9
			c-0.6-0.2-3-0.9-4-1.1c-0.8-0.1-1.9,0.5-2.1,1.6c-0.3,2.4,2.5,2.2,5.7,2.8c8.2,1.6,17.9,5.4,27.7,11.8c4.9,3.2,9.2,7.2,12.7,10.5
			c3.7,3.9,3.5,3.9,4.3,4c-0.6,3.1-1.2,6-2,9.1c-1.5-2.1-5-7.7-15.7-14.6c-9.3-6.1-17.3-7.9-19.7-8.6c-3.5-1-4.1,3.4-1.8,4.2
			c1.9,0.7,3.7,0.8,7,2.1c3.7,1.5,13.5,6.5,19.9,11.9c3.2,2.7,4.5,4.1,7.9,9.2c0.3,0.4,0.7,0.6,1.1,0.8c-0.8,3.1-0.5,1.9-1.2,4.4
			c-9.2-10.1-16.5-11.8-24-15.4c-2.4-1.4-4.1,1.6-2.3,3.1c2.5,2.1,17.6,6.8,24.9,17c-0.9,3.1-1.9,6.1-3.1,9.7
			c-2-2.9-7.9-8.8-9.9-9.2c-1.2-0.2-2.3,0.4-2.8,1.5c-1.4,3.3,4.5,5.5,8.5,12c0.6,1.2,1,2.5,1.4,3c-0.7,1.6-2,4.2-3.4,6.8
			c-2.5,4.7-5.2,9.5-4.9,9c-5,8.3-7.4,9.8-7,12.9c0.5,3.7,5.1,5,7.5,2c1.1-1,1.1-1.7,3.7-7c4.7-9.5,7.1-13.2,9.2-17.7
			c1.9-4.1,3.6-8.7,6.7-18.9c29.4-11.8,22.3-11.2,33.6-16c0.6-0.3,3-1.4,3.4-1.9c1.1-1.3-0.1-3.3-1.7-3c-10,1.6-13.1,6.5-33.4,14.5
			c1-3.5,2.2-8.1,3.2-12.1c3.3-2.8,7.4-6.1,15.9-10.2c23.1-11.2,29.1-12.4,35.6-14.3c2.2-0.6,4.4-1.2,4.1-3.1
			c-0.1-1-1.2-1.9-2.2-1.7c-1.5,0.3-2.3,0.7-3.5,1.1c-0.9,0.3-1.9,0.6-2.8,0.8c-13.6,3.9-35.1,13.3-45.8,21.7c0.4-2,1-5.3,1.3-7
			c6.9-7.1,16.1-16.4,44.9-27.8c2.3-0.9,4.2-1.7,8.2-2.8c7.9-1.9,9.2-1.7,10-2.8c0.7-0.9,0.5-2.1-0.3-2.8c-0.4-0.4-0.9-0.4-1.5-0.4
			c-7.3,0.2-13.7,2.6-20,5.2c-12.6,5.3-26.4,12.9-37.4,22.3c-1,0.8-1.9,1.8-2.8,2.7c1.5-8.4,2-10.9,2.9-15c4.4-4,7.2-5.9,10.1-7.6
			c36.1-20.6,43.9-16.7,55.7-21c1.4-0.5,1.2-2.9-0.8-2.8c-2.3,0.1-2.9,0-6.5,0.3c-19.3,2-48.2,17.4-57.2,24.7
			c0.8-4,1.2-6.7,1.7-11.5c6.7-4.7,26.6-14.1,41.8-18.3c11.3-2.8,16.5-1.6,24.4-4.5c2.1-0.8,1.5-4-0.5-4.1c-3.3-0.1-5.2,0.1-8.4,0.3
			c-3.1,0.2-11.9-0.5-31.3,8.2c-7.9,3.5-20,9.5-25.5,13.1c0.3-4.1,0.5-7.5,0.6-11.6c12.2-9,28.3-16.8,36.4-19.2
			c12.9-3.8,31.8-3.9,34.6-3.5c1.2,0.2,2.4,0.3,3.7,0.2c0.8-0.1,1.3-0.9,1.3-1.7c0-0.4-0.2-0.8-0.6-1c-3.4-2.3-8.6-2.6-12.9-2.7
			c-5-0.1-9.4,0.1-13.5,0.5c-10.2,1.1-18.4,4-27.4,8.6C126.7,609.1,114.4,615.6,106.5,621.3z M80.5,599.6c-0.1-0.1,0.2,0.1,0.3,0.2
			C80.6,599.7,80.7,599.7,80.5,599.6z"/>
		<path class="st1" d="M184.4,499.2c-0.1,0-0.2,0-0.2,0C184.3,499.2,184.4,499.2,184.4,499.2z"/>
		<path class="st1" d="M94.8,525.4c5.4,3.5,5.4,3.7,6.5,3.8c-0.3,2.3-0.6,4.7-0.8,7c-11.1-5.8-27-14-48.3-12.9
			c-4.1,0.2-10.7,0.8-14.4,2.6c-1.2,0.6-0.6,2.3,0.6,2.1c1.6-0.2,15.5-1.5,32.5,2.6c6.8,1.6,11.5,2.9,19.6,6.7c1-0.3,2-0.4,3-0.3
			c2.2,0.3,4.2,1.5,5.9,3.1c3.9,3.6,6,8.7,8.9,13.2c0.5,0.7,0.9,1.3,1.4,2c0.1,0,0.2,0.1,0.2,0.1c8.5-4.3,37.7-18.4,68-21.5
			c15.6-1.6,16.6,0.2,16.9-1.6c0.1-0.6-0.3-1.1-1.2-1.3c-27.8-5.1-60.7,7-86,19.7c0.1-2.7,0.2-5.4,0.4-8.2c1.2-0.9,2.5-1.7,3.7-2.6
			c8.3-5.6,14.4-9.3,23.9-12.8c22.2-8.4,33.6-7.5,45.7-8.4c5.4-0.4,9.1-0.7,13.6-0.4c1.4,0.1,1.5-1.7,0.6-2c-3-0.9-5.6-1.8-11.2-1.9
			c-11.9-0.1-40.4-1.8-72.9,20.2c-1,0.7-1.9,1.3-2.9,2c0.2-2.4,0.6-5.5,0.9-8c10.3-8.8,28.1-19.3,44.8-23.1c7.8-0.9,7.7-0.8,8-1.4
			c13.2-1.8,24.9-1.9,38.7,0.2c0.7,0.1,1.5-0.3,1.8-1c0.4-1-0.3-2-0.9-2.2c-1.7-0.5-7.2-1.7-16.3-1.7c-13.9,0-23.4,0.1-36.4,3.6
			c-0.3,0.1-6.8,2-10.4,3.6c-0.7,0.3-6.3,2-10.5,4.2c-4.1,2-7.1,4.1-10.1,5.8c-1.7,1-4.9,2.7-7.5,4.2c0.1,0-0.2,0.1-0.2,0.1
			c0.6-4.1,1.3-8.9,2-13c17.1-14.9,36.8-17.5,64.1-19.2c12.6-0.8,17.5,0.5,25.2,1.4c1.8,0.2,3-1.5,2.4-3c-0.2-0.5-0.7-1-1.2-1.2
			c-6.3-1.8-14.7-2.5-21.3-2.5c-9.7,0.1-24.9,2.3-33.7,4.1c-20.7,4.4-30.1,12-34.6,15.5c1.1-6.1,2.8-13,3.6-15.8
			c8.8-6.6,18.8-12.9,36.7-15.6c27.7-4.1,42.4-0.1,46,0.3c2.8,0.3,3.3-3.8,0.6-4.2c-2.1-0.5-2.3-0.6-3.3-0.6
			c-4.4-0.2-28.3-2.8-46.3,1.3c-13.3,3-19.6,5.3-32.1,13.7c1.8-5.9,3.8-11.8,5.9-17.7c4.6-2.5,11.7-6.6,33.9-7.4
			c7.3-0.3,22.5,1.1,29.8,2.1c1.8,0.2,3.6,0.5,5.3,0.7c1.7,0.2,3.2-1.5,2.5-3.2c-0.2-0.5-0.7-1.1-1.2-1.3
			c-6.6-2.2-46.5-6.8-68.6,4.2c0.4-1.2,2.8-7.9,3-8.5c15.4-6.9,25.3-9,24.6-8.8c13.9-3.3,27.2-5.2,42.7-3.1
			c8.6,1.1,11.1,2.8,12.1,0.7c0.4-1-0.2-2.1-0.9-2.3c-3.1-1-7.6-1.6-10.6-1.9c-10.6-1.2-21.8-1.2-43.4,3.9
			c-10.1,2.4-18.9,6.2-23.1,8.1c1.9-5.3,3-8.2,4.5-11.9c10.8-5,13.9-6.2,22.7-8.6c12.4-3,24.4-4.5,37.3-3.2c7.2,0.7,10,1.8,11.5,0.7
			c1.1-0.8,1.3-2.3,0.5-3.4c-0.6-0.7-1.3-0.9-2.6-1.2c-1.1-0.2-8-0.9-12.5-1.1c-17-0.4-33.8,2.5-55,12c4.8-12.1,1.2-2.9,3.9-9.8
			c6.3-4.3,16.1-12.3,49.2-12.5c8.1,0.1,10.9,0.4,13.2,0.7c2.2,0.3,4.7,1,6,0.5c2-0.8,3.3-4.8-2.5-5.8c-8.6-1.6-42.2-2.9-63.3,10.3
			c1.6-4.2,3.2-8.4,5-13.5c1.8-2,2.8-2.9,2.1-2.2c3.6-3.1,8.6-7.4,23.8-10.1c4.6-0.8,9.8-1.4,15.4-1.5c16.1,0.2,24.2,5.4,25.7,1.8
			c0.4-0.8,0.1-1.8-0.6-2.3c-1-0.9-2.3-1.2-3.6-1.5c-8.4-2-11.3-2.1-15-2.3c-13.6-0.6-34.7,3.3-45.7,12c1-3.1,2.4-7.5,3.5-11.1
			c0.2-0.2,1.2-1.1,1.4-1.4c3.1-3,7-5.1,10.8-6.4c15.6-5.2,26-6.3,44.1-3.6c3.1,0.5,7.7,1.5,8.2-1.6c0.1-1-0.4-2.1-1.4-2.5
			c-1.3-0.5-1.6-0.8-12.9-1.3c-23.4-1.2-42.5,6.7-48.5,11.6c1.2-4.4,2.4-10.6,3.1-15c6.9-3.8,20.2-7.2,36.5-6.1
			c13.3,0.9,19.4,5,21,1.5c1.1-2.6-2.2-3.8-5-4.4c-17.5-3.8-38.8-0.9-51.9,5.2c0.5-3.5,0.5-3.7,0.9-7.2c0.8,0,0.1,0.1,7.6-3.5
			c5.6-2.7,11.2-3.7,17.1-4.1c24.1-1.8,30,5.1,31.9,0.5c0.6-1.3,0-3-1.4-3.5c-6.5-2.6-18-2.7-25-2.3c-15.9,1-23,4.6-29.7,8
			c0.5-4.1,0.6-5.5,1.3-11.6c4.5-3.3,10.4-7.8,23.4-8.6c7.4-0.5,19,1.8,21.4,2.4c2.6,0.9,2.9,1.3,7.1,2.2c1.9,0.4,3.4-2.2,2.1-3.6
			c-0.2-0.2-0.4-0.4-0.6-0.6c-0.9-1-2-1.6-6.4-2.6c-0.7-0.2-2.2-0.4-3.9-0.6c-4.6-0.6-11.7-1.3-15.8-1.1c-9.6,0.4-18.9,3-27,8.8
			c0.4-3.7,0.9-8.5,1.1-11.6c4.7-4.5,7.6-7.4,18.6-10.5c8.7-2.1,19.6-1.9,26.1-0.3c3.8,1.1,7.2,2.5,9,1.7c1.4-0.6,2.1-2.2,1.5-3.7
			c-2.4-5.8-36-9.8-55,7.5c0.3-5.2,0.3-8.1,0.7-12.2c1.9-2.7,3.9-5.2,7-7.2c7.4-4.7,15.4-7,24.1-7.1c10.8,0.4,15.2,2.2,16.7,1
			c0.9-0.7,1-1.9,0.4-2.7c-1.1-1.4-11.5-2.4-18.7-2c-9.4,0.5-22.2,5.4-29.1,12.9c0.4-3.2,1.2-10.2,1.6-13.1
			c8.8-8.5,15.1-12.7,39.5-12.7c2.5-0.3,2.5-3.9,0.2-4.4c-0.6-0.1-15.2-0.3-27.1,4.5c-5.2,2.1-7.9,4.2-12,8c0.5-3.3,1-6.5,1.6-9.8
			c8.1-7.7,13.4-11,26-12c5.4-0.4,9.3-0.2,10.5-1.2c1.5-1.1,0.9-3.5-0.9-3.8c-2-0.4-5.5-0.1-7.4,0.1c-9.8,1-17.8,2.5-27,10.5
			c0.5-2.2,1-4.5,1.5-6.7c0.2-0.1,0.4-0.2,0.6-0.3c8.9-6.6,12.6-9.4,24.6-10c2.1-0.1,2.8,0.1,6.6-0.2c2.3-0.2,2.6-3.8,0.1-4.2
			c-0.6-0.1-2.1-0.3-3-0.3c-13.1-0.1-19.3,2.9-27.1,8.5c1-3.4,1.6-4.8,2.2-6.2c3.4-3.2,6.1-5.9,11.5-7.6c2.8-0.7,4.2-0.4,4.4-1.9
			c0.1-0.9-0.5-1.6-1.2-1.7c-0.3-0.1-1.9,0-2.2,0c-2.7,0.1-6.1,1.8-8.4,3.3c3.4-5.7,5.7-7.3,3.8-8.8c-0.7-0.6-1.9-0.5-2.5,0.3
			c-1.9,2.8-3.2,4.5-6.2,9.7c-1.7-4.4-8.1-11.1-10.3-10.2c-0.8,0.3-1.2,1.2-0.8,2c0.3,0.8,0.9,0.8,1.5,1.1c3.3,2.1,6.4,5.8,7.5,9.5
			c0.1,0.2,0.2,0.4,0.4,0.6c-0.9,1.6-1.3,2.6-2.7,6.3c-2.7-4.3-5.7-9.2-13.4-14c-2.2-1.4-2.5-1.5-3.7-1.4c-1.5,0.1-2,2.6,0,3
			c0.3,0,1.3,0.7,1.5,0.8c7.8,4.5,10.3,8.2,14.4,14.8c-0.7,1.9-1.5,4.2-2.6,8.4c-4.4-9.6-9.2-14-15.2-17.9c-0.8-0.5-3.4-2.3-4.4-2.5
			c-1.2-0.2-2.3,0.8-2.1,2c0.2,1.3,2.2,2.3,3.4,3.1c9.3,6,12.5,10.8,16.8,21.4c-0.8,3.5-1.4,6.3-2.1,10.1
			c-4.2-9.6-10.8-18.2-25.1-26.3c-2-0.9-3.3,2-1.8,3c18.4,11.2,21.5,19,25.8,29.2c-0.5,2.8-0.6,4-1.5,10
			c-4.9-10.5-10-16.9-28.4-29.8c-2.1-1.4-5.7-3.8-6.5-3.9c-0.6-0.1-1.3,0.2-1.7,0.7c-0.7,0.9-0.3,2.2,0.3,2.5
			c25.4,15.5,29.8,21.6,35.6,35.7c-0.4,2.7-0.8,6.3-1.2,13.4c-3.9-8.9-8.1-15.5-16.9-24.2c-9.1-9-23.4-16.5-24.4-16.7
			c-1.1-0.2-1.7,1.3-0.8,1.9c27.1,19.1,33.3,29.8,38.8,42.8c2.5,5.9,2.2,5.5,2.7,5.9c-0.4,4.4-0.9,8.8-1.5,13.2
			c-2.5-5.4-8.2-19.3-27-34.6c-8.8-7.2-18.8-12.1-21.2-12.5c-1.4-0.3-2.5,1.8-1.2,2.9c1.7,1.4,3.1,1.8,6.7,3.9
			c30.1,18.1,36.5,34.4,41.9,46c-0.9,6.8-1.6,11.9-2.4,17.2c-6.2-13.8-14.7-26.1-26.3-35.9c-3.2-2.7-21.2-16.7-28.9-21.2
			c-1.7-0.7-2.8,1.6-1.5,2.5c11.6,8.5-6.5-5.5,25.7,19.6c12,9.3,23.5,23.9,30.1,40.9c-1.3,8-2.4,12-3.4,15.4
			c-0.2-0.7-1.6-4.7-3.1-7.6c-3.3-6.8-10.4-18.3-13-22.1c-3.7-5.4-7.9-10.4-12.7-14.9c-0.6-0.5-11.5-10.7-13.8-12.5
			c-2.2-1.7-8.6-6.3-12.5-8.1c-1.2-0.6-2.2,1.1-1.2,1.9c13.4,10,13.7,11.7,23.7,21.7c4.8,5,9.1,10.7,11.5,14.3
			c13.8,20.5,15.9,26.3,18.3,33.9c0.1,0.2,0.2,0.4,0.4,0.6c-1.8,5.6-2.4,7.4-4.1,12.1c-2.2-5.6-6.3-19.5-18.8-36.5
			c-11.2-15.4-24.2-23.7-40.2-32c-0.4-0.2-1,0-1.2,0.3c-1.3,1.7,2.9,3,13,10.6c11.3,8.6,20.1,16.1,27.8,27.8
			c9.7,14.7,12.2,23.3,14,28.1c2.6,6.7,2.6,7.1,3.2,7.6c-2.2,5.9-3.6,9.4-5.6,14.5c-2.8-9.5-7-18.9-17.9-34.9
			c-0.5-0.7-15.9-21.4-31.3-31.6c-2.7-1.8-5-2.2-10.7-4.6c-0.7-0.3-4.4-2.1-5.4,0.3c-0.6,1.5,0.7,2.7,2.1,3.4
			c10.4,4.8,8.3,1.9,19,11.4c5.7,5,9.3,8.8,12.4,12.5c6.2,7.2,8.1,9.3,9.4,11.1c14.1,19.7,17.5,29.4,19.9,39.1
			c-0.7,1.8-1.4,3.5-2.1,5.3c-0.1-0.5-0.5-0.8-2.1-2.3c-10.1-10.3-18-19.9-30.5-28.1c-1.1-0.7-2.2-1.4-3.3-2.1
			c-3.8-2.3-8.5-4.5-12.8-6.3c-3.6-1.5-6.8-2.7-9-3.3c-0.1,0-0.2-0.1-0.3-0.1c-2.3-0.7-4.1-1.1-5.7-1.3c-2.5-0.4-4.4-0.4-6.6-0.4
			c-1.6,0-2.6-0.2-3.5-0.1c-0.3,0-0.7,0.1-1,0.1c-0.4,0.1-0.6,0.2-0.8,0.4c-0.8,0.8-0.3,2.3,0.8,2.4c0.8,0.1,3.1,0.6,3.7,0.8
			c10.6,3,8.3,1.2,21,6.6c7.4,3.1,11.4,5,18.6,10c13,9,11.7,9.1,28.3,26c0.1,0.7,0.4,1.5,1.4,2.6c-0.2,0.6-0.4,1.2-0.7,1.7
			c-18.2-18.7-35.8-25.4-63.9-28.6c-8.7-1-11.4-1.3-14.1-0.9c-1.7,0.2-1.9,2.7,0,3c7.9,1.4,18.8,2.7,29.4,5.6
			c25.7,7.3,35.3,14.8,46.6,26.4c-1,2.7-2,5.4-2.9,8.1c-9.1-6.2-14-10.8-39.9-19.5c-3.9-1.3-7.8-2.4-11.8-3.2
			c-6.4-1.3-19.3-2.3-25.3-2c-0.6,0-1.1,0.6-1.1,1.1c-0.1,0.8,0.5,1.5,1.1,1.5c9.6,0.1,16.8,0.7,36.3,7.1
			c23.9,7.8,26.9,10.4,39.3,18.9c-1.1,3.2-2.1,5.9-4.2,11.8c-17.4-16.3-45-27.1-68.1-24c-0.7,0.1-6.7,1-7.9,1.2
			c-0.7,0.1-0.6,1.1,0.1,1.1c3.4-0.2,9.4,0.3,12.7,0.6c40.7,4.2,59.8,26.2,61.3,26.9c-1,3-2,5.9-3,8.9C98.1,469,78.4,452.4,37,456.9
			c-2.4,0.3-6.5,1-7.9,1.2c-2.3,0.5-4.5,1-4.3,2.8c0.1,0.9,1,1.6,1.9,1.5c49-6.3,67.3,7.9,84,20.6c-0.8,2.8-1.4,4.9-2.2,7.8
			c-13.4-10.5-26-16.5-46.9-19.6c-4.9-0.7-11.1-1.7-23.4-0.5c-0.7,0.1-12.4,1.4-21.2,4c-4.2,1.3-1.2,5.3,0.8,3.4
			c11.8-2.4,18.7-3.7,30.7-3.9l2.3,0c-0.1,0-0.2,0-0.2,0c9.1,0.4,31.5,6.6,42.2,13.8c1.4,0.9,2.7,1.9,4.1,2.8c3.2,2.2,7.7,5,8.8,5.6
			c0.5,0.3,0.8,0.5,1.4,0.4c-1.1,4.5-1.5,6.9-2.2,10.5c-3.9-2.9-13.8-10.5-25.7-13.3c-25.4-6.1-36.4-5.4-65,0.6
			c-2.6,0.6-4.3,0.8-4.1,2.3c0.1,0.8,0.8,1.4,1.6,1.2c2.9-0.4,23.9-4.4,38.4-4.4c10.7,0.2,26.8,2.5,36.7,6.9c5.9,2.6,9.7,5.4,12,6.9
			c0.7,0.5,4.8,3.6,5.3,3.8c-1,5.4-1.5,8.7-2,12.2c-11.9-7.8-15.6-8.5-24.3-11.2c-12.5-3.8-26.2-6.4-38.7-7.5
			c-5.8-0.5-11.8,0.1-13.4,0.2c-15.1,1-14.2,0.7-15.6,1.2c-0.2,0.1-0.4,0.2-0.5,0.4c-0.5,0.7-0.1,1.9,0.8,1.9c1.1,0,1.6,0.2,2.7,0.2
			c0.5,0,1.2,0,2.2-0.1c0.5,0,1-0.1,1.5-0.1c14.6-1,16.4-1.1,37.8,3.8c2.7,0.6,5.7,1.3,9.1,2.1C84.2,519.1,89.6,522.3,94.8,525.4z"
			/>
		<path class="st1" d="M32.2,540.1c-7.6,0.2-8.5,0.3-11.8,1.6c-1.3,0.5-0.8,2.6,0.6,2.4c5.8-0.8,24.3-0.8,40.7,1.9
			c9.3,1.5,16.1,3.1,21.3,4.9c-0.2-1.5-0.1-3,0.1-4.4C67.3,540.8,50.1,539.5,32.2,540.1z"/>
		<path class="st1" d="M148.7,502.9c0.1,0,0.3-0.1,0.4-0.1C149.2,502.7,149.1,502.8,148.7,502.9z"/>
		<path class="st1" d="M193.1,557.9c-10.4-2-41.8,5-51.8,8.1c-2.9,0.9-6.1,2.1-9.7,3.9c2.8,0.6,5.6,0.9,8.5,0.9
			c5.9-2,12.6-3.6,20.6-5.2c7.8-1.6,13.4-2.4,17.7-2.8c2.7-0.8,5.3-1.5,7.9-2.2c2.4-0.6,5.4-1.1,8.5-1.3
			C194.6,558.6,194,558.1,193.1,557.9z"/>
		<path class="st1" d="M151.9,546.1c0,0,0.1,0,0.1,0C151.9,546.1,151.7,546.2,151.9,546.1z"/>
		<path class="st2" d="M673.4,524.2c1.9-8.1-6.7-15.8-14.2-17.9c-5.2-1.5-11.5-0.4-16.2,1.6c-4.5,1.9-10.4,5.9-15.1,11.2
			c-1.1,1.2-1.6,1.7-1.6,1.7c2.4-10.3,14.4-27.4,4.1-42.3c-2.8-4.1-8.2-6.2-14.7-4.2c-3.9,1.2-7.1,4.8-8.7,6.3
			c-0.1,0.1-0.5,0.5-0.5,0.5c-0.1-5.1,1.1-9.3-2.8-17.1c-2.3-4.7-7.6-12.9-12.7-15c-6.8-2.8-15.8,3.8-19.1,12.2
			c-1.8,4.5-1.7,9.8-0.8,14.5c1.3,7.4,2.2,10.9,5.7,17.7l0.1,0.2c-5.8-4-10.5-5.1-15.8-5.2c-7.4-0.2-12.8,3.3-17.3,9.2
			c-2.7,3.5-4.3,8.1-2.5,12.2c1.6,3.6,5.4,6.1,5.1,5.8c2.5,2,2,0.4-3.6,1.2c-8.4,1.2-15.3,8.2-18.9,15.4c-4.3,8.5,1.2,14.7,8.6,20.7
			c0.5,0.4,3.7,2.7,7.7,4.8c18.2,9.4,12.4,1.1,0.2,9.9c-5.3,3.8-12.6,13.1-9.1,21.8c1.3,3.1,3.8,5.1,5.4,6.5
			c11.9,9.8,30.2,13.9,37.3,18.1c16.1,9.4,20.6,15.9,27,22.9c5.6,6,13.9,33,20.4,13.5c0.2-0.7-0.2,0,3.6-5
			c29.6-39.1,57-65.4,37.5-73.3c-7.2-2.9-13.2-0.1-15.9-1.4c-3.4-2.4,2.2-17.5,10.7-27.8C664.2,534.4,671.9,530.3,673.4,524.2z"/>
		<path class="st2" d="M591.9,449.2c0.1,0,0.1,0,0.1,0.1C592,449.2,592,449.2,591.9,449.2z"/>
		<path class="st2" d="M592,449.3C592.2,449.3,592.1,449.3,592,449.3L592,449.3z"/>
		<path class="st2" d="M590.5,448.6c-0.2-0.1-0.3-0.1-0.4-0.2C590.2,448.5,590.4,448.6,590.5,448.6z"/>
		<path class="st2" d="M590.5,448.6c0.1,0.1,0.3,0.1,0.5,0.2c0.4,0.2,0.7,0.3,0.9,0.4C591.6,449.1,591,448.8,590.5,448.6z"/>
		<path class="st2" d="M590.1,448.5c-0.1,0-0.2-0.1-0.2-0.1C590,448.4,590,448.4,590.1,448.5z"/>
		<path class="st2" d="M589.9,448.4C589.8,448.3,589.9,448.3,589.9,448.4L589.9,448.4z"/>
		<path class="st1" d="M620.6,628.6c1-0.2,0.9-0.3,4.9-4.5c1.5-1.5,2.5-2.7,5.8-6.8c5.3-6.6,10.5-11.4,14.8-17.3
			c3.1-4.1,5.8-8.3,6.9-9.8l4.2-5.6c0.3-0.4,0.1-0.8-0.2-0.9c-0.5-0.2-0.6,0.2-2.3,1.8c-5.9,5.8-7.7,8.8-13.1,15
			c-1.6,1.8-4.6,4.6-6.3,6.2c-9.1,8.8-6.2,6.8-15.2,16.3c-1.4-14.2-1.7-20.2-6.2-35.5c0.5-5.2,1.1-10.8,5.2-19.8
			c7.6-16.8,14.4-26.4,29.6-39.1c-0.4,0.3,5.3-4.5,8.3-6.5c1.3-0.9,2.7-1.8,4.1-2.6c0.6-0.4,0.5-1.3-0.2-1.5
			c-1.9-0.4-13.8,9-15.2,10c-12.2,9.6-19.5,17.8-28.2,34.5c-2.5,4.9-5,10.9-6.2,16.3c-4.2-14.6-6.2-18.8-9.5-32.3
			c0.5-0.6,1.2-5.8,2.4-10.9c3.6-15.3,16.9-27.6,19.4-49.7c0.1-1.1-1.3-1.4-1.7-0.4c-10.8,31-11.1,21.1-19.2,43.6
			c-1.6,4.3-2.1,7.6-2.6,10.5c-1.3-5.7-1.4-6.5-2.1-10.4c-3.7-23.4-3.1-15.8-3.9-24.5c-1.8-18.7-0.5-18.1-1.8-18.6
			c-0.7-0.3-1.4,0.2-1.4,1c0,5.3,0.2,7.2,0.3,8.4c1.4,20.2,1.4,12.5,3.8,30.6c-7.1-7.8-16.7-15.3-26.2-19c-10.1-4-9.5-4.1-10.1-3.9
			c-0.9,0.3-0.9,1.4-0.2,1.8c2.4,1.2,4.9,2.4,7.4,3.4c9.7,3.9,19.6,11.6,26.7,19.3c2.9,3.2,2.7,3.1,3.1,3.2
			c1.5,10,4.5,23.3,6.8,31.6c-7.3-6.1-12-9-15.8-11.1c-3.2-1.8-16.4-8.9-20.3-10.5c-6.2-2.6-6-1.8-18.1-4.9
			c-0.7-0.2-1.1,0.9-0.3,1.2c16.6,5.8,10.3,1.3,28.4,11.8c4.2,2.4,12.7,7.7,17,11c7.6,5.9,8.5,6.9,10.3,9c0.7,0.9,0.7,1,1,1.2
			c8.6,31.7,8.4,36.9,10.1,51.4c-17.4-16.9-31.8-26.1-47.9-33.1c-11.4-5-5.1-2.8-16.9-6.8c-2.3-0.9-3.8-1.7-5.4-2.6
			c-0.8-0.4-1.6,0.7-0.7,1.3c4,2.7,6.1,3.3,8.7,4.3c4.8,1.9,20.9,10.3,33.7,19.4c22.4,17,29.2,25.2,29.2,25.2
			c0.7,14.1-1.8,22.2-2.1,23.9c-0.2,1.2-0.4,2.2-0.6,3c-1,4.4-1.8,4.8-4.6,12c-2.2,5.5-4.5,10.3-4.6,12.3c-0.1,1.7,2.2,2.8,3.5,1.9
			c0.7-0.5,0.7-0.6,1.3-1.3c4.1-5.7,4.9-7.5,7-12.7c0.9-2.3,1.7-3.9,2.6-6.7c0.4-1.2,0.7-2.9,1-5
			C620.4,648.2,620.9,633.8,620.6,628.6z"/>
		<path class="st3" d="M322.8,649.8c-1.5-2.4-3.2-5-4.3-6.6c-2.3-3-4.9-5.8-7.8-8.3c-5.7-4.8-14.9-8.5-24.1-9.6
			c1.3,5,3.5,10.3,4.4,14c1.6,6.6,3.4,13.1,5.2,19.5l28.4,0.6c1.1,1.5,1.5,3.5,1,5.4c-10.6,0.6-19.7-1.7-29.4-5.9
			c2.3,8,4.9,16,7.6,23.9c1.4,3.9,2.9,8,6,10.8c4.6,4.2,11.9,4.1,17.4,1.1l-1-2.9c-0.4-1-0.8-2-1.2-3c-0.4-1-0.9-1.9-1.4-2.9
			c-0.5-1-1-1.9-1.5-2.9c0.9,0.6,1.8,1.4,2.5,2.3c0.7,0.9,1.3,1.9,1.8,2.9c0.5,1,0.8,2.1,1,3.3c0.2,1,0.2,2.1,0.1,3.1
			c1.2-0.7,2.4-1.5,3.4-2.5c2-1.9,3.5-4.2,4.6-6.7c-1.6-6.4-3.1-12.8-5.2-19.1C328.2,660.7,325.9,655,322.8,649.8z M323,692.6
			c0.2,1.1,0.2,2.3,0,3.4l-1.1-3.1c-0.4-1-0.8-2-1.2-3c-0.4-1-0.9-1.9-1.4-2.9c-0.5-1-1-1.9-1.5-2.9c0.9,0.6,1.8,1.4,2.5,2.3
			c0.7,0.9,1.3,1.9,1.8,2.9C322.5,690.3,322.8,691.4,323,692.6z"/>
		<path class="st3" d="M198.3,559.2c-1.1,0-2.3,0-3.4,0c-3.1,0.2-6,0.7-8.5,1.3c-2.6,0.7-5.2,1.4-7.9,2.2
			c-12.6,3.7-25.9,8.2-38.3,8.1c-2.9,0-5.7-0.3-8.5-0.9c-4.3-0.9-8.5-2.6-12.4-5.4c-0.9-0.6-1.8-1.3-2.7-2.1c-0.6-0.5-1.2-1-1.8-1.6
			c0.1,0.1,0.2,0.3,0.3,0.4c-2.8,2.9-6.8,4.4-10.6,5.8c-2,0.7-3.9,1.4-5.9,2.1c1.4-0.5,5.3-10.2,6.7-12c1.9-2.5,2.1-3.4,4.4-2.2
			c-0.5-0.6-0.9-1.3-1.4-2c-3-4.4-5-9.5-8.9-13.2c-1.6-1.5-3.6-2.8-5.9-3.1c-1-0.1-2.1,0-3,0.3c-3.1,0.9-5.8,3.6-6.9,6.8
			c-0.3,0.8-0.5,1.7-0.6,2.5c-0.2,1.5-0.2,2.9-0.1,4.4c0.2,2,0.7,4,1.3,5.9c1.1,3.2,2.5,6.2,4.2,9c4.4,7.3,10.8,13.4,18.2,18.1
			c0.9,0.6,1.9,1.2,2.9,1.7c0.7,0.4,1.3,0.7,2,1.1c2.7-4.9,12-9.1,12-14.6c0,4,1.8,13.4,0.1,16.9c-1.3,2.5-2.3,1.6-5.4,0.7
			c-0.5-0.1-1-0.3-1.5-0.5c0.2,0.1,0.3,0.1,0.5,0.2c3.4,1.4,7,2.7,10.7,3.8c2,0.6,4.1,1.1,6.2,1.6c8.1,1.8,16.5,2.7,24.9,2.6
			c6.7-0.1,13.3-0.9,19.8-2.3c-2.8-1.9-0.9-12.7-0.9-15.6c-0.1-4.3-0.1-8.5-0.1-12.8c1.7,2,3.4,4,5.1,6c4.5,5.4,9.7,10.1,14.3,15.3
			c-1.2,0.8-2.3,1.5-3.5,2.2c2.4-1,4.7-2.2,7-3.5c0,0,0,0,0.1,0c-0.4-2.3-0.7-4.6-1.1-6.9C198.7,573,198.3,566.1,198.3,559.2z
			 M149.1,592.1c0.4-1-4.2-8.6-4.8-10.2c-1.2-3.1-3.2-7.7-2.7-10.9c4,0.5,7.7,0.6,11.4-1.3C153.2,577.4,151.9,585,149.1,592.1z"/>
		<path class="st4" d="M110,555.2C110,555.2,110,555.2,110,555.2c-0.1-0.1-0.2-0.1-0.3-0.2c-2.3-1.2-2.5-0.3-4.4,2.2
			c-1.4,1.8-5.3,11.5-6.7,12c2-0.7,3.9-1.4,5.9-2.1c3.8-1.4,7.8-2.8,10.6-5.8c-0.1-0.1-0.2-0.3-0.3-0.4
			C113.5,559.1,111.8,556.2,110,555.2z"/>
		<path class="st4" d="M112.9,587.8c1.3,0.5,2.6,1,3.9,1.4c0.5,0.2,1,0.3,1.5,0.5c3.1,0.9,4.1,1.8,5.4-0.7c1.8-3.5,0-12.9-0.1-16.9
			c0,5.4-9.3,9.7-12,14.6c-0.1,0.2-0.2,0.3-0.2,0.5C111.8,587.4,112.4,587.6,112.9,587.8z"/>
		<path class="st4" d="M153,569.7c-3.7,1.9-7.5,1.7-11.4,1.3c-0.5,3.2,1.6,7.8,2.7,10.9c0.6,1.6,5.2,9.2,4.8,10.2
			C151.9,585,153.2,577.4,153,569.7z"/>
		<path class="st4" d="M182.9,572.7c-1.7-2-3.4-4-5.1-6c0,4.3,0,8.5,0.1,12.8c0,2.9-1.8,13.7,0.9,15.6c0,0,0.1,0.1,0.1,0.1
			c0.8,0.4,1.8,0.3,2.6,0c4.3-1,8.3-2.8,12-5c1.2-0.7,2.3-1.4,3.5-2.2C192.6,582.8,187.4,578.1,182.9,572.7z"/>
		<path class="st5" d="M211.4,663.3c0.2,10,0.6,20.5,6.8,28.2c4.8,6,12.4,9.1,20,10.6c5,0.9,10.5,1.2,15.1-1.1
			c4.6-2.3,7.9-7.7,6.4-12.6c-1-3.2-3.8-5.5-5.9-8.3c-2.1-2.8-3.4-5.9-4-9.3C236.6,673.1,222.7,670.4,211.4,663.3z M251.1,689.3
			c0.7,0.9,1.3,1.9,1.8,2.9c0.5,1,0.8,2.1,1,3.3c0.2,1.1,0.2,2.3,0,3.4l-1.1-3.1c-0.4-1-0.8-2-1.2-3c-0.4-1-0.9-1.9-1.4-2.9
			c-0.5-1-1-1.9-1.5-2.9C249.6,687.6,250.4,688.4,251.1,689.3z M245.8,691.4c0.7,0.9,1.3,1.9,1.8,2.9c0.5,1,0.8,2.1,1,3.3
			c0.2,1.1,0.2,2.3,0,3.4l-1.1-3.1c-0.4-1-0.8-2-1.2-3c-0.4-1-0.9-1.9-1.4-2.9c-0.5-1-1-1.9-1.5-2.9
			C244.3,689.7,245.1,690.5,245.8,691.4z"/>
		<path class="st5" d="M518.8,479.9c-3.3-0.4-6.5-1-9.8-1.6c-5.2-1-10.5-2.2-14.7-5.3c7.2,0.1,14.5-0.7,21.5-2.4
			c1.7-0.4,8.6-3.2,9.2-2.2c11.2-30.1,10.8-64.9,7.3-98c1.9-2.5,4-4.8,6.2-6.9c7.1-6.9,15.4-12.7,21.3-20.7
			c8-10.9,10.6-25.6,6.6-38.5c-3.6-11.6-18.5-34.6-30.4-28.2c-12,6.5-23.5,12.7-39.1,27.6c-1.6-1.2-3.3-2.4-5.1-3.5
			c-25.8-16.8-57.2-21.5-87.5-23.2c-34.4-1.9-71.2,8.9-101.9,24.3c-4.5-2.8-9.5-5.4-12.5-7.9c-8.2-7.2-17.2-13.6-26.7-19
			c-1.5-0.9-3.2-1.8-5-1.7c-1.9,0.1-3.5,1.3-5,2.5c-20.3,16.5-35.8,38.5-18.8,63.6c5.6,8.2,13.7,14.3,20.5,21.5
			c0.9,0.9,1.8,1.9,2.6,2.9c-2.1,23.4-3.5,46.9-0.8,70.1c3.8,15.8,16.6,28.2,31.4,35.1c14.8,6.9,31.4,8.9,47.8,10
			c-6,3.4-13.1,4.3-20.1,4.5c-15.9,0.5-30.6-2.3-45.4-7.8c0.5,1,1,2,1.5,2.9c0.1-0.1,0.2-0.3,0.3-0.4c1.4,3,3.1,5.8,4.9,8.5
			c5.4,0.4,11.1,3.1,16.2,4.2c7.1,1.4,14.3,2.3,21.5,2.5c-0.9,2.5-4.1,3-6.7,3.2c-7.3,0.5-14.7,0.8-22,0.9c-0.5,0-0.9,0-1.4,0
			c0,0,0.1,0.1,0.1,0.1c-0.1,0.1-0.2,0.2-0.3,0.3c2.8,3.5,5.7,6.9,8.9,10.1c0.4,0.4,0.8,0.8,1.2,1.2c-2.7-2.8-5.3-5.8-7.2-8.9
			c20.8,6.4,44.9,7.5,66.4,4.6c23.3-3.1,45.3-11.3,69.1-10.1c25.7,1.4,50.2,8.2,74.7,15.6c3.5-3.3,6.8-6.8,9.9-10.5
			c-11-0.9-21.9-3.8-32-8.4c-1.5-0.7-3.2-2.1-2.5-3.5c0.2-0.5,20.4,2.9,22.5,3.1c6.5,0.4,12.9-0.3,19-1c2-3.1,3.7-6.3,5.4-9.5
			c0,0,0,0-0.1,0C519.6,480,519.2,480,518.8,479.9z"/>
		<path class="st5" d="M472.2,525.5c-4.6-6.4-15.5-8.5-22.6-9.4c-28.2-3.6-56.7-5.1-84.6-10.1c-28-5-55.8-13.9-78.7-30.9
			c-8.2-6.1-18.7-17.9-29.1-19.8c-11.1-2.1-23.5,7.9-30.7,15.8c-4.7,5.1-8.6,10.9-11.8,17.1c-2.7,5.1-5,10.5-6.9,16
			c-4.6,12.8-7.5,26.2-8.7,39.7c-0.1,1.2-0.2,2.5-0.3,3.7c-0.3,3.9-0.4,7.8-0.4,11.7c0,6.9,0.5,13.8,1.4,20.6
			c0.3,2.3,0.7,4.6,1.1,6.9c0.7,4.1,1.5,8.2,2.3,12.3c3.8,19.6,7.8,40.5,8.3,60.6c0,1.2,0.1,2.4,0.1,3.7c12.7,0.6,25.5-0.5,37.9-3.2
			l-0.2,1.5c0.1,0.4,0.1,0.9,0.2,1.3c0.3-5,1.6-10,3.2-14.6c2.3-6.4,5.3-12.9,10.4-17.4c5.9-5.2,14.8-6.6,23.7-5.5
			c9.2,1.1,18.5,4.8,24.1,9.6c7.7,6.5,16.2,21.7,19.4,31.5c2.1,6.3,3.6,12.7,5.2,19.1c1.4,5.7,2.8,11.5,4.5,17.1
			c1.1,3.6,3.4,9.2,6.2,11.8c1.5,1.4,3.4,2.1,5.3,2.8c10.7,3.9,24.3,6.2,35.3,2.5c3-1,6.2-2.9,6.5-6c0.1-1.2-0.2-2.5-0.6-3.6
			c-6.1-20.6-9.9-40.9-14.5-61.7c-2.3-10.3-4.2-24.9,11.8-22.5c24.4,3.7,20.8,49.6,23.1,67c1.1,8.1,2.3,16.6,7.1,23.2
			c8.5,11.8,25.3,13.7,39.7,11.9c6.3-0.8,14.1-3.7,14.3-10.1c0.1-2.8-1.4-5.4-2.7-7.9c-10.9-20.8-11.8-45.2-12.4-68.7
			c-0.3-13.4-0.2-26.7,0.3-40.1c0.4-10.8-0.8-20.9,2-31.7c2.6-10.3,14.4-28.8,13-39C474,528.7,473.2,527,472.2,525.5z M458.9,646.6
			c-12.3,1.6-24.9,0.6-36.8-2.8c-1.4-0.4-3.2-1.7-2.5-3c12.9-2.8,25.7-6.4,38.2-10.7l-0.3,0.8C458,636.2,458.4,641.4,458.9,646.6z"
			/>
		<path class="st6" d="M475.1,462c-5-1.5-8.8-5.5-11.7-9.8c-8.6-12.8-11.2-29.4-7.4-44.3c0.7-2.8,1.6-6,2.9-8.8
			c-0.1,0-0.1,0.1-0.2,0.1c-4.8,2.4-9.1,5.9-12.6,10.1c-5.5,6.5-9.4,14.5-11.6,22.9c0.5,2.3,1.4,4.5,2.3,6.7
			c3.3,7.5,7.8,14.6,14.1,19.8c6.3,5.2,14.6,8.4,22.7,7.4c4.2-0.5,8.2-2.1,11.8-4.4C482,462.7,478.5,463,475.1,462z"/>
		<path class="st7" d="M430.5,470.7c0.1-10.5,0.8-21,2.4-31.2c0.4-2.5,0.9-4.9,1.6-7.3c2.3-8.4,6.1-16.3,11.6-22.9
			c3.5-4.2,7.8-7.7,12.6-10.1c0.1,0,0.1-0.1,0.2-0.1c0.3-0.6,0.6-1.2,0.9-1.8c1.8-3,5.3-3.9,8.6-4.9c8.5-2.7,17.6-3.5,26.4-2.2
			c2.1,0.3,4.1,0.8,5.9,1.4c2.7-0.1,5.5-0.1,8.2-0.2c-5.7-1.1-11.5-1.8-17.4-2.1c-5.9-0.2-11.8,0.1-17.6,1c-2.9,0.5-5.8,1-8.7,1.6
			c-1.4,0.3-2.9,0.7-4.4,1.1c-1.5,0.5-2.9,1.1-4.3,1.7c-5.6,2.6-10.5,6.6-14.4,11.3c-3.9,4.7-6.9,10-9.1,15.6c-0.8,2-1.4,4-2,6
			C430.3,442,429.6,456.4,430.5,470.7z"/>
		<path class="st4" d="M468.5,392.4c-3.3,1.1-6.8,1.9-8.6,4.9c-0.3,0.6-0.6,1.2-0.9,1.8c-1.3,2.8-2.2,6-2.9,8.8
			c-3.8,14.9-1.2,31.5,7.4,44.3c2.9,4.3,6.7,8.4,11.7,9.8c3.3,1,6.9,0.7,10.2-0.3c1.4-0.4,2.8-1,4.1-1.6
			c9.2-4.3,16.5-12.5,19.6-22.1c2.3-7,2.5-14.4,2.4-21.7c-0.1-6-0.4-12.4-3.1-17.8c-1.7-3.4-4.1-5.4-7.1-6.7
			c-0.2-0.1-0.4-0.2-0.6-0.2c-1.8-0.7-3.7-1.1-5.9-1.4C486,388.9,476.9,389.7,468.5,392.4z M498.7,415.2c-0.2,0.9-0.7,1.9-1.5,2.3
			c-0.7,0.4-1.6,0.4-2.4,0.3c-2.5-0.3-5.3-1.1-6.4-3.4c-1.2-2.2-0.3-6.4,2.2-7.6c1.9-1,5.1,0.5,6.5,1.9
			C498.7,410.7,499.3,412.7,498.7,415.2z"/>
		<path class="st6" d="M333.9,442.5c-2.3-7-2.5-14.4-2.4-21.7c0.1-6,0.4-12.4,3.1-17.8c1.7-3.4,4.1-5.4,7.1-6.7
			c1.9-0.8,4.1-1.3,6.5-1.7c1.2-0.2,2.4-0.3,3.6-0.3c-3.6-1.2-7.2-2.2-11-2.8c-5.5-1-11.1-1.4-16.8-1.5c-2.9-0.1-5.7,0-8.6,0
			c-0.8,0-1.7,0-2.5,0c-4.8,4.3-3.7,32.3-3.1,35.9c2.2,12.9,7.8,25.5,18.4,33.5c6.3,4.7,14.6,7.6,22.7,6.7c2.4-0.2,4.7-0.8,6.8-1.6
			c-3.1,0-6.1-0.7-8.6-2.3C342,457.6,336.5,450.6,333.9,442.5z"/>
		<path class="st4" d="M385.2,421.9c-0.3-1.3-0.7-2.6-1.1-3.7l-0.3-0.8l-0.4-0.7l-0.2-0.3l-0.1-0.1l-0.1-0.2l-0.6-0.8
			c-1.5-2.1-3.3-4.1-5.2-6c-1.9-1.8-4-3.5-6.2-5.1c-4.4-3.1-9.3-5.8-14.4-7.9c-1.6-0.7-3.2-1.3-4.8-1.8c-1.2,0.1-2.4,0.2-3.6,0.3
			c-2.4,0.3-4.6,0.8-6.5,1.7c-2.9,1.2-5.3,3.2-7.1,6.7c-2.8,5.4-3.1,11.8-3.1,17.8c-0.1,7.3,0.1,14.8,2.4,21.7
			c2.6,8,8.1,15.1,15.2,19.7c2.5,1.6,5.5,2.3,8.6,2.3c5.3,0,10.9-1.9,15-4.5c8.3-5.4,13.1-13.8,15-23.1c-0.3-2.3-0.6-4.6-0.9-6.9
			C386.3,427.3,385.8,424.5,385.2,421.9z M361.2,406.9c1.9-1,5.1,0.5,6.5,1.9c1.7,1.9,2.3,3.9,1.7,6.4c-0.2,0.9-0.7,1.9-1.5,2.3
			c-0.7,0.4-1.6,0.4-2.4,0.3c-2.5-0.3-5.3-1.1-6.4-3.4C357.8,412.2,358.7,408.1,361.2,406.9z"/>
		<path class="st8" d="M422.5,494.2c-1.3,1.2-2.8,2.3-4.1,3.3c-3.5,2.5-7.8,4.5-12.1,3c-2.7-0.9-4.6-2.8-6.3-4.9
			c-15.4,2.2-30.5,6.5-46,8.6c-21.5,2.9-45.6,1.8-66.4-4.6c1.9,3.1,4.4,6.1,7.2,8.9c14.4,14,32.8,23.5,52.3,28.2
			c10,2.5,20.4,3.9,30.7,4.4c10.4,0.6,20.9,0.2,31.3-0.7c19.3-1.7,38.4-5.6,57.4-10.6c7-3,13.8-6.6,20.1-11
			c3.9-2.7,7.7-5.7,11.3-9.1c0,0-0.1,0-0.1,0C473.1,502.2,448.1,494.8,422.5,494.2z M440.4,519.6c-1.7,1-3.6,1.8-5.6,2.3
			c-2,0.5-4,0.6-6.1,0.4c-4.1-0.4-8-2.3-11-4.9c-2.2-1.9-4.1-4.2-5.5-6.8c-0.9,2.1-2,4.1-3.5,5.9c-2.1,2.7-4.8,4.9-7.7,6.6
			c-3,1.6-6.3,2.6-9.6,2.8c-3.3,0.2-6.7-0.5-9.6-2c3.1,1.1,6.4,1.3,9.5,0.8c3.1-0.5,6.1-1.7,8.7-3.3c2.6-1.7,4.9-3.8,6.8-6.3
			c1.8-2.5,3.2-5.3,4-8.3l1-4l1.5,3.9c1.3,3.4,3.4,6.5,6.1,8.9c2.7,2.4,6,4.2,9.6,4.7c3.6,0.6,7.3-0.1,10.7-1.7
			c3.4-1.6,6.3-4.1,8.6-7.3C446.6,514.6,443.8,517.6,440.4,519.6z"/>
		<path class="st4" d="M439.7,518.4c-3.4,1.6-7.1,2.3-10.7,1.7c-3.6-0.6-6.9-2.3-9.6-4.7c-2.7-2.4-4.8-5.5-6.1-8.9l-1.5-3.9l-1,4
			c-0.8,3-2.2,5.8-4,8.3c-1.8,2.5-4.2,4.6-6.8,6.3c-2.6,1.7-5.6,2.9-8.7,3.3c-3.1,0.5-6.4,0.3-9.5-0.8c2.9,1.6,6.3,2.2,9.6,2
			c3.3-0.2,6.7-1.2,9.6-2.8c3-1.6,5.6-3.9,7.7-6.6c1.4-1.8,2.6-3.8,3.5-5.9c1.4,2.6,3.3,4.9,5.5,6.8c3.1,2.7,6.9,4.5,11,4.9
			c2,0.2,4.1,0.1,6.1-0.4c2-0.5,3.8-1.3,5.6-2.3c3.4-2,6.2-5,8-8.5C446.1,514.2,443.1,516.8,439.7,518.4z"/>
		<path class="st4" d="M276.7,486c0.2,0,0.4,0,0.6,0c-1.8-2.8-3.5-5.6-4.9-8.5c-0.1,0.1-0.2,0.3-0.3,0.4c0.8,1.6,1.7,3.1,2.6,4.6
			C275.3,483.7,276,484.9,276.7,486z"/>
		<path class="st4" d="M271.7,484c-0.6-1.2-1.1-2.4-1.7-3.7c-25.7,32.8-36.9,76.7-29.9,117.8c5.2-18,8.7-36.5,14.9-54.3
			c5.7-16.1,13.8-31.8,26-43.6C277.6,495.1,274.4,489.7,271.7,484z"/>
		<path class="st4" d="M284.6,497.2c0.1-0.1,0.2-0.2,0.3-0.3c0,0-0.1-0.1-0.1-0.1c-0.2,0-0.4,0-0.6-0.1
			C284.3,496.9,284.4,497.1,284.6,497.2z"/>
		<path class="st4" d="M290,511.3c-11.9,13.5-17.6,36.4-17.9,53.2c2.6-1.4,4.1-4.2,5.4-6.8c6.6-12.8,14.5-24.8,23.6-35.9
			C297.2,518.6,293.5,515.1,290,511.3z"/>
		<path class="st4" d="M311.3,529C311.3,529,311.3,529,311.3,529c-3.4,7-7.3,17.7-9.1,25.3c-1.8,7.4-2.7,15-2.9,22.6
			c-0.1,3.9,0.1,7.8,0.4,11.7c0.3,2.8,2.4,8.4,1.6,11c5.9-21.8,12-44.1,24.3-63c-3.6-1.6-7.1-3.3-10.6-5.3
			C313.8,530.5,312.5,529.8,311.3,529z"/>
		<path class="st7" d="M261.4,455.4c3,6.6,5.9,13.2,9.1,19.6c14.8,5.6,29.5,8.3,45.4,7.8c6.9-0.2,14-1,20.1-4.5
			c-16.3-1.1-32.9-3.1-47.8-10c-14.7-6.9-27.6-19.3-31.4-35.1c0-0.1-0.1-0.2-0.1-0.4c0.1,0.3,0.1,0.6,0.2,0.9
			C258.3,441.5,259,447.1,261.4,455.4z"/>
		<path class="st7" d="M284.2,496.7c0.2,0,0.4,0.1,0.6,0.1c0.5,0,0.9,0,1.4,0c7.4-0.1,14.7-0.4,22-0.9c2.6-0.2,5.8-0.7,6.7-3.2
			c-7.2-0.2-14.4-1.1-21.5-2.5c-5.1-1-10.8-3.7-16.2-4.2c-0.2,0-0.4,0-0.6,0C279,489.7,281.5,493.3,284.2,496.7z"/>
		<path class="st9" d="M260.8,454c2.7,8.9,5.5,17.8,9.3,26.4c0.5,1.2,1.1,2.4,1.7,3.7c2.7,5.6,5.8,11.1,9.4,16.3
			c2.6,3.7,5.4,7.3,8.5,10.6c0.1,0.1,0.3,0.3,0.4,0.4c3.4,3.8,7.2,7.3,11.2,10.5c3.2,2.6,6.6,5,10.1,7.2c1.2,0.8,2.5,1.5,3.8,2.3
			c3.4,2,7,3.7,10.6,5.3c6.4,2.8,13,5,19.7,6.7c10.6,2.6,21.3,3.9,32.1,4.3c5.4,0.1,10.8,0,16.1-0.3c5.4-0.3,10.7-0.8,16-1.6
			c21.2-2.9,41.9-8.8,61.5-17.2c-1.6,0.4-3.1,0.9-4.7,1.3c-18.9,5.1-38.1,8.9-57.4,10.6c-10.4,0.9-20.9,1.3-31.3,0.7
			c-10.4-0.5-20.7-1.9-30.7-4.4c-19.5-4.7-37.8-14.2-52.3-28.2c-0.4-0.4-0.8-0.8-1.2-1.2c-3.2-3.2-6.1-6.5-8.9-10.1
			c-0.1-0.2-0.2-0.3-0.4-0.5c-2.7-3.4-5.2-7-7.5-10.7c-0.7-1.2-1.4-2.3-2.1-3.5c-0.9-1.5-1.7-3.1-2.6-4.6c-0.5-1-1-1.9-1.5-2.9
			c-3.2-6.4-6.1-13-9.1-19.6C261.2,454.9,261,454.5,260.8,454z"/>
		<path class="st4" d="M495.6,490.3c-2.1-0.1-22.2-3.6-22.5-3.1c-0.7,1.5,1,2.9,2.5,3.5c10.1,4.6,20.9,7.4,32,8.4
			c0.2,0,0.4,0,0.6,0.1c3-2.7,5.6-6.1,6.9-9.9c-0.1,0-0.3,0-0.4,0C508.5,490,502.1,490.8,495.6,490.3z"/>
		<path class="st4" d="M331.3,291c-2.8,3.3,2,13.5,3.1,18c1.8,6.9,3.4,13.9,4.9,21c1.1,5.4,5,15.2,3.8,20.5
			c4.9-21.7,7.5-44,7.6-66.3C346.5,285.9,334.1,287.7,331.3,291z"/>
		<path class="st4" d="M368.8,284.7c-1.5,7.3,3.5,20.2,4.8,27.6c1.8,9.5,3.7,19,5.8,28.4c1.6,7.2,7.6,19.7,6.7,26.8
			c4-29.8,4.6-59.9,2-89.8c0-0.2,0-0.4,0-0.6c-3.2,0.4-8.3,0.6-12.4,1.8C372.2,279.9,369.4,281.6,368.8,284.7z"/>
		<path class="st4" d="M407.5,278.5c-2.3,4,1.4,18.5,1.9,23.2c0.7,7.5,1.5,15.1,2.3,22.6c0.7,6.5,3.6,15.4,2.7,21.9
			c3.2-22.7,7.4-45.3,11.6-67.8c0-0.1,0-0.2,0.1-0.4c-3.5-0.5-12.9-2.4-16.9-0.7C408.4,277.5,407.9,277.9,407.5,278.5z"/>
		<path class="st4" d="M442.9,283.2c-2.9,3.6-1,19.5-1.3,24.3c-0.4,7.9-0.7,15.8-0.9,23.7c-0.1,3.3,1.6,22-0.6,23.7
			c3.7-2.8,5.2-7.6,6.6-12.1c5.6-18.8,10.8-37.7,15.7-56.7c0,0,0,0,0-0.1c-2.8-1-9.4-3.5-14.2-4
			C445.8,281.8,443.8,282.1,442.9,283.2z"/>
		<path class="st4" d="M525,468.4c-0.5-1.1-7.4,1.8-9.2,2.2c-7,1.7-14.3,2.5-21.5,2.4c4.3,3.1,9.6,4.3,14.7,5.3
			c3.2,0.6,6.5,1.1,9.8,1.6c0.4,0.1,0.8,0.1,1.1-0.1c0,0,0,0,0.1,0c0.4-0.2,0.6-0.6,0.8-1c1-2,2.7-6.7,4.1-10
			C525,468.6,525,468.5,525,468.4z"/>
		<path class="st7" d="M406.3,500.5c4.4,1.5,8.6-0.5,12.1-3c1.4-1,2.8-2.1,4.1-3.3c0.4-0.4,0.8-0.7,1.1-1.1c1.2-1.4,1.7-3.2,3-4.6
			c1.3-1.5,3-2,4.8-2.8c1.4-0.7,2.6-1.7,3.2-3.1c1.7-3.8-0.9-4.5-3.9-4.5c-8.9,0.1-18.1,1.4-26.9,2c-4.6,0.3-9.1,0.6-13.7,0.9
			c-0.6,0-1.2,0.1-1.9,0.1c-1,0.1-2.8-0.1-3.8,0.6c-0.3,0.2-0.5,0.4-0.6,0.7c-0.6,1.7,2.1,4,3.4,4.6c1.2,0.5,2.5,0.7,3.7,1.1
			c4.2,1.2,6.4,4.6,9,7.6C401.7,497.6,403.5,499.5,406.3,500.5z"/>
		<path class="st10" d="M404.1,627.9c12.4-12.2,20.6-28.4,23.2-45.5c0.2-1.2,0.3-2.6-0.2-3.7c-1.3-2.8-5.4-2.4-8.5-2.1
			c-12.3,1.2-24.6-8.6-26.2-20.8c-9.4,7.3-9.8,21.2-14.9,32c-0.5,1.1-1.2,2.3-2.3,2.9c-1.1,0.6-2.5,0.5-3.8,0.3
			c-5.4-0.6-10.7-1.2-16.1-1.8c-1.3,5.7,2.1,11.4,5.3,16.3c3.7,5.7,10.8,27.5,17.1,24.4c0.5-0.2,0.9-0.5,1.4-0.7
			c6.2-3.3,8.6-5.3,15.7,0c0.8,0.6,2.5,1.7,3.9,2.4c0.6,0.3,1.2,0.5,1.6,0.5C401.6,632.1,403.2,628.8,404.1,627.9z"/>
		<path class="st4" d="M325.1,653.7c8.4-1.3,16.9-2.5,25.3-3.8c7.2-1.1,15.1-2.5,20-7.9c-15.8-1.2-38-4.7-53-0.4
			c0.2,0.3,0.6,0.8,1.1,1.5c1.2,1.6,2.9,4.2,4.3,6.6C323.8,651.2,324.6,652.7,325.1,653.7z"/>
		<path class="st4" d="M375.2,664.8c-9.9,0.5-24.3,3.7-34.5,3.8c-1.3,0-2.7,0.1-3.5,1.1c-1.6,2.2,2,4.5,4.7,4.9
			c14,2.1,28.8,3.7,42.9,4.7c0,0,0,0,0.1,0c-1.2-5.3-1.7-8.9-2.5-11.1C381.3,665.4,379.6,664.6,375.2,664.8z"/>
		<path class="st4" d="M457.7,630.5c-1.8-0.5-4.9,1.3-6.4,1.8c-3.4,1.1-6.9,2.1-10.3,3.1c-7.1,2-14.2,3.8-21.4,5.4
			c-0.7,1.3,1.1,2.6,2.5,3c8.4,2.4,17.1,3.5,25.7,3.5c2.8,0,10,0.7,11.2-1.7c0.8-1.5,0.3-5,0.2-6.7c0-2.2-0.1-4.5-0.4-6.7
			C458.9,631.2,458.4,630.7,457.7,630.5z"/>
		<path class="st4" d="M449.8,669.2c-13.5-0.5-27-2.1-40.3-4.8l-0.4-0.3c0.3,2.6,0.7,5.2,1,7.8c0,0.4,0.1,0.8,0.1,1.1
			c0.2,2.3,0.3,4.6,0.8,6.8c0,0,0,0,0.1,0c6.5-0.5,13.1-2.4,19.4-4.1C437.1,673.9,443.5,671.7,449.8,669.2z"/>
		<path class="st4" d="M249.3,660.1c-12.4,2.8-25.2,3.8-37.9,3.2c0,0-0.1,0-0.1,0c0,0,0.1,0,0.1,0.1c11.3,7,25.2,9.7,38.3,7.5
			c0.2,0,0.5-0.1,0.7-0.1c-0.4-2.6-0.7-5.3-1.1-7.9c-0.1-0.4-0.1-0.9-0.2-1.3L249.3,660.1z"/>
		<path class="st4" d="M325.7,664.8c0.4-1.8,0-3.8-1-5.4l-28.4-0.6l-0.1,0c0,0,0.1,0,0.1,0.1C306,663,315.1,665.4,325.7,664.8z"/>
		<path class="st4" d="M251.8,638.1c-10.8,0-23.9-9.4-43.6-9.8c-0.2,0-0.4-0.1-0.6-0.1c-0.3,3.7,0.7,7.3,1.4,11.1c0.2,0,0.4,0,0.7,0
			C227.6,642.7,265.9,638.1,251.8,638.1z"/>
		<path class="st7" d="M392.2,447.1c0.4-5.8,0.6-11.7,0.3-17.6c-0.2-3-0.4-5.9-0.9-9c-0.3-1.4-0.6-2.9-1-4.4c0-0.1-0.1-0.2-0.1-0.3
			l-0.4-1.2c-0.2-0.4-0.3-0.8-0.6-1.3l-0.4-0.7l-0.2-0.3l-0.2-0.2l-0.6-1c-3.4-5.3-8-9.7-13-13.3c-5-3.6-10.4-6.4-16.1-8.6
			c-2.8-1.1-5.8-1.9-8.7-2.6c-3-0.7-6-1.1-9-1.3c-6-0.5-12-0.2-17.8,0.7c-2.9,0.4-5.8,1-8.6,1.7c-1.4,0.3-2.8,0.7-4.2,1.1
			c-1.4,0.4-2.8,0.8-4.2,1.2c1.5,0,2.9,0,4.4,0c0.6,0,1.2,0,1.9,0c0.8,0,1.7,0,2.5,0c2.9,0,5.8,0,8.6,0c5.7,0.1,11.3,0.5,16.8,1.5
			c3.7,0.7,7.4,1.6,11,2.8c1.6,0.6,3.2,1.2,4.8,1.8c5,2.1,9.9,4.8,14.4,7.9c2.2,1.6,4.3,3.3,6.2,5.1c1.9,1.9,3.7,3.8,5.2,6l0.6,0.8
			l0.1,0.2l0.1,0.1l0.2,0.3l0.4,0.7l0.3,0.8c0.4,1.1,0.8,2.4,1.1,3.7c0.6,2.6,1.2,5.4,1.6,8.2c0.3,2.3,0.6,4.6,0.9,6.9
			c0.4,3.4,0.7,6.8,1,10.2c0.5,5.7,0.9,11.5,0.9,17.3c0.2-0.7,0.4-1.5,0.6-2.3c0.5-2.1,0.8-4.2,1.2-6.3
			C391.7,452.9,392,450,392.2,447.1z"/>
		<path class="st11" d="M365.4,417.8c0.8,0.1,1.7,0.1,2.4-0.3c0.8-0.5,1.3-1.4,1.5-2.3c0.6-2.5,0.1-4.5-1.7-6.4
			c-1.3-1.4-4.5-2.9-6.5-1.9c-2.4,1.2-3.3,5.3-2.2,7.6C360.2,416.7,362.9,417.5,365.4,417.8z"/>
		<path class="st11" d="M490.5,406.9c-2.4,1.2-3.3,5.3-2.2,7.6c1.2,2.2,3.9,3.1,6.4,3.4c0.8,0.1,1.7,0.1,2.4-0.3
			c0.8-0.5,1.3-1.4,1.5-2.3c0.6-2.5,0.1-4.5-1.7-6.4C495.7,407.4,492.5,405.9,490.5,406.9z"/>
		<path class="st4" d="M320.3,686.4c-0.7-0.9-1.5-1.7-2.5-2.3c0.5,1,1,2,1.5,2.9c0.5,1,1,1.9,1.4,2.9c0.4,1,0.8,2,1.2,3l1.1,3.1
			c0.2-1.1,0.2-2.3,0-3.4c-0.2-1.1-0.5-2.2-1-3.3C321.6,688.3,321,687.3,320.3,686.4z"/>
		<path class="st4" d="M327.3,691.5c-0.2-1.1-0.5-2.2-1-3.3c-0.5-1-1.1-2-1.8-2.9c-0.7-0.9-1.5-1.7-2.5-2.3c0.5,1,1,2,1.5,2.9
			c0.5,1,1,1.9,1.4,2.9c0.4,1,0.8,2,1.2,3l1,2.9l0.1,0.2c0-0.1,0-0.2,0-0.3C327.5,693.6,327.5,692.5,327.3,691.5z"/>
		<path class="st4" d="M246.3,694.9c0.4,1,0.8,2,1.2,3l1.1,3.1c0.2-1.1,0.2-2.3,0-3.4c-0.2-1.1-0.5-2.2-1-3.3c-0.5-1-1.1-2-1.8-2.9
			c-0.7-0.9-1.5-1.7-2.5-2.3c0.5,1,1,2,1.5,2.9C245.4,692.9,245.8,693.9,246.3,694.9z"/>
		<path class="st4" d="M251.5,692.8c0.4,1,0.8,2,1.2,3l1.1,3.1c0.2-1.1,0.2-2.3,0-3.4c-0.2-1.1-0.5-2.2-1-3.3c-0.5-1-1.1-2-1.8-2.9
			c-0.7-0.9-1.5-1.7-2.5-2.3c0.5,1,1,2,1.5,2.9C250.6,690.8,251.1,691.8,251.5,692.8z"/>
		<path class="st4" d="M370,716.2c0.4,1,0.8,2,1.2,3l1.1,3.1c0.2-1.1,0.2-2.3,0-3.4c-0.2-1.1-0.5-2.2-1-3.3c-0.5-1-1.1-2-1.8-2.9
			c-0.7-0.9-1.5-1.7-2.5-2.3c0.5,1,1,2,1.5,2.9C369.1,714.3,369.6,715.2,370,716.2z"/>
		<path class="st4" d="M375.3,714.1c0.4,1,0.8,2,1.2,3l1.1,3.1c0.2-1.1,0.2-2.3,0-3.4c-0.2-1.1-0.5-2.2-1-3.3c-0.5-1-1.1-2-1.8-2.9
			c-0.7-0.9-1.5-1.7-2.5-2.3c0.5,1,1,2,1.5,2.9C374.4,712.2,374.9,713.1,375.3,714.1z"/>
		<path class="st4" d="M454.4,724c0.4,1,0.8,2,1.2,3l1.1,3.1c0.2-1.1,0.2-2.3,0-3.4c-0.2-1.1-0.5-2.2-1-3.3c-0.5-1-1.1-2-1.8-2.9
			c-0.7-0.9-1.5-1.7-2.5-2.3c0.5,1,1,2,1.5,2.9C453.5,722,454,723,454.4,724z"/>
		<path class="st4" d="M459.7,721.9c0.4,1,0.8,2,1.2,3l1.1,3.1c0.2-1.1,0.2-2.3,0-3.4c-0.2-1.1-0.5-2.2-1-3.3c-0.5-1-1.1-2-1.8-2.9
			c-0.7-0.9-1.5-1.7-2.5-2.3c0.5,1,1,2,1.5,2.9C458.8,719.9,459.2,720.9,459.7,721.9z"/>
	</g>
	<path class="st3" d="M430.7,478c0.2-1.4,0.1-3,0-4.4c-0.1-1-0.1-1.9-0.2-2.9c-0.9-14.4-0.1-28.7,0.7-43.1
		c0.3-5.2,0.6-10.4,0.9-15.6c0.5-10.3-1-15.9,7.3-23.4c14.5-13.1,35.9-18.1,54.7-12.8c-5.2-3.1-11.5-3.9-17.6-4.4
		c-21.5-1.7-43.3-0.4-64.9-0.4c-28.4,0-56.7-1-85-0.2c-1.5,0-3,0.1-4.5,0.4c-1.7,0.4-3.7,1.7-3.3,3.5c0.4,1.7,2.7,2.1,4.5,2.1
		c17-0.3,34.4-3.2,48.6,8.2c3.9,3.1,7.5,6.7,10.6,10.6c3.8,4.8,7.9,13.9,8.1,20c0,0.2,0,0.4,0,0.6c0.4,1.5,0.7,2.9,1,4.4
		c0.5,3,0.8,6,0.9,9c0.3,5.9,0.1,11.8-0.3,17.6c-0.2,2.9-0.5,5.8-1,8.7c-0.3,2.1-0.7,4.2-1.2,6.3c-0.1,8.5-0.1,15.7,0,18.8
		c4.6-0.3,9.1-0.6,13.7-0.9C412.6,479.4,421.8,478.1,430.7,478z"/>
	<path class="st10" d="M266,347.1c2.9-1.3,7.3-6.2,11.8-12c-6-2.3-12.1-4.2-18.3-6c4.3-0.4,8.7-0.8,13-1.3
		c-3.9-5.6-6.5-12.1-7.5-18.9c5.3,7.4,10.5,14.8,15.8,22.2c4.9-6.7,9.5-13.6,11.7-16.9c1.1-1.6,2.2-3.5,1.6-5.3
		c-0.4-1.1-1.3-1.9-2.2-2.7c-8.1-6.9-17.2-12.6-26.9-17c-2.7-1.2-5.8-2.3-8.6-1.4c-7.2,2.4-5,14-10.5,19.3c-2.3,2.3-6.1,3.4-7.1,6.5
		c-0.5,1.7,0,3.6,0.6,5.3C242.6,328,255.7,351.5,266,347.1z"/>
	<path class="st4" d="M264.9,309c1,6.8,3.6,13.3,7.5,18.9c-4.3,0.4-8.7,0.8-13,1.3c6.2,1.7,12.3,3.7,18.3,6c1.9,0.7,3.8,1.5,5.7,2.2
		l1.5-0.2c-1.4-2-2.8-4-4.2-6C275.4,323.8,270.2,316.4,264.9,309z"/>
	<path class="st10" d="M505,314.4c1.8,2.8,5.2,8.3,9,14.1c2.5-4.8,4.9-9.7,7.1-14.7c-0.2,4.3-0.4,8.7-0.6,13
		c6.1-3.1,12.9-4.7,19.8-4.8c-7.6,3.9-15.1,7.8-22.7,11.7c4.7,6.7,9.5,12.8,12.7,14.3c10.1,4.7,24.1-18.2,27.6-27
		c0.7-1.7,1.3-3.5,0.8-5.3c-0.8-3.2-4.6-4.4-6.8-6.8c-5.2-5.5-2.7-17-9.8-19.7c-2.8-1.1-5.9-0.1-8.7,1.1c-9.9,4-19.2,9.4-27.5,16
		c-0.9,0.7-1.9,1.5-2.3,2.6C502.9,310.8,503.9,312.8,505,314.4z"/>
	<path class="st4" d="M540.3,322.1c-6.8,0.1-13.7,1.7-19.8,4.8c0.2-4.3,0.4-8.7,0.6-13c-2.2,5-4.6,9.9-7.1,14.7
		c-1.4,2.7-2.9,5.3-4.4,8l-0.1,1.5c2.7-1.4,5.3-2.8,8-4.1C525.1,329.9,532.7,326,540.3,322.1z"/>
</g>
<g id="cadre_9_">
	<rect x="0" y="0" class="st12" width="680.3" height="878.7"/>
</g>
</svg>
