<svg id="gaming" xmlns="http://www.w3.org/2000/svg" viewBox="0 0 680.31 878.74"><defs><style>.cls-1,.cls-9{fill:none;}.cls-2{fill:#3d64aa;}.cls-3{fill:#118e5d;}.cls-4{fill:#1d1e1c;}.cls-5{fill:#ededec;}.cls-6{fill:#040404;}.cls-7{fill:#fff;}.cls-8{fill:#9da7bc;}.cls-9{stroke:#9da7bc;stroke-linecap:round;stroke-linejoin:round;stroke-width:0;}.cls-10{fill:#163659;}.cls-11{fill:#d93843;}.cls-12{fill:#fbc858;}.cls-13{fill:#fbc859;}.cls-14{fill:#a45e3e;}</style></defs><g id="cadre"><rect class="cls-1" width="680.31" height="878.74"/></g><path class="cls-1" d="M171.84,655.62c-1.57,1.8-2.27,4.37-2.81,6.64-.73,3.1-1.12,6.29-1.63,9.43l-.6,3.71A15.52,15.52,0,0,0,168,672c.39-1.88,0-4.28,1.22-5.91,1.51-2,3.55-.34,4.78,1.08,2.12-2.51.54-6.94,3.36-9a.28.28,0,0,1,0-.09C176.94,655.64,173.78,653.4,171.84,655.62Z"/><path class="cls-1" d="M513.19,502.45c-3.61,4-7.42,8.5-7.29,13.8.27,11.17,16.07,14.41,27.44,12.61l.17,0c-1-13.81-2.09-29.78-3.18-45.32Q521.77,493,513.19,502.45Z"/><path class="cls-1" d="M140.77,663.85c-2.61,1.89-3.33,5.75-4.25,8.85a2.76,2.76,0,0,1,1,.86c1.57,2.08,1.47,5.21,2.09,7.64.23.91.6,2.42,1.6,2.8,1.28.49,3.36-2.31,4.07-3.1l1-1.12a79.26,79.26,0,0,0-.76-9.35C145.32,668.75,143.94,661.54,140.77,663.85Z"/><path class="cls-1" d="M572,437.51l-7.49,8.26c1,8.56,2.62,23,3.83,33.68,2.09-.7,4-1.41,4.4-1.59,10.6-4.75,21.89-16.87,22.91-28.38a19.91,19.91,0,0,0-.35-5.71c-5.11-4-11.71-5.1-18.24-5.81C576.58,437.91,574.43,437.66,572,437.51Z"/><path class="cls-1" d="M377.37,343.06c-.36,2.32-.55,4.86.73,6.85a5.31,5.31,0,0,0,1.1,1.25l-.42-14.77C378.21,338.57,377.73,340.79,377.37,343.06Z"/><path class="cls-1" d="M221.32,485.92c-10.55,5.36-21,10.91-31.81,15.63a86.25,86.25,0,0,1-15,5.13,70,70,0,0,0-.59,17.81,68.55,68.55,0,0,0,3.14,17.09,32.69,32.69,0,0,0,22.59,8.81,30.2,30.2,0,0,0,15.13-3.9c8.6-5,14.14-13.85,16.83-23.13a48.22,48.22,0,0,0-.6-29.49l-.16-.39A38.38,38.38,0,0,0,221.32,485.92Z"/><path class="cls-1" d="M114.08,667.28c-2.13.49-3.43,2.25-4.54,4.19a3.59,3.59,0,0,0,1.08,1.41c2.34,1.78,4.91-2.53,6.74-3.56.18-.1.36-.17.53-.25C116.88,667.84,115.59,666.94,114.08,667.28Z"/><path class="cls-1" d="M457.26,526.82c1.06-2.27,2.09-4.56,3.06-6.87a24.9,24.9,0,0,0,1.25-3.62l-5.88,1.49Z"/><path class="cls-1" d="M420.17,334.13c2.44-2.24,4.81-4.6,7.12-7.05l-8.89-12.63Z"/><path class="cls-1" d="M511,335.94l7.18,25.66-23.53,6.16A57.21,57.21,0,0,0,492.51,386c15.35-2.64,29.23-8.93,42.52-16.74-2.47-10.82-7.2-29.53-12.31-49.32C518.75,325.25,514.75,330.57,511,335.94Z"/><path class="cls-1" d="M269.84,489.84a95.54,95.54,0,0,1,3.28,50.84c6-11.55,13-23,17.86-34.77l-10.37-41.13a114.47,114.47,0,0,0-21.7,4.79l.41.82A74.13,74.13,0,0,1,269.84,489.84Z"/><path class="cls-2" d="M634.33,489.72a17.77,17.77,0,0,0-3.13-1.53,58.24,58.24,0,0,1-18.48,16.53c-.52.31-1.8.92-3.57,1.73l18.22,40.47q4.46-7,8.44-14.28C643.42,518.69,648.05,498.24,634.33,489.72Z"/><path class="cls-2" d="M563.68,438.57s.33,2.86.82,7.2l7.49-8.26C568.12,437.26,563.53,437.24,563.68,438.57Z"/><path class="cls-2" d="M221.32,485.92c-11.22-6.27-25.42-6.64-37,2.75-5.62,4.54-8.48,11-9.76,18a86.25,86.25,0,0,0,15-5.13C200.27,496.83,210.77,491.28,221.32,485.92Z"/><path class="cls-2" d="M601,566.24l-14-50.65c-6.65,2.54-12,4.33-12.17,3.63l6.42,62.53-37.65-1.87s-.31-4.42-.82-11.76l-6.59-.33s-1.16-16.65-2.73-39l-.17,0c-11.37,1.8-27.17-1.44-27.44-12.61-.13-5.3,3.68-9.82,7.29-13.8q8.56-9.46,17.14-18.94c-2.48-35.44-4.81-68.63-4.81-68.67-.26-3.74,34.06-9.46,36.93-9.8a117.47,117.47,0,0,1,14-.87,84.81,84.81,0,0,1,23,2.95l7.85-8.67a190.78,190.78,0,0,0,15.43-18.86c-17.32,2.52-76.15,11.32-77.46,12.14,0-1.34-1.14-6.63-3-14.39a48.93,48.93,0,0,0-5.52,1.1,77,77,0,0,0-1.78-9.21c-13.29,7.81-27.17,14.1-42.52,16.74a57.21,57.21,0,0,1,2.16-18.21l-11.92,3.13-3.22-14.68-5.3,1.39-8-36.37-3.68,23.44-20.27,3.76-15-21.35c-2.31,2.45-4.68,4.81-7.12,7.05l3.44,38.11L388,373l-.38-13.46-8.13.17-.24-8.55a5.31,5.31,0,0,1-1.1-1.25c-1.28-2-1.09-4.53-.73-6.85s.84-4.49,1.41-6.67L376,237.24c-13,7.3-25.4,15.79-38.08,23.7l36.23,137.23-40.62,4.41-1.89-14-6.62.72-4.6-34.07c-6.44-.24-15.19-.35-15.46.87-.42,1.93-1.19,45.32-1.19,45.32l-40.64-5.64,1.54-11.89-10-1.39,19.52-150.88,26,2.48c4.64-11.64,6.16-24.76-2.75-32.9-6.46-5.9-16.54-6.68-25-4.16s-15.72,7.8-22.78,13c-12.74,9.37-25.55,18.7-38.25,28.18.38,0,.6.1.59.16s-.66,5.59-1.53,12.92c3.84,0,10.08,0,10,.37,0,0-5.58,47.2-5.58,47.2.08-.69-21.07.72-23.16,1a40.5,40.5,0,0,0-25.24,13.48c-10.15,11.91-11.11,29.5-5,44a37.22,37.22,0,0,0,18.1,10.86A66.73,66.73,0,0,0,194.78,370c4.41,0,8.66-.52,11.68-1.9,3.77-1.72,2.82-2.36,2.06-6.35-.52-2.7-1-5.41-1.55-8.12L191.52,353,189.68,340l-6.67-.24-2.87-20.29,42.7-4.63s1.15,5.86,2.68,13.92l5.83-.63s11.67,59.42,10.34,60c-14.54,17.49-37.18,18.14-55.83,14.33a135.25,135.25,0,0,1-17.17,26.25c-2.58,3.09-5.31,6.09-8.05,9.08A62.92,62.92,0,0,1,194,428.26c26.71,0,52.53,16.66,64.94,41.31a114.47,114.47,0,0,1,21.7-4.79l-3.05-12.12,30.81-7.77,8.9-2.25L319.84,456l4.83-1.22,8.78,45.42,4.06,21,2.89,14.93,1.86-28.8,1.36-21.22,3.08-47.8,40.88,0-1.7,12.09H395l-13.43,95.33q7.1-5,14-10.21c5.22-3.92,10.52-8,16-11.78-5-40-11.85-90.68-11.84-91.4L485.05,414l-1.83,14.06,9.24-2-5.22,40.17L441.53,477.1l1.19,7.24,31.68-9.7.34,14.25,7.06-2.17.59,24.37-20.82,5.24a24.9,24.9,0,0,1-1.25,3.62c-1,2.31-2,4.6-3.06,6.87L459.21,538l44.52-5.51s-.26,6-.74,13.1l8.15-1s-1.55,35.56-4,35.53c-2.13,0-63.55,1.86-79.45,2.82-.3.63-.6,1.25-.89,1.88-9.9,21.48-16.22,45.78-10.41,68.55,4-.79,10.48.3,17.7,3.11A40.9,40.9,0,0,1,436,651c1.79-4.06,4.73-8.74,8.94-11a10.26,10.26,0,0,1,1.3-.61c.36-.14.71-.25,1.06-.35l.34-.08c.23-.06.47-.12.7-.16l.38,0c.21,0,.42-.06.62-.07l.39,0h.6l.38,0a5.61,5.61,0,0,1,.59.06l.35,0,.65.14.26.06c.3.08.6.18.89.28l.12.05c.25.1.5.2.75.32l.07,0,.15.09a8.46,8.46,0,0,1,.79.41l.28.15c.3.18.59.36.88.56l.07,0c.31.22.62.44.93.68l.26.2.71.57.23.19c.3.25.59.51.88.78l.2.17c.24.22.48.44.71.67a3.07,3.07,0,0,1,.26.25l.77.74.1.1.9.89.81.79.26.26.88.86.14.13.73.69.26.23.76.67.13.12c.29.25.58.49.88.72l.23.17.71.52.24.17c.3.2.6.4.91.58l.14.07c.26.15.53.29.8.42l.53.25a14.82,14.82,0,0,0,1.86.65l.51.13a6.79,6.79,0,0,0,5.73-1.15c.26-.18.52-.37.77-.57A16,16,0,0,0,482,649.8c.35-.4.68-.82,1-1.25l.69-.95c.38-.55.74-1.1,1.09-1.67.5-.82,1-1.65,1.43-2.48l-.1-.09.29-.26h0c.53-1,1-2,1.49-2.86-3.4-5.83-9.05-11.37-18.22-15.53-.17,0-.28-.09-.3-.14l.3.14a12.14,12.14,0,0,0,2.4.17c8.39,0,33.66-3.9,36.2-30.27-.45,4.68,10.65,11.16,14.24,12.27a19.9,19.9,0,0,0,5.95.9c5.35,0,10.56-2,15.14-4.86a70.24,70.24,0,0,0,9.3-7c2.46-2.13,5.17-5.82,8.06-7.22-.42,1.88-1.31,3.63-1.55,5.63-1,8.65-1.27,17.11,1.61,24.8a308.52,308.52,0,0,0,46.35-44.79l-2.35-8.5Z"/><path class="cls-2" d="M132.06,366.24c-11.63-13.17-14.9-30.53-13.91-47.52a355.88,355.88,0,0,0-30.93,38.16c-8.49,12.16-15.65,30.33-4.13,39.89,5.07,4.2,12.33,5,19,4.17,14.93-1.8,28.74-10.37,42.42-17.49-.57-.52-1.15-1-1.7-1.58A51.56,51.56,0,0,1,132.06,366.24Z"/><polygon class="cls-2" points="312.05 305.02 308.38 321.05 316.98 321.36 312.05 305.02"/><path class="cls-2" d="M619.44,345l7.47-1.82s1.39,16.62,1.5,27.19c4.6-8.77,7.16-18.09,5.72-27.86-.82-5.63-3.2-11.32-7.84-14.8-9.46-7.1-23.19-2.28-33.47,3.64-4.36,2.5-8.64,5.18-12.88,7.95l38.46-9.41S619,337.1,619.44,345Z"/><path class="cls-2" d="M491.49,649.32l-.2.27L491,650c-.08.11-.17.22-.25.34s-.21.27-.32.41l-.27.35-.33.41c-.09.11-.19.22-.28.34s-.23.27-.35.41l-.29.34-.35.4-.31.35-.36.39-.32.33c-.12.14-.25.26-.38.39l-.32.33-.39.39-.33.31-.42.39-.32.29-.45.39-.3.26-.56.46a1.84,1.84,0,0,0-.22.17c-.26.2-.52.4-.79.59a1.88,1.88,0,0,1-.23.16l-.57.4-.32.2-.51.32-.35.21-.48.27-.37.19-.49.25-.38.17-.48.21-.39.16-.49.18-.39.13-.49.15-.41.11-.5.11-.4.08-.51.08-.4.06-.53,0-.39,0c-.18,0-.37,0-.56,0h-.36c-.21,0-.43,0-.64-.06l-.3,0c-.31,0-.62-.09-.93-.16h-.06c-.29-.06-.59-.14-.88-.23l-.32-.1-.63-.22-.38-.16-.46-.19-.1,0c-.23-.11-.46-.24-.69-.37l-.35-.18c-.35-.2-.69-.42-1-.66-3.95-2.73-6.5-6.9-10.22-9.87a16.85,16.85,0,0,0-1.67-1.2,7.82,7.82,0,0,0-.86-.46l-.3-.14-.21-.1-.45-.16-.18-.06a5,5,0,0,0-.64-.17l-.1,0a5.25,5.25,0,0,0-.55-.09l-.22,0-.45,0h-.23l-.45,0-.21,0a4.84,4.84,0,0,0-.64.13l-.29.12a4,4,0,0,0-.74.42,7.1,7.1,0,0,0-.57.43,15.54,15.54,0,0,0-1.58,1.56,9.59,9.59,0,0,0-.72.93,9.9,9.9,0,0,0-1,1.86c-.18.44-.34.89-.49,1.36-.21.7-.39,1.42-.55,2.16-.06.24-.11.48-.16.73-.24,1.21-.45,2.43-.7,3.58,6.31,3.42,11.05,7.28,13.24,10.63a150.45,150.45,0,0,0,37.2-10.32A41.93,41.93,0,0,0,491.49,649.32Z"/><path class="cls-2" d="M428.6,260.35c1.33-2.09,2.6-4.21,3.79-6.36,5.55-10,8.36-24.65-1.39-31-5.68-3.68-13.24-2.65-19.81-.87a139.13,139.13,0,0,0-25.78,10.07L406,230Z"/><path class="cls-2" d="M522.72,319.91C517.08,298.07,511,275,507,259.72a131,131,0,0,0-15.37,6.81L511,335.94C514.75,330.57,518.75,325.25,522.72,319.91Z"/><path class="cls-2" d="M273.12,540.68c-.57,2.88-1.25,5.74-2.07,8.56a92.44,92.44,0,0,1-9.5,21.91,52.84,52.84,0,0,0-.4,16.48c.55,4,1.71,8,4.57,10.91,6.94,7,18.91,3.29,27.82-1q9.19-4.42,18.22-9.18L291,505.91C286.14,517.68,279.16,529.13,273.12,540.68Z"/><path class="cls-3" d="M406.69,667.92l.9-1.77a65.57,65.57,0,0,0-10.58,0c-13.92,1.16-27.73,6.76-38,16.3a54,54,0,0,0-17,35.33,54.6,54.6,0,0,0,10.13,36.29c14.37,19.7,41,29,64.71,27.06,11.27-.93,22.53-4.65,31.33-11.91a51.6,51.6,0,0,0,16.44-25.18,62.2,62.2,0,0,0,1-30.72,64.48,64.48,0,0,0-5.16-14.84,51.06,51.06,0,0,0-9.22-13l-1.3,2.57c-.88,1.74-3.54,2.47-7.24,2.28a46.62,46.62,0,0,1-13.61-3.27c-1-.4-2.12-.86-3.19-1.33l-1.24-.55c-1.81-.85-3.51-1.74-5.12-2.67-.64-.36-1.26-.73-1.86-1.1-.76-.47-1.49-.95-2.18-1.43-.48-.33-.94-.65-1.39-1-.84-.62-1.65-1.25-2.37-1.87-.46-.39-.89-.79-1.3-1.18a19.41,19.41,0,0,1-2.88-3.39,8.72,8.72,0,0,1-.59-1.06A4,4,0,0,1,406.69,667.92Zm-17.77,4.48a1.66,1.66,0,0,1,.69-.7,5.45,5.45,0,0,1,3.9-.83c1,.18,3.54.88,2.84,2.29a2.49,2.49,0,0,1-1.54,1.1,7.51,7.51,0,0,1-4.33,0,2.8,2.8,0,0,1-1.24-.65A1.21,1.21,0,0,1,388.92,672.4ZM365.7,687.8c-.9.79-5.35,2.73-3.88-.09,3.93-7.57,12.82-11.75,20.78-14.41,2.61-.87,1.29,1.6.32,2.6l-.34.34c-4.08,3.91-10.19,5-14.25,8.87C367.42,686,366.65,687,365.7,687.8Zm60.05,16a37,37,0,0,1,12.05,14.19,29.29,29.29,0,0,1,2.68,9.2c.4,3.74-.81,6.82-2.7,10a42,42,0,0,1-6.15,8.45,19.16,19.16,0,0,1-4.36,3.38c-1.09.6-3.07,1-4,1.75a3.42,3.42,0,0,0-.74,1.82c-.26.95-.66,1.84-1,2.78s-.18,1.72-1.19,2a2.26,2.26,0,0,1-.54.05,21,21,0,0,1-3.32-.59,37.79,37.79,0,0,1-4.07-1,1.36,1.36,0,0,1-.49.43,3.27,3.27,0,0,1-1.3.23,9.33,9.33,0,0,1-1.54-.16,25,25,0,0,1-5.19-1.69s0,.06-.09.07a2.66,2.66,0,0,1-1.37.3,9,9,0,0,1-1.23-.1,16.09,16.09,0,0,1-3.36-.86c-.81-.25-1.5-.5-1.92-.66h-.34c-2.81-.24-6.18-.56-8.07-2.85a4,4,0,0,1-.82-3.85c.25-.78,1-1.91.49-2.74s-2.5-1.43-3.55-1.83c-6.92-2.59-13.11-6.32-14.72-13.75-1.52-7,1.22-13.92,4.46-20.11,1.56-3,3.21-6.16,6-8.31a20.5,20.5,0,0,1,9-3.48,55.35,55.35,0,0,1,9.82-.88C408,695.52,417.88,698.14,425.75,703.75Z"/><path class="cls-4" d="M451.24,685.5a51.06,51.06,0,0,1,9.22,13,64.48,64.48,0,0,1,5.16,14.84,62.2,62.2,0,0,1-1,30.72,51.6,51.6,0,0,1-16.44,25.18c-8.8,7.26-20.06,11-31.33,11.91-23.74,2-50.34-7.36-64.71-27.06A54.6,54.6,0,0,1,342,717.81a54,54,0,0,1,17-35.33c10.28-9.54,24.09-15.14,38-16.3a65.57,65.57,0,0,1,10.58,0l2.06-4-1.83-.18A70.49,70.49,0,0,0,365,672.58a58.79,58.79,0,0,0-25.24,33.72,59.56,59.56,0,0,0,3.62,41.38c5.53,11.57,15.15,20.81,26.2,27.13a83.49,83.49,0,0,0,37.5,10.73c12.58.55,25.6-1.79,36.58-8.13a53.93,53.93,0,0,0,22-24.39A64,64,0,0,0,471,720.75c-1.08-11.62-5-23.57-12.11-32.93a53.88,53.88,0,0,0-5.62-6.26Z"/><path class="cls-5" d="M449.94,688.07c-.88,1.74-3.54,2.47-7.24,2.28,3.7.19,6.36-.54,7.24-2.28l1.3-2.57,2-3.94,2.34-4.59h0Z"/><path class="cls-5" d="M430.71,673.35c-10.06-4.69-17.18-10.77-18.22-15.14l-5.1,10c-1.6,3.16,5.1,10.45,17.61,16.28s22.64,6.38,24.24,3.22l5.06-10C450,679.63,440.69,678,430.71,673.35Z"/><path class="cls-5" d="M417.68,681.43c.6.37,1.22.74,1.86,1.1C418.9,682.17,418.28,681.8,417.68,681.43Z"/><path class="cls-5" d="M425.9,685.75c1.07.47,2.14.93,3.19,1.33C428,686.68,427,686.22,425.9,685.75Z"/><path class="cls-5" d="M414.11,679c.45.34.91.66,1.39,1C415,679.67,414.56,679.35,414.11,679Z"/><path class="cls-5" d="M407.59,666.15l-.9,1.77a4,4,0,0,0,.28,3.59,4,4,0,0,1-.28-3.59l5.71-11.23h0l-2.75,5.42Z"/><path class="cls-6" d="M442.13,660.17,442,661c9.31,5.11,15.39,11.43,13.72,14.71-1.89,3.72-13.16,2.36-24.62-3s-19.54-13-17.65-16.72c1.66-3.27,10.6-2.6,20.52,1.24q-.53,2-.93,4.11c-3.15-1-5.72-1-6.29.16-.76,1.49,2.24,4.38,6.69,6.45s8.67,2.55,9.43,1.06c.48-1-.55-2.46-2.51-4a.25.25,0,0,1,0,.07,5.11,5.11,0,0,1-4.35,2.06,5.11,5.11,0,0,0,4.35-2.06c1.51-2,1.91-5.3,2.56-8.49.05-.25.1-.49.16-.73.16-.74.34-1.46.55-2.16.15-.47.31-.92.49-1.36a9.9,9.9,0,0,1,1-1.86,9.59,9.59,0,0,1,.72-.93,15.54,15.54,0,0,1,1.58-1.56,7.1,7.1,0,0,1,.57-.43,4,4,0,0,1,.74-.42l.29-.12a4.84,4.84,0,0,1,.64-.13l.21,0,.45,0h.23l.45,0,.22,0a5.25,5.25,0,0,1,.55.09l.1,0a5,5,0,0,1,.64.17l.18.06.45.16.21.1.19.08a.6.6,0,0,1,.11.06,7.82,7.82,0,0,1,.86.46,16.85,16.85,0,0,1,1.67,1.2c3.72,3,6.27,7.14,10.22,9.87.35.24.69.46,1,.66l.35.18c.23.13.46.26.69.37l.1,0,.46.19.38.16.63.22.32.1c.29.09.59.17.88.23h.06c.31.07.62.12.93.16l.3,0c.21,0,.43,0,.64.06h.36c.19,0,.38,0,.56,0l.39,0,.53,0,.4-.06.51-.08.4-.08.5-.11.41-.11.49-.15.39-.13.49-.18.39-.16.48-.21.38-.17.49-.25.37-.19.48-.27.35-.21.51-.32.32-.2.57-.4a1.88,1.88,0,0,0,.23-.16c.27-.19.53-.39.79-.59a1.84,1.84,0,0,1,.22-.17l.56-.46.3-.26.45-.39.32-.29.42-.39.33-.31.39-.39.32-.33c.13-.13.26-.25.38-.39l.32-.33.36-.39.31-.35.35-.4.29-.34c.12-.14.23-.28.35-.41s.19-.23.28-.34l.33-.41.27-.35c.11-.14.21-.28.32-.41s.17-.23.25-.34l.33-.43.2-.28c-.07-.27-.14-.55-.22-.83l-.08-.09a44.3,44.3,0,0,1-5.85,6.76l-2.28-5.4-.11,0a36.86,36.86,0,0,0,3.8-5.77l-.57-.57c-.45.83-.93,1.66-1.43,2.48-.35.57-.71,1.12-1.09,1.67l-.69.95c-.33.43-.66.85-1,1.25a16,16,0,0,1-2.13,2.07c-.25.2-.51.39-.77.57a6.79,6.79,0,0,1-5.73,1.15l-.51-.13a14.82,14.82,0,0,1-1.86-.65l-.39-.17-.14-.08c-.27-.13-.54-.27-.8-.42l-.14-.07c-.31-.18-.61-.38-.91-.58l-.24-.17-.71-.52-.23-.17c-.3-.23-.59-.47-.88-.72l-.13-.12-.76-.67-.26-.23-.73-.69-.14-.13-.88-.86-.26-.26-.81-.79c-.29-.3-.59-.59-.9-.89l-.1-.1-.77-.74a3.07,3.07,0,0,0-.26-.25c-.23-.23-.47-.45-.71-.67l-.2-.17c-.29-.27-.58-.53-.88-.78l-.23-.19-.71-.57-.26-.2c-.31-.24-.62-.46-.93-.68l-.07,0c-.29-.2-.58-.38-.88-.56l-.28-.15a8.46,8.46,0,0,0-.79-.41l-.15-.09-.07,0c-.25-.12-.5-.22-.75-.32l-.12-.05c-.29-.1-.59-.2-.89-.28l-.26-.06-.65-.14-.35,0a5.61,5.61,0,0,0-.59-.06l-.38,0h-.6l-.39,0c-.2,0-.41,0-.62.07l-.38,0c-.23,0-.47.1-.7.16l-.34.08c-.35.1-.7.21-1.06.35a10.26,10.26,0,0,0-1.3.61c-4.21,2.24-7.15,6.92-8.94,11a40.9,40.9,0,0,0-1.92,5.48c-7.22-2.81-13.72-3.9-17.7-3.11-1.82.37-3.13,1.11-3.72,2.28a3.1,3.1,0,0,0-.3,1.05h0l-5.71,11.23a4,4,0,0,0,.28,3.59,8.72,8.72,0,0,0,.59,1.06,19.41,19.41,0,0,0,2.88,3.39c.41.39.84.79,1.3,1.18.72.62,1.53,1.25,2.37,1.87.45.34.91.66,1.39,1,.69.48,1.42,1,2.18,1.43.6.37,1.22.74,1.86,1.1,1.61.93,3.31,1.82,5.12,2.67l1.24.55c1.07.47,2.14.93,3.19,1.33a46.62,46.62,0,0,0,13.61,3.27c3.7.19,6.36-.54,7.24-2.28l5.64-11.1h0a3.55,3.55,0,0,0,.8-1c.71-1.4.29-3.21-1-5.19C453.18,667.45,448.44,663.59,442.13,660.17Zm-8.59,1.11Zm-1.11,4.78a1.86,1.86,0,0,1-.09-.47,1.86,1.86,0,0,0,.09.47,1.25,1.25,0,0,0,.22.41h0A1.25,1.25,0,0,1,432.43,666.06Zm.22.41a1.29,1.29,0,0,0,.16.17h0A1.29,1.29,0,0,1,432.65,666.47Zm.43.32a1.74,1.74,0,0,0,.51.13A1.74,1.74,0,0,1,433.08,666.79Zm1.26-.53-.36,0a2.08,2.08,0,0,1-.63-.14l0,0-.06,0c-.24-.3-.12-1.06-.07-1.31.16-1,.33-2,.53-3.06.76,0,4.51.52,7,.87C439.69,665.36,438.1,666.84,434.34,666.26Zm6.58-4.1Zm0-.38c-4.57-.65-6.33-.84-7-.87.29-1.44.63-2.92,1.05-4.39l6.94,1c0,.17-.07.34-.1.51C441.49,659.42,441.23,660.68,440.91,661.78Zm1.1-4.64Zm-7.39-1Zm7.38.67-6.87-1a39.27,39.27,0,0,1,1.64-4.51c.17-.4.38-.85.61-1.32l5.71,2.66A28.28,28.28,0,0,0,442,656.76Zm-1.45-12.33Zm3.78,5.65a11,11,0,0,0-1,1.83l-5.64-2.62a28.74,28.74,0,0,1,2.81-4.4l5,3.74A12,12,0,0,0,444.33,650.08Zm1.7-1.53Zm0-.46-5-3.79a14.88,14.88,0,0,1,4.66-3.8l2.79,5.88A7.73,7.73,0,0,0,446.05,648.09Zm2.86-1.66Zm4.67-6.48Zm4,9.7Zm4.42,4.78Zm4.21-4Zm0,0Zm18.85,5.08Zm-2.38-5.65Zm-3.19,3.16a16.3,16.3,0,0,0,3-2.68l2.24,5.31.08,0a22.07,22.07,0,0,1-7,4.38v-6A8.84,8.84,0,0,0,479.51,653.05Zm-8.87.45a9.37,9.37,0,0,0,6.35.77v6a11.3,11.3,0,0,1-8.18-.55l2.53-5.94-.37-.14-.36-.14-2.49,5.86a13.52,13.52,0,0,1-1.39-.84,26.52,26.52,0,0,1-4.34-3.94c1.44-1.39,3.68-3.53,4-3.8a18.55,18.55,0,0,0,3.81,2.51Zm-4.82-3.19c-.62.53-2.4,2.23-3.95,3.73-.21-.24-.43-.47-.65-.71-1.09-1.21-2.22-2.43-3.46-3.56l.16.11,3.17-4.09,1,1C463.33,648,464.56,649.22,465.82,650.31Zm-5-4.83Zm-.29-.21,0,0-3.2,4.13a19.92,19.92,0,0,0-2.52-1.92,9.11,9.11,0,0,0-1.06-.58l-.29-.11h.07l.42-6.48.13.06A25.35,25.35,0,0,1,460.55,645.27ZM453.19,640l-.43,6.53a7.15,7.15,0,0,0-3.52-.3l-2.86-6,.19-.09A9.12,9.12,0,0,1,453.19,640Zm-7.29.1Zm3.34,47.66c-1.6,3.16-11.72,2.61-24.24-3.22s-19.21-13.12-17.61-16.28l5.1-10c1,4.37,8.16,10.45,18.22,15.14s19.31,6.28,23.59,4.43Z"/><path class="cls-7" d="M396,753.32c.42.16,1.11.41,1.92.66-.62-.22-1.24-.46-1.85-.7Z"/><path class="cls-7" d="M395.41,753l-.4,0L395,753Z"/><path class="cls-7" d="M401.89,754.53a1.48,1.48,0,0,0,1.1-.35,5.25,5.25,0,0,0,.66-1.24c.22-.45.44-.9.67-1.35,0-.08.15-.11.29-.11.37,0,.92.21.86.32l-.79,1.6c-.1.21-.2.46-.32.69a26.78,26.78,0,0,0,4.47,1.53,7.65,7.65,0,0,0,1.48.21,2.19,2.19,0,0,0,.73-.11c.49-.17.68-.88.89-1.3s.47-1,.71-1.43a.45.45,0,0,1,.43-.19c.37,0,.82.2.72.4l-.84,1.69c-.09.19-.18.39-.28.57a37.3,37.3,0,0,0,5.91,1.29c.4,0,.65.11.85.11s.4-.1.65-.45a11.55,11.55,0,0,0,.74-2.31c.34-.93.48-2.73,1.19-3.47s2.53-1.08,3.61-1.63a23.26,23.26,0,0,0,8.12-7.52,35.82,35.82,0,0,0,5.11-9c1.83-5.6-.69-12.31-3.55-17.22a37.48,37.48,0,0,0-11.82-12.35,43.82,43.82,0,0,0-19.73-6.72c-1.9-.18-3.9-.3-5.94-.3a35.82,35.82,0,0,0-14.39,2.6c-6,2.71-9,9.58-11.32,15.19s-3.41,11.62-1.25,17.28c2.54,6.67,9,9.19,15.41,11.67.77.3,1.74.62,2.12,1.41.46,1-.19,1.93-.46,2.84-1.3,4.24,3.62,5.72,7.09,6.08l2.22-4.21c0-.07.14-.1.27-.1.37,0,.94.21.89.31-.71,1.33-1.41,2.67-2.11,4l.11,0a21.07,21.07,0,0,0,4.47,1.46A6,6,0,0,0,401.89,754.53Zm12.63-27.34a12.5,12.5,0,0,1,1.32-3c1.84-3.08,5.74-7.43,9.93-6.51a10.12,10.12,0,0,1,7.06,6.31,13.69,13.69,0,0,1-.24,9.46,11.48,11.48,0,0,1-3.25,4.89A7.22,7.22,0,0,1,423.7,740a11.35,11.35,0,0,1-5.14-2.77A18.07,18.07,0,0,1,416,735,8.1,8.1,0,0,1,414.52,727.19Zm-15.78,9.5a11.54,11.54,0,0,1-5.14-2.77,18.14,18.14,0,0,1-2.52-2.27,8.11,8.11,0,0,1-1.53-7.81,13.19,13.19,0,0,1,1.33-3c1.84-3.08,5.74-7.42,9.93-6.5a10.09,10.09,0,0,1,7.05,6.31,13.61,13.61,0,0,1-.23,9.45,11.57,11.57,0,0,1-3.25,4.9A7.22,7.22,0,0,1,398.74,736.69Z"/><path class="cls-6" d="M388.4,696.4a20.5,20.5,0,0,0-9,3.48c-2.77,2.15-4.42,5.32-6,8.31-3.24,6.19-6,13.1-4.46,20.11,1.61,7.43,7.8,11.16,14.72,13.75,1.05.4,3,.85,3.55,1.83s-.24,2-.49,2.74a4,4,0,0,0,.82,3.85c1.89,2.29,5.26,2.61,8.07,2.85H396l.07,0c.61.24,1.23.48,1.85.7a16.09,16.09,0,0,0,3.36.86,9,9,0,0,0,1.23.1,2.66,2.66,0,0,0,1.37-.3s.06,0,.09-.07a25,25,0,0,0,5.19,1.69,9.33,9.33,0,0,0,1.54.16,3.27,3.27,0,0,0,1.3-.23,1.36,1.36,0,0,0,.49-.43,37.79,37.79,0,0,0,4.07,1,21,21,0,0,0,3.32.59,2.26,2.26,0,0,0,.54-.05c1-.24.87-1,1.19-2s.7-1.83,1-2.78a3.42,3.42,0,0,1,.74-1.82c.9-.8,2.88-1.15,4-1.75a19.16,19.16,0,0,0,4.36-3.38,42,42,0,0,0,6.15-8.45c1.89-3.21,3.1-6.29,2.7-10a29.29,29.29,0,0,0-2.68-9.2,37,37,0,0,0-12.05-14.19c-7.87-5.61-17.73-8.23-27.53-8.23A55.35,55.35,0,0,0,388.4,696.4Zm7.88,56.52c.7-1.33,1.4-2.67,2.11-4,.05-.1-.52-.31-.89-.31-.13,0-.23,0-.27.1L395,752.92l.4,0L395,753l.06-.11c-3.47-.36-8.39-1.84-7.09-6.08.27-.91.92-1.88.46-2.84-.38-.79-1.35-1.11-2.12-1.41-6.36-2.48-12.87-5-15.41-11.67-2.16-5.66-1-11.82,1.25-17.28s5.3-12.48,11.32-15.19a35.82,35.82,0,0,1,14.39-2.6c2,0,4,.12,5.94.3a43.82,43.82,0,0,1,19.73,6.72,37.48,37.48,0,0,1,11.82,12.35c2.86,4.91,5.38,11.62,3.55,17.22a35.82,35.82,0,0,1-5.11,9,23.26,23.26,0,0,1-8.12,7.52c-1.08.55-2.77.75-3.61,1.63s-.85,2.54-1.19,3.47a11.55,11.55,0,0,1-.74,2.31c-.25.35-.41.45-.65.45s-.45-.06-.85-.11a37.3,37.3,0,0,1-5.91-1.29c.1-.18.19-.38.28-.57l.84-1.69c.1-.2-.35-.4-.72-.4a.45.45,0,0,0-.43.19c-.24.47-.48,1-.71,1.43s-.4,1.13-.89,1.3a2.19,2.19,0,0,1-.73.11,7.65,7.65,0,0,1-1.48-.21,26.78,26.78,0,0,1-4.47-1.53c.12-.23.22-.48.32-.69l.79-1.6c.06-.11-.49-.32-.86-.32-.14,0-.25,0-.29.11-.23.45-.45.9-.67,1.35a5.25,5.25,0,0,1-.66,1.24,1.48,1.48,0,0,1-1.1.35,6,6,0,0,1-1-.11,21.07,21.07,0,0,1-4.47-1.46Z"/><path class="cls-6" d="M418.56,737.27A11.35,11.35,0,0,0,423.7,740a7.22,7.22,0,0,0,5.64-1.73,11.48,11.48,0,0,0,3.25-4.89,13.69,13.69,0,0,0,.24-9.46,10.12,10.12,0,0,0-7.06-6.31c-4.19-.92-8.09,3.43-9.93,6.51a12.5,12.5,0,0,0-1.32,3A8.1,8.1,0,0,0,416,735,18.07,18.07,0,0,0,418.56,737.27Z"/><path class="cls-6" d="M407.63,730.06a13.61,13.61,0,0,0,.23-9.45,10.09,10.09,0,0,0-7.05-6.31c-4.19-.92-8.09,3.42-9.93,6.5a13.19,13.19,0,0,0-1.33,3,8.11,8.11,0,0,0,1.53,7.81,18.14,18.14,0,0,0,2.52,2.27,11.54,11.54,0,0,0,5.14,2.77,7.22,7.22,0,0,0,5.64-1.73A11.57,11.57,0,0,0,407.63,730.06Z"/><path class="cls-7" d="M382.92,675.9c1-1,2.29-3.47-.32-2.6-8,2.66-16.85,6.84-20.78,14.41-1.47,2.82,3,.88,3.88.09s1.72-1.82,2.63-2.69c4.06-3.91,10.17-5,14.25-8.87Z"/><path class="cls-7" d="M390.48,674.3a7.51,7.51,0,0,0,4.33,0,2.49,2.49,0,0,0,1.54-1.1c.7-1.41-1.82-2.11-2.84-2.29a5.45,5.45,0,0,0-3.9.83,1.66,1.66,0,0,0-.69.7,1.21,1.21,0,0,0,.32,1.25A2.8,2.8,0,0,0,390.48,674.3Z"/><path class="cls-5" d="M445.71,649.55a15.54,15.54,0,0,1,1.58-1.56A15.54,15.54,0,0,0,445.71,649.55Z"/><path class="cls-5" d="M452.38,647.16a5,5,0,0,0-.64-.17A5,5,0,0,1,452.38,647.16Z"/><path class="cls-5" d="M467.31,659.81c-.35-.2-.69-.42-1-.66C466.62,659.39,467,659.61,467.31,659.81Z"/><path class="cls-5" d="M468.35,660.36c-.23-.11-.46-.24-.69-.37C467.89,660.12,468.12,660.25,468.35,660.36Z"/><path class="cls-5" d="M443.54,653.7c-.21.7-.39,1.42-.55,2.16C443.15,655.12,443.33,654.4,443.54,653.7Z"/><path class="cls-5" d="M444,652.34c-.18.44-.34.89-.49,1.36C443.69,653.23,443.85,652.78,444,652.34Z"/><path class="cls-5" d="M469.29,660.76l-.38-.16Z"/><path class="cls-5" d="M450.19,646.84l-.45,0Z"/><path class="cls-5" d="M451.64,647a5.25,5.25,0,0,0-.55-.09A5.25,5.25,0,0,1,451.64,647Z"/><path class="cls-5" d="M477.78,660a22.07,22.07,0,0,0,7-4.38l-.08,0-2.24-5.31a16.3,16.3,0,0,1-3,2.68,8.84,8.84,0,0,1-1.74,1Z"/><path class="cls-5" d="M475.29,661.44l-.4.06Z"/><path class="cls-5" d="M470.24,661.08l-.32-.1Z"/><path class="cls-5" d="M476.2,661.28l-.4.08Z"/><path class="cls-5" d="M477.11,661.06l-.41.11Z"/><path class="cls-5" d="M474.36,661.54l-.39,0Z"/><path class="cls-5" d="M471.18,661.32h0Z"/><path class="cls-5" d="M473.41,661.56h0Z"/><path class="cls-5" d="M472.41,661.5l-.3,0Z"/><path class="cls-5" d="M453,647.38l-.45-.16Z"/><path class="cls-5" d="M457.92,649.88l-.16-.11c1.24,1.13,2.37,2.35,3.46,3.56.22.24.44.47.65.71,1.55-1.5,3.33-3.2,3.95-3.73-1.26-1.09-2.49-2.3-3.69-3.5l-1-1Z"/><path class="cls-5" d="M437.38,650c-.23.47-.44.92-.61,1.32a39.27,39.27,0,0,0-1.64,4.51l6.87,1a28.28,28.28,0,0,1,1.09-4.14Z"/><path class="cls-5" d="M441.86,657.5l-6.94-1c-.42,1.47-.76,3-1.05,4.39.71,0,2.47.22,7,.87.32-1.1.58-2.36.85-3.77C441.79,657.84,441.82,657.67,441.86,657.5Z"/><path class="cls-5" d="M447.34,639.05c-.35.1-.7.21-1.06.35a10.26,10.26,0,0,0-1.3.61,10.26,10.26,0,0,1,1.3-.61C446.64,639.26,447,639.15,447.34,639.05Z"/><path class="cls-5" d="M440.53,644.89a28.74,28.74,0,0,0-2.81,4.4l5.64,2.62a11,11,0,0,1,1-1.83,12,12,0,0,1,1.18-1.45Z"/><path class="cls-5" d="M478,660.78l-.39.13Z"/><path class="cls-5" d="M471,652.81a14.82,14.82,0,0,0,1.86.65,14.82,14.82,0,0,1-1.86-.65l-.53-.25.14.08Z"/><path class="cls-5" d="M449.24,646.21a7.15,7.15,0,0,1,3.52.3l.43-6.53a9.12,9.12,0,0,0-6.62.11l-.19.09Z"/><path class="cls-5" d="M445.67,640.5a14.88,14.88,0,0,0-4.66,3.8l5,3.79a7.73,7.73,0,0,1,2.41-1.71Z"/><path class="cls-5" d="M466.41,650.8c-.34.27-2.58,2.41-4,3.8a26.52,26.52,0,0,0,4.34,3.94,13.52,13.52,0,0,0,1.39.84l2.49-5.86.36.14h0l.37.14-2.53,5.94a11.3,11.3,0,0,0,8.18.55v-6a9.37,9.37,0,0,1-6.35-.77l-.42-.19A18.55,18.55,0,0,1,466.41,650.8Z"/><path class="cls-5" d="M483,649.79l.11,0,2.28,5.4a44.3,44.3,0,0,0,5.85-6.76L486.75,644A36.86,36.86,0,0,1,483,649.79Z"/><path class="cls-5" d="M490.83,647a33.42,33.42,0,0,0-2.52-5.91c-.37.73-.77,1.49-1.18,2.26Z"/><path class="cls-5" d="M453.22,647.48l.3.14a.6.6,0,0,0-.11-.06Z"/><path class="cls-5" d="M448.6,647.14l.29-.12a4.84,4.84,0,0,1,.64-.13,4.84,4.84,0,0,0-.64.13Z"/><path class="cls-5" d="M487.86,640.24h0c-.47.91-1,1.87-1.49,2.86h0C486.9,642.11,487.39,641.15,487.86,640.24Z"/><path class="cls-5" d="M486.18,643.45c-.45.83-.93,1.66-1.43,2.48.5-.82,1-1.65,1.43-2.48Z"/><path class="cls-5" d="M479.06,652.44c.26-.18.52-.37.77-.57-.25.2-.51.39-.77.57a6.79,6.79,0,0,1-5.73,1.15A6.79,6.79,0,0,0,479.06,652.44Z"/><path class="cls-5" d="M453.53,646.77h-.07l.29.11a9.11,9.11,0,0,1,1.06.58,19.92,19.92,0,0,1,2.52,1.92l3.2-4.13,0,0a25.35,25.35,0,0,0-6.47-4.92l-.13-.06Z"/><path class="cls-5" d="M450.42,646.84l.45,0Z"/><path class="cls-5" d="M459.81,643.51c.24.22.48.44.71.67C460.29,644,460.05,643.73,459.81,643.51Z"/><path class="cls-5" d="M464.5,648.07l.14.13Z"/><path class="cls-5" d="M461.65,645.27c.31.3.61.59.9.89Z"/><path class="cls-5" d="M465.37,648.89l.26.23Z"/><path class="cls-5" d="M460.78,644.43l.77.74Z"/><path class="cls-5" d="M453.61,639.33c.25.1.5.2.75.32C454.11,639.53,453.86,639.43,453.61,639.33Z"/><path class="cls-5" d="M467.4,650.63l.23.17Z"/><path class="cls-5" d="M466.39,649.79l.13.12Z"/><path class="cls-5" d="M468.34,651.32l.24.17Z"/><path class="cls-5" d="M448.76,638.76c.21,0,.42-.06.62-.07C449.18,638.7,449,638.73,448.76,638.76Z"/><path class="cls-5" d="M463.36,647l.26.26Z"/><path class="cls-5" d="M456.6,640.92c.31.22.62.44.93.68C457.22,641.36,456.91,641.14,456.6,640.92Z"/><path class="cls-5" d="M457.79,641.8l.71.57Z"/><path class="cls-5" d="M455.65,640.32c.3.18.59.36.88.56C456.24,640.68,456,640.5,455.65,640.32Z"/><path class="cls-5" d="M454.58,639.76a8.46,8.46,0,0,1,.79.41A8.46,8.46,0,0,0,454.58,639.76Z"/><path class="cls-5" d="M458.73,642.56c.3.25.59.51.88.78C459.32,643.07,459,642.81,458.73,642.56Z"/><path class="cls-5" d="M450.75,638.69a5.61,5.61,0,0,1,.59.06A5.61,5.61,0,0,0,450.75,638.69Z"/><path class="cls-5" d="M452.6,639c.3.08.6.18.89.28C453.2,639.18,452.9,639.08,452.6,639Z"/><path class="cls-5" d="M478.87,660.44l-.39.16Z"/><path class="cls-5" d="M449.77,638.67h0Z"/><path class="cls-5" d="M451.69,638.8l.65.14Z"/><path class="cls-5" d="M469.49,652.07l.14.07Z"/><path class="cls-5" d="M484.06,657.3a1.84,1.84,0,0,0-.22.17A1.84,1.84,0,0,1,484.06,657.3Z"/><path class="cls-5" d="M484.92,656.58l-.3.26Z"/><path class="cls-5" d="M485.69,655.9l-.32.29Z"/><path class="cls-5" d="M486.44,655.2l-.33.31Z"/><path class="cls-5" d="M483.05,658.06a1.88,1.88,0,0,1-.23.16A1.88,1.88,0,0,0,483.05,658.06Z"/><path class="cls-5" d="M487.15,654.48l-.32.33Z"/><path class="cls-5" d="M479.73,660.06l-.38.17Z"/><path class="cls-5" d="M480.59,659.62l-.37.19Z"/><path class="cls-5" d="M481.42,659.14l-.35.21Z"/><path class="cls-5" d="M482.25,658.62l-.32.2Z"/><path class="cls-5" d="M490.39,650.77l-.27.35Z"/><path class="cls-5" d="M487.85,653.76l-.32.33Z"/><path class="cls-5" d="M491.49,649.32h0l-.2.28Z"/><path class="cls-5" d="M447.68,639c.23-.06.47-.12.7-.16C448.15,638.85,447.91,638.91,447.68,639Z"/><path class="cls-5" d="M483,648.55l.69-.95Z"/><path class="cls-5" d="M491,650c-.08.11-.17.22-.25.34C490.79,650.24,490.88,650.13,491,650Z"/><path class="cls-5" d="M488.52,653l-.31.35Z"/><path class="cls-5" d="M489.79,651.53c-.09.11-.19.22-.28.34C489.6,651.75,489.7,651.64,489.79,651.53Z"/><path class="cls-5" d="M489.16,652.28l-.29.34Z"/><path class="cls-5" d="M433.72,661.64c-.2,1.05-.37,2.07-.53,3.06-.05.25-.17,1,.07,1.31l.06,0,0,0a2.08,2.08,0,0,0,.63.14l.36,0c3.76.58,5.35-.9,6.34-3.75C438.23,662.16,434.48,661.66,433.72,661.64Z"/><path class="cls-5" d="M440.27,665.08a.25.25,0,0,0,0-.07c2,1.51,3,3,2.51,4-.76,1.49-5,1-9.43-1.06s-7.45-5-6.69-6.45c.57-1.14,3.14-1.14,6.29-.16q.4-2.07.93-4.11c-9.92-3.84-18.86-4.51-20.52-1.24-1.89,3.72,6.19,11.38,17.65,16.72s22.73,6.7,24.62,3c1.67-3.28-4.41-9.6-13.72-14.71l.18-.78c.25-1.15.46-2.37.7-3.58C442.18,659.78,441.78,663,440.27,665.08Z"/><path class="cls-5" d="M435.92,667.14a5.11,5.11,0,0,0,4.35-2.06A5.11,5.11,0,0,1,435.92,667.14Z"/><path class="cls-5" d="M432.81,666.64a1.29,1.29,0,0,1-.16-.17,1.29,1.29,0,0,0,.16.17Z"/><path class="cls-5" d="M432.43,666.06a1.86,1.86,0,0,1-.09-.47A1.86,1.86,0,0,0,432.43,666.06Z"/><path class="cls-5" d="M432.43,666.06a1.25,1.25,0,0,0,.22.41h0A1.25,1.25,0,0,1,432.43,666.06Z"/><path class="cls-5" d="M433.08,666.79a1.74,1.74,0,0,0,.51.13A1.74,1.74,0,0,1,433.08,666.79Z"/><path class="cls-6" d="M486.65,642.84l.48.47c.41-.77.81-1.53,1.18-2.26-.14-.27-.3-.54-.45-.81-.47.91-1,1.87-1.49,2.86Z"/><polygon class="cls-8" points="440.92 662.16 440.92 662.16 440.92 662.16 440.92 662.16"/><polygon class="cls-8" points="433.54 661.28 433.54 661.28 433.54 661.28 433.54 661.28"/><line class="cls-9" x1="442.01" y1="657.14" x2="442.01" y2="657.14"/><line class="cls-9" x1="434.62" y1="656.09" x2="434.62" y2="656.09"/><line class="cls-9" x1="446.03" y1="648.55" x2="446.03" y2="648.55"/><line class="cls-9" x1="440.55" y1="644.43" x2="440.55" y2="644.43"/><line class="cls-9" x1="445.9" y1="640.08" x2="445.9" y2="640.08"/><line class="cls-9" x1="448.91" y1="646.43" x2="448.91" y2="646.43"/><line class="cls-9" x1="460.84" y1="645.48" x2="460.84" y2="645.48"/><line class="cls-9" x1="457.6" y1="649.65" x2="457.6" y2="649.65"/><polygon class="cls-8" points="466.23 650.46 466.23 650.46 466.23 650.46 466.23 650.46"/><rect class="cls-8" x="466.23" y="650.46"/><polygon class="cls-8" points="462.01 654.43 462.01 654.43 462.01 654.43 462.01 654.43"/><line class="cls-9" x1="470.97" y1="653.66" x2="470.97" y2="653.66"/><line class="cls-9" x1="482.7" y1="649.89" x2="482.7" y2="649.89"/><line class="cls-9" x1="485.08" y1="655.54" x2="485.08" y2="655.54"/><line class="cls-9" x1="486.36" y1="643.1" x2="486.37" y2="643.1"/><path class="cls-10" d="M486.75,644l4.44,4.37.08.09c-.13-.51-.28-1-.44-1.52l-3.7-3.65-.48-.47-.28.26h0l-.29.26.1.09h0Z"/><path class="cls-11" d="M566.79,631.21c-10.6-10.79-10.63-24.21-9.08-37.11,0-.28.08-.55.13-.82l-1.15,1.19c-.93,1-1.82,1.91-2.71,2.69a72.06,72.06,0,0,1-9.53,7.19c-5.5,3.39-10.88,5.11-16,5.11a21.91,21.91,0,0,1-6.45-1c-2.32-.73-9.18-4.25-12.93-8.42-4.31,18.46-20.76,25-32.77,26.27,9,5.58,14.71,13.3,16.94,23a48,48,0,0,1,.31,18.47c7.45-7.5,15.29-11.29,23.36-11.29,7.5,0,15.24,3.39,22.39,9.8a57.51,57.51,0,0,1,4.21,4.19c-1.09-8.34.11-15.39,3.58-21,6.44-10.45,18.77-13.19,24.7-14.5l.12,0-1-.69A23.17,23.17,0,0,1,566.79,631.21Zm-23.34,8.89c-2.08,3.17-2.73,7-2.87,10.75-2.58-5-8.65-7.68-14.43-7.52s-9.82,4.14-14.31,7.64a16.11,16.11,0,0,0-1.25-6.59,12.78,12.78,0,0,0-4.92-5.62,34.33,34.33,0,0,0-5.29-3c-.95-.46-1.95-.88-2.92-1.32-.49-.22-1-.45-1.48-.69-.24-.11-.4-.09-.64-.22s-.7-.37-.85-.33c1.09-.32,2.53-.43,3.66-.64a19.53,19.53,0,0,0,3.45-.93,21.2,21.2,0,0,0,5.42-3.23c3.62-2.89,6.11-8.19,6.57-12.69,4.6,4.29,7.88,8.75,14.29,8.51s12-4.28,16.78-9.06c-.95,6.31,2.44,15.94,8.48,19.69C549.25,634.55,545.52,636.93,543.45,640.1Z"/><path class="cls-4" d="M559.38,594.3c.24-2,1.13-3.75,1.55-5.63-2.89,1.4-5.6,5.09-8.06,7.22a70.24,70.24,0,0,1-9.3,7c-4.58,2.82-9.79,4.86-15.14,4.86a19.9,19.9,0,0,1-5.95-.9c-3.59-1.11-14.69-7.59-14.24-12.27C505.7,621,480.43,624.88,472,624.88a12.14,12.14,0,0,1-2.4-.17c9.17,4.16,14.82,9.7,18.22,15.53h0c.15.27.31.54.45.81a33.42,33.42,0,0,1,2.52,5.91c.16.51.31,1,.44,1.52.08.28.15.56.22.83h0a41.93,41.93,0,0,1,1.08,11.16c-.23,7.24-2,12.5-1.57,12.65,9.22-11.09,18.08-14.91,25.89-14.91,17.31,0,29.55,18.73,29.55,18.73-10.33-40.78,30.85-39.38,28.76-41.49s-5.1-3.27-7.21-5.42a30.92,30.92,0,0,1-7-10.94C558.11,611.41,558.34,603,559.38,594.3ZM571.77,635c-5.93,1.31-18.26,4-24.7,14.5-3.47,5.63-4.67,12.68-3.58,21a57.51,57.51,0,0,0-4.21-4.19c-7.15-6.41-14.89-9.8-22.39-9.8-8.07,0-15.91,3.79-23.36,11.29a48,48,0,0,0-.31-18.47c-2.23-9.72-7.92-17.44-16.94-23,12-1.23,28.46-7.81,32.77-26.27,3.75,4.17,10.61,7.69,12.93,8.42a21.91,21.91,0,0,0,6.45,1c5.14,0,10.52-1.72,16-5.11a72.06,72.06,0,0,0,9.53-7.19c.89-.78,1.78-1.71,2.71-2.69l1.15-1.19c-.05.27-.09.54-.13.82-1.55,12.9-1.52,26.32,9.08,37.11a23.17,23.17,0,0,0,4.05,3.08l1,.69Z"/><path class="cls-4" d="M469.64,624.71l-.3-.14S469.47,624.67,469.64,624.71Z"/><path class="cls-12" d="M544.66,615.14c-4.79,4.78-10.37,8.83-16.78,9.06s-9.69-4.22-14.29-8.51c-.46,4.5-3,9.8-6.57,12.69a21.2,21.2,0,0,1-5.42,3.23,19.53,19.53,0,0,1-3.45.93c-1.13.21-2.57.32-3.66.64.15,0,.72.27.85.33s.4.11.64.22c.49.24,1,.47,1.48.69,1,.44,2,.86,2.92,1.32a34.33,34.33,0,0,1,5.29,3,12.78,12.78,0,0,1,4.92,5.62,16.11,16.11,0,0,1,1.25,6.59c4.49-3.5,8.52-7.47,14.31-7.64s11.85,2.56,14.43,7.52c.14-3.74.79-7.58,2.87-10.75s5.8-5.55,9.69-5.27C547.1,631.08,543.71,621.45,544.66,615.14Z"/><polygon points="365.62 384.88 331.62 388.57 333.51 402.58 374.13 398.17 337.9 260.94 334.99 249.89 329.85 249.4 365.62 384.88"/><polygon points="305.48 283.24 296.92 320.63 308.38 321.05 312.05 305.02 305.48 283.24"/><path d="M304.67,341.78c-4.35,0-8.07.23-8.24,1-.43,1.93-1.2,45.32-1.2,45.32l-30.58-4.24-1.54,11.89,40.64,5.64s.77-43.39,1.19-45.32c.27-1.22,9-1.11,15.46-.87l-1.75-13S311,341.78,304.67,341.78Z"/><polygon points="509.69 348.31 479.53 356.21 482.75 370.89 494.67 367.76 518.2 361.6 511.02 335.94 491.6 266.53 481.64 230.94 476.99 231.45 509.69 348.31"/><polygon points="454.08 331.38 433.81 335.14 409.89 301.16 415.09 358.96 387.57 359.54 387.95 373 423.61 372.25 420.17 334.13 418.4 314.45 427.29 327.08 442.32 348.43 462.59 344.67 466.27 321.23 460.11 293.04 454.08 331.38"/><polygon points="540.76 271.02 546.83 291.37 550.85 289.59 549.28 284.3 593.28 268.25 593.37 227.78 584.82 230.68 584.76 254.96 540.76 271.02"/><polygon points="559.97 309.79 569.84 341.79 573.95 340.78 568.48 323.07 594.13 313.29 590.47 289.18 584.38 291.86 585.62 300 559.97 309.79"/><path d="M619.44,345c.54,9.69.85,20.48-.48,20.62-2,.22-58.51,8.58-76.63,11.7,1.85,7.76,3,13.05,3,14.39,1.31-.82,60.14-9.62,77.46-12.14,2.68-.39,4.37-.63,4.7-.66.76-.08,1-3.67.93-8.54-.11-10.57-1.5-27.19-1.5-27.19Z"/><path d="M204.32,285.36c-5.34,0-19.44,1-21.12,1.19A40.44,40.44,0,0,0,158,300c-13.59,16-10.72,42.07,3.48,57.27-6.08-14.48-5.12-32.07,5-44a40.5,40.5,0,0,1,25.24-13.48c2.09-.28,23.24-1.69,23.16-1,0,0,5.58-47.18,5.58-47.2,0-.34-6.2-.39-10-.37l-4,34.28C206.37,285.42,205.6,285.36,204.32,285.36Z"/><path d="M241.69,388.13c1.33-.59-10.34-60-10.34-60l-5.83.63c3.36,17.6,8.57,45.68,7.66,46.09C223,387.07,208.9,391.06,195,391.06c-22.45,0-44.47-10.36-48.85-13.46a57.48,57.48,0,0,1-11.85-9c-.77-.77-1.49-1.56-2.19-2.35a51.56,51.56,0,0,0,10.7,15.63c.55.55,1.13,1.06,1.7,1.58a58.59,58.59,0,0,0,10.15,7.44c3.21,2.27,15.88,8.43,31.25,11.57C204.51,406.27,227.15,405.62,241.69,388.13Z"/><path d="M189.68,340,191.52,353l15.45.56q-1.25-6.53-2.48-13.06Z"/><path class="cls-11" d="M326.45,387.44l37-4L325.15,238.16l-49.58-4.73L256.48,381.05l37.11,5.15c.18-10.23.79-41.91,1.2-43.76s2.62-2.34,9.88-2.34c6.31,0,14,.49,14.08.5a1.67,1.67,0,0,1,1.56,1.45Zm21.85-53.67c1.15,1.16,1.47,4.35,1.75,6q1,5.89,2,11.79l.9,5.23c.8,4.65-2.6-1-3-2.89-1.27-6.29-2-12.64-3.51-18.89C346,333,347,332.49,348.3,333.77Zm-51.44-11.46a1.69,1.69,0,0,1-1.27-.66,1.64,1.64,0,0,1-.3-1.39l8.55-37.39a1.68,1.68,0,0,1,1.58-1.31h.06a1.68,1.68,0,0,1,1.61,1.2l11.49,38.12a1.67,1.67,0,0,1-.27,1.51A1.71,1.71,0,0,1,317,323h-.06Z"/><path class="cls-4" d="M254.6,382.49l10,1.39,30.58,4.24s.77-43.39,1.2-45.32c.17-.79,3.89-1,8.24-1,6.32,0,14,.49,14,.49l1.75,13,4.6,34.07,6.62-.72,34-3.69L329.85,249.4l-3.38-12.8-26.33-2.51-26-2.48Zm64.15-41.89c-.07,0-7.77-.5-14.08-.5-7.26,0-9.48.52-9.88,2.34s-1,33.53-1.2,43.76l-37.11-5.15,19.09-147.62,49.58,4.73,38.34,145.26-37,4-6.14-45.39A1.67,1.67,0,0,0,318.75,340.6Z"/><path class="cls-4" d="M316.91,323H317a1.71,1.71,0,0,0,1.34-.65,1.67,1.67,0,0,0,.27-1.51l-11.49-38.12a1.68,1.68,0,0,0-1.61-1.2h-.06a1.68,1.68,0,0,0-1.58,1.31l-8.55,37.39a1.64,1.64,0,0,0,.3,1.39,1.69,1.69,0,0,0,1.27.66Zm-20-2.41,8.56-37.39L312.05,305,317,321.36l-8.59-.31Z"/><path class="cls-11" d="M381.07,358l32.19-.68-5-56a1.68,1.68,0,0,1,1.09-1.73,1.65,1.65,0,0,1,.58-.1,1.69,1.69,0,0,1,1.37.71l23.3,33.1,18-3.34,5.85-37.17a1.67,1.67,0,0,1,1.6-1.42h.06a1.69,1.69,0,0,1,1.64,1.32l13.75,62.85,32.11-8.41L471.9,219.48l-26.33,2.85-11.95,43a1.66,1.66,0,0,1-1.31,1.2l-.3,0a1.67,1.67,0,0,1-1.35-.67l-25.49-34.15-27.58,3Zm59.66-107.85c.93-4.37,2.39-8.56,3-13,.21-1.41,1.33-1.37,2.08-.11s-.1,3.23-.38,4.36q-1,4-2.05,8c-.31,1.19-.61,2.38-.91,3.57C441.71,256.19,440.46,251.44,440.73,250.14ZM384.41,292.3c1,1.59.83,5.55.87,7.62q.15,7.4.31,14.79c0,2.18.09,4.37.13,6.55.12,5.82-2.43-1.64-2.53-4-.35-7.91-.13-15.81-.75-23.71C382.24,291,383.34,290.53,384.41,292.3Z"/><path class="cls-4" d="M379.2,351.16l.24,8.55,8.13-.17,27.52-.58-5.2-57.8,23.92,34,20.27-3.76,6-38.34,6.17,28.19,8,36.37,5.3-1.39,30.16-7.9L477,231.45l-3.86-13.8-28.87,3.14L432,264.91l-3.41-4.56L406,230l-20.54,2.22-9.54,1,.11,4,2.8,99.15Zm-1.61-116.4,27.58-3,25.49,34.15a1.67,1.67,0,0,0,1.35.67l.3,0a1.66,1.66,0,0,0,1.31-1.2l11.95-43,26.33-2.85,35.71,127.64-32.11,8.41-13.75-62.85a1.69,1.69,0,0,0-1.64-1.32h-.06a1.67,1.67,0,0,0-1.6,1.42L452.6,330l-18,3.34-23.3-33.1a1.69,1.69,0,0,0-1.37-.71,1.65,1.65,0,0,0-.58.1,1.68,1.68,0,0,0-1.09,1.73l5,56-32.19.68Z"/><path class="cls-11" d="M508.74,259.84c14.25,54.06,27.52,105,29.49,116.55,3.57-.72,13-2.31,39.07-6.27,17.41-2.64,36.32-5.44,40.64-6,.7-3.38.06-18.16-1.06-32.07l-46.64,11.41a1.83,1.83,0,0,1-.4.05,1.68,1.68,0,0,1-1.6-1.19l-9.88-32a1.67,1.67,0,0,1,1-2.06l24.38-9.31-3.12-20.6-33.13,14.6a1.71,1.71,0,0,1-.67.14,1.6,1.6,0,0,1-.71-.16,1.63,1.63,0,0,1-.9-1l-6.06-20.35a1.66,1.66,0,0,1,1-2.06l42.9-15.66.08-36.95-78.7,26.75C505.16,246.26,506.79,252.45,508.74,259.84Zm28.65,93.89c-2.23-8.27-3.85-16.64-6.36-24.84-.8-2.61.25-3.37,1.81-1.73,1.4,1.46,2.18,5.67,2.71,7.85q1.91,7.75,3.8,15.52l1.68,6.88C542.53,363.52,538.06,356.2,537.39,353.73ZM579,224.2c1,1,.91,3.63,1,5q.32,4.84.62,9.69l.28,4.29c.25,3.82-2.34-1-2.49-2.58-.51-5.19-.48-10.37-1.25-15.55C577,223.4,578,223.06,579,224.2Z"/><path class="cls-4" d="M535,369.23a77,77,0,0,1,1.78,9.21,48.93,48.93,0,0,1,5.52-1.1c18.12-3.12,74.59-11.48,76.63-11.7,1.33-.14,1-10.93.48-20.62-.44-7.92-1-15.11-1-15.11l-38.46,9.41-6,1.46-4.11,1-9.87-32L585.62,300l-1.24-8.14-2.42-16-31.11,13.7-4,1.78L540.77,271l44-16.06.06-24.28,0-16.19-82.4,28c0,.26,1.8,6.95,4.51,17.23,4,15.23,10.11,38.35,15.75,60.19C527.83,339.7,532.56,358.41,535,369.23Zm48.14-152.4-.08,36.95-42.9,15.66a1.66,1.66,0,0,0-1,2.06l6.06,20.35a1.63,1.63,0,0,0,.9,1,1.6,1.6,0,0,0,.71.16,1.71,1.71,0,0,0,.67-.14l33.13-14.6,3.12,20.6-24.38,9.31a1.67,1.67,0,0,0-1,2.06l9.88,32a1.68,1.68,0,0,0,1.6,1.19,1.83,1.83,0,0,0,.4-.05L616.88,332c1.12,13.91,1.76,28.69,1.06,32.07-4.32.6-23.23,3.4-40.64,6-26,4-35.5,5.55-39.07,6.27-2-11.56-15.24-62.49-29.49-116.55-1.95-7.39-3.58-13.58-4.27-16.26Z"/><path class="cls-11" d="M121.91,303c-2.51,12.43-2.93,23.95-1.25,34.24,2,12.2,7,22.35,14.78,30.15a55.76,55.76,0,0,0,11.5,8.74l.13.09c4.1,2.9,25.62,13.15,47.88,13.15,15.72,0,28.05-5.14,36.66-15.29-.05-4.41-6.05-36.58-10.13-57.42l-39.43,4.27,2.42,17.18,20.08.74a1.68,1.68,0,0,1,1.59,1.36l1.16,6.13,2.87,15.06c.12.62.24,1.16.35,1.63.72,3.16.63,4.74-3.36,6.56-3,1.36-7.15,2-12.38,2a68.12,68.12,0,0,1-15.65-1.87c-13.59-3.43-24.54-14.38-29.3-29.29s-2.17-31,6.85-41.55A42.11,42.11,0,0,1,183,284.89c1.89-.25,16.09-1.21,21.35-1.21h.57c.86-7.33,4.33-36.67,5.19-43.91-1.27-.06-3.46-.11-6.82-.11-2.3,0-4,0-4.16,0C160.74,241.92,129,268,121.91,303Zm98.78,23.73c.58-.94,1.1,1.2,1.54,2.5a43.58,43.58,0,0,1,1.54,6.39,128.37,128.37,0,0,1,1.42,15.84c0,1,.06,4.14-.82,2.87a6.38,6.38,0,0,1-.66-2.07,175.08,175.08,0,0,1-3.17-21C220.46,330.1,220.27,327.43,220.69,326.74Zm-78.09-52A47.19,47.19,0,0,0,135.5,286c-1.9,4.33-3.32,8.85-5.52,13.06-.36.68-.84,1.42-1.58,1.49-3.12.31,2.54-14.9,3.3-16.34,2.56-4.77,6.21-10.16,11.12-13C145.62,269.64,143.22,274,142.6,274.74Z"/><path class="cls-4" d="M132.06,366.24c.7.79,1.42,1.58,2.19,2.35a57.48,57.48,0,0,0,11.85,9c4.38,3.1,26.4,13.46,48.85,13.46,14,0,28.06-4,38.23-16.22.91-.41-4.3-28.49-7.66-46.09-1.53-8.06-2.68-13.92-2.68-13.92l-42.7,4.63L183,339.75l6.67.24,14.81.55q1.24,6.52,2.48,13.06c.52,2.71,1,5.42,1.55,8.12.76,4,1.71,4.63-2.06,6.35-3,1.38-7.27,1.9-11.68,1.9a66.73,66.73,0,0,1-15.24-1.81,37.22,37.22,0,0,1-18.1-10.86C147.24,342.1,144.37,316,158,300a40.44,40.44,0,0,1,25.24-13.48c1.68-.22,15.78-1.19,21.12-1.19,1.28,0,2.05.06,2,.19l4-34.28c.87-7.33,1.53-12.91,1.53-12.92s-.21-.12-.59-.16c-1.4-.17-5.09-.21-8.09-.21-2.2,0-4,0-4.26,0-38.38,2.24-71.34,28.11-78.74,64.67a114.58,114.58,0,0,0-2.11,16C117.16,335.71,120.43,353.07,132.06,366.24Zm71.2-126.58c3.36,0,5.55.05,6.82.11-.86,7.24-4.33,36.58-5.19,43.91h-.57c-5.26,0-19.46,1-21.35,1.21a42.11,42.11,0,0,0-26.29,14.05c-9,10.59-11.65,26.51-6.85,41.55s15.71,25.86,29.3,29.29a68.12,68.12,0,0,0,15.65,1.87c5.23,0,9.39-.69,12.38-2,4-1.82,4.08-3.4,3.36-6.56-.11-.47-.23-1-.35-1.63l-2.87-15.06-1.16-6.13a1.68,1.68,0,0,0-1.59-1.36l-20.08-.74-2.42-17.18,39.43-4.27c4.08,20.84,10.08,53,10.13,57.42C223,384.24,210.67,389.38,195,389.38c-22.26,0-43.78-10.25-47.88-13.15l-.13-.09a55.76,55.76,0,0,1-11.5-8.74c-7.81-7.8-12.78-17.95-14.78-30.15C119,327,119.4,315.44,121.91,303,129,268,160.74,241.92,199.1,239.69,199.3,239.68,201,239.66,203.26,239.66Z"/><path class="cls-7" d="M220.54,331.24a175.08,175.08,0,0,0,3.17,21,6.38,6.38,0,0,0,.66,2.07c.88,1.27.86-1.83.82-2.87a128.37,128.37,0,0,0-1.42-15.84,43.58,43.58,0,0,0-1.54-6.39c-.44-1.3-1-3.44-1.54-2.5C220.27,327.43,220.46,330.1,220.54,331.24Z"/><path class="cls-7" d="M142.82,271.24c-4.91,2.81-8.56,8.2-11.12,13-.76,1.44-6.42,16.65-3.3,16.34.74-.07,1.22-.81,1.58-1.49,2.2-4.21,3.62-8.73,5.52-13.06a47.19,47.19,0,0,1,7.1-11.26C143.22,274,145.62,269.64,142.82,271.24Z"/><path class="cls-7" d="M350,353.9c.38,1.88,3.78,7.54,3,2.89l-.9-5.23q-1-5.9-2-11.79c-.28-1.65-.6-4.84-1.75-6S346,333,346.49,335C348,341.26,348.73,347.61,350,353.9Z"/><path class="cls-7" d="M539.35,350.53q-1.9-7.77-3.8-15.52c-.53-2.18-1.31-6.39-2.71-7.85-1.56-1.64-2.61-.88-1.81,1.73,2.51,8.2,4.13,16.57,6.36,24.84.67,2.47,5.14,9.79,3.64,3.68Z"/><path class="cls-7" d="M383.19,317.25c.1,2.37,2.65,9.83,2.53,4,0-2.18-.09-4.37-.13-6.55q-.16-7.4-.31-14.79c0-2.07.1-6-.87-7.62-1.07-1.77-2.17-1.28-2,1.24C383.06,301.44,382.84,309.34,383.19,317.25Z"/><path class="cls-7" d="M442.52,253c.3-1.19.6-2.38.91-3.57q1-4,2.05-8c.28-1.13,1-3.22.38-4.36s-1.87-1.3-2.08.11c-.66,4.43-2.12,8.62-3,13C440.46,251.44,441.71,256.19,442.52,253Z"/><path class="cls-7" d="M578.44,240.59c.15,1.55,2.74,6.4,2.49,2.58l-.28-4.29q-.3-4.84-.62-9.69c-.09-1.36,0-4-1-5s-2.08-.8-1.84.84C578,230.22,577.93,235.4,578.44,240.59Z"/><path d="M511.14,544.58l-8.15,1c-.68,10.13-1.8,22.44-3.22,22.44h0c-2.55,0-57.52,1.67-76.66,2.66.71,6.79,1.08,11.37.93,12.58a29.82,29.82,0,0,1,3.72-.34c15.9-1,77.32-2.83,79.45-2.82C509.59,580.14,511.14,544.58,511.14,544.58Z"/><polygon points="448.28 505.73 454.03 538.64 459.21 538 457.26 526.82 455.69 517.82 461.57 516.33 482.39 511.09 481.8 486.72 474.74 488.89 474.98 499 448.28 505.73"/><polygon points="434.13 465.01 437.57 485.92 442.72 484.34 441.53 477.1 487.24 466.28 492.45 426.12 483.22 428.09 479.83 454.19 434.13 465.01"/><polygon points="385.88 450.31 366.24 589.8 318.95 599.59 322.22 612.53 373.64 601.88 381.56 545.64 394.99 450.31 385.88 450.31"/><polygon points="330.11 509.05 334.05 529.47 339.13 555.74 339.79 545.54 340.4 536.07 337.51 521.14 333.45 500.15 324.67 454.73 319.84 455.95 326.05 488.06 330.11 509.05"/><path d="M273.12,540.68a95.54,95.54,0,0,0-3.28-50.84,74.13,74.13,0,0,0-10.52-19.45,73.41,73.41,0,0,1,3.11,7.36c6.81,19,6.82,40,1.21,59.4-5.4,18.68-16.57,36.53-33.88,46.57a60.65,60.65,0,0,1-30.47,7.85,69,69,0,0,1-10-.76c.43,3.61.79,7.24,1.09,10.87,15.72,3.83,32.92,2.19,46.83-5.87,10.26-5.95,18.35-14.67,24.38-24.66a92.44,92.44,0,0,0,9.5-21.91C271.87,546.42,272.55,543.56,273.12,540.68Z"/><path d="M197,469.3a31.63,31.63,0,0,0-20.14,7.28c-10.28,8.31-11.37,23-10.35,35.83.71,9.06,2.23,18.47,7.68,25.91a26.08,26.08,0,0,0,2.86,3.26,68.55,68.55,0,0,1-3.14-17.09,70,70,0,0,1,.59-17.81c1.28-7,4.14-13.47,9.76-18,11.62-9.39,25.82-9,37-2.75a38.38,38.38,0,0,1,9.54,7.56C225.58,479.26,211.58,469.3,197,469.3Z"/><path d="M564.5,445.77c-.49-4.34-.81-7.16-.82-7.2-.15-1.33,4.44-1.31,8.31-1.06,2.44.15,4.59.4,5.06.45,6.53.71,13.13,1.83,18.24,5.81a20.82,20.82,0,0,0-5.11-10c-5.32-5.71-13-7.07-20.54-7.89a87,87,0,0,0-8.7-.59c-2.61,0-4.77.27-4.66,1.2,0,.15,6.18,54.35,6.18,54.35s.12.12.3.12a28.7,28.7,0,0,0,5.57-1.51C567.12,468.79,565.48,454.33,564.5,445.77Z"/><path d="M583.32,502.08c-7.2,2.84-13.77,5.2-15.44,5.2-.24,0-.38,0-.4-.15l6.42,62.53-31.07-1.54c.51,7.34.82,11.76.82,11.76l37.65,1.87-6.42-62.53c.16.7,5.52-1.09,12.17-3.63Z"/><path d="M612.72,504.72a58.24,58.24,0,0,0,18.48-16.53,43.8,43.8,0,0,0,7.92-23.53c.52-11.6-3.3-23.91-11.09-32.84a49,49,0,0,1,3.69,20.76c-.8,17.74-11.06,31-26.4,40.06-.53.31-1.8.92-3.58,1.72l30.81,68.42-27.56,3,2.35,8.5,1.11,4,31.5-3.47-12.58-27.94-18.22-40.47C610.92,505.64,612.2,505,612.72,504.72Z"/><path class="cls-13" d="M418.27,569.31c3.63-.29,13.17-.77,39.29-1.67,18.85-.64,37.21-1.19,41.38-1.28,1.12-3.24,2.36-18,3-32l-47.72,5.91H454a1.69,1.69,0,0,1-1.66-1.39L446.62,506a1.69,1.69,0,0,1,1.25-1.92l25.4-6.4-.5-20.81-34.71,10.64a1.72,1.72,0,0,1-1.38-.18,1.7,1.7,0,0,1-.77-1.16l-3.44-20.9a1.68,1.68,0,0,1,1.27-1.91l44.58-10.56,4.76-36.65-81.51,17.4c.34,2.74,1.18,9.08,2.18,16.65C411,505.5,417.76,557.57,418.27,569.31Zm.88-49.49c1.21,1.62,1.45,5.89,1.7,8.11l1.8,15.84q.41,3.53.8,7c.71,6.24-2.79-1.54-3.14-4.07-1.17-8.47-1.72-17-3.17-25.4C416.67,518.65,417.81,518,419.15,519.82ZM478,423c.82,1.13.44,3.71.36,5.07q-.31,4.85-.61,9.69l-.27,4.3c-.24,3.81-2.19-1.31-2.15-2.86.16-5.21.84-10.35.74-15.57C476.07,422,477.13,421.73,478,423Z"/><path class="cls-4" d="M499.73,568h0c1.42,0,2.54-12.31,3.22-22.44.48-7.08.74-13.1.74-13.1L459.21,538l-5.18.64-5.75-32.91L475,499l-.24-10.11-.34-14.25-31.68,9.7-5.15,1.58L434.13,465l45.7-10.83,3.39-26.1L485.05,414l-85.33,18.22c0,.72,6.85,51.39,11.84,91.4,3,24.35,5.37,44.76,5,47.54a57.39,57.39,0,0,1,6.47-.5C442.21,569.7,497.18,568,499.73,568ZM483.08,416.17l-4.76,36.65-44.58,10.56a1.68,1.68,0,0,0-1.27,1.91l3.44,20.9a1.7,1.7,0,0,0,.77,1.16,1.72,1.72,0,0,0,1.38.18l34.71-10.64.5,20.81-25.4,6.4a1.69,1.69,0,0,0-1.25,1.92l5.75,32.91a1.69,1.69,0,0,0,1.66,1.39h.21L502,534.4c-.66,14-1.9,28.72-3,32-4.17.09-22.53.64-41.38,1.28-26.12.9-35.66,1.38-39.29,1.67-.51-11.74-7.23-63.81-14.52-119.09-1-7.57-1.84-13.91-2.18-16.65Z"/><path class="cls-13" d="M316.05,598.47l48.69-10.08L385.65,439.9l-37.37,0-3,46.22-1.37,21.23-2.47,38.27-.65,10.19a1.68,1.68,0,0,1-1.57,1.57h-.11a1.69,1.69,0,0,1-1.65-1.37l-5.08-26.26-3.94-20.42-4.06-21L316,444.71l-7.17,1.81-29.18,7.36Zm45.75-28.24q-.56,4.11-1.09,8.22c-.17,1.22-.33,2.43-.49,3.65-.43,3.23-2.23-1.34-2.11-2.67.4-4.43,1.36-8.75,1.5-13.23,0-1.43,1.16-1.5,2.05-.33S362,569.08,361.8,570.23Z"/><path class="cls-4" d="M385.88,450.31l1.7-12.09-40.88,0-3.08,47.8-1.36,21.22-1.86,28.8-.61,9.47-.66,10.2-5.08-26.27-3.94-20.42-4.06-21L319.84,456l-2.57-13.31-8.9,2.25-30.81,7.77,3.05,12.12L291,505.91l20.78,82.43,3.05,12.1,4.14-.85,47.29-9.79ZM279.6,453.88l29.18-7.36,7.17-1.81,8.45,43.67,4.06,21,3.94,20.42,5.08,26.26a1.69,1.69,0,0,0,1.65,1.37h.11a1.68,1.68,0,0,0,1.57-1.57l.65-10.19,2.47-38.27,1.37-21.23,3-46.22,37.37,0L364.74,588.39l-48.69,10.08Z"/><path class="cls-13" d="M146.55,537.59a38.15,38.15,0,0,1,20.12,7.73A53.32,53.32,0,0,1,180.46,561a66.2,66.2,0,0,1,8.12,24.55c.16,1.17.32,2.34.47,3.51a66.93,66.93,0,0,0,10.24.81,59.1,59.1,0,0,0,29.63-7.62c15.43-8.95,27.19-25.14,33.11-45.59,5.68-19.63,5.27-40.36-1.18-58.36a74.47,74.47,0,0,0-26.44-34.85c-12.1-8.72-26.46-13.53-40.44-13.53a62.4,62.4,0,0,0-39.51,14.3c-16.33,13.19-22.94,36.32-20.23,70.71A172.77,172.77,0,0,0,137.45,538,38,38,0,0,1,146.55,537.59Zm32.87,17.57A22.27,22.27,0,0,0,172,544.6c-.25-.19.86-.67,1.15-.44a22.49,22.49,0,0,1,7.53,10.67C180.76,555.15,179.53,555.5,179.42,555.16Zm3.47.38a18.3,18.3,0,0,0-4-8.72c-.21-.25,1-.67,1.16-.43a18.52,18.52,0,0,1,4.09,8.82C184.17,555.54,182.93,555.81,182.89,555.54Zm70.73-11.38c-.41,3.81-3.31,8.14-6.13,11.62-.85,1-10.74,10.83-11.64,9.07-.22-.41.19-1,.59-1.49,2.5-3,5.54-5.81,8.26-8.75a43.44,43.44,0,0,0,6.25-8.77C251.3,545.19,253.85,542,253.62,544.16Zm-21-50.86a50.09,50.09,0,0,1,.63,30.53c-3.12,10.78-9.37,19.34-17.59,24.11a31.85,31.85,0,0,1-16,4.13c-10.77,0-21-4.89-26.8-12.75s-7.31-18-8-26.78c-1.42-18,2.17-30.16,11-37.27a33.52,33.52,0,0,1,21.2-7.65C212.55,467.62,227.18,478.18,232.6,493.3Z"/><path class="cls-4" d="M199.29,591.57a60.65,60.65,0,0,0,30.47-7.85c17.31-10,28.48-27.89,33.88-46.57,5.61-19.37,5.6-40.38-1.21-59.4a73.41,73.41,0,0,0-3.11-7.36l-.41-.82c-12.41-24.65-38.23-41.31-64.94-41.31a62.92,62.92,0,0,0-33.33,9.53,70,70,0,0,0-7.24,5.14c-20.71,16.73-22.89,46.28-20.84,72.15a172.77,172.77,0,0,0,3.19,23.28,39.52,39.52,0,0,0-13.17,5.46c-14.82,9.57-23.09,27.47-25.1,44.54-1.21,10.36-.54,20.81-1.21,31.2-.34,5.19-.82,10.36-1,15.57s-.28,10.62-.35,15.94-.19,10.57-.3,15.86c-.08,3.53.05,8.16,2.87,10.76s7,1.29,9.26-1.48a20.51,20.51,0,0,0,2.15-3.54c1.53,1.88,4.33,1.15,6.18-.43.67-.56,1.24-1.23,1.88-1.82a4.89,4.89,0,0,1,1.31-.89,15,15,0,0,1,1.66,3.08c1.51,3.77,1.1,7.91,2.28,11.74,1.33,4.29,6.38,1.61,8.51-.47,2.79-2.71,4.14-6.36,5.42-9.94a1.87,1.87,0,0,1,.07-.22,3.43,3.43,0,0,1,.42.58c1.52,2.58,1,13.07,6.49,9.69a15.62,15.62,0,0,0,3.33-3.12c.09,1.31.21,2.61.4,3.91.58,3.73,1.82,8.47,4.71,11.13a7.81,7.81,0,0,0,8.28,1.69c4.15-1.77,4.45-6.5,5.07-10.37l1.4-8.65a28.54,28.54,0,0,0,2.53-5.58,11.31,11.31,0,0,0,.62-3.1,10.17,10.17,0,0,1,.78-3.62c.35-.68.37-.67.95-.33a8,8,0,0,1,2.06,2.09c.17.22.9-.07,1.06-.19,1.57-1.16,2-2.67,2.21-4.54a12,12,0,0,1,1-4.21,8.15,8.15,0,0,0,.68,3.55,3.17,3.17,0,0,0,3.21,1.43,11.45,11.45,0,0,0,7.76-4.32c2.59-3.44,2.84-8.2,3.12-12.32.65-10.4-.2-21-.87-31.32-.31-4.8-.64-9.62-1-14.44-.3-3.63-.66-7.26-1.09-10.87A69,69,0,0,0,199.29,591.57Zm-11.5,10.57q1.35,15.18,2,30.41a147.43,147.43,0,0,1,0,15.16c-.28,4.11-.43,9.44-3.52,12.58a8.66,8.66,0,0,1-3.56,2.11c-1.71.52-2.41-.55-2.64-2.17s0-3-.79-4.39a6.06,6.06,0,0,0-3.51-2.5,5.83,5.83,0,0,0-5.92,1.79c-3.13,3.45-3.63,8.89-4.34,13.29q-1.22,7.5-2.42,15c-.4,2.52-.79,5-1.22,7.54-.33,1.94-.86,4.36-2.75,5.38-3.18,1.72-6.35-2.26-7.53-4.67-2-4-2.49-8.36-2.67-12.8-.17-4.28-.31-8.88-1.75-13-.84-2.37-2.7-4.39-5.41-4-3.53.54-5.42,4-6.43,7.09a74,74,0,0,1-3.69,10.21,14.83,14.83,0,0,1-3.56,4.75c-.87.73-2.31,1.78-3.12.46a9.49,9.49,0,0,1-.82-3.25c-.57-3.54-.65-7.08-2.25-10.35-1.12-2.29-2.87-4.61-5.55-5.05-3.18-.52-6.23,1.62-8,4.05-1.68,2.24-4.09,9.78-8,7.3-3.44-2.21-3.33-7.8-3.23-11.29.29-10.06.24-20.12.6-30.17.18-5,.57-10,1-15s.42-10.12.47-15.18c.11-9.55.38-19.17,3-28.43a63.66,63.66,0,0,1,11.38-22.54c5.43-6.8,12.64-12.37,21.21-14.46a34.6,34.6,0,0,1,22.45,2c13,5.9,22.43,18.94,26.47,32.38C186.31,583.4,187,592.86,187.79,602.14Zm-33.33-157.9A62.4,62.4,0,0,1,194,429.94c14,0,28.34,4.81,40.44,13.53a74.47,74.47,0,0,1,26.44,34.85c6.45,18,6.86,38.73,1.18,58.36-5.92,20.45-17.68,36.64-33.11,45.59a59.1,59.1,0,0,1-29.63,7.62,66.93,66.93,0,0,1-10.24-.81c-.15-1.17-.31-2.34-.47-3.51A66.2,66.2,0,0,0,180.46,561a53.32,53.32,0,0,0-13.79-15.7A37.24,37.24,0,0,0,137.45,538,172.77,172.77,0,0,1,134.23,515C131.52,480.56,138.13,457.43,154.46,444.24Zm-37.1,225.08c-1.83,1-4.4,5.34-6.74,3.56a3.59,3.59,0,0,1-1.08-1.41c1.11-1.94,2.41-3.7,4.54-4.19,1.51-.34,2.8.56,3.81,1.79C117.72,669.15,117.54,669.22,117.36,669.32Zm28,11.58c-.71.79-2.79,3.59-4.07,3.1-1-.38-1.37-1.89-1.6-2.8-.62-2.43-.52-5.56-2.09-7.64a2.76,2.76,0,0,0-1-.86c.92-3.1,1.64-7,4.25-8.85,3.17-2.31,4.55,4.9,4.84,6.58a79.26,79.26,0,0,1,.76,9.35ZM174,667.16c-1.23-1.42-3.27-3.09-4.78-1.08-1.21,1.63-.83,4-1.22,5.91a15.52,15.52,0,0,1-1.22,3.41l.6-3.71c.51-3.14.9-6.33,1.63-9.43.54-2.27,1.24-4.84,2.81-6.64,1.94-2.22,5.1,0,5.53,2.46a.28.28,0,0,0,0,.09C174.56,660.22,176.14,664.65,174,667.16Z"/><path class="cls-4" d="M197,467.62a33.52,33.52,0,0,0-21.2,7.65c-8.8,7.11-12.39,19.3-11,37.27.7,8.79,2.19,18.84,8,26.78s16,12.75,26.8,12.75a31.85,31.85,0,0,0,16-4.13c8.22-4.77,14.47-13.33,17.59-24.11a50.09,50.09,0,0,0-.63-30.53C227.18,478.18,212.55,467.62,197,467.62Zm34,26.25a48.22,48.22,0,0,1,.6,29.49c-2.69,9.28-8.23,18.14-16.83,23.13a30.2,30.2,0,0,1-15.13,3.9,32.69,32.69,0,0,1-22.59-8.81,26.08,26.08,0,0,1-2.86-3.26c-5.45-7.44-7-16.85-7.68-25.91-1-12.85.07-27.52,10.35-35.83A31.63,31.63,0,0,1,197,469.3c14.56,0,28.56,10,33.84,24.18Z"/><path class="cls-13" d="M607.28,411.74c-8.56-3.91-18.92-5.89-30.79-5.89a115.77,115.77,0,0,0-13.84.86c-6.28.75-32.3,5.69-35.43,8.42.57,8.13,9.52,135.8,10.6,151.06L572,567.88,565.8,507.3a1.69,1.69,0,0,1,1.4-1.83,1.37,1.37,0,0,1,.28,0,1.56,1.56,0,0,1,.64.13c.81-.13,3.92-.86,14.58-5.06a1.67,1.67,0,0,1,.62-.12,1.82,1.82,0,0,1,.75.17,1.74,1.74,0,0,1,.87,1.06l17.34,62.79,27.79-3.06-29.86-66.31a1.67,1.67,0,0,1,.84-2.22c2.45-1.11,3.2-1.52,3.41-1.64,16-9.47,24.87-22.85,25.58-38.69C630.7,437.69,623.92,419.34,607.28,411.74ZM542.9,552.38c-.83-6.36-1.09-12.73-2.18-19.07-.35-2,.71-2.48,1.89-1.12s1.16,4.43,1.33,6.1c.61,6,.52,5.13,1.2,11.9.18,1.76.36,3.52.53,5.27C546.15,560.15,543.15,554.28,542.9,552.38Zm19.86-69.74a1.85,1.85,0,0,1-2-1.61c-.09-.78-6.16-54.12-6.18-54.35a2.19,2.19,0,0,1,.55-1.74c.85-.95,2.52-1.33,5.78-1.33h0a81.5,81.5,0,0,1,8.73.58l.15,0c7.4.8,15.78,2.18,21.59,8.42a22.4,22.4,0,0,1,5.9,17c-1.1,12.42-13,24.89-23.89,29.77C573.06,479.56,564.94,482.64,562.76,482.64Zm54.42-10.34c-.78,1.09-10,11.42-11,9.72-.24-.4.13-1,.5-1.52,2.29-3.18,5.14-6.12,7.65-9.2a43.42,43.42,0,0,0,5.67-9.1c.32-.68,2.65-4,2.55-1.84C622.37,464.19,619.76,468.67,617.18,472.3Z"/><path class="cls-4" d="M562.45,405c-2.87.34-37.19,6.06-36.93,9.8,0,0,2.33,33.23,4.81,68.67,1.09,15.54,2.21,31.51,3.18,45.32,1.57,22.31,2.73,39,2.73,39l6.59.33,31.07,1.54-6.42-62.53c0,.1.16.15.4.15,1.67,0,8.24-2.36,15.44-5.2l3.73,13.51,14,50.65,4-.43,27.56-3-30.81-68.42c1.78-.8,3-1.41,3.58-1.72,15.34-9.07,25.6-22.32,26.4-40.06A49,49,0,0,0,628,431.82c-3.84-9.25-10.57-17.28-20.06-21.61a60.26,60.26,0,0,0-8.47-3.09,84.81,84.81,0,0,0-23-2.95A117.47,117.47,0,0,0,562.45,405ZM630,452.5c-.71,15.84-9.55,29.22-25.58,38.69-.21.12-1,.53-3.41,1.64a1.67,1.67,0,0,0-.84,2.22l29.86,66.31-27.79,3.06-17.34-62.79a1.74,1.74,0,0,0-.87-1.06,1.82,1.82,0,0,0-.75-.17,1.67,1.67,0,0,0-.62.12c-10.66,4.2-13.77,4.93-14.58,5.06a1.56,1.56,0,0,0-.64-.13,1.37,1.37,0,0,0-.28,0,1.69,1.69,0,0,0-1.4,1.83L572,567.88l-34.21-1.69c-1.08-15.26-10-142.93-10.6-151.06,3.13-2.73,29.15-7.67,35.43-8.42a115.77,115.77,0,0,1,13.84-.86c11.87,0,22.23,2,30.79,5.89C623.92,419.34,630.7,437.69,630,452.5Z"/><path class="cls-4" d="M573.42,479.4c10.88-4.88,22.79-17.35,23.89-29.77a22.4,22.4,0,0,0-5.9-17c-5.81-6.24-14.19-7.62-21.59-8.42l-.15,0a81.5,81.5,0,0,0-8.73-.58h0c-3.26,0-4.93.38-5.78,1.33a2.19,2.19,0,0,0-.55,1.74c0,.23,6.09,53.57,6.18,54.35a1.85,1.85,0,0,0,2,1.61C564.94,482.64,573.06,479.56,573.42,479.4Zm-11,1.44s-6.17-54.2-6.18-54.35c-.11-.93,2.05-1.2,4.66-1.2a87,87,0,0,1,8.7.59c7.56.82,15.22,2.18,20.54,7.89a20.82,20.82,0,0,1,5.11,10,19.91,19.91,0,0,1,.35,5.71c-1,11.51-12.31,23.63-22.91,28.38-.39.18-2.31.89-4.4,1.59a28.7,28.7,0,0,1-5.57,1.51C562.58,481,562.47,480.92,562.46,480.84Z"/><path class="cls-7" d="M417.14,521.33c1.45,8.43,2,16.93,3.17,25.4.35,2.53,3.85,10.31,3.14,4.07q-.39-3.51-.8-7l-1.8-15.84c-.25-2.22-.49-6.49-1.7-8.11C417.81,518,416.67,518.65,417.14,521.33Z"/><path class="cls-7" d="M475.37,439.19c0,1.55,1.91,6.67,2.15,2.86l.27-4.3q.3-4.85.61-9.69c.08-1.36.46-3.94-.36-5.07s-2-1-1.93.63C476.21,428.84,475.53,434,475.37,439.19Z"/><path class="cls-7" d="M251,545.84a43.44,43.44,0,0,1-6.25,8.77c-2.72,2.94-5.76,5.71-8.26,8.75-.4.5-.81,1.08-.59,1.49.9,1.76,10.79-8,11.64-9.07,2.82-3.48,5.72-7.81,6.13-11.62C253.85,542,251.3,545.19,251,545.84Z"/><path class="cls-7" d="M359.61,566.2c-.14,4.48-1.1,8.8-1.5,13.23-.12,1.33,1.68,5.9,2.11,2.67.16-1.22.32-2.43.49-3.65q.54-4.11,1.09-8.22c.15-1.15.66-3.31-.14-4.36S359.65,564.77,359.61,566.2Z"/><path class="cls-7" d="M545.14,550.19c-.68-6.77-.59-5.87-1.2-11.9-.17-1.67-.26-4.87-1.33-6.1s-2.24-.89-1.89,1.12c1.09,6.34,1.35,12.71,2.18,19.07.25,1.9,3.25,7.77,2.77,3.08C545.5,553.71,545.32,552,545.14,550.19Z"/><path class="cls-7" d="M620,462.2a43.42,43.42,0,0,1-5.67,9.1c-2.51,3.08-5.36,6-7.65,9.2-.37.51-.74,1.12-.5,1.52,1,1.7,10.22-8.63,11-9.72,2.58-3.63,5.19-8.11,5.37-11.94C622.65,458.17,620.32,461.52,620,462.2Z"/><path class="cls-14" d="M88.42,240.32a43.18,43.18,0,0,0,6.33-.46c1.27-.21,2.86-.35,3.39-1.69s.18-3.4.11-4.95c-.1-2.14-.06-4.29,0-6.43,0-4.38.09-8.76.17-13.14,0-1.21.47-3.25-.29-4.36-.91-1.31-3.28-1.21-4.67-1.24-7.68-.17-15.4,0-23.09,0H45.9c-7.71,0-15.42,0-23.13-.14-1.92,0-3.87-.08-5.78.08a6.88,6.88,0,0,0-2.07.31c.16-.06,0-.12-.11.23a23.77,23.77,0,0,0-.2,5.27c0,2,0,4,0,6.06,0,3.9,0,7.8,0,11.7a41.41,41.41,0,0,0,0,5.57c.19,1.39,1.52,2,2.72,2.47,3.44,1.27,7.58.75,11.18.75,4.07,0,8.13,0,12.2,0C56.59,240.23,72.51,240.55,88.42,240.32Zm6.38-26.71c0-.45,1-.59,1-.06v13.07c0,.45-1,.59-1,.06Zm-77,22.68a1,1,0,0,1-.38.08s-.21,0-.25-.05a8.69,8.69,0,0,1-1.23-2.7c-.05-.18.32-.29.43-.32s.5-.11.54.06a8.48,8.48,0,0,0,1.17,2.6C18.17,236.12,17.91,236.24,17.78,236.29Zm1.74-.75a.46.46,0,0,1-.56-.15,36.09,36.09,0,0,1-2.05-4.89c-.12-.38.85-.65,1-.26a36,36,0,0,0,2,4.89C20,235.33,19.65,235.51,19.52,235.54Zm45.53.75c.08-.22.44-.27.64-.28l11.66-.33c.2,0,.35.12.27.31s-.44.27-.64.28l-11.66.33C65.11,236.61,65,236.48,65.05,236.29Z"/><path class="cls-4" d="M86.46,242.82c4.1-.08,8.42-.27,12.3-1.77a7.59,7.59,0,0,0,3.76-2.65,7.05,7.05,0,0,0,.71-4.37c-.19-4.29-.17-8.57-.13-12.87q0-3,.08-5.94a46.94,46.94,0,0,0,.1-6.16c-.39-3.28-4.88-3.41-7.38-3.49-4.17-.15-8.39,0-12.57,0H56.78c-8.82,0-17.63,0-26.45-.08-4,0-8.1-.26-12.13.08-2.62.22-7.39.78-8.31,3.88-.5,1.7-.16,3.93-.14,5.67,0,2.21-.05,4.42-.05,6.62,0,4.43,0,8.85,0,13.27,0,1.49-.4,3.41.5,4.71s2.9,2.08,4.47,2.5c4,1,8.32.65,12.39.65,9.94,0,19.88-.06,29.82-.06S76.61,243,86.46,242.82Zm-58-2.47c-3.6,0-7.74.52-11.18-.75-1.2-.44-2.53-1.08-2.72-2.47a41.41,41.41,0,0,1,0-5.57c0-3.9,0-7.8,0-11.7,0-2,.06-4,0-6.06a23.77,23.77,0,0,1,.2-5.27c.07-.35.27-.29.11-.23A6.88,6.88,0,0,1,17,208c1.91-.16,3.86-.11,5.78-.08,7.71.13,15.42.14,23.13.14H70.32c7.69,0,15.41-.17,23.09,0,1.39,0,3.76-.07,4.67,1.24.76,1.11.31,3.15.29,4.36-.08,4.38-.15,8.76-.17,13.14,0,2.14,0,4.29,0,6.43.07,1.55.49,3.46-.11,4.95s-2.12,1.48-3.39,1.69a43.18,43.18,0,0,1-6.33.46c-15.91.23-31.83-.09-47.74,0C36.61,240.33,32.55,240.36,28.48,240.35Z"/><path class="cls-14" d="M43.58,169.18c0,.92,0,1.83,0,2.75,0,1.83,0,3.67,0,5.5,0,4,0,8,0,12a53.82,53.82,0,0,0,0,5.82c.15,1.4,1.41,2,2.63,2.38,3.48,1.15,7.58.66,11.19.66,4,0,7.94,0,11.92,0,15.9-.08,31.83.24,47.73,0a50.4,50.4,0,0,0,6.14-.43c1.13-.17,3.06-.29,3.79-1.31s.37-3.23.3-4.51c-.11-2.1-.1-4.19-.1-6.29q0-6.72.17-13.44c0-1,.06-2.07,0-3.1a2.9,2.9,0,0,0-.14-1.31c-.68-1.33-3-1.18-4.23-1.22-3.83-.14-7.69,0-11.53,0H75.5c-7.89,0-15.79,0-23.69-.13-1.77,0-3.53-.06-5.3.07-.68,0-2.42.06-2.78.52S43.59,168.69,43.58,169.18Zm79.94,15.3c0-.43,1-.58,1-.07v11.37c0,.44-1,.59-1,.08Zm-75.29,4a15.79,15.79,0,0,0,1.65,3.65c.11.18-.12.31-.27.37a1,1,0,0,1-.38.08c-.06,0-.22,0-.26-.08a16.35,16.35,0,0,1-1.71-3.76C47.16,188.45,48.13,188.19,48.23,188.51Zm-1.73,3a25.75,25.75,0,0,1,1.72,3.92c.08.23-.89.51-1,.26a25.75,25.75,0,0,0-1.72-3.92C45.43,191.59,46.36,191.24,46.5,191.5Z"/><path class="cls-4" d="M39.19,198.07c1,1.44,2.91,2.2,4.5,2.66,4,1.12,8.35.71,12.42.71,9.94,0,19.88-.06,29.82-.06s19.72.17,29.57,0h.62c4-.07,8.14-.28,11.87-1.79a6.85,6.85,0,0,0,3.7-3.05,8.68,8.68,0,0,0,.48-4.52c-.21-4.43-.14-8.86-.09-13.29q0-3,.1-5.92a29.55,29.55,0,0,0,0-5.72c-.63-3.38-5.28-3.56-8-3.62-4.18-.09-8.38,0-12.56,0H85.09q-13.22,0-26.43-.08c-4,0-8.08-.29-12.07.08-2.74.26-7.19,1-7.82,4.32a31,31,0,0,0-.08,5.7c0,2.39-.06,4.79-.06,7.18,0,4.32,0,8.64,0,13C38.63,195.09,38.33,196.8,39.19,198.07Zm12.62-31.56c7.9.13,15.8.13,23.69.13h36c3.84,0,7.7-.12,11.53,0,1.24,0,3.55-.11,4.23,1.22a2.9,2.9,0,0,1,.14,1.31c0,1,0,2.07,0,3.1q-.14,6.72-.17,13.44c0,2.1,0,4.19.1,6.29.07,1.28.53,3.37-.3,4.51s-2.66,1.14-3.79,1.31a50.4,50.4,0,0,1-6.14.43c-15.9.22-31.83-.1-47.73,0-4,0-7.95.05-11.92,0-3.61,0-7.71.49-11.19-.66-1.22-.4-2.48-1-2.63-2.38a53.82,53.82,0,0,1,0-5.82c0-4,0-8,0-12,0-1.83.06-3.67,0-5.5,0-.92,0-1.83,0-2.75,0-.49-.16-1.67.15-2.08s2.1-.47,2.78-.52C48.28,166.45,50,166.48,51.81,166.51Z"/><path class="cls-4" d="M16.89,233.36c0-.17-.42-.09-.54-.06s-.48.14-.43.32a8.69,8.69,0,0,0,1.23,2.7c0,.05.2.05.25.05a1,1,0,0,0,.38-.08c.13,0,.39-.17.28-.33A8.48,8.48,0,0,1,16.89,233.36Z"/><path class="cls-4" d="M16.91,230.5A36.09,36.09,0,0,0,19,235.39a.46.46,0,0,0,.56.15c.13,0,.52-.21.41-.41a36,36,0,0,1-2-4.89C17.76,229.85,16.79,230.12,16.91,230.5Z"/><path class="cls-4" d="M77.62,236c.08-.19-.07-.32-.27-.31L65.69,236c-.2,0-.56.06-.64.28s.06.32.27.31L77,236.27C77.18,236.26,77.53,236.21,77.62,236Z"/><path class="cls-4" d="M95.79,226.62V213.55c0-.53-1-.39-1,.06v13.07C94.8,227.21,95.79,227.07,95.79,226.62Z"/><path class="cls-4" d="M48.22,195.42a25.75,25.75,0,0,0-1.72-3.92c-.14-.26-1.07.09-1,.26a25.75,25.75,0,0,1,1.72,3.92C47.33,195.93,48.3,195.65,48.22,195.42Z"/><path class="cls-4" d="M49.23,192.61a1,1,0,0,0,.38-.08c.15-.06.38-.19.27-.37a15.79,15.79,0,0,1-1.65-3.65c-.1-.32-1.07-.06-1,.26A16.35,16.35,0,0,0,49,192.53C49,192.6,49.17,192.61,49.23,192.61Z"/><path class="cls-4" d="M124.51,195.78V184.41c0-.51-1-.36-1,.07v11.38C123.52,196.37,124.51,196.22,124.51,195.78Z"/><path class="cls-4" d="M644.77,158.94l-.49-.36c-1.86-1.3-3.9-2.42-5.83-3.62a81.87,81.87,0,0,0-7.18-4.08l0,.35q-.37-.27-.84-.54a35.66,35.66,0,0,0-10.72-3.47l-.22,0c0-1.07-.06-2.05-.15-2.73-.53-3.95-.7-8.11-1.57-12a5.28,5.28,0,0,0-2-3c-4.33-3.64-9.32-5.78-14.31-8.39l-.07.46a3,3,0,0,0-.66-.07h0c-3.06,0-6.56,3.87-7,4.31l0,0,0,0L582,141.34l-19.07,2.31-.79.08c-1.71.16-4,.37-5.13,1.76a2.54,2.54,0,0,0-.57,2c.24,1.66,2.07,2.93,3.53,4,.37.25.71.49.94.68a44.72,44.72,0,0,1,6.24,6c.43.53.82,1.07,1.18,1.61,4.08,6.15,2.88,12.22,1.5,19.25-.24,1.22-.49,2.49-.72,3.77-.33,1.89-.14,3.22.57,4.06a2.43,2.43,0,0,0,.76.59l-.25.2,14.62,6.08a1.67,1.67,0,0,0,.58.29s.13.07.14,0c2.85.64,9.27-3.68,14.73-7.49a11,11,0,0,1,1.16-.73c1.69,1.57,3.59,3.26,5.87,5a13.92,13.92,0,0,0,3.69,2.26l-.21.33,10.35,4.45c.5.33,3.46,1.26,4,1.51a3,3,0,0,0,3.2-.17c1.56-1.25,1.25-4.38,1.15-6.07-.38-6.8-4.87-15.82.92-21.57a20.57,20.57,0,0,1,6.17-3.85c2.75-1.24,5.74-2.26,8.06-4.19,1-.84,2-2.39,1.16-3.64A3.85,3.85,0,0,0,644.77,158.94Zm-53.94,18.55a8.48,8.48,0,0,0-4.84,1.85c-5.09,3.56-11,7.57-14.12,7.57-1.63,0-2.46-1.11-2-4,1.5-8.62,4.1-16.07-.91-23.64-.37-.55-.78-1.11-1.23-1.67a44.46,44.46,0,0,0-6.36-6.13c-1.39-1.15-5.51-3.26-3.77-5.47,1-1.31,3.84-1.34,5.36-1.53l19.43-2.34,12-15.77s3.55-4,6.32-4c1.52,0,2.8,1.21,3.13,4.93.3,3.33.81,6.64,1.25,10,.41,3,.09,7.22,3.61,8.57,3.37,1.3,7.3,1.56,10.84,2.23A34.46,34.46,0,0,1,630,151.43c6.74,3.75-4.76,7.81-7.65,9.11a20.57,20.57,0,0,0-6.17,3.85c-5.8,5.75-1.31,14.77-.92,21.57.09,1.69.4,4.82-1.16,6.07a2.44,2.44,0,0,1-1.58.55c-1.7,0-3.59-1.48-4.74-2.38C599.11,183.43,595.51,177.49,590.83,177.49Z"/><path class="cls-13" d="M607.78,190.2c1.15.9,3,2.38,4.74,2.38a2.44,2.44,0,0,0,1.58-.55c1.56-1.25,1.25-4.38,1.16-6.07-.39-6.8-4.88-15.82.92-21.57a20.57,20.57,0,0,1,6.17-3.85c2.89-1.3,14.39-5.36,7.65-9.11A34.46,34.46,0,0,0,619.53,148c-3.54-.67-7.47-.93-10.84-2.23-3.52-1.35-3.2-5.54-3.61-8.57-.44-3.32-1-6.63-1.25-10-.33-3.72-1.61-4.93-3.13-4.93-2.77,0-6.32,4-6.32,4l-12,15.77L563,144.48c-1.52.19-4.33.22-5.36,1.53-1.74,2.21,2.38,4.32,3.77,5.47a44.46,44.46,0,0,1,6.36,6.13c.45.56.86,1.12,1.23,1.67,5,7.57,2.41,15,.91,23.64-.5,2.88.33,4,2,4,3.08,0,9-4,14.12-7.57a8.48,8.48,0,0,1,4.84-1.85C595.51,177.49,599.11,183.43,607.78,190.2ZM583.52,148c1,.12,1.53,1.7,1.28,3.54s-1.22,3.23-2.18,3.11-1.52-1.7-1.27-3.54S582.57,147.84,583.52,148Zm12.27,17.64a6.27,6.27,0,0,1-3,2.25,5.29,5.29,0,0,1-4.84-.95,5.37,5.37,0,0,1-1.8-3.19c0-.18-.5-2.46-.19-2.42l11.38,1.43C597.39,162.73,596,165.37,595.79,165.6Zm5.76-12c.24-1.84,1.22-3.23,2.17-3.11s1.53,1.7,1.28,3.54-1.22,3.23-2.18,3.11S601.3,155.44,601.55,153.6Z"/><path class="cls-4" d="M586.14,163.71a5.37,5.37,0,0,0,1.8,3.19,5.29,5.29,0,0,0,4.84.95,6.27,6.27,0,0,0,3-2.25c.17-.23,1.6-2.87,1.54-2.88L586,161.29C585.64,161.25,586.1,163.53,586.14,163.71Z"/><path class="cls-4" d="M602.82,157.14c1,.12,1.93-1.27,2.18-3.11s-.33-3.42-1.28-3.54-1.93,1.27-2.17,3.11S601.87,157,602.82,157.14Z"/><path class="cls-4" d="M582.62,154.61c1,.12,1.93-1.27,2.18-3.11s-.32-3.42-1.28-3.54-1.92,1.27-2.17,3.11S581.67,154.49,582.62,154.61Z"/><path class="cls-13" d="M658,139.31l-.18,0a6.3,6.3,0,0,1-3.15-1.18c-1.18-1-1-2.34-1.53-3.57-.23-.52-.5-.85-.79-.85s-.55.32-.78.83c-.56,1.23-.35,2.57-1.49,3.55a5.77,5.77,0,0,1-3,1.21c-.51.08-2.23.35-2.23,1,0,.36.73.69,1.89.94.25.06.53.11.83.16a4.69,4.69,0,0,1,2.86,1.42c.89,1,.74,2.5,1.4,3.67.12.21.32.45.59.41a.61.61,0,0,0,.31-.18c.95-.89.74-2.34,1.35-3.39.75-1.29,2-1.72,3.56-2a8.59,8.59,0,0,0,.9-.21c.86-.23,1.37-.52,1.37-.82C659.9,139.73,658.62,139.42,658,139.31Z"/><path class="cls-13" d="M668.31,129a2.28,2.28,0,1,0,2.39,2.28A2.33,2.33,0,0,0,668.31,129Z"/><path class="cls-5" d="M183.61,574.42c-4-13.44-13.43-26.48-26.47-32.38a34.6,34.6,0,0,0-22.45-2c-8.57,2.09-15.78,7.66-21.21,14.46A63.66,63.66,0,0,0,102.1,577c-2.6,9.26-2.87,18.88-3,28.43-.05,5.06-.09,10.13-.47,15.18s-.78,10-1,15c-.36,10.05-.31,20.11-.6,30.17-.1,3.49-.21,9.08,3.23,11.29,3.87,2.48,6.28-5.06,8-7.3,1.82-2.43,4.87-4.57,8-4.05,2.68.44,4.43,2.76,5.55,5.05,1.6,3.27,1.68,6.81,2.25,10.35a9.49,9.49,0,0,0,.82,3.25c.81,1.32,2.25.27,3.12-.46a14.83,14.83,0,0,0,3.56-4.75A74,74,0,0,0,135.32,669c1-3.06,2.9-6.55,6.43-7.09,2.71-.42,4.57,1.6,5.41,4,1.44,4.08,1.58,8.68,1.75,13,.18,4.44.7,8.75,2.67,12.8,1.18,2.41,4.35,6.39,7.53,4.67,1.89-1,2.42-3.44,2.75-5.38.43-2.5.82-5,1.22-7.54q1.21-7.49,2.42-15c.71-4.4,1.21-9.84,4.34-13.29a5.83,5.83,0,0,1,5.92-1.79,6.06,6.06,0,0,1,3.51,2.5c.79,1.36.58,2.9.79,4.39s.93,2.69,2.64,2.17a8.66,8.66,0,0,0,3.56-2.11c3.09-3.14,3.24-8.47,3.52-12.58a147.43,147.43,0,0,0,0-15.16q-.6-15.22-2-30.41C187,592.86,186.31,583.4,183.61,574.42ZM99.72,633.14a35.78,35.78,0,0,0,4-5.95c.18-.34,1.4-.48,1.14,0a34.7,34.7,0,0,1-4,5.94,1,1,0,0,1-.81.33C99.88,633.48,99.53,633.36,99.72,633.14Zm-.06,5q1.34-2.18,2.69-4.35a.93.93,0,0,1,.81-.35c.21,0,.5.16.35.42l-2.7,4.34a.91.91,0,0,1-.8.36C99.79,638.5,99.5,638.35,99.66,638.1Zm0,4.81,4.44-6.16c.35-.49,1.5-.23,1,.41l-4.44,6.15C100.35,643.8,99.2,643.55,99.66,642.91Zm1.28,5.4a.81.81,0,0,1-.8.39c-.23,0-.55-.28-.38-.55l4.27-6.89a.8.8,0,0,1,.8-.38c.23,0,.54.27.38.54Zm62.26-95.74a1.27,1.27,0,0,1,1.36-.6,3.38,3.38,0,0,1,1.42.7c.9.63,11.12,10,6.69,10.72a1.57,1.57,0,0,1-1.09-.33c-3.2-2-4.37-6.1-7.27-8.52C163.68,554,162.89,553.31,163.2,552.57Zm-5.89-4.81a.39.39,0,0,1,.17-.23.68.68,0,0,1,.32-.06,4.33,4.33,0,0,1,2,.6c1.78.92.07,2.61-1.64,2.29C156.71,550.09,157,548.56,157.31,547.76ZM122,572c9.59-2.29,11.07,8.27,8.8,13.09a9.06,9.06,0,0,1-.55,1,8.38,8.38,0,0,1-5.36,3.87c-5.66,1.19-8.95-3.61-9.39-7.22C115,578.77,116.29,573.35,122,572Zm51.17,30-6.35,6.43c-1.54,1.55-3.28,3-5.65,2.73-2.17-.28-4.43-2.31-6-3.73a23.89,23.89,0,0,1-3.78-4.44l-5,3.44-3.42,2.34a18.58,18.58,0,0,1-3.07,2,3.74,3.74,0,0,1-2.68.3c-1-.41-1.75-1.82-2.41-2.62l-4-4.84a34.29,34.29,0,0,1-7.69,7c-.6.37-1.95.94-2.63.46-3.65-2.57-5-6.24-6.64-10.26-.26-.65,2.76-1.62,3.08-.82a45.76,45.76,0,0,0,2.53,5.84,11.89,11.89,0,0,0,3,3.44,51.52,51.52,0,0,0,7.29-7.48c.4-.46,2.37-1.21,2.85-.63l3.75,4.55c.63.75,1.25,1.51,1.87,2.27a17.68,17.68,0,0,0,1.15,1.46l.32-.22,1.6-1.09,3.19-2.19,6.6-4.53c.49-.34,2.29-1,2.72-.33a23.32,23.32,0,0,0,7.91,8c.28.17,1.24.45,1.19.72.29-.25.58-.63.75-.8.75-.76,1.49-1.52,2.24-2.27l4.47-4.54a3.37,3.37,0,0,1,2.06-.76C172.69,601.4,173.62,601.49,173.13,602Zm-11.24-12c-5.66,1.19-8.95-3.61-9.39-7.22-.48-4,.83-9.4,6.51-10.75,9.58-2.29,11.06,8.27,8.8,13.09a9.16,9.16,0,0,1-.56,1A8.38,8.38,0,0,1,161.89,590Z"/><path class="cls-4" d="M167.25,586.1a9.16,9.16,0,0,0,.56-1c2.26-4.82.78-15.38-8.8-13.09-5.68,1.35-7,6.77-6.51,10.75.44,3.61,3.73,8.41,9.39,7.22A8.38,8.38,0,0,0,167.25,586.1Z"/><path class="cls-4" d="M124.85,590a8.38,8.38,0,0,0,5.36-3.87,9.06,9.06,0,0,0,.55-1c2.27-4.82.79-15.38-8.8-13.09-5.67,1.35-7,6.77-6.5,10.75C115.9,586.36,119.19,591.16,124.85,590Z"/><path class="cls-4" d="M176.49,719.2c-1.76-.3-3.43-1.1-2.13-1.61a2.36,2.36,0,0,0,.67-.3c.22-.26-.65-.45-1.36-.54-7.55-1-16.52-2.63-24.68-3.08a220,220,0,0,0-35.51,1.22c.68.81,4.73.14,6.39.75,1.06.38.38,1.08-.91,1.36a22.94,22.94,0,0,1-4.41.28,158.22,158.22,0,0,0-21.2,1.46c-1.73.24-3.77.75-3.21,1.38,5.69-.17,11.44-.08,17.06.26a15.92,15.92,0,0,0-4.54,1.37c-1,.62-.71,1.55,1.09,1.88a16,16,0,0,0,2.8.13l15.45-.18a8.39,8.39,0,0,1,2.74.26c.75.3.44.77.63,1.16.51,1.06,4.28,1.42,7.32,1.49a279.22,279.22,0,0,0,35.24-1.34,7.67,7.67,0,0,0,2.41-.5c.49-.28.36-.64.6-1,.64-.85,3.5-1.16,5.84-1.46s5-1,4.26-1.84C180.48,719.73,178.25,719.5,176.49,719.2Z"/><path class="cls-4" d="M172.38,601.41a3.37,3.37,0,0,0-2.06.76l-4.47,4.54c-.75.75-1.49,1.51-2.24,2.27-.17.17-.46.55-.75.8,0-.27-.91-.55-1.19-.72a23.32,23.32,0,0,1-7.91-8c-.43-.72-2.23,0-2.72.33l-6.6,4.53-3.19,2.19-1.6,1.09-.32.22a17.68,17.68,0,0,1-1.15-1.46c-.62-.76-1.24-1.52-1.87-2.27l-3.75-4.55c-.48-.58-2.45.17-2.85.63a51.52,51.52,0,0,1-7.29,7.48,11.89,11.89,0,0,1-3-3.44,45.76,45.76,0,0,1-2.53-5.84c-.32-.8-3.34.17-3.08.82,1.59,4,3,7.69,6.64,10.26.68.48,2-.09,2.63-.46a34.29,34.29,0,0,0,7.69-7l4,4.84c.66.8,1.42,2.21,2.41,2.62a3.74,3.74,0,0,0,2.68-.3,18.58,18.58,0,0,0,3.07-2l3.42-2.34,5-3.44a23.89,23.89,0,0,0,3.78,4.44c1.55,1.42,3.81,3.45,6,3.73,2.37.3,4.11-1.18,5.65-2.73l6.35-6.43C173.62,601.49,172.69,601.4,172.38,601.41Z"/><path class="cls-4" d="M104.83,640.88a.8.8,0,0,0-.8.38l-4.27,6.89c-.17.27.15.51.38.55a.81.81,0,0,0,.8-.39l4.27-6.89C105.37,641.15,105.06,640.91,104.83,640.88Z"/><path class="cls-4" d="M100.7,643.31l4.44-6.15c.46-.64-.69-.9-1-.41l-4.44,6.16C99.2,643.55,100.35,643.8,100.7,643.31Z"/><path class="cls-4" d="M100,638.52a.91.91,0,0,0,.8-.36l2.7-4.34c.15-.26-.14-.41-.35-.42a.93.93,0,0,0-.81.35q-1.35,2.18-2.69,4.35C99.5,638.35,99.79,638.5,100,638.52Z"/><path class="cls-4" d="M100.05,633.48a1,1,0,0,0,.81-.33,34.7,34.7,0,0,0,4-5.94c.26-.5-1-.36-1.14,0a35.78,35.78,0,0,1-4,5.95C99.53,633.36,99.88,633.48,100.05,633.48Z"/><path class="cls-4" d="M91.5,612.7l.82-20.28c0-.5-1.22-.25-1.23.16q-.42,10.14-.82,20.28C90.24,613.36,91.48,613.12,91.5,612.7Z"/><path class="cls-4" d="M86.3,596.22v22.66c0,.27,1.23.08,1.23-.33V595.89C87.53,595.62,86.3,595.82,86.3,596.22Z"/><path class="cls-4" d="M173.12,544.16c-.29-.23-1.4.25-1.15.44a22.27,22.27,0,0,1,7.45,10.56c.11.34,1.34,0,1.23-.33A22.49,22.49,0,0,0,173.12,544.16Z"/><path class="cls-4" d="M180,546.39c-.2-.24-1.37.18-1.16.43a18.3,18.3,0,0,1,4,8.72c0,.27,1.28,0,1.23-.33A18.52,18.52,0,0,0,180,546.39Z"/><path class="cls-7" d="M164.31,554.54c2.9,2.42,4.07,6.47,7.27,8.52a1.57,1.57,0,0,0,1.09.33c4.43-.76-5.79-10.09-6.69-10.72a3.38,3.38,0,0,0-1.42-.7,1.27,1.27,0,0,0-1.36.6C162.89,553.31,163.68,554,164.31,554.54Z"/><path class="cls-7" d="M158.18,550.36c1.71.32,3.42-1.37,1.64-2.29a4.33,4.33,0,0,0-2-.6.68.68,0,0,0-.32.06.39.39,0,0,0-.17.23C157,548.56,156.71,550.09,158.18,550.36Z"/></svg>