<svg id="sunshine" xmlns="http://www.w3.org/2000/svg" viewBox="0 0 680.31 878.74"><defs><style>.cls-1{fill:none;}.cls-2{fill:#118e5d;}.cls-3{fill:#e83d6b;}.cls-4{fill:#ec9690;}.cls-5{fill:#f3ba9d;}.cls-6{fill:#eda5ae;}.cls-7{fill:#e96d90;}</style></defs><g id="cadre"><rect class="cls-1" width="680.31" height="878.74"/></g><path class="cls-2" d="M24.91,381.3a1.53,1.53,0,0,1-1.71-.05c-.51-.36-.63-.95-.35-1.77a48.08,48.08,0,0,1,3.77-8.75,43.54,43.54,0,0,1,5.26-8.11c1.4-1.6,2.81-2.34,4.21-2.24s3.22,1.19,5.45,3.24L53.29,374.4c-.88-3.78.08-7.65,2.89-11.49a22.34,22.34,0,0,1,2.58-3.13A20.05,20.05,0,0,1,68.69,354a13.89,13.89,0,0,1,10.93,2.26c6.56,4.25,10.63,7,12.3,8.18a13.13,13.13,0,0,0,4.7.68c2.14,0,3.4.28,3.8.72l.45.5a1,1,0,0,1,.16.81,1.56,1.56,0,0,1-.5.91q-8.85,8.06-17.27,16.81-1,1.1-1.74.42A2,2,0,0,1,80.41,384a27,27,0,0,1,.07-4c.13-2.52-.2-4.15-1-4.88-1.08-1.09-5-3.81-11.83-8a10.21,10.21,0,0,0-4.89-1.47,6,6,0,0,0-4.4,2.37,7.43,7.43,0,0,0-2.11,4.14,6.44,6.44,0,0,0,.67,4,17.45,17.45,0,0,0,2,3A12.08,12.08,0,0,0,60.73,381l-.19.1,7.31,6.68c.92.84,2.7,1,5.32.67s4.09-.37,4.42-.07l.49.46a.94.94,0,0,1,.22.8,1.76,1.76,0,0,1-.49,1q-8.37,9.11-16.25,18.93c-.64.8-1.22,1-1.72.6a2.31,2.31,0,0,1-1.28-1,29.62,29.62,0,0,1,0-4.25c.07-2.69-.35-4.36-1.32-5q-12-10.06-24-20.16a3.8,3.8,0,0,0-3-1A7.64,7.64,0,0,0,27,380,12.65,12.65,0,0,1,24.91,381.3Z"/><path class="cls-2" d="M130.69,327.55a7.7,7.7,0,0,1,1.29,2.73,14.42,14.42,0,0,1,.42,4.07,18.1,18.1,0,0,1-.82,4.95,20.78,20.78,0,0,1-2.88,5.64,30.28,30.28,0,0,1-5.43,5.92l-.63.54-.62.53a33.61,33.61,0,0,1-6.24,3.84,33.17,33.17,0,0,1-7.1,2.4,17.33,17.33,0,0,1-7.68-.07,16.3,16.3,0,0,1-7.19-3.7,14.42,14.42,0,0,1-5-13c.57-5.29,3.11-10.38,7.62-15.07a30.59,30.59,0,0,1,3.89-3.53,25,25,0,0,1,12.1-5.46c4-.51,7.11-.09,9.3,1.16a2.66,2.66,0,0,1,1.29,3.42,20.24,20.24,0,0,1-3.45,5.62c-.59.71-4.62,5.5-11.42,14.81a15.14,15.14,0,0,0,7.8,1.53,13.23,13.23,0,0,0,7.08-2.69,12.61,12.61,0,0,0,4.45-5.76,6.72,6.72,0,0,0-.39-6.12c-.41-.81-.1-1.58.94-2.3A1.88,1.88,0,0,1,130.69,327.55ZM100.17,327c-1.85,2-2.15,4.34-.88,7.09a15.89,15.89,0,0,0,6.44,6.87c.78-1.2,2.76-4,6.09-8.38a5.14,5.14,0,0,0,1.12-3.2,3.25,3.25,0,0,0-1.21-2.63A13.43,13.43,0,0,0,106.1,325a7.07,7.07,0,0,0-5.2,1.38A4.67,4.67,0,0,0,100.17,327Z"/><path class="cls-2" d="M154.36,316.79c.63,1.07,2.21,1.84,4.73,2.33s3.87,1,4.09,1.35c.11.2.22.39.32.59a.94.94,0,0,1,0,.82,1.6,1.6,0,0,1-.73.8q-10.11,5.79-19.92,12.3-1.2.81-1.74,0a2.53,2.53,0,0,1-.9-1.37,27.69,27.69,0,0,1,1.08-3.94c.77-2.47.82-4.15.1-5.05q-8.43-13.23-16.83-26.49a3.94,3.94,0,0,0-2.49-1.94,7.05,7.05,0,0,0-3.3.21,10.94,10.94,0,0,1-2.24.49,1.52,1.52,0,0,1-1.56-.61,1.39,1.39,0,0,1,.14-1.75,43.61,43.61,0,0,1,5.76-6.87,38.67,38.67,0,0,1,7-5.82c1.71-1,3.21-1.28,4.47-.73s2.66,2.14,4.17,4.77Q145.39,301.35,154.36,316.79Z"/><path class="cls-2" d="M182.84,301.69c.53,1.12,2,2,4.48,2.76s3.75,1.31,3.93,1.72l.28.61a1,1,0,0,1-.08.81,1.53,1.53,0,0,1-.79.73q-10.47,4.81-20.7,10.35c-.83.46-1.41.4-1.71-.17a2.47,2.47,0,0,1-.78-1.44,25.94,25.94,0,0,1,1.39-3.81c1-2.37,1.15-4,.52-5q-7.24-13.92-14.44-27.86a4,4,0,0,0-2.29-2.16,7,7,0,0,0-3.29-.11,11.32,11.32,0,0,1-2.24.28,1.55,1.55,0,0,1-1.5-.75,1.41,1.41,0,0,1,.28-1.73,42.76,42.76,0,0,1,6.26-6.27,37.68,37.68,0,0,1,7.37-5.13c1.78-.87,3.28-1,4.48-.31s2.45,2.38,3.73,5.13Q175.26,285.52,182.84,301.69Z"/><path class="cls-2" d="M204.83,264.71c7-2.57,13.43-2.84,19-.94s9,5.39,10.37,10.25.51,9.73-2.58,14.33-7.87,8-14.46,10.42-12.38,2.89-17.76,1.39-9.17-4.53-11.25-9.27-1.6-9.53,1.51-14.62S197.87,267.25,204.83,264.71Zm15.06,29.67c2.32-1.4,3.28-3.66,2.88-6.83a21.54,21.54,0,0,0-4.2-9.83,27.87,27.87,0,0,0-7.69-7.55c-2.69-1.65-5.23-2-7.56-1.17a6.71,6.71,0,0,0-1.11.58c-2.5,1.53-3.54,3.9-3.12,7.07a20.74,20.74,0,0,0,4.48,9.73,26.92,26.92,0,0,0,7.45,7.44c2.63,1.65,5.09,2.07,7.42,1.23A6.72,6.72,0,0,0,219.89,294.38Z"/><path class="cls-2" d="M298.11,258.3c1.08.33,1.8.56,2.15.7s1.14.49,2.35,1.07a11.43,11.43,0,0,1,2.71,1.69A10.13,10.13,0,0,1,307.1,264a6.34,6.34,0,0,1,.94,3.17,8.08,8.08,0,0,1-2.72,6.46,20.73,20.73,0,0,1-7.36,4.45,53.1,53.1,0,0,1-10,2.51c-5.6.87-10.29.88-14.13-.07s-6.17-2.29-6.9-4.12a5.12,5.12,0,0,1,.31-4.4,7.54,7.54,0,0,1,3.89-3.18,12.41,12.41,0,0,1,1.57-.44,12.66,12.66,0,0,1,5.34.16c1.78.43,2.78,1,3,1.8q.3.72-.66,2.07a5.31,5.31,0,0,0-1.06,2.37c-.23,1.5.46,2.56,2.05,3.21a11,11,0,0,0,5.82.45,9.55,9.55,0,0,0,5.22-2.12,3.71,3.71,0,0,0,1.36-3.66c-.22-1.23-1.18-2.31-2.92-3.23a23.94,23.94,0,0,0-5.26-2c-.31-.05-.92-.2-1.84-.44l-3.24-.85-2.73-.72c-8-1.83-12.26-4.59-12.61-8.69-.09-2.81,1.62-5.45,5.24-7.84a32.93,32.93,0,0,1,13.69-4.8l1.8-.25c5.53-.51,9.75-.15,12.63.94s4.44,2.53,4.72,4.25a2.88,2.88,0,0,1-1,2.75,6.82,6.82,0,0,1-3.91,1.64,10.24,10.24,0,0,1-1.37.23,12.06,12.06,0,0,1-4.68-.35c-1.45-.42-2.33-1-2.61-1.77-.06-.45.29-1,1-1.56s1.13-1.15,1.13-1.65a1.22,1.22,0,0,0-.49-1,4.66,4.66,0,0,0-2.06-.83,12.27,12.27,0,0,0-3.7-.1,15.77,15.77,0,0,0-5.06,1.53c-1.49.75-2.13,1.78-1.93,3.05a2.9,2.9,0,0,0,1.48,1.61,9.54,9.54,0,0,0,2.14,1l2.74.72c.26.07,1.32.35,3.17.88s3.72,1.07,5.61,1.64S297.09,257.91,298.11,258.3Z"/><path class="cls-2" d="M362.79,274.34c0,.54-.07,1.09-.11,1.63a.92.92,0,0,1-.43.61,1.45,1.45,0,0,1-1,.27l-6.48-.37c-1.9-.1-3.11-.15-3.62-.17a6.67,6.67,0,0,1-4.51-1.87,11.18,11.18,0,0,1-2.85-4.32c-1.83,4.5-5.72,6.71-11.76,6.83a18.88,18.88,0,0,1-10.16-2.54,13.64,13.64,0,0,1-6.21-8.68q-.58-2.13-1.23-12.68a5.67,5.67,0,0,0-1.05-2.62,8.17,8.17,0,0,0-1.66-1.79c-.53-.38-1.19-.82-2-1.31l-1.38-.86a1.84,1.84,0,0,1-.87-1.42,1.46,1.46,0,0,1,.75-1.41c2.2-1.17,6.8-2,13.78-2.35,3-.14,5.07.28,6.07,1.19s1.5,3,1.51,6.22q.17,8.15.34,16.31a8,8,0,0,0,2,4.38,5.36,5.36,0,0,0,4.46,1.76,6,6,0,0,0,3.48-1.21,6.2,6.2,0,0,0,2.1-2.89,21.68,21.68,0,0,0,.93-3.39,20.87,20.87,0,0,0,.32-3.31q.14-3.8.29-7.59a6.41,6.41,0,0,0-.38-2.35A5.92,5.92,0,0,0,342,248.5c-.49-.55-.94-1-1.34-1.39a12.75,12.75,0,0,0-1.49-1.15c-.59-.4-1-.64-1.08-.74a2,2,0,0,1-.8-1.49,1.37,1.37,0,0,1,.9-1.35c2.15-1,6.76-1.51,13.8-1.3,3.11.1,5.13.66,6.06,1.62s1.26,3.08,1,6.35q-.75,9-1.45,18a3.72,3.72,0,0,0,1,2.77,26.41,26.41,0,0,0,2.56,2.76A8.72,8.72,0,0,1,362.79,274.34Z"/><path class="cls-2" d="M370.51,250.62a1.73,1.73,0,0,1-.71-1.51,2,2,0,0,1,1-1.46c1.07-.81,3.67-1.59,7.83-2.25a47.08,47.08,0,0,1,8.82-.78,2.88,2.88,0,0,1,2.42,1.92,13.34,13.34,0,0,1,1,4.38,10.66,10.66,0,0,1,6-4.23,18.83,18.83,0,0,1,8.48-.36,17.49,17.49,0,0,1,9.57,4.74c2.55,2.5,3.83,5.91,3.9,10.19s0,9.12.13,14.74a13.37,13.37,0,0,0,1.84,4.2c1,1.74,1.46,2.9,1.33,3.48-.06.22-.11.44-.16.65a.94.94,0,0,1-.55.6,1.34,1.34,0,0,1-1,.12q-10.86-2.52-21.85-4.35c-.91-.15-1.31-.54-1.2-1.18a2.94,2.94,0,0,1,.36-1.6,26.35,26.35,0,0,1,3.14-2.23c2-1.34,3.12-2.54,3.26-3.63.31-1.71.36-6.47,0-14.29a9.51,9.51,0,0,0-1.32-4.83,5.37,5.37,0,0,0-4.09-2.24,6.24,6.24,0,0,0-4.13.67,6,6,0,0,0-2.64,2.86,29.28,29.28,0,0,0-1.26,3.25,11.33,11.33,0,0,0-.51,2.6h-.09c-.46,3.24-.91,6.49-1.37,9.74-.17,1.23.55,2.8,2.13,4.73s2.31,3.12,2.25,3.56c0,.22-.07.45-.11.67-.1.68-.59,1-1.44.84Q380.38,278,369.12,277c-.92-.07-1.36-.43-1.31-1.08a1.88,1.88,0,0,1,.32-1.62,5.23,5.23,0,0,1,1.8-1.53,19.75,19.75,0,0,0,2.9-2.29,3.71,3.71,0,0,0,1.36-2.53q.57-5.75,1.15-11.49a4.48,4.48,0,0,0-.61-3.12,5.72,5.72,0,0,0-2.39-1.82A9.93,9.93,0,0,1,370.51,250.62Z"/><path class="cls-2" d="M461.44,276.19c.83.75,1.38,1.27,1.64,1.55s.82.93,1.68,2a11,11,0,0,1,1.73,2.68,10.5,10.5,0,0,1,.65,2.81,6.35,6.35,0,0,1-.51,3.27,8.07,8.07,0,0,1-5.24,4.68,21,21,0,0,1-8.58.89,53.08,53.08,0,0,1-10.13-2C437.25,290.47,433,288.5,430,286s-4.57-4.68-4.44-6.65a5.12,5.12,0,0,1,2.15-3.84,7.44,7.44,0,0,1,4.86-1.23,12.23,12.23,0,0,1,1.61.26,12.51,12.51,0,0,1,4.75,2.41c1.42,1.14,2.06,2.12,2,2.91,0,.51-.53,1-1.49,1.59a5.4,5.4,0,0,0-2,1.69,2.77,2.77,0,0,0,.47,3.77,10.92,10.92,0,0,0,5.06,2.88,9.65,9.65,0,0,0,5.63.3,3.72,3.72,0,0,0,2.8-2.74c.33-1.2-.08-2.59-1.26-4.16a23.62,23.62,0,0,0-3.88-4.08c-.26-.18-.75-.58-1.48-1.18l-2.56-2.14L440,274c-6.41-5-9.09-9.33-7.65-13.19,1.11-2.59,3.78-4.25,8.06-4.88a32.81,32.81,0,0,1,14.43,1.46l1.74.53c5.22,1.89,8.9,4,11,6.23s2.94,4.18,2.46,5.85A2.88,2.88,0,0,1,468,272a6.9,6.9,0,0,1-4.25-.18,10.74,10.74,0,0,1-1.34-.39,11.92,11.92,0,0,1-4.09-2.3c-1.14-1-1.68-1.9-1.61-2.71.14-.43.67-.75,1.6-1a2.41,2.41,0,0,0,1.73-1,1.22,1.22,0,0,0,0-1.07,4.54,4.54,0,0,0-1.51-1.63,12.2,12.2,0,0,0-3.3-1.66,16.14,16.14,0,0,0-5.23-.77q-2.51.09-3.06,1.95a3,3,0,0,0,.65,2.09,9.31,9.31,0,0,0,1.51,1.8c.46.4,1.19,1,2.17,1.82.21.17,1,.88,2.49,2.14s2.91,2.55,4.38,3.87S460.67,275.4,461.44,276.19Z"/><path class="cls-2" d="M484,256.23a1.57,1.57,0,0,1-.37-1.62,1.41,1.41,0,0,1,1.48-.91,41,41,0,0,1,8.68.63,37.09,37.09,0,0,1,8.54,2.22c1.78.78,2.81,1.85,3.08,3.19s-.24,3.39-1.51,6.14q-3.33,7.26-6.65,14.5c3.16-2.06,6.88-2.45,11.08-1.1a20.31,20.31,0,0,1,3.52,1.38A18,18,0,0,1,519.8,288c1.76,3.15,2.05,6.8.9,10.93-2.1,7.52-3.53,12.22-4.13,14.16a13.06,13.06,0,0,0,.68,4.62c.56,2,.68,3.26.38,3.78-.11.19-.22.39-.34.58a.93.93,0,0,1-.7.41,1.38,1.38,0,0,1-1-.17q-9.84-5.62-20-10.58c-.84-.41-1.12-.9-.84-1.48a2.18,2.18,0,0,1,.8-1.43,27.68,27.68,0,0,1,3.64-1.25c2.32-.72,3.71-1.56,4.15-2.56.7-1.37,2.13-5.91,4.15-13.67a10.51,10.51,0,0,0,0-5A5.31,5.31,0,0,0,504.3,283a6.5,6.5,0,0,0-4.28-.6,6.36,6.36,0,0,0-3.39,1.94,18.23,18.23,0,0,0-2.15,2.78,13.09,13.09,0,0,0-1.19,2.37l-.14-.14-4.11,9c-.52,1.13-.25,2.85.76,5.17s1.39,3.69,1.2,4.09l-.28.61a1,1,0,0,1-.67.47,1.51,1.51,0,0,1-1.05-.12q-10.33-4.79-20.91-8.87c-.87-.34-1.19-.8-1-1.41a2.53,2.53,0,0,1,.6-1.52,26.11,26.11,0,0,1,3.74-1.43c2.39-.83,3.76-1.77,4.08-2.88q5.93-14.52,11.89-29a4,4,0,0,0,.18-3.13,6.79,6.79,0,0,0-2-2.55A11.74,11.74,0,0,1,484,256.23Z"/><path class="cls-2" d="M543.58,328.78c-.71,1-.74,2.77-.14,5.24s.74,3.88.48,4.24l-.39.55c-.4.57-1,.59-1.69.08q-9.55-6.64-19.44-12.6c-.81-.49-1-1-.71-1.56a2.51,2.51,0,0,1,.84-1.4,9.06,9.06,0,0,1,2.44-.49,24.38,24.38,0,0,0,3.73-.74,3.65,3.65,0,0,0,2.34-1.62q3.57-5.7,7.13-11.37A4.38,4.38,0,0,0,539,306a6,6,0,0,0-1.43-2.76,10.39,10.39,0,0,1-1.31-1.7,1.77,1.77,0,0,1,0-1.74,1.55,1.55,0,0,1,1.64-.76,40.79,40.79,0,0,1,8.2,2.11,36,36,0,0,1,7.76,3.53c1.58,1,2.38,2.25,2.39,3.61s-.85,3.29-2.56,5.78Q548.61,321.44,543.58,328.78ZM559,289.84a14.33,14.33,0,0,1,5.31,5.65c1,2.13,1,3.89.09,5.28s-2.65,2-5,1.86a14.65,14.65,0,0,1-7.11-2.5,14.34,14.34,0,0,1-5.17-5.43c-1.09-2.11-1.2-3.87-.31-5.31s2.53-2.13,4.93-2A14.26,14.26,0,0,1,559,289.84Z"/><path class="cls-2" d="M563.31,321.71a1.75,1.75,0,0,1,.16-1.68,1.94,1.94,0,0,1,1.61-.72c1.36-.11,4.06.63,8.06,2.33a48.3,48.3,0,0,1,8.18,4.15,3,3,0,0,1,1.14,3,13,13,0,0,1-1.39,4.31,10.81,10.81,0,0,1,7.5-.31,20.26,20.26,0,0,1,7.69,4.41,19.06,19.06,0,0,1,6,9.43,14,14,0,0,1-1.83,10.95c-2.22,3.58-4.72,7.84-7.54,12.73a13.76,13.76,0,0,0-.54,4.65c0,2.09-.21,3.33-.63,3.75l-.48.47a.93.93,0,0,1-.79.21,1.49,1.49,0,0,1-.92-.45q-8.34-8.36-17.1-16c-.72-.64-.88-1.2-.45-1.68a2.83,2.83,0,0,1,1.15-1.18,28.52,28.52,0,0,1,3.93-.16c2.49,0,4.08-.44,4.77-1.29,1.16-1.29,3.68-5.35,7.43-12.25a9.46,9.46,0,0,0,1.34-4.87,5.76,5.76,0,0,0-2.46-4.2,6.74,6.74,0,0,0-4-1.72,6.13,6.13,0,0,0-3.81,1,29.09,29.09,0,0,0-2.8,2.09,10.94,10.94,0,0,0-1.79,1.95l-.08-.06-6.26,7.58c-.8,1-1,2.71-.58,5.23s.42,4,.13,4.29l-.44.52c-.45.53-1,.5-1.71-.08q-9-7.59-18.45-14.48c-.77-.56-1-1.1-.58-1.62a1.82,1.82,0,0,1,1.11-1.22,5.27,5.27,0,0,1,2.38-.34A20,20,0,0,0,555,340a3.71,3.71,0,0,0,2.51-1.43l7-9.21a4.36,4.36,0,0,0,1.08-3,6.06,6.06,0,0,0-1.15-2.85A10.55,10.55,0,0,1,563.31,321.71Z"/><path class="cls-2" d="M631.8,407.76a7.5,7.5,0,0,1-2.69,1.4,14.41,14.41,0,0,1-4.09.53A18.82,18.82,0,0,1,620,409a22.53,22.53,0,0,1-5.88-2.78,32.45,32.45,0,0,1-6.29-5.3c-.12-.14-.31-.35-.57-.61s-.45-.47-.57-.62a34.3,34.3,0,0,1-4.19-6.14,33,33,0,0,1-2.76-7,17.28,17.28,0,0,1-.29-7.69,16.36,16.36,0,0,1,3.35-7.36,14.35,14.35,0,0,1,12.68-5.62c5.29.3,10.5,2.61,15.46,7a32.14,32.14,0,0,1,3.77,3.79,26.56,26.56,0,0,1,6.24,12.13c.78,4.09.57,7.29-.55,9.58a2.61,2.61,0,0,1-3.38,1.41,21.7,21.7,0,0,1-5.92-3.39c-.74-.57-5.87-4.57-15.58-11a15.18,15.18,0,0,0-1.1,7.93,13.86,13.86,0,0,0,3.13,7.09,13.48,13.48,0,0,0,6.09,4.36,6.7,6.7,0,0,0,6.17-.58c.79-.44,1.59-.14,2.39.9A1.92,1.92,0,0,1,631.8,407.76Zm-1.38-31.14c-2.09-1.8-4.48-2-7.17-.6a15.71,15.71,0,0,0-6.53,6.78c1.25.74,4.18,2.61,8.77,5.83a5.26,5.26,0,0,0,3.28,1,3.17,3.17,0,0,0,2.57-1.32,13.44,13.44,0,0,0,1.49-5.79,7.33,7.33,0,0,0-1.69-5.21A5.86,5.86,0,0,0,630.42,376.62Z"/><path class="cls-3" d="M8.83,615.06Q339.58,622.44,670.9,617c0-3.1,1.06-6.71,1-9.81l-456.7-.91c-69-.14-138.07-.27-206.72,2.73C8.14,611.12,9.17,612.9,8.83,615.06Z"/><path class="cls-3" d="M8.83,635q330.75,4.66,662.07,1.2c0-2,1.06-4.24,1-6.19l-456.7-.58c-69-.08-138.07-.17-206.72,1.73C8.14,632.55,9.17,633.67,8.83,635Z"/><path class="cls-4" d="M659,559.44c4.33,4.19,4.75,12.07,8.63,17.51-8.84,3.08-21.75,1.87-31.37,2.43q-16.86,1-33.71,1.8-33.73,1.67-67.47,2.78-68.3,2.25-136.63,2.19c-24.1,0-48.2-.38-72.29-.95-53.53-1.25-107-3.51-160.52-5.21-26.74-.84-53.49-1.55-80.24-1.92q-20.05-.29-40.12-.28c-11.45,0-25.84,2.4-36.79-.18,2.51-5.87,7.78-17.47,14.18-19.84s18.42.07,25.23.21c19,.42,38.07,1.6,57.12,2q67.74,1,135.49,1.44,135.51.83,271-.91,37.94-.48,75.87-1.16c13.61-.24,27.24-1.64,40.84-2.25,7.72-.34,15.5-.77,23.22-.53A10.7,10.7,0,0,1,659,559.44Z"/><path class="cls-5" d="M521.68,515.58c30.23.09,60.49.18,90.67-1.58,9.39-.54,27.63-3,32.67,7l6.42,12.64c-20.11,2.65-40,1.92-60.38,1.91l-102.07,0-204.14,0-255.17-.06C31.73,530.2,41,516.91,45.2,513.26c4.34-3.79,5.78-.35,11.19-.29q25.5.27,51,.51,51,.48,102,.8,102,.68,204.08,1Q467.6,515.43,521.68,515.58Z"/><path class="cls-6" d="M631.72,480.82c-4.66-14.64-10.33-17.34-21.07-28.89-8.1-8.72-24.18-3.36-34.65-3-135.95,4.16-271.41,4.86-407.32,2.1-23-.47-45.89-2-68.85-2.47-8-.18-19.85-2.35-27,2.44-7.34,4.91-16.9,20.62-21.48,29.12a3.5,3.5,0,0,0-.55,2.75,2.3,2.3,0,0,0,1.38,1.22c9.81,4.32,26,1.17,36.37,1.17H308.26c105.66,0,211.51,3,317.3,4.38l6.43.08C632,486.11,632.73,484,631.72,480.82Z"/><path class="cls-7" d="M542.74,391.18c-25.75-.18-51.51,0-77.27.18-51.44.36-102.88,1.1-154.31,1.48-57.74.44-115.42-.52-173.12-.52-9.19,0-18.17-1.55-26.23,3.31a45.74,45.74,0,0,0-4.11,2.85c-3.57,4.16-7.13,8.23-10.38,12.27q-5.67,7-11.49,14.21a21.32,21.32,0,0,0-1.5,5.24c39.17,8.33,92.63,4.1,132.73,4.61,42.47.53,90.26.33,132.73,0s86.43-1.24,128.89-2.31c40.85-1,81.12-.25,122,0C584.24,414.42,567.37,391.36,542.74,391.18Z"/><path class="cls-3" d="M538.77,373.92h-402c49.6-33.25,108.88-65.8,168.55-67.7,27.61-.87,76.76-1.6,103.62,4.84C462.64,323.94,494.36,341,538.77,373.92Z"/></svg>