<svg id="goodvibes" xmlns="http://www.w3.org/2000/svg" viewBox="0 0 680.31 878.74"><defs><style>.cls-1{fill:none;}.cls-2{fill:#608ac4;}</style></defs><g id="cadre"><rect class="cls-1" width="680.31" height="878.74"/></g><path class="cls-2" d="M232.45,373q0,1.86-2.25,10.79a242.34,242.34,0,0,0-2.06,31.26q0,25.31-1.87,32.56-3.56,4.47-11.8,4.47c-.88,0-2.69-.1-5.44-.28s-4.49-.28-5.24-.28a62.85,62.85,0,0,0-9.65,1.11,62,62,0,0,1-9.65,1.12q-37.85,0-42-51.73-.93-11.53-.94-20.65,0-49.86,27-68.29,5.25-3.52,15.37-5.95a71.47,71.47,0,0,1,16.3-2.23q13.49,0,19.86,3.34,4.31,2.24,4.3,22.89a65,65,0,0,1-1.68,15.07q-3.57,4.65-7.68,4.65-4.5,0-12.74-5.58t-12-5.58q-12.75,0-12.74,29.77c0,.74-.1,2.36-.28,4.84s-.28,4.09-.28,4.84c0,.49.09,1.52.28,3.07s.28,2.45.28,2.7a96.13,96.13,0,0,0,1.87,12.83q2.07,7.26,7.49,9.86h1.88a6.46,6.46,0,0,0,5.43-2.41,44,44,0,0,0,.94-8.75q0-13.57-7.12-19.16a22.15,22.15,0,0,1-.37-3.35c0-3.6,1.49-5.89,4.49-6.89a53.58,53.58,0,0,1,16.67-2.23,91.52,91.52,0,0,1,18.93,1.86q3.18.75,3.93,1.77T232.45,373Z"/><path class="cls-2" d="M332.69,377.47q0,53.4-26.18,70.89-8,5.4-22.63,5.4-12.33,0-19.81-5.4-18.33-13-21.69-46.89c-.63-6.32-.93-10.6-.93-12.83q0-31.63,10.84-57.31,11.21-26.43,38-26.42,15.15,0,23,8a64,64,0,0,1,16.46,29.95Q332.69,355.15,332.69,377.47Zm-34.1,6.89V370.59q0-21.21-11.8-21.21c-2.25,0-4.32,1.18-6.19,3.53q-3.75,4.84-3.75,26.24,0,10.05,1.31,14.7,2.44,8.92,9.75,8.93,6.93,0,9.18-6.33Q298.59,392.36,298.59,384.36Z"/><path class="cls-2" d="M433.11,377.47q0,53.4-26.18,70.89-8,5.4-22.62,5.4-12.35,0-19.82-5.4-18.33-13-21.69-46.89-.93-9.48-.93-12.83,0-31.63,10.84-57.31,11.22-26.43,38-26.42,15.13,0,23,8a64,64,0,0,1,16.46,29.95Q433.11,355.15,433.11,377.47ZM399,384.36V370.59q0-21.21-11.8-21.21-3.37,0-6.19,3.53-3.75,4.84-3.74,26.24,0,10.05,1.31,14.7,2.43,8.92,9.74,8.93,6.93,0,9.18-6.33Q399,392.36,399,384.36Z"/><path class="cls-2" d="M534.84,372.35a279.85,279.85,0,0,1-2.25,31.29q-.95,7.28-1.5,10.07a59.37,59.37,0,0,1-3,9.87q-9.74,23.85-29.22,27.76a135.13,135.13,0,0,1-26.61,2.42,93,93,0,0,1-15.17-.93q-7.3-1.31-8.81-9.32a73.63,73.63,0,0,1-.37-8.2q-.39-10.8-.38-18.81,0-12.3.38-30.37l.56-38.19v-4.28c-.13-1.74-.19-2.8-.19-3.17q0-3.54-2.9-10.25t-2.91-10.43c0-3.11,1.69-5.71,5.06-7.83.25-.12,1.88-.74,4.87-1.86A85.56,85.56,0,0,1,482,304.91q26.6,0,37.84,13.41a63.54,63.54,0,0,1,4.12,6.15Q534.85,342.73,534.84,372.35ZM500.74,379a67.42,67.42,0,0,0-4.5-24.37q-2.06-5.4-6.74-5.4a6.93,6.93,0,0,0-3.56,1.12q-2.81,1.67-2.81,30.88,0,14.52.37,17.86a5.72,5.72,0,0,0,1.88,2.61,25.82,25.82,0,0,0,5.24.93Q500.75,402.59,500.74,379Z"/><path class="cls-2" d="M189.92,487.33q0,14.84-13.53,76.48l-18,81.34q-1.86,8.58-6.53,12.05-7,5.1-27.07,5.1-20.29,0-25.67-1.86-6.53-2.31-8.63-13.21t-12.6-83q-2.1-12.75-7.24-45.89a77.46,77.46,0,0,0-3-10.65q-5.13-8.82-5.13-13.91,0-9.27,14.7-13.21,4.66-1.39,22.4-3,7-.71,8.4-.7,9.33,0,11.43,7.88,1.41,5.57,2.81,28,.93,16,4.43,57.24,1.62,14.37,4.66,14.37c2.34,0,3.81-1.93,4.44-5.79a27.47,27.47,0,0,0,.7-4.4L138.35,558q3.51-28.28,3.5-45A44.68,44.68,0,0,0,140,499.84a19.52,19.52,0,0,1-.93-5.79q0-7.87,7.46-11.12,11.67-5.1,31-5.1Q189.92,477.83,189.92,487.33Z"/><path class="cls-2" d="M253.86,648.39q0,4.64-.7,5.33-6.76,10-25.2,8.58l-18.2-1.4q-5.13-2.77-6.3-10.19V638.2a8.85,8.85,0,0,0-.23-2.09V634c0-3.08.08-6,.23-8.8l.47-8.58q0-4.17.93-73.46,0-4.86.23-17.15a30.2,30.2,0,0,1,.47-4.87c0-3.08-1.05-7.8-3.15-14.13s-3.15-11.12-3.15-14.37v-2.09a19.7,19.7,0,0,1,13.07-8.8l16.1-3.48a53.52,53.52,0,0,1,10.5-1.39q9.8,0,12.13,5.8,2.56,6.48,2.57,31.28,0,9.51-.82,28.62T252,571.22q0,13,.93,38.59T253.86,648.39Z"/><path class="cls-2" d="M380.8,606q0,30.13-22.63,44.5Q339.5,662.29,307.3,662.3q-33.6,0-35.94-10.66-1.86-8.11-1.86-46.12,0-17.14.47-41.95l.69-41.94c0-2.78-1-7.11-3.15-13s-3.15-10.35-3.15-13.44q0-7.87,7.23-11.59L276.5,482a105.45,105.45,0,0,1,33.36-5.1q31.51,0,46,6.26Q378,492.43,378,518.85a43.1,43.1,0,0,1-4,18.77q-2.32,4.86-8.39,11.35a133.18,133.18,0,0,0-9.11,10.66Q380.8,574.93,380.8,606Zm-51.57-70.21a21.47,21.47,0,0,0-2.79-10.43q-4.44-2.55-5.61-2.55-7,0-7,13.44,0,9.27,6.77,9.27Q329.23,545.5,329.23,535.77Zm4,62.57c0-3.09-.48-5.34-1.43-6.72a49.1,49.1,0,0,0-5.26-4.64c-.32,0-1.36-.12-3.11-.35a34.32,34.32,0,0,0-3.59-.35,6.23,6.23,0,0,0-4.78,2.09c0,.77-.2,2.67-.6,5.68a58.21,58.21,0,0,0-.6,5.91,11.81,11.81,0,0,0,2.87,8.11,12.64,12.64,0,0,0,4.3.69Q333.2,608.76,333.2,598.34Z"/><path class="cls-2" d="M497,513.75q0,17.38-11.11,17.38-4.17,0-13.55-4.87t-15.16-4.86q-9,0-10.18-.24-8.56,2.1-8.57,11.13a43.14,43.14,0,0,0,1.62,10.43,6.14,6.14,0,0,0,3.69,1.39q3.45,0,12.92-4.06t13.61-4q6.24,0,8.54,4.17,1.4,2.55,1.39,10c0,2.48-.16,6.22-.47,11.24s-.46,8.77-.46,11.24v3.48a20.13,20.13,0,0,1-2.8,7.41q-2.81,4.63-6.07,4.64-7,0-17-5.1c-4.19-2.16-7.62-3.94-10.26-5.33q-4.68,0-4.67,13.91,0,8.8,3.5,12c1.55,1.4,4.2,2.09,7.93,2.09q7.23,0,21.7-6.26t17-6.25c1.4,0,2.88,1.15,4.43,3.47a19.23,19.23,0,0,1,3,6.95,32.88,32.88,0,0,1,.71,6.49c0,1.24-.16,3.94-.47,8.12s-.47,6.87-.47,8.11q0,23.18-6.06,32.67a29.55,29.55,0,0,1-12.84,2.78h-47.6q-18.19,0-23.33-1.39-10-2.78-10-18.07,0-20.16.93-59.33l1.41-60.48q0-4.87-3.27-14.83-3-9.27-3-14.61a19.91,19.91,0,0,1,2.09-9q7-5.79,23.11-6.72c5.28-.31,7.31-.47,6.06-.47h23.1c.94,0,2.88.12,5.84.35s4.74.35,5.36.35q11.67,0,31.74,1.85,5.13,1.86,6.07,16.69a29.44,29.44,0,0,0,.69,4.86A75.37,75.37,0,0,1,497,513.75Z"/><path class="cls-2" d="M613.91,604.13a70,70,0,0,1-4.67,25q-5.15,13.67-14.24,21.08-14.68,12.06-51.79,12.06.69,0-.12-.12l-2.68-.35q-5.61-.47-16.58-1.16-9.33-.69-13.3-8.34-.69-8.12-1.86-17.38a134.43,134.43,0,0,1-1.4-17.15,53.74,53.74,0,0,1,4.67-22.25,11.82,11.82,0,0,1,7.93-2.78q3,0,14.46,8.46T553,609.69a9.68,9.68,0,0,0,2.57-.23c2.34-1.39,3.5-4,3.5-7.88q0-7-12.6-17.61-18.9-16-23.57-21.79-12.6-15.52-12.6-33.6,0-16.91,7.94-27.81,12.82-17.37,36.63-22.48a55.65,55.65,0,0,1,8.4-1.39c.78,0,2.53.08,5.25.23s4.4.24,5,.24q20.07,0,26.37,1.39,9.32,6.25,9.33,26.65a87.76,87.76,0,0,1-1.86,19q-2.11,9.27-8.64,9.27-5.37,0-15.63-6.72t-14.94-6.72a13.55,13.55,0,0,0-6.76,1.85,9.07,9.07,0,0,0-.94,4.17q0,6.25,13.77,18.31,21.71,18.76,25.9,24.1Q613.9,585.83,613.91,604.13Z"/><path class="cls-2" d="M77.94,354.7a295.79,295.79,0,0,1-48-50.16c-8-10.75-26.32-.25-18.2,10.63A317,317,0,0,0,63,369.61c10.35,8.61,25.35-6.22,14.9-14.91Z"/><path class="cls-2" d="M87.28,412.37a294,294,0,0,1-68,13.19c-13.46,1-13.56,22.06,0,21.08A318.39,318.39,0,0,0,92.88,432.7c12.89-4.09,7.38-24.44-5.6-20.33Z"/><path class="cls-2" d="M117.27,318.84A356.17,356.17,0,0,1,78,223.78c-3.33-13.15-23.66-7.58-20.33,5.6a376.44,376.44,0,0,0,41.42,100.1c6.93,11.65,25.16,1.06,18.2-10.64Z"/><path class="cls-2" d="M600.43,393.64a210.12,210.12,0,0,1,52.43-51.24c11.13-7.61.6-25.88-10.64-18.2a238.77,238.77,0,0,0-60,58.8c-7.9,11.06,10.37,21.6,18.2,10.64Z"/><path class="cls-2" d="M578.3,321.9l23.37-60.06c4.92-12.65-15.46-18.13-20.33-5.61L558,316.3c-4.92,12.65,15.46,18.13,20.33,5.6Z"/><path class="cls-2" d="M594.79,436.81,658,449.56c13.25,2.67,18.91-17.64,5.61-20.33l-63.18-12.75c-13.24-2.67-18.91,17.65-5.6,20.33Z"/></svg>