<?xml version="1.0" encoding="utf-8"?>
<!-- Generator: Adobe Illustrator 24.2.0, SVG Export Plug-In . SVG Version: 6.00 Build 0)  -->
<svg version="1.1" id="lapin" xmlns="http://www.w3.org/2000/svg" xmlns:xlink="http://www.w3.org/1999/xlink" x="0px" y="0px"
	 viewBox="0 0 680.3 878.7" style="enable-background:new 0 0 680.3 878.7;" xml:space="preserve">
<style type="text/css">
	.st0{fill:#C2854A;}
	.st1{fill:#EFE9DF;}
	.st2{fill:#F2DACA;}
	.st3{fill:#2E2821;}
	.st4{fill:#F9F2F6;}
	.st5{fill:#AD8D5F;}
	.st6{fill:#EF8C1B;}
	.st7{fill:#7B9473;}
	.st8{fill:#C28549;}
	.st9{fill:#FFFFFF;}
	.st10{fill:#8C6139;}
	.st11{fill:none;}
</style>
<g>
	<path class="st0" d="M317.6,632.7c-5.8,1.1-12.1,2.1-17.3,4.9c-6.6,3.5-5.6,5.9-5.4,12.9c0.4,12.7,1,26.1-3,38.3
		c-5,15.1-11,29.9-12,46c-1.3,20.6,1.9,41.7,11.3,60.1c7.1,14.1,17.6,26.1,27.9,38c2.3,2.6,4.6,5.3,7.8,6.8c2.8,1.4,6,1.7,9.1,1.9
		c9.4,0.8,18.8,1.7,28.2,2.5c4.5,0.4,9.1,0.8,13.6,0.1c6.8-1,13-4.3,18.4-8.5c17.1-13.2,26.4-33.9,33.8-54.1
		c3.5-9.6,6.7-19.3,8-29.4c3.6-28.7-8.9-57-24.1-81.6c-5-8.2-10.4-16.2-13.5-25.3c-1.4-4-2.4-8.3-5.1-11.6
		c-3.8-4.6-10.3-6.1-16.2-6.8C358.5,624.9,337.9,628.8,317.6,632.7z"/>
	<path class="st1" d="M308.9,714.2c-7.6,17.3-8,36.8-7.8,55.7c0.2,19.4,1.5,40.5,14.2,54.9c2.3,2.7,5.1,5.1,8.3,6.4
		c2.8,1.2,5.8,1.5,8.8,1.8c16.1,1.8,33.4,3.2,47.5-5.1c14.1-8.3,21.6-24.6,26.9-40.2c4.5-13.1,8.1-27.6,3.7-40.7
		c-2.6-7.9-7.8-14.5-12.9-20.9c-10-12.6-20-25.3-30-37.9c-7.7-9.8-19.6-19-31.2-10.1C325.2,686.7,314.7,701.3,308.9,714.2z"/>
	<g>
		<g>
			<g>
				<path class="st0" d="M484.8,334.9c27.6-45.6,47.6-76,54.4-125.3c1.3-9.2,2.3-18.6,1.2-27.8c-1.1-9.2-4.7-18.5-11.4-24.9
					c-4.8-4.6-10.9-7.4-16.9-10.2c-3.2-1.5-6.5-2.9-10-3.3c-4.9-0.5-9.8,1.3-14.4,3.2c-16.5,7.1-32,17.5-42.9,31.8
					c-8.1,10.7-13.5,23.2-17.8,35.9c-6,17.5-10.3,35.6-13.7,53.9c-5.9,32.2-9,64.9-14,97.3c-1.1,6.9-1.3,14.7-4.6,20.9
					c-0.5,0.9-1.3,1.9-2.2,2.9c-2.7-0.1-5.3-0.1-8-0.2c-13.9-5.5-28.8-8.3-43.8-8c-13.4,0.3-26.7,3-39.1,8c-1.9,0.8-4.9,1.8-7.9,3.1
					c-0.6,0-1.1,0.1-1.7,0.1c-11-28.8-19.1-58.9-24-89.6c-3.2-20.1-5.1-40.5-9.1-60.5c-4-20-10.3-39.8-21.4-56.2
					c-11.1-16.4-27.6-29.2-46-31.8c-5.9-0.8-12.1-0.6-17.7,1.8c-6.7,2.8-12.1,8.5-17,14.3c-5.2,6.1-10.1,12.8-12.7,20.6
					c-2.4,7.4-2.6,15.5-2.2,23.4c1.6,32.2,11.9,63.4,26.3,91.6c14.3,28.2,32.6,53.7,51.2,78.7c6.1,8.2,12.3,16.5,16.9,25.9
					c1.7,3.6,3,7.2,4.2,11c-3.6,42.1-23.1,82.1-28.3,124.3c-0.6,5.2-1.1,10.4-1,15.6c5.3,1.1,10.6,2.1,15.8,3.1
					c0.2-0.3,0.5-0.5,0.8-0.6c0.8-0.2,1.6,0.2,1.8,1c0.2,0.6,0,1.3-0.4,1.8c-0.5,0.5-1.3,0.8-2,0.8c-0.2,0-0.4,0-0.6-0.1
					c-5.1-1-10.2-2-15.3-3c0.1,2.7,0.4,5.4,0.9,8.1c0.5,2.5,1.1,5,1.9,7.4c3.8-0.6,7.6-1.1,11.3-1.7c0.8-0.1,1.5,0.4,1.7,1.2
					c0.1,0.8-0.4,1.5-1.2,1.7c-3.6,0.6-7.2,1.1-10.8,1.6c1.4,3.8,3.1,7.5,5.2,11.1c0.6-0.4,1.2-0.9,1.8-1.3c0.6-0.5,1.5-0.4,2,0.3
					c0.5,0.6,0.4,1.5-0.3,2c-0.7,0.5-1.4,1-2.1,1.5c1.1,1.7,2.2,3.4,3.4,5.1c16.1,22,44,33.7,70.7,39.5c0.7,0.1,1.3,0.3,2,0.4
					c30.2,6.2,70.6,5,100.3-3.7c0.4-0.1,0.8-0.3,1.3-0.4c26.5-7.9,54.5-20.9,69.2-44.2c0.9-1.5,1.8-3,2.6-4.5
					c-2.1-1.3-4.2-2.6-6.3-4c-0.7-0.4-0.9-1.3-0.4-2c0.4-0.7,1.3-0.9,2-0.4c2,1.3,4.1,2.6,6.1,3.8c2-4,3.7-8.2,4.9-12.5
					c-2.9-0.2-5.8-0.4-8.7-0.7c-0.8-0.1-1.4-0.8-1.3-1.6c0.1-0.8,0.8-1.4,1.6-1.3c3,0.3,6.1,0.5,9.2,0.7c0.6-2.4,1-4.8,1.3-7.3
					c0.3-2.5,0.4-5.1,0.4-7.6c-4.3,1.2-8.5,2.3-12.8,3.5c-0.3,0.1-0.5,0.1-0.8,0.1c-0.6,0-1.3-0.2-1.8-0.6c-0.5-0.5-0.7-1.1-0.5-1.8
					c0.2-0.8,1-1.3,1.7-1.1c0.4,0.1,0.6,0.3,0.9,0.5c4.5-1.2,8.9-2.4,13.4-3.6c-0.3-5.4-1-10.7-2.1-16
					c-9.6-49.4-53.2-107.3-22.2-156.3C463.8,367.9,476.9,347.9,484.8,334.9z M231.3,380.3c-11.2-18.5-22.3-37-33.5-55.4
					c-7.5-12.4-15.1-25-19.4-38.8c-4.4-13.9-5.3-29.5,0.4-42.8c1-2.3,2.3-4.7,4.2-6.2c3.7-2.9,8.9-2.4,13.2-0.8
					c13.6,5,21.8,19,27.9,32.4c18,39.8,26.6,84.1,24.7,127.9l-2.4,8.3C244,395.9,236.1,388.1,231.3,380.3z M249.6,586.8
					c-0.4,0.9-0.9,1.8-1.8,2.4c-2.4,1.7-6.4,0.9-7.9-1.4c-1.5-2.3-0.8-5.4,1.3-7.3l-1.4,1.3c0.9-2.5,5-3.4,7.5-1.9
					C249.8,581.3,250.5,584.3,249.6,586.8z M249.8,565c-0.4,0.9-0.9,1.8-1.8,2.4c-2.4,1.7-6.4,0.9-7.9-1.4c-1.5-2.3-0.8-5.4,1.3-7.3
					L240,560c0.9-2.5,5-3.4,7.5-1.9C250,559.5,250.8,562.5,249.8,565z M267,580.7c-0.4,0.9-0.9,1.8-1.8,2.4
					c-2.4,1.7-6.4,0.9-7.9-1.4c-1.5-2.3-0.8-5.4,1.3-7.3l-1.4,1.3c0.9-2.5,5-3.4,7.5-1.9C267.2,575.2,268,578.2,267,580.7z
					 M294.8,534.6c-1.2,0.2-2.2-0.6-2.4-1.8c-0.9-6.6-5.4-12.7-11.5-15.5c-6-2.8-13.6-2.4-19.3,1c-5.7,3.5-9.5,10-9.7,16.7
					c0,0.7-0.4,1.3-1,1.7c-0.4,0.2-0.7,0.3-1.2,0.3c-0.3,0-0.6-0.1-0.8-0.2c-0.7-0.3-1.4-0.9-1.6-1.7c-0.1-0.2-0.1-0.5-0.1-0.8
					c-0.2,0.1-0.4,0.2-0.6,0.2c-0.3,0-0.7-0.1-1-0.2l-9.5-4.9c-1-0.5-1.4-1.8-0.9-2.9c0.5-1,1.8-1.5,2.9-0.9l9.5,4.9
					c0.2,0.1,0.4,0.3,0.6,0.5c0.8-4.2,2.7-8.1,5.5-11.4c-0.2,0-0.3,0.1-0.5,0.1c-0.6,0-1.3-0.3-1.7-0.8l-6.6-8.5
					c-0.7-0.9-0.5-2.3,0.4-3c0.9-0.7,2.3-0.5,3,0.4l6.6,8.5c0.4,0.5,0.5,1,0.4,1.6c1.3-1.2,2.6-2.3,4.1-3.2c1.4-0.8,2.8-1.5,4.3-2
					c-0.1-0.2-0.1-0.3-0.2-0.5l-0.7-7.5c-0.1-1.2,0.7-2.2,1.9-2.3c1.1-0.1,2.2,0.7,2.3,1.9l0.7,7.3c5-0.9,10.3-0.3,14.9,1.9
					c7.4,3.5,12.7,10.7,13.9,18.8C296.7,533.4,295.9,534.5,294.8,534.6z M324,451.4c0,0.2,0,0.5-0.2,0.7c-0.1,0.2-0.4,0.2-0.6,0.3
					c-0.9,0.3-1.8,0.4-2.7,0.5c0.5-0.4,0.9-0.8,1.4-1.2l-1.2,0.4c0-2.3,0-4.6,0-7c0-0.1,0-0.3,0.5-0.5c0.9-0.1,1.9-0.2,2.8-0.3
					C324,446.7,324,449,324,451.4z M328.5,434.8c-0.4,1.1-1.6,1.6-2.8,1.9c-0.3,0.1-0.7,0.2-0.9-0.1c-0.2-0.2-0.2-0.4-0.2-0.7
					c-0.1-1.1-0.2-2.3-0.4-3.4L324,434c0-2.4-0.1-4.8-0.2-7.3c1.6,0,3.2-0.2,4.8-0.4c0,2.5,0,4.9,0.1,7.4
					C328.7,434.1,328.7,434.5,328.5,434.8z M338.5,458.9c-1.4,0-2.7,0.1-4.1,0.1c-0.2,0-0.4,0-0.5-0.1c0,0,0,0.1,0,0.1v-0.1
					c0,0,0,0,0,0c-0.2-0.1-0.2-0.3,0-0.4l0,0.4c0,0,0,0,0,0c0.6-1.9,0.7-3.9,0.5-5.9c1.4,0.1,2.8-0.1,4-0.6
					C338.7,454.6,338.7,456.8,338.5,458.9z M338.4,445.6c0,0.2,0,0.4-0.2,0.5c-0.1,0.1-0.4,0.1-0.6,0.1c-1.2,0-2.5,0-3.7-0.1l1-1
					c0.4-1.6,0.6-3.3,0.5-5c1.1,0.1,2.2,0.2,3.2,0.2C338.6,442.1,338.5,443.9,338.4,445.6z M342.8,429.5c-1.3-0.9-1-3.2-1-4.5
					c0-0.9-0.3-2.7,0.4-3.4c0.3-0.3,4-1,4-1.2C346.5,421.8,347.8,433,342.8,429.5z M350.2,465c-1.4,0-2.7,0.1-4.1,0.1
					c-0.2,0-0.4,0-0.5-0.1c0,0,0,0.1,0,0.1V465c0,0,0,0,0,0c-0.2-0.1-0.2-0.3,0-0.4l0,0.4c0,0,0,0,0,0c0.6-1.9,0.7-3.9,0.5-5.9
					c1.4,0.1,2.8-0.1,4-0.6C350.4,460.7,350.5,462.8,350.2,465z M350.3,445.1c0,0.2,0,0.3-0.2,0.5c-0.1,0.1-0.4,0.1-0.6,0.1
					c-1.2,0-2.4,0-3.7-0.1l1-1c0.4-1.6,0.6-3.2,0.5-4.9c1.1,0.1,2.1,0.2,3.2,0.2C350.5,441.7,350.4,443.4,350.3,445.1z M356.5,435.1
					c-0.2-0.6,1.3-7.6,1.3-7.6c1.2-0.3,2.8-0.4,3.5,0.5c0.2,0.3,0.2,0.7,0.3,1c0.2,2,0.3,4.1,0.3,6.2
					C361.8,436.9,357.1,437.1,356.5,435.1z M362.4,448c-1.3,0-2.7,0.1-4,0.1c-0.2,0-0.4,0-0.5-0.1c0,0,0,0.1,0,0.1V448c0,0,0,0,0,0
					c-0.2-0.1-0.2-0.3,0-0.4v0.4c0,0,0,0,0,0c0.5-1.9,0.7-3.9,0.5-5.8c1.3,0.1,2.7-0.1,3.9-0.6C362.7,443.7,362.7,445.9,362.4,448z
					 M440.2,575.4c-1.4,2.4-5.4,3.5-7.8,2c-0.9-0.6-1.5-1.4-1.9-2.3c-1.1-2.4-0.6-5.5,1.8-7.1c2.4-1.6,6.6-1,7.6,1.4l-1.5-1.2
					C440.6,570,441.6,573,440.2,575.4z M457.7,574.3l-1.5-1.2c2.2,1.8,3.2,4.9,1.8,7.2c-1.4,2.4-5.4,3.5-7.8,2
					c-0.9-0.6-1.5-1.4-1.9-2.3c-1.1-2.4-0.6-5.5,1.8-7.1C452.5,571.3,456.7,571.9,457.7,574.3z M456,552.6l-1.5-1.2
					c2.2,1.8,3.2,4.9,1.8,7.2c-1.4,2.4-5.4,3.5-7.8,2c-0.9-0.6-1.5-1.4-1.9-2.3c-1.1-2.4-0.6-5.5,1.8-7.1
					C450.8,549.6,454.9,550.2,456,552.6z M448.9,520.7c1-0.6,2.3-0.3,2.9,0.7c0.6,1,0.3,2.3-0.7,2.9l-9.1,5.6
					c-0.3,0.2-0.7,0.3-1.1,0.3c-0.2,0-0.3-0.1-0.5-0.1c0,0.3,0,0.5-0.1,0.8c-0.2,0.8-0.8,1.5-1.5,1.8c-0.6,0.3-1.4,0.3-2,0
					c-0.6-0.3-1-1-1.1-1.6c-0.7-6.6-4.9-12.9-10.8-16c-5.9-3.1-13.5-3-19.3,0.3s-9.9,9.6-10.4,16.3c-0.1,1.1-1,2-2.1,2
					c-0.1,0-0.1,0-0.2,0c-1.2-0.1-2.1-1.1-2-2.3c0.6-8.2,5.4-15.7,12.5-19.7c4.5-2.5,9.7-3.5,14.8-2.9l0.2-7.3c0-1.2,1-2.1,2.2-2.1
					c1.2,0,2.1,1,2.1,2.2l-0.2,7.5c0,0.2-0.1,0.4-0.1,0.5c1.5,0.4,3,1,4.4,1.7c1.6,0.8,3,1.8,4.4,2.9c-0.1-0.5,0-1.1,0.3-1.6l6-8.9
					c0.6-1,2-1.2,2.9-0.6c1,0.7,1.2,2,0.6,3l-6,8.9c-0.4,0.6-1.1,0.9-1.8,0.9c-0.1,0-0.2,0-0.3,0c3,3.1,5.2,6.9,6.3,11
					c0.2-0.2,0.3-0.4,0.6-0.5L448.9,520.7z M436.1,407.7c-0.6-12.6-2.4-34.7-0.3-49.4c-0.2-42.5,9.4-85.3,35.2-118.6
					c4.9-6.3,11.2-12.7,19.2-12.8c9.3-0.2,16.7,8.7,18.1,17.9c1.3,9.2-1.9,18.3-5.7,26.8c-14.6,33.2-36.8,62.5-54.1,94.4
					C441.5,378.9,435.1,393,436.1,407.7z"/>
				<path class="st2" d="M248.9,396.5c1.9-43.8-6.7-88.2-24.7-127.9c-6.1-13.4-14.4-27.4-27.9-32.4c-4.3-1.6-9.6-2-13.2,0.8
					c-2,1.6-3.2,3.9-4.2,6.2c-5.7,13.3-4.8,28.9-0.4,42.8c4.4,13.9,11.9,26.4,19.4,38.8c11.2,18.5,22.3,37,33.5,55.4
					c4.7,7.8,12.6,15.7,15.2,24.5L248.9,396.5z"/>
				<path class="st2" d="M508.3,244.8c-1.3-9.2-8.8-18-18.1-17.9c-8,0.1-14.3,6.5-19.2,12.8c-25.8,33.3-35.4,76-35.2,118.6
					c-2.1,14.7-0.3,36.8,0.3,49.4c-1-14.7,5.4-28.8,12.4-41.7c17.4-31.9,39.5-61.2,54.1-94.4C506.4,263.1,509.7,254,508.3,244.8z"/>
				<path class="st1" d="M323.8,426.7c0.1,2.4,0.1,4.8,0.2,7.3l0.2-1.4c0.1,1.1,0.2,2.3,0.4,3.4c0,0.2,0.1,0.5,0.2,0.7
					c0.2,0.2,0.6,0.1,0.9,0.1c1.1-0.3,2.4-0.8,2.8-1.9c0.1-0.4,0.1-0.7,0.1-1.1c0-2.5,0-4.9-0.1-7.4
					C327,426.6,325.4,426.7,323.8,426.7z"/>
				<path class="st1" d="M320.7,445.1c0,2.3,0,4.6,0,7l1.2-0.4c-0.5,0.4-0.9,0.8-1.4,1.2c0.9-0.1,1.9-0.2,2.7-0.5
					c0.2-0.1,0.4-0.1,0.6-0.3c0.2-0.2,0.2-0.4,0.2-0.7c0-2.4,0-4.8,0-7.2c-0.9,0.1-1.9,0.2-2.8,0.3
					C320.7,444.8,320.7,445,320.7,445.1z"/>
				<path class="st1" d="M346.2,420.3c0,0.2-3.7,0.9-4,1.2c-0.7,0.7-0.4,2.5-0.4,3.4c0,1.2-0.3,3.6,1,4.5
					C347.8,433,346.5,421.8,346.2,420.3z"/>
				<path class="st1" d="M361.8,435.2c0-2.1-0.1-4.1-0.3-6.2c0-0.4-0.1-0.7-0.3-1c-0.6-0.9-2.2-0.8-3.5-0.5c0,0-1.5,7-1.3,7.6
					C357.1,437.1,361.8,436.9,361.8,435.2z"/>
				<path class="st1" d="M346.9,444.7l-1,1c1.2,0,2.4,0,3.7,0.1c0.2,0,0.4,0,0.6-0.1c0.1-0.1,0.1-0.3,0.2-0.5
					c0.1-1.7,0.2-3.4,0.3-5.1c-1.1-0.1-2.1-0.2-3.2-0.2C347.5,441.4,347.3,443.1,346.9,444.7z"/>
				<path class="st1" d="M334.9,445.1l-1,1c1.2,0,2.5,0,3.7,0.1c0.2,0,0.4,0,0.6-0.1c0.1-0.1,0.2-0.3,0.2-0.5
					c0.1-1.7,0.2-3.5,0.3-5.2c-1.1-0.1-2.2-0.2-3.2-0.2C335.5,441.8,335.4,443.5,334.9,445.1z"/>
				<path class="st1" d="M333.8,458.9C333.8,458.9,333.8,458.9,333.8,458.9l0-0.4C333.6,458.6,333.6,458.8,333.8,458.9z"/>
				<path class="st1" d="M333.8,459.1c0,0,0-0.1,0-0.1c0,0,0,0,0,0V459.1z"/>
				<path class="st1" d="M334.4,453c0.2,2,0,4-0.5,5.9c0.2,0.1,0.3,0.1,0.5,0.1c1.4,0,2.7-0.1,4.1-0.1c0.3-2.2,0.2-4.3-0.1-6.5
					C337.1,452.9,335.7,453.1,334.4,453z"/>
				<path class="st1" d="M345.5,465C345.5,465,345.6,465,345.5,465l0-0.4C345.4,464.7,345.4,464.9,345.5,465z"/>
				<path class="st1" d="M345.6,465.1c0,0,0-0.1,0-0.1c0,0,0,0,0,0V465.1z"/>
				<path class="st1" d="M346.1,459.1c0.2,2,0,4-0.5,5.9c0.2,0.1,0.3,0.1,0.5,0.1c1.4,0,2.7-0.1,4.1-0.1c0.3-2.2,0.2-4.3-0.1-6.5
					C348.9,459,347.4,459.2,346.1,459.1z"/>
				<path class="st1" d="M358.4,442.2c0.2,1.9,0,3.9-0.5,5.8c0.1,0.1,0.3,0.1,0.5,0.1c1.3,0,2.7-0.1,4-0.1c0.3-2.1,0.2-4.3-0.1-6.4
					C361.1,442.1,359.8,442.3,358.4,442.2z"/>
				<path class="st1" d="M357.9,448C357.9,448,357.9,448,357.9,448l0-0.4C357.7,447.7,357.7,447.9,357.9,448z"/>
				<path class="st1" d="M357.9,448.1c0,0,0-0.1,0-0.1c0,0,0,0,0,0V448.1z"/>
				<path class="st1" d="M332.5,614.2c0-2.4-0.1-4.8-0.1-7.2l-0.2-1.4c-0.9,0.2-1.7,0.3-2.6,0.3c-0.6,0-1.1,0-1.7-0.1
					c-1-0.1-1.7-1-1.5-2c0.1-1,1.1-1.7,2-1.5c4.1,0.5,8.4-1.6,10.6-5.1c-0.6-1.2-1.2-2.4-1.5-3.7c-1.4-6.4-0.3-14.3,0.8-21.9
					c0.4-2.7,0.7-5.3,0.9-7.7c-0.1,0-0.2,0-0.2,0c-4,0-7.7-1.7-11.2-3.3c-2.7-1.2-5.2-2.4-7.9-2.8c0.1,0.1,0.2,0.3,0.3,0.4
					c0.7,0.7,0.6,1.8-0.1,2.5c-0.7,0.7-1.8,0.6-2.5-0.1c-0.5-0.6-1.3-1.4-1.5-2.6c-0.2-0.9,0.1-2,0.7-2.8c0.5-0.6,1.1-1,1.9-1.1
					c4,0.3,7.4,1.8,10.6,3.3c3.6,1.6,7,3.2,10.6,2.9c5.3-0.4,9.6-4.9,13.6-9.5c0.6-0.7,1.8-0.8,2.5-0.2c0.7,0.6,0.8,1.8,0.2,2.5
					c-3.8,4.4-8,8.7-13.3,10.2c-0.2,2.7-0.6,5.6-1,8.7c-1,7.3-2,14.9-0.8,20.7c0.2,0.8,0.5,1.6,0.8,2.3c0.1,0,0.1,0,0.2,0
					c0.7,0.3,1.1,1.1,1,1.8c3.4,4.3,9.9,6.4,15.5,7.4c1.4,0.3,3,0.5,4.4,0.1c3.2-0.9,5.1-4.6,6.6-8c0.4-0.9,1.5-1.3,2.3-0.9
					c0.9,0.4,1.3,1.4,0.9,2.3c-1.3,3-3.8,8.6-8.9,10c-0.9,0.2-1.8,0.3-2.6,0.3c-1.1,0-2.1-0.2-3.1-0.3c0.9,1.1,1.6,2.3,2.1,3.8
					c1,3.4,1.1,7.4,1.2,11.2c2.5-0.6,4.9-1.4,7.1-2.4c10-4.5,18.3-13.2,20.9-23.9c1.7-6.7,1.1-13.7,0.2-20.5
					c-1.6-12.7-4.5-26.2-13.5-35.4c-6.6-6.7-15.7-10.4-25-11.9c-9.7-1.6-19.9-0.9-29.1,2.6c-9.2,3.5-17.3,10.1-22.1,18.7
					c-3.8,6.7-5.4,14.4-6,22.1c-0.9,11.8,0.9,24.4,8.5,33.5c7.2,8.6,18.8,14.6,31.2,17.2c0.1-0.6,0.1-1.2,0.2-1.8
					C332.6,619.2,332.5,616.7,332.5,614.2z"/>
				<path class="st1" d="M341.1,600.3c-0.3,0.4-0.6,0.7-0.9,1c0.1,1,0.2,1.9,0.3,2.9c0.6-0.4,1.2-0.9,1.8-1.3c0-0.5,0-1,0-1.4
					C342,601.1,341.5,600.7,341.1,600.3z"/>
				<path class="st3" d="M439.3,526.7c-1.1-4.1-3.3-7.9-6.3-11c0.1,0,0.2,0,0.3,0c0.7,0,1.4-0.3,1.8-0.9l6-8.9c0.7-1,0.4-2.3-0.6-3
					c-1-0.7-2.3-0.4-2.9,0.6l-6,8.9c-0.3,0.5-0.4,1.1-0.3,1.6c-1.3-1.1-2.8-2.1-4.4-2.9c-1.4-0.7-2.9-1.3-4.4-1.7
					c0.1-0.2,0.1-0.3,0.1-0.5l0.2-7.5c0-1.2-0.9-2.2-2.1-2.2c-1.1,0-2.2,0.9-2.2,2.1l-0.2,7.3c-5.1-0.6-10.3,0.4-14.8,2.9
					c-7.1,4-11.9,11.5-12.5,19.7c-0.1,1.2,0.8,2.2,2,2.3c0,0,0.1,0,0.2,0c1.1,0,2-0.9,2.1-2c0.5-6.6,4.5-13,10.4-16.3
					s13.4-3.4,19.3-0.3c5.9,3.1,10.2,9.4,10.8,16c0.1,0.7,0.5,1.3,1.1,1.6c0.6,0.3,1.4,0.4,2,0c0.7-0.4,1.3-1,1.5-1.8
					c0.1-0.3,0.1-0.5,0.1-0.8c0.2,0,0.3,0.1,0.5,0.1c0.4,0,0.8-0.1,1.1-0.3l9.1-5.6c1-0.6,1.3-1.9,0.7-2.9c-0.6-1-1.9-1.3-2.9-0.7
					l-9.1,5.6C439.6,526.4,439.4,526.5,439.3,526.7z"/>
				<path class="st3" d="M282.7,513.4c-4.7-2.2-9.9-2.8-14.9-1.9l-0.7-7.3c-0.1-1.2-1.2-2-2.3-1.9c-1.2,0.1-2,1.2-1.9,2.3l0.7,7.5
					c0,0.2,0.1,0.4,0.2,0.5c-1.5,0.5-2.9,1.2-4.3,2c-1.5,0.9-2.9,2-4.1,3.2c0.1-0.5-0.1-1.1-0.4-1.6l-6.6-8.5
					c-0.7-0.9-2.1-1.1-3-0.4c-0.9,0.7-1.1,2.1-0.4,3l6.6,8.5c0.4,0.5,1.1,0.8,1.7,0.8c0.2,0,0.3,0,0.5-0.1
					c-2.8,3.2-4.7,7.2-5.5,11.4c-0.2-0.2-0.4-0.4-0.6-0.5l-9.5-4.9c-1-0.5-2.3-0.1-2.9,0.9c-0.5,1-0.1,2.3,0.9,2.9l9.5,4.9
					c0.3,0.2,0.7,0.2,1,0.2c0.2,0,0.4-0.1,0.6-0.2c0,0.3,0,0.5,0.1,0.8c0.3,0.8,0.9,1.4,1.6,1.7c0.3,0.1,0.5,0.2,0.8,0.2
					c0.4,0,0.8-0.1,1.2-0.3c0.6-0.4,1-1,1-1.7c0.2-6.7,4-13.2,9.7-16.7c5.7-3.5,13.2-3.9,19.3-1c6,2.8,10.5,8.9,11.5,15.5
					c0.2,1.2,1.2,2,2.4,1.8c1.2-0.2,2-1.2,1.8-2.4C295.4,524.1,290.1,516.9,282.7,513.4z"/>
				<path class="st4" d="M264.7,573.7c-2.5-1.4-6.6-0.5-7.5,1.9l1.4-1.3c-2.1,2-2.8,5.1-1.3,7.3c1.5,2.3,5.6,3.2,7.9,1.4
					c0.9-0.6,1.4-1.5,1.8-2.4C268,578.2,267.2,575.2,264.7,573.7z"/>
				<path class="st4" d="M247.5,558c-2.5-1.4-6.6-0.5-7.5,1.9l1.4-1.3c-2.1,2-2.8,5.1-1.3,7.3c1.5,2.3,5.6,3.2,7.9,1.4
					c0.9-0.6,1.4-1.5,1.8-2.4C250.8,562.5,250,559.5,247.5,558z"/>
				<path class="st4" d="M247.3,579.8c-2.5-1.4-6.6-0.5-7.5,1.9l1.4-1.3c-2.1,2-2.8,5.1-1.3,7.3c1.5,2.3,5.6,3.2,7.9,1.4
					c0.9-0.6,1.4-1.5,1.8-2.4C250.5,584.3,249.8,581.3,247.3,579.8z"/>
				<path class="st2" d="M227.3,567.8c0.7,0,1.5-0.2,2-0.8c0.4-0.5,0.6-1.1,0.4-1.8c-0.2-0.8-1-1.2-1.8-1c-0.4,0.1-0.7,0.3-0.8,0.6
					c-5.2-1-10.5-2.1-15.8-3.1c-8.4-1.7-16.8-3.5-25.2-5.3c-0.8-0.2-1.6,0.3-1.7,1.1c-0.2,0.8,0.3,1.6,1.1,1.7
					c8.6,1.9,17.3,3.7,25.9,5.5c5.1,1,10.2,2.1,15.3,3C226.9,567.8,227.1,567.8,227.3,567.8z"/>
				<path class="st2" d="M227.2,579.8c-0.1-0.8-0.9-1.3-1.7-1.2c-3.7,0.6-7.5,1.1-11.3,1.7c-10.8,1.6-21.6,3.1-32.4,4.3
					c-0.8,0.1-1.4,0.8-1.3,1.6c0.1,0.7,0.7,1.3,1.4,1.3c0.1,0,0.1,0,0.2,0c11-1.2,22-2.7,33-4.4c3.6-0.5,7.2-1,10.8-1.6
					C226.7,581.3,227.3,580.6,227.2,579.8z"/>
				<path class="st2" d="M224.2,593.1c-0.5-0.6-1.4-0.8-2-0.3c-0.6,0.5-1.2,0.9-1.8,1.3c-9.7,7.2-20,13.9-30.5,19.8
					c-0.7,0.4-0.9,1.3-0.6,2c0.3,0.5,0.8,0.7,1.3,0.7c0.2,0,0.5-0.1,0.7-0.2c10.6-5.9,20.8-12.6,30.6-19.9c0.7-0.5,1.4-1,2.1-1.5
					C224.5,594.6,224.7,593.7,224.2,593.1z"/>
				<path class="st4" d="M438.4,568.2l1.5,1.2c-1.1-2.4-5.2-3-7.6-1.4c-2.4,1.6-2.9,4.7-1.8,7.1c0.4,0.9,1,1.7,1.9,2.3
					c2.5,1.6,6.4,0.4,7.8-2C441.6,573,440.6,570,438.4,568.2z"/>
				<path class="st4" d="M448.4,551.2c-2.4,1.6-2.9,4.7-1.8,7.1c0.4,0.9,1,1.7,1.9,2.3c2.5,1.6,6.4,0.4,7.8-2
					c1.4-2.4,0.4-5.4-1.8-7.2l1.5,1.2C454.9,550.2,450.8,549.6,448.4,551.2z"/>
				<path class="st4" d="M450.1,572.9c-2.4,1.6-2.9,4.7-1.8,7.1c0.4,0.9,1,1.7,1.9,2.3c2.5,1.6,6.4,0.4,7.8-2
					c1.4-2.4,0.4-5.4-1.8-7.2l1.5,1.2C456.7,571.9,452.5,571.3,450.1,572.9z"/>
				<path class="st2" d="M465.7,556.1c-0.8-0.1-1.6,0.3-1.7,1.1c-0.1,0.7,0.1,1.3,0.5,1.8c0.5,0.5,1.2,0.6,1.8,0.6
					c0.3,0,0.6,0,0.8-0.1c4.3-1.1,8.5-2.3,12.8-3.5c9.3-2.5,18.6-5.1,27.8-7.8c0.8-0.2,1.2-1,1-1.8c-0.2-0.8-1-1.2-1.8-1
					c-8.9,2.6-17.9,5.2-27,7.6c-4.4,1.2-8.9,2.4-13.4,3.6C466.4,556.4,466.1,556.2,465.7,556.1z"/>
				<path class="st2" d="M467.6,571.6c-0.1,0.8,0.5,1.5,1.3,1.6c2.9,0.3,5.8,0.5,8.7,0.7c11.8,1,23.6,1.8,35.4,2.3c0,0,0,0,0.1,0
					c0.8,0,1.4-0.6,1.5-1.4c0-0.8-0.6-1.5-1.4-1.5c-11.6-0.5-23.2-1.3-34.8-2.2c-3.1-0.3-6.1-0.5-9.2-0.7
					C468.4,570.2,467.7,570.8,467.6,571.6z"/>
				<path class="st2" d="M464.6,582.9c-0.4,0.7-0.2,1.6,0.4,2c2.1,1.4,4.2,2.7,6.3,4c9,5.5,18.2,10.6,27.7,15.1
					c0.2,0.1,0.4,0.1,0.6,0.1c0.5,0,1.1-0.3,1.3-0.8c0.3-0.7,0-1.6-0.7-1.9c-9.4-4.5-18.7-9.5-27.6-15.1c-2.1-1.3-4.1-2.5-6.1-3.8
					C466,582.1,465.1,582.3,464.6,582.9z"/>
				<path class="st5" d="M370.7,720.4c0.3,0.1,0.6,0.2,0.9,0.2c2,0.3,4,0.5,6,0.8c0-1.3,0-2.6,0.2-3.9c-2-0.2-3.9-0.4-5.9-0.7
					l1.1,0.3c-0.9,0-1.9-0.1-2.8-0.1c-0.2,0-0.4,0-0.6,0.1c-0.2,0.2-0.2,0.5-0.1,0.7C369.6,718.9,369.9,720,370.7,720.4z"/>
				<path class="st5" d="M373.5,732.5c-3.4,3.7,5.8,3.8,7,3.8c-0.2,0-0.3-3.1-0.6-3.3c-0.5-0.7-2-0.6-2.7-0.7
					C376.2,732,374.4,731.5,373.5,732.5z"/>
				<path class="st5" d="M372.7,747.5c0.8-0.4,0.9-1.7,0.8-2.7c0,0-1-0.4-2.2-0.8c0.1,1.2,0.1,2.4,0.1,3.6c0.2,0,0.3,0,0.5,0
					C372.1,747.6,372.4,747.7,372.7,747.5z"/>
				<path class="st6" d="M328.9,659.5c-5.9,31.7-11.7,63.3-17.5,95c-0.8,4.4-2.6,9.5-2.6,14c2.4,8.8,4.6,17.6,6.7,26.4
					c0.2,0.1,0.5,0.2,0.7,0.3c4.4,1.6,9,2.9,13.5,3.9c0.2-0.3,0.5-0.5,0.7-0.8l-1.7-0.2c3.9-2.9,9.8-1.2,13.2,2.3
					c0.2,0.2,0.4,0.5,0.6,0.7c3,0.3,6.1,0.4,9.1,0.5c3.7,0,7.6-0.2,10.7-2.3c4.3-3,6-8.8,7-14.1c2.3-12.3,2.6-24.9,2.1-37.5
					c0-1.2-0.1-2.4-0.1-3.6c-0.4-8-1.1-16-1.7-23.9l-3-34.7l-1-11.4c-3.2-2.1-6.3-4.1-9.5-6.2c-9.7-6.5-19.5-13.7-24.5-24.1
					c0,0.3-0.1,0.7-0.2,1c-0.2,1.6-0.4,3.3-0.7,4.9C330.7,649.7,328.9,659.5,328.9,659.5z M340,713.3c3.3,1.2,6.8,2.1,10.2,2.7
					c3.5,0.6,7.1,0.9,10.7,1c-3.5,0.7-7.2,0.9-10.9,0.5c-3.6-0.3-7.2-1.1-10.7-2.3c-3.4-1.2-6.8-2.9-9.8-4.9c-3-2-5.8-4.4-8.1-7.2
					c2.9,2.2,5.8,4.2,8.9,6C333.4,710.7,336.6,712.2,340,713.3z"/>
				<path class="st6" d="M361.9,631.6c-0.1-1.5-0.2-2.9-0.4-4.4c-0.1-1.3-0.2-2.7-0.2-4.1c-0.1-3.8-0.1-7.9-1.2-11.2
					c-0.5-1.6-1.2-2.8-2.1-3.8c-0.1,0-0.2,0-0.3,0c-3.7-0.7-6.9-1.7-9.6-2.9c0.1,0.1,0.2,0.2,0.4,0.3l-0.1,1.9
					c0.1,2.4,0.2,4.8,0.3,7.2c0.1,2.5,0.2,5.2-0.6,7.4c-0.8,2.2-3,3.7-4.6,2.4c-1-7.1-1.3-14.3-1.2-21.4c-0.7,0.4-1.3,0.9-1.8,1.3
					c0.6,6.5,0.5,13-0.1,19.4c-2.1,1.4-5.2,0.1-6.5-2.1c-0.1-0.1-0.1-0.2-0.1-0.3c-0.1,0.6-0.1,1.2-0.2,1.8c-0.4,3.6-0.7,7.2-1,10.7
					c0.9-0.7,2-1.3,3.1-1.7C343.5,628.8,352.6,629.4,361.9,631.6z"/>
				<path class="st7" d="M337,820.3c2.1,4.8,4.1,9.6,6.2,14.5c0.2,0.4,0.4,0.8,0.5,1.2c0.4,0.9,0.9,1.9,1.9,2.1
					c1.1,0.2,2-0.7,2.6-1.7c0.3-0.4,0.5-0.9,0.7-1.4c3.2-6.5,1.3-14.6-0.8-21.7c-1.3-4.4-2.7-8.9-5.7-12.3c-0.2-0.2-0.4-0.5-0.6-0.7
					c-3.4-3.5-9.2-5.1-13.2-2.3l1.7,0.2c-0.2,0.3-0.5,0.5-0.7,0.8c-3.6,4-7.1,8.1-10.7,12.1c0.7,3.5,1.4,6.9,2,10.4
					c1.9-1.4,3.9-2.8,5.8-4.1c-1.6,4.6-2.4,9.6-2.3,14.5c0,3.4,0.5,6.8,1.4,10.2c0.2,0.9,0.5,1.7,0.7,2.6c0.7-0.7,1.4-1.5,2-2.2
					c2.2-2.6,4.1-5.5,5.4-8.7C335.9,829.5,337,824.9,337,820.3z"/>
				<path class="st4" d="M326.9,733.6c3,2.3,6.4,4,9.9,5.3c3.5,1.3,7.3,2,11,2.1c3.7,0.1,7.5-0.3,11-1.6c-3.7-0.7-7.1-1.3-10.5-2.1
					c-3.4-0.8-6.7-1.8-9.9-2.9c-3.2-1.1-6.4-2.5-9.5-4c-2.6-1.2-5.2-2.6-7.8-4.1c0.1,0.6,0.1,1.2,0.2,1.8
					C322.9,730.2,324.8,732,326.9,733.6z"/>
				<path class="st4" d="M321.4,703c2.3,2.8,5.1,5.2,8.1,7.2c3,2,6.3,3.7,9.8,4.9c3.5,1.2,7.1,2,10.7,2.3c3.6,0.3,7.3,0.2,10.9-0.5
					c-3.6-0.1-7.2-0.4-10.7-1c-3.5-0.6-6.9-1.5-10.2-2.7c-3.3-1.2-6.6-2.6-9.6-4.4C327.2,707.2,324.3,705.2,321.4,703z"/>
				<path class="st8" d="M308.3,751.3c9.5,10.5,19.8,16.5,25.8,2.9c1.6-3.7,1.9-7.9,1.9-12c0-4.9-0.4-10-1.2-14.9
					c-0.1-0.6-0.2-1.2-0.3-1.7c-0.8-4.1-1.8-8.1-3.4-11.9c-1.1-2.7-2.4-5.4-3.9-7.9c0-0.1-0.1-0.1-0.1-0.2
					c-5.4-8.4-18.3-15-21.6-24.3c-3-8.7,2.7-17,3.3-25.6c0.4-6.2-2.6-10.1-6.8-11.9c-3.6-1.5-8-1.4-12,0.3
					c-14.6,6.3-10.8,35.2-11.1,47.3c-0.1,5.2,1.3,11.4,3.9,18c1,2.6,2.8,6.7,5.2,11.4C290.4,725.8,298.9,740.8,308.3,751.3z"/>
				<path class="st8" d="M387.9,640.3c-8.2-3.2-17.2-6.7-26-8.8c-9.3-2.2-18.4-2.7-26.2,0.5c-1.1,0.4-2.1,1-3.1,1.7
					c-1.2,0.9-2.2,2.1-2.5,3.6c-0.4,1.7,0.2,3.5,0.9,5.2c0.2,0.4,0.4,0.7,0.6,1.1c5,10.4,14.9,17.7,24.5,24.1
					c3.1,2.1,6.3,4.1,9.5,6.2c14.8,9.6,30,18.8,45.5,27.3c6.8,3.8,15.7,12.5,24.1,12.9c0.4,0,0.9,0,1.3,0
					c11.5-0.7,10.9-17.2,9.4-25.2c-2.2-12.2-12.2-27.8-22.5-34.7c-6.4-4.3-13.9-6.7-21.2-9c-0.2-0.1-0.4-0.1-0.6-0.2
					C397.3,644,392.7,642.2,387.9,640.3z"/>
				<path class="st9" d="M332.2,605.7l0.2,1.4c0,2.4,0.1,4.8,0.1,7.2c0,2.4,0.2,5,1.3,7.1c0.1,0.1,0.1,0.2,0.1,0.3
					c1.3,2.2,4.4,3.5,6.5,2.1c0.7-6.5,0.7-13,0.1-19.4c-0.1-1-0.2-2-0.3-2.9C338.1,603.5,335.2,605.1,332.2,605.7z"/>
				<path class="st9" d="M342.4,602.9c-0.1,7.2,0.2,14.4,1.2,21.4c1.6,1.3,3.7-0.2,4.6-2.4c0.8-2.2,0.7-4.9,0.6-7.4
					c-0.1-2.4-0.2-4.8-0.3-7.2l0.1-1.9c-0.1-0.1-0.2-0.2-0.4-0.3c-2.3-1-4.2-2.2-5.7-3.5C342.4,602,342.4,602.4,342.4,602.9z"/>
				<path class="st3" d="M363.8,608c5.1-1.4,7.6-7,8.9-10c0.4-0.9,0-1.9-0.9-2.3c-0.9-0.4-1.9,0-2.3,0.9c-1.5,3.4-3.4,7.1-6.6,8
					c-1.4,0.4-3,0.2-4.4-0.1c-5.6-1.1-12.1-3.2-15.5-7.4c0.1-0.7-0.3-1.5-1-1.8c-0.1,0-0.1,0-0.2,0c-0.4-0.7-0.6-1.5-0.8-2.3
					c-1.2-5.8-0.2-13.4,0.8-20.7c0.4-3.1,0.8-6,1-8.7c5.3-1.5,9.5-5.8,13.3-10.2c0.6-0.7,0.6-1.9-0.2-2.5c-0.7-0.6-1.9-0.6-2.5,0.2
					c-4,4.6-8.3,9.1-13.6,9.5c-3.6,0.3-7-1.3-10.6-2.9c-3.3-1.5-6.6-3-10.6-3.3c-0.7,0.1-1.4,0.4-1.9,1.1c-0.6,0.7-0.8,1.8-0.7,2.8
					c0.2,1.2,1,2,1.5,2.6c0.7,0.7,1.8,0.8,2.5,0.1c0.7-0.7,0.8-1.8,0.1-2.5c-0.1-0.1-0.2-0.2-0.3-0.4c2.6,0.4,5.2,1.6,7.9,2.8
					c3.5,1.6,7.2,3.3,11.2,3.3c0.1,0,0.2,0,0.2,0c-0.2,2.4-0.5,5-0.9,7.7c-1,7.6-2.1,15.6-0.8,21.9c0.3,1.3,0.8,2.5,1.5,3.7
					c-2.2,3.4-6.5,5.6-10.6,5.1c-0.9-0.1-1.9,0.6-2,1.5c-0.1,1,0.6,1.9,1.5,2c0.6,0.1,1.1,0.1,1.7,0.1c0.9,0,1.8-0.1,2.6-0.3
					c3.1-0.6,5.9-2.1,8.1-4.4c0.3-0.3,0.6-0.7,0.9-1c0.4,0.4,0.9,0.8,1.3,1.2c1.6,1.3,3.5,2.5,5.7,3.5c2.7,1.2,5.9,2.2,9.6,2.9
					c0.1,0,0.2,0,0.3,0c1,0.2,2,0.3,3.1,0.3C362.1,608.3,363,608.2,363.8,608z"/>
				<path class="st8" d="M322.1,827c-0.3-1.8-0.7-3.7-1.1-5.5c-0.7-3.5-1.3-6.9-2-10.4c-1.1-5.4-2.3-10.8-3.5-16.2
					c-2-8.9-4.3-17.7-6.7-26.4c-0.3-1.2-0.6-2.5-1-3.7c-0.3-1.1-0.6-2.1-0.9-3.2c-1.8-6-3.9-12-7.4-16.9c-3.9-5.4-10.1-9.3-15.9-8.5
					c-0.4,0.1-0.7,0.1-1.1,0.2c-1.6,0.4-3.1,1.2-4.8,1.2c-3-0.1-5.4-2.6-8-4.5c-0.5-0.4-1.1-0.8-1.6-1.1c-6.1-3.5-13.6-0.1-17.3,6
					c-3.7,6.1-4.2,14.2-3.4,21.8c-6.6-2.3-12.2,6.3-11.3,14c0.9,7.7,5.7,14.2,10,20.4c3.2,4.6,6.3,9.4,9.1,14.3
					c2.5,4.3,4.6,8.8,7.6,12.5c3.6,4.4,6.5,9.9,9.7,14.7c2.8,4.3,5.6,8.6,8.4,12.9c0.5,0.8,1,1.6,1.6,2.4c1.6,2.5,3.3,5,5.1,7.3
					c1.5,1.8,3.2,3.9,5.1,5.1c1.3,0.8,3,1.1,4.5,1.6c3.3,1.1,6.8,1.7,10.1,1.3c7.3-0.8,12.4-6.4,15-13.9c1.2-3.4,1.5-7,1.5-10.8
					c0-3.4-0.4-6.9-1-10.3C322.6,830,322.3,828.5,322.1,827z M287.3,754.9c0.5-0.4,1.1-0.7,1.7-0.9c1.4-0.5,3-1,4.4-0.3
					c0.8,0.3,1.5,1,2.1,1.7c3,3.5,4.5,8.6,3.9,13.3c-0.5,3.7-4.4,3.9-7,2.5c-1.9-1-3.4-2.8-4.5-4.8c-1.2-2.3-1.8-4.9-1.8-7.4
					C286,757.4,286.3,755.8,287.3,754.9z M263.4,787.3c-0.6,4.3-5.2,4.6-8.3,3c-2.2-1.1-4-3.2-5.3-5.6c-1.4-2.7-2.1-5.7-2.1-8.7
					c0-1.8,0.3-3.6,1.5-4.7c0.6-0.5,1.3-0.8,2-1c1.7-0.6,3.5-1.2,5.3-0.4c0.9,0.4,1.7,1.1,2.4,1.9
					C262.4,775.8,264.2,781.9,263.4,787.3z M263.2,763.5c-1.6-3.7-2.6-7.8-2.8-11.9c-0.1-2.3,0.1-4.9,1.2-6.2c0.5-0.7,1.2-1,1.9-1.2
					c1.7-0.7,3.5-1.3,5.3-0.2c1,0.6,1.8,1.7,2.6,2.8c3.9,5.7,6.2,13.9,5.8,21.2c-0.3,5.7-5,5.8-8.2,3.4
					C266.6,769.8,264.6,766.8,263.2,763.5z M309.5,850.8c-1.7,0.9-3.7,0.7-5.5,0.1c-5.7-1.8-8.6-6.5-12.7-11
					c-4.5-4.9-8.8-10-12.1-16.1c-2-3.8-3.6-7.8-5.1-11.9c-1.4-3.7-2.8-7.5-3.3-11.4c-0.7-5,0.2-10.2,2.6-14.3
					c2.4-4,6.5-6.8,10.8-6.8c5.7-0.1,11.1,4,15.1,9c2.2,2.8,4.1,5.8,5.7,9.1c2,4.3,3.4,8.8,4.7,13.4c2,7.3,3.7,14.6,5,22.1
					C315.7,839.5,315.2,847.7,309.5,850.8z"/>
				<path class="st2" d="M256.4,769.8c-1.7-0.7-3.6-0.2-5.3,0.4c-0.7,0.3-1.4,0.5-2,1c-1.2,1.1-1.5,2.9-1.5,4.7c0,3,0.7,6.1,2.1,8.7
					c1.2,2.4,3,4.5,5.3,5.6c3.1,1.6,7.7,1.3,8.3-3c0.8-5.5-1-11.5-4.6-15.5C258.1,771,257.3,770.2,256.4,769.8z"/>
				<path class="st2" d="M277.2,768.1c0.4-7.3-1.9-15.5-5.8-21.2c-0.8-1.1-1.6-2.2-2.6-2.8c-1.8-1.1-3.6-0.5-5.3,0.2
					c-0.7,0.3-1.4,0.6-1.9,1.2c-1.1,1.3-1.3,3.8-1.2,6.2c0.2,4,1.2,8.2,2.8,11.9c1.4,3.3,3.4,6.2,5.8,7.9
					C272.2,773.8,276.9,773.8,277.2,768.1z"/>
				<path class="st2" d="M292.3,771.2c2.6,1.4,6.5,1.1,7-2.5c0.6-4.7-0.9-9.8-3.9-13.3c-0.6-0.7-1.3-1.3-2.1-1.7
					c-1.5-0.6-3-0.2-4.4,0.3c-0.6,0.2-1.2,0.4-1.7,0.9c-1,0.9-1.3,2.5-1.2,4c0,2.6,0.6,5.2,1.8,7.4
					C288.9,768.4,290.4,770.2,292.3,771.2z"/>
				<path class="st2" d="M309.6,811c-1.3-4.6-2.7-9.2-4.7-13.4c-1.6-3.3-3.5-6.3-5.7-9.1c-4-5-9.4-9.1-15.1-9
					c-4.4,0.1-8.4,2.8-10.8,6.8c-2.4,4-3.2,9.2-2.6,14.3c0.5,3.9,1.9,7.7,3.3,11.4c1.5,4.1,3.1,8.1,5.1,11.9
					c3.3,6,7.6,11.2,12.1,16.1c4.1,4.5,7,9.2,12.7,11c1.9,0.6,3.9,0.8,5.5-0.1c5.6-3.1,6.2-11.3,5.1-17.8
					C313.3,825.6,311.6,818.2,309.6,811z"/>
				<path class="st8" d="M431,736c-3.2,1.8-6,5.3-9.6,5.4c-1.7,0-3.2-0.7-4.8-1.1c-3.4-0.9-7,0-10.2,1.9c-2.5,1.5-4.9,3.6-6.7,6.1
					c-4.1,5.6-6.2,12.7-8.2,19.6c-5.6,20-10.2,40.3-13.8,60.7c-0.2,1.1-0.4,2.3-0.6,3.4c-0.6,4-1.1,8-1,11.9
					c0.1,3.3,0.5,6.5,1.6,9.6c2.6,7.4,7.8,12.8,15.1,13.7c3.4,0.4,6.8-0.2,10.1-1.3c1.4-0.5,3.1-0.8,4.4-1.6c1.9-1.2,3.6-3.2,5-5
					c1.8-2.2,3.5-4.6,5.1-7.1c0.5-0.8,1-1.6,1.5-2.3c2.8-4.2,5.5-8.4,8.3-12.6c3.1-4.7,6-10.1,9.5-14.4c3-3.6,5.1-8,7.5-12.2
					c2.8-4.8,5.8-9.4,9-14c4.3-6.1,9.1-12.4,9.9-19.9c0.8-7.5-4.9-15.9-11.4-13.7c0.7-7.4,0.2-15.3-3.5-21.3
					c-2.4-3.9-6.5-6.7-10.8-7.1C435.3,734.5,433,734.9,431,736z M403.8,758.7c0.6-0.7,1.3-1.3,2-1.6c1.4-0.6,3-0.2,4.4,0.3
					c0.6,0.2,1.2,0.4,1.7,0.9c1,0.9,1.3,2.5,1.3,3.9c0,2.5-0.6,5.1-1.8,7.3c-1,2-2.6,3.7-4.4,4.7c-2.6,1.3-6.5,1.1-7-2.5
					C399.3,767.1,400.8,762.1,403.8,758.7z M428.7,802.9c-0.5,3.8-1.8,7.5-3.2,11.1c-1.5,3.9-3,7.9-5,11.6
					c-3.2,5.9-7.5,10.9-12,15.7c-4.1,4.3-6.9,8.9-12.7,10.7c-1.8,0.6-3.9,0.8-5.5-0.1c-5.7-3-6.3-11.1-5.2-17.4
					c1.2-7.2,2.8-14.4,4.8-21.5c1.2-4.5,2.6-8.9,4.6-13.1c1.5-3.2,3.4-6.2,5.6-8.8c3.9-4.9,9.3-8.9,15-8.7c4.4,0.1,8.4,2.8,10.9,6.7
					C428.5,792.9,429.4,798,428.7,802.9z M442.9,773c1.7-0.7,3.6-0.2,5.2,0.4c0.7,0.2,1.4,0.5,2,1c1.2,1,1.5,2.9,1.5,4.6
					c0,2.9-0.7,5.9-2.1,8.5c-1.2,2.3-3,4.4-5.2,5.5c-3.1,1.5-7.7,1.2-8.3-3c-0.8-5.3,0.9-11.2,4.4-15.2
					C441.2,774.1,442,773.3,442.9,773z M437.6,749.2c1.1,1.3,1.3,3.7,1.2,6c-0.2,3.9-1.1,8-2.7,11.6c-1.4,3.2-3.4,6.1-5.7,7.7
					c-3.3,2.3-7.9,2.2-8.3-3.4c-0.4-7.1,1.7-15.1,5.6-20.6c0.8-1.1,1.6-2.1,2.6-2.7c1.8-1.1,3.6-0.5,5.3,0.2
					C436.3,748.3,437,748.6,437.6,749.2z"/>
				<path class="st2" d="M436,790c0.6,4.2,5.2,4.5,8.3,3c2.2-1.1,4-3.1,5.2-5.5c1.4-2.6,2.1-5.6,2.1-8.5c0-1.7-0.4-3.6-1.5-4.6
					c-0.6-0.5-1.3-0.8-2-1c-1.7-0.6-3.5-1.1-5.2-0.4c-0.9,0.4-1.7,1.1-2.4,1.9C436.9,778.8,435.2,784.7,436,790z"/>
				<path class="st2" d="M430.3,747.8c-1,0.6-1.8,1.6-2.6,2.7c-3.9,5.6-6.1,13.6-5.6,20.6c0.3,5.6,5,5.6,8.3,3.4
					c2.3-1.6,4.3-4.5,5.7-7.7c1.6-3.6,2.5-7.6,2.7-11.6c0.1-2.3-0.1-4.7-1.2-6c-0.5-0.6-1.3-0.9-1.9-1.2
					C434,747.3,432.1,746.7,430.3,747.8z"/>
				<path class="st2" d="M407.1,774.1c1.9-0.9,3.4-2.7,4.4-4.7c1.2-2.2,1.8-4.8,1.8-7.3c0-1.5-0.3-3-1.3-3.9
					c-0.5-0.4-1.1-0.7-1.7-0.9c-1.4-0.5-3-1-4.4-0.3c-0.8,0.3-1.4,1-2,1.6c-3,3.4-4.5,8.4-3.8,12.9
					C400.5,775.2,404.4,775.5,407.1,774.1z"/>
				<path class="st2" d="M415.2,782.2c-5.7-0.1-11.1,3.9-15,8.7c-2.2,2.7-4.1,5.7-5.6,8.8c-2,4.2-3.4,8.6-4.6,13.1
					c-1.9,7.1-3.5,14.3-4.8,21.5c-1.1,6.3-0.5,14.3,5.2,17.4c1.7,0.9,3.7,0.7,5.5,0.1c5.7-1.7,8.6-6.3,12.7-10.7
					c4.5-4.7,8.7-9.8,12-15.7c2-3.7,3.6-7.6,5-11.6c1.4-3.6,2.7-7.3,3.2-11.1c0.6-4.9-0.2-10-2.7-13.9
					C423.7,785,419.6,782.3,415.2,782.2z"/>
			</g>
		</g>
		<path class="st10" d="M310.4,774.1c-1.6-4.5-2.7-9-4-13.5c-1.4-4.5-3-8.8-5.2-12.8c-2.2-4-5-7.7-8.9-9.9c-2-1.1-4.2-1.7-6.4-1.7
			c-1.1,0-2.2,0.2-3.4,0.5c-1.2,0.3-2.4,0.5-3.5,0.3c1.2-0.1,2.3-0.4,3.4-0.8c1.1-0.5,2.3-0.9,3.5-1c2.4-0.3,4.9,0.3,7.2,1.2
			c4.6,2,7.8,6.2,10.1,10.3c2.3,4.2,3.9,8.8,4.9,13.4C309,764.9,309.7,769.5,310.4,774.1z"/>
		<path class="st10" d="M285.1,713.7c2.8,7.5,7.6,13.7,12.6,19.8c2.5,3,5.1,6.1,7.5,9.2c2.5,3.1,4.8,6.3,7.1,9.6
			c-5.8-5.5-11.1-11.4-16.2-17.5c-2.5-3.1-5-6.3-6.9-9.8C287.2,721.5,285.8,717.7,285.1,713.7z"/>
		<path class="st10" d="M314.9,693.9c-2.1-0.8-3.8-2.4-5.2-4.2c-1.4-1.8-2.4-3.9-3-6c-1.3-4.3-1.4-8.8-0.9-13.1
			c1.1,4.3,1.6,8.5,2.9,12.5C309.9,687.1,311.7,690.8,314.9,693.9z"/>
		<path class="st10" d="M294.3,641c6.1,0.4,12.1,0.8,18.2,0.8c6.1,0.1,12.1-0.2,18.2-0.5c-6,1.2-12.1,1.5-18.2,1.5
			C306.4,642.7,300.3,642.3,294.3,641z"/>
		<path class="st10" d="M363.3,632c6.6,1.8,13.1,4.1,19.5,6.4c6.4,2.3,12.8,4.7,19,7.6c-6.8-1.3-13.3-3.3-19.8-5.6
			C375.6,637.9,369.3,635.3,363.3,632z"/>
		<path class="st10" d="M365.3,674.3c3,1.2,5.8,2.7,8.6,4.2c2.8,1.6,5.4,3.4,8.1,5.2c5.3,3.7,10.2,7.7,15.3,11.5
			c5.1,3.8,10.3,7.4,15.8,10.4c5.5,3,11.5,5.3,17.8,6.5c-3.2-0.1-6.4-0.7-9.5-1.6c-3.1-0.9-6.1-2.1-9-3.5
			c-5.8-2.8-11.2-6.4-16.3-10.2c-5.1-3.9-10-7.9-15-11.8C376,681.1,370.8,677.4,365.3,674.3z"/>
		<path class="st10" d="M406.1,741.7c2.1-2.2,5.2-3.5,8.4-3.5c1.6,0,3.2,0.4,4.7,1c1.4,0.6,2.6,1.2,3.9,1.2c2.6,0.2,5.1-1.5,7.7-2.9
			c1.3-0.7,2.7-1.5,4.2-1.9c1.5-0.4,3.1-0.6,4.6-0.1c-3.1-0.1-5.5,1.8-7.9,3.5c-1.2,0.9-2.5,1.7-3.9,2.4c-1.4,0.7-3.1,1.2-4.8,1.2
			c-1.8-0.1-3.3-0.9-4.6-1.5c-1.3-0.7-2.6-1-4-1.2C411.7,739.5,408.7,740.1,406.1,741.7z"/>
		<path class="st10" d="M382.8,638.9l8.4-0.6l4.2-0.2c1.4-0.1,2.8-0.2,4.2-0.4c-1.3,0.6-2.7,0.9-4.1,1.2c-1.4,0.3-2.8,0.4-4.2,0.5
			c-1.4,0.1-2.8,0.1-4.2,0C385.6,639.4,384.2,639.3,382.8,638.9z"/>
	</g>
</g>
<g id="cadre_9_">
	<rect y="0" class="st11" width="680.3" height="878.7"/>
</g>
</svg>
