<svg xmlns="http://www.w3.org/2000/svg" xmlns:xlink="http://www.w3.org/1999/xlink" viewBox="0 0 166.56 47.54"><defs><style>.a{fill:url(#a);}.b,.e{fill:#fff;}.c,.e{opacity:0.5;}.d{opacity:0.7;}</style><linearGradient id="a" y1="23.4" x2="166.56" y2="23.4" gradientUnits="userSpaceOnUse"><stop offset="0" stop-color="#30354f"/><stop offset="0.19" stop-color="#104586"/><stop offset="0.69" stop-color="#5486c5"/><stop offset="1" stop-color="#bbc8e8"/></linearGradient></defs><title>espace</title><rect class="a" y="-0.36" width="166.56" height="47.54" rx="23.77"/><path class="b" d="M158,19.12c-.28-.14-.62-.14-.9-.27.37-.2.87.12,1.23-.11a.83.83,0,0,0,.31-.54,8,8,0,0,0,.15-2l.22,2.1a.51.51,0,0,0,.1.29.64.64,0,0,0,.18.1c.34.12.67.15,1,.28-.39.05-.88-.05-1.19.15s-.24.5-.27.78c0,.45-.07.91-.15,1.35C158.56,20.51,158.81,19.53,158,19.12Z"/><path class="b" d="M38,11.57c-.33-.14-.73-.13-1.07-.27.44-.2,1,.12,1.47-.1a.85.85,0,0,0,.37-.54,7.21,7.21,0,0,0,.18-2l.26,2.09a.38.38,0,0,0,.12.29.58.58,0,0,0,.21.1c.4.12.81.16,1.21.28a4.3,4.3,0,0,0-1.42.16c-.28.15-.29.49-.32.77-.06.45-.08.91-.18,1.35C38.71,13,39,12,38,11.57Z"/><path class="b" d="M149.05,38.25c-.2-.09-.44-.08-.64-.17.26-.11.62.08.88-.06a.55.55,0,0,0,.22-.32,4.51,4.51,0,0,0,.11-1.21l.15,1.25a.31.31,0,0,0,.07.18A.75.75,0,0,0,150,38c.24.07.48.09.72.16-.27,0-.62,0-.84.1s-.18.29-.2.46-.05.55-.1.81C149.45,39.08,149.63,38.49,149.05,38.25Z"/><path class="b" d="M140.56,5.89c-.2-.08-.44-.08-.64-.16.26-.12.62.07.88-.06a.54.54,0,0,0,.22-.33,4.44,4.44,0,0,0,.11-1.21l.15,1.26a.26.26,0,0,0,.07.17.38.38,0,0,0,.13.06c.24.07.48.09.72.17a2.52,2.52,0,0,0-.84.09c-.17.09-.18.3-.2.47s0,.54-.1.81C141,6.73,141.14,6.14,140.56,5.89Z"/><path class="b" d="M65.88,39.83c-.17-.08-.37-.08-.54-.16.22-.12.53.07.74-.07a.5.5,0,0,0,.19-.32,5.4,5.4,0,0,0,.09-1.21l.13,1.26a.21.21,0,0,0,.06.17.24.24,0,0,0,.11.06c.2.07.4.09.6.17-.23,0-.53,0-.71.09s-.15.3-.16.47,0,.54-.09.8C66.22,40.66,66.37,40.08,65.88,39.83Z"/><g class="c"><path class="b" d="M25.52,16.8c-.17-.09-.37-.08-.54-.17.22-.12.52.07.73-.06a.51.51,0,0,0,.19-.32A4.94,4.94,0,0,0,26,15l.13,1.25a.39.39,0,0,0,.06.18.22.22,0,0,0,.11.05c.2.08.4.1.6.17-.23,0-.52,0-.71.1s-.14.29-.16.46,0,.55-.09.81C25.85,17.63,26,17,25.52,16.8Z"/></g><g class="c"><path class="b" d="M23.3,4.17c-.17-.09-.37-.08-.54-.17.22-.12.52.07.74-.06a.54.54,0,0,0,.18-.32,4.49,4.49,0,0,0,.09-1.21l.14,1.25a.25.25,0,0,0,.06.18.16.16,0,0,0,.1.05c.2.08.41.1.61.17-.23,0-.53,0-.71.1s-.15.29-.17.46,0,.55-.08.81C23.63,5,23.78,4.41,23.3,4.17Z"/></g><path class="b" d="M42.39,39.12C42.22,39,42,39,41.85,39c.22-.12.52.07.74-.07a.49.49,0,0,0,.18-.32,4.43,4.43,0,0,0,.09-1.21L43,38.62a.32.32,0,0,0,.06.17.39.39,0,0,0,.11.06c.2.07.4.09.61.17-.24,0-.53,0-.71.09s-.15.3-.17.46,0,.55-.09.81C42.72,40,42.87,39.37,42.39,39.12Z"/><g class="d"><path class="b" d="M80.33,6.9c-.35-.18-.77-.17-1.13-.34.47-.25,1.1.15,1.54-.13a1.05,1.05,0,0,0,.39-.68,9.72,9.72,0,0,0,.19-2.53l.28,2.63a.56.56,0,0,0,.12.36.63.63,0,0,0,.23.12c.42.16.84.2,1.26.35-.48.07-1.1-.06-1.48.2s-.31.62-.34,1c-.06.56-.09,1.14-.19,1.69C81,8.64,81.34,7.41,80.33,6.9Z"/></g><path class="b" d="M30.17,40.71a.48.48,0,0,0-.71.37c.19-.06.27.24.2.43s-.17.41,0,.55.28.06.43.06.48.16.72.11.48-.61.42-1a1,1,0,0,0-.35-.71c-.23-.15-.61-.07-.65.2"/><path class="b" d="M85.57,40.92a.48.48,0,0,0,.41.69c-.07-.19.23-.29.42-.23s.42.16.55,0,0-.28,0-.43.14-.49.07-.73-.63-.45-1-.36a1,1,0,0,0-.69.38c-.14.23,0,.61.24.64"/><path class="b" d="M106.79,43a.23.23,0,0,0-.27.18.44.44,0,0,0,.08.35.4.4,0,0,0,.33.2.36.36,0,0,0,.24-.16.47.47,0,0,0,0-.54.32.32,0,0,0-.49-.06"/><path class="e" d="M100.87,41.3a.25.25,0,0,0-.28.19.42.42,0,0,0,.09.34.36.36,0,0,0,.33.2.38.38,0,0,0,.24-.15.49.49,0,0,0,0-.55.33.33,0,0,0-.5,0"/><path class="b" d="M27.18,33.69a.25.25,0,0,0-.28.18.45.45,0,0,0,.09.35.38.38,0,0,0,.33.2.36.36,0,0,0,.24-.16.47.47,0,0,0,.05-.54.32.32,0,0,0-.49-.06"/><path class="b" d="M42.41,2.92a.24.24,0,0,0-.28.18.49.49,0,0,0,.08.35.38.38,0,0,0,.34.19.35.35,0,0,0,.24-.15A.49.49,0,0,0,42.84,3a.32.32,0,0,0-.5-.06"/><path class="b" d="M32.69,24.32a.23.23,0,0,0-.27.18.45.45,0,0,0,.08.35.38.38,0,0,0,.34.19.37.37,0,0,0,.24-.15.51.51,0,0,0,.05-.54.32.32,0,0,0-.5-.06"/><path class="b" d="M45.51,7.49a.24.24,0,0,0-.27.19.42.42,0,0,0,.08.34.36.36,0,0,0,.33.2.38.38,0,0,0,.24-.15.49.49,0,0,0,0-.55.32.32,0,0,0-.49,0"/><path class="b" d="M58.13,6.66c-.12-.06-.26.07-.29.2a1.22,1.22,0,0,0,.09.65.27.27,0,0,0,.06.12.44.44,0,0,0,.16.1l.22.07a.55.55,0,0,0,.33-.07A.65.65,0,0,0,59,6.87a.66.66,0,0,0-.87-.26s0,0,0,0,0,0,0,0"/><path class="b" d="M55.32.18c-.12-.06-.25.08-.29.21a1.19,1.19,0,0,0,.09.64.45.45,0,0,0,.06.12.34.34,0,0,0,.16.1.94.94,0,0,0,.22.07.57.57,0,0,0,.34-.07.66.66,0,0,0,.26-.86.66.66,0,0,0-.87-.26s0,0,0,0,0,0,0,0"/><path class="b" d="M131,5.29c-.11,0-.23.07-.26.19a1,1,0,0,0,.08.57.37.37,0,0,0,.05.11.39.39,0,0,0,.14.08.76.76,0,0,0,.2.06.45.45,0,0,0,.3,0,.58.58,0,0,0,.23-.77.59.59,0,0,0-.77-.23s0,0,0,0h0"/><path class="b" d="M113.21,40.25c-.11,0-.22.06-.25.18A1,1,0,0,0,113,41a.39.39,0,0,0,.06.11.34.34,0,0,0,.14.09,1.17,1.17,0,0,0,.2.06.49.49,0,0,0,.29-.06.58.58,0,0,0,.24-.77.59.59,0,0,0-.77-.23s0,0,0,0,0,0,0,0"/><path class="b" d="M104.53,3.23c-.12-.06-.26.07-.29.2a1.23,1.23,0,0,0,.09.65.34.34,0,0,0,.06.12.32.32,0,0,0,.16.09.81.81,0,0,0,.22.07.54.54,0,0,0,.33-.06.67.67,0,0,0,.27-.87.67.67,0,0,0-.87-.25s0,0,0,0,0,0,0,0"/><path class="b" d="M158.59,34.11a.24.24,0,0,0-.27.19.42.42,0,0,0,.08.34.37.37,0,0,0,.33.2.41.41,0,0,0,.25-.15.52.52,0,0,0,.05-.55.33.33,0,0,0-.5,0"/><path class="b" d="M150.42,5.87a.24.24,0,0,0-.28.18.46.46,0,0,0,.09.35.36.36,0,0,0,.33.19.35.35,0,0,0,.24-.15.47.47,0,0,0,0-.54.31.31,0,0,0-.49-.06"/><path class="b" d="M144.25,6.57a.24.24,0,0,0-.27.18.44.44,0,0,0,.08.35.41.41,0,0,0,.33.2.36.36,0,0,0,.24-.16.47.47,0,0,0,.05-.54.32.32,0,0,0-.49-.06"/><path class="b" d="M147.64,22.08c-.12,0-.25.08-.29.21a1.19,1.19,0,0,0,.09.64.52.52,0,0,0,.06.13.42.42,0,0,0,.16.09.94.94,0,0,0,.22.07.66.66,0,0,0,.34-.06.67.67,0,0,0,.26-.87.66.66,0,0,0-.87-.25s0,0,0,0,0,0,0,0"/><path class="b" d="M51.85,6.29a.23.23,0,0,0-.27.18.44.44,0,0,0,.08.35A.41.41,0,0,0,52,7a.38.38,0,0,0,.25-.16.51.51,0,0,0,0-.54.33.33,0,0,0-.5-.06"/><path class="e" d="M22.79,41.13a.24.24,0,0,0-.27.19.42.42,0,0,0,.08.34.32.32,0,0,0,.57.05.49.49,0,0,0,0-.55.32.32,0,0,0-.49,0"/><path class="e" d="M30,3.54a.25.25,0,0,0-.28.19.43.43,0,0,0,.09.34.38.38,0,0,0,.33.2.36.36,0,0,0,.24-.16.47.47,0,0,0,.05-.54.32.32,0,0,0-.49,0"/><path class="e" d="M66.61,10.43a.24.24,0,0,0-.27.19.43.43,0,0,0,.08.34.38.38,0,0,0,.33.2A.36.36,0,0,0,67,11a.47.47,0,0,0,.05-.54.32.32,0,0,0-.49-.05"/><path class="e" d="M98.89,4.63a.24.24,0,0,0-.27.18.44.44,0,0,0,.08.35.41.41,0,0,0,.34.2.38.38,0,0,0,.24-.16.51.51,0,0,0,0-.54.33.33,0,0,0-.5-.06"/><path class="e" d="M121,11.68a.25.25,0,0,0-.28.18.48.48,0,0,0,.08.35.41.41,0,0,0,.34.2.36.36,0,0,0,.24-.16.49.49,0,0,0,0-.54.33.33,0,0,0-.5-.06"/><path class="e" d="M136.3,15.45a.25.25,0,0,0-.27.19.46.46,0,0,0,.08.34.39.39,0,0,0,.34.2.38.38,0,0,0,.24-.15.5.5,0,0,0,.05-.55.33.33,0,0,0-.5-.05"/><path class="e" d="M137.74,10.66a.24.24,0,0,0-.27.19.42.42,0,0,0,.08.34.39.39,0,0,0,.33.2.41.41,0,0,0,.25-.15.52.52,0,0,0,.05-.55.33.33,0,0,0-.5,0"/><path class="e" d="M78.46,36.65a.23.23,0,0,0-.27.18.44.44,0,0,0,.08.35.41.41,0,0,0,.34.2.38.38,0,0,0,.24-.16.51.51,0,0,0,.05-.54.33.33,0,0,0-.5-.06"/><path class="e" d="M102.58,32.59a.25.25,0,0,0-.27.19.45.45,0,0,0,.08.35.38.38,0,0,0,.34.19.37.37,0,0,0,.24-.15.51.51,0,0,0,0-.54.32.32,0,0,0-.5-.06"/><path class="e" d="M90.34,36.22a.25.25,0,0,0-.27.19.49.49,0,0,0,.08.35.38.38,0,0,0,.34.19.37.37,0,0,0,.24-.15.52.52,0,0,0,0-.55.33.33,0,0,0-.5,0"/><path class="e" d="M56.51,30.91a.24.24,0,0,0-.27.18.44.44,0,0,0,.08.35.41.41,0,0,0,.34.2.38.38,0,0,0,.24-.16.51.51,0,0,0,.05-.54.33.33,0,0,0-.5-.06"/><path class="e" d="M119.82,35.39a.24.24,0,0,0-.28.18.45.45,0,0,0,.09.35.38.38,0,0,0,.33.2.36.36,0,0,0,.24-.16.47.47,0,0,0,0-.54.32.32,0,0,0-.49-.06"/><path class="e" d="M137.74,33.69a.24.24,0,0,0-.27.18.44.44,0,0,0,.08.35.41.41,0,0,0,.33.2.38.38,0,0,0,.25-.16.51.51,0,0,0,.05-.54.33.33,0,0,0-.5-.06"/><path class="b" d="M87.43,2.8a.25.25,0,0,0-.28.18.45.45,0,0,0,.09.35.38.38,0,0,0,.33.2.36.36,0,0,0,.24-.16.49.49,0,0,0,0-.54.33.33,0,0,0-.5-.06"/><path class="b" d="M107.26,7a.25.25,0,0,0-.28.19.46.46,0,0,0,.08.34.37.37,0,0,0,.34.2.38.38,0,0,0,.24-.15.5.5,0,0,0,0-.55.33.33,0,0,0-.5,0"/><path class="b" d="M42.28,20.1A.25.25,0,0,0,42,20a.46.46,0,0,0-.26.25.37.37,0,0,0,0,.38.36.36,0,0,0,.26.13.49.49,0,0,0,.49-.23.33.33,0,0,0-.2-.46"/><path class="b" d="M40.68,30.91a.23.23,0,0,0-.27.18.44.44,0,0,0,.08.35.41.41,0,0,0,.33.2.36.36,0,0,0,.24-.16.47.47,0,0,0,0-.54.32.32,0,0,0-.49-.06"/><path class="b" d="M63.27,41.93a.25.25,0,0,0-.27.19.46.46,0,0,0,.08.34.39.39,0,0,0,.34.2.41.41,0,0,0,.24-.15.52.52,0,0,0,.05-.55.33.33,0,0,0-.5-.05"/><path class="b" d="M91.54,39.63c-.12-.06-.25.08-.28.21a1.1,1.1,0,0,0,.08.64.45.45,0,0,0,.06.12.34.34,0,0,0,.16.1.88.88,0,0,0,.23.07.55.55,0,0,0,.33-.07.64.64,0,1,0-.61-1.12s0,0,0,0,0,0,0,0"/><path class="b" d="M126.64,39.41a.24.24,0,0,0-.27.19.43.43,0,0,0,.08.34.41.41,0,0,0,.33.2A.36.36,0,0,0,127,40a.47.47,0,0,0,0-.54.32.32,0,0,0-.49,0"/><path class="b" d="M152,11.28a.23.23,0,0,0-.27.18.44.44,0,0,0,.08.35.4.4,0,0,0,.33.2.36.36,0,0,0,.24-.16.47.47,0,0,0,0-.54.32.32,0,0,0-.49-.06"/><path class="b" d="M118.82,5.16a.24.24,0,0,0-.27.19.45.45,0,0,0,.08.35.37.37,0,0,0,.33.19.35.35,0,0,0,.24-.15.49.49,0,0,0,0-.55.32.32,0,0,0-.49-.05"/><path class="b" d="M71.07,1a.24.24,0,0,0-.28.18.45.45,0,0,0,.09.35.36.36,0,0,0,.33.19.35.35,0,0,0,.24-.15.47.47,0,0,0,0-.54A.31.31,0,0,0,71,1"/><path class="b" d="M140.28,38.78A.25.25,0,0,0,140,39a.43.43,0,0,0,.09.34.38.38,0,0,0,.33.2.36.36,0,0,0,.24-.16.47.47,0,0,0,.05-.54.32.32,0,0,0-.49-.05"/><path class="b" d="M149.05,43.77a.25.25,0,0,0-.27.18.48.48,0,0,0,.08.35.41.41,0,0,0,.34.2.38.38,0,0,0,.24-.16.51.51,0,0,0,.05-.54.33.33,0,0,0-.5-.06"/><path class="e" d="M27,6.38a.23.23,0,0,0-.27.18.45.45,0,0,0,.08.35.38.38,0,0,0,.33.19A.35.35,0,0,0,27.38,7a.47.47,0,0,0,.05-.54.31.31,0,0,0-.49-.06"/><path class="e" d="M31.11,22.29a.23.23,0,0,0-.27.18.44.44,0,0,0,.08.35.4.4,0,0,0,.33.2.36.36,0,0,0,.24-.16.47.47,0,0,0,.05-.54.32.32,0,0,0-.49-.06"/><path class="b" d="M121,3.13c-.13-.06-.26.07-.29.2a1.14,1.14,0,0,0,.09.65.34.34,0,0,0,.06.12.32.32,0,0,0,.16.09.81.81,0,0,0,.22.07.54.54,0,0,0,.33-.06.67.67,0,0,0,.27-.87.67.67,0,0,0-.87-.25s0,0,0,0,0,0,0,0"/><path class="b" d="M133.41,3.12c-.12-.06-.25.08-.29.21a1.19,1.19,0,0,0,.09.64.45.45,0,0,0,.06.12.34.34,0,0,0,.16.1.94.94,0,0,0,.22.07.57.57,0,0,0,.34-.07.66.66,0,0,0,.26-.86.66.66,0,0,0-.87-.26s0,0,0,0,0,0,0,0"/><path class="b" d="M139.64,35.81c-.12-.05-.26.08-.29.21a1.19,1.19,0,0,0,.09.64.31.31,0,0,0,.06.13.42.42,0,0,0,.16.09.81.81,0,0,0,.22.07.63.63,0,0,0,.33-.06.64.64,0,1,0-.6-1.12,0,0,0,0,0,0,0s0,0,0,0"/><path class="b" d="M51.66,40.83c-.13-.06-.26.07-.29.21a1.19,1.19,0,0,0,.09.64.27.27,0,0,0,.06.12.44.44,0,0,0,.16.1.81.81,0,0,0,.22.07.55.55,0,0,0,.33-.07A.65.65,0,0,0,52.5,41a.66.66,0,0,0-.87-.26s0,0,0,0,0,0,0,0"/><path class="b" d="M75,46.76c-.13,0-.26.08-.29.21a1.19,1.19,0,0,0,.09.64.31.31,0,0,0,.06.13.42.42,0,0,0,.16.09.81.81,0,0,0,.22.07.63.63,0,0,0,.33-.06.64.64,0,1,0-.6-1.12,0,0,0,0,0,0,0s0,0,0,0"/></svg>