<?xml version="1.0" encoding="utf-8"?>
<!-- Generator: Adobe Illustrator 24.2.3, SVG Export Plug-In . SVG Version: 6.00 Build 0)  -->
<svg version="1.1" id="coiffure_x5F_5" xmlns="http://www.w3.org/2000/svg" xmlns:xlink="http://www.w3.org/1999/xlink" x="0px"
	 y="0px" viewBox="0 0 553 574" style="enable-background:new 0 0 553 574;" xml:space="preserve">
<style type="text/css">
	.st0{fill:#B74F24;}
	.st1{fill:#602415;}
	.st2{fill:#A64222;}
	.st3{fill:#762E1A;}
	.st4{fill:#8A371F;}
</style>
<g>
	<g>
		<g>
			<path class="st0" d="M221.8,64.7c-14.8,14.3-36.5,43.6-31.5,65.2c-9,4.3,2.2,15.3-0.5,21.8c-9.2,10.3-3.2,11.4-0.7,22.5
				c-2.4,10.7-6.7,11.9,2.1,21.4c2.9,6.3-4.6,14.3-0.8,20.2c6.7,5.9,9,6.6,9.2,16.4c1.6,5.9,8.1,8.5,12.7,4.4
				c4.8-4.3,4.4-10.2,8.2-16.3c10.2-16.3,18.3-14.1,29.1-12.7c6.2,0.8,17.7-2,13.6-11c-0.9-1.9-3-4.4-5.7-5.2
				c-3.6-1-6.5-2.3-9.7-4.7c-14.7-11-21-19.3-23.1-33c-6.8-44.6,10.4-22,1-40.1c-0.1-5.4,8.9-4.7,10.3-9.2c0.7-2.3-1-5.1,0.3-7.2
				c5.8-4.8,11.7,3.6,15-8.6c4.5-7.1,22.6-0.3,21-12.2c5.3,12.2,13.3,13,21.7,13.7c8.2,0.6,16,4,22.1,9.5c6.9,6.2,15.6,15.8,16,25
				c1.2,29.6-0.7,51.9-32.3,64.4c-9.6,3.8-10.8,4.4-10.8,8.9c0,5.9,5.2,8.4,9.1,8.9c2.2,0.3,6.3,0.2,11.5-0.5
				c13.7-1.8,21.2,9.4,28.2,27.9c7.2,4.7,15.3-10.5,21.4-8.6c16.7,5.2,9.1-2.4,17.9-11.6c6.2-0.2,9.4-5.3,6.4-11.3
				c-15.3-18.1,8.4-20.6-3.3-32.8c-2.4-2.5-5.3-5.1-5.3-8.5c2.5-9.5,10.3-12.1-0.4-21.1c-5-5.5-6.6-13.1-7-20.4s-14.3-15.8-15.4-23
				C348.1,47.2,262,35.1,221.8,64.7z"/>
			<g>
				<path class="st1" d="M221.8,64.7c-4.5,4.4-8.6,9.1-12.5,14c-3.8,4.9-7.4,10.1-10.5,15.5c-3.1,5.4-5.7,11.1-7.5,17.1
					c-1.7,6-2.5,12.4-1.1,18.5l0,0l0,0c-0.9,0.4-1.7,1-2.4,1.8c-0.6,0.8-1,1.7-1.1,2.7c-0.2,2,0.4,3.9,1,5.8
					c0.6,1.9,1.4,3.7,1.9,5.7c0.5,1.9,0.9,4,0.1,5.9l0,0l0,0c-1.4,1.5-2.7,3.1-3.7,4.9c-1,1.8-1.6,3.9-1.1,5.9
					c0.4,2,1.4,3.8,2.2,5.8c0.8,1.9,1.4,3.9,1.9,5.9l0,0l0,0c-0.4,1.9-1,3.8-1.6,5.6c-0.6,1.9-1.4,3.7-1.5,5.6
					c-0.2,2,0.5,3.9,1.6,5.5c1,1.6,2.3,3.1,3.6,4.6l0,0l0,0c0.7,1.6,0.8,3.4,0.6,5.1c-0.2,1.7-0.8,3.4-1.2,5c-0.5,1.7-1,3.3-1.1,5
					c-0.2,1.7,0.1,3.5,1,4.9l0,0l3.8,3.2c1.2,1.1,2.5,2.2,3.4,3.6c0.9,1.4,1.4,3,1.7,4.6c0.3,1.6,0.4,3.3,0.4,4.9l0,0
					c0.5,1.9,1.7,3.7,3.3,4.9c1.6,1.2,3.7,1.7,5.7,1.3c1-0.2,1.9-0.6,2.7-1.2c0.4-0.3,0.8-0.6,1.2-1l0.5-0.5l0.5-0.6
					c1.3-1.5,2.1-3.4,2.8-5.3c0.7-1.9,1.3-3.8,2.1-5.7c0.7-1.9,1.8-3.7,2.9-5.3c2.2-3.4,4.8-6.6,8.1-9c1.6-1.2,3.5-2.1,5.5-2.7
					c2-0.5,4-0.7,6-0.6c2,0.1,4,0.3,6,0.6l3,0.4c1,0.1,2,0.1,3,0.1c2-0.1,4-0.5,5.9-1.2c1.8-0.7,3.6-1.9,4.5-3.7
					c0.9-1.8,0.6-3.9-0.2-5.7c-0.8-1.8-2.2-3.4-3.8-4.5c-0.4-0.3-0.9-0.5-1.3-0.7c-0.5-0.2-0.9-0.3-1.4-0.5c-1-0.3-1.9-0.6-2.9-1
					c-1.9-0.8-3.7-1.8-5.3-3c-3.3-2.4-6.4-4.9-9.4-7.7c-3-2.7-5.8-5.7-8.1-9.1c-1.2-1.7-2.1-3.5-3-5.3c-0.8-1.9-1.6-3.7-2.1-5.7
					c-1.1-3.9-1.6-7.9-2.1-11.9c-0.5-4-0.8-8.1-0.8-12.1c0-2,0.1-4.1,0.5-6.1c0.4-2,1-4,2.4-5.6c0.3-0.4,0.7-0.7,1.2-1
					c0.4-0.3,0.8-0.6,1.1-0.9c0.6-0.7,0.3-1.8,0-2.7c-0.7-1.9-1.6-3.7-2.5-5.5l0,0v0c0-0.5,0.1-1,0.2-1.4c0.2-0.5,0.4-0.9,0.7-1.2
					c0.6-0.7,1.4-1.3,2.2-1.7c1.6-0.9,3.4-1.4,4.9-2.4c0.8-0.5,1.5-1,1.9-1.8c0.4-0.8,0.6-1.6,0.5-2.5c-0.1-0.9-0.3-1.8-0.3-2.7
					c-0.1-0.9,0-1.9,0.5-2.8l0,0l0,0c1.3-1.1,2.9-1.7,4.6-1.7c1.6-0.1,3.3,0.2,4.8,0.1c0.8-0.1,1.5-0.3,2.2-0.8
					c0.6-0.4,1.2-1,1.6-1.7c0.8-1.3,1.4-2.9,1.8-4.4l0,0l0,0c0.6-1,1.6-1.8,2.6-2.3c1-0.5,2.1-0.9,3.3-1.1c2.2-0.5,4.5-0.7,6.7-1
					c2.2-0.3,4.5-0.7,6.4-1.9c0.9-0.6,1.6-1.5,1.9-2.6c0.3-1,0.3-2.2,0.2-3.3l-0.2-1.5l0.6,1.4c1,2.3,2.2,4.6,3.9,6.5
					c1.6,1.9,3.6,3.6,5.9,4.6c2.3,1.1,4.8,1.6,7.3,2c2.5,0.3,5.1,0.4,7.6,0.8c5.1,0.8,10,2.7,14.3,5.5c2.2,1.4,4.2,3,6,4.8
					c1.9,1.8,3.7,3.6,5.4,5.5c3.4,3.8,6.5,8,8.3,12.9c0.4,1.2,0.8,2.5,1,3.7c0.2,1.3,0.2,2.6,0.3,3.8c0.1,2.6,0.2,5.1,0.2,7.7
					c0,5.1-0.1,10.2-0.8,15.3c-0.6,5.1-1.8,10.1-3.8,14.9c-1,2.4-2.2,4.6-3.6,6.8c-1.4,2.1-3.1,4.1-4.9,5.9
					c-1.8,1.8-3.8,3.5-5.9,4.9c-1,0.8-2.1,1.4-3.2,2.1c-1.1,0.6-2.2,1.3-3.4,1.9c-2.3,1.2-4.6,2.2-7,3.2c-2.4,1-4.8,1.8-7,2.9
					c-1.1,0.6-2.3,1.2-3,2.1c-0.8,1-0.9,2.3-0.9,3.5c0,1.3,0.2,2.5,0.7,3.6c0.5,1.1,1.3,2.1,2.3,2.9c2,1.5,4.5,2.3,7,2.4
					c2.5,0.1,5.1,0,7.6-0.3l3.8-0.4c1.3-0.1,2.6-0.1,3.9,0c2.6,0.3,5.1,1.2,7.2,2.6c2.2,1.4,4.1,3.2,5.7,5.2c1.6,2,3,4.2,4.3,6.4
					c2.5,4.5,4.5,9.2,6.3,14l-0.1-0.1c0.8,0.6,1.9,0.9,2.9,0.9c1,0,2-0.3,3-0.7c1.9-0.9,3.5-2.2,5.2-3.5c1.6-1.3,3.2-2.7,5-3.9
					c0.9-0.6,1.8-1.1,2.8-1.4c0.5-0.2,1.1-0.2,1.6-0.2c0.6,0,1.1,0.2,1.6,0.4c2,0.6,4,1.2,6.1,1.4c1,0.1,2.1,0.1,3-0.2
					c1-0.3,1.7-1.1,2.1-2c0.9-1.9,1.3-4,2.3-5.8c0.9-1.9,2.2-3.6,3.6-5.2l0,0l0.1,0c1.3,0,2.6-0.3,3.8-0.9c1.2-0.6,2.2-1.5,2.8-2.6
					c0.6-1.1,0.9-2.5,0.8-3.8c-0.1-1.3-0.5-2.6-1.1-3.8l0,0c-1.3-1.5-2.4-3.1-3.4-4.8c-1-1.7-1.7-3.6-1.9-5.5c-0.2-2,0.1-4,0.9-5.8
					c0.8-1.8,1.9-3.4,2.8-5.1c0.9-1.7,1.8-3.5,1.6-5.4c-0.1-1.9-1.2-3.7-2.4-5.1c-1.2-1.5-2.8-2.7-4-4.3c-1.2-1.5-2.3-3.3-2.3-5.3v0
					l0,0c0.5-2,1.3-3.8,2.3-5.6c0.9-1.8,2-3.5,2.6-5.4c0.3-1,0.3-2,0.1-2.9c-0.2-1-0.7-1.9-1.2-2.7c-1.1-1.7-2.6-3-4.1-4.3l0,0l0,0
					c-2.8-3.1-4.6-7-5.7-11.1c-0.5-2-0.9-4.1-1.1-6.2c-0.1-1-0.2-2.1-0.3-3.1c-0.1-1-0.4-2-0.8-3c-0.9-1.9-2.2-3.5-3.5-5.1
					c-1.3-1.6-2.8-3.1-4.2-4.6c-1.4-1.5-2.8-3.1-4.1-4.7c-1.2-1.7-2.4-3.5-2.8-5.6l0,0l0,0c-0.5-6.5-2.5-12.8-5.9-18.4
					c-3.4-5.6-8.1-10.3-13.3-14.1c-5.3-3.8-11.1-6.8-17.2-9.1c-6.1-2.3-12.4-3.9-18.8-5c-12.8-2.1-26-2.1-38.8,0
					c-6.4,1.1-12.7,2.7-18.8,5.1C232.9,57.8,227.1,60.8,221.8,64.7z M221.8,64.7c5.2-3.9,11.1-6.9,17.1-9.2c6.1-2.3,12.4-4,18.8-5.1
					c12.8-2.2,26-2.2,38.9-0.1c6.4,1.1,12.7,2.7,18.8,5c6.1,2.3,11.9,5.3,17.2,9.1c5.3,3.8,9.9,8.5,13.3,14.1
					c3.4,5.6,5.5,11.9,5.9,18.4l0,0c0.4,2.1,1.5,3.9,2.8,5.5c1.3,1.7,2.7,3.2,4.1,4.7c1.4,1.5,2.9,3,4.2,4.6
					c1.3,1.6,2.7,3.3,3.6,5.2c0.4,1,0.8,2,0.8,3c0.1,1,0.1,2.1,0.3,3.1c0.2,2.1,0.6,4.1,1.1,6.1c1,4,2.8,7.9,5.6,11l0,0
					c1.5,1.3,3,2.7,4.2,4.4c0.6,0.8,1,1.8,1.2,2.8c0.2,1,0.2,2.1-0.1,3c-0.6,2-1.7,3.7-2.6,5.5c-0.9,1.8-1.7,3.6-2.2,5.6l0,0
					c0,1.9,1,3.7,2.2,5.2c1.2,1.5,2.7,2.8,4,4.3c1.2,1.5,2.3,3.3,2.5,5.3c0.2,2-0.7,3.9-1.7,5.6c-1,1.7-2.1,3.3-2.8,5.1
					c-0.8,1.8-1.1,3.7-0.9,5.6c0.2,1.9,0.9,3.8,1.9,5.4c1,1.7,2.1,3.3,3.4,4.7l0,0l0,0c0.6,1.2,1,2.5,1.2,3.9
					c0.1,1.3-0.1,2.7-0.8,3.9c-0.7,1.2-1.7,2.2-2.9,2.7c-1.2,0.6-2.6,0.9-3.9,0.9l0.1,0c-1.4,1.5-2.7,3.2-3.6,5.1
					c-0.9,1.9-1.4,3.9-2.3,5.8c-0.4,1-1.2,1.9-2.3,2.2c-1,0.3-2.1,0.3-3.2,0.2c-2.1-0.2-4.1-0.8-6.1-1.4c-0.5-0.2-1-0.3-1.5-0.3
					c-0.5,0-1,0-1.5,0.2c-1,0.3-1.9,0.8-2.8,1.4c-1.7,1.2-3.3,2.5-4.9,3.8c-1.6,1.3-3.3,2.6-5.2,3.5c-1,0.4-2,0.8-3.1,0.8
					c-1.1,0-2.2-0.3-3.1-0.9l0,0l0-0.1c-1.8-4.8-3.8-9.5-6.3-13.9c-1.2-2.2-2.6-4.4-4.2-6.3c-1.6-2-3.5-3.7-5.6-5.1
					c-2.1-1.4-4.6-2.2-7.1-2.5c-1.3-0.1-2.5-0.1-3.8,0l-3.8,0.4c-2.5,0.2-5.1,0.4-7.7,0.3c-2.6-0.1-5.2-0.9-7.2-2.5
					c-1-0.8-1.9-1.8-2.4-3c-0.6-1.2-0.8-2.5-0.8-3.8c0-1.3,0.1-2.7,1-3.8c0.8-1.1,2-1.7,3.2-2.2c2.3-1.1,4.7-2,7.1-3
					c2.4-1,4.7-2,6.9-3.2c1.1-0.6,2.2-1.2,3.3-1.9c1.1-0.7,2.2-1.3,3.2-2.1c2.1-1.5,4-3.1,5.8-4.9c1.8-1.8,3.4-3.8,4.8-5.9
					c1.4-2.1,2.6-4.4,3.6-6.7c2-4.7,3.1-9.7,3.7-14.7c0.6-5.1,0.8-10.2,0.7-15.3c0-2.5-0.1-5.1-0.2-7.6c-0.1-1.3-0.1-2.5-0.3-3.8
					c-0.2-1.2-0.5-2.5-1-3.6c-1.8-4.8-4.8-8.9-8.2-12.7c-1.7-1.9-3.5-3.7-5.3-5.5c-1.8-1.8-3.8-3.4-5.9-4.8
					c-4.3-2.8-9.1-4.6-14.1-5.4c-2.5-0.4-5.1-0.5-7.6-0.8c-2.5-0.3-5.1-0.9-7.4-2c-2.3-1.1-4.4-2.8-6-4.8c-1.6-2-2.9-4.3-3.9-6.6
					l0.4-0.1c0.1,1.1,0.2,2.3-0.2,3.5c-0.3,1.1-1.1,2.1-2,2.8c-1,0.7-2.1,1.1-3.2,1.3c-1.1,0.3-2.2,0.5-3.4,0.6
					c-2.2,0.3-4.5,0.5-6.7,1c-2.2,0.5-4.4,1.3-5.6,3.2l0-0.1c-0.4,1.6-1,3.1-1.8,4.5c-0.4,0.7-1,1.3-1.7,1.8
					c-0.7,0.5-1.5,0.7-2.4,0.8c-1.7,0.2-3.3-0.2-4.9-0.1c-1.6,0-3.1,0.6-4.3,1.6l0,0c-0.5,0.7-0.5,1.6-0.4,2.5
					c0.1,0.9,0.3,1.8,0.3,2.7c0.1,0.9,0,1.9-0.5,2.8c-0.5,0.8-1.3,1.4-2,1.9c-1.6,1-3.4,1.5-4.9,2.4c-0.8,0.4-1.6,0.9-2.1,1.6
					c-0.6,0.7-0.8,1.5-0.8,2.4l0-0.1c0.9,1.8,1.9,3.6,2.5,5.5c0.2,0.5,0.3,1,0.4,1.5c0.1,0.5,0,1.1-0.4,1.6c-0.3,0.4-0.8,0.7-1.2,1
					c-0.4,0.3-0.8,0.6-1.1,1c-1.3,1.5-1.9,3.5-2.3,5.4c-0.4,2-0.5,4-0.5,6c0,4,0.3,8.1,0.8,12.1c0.5,4,1,8,2.1,11.9
					c0.5,1.9,1.3,3.8,2.1,5.7c0.9,1.8,1.8,3.6,3,5.2c2.2,3.3,5,6.3,8,9c3,2.7,6.1,5.2,9.4,7.6c1.6,1.2,3.4,2.2,5.3,2.9
					c0.9,0.4,1.9,0.7,2.8,1c0.5,0.1,1,0.3,1.5,0.5c0.5,0.2,0.9,0.4,1.4,0.7c1.7,1.1,3.1,2.7,3.9,4.6c0.4,0.9,0.7,1.9,0.8,3
					c0.1,1-0.1,2.1-0.6,3c-1,1.9-2.8,3.1-4.7,3.8c-1.9,0.7-3.9,1.1-5.9,1.3c-1,0.1-2,0-3-0.1l-3-0.4c-2-0.3-4-0.5-6-0.6
					c-2-0.1-4,0.1-6,0.6c-1.9,0.5-3.8,1.4-5.4,2.6c-3.3,2.4-5.8,5.6-8,8.9c-1.1,1.7-2.1,3.4-2.9,5.3c-0.8,1.9-1.4,3.8-2.1,5.7
					c-0.7,1.9-1.6,3.8-2.9,5.3l-0.5,0.6l-0.5,0.5c-0.4,0.4-0.8,0.7-1.2,1c-0.8,0.6-1.8,1-2.8,1.2c-2,0.4-4.2-0.2-5.8-1.4
					c-1.7-1.2-2.8-3-3.4-5l0,0l0,0c0-1.6-0.1-3.3-0.4-4.9c-0.3-1.6-0.8-3.2-1.7-4.6c-0.9-1.4-2.1-2.5-3.4-3.6l-3.8-3.2l0,0l0,0
					c-1-1.5-1.2-3.3-1.1-5c0.2-1.7,0.7-3.4,1.1-5.1c0.5-1.7,1-3.3,1.2-5c0.2-1.7,0.2-3.5-0.5-5l0,0c-1.3-1.4-2.6-2.9-3.7-4.6
					c-1-1.6-1.8-3.6-1.6-5.6c0.2-2,0.9-3.8,1.6-5.7c0.6-1.9,1.2-3.7,1.6-5.6l0,0c-0.5-2-1.1-4-1.9-5.9c-0.7-1.9-1.7-3.8-2.2-5.8
					c-0.5-2,0.1-4.2,1.1-6c1-1.8,2.3-3.4,3.7-4.9l0,0c0.7-1.9,0.4-3.9-0.1-5.8c-0.5-1.9-1.3-3.8-1.9-5.6c-0.6-1.9-1.2-3.8-1-5.9
					c0.1-1,0.5-2,1.1-2.7c0.6-0.8,1.5-1.3,2.4-1.8l0,0c-1.4-6.1-0.6-12.6,1.1-18.5c1.7-6,4.4-11.7,7.5-17.1
					c3.1-5.4,6.6-10.6,10.5-15.5C213.2,73.7,217.3,69,221.8,64.7z"/>
			</g>
		</g>
		<g>
			<g>
				<path class="st1" d="M263.2,73.5c-0.4,1-1.1,1.9-2.1,2.4c-0.9,0.6-2,0.9-3.1,1c-2.2,0.3-4.3,0-6.4,0.1c-1.1,0-2.1,0.2-3.1,0.7
					c-0.9,0.5-1.6,1.3-1.9,2.3c-0.3,1-0.4,2.1-0.4,3.1c0,1.1,0.1,2.1,0.3,3.2l0,0.1l0,0.1c-0.6,0.8-1.3,1.5-2.1,2
					c-0.9,0.5-1.9,0.7-2.8,0.8c-1.9,0.2-3.9-0.1-5.7,0.1l-0.1,0l-0.1,0c-1-0.4-2.1-0.6-3-0.1c-0.8,0.6-1.2,1.7-1.4,2.7
					c-0.2,1.1-0.3,2.2-0.5,3.2c-0.2,1.1-0.4,2.2-0.9,3.2c-0.3,0.5-0.7,1-1.2,1.3c-0.5,0.3-1.1,0.5-1.6,0.6c-1.1,0.2-2.2,0.2-3.3,0.4
					c-1.1,0.1-2.1,0.5-2.7,1.4c-0.5,0.9-0.3,2,0,3.1c0.3,1,0.7,2.1,0.7,3.3c0,0.6-0.3,1.2-0.6,1.6c-0.4,0.4-0.9,0.7-1.4,0.9
					c-1.1,0.4-2.2,0.5-3.1,1c-0.5,0.2-0.9,0.6-1.2,1c-0.3,0.4-0.3,1-0.3,1.5c0.2,1.1,0.7,2,1,3.1c0.2,0.5,0.3,1.1,0.3,1.7
					c0,0.6-0.3,1.1-0.6,1.6c-0.6,0.9-1.4,1.7-2,2.6c-0.3,0.5-0.5,1-0.5,1.5c0,0.6,0.3,1,0.7,1.4c-0.4-0.4-0.7-0.9-0.8-1.4
					c0-0.6,0.2-1.1,0.5-1.6c0.6-0.9,1.4-1.7,2-2.6c0.7-0.9,0.6-2.1,0.2-3.1c-0.3-1-0.9-2-1.1-3.1c-0.1-0.6,0-1.2,0.3-1.7
					c0.3-0.5,0.8-0.9,1.3-1.1c1-0.5,2.1-0.6,3.1-1c0.5-0.2,1-0.5,1.3-0.8c0.3-0.4,0.5-0.9,0.6-1.4c0-1.1-0.4-2.1-0.7-3.2
					c-0.3-1-0.6-2.3,0-3.4c0.6-1.1,1.9-1.5,2.9-1.6c1.1-0.2,2.2-0.2,3.3-0.4c1-0.2,2-0.7,2.5-1.7c0.9-1.9,0.9-4.2,1.4-6.4
					c0.1-0.5,0.3-1.1,0.5-1.6c0.2-0.5,0.6-1,1.1-1.4c0.5-0.3,1.2-0.4,1.7-0.3c0.6,0,1.1,0.2,1.7,0.4l-0.1,0c1.9-0.2,3.9,0.1,5.8-0.1
					c0.9-0.1,1.9-0.3,2.7-0.7c0.8-0.4,1.5-1.1,2-1.9l0,0.1c-0.1-1.1-0.3-2.1-0.3-3.2c0-1.1,0.1-2.2,0.5-3.2c0.4-1,1.1-2,2.1-2.5
					c1-0.5,2.1-0.7,3.2-0.7c2.2-0.1,4.3,0.2,6.4,0c1.1-0.1,2.1-0.4,3-0.9C262,75.3,262.7,74.5,263.2,73.5z"/>
			</g>
			<g>
				<path class="st1" d="M212.5,161.3c-0.7,0.7-1.4,1.4-1.9,2.3c-0.5,0.9-0.7,1.9-0.5,2.8c0.3,0.9,0.9,1.7,1.6,2.4
					c0.7,0.7,1.5,1.3,2.3,1.8c0.8,0.6,1.6,1.2,2.4,1.9c0.4,0.4,0.7,0.7,1,1.2c0.1,0.2,0.2,0.5,0.3,0.7c0,0.3,0.1,0.5,0,0.8
					c-0.2,1.1-1,1.9-1.7,2.5c-0.8,0.7-1.6,1.2-2.5,1.7c-0.9,0.5-1.7,1-2.4,1.7c-0.7,0.6-1.3,1.5-1.3,2.4c-0.1,0.9,0.4,1.8,1.1,2.4
					c0.7,0.7,1.5,1.2,2.4,1.7c0.8,0.5,1.7,1.1,2.3,1.9c0.7,0.8,1,2,0.6,3c-0.4,1-1.2,1.7-1.8,2.4c-0.7,0.7-1.3,1.5-1.4,2.4l0-0.1
					c0.3,1.1,1,2,1.7,2.9c0.7,0.9,1.5,1.8,2.1,2.8c0.1,0.3,0.3,0.5,0.4,0.8c0,0.1,0.1,0.3,0.1,0.4l0,0.4c0.1,0.3-0.1,0.6-0.1,0.9
					c-0.1,0.3-0.2,0.5-0.3,0.8c-0.6,1-1.6,1.7-2.6,2.3c0.9-0.7,1.9-1.4,2.5-2.4c0.6-1,0.4-2.2-0.2-3.2c-0.6-1-1.4-1.8-2.1-2.7
					c-0.7-0.9-1.5-1.8-1.8-3l0,0l0,0c0-1.1,0.8-2,1.4-2.7c0.7-0.7,1.4-1.4,1.7-2.3c0.3-0.9,0-1.9-0.5-2.6c-0.6-0.7-1.4-1.3-2.2-1.8
					c-0.8-0.5-1.7-1.1-2.4-1.8c-0.7-0.7-1.3-1.7-1.2-2.8c0.1-1.1,0.8-2,1.5-2.7c0.8-0.7,1.6-1.2,2.5-1.7c0.9-0.5,1.7-1,2.4-1.6
					c0.7-0.6,1.5-1.4,1.6-2.3c0.2-0.9-0.5-1.7-1.2-2.4c-0.7-0.7-1.5-1.3-2.3-1.9c-0.8-0.6-1.6-1.2-2.3-1.9c-0.7-0.7-1.4-1.5-1.6-2.5
					c-0.3-1,0.1-2.1,0.6-2.9C211,162.7,211.8,162,212.5,161.3z"/>
			</g>
			<g>
				<path class="st1" d="M248.6,192.2c-0.6,0.3-1.2,0.5-1.8,0.9c-0.5,0.4-1,0.8-1.2,1.4c-0.2,0.6-0.1,1.2,0.2,1.8
					c0.3,0.6,0.7,1.1,1.1,1.6c0.4,0.5,0.8,1.1,1.2,1.6c0.4,0.6,0.8,1.2,0.9,1.9c0.2,0.7-0.2,1.5-0.8,1.9c-0.6,0.4-1.2,0.6-1.9,0.8
					c0.6-0.3,1.2-0.5,1.7-1c0.5-0.4,0.8-1,0.6-1.6c-0.4-1.2-1.3-2.2-2.1-3.3c-0.4-0.5-0.8-1.1-1.1-1.7c-0.3-0.6-0.5-1.4-0.2-2.1
					c0.3-0.7,0.9-1.1,1.5-1.5C247.3,192.6,248,192.4,248.6,192.2z"/>
			</g>
			<g>
				<path class="st1" d="M200.4,176c-1,1-2,2.1-2.5,3.4c-0.5,1.3-0.4,2.8,0.3,4c0.7,1.2,1.7,2.3,2.7,3.3c1,1,2.1,2,3.1,3l0,0l0,0
					c0.3,0.9,0.1,1.8-0.2,2.5c-0.3,0.8-0.8,1.5-1.3,2.1c-0.5,0.7-0.9,1.4-1.2,2.1c-0.3,0.7-0.4,1.5-0.2,2.2c0.2,0.7,0.7,1.4,1.3,1.9
					c0.6,0.5,1.3,1,2,1.5c0.7,0.5,1.4,1,2,1.6c0.6,0.6,1.1,1.4,1.1,2.3l0,0l0,0c-0.2,1-0.6,2-1.1,2.9c-0.5,0.9-1.1,1.8-1.4,2.7
					c-0.4,0.9-0.4,1.9,0.3,2.6c0.6,0.7,1.5,1.2,2.4,1.7l0,0l0,0c1,1,1.2,2.4,1.1,3.7c-0.1,1.3-0.3,2.5-0.6,3.8
					c-0.2,1.2-0.4,2.5,0,3.7c0.2,0.6,0.6,1.1,1.2,1.4c0.5,0.3,1.2,0.5,1.8,0.6c-0.6-0.1-1.3-0.2-1.8-0.6c-0.6-0.3-1-0.8-1.3-1.4
					c-0.5-1.2-0.3-2.6-0.1-3.8c0.2-1.3,0.4-2.5,0.5-3.8c0.1-1.2-0.2-2.6-1.1-3.4l0,0c-0.9-0.5-1.8-1-2.6-1.8
					c-0.3-0.4-0.6-0.9-0.7-1.5c-0.1-0.6,0.1-1.1,0.3-1.6c0.4-1,1-1.8,1.4-2.7c0.5-0.9,0.9-1.8,1.1-2.8l0,0.1c0-0.8-0.4-1.5-1-2
					c-0.5-0.6-1.2-1-1.9-1.5c-0.7-0.5-1.4-0.9-2-1.5c-0.6-0.6-1.2-1.3-1.4-2.1c-0.2-0.9-0.1-1.8,0.3-2.6c0.3-0.8,0.8-1.5,1.3-2.2
					c0.5-0.7,0.9-1.3,1.3-2.1c0.3-0.7,0.5-1.5,0.3-2.3l0,0.1c-1-1.1-2-2-3-3.1c-1-1-2-2.1-2.7-3.4c-0.7-1.3-0.8-2.9-0.2-4.2
					C198.4,178.1,199.4,177,200.4,176z"/>
			</g>
			<g>
				<path class="st1" d="M260.1,56.6c2.8,2.1,5.2,4.8,7.2,7.6c2,2.9,3.6,6,4.6,9.4c-1.4-3.2-3-6.3-5-9.1
					C264.9,61.6,262.6,59,260.1,56.6z"/>
			</g>
			<g>
				<path class="st1" d="M274.7,66.7c0.5,1.1,1.3,2.2,2.4,2.8c0.5,0.3,1.2,0.4,1.8,0.4c0.6,0,1.2-0.1,1.8-0.3
					c2.4-0.8,4.4-2.2,6.7-3.3c1.1-0.6,2.2-1.1,3.5-1.4c1.2-0.3,2.6-0.4,3.8,0.2c2.5,1.1,3.2,4.1,5.4,5l-0.1,0c1.4,0.1,2.7,0,4-0.4
					c1.3-0.3,2.5-1,3.9-1.3c0.7-0.2,1.4-0.2,2.2,0c0.3,0.1,0.7,0.2,1,0.4c0.3,0.2,0.6,0.4,0.9,0.6c1.1,0.9,1.9,2.1,2.8,3.2l-0.1-0.1
					c0.5,0.2,1,0.4,1.6,0.3c0.5-0.1,1.1-0.2,1.6-0.4c1.1-0.4,2.1-1,3.1-1.5c1.1-0.5,2.3-0.8,3.5-0.4c1.2,0.4,2,1.4,2.7,2.3
					c0.7,1,1.2,2,2.1,2.7c0.4,0.4,0.9,0.7,1.4,0.8c0.5,0.2,1.1,0.2,1.7,0.3c1.1,0.1,2.3,0.1,3.4,0.5c0.6,0.2,1.1,0.4,1.5,0.9
					c0.4,0.5,0.5,1.1,0.5,1.6c-0.1-0.6-0.2-1.2-0.6-1.6c-0.4-0.4-0.9-0.7-1.5-0.8c-1.1-0.3-2.3-0.3-3.4-0.4c-0.6,0-1.2-0.1-1.7-0.3
					c-0.6-0.2-1.1-0.5-1.5-0.9c-0.9-0.8-1.5-1.8-2.2-2.8c-0.7-0.9-1.4-1.8-2.5-2.1c-1.1-0.3-2.2,0-3.2,0.5c-1,0.4-2,1-3.1,1.5
					c-0.5,0.2-1.1,0.4-1.7,0.5c-0.6,0.1-1.2-0.1-1.8-0.3l0,0l0-0.1c-0.8-1.1-1.6-2.2-2.7-3.1c-0.3-0.2-0.6-0.4-0.8-0.6
					c-0.3-0.2-0.6-0.3-0.9-0.4c-0.6-0.1-1.3-0.1-1.9,0c-1.3,0.3-2.6,1-3.9,1.3c-1.4,0.4-2.8,0.5-4.2,0.3l0,0l0,0
					c-1.3-0.5-2.1-1.6-2.8-2.6c-0.7-1-1.5-2-2.6-2.5c-1.1-0.5-2.3-0.5-3.5-0.2c-1.2,0.3-2.3,0.8-3.4,1.4c-2.2,1.1-4.3,2.5-6.7,3.2
					c-0.6,0.2-1.2,0.3-1.9,0.3c-0.6,0-1.3-0.2-1.8-0.5C275.9,69,275.2,67.9,274.7,66.7z"/>
			</g>
			<g>
				<path class="st1" d="M281.6,77.3c1,1.3,2.1,2.4,3.5,3.1c1.4,0.7,3,1,4.5,1.1c3.1,0.1,6.3-0.6,9.5-0.1l0.1,0l0,0.1
					c0.4,1.3,0.9,2.6,1.6,3.7c0.4,0.5,0.9,1,1.5,1.1c0.6,0.1,1.2,0,1.8-0.3c1.2-0.5,2.4-1.3,3.7-1.8c0.7-0.2,1.4-0.4,2.1-0.3
					c0.7,0,1.4,0.3,2,0.6l0.1,0l0,0.1c0.3,0.9,0.7,1.9,1,2.8c0.2,0.5,0.4,0.9,0.6,1.3c0.2,0.4,0.5,0.8,0.9,0.9
					c0.4,0.1,0.9,0,1.4-0.2c0.5-0.1,1-0.2,1.5-0.3c1-0.1,2-0.1,3,0l0,0l0,0c0.8,0.5,1.1,1.4,1.2,2.2c0.1,0.8,0.1,1.6,0.2,2.4
					c0.1,0.8,0.1,1.6,0.6,2.3c0.2,0.3,0.6,0.5,1,0.5c0.4,0,0.8-0.1,1.2-0.2c-0.4,0.1-0.8,0.2-1.2,0.2c-0.4,0-0.8-0.2-1.1-0.5
					c-0.5-0.7-0.6-1.5-0.7-2.3c-0.1-0.8-0.1-1.6-0.2-2.4c-0.1-0.8-0.4-1.6-1.1-1.9l0.1,0c-1,0-2-0.1-3,0.1c-0.5,0.1-1,0.2-1.5,0.3
					c-0.5,0.1-1,0.3-1.6,0.2c-0.6-0.2-0.9-0.7-1.2-1.1c-0.2-0.5-0.5-0.9-0.6-1.4c-0.4-0.9-0.7-1.9-1.1-2.8l0.1,0.1
					c-1.1-0.7-2.5-0.7-3.8-0.2c-1.3,0.4-2.4,1.2-3.7,1.8c-0.6,0.3-1.4,0.5-2.1,0.3c-0.8-0.2-1.3-0.7-1.8-1.3
					c-0.8-1.2-1.3-2.5-1.7-3.8l0.2,0.2c-3.1-0.5-6.3,0.2-9.5,0c-1.6-0.1-3.2-0.4-4.6-1.3C283.7,79.8,282.5,78.6,281.6,77.3z"/>
			</g>
			<g>
				<path class="st1" d="M343.5,105.9l1.6,0c0.5,0.1,1.1,0.1,1.6,0.2c1.1,0.1,2.1,0.4,3.1,1c0.5,0.3,0.9,0.7,1.2,1.1
					c0.3,0.5,0.5,1,0.6,1.5c0.2,1.1,0.1,2.2-0.1,3.2c-0.2,1.1-0.4,2.1-0.6,3.2c-0.1,1-0.2,2.1,0.1,3.1c0.4,1,1.2,1.7,2.2,2
					c1,0.3,2.1,0.4,3.1,0.5l0,0l0,0c1,0.1,2.1,0.5,3,1.1c0.4,0.3,0.8,0.7,1,1.3c0.2,0.5,0.2,1.1,0.1,1.6c-0.3,1.1-1.1,1.8-1.8,2.6
					c-0.3,0.4-0.6,0.8-0.8,1.3c0,0.1-0.1,0.2-0.1,0.3l0,0.4c0,0.2-0.1,0.5,0,0.7c0.1,1,0.7,1.9,1.5,2.5c0.8,0.7,1.6,1.2,2.5,1.8
					c0.9,0.6,1.8,1.1,2.6,1.8c0.8,0.7,1.5,1.6,1.7,2.7l0,0l0,0c-0.4,1.7-1,3.4-1.8,5c-0.7,1.6-1.6,3.2-1.9,4.8
					c-0.4,1.7,0.2,3.4,0.9,4.9c0.7,1.6,1.8,3,2.8,4.4l0.3,0.4l-0.5,0c-0.7,0-1.6,0.1-2,0.6c-0.4,0.5-0.1,1.3,0.1,2
					c0.5,1.4,1.4,2.7,1.9,4.3c0.1,0.4,0.2,0.9,0,1.3c-0.1,0.4-0.3,0.8-0.6,1.1c-0.5,0.6-1.2,1.1-1.9,1.5c-1.3,0.8-2.8,1.6-3.3,3l0,0
					c-0.2,0.7-0.2,1.4,0,2.1c0.2,0.7,0.6,1.2,1.1,1.7c1.1,1,2.4,1.6,3.7,2.2c1.3,0.7,2.6,1.3,3.7,2.3c0.5,0.5,1,1.1,1.2,1.9
					c0.2,0.7,0.1,1.5,0,2.2l0,0l0,0c-0.4,0.9-1.2,1.6-2.1,2c-0.9,0.4-1.8,0.7-2.7,1c-0.9,0.3-1.8,0.6-2.6,1c-0.8,0.4-1.5,1.1-1.7,2
					l0,0c0,1.5,1,2.8,2.1,3.7c1.1,1,2.4,1.8,3.6,2.7c1.2,0.9,2.4,2.1,2.6,3.6c0.2,1.6-0.7,3-1.6,4.1c0.9-1.2,1.7-2.6,1.5-4.1
					c-0.2-1.5-1.4-2.6-2.6-3.5c-1.2-0.9-2.5-1.7-3.7-2.7c-0.6-0.5-1.1-1-1.5-1.7c-0.4-0.6-0.7-1.4-0.7-2.2v0l0,0
					c0.2-1,1-1.8,1.8-2.2c0.9-0.5,1.8-0.8,2.7-1.1c0.9-0.3,1.8-0.6,2.6-1c0.8-0.4,1.6-1,1.9-1.9l0,0c0.2-0.7,0.2-1.4,0-2.1
					c-0.2-0.7-0.6-1.3-1.1-1.7c-1-1-2.4-1.6-3.7-2.2c-1.3-0.7-2.6-1.3-3.8-2.3c-0.5-0.5-1-1.1-1.3-1.9c-0.2-0.7-0.2-1.5,0-2.3l0,0
					l0,0c0.3-0.8,0.9-1.4,1.5-1.9c0.6-0.5,1.3-0.9,2-1.3c0.6-0.4,1.3-0.9,1.7-1.5c0.4-0.6,0.7-1.3,0.5-2c-0.4-1.4-1.3-2.8-1.9-4.3
					c-0.1-0.4-0.3-0.8-0.3-1.2c-0.1-0.4,0-0.9,0.2-1.3c0.3-0.4,0.7-0.6,1.1-0.7c0.4-0.1,0.8-0.1,1.2-0.1l-0.2,0.4
					c-1-1.4-2.1-2.8-2.8-4.5c-0.8-1.6-1.3-3.4-0.9-5.2c0.3-1.8,1.2-3.4,1.9-4.9c0.7-1.6,1.4-3.2,1.8-4.9l0,0.1
					c-0.2-1-0.8-1.8-1.6-2.5c-0.8-0.7-1.7-1.2-2.5-1.8c-0.9-0.6-1.8-1.1-2.6-1.8c-0.8-0.7-1.5-1.7-1.6-2.8c-0.1-0.3,0-0.5,0-0.8
					l0-0.4c0-0.1,0.1-0.3,0.1-0.4c0.2-0.5,0.5-1,0.8-1.4c0.6-0.8,1.4-1.6,1.7-2.5c0.3-1-0.2-2-1-2.6c-0.8-0.6-1.8-0.9-2.8-1l0,0
					c-1.1-0.1-2.2-0.2-3.2-0.5c-1-0.3-2-1.1-2.4-2.2c-0.4-1.1-0.3-2.2-0.1-3.2c0.2-1.1,0.4-2.1,0.6-3.2c0.2-1.1,0.3-2.1,0.1-3.2
					c-0.1-0.5-0.3-1-0.5-1.5c-0.3-0.4-0.7-0.8-1.1-1.1c-0.9-0.6-2-0.9-3-1c-0.5-0.1-1.1-0.1-1.6-0.2L343.5,105.9z"/>
			</g>
			<g>
				<path class="st1" d="M337.3,174.1c-1.2,0.8-2,2.1-2.3,3.5c-0.3,1.4-0.3,2.9,0.3,4.2c0.5,1.3,1.5,2.4,2.8,3
					c0.6,0.4,1.2,0.7,1.8,1.2c0.6,0.5,1.1,1.2,1,2l0,0l0,0c-0.2,0.6-0.6,1.2-1.1,1.6c-0.5,0.4-1,0.7-1.6,1c-1.1,0.6-2.2,1-3.1,1.8
					c-0.5,0.4-0.8,0.8-0.8,1.3c0,0.5,0.3,1,0.7,1.5c0.8,0.9,1.7,1.6,2.7,2.3l0,0c1.3,0.5,2.7,1.1,3.8,2.1c0.6,0.5,1.1,1.1,1.3,1.9
					c0.2,0.8,0,1.6-0.3,2.3c-0.6,1.4-1.4,2.5-2.2,3.8c-0.7,1.2-1.4,2.5-1.7,3.9l0-0.1c0.1,1,0.6,1.9,1.4,2.7
					c0.8,0.7,1.6,1.3,2.5,1.9c0.9,0.6,1.8,1.3,2.5,2.1c0.8,0.8,1.3,1.9,1.4,3c0.2,2.2-0.7,4.3-1.2,6.3c-0.2,1-0.4,2.1-0.3,3.2
					c0.1,1.1,0.8,2,1.6,2.7c-0.9-0.6-1.5-1.6-1.7-2.7c-0.2-1.1,0-2.2,0.2-3.2c0.4-2.1,1.3-4.2,1.1-6.3c-0.1-1-0.6-2-1.3-2.8
					c-0.7-0.8-1.6-1.4-2.5-2c-0.9-0.6-1.8-1.2-2.6-2c-0.8-0.8-1.4-1.8-1.5-2.9l0,0l0,0c0.3-1.4,1-2.8,1.7-4c0.7-1.2,1.6-2.4,2.1-3.7
					c0.2-0.6,0.4-1.3,0.2-2c-0.1-0.6-0.6-1.2-1.1-1.6c-1.1-0.9-2.4-1.5-3.7-2l0,0l0,0c-1-0.7-2-1.5-2.8-2.4
					c-0.4-0.5-0.8-1.1-0.8-1.8c0-0.4,0.1-0.7,0.3-1c0.2-0.3,0.4-0.5,0.7-0.7c1-0.8,2.2-1.2,3.2-1.8c1-0.6,2.2-1.2,2.5-2.3l0,0
					c0-0.7-0.3-1.3-0.9-1.7c-0.5-0.5-1.1-0.8-1.7-1.2c-1.2-0.7-2.4-1.8-2.8-3.2c-0.5-1.4-0.6-2.9-0.2-4.3
					C335.3,176.1,336.1,174.9,337.3,174.1z"/>
			</g>
			<g>
				<path class="st1" d="M315.6,190.8c-1,0.4-1.9,1-2.5,1.9c-0.6,0.8-1.1,1.8-1.2,2.8c-0.2,1-0.1,2.1,0.3,3.1c0.4,1,1,1.9,1.8,2.6
					c-1-0.5-1.7-1.4-2.2-2.4c-0.5-1-0.6-2.2-0.4-3.3c0.2-1.1,0.7-2.2,1.4-3C313.5,191.6,314.5,191,315.6,190.8z"/>
			</g>
		</g>
	</g>
	<g>
		<g>
			<path class="st2" d="M261.7,109.6c3.6,0,5.3,5.2,1.1,5.8c-10.5-0.2-24-4.4-32.6,3.5C235.3,106.9,250.7,107.7,261.7,109.6z"/>
			<g>
				<path class="st3" d="M261.7,109.6c0.8,0,1.5,0.2,2.2,0.7c0.6,0.5,1.1,1.1,1.3,1.9c0.2,0.7,0.1,1.6-0.4,2.2
					c-0.5,0.6-1.3,0.9-2,1.1l0,0l0,0c-5.6-0.1-11.2-1.1-16.9-1.1c-2.8,0-5.6,0.2-8.3,0.9c-2.7,0.7-5.2,2-7.3,3.9l-0.8,0.7l0.4-1
					c1.2-2.8,3.1-5.3,5.6-6.9c2.5-1.7,5.4-2.6,8.4-3.1c2.9-0.5,5.9-0.5,8.9-0.4C255.9,108.7,258.8,109.1,261.7,109.6z M261.7,109.6
					c-5.8-1-11.9-1.6-17.7-0.5c-2.9,0.5-5.8,1.5-8.2,3.2c-2.4,1.7-4.3,4.1-5.4,6.8l-0.4-0.3c2.1-2,4.7-3.3,7.5-4
					c2.8-0.7,5.6-0.9,8.4-0.8c2.8,0.1,5.6,0.4,8.4,0.7c2.8,0.3,5.6,0.7,8.4,0.7l0,0c0.8-0.1,1.5-0.4,2-1c0.5-0.6,0.6-1.4,0.4-2.2
					c-0.2-0.7-0.7-1.4-1.3-1.9C263.3,109.9,262.5,109.6,261.7,109.6z"/>
			</g>
		</g>
		<g>
			<path class="st2" d="M291.3,108.9c-3.6,0-5.3,5.2-1.1,5.8c10.5-0.2,24-4.4,32.6,3.5C317.7,106.2,302.3,107,291.3,108.9z"/>
			<g>
				<path class="st3" d="M291.3,108.9c-0.8,0-1.5,0.3-2.2,0.7c-0.6,0.5-1.1,1.1-1.3,1.9c-0.2,0.7-0.1,1.6,0.4,2.2
					c0.5,0.6,1.2,0.9,2,1l0,0c2.8-0.1,5.6-0.4,8.4-0.7c2.8-0.3,5.6-0.6,8.4-0.7c2.8-0.1,5.7,0.1,8.4,0.8c2.8,0.7,5.4,2.1,7.5,4
					l-0.4,0.3c-1.1-2.7-3-5.1-5.4-6.8c-2.4-1.7-5.3-2.7-8.2-3.2C303.1,107.4,297.1,108,291.3,108.9z M291.3,108.9
					c2.9-0.5,5.9-0.9,8.9-1.1c3-0.2,6-0.1,8.9,0.4c2.9,0.5,5.9,1.4,8.4,3.1c2.5,1.7,4.4,4.2,5.6,6.9l0.4,1l-0.8-0.7
					c-2-1.9-4.6-3.2-7.3-3.9c-2.7-0.7-5.5-0.9-8.3-0.9c-5.6,0-11.2,1-16.9,1.1l0,0l0,0c-0.8-0.1-1.5-0.4-2-1.1
					c-0.5-0.6-0.6-1.5-0.4-2.2c0.2-0.7,0.7-1.4,1.3-1.9C289.7,109.2,290.5,108.9,291.3,108.9z"/>
			</g>
		</g>
	</g>
	<g>
		<path class="st4" d="M258,122.2c-6-4.1-14-2-19.6,1.8c-0.6-0.9-1.9-1.3-2-2.6c-0.1,1.1,0.1,2.5,1.1,3.2c-0.1,0.1-0.3,0.2-0.4,0.2
			c-1.1-0.7-2.3-1.4-2.6-2.8c-0.1,1.3,0.1,2.7,1.2,3.5c-0.3,0.1-0.5,0.2-0.8,0.3c-1.1-0.6-2.2-1.4-2.5-2.7c-0.1,1.4,0.2,3,1.5,3.7
			c0.7,6.9,3.8,13.9,10.8,16.1c-22.5-14.6,7.8-33.2,18.3-13.4C262.4,126.7,260.3,123.7,258,122.2z"/>
		<path class="st4" d="M320.9,122.9c-0.3,1.3-1.4,2.1-2.5,2.7c-0.3-0.1-0.5-0.2-0.8-0.3c1.1-0.8,1.3-2.3,1.2-3.5
			c-0.3,1.4-1.5,2.2-2.6,2.8c-0.1-0.1-0.3-0.2-0.4-0.2c1-0.7,1.2-2,1.1-3.2c-0.1,1.4-1.4,1.8-2,2.6c-7.6-5.9-21.8-6-24.5,5
			c10.8-19.5,40.6-0.5,18.2,13.9c7.1-2.2,10.2-9.3,10.9-16.2C320.7,126,321,124.3,320.9,122.9z"/>
	</g>
</g>
</svg>
