<svg viewBox="0 0 73 57" xmlns="http://www.w3.org/2000/svg"><path d="m62.21 57h-51.42c-7.36 0-10.79-7.13-10.79-15.9v-25.2c0-8.77 3.43-15.9 10.79-15.9h51.42c7.36 0 10.79 7.13 10.79 15.9v25.2c0 8.77-3.43 15.9-10.79 15.9z" fill="#fff"/><g opacity=".6"><path d="m59.12 54.14a26.87 26.87 0 0 1 -3.7-.12 28.54 28.54 0 0 0 3.7.12z" fill="#867763"/><path d="m59.64 8.26a10.29 10.29 0 0 1 -1.24.05c4.27.08 7.91-2.78 12-3.53-3.71.68-6.96 3.06-10.76 3.48z" fill="#ad996e"/><path d="m56.93 21.85a14.72 14.72 0 0 0 -1.51 1.2 14.72 14.72 0 0 1 1.51-1.2z" fill="#fffef7"/><path d="m62.47 51.87a7.31 7.31 0 0 1 -2.79.51c3.52 0 6.3-2.49 8.15-5.25 2-3 2.92-6.54 5.17-9.3-2 2.44-2.91 5.56-4.51 8.25a13.18 13.18 0 0 1 -6.02 5.79z" fill="#fffef7"/><path d="m60.78 9.35a63.27 63.27 0 0 0 8.41 1.7c-4.67-.42-9.08-2.29-13.77-2.52a30.32 30.32 0 0 1 5.36.82z" fill="#fffef7"/><g fill="#ddc0b2"><path d="m.67 44.3c-.07-.12-.44-.83-.57-.81a22.88 22.88 0 0 0 1.3 6.29 7.57 7.57 0 0 0 -.73-5.48z"/><path d="m69.78 43.64c-2.14 4.5-6 9.82-11.74 8.56-2.52-.56-4.79-2.46-4.73-5.22.06-3 2.48-5.29 4.77-6.92s4.69-3.14 6.46-5.44a10.62 10.62 0 0 0 2.46-7.25 7.64 7.64 0 0 0 -4.8-6.29c-3-1.11-5.44.76-7.55 2.72s-4.34 3.85-7.21 2.77a7.56 7.56 0 0 1 -4.44-6.27 5.11 5.11 0 0 1 -5 3.52c-2.48 0-4.06-1.45-5.24-3.5a11.12 11.12 0 0 0 -3.21 3.75c-.72 1.76-.1 3.51.78 5.08a9.93 9.93 0 0 1 14.07 2c2.86 4 2.74 10.69-2.15 13.13-2.88 1.44-6.29.87-9.23 2.13a9.16 9.16 0 0 0 3.79 3.37c.75.42 1.53.78 2.32 1.13a9.51 9.51 0 0 0 1.3.6 10.38 10.38 0 0 0 1.26.09c4.36.49 8.57 1.88 12.94 2.39 6.66.77 15.26-.84 17.72-8.08.86-2.55.62-5.37.62-8a27.89 27.89 0 0 0 -3.19 5.73z"/><path d="m12.35 30c.75-.06 1.67.18 2.25-.29s1.1-.91 1.62-1.4a28.24 28.24 0 0 0 2.78-3 27.6 27.6 0 0 0 4.18-7.31c-3.32 1.71-6.12 4.77-10 5.23a6.52 6.52 0 0 1 -7-4.76 6.45 6.45 0 0 1 4-7.44c2.82-1.03 6.04-.4 8.92-1.41 3.89-1.36 4.19-5.47 4.62-9a18.34 18.34 0 0 0 -3.9 1.52c-.53.27-1.05.55-1.56.85a10.12 10.12 0 0 0 -1.68 1.31 8.58 8.58 0 0 1 -3 1.61c-1.3.42-2.48 1.17-3.78 1.63a17.59 17.59 0 0 1 -4 .89 20.64 20.64 0 0 1 -2.22.12 13.22 13.22 0 0 0 -2.25-.1c-.53.12-.4 0-.56.62-.08.33-.16.66-.23 1-.13.58-.23 1.16-.31 1.74a31 31 0 0 0 -.23 4.09v13.75 5.79c2.15-.79 3.84-2.46 5.86-3.52a17.17 17.17 0 0 1 6.49-1.92z"/><path d="m18.29 43.58c-.56-.28-1.78.22-2.36.37a15.18 15.18 0 0 0 -1.9.65 11.21 11.21 0 0 0 -3.58 2.28c-2 1.93-2.89 5-1 7.36.29.36 1.08 1.28 1.59 1.28.35 0 1.34-1 1.72-1.29a16.69 16.69 0 0 0 3.78-2.78 10.65 10.65 0 0 0 2-4 19.47 19.47 0 0 0 .46-2.12c0-.25.29-1 .19-1.24s-.72-.43-.9-.51z"/><path d="m70.43 4.78c-3.64.66-6.79 2.91-10.43 3.43a11.62 11.62 0 0 1 -10-3.85 14.09 14.09 0 0 1 -1.48-1.95 3.35 3.35 0 0 0 -.34-.56c-.35-.3.17-.27-.47-.11s-1 .44-1.5.59c-1.9.54-3.92.48-5.86.83-2.79.5-6.5 2.82-5 6.17 1.59 3.62 6.88 3.82 7.83 7.91a11.15 11.15 0 0 1 3.7-6.24 11.74 11.74 0 0 1 7.83-2.49c6 .08 11.8 3.25 17.9 2.52a17.78 17.78 0 0 0 -2.18-6.25z"/><path d="m26.43 52.64c-1 1.47-2 3-3.12 4.36h5.75c-.94-1.41-1.78-2.89-2.63-4.36z"/></g><path d="m69.19 11.05c-6.52-.58-13.53-4.43-20-1.52a10.9 10.9 0 0 0 -5.55 6 5.16 5.16 0 0 0 -.47 1.91 11.58 11.58 0 0 1 -.07 2.56 5.83 5.83 0 0 0 1 3.73c1.33 2.18 3.77 3.76 6.38 2.95s4.33-3.53 6.69-5c3-1.85 6.47-.6 8.4 2.15a8.21 8.21 0 0 1 .56 8.17 16.25 16.25 0 0 1 -5.75 6.5c-2.59 1.82-5.6 3.54-6.72 6.69-1.06 3 .56 5.73 3.45 6.77a8.17 8.17 0 0 0 8.26-1.96 21.06 21.06 0 0 0 4.71-7 32.94 32.94 0 0 1 2.21-4.2c.28-.43.63-.72.71-1.21a15.63 15.63 0 0 0 0-2.65v-14.94a63.6 63.6 0 0 0 -.21-7.69 3.14 3.14 0 0 0 -.15-1.08c-.18-.26-.59-.12-1-.1a18.63 18.63 0 0 1 -2.45-.08z" fill="#fffef7"/><path d="m59.12 54.14c-6.34.24-12.42-2-18.66-2.68 1.87.91 3.88 2.07 4.9 4 .19.35.37 1.43.62 1.57s.52 0 .68 0h14.51a10.51 10.51 0 0 0 6.58-1.75c3.49-2.59 4.76-7.27 5.12-11.39-1.15 6.63-7.43 10.01-13.75 10.25z" fill="#867763"/><path d="m5.82 34.37a25.43 25.43 0 0 0 8.4-4.37 15.45 15.45 0 0 0 -9.22 2.42c-1.37.83-2.6 1.89-4 2.61a6.07 6.07 0 0 0 -.93.41v.4a6 6 0 0 0 0 .95c1.53-1.46 3.75-1.79 5.75-2.42z" fill="#867763"/><g fill="#ad996e"><path d="m48 1.57a12.47 12.47 0 0 0 10.21 6.74c4.35.16 8-2.77 12.22-3.53a9.61 9.61 0 0 0 -5.43-4.41 13.75 13.75 0 0 0 -3.94-.37h-9.42a7 7 0 0 0 -1.59 0c-.72.18-1.3 1.16-2.05 1.57z"/><path d="m23.72.63.09-.63h-3.7c-.25 0-1.19-.16-1.4 0s-.24 1.29-.34 1.6a6 6 0 0 1 -1 1.94 24 24 0 0 1 6.35-2.91z"/><path d="m9.5 7.66a22.47 22.47 0 0 0 3.5-1.56 23 23 0 0 1 -6.57.49c-1.09 0-2.18-.07-3.28 0-.33 0-1.27-.1-1.53.09s-.52 1.39-.62 1.75a20.57 20.57 0 0 0 8.5-.77z"/></g><path d="m11 55.52c-3.37-1.71-3.16-5.85-.86-8.34a11 11 0 0 1 4.13-2.69 16.1 16.1 0 0 1 2.43-.72 2.62 2.62 0 0 1 2.5.32c.49-3.61.66-7.79 3.5-10.45 2.16-2 5.42-1.92 7.37-4.29.3-.35.26.07.1-.51a3.39 3.39 0 0 0 -.32-.63 7.37 7.37 0 0 1 -.47-1.29 4.56 4.56 0 0 1 .12-2.71 6.21 6.21 0 0 1 1.3-2 12.6 12.6 0 0 1 .89-.9c.17-.16 1-.77 1.08-1s-.59-1-.73-1.19a5.52 5.52 0 0 0 -.88-1 5.07 5.07 0 0 0 -2.25-1.12 8 8 0 0 0 -4.74.53 2.23 2.23 0 0 0 -1.05.63 7.65 7.65 0 0 0 -.53 1.28c-.39.84-.81 1.67-1.28 2.47a28.26 28.26 0 0 1 -3.26 4.51 27.09 27.09 0 0 1 -8.73 6.58 36.65 36.65 0 0 1 -5.49 1.88c-1 .28-3.52.89-3.83 2a11.61 11.61 0 0 0 0 2.7c0 1 0 2 .05 3s.69 1.61 1.06 2.54a7.75 7.75 0 0 1 .5 3.09 13.34 13.34 0 0 0 -.21 1.49 5.18 5.18 0 0 0 .6 1.39 12.94 12.94 0 0 0 1.26 2.08 9.37 9.37 0 0 0 3.69 3 9.22 9.22 0 0 0 2.25.65l.55.08c.54 0 .37.09.67-.27.09-.12.58-1.11.58-1.11z" fill="#fffef7"/><path d="m40.46 51.46a28.44 28.44 0 0 1 -5.52-3 8.19 8.19 0 0 1 -1-.89 11.27 11.27 0 0 0 -.78-1c-.35-.28-.12-.15-.57 0a3.06 3.06 0 0 0 -.69.37 12.83 12.83 0 0 0 -1.29.89 16.41 16.41 0 0 0 -2.14 2.11c-.32.37-.62.74-.92 1.13s-1.12 1.2-1.15 1.58.56 1 .73 1.27q.45.78.93 1.56c.24.4.64 1.39 1.05 1.53a5.82 5.82 0 0 0 1.56 0h15.23c-.47-2.79-3.1-4.42-5.44-5.55z" fill="#fffef7"/><path d="m26.43 52.64c1.69-2.41 3.6-4.86 6.33-6.15s5.73-.91 8.5-1.84c5.64-1.9 6.3-9.06 3.25-13.44-3.53-5.07-10.4-5.3-14.94-1.44a8.68 8.68 0 0 1 -2.41 1.67 16.06 16.06 0 0 0 -3.53 1.47c-2.61 1.78-3.52 4.85-4 7.83-.5 3.25-.58 6.74-2.35 9.62a10 10 0 0 1 -3.48 3.2c-1.37.84-3.06 1.75-3.56 3.41 2.68.13 5.39 0 8.07 0h4.32c.51 0 .53.06.88-.28a27.32 27.32 0 0 0 2.92-4.05z" fill="#ad996e"/><path d="m8.57 6.62c4.43-.02 9.62-1.47 10.13-6.62h-7.61c-4.47 0-7.76 2.59-9.46 6.65 2.31-.24 4.63-.02 6.94-.03z" fill="#fffef7"/><path d="m21.17 8.43c-2.26 2-5.63 1.69-8.43 2-3.16.39-6 2-6.64 5.35a6.33 6.33 0 0 0 4.08 7.1c3.63 1.35 7.13-1.05 10-3 2.68-1.84 5.9-3.82 9.28-2.71 1.75.56 2.61 1.92 3.5 3.43a5.89 5.89 0 0 0 3.38 2.95 5.28 5.28 0 0 0 6.84-3.94 5.37 5.37 0 0 0 -1.59-5 43.71 43.71 0 0 0 -4.14-2.82c-1.37-1-2.67-2.54-2.41-4.38a5.12 5.12 0 0 1 3.14-3.6c3.67-1.69 9 0 11.64-3.8h-25.26a2.09 2.09 0 0 0 -.66 0c-.3.16-.24 1.19-.29 1.57-.27 2.42-.54 5.12-2.44 6.85z" fill="#867763"/></g></svg>