<svg viewBox="0 0 73 57" xmlns="http://www.w3.org/2000/svg" xmlns:xlink="http://www.w3.org/1999/xlink"><pattern id="a" height="19.4" patternUnits="userSpaceOnUse" viewBox="0 0 19.37 19.4" width="19.37"><path d="m0 0h19.37v19.4h-19.37z" fill="none"/><path d="m0 18.21v2.39l4.8 4.79 4.84-4.84 4.86 4.87v-2.34l-4.86-4.87-4.8 4.81z" fill="#ffdb16"/><path d="m19.37 20.55-4.87 4.87v-2.34l4.87-4.87z" fill="#ffdb16"/><path d="m0 13.38v2.38l4.8 4.8 4.84-4.84 4.86 4.86v-2.34l-4.86-4.86-4.8 4.8z" fill="#ffdb16"/><path d="m19.37 15.72-4.87 4.86v-2.34l4.87-4.86z" fill="#ffdb16"/><path d="m0 8.51v2.39l4.8 4.8 4.84-4.85 4.86 4.87v-2.34l-4.86-4.87-4.8 4.81z" fill="#ffdb16"/><path d="m19.37 10.85-4.87 4.87v-2.34l4.87-4.87z" fill="#ffdb16"/><path d="m0 3.68v2.39l4.8 4.79 4.84-4.84 4.86 4.86v-2.33l-4.86-4.87-4.8 4.81z" fill="#ffdb16"/><path d="m19.37 6.02-4.87 4.86v-2.33l4.87-4.87z" fill="#ffdb16"/><path d="m0-1.19v2.39l4.8 4.8 4.84-4.84 4.86 4.86v-2.34l-4.86-4.87-4.8 4.81z" fill="#ffdb16"/><path d="m19.37 1.16-4.87 4.86v-2.34l4.87-4.87z" fill="#ffdb16"/><path d="m0-6.02v2.39l4.8 4.79 4.84-4.84 4.86 4.87v-2.34l-4.86-4.87-4.8 4.81z" fill="#ffdb16"/><path d="m19.37-3.68-4.87 4.87v-2.34l4.87-4.87z" fill="#ffdb16"/></pattern><path d="m62.21 57h-51.42c-7.36 0-10.79-7.13-10.79-15.9v-25.2c0-8.77 3.43-15.9 10.79-15.9h51.42c7.36 0 10.79 7.13 10.79 15.9v25.2c0 8.77-3.43 15.9-10.79 15.9z" fill="#fff"/><path d="m62.21 57h-51c-4.51 0-7.85-2.48-9.59-6.61-1.62-3.83-1.62-7.95-1.62-12.04v-13.2c0-3.07 0-6.15 0-9.15 0-5.44 1.25-12.51 6.68-15.11 2.19-1.05 4.59-.89 6.94-.89h47.16c3.22 0 6.22.54 8.42 3.09 3.28 3.69 3.8 9 3.8 13.7v23.34c0 4.68-.49 9.89-3.65 13.61a9.23 9.23 0 0 1 -7.14 3.26z" fill="url(#a)"/></svg>