<?xml version="1.0" encoding="utf-8"?>
<!-- Generator: Adobe Illustrator 25.1.0, SVG Export Plug-In . SVG Version: 6.00 Build 0)  -->
<svg version="1.1" id="print" xmlns="http://www.w3.org/2000/svg" xmlns:xlink="http://www.w3.org/1999/xlink" x="0px" y="0px"
	 viewBox="0 0 65.2 51.1" style="enable-background:new 0 0 65.2 51.1;" xml:space="preserve">
<style type="text/css">
	.st0{fill:#F4F4F4;}
	.st1{fill:#003DA6;}
	.st2{fill:#D52122;}
</style>
<g id="angleterre">
	<path class="st0" d="M56.8,0.1H8.4C2.5,0.1,0,6,0,13.3v24.4C0,45,2.4,51,8.4,51h48.4c6,0,8.4-5.9,8.4-13.3V13.3
		C65.2,6,62.8,0.1,56.8,0.1z"/>
	<path class="st1" d="M8.1,12.3V0.1C2.7,0.3,0.3,5.6,0,12.3H8.1V39H0c0.3,6.6,2.7,11.8,8.1,12V39V12.3z"/>
	<path class="st2" d="M8.1,12.3H0c0,0.3,0,0.7,0,1v24.5c0,0.4,0,0.8,0,1.2h8.1V12.3z"/>
</g>
</svg>
