<svg viewBox="0 0 73 57" xmlns="http://www.w3.org/2000/svg"><g fill="#fff"><path d="m62.21 57h-51.42c-7.36 0-10.79-7.13-10.79-15.9v-25.2c0-8.77 3.43-15.9 10.79-15.9h51.42c7.36 0 10.79 7.13 10.79 15.9v25.2c0 8.77-3.43 15.9-10.79 15.9z"/><path d="m62.21 57h-51.42c-7.36 0-10.79-7.13-10.79-15.9v-25.2c0-8.77 3.43-15.9 10.79-15.9h51.42c7.36 0 10.79 7.13 10.79 15.9v25.2c0 8.77-3.43 15.9-10.79 15.9z"/><path d="m62.21 57h-51c-4.51 0-7.85-2.48-9.59-6.61-1.62-3.87-1.62-7.99-1.62-12.08v-13.2c0-3.06 0-6.13 0-9.2 0-5.39 1.25-12.46 6.68-15.06 2.19-1.05 4.59-.85 6.94-.85h47.16c3.22 0 6.22.51 8.42 3.05 3.28 3.69 3.8 9 3.8 13.7v23.34c0 4.68-.49 9.89-3.65 13.61a9.23 9.23 0 0 1 -7.14 3.3z"/></g><path d="m70.05 24.66a84.4 84.4 0 0 0 -10.16-3.34c-3-.73-6.24-1.2-8.85-3a1.65 1.65 0 0 1 .1.44 2.89 2.89 0 0 1 -1.88-1c-.1-.14-.6-1.36-.12-1.14-2.77-3.23-2.09-7.68-4.14-11.21a14.91 14.91 0 0 0 -4.27-4.62 3.26 3.26 0 0 0 -1.73-.79c-1.4-.11-2.85 0-4.26 0h-21.35c-.86 0-1.73 0-2.6 0a9.39 9.39 0 0 0 -7.79 4c-2.83 4.1-3 9.2-3 14v14.2c0 3.36-.1 6.73 0 10.09.26 6.29 2.8 14.31 10.28 14.71 3.38.16 6.8 0 10.18 0h14c-1.08-.07-2.15-.09-3.22-.1a5.44 5.44 0 0 1 -2.05-.27c-.41-.18-.95-.55-.9-1s.39-.71.5-1c1-2.13 1.69-4.37 2.71-6.48.88-1.84 2.11-4.31 4.18-5a3.15 3.15 0 0 1 2.85.4c1.07.8 1 2.49 1 3.68 0 1.55-.33 3.19.43 4.61.95 1.76 2.92 3 3.41 5l-.7.13h6.51a13.18 13.18 0 0 1 -1.18-1.83c-.56-.77-1.15-1.52-1.68-2.31-.82-1.22-1.86-2.92-1-4.36.45-.74 1.2-1.23 1.72-1.92a5.19 5.19 0 0 0 .78-3.25c0-1.68-.19-3.34-.27-5-.07-1.5-.14-3.35.78-4.63 1.17-1.64 3.51-1.42 5.11-.62 4.23 2.15 4.84 7.24 8.35 10.07a68.52 68.52 0 0 0 5.77 3.74c2.1 1.36 3.57 3 2.7 5.65 2.58-4 2.77-8.83 2.77-13.43v-11.17a6.53 6.53 0 0 0 0-1.71c-.12-.38.29 0-.35-.36a16.45 16.45 0 0 0 -2.63-1.18zm-68.36-14.81a13.2 13.2 0 0 1 1.78-5.33 3.73 3.73 0 0 1 5.2-1.17c.44.3 1 .82 1.06 1.35a17.57 17.57 0 0 1 -.34 1.94 10.76 10.76 0 0 0 .35 3.87c.69 2.45 2.51 4 4.06 5.85a7.71 7.71 0 0 1 1.87 6.08 4.26 4.26 0 0 1 -3.26 3 24.44 24.44 0 0 1 -6.21.75 4.16 4.16 0 0 1 -4.5-3.1c-1.44-4.09-.7-9.09-.01-13.24zm19.72 46.57c-.6.66-2.35.51-3.14.52a41.75 41.75 0 0 1 -4.47-.17c-2.8-.24-5.65-.66-7.8-2.58a11.37 11.37 0 0 1 -3.5-7.72c-.09-1.32 0-2.64 0-4 0-.4-.17-.79-.2-1.18a2.93 2.93 0 0 1 .7-1.65c1.36-1.9 3.76-2.72 5.74-3.8s4.05-2.36 6.29-2.42c2.41-.06 3.69 1.89 3.42 4.14s-1.43 4.37-.24 6.63c.67 1.25 1.67 2.29 2.28 3.58a14.91 14.91 0 0 1 .87 2.62c.33 1.51 1.27 4.68.05 6.03zm23.25-39.14c-.5.07-1.41-1-1.5-1.48a1.48 1.48 0 0 0 .42 0c0-.14-.06-.28-.1-.42a2.2 2.2 0 0 1 1.61 1.19c-.49-.08-.27.43-.43.71zm-.88-6.66c0-.19-.26-.44-.14-.65s.73.09 1 .27a2.33 2.33 0 0 1 1.22 1.76c-.65-.09-1.86-.65-2.08-1.38zm2.22 11.61c0-.2-.27-.45-.15-.65.21-.36.73.08 1 .26a2.34 2.34 0 0 1 1.22 1.72c-.6-.05-1.86-.56-2.07-1.33zm7.52 5.9a1.35 1.35 0 0 1 -.34-.11c0 .15 0 .3.05.44-.65 0-1.14-1.26-1.49-1.21.07-1.03 1.95.09 1.82.88zm2.71-3.62c-.5.06-1.41-1-1.5-1.48h.41a3 3 0 0 0 -.09-.43 2.23 2.23 0 0 1 1.6 1.19c-.44-.08-.22.46-.38.72zm2.56 2.15c0-.19-.26-.44-.14-.65s.73.09 1 .27a2.32 2.32 0 0 1 1.26 1.72c-.65 0-1.91-.61-2.08-1.34zm5.21-1.74a1.45 1.45 0 0 1 -.35-.07c0 .15.07.29.1.43-.64 0-1.27-1.12-1.62-1-.13-1.01 1.87-.17 1.87.64z" fill="none"/><path d="m17.59 41.51c.19-2 1.49-4.29.55-6.29-1-2.22-3.65-2-5.57-1.27a59.5 59.5 0 0 0 -5.93 2.95 11.42 11.42 0 0 0 -3.16 2.1 5.16 5.16 0 0 0 -1 1.36 1.72 1.72 0 0 0 -.11 1.46 24.3 24.3 0 0 1 .06 3.72 14.3 14.3 0 0 0 .66 4.11 9.42 9.42 0 0 0 5.46 6.12c2.66 1.07 5.84 1.14 8.68 1.17a11.14 11.14 0 0 0 3.64-.26c.76-.27.91-1 1-1.75a15.85 15.85 0 0 0 -1.17-6.51c-.88-2.42-3.37-4.16-3.11-6.91z" fill="#e2eff6"/><path d="m45.88 7.41c.71 2.65.91 5.53 2.35 7.93a3.9 3.9 0 0 0 1.45 1.56 5.35 5.35 0 0 1 1.32 1.29c.88 1 2.65 1.52 3.91 1.91 3 .91 6 1.43 8.94 2.37 3.15 1.01 6.15 2.26 9.15 3.53v-9.57c0-4.78-.67-10.33-4.26-13.87-2.48-2.44-5.55-2.56-8.74-2.56h-20.59c2.79 1.47 5.59 4.27 6.47 7.41zm13.9 11.59c-.68-.05-2.4-.88-2.25-1.83.1-.71 1.06.1 1.36.34a2.13 2.13 0 0 1 .89 1.49zm-3.54-6.86c.11-.81 1.88.17 1.85.85a1.53 1.53 0 0 1 -.36-.07c0 .14.07.29.1.43-.64.05-1.27-1.12-1.62-1 0-.05 0-.19.03-.21zm-6.9 0c.12-.81 1.89.17 1.85.85a1.45 1.45 0 0 1 -.35-.07c0 .14.07.29.1.43-.64.05-1.27-1.12-1.62-1 0-.05-.01-.19.02-.21z" fill="#e2eff6"/><path d="m70.37 49.8c-.44-1.41-1.9-2.36-3.08-3.11-1.4-.88-2.83-1.71-4.21-2.63a12.05 12.05 0 0 1 -3.8-3.82 35.48 35.48 0 0 0 -3-4.86c-1.69-2-5.89-4.69-8-1.72-1.47 2.05-.69 5.3-.56 7.62.09 1.56.33 3.56-.51 4.95-.67 1.12-2.15 1.8-2.27 3.23s.77 2.58 1.46 3.59 1.65 2.21 2.41 3.36c.4.61.46.55 1.13.55h8.65a41 41 0 0 0 4.83-.07c3.16-.37 8.13-3.28 6.95-7.09z" fill="#fbdfe2"/><path d="m7.47 26.17c3.07-.15 8.19-.43 8.29-4.54a8.88 8.88 0 0 0 -2.7-6.11c-1.72-1.88-3.19-3.61-3.58-6.22a11.24 11.24 0 0 1 .08-3.88c.15-.75.23-1-.35-1.61a3.5 3.5 0 0 0 -1.52-.92c-2.08-.61-3.77.63-4.69 2.41a17.51 17.51 0 0 0 -1.43 5.23 48.24 48.24 0 0 0 -.57 5.76 18.53 18.53 0 0 0 .74 7 5 5 0 0 0 1.61 2.39c1.19.82 2.74.55 4.12.49z" fill="#fed991"/><path d="m39.67 51c-.74-2.47 1.34-7.35-2.44-8-2.67-.45-4.43 2.67-5.43 4.64-1.23 2.41-1.94 5.05-3.17 7.45-.27.53-.52.65 0 1.11a3.31 3.31 0 0 0 2.14.64c1.47 0 2.94.11 4.4.11h4.61a15.8 15.8 0 0 0 3.64-.13c-.56-2.32-3.07-3.55-3.75-5.82z" fill="#f9f6f9"/><g fill="#fed991"><path d="m43.79 9.78c-.92.89 1.42 2.13 2.07 2.18-.07-1.12-1.17-1.76-2.07-2.18z"/><path d="m56.21 12.32c.39-.08.95 1.08 1.62 1 0-.14-.06-.29-.1-.43a1.53 1.53 0 0 0 .36.07c.04-.79-1.96-1.63-1.88-.64z"/><path d="m46.05 21.38c-.93.89 1.42 2.13 2.06 2.18-.11-1.12-1.11-1.76-2.06-2.18z"/><path d="m49.14 16.62c-.49-.23 0 1 .12 1.14a2.89 2.89 0 0 0 1.88 1c-.07-1.08-1.14-1.76-2-2.14z"/><path d="m57.71 17.67c.17.72 1.43 1.28 2.07 1.33a2.34 2.34 0 0 0 -1.22-1.72c-.22-.15-.73-.53-.92-.36s.02.51.07.75z"/><path d="m58.85 25.82c-.93.89 1.42 2.13 2.06 2.18-.07-1.12-1.16-1.76-2.06-2.18z"/><path d="m49.32 12.32c.39-.08 1 1.08 1.62 1 0-.14-.06-.29-.1-.43a1.45 1.45 0 0 0 .35.07c.04-.79-1.95-1.63-1.87-.64z"/><path d="m51.8 27.11a.36.36 0 0 0 0 .14c.39 0 .81 1.18 1.49 1.21 0-.14 0-.29-.05-.44a1.35 1.35 0 0 0 .34.11c.1-.7-1.58-1.87-1.78-1.02z"/><path d="m62.12 24.08s0 .16 0 .17c.39-.07.95 1.08 1.62 1 0-.14-.06-.28-.1-.43a1.45 1.45 0 0 0 .35.07c.01-.65-1.75-1.63-1.87-.81z"/><path d="m43.48 15.38c0 .14.07.28.1.42a1.48 1.48 0 0 1 -.42 0 2.87 2.87 0 0 0 1 1.27c.91.64.25-.61.94-.5a2.2 2.2 0 0 0 -1.62-1.19z"/><path d="m55.09 22.6a3 3 0 0 1 .09.43h-.41a3 3 0 0 0 1 1.27c.92.64.26-.62.94-.51a2.23 2.23 0 0 0 -1.62-1.19z"/></g></svg>