<svg viewBox="0 0 73 57" xmlns="http://www.w3.org/2000/svg"><path d="m62.21 57h-51.42c-7.36 0-10.79-7.13-10.79-15.9v-25.2c0-8.77 3.43-15.9 10.79-15.9h51.42c7.36 0 10.79 7.13 10.79 15.9v25.2c0 8.77-3.43 15.9-10.79 15.9z" fill="#fff"/><path d="m62.24 56.62h-50.82a10 10 0 0 1 -9.52-6.29c-1.69-3.8-1.73-7.92-1.73-11.99v-13.09c0-3.05 0-6.1 0-9.15 0-5.37 1.3-12.38 6.76-14.88 2.17-.99 4.53-.83 6.84-.83h47c3.09 0 6 .43 8.25 2.8 3.43 3.58 4 9 4 13.67v23.14c0 4.65-.51 9.84-3.71 13.5a9.25 9.25 0 0 1 -7.05 3.13z" fill="#fff"/><path d="m.17 38.05c0 .16-.08.59 0 .73s.76.36 1 .46a5.5 5.5 0 0 1 -1-1.19z" fill="#d45b9c"/><path d="m.17 31v1.32a2.68 2.68 0 0 0 0-1.32z" fill="#d45b9c"/><path d="m2.29 35.36c1.54.48 3 1.24 4.69 1.11a4.5 4.5 0 0 1 -2.12-1.07 6.06 6.06 0 0 1 -.93-1.78 3 3 0 0 0 -1.31-1.39 3.41 3.41 0 0 0 -2.28-.44c-.34.21-.17 1.36-.17 1.82a2.69 2.69 0 0 0 0 .85c.23.47 1.66.75 2.12.9z" fill="#d45b9c"/><path d="m3.87 28.08a4.36 4.36 0 0 1 .51-3.58c-.45 0-1.11 1.26-1.31 1.54a19.35 19.35 0 0 0 -1.79 2.63c-.45.92-1 4.74 1.08 3.95a3.45 3.45 0 0 0 1.34-1.09c.22-.26.57-.43.78-.69s.22-.29 0-.7c-.48-.68-.31-1.34-.61-2.06z" fill="#d45b9c"/><path d="m8.06 29.42c-.53-.32-.89-.88-1.51-1.06a2.89 2.89 0 0 0 -2.07.45c-.84.42-2.54 1.51-1.4 2.65.44.44 1.37.26 1.93.22a11.52 11.52 0 0 0 2.11-.29 17.35 17.35 0 0 0 2-.63 5.48 5.48 0 0 0 1.88-.76 4.55 4.55 0 0 1 -2.94-.58z" fill="#d45b9c"/><path d="m6.16 27.06c-.7.52-1.72 1.55-1 2.46a2.58 2.58 0 0 0 2.4.47c1-.31 1-1.22 1-2.12a3.68 3.68 0 0 1 .73-2.69 17.77 17.77 0 0 0 -3.13 1.88z" fill="#d45b9c"/><path d="m9.6 26.91a1.6 1.6 0 0 0 -2.18 1c-.23.59-.22 1.69.53 1.92s1.88-.63 2.46-1.09a9.35 9.35 0 0 0 2-2.38 4.44 4.44 0 0 1 -2.81.55z" fill="#d45b9c"/><path d="m8.67 26.28c-.47 1 .81 1.78 1.68 1.51.55-.18.59-.68.69-1.18a2.9 2.9 0 0 1 1.12-1.91c-1.25.12-2.86.3-3.49 1.58z" fill="#d45b9c"/><path d="m11 25.47c-.56.35-.65 1.44.17 1.5s1.7-1.7 2-2.26c-.7.35-1.55.35-2.17.76z" fill="#d45b9c"/><path d="m.76 39.14c-.19-.24-.4-.45-.59-.7a1.82 1.82 0 0 0 0 .57s.69.45.67.25z" fill="#fbd977"/><path d="m.28 31.59a2.21 2.21 0 0 0 -.11-.72v1.67a2.53 2.53 0 0 0 .11-.95z" fill="#fbd977"/><path d="m6.64 36c-.31-.15-.6-.09-.9-.3a3.6 3.6 0 0 1 -.65-.7 13.5 13.5 0 0 1 -1-1.64c-.51-.87-1.68-2.3-2.84-1.79 1.37-.07 2.6 2.21 3.08 3.24a2 2 0 0 0 1.47 1.36 2.33 2.33 0 0 0 .81.19c.25-.05.39-.17.03-.36z" fill="#fbd977"/><path d="m4.44 28.69a10 10 0 0 1 -.55-1.76 3.43 3.43 0 0 1 .23-2.21 3.43 3.43 0 0 0 -.75 1.84c0 .73.35 1 .52 1.67.08.27.06.51.14.78a3.2 3.2 0 0 1 .21.64v1.33c.67.15.24-2.12.2-2.29z" fill="#fbd977"/><path d="m9.2 29.82c-1-.15-2.58-2-3.67-1.33.09.19.88.31 1 .39a9.27 9.27 0 0 1 1.33.92 2.76 2.76 0 0 0 2.94 0 8.27 8.27 0 0 1 -1.6.02z" fill="#fbd977"/><path d="m8.41 26.5a3.86 3.86 0 0 0 -.08 1.65c0 .09-.19.91 0 1 .34.2.33-1.67.33-1.75a2.77 2.77 0 0 1 .67-2.24 3 3 0 0 0 -.92 1.34z" fill="#fbd977"/><path d="m10.16 26.64c-.41 0-1-.34-1.45-.2.29.39 0 .26.48.43a3.82 3.82 0 0 0 1.41.25 2.5 2.5 0 0 0 1.8-1 3.08 3.08 0 0 1 -2.24.52z" fill="#fbd977"/><path d="m11.31 25.23a2.56 2.56 0 0 0 -.54.91c-.09.41 0 .63.3.25.1-.13.2-.59.29-.76a3 3 0 0 1 .8-1.16 2.58 2.58 0 0 0 -.85.76z" fill="#fbd977"/><path d="m11.89 25.32c-.46 0-.33.27 0 .3-.07 0 .44-.29.37-.25a1.88 1.88 0 0 0 .87-.65 3 3 0 0 1 -1.24.6z" fill="#fbd977"/><path d="m9.14 29.65c-.9-.29-2.28-1.82-3.31-1.26.25.22.83.22 1.14.4.49.28.87.66 1.39.9a3.43 3.43 0 0 0 2.72 0 4.38 4.38 0 0 1 -1.94-.04z" fill="#24a194"/><path d="m4.65 28.91a5.39 5.39 0 0 1 -.12-4.72 3.7 3.7 0 0 0 -.63 3.33 10.77 10.77 0 0 1 .58 1.91 9 9 0 0 1 -.08 1.47c.69-.14.44-1.6.25-1.99z" fill="#24a194"/><path d="m5.56 35.17c-.56-.65-.87-1.44-1.38-2.17a3.94 3.94 0 0 0 -.69-.78c-.26-.22-.59-.26-.84-.45 1.73 1.4 2.12 4.33 4.64 4.63-.47-.52-1.29-.67-1.73-1.23z" fill="#24a194"/><path d="m.31 32a2.93 2.93 0 0 0 -.14-1.78c0 .62.1 1.17.14 1.78z" fill="#24a194"/><path d="m.31 32c0 .21-.07.41-.11.62a1 1 0 0 0 .11-.62z" fill="#24a194"/><path d="m.41 39.22a2.88 2.88 0 0 0 1.08.32c-.31-.57-1-1-1.32-1.56a1.5 1.5 0 0 0 .47 1.19.64.64 0 0 1 -.23.05z" fill="#24a194"/><path d="m9 25.43a3.27 3.27 0 0 0 -.47 1.86v1.68c.77-1.23 0-2.91 1-4.1a1.06 1.06 0 0 0 -.53.56z" fill="#24a194"/><path d="m10.86 26.6c-.33 0-1.46-.54-1.78-.23-.1.1 1.35.4 1.48.4a2.76 2.76 0 0 0 1.94-.63 3 3 0 0 1 -1.64.46z" fill="#24a194"/><path d="m12.22 24.47c-.37.17-.66.73-.87 1.05a3.81 3.81 0 0 0 -.33.55c-.09.19-.06.5-.18.67.07-.1.29 0 .39-.18s.11-.43.17-.63a3.23 3.23 0 0 1 .86-1.38c-.11.01-.13-.01-.04-.08z" fill="#24a194"/><path d="m11.74 25.15-.06.11c.25.42 1.36-.47 1.51-.58-.46.2-.99.26-1.45.47z" fill="#24a194"/><path d="m68.7 6a14.39 14.39 0 0 0 -3.7-.7 8.07 8.07 0 0 1 2.82 2.41c.74.91 1.53 2.26 2.85 2.31a1.84 1.84 0 0 0 1.19-.47c.39-.32.3-.25.13-.82-.1-.34-.21-.67-.33-1s-.15-.5-.51-.73a5.2 5.2 0 0 0 -.85-.34c-.52-.23-1.05-.49-1.6-.66z" fill="#d45b9c"/><path d="m72.19 9a.39.39 0 0 0 -.19-.39 5.62 5.62 0 0 1 .15.55z" fill="#d45b9c"/><path d="m70.9 8.37c-1 .09-1.2.86-1.71 1.57-.24.33-.58.44-.8.77a2.7 2.7 0 0 0 -.27 1.66c.3 2.1 3.06 3.34 2.34 5.7 1.28-1.49 1.32-3.52 1.2-5.38a6.77 6.77 0 0 1 .16-2.94c.14-.34.5-.77.16-1.14a1.54 1.54 0 0 0 -1.08-.24z" fill="#d45b9c"/><path d="m68.54 10.21a15.48 15.48 0 0 0 -4.39-.69 9.8 9.8 0 0 0 -4.21.25 4.31 4.31 0 0 1 3 .9c.84.76 1.23 1.73 2.39 2.1.83.26 2.55.32 3.23-.36a3.22 3.22 0 0 0 .44-1.32c.16-.58.09-.69-.46-.88z" fill="#d45b9c"/><path d="m66.84 12.17c-.84-.31-1.73.73-2.07 1.4 0 0 .09 0 .06.1a10.25 10.25 0 0 0 -.69 1.12c-.21.66.13.48.58.94a6.84 6.84 0 0 1 .8 1.6 5 5 0 0 1 .61 3.9c.43-.12.71-1.47.81-1.77.33-.94.73-1.88 1-2.84.3-1.12.31-3.92-1.1-4.45z" fill="#d45b9c"/><path d="m64.47 13.74a14.78 14.78 0 0 0 -3.69 1.54c-.56.35-1.1.74-1.63 1.14a4.42 4.42 0 0 0 -1.33 1.09 4.79 4.79 0 0 1 3.1-.25c1.12.34 1.81 1 3 .29a5.19 5.19 0 0 0 2.08-2.11 1.26 1.26 0 0 0 -1.53-1.7z" fill="#d45b9c"/><path d="m62.45 16.15c-1.11.14-2.09.74-1.87 2s1 2.46.31 3.79a14.38 14.38 0 0 0 3-3.33c.87-1.38.24-2.61-1.44-2.46z" fill="#d45b9c"/><path d="m60.57 16.85c-1.73.78-2.73 3-3.19 4.75a6 6 0 0 1 1.83-1.16c.73-.26 1.63 0 2.23-.53.79-.71.72-3.77-.87-3.06z" fill="#d45b9c"/><path d="m58.66 20.26c0 1.11.26 2-.51 3 1-.38 4-1.71 3-3.33-.5-.82-2.44-.77-2.49.33z" fill="#d45b9c"/><path d="m58.12 20.85c-.31.26-.34.74-.45 1.1a14.16 14.16 0 0 0 -.53 1.55c.62-.58 2-.94 2.21-1.86s-.59-1.34-1.23-.79z" fill="#d45b9c"/><path d="m70.76 9.88a2.89 2.89 0 0 1 -1.62-1.47c-.23-.38-.44-.77-.68-1.14s-.75-.63-1-1 .09-.19 0-.39.21-.09-.21-.36c-.1-.06-2-.55-2-.37s.66.44.83.57a5.32 5.32 0 0 1 .9.81 12.2 12.2 0 0 1 1.47 2 3.69 3.69 0 0 0 1.21 1.48c.63.41 1.55.45 1.81-.35a.87.87 0 0 1 -.71.22z" fill="#fbd977"/><path d="m70.63 16.62c-.27-.4-.27-1.07-.51-1.53a10.24 10.24 0 0 0 -.75-1c-.47-.71-1.41-1.74-1.24-2.66-.44 1.14.44 2.14 1.08 3a6.5 6.5 0 0 1 1.41 3.73 5.07 5.07 0 0 0 .38-1.46.23.23 0 0 1 -.37-.08z" fill="#fbd977"/><path d="m66.09 13.05a8.33 8.33 0 0 1 -3.09-2.52 2 2 0 0 0 -1.68-.81c-.19 0-1.33-.06-1.2.25s.61.1.8.11a2 2 0 0 1 1 .4 8.34 8.34 0 0 1 1.59 1.38c.77.81 2.5 2.19 3.64 1.26a1.64 1.64 0 0 1 -1.06-.07z" fill="#fbd977"/><path d="m66.16 17.94c-.46-.54-.86-1.06-1.25-1.62-.07-.11-.52-1.74-.56-1.73-.81 0 .58 2.53.76 2.74a4.48 4.48 0 0 1 1.22 3.59 3.06 3.06 0 0 0 -.17-2.98z" fill="#fbd977"/><path d="m63.27 17.45a18 18 0 0 1 -2.81-.77 3.18 3.18 0 0 0 -2.49 1 4.94 4.94 0 0 1 3.34-.27c.71.21 1.82.77 2.47.09-.11-.13-.38-.05-.51-.05z" fill="#fbd977"/><path d="m61 18.79c0-.14 0-1.13-.26-1.2s.13 1.74.13 1.72a3.07 3.07 0 0 1 0 2.63 3.18 3.18 0 0 0 .5-1.61 2.37 2.37 0 0 0 0-.84c-.04-.26-.3-.49-.37-.7z" fill="#fbd977"/><path d="m60.67 20.14c-.37.17-.73 0-1.11 0s-.5.19-.81.36-.38.08-.65.33a3 3 0 0 0 -.64.95 2.88 2.88 0 0 1 1.69-1c.53-.15 1.57 0 2-.33-.21-.12-.15-.45-.48-.31z" fill="#fbd977"/><path d="m58.75 21.3a3.14 3.14 0 0 1 -.53 2.17 3.25 3.25 0 0 0 .86-1.7c0-.14.14-.62 0-.75s-.39-.02-.33.28z" fill="#fbd977"/><path d="m58.17 22.2c-.07 0-.31.34-.37.4-.29.3-.57.47-.69.91.36-.4.83-.65 1.2-1 .16-.15.37-.42-.14-.31z" fill="#fbd977"/><g fill="#24a194"><path d="m62.88 17.69c-1 0-1.79-.63-2.77-.67a3.58 3.58 0 0 0 -2.33.85 4.09 4.09 0 0 1 3.16-.29c.67.2 1.94.7 2.56.09-.17-.08-.43.02-.62.02z"/><path d="m66.35 19.64a11.09 11.09 0 0 0 -1.45-2.77 5.43 5.43 0 0 1 -.69-2.16c-.4.21-.19 1.11-.08 1.4.23.63.79 1 1.16 1.54a5.94 5.94 0 0 1 .78 3.93 2.86 2.86 0 0 0 .28-1.94z"/><path d="m62.81 11.07a3.79 3.79 0 0 0 -3.18-1.19c.54.37 1.26.34 1.84.62a5.47 5.47 0 0 1 1.53 1.21 6.85 6.85 0 0 0 1.26 1.08 6.12 6.12 0 0 0 1.5.49 10.67 10.67 0 0 1 -2.95-2.21z"/><path d="m70.44 16.49c-.61-1.48-1.84-2.57-2.38-4.07a5.85 5.85 0 0 0 1.4 2.73 9.48 9.48 0 0 1 1 3.18 2.77 2.77 0 0 0 -.02-1.84z"/><path d="m68.06 12.42c0-.22 0-.44-.08-.66a.94.94 0 0 0 .08.66z"/><path d="m69.27 9.45c-1.18-1.45-2.07-3.12-3.67-4.24 0 0 .2-.11.22-.12a3.46 3.46 0 0 0 -1.2 0 11.22 11.22 0 0 0 1.38.91 7.26 7.26 0 0 1 1.41 1.47c.38.5.7 1 1.07 1.53 0 0 1.17 1.48 1.28 1a1.59 1.59 0 0 1 -.49-.55z"/><path d="m60.64 18.42c0-.11.07-.5-.06-.57-.43 1.49.88 3 .25 4.45a3 3 0 0 0 .45-1.86c-.03-.73-.53-1.32-.64-2.02z"/><path d="m60.62 20.55a3.63 3.63 0 0 0 -3.25 1.32 2.91 2.91 0 0 1 2.07-1c.26 0 1.17.07 1.34-.23.01-.08-.05-.11-.16-.09z"/><path d="m58.89 20.78c0 .08-.3.18-.35.29s0 .49 0 .69a3.37 3.37 0 0 1 -.46 1.66c.11-.05.13 0 .06.07.34-.28.45-.93.58-1.32a4.55 4.55 0 0 0 .17-.66c.04-.22-.07-.51 0-.73z"/><path d="m58.3 22.49c-.47 0-1 .76-1.2 1.07.1-.09 1.41-1 1.37-1z"/><path d="m68.42 2.67-1.13.5a8 8 0 0 1 2.48 1 9.82 9.82 0 0 0 -1.35-1.5z"/></g><g opacity=".87"><path d="m3.87 50.82a10.44 10.44 0 0 1 -2.12-2.82c-.39-1 .17-2 1-.86.63.86.84 2.25 1.73 2.89s1.88.13 2.62-.3a8.43 8.43 0 0 1 -2.75-2.73c-.12-.23-.42-1 .09-1s1 1 1.24 1.27c.78.9 1.45 2.07 2.76 2a3.77 3.77 0 0 0 2.65-1.14c-1.57-.28-3.06-.69-4-2.11-.25-.38-.86-1.71 0-1.7.6 0 1.1.92 1.44 1.3a4.72 4.72 0 0 0 1.89 1.38 1.26 1.26 0 0 0 1.77-.48c.87-1.09 1-3 2.49-3.5a8 8 0 0 1 -1.43-.65c-.42-.32-.73-.75-1.18-1-1.05-.66-2 .14-2.77.84-.26.23-.73.75-1.14.61-.65-.22-.12-1 .16-1.27a4.83 4.83 0 0 1 2.93-1.07c-.72-.58-2.26-2-3.26-1.64s-1.53 1.9-2 2.74c-.25.43-.71 1.09-1.12.37-.28-.5.1-1.15.38-1.55a4.74 4.74 0 0 1 2.61-2c-1-.3-2.88-1-3.71-.12a6.69 6.69 0 0 0 -1.29 2.82c-.24.86-1.15 1.51-.84.14a15.14 15.14 0 0 1 1.55-3.46 25.92 25.92 0 0 0 -2.77.81c-.66.26-.56.22-.63.77a19.46 19.46 0 0 0 0 3.24 25.36 25.36 0 0 0 .83 5.12 19.84 19.84 0 0 0 .75 2.28c.21.5.23.72.73.89a3 3 0 0 0 1.39-.07z" fill="#a0e2ba"/><path d="m7.29 43.73 4.86-.41a34 34 0 0 0 -6.22.13c-1 .12-1.91.26-2.86.41l-1.45.25c-.44.08-1.28 0-1.21.54a49.66 49.66 0 0 1 6.88-.92z" fill="#6fa983"/></g><g fill="#c14f96" opacity=".5"><path d="m56.67 43.79a68.46 68.46 0 0 1 5.5 5.93c.84 1 1.65 2.05 2.43 3.11.38.53.76 1.06 1.14 1.61a5.93 5.93 0 0 0 .6.88c.3.29.21.33.64.08a56.69 56.69 0 0 0 -10.31-11.61z"/><path d="m58.15 44.8a21 21 0 0 0 -5.11-4 8.36 8.36 0 0 1 1.83 1.83 24.12 24.12 0 0 0 2.13 1.9c.29.25 1 1 1.38 1.11.7.13-.03-.64-.23-.84z"/><path d="m58.37 45.87a38.23 38.23 0 0 0 -5.5-1.95 13.34 13.34 0 0 0 5.07 2.68c.2 0 1.44.39 1.58.08s-.89-.68-1.15-.81z"/><path d="m57.59 47a15.35 15.35 0 0 0 -3.54-.78 3.57 3.57 0 0 1 1.29.65 11.41 11.41 0 0 0 1.66.63 9.13 9.13 0 0 0 3.48.74c-.34-.86-2.13-1.03-2.89-1.24z"/><path d="m55.63 48a10.51 10.51 0 0 1 -2.17-.13 30.66 30.66 0 0 0 8.54 1.62 20.43 20.43 0 0 0 -6.37-1.49z"/><path d="m58.89 40.14c0 1.14.07 2.27.12 3.41 0 .62-.13 2.62.7 2.82a5.11 5.11 0 0 0 -.06-2.74 24.69 24.69 0 0 0 -.76-3.49z"/><path d="m60.45 45.23a3.49 3.49 0 0 0 .43 2.54 13.38 13.38 0 0 0 .45-3.34 12.15 12.15 0 0 0 -.13-3.43 22 22 0 0 0 -.75 4.23z"/><path d="m62.86 41.87c-.27 1.35-.55 2.7-.82 4.05 0 .27-.73 2.73 0 2.53.5-.15.66-2.55.71-2.91.08-.61.14-1.23.16-1.85a11.06 11.06 0 0 1 -.05-1.82z"/><path d="m62.81 50c.28.38.48-.72.52-.85.22-.68.44-1.35.63-2 .4-1.42.74-2.86 1-4.32-.42 1.28-1 2.52-1.44 3.78-.24.59-1.2 2.67-.71 3.39z"/><path d="m63.8 50.93c.37.4.42-.21.48-.44a18.2 18.2 0 0 1 .6-1.9 29.75 29.75 0 0 0 1.29-4.54c-.56 1.27-1.11 2.54-1.62 3.83-.24.6-1.33 2.43-.75 3.05z"/><path d="m64.8 52.51c.53 0 1.27-2.07 1.46-2.47a12.83 12.83 0 0 0 1.4-4.71c-.5 1.29-1.06 2.56-1.67 3.8-.45.92-1.53 2.3-1.19 3.38z"/><path d="m55 50.36a8 8 0 0 1 2.12.39c.85.16 1.71.31 2.57.44s1.5.17 2.26.26c.49.06 1.22.26 1.68 0-.93-.76-2.45-.75-3.58-.91a17.82 17.82 0 0 0 -5.05-.18z"/><path d="m57.48 52.29a19.91 19.91 0 0 0 -2 .34c1.86.27 3.75.42 5.63.57.58 0 3.27.47 3.66-.35a16.41 16.41 0 0 0 -7.29-.56z"/><path d="m66.35 54.07a6.58 6.58 0 0 0 1.31-2.53 13.11 13.11 0 0 0 .86-3.42 45.3 45.3 0 0 1 -1.92 4.27c-.09.17-.76 2.13-.25 1.68z"/><path d="m64.11 54.27a15.27 15.27 0 0 0 -5.46.72c1.79 0 3.6 0 5.38-.07.2 0 1.42-.1 1.2-.55-.13-.27-.89-.09-1.12-.1z"/><path d="m62.27 56.62a10 10 0 0 0 2.67-.36 17.14 17.14 0 0 0 -2.67.36z"/><path d="m68.06 54.65a4.09 4.09 0 0 0 1.61-2 15.39 15.39 0 0 0 .46-2.7c-.55 1.64-1.45 3.11-2.07 4.7z"/></g><g fill="#dfeddc" opacity=".5"><path d="m54.23 32.49a98.68 98.68 0 0 1 18.77 3.15c0-.61.11-.66-.53-.82-.89-.22-1.77-.43-2.66-.62-1.64-.35-3.3-.64-5-.89a83.8 83.8 0 0 0 -10.58-.82z"/><path d="m56.73 32.25a30.39 30.39 0 0 0 -9.18.22 12 12 0 0 1 3.67.33 33.51 33.51 0 0 0 4.25.21c.38 0 2.23.25 2.48-.11.41-.61-.95-.61-1.22-.65z"/><path d="m58 33.21a52.31 52.31 0 0 0 -7.72 2.79 18.59 18.59 0 0 0 8-1.7c.3-.15 1.95-.89 1.64-1.39s-1.57.19-1.92.3z"/><path d="m58.13 35.07a22.28 22.28 0 0 0 -4.5 2.32 4.82 4.82 0 0 1 1.85-.39 14 14 0 0 0 2.6-.82 12.59 12.59 0 0 0 4.33-2.28c-1.16-.65-3.22.75-4.28 1.17z"/><path d="m57 37.93a13.3 13.3 0 0 1 -2.44 1.81 42.42 42.42 0 0 0 10.6-5.87 28.46 28.46 0 0 0 -8.16 4.06z"/><path d="m56.88 29.33a27.13 27.13 0 0 0 -3.66-2.75c1.11 1.21 2.21 2.42 3.34 3.62.57.59 2.24 2.86 3.28 2.35-.37-1.37-1.96-2.33-2.96-3.22z"/><path d="m56.45 25.4a30.21 30.21 0 0 0 2.82 4.82c.73 1.06 1.73 2.57 3.12 2.78a11.22 11.22 0 0 0 -1.27-2c-.45-.7-.91-1.39-1.41-2.07a17.52 17.52 0 0 0 -3.26-3.53z"/><path d="m61.66 28.08a20.77 20.77 0 0 0 -1.34-1.75 9.7 9.7 0 0 1 -1.32-1.44q1.16 2 2.29 4a20.68 20.68 0 0 0 2.12 3.65c.24.27.63.59.78 0 .09-.33-.37-.88-.51-1.14-.62-1.09-1.26-2.23-2.02-3.32z"/><path d="m65.14 29.74c-.92-2-1.93-3.92-3-5.8 1.1 2.63 1.77 5.42 3.1 8 .11.21 1.46 2.49 1.51 1.47a6 6 0 0 0 -.62-1.45c-.34-.78-.66-1.5-.99-2.22z"/><path d="m66.71 28.43a38.65 38.65 0 0 0 -2.11-4.16c.53 1.73 1.08 3.46 1.66 5.17.41 1.19.71 2.87 1.5 3.89.17.22.8.79 1.06.38s-.24-.71-.37-1a41.62 41.62 0 0 1 -1.74-4.28z"/><path d="m69.84 29.31a16.71 16.71 0 0 0 -2.46-5q1.05 3 1.83 6c.34 1.32.47 3.47 1.75 4.27.4-.36-.14-1.68-.25-2.09-.3-1.04-.53-2.12-.87-3.18z"/><path d="m58.47 41.07a10.58 10.58 0 0 1 2.63-1.47c1.11-.62 2.21-1.25 3.29-1.92.82-.51 1.62-1.07 2.43-1.59.59-.38 1.61-.86 1.85-1.58-1.87 0-3.81 1.68-5.32 2.64a22.53 22.53 0 0 0 -4.88 3.92z"/><path d="m66.78 37.59a26.46 26.46 0 0 0 -5.72 5.51c2.2-1.35 4.32-2.83 6.43-4.33a22.68 22.68 0 0 0 2.52-2c.38-.36 1.35-1.15 1.17-1.77a17.3 17.3 0 0 0 -4.4 2.59z"/><path d="m70.86 26.55c1 2.31 1.29 4.79 2.14 7.12 0-.87 0-1.74 0-2.6-.1-1.54-1.29-3.27-2.14-4.52z"/><path d="m68.29 40.49a14.44 14.44 0 0 0 -1.61 2.28l4.61-4c.45-.38 1.51-1 1.71-1.61a3.65 3.65 0 0 0 0-1c-.7.18-1.58 1.25-2.1 1.7a23.56 23.56 0 0 0 -2.61 2.63z"/><path d="m73 40.14a24.09 24.09 0 0 0 -2.4 3.18c.41-.32.81-.65 1.21-1s1-.66 1.18-1a4 4 0 0 0 .01-1.18z"/></g><g fill="#dfeddc" opacity=".5"><path d="m7.06 55.84c.56.24.6.12 1.06-.26s.72-.6 1.09-.89c.65-.52 1.3-1 2-1.51q2.13-1.59 4.38-3a67.92 67.92 0 0 1 9.41-4.93 59.37 59.37 0 0 0 -17.94 10.59z"/><path d="m23.25 45.67c-.2.1-1.09.43-.62.71.27.16 1.46-.44 1.7-.52a24.31 24.31 0 0 0 2.67-1.11 8.81 8.81 0 0 1 2.32-1 20.85 20.85 0 0 0 -6.07 1.92z"/><path d="m22.67 46.58c-.24 0-1.22-.09-1.31.21s.92.52 1.18.56a12.86 12.86 0 0 0 5.86-.68 36.53 36.53 0 0 0 -5.73-.09z"/><path d="m19.9 48a8.93 8.93 0 0 0 3.45.51 11.5 11.5 0 0 0 1.76 0 3.79 3.79 0 0 1 1.41-.16 20.89 20.89 0 0 0 -4-.53c-.68-.06-2.1-.36-2.62.18z"/><path d="m22.35 49a18 18 0 0 0 -4.26-.35 30.11 30.11 0 0 0 8.38 1.43 7.61 7.61 0 0 1 -1.9-.59 18.7 18.7 0 0 0 -2.22-.49z"/><path d="m21.27 46.58c.79.09 1.34-1.7 1.55-2.2.48-1.08.93-2.17 1.39-3.26a23.66 23.66 0 0 0 -1.92 3 4.94 4.94 0 0 0 -1.02 2.46z"/><path d="m19.7 47.46c.87-.46 1.15-1.67 1.39-2.53a21.82 21.82 0 0 0 .71-3.84 12.18 12.18 0 0 0 -1.32 3.11 13.35 13.35 0 0 0 -.78 3.26z"/><path d="m19 44.05a23 23 0 0 0 -.57 2.84c-.06.42 0 1.33.45.58a9.08 9.08 0 0 0 .49-2.62c.2-1.17.39-2.33.59-3.5-.15.91-.7 1.8-.96 2.7z"/><path d="m17.12 45.94a9.55 9.55 0 0 0 -.18 2.6c.2.83.52-.43.58-.75a51.92 51.92 0 0 0 .2-6.36c-.27 1.49-.47 3-.6 4.51z"/><path d="m15.77 45.44c0 1.1 0 2.19-.12 3.28 0 .14-.19.58 0 .69s.52-.31.59-.47a8.16 8.16 0 0 0 .07-3c0-1.25-.07-2.51-.14-3.76a27 27 0 0 0 -.4 3.26z"/><path d="m14.34 42.89a12.84 12.84 0 0 0 -.34 4.82c0 .41 0 2.57.46 2.77.65-.82.22-2.3.13-3.23-.16-1.45-.23-2.9-.25-4.36z"/><path d="m15.93 49.9c.56.71 2.73.91 3.52 1.09s1.66.34 2.5.49a8.06 8.06 0 0 1 2.26.4 16.5 16.5 0 0 0 -4.38-1.52c-1.16-.27-2.72-.87-3.9-.46z"/><path d="m17.91 51.49a12.46 12.46 0 0 0 -3.51-.67c.06.9 2.69 1.42 3.24 1.58 1.77.52 3.55 1 5.36 1.41a19.05 19.05 0 0 0 -5.09-2.32z"/><path d="m12.58 45.16a14.07 14.07 0 0 0 -.39 4.14c0 .29 0 2.35.49 2.21s.16-1.87.14-2a39.09 39.09 0 0 1 -.24-4.35z"/><path d="m14.46 52.34c-.17-.06-.94-.53-1.09-.27-.25.43.83.85 1 .94 1.57.68 3.2 1.25 4.8 1.87a14.92 14.92 0 0 0 -4.71-2.54z"/><path d="m11.3 53.4c-1.3-.09 1.11 1.05 1.32 1.14 1.36.6 2.74 1.13 4.14 1.6-1.47-1.14-3.53-2.61-5.46-2.74z"/><path d="m10.45 46.31a15.24 15.24 0 0 0 -.61 3.85c0 .45-.15 3.15.43 3.24.73.13.16-6.4.18-7.09z"/><path d="m14.33 57c-.41-.14-.68-.48-1.14-.38z"/><path d="m10.9 54.8c-.24-.12-1.28-.68-1.46-.3s.84 1 1.05 1.07a6.35 6.35 0 0 0 3.13 1 23.44 23.44 0 0 0 -2.72-1.77z"/><path d="m8.63 48.45a4.05 4.05 0 0 0 -.28 1.14v-.76a8.59 8.59 0 0 0 -.52 3c0 .46 0 2.56.55 2.68s.12-2.23.1-2.61a12.16 12.16 0 0 1 .15-3.45z"/></g><g fill="#dfeddc" opacity=".5"><path d="m48.23 56.62h.5a55.85 55.85 0 0 0 -7.29-16.71 66 66 0 0 1 6.79 16.71z"/><path d="m41 38.69a21.43 21.43 0 0 0 -2.16-2.6 9.87 9.87 0 0 1 1.35 2.47 31.42 31.42 0 0 0 1.81 2.91c.25.37 1 1.21.73.2a11.75 11.75 0 0 0 -1.73-2.98z"/><path d="m42.45 42.32a35.07 35.07 0 0 0 -4.64-3.32 13.1 13.1 0 0 0 3.89 3.78c.23.13 1.42.88 1.64.52s-.68-.8-.89-.98z"/><path d="m41.42 43.14a15.42 15.42 0 0 0 -3.13-1.67c.4.15.67.58 1 .87a10.38 10.38 0 0 0 1.32 1.06 9 9 0 0 0 3.21 1.71c-.12-.88-1.82-1.55-2.4-1.97z"/><path d="m39.28 43.6a9.82 9.82 0 0 1 -2-.69 30 30 0 0 0 7.58 3.78 19.55 19.55 0 0 0 -5.58-3.09z"/><path d="m43.31 42.46c0 .23 0 .55.27.68a4.85 4.85 0 0 0 .7-2.52 23.65 23.65 0 0 0 .28-3.57c-.24.9-.48 1.8-.71 2.7a10.19 10.19 0 0 0 -.54 2.71z"/><path d="m44.29 44.77a13.12 13.12 0 0 0 1.36-3 12.17 12.17 0 0 0 .86-3.3 21.85 21.85 0 0 0 -1.72 3.33c-.35.83-.94 2.05-.5 2.97z"/><path d="m45.14 45.71c.53 0 1.32-2.19 1.49-2.56.25-.55.48-1.12.68-1.7a10.67 10.67 0 0 1 .5-1.72l-1.91 3.61c-.11.22-1.45 2.39-.76 2.37z"/><path d="m45.49 47.34c.15.43.66-.55.73-.66.4-.58.79-1.16 1.17-1.76.78-1.24 1.51-2.51 2.17-3.81-.76 1.1-1.63 2.11-2.43 3.19-.42.57-1.91 2.27-1.64 3.04z"/><path d="m46.15 48.53c.25.5.48-.13.6-.34a14.61 14.61 0 0 1 1.19-1.72 29.93 29.93 0 0 0 2.39-3.8c-.85 1-1.69 2-2.5 3-.41.55-2.07 2.09-1.68 2.86z"/><path d="m46.65 50.29c.52.12 1.9-1.76 2.18-2.07a12.61 12.61 0 0 0 2.54-3.95c-.84 1.08-1.72 2.13-2.65 3.14-.72.74-2.09 1.76-2.07 2.88z"/><path d="m43.4 47.45a19.62 19.62 0 0 0 -5.4-1.79 7.06 7.06 0 0 1 1.89.93c.76.37 1.52.74 2.3 1.09s1.37.56 2.06.84c.45.19 1.08.57 1.59.43a5.4 5.4 0 0 0 -2.44-1.5z"/><path d="m39.8 48.14a19.68 19.68 0 0 0 -2-.22c1.69.75 3.42 1.39 5.15 2 .55.2 3 1.32 3.56.64a15.91 15.91 0 0 0 -6.71-2.42z"/><path d="m47.67 52.16a6.56 6.56 0 0 0 1.95-2 13.16 13.16 0 0 0 1.77-3 44 44 0 0 1 -3 3.52c-.14.11-1.33 1.77-.72 1.48z"/><path d="m45.49 51.76a15.16 15.16 0 0 0 -5.34-.76c1.69.45 3.38 1 5.09 1.36.19 0 1.38.28 1.29-.2-.05-.29-.81-.33-1.04-.4z"/><path d="m47.38 54.47c-1.65-1-4.16-1.08-6-1 1.41.45 2.84.83 4.28 1.15.14.02 2.83.54 1.72-.15z"/><path d="m48.64 54.89a14.1 14.1 0 0 0 3.75-5.59c-.84 1.19-1.9 2.21-2.84 3.33a8.93 8.93 0 0 0 -1.22 1.7c-.18.37-.33 1.11.31.56z"/><path d="m47.83 56.1c-1.65-.68-3.46 0-5.08-.53a16.34 16.34 0 0 0 3.84 1c.35.07 2.41 0 1.24-.47z"/><path d="m52.51 52.53-.44.62a3.73 3.73 0 0 0 .47-1.08c-.82 1.76-2.3 3.07-3.5 4.55a2.5 2.5 0 0 0 .67 0c.41-.15.86-.78 1.14-1.11a9 9 0 0 0 1.66-2.98z"/></g><g fill="#89c693" opacity=".5"><path d="m21.14 18.19a73.69 73.69 0 0 1 -13.31-13.1c-.43-.55-.83-1.09-1.26-1.66l-.72-1c-.14-.21-.61-.66-.74-.11-.11.3 1.12 1.57 1.33 1.84.47.62.95 1.23 1.44 1.84a60.74 60.74 0 0 0 5.76 6.24 62.19 62.19 0 0 0 7.5 5.95z"/><path d="m20.12 17c-.22-.13-1-.88-1.28-.58s.86 1.05 1 1.19a22.62 22.62 0 0 0 5.54 3.39 10 10 0 0 1 -2.31-1.84 27.68 27.68 0 0 0 -2.95-2.16z"/><path d="m18.76 15.31c-.24 0-1.08-.14-1 .3s1.21.54 1.51.63a44.49 44.49 0 0 0 5.92 1.35 13.2 13.2 0 0 0 -6.43-2.28z"/><path d="m20.15 14.24a9.59 9.59 0 0 0 -3.61-.32c.39.72 1.95.79 2.64.91a23.19 23.19 0 0 0 4.47.5 4.17 4.17 0 0 1 -1.46-.54 11.81 11.81 0 0 0 -2.04-.55z"/><path d="m14.8 12.76a19.47 19.47 0 0 0 4.8.76 17.65 17.65 0 0 0 2.41 0 7.54 7.54 0 0 1 2.06-.12 33.19 33.19 0 0 0 -9.27-.64z"/><path d="m18.16 16.4c-.11-.24-.26-.55-.56-.58-.31.91.17 2.07.41 2.95a24.21 24.21 0 0 0 1.22 3.6c-.16-1.06-.31-2.11-.47-3.16a10.29 10.29 0 0 0 -.6-2.81z"/><path d="m16.18 14.47a14.44 14.44 0 0 0 -.07 3.66 13.54 13.54 0 0 0 .55 3.64 22.86 22.86 0 0 0 .34-4.45c-.08-.93-.07-2.18-.82-2.85z"/><path d="m14.92 13.88c-.5.22-.38 2.54-.39 2.93a18.94 18.94 0 0 0 0 2.26 11.76 11.76 0 0 1 .26 1.93c.13-1.52.27-3 .39-4.56.01-.2.44-2.87-.26-2.56z"/><path d="m13.5 12.93a50.1 50.1 0 0 0 -1.06 7.41c.37-1.82 1-3.58 1.33-5.41a5.85 5.85 0 0 0 .21-2.2c-.2-.79-.38-.26-.48.2z"/><path d="m12.22 12.21c-.16 1.14-.53 2.24-.76 3.37a27.87 27.87 0 0 0 -.46 3.51c.59-1.88 1.14-3.79 1.64-5.7.11-.41.59-1.64 0-1.94s-.38.39-.42.76z"/><path d="m10.55 11.71a15.26 15.26 0 0 0 -1.3 6.2c.4-1.5.87-3 1.39-4.45.36-1 1.27-2.5.79-3.58-.5.12-.73 1.45-.88 1.83z"/><path d="m21.05 10.89c-1.66-.11-3.31-.24-5-.24-.81 0-2.56-.29-3.24.24 1.13.74 2.91.51 4.19.54a18.42 18.42 0 0 0 5.16-.43 3.47 3.47 0 0 1 -1.11-.11z"/><path d="m14.71 8.71c-.55 0-3 0-3.24.8 3.11.79 7 .12 9.93-.91-2.23-.07-4.46.02-6.69.11z"/><path d="m9.59 8.42a7 7 0 0 0 -1 2.67 14.7 14.7 0 0 0 -.59 3.91c.36-1.71 1.06-3.32 1.58-5 .09-.18.42-2.09.01-1.58z"/><path d="m10.74 7.78c-.21.45 2.19 0 2.34 0a14.62 14.62 0 0 0 4.6-1.3l-4.24.52c-.63.1-2.35.05-2.7.78z"/><path d="m8.89 6c2.09.36 4.66-.64 6.54-1.47-1.58.12-3.15.32-4.71.59a8.55 8.55 0 0 0 -1.81.37c-.45.15-.7.36-.02.51z"/><path d="m7.44 6.07a15.18 15.18 0 0 0 -1.38 7.19c.34-1.55 1-3 1.43-4.54a9.29 9.29 0 0 0 .51-2.22c0-.45-.14-1.26-.56-.43z"/><path d="m7.33 4.13c-.55.71 2.16.08 2.43 0a15.52 15.52 0 0 1 3.33-1.13c-1.19.08-2.38.16-3.56.34a3.32 3.32 0 0 0 -2.2.79z"/><path d="m6.05 4c-.68.37-1.05 2.09-1.23 2.76a9.36 9.36 0 0 0 -.26 3.29l.17-.81a3.93 3.93 0 0 0 0 1.28 13 13 0 0 1 .79-3.64l.58-1.71c.01-.08.55-1.43-.05-1.17z"/></g><g fill="#dfeddc"><path d="m.17 17.9a1.61 1.61 0 0 0 0 .31 60.12 60.12 0 0 1 6.55-.83 53.21 53.21 0 0 0 -6.55.52z"/><path d="m5.18 17.24c-.23 0-1 0-.71.41.17.21 1.2.06 1.43.05a20.41 20.41 0 0 0 2.59-.12 8 8 0 0 1 2.34-.21 18.46 18.46 0 0 0 -5.65-.13z"/><path d="m3.28 17.62c-.4.36 1.79 1.26 2 1.33a13.51 13.51 0 0 0 3.89.61 32 32 0 0 0 -3.52-1.37c-.33-.1-2.04-.87-2.37-.57z"/><path d="m1.69 18.23a7.43 7.43 0 0 0 2.56 1.36 9.69 9.69 0 0 0 1.55.51 3.69 3.69 0 0 1 1.29.3 17.6 17.6 0 0 0 -3.15-1.6c-.55-.23-1.64-.9-2.25-.57z"/><path d="m5 20.73a17.82 17.82 0 0 0 -4.83-2.44 9.21 9.21 0 0 0 2.89 1.93 29.28 29.28 0 0 0 3.45 1.62 8.87 8.87 0 0 1 -1.51-1.11z"/><path d="m0 18.23.17.12c.02-.09-.04-.13-.17-.12z"/><path d="m3.27 17.42c.64.31 1.66-1.07 2-1.42.7-.74 1.38-1.5 2.07-2.25a20.92 20.92 0 0 0 -2.5 1.91c-.54.47-1.37 1.02-1.57 1.76z"/><path d="m2.15 17a4.13 4.13 0 0 0 -.45.72c.87-.12 1.47-1.06 1.93-1.71a18.56 18.56 0 0 0 1.72-3 15.51 15.51 0 0 0 -3.2 3.99z"/><path d="m2.15 14.67a19.36 19.36 0 0 0 -1.3 2.14c-.2.39-.45 1.11.19.64a8 8 0 0 0 1.25-2.14l1.47-2.6a24.61 24.61 0 0 1 -1.61 1.96z"/><path d="m.19 15.34v1.24c.68-1.44 1.09-3 1.71-4.45-.63 1.04-1.19 2.11-1.71 3.21z"/><path d="m2.5 21.75a7.27 7.27 0 0 1 1.61.91 17 17 0 0 0 -3.94-3c0 .46-.06.56.22.85a9.07 9.07 0 0 0 2.11 1.24z"/><path d="m1.37 22.56a16 16 0 0 0 -1.2-1.13 3 3 0 0 0 0 .94c.14.27.9.61 1.17.78l1.18.76a16.39 16.39 0 0 0 -1.15-1.35z"/><path d="m54.62.39c-.41-.11-.37.06-.45.38a15.23 15.23 0 0 0 -.12 1.92c-.11 1.33-.27 2.67-.47 4a57.09 57.09 0 0 1 -1.72 7.67 47.87 47.87 0 0 0 2.76-13.97z"/><path d="m52.47 12.14c-.4 0-1 2.39-1.08 2.6-.34 1.06-.37 2.44-1 3.39a17.92 17.92 0 0 0 1.69-3.7c.1-.15.85-2.31.39-2.29z"/><path d="m52 11.37a10.43 10.43 0 0 0 -3.09 4.46 34.06 34.06 0 0 0 3.19-3.6c.15-.19.75-.75.71-1-.07-.5-.56-.02-.81.14z"/><path d="m50.6 11.32a8.6 8.6 0 0 0 -1.08 1.33c-.21.32-.35.77-.68 1a18.25 18.25 0 0 0 2.62-2.34c.41-.42 1.43-1.2 1.34-1.87a7.62 7.62 0 0 0 -2.2 1.88z"/><path d="m47.66 12.61a6 6 0 0 1 1.34-.85 14.48 14.48 0 0 0 1.56-1.14 15.4 15.4 0 0 0 2.79-2.74 26 26 0 0 0 -5.69 4.73z"/><path d="m53 11.17c-.51.47.4 1.81.62 2.23.48.94 1 1.86 1.47 2.79a19.25 19.25 0 0 0 -1-3 4.37 4.37 0 0 0 -1.09-2.02z"/><path d="m53.3 9.63c-.19.89.59 1.84 1.07 2.51a19.27 19.27 0 0 0 2.13 2.47 11 11 0 0 0 -1.43-2.68 12.13 12.13 0 0 0 -1.77-2.3z"/><path d="m56 11.1a17.45 17.45 0 0 0 -1.59-1.94c-.29-.32-.91-.81-.67-.05s1.2 1.39 1.64 1.89c.65.75 1.32 1.5 2 2.26-.56-.62-.87-1.49-1.38-2.16z"/><path d="m54.31 7.39c-.4-.35-.62-.41-.37.17a5.53 5.53 0 0 0 1.32 1.44c1.06 1 2.24 1.79 3.3 2.75a42.37 42.37 0 0 0 -4.25-4.36z"/><path d="m54.79 6.32c-.19-.19-.48-.73-.67-.28s.79 1.1 1 1.31q1.88 1.5 3.78 2.89c-1.27-1.43-2.79-2.55-4.11-3.92z"/><path d="m57.06 6.2c-.31-.23-2.39-2-2.87-1.76.2.92 1.5 1.48 2.2 1.95 1.06.72 2.08 1.47 3.08 2.27a11 11 0 0 0 -2.41-2.46z"/><path d="m50.63 7.76c-.58.45-1.16.92-1.73 1.39a5.27 5.27 0 0 1 -1.19 1 14.15 14.15 0 0 0 3.47-2c.84-.61 2.18-1.33 2.57-2.35-.47 0-1 .46-1.33.71-.6.38-1.2.8-1.79 1.25z"/><path d="m52.55 4.57a33.33 33.33 0 0 0 -5.48 3.66 14.74 14.74 0 0 0 6.91-4c-.36-.23-1.1.19-1.43.34z"/><path d="m56.27 3.62c-.21-.16-1.46-1.25-1.73-1s.35.62.49.75c1.2 1.06 2.67 1.78 3.87 2.85a12.23 12.23 0 0 0 -2.63-2.6z"/><path d="m52.32 3.07-3.85 2.05a14 14 0 0 0 4.42-1.71c.17-.09.88-.32.81-.58-.12-.45-1.19.17-1.38.24z"/><path d="m49 2.78a15.17 15.17 0 0 0 3-.93c.35-.14 2.3-.91 2.14-1.46a4 4 0 0 0 -2 .71c-1.09.52-2.14 1.08-3.14 1.68z"/><path d="m53.72.39h.44c-.03-.09-.23-.06-.44 0z"/><path d="m55 .11c-.37-.19-.64.06-.31.28.13.09.58 0 .76 0z"/><path d="m59.31 4.16a13.43 13.43 0 0 0 -2.66-2.87 2.8 2.8 0 0 0 -2-.9c.94 1.61 3.25 2.52 4.66 3.77z"/><path d="m50.59.39c-.34-.06-.55.14-.82.3a2.88 2.88 0 0 1 .82-.3z"/><path d="m58.86 1.75a3.33 3.33 0 0 0 -.62-.83l.5.45c-.39-.65-.56-1-1.31-1a8.38 8.38 0 0 1 1.43 1.38z"/></g><g opacity=".87"><path d="m38.89 53.76a15.9 15.9 0 0 1 -3.56 1c-.28 0-.86.07-.8-.31s1-.44 1.28-.47c.82-.08 2.47-.22 3-.9s.26-2.47.13-3.31a4.62 4.62 0 0 1 -2.48 2.2c-.42.18-1.15.39-1.5 0-.5-.58.33-.8.76-1 .84-.31 2.28-.58 2.77-1.44s-.68-2.51-1.13-3.25a4.44 4.44 0 0 1 -1.36 2.54c-.26.2-.92.59-1.18.16s.44-.95.74-1.2c.7-.59 1.55-1.28 1.18-2.27a5.48 5.48 0 0 0 -.74-1.16 6.59 6.59 0 0 1 -.58-1.63c-.71 1.23-2.4 1.16-3.53 1.72-.71.35-1.09.65-.95 1.46a4.47 4.47 0 0 0 1.06 2.1c.29.34 1.23 1.06 1 1.6s-1.16.06-1.51-.2c-1.32-1-1.54-2.52-1.59-4.08a3.49 3.49 0 0 0 -1.48 2.3c-.27 1.22.78 2 1.52 2.84.21.23 1 .92 1.05 1.24 0 .57-.66.22-.92 0a7.91 7.91 0 0 1 -2.21-2.9c-.51.62-1.1 1.57-.66 2.38s1.82 1.32 2.56 2c.89.84.05 1.29-.84.86a9 9 0 0 1 -2.58-2.43 5.48 5.48 0 0 0 .47 4.19c.31.64.36.69.92.76a30.78 30.78 0 0 0 4 0h4.5a4.24 4.24 0 0 0 1.18 0c.59-.17 1.19-2.19 1.48-2.8z" fill="#bfddbc"/><path d="m33.5 51.57a32.33 32.33 0 0 0 1.22-6.57c-.93 3.88-1.62 7.95-3.28 11.6.78.21 1.85-4.31 2.06-5.03z" fill="#9dbf9a"/></g><path d="m.17 38.05c0 .16-.08.59 0 .73s.76.36 1 .46a5.79 5.79 0 0 1 -1-1.19z" fill="#fff" opacity=".45"/></svg>