<svg xmlns="http://www.w3.org/2000/svg" viewBox="0 0 73 57"><defs><style>.a{fill:#fff;}.b{fill:#263068;}.c{opacity:0.45;}.d{fill:none;}</style></defs><title>Vagues2</title><path class="a" d="M62.21,57H10.79C3.43,57,0,49.87,0,41.1V15.9C0,7.13,3.43,0,10.79,0H62.21C69.57,0,73,7.13,73,15.9V41.1C73,49.87,69.57,57,62.21,57Z"/><path class="b" d="M62.21,57h-51a10,10,0,0,1-9.59-6.61C0,46.55,0,42.43,0,38.35V25.15C0,22.08,0,19,0,15.94,0,10.55,1.25,3.48,6.68.89,8.87-.16,11.27,0,13.62,0H60.78C64,0,67,.54,69.2,3.09c3.28,3.69,3.8,9,3.8,13.7V40.12c0,4.68-.49,9.89-3.65,13.61A9.23,9.23,0,0,1,62.21,57Z"/><g class="c"><path class="d" d="M8.24,1.31A5.42,5.42,0,0,1,11.79,0C9,0,6.54.5,4.46,2.45A5,5,0,0,0,8.24,1.31Z"/><path class="d" d="M64.68,39.29a5.84,5.84,0,0,1-7.39,0A5.41,5.41,0,0,0,51,39a7.13,7.13,0,0,1-2.88,1.51,6.31,6.31,0,0,1-3.39-.29c-1.05-.4-1.74-1.29-2.77-1.7a5.83,5.83,0,0,0-3.28-.26,8.55,8.55,0,0,0-2.85,1.57,5.8,5.8,0,0,1-3.26.78,5.64,5.64,0,0,1-3.15-1.06,5.55,5.55,0,0,0-3-1.37,5.4,5.4,0,0,0-3.32.62,11.61,11.61,0,0,1-2.82,1.62,6.27,6.27,0,0,1-3.41-.07c-1.1-.34-1.78-1.17-2.78-1.67a5.67,5.67,0,0,0-3.76-.39c-1.29.29-2,1.24-3.16,1.78a6.19,6.19,0,0,1-3.75.44C2,40.22,1.23,39.28,0,38.67v2.27c0,.67,0,1.33.06,2s.11.69.67,1c.33.21.6.5.93.72a5.45,5.45,0,0,0,4,.77c1.46-.27,2.24-1.32,3.53-1.9a6.27,6.27,0,0,1,4.14-.26c1.4.4,2.27,1.57,3.63,2A5.65,5.65,0,0,0,21.14,45a13.46,13.46,0,0,0,1.51-1.09,5.42,5.42,0,0,1,2.05-.76,6,6,0,0,1,4.06.7c.53.33.95.8,1.5,1.1a5.53,5.53,0,0,0,6-.66,5.66,5.66,0,0,1,3.87-1.22,6.25,6.25,0,0,1,3.71,1.54,5.34,5.34,0,0,0,4,.86c1.5-.24,2.26-1.25,3.56-1.86a6.18,6.18,0,0,1,4.13-.35c1.53.4,2.48,1.71,4,2.1a5.47,5.47,0,0,0,4.52-.75,6.22,6.22,0,0,1,4.25-1.54,5.82,5.82,0,0,1,2.28.54c.79.38,1.37,1,2.16,1.42A31.5,31.5,0,0,0,73,40.94c0-.58.1-.63-.44-.88A10.06,10.06,0,0,1,71,39,5.33,5.33,0,0,0,64.68,39.29Z"/><path class="d" d="M22.33,1.31A5.42,5.42,0,0,1,25.88,0H12.09a5.71,5.71,0,0,1,3.06.91A7.58,7.58,0,0,0,17.4,2.27,5.3,5.3,0,0,0,22.33,1.31Z"/><path class="d" d="M8.24,6.78A5.87,5.87,0,0,1,14.49,6c1,.45,1.63,1.29,2.66,1.64a5.78,5.78,0,0,0,3.42.07,12.76,12.76,0,0,0,2.68-1.6,6,6,0,0,1,3.31-.64,5.47,5.47,0,0,1,3,1.13,5.35,5.35,0,0,0,3,1.31,5.54,5.54,0,0,0,3.2-.64A11.49,11.49,0,0,1,38.41,5.7a6.37,6.37,0,0,1,3.41,0,11.35,11.35,0,0,1,2.69,1.59,5.5,5.5,0,0,0,6.19-.67A5.94,5.94,0,0,1,57,6.13c1.14.62,1.84,1.48,3.19,1.72a5.6,5.6,0,0,0,3.62-.5c1.2-.64,2-1.53,3.38-1.78a6,6,0,0,1,4,.61A11.7,11.7,0,0,0,68.49,2.4a8.4,8.4,0,0,0-1.72-1.25c-.83-.46-1.38.2-2,.72a5.91,5.91,0,0,1-4.74,1c-1.51-.3-2.34-1.43-3.7-2a5.74,5.74,0,0,0-4.16,0c-1.25.49-2,1.55-3.39,1.9a6.21,6.21,0,0,1-4-.3c-1.24-.55-2-1.57-3.41-1.86a5.47,5.47,0,0,0-4,.6c-1.21.74-2,1.52-3.49,1.71A5.91,5.91,0,0,1,30,2.13c-1.2-.78-2-1.51-3.54-1.61a5.23,5.23,0,0,0-3.75,1.15A5.67,5.67,0,0,1,18.85,3a5.58,5.58,0,0,1-3.56-1.31A5.28,5.28,0,0,0,11.4.53a5,5,0,0,0-2.11.63A21.36,21.36,0,0,1,7.35,2.48,6.12,6.12,0,0,1,4.61,3c-.65,0-.72,0-1.14.54a11,11,0,0,0-.75,1C2.46,5,2.21,5.41,2,5.86S1.47,6.63,1.86,7a3.93,3.93,0,0,0,2,.83A5.2,5.2,0,0,0,8.24,6.78Z"/><path class="d" d="M64.68,33.82a5.52,5.52,0,0,1-4,1.3,6.62,6.62,0,0,1-3.76-1.61c-2.11-1.51-4.72-.89-6.61.55a5.9,5.9,0,0,1-6.72.07,6,6,0,0,0-3.24-1.47,5.88,5.88,0,0,0-1.92.16c-.35.08-1.27.67-1.38.29.46.5-2.3,1.74-2.79,1.85a6.22,6.22,0,0,1-3.88-.32c-1.2-.53-1.95-1.54-3.28-1.84a5.61,5.61,0,0,0-3.76.39C22.15,33.78,21.4,34.7,20,35a6.16,6.16,0,0,1-3.88-.41C15,34,14.29,33.1,13,32.8a5.63,5.63,0,0,0-3.87.44c-.7.38-1.21,1-1.92,1.33a6.06,6.06,0,0,1-2.58.56,6,6,0,0,1-2.45-.5c-.81-.36-1.39-1-2.18-1.43v3.71A3.62,3.62,0,0,0,0,38c.14.33.83.57,1.16.83A5.36,5.36,0,0,0,3,39.88a5.6,5.6,0,0,0,4.35-.51C8,39,8.4,38.52,9,38.21a6.08,6.08,0,0,1,2.14-.58,5.78,5.78,0,0,1,4,1.13,5.43,5.43,0,0,0,4.07,1.31,5.22,5.22,0,0,0,2-.57c.63-.34,1.09-.89,1.72-1.23a6.13,6.13,0,0,1,4.23-.49c1.48.35,2.36,1.55,3.76,2a5.66,5.66,0,0,0,4.26-.25c.61-.3,1.05-.8,1.62-1.15a5.44,5.44,0,0,1,2.07-.72,5.83,5.83,0,0,1,4.24.93A5.85,5.85,0,0,0,47,40.09a5.63,5.63,0,0,0,2.06-.43,11.62,11.62,0,0,0,1.74-1.19,6,6,0,0,1,4.3-.75c1.66.32,2.6,1.64,4.14,2.12A5.48,5.48,0,0,0,64,39.23a6.54,6.54,0,0,1,4.48-1.61,6,6,0,0,1,2.27.59A26.56,26.56,0,0,0,73,39.7v-4c0-.19.11-.77,0-.94s-.56-.26-.73-.35a7.67,7.67,0,0,1-1.08-.79,4.75,4.75,0,0,0-2.09-.92A5.2,5.2,0,0,0,64.68,33.82Z"/><path class="d" d="M50.86,55.7A5.39,5.39,0,0,1,47.3,57H61.1A5.65,5.65,0,0,1,58,56.09a7.34,7.34,0,0,0-2.25-1.34A5.3,5.3,0,0,0,50.86,55.7Z"/><path class="d" d="M64.6,1.31a4.76,4.76,0,0,1,1-.69C63.6-.15,61.41,0,59.28,0H54.36a5.71,5.71,0,0,1,3.06.91,7.37,7.37,0,0,0,2.25,1.35A5.3,5.3,0,0,0,64.6,1.31Z"/><path class="d" d="M50.51,1.31A5.4,5.4,0,0,1,54.06,0H40.27a5.71,5.71,0,0,1,3.06.91,7.58,7.58,0,0,0,2.25,1.35A5.3,5.3,0,0,0,50.51,1.31Z"/><path class="d" d="M36.42,1.31A5.42,5.42,0,0,1,40,0H26.18a5.71,5.71,0,0,1,3.06.91,7.58,7.58,0,0,0,2.25,1.35A5.3,5.3,0,0,0,36.42,1.31Z"/><path class="d" d="M65,50.23a5.83,5.83,0,0,1-7.17.19,5.52,5.52,0,0,0-6.22-.7,11.77,11.77,0,0,1-2.69,1.59,6.29,6.29,0,0,1-3.28,0,9.38,9.38,0,0,1-2.71-1.56,5.37,5.37,0,0,0-3.17-.7c-2.29.15-3.58,2.13-5.84,2.41a6.11,6.11,0,0,1-3.35-.5c-1-.45-1.62-1.29-2.65-1.64a6,6,0,0,0-3.3-.11,10.69,10.69,0,0,0-2.69,1.58,6,6,0,0,1-6.21-.27,5.88,5.88,0,0,0-3.33-1.47A5.27,5.27,0,0,0,8.87,50,6.22,6.22,0,0,1,5.56,51.5a5.86,5.86,0,0,1-3.79-.85,11.91,11.91,0,0,0,2.71,3.94A9.27,9.27,0,0,0,6.2,55.85c.4.22.53.33,1,.19a4.27,4.27,0,0,0,1.28-.87,5.94,5.94,0,0,1,7.39.33,5.28,5.28,0,0,0,4,1c1.52-.2,2.29-1.17,3.57-1.82a6.1,6.1,0,0,1,4-.47c1.44.31,2.24,1.36,3.53,1.91a5.71,5.71,0,0,0,4,.14c1.31-.44,2.15-1.57,3.5-2a6.23,6.23,0,0,1,4.15.26c1.24.55,2,1.58,3.4,1.86A5.51,5.51,0,0,0,50,55.72a7.24,7.24,0,0,1,3.51-1.66,5.82,5.82,0,0,1,4,1,5.86,5.86,0,0,0,3.73,1.49,5.54,5.54,0,0,0,2.2-.44,19.76,19.76,0,0,0,2-1.32,5.64,5.64,0,0,1,2.41-.69c.55,0,1,.12,1.43-.21a5.31,5.31,0,0,0,.79-1,13.8,13.8,0,0,0,.78-1.29c.11-.22.74-1.2.66-1.43-.2-.51-1.64-.84-2.1-.93A5.18,5.18,0,0,0,65,50.23Z"/><path class="d" d="M22.68,55.7A5.4,5.4,0,0,1,19.13,57h13.8a5.66,5.66,0,0,1-3.07-.91,7.41,7.41,0,0,0-2.24-1.34A5.31,5.31,0,0,0,22.68,55.7Z"/><path class="d" d="M65.22,18.09a5.87,5.87,0,0,1-6.36.71c-1-.51-1.67-1.35-2.8-1.67a5.86,5.86,0,0,0-3.54.12c-1.05.39-1.74,1.28-2.77,1.71a6.29,6.29,0,0,1-3.38.35,6.43,6.43,0,0,1-2.91-1.46,5.21,5.21,0,0,0-3.21-.93A5.1,5.1,0,0,0,37.13,18a5.79,5.79,0,0,1-3,1.34,6.11,6.11,0,0,1-3.35-.5c-1.05-.5-1.75-1.39-2.9-1.72a5.9,5.9,0,0,0-3.43.08c-1.16.39-1.91,1.38-3.05,1.81a6.22,6.22,0,0,1-4,.1c-1.21-.38-2-1.36-3.1-1.82a5.8,5.8,0,0,0-3.79-.13c-1.21.38-2,1.38-3.14,1.83a6.2,6.2,0,0,1-3.9.17C2.12,18.79,1.29,17.68,0,17.23v2.08A9.55,9.55,0,0,0,0,22c.14.38.57.39,1,.61.67.38,1.17,1,1.87,1.29a5.67,5.67,0,0,0,4.39.1c1.39-.55,2.23-1.69,3.78-2a6.06,6.06,0,0,1,4.19.68c.57.35,1,.85,1.61,1.15a5.42,5.42,0,0,0,2.16.54,5.89,5.89,0,0,0,4-1.48,5.83,5.83,0,0,1,4.11-.95,5.77,5.77,0,0,1,2,.61c.63.34,1.09.89,1.72,1.23a5.7,5.7,0,0,0,4.38.3c1.4-.47,2.27-1.67,3.76-2a6.13,6.13,0,0,1,4.23.49c.59.32,1,.83,1.61,1.16a5.08,5.08,0,0,0,2.11.64A5.45,5.45,0,0,0,51,23a5.72,5.72,0,0,1,4-1.12,5.6,5.6,0,0,1,2.36.69,18.61,18.61,0,0,0,2,1.33,5.67,5.67,0,0,0,4.75-.16c.7-.38,1.22-1,2-1.34a5.9,5.9,0,0,1,2.41-.55,6.23,6.23,0,0,1,2.34.4A16.38,16.38,0,0,1,73,23.73v-3.8a3.43,3.43,0,0,0,0-1.06c-.14-.3-1.14-.86-1.46-1.09a4.87,4.87,0,0,0-2-.79A5.17,5.17,0,0,0,65.22,18.09Z"/><path class="d" d="M65,55.7A5.4,5.4,0,0,1,61.4,57a9.88,9.88,0,0,0,7.16-2.45A5,5,0,0,0,65,55.7Z"/><path class="d" d="M65.22,12.62a5.89,5.89,0,0,1-6.37.71c-1-.51-1.67-1.35-2.79-1.67a5.86,5.86,0,0,0-3.42.08c-1.07.36-1.76,1.25-2.77,1.7a6.16,6.16,0,0,1-3.37.42,6,6,0,0,1-3-1.4,5.46,5.46,0,0,0-6.33,0,5.92,5.92,0,0,1-2.95,1.4,6.14,6.14,0,0,1-3.36-.42c-1-.45-1.71-1.34-2.77-1.7a5.9,5.9,0,0,0-3.43-.08c-1.19.34-1.91,1.28-3,1.77a6.21,6.21,0,0,1-4,.31c-1.29-.33-2-1.27-3.17-1.81a5.81,5.81,0,0,0-3.9-.27c-1.23.35-2,1.35-3.14,1.83a6.31,6.31,0,0,1-3.77.28c-1.37-.33-2.18-1.36-3.44-1.89-.13,1-.21,1.93-.25,2.9a5.84,5.84,0,0,0,0,1.77c.15.37,1.08.61,1.47.9a7.35,7.35,0,0,0,1.74,1.11,5.72,5.72,0,0,0,4.15-.1c1.24-.53,2-1.56,3.4-1.88a6.11,6.11,0,0,1,4.12.44c1.23.62,2,1.57,3.44,1.8a5.35,5.35,0,0,0,4-.86,6.32,6.32,0,0,1,3.58-1.53,5.69,5.69,0,0,1,3.91,1.13,5.41,5.41,0,0,0,3.67,1.33,5.88,5.88,0,0,0,3.6-1.48,5.75,5.75,0,0,1,4-1c1.56.16,2.37.95,3.62,1.72a5.53,5.53,0,0,0,4,.6c1.4-.29,2.17-1.31,3.41-1.86a6.21,6.21,0,0,1,4.14-.27c1.48.42,2.4,1.69,3.88,2.07A5.51,5.51,0,0,0,64.49,18a6.53,6.53,0,0,1,4.21-1.63,6.05,6.05,0,0,1,2.3.5,22.59,22.59,0,0,1,2,1.35V16.2c0-.48,0-1,0-1.44a4.27,4.27,0,0,0-.1-1.48c-.13-.2-.65-.41-.85-.57C70.13,11.25,67.12,10.83,65.22,12.62Z"/><path class="d" d="M8.59,55.7a4.84,4.84,0,0,1-1.11.73c2,.73,4.23.57,6.35.57h5a5.66,5.66,0,0,1-3.07-.91,7.41,7.41,0,0,0-2.24-1.34A5.32,5.32,0,0,0,8.59,55.7Z"/><path class="d" d="M36.77,55.7A5.4,5.4,0,0,1,33.22,57H47A5.69,5.69,0,0,1,44,56.09a7.58,7.58,0,0,0-2.25-1.35A5.33,5.33,0,0,0,36.77,55.7Z"/><path class="d" d="M8.51,12.26a5.87,5.87,0,0,1,6.37-.71c1,.53,1.72,1.39,2.91,1.69a5.78,5.78,0,0,0,3.42-.15c1.05-.39,1.74-1.28,2.77-1.7A6.29,6.29,0,0,1,27.36,11a6.81,6.81,0,0,1,3,1.54,5.31,5.31,0,0,0,3.24.85c2.4-.11,3.75-2.2,6.11-2.44a6,6,0,0,1,3.34.57c1,.53,1.72,1.39,2.91,1.69a5.78,5.78,0,0,0,3.42-.15c1-.39,1.74-1.28,2.77-1.7A6.29,6.29,0,0,1,55.54,11a6.81,6.81,0,0,1,3,1.54,5.38,5.38,0,0,0,3.64.82,7.11,7.11,0,0,0,3.27-1.59A5.94,5.94,0,0,1,69.23,11c1.52.16,2.38.93,3.61,1.7a22.71,22.71,0,0,0-1.08-5C71.32,6.4,69.72,6,68.49,6A5.18,5.18,0,0,0,65,7.14a5.79,5.79,0,0,1-4.33,1.28,5.89,5.89,0,0,1-2.09-.59c-.61-.33-1.07-.85-1.67-1.2A5.59,5.59,0,0,0,53,6.1c-1.36.28-2.11,1.24-3.3,1.81a6.2,6.2,0,0,1-3.87.41C44.47,8,43.73,7.11,42.55,6.51a5.73,5.73,0,0,0-3.76-.39C37.46,6.43,36.7,7.43,35.51,8a6.25,6.25,0,0,1-3.89.33C30.28,8,29.53,7,28.34,6.46a5.69,5.69,0,0,0-3.9-.27c-1.27.36-2.05,1.4-3.26,1.87a6.31,6.31,0,0,1-3.77.2c-1.46-.38-2.35-1.59-3.76-2a5.68,5.68,0,0,0-4.26.34c-.62.34-1.09.88-1.72,1.22a5.79,5.79,0,0,1-2.11.63A5.7,5.7,0,0,1,1.39,7.28a18.73,18.73,0,0,0-.61,2,5.76,5.76,0,0,0-.41,1.93c.07.35.87.61,1.23.89a6.36,6.36,0,0,0,1.25.87A5.38,5.38,0,0,0,8.51,12.26Z"/><path class="d" d="M64.68,28.35c-2,1.88-5.37,1.64-7.39,0A5.41,5.41,0,0,0,51,28a7,7,0,0,1-2.88,1.51,6.31,6.31,0,0,1-3.39-.28c-1.05-.41-1.74-1.3-2.77-1.71a5.83,5.83,0,0,0-3.28-.26,8.55,8.55,0,0,0-2.85,1.57,5.72,5.72,0,0,1-3.26.78,5.49,5.49,0,0,1-3.15-1.06,5.55,5.55,0,0,0-3-1.37,5.47,5.47,0,0,0-3.32.62,11.29,11.29,0,0,1-2.82,1.62,6.23,6.23,0,0,1-3.4-.07c-1.11-.34-1.79-1.17-2.79-1.67a5.67,5.67,0,0,0-3.76-.39c-1.29.3-2,1.24-3.16,1.78a6.12,6.12,0,0,1-3.75.44C2,29.28,1.23,28.34,0,27.73v3.71a3.62,3.62,0,0,0,0,1.09c.14.33.83.57,1.16.83a5.36,5.36,0,0,0,1.88,1A5.63,5.63,0,0,0,7.28,34c.58-.34,1-.85,1.61-1.17A5.59,5.59,0,0,1,11,32.18a5.76,5.76,0,0,1,4.18,1.11,5.44,5.44,0,0,0,3.94,1.32,5.22,5.22,0,0,0,2-.53c.65-.32,1.11-.86,1.73-1.21a6.06,6.06,0,0,1,4.34-.56c1.45.34,2.29,1.48,3.64,2a5.69,5.69,0,0,0,4.27-.15,18.49,18.49,0,0,0,1.79-1.25,5.32,5.32,0,0,1,1.94-.66,5.92,5.92,0,0,1,4.3.9,5.92,5.92,0,0,0,4,1.49,5.39,5.39,0,0,0,2.05-.48,17.29,17.29,0,0,0,1.73-1.21,6.06,6.06,0,0,1,4.19-.68c1.66.32,2.6,1.64,4.14,2.12a5.51,5.51,0,0,0,4.68-.6,6.5,6.5,0,0,1,4.48-1.62,5.8,5.8,0,0,1,2.27.6c.83.42,1.42,1.13,2.3,1.48v-4c0-.19.11-.77,0-.94s-.56-.26-.73-.35a7.67,7.67,0,0,1-1.08-.79,4.75,4.75,0,0,0-2.09-.92A5.23,5.23,0,0,0,64.68,28.35Z"/><path class="d" d="M64.68,44.75a5.82,5.82,0,0,1-7.39,0,5.44,5.44,0,0,0-6.22-.37,8,8,0,0,1-2.86,1.55,6.31,6.31,0,0,1-3.39-.21c-1.06-.39-1.76-1.26-2.77-1.7a5.74,5.74,0,0,0-3.4-.31,7.73,7.73,0,0,0-2.74,1.5,5.78,5.78,0,0,1-3.24.86,5.65,5.65,0,0,1-3.18-1,6,6,0,0,0-2.92-1.43,5.6,5.6,0,0,0-3.35.54c-1,.54-1.66,1.33-2.8,1.66a6.4,6.4,0,0,1-3.28,0,10.86,10.86,0,0,1-2.82-1.63,5.58,5.58,0,0,0-3.72-.56c-1.35.25-2.06,1.11-3.2,1.72a6,6,0,0,1-3.71.6,5.45,5.45,0,0,1-1.84-.6c-.62-.33-1.08-.86-1.69-1.19a17.11,17.11,0,0,0,1.12,5.24C1.82,50.61,3.57,51,4.76,51a5.24,5.24,0,0,0,3.58-1.24,5.65,5.65,0,0,1,3.6-1.23,5.6,5.6,0,0,1,3.6,1.23A5.37,5.37,0,0,0,19.25,51a5.88,5.88,0,0,0,3.47-1.48,5.72,5.72,0,0,1,3.71-1A5.94,5.94,0,0,1,29.91,50a5.24,5.24,0,0,0,3.7,1c1.46-.13,2.25-.85,3.4-1.6a5.89,5.89,0,0,1,3.91-.8,7.33,7.33,0,0,1,3.38,1.64,5.43,5.43,0,0,0,3.8.71c1.46-.23,2.2-1.17,3.44-1.8a6.12,6.12,0,0,1,3.86-.49c1.55.29,2.39,1.43,3.77,2a5.76,5.76,0,0,0,4.28,0,13.21,13.21,0,0,0,1.75-1.2,5.14,5.14,0,0,1,2.06-.76,5.86,5.86,0,0,1,4.4,1,19,19,0,0,0,.59-1.95,5.69,5.69,0,0,0,.36-1.75c0-.51-.06-.38-.49-.63a5,5,0,0,1-.74-.54,5.22,5.22,0,0,0-6.7,0Z"/><path class="d" d="M65.22,23.56a5.89,5.89,0,0,1-6.37.71c-1-.51-1.66-1.35-2.79-1.67a5.86,5.86,0,0,0-3.54.12c-1.05.39-1.74,1.28-2.77,1.7a6.19,6.19,0,0,1-3.38.36,6.43,6.43,0,0,1-2.91-1.46,5.46,5.46,0,0,0-6.33.16,5.79,5.79,0,0,1-3,1.34,6.11,6.11,0,0,1-3.35-.5c-1.05-.5-1.75-1.39-2.9-1.72a5.9,5.9,0,0,0-3.43.08c-1.16.39-1.91,1.38-3.05,1.81a6.22,6.22,0,0,1-4,.1c-1.21-.38-2-1.36-3.1-1.82a5.73,5.73,0,0,0-3.79-.13c-1.21.38-2,1.38-3.14,1.83a6.27,6.27,0,0,1-3.9.17C2.12,24.26,1.29,23.15,0,22.7v2.24a7,7,0,0,0,0,2.24c.09.17.62.31.81.44s.55.47.85.68a4.76,4.76,0,0,0,2.16.8,5.28,5.28,0,0,0,4-1,6,6,0,0,1,7.76,0,5.38,5.38,0,0,0,4.23.91c1.47-.27,2.25-1.32,3.54-1.89A6.16,6.16,0,0,1,27.71,27c1.36.45,2.23,1.63,3.64,2a5.55,5.55,0,0,0,4.22-.54c.57-.35,1-.85,1.61-1.15a6.08,6.08,0,0,1,6.18.54,5.53,5.53,0,0,0,6,.8c.65-.33,1.11-.87,1.73-1.22a6.09,6.09,0,0,1,4.21-.59c1.63.35,2.58,1.69,4.14,2.13a5.43,5.43,0,0,0,4.65-.72,6.21,6.21,0,0,1,4.38-1.53,5.62,5.62,0,0,1,2.27.59c.83.42,1.42,1.13,2.3,1.48V25.13c0-.19.1-.68,0-.85s-.65-.38-.84-.52-.53-.46-.83-.65a4.87,4.87,0,0,0-2-.67A5.14,5.14,0,0,0,65.22,23.56Z"/><path class="a" d="M64.6,6.78a5.36,5.36,0,0,1-6.32.31,7.07,7.07,0,0,0-2.75-1.48,6.25,6.25,0,0,0-3.4.21c-1.06.38-1.75,1.26-2.77,1.7a5.7,5.7,0,0,1-3.27.33,7.53,7.53,0,0,1-2.87-1.53A5.72,5.72,0,0,0,40,5.47a5.59,5.59,0,0,0-3.18,1A6.11,6.11,0,0,1,34,7.87a5.67,5.67,0,0,1-3.37-.46c-1-.5-1.67-1.33-2.78-1.67a6.27,6.27,0,0,0-3.41-.07,9.56,9.56,0,0,0-2.7,1.56,5.5,5.5,0,0,1-6.3-.61,5.88,5.88,0,0,0-6.92-.08,5.57,5.57,0,0,1-3.35,1.4A5,5,0,0,1,1.57,6.8c-.17.43-.17.4.12.71a2.51,2.51,0,0,0,.77.43,6,6,0,0,0,1.77.47,5.92,5.92,0,0,0,3.66-.74C9,7,9.68,6.26,11,6.05a5.54,5.54,0,0,1,3.7.64,8.48,8.48,0,0,0,3.09,1.65A6.18,6.18,0,0,0,21.42,8c1.15-.51,1.89-1.48,3.15-1.81a5.75,5.75,0,0,1,3.66.26c1.1.47,1.83,1.41,3,1.78a6.36,6.36,0,0,0,3.79,0c1.16-.39,1.89-1.35,3-1.8a5.8,5.8,0,0,1,3.66-.16c1.24.35,2,1.34,3.15,1.82a6.25,6.25,0,0,0,3.63.31c1.33-.28,2.05-1.14,3.18-1.75a5.66,5.66,0,0,1,3.62-.5c1.55.28,2.4,1.47,3.81,2A6.14,6.14,0,0,0,64,7.83C64.59,7.51,65,7,65.63,6.64A5.09,5.09,0,0,1,67.56,6a5.23,5.23,0,0,1,4,1,1.82,1.82,0,0,0-1.4-1.31,6.22,6.22,0,0,0-2-.28A5.36,5.36,0,0,0,64.6,6.78Z"/><path class="a" d="M26.18,0a6.1,6.1,0,0,0-2.82.6c-.83.42-1.42,1.14-2.3,1.49a5.46,5.46,0,0,1-5.33-.71A6.06,6.06,0,0,0,10,.31C8.93.66,8.25,1.5,7.25,2a4.89,4.89,0,0,1-1.5.44c-.77.1-1.21-.1-1.77.5a6,6,0,0,0,3.64-.56c1.07-.56,1.75-1.41,3-1.7A5.8,5.8,0,0,1,13.78.8c1,.35,1.69,1.18,2.65,1.64a6,6,0,0,0,6.06-.6,5.49,5.49,0,0,1,6.08-.74,20.67,20.67,0,0,0,2.31,1.49,6.3,6.3,0,0,0,3.39.29A6,6,0,0,0,37,1.51a5.13,5.13,0,0,1,3.17-1,5.26,5.26,0,0,1,2.76.73,9.51,9.51,0,0,0,2.83,1.59,6.38,6.38,0,0,0,3.16-.07A13.49,13.49,0,0,0,51.66,1.1,5.62,5.62,0,0,1,55,.56c1.4.19,2.12,1,3.26,1.65a6,6,0,0,0,4.25.65c1.51-.3,2.37-1.44,3.74-2C65.37.47,65,1,64.32,1.55a4.57,4.57,0,0,1-1.74.78,5.56,5.56,0,0,1-4-.51C58,1.47,57.52.93,56.88.61a6.07,6.07,0,0,0-6.37.7,5.24,5.24,0,0,1-3.62,1.16A6.22,6.22,0,0,1,43.33.92,6,6,0,0,0,39.15.08,5.41,5.41,0,0,0,37,.84a13.18,13.18,0,0,1-1.77,1.21,5.67,5.67,0,0,1-4.39,0A17.62,17.62,0,0,1,29,.76,5.73,5.73,0,0,0,26.18,0Z"/><path class="a" d="M64.87,23.19a5.34,5.34,0,0,1-6.42.24A6.15,6.15,0,0,0,52,22.37c-1,.46-1.7,1.34-2.77,1.7a5.89,5.89,0,0,1-3.55,0c-1.09-.34-1.77-1.2-2.78-1.68a6.11,6.11,0,0,0-3.35-.5,5.89,5.89,0,0,0-3.08,1.43,5.48,5.48,0,0,1-6.42-.08,5.8,5.8,0,0,0-3-1.35,6.11,6.11,0,0,0-3.35.5c-1.06.5-1.75,1.39-2.91,1.72a5.86,5.86,0,0,1-3.42-.08c-1.11-.38-1.82-1.3-2.89-1.74a6.24,6.24,0,0,0-3.77-.28c-1.35.31-2.09,1.27-3.28,1.83a5.69,5.69,0,0,1-3.77.3c-1.43-.37-2.32-1.56-3.71-2,0,.67.24.55.79.88s1.07.88,1.71,1.21a6.15,6.15,0,0,0,3.85.49c1.35-.26,2.08-1.07,3.21-1.71a5.59,5.59,0,0,1,3.85-.54c1.39.29,2.16,1.31,3.4,1.86a6.15,6.15,0,0,0,4.6.12c1.32-.5,2.15-1.63,3.56-1.95a5.61,5.61,0,0,1,3.76.39c1.18.59,1.92,1.51,3.29,1.8a6.21,6.21,0,0,0,3.76-.35c1.19-.53,1.95-1.54,3.28-1.84a5.63,5.63,0,0,1,3.87.44c1.13.61,1.85,1.47,3.18,1.75A6.13,6.13,0,0,0,50,24.32c1.2-.57,1.94-1.53,3.3-1.81A5.63,5.63,0,0,1,57,23c.63.34,1.1.89,1.72,1.23a5.59,5.59,0,0,0,2.12.62,5.77,5.77,0,0,0,4.07-1,5.6,5.6,0,0,1,3.91-1.41,5.3,5.3,0,0,1,2,.48c.78.36,1.35,1,2.12,1.4,0-.14.06-.43,0-.54s-.88-.67-1.12-.85A5.28,5.28,0,0,0,69.63,22,5.71,5.71,0,0,0,64.87,23.19Z"/><path class="a" d="M1.47,12.62a5.84,5.84,0,0,0,7,.31,6,6,0,0,1,3.19-1.46,5.3,5.3,0,0,1,3.61.91,6.25,6.25,0,0,0,3.81,1.55,6,6,0,0,0,4-1.47c2.11-1.66,4.85-1.11,6.8.4a5.88,5.88,0,0,0,7-.16,5.4,5.4,0,0,1,6.8-.08,5.91,5.91,0,0,0,6.9.39,6.5,6.5,0,0,1,3.3-1.54,5.3,5.3,0,0,1,3.61.91,6.17,6.17,0,0,0,3.71,1.54,5.65,5.65,0,0,0,3.86-1.22A5.38,5.38,0,0,1,69,11.46,5.31,5.31,0,0,1,71,12c.69.34,1.2.93,1.88,1.29a.93.93,0,0,0-.48-.91c-.25-.19-.47-.4-.73-.57a5.26,5.26,0,0,0-1.91-.75,6.12,6.12,0,0,0-3.86.5C64.76,12.12,64,13,62.72,13.3a5.54,5.54,0,0,1-3.85-.53C57.7,12.09,57,11.27,55.54,11a6.07,6.07,0,0,0-3.73.52c-1.19.6-1.92,1.53-3.31,1.78a5.56,5.56,0,0,1-3.83-.63C43.52,12,42.74,11.22,41.32,11a6,6,0,0,0-3.82.66c-1.14.65-1.85,1.46-3.22,1.68a5.48,5.48,0,0,1-3.8-.71A7.44,7.44,0,0,0,27.1,11a6,6,0,0,0-3.69.68c-1.19.68-1.91,1.51-3.35,1.7a5.4,5.4,0,0,1-3.78-.8A6.55,6.55,0,0,0,12.48,11a5.71,5.71,0,0,0-4,1.31,5.33,5.33,0,0,1-4.15,1.11c-1.66-.22-2.54-1.42-4-2-.08.55,0,.38.32.7S1.23,12.39,1.47,12.62Z"/><path class="a" d="M64.87,17.73a5.36,5.36,0,0,1-6.42.23A6.13,6.13,0,0,0,52,16.91c-1,.45-1.7,1.33-2.77,1.69a5.82,5.82,0,0,1-3.55,0C44.63,18.3,44,17.44,42.94,17a6.11,6.11,0,0,0-3.35-.5,5.89,5.89,0,0,0-3.08,1.43,5.48,5.48,0,0,1-6.42-.08,5.8,5.8,0,0,0-3-1.35,6.11,6.11,0,0,0-3.35.5c-1.06.5-1.75,1.39-2.91,1.72a5.86,5.86,0,0,1-3.42-.08c-1.11-.37-1.82-1.3-2.89-1.74a6.24,6.24,0,0,0-3.77-.28c-1.35.32-2.09,1.28-3.28,1.83a5.69,5.69,0,0,1-3.77.3c-1.43-.37-2.32-1.56-3.71-2,0,.67.24.56.79.88s1.07.89,1.71,1.21a6.15,6.15,0,0,0,3.85.49C7.7,19,8.43,18.22,9.56,17.58A5.59,5.59,0,0,1,13.41,17c1.39.29,2.16,1.31,3.4,1.86a6.15,6.15,0,0,0,4.6.12c1.32-.5,2.15-1.63,3.56-1.95a5.61,5.61,0,0,1,3.76.39c1.18.59,1.92,1.51,3.29,1.8a6.21,6.21,0,0,0,3.76-.35c1.19-.53,1.95-1.54,3.28-1.84a5.63,5.63,0,0,1,3.87.44c1.13.61,1.85,1.47,3.18,1.75A6.13,6.13,0,0,0,50,18.85c1.2-.56,1.94-1.53,3.3-1.81a5.63,5.63,0,0,1,3.74.47c.63.34,1.1.89,1.72,1.23a6,6,0,0,0,6.19-.41,5.6,5.6,0,0,1,3.91-1.41,5.3,5.3,0,0,1,2,.48c.78.36,1.35,1,2.12,1.4,0-.14.06-.43,0-.54s-.88-.67-1.12-.85a5.28,5.28,0,0,0-2.25-.91A5.71,5.71,0,0,0,64.87,17.73Z"/><path class="a" d="M64.33,33.46a5.36,5.36,0,0,1-6.32.31,7,7,0,0,0-2.88-1.52,6.2,6.2,0,0,0-3.51.34c-1,.42-1.72,1.31-2.77,1.7a5.75,5.75,0,0,1-3.41.15c-1.16-.29-1.83-1.11-2.84-1.64a6,6,0,0,0-3.47-.61,5.71,5.71,0,0,0-3.07,1.35,5.47,5.47,0,0,1-6.32.15,6.37,6.37,0,0,0-3-1.48,6.19,6.19,0,0,0-3.37.43c-1,.45-1.7,1.33-2.77,1.69a5.86,5.86,0,0,1-3.42.08c-1.12-.32-1.79-1.16-2.79-1.67a6.16,6.16,0,0,0-3.73-.51c-1.37.23-2.11,1-3.22,1.67a5.58,5.58,0,0,1-3.84.63C2.11,34.26,1.29,33.22,0,32.66c0,.62.08.52.61.9a8.07,8.07,0,0,0,2,1.24,6.12,6.12,0,0,0,4.73-.3c1.27-.66,2-1.59,3.52-1.8a5.37,5.37,0,0,1,3.88.88,6.27,6.27,0,0,0,3.57,1.54,5.73,5.73,0,0,0,3.81-1.06A5.51,5.51,0,0,1,29.3,34a5.7,5.7,0,0,0,4.17,1.11,5.62,5.62,0,0,0,2.23-.68c.33-.19,1.61-1,1.34-1.3.12.35,1-.21,1.38-.29a5.88,5.88,0,0,1,1.92-.16,6,6,0,0,1,3.24,1.47,5.9,5.9,0,0,0,6.92-.23,5.4,5.4,0,0,1,6.7-.16,5.87,5.87,0,0,0,4.1,1.38,6.62,6.62,0,0,0,3.76-1.61A5.37,5.37,0,0,1,69,32.72c1.64.26,2.53,1.52,4,2.06,0-.13.06-.45,0-.55s-1-.56-1.28-.77a5.58,5.58,0,0,0-2.37-1.18A5.74,5.74,0,0,0,64.33,33.46Z"/><path class="a" d="M64.33,44.39A5.35,5.35,0,0,1,58,44.7a7,7,0,0,0-2.88-1.51,6.29,6.29,0,0,0-3.51.33c-1,.43-1.72,1.32-2.77,1.71a5.83,5.83,0,0,1-3.41.15c-1.15-.3-1.81-1.1-2.81-1.64a6,6,0,0,0-3.31-.64c-2.39.2-3.74,2.29-6.11,2.45a5.36,5.36,0,0,1-3.27-.78,7.91,7.91,0,0,0-3-1.58,6.22,6.22,0,0,0-3.39.29c-1,.4-1.73,1.29-2.77,1.7a5.75,5.75,0,0,1-3.41.23c-1.16-.27-1.83-1-2.82-1.61a6.05,6.05,0,0,0-3.69-.67A6.83,6.83,0,0,0,7.59,44.7a5.37,5.37,0,0,1-3.77.81C2.27,45.3,1.45,44.27.11,43.64c0,.52.11.5.45.82a8.69,8.69,0,0,0,.75.61,5.1,5.1,0,0,0,1.74.8,6.17,6.17,0,0,0,3.89-.25c1.16-.48,1.91-1.47,3.14-1.82a5.74,5.74,0,0,1,3.79.22c1.14.5,1.89,1.46,3.14,1.82a6.27,6.27,0,0,0,3.9-.17c1.17-.45,1.93-1.45,3.14-1.83a5.73,5.73,0,0,1,3.79.13c1.16.46,1.91,1.45,3.14,1.83a6.33,6.33,0,0,0,3.78,0c1.23-.41,2-1.47,3.25-1.88a5.82,5.82,0,0,1,3.8,0c1.17.43,1.93,1.44,3.13,1.84a6.37,6.37,0,0,0,3.91,0c1.19-.4,2-1.4,3.13-1.84a5.82,5.82,0,0,1,3.8,0A5.63,5.63,0,0,1,57.51,45a5.3,5.3,0,0,0,2.37,1,5.85,5.85,0,0,0,4.8-1.22,5.28,5.28,0,0,1,3.89-1.14,5.22,5.22,0,0,1,2.11.63,19.06,19.06,0,0,0,2,1.32c.1-.62-.13-.56-.59-.89s-.61-.52-1-.74a5.5,5.5,0,0,0-2.3-.8A5.67,5.67,0,0,0,64.33,44.39Z"/><path class="a" d="M64.33,38.92a5.33,5.33,0,0,1-6.32.31,6.9,6.9,0,0,0-3-1.53,6.19,6.19,0,0,0-3.38.36c-1,.42-1.72,1.31-2.77,1.7a5.83,5.83,0,0,1-3.41.15c-1.2-.31-1.87-1.16-2.92-1.7a6.1,6.1,0,0,0-3.34-.56c-2.36.24-3.7,2.33-6.11,2.44a5.25,5.25,0,0,1-3.24-.86,6.9,6.9,0,0,0-3-1.53,6.19,6.19,0,0,0-3.38.36c-1,.42-1.72,1.31-2.77,1.7a5.83,5.83,0,0,1-3.41.15c-1.2-.31-1.87-1.16-2.92-1.7a6.16,6.16,0,0,0-3.73-.51,8.54,8.54,0,0,0-3.22,1.67A5.56,5.56,0,0,1,3.56,40C2.1,39.73,1.29,38.69,0,38.12c0,.55,0,.52.49.83a11.53,11.53,0,0,0,1.7,1.15,6.15,6.15,0,0,0,3.88.33c1.31-.3,2-1.2,3.17-1.77a5.68,5.68,0,0,1,3.89-.36c1.29.34,2.07,1.35,3.27,1.85a6.2,6.2,0,0,0,3.76.28c1.34-.31,2.1-1.28,3.28-1.83a5.73,5.73,0,0,1,3.91-.27c1.26.36,2,1.41,3.26,1.87a6.27,6.27,0,0,0,3.9.17c1.25-.36,2-1.33,3.14-1.82a5.77,5.77,0,0,1,3.91-.18c1.25.39,2,1.44,3.26,1.88a6.33,6.33,0,0,0,3.78.12C49.88,40,50.66,39,51.86,38.5a5.8,5.8,0,0,1,3.92-.09c1.52.52,2.43,1.8,4.1,2.09a5.91,5.91,0,0,0,4.8-1.21,5.33,5.33,0,0,1,4.15-1.12c1.72.23,2.62,1.52,4.17,2.07,0-.13.06-.44,0-.54s-1-.56-1.28-.78a5.56,5.56,0,0,0-2.37-1.17A5.74,5.74,0,0,0,64.33,38.92Z"/><path class="a" d="M64.33,28A5.36,5.36,0,0,1,58,28.3a6.81,6.81,0,0,0-3-1.54,6.29,6.29,0,0,0-3.38.36c-1,.42-1.72,1.31-2.77,1.7a5.75,5.75,0,0,1-3.41.15c-1.2-.3-1.87-1.16-2.92-1.69a6,6,0,0,0-3.34-.57c-2.36.24-3.7,2.33-6.11,2.44a5.31,5.31,0,0,1-3.24-.85,6.81,6.81,0,0,0-3-1.54,6.19,6.19,0,0,0-3.38.36c-1,.42-1.72,1.31-2.77,1.7a5.75,5.75,0,0,1-3.41.15c-1.2-.3-1.87-1.16-2.92-1.69a6.09,6.09,0,0,0-3.73-.52,8.54,8.54,0,0,0-3.22,1.67,5.53,5.53,0,0,1-3.84.63C2.1,28.8,1.29,27.76,0,27.19c0,.54,0,.51.49.82a11.59,11.59,0,0,0,1.7,1.16,6.22,6.22,0,0,0,3.88.32c1.31-.3,2-1.2,3.17-1.77a5.68,5.68,0,0,1,3.89-.36c1.29.34,2.07,1.36,3.27,1.86a6.23,6.23,0,0,0,3.77.28c1.33-.32,2.09-1.29,3.27-1.84a5.85,5.85,0,0,1,3.91-.27c1.26.36,2,1.41,3.26,1.88a6.27,6.27,0,0,0,3.9.16c1.25-.35,2-1.32,3.14-1.82a5.77,5.77,0,0,1,3.91-.18c1.25.39,2,1.44,3.26,1.88a6.25,6.25,0,0,0,3.78.12c1.28-.36,2.06-1.39,3.26-1.87a5.8,5.8,0,0,1,3.92-.09c1.52.52,2.43,1.8,4.1,2.09a5.84,5.84,0,0,0,4.8-1.21,5.33,5.33,0,0,1,4.15-1.12c1.72.23,2.62,1.52,4.17,2.08,0-.13.06-.45,0-.55s-1-.56-1.28-.77a5.58,5.58,0,0,0-2.37-1.18A5.74,5.74,0,0,0,64.33,28Z"/><path class="a" d="M64.6,49.87a5.36,5.36,0,0,1-6.32.31,6.89,6.89,0,0,0-2.88-1.51,6.17,6.17,0,0,0-3.27.24c-1.06.38-1.75,1.26-2.77,1.7a5.81,5.81,0,0,1-3.4.31,8.63,8.63,0,0,1-2.84-1.58,5.92,5.92,0,0,0-3.27-.78,5.59,5.59,0,0,0-3,1A6,6,0,0,1,33.88,51a5.55,5.55,0,0,1-3.35-.54c-1-.53-1.67-1.33-2.8-1.65a6.37,6.37,0,0,0-3.41,0c-1.13.32-1.79,1.11-2.79,1.65a5.59,5.59,0,0,1-6.18-.81,5.87,5.87,0,0,0-7,.16,5.42,5.42,0,0,1-6.94,0,1.86,1.86,0,0,0,1.31,1.37,5.79,5.79,0,0,0,1.88.39,5.69,5.69,0,0,0,3.6-1,6,6,0,0,1,3.21-1.47,5.3,5.3,0,0,1,3.51.83,6.9,6.9,0,0,0,3.14,1.56,6.19,6.19,0,0,0,3.6-.54c1.14-.58,1.86-1.48,3.18-1.76a5.67,5.67,0,0,1,3.63.42c1.09.55,1.8,1.43,3,1.74a6.23,6.23,0,0,0,3.65-.15c1.14-.41,1.88-1.38,3-1.79a5.83,5.83,0,0,1,3.67-.09c1.17.37,1.9,1.33,3,1.79a6.17,6.17,0,0,0,3.63.3c1.29-.27,2-1,3.08-1.68a5.51,5.51,0,0,1,3.59-.58c1.57.25,2.4,1.39,3.8,2a6.16,6.16,0,0,0,4.75-.05,16.69,16.69,0,0,0,1.84-1.27,5.06,5.06,0,0,1,2-.66,5.27,5.27,0,0,1,4,1c.18-.46.2-.5-.24-.76a5.73,5.73,0,0,0-.94-.44,6.26,6.26,0,0,0-2-.33A5.34,5.34,0,0,0,64.6,49.87Z"/><path class="a" d="M64.6,55.34a5.38,5.38,0,0,1-5.89.57,22.06,22.06,0,0,0-2.3-1.49,6.3,6.3,0,0,0-3.13-.33c-2.15.32-3.39,2.2-5.58,2.39A5.58,5.58,0,0,1,44.85,56c-.93-.43-1.56-1.22-2.53-1.6a6,6,0,0,0-5.9.92,5.45,5.45,0,0,1-5.66.68c-.85-.39-1.44-1.12-2.3-1.5a6.14,6.14,0,0,0-3.36-.43c-2.06.3-3.25,2.08-5.31,2.36a5.62,5.62,0,0,1-3.35-.54c-1-.53-1.67-1.33-2.8-1.65a6.37,6.37,0,0,0-3.41,0c-1.32.37-2.14,1.45-3.4,1.91.79.36,1.12,0,1.76-.47a4.91,4.91,0,0,1,1.27-.79A5.84,5.84,0,0,1,13,54.63a5.41,5.41,0,0,1,2.51,1.27A5.59,5.59,0,0,0,18.91,57a5.76,5.76,0,0,0,3.29-.91A6.69,6.69,0,0,1,25,54.63a5.87,5.87,0,0,1,2.91.19c1.08.37,1.78,1.27,2.82,1.72a6.21,6.21,0,0,0,2.86.44,6.59,6.59,0,0,0,3.6-1.59,5.49,5.49,0,0,1,5.73-.14,9.51,9.51,0,0,0,2.83,1.59,6.42,6.42,0,0,0,3.53-.18c1-.37,1.69-1.2,2.65-1.65A5.76,5.76,0,0,1,55,54.58a6.49,6.49,0,0,1,3,1.51A5.7,5.7,0,0,0,61.4,57a6,6,0,0,0,3.76-1.49A4.6,4.6,0,0,1,67,54.68c.81-.18,1.43,0,2-.6A5.62,5.62,0,0,0,64.6,55.34Z"/></g></svg>