<svg viewBox="0 0 65.2 57.36" xmlns="http://www.w3.org/2000/svg" xmlns:xlink="http://www.w3.org/1999/xlink"><pattern id="a" height="5.97" patternTransform="matrix(.89 0 0 -1 -51.4 16423.34)" patternUnits="userSpaceOnUse" viewBox="0 0 5.97 5.97" width="5.97"><path d="m0 0h5.97v5.97h-5.97z" fill="none"/><path d="m0 2.99h2.99v2.99h-2.99z" fill="#8bbfe9"/><path d="m2.99 2.99h2.99v2.99h-2.99z" fill="#8bbfe9"/><path d="m2.99 2.99h2.99v2.99h-2.99z" fill="#fff" opacity=".5"/><path d="m0 0h2.99v2.99h-2.99z" fill="#8bbfe9"/><path d="m0 0h2.99v2.99h-2.99z" fill="#fff" opacity=".5"/></pattern><path d="m55.56 57.36h-45.93c-6.57 0-9.63-7.18-9.63-16v-25.36c0-8.83 3.06-16 9.63-16h45.93c6.57 0 9.64 7.17 9.64 16v25.36c0 8.82-3.07 16-9.64 16" fill="url(#a)" opacity=".6"/></svg>