<svg viewBox="0 0 94 94.06" xmlns="http://www.w3.org/2000/svg"><circle cx="47" cy="47.03" fill="#fff" r="47.03"/><g opacity=".6"><path d="m43.07 93.88c1.3.11 2.6.18 3.93.18s2.63-.07 3.93-.18z" fill="none"/><g fill="#cfafa1"><path d="m38.12 47.58c3.2-2.48 5.79-6.21 5.54-10.25s-4.33-7.8-8.2-6.62a9.17 9.17 0 0 0 -3.33 2.12v19.39c.14-.16.29-.32.44-.47a61.36 61.36 0 0 1 5.55-4.17z"/><path d="m58.75 59.36a13.87 13.87 0 0 0 -1.29 1.46 15.28 15.28 0 0 0 -1.09 1.62 14.75 14.75 0 0 0 -1.2 2.66q-.15.47-.27.93a11.38 11.38 0 0 0 0 5.65c.08.32.18.62.29.93 1.57-.14 3.15-.22 4.72-.35a5.18 5.18 0 0 0 4.35-3.16c1.18-2.69 4.51-3.59 6.62-5.62a7.79 7.79 0 0 0 1.31-9.24c-.16-.28-.34-.55-.52-.82a28.3 28.3 0 0 0 -9.9 3.58 18.48 18.48 0 0 0 -3.02 2.36z"/><path d="m46.46 53.55c-.2.42-.41.85-.63 1.27-1.55 3-3.62 5.75-6.67 7a7.53 7.53 0 0 1 -7-.82v3a26.67 26.67 0 0 0 3.69.13c5.08-.2 10.47-2.46 12.7-7 1.44-2.94 1.35-6.28 1.35-9.61a18.31 18.31 0 0 0 -2.49 4.11c-.34.61-.64 1.27-.95 1.92z"/><path d="m90.62 54.34c0-.12 0-.23 0-.34a10.27 10.27 0 0 0 -.92-.51.53.53 0 0 0 -.35 0c-.58.1-1.16.21-1.73.36-3.47.85-7 3.05-7.72 6.55a4.78 4.78 0 0 0 2.55 5.12h.07c1.17-1.3 3.15-2.1 4.56-3.28 2.29-1.88 3.13-4.98 3.54-7.9z"/><path d="m81.62 17.1c-.22.08-.43.17-.65.24a18.45 18.45 0 0 1 -5.48.91h-1.11a33.92 33.92 0 0 1 -5.52-.66c-2 1.16-3.65 3.11-3.62 5.41 0 4.1 4.85 6.65 6 10.52a5.29 5.29 0 0 1 .17.79 7.15 7.15 0 0 1 -3.06 6.47 10.39 10.39 0 0 1 -2.1 1.22c-.57 2.26 1.62 4.28 4.54 3.55 2-.5 3.62-2 5.36-3.07a17.05 17.05 0 0 1 7.66-2.59 8.9 8.9 0 0 1 1.86 0 28.34 28.34 0 0 0 6.25-6.81c-.31-1-.66-2-1-2.9-.35.24-.69.48-1 .7-2 1.32-4.34 2.45-6.74 2.19a6.34 6.34 0 0 1 -2.37-11.89 11.79 11.79 0 0 1 4.69-1.18c-.84-1.19-1.73-2.35-2.68-3.46l-.37.18z"/><path d="m70.27 87.61c.19-.18.39-.35.59-.52l.59-.5.31-.24a13.83 13.83 0 0 0 -3.71-1.89c-2.59-.74-5.35-.06-8 0a17.45 17.45 0 0 1 -6.92-1.27l-.47.2c-3.36 1.33-7.44 2.06-10.42 0-3.38-2.33-4.17-7.46-7.83-9.31a6.37 6.37 0 0 0 -2.24-.65v15c.27 0 .55 0 .83-.06a19.81 19.81 0 0 1 2.31 0c.85 0 1.7.11 2.54.2 1.47.16 2.93.4 4.39.66a131.21 131.21 0 0 0 13.17 2.24c1 .07 2.07.11 3.11.08a27.14 27.14 0 0 0 3.13-.26c.52-.08 1-.17 1.55-.28s.76-.17 1.13-.27a47.13 47.13 0 0 0 4.94-2.28l.74-.62z"/><path d="m37.47 19c3.71.86 7.44 2 11.23 1.75s7.64-2.34 8.79-5.88q-1.17-.24-2.34-.42c-.37-.06-.75-.11-1.12-.15a23.06 23.06 0 0 0 -6.69.06 17.32 17.32 0 0 0 -2.19.51c-1.12.35-2.2.81-3.28 1.27s-1.87.86-2.82 1.16c-.35.11-.7.22-1 .31s-.85.2-1.28.27l-.39.06h-.11a10.31 10.31 0 0 1 -4.09-.46v.73a30.1 30.1 0 0 1 5.29.79z"/></g><path d="m42.2 83.39c3 2.06 7.06 1.33 10.42 0l.47-.2a17.29 17.29 0 0 1 -3.51-1.91 5.33 5.33 0 0 1 -2.58-3.5 4.11 4.11 0 0 1 2-3.71 10.1 10.1 0 0 1 4.25-1.27c.61-.08 1.22-.14 1.83-.19-.11-.31-.21-.61-.29-.93a11.38 11.38 0 0 1 0-5.65q.12-.47.27-.93a14.75 14.75 0 0 1 1.2-2.66 15.28 15.28 0 0 1 1.09-1.62 13.87 13.87 0 0 1 1.29-1.46 18.48 18.48 0 0 1 3-2.36 28.3 28.3 0 0 1 9.86-3.6 7.59 7.59 0 0 1 -1.5-3.31 4.63 4.63 0 0 1 2.5-4.17 20.23 20.23 0 0 1 4.83-1.7 25.28 25.28 0 0 0 8.38-4.35 8.9 8.9 0 0 0 -1.86 0 17.05 17.05 0 0 0 -7.66 2.59c-1.74 1.11-3.35 2.57-5.36 3.07-2.92.73-5.11-1.29-4.54-3.55a19.31 19.31 0 0 1 -4.92 1.36c-3.58.56-7.49.72-10.31 3a9.61 9.61 0 0 0 -1.15 1.15c0 3.33.09 6.67-1.35 9.61-2.23 4.58-7.62 6.84-12.7 7a26.67 26.67 0 0 1 -3.73-.1v9.44a6.37 6.37 0 0 1 2.24.65c3.63 1.84 4.45 6.97 7.83 9.3z" fill="#736859"/><path d="m36.72 17.88-.39.06z" fill="#9a8966"/><path d="m85.67 39.87a25.28 25.28 0 0 1 -8.38 4.35 20.23 20.23 0 0 0 -4.83 1.7 4.63 4.63 0 0 0 -2.46 4.17 7.59 7.59 0 0 0 1.67 3.31c.18.27.36.54.52.82a7.79 7.79 0 0 1 -1.31 9.24c-2.11 2-5.44 2.93-6.62 5.62a5.18 5.18 0 0 1 -4.35 3.16c-1.57.13-3.15.21-4.72.35-.61 0-1.22.11-1.83.19a10.1 10.1 0 0 0 -4.25 1.27 4.11 4.11 0 0 0 -2 3.71 5.33 5.33 0 0 0 2.56 3.5 17.5 17.5 0 0 0 10.33 3.2c2.69-.06 5.45-.74 8 0a13.83 13.83 0 0 1 3.71 1.89 4.9 4.9 0 0 1 2.98-1.35 47.26 47.26 0 0 0 12.22-13.11h-.58c-2.49-.07-5.15-2.14-4.69-4.59a3.59 3.59 0 0 1 .91-1.76h-.07a4.78 4.78 0 0 1 -2.55-5.12c.67-3.5 4.25-5.7 7.72-6.55.57-.15 1.15-.26 1.73-.36a.53.53 0 0 1 .35 0 10.27 10.27 0 0 1 .92.51c.38-2.83.56-5.75 1.84-8.29a8.24 8.24 0 0 1 1.4-2 46.55 46.55 0 0 0 -2-10.69 28.34 28.34 0 0 1 -6.22 6.83z" fill="#fffef2"/><path d="m92.5 45.71c-1.28 2.54-1.5 5.46-1.84 8.29v.34c-.41 2.92-1.25 6-3.51 7.93-1.41 1.18-3.39 2-4.56 3.28a3.59 3.59 0 0 0 -.91 1.76c-.46 2.45 2.2 4.52 4.69 4.59h.58a46.75 46.75 0 0 0 7.05-24.9c0-1.1-.06-2.2-.13-3.28a8.24 8.24 0 0 0 -1.37 1.99z" fill="#9a8966"/><path d="m48.7 20.79c-3.79.27-7.52-.89-11.23-1.75a30.1 30.1 0 0 0 -5.34-.82v14.61a9.17 9.17 0 0 1 3.33-2.12c3.87-1.18 7.95 2.59 8.2 6.62s-2.34 7.77-5.54 10.25a61.36 61.36 0 0 0 -5.55 4.17c-.15.15-.3.31-.44.47v8.78a7.53 7.53 0 0 0 7 .82c3.05-1.26 5.12-4 6.67-7 .22-.42.43-.85.63-1.27.31-.65.61-1.31.92-2a18.31 18.31 0 0 1 2.49-4.11 9.61 9.61 0 0 1 1.16-1.12c2.82-2.28 6.73-2.44 10.31-3a19.31 19.31 0 0 0 4.94-1.32 10.39 10.39 0 0 0 2.07-1.19 7.15 7.15 0 0 0 3.06-6.47 5.29 5.29 0 0 0 -.17-.79c-1.12-3.87-5.93-6.42-6-10.52 0-2.3 1.57-4.25 3.62-5.41-.78-.15-1.57-.32-2.36-.5l-1.13-.27-2.27-.57-1.07-.28c-1.49-.37-3-.74-4.47-1-1.19 3.45-5.1 5.52-8.83 5.79z" fill="#fffef2"/><path d="m77.55 28a6.5 6.5 0 0 0 5.57 5.07c2.4.26 4.72-.87 6.74-2.19.35-.22.69-.46 1-.7a47 47 0 0 0 -5.36-10.18 11.79 11.79 0 0 0 -4.75 1.12 6.51 6.51 0 0 0 -3.2 6.88z" fill="#736859"/><path d="m42.2 89.25a131.21 131.21 0 0 0 13.17 2.24c1 .07 2.07.11 3.11.08-1 0-2.08 0-3.11-.08a131.21 131.21 0 0 1 -13.17-2.24z" fill="#9a8966"/><path d="m36.22 18h.11l.39-.06c.43-.07.86-.16 1.28-.27s.7-.2 1-.31c1-.33 1.88-.72 2.82-1.12s2.16-.92 3.28-1.27a17.32 17.32 0 0 1 2.19-.51 23.06 23.06 0 0 1 6.71-.12c.37 0 .75.09 1.12.15q1.17.18 2.34.42c1.49.3 3 .67 4.47 1l1.14.29 2.27.57 1.13.27c.79.18 1.58.35 2.36.5a33.92 33.92 0 0 0 5.52.66h1.11a18.45 18.45 0 0 0 5.54-.86c.22-.07.43-.16.65-.24l.83-.34.37-.18a47 47 0 0 0 -50.72-14.17v15.08a10.31 10.31 0 0 0 4.09.51z" fill="#9a8966"/><path d="m7.73 69.52a40 40 0 0 1 -4.54-6.91l-.38.56a47.08 47.08 0 0 0 9.71 15.83c.83-1.68.91-3.67 1.35-5.49a12.75 12.75 0 0 1 -6.14-3.99z" fill="#cfafa1"/><path d="m32.13 73.43a11.5 11.5 0 0 0 -3.83.37 4.5 4.5 0 0 1 -.93.75 18.63 18.63 0 0 0 -2.2 1.33 8.74 8.74 0 0 0 -1.83 2.72 17.84 17.84 0 0 1 -4.74 5.9 46 46 0 0 0 8.75 5.25 13.82 13.82 0 0 1 4.78-1.29z" fill="#cfafa1"/><path d="m15.89 60.82c.43.19.87.39 1.3.6a23.88 23.88 0 0 1 3.57.46c3.78.74 7.55 1.75 11.37 2.11v-2.99a4.9 4.9 0 0 1 -2-3.07 7 7 0 0 1 2-5.72v-19.38c-1.8 1.62-3.44 3.52-5.77 3.82a4.51 4.51 0 0 1 -1.8-.14 5.25 5.25 0 0 1 -1.62-.77 8.1 8.1 0 0 1 -3.18-5.32v-.36a5.17 5.17 0 0 1 -1.66 2.45 5.56 5.56 0 0 1 -7.4-.69 11.34 11.34 0 0 1 -1.14-1.74c-1.64 1.46-3.29 2.92-3.56 4.92a6.49 6.49 0 0 0 1.11 4 10.24 10.24 0 0 1 9.65-1.53 10.26 10.26 0 0 1 6.16 11.27 7.89 7.89 0 0 1 -3.36 5.13c-2.71 1.69-6.26 1.15-9.27 2.24-.17.06-.33.14-.5.21 1.21 2.12 3.76 3.45 6.1 4.5z" fill="#cfafa1"/><path d="m26.25 19.08a13.63 13.63 0 0 1 5.88-.86v-.73a11.61 11.61 0 0 1 -1.8-.71 9.83 9.83 0 0 1 -1.09-.62 12 12 0 0 1 -1.95-1.54 14.36 14.36 0 0 1 -2.54-3.41 8.22 8.22 0 0 1 -2.32.9c-2.17.48-4.46.35-6.59 1s-4.21 2.43-4.09 4.66c.11 1.78 1.56 3.18 3.06 4.16s3.19 1.77 4.24 3.21a5 5 0 0 1 .83 1.86 11 11 0 0 1 6.37-7.92z" fill="#cfafa1"/><path d="m30.1 57.94a4.9 4.9 0 0 0 2 3.07v-8.79a7 7 0 0 0 -2 5.72z" fill="#fffef2"/><path d="m22.94 35.74a5.25 5.25 0 0 0 1.62.77 4.51 4.51 0 0 0 1.8.14c2.33-.3 4-2.2 5.77-3.82v-14.61a13.63 13.63 0 0 0 -5.88.86 11 11 0 0 0 -6.37 7.92 5.86 5.86 0 0 1 -.15 3.08v.36a8.1 8.1 0 0 0 3.21 5.3z" fill="#fffef2"/><path d="m20.76 61.88a23.88 23.88 0 0 0 -3.57-.46c2.44 1.19 4.81 2.76 5.39 5.32a4.71 4.71 0 0 1 -.07 2.33c2.76.68 7.8 2.5 5.79 4.73a11.5 11.5 0 0 1 3.83-.37v-9.43c-3.82-.37-7.59-1.38-11.37-2.12z" fill="#736859"/><path d="m27.21 8a4.62 4.62 0 0 1 -2.46 3.19 14.36 14.36 0 0 0 2.54 3.41 12 12 0 0 0 1.95 1.54 9.83 9.83 0 0 0 1.09.62 11.61 11.61 0 0 0 1.8.71v-15.06a47 47 0 0 0 -6 2.45 3.81 3.81 0 0 1 1.08 3.14z" fill="#9a8966"/><path d="m6.32 39.6a9.48 9.48 0 0 1 .79-.6 6.49 6.49 0 0 1 -1.11-4c.24-2.08 1.89-3.49 3.5-5a9 9 0 0 0 -1.39-2 5.33 5.33 0 0 0 -3.51-1.35 46.88 46.88 0 0 0 -4.44 16.28 7.45 7.45 0 0 1 2.2-1.15 7.3 7.3 0 0 0 3.96-2.18z" fill="#fffef2"/><path d="m22.58 66.74c-.58-2.56-2.95-4.13-5.39-5.32-.43-.21-.87-.41-1.3-.6-2.34-1-4.92-2.38-6.1-4.53-2.79 1.21-4.79 3.71-6.6 6.32a40 40 0 0 0 4.54 6.91 12.75 12.75 0 0 0 6.14 4 6.83 6.83 0 0 1 1.13-2.61 6.62 6.62 0 0 1 6.3-2.09c.29 0 .71.13 1.2.25a4.71 4.71 0 0 0 .08-2.33z" fill="#fffef2"/><path d="m9.79 56.29c.17-.07.33-.15.5-.21 3-1.09 6.56-.55 9.27-2.24a7.89 7.89 0 0 0 3.36-5.13 10.26 10.26 0 0 0 -6.16-11.27 10.24 10.24 0 0 0 -9.65 1.56 9.48 9.48 0 0 0 -.79.63 7.3 7.3 0 0 1 -4 2.18 7.45 7.45 0 0 0 -2.2 1.15c-.12 1.32-.12 2.69-.12 4.04a46.94 46.94 0 0 0 2.81 16.17l.38-.56c1.81-2.61 3.81-5.11 6.6-6.32z" fill="#9a8966"/><path d="m23.34 78.6a8.74 8.74 0 0 1 1.83-2.72 18.63 18.63 0 0 1 2.2-1.33 4.5 4.5 0 0 0 .93-.75c2-2.23-3-4-5.79-4.73-.49-.12-.91-.21-1.2-.25a6.62 6.62 0 0 0 -6.31 2.09 6.83 6.83 0 0 0 -1.14 2.6c-.44 1.82-.52 3.81-1.35 5.49a46.68 46.68 0 0 0 6.08 5.5 17.84 17.84 0 0 0 4.75-5.9z" fill="#9a8966"/><path d="m9.53 30.08a11.34 11.34 0 0 0 1.14 1.74 5.56 5.56 0 0 0 7.4.69 5.17 5.17 0 0 0 1.66-2.45 5.86 5.86 0 0 0 .15-3.06 5 5 0 0 0 -.83-1.84c-1.05-1.46-2.75-2.26-4.24-3.24s-3-2.38-3.06-4.16c-.12-2.23 1.95-4 4.09-4.66s4.42-.51 6.59-1a8.22 8.22 0 0 0 2.32-.9 4.62 4.62 0 0 0 2.46-3.2 3.81 3.81 0 0 0 -1-3.16 47.18 47.18 0 0 0 -21.61 21.81 5.33 5.33 0 0 1 3.54 1.43 9 9 0 0 1 1.39 2z" fill="#736859"/><path d="m64.29 90.76c-.37.1-.75.19-1.13.27s-1 .2-1.55.28a27.14 27.14 0 0 1 -3.13.26c-1 0-2.08 0-3.11-.08a131.21 131.21 0 0 1 -13.17-2.24c-1.46-.26-2.92-.5-4.39-.66-.84-.09-1.69-.16-2.54-.2a19.81 19.81 0 0 0 -2.31 0c-.28 0-.56 0-.83.06a13.82 13.82 0 0 0 -4.78 1.29 46.59 46.59 0 0 0 15.72 4.13h7.86a46.79 46.79 0 0 0 13.36-3.11z" fill="#9a8966"/><path d="m71.45 86.59-.59.5c-.2.17-.4.34-.59.52l-.3.25-.74.62a47.4 47.4 0 0 0 5.46-3.48 4.9 4.9 0 0 0 -2.93 1.32z" fill="#9a8966"/></g></svg>