<svg viewBox="0 0 94 94.06" xmlns="http://www.w3.org/2000/svg"><circle cx="47" cy="47.03" fill="#fff" r="47.03"/><g opacity=".6"><path d="m54.72.64q-1.08-.18-2.19-.3l-.06.06-.08-.08q-1.39-.17-2.73-.24l2.81 2.81z" fill="none"/><path d="m45.6 0c-.89 0-1.77.07-2.64.14l-.2.2-.16-.13c-.73.07-1.45.16-2.17.26l2.38 2.36z" fill="none"/><path d="m63.59 91a48 48 0 0 0 4.69-2l-1.28-1.35z" fill="none"/><path d="m34.23 1.77c-.58.16-1.16.33-1.73.52l.6.6z" fill="none"/><path d="m46.09 94h.91c.7 0 1.4 0 2.1-.06l-1.49-1.49z" fill="none"/><path d="m26.37 4.76c-1.3.63-2.57 1.33-3.8 2.07l.87.87z" fill="none"/><path d="m62.41 2.6c-.24-.08-.47-.17-.71-.24l.48.47z" fill="none"/><path d="m26.52 89.37a45.88 45.88 0 0 0 5.76 2.32l-4-4z" fill="none"/><path d="m72.24 7.36c-.66-.42-1.33-.83-2-1.22l1.62 1.62z" fill="none"/><path d="m86.34 29.46-4.84 4.84-4.8-4.79v-2.39l4.85 4.81 4.79-4.81 4.87 4.88.26-.26c-.38-1.09-.78-2.16-1.23-3.2l-3.9-3.9-4.84 4.83-4.8-4.8v-2.38l4.85 4.8 4.79-4.8 1.58 1.57c-.68-1.19-1.41-2.36-2.18-3.49l-4.24 4.24-4.8-4.8v-2.39l1.2 1.19 3.65 3.62 3.21-3.23c-.35-.47-.72-.94-1.09-1.4l-1 1-1.17 1.17-1.16-1.16-3.64-3.61v-2.41l4.85 4.81 1.06-1.07a47.27 47.27 0 0 0 -6.19-6l-4.58 4.58-4.84-4.84-4.85 4.84-4.79-4.8v-2.39l4.84 4.81 4.8-4.81 4.86 4.87 3.27-3.27c-.48-.35-1-.7-1.46-1l-1.83 1.78-4.84-4.87-4.85 4.84-4.81-4.79v-2.39l4.84 4.81 3.72-3.7c-.59-.26-1.18-.51-1.78-.74l-2 2-3.82-3.88c-.53-.13-1.06-.26-1.6-.37l-4.23 4.22-4.86-4.86-4.85 4.84-4.4-4.4-1 .19-4.26 4.23-2.35-2.35c-.61.23-1.21.47-1.81.72l4.16 4.16 4.9-4.87v2.34l-4.9 4.87-4.86-4.87-4.84 4.84-2.3-2.29c-.49.32-1 .66-1.44 1l3.78 3.75 4.8-4.81 4.86 4.87 4.9-4.87v2.35l-4.9 4.86-4.86-4.86-4.84 4.84-4.8-4.8v-.56.52l-4.87 4.86-.56-.56c-.41.43-.82.86-1.22 1.31l1.78 1.78 4.87-4.87v2.34l-3.68 3.68-1.19 1.19-1.18-1.19-1.68-1.68c-.38.45-.74.92-1.11 1.39l.3.29 3.67 3.68 3.68-3.68 1.19-1.19v2.34l-4.87 4.87-4.86-4.87-.62.62a48 48 0 0 0 -3.56 6.09l4.18-4.18 4.86 4.86 4.87-4.86v2.34l-4.87 4.86-4.86-4.86-4.87 4.84-.44-.47q-.36.86-.69 1.74l1.2 1.19 4.8-4.81 4.86 4.88 4.87-4.87v2.34l-4.87 4.87-4.86-4.88-4.87 4.84-1.74-1.77c-.21.63-.39 1.26-.57 1.9l2.38 2.36 4.8-4.79 4.86 4.87 4.87-4.87v2.35l-3.68 3.65-1.19 1.19-1.18-1.19-3.68-3.67-3.68 3.67-1.19 1.17-1.14-1.17-1.66-1.66c-.15.67-.29 1.34-.42 2l3.29 3.27 3.62-3.61 1.18-1.18 1.19 1.18 3.67 3.69 3.68-3.69 1.19-1.18v2.34l-4.87 4.84-4.86-4.84-4.87 4.84-3.56-3.58c-.1.73-.19 1.46-.26 2.21l3.89 3.86 4.8-4.81 4.86 4.87 4.87-4.87v2.32l-4.87 4.87-4.86-4.87-4.87 4.87-4-4v2.13.23l4.09 4.06 4.8-4.8 4.86 4.86 4.87-4.86v2.34l-4.87 4.86-4.88-4.83-4.87 4.84-4-4c.05.91.14 1.82.24 2.71l3.78 3.76 4.8-4.81 4.86 4.87 4.87-4.87v2.34l-3.63 3.7-1.19 1.19-1.18-1.19-3.68-3.68-3.68 3.68-1.19 1.16-1.14-1.16-2.16-2.16c.18 1 .39 2.06.64 3.07l2.73 2.69 3.62-3.6 1.18-1.19 1.19 1.19 3.67 3.68 3.68-3.68 1.19-1.19v2.35l-4.87 4.86-4.86-4.86-4.87 4.84-1.69-1.72c.44 1.34.93 2.65 1.48 3.92l.28.29 4.8-4.81 4.86 4.92 4.87-4.87v2.34l-4.87 4.86-4.86-4.91-4.17 4.17q.4.84.84 1.65l3.33-3.33 4.86 4.87 4.87-4.87v2.34l-4.87 4.87-4.86-4.87-2.48 2.48c.31.53.63 1.06 1 1.57l1.52-1.52 4.86 4.86 4.87-4.86v2.34l-3.72 3.68-1.19 1.2-1.18-1.2-3.68-3.68-.59.59a47.32 47.32 0 0 0 5.56 6.66l3.57-3.57 1.19-1.19v2.39l-3.6 3.51c.43.41.88.8 1.33 1.19l2.23-2.23v2.35l-1 .94a47 47 0 0 0 7.44 4.82l3.27-3.27 4.86 4.87 4.87-4.87v2.34l-4.44 4.44c.65.19 1.31.38 2 .55l2.44-2.47v2.34l-.56.56 1.31.25-.75-.76v-2.39l3.58 3.56c.76.09 1.53.16 2.3.21l3.76-3.77 3.68 3.68c.9-.08 1.79-.18 2.68-.31l3.37-3.37v2.34l-.51.51.78-.18-.27-.28v-2.39l2.19 2.18c.64-.17 1.27-.36 1.9-.56l-4.09-4.1v-2.38l4.84 4.81 4.79-4.81 2.84 2.84c.53-.3 1.06-.6 1.58-.91l-4.42-4.42-4.85 4.84-4.79-4.8v-2.39l4.84 4.81 4.8-4.81 4.86 4.87 4.86-4.87v2.35l-2.72 2.7c1-.73 2.06-1.5 3-2.32l-.35-.34v-2.39l1.63 1.62 1.28-1.19-2.86-2.9v-2.39l1.2 1.19 2.92 2.89a47.77 47.77 0 0 0 4.82-5.87l-3 3-1.14 1.18-1.16-1.2-3.64-3.64v-2.38l4.85 4.8 4.79-4.8.79.78c.32-.53.62-1.06.92-1.6l-1.71-1.71-4.84 4.85-4.8-4.8v-2.39l4.85 4.81 4.79-4.81 2.53 2.53c.28-.56.55-1.11.81-1.68l-3.34-3.34-4.84 4.84-4.8-4.79v-2.39l4.85 4.81 4.79-4.81 4.07 4.06c.25-.59.48-1.2.71-1.81l-4.78-4.77-4.84 4.84-4.8-4.8v-2.39l1.2 1.19 3.65 3.6 3.61-3.62 1.18-1.19 1.19 1.19 3.68 3.68 1-1c.32-1.09.61-2.2.85-3.33l-.62.61-1.18 1.19-1.26-1.13-3.68-3.68-3.65 3.68-1.17 1.16-1.16-1.16-3.64-3.63v-2.39l4.85 4.81 4.79-4.81 4.87 4.87 2.31-2.31c.13-.94.24-1.89.32-2.85l-2.63 2.63-4.87-4.86-4.84 4.84-4.8-4.8v-2.38l4.85 4.8 4.79-4.8 4.87 4.86 2.79-2.78c0-.52 0-1 0-1.57 0-.32 0-.62 0-.94l-2.79 2.8-4.87-4.89-4.84 4.87-4.8-4.8v-2.39l4.85 4.81 4.79-4.81 4.87 4.87 2.7-2.7q-.07-1.17-.21-2.31l-2.49 2.46-4.87-4.86-4.84 4.86-4.8-4.8v-2.38l1.2 1.18 3.65 3.63 3.61-3.63 1.18-1.18 1.19 1.18 3.68 3.69 2.2-2.21c-.11-.71-.24-1.41-.38-2.11l-.64.63-1.18 1.19-1.21-1.19-3.68-3.67-3.65 3.67-1.17 1.17-1.16-1.17-3.64-3.63v-2.37l4.85 4.81 4.79-4.81 4.87 4.87 1.38-1.38c-.17-.67-.35-1.32-.55-2l-.83.84zm-9.64 0-4.86 4.87-4.84-4.87-4.87 4.84-4.79-4.79v-2.39l4.84 4.81 4.82-4.81 4.84 4.88 4.86-4.87zm-19.36 8.54v1.16l-4.87 4.84-4.86-4.86-4.85 4.86-4.76-4.8v-2.38l1.16 1.18 3.65 3.63 3.61-3.63 1.19-1.18 1.18 1.18 3.68 3.69 3.68-3.69 1.19-1.18zm0 19.4v1.16l-4.87 4.86-4.86-4.86-4.85 4.84-4.76-4.8v-2.39l1.19 1.19 3.62 3.6 3.61-3.62 1.19-1.19 1.18 1.19 3.68 3.68 3.68-3.68 1.19-1.19zm0 19.4v1.2l-4.87 4.87-4.86-4.87-4.85 4.84-4.76-4.84v-2.39l1.19 1.19 3.65 3.62 3.61-3.62 1.19-1.19 1.18 1.19 3.68 3.68 3.68-3.68 1.19-1.19zm0-3.68-3.68 3.68-1.19 1.2-1.19-1.2-3.67-3.68-3.68 3.68-1.17 1.2-1.16-1.2-3.6-3.64v-2.38l4.84 4.8 4.8-4.8 4.86 4.86 4.87-4.86zm0-4.87-4.87 4.87-4.86-4.87-4.85 4.85-4.76-4.8v-2.39l4.84 4.81 4.8-4.81 4.86 4.87 4.87-4.87zm0-4.83-4.87 4.86-4.86-4.86-4.85 4.84-4.76-4.79v-2.39l4.84 4.81 4.8-4.81 4.83 4.92 4.87-4.87zm0-9.7-3.68 3.68-1.19 1.19-1.19-1.19-3.67-3.68-3.68 3.68-1.17 1.16-1.16-1.16-3.6-3.63v-2.39l4.84 4.81 4.8-4.81 4.86 4.87 4.87-4.87zm0-4.86-4.87 4.86-4.86-4.86-4.85 4.84-4.76-4.8v-2.38l4.84 4.8 4.8-4.8 4.86 4.86 4.87-4.86zm0-4.84-4.87 4.87-4.86-4.89-4.85 4.85-4.76-4.78v-2.39l4.84 4.81 4.8-4.81 4.86 4.87 4.87-4.87zm0-9.69-3.68 3.67-1.19 1.19-1.19-1.19-3.67-3.67-3.68 3.67-1.17 1.17-1.16-1.17-3.6-3.63v-2.37l4.84 4.81 4.77-4.81 4.86 4.87 4.87-4.87zm0-19.4-3.68 3.68-1.19 1.19-1.19-1.19-3.67-3.68-3.68 3.68-1.17 1.16-1.16-1.16-3.6-3.61v-2.41l4.84 4.81 4.8-4.81 4.86 4.87 4.87-4.87zm-19.34 2.49 1.19 1.19 3.65 3.62 3.61-3.62 1.19-1.19 1.18 1.19 3.68 3.68 3.68-3.68 1.19-1.19v2.34l-4.87 4.87-4.86-4.87-4.85 4.85-4.79-4.8zm4.84 9.67 4.8-4.8 4.86 4.86 4.87-4.86v2.34l-4.87 4.86-4.86-4.86-4.85 4.84-4.79-4.8v-2.38zm0 4.84 4.8-4.81 4.83 4.88 4.87-4.87v2.34l-4.87 4.87-4.86-4.87-4.85 4.83-4.76-4.79v-2.39zm33.89-7.3-4.86 4.86-4.87-4.86-4.85 4.84-4.79-4.8v-2.38l4.84 4.8 4.8-4.8 4.86 4.86 4.86-4.86zm0-6v1.15l-4.86 4.87-4.87-4.89-4.85 4.85-4.79-4.8v-2.39l1.19 1.19 3.65 3.62 3.61-3.62 1.19-1.19 1.18 1.19 3.68 3.68 3.68-3.68 1.18-1.19zm-14.55-1.23 4.82-4.81 4.86 4.87 4.86-4.87v2.34l-3.72 3.68-1.16 1.19-1.19-1.19-3.65-3.68-3.7 3.68-1.17 1.16-1.13-1.16-3.66-3.61v-2.41zm-19.37-9.7 4.8-4.81 4.86 4.87 4.87-4.87v2.34l-4.87 4.87-4.86-4.87-4.85 4.84-4.76-4.79v-2.39zm0 4.83 4.8-4.81 4.86 4.87 4.87-4.87v2.35l-4.87 4.86-4.86-4.86-4.85 4.84-4.76-4.8v-2.39zm-19.37 4.87 4.8-4.81 4.86 4.87 4.9-4.87v2.34l-3.68 3.68-1.22 1.19-1.18-1.19-3.68-3.68-3.68 3.68-1.16 1.16-1.17-1.16-3.63-3.61v-2.41zm-4.84 0 1.19 1.19 3.65 3.62 3.61-3.62 1.19-1.19 1.18 1.19 3.68 3.68 3.68-3.68 1.22-1.17v2.34l-4.9 4.87-4.86-4.87-4.84 4.85-4.8-4.8v-2.39zm4.84 9.67 4.8-4.8 4.86 4.86 4.9-4.84v2.34l-4.9 4.86-4.86-4.86-4.84 4.84-4.8-4.8v-2.38zm0 4.84 4.8-4.81 4.86 4.9 4.9-4.88v2.34l-4.9 4.87-4.86-4.87-4.84 4.84-4.8-4.79v-2.39zm0 4.86 4.8-4.77 4.86 4.87 4.9-4.87v2.35l-3.71 3.65-1.19 1.19-1.18-1.19-3.68-3.67-3.68 3.67-1.16 1.17-1.17-1.17-3.63-3.63v-2.37zm-4.84 0 1.19 1.23 3.65 3.63 3.61-3.63 1.19-1.18 1.18 1.18 3.68 3.69 3.68-3.69 1.22-1.18v2.34l-4.9 4.84-4.86-4.86-4.84 4.86-4.8-4.8v-2.38zm4.84 9.67 4.8-4.81 4.86 4.87 4.9-4.82v2.32l-4.9 4.89-4.86-4.89-4.84 4.87-4.8-4.8v-2.39zm0 4.83 4.8-4.8 4.86 4.86 4.9-4.81v2.34l-4.9 4.86-4.86-4.86-4.84 4.84-4.8-4.8v-2.38zm0 4.87 4.8-4.81 4.86 4.87 4.9-4.82v2.34l-3.71 3.68-1.19 1.19-1.18-1.19-3.68-3.68-3.68 3.68-1.16 1.16-1.17-1.16-3.63-3.63v-2.39zm-4.84 0 1.19 1.19 3.65 3.67 3.61-3.62 1.19-1.19 1.18 1.19 3.68 3.68 3.68-3.68 1.22-1.17v2.35l-4.9 4.86-4.86-4.86-4.84 4.84-4.8-4.8v-2.39zm4.84 9.68 4.8-4.81 4.86 4.99 4.9-4.92v2.34l-4.9 4.86-4.86-4.86-4.84 4.84-4.8-4.79v-2.39zm0 4.83 4.8-4.81 4.86 4.87 4.9-4.8v2.34l-4.9 4.87-4.86-4.87-4.84 4.85-4.8-4.8v-2.39zm0 4.86 4.8-4.8 4.86 4.86 4.9-4.79v2.34l-3.71 3.68-1.19 1.2-1.18-1.2-3.68-3.68-3.68 3.68-1.16 1.2-1.17-1.2-3.63-3.64v-2.38zm-4.84 0 1.19 1.19 3.65 3.62 3.61-3.62 1.19-1.19 1.18 1.19 3.68 3.68 3.68-3.68 1.22-1.09v2.39l-4.9 4.82-4.86-4.82-4.84 4.79-4.8-4.79v-2.39zm14.5 12.17-4.86-4.86-4.84 4.84-4.8-4.8v-2.39l4.84 4.81 4.8-4.81 4.86 4.87 4.9-4.87v2.35zm24.24 0-4.87 4.86-4.86-4.86-4.85 4.84-4.76-4.83v-2.38l4.84 4.81 4.8-4.81 4.86 4.87 4.87-4.87zm0-4.83-4.87 4.86-4.86-4.86-4.85 4.84-4.76-4.83v-2.39l4.84 4.81 4.8-4.81 4.86 4.87 4.87-4.87zm19.36-6v1.15l-4.86 4.87-4.84-4.87-4.85 4.84-4.81-4.84v-2.39l1.19 1.19 3.65 3.62 3.61-3.62 1.21-1.19 1.18 1.19 3.68 3.68 3.68-3.68 1.18-1.19zm0-3.68-3.7 3.63-1.16 1.2-1.19-1.2-3.65-3.68-3.7 3.68-1.17 1.2-1.13-1.2-3.63-3.64v-2.38l4.84 4.8 4.8-4.8 4.86 4.86 4.86-4.86zm0-4.87-4.86 4.87-4.84-4.92-4.87 4.85-4.79-4.8v-2.39l4.84 4.81 4.82-4.81 4.86 4.87 4.86-4.87zm0-4.83-4.86 4.86-4.84-4.91-4.85 4.84-4.79-4.79v-2.39l4.84 4.81 4.8-4.81 4.84 4.92 4.86-4.87zm0-6v1.16l-4.86 4.86-4.84-4.93-4.87 4.84-4.79-4.8v-2.39l1.19 1.19 3.65 3.6 3.61-3.62 1.21-1.17 1.18 1.19 3.68 3.68 3.68-3.68 1.18-1.19zm0-3.68-3.7 3.61-1.19 1.19-1.16-1.19-3.65-3.68-3.7 3.68-1.17 1.16-1.13-1.16-3.63-3.63v-2.39l4.84 4.81 4.79-4.81 4.86 4.87 4.86-4.87zm0-4.86-4.86 4.86-4.84-4.93-4.87 4.84-4.79-4.8v-2.38l4.84 4.8 4.8-4.8 4.86 4.86 4.86-4.86zm0-4.84-4.86 4.87-4.84-4.96-4.85 4.85-4.79-4.8v-2.37l4.84 4.81 4.8-4.81 4.86 4.87 4.86-4.87zm0-6v1.16l-4.86 4.75-4.84-4.84-4.87 4.84-4.79-4.8v-2.38l1.19 1.18 3.65 3.63 3.61-3.63 1.21-1.18 1.16 1.18 3.68 3.69 3.68-3.69 1.18-1.18zm0-3.67-3.7 3.58-1.19 1.19-1.16-1.19-3.65-3.67-3.7 3.67-1.17 1.17-1.13-1.17-3.63-3.63v-2.37l4.84 4.81 4.79-4.81 4.86 4.87 4.84-4.87z" fill="none"/><g fill="#fdda05"><path d="m76.7 17.42v1.19h1.2z"/><path d="m76.7 12.59v2.41l3.64 3.63h2.33l1-1c-.34-.43-.7-.85-1.06-1.27l-1.06 1.04z"/><path d="m76.7 36.82v1.18h1.2z"/><path d="m86.34 36.82-1.18 1.18h2.37z"/><path d="m91.21 36.85-4.87-4.87-4.79 4.81-4.85-4.81v2.39l3.64 3.63h2.33l3.67-3.67 3.68 3.67h1.19z"/><path d="m91.21 38h1.18l.64-.63c-.13-.64-.28-1.27-.44-1.9l-1.38 1.38z"/><path d="m81.55 31.93-4.85-4.81v2.39l4.8 4.79 4.84-4.84 4.87 4.87v-2.34l-4.87-4.87z"/><path d="m91.21 32v2.34l.83-.84c-.18-.59-.37-1.18-.57-1.76z"/><path d="m81.55 27.09-4.85-4.8v2.38l4.8 4.8 4.84-4.84 3.9 3.9a46.11 46.11 0 0 0 -2.32-4.67l-1.58-1.57z"/><path d="m77.9 18.61h-1.2v1.2l4.8 4.8 4.24-4.24c-.32-.46-.64-.92-1-1.37l-3.21 3.23z"/><path d="m81.5 19.77 1.17-1.16h-2.33z"/><path d="m76.7 56.21v1.19h1.2z"/><path d="m86.34 56.21-1.18 1.19h2.37z"/><path d="m91.21 56.25-4.87-4.87-4.79 4.81-4.85-4.81v2.39l3.64 3.63h2.33l3.67-3.68 3.68 3.68h1.19z"/><path d="m91.21 57.4h1.18l.62-.61c.19-.94.37-1.89.51-2.85l-2.31 2.31z"/><path d="m86.34 46.52-4.79 4.8-4.85-4.8v2.38l4.8 4.8 4.84-4.84 4.87 4.86v-2.34z"/><path d="m91.21 53.72 2.63-2.63q.1-1.23.15-2.49l-2.78 2.78z"/><path d="m86.34 41.68-4.79 4.81-4.85-4.81v2.39l4.8 4.8 4.84-4.85 4.87 4.87v-2.34z"/><path d="m91.21 48.89 2.79-2.8c0-.75 0-1.5-.09-2.24l-2.7 2.7z"/><path d="m87.53 38h-2.37l-3.61 3.63-3.65-3.63h-1.2v1.2l4.8 4.8 4.84-4.84 4.87 4.86v-2.33z"/><path d="m91.21 44 2.49-2.48c-.08-.69-.18-1.38-.29-2.06l-2.2 2.21z"/><path d="m81.5 39.17 1.17-1.17h-2.33z"/><path d="m90.02 38 1.19 1.19v-1.19z"/><path d="m91.21 39.19 1.18-1.19h-1.18z"/><path d="m76.7 75.61v1.19h1.2z"/><path d="m81.55 75.58-4.85-4.8v2.38l3.64 3.64h2.33l3-3c.51-.74 1-1.49 1.49-2.26l-.79-.78z"/><path d="m81.55 70.72-4.85-4.81v2.39l4.8 4.8 4.84-4.85 1.71 1.75c.28-.5.55-1 .82-1.52l-2.53-2.53z"/><path d="m81.55 65.89-4.85-4.81v2.39l4.8 4.79 4.84-4.84 3.34 3.34c.25-.53.5-1.07.73-1.62l-4.07-4.06z"/><path d="m87.53 57.4h-2.37l-3.61 3.6-3.65-3.6h-1.2v1.2l4.8 4.8 4.84-4.84 4.78 4.77.09-.24v-2z"/><path d="m91.21 63.09c.35-1 .66-2 1-3l-1 1z"/><path d="m90.02 57.4 1.19 1.19v-1.19z"/><path d="m81.5 58.56 1.17-1.16h-2.33z"/><path d="m91.21 58.59 1.18-1.19h-1.18z"/><path d="m76.7 82.86.35.34c.43-.36.86-.73 1.28-1.11l-1.63-1.62z"/><path d="m76.7 76.8v1.2l2.91 2.9c.41-.4.81-.8 1.21-1.21l-2.92-2.89z"/><path d="m81.5 77.96 1.17-1.16h-2.33z"/><path d="m66.97 17.42-1.18 1.19h2.37z"/><path d="m57.34 17.42v1.19h1.19z"/><path d="m76.7 18.61v-1.19l-1.18 1.19z"/><path d="m60.97 18.61h2.33l3.67-3.68 3.68 3.68h1.19v-1.15l-4.87-4.87-4.79 4.81-4.84-4.81v2.39z"/><path d="m73.03 18.61 3.67-3.68v-2.34l-4.86 4.87v1.15z"/><path d="m66.97 7.72-4.79 4.81-4.84-4.81v2.39l4.79 4.8 4.84-4.84 4.87 4.86v-2.34z"/><path d="m71.84 14.93 4.58-4.58c-.43-.35-.87-.7-1.31-1l-3.27 3.27z"/><path d="m57.34 2.89v2.39l4.79 4.79 4.87-4.84 4.86 4.87v-2.34l-1.64-1.62a47.1 47.1 0 0 0 -4.32-2.14l-3.72 3.7z"/><path d="m71.84 10.1 1.81-1.81q-.69-.48-1.41-.93l-.4.4z"/><path d="m64.12 3.23c-.57-.23-1.12-.43-1.71-.63l-.23.23-.48-.47c-1.12-.37-2.25-.7-3.4-1l3.83 3.83z"/><path d="m66.97 36.82-1.18 1.18h2.37z"/><path d="m57.34 36.82v1.18h1.19z"/><path d="m76.7 38v-1.18l-1.18 1.18z"/><path d="m71.84 36.85-4.87-4.87-4.79 4.81-4.84-4.81v2.39l3.63 3.63h2.33l3.67-3.67 3.68 3.67h1.19z"/><path d="m71.84 38h1.19l3.67-3.67v-2.35l-4.86 4.87z"/><path d="m66.97 27.12-4.79 4.81-4.84-4.81v2.39l4.79 4.79 4.84-4.84 4.87 4.87v-2.34z"/><path d="m71.84 34.33 4.86-4.87v-2.34l-4.86 4.87z"/><path d="m66.97 22.29-4.79 4.8-4.84-4.8v2.38l4.79 4.8 4.84-4.84 4.87 4.86v-2.34z"/><path d="m71.84 29.49 4.86-4.86v-2.34l-4.86 4.86z"/><path d="m68.16 18.61h-2.37l-3.61 3.62-3.65-3.62h-1.19v1.2l4.79 4.8 4.84-4.85 4.87 4.87v-2.34z"/><path d="m71.84 22.29v2.34l4.86-4.87v-1.15h-1.18z"/><path d="m62.13 19.77 1.17-1.16h-2.33z"/><path d="m70.65 18.61 1.19 1.19v-1.19z"/><path d="m71.84 19.8 1.19-1.19h-1.19z"/><path d="m66.97 56.21-1.18 1.19h2.37z"/><path d="m57.34 56.21v1.19h1.19z"/><path d="m76.7 57.4v-1.19l-1.18 1.19z"/><path d="m71.84 56.25-4.87-4.87-4.79 4.81-4.84-4.81v2.39l3.63 3.63h2.33l3.67-3.68 3.68 3.68h1.19z"/><path d="m71.84 57.4h1.19l3.67-3.68v-2.34l-4.86 4.87z"/><path d="m66.97 46.52-4.79 4.8-4.84-4.8v2.38l4.79 4.8 4.84-4.84 4.87 4.86v-2.34z"/><path d="m71.84 53.72 4.86-4.86v-2.34l-4.86 4.86z"/><path d="m66.97 41.68-4.79 4.81-4.84-4.81v2.39l4.79 4.8 4.84-4.85 4.87 4.87v-2.34z"/><path d="m71.84 48.89 4.86-4.87v-2.34l-4.86 4.87z"/><path d="m68.16 38h-2.37l-3.61 3.63-3.65-3.63h-1.19v1.2l4.79 4.8 4.84-4.84 4.87 4.86v-2.33z"/><path d="m71.84 41.69v2.33l4.86-4.86v-1.16h-1.18z"/><path d="m62.13 39.17 1.17-1.17h-2.33z"/><path d="m70.65 38 1.19 1.19v-1.19z"/><path d="m71.84 39.19 1.19-1.19h-1.19z"/><path d="m57.34 75.61v1.19h1.19z"/><path d="m66.97 75.61-1.18 1.19h2.37z"/><path d="m76.7 76.8v-1.19l-1.18 1.19z"/><path d="m71.84 75.64-4.87-4.86-4.79 4.8-4.84-4.8v2.38l3.63 3.64h2.33l3.67-3.68 3.68 3.68h1.19z"/><path d="m71.84 76.8h1.19l3.67-3.68v-2.34l-4.86 4.86z"/><path d="m66.97 65.91-4.79 4.81-4.84-4.81v2.39l4.79 4.8 4.84-4.85 4.87 4.87v-2.34z"/><path d="m71.84 73.12 4.86-4.87v-2.34l-4.86 4.87z"/><path d="m66.97 61.08-4.79 4.81-4.84-4.81v2.39l4.79 4.79 4.84-4.84 4.87 4.86v-2.33z"/><path d="m71.84 68.28 4.86-4.86v-2.34l-4.86 4.87z"/><path d="m71.84 61.08-3.68-3.68h-2.37l-3.61 3.62-3.65-3.62h-1.19v1.2l4.79 4.8 4.84-4.84 4.87 4.86z"/><path d="m71.84 61.08v2.34l4.86-4.86v-1.16h-1.18z"/><path d="m70.65 57.4 1.19 1.19v-1.19z"/><path d="m62.13 58.56 1.17-1.16h-2.33z"/><path d="m71.84 58.59 1.19-1.19h-1.19z"/><path d="m57.34 92.56.27.28c.65-.15 1.29-.31 1.92-.49l-2.19-2.18z"/><path d="m62.18 90.12-4.84-4.81v2.38l4.09 4.1q1.09-.35 2.16-.75l3.41-3.39 1.28 1.35c.52-.26 1-.53 1.54-.81l-2.82-2.88z"/><path d="m67 80.47-4.8 4.81-4.84-4.81v2.39l4.79 4.8 4.85-4.84 4.42 4.42.44-.28v-1.62z"/><path d="m76.7 80.47-4.86 4.87v1.66q1.09-.69 2.16-1.44l2.7-2.7z"/><path d="m68.16 76.8h-2.37l-3.61 3.62-3.65-3.62h-1.19v1.2l4.79 4.79 4.84-4.84 4.87 4.87v-2.34z"/><path d="m71.84 80.48v2.34l4.86-4.87v-1.15h-1.18z"/><path d="m62.13 77.96 1.17-1.16h-2.33z"/><path d="m70.65 76.8 1.19 1.18v-1.18z"/><path d="m71.84 77.98 1.19-1.18h-1.19z"/><path d="m47.61 17.42-1.19 1.19h2.37z"/><path d="m37.97 17.42v1.19h1.19z"/><path d="m57.34 17.42-1.19 1.19h1.19z"/><path d="m52.47 17.46-4.86-4.87-4.8 4.81-4.84-4.81v2.39l3.63 3.63h2.33l3.68-3.68 3.67 3.68h1.19z"/><path d="m52.47 18.61h1.19l3.68-3.68v-2.34l-4.87 4.87z"/><path d="m42.76 14.91 4.85-4.84 4.86 4.86v-2.34l-4.86-4.87-4.8 4.81-4.84-4.81v2.39z"/><path d="m57.34 10.07v-2.35l-4.87 4.87v2.34z"/><path d="m42.76 10.07 4.85-4.84 4.86 4.87v-2.34l-4.86-4.87-4.8 4.81-4.84-4.81v2.39z"/><path d="m57.34 5.23v-2.34l-4.87 4.87v2.34z"/><path d="m47.61.37 4.86 4.86v-2.34l-2.81-2.81c-.88-.08-1.77-.08-2.66-.08-.47 0-.93 0-1.4 0l-2.79 2.83-2.38-2.36c-.7.09-1.39.21-2.07.34l4.4 4.4z"/><path d="m52.47 5.23 4.23-4.23c-.66-.14-1.32-.26-2-.37l-2.23 2.26z"/><path d="m43 .18h-.36l.16.17z"/><path d="m52.47.33h-.08l.08.08z"/><path d="m52.53.34h-.06v.06z"/><path d="m37.97 36.82v1.18h1.19z"/><path d="m47.61 36.82-1.19 1.18h2.37z"/><path d="m57.34 38v-1.18l-1.19 1.18z"/><path d="m52.47 36.85-4.86-4.87-4.8 4.81-4.84-4.81v2.39l3.63 3.63h2.33l3.68-3.67 3.67 3.67h1.19z"/><path d="m52.47 38h1.19l3.68-3.67v-2.35l-4.87 4.87z"/><path d="m42.76 34.3 4.85-4.84 4.86 4.87v-2.34l-4.86-4.87-4.8 4.81-4.84-4.81v2.39z"/><path d="m57.34 29.46v-2.34l-4.87 4.87v2.34z"/><path d="m42.76 29.47 4.85-4.84 4.86 4.86v-2.34l-4.86-4.86-4.8 4.8-4.84-4.8v2.38z"/><path d="m57.34 24.63v-2.34l-4.87 4.86v2.34z"/><path d="m42.76 24.61 4.85-4.85 4.86 4.87v-2.34l-3.68-3.68h-2.37l-3.61 3.62-3.65-3.62h-1.19v1.2z"/><path d="m57.34 19.76v-1.15h-1.19l-3.68 3.68v2.34z"/><path d="m51.28 18.61 1.19 1.19v-1.19z"/><path d="m42.76 19.77 1.17-1.16h-2.33z"/><path d="m52.47 19.8 1.19-1.19h-1.19z"/><path d="m47.61 56.21-1.19 1.19h2.37z"/><path d="m37.97 56.21v1.19h1.19z"/><path d="m57.34 57.4v-1.19l-1.19 1.19z"/><path d="m52.47 56.25-4.86-4.87-4.8 4.81-4.84-4.81v2.39l3.63 3.63h2.33l3.68-3.68 3.67 3.68h1.19z"/><path d="m52.47 57.4h1.19l3.68-3.68v-2.34l-4.87 4.87z"/><path d="m47.61 46.52-4.8 4.8-4.84-4.8v2.38l4.79 4.8 4.85-4.84 4.86 4.86v-2.34z"/><path d="m52.47 53.72 4.87-4.86v-2.34l-4.87 4.86z"/><path d="m47.61 41.68-4.8 4.81-4.84-4.81v2.39l4.79 4.8 4.85-4.85 4.86 4.87v-2.34z"/><path d="m52.47 48.89 4.87-4.87v-2.34l-4.87 4.87z"/><path d="m48.79 38h-2.37l-3.61 3.63-3.65-3.63h-1.19v1.2l4.79 4.8 4.85-4.84 4.86 4.86v-2.33z"/><path d="m52.47 41.69v2.33l4.87-4.86v-1.16h-1.19z"/><path d="m42.76 39.17 1.17-1.17h-2.33z"/><path d="m51.28 38 1.19 1.19v-1.19z"/><path d="m52.47 39.19 1.19-1.19h-1.19z"/><path d="m37.97 75.61v1.19h1.19z"/><path d="m47.61 75.61-1.19 1.19h2.37z"/><path d="m57.34 76.8v-1.19l-1.19 1.19z"/><path d="m52.47 75.64-4.86-4.86-4.8 4.8-4.84-4.8v2.38l3.63 3.64h2.33l3.68-3.68 3.67 3.68h1.19z"/><path d="m52.47 76.8h1.19l3.68-3.68v-2.34l-4.87 4.86z"/><path d="m47.61 65.91-4.8 4.81-4.84-4.81v2.39l4.79 4.8 4.85-4.85 4.86 4.87v-2.34z"/><path d="m52.47 73.12 4.87-4.87v-2.34l-4.87 4.87z"/><path d="m47.61 61.08-4.8 4.81-4.84-4.81v2.39l4.79 4.79 4.85-4.84 4.86 4.86v-2.33z"/><path d="m52.47 68.28 4.87-4.86v-2.34l-4.87 4.87z"/><path d="m52.47 61.08-3.68-3.68h-2.37l-3.61 3.62-3.65-3.62h-1.19v1.2l4.79 4.8 4.85-4.84 4.86 4.86z"/><path d="m52.47 61.08v2.34l4.87-4.86v-1.16h-1.19z"/><path d="m42.76 58.56 1.17-1.16h-2.33z"/><path d="m51.28 57.4 1.19 1.19v-1.19z"/><path d="m52.47 58.59 1.19-1.19h-1.19z"/><path d="m43.85 93.94c.74 0 1.49.08 2.24.09l1.52-1.52 1.49 1.49q1.09 0 2.19-.15l-3.68-3.68z"/><path d="m38 92.56.75.76c.94.16 1.88.3 2.83.41l-3.58-3.56z"/><path d="m57.34 90.17-3.34 3.37c1-.14 1.92-.32 2.86-.52l.51-.51z"/><path d="m47.61 85.31-4.8 4.8-4.84-4.8v2.38l4.79 4.8 4.85-4.84 4.86 4.86v-2.34z"/><path d="m52.47 92.51 4.87-4.86v-2.34l-4.87 4.86z"/><path d="m47.61 80.47-4.8 4.81-4.84-4.81v2.39l4.79 4.8 4.85-4.84 4.86 4.86v-2.34z"/><path d="m52.47 87.68 4.87-4.86v-2.35l-4.87 4.87z"/><path d="m48.79 76.8h-2.37l-3.61 3.62-3.65-3.62h-1.19v1.2l4.79 4.79 4.85-4.84 4.86 4.87v-2.34z"/><path d="m52.47 80.48v2.34l4.87-4.87v-1.15h-1.19z"/><path d="m42.76 77.96 1.17-1.16h-2.33z"/><path d="m51.28 76.8 1.19 1.18v-1.18z"/><path d="m52.47 77.98 1.19-1.18h-1.19z"/><path d="m28.24 17.42-1.19 1.19h2.37z"/><path d="m18.6 17.42v1.19h1.19z"/><path d="m37.97 17.42-1.19 1.19h1.19z"/><path d="m22.23 18.61h2.33l3.68-3.68 3.68 3.68h1.18v-1.15l-4.86-4.87-4.8 4.81-4.84-4.81v2.39z"/><path d="m34.29 18.61 3.68-3.68v-2.34l-4.87 4.87v1.15z"/><path d="m23.4 14.91 4.84-4.84 4.86 4.86v-2.34l-4.86-4.87-4.8 4.81-3.78-3.75c-.36.25-.71.5-1.06.77v.56z"/><path d="m37.97 10.07v-2.35l-4.87 4.87v2.34z"/><path d="m28.24 5.23 4.86 4.87v-2.34l-4.16-4.16c-.87.36-1.72.75-2.57 1.16l-2.93 2.94-.87-.87c-.5.31-1 .63-1.47 1l2.3 2.29z"/><path d="m37.97 5.23v-2.34l-4.87 4.87v2.34z"/><path d="m33.1 2.89-.6-.6c-.59.19-1.17.38-1.75.59l2.35 2.35z"/><path d="m33.1 5.23 4.24-4.23c-1.05.22-2.09.48-3.11.77l-1.13 1.12z"/><path d="m28.24 36.82-1.19 1.18h2.37z"/><path d="m18.6 36.82v1.18h1.19z"/><path d="m37.97 36.82-1.19 1.18h1.19z"/><path d="m22.23 38h2.33l3.68-3.67 3.68 3.67h1.18v-1.15l-4.86-4.87-4.8 4.81-4.84-4.81v2.39z"/><path d="m34.29 38 3.68-3.67v-2.35l-4.87 4.87v1.15z"/><path d="m23.4 34.3 4.84-4.84 4.86 4.87v-2.34l-4.86-4.87-4.8 4.81-4.84-4.81v2.39z"/><path d="m37.97 29.46v-2.34l-4.87 4.87v2.34z"/><path d="m23.4 29.47 4.84-4.84 4.86 4.86v-2.34l-4.86-4.86-4.8 4.8-4.84-4.8v2.38z"/><path d="m37.97 24.63v-2.34l-4.87 4.86v2.34z"/><path d="m23.4 24.61 4.84-4.85 4.86 4.87v-2.34l-3.68-3.68h-2.37l-3.61 3.62-3.65-3.62h-1.19v1.2z"/><path d="m37.97 19.76v-1.15h-1.19l-3.68 3.68v2.34z"/><path d="m23.4 19.77 1.16-1.16h-2.33z"/><path d="m31.92 18.61 1.18 1.19v-1.19z"/><path d="m33.1 19.8 1.19-1.19h-1.19z"/><path d="m18.6 56.21v1.19h1.19z"/><path d="m28.24 56.21-1.19 1.19h2.37z"/><path d="m37.97 56.21-1.19 1.19h1.19z"/><path d="m22.23 57.4h2.33l3.68-3.68 3.68 3.68h1.18v-1.15l-4.86-4.87-4.8 4.81-4.84-4.81v2.39z"/><path d="m34.29 57.4 3.68-3.68v-2.34l-4.87 4.87v1.15z"/><path d="m23.4 53.7 4.84-4.84 4.86 4.86v-2.34l-4.86-4.86-4.8 4.8-4.84-4.8v2.38z"/><path d="m37.97 48.86v-2.34l-4.87 4.86v2.34z"/><path d="m23.4 48.87 4.84-4.85 4.86 4.87v-2.34l-4.86-4.87-4.8 4.81-4.84-4.81v2.39z"/><path d="m37.97 44.02v-2.34l-4.87 4.87v2.34z"/><path d="m23.4 44 4.84-4.84 4.86 4.86v-2.33l-3.68-3.69h-2.37l-3.61 3.63-3.65-3.63h-1.19v1.2z"/><path d="m37.97 39.16v-1.16h-1.19l-3.68 3.69v2.33z"/><path d="m23.4 39.17 1.16-1.17h-2.33z"/><path d="m31.92 38 1.18 1.19v-1.19z"/><path d="m33.1 39.19 1.19-1.19h-1.19z"/><path d="m28.24 75.61-1.19 1.19h2.37z"/><path d="m18.6 75.61v1.19h1.19z"/><path d="m37.97 75.61-1.19 1.19h1.19z"/><path d="m22.23 76.8h2.33l3.68-3.68 3.68 3.68h1.18v-1.16l-4.86-4.86-4.8 4.8-4.84-4.8v2.38z"/><path d="m34.29 76.8 3.68-3.68v-2.34l-4.87 4.86v1.16z"/><path d="m23.4 73.1 4.84-4.85 4.86 4.87v-2.34l-4.86-4.87-4.8 4.81-4.84-4.81v2.39z"/><path d="m37.97 68.25v-2.34l-4.87 4.87v2.34z"/><path d="m23.4 68.26 4.84-4.84 4.86 4.86v-2.33l-4.86-4.87-4.8 4.81-4.84-4.81v2.39z"/><path d="m37.97 63.42v-2.34l-4.87 4.87v2.33z"/><path d="m23.4 63.4 4.84-4.84 4.86 4.86v-2.34l-3.68-3.68h-2.37l-3.61 3.62-3.65-3.62h-1.19v1.2z"/><path d="m33.1 63.42 4.87-4.86v-1.16h-1.19l-3.68 3.68z"/><path d="m31.92 57.4 1.18 1.19v-1.19z"/><path d="m23.4 58.56 1.16-1.16h-2.33z"/><path d="m33.1 58.59 1.19-1.19h-1.19z"/><path d="m38 90.17-2.5 2.47c.63.15 1.27.3 1.91.43l.56-.56z"/><path d="m28.24 85.31-3.24 3.27c.51.27 1 .54 1.55.79l1.72-1.72 4 4 .82.28v-1.75z"/><path d="m38 85.31-4.9 4.87v1.82l.43.12 4.47-4.47z"/><path d="m28.24 80.47-4.8 4.81-4.84-4.81v2.39l4.8 4.8 4.84-4.84 4.86 4.86v-2.34z"/><path d="m37.97 80.47-4.87 4.87v2.34l4.87-4.86z"/><path d="m23.4 82.79 4.84-4.84 4.86 4.87v-2.34l-3.68-3.68h-2.37l-3.61 3.62-3.65-3.62h-1.19v1.2z"/><path d="m37.97 77.95v-1.15h-1.19l-3.68 3.68v2.34z"/><path d="m23.4 77.96 1.16-1.16h-2.33z"/><path d="m31.92 76.8 1.18 1.18v-1.18z"/><path d="m33.1 77.98 1.19-1.18h-1.19z"/><path d="m9.76 18.32-.23.29h.53z"/><path d="m18.6 17.42-1.19 1.19h1.19z"/><path d="m13.73 18.61v-1.15l-1.73-1.78c-.36.41-.73.82-1.08 1.25l1.68 1.68z"/><path d="m14.92 18.61 3.68-3.68v-2.34l-4.87 4.87v1.15z"/><path d="m13.73 13.79-.56.58.56.56z"/><path d="m18.6 10.07v-.52a45.66 45.66 0 0 0 -4.87 4.24v1.14z"/><path d="m8.87 36.82-1.19 1.18h2.38z"/><path d="m18.6 36.82-1.19 1.18h1.19z"/><path d="m5.19 38 3.68-3.67 3.68 3.67h1.18v-1.15l-4.86-4.85-4.8 4.81-2.38-2.38c-.17.63-.34 1.27-.49 1.91l1.66 1.66z"/><path d="m14.92 38 3.68-3.67v-2.35l-4.87 4.87v1.15z"/><path d="m8.87 29.46 4.86 4.87v-2.33l-4.86-4.88-4.8 4.81-1.2-1.19c-.22.59-.42 1.19-.61 1.79l1.74 1.77z"/><path d="m18.6 29.46v-2.34l-4.87 4.87v2.34z"/><path d="m8.87 24.63 4.86 4.86v-2.34l-4.86-4.86-4.18 4.18c-.4.83-.78 1.67-1.13 2.53l.47.47z"/><path d="m18.6 24.63v-2.34l-4.87 4.86v2.34z"/><path d="m13.73 24.63v-2.34l-3.67-3.68h-.53c-.44.58-.86 1.17-1.28 1.77l.62-.62z"/><path d="m18.6 19.76v-1.15h-1.19l-3.68 3.68v2.34z"/><path d="m12.55 18.61 1.18 1.19v-1.19z"/><path d="m13.73 19.8 1.19-1.19h-1.19z"/><path d="m8.87 56.21-1.19 1.19h2.38z"/><path d="m18.6 56.21-1.19 1.19h1.19z"/><path d="m5.19 57.4 3.68-3.68 3.68 3.68h1.18v-1.15l-4.86-4.87-4.8 4.81-3.78-3.76c.11.94.25 1.88.41 2.81l2.16 2.16z"/><path d="m14.92 57.4 3.68-3.68v-2.34l-4.87 4.87v1.15z"/><path d="m8.87 48.86 4.86 4.86v-2.34l-4.86-4.86-4.8 4.8-4.07-4.06c0 .82 0 1.65.07 2.46l4 4z"/><path d="m18.6 48.86v-2.34l-4.87 4.86v2.34z"/><path d="m8.87 44 4.86 4.87v-2.32l-4.86-4.87-4.8 4.81-3.89-3.86c-.07.74-.12 1.48-.16 2.23l4 4z"/><path d="m18.6 44.02v-2.34l-4.87 4.87v2.34z"/><path d="m8.87 39.16 4.86 4.84v-2.31l-3.67-3.69h-2.37l-3.62 3.63-3.29-3.27c-.13.64-.24 1.36-.34 2.06l3.56 3.58z"/><path d="m18.6 39.16v-1.16h-1.19l-3.68 3.69v2.33z"/><path d="m12.55 38 1.18 1.19v-1.19z"/><path d="m4.03 39.17 1.16-1.17h-2.33z"/><path d="m13.73 39.19 1.19-1.19h-1.19z"/><path d="m18.6 75.61-1.19 1.19h1.19z"/><path d="m12.55 76.8h1.18v-1.16l-4.86-4.86-1.52 1.52q.45.72.93 1.41l.59-.59z"/><path d="m14.92 76.8 3.68-3.68v-2.34l-4.87 4.86v1.16z"/><path d="m13.73 73.12v-2.34l-4.86-4.87-3.33 3.33c.27.51.56 1 .85 1.49l2.48-2.48z"/><path d="m18.6 68.25v-2.34l-4.87 4.87v2.34z"/><path d="m13.73 68.28v-2.28l-4.86-4.92-4.8 4.81-.28-.29c.29.67.59 1.34.91 2l4.17-4.17z"/><path d="m18.6 63.42v-2.34l-4.87 4.87v2.33z"/><path d="m8.87 58.56 4.86 4.86v-2.34l-3.67-3.68h-2.37l-3.62 3.6-2.73-2.69c.28 1.14.61 2.26 1 3.37l1.66 1.72z"/><path d="m13.73 63.42 4.87-4.86v-1.16h-1.19l-3.68 3.68z"/><path d="m4.03 58.56 1.16-1.16h-2.33z"/><path d="m12.55 57.4 1.18 1.19v-1.19z"/><path d="m13.73 58.59 1.19-1.19h-1.19z"/><path d="m18.6 80.47-2.23 2.23c.42.36.85.72 1.28 1.06l1-.94z"/><path d="m18.6 76.8h-1.19l-3.57 3.57q.59.59 1.2 1.14l3.56-3.51z"/><path d="m12.55 76.8 1.18 1.18v-1.18z"/><path d="m13.73 77.98 1.19-1.18h-1.19z"/></g></g></svg>