<svg viewBox="0 0 94 94.06" xmlns="http://www.w3.org/2000/svg"><path d="m7.06 68.22a3.09 3.09 0 0 1 1 .28c.82.45 1 1.48 1.31 2.37h3.45c-.93-1.65 1-2.22 2.21-2.88 2.13-1.19 4.24-2.43 6.42-3.55a2.94 2.94 0 0 1 .85-.33 2.25 2.25 0 0 1 1.31.29 7 7 0 0 1 3.24 3.25c.22-1.14.44-2.28.65-3.42a1.13 1.13 0 0 1 .27-.63 1.11 1.11 0 0 1 .62-.19 15 15 0 0 1 5.42.22 24.79 24.79 0 0 1 4.39 2.17c1 .53 2.57.79 3.26 1.73a.56.56 0 0 1 .09.17c.32.73 0 2.28-.22 3.17h3.74a15.6 15.6 0 0 1 1.33-4.94 25.54 25.54 0 0 1 1.84-2.44 11 11 0 0 0 1.6-3.14 8 8 0 0 1 .81-2.14 12.24 12.24 0 0 1 1.2-1.3c1.54-1.69 1.87-4.14 2.13-6.42 2.81.08 4.7 3.2 7.48 3.63 1.08.17 2.3-.06 3.19.57a2.56 2.56 0 0 1 .93 2.15c0 1.53-1.69 4 1.27 2.57 1-.5 2.77-1.77 3.62-.36.4.68-.09 1.79-.48 2.36a2.31 2.31 0 0 0 -.46.82c-.14.7.58 1.26 1.24 1.57s1.43.65 1.56 1.36c.16.87-.8 1.63-.69 2.5a3.77 3.77 0 0 0 .34.92 4 4 0 0 1 .07 2.29h2.95a8.27 8.27 0 0 1 .1-.87 2 2 0 0 1 .42-1.11 2.14 2.14 0 0 1 1.28-.5q5.31-.8 10.63-1.52a2.14 2.14 0 0 1 1.18.07 2 2 0 0 1 .7.69c.5-1 1-2.06 1.38-3.11l-.22-.18c-1-.77-2.1-1.68-2.24-2.94a3.85 3.85 0 0 1 .54-2.18c.62-1.19 2.94-3 2.42-4.37a5.72 5.72 0 0 0 -1.43-2.12c-.94-1.11-3.28-2.18-2.32-3.3.73-.86 1.53-1.93 2.46-1.71s2 2.5 2.5 3.31c-.08-1-.52-2.64-.6-3.63a.4.4 0 0 1 0-.24.37.37 0 0 1 .29-.12 6.55 6.55 0 0 1 1.93.19c0-.07 0-.14 0-.21a46.81 46.81 0 0 0 -3.17-17 2.17 2.17 0 0 1 0 .25c.33 2.27.67 4.53 1 6.8a4.85 4.85 0 0 1 .15 1.57c-.08.39-.25.76-.33 1.15a4.26 4.26 0 0 0 .06 1.81 11.58 11.58 0 0 0 .72 2.4c.17.4-.53.77-1 .9a5.14 5.14 0 0 1 -1.3.06c-1.29.08-2.29 1.23-3.56 1.49-1 .2-2.07-.17-3 .12-.5.14-.93.45-1.43.59a2.84 2.84 0 0 1 -2.55-.64c-.7-.59-1.45-1.33-1.38-2.24a11.07 11.07 0 0 0 -.76-5 11 11 0 0 1 -1.24-3.67c0-1.31 1-2.77 2.29-2.54a2.21 2.21 0 0 1 .22-2.16 6.44 6.44 0 0 1 1.61-1.6l3-2.37a1.83 1.83 0 0 1 2.38-.29l3.45 1.52a3.26 3.26 0 0 1 1.22.79c-.25-.62-.53-1.23-.81-1.83a21.75 21.75 0 0 1 -2.83-1.49 2 2 0 0 1 -.74-.77c-.42-.93.24-2.1.68-3a47 47 0 0 0 -2.7-3.87l-.28.14a1.48 1.48 0 0 1 -.92.15c-.59-.18-.73-.93-1-1.46-.75-1.31-2.82-1.51-3.38-2.92-.25-.63-.16-1.44-.68-1.88s-1-.3-1.54-.54c-.66-.32-.94-1.08-1.29-1.72-.51-.93-1.48-1.07-2-2a47.06 47.06 0 0 0 -12.71-5.88 42 42 0 0 1 -2.36 3.92 1.59 1.59 0 0 1 -.74.71 1.79 1.79 0 0 1 -1.1-.11 17.05 17.05 0 0 0 -4.31-.72 5.33 5.33 0 0 1 -2.45-.41 4.65 4.65 0 0 1 -1.62-2.05 25 25 0 0 1 -1.7-3.23q-1.64 0-3.24.18c0 .05 0 .11.08.17a25.7 25.7 0 0 0 1.08 2.85c.55 1 1.47 1.8 1.73 2.9.37 1.64-.84 3.17-2 4.42s-2.55 2.74-4.31 3.06a8.36 8.36 0 0 1 -3.14-.24c-1.1-.23-4-.29-4.79-1.06s-.28-3.22.14-4.05c.84-2.16 3.05-3.48 4.33-5.43.35-.54.64-1.13.94-1.7a46.79 46.79 0 0 0 -15.68 6.7 1.79 1.79 0 0 0 .74.4c.7.14 1.41-.32 2.12-.37a2.67 2.67 0 0 1 2.88 2.28 4.41 4.41 0 0 0 1.74 2.39c1.07.93 1.12 1.74.58 3.14a21 21 0 0 1 -2 3.51c-1 1.61-2.49 2.75-4.47 2.12a7.5 7.5 0 0 0 -5 .65 14.94 14.94 0 0 1 -4.93 1.57 8.06 8.06 0 0 1 -5-1.75l-.18-.14c-.81 1.26-1.56 2.55-2.25 3.89a5.87 5.87 0 0 1 2.2 2.87 7.15 7.15 0 0 1 -.43 3.64 55.39 55.39 0 0 0 -1.23 6.26c-.2 1.48 0 3.64-.82 5a2.51 2.51 0 0 1 -.62.64c-.79.55-1.16 1.59-1.82 2.27a4.25 4.25 0 0 1 -2.57 1.16c0 .81 0 1.62.07 2.42a10.74 10.74 0 0 0 3.93-.75 3.78 3.78 0 0 1 2.68-.43c1.11.24 3.9 1.11 4.51 2.12.51.83-.14 1.89-.43 2.64a20.19 20.19 0 0 1 -2.41 4.67c-1.13 1.49-2.28 3-3.45 4.43a14.09 14.09 0 0 1 -1.59 2c.47 1.17 1 2.32 1.54 3.44l.38.05zm44.5-16c-1 2.24-2.43 4.71-3.26 6.24a4.28 4.28 0 0 1 -2.56 2.43c-1.37.29-2.71-.67-4.11-.65-2.14 0-4 2.34-6 1.77a4.64 4.64 0 0 1 -1.74-1.1 19.12 19.12 0 0 1 -4.08-4.35 8.2 8.2 0 0 1 -.54-5.9 68.59 68.59 0 0 1 3.03-10.11 3.35 3.35 0 0 1 1.77-2.22 2.89 2.89 0 0 1 2.65.91 7.87 7.87 0 0 0 2.28 1.76c1.66.59 3.67-.5 5.19.39a4.32 4.32 0 0 1 1.07 1c1.5 1.77 3.34 2.75 4.92 4.06a4.94 4.94 0 0 1 1.38 5.78zm29.23-.34a3.77 3.77 0 0 1 1.14-1.11 3.65 3.65 0 0 1 1.07-.35 13.22 13.22 0 0 1 2-.24 1 1 0 0 1 .58.11.84.84 0 0 1 .28.36c.52.92 1 1.84 1.55 2.76.34.6 1.2 1.37 1.21 2.09 0 1.22-1.69 2-2.32 2.85a9 9 0 0 0 -1.49 4.58 1.49 1.49 0 0 1 -.19.79c-.16.22-.44.51-.68.4-1.5-.69-2 .68-3 1a3.54 3.54 0 0 1 -1.24.27 3.62 3.62 0 0 1 -2.14-1.25 1.6 1.6 0 0 0 -.55-.38c-.54-.17-1.07.31-1.63.43-1.94.4-2.09-2.39-2.63-4-.43-1.27 0-2.87 2.28-2.4a1.87 1.87 0 0 0 2.09-1.45c.17-.51.17-1.11.54-1.5a2.68 2.68 0 0 1 .73-.47 8.32 8.32 0 0 0 2.4-2.48zm-2.25-3.88c1.19 1 .3 3.48-.7 4.7a6.51 6.51 0 0 1 -2.61 1.84 3.76 3.76 0 0 1 -1.36.32 5.24 5.24 0 0 1 -1.65-.31c-3.3-1-6.62-2-9.84-3.27-2.77-1.07-3.64-3.69-5.13-6a2.62 2.62 0 0 1 -.58-1.57 2.59 2.59 0 0 1 .65-1.3q2.4-3.12 5-6a3.62 3.62 0 0 1 1-.9 3.71 3.71 0 0 1 1.72-.27h3.24a5.56 5.56 0 0 1 2.19.29 4.41 4.41 0 0 1 1.81 1.47c2.54 3.39 3.07 8.19 6.26 11zm-20.88-35.1a3 3 0 0 1 .71-.84c.86-.92.78-2 1.84-2.8a17.49 17.49 0 0 1 4.24-2.26 4.18 4.18 0 0 1 1.86-.37 3.89 3.89 0 0 1 1.81.8 15.67 15.67 0 0 1 4.65 6.4 40.29 40.29 0 0 0 3.62 7.11c.84 1.18 4.53 4.5 3.78 6.19-.15.32-.55.41-.89.48-2.68.6-4.85 2.72-7.55 3.18-1.74.3-3.61-.11-5.23.57-.62.26-1.17.67-1.81.87a1.65 1.65 0 0 1 -1.83-.41 2.21 2.21 0 0 1 -.29-.79c-.62-2.63-1-5.49-2-8a40.33 40.33 0 0 1 -1.77-4.24 1.41 1.41 0 0 1 0-1c.15-.34.54-.52.74-.83.42-.69-.22-1.53-.84-2s-1.33-1.31-1.04-2.06zm-16 1.25a3.48 3.48 0 0 1 2.31-1.66c.47 0 .93.13 1.39.1 1.73-.12 2.45-2.49 4.1-3a4 4 0 0 1 1.5-.08 3.54 3.54 0 0 1 2.09.67c1 .92.78 2.58 1 4 .23 1.6 3 4.84 1.69 6.39-.5.58-1.62.29-2.54.37a31.71 31.71 0 0 0 -3.65.5 17.21 17.21 0 0 1 -2.24.39 7.09 7.09 0 0 1 -4.68-1.72 11.16 11.16 0 0 1 -2.8-2.81c-.76-1.3 1.06-2.24 1.8-3.15zm-11.66 7.79c.68-1.73 3-9.3 5.62-5.51 1.84 2.67 4.61 4.55 7.3 6.35a9.57 9.57 0 0 0 3.37 1.66c3 .6 5.91-1.74 9-1.56a3.32 3.32 0 0 1 1.71.51 3.83 3.83 0 0 1 1 1.1 14.7 14.7 0 0 1 2 7.9c0 1.77.32 3.33-1 4.73-1 1-2.35 1.65-3 3-.51 1.08-1 2.37-2.06 2.84-1.32.56-2.76-.35-3.9-1.22a28.8 28.8 0 0 1 -3-2.5c-1-1-1.88-2.12-3.21-2.32a6.22 6.22 0 0 1 -2-.26c-.77-.39-1-1.35-1.21-2.19s-.58-1.8-1.42-2c-1.22-.31-2.35 1.24-3.57.91a2.59 2.59 0 0 1 -1.23-1l-3.94-5.22a5.71 5.71 0 0 1 -1-1.77 5.54 5.54 0 0 1 .54-3.45zm-20.87 23.29c-1.05-2.54.24-5.37 1.13-8a27.12 27.12 0 0 0 1.48-8.23c.59-.36 1.34-.05 2 .21s1.49.44 1.94-.09a3.08 3.08 0 0 0 .39-1.05c.51-1.66 2.55-2.2 4.26-2.47l4.53-.72a1.46 1.46 0 0 1 .83 0 1.47 1.47 0 0 1 .47.49q2.07 3.12 3.89 6.39a5 5 0 0 1 .88 3.24 5.94 5.94 0 0 1 -1.46 2.4 17.94 17.94 0 0 0 -3.86 9.2 4.38 4.38 0 0 1 -4.28 4c-2.15-.14-3.8-1.9-5.81-2.67a34.08 34.08 0 0 0 -3.38-.85c-1.14-.34-2.56-.78-3.01-1.85zm-2.7 19.77a133.82 133.82 0 0 0 7.89-12.29.76.76 0 0 1 .25-.31.83.83 0 0 1 .52-.06c.9.1 1.5.85 2.25 1.25a5 5 0 0 0 2.54.53c.89 0 1.8-.73 2.62-.7a1 1 0 0 1 .47.16c1.2.63 2.38 1.3 3.54 2 1.24 1-.42 4.77-.2 6.67a.34.34 0 0 1 -.38.37c-1.84-.34-2.5-1.78-4.39-1a43.61 43.61 0 0 0 -5.82 3.15l-2.64 1.61a4.41 4.41 0 0 1 -1.41.65c-1.44.3-3.57-1.05-5.13-1.58a.33.33 0 0 1 -.11-.45z" fill="#fffcf3"/><g fill="#dae0cf"><path d="m74.84 9.76c.35.64.63 1.4 1.29 1.72.49.24 1.12.18 1.54.54s.43 1.25.68 1.88c.56 1.41 2.63 1.61 3.38 2.92.31.53.45 1.28 1 1.46a1.48 1.48 0 0 0 .92-.15l.35-.13a47 47 0 0 0 -11.13-10.24c.49.93 1.46 1.07 1.97 2z"/><path d="m49.25 5.28a5.33 5.33 0 0 0 2.45.41 17.05 17.05 0 0 1 4.3.72 1.79 1.79 0 0 0 1.09.11 1.59 1.59 0 0 0 .74-.71 42 42 0 0 0 2.37-3.92 47.16 47.16 0 0 0 -13.2-1.89h-1.08a25 25 0 0 0 1.71 3.2 4.65 4.65 0 0 0 1.62 2.08z"/><path d="m31.51 8.26c-.42.83-.88 3.35-.14 4.05s3.69.83 4.79 1.06a8.36 8.36 0 0 0 3.14.24c1.76-.32 3.1-1.73 4.31-3.06s2.33-2.78 2-4.42c-.26-1.1-1.18-1.91-1.73-2.9a25.7 25.7 0 0 1 -1.12-2.85c0-.06 0-.12-.08-.17a45.61 45.61 0 0 0 -5.9.92c-.3.57-.59 1.16-.94 1.7-1.28 1.95-3.49 3.27-4.33 5.43z"/><path d="m42.57 20.06a7.09 7.09 0 0 0 4.68 1.72 17.21 17.21 0 0 0 2.24-.39 31.71 31.71 0 0 1 3.65-.5c.92-.08 2 .21 2.54-.37 1.32-1.52-1.46-4.79-1.68-6.39-.19-1.38.08-3-1-4a3.54 3.54 0 0 0 -2.09-.67 4 4 0 0 0 -1.5.08c-1.65.52-2.37 2.89-4.1 3-.46 0-.92-.12-1.39-.1a3.48 3.48 0 0 0 -2.31 1.66c-.74.91-2.56 1.87-1.86 3.1a11.16 11.16 0 0 0 2.82 2.86z"/><path d="m58.7 14.9c.62.52 1.26 1.36.84 2-.2.31-.59.49-.74.83a1.41 1.41 0 0 0 0 1 40.33 40.33 0 0 0 1.8 4.27c1 2.52 1.35 5.38 2 8a2.21 2.21 0 0 0 .29.79 1.65 1.65 0 0 0 1.83.41c.64-.2 1.19-.61 1.81-.87 1.62-.68 3.49-.27 5.23-.57 2.7-.46 4.87-2.58 7.55-3.18.34-.07.74-.16.89-.48.75-1.69-2.94-5-3.78-6.19a40.29 40.29 0 0 1 -3.62-7.11 15.67 15.67 0 0 0 -4.65-6.4 3.89 3.89 0 0 0 -1.81-.8 4.18 4.18 0 0 0 -1.89.4 17.49 17.49 0 0 0 -4.24 2.27c-1.06.8-1 1.88-1.84 2.8a3 3 0 0 0 -.71.84c-.29.74.42 1.47 1.04 1.99z"/><path d="m30.43 27.12 3.94 5.22a2.59 2.59 0 0 0 1.23 1c1.22.33 2.35-1.22 3.57-.91.84.21 1.22 1.17 1.42 2s.44 1.8 1.21 2.19a6.22 6.22 0 0 0 2 .26c1.33.2 2.26 1.36 3.21 2.32a28.8 28.8 0 0 0 3 2.5c1.14.87 2.58 1.78 3.9 1.22 1.1-.47 1.55-1.76 2.06-2.84.64-1.35 2-2 3-3 1.29-1.4 1-3 1-4.73a14.7 14.7 0 0 0 -2-7.9 3.83 3.83 0 0 0 -1-1.1 3.32 3.32 0 0 0 -1.71-.51c-3.07-.18-6 2.16-9 1.56a9.57 9.57 0 0 1 -3.37-1.66c-2.69-1.8-5.46-3.68-7.3-6.35-2.59-3.75-4.95 3.82-5.59 5.55a5.54 5.54 0 0 0 -.55 3.41 5.71 5.71 0 0 0 .98 1.77z"/><path d="m12.67 23.49a14.94 14.94 0 0 0 4.93-1.57 7.5 7.5 0 0 1 5-.65c2 .63 3.45-.51 4.47-2.12a21 21 0 0 0 2-3.51c.54-1.4.49-2.21-.58-3.14a4.41 4.41 0 0 1 -1.74-2.39 2.67 2.67 0 0 0 -2.88-2.28c-.71 0-1.42.51-2.12.37a1.79 1.79 0 0 1 -.74-.4 47.11 47.11 0 0 0 -13.56 13.8l.18.14a8.06 8.06 0 0 0 5.04 1.75z"/><path d="m4.39 43.84a2.51 2.51 0 0 0 .61-.64c.87-1.32.62-3.48.82-5a55.39 55.39 0 0 1 1.24-6.2 7.15 7.15 0 0 0 .34-3.62 5.87 5.87 0 0 0 -2.2-2.87 46.73 46.73 0 0 0 -5.2 21.49v.3a4.25 4.25 0 0 0 2.59-1.22c.64-.65 1.01-1.69 1.8-2.24z"/><path d="m15.52 47.9c2 .77 3.66 2.53 5.81 2.67a4.38 4.38 0 0 0 4.28-4 17.94 17.94 0 0 1 3.86-9.2 5.94 5.94 0 0 0 1.46-2.37 5 5 0 0 0 -.93-3.22q-1.82-3.27-3.89-6.39a1.47 1.47 0 0 0 -.47-.49 1.46 1.46 0 0 0 -.83 0l-4.53.72c-1.71.27-3.75.81-4.26 2.47a3.08 3.08 0 0 1 -.39 1.05c-.45.53-1.3.36-1.94.09s-1.4-.57-2-.21a27.12 27.12 0 0 1 -1.48 8.28c-.89 2.6-2.18 5.43-1.13 8 .45 1.07 1.89 1.51 3 1.82a34.08 34.08 0 0 1 3.44.78z"/><path d="m50.22 46.44c-1.58-1.31-3.42-2.29-4.92-4.06a4.32 4.32 0 0 0 -1.07-1c-1.52-.89-3.53.2-5.19-.39a7.87 7.87 0 0 1 -2.32-1.77 2.89 2.89 0 0 0 -2.65-.91 3.35 3.35 0 0 0 -1.77 2.22 68.59 68.59 0 0 0 -3.06 10.12 8.2 8.2 0 0 0 .54 5.9 19.12 19.12 0 0 0 4.08 4.35 4.64 4.64 0 0 0 1.74 1.1c2.06.57 3.89-1.73 6-1.77 1.4 0 2.74.94 4.11.65a4.28 4.28 0 0 0 2.56-2.43c.83-1.53 2.27-4 3.26-6.24a4.94 4.94 0 0 0 -1.31-5.77z"/><path d="m70.56 35.45a5.56 5.56 0 0 0 -2.19-.29h-3.24a3.71 3.71 0 0 0 -1.72.27 3.62 3.62 0 0 0 -1 .9q-2.64 2.92-5 6a2.59 2.59 0 0 0 -.65 1.3 2.62 2.62 0 0 0 .58 1.57c1.49 2.33 2.36 5 5.13 6 3.22 1.24 6.54 2.26 9.84 3.27a5.24 5.24 0 0 0 1.65.31 3.76 3.76 0 0 0 1.36-.32 6.51 6.51 0 0 0 2.61-1.84c1-1.22 1.89-3.65.7-4.7-3.19-2.81-3.72-7.61-6.26-11a4.41 4.41 0 0 0 -1.81-1.47z"/><path d="m89.21 28.19-3.45-1.52a1.83 1.83 0 0 0 -2.38.29l-3 2.37a6.44 6.44 0 0 0 -1.61 1.6 2.21 2.21 0 0 0 -.22 2.16c-1.28-.23-2.33 1.23-2.29 2.54a11 11 0 0 0 1.24 3.67 11.07 11.07 0 0 1 .76 5c-.07.91.68 1.65 1.38 2.24a2.84 2.84 0 0 0 2.55.64c.5-.14.93-.45 1.43-.59 1-.29 2 .08 3-.12 1.27-.26 2.27-1.41 3.56-1.49a5.14 5.14 0 0 0 1.3-.06c.42-.13 1.12-.5 1-.9a11.58 11.58 0 0 1 -.76-2.38 4.26 4.26 0 0 1 -.06-1.81c.08-.39.25-.76.33-1.15a4.85 4.85 0 0 0 -.06-1.52c-.33-2.27-.67-4.53-1-6.8a2.17 2.17 0 0 0 0-.25c-.14-.37-.28-.73-.43-1.09a3.26 3.26 0 0 0 -1.29-.83z"/><path d="m86.05 24.89a2 2 0 0 0 .74.77 21.75 21.75 0 0 0 2.83 1.49 46.32 46.32 0 0 0 -2.89-5.27c-.44.91-1.1 2.12-.68 3.01z"/><path d="m77.67 54.84c-.37.39-.37 1-.54 1.5a1.87 1.87 0 0 1 -2.13 1.45c-2.29-.47-2.71 1.13-2.28 2.4.54 1.63.69 4.42 2.63 4 .56-.12 1.09-.6 1.63-.43a1.6 1.6 0 0 1 .55.38 3.62 3.62 0 0 0 2.14 1.25 3.54 3.54 0 0 0 1.33-.25c1-.34 1.47-1.71 3-1 .24.11.52-.18.68-.4a1.49 1.49 0 0 0 .19-.79 9 9 0 0 1 1.49-4.58c.63-.85 2.35-1.63 2.32-2.85 0-.72-.87-1.49-1.21-2.09-.51-.92-1-1.84-1.55-2.76a.84.84 0 0 0 -.28-.36 1 1 0 0 0 -.58-.11 13.22 13.22 0 0 0 -2 .24 3.65 3.65 0 0 0 -1.07.36 3.77 3.77 0 0 0 -1.14 1.11 8.32 8.32 0 0 1 -2.39 2.48 2.68 2.68 0 0 0 -.79.45z"/><path d="m92.09 47.05a.37.37 0 0 0 -.29.12.4.4 0 0 0 0 .24c.08 1 .52 2.64.6 3.63-.46-.81-1.57-3.08-2.5-3.31s-1.73.85-2.46 1.71c-1 1.12 1.38 2.19 2.32 3.3a5.72 5.72 0 0 1 1.43 2.12c.52 1.34-1.8 3.18-2.42 4.37a3.85 3.85 0 0 0 -.54 2.18c.14 1.26 1.23 2.17 2.24 2.94l.22.18a46.87 46.87 0 0 0 3.31-17.29 6.55 6.55 0 0 0 -1.91-.19z"/><path d="m72 68.58a3.77 3.77 0 0 1 -.34-.92c-.11-.87.85-1.63.69-2.5-.13-.71-.91-1.06-1.56-1.36s-1.38-.87-1.24-1.57a2.31 2.31 0 0 1 .46-.82c.39-.57.88-1.68.48-2.36-.85-1.41-2.61-.14-3.62.36-3 1.45-1.29-1-1.27-2.57a2.56 2.56 0 0 0 -.93-2.15c-.89-.63-2.11-.4-3.19-.57-2.78-.43-4.67-3.55-7.48-3.63-.26 2.28-.59 4.73-2.13 6.42a12.24 12.24 0 0 0 -1.2 1.3 8 8 0 0 0 -.81 2.14 11 11 0 0 1 -1.6 3.14 25.54 25.54 0 0 0 -1.84 2.44 15.6 15.6 0 0 0 -1.33 4.94h27a4 4 0 0 0 -.09-2.29z"/><path d="m88.56 66.94a2.14 2.14 0 0 0 -1.18-.07q-5.31.72-10.63 1.52a2.14 2.14 0 0 0 -1.28.5 2 2 0 0 0 -.42 1.11 8.27 8.27 0 0 0 -.1.87h12.58c.62-1.05 1.2-2.12 1.74-3.23a2 2 0 0 0 -.71-.7z"/><path d="m8.07 68.5a3.09 3.09 0 0 0 -1-.28l-1.83-.29-.38-.05c.5 1 1 2 1.62 3h2.9c-.29-.88-.49-1.88-1.31-2.38z"/><path d="m41.55 67.7a.56.56 0 0 0 -.09-.17c-.69-.94-2.26-1.2-3.26-1.73a24.79 24.79 0 0 0 -4.38-2.17 15 15 0 0 0 -5.42-.22 1.11 1.11 0 0 0 -.62.19 1.13 1.13 0 0 0 -.27.63c-.21 1.14-.43 2.28-.65 3.42a7 7 0 0 0 -3.24-3.25 2.25 2.25 0 0 0 -1.31-.29 2.94 2.94 0 0 0 -.85.33c-2.18 1.12-4.29 2.36-6.46 3.56-1.19.66-3.14 1.23-2.21 2.88h28.5c.21-.88.58-2.45.26-3.18z"/><path d="m4.9 62.45c1.17-1.45 2.32-2.94 3.45-4.45a20.19 20.19 0 0 0 2.44-4.73c.29-.75.94-1.81.43-2.64-.61-1-3.4-1.88-4.51-2.12a3.78 3.78 0 0 0 -2.71.49 10.74 10.74 0 0 1 -4 .79 47 47 0 0 0 3.31 14.65 14.09 14.09 0 0 0 1.59-1.99z"/><path d="m6.58 65.54c1.56.53 3.69 1.88 5.13 1.58a4.41 4.41 0 0 0 1.41-.65l2.64-1.61a43.61 43.61 0 0 1 5.82-3.15c1.89-.79 2.55.65 4.39 1a.34.34 0 0 0 .38-.37c-.22-1.9 1.44-5.65.2-6.67-1.16-.72-2.34-1.39-3.54-2a1 1 0 0 0 -.47-.16c-.82 0-1.73.65-2.62.7a5 5 0 0 1 -2.54-.53c-.75-.4-1.35-1.15-2.25-1.25a.83.83 0 0 0 -.52.06.76.76 0 0 0 -.25.31 133.82 133.82 0 0 1 -7.93 12.2.33.33 0 0 0 .15.54z"/></g><path d="m62.76 89.73a1.39 1.39 0 0 1 .24-1.82c.83-1 1.88-2 3.15-1.91a2.88 2.88 0 0 0 1.33.08c1-.38 1-2.51 2.09-2.3a1.13 1.13 0 0 1 .43.22 9.39 9.39 0 0 1 2 2.88c.77-.49 1.53-1 2.27-1.53-1.13-.61-2.16-1.35-2.27-2.25-.25-1.45 1.05-2.18 1.75-3.21a6.25 6.25 0 0 0 .62-1.24c.88-2.37.42-5.26.62-7.78h-2.9a20.94 20.94 0 0 0 -.48 2.56c-.08 1.43.42 3.07-.51 4.16a.62.62 0 0 1 -.44.26.76.76 0 0 1 -.45-.2l-1.38-1a.54.54 0 0 0 -1 .15 9.75 9.75 0 0 1 -.83 1.44 1.69 1.69 0 0 1 -1.47.7c-.76-.1-1.25-.89-2-1.12-1.16-.37-2.62.71-3.53-.09-.61-.54-.48-1.61-1.09-2.17a1.9 1.9 0 0 0 -1.55-.32c-1.82.21-3.74 1.15-5.37.34a6.37 6.37 0 0 0 -1.72-.88 3.71 3.71 0 0 0 -1.62.33 3.84 3.84 0 0 1 -2.83 0c-1.75-.85-1.08-2.51-.78-3.93a2 2 0 0 0 0-.24h-3.71v.26a35 35 0 0 1 -.89 4.06 1.84 1.84 0 0 1 -.44.82 1.89 1.89 0 0 1 -1.3.38 15.54 15.54 0 0 0 -3.58.63 5.64 5.64 0 0 0 -1.49.64c-1.12.76-1.19 2.32-2.19 3.1a7.13 7.13 0 0 1 -1.16-1.17 1.56 1.56 0 0 0 -.36-.32 1.25 1.25 0 0 0 -.64-.08c-2.58.14-5.16.23-7.74.36-1.44.07-1.82-.76-2.76-1.8 0-.48-1.84-2.08-2.21-2.44a22.4 22.4 0 0 1 -2.15-2.1 24.47 24.47 0 0 1 -1.54-2.2.41.41 0 0 0 -.05-.09h-3.45l.06.18c.81 2.3 2.9 3.86 4.89 5.27.59.42 1.14.75 1.73 1.17a25.81 25.81 0 0 1 -1.62 3.45q.75.72 1.53 1.41l.06-.07a2.74 2.74 0 0 1 .68-.49 2.84 2.84 0 0 1 1.05-.19c3.12-.17 6.25-.33 9.36-.51 1.21-.07 1.36.22 1.75 1.32.26.73.41 1.49.62 2.24a1 1 0 0 1 .07.51 1.08 1.08 0 0 1 -.24.43l-1.78 2.25c-1.18.17-2.16.54-2.95-.5a6.74 6.74 0 0 0 -2.16-1.85 17.88 17.88 0 0 1 .58 2 47.77 47.77 0 0 0 8.54 4l7 1a2.59 2.59 0 0 1 1.33.46 1.54 1.54 0 0 1 .43.63 49.45 49.45 0 0 0 6.36.47 3.08 3.08 0 0 1 .24-.26 2.69 2.69 0 0 1 1.21-.53 11.62 11.62 0 0 1 2.76-.3 1.94 1.94 0 0 1 .34 0 1 1 0 0 1 .38.1 1.51 1.51 0 0 1 .49.38 2.09 2.09 0 0 1 .23.29 47 47 0 0 0 11.36-2.77l-.13-.19c-.29-.39-.55-.74-.79-1.08zm-6.07-.44c-.53 1.33-.73 3.3-1.95 3.46-.83.11-1.47-.79-2.14-1.39-1.75-1.54-4.11-1-6.23-1-2.56.11-5.1-.89-7.53-1.55a20.57 20.57 0 0 0 -6.69-.28 2.21 2.21 0 0 1 -1.2-.14c-1.48-.76.46-3.19 1.15-3.8.89-.79 2-1.36 2.94-2.06a23.19 23.19 0 0 0 2.85-2.93 7 7 0 0 1 1.66-1.31c2.31-1.25 4.36 0 6.79 0 1.92 0 3.81-1 5.71-.71 1.64.3 3 1.57 4.63 2.14s3.5.36 5.23.75a2 2 0 0 1 1.56 1.08 2.54 2.54 0 0 1 -.69 2.45c-1.86 2.11-5.01 2.54-6.09 5.29z" fill="#fffcf3"/><path d="m51.61 93.08a1 1 0 0 0 -.38-.1 1.94 1.94 0 0 0 -.34 0 11.62 11.62 0 0 0 -2.76.3 2.69 2.69 0 0 0 -1.21.53 3.08 3.08 0 0 0 -.24.26h.32a49.37 49.37 0 0 0 5.33-.31 2.09 2.09 0 0 0 -.23-.29 1.51 1.51 0 0 0 -.49-.39z" fill="#dae0cf"/><path d="m38.56 92.49-7-1a47.38 47.38 0 0 0 8.77 2.13 1.54 1.54 0 0 0 -.43-.63 2.59 2.59 0 0 0 -1.34-.5z" fill="#dae0cf"/><path d="m70 84a1.13 1.13 0 0 0 -.48-.26c-1.09-.21-1 1.92-2.09 2.3a2.88 2.88 0 0 1 -1.3-.04c-1.27-.12-2.32.94-3.15 1.91a1.39 1.39 0 0 0 -.22 1.82c.2.34.5.69.79 1.08l.13.19a46.65 46.65 0 0 0 8.32-4.12 9.39 9.39 0 0 0 -2-2.88z" fill="#dae0cf"/><path d="m45 71.11c-.3 1.42-1 3.08.78 3.93a3.84 3.84 0 0 0 2.83 0 3.71 3.71 0 0 1 1.62-.33 6.37 6.37 0 0 1 1.72.88c1.63.81 3.55-.13 5.37-.34a1.9 1.9 0 0 1 1.55.32c.61.56.48 1.63 1.09 2.17.91.8 2.37-.28 3.53.09.72.23 1.21 1 2 1.12a1.69 1.69 0 0 0 1.47-.7 9.75 9.75 0 0 0 .88-1.46.54.54 0 0 1 1-.15l1.38 1a.76.76 0 0 0 .45.2.62.62 0 0 0 .44-.26c.93-1.09.43-2.73.51-4.16a20.94 20.94 0 0 1 .48-2.56h-27a2 2 0 0 1 -.1.25z" fill="#dae0cf"/><path d="m63.47 81.54a2 2 0 0 0 -1.56-1.08c-1.73-.39-3.55-.15-5.23-.75s-3-1.84-4.63-2.14c-1.9-.34-3.79.7-5.71.71-2.43 0-4.48-1.2-6.79 0a7 7 0 0 0 -1.66 1.31 23.19 23.19 0 0 1 -2.89 2.98c-1 .7-2 1.27-2.94 2.06-.69.61-2.63 3-1.15 3.8a2.21 2.21 0 0 0 1.2.14 20.57 20.57 0 0 1 6.69.28c2.43.66 5 1.66 7.53 1.55 2.12-.09 4.48-.58 6.23 1 .67.6 1.31 1.5 2.14 1.39 1.22-.16 1.42-2.13 1.95-3.46 1.08-2.75 4.23-3.18 6.09-5.26a2.54 2.54 0 0 0 .73-2.53z" fill="#dae0cf"/><path d="m74.33 78.65a6.25 6.25 0 0 1 -.62 1.24c-.7 1-2 1.76-1.75 3.21.15.9 1.18 1.64 2.27 2.25a47.1 47.1 0 0 0 13.3-14.48h-12.53c-.25 2.52.21 5.41-.67 7.78z" fill="#dae0cf"/><path d="m14.33 76.32c-2-1.41-4.08-3-4.89-5.27l-.06-.18h-2.91a46.85 46.85 0 0 0 8 10.07 25.81 25.81 0 0 0 1.62-3.45c-.62-.42-1.17-.75-1.76-1.17z" fill="#dae0cf"/><path d="m24.59 87.34c.79 1 1.77.67 2.95.5l1.78-2.25a1.08 1.08 0 0 0 .24-.43 1 1 0 0 0 -.07-.51c-.21-.75-.36-1.51-.62-2.24-.39-1.1-.54-1.39-1.75-1.32-3.11.18-6.24.34-9.36.51a2.84 2.84 0 0 0 -1.05.19 2.74 2.74 0 0 0 -.68.49l-.06.07a46.78 46.78 0 0 0 7 5.13 17.88 17.88 0 0 0 -.58-2 6.74 6.74 0 0 1 2.2 1.86z" fill="#dae0cf"/><path d="m12.88 71a24.47 24.47 0 0 0 1.55 2.22 22.4 22.4 0 0 0 2.15 2.1c.37.36 2.21 2 2.21 2.44.94 1 1.32 1.87 2.76 1.8 2.58-.13 5.16-.22 7.74-.36a1.25 1.25 0 0 1 .64.08 1.56 1.56 0 0 1 .36.32 7.13 7.13 0 0 0 1.16 1.17c1-.78 1.07-2.34 2.19-3.1a5.64 5.64 0 0 1 1.49-.67 15.54 15.54 0 0 1 3.58-.63 1.89 1.89 0 0 0 1.29-.37 1.84 1.84 0 0 0 .39-.79 35 35 0 0 0 .89-4.06c0-.07 0-.16 0-.26h-28.45a.41.41 0 0 1 .05.11z" fill="#dae0cf"/></svg>