<?xml version="1.0" encoding="utf-8"?>
<!-- Generator: Adobe Illustrator 25.1.0, SVG Export Plug-In . SVG Version: 6.00 Build 0)  -->
<svg version="1.1" id="print" xmlns="http://www.w3.org/2000/svg" xmlns:xlink="http://www.w3.org/1999/xlink" x="0px" y="0px"
	 viewBox="0 0 87.9 88" style="enable-background:new 0 0 87.9 88;" xml:space="preserve">
<style type="text/css">
	.st0{fill-rule:evenodd;clip-rule:evenodd;fill:#89D0EE;}
	.st1{fill:#FFFFFF;}
	.st2{fill:#00A7E1;}
</style>
<g id="argentine">
	<circle class="st0" cx="43.9" cy="44" r="43.9"/>
	<path class="st1" d="M37.2,6L37.2,6c2.2-0.4,4.4-0.6,6.7-0.6c2.4,0,4.7,0.2,6.9,0.6l0,0c4.6,0.8,9,2.5,12.9,4.9l3-4.5
		C60.1,2.4,52.3,0,43.9,0c-8.5,0-16.4,2.4-23.1,6.6l3,4.5C27.8,8.6,32.4,6.9,37.2,6z"/>
	<path class="st2" d="M43.8,5.4c2.4,0,4.5,0.1,7,0.6l1.4-5.1C49.6,0.3,46.8,0,43.9,0c-2.8,0-5.6,0.3-8.3,0.8L37.1,6
		C39.3,5.6,41.5,5.4,43.8,5.4z"/>
</g>
</svg>
