<svg viewBox="0 0 94 94.06" xmlns="http://www.w3.org/2000/svg"><circle cx="47" cy="47.03" fill="#fff" r="47.03"/><path d="m85.87 70.9a7 7 0 0 1 -2-1 25.46 25.46 0 0 0 3.13-1.9 9.79 9.79 0 0 0 2.45-2.35 1.69 1.69 0 0 0 .11-.67.41.41 0 0 0 -.26-.42.7.7 0 0 0 -.64.23c-1.28 1.06-2.54 2.13-3.78 3.23a5.3 5.3 0 0 1 -2 1.14c-2.7 0-5-1.47-5.52-2.39a12.73 12.73 0 0 0 5.12-1 8.32 8.32 0 0 0 1.39-1 4.7 4.7 0 0 0 1.64-2.33.84.84 0 0 0 -.31-1 1 1 0 0 0 -.77 0 8.61 8.61 0 0 0 -2.5 1.88 8.08 8.08 0 0 1 -4.76 1.84 2.46 2.46 0 0 1 -1.24-1.1 7.41 7.41 0 0 1 -1.14-2.06c-.53-1.59-1-3.29-2.64-4.06a18.46 18.46 0 0 0 2.37-.68 8.19 8.19 0 0 0 1.14-.78 9.09 9.09 0 0 1 1.75-1c1.34-.56 2.83.72 3.83 1.71a5.32 5.32 0 0 0 1.6 1.39 1.06 1.06 0 0 0 .52.09.79.79 0 0 0 .64-.74 1.54 1.54 0 0 0 -.37-.94c-1.1-1.52-3.16-2.21-5.12-2.57a24.16 24.16 0 0 1 4.41-2.11 1.72 1.72 0 0 1 1.08-.16c1.16.37 1.77 1.54 2.29 2.55s.88 2.1 1.44 3.1a1 1 0 0 0 .25.33.8.8 0 0 0 .89 0 1.17 1.17 0 0 0 .49-.74 3.51 3.51 0 0 0 -1-2.76 7.55 7.55 0 0 0 -3.64-3.05c2-.36 4.18-.7 6.09 0a10.32 10.32 0 0 1 1.82 4.71 8.81 8.81 0 0 0 .17 1.13c.2-.9.38-1.81.53-2.72-.37-1.08-.76-2.15-1.21-3.2l1.57.59a46.85 46.85 0 0 0 -.68-14.55c-.33-.27-.64-.56-.94-.86a24.73 24.73 0 0 1 -3.43-4.68c1.4 1.18 2.73 2.44 4 3.73a46.38 46.38 0 0 0 -4.54-11.56c0 .29 0 .58-.08.87s-.05.52-.09.77a7 7 0 0 1 -.4 2.29l.32.2q0 .33-.06.69l-.35-.23c-.2.48-1.31.95-1.72 1.12a13.11 13.11 0 0 1 -1.74.57c-2.55.71-5.1 1.42-7.69 1.95a22.62 22.62 0 0 1 2.3-1.3 25 25 0 0 1 4.33-1.66 17.37 17.37 0 0 1 4.36-.79c-.6-.41-1.21-.81-1.82-1.2a7 7 0 0 1 -2.46.82c-.91.25-1.83.45-2.76.63s-1.86.34-2.8.49l-1.4.23a5 5 0 0 0 -1.3.21 25 25 0 0 1 7.08-2.19 8.56 8.56 0 0 1 3.45-.32c-.84-.54-1.7-1.06-2.56-1.58a39.31 39.31 0 0 1 -10.86 1.76 15.83 15.83 0 0 0 2.66-.8c.89-.22 1.8-.41 2.71-.55a23.5 23.5 0 0 1 5.49-.38c-.57-.34-1.12-.69-1.69-1a15.86 15.86 0 0 1 -4.86.74 21.25 21.25 0 0 1 -2.26-.06 9.08 9.08 0 0 0 -2.09-.27 20.16 20.16 0 0 1 4.58-.58c.74 0 3.14-.37 4.2-.06-.67-.38-1.35-.74-2-1.1-.09.3-.83.37-1.09.43a10.9 10.9 0 0 1 -3.32.17 22 22 0 0 1 -4.74-1.09 47.38 47.38 0 0 1 7.44 0h.86l-.74-.33c-.23.2-1.32-.32-1.59-.41-1.26-.44-2.49-1-3.71-1.52-1-.47-2.37-1.48-3.48-1.67a26.3 26.3 0 0 1 4.29 1.13 26.72 26.72 0 0 1 3.59 1.57c.18.09 1 .4 1 .74l1.26.57c-.2-.21-.39-.46-.5-.6a5.31 5.31 0 0 1 -.69-1.26c-.78-1.8-1.5-3.62-2.23-5.44a24.93 24.93 0 0 1 2.24 3.52c.48.93 1.75 3 1.7 4 1.09.51 2.15 1.05 3.2 1.6a2.5 2.5 0 0 1 -.42-1.07c-.44-2.56-.81-5.13-1.22-7.69a12.2 12.2 0 0 0 .67 1.76c.2.6.38 1.2.53 1.81a25.27 25.27 0 0 1 .65 3.43c0 .29.4 1.59.14 1.79a.3.3 0 0 1 -.19.06c.55.29 1.1.6 1.64.91a2.6 2.6 0 0 1 -.32-1 45.71 45.71 0 0 1 -.19-7.68 48.66 48.66 0 0 0 -4.75-5 11.7 11.7 0 0 1 -2.25 4.07l.39-.9a4.92 4.92 0 0 1 -.87 1.25 18.67 18.67 0 0 0 2-5 47 47 0 0 0 -63.15 1.18c.36-.22.72-.45 1.1-.67l.41-.24a42.71 42.71 0 0 1 5.54-2.56 6.61 6.61 0 0 1 1.52.43 5.8 5.8 0 0 1 2 1.51 10.32 10.32 0 0 1 1.49 2.56l1.2 2.69a48.68 48.68 0 0 0 -4.88-1.43 4.43 4.43 0 0 0 -2-.16c-.17 0-.36.13-.39.3a.45.45 0 0 0 .15.35 3.34 3.34 0 0 0 2.3.64 11.07 11.07 0 0 1 4.82 1.51c.77 1.73.5 3.73.2 5.61a7.16 7.16 0 0 0 -3.2-3.25 3.81 3.81 0 0 0 -2.83-.77 1.19 1.19 0 0 0 -.73.48.69.69 0 0 0 0 .82 1.15 1.15 0 0 0 .35.22c1 .48 2.13.77 3.18 1.21s2.25 1 2.66 2a1.45 1.45 0 0 1 -.08 1 21.9 21.9 0 0 1 -2 4.14c-.44-1.79-1.2-3.66-2.78-4.62a1.61 1.61 0 0 0 -1-.3.77.77 0 0 0 -.73.61.83.83 0 0 0 .11.48 5 5 0 0 0 1.46 1.42c1 .89 2.38 2.21 1.85 3.47a7.8 7.8 0 0 1 -.93 1.64 7.34 7.34 0 0 0 -.71 1.14 16.25 16.25 0 0 0 -.61 2.2c-.83-1.47-2.57-1.85-4.2-2.28a8.28 8.28 0 0 1 -2.19-.92 2.45 2.45 0 0 1 -1.16-1.11 7.17 7.17 0 0 1 1.71-4.46 8 8 0 0 0 1.82-2.43.85.85 0 0 0 0-.7.9.9 0 0 0 -1-.25 4.67 4.67 0 0 0 -2.3 1.6 7 7 0 0 0 -.95 1.35 10.79 10.79 0 0 0 -.87 4.76 6.58 6.58 0 0 1 -2.61-5 4.86 4.86 0 0 1 1.09-1.91q1.6-1.77 3.15-3.59c.14-.18.3-.4.21-.61a.42.42 0 0 0 -.44-.22 2.09 2.09 0 0 0 -.67.12 9.69 9.69 0 0 0 -2.3 2.35 23.63 23.63 0 0 0 -1.82 2.9 6.46 6.46 0 0 1 -1.1-1.8 3.62 3.62 0 0 1 -.16-1.82 2.26 2.26 0 0 1 .82-1.14 18 18 0 0 1 1.89-1.47 7.07 7.07 0 0 0 2.43-2.1.53.53 0 0 0 .08-.23.49.49 0 0 0 -.15-.35 1.5 1.5 0 0 0 -1.55-.21 47 47 0 0 0 -7 10.4h.22l-.25.08a47 47 0 0 0 31.29 66.64c-.07-.24-.14-.47-.2-.71.12.26.26.5.39.75.91.21 1.82.39 2.74.55a19.62 19.62 0 0 1 -2.32-6c1.13 2.12 2.37 4.18 3.67 6.2.74.1 1.47.18 2.22.25-.58-1.27-1.27-2.49-1.86-3.75a46.68 46.68 0 0 1 -1.9-5.09c1.68 2.85 3.29 5.75 4.8 8.69 0 .07.07.15.11.22l1.15.09c-.11-.21-.21-.51-.29-.68-.55-1.16-1.07-2.32-1.56-3.5-1-2.34-1.84-4.73-2.59-7.15 1.53 3.31 3.64 6.38 4.7 9.88a3.21 3.21 0 0 1 .21 1.33c.43-.66.87-1.31 1.31-2a.27.27 0 0 1 -.13 0c-.4-.08-.84-1.76-1-2.1a33 33 0 0 1 -1.24-4.26c-.17-.78-.32-1.56-.43-2.35a16.83 16.83 0 0 0 -.26-2.38c1 3.14 2.06 6.26 3 9.41a4.54 4.54 0 0 1 .26 1.29c.85-1.21 1.74-2.39 2.67-3.57a.05.05 0 0 1 0 0c-.7-1.13-.45-4.08-.43-5.43a31 31 0 0 1 .5-5.26c.22 2.48.45 5 .6 7.43a6.93 6.93 0 0 1 0 1.82 6.37 6.37 0 0 1 -.26 1c.37-.47.74-.94 1.13-1.41-.22-.38.55-1.2.69-1.4a33.89 33.89 0 0 1 3.17-3.67 32.89 32.89 0 0 1 4.2-3.71c-1.15.85-2.07 2.74-3 3.86-1.06 1.32-2.15 2.6-3.32 3.82-.25.26-1.19 1.48-1.56 1.37-.2.26-.39.53-.58.79.38-.23.78-.43.94-.53a58.22 58.22 0 0 1 8.4-4.19 28.1 28.1 0 0 1 -4.73 3.91 13.8 13.8 0 0 1 -3.82 1.68c-.33.08-1.23.42-1.49.12-.46.64-.91 1.3-1.36 2a38.64 38.64 0 0 1 4.48-1.86 25.11 25.11 0 0 1 5.5-1.92c-.65.14-1.6 1.13-2.21 1.49a26.15 26.15 0 0 1 -2.5 1.26 21.72 21.72 0 0 1 -5.8 1.76c-.5.76-1 1.52-1.48 2.28a29.32 29.32 0 0 1 6.46-2.7c1.11-.35 2.24-.65 3.38-.9a18.18 18.18 0 0 0 3.44-.61 48.84 48.84 0 0 1 -13.28 4.21l-.57.9h.86a47 47 0 0 0 40.43-23 4.09 4.09 0 0 1 -1.57-.13zm-5.43-48a6.89 6.89 0 0 1 .24 1.25c-1-.52-1.37-1.94-1.64-2.9a28.17 28.17 0 0 1 -1-5.52 23 23 0 0 1 2.4 7.17zm-59.29-15.12h.07a3.43 3.43 0 0 0 .22.59c-.09-.22-.19-.37-.29-.59zm2.39-1 .81-.31a28.53 28.53 0 0 1 .65 3.53c-.49-1.08-1-2.12-1.46-3.17zm48 41c1.43-1.5 2.85-3 4.32-4.46a5.65 5.65 0 0 1 1.17-1c.31-.17.68-.37 1-.2-.32 1.07-2.07 2.32-2.92 3a25.85 25.85 0 0 1 -3.54 2.71zm3.05 1.24a30 30 0 0 1 3.14-5c.65-.84 1.62-2.07 2.75-2.2a7.24 7.24 0 0 1 -.7 1.18 24.23 24.23 0 0 1 -5.16 6.07zm3.81-.9a13.2 13.2 0 0 0 -1.35 1.47c1.41-2.35 2.79-4.73 4.23-7.07.15-.24.6-1 .91-.42.18.29-.42 1.08-.57 1.35a26 26 0 0 1 -2 3.11q-.55.86-1.19 1.61zm6.07-1.75a40 40 0 0 1 -2.13 4q1.29-3.93 2.8-7.79c.19-.47.52-1.31 1.13-1.37.85-.09.09.79-.09 1.13-.66 1.32-1.1 2.74-1.68 4.08zm6.53-3.19a18.91 18.91 0 0 1 -2.59 5.18c1-2.18 1.45-4.52 2.21-6.77.11-.35 1-2.24 1.07-1.25a8.38 8.38 0 0 1 -.69 2.84zm-7.82-2.1a24.57 24.57 0 0 1 -5.25-2.57c-.83-.5-1.64-1-2.42-1.62a15.5 15.5 0 0 0 -2.28-1.83 40.71 40.71 0 0 1 9.95 6.02zm-8.76-3.19a23 23 0 0 1 2.22.84 12.75 12.75 0 0 1 3.91 2.27c-.86.43-3.21-.93-4-1.3a20.74 20.74 0 0 1 -4.23-2.39 9 9 0 0 0 2.1.58zm1.86 3.63a50 50 0 0 1 -7.24-3 24 24 0 0 1 5 .82 11.61 11.61 0 0 1 3.17 1.48c.24.16.95.54.9.87 2.73-.27 5.46-.68 8.16-1.2a8.54 8.54 0 0 1 -3.27-1.65 26.14 26.14 0 0 1 -6-5 5 5 0 0 0 1.19.74l1.28.78c.85.52 1.69 1 2.53 1.59s1.65 1.11 2.44 1.71c.52.4 1.81 1.15 2.07 1.8.76-.15 1.51-.3 2.26-.47a18.42 18.42 0 0 1 -3.94-2.51 25.16 25.16 0 0 1 -3.57-3.35 24.1 24.1 0 0 1 -1.73-2.13c.74.5 1.47 1 2.2 1.54a13.85 13.85 0 0 1 1.57-1 25.28 25.28 0 0 1 4.1-1.78l.28-.12c0 .31.41.6.38.93-.13.05-.73.12-.83.15l-2.3.87 1.72 1.59c.23-.14.45-.28.69-.41 1.82-.77 1.66-.1 1.66.23a11.47 11.47 0 0 1 -1.69.71l2.58 2.4c.4.37 1.24 1.11 1.13 1.75s-1-.48-1.35-.74a27.94 27.94 0 0 1 -3.13-3.12c-.8.26-1.55.48-2 .63l1.76 1.36a14.39 14.39 0 0 1 1.47 1.24c.33.34 1.23 1.24 1.23 1.8 1.46-.33 2.9-.67 4.34-1.07l-.12.7c-1.48.4-2.94.73-4.4 1a7.21 7.21 0 0 1 -.5 2.42c-.23.87-.47 1.74-.77 2.58a16.56 16.56 0 0 1 -2.55 4.77 72.27 72.27 0 0 0 2.26-7 5.4 5.4 0 0 1 1.23-2.69c-1.3.26-2.59.48-3.89.67.18.1-.14.59-.25.84-.42 1-.87 1.94-1.34 2.9q-1.4 2.85-3 5.55c1.23-2.78 2-5.79 3.61-8.38a2.52 2.52 0 0 1 .73-.87 71.94 71.94 0 0 1 -8 .67c-.11.35-1 .32-1.26.34a28.36 28.36 0 0 1 -4.12.12 28.74 28.74 0 0 1 -4.63-.59c1.16.25 2.85-.21 4-.26 1.41-.07 2.82-.09 4.22 0 .3 0 1.58-.07 1.72.22l.82-.06c-.32-.18-.67-.33-.82-.37zm-4.28-27.58a17.62 17.62 0 0 1 -2.44 4.84c.9-2 1.37-4.23 2.08-6.33.11-.33.91-2.11 1-1.18a7.9 7.9 0 0 1 -.64 2.67zm4.31-3.49a15.54 15.54 0 0 1 -.77 2.66 19.93 19.93 0 0 1 -2.89 5.25c1.11-2.56 1.5-5.42 2.83-7.87a2.13 2.13 0 0 1 .16-.25zm-4.45-1.23a.93.93 0 0 1 .16.64c-.11.62-1-.44-1.25-.68l-.3-.27zm-15.03-2.22a36.94 36.94 0 0 1 7.88 5 22.41 22.41 0 0 1 -4.92-2.4c-.78-.47-1.53-1-2.27-1.52-.38-.28-.79-.7-1.21-1.07zm-.33 2a19.27 19.27 0 0 1 2.08.78 11.75 11.75 0 0 1 3.66 2.14c-.8.4-3-.87-3.79-1.22a19.12 19.12 0 0 1 -4-2.24 8.48 8.48 0 0 0 2.05.54zm-17.64-6.42.47-.31c1.1-.23 2.2-.46 3.33-.66q-.66.39-1.26.75c-1 .58-2.55 1.41-3.78 1.06a7.71 7.71 0 0 1 1.24-.84zm-8.43 1.93c.31.5.61 1 .88 1.49a28.47 28.47 0 0 1 2.25 5 28.22 28.22 0 0 1 .84 3c-1.73-2.58-3.27-5.29-4.81-8-.19-.34-.38-.68-.56-1zm-3.82 1.21.95-.31a24.82 24.82 0 0 1 1 2.78 15.77 15.77 0 0 1 .54 3zm-9.88 33.8a38.71 38.71 0 0 1 -7.59.78c-1.36 0-3.38 0-4.41-1a9 9 0 0 1 1.73-.16c3.43-.28 6.94-.51 10.27.38zm1.15 4.08c-2.65-.26-5.31-.53-7.95-.87a6.81 6.81 0 0 1 -1.93-.43c-.41-.17-.92-.39-1-.86 1.33-.51 4 .28 5.4.57a33.52 33.52 0 0 1 5.48 1.59zm-2.52-7c-3.51.43-7 .91-10.53 1.29-.36 0-1.45.15-1.15-.6.16-.4 1.44-.42 1.82-.48a35.85 35.85 0 0 1 4.74-.44h2.57a17.08 17.08 0 0 0 2.55.2zm-11.54-7.71a20.22 20.22 0 0 1 6.07-1c-2.12.65-4.22 1.41-6.29 2.22.07-.42.15-.82.22-1.22zm-.62 3.55c1-.29 2-.6 3-.86a50.42 50.42 0 0 1 5.73-1c-2.93 1.07-5.93 2.04-8.93 2.95.09-.37.14-.73.2-1.09zm-.37 2.42c1.07-.27 2.17-.53 3.17-.75q4-.82 8.06-1.28c-3.81.94-7.47 2.54-11.37 3 .05-.36.1-.67.14-.97zm.75 17.14a58.47 58.47 0 0 1 -1.64-9.83c.12-1.2.24-2.38.38-3.51a37.14 37.14 0 0 1 1.06 5.84q.21 1.88.27 3.75c.03 1.12-.33 2.69-.07 3.75zm7 17.54c-.4-.1-.8-.22-1.19-.35a10.23 10.23 0 0 1 -1.39-.38c-.27-.09-.59-.22-.92-.36-.59-.77-1.17-1.56-1.75-2.37l-.9-1.28-.09-.13-.06-.09a1 1 0 0 0 .08-.22 4.52 4.52 0 0 0 .17-1.16 21.86 21.86 0 0 0 -.17-2.56 8.65 8.65 0 0 1 .91-5.42c0-.16.08-.32.14-.48a1.6 1.6 0 0 0 0 .23.77.77 0 0 1 .1-.5l.49 1.72a8 8 0 0 0 .3 1 7.79 7.79 0 0 0 1.43 2.08 3.45 3.45 0 0 1 .45.63 3.25 3.25 0 0 1 .2.6 4.89 4.89 0 0 1 .09.53c.22-.08.43-.15.65-.21a4.79 4.79 0 0 1 -.42-1.11 7.12 7.12 0 0 1 -.33-2.5 8 8 0 0 1 .4-1.66c.33-1.05.66-2.11 1-3.16a26.63 26.63 0 0 1 -2.43-4.64 14.21 14.21 0 0 1 -1-4.4c0-.36-.19-1.36.16-1.59-1.31-1.36-2.64-2.7-4-4 0-.26.06-.52.1-.77 2 2 3.87 4.11 5.72 6.35.43-.16 1.15.81 1.33 1a35.62 35.62 0 0 1 3.35 4.07c.69 1 1.32 2 1.91 3a16.54 16.54 0 0 1 1.25-1.27 1.05 1.05 0 0 1 .29-.64 2.47 2.47 0 0 0 -.11.47h.05a2.6 2.6 0 0 0 -.1.25 4.34 4.34 0 0 0 0 .51 3.59 3.59 0 0 1 1-1.23 7.68 7.68 0 0 1 1.71-.98 2.3 2.3 0 0 1 .35-.47 2.49 2.49 0 0 0 -.2.4 1 1 0 0 1 .26-.41.1.1 0 0 0 0 .1h.11l-.11.24h.05a1.76 1.76 0 0 0 -.14.23 3.26 3.26 0 0 0 -.15.44 6.78 6.78 0 0 1 .77-.5c.24-.19.48-.38.71-.58l-.06.07s0 0 0 .05l.05-.06a1.42 1.42 0 0 1 -.1.29c-.13.54-.33 1-.49 1.54 0 .17-.08.36-.13.55l.15-.14a1.79 1.79 0 0 0 .22-.25.43.43 0 0 1 0 .07.86.86 0 0 0 .14-.13l-.22.29a3.58 3.58 0 0 1 -.21.39c.15-.12.29-.25.43-.38a11.43 11.43 0 0 1 -1.43 3.33 8.15 8.15 0 0 1 -1.33 1.66h.1a5.13 5.13 0 0 0 2.24-.68 4.5 4.5 0 0 1 -.42.3l.21-.07-.53.43c.23-.07.46-.15.71-.25-.24.44-.45.48-.84.8-.75.61-1.51 1.22-2.31 1.78a15.68 15.68 0 0 1 -4.34 2 3.59 3.59 0 0 1 -.41.11c0 .14.17 0 0 .22s-.16.21-.24.33h.07a3.88 3.88 0 0 1 .9.42c.17.11.33.23.5.36a8.55 8.55 0 0 1 .74.61c.24.24.45.5.7.72a5.23 5.23 0 0 0 .94.68 3.1 3.1 0 0 0 .47.26c.64.29 1.42.22 2 .61a1.88 1.88 0 0 1 -.53 0s0 0 0 .07-.07 0-.14.07h.32c-1.9.78-3.78.41-5.83.41-.53 0-1.07 0-1.6-.07a9.36 9.36 0 0 1 -2.38-.51l-.32-.1a1.42 1.42 0 0 0 -.49.59 2.91 2.91 0 0 1 .45.48c.28.34.56.68.82 1l.55.78a7.69 7.69 0 0 0 2.92 2.66 2.78 2.78 0 0 1 .73.42 4.08 4.08 0 0 1 -1.21 0h-.15c-.3.01-.58-.1-.76-.14zm-6.73-29.67c1.11.53 1.59 4 1.88 5.14a26.37 26.37 0 0 1 .91 6.18c0-.72-.86-1.92-1.12-2.63a29.64 29.64 0 0 1 -.9-2.91c-.43-1.73-1.04-4.01-.77-5.78zm27.15 47.79a5.82 5.82 0 0 1 -2.69.08c-.43-.09-.86-.15-1.29-.23a50.46 50.46 0 0 1 -7.29-4.51l-.57-.42a64.45 64.45 0 0 1 -7.76-7 15.11 15.11 0 0 1 -.12-1.51c1.3-2 3.57-3 5.71-3.88-1.15 1.54-1.31 3.62-1.3 5.56a4.85 4.85 0 0 0 1 3.53 1.49 1.49 0 0 0 1 .47.84.84 0 0 0 .84-.57 1.46 1.46 0 0 0 0-.51c-.18-1.41-.59-2.79-.8-4.2s-.45-3 .38-4.17a1.77 1.77 0 0 1 1.1-.56 25.66 25.66 0 0 1 5.6-.58c-1.59 1.64-3 3.68-3 6a2.1 2.1 0 0 0 .31 1.23.93.93 0 0 0 1.1.38 1.09 1.09 0 0 0 .43-.42 6.52 6.52 0 0 0 .55-2.5c.24-1.69.76-4 2.41-4.25a9.4 9.4 0 0 1 2.31-.07 9.79 9.79 0 0 0 1.62.1 19.65 19.65 0 0 0 2.69-.78c-1 1.85-.27 3.95.35 6a10.55 10.55 0 0 1 .45 3 3.11 3.11 0 0 1 -.41 2 8.49 8.49 0 0 1 -5.74 1.09c-1.22-.21-2.45-.68-3.65-.4a1 1 0 0 0 -.73.46c-.22.41.06.93.4 1.26a5.8 5.8 0 0 0 3.1 1.39 8.62 8.62 0 0 0 2 .13 13.17 13.17 0 0 0 5.53-2.17c.09 1.33-1.04 4.27-3.53 6.05zm5.92-75.82-1-1.35c-.66-.9-1.3-1.8-1.93-2.72s-1.21-1.85-1.77-2.77c-.12-.21-.31-.5-.52-.81l1-.28c.38.52.72 1.07 1 1.54a29.25 29.25 0 0 1 4.09 7.7 5.5 5.5 0 0 0 -.88-1.31zm-2.22-8.49-.16-.29.28.25a28.75 28.75 0 0 1 4 4.65c.64.87 1.24 1.78 1.81 2.71a17.8 17.8 0 0 0 1.55 2.86 46.52 46.52 0 0 1 -7.48-10.18zm7.5 6.77q-1-.87-1.92-1.83a20 20 0 0 1 -3.28-4.59l-1.79-.47 1-.25c1.27.38 2.53.81 3.79 1.26.79-.95 3.47-1.59 4.66-2a30.2 30.2 0 0 1 4.74-1.08c-2.11.92-4.23 1.84-6.4 2.7a6.05 6.05 0 0 1 -1.62.48 6 6 0 0 1 -1 0l1.62.66c.26-.31 1.22.13 1.44.2a30.3 30.3 0 0 1 4.3 1.66 30.82 30.82 0 0 1 4.52 2.61c-1.1-.76-3-1-4.3-1.49-1.47-.54-2.93-1.13-4.35-1.81-.28-.17-1.61-.61-1.61-.97l-.87-.28c.32.27.61.56.74.67a56.53 56.53 0 0 1 6.13 6.17 25.82 25.82 0 0 1 -4.86-3 12.73 12.73 0 0 1 -2.64-2.89c-.17-.27-.72-.95-.55-1.27-.74-.23-1.48-.45-2.23-.66a31.29 31.29 0 0 1 3.08 3.43 23.08 23.08 0 0 1 3.33 4.28c-.27-.56-1.43-1.11-1.93-1.53zm5.92 80a8.1 8.1 0 0 1 -.44-1.55c-.83-3.1-1.65-6.28-1.42-9.48a36.83 36.83 0 0 1 2.05 6.81c.24 1.24.58 3.1-.19 4.22zm5.72-71.83c1.33-1.4 2.67-2.81 4-4.18a5.23 5.23 0 0 1 1.09-.9c.28-.16.64-.35.94-.18-.31 1-1.94 2.17-2.74 2.85a24.86 24.86 0 0 1 -3.29 2.41zm2.85 1.16a28.33 28.33 0 0 1 2.94-4.71c.61-.78 1.52-1.93 2.58-2.05a6.33 6.33 0 0 1 -.69 1.05 22.52 22.52 0 0 1 -4.83 5.71zm3.57-.84a10.91 10.91 0 0 0 -1.26 1.39c1.32-2.21 2.61-4.44 4-6.63.14-.22.56-.9.86-.39.16.27-.4 1-.54 1.26a26.21 26.21 0 0 1 -1.86 2.92c-.41.49-.8.98-1.2 1.45zm4.84-5.53a2.55 2.55 0 0 1 .65-.8 69.71 69.71 0 0 1 -7.45.62c-.1.32-1 .29-1.17.31a26.34 26.34 0 0 1 -3.87.11 25.27 25.27 0 0 1 -4.33-.55 17.5 17.5 0 0 0 3.8-.24c1.31-.06 2.63-.08 3.94 0 .29 0 1.48-.06 1.61.21l.77-.06-.8-.28a47.67 47.67 0 0 1 -6.79-2.8 22.12 22.12 0 0 1 4.73.76 11 11 0 0 1 3 1.39c.22.15.88.51.84.82 2.56-.26 5.11-.64 7.64-1.12a8.1 8.1 0 0 1 -3.07-1.58 41.84 41.84 0 0 1 -3.44-2.47l1.6.19.84.53c.78.51 1.55 1 2.29 1.61.49.37 1.7 1.08 1.94 1.68.71-.14 1.41-.28 2.11-.44a17 17 0 0 1 -3.69-2.35c-.26-.2-.5-.43-.75-.64.84.13 1.68.27 2.49.42a10 10 0 0 1 1 .85c.31.32 1.15 1.16 1.16 1.68 1.43-.32 2.85-.66 4.26-1 .39.11.77.21 1.14.33-1.89.53-3.74 1-5.57 1.35a6.67 6.67 0 0 1 -.48 2.26c-.2.82-.44 1.63-.71 2.42a15.51 15.51 0 0 1 -2.34 4.49 66.86 66.86 0 0 0 2.12-6.61 5.12 5.12 0 0 1 1.15-2.51c-1.22.24-2.42.45-3.63.62.15.11-.14.55-.24.78-.4.92-.82 1.82-1.26 2.72-.87 1.78-1.82 3.52-2.86 5.2 1.14-2.65 1.85-5.48 3.37-7.9zm1.48.32c.17-.45.48-1.23 1-1.29.8-.08.09.75-.08 1.06-.64 1.22-1.06 2.54-1.61 3.8a36.07 36.07 0 0 1 -2 3.73c.86-2.46 1.74-4.9 2.69-7.3zm9.88 69.29a1.92 1.92 0 0 1 0 .24c0 .48-.25.5-.65.54h-.18a10.46 10.46 0 0 1 -2.68.11 13.8 13.8 0 0 1 -1.69-.26c-2.17-.41-4.22-.4-6.06-1.61l.34.06c-.08 0-.13-.06-.14-.1s0 0 0 0a2.17 2.17 0 0 1 -.56-.13c.7-.29 1.5-.06 2.23-.23a3.54 3.54 0 0 0 .55-.18 6.89 6.89 0 0 0 1.14-.52c.3-.19.58-.42.88-.62a7.21 7.21 0 0 1 .91-.49 5.5 5.5 0 0 1 .6-.28 4 4 0 0 1 1-.26h.08l-.19-.39c-.15-.28 0-.08 0-.24a3.07 3.07 0 0 1 -.41-.2 17 17 0 0 1 -4.16-3c-.72-.75-1.4-1.55-2.07-2.34-.34-.41-.56-.5-.71-1 .24.16.46.28.68.41l-.37-.64.2.12a5 5 0 0 1 -.38-.41 5.47 5.47 0 0 0 2.18 1.18h.1a9.11 9.11 0 0 1 -1.06-2 12.51 12.51 0 0 1 -.73-3.84l.38.49c0-.15-.1-.3-.14-.46a3.78 3.78 0 0 1 -.17-.35 1.77 1.77 0 0 0 .12.17v-.09a.8.8 0 0 0 .08.16 2.44 2.44 0 0 0 .23.33c0-.21 0-.42 0-.6-.05-.63-.17-1.14-.2-1.72 0-.11 0-.22 0-.33v.07s0 0 0 0v-.09q.3.39.63.75c.21.23.52.44.71.69 0-.17 0-.33-.07-.5a2 2 0 0 0 -.1-.26 2.29 2.29 0 0 0 -.07-.28l.12.05a.16.16 0 0 0 0-.12 1.17 1.17 0 0 1 .17.48 1.51 1.51 0 0 0 -.13-.46 2 2 0 0 1 .28.56 9.09 9.09 0 0 1 1.62 1.34 3.94 3.94 0 0 1 .82 1.56 3.69 3.69 0 0 0 .11-.56c0-.09 0-.18 0-.28v.08s0 0 0 0a2.59 2.59 0 0 0 0-.48 1.17 1.17 0 0 1 .18.74 22 22 0 0 1 2.23 3.87 4.45 4.45 0 0 1 .52 1.88 2.13 2.13 0 0 1 -.12.61c.12.16.24.32.34.48.17-.12.35-.22.51-.34a3.84 3.84 0 0 0 .8-.81 7.77 7.77 0 0 0 1.63-4.16c0 .19 0 .37.06.56a3.16 3.16 0 0 1 .25.87c.16 1.4.32 2.81.49 4.21a8.64 8.64 0 0 1 .08 1.83 7.73 7.73 0 0 1 -.89 2.5 4.64 4.64 0 0 1 -.67 1.08 5.71 5.71 0 0 1 .64.35c.07-.18.13-.36.21-.53a3.17 3.17 0 0 1 .33-.6 4 4 0 0 1 .6-.57 8.49 8.49 0 0 0 1.93-1.9 6.89 6.89 0 0 0 .51-1c.28-.58.56-1.16.83-1.75a.86.86 0 0 1 0 .55c0-.08.06-.15.08-.23v.49a6 6 0 0 1 .41 1.84 60.67 60.67 0 0 1 -4.19 5.96z" fill="none"/><path d="m78.78 77.42a5.15 5.15 0 0 0 .47-.68l-.06.07c-.14.16-.25.35-.38.53s-.16.19-.24.29z" fill="none"/><path d="m73.23 74.9v-.06z" fill="none"/><g opacity=".5"><path d="m11.2 54.61a3.71 3.71 0 0 0 .59.87l.4.4.4-.37a1.88 1.88 0 0 1 0-.58 4.16 4.16 0 0 1 .81-1.63c.41-.57.8-1.07 1.21-1.56-.71-.73-1.5-1.43-2-2.07-1.17-1.38-2.31-2.79-3.35-4.27-.22-.32-1.3-1.54-1.13-1.92l-.71-.77c.17.44.29.9.36 1.09a64.23 64.23 0 0 1 2.22 7.7 2 2 0 0 1 .26-.48c.05-.17.1-.34.16-.51a7.37 7.37 0 0 0 .78 4.1z" fill="none"/><g fill="#ddeddc"><path d="m7.37 42.71.71.77a.32.32 0 0 1 .18-.15c-1.85-2.26-3.74-4.33-5.72-6.33 0 .25-.07.51-.1.77 1.37 1.31 2.7 2.65 4 4a.32.32 0 0 1 .26 0c.3-.02.48.45.67.94z"/><path d="m8.08 43.48c-.17.38.91 1.6 1.13 1.92 1 1.48 2.18 2.89 3.35 4.27.55.64 1.34 1.34 2 2.07l.27-.32c-.59-1-1.22-2-1.91-3a35.62 35.62 0 0 0 -3.38-4.09c-.18-.2-.9-1.17-1.33-1a.32.32 0 0 0 -.18.15z"/><path d="m10 51.5a64.23 64.23 0 0 0 -2.29-7.7c-.07-.19-.19-.65-.36-1.09s-.42-1-.66-1a.32.32 0 0 0 -.26 0c-.33.29-.16 1.29-.14 1.62a14.21 14.21 0 0 0 1 4.4 26.63 26.63 0 0 0 2.43 4.64c.06-.2.12-.41.19-.61a1.91 1.91 0 0 1 .09-.26z"/><path d="m5.52 48.56c.26.71 1.11 1.91 1.12 2.63a26.37 26.37 0 0 0 -.91-6.19c-.29-1.13-.73-4.6-1.88-5.13-.27 1.77.34 4.05.77 5.78a29.64 29.64 0 0 0 .9 2.91z"/><path d="m3.38 44.5a37.14 37.14 0 0 0 -1.06-5.84c-.14 1.13-.26 2.31-.38 3.51a58.47 58.47 0 0 0 1.64 9.83c-.26-1.06.1-2.63.07-3.75s-.13-2.5-.27-3.75z"/><path d="m7 41.44c.07.47.58.69 1 .86a6.81 6.81 0 0 0 1.9.43c2.64.34 5.3.61 8 .87a33.52 33.52 0 0 0 -5.46-1.6c-1.44-.28-4.07-1.07-5.44-.56z"/><path d="m6.46 39.09a9 9 0 0 0 -1.73.16c1 1 3.05 1 4.41 1a38.71 38.71 0 0 0 7.59-.78c-3.33-.84-6.84-.61-10.27-.38z"/><path d="m10.24 36.34a35.85 35.85 0 0 0 -4.74.44c-.38.06-1.66.08-1.82.48-.3.75.79.64 1.15.6 3.52-.38 7-.86 10.53-1.29a17.08 17.08 0 0 1 -2.55-.21c-.81-.04-1.72-.04-2.57-.02z"/><path d="m14.1 32.83q-4.1.45-8.1 1.28c-1.08.22-2.14.48-3.21.75 0 .3-.09.61-.13.92 3.97-.41 7.63-2.01 11.44-2.95z"/><path d="m6.22 31.58c-1 .26-2 .57-3 .86-.06.36-.11.72-.17 1.09 3-.91 6-1.88 8.92-2.93a50.42 50.42 0 0 0 -5.75.98z"/><path d="m3.82 28.89c-.07.4-.15.8-.22 1.21 2.07-.81 4.17-1.57 6.29-2.22a20.22 20.22 0 0 0 -6.07 1.01z"/></g></g><path d="m4.89 26.09v.06l.25-.08z" fill="#ddeddc"/><g opacity=".5"><path d="m84.91 32.52-3 1.13c.86.62 1.71 1.26 2.55 1.9.54-.4 1.1-.78 1.67-1.14a14.49 14.49 0 0 1 -1.22-1.89z" fill="none"/><g fill="#c15097"><path d="m87.31 28-1.44-.92c-.07.05-.17.06-.33 0a.72.72 0 0 1 -.3-.36l-1.09-.72c-.05 0-.11 0-.21-.06a.39.39 0 0 1 -.08-.1c-.54-.31-1.09-.62-1.64-.91a.29.29 0 0 1 -.16-.09c-1-.55-2.11-1.09-3.2-1.6v.06a.81.81 0 0 1 -.53-.3l-1.26-.57a.23.23 0 0 1 -.07.16l.71.35c.38 0 .75.11.84.27a.21.21 0 0 1 0 .19c.69.36 1.37.72 2 1.1a1 1 0 0 1 .43.23c.57.32 1.12.67 1.69 1 .86.52 1.72 1 2.56 1.58l.25.07-.06.06c.61.39 1.22.79 1.82 1.2h.21a.31.31 0 0 1 -.05.12l.35.23q0-.36.06-.69l-.32-.2s-.06.08-.09.09a1.28 1.28 0 0 1 -.09-.19z"/><path d="m77.08 22.46c0-.34-.81-.65-1-.74a26.72 26.72 0 0 0 -3.59-1.57 26.3 26.3 0 0 0 -4.28-1.15c1.11.19 2.44 1.2 3.48 1.67 1.22.56 2.45 1.08 3.71 1.52.27.09 1.36.61 1.59.41a.23.23 0 0 0 .09-.14z"/><path d="m78.54 23.24c-.09-.16-.46-.23-.84-.27s-.71 0-.86 0a47.38 47.38 0 0 0 -7.44 0 22 22 0 0 0 4.74 1.03 10.9 10.9 0 0 0 3.32-.17c.26-.06 1-.13 1.09-.43a.21.21 0 0 0 -.01-.16z"/><path d="m80.59 24.53c-1.06-.31-3.46 0-4.2.06a20.16 20.16 0 0 0 -4.58.58 9.08 9.08 0 0 1 2.09.27 21.25 21.25 0 0 0 2.26.06 15.86 15.86 0 0 0 4.84-.74 1 1 0 0 0 -.41-.23z"/><path d="m82.71 25.77a23.5 23.5 0 0 0 -5.49.38c-.91.14-1.82.33-2.71.55a15.83 15.83 0 0 1 -2.66.8 39.31 39.31 0 0 0 10.88-1.72z"/><path d="m78.86 23.27c0-1.06-1.22-3.09-1.7-4a24.93 24.93 0 0 0 -2.24-3.52c.73 1.82 1.45 3.64 2.23 5.44a5.31 5.31 0 0 0 .69 1.26c.11.14.3.39.5.6a.81.81 0 0 0 .53.3s-.01-.06-.01-.08z"/><path d="m80.68 24.15a6.89 6.89 0 0 0 -.24-1.25 23 23 0 0 0 -2.39-7.17 28.17 28.17 0 0 0 1 5.52c.26.96.68 2.38 1.63 2.9z"/><path d="m82.22 25a.3.3 0 0 0 .19-.06c.26-.2-.1-1.5-.14-1.79a25.27 25.27 0 0 0 -.65-3.43c-.15-.61-.33-1.21-.53-1.81a12.2 12.2 0 0 1 -.67-1.76c.41 2.56.78 5.13 1.22 7.69a2.5 2.5 0 0 0 .42 1.07.29.29 0 0 0 .16.09z"/><path d="m83.54 24.87a2.6 2.6 0 0 0 .32 1 .39.39 0 0 0 .08.1c.1.07.16.08.21.06s.06-.57.06-.81c0-1-.08-2-.15-3-.12-1.61-.32-3.22-.56-4.82l-.15-.19a45.71 45.71 0 0 0 .19 7.66z"/><path d="m85.24 26.68a.72.72 0 0 0 .3.36c.16.08.26.07.33 0 .26-.18 0-1 0-1.34-.15-1.38 0-2.77-.08-4.15 0-.4 0-.81-.08-1.21l-.5-.69c-.09 1.82-.16 3.65-.17 5.47a4.3 4.3 0 0 0 .2 1.56z"/><path d="m88 25.08c0-.29 0-.58.08-.87l-.08-.13a2.64 2.64 0 0 1 0 .28c.06.2.05.45 0 .72z"/><path d="m87.31 28a1.28 1.28 0 0 0 .15.25s.06-.05.09-.09a7 7 0 0 0 .4-2.29c0-.25.07-.51.09-.77s0-.52 0-.72a2.64 2.64 0 0 0 0-.28c-.2-.37-.41-.74-.63-1.1-.07.74-.12 1.49-.22 2.24a5.08 5.08 0 0 0 .12 2.76z"/><path d="m85.29 27.36a8.56 8.56 0 0 0 -3.45.32 25 25 0 0 0 -7.08 2.19 5 5 0 0 1 1.3-.21l1.4-.23c.94-.15 1.87-.31 2.8-.49s1.85-.38 2.76-.63a7 7 0 0 0 2.46-.82l.06-.06z"/><path d="m87.3 28.69a17.37 17.37 0 0 0 -4.36.79 25 25 0 0 0 -4.33 1.66 22.62 22.62 0 0 0 -2.3 1.3c2.59-.53 5.14-1.24 7.69-1.95a13.11 13.11 0 0 0 1.74-.57c.41-.17 1.52-.64 1.72-1.12a.31.31 0 0 0 .05-.12z"/><path d="m84.91 32.52v-.06h.05l2.3-.87c.1 0 .7-.1.83-.15 0-.33-.41-.62-.38-.93l-.28.12a25.28 25.28 0 0 0 -4.1 1.78 13.85 13.85 0 0 0 -1.57 1l.18.14z"/><path d="m89 34c0-.31.19-1-1.63-.29-.24.13-.46.27-.69.41l.63.59a11.47 11.47 0 0 0 1.69-.71z"/><path d="m86.13 34.41c-.57.36-1.13.74-1.67 1.14.49-.15 1.24-.37 2-.63l-.19-.23c0-.07-.07-.18-.14-.28z"/></g></g><g fill="#c15097" opacity=".8"><path d="m37.76 3.92c.75.21 1.49.43 2.23.66a.27.27 0 0 1 .17-.14c.21-.07.58.19.93.48l.91.28a.26.26 0 0 1 0-.2l-1.61-.61a.69.69 0 0 1 -.39-.15c-1.26-.45-3.56-1.75-4.83-2.14-.34.09-.67.23-1 .32.59.15 2.2 1.12 2.8 1.28a1.63 1.63 0 0 1 -.09-.19 1.51 1.51 0 0 1 .88.41z"/><path d="m42 5.19c0 .36 1.37.83 1.67 1 1.38.66 2.84 1.25 4.33 1.81 1.26.46 3.2.73 4.3 1.49a30.82 30.82 0 0 0 -4.52-2.61 30.3 30.3 0 0 0 -4.3-1.66c-.22-.07-1.18-.51-1.44-.2a.26.26 0 0 0 -.04.17z"/><path d="m40 4.58c-.17.32.38 1 .55 1.27a12.73 12.73 0 0 0 2.64 2.89 25.82 25.82 0 0 0 4.86 3 56.53 56.53 0 0 0 -6.21-6.17c-.13-.11-.42-.4-.74-.67s-.72-.55-.93-.48a.27.27 0 0 0 -.17.16z"/><path d="m37.76 3.92a1.51 1.51 0 0 0 -.9-.41 1.63 1.63 0 0 0 .14.19 20 20 0 0 0 3.33 4.59q.91 1 1.92 1.83c.5.42 1.66 1 2 1.51a23.08 23.08 0 0 0 -3.33-4.28 31.29 31.29 0 0 0 -3.16-3.43z"/><path d="m34 2.18c0 .1.69 1.07.74 1.17h.12c-.13-.12-.81-1.09-.86-1.17z"/><path d="m38.85 8a28.75 28.75 0 0 0 -4-4.65h-.12a46.52 46.52 0 0 0 7.51 10.18 17.8 17.8 0 0 1 -1.55-2.86c-.6-.93-1.2-1.84-1.84-2.67z"/><path d="m41.41 4.34a6.05 6.05 0 0 0 1.59-.48c2.14-.86 4.26-1.78 6.37-2.7a30.2 30.2 0 0 0 -4.79 1.09c-1.19.38-3.87 1-4.66 2a.69.69 0 0 0 .42.15 6 6 0 0 0 1.07-.06z"/><path d="m41.4 2.36q.6-.36 1.26-.75c-1.13.2-2.23.43-3.33.66l-.47.31a7.71 7.71 0 0 0 -1.24.84c1.23.35 2.75-.48 3.78-1.06z"/><path d="m32.21 2.78c-.33.09-.58.22-.91.31.2.32.8 1.66.92 1.87.56 1 1.16 1.89 1.78 2.81s1.27 1.82 1.93 2.72l1 1.35a5.5 5.5 0 0 1 .91 1.27 29.25 29.25 0 0 0 -4.09-7.7c-.33-.47-1.15-2.1-1.54-2.63z"/><path d="m34.4 14a28.22 28.22 0 0 0 -.84-3 28.47 28.47 0 0 0 -2.25-5c-.27-.48-1-2.15-1.28-2.65l-1.55.44c.18.35.92 1.84 1.11 2.18 1.54 2.7 3.08 5.41 4.81 8.03z"/><path d="m28.55 8.19c-.27-.95-1.06-2.88-1.44-3.79-.32.11-.69.39-1 .49.83 1.81 2.16 4.45 3 6.25a15.77 15.77 0 0 0 -.56-2.95z"/><path d="m23.21 6.46c.49 1 1.3 2.46 1.83 3.49a40 40 0 0 0 -.75-4.1c-.29.15-.81.51-1.08.61z"/><path d="m21.15 7.78c.1.19.2.37.29.56a3.43 3.43 0 0 1 -.22-.59z"/></g><g fill="#8ac493" opacity=".5"><path d="m66.07 12.23c1.21-.17 2.41-.38 3.63-.62a.83.83 0 0 1 .21-.16.28.28 0 0 1 0 .11c1.83-.37 3.68-.82 5.57-1.35-.37-.12-.75-.22-1.14-.33-1.41.39-2.83.73-4.26 1a.57.57 0 0 1 0 .13l-.14-.01c-.7.16-1.4.3-2.11.44v.06h-.21c-2.53.48-5.08.86-7.64 1.12a.26.26 0 0 1 -.09.16c-.14.11-.51 0-.87-.07l-.77.06a.2.2 0 0 1 0 .17 69.71 69.71 0 0 0 7.45-.62.67.67 0 0 1 .12-.06.25.25 0 0 1 .25-.03z"/><path d="m58.29 12.73c-.13-.27-1.32-.2-1.61-.21-1.31-.06-2.63 0-3.94 0a17.5 17.5 0 0 1 -3.8.24 25.27 25.27 0 0 0 4.33.55 26.34 26.34 0 0 0 3.87-.11c.19 0 1.07 0 1.17-.31a.2.2 0 0 0 -.02-.16z"/><path d="m59.92 12.73a.26.26 0 0 0 .09-.16c0-.31-.62-.67-.84-.82a11 11 0 0 0 -3-1.39 22.12 22.12 0 0 0 -4.73-.76 47.67 47.67 0 0 0 6.79 2.78l.8.28c.38.11.75.18.89.07z"/><path d="m62.24 11.9a11.75 11.75 0 0 0 -3.66-2.14 19.27 19.27 0 0 0 -2.08-.76 8.48 8.48 0 0 1 -2-.54 19.12 19.12 0 0 0 4 2.24c.74.3 2.94 1.6 3.74 1.2z"/><path d="m59.79 9.56a22.41 22.41 0 0 0 4.92 2.44 36.94 36.94 0 0 0 -7.88-5h-.52c.42.37.83.79 1.21 1.07.74.51 1.48 1.02 2.27 1.49z"/><path d="m59.92 13c-.3-.17-.66 0-.94.18a5.23 5.23 0 0 0 -1.09.9c-1.38 1.37-2.72 2.78-4 4.18a24.86 24.86 0 0 0 3.34-2.41c.77-.65 2.38-1.85 2.69-2.85z"/><path d="m62.21 12.69c-1.06.12-2 1.27-2.58 2.05a28.33 28.33 0 0 0 -2.94 4.71 22.52 22.52 0 0 0 4.83-5.71 6.33 6.33 0 0 0 .69-1.05z"/><path d="m63.82 13c-.3-.51-.72.17-.86.39-1.35 2.19-2.64 4.42-4 6.63a10.91 10.91 0 0 1 1.26-1.38c.4-.47.79-1 1.16-1.46a26.21 26.21 0 0 0 1.86-2.92c.18-.26.76-1.02.58-1.26z"/><path d="m65.83 13c.1-.23.39-.67.24-.78a.25.25 0 0 0 -.2 0 .67.67 0 0 0 -.12.06 2.55 2.55 0 0 0 -.65.8c-1.52 2.42-2.23 5.25-3.39 7.85 1-1.68 2-3.42 2.86-5.2.43-.9.86-1.8 1.26-2.73z"/><path d="m67.55 13.17c.17-.31.88-1.14.08-1.06-.57.06-.88.84-1 1.29-1 2.4-1.83 4.84-2.63 7.3a36.07 36.07 0 0 0 2-3.73c.49-1.26.91-2.58 1.55-3.8z"/><path d="m69.7 11.61a5.12 5.12 0 0 0 -1.15 2.51 66.86 66.86 0 0 1 -2.12 6.61 15.51 15.51 0 0 0 2.34-4.49c.27-.79.51-1.6.71-2.42a6.67 6.67 0 0 0 .52-2.26.28.28 0 0 0 0-.11.83.83 0 0 0 -.3.16z"/><path d="m67.83 11.41c-.24-.6-1.45-1.31-1.94-1.68-.74-.57-1.51-1.1-2.29-1.61l-.84-.53-1.6-.19a41.84 41.84 0 0 0 3.42 2.47 8.1 8.1 0 0 0 3.07 1.58h.21s-.02-.02-.03-.04z"/><path d="m70.13 10.93c0-.52-.85-1.36-1.16-1.68a10 10 0 0 0 -1-.85c-.81-.15-1.65-.29-2.49-.42.25.21.49.44.75.64a17 17 0 0 0 3.71 2.38l.18.09a.57.57 0 0 0 .01-.16z"/><path d="m71.68 12.45c-.71 2.1-1.18 4.3-2.08 6.33a17.62 17.62 0 0 0 2.4-4.84 7.9 7.9 0 0 0 .64-2.67c-.05-.93-.85.85-.96 1.18z"/><path d="m72 9.86a.93.93 0 0 0 -.16-.64l-1.39-.31.3.27c.25.24 1.16 1.3 1.25.68z"/><path d="m76.35 10.45-.67-.2.67.21z"/><path d="m72.69 18.37a19.93 19.93 0 0 0 2.89-5.25 15.54 15.54 0 0 0 .77-2.66l-.67-.21a2.13 2.13 0 0 0 -.16.25c-1.33 2.5-1.72 5.31-2.83 7.87z"/><path d="m76.74 15.37-.39.9a11.7 11.7 0 0 0 2.25-4.07l-.68-.59a18.67 18.67 0 0 1 -2 5 4.92 4.92 0 0 0 .82-1.24z"/></g><g fill="#ddeddc" opacity=".5"><path d="m76.33 41.89a.38.38 0 0 1 0 .18 71.94 71.94 0 0 0 8-.67h.09a.33.33 0 0 1 .21 0c1.3-.19 2.59-.41 3.89-.67a1.12 1.12 0 0 1 .22-.16s0 .07 0 .11c1.46-.3 2.92-.63 4.4-1l.12-.7c-1.44.4-2.88.74-4.34 1.07a.57.57 0 0 1 0 .13 1.11 1.11 0 0 1 -.19-.09c-.75.17-1.5.32-2.26.47v.06a1.6 1.6 0 0 1 -.23 0c-2.7.52-5.43.93-8.16 1.2a.28.28 0 0 1 -.1.17c-.14.13-.54 0-.92-.07l-.82.06z"/><path d="m76.33 41.89c-.14-.29-1.42-.2-1.72-.22-1.4-.07-2.81 0-4.22 0-1.2 0-2.89.51-4 .26a28.74 28.74 0 0 0 4.63.59 28.36 28.36 0 0 0 4.12-.12c.21 0 1.15 0 1.26-.34a.38.38 0 0 0 -.07-.17z"/><path d="m78.06 41.89a.28.28 0 0 0 .1-.17c0-.33-.66-.71-.9-.87a11.61 11.61 0 0 0 -3.17-1.48 24 24 0 0 0 -5-.82 50 50 0 0 0 7.24 3c.15 0 .5.19.86.3s.73.15.87.04z"/><path d="m80.55 41a12.75 12.75 0 0 0 -3.91-2.28 23 23 0 0 0 -2.22-.84 9 9 0 0 1 -2.15-.57 20.74 20.74 0 0 0 4.23 2.39c.84.38 3.19 1.74 4.05 1.3z"/><path d="m77.93 38.51a24.57 24.57 0 0 0 5.25 2.57 40.71 40.71 0 0 0 -10-6 15.5 15.5 0 0 1 2.28 1.83c.83.55 1.64 1.09 2.47 1.6z"/><path d="m78.06 42.21c-.32-.17-.69 0-1 .2a5.65 5.65 0 0 0 -1.17 1c-1.47 1.46-2.89 3-4.32 4.46a25.85 25.85 0 0 0 3.57-2.57c.86-.77 2.6-2.02 2.92-3.09z"/><path d="m80.51 41.85c-1.13.13-2.1 1.36-2.75 2.2a30 30 0 0 0 -3.14 5 24.23 24.23 0 0 0 5.16-6.05 7.24 7.24 0 0 0 .73-1.15z"/><path d="m82.22 42.15c-.31-.54-.76.18-.91.42-1.44 2.34-2.82 4.72-4.23 7.07a13.2 13.2 0 0 1 1.35-1.47q.64-.75 1.23-1.56a26 26 0 0 0 2-3.11c.14-.27.74-1.06.56-1.35z"/><path d="m84.41 41.35h-.09a2.52 2.52 0 0 0 -.73.87c-1.59 2.64-2.38 5.65-3.59 8.43q1.65-2.7 3-5.55c.47-1 .92-1.93 1.34-2.9.11-.25.43-.74.25-.84a.33.33 0 0 0 -.18-.01z"/><path d="m86.3 41.24c-.61.06-.94.9-1.13 1.37q-1.52 3.86-2.8 7.79a40 40 0 0 0 2.13-4c.58-1.34 1-2.76 1.71-4.05.18-.35.94-1.2.09-1.11z"/><path d="m88.51 40.69a5.4 5.4 0 0 0 -1.23 2.69 72.27 72.27 0 0 1 -2.26 7 16.56 16.56 0 0 0 2.49-4.79c.3-.84.54-1.71.77-2.58a7.21 7.21 0 0 0 .5-2.42s0-.09 0-.11a1.12 1.12 0 0 0 -.27.21z"/><path d="m86.51 40.49c-.26-.65-1.55-1.4-2.07-1.8-.79-.6-1.61-1.17-2.44-1.71s-1.68-1.07-2.53-1.59l-1.28-.78a5 5 0 0 1 -1.19-.74 26.14 26.14 0 0 0 6 5 8.54 8.54 0 0 0 3.28 1.68 1.6 1.6 0 0 0 .23 0z"/><path d="m89 40c0-.56-.9-1.46-1.23-1.8a14.39 14.39 0 0 0 -1.47-1.24l-1.8-1.38c-.84-.64-1.69-1.28-2.55-1.9l-.18-.14c-.73-.52-1.46-1-2.2-1.54a24.1 24.1 0 0 0 1.73 2.19 25.16 25.16 0 0 0 3.57 3.35 18.42 18.42 0 0 0 3.9 2.46 1.11 1.11 0 0 0 .19.09.57.57 0 0 0 .04-.09z"/><path d="m90.62 41.59c-.76 2.25-1.26 4.59-2.21 6.77a18.91 18.91 0 0 0 2.59-5.18 8.38 8.38 0 0 0 .69-2.84c-.1-.99-.96.9-1.07 1.25z"/><path d="m84.91 32.52a14.49 14.49 0 0 0 1.22 1.89c.07.1.14.21.22.31l.19.23a27.94 27.94 0 0 0 3.1 3.15c.3.26 1.22 1.39 1.35.74s-.73-1.38-1.13-1.75l-2.58-2.4-.63-.59-1.72-1.59h-.05z"/><path d="m92.13 36.68c.3.3.61.59.94.86-.12-.6-.27-1.18-.41-1.77-1.29-1.29-2.62-2.55-4-3.73a24.73 24.73 0 0 0 3.47 4.64z"/></g><g fill="#ddeddc" opacity=".5"><path d="m46.7 93.13c.49-.76 1-1.52 1.48-2.28h-.27a1.7 1.7 0 0 1 .81-.83c.45-.65.9-1.31 1.36-2a.29.29 0 0 1 -.08-.22c0-.23.39-.53.81-.78.19-.26.38-.53.58-.79a.39.39 0 0 1 -.17-.13c-.39.47-.76.94-1.13 1.41a.78.78 0 0 1 -.32.4c-.93 1.18-1.82 2.36-2.67 3.57 0 .21-.09.36-.27.38-.44.64-.88 1.29-1.31 2a.61.61 0 0 1 0 .13h.66l.57-.9z"/><path d="m51.38 86.31c.37.11 1.31-1.11 1.56-1.37 1.17-1.22 2.26-2.5 3.32-3.82.9-1.12 1.82-3 3-3.86a32.89 32.89 0 0 0 -4.21 3.74 33.89 33.89 0 0 0 -3.15 3.81c-.14.2-.91 1-.69 1.4a.39.39 0 0 0 .17.1z"/><path d="m50 87.88a.29.29 0 0 0 .08.22c.26.3 1.16 0 1.49-.12a13.8 13.8 0 0 0 3.85-1.69 28.1 28.1 0 0 0 4.73-3.91 58.22 58.22 0 0 0 -8.4 4.19c-.16.1-.56.3-.94.53s-.81.55-.81.78z"/><path d="m47.92 90.88h.27a21.72 21.72 0 0 0 5.81-1.79 26.15 26.15 0 0 0 2.51-1.33c.61-.36 1.56-1.35 2.21-1.49a25.11 25.11 0 0 0 -5.5 1.92 38.64 38.64 0 0 0 -4.48 1.86 1.7 1.7 0 0 0 -.82.83z"/><path d="m46.71 93.13a48.84 48.84 0 0 0 13.29-4.21 18.18 18.18 0 0 1 -3.44.61c-1.14.25-2.27.55-3.38.9a29.32 29.32 0 0 0 -6.46 2.7z"/><path d="m50.08 87.59a6.37 6.37 0 0 0 .26-1 6.93 6.93 0 0 0 0-1.82c-.15-2.48-.38-5-.6-7.43a31 31 0 0 0 -.5 5.26c0 1.35-.27 4.3.43 5.43a.05.05 0 0 0 0 0 .78.78 0 0 0 .41-.44z"/><path d="m46.26 79.09c-.23 3.2.59 6.38 1.42 9.48a8.1 8.1 0 0 0 .44 1.55c.77-1.13.43-3 .19-4.22a36.83 36.83 0 0 0 -2.05-6.81z"/><path d="m47.09 91.56a4.54 4.54 0 0 0 -.26-1.29c-1-3.15-2-6.27-3-9.41a16.83 16.83 0 0 1 .26 2.38c.11.79.26 1.57.43 2.35a33 33 0 0 0 1.24 4.26c.12.34.56 2 1 2.1a.27.27 0 0 0 .13 0c.11-.03.19-.18.2-.39z"/><path d="m45.3 92.56c-1.06-3.5-3.17-6.57-4.7-9.88.75 2.42 1.61 4.81 2.59 7.15.49 1.18 1 2.34 1.56 3.5.08.17.18.47.29.68h.44a.61.61 0 0 0 0-.13 3.21 3.21 0 0 0 -.18-1.32z"/><path d="m38.94 85a46.68 46.68 0 0 0 1.9 5.07c.59 1.26 1.28 2.48 1.86 3.75.38 0 .77.06 1.15.09 0-.07-.07-.15-.11-.22-1.51-2.91-3.12-5.81-4.8-8.69z"/><path d="m39.13 93.39 1.35.21c-1.3-2-2.54-4.08-3.67-6.2a19.62 19.62 0 0 0 2.32 5.99z"/></g><path d="m36.2 92.8h.19c-.13-.25-.27-.49-.39-.75.06.28.13.51.2.75z" fill="#ddeddc"/><path d="m13.49 15.9a.49.49 0 0 1 .15.35.53.53 0 0 1 -.08.23 7.07 7.07 0 0 1 -2.43 2.1 18 18 0 0 0 -1.89 1.47 2.26 2.26 0 0 0 -.82 1.14 3.62 3.62 0 0 0 .16 1.81 6.46 6.46 0 0 0 1.1 1.79 23.63 23.63 0 0 1 1.82-2.91 9.69 9.69 0 0 1 2.3-2.35 2.09 2.09 0 0 1 .67-.12.42.42 0 0 1 .44.22c.09.21-.07.43-.21.61q-1.54 1.82-3.15 3.59a4.86 4.86 0 0 0 -1.09 1.91 6.58 6.58 0 0 0 2.61 5 10.79 10.79 0 0 1 .87-4.74 7 7 0 0 1 .92-1.31 4.67 4.67 0 0 1 2.3-1.6.9.9 0 0 1 1 .25.85.85 0 0 1 0 .7 8 8 0 0 1 -1.82 2.37 7.17 7.17 0 0 0 -1.71 4.46 2.45 2.45 0 0 0 1.19 1.13 8.28 8.28 0 0 0 2.19.92c1.63.43 3.37.81 4.2 2.28a16.25 16.25 0 0 1 .61-2.2 7.34 7.34 0 0 1 .76-1.09 7.8 7.8 0 0 0 .93-1.64c.53-1.26-.81-2.58-1.85-3.47a5 5 0 0 1 -1.46-1.42.83.83 0 0 1 -.11-.48.77.77 0 0 1 .73-.61 1.61 1.61 0 0 1 1 .3c1.58 1 2.34 2.83 2.78 4.62a21.9 21.9 0 0 0 2-4.14 1.45 1.45 0 0 0 .08-1c-.46-1.07-1.68-1.61-2.68-2.07s-2.15-.73-3.18-1.21a1.15 1.15 0 0 1 -.35-.22.69.69 0 0 1 0-.82 1.19 1.19 0 0 1 .73-.48 3.81 3.81 0 0 1 2.83.77 7.16 7.16 0 0 1 3.21 3.25c.3-1.88.57-3.88-.2-5.61a11.07 11.07 0 0 0 -4.83-1.51 3.34 3.34 0 0 1 -2.3-.64.45.45 0 0 1 -.15-.35c0-.17.22-.26.39-.3a4.43 4.43 0 0 1 2 .16 48.68 48.68 0 0 1 4.85 1.45l-1.2-2.69a10.32 10.32 0 0 0 -1.43-2.53 5.8 5.8 0 0 0 -2-1.51 6.61 6.61 0 0 0 -1.52-.43 42.71 42.71 0 0 0 -5.54 2.56 83.14 83.14 0 0 1 2.78 8.29c.32 1.08.63 2.15.89 3.24a56.23 56.23 0 0 1 1.13 7.85l-1.77-7.55a90 90 0 0 0 -2.55-9.3c-.28-.78-.58-1.55-.9-2.3-.38.22-.74.45-1.1.67-1 .93-1.93 1.89-2.83 2.9a1.5 1.5 0 0 1 1.53.21z" fill="#c0dbbc" opacity=".5"/><path d="m19.32 23.72 1.77 7.55a56.23 56.23 0 0 0 -1.09-7.85c-.26-1.09-.57-2.16-.89-3.24a83.14 83.14 0 0 0 -2.78-8.29l-.41.24c.32.75.62 1.52.9 2.3a90 90 0 0 1 2.5 9.29z" fill="#9dbf9a" opacity=".5"/><path d="m27 83.65a5.8 5.8 0 0 1 -3.15-1.42c-.34-.33-.62-.85-.4-1.26a1 1 0 0 1 .73-.46c1.2-.28 2.43.19 3.65.4a8.49 8.49 0 0 0 5.74-1.09 3.11 3.11 0 0 0 .41-2 10.55 10.55 0 0 0 -.45-3c-.62-2-1.34-4.13-.35-6a19.65 19.65 0 0 1 -2.69.78 9.79 9.79 0 0 1 -1.62-.1 9.4 9.4 0 0 0 -2.31.07c-1.65.26-2.17 2.56-2.41 4.25a6.52 6.52 0 0 1 -.55 2.5 1.09 1.09 0 0 1 -.43.42.93.93 0 0 1 -1.1-.38 2.1 2.1 0 0 1 -.31-1.23c0-2.31 1.43-4.35 3-6a25.66 25.66 0 0 0 -5.6.58 1.77 1.77 0 0 0 -1.1.56c-.83 1.13-.59 2.76-.38 4.17s.62 2.79.8 4.2a1.46 1.46 0 0 1 0 .51.84.84 0 0 1 -.84.57 1.49 1.49 0 0 1 -1-.47 4.85 4.85 0 0 1 -1-3.53c0-1.94.15-4 1.3-5.56-2.14.91-4.41 1.92-5.71 3.88 0 .51-.63 2.28-.56 2.78a58.28 58.28 0 0 0 7.3 6.8c.16-.18 1.45-1.48 1.61-1.66.91-1 1.83-2.08 2.8-3.07a67 67 0 0 1 7.44-6.34q-3.36 3.4-6.71 6.83c-1.15 1.17-3.31 3.58-4.43 4.77a48.56 48.56 0 0 0 7.4 4.08c.43.08 1.74-.7 2.17-.61a5.82 5.82 0 0 0 2.75.04c2.5-1.78 3.63-4.72 3.53-6a13.17 13.17 0 0 1 -5.53 2.12 8.62 8.62 0 0 1 -2-.13z" fill="#96deb1" opacity=".8"/><path d="m29.87 72.67a67 67 0 0 0 -7.44 6.33c-1 1-1.89 2-2.8 3.07l-.47.54-1.16 1.13c.19.14.52.4.71.53 1.12-1.19 3.28-3.6 4.43-4.77q3.37-3.42 6.73-6.83z" fill="#6fa984" opacity=".8"/><path d="m90.87 51.58c-1.91-.7-4.07-.36-6.09 0a7.55 7.55 0 0 1 3.64 3.05 3.51 3.51 0 0 1 1 2.76 1.17 1.17 0 0 1 -.49.74.8.8 0 0 1 -.89 0 1 1 0 0 1 -.25-.33c-.56-1-.92-2.08-1.44-3.1s-1.18-2.18-2.35-2.55a1.72 1.72 0 0 0 -1.09.12 24.16 24.16 0 0 0 -4.41 2.11c2 .36 4 1 5.12 2.57a1.54 1.54 0 0 1 .37.94.79.79 0 0 1 -.64.74 1.06 1.06 0 0 1 -.52-.09 5.32 5.32 0 0 1 -1.6-1.39c-1-1-2.49-2.27-3.83-1.71a9.09 9.09 0 0 0 -1.75 1 8.19 8.19 0 0 1 -1.14.78 18.46 18.46 0 0 1 -2.37.68c1.63.77 2.11 2.47 2.64 4.06a7.41 7.41 0 0 0 1.09 2.13 2.46 2.46 0 0 0 1.24 1.1 8.08 8.08 0 0 0 4.76-1.84 8.61 8.61 0 0 1 2.5-1.88 1 1 0 0 1 .77 0 .84.84 0 0 1 .31 1 4.7 4.7 0 0 1 -1.64 2.33 8.32 8.32 0 0 1 -1.39 1 12.73 12.73 0 0 1 -5.12 1c.56.92 2.82 2.34 5.52 2.39a5.3 5.3 0 0 0 2-1.14c1.24-1.1 2.5-2.17 3.78-3.23a.7.7 0 0 1 .64-.23.41.41 0 0 1 .26.42 1.69 1.69 0 0 1 -.11.67 9.79 9.79 0 0 1 -2.39 2.32 25.46 25.46 0 0 1 -3.08 1.9 7 7 0 0 0 2 1 4.09 4.09 0 0 0 1.56.15 46.83 46.83 0 0 0 4.24-9.33c-2.31-.53-4.65-1-7-1.39l-8.26-1.48a66.16 66.16 0 0 1 8.56.84c1.19.22 2.37.49 3.54.77s2.21.52 3.31.79c.4-1.25.74-2.53 1-3.83a8.81 8.81 0 0 1 -.17-1.13 10.32 10.32 0 0 0 -1.83-4.71z" fill="#96deb1" opacity=".5"/><path d="m85 59.69a66.16 66.16 0 0 0 -8.56-.84l8.26 1.48c2.34.42 4.68.86 7 1.39.06-.16.11-.31.16-.47-1.1-.27-2.2-.54-3.31-.79s-2.38-.55-3.55-.77z" fill="#96deb1" opacity=".91"/><path d="m85 59.69a66.16 66.16 0 0 0 -8.56-.84l8.26 1.48c2.34.42 4.68.86 7 1.39.06-.16.11-.31.16-.47-1.1-.27-2.2-.54-3.31-.79s-2.38-.55-3.55-.77z" fill="#6fa984" opacity=".5"/><path d="m19.45 48.33h-.05a1.89 1.89 0 0 0 -.09.21 1.76 1.76 0 0 1 .14-.21z" fill="#d25b9d"/><path d="m20.58 48s0 0 0-.05l-.27.35z" fill="#d25b9d"/><path d="m19.64 51-.13.15s.1-.15.13-.15z" fill="#d25b9d"/><path d="m20.28 50a1.79 1.79 0 0 1 -.22.25l.18-.18a.43.43 0 0 0 .04-.07z" fill="#f9d975"/><path d="m6.17 57.65c-.09-.18-.16-.37-.26-.55v-.07a6.36 6.36 0 0 0 .31.71 2.43 2.43 0 0 0 .14.2c-.08-.08-.15-.18-.19-.29z" fill="none"/><path d="m11.66 56.38v.06z" fill="none"/><path d="m10.2 68.49-.2-.21.08.09z" fill="#d25b9d"/><path d="m9.13 69c0-.11.12-.17.22-.21s.23-.12.2-.22a.28.28 0 0 0 -.09-.1 6.83 6.83 0 0 1 -.87-.62 3.35 3.35 0 0 1 -.42-.57l-1-1.64a3.36 3.36 0 0 0 -.35-.49c-.3.51-2.57-.07-3.16 0 0 0 .39.65.37.65.58.81.77 2 3 2.66.33.14.65.27.92.36a10.23 10.23 0 0 0 1.4.38c-.11-.05-.21-.1-.22-.2z" fill="#d25b9d"/><path d="m4.28 64.67.09.13z" fill="#d25b9d"/><path d="m5.39 55s0-.06 0-.09v.14a.15.15 0 0 0 0-.05z" fill="#d25b9d"/><path d="m7.26 59.2-.12-.11c.07.08.13.18.2.26l.17.17a2.43 2.43 0 0 0 -.25-.32z" fill="#d25b9d"/><path d="m6.79 65.14a3.65 3.65 0 0 0 -.43-.35 2.76 2.76 0 0 0 -.89-.48 1 1 0 0 0 -.94.22.93.93 0 0 1 .47-.67.94.94 0 0 1 .29-.06 1.94 1.94 0 0 1 1.12.12 1.79 1.79 0 0 1 .28.2.23.23 0 0 1 .18 0 1.25 1.25 0 0 1 .35.21 1.42 1.42 0 0 1 .49-.59c-.26-.08-.39-.17-.34-.56a14.25 14.25 0 0 1 .34-1.4 1.12 1.12 0 0 1 .21-.5.77.77 0 0 1 .21-.14c-.07-.13-.15-.25-.22-.37a2.55 2.55 0 0 0 -.26-.38c-.11-.12-.25-.22-.35-.34a5.48 5.48 0 0 1 -.41-.8.35.35 0 0 0 -.11-.13 1.19 1.19 0 0 0 -.16-.08.64.64 0 0 1 -.19-.21 5.53 5.53 0 0 1 -.88-2 1 1 0 0 0 -.12-.43c-.09-.12-.28-.18-.38-.07a5.65 5.65 0 0 1 .2-1.15 8.65 8.65 0 0 0 -.91 5.42 21.86 21.86 0 0 1 .17 2.56 4.52 4.52 0 0 1 -.17 1.16c0 .07-.64.71-.67.78s.17.2.2.24c.3.44 1.14.28 1.44.7h.08a2 2 0 0 0 1.4-.9z" fill="#d25b9d"/><path d="m8.58 62c0-.26-.07-.51-.11-.77 0-.08-.07-.16-.1-.23a2.42 2.42 0 0 1 .12 1.16l-.07.28a2.16 2.16 0 0 0 -.33-1.32.77.77 0 0 0 -.21.14 1.12 1.12 0 0 0 -.21.5 14.25 14.25 0 0 0 -.34 1.4c0 .39.08.48.34.56l.32.1a9.36 9.36 0 0 0 2.43.58c.53.06 1.07.06 1.6.07 2.05 0 3.93.37 5.83-.41h-.32a5.81 5.81 0 0 1 -.62 0 5.22 5.22 0 0 1 -1 0 1.92 1.92 0 0 1 -1.62-.88 1.58 1.58 0 0 0 -.2-.36 1.34 1.34 0 0 0 -.42-.28 7.42 7.42 0 0 1 -1.1-1 6.52 6.52 0 0 0 -.8-.58l-.36-.23c-.4.5-.89.9-1.57.66a1.54 1.54 0 0 1 -.8-.71c-.22.06-.43.13-.65.21a2.21 2.21 0 0 1 .05.25 1.17 1.17 0 0 1 .14.86z" fill="#d25b9d"/><path d="m9.87 61.51c.68.24 1.17-.16 1.57-.66a4.1 4.1 0 0 0 -.75-.39 1.88 1.88 0 0 0 -1.24-.05 1.86 1.86 0 0 1 1.77-.25l.12.05h.15a1 1 0 0 1 .38.07q.12-.18.24-.33c.18-.23 0-.08 0-.22a.86.86 0 0 1 -.79-.2 2 2 0 0 1 -.52-2 2 2 0 0 1 .37-.55l.5-.54v-.06c-.26-.18-.28-.58-.44-.86s-.51-.48-.75-.74a2.5 2.5 0 0 1 -.42-.83 3.41 3.41 0 0 1 -.19-.84 3.25 3.25 0 0 1 .07-.82q.11-.49.24-1a2.61 2.61 0 0 0 -.05.48c.05-.25.11-.5.17-.75a2 2 0 0 0 -.26.48 1.91 1.91 0 0 0 -.11.26c-.07.2-.13.41-.19.61-.34 1.05-.67 2.11-1 3.16a8 8 0 0 0 -.4 1.66 7.12 7.12 0 0 0 .33 2.5 4.79 4.79 0 0 0 .42 1.11 1.54 1.54 0 0 0 .78.71z" fill="#d25b9d"/><path d="m17.21 56.08a3.27 3.27 0 0 1 -.62-.14h-.12a3 3 0 0 1 -1.71.79 2.24 2.24 0 0 1 -1.58-.16 1.43 1.43 0 0 1 -.59-1.05l-.4.37.15.15a2.69 2.69 0 0 1 .34.47 2.64 2.64 0 0 1 .32 1.05c0 .23 0 .77-.22.9 0 .1-.07.18-.15.19s-.2-.73-.24-.86a9.31 9.31 0 0 0 -.4-1 .5.5 0 0 0 -.13-.21.59.59 0 0 0 -.17-.1l-.5.54a2 2 0 0 0 -.37.55 2 2 0 0 0 .52 2 .86.86 0 0 0 .79.2 3.59 3.59 0 0 0 .41-.11 15.68 15.68 0 0 0 4.34-2c.8-.56 1.56-1.17 2.31-1.78.39-.32.6-.36.84-.8-.25.1-.48.18-.71.25a4.48 4.48 0 0 1 -.67.47 2.49 2.49 0 0 1 -1.44.28z" fill="#d25b9d"/><path d="m16.26 50.18a2.6 2.6 0 0 1 .1-.25h-.05c-.01.07-.04.18-.05.25z" fill="#d25b9d"/><path d="m13.4 53.3a4.16 4.16 0 0 0 -.81 1.63 1.88 1.88 0 0 0 0 .58 1.43 1.43 0 0 0 .59 1.05 2.24 2.24 0 0 0 1.58.16 3 3 0 0 0 1.71-.79 1 1 0 0 1 -.65-.29l-.13-.06a5.65 5.65 0 0 0 -1.91-.34c-.16 0-.47.1-.58 0a1.07 1.07 0 0 1 .32-.22 1.76 1.76 0 0 1 1.2-.33 3 3 0 0 1 .58.07v-.08a2.73 2.73 0 0 1 .25-1.94 2.29 2.29 0 0 1 .28-.41c0-.16 0-.32 0-.48a4.34 4.34 0 0 1 .31-1.52v-.15a16.54 16.54 0 0 0 -1.25 1.27l-.27.32c-.42.46-.81.96-1.22 1.53z" fill="#d25b9d"/><path d="m19.56 51.1c-.06.06-.1.14-.17.2a.5.5 0 0 1 -.37.17v.3c0 1.07-1.41 1.24-2.28.89a4.08 4.08 0 0 1 .16 2s0 0 0-.09c0 .2-.06.42-.16.4s-.18-.57-.24-.69a.73.73 0 0 1 -.12-.32c0-.13.06-.26 0-.38a.51.51 0 0 0 -.17-.24 1.66 1.66 0 0 1 -.36-1.06 2.29 2.29 0 0 0 -.28.41 2.73 2.73 0 0 0 -.25 1.94v.08c.32.06.65.14 1 .23a6.19 6.19 0 0 0 1.46.29 8.15 8.15 0 0 0 1.22-1.64 11.43 11.43 0 0 0 1.34-3.39c-.14.13-.28.26-.43.38a3.15 3.15 0 0 1 -.31.41s-.01.08-.04.11z" fill="#d25b9d"/><path d="m15.82 55.64a1 1 0 0 0 .65.29h.12c-.26-.08-.51-.19-.77-.29z" fill="#d25b9d"/><path d="m18.93 49.19.15-.53a1.8 1.8 0 0 0 .08-.21l-.07.18c-.09.19-.09.37-.16.56z" fill="#d25b9d"/><path d="m16.53 51.49c-.16-.2.81-.36.91-.36l.87-.05a1.19 1.19 0 0 1 .07-1.42 2.39 2.39 0 0 1 .23-.22l.06-.18a5 5 0 0 1 .34-.74 7.68 7.68 0 0 0 -1.71.94 3.59 3.59 0 0 0 -1 1.23 4.72 4.72 0 0 0 .11.83z" fill="#d25b9d"/><path d="m19 51.81c0-.1 0-.2 0-.3a.14.14 0 0 0 -.09 0c-.07 0-.11.08-.16.13a1.19 1.19 0 0 1 -1.05.31 1.69 1.69 0 0 0 -1 .08.3.3 0 0 1 -.16 0v.18s.08.3.13.46c.88.38 2.27.21 2.33-.86z" fill="#d25b9d"/><path d="m19.11 49.16s0 .07 0 .1a.35.35 0 0 1 .12-.07.15.15 0 0 1 -.12-.03z" fill="#d25b9d"/><path d="m19.87 49.06c-.15.09-.32.19-.33.36a.64.64 0 0 1 0 .07s0 0-.07 0a.59.59 0 0 1 -.39-.05 2.42 2.42 0 0 0 0 .76 1.62 1.62 0 0 1 0 .62s0 0 0 0a3.47 3.47 0 0 0 .33-.18 3.25 3.25 0 0 0 .52-.37c.05-.19.09-.38.13-.55.16-.56.36-1 .49-1.54a1.9 1.9 0 0 1 -.68.88z" fill="#d25b9d"/><path d="m18.43 50.94a2.33 2.33 0 0 1 .06-1.14 2.53 2.53 0 0 1 .12-.36 2.39 2.39 0 0 0 -.23.22 1.19 1.19 0 0 0 -.07 1.42h.19a.19.19 0 0 1 -.07-.14z" fill="#d25b9d"/><path d="m18.93 49.19v.13s0-.09 0-.14z" fill="#d25b9d"/><path d="m11.52 69.59a10.55 10.55 0 0 1 -1.32-1.1l-.14-.12-.06-.09-.21-.19a6.38 6.38 0 0 1 -1.11-1.29l-.26-.48a5 5 0 0 0 -.34-.46l-.9-1.09a1.91 1.91 0 0 0 -.63-.57s0-.07.1-.08a1.79 1.79 0 0 0 -.28-.2 1.94 1.94 0 0 0 -1.12-.12.94.94 0 0 0 -.29.06.93.93 0 0 0 -.43.67 1 1 0 0 1 .94-.22 2.76 2.76 0 0 1 .89.48 3.65 3.65 0 0 1 .43.35 3.36 3.36 0 0 1 .35.49l1 1.64a3.35 3.35 0 0 0 .42.57 6.83 6.83 0 0 0 .87.62.28.28 0 0 1 .09.1c0 .1-.09.19-.2.22s-.23.1-.22.21.11.14.2.17c.39.13.79.25 1.19.35.18 0 .48.15.75.19.1.01.32-.08.28-.11z" fill="#f9d975"/><path d="m5.39 56.44a1 1 0 0 1 .12.43 5.53 5.53 0 0 0 .88 2 .64.64 0 0 0 .19.21 1.19 1.19 0 0 1 .16.08.35.35 0 0 1 .11.13 5.48 5.48 0 0 0 .41.8c.1.12.24.22.35.34a2.55 2.55 0 0 1 .26.38c.07.12.15.24.22.37a2.16 2.16 0 0 1 .33 1.32l.07-.28a2.42 2.42 0 0 0 -.12-1.22 2.72 2.72 0 0 1 -.12-.25 12.68 12.68 0 0 0 -.73-1.22l-.17-.17c-.07-.08-.13-.18-.2-.26a1.14 1.14 0 0 0 -.15-.1 3 3 0 0 1 -.34-.45c-.12-.18-.24-.36-.35-.55a2.43 2.43 0 0 1 -.14-.2 6.36 6.36 0 0 1 -.3-.8 5.06 5.06 0 0 1 -.26-.44 2 2 0 0 1 -.13-.56c0-.29-.06-.59-.08-.89 0 0 0-.09 0-.14a1.6 1.6 0 0 1 0-.23c-.06.16-.09.32-.14.48a5.65 5.65 0 0 0 -.26 1.15c.11-.11.3-.05.39.07z" fill="#f9d975"/><path d="m17 63.89c-.11 0-.22 0-.33 0a1.05 1.05 0 0 1 -.51-.16l-.92-.46a1.21 1.21 0 0 1 -.28-.18c-.07-.06-.13-.15-.2-.22a2 2 0 0 0 -.25-.25l-.51-.44a9.94 9.94 0 0 0 -2.86-2 .67.67 0 0 0 .24 0l-.12-.05a1.86 1.86 0 0 0 -1.77.25 1.88 1.88 0 0 1 1.24.05 4.1 4.1 0 0 1 .75.39l.36.23a6.52 6.52 0 0 1 .8.58 7.42 7.42 0 0 0 1.1 1 1.34 1.34 0 0 1 .42.28 1.58 1.58 0 0 1 .2.36 1.92 1.92 0 0 0 1.62.88 5.22 5.22 0 0 0 1 0 5.81 5.81 0 0 0 .62 0c.07 0 .13 0 .14-.07s0 0 0-.07h-.11a2.5 2.5 0 0 0 -.63-.12z" fill="#f9d975"/><path d="m11.7 56.41a.59.59 0 0 1 .17.1.5.5 0 0 1 .13.21 9.31 9.31 0 0 1 .4 1c0 .13.14.86.24.86s.12-.09.15-.19a2.12 2.12 0 0 0 -.3-1 1.27 1.27 0 0 1 -.07-.12.47.47 0 0 1 0-.17 2 2 0 0 0 -.49-1.1c-.25-.34-.55-.64-.78-1a6.6 6.6 0 0 1 -.64-1.34l-.33-.87a2 2 0 0 1 -.11-.35 1.67 1.67 0 0 1 0-.59s0-.05 0-.07a2.61 2.61 0 0 1 .05-.48q-.13.49-.24 1a3.25 3.25 0 0 0 -.07.82 3.41 3.41 0 0 0 .19.84 2.5 2.5 0 0 0 .42.83c.24.26.58.43.75.74s.18.68.44.86z" fill="#f9d975"/><path d="m18.53 55.43h-.12a.88.88 0 0 0 -.3.13 1.7 1.7 0 0 1 -.84.06 6.44 6.44 0 0 1 -1.07-.17c-.41-.11-.8-.31-1.22-.42a3.31 3.31 0 0 0 -.77-.09c-.19 0-.51.11-.69 0a1.07 1.07 0 0 0 -.32.22c.11.13.42 0 .58 0a5.65 5.65 0 0 1 1.91.34l.13.06c.26.1.51.21.77.3a3.27 3.27 0 0 0 .62.14 2.49 2.49 0 0 0 1.43-.37 4.48 4.48 0 0 0 .67-.47l.53-.43-.21.07a4.41 4.41 0 0 1 -.93.51.47.47 0 0 1 -.17.12z" fill="#f9d975"/><path d="m16.31 53.6v.38a.73.73 0 0 0 .12.32c.06.12.13.66.24.69s.14-.2.16-.4 0-.46 0-.57a3.31 3.31 0 0 0 -.25-.75 4.38 4.38 0 0 1 -.58-1.58 3.33 3.33 0 0 1 0-.63c0-.24.07-.48.1-.73a4.34 4.34 0 0 0 -.31 1.52v.48a1.66 1.66 0 0 0 .36 1.06.51.51 0 0 1 .16.21z" fill="#f9d975"/><path d="m19.56 50.82a3.16 3.16 0 0 1 -1.36.57 9.29 9.29 0 0 1 -1.49.15.24.24 0 0 1 -.17 0h-.15a5.29 5.29 0 0 0 .13.54.3.3 0 0 0 .16 0 1.69 1.69 0 0 1 1-.08 1.19 1.19 0 0 0 1.05-.31c0-.05.09-.12.16-.13a.14.14 0 0 1 .09 0 .5.5 0 0 0 .37-.17c.07-.06.11-.14.17-.2l.13-.15a3.15 3.15 0 0 0 .31-.41 3.58 3.58 0 0 0 .21-.39 3.58 3.58 0 0 1 -.61.58z" fill="#f9d975"/><path d="m18.61 49.44a2.53 2.53 0 0 0 -.12.36 2.33 2.33 0 0 0 -.06 1.14.19.19 0 0 0 .07.11h.16c0-.15-.07-.3-.08-.45a1.51 1.51 0 0 1 .05-.42c.07-.28.16-.55.24-.83 0 0 0-.08 0-.13s.1-.37.16-.56l.07-.18a2.49 2.49 0 0 1 .2-.4 2.3 2.3 0 0 0 -.35.47 5 5 0 0 0 -.34.74z" fill="#f9d975"/><path d="m20.14 48.56a1.86 1.86 0 0 1 -.23.26 1.2 1.2 0 0 1 -.61.38h-.09a.35.35 0 0 0 -.12.07v.22a.59.59 0 0 0 .39.05s.06 0 .07 0a.64.64 0 0 0 0-.07c0-.17.18-.27.33-.36a1.9 1.9 0 0 0 .66-.8 1.42 1.42 0 0 0 .1-.29l-.05.06-.27.31z" fill="#f9d975"/><path d="m16.25 55c-.32-.09-.65-.17-1-.23a3 3 0 0 0 -.58-.07 1.76 1.76 0 0 0 -1.2.33c.18.07.5 0 .69 0a3.31 3.31 0 0 1 .84-.03c.42.11.81.31 1.22.42a6.44 6.44 0 0 0 1.07.17 1.7 1.7 0 0 0 .84-.06.88.88 0 0 1 .3-.13h.12a.47.47 0 0 0 .17 0 4.41 4.41 0 0 0 .93-.51 4.5 4.5 0 0 0 .42-.3 5.13 5.13 0 0 1 -2.24.68h-.1a6.19 6.19 0 0 1 -1.48-.27z" fill="#239c8c"/><path d="m10.07 52.43a2 2 0 0 0 .11.35l.33.87a6.6 6.6 0 0 0 .64 1.35c.23.34.53.64.78 1a2 2 0 0 1 .47 1.14.47.47 0 0 0 0 .17 1.27 1.27 0 0 0 .07.12 2.12 2.12 0 0 1 .3 1c.23-.13.23-.67.22-.9a2.64 2.64 0 0 0 -.34-1.06 2.69 2.69 0 0 0 -.34-.47l-.15-.15-.4-.4a3.71 3.71 0 0 1 -.59-.87 7.37 7.37 0 0 1 -.76-4.1c-.06.17-.11.34-.16.51s-.12.5-.17.75v.07a1.67 1.67 0 0 0 -.01.62z" fill="#239c8c"/><path d="m11.34 60.21a.67.67 0 0 1 -.24 0 9.94 9.94 0 0 1 2.86 2l.56.49a2 2 0 0 1 .25.25c.07.07.13.16.2.22a1.21 1.21 0 0 0 .28.18l.92.46a1.05 1.05 0 0 0 .51.16h.33a2.5 2.5 0 0 1 .54.07h.11a1.88 1.88 0 0 0 .53 0c-.58-.39-1.36-.32-2-.61a3.1 3.1 0 0 1 -.47-.26 5.23 5.23 0 0 1 -.94-.68c-.25-.22-.46-.48-.7-.72a8.55 8.55 0 0 0 -.74-.61c-.17-.13-.33-.25-.5-.36a3.88 3.88 0 0 0 -.9-.42h-.07a1 1 0 0 0 -.38-.07z" fill="#239c8c"/><path d="m8.47 61.26c0 .26.07.51.11.77a1.17 1.17 0 0 0 -.11-.77z" fill="#239c8c"/><path d="m5.4 55.11c0 .3 0 .6.08.89a2 2 0 0 0 .13.59 5.06 5.06 0 0 0 .26.44v.07c.1.18.17.37.26.55s.11.21.16.32c.11.19.23.37.35.55a3 3 0 0 0 .36.48 1.14 1.14 0 0 1 .11.11l.12.11a2.43 2.43 0 0 1 .24.32 12.68 12.68 0 0 1 .73 1.22 2.72 2.72 0 0 0 .12.25c0 .07.07.15.1.23a2.21 2.21 0 0 0 0-.24 4.89 4.89 0 0 0 -.09-.53 3.25 3.25 0 0 0 -.2-.6 3.45 3.45 0 0 0 -.45-.63 7.79 7.79 0 0 1 -1.43-2.08 8 8 0 0 1 -.3-1l-.45-1.71a.77.77 0 0 0 -.1.5s0 .06 0 .09a.15.15 0 0 1 0 .07z" fill="#239c8c"/><path d="m11.39 69.74a4.08 4.08 0 0 0 1.21 0 2.78 2.78 0 0 0 -.73-.42 7.69 7.69 0 0 1 -2.87-2.69l-.55-.78c-.26-.35-.54-.69-.82-1a2.91 2.91 0 0 0 -.45-.48 1.25 1.25 0 0 0 -.35-.21.23.23 0 0 0 -.18 0c-.05 0-.09 0-.1.08a1.91 1.91 0 0 1 .63.57l.9 1.09a5 5 0 0 1 .34.46l.26.48a6.38 6.38 0 0 0 1.09 1.29l.21.19.22.21a10.55 10.55 0 0 0 1.32 1.1s-.18.12-.23.14h.1z" fill="#239c8c"/><path d="m16.1 50.33c0 .25-.07.49-.1.73a3.33 3.33 0 0 0 0 .63 4.38 4.38 0 0 0 .55 1.58 3.31 3.31 0 0 1 .25.75v.57s0 .08 0 .09a4.08 4.08 0 0 0 -.16-2c-.05-.16-.09-.31-.13-.46s0-.12 0-.18a5.29 5.29 0 0 1 -.13-.54 4.72 4.72 0 0 1 -.11-.83 4.34 4.34 0 0 1 0-.51c0-.07 0-.14 0-.2a2.47 2.47 0 0 1 .11-.47 1.05 1.05 0 0 0 -.29.64v.15z" fill="#239c8c"/><path d="m19.06 50.9a.6.6 0 0 1 -.09.15s-.28.13-.29.16a.58.58 0 0 0 0-.19h-.18-.19l-.87.05c-.1 0-1.07.16-.91.36a.24.24 0 0 0 .17 0 9.29 9.29 0 0 0 1.49-.15 3.16 3.16 0 0 0 1.36-.57 3.58 3.58 0 0 0 .6-.63l.22-.29a.86.86 0 0 1 -.14.13l-.18.18-.15.14a3.25 3.25 0 0 1 -.52.37 3.47 3.47 0 0 1 -.32.29z" fill="#239c8c"/><path d="m19 49.18s0 .1 0 .14c-.08.28-.17.55-.24.83a1.51 1.51 0 0 0 -.05.42c0 .15.06.3.08.45a.58.58 0 0 1 0 .19s.24-.12.29-.16a.6.6 0 0 0 .09-.15s0 0 0 0a1.62 1.62 0 0 0 0-.62 2.42 2.42 0 0 1 0-.76v-.22s0-.07 0-.1 0-.08 0-.15a3.26 3.26 0 0 1 .15-.44 1.89 1.89 0 0 1 .09-.21l.11-.24h-.11a.1.1 0 0 1 0-.1 1 1 0 0 0 -.26.41 1.8 1.8 0 0 1 -.08.21z" fill="#239c8c"/><path d="m19.11 49.16a.15.15 0 0 0 .1 0h.09a1.2 1.2 0 0 0 .61-.38 1.86 1.86 0 0 0 .23-.26l.17-.22.27-.35.06-.07c-.23.2-.47.39-.71.58a6.78 6.78 0 0 0 -.77.5c-.09.12-.09.17-.05.2z" fill="#239c8c"/><g fill="#d25b9d"><path d="m80.3 76.22a.29.29 0 0 0 -.42 0 .93.93 0 0 0 -.21.42 5.71 5.71 0 0 1 -1.34 1.9.66.66 0 0 1 -.23.18h-.19a.41.41 0 0 0 -.14.12 6.36 6.36 0 0 1 -.6.75c-.13.12-.29.19-.43.3a1.94 1.94 0 0 0 -.36.34l-.3.35a.55.55 0 0 1 .18.19 1.11 1.11 0 0 1 .13.57c0 .42.07.87.07 1.3a60.67 60.67 0 0 0 4.26-5.92 6 6 0 0 0 -.41-1.84 7 7 0 0 1 -.01 1.34z"/><path d="m77.56 78.61-.22.13c-.11.09-.21.19-.31.29l.21-.15c.1-.08.21-.18.32-.27z"/><path d="m80.14 74.81a.58.58 0 0 1 0-.14s0 .07 0 .1a.19.19 0 0 0 0 .04z"/><path d="m75.81 83.48c.4 0 .62-.06.65-.54a1.92 1.92 0 0 0 0-.24z"/><path d="m76.26 80.82a.55.55 0 0 0 -.18-.19 2.29 2.29 0 0 0 -.62 1.37v-.3a2.76 2.76 0 0 1 .37-1.21l-.15.23-.27.78a1.23 1.23 0 0 1 .27-.78c0-.09.07-.17.1-.26a5.71 5.71 0 0 0 -.64-.35 1.56 1.56 0 0 1 -1 .58c-.76.12-1.2-.4-1.52-1l-.43.17a7 7 0 0 0 -1 .45 7.56 7.56 0 0 1 -1.36.82 1.5 1.5 0 0 0 -.5.22 1.75 1.75 0 0 0 -.28.33 2.06 2.06 0 0 1 -1.89.6 6 6 0 0 1 -1-.23 5 5 0 0 1 -.63-.19l-.34-.06c1.84 1.21 3.89 1.2 6.06 1.61a13.8 13.8 0 0 0 1.69.26 10.46 10.46 0 0 0 2.68-.11h.18l.65-.78c0-.43 0-.88-.07-1.3a1.11 1.11 0 0 0 -.12-.66z"/><path d="m72.69 78.93h.16l.15.07a2 2 0 0 1 1.81.63 2 2 0 0 0 -1.32-.21 4.27 4.27 0 0 0 -.86.26c.32.61.76 1.13 1.52 1a1.56 1.56 0 0 0 1-.58 4.64 4.64 0 0 0 .63-1.1 7.73 7.73 0 0 0 .86-2.57 8.64 8.64 0 0 0 -.08-1.83c-.17-1.4-.33-2.81-.49-4.21a3.16 3.16 0 0 0 -.25-.87 7.86 7.86 0 0 1 0 .84 3 3 0 0 0 .05-.52v1.1a3.76 3.76 0 0 1 -.09.88 3.51 3.51 0 0 1 -.38.84 2.33 2.33 0 0 1 -.61.78 5.51 5.51 0 0 0 -.94.63c-.22.27-.32.68-.64.82v.06l.42.67a2.07 2.07 0 0 1 .28.65 2.14 2.14 0 0 1 -1 2 .93.93 0 0 1 -.87 0c0 .16-.18 0 0 .24l.19.39a1.13 1.13 0 0 1 .46.03z"/><path d="m73 78.26a2.14 2.14 0 0 0 1-2 2.07 2.07 0 0 0 -.28-.65l-.42-.67a1 1 0 0 0 -.3.06.77.77 0 0 0 -.17.19 9 9 0 0 0 -.63 1c-.07.13-.33.88-.43.85s-.11-.11-.12-.22c-.21-.18-.11-.76 0-1a2.69 2.69 0 0 1 .57-1 3 3 0 0 1 .45-.42 1.88 1.88 0 0 1 .18-.12c-.1-.16-.22-.32-.34-.48a1.54 1.54 0 0 1 -.83 1 2.45 2.45 0 0 1 -1.7-.14 3.23 3.23 0 0 1 -1.64-1.18h-.13a2.58 2.58 0 0 1 -.68 0 2.72 2.72 0 0 1 -1.44-.68 6 6 0 0 1 -.61-.62c-.22-.13-.44-.25-.68-.41.15.51.37.6.71 1 .67.79 1.35 1.59 2.07 2.34a17 17 0 0 0 4.16 3 3.07 3.07 0 0 0 .41.2.93.93 0 0 0 .85-.05z"/><path d="m69.65 67.13v.28-.2z"/><path d="m69.86 69.24a4.8 4.8 0 0 1 -.09.5 2.13 2.13 0 0 1 .21.49 2.9 2.9 0 0 1 -.12 2.09.43.43 0 0 1 0 .07h.62a1.87 1.87 0 0 1 1.18.6s0 0 0 0a1 1 0 0 1 .29.29c-.14.12-.45 0-.61-.09a5.87 5.87 0 0 0 -2.09 0h-.14a1.08 1.08 0 0 1 -.75.18 3.23 3.23 0 0 0 1.64 1.24 2.45 2.45 0 0 0 1.7.14 1.54 1.54 0 0 0 .83-1 2.13 2.13 0 0 0 .12-.61 4.45 4.45 0 0 0 -.52-1.88 22 22 0 0 0 -2.23-3.87s0 .11 0 .16a4.92 4.92 0 0 1 -.04 1.69z"/><path d="m68.39 71.36v-.01z"/><path d="m68.74 72.45c.36 0 .72-.06 1.08-.06a.43.43 0 0 0 0-.07 2.9 2.9 0 0 0 .18-2.09 2.13 2.13 0 0 0 -.21-.49 1.68 1.68 0 0 1 -.59 1c-.08.07-.18.12-.23.22s0 .28 0 .41a.91.91 0 0 1 -.2.32c-.08.11-.27.66-.39.67s-.11-.24-.08-.45c0 0 0 .08-.07.08a4.42 4.42 0 0 1 .58-2c-1 .2-2.42-.27-2.22-1.4a1.57 1.57 0 0 1 .08-.31.5.5 0 0 1 -.35-.26 1.88 1.88 0 0 1 -.14-.24v-.05s0-.09-.07-.14-.17-.31-.24-.48l-.38-.49a12.51 12.51 0 0 0 .73 3.84 9.11 9.11 0 0 0 1.06 2 6.59 6.59 0 0 0 1.46-.01z"/><path d="m69.06 73.25c-.3 0-.59.12-.88.16h.13a1.08 1.08 0 0 0 .75-.16z"/><path d="m66.72 64.82a2 2 0 0 1 .1.26 2 2 0 0 0 -.06-.23z"/><path d="m67.38 66.16a2.69 2.69 0 0 1 .2.27 1.27 1.27 0 0 1 -.22 1.51c.3.09.6.15.9.23.11 0 1.1.39.89.57l.16.06a6.23 6.23 0 0 0 .28-.83 3.94 3.94 0 0 0 -.83-1.53 9.09 9.09 0 0 0 -1.62-1.34 5.14 5.14 0 0 1 .21.86 1.62 1.62 0 0 0 .03.2z"/><path d="m67.07 65.82a4.32 4.32 0 0 0 0-.62 1.55 1.55 0 0 0 -.07-.2v.23s.05.39.07.59z"/><path d="m69.05 69.36a.65.65 0 0 1 -.15-.09 2 2 0 0 0 -1-.29 1.26 1.26 0 0 1 -1-.53c0-.07-.06-.15-.14-.18h-.09a1.57 1.57 0 0 0 -.08.31c-.2 1.13 1.23 1.6 2.22 1.4l.23-.46z"/><path d="m66.8 65.77a.32.32 0 0 1 .1.1s0-.07 0-.11a.2.2 0 0 1 -.1.01z"/><path d="m65.59 64.23s0 0 0 0l.21.38z"/><path d="m66.61 67.6a.08.08 0 0 1 0 0 1.59 1.59 0 0 1 .15-.65 3.14 3.14 0 0 0 .15-.8.69.69 0 0 1 -.43 0 .11.11 0 0 1 -.08-.15c0-.18-.14-.32-.27-.45a2.08 2.08 0 0 1 -.54-1c0 .58.15 1.09.2 1.72v.6a4.42 4.42 0 0 0 .47.5 3.92 3.92 0 0 0 .35.23z"/><path d="m66 67.71v.05-.19z"/><path d="m67.58 66.43a2.69 2.69 0 0 0 -.2-.27c0 .13 0 .27.05.4a2.52 2.52 0 0 1 -.17 1.22.24.24 0 0 1 -.1.1l.2.06a1.27 1.27 0 0 0 .22-1.51z"/><path d="m67.07 65.82v.15a.66.66 0 0 0 0-.14z"/></g><path d="m79.87 75.74a1.78 1.78 0 0 1 -.26.58 2.86 2.86 0 0 1 -.36.42 5.15 5.15 0 0 1 -.47.68l-.19.19c-.15.17-.31.34-.47.5a3.55 3.55 0 0 1 -.46.41h-.07c-.11.09-.22.19-.33.27l-.26.21a10 10 0 0 0 -1 1.14l-.18.24a2.76 2.76 0 0 0 -.37 1.21v.3a2.29 2.29 0 0 1 .62-1.32l.3-.35a1.94 1.94 0 0 1 .36-.34c.14-.11.3-.18.43-.3a6.36 6.36 0 0 0 .6-.75.41.41 0 0 1 .14-.12h.19a.66.66 0 0 0 .23-.18 5.71 5.71 0 0 0 1.34-1.9.93.93 0 0 1 .21-.42.29.29 0 0 1 .42 0 7 7 0 0 0 0-1.29c0-.16 0-.33 0-.49 0 .08-.06.15-.08.23a.58.58 0 0 0 0 .14q-.21.48-.34.94z" fill="#f9d975"/><path d="m67.19 82.22a2.06 2.06 0 0 0 1.89-.6 1.75 1.75 0 0 1 .28-.33 1.5 1.5 0 0 1 .5-.22 7.56 7.56 0 0 0 1.36-.82 7 7 0 0 1 1-.45l.43-.17a4.27 4.27 0 0 1 .86-.26 2 2 0 0 1 1.32.21 2 2 0 0 0 -1.83-.58h-.13a.65.65 0 0 0 .25 0 10.83 10.83 0 0 0 -3.42 1.52l-.69.4a2.4 2.4 0 0 0 -.31.21l-.26.2a1.89 1.89 0 0 1 -.33.13l-1.06.3a1.24 1.24 0 0 1 -.57.06 2.3 2.3 0 0 1 -.34-.12 2.78 2.78 0 0 0 -.58 0h-.12s0 0 0 0 .06.07.14.1a5 5 0 0 0 .63.19 6 6 0 0 0 .98.23z" fill="#f9d975"/><path d="m75.76 71a2.37 2.37 0 0 1 -.19.35l-.52.85a7.4 7.4 0 0 1 -.94 1.28c-.32.31-.69.57-1 .87a2.24 2.24 0 0 0 -.73 1.11.48.48 0 0 1 0 .17.36.36 0 0 1 -.1.11 2.2 2.2 0 0 0 -.52 1c0 .11 0 .2.12.22s.36-.72.43-.85a9 9 0 0 1 .63-1 .77.77 0 0 1 .06-.11 1 1 0 0 1 .2-.07c.32-.14.42-.55.64-.82a5.51 5.51 0 0 1 .94-.63 2.33 2.33 0 0 0 .61-.78 3.51 3.51 0 0 0 .38-.84 3.76 3.76 0 0 0 .09-.88c0-.37 0-.73 0-1.1a3 3 0 0 1 -.05.52s0 0 0 .07a1.93 1.93 0 0 1 -.05.53z" fill="#f9d975"/><path d="m67.5 73.43a2.58 2.58 0 0 0 .68 0c.29 0 .58-.11.88-.16h.14a5.87 5.87 0 0 1 2.09 0c.16 0 .47.21.61.09a1 1 0 0 0 -.29-.29c-.21 0-.52-.15-.72-.19a3.28 3.28 0 0 0 -.83 0c-.46 0-.91.15-1.38.19a7.37 7.37 0 0 1 -1.15 0 1.75 1.75 0 0 1 -.87-.24 1.21 1.21 0 0 0 -.3-.2h-.12a.53.53 0 0 1 -.17-.08 4.69 4.69 0 0 1 -.88-.72l-.2-.12.46.57a6 6 0 0 0 .61.62 2.72 2.72 0 0 0 1.44.53z" fill="#f9d975"/><path d="m69.7 67.14s0 0 0 0z" fill="#f9d975"/><path d="m69.84 67.57v.78a3.08 3.08 0 0 1 -.08.68 4.76 4.76 0 0 1 -.9 1.55 4.07 4.07 0 0 0 -.42.73c0 .11-.08.43-.15.59s0 .46.08.45.31-.56.39-.67a.91.91 0 0 0 .2-.32c0-.13 0-.28 0-.41s.15-.15.23-.22a1.68 1.68 0 0 0 .59-1 4.8 4.8 0 0 0 .09-.5 4.92 4.92 0 0 0 -.03-1.66z" fill="#f9d975"/><path d="m65.51 66.36v.09.07a.8.8 0 0 1 0-.16z" fill="#f9d975"/><path d="m66.08 67.76a1.88 1.88 0 0 0 .14.24.5.5 0 0 0 .35.26h.13c.08 0 .11.11.14.18a1.26 1.26 0 0 0 1 .53 2 2 0 0 1 1 .29.65.65 0 0 0 .15.09c.09-.18.18-.37.26-.56l-.16-.06a.25.25 0 0 1 -.19 0 10.43 10.43 0 0 1 -1.54-.45 3.12 3.12 0 0 1 -1.82-1.67c0 .16.09.31.14.46s.16.32.24.48z" fill="#f9d975"/><path d="m67.08 65.83a.66.66 0 0 1 0 .14c0 .31.07.61.08.92a1.35 1.35 0 0 1 0 .45c0 .16-.13.31-.18.47a.05.05 0 0 1 0 0h.16a.24.24 0 0 0 .1-.1 2.52 2.52 0 0 0 .17-1.22c0-.13 0-.27-.05-.4a1.62 1.62 0 0 1 0-.2 5.14 5.14 0 0 0 -.21-.86 2 2 0 0 0 -.28-.56 1.51 1.51 0 0 1 .13.53 1.55 1.55 0 0 1 0 .21 4.32 4.32 0 0 1 .08.62z" fill="#f9d975"/><path d="m66.4 66a.11.11 0 0 0 .07.06.69.69 0 0 0 .43 0 1.92 1.92 0 0 0 0-.24.32.32 0 0 0 -.1-.1h-.11c-.23-.05-.43-.34-.56-.52a3.37 3.37 0 0 1 -.19-.32l-.14-.27-.21-.38v-.07.33a2.08 2.08 0 0 0 .54 1c.13.14.29.28.27.51z" fill="#f9d975"/><path d="m66.07 72.4a.53.53 0 0 0 .17.08h.12a1.21 1.21 0 0 1 .3.2 1.75 1.75 0 0 0 .87.24 7.37 7.37 0 0 0 1.15 0c.47 0 .92-.17 1.38-.19a3.28 3.28 0 0 1 .83 0c.2 0 .51.22.72.19a1.87 1.87 0 0 0 -1.18-.6c-.21 0-.41 0-.62 0s-.72 0-1.08.06a6.59 6.59 0 0 1 -1.6 0h-.13a5.47 5.47 0 0 1 -2.23-1.18 5 5 0 0 0 .38.41 4.69 4.69 0 0 0 .92.79z" fill="#239c8c"/><path d="m72.19 74.79a2.69 2.69 0 0 0 -.57 1c-.07.24-.17.82 0 1a2.2 2.2 0 0 1 .52-1 .36.36 0 0 0 .1-.11.48.48 0 0 0 0-.17 2.24 2.24 0 0 1 .73-1.11c.34-.3.71-.56 1-.87a7.4 7.4 0 0 0 .94-1.28l.52-.85a2.37 2.37 0 0 0 .19-.35 1.93 1.93 0 0 0 .1-.63s0 0 0-.07a7.86 7.86 0 0 0 0-.84c0-.19 0-.37-.06-.56a7.77 7.77 0 0 1 -1.63 4.16 3.84 3.84 0 0 1 -.8.81c-.16.12-.34.22-.51.34a1.88 1.88 0 0 0 -.18.12 3 3 0 0 0 -.35.41z" fill="#239c8c"/><path d="m66.12 81.7a2.3 2.3 0 0 0 .34.12 1.24 1.24 0 0 0 .57-.06l1.06-.3a1.89 1.89 0 0 0 .33-.13l.26-.2a2.4 2.4 0 0 1 .31-.21l.69-.4a10.83 10.83 0 0 1 3.42-1.52.65.65 0 0 1 -.25 0h-.16a1.13 1.13 0 0 0 -.41 0h-.08a4 4 0 0 0 -1 .26 5.5 5.5 0 0 0 -.6.28 7.21 7.21 0 0 0 -.91.49c-.3.2-.58.43-.88.62a6.89 6.89 0 0 1 -1.14.52 3.54 3.54 0 0 1 -.55.18c-.73.17-1.53-.06-2.23.23a2.17 2.17 0 0 0 .56.13h.12a2.78 2.78 0 0 1 .55-.01z" fill="#239c8c"/><path d="m75.8 80.44.18-.24a10 10 0 0 1 1.02-1.2c.1-.1.2-.2.31-.29l.22-.13h.07a3.55 3.55 0 0 0 .46-.41c.16-.16.32-.33.47-.5.08-.1.17-.19.24-.29s.24-.37.38-.53l.06-.07a2.86 2.86 0 0 0 .36-.42 1.78 1.78 0 0 0 .26-.58q.15-.46.27-.93a.19.19 0 0 1 0-.07s0-.07 0-.1a.86.86 0 0 0 0-.55c-.27.59-.55 1.17-.83 1.75a6.89 6.89 0 0 1 -.51 1 8.49 8.49 0 0 1 -1.93 1.9 4 4 0 0 0 -.6.57 3.17 3.17 0 0 0 -.33.6c-.08.17-.14.35-.21.53s-.07.17-.1.26z" fill="#239c8c"/><path d="m75.38 81.45.27-.78a1.23 1.23 0 0 0 -.27.78z" fill="#239c8c"/><path d="m69.05 69.36-.07.16-.23.46a4.42 4.42 0 0 0 -.58 2s0 0 .07-.08.11-.48.15-.59a4.07 4.07 0 0 1 .42-.73 4.76 4.76 0 0 0 .9-1.55 3.08 3.08 0 0 0 .08-.68c0-.26 0-.52 0-.78s0-.11 0-.16a1.17 1.17 0 0 0 -.18-.74 2.59 2.59 0 0 1 0 .48v.25a3.69 3.69 0 0 1 -.11.56 6.23 6.23 0 0 1 -.28.83c.01.21-.08.39-.17.57z" fill="#239c8c"/><path d="m66.09 67.41a3.71 3.71 0 0 0 1.32.89 10.43 10.43 0 0 0 1.54.45.25.25 0 0 0 .19 0c.21-.18-.78-.54-.89-.57-.3-.08-.6-.14-.9-.23l-.2-.06h-.16a.05.05 0 0 0 0 0 .41.41 0 0 0 0 .19s-.23-.17-.27-.23a.39.39 0 0 1 -.06-.17 3.92 3.92 0 0 1 -.32-.25 4.42 4.42 0 0 1 -.47-.5 2.44 2.44 0 0 1 -.23-.33v-.07a1.77 1.77 0 0 1 -.12-.17 3.78 3.78 0 0 0 .17.35 3.71 3.71 0 0 0 .4.7z" fill="#239c8c"/><path d="m66.91 65.76s0 .07 0 .11a1.92 1.92 0 0 1 0 .24 3.14 3.14 0 0 1 -.15.8 1.59 1.59 0 0 0 -.15.65.08.08 0 0 0 0 0 .39.39 0 0 0 .06.17c0 .06.27.2.27.23a.41.41 0 0 1 0-.19c.05-.16.14-.31.18-.47a1.35 1.35 0 0 0 0-.45c0-.31 0-.61-.08-.92 0 0 0-.1 0-.15s0-.4 0-.6 0-.15 0-.23a1.17 1.17 0 0 0 -.19-.49.16.16 0 0 1 0 .12l-.12-.05a2.29 2.29 0 0 1 .07.28 2 2 0 0 1 .06.23c0 .17.05.33.07.5.07.14.07.2-.02.22z" fill="#239c8c"/><path d="m65.94 64.92a3.37 3.37 0 0 0 .19.32c.13.18.33.47.56.52h.11a.2.2 0 0 0 .11 0s.06-.08 0-.17c-.19-.25-.5-.46-.71-.69s-.43-.49-.63-.75v.09l.21.42z" fill="#239c8c"/></svg>