<?xml version="1.0" encoding="utf-8"?>
<!-- Generator: Adobe Illustrator 24.2.0, SVG Export Plug-In . SVG Version: 6.00 Build 0)  -->
<svg version="1.1" id="Calque_1" xmlns="http://www.w3.org/2000/svg" xmlns:xlink="http://www.w3.org/1999/xlink" x="0px" y="0px"
	 viewBox="0 0 87.9 87.9" style="enable-background:new 0 0 87.9 87.9;" xml:space="preserve">
<style type="text/css">
	.st0{fill:#044A79;}
	.st1{fill:#FFFFFF;}
</style>
<path class="st0" d="M87.9,42.1c0-0.5-0.1-1-0.1-1.5c0,0,0,0,0,0c-0.2-2.7-0.7-5.2-1.3-7.8l0,0c0,0,0-0.1,0-0.1
	C81.5,13.8,64.4-0.1,44,0C24.6,0,8.2,12.5,2.4,29.9c0,0,0,0,0,0c-0.2,0.6-0.4,1.2-0.6,1.8c0,0,0,0,0,0c0,0,0,0,0,0
	c0,0.1,0,0.1-0.1,0.2c0,0,0,0,0,0c-0.2,0.7-0.4,1.3-0.5,2c0,0,0,0,0,0v0c-0.1,0.5-0.2,0.9-0.3,1.4l0,0c0,0.2-0.1,0.3-0.1,0.5l0,0
	c-0.2,1.3-0.4,2.6-0.6,3.9c0,0.2,0,0.4,0,0.6c-0.1,1.2-0.2,2.4-0.2,3.7c0,3.3,0.4,6.6,1.1,9.7c0,0.1,0,0.2,0.1,0.3l0,0
	c4.5,19.5,22,33.9,42.8,33.9c23.5,0,42.7-18.5,43.8-41.7c0,0,0,0,0,0c0-0.8,0.1-1.5,0.1-2.3C88,43.2,88,42.6,87.9,42.1z"/>
<g>
	<g>
		<path class="st1" d="M56,35.3c-0.1,0-0.2,0.1-0.2,0.2c0,0.4-0.1,0.9-0.2,1.1c0,0,0,0.1,0.1,0.2c0.1,0.1,0.1,0,0.2,0c0,0,0,0,0,0
			c0,0,0,0,0,0c0.2-0.3,0.2-1,0.3-1.3C56.2,35.4,56.1,35.3,56,35.3z"/>
	</g>
	<g>
		<path class="st1" d="M57.7,34c-0.1,0-0.2,0-0.2,0.1c-0.1,0.3-0.2,0.5-0.2,0.8V35c-0.1,0.1,0,0.2,0.1,0.2h0.1
			c0.1-0.1,0.1-0.1,0.1-0.2v-0.1c0.1-0.2,0.1-0.5,0.2-0.7C57.8,34.1,57.8,34,57.7,34z"/>
	</g>
	<g>
		<path class="st1" d="M58.7,35.8c-0.1,0-0.2,0-0.2,0.1c0,0.1-0.1,0.3-0.1,0.4c0,0.2-0.1,0.5-0.2,0.6c-0.1,0.1-0.1,0.2,0,0.3
			c0.1,0.1,0.1,0.1,0.2,0c0.2-0.2,0.3-0.5,0.3-0.8c0-0.2,0.1-0.3,0.1-0.4C58.8,35.9,58.8,35.8,58.7,35.8z"/>
	</g>
	<g>
		<path class="st1" d="M59.5,33.3c0,0-0.2,0-0.2,0.1c-0.1,0.1-0.2,0.4-0.2,0.6S59,34.3,59,34.4c0,0,0,0.1,0.1,0.2
			c0.1,0.1,0.1,0,0.2,0c0.1-0.1,0.1-0.3,0.1-0.5c0.1-0.2,0.1-0.5,0.2-0.6C59.6,33.5,59.6,33.3,59.5,33.3z"/>
	</g>
	<g>
		<path class="st1" d="M56.6,31.9c-0.1,0-0.2,0-0.2,0.1v0.1c-0.1,0.3-0.2,0.6-0.2,0.9c0,0.1,0.1,0.2,0.2,0.2h0.1
			c0.1,0,0.1-0.1,0-0.2c0-0.3,0.1-0.6,0.2-0.8v-0.1C56.7,32,56.7,31.9,56.6,31.9z"/>
	</g>
	<g>
		<path class="st1" d="M58.4,31.4c0,0-0.2,0-0.2,0.1c-0.1,0.2-0.2,0.5-0.3,0.7c-0.1,0-0.1,0-0.1,0.1v0.1c0,0.1,0,0.2,0.1,0.2
			c0.1,0.1,0.1,0,0.2,0c0,0,0-0.1,0-0.1s0,0,0,0.1c0.1-0.1,0.1-0.1,0-0.1c0.1-0.3,0.3-0.6,0.4-0.9C58.5,31.6,58.5,31.4,58.4,31.4z"
			/>
	</g>
	<g>
		<path class="st1" d="M60.2,35.3c-0.1,0.2-0.1,0.4-0.2,0.6c-0.1,0.1-0.1,0.4-0.2,0.4s-0.1,0.1-0.1,0.2c0,0,0.2,0.1,0.3,0
			c0.2-0.1,0.3-0.3,0.3-0.4c0.1-0.2,0.1-0.4,0.2-0.5c0.1-0.1,0.1-0.2,0-0.3C60.4,35.2,60.3,35.2,60.2,35.3z"/>
	</g>
</g>
<g>
	<path class="st1" d="M40.4,23.2c-0.1-0.3-0.2-0.5-0.3-0.8c-0.1-0.1-0.1-0.3-0.2-0.3c-0.1,0.4-0.2,0.9-0.5,1.3
		c-0.2,0.3-0.4,0.4-0.7,0.5c0,0.1,0.2,0.2,0.3,0.2c0.2,0.1,0.4,0.2,0.5,0.3c0.2,0.2,0.3,0.4,0.3,0.6c0.1,0.2,0.1,0.3,0.1,0.5v0.1
		c0,0,0.1,0.1,0.2,0.2c0-0.1,0.1-0.2,0.1-0.3c0.1-0.2,0.1-0.4,0.2-0.6c0.1-0.3,0.3-0.5,0.5-0.7c0.1-0.1,0.3-0.3,0.4-0.4
		c-0.1,0-0.3,0-0.4-0.1C40.7,23.6,40.5,23.4,40.4,23.2z"/>
</g>
<g>
	<path class="st1" d="M42.8,25.4c-0.1-0.1-0.2-0.2-0.3-0.3c-0.2-0.3-0.2-0.6-0.3-0.9c-0.1,0.1-0.1,0.2-0.1,0.3
		c-0.1,0.2-0.1,0.4-0.2,0.6c-0.1,0.2-0.2,0.3-0.4,0.4c0,0-0.2,0-0.2,0.1c0.1,0,0.2,0.1,0.3,0.1c0.2,0,0.3,0.1,0.4,0.2
		c0.2,0.2,0.2,0.5,0.2,0.8c0.2-0.2,0.2-0.5,0.3-0.6c0.1-0.3,0.4-0.4,0.6-0.6C43.1,25.4,42.9,25.4,42.8,25.4z"/>
</g>
<g>
	<path class="st1" d="M57.9,45.7c-0.6,0.9-0.3,2.3-0.9,3.2c0.2-1.4,0.2-2.9,0.2-4.3c0.1-1.2,0.1-2.5,0-3.7c0-0.7,0.1-1.5,0-2.1
		c-0.5,1.7-0.8,3.4-1.1,5.1c-0.3,1.4-0.5,3-0.9,4.4c-0.1-1.1-0.1-2.4-0.4-3.5c-0.7,1.8-0.5,3.9-1,5.8c-0.3-0.7-0.3-1.8-0.7-2.5
		c-0.2,0.3-0.1,0.8-0.1,1.1c0,0.7-0.1,1.4-0.2,2.2c0,1-0.1,2.3,0.2,3.3c0.2,0.7,1.1,1.7,2,1.6c2-0.2,2.1-1.4,2.4-2.2
		c0.3-0.8,0.4-1.6,0.4-2.4c0-0.4-0.1-0.9,0.1-1.3c-0.1,0.2-0.2,0.4-0.3,0.6c-0.1-0.8,0.1-1.7,0.1-2.5C57.7,47.6,58.1,46.6,57.9,45.7
		z M55.5,55.3c-1.1,0.2-2.1-0.6-1.9-1.8c0.1-0.7,0.4-1.3,1.2-1.4c0.3-0.1,0.9-0.1,1.1,0.2C57.3,52.6,57.2,55,55.5,55.3z"/>
</g>
<g>
	<path class="st1" d="M37.9,36.8c-0.5,0.2-1,0.4-1.7,0.7C35,38,33.4,38.4,32,38.8c0.5,0.3,1,0.5,1.5,0.7c1.6,0.5,3.1,0.3,4.6-0.5
		c1.4-0.7,2.8-1.9,3.4-3.3c0.1-0.2,0.1-0.3,0.2-0.5c-0.5,0.2-0.9,0.5-1.3,0.6C39.3,36.2,38.6,36.4,37.9,36.8z"/>
	<path class="st1" d="M39.7,27.9c-1.1-0.9-2.6-1.4-4-1.6c-0.5-0.1-1,0-1.5,0.1c-0.4,0.1-0.7,0.2-1,0.4c-0.1,0-0.1,0-0.2,0.1
		c-1.7,0.8-2.8,2.5-3.5,4.2c-0.9,2.2-0.4,4.6,1,6.3c3.2-0.6,5.5-1.5,8.9-2.9c0.9-0.4,1.7-0.8,2.6-1.2C42,31.3,41.2,29.1,39.7,27.9z"
		/>
	<path class="st1" d="M47,27.8c-1.2-0.2-1.8-0.2-3-0.1c-1.5,0.2-2.5,0.4-3.1,0.8c0.3,0.3,0.4,0.5,0.5,0.6c0.1,0,0.3-0.1,0.4-0.1
		c1.1-0.3,2.1-0.6,3.3-0.4c0.4,0.1,1.1,0.2,1.3,0.6c0.1,0.2,0.1,0.5,0,0.9c-0.5,1.2-1.6,1.8-2.6,2.4l-0.1,0.1
		c-0.6,0.3-1.3,0.7-1.9,1c-0.8,0.4-1.7,0.8-2.5,1.2c-3.4,1.5-5.6,2.3-8.9,2.8c-0.2,0-0.4,0.1-0.7,0.1c-0.9,0.1-2.8,0.4-4.2,0.1
		c-0.5-0.1-0.8-0.3-0.9-0.6c-0.1-0.2-0.1-0.5,0.1-0.8c0.5-0.9,1.2-1.4,2-1.8c0.1-0.1,0.2-0.1,0.3-0.2c0.4-0.2,0.7-0.5,1.2-0.6
		c0-0.2,0-0.6,0-0.9c0-0.1,0-0.1,0-0.1c-1.5,0.6-3,1.7-4.2,2.9c-0.6,0.6-1.3,1.3-1.1,2.3c0.2,0.8,1,1,1.8,1.2
		c1.6,0.4,3.5,0.3,5.6-0.2c0.4-0.1,0.8-0.2,1.2-0.3c1.4-0.3,3.1-0.8,4.4-1.3c0.7-0.3,1.2-0.5,1.7-0.7c0.8-0.3,1.4-0.5,2.5-1
		c0.5-0.2,1-0.5,1.6-0.7c0.8-0.4,1.6-0.8,2.2-1.1c1-0.5,1.8-1,2.7-1.7h0.1c0.9-0.7,1.4-1.1,1.8-2.2c0.2-0.8,0.1-1.2-0.1-1.5
		C48.2,28.1,47.7,27.9,47,27.8z"/>
</g>
<g>
	<g>
		<path class="st1" d="M9.3,39c0,0.3-2.1,4-3.1,5.6c-0.5,0.8-1,1.7-1.5,2.5c-0.1,0.2-0.2,0.3-0.2,0.5c0.6,0.1,1.2,0.3,1.8,0.4
			c0.4,0.1,0.9,0.1,1.3,0.3c0,0.1-0.1,0.2-0.2,0.3c-0.4,0.6-0.6,1.3-1,1.9c-0.4,0.8-0.8,1.6-1.3,2.3c-0.2,0.3-0.4,0.7-0.5,1
			c0.2-0.1,0.3-0.2,0.5-0.3c0.8-0.6,1.5-1.2,2.2-1.8c1-0.8,2-1.7,3-2.5c0.5-0.4,1-0.8,1.5-1.2c0.3-0.2,0.8-0.6,1-0.9
			c0.2-0.4-2.5-1.8-2.6-2c0.8-0.5,1.5-1.3,2.1-1.9c0.7-0.6,1.4-1.2,1.9-1.9c-0.8-0.7-1.9-1-2.8-1.4C10.8,39.6,10,39,9.3,39z"/>
	</g>
	<g>
		<path class="st1" d="M4,41.2C3.7,41,3.2,41,2.7,40.9c-0.6,0-1.2-0.1-1.5-0.3c-0.2-0.1-0.4,0-0.5,0.2c-0.1,0.2,0,0.4,0.2,0.5
			c0.4,0.2,1.1,0.3,1.7,0.4c0.4,0,0.9,0.1,1.1,0.2c0.1,0,0.1,0,0.2,0c0.1-0.1,0.2-0.1,0.3-0.2C4.3,41.5,4.2,41.3,4,41.2z"/>
	</g>
	<g>
		<path class="st1" d="M6.5,38.5c-0.2-0.2-0.4-0.3-0.6-0.5c-0.5-0.4-1.1-0.9-1.7-1.2c-0.2-0.1-0.4,0-0.5,0.2c-0.1,0.2,0,0.4,0.2,0.5
			c0.6,0.2,1.1,0.7,1.6,1.1c0.2,0.2,0.4,0.3,0.6,0.5c0.1,0.1,0.2,0.1,0.3,0.1c0.1-0.1,0.2-0.1,0.2-0.2C6.7,38.9,6.7,38.6,6.5,38.5z"
			/>
	</g>
	<g>
		<path class="st1" d="M8.1,35.5c-0.2-0.5-0.4-0.9-0.6-1.3C7.4,34.1,7.2,34,7,34.1c-0.1,0.1-0.2,0.3-0.1,0.5
			c0.2,0.4,0.3,0.8,0.5,1.2c0.2,0.3,0.3,0.6,0.4,0.9c0.1,0.1,0.2,0.2,0.4,0.2c0,0,0,0,0.1-0.1c0.2-0.1,0.3-0.3,0.2-0.5
			C8.3,36.1,8.2,35.8,8.1,35.5z"/>
	</g>
</g>
<g>
	<path class="st1" d="M87.9,46.1c0-0.8,0.1-1.5,0.1-2.3c0-0.6,0-1.2,0-1.8c0-0.3,0-0.6-0.1-0.9c-0.7,0.2-1.5,0.4-2.3,0.2
		c-1.1-0.3-2.2-0.4-3.3-0.3c-0.7,0.1-1.1,0.2-1.7,0.5c-0.3,0.1-1,0.6-2,0.9c-0.4,0.1-0.9,0-1.3,0c-0.3,0-0.6-0.1-0.9-0.2
		c-0.8-0.4-1.5-1.1-1.7-1.3c-0.5-0.4-0.9-0.6-1.6-0.9c-1.1-0.4-2.2-0.4-3.3-0.4c-1,0-1.9-0.5-2.7-1c-0.4-0.2-1-0.9-1.4-1.1
		c-0.5,0.7-0.7,1.6-0.7,2.5c-0.1,0.8,0,2.1,0.3,2.9c0.2,0.5,0.6,1.5,1.1,2c0.6,0.7,1.4,1.5,2.1,1.8c1.2,0.6,2.7,0.7,4,0.4
		c1.2-0.2,2.3-0.7,3.4-1.2c0.2-0.1,0.4-0.2,0.6-0.2c0.2-0.1,0.5-0.1,0.8-0.1c0.2,0,0.3,0.1,0.5,0.2c0.2,0.1,0.4,0.2,0.5,0.4
		c1,0.7,1.9,1.4,3,1.9c1.2,0.5,2.7,0.7,4,0.4c0.7-0.2,1.7-0.7,2.4-1.3c0.1,0,0.1-0.1,0.2-0.2C87.9,46.8,87.9,46.5,87.9,46.1
		C87.9,46.1,87.9,46.1,87.9,46.1z M73.8,44c-0.1,0.4-0.8,0.7-1.1,0.8c-1,0.4-2.5,0.3-3.1-0.6c-0.3-0.4-0.6-0.9,0-1.4
		c0.3-0.2,0.7-0.4,1-0.4c0.8-0.2,1.7,0,2.4,0.4C73.2,43,73.9,43.5,73.8,44z M84.9,45.6c-0.9,0.8-2.3,0.5-3.2,0c-0.3-0.2-0.9-0.6-1-1
		c0-0.5,0.8-0.8,1.1-1c0.7-0.3,1.7-0.3,2.4,0.1c0.3,0.2,0.7,0.4,0.9,0.6C85.6,44.9,85.3,45.3,84.9,45.6z"/>
</g>
<g>
	<g>
		<path class="st1" d="M34.1,53.8c0.1,0.4,0.3,0.9,0.5,1.3c0.2,0.1,0.6-0.2,0.8-0.5c0.1-0.2,0.1-0.4,0-0.6
			C35,53.7,34.4,53.6,34.1,53.8z"/>
	</g>
	<g>
		<path class="st1" d="M37.8,53.7c-0.3-0.1-0.3,1.5,0.4,1.5c0.5,0,0.4-0.7,0.3-1C38.4,53.8,38.2,53.7,37.8,53.7z"/>
	</g>
	<g>
		<path class="st1" d="M46.9,54.3c-0.7-0.6-1.3-1.3-2-1.9c-0.1-0.1-0.1-0.2,0-0.2c0.5-0.9,1.1-1.7,1.7-2.6c0.4-0.6,1-1.3,1.3-2
			c0.1-0.1,0-0.2-0.1-0.3c-0.7-0.2-2,0.2-2.5,0.3c-0.8,0.2-1.6,0.4-2.4,0.5c-0.3,0-0.9,0.2-1.2,0c-0.7-0.3-0.9-2.2-1-2.9
			c-0.2-0.9-0.6-1.6-1-2.4c-0.1-0.1-0.3-0.2-0.3,0c-0.3,0.5-0.4,1.2-0.6,1.6c-0.5,1.2-0.9,2.5-1.4,3.7c-0.4,1.1-0.3,2-1.5,1.1
			c-0.7-0.6-1.4-1.3-2.3-1.6c-0.2-0.1-0.9-0.4-1.2-0.2c-0.2,0.2,0.2,1.4,0.3,1.7c0.3,1,0.9,2.1,1.1,3.1c0,0.1-0.1,0.2-0.2,0.2
			c-0.6,0.2-1.4-0.2-2-0.3c-0.4-0.1-1.5-0.5-2.1-0.3c-0.1,0-0.2,0.2-0.1,0.3c0.6,0.9,1.6,1.4,2.4,2.1c-0.1,0-0.1-0.1-0.2-0.1
			c-0.8,0.8-1.4,1.1-1.8,1.4c-0.6,0.4-1.4,1.1-2.2,1.4c-0.2,0.1-0.1,0.4,0.1,0.4c1,0,2.1-0.3,3-0.4c0.9-0.1,1.7-0.1,2.6-0.1
			c0.1,0,0.2,0.1,0.2,0.3c-0.3,0.8-0.4,1.5-0.7,2.3c-0.1,0.5-0.5,1.2-0.6,1.8c0,0.1,0.1,0.3,0.3,0.2c0.6-0.3,1.2-1.2,1.7-1.7
			c0.4-0.3,1.6-1.6,2.2-1.6c0.5,0,0.5,1,0.6,1.5c0.2,1.1,0.5,2.3,1,3.3c0.1,0.1,0.3,0.1,0.3,0c0.1-0.2,0.2-0.4,0.2-0.6
			c0.2-0.7,0.5-1.3,0.7-1.9c0.2-0.6,0.6-1.2,0.6-1.8c0.2,0,0.3,0.1,0.4,0.2c0.5,0.3,1,0.7,1.5,1c0.5,0.3,1,0.7,1.6,0.9
			c0.1,0,0.2,0,0.2-0.2c0.1-1.1-0.8-2.3-1-3.3c0-0.1,0-0.2,0.1-0.2c0.9-0.2,2.1,0.3,3,0.4c0.9,0,1.8-0.1,2.7-0.2
			c0.2,0,0.5,0,0.7-0.1c0.2-0.4,0.3-0.6,0.2-0.7C48.5,55.6,47.6,55,46.9,54.3z M36.1,55c-0.3,0.4-0.7,0.7-1.1,0.9
			c0.1,0.3,0.2,0.6,0.3,0.8c0,0.1,0.2,0.4,0.2,0.5s-0.5,0.2-0.6,0.2c-0.1,0-0.2,0-0.4,0c0-0.1-0.1-0.2-0.1-0.3
			c-0.3-0.6-0.6-1.3-0.9-1.9c-0.2-0.6-0.5-1.2-0.7-1.9c0.2-0.2,0.4-0.4,0.7-0.6c0.6-0.3,1.5-0.5,2.1,0C36.4,53.3,36.6,54.2,36.1,55z
			 M39.2,55.8c-0.3,0.6-0.8,0.7-1.3,0.4c-0.3-0.1-0.5-0.6-0.7-0.8c-0.4-0.6-0.6-1.5-0.4-2.2c0.1-0.3,0.4-0.8,0.8-1
			c0.5-0.2,1,0.3,1.3,0.6C39.5,53.6,39.6,54.9,39.2,55.8z M43.2,54.6c-0.2,0.1-0.5,0.3-0.7,0.2c-0.2-0.2-0.3-0.6-0.5-0.9
			c-0.1-0.2-0.2-0.3-0.3-0.5c0,0.2,0,0.4,0.1,0.7c0,0.2,0,0.4,0,0.7c0,0.1,0,0.2,0,0.2c0,0.1-0.1,0.1-0.2,0.1
			c-0.2,0-0.6,0.2-0.8,0.2c0-0.1-0.1-0.4-0.1-0.5c-0.3-0.7-0.6-1.4-0.8-2.1c-0.1-0.3-0.2-0.6-0.3-0.9c0-0.1-0.1-0.2-0.1-0.3
			s0.1-0.1,0.2-0.2c0.1,0,0.4-0.3,0.5-0.2c0.1,0,0.2,0.5,0.3,0.6c0.2,0.4,0.3,0.9,0.5,1.4c0,0.1,0.1,0.2,0.2,0.3c0-0.4,0-1,0-1.4
			c0.1,0,0.3-0.1,0.4-0.1c0.1,0,0.3,0.4,0.3,0.5c0.1,0.2,0.2,0.3,0.3,0.5c0-0.2-0.1-0.4-0.1-0.5c-0.1-0.3-0.2-0.7-0.2-1
			c0-0.1-0.1-0.2-0.1-0.3c0-0.2,0.5-0.4,0.7-0.5c0.1,0.2,0.2,0.4,0.2,0.7c0.2,0.7,0.3,1.3,0.4,2c0.1,0.2,0.1,0.5,0.2,0.7
			c0,0.1,0.1,0.3,0.1,0.3C43.3,54.5,43.3,54.5,43.2,54.6z M43.8,51.9c-0.1-0.4-0.2-0.9-0.3-1.4c0.3-0.1,0.6-0.3,0.9-0.3
			c0,0.5,0.1,1.1,0.2,1.6c0,0.3,0.1,0.7,0.2,1c-0.2,0.1-0.4,0.1-0.7-0.1C44,52.8,43.8,52,43.8,51.9z M44.5,54.3
			c-0.3-0.1-0.5-0.4-0.2-0.7c0,0,0.1,0,0.1-0.1h0.1C45.1,53.6,45.2,54.5,44.5,54.3z"/>
	</g>
</g>
</svg>
