<svg viewBox="0 0 94 94.06" xmlns="http://www.w3.org/2000/svg"><circle cx="47" cy="47.03" fill="#fff" r="47.03"/><path d="m75.76 84.22 2.85-2.39 1.82-3.31 5-6.15 3.8-7.43 2.9-6.58 1.29-6.1.21-1.07.21-2.12.1-1.08.04-.89.01-1.05v-.32l-.01-.32v-.4l-.04-.73-.13-.19-3.68-.33-7.48 16.77-11.76 14.43-2.6 12.32z" fill="#fffcf3"/><path d="m0 45.59v1.44s0 1 0 1.44z" fill="none"/><path d="m92.07 46.7a40.09 40.09 0 0 1 -.49 4.39c-.1.61-.25 1.4-.43 2.18s-.34 1.39-.56 2.15a39.05 39.05 0 0 1 -3.45 8.26l-.11.19c-.14.26-.3.53-.46.79l-.07.13-.22.35-.29.47c-.42.67-.85 1.31-1.22 1.85-.6.89-1.23 1.78-1.83 2.63-.22.31-.44.61-.65.92a60 60 0 0 0 -4.42 6.99l-.12.22-.1.21c-.08.15-.14.29-.2.42l-.1.22-.18.43-.09.21c-.22.58-.42 1.17-.59 1.77a20.25 20.25 0 0 0 -.49 2.58c.76-.59 1.51-1.21 2.23-1.85.06-.26.11-.52.18-.77a18.42 18.42 0 0 1 .6-1.77l.08-.21.19-.43.09-.22.2-.42.11-.21.11-.22a60 60 0 0 1 4.38-6.96l.65-.92c.6-.85 1.23-1.74 1.83-2.63.37-.54.8-1.18 1.22-1.85l.3-.47.21-.35.08-.13c.16-.26.31-.53.46-.79l.1-.19a39.05 39.05 0 0 0 3.45-8.26c.22-.76.4-1.47.56-2.15s.33-1.57.43-2.18a40.11 40.11 0 0 0 .54-4.38c0-.44 0-.88 0-1.33s0-.73 0-1.09h-1.87c0 .8-.01 1.61-.06 2.42z" fill="none"/><path d="m48.62 5.88a35.51 35.51 0 0 1 -.62 3.94 34.1 34.1 0 0 1 -1.11 3.88 33.51 33.51 0 0 1 -3.61 7.3c-.19.28-.38.57-.58.85l-.6.83-.63.8-.64.78a40 40 0 0 1 -2.76 2.9 60.43 60.43 0 0 1 -6 4.89c-2 1.48-4.08 2.87-6 4.3s-3.84 2.9-5.6 4.44c-.88.76-1.72 1.56-2.54 2.39-.36.36-.71.72-1.06 1.09h7c.52-.65 1.06-1.28 1.67-1.92a26.73 26.73 0 0 1 2-1.88c.69-.6 1.4-1.15 2.13-1.68s1.47-1 2.22-1.47c1.5-.92 3-1.72 4.49-2.48l1.1-.57.52-.27.27-.14.24-.13c.65-.34 1.28-.71 1.89-1.1a27.09 27.09 0 0 0 3.44-2.63 26.59 26.59 0 0 0 3-3.12c.46-.55.89-1.12 1.3-1.7.21-.29.4-.59.6-.89s.36-.58.53-.88a30.51 30.51 0 0 0 3.08-7.8 42.24 42.24 0 0 0 1.2-8.75c.06-1.5 0-3 0-4.57 0-.6-.07-1.21-.11-1.82-1.57-.23-3.13-.37-4.71-.47a35.65 35.65 0 0 1 -.11 5.88z" fill="#fffcf3"/><path d="m9.31 21a47.62 47.62 0 0 1 4.13-2.8c2.81-1.69 5.62-3.11 8.34-4.53a75.38 75.38 0 0 0 7.81-4.48 31.75 31.75 0 0 0 3.5-2.77l.82-.79.39-.39.19-.2.19-.22c.52-.6 1-1.18 1.5-1.81a.4.4 0 0 1 .55-.08.39.39 0 0 1 .15.37 8.76 8.76 0 0 1 -.24 1.24c0 .2-.1.4-.16.6l-.17.59-.08.27c0 .09-.07.22-.11.31s-.17.42-.25.6l-.12.3-.13.28c-.08.19-.18.38-.27.57s-.19.38-.29.57l-.3.55c-.21.37-.43.74-.66 1.1-.46.71-1 1.4-1.5 2.07a32.82 32.82 0 0 1 -3.48 3.65c-.62.56-1.24 1.1-1.88 1.63l-.94.77-1 .75c-2.56 2-5.17 3.76-7.62 5.52s-4.68 3.46-6.85 5.33c-.27.28-.51.49-.68.64s-.33.26-.32.23l-.05.06-.18.18-.16.16-.12.13q-.25.24-.48.48c-.31.32-.6.63-.87.95l-.38.46-.18.24-.08.11v.07l-.42.62-.38.57c-.25.39-.49.79-.72 1.19-.12.2-.23.4-.34.61s-.22.41-.32.62c-.22.41-.41.83-.6 1.26a30.54 30.54 0 0 0 -1.87 5.42l-.06.29h7.47a54.38 54.38 0 0 1 6.34-7.74c1.81-1.85 3.72-3.55 5.57-5.19s3.71-3.29 5.47-4.92 3.45-3.26 5-4.9c.8-.82 1.56-1.64 2.3-2.48l.55-.63.53-.63.51-.63.51-.65a38.85 38.85 0 0 0 3.6-5.52c.51-1 1-2 1.44-3s.84-2.11 1.21-3.2c.51-1.51.93-3.07 1.3-4.66a47 47 0 0 0 -38.23 23.53c.38-.36.75-.73 1.14-1.08q.98-.84 1.98-1.59z" fill="#fffcf3"/><path d="m60.6 11.91a34 34 0 0 1 -.6 5.37 29.34 29.34 0 0 1 -1.55 5.29c-.35.86-.74 1.71-1.17 2.54a28 28 0 0 1 -1.44 2.42c-.26.39-.53.77-.81 1.15s-.56.73-.85 1.09c-.57.71-1.18 1.4-1.81 2.06a34.87 34.87 0 0 1 -4.07 3.62 35.26 35.26 0 0 1 -4.56 2.92c-.79.43-1.59.83-2.42 1.2l-2.25 1c-.74.31-1.45.64-2.15 1s-1.38.68-2 1a28.08 28.08 0 0 0 -2.81 1.72h8.47c.47-.26 1-.52 1.42-.76 1.29-.65 2.56-1.23 3.8-1.79s2.46-1.09 3.63-1.66c.58-.28 1.15-.57 1.71-.88s1.09-.63 1.61-1c.27-.16.52-.34.78-.52s.49-.36.73-.56.48-.39.71-.59l.71-.65c.24-.22.47-.45.7-.68s.46-.45.67-.7l.66-.71.64-.75a31.46 31.46 0 0 0 2.31-3.15c.09-.13.19-.27.27-.41l.25-.42.26-.42.12-.21.12-.22.48-.86c.15-.29.29-.59.44-.88a31.33 31.33 0 0 0 1.51-3.64 31 31 0 0 0 1.05-3.8c0-.16.08-.32.11-.48l.08-.49.17-1c.06-.33.12-.65.15-1s.08-.66.11-1l.06-.5c0-.16 0-.33 0-.49l.06-1 .07-1c0-.33 0-.66 0-1a46.52 46.52 0 0 0 -.49-7.36 44.53 44.53 0 0 0 -5.82-2 43.14 43.14 0 0 1 .76 4.86 38.92 38.92 0 0 1 .18 5.34z" fill="#fffcf3"/><path d="m68.45 11.25a65.63 65.63 0 0 1 -1.07 8.27c-.08.34-.14.69-.22 1l-.25 1-.07.26-.07.25-.14.5-.14.51c0 .17-.11.34-.16.5a39.84 39.84 0 0 1 -1.44 4c-.53 1.3-1.15 2.56-1.81 3.81l-.51.93-.57.92c-.18.31-.37.6-.56.9s-.38.6-.58.89l-.6.88-.64.86c-.2.29-.43.57-.65.85s-.44.56-.67.83l-.7.82c-.25.27-.5.55-.76.81s-.53.53-.8.79-.55.5-.83.73c-.57.48-1.14.94-1.73 1.37s-1.17.84-1.77 1.23l-.19.12h11.4c.23-.32.46-.66.69-1a50.11 50.11 0 0 0 3.85-6.92c.56-1.19 1.07-2.42 1.52-3.66l.09-.23.24-.69.3-.91.1-.34.18-.59.13-.47.12-.47c.32-1.21.59-2.46.82-3.83s.37-2.58.5-3.95.19-2.55.24-4.06c0-1.22.07-2.53.06-4.14 0-1.3 0-2.63-.05-3.92v-.3-1.8c-1-.62-2-1.19-3.07-1.73-.02 1.99-.06 3.99-.19 5.98z" fill="#fffcf3"/><path d="m79.61 17.31c0 1.67-.08 3.15-.17 4.52a54 54 0 0 1 -1.36 9.17l-.14.57-.15.57c-.08.3-.16.6-.25.89l-.07.24c-.12.4-.24.79-.35 1.13l-.28.84-.1.27c-.51 1.44-1.09 2.89-1.71 4.29s-1.43 3-2.25 4.5h5.71c.06-.13.11-.27.16-.41s.11-.3.16-.45.11-.31.16-.46l.15-.47.13-.47c0-.15.08-.31.13-.47s.08-.31.11-.47a24.44 24.44 0 0 0 .56-3.94.38.38 0 0 1 .41-.36.39.39 0 0 1 .35.3 19.59 19.59 0 0 1 .27 7.21h3.83a39.29 39.29 0 0 1 -.49-6.31 41 41 0 0 1 2.86-15.29 46.73 46.73 0 0 0 -3.44-4.93l-.15.34a.39.39 0 0 1 -.5.2.39.39 0 0 1 -.19-.32c0-.34.13-.68.19-1a50 50 0 0 0 -3.59-3.84c0 1.56.02 2.91.01 4.15z" fill="#fffcf3"/><path d="m88.9 35c-.21.57-.4 1.16-.59 1.74l-.31.86-.27.89q-.51 1.78-1 3.63c-.17.71-.33 1.44-.5 2.16h4.27a38 38 0 0 0 .29-4.54.51.51 0 0 1 1-.07c.11.87.2 1.76.26 2.64 0 .65.06 1.31.07 2h1.81a46.75 46.75 0 0 0 -3.06-14.21c-.22.49-.46 1-.67 1.48-.47 1.11-.9 2.24-1.3 3.42z" fill="#fffcf3"/><path d="m84.42 38a39.29 39.29 0 0 0 .49 6.24h1.4c.17-.72.33-1.45.5-2.16q.45-1.84 1-3.63l.19-.85.27-.88c.19-.58.38-1.17.59-1.74.4-1.16.83-2.29 1.3-3.4.21-.5.45-1 .67-1.48a46.74 46.74 0 0 0 -3.59-7.35 41 41 0 0 0 -2.82 15.25z" fill="#f3ce91" opacity=".41"/><path d="m83.19 18.37a.39.39 0 0 0 .5-.2l.15-.34c-.23-.29-.46-.59-.7-.88-.06.34-.14.68-.19 1a.39.39 0 0 0 .24.42z" fill="#f3ce91" opacity=".41"/><path d="m71.71 9.09c0 1.29.05 2.62.05 3.92 0 1.61 0 2.92-.06 4.14 0 1.51-.13 2.84-.24 4.06s-.3 2.7-.5 3.95-.5 2.62-.82 3.83l-.12.47-.13.47-.18.59-.1.34-.3.91-.24.69-.09.23c-.45 1.24-1 2.47-1.52 3.66a50.11 50.11 0 0 1 -3.85 6.92c-.23.35-.46.69-.69 1h9.86q1.22-2.19 2.22-4.49c.62-1.4 1.2-2.85 1.71-4.29l.1-.27.28-.84c.11-.34.23-.73.35-1.13l.07-.24c.09-.29.17-.59.25-.89l.15-.57.14-.57a54 54 0 0 0 1.36-9.15c.09-1.37.15-2.85.17-4.52 0-1.24 0-2.59-.06-4.21a47.72 47.72 0 0 0 -7.85-6.1v1.8z" fill="#f3ce91" opacity=".41"/><path d="m92.06 42.31c-.06-.88-.15-1.77-.26-2.64a.51.51 0 0 0 -1 .07 38 38 0 0 1 -.29 4.54h1.63c-.02-.66-.04-1.28-.08-1.97z" fill="#f3ce91" opacity=".41"/><path d="m66 12.15-.07 1-.06 1v.49l-.06.5c0 .33-.07.66-.11 1s-.09.65-.15 1l-.17 1-.08.49c0 .16-.07.32-.11.48a31 31 0 0 1 -1.05 3.8 31.33 31.33 0 0 1 -1.51 3.64c-.15.29-.29.59-.44.88l-.48.86-.12.22-.12.21-.26.42-.25.42c-.08.14-.18.28-.27.41a31.46 31.46 0 0 1 -2.31 3.15l-.64.75-.66.71c-.21.25-.45.47-.67.7s-.46.46-.7.68l-.71.65c-.23.2-.46.4-.71.59s-.49.38-.73.56-.51.36-.78.52c-.52.34-1.06.66-1.61 1s-1.13.6-1.71.88c-1.17.57-2.38 1.11-3.63 1.66s-2.51 1.14-3.8 1.79c-.47.24-1 .5-1.42.76h11l.19-.12q.9-.58 1.77-1.23c.59-.43 1.16-.89 1.73-1.37.28-.23.55-.49.83-.73s.54-.51.8-.79.51-.54.76-.81l.7-.82c.23-.27.45-.55.67-.83s.45-.56.65-.85l.64-.86.6-.88c.2-.29.39-.59.58-.89s.38-.59.56-.9l.54-.91.51-.93c.66-1.25 1.28-2.51 1.81-3.81a39.84 39.84 0 0 0 1.44-4c0-.16.11-.33.16-.5l.14-.51.14-.5.07-.25.07-.26.25-1c.08-.34.14-.69.22-1a65.63 65.63 0 0 0 1.07-8.27c.13-2 .17-4 .15-6-1-.53-2-1-3.1-1.47a46.52 46.52 0 0 1 .44 7.27z" fill="#f3ce91" opacity=".41"/><path d="m80.81 37.07a.39.39 0 0 0 -.35-.3.38.38 0 0 0 -.41.36 24.44 24.44 0 0 1 -.56 3.94c0 .16-.07.31-.11.47s-.08.32-.13.47l-.13.47-.12.52c0 .15-.1.3-.16.46s-.1.3-.16.45-.1.28-.16.41h2.59a19.59 19.59 0 0 0 -.3-7.25z" fill="#f3ce91" opacity=".41"/><path d="m53.53 6.84a42.24 42.24 0 0 1 -1.2 8.75 30.51 30.51 0 0 1 -3.08 7.8c-.17.3-.35.59-.53.88s-.39.6-.6.89c-.41.58-.84 1.15-1.3 1.7a26.59 26.59 0 0 1 -3 3.12 27.09 27.09 0 0 1 -3.46 2.65c-.61.39-1.24.76-1.89 1.1l-.24.13-.23.14-.54.28-1.1.57c-1.47.76-3 1.56-4.49 2.48q-1.12.69-2.22 1.47c-.73.53-1.44 1.08-2.13 1.68a26.73 26.73 0 0 0 -2 1.88c-.61.64-1.15 1.27-1.67 1.92h8.2a28.08 28.08 0 0 1 2.81-1.72c.66-.36 1.34-.7 2-1s1.41-.66 2.15-1l2.25-1c.83-.37 1.63-.77 2.42-1.2a35.26 35.26 0 0 0 4.56-2.92 34.87 34.87 0 0 0 4.07-3.62c.63-.66 1.24-1.35 1.81-2.06.29-.36.57-.73.85-1.09s.55-.76.81-1.15a28 28 0 0 0 1.44-2.42c.43-.83.82-1.68 1.17-2.54a29.34 29.34 0 0 0 1.61-5.28 34 34 0 0 0 .6-5.37 38.92 38.92 0 0 0 -.16-5.3 43.14 43.14 0 0 0 -.76-4.86 44.82 44.82 0 0 0 -6.28-1.3c0 .61.09 1.22.11 1.82.07 1.54.08 3.07.02 4.57z" fill="#f3ce91" opacity=".41"/><path d="m2.68 44a30.54 30.54 0 0 1 1.77-5.38c.19-.43.38-.85.6-1.26.1-.21.21-.42.32-.62s.22-.41.34-.61c.23-.4.47-.8.72-1.19l.38-.57.42-.62v-.07l.08-.11.18-.24.51-.54c.27-.32.56-.63.87-.95q.23-.24.48-.48l.12-.13.16-.16.18-.18.05-.06s.08 0 .32-.23.41-.36.68-.64c2.15-1.84 4.45-3.54 6.89-5.29s5.06-3.54 7.62-5.52l1-.75.94-.77c.64-.53 1.26-1.07 1.88-1.63a32.82 32.82 0 0 0 3.48-3.68c.53-.67 1-1.36 1.5-2.07.23-.36.45-.73.66-1.1l.3-.55c.1-.19.2-.38.29-.57s.19-.38.27-.57l.13-.28.12-.3c.08-.18.17-.4.25-.6s.08-.22.11-.31l.09-.29.17-.59c.06-.2.11-.4.16-.6a8.76 8.76 0 0 0 .24-1.24.39.39 0 0 0 -.15-.37.4.4 0 0 0 -.55.08c-.47.63-1 1.21-1.5 1.81l-.27.23-.19.2-.39.39-.82.79a31.75 31.75 0 0 1 -3.5 2.77 75.38 75.38 0 0 1 -7.81 4.48c-2.72 1.42-5.53 2.84-8.34 4.53a47.62 47.62 0 0 0 -4.13 2.84q-1 .78-2 1.62c-.39.35-.76.72-1.14 1.08a46.75 46.75 0 0 0 -6.11 20.58h2.56z" fill="#f3ce91" opacity=".41"/><path d="m41.91 7.93c-.44 1.07-.91 2.07-1.44 3.07a38.85 38.85 0 0 1 -3.56 5.55l-.51.65-.51.63-.53.63-.55.63c-.74.84-1.5 1.66-2.3 2.48-1.58 1.64-3.27 3.27-5 4.9s-3.63 3.23-5.51 4.89-3.77 3.34-5.58 5.18a54.38 54.38 0 0 0 -6.34 7.74h6.76c.35-.37.7-.73 1.06-1.09.82-.83 1.66-1.63 2.54-2.39 1.76-1.54 3.64-3 5.6-4.44s4-2.82 6-4.3a60.43 60.43 0 0 0 6-4.89 40 40 0 0 0 2.76-2.9l.64-.78.63-.8.6-.83c.2-.28.39-.57.58-.85a33.51 33.51 0 0 0 3.59-7.31 34.1 34.1 0 0 0 1.16-3.88 35.51 35.51 0 0 0 .64-3.94 35.65 35.65 0 0 0 .09-5.88c-.57 0-1.15 0-1.73 0-.87 0-1.72 0-2.58.07-.37 1.59-.79 3.15-1.3 4.66-.37 1.09-.77 2.16-1.21 3.2z" fill="#f3ce91" opacity=".41"/><path d="m53.87 82.9c0-.2 0-.39-.07-.59v-.3-.29-.6-.61c0-.2 0-.4 0-.61s0-.4 0-.61c0-.41 0-.82.08-1.23s.11-.82.17-1.23c0-.21.08-.41.12-.61a6 6 0 0 1 .14-.61l.15-.61c.06-.2.12-.4.19-.6.11-.4.28-.79.43-1.18l.11-.3.13-.28.27-.56.13-.28c0-.1.1-.19.14-.28l.3-.53a22.44 22.44 0 0 1 1.31-2c.47-.63 1-1.23 1.46-1.79a5.14 5.14 0 0 1 .38-.42l.37-.41.32-.37.39-.39c.51-.52 1-1 1.55-1.49l1.55-1.39 1.51-1.38 1.44-1.35c.48-.44 1-.9 1.43-1.35l.7-.69.7-.69c.23-.24.46-.46.68-.7l.68-.71.66-.72.65-.73c.86-1 1.68-2 2.45-3a34.63 34.63 0 0 0 2.16-3.21c.33-.55.64-1.11.93-1.69s.57-1.15.81-1.75c.07-.16.14-.32.2-.49h-5.71c-.68 1.23-1.41 2.43-2.17 3.6-1 1.45-1.83 2.65-2.75 3.81a45.14 45.14 0 0 1 -3.16 3.52c-1.83 1.82-3.71 3.44-5.52 5l-1.08.93-1.57 1.37-.37.34-.37.33-.5.47-.22.21c-.91.87-1.82 1.83-2.72 2.84s-1.71 2-2.47 3.06-1.5 2.13-2.2 3.26c-.16.25-.32.52-.47.78l-.28.49-.48.85a2.44 2.44 0 0 0 -.14.28l-.09.16-.12.23-.32.62a32.15 32.15 0 0 0 -1.46 3.5 38.64 38.64 0 0 0 -1.1 3.74c-.28 1.18-.55 2.47-.81 3.94s-.44 2.79-.63 4.12l-.28 2a47.63 47.63 0 0 0 5.5.33h1.09c0-.16-.06-.32-.09-.47q-.11-.63-.18-1.26c0-.43-.1-.85-.13-1.27a24.14 24.14 0 0 1 -.08-2.55 19.51 19.51 0 0 1 .75-5 .39.39 0 0 1 .76.13 21.16 21.16 0 0 0 0 2.39c0 .39.06.78.11 1.18 0 .19 0 .39.08.58s0 .39.09.58c.14.78.3 1.54.51 2.3s.44 1.51.69 2.25c.12.33.25.65.37 1a47.39 47.39 0 0 0 6.03-.91 49.62 49.62 0 0 1 -2.12-5.62 27.46 27.46 0 0 1 -1.01-4.48z" fill="#fffcf3"/><path d="m71.26 79.75c.28-.76.59-1.52.94-2.24l.13-.27.28-.54.15-.27c.08-.16.18-.33.3-.52l.15-.26.15-.24a61.55 61.55 0 0 1 5.36-7.14l.51-.61c.74-.88 1.5-1.78 2.22-2.66.39-.48.85-1 1.3-1.64l.32-.41.3-.41c.16-.21.31-.43.46-.65l.17-.19c.16-.22.31-.46.46-.69l.11-.15c.06-.11.13-.21.19-.31s.24-.37.35-.56l.27-.44.26-.45c.13-.21.25-.44.37-.65l.13-.24a38.75 38.75 0 0 0 1.76-3.73 39.2 39.2 0 0 0 2.64-10.2h-4.23c-.11.52-.23 1-.34 1.56a.39.39 0 0 1 -.47.29.39.39 0 0 1 -.3-.3c-.11-.52-.2-1-.29-1.56h-3.83c-.06.42-.13.85-.22 1.26-.13.71-.32 1.41-.51 2.11s-.44 1.37-.7 2a33 33 0 0 1 -1.79 3.92 42.32 42.32 0 0 1 -2.21 3.66c-.19.3-.39.6-.6.88l-.61.87c-.42.57-.85 1.14-1.29 1.69-.87 1.11-1.78 2.19-2.72 3.24l-.7.78-.73.82-1.41 1.5-1.38 1.45c-.45.47-.88.94-1.3 1.42s-.81 1-1.18 1.42l-.28.36-.13.18-.13.18-.25.36-.13.17-.12.19a13.48 13.48 0 0 0 -1.48 2.9c-.08.25-.18.49-.24.74s-.07.25-.1.38l-.09.38c0 .13-.05.26-.07.39s-.05.26-.06.39-.07.52-.08.79a19.83 19.83 0 0 0 .87 6.78c.5 1.84 1.17 3.72 1.86 5.68a45.45 45.45 0 0 0 6.49-3 30.59 30.59 0 0 1 .29-3.73 25.66 25.66 0 0 1 1.18-4.68z" fill="#fffcf3"/><path d="m93.46 51.09c-.1.61-.25 1.4-.43 2.18s-.34 1.39-.56 2.15a39.05 39.05 0 0 1 -3.47 8.26l-.1.19c-.15.26-.3.53-.46.79l-.08.13-.21.35-.3.47c-.42.67-.85 1.31-1.22 1.85-.6.89-1.23 1.78-1.83 2.63l-.65.92a60 60 0 0 0 -4.4 6.99l-.11.22-.11.21-.2.42-.09.22-.19.43-.08.21a18.42 18.42 0 0 0 -.6 1.77c-.07.25-.12.51-.18.77a46.91 46.91 0 0 0 15.81-35.25c0-.56 0-1.11 0-1.66v1.33a40.11 40.11 0 0 1 -.54 4.42z" fill="#fffcf3"/><path d="m34.73 86.41c.24-1.67.5-3.14.79-4.49a44 44 0 0 1 1.21-4.53 37.64 37.64 0 0 1 1.75-4.46c.13-.28.26-.54.39-.8a2 2 0 0 1 .13-.25l.09-.18c0-.12.11-.23.17-.35l.54-1 .3-.53c.18-.33.37-.67.57-1a52.52 52.52 0 0 1 5.41-7.55c1-1.13 2-2.27 3.18-3.39l.23-.22.62-.58.84-.78c.49-.45 1-.91 1.65-1.46l1-.9c1.83-1.59 3.56-3.09 5.12-4.66a38.45 38.45 0 0 0 2.59-2.85c.5-.62 1-1.34 1.59-2.14h-11.35c-1.12.74-2.25 1.43-3.35 2.1a48 48 0 0 0 -6.34 4.3c-.45.39-.87.78-1.28 1.19l-.62.66-.61.69a30 30 0 0 0 -2.23 2.89 42 42 0 0 0 -3.59 6.58c-2.09 4.69-3.64 9.87-5.87 15.12-.27.66-.57 1.31-.87 2l-.46 1-.48 1-1 1.91-1.08 1.87c-.35.6-.73 1.18-1.09 1.76a44.78 44.78 0 0 0 4.32 2.23c.38-.86.74-1.74 1-2.64.39-1.16.75-2.37 1.11-3.58s.7-2.44 1.06-3.66c.73-2.44 1.49-4.89 2.39-7.29.46-1.21 1-2.4 1.53-3.56a15.21 15.21 0 0 1 2.11-3.31.38.38 0 0 1 .6.47 10.44 10.44 0 0 0 -.9 1.6c-.26.56-.49 1.13-.7 1.71-.42 1.17-.77 2.37-1.08 3.58-.63 2.42-1.12 4.89-1.59 7.37l-.66 3.72c-.24 1.25-.48 2.51-.77 3.79-.08.32-.16.64-.25 1 0 .16-.08.32-.13.48s-.09.32-.14.48c-.12.41-.27.81-.4 1.2 1.26.49 2.55.92 3.86 1.29l.15-1.43c.16-1.6.34-3.03.54-4.4z" fill="#fffcf3"/><path d="m2.62 44.28a46.2 46.2 0 0 0 -.88 5.45c-.19 2-.28 3.94-.32 6v3c.26 1 .57 2 .9 3a54.75 54.75 0 0 1 7.76-17.45z" fill="#fffcf3"/><path d="m13.44 67.34c.22-.77.44-1.54.64-2.32l.31-1.17.33-1.22c.46-1.61 1-3.22 1.58-4.81a51.51 51.51 0 0 1 4.48-9.21 44.18 44.18 0 0 1 3-4.24l.07-.09h-7q-.68.72-1.32 1.47c-.39.44-.76.89-1.13 1.34s-.73.92-1.08 1.39c-.71.93-1.4 1.89-2 2.88a52.84 52.84 0 0 0 -6.2 12.77c-.29.88-.55 1.78-.79 2.68a47.37 47.37 0 0 0 6 9.69c1.22-3.04 2.22-6.08 3.11-9.16z" fill="#fffcf3"/><path d="m16.48 81.69c.08-.13.17-.26.25-.4l1-1.65.9-1.64q.9-1.66 1.71-3.42c1.1-2.34 2.12-4.8 3.19-7.32s2.18-5.09 3.48-7.65a47.88 47.88 0 0 1 4.63-7.47 35.2 35.2 0 0 1 3-3.37l.82-.78.84-.74c.6-.51 1.22-1 1.85-1.43s1.24-.82 1.85-1.25l.51-.29h-8.44c-.3.21-.59.43-.88.66-.57.44-1.12.91-1.64 1.4l-.39.38-.39.4-.39.41-.38.47a36.72 36.72 0 0 0 -2.85 3.56c-.44.62-.86 1.26-1.27 1.91s-.81 1.32-1.19 2c-.77 1.35-1.46 2.74-2.11 4.17s-1.22 2.88-1.76 4.36l-.39 1.12-.43 1.11c-.27.78-.55 1.56-.83 2.34-1.13 3.11-2.41 6.18-3.83 9.17-.23.48-.47 1-.7 1.42a44.52 44.52 0 0 0 3.36 3.24l.19-.3z" fill="#fffcf3"/><g fill="#f3ce91"><path d="m42.41 87.62c.26-1.47.53-2.76.81-3.94a38.64 38.64 0 0 1 1.1-3.74 32.15 32.15 0 0 1 1.46-3.5l.32-.62.12-.23.09-.16a2.44 2.44 0 0 1 .14-.28l.48-.85.28-.49c.15-.26.31-.53.47-.78.7-1.13 1.44-2.23 2.2-3.26s1.59-2.06 2.47-3.06 1.81-2 2.72-2.84l.22-.21.5-.47.37-.33.37-.34 1.57-1.37 1.08-.93c1.81-1.57 3.69-3.19 5.52-5a45.14 45.14 0 0 0 3.16-3.52c.92-1.16 1.8-2.36 2.75-3.81.76-1.17 1.49-2.37 2.17-3.6h-9.86c-.56.8-1.09 1.52-1.59 2.14a38.45 38.45 0 0 1 -2.59 2.85c-1.56 1.57-3.29 3.07-5.12 4.66l-1 .9c-.63.55-1.16 1-1.65 1.46l-.84.78-.62.58-.23.22c-1.14 1.12-2.21 2.26-3.18 3.39a52.52 52.52 0 0 0 -5.41 7.55c-.2.32-.39.66-.57 1l-.3.53-.54 1c-.06.12-.12.23-.17.35l-.09.18a2 2 0 0 0 -.13.25c-.13.26-.26.52-.39.8a37.64 37.64 0 0 0 -1.75 4.46 44 44 0 0 0 -1.21 4.53c-.29 1.35-.55 2.82-.79 4.49-.2 1.37-.38 2.8-.54 4.39l-.21 1.43a46.93 46.93 0 0 0 7.46 1.5l.28-2c.26-1.32.44-2.73.67-4.11z" opacity=".41"/><path d="m77.08 79.67.09-.21.18-.43.1-.22c.06-.13.12-.27.2-.42l.1-.21.12-.22a60 60 0 0 1 4.42-6.96c.21-.31.43-.61.65-.92.6-.85 1.23-1.74 1.83-2.63.37-.54.8-1.18 1.22-1.85l.29-.47.22-.35.07-.13c.16-.26.32-.53.46-.79l.11-.19a39.05 39.05 0 0 0 3.45-8.26c.22-.76.4-1.47.56-2.15s.33-1.57.43-2.18a40.09 40.09 0 0 0 .49-4.39c.05-.81.06-1.62.06-2.42h-1.63a39.2 39.2 0 0 1 -2.64 10.2 38.75 38.75 0 0 1 -1.76 3.73l-.13.24c-.12.21-.24.44-.37.65l-.26.45-.27.44c-.11.19-.23.38-.35.56s-.13.2-.19.31l-.11.15c-.15.23-.3.47-.46.69l-.13.18c-.15.22-.3.44-.46.65l-.3.41-.32.41c-.45.59-.91 1.16-1.3 1.64-.72.88-1.48 1.78-2.22 2.66l-.51.61a61.55 61.55 0 0 0 -5.36 7.14l-.15.24-.15.26c-.12.19-.22.36-.3.52l-.15.27-.28.54-.13.27c-.35.72-.66 1.48-.94 2.24a25.66 25.66 0 0 0 -1.18 4.68 30.59 30.59 0 0 0 -.29 3.73 46.52 46.52 0 0 0 6.21-4.08 20.25 20.25 0 0 1 .53-2.62c.13-.6.33-1.19.55-1.77z" opacity=".41"/><path d="m30.72 89.26c.05-.16.09-.32.13-.48.09-.33.17-.65.25-1 .29-1.28.53-2.54.77-3.79l.7-3.74c.47-2.48 1-5 1.59-7.37.31-1.21.66-2.41 1.08-3.58.21-.58.44-1.15.7-1.71a10.44 10.44 0 0 1 .9-1.6.38.38 0 0 0 -.6-.47 15.21 15.21 0 0 0 -2.11 3.31c-.57 1.16-1.07 2.35-1.53 3.56-.9 2.4-1.66 4.85-2.39 7.29-.36 1.22-.71 2.45-1.06 3.66s-.72 2.45-1.15 3.66c-.3.9-.66 1.78-1 2.64q1.56.73 3.18 1.35c.13-.39.28-.79.4-1.2.05-.21.09-.37.14-.53z" opacity=".41"/><path d="m24.84 83.65 1-1.91.48-1 .46-1c.3-.66.6-1.31.87-2 2.23-5.25 3.78-10.43 5.87-15.12a42 42 0 0 1 3.59-6.58 30 30 0 0 1 2.23-2.89l.61-.69.62-.66c.41-.41.83-.8 1.28-1.19a48 48 0 0 1 6.34-4.3c1.1-.67 2.23-1.36 3.35-2.1h-11l-.51.29c-.64.38-1.27.78-1.9 1.22s-1.25.92-1.85 1.43l-.84.74-.82.78a35.2 35.2 0 0 0 -3 3.37 47.88 47.88 0 0 0 -4.62 7.54c-1.3 2.56-2.41 5.14-3.48 7.65s-2.09 5-3.19 7.32q-.81 1.76-1.71 3.42l-.93 1.67-1 1.65c-.08.14-.17.27-.25.4l-.26.41-.19.3a46.87 46.87 0 0 0 6.64 4.88c.36-.58.74-1.16 1.09-1.76z" opacity=".41"/><path d="m17.21 68.57c.28-.78.56-1.56.83-2.34l.39-1.17.39-1.12q.81-2.22 1.76-4.36c.65-1.43 1.34-2.82 2.11-4.17.38-.67.78-1.33 1.19-2s.83-1.29 1.27-1.91a36.72 36.72 0 0 1 2.85-3.5l.38-.42.39-.41.39-.4.39-.38c.52-.49 1.07-1 1.64-1.4.29-.23.58-.45.88-.66h-8.2l-.07.09a44.18 44.18 0 0 0 -3 4.24 51.51 51.51 0 0 0 -4.48 9.21c-.6 1.59-1.12 3.2-1.58 4.81l-.33 1.22-.33 1.1c-.2.78-.42 1.55-.64 2.32-.89 3.08-1.89 6.12-3 9.11.74.92 1.51 1.81 2.32 2.66.23-.47.47-.94.7-1.42 1.34-2.92 2.62-5.99 3.75-9.1z" opacity=".41"/><path d="m1.43 58.68c0-1 0-2 0-3 0-2 .13-4 .32-6a46.2 46.2 0 0 1 .88-5.45h-2.57v1.31 2.88a46.46 46.46 0 0 0 1.37 10.26z" opacity=".41"/><path d="m11.28 51.36c.64-1 1.33-2 2-2.88.35-.47.72-.93 1.08-1.39s.74-.9 1.13-1.34.87-1 1.32-1.47h-6.72a54.75 54.75 0 0 0 -7.76 17.45 47.4 47.4 0 0 0 2 5.08c.24-.9.5-1.8.79-2.68a52.84 52.84 0 0 1 6.16-12.77z" opacity=".41"/><path d="m60.57 78.69c0-.27 0-.53.08-.79s0-.26.06-.39 0-.26.07-.39l.09-.38c0-.13.07-.25.1-.38s.16-.49.24-.74a13.48 13.48 0 0 1 1.48-2.9l.12-.19.13-.17.25-.36.13-.18.13-.18.28-.36c.37-.47.77-1 1.18-1.42s.85-1 1.3-1.42l1.38-1.44 1.41-1.5.72-.77.7-.78c.94-1.05 1.85-2.13 2.72-3.24.44-.55.87-1.12 1.29-1.69l.61-.87c.21-.28.41-.58.6-.88a42.32 42.32 0 0 0 2.21-3.66 33 33 0 0 0 1.79-3.92c.26-.67.49-1.36.7-2s.38-1.4.51-2.11c.09-.41.16-.84.22-1.26h-2.58c-.06.17-.13.33-.2.49-.24.6-.52 1.18-.81 1.75s-.6 1.14-.93 1.69a34.63 34.63 0 0 1 -2.16 3.21c-.77 1-1.59 2-2.45 3l-.65.73-.66.72-.63.69c-.22.24-.45.46-.68.7l-.7.69-.7.69c-.48.45-1 .91-1.43 1.35l-1.49 1.32-1.51 1.34-1.55 1.39c-.52.48-1 1-1.55 1.49l-.39.43-.39.4-.37.41a5.14 5.14 0 0 0 -.38.42c-.5.56-1 1.16-1.46 1.79a22.44 22.44 0 0 0 -1.31 2l-.3.53c0 .09-.1.18-.14.28l-.13.28-.27.56-.13.28-.11.3c-.15.39-.32.78-.43 1.18-.07.2-.13.4-.19.6l-.15.61a6 6 0 0 0 -.14.61c0 .2-.09.4-.12.61-.06.41-.13.82-.17 1.23s-.06.82-.08 1.23v.61s0 .41 0 .61v.61.6.29.3c0 .2 0 .39.07.59a27.46 27.46 0 0 0 1 4.47 49.62 49.62 0 0 0 2.2 5.6 46.77 46.77 0 0 0 6.32-1.84c-.69-2-1.36-3.84-1.86-5.68a19.83 19.83 0 0 1 -.89-6.79z" opacity=".41"/><path d="m49.92 90.65c-.21-.76-.37-1.52-.51-2.3 0-.19-.06-.38-.09-.58s-.06-.39-.08-.58c-.05-.4-.08-.79-.11-1.18a21.16 21.16 0 0 1 0-2.39.39.39 0 0 0 -.76-.13 19.51 19.51 0 0 0 -.75 5 24.14 24.14 0 0 0 .07 2.51c0 .42.08.84.13 1.27s.11.84.18 1.26c0 .15.07.31.09.47 1 0 1.94-.07 2.89-.15-.12-.33-.25-.65-.37-1-.25-.69-.49-1.44-.69-2.2z" opacity=".41"/><path d="m85.5 46.14a.39.39 0 0 0 .47-.29c.11-.52.23-1 .34-1.56h-1.4c.09.52.18 1 .29 1.56a.39.39 0 0 0 .3.29z" opacity=".41"/></g></svg>