<svg id="sunshine" xmlns="http://www.w3.org/2000/svg" viewBox="0 0 368.5 340.16"><defs><style>.cls-1{fill:none;}.cls-2{fill:#118e5d;}.cls-3{fill:#e83d6b;}.cls-4{fill:#ec9690;}.cls-5{fill:#f3ba9d;}.cls-6{fill:#eda5ae;}.cls-7{fill:#e96d90;}</style></defs><g id="cadre"><rect class="cls-1" width="368.5" height="340.16"/></g><path class="cls-2" d="M15.22,153.83a.85.85,0,0,1-.92,0c-.27-.2-.33-.51-.18-1a25.5,25.5,0,0,1,2-4.7A23.49,23.49,0,0,1,19,143.81a2.8,2.8,0,0,1,2.26-1.2,5.56,5.56,0,0,1,2.92,1.73l6.3,5.79A7.36,7.36,0,0,1,32,144a11.5,11.5,0,0,1,1.38-1.68,10.66,10.66,0,0,1,5.33-3.13,7.45,7.45,0,0,1,5.86,1.21c3.51,2.28,5.7,3.77,6.59,4.39a7,7,0,0,0,2.52.36q1.72,0,2,.39l.24.27a.46.46,0,0,1,.08.43.84.84,0,0,1-.26.49q-4.76,4.32-9.26,9c-.38.39-.69.47-.94.23a1.1,1.1,0,0,1-.59-.65,14.36,14.36,0,0,1,0-2.15c.07-1.35-.11-2.22-.55-2.61a50.65,50.65,0,0,0-6.34-4.31,5.4,5.4,0,0,0-2.62-.79,3.22,3.22,0,0,0-2.36,1.27A3.92,3.92,0,0,0,32,148.92a3.35,3.35,0,0,0,.36,2.13,9.12,9.12,0,0,0,1,1.59,6.18,6.18,0,0,0,1,1l-.1.06,3.92,3.58c.49.45,1.44.56,2.85.36s2.19-.2,2.37,0l.26.25a.48.48,0,0,1,.12.43,1,1,0,0,1-.27.55Q39.1,163.71,34.87,169c-.34.43-.65.54-.92.32a1.23,1.23,0,0,1-.68-.55,15,15,0,0,1,0-2.28c0-1.44-.19-2.34-.7-2.67Q26.1,158.39,19.67,153a2,2,0,0,0-1.61-.56,4.09,4.09,0,0,0-1.73.73A6.67,6.67,0,0,1,15.22,153.83Z"/><path class="cls-2" d="M71.94,125a4,4,0,0,1,.69,1.47,7.8,7.8,0,0,1,.23,2.18,10.27,10.27,0,0,1-.44,2.66,11.57,11.57,0,0,1-1.55,3A16.36,16.36,0,0,1,68,137.5l-.33.29-.34.29a17.78,17.78,0,0,1-3.35,2,17.55,17.55,0,0,1-3.8,1.29,9.11,9.11,0,0,1-4.12,0,8.66,8.66,0,0,1-3.85-2,7.71,7.71,0,0,1-2.67-7,13.74,13.74,0,0,1,4.09-8.08,15.74,15.74,0,0,1,2.08-1.9,13.42,13.42,0,0,1,6.49-2.92,8,8,0,0,1,5,.62,1.42,1.42,0,0,1,.69,1.83A11.22,11.22,0,0,1,66,125c-.32.37-2.48,2.94-6.12,7.94a8.1,8.1,0,0,0,4.17.82,7.1,7.1,0,0,0,3.8-1.45,6.69,6.69,0,0,0,2.39-3.08A3.61,3.61,0,0,0,70,126c-.22-.43,0-.84.5-1.23A1,1,0,0,1,71.94,125Zm-16.37-.28a3.19,3.19,0,0,0-.47,3.8,8.46,8.46,0,0,0,3.46,3.68c.41-.64,1.48-2.15,3.26-4.49a2.75,2.75,0,0,0,.6-1.71,1.7,1.7,0,0,0-.65-1.41,7.16,7.16,0,0,0-3-1,3.72,3.72,0,0,0-2.78.74A2.2,2.2,0,0,0,55.57,124.72Z"/><path class="cls-2" d="M84.63,119.23a3.68,3.68,0,0,0,2.54,1.26c1.34.26,2.07.51,2.19.72l.17.31a.48.48,0,0,1,0,.44.81.81,0,0,1-.39.43c-3.61,2.07-7.18,4.27-10.68,6.6q-.64.44-.93,0a1.35,1.35,0,0,1-.49-.74,16.74,16.74,0,0,1,.58-2.11c.42-1.32.44-2.22.06-2.71q-4.53-7.09-9-14.2a2.13,2.13,0,0,0-1.33-1,3.77,3.77,0,0,0-1.77.11,7.54,7.54,0,0,1-1.2.27.83.83,0,0,1-.84-.33.75.75,0,0,1,.08-.94,22.8,22.8,0,0,1,3.09-3.68,20.59,20.59,0,0,1,3.73-3.13,2.58,2.58,0,0,1,2.4-.38A5.86,5.86,0,0,1,75,102.66Q79.83,111,84.63,119.23Z"/><path class="cls-2" d="M99.9,111.14a3.7,3.7,0,0,0,2.4,1.48c1.32.39,2,.7,2.11.92l.15.33a.52.52,0,0,1,0,.43.81.81,0,0,1-.42.39c-3.75,1.72-7.45,3.58-11.1,5.55-.45.25-.76.22-.92-.09a1.27,1.27,0,0,1-.42-.77,14.51,14.51,0,0,1,.75-2c.51-1.27.61-2.17.27-2.68L84.94,99.72a2.07,2.07,0,0,0-1.23-1.16A3.66,3.66,0,0,0,82,98.5a6,6,0,0,1-1.2.15.82.82,0,0,1-.8-.4.74.74,0,0,1,.15-.93A23.11,23.11,0,0,1,83.45,94a20.52,20.52,0,0,1,4-2.75,2.54,2.54,0,0,1,2.4-.17,6.08,6.08,0,0,1,2,2.75Q95.84,102.48,99.9,111.14Z"/><path class="cls-2" d="M111.69,91.31a15.06,15.06,0,0,1,10.18-.5,8.07,8.07,0,0,1,5.57,5.49,8.87,8.87,0,0,1-1.39,7.69,15.15,15.15,0,0,1-7.75,5.58,15.2,15.2,0,0,1-9.52.75,8.73,8.73,0,0,1-6-5,8.08,8.08,0,0,1,.81-7.84A15.35,15.35,0,0,1,111.69,91.31Zm8.08,15.91a3.39,3.39,0,0,0,1.54-3.66,11.54,11.54,0,0,0-2.25-5.27,15,15,0,0,0-4.12-4.05,4.51,4.51,0,0,0-4.06-.63,3.83,3.83,0,0,0-.59.31,3.54,3.54,0,0,0-1.68,3.8,11.1,11.1,0,0,0,2.41,5.21,14.51,14.51,0,0,0,4,4,4.41,4.41,0,0,0,4,.66A3.66,3.66,0,0,0,119.77,107.22Z"/><path class="cls-2" d="M161.71,87.87c.58.18,1,.31,1.15.38s.61.26,1.26.57a6.21,6.21,0,0,1,1.45.91,5.63,5.63,0,0,1,1,1.22,3.37,3.37,0,0,1,.5,1.7,4.32,4.32,0,0,1-1.46,3.46,10.93,10.93,0,0,1-3.94,2.38,27.71,27.71,0,0,1-5.37,1.35,19.42,19.42,0,0,1-7.57,0c-2.07-.5-3.31-1.22-3.7-2.21a2.69,2.69,0,0,1,.17-2.35,4,4,0,0,1,2.08-1.71q.56-.18.84-.24a7,7,0,0,1,2.87.09c1,.23,1.49.56,1.62,1q.15.38-.36,1.11a2.77,2.77,0,0,0-.56,1.27,1.49,1.49,0,0,0,1.09,1.72,6,6,0,0,0,3.12.24,5.09,5.09,0,0,0,2.8-1.14,2,2,0,0,0,.73-2,2.61,2.61,0,0,0-1.57-1.73,12.28,12.28,0,0,0-2.82-1.1c-.16,0-.49-.11-1-.24l-1.74-.45-1.46-.39c-4.28-1-6.58-2.46-6.76-4.66-.05-1.5.87-2.92,2.8-4.2a17.8,17.8,0,0,1,7.34-2.58l1-.13a15.94,15.94,0,0,1,6.77.5c1.55.59,2.38,1.36,2.53,2.28a1.56,1.56,0,0,1-.54,1.48,3.7,3.7,0,0,1-2.1.88,6.7,6.7,0,0,1-.74.12,6.27,6.27,0,0,1-2.5-.19c-.78-.22-1.25-.54-1.4-1,0-.24.15-.52.55-.84a1.3,1.3,0,0,0,.61-.88.68.68,0,0,0-.27-.51,2.59,2.59,0,0,0-1.1-.44,6.38,6.38,0,0,0-2-.06,8.68,8.68,0,0,0-2.71.82,1.53,1.53,0,0,0-1,1.64,1.56,1.56,0,0,0,.79.87,5.3,5.3,0,0,0,1.15.53l1.47.39c.14,0,.71.18,1.7.47s2,.57,3,.88S161.16,87.66,161.71,87.87Z"/><path class="cls-2" d="M196.39,96.47l-.06.88a.5.5,0,0,1-.23.32.78.78,0,0,1-.55.15l-3.47-.2-2-.09a3.59,3.59,0,0,1-2.41-1,5.82,5.82,0,0,1-1.53-2.32c-1,2.41-3.07,3.6-6.31,3.67a10.07,10.07,0,0,1-5.44-1.37,7.29,7.29,0,0,1-3.33-4.65,51.28,51.28,0,0,1-.66-6.8,3.19,3.19,0,0,0-.57-1.41,3.94,3.94,0,0,0-.89-1c-.28-.21-.63-.44-1.06-.71l-.74-.46a1,1,0,0,1-.46-.76.78.78,0,0,1,.4-.76c1.18-.62,3.64-1.09,7.38-1.26,1.64-.07,2.72.15,3.26.64s.8,1.6.81,3.33l.18,8.75a4.35,4.35,0,0,0,1.07,2.35,2.88,2.88,0,0,0,2.4.94,3.18,3.18,0,0,0,1.86-.64,3.36,3.36,0,0,0,1.13-1.56,11.79,11.79,0,0,0,.5-1.81,11.31,11.31,0,0,0,.17-1.78c.05-1.35.1-2.71.16-4.07a3.47,3.47,0,0,0-.21-1.26,3.08,3.08,0,0,0-.61-1,8.62,8.62,0,0,0-.72-.74,5.72,5.72,0,0,0-.8-.62l-.58-.4a1.06,1.06,0,0,1-.43-.8.74.74,0,0,1,.49-.72c1.15-.53,3.62-.81,7.4-.7q2.49.09,3.24.87c.5.52.68,1.65.55,3.41q-.4,4.81-.78,9.63a2,2,0,0,0,.54,1.49,13.57,13.57,0,0,0,1.37,1.48A4.87,4.87,0,0,1,196.39,96.47Z"/><path class="cls-2" d="M200.53,83.76a1,1,0,0,1-.39-.81,1,1,0,0,1,.52-.78,11.06,11.06,0,0,1,4.2-1.21,24.66,24.66,0,0,1,4.73-.42,1.54,1.54,0,0,1,1.3,1,7,7,0,0,1,.54,2.35,5.69,5.69,0,0,1,3.22-2.27,10,10,0,0,1,4.55-.19A9.34,9.34,0,0,1,224.33,84a7.52,7.52,0,0,1,2.09,5.46c0,2.26,0,4.89.07,7.91a7.55,7.55,0,0,0,1,2.25,3.39,3.39,0,0,1,.72,1.86l-.09.35a.5.5,0,0,1-.29.32.73.73,0,0,1-.52.07q-5.82-1.35-11.71-2.33c-.49-.08-.7-.29-.65-.64a1.69,1.69,0,0,1,.19-.86,17,17,0,0,1,1.69-1.19c1.08-.72,1.67-1.37,1.75-2a50.2,50.2,0,0,0,0-7.66,5.15,5.15,0,0,0-.7-2.59,2.86,2.86,0,0,0-2.2-1.2,3.28,3.28,0,0,0-2.21.36A3.24,3.24,0,0,0,212,85.69a15.75,15.75,0,0,0-.67,1.74,5.55,5.55,0,0,0-.27,1.4H211c-.25,1.74-.49,3.48-.74,5.22a3.71,3.71,0,0,0,1.14,2.54c.85,1,1.24,1.68,1.21,1.91l-.06.36c-.06.37-.31.52-.77.45q-6-.89-12-1.38c-.49,0-.73-.23-.7-.57a1,1,0,0,1,.17-.87,2.71,2.71,0,0,1,1-.83,9.89,9.89,0,0,0,1.56-1.22,2,2,0,0,0,.73-1.36c.2-2,.41-4.11.62-6.16a2.42,2.42,0,0,0-.33-1.68,3.15,3.15,0,0,0-1.28-1A5.76,5.76,0,0,1,200.53,83.76Z"/><path class="cls-2" d="M249.28,97.46c.45.41.74.69.88.84s.44.49.9,1a4.75,4.75,0,0,1,1.28,3,3.39,3.39,0,0,1-.28,1.75,4.34,4.34,0,0,1-2.81,2.51,11.22,11.22,0,0,1-4.6.48,29.61,29.61,0,0,1-5.43-1.06,19.27,19.27,0,0,1-6.82-3.25c-1.64-1.33-2.45-2.51-2.39-3.56a2.77,2.77,0,0,1,1.16-2.06,4,4,0,0,1,2.61-.66,6.11,6.11,0,0,1,.86.14,6.84,6.84,0,0,1,2.55,1.29c.75.61,1.1,1.13,1,1.56,0,.27-.28.56-.79.85a2.92,2.92,0,0,0-1.06.91,1.5,1.5,0,0,0,.26,2,5.81,5.81,0,0,0,2.71,1.55,5.32,5.32,0,0,0,3,.16,2,2,0,0,0,1.5-1.47,2.6,2.6,0,0,0-.67-2.23A12.45,12.45,0,0,0,241.12,99c-.14-.1-.41-.31-.8-.64L239,97.26l-1.16-1c-3.44-2.69-4.87-5-4.1-7.07.59-1.39,2-2.28,4.32-2.62a17.72,17.72,0,0,1,7.74.78l.93.29A15.89,15.89,0,0,1,252.6,91c1.15,1.19,1.58,2.24,1.32,3.14a1.54,1.54,0,0,1-1.13,1.1,3.66,3.66,0,0,1-2.27-.1,6.68,6.68,0,0,1-.73-.2,6.44,6.44,0,0,1-2.19-1.24c-.61-.53-.9-1-.86-1.45.07-.23.36-.4.86-.52a1.32,1.32,0,0,0,.93-.54.67.67,0,0,0,0-.58,2.39,2.39,0,0,0-.8-.87,6.85,6.85,0,0,0-1.78-.89,8.53,8.53,0,0,0-2.8-.41,1.3,1.3,0,0,0-1.29,2.16,4.78,4.78,0,0,0,.81,1l1.16,1c.11.08.56.46,1.34,1.14s1.56,1.37,2.35,2.08S248.87,97,249.28,97.46Z"/><path class="cls-2" d="M261.38,86.76a.82.82,0,0,1-.2-.86.74.74,0,0,1,.79-.49,21,21,0,0,1,4.65.34,19.69,19.69,0,0,1,4.59,1.19,2.47,2.47,0,0,1,1.64,1.71,6,6,0,0,1-.8,3.29l-3.57,7.77a6.7,6.7,0,0,1,5.94-.59,11.26,11.26,0,0,1,1.89.74,9.66,9.66,0,0,1,4.26,3.94,7.5,7.5,0,0,1,.48,5.86c-1.12,4-1.89,6.55-2.21,7.59a7,7,0,0,0,.37,2.48,3.36,3.36,0,0,1,.2,2l-.18.32a.55.55,0,0,1-.38.22.8.8,0,0,1-.52-.09q-5.28-3-10.71-5.68c-.45-.22-.6-.48-.45-.79a1.19,1.19,0,0,1,.43-.77,14.75,14.75,0,0,1,1.95-.67c1.25-.38,2-.83,2.23-1.37a55.5,55.5,0,0,0,2.22-7.33,5.65,5.65,0,0,0,0-2.71,2.83,2.83,0,0,0-1.77-1.77,3.43,3.43,0,0,0-4.11.71,9.72,9.72,0,0,0-1.15,1.5,6.56,6.56,0,0,0-.64,1.27l-.08-.08c-.73,1.61-1.47,3.22-2.2,4.84a3.59,3.59,0,0,0,.41,2.77c.54,1.25.74,2,.64,2.19l-.15.33a.53.53,0,0,1-.36.25.8.8,0,0,1-.56-.06q-5.55-2.56-11.22-4.76-.69-.27-.51-.75a1.42,1.42,0,0,1,.32-.82,14.53,14.53,0,0,1,2-.77c1.28-.44,2-1,2.19-1.54q3.18-7.78,6.37-15.57a2.13,2.13,0,0,0,.1-1.68,3.7,3.7,0,0,0-1.07-1.37A5.24,5.24,0,0,1,261.38,86.76Z"/><path class="cls-2" d="M293.32,125.67a3.63,3.63,0,0,0-.07,2.8,4.77,4.77,0,0,1,.26,2.28l-.21.29c-.22.31-.52.32-.91.05q-5.11-3.57-10.42-6.76-.66-.39-.39-.84a1.44,1.44,0,0,1,.46-.75,4.65,4.65,0,0,1,1.31-.26,13.22,13.22,0,0,0,2-.4,1.92,1.92,0,0,0,1.26-.87c1.27-2,2.55-4.06,3.82-6.1a2.34,2.34,0,0,0,.44-1.65,3.16,3.16,0,0,0-.77-1.48,5.15,5.15,0,0,1-.7-.91.94.94,0,0,1,0-.93.83.83,0,0,1,.88-.41,22,22,0,0,1,4.4,1.13,19.62,19.62,0,0,1,4.16,1.89,2.42,2.42,0,0,1,1.28,1.94,6.19,6.19,0,0,1-1.37,3.1Q296,121.72,293.32,125.67Zm8.28-20.88a7.68,7.68,0,0,1,2.85,3,2.7,2.7,0,0,1,0,2.84,2.81,2.81,0,0,1-2.69,1A7.77,7.77,0,0,1,298,110.3a7.69,7.69,0,0,1-2.78-2.91,2.78,2.78,0,0,1-.16-2.85,2.74,2.74,0,0,1,2.65-1.09A7.68,7.68,0,0,1,301.6,104.79Z"/><path class="cls-2" d="M303.9,121.87a.94.94,0,0,1,.09-.9,1,1,0,0,1,.86-.38,11.6,11.6,0,0,1,4.32,1.24,26.63,26.63,0,0,1,4.39,2.23,1.63,1.63,0,0,1,.61,1.6,7.11,7.11,0,0,1-.74,2.3,5.82,5.82,0,0,1,4-.16,11,11,0,0,1,4.12,2.36,10.19,10.19,0,0,1,3.22,5.06,7.47,7.47,0,0,1-1,5.87q-1.79,2.88-4,6.83a7.15,7.15,0,0,0-.3,2.49,3.43,3.43,0,0,1-.33,2l-.26.25a.49.49,0,0,1-.43.11.79.79,0,0,1-.49-.24q-4.47-4.47-9.17-8.6c-.38-.34-.47-.64-.24-.9a1.55,1.55,0,0,1,.62-.63,16,16,0,0,1,2.11-.09c1.33,0,2.18-.23,2.55-.69a46.5,46.5,0,0,0,4-6.56,5,5,0,0,0,.71-2.62,3.09,3.09,0,0,0-1.31-2.25,3.64,3.64,0,0,0-2.15-.92,3.27,3.27,0,0,0-2,.54,14.61,14.61,0,0,0-1.5,1.12,5.79,5.79,0,0,0-1,1l0,0c-1.13,1.35-2.24,2.71-3.36,4.06a3.66,3.66,0,0,0-.31,2.81,4.72,4.72,0,0,1,.07,2.3l-.24.27c-.24.29-.55.27-.92,0q-4.83-4.07-9.89-7.76c-.41-.3-.52-.59-.31-.87a1,1,0,0,1,.6-.65,2.72,2.72,0,0,1,1.27-.19,10.23,10.23,0,0,0,2-.2,2,2,0,0,0,1.34-.77l3.75-4.93a2.36,2.36,0,0,0,.58-1.62,3.4,3.4,0,0,0-.62-1.53A5.17,5.17,0,0,1,303.9,121.87Z"/><path class="cls-2" d="M340.62,168a3.77,3.77,0,0,1-1.44.75,7.54,7.54,0,0,1-2.19.29,9.85,9.85,0,0,1-2.72-.38,11.82,11.82,0,0,1-3.15-1.48,17.08,17.08,0,0,1-3.37-2.85l-.31-.33-.31-.32a18.25,18.25,0,0,1-2.24-3.3,17.51,17.51,0,0,1-1.48-3.76,9.34,9.34,0,0,1-.16-4.12,8.83,8.83,0,0,1,1.8-3.94,7.69,7.69,0,0,1,6.8-3,13.74,13.74,0,0,1,8.29,3.74,18.44,18.44,0,0,1,2,2,14.21,14.21,0,0,1,3.34,6.51,8.26,8.26,0,0,1-.29,5.13,1.39,1.39,0,0,1-1.81.76,11.56,11.56,0,0,1-3.18-1.81c-.39-.31-3.14-2.46-8.35-5.93a8.15,8.15,0,0,0-.59,4.26A7.42,7.42,0,0,0,333,164a7.15,7.15,0,0,0,3.26,2.33,3.54,3.54,0,0,0,3.31-.31c.43-.23.85-.07,1.28.49A1,1,0,0,1,340.62,168Zm-.74-16.7A3.19,3.19,0,0,0,336,151a8.46,8.46,0,0,0-3.5,3.64c.67.39,2.24,1.4,4.7,3.12a2.79,2.79,0,0,0,1.76.56,1.72,1.72,0,0,0,1.38-.71,7.31,7.31,0,0,0,.8-3.11,3.91,3.91,0,0,0-.91-2.79A3.46,3.46,0,0,0,339.88,151.31Z"/><path class="cls-3" d="M6.6,279.16q177.35,4,355,1c0-1.67.57-3.61.54-5.27l-244.88-.48c-37-.08-74-.15-110.83,1.46C6.23,277.05,6.79,278,6.6,279.16Z"/><path class="cls-3" d="M6.6,289.87q177.35,2.5,355,.64c0-1.05.57-2.27.54-3.32l-244.88-.31c-37,0-74-.09-110.83.93C6.23,288.54,6.79,289.14,6.6,289.87Z"/><path class="cls-4" d="M355.21,249.34c2.33,2.24,2.55,6.47,4.63,9.39-4.74,1.65-11.66,1-16.82,1.3q-9,.53-18.08,1-18.07.88-36.17,1.49-36.61,1.2-73.26,1.17-19.38,0-38.76-.51c-28.7-.67-57.38-1.88-86.07-2.79-14.34-.45-28.68-.83-43-1q-10.75-.15-21.51-.15c-6.14,0-13.86,1.28-19.72-.1,1.34-3.15,4.17-9.37,7.6-10.64s9.87,0,13.52.12c10.22.22,20.42.85,30.63,1.07q36.33.56,72.65.77,72.66.43,145.31-.48,20.34-.27,40.68-.63c7.3-.13,14.6-.88,21.89-1.2,4.14-.19,8.31-.42,12.46-.29A5.74,5.74,0,0,1,355.21,249.34Z"/><path class="cls-5" d="M281.58,225.82c16.21.05,32.43.1,48.62-.84,5-.3,14.81-1.59,17.51,3.73l3.45,6.78c-10.79,1.41-21.46,1-32.38,1H264.05l-109.45,0-136.82,0c1.1-2.78,6.08-9.9,8.32-11.86s3.1-.19,6-.16l27.36.28q27.34.26,54.71.43,54.7.36,109.42.51Q252.58,225.75,281.58,225.82Z"/><path class="cls-6" d="M340.58,207.19c-2.49-7.86-5.54-9.3-11.3-15.5-4.34-4.67-13-1.8-18.58-1.63-72.89,2.24-145.52,2.61-218.39,1.13-12.31-.25-24.61-1.06-36.92-1.33-4.32-.09-10.64-1.25-14.48,1.32s-9.06,11-11.51,15.61a1.87,1.87,0,0,0-.3,1.47,1.21,1.21,0,0,0,.74.65c5.26,2.32,14,.63,19.5.63H167.15c56.65,0,113.41,1.64,170.13,2.35l3.44,0C340.74,210,341.12,208.9,340.58,207.19Z"/><path class="cls-7" d="M292.87,159.12c-13.81-.1-27.62,0-41.43.1-27.58.19-55.16.59-82.74.79-31,.24-61.88-.27-92.82-.27-4.93,0-9.74-.84-14.06,1.77A22.35,22.35,0,0,0,59.61,163c-1.91,2.23-3.82,4.41-5.56,6.58l-6.17,7.62a11.59,11.59,0,0,0-.8,2.8c21,4.47,49.67,2.2,71.17,2.47,22.77.29,48.39.18,71.17,0s46.34-.66,69.11-1.23c21.9-.55,43.49-.14,65.41,0C315.12,171.58,306.08,159.22,292.87,159.12Z"/><path class="cls-3" d="M290.75,149.87H75.18c26.58-17.83,58.37-35.28,90.37-36.3,14.8-.47,41.15-.86,55.55,2.59C249.93,123.07,266.93,132.22,290.75,149.87Z"/></svg>