<svg viewBox="0 0 368.5 340.16" xmlns="http://www.w3.org/2000/svg"><path d="m0 0h368.5v340.16h-368.5z" fill="none"/><path d="m103.35 169.12c-16.46-14.72-52-9.79-70.38 1.66-12.77 8-19 13.82-22.3 22.71a49.79 49.79 0 0 0 -5.93 24 54.23 54.23 0 0 0 2.05 13.41c1 13 5.42 25.42 17.25 34.74 13.94 11 31 15.88 49.42 14.14 15.72-1.47 25.22-9.36 31.11-20a60 60 0 0 0 13.19-29c4.01-24.34 5.3-44.02-14.41-61.66z" fill="#201b20"/><path d="m363.37 217.46a49.79 49.79 0 0 0 -5.93-24c-3.33-8.89-9.53-14.73-22.3-22.71-18.35-11.45-53.92-16.38-70.38-1.66-19.71 17.64-18.42 37.32-14.41 61.61a60 60 0 0 0 13.19 29c5.89 10.64 15.39 18.53 31.11 20 18.46 1.74 35.48-3.16 49.42-14.14 11.83-9.32 16.21-21.7 17.25-34.74a54.16 54.16 0 0 0 2.05-13.36z" fill="#201b20"/><path d="m69 205.4a17.54 17.54 0 0 0 -16.29-.18 22.47 22.47 0 0 0 -6.47 4.51 15 15 0 0 0 -3.21 7.15c-2.29 4.64-2.4 10.78-1 15.48 4 13.74 25.26 16.45 34.45 7 10.52-10.74 4.67-27.21-7.48-33.96z" fill="#fff"/><path d="m66.53 212.78a11.72 11.72 0 0 0 -10.85-.12 14.85 14.85 0 0 0 -4.3 3 10 10 0 0 0 -2.15 4.86 15 15 0 0 0 -.67 10.2c2.66 9.14 16.81 10.95 22.92 4.68 6.99-7.17 3.11-18.13-4.95-22.62z" fill="#201b20"/><path d="m324.13 216.88a15 15 0 0 0 -3.21-7.15 22.34 22.34 0 0 0 -6.47-4.51 17.54 17.54 0 0 0 -16.29.18c-12.12 6.75-18 23.22-7.45 34 9.19 9.42 30.45 6.71 34.45-7 1.37-4.74 1.26-10.88-1.03-15.52z" fill="#fff"/><g fill="#201b20"><path d="m318 220.52a10 10 0 0 0 -2.15-4.86 14.85 14.85 0 0 0 -4.3-3 11.7 11.7 0 0 0 -10.84.12c-8.07 4.49-11.95 15.45-5 22.62 6.11 6.27 20.26 4.46 22.92-4.68a15 15 0 0 0 -.63-10.2z"/><path d="m119.57 120.41c0-2.31-.74-9 1.39-10.55 2.5-1.86 2.48 1.94 2.76 3.8.38 2.58.26 14.84-3.09 6.75"/><path d="m157.1 122.12c0-5-.91-11.3 1.06-15.9 3.74 1.75 2.89 16.3-1.06 15.9"/><path d="m180.41 129.91c-1.38-3-.49-8.8.71-11.93l1.71.3c0 2.52 1.06 4.93 1.14 7.46.06 1.53-1.3 7.72-2.85 3.81"/><path d="m198.18 122.93c-.72-4.63-2.1-10-.27-14.48 0 0 1.48-.33 1.69-.35 1.57 3.86 4.34 13.85-.72 16.3a4 4 0 0 1 -.7-1.47"/><path d="m137.53 102.28c-.71-4.63-2.09-10-.26-14.48 0 0 1.47-.33 1.69-.35 1.57 3.86 4.34 13.86-.73 16.3a4.12 4.12 0 0 1 -.7-1.47"/><path d="m212.24 101.5c.12-2.85-2.18-12.73 1.7-13a4.63 4.63 0 0 1 .49 1.35c4.6.65.34 16.86-2.19 12"/><path d="m180 97c.12-2.84-2.19-12.73 1.69-13a4.88 4.88 0 0 1 .5 1.34c4.59.66.33 16.86-2.19 12"/><path d="m226.44 123.23c-.1-3.47-.11-8.41 1.78-11.23 2.37 1.36 2.38 4.7 2.38 7.41 0 1.55.26 4.29-1 5.59s-2.87 1.75-2.84-1.07"/><path d="m207.23 256.6c-4.21-1.73-10.51-1.1-14.9-.75a43.43 43.43 0 0 1 -12.15-.65 25.76 25.76 0 0 0 -15.72 2.47c-5.22 2.77-5.53 6.94-4.68 11.17 1.65 8.15 12.45 12.94 23.22 12.84a1.93 1.93 0 0 0 0 .24 65.69 65.69 0 0 1 .49 7.79c0 1.32.08 2.69.16 4.09l-.15.28c-1.18 2.72-2.52 5.79-4.71 7.7-1.71 1.49-4.54 2.3-6.31 1.07a2.52 2.52 0 1 0 -2.88 4.14c4 2.77 9.3 1.39 12.5-1.41a18 18 0 0 0 3.71-4.69 19.52 19.52 0 0 0 3.78 4.59 13.91 13.91 0 0 0 9 3.54 10.78 10.78 0 0 0 2.67-.32 2.52 2.52 0 1 0 -1.23-4.89 8.2 8.2 0 0 1 -7.14-2.13 17.07 17.07 0 0 1 -4.17-6.1 2.14 2.14 0 0 0 0-.62c-.15-1.81-.19-3.54-.23-5.37a73 73 0 0 0 -.52-8.15c6.95-.51 17.85-3.42 21.54-7.73 4.14-4.78 5.42-13.96-2.28-17.11z"/></g></svg>