<?xml version="1.0" encoding="utf-8"?>
<!-- Generator: Adobe Illustrator 24.2.0, SVG Export Plug-In . SVG Version: 6.00 Build 0)  -->
<svg version="1.1" id="lapin" xmlns="http://www.w3.org/2000/svg" xmlns:xlink="http://www.w3.org/1999/xlink" x="0px" y="0px"
	 viewBox="0 0 368.5 340.2" style="enable-background:new 0 0 368.5 340.2;" xml:space="preserve">
<style type="text/css">
	.st0{fill:#C4884B;}
	.st1{fill:#F0EBE1;}
	.st2{fill:#F5DDCC;}
	.st3{fill:#2E2921;}
	.st4{fill:#FBF4F8;}
	.st5{fill:#B08F5F;}
	.st6{fill:#F18E1B;}
	.st7{fill:#7C9873;}
	.st8{fill:#C4884A;}
	.st9{fill:#FFFFFF;}
	.st10{fill:#8E623A;}
	.st11{fill:none;}
</style>
<g>
	<path class="st0" d="M174.3,245.4c-2.2,0.4-4.6,0.8-6.6,1.9c-2.5,1.3-2.1,2.2-2.1,4.9c0.1,4.8,0.4,9.9-1.1,14.6
		c-1.9,5.8-4.2,11.4-4.6,17.5c-0.5,7.8,0.7,15.9,4.3,22.9c2.7,5.3,6.7,9.9,10.6,14.5c0.9,1,1.8,2,3,2.6c1.1,0.5,2.3,0.6,3.5,0.7
		c3.6,0.3,7.2,0.6,10.7,1c1.7,0.2,3.5,0.3,5.2,0.1c2.6-0.4,4.9-1.7,7-3.2c6.5-5,10-12.9,12.9-20.6c1.3-3.6,2.6-7.3,3.1-11.2
		c1.4-10.9-3.4-21.7-9.2-31c-1.9-3.1-4-6.2-5.1-9.6c-0.5-1.5-0.9-3.2-1.9-4.4c-1.5-1.8-3.9-2.3-6.2-2.6
		C189.9,242.4,182.1,243.9,174.3,245.4z"/>
	<path class="st1" d="M171.1,276.4c-2.9,6.6-3,14-3,21.2c0.1,7.4,0.6,15.4,5.4,20.9c0.9,1,1.9,1.9,3.2,2.4c1.1,0.4,2.2,0.6,3.3,0.7
		c6.1,0.7,12.7,1.2,18-1.9c5.4-3.2,8.2-9.3,10.2-15.3c1.7-5,3.1-10.5,1.4-15.5c-1-3-3-5.5-4.9-8c-3.8-4.8-7.6-9.6-11.4-14.4
		c-2.9-3.7-7.5-7.2-11.9-3.8C177.2,266,173.2,271.5,171.1,276.4z"/>
	<g>
		<g>
			<g>
				<path class="st0" d="M237.9,132.2c10.5-17.3,18.1-28.9,20.7-47.7c0.5-3.5,0.9-7.1,0.5-10.6c-0.4-3.5-1.8-7-4.3-9.5
					c-1.8-1.7-4.2-2.8-6.4-3.9c-1.2-0.6-2.5-1.1-3.8-1.3c-1.9-0.2-3.7,0.5-5.5,1.2c-6.3,2.7-12.2,6.7-16.3,12.1
					c-3.1,4.1-5.1,8.8-6.8,13.7c-2.3,6.7-3.9,13.6-5.2,20.5c-2.3,12.3-3.4,24.7-5.3,37c-0.4,2.6-0.5,5.6-1.8,8
					c-0.2,0.4-0.5,0.7-0.8,1.1c-1,0-2,0-3-0.1c-5.3-2.1-11-3.2-16.6-3c-5.1,0.1-10.1,1.2-14.9,3.1c-0.7,0.3-1.9,0.7-3,1.2
					c-0.2,0-0.4,0-0.6,0.1c-4.2-10.9-7.3-22.4-9.1-34.1c-1.2-7.7-1.9-15.4-3.5-23c-1.5-7.6-3.9-15.1-8.1-21.4
					c-4.2-6.2-10.5-11.1-17.5-12.1c-2.3-0.3-4.6-0.2-6.7,0.7c-2.6,1.1-4.6,3.2-6.5,5.4c-2,2.3-3.8,4.9-4.8,7.9
					c-0.9,2.8-1,5.9-0.8,8.9c0.6,12.2,4.5,24.1,10,34.8s12.4,20.4,19.5,29.9c2.3,3.1,4.7,6.3,6.4,9.9c0.7,1.4,1.2,2.7,1.6,4.2
					c-1.4,16-8.8,31.2-10.8,47.3c-0.2,2-0.4,4-0.4,5.9c2,0.4,4,0.8,6,1.2c0.1-0.1,0.2-0.2,0.3-0.2c0.3-0.1,0.6,0.1,0.7,0.4
					c0.1,0.2,0,0.5-0.2,0.7c-0.2,0.2-0.5,0.3-0.8,0.3c-0.1,0-0.2,0-0.2,0c-1.9-0.4-3.9-0.8-5.8-1.1c0.1,1,0.2,2.1,0.3,3.1
					c0.2,1,0.4,1.9,0.7,2.8c1.4-0.2,2.9-0.4,4.3-0.6c0.3,0,0.6,0.2,0.6,0.5c0.1,0.3-0.2,0.6-0.5,0.6c-1.4,0.2-2.7,0.4-4.1,0.6
					c0.5,1.5,1.2,2.9,2,4.2c0.2-0.2,0.5-0.3,0.7-0.5c0.2-0.2,0.6-0.1,0.8,0.1c0.2,0.2,0.1,0.6-0.1,0.8c-0.3,0.2-0.5,0.4-0.8,0.6
					c0.4,0.7,0.8,1.3,1.3,1.9c6.1,8.4,16.7,12.8,26.9,15c0.3,0.1,0.5,0.1,0.8,0.2c11.5,2.4,26.8,1.9,38.1-1.4c0.2,0,0.3-0.1,0.5-0.1
					c10.1-3,20.7-8,26.3-16.8c0.4-0.6,0.7-1.1,1-1.7c-0.8-0.5-1.6-1-2.4-1.5c-0.3-0.2-0.3-0.5-0.2-0.8c0.2-0.3,0.5-0.3,0.8-0.2
					c0.8,0.5,1.5,1,2.3,1.5c0.8-1.5,1.4-3.1,1.9-4.8c-1.1-0.1-2.2-0.2-3.3-0.3c-0.3,0-0.5-0.3-0.5-0.6c0-0.3,0.3-0.5,0.6-0.5
					c1.2,0.1,2.3,0.2,3.5,0.3c0.2-0.9,0.4-1.8,0.5-2.8c0.1-1,0.1-1.9,0.1-2.9c-1.6,0.4-3.3,0.9-4.9,1.3c-0.1,0-0.2,0-0.3,0
					c-0.2,0-0.5-0.1-0.7-0.2c-0.2-0.2-0.3-0.4-0.2-0.7c0.1-0.3,0.4-0.5,0.7-0.4c0.1,0,0.2,0.1,0.3,0.2c1.7-0.4,3.4-0.9,5.1-1.4
					c-0.1-2-0.4-4.1-0.8-6.1c-3.7-18.8-20.3-40.8-8.4-59.4C230,144.7,234.9,137.1,237.9,132.2z M141.5,149.4
					c-4.2-7-8.5-14.1-12.7-21.1c-2.8-4.7-5.7-9.5-7.4-14.8c-1.7-5.3-2-11.2,0.2-16.3c0.4-0.9,0.9-1.8,1.6-2.4c1.4-1.1,3.4-0.9,5-0.3
					c5.2,1.9,8.3,7.2,10.6,12.3c6.9,15.1,10.1,32,9.4,48.7l-0.9,3.1C146.3,155.4,143.3,152.4,141.5,149.4z M148.5,228
					c-0.1,0.3-0.3,0.7-0.7,0.9c-0.9,0.7-2.4,0.3-3-0.5c-0.6-0.9-0.3-2,0.5-2.8l-0.5,0.5c0.3-0.9,1.9-1.3,2.9-0.7
					C148.6,225.9,148.8,227,148.5,228z M148.6,219.7c-0.1,0.3-0.3,0.7-0.7,0.9c-0.9,0.7-2.4,0.3-3-0.5c-0.6-0.9-0.3-2,0.5-2.8
					l-0.5,0.5c0.3-0.9,1.9-1.3,2.9-0.7C148.6,217.6,148.9,218.7,148.6,219.7z M155.1,225.6c-0.1,0.3-0.3,0.7-0.7,0.9
					c-0.9,0.7-2.4,0.3-3-0.5c-0.6-0.9-0.3-2,0.5-2.8l-0.5,0.5c0.3-0.9,1.9-1.3,2.9-0.7C155.2,223.5,155.5,224.7,155.1,225.6z
					 M165.7,208.1c-0.4,0.1-0.9-0.2-0.9-0.7c-0.4-2.5-2.1-4.8-4.4-5.9c-2.3-1.1-5.2-0.9-7.3,0.4c-2.2,1.3-3.6,3.8-3.7,6.3
					c0,0.3-0.1,0.5-0.4,0.7c-0.1,0.1-0.3,0.1-0.4,0.1c-0.1,0-0.2,0-0.3-0.1c-0.3-0.1-0.5-0.4-0.6-0.7c0-0.1,0-0.2,0-0.3
					c-0.1,0-0.2,0.1-0.2,0.1c-0.1,0-0.3,0-0.4-0.1l-3.6-1.9c-0.4-0.2-0.6-0.7-0.3-1.1c0.2-0.4,0.7-0.6,1.1-0.3l3.6,1.9
					c0.1,0,0.2,0.1,0.2,0.2c0.3-1.6,1-3.1,2.1-4.3c-0.1,0-0.1,0-0.2,0c-0.2,0-0.5-0.1-0.6-0.3l-2.5-3.2c-0.3-0.4-0.2-0.9,0.1-1.1
					c0.4-0.3,0.9-0.2,1.1,0.1l2.5,3.2c0.1,0.2,0.2,0.4,0.2,0.6c0.5-0.5,1-0.9,1.6-1.2c0.5-0.3,1.1-0.6,1.6-0.8
					c0-0.1-0.1-0.1-0.1-0.2l-0.3-2.8c0-0.4,0.3-0.8,0.7-0.9c0.4,0,0.8,0.3,0.9,0.7l0.3,2.8c1.9-0.3,3.9-0.1,5.7,0.7
					c2.8,1.3,4.8,4.1,5.3,7.2C166.4,207.7,166.1,208.1,165.7,208.1z M176.8,176.5c0,0.1,0,0.2-0.1,0.2c-0.1,0.1-0.1,0.1-0.2,0.1
					c-0.3,0.1-0.7,0.2-1,0.2c0.2-0.2,0.4-0.3,0.5-0.5l-0.4,0.2c0-0.9,0-1.8,0-2.6c0-0.1,0-0.1,0.2-0.2c0.4,0,0.7-0.1,1.1-0.1
					C176.8,174.7,176.8,175.6,176.8,176.5z M178.5,170.2c-0.1,0.4-0.6,0.6-1.1,0.7c-0.1,0-0.3,0.1-0.4,0c-0.1-0.1-0.1-0.2-0.1-0.3
					c0-0.4-0.1-0.9-0.1-1.3l-0.1,0.5c0-0.9,0-1.8-0.1-2.8c0.6,0,1.2-0.1,1.8-0.2c0,0.9,0,1.9,0,2.8
					C178.6,169.9,178.6,170,178.5,170.2z M182.3,179.3c-0.5,0-1,0-1.6,0c-0.1,0-0.1,0-0.2,0c0,0,0,0,0,0v-0.1c0,0,0,0,0,0
					c-0.1,0-0.1-0.1,0-0.1l0,0.2c0,0,0,0,0,0c0.2-0.7,0.3-1.5,0.2-2.2c0.5,0,1,0,1.5-0.2C182.4,177.7,182.4,178.5,182.3,179.3z
					 M182.3,174.3c0,0.1,0,0.1-0.1,0.2c-0.1,0.1-0.1,0.1-0.2,0.1c-0.5,0-0.9,0-1.4,0l0.4-0.4c0.2-0.6,0.2-1.3,0.2-1.9
					c0.4,0,0.8,0.1,1.2,0.1C182.3,172.9,182.3,173.6,182.3,174.3z M183.9,168.1c-0.5-0.3-0.4-1.2-0.4-1.7c0-0.4-0.1-1,0.2-1.3
					c0.1-0.1,1.5-0.4,1.5-0.5C185.3,165.2,185.8,169.5,183.9,168.1z M186.7,181.6c-0.5,0-1,0-1.6,0c-0.1,0-0.1,0-0.2,0c0,0,0,0,0,0
					v-0.1c0,0,0,0,0,0c-0.1,0-0.1-0.1,0-0.1l0,0.2c0,0,0,0,0,0c0.2-0.7,0.3-1.5,0.2-2.2c0.5,0,1,0,1.5-0.2
					C186.8,180,186.9,180.8,186.7,181.6z M186.8,174.1c0,0.1,0,0.1-0.1,0.2c-0.1,0-0.1,0.1-0.2,0.1c-0.5,0-0.9,0-1.4,0l0.4-0.4
					c0.2-0.6,0.2-1.2,0.2-1.9c0.4,0,0.8,0.1,1.2,0.1C186.9,172.8,186.8,173.4,186.8,174.1z M189.1,170.3c-0.1-0.2,0.5-2.9,0.5-2.9
					c0.5-0.1,1.1-0.2,1.3,0.2c0.1,0.1,0.1,0.3,0.1,0.4c0.1,0.8,0.1,1.6,0.1,2.3C191.2,171,189.4,171,189.1,170.3z M191.4,175.2
					c-0.5,0-1,0-1.5,0c-0.1,0-0.1,0-0.2,0c0,0,0,0,0,0v0c0,0,0,0,0,0c-0.1,0-0.1-0.1,0-0.1v0.1c0,0,0,0,0,0c0.2-0.7,0.3-1.5,0.2-2.2
					c0.5,0,1,0,1.5-0.2C191.5,173.6,191.5,174.4,191.4,175.2z M221,223.6c-0.5,0.9-2,1.3-3,0.7c-0.3-0.2-0.6-0.5-0.7-0.9
					c-0.4-0.9-0.2-2.1,0.7-2.7c0.9-0.6,2.5-0.4,2.9,0.5l-0.6-0.5C221.1,221.6,221.5,222.7,221,223.6z M227.6,223.2l-0.6-0.5
					c0.8,0.7,1.2,1.8,0.7,2.8c-0.5,0.9-2,1.3-3,0.7c-0.3-0.2-0.6-0.5-0.7-0.9c-0.4-0.9-0.2-2.1,0.7-2.7
					C225.6,222.1,227.2,222.3,227.6,223.2z M227,215l-0.6-0.5c0.8,0.7,1.2,1.8,0.7,2.8c-0.5,0.9-2,1.3-3,0.7
					c-0.3-0.2-0.6-0.5-0.7-0.9c-0.4-0.9-0.2-2.1,0.7-2.7C225,213.8,226.6,214,227,215z M224.3,202.8c0.4-0.2,0.9-0.1,1.1,0.3
					c0.2,0.4,0.1,0.9-0.3,1.1l-3.5,2.1c-0.1,0.1-0.3,0.1-0.4,0.1c-0.1,0-0.1,0-0.2,0c0,0.1,0,0.2,0,0.3c-0.1,0.3-0.3,0.6-0.6,0.7
					c-0.2,0.1-0.5,0.1-0.8,0c-0.2-0.1-0.4-0.4-0.4-0.6c-0.3-2.5-1.9-4.9-4.1-6.1c-2.2-1.2-5.1-1.1-7.3,0.1c-2.2,1.2-3.8,3.7-3.9,6.2
					c0,0.4-0.4,0.8-0.8,0.8c0,0,0,0-0.1,0c-0.4,0-0.8-0.4-0.7-0.9c0.2-3.1,2-6,4.8-7.5c1.7-1,3.7-1.3,5.6-1.1l0.1-2.8
					c0-0.4,0.4-0.8,0.8-0.8c0.4,0,0.8,0.4,0.8,0.8l-0.1,2.9c0,0.1,0,0.1,0,0.2c0.6,0.2,1.2,0.4,1.7,0.7c0.6,0.3,1.1,0.7,1.7,1.1
					c0-0.2,0-0.4,0.1-0.6l2.3-3.4c0.2-0.4,0.8-0.5,1.1-0.2c0.4,0.2,0.5,0.8,0.2,1.1l-2.3,3.4c-0.2,0.2-0.4,0.4-0.7,0.4
					c0,0-0.1,0-0.1,0c1.1,1.2,2,2.6,2.4,4.2c0.1-0.1,0.1-0.1,0.2-0.2L224.3,202.8z M219.4,159.9c-0.2-4.8-0.9-13.2-0.1-18.8
					c-0.1-16.2,3.6-32.4,13.4-45.1c1.9-2.4,4.3-4.8,7.3-4.9c3.5-0.1,6.4,3.3,6.9,6.8c0.5,3.5-0.7,7-2.2,10.2
					c-5.6,12.6-14,23.8-20.6,35.9C221.5,148.9,219,154.3,219.4,159.9z"/>
				<path class="st2" d="M148.2,155.6c0.7-16.7-2.5-33.5-9.4-48.7c-2.3-5.1-5.5-10.4-10.6-12.3c-1.7-0.6-3.6-0.8-5,0.3
					c-0.7,0.6-1.2,1.5-1.6,2.4c-2.2,5.1-1.8,11-0.2,16.3c1.7,5.3,4.5,10.1,7.4,14.8c4.2,7,8.5,14.1,12.7,21.1c1.8,3,4.8,6,5.8,9.3
					L148.2,155.6z"/>
				<path class="st2" d="M246.9,97.9c-0.5-3.5-3.3-6.9-6.9-6.8c-3,0.1-5.5,2.5-7.3,4.9c-9.8,12.7-13.5,28.9-13.4,45.1
					c-0.8,5.6-0.1,14,0.1,18.8c-0.4-5.6,2-11,4.7-15.9c6.6-12.1,15-23.3,20.6-35.9C246.2,104.9,247.4,101.4,246.9,97.9z"/>
				<path class="st1" d="M176.7,167.1c0,0.9,0.1,1.8,0.1,2.8l0.1-0.5c0,0.4,0.1,0.9,0.1,1.3c0,0.1,0,0.2,0.1,0.3
					c0.1,0.1,0.2,0.1,0.4,0c0.4-0.1,0.9-0.3,1.1-0.7c0-0.1,0-0.3,0-0.4c0-0.9,0-1.9,0-2.8C177.9,167,177.3,167.1,176.7,167.1z"/>
				<path class="st1" d="M175.5,174.1c0,0.9,0,1.8,0,2.6l0.4-0.2c-0.2,0.2-0.4,0.3-0.5,0.5c0.4,0,0.7-0.1,1-0.2
					c0.1,0,0.2-0.1,0.2-0.1c0.1-0.1,0.1-0.2,0.1-0.2c0-0.9,0-1.8,0-2.7c-0.4,0-0.7,0.1-1.1,0.1C175.5,174,175.5,174,175.5,174.1z"/>
				<path class="st1" d="M185.2,164.7c0,0.1-1.4,0.4-1.5,0.5c-0.3,0.3-0.2,1-0.2,1.3c0,0.5-0.1,1.4,0.4,1.7
					C185.8,169.5,185.3,165.2,185.2,164.7z"/>
				<path class="st1" d="M191.2,170.3c0-0.8,0-1.6-0.1-2.3c0-0.1,0-0.3-0.1-0.4c-0.2-0.4-0.8-0.3-1.3-0.2c0,0-0.6,2.7-0.5,2.9
					C189.4,171,191.2,171,191.2,170.3z"/>
				<path class="st1" d="M185.5,173.9l-0.4,0.4c0.5,0,0.9,0,1.4,0c0.1,0,0.2,0,0.2-0.1c0,0,0.1-0.1,0.1-0.2c0-0.7,0.1-1.3,0.1-2
					c-0.4,0-0.8-0.1-1.2-0.1C185.7,172.7,185.7,173.3,185.5,173.9z"/>
				<path class="st1" d="M180.9,174.1l-0.4,0.4c0.5,0,0.9,0,1.4,0c0.1,0,0.2,0,0.2-0.1c0.1,0,0.1-0.1,0.1-0.2c0-0.7,0.1-1.3,0.1-2
					c-0.4,0-0.8-0.1-1.2-0.1C181.2,172.8,181.1,173.5,180.9,174.1z"/>
				<path class="st1" d="M180.5,179.3C180.5,179.3,180.5,179.3,180.5,179.3l0-0.1C180.4,179.2,180.4,179.3,180.5,179.3z"/>
				<path class="st1" d="M180.5,179.4C180.5,179.4,180.5,179.3,180.5,179.4C180.5,179.3,180.5,179.3,180.5,179.4L180.5,179.4z"/>
				<path class="st1" d="M180.7,177.1c0.1,0.7,0,1.5-0.2,2.2c0.1,0,0.1,0,0.2,0c0.5,0,1,0,1.6,0c0.1-0.8,0.1-1.7,0-2.5
					C181.8,177,181.2,177.1,180.7,177.1z"/>
				<path class="st1" d="M185,181.6C185,181.6,185,181.6,185,181.6l0-0.1C184.9,181.5,184.9,181.6,185,181.6z"/>
				<path class="st1" d="M185,181.7C185,181.7,185,181.7,185,181.7C185,181.6,185,181.6,185,181.7L185,181.7z"/>
				<path class="st1" d="M185.2,179.4c0.1,0.7,0,1.5-0.2,2.2c0.1,0,0.1,0,0.2,0c0.5,0,1,0,1.6,0c0.1-0.8,0.1-1.7,0-2.5
					C186.2,179.4,185.7,179.4,185.2,179.4z"/>
				<path class="st1" d="M189.9,173c0.1,0.7,0,1.5-0.2,2.2c0.1,0,0.1,0,0.2,0c0.5,0,1,0,1.5,0c0.1-0.8,0.1-1.6,0-2.4
					C190.9,172.9,190.4,173,189.9,173z"/>
				<path class="st1" d="M189.7,175.2C189.7,175.2,189.7,175.2,189.7,175.2l0-0.1C189.6,175,189.6,175.1,189.7,175.2z"/>
				<path class="st1" d="M189.7,175.2C189.7,175.2,189.7,175.2,189.7,175.2C189.7,175.2,189.7,175.2,189.7,175.2L189.7,175.2z"/>
				<path class="st1" d="M180,238.4c0-0.9,0-1.8-0.1-2.7l-0.1-0.5c-0.3,0.1-0.7,0.1-1,0.1c-0.2,0-0.4,0-0.6,0
					c-0.4,0-0.6-0.4-0.6-0.8c0-0.4,0.4-0.6,0.8-0.6c1.6,0.2,3.2-0.6,4-1.9c-0.2-0.4-0.4-0.9-0.6-1.4c-0.5-2.4-0.1-5.4,0.3-8.3
					c0.1-1,0.3-2,0.3-2.9c0,0-0.1,0-0.1,0c-1.5,0-2.9-0.6-4.3-1.2c-1-0.5-2-0.9-3-1.1c0,0.1,0.1,0.1,0.1,0.1c0.3,0.3,0.2,0.7,0,1
					c-0.3,0.3-0.7,0.2-1,0c-0.2-0.2-0.5-0.5-0.6-1c-0.1-0.4,0-0.8,0.3-1.1c0.2-0.2,0.4-0.4,0.7-0.4c1.5,0.1,2.8,0.7,4,1.2
					c1.4,0.6,2.7,1.2,4,1.1c2-0.2,3.7-1.9,5.2-3.6c0.2-0.3,0.7-0.3,1-0.1s0.3,0.7,0.1,1c-1.5,1.7-3,3.3-5.1,3.9
					c-0.1,1-0.2,2.1-0.4,3.3c-0.4,2.8-0.8,5.7-0.3,7.9c0.1,0.3,0.2,0.6,0.3,0.9c0,0,0.1,0,0.1,0c0.3,0.1,0.4,0.4,0.4,0.7
					c1.3,1.6,3.8,2.4,5.9,2.8c0.5,0.1,1.2,0.2,1.7,0c1.2-0.3,1.9-1.7,2.5-3c0.2-0.3,0.6-0.5,0.9-0.3c0.3,0.2,0.5,0.5,0.3,0.9
					c-0.5,1.1-1.4,3.3-3.4,3.8c-0.3,0.1-0.7,0.1-1,0.1c-0.4,0-0.8-0.1-1.2-0.1c0.3,0.4,0.6,0.9,0.8,1.5c0.4,1.3,0.4,2.8,0.4,4.3
					c0.9-0.2,1.9-0.5,2.7-0.9c3.8-1.7,7-5,8-9.1c0.6-2.5,0.4-5.2,0.1-7.8c-0.6-4.8-1.7-10-5.1-13.4c-2.5-2.6-6-3.9-9.5-4.5
					c-3.7-0.6-7.6-0.3-11.1,1c-3.5,1.3-6.6,3.8-8.4,7.1c-1.4,2.6-2.1,5.5-2.3,8.4c-0.3,4.5,0.4,9.3,3.2,12.7
					c2.7,3.3,7.2,5.5,11.9,6.5c0-0.2,0-0.5,0.1-0.7C180.1,240.3,180,239.3,180,238.4z"/>
				<path class="st1" d="M183.3,233.1c-0.1,0.1-0.2,0.3-0.3,0.4c0,0.4,0.1,0.7,0.1,1.1c0.2-0.2,0.4-0.3,0.7-0.5c0-0.2,0-0.4,0-0.5
					C183.6,233.4,183.5,233.2,183.3,233.1z"/>
				<path class="st3" d="M220.6,205.1c-0.4-1.6-1.2-3-2.4-4.2c0,0,0.1,0,0.1,0c0.3,0,0.5-0.1,0.7-0.4l2.3-3.4
					c0.2-0.4,0.1-0.9-0.2-1.1c-0.4-0.2-0.9-0.1-1.1,0.2l-2.3,3.4c-0.1,0.2-0.2,0.4-0.1,0.6c-0.5-0.4-1.1-0.8-1.7-1.1
					c-0.5-0.3-1.1-0.5-1.7-0.7c0-0.1,0-0.1,0-0.2l0.1-2.9c0-0.4-0.3-0.8-0.8-0.8c-0.4,0-0.8,0.3-0.8,0.8l-0.1,2.8
					c-1.9-0.2-3.9,0.2-5.6,1.1c-2.7,1.5-4.5,4.4-4.8,7.5c0,0.4,0.3,0.8,0.7,0.9c0,0,0,0,0.1,0c0.4,0,0.8-0.3,0.8-0.8
					c0.2-2.5,1.7-5,3.9-6.2c2.2-1.2,5.1-1.3,7.3-0.1c2.2,1.2,3.9,3.6,4.1,6.1c0,0.3,0.2,0.5,0.4,0.6c0.2,0.1,0.5,0.1,0.8,0
					c0.3-0.1,0.5-0.4,0.6-0.7c0-0.1,0-0.2,0-0.3c0.1,0,0.1,0,0.2,0c0.1,0,0.3,0,0.4-0.1l3.5-2.1c0.4-0.2,0.5-0.7,0.3-1.1
					c-0.2-0.4-0.7-0.5-1.1-0.3l-3.5,2.1C220.7,205,220.7,205,220.6,205.1z"/>
				<path class="st3" d="M161.1,200.1c-1.8-0.8-3.8-1.1-5.7-0.7l-0.3-2.8c0-0.4-0.5-0.8-0.9-0.7c-0.4,0-0.8,0.4-0.7,0.9l0.3,2.8
					c0,0.1,0,0.1,0.1,0.2c-0.6,0.2-1.1,0.5-1.6,0.8c-0.6,0.4-1.1,0.8-1.6,1.2c0-0.2,0-0.4-0.2-0.6l-2.5-3.2
					c-0.3-0.4-0.8-0.4-1.1-0.1c-0.4,0.3-0.4,0.8-0.1,1.1l2.5,3.2c0.2,0.2,0.4,0.3,0.6,0.3c0.1,0,0.1,0,0.2,0
					c-1.1,1.2-1.8,2.7-2.1,4.3c-0.1-0.1-0.1-0.1-0.2-0.2l-3.6-1.9c-0.4-0.2-0.9-0.1-1.1,0.3c-0.2,0.4-0.1,0.9,0.3,1.1l3.6,1.9
					c0.1,0.1,0.2,0.1,0.4,0.1c0.1,0,0.2,0,0.2-0.1c0,0.1,0,0.2,0,0.3c0.1,0.3,0.3,0.5,0.6,0.7c0.1,0,0.2,0.1,0.3,0.1
					c0.2,0,0.3,0,0.4-0.1c0.2-0.1,0.4-0.4,0.4-0.7c0.1-2.5,1.5-5,3.7-6.3c2.2-1.3,5-1.5,7.3-0.4c2.3,1.1,4,3.4,4.4,5.9
					c0.1,0.4,0.5,0.7,0.9,0.7c0.4-0.1,0.8-0.5,0.7-0.9C165.9,204.1,163.9,201.4,161.1,200.1z"/>
				<path class="st4" d="M154.2,223c-1-0.5-2.5-0.2-2.9,0.7l0.5-0.5c-0.8,0.8-1.1,1.9-0.5,2.8c0.6,0.9,2.1,1.2,3,0.5
					c0.3-0.2,0.5-0.6,0.7-0.9C155.5,224.7,155.2,223.5,154.2,223z"/>
				<path class="st4" d="M147.7,217c-1-0.5-2.5-0.2-2.9,0.7l0.5-0.5c-0.8,0.8-1.1,1.9-0.5,2.8c0.6,0.9,2.1,1.2,3,0.5
					c0.3-0.2,0.5-0.6,0.7-0.9C148.9,218.7,148.6,217.6,147.7,217z"/>
				<path class="st4" d="M147.6,225.3c-1-0.5-2.5-0.2-2.9,0.7l0.5-0.5c-0.8,0.8-1.1,1.9-0.5,2.8c0.6,0.9,2.1,1.2,3,0.5
					c0.3-0.2,0.5-0.6,0.7-0.9C148.8,227,148.6,225.9,147.6,225.3z"/>
				<path class="st2" d="M140,220.7c0.3,0,0.6-0.1,0.8-0.3c0.2-0.2,0.2-0.4,0.2-0.7c-0.1-0.3-0.4-0.5-0.7-0.4
					c-0.1,0-0.2,0.1-0.3,0.2c-2-0.4-4-0.8-6-1.2c-3.2-0.6-6.4-1.3-9.6-2c-0.3-0.1-0.6,0.1-0.7,0.4c-0.1,0.3,0.1,0.6,0.4,0.7
					c3.3,0.7,6.6,1.4,9.9,2.1c1.9,0.4,3.9,0.8,5.8,1.1C139.9,220.7,139.9,220.7,140,220.7z"/>
				<path class="st2" d="M139.9,225.3c0-0.3-0.3-0.5-0.6-0.5c-1.4,0.2-2.9,0.4-4.3,0.6c-4.1,0.6-8.2,1.2-12.3,1.6
					c-0.3,0-0.5,0.3-0.5,0.6c0,0.3,0.3,0.5,0.5,0.5c0,0,0,0,0.1,0c4.2-0.5,8.4-1,12.6-1.7c1.4-0.2,2.7-0.4,4.1-0.6
					C139.8,225.9,140,225.6,139.9,225.3z"/>
				<path class="st2" d="M138.8,230.4c-0.2-0.2-0.5-0.3-0.8-0.1c-0.2,0.2-0.5,0.3-0.7,0.5c-3.7,2.7-7.6,5.3-11.6,7.5
					c-0.3,0.1-0.4,0.5-0.2,0.8c0.1,0.2,0.3,0.3,0.5,0.3c0.1,0,0.2,0,0.3-0.1c4-2.3,7.9-4.8,11.6-7.6c0.3-0.2,0.5-0.4,0.8-0.6
					C139,230.9,139,230.6,138.8,230.4z"/>
				<path class="st4" d="M220.3,220.9l0.6,0.5c-0.4-0.9-2-1.2-2.9-0.5c-0.9,0.6-1.1,1.8-0.7,2.7c0.2,0.3,0.4,0.7,0.7,0.9
					c0.9,0.6,2.5,0.2,3-0.7C221.5,222.7,221.1,221.6,220.3,220.9z"/>
				<path class="st4" d="M224.1,214.4c-0.9,0.6-1.1,1.8-0.7,2.7c0.2,0.3,0.4,0.7,0.7,0.9c0.9,0.6,2.5,0.2,3-0.7
					c0.5-0.9,0.2-2.1-0.7-2.8l0.6,0.5C226.6,214,225,213.8,224.1,214.4z"/>
				<path class="st4" d="M224.7,222.7c-0.9,0.6-1.1,1.8-0.7,2.7c0.2,0.3,0.4,0.7,0.7,0.9c0.9,0.6,2.5,0.2,3-0.7
					c0.5-0.9,0.2-2.1-0.7-2.8l0.6,0.5C227.2,222.3,225.6,222.1,224.7,222.7z"/>
				<path class="st2" d="M230.7,216.3c-0.3-0.1-0.6,0.1-0.7,0.4c-0.1,0.2,0,0.5,0.2,0.7c0.2,0.2,0.4,0.2,0.7,0.2c0.1,0,0.2,0,0.3,0
					c1.6-0.4,3.2-0.9,4.9-1.3c3.5-1,7.1-1.9,10.6-3c0.3-0.1,0.5-0.4,0.4-0.7c-0.1-0.3-0.4-0.5-0.7-0.4c-3.4,1-6.8,2-10.3,2.9
					c-1.7,0.5-3.4,0.9-5.1,1.4C230.9,216.4,230.8,216.3,230.7,216.3z"/>
				<path class="st2" d="M231.4,222.2c0,0.3,0.2,0.6,0.5,0.6c1.1,0.1,2.2,0.2,3.3,0.3c4.5,0.4,9,0.7,13.5,0.9c0,0,0,0,0,0
					c0.3,0,0.5-0.2,0.6-0.5c0-0.3-0.2-0.6-0.5-0.6c-4.4-0.2-8.8-0.5-13.2-0.9c-1.2-0.1-2.3-0.2-3.5-0.3
					C231.7,221.6,231.4,221.9,231.4,222.2z"/>
				<path class="st2" d="M230.3,226.5c-0.2,0.3-0.1,0.6,0.2,0.8c0.8,0.5,1.6,1,2.4,1.5c3.4,2.1,6.9,4,10.5,5.7
					c0.1,0,0.2,0.1,0.2,0.1c0.2,0,0.4-0.1,0.5-0.3c0.1-0.3,0-0.6-0.3-0.7c-3.6-1.7-7.1-3.6-10.5-5.7c-0.8-0.5-1.6-1-2.3-1.5
					C230.8,226.2,230.4,226.2,230.3,226.5z"/>
				<path class="st5" d="M194.6,278.8c0.1,0,0.2,0.1,0.3,0.1c0.8,0.1,1.5,0.2,2.3,0.3c0-0.5,0-1,0.1-1.5c-0.7-0.1-1.5-0.2-2.2-0.2
					l0.4,0.1c-0.4,0-0.7,0-1.1,0c-0.1,0-0.2,0-0.2,0c-0.1,0.1-0.1,0.2-0.1,0.3C194.1,278.2,194.2,278.6,194.6,278.8z"/>
				<path class="st5" d="M195.6,283.4c-1.3,1.4,2.2,1.5,2.7,1.4c-0.1,0-0.1-1.2-0.2-1.3c-0.2-0.3-0.7-0.2-1-0.3
					C196.7,283.2,195.9,283,195.6,283.4z"/>
				<path class="st5" d="M195.3,289.1c0.3-0.2,0.3-0.7,0.3-1c0,0-0.4-0.1-0.8-0.3c0,0.5,0,0.9,0.1,1.4c0.1,0,0.1,0,0.2,0
					C195.1,289.1,195.2,289.1,195.3,289.1z"/>
				<path class="st6" d="M178.6,255.6c-2.2,12.1-4.4,24.1-6.7,36.1c-0.3,1.7-1,3.6-1,5.3c0.9,3.3,1.8,6.7,2.5,10.1
					c0.1,0,0.2,0.1,0.3,0.1c1.7,0.6,3.4,1.1,5.2,1.5c0.1-0.1,0.2-0.2,0.3-0.3l-0.6-0.1c1.5-1.1,3.7-0.5,5,0.9
					c0.1,0.1,0.2,0.2,0.2,0.3c1.2,0.1,2.3,0.2,3.5,0.2c1.4,0,2.9-0.1,4.1-0.9c1.6-1.1,2.3-3.3,2.7-5.4c0.9-4.7,1-9.5,0.8-14.2
					c0-0.5,0-0.9-0.1-1.4c-0.1-3-0.4-6.1-0.7-9.1l-1.1-13.2l-0.4-4.3c-1.2-0.8-2.4-1.6-3.6-2.4c-3.7-2.5-7.4-5.2-9.3-9.2
					c0,0.1,0,0.3-0.1,0.4c-0.1,0.6-0.2,1.2-0.3,1.9C179.3,251.9,178.6,255.6,178.6,255.6z M182.9,276.1c1.3,0.5,2.6,0.8,3.9,1
					c1.3,0.2,2.7,0.3,4.1,0.4c-1.3,0.3-2.7,0.3-4.1,0.2c-1.4-0.1-2.8-0.4-4.1-0.9c-1.3-0.5-2.6-1.1-3.7-1.9
					c-1.2-0.8-2.2-1.7-3.1-2.7c1.1,0.8,2.2,1.6,3.4,2.3C180.4,275.1,181.6,275.6,182.9,276.1z"/>
				<path class="st6" d="M191.2,245c0-0.6-0.1-1.1-0.1-1.7c0-0.5-0.1-1-0.1-1.6c0-1.4-0.1-3-0.4-4.3c-0.2-0.6-0.5-1.1-0.8-1.5
					c0,0-0.1,0-0.1,0c-1.4-0.3-2.6-0.6-3.7-1.1c0,0,0.1,0.1,0.1,0.1l0,0.7c0,0.9,0.1,1.8,0.1,2.7c0,1,0.1,2-0.2,2.8
					c-0.3,0.8-1.1,1.4-1.7,0.9c-0.4-2.7-0.5-5.4-0.5-8.2c-0.3,0.2-0.5,0.3-0.7,0.5c0.2,2.5,0.2,4.9,0,7.4c-0.8,0.5-2,0-2.5-0.8
					c0,0,0-0.1-0.1-0.1c0,0.2,0,0.5-0.1,0.7c-0.1,1.4-0.3,2.7-0.4,4.1c0.4-0.3,0.8-0.5,1.2-0.7C184.2,244,187.7,244.2,191.2,245z"/>
				<path class="st7" d="M181.7,316.8c0.8,1.8,1.6,3.7,2.3,5.5c0.1,0.2,0.1,0.3,0.2,0.5c0.1,0.3,0.3,0.7,0.7,0.8
					c0.4,0.1,0.8-0.3,1-0.6c0.1-0.2,0.2-0.3,0.3-0.5c1.2-2.5,0.5-5.5-0.3-8.3c-0.5-1.7-1-3.4-2.2-4.7c-0.1-0.1-0.1-0.2-0.2-0.3
					c-1.3-1.3-3.5-2-5-0.9l0.6,0.1c-0.1,0.1-0.2,0.2-0.3,0.3c-1.4,1.5-2.7,3.1-4.1,4.6c0.3,1.3,0.5,2.6,0.8,4c0.7-0.5,1.5-1,2.2-1.6
					c-0.6,1.8-0.9,3.6-0.9,5.5c0,1.3,0.2,2.6,0.5,3.9c0.1,0.3,0.2,0.7,0.3,1c0.3-0.3,0.5-0.6,0.8-0.8c0.8-1,1.5-2.1,2.1-3.3
					C181.3,320.3,181.7,318.5,181.7,316.8z"/>
				<path class="st4" d="M177.9,283.8c1.1,0.9,2.4,1.5,3.8,2c1.3,0.5,2.8,0.8,4.2,0.8c1.4,0,2.9-0.1,4.2-0.6c-1.4-0.3-2.7-0.5-4-0.8
					c-1.3-0.3-2.5-0.7-3.8-1.1c-1.2-0.4-2.4-0.9-3.6-1.5c-1-0.5-2-1-3-1.6c0,0.2,0,0.4,0.1,0.7C176.4,282.5,177.1,283.2,177.9,283.8
					z"/>
				<path class="st4" d="M175.8,272.2c0.9,1.1,1.9,2,3.1,2.7c1.2,0.8,2.4,1.4,3.7,1.9c1.3,0.5,2.7,0.8,4.1,0.9
					c1.4,0.1,2.8,0.1,4.1-0.2c-1.4,0-2.7-0.1-4.1-0.4c-1.3-0.2-2.6-0.6-3.9-1c-1.3-0.4-2.5-1-3.7-1.7
					C178,273.8,176.9,273,175.8,272.2z"/>
				<path class="st8" d="M170.8,290.5c3.6,4,7.5,6.3,9.8,1.1c0.6-1.4,0.7-3,0.7-4.5c0-1.9-0.1-3.8-0.5-5.7c0-0.2-0.1-0.4-0.1-0.7
					c-0.3-1.6-0.7-3.1-1.3-4.5c-0.4-1-0.9-2-1.5-3c0,0,0,0-0.1-0.1c-2-3.2-7-5.7-8.2-9.2c-1.2-3.3,1-6.5,1.2-9.7
					c0.2-2.4-1-3.9-2.6-4.5c-1.4-0.6-3-0.5-4.5,0.1c-5.6,2.4-4.1,13.4-4.2,18c0,2,0.5,4.3,1.5,6.8c0.4,1,1.1,2.5,2,4.4
					C164,280.8,167.2,286.5,170.8,290.5z"/>
				<path class="st8" d="M201.1,248.3c-3.1-1.2-6.5-2.6-9.9-3.3c-3.5-0.8-7-1-10,0.2c-0.4,0.2-0.8,0.4-1.2,0.7
					c-0.5,0.4-0.8,0.8-1,1.4c-0.1,0.7,0.1,1.3,0.4,2c0.1,0.1,0.1,0.3,0.2,0.4c1.9,4,5.7,6.7,9.3,9.2c1.2,0.8,2.4,1.6,3.6,2.4
					c5.6,3.7,11.4,7.1,17.3,10.4c2.6,1.4,6,4.8,9.2,4.9c0.2,0,0.3,0,0.5,0c4.4-0.3,4.1-6.5,3.6-9.6c-0.8-4.6-4.6-10.6-8.6-13.2
					c-2.4-1.6-5.3-2.5-8.1-3.4c-0.1,0-0.2-0.1-0.2-0.1C204.7,249.7,202.9,249,201.1,248.3z"/>
				<path class="st9" d="M179.9,235.1l0.1,0.5c0,0.9,0,1.8,0.1,2.7c0,0.9,0.1,1.9,0.5,2.7c0,0,0,0.1,0.1,0.1
					c0.5,0.8,1.7,1.3,2.5,0.8c0.3-2.5,0.3-4.9,0-7.4c0-0.4-0.1-0.7-0.1-1.1C182.2,234.3,181.1,234.9,179.9,235.1z"/>
				<path class="st9" d="M183.8,234.1c-0.1,2.7,0.1,5.5,0.5,8.2c0.6,0.5,1.4-0.1,1.7-0.9c0.3-0.8,0.3-1.9,0.2-2.8
					c0-0.9-0.1-1.8-0.1-2.7l0-0.7c0,0-0.1-0.1-0.1-0.1c-0.9-0.4-1.6-0.8-2.2-1.3C183.8,233.7,183.8,233.9,183.8,234.1z"/>
				<path class="st3" d="M191.9,236c1.9-0.5,2.9-2.6,3.4-3.8c0.2-0.3,0-0.7-0.3-0.9c-0.3-0.2-0.7,0-0.9,0.3c-0.6,1.3-1.3,2.7-2.5,3
					c-0.5,0.1-1.2,0.1-1.7,0c-2.1-0.4-4.6-1.2-5.9-2.8c0-0.3-0.1-0.6-0.4-0.7c0,0-0.1,0-0.1,0c-0.1-0.3-0.2-0.6-0.3-0.9
					c-0.5-2.2-0.1-5.1,0.3-7.9c0.2-1.2,0.3-2.3,0.4-3.3c2-0.6,3.6-2.2,5.1-3.9c0.2-0.3,0.2-0.7-0.1-1s-0.7-0.2-1,0.1
					c-1.5,1.7-3.2,3.4-5.2,3.6c-1.4,0.1-2.7-0.5-4-1.1c-1.2-0.6-2.5-1.1-4-1.2c-0.3,0-0.5,0.2-0.7,0.4c-0.2,0.3-0.3,0.7-0.3,1.1
					c0.1,0.5,0.4,0.8,0.6,1c0.3,0.3,0.7,0.3,1,0c0.3-0.3,0.3-0.7,0-1c0,0-0.1-0.1-0.1-0.1c1,0.2,2,0.6,3,1.1
					c1.3,0.6,2.7,1.2,4.3,1.2c0,0,0.1,0,0.1,0c-0.1,0.9-0.2,1.9-0.3,2.9c-0.4,2.9-0.8,5.9-0.3,8.3c0.1,0.5,0.3,1,0.6,1.4
					c-0.8,1.3-2.5,2.1-4,1.9c-0.4,0-0.7,0.2-0.8,0.6c0,0.4,0.2,0.7,0.6,0.8c0.2,0,0.4,0,0.6,0c0.3,0,0.7,0,1-0.1
					c1.2-0.2,2.3-0.8,3.1-1.7c0.1-0.1,0.2-0.3,0.3-0.4c0.2,0.2,0.3,0.3,0.5,0.5c0.6,0.5,1.3,1,2.2,1.3c1,0.5,2.2,0.8,3.7,1.1
					c0,0,0.1,0,0.1,0c0.4,0.1,0.8,0.1,1.2,0.1C191.3,236.1,191.6,236.1,191.9,236z"/>
				<path class="st8" d="M176,319.3c-0.1-0.7-0.3-1.4-0.4-2.1c-0.3-1.3-0.5-2.6-0.8-4c-0.4-2.1-0.9-4.1-1.3-6.2
					c-0.8-3.4-1.6-6.7-2.5-10.1c-0.1-0.5-0.2-0.9-0.4-1.4c-0.1-0.4-0.2-0.8-0.3-1.2c-0.7-2.3-1.5-4.5-2.8-6.4
					c-1.5-2.1-3.8-3.5-6-3.2c-0.1,0-0.3,0-0.4,0.1c-0.6,0.2-1.2,0.5-1.8,0.4c-1.1,0-2.1-1-3.1-1.7c-0.2-0.1-0.4-0.3-0.6-0.4
					c-2.3-1.3-5.2,0-6.6,2.3c-1.4,2.3-1.6,5.4-1.3,8.3c-2.5-0.9-4.6,2.4-4.3,5.3c0.3,2.9,2.2,5.4,3.8,7.8c1.2,1.8,2.4,3.6,3.5,5.5
					c1,1.6,1.7,3.3,2.9,4.8c1.4,1.7,2.5,3.8,3.7,5.6c1.1,1.6,2.1,3.3,3.2,4.9c0.2,0.3,0.4,0.6,0.6,0.9c0.6,0.9,1.2,1.9,1.9,2.8
					c0.6,0.7,1.2,1.5,1.9,1.9c0.5,0.3,1.1,0.4,1.7,0.6c1.3,0.4,2.6,0.7,3.8,0.5c2.8-0.3,4.7-2.4,5.7-5.3c0.4-1.3,0.6-2.7,0.6-4.1
					c0-1.3-0.2-2.6-0.4-3.9C176.2,320.5,176.1,319.9,176,319.3z M162.8,291.9c0.2-0.2,0.4-0.3,0.6-0.3c0.5-0.2,1.1-0.4,1.7-0.1
					c0.3,0.1,0.6,0.4,0.8,0.6c1.2,1.3,1.7,3.3,1.5,5c-0.2,1.4-1.7,1.5-2.7,1c-0.7-0.4-1.3-1.1-1.7-1.8c-0.4-0.9-0.7-1.9-0.7-2.8
					C162.3,292.8,162.4,292.2,162.8,291.9z M153.7,304.2c-0.2,1.6-2,1.7-3.2,1.1c-0.8-0.4-1.5-1.2-2-2.1c-0.5-1-0.8-2.2-0.8-3.3
					c0-0.7,0.1-1.4,0.6-1.8c0.2-0.2,0.5-0.3,0.8-0.4c0.6-0.2,1.3-0.4,2-0.2c0.4,0.2,0.7,0.4,0.9,0.7
					C153.4,299.9,154,302.2,153.7,304.2z M153.7,295.2c-0.6-1.4-1-3-1.1-4.5c0-0.9,0-1.8,0.4-2.4c0.2-0.2,0.5-0.4,0.7-0.5
					c0.6-0.3,1.3-0.5,2-0.1c0.4,0.2,0.7,0.6,1,1.1c1.5,2.2,2.3,5.3,2.2,8.1c-0.1,2.2-1.9,2.2-3.1,1.3
					C155,297.6,154.2,296.4,153.7,295.2z M171.3,328.4c-0.6,0.3-1.4,0.3-2.1,0c-2.2-0.7-3.3-2.5-4.8-4.2c-1.7-1.8-3.4-3.8-4.6-6.1
					c-0.8-1.4-1.4-3-2-4.5c-0.5-1.4-1-2.8-1.2-4.3c-0.2-1.9,0.1-3.9,1-5.4c0.9-1.5,2.5-2.6,4.1-2.6c2.2,0,4.2,1.5,5.7,3.4
					c0.8,1,1.6,2.2,2.2,3.5c0.8,1.6,1.3,3.4,1.8,5.1c0.8,2.8,1.4,5.6,1.9,8.4C173.6,324.1,173.4,327.2,171.3,328.4z"/>
				<path class="st2" d="M151.1,297.6c-0.7-0.3-1.4-0.1-2,0.2c-0.3,0.1-0.5,0.2-0.8,0.4c-0.4,0.4-0.6,1.1-0.6,1.8
					c0,1.1,0.3,2.3,0.8,3.3c0.5,0.9,1.2,1.7,2,2.1c1.2,0.6,2.9,0.5,3.2-1.1c0.3-2.1-0.4-4.4-1.7-5.9
					C151.7,298,151.4,297.7,151.1,297.6z"/>
				<path class="st2" d="M159,296.9c0.1-2.8-0.7-5.9-2.2-8.1c-0.3-0.4-0.6-0.8-1-1.1c-0.7-0.4-1.4-0.2-2,0.1
					c-0.3,0.1-0.5,0.2-0.7,0.5c-0.4,0.5-0.5,1.5-0.4,2.4c0.1,1.5,0.5,3.1,1.1,4.5c0.5,1.3,1.3,2.4,2.2,3
					C157.1,299.1,158.9,299.1,159,296.9z"/>
				<path class="st2" d="M164.7,298.1c1,0.5,2.5,0.4,2.7-1c0.2-1.8-0.3-3.7-1.5-5c-0.2-0.3-0.5-0.5-0.8-0.6
					c-0.6-0.2-1.1-0.1-1.7,0.1c-0.2,0.1-0.5,0.2-0.6,0.3c-0.4,0.3-0.5,1-0.5,1.5c0,1,0.2,2,0.7,2.8C163.4,297,164,297.7,164.7,298.1
					z"/>
				<path class="st2" d="M171.3,313.2c-0.5-1.7-1-3.5-1.8-5.1c-0.6-1.2-1.3-2.4-2.2-3.5c-1.5-1.9-3.6-3.5-5.7-3.4
					c-1.7,0-3.2,1.1-4.1,2.6c-0.9,1.5-1.2,3.5-1,5.4c0.2,1.5,0.7,2.9,1.2,4.3c0.6,1.5,1.2,3.1,2,4.5c1.2,2.3,2.9,4.3,4.6,6.1
					c1.6,1.7,2.7,3.5,4.8,4.2c0.7,0.2,1.5,0.3,2.1,0c2.1-1.2,2.4-4.3,1.9-6.8C172.7,318.8,172.1,316,171.3,313.2z"/>
				<path class="st8" d="M217.5,284.7c-1.2,0.7-2.3,2-3.6,2c-0.6,0-1.2-0.3-1.8-0.4c-1.3-0.3-2.7,0-3.9,0.7c-1,0.6-1.9,1.4-2.5,2.3
					c-1.6,2.1-2.4,4.8-3.1,7.4c-2.1,7.6-3.9,15.3-5.3,23.1c-0.1,0.4-0.2,0.9-0.2,1.3c-0.2,1.5-0.4,3-0.4,4.5c0,1.3,0.2,2.5,0.6,3.6
					c1,2.8,3,4.9,5.7,5.2c1.3,0.1,2.6-0.1,3.8-0.5c0.5-0.2,1.2-0.3,1.7-0.6c0.7-0.4,1.4-1.2,1.9-1.9c0.7-0.8,1.3-1.8,1.9-2.7
					c0.2-0.3,0.4-0.6,0.6-0.9c1.1-1.6,2.1-3.2,3.2-4.8c1.2-1.8,2.3-3.8,3.6-5.5c1.2-1.4,1.9-3,2.9-4.6c1.1-1.8,2.2-3.6,3.4-5.3
					c1.6-2.3,3.4-4.7,3.8-7.6c0.3-2.9-1.8-6.1-4.3-5.2c0.3-2.8,0.1-5.8-1.3-8.1c-0.9-1.5-2.5-2.5-4.1-2.7
					C219.1,284.2,218.3,284.3,217.5,284.7z M207.1,293.3c0.2-0.3,0.5-0.5,0.8-0.6c0.5-0.2,1.1-0.1,1.7,0.1c0.2,0.1,0.5,0.2,0.6,0.3
					c0.4,0.3,0.5,0.9,0.5,1.5c0,1-0.2,1.9-0.7,2.8c-0.4,0.8-1,1.4-1.7,1.8c-1,0.5-2.5,0.4-2.7-1C205.4,296.5,206,294.6,207.1,293.3z
					 M216.6,310.1c-0.2,1.5-0.7,2.9-1.2,4.2c-0.6,1.5-1.2,3-1.9,4.4c-1.2,2.2-2.9,4.2-4.5,6c-1.6,1.7-2.6,3.4-4.8,4.1
					c-0.7,0.2-1.5,0.3-2.1,0c-2.1-1.2-2.4-4.2-2-6.6c0.5-2.8,1.1-5.5,1.8-8.2c0.5-1.7,1-3.4,1.8-5c0.6-1.2,1.3-2.3,2.1-3.4
					c1.5-1.8,3.5-3.4,5.7-3.3c1.7,0,3.2,1.1,4.1,2.6C216.5,306.3,216.9,308.3,216.6,310.1z M222,298.8c0.7-0.3,1.4-0.1,2,0.2
					c0.3,0.1,0.5,0.2,0.8,0.4c0.4,0.4,0.6,1.1,0.6,1.7c0,1.1-0.3,2.3-0.8,3.2c-0.5,0.9-1.1,1.7-2,2.1c-1.2,0.6-2.9,0.5-3.2-1.1
					c-0.3-2,0.3-4.3,1.7-5.8C221.3,299.2,221.6,298.9,222,298.8z M220,289.7c0.4,0.5,0.5,1.4,0.5,2.3c-0.1,1.5-0.4,3-1,4.4
					c-0.5,1.2-1.3,2.3-2.2,2.9c-1.2,0.9-3,0.8-3.1-1.3c-0.2-2.7,0.7-5.7,2.1-7.9c0.3-0.4,0.6-0.8,1-1c0.7-0.4,1.4-0.2,2,0.1
					C219.5,289.4,219.8,289.5,220,289.7z"/>
				<path class="st2" d="M219.4,305.2c0.2,1.6,2,1.7,3.2,1.1c0.8-0.4,1.5-1.2,2-2.1c0.5-1,0.8-2.1,0.8-3.2c0-0.7-0.1-1.4-0.6-1.7
					c-0.2-0.2-0.5-0.3-0.8-0.4c-0.6-0.2-1.3-0.4-2-0.2c-0.3,0.1-0.6,0.4-0.9,0.7C219.7,301,219.1,303.2,219.4,305.2z"/>
				<path class="st2" d="M217.2,289.2c-0.4,0.2-0.7,0.6-1,1c-1.5,2.1-2.3,5.2-2.1,7.9c0.1,2.1,1.9,2.1,3.1,1.3
					c0.9-0.6,1.6-1.7,2.2-2.9c0.6-1.4,1-2.9,1-4.4c0-0.9,0-1.8-0.5-2.3c-0.2-0.2-0.5-0.4-0.7-0.5C218.6,289,217.9,288.8,217.2,289.2
					z"/>
				<path class="st2" d="M208.4,299.2c0.7-0.4,1.3-1,1.7-1.8c0.4-0.8,0.7-1.8,0.7-2.8c0-0.6-0.1-1.2-0.5-1.5
					c-0.2-0.2-0.4-0.2-0.6-0.3c-0.5-0.2-1.1-0.4-1.7-0.1c-0.3,0.1-0.5,0.4-0.8,0.6c-1.1,1.3-1.7,3.2-1.4,4.9
					C205.9,299.6,207.4,299.7,208.4,299.2z"/>
				<path class="st2" d="M211.5,302.3c-2.2-0.1-4.2,1.5-5.7,3.3c-0.8,1-1.5,2.2-2.1,3.4c-0.8,1.6-1.3,3.3-1.8,5
					c-0.7,2.7-1.3,5.4-1.8,8.2c-0.4,2.4-0.2,5.5,2,6.6c0.6,0.3,1.4,0.3,2.1,0c2.2-0.7,3.3-2.4,4.8-4.1c1.7-1.8,3.3-3.7,4.5-6
					c0.8-1.4,1.4-2.9,1.9-4.4c0.5-1.4,1-2.8,1.2-4.2c0.2-1.9-0.1-3.8-1-5.3C214.7,303.3,213.1,302.3,211.5,302.3z"/>
			</g>
		</g>
		<path class="st10" d="M171.6,299.2c-0.6-1.7-1-3.4-1.5-5.1c-0.5-1.7-1.1-3.3-2-4.9c-0.8-1.5-1.9-2.9-3.4-3.8
			c-0.7-0.4-1.6-0.6-2.4-0.6c-0.4,0-0.9,0.1-1.3,0.2c-0.4,0.1-0.9,0.2-1.3,0.1c0.4,0,0.9-0.1,1.3-0.3c0.4-0.2,0.9-0.3,1.3-0.4
			c0.9-0.1,1.9,0.1,2.7,0.5c1.8,0.8,3,2.3,3.8,3.9c0.9,1.6,1.5,3.3,1.9,5.1C171.1,295.7,171.3,297.4,171.6,299.2z"/>
		<path class="st10" d="M162,276.2c1.1,2.8,2.9,5.2,4.8,7.5c1,1.2,1.9,2.3,2.9,3.5c0.9,1.2,1.8,2.4,2.7,3.6
			c-2.2-2.1-4.2-4.3-6.2-6.6c-1-1.2-1.9-2.4-2.6-3.7C162.8,279.2,162.2,277.7,162,276.2z"/>
		<path class="st10" d="M173.3,268.7c-0.8-0.3-1.5-0.9-2-1.6c-0.5-0.7-0.9-1.5-1.2-2.3c-0.5-1.6-0.5-3.3-0.3-5
			c0.4,1.6,0.6,3.2,1.1,4.8C171.4,266.1,172.1,267.5,173.3,268.7z"/>
		<path class="st10" d="M165.5,248.6c2.3,0.1,4.6,0.3,6.9,0.3c2.3,0,4.6-0.1,6.9-0.2c-2.3,0.4-4.6,0.6-6.9,0.6
			C170.1,249.2,167.8,249.1,165.5,248.6z"/>
		<path class="st10" d="M191.7,245.1c2.5,0.7,5,1.5,7.4,2.4c2.4,0.9,4.9,1.8,7.2,2.9c-2.6-0.5-5.1-1.3-7.5-2.1
			C196.4,247.4,194,246.4,191.7,245.1z"/>
		<path class="st10" d="M192.5,261.2c1.1,0.4,2.2,1,3.3,1.6c1.1,0.6,2.1,1.3,3.1,2c2,1.4,3.9,2.9,5.8,4.4c1.9,1.5,3.9,2.8,6,4
			c2.1,1.1,4.4,2,6.8,2.5c-1.2,0-2.4-0.3-3.6-0.6c-1.2-0.3-2.3-0.8-3.4-1.3c-2.2-1-4.3-2.4-6.2-3.9c-1.9-1.5-3.8-3-5.7-4.5
			C196.6,263.8,194.6,262.4,192.5,261.2z"/>
		<path class="st10" d="M208,286.9c0.8-0.8,2-1.3,3.2-1.3c0.6,0,1.2,0.2,1.8,0.4c0.5,0.2,1,0.5,1.5,0.5c1,0.1,2-0.6,2.9-1.1
			c0.5-0.3,1-0.6,1.6-0.7c0.6-0.2,1.2-0.2,1.7-0.1c-1.2,0-2.1,0.7-3,1.3c-0.5,0.3-0.9,0.7-1.5,0.9c-0.5,0.3-1.2,0.5-1.8,0.4
			c-0.7,0-1.3-0.3-1.8-0.6c-0.5-0.2-1-0.4-1.5-0.5C210.1,286,209,286.3,208,286.9z"/>
		<path class="st10" d="M199.1,247.8l3.2-0.2l1.6-0.1c0.5,0,1.1-0.1,1.6-0.1c-0.5,0.2-1,0.3-1.6,0.4c-0.5,0.1-1.1,0.1-1.6,0.2
			c-0.5,0-1.1,0-1.6,0C200.2,248,199.7,247.9,199.1,247.8z"/>
	</g>
</g>
<g id="cadre_9_">
	<rect x="0" y="0" class="st11" width="368.5" height="340.2"/>
</g>
</svg>
