<svg id="dinosaures" xmlns="http://www.w3.org/2000/svg" viewBox="0 0 368.5 340.16"><defs><style>.cls-1{fill:none;}.cls-2{fill:#f1efd6;}.cls-3{fill:#6cb196;}.cls-4{fill:#3a393b;}.cls-5{fill:#26805d;}.cls-6{fill:#cee3cf;}.cls-7{fill:#185f3c;}.cls-8{fill:#10808b;}.cls-9{fill:#2f8865;}.cls-10{fill:#9cd3df;}.cls-11{fill:#1d1e1c;}</style></defs><g id="cadre"><rect class="cls-1" width="368.5" height="340.16"/></g><path class="cls-2" d="M228.77,167.21a5.81,5.81,0,0,0-2.49,3.18c2.38-.68,4.72-1.35,7-2.22A3.86,3.86,0,0,0,228.77,167.21Z"/><path class="cls-2" d="M239.21,165.21a16,16,0,0,0,2.62-2,4,4,0,0,0-5,0c-1.16.95-1.48,2.72-1.69,4.21l.26-.11C236.35,166.92,238.33,165.74,239.21,165.21Z"/><path class="cls-2" d="M212.18,159c1.26,1.75,2.95,3.65,4.93,3.8,2.68.21,3.73-2.32,5.06-3.92.8,1.66,3.48,2.31,5.14,2.21a5.26,5.26,0,0,0,3.75-2c.77-.88,1-2.19,1.6-3.17-.45.12-.9.26-1.36.37C224.71,157.83,218.48,159.52,212.18,159Z"/><path class="cls-2" d="M240.2,155.94a11.52,11.52,0,0,0,3.71-5.7,30.05,30.05,0,0,1-10.3,5.35C235.17,157.28,238.51,157.11,240.2,155.94Z"/><path class="cls-3" d="M262.18,190.34c.36-1,.68-2,1-3.09C262.81,188.28,262.48,189.3,262.18,190.34Z"/><path class="cls-3" d="M361,228.92c-7.76,8.12-17.6,1.44-22.58-6.14.14.39.3.78.43,1.18a26.66,26.66,0,0,1,1,4.82,26,26,0,0,1,.12,4.91c-.5-1.57-.88-3.14-1.28-4.69s-.82-3.08-1.29-4.6-1-3-1.52-4.53-1-3-1.48-4.58c-.67-1.26-1.36-2.5-2.15-3.69-4-6-9.16-11.42-13.83-16.93-10.21-12-8.31-35-10.74-49.85-2-12.27-4.41-25.5-11.09-36.21A32.57,32.57,0,0,0,294.5,106c-5.06-6.65-12.27-13.93-20.05-17.41-8.14-3.65-15.22-5.85-24.21-5.91-6.88,0-12.92.17-19.38,2.74-15.05,6-26.4,17.76-33.8,31.92a37.79,37.79,0,0,0-2.13,29c1.14,3.39,4.37,8.16,7.58,9.85a24.93,24.93,0,0,0,9.67,2.86c6.3.56,12.53-1.13,19.12-2.73.46-.11.91-.25,1.36-.37s.64-.17,1-.27a30.05,30.05,0,0,0,10.3-5.35,22.26,22.26,0,0,0,3.8-4c-.1.18.42,1,.49,1.26a10.77,10.77,0,0,1,.38,1.86c.31,3.84-2.42,9.91-6.75,13.82a16,16,0,0,1-2.62,2c-.88.53-2.86,1.71-3.79,2.11l-.26.11c-.62.26-1.24.51-1.85.74-2.31.87-4.65,1.54-7,2.22l-.56.16a3.1,3.1,0,0,0-1.92,1c-.77,1.2.73,2,1.59,2.5,4.24,2.26,9.19,2.77,13.94,2.84,6.3.11,13-1.94,18.74-4.43,2.13-.92,4.23-1.95,6.29-3.07a30.59,30.59,0,0,1,.27,12.64c-.1.51-.23,1-.36,1.51,1.07,1.49,5,6.92,7.5,11,.9,1.46,1.82,3.07,2.75,4.79-1,2.37-2.26,4.69-3.38,7s-2.17,4.76-3.56,7c-2.38,3.91-7.17,11.31.16,13a38.17,38.17,0,0,0,10.5.65,13.36,13.36,0,0,0,7.13-2.21c1.46,4.32,2.72,8.56,3.66,12.44a19.13,19.13,0,0,1,1.39-1.73,18.84,18.84,0,0,1,2.67-2.45,12.72,12.72,0,0,1,3.24-1.77,7,7,0,0,1,3.66-.37,16.4,16.4,0,0,0-3.17,1.45,31.06,31.06,0,0,0-2.83,1.9l-2.78,2.11a27.56,27.56,0,0,1-3,2l0,0c-2.42,2.88-3.71,6-5.16,9.39a8.84,8.84,0,0,1-1.47,2.6c-4,4.36-20.95,1.87-20.66,9.61a4.4,4.4,0,0,0,0,.51,25.07,25.07,0,0,1-8.17-7.56,32.2,32.2,0,0,1-4.11-11c-5.47-1.1-12.18-2.49-12.87,4.5-.52,5.29,1.9,11,4.26,15.67,1.53,3,3.3,6.47,6.69,7.44,6,1.72,8.81-.35,17.81-2,.76,1,1.55,1.9,2.28,2.76v0c1.25-2.33,8.52-5.89,9.62-1.68.42,1.62-1.72,3.31-2.64,4.43-.76.93-1.66,2.21-2.83,2.56,2,2.52,4.24,4.88,7.24,6,4.53,1.73,8.34-.66,12.15-3.12,5.38-3.47,10.13-8.78,15.88-11.78.75,0,1.49,0,2.24-.09A75.92,75.92,0,0,0,331,261a78.82,78.82,0,0,0,18.86-10.55c4.91-3.93,9.24-8.58,11.67-14.41C362.1,234.66,363.61,228.69,361,228.92ZM208.61,133.45a2.73,2.73,0,0,1-1.28-3.25c-.13-2.29,3.31-1.75,3.58.76C211.08,132.53,210.23,134.12,208.61,133.45Zm61.68,92.77c-1.15-.11-4.78.14-4.52-1.6l-.26.24c.36-1.78,2.16-6.05,4.41-4.09C271.05,221.75,270.89,225,270.29,226.22Zm7.74.35c-1.15.12-4.65,1.1-4.75-.66l-.2.29c0-1.82.9-6.37,3.49-4.9C277.87,222,278.37,225.27,278,226.57Zm1.6-127.94c2.74-1,4.6,3.24,3.78,5.43-1.18,3.14-6.43,1.06-7.07-1.47C275.91,100.89,277.72,98,279.63,98.63ZM259.71,90.9a6.23,6.23,0,0,1,4.45.17,6.22,6.22,0,0,1,4-.12c3.12.9,6.49,5.84,3.85,8.62-4.08,4.31-10.32,1.75-13.55-2.19C256.68,95.17,256.88,92.27,259.71,90.9Zm-9.11-2.68v.06c.62-1.37,3.35-1.07,3.86.4s-1.24,3-2.69,2.74C250.66,91.21,248.85,88.69,250.6,88.22Zm6.22,33.35c-2.15,1.61-2.78,3.24-3.57,5.71-.36,1.12-.52,2.5-.94,3.55-.21.53-.8,1.13-.63.3a.18.18,0,0,1-.1.09c-1.11-2.84.73-7.31,2.52-9.58a6.54,6.54,0,0,1,8.51-2,11.4,11.4,0,0,1,5.32,6.51c.22.72.85,2.54-.19,2.86a34.72,34.72,0,0,0-1.82-3.8,12.24,12.24,0,0,0-3.82-3.48C260.42,120.74,258.44,120.34,256.82,121.57ZM269.08,167a13.55,13.55,0,0,1-5.12,1.85,43.13,43.13,0,0,0,8.56-6.17c1.35-1.15,2.73-2.24,4-3.43a24.69,24.69,0,0,0,1.82-1.87,8.87,8.87,0,0,0,1.45-2.19,6.31,6.31,0,0,1-.84,2.61,14.29,14.29,0,0,1-1.58,2.26,33,33,0,0,1-3.89,3.78A30.2,30.2,0,0,1,269.08,167Zm22.55,40.76a11.51,11.51,0,0,0-.47,3,30,30,0,0,0,0,3.14c0,.53,0,1.06,0,1.63a10.69,10.69,0,0,1-.13,1.69,11.84,11.84,0,0,1-1,3.22,15.78,15.78,0,0,1-.79,1.46,8.11,8.11,0,0,1-1,1.35,5,5,0,0,1-1.41,1l-.71.35a3.87,3.87,0,0,0-.34.21c-.1.07-.22.16-.23.29a.51.51,0,0,1,.15-.38l.29-.3a7.54,7.54,0,0,1,.63-.52,5.16,5.16,0,0,0,1.06-1.08,7.48,7.48,0,0,0,.71-1.35c.21-.48.41-.95.58-1.44a12.62,12.62,0,0,0,.75-4.46c0-.5,0-1-.06-1.58a27.91,27.91,0,0,1,0-3.29,10.91,10.91,0,0,1,.79-3.29,20.6,20.6,0,0,1,1.49-2.92c.61-1,1.44-1.64,2.06-2.52a9,9,0,0,1-.69,1.47,11.62,11.62,0,0,0-.72,1.4C292.25,205.74,292,206.75,291.63,207.76Zm15.92,57a8.18,8.18,0,0,1,1.86-1.22,7.53,7.53,0,0,1,2.13-.66,4.37,4.37,0,0,1,2.26.23c-.7.32-1.31.61-1.92.91l-1.83.88-1.85.85c-.63.28-1.26.55-2,.83A5.07,5.07,0,0,1,307.55,264.74Zm3.27-54.9c-1.82-.35-3.06-3.55-2.42-4.93-.24-2.28,2.53-2,4,.36C313.49,207,313.89,210.44,310.82,209.84Zm-9.6-35.93c-.57-2.9,3.16-2.33,4.28-.5C309.67,180.26,298.9,175.93,301.22,173.91Zm1,12.17c1-4.89,6.6-2.85,8.55,1.63,1.52,3.52,1.85,11.25-3.5,9.38a10.84,10.84,0,0,1-6.67-6.27C300.2,189.6,299.79,184.78,302.23,186.08Zm-41.18,74.59c2.27-5.18,15.49-2,6.83,3.43-2.16,1.36-3.12,3-4.81.85A11.28,11.28,0,0,1,261.05,260.67Zm65.73-45c-2.16,6.6-8.44.3-9.6-3.64-.5-1.72-1-10,2.44-8.58C324.64,199.84,327.87,212.39,326.78,215.71Z"/><path class="cls-4" d="M207.33,130.2a2.73,2.73,0,0,0,1.28,3.25c1.62.67,2.47-.92,2.3-2.49C210.64,128.45,207.2,127.91,207.33,130.2Z"/><path class="cls-5" d="M277.38,160.06A14.29,14.29,0,0,0,279,157.8a6.31,6.31,0,0,0,.84-2.61,8.87,8.87,0,0,1-1.45,2.19,24.69,24.69,0,0,1-1.82,1.87c-1.28,1.19-2.66,2.28-4,3.43a43.13,43.13,0,0,1-8.56,6.17,13.55,13.55,0,0,0,5.12-1.85,30.2,30.2,0,0,0,4.41-3.16A33,33,0,0,0,277.38,160.06Z"/><path class="cls-3" d="M255.19,202.12c-2.81,2.17-5.89,4-8.65,6.24-1.8,1.44-4.6,3.41-5.21,5.79-.79,3.08.74,8.42,7.07,10.85,1.29-8.72,5.27-16.74,9.18-24.68C256.72,201,255.79,201.66,255.19,202.12Z"/><path class="cls-6" d="M261,260.43a4.4,4.4,0,0,1,0-.51c-.29-7.74,16.66-5.25,20.66-9.61a8.84,8.84,0,0,0,1.47-2.6c1.45-3.44,2.74-6.51,5.16-9.39a12.09,12.09,0,0,1,.76-1.11c-.94-3.88-2.2-8.12-3.66-12.44a13.36,13.36,0,0,1-7.13,2.21,38.17,38.17,0,0,1-10.5-.65c-7.33-1.69-2.54-9.09-.16-13,1.39-2.27,2.39-4.64,3.56-7s2.4-4.61,3.38-7c-.93-1.72-1.85-3.33-2.75-4.79-2.54-4.05-6.43-9.48-7.5-11l-.29-.4a36.58,36.58,0,0,1-.84,4.09c-.28,1.06-.6,2.1-1,3.09-.22.59-.44,1.18-.69,1.74-1.21,2.75-2.56,5.49-3.91,8.24-3.91,7.94-7.89,16-9.18,24.68-.19,1.24-.33,2.49-.4,3.76a55.46,55.46,0,0,0,.75,13.07,32.2,32.2,0,0,0,4.11,11A25.07,25.07,0,0,0,261,260.43Z"/><path class="cls-7" d="M267.88,264.1c8.66-5.43-4.56-8.61-6.83-3.43a11.28,11.28,0,0,0,2,4.28C264.76,267.11,265.72,265.46,267.88,264.1Z"/><path class="cls-8" d="M319.62,203.49c-3.45-1.47-2.94,6.86-2.44,8.58,1.16,3.94,7.44,10.24,9.6,3.64C327.87,212.39,324.64,199.84,319.62,203.49Z"/><path class="cls-8" d="M307.28,197.09c5.35,1.87,5-5.86,3.5-9.38-1.95-4.48-7.52-6.52-8.55-1.63-2.44-1.3-2,3.52-1.62,4.74A10.84,10.84,0,0,0,307.28,197.09Z"/><path class="cls-8" d="M305.5,173.41c-1.12-1.83-4.85-2.4-4.28.5C298.9,175.93,309.67,180.26,305.5,173.41Z"/><path class="cls-8" d="M308.4,204.91c-.64,1.38.6,4.58,2.42,4.93,3.07.6,2.67-2.83,1.59-4.57C310.93,202.86,308.16,202.63,308.4,204.91Z"/><path class="cls-8" d="M272,99.57c2.64-2.78-.73-7.72-3.85-8.62a6.22,6.22,0,0,0-4,.12,6.23,6.23,0,0,0-4.45-.17c-2.83,1.37-3,4.27-1.23,6.48C261.71,101.32,268,103.88,272,99.57Z"/><path class="cls-8" d="M283.41,104.06c.82-2.19-1-6.45-3.78-5.43-1.91-.66-3.72,2.26-3.29,4C277,105.12,282.23,107.2,283.41,104.06Z"/><path class="cls-8" d="M254.45,88.68c-.51-1.47-3.24-1.77-3.86-.4v-.06c-1.75.47.06,3,1.16,3.2C253.21,91.71,255,90.24,254.45,88.68Z"/><path class="cls-7" d="M265.51,224.86l.26-.24c-.26,1.74,3.37,1.49,4.52,1.6.6-1.2.76-4.47-.37-5.45C267.67,218.81,265.87,223.08,265.51,224.86Z"/><path class="cls-7" d="M276.57,221.3c-2.59-1.47-3.5,3.08-3.49,4.9l.2-.29c.1,1.76,3.6.78,4.75.66C278.37,225.27,277.87,222,276.57,221.3Z"/><path class="cls-5" d="M292.66,204.78a11.62,11.62,0,0,1,.72-1.4,9,9,0,0,0,.69-1.47c-.62.88-1.45,1.56-2.06,2.52a20.6,20.6,0,0,0-1.49,2.92,10.91,10.91,0,0,0-.79,3.29,27.91,27.91,0,0,0,0,3.29c0,.53.05,1.08.06,1.58A12.62,12.62,0,0,1,289,220c-.17.49-.37,1-.58,1.44a7.48,7.48,0,0,1-.71,1.35,5.16,5.16,0,0,1-1.06,1.08,7.54,7.54,0,0,0-.63.52l-.29.3a.51.51,0,0,0-.15.38c0-.13.13-.22.23-.29a3.87,3.87,0,0,1,.34-.21l.71-.35a5,5,0,0,0,1.41-1,8.11,8.11,0,0,0,1-1.35,15.78,15.78,0,0,0,.79-1.46,11.84,11.84,0,0,0,1-3.22,10.69,10.69,0,0,0,.13-1.69c0-.57,0-1.1,0-1.63a30,30,0,0,1,0-3.14,11.51,11.51,0,0,1,.47-3C292,206.75,292.25,205.74,292.66,204.78Z"/><path class="cls-5" d="M288.24,238.36a27.56,27.56,0,0,0,3-2l2.78-2.11a31.06,31.06,0,0,1,2.83-1.9,16.4,16.4,0,0,1,3.17-1.45,7,7,0,0,0-3.66.37,12.72,12.72,0,0,0-3.24,1.77,18.84,18.84,0,0,0-2.67,2.45,19.13,19.13,0,0,0-1.39,1.73,12.09,12.09,0,0,0-.76,1.11Z"/><path class="cls-5" d="M337.36,224.4c.47,1.52.89,3,1.29,4.6s.78,3.12,1.28,4.69a26,26,0,0,0-.12-4.91,26.66,26.66,0,0,0-1-4.82c-.13-.4-.29-.79-.43-1.18a29.63,29.63,0,0,0-1.45-3.38,28.58,28.58,0,0,0-2.58-4.17.14.14,0,0,0,0,.06c.43,1.57,1,3.08,1.48,4.58S336.89,222.89,337.36,224.4Z"/><path class="cls-5" d="M310.05,264.88l1.83-.88c.61-.3,1.22-.59,1.92-.91a4.37,4.37,0,0,0-2.26-.23,7.53,7.53,0,0,0-2.13.66,8.18,8.18,0,0,0-1.86,1.22,5.07,5.07,0,0,0-1.34,1.82c.73-.28,1.36-.55,2-.83Z"/><path class="cls-7" d="M273.9,272.92c.92-1.12,3.06-2.81,2.64-4.43-1.1-4.21-8.37-.65-9.62,1.68v0c-.05,1.53,3.28,4.17,4.11,5.29l0,0C272.24,275.13,273.14,273.85,273.9,272.92Z"/><path class="cls-4" d="M265.92,125.2a34.72,34.72,0,0,1,1.82,3.8c1-.32.41-2.14.19-2.86a11.4,11.4,0,0,0-5.32-6.51,6.54,6.54,0,0,0-8.51,2c-1.79,2.27-3.63,6.74-2.52,9.58a.18.18,0,0,0,.1-.09c-.17.83.42.23.63-.3.42-1.05.58-2.43.94-3.55.79-2.47,1.42-4.1,3.57-5.71,1.62-1.23,3.6-.83,5.28.15A12.24,12.24,0,0,1,265.92,125.2Z"/><path class="cls-2" d="M138.11,160.05c1,3.19,3.12,7.39,5.91,7.69,1.31.14,4.4-3.31,6.53-6.29l-2.45-.27C144.77,160.81,141.44,160.46,138.11,160.05Z"/><path class="cls-2" d="M99.13,152.9c1.07,1.77,1,3.33,3,2.87a51.81,51.81,0,0,1,5.33-1.77c-3.11-1.09-6.18-2.27-9.18-3.63A9.31,9.31,0,0,0,99.13,152.9Z"/><path class="cls-2" d="M123.93,157.7c.84,2.83,3.3,6.84,4.78,6.74,1.82-.12,4-3.06,6-4.82l-3.22-.46C129,158.76,126.45,158.24,123.93,157.7Z"/><path class="cls-2" d="M110,154.82c1.24,2.75,3.11,6.47,4.9,5.92s4.78-2.78,6.26-3.59l0,0c-2.24-.49-4.48-1-6.72-1.4C113,155.43,111.5,155.2,110,154.82Z"/><path class="cls-2" d="M106.26,172.54c-.49-1.65.12-5.35-1.32-6.25-1.09-.68-2.51.05-3.63.26a9.34,9.34,0,0,1-3.11.45l.61.45C101.5,169.3,103.88,171,106.26,172.54Z"/><path class="cls-2" d="M129.13,183.06c.18-.63-1.34-4-1.82-4.92-.72-1.35-1.74-1.07-3.17-.93s-3.51,1.5-5.23,1.9c3.27,1.46,6.81,3.25,10.11,4Z"/><path class="cls-2" d="M115.66,174.35c-.37-2-1.22-2.77-3.17-2.4-1.19.24-3,1.55-4.43,1.74a59.78,59.78,0,0,0,8.31,4.32A15.91,15.91,0,0,1,115.66,174.35Z"/><path class="cls-2" d="M97.16,166.24c-.67-1.25-.15-4.17-.85-5.36-1.07-1.82-3.83-1.51-5.93-1.67A34.72,34.72,0,0,0,97.16,166.24Z"/><path class="cls-9" d="M129.06,183.15h0c-3.3-.78-6.84-2.57-10.11-4-.61-.27-1.22-.54-1.81-.78l-.73-.32a59.78,59.78,0,0,1-8.31-4.32c-.6-.37-1.2-.76-1.8-1.15-2.38-1.56-4.76-3.24-7.45-5.09L98.2,167c-.35-.25-.7-.5-1-.76a34.72,34.72,0,0,1-6.78-7c-.88-1.2-1.74-2.48-2.61-3.87-2.78-4.46-6-9.43-6.3-14.85-.32.18-.64.35-1,.55a23.69,23.69,0,0,0-2.63,2,21.32,21.32,0,0,0-2.38,2.45A7.28,7.28,0,0,1,77,142.23a10.83,10.83,0,0,1,2.68-2.46,8.9,8.9,0,0,1,3.43-1.35,4.83,4.83,0,0,1,3.56.69,7.56,7.56,0,0,0-3.28.46,13.15,13.15,0,0,0-1.58.71c.76,1.47,2.48,2.25,3.93,3.05,1.81,1,3.47,2.28,5.25,3.33s3.77,2.1,5.72,3l1.52.68c3,1.36,6.07,2.54,9.18,3.63l1.2.42c.46.15.93.29,1.4.4,1.47.38,3,.61,4.49.9,2.24.43,4.48.91,6.72,1.4l2.69.58c2.52.54,5,1.06,7.58,1.46l3.22.46c1.13.15,2.25.3,3.38.43,3.33.41,6.66.76,10,1.13l2.45.27c7.27.77,10.13.52,13.63-6.89,2.78-5.89,3.67-11.27,4.64-17.65a60.24,60.24,0,0,0,.38-9.87c0-1.05-.07-2-.13-2.76a1.46,1.46,0,0,1,.16-.21,39.92,39.92,0,0,0-1.51-9.36c-.21-.83-.44-1.66-.7-2.49a38.73,38.73,0,0,0-1.2-5.06,18.58,18.58,0,0,0-.61-2.26,2.63,2.63,0,0,0-.19-.41,2.6,2.6,0,0,1-.77,1.8,4.88,4.88,0,0,1-.58.38c-.6-.08-1.31,0-2.17-.21a22.61,22.61,0,0,1-10-4.58c-1.83-1.68-2.9-3.39-2.36-6.07,0-.19.06-.37.12-.57a11.52,11.52,0,0,0-2,2c0,.06-.13.13-.21.21A24.24,24.24,0,0,0,144.4,97l-.83-.28-1.28-.41a146.09,146.09,0,0,0-30.5-8c-21.91-4.25-45.53-4.82-53.6,10a85.55,85.55,0,0,0-9.12,28.2c.94,4.28,9,6.82,11.87,9.11-1.8,1.73-6.79,3.09-9.32,3.46-2.87.43-2.54.56-3.17-2.33a15.65,15.65,0,0,1-.27-1.78,105.41,105.41,0,0,0-.07,12.31c2.2,2.69,12.46,5.21,15.14,6.45-2.26,1.39-10.58,7.88-13.32,5.5-.66-.56-1.1-2.31-1.42-4.37a92.8,92.8,0,0,0,1.6,14.82c.17.83.45,1.9.77,3.09a7.62,7.62,0,0,1,.18-2c1.93,2.95,8.41,2.52,11.41,3.6.79.29-1.33,3.85-4,4.66-2.15.65-4.48,1.23-6,.05.26,1.23.48,2.43.61,3.53,0,.75,0,1.5,0,2.25a36.62,36.62,0,0,1-3.77,14.52c-.62,1.3-1.29,2.56-2,3.75-.86,1.41-1.78,2.78-2.73,4.11-1.74,2.45-3.6,4.82-5.42,7.22-1,1.29-1.93,2.58-2.85,3.91-.61.88-1.18,1.8-1.73,2.75a49.22,49.22,0,0,0-3.1,6.41,61.57,61.57,0,0,0-2.34,6.9c-.51,1.89-.93,3.78-1.28,5.64a39.53,39.53,0,0,0-.55,8.47c-3.38.91-6.68.45-10.74-1.12-2.82-1.1-4.18-2.75-6.4-4.65-.56-.49-2.16-2-3-1.67-2.75,1.08.37,8.53,1,10,3.73,8.69,9.56,15,17.33,20.37,3.15,2.19,7,3.4,10.43,4.9a13.75,13.75,0,0,0,5.78,1.3l0,0c-.61.24-.91.4-.5.41a9.38,9.38,0,0,1,2,.36,19.56,19.56,0,0,0,9.42,1.83l1.14-.07a13,13,0,0,0,3.2-.07c.79-.15,1.57-.33,2.34-.53,3.91-.62,8-1.72,10-3.69l1.06-.5c2.46,2.21,3.55,6.33,6,8.83s6.46,4.51,9.85,2.49,5.42-5.82,8.45-8.24c2.5-2,6.11-4.91,9.25-5.78,1.14-.32,3-.18,3.88-.88a2.35,2.35,0,0,0,.51-.62,8.87,8.87,0,0,0,.82-5.24l0-.18c-.27-1.35-1-2.36-2.29-2.27h0a5.45,5.45,0,0,0-4.23.42,26.22,26.22,0,0,0-3.81,2.22l-1.87,1.27a21,21,0,0,0-1.7,1.38,13.35,13.35,0,0,1-3.76,2.73c1.11-1.1,1.92-2.33,2.92-3.53A11.86,11.86,0,0,1,96,266.25c.6-.5,1.22-.95,1.87-1.4a14.86,14.86,0,0,1,4.27-2.08,6.62,6.62,0,0,1,2.43-.27,3.65,3.65,0,0,1,2.19,1,4.28,4.28,0,0,0-1.1-2.59,5.28,5.28,0,0,0-4.51-1.19,11.71,11.71,0,0,0-3.06.8,18.64,18.64,0,0,0-5.57,3.5c-.85.79-2.74,4.7-3.87,4.69-2.4,0-2.77-11.28-4-13.43A14.3,14.3,0,0,0,76.41,249v-.07a28.1,28.1,0,0,0-4-.53,27.34,27.34,0,0,0-4.34.1,25.92,25.92,0,0,0-4.25.82,22.33,22.33,0,0,0-4.12,1.63,10.26,10.26,0,0,1,3.71-2.75,14.63,14.63,0,0,1,4.5-1.2,15.18,15.18,0,0,1,4.66.22,11.49,11.49,0,0,1,3.88,1.55,109.39,109.39,0,0,1,4-14.56c1.28-3.91,2.46-7.21,3.55-10.37a17.16,17.16,0,0,0-3.65-.87c-1.45-.21-2.93-.34-4.44-.57s-2.94-.49-4.4-.65a17.87,17.87,0,0,0-2.19-.13,8,8,0,0,0-2.21.26,5.22,5.22,0,0,1,2.11-1,11.56,11.56,0,0,1,2.33-.32,24.1,24.1,0,0,1,4.59.34,33,33,0,0,1,4.48.91,9.76,9.76,0,0,1,3.53,1.83l.76.33c-1.41,2.93-1.05,9.21,2.06,11.2a3.9,3.9,0,0,0,1.9.63,2.72,2.72,0,0,0,2.55-1.33,6.46,6.46,0,0,0,.91-2.48,2.53,2.53,0,0,1-.13.22,17.67,17.67,0,0,0-.27-2.86l-.43-2.81a9.89,9.89,0,0,0-.54-2.59,6.63,6.63,0,0,0-1.59-2.23A4,4,0,0,1,92,223.34a4.74,4.74,0,0,1,.7,1.47,11.36,11.36,0,0,1,.3,1.5,13.46,13.46,0,0,1,.12,3,6.49,6.49,0,0,1-.64,2.43,4,4,0,0,0,.57,1.16,1.69,1.69,0,0,0,2.37.35,3.18,3.18,0,0,0,1.1-1c1.67-2.46,1.13-7.65.77-9.91-.74-4.52-2.88-6.7-7.18-7.13l-1-.09a12.91,12.91,0,0,1-4.88.11,18.67,18.67,0,0,1-4.71-1.46,44.44,44.44,0,0,1-4.27-2.26c-1.38-.8-2.74-1.6-4.16-2.38a17.63,17.63,0,0,1,4.68,1.32c1.5.61,2.94,1.3,4.37,1.94A36.55,36.55,0,0,0,84.43,214c.8.25,1.63.45,2.46.63.64-2.27,1.25-4.68,1.84-7.39,2.67-12.42.63-17.74.78-20.46a1.49,1.49,0,0,1,.17-.67c-.47-.17-.94-.34-1.4-.53a62.18,62.18,0,0,1-6.58-3.3,38.83,38.83,0,0,1-6.07-4.12c2.21,1.06,4.4,2.07,6.61,3.07l3.31,1.5c1.12.51,2.18,1,3.29,1.45s2.24.88,3.38,1.33,2.29.94,3.36,1.49a66.41,66.41,0,0,0,6.74,2.64l-.55-.06.5.14c6.67,1.83,14.49,4.47,21.48,2.62,4-1.08,8-1.75,10.35-5.12C135.74,184.86,131.56,183.74,129.06,183.15ZM84.55,130.37c-5.56-1.06-7.7-7.53-7-12.75a.67.67,0,0,1,1.11.37c.72,4.93,2.22,9.68,7.52,10.25,2,.22,6.25-.55,7.86-2.21s1.86-2.89,2.44-5.17c.44-.27,1.62-1,1.67.48C98.83,127.41,90.24,131.46,84.55,130.37Zm70.72-2.25c-3.09-1.74.8-6.82,2.29-4.31C159.2,124.54,158.53,130,155.27,128.12Z"/><path class="cls-7" d="M86.69,139.11a4.83,4.83,0,0,0-3.56-.69,8.9,8.9,0,0,0-3.43,1.35A10.83,10.83,0,0,0,77,142.23a7.28,7.28,0,0,0-1.51,3.26A21.32,21.32,0,0,1,77.89,143a23.69,23.69,0,0,1,2.63-2c.31-.2.63-.37,1-.55l.36-.21a13.15,13.15,0,0,1,1.58-.71A7.56,7.56,0,0,1,86.69,139.11Z"/><path class="cls-9" d="M107.94,257.7c4-.67,7-4.26,11.1-5.17,1.31-.3,3.53,0,4.51-1.06a.83.83,0,0,0,.13-.18c-.49-.15-.79-.5-1.06-1.49-.34-1.3-.51-4.15,1.35-4.07a3.23,3.23,0,0,1,.51.23c-2-3.34-12.75-3-19.06-1.14a54.47,54.47,0,0,1-2.78,11.48A6.81,6.81,0,0,0,107.94,257.7Z"/><path class="cls-10" d="M122.62,249.8c.27,1,.57,1.34,1.06,1.49a12.45,12.45,0,0,0,1.64.21c2.09.25,3.83.82,3.75.11-.23-1.84-2.74-4.73-4.59-5.65a3.23,3.23,0,0,0-.51-.23C122.11,245.65,122.28,248.5,122.62,249.8Z"/><path class="cls-10" d="M120.22,221.22a6.13,6.13,0,0,1-1.46-1.1c.42,2.13,1.7,6.25,2.44,6.15,1.09-.14,1.88-2.68,2.11-4.45C122.62,222.12,121.64,222,120.22,221.22Z"/><path class="cls-9" d="M116.42,211.73c.65,2.93.17,6.18,2.34,8.39a6.13,6.13,0,0,0,1.46,1.1c1.42.77,2.4.9,3.09.6,1.28-.55,1.49-2.59,1.43-4.78-.11-4.33-.49-7.74-4.51-9.34-3-1.17-5.87-2.55-8.76-3.86-.8-.36-6.91-2.07-10.63-3.05a99.92,99.92,0,0,1,2.93,11C108.49,212.38,114.73,212.17,116.42,211.73Z"/><path class="cls-7" d="M49.33,199.32c-2.5-.76-13.14-.23-9.76,4.33,1.47,2,3.07,3.48,5,3.53.95-1.33,1.87-2.7,2.73-4.11C48,201.88,48.71,200.62,49.33,199.32Z"/><path class="cls-7" d="M39.17,214.4c-.37-.14-.94-.31-1.15-.38a9.21,9.21,0,0,0-3.94-.26,6.73,6.73,0,0,0-4.49,2.12c.79,1.49,3.17,4.75,5,5.18.55-.95,1.12-1.87,1.73-2.75C37.24,217,38.2,215.69,39.17,214.4Z"/><path class="cls-7" d="M24.11,231.06c.38.78,2.27,1.88,3,2.43,1.07.82,1.39,1.27,2.06.88a61.57,61.57,0,0,1,2.34-6.9C28.75,226.47,22.8,228.37,24.11,231.06Z"/><path class="cls-11" d="M98.2,121.34c0-1.43-1.23-.75-1.67-.48-.58,2.28-.7,3.4-2.44,5.17s-5.87,2.43-7.86,2.21c-5.3-.57-6.8-5.32-7.52-10.25a.67.67,0,0,0-1.11-.37c-.75,5.22,1.39,11.69,7,12.75S98.83,127.41,98.2,121.34Z"/><path class="cls-10" d="M58.44,179c2.7-.81,4.82-4.37,4-4.66-3-1.08-9.48-.65-11.41-3.6a7.62,7.62,0,0,0-.18,2,16.59,16.59,0,0,0,.62,5.05,3.35,3.35,0,0,0,1,1.22C54,180.2,56.29,179.62,58.44,179Z"/><path class="cls-6" d="M95.12,188.12c-1.8-.71-3.61-1.3-5.44-2a1.49,1.49,0,0,0-.17.67c-.15,2.72,1.89,8-.78,20.46-.59,2.71-1.2,5.12-1.84,7.39.71.15,1.43.28,2.17.4h0l1,.09c4.3.43,6.44,2.61,7.18,7.13.36,2.26.9,7.45-.77,9.91-.3,2.23-1,5.51-1.87,5.57-1,.07-1.46-3.16-1.6-4.89a4,4,0,0,1-.57-1.16l-.15.25a6.46,6.46,0,0,1-.91,2.48c-.67,2-1.85,5.6-3,5.41-.94-.16-1.42-3-1.47-4.71-3.11-2-3.47-8.27-2.06-11.2l-.76-.33a5.35,5.35,0,0,1,.5.45c-.22-.1-.43-.17-.65-.25-1.09,3.16-2.27,6.46-3.55,10.37a109.39,109.39,0,0,0-4,14.56l.37.23-.4-.07V249a14.3,14.3,0,0,1,8.23,6.27c1.28,2.15,1.65,13.42,4,13.43,1.13,0,3-3.9,3.87-4.69a18.64,18.64,0,0,1,5.57-3.5,11.71,11.71,0,0,1,3.06-.8c.53-1.09,1-2.22,1.45-3.39a54.47,54.47,0,0,0,2.78-11.48c1.43-10.45.6-22.28-1.65-33a99.92,99.92,0,0,0-2.93-11,66.5,66.5,0,0,0-5.45-12.58C95.3,188.17,95.21,188.15,95.12,188.12Z"/><path class="cls-10" d="M94.61,237.77c.88-.06,1.57-3.34,1.87-5.57a3.18,3.18,0,0,1-1.1,1,1.69,1.69,0,0,1-2.37-.35C93.15,234.61,93.56,237.84,94.61,237.77Z"/><path class="cls-10" d="M88.4,239.86c1.13.19,2.31-3.45,3-5.41a2.72,2.72,0,0,1-2.55,1.33,3.9,3.9,0,0,1-1.9-.63C87,236.83,87.46,239.7,88.4,239.86Z"/><path class="cls-10" d="M108.3,271.16a.13.13,0,0,1,0,.06c1.41-.74,5.69.37,5.66.15-.28-2-2.8-4.56-4.83-5.45A8.87,8.87,0,0,1,108.3,271.16Z"/><path class="cls-10" d="M106.8,263.47h0c1.33-.09,2,.92,2.29,2.27a8.93,8.93,0,0,1,4.7.91c.11-3.55-5.08-6.13-8.09-5.77A4.28,4.28,0,0,1,106.8,263.47Z"/><path class="cls-7" d="M86.89,214.66c-.83-.18-1.66-.38-2.46-.63a36.55,36.55,0,0,1-4.35-1.69c-1.43-.64-2.87-1.33-4.37-1.94A17.63,17.63,0,0,0,71,209.08c1.42.78,2.78,1.58,4.16,2.38a44.44,44.44,0,0,0,4.27,2.26,18.67,18.67,0,0,0,4.71,1.46,12.91,12.91,0,0,0,4.88-.11h0C88.32,214.94,87.6,214.81,86.89,214.66Z"/><path class="cls-7" d="M84.11,223.62a9.76,9.76,0,0,0-3.53-1.83,33,33,0,0,0-4.48-.91,24.1,24.1,0,0,0-4.59-.34,11.56,11.56,0,0,0-2.33.32,5.22,5.22,0,0,0-2.11,1,8,8,0,0,1,2.21-.26,17.87,17.87,0,0,1,2.19.13c1.46.16,2.91.42,4.4.65s3,.36,4.44.57a17.16,17.16,0,0,1,3.65.87c.22.08.43.15.65.25A5.35,5.35,0,0,0,84.11,223.62Z"/><path class="cls-7" d="M93.08,229.29a13.46,13.46,0,0,0-.12-3,11.36,11.36,0,0,0-.3-1.5,4.74,4.74,0,0,0-.7-1.47,4,4,0,0,0-2.63-1.64,6.63,6.63,0,0,1,1.59,2.23,9.89,9.89,0,0,1,.54,2.59l.43,2.81a17.67,17.67,0,0,1,.27,2.86,2.53,2.53,0,0,0,.13-.22l.15-.25A6.49,6.49,0,0,0,93.08,229.29Z"/><path class="cls-7" d="M76.45,248.75a11.49,11.49,0,0,0-3.88-1.55,15.18,15.18,0,0,0-4.66-.22,14.63,14.63,0,0,0-4.5,1.2,10.26,10.26,0,0,0-3.71,2.75,22.33,22.33,0,0,1,4.12-1.63,25.92,25.92,0,0,1,4.25-.82,27.34,27.34,0,0,1,4.34-.1,28.1,28.1,0,0,1,4,.53l.4.07Z"/><path class="cls-7" d="M106.8,263.47a3.65,3.65,0,0,0-2.19-1,6.62,6.62,0,0,0-2.43.27,14.86,14.86,0,0,0-4.27,2.08c-.65.45-1.27.9-1.87,1.4A11.86,11.86,0,0,0,94.35,268c-1,1.2-1.81,2.43-2.92,3.53a13.35,13.35,0,0,0,3.76-2.73,21,21,0,0,1,1.7-1.38l1.87-1.27a26.22,26.22,0,0,1,3.81-2.22,5.45,5.45,0,0,1,4.23-.42Z"/><path class="cls-11" d="M157.56,123.81c-1.49-2.51-5.38,2.57-2.29,4.31C158.53,130,159.2,124.54,157.56,123.81Z"/><path class="cls-7" d="M95.58,187c-1.07-.55-2.24-1-3.36-1.49s-2.27-.87-3.38-1.33-2.17-.94-3.29-1.45l-3.31-1.5c-2.21-1-4.4-2-6.61-3.07a38.83,38.83,0,0,0,6.07,4.12,62.18,62.18,0,0,0,6.58,3.3c.46.19.93.36,1.4.53,1.83.68,3.64,1.27,5.44,2,.09,0,.18,0,.27.09a27.07,27.07,0,0,0,6.38,1.4l.55.06A66.41,66.41,0,0,1,95.58,187Z"/><path class="cls-10" d="M51.62,139.06c2.53-.37,7.52-1.73,9.32-3.46-2.87-2.29-10.93-4.83-11.87-9.11a3.93,3.93,0,0,1,0-1.64c-1.06,2.44-1.23,6.9-.87,10.1a15.65,15.65,0,0,0,.27,1.78C49.08,139.62,48.75,139.49,51.62,139.06Z"/><path class="cls-10" d="M63.25,153.71c-2.68-1.24-12.94-3.76-15.14-6.45a1.56,1.56,0,0,1-.42-1c.14,1.5.33,5.43.82,8.61.32,2.06.76,3.81,1.42,4.37C52.67,161.59,61,155.1,63.25,153.71Z"/><path class="cls-2" d="M151.48,101.88a22.61,22.61,0,0,0,10,4.58c.86.16,1.57.13,2.17.21a4.88,4.88,0,0,0,.58-.38,2.6,2.6,0,0,0,.77-1.8,2.63,2.63,0,0,1,.19.41,44.51,44.51,0,0,0-2.11-10.71C162.56,92.48,159,82.35,156,82.9c-1.41.25-2.71,3.77-3.25,4.82a82.39,82.39,0,0,0-3.5,7.92,1.3,1.3,0,0,1-.08.17C148.58,98.49,149.65,100.2,151.48,101.88Z"/><path class="cls-10" d="M184.81,209.06c-.52.51-.51,3.35-.05,3.3-.42,1.4,4.19,0,3.65-2.09C188.1,209.09,185.71,208.18,184.81,209.06Z"/><path class="cls-10" d="M199.88,210.13c-.4-.88-2.39-1.28-3-.47-.34.47,0,2.69.4,2.59C197.16,213.41,200.58,211.7,199.88,210.13Z"/><path class="cls-10" d="M221.66,188c-5-3.69-11.7-4.1-17.95-4.37-14.23-.62-33.66-3.3-46.82,3.28A24.91,24.91,0,0,0,140,174c1.14.23,3.6,4.81,4.23,5.78a34.22,34.22,0,0,1,3.43,6.5c.66,1.74.7,4.4,1.37,6.21a40.3,40.3,0,0,0-11,21,28.4,28.4,0,0,0,.13,13.16c2.86,10,13.07,16.26,23.14,19a59.19,59.19,0,0,0,38.5-2.21c12-5.15,22.16-15,26.87-27.24C230.43,206.6,230,194.05,221.66,188ZM163.1,223.24c-1.66,7.17-10.85,11.31-16.58,5.87-3.94-3.74-3.55-10.84-2.6-15.77.66-3.41,2.26-7,5.31-8.89a8.5,8.5,0,0,1,12.13,2.75c.88,1.19-.35,3.45-1.54,4.12-1.77,1-2.69.34-4.28-.32-3.58-1.5-6.18,2.53-6.69,5.68s.74,10.47,5.15,10.19a4.85,4.85,0,0,0,4.49-4.43,1.05,1.05,0,0,0-1.06-1.16c-1.1,0-2.15.36-2.57-.74-.88-2.26,1.43-3.31,3.12-3.73,1.29-.32,3.65-.75,4.65.36C163.83,218.51,163.45,221.7,163.1,223.24Zm16.45-.59c-2.59,3.14-4.58-1.47-6.91-2.36-.89,1.65,1.06,4.16.28,6-.49,1.11-1.81.94-2.51,1-1.2-3.8-2.42-7.61-3.35-11.49a22.73,22.73,0,0,1-.83-5.73c0-2.13.66-3.11,2.74-3.69a10.26,10.26,0,0,1,7.23.58c1.43.68,3.18,1.66,3.47,3.35.56,3.3-2.62,5.64-5.15,7.08a11.46,11.46,0,0,0,1.36.67,20.14,20.14,0,0,1,2.46,2C179.63,221,180.8,221.14,179.55,222.65Zm8.88-6.09a18.24,18.24,0,0,1,1.82,2c1,1,1.93,1.33.67,2.45-2.63,2.32-3.69-1.87-5.56-2.94-1,1.29.35,3.68-.56,5.1-.56.87-1.66.55-2.26.5-.51-3.4-1-6.8-1.3-10.22a20.23,20.23,0,0,1,.06-5c.32-1.8,1-2.55,2.83-2.76a8.79,8.79,0,0,1,6.06,1.46c1.13.77,2.48,1.84,2.5,3.32,0,2.87-3,4.43-5.33,5.31A9.27,9.27,0,0,0,188.43,216.56Zm14.85,1.66c-1.75,2.17-3.14-1-4.75-1.56-.59,1.14.76,2.84.24,4.07-.32.76-1.23.65-1.71.69-.85-2.6-1.71-5.19-2.37-7.84a16.19,16.19,0,0,1-.62-3.91,2.21,2.21,0,0,1,1.85-2.54,7,7,0,0,1,5,.34c1,.46,2.18,1.11,2.39,2.27.41,2.25-1.75,3.87-3.46,4.88a7.21,7.21,0,0,0,.93.44,14.65,14.65,0,0,1,1.7,1.33C203.32,217.07,204.12,217.18,203.28,218.22Zm11.34-1c-5.15,0-2.16-6.34.2-4.72l-.18-.14C217.33,212.34,218.11,217.17,214.62,217.18Zm.93-10.25c-.3,1.16-1.41,4.14-2.8,2-.83-1.94-.92-4.24-1.5-6.26a41.69,41.69,0,0,1-1.41-5.89c-.11-.74-.57-2.5-.16-3.24.8-1.48,6.25-3.53,8-3.42C217.28,195.79,217,201.36,215.55,206.93Z"/><path class="cls-10" d="M174.71,210.76c-.57-1.3-3.48-1.91-4.35-.73-.51.68,0,3.93.54,3.79C170.68,215.51,175.71,213.06,174.71,210.76Z"/><path class="cls-9" d="M178.34,220a20.14,20.14,0,0,0-2.46-2,11.46,11.46,0,0,1-1.36-.67c2.53-1.44,5.71-3.78,5.15-7.08-.29-1.69-2-2.67-3.47-3.35a10.26,10.26,0,0,0-7.23-.58c-2.08.58-2.71,1.56-2.74,3.69a22.73,22.73,0,0,0,.83,5.73c.93,3.88,2.15,7.69,3.35,11.49.7,0,2,.13,2.51-1,.78-1.79-1.17-4.3-.28-6,2.33.89,4.32,5.5,6.91,2.36C180.8,221.14,179.63,221,178.34,220Zm-7.44-6.13c-.52.14-1.05-3.11-.54-3.79.87-1.18,3.78-.57,4.35.73C175.71,213.06,170.68,215.51,170.9,213.82Z"/><path class="cls-9" d="M192.69,210.5c0-1.48-1.37-2.55-2.5-3.32a8.79,8.79,0,0,0-6.06-1.46c-1.84.21-2.51,1-2.83,2.76a20.23,20.23,0,0,0-.06,5c.27,3.42.79,6.82,1.3,10.22.6,0,1.7.37,2.26-.5.91-1.42-.41-3.81.56-5.1,1.87,1.07,2.93,5.26,5.56,2.94,1.26-1.12.29-1.43-.67-2.45a18.24,18.24,0,0,0-1.82-2,9.27,9.27,0,0,1-1.07-.75C189.7,214.93,192.72,213.37,192.69,210.5Zm-7.93,1.86c-.46,0-.47-2.79.05-3.3.9-.88,3.29,0,3.6,1.21C189,212.36,184.34,213.76,184.76,212.36Z"/><path class="cls-9" d="M202.43,216.39a14.65,14.65,0,0,0-1.7-1.33,7.21,7.21,0,0,1-.93-.44c1.71-1,3.87-2.63,3.46-4.88-.21-1.16-1.41-1.81-2.39-2.27a7,7,0,0,0-5-.34,2.21,2.21,0,0,0-1.85,2.54,16.19,16.19,0,0,0,.62,3.91c.66,2.65,1.52,5.24,2.37,7.84.48,0,1.39.07,1.71-.69.52-1.23-.83-2.93-.24-4.07,1.61.59,3,3.73,4.75,1.56C204.12,217.18,203.32,217.07,202.43,216.39Zm-5.13-4.14c-.36.1-.74-2.12-.4-2.59.59-.81,2.58-.41,3,.47C200.58,211.7,197.16,213.41,197.3,212.25Z"/><path class="cls-9" d="M209.68,193.53c-.41.74,0,2.5.16,3.24a41.69,41.69,0,0,0,1.41,5.89c.58,2,.67,4.32,1.5,6.26,1.39,2.15,2.5-.83,2.8-2,1.45-5.57,1.73-11.14,2.09-16.82C215.93,190,210.48,192.05,209.68,193.53Z"/><path class="cls-9" d="M214.64,212.32l.18.14c-2.36-1.62-5.35,4.72-.2,4.72C218.11,217.17,217.33,212.34,214.64,212.32Z"/><path class="cls-9" d="M158,216.81c-1.69.42-4,1.47-3.12,3.73.42,1.1,1.47.77,2.57.74a1.05,1.05,0,0,1,1.06,1.16,4.85,4.85,0,0,1-4.49,4.43c-4.41.28-5.66-7-5.15-10.19s3.11-7.18,6.69-5.68c1.59.66,2.51,1.33,4.28.32,1.19-.67,2.42-2.93,1.54-4.12a8.5,8.5,0,0,0-12.13-2.75c-3,1.9-4.65,5.48-5.31,8.89-.95,4.93-1.34,12,2.6,15.77,5.73,5.44,14.92,1.3,16.58-5.87.35-1.54.73-4.73-.47-6.07C161.63,216.06,159.27,216.49,158,216.81Z"/></svg>