<?xml version="1.0" encoding="utf-8"?>
<!-- Generator: Adobe Illustrator 24.2.0, SVG Export Plug-In . SVG Version: 6.00 Build 0)  -->
<svg version="1.1" id="tigre2" xmlns="http://www.w3.org/2000/svg" xmlns:xlink="http://www.w3.org/1999/xlink" x="0px" y="0px"
	 viewBox="0 0 368.5 340.2" style="enable-background:new 0 0 368.5 340.2;" xml:space="preserve">
<style type="text/css">
	.st0{fill:#78B2A9;}
	.st1{fill:#2E5C5C;}
	.st2{fill:#D1D9AF;}
	.st3{fill:#DC7F30;}
	.st4{fill:#362630;}
	.st5{fill:#F39440;}
	.st6{fill:#FEFEFD;}
	.st7{fill:#42313F;}
	.st8{fill:#F6EEBF;}
	.st9{fill:#BC721B;}
	.st10{fill:#F8D3B7;}
	.st11{fill:#FFFFFF;}
	.st12{fill:none;}
</style>
<g>
	<g>
		<path class="st0" d="M44.7,318.8c5.1-12,6.6-25.5,9.1-38.1c0.6-3.1,1-6.3,1-9.5c0-14.4,0.5-29,0.9-43.5c0-0.9,0.3-14.4,0.7-14.4
			c-0.6,0-0.6-0.2-3.5-2c-2.8-1.7-5.7-3.4-16.7-5.9c-1.8-0.4-3.4-0.8-4.9-1.1c-1.1,1-2.4,1.8-3.6,2.6c-1.6,1-3,2-3,2
			c-4.7,3.2-4,2.4-8.6,5.3c-5.4,3.5-5.7,3.1-6.9,6.8c-0.7,2.2-1.4,3.2-1.7,7.1c-0.5,6.9,0.5,13,2.3,22.4c0.4,2,1.7,7.7,2.2,9.6
			c1.8,6.2,3.5,7.8,6.8,16.3c4.9,13,5.2,9.7,11.8,23.1c4.8,9.8,4,9.7,6.3,14.8c0.6,1.4,2,3.9,3,5.4c0.8,1.1,2.4,3,2.5,3.1
			c0,0.3,0,0.6,0.1,0.8C43.3,322,44,320.4,44.7,318.8z"/>
		<path class="st0" d="M69.7,166.2c0.4-1.4,0.7-2.7,0.6-3.9c-0.3-2.7-3.7-5-5.6-6.9c-3.1-3.2-6.3-6-10-8.6c-3.9-2.7-6-3.7-10-5.3
			c-6.8-2.9-5.6-1.9-11.3-3.5c-0.3-0.1-1.6-0.4-2-0.4c-0.6-0.1-0.9-0.8-0.4-1.3c-3,1.2-5.3,4.9-9,14c-5.2,12.6-4.5,8.3-10.6,24.9
			c-1.8,5.1-5,14.8-5.3,20.2c-0.1,1.7-0.2,4.3,1,5.8c0.1-0.1,0.1-0.2,0.3-0.2c0.8-0.3,0.3-0.1,8.4-0.7c0.8-0.1,4.1-0.4,7.2-0.1
			c6.7,0.6,14.1,1.9,20.8,4c2.2,0.7,4.3,1.3,6.4,2.2c2.7,1.2,5.7,4.7,7.5,1.9c1.8-2.6,2-8.3,2.8-11.3c1.1-4,2.2-7.9,3.5-11.8
			c1.3-4,2.1-8.2,3.1-12.3C67.6,171,68.9,168.6,69.7,166.2z"/>
		<path class="st0" d="M9,202.4c0.1,0,0.2,0.1,0.4,0.1c0.6,0.1,1.1,0,1.6-0.2c-0.3,0-0.5,0-0.8,0.1C9.7,202.4,9.3,202.4,9,202.4z"/>
		<path class="st0" d="M69.5,158.5c0.1,0.5,0.1,1.1,0.5,1.4c2.4,2.6,3.7-1.5,4.2-3.6c1.8-7.4,5-14.5,7.4-21.8
			c1.7-5.6,2.5-11.4,3.2-17.2c0.4-3,1-6,1.3-9c0.5-5.4,0.9-10.7,1.4-16.1c0.2-2.4,0.4-4.7,0.6-7.1c0.3-2.5,0.7-4.9,1.1-7.3
			c0.8-4.6,2-9.5,3.6-14.1c1.5-4.4,3.6-7.8,6.3-11.7c0.3-0.4,0.9-0.5,1.3-0.2c1.4,1.1-1.9,4-2.4,4.9c-1.6,2.4-2.4,6.2-3.4,9
			c-1.4,4.1-2.3,8.4-3.2,12.6c-0.9,4.2-1.9,8.4-2,12.6c-0.1,2.5,1.5,15.3-0.3,16.7c4.3-3.1,9.3-4.5,14.5-4.7c2.2-0.1,6,0.3,8.5,0.6
			c-3.9-0.8-9.3-1.4-12.5-1c-0.3,0-0.6,0.1-0.6,0.1c3.4-2.3,6.7-4.2,11.6-4.2c3.3,0.1,8.4,1.3,9.3,1.6c0.5,0.2,1.1,0.4,1.7,0.3
			c0.9-0.1,1.7-0.9,1.8-1.8c0.1-0.5-0.1-0.9-0.2-1.3c-1.3-4,0.3-22.3-6.2-37.4c-2.9-6.7-6.6-11.1-14.5-12.6
			c-8-1.5-12.6,1.2-16.5,3.7c-2.2,1.4-8.3,5.8-13,10.9c-3.1,3.3-6.2,8.3-11.2,14.6c-2.4,3-3.8,5.2-3.8,5.2
			c-6.7,9.5-12.5,19.6-18,29.8c-2.8,5.2-5.1,7.1-0.7,11.4c2.4,2.4,6.2,3.4,8.2,6.1c2.5,3.3,5.3,10.2,6.8,14.4c0.5,1.4,5.2,3.9,6.5,5
			c2.1,1.9,4,3.9,5.9,5.9c0.9,1,2,1.9,2.6,3.1C69.4,157.7,69.4,158.1,69.5,158.5z"/>
		<path class="st0" d="M116.7,107.6c-2.3-0.5-2.4-0.7-3.8-1.2c-1.3-0.3-7.5-1.5-11.5-1.3c-3.4,0.2-6.7,1-9.7,2.7
			c-3.4,1.9-3.8,3.8-4.7,7.6c-1.2,5.4-2.1,10.9-3.1,16.4c-1,5.5-1.6,12.2-4.1,17.2c-3.2,6.4-6.4,12.9-8.9,19.6
			c-1.7,4.5-2.6,9.3-3.8,14c-1.1,4.5-3.5,8.3-4.4,12.9c-1.4,7-2.1,14-2.5,21.1c-0.1,2.3-1,5.7-0.5,8c0.5,2.2,3,6.8,5.8,6.7
			c1.6,0,2-1.6,3-2.4c1.4-1.1,2.9-1.5,4.6-2.3c2.9-1.4,6-2.8,9.2-3.6c-0.8,0.2,5-1.4,10.4-2.1c5-0.6,7.2-0.2,10.8-0.2
			c3.4,0,3.9,0,5.3,0.5c0,0,0.1,0,0.1,0.1c0.7-7.3,2.2-14.4,4.7-21.3c1-2.9,2.3-5.8,3.7-8.6c0.7-5.5,0.9-7.9,1-23.3
			c0-2.2,0.1-4,0.1-5.6c0.6-12.3,13.8-49.1-0.8-57.2c0.1,0.1,0.2,0.2,0.3,0.3C118.5,106.4,117.7,107.8,116.7,107.6z M100.9,197.3
			c0,0,0.1,0,0.1,0C100.9,197.3,100.9,197.3,100.9,197.3z M83.5,222.5C83.4,222.6,83.5,222.5,83.5,222.5
			C83.6,222.5,83.6,222.5,83.5,222.5z"/>
		<path class="st0" d="M104.3,223.4c-6.6,0-9.6-0.3-16,0.7c-8,1.2-15.1,3.7-22.3,8.3c2.1,1.5,4.3,2.4,6.7,2.9
			c1.9-0.9,3.6-1.6,5.2-2.1c5.3-1.7,22.2-5.4,27.8-4.3c0.5,0.1,0.8,0.4,0.9,0.7c0.6,0,1.2,0,1.8,0c0-2.1,0.1-4.2,0.2-6.3
			C108.1,223.4,105.6,223.4,104.3,223.4z"/>
		<path class="st0" d="M99.2,254c-0.7,0.1-1.3,0-2-0.1c-1.5-0.2-11.7-0.2-18.6,1.9c-4.3,1.3-12.9,5.5-19.5,10.3
			c-0.1,2.2-0.2,4-0.3,6.2c2.9-1.9,9.5-5.1,13.7-7c10.4-4.7,15.1-4.3,16.8-4.4c1.7-0.1,2.8-0.3,4.5-0.2c1.1,0,1.4,1.8,0.3,2.2
			c-4.3,1.6-7.1,0.9-13.1,2.4c-8.2,2.2-18.8,7.3-22.4,9.8c-0.3,2.6-0.5,4-0.9,6.2c4.8-3.9,20.3-12.2,30.7-13.2
			c1.9-0.2,2.2-0.1,3.5-0.2c1.1-0.1,1.1,1.2,0.4,1.5c-6.3,2.3-10.5,0.2-29.9,11.2c-1.6,0.9-3.1,1.9-5.4,4.1
			c-0.5,2.2-0.8,3.5-1.6,8.1c0.5-0.5,1-1,1.5-1.4c5.9-5.1,13.3-9.1,20-12c3.4-1.4,6.8-2.7,10.7-2.8c0.3,0,0.6,0,0.8,0.2
			c0.5,0.4,0.5,1,0.2,1.5c-0.5,0.6-1.2,0.4-5.4,1.5c-2.1,0.6-3.1,1-4.4,1.5c-15.4,6.1-20.4,11.1-24.1,14.9c-0.2,0.9-0.5,2.7-0.7,3.7
			c5.8-4.5,17.3-9.6,24.6-11.6c0.5-0.1,1-0.3,1.5-0.5c0.6-0.2,1-0.4,1.9-0.6c0.6-0.1,1.1,0.4,1.2,0.9c0.1,1.1-1.1,1.3-2.2,1.7
			c-3.5,1.1-6.8,1.7-19.1,7.7c-4.5,2.2-6.7,3.9-8.5,5.5c-0.5,2.1-1.2,4.6-1.7,6.5c10.9-4.3,12.6-6.9,17.9-7.8
			c0.9-0.1,1.5,0.9,0.9,1.6c-0.2,0.3-1.5,0.9-1.8,1c-6.1,2.5-2.3,2.2-18,8.6c-1.7,5.5-2.6,8-3.6,10.2c0.6-0.3,1.6-0.7,3.6-1.8
			c19.1-9.9,25.8-15.4,41.8-43.2c4-6.9,6.5-14.2,8.1-22c0.9-1,0.5-2.4-0.2-2.9c-0.1-0.1-0.2-0.2-0.3-0.2
			C99.9,253.5,99.6,253.9,99.2,254z"/>
		<path class="st0" d="M74,248.6c-1.4,0.8-2.8,1.6-4.2,2.5c-3.9,2.4-5.5,3.9-8.1,6.3c-2.6,2.6-2.3,2.4-2.5,2.5c0,0.8,0,1.6,0,2.9
			c4.3-3.1,10.9-6.6,11.5-6.9c4.8-2.5,9.2-4,14.7-4.6c0.7-0.5,1.3-0.9,2-1.4C82.8,250.1,78.3,249.6,74,248.6z"/>
		<path class="st0" d="M45.2,251.2c0.1,0.1,0.1,0,0.2,0.1C45.3,251.3,45.1,251.2,45.2,251.2z"/>
		<path class="st0" d="M33.9,136c1.2,0,2.2,0,3.6,0.2c-1-0.2-1.9-0.3-2.8-0.4c-0.9-0.1-1.8,0-2.6,0.1C32.5,136,33,136,33.9,136z"/>
		<path class="st0" d="M101.7,47.1c-0.1,0-0.2,0-0.2,0C101.5,47.1,101.6,47.1,101.7,47.1z"/>
		<path class="st0" d="M77.2,235.8c6.7,0.1,13.8-2.3,20.5-4.3c-2.3,0.2-5.3,0.7-9.5,1.5C84,233.8,80.4,234.7,77.2,235.8z"/>
		<path class="st0" d="M101.5,47C101.5,47,101.5,47,101.5,47L101.5,47z"/>
		<path class="st0" d="M102.5,47.2c-0.3-0.1-0.6-0.1-0.8-0.1C101.8,47.1,102.1,47.2,102.5,47.2z"/>
		<path class="st0" d="M103.2,47.4C103.5,47.4,103.5,47.4,103.2,47.4L103.2,47.4z"/>
		<path class="st0" d="M103,47.3c0.1,0,0.2,0,0.2,0C103.2,47.4,103.1,47.3,103,47.3z"/>
		<path class="st0" d="M102.5,47.2c0.2,0,0.4,0.1,0.5,0.1C102.8,47.3,102.6,47.3,102.5,47.2z"/>
		<path class="st0" d="M43.3,137.9c-0.8-0.3-1.7-0.6-2.7-0.8c1.2,0.4,2.9,1,4.8,1.8C44.8,138.5,44,138.2,43.3,137.9z"/>
		<path class="st0" d="M60.8,243.7c-0.5-0.3-1-0.6-1.5-0.9c0,0.9,0,1.6,0,2.6C59.8,244.8,60.3,244.2,60.8,243.7z"/>
		<path class="st0" d="M59.2,248.6c0,3.8,0,4.4,0,8.2c2.7-2.8,5.9-5.6,11.5-9c-2-0.6-3.9-1.2-5.7-2c-0.1,0-0.2-0.1-0.3-0.1
			c-0.7-0.2-1.4-0.5-2.1-0.7C61.5,246,60.3,247.2,59.2,248.6z"/>
		<path class="st1" d="M103.4,220.7c-3.7,0-5.8-0.4-10.8,0.2c-5.4,0.6-11.1,2.3-10.4,2.1c-4.4,1.2-11.4,4.3-17.6,8.4
			c0.5,0.4,1,0.8,1.4,1.1c7.3-4.7,14.3-7.1,22.3-8.3c6.4-1,9.4-0.7,16-0.7c1.3,0,3.8,0.1,4.3-0.1c0-0.7,0.1-1.3,0.2-2
			c0,0-0.1-0.1-0.1-0.1C107.3,220.7,106.7,220.7,103.4,220.7z"/>
		<path class="st1" d="M59.2,262.9c0-1.4,0-2.1,0-2.9c0.2-0.1,0,0.1,2.5-2.5c2.6-2.3,4.2-3.8,8.1-6.3c1.4-0.9,2.8-1.7,4.2-2.5
			c-1.1-0.3-2.2-0.5-3.3-0.9c-5.6,3.4-8.8,6.3-11.5,9c0-3.9,0-4.4,0-8.2c1.2-1.4,2.3-2.6,3.4-3.7c-0.3-0.1-0.6-0.2-0.9-0.3
			c0-0.1,0.1-0.2,0.1-0.3c-0.4-0.2-0.7-0.4-1.1-0.6c-0.5,0.5-1,1.1-1.6,1.7c0-1,0-1.7,0-2.6c-3.9-2.5-7.4-5.8-9.8-9.7
			c-11.2-6-22.7-7.7-34.8-6.3c-2.6,0.3-3,0.4-2.9,0.8c0.1,0.5,0.5,0.3,1.5,0.3c2,0,14,0.5,23.9,3.2c0.9,0.3,1.8,0.5,2.6,0.8
			c0.9,0.3,1.8,0.6,2.7,1c5.6,2.2,9.3,4.5,9.2,4.4c1.5,1,2.5,1.6,3.3,2.3c0,1.6-0.1,3-0.1,6.2c-9.8-6-13.2-8-24-10
			c-10.6-1.9-15.2-1.7-20.3-0.9c-0.5,0.1-0.4,0.8,0,0.8c6,0.1,15.9,1.5,24.3,3.7c7.3,2.1,13.7,5.8,20.1,9.7c0,2.2,0,4.3,0,6.3
			c-9.6-7.8-15.3-10.8-38-13.8c-1.2-0.2-2.8-0.3-4-0.3c-1.2,0-2.5-0.1-2.6,1c-0.1,0.5,0.3,1.1,0.9,1.2c28.1,3.1,32.6,5.7,43.8,14.9
			c0,1.4,0,2.8,0.1,4.2c-4.6-3.2-7.3-5.4-11.4-7.2c-6.1-3.5-14.7-5.9-21-6.5c-2.7-0.3-6.7,0.1-6.7,0.1c-3.3-0.3-3.6-0.3-4-0.1
			c-0.7,0.5-0.3,1.6,0.4,1.7c0.1,0,1.1,0.1,1.1,0.1c0,0,0,0,0,0s1.5,0.1,4.2,0.2c9.7,0.4,18.8,3,26,6.5c1.5,0.9,11.1,7.2,11.4,7.4
			c0,1.9-0.1,3.8-0.2,5.8c-7.2-5.8-13.2-12.2-39-14c-0.9-0.1-2.1-0.2-2.4-0.1c-0.4,0.2-0.6,0.6-0.4,1c0.2,0.6,0.7,0.6,3.5,0.8
			c25.5,2.6,27.9,7,38.1,15.1c-0.2,2.5-0.5,5-0.9,7.4c-4.2-4.2-11.4-12.5-30.5-15.6c-2.2-0.3-4.8-0.4-6-0.3c-0.9,0.1-1.2,1.5,0,1.8
			c6.3,1.6,13.5,1,25,7.6c3.3,2.1,5.1,3.4,10.6,9.1c0.1,0.1,0.2,0.2,0.3,0.3c-0.4,2.1-0.8,4.1-1.2,6.2c-8.6-9.8-13.4-11.6-19-13.3
			c-3.1-1-7.3-2.1-10.6-2.1c-0.4,0.1-0.7,0.4-0.7,0.7c-0.2,1.2,1.1,0.9,6.6,2.4c9.2,2.7,13.9,4.7,23.1,15.8c-0.5,3-0.4,2.4-0.6,3.6
			c-10.1-10.8-17.5-12.5-24-14.4c-0.3-0.1-1.6-0.5-2.1-0.6c-0.4-0.1-1,0.2-1.1,0.9c-0.2,1.3,1.3,1.2,3.1,1.5
			c4.4,0.9,9.6,2.9,14.9,6.4c2.6,1.7,5,3.9,6.8,5.6c2,2.1,1.9,2.1,2.3,2.1c-0.3,1.7-0.7,3.2-1.1,4.9c-0.8-1.1-2.7-4.1-8.4-7.9
			c-5-3.2-9.3-4.2-10.6-4.6c-1.9-0.5-2.2,1.8-1,2.3c1,0.4,2,0.4,3.8,1.1c2,0.8,7.2,3.5,10.7,6.4c1.7,1.4,2.4,2.2,4.2,4.9
			c0.1,0.2,0.4,0.3,0.6,0.4c-0.4,1.7-0.3,1-0.7,2.4c-5-5.4-8.9-6.3-12.9-8.3c-1.3-0.7-2.2,0.8-1.3,1.7c1.3,1.1,9.4,3.7,13.4,9.1
			c-0.5,1.6-1,3.3-1.6,5.2c-1.1-1.5-4.2-4.7-5.3-4.9c-0.6-0.1-1.2,0.2-1.5,0.8c-0.8,1.8,2.4,3,4.6,6.4c0.3,0.7,0.5,1.4,0.8,1.6
			c-0.4,0.9-1.1,2.2-1.8,3.6c-1.3,2.5-2.8,5.1-2.6,4.8c-2.7,4.5-4,5.3-3.8,6.9c0.3,2,2.8,2.7,4,1.1c0.6-0.6,0.6-0.9,2-3.8
			c2.5-5.1,3.8-7.1,4.9-9.5c1-2.2,1.9-4.7,3.6-10.2c15.8-6.3,12-6,18-8.6c0.3-0.1,1.6-0.7,1.8-1c0.6-0.7-0.1-1.7-0.9-1.6
			c-5.4,0.8-7,3.5-17.9,7.8c0.5-1.9,1.2-4.3,1.7-6.5c1.8-1.5,4-3.3,8.5-5.5c12.4-6,15.6-6.6,19.1-7.7c1.2-0.3,2.4-0.6,2.2-1.7
			c-0.1-0.5-0.6-1-1.2-0.9c-0.8,0.2-1.3,0.4-1.9,0.6c-0.5,0.2-1,0.3-1.5,0.5c-7.3,2.1-18.8,7.1-24.6,11.6c0.2-1.1,0.5-2.8,0.7-3.7
			c3.7-3.8,8.7-8.8,24.1-14.9c1.3-0.5,2.2-0.9,4.4-1.5c4.2-1,4.9-0.9,5.4-1.5c0.4-0.5,0.3-1.1-0.2-1.5c-0.2-0.2-0.5-0.2-0.8-0.2
			c-3.9,0.1-7.4,1.4-10.7,2.8c-6.8,2.9-14.2,6.9-20,12c-0.5,0.5-1,1-1.5,1.4c0.8-4.5,1.1-5.9,1.6-8.1c2.4-2.2,3.8-3.2,5.4-4.1
			c19.4-11,23.6-9,29.9-11.2c0.7-0.3,0.7-1.6-0.4-1.5c-1.2,0.1-1.5,0-3.5,0.2c-10.4,1.1-25.9,9.3-30.7,13.2c0.4-2.2,0.7-3.6,0.9-6.2
			c3.6-2.5,14.3-7.6,22.4-9.8c6-1.5,8.8-0.9,13.1-2.4c1.1-0.4,0.8-2.2-0.3-2.2c-1.8-0.1-2.8,0.1-4.5,0.2c-1.7,0.1-6.4-0.3-16.8,4.4
			c-4.2,1.9-10.7,5.1-13.7,7c0.2-2.2,0.3-4,0.3-6.2c6.6-4.8,15.2-9,19.5-10.3c6.9-2,17.1-2.1,18.6-1.9c0.7,0.1,1.3,0.1,2,0.1
			c0.4,0,0.7-0.5,0.7-0.9c0-0.2-0.1-0.4-0.3-0.5c-1.8-1.2-4.6-1.4-6.9-1.5c-2.7-0.1-5.1,0-7.3,0.3c-5.5,0.6-9.9,2.1-14.7,4.6
			C70,256.3,63.4,259.8,59.2,262.9z M45.2,251.2c-0.1,0,0.1,0.1,0.2,0.1C45.3,251.3,45.3,251.3,45.2,251.2z"/>
		<path class="st1" d="M101,197.3c-0.1,0-0.1,0-0.1,0C100.9,197.3,100.9,197.3,101,197.3z"/>
		<path class="st1" d="M52.9,211.4c2.9,1.9,2.9,2,3.5,2c-0.2,1.2-0.3,2.5-0.4,3.7c-5.9-3.1-14.5-7.5-25.9-6.9
			c-2.2,0.1-5.7,0.4-7.7,1.4c-0.7,0.3-0.3,1.2,0.3,1.1c0.9-0.1,8.3-0.8,17.4,1.4c3.6,0.9,6.2,1.6,10.5,3.6c0.5-0.1,1.1-0.2,1.6-0.1
			c1.2,0.1,2.3,0.8,3.2,1.6c2.1,1.9,3.2,4.7,4.8,7.1c0.2,0.4,0.5,0.7,0.7,1.1c0,0,0.1,0,0.1,0.1c4.6-2.3,20.2-9.9,36.5-11.5
			c8.4-0.8,8.9,0.1,9.1-0.9c0-0.3-0.1-0.6-0.7-0.7c-14.9-2.7-32.6,3.8-46.1,10.6c0-1.5,0.1-2.9,0.2-4.4c0.7-0.5,1.3-0.9,2-1.4
			c4.5-3,7.8-5,12.8-6.9c11.9-4.5,18-4,24.5-4.5c2.9-0.2,4.9-0.4,7.3-0.2c0.8,0,0.8-0.9,0.3-1.1c-1.6-0.5-3-1-6-1
			c-6.4-0.1-21.7-1-39.1,10.8c-0.5,0.3-1,0.7-1.5,1.1c0.1-1.3,0.3-3,0.5-4.3c5.5-4.7,15.1-10.3,24.1-12.4c4.2-0.5,4.1-0.5,4.3-0.8
			c7.1-1,13.4-1,20.7,0.1c0.4,0.1,0.8-0.2,0.9-0.5c0.2-0.5-0.1-1.1-0.5-1.2c-0.9-0.3-3.8-0.9-8.8-0.9c-7.5,0-12.6,0.1-19.5,1.9
			c-0.2,0.1-3.6,1.1-5.6,1.9c-0.4,0.2-3.4,1.1-5.7,2.2c-2.2,1.1-3.8,2.2-5.4,3.1c-0.9,0.5-2.6,1.4-4,2.3c0,0-0.1,0-0.1,0.1
			c0.3-2.2,0.7-4.8,1.1-7c9.2-8,19.7-9.4,34.4-10.3c6.7-0.4,9.4,0.3,13.5,0.7c0.9,0.1,1.6-0.8,1.3-1.6c-0.1-0.3-0.4-0.6-0.6-0.6
			c-3.4-1-7.9-1.4-11.4-1.3c-5.2,0.1-13.4,1.2-18.1,2.2c-11.1,2.4-16.2,6.5-18.5,8.3c0.6-3.3,1.5-7,2-8.5c4.7-3.5,10.1-6.9,19.7-8.4
			c14.9-2.2,22.8-0.1,24.7,0.2c1.5,0.2,1.8-2,0.3-2.3c-1.1-0.3-1.2-0.3-1.8-0.3c-2.4-0.1-15.2-1.5-24.9,0.7
			c-7.1,1.6-10.5,2.8-17.2,7.4c1-3.2,2.1-6.3,3.2-9.5c2.5-1.3,6.3-3.5,18.2-4c3.9-0.2,12.1,0.6,16,1.1c1,0.1,1.9,0.3,2.9,0.4
			c0.9,0.1,1.7-0.8,1.3-1.7c-0.1-0.3-0.4-0.6-0.7-0.7c-3.5-1.2-25-3.6-36.8,2.3c0.2-0.6,1.5-4.2,1.6-4.6c8.2-3.7,13.6-4.8,13.2-4.7
			c7.5-1.8,14.6-2.8,22.9-1.7c4.6,0.6,6,1.5,6.5,0.4c0.2-0.6-0.1-1.1-0.5-1.3c-1.6-0.6-4.1-0.8-5.7-1c-5.7-0.6-11.7-0.6-23.3,2.1
			c-5.4,1.3-10.1,3.4-12.4,4.3c1-2.8,1.6-4.4,2.4-6.4c5.8-2.7,7.5-3.3,12.2-4.6c6.6-1.6,13.1-2.4,20-1.7c3.9,0.4,5.4,1,6.2,0.4
			c0.6-0.4,0.7-1.2,0.3-1.8c-0.3-0.4-0.7-0.5-1.4-0.6c-0.6-0.1-4.3-0.5-6.7-0.6c-9.1-0.2-18.2,1.3-29.5,6.5c2.6-6.5,0.6-1.6,2.1-5.2
			c3.4-2.3,8.6-6.6,26.4-6.7c4.4,0,5.8,0.2,7.1,0.4c1.2,0.1,2.5,0.5,3.2,0.3c1.1-0.5,1.8-2.6-1.4-3.1c-4.6-0.8-22.7-1.6-34,5.5
			c0.9-2.2,1.7-4.5,2.7-7.2c1-1.1,1.5-1.6,1.1-1.2c1.9-1.7,4.6-4,12.8-5.4c2.5-0.4,5.3-0.7,8.3-0.8c8.6,0.1,13,2.9,13.8,1
			c0.2-0.4,0-0.9-0.3-1.2c-0.5-0.5-1.2-0.6-1.9-0.8c-4.5-1.1-6.1-1.1-8.1-1.2c-7.3-0.3-18.6,1.8-24.5,6.5c0.6-1.6,1.3-4,1.9-5.9
			c0.1-0.1,0.6-0.6,0.7-0.7c1.7-1.6,3.7-2.8,5.8-3.4c8.4-2.8,13.9-3.4,23.7-1.9c1.7,0.2,4.1,0.8,4.4-0.9c0.1-0.5-0.2-1.1-0.8-1.3
			c-0.7-0.3-0.8-0.4-6.9-0.7c-12.5-0.6-22.8,3.6-26,6.2c0.7-2.4,1.3-5.7,1.6-8.1c3.7-2,10.8-3.9,19.6-3.3c7.1,0.5,10.4,2.7,11.2,0.8
			c0.6-1.4-1.2-2-2.7-2.3c-9.4-2.1-20.8-0.5-27.9,2.8c0.3-1.9,0.3-2,0.5-3.9c0.4,0,0,0.1,4.1-1.9c3-1.4,6-2,9.2-2.2
			c12.9-1,16.1,2.7,17.1,0.3c0.3-0.7,0-1.6-0.8-1.9c-3.5-1.4-9.7-1.5-13.4-1.2c-8.6,0.5-12.3,2.5-15.9,4.3c0.3-2.2,0.3-2.9,0.7-6.2
			c2.4-1.8,5.6-4.2,12.6-4.6c4-0.2,10.2,1,11.5,1.3c1.4,0.5,1.6,0.7,3.8,1.2c1,0.2,1.8-1.2,1.1-1.9c-0.1-0.1-0.2-0.2-0.3-0.3
			c-0.5-0.5-1.1-0.8-3.4-1.4c-0.4-0.1-1.2-0.2-2.1-0.3c-2.5-0.3-6.3-0.7-8.5-0.6c-5.2,0.2-10.1,1.6-14.5,4.7c0.2-2,0.5-4.6,0.6-6.2
			c2.5-2.4,4.1-4,10-5.6c4.7-1.1,10.5-1,14-0.1c2,0.6,3.8,1.3,4.8,0.9c0.8-0.3,1.1-1.2,0.8-2c-1.3-3.1-19.3-5.2-29.5,4
			c0.1-2.8,0.2-4.4,0.3-6.6c1-1.5,2.1-2.8,3.8-3.8c4-2.5,8.3-3.8,12.9-3.8c5.8,0.2,8.1,1.2,9,0.5c0.5-0.4,0.5-1,0.2-1.5
			c-0.6-0.8-6.2-1.3-10-1.1c-5,0.3-11.9,2.9-15.6,6.9c0.2-1.7,0.7-5.5,0.9-7c4.7-4.5,8.1-6.8,21.2-6.8c1.4-0.2,1.3-2.1,0.1-2.3
			c-0.3-0.1-8.1-0.1-14.5,2.4c-2.8,1.1-4.2,2.3-6.4,4.3c0.3-1.8,0.5-3.5,0.8-5.2c4.4-4.1,7.2-5.9,13.9-6.5c2.9-0.2,5-0.1,5.7-0.6
			c0.8-0.6,0.5-1.9-0.5-2c-1.1-0.2-2.9,0-4,0.1c-5.2,0.5-9.5,1.3-14.5,5.6c0.3-1.2,0.5-2.4,0.8-3.6c0.1,0,0.2-0.1,0.3-0.2
			c4.8-3.5,6.8-5.1,13.2-5.3c1.2,0,1.5,0,3.5-0.1c1.2-0.1,1.4-2,0.1-2.3c-0.3-0.1-1.1-0.2-1.6-0.2c-7-0.1-10.4,1.5-14.5,4.6
			c0.6-1.8,0.9-2.6,1.2-3.3c1.8-1.7,3.2-3.2,6.2-4.1c1.5-0.4,2.2-0.2,2.3-1c0.1-0.5-0.3-0.9-0.6-0.9c-0.2,0-1,0-1.2,0
			c-1.5,0.1-3.3,1-4.5,1.8c1.8-3.1,3.1-3.9,2.1-4.7c-0.4-0.3-1-0.3-1.3,0.2c-1,1.5-1.7,2.4-3.3,5.2c-0.9-2.4-4.4-5.9-5.5-5.5
			c-0.4,0.2-0.6,0.7-0.4,1.1c0.2,0.4,0.5,0.4,0.8,0.6c1.8,1.1,3.5,3.1,4,5.1c0,0.1,0.1,0.2,0.2,0.3c-0.5,0.9-0.7,1.4-1.5,3.4
			c-1.4-2.3-3.1-5-7.2-7.5c-1.2-0.7-1.3-0.8-2-0.8c-0.8,0-1.1,1.4,0,1.6c0.1,0,0.7,0.4,0.8,0.4c4.2,2.4,5.5,4.4,7.7,8
			c-0.4,1-0.8,2.3-1.4,4.5c-2.3-5.1-4.9-7.5-8.1-9.6c-0.4-0.3-1.8-1.2-2.4-1.3c-0.7-0.1-1.2,0.4-1.1,1.1c0.1,0.7,1.2,1.2,1.8,1.7
			c5,3.2,6.7,5.8,9,11.5c-0.4,1.9-0.7,3.4-1.1,5.4c-2.3-5.1-5.8-9.8-13.5-14.1c-1.1-0.5-1.8,1.1-0.9,1.6c9.9,6,11.5,10.2,13.9,15.7
			c-0.2,1.5-0.3,2.1-0.8,5.4c-2.7-5.7-5.4-9.1-15.3-16c-1.1-0.8-3.1-2-3.5-2.1c-0.3-0.1-0.7,0.1-0.9,0.4c-0.4,0.5-0.2,1.2,0.2,1.4
			c13.6,8.3,16,11.6,19.1,19.1C87.4,90,87.2,92,87,95.7c-2.1-4.8-4.3-8.3-9.1-13c-4.9-4.8-12.6-8.8-13.1-8.9c-0.6-0.1-0.9,0.7-0.5,1
			c14.5,10.2,17.9,16,20.8,23c1.4,3.2,1.2,3,1.4,3.2c-0.2,2.4-0.5,4.7-0.8,7.1c-1.4-2.9-4.4-10.3-14.5-18.6
			C66.6,85.6,61.2,83,60,82.7c-0.8-0.1-1.4,1-0.6,1.5c0.9,0.7,1.7,1,3.6,2.1c16.1,9.7,19.6,18.5,22.5,24.7c-0.5,3.7-0.9,6.4-1.3,9.2
			c-3.3-7.4-7.9-14-14.1-19.3c-1.7-1.5-11.4-8.9-15.5-11.4c-0.9-0.4-1.5,0.8-0.8,1.4c6.2,4.6-3.5-2.9,13.8,10.5
			c6.4,5,12.6,12.8,16.2,22c-0.7,4.3-1.3,6.4-1.8,8.3c-0.1-0.4-0.9-2.5-1.6-4.1c-1.8-3.7-5.6-9.8-6.9-11.9c-2-2.9-4.2-5.6-6.8-8
			c-0.3-0.3-6.2-5.7-7.4-6.7c-1.2-0.9-4.6-3.4-6.7-4.4c-0.6-0.3-1.2,0.6-0.6,1c7.2,5.4,7.4,6.3,12.7,11.6c2.6,2.7,4.9,5.7,6.2,7.7
			c7.4,11,8.5,14.1,9.8,18.2c0,0.1,0.1,0.2,0.2,0.3c-1,3-1.3,4-2.2,6.5c-1.2-3-3.4-10.5-10.1-19.6c-6-8.3-13-12.7-21.6-17.1
			c-0.2-0.1-0.5,0-0.7,0.2c-0.7,0.9,1.5,1.6,7,5.7c6.1,4.6,10.8,8.7,14.9,14.9c5.2,7.9,6.5,12.5,7.5,15.1c1.4,3.6,1.4,3.8,1.7,4.1
			c-1.2,3.2-1.9,5.1-3,7.8c-1.5-5.1-3.8-10.2-9.6-18.7c-0.3-0.4-8.5-11.5-16.8-17c-1.5-1-2.7-1.2-5.7-2.5c-0.4-0.2-2.4-1.1-2.9,0.1
			c-0.3,0.8,0.4,1.5,1.1,1.8c5.6,2.6,4.4,1,10.2,6.1c3.1,2.7,5,4.7,6.6,6.7c3.3,3.9,4.4,5,5.1,6c7.6,10.6,9.4,15.8,10.7,21
			c-0.4,1-0.8,1.9-1.1,2.9c-0.1-0.3-0.3-0.4-1.1-1.3c-5.4-5.5-9.7-10.7-16.4-15.1c-0.6-0.4-1.2-0.8-1.8-1.1c-2-1.2-4.6-2.4-6.9-3.4
			c-1.9-0.8-3.7-1.4-4.8-1.8c-0.1,0-0.1,0-0.2-0.1c-1.2-0.4-2.2-0.6-3.1-0.7c-1.3-0.2-2.4-0.2-3.6-0.2c-0.8,0-1.4-0.1-1.9-0.1
			c-0.2,0-0.4,0-0.5,0.1c-0.2,0-0.3,0.1-0.4,0.2c-0.4,0.4-0.2,1.2,0.4,1.3c0.4,0,1.7,0.3,2,0.4c5.7,1.6,4.4,0.6,11.3,3.5
			c4,1.7,6.1,2.7,10,5.3c7,4.8,6.3,4.9,15.2,14c0.1,0.4,0.2,0.8,0.8,1.4c-0.1,0.3-0.2,0.6-0.4,0.9c-9.7-10-19.2-13.6-34.3-15.3
			c-4.6-0.5-6.1-0.7-7.6-0.5c-0.9,0.1-1,1.4,0,1.6c4.2,0.8,10.1,1.5,15.8,3c13.8,3.9,18.9,7.9,25,14.2c-0.5,1.4-1.1,2.9-1.6,4.4
			c-4.9-3.3-7.5-5.8-21.4-10.4c-2.1-0.7-4.2-1.3-6.3-1.7c-3.4-0.7-10.3-1.2-13.6-1.1c-0.3,0-0.6,0.3-0.6,0.6
			c-0.1,0.4,0.3,0.8,0.6,0.8c5.2,0.1,9,0.4,19.5,3.8c12.8,4.2,14.4,5.6,21.1,10.1c-0.6,1.7-1.1,3.2-2.2,6.3
			c-9.3-8.8-24.1-14.5-36.6-12.9c-0.4,0-3.6,0.5-4.2,0.6c-0.4,0.1-0.3,0.6,0.1,0.6c1.8-0.1,5.1,0.2,6.8,0.3
			c21.8,2.3,32.1,14,32.9,14.4c-0.5,1.6-1.1,3.1-1.6,4.8c-7.3-5.6-17.9-14.4-40.1-12.1c-1.3,0.1-3.5,0.5-4.3,0.7
			c-1.2,0.2-2.4,0.5-2.3,1.5c0.1,0.5,0.5,0.8,1,0.8c26.3-3.4,36.1,4.3,45.1,11.1c-0.4,1.5-0.8,2.6-1.2,4.2
			c-7.2-5.6-14-8.8-25.2-10.5c-2.6-0.4-5.9-0.9-12.6-0.3c-0.4,0-6.7,0.7-11.4,2.2c-2.2,0.7-0.6,2.9,0.4,1.8c6.3-1.3,10-2,16.5-2.1
			l1.2,0c0,0-0.1,0-0.1,0c4.9,0.2,16.9,3.5,22.7,7.4c0.7,0.5,1.5,1,2.2,1.5c1.7,1.2,4.1,2.7,4.7,3c0.3,0.2,0.4,0.3,0.8,0.2
			c-0.6,2.4-0.8,3.7-1.2,5.6c-2.1-1.5-7.4-5.6-13.8-7.2c-13.6-3.3-19.5-2.9-34.9,0.3c-1.4,0.3-2.3,0.4-2.2,1.2
			c0.1,0.4,0.5,0.7,0.9,0.7c1.6-0.2,12.8-2.3,20.6-2.4c5.7,0.1,14.4,1.4,19.7,3.7c3.2,1.4,5.2,2.9,6.4,3.7c0.4,0.2,2.6,1.9,2.9,2
			c-0.5,2.9-0.8,4.7-1.1,6.6c-6.4-4.2-8.4-4.6-13.1-6c-6.7-2.1-14-3.4-20.8-4c-3.1-0.3-6.4,0-7.2,0.1c-8.1,0.5-7.6,0.4-8.4,0.7
			c-0.1,0-0.2,0.1-0.3,0.2c-0.3,0.4,0,1,0.4,1c0.6,0,0.8,0.1,1.5,0.1c0.3,0,0.7,0,1.2,0c0.3,0,0.6,0,0.8-0.1
			c7.8-0.5,8.8-0.6,20.3,2.1c1.4,0.3,3.1,0.7,4.9,1.1C47.2,208,50.1,209.7,52.9,211.4z"/>
		<path class="st1" d="M19.3,219.3c-4.1,0.1-4.6,0.2-6.4,0.9c-0.7,0.3-0.4,1.4,0.3,1.3c3.1-0.4,13-0.4,21.8,1
			c5,0.8,8.6,1.7,11.4,2.6c-0.1-0.8-0.1-1.6,0-2.4C38.1,219.7,28.9,219,19.3,219.3z"/>
		<path class="st1" d="M81.8,199.3c0.1,0,0.2,0,0.2-0.1C82.1,199.2,82,199.3,81.8,199.3z"/>
		<path class="st1" d="M105.6,228.9c-5.6-1.1-22.4,2.7-27.8,4.3c-1.6,0.5-3.3,1.1-5.2,2.1c1.5,0.3,3,0.5,4.6,0.5
			c3.2-1.1,6.8-1.9,11.1-2.8c4.2-0.9,7.2-1.3,9.5-1.5c1.4-0.4,2.8-0.8,4.2-1.2c1.3-0.3,2.9-0.6,4.5-0.7
			C106.4,229.2,106.1,229,105.6,228.9z"/>
		<path class="st1" d="M83.5,222.5C83.6,222.5,83.6,222.5,83.5,222.5C83.5,222.5,83.4,222.6,83.5,222.5z"/>
		<path class="st2" d="M363.3,210.7c1-4.3-3.6-8.5-7.6-9.6c-2.8-0.8-6.2-0.2-8.7,0.9c-2.4,1-5.6,3.2-8.1,6c-0.6,0.7-0.8,0.9-0.8,0.9
			c1.3-5.5,7.7-14.7,2.2-22.7c-1.5-2.2-4.4-3.3-7.9-2.2c-2.1,0.7-3.8,2.6-4.7,3.4c-0.1,0.1-0.3,0.3-0.3,0.3c0-2.8,0.6-5-1.5-9.2
			c-1.3-2.5-4.1-6.9-6.8-8.1c-3.7-1.5-8.5,2-10.2,6.6c-0.9,2.4-0.9,5.2-0.4,7.8c0.7,4,1.2,5.9,3.1,9.5l0.1,0.1
			c-3.1-2.1-5.6-2.7-8.5-2.8c-4-0.1-6.9,1.8-9.3,4.9c-1.4,1.9-2.3,4.3-1.3,6.5c0.9,1.9,2.9,3.2,2.7,3.1c1.4,1.1,1.1,0.2-1.9,0.6
			c-4.5,0.7-8.2,4.4-10.2,8.3c-2.3,4.6,0.6,7.9,4.6,11.1c0.3,0.2,2,1.5,4.1,2.6c9.8,5.1,6.7,0.6,0.1,5.3c-2.8,2-6.8,7-4.9,11.7
			c0.7,1.7,2,2.8,2.9,3.5c6.4,5.3,16.2,7.5,20,9.7c8.7,5,11.1,8.6,14.5,12.3c3,3.2,7.5,17.7,11,7.2c0.1-0.4-0.1,0,1.9-2.7
			c15.9-21,30.6-35.1,20.1-39.3c-3.8-1.5-7.1-0.1-8.5-0.7c-1.8-1.3,1.2-9.4,5.7-14.9C358.4,216.2,362.6,214.1,363.3,210.7z"/>
		<path class="st2" d="M319.6,170.5C319.6,170.5,319.7,170.5,319.6,170.5C319.7,170.5,319.6,170.5,319.6,170.5z"/>
		<path class="st2" d="M319.7,170.6C319.8,170.6,319.7,170.6,319.7,170.6L319.7,170.6z"/>
		<path class="st2" d="M318.9,170.2c-0.1,0-0.2-0.1-0.2-0.1C318.7,170.2,318.8,170.2,318.9,170.2z"/>
		<path class="st2" d="M318.9,170.2c0.1,0,0.2,0.1,0.3,0.1c0.2,0.1,0.4,0.2,0.5,0.2C319.4,170.5,319.1,170.3,318.9,170.2z"/>
		<path class="st2" d="M318.7,170.1c0,0-0.1,0-0.1,0C318.6,170.1,318.6,170.1,318.7,170.1z"/>
		<path class="st2" d="M318.6,170.1C318.5,170.1,318.5,170.1,318.6,170.1L318.6,170.1z"/>
		<path class="st1" d="M335,266.8c0.5-0.1,0.5-0.2,2.6-2.4c0.8-0.8,1.3-1.4,3.1-3.7c2.8-3.5,5.6-6.1,7.9-9.3
			c1.6-2.2,3.1-4.5,3.7-5.3l2.2-3c0.1-0.2,0.1-0.4-0.1-0.5c-0.3-0.1-0.3,0.1-1.2,1c-3.2,3.1-4.1,4.7-7,8.1c-0.8,1-2.5,2.4-3.4,3.3
			c-4.9,4.7-3.3,3.6-8.1,8.8c-0.8-7.6-0.9-10.8-3.3-19c0.3-2.8,0.6-5.8,2.8-10.6c4.1-9,7.7-14.2,15.9-21c-0.2,0.2,2.8-2.4,4.4-3.5
			c0.7-0.5,1.5-0.9,2.2-1.4c0.3-0.2,0.3-0.7-0.1-0.8c-1-0.2-7.4,4.8-8.1,5.4c-6.5,5.2-10.5,9.5-15.1,18.5c-1.4,2.6-2.7,5.8-3.3,8.7
			c-2.3-7.8-3.3-10.1-5.1-17.3c0.3-0.3,0.7-3.1,1.3-5.8c1.9-8.2,9.1-14.8,10.4-26.7c0.1-0.6-0.7-0.8-0.9-0.2
			c-5.8,16.7-5.9,11.3-10.3,23.4c-0.8,2.3-1.1,4.1-1.4,5.6c-0.7-3.1-0.7-3.5-1.1-5.6c-2-12.6-1.6-8.5-2.1-13.2c-1-10-0.3-9.7-0.9-10
			c-0.4-0.2-0.7,0.1-0.7,0.5c0,2.8,0.1,3.9,0.2,4.5c0.8,10.8,0.7,6.7,2.1,16.4c-3.8-4.2-8.9-8.2-14.1-10.2c-5.4-2.1-5.1-2.2-5.4-2.1
			c-0.5,0.1-0.5,0.8-0.1,1c1.3,0.6,2.6,1.3,4,1.8c5.2,2.1,10.5,6.2,14.3,10.4c1.6,1.7,1.4,1.7,1.7,1.7c0.8,5.4,2.4,12.5,3.7,17
			c-3.9-3.3-6.5-4.8-8.5-6c-1.7-1-8.8-4.8-10.9-5.7c-3.3-1.4-3.2-1-9.7-2.6c-0.4-0.1-0.6,0.5-0.1,0.6c8.9,3.1,5.5,0.7,15.2,6.4
			c2.2,1.3,6.8,4.1,9.1,5.9c4.1,3.1,4.6,3.7,5.5,4.8c0.4,0.5,0.4,0.5,0.5,0.6c4.6,17,4.5,19.8,5.4,27.6c-9.3-9.1-17-14-25.7-17.8
			c-6.1-2.7-2.7-1.5-9.1-3.7c-1.2-0.5-2-0.9-2.9-1.4c-0.4-0.2-0.9,0.4-0.4,0.7c2.1,1.4,3.3,1.8,4.7,2.3c2.6,1,11.2,5.5,18.1,10.4
			c12,9.1,15.7,13.5,15.7,13.5c0.4,7.5-0.9,11.9-1.1,12.8c-0.1,0.6-0.2,1.2-0.3,1.6c-0.5,2.3-1,2.6-2.5,6.5c-1.2,3-2.4,5.5-2.5,6.6
			c0,0.9,1.2,1.5,1.9,1c0.4-0.3,0.4-0.3,0.7-0.7c2.2-3.1,2.6-4,3.7-6.8c0.5-1.2,0.9-2.1,1.4-3.6c0.2-0.6,0.4-1.6,0.6-2.7
			C334.9,277.3,335.2,269.6,335,266.8z"/>
		<path class="st3" d="M175.2,278.1c-0.8-1.3-1.7-2.7-2.3-3.5c-1.2-1.6-2.6-3.1-4.2-4.4c-3-2.6-8-4.6-13-5.2
			c0.7,2.7,1.9,5.5,2.3,7.5c0.9,3.5,1.8,7,2.8,10.5l15.2,0.3c0.6,0.8,0.8,1.9,0.6,2.9c-5.7,0.3-10.6-0.9-15.8-3.2
			c1.3,4.3,2.6,8.6,4.1,12.8c0.7,2.1,1.5,4.3,3.2,5.8c2.5,2.3,6.4,2.2,9.3,0.6l-0.5-1.6c-0.2-0.5-0.4-1.1-0.7-1.6
			c-0.2-0.5-0.5-1-0.7-1.6c-0.3-0.5-0.6-1-0.8-1.6c0.5,0.3,0.9,0.8,1.3,1.3c0.4,0.5,0.7,1,0.9,1.6c0.3,0.6,0.4,1.1,0.5,1.8
			c0.1,0.6,0.1,1.1,0,1.7c0.7-0.4,1.3-0.8,1.8-1.3c1.1-1,1.9-2.2,2.5-3.6c-0.8-3.4-1.7-6.9-2.8-10.2
			C178.1,284,176.9,280.9,175.2,278.1z M175.3,301.1c0.1,0.6,0.1,1.2,0,1.8l-0.6-1.7c-0.2-0.5-0.4-1.1-0.7-1.6
			c-0.2-0.5-0.5-1-0.7-1.6c-0.3-0.5-0.6-1-0.8-1.6c0.5,0.3,0.9,0.8,1.3,1.3c0.4,0.5,0.7,1,0.9,1.6
			C175.1,299.9,175.2,300.5,175.3,301.1z"/>
		<path class="st3" d="M108.4,229.5c-0.6,0-1.2,0-1.8,0c-1.7,0.1-3.2,0.4-4.5,0.7c-1.4,0.4-2.8,0.8-4.2,1.2
			c-6.7,2-13.9,4.4-20.5,4.3c-1.6,0-3.1-0.2-4.6-0.5c-2.3-0.5-4.6-1.4-6.7-2.9c-0.5-0.3-1-0.7-1.4-1.1c-0.3-0.3-0.6-0.6-0.9-0.9
			c0.1,0.1,0.1,0.2,0.2,0.2c-1.5,1.6-3.6,2.4-5.7,3.1c-1.1,0.4-2.1,0.8-3.2,1.1c0.7-0.3,2.8-5.5,3.6-6.4c1-1.3,1.1-1.8,2.4-1.2
			c-0.3-0.3-0.5-0.7-0.7-1.1c-1.6-2.4-2.7-5.1-4.8-7.1c-0.9-0.8-2-1.5-3.2-1.6c-0.6-0.1-1.1,0-1.6,0.1c-1.7,0.5-3.1,1.9-3.7,3.6
			c-0.2,0.4-0.3,0.9-0.3,1.4c-0.1,0.8-0.1,1.6,0,2.4c0.1,1.1,0.4,2.2,0.7,3.2c0.6,1.7,1.3,3.3,2.3,4.8c2.4,3.9,5.8,7.2,9.8,9.7
			c0.5,0.3,1,0.6,1.5,0.9c0.4,0.2,0.7,0.4,1.1,0.6c1.5-2.6,6.4-4.9,6.4-7.8c0,2.1,1,7.2,0,9.1c-0.7,1.3-1.2,0.8-2.9,0.4
			c-0.3-0.1-0.5-0.2-0.8-0.3c0.1,0,0.2,0.1,0.3,0.1c1.8,0.8,3.8,1.4,5.7,2c1.1,0.3,2.2,0.6,3.3,0.9c4.3,1,8.9,1.5,13.4,1.4
			c3.6-0.1,7.2-0.5,10.6-1.3c-1.5-1-0.5-6.8-0.5-8.3c0-2.3,0-4.6,0-6.9c0.9,1.1,1.8,2.2,2.7,3.2c2.4,2.9,5.2,5.4,7.7,8.2
			c-0.6,0.4-1.2,0.8-1.9,1.2c1.3-0.6,2.5-1.2,3.8-1.9c0,0,0,0,0,0c-0.2-1.2-0.4-2.4-0.6-3.7C108.6,236.9,108.4,233.2,108.4,229.5z
			 M82,247.2c0.2-0.6-2.3-4.6-2.6-5.5c-0.6-1.7-1.7-4.1-1.5-5.8c2.1,0.2,4.1,0.3,6.1-0.7C84.2,239.3,83.5,243.4,82,247.2z"/>
		<path class="st4" d="M61.1,227.4C61,227.4,61,227.4,61.1,227.4c-0.1,0-0.1-0.1-0.2-0.1c-1.2-0.6-1.3-0.2-2.4,1.2
			c-0.7,1-2.8,6.2-3.6,6.4c1.1-0.4,2.1-0.8,3.2-1.1c2-0.7,4.2-1.5,5.7-3.1c-0.1-0.1-0.1-0.2-0.2-0.2C62.9,229.5,62,227.9,61.1,227.4
			z"/>
		<path class="st4" d="M62.6,244.9c0.7,0.3,1.4,0.5,2.1,0.7c0.3,0.1,0.5,0.2,0.8,0.3c1.6,0.5,2.2,1,2.9-0.4c1-1.9,0-6.9,0-9.1
			c0,2.9-5,5.2-6.4,7.8c0,0.1-0.1,0.2-0.1,0.3C62,244.7,62.3,244.8,62.6,244.9z"/>
		<path class="st4" d="M84.1,235.2c-2,1-4,0.9-6.1,0.7c-0.3,1.7,0.8,4.2,1.5,5.8c0.3,0.9,2.8,4.9,2.6,5.5
			C83.5,243.4,84.2,239.3,84.1,235.2z"/>
		<path class="st4" d="M100.1,236.8c-0.9-1.1-1.8-2.2-2.7-3.2c0,2.3,0,4.6,0,6.9c0,1.6-1,7.3,0.5,8.3c0,0,0.1,0,0.1,0.1
			c0.4,0.2,0.9,0.1,1.4,0c2.3-0.6,4.4-1.5,6.4-2.7c0.6-0.4,1.3-0.8,1.9-1.2C105.4,242.2,102.5,239.7,100.1,236.8z"/>
		<path class="st5" d="M115.4,285.4c0.1,5.4,0.3,11,3.6,15.1c2.6,3.2,6.7,4.9,10.7,5.7c2.7,0.5,5.6,0.6,8.1-0.6
			c2.5-1.2,4.3-4.1,3.4-6.8c-0.5-1.7-2.1-3-3.2-4.4c-1.1-1.5-1.8-3.2-2.2-5C129,290.7,121.5,289.2,115.4,285.4z M136.7,299.3
			c0.4,0.5,0.7,1,0.9,1.6c0.3,0.6,0.4,1.1,0.5,1.8c0.1,0.6,0.1,1.2,0,1.8l-0.6-1.7c-0.2-0.5-0.4-1.1-0.7-1.6c-0.2-0.5-0.5-1-0.7-1.6
			c-0.3-0.5-0.6-1-0.8-1.6C135.9,298.4,136.4,298.9,136.7,299.3z M133.9,300.5c0.4,0.5,0.7,1,0.9,1.6c0.3,0.6,0.4,1.1,0.5,1.8
			c0.1,0.6,0.1,1.2,0,1.8l-0.6-1.7c-0.2-0.5-0.4-1.1-0.7-1.6c-0.2-0.5-0.5-1-0.7-1.6c-0.3-0.5-0.6-1-0.8-1.6
			C133.1,299.6,133.5,300,133.9,300.5z"/>
		<path class="st5" d="M280.4,187c-1.8-0.2-3.5-0.5-5.2-0.8c-2.8-0.5-5.6-1.2-7.9-2.9c3.9,0.1,7.8-0.4,11.5-1.3
			c0.9-0.2,4.6-1.7,4.9-1.2c6-16.1,5.8-34.8,3.9-52.6c1-1.3,2.1-2.6,3.3-3.7c3.8-3.7,8.3-6.8,11.4-11.1c4.3-5.9,5.7-13.7,3.6-20.7
			c-1.9-6.2-9.9-18.6-16.3-15.1c-6.5,3.5-12.6,6.8-21,14.8c-0.9-0.6-1.8-1.3-2.7-1.9C252,81.5,235.2,79,219,78.1
			c-18.5-1-38.2,4.7-54.7,13c-2.4-1.5-5.1-2.9-6.7-4.3c-4.4-3.9-9.2-7.3-14.3-10.2c-0.8-0.5-1.7-0.9-2.7-0.9c-1,0.1-1.9,0.7-2.7,1.3
			c-10.9,8.8-19.2,20.7-10.1,34.1c3,4.4,7.3,7.7,11,11.5c0.5,0.5,1,1,1.4,1.6c-1.1,12.5-1.9,25.2-0.5,37.6c2,8.5,8.9,15.2,16.8,18.8
			c8,3.7,16.9,4.8,25.6,5.4c-3.2,1.8-7.1,2.3-10.8,2.4c-8.5,0.2-16.4-1.2-24.4-4.2c0.3,0.5,0.5,1,0.8,1.6c0.1-0.1,0.1-0.1,0.2-0.2
			c0.8,1.6,1.7,3.1,2.6,4.6c2.9,0.2,5.9,1.7,8.7,2.2c3.8,0.8,7.7,1.2,11.5,1.4c-0.5,1.3-2.2,1.6-3.6,1.7c-3.9,0.2-7.9,0.4-11.8,0.5
			c-0.2,0-0.5,0-0.7,0c0,0,0,0,0,0.1c-0.1,0.1-0.1,0.1-0.2,0.2c1.5,1.9,3.1,3.7,4.8,5.4c0.2,0.2,0.4,0.4,0.7,0.6
			c-1.5-1.5-2.8-3.1-3.8-4.8c11.2,3.4,24.1,4,35.6,2.5c12.5-1.7,24.3-6.1,37.1-5.4c13.8,0.7,26.9,4.4,40.1,8.4
			c1.9-1.7,3.7-3.6,5.3-5.6c-5.9-0.5-11.7-2-17.1-4.5c-0.8-0.4-1.7-1.1-1.3-1.9c0.1-0.3,10.9,1.6,12.1,1.7c3.5,0.2,6.9-0.2,10.2-0.5
			c1.1-1.7,2-3.4,2.9-5.1c0,0,0,0,0,0C280.8,187.1,280.6,187,280.4,187z"/>
		<path class="st5" d="M255.4,211.5c-2.5-3.5-8.3-4.6-12.1-5.1c-15.1-1.9-30.4-2.7-45.4-5.4c-15-2.7-30-7.5-42.2-16.6
			c-4.4-3.3-10-9.6-15.6-10.6c-6-1.1-12.6,4.2-16.5,8.5c-2.5,2.7-4.6,5.9-6.3,9.2c-1.5,2.8-2.7,5.7-3.7,8.6c-2.4,6.9-4,14-4.7,21.3
			c-0.1,0.7-0.1,1.3-0.2,2c-0.1,2.1-0.2,4.2-0.2,6.3c0,3.7,0.3,7.4,0.7,11.1c0.2,1.2,0.4,2.5,0.6,3.7c0.4,2.2,0.8,4.4,1.2,6.6
			c2.1,10.5,4.2,21.8,4.5,32.5c0,0.7,0,1.3,0,2c6.8,0.3,13.7-0.2,20.3-1.7l-0.1,0.8c0,0.2,0.1,0.5,0.1,0.7c0.2-2.7,0.8-5.4,1.7-7.9
			c1.2-3.5,2.9-6.9,5.6-9.3c3.1-2.8,7.9-3.5,12.7-3c5,0.6,9.9,2.6,12.9,5.2c4.1,3.5,8.7,11.7,10.4,16.9c1.1,3.4,1.9,6.8,2.8,10.2
			c0.7,3.1,1.5,6.2,2.4,9.2c0.6,1.9,1.8,5,3.3,6.4c0.8,0.7,1.8,1.2,2.8,1.5c5.7,2.1,13,3.3,19,1.3c1.6-0.5,3.3-1.5,3.5-3.2
			c0.1-0.7-0.1-1.3-0.3-2c-3.3-11.1-5.3-21.9-7.8-33.1c-1.2-5.6-2.3-13.4,6.3-12.1c13.1,2,11.2,26.6,12.4,36
			c0.6,4.4,1.2,8.9,3.8,12.5c4.6,6.3,13.6,7.3,21.3,6.4c3.4-0.4,7.5-2,7.7-5.4c0.1-1.5-0.7-2.9-1.4-4.2c-5.9-11.1-6.3-24.2-6.6-36.8
			c-0.2-7.2-0.1-14.3,0.2-21.5c0.2-5.8-0.4-11.2,1-17c1.4-5.5,7.7-15.4,7-20.9C256.3,213.2,255.9,212.3,255.4,211.5z M248.2,276.4
			c-6.6,0.8-13.3,0.3-19.7-1.5c-0.8-0.2-1.7-0.9-1.3-1.6c6.9-1.5,13.8-3.4,20.5-5.7l-0.2,0.4C247.7,270.9,248,273.6,248.2,276.4z"/>
		<path class="st6" d="M257,177.4c-2.7-0.8-4.7-3-6.3-5.3c-4.6-6.9-6-15.8-4-23.8c0.4-1.5,0.8-3.2,1.5-4.7c0,0-0.1,0-0.1,0
			c-2.6,1.3-4.9,3.2-6.8,5.4c-3,3.5-5,7.8-6.2,12.3c0.3,1.2,0.7,2.4,1.3,3.6c1.8,4,4.2,7.8,7.6,10.6c3.4,2.8,7.8,4.5,12.2,4
			c2.3-0.3,4.4-1.1,6.3-2.4C260.6,177.8,258.7,177.9,257,177.4z"/>
		<path class="st7" d="M233,182.1c0.1-5.6,0.4-11.2,1.3-16.7c0.2-1.3,0.5-2.6,0.9-3.9c1.2-4.5,3.3-8.8,6.2-12.3
			c1.9-2.2,4.2-4.1,6.8-5.4c0,0,0.1,0,0.1,0c0.2-0.3,0.3-0.6,0.5-0.9c1-1.6,2.8-2.1,4.6-2.6c4.5-1.5,9.4-1.9,14.1-1.2
			c1.2,0.2,2.2,0.4,3.2,0.8c1.5,0,2.9-0.1,4.4-0.1c-3.1-0.6-6.2-1-9.3-1.1c-3.1-0.1-6.3,0-9.4,0.5c-1.6,0.2-3.1,0.5-4.6,0.9
			c-0.7,0.2-1.6,0.3-2.4,0.6c-0.8,0.2-1.6,0.6-2.3,0.9c-3,1.4-5.6,3.6-7.7,6.1c-2.1,2.5-3.7,5.4-4.9,8.4c-0.4,1.1-0.8,2.1-1.1,3.2
			C232.9,166.7,232.5,174.4,233,182.1z"/>
		<path class="st4" d="M253.4,140.1c-1.8,0.6-3.6,1-4.6,2.6c-0.2,0.3-0.3,0.6-0.5,0.9c-0.7,1.5-1.2,3.2-1.5,4.7
			c-2,8-0.6,16.9,4,23.8c1.6,2.3,3.6,4.5,6.3,5.3c1.8,0.5,3.7,0.4,5.5-0.2c0.8-0.2,1.5-0.5,2.2-0.8c4.9-2.3,8.8-6.7,10.5-11.9
			c1.2-3.7,1.3-7.7,1.3-11.7c0-3.2-0.2-6.6-1.7-9.6c-0.9-1.8-2.2-2.9-3.8-3.6c-0.1,0-0.2-0.1-0.3-0.1c-1-0.4-2-0.6-3.2-0.8
			C262.8,138.2,257.9,138.6,253.4,140.1z M269.6,152.3c-0.1,0.5-0.3,1-0.8,1.3c-0.4,0.2-0.8,0.2-1.3,0.1c-1.3-0.1-2.8-0.6-3.4-1.8
			c-0.6-1.2-0.1-3.4,1.2-4.1c1-0.5,2.8,0.3,3.5,1C269.6,149.9,269.9,151,269.6,152.3z"/>
		<path class="st6" d="M181.2,166.9c-1.2-3.7-1.3-7.7-1.3-11.7c0-3.2,0.2-6.6,1.7-9.6c0.9-1.8,2.2-2.9,3.8-3.6
			c1-0.4,2.2-0.7,3.5-0.9c0.7-0.1,1.3-0.2,1.9-0.2c-1.9-0.7-3.9-1.2-5.9-1.5c-2.9-0.5-5.9-0.7-9-0.8c-1.5,0-3.1,0-4.6,0
			c-0.4,0-0.9,0-1.3,0c-2.6,2.3-2,17.3-1.7,19.3c1.2,6.9,4.2,13.7,9.9,18c3.4,2.5,7.8,4.1,12.2,3.6c1.3-0.1,2.5-0.4,3.7-0.9
			c-1.7,0-3.3-0.4-4.6-1.2C185.5,175,182.6,171.3,181.2,166.9z"/>
		<path class="st4" d="M208.7,155.9c-0.2-0.7-0.4-1.4-0.6-2l-0.2-0.4l-0.2-0.4l-0.1-0.2l0-0.1l-0.1-0.1l-0.3-0.4
			c-0.8-1.1-1.8-2.2-2.8-3.2c-1-1-2.2-1.9-3.4-2.7c-2.4-1.7-5-3.1-7.7-4.3c-0.8-0.4-1.7-0.7-2.6-1c-0.6,0-1.3,0.1-1.9,0.2
			c-1.3,0.2-2.5,0.5-3.5,0.9c-1.6,0.7-2.9,1.7-3.8,3.6c-1.5,2.9-1.6,6.4-1.7,9.6c0,3.9,0.1,7.9,1.3,11.7c1.4,4.3,4.4,8.1,8.2,10.6
			c1.3,0.9,2.9,1.2,4.6,1.2c2.8,0,5.9-1,8-2.4c4.5-2.9,7-7.4,8-12.4c-0.1-1.2-0.3-2.5-0.5-3.7C209.3,158.7,209,157.3,208.7,155.9z
			 M195.8,147.8c1-0.5,2.8,0.3,3.5,1c0.9,1,1.2,2.1,0.9,3.4c-0.1,0.5-0.3,1-0.8,1.3c-0.4,0.2-0.8,0.2-1.3,0.1
			c-1.3-0.1-2.8-0.6-3.4-1.8C194,150.7,194.5,148.5,195.8,147.8z"/>
		<path class="st8" d="M228.7,194.7c-0.7,0.6-1.5,1.2-2.2,1.7c-1.9,1.4-4.2,2.4-6.5,1.6c-1.5-0.5-2.5-1.5-3.4-2.6
			c-8.3,1.2-16.4,3.5-24.7,4.6c-11.5,1.6-24.5,1-35.6-2.5c1,1.6,2.4,3.3,3.8,4.8c7.7,7.5,17.6,12.6,28,15.1
			c5.4,1.4,10.9,2.1,16.5,2.4c5.6,0.3,11.2,0.1,16.8-0.4c10.4-0.9,20.6-3,30.8-5.7c3.8-1.6,7.4-3.5,10.8-5.9
			c2.1-1.4,4.1-3.1,6.1-4.9c0,0,0,0,0,0C255.9,199,242.4,195,228.7,194.7z M238.3,208.3c-0.9,0.5-1.9,1-3,1.2
			c-1.1,0.2-2.2,0.3-3.3,0.2c-2.2-0.2-4.3-1.2-5.9-2.6c-1.2-1-2.2-2.3-2.9-3.7c-0.5,1.1-1.1,2.2-1.9,3.1c-1.1,1.4-2.6,2.6-4.1,3.5
			c-1.6,0.9-3.4,1.4-5.2,1.5c-1.8,0.1-3.6-0.3-5.2-1.1c1.7,0.6,3.4,0.7,5.1,0.4c1.7-0.3,3.3-0.9,4.7-1.8c1.4-0.9,2.7-2.1,3.6-3.4
			c1-1.3,1.7-2.9,2.1-4.5l0.6-2.1l0.8,2.1c0.7,1.8,1.8,3.5,3.3,4.8c1.5,1.3,3.2,2.2,5.2,2.5c1.9,0.3,3.9,0,5.7-0.9
			c1.8-0.9,3.4-2.2,4.6-3.9C241.7,205.6,240.2,207.2,238.3,208.3z"/>
		<path class="st4" d="M238,207.6c-1.8,0.9-3.8,1.2-5.7,0.9c-1.9-0.3-3.7-1.2-5.2-2.5c-1.5-1.3-2.6-3-3.3-4.8l-0.8-2.1l-0.6,2.1
			c-0.4,1.6-1.2,3.1-2.1,4.5c-1,1.3-2.2,2.5-3.6,3.4c-1.4,0.9-3,1.5-4.7,1.8c-1.7,0.3-3.4,0.1-5.1-0.4c1.5,0.8,3.4,1.2,5.2,1.1
			c1.8-0.1,3.6-0.6,5.2-1.5c1.6-0.9,3-2.1,4.1-3.5c0.8-1,1.4-2,1.9-3.1c0.7,1.4,1.7,2.6,2.9,3.7c1.7,1.4,3.7,2.4,5.9,2.6
			c1.1,0.1,2.2,0,3.3-0.2c1.1-0.3,2.1-0.7,3-1.2c1.8-1.1,3.3-2.7,4.3-4.6C241.4,205.4,239.8,206.8,238,207.6z"/>
		<path class="st4" d="M150.5,190.3c0.1,0,0.2,0,0.3,0c-1-1.5-1.9-3-2.6-4.6c-0.1,0.1-0.1,0.1-0.2,0.2c0.4,0.8,0.9,1.7,1.4,2.5
			C149.7,189,150.1,189.7,150.5,190.3z"/>
		<path class="st4" d="M147.8,189.2c-0.3-0.7-0.6-1.3-0.9-2c-13.8,17.6-19.8,41.2-16,63.2c2.8-9.7,4.7-19.6,8-29.1
			c3-8.7,7.4-17.1,14-23.4C151,195.2,149.3,192.2,147.8,189.2z"/>
		<path class="st4" d="M154.7,196.3c0.1-0.1,0.1-0.1,0.2-0.2c0,0,0,0,0-0.1c-0.1,0-0.2,0-0.3,0C154.6,196.1,154.6,196.2,154.7,196.3
			z"/>
		<path class="st4" d="M157.6,203.8c-6.4,7.3-9.5,19.5-9.6,28.6c1.4-0.7,2.2-2.3,2.9-3.7c3.5-6.8,7.8-13.3,12.7-19.3
			C161.5,207.8,159.5,205.9,157.6,203.8z"/>
		<path class="st4" d="M169,213.3C169,213.3,169,213.3,169,213.3c-1.8,3.8-3.9,9.5-4.9,13.6c-0.9,4-1.5,8-1.5,12.1
			c0,2.1,0,4.2,0.2,6.3c0.1,1.5,1.3,4.5,0.9,5.9c3.2-11.7,6.4-23.7,13-33.8c-1.9-0.8-3.8-1.8-5.7-2.8
			C170.4,214.2,169.7,213.8,169,213.3z"/>
		<path class="st7" d="M142.3,173.8c1.6,3.5,3.1,7.1,4.9,10.5c7.9,3,15.9,4.4,24.4,4.2c3.7-0.1,7.5-0.6,10.8-2.4
			c-8.8-0.6-17.7-1.7-25.6-5.4c-7.9-3.7-14.8-10.4-16.8-18.8c0-0.1,0-0.1-0.1-0.2c0,0.2,0.1,0.3,0.1,0.5
			C140.6,166.4,141,169.4,142.3,173.8z"/>
		<path class="st7" d="M154.5,196c0.1,0,0.2,0,0.3,0c0.2,0,0.5,0,0.7,0c3.9-0.1,7.9-0.2,11.8-0.5c1.4-0.1,3.1-0.4,3.6-1.7
			c-3.9-0.1-7.7-0.6-11.5-1.4c-2.8-0.6-5.8-2-8.7-2.2c-0.1,0-0.2,0-0.3,0C151.7,192.3,153.1,194.2,154.5,196z"/>
		<path class="st9" d="M142,173.1c1.4,4.8,3,9.5,5,14.1c0.3,0.7,0.6,1.3,0.9,2c1.4,3,3.1,6,5.1,8.7c1.4,2,2.9,3.9,4.5,5.7
			c0.1,0.1,0.1,0.1,0.2,0.2c1.8,2,3.8,3.9,6,5.6c1.7,1.4,3.5,2.7,5.4,3.9c0.7,0.4,1.3,0.8,2,1.2c1.8,1.1,3.7,2,5.7,2.8
			c3.4,1.5,7,2.7,10.6,3.6c5.7,1.4,11.5,2.1,17.2,2.3c2.9,0.1,5.8,0,8.7-0.1c2.9-0.2,5.7-0.4,8.6-0.8c11.4-1.6,22.5-4.7,33-9.2
			c-0.8,0.2-1.7,0.5-2.5,0.7c-10.2,2.7-20.4,4.8-30.8,5.7c-5.6,0.5-11.2,0.7-16.8,0.4c-5.6-0.3-11.1-1-16.5-2.4
			c-10.5-2.5-20.3-7.6-28-15.1c-0.2-0.2-0.4-0.4-0.7-0.6c-1.7-1.7-3.3-3.5-4.8-5.4c-0.1-0.1-0.1-0.2-0.2-0.3c-1.4-1.8-2.8-3.8-4-5.8
			c-0.4-0.6-0.8-1.2-1.1-1.9c-0.5-0.8-0.9-1.6-1.4-2.5c-0.3-0.5-0.6-1-0.8-1.6c-1.7-3.4-3.3-7-4.9-10.5
			C142.2,173.6,142.1,173.3,142,173.1z"/>
		<path class="st4" d="M268,192.6c-1.1-0.1-11.9-1.9-12.1-1.7c-0.4,0.8,0.5,1.5,1.3,1.9c5.4,2.5,11.2,4,17.1,4.5c0.1,0,0.2,0,0.3,0
			c1.6-1.4,3-3.3,3.7-5.3c-0.1,0-0.2,0-0.2,0C274.9,192.4,271.4,192.8,268,192.6z"/>
		<path class="st4" d="M179.8,85.6c-1.5,1.8,1.1,7.2,1.7,9.6c1,3.7,1.8,7.5,2.6,11.2c0.6,2.9,2.7,8.2,2,11c2.6-11.7,4-23.6,4.1-35.6
			C187.9,82.9,181.3,83.9,179.8,85.6z"/>
		<path class="st4" d="M199.9,82.2c-0.8,3.9,1.9,10.9,2.6,14.8c0.9,5.1,2,10.2,3.1,15.2c0.9,3.9,4.1,10.6,3.6,14.4
			c2.1-16,2.5-32.2,1.1-48.2c0-0.1,0-0.2,0-0.3c-1.7,0.2-4.4,0.3-6.7,1C201.7,79.7,200.2,80.6,199.9,82.2z"/>
		<path class="st4" d="M220.7,78.9c-1.2,2.1,0.8,9.9,1,12.4c0.4,4,0.8,8.1,1.2,12.1c0.4,3.5,1.9,8.3,1.4,11.7
			c1.7-12.2,4-24.3,6.2-36.4c0-0.1,0-0.1,0-0.2c-1.9-0.2-6.9-1.3-9.1-0.4C221.2,78.4,220.9,78.6,220.7,78.9z"/>
		<path class="st4" d="M239.7,81.5c-1.6,1.9-0.6,10.4-0.7,13c-0.2,4.2-0.4,8.5-0.5,12.7c-0.1,1.8,0.9,11.8-0.3,12.7
			c2-1.5,2.8-4.1,3.5-6.5c3-10.1,5.8-20.2,8.4-30.4c0,0,0,0,0,0c-1.5-0.5-5-1.9-7.6-2.1C241.2,80.7,240.2,80.8,239.7,81.5z"/>
		<path class="st4" d="M283.7,180.8c-0.3-0.6-4,0.9-4.9,1.2c-3.8,0.9-7.7,1.4-11.5,1.3c2.3,1.6,5.1,2.3,7.9,2.9
			c1.7,0.3,3.5,0.6,5.2,0.8c0.2,0,0.4,0.1,0.6,0c0,0,0,0,0,0c0.2-0.1,0.3-0.3,0.4-0.5c0.5-1.1,1.4-3.6,2.2-5.4
			C283.7,181,283.7,180.9,283.7,180.8z"/>
		<path class="st7" d="M220,198c2.3,0.8,4.6-0.3,6.5-1.6c0.7-0.5,1.5-1.1,2.2-1.7c0.2-0.2,0.4-0.4,0.6-0.6c0.7-0.7,0.9-1.7,1.6-2.5
			c0.7-0.8,1.6-1.1,2.6-1.5c0.7-0.4,1.4-0.9,1.7-1.7c0.9-2-0.5-2.4-2.1-2.4c-4.8,0.1-9.7,0.8-14.4,1.1c-2.5,0.2-4.9,0.3-7.4,0.5
			c-0.3,0-0.7,0-1,0.1c-0.5,0-1.5-0.1-2,0.3c-0.1,0.1-0.2,0.2-0.3,0.4c-0.3,0.9,1.1,2.1,1.8,2.4c0.6,0.3,1.3,0.4,2,0.6
			c2.2,0.6,3.4,2.5,4.8,4.1C217.5,196.5,218.5,197.5,220,198z"/>
		<path class="st10" d="M218.9,266.4c6.6-6.5,11.1-15.2,12.5-24.4c0.1-0.7,0.2-1.4-0.1-2c-0.7-1.5-2.9-1.3-4.6-1.1
			c-6.6,0.6-13.2-4.6-14.1-11.1c-5.1,3.9-5.3,11.4-8,17.1c-0.3,0.6-0.6,1.2-1.2,1.5c-0.6,0.3-1.3,0.3-2,0.2
			c-2.9-0.3-5.8-0.6-8.6-0.9c-0.7,3.1,1.1,6.1,2.8,8.7c2,3.1,5.8,14.8,9.2,13.1c0.3-0.1,0.5-0.3,0.7-0.4c3.3-1.7,4.6-2.8,8.4,0
			c0.4,0.3,1.3,0.9,2.1,1.3c0.3,0.2,0.6,0.3,0.9,0.3C217.5,268.7,218.4,266.9,218.9,266.4z"/>
		<path class="st4" d="M176.5,280.3c4.5-0.7,9.1-1.3,13.6-2c3.9-0.6,8.1-1.3,10.7-4.2c-8.5-0.6-20.4-2.5-28.4-0.2
			c0.1,0.1,0.3,0.4,0.6,0.8c0.6,0.9,1.5,2.3,2.3,3.5C175.7,278.9,176.2,279.7,176.5,280.3z"/>
		<path class="st4" d="M203.3,286.2c-5.3,0.2-13,2-18.5,2.1c-0.7,0-1.5,0.1-1.9,0.6c-0.9,1.2,1.1,2.4,2.5,2.6c7.5,1.1,15.4,2,23,2.5
			c0,0,0,0,0,0c-0.6-2.9-0.9-4.8-1.4-6C206.6,286.5,205.7,286.1,203.3,286.2z"/>
		<path class="st4" d="M247.6,267.8c-0.9-0.3-2.6,0.7-3.5,1c-1.8,0.6-3.7,1.1-5.5,1.7c-3.8,1.1-7.6,2-11.5,2.9
			c-0.4,0.7,0.6,1.4,1.3,1.6c4.5,1.3,9.2,1.9,13.8,1.9c1.5,0,5.3,0.4,6-0.9c0.4-0.8,0.1-2.7,0.1-3.6c0-1.2-0.1-2.4-0.2-3.6
			C248.2,268.2,248,267.9,247.6,267.8z"/>
		<path class="st4" d="M243.4,288.6c-7.3-0.3-14.5-1.1-21.6-2.6l-0.2-0.2c0.2,1.4,0.4,2.8,0.5,4.2c0,0.2,0,0.4,0.1,0.6
			c0.1,1.2,0.2,2.5,0.4,3.6c0,0,0,0,0,0c3.5-0.3,7-1.3,10.4-2.2C236.5,291.1,240,289.9,243.4,288.6z"/>
		<path class="st4" d="M135.8,283.7c-6.7,1.5-13.5,2.1-20.3,1.7c0,0,0,0,0,0c0,0,0,0,0,0c6.1,3.8,13.5,5.2,20.6,4
			c0.1,0,0.2,0,0.4-0.1c-0.2-1.4-0.4-2.8-0.6-4.2c0-0.2-0.1-0.5-0.1-0.7L135.8,283.7z"/>
		<path class="st4" d="M176.8,286.2c0.2-1,0-2.1-0.6-2.9L161,283l-0.1,0c0,0,0,0,0.1,0C166.2,285.3,171.1,286.5,176.8,286.2z"/>
		<path class="st4" d="M137.1,271.9c-5.8,0-12.8-5.1-23.4-5.3c-0.1,0-0.2,0-0.3-0.1c-0.1,2,0.4,3.9,0.8,6c0.1,0,0.2,0,0.4,0
			C124.1,274.4,144.7,271.9,137.1,271.9z"/>
		<path class="st7" d="M212.5,169.4c0.2-3.1,0.3-6.3,0.2-9.4c-0.1-1.6-0.2-3.2-0.5-4.8c-0.1-0.8-0.3-1.5-0.5-2.3c0-0.1,0-0.1,0-0.1
			l-0.2-0.7c-0.1-0.2-0.2-0.4-0.3-0.7l-0.2-0.4l-0.1-0.2l-0.1-0.1l-0.3-0.5c-1.8-2.8-4.3-5.2-6.9-7.1c-2.7-1.9-5.6-3.4-8.6-4.6
			c-1.5-0.6-3.1-1-4.7-1.4c-1.6-0.3-3.2-0.6-4.8-0.7c-3.2-0.3-6.4-0.1-9.6,0.4c-1.6,0.2-3.1,0.5-4.6,0.9c-0.8,0.2-1.5,0.4-2.3,0.6
			c-0.8,0.2-1.5,0.4-2.3,0.7c0.8,0,1.6,0,2.3,0c0.3,0,0.7,0,1,0c0.4,0,0.9,0,1.3,0c1.6,0,3.1,0,4.6,0c3.1,0.1,6.1,0.3,9,0.8
			c2,0.4,4,0.9,5.9,1.5c0.9,0.3,1.7,0.6,2.6,1c2.7,1.1,5.3,2.6,7.7,4.3c1.2,0.8,2.3,1.8,3.4,2.7c1,1,2,2.1,2.8,3.2l0.3,0.4l0.1,0.1
			l0,0.1l0.1,0.2l0.2,0.4l0.2,0.4c0.2,0.6,0.4,1.3,0.6,2c0.3,1.4,0.6,2.9,0.8,4.4c0.2,1.2,0.3,2.5,0.5,3.7c0.2,1.8,0.4,3.6,0.5,5.4
			c0.2,3.1,0.5,6.2,0.5,9.3c0.1-0.4,0.2-0.8,0.3-1.2c0.3-1.1,0.5-2.3,0.6-3.4C212.2,172.5,212.4,170.9,212.5,169.4z"/>
		<path class="st11" d="M198.1,153.7c0.4,0,0.9,0.1,1.3-0.1c0.4-0.2,0.7-0.8,0.8-1.3c0.3-1.3,0-2.4-0.9-3.4c-0.7-0.8-2.4-1.6-3.5-1
			c-1.3,0.6-1.8,2.9-1.2,4.1C195.3,153.1,196.7,153.5,198.1,153.7z"/>
		<path class="st11" d="M265.2,147.8c-1.3,0.6-1.8,2.9-1.2,4.1c0.6,1.2,2.1,1.7,3.4,1.8c0.4,0,0.9,0.1,1.3-0.1
			c0.4-0.2,0.7-0.8,0.8-1.3c0.3-1.3,0-2.4-0.9-3.4C268,148.1,266.3,147.3,265.2,147.8z"/>
		<path class="st4" d="M173.9,297.8c-0.4-0.5-0.8-0.9-1.3-1.3c0.3,0.5,0.6,1.1,0.8,1.6c0.3,0.5,0.5,1,0.7,1.6c0.2,0.5,0.5,1,0.7,1.6
			l0.6,1.7c0.1-0.6,0.1-1.2,0-1.8c-0.1-0.6-0.3-1.2-0.5-1.8C174.6,298.8,174.2,298.3,173.9,297.8z"/>
		<path class="st4" d="M177.6,300.5c-0.1-0.6-0.3-1.2-0.5-1.8c-0.2-0.6-0.6-1.1-0.9-1.6c-0.4-0.5-0.8-0.9-1.3-1.3
			c0.3,0.5,0.6,1.1,0.8,1.6c0.3,0.5,0.5,1,0.7,1.6c0.2,0.5,0.5,1,0.7,1.6l0.5,1.6l0,0.1c0,0,0-0.1,0-0.1
			C177.7,301.6,177.7,301.1,177.6,300.5z"/>
		<path class="st4" d="M134.2,302.3c0.2,0.5,0.5,1,0.7,1.6l0.6,1.7c0.1-0.6,0.1-1.2,0-1.8c-0.1-0.6-0.3-1.2-0.5-1.8
			c-0.2-0.6-0.6-1.1-0.9-1.6c-0.4-0.5-0.8-0.9-1.3-1.3c0.3,0.5,0.6,1.1,0.8,1.6C133.7,301.3,133.9,301.8,134.2,302.3z"/>
		<path class="st4" d="M137,301.2c0.2,0.5,0.5,1,0.7,1.6l0.6,1.7c0.1-0.6,0.1-1.2,0-1.8c-0.1-0.6-0.3-1.2-0.5-1.8
			c-0.2-0.6-0.6-1.1-0.9-1.6c-0.4-0.5-0.8-0.9-1.3-1.3c0.3,0.5,0.6,1.1,0.8,1.6C136.5,300.2,136.8,300.7,137,301.2z"/>
		<path class="st4" d="M200.6,313.8c0.2,0.5,0.5,1,0.7,1.6l0.6,1.7c0.1-0.6,0.1-1.2,0-1.8c-0.1-0.6-0.3-1.2-0.5-1.8
			c-0.2-0.6-0.6-1.1-0.9-1.6c-0.4-0.5-0.8-0.9-1.3-1.3c0.3,0.5,0.6,1.1,0.8,1.6C200.1,312.8,200.3,313.3,200.6,313.8z"/>
		<path class="st4" d="M203.4,312.7c0.2,0.5,0.5,1,0.7,1.6l0.6,1.7c0.1-0.6,0.1-1.2,0-1.8c-0.1-0.6-0.3-1.2-0.5-1.8
			c-0.2-0.6-0.6-1.1-0.9-1.6c-0.4-0.5-0.8-0.9-1.3-1.3c0.3,0.5,0.6,1.1,0.8,1.6C202.9,311.6,203.2,312.1,203.4,312.7z"/>
		<path class="st4" d="M245.8,318c0.2,0.5,0.5,1,0.7,1.6l0.6,1.7c0.1-0.6,0.1-1.2,0-1.8c-0.1-0.6-0.3-1.2-0.5-1.8
			c-0.2-0.6-0.6-1.1-0.9-1.6c-0.4-0.5-0.8-0.9-1.3-1.3c0.3,0.5,0.6,1.1,0.8,1.6C245.4,316.9,245.6,317.4,245.8,318z"/>
		<path class="st4" d="M248.7,316.8c0.2,0.5,0.5,1,0.7,1.6l0.6,1.7c0.1-0.6,0.1-1.2,0-1.8c-0.1-0.6-0.3-1.2-0.5-1.8
			c-0.2-0.6-0.6-1.1-0.9-1.6c-0.4-0.5-0.8-0.9-1.3-1.3c0.3,0.5,0.6,1.1,0.8,1.6C248.2,315.8,248.4,316.3,248.7,316.8z"/>
	</g>
	<path class="st3" d="M233.1,186c0.1-0.8,0-1.6,0-2.3c0-0.5-0.1-1-0.1-1.6c-0.5-7.7-0.1-15.4,0.4-23.1c0.2-2.8,0.3-5.6,0.5-8.4
		c0.3-5.6-0.6-8.5,3.9-12.5c7.8-7,19.3-9.7,29.4-6.9c-2.8-1.7-6.2-2.1-9.4-2.3c-11.5-0.9-23.2-0.2-34.8-0.2
		c-15.2,0-30.4-0.5-45.6-0.1c-0.8,0-1.6,0-2.4,0.2c-0.9,0.2-2,0.9-1.8,1.9c0.2,0.9,1.4,1.1,2.4,1.1c9.1-0.2,18.5-1.7,26.1,4.4
		c2.1,1.7,4,3.6,5.7,5.7c2,2.6,4.2,7.5,4.3,10.7c0,0.1,0,0.2,0,0.3c0.2,0.8,0.4,1.6,0.5,2.3c0.3,1.6,0.4,3.2,0.5,4.8
		c0.2,3.2,0.1,6.3-0.2,9.4c-0.1,1.6-0.3,3.1-0.5,4.7c-0.2,1.1-0.4,2.3-0.6,3.4c0,4.6-0.1,8.4,0,10.1c2.5-0.2,4.9-0.3,7.4-0.5
		C223.4,186.7,228.3,186,233.1,186z"/>
	<path class="st10" d="M144.7,115.7c1.6-0.7,3.9-3.3,6.3-6.4c-3.2-1.2-6.5-2.3-9.8-3.2c2.3-0.2,4.6-0.4,7-0.7c-2.1-3-3.5-6.5-4-10.1
		c2.8,4,5.6,7.9,8.5,11.9c2.6-3.6,5.1-7.3,6.3-9c0.6-0.8,1.2-1.9,0.9-2.9c-0.2-0.6-0.7-1-1.2-1.5c-4.3-3.7-9.2-6.8-14.5-9.1
		c-1.5-0.7-3.1-1.3-4.6-0.7c-3.9,1.3-2.7,7.5-5.6,10.4c-1.3,1.2-3.3,1.8-3.8,3.5c-0.3,0.9,0,1.9,0.3,2.9
		C132.2,105.5,139.2,118.1,144.7,115.7z"/>
	<path class="st4" d="M144.2,95.3c0.5,3.6,1.9,7.1,4,10.1c-2.3,0.2-4.6,0.4-7,0.7c3.3,0.9,6.6,2,9.8,3.2c1,0.4,2,0.8,3.1,1.2
		l0.8-0.1c-0.8-1.1-1.5-2.1-2.3-3.2C149.8,103.2,147,99.3,144.2,95.3z"/>
	<path class="st10" d="M273,98.2c1,1.5,2.8,4.5,4.8,7.6c1.4-2.6,2.6-5.2,3.8-7.9c-0.1,2.3-0.2,4.7-0.3,7c3.3-1.6,6.9-2.5,10.6-2.6
		c-4.1,2.1-8.1,4.2-12.2,6.3c2.5,3.6,5.1,6.9,6.8,7.7c5.4,2.5,12.9-9.8,14.8-14.5c0.4-0.9,0.7-1.9,0.4-2.8c-0.5-1.7-2.5-2.4-3.7-3.6
		c-2.8-2.9-1.4-9.1-5.2-10.6c-1.5-0.6-3.2,0-4.7,0.6c-5.3,2.1-10.3,5-14.8,8.6c-0.5,0.4-1,0.8-1.2,1.4
		C271.9,96.3,272.4,97.3,273,98.2z"/>
	<path class="st4" d="M291.9,102.3c-3.7,0-7.3,0.9-10.6,2.6c0.1-2.3,0.2-4.7,0.3-7c-1.2,2.7-2.4,5.3-3.8,7.9
		c-0.8,1.4-1.5,2.9-2.3,4.3l0,0.8c1.4-0.7,2.9-1.5,4.3-2.2C283.8,106.5,287.8,104.4,291.9,102.3z"/>
</g>
<g id="cadre_9_">
	<rect x="0" y="0" class="st12" width="368.5" height="340.2"/>
</g>
</svg>
