<svg id="catgirl" xmlns="http://www.w3.org/2000/svg" viewBox="0 0 368.5 340.16"><defs><style>.cls-1{fill:none;}.cls-2{fill:#25221f;}.cls-3{fill:#040404;}</style></defs><g id="cadre"><rect class="cls-1" width="368.5" height="340.16"/></g><path d="M333.17,159.68c-6.45-16-1.05-34.05-2.2-50.16-1.41-19.75-7.72-38.67-15.83-57.17A21.6,21.6,0,0,0,310,45.26a7.11,7.11,0,0,0-10.75,1c-2.95,4.52-5.76,9.11-8.71,13.64-8,12.27-15.54,24.73-24.11,36.71-6.55,9.16-18,13.34-30.92,9a132.9,132.9,0,0,0-25.18-5.88c-17.72-2.33-35.58-1.61-53.2.94-8.6,1.24-16.93,3.74-25.4,5.63-5.73,1.28-11.12.22-15-3.33A235.28,235.28,0,0,1,84.94,67.36C78.76,58.72,72.22,50.23,65.26,42c-3.71-4.38-9.34-4.13-13.31.19a38.52,38.52,0,0,0-6.78,9.66C34.89,74.4,32.55,98,33,121.8c.12,7.1.76,14.12.59,21.12a64.28,64.28,0,0,1-1,10.59c-1.95,10.33-5.31,20.53-6.77,30.91-2.22,15.81-.06,31.09,9.84,45.06,7.73,10.9,18.59,18.21,33.68,21.88a133.73,133.73,0,0,0,35.23,4.1c15.27-.36,29.78-3.91,44.33-7.31a67.14,67.14,0,0,1,22.63-1,139.62,139.62,0,0,0,39.63-1.58,39.41,39.41,0,0,1,7.6-.65c7.82.12,14.91,2.19,22.25,4.57a103.59,103.59,0,0,0,68.59-1.16c16.55-6,26.88-16.77,31.31-31.25C347.36,195.77,341.12,179.39,333.17,159.68ZM116.23,209.63c-16.17-3.35-29.88-12.3-35.12-25.85-1.12-2.88-1.06-6.59-3-9.22-2.43-3.32-7.06-4.92-7.53-9.31.18,1.68,3.62,2.51,5.25,2.54,4.32.1,2.17-1.84.51-3.94a16.82,16.82,0,0,1-2.82-4.44,15,15,0,0,1-.64-4.93c1.62.74,3.29,1.46,5,2.14,9.43,3.7,19.9,5.5,29.56,8.81,5.53,1.89,11.09,3.82,16,6.66,16.35,9.43,25,26.15,29.61,41.6C141,209.91,128.54,212.18,116.23,209.63Zm179.65-35.07c-1.92,2.63-1.86,6.34-3,9.22-5.25,13.55-18.95,22.5-35.13,25.85-12.3,2.55-24.79.28-36.83,4.06,4.56-15.45,13.27-32.17,29.62-41.6,4.91-2.84,10.47-4.77,16-6.66,9.65-3.31,20.13-5.11,29.55-8.81,1.71-.68,3.38-1.4,5-2.14a14.7,14.7,0,0,1-.64,4.93,16.82,16.82,0,0,1-2.82,4.44c-1.65,2.1-3.8,4,.51,3.94,1.63,0,5.08-.86,5.26-2.54C302.94,169.64,298.31,171.24,295.88,174.56Z"/><path class="cls-2" d="M46.57,283.27q3.41.6,3.41,3.23v.41q0,1.43-9.27,20.28-3,4.65-5.37,4.65c-2-.38-2.93-1.19-2.93-2.43v-.81q0-4,11-23.93A5.14,5.14,0,0,1,46.57,283.27Z"/><path class="cls-2" d="M60.79,278.87c2.12.32,3.18,1.14,3.18,2.43v1q-1,3.17-6.84,7.29a9.13,9.13,0,0,1-3.41,1q-2.13,0-2.7-2.43,0-3.48,8-8.91A4.51,4.51,0,0,1,60.79,278.87Z"/><path class="cls-2" d="M88.44,279.81c3.09.5,4.64,1.78,4.64,3.86q0,2-6.36,19.05c-.9,5.68-2.86,8.52-5.85,8.52h-.23q-3,0-3.43-3.86a105.81,105.81,0,0,1,3.43-12.16q-5.67,6.28-7.32,6.29c-.87.13-1.36.19-1.47.19q-3,0-4.39-3.44c-.12-2-.37-3-.73-3l-7.82,15a5.53,5.53,0,0,1-2.43.8c-1.5,0-2.4-.95-2.7-2.83q0-4.29,10.5-22.71,2.85-3.86,5.61-3.86h.5q4.39,0,4.39,8.32a62.66,62.66,0,0,0,5.12-5.07Q85.6,280,88.44,279.81Z"/><path class="cls-2" d="M136.5,280.83h1.21q4.15.69,4.16,4.87,0,3-3,13.74c2.91.06,4.09,1.15,3.52,3.28s-2.2,3.34-4.9,3.65c-.64,3.38-2.19,5.08-4.64,5.08-2.28,0-3.64-1.69-4.1-5.06q-2.94.36-10.29.59-1.8,2.64-3.66,2.64h-.5c-1.47-.18-2.2-.79-2.2-1.82v-.61q3.06-7.41,16.35-21.3Q133.9,280.83,136.5,280.83Zm-12.93,19.25v.21c2.18-.26,4.45-.53,6.82-.78.49-.43,1.3-3.48,2.45-9.16A71.39,71.39,0,0,0,123.57,300.08Z"/><path class="cls-2" d="M215.86,280.83h1.22q4.15.69,4.16,4.87,0,3-3,13.74,4.36.09,3.52,3.28c-.57,2.12-2.2,3.34-4.91,3.65-.64,3.38-2.18,5.08-4.64,5.08q-3.4,0-4.1-5.06-2.92.36-10.29.59-1.8,2.64-3.66,2.64h-.5c-1.46-.18-2.19-.79-2.19-1.82v-.61q3-7.41,16.35-21.3Q213.27,280.83,215.86,280.83Zm-12.92,19.25v.21c2.17-.26,4.45-.53,6.82-.78.48-.43,1.3-3.48,2.44-9.16A72,72,0,0,0,202.94,300.08Z"/><path class="cls-2" d="M243.61,282.66h.74c3.47,0,5.5,1.14,6.08,3.44q0,2.83-9.26,3.44-8.21,15.7-12.7,21.91a5.8,5.8,0,0,1-3.41,1.21c-1.66,0-2.71-1-3.17-3q.72-3.15,11.23-19.47c-.17,0-.26-.07-.26-.2l-5.35.4c-2.61-.19-3.91-1.21-3.91-3q0-3.19,10.5-4A74.52,74.52,0,0,1,243.61,282.66Z"/><path class="cls-2" d="M264.53,281.63q5.85.78,5.85,4.47v.81c-.39,3.11-1.77,4.66-4.16,4.66-1.46-.17-2.19-.78-2.19-1.82v-2.23q-4.53,0-10,8.31a11.17,11.17,0,0,0-1.21,4.25v.82c.33,3.1,1.55,4.66,3.66,4.66h1q2.28,0,4.89-3.44v-.42q-4.4-.66-4.39-3.23v-.61q0-2.48,5.35-2.85,8.31,0,8.31,4.67,0,4.17-6.11,9.52-3.87,2.64-6.59,2.64h-2.42q-7.16,0-10.25-7.5a9,9,0,0,1-.5-2.83v-1q0-8.78,10.75-16.42A15.33,15.33,0,0,1,264.53,281.63Z"/><path class="cls-2" d="M285.69,283.27q3.4.6,3.41,3.23v.41q0,1.43-9.26,20.28-3,4.65-5.38,4.65c-1.95-.38-2.93-1.19-2.93-2.43v-.81q0-4,11-23.93A5.19,5.19,0,0,1,285.69,283.27Z"/><path class="cls-2" d="M302.82,281.23a20.15,20.15,0,0,1,11.71,4,7,7,0,0,1,2.2,4.67v1.22q0,4.84-11,9.12a11.22,11.22,0,0,1-2.45.61v.19q7.57,7.17,7.57,8.53c0,1.06-1,1.8-2.93,2.22q-2.44,0-7.09-2.83-5-4.11-5.12-4.88h-.23c-.38.27-1.52,2.36-3.43,6.29a6.74,6.74,0,0,1-3.16,1.42q-2.87,0-3.43-3v-.2q0-2.78,10.25-21.29h-2.2c-1.61-.26-2.42-.94-2.42-2v-.61q0-2.58,8.28-3.44Zm.73,5.88-3.18,7.1c-.16,0-.32.2-.48.61h.48q2.75,0,8.31-3.46a2,2,0,0,1,.73-1.21Q309.41,288.59,303.55,287.11Z"/><path class="cls-2" d="M333.46,281.84q2.7.54,2.7,2.22v.61q0,1.6-5.31,9.83t-5.8,9.44l7.89,0c1.95,0,2.92.61,2.92,1.83V306q-1.22,4.08-17.15,7.5c-.85.14-1.33.21-1.46.21q-4.63-.66-4.64-3.65v-.61q0-2.91,14.89-22.37,3.62-5.19,4.75-5.2Z"/><path class="cls-3" d="M182.71,279.67h1.23q4.86,0,6.43,4.31v1.43c-.51,4-1.91,6-4.2,6h-.49c-1.36,0-2.27-.9-2.74-2.68l.26-1V286q-3.69,0-9.66,8.63a11.84,11.84,0,0,0-1.74,5.15v1q0,3.51,5.94,3.51l10.4-.62c1.82.27,2.74,1,2.74,2.26q0,3.72-11.14,5.14h-3.23q-9.18,0-12.36-7.4a9.28,9.28,0,0,1-.51-2.89v-.19q0-8.37,10.16-17.27Q178.56,279.66,182.71,279.67Z"/></svg>