<svg viewBox="0 0 368.5 340.16" xmlns="http://www.w3.org/2000/svg"><path d="m107.11 137.6c1-.33 1.39-1.9 1.69-2.73a38.15 38.15 0 0 0 1.13-3.88 23.82 23.82 0 0 0 1-8.38c-.48-4.77-3-10.19-7.75-12.1-.11 1.23.22 2.44.18 3.66a28.75 28.75 0 0 1 -.54 4 45.43 45.43 0 0 0 -1.07 7.86 15.81 15.81 0 0 0 5.36 11.57z" fill="#589785"/><path d="m88.07 127.69c2 1.07 4.32 1.39 6.36 2.38-.14-.18.37-1.24.43-1.48a10.93 10.93 0 0 0 .31-1.8 8.79 8.79 0 0 0 -.49-3.59 16.77 16.77 0 0 0 -3.76-5.94 19 19 0 0 0 -5.46-3.39 21.43 21.43 0 0 1 -3.08-1.78 10.11 10.11 0 0 0 -3-1.79c.79 3.23.54 6.66 1.62 9.83 1.09 3.33 4 5.95 7.07 7.56z" fill="#589785"/><path d="m94.65 130.17-.22-.1c.06.08.15.24.22.1z" fill="#589785"/><path d="m105 155.07c-1.27-.55-2.51 3.23-2.69 4.11a12.7 12.7 0 0 0 .84 7.25 49.31 49.31 0 0 0 3.36 5.86c.59 1.05 1 2.16 1.61 3.22a7.87 7.87 0 0 1 1.18 3.26c2.81-4 4.37-9.17 3.31-14a14.74 14.74 0 0 0 -7.61-9.7z" fill="#589785"/><path d="m78.48 167.31c3-1 6-2.91 7.32-5.88.79-1.8.59-4.6-1.68-5.11-2.45-.56-5.11 1.49-6.66 3.18a16.94 16.94 0 0 0 -2.71 4.28 12.39 12.39 0 0 0 -1.47 5.09 5.29 5.29 0 0 1 2.27-.74c.99-.23 1.97-.51 2.93-.82z" fill="#589785"/><path d="m283.8 169.1c-6.57 3.45-9.43 11.84-8.32 18.84.76-2.64 3.25-4.57 5.49-5.94 2.45-1.51 4.91-2.86 6.65-5.22a13.42 13.42 0 0 0 2.54-7.05c0-.4.25-1.56 0-1.86s-1.87-.22-2.28-.17a11.76 11.76 0 0 0 -4.08 1.4z" fill="#589785"/><path d="m299.57 161.93a4.37 4.37 0 0 0 -1.2 1.85c-.45.94-1 1.85-1.33 2.82a15 15 0 0 0 -.82 6.17 15.73 15.73 0 0 0 4 10 18.09 18.09 0 0 1 1.29-5.88c.68-1.82 1.78-3.6 2.06-5.53a9.52 9.52 0 0 0 -1.22-5.25 10.09 10.09 0 0 0 -2.78-4.18z" fill="#589785"/><path d="m351.33.81-.72.24a2.35 2.35 0 0 0 .72-.24z" fill="#589785"/><path d="m280.07 54.44c2.77-.56 5.86-1 8.15-2.8-2.87-.4-5.6-1.37-8.42-2a19.71 19.71 0 0 0 -8.34-.1 27 27 0 0 0 -7.84 3.11c-1.91 1.09-4.93 2.54-5.78 4.74 7.31-1.69 14.89-1.39 22.23-2.95z" fill="#589785"/><path d="m297.34 44.08-.12.11c.18 0 .22-.04.12-.11z" fill="#589785"/><path d="m356.77 11.62c-.67-2.12-1.32-4.26-2.17-6.33a26.8 26.8 0 0 0 -1.4-2.91c-.34-.6-.8-1.73-1.56-1.26.4-.36.77-.72 1.16-1.1h-6.7c-.29 0-.84-.19-.76.19-.16-.29 0-.23-.21-.71l-.54.52s0 0 0 0a12.76 12.76 0 0 1 -2.68 0h-8.52a16.16 16.16 0 0 0 8.47 2.92 2.69 2.69 0 0 0 -1.31.93l-2.25 2.13-1 .93c-.17.16-.71.87-1 .92-.47.09-1.65-.67-2.12-.86-3.38-1.41-6.66-3.14-10.14-4.31a38.77 38.77 0 0 0 -21.58-1c-4.11 1-7.58 3.18-11.26 5.17 3.71.62 7.49.4 11.21.87s7.22 1.47 10.83 2.21a55.64 55.64 0 0 0 11 1.13 52.67 52.67 0 0 0 5.33-.24c1.34-.13 3.44-.08 4.57-.88-.38.28-.36.34.07.19a7.31 7.31 0 0 0 -2.3 2l-3.11 3q-3.14 3-6.29 6a14.31 14.31 0 0 0 2 .66c-.32-.07-1.9-.76-2.07-.6 0 0-1.85-.81-2.09-.91l-2.13-.89a45 45 0 0 0 -4.39-1.58 43 43 0 0 0 -9.14-1.64c-6.61-.45-12.75 1.23-19 3.23a9.06 9.06 0 0 1 4 0c1.48.21 3 .41 4.44.67 2.95.51 5.81 1.42 8.72 2.09a72.56 72.56 0 0 0 8.78 1.51 42.29 42.29 0 0 0 4.64.24c1.18 0 3.06.2 4-.65l-.41.39.4-.06c-1.21.32-2.21 1.76-3.09 2.59l-3.66 3.38c-2.5 2.29-5 4.56-7.52 6.84l.34.21a.83.83 0 0 0 -.49-.08c.28-.25-.16-.35-.37-.51s-.57-.48-.85-.73c-.51-.48-1-1-1.47-1.48a24.28 24.28 0 0 0 -2.81-2.65 20 20 0 0 0 -7.33-3.16 26.4 26.4 0 0 0 -8.58-.68c-1.54.14-3.07.37-4.61.55a12.74 12.74 0 0 1 -4.6.2c2.72 1 5.11 2.61 7.76 3.71s5.68 1.93 8.53 2.83 5.7 1.94 8.6 2.75a24 24 0 0 0 3.53.88 3.36 3.36 0 0 0 2.94-.72 2.62 2.62 0 0 1 -2 .84c-1 0-1.48.66-2.18 1.29q-2.54 2.28-5.12 4.53c.4.36.56.29 1.14-.07-.2.13-.48.47-.74.46s-.28-.39-.6-.26c.45-.24-1.08-1-1.37-1.13a15.4 15.4 0 0 0 -1.75-.67c-1.41-.47-2.78-1.07-4.17-1.59a26.27 26.27 0 0 0 -9.65-1.92c-5.91.07-12.32 1-17.38 4.27 5.68-1.89 11.64.18 17.23 1.39a33.69 33.69 0 0 0 8.95.84 40.29 40.29 0 0 0 4.37-.49 15.08 15.08 0 0 0 3.78-.81 14.77 14.77 0 0 0 -1.92 1.8c-.93.78-1.85 1.56-2.79 2.33-1.71 1.42-3.44 2.82-5.2 4.18.41-.15 1.43-.77 1.84-.7a22.71 22.71 0 0 0 -5 3.12c-1.81 1.33-3.64 2.63-5.51 3.88l.6-.19a15.71 15.71 0 0 0 -3 1.78l-3.28 2.11c1.89-1.25 3.81-2.43 5.68-3.7-5.2 1.61-10.74 2.69-15.23 6-2.39 1.75-4.45 3.94-6.68 5.87a70 70 0 0 1 -7.24 5.5 14.08 14.08 0 0 0 4.93 0c.56-.08 1.13-.15 1.69-.24a15.5 15.5 0 0 1 1.64-.45 1.94 1.94 0 0 0 -.58.32c.22-.07 1.09-.11 1.17-.36a1.45 1.45 0 0 1 -.29 0c-.25 0-.18-.13-.42 0 .52-.31 1-.76 1.56-1.08 1-.57 1.93-1.12 2.89-1.7-1.43.87-2.89 1.66-4.24 2.63a12.21 12.21 0 0 1 2.34-.71 28.75 28.75 0 0 0 3.33-1.31 44.29 44.29 0 0 0 9.24-5.41 71.52 71.52 0 0 0 7.32-7.14 22.86 22.86 0 0 1 1.64-1.73 21.13 21.13 0 0 1 2-1.3c1.47-.95 3.27-1.82 4.36-3.24-.13.18-.87.94-.22.51a20.19 20.19 0 0 0 -2.72 3.29 35.07 35.07 0 0 0 -2.4 3.51 46.87 46.87 0 0 0 -3.54 8.2 59 59 0 0 0 -3.43 17.48 113.87 113.87 0 0 0 9.17-16.25 63.37 63.37 0 0 0 3.6-8.75 31 31 0 0 0 1-4.57c.11-.74.2-1.48.28-2.22 0-.38.08-.75.11-1.12s.35-1.28-.1-1a.57.57 0 0 0 .22-.36c0 .46.7-.27.94-.44l1.25-.88 2.48-1.79a24.68 24.68 0 0 0 4.42-3.46c-.34.54.07.09.26 0a9 9 0 0 0 -2 3.7 48.46 48.46 0 0 0 -1.43 4.69c-.82 3.15-1.52 6.34-2.24 9.51a62.75 62.75 0 0 0 -1.53 19.36 73.93 73.93 0 0 0 7.1-19 48.17 48.17 0 0 0 1.58-10.41 27.07 27.07 0 0 0 -.49-5 10.81 10.81 0 0 1 -.21-2.41 3.13 3.13 0 0 1 .21-1.29 5.61 5.61 0 0 1 1.2-.94q2.24-1.77 4.44-3.58c1.14-.93 2.71-1.75 3.5-3a58.8 58.8 0 0 0 -3.6 18.63c-.06 6.8.77 13.56 1.41 20.32 1-3.29 2.19-6.53 3.27-9.8a71.1 71.1 0 0 0 2.86-10.12 28.45 28.45 0 0 0 -.26-10.16c-.32-1.68-.73-3.35-1.18-5-.23-.86-.48-1.71-.72-2.56-.1-.36-.21-.72-.31-1.09s-.11-1.21-.52-.92a.67.67 0 0 0 .16-.34c.11.37.73-.39.95-.57s.59-.51.89-.76l2.07-1.79c1.28-1.1 2.55-2.22 3.82-3.33s2.5-2.23 3.76-3.33a17.22 17.22 0 0 0 3.21-3.23c-.08.11-.83 1.1-.38.69a11.79 11.79 0 0 0 -2 4.22 27.68 27.68 0 0 0 -1.12 5 53.45 53.45 0 0 0 -.16 10.9c.53 7.44 2.1 15 1.37 22.46 1.95-7.62 4.93-15 6.08-22.82a54.24 54.24 0 0 0 0-11.88c-.15-2-.3-4-.31-6 0-1 0-2 .1-3q.06-.75.15-1.5c.06-.39.5-1.42-.12-.87a2.59 2.59 0 0 0 .52-1.37c-.08.37-.16.74-.22 1.11l5.44-4.9 2.65-2.38a7.35 7.35 0 0 0 2-2.11c0 .13-.09.27-.14.4l.56-.49c-1.22 1.1-1.3 3.42-1.54 5a60.59 60.59 0 0 0 -.61 6.16c-.22 4.13-.1 8.27-.31 12.4-.41 8.27-1.63 16.56-.85 24.85 2.42-6.6 5.11-13.12 7-19.91a73 73 0 0 0 2-10.35 40.63 40.63 0 0 0 .15-10.8 26.82 26.82 0 0 0 -1.46-5.33 21.47 21.47 0 0 1 -.88-2.79c-.11-.52-.45-1.7-.21-2.18 0-.26 1.23-1.08 1.43-1.25l1.87-1.61c.89-.77 2.14-1.45 2.5-2.63a4.75 4.75 0 0 0 -.14.63c.11-.11.23-.21.35-.31-.91 1-.58 3-.56 4.22 0 1.62-.07 3.23 0 4.85a52.26 52.26 0 0 0 1.59 9.77c1.39 6.5 2.76 13 4.4 19.42.94 3.7 1.88 7.4 2.7 11.13 1.55-3 2-6.52 2.61-9.85a65.06 65.06 0 0 0 1.12-10.61 48.5 48.5 0 0 0 -1-10.54c-.78-3.48-1.94-6.92-3.01-10.3zm-79.41 50.27 1-.72zm2.86-3.7 1.26-.46zm3.65-1.29a5.61 5.61 0 0 1 .89-.72c-.31.22-.6.48-.89.72zm5.74-5.15c.08 0 .07 0 0 0s.06 0-.17-.06c.24 0 .13 0 .32-.25zm.39.25c0-.38-.16 0 0-.38 0 .3 0 .21.36.22a.53.53 0 0 0 -.36.16zm8.42-7.96c.09-.06 1-.54.6-.41l.36-.17-.22.13a5.3 5.3 0 0 0 .59-.27c-.37.22-.83.43-1.26.68zm1.76 1.79-.14.11a1.69 1.69 0 0 0 .24-.41zm7.32-8.7.26.07zm19.29-14.03.71-.64zm-.85 0c-.18.23-.35.46-.52.7 1.3-1.87 2.79-3.61 4.19-5.4zm3.37-3.51a4.29 4.29 0 0 1 .32-1.23c-.05.4-.16.81-.25 1.22zm8.15-10.53a4.84 4.84 0 0 0 .76-.47 4.34 4.34 0 0 1 -.69.46zm3.31 1.48c.45-.4.9-.81 1.36-1.2zm2.23-2.6a.4.4 0 0 1 0-.15zm.55-1.86a4.54 4.54 0 0 0 -.78.35 5.19 5.19 0 0 0 .77-.35zm5.16-2.96a1.06 1.06 0 0 1 .09-.25zm1-.27-.14.11c.23-.2.28-.24.14-.11zm1.62-2c-.48.3-1.08.28-1.55.6.2-.14.19-.16 0-.07.53-.28 0-.08-.17 0 .28-.09.56-.17.83-.27a2.87 2.87 0 0 0 -.4.18c.45-.11.88-.25 1.31-.4a3.54 3.54 0 0 0 -.45.08 2.38 2.38 0 0 1 .76-.15z" fill="#589785"/><path d="m350.61 1.05a1.78 1.78 0 0 0 -.68.24z" fill="#589785"/><path d="m103.75 290.45a28.22 28.22 0 0 0 -9.46 5.87l.5-.14a2.55 2.55 0 0 0 -.7.35c.3-.3.11-.15-.17-.1s-.5.15-.74.22l-1.66.51-3 1a20.09 20.09 0 0 0 -4.9 1.84 66.53 66.53 0 0 0 7.38-6.68c2.54-2.71 4.9-5.57 7.47-8.25 4.55-4.74 9.69-9.05 15.72-11.77-14.61 2.31-27.7 10.42-37.19 21.57-1.51 1.78-2.93 3.62-4.28 5.52-.7 1-1.39 2-2 3-.3.46-.59.93-.88 1.4l-.48.78c-.08.14-.63.76-.22.56a1.83 1.83 0 0 0 -.3.32c.34-.57-.3 0-.53.08l-1 .49c-.64.31-1.27.64-1.92.95a6.72 6.72 0 0 0 -2.87 1.88c.11-.15.79-.81.29-.55 1.24-.88 2.07-2.8 2.85-4.07q1.48-2.41 2.8-4.94c1.75-3.38 3.26-6.87 4.74-10.37 2.9-6.85 5.69-14.08 10.66-19.75a58.8 58.8 0 0 0 -16.92 12.83 49.5 49.5 0 0 0 -6.4 8.82 64.46 64.46 0 0 0 -4.45 10.57c-1.51 4.35-3.07 8.67-4.28 13.11l.42-.25a1.26 1.26 0 0 0 -.58.84c.05-.2.1-.39.16-.59q-1.9 1.22-3.81 2.5a13 13 0 0 0 -3.35 2.51c.28-.54 0-.22-.19 0 1.15-1.17 1.75-3.1 2.4-4.59s1.34-3.24 1.9-4.91a31.76 31.76 0 0 0 1.85-10.53c-.06-6.86-2.07-13.88 0-20.64a51.2 51.2 0 0 0 -9.2 22.38 68 68 0 0 0 -.41 12.66c.1 2.16.23 4.31.31 6.46 0 .31.2 1.1 0 1.37a4.51 4.51 0 0 1 -.87.68c-.83.65-1.64 1.3-2.44 2a118.65 118.65 0 0 0 -10.36 9.69c3.85-4.48 4.94-10.71 5.06-16.45.13-7.15-1-14.27-.94-21.42a28.37 28.37 0 0 1 .64-6 46.22 46.22 0 0 0 1.09-6.07 74 74 0 0 0 -7.93 19.06 46.67 46.67 0 0 0 -1.33 10.91 108.31 108.31 0 0 0 .89 11.09c.23 2.09.41 4.18.47 6.28 0 1.64.26 3.55-.55 5.05a14.91 14.91 0 0 0 1.78-1.53c-1.26 1.36-2.5 2.75-3.7 4.17h5.48c.32 0 .66-.12.92-.12a16 16 0 0 0 1.74.12h3.23 6.61a30.87 30.87 0 0 0 -5.1-2.04c-1-.29-3-1.12-4-.55a141 141 0 0 1 11.28-10.15 4.91 4.91 0 0 0 -.53 0 2.72 2.72 0 0 0 .79-.26c-.41.35 0 .21.35.27a5 5 0 0 1 .87.21 6.56 6.56 0 0 1 1.81 1 17.49 17.49 0 0 1 2.7 2.87 27.34 27.34 0 0 0 6.4 6.21 24.82 24.82 0 0 0 3.81 1.94 11.3 11.3 0 0 0 4.49.46h10.1c1.61 0 3.51.3 5.06-.15a16.38 16.38 0 0 1 5.3-1c-3.21-1.6-6.76-2.29-10.12-3.49a93.32 93.32 0 0 1 -9.84-4.43c-3.25-1.6-6.45-3.36-9.83-4.66a17.85 17.85 0 0 0 -5.28-1.3 13.07 13.07 0 0 0 -4.48.63 10.34 10.34 0 0 0 3.14-2c.24-.2 2.94-2.22 2.95-2.2s.65-.48.7-.52l-.32.26q2.07-1.43 4.19-2.79l2-1.23 1-.6c.27-.17 1.21-.48.79-.71a.92.92 0 0 0 .37 0c-.33.2.5.46.74.61s.78.49 1.16.75c.75.52 1.48 1.09 2.22 1.63a50.5 50.5 0 0 0 4.66 3 43.52 43.52 0 0 0 9.79 4.35c7.83 2.24 15.71.54 23.48-1a17.82 17.82 0 0 0 -4.66-1.18c-1.79-.28-3.56-.61-5.33-1-3.53-.81-7-1.83-10.44-3s-6.72-2.42-10.15-3.38a47.62 47.62 0 0 0 -5.28-1.11l-2.38-.41a4.16 4.16 0 0 0 -2.26-.12c1.75-1.08 3.66-2.08 5.52-3.08s4-2.09 6.06-3.08h-.54a3.65 3.65 0 0 0 1-.22l-.45.21c6 0 11.55 2.33 17.1 4.26a32.56 32.56 0 0 0 9 2.09 34.92 34.92 0 0 0 9-.86c3.49-.72 6.92-1.72 10.41-2.48-6.54 1-12.88-.9-19-3-3.07-1-6.15-2.06-9.31-2.81a43.05 43.05 0 0 0 -4.77-.89c-1.44-.19-3.11-.5-4.5 0l.73-.32c-.58 0-1.17 0-1.75 0h1.57a6.87 6.87 0 0 0 1.6-.59c1.13-.47 2.27-.92 3.41-1.36q3.33-1.29 6.72-2.41l-.52-.25c.72.33 1.44-.06 2.15-.28l-1.63.52c5.65 2.58 12.12 2.09 18 .9 6.67-1.34 13.1-3.62 19.65-5.41a58.1 58.1 0 0 1 11.3-2.02c-11.88-4.8-25.81-8.18-38.25-3.55z" fill="#589785"/><path d="m51.35 321.32s-.4.25-.36.3z" fill="#589785"/><path d="m16.13 331.28a64.19 64.19 0 0 0 -4-15c-.87-2.32-1.8-4.62-2.85-6.87a35.86 35.86 0 0 1 -2.79-7.07c-2.64 7.26-2.91 15.14-1.8 22.73a69.45 69.45 0 0 0 2.51 11.13q.42 1.29.93 2.55c.28.71.31 1.31 1.14 1.44a11.32 11.32 0 0 0 2.1-.05h3.18c.38 0 1.88.27 2.16 0s0-1.62 0-1.87c-.09-2.27-.3-4.65-.58-6.99z" fill="#589785"/><path d="m0 0h368.5v340.16h-368.5z" fill="none"/><path d="m97.43 173.39c1.93.64 1.73 3.56 1.55 5.13a16.22 16.22 0 0 1 -1.55 5.68c-2.65 4.94-9.22 5.74-12.93 9.58-.47-2.39.63-5.12 1.19-7.43a24.75 24.75 0 0 1 2.36-6.72c1.89-3.27 5.38-6.41 9.38-6.24" fill="#b7dccc"/><path d="m114.45 139c-.4.36-.44-.41-.5-.75a5.81 5.81 0 0 1 -.06-1.5 10.3 10.3 0 0 1 .77-3 15.91 15.91 0 0 1 3.4-5.22c3.66-3.64 8.66-5.81 13.59-7.08-3.68 3.15-4.9 8.43-7.53 12.36a17.12 17.12 0 0 1 -5.2 5.54c-1.41.81-4.08 1.67-5.59.72" fill="#b7dccc"/><path d="m99.49 139.35c0 .61-1.27 1.26-1.75 1.49a7.81 7.81 0 0 1 -2.84.74 11.72 11.72 0 0 1 -6-1.47c-2.1-1-4-2.35-6.12-3.43-1.9-1-4.27-1.14-6-2.49.81-.62 2.2-.52 3.16-.81 1.26-.39 2.48-.92 3.77-1.2a15.7 15.7 0 0 1 8 .4 13.65 13.65 0 0 1 8.63 8.31" fill="#b7dccc"/><path d="m296 161.92c0-1.12-1.25-2.29-2-3a14.42 14.42 0 0 0 -2.85-2.25 11.24 11.24 0 0 0 -6.71-1.48 13 13 0 0 0 -10.32 7.11c2.92-2.1 7.49.45 10.51 1.16 2.19.52 4.43 1 6.63.23a20.19 20.19 0 0 0 5.68-3.42" fill="#b7dccc"/><path d="m309 152.53c-.67-.63-.69.76-.66 1.23a8.69 8.69 0 0 0 .43 1.88 15.07 15.07 0 0 0 2 4.25c1.72 2.49 4.62 5 7.65 5.67-1.28-1.57-1.48-3.93-1.6-5.86a11.17 11.17 0 0 0 -2-5.84c-1.1-1.56-2.73-3-4.73-3.05-1.79-.06-2.63 1.16-2.9 2.78" fill="#b7dccc"/><path d="m292.44 199c-.14-.13-1.09.48-1.24.56-.63.29-.86.48-.81 1.27a8.79 8.79 0 0 0 .72 2.32 11.88 11.88 0 0 0 1.45 2.81 14.5 14.5 0 0 0 9.26 6.07c-1.29-1.57-1.48-3.93-1.61-5.85a11.17 11.17 0 0 0 -2-5.85c-1.11-1.55-2.73-3-4.74-3.05-1.79-.06-2.62 1.16-2.9 2.79" fill="#b7dccc"/><path d="m150.14 154.82a145.81 145.81 0 0 1 -.1 19.72c-.41 6.06-.82 12.28-2.33 18.18a33.81 33.81 0 0 1 -1.48 4.57c-.28.69-.58 1.36-.92 2-.12.24-.26.67-.5.82s-.3 0-.46 0c.05 0 1.31 1.83 1.44 2 .6.78 1.21 1.56 1.83 2.32a53.57 53.57 0 0 0 3.88 4.23 36.54 36.54 0 0 0 4.38 3.67c.76.54 1.54 1 2.34 1.51a3.88 3.88 0 0 0 1.48.7 7.88 7.88 0 0 0 2.06-.43c1.09-.25 2.18-.53 3.27-.81s2.13-.57 3.18-.89c.37-.11 1.24-.22 1.5-.54s0-1.94 0-2.42c0-1 0-2.06 0-3.09 0-2-.06-4-.12-6-.11-4.09-.3-8.18-.61-12.26a152.75 152.75 0 0 0 -3.56-24 94.28 94.28 0 0 0 -9.72-25.22 41 41 0 0 0 -3.89 8.81c-.54 1.66-1 3.35-1.39 5a10.42 10.42 0 0 0 -.39 1.77 3.5 3.5 0 0 0 .24.82c.06 0-.11-.5-.12-.53" fill="#987e63"/><path d="m368.42 113.81a32.77 32.77 0 0 1 -6.77 4c-3.37 1.61-6.84 3-10.33 4.3-8.49 3.17-17.15 5.84-25.86 8.32-9.6 2.74-19.27 5.24-29 7.26-11.16 2.29-22.41 4-33.7 5.53-11.49 1.51-23 2.74-34.53 4s-23 2.52-34.45 3.74c-23.46 2.49-47 4.57-70.59 5.12-11.73.28-23.48.17-35.2-.46l-2-.11a7.62 7.62 0 0 1 -2.35-.14 5.29 5.29 0 0 1 -1.16-1.2 16.56 16.56 0 0 1 -1.2-1.56 13.87 13.87 0 0 1 -1.58-3.09 3.31 3.31 0 0 1 -.37-1.33c.09-.74.68-.76 1.3-.85 5.7-.81 11.54-.84 17.28-1.11 11.61-.53 23.3-.54 34.84-2.08s23.24-3.53 34.85-5.31c19.56-3 39.21-5.7 58.69-9.21 15.11-2.71 30.12-5.92 45.06-9.43 16.5-3.89 32.93-8.17 49.15-13.11 13.82-4.22 27.69-8.79 40.79-15 2.45-1.16 4.88-2.38 7.24-3.71" fill="#715748"/><path d="m104 129.67a11.76 11.76 0 0 1 .57-4.17 4.59 4.59 0 0 1 .59-1.17c.21-.28.21-.33.49-.29s.85.54 1.14.72q2.1 1.33 4.22 2.64 8.33 5.13 16.91 9.84 4.88 2.69 9.83 5.22c-.66-.34-2.13 1.52-2.48 1.89a31.17 31.17 0 0 1 -3.76 3.6c-.86.63-2.16 1.34-2.84.12-.32-.57-.23-1.33-1-1.54a4 4 0 0 0 -2.27.55c-1.43.63-3.76 2.18-5.38 1.45a7.87 7.87 0 0 1 -2.08-1.91c-2.71-2.85-5.24-5.87-7.74-8.89-1.39-1.68-2.77-3.38-4.11-5.11a18.45 18.45 0 0 1 -2.11-3" fill="#715748"/><path d="m221.46 146.72a17.62 17.62 0 0 1 2.16 8.07c.17 2.93.22 5.87.14 8.79a81.81 81.81 0 0 1 -3.54 22 76.26 76.26 0 0 1 -7.63 17.2 14.13 14.13 0 0 1 -4.82 5.16 7.69 7.69 0 0 1 -3.37 1c-1.18.08-2.35-.2-3.53-.18-1 0-2 .46-1.19 1.55a9.13 9.13 0 0 0 1.81 1.58l2.34 1.9c2.53 2 5.08 4.36 8.14 5.57 6.51 2.57 12.34-2.22 15.17-7.77 3.14-6.13 4.77-13.19 5.86-19.95a156.42 156.42 0 0 0 1.7-21.3c.09-3.63.11-7.26.13-10.89a31.93 31.93 0 0 0 -.28-5.35 30 30 0 0 0 -1.19-4.37c-.73-2.24-1.94-4.14-4.49-4.17a26.34 26.34 0 0 0 -6.11.87l-1.3.31" fill="#987e63"/><path d="m173.15 214.39c-9.14.51-16.72-6.12-23.73-11-7.72-5.4-16-10.08-25.45-11.4-17.18-2.39-37.55 5.11-44.85 21.79-3.67 8.37-4.31 18.13-3.4 27.13s3.91 17.93 9.62 25.07a34.94 34.94 0 0 0 7.59 7.18c1.8 1.2 3.62 2.38 5.43 3.58 5.6 3.74 11 7.75 16.72 11.35a136.2 136.2 0 0 0 28.92 13.61c15 5.13 31 7.82 46.83 6.83a101.72 101.72 0 0 0 50-17.08 92.25 92.25 0 0 0 28.44-29.77 94.44 94.44 0 0 0 11.78-33.68 98.31 98.31 0 0 0 -.05-30.77c-2.67-16.26-8.93-32.12-16.48-46.7a150.48 150.48 0 0 0 -11.64-19.2 73.75 73.75 0 0 0 -5.45-6.75 12.81 12.81 0 0 0 -3.6-3.17c-4.55-2.18-10.18-2.5-14 1.23-.63.61-1.87 1.72-2 2.6a6.39 6.39 0 0 0 .16 1.14c.26 1.83.48 3.67.68 5.52a266.9 266.9 0 0 1 1 50.24c-.57 7.13-1.18 14.66-5.14 20.85a16.56 16.56 0 0 1 -10.59 7.62c-8.76 1.74-17.19-4.34-20.53-12.19a28.78 28.78 0 0 1 -1.84-7.65c-.56-4.07-1.27-8.13-2.11-12.15a156.74 156.74 0 0 0 -6.76-23.58c-2.27-5.92-4.95-12.18-9.25-17-3.32-3.69-10.27-8-14.85-4.06a10.8 10.8 0 0 0 -1.85 2.19 6.08 6.08 0 0 0 -.93 1.54 6 6 0 0 0 .3 2.68c.95 4.13 2.23 8.18 3.23 12.29 3.65 14.92 5.17 30.35 3.4 45.65-.27 2.28-.6 4.54-1 6.8-.2 1.16-.43 2.31-.68 3.47a9.2 9.2 0 0 0 -.41 1.84c0 .49-.27.14.24.48a5.84 5.84 0 0 0 .73.29c3.61 1.67 7.36 4.45 11.53 3.09" fill="#d4baa1"/><path d="m88.83 253.11a25 25 0 0 1 -4.12-10.64c-.41-4 .82-7.83 2.11-11.52 1.19-3.4 2.91-6.93 6.3-8.6a8.05 8.05 0 0 1 1-.41 5.54 5.54 0 0 0 1.2-.29c.33-.27.15-1.8.19-2.36a20.42 20.42 0 0 1 .89-4.57 24.06 24.06 0 0 1 12.37-14.22 28.22 28.22 0 0 1 20.66-1.1 29.47 29.47 0 0 1 15.91 12.17c3.83 6.13 4.61 13.66 3.68 20.71a44.42 44.42 0 0 1 -20.28 31.4c-6.06 3.77-13.29 6-20.46 4.86s-12.46-6-16.72-11.53q-1.44-1.89-2.73-3.9" fill="#f6ebe4"/><path d="m126.54 198.06c-3.92-.91-7.8 2.17-10.21 4.92a12.78 12.78 0 0 0 -3 10.6c.65 3.34 3.07 6.68 6.62 7.25 2.17.36 4-.91 5.56-2.25a55.84 55.84 0 0 0 4.6-4.63c3.12-3.32 7.15-6.95 12.08-6.29-3.55-5-9.79-8.25-15.61-9.6" fill="#8e7a6e"/><path d="m110.82 268.64a.16.16 0 0 0 .13 0c0-.13-1-.35-1.12-.42a3.48 3.48 0 0 1 -1.09-1.8 13.41 13.41 0 0 1 -.87-5.21c.1-3.94 1.78-7.28 3.47-10.73 1.56-3.15 2.5-6.9 1-10.25a7.06 7.06 0 0 0 -8-4c-6.41 1.12-11.29 6.9-12.23 13.18a23.56 23.56 0 0 0 -.11 5.99 7.57 7.57 0 0 0 .65 3 18.92 18.92 0 0 0 2.85 3.15c4 3.93 9.44 7.78 15.33 7.1" fill="#8e7a6e"/><path d="m122.2 252.18a.78.78 0 0 1 -.77-.73c0-.5.36-.68.74-.86a17.51 17.51 0 0 0 7.16-5.66 32.23 32.23 0 0 0 5.61-13.15 31.25 31.25 0 0 0 .49-3.34q.09-.85.12-1.71a7.3 7.3 0 0 1 .08-2 .79.79 0 0 1 1-.49c.52.18.51.64.52 1.09a26 26 0 0 1 -.23 3.84 36.69 36.69 0 0 1 -4.57 14 22.75 22.75 0 0 1 -4.35 5.46 18.94 18.94 0 0 1 -2.74 2.07c-.81.52-2.13 1.48-3.06 1.48z" fill="#2c2623"/><path d="m122.62 238.83a9.82 9.82 0 0 0 4.49-2.4c1.08-1.21 1.24-3.16 1.32-4.69s.1-3.23-1.06-4.35a4.51 4.51 0 0 0 -3.83-1.07c-3.06.53-5.64 4-6 7a6.55 6.55 0 0 0 1.11 4.61 3.77 3.77 0 0 0 4 .92" fill="#3c3a35"/><path d="m100.74 258.13c-1.26 0-1.57-3.14-1.62-4a9.66 9.66 0 0 1 .85-4.56 9.87 9.87 0 0 1 2.31-3.13c.64-.58 2.56-2.31 3.49-1.74 1.43.87-1.3 2-1.8 2.34a8.37 8.37 0 0 0 -2.56 3.1 8 8 0 0 0 -.71 4.42 9.88 9.88 0 0 0 .59 2.21c.21.5.34 1.36-.55 1.36z" fill="#2c2623"/><path d="m120.68 214.29c-1.34 0-.87-2.54-.64-3.27a9.07 9.07 0 0 1 2-3.28 9.27 9.27 0 0 1 3-2.28c.66-.31 2.53-1.15 3-.16.53 1.19-1.71 1.26-2.36 1.56a8 8 0 0 0 -2.52 2 7.59 7.59 0 0 0 -1.53 2.46 4.4 4.4 0 0 0 -.19 1.87c-.03.48-.03 1.1-.76 1.1z" fill="#2c2623"/><path d="m123.45 236.24c.55-.08 1.93.37 1.87 1.13 0 .49-1.38 1.08-1.78 1.21-1.89.63-1.72-2.1-.09-2.34" fill="#2c2623"/><path d="m126.24 232.74c.18.61 1.39 1.72 2 1a3.77 3.77 0 0 0 .21-2c-.28-1.87-2.63-.5-2.18 1" fill="#2c2623"/><path d="m110 259.63c-5.06-2.64-1.83-10.41 2.59-11.76a4.56 4.56 0 0 1 5.62 2.42 7.21 7.21 0 0 1 -1.25 7.25c-1.6 2-4.5 3.38-7 2.09" fill="#f7c5be"/><path d="m127.44 221.63c-1.89-1.64-1.82-4.46-.78-6.55a7.67 7.67 0 0 1 6.12-4.29 4.53 4.53 0 0 1 4.85 3.53 7.17 7.17 0 0 1 -2.83 6.81c-2 1.62-5.23 2.36-7.36.5" fill="#f7c5be"/><path d="m122.06 253.27c-1.1 0-.63-1.42-.65-2.06s-.46-2.12.66-2.12.87 1.46.88 2.12.11 2.06-.89 2.06z" fill="#2c2623"/><path d="m136.11 225.51c-.65 0-1.8-.24-1.41-1.17s1.53-.2 2.2-.52c.36-.17.53-.54 1-.3a.86.86 0 0 1 .42.94c-.17.83-1.51 1.05-2.21 1.05z" fill="#2c2623"/><path d="m153.59 132a5.2 5.2 0 0 0 -2.36 1.48 10.7 10.7 0 0 0 -1.45-1.29 4.56 4.56 0 0 0 -2.67-.47 5.48 5.48 0 0 0 -3.21 1.51c-1.22-1.08-4.36-1.05-5.67-.38-1.67.85-2.29 3-2.86 4.63a34.61 34.61 0 0 0 -1.08 19.16c1.27-1.22 1.52-3.16 2-4.78q.78-2.67 1.76-5.28a58.14 58.14 0 0 1 2.42-5.71c-.06.27-.12.52-.19.78a60.92 60.92 0 0 0 -1.5 7.91 32 32 0 0 0 0 7.95c.08.55.39 1.91 1.08.92a6.51 6.51 0 0 0 .41-1.74q.24-1 .54-2a47.18 47.18 0 0 1 2.6-6.82c.5-1 1-2.08 1.61-3.09s1.47-2.13 2-3.26a9.49 9.49 0 0 0 .66-1.19c.24-.66.43-1.35.65-2a10.38 10.38 0 0 1 2.41-4.28 15.29 15.29 0 0 0 -2.29 4.18 23.54 23.54 0 0 0 -1.24 9.92 55.94 55.94 0 0 0 .72 5.76c.19 1.14.16 3.84 1.42 4.39a71 71 0 0 1 3.49-13.48 32.13 32.13 0 0 1 2.84-5.91c.49-.79.81-1.66 1.23-2.49a16.34 16.34 0 0 0 1.54-2.52c-.57-2.11-3.07-2.36-4.86-1.9z" fill="#eadfd6"/><path d="m228.39 127.5a9.48 9.48 0 0 0 .08-2.13c-.08-1.39-.19-3-1.34-3.92-1.57-1.3-3.9-.82-5.39.39-2.92-1.46-5.21-.22-6.93 1.83a1 1 0 0 0 -.24-.75c-1.11-1.23-4.47-1.2-5.83-.51-1.67.86-2.29 3-2.86 4.63a34.65 34.65 0 0 0 -1.08 19.16c1.27-1.22 1.52-3.16 2-4.77.51-1.79 1.1-3.55 1.75-5.28a43.52 43.52 0 0 1 3.4-7.45 19.24 19.24 0 0 0 -1.49 9.18c.27 3.15 1 7.33 3.54 9.49a45.85 45.85 0 0 1 3-13.88c.47-1.21 1.05-2.36 1.52-3.54a41.54 41.54 0 0 0 -.54 9.77c.18 2.55.4 6 2.53 7.77a23.23 23.23 0 0 1 2.22-10.49c1.25-2.89 3-6.13 5.77-7.85-.44-.3-.19-1.23-.11-1.65z" fill="#eadfd6"/><g fill="#715748"><path d="m122.38 279.32a12 12 0 0 1 -3.06-.94c-.61-.19-1.24-.36-1.84-.58s-1.09-1-.14-1.08a3.13 3.13 0 0 1 1.07.31l2.06.65c.58.18 1.18.34 1.75.55a2.26 2.26 0 0 1 .31.1c.4.25.47.99-.15.99z"/><path d="m132 277a8.41 8.41 0 0 1 -3.66-.83c-.38-.18-1.45-.59-1-1.2s1 .07 1.41.25a7.53 7.53 0 0 0 3.49.76c.42 0 1.3-.28 1.4.37s-1.21.65-1.64.65z"/><path d="m135.38 287.26a13.09 13.09 0 0 1 -3.94-.84 12.07 12.07 0 0 1 -2.08-.84c-.42-.23-1-1-.12-1.11.5-.08 1.36.56 1.84.75a17.23 17.23 0 0 0 2 .61c.68.17 1.36.25 2 .38.34.06.71 0 .77.46a.49.49 0 0 1 -.47.59z"/><path d="m144 284.49a11.47 11.47 0 0 1 -4.58-1c-.62-.27-1.49-.58-1.77-1.26-.21-.52.16-1.54.86-1.08.41.27 0 .56.12.75s.61.39.86.51a10.57 10.57 0 0 0 2.26.77c.8.18 1.59.13 2.38.25.87.19.78 1.06-.13 1.06z"/><path d="m147.9 293a13.69 13.69 0 0 1 -3.77-1.1 9.52 9.52 0 0 1 -1.69-.54c-.67-.37-.52-1.05.28-1a8.87 8.87 0 0 1 1.54.49l2.34.75c.31.1.92.43 1.26.36s.71-.85 1.16-.25-.59 1.29-1.12 1.29z"/><path d="m154.68 290a5.38 5.38 0 0 1 -2.76-.78c-.3-.18-.9-.49-1-.87-.13-.6.45-.7.84-.51.91.44 1.44 1 2.54 1.13.37 0 .9-.12 1.12.29s-.34.74-.74.74z"/><path d="m159.68 299.28a11.07 11.07 0 0 1 -3.82-.68c-.36-.13-1.48-.61-.74-1.14.4-.29 1.25.25 1.64.37a10.1 10.1 0 0 0 3.79.39c.39 0 1.36-.1 1.06.64-.23.55-1.48.42-1.93.42z"/><path d="m166.32 295.39a8.51 8.51 0 0 1 -2.24-.3c-.45-.12-1.72-.39-2-.87-.39-.78.53-.74 1-.57a9.64 9.64 0 0 0 2 .63 7.67 7.67 0 0 0 2.14 0c.48-.05 1.43-.52 1.87-.4.83.22.21.91-.27 1.09a7.3 7.3 0 0 1 -2.5.42z"/><path d="m175.23 301.43c-.42 0-3.87-.38-2.73-1.33.36-.29 1.07.11 1.46.19a6.89 6.89 0 0 0 1.81.1c.53-.05 2.91-1.06 2.79 0s-2.67 1.04-3.33 1.04z"/><path d="m180.89 296.5c-.55 0-3.13 0-2.85-1 .2-.71 2.28 0 2.86 0s2.66-.67 2.87 0c.28 1.01-2.34 1-2.88 1z"/><path d="m188.88 302.91c-.7 0-3.51.07-3.75-.78-.31-1.1 2.48-.29 3-.26a12.56 12.56 0 0 0 1.84 0c.44 0 1.42-.4 1.76 0 .91 1.01-2.44 1.04-2.85 1.04z"/><path d="m192.71 298c-.37 0-3.09 0-2.22-1 .32-.36 1.13-.05 1.53 0a9.15 9.15 0 0 0 1.57 0c.43 0 2.72-.72 2.12.44-.34.62-2.36.56-3 .56z"/><path d="m175.54 291.21c-.78 0-4.11 0-4.33-1s1.19-.44 1.55-.36a12.25 12.25 0 0 0 2.41.32 4.54 4.54 0 0 0 1.91-.14c.31-.15.95-.74 1 .12.17 1.13-1.95 1.06-2.54 1.06z"/><path d="m163.16 288.37c-.91 0-2.52-.26-3.13-1-.29-.37-.21-.93.36-.91.38 0 1 .53 1.34.67a4.38 4.38 0 0 0 1.53.24c.42 0 1-.28 1.34-.21s.7.52.3.9a3.22 3.22 0 0 1 -1.74.31z"/><path d="m152.84 283.37a6.4 6.4 0 0 1 -3.14-.82c-.35-.2-1-.56-.68-1.06s.9 0 1.25.21a5.64 5.64 0 0 0 2.88.65c.4 0 1.13-.14 1 .51s-.87.51-1.31.51z"/><path d="m142.62 277.21a10 10 0 0 1 -2.9-.6 4.79 4.79 0 0 1 -1.43-.56c-.37-.29-.4-.87.16-1 .39-.07 1 .36 1.38.49a10.81 10.81 0 0 0 1.48.41c.38.09 1.31 0 1.61.31a.52.52 0 0 1 -.3.95z"/><path d="m135.5 269.27a7.53 7.53 0 0 1 -2.71-.69c-.36-.15-1.09-.38-1.31-.71s-.14-.81.36-.85c.34 0 .84.4 1.14.54a8.82 8.82 0 0 0 1.42.49c.34.08 1.13.07 1.4.3a.52.52 0 0 1 -.3.92z"/><path d="m123.32 272.07a8.08 8.08 0 0 1 -2.75-.48 3.27 3.27 0 0 1 -1.37-.68.5.5 0 0 1 .34-.85c.34 0 .84.37 1.16.5a7.22 7.22 0 0 0 1.45.39c.34.06 1.13 0 1.43.17a.52.52 0 0 1 -.26.95z"/><path d="m108.14 275.09a6.29 6.29 0 0 1 -3-.93c-.34-.19-2.84-2-1.42-2.27.45-.08.91.66 1.24.92a6.24 6.24 0 0 0 1.45.86c.58.23 1.24.2 1.8.41s.67 1.01-.07 1.01z"/><path d="m92.94 267.2a5.94 5.94 0 0 1 -3.31-1.67 6.16 6.16 0 0 1 -1.36-1.61c-.29-.56-.08-1.32.65-.85.43.27.77 1.12 1.17 1.5a6 6 0 0 0 1.57 1.12 1.44 1.44 0 0 0 .74.22c.3 0 .36-.3.72 0s.53 1.29-.18 1.29z"/><path d="m85.74 254.39c-.74 0-1.61-1.58-1.94-2.13s-1.55-2.63-.41-2.68c.59 0 1.21 2.06 1.54 2.55.2.31 2.16 2.26.81 2.26z"/><path d="m79 244.21c-.81 0-1.44-1.86-1.63-2.48a4.09 4.09 0 0 1 -.27-1.62c.11-.56.71-.71 1-.16a16.45 16.45 0 0 1 .33 1.67 2.84 2.84 0 0 0 .34.8c.22.29.27.15.51.34s.47 1.45-.28 1.45z"/><path d="m81.34 236.14c-.91 0-.61-1.85-.61-2.38s-.31-2.57.51-2.57.51 1.87.51 2.33a10.16 10.16 0 0 0 0 1.46c.05.4.38 1.16-.41 1.16z"/><path d="m79.05 225.69c-1.33 0-1.35-6.28.47-5.54.62.26.21.65 0 .94a2.35 2.35 0 0 0 -.31 1.44c-.02.6.79 3.16-.16 3.16z"/><path d="m84.56 224.89c-.82 0-.5-2.15-.5-2.61s-.33-2.61.5-2.61.51 2 .51 2.51.33 2.71-.51 2.71z"/><path d="m199.61 302.46c-.39 0-1.17 0-1.09-.61s.65-.41 1-.41a5 5 0 0 0 2.69-.84c.33-.21.77-.52 1 0s-.29.75-.62 1a5.63 5.63 0 0 1 -2.98.86z"/><path d="m205.29 295.37c-.78 0-.45-.8 0-1a8.39 8.39 0 0 1 1.3-.47 8.67 8.67 0 0 1 2.67-.93c.79.05.55.76.05 1a10.47 10.47 0 0 1 -1.36.49 9.38 9.38 0 0 1 -2.66.91z"/><path d="m211.05 299.61c-.67 0-.55-.75-.12-1a13.34 13.34 0 0 1 1.62-.52 11 11 0 0 0 1.8-.95c.35-.22 1-1 1.45-.91 1.53.23-1.09 1.9-1.44 2.1a7.79 7.79 0 0 1 -3.31 1.28z"/><path d="m228.73 295.07a.51.51 0 0 1 -.44-.72c.17-.38.83-.48 1.17-.64a9.83 9.83 0 0 0 1.27-.71c.31-.19.81-.74 1.17-.77a.53.53 0 0 1 .55.69c-.11.35-.78.69-1.08.88a6.23 6.23 0 0 1 -2.64 1.27z"/><path d="m222.05 290.84a.52.52 0 0 1 -.28-.94c.35-.27 1.32-.18 1.76-.27a9.91 9.91 0 0 0 1.61-.47c.42-.16 1.18-.76 1.63-.73s.57.62.25.95a4.8 4.8 0 0 1 -1.56.75 9.81 9.81 0 0 1 -3.41.71z"/><path d="m235.65 287.68c-.6 0-.58-.69-.21-.95s1-.3 1.45-.53a4.58 4.58 0 0 0 1.22-1c.26-.3.54-1.05 1-1.07 1.4 0-.49 2-.79 2.3a4.77 4.77 0 0 1 -2.67 1.25z"/><path d="m229.91 284.55a.51.51 0 0 1 -.31-.91c.28-.25 1-.25 1.41-.39a5 5 0 0 0 1.18-.65c.3-.22.73-.83 1.12-.85s.6.46.41.83a3.85 3.85 0 0 1 -1.16 1 5.22 5.22 0 0 1 -2.65.97z"/><path d="m215.66 288.42c-1.1 0-1.38-1-.15-1a4.71 4.71 0 0 0 2.58-.8c.94-.61 1.41.23.53.87a5.14 5.14 0 0 1 -2.96.93z"/><path d="m191.19 292.42a18.36 18.36 0 0 1 -2.56-.37 13.13 13.13 0 0 1 -1.53-.23c-.53-.15-.95-.79-.16-1a8.16 8.16 0 0 1 2.71.36 11.19 11.19 0 0 1 1.43.21c.54.14.92 1.03.11 1.03z"/><path d="m200.76 288.77c-.4 0-1.08.05-1.16-.47s.33-.54.7-.57a8.38 8.38 0 0 0 2.89-.47c.34-.14.72-.42 1-.09s-.09.76-.44.94a6.9 6.9 0 0 1 -2.99.66z"/><path d="m219 282.63a.51.51 0 0 1 -.28-.93c.3-.23 1.12-.16 1.47-.23a8.07 8.07 0 0 0 1.51-.42c.38-.14 1.11-.69 1.51-.65a.51.51 0 0 1 .34.86 3.54 3.54 0 0 1 -1.38.7 8.91 8.91 0 0 1 -3.17.67z"/><path d="m235.62 278.21a.52.52 0 0 1 -.49-.63c.1-.4.64-.45 1-.58a6.79 6.79 0 0 0 1.12-.62c.31-.21.73-.75 1.11-.73 1.22.06-.15 1.3-.49 1.54a4.77 4.77 0 0 1 -2.25 1.02z"/><path d="m243.92 279.6a.52.52 0 0 1 -.47-.7c.11-.33.72-.64 1-.85.46-.38 1.25-1.43 1.81-1.51 1.23-.17.22 1.09-.07 1.36-.5.43-1.59 1.7-2.27 1.7z"/><path d="m251.76 278.29c-.5 0-.55-.5-.37-.82s.82-.67 1.12-.94a10.28 10.28 0 0 0 1.15-1.23c.24-.29.53-.94.92-1 1.36-.23-.15 1.69-.4 2-.46.5-1.64 1.99-2.42 1.99z"/><path d="m249 271.63a.53.53 0 0 1 -.44-.77c.15-.29.74-.51 1-.7a8.58 8.58 0 0 0 1-.85c.25-.27.56-.88.94-.92 1.25-.16 0 1.38-.25 1.66-.47.49-1.49 1.58-2.25 1.58z"/><path d="m259.36 268.2a.52.52 0 0 1 -.4-.82c.21-.31.91-.51 1.22-.78a3.73 3.73 0 0 0 .82-1c.19-.37.24-1 .76-1 1.11 0 0 1.75-.24 2.11-.43.5-1.37 1.49-2.16 1.49z"/><path d="m257.58 262.67c-1.33 0 .52-1.9.72-2.18a6.1 6.1 0 0 0 .88-1.47c.11-.32 0-.77.54-.78 1.18 0 .18 1.61-.05 2-.34.57-1.33 2.43-2.09 2.43z"/><path d="m249.57 265c-1.31 0 .24-1.34.47-1.55.4-.37 1.12-1.65 1.64-1.71 1.19-.13.17 1.24-.11 1.57s-1.33 1.69-2 1.69z"/><path d="m239.14 270.36a.53.53 0 0 1 -.51-.57c.05-.42.68-.57 1-.76a5.88 5.88 0 0 0 1-.73c.27-.24.62-.85 1-.95a.53.53 0 0 1 .69.54c0 .35-.53.75-.76 1-.56.47-1.64 1.47-2.42 1.47z"/><path d="m227.89 274.88a.51.51 0 0 1 -.46-.71c.16-.37.71-.33 1-.42a4.62 4.62 0 0 0 1.19-.5c.32-.19.76-.73 1.13-.71 1.26.08-.2 1.33-.56 1.55a4.77 4.77 0 0 1 -2.3.79z"/><path d="m209.26 282.19a.53.53 0 0 1 -.46-.74c.19-.37.77-.31 1.12-.37a6.24 6.24 0 0 0 1.34-.39c.36-.15.93-.63 1.32-.52 1.21.33-.51 1.28-.88 1.44a6.66 6.66 0 0 1 -2.44.58z"/><path d="m149.11 274.89a7.75 7.75 0 0 1 -3.32-.75c-.35-.16-1.13-.45-1.18-.89-.1-.78.64-.54 1-.34a7.51 7.51 0 0 0 3.06 1c.46 0 1.26-.21 1.48.32.31.64-.63.66-1.04.66z"/><path d="m160 279.37a6.84 6.84 0 0 1 -3.07-.74c-.33-.17-1-.44-1.15-.82-.2-.57.35-.76.77-.6s.84.54 1.3.72a6.18 6.18 0 0 0 1.45.37c.39.05 1.2-.11 1.45.27.37.56-.33.8-.75.8z"/><path d="m155.81 272a8 8 0 0 1 -3.21-1c-.24-.11-.74-.23-.9-.48-.41-.64.34-.8.78-.69.89.23 1.67.84 2.57 1.07a2.75 2.75 0 0 0 1.14.08c.34-.05.6-.28.88.05.63.68-.8.97-1.26.97z"/><path d="m145.1 265.11a17.71 17.71 0 0 1 -3.64-.38c-.4-.08-1.24-.16-1.08-.78s.93-.29 1.32-.21a16.31 16.31 0 0 0 3.41.35c1.34 0 1.3 1.02-.01 1.02z"/><path d="m167.74 275.66c-.78 0-3-.05-3.45-.8-.26-.41.06-.76.47-.79a8.71 8.71 0 0 1 1.6.45 7.93 7.93 0 0 0 1.54.12c.41 0 1.26-.29 1.62-.14.53.23.36.78-.06 1a4.51 4.51 0 0 1 -1.72.16z"/><path d="m170.81 281.94a6.94 6.94 0 0 1 -3.7-.78c-.38-.29-.41-.86.15-1s1.24.41 1.68.52a8.38 8.38 0 0 0 1.65.21c.6 0 1.25-.2 1.83-.16s.84.46.44.88-1.58.33-2.05.33z"/><path d="m182.64 286c-.65 0-3 0-3.21-.85-.22-1.07 2.08-.23 2.55-.19a8.45 8.45 0 0 0 1.59 0c.39 0 1.2-.39 1.52-.06.98.94-2.09 1.1-2.45 1.1z"/><path d="m180.88 279.06a9.17 9.17 0 0 1 -3.47-.68c-.36-.14-1.2-.38-1.29-.82-.16-.77.61-.59 1-.41a9.4 9.4 0 0 0 3.2.87c.47 0 1.3-.19 1.5.36s-.53.68-.94.68z"/><path d="m191.26 281.84c-.36 0-1 .09-1.26-.23s0-.75.42-.82c.54-.1 1.2 0 1.76 0a10.26 10.26 0 0 0 1.55-.27c.37-.1 1-.46 1.33-.17s0 .76-.33.93a8.34 8.34 0 0 1 -3.47.56z"/><path d="m218 274.35a.51.51 0 0 1 -.3-.91c.28-.25 1.09-.24 1.46-.37a5.69 5.69 0 0 0 1.27-.6c.32-.2.85-.79 1.24-.77 1.44.08-.63 1.6-.94 1.78a6 6 0 0 1 -2.73.87z"/><path d="m202.28 276.92c-.38 0-1.16.07-1.34-.37-.27-.64.47-.67.85-.66a7.09 7.09 0 0 0 3.15-.58c.36-.17.95-.65 1.26-.13s-.26.76-.6.94a7.35 7.35 0 0 1 -3.32.8z"/><path d="m190.91 274.42c-.49 0-2.81-.07-2.22-1.05.26-.43.84-.13 1.23-.06a5.63 5.63 0 0 0 1.69.05c.46-.06 2.45-1 2.35 0s-2.42 1.06-3.05 1.06z"/><path d="m229 267.05a.52.52 0 0 1 -.33-.9c.29-.29 1.1-.31 1.5-.45a8.1 8.1 0 0 0 1.48-.72c.37-.24 1-.93 1.4-.9 1.49.1-.81 1.73-1.11 1.9a6.55 6.55 0 0 1 -2.94 1.07z"/><path d="m243 261.34c-.6 0-.54-.64-.26-.94a9.23 9.23 0 0 1 1.5-1c.43-.31.86-.63 1.27-1s.87-1 1.3-.93c1.44.08-.71 1.76-1 2-.46.36-.92.7-1.4 1s-.9.87-1.41.87z"/><path d="m255.18 252.3c-1.33 0 .56-2 .77-2.29a13 13 0 0 0 .85-1.44c.19-.37.38-1.3.88-1.38 1.28-.19-.14 2.17-.33 2.51-.35.58-1.35 2.6-2.17 2.6z"/><path d="m264.54 256.65c-.57 0-.54-.59-.3-.92s.8-.66 1.11-1a5.67 5.67 0 0 0 .78-1.32c.14-.35.18-1.1.61-1.24 1.24-.4.24 1.85.05 2.2-.35.63-1.39 2.28-2.25 2.28z"/><path d="m264.24 248.66c-1.26 0 .44-2 .65-2.37.31-.51 1-2.51 1.58-2.59 1.22-.15-.07 2-.26 2.33-.32.59-1.21 2.63-1.97 2.63z"/><path d="m244.4 252.49a.52.52 0 0 1 -.35-.88c.26-.27 1-.34 1.31-.53a4.35 4.35 0 0 0 1.11-.9c.24-.28.48-1 .91-1 1.27 0-.2 1.71-.49 2a4.37 4.37 0 0 1 -2.49 1.31z"/><path d="m220.13 265.78c-.6 0-.58-.69-.21-1a11.41 11.41 0 0 1 1.56-.51 6 6 0 0 0 1.27-.8c.33-.27.75-1 1.17-1 .63-.07.59.55.37.92a4.89 4.89 0 0 1 -1.24 1.16 5.7 5.7 0 0 1 -2.92 1.23z"/><path d="m272.87 241.85c-1.1 0 .13-1.86.24-2.31s-.24-2.64.6-2.56c1.23.1.38 4.87-.84 4.87z"/><path d="m263.57 238.56c-1.15 0 .18-1.77.36-2.15s.68-2.46 1.32-2.45c1 0 .09 1.83-.1 2.25s-.86 2.35-1.58 2.35z"/><path d="m254.09 241c-1.28 0 .46-2 .66-2.3a13.41 13.41 0 0 0 .77-1.45c.17-.38.33-1.3.82-1.39 1.26-.24 0 2.13-.22 2.48-.31.55-1.26 2.66-2.03 2.66z"/><path d="m205.39 267.7c-.4 0-1.11-.24-.74-.8.24-.36.91-.21 1.27-.24a5.23 5.23 0 0 0 1.4-.35c.52-.21.9-.62 1.37-.84s.84-.08.83.42-.64.73-1 .93a6.14 6.14 0 0 1 -3.13.88z"/><path d="m232.58 256.62c-.62 0-.54-.66-.25-1a11.43 11.43 0 0 1 1.48-.9c.43-.29.85-.6 1.25-.93s.84-.94 1.27-.93c1.44.06-.68 1.76-1 2-.58.51-1.92 1.76-2.75 1.76z"/><path d="m243.37 244.75c-.59 0-.56-.64-.27-.94a14.61 14.61 0 0 1 1.37-1 11.93 11.93 0 0 0 1.22-1.14c.3-.32.72-1.14 1.18-1.2 1.47-.2-.49 2-.72 2.19-.57.61-1.91 2.09-2.78 2.09z"/><path d="m219.1 257c-.76 0-.57-.84 0-1s1-.08 1.52-.24a5 5 0 0 0 1.71-.93c.39-.32.83-1.22 1.26-1.42.72-.33.79.51.53.95a5.37 5.37 0 0 1 -1.42 1.47 6.13 6.13 0 0 1 -3.6 1.17z"/><path d="m178.56 268.23a6.4 6.4 0 0 1 -2.82-.41c-.3-.18-.53-.56-.2-.86s1 0 1.36.09a8.56 8.56 0 0 0 1.43.15 6.38 6.38 0 0 1 1.38 0 .49.49 0 0 1 .31.79c-.26.32-1.02.24-1.46.24z"/><path d="m164.53 266.05c-.7 0-2.63 0-3.07-.7-.33-.49.14-.83.59-.78s1 .32 1.52.4a7.59 7.59 0 0 0 1.58 0c.39 0 1.09-.33 1.42-.11 1.28.87-1.7 1.19-2.04 1.19z"/><path d="m153 259.86c-1 0-2.74-.3-3.44-1.15-.3-.37-.19-.94.38-.91.41 0 1 .59 1.39.74a4.4 4.4 0 0 0 1.43.3c.56 0 1.07-.2 1.6-.2s.9.34.54.82-1.42.4-1.9.4z"/><path d="m191.56 264.1c-.4 0-1.38 0-1.67-.27s0-.84.44-.87 1.09.15 1.63.11a6.56 6.56 0 0 0 1.76-.36c.4-.15 1-.64 1.42-.53.62.17.33.74 0 1a6.41 6.41 0 0 1 -3.58.92z"/><path d="m173.55 261c-.78 0-3-.16-3.38-1-.34-.66.38-.78.82-.63a10.62 10.62 0 0 0 1.68.54 5.79 5.79 0 0 0 1.61 0c.44-.06 1.37-.54 1.74-.23 1.14.95-2.08 1.32-2.47 1.32z"/><path d="m162.84 252.59a9.29 9.29 0 0 1 -3.64-.74c-.37-.16-1.17-.39-1-.94.19-.72.94-.21 1.34 0a8.38 8.38 0 0 0 3.35.7c.44 0 1.33-.18 1.21.56-.1.51-.86.42-1.26.42z"/><path d="m149.75 251.11c-.6 0-4.79-.41-4.22-1.59.31-.64 1.45.11 1.91.25a8.34 8.34 0 0 0 2.32.33.51.51 0 0 1 -.01 1.01z"/><path d="m156.7 244.22a10.31 10.31 0 0 1 -3.56-.63c-.38-.14-1.09-.45-.67-1s1.13.06 1.58.19a10.53 10.53 0 0 0 3.49.35c.45 0 1.25.1.8.76-.26.43-1.24.33-1.64.33z"/><path d="m174.54 252.73a6.54 6.54 0 0 1 -3.1-.53c-.33-.24-.51-.68 0-.93s1.08.19 1.45.27a8.19 8.19 0 0 0 1.48.17 8.07 8.07 0 0 1 1.62-.08.5.5 0 0 1 .26.88c-.35.29-1.31.22-1.71.22z"/><path d="m184.72 257.24c-.38 0-2.86.12-2.07-.88.26-.33.82-.17 1.18-.15h1.88c.43 0 2.87-.55 2.41.53-.3.72-2.75.5-3.4.5z"/><path d="m203.54 258.5a3.85 3.85 0 0 1 -1.69-.25c-.39-.25-.52-.8 0-1 .37-.12 1.13.2 1.54.21a5.08 5.08 0 0 0 1.6-.23c.42-.13 1-.64 1.41-.63s.62.47.4.83c-.48.84-2.41 1.07-3.26 1.07z"/><path d="m195.55 253.15c-.76 0-2.51 0-3.09-.62a.51.51 0 0 1 .21-.9c.38-.1 1.17.32 1.57.39a7 7 0 0 0 1.52.11c.4 0 1.08-.27 1.45-.11.53.24.34.78-.07 1a4.25 4.25 0 0 1 -1.59.13z"/><path d="m211.11 251.76c-.37 0-1 .08-1.3-.25s0-.75.44-.81 1.16.06 1.71 0a8.52 8.52 0 0 0 1.5-.32c.36-.11.94-.51 1.3-.25s.07.76-.26 1a7.31 7.31 0 0 1 -3.39.63z"/><path d="m228.65 247.24a.51.51 0 0 1 -.36-.86c.28-.34 1.22-.45 1.62-.63a9.62 9.62 0 0 0 1.45-.78c.37-.24 1-1 1.41-1s.68.49.43.88a4.71 4.71 0 0 1 -1.34 1 7.35 7.35 0 0 1 -3.21 1.39z"/><path d="m244.62 236.84c-1.24 0 .38-2.05.57-2.35s1-2.16 1.67-2.13c1.18 0-.35 1.95-.55 2.26s-1.03 2.22-1.69 2.22z"/><path d="m271.62 230.88c-1 0-.13-1.54 0-2s-.16-2.26.38-2.5c1-.41.77 1.51.73 2s-.32 2.5-1.11 2.5z"/><path d="m260.75 229.57c-1.12 0 .07-1.55.23-1.91.22-.52.28-2.17.85-2.29 1-.21.46 1.58.33 2s-.69 2.2-1.41 2.2z"/><path d="m253.44 226.9c-1.21 0 .3-1.81.49-2.19a7.17 7.17 0 0 0 .58-1.5c.11-.44.05-1.29.62-1.38 1.11-.17.23 2.12.06 2.55-.19.62-.97 2.52-1.75 2.52z"/><path d="m268.15 222.8c-1 0 0-2 0-2.44s-.27-2.85.63-2.72c1.12.17.48 5.16-.63 5.16z"/><path d="m276.29 222.52c-1.06 0 .17-2 .26-2.48a4.91 4.91 0 0 0 .06-1.53c-.05-.39-.33-1.06.25-1.22 1-.25.82 1.93.76 2.44s-.45 2.79-1.33 2.79z"/><path d="m272.82 212.75c-.92 0-.13-2.16-.11-2.71s-.63-2.66.27-2.68c1.16-.02 1.02 5.39-.16 5.39z"/><path d="m264 214.56c-1 0-.11-1.67 0-2.12s-.25-2.48.62-2.36c1.04.14.47 4.48-.62 4.48z"/><path d="m267.46 200.63c-.83 0-.44-2-.46-2.46s-.68-2.69.11-2.86c1.08-.23 1.43 5.32.35 5.32z"/><path d="m274 191.94c-.77 0-.91-2.28-1-2.77s-1-2.81 0-2.78c.74 0 .88 2.25 1 2.75s1 2.8 0 2.8z"/><path d="m267.32 185.5c-.74 0-.92-2.4-1.1-2.95s-1.48-2.89-.31-2.79c.75.07 1.21 2.24 1.39 2.84s1.05 2.9.02 2.9z"/><path d="m268.41 174.2c-.66 0-1-2.17-1.22-2.69s-1.9-2.36-.84-2.56c.77-.14 1.66 1.87 1.91 2.43s1.24 2.82.15 2.82z"/><path d="m261.15 169.66c-.69 0-1.11-1.65-1.27-2.16s-.78-2 .19-1.92c.65 0 .74 1.56.94 2.06s1.22 2.02.14 2.02z"/><path d="m263.52 160.32c-.67 0-.82-1.93-1-2.46s-1.57-2.25-.49-2.35 2.63 4.81 1.49 4.81z"/><path d="m258.71 205.56c-.82 0-.45-1.78-.43-2.24s-.2-2.38.5-2.54c1-.22.55 1.84.53 2.3s.19 2.48-.6 2.48z"/><path d="m258.72 187.59c-.82 0-.32-1.8-.4-2.3s-1.15-2.34-.12-2.35c1.25-.01 1.8 4.65.52 4.65z"/><path d="m276 203.59c-.89 0-.22-1.85-.21-2.33s-.66-2.44 0-2.66c1.21-.38 1.49 4.99.21 4.99z"/><path d="m248.18 147.49c-.66 0-.83-2.38-1.07-3a10.94 10.94 0 0 0 -1-1.66c-.23-.34-.58-1.13.24-1.06 1.41.17 3.04 5.72 1.83 5.72z"/><path d="m255.31 150.07c-.6 0-.54-.84-.63-1.23a6.26 6.26 0 0 0 -.6-1.61c-.23-.43-2.05-2.25-.78-2.35.81-.06 1.72 1.88 2 2.49.17.46 1.06 2.7.01 2.7z"/><path d="m244 132.75c-.57 0-.5-.68-.6-1.05a3.38 3.38 0 0 0 -.66-1.31 9.09 9.09 0 0 0 -1.14-.93c-.4-.38-.32-1 .32-.94 1.41.03 3.4 4.23 2.08 4.23z"/><path d="m252.25 163.84c-.7 0-.73-2-.93-2.58s-1.49-2.36-.41-2.42 2.49 5 1.34 5z"/><path d="m215.4 241.35a.5.5 0 0 1 -.38-.81c.25-.33.94-.28 1.31-.38a7.17 7.17 0 0 0 1.41-.5c.33-.15.9-.66 1.26-.65a.53.53 0 0 1 .49.73c-.14.36-.89.64-1.22.8a7.11 7.11 0 0 1 -2.87.81z"/><path d="m232.46 234.14a.51.51 0 0 1 -.45-.72c.16-.35.76-.46 1.07-.64a5.36 5.36 0 0 0 1.06-.78c.25-.24.55-.82.87-.94a.53.53 0 0 1 .72.51c0 .37-.57.85-.82 1.09a4.65 4.65 0 0 1 -2.45 1.48z"/><path d="m247.89 219.6c-.93 0-.24-1 0-1.37a10.19 10.19 0 0 0 .85-1.64c.24-.58.6-3.29 1.31-3.2 1 .12 0 2.6-.18 3.11-.26.66-1.12 3.1-1.98 3.1z"/><path d="m252.61 199.49c-1 0-.2-2.16-.15-2.69s-.21-3 .59-3 .51 2.2.46 2.71-.07 2.98-.9 2.98z"/><path d="m255 176.94c-.77 0-.54-1.86-.63-2.39s-1.11-2.46-.45-2.78c1.19-.57 2.4 5.17 1.08 5.17z"/><path d="m250.67 186c-.87 0-.45-2.36-.44-2.85s-.25-2.74.41-3c1.05-.39.63 2.41.62 2.83s.26 3.02-.59 3.02z"/><path d="m248.72 171.68c-.66 0-.68-.72-.74-1.19a10.32 10.32 0 0 0 -.42-2.06 2.78 2.78 0 0 0 -.36-1c-.09-.08-.21.08-.31 0-.35-.27-.73-.69-.1-1 1.19-.67 1.74 1.64 1.91 2.33.09.34.16.69.22 1.05l.05.35a.4.4 0 0 0 .26.53c.16.4.14.98-.51.99z"/><path d="m244.67 157.94c-.8 0-.87-1.46-1-2s-.85-2.33-.36-2.79c.89-.81 1.18 1.78 1.26 2.15a8.52 8.52 0 0 0 .3 1.4c.13.3.8 1.24-.2 1.24z"/><path d="m241.33 144.75c-.73 0-.64-1.77-.78-2.28s-1.14-2.44.09-2.06c.81.25 1.78 4.34.69 4.34z"/><path d="m237.89 135.71c-.76 0-.44-1.85-.59-2.38s-1.56-2.19-.59-2.39c1.44-.31 2.53 4.77 1.18 4.77z"/><path d="m233.45 139.91c-.75 0-.75-2.35-.89-2.91s-1.34-2.83-.19-2.71c.75.08 1.12 2.21 1.26 2.81s.8 2.81-.18 2.81z"/><path d="m236 127.5c-.71 0-.48-1.25-.62-1.71s-1.26-1.69-.54-2.06c1.16-.61 2.41 3.77 1.16 3.77z"/><path d="m250.36 139.91c-.58 0-.51-.7-.58-1.08a4.63 4.63 0 0 0 -.54-1.41c-.27-.45-.72-.74-1-1.16s-.2-.95.4-.89c1.25.12 3.02 4.54 1.72 4.54z"/><path d="m236.19 153.38c-.77 0-.5-2.37-.6-2.95a9.2 9.2 0 0 0 -.59-2c-.16-.38-.7-1.18.05-1.33 1.41-.26 2.41 6.28 1.14 6.28z"/><path d="m240.29 165.16c-.69 0-.71-2-.88-2.47s-1.36-2.31-.26-2.31 2.25 4.78 1.14 4.78z"/><path d="m235.86 174.87c-1 0-.16-1.91-.14-2.44s-.72-2.72.16-2.77c1.23-.07 1.23 5.21-.02 5.21z"/><path d="m242.85 178c-.81 0-.78-2.45-.85-3s-.76-3 .24-2.88c.76.11.71 2.38.79 2.93s.76 2.95-.18 2.95z"/><path d="m245.51 188.74c-.85 0-.38-1.52-.4-2s-.62-2.16.1-2.37c1.09-.31 1.43 4.37.3 4.37z"/><path d="m239.69 189.23c-1.18 0 .34-1.7.45-2.15a2.43 2.43 0 0 0 -.1-1.46c-.16-.37-.66-1 0-1.18 1-.35 1.22 1.69 1.19 2.26-.06.72-.58 2.53-1.54 2.53z"/><path d="m242.84 200.3c-1 0-.08-2.2 0-2.7s0-3 .85-2.95.31 2.24.22 2.76-.26 2.89-1.07 2.89z"/><path d="m246.66 210.39c-1 0 0-2.35.14-2.77s.43-2.62 1.2-2.62c1 0 0 2.31-.15 2.74s-.45 2.65-1.19 2.65z"/><path d="m255.11 213.77c-.86 0-.37-1.62-.35-2.1s-.36-2 .4-2.08c.98-.09.92 4.18-.05 4.18z"/><path d="m234.83 200.58c-1.06 0 .08-1.77.18-2.2s-.29-2.29.38-2.44c1.22-.28.85 4.64-.56 4.64z"/><path d="m233.46 189.16c-1 0 0-2.21 0-2.76s-.58-3.05.26-3.07c1.28-.04 1.11 5.83-.26 5.83z"/><path d="m237 213.89c-.79 0-.37-.79-.12-1.1a8.5 8.5 0 0 0 1.11-1.56c.2-.41.7-1.34.59-1.81-.06-.29-.94-.6-.1-1 1.54-.77.92 2.07.72 2.58-.31.69-1.29 2.89-2.2 2.89z"/><path d="m238.58 222.24a.48.48 0 0 1 -.49-.45c-.05-.42.28-.48.57-.64a6.33 6.33 0 0 0 1.41-1 5.07 5.07 0 0 0 1.12-1.66c.18-.46.17-1.45.74-1.52 1.33-.16-.15 2.65-.42 3-.51.85-1.85 2.27-2.93 2.27z"/><path d="m241.52 229.3c-1.29 0 .45-1.87.66-2.2.34-.53.84-2.51 1.49-2.51 1.09 0 0 2-.27 2.44s-1.15 2.27-1.88 2.27z"/><path d="m228.29 227.43a.52.52 0 0 1 -.49-.65c.12-.4.69-.43 1-.52s.85-.27 1.26-.44a5.23 5.23 0 0 1 1.34-.58c.37 0 .69.2.57.62s-.71.55-1 .7a7.78 7.78 0 0 1 -2.68.87z"/><path d="m170.55 246c-.82 0-1.64-.1-2.46-.15a10.07 10.07 0 0 1 -1.45-.08c-.54-.11-1-.71-.25-1a8.13 8.13 0 0 1 2.64.12 12.26 12.26 0 0 1 1.36.08c.61.03 1.01 1.03.16 1.03z"/><path d="m185.72 248.76c-.92 0-1.86-.16-2.77-.24-.57-.05-1.15-.06-1.71-.14s-1.1-.74-.29-1a2.65 2.65 0 0 1 1 0l1.95.16c.53 0 1.08.06 1.61.14a1.94 1.94 0 0 1 .24 0c.51.25.7 1.08-.03 1.08z"/><path d="m197.83 246.57a3.7 3.7 0 0 1 -1.52-.12.5.5 0 0 1 0-.91c.36-.21 1.33 0 1.75 0a11.63 11.63 0 0 0 1.67-.13c.39 0 1.19-.38 1.55-.24a.51.51 0 0 1 .09.92c-.78.57-2.65.48-3.54.48z"/><path d="m206.29 241.5c-.39 0-1.19.12-1.52-.14-.58-.45 0-.86.48-.91 1.07-.12 2.08.16 3.12-.32.34-.15.78-.67 1.17-.55.64.2.26.8 0 1.06a5 5 0 0 1 -3.25.86z"/><path d="m215.69 233.48a.51.51 0 0 1 -.28-.93c.31-.25 1.17-.19 1.57-.27a8.79 8.79 0 0 0 1.58-.5c.36-.15 1-.7 1.44-.68.55 0 .61.6.27.94a4.23 4.23 0 0 1 -1.37.7 8.74 8.74 0 0 1 -3.21.74z"/><path d="m228.65 221.74c-1.3 0 .34-1.57.58-1.83.41-.42 1.52-2.11 2.16-2 1.11.21-.39 1.59-.66 1.88s-1.42 1.95-2.08 1.95z"/><path d="m229.25 212.25c-1.22 0 .33-2 .52-2.29.3-.53.88-2.45 1.52-2.52 1.2-.15 0 1.83-.19 2.21-.3.56-1.1 2.6-1.85 2.6z"/><path d="m228.5 202.32c-1.16 0 .13-1.57.3-1.89a6.3 6.3 0 0 0 .51-1.33c.09-.35.06-1 .45-1.17 1.11-.48.5 1.6.36 2-.2.59-.86 2.39-1.62 2.39z"/><path d="m216.19 224.47a.52.52 0 0 1 -.41-.81c.2-.32 1-.53 1.33-.7a13.39 13.39 0 0 0 1.35-.81c.32-.22.94-.93 1.35-1a.51.51 0 0 1 .49.78c-.2.39-.81.7-1.18.95-.71.54-2.03 1.59-2.93 1.59z"/><path d="m219 215.11a.52.52 0 0 1 -.38-.85c.24-.3 1-.44 1.33-.65a4.85 4.85 0 0 0 1.14-1c.24-.29.5-1 1-1 1.26 0-.24 1.75-.52 2a4.59 4.59 0 0 1 -2.57 1.5z"/><path d="m164.6 239.36a9 9 0 0 1 -3.48-.65c-.37-.16-1-.61-.42-1s1.22.23 1.64.34a13.1 13.1 0 0 0 3.42.22c.42 0 1 .21.65.77-.28.4-1.41.32-1.81.32z"/><path d="m177.46 241.1c-.77 0-2.51-.2-3-.94a.51.51 0 0 1 .39-.84c.39 0 1 .48 1.41.6a4.49 4.49 0 0 0 1.41.15c.4 0 1-.32 1.36-.21.54.17.45.74 0 1a3.66 3.66 0 0 1 -1.57.24z"/><path d="m189.64 241c-.62 0-3.09.08-3.13-.79s2.6-.22 3.2-.23 3-.66 3.19.07c.24 1.03-2.7.95-3.26.95z"/><path d="m199.75 236.2a.53.53 0 0 1 -.51-.77c.24-.39 1-.26 1.39-.29a10.37 10.37 0 0 0 1.75-.32c.6-.17 1.21-.59 1.81-.71.45-.09.94.21.66.72s-1.07.59-1.44.72a10.66 10.66 0 0 1 -3.66.65z"/><path d="m205.31 228.62a.51.51 0 0 1 -.42-.77c.21-.36.89-.39 1.25-.52a9.86 9.86 0 0 0 1.37-.61c.32-.17.88-.7 1.24-.7a.52.52 0 0 1 .51.71c-.14.36-.86.66-1.17.83a6.86 6.86 0 0 1 -2.78 1.06z"/><path d="m207.28 219.48a.51.51 0 0 1 -.36-.86c.24-.29 1.08-.39 1.41-.51a6.88 6.88 0 0 0 1.45-.62c.31-.2.49-.62.93-.59 1.11.08.24 1.13-.2 1.37a8.41 8.41 0 0 1 -3.23 1.21z"/><path d="m157.11 233.46a5.07 5.07 0 0 1 -3.35-1c-.31-.26-.85-.79-.37-1.17s.94.37 1.3.61a5.89 5.89 0 0 0 3.61.53c.48 0 1.39.32.7.89-.35.25-1.45.14-1.89.14z"/><path d="m171.38 233.15a15.77 15.77 0 0 1 -2.83-.27c-.35-.07-1.26-.13-1.52-.44a.5.5 0 0 1 .37-.84 4.93 4.93 0 0 1 1.34.28 13.94 13.94 0 0 0 1.58.21c.34 0 1-.09 1.32.12a.51.51 0 0 1 -.26.94z"/><path d="m163.38 227.18a5.29 5.29 0 0 1 -3.17-.81c-.33-.32-.33-.89.24-1 .39 0 1.09.46 1.5.56a5.86 5.86 0 0 0 1.67.18c.44 0 1-.31 1.45-.23s.7.56.28.91a3.9 3.9 0 0 1 -1.97.39z"/><path d="m180.73 232.82c-.6 0-2.8 0-2.76-.91s2.21-.1 2.78-.1 2.54-.71 2.77-.05c.35 1-2.27 1.06-2.79 1.06z"/><path d="m190.59 230.28a.5.5 0 0 1 -.35-.85c.3-.33 1.07-.18 1.47-.21.57 0 1.13-.11 1.69-.2.38-.06 1.19-.4 1.55-.26a.52.52 0 0 1 .21.85c-.26.3-1.11.33-1.48.39a17.84 17.84 0 0 1 -3.09.28z"/><path d="m192.64 222a.51.51 0 0 1 -.37-.84c.27-.31 1-.23 1.43-.28a13.44 13.44 0 0 0 1.78-.39c.35-.11.84-.41 1.2-.18.95.61-.66 1.08-1 1.18a11.18 11.18 0 0 1 -3.04.51z"/><path d="m179.31 225.89c-1.1 0-1.36-1-.12-1a9.29 9.29 0 0 0 3-.6c1.1-.42 1.32.55.29 1a8.43 8.43 0 0 1 -3.17.6z"/><path d="m157.14 218.27a9.48 9.48 0 0 1 -3.53-.69c-.38-.16-1.16-.42-.88-1s1 0 1.43.1a8.34 8.34 0 0 0 3.24.54c.42 0 1.14-.09 1 .56s-.85.49-1.26.49z"/><path d="m170.78 220.76a8 8 0 0 1 -3.36-.56c-.34-.17-.76-.56-.32-.93s1.17.14 1.56.23a10.08 10.08 0 0 0 1.65.23c.53 0 1.15-.14 1.66-.07s.82.52.38.91-1.17.19-1.57.19z"/><path d="m83.39 214.11c-1.4 0 .39-6 1.86-5.3.75.37-.78 2.08-1 2.64s-.15 2.66-.86 2.66z"/><path d="m88.76 216.57c-1 0-.34-2.25-.14-2.75s1.15-2.26 2-2.14c1.17.18-.71 1.86-.93 2.29a4 4 0 0 0 -.41 1.45c-.05.4.11 1.15-.52 1.15z"/><path d="m91.52 205.66c-1.3 0 .29-2.23.62-2.54.66-.65 2.08-1.49 3.07-1.21.68.19.57.85 0 1a5.85 5.85 0 0 0 -1.63.38 3.25 3.25 0 0 0 -1.12 1.06c-.29.38-.39 1.31-.94 1.31z"/><path d="m98 204.69c-1.28 0 .25-1.37.53-1.57.49-.37 1.91-1.59 2.54-1.36 1.16.42-.62 1.3-1 1.51-.44.32-1.43 1.42-2.07 1.42z"/><path d="m99.93 198.69c-.59 0-.51-.62-.28-.95a3.73 3.73 0 0 1 1.28-1c.79-.43 2.3-.94 3.19-.55.43.18.62.73.1 1s-1.22 0-1.7.07a4 4 0 0 0 -1.33.54c-.36.2-.83.89-1.26.89z"/><path d="m109.37 196.31a.53.53 0 0 1 -.42-.79c.19-.34.93-.49 1.28-.6a5.09 5.09 0 0 1 2.81-.19c.33.13.6.48.32.82s-.8.14-1.14.13a5.12 5.12 0 0 0 -1.51.17 7.09 7.09 0 0 1 -1.34.46z"/><path d="m123.87 195.31c-.92 0-1.9-.42-2.84-.47-.37 0-1 .13-1.27-.15s-.09-.75.32-.87a7.24 7.24 0 0 1 2.88.24c.38.08 1.16.12 1.34.51a.5.5 0 0 1 -.43.74z"/><path d="m131 198.41c-.37 0-.8-.37-1.15-.48a4.7 4.7 0 0 0 -1.29-.16c-.29 0-.58.11-.79-.16s0-.68.33-.82a3.86 3.86 0 0 1 2.29.25c.3.11.92.31 1.06.63a.51.51 0 0 1 -.45.74z"/><path d="m139 199.72c-.36 0-.68-.4-1-.59a7.77 7.77 0 0 0 -1.26-.7 6.55 6.55 0 0 1 -1.33-.5c-.3-.27-.37-.75.12-.92.65-.23 2 .64 2.55 1a4.64 4.64 0 0 1 1.21.85c.27.29.23.86-.29.86z"/><path d="m144.12 205.76c-.78 0-.91-.87-1.43-1.3-.27-.23-2.36-1-1.12-1.49.64-.25 1.68.57 2.07 1s1.67 1.79.48 1.79z"/><path d="m152.15 211.11c-.65 0-1.55-1.42-2-1.85a5.08 5.08 0 0 0 -1.23-1.13c-.34-.17-.87-.14-.95-.6s.2-.55.53-.58c1.06-.12 2 1.22 2.67 1.91.25.22 2.4 2.25.98 2.25z"/><path d="m170.8 211.06c-.93 0-.27-2-.23-2.5s-.34-2.93.6-2.82.58 5.32-.37 5.32z"/><path d="m167.45 203.54c-.9 0-.35-2.34-.34-2.87s-.37-3.21.48-3.24.57 2.33.55 2.89.19 3.22-.69 3.22z"/><path d="m171.88 199.77c-.87 0-.46-2.59-.48-3.18s-.63-3.23 0-3.54c1-.47.93 2.57 1 3.11s.41 3.61-.52 3.61z"/><path d="m168.24 190.56c-.86 0-.18-1.87-.29-2.43s-.81-2 .24-1.9c.45.06.68 1.31.76 1.72.11.58.21 2.61-.71 2.61z"/><path d="m174 187.82c-.79 0-.56-2.14-.64-2.68s-1.12-2.8-.4-3.09c1.12-.47 2.29 5.77 1.04 5.77z"/><path d="m169.22 180.86c-.58 0-.47-.57-.44-.94a4.54 4.54 0 0 0 -.11-1.72c-.12-.44-1.46-2.58-.18-2.59.58 0 .42.58.52.88.15.47.49.88.63 1.37s.6 3-.42 3z"/><path d="m167.86 169.57c-.66 0-.68-1.79-.89-2.28s-1.51-2-.47-2.14c1.25-.15 2.5 4.42 1.36 4.42z"/><path d="m172.58 172.79c-.59 0-.48-.55-.35-.88.2 0 .27-.06.22-.16a.5.5 0 0 1 0-.24 2.43 2.43 0 0 0 -.18-.83c-.14-.51-1.66-2.65-.65-2.78 1.2-.15 2.87 4.89.96 4.89z"/><path d="m167.65 160.93c-.71 0-.52-1.6-.72-2.12s-1.67-1.82-.76-2.15c.72-.26 1.51 1.27 1.71 1.78s.75 2.49-.23 2.49z"/><path d="m163.87 151.78c-.53 0-.44-.5-.46-.84a2.33 2.33 0 0 0 -.53-1.26c-.29-.38-2.58-2.11-1.27-2.37.72-.14 2 1.59 2.32 2.11s1.07 2.36-.06 2.36z"/><path d="m160.6 143.75c-.38 0-.5-.26-.57-.58a.48.48 0 0 0 0-.56 2 2 0 0 0 -.32-.5c-.24-.25-.72-.39-.74-.79s.3-.52.62-.5c.97.06 2.35 2.93 1.01 2.93z"/><path d="m163.92 139.15c-.56 0-.46-.59-.5-1a2.71 2.71 0 0 0 -.55-1.36 3.53 3.53 0 0 0 -1.21-.86c-.37-.21-.84-.78-.14-1s2 1 2.41 1.64c.27.43 1.07 2.58-.01 2.58z"/><path d="m169.5 143.13c-.65 0-.7-1.66-.93-2.15s-1.64-2-.4-2 2.51 4.15 1.33 4.15z"/><path d="m175 149.33c-.66 0-.45-.76-.44-1.16a3.66 3.66 0 0 0 -.33-1.63 4.06 4.06 0 0 0 -.91-1.23c-.27-.27-1-1-.13-1.17s1.84 1.63 2.08 2.28.73 2.91-.27 2.91z"/><path d="m175.94 159.72c-.74 0-.51-1.64-.61-2.12s-1.17-2.08-.55-2.47c1.16-.73 2.54 4.59 1.16 4.59z"/><path d="m180.4 178.45c-.72 0-.41-.77-.32-1.15a4.8 4.8 0 0 0 .17-1.69 4.88 4.88 0 0 0 -.49-1.63c-.16-.35-.62-1.14.15-1.19.93-.06 1.32 2.25 1.37 2.88s.02 2.78-.88 2.78z"/><path d="m183.71 170.46c-.68 0-.59-1.56-.79-2s-1.65-1.81-.69-2.11c1.37-.45 2.77 4.11 1.48 4.11z"/><path d="m185.9 183.52c-.85 0-.41-1.68-.44-2.19s-.73-2.34 0-2.57c1.08-.35 1.64 4.76.44 4.76z"/><path d="m186.29 193.47c-.67 0-.41-.61-.29-.92a2.23 2.23 0 0 0 .13-1c0-.62-.87-3.13 0-3.18s1.77 5.1.16 5.1z"/><path d="m181.49 197.68c-.91 0-.19-2.19-.18-2.71s-.63-2.86.1-3.05c1.17-.3 1.43 5.76.08 5.76z"/><path d="m176.85 203.31c-.88 0-.25-2.15-.27-2.72s-.86-2.61 0-2.71c1.24-.13 1.52 5.43.27 5.43z"/><path d="m183.67 208a.76.76 0 0 1 -.69-.9c0-.13.2-.24.22-.34a4 4 0 0 0 -.08-.91c-.07-.57-1-2.69-.26-3 1.08-.38 2.14 5.15.81 5.15z"/><path d="m188.28 203.42c-.79 0-.51-1.66-.53-2.16s-.58-2.6 0-2.89c1-.43.9 1.78.94 2.26s.5 2.79-.41 2.79z"/><path d="m179 215.32c-1.15 0 .19-1.79.33-2.2.19-.57 0-2.49.8-2.41 1.23.13.05 4.61-1.13 4.61z"/><path d="m187.16 217.39c-.82 0-.48-1.14-.1-1.46s.57-.2.88-.44a3.2 3.2 0 0 0 .6-.76 7.14 7.14 0 0 0 1-2.06c.15-.51 0-1.89.65-2 1.31-.32.08 3.09-.12 3.53a8.08 8.08 0 0 1 -1.13 1.79c-.4.38-1.18 1.4-1.78 1.4z"/><path d="m196.46 213.08c-1.1 0 .07-1.63.19-2s-.14-2.12.52-2.23c1.19-.22.6 4.23-.71 4.23z"/><path d="m179.67 188.32c-1.07 0-.34-1.75-.29-2.27a7.09 7.09 0 0 0 -.07-1.72c-.07-.4-.41-1.13.19-1.3 1-.27.93 2.06.92 2.58s-.17 1.14-.23 1.72c-.05.38.1.99-.52.99z"/><path d="m176.71 168.48c-.77 0-.53-1.57-.63-2.07s-1-2.17-.35-2.49c1.1-.53 2.27 4.56.98 4.56z"/><path d="m169.13 152.45c-.72 0-.53-1.5-.65-2s-1.29-2.1-.5-2.39c1.24-.44 2.39 4.39 1.15 4.39z"/><path d="m180.72 162.42c-.77 0-.43-1.37-.58-1.85s-1.36-1.67-.44-1.93c1.3-.36 2.3 3.78 1.02 3.78z"/><path d="m310.37 130c.94 1.68-.1 4.15-.76 5.74a52.58 52.58 0 0 1 -4.27 7.83c-3.09 4.89-6.5 9.64-10 14.28a59.24 59.24 0 0 1 -9.82 10.38c.89.27 1.28.91 1.92 1.49s1.77.44 2.7.25a15.06 15.06 0 0 0 5.8-2.67c3.89-2.78 7-6.65 10.14-10.19a220.35 220.35 0 0 0 19.54-24.7c2.53-3.78 5.57-8.33 5.62-13-7.28 2.92-13.58 7.8-20.91 10.64"/></g><path d="m98.21 66.86a47.64 47.64 0 0 0 -6.4-5.86 24 24 0 0 0 -3-1.73 5.76 5.76 0 0 0 -3-.93l.23.24c-.14-.1-.22-.21-.33-.21a.29.29 0 0 1 .1 0l-1.94-2a10.81 10.81 0 0 0 -1.81-1.71h.14l-1.2-1.03c.17.16.34.32.5.49a3.64 3.64 0 0 0 1.87 1c2.8.8 5.78.69 8.67.69q4.68 0 9.36 0c6.19-.07 12.38-.22 18.57-.37a122.4 122.4 0 0 0 -18.93-3.15c-4.65-.4-9.33-1.06-14-1a17.89 17.89 0 0 0 -7.25 1.22q-2.07-2-4.19-4a3.34 3.34 0 0 0 -1.52-.75c.32.09.64.17 1 .23l-1-.9.46.41a2.53 2.53 0 0 0 1.72.67 26.58 26.58 0 0 0 4.37.08c2.73-.14 5.43-.57 8.15-.9a156.64 156.64 0 0 0 28.07-6.09 85.06 85.06 0 0 0 -22.76.43c-3.85.51-7.69 1.17-11.51 1.86a73.93 73.93 0 0 0 -9.87 2.28l.17.15a.65.65 0 0 0 -.47 0l.3-.1c-.89-.81-1.79-1.6-2.69-2.39a5.85 5.85 0 0 0 -1.28-1.12l-.37-.37a1.72 1.72 0 0 0 .77.34 11.37 11.37 0 0 0 3.53-.3c13.15-2.92 25.84-7.54 38.94-10.63-3.16.75-6.47.17-9.68.4-3.64.27-7.26.7-10.86 1.26a176 176 0 0 0 -18.43 4c-2.31.62-5 1.17-7 2.52l-2.56-2.14c-.74-.62-1.69-1.71-2.62-1.89h.34l-.27-.21a2 2 0 0 0 .82.23 14.6 14.6 0 0 0 3.3-.24c14.84-3.23 27.85-11.63 42.05-16.69a354.06 354.06 0 0 0 -39.81 11.45c-1.69.6-3.37 1.24-5.06 1.82a15.81 15.81 0 0 0 -3.77 1.51l.14.11a.86.86 0 0 0 -.27 0l.13-.09-2.37-1.85a5.46 5.46 0 0 0 -2.11-1.36h.32c-1-.77-2-1.53-3.06-2.29a.88.88 0 0 0 0 .16.06.06 0 0 0 0 0c-.2-.61-1.59-1.31-2.16-1.73l-2.22-1.6a12.31 12.31 0 0 0 -1.28-.9 2 2 0 0 0 -1-.24h.75l-.41-.31a2.44 2.44 0 0 0 1.69.27 27.86 27.86 0 0 0 4.16-.63 29.68 29.68 0 0 0 7.31-2.62c10.92-5.89 21.52-12.58 33.06-17.35a83.44 83.44 0 0 0 -22.5 6.23c-6.16 2.58-11.91 5.93-18 8.63-2.62 1.16-5.53 2.27-7.78 4.09q-2.1-1.45-4.23-2.86l-2-1.3a5 5 0 0 0 -1-.65l-1.95-1.25h.07l1.1.71a2.73 2.73 0 0 0 2 .48 7.15 7.15 0 0 0 1.95-.36 57.23 57.23 0 0 0 7.11-3.62c5.15-2.84 10.16-5.91 15.32-8.75 2.88-1.54 5.76-3.04 8.73-4.35a31.61 31.61 0 0 0 -3.51 0 28.56 28.56 0 0 0 -4.52 1.16q-2.34.66-4.65 1.44a152.18 152.18 0 0 0 -16.38 6.86c-2.5 1.2-5.27 2.54-7.23 4.59-.19.2-.93.93-.84 1.25a5.51 5.51 0 0 0 -1-.61l-1-.61-2.13-1.31c-1.37-.84-2.75-1.68-4.14-2.5-.67-.4-1.34-.8-2-1.19a1.59 1.59 0 0 0 -1-.33l.32-.07-.35-.2c.83.38 2.19-.3 3.06-.57 2.13-.66 4.23-1.43 6.3-2.26 4.24-1.65 8.29-3.65 12.33-5.65h-11.32c-1.58 0-2.91.87-4.34 1.53-3.07 1.45-6.45 3-9.07 5.15q-3.66-2.07-7.35-4.06l-1.74-.9a4.62 4.62 0 0 0 -1-.54c-.72-.39-1.45-.8-2.18-1.18a1.59 1.59 0 0 0 -.05.84 1.36 1.36 0 0 1 0-.84h-5.77c0 .55-.08.57.36.86a26.41 26.41 0 0 0 2.43 1.24q2.42 1.25 4.83 2.52c.2.11.81.58 1 .55l.38.18c-.22-.08-.41-.1-.49 0-3.51 3.13-3.92 8.65-4.32 13.04-.64 6.89-.73 13.82-.8 20.73a25.17 25.17 0 0 1 2-8.25c1-2.81 2-5.63 2.94-8.49a58.61 58.61 0 0 0 2.3-9.38 29.73 29.73 0 0 0 .31-4.9l-.06-1.1c0-.51 0-.49-.36-.79l.31.16a.57.57 0 0 1 0-.13c.31.56 1.57 1 2.19 1.32 1.55.86 3.11 1.74 4.66 2.62.82.47.45-.18 1.15-.16.47 0 .72.59.89.95.34.74 1.16 1 1.87 1.45l2.51 1.49q2.34 1.39 4.65 2.82 5.21 3.21 10.3 6.58l.2-.4c-.07.14-.14.27-.19.4h.05-.05c-1.5 3.28-1.48 7.14-1.9 10.66a84.88 84.88 0 0 0 -.16 11.58c.09 3.91.18 7.81.3 11.72.26 7.85.65 15.7 1.41 23.52a124.65 124.65 0 0 0 4-46.56c-.2-2-.45-4.06-.8-6.07-.16-.9-.34-1.8-.54-2.69a1.41 1.41 0 0 0 -.76-1.14l.58.38a1.94 1.94 0 0 1 -.05-.2c.4.75 1.86 1.39 2.58 1.88q2.68 1.83 5.34 3.7a5.17 5.17 0 0 1 .18-.51 5.17 5.17 0 0 0 -.18.51c-1.23 4.1-.31 8.7-.19 12.9.21 7 1 14 1.85 21 .46 3.55 1 7.09 1.46 10.63.2 1.41.42 2.78.74 4.17a9.52 9.52 0 0 1 .38 4 107.17 107.17 0 0 0 2.07-21 147.89 147.89 0 0 0 -1-20.93 31.4 31.4 0 0 0 -1.26-5.83 10.71 10.71 0 0 0 -1.11-2.74l-.2-.24.13.09c-.25-.47-.54-.93-.83-1.38.14.22.3.44.43.67a8.41 8.41 0 0 0 2.62 2.33q3 2.2 6 4.46l.1.08-.1-.08c-.8 1.64-.46 4-.35 5.77.22 3.43.7 6.84 1.23 10.23 1.32 8.49 3.06 16.93 5 25.3.92 3.93 1.88 7.86 3 11.74-.88-3-.34-6.39-.13-9.47a65.73 65.73 0 0 0 -.4-10.86 193.91 193.91 0 0 0 -3.31-22.11c-.42-1.93-.91-3.86-1.5-5.75a11.28 11.28 0 0 0 -1-2.88c-.07-.18-.13-.37-.2-.55a2.27 2.27 0 0 0 .81 1c1.81 1.42 3.62 2.86 5.41 4.31a50.85 50.85 0 0 0 1.11 12.05 114 114 0 0 0 2.62 11.25 55.14 55.14 0 0 0 4 11c1.3 2.37 3.74 5 3.84 7.82a85.67 85.67 0 0 0 -3.55-20.64c-1.28-4.43-2-9-3.15-13.46-.38-1.39-.79-2.76-1.28-4.11a3.65 3.65 0 0 0 -1-1.75l.44.36c-.08-.2-.18-.42-.28-.65a3.57 3.57 0 0 0 1 1.28c2 1.64 3.93 3.29 5.87 5-.68 1.89-.1 4.35 0 6.29 1.06 13 8.3 24.21 16.14 34.23a203.42 203.42 0 0 0 -6.41-22q-1.87-5.3-4-10.48c-.56-1.33-1.22-2.61-1.91-3.88a7.7 7.7 0 0 0 -1.55-2.26l.77.68-.37-.68c1.08 1.69 3 3 4.48 4.33a22.74 22.74 0 0 0 3.52 5.55c1.75 2.26 3.67 4.42 5.6 6.53 4.09 4.47 8.53 8.5 13 12.54a79.56 79.56 0 0 1 7.58 7.45c-3.31-5.91-6.39-12-10.62-17.36a87.59 87.59 0 0 0 -6.35-7.18zm-81.14-58.72a.9.9 0 0 1 .1-.38 1.19 1.19 0 0 0 -.1.38zm17.27 8.86h-.08.09zm7.99 5 .13-.11.29.2c-.22-.09-.32-.09-.42-.09zm7.33 6.76a3.46 3.46 0 0 0 -.27.5 3.46 3.46 0 0 1 .27-.5q.59.7 1.11 1.47-.52-.72-1.11-1.43zm2 1a2.1 2.1 0 0 1 -.78-.89 1.06 1.06 0 0 1 0-.23 1.88 1.88 0 0 0 .63 1 2.11 2.11 0 0 0 .4.26zm5.86 4.24a1.1 1.1 0 0 0 .41.91.78.78 0 0 1 -.41-.91zm.63 1.05-.15-.05a3.13 3.13 0 0 0 .32.15zm8.85 5.76.3.26h.06zm2.57 4.87.86.7zm1.67.67a5.4 5.4 0 0 0 .74.51 5.4 5.4 0 0 1 -.71-.5zm2.16 1.18-.24-.09.72.24zm6.4 4.92a1.14 1.14 0 0 1 .11.11c-.16-.11-.25-.07-.14.34a1.22 1.22 0 0 0 .1.24c-.16-.29-.26-.58-.04-.68zm-1.44.59a1 1 0 0 1 .13-.26 1 1 0 0 0 -.1.27zm.13-.26c.48-.66 1.36.49 1.93 1.36-.63-.97-1.42-1.94-1.9-1.35zm6.83 6.12a.5.5 0 0 1 0-.28s.06-.05.08-.08a.47.47 0 0 0 -.05.37z" fill="#b7dccc"/><path d="m72.56 18.91c-3.56 1.17-7.14 2.09-10.66 3.25-1.89.64-3.77 1.36-5.62 2.11a17.86 17.86 0 0 0 -4.2 2.19 4.54 4.54 0 0 0 -.9.85c-.42.56-.3.63.28 1.05l1.84 1.38a1.49 1.49 0 0 0 1.45.36 31.8 31.8 0 0 0 6.48-2.22q18.87-7.59 37.33-16.17c-4.38 1.08-8.78 2.1-13.15 3.24s-8.58 2.54-12.85 3.96z" fill="#b7dccc"/><path d="m29.8 21.2c-2.11 1.31-2.61 4.32-2.89 6.58-.38 3.21-.5 6.46-.73 9.68q-.86 12.15-1.72 24.3a77.15 77.15 0 0 0 5.54-20.85c.48-3.55.78-7.11 1-10.68.12-2 .38-4 .51-6 .06-1.09.21-4.23-1.71-3.03z" fill="#b7dccc"/><path d="m19.49 11.18.41.23c-.28-.78-.93-2.06-1.74-1l.3.17c-.42-.14-.38-.08-.61.37-.13.26-.24.53-.35.8a19.8 19.8 0 0 0 -1 4.23 299.08 299.08 0 0 0 -2.83 34.87 116.55 116.55 0 0 0 5.62-19.56c1.19-6.13 2.63-13.16.84-19.3a1.11 1.11 0 0 0 -.64-.81z" fill="#b7dccc"/><path d="m10.61 0h-4.79l2.18 1.17c.88-.37 1.75-.76 2.61-1.17z" fill="#b7dccc"/></svg>