<svg viewBox="0 0 368.5 340.16" xmlns="http://www.w3.org/2000/svg"><path d="m0 0h368.5v340.16h-368.5z" fill="none"/><path d="m177.7 207.51c-4.53-1-9.92.81-14.32-1-7.35-3-4.74-11.67-2.83-17.13 3.1 9.05 16.76 10.67 20.22 17.62-1.74.14-3.52.12-3.07.47" fill="#e9bc31"/><path d="m187.6 206.06c-5-7.4-15.2-9.63-21.2-16.29-7.12-7.91-5.26-16.85-1.46-25.89 1.61 4.68 7.73 8.42 11.77 10.91 7.42 4.58 14.43 9.65 21.65 14.53 3.53 2.39 7.86 6 10.15 9.64 1.05 1.69 1.27 4.66 1.33 6.64a49.93 49.93 0 0 0 -9 .2c-4.39.56-9.61 1.58-13.27.26" fill="#fcdf54"/><path d="m206.35 190.52c-3.82-4.72-9.31-7.62-14.37-11-5.4-3.56-10.8-6.85-16.06-10.59-8.17-5.8-12.35-18.35-6.35-27.14 1.17 1 1.78 2.77 3 4 2.7 2.71 5.39 5.11 8.95 6.64 5.83 2.52 11.79 4.2 16.47 8.74 8 7.72 8 16.77 8.4 29.34" fill="#fcdf54"/><path d="m202 161.15c.59-1.55-7.12-7.33-9.25-8.3-4.49-2-9.44-3.07-13.38-6.15-6.35-5-10.73-15.94-6-23.4 1.1 3.33 5.45 6.46 8.44 8.18 4.43 2.57 10.13 3.57 13.75 7.38 2.7 2.84 4.32 7.5 5 11.28.66 3.4 0 6.35 1.44 11" fill="#fcdf54"/><path d="m197.62 137.49c.14-3.42-4.36-6.46-7.11-7.77-4.18-2-7.93-2.43-11.5-5.7-4.28-3.92-5.6-12.55-1.39-17.1.08-.08.07-.09 0 0-1.44 5.87 12.15 9.47 15.47 12.45 1.95 1.74 7 14 4.54 18.13" fill="#fcdf54"/><path d="m192.67 115.4c.49-1.05-4.87-4.12-6.15-4.74-2.87-1.38-5.31-2.79-6.6-5.82-2.53-6 .48-11.18 3-16.42-1.12 3.34 4.86 7.07 6.72 9.3 3.83 4.62 3.7 11.54 3.08 17.68" fill="#fcdf54"/><path d="m188.92 94.16c.46-1.28-1.44-3.2-2.25-4.36a12.55 12.55 0 0 1 -2.67-6.38c-.29-3.29.39-6.85 2.7-9.33 2.21 2.14 2.15 6.89 2.42 9.77a36 36 0 0 1 -.22 10.3" fill="#fcdf54"/><path d="m129.74 190.58c-1.61-3.23-2-7.43-4-10.84-4.66-7.93-11.07-14.72-17.2-21.49-8.5-9.37-19.73-18.4-31.67-22.87-7.77-2.89-9.7.24-12 8.36-5.49 19.36-6.15 38.95 1.16 57.85 2.8 7.25 6.87 12.93 12.1 18.59 2.67 2.88 5.07 6.64 8 9.12 15.65-8.36 35.76-19.79 43.64-38.72" fill="#f9f6f6"/><path d="m94.9 216.17c6.61-3.35 12.76-5.94 17.93-11.54 3.85-4.16 7.81-6.92 4.41-12.59-4.34-7.25-12.84-13.13-20.51-16.41-2.55-1.09-6.78-3-9.13-.51s-2.2 8.77-2.17 12a49.53 49.53 0 0 0 9.47 29" fill="#f7c1c0"/><path d="m236.05 194.12c1.6-3.23 2-7.43 4-10.84 4.66-7.93 11.07-14.72 17.2-21.49 8.5-9.37 19.73-18.4 31.68-22.87 7.76-2.9 9.7.23 12 8.36 5.49 19.36 6.15 38.95-1.15 57.85-2.8 7.25-6.88 12.93-12.11 18.59-2.67 2.88-5.07 6.64-8 9.12-15.65-8.36-35.76-19.79-43.63-38.72" fill="#f9f6f6"/><path d="m270.88 219.7c-6.61-3.34-12.76-5.93-17.93-11.53-3.84-4.16-7.81-6.92-4.41-12.6 4.34-7.24 12.84-13.12 20.51-16.4 2.56-1.09 6.78-3 9.13-.51s2.2 8.76 2.18 12a49.56 49.56 0 0 1 -9.48 29" fill="#f7c1c0"/><path d="m105.67 204.31c.2-.32-.24-3.15-.16-4.29a8.12 8.12 0 0 1 3.25-6.29c3.47-2.57 2.63-7 4.94-10.55 2.4-3.66 8.82-6.51 13.09-6.86 2.51-.21 4.68.27 6.34 2.18.64.73 1.09 1.71 2 2.1a5.45 5.45 0 0 0 3.23-.34c2.4-1 4.14-2.39 6.88-2.46 5.39-.13 14.5 2.92 16.1 8.73.62 2.28-.79 3.75.63 5.5s3.91 2.81 5.28 4.89a11.79 11.79 0 0 1 1.4 7.77 10.51 10.51 0 0 1 -3.16 6.08 6 6 0 0 0 -2 3.52c-.86 4-1.54 5.52-5.35 6.91.05 4.32-4.11 9.45-7.7 11.43-4.53 2.49-8.12.86-12.39-.68-.67 3.74-7.37 5.72-10.46 6.1a15.1 15.1 0 0 1 -10-2.37c-2-1.46-2.28-3.17-3.16-5.25-1.83-4.31-8-4.47-10.58-8.69-3.54-5.69-1.89-15.19 1.88-17.43" fill="#f8ebe6"/><g fill="#e9cbc0"><path d="m131 218.11c-.19.48-.57.3-1.11.25-2.52-.23-4-2.33-4.9-4.49a9.79 9.79 0 0 1 .47-8.32c.4-.76 1.15-2.46 2-2.59a9.52 9.52 0 0 1 -.15 2.29 23.4 23.4 0 0 0 .47 6.19 12 12 0 0 0 3.19 6.67"/><path d="m130.8 213.06c-1.88-1.53-.58-6.57.8-8.09 1.64-1.81 3.72-.65 5.19.75a6.78 6.78 0 0 1 1.83 6.83c-.67 2.19-3.39 4.51-5.51 2.71 2-1.06 4.79-5.43 2.75-7.59-2.32-2.43-5 2.55-5.06 5.39"/><path d="m132.12 199.66c5.26-.15 7.77 5.69 8.91 10.23 2.77-1.45.73-7.07-.7-8.78-2-2.38-4.79-2-8.21-1.45"/><path d="m135.85 194.06c3.47-.07 8.32.55 9.89 4.17 1.16 2.67-.41 5.87-.46 8.65a17.79 17.79 0 0 1 -3.22-7.21c-.7-2.68-3-3.71-6.21-5.61"/><path d="m146.51 208c-.09-.11-.09-.18-.21-.22a6.77 6.77 0 0 1 -3.53 7.5 4.14 4.14 0 0 0 5-.94c1.8-2.32.61-4.61-1.25-6.34"/><path d="m126.29 221.19c.55-.62 1.91.27 2.6.43a9.35 9.35 0 0 0 5.41-.42 13.86 13.86 0 0 0 5.71-4.28c-.9 2.3-.69 4.92-2.91 6.59-3.14 2.39-7.87-.14-10.81-2.32"/><path d="m125.3 222.4c-3.66-1.48-4.72-4.86-4.44-8.49.13-1.73.37-4.35-.69-5.78a3 3 0 0 1 -.78 1.09 8.39 8.39 0 0 0 -2.43 4.71c-.46 4.18 2.48 9.47 8.34 8.47"/><path d="m122.56 208.45c-.06-4 1.52-9.13 5.75-10.54 2.2-.73 5.1 0 7.39.11a6.4 6.4 0 0 0 -7.45-3.32c-4.86 1.36-6.91 8.73-5.69 13.75"/><path d="m115.2 211.13c.24-.12.22-.33.31-.81.43-2.13-.62-4.23.06-6.46 1.2-4 3.94-4.79 7.33-6.05-1.05-2-5.92 0-7.1.9a6.7 6.7 0 0 0 -2.43 6.28c.27 2.88.88 3.5 1.83 6.14"/><path d="m113.33 222c-1-1.37-2.92-3-3.73-4.73a10.8 10.8 0 0 1 .43-9.38 12.72 12.72 0 0 0 1.54-3 8.31 8.31 0 0 1 .42-1.63c-.5.32-.81 1-1.23 1.43-1.39 1.47-2.63 2.45-3.5 4.38a10.35 10.35 0 0 0 -.53 8.07c1.06 3.06 3.46 6 6.6 4.89"/><path d="m114.65 197.4c.93-1.76 1.51-3.94 2.81-5.68 2.09-2.82 4.69-5.55 8.14-6.62 2.83-.88 5.27.31 8 .11a8.84 8.84 0 0 0 -10.22-2.66c-6.5 2.72-9.37 8.4-8.75 14.85"/><path d="m117.17 223.17c-.13.6 1.76 2.41 2.16 2.85a8.59 8.59 0 0 0 5.76 2.93c3.07.35 8.57-.25 10.34-3.23-1 2.58-1.59 4.58-4.26 6.15a10 10 0 0 1 -5.25 1.18c-5.28-.14-8.11-4.13-8.75-9.88"/><path d="m148.1 226.7c2.73-1.74 4.64-4.94 5.78-7.91-.22 3.56.59 6.71-2.21 9.57-2.2 2.25-4.89 2.61-7.87 2a13.63 13.63 0 0 1 -4.06-1.15c-.42-.27-1.7-1.75-1.35-2.34s2.2.5 2.75.67a8.38 8.38 0 0 0 7-.81"/><path d="m141.34 221.85c-.05 0 .68-.1.82-.13a8.38 8.38 0 0 0 5.36-2.5c2.15-2.14 4.37-5.56 4-8.48.56 1.87 1.89 4.85 1.27 6.83a9.41 9.41 0 0 1 -3.55 4.4c-2.07 1.1-4.66 0-7.93-.12"/><path d="m149.25 207.46c0 .1-.19 0-.09.2.88 0 1.38-2 1.54-2.61a11 11 0 0 0 -.6-6.71c-.86-2.15-3.73-5.08-2.8-7.68 2.37 1.24 5.38 3.62 6.45 6.13 1.74 4.07-.68 9.67-4.5 10.67"/><path d="m139.7 184.39a20 20 0 0 0 2.5.22 24.33 24.33 0 0 1 7.32 2.36c3.4 1.92 5 5.08 6.28 8.63 0-1.45.59-3.17.72-4.71a7.53 7.53 0 0 0 -2.8-6.37c-3.17-2.84-9.83-2.88-14-.13"/><path d="m155.29 196.19c1.84-.77 4.75 4.18 5.44 5.6a25.46 25.46 0 0 1 2.31 9.07c-.9-3 2.09-5.63 1.26-8.81-.51-1.92-1.44-4.27-3.09-5.45-.81-.58-4.29-1.87-5.92-.41"/><path d="m155.92 203.13c0-.41.49.89.56 1.06a19.14 19.14 0 0 1 1.38 5.41c.29 2.85-1.66 5.11-3.27 7.29 3.19-.43 6.94-1.18 6.82-5.11a8 8 0 0 0 -1.57-5c-1.39-1.61-3.29-2.53-3.92-3.69"/><path d="m127.3 194c.93-.86 1.54-2 2.57-2.76a6.78 6.78 0 0 1 4.68-1.26 15.75 15.75 0 0 1 4.88 1.66c.85.36 2 1.1 3 1-.84-2.22-2.29-6.16-5.16-6.2a13.09 13.09 0 0 0 -5.51 1.45 9.49 9.49 0 0 0 -2.73 1.79 6.79 6.79 0 0 0 -1.7 4.28"/></g><path d="m265.4 201.18c-.19-.31.23-3.05.15-4.14a7.78 7.78 0 0 0 -3.14-6.07c-3.34-2.48-2.53-6.78-4.75-10.17-2.33-3.54-8.51-6.28-12.63-6.62-2.42-.2-4.52.26-6.12 2.1-.61.71-1 1.65-1.88 2a5.13 5.13 0 0 1 -3.11-.32c-2.32-.94-4-2.31-6.64-2.37-5.2-.13-14 2.82-15.53 8.42-.6 2.2.77 3.62-.6 5.3s-3.78 2.71-5.1 4.72a11.35 11.35 0 0 0 -1.34 7.49 10.05 10.05 0 0 0 3 5.87 5.8 5.8 0 0 1 1.95 3.4c.83 3.83 1.48 5.32 5.16 6.66-.05 4.16 4 9.11 7.42 11 4.37 2.41 7.83.83 12-.65.64 3.6 7.1 5.51 10.08 5.88a14.49 14.49 0 0 0 9.64-2.29c1.95-1.4 2.2-3.05 3-5.06 1.76-4.16 7.67-4.31 10.2-8.38 3.41-5.49 1.82-14.65-1.81-16.81" fill="#f8ebe6"/><path d="m241 214.49c.18.46.55.29 1.06.24 2.44-.22 3.85-2.25 4.73-4.34a9.4 9.4 0 0 0 -.45-8c-.39-.73-1.11-2.37-2-2.49a8.77 8.77 0 0 0 .15 2.2 23 23 0 0 1 -.45 6 11.68 11.68 0 0 1 -3.08 6.44" fill="#e9cbc0"/><path d="m241.16 209.62c1.82-1.48.55-6.34-.78-7.81-1.57-1.74-3.58-.63-5 .72a6.58 6.58 0 0 0 -1.76 6.6c.64 2.11 3.27 4.34 5.31 2.6-1.89-1-4.62-5.23-2.65-7.31 2.23-2.35 4.83 2.46 4.88 5.2" fill="#e9cbc0"/><path d="m239.89 196.69c-5.08-.14-7.49 5.49-8.59 9.87-2.68-1.4-.71-6.82.67-8.47 1.91-2.29 4.62-1.94 7.92-1.4" fill="#e9cbc0"/><path d="m236.29 191.29c-3.35-.06-8 .53-9.54 4-1.12 2.57.4 5.65.44 8.34a17.23 17.23 0 0 0 3.11-7c.68-2.59 2.92-3.58 6-5.41" fill="#e9cbc0"/><path d="m226 204.74c.09-.1.09-.17.2-.21a6.54 6.54 0 0 0 3.4 7.24 4 4 0 0 1 -4.8-.91c-1.74-2.24-.6-4.44 1.2-6.12" fill="#e9cbc0"/><path d="m245.51 217.46c-.53-.61-1.85.26-2.51.41a9 9 0 0 1 -5.22-.4 13.41 13.41 0 0 1 -5.5-4.13c.87 2.22.66 4.74 2.8 6.36 3 2.3 7.59-.14 10.43-2.24" fill="#e9cbc0"/><path d="m246.46 218.62c3.53-1.43 4.56-4.69 4.29-8.19-.13-1.66-.36-4.19.66-5.57a2.86 2.86 0 0 0 .75 1 8.09 8.09 0 0 1 2.35 4.54c.44 4-2.39 9.14-8 8.17" fill="#e9cbc0"/><path d="m249.11 205.17c.06-3.86-1.47-8.81-5.55-10.16-2.12-.71-4.92 0-7.13.1a6.18 6.18 0 0 1 7.19-3.2c4.68 1.31 6.67 8.42 5.49 13.26" fill="#e9cbc0"/><path d="m256.2 207.76c-.23-.13-.21-.32-.3-.79-.41-2.06.6-4.08-.05-6.23-1.16-3.82-3.8-4.62-7.07-5.83 1-1.94 5.71 0 6.84.87a6.43 6.43 0 0 1 2.35 6.05c-.26 2.78-.85 3.37-1.77 5.93" fill="#e9cbc0"/><path d="m258 218.2c.92-1.32 2.81-2.9 3.6-4.56a10.42 10.42 0 0 0 -.42-9 13 13 0 0 1 -1.49-2.92 8 8 0 0 0 -.4-1.58c.48.31.78 1 1.19 1.39 1.34 1.41 2.54 2.36 3.38 4.22a10 10 0 0 1 .5 7.78c-1 3-3.33 5.77-6.36 4.72" fill="#e9cbc0"/><path d="m256.74 194.51c-.9-1.7-1.46-3.8-2.71-5.48-2-2.71-4.52-5.35-7.85-6.38-2.74-.85-5.09.3-7.74.11a8.51 8.51 0 0 1 9.86-2.57c6.26 2.62 9 8.1 8.44 14.32" fill="#e9cbc0"/><path d="m254.3 219.37c.13.57-1.7 2.33-2.08 2.75a8.3 8.3 0 0 1 -5.55 2.82c-3 .34-8.27-.24-10-3.11.94 2.48 1.53 4.41 4.1 5.93a9.61 9.61 0 0 0 5.06 1.14c5.1-.14 7.83-4 8.44-9.53" fill="#e9cbc0"/><path d="m224.47 222.77c-2.62-1.67-4.47-4.77-5.57-7.62.21 3.43-.57 6.47 2.13 9.22 2.13 2.17 4.72 2.52 7.59 1.91a13.48 13.48 0 0 0 3.92-1.12c.41-.26 1.63-1.69 1.3-2.26s-2.12.49-2.66.65a8.07 8.07 0 0 1 -6.71-.78" fill="#e9cbc0"/><path d="m231 218.09s-.65-.1-.79-.12a8.15 8.15 0 0 1 -5.17-2.41c-2.07-2.07-4.21-5.36-3.89-8.18-.54 1.8-1.82 4.68-1.22 6.59a9.07 9.07 0 0 0 3.42 4.24c2 1.06 4.5 0 7.65-.12" fill="#e9cbc0"/><path d="m223.36 204.21c0 .1.19 0 .09.2-.85 0-1.33-1.9-1.49-2.52a10.75 10.75 0 0 1 .58-6.48c.84-2.07 3.6-4.89 2.7-7.4-2.28 1.2-5.19 3.49-6.22 5.91-1.67 3.93.66 9.33 4.34 10.29" fill="#e9cbc0"/><path d="m232.58 182a18.67 18.67 0 0 1 -2.41.22 23.16 23.16 0 0 0 -7.06 2.27c-3.29 1.85-4.86 4.9-6.06 8.33 0-1.4-.58-3.06-.7-4.55a7.25 7.25 0 0 1 2.71-6.14c3.05-2.74 9.47-2.78 13.52-.13" fill="#e9cbc0"/><path d="m217.54 193.34c-1.77-.74-4.59 4-5.25 5.41a24.46 24.46 0 0 0 -2.23 8.74c.87-2.86-2-5.43-1.21-8.5.49-1.85 1.39-4.11 3-5.25.78-.56 4.14-1.8 5.71-.4" fill="#e9cbc0"/><path d="m216.93 200c0-.38-.47.86-.54 1a18.56 18.56 0 0 0 -1.33 5.22c-.28 2.74 1.6 4.93 3.15 7-3.07-.41-6.69-1.14-6.57-4.93a7.62 7.62 0 0 1 1.52-4.78c1.33-1.56 3.16-2.44 3.77-3.57" fill="#e9cbc0"/><path d="m244.54 191.25c-.91-.83-1.49-1.9-2.48-2.66a6.5 6.5 0 0 0 -4.52-1.21 15.25 15.25 0 0 0 -4.71 1.59 7.28 7.28 0 0 1 -2.86 1c.81-2.14 2.21-5.94 5-6a12.73 12.73 0 0 1 5.33 1.41 9.09 9.09 0 0 1 2.63 1.73 6.56 6.56 0 0 1 1.64 4.12" fill="#e9cbc0"/><path d="m191 188c7.49-3.68 18.94-3.33 25.1 3.19 5.07 5.35 5.08 12.25 3.3 18.94 1.12.3 1.92 1.61 2.72 2.42a17.79 17.79 0 0 1 4.89 8.22c1.87 6.85 2.82 13.86-2 19.72a12.87 12.87 0 0 1 -6.41 4.34c-.86.22-2.45 0-3 .71-.14.16-.1 1.1-.17 1.33a9.49 9.49 0 0 1 -2.36 3.55 23.52 23.52 0 0 1 -8.21 6.13c-3.34 1.45-8.13 2.81-11.79 2.14-2.55-.46-4.22-2.24-6.09-3.83-7.64 5.16-18.69 6.1-25.45-1.43a14.29 14.29 0 0 1 -3.91-9.69c0-1 .36-2.39.15-3.37s0-.56-.72-1.07c-1.83-1.24-4-1.82-5.72-3.33a15.66 15.66 0 0 1 -5.1-7.33c-2-6.26-1.43-16.4 3.37-21.3a12.6 12.6 0 0 1 4.68-3.11c1.21-.5.85-.17 1.39-1.11 1.44-2.49 1.94-5.37 3.61-7.85 2-2.94 4-5.62 6.95-7.61a21.7 21.7 0 0 1 16.92-3.27 18.71 18.71 0 0 1 7.85 3.61" fill="#fdf4f3"/><path d="m194.39 236.52c.25.62.74.39 1.43.32 3.28-.3 5.17-3 6.36-5.83a12.68 12.68 0 0 0 -.61-10.79c-.52-1-1.49-3.19-2.63-3.35a12.06 12.06 0 0 0 .2 3 30.94 30.94 0 0 1 -.61 8c-.71 3.56-1.81 6.36-4.14 8.66" fill="#f1dcd3"/><path d="m194.68 230c2.44-2 .74-8.53-1.05-10.5-2.12-2.35-4.82-.84-6.72 1a8.8 8.8 0 0 0 -2.38 8.87c.87 2.83 4.4 5.84 7.15 3.5-2.55-1.37-6.22-7-3.57-9.83 3-3.16 6.5 3.3 6.57 7" fill="#f1dcd3"/><path d="m193 212.58c-6.83-.19-10.08 7.39-11.56 13.28-3.59-1.89-.95-9.18.9-11.4 2.57-3.08 6.22-2.61 10.66-1.88" fill="#f1dcd3"/><path d="m188.12 205.32c-4.5-.09-10.79.72-12.83 5.42-1.5 3.45.54 7.6.6 11.21 2.38-3.06 3.21-5.7 4.17-9.35.92-3.48 3.94-4.81 8.06-7.28" fill="#f1dcd3"/><path d="m174.3 223.41c.12-.14.12-.23.26-.28a8.8 8.8 0 0 0 4.58 9.73 5.38 5.38 0 0 1 -6.46-1.22c-2.34-3-.8-6 1.62-8.23" fill="#f1dcd3"/><path d="m200.52 240.51c-.71-.81-2.48.35-3.37.55a12.2 12.2 0 0 1 -7-.53 18 18 0 0 1 -7.4-5.56c1.17 3 .9 6.37 3.77 8.55 4.07 3.1 10.2-.19 14-3" fill="#f1dcd3"/><path d="m201.8 242.08c4.75-1.93 6.13-6.31 5.77-11-.17-2.23-.49-5.63.89-7.5a3.82 3.82 0 0 0 1 1.42c1.6 1.9 2.87 3.52 3.15 6.11.6 5.43-3.21 12.29-10.82 11" fill="#f1dcd3"/><path d="m205.36 224c.08-5.18-2-11.84-7.45-13.66-2.86-.95-6.62-.06-9.59.13a8.31 8.31 0 0 1 9.66-4.3c6.3 1.76 9 11.33 7.38 17.83" fill="#f1dcd3"/><path d="m213.1 224.11c-.32-.16-.29-.43-.41-1.05-.55-2.77.81-5.49-.07-8.39-1.55-5.13-5.11-6.2-9.51-7.84 1.37-2.6 7.68 0 9.21 1.18 2.62 2 3.44 4.92 3.15 8.13-.34 3.74-1.14 4.54-2.37 8" fill="#f1dcd3"/><path d="m214.7 240.3c1.24-1.77 3.78-3.9 4.84-6.13a14 14 0 0 0 -.54-12.17 17.29 17.29 0 0 1 -2-3.93 10.17 10.17 0 0 0 -.55-2.12c.65.41 1 1.28 1.6 1.86 1.81 1.9 3.42 3.17 4.54 5.68a13.4 13.4 0 0 1 .69 10.46c-1.38 4-4.49 7.76-8.56 6.34" fill="#f1dcd3"/><path d="m215.62 209.65c-1.2-2.28-2-5.1-3.64-7.37-2.71-3.65-6.08-7.2-10.56-8.58-3.68-1.14-6.83.4-10.4.15a11.44 11.44 0 0 1 13.25-3.46c8.43 3.53 12.15 10.9 11.35 19.26" fill="#f1dcd3"/><path d="m211.05 241.81c.18.78-2.28 3.13-2.8 3.7a11.16 11.16 0 0 1 -7.46 3.8c-4 .45-11.13-.32-13.42-4.19 1.27 3.34 2.07 5.94 5.53 8a12.88 12.88 0 0 0 6.8 1.53c6.86-.19 10.53-5.36 11.35-12.82" fill="#f1dcd3"/><path d="m172.23 247.65c-3.53-2.25-6-6.41-7.49-10.25.28 4.62-.76 8.7 2.86 12.4 2.86 2.93 6.35 3.4 10.21 2.57 1.59-.35 3.87-.62 5.27-1.5.55-.35 2.2-2.27 1.75-3s-2.85.66-3.57.88a10.89 10.89 0 0 1 -9-1.06" fill="#f1dcd3"/><path d="m181 241.36c.06 0-.88-.13-1.06-.16a11 11 0 0 1 -7-3.24c-2.79-2.79-5.66-7.21-5.23-11-.72 2.42-2.44 6.28-1.64 8.85a12.11 12.11 0 0 0 4.61 5.7c2.68 1.43 6 0 10.28-.15" fill="#f1dcd3"/><path d="m170.74 222.7c0 .13.25 0 .12.26-1.15 0-1.79-2.55-2-3.38a14.37 14.37 0 0 1 .78-8.71c1.12-2.79 4.83-6.59 3.63-10-3.07 1.61-7 4.69-8.36 8-2.25 5.28.87 12.55 5.83 13.84" fill="#f1dcd3"/><path d="m183.13 192.78a27.83 27.83 0 0 1 -3.24.29 30.94 30.94 0 0 0 -9.49 3.06c-4.42 2.48-6.53 6.59-8.15 11.19 0-1.88-.77-4.12-.94-6.11a9.79 9.79 0 0 1 3.69-8.21c4.11-3.68 12.74-3.74 18.18-.17" fill="#f1dcd3"/><path d="m162.91 208.08c-2.38-1-6.17 5.42-7.06 7.27a32.76 32.76 0 0 0 -3 11.76c1.17-3.86-2.71-7.3-1.63-11.43.65-2.49 1.86-5.53 4-7.07 1.05-.75 5.57-2.42 7.68-.53" fill="#f1dcd3"/><path d="m161.19 219.4c.06-.52-.63 1.16-.73 1.38a25.18 25.18 0 0 0 -1.79 7c-.37 3.69 2.16 6.63 4.24 9.46-4.13-.56-9-1.53-8.84-6.63a10.3 10.3 0 0 1 2-6.43c1.8-2.09 4.26-3.28 5.08-4.8" fill="#f1dcd3"/><path d="m199.21 205.27c-1.21-1.11-2-2.56-3.33-3.58a8.76 8.76 0 0 0 -6.08-1.63c-2.25.17-4.28 1.27-6.33 2.15-1.1.47-2.62 1.42-3.84 1.35 1.08-2.88 3-8 6.68-8.05a16.92 16.92 0 0 1 7.16 1.89 12.19 12.19 0 0 1 3.54 2.32 8.77 8.77 0 0 1 2.2 5.55" fill="#f1dcd3"/><path d="m161.58 299.55c-2.26.6-4.41 1.88-6.7 2.55a42.51 42.51 0 0 1 -12.13 1.59 30 30 0 0 1 -20.78-9c-4.27-4.26-6.37-13-13.21-14.13-3.71-.61-7.26 1.13-10.91 1.18a15.66 15.66 0 0 1 -8-2.43c2 3 6.12 5.75 9.37 7.22a18.8 18.8 0 0 0 6.75 1.65c.75 0 2.64-.4 3.31 0 1.48.89.58 2.29-.61 3.2-3.86 2.93-8.91 1.42-13.19 1.56a26.61 26.61 0 0 0 11.54 5.2c3.63.66 6.82-.68 10.09-1-2 5.64-10.74 7.19-15.84 7.22 3.16.38 6.25 1.64 9.52 1.92a18.07 18.07 0 0 0 7.63-.66c1.15-.42 2.62-1.78 3.86-1.85 1.51-.09 2 .28 2 2.18.12 4-5 7.69-7.93 9.56 3-1.09 6.08-1.73 8.77-3.73.88-.65 3.23-3.58 4.46-3.65 4.36-.25 1.16 9.79.19 11.69 1.55-2.64 3.77-4.82 5.19-7.64.86-1.72.65-2.34 2.23-2.86s4.47-.1 6.21-.36c6.83-1 12.06-4 18.21-9.36" fill="#2c2623"/><path d="m215.06 299.55c2.26.6 4.41 1.88 6.7 2.55a42.47 42.47 0 0 0 12.13 1.59 30 30 0 0 0 20.77-9c4.28-4.26 6.38-13 13.22-14.13 3.71-.61 7.26 1.13 10.91 1.18a15.66 15.66 0 0 0 8-2.43c-2 3-6.13 5.75-9.37 7.22a18.8 18.8 0 0 1 -6.75 1.65c-.75 0-2.64-.4-3.31 0-1.48.89-.58 2.29.6 3.2 3.87 2.93 8.92 1.42 13.2 1.56a26.61 26.61 0 0 1 -11.54 5.2c-3.63.66-6.82-.68-10.09-1 2 5.64 10.74 7.19 15.84 7.22-3.16.38-6.25 1.64-9.52 1.92a18.07 18.07 0 0 1 -7.63-.66c-1.15-.42-2.62-1.78-3.86-1.85-1.51-.09-2 .28-2 2.18-.12 4 5 7.69 7.93 9.56-3-1.09-6.09-1.73-8.78-3.73-.87-.65-3.22-3.58-4.45-3.65-4.36-.25-1.16 9.79-.19 11.69-1.55-2.64-3.77-4.82-5.19-7.64-.86-1.72-.65-2.34-2.23-2.86s-4.47-.1-6.21-.36c-6.83-1-12.06-4-18.21-9.36" fill="#2c2623"/><path d="m296.78 264.19c.72-.15.58-1.73.64-2.3.15-1.39-.05-3 .24-4.32.8 1.51 2 2.81 2.91 4.28.21.35 1 1.32 1 1.32a12.15 12.15 0 0 0 2.64-.34 10.89 10.89 0 0 1 3.26-.36c-.42.56-.83 1.14-1.22 1.74-.49.78-1.05 1.51-1.55 2.29-.16.27-.63.81-.63 1.16 0 .76.95 1.84 1.32 2.5.6 1.08 1.42 2.11 1.95 3.21-1.49.15-3.47-1.28-4.73-1.88a10.52 10.52 0 0 0 -1.56-.8c-.26.05-1.83 1.69-2.63 2.35a16.81 16.81 0 0 0 -1.68 1.59c-.18.19-.33.42-.56.47a24.12 24.12 0 0 1 .34-4.32c.06-.54.24-2.08.24-2.08l-2.64-1.46a8.57 8.57 0 0 1 -2.83-1.83c.83-.25 1.82-.3 2.69-.52a13.66 13.66 0 0 1 2.83-.7" fill="#fcdf54"/><path d="m291 246.47a27.52 27.52 0 0 1 1.62-4.23c.43 1.81.71 2.79 1.2 4.59a14.75 14.75 0 0 1 4.15 1.1 15.17 15.17 0 0 0 -3.3 1.69c-.45.32.13 1.87.17 2.4a18.08 18.08 0 0 1 .2 2.65c-1.44-.71-2-2.68-3.23-3.67a4.62 4.62 0 0 1 -1 .77 15.29 15.29 0 0 1 -2.55 1.73c0-1.29 1.55-3.95 1.5-4.08s-2.34-2.11-2.92-3a15.2 15.2 0 0 1 4.19.1" fill="#fcdf54"/></svg>