<?xml version="1.0" encoding="utf-8"?>
<!-- Generator: Adobe Illustrator 25.2.0, SVG Export Plug-In . SVG Version: 6.00 Build 0)  -->
<svg version="1.1" id="tenue_x5F_feminine_x5F_7" xmlns="http://www.w3.org/2000/svg" xmlns:xlink="http://www.w3.org/1999/xlink"
	 x="0px" y="0px" viewBox="0 0 553 574" style="enable-background:new 0 0 553 574;" xml:space="preserve">
<style type="text/css">
	.st0{fill:none;}
	.st1{fill:#040404;}
	.st2{fill:#FFFFFF;}
	.st3{fill:#2D2D2D;}
	.st4{fill:#6D6E6E;}
	.st5{fill:#000006;}
	.st6{fill:#060A0F;}
</style>
<g id="cadre_8_">
	<rect class="st0" width="553" height="574"/>
</g>
<g>
	<g>
		<path d="M315.9,159.5c-3.6-6.6-14.3-28.5-21.7-15.3c-7.3,9.7-21.1,18.1-29.1,12.4c-7.9-5.1-15.5-11.7-24.1-15.3
			c-8,4-11.8,14.5-12.3,23.5c-0.4,12.1,7.6,29,21.1,28c8.4-2.4,15.9-7.9,24.2-10.2c8.7-0.6,16,8.9,25.1,7.2
			C313,187.3,322.1,172.9,315.9,159.5z M260.8,173.5c-6.7,7.6-22.3,6.1-24.5-4.9c0.1-0.2,0.2-0.4,0.3-0.7c-0.2,0.2-0.4,0.5-0.7,0.7
			c2.6-12.4,22.7-12.1,24.8,0.4c-0.3-0.7-0.7-1.5-1.1-2.2C260.6,168.7,261.1,171,260.8,173.5z M301.6,177.8
			c-5,0.8-10.5-0.9-13.9-4.6c-0.3-2.2,0.1-4.4,0.9-6.2c-0.4,0.7-0.7,1.3-0.8,2c2.1-12.7,21.5-13.1,24.5-0.7c-0.1,0.1,0,0.2,0,0.3
			l-0.1-0.1C310.9,173.6,306.5,177,301.6,177.8z"/>
		<path class="st1" d="M297.4,159.5c5.9-0.9,12.1,2.5,14.3,7.7c-3.3-12.1-22.3-11.2-24.3,1.2C288.9,163.8,292.5,160.1,297.4,159.5z"
			/>
		<path class="st1" d="M311.8,167.8L311.8,167.8l0.1,0.2C311.8,167.9,311.8,167.8,311.8,167.8z"/>
		<path class="st2" d="M311.8,167.7c-0.1-0.2-0.1-0.3-0.2-0.5C311.7,167.4,311.7,167.6,311.8,167.7
			C311.8,167.7,311.8,167.7,311.8,167.7z"/>
		<path class="st1" d="M250.4,159.7c4.8,0.7,8.4,4.3,10,8.7c-2.1-12.5-22.2-12.8-24.8-0.4C238.3,162.7,243.9,158.5,250.4,159.7z"/>
	</g>
	<g>
		<g>
			<path class="st3" d="M319.1,236c16.1,30.2,1.9,68,9.9,100.5c6.2,15.6-2.1,34.4,5.4,48.6c15.2,12.6,10.7,20.2,13.1,37.5
				c2.3,7.5,9,12.7,12.3,19.7c4.8,10.2,2.7,26.3,14.9,31.3c-47.3,31.1-30.7,11.5-74.7,12.8c-21.9,11.1-24.5,15.2-48.6,4
				c-23.4-6.6-52.5,14.4-73.4-2.9c16.3-4.6,7.1-26.9,13.1-38.2c23.6-24.2,13.4-19.9,16.2-49.5c4.3-9.5,9.6-18.6,9.1-29.5
				c3-40.2,5.9-80.4,7.1-120.6c1-42.4,34.2-7.3,61.6-16C298.2,228.9,308.5,222.5,319.1,236z"/>
			<g>
				<path d="M319.1,236c4,7.5,6.2,15.9,7.3,24.2c1,8.5,1,17,0.7,25.5c-0.3,8.5-0.7,17-0.7,25.5c0,8.5,0.7,17.1,2.7,25.3l0,0
					c1.6,3.8,2.2,7.9,2.4,12.1c0.2,4.1,0,8.2-0.2,12.3c-0.2,4.1-0.3,8.2,0,12.3c0.4,4.1,1.2,8.2,3.2,11.8l0,0
					c2.6,2.2,5.1,4.7,7.2,7.5s3.5,6.1,4.2,9.4c0.7,3.5,0.7,6.9,0.9,10.4s0.5,6.9,0.9,10.4l0,0c0.7,2.3,2,4.6,3.3,6.5
					c1.4,2.1,2.9,4,4.4,6c1.5,2,3,4,4.1,6.2c1.1,2.2,2,4.6,2.5,7c1.2,4.8,1.9,9.7,3.5,14.4c0.8,2.3,1.9,4.6,3.4,6.4
					c1.6,1.9,3.5,3.4,5.9,4.3c0.1,0,0.1,0.1,0.1,0.2c0,0,0,0.1-0.1,0.1c-5.6,3.6-11.1,7.3-16.9,10.5c-2.9,1.7-5.8,3.3-8.9,4.6
					c-1.5,0.7-3.1,1.3-4.7,1.7c-1.6,0.5-3.3,0.8-4.9,0.8c-3.4,0.2-6.6-0.7-9.9-1.6c-3.2-0.8-6.4-1.7-9.7-2.2
					c-6.5-1.1-13.2-1.3-19.9-1.1h0.1c-3.8,2-7.6,4-11.6,6c-3.9,1.9-7.8,3.8-12.2,4.5c-4.4,0.7-8.8-0.2-12.9-1.5
					c-4.1-1.3-8.1-3.1-12.1-4.8l0,0c-6.1-1.7-12.4-1.5-18.6-0.7c-6.2,0.7-12.4,2.1-18.6,3.3s-12.5,2-18.8,1.4
					c-3.2-0.3-6.2-0.9-9.2-2.1s-5.7-2.8-8.1-4.8c-0.1-0.1-0.1-0.2,0-0.3l0.1-0.1c1.7-0.5,3.4-1.2,4.8-2.3c1.4-1,2.5-2.5,3.4-4.1
					c1.6-3.2,2.1-6.8,2.2-10.4c0.2-3.5,0.2-7.2,0.4-10.8c0.2-3.5,0.7-7.3,2.3-10.5l0,0c3.2-3.4,6.3-6.6,9.2-10.2
					c0.7-0.8,1.4-1.8,2.1-2.7s1.3-1.9,1.9-2.8c0.4-0.5,0.6-1,0.8-1.5c0.3-0.6,0.6-1,0.7-1.6l0.6-1.6c0.2-0.6,0.3-1.1,0.4-1.7
					c0.4-2.2,0.4-4.6,0.2-6.8c-0.1-2.3-0.3-4.6-0.3-6.9c-0.1-4.6,0.1-9.1,0.5-13.7c0,0,0,0,0-0.1c2.1-4.8,4.6-9.3,6.3-14.2
					c1.9-4.8,3-10,2.8-15.2l0,0c2.9-39.2,5.8-78.3,7.1-117.7c0.1-2.4,0.2-4.9,0.4-7.4c0.2-1.2,0.2-2.4,0.5-3.6l0.4-1.8
					c0.2-0.6,0.4-1.2,0.5-1.8c0.7-2.3,1.8-4.7,3.4-6.4c1.7-1.8,4.1-2.9,6.5-3.2c2.4-0.4,4.9-0.1,7.4,0.3c2.4,0.4,4.8,0.9,7.2,1.6
					c4.8,1.2,9.5,2.6,14.3,3.6c2.4,0.5,4.8,0.9,7.3,1.1c0.7,0.1,1.2,0.1,1.9,0.1l1.9,0.1c1.2,0,2.4,0,3.6-0.2
					c2.4-0.2,4.8-0.7,7.2-1.5l6.9-2.7c2.3-0.9,4.7-1.7,7-2.2c2.4-0.6,4.8-0.8,7.3-0.5c2.4,0.4,4.8,1.4,6.7,2.8
					C315.9,232.3,317.5,234.2,319.1,236z M319.1,236c-1.6-1.9-3.2-3.7-5.2-5.1c-2-1.4-4.3-2.4-6.7-2.8c-2.4-0.4-4.9-0.1-7.3,0.5
					c-2.4,0.6-4.8,1.4-7,2.2l-6.9,2.7c-2.3,0.7-4.8,1.3-7.2,1.5c-1.2,0.2-2.4,0.1-3.6,0.2l-1.9-0.1c-0.7,0-1.2-0.1-1.9-0.1
					c-2.4-0.2-4.8-0.7-7.3-1.1c-4.8-1-9.5-2.3-14.3-3.5c-2.4-0.6-4.8-1.2-7.2-1.6c-2.4-0.4-4.8-0.6-7.3-0.2s-4.8,1.4-6.4,3.2
					c-1.7,1.8-2.7,4.1-3.4,6.4c-0.2,0.6-0.4,1.2-0.5,1.8l-0.4,1.8c-0.3,1.2-0.3,2.4-0.5,3.6c-0.2,2.4-0.3,4.9-0.4,7.4
					c-1.2,39.3-4.1,78.5-7,117.7l0,0c0.2,5.2-0.9,10.4-2.8,15.3c-1.9,4.8-4.2,9.5-6.3,14.3v-0.1c-0.4,4.6-0.7,9.1-0.5,13.7
					c0.1,2.3,0.2,4.6,0.3,6.9c0.1,2.2,0.2,4.6-0.2,6.9c-0.1,0.6-0.2,1.1-0.4,1.7l-0.6,1.7c-0.2,0.6-0.5,1-0.7,1.6
					c-0.3,0.6-0.5,1-0.8,1.5c-0.7,0.9-1.2,2-2,2.9c-0.7,0.9-1.4,1.9-2.1,2.7c-2.9,3.5-6.2,6.8-9.3,10.2l0,0
					c-1.7,3.2-2.1,6.8-2.3,10.4c-0.2,3.5-0.2,7.2-0.4,10.8c-0.2,3.5-0.7,7.3-2.3,10.5c-0.8,1.7-2,3.1-3.4,4.2
					c-1.5,1.1-3.2,1.9-4.8,2.4l0.1-0.4c2.4,2,5.1,3.6,8,4.8c2.9,1.1,6,1.8,9.1,2.1c6.2,0.6,12.5-0.4,18.7-1.4
					c6.2-1.1,12.3-2.5,18.6-3.3c6.2-0.7,12.7-0.9,18.8,0.7l0,0c3.9,1.8,7.9,3.5,12,4.8c4.1,1.3,8.4,2.1,12.7,1.5
					c4.3-0.7,8.2-2.5,12.1-4.4c3.9-2,7.7-4,11.6-6h0.1c6.6-0.2,13.3,0,19.9,1.1c3.3,0.6,6.5,1.3,9.7,2.2c3.2,0.8,6.4,1.8,9.7,1.6
					c1.7-0.1,3.3-0.4,4.8-0.8c1.6-0.5,3.2-1,4.7-1.7c3.1-1.3,6-2.9,8.9-4.6c5.8-3.3,11.4-6.9,16.9-10.5v0.3c-2.3-1-4.4-2.5-6-4.4
					c-1.6-2-2.7-4.2-3.5-6.5c-1.7-4.7-2.3-9.6-3.5-14.5c-0.6-2.4-1.4-4.8-2.5-6.9c-1.1-2.1-2.6-4.2-4.1-6.2c-1.5-2-3.1-3.9-4.4-6
					c-1.4-2.1-2.6-4.3-3.4-6.6l0,0c-0.5-3.5-0.7-6.9-0.9-10.4s-0.3-6.9-0.9-10.3s-2.1-6.6-4.1-9.4c-2.1-2.8-4.6-5.2-7.2-7.4l0,0
					c-2-3.6-2.8-7.8-3.2-11.9c-0.4-4.1-0.2-8.2,0-12.3c0.2-4.1,0.4-8.2,0.2-12.3c-0.2-4.1-0.8-8.2-2.4-12l0,0
					c-2.1-8.3-2.6-16.8-2.6-25.3c0-8.5,0.5-17,0.7-25.5c0.3-8.5,0.4-17-0.7-25.5C325.4,251.9,323.1,243.6,319.1,236z"/>
			</g>
		</g>
		<g>
			<path class="st4" d="M292.2,226.2c0.6,3,2.1,6.1,5.4,6.5c14.4,2.6,28.9,5.2,31.5,7.8c16.3,16.4,24.9,69.6,25.8,92.8
				c0.2,4.8-9.7,7.1-15.1,6.8c-9.7-18-11-39.6-18.9-52c8.8,57.1-9.1,200.6-11.6,217.6c-5,0.5-19.1,8.7-21.2,2.1
				c-8.6-40.5-8.7-78.1-6.9-119.4c0.2-4.7-1.5-7.7-6.2-7.5c-4,0.3-5.2,8.5-5.4,12.5c-1.6,42.4-1.6,86.4-9.5,115.7
				c-5.5,1.2-12.8,0.7-17.7,0.2c-15.2-72.3-22.2-147.9-12.7-221c-11.8,15.4-10.5,36.1-19.4,53.8c-5.9-1.8-8.1,0-13.5-3.2
				c-1.1-32.5,7.7-66.9,23-95.7c8.2-13.3,34.1-1.9,37.6-18.1C268.4,227.1,281.3,227.5,292.2,226.2z"/>
			<path d="M292.2,226.2c0.3,1.6,0.8,3.2,1.9,4.5c0.5,0.7,1.1,1.2,1.9,1.6c0.7,0.4,1.6,0.5,2.3,0.7l9.7,1.8c3.3,0.7,6.4,1.2,9.6,2
				c1.6,0.4,3.2,0.7,4.8,1.2s3.2,0.9,4.7,1.6c0.7,0.3,1.5,0.7,2.1,1.3c0.6,0.7,1.1,1.2,1.7,1.9c0.5,0.7,1,1.3,1.5,2s0.9,1.3,1.4,2.1
				c1.8,2.8,3.3,5.7,4.7,8.7c2.7,6,4.8,12.2,6.6,18.5c3.6,12.6,6.2,25.5,7.9,38.5c0.8,6.5,1.6,13.1,2,19.6l0.1,1.2
				c0,0.4,0.1,0.8,0,1.2c-0.1,0.8-0.6,1.6-1.1,2.1c-1.2,1.2-2.7,2-4.2,2.5c-3.1,1.1-6.4,1.6-9.7,1.5c0,0,0,0-0.1,0
				c-4.4-8.2-7.1-17.2-9.5-26c-1.2-4.5-2.4-9-3.8-13.3c-1.4-4.4-3.1-8.8-5.5-12.7l0.2-0.1l0.7,6.8l0.4,3.4c0.1,0.6,0.2,1.1,0.2,1.7
				l0.1,1.7l0.4,6.8c0.1,2.2,0.3,4.6,0.3,6.8c0.1,4.6,0.2,9.1,0.2,13.6l-0.1,13.6c-0.4,18.2-1.4,36.4-2.7,54.5
				c-1.3,18.2-3,36.3-4.8,54.4c-1.9,18.1-3.8,36.2-6.2,54.3c0,0.1-0.1,0.1-0.2,0.2l0,0c-1.9,0.2-3.6,0.9-5.5,1.6
				c-1.8,0.7-3.6,1.3-5.4,1.9c-1.9,0.6-3.7,1-5.7,1.1c-0.9,0-2,0-2.9-0.5c-0.9-0.4-1.6-1.3-1.9-2.2l0,0c-4.6-21.4-6.9-43.2-7.6-65
				c-0.4-10.9-0.4-21.8-0.1-32.7c0.1-5.5,0.3-10.9,0.5-16.4l0.2-4.1c0.1-1.4,0.1-2.7-0.1-4c-0.2-1.3-0.8-2.6-1.9-3.4
				c-0.6-0.4-1.1-0.7-1.8-0.8c-0.7-0.1-1.3-0.2-2-0.2c-1.3,0-2.3,0.9-3.1,2.1c-0.7,1.1-1.1,2.4-1.5,3.7c-0.7,2.6-0.9,5.3-0.9,8.1
				l-0.6,16.4c-0.4,10.9-0.7,21.8-1.2,32.7c-0.5,10.9-1.1,21.8-2.2,32.7c-1.1,10.9-2.7,21.7-5.5,32.3c0,0.1-0.1,0.1-0.2,0.1
				c-2.9,0.7-5.9,0.7-8.9,0.7s-6-0.3-8.9-0.7c-0.1,0-0.2-0.1-0.2-0.2c-7.6-36.3-13.1-73-15.6-110s-1.9-74.2,3-111l0.2,0.1
				c-2.9,3.8-5.1,8.1-6.8,12.6c-1.7,4.5-2.9,9.1-4,13.8s-2.1,9.3-3.4,14c-1.3,4.7-2.9,9.1-5,13.5c0,0-0.1,0.1-0.1,0
				c-1.1-0.4-2.2-0.6-3.4-0.7c-1.1-0.2-2.3-0.2-3.4-0.3c-1.1-0.1-2.3-0.3-3.4-0.7c-1.1-0.4-2.1-0.8-3.2-1.5c0,0,0,0,0-0.1
				c-0.2-6-0.1-12,0.4-18s1.1-11.9,2.2-17.8c1-5.9,2.2-11.7,3.8-17.5c1.6-5.8,3.4-11.6,5.4-17.2c1-2.8,2.1-5.6,3.3-8.4
				c1.2-2.7,2.3-5.5,3.6-8.2c1.2-2.7,2.6-5.4,4-8c0.7-1.3,1.7-2.5,2.8-3.4s2.4-1.8,3.8-2.3c2.8-1.2,5.8-1.7,8.8-2.1c3-0.4,6-0.6,9-1
				c3-0.4,6-1,8.6-2.5c1.3-0.7,2.4-1.8,3.3-3c0.8-1.2,1.4-2.7,1.7-4.1l0,0c5.7,0.9,11.5,1.4,17.3,1.6
				C280.6,227.1,286.4,226.9,292.2,226.2z M292.2,226.2c-5.8,0.7-11.6,0.8-17.3,0.7c-5.8-0.2-11.6-0.7-17.3-1.6l0,0
				c-0.4,1.5-0.8,2.9-1.7,4.1c-0.8,1.2-2,2.2-3.3,3.1c-2.6,1.5-5.6,2.1-8.6,2.5c-3,0.4-6,0.7-9,1c-3,0.4-6,0.9-8.7,2.1
				c-2.7,1.2-5.2,3.2-6.6,5.8c-1.4,2.7-2.8,5.3-4,8c-1.3,2.7-2.4,5.5-3.6,8.2c-1.1,2.8-2.2,5.6-3.3,8.4c-2.1,5.6-3.8,11.4-5.4,17.2
				c-1.6,5.8-2.8,11.7-3.8,17.5c-1,5.9-1.7,11.8-2.1,17.8s-0.6,11.9-0.4,18V339c1,0.6,2.1,1.1,3.2,1.4c1.1,0.4,2.2,0.6,3.4,0.7
				c1.1,0.1,2.3,0.2,3.4,0.3c1.1,0.2,2.3,0.4,3.4,0.7h-0.1c2.1-4.3,3.7-8.9,5-13.4c1.3-4.6,2.3-9.3,3.4-14c1.1-4.7,2.3-9.3,4-13.8
				c1.7-4.5,3.9-8.9,6.9-12.6c0,0,0.1-0.1,0.1,0v0.1c-4.8,36.7-5.3,73.9-2.9,111c2.5,37,8,73.7,15.7,109.9l-0.2-0.2
				c2.9,0.4,5.9,0.6,8.9,0.6s6-0.2,8.8-0.7l-0.2,0.1c2.7-10.5,4.4-21.4,5.5-32.3c1.1-10.8,1.8-21.7,2.2-32.6
				c0.5-10.9,0.8-21.8,1.1-32.7l0.6-16.4c0.1-2.7,0.3-5.5,0.9-8.2c0.4-1.3,0.7-2.7,1.5-3.8c0.4-0.6,0.8-1.2,1.4-1.6
				c0.3-0.3,0.7-0.4,0.9-0.6c0.4-0.1,0.7-0.2,1-0.2c0.7,0,1.4,0,2.1,0.2c0.7,0.2,1.4,0.5,2,0.9c1.1,0.9,1.8,2.2,2.1,3.6
				c0.3,1.4,0.2,2.8,0.1,4.1l-0.2,4.1c-0.2,5.5-0.4,10.9-0.6,16.4c-0.3,10.9-0.3,21.8,0.1,32.7c0.7,21.8,3,43.6,7.6,65l0,0
				c0.3,0.8,0.8,1.6,1.7,2.1c0.8,0.4,1.8,0.5,2.7,0.4c1.9-0.1,3.7-0.6,5.6-1.1c1.9-0.6,3.6-1.2,5.4-1.9c1.8-0.7,3.6-1.3,5.6-1.6
				l-0.2,0.2c2.4-18,4.5-36.1,6.3-54.3c1.9-18.1,3.5-36.3,4.8-54.4c1.3-18.2,2.3-36.4,2.7-54.5l0.2-13.6c0-4.6-0.2-9.1-0.2-13.6
				c0-2.2-0.2-4.6-0.3-6.8l-0.4-6.8l-0.1-1.7c0-0.6-0.1-1.1-0.2-1.7l-0.4-3.4l-0.7-6.8c0,0,0-0.1,0.1-0.1h0.1
				c2.4,3.9,4.1,8.3,5.6,12.7c1.4,4.4,2.6,8.9,3.8,13.3c2.4,8.9,5.1,17.8,9.5,26h-0.1c3.3,0.2,6.5-0.4,9.6-1.4
				c1.5-0.6,3.1-1.3,4.2-2.4c0.6-0.6,1-1.3,1.1-2.1c0.1-0.8,0-1.6,0-2.4c-0.4-6.5-1-13.1-2-19.6c-1.8-13-4.3-25.9-7.9-38.5
				c-1.9-6.2-3.9-12.5-6.6-18.5c-1.3-3-2.9-5.9-4.7-8.7c-0.5-0.7-0.9-1.3-1.4-2.1c-0.5-0.7-1-1.3-1.5-2c-0.6-0.7-1.1-1.2-1.7-1.9
				c-0.7-0.6-1.3-0.9-2.1-1.3c-1.5-0.7-3.1-1.1-4.7-1.6s-3.2-0.8-4.8-1.2c-3.2-0.7-6.4-1.4-9.6-2l-9.7-1.8c-0.8-0.2-1.6-0.3-2.3-0.7
				c-0.7-0.4-1.4-0.9-1.9-1.6C293,229.4,292.4,227.8,292.2,226.2z"/>
		</g>
		<g>
			<path d="M267.7,243.2c-1-1.2-2.3-2.1-3.8-2.4c-1.5-0.3-3.1-0.1-4.7,0.2c-1.6,0.2-3.2,0.5-4.8,0.3c-0.4-0.1-0.8-0.2-1.2-0.3
				c-0.4-0.2-0.7-0.3-1.1-0.5c-0.4-0.3-0.7-0.5-1-0.7c-0.3-0.3-0.6-0.7-0.8-0.9c1.2,1.1,2.7,1.7,4.2,1.7s3.1-0.3,4.7-0.5
				c1.6-0.2,3.3-0.5,4.9,0c0.8,0.3,1.6,0.7,2.2,1.2c0.3,0.3,0.7,0.6,0.8,0.9C267.4,242.5,267.5,242.8,267.7,243.2z"/>
		</g>
		<g>
			<path d="M281.8,243.2c0.2-0.4,0.5-0.7,0.7-1s0.6-0.6,0.8-0.9c0.7-0.6,1.4-0.9,2.2-1.2c1.7-0.5,3.4-0.3,4.9,0
				c1.6,0.3,3.2,0.6,4.7,0.5c1.5,0,3-0.6,4.2-1.7c-0.3,0.3-0.6,0.7-0.8,0.9c-0.3,0.3-0.7,0.5-1,0.7c-0.4,0.2-0.7,0.4-1.1,0.5
				c-0.4,0.1-0.8,0.2-1.2,0.3c-1.7,0.2-3.3-0.1-4.8-0.3c-1.6-0.3-3.2-0.5-4.7-0.2C284.2,241.1,282.8,242,281.8,243.2z"/>
		</g>
		<g>
			<path d="M209.2,279.8c1.1,2.8,1.9,5.8,2.1,8.8c0.3,3,0.2,6.1-0.4,9.1c-0.6,3-1.7,6-3.4,8.5c-0.5,0.7-0.9,1.2-1.4,1.8l-1.7,1.6
				l-1.9,1.3c-0.7,0.4-1.3,0.7-2.1,1c2.6-1.5,4.8-3.6,6.3-6.2c1.6-2.5,2.5-5.3,3.1-8.2s0.7-5.9,0.6-8.9l-0.2-2.2l-0.3-2.2
				c-0.1-0.7-0.3-1.5-0.4-2.2L209.2,279.8z"/>
		</g>
		<g>
			<path d="M309,233.1c1,1.7,1.8,3.4,2.4,5.3c0.7,1.9,1.2,3.7,1.9,5.5c1.2,3.7,2.4,7.4,4.6,10.5c2.1,3.2,5.3,5.5,8.7,7.3
				c1.7,0.9,3.5,1.7,5.4,2c0.9,0.2,1.9,0.2,2.9,0.1c0.9-0.1,1.9-0.6,2.7-1c-0.7,0.6-1.7,1-2.6,1.3c-0.9,0.2-2,0.3-3,0.1
				c-2-0.2-3.8-0.9-5.6-1.8c-1.8-0.8-3.4-2-5-3.2s-3-2.7-4.1-4.3c-2.2-3.4-3.5-7.1-4.5-10.8C311.6,240.4,310.6,236.7,309,233.1z"/>
		</g>
		<g>
			<path d="M239.9,233.1c-1.7,3.5-2.6,7.3-3.6,11.1c-1,3.7-2.3,7.6-4.5,10.8c-1.1,1.6-2.5,3.1-4.1,4.3c-1.6,1.2-3.3,2.3-5,3.2
				c-1.8,0.8-3.6,1.5-5.6,1.8c-1,0.1-2,0.1-3-0.1c-0.9-0.2-1.9-0.7-2.6-1.3c0.8,0.6,1.7,0.9,2.7,1c0.9,0.1,1.9,0.1,2.9-0.1
				c1.9-0.3,3.7-1,5.4-2c3.4-1.8,6.5-4.2,8.7-7.3c2.1-3.2,3.4-6.8,4.6-10.5c0.6-1.9,1.2-3.7,1.9-5.5
				C238.1,236.6,238.8,234.8,239.9,233.1z"/>
		</g>
		<g>
			<path d="M344.3,280.7c-1,2.1-1.7,4.3-1.9,6.5c-0.2,2.2,0,4.5,0.6,6.7c0.6,2.2,1.4,4.3,2.3,6.3l0.7,1.5l0.8,1.5l0.8,1.5
				c0.3,0.5,0.7,0.9,0.9,1.5c-1.6-1.7-2.9-3.6-4.1-5.6c-1.1-2.1-2.1-4.2-2.6-6.5c-0.6-2.2-0.7-4.7-0.4-7c0.1-0.6,0.2-1.1,0.4-1.7
				c0.2-0.6,0.4-1.1,0.6-1.7c0.3-0.6,0.5-1,0.7-1.6C343.6,281.6,343.9,281.1,344.3,280.7z"/>
		</g>
		<g>
			<path d="M272.3,277.4c-0.4,0.9-0.4,2-0.5,3c-0.1,1-0.1,2.1-0.2,3c-0.1,1-0.3,2.1-0.7,3c-0.4,0.9-1.2,1.9-2.3,2.2l0,0l0,0
				c-2.2,0.4-4.6,0.7-6.8,0.8c-2.2,0.2-4.6,0.3-6.9,0.1c-2.3-0.1-4.6-0.4-6.8-0.7c-2.2-0.5-4.5-1-6.6-1.9l0,0
				c-0.1,0-0.1-0.1-0.2-0.1c-0.5-1.1-0.6-2.3-0.7-3.5c-0.1-1.1-0.1-2.3-0.3-3.5c0.3,1.1,0.4,2.2,0.6,3.4c0.2,1.1,0.4,2.2,0.8,3.3
				l-0.2-0.2c2.1,0.7,4.4,1.2,6.6,1.6c2.2,0.4,4.5,0.6,6.7,0.7c2.2,0.1,4.5,0.1,6.8-0.1c2.2-0.1,4.5-0.4,6.7-0.7h-0.1
				c0.8-0.3,1.6-0.9,2-1.8s0.6-1.9,0.7-2.8c0.2-1,0.3-2,0.4-3C271.6,279.4,271.8,278.4,272.3,277.4z"/>
		</g>
		<g>
			<path d="M313.5,276.4c-0.3,0.9-0.4,2-0.4,3c0,1,0,2.1-0.1,3.1c-0.1,1-0.2,2.1-0.7,3.1c-0.2,0.5-0.6,0.9-1,1.3
				c-0.2,0.2-0.5,0.3-0.7,0.5l-0.7,0.3l0,0l0,0c-3.3,0.5-6.6,1-10,1.5s-6.7,0.7-10.1,0.5c-1.7-0.1-3.4-0.3-5-0.7
				c-1.7-0.5-3.3-1.1-4.7-2.1c-1.4-1-2.5-2.4-3.1-4c-0.7-1.6-0.9-3.3-0.9-4.9c0.2,1.7,0.6,3.4,1.2,4.8c0.7,1.5,1.8,2.8,3.2,3.7
				c1.3,0.9,2.9,1.5,4.5,1.9c1.6,0.4,3.3,0.6,4.8,0.7c3.4,0.1,6.6-0.2,10-0.6c3.4-0.4,6.6-0.9,10-1.3l0,0c0.9-0.2,1.7-0.7,2.1-1.6
				c0.5-0.8,0.7-1.9,0.7-2.8c0.1-1,0.2-2.1,0.3-3C313,278.4,313.1,277.3,313.5,276.4z"/>
		</g>
		<g>
			<path d="M298.4,298.9c-3.5,1.3-7.3,2.1-11,2.8c-3.7,0.7-7.6,0.8-11.4,0.9c-3.8,0-7.6-0.3-11.4-0.9l-2.8-0.6l-2.8-0.7l-2.7-0.7
				c-0.9-0.3-1.8-0.6-2.7-0.8c0.9,0.2,1.9,0.5,2.8,0.7l2.8,0.6l2.8,0.5l2.8,0.4c3.7,0.5,7.5,0.7,11.3,0.7c3.7,0,7.6-0.2,11.3-0.7
				C291,300.4,294.8,299.7,298.4,298.9z"/>
		</g>
		<g>
			<path d="M301,312.4c-0.9,0.6-2,1.1-2.9,1.7c-1,0.5-2.1,0.9-3.1,1.3c-1,0.4-2.1,0.7-3.2,1c-1.1,0.3-2.1,0.6-3.3,0.7
				c-4.5,0.8-9,1-13.4,0.8c-4.5-0.3-9-0.8-13.3-1.7c-2.2-0.5-4.4-0.9-6.5-1.5c-2.1-0.6-4.3-1.2-6.4-1.9l3.3,0.7l3.3,0.7
				c2.1,0.5,4.4,0.8,6.6,1.2c4.4,0.7,8.9,1.3,13.2,1.5c4.5,0.3,8.9,0.1,13.3-0.7C292.7,315.8,297,314.5,301,312.4z"/>
		</g>
		<g>
			<path d="M304.1,325.3c-4.2,2.2-8.7,3.8-13.3,5c-4.7,1.1-9.4,1.8-14.2,1.9c-4.8,0.1-9.5-0.3-14.2-1.3L259,330l-3.4-0.9l-3.4-1.2
				l-3.3-1.4l3.4,1.2l3.4,1l3.5,0.8l3.5,0.7c4.7,0.8,9.3,1.2,14.1,1c4.7-0.1,9.4-0.7,14-1.7C295.2,328.5,299.8,327.1,304.1,325.3z"
				/>
		</g>
		<g>
			<path d="M301.1,338.4c-3.8,1.8-7.9,3.1-12,4c-4.1,0.9-8.4,1.6-12.6,1.9c-4.2,0.2-8.5,0.2-12.7-0.5c-4.2-0.7-8.4-1.9-11.8-4.4
				l1.4,0.7c0.5,0.3,0.9,0.6,1.4,0.7l1.5,0.6c0.3,0.1,0.5,0.2,0.7,0.3l0.7,0.2c1,0.3,2.1,0.6,3.1,0.7c1,0.2,2.1,0.4,3.1,0.5
				c4.2,0.5,8.4,0.6,12.6,0.3c4.2-0.2,8.4-0.8,12.5-1.6c2.1-0.4,4.1-0.8,6.2-1.4c1-0.2,2.1-0.6,3.1-0.8
				C299.1,339.1,300.1,338.7,301.1,338.4z"/>
		</g>
		<g>
			<path d="M276.2,293.5c-0.4,4.7-0.7,9.3-1,13.9c-0.3,4.7-0.6,9.3-0.7,13.9c-0.2,4.7-0.3,9.3-0.4,13.9c0,2.3-0.1,4.7-0.1,7v7
				c-0.2-2.3-0.3-4.7-0.5-7c-0.1-2.3-0.2-4.7-0.2-7c-0.1-4.7,0-9.3,0.2-14c0.2-4.7,0.5-9.3,0.9-14
				C275,302.7,275.5,298.1,276.2,293.5z"/>
		</g>
		<g>
			<path d="M309.8,352.9c-1.4,1.8-3.1,3.3-4.8,4.7c-1.8,1.3-3.7,2.6-5.8,3.5c1.7-1.5,3.5-2.8,5.2-4.2
				C306.1,355.4,307.9,354.1,309.8,352.9z"/>
		</g>
		<g>
			<path d="M247.4,359.8c-1.2-1.2-2.4-2.4-3.6-3.6c-1.2-1.2-2.4-2.2-3.7-3.5c1.7,0.6,3.1,1.6,4.4,2.8
				C245.7,356.8,246.8,358.2,247.4,359.8z"/>
		</g>
		<g>
			<path class="st5" d="M337.8,336.2c2.2,4.7,1.9,8.3,1.1,13.1c-0.5,3.2-0.6,6.4-0.2,9.6c0.7,6.5,1.3,19.6,5.5,14
				c0.7-3,1-9.2,1.6-5.3c1.6,3.7-3.1,10.4-1.4,12.4c6.4,6.2,11.7,1.6,11.7-6.1c1.3-13.8,2.6-29-1.3-42.2
				C350.1,334.2,343.4,337.6,337.8,336.2z"/>
			<path class="st5" d="M337.8,336.2c0.7,1.6,1.3,3.3,1.6,4.9c0.3,1.7,0.2,3.5,0,5.2c-0.2,1.8-0.6,3.5-0.7,5.1
				c-0.2,1.7-0.2,3.5-0.1,5.2c0.1,1.8,0.3,3.5,0.5,5.2c0.2,1.7,0.4,3.5,0.6,5.1c0.3,1.7,0.6,3.5,1.1,5c0.2,0.4,0.3,0.8,0.6,1.1
				c0.2,0.4,0.6,0.7,0.9,0.8c0.4,0.1,0.8-0.1,1.1-0.4c0.4-0.3,0.7-0.6,0.8-0.9l0,0c0.3-1.3,0.5-2.6,0.7-4c0.1-0.7,0.2-1.3,0.3-2
				c0-0.2,0.1-0.4,0.2-0.5c0,0,0-0.1,0.1-0.1h0.1l0.1,0.1c0.1,0.1,0.1,0.2,0.1,0.3c0.1,0.4,0.1,0.7,0.2,1l0,0c0.5,1,0.4,2.1,0.3,3.2
				c-0.2,1-0.5,2.1-0.7,3.1c-0.3,1-0.7,2.1-0.9,3.1c-0.1,0.5-0.3,1-0.3,1.6c0,0.6,0,1,0.4,1.4l0,0c1.1,1,2.3,2.1,3.8,2.5
				c1.4,0.6,3.1,0.5,4.4-0.4c1.3-0.8,2.1-2.2,2.6-3.6c0.5-1.5,0.7-3,0.7-4.6l0,0l0,0c0.7-7.1,1.3-14.1,1.3-21.2s-0.6-14.2-2.5-21
				l0,0c-2.6,1.5-5.2,2.9-8.1,3.9C343.8,336.3,340.7,336.8,337.8,336.2z M337.8,336.2c3,0.7,6.1,0.2,8.9-0.8
				c2.8-0.9,5.5-2.4,8.1-3.9l0,0l0,0c2,6.8,2.6,14,2.6,21.1c0,7.1-0.7,14.2-1.3,21.3l0,0c0,1.6-0.2,3.2-0.7,4.6
				c-0.5,1.5-1.4,2.9-2.7,3.7c-0.7,0.5-1.4,0.7-2.2,0.7c-0.8,0.1-1.6-0.1-2.3-0.4c-1.5-0.6-2.8-1.5-3.9-2.6l0,0l0,0
				c-0.4-0.5-0.4-1-0.4-1.6c0-0.6,0.2-1,0.3-1.6c0.3-1,0.7-2.1,0.9-3.1c0.3-1,0.7-2.1,0.7-3.1c0.2-1,0.2-2.1-0.2-3.1l0,0l0,0
				c-0.1-0.6-0.3-1.9-0.5-0.7c-0.1,0.7-0.2,1.3-0.3,2c-0.2,1.3-0.4,2.7-0.7,4l0,0l0,0c-0.3,0.4-0.6,0.7-0.9,0.9
				c-0.4,0.3-0.7,0.5-1.2,0.4c-0.5-0.1-0.7-0.5-1-0.8c-0.2-0.4-0.4-0.7-0.6-1.2c-0.6-1.7-0.8-3.4-1.1-5.1c-0.3-1.7-0.4-3.5-0.6-5.1
				c-0.1-1.8-0.4-3.5-0.5-5.2c-0.1-1.8-0.1-3.5,0.1-5.2s0.6-3.5,0.7-5.1c0.2-1.7,0.3-3.5,0-5.2C339.1,339.3,338.5,337.7,337.8,336.2
				z"/>
		</g>
		<g>
			<path class="st5" d="M213.5,335.1c-3.2,6.6-0.7,11.6-0.4,18.5c0.5,11.9-0.7,24.7-5.9,17.6c-0.7-3-1.7-8.5-2.2-4.6
				c-1.6,3.7,5.8,8,3.3,12.2c-4.5,7.7-13.6,1.8-13.5-6c-1.3-13.8-1.6-29.1,2.3-42.2C201.7,333.5,207.8,336.5,213.5,335.1z"/>
			<path class="st5" d="M213.5,335.1c-0.7,1.6-1.3,3.4-1.5,5.1c-0.2,1.8-0.1,3.5,0.2,5.3c0.3,1.8,0.6,3.5,0.7,5.3s0.3,3.5,0.3,5.3
				c0.1,3.5,0,7.2-0.4,10.7c-0.3,1.8-0.6,3.5-1.4,5.2c-0.2,0.4-0.6,0.7-0.9,0.9c-0.5,0.2-0.9,0.2-1.3,0c-0.8-0.4-1.4-1.1-2-1.9l0,0
				l0,0l-0.8-3.8c-0.2-0.7-0.3-1.3-0.6-1.9c-0.1-0.1-0.2-0.3-0.2-0.3c-0.1,0.1-0.2,0.2-0.2,0.4c-0.1,0.3-0.1,0.7-0.2,0.9l0,0l0,0
				c-0.3,0.7-0.3,1.4-0.1,2.1c0.2,0.7,0.5,1.3,0.8,2c0.7,1.2,1.6,2.3,2.2,3.6c0.7,1.2,1.1,2.8,0.6,4.2c-0.6,1.3-1.5,2.4-2.7,3.3
				s-2.7,1.1-4.1,0.8c-1.4-0.3-2.7-1-3.8-2c-2.1-2-3.4-4.8-3.4-7.6l0,0c-0.7-7.1-1-14.2-0.7-21.3c0.3-7.1,1.1-14.2,3.2-21l0,0l0,0
				c2.5,1.5,5,2.9,7.8,3.8C207.6,335.4,210.6,335.8,213.5,335.1z M213.5,335.1c-2.8,0.7-5.9,0.3-8.6-0.7c-2.8-0.9-5.3-2.3-7.8-3.7
				l0,0c-2,6.8-2.8,13.9-3.1,21c-0.3,7.1,0.2,14.2,0.8,21.3l0,0l0,0c0,2.8,1.2,5.6,3.3,7.5c1,0.9,2.3,1.7,3.6,1.9
				c1.4,0.3,2.8,0,4-0.7c1.1-0.7,2.1-2,2.6-3.2c0.6-1.3,0.1-2.8-0.6-4s-1.5-2.4-2.2-3.6c-0.4-0.7-0.7-1.3-0.8-2
				c-0.2-0.7-0.2-1.5,0.1-2.1l0,0c0.1-0.3,0.1-0.7,0.2-0.9c0.1-0.2,0.1-0.3,0.3-0.5c0.1-0.1,0.3,0,0.3,0.1c0.1,0.1,0.1,0.2,0.2,0.2
				c0.3,0.6,0.5,1.2,0.6,1.9l0.8,3.8l0,0c0.6,0.7,1.1,1.4,1.9,1.8c0.4,0.2,0.8,0.3,1.2,0c0.4-0.2,0.7-0.6,0.9-0.9
				c0.8-1.6,1.1-3.4,1.4-5.1c0.5-3.5,0.5-7.2,0.5-10.7c0-1.8-0.1-3.5-0.3-5.3c-0.2-1.8-0.6-3.5-0.7-5.3c-0.3-1.8-0.4-3.5-0.2-5.3
				C212.2,338.5,212.6,336.7,213.5,335.1z"/>
		</g>
		<g>
			<path class="st6" d="M239.4,492.3c0.7,16.5,9.9,36.3-4.8,49.3c-4.8,9.5,20.1,12.4,21.4,3.2c0.3-8.6,5.3-3.7,6.2-9.5
				c-4.4-13.7-2.7-28.1,1.1-41.9c0.7-2-0.9-2.8-2.6-2.1C253.7,492.8,246.4,493.1,239.4,492.3z"/>
			<path d="M239.4,492.3c0.5,8.7,3,17.1,3.6,25.7c0.3,4.3,0.2,8.8-1.1,13c-0.7,2.1-1.6,4.1-2.7,6c-1.2,1.9-2.7,3.5-4.3,4.9l0.1-0.1
				c-0.6,1-0.7,2.2-0.4,3.3c0.4,1,1.2,2,2.1,2.6c2,1.3,4.5,2,6.9,2.1c2.4,0.3,4.9,0.1,7.2-0.7c1.1-0.4,2.2-0.9,3.1-1.7
				c0.8-0.7,1.5-1.8,1.7-2.9v0.1l0.1-1.6c0.1-0.6,0.1-1,0.4-1.6c0.3-1,0.9-2.1,1.9-2.7c1-0.6,2.1-0.7,2.7-1.3
				c0.7-0.6,0.9-1.5,1.1-2.4v0.2c-2.1-6.8-2.9-14-2.5-21.1c0.4-7.1,1.9-14.1,3.8-20.9l0,0l0,0c0.3-0.7,0.3-1.4-0.3-1.8
				c-0.6-0.4-1.3-0.3-2,0.1l0,0l0,0C253.7,492.9,246.4,493.2,239.4,492.3z M239.4,492.3c7.1,0.7,14.3,0.3,21.3-1.1h-0.1
				c0.4-0.2,0.7-0.3,1.2-0.4c0.4,0,0.8,0,1.3,0.3c0.4,0.3,0.7,0.7,0.7,1.1c0.1,0.5,0,0.8-0.2,1.3l0,0c-1.9,6.8-3.2,13.8-3.5,20.8
				c-0.4,7,0.4,14.1,2.5,20.8v0.1v0.1c-0.2,1-0.5,2.2-1.4,3s-2.1,0.9-2.8,1.4c-0.7,0.5-1.2,1.2-1.5,2.1c-0.2,0.5-0.2,0.9-0.3,1.4
				l-0.1,1.5l0,0l0,0c-0.2,1.4-0.9,2.6-2,3.5c-1,0.8-2.2,1.4-3.4,1.9c-2.4,0.7-5,0.9-7.6,0.7c-2.5-0.3-5-0.9-7.3-2.3
				c-1.1-0.7-2.1-1.7-2.5-3.1c-0.5-1.3-0.2-2.8,0.4-3.9v-0.1l0.1-0.1c3.2-2.8,5.7-6.4,6.9-10.5c1.3-4.1,1.5-8.5,1.2-12.8
				c-0.3-4.3-0.9-8.6-1.6-12.9C240.1,500.9,239.5,496.6,239.4,492.3z"/>
		</g>
		<g>
			<path class="st6" d="M310.6,492.3c-0.1,14.8-9.5,32.5,1.6,45.5c10.7,8.6-2.4,13-10.5,12.8c-11.7-0.7-5.7-11-12.7-12
				c-2.9-1.2-2.1-4.8-1.2-7.2c4.1-12.4,1-25.6-2.1-37.9c-0.7-2.1,1-2.8,2.7-2.1C295.8,492.8,303.3,493.1,310.6,492.3z"/>
			<path d="M310.6,492.3c0,3.9-0.6,7.8-1.2,11.7c-0.7,3.8-1.4,7.7-1.9,11.6c-0.5,3.9-0.7,7.8,0.1,11.7c0.7,3.8,2.4,7.4,4.9,10.3
				l-0.1-0.1c0.7,0.6,1.4,1.2,2.1,1.9s1.2,1.5,1.7,2.3c0.4,0.8,0.7,2,0.4,2.9c-0.2,1-0.8,1.9-1.6,2.5c-1.4,1.3-3.2,2.1-4.9,2.6
				c-1.8,0.6-3.6,0.9-5.5,1.1c-0.9,0.1-1.9,0.1-2.8,0.1c-0.9-0.1-1.9-0.2-2.8-0.4c-0.9-0.2-1.9-0.6-2.7-1.1
				c-0.8-0.6-1.5-1.2-2.1-2.1c-1-1.7-1.3-3.5-1.9-5.2c-0.3-0.8-0.7-1.6-1.2-2.2c-0.6-0.6-1.4-0.8-2.2-1h-0.1l0,0
				c-0.5-0.2-1-0.5-1.3-0.9c-0.4-0.5-0.7-0.9-0.7-1.5c-0.3-1-0.2-2.1,0-3.1c0.1-0.5,0.3-0.9,0.4-1.5c0.2-0.5,0.4-0.9,0.5-1.4
				c0.3-0.9,0.6-1.9,0.7-2.8c0.8-3.7,1.2-7.6,1-11.5c-0.2-3.8-0.7-7.7-1.3-11.5c-0.7-3.8-1.6-7.6-2.5-11.4l0,0
				c-0.1-0.4-0.3-0.8-0.2-1.3c0.1-0.5,0.4-0.9,0.7-1.1c0.8-0.5,1.8-0.3,2.5,0.1h-0.1C295.8,492.6,303.3,493,310.6,492.3z
				 M310.6,492.3c-7.4,0.8-14.8,0.7-22.1-0.7l0,0l0,0c-0.7-0.3-1.5-0.4-2.1-0.1c-0.3,0.2-0.5,0.5-0.5,0.7c0,0.3,0,0.7,0.2,1l0,0l0,0
				c2,7.6,3.8,15.1,4.1,22.9c0.2,3.9-0.1,7.8-1,11.7c-0.2,0.9-0.5,1.9-0.7,2.9c-0.1,0.5-0.3,0.9-0.5,1.4c-0.2,0.5-0.3,0.9-0.4,1.4
				c-0.2,0.9-0.3,1.9,0,2.7c0.2,0.8,0.8,1.5,1.6,1.8h-0.1c0.9,0.1,2,0.6,2.7,1.2c0.7,0.7,1.1,1.7,1.5,2.5c0.6,1.8,0.8,3.6,1.8,5
				c0.9,1.5,2.4,2.4,4.2,2.8c0.8,0.2,1.8,0.3,2.6,0.4c0.8,0,1.8,0,2.7-0.1c1.8-0.2,3.5-0.5,5.3-1c1.7-0.6,3.4-1.3,4.7-2.4
				c0.7-0.6,1.1-1.3,1.3-2.1c0.2-0.8,0-1.7-0.4-2.4c-0.7-1.6-2.1-2.8-3.5-3.9l0,0l0,0c-2.6-3.1-4.3-6.8-4.9-10.7
				c-0.7-3.9-0.5-7.9,0.1-11.8c0.6-3.9,1.4-7.7,2.1-11.6C309.9,500.1,310.5,496.3,310.6,492.3z"/>
		</g>
		<g>
			<path d="M252.2,438.4c-2.2,0.1-4.5-0.5-6.4-1.6c-2-1.1-3.7-2.7-4.8-4.7c1.7,1.5,3.4,2.8,5.2,3.8C248,437.1,250,437.8,252.2,438.4
				z"/>
		</g>
		<g>
			<path d="M294.4,440c2.1-0.7,4.1-1.4,6.1-2.4c1.9-1,3.6-2.3,5.2-3.8c-1.1,2-2.8,3.5-4.8,4.7C298.9,439.5,296.6,440.1,294.4,440z"
				/>
		</g>
	</g>
</g>
</svg>
