<?xml version="1.0" encoding="utf-8"?>
<svg version="1.1" xmlns="http://www.w3.org/2000/svg" xmlns:xlink="http://www.w3.org/1999/xlink" x="0px" y="0px"
	 viewBox="0 0 23 23" style="enable-background:new 0 0 100 100;" xml:space="preserve">
     <g fill="#1B1B1A">
      <path d="M18.268 13.855c.44.45.851.94 1.385 1.271l-.121-.486a.325.325 0 0 1-.014-.14c.019-.093.112-.15.2-.186s.186-.065.242-.142c.009-.012.016-.026.015-.041 0-.018-.014-.033-.028-.045-.124-.114-.29-.166-.437-.248-.113-.063-.214-.144-.316-.222a5.933 5.933 0 0 0-1.92-.96c-.17-.048-.436-.005-.235.195.092.091.205.121.315.182.342.19.643.545.915.822z" />
      <path d="M21.226 16.092c.208.182.408.373.608.565l.282.271c-.01-.029.025-.052.046-.074.04-.041.037-.11.011-.16s-.07-.09-.112-.129c-.235-.22-.41-.496-.601-.755a6.508 6.508 0 0 0-1.824-1.671c-.2-.122-.339.02-.356.23-.015.172.126.27.244.371.354.303.73.579 1.1.864.204.158.407.319.602.488z" />
      <path d="M22.457 17.29c.056.104.084.22.138.325.073-.076.04-.207.093-.298.06-.104.208-.12.29-.207-.273-.097-.547-.195-.79-.35-.038-.025-.163-.114-.212-.072-.052.044.055.132.084.162.139.14.302.263.397.44z" />
    </g>
    <g fill="#1B1B1A">
      <path d="M17.666 10.484a4.11 4.11 0 0 1 .673-.392c.062-.026.128-.05.195-.045s.136.045.155.11c.016.052-.004.109 0 .164.008.158.2.27.188.428-.01.13-.15.205-.271.255l-1.48.61c-.125.052-.265.103-.39.053a.265.265 0 0 1-.159-.202c-.034-.23.237-.377.389-.492.227-.171.464-.33.7-.489z" />
      <path d="M20.426 11.7l.808.395c.082.04.165.08.236.137.145.113.234.281.319.444a.572.572 0 0 0-.017-.409c-.009-.021-.02-.044-.014-.066.008-.033.044-.048.075-.062a.37.37 0 0 0 .185-.202 3.278 3.278 0 0 1-.518-.02c-.299-.042-.58-.166-.845-.309a3.903 3.903 0 0 1-.683-.45c-.149-.127-.284-.268-.431-.396a3.385 3.385 0 0 0-.619-.429c-.083-.045-.171-.087-.266-.093s-.198.033-.243.116c-.154.28.212.448.396.544.335.174.674.34 1.014.506l.603.295z" />
    </g>
    <g fill="#1B1B1A">
      <path d="M10.549 17.391c-.005.155-.003.326.1.44.103.114.27.136.422.15.06.005.13.008.172-.036.034-.036.037-.09.037-.14 0-.255-.043-.508-.084-.76l-.271-1.63c-.03-.18-.183-.271-.248-.067-.062.197-.042.462-.057.668-.034.458-.058.916-.071 1.375z" />
      <path d="M11.078 19.045c.018.116.038.246.132.319l.43-.094a.133.133 0 0 0 .053-.02c.047-.037.026-.112 0-.166-.175-.37-.344-.79-.585-1.122-.063-.086-.215-.194-.262-.042-.04.126.04.306.076.425.068.23.12.463.156.7z" />
      <path d="M11.805 22.27l.14-.074a9.922 9.922 0 0 1-.182-1.172c-.045-.59.014-1.198-.161-1.763a.16.16 0 0 0-.041-.077.131.131 0 0 0-.062-.027c-.068-.013-.195-.004-.243.056-.052.065-.002.166.015.24a46.524 46.524 0 0 1 .534 2.818z" />
      <path d="M11.639 22.4c.056-.017.092-.07.136-.108.106-.09.257-.093.395-.093-.056-.071-.276-.288-.383-.247-.114.043-.086.43-.148.449z" />
    </g>
    <g fill="#1B1B1A">
      <path d="M10.271 14.014a.234.234 0 0 0-.11.076c-.03.043-.028.1-.023.152.008.073.02.146.038.217.016.066.041.137.099.172.036.022.08.027.123.03.105.01.215.02.309-.027.145-.072.2-.257.18-.417-.046-.378-.363-.31-.616-.203z" />
      <path d="M9.937 14.297c-.156.035-.312.07-.46.127-.156.06-.301.143-.436.24-.165.12-.32.274-.378.47-.008.028-.013.061.007.082.012.013.03.017.048.02.13.017.288-.036.377.06.022.023.037.054.06.077.05.047.133.045.194.014s.108-.085.154-.136c.215-.237.46-.446.727-.62.071-.047.148-.097.175-.177.105-.322-.338-.187-.468-.157z" />
      <path d="M8.31 17.269l-.03.333c.069-.031.145-.063.219-.044.133.036.178.217.305.27.023.01.054.013.07-.006.008-.01.01-.023.012-.036.033-.245.053-.492.057-.74.002-.106.002-.213.022-.317.016-.087.046-.17.07-.256.103-.378.068-.778.033-1.168-.012-.136-.14-.325-.265-.154-.088.12-.144.319-.195.458-.121.337-.187.69-.233 1.044-.026.204-.046.41-.065.616z" />
      <path d="M8.127 18.834c-.062.236-.14.495-.348.62-.032.02-.093.014-.083-.021.139.102.368.036.43-.125a.316.316 0 0 0 .257.192.98.98 0 0 1-.142-.355.75.75 0 0 1 .006-.188c.068-.51.374-.966.441-1.477a.134.134 0 0 0-.003-.066c-.018-.048-.086-.06-.13-.036-.091.05-.097.175-.12.263l-.104.402-.204.791z" />
    </g>
    <path
      fill="#1B1B1A"
      d="M18.277 14.192c.074.05.032.19-.061.203l.098.27c.01.026.019.056.007.083-.009.022-.03.038-.045.057-.048.064-.016.147.003.22s.004.176-.075.194c-.012.003-.025.003-.035.011-.013.011-.011.03-.008.047l.021.117c.008.041.014.088-.011.124-.026.035-.097.039-.104-.003.02.11.03.223.03.336 0 .026-.002.054-.018.076s-.089.089-.107.07a.524.524 0 0 0-.134.28c-.007.05-.009.108-.048.145-.037.034-.095.038-.133.072-.047.042-.068.132-.13.123-.037-.005-.08-.044-.101-.014.007.04.014.082-.004.12s-.074.063-.106.038l-.037.202c-.004.019-.008.04-.024.052-.018.013-.042.011-.064.015-.04.008-.114.013-.12.052a2.41 2.41 0 0 0-.456.49c-.026.038-.058.08-.104.084-.046.005-.084-.032-.13-.03-.033.002-.061.024-.088.043a1.73 1.73 0 0 1-.59.284c-.043.012-.087.022-.127.042-.026.014-.05.032-.076.048a.645.645 0 0 1-.158.07c-.123.035-.25.047-.376.057l-.5.04c-.104.007-.216.013-.301-.039a.14.14 0 0 1-.117.093c-.016.002-.038-.004-.037-.02.001-.015-.03-.019-.045-.012l-.862-.262c-.077-.024-.155-.047-.23-.074a2.847 2.847 0 0 1-.952-.556l-.021.129a5.463 5.463 0 0 1-1.17-1.276c.016.047.007.1-.022.143a4.174 4.174 0 0 1-.923-2.745c.01-.316.183-.604.346-.889.217-.378.538-.697.874-.989.618-.536 1.31-1.002 2.068-1.321.758-.32 1.586-.489 2.391-.43.18-.092.413-.035.592.039s.324.2.462.329c.48.445.91.939 1.28 1.472a.172.172 0 0 1-.154-.002c.2.296.422.765.492 1.117.092.467.038.81.14 1.275z"
    />
    <path
      fill="#1B1B1A"
      d="M12.404 17.825c.35.181.738.28 1.126.353a3.6 3.6 0 0 0 .858.081c.193-.01.384-.045.574-.08l.58-.109c.266-.05.544-.103.761-.266.135-.1.284-.249.44-.19.154-.237.397-.399.609-.587.212-.187.407-.432.408-.715.01.072.125.07.17.013.043-.058.043-.136.061-.206.019-.07.08-.143.15-.125-.07-.196.024-.407.092-.603.114-.324.16-.671.137-1.014a1.942 1.942 0 0 0-.235-.827c-.035-.06-.082-.124-.151-.135-.061-.009-.119.027-.167.066-.176.14-.302.333-.446.507-.754.916-1.963 1.296-3.101 1.631-1.057.312-2.126.625-3.226.683.221-.011.48.708.561.86.157.296.508.513.799.663z"
    />
    <g fill="#F4FAFD">
      <path
        opacity="0.8"
        d="M20.945 5.773c-.041.164.034.336.132.474.098.139.222.26.299.411.172.337.079.751-.088 1.091-.15.304-.356.58-.604.81-.29.267-.635.47-.993.637a6.168 6.168 0 0 1-4.414.282c-.379-.12-.637-.458-.819-.811a.673.673 0 0 1-.092-.336c.01-.2.163-.362.31-.498 1.22-1.13 2.714-1.95 4.305-2.43.327-.099.67-.184 1.007-.129.352.058.662.3.957.499z"
      />
      <path
        opacity="0.8"
        d="M18 1.48c.445-.376.938-.73 1.509-.846s1.237.06 1.546.554c.225.359.227.812.179 1.232s-.14.845-.077 1.264c.049.332.194.648.206.983.024.666-.47 1.23-.97 1.67a11.427 11.427 0 0 1-3.637 2.16c-.534.194-1.098.35-1.665.301-.23-.02-.466-.077-.64-.23-.408-.358-.372-.971-.224-1.435a12.415 12.415 0 0 1 2.455-4.353c.405-.467.846-.902 1.318-1.3z"
      />
    </g>
    <g fill="#F4FAFD">
      <path
        opacity="0.8"
        d="M3.705 14.554c.154.072.24.24.285.402.045.164.061.336.13.492.152.346.532.536.901.62.33.076.674.09 1.01.043.39-.056.765-.194 1.12-.367a6.168 6.168 0 0 0 3.007-3.244c.146-.37.048-.783-.111-1.147a.673.673 0 0 0-.202-.283c-.163-.12-.384-.102-.583-.074-1.646.231-3.225.872-4.603 1.802-.283.192-.566.404-.736.7-.177.309-.186.702-.218 1.056z"
      />
      <path
        opacity="0.8"
        d="M2.238 9.56c-.573.107-1.158.266-1.61.635s-.734.997-.546 1.549c.136.4.486.689.842.917s.743.425 1.028.738c.227.248.38.56.632.781.502.439 1.251.412 1.908.303a11.428 11.428 0 0 0 3.971-1.456c.488-.291.965-.63 1.286-1.1.13-.19.234-.41.225-.64-.019-.544-.518-.904-.97-1.082a12.411 12.411 0 0 0-4.926-.847 12.13 12.13 0 0 0-1.84.202z"
      />
    </g>
    <path
      fill="#1B1B1A"
      d="M13.155 7.509c-.062-.34-.069-.688-.075-1.035 0-.022 0-.046.01-.066.015-.03.05-.046.081-.059.119-.047.238-.095.361-.125.012-.003.024-.005.035-.001.019.007.026.03.032.049.03.108.085.209.157.294.018.02.038.043.04.07 0 .026-.014.049-.028.07-.1.165-.133.362-.145.554-.006.094-.007.19-.044.277-.037.086-.12.16-.214.155-.066-.004-.125-.048-.161-.103s-.051-.122-.059-.188"
    />
    <path
      fill="#1B1B1A"
      d="M13.25 6.19a.153.153 0 0 1-.024-.056.142.142 0 0 1 .016-.07c.046-.11.11-.212.173-.313l.49-.78c.032-.052.065-.104.104-.151.066-.082.151-.151.198-.246.05-.101.044-.237-.038-.316a.232.232 0 0 1 .241.196.604.604 0 0 1 .297.074c-.115.032-.235.066-.325.145a.569.569 0 0 0-.099.119c-.098.15-.151.324-.219.49-.082.202-.186.397-.255.605-.039.119-.066.244-.128.353-.046.083-.173.236-.286.215-.052-.01-.037-.04-.05-.084-.017-.064-.062-.124-.096-.18zM9.002 9.886c-.315-.214-.692-.34-.964-.607a.259.259 0 0 1-.073-.105.289.289 0 0 1-.005-.101l.032-.493c.2-.008.385.1.573.172.233.089.484.122.717.211.04.016.08.033.11.061.044.04.067.099.08.157a.632.632 0 0 1-.138.54c-.062.07-.16.131-.248.098-.04-.015-.072-.047-.113-.059"
    />
    <path
      fill="#1B1B1A"
      d="M7.53 8.575c-.042-.023-.081-.048-.124-.067a.4.4 0 0 0-.285-.01 7.65 7.65 0 0 0-.02.394c-.002.022-.001.047.015.063.012.012.031.015.049.018.272.036.55.04.823.01a.145.145 0 0 0 .064-.018c.052-.034.056-.126.026-.176-.028-.045-.062-.045-.11-.055a1.69 1.69 0 0 1-.439-.16z"
    />
    <path
      fill="#1B1B1A"
      d="M6.997 8.721a2.56 2.56 0 0 0-.425-.127c-.07-.013-.153-.015-.2.04-.041.047-.035.12-.026.182a.745.745 0 0 1-.085-.205.252.252 0 0 1 .045-.21c.016-.02.036-.035.05-.056.034-.046.034-.108.062-.158a.166.166 0 0 1 .153-.083c-.075.055-.075.173-.024.25a.468.468 0 0 0 .224.157c.277.112.574.161.864.234.022.005.046.012.06.031.04.059-.034.123-.085.138-.052.016-.092-.003-.142-.02l-.47-.173zM9.203 8.058c-.06-.18-.03-.378.02-.56.138-.49.431-.935.827-1.254.091-.073.188-.14.298-.18.11-.041.23-.053.347-.055.364-.005.729.087 1.048.262.191.105.368.243.49.424a.83.83 0 0 1 .142.621c-.069.333-.369.563-.66.74a7.312 7.312 0 0 1-.676.366c-.331.157-.701.295-1.074.243-.307-.042-.662-.311-.762-.607z"
    />
    <path
      fill="#1B1B1A"
      d="M10.875 5.565c.148-.199.329-.376.441-.597.18-.352.168-.782.364-1.126.054-.093.132-.185.24-.203s.23.081.198.185c-.025.084-.124.115-.2.16-.17.101-.244.308-.277.503-.032.195-.036.399-.118.579-.09.198-.262.343-.414.498s-.295.344-.298.562c0 .066.009.14-.033.19-.148.181-.136-.232-.128-.283.03-.171.122-.33.225-.468zM9.233 6.51c-.247-.01-.499.019-.74-.034-.388-.083-.713-.364-1.104-.429-.106-.017-.227-.014-.308.057-.081.072-.083.23.017.27.081.034.168-.023.25-.053.186-.067.394.005.566.103.171.098.332.224.523.274.21.056.432.014.648-.006.216-.02.453-.011.623.123.052.041.103.096.17.096.233-.001-.095-.253-.14-.278a1.13 1.13 0 0 0-.505-.122z"
    />
    <path fill="none" d="M13.564 5.212a.022.022 0 0 1-.001.03" />
    <path
      fill="#F3C168"
      d="M9.66 9.219c-.21.292-.59.001-.696.352-.274.914.026 1.987.691 2.697.665.71 1.653 1.055 2.584.979s1.797-.554 2.425-1.247c.439-.484.777-1.1.803-1.774.027-.678-.268-1.357-.713-1.877-1.484-1.735-3.863-.828-5.093.87z"
    />
    <path
      fill="#F3C168"
      d="M9.043 11.356c.022.254.102.502.231.722a.258.258 0 0 0 .074-.206c.068.168.167.324.29.458a.142.142 0 0 0-.001-.137c.076.166.173.323.287.466a.114.114 0 0 0 .007-.11c.07.155.168.298.29.418l.02-.13a.894.894 0 0 0 .318.327l.006-.14c.045.08.1.165.187.189.089.023.199-.073.151-.151.043.09.091.186.18.229s.226-.008.225-.107c.057.066.12.135.205.153.085.017.19-.052.172-.137.047.06.098.125.17.151.073.027.171-.003.19-.078.062.044.137.07.213.076l.04-.106c.054.105.239.096.283-.014.083.134.34.056.332-.102l.09.09a.423.423 0 0 0 .157-.263.646.646 0 0 0 .361.011.195.195 0 0 0 .133-.172c.09.022.092-.014.181.008a.502.502 0 0 0 .073-.207c.038.072.155.058.205-.006.05-.064.053-.152.054-.233a.299.299 0 0 0 .151.129.33.33 0 0 0 .08-.178l.122.061.18-.369c.132-.032.21-.2.15-.32-.002.063.1.08.142.03.041-.047.037-.118.03-.182.05.052.13-.032.127-.103s-.033-.151.008-.209l.075.085a.478.478 0 0 0 .112-.456c0 .04.066.047.09.015.022-.033.015-.077.006-.116l-.06-.268.123.068a.602.602 0 0 0-.061-.442.194.194 0 0 1 .13.032.638.638 0 0 0-.17-.386.221.221 0 0 0 .193.04 1.206 1.206 0 0 0-.334-.58l.194.02a1.303 1.303 0 0 0-.392-.444.312.312 0 0 0-.159-.069c-.096-.005-.18.07-.233.15-.175.269-.14.623-.266.917-.102.237-.302.417-.511.569a3.954 3.954 0 0 1-2.109.745c-.245.012-.493.002-.734.051-.219.045-.424.137-.637.203-.412.125-.949.095-1.371.008z"
    />
    <path
      fill="#1B1B1A"
      d="M9.153 11.464a.52.52 0 0 0 .107-.288c0 .05.042.095.09.101l.074-.201c-.003.058.1.047.125-.006s.02-.121.063-.162l.051.061a.935.935 0 0 0 .121-.242l.075.026.09-.17.062.053c.041-.014.04-.07.057-.11.044-.107.233-.127.226-.242.049.032.117.014.16-.026s.065-.095.087-.148a.182.182 0 0 0 .18-.182c.012.044.079.024.115-.004l.306-.244a.179.179 0 0 0 .168-.115c.076.029.15-.037.213-.089.092-.075.199-.128.305-.18l.266-.13c.045-.022.095-.05.107-.099a.202.202 0 0 0 .265-.1.27.27 0 0 0 .316-.095.213.213 0 0 0 .28-.124c.07.072.216.033.241-.065a.262.262 0 0 0 .308-.075.32.32 0 0 0 .268.007.078.078 0 0 0-.014-.067.598.598 0 0 0 .255.096c.037.004.085-.042.05-.053a.35.35 0 0 0 .257.068.079.079 0 0 0-.033-.083.472.472 0 0 0 .19.118c.022.007.047.012.067 0 .02-.013.02-.05-.002-.055.052.03.108.053.166.067.014.004.031.006.042-.004s0-.035-.013-.027c.041.077.13.126.217.122-.006-.06-.057-.106-.106-.142-.735-.544-1.74-.651-2.618-.396s-1.635.84-2.218 1.545c-.199.24-.38.497-.604.715-.1.099-.21.192-.275.317-.056.107-.072.229-.124.337-.018.037-.081.097-.083.135-.003.053.083.127.12.156z"
    />
    <path
      fill="#1B1B1A"
      d="M12.792 8.48a5.261 5.261 0 0 0-3.21 2.152c-.178.26-.307.479-.527.702-.047-.012-.066-.068-.078-.115a5.74 5.74 0 0 1-.123-.732l-.063.07c.006-.108.028-.215.063-.317.006-.017.012-.038 0-.051-.01-.014-.041.002-.03.016l.07-.28a.122.122 0 0 1-.071.057l.127-.322-.075.019c.226-.564.667-1.014 1.132-1.404.342-.287.738-.563 1.184-.557.095.001.168-.109.257-.143a.213.213 0 0 0 .072-.038c.014-.013.024-.028.039-.038.027-.018.063-.011.096-.008.174.019.338-.07.506-.118.24-.069.496-.053.746-.036.18.012.363.024.54.065.662.155 1.165.697 1.528 1.272a3.591 3.591 0 0 0-2.183-.194z"
    />
    <path
      fill="#F3C168"
      d="M17.259 11.16c.17.27-.036.628.023.944.024.127.09.264.03.379-.028.05-.076.088-.1.14-.043.093-.004.225-.085.288-.031.025-.073.031-.107.052-.085.055-.082.177-.107.275-.025.098-.155.191-.216.11.044.141-.073.278-.18.38l-.366.347c-.2.19-.405.384-.657.496-.427.188-.965.132-1.313.442-.041.036-.08.077-.13.098-.088.036-.19 0-.282.022-.174.04-.249.258-.412.33-.059.026-.125.03-.186.05-.099.03-.182.097-.276.141s-.214.062-.296-.001c-.01.134-.125.252-.258.267s-.272-.073-.313-.2c-.037.135-.204.198-.341.17s-.25-.122-.358-.212c-.05.091-.18.113-.277.075a.658.658 0 0 1-.24-.2c.014.125-.177.153-.29.1a.78.78 0 0 1-.394-.42c.032.36.161.733.445.957a.115.115 0 0 0-.005-.115c.064.254.26.449.45.63l.288.275c.158.152.317.304.504.418l.038-.115c.045.045.096.093.16.093.063.001.121-.08.077-.127.052.06.116.121.196.123.079.003.156-.093.109-.156.073.067.155.14.255.142s.2-.112.145-.196c.078.05.162.1.254.102.093.002.194-.066.192-.158.103.068.215.139.339.139.124 0 .255-.107.232-.228.086.048.186.087.28.06.095-.028.164-.148.108-.229.103.044.213.089.324.074s.22-.114.203-.225c.22.11.526-.042.571-.284a.715.715 0 0 0 .593-.225.364.364 0 0 0 .353-.283c.14.1.37-.058.328-.225.18.068.4-.108.374-.297.187.076.42-.13.364-.326.1.068.26.017.302-.097.018-.049.017-.104.04-.15.036-.075.12-.11.187-.16s.118-.148.065-.212c.189-.098.21-.355.209-.569.126-.094.136-.277.126-.434a4.381 4.381 0 0 0-.641-2.012c-.078-.126-.187-.275-.334-.264z"
    />
    <path
      fill="#1B1B1A"
      d="M9.553 6.762l.02-.106c.047.01.087-.032.116-.07l.037-.05c.03-.04.06-.083.06-.133l.066.018.088-.223a.122.122 0 0 0 .138-.118c.035.021.087-.007.089-.047a.099.099 0 0 0 .141-.01l.262.003c.027 0 .066-.018.051-.041.038.027.107.044.115-.002a.078.078 0 0 0 .113.001c.141.05.298.02.445.05.118.022.226.082.33.143.192.113.385.242.504.43.014.024.028.05.023.076-.008.043-.057.061-.1.07-.175.035-.356.018-.534.024-.54.02-1.044.26-1.552.447-.178.065-.685.09-.624-.225.018 0 .043-.017.062-.017-.008-.053-.003-.119.064-.125-.006-.073.081-.074.085-.095z"
    />
    <g>
      <path
        fill="#9B9B9B"
        stroke="#9B9B9B"
        strokeWidth="0.095"
        strokeMiterlimit="10"
        d="M9.004 7.912c.012.076.043.157.111.192.065.033.144.013.208-.02a.596.596 0 0 0 .282-.713c-.084-.228-.297-.234-.44-.067a.77.77 0 0 0-.161.608z"
      />
      <path
        fill="#9B9B9B"
        d="M9.3 8.103a.531.531 0 0 0 .283-.446.494.494 0 0 0-.181-.491c.204.056.296.302.276.504-.04.19-.163.423-.378.433z"
      />
      <path
        fill="#9B9B9B"
        stroke="#9B9B9B"
        strokeWidth="0.095"
        strokeMiterlimit="10"
        d="M9.13 7.666c.007.037.022.076.053.097.03.02.07.02.105.01a.248.248 0 0 0 .16-.15c.054-.137-.003-.333-.181-.294-.132.029-.16.227-.138.337z"
      />
    </g>
    <g>
      <path
        fill="#9B9B9B"
        stroke="#9B9B9B"
        strokeWidth="0.095"
        strokeMiterlimit="10"
        d="M12.128 6.271c.05.058.095.133.079.208-.016.071-.081.12-.147.15a.596.596 0 0 1-.731-.233c-.124-.209.006-.378.226-.382a.77.77 0 0 1 .573.257z"
      />
      <path
        fill="#9B9B9B"
        d="M12.09 6.622c-.144.16-.403.108-.575.019-.17-.111-.302-.339-.217-.532 0 .196.1.37.266.45a.531.531 0 0 0 .525.063z"
      />
      <path
        fill="#9B9B9B"
        stroke="#9B9B9B"
        strokeWidth="0.095"
        strokeMiterlimit="10"
        d="M11.858 6.213c.024.03.045.066.04.104-.003.035-.028.066-.057.087a.248.248 0 0 1-.217.03c-.14-.045-.257-.213-.114-.327.106-.084.277.02.348.106z"
      />
    </g>
  </svg>