<?xml version="1.0" encoding="utf-8"?>
<svg version="1.1" xmlns="http://www.w3.org/2000/svg" xmlns:xlink="http://www.w3.org/1999/xlink" x="0px" y="0px"
	 viewBox="0 0 23 23" style="enable-background:new 0 0 100 100;" xml:space="preserve">
	 <circle
      fill="#FFF"
      stroke="#2B6E79"
      strokeWidth="0.923"
      strokeMiterlimit="10"
      cx="11.5"
      cy="11.5"
      r="10.975"
    />
    <path
      fill="#C1C5C5"
      d="M5.936 6.654c-.041-.094-.083-.2-.046-.297.03-.082.11-.133.185-.179.738-.45 1.496-.868 2.272-1.25.166-.08.38-.155.519-.033.045.04.074.095.1.15.272.54.52 1.274.79 1.815.057.11.139.033.137.157-.001.14-.077.268-.155.385a5.268 5.268 0 0 1-1.604 1.546c-.196.121-.41.232-.64.234-.497.005-.506-.48-.685-.842-.26-.52-.639-1.153-.873-1.686z"
    />
    <path
      fill="#E9EBEB"
      d="M8.998 5.108c-.77.778-1.974 1.416-3.062 1.546.328.62.722 1.54 1.05 2.16.01.02-.022-.298-.002-.288.027.014.059.004.087-.005a9.215 9.215 0 0 0 2.196-1.098c.12-.081.242-.17.307-.3.123-.244.294-.271.177-.519C9.555 6.19 9.186 5.526 9 5.108z"
    />
    <path
      fill="#2C8C98"
      d="M10.393 18.002c-.122-.315-.292-.61-.454-.907-.903-1.658-1.56-3.438-2.373-5.143a62.221 62.221 0 0 0-1.32-2.563c.024-.331.406-.557.655-.776l.778-.684c.177-.155.355-.312.544-.453.21-.157.434-.296.657-.434l1.108-.687c.112.022.212.125.277.218.524.748.886 1.595 1.243 2.436l2.328 5.468c-.28.387-.548.766-.829 1.154a.652.652 0 0 1-.212.213c-.083.043-.18.047-.274.053-.641.04-1.342.212-1.709.74-.269.387-.302.889-.286 1.36.002.08-.06.04-.133.005z"
    />
    <path
      fill="#2B6E79"
      d="M13.707 14.316c.029.068.076.13.05.2a.488.488 0 0 1-.138.172l-1.122 1.038c-.028.027-.066.01-.082-.026L8.687 7.544a.158.158 0 0 1 .005-.147.376.376 0 0 1 .113-.11l.257-.188c.291-.214.583-.428.885-.627a.257.257 0 0 1 .128-.054c.047-.001.099.033.097.08.346.481.621 1.026.854 1.57l1.395 3.256c.423.988.86 1.986 1.286 2.992z"
    />
    <path
      fill="#2B6E79"
      d="M13.54 15.653c-.006.209.031.416.069.621.083.458.166.917.31 1.359.022.063.04.14-.004.19-.026.028-.065.037-.102.045-.732.15-1.489.134-2.225.26-.317.054-.634.135-.956.12-.044-.001-.09-.006-.124-.032-.04-.03-.056-.08-.07-.127-.161-.579-.127-1.266.293-1.696.196-.2.454-.323.71-.433.271-.115.555-.221.85-.212.073.002.149.01.217-.016a.433.433 0 0 0 .143-.11c.282-.288.548-.592.797-.909.06-.076.12-.154.2-.206.072-.046.235-.101.257.008.011.055-.134.249-.158.305-.11.264-.2.545-.207.833z"
    />
    <path
      fill="#3A5E76"
      d="M13.919 14.49a15.437 15.437 0 0 1 2.562-.17c.04 0 .082.003.109.03.041.044.19.101.164.155-.149.3-.486.606-.665.89a.691.691 0 0 1-.205.233c-.172.105-.391.049-.592.048-.356 0-.694.186-1.05.168-.226-.01-.817.172-.817-.137 0-.163.167-.571.23-.718.031-.075.183-.486.264-.498z"
    />
    <path
      fill="#183147"
      d="M16.241 17.46a7.462 7.462 0 0 0-.264-1.538c-.049-.172.012-.388-.145-.472-.104-.054-.356-.023-.473-.019-.59.021-1.18.084-1.762.188-.065.012-.14.03-.172.088a.225.225 0 0 0-.02.106c-.015.572.073 1.187.302 1.715.121.28.29.177.55.167a12.505 12.505 0 0 0 1.984-.235z"
    />
    <path
      fill="#272824"
      d="M15.997 16.419c-.09-.294-.163-.597-.165-.905-.002-.308.073-.623.254-.872.088-.12.206-.226.352-.258.145-.033.317.03.376.166.02.046.026.096.032.146l.144 1.215c.006.05.013.1.039.144.018.029.044.052.062.081.051.081.034.187.011.28-.044.182-.1.36-.166.534-.093.242-.383.707-.706.487-.119-.08-.138-.244-.142-.376a2.25 2.25 0 0 0-.091-.642z"
    />
    <path
      fill="#55B8BE"
      d="M10.694 16.587c.086-.094.172-.188.272-.266.227-.174.513-.25.792-.314.4-.09.805-.162 1.213-.216.16-.02.33-.037.478.03a9.67 9.67 0 0 1 .387-1c.03-.065.063-.131.064-.203.001-.071-.04-.149-.11-.164-.065-.014-.129.03-.18.073-.232.2-.41.452-.605.688-.132.159-.273.31-.421.455a.127.127 0 0 1-.055.037c-.021.005-.043-.001-.064-.005a.77.77 0 0 0-.282.018c-.357.067-.719.145-1.039.318-.177.095-.34.223-.467.38-.127.158-.157.332-.246.504a2.07 2.07 0 0 1 .263-.335z"
    />
  </svg>