<?xml version="1.0" encoding="utf-8"?>
<svg version="1.1" xmlns="http://www.w3.org/2000/svg" xmlns:xlink="http://www.w3.org/1999/xlink" x="0px" y="0px"
	 viewBox="0 0 23 23" style="enable-background:new 0 0 100 100;" xml:space="preserve">
	 <path
      d="M11.034 9.868c-.873-.846-2.205-1.371-3.567-1.406.032-.151.237-.23.416-.282.638-.183 1.293-.33 1.957-.44a11.783 11.783 0 0 0-4.061-.933c.005-.131.167-.219.315-.272 1.055-.382 2.275-.207 3.409-.026-.841-.948-1.906-1.765-3.12-2.394.51-.25 1.162-.11 1.73.037.521.135 1.054.274 1.484.547 0-.3-.199-.574-.403-.824a12.642 12.642 0 0 0-2.053-1.992c.551-.049 1.089.132 1.59.325.543.209 1.076.436 1.597.679.35-.964.584-1.903.833-2.887.694.781.749 1.807.779 2.769.582-.87 1.651-1.516 2.848-1.72l-.785.995c-.254.322-.514.656-.585 1.034 1.023-.185 2.025-.282 2.966.092-1.336.667-2.446 1.626-3.18 2.748.935-.268 2.022-.16 2.851.281-1.284.285-2.453.899-3.296 1.733 1.069-.36 2.389-.168 3.236.471-1.582.03-3.113.785-3.871 1.908-.07.104-.158.225-.304.238a.519.519 0 0 1-.206-.037c-.308-.1-.675-.28-.622-.545.048-.025-.006-.075.042-.099z"
      fill="#7dc087"
    />
    <path
      d="M16.912 14.713c-.286-1.088-.632-2.169-1.167-3.158a4.683 4.683 0 0 0-.666-.963 3.06 3.06 0 0 0-.502-.628c-.506-.49-2.204-.972-2.853-.933-.814.049-1.603.327-2.335.673-.406.192-.808.407-1.141.709-.352.319-.615.724-.841 1.142-.535.99-.88 2.07-1.167 3.158-.364 1.385-.64 2.827-.437 4.244.203 1.417.958 2.82 2.224 3.49.971.514 2.116.549 3.214.553l.335-.001.335.001c1.098-.004 2.243-.039 3.214-.553 1.266-.67 2.021-2.072 2.224-3.49.204-1.417-.072-2.859-.437-4.244z"
      fill="#f9f19b"
    />
    <g
      fill="none"
      stroke="#d5c86e"
      strokeWidth="0.232"
      strokeLinecap="round"
      strokeLinejoin="round"
      strokeMiterlimit="10"
    >
      <path d="M7.23 21.871c.684-2.888 2.354-6.208 4.038-8.554.693-.965 1.459-1.864 2.223-2.761.296-.347.432-.512.759-.824M9.925 22.807c.949-3.904 3.551-7.755 6.112-10.664M12.954 22.732c.814-2.471 2.506-4.924 4.26-6.718M5.797 16.929c.804-2.659 3.109-5.935 5.095-7.701M5.878 16.354c.656 2.041 2.635 5.32 4.234 6.613M7.037 12.321c1.371 3.732 4.978 7.985 8.089 10.126M9.702 9.728c1.624 3.596 4.373 7.048 7.657 8.827" />
      <path d="M12.816 9.297c.653 1.539 1.7 2.874 2.99 3.814.271.198.792.625.792.625" />
    </g>
    <path
      d="M7.23 16.298c-.026.197 0 .401.074.585.077.192.21.366.389.47.31.179.726.116 1.002-.113.275-.229.413-.596.408-.954M15.639 16.267c.033.196.014.4-.054.587a.933.933 0 0 1-.373.482c-.303.189-.722.14-1.005-.079-.283-.219-.433-.582-.44-.94M10.671 18.507a.291.291 0 0 0 .009.165.848.848 0 0 0 .304.465.566.566 0 0 0 .536.079c.174-.073.297-.269.259-.454-.004.277.286.507.56.471.274-.036.489-.301.5-.578"
      fill="none"
      stroke="#28241f"
      strokeWidth="0.447"
      strokeLinecap="round"
      strokeLinejoin="round"
      strokeMiterlimit="10"
    />
    <path
      d="M6.894 18.278a.494.494 0 0 0-.186.158c-.109.17-.053.427.081.572s.322.2.505.227c.173.025.352.03.516-.039a.574.574 0 0 0 .345-.416.571.571 0 0 0-.128-.465c-.263-.296-.837-.198-1.133-.037zM14.954 18.278a.494.494 0 0 0-.186.158c-.109.17-.053.427.081.572s.322.2.505.227c.173.025.352.03.516-.039a.574.574 0 0 0 .345-.416.571.571 0 0 0-.128-.465c-.262-.296-.837-.198-1.133-.037z"
      fill="#f2acc4"
    />
  </svg>