<?xml version="1.0" encoding="utf-8"?>
<svg version="1.1" xmlns="http://www.w3.org/2000/svg" xmlns:xlink="http://www.w3.org/1999/xlink" x="0px" y="0px"
	 viewBox="0 0 100 100" style="enable-background:new 0 0 100 100;" xml:space="preserve">
	 <path fill="none" d="M0 0h100v100H0z" />
    <path
      d="M88.75 60.92c-.18-5.44-3.62-1.83-8.08 3.38s-11.3 4-10.31 7.61 1.38 5.64-2.26 9-9.28 4-11.68-.06c-1.66-2.79-2.51-31.48-2.87-49l14 .07a6.14 6.14 0 10-.5-5.64l-13.6-.07c0-2.23-.07-4.08-.09-5.42a10.37 10.37 0 10-6.27 0c0 1.33-.08 3.19-.14 5.42l-12.27-.06a6.16 6.16 0 10-.56 5.63l12.66.07c-.54 17.47-1.69 46.15-3.37 48.92-2.44 4-8.07 3.38-11.68-.06s-3.2-5.45-2.17-9.07-5.84-2.39-10.24-7.64-7.81-8.9-8-3.46.08 15.46 3.09 18.33 3.84-2.6 6 1.24 10 11.73 19.46 14.6c7.94 2.41 8.66 4.07 9.57 4.55 0 .08.06.13.1.13a1 1 0 00.25 0 .9.9 0 00.24 0s.07 0 .1-.13c.92-.47 1.65-2.12 9.61-4.45 9.51-2.81 17.41-10.58 19.64-14.4s3 1.63 6.05-1.18 3.49-12.87 3.32-18.31zM50.29 6.75A4.23 4.23 0 1146 11a4.23 4.23 0 014.29-4.25z"
      fill="#002f72"
    />
  </svg>