<?xml version="1.0" encoding="utf-8"?>
<svg version="1.1" xmlns="http://www.w3.org/2000/svg" xmlns:xlink="http://www.w3.org/1999/xlink" x="0px" y="0px"
	 viewBox="0 0 100 100" style="enable-background:new 0 0 100 100;" xml:space="preserve">
    <path fill="none" d="M0 0h100v100H0z" />
    <path
    fill="#add2d8"
      className="AngeB1-F_svg__b"
      d="M38.76 56.11a3.55 3.55 0 01.86 1.18c-4.7-1.12-6.87-6.38-8.53-10.86a13.56 13.56 0 00-1.51-3.64c-.83-1-2.19-1.3-3.31-1.78-5.4-2.28-10.71-4.74-15.94-7.49-1.4-.74-8.21-5.83-9.63-3-1.17 2.37 1.3 6.32 2.44 7.91A29.26 29.26 0 007.38 43c-.54 0-1.18-.19-1.73.1-1.56.8-.77 2.93-.18 4.16a13.27 13.27 0 005.73 5.48 8.37 8.37 0 00-1.29.35c-1.68.93.28 3.76.86 4.37 1.81 1.9 4.53 2.53 6.83 3.37 1.81.67 3.62.86 5.86 1.77-1.61 0-3.85.68-2.44 3 .94 1.58 3.77 2.33 5.81 1.76 1.17-.29 1.75-.36 3.17-.85-.64.59-1.13 1.11-.71 2.14.6 1.46 3.87 1.88 5 1.8a10 10 0 005.94-2.68c1.46-1.37 3.22-2.71 4-4.72.67-1.67.24-2.19-.77-3.19-1.63-1.59-3.4-2.14-4.7-3.75z"
    />
    <path
    fill="#fff"
      className="AngeB1-F_svg__c"
      d="M7 42.43a11.5 11.5 0 003.27 2.32 31.88 31.88 0 003.57 1.86 73.82 73.82 0 007.59 2.76A36.09 36.09 0 0113.62 47a26.28 26.28 0 01-3.56-2A9.39 9.39 0 017 42.43zM10.63 52.31a5.35 5.35 0 002 1.18c.72.33 1.44.66 2.19.94 1.46.61 3 1.07 4.48 1.64a20.49 20.49 0 01-4.65-1.24 21.6 21.6 0 01-2.17-1 4.21 4.21 0 01-1.85-1.52zM23.36 62.65a11.71 11.71 0 011.18-.09h1.18l1.16.06c.39 0 .78 0 1.18.1a6.53 6.53 0 01-2.36.28c-.4 0-.79-.06-1.18-.14s-.77-.18-1.16-.21z"
    />
    <path
    fill="#add2d8"
      className="AngeB1-F_svg__b"
      d="M61.24 56.11a3.55 3.55 0 00-.86 1.18c4.7-1.12 6.87-6.38 8.53-10.86a13.56 13.56 0 011.51-3.64c.83-1 2.19-1.3 3.31-1.78 5.4-2.28 10.71-4.74 15.94-7.49 1.4-.74 8.21-5.83 9.63-3 1.17 2.34-1.26 6.29-2.44 7.88a29.26 29.26 0 01-4.24 4.6c.54 0 1.18-.19 1.73.1 1.56.8.77 2.93.18 4.16a13.27 13.27 0 01-5.73 5.48 8.37 8.37 0 011.29.35c1.68.93-.28 3.76-.86 4.37-1.81 1.9-4.53 2.53-6.83 3.37-1.81.67-3.62.86-5.86 1.77 1.61 0 3.85.68 2.44 3-.98 1.61-3.77 2.4-5.81 1.79-1.12-.32-1.75-.43-3.14-.88.64.59 1.13 1.11.71 2.14-.6 1.46-3.87 1.88-5 1.8a10 10 0 01-5.94-2.68c-1.46-1.37-3.22-2.71-4-4.72-.67-1.67-.24-2.19.77-3.19 1.6-1.59 3.37-2.14 4.67-3.75z"
    />
    <path
    fill="#fff"
      className="AngeB1-F_svg__c"
      d="M93 42.43a9.39 9.39 0 01-3.1 2.6 26.28 26.28 0 01-3.56 2 36.09 36.09 0 01-7.77 2.36 73.82 73.82 0 007.59-2.76 31.88 31.88 0 003.57-1.86A11.5 11.5 0 0093 42.43zM89.37 52.31a4.21 4.21 0 01-1.88 1.48 21.6 21.6 0 01-2.17 1 20.49 20.49 0 01-4.65 1.24c1.5-.57 3-1 4.48-1.64.75-.28 1.47-.61 2.19-.94a5.35 5.35 0 002.03-1.14zM76.64 62.65c-.39 0-.77.17-1.16.22s-.78.13-1.18.13a6.56 6.56 0 01-2.36-.27c.4-.06.79-.07 1.18-.1l1.16-.06h1.18a11.71 11.71 0 011.18.08z"
    />
    <path
      fill="#f1f3f4"
      className="AngeB1-F_svg__d"
      d="M38.27 64.6a51.23 51.23 0 01-5 13.79c-1.44 2.61-4.1 5.41-4.83 8.29 5.33 4.51 13.32 4.42 19.89 4.77 7.21.38 16.88.8 23.2-3.31 1-.62 2.64-1.72 2.42-2.89s-2.53-3.14-3.22-4.14A26.92 26.92 0 0166.9 73a51.66 51.66 0 01-1.31-5.6c-.18-1.12 0-2.73-.79-3.56s-.93-7.83-1.91-8c-2.79-.44-5.88-9-8.7-9-3 .08-5.34-1.18-8.31-.91-1.88.23-7.19 17.26-8.88 18.2a1.37 1.37 0 001.27.47z"
    />
    <path
      fill="#f6d4bf"
      className="AngeB1-F_svg__e"
      d="M42.34 63A3.9 3.9 0 0047 61.14a38 38 0 002.44-4.52c.15-.47.27-1.31.78-1.53.73-.33.71 1.37.69 1.83-.07 1.21-.13 2.43-.25 3.64a34.6 34.6 0 01-.52 3.91 4.33 4.33 0 01-.64 2c-1.33 1.38-5.08 1.53-6.78 1.32-.13-1.46.55-3.47-.38-4.79z"
    />
    <path
      fill="#c2cbcc"
      className="AngeB1-F_svg__f"
      d="M42.75 67.75c-1.81-.09.11 3.55.3 5.21a11.11 11.11 0 00.6 3.45c.3.57.31.59.64.09.73-1.09.85-3 1.06-4.33s.26-2.55.43-3.77c0-.22.06-.44.1-.67 0 0-1.78.1-3.13.02z"
    />
    <path
      fill="#f1f3f4"
      className="AngeB1-F_svg__d"
      d="M43.35 61.16c-.49 1.34-.29 3.34-.28 4.81 0 2 .19 4 .28 6a16.3 16.3 0 00.58 4c.18.64.4 1.09-.41 1A11.06 11.06 0 0139.77 75a24.5 24.5 0 01-6.11-6.16c-1.41-1.91-3.25-4-3.45-6.53a6.52 6.52 0 012.22-5 59.76 59.76 0 018.3-7.13c.91-.57 5.8-4 6.88-4.1-.38 1.1-4.28 7-4.23 8.15.12 2.33-.25 4.77-.03 6.93z"
    />
    <path
      fill="#c2cbcc"
      className="AngeB1-F_svg__f"
      d="M43.84 63c-.58-.06-1.09-.1-1.61-.12s-1 0-1.6-.06a13.21 13.21 0 01-3.2-.82 4.67 4.67 0 011.68-.25c.55 0 1.09.06 1.61.09a7.55 7.55 0 011.64.29 3.37 3.37 0 011.48.87z"
    />
    <path
      fill="#c2cbcc"
      className="AngeB1-F_svg__f"
      d="M41.59 59.43a2.69 2.69 0 01-.16 1.38 4 4 0 01-.66 1.19 1.87 1.87 0 010-1.45 2.3 2.3 0 01.82-1.12zM44.06 76.81a7.7 7.7 0 01-2.38-.48 11.87 11.87 0 01-2.19-1 12.58 12.58 0 01-1.92-1.48 7.69 7.69 0 01-1.49-1.91c1.35.89 2.61 1.74 3.93 2.55s2.64 1.51 4.05 2.32z"
    />
    <path
      fill="#f6d4bf"
      className="AngeB1-F_svg__e"
      d="M59.46 63.24a3.89 3.89 0 01-4.7-1.89 37.25 37.25 0 01-2.44-4.52c-.15-.46-.26-1.3-.77-1.53-.73-.33-.72 1.38-.69 1.84.06 1.21.13 2.42.24 3.63a36.88 36.88 0 00.52 3.92 4.37 4.37 0 00.64 2C53.6 68 57.35 68.17 59 68c.2-1.45-.47-3.47.46-4.76z"
    />
    <path
      fill="#c2cbcc"
      className="AngeB1-F_svg__f"
      d="M59 68c1.81-.1-.1 3.55-.29 5.21a11.42 11.42 0 01-.61 3.45c-.3.57-.3.58-.63.08-.73-1.09-.86-3-1.07-4.32s-.26-2.56-.43-3.78c0-.21-.06-.43-.09-.66.04.02 1.82.02 3.12.02z"
    />
    <path
      fill="#f1f3f4"
      className="AngeB1-F_svg__d"
      d="M58.45 61.38c.48 1.33.28 3.34.28 4.81 0 2-.2 4-.29 6a16.14 16.14 0 01-.57 4c-.18.64-.4 1.1.4 1A11.11 11.11 0 0062 75.2a25 25 0 006.14-6.2c1.4-1.91 3.25-4.05 3.44-6.53a6.51 6.51 0 00-2.22-5c-2.37-2.28-5.52-5.38-8.3-7.12-.91-.57-5.8-4-6.87-4.1.37 1.09 4.28 7 4.22 8.15-.12 2.37.26 4.81.04 6.98z"
    />
    <path
      fill="#c2cbcc"
      className="AngeB1-F_svg__f"
      d="M58 63.2a3.35 3.35 0 011.48-.88 8.14 8.14 0 011.6-.32c.51 0 1.05-.1 1.6-.1a4.61 4.61 0 011.68.26 13.69 13.69 0 01-3.2.82l-1.6.06c-.56.05-1.03.1-1.56.16z"
    />
    <path
      fill="#c2cbcc"
      className="AngeB1-F_svg__f"
      d="M60.2 59.64a2.31 2.31 0 01.85 1.15 1.81 1.81 0 010 1.44 4 4 0 01-.66-1.2 2.85 2.85 0 01-.19-1.39zM57.74 77c1.41-.79 2.73-1.54 4-2.35s2.58-1.66 3.93-2.56A7.17 7.17 0 0164.22 74a11.43 11.43 0 01-1.92 1.5 11.82 11.82 0 01-2.18 1 7.41 7.41 0 01-2.38.5z"
    />
    <path
      fill="#eac7b1"
      className="AngeB1-F_svg__g"
      d="M38.92 38.33c.74-1.5-1.76-2.85-3.41-2.8-4.46.15-3.6 5.47-1 7 4.02 2.39 7.01-3.05 4.41-4.2z"
    />
    <g className="AngeB1-F_svg__h" opacity="0.81">
      <path
        fill="#fbd8c2"
        className="AngeB1-F_svg__i"
        d="M34.41 37.44a3 3 0 01.81 1 6.19 6.19 0 01.28.58 2.11 2.11 0 01.1.3c0 .12.1.16 0 .44-.25.32-.47.28-.59.39a.56.56 0 00-.2.38.88.88 0 00.19.47 1.27 1.27 0 00.39.44 1 1 0 01-.55-.31 1.1 1.1 0 01-.33-.61.78.78 0 01.29-.7 3.65 3.65 0 00.44-.27v-.15a1.57 1.57 0 00-.08-.29 5.14 5.14 0 01-.2-.55 6.88 6.88 0 00-.55-1.12z"
      />
    </g>
    <path
      fill="#eac7b1"
      className="AngeB1-F_svg__g"
      d="M62.68 38.33c-.74-1.5 1.77-2.85 3.41-2.8 4.46.15 3.6 5.47 1 7-4.01 2.39-7.01-3.05-4.41-4.2z"
    />
    <g className="AngeB1-F_svg__h" opacity="0.81">
      <path
        fill="#fbd8c2"
        className="AngeB1-F_svg__i"
        d="M67.19 37.44a6.88 6.88 0 00-.52 1.1 5.14 5.14 0 01-.2.55c0 .09-.06.2-.08.29s0 .24 0 .15a4.88 4.88 0 00.44.27.78.78 0 01.29.7 1.1 1.1 0 01-.33.61 1 1 0 01-.55.31 1.17 1.17 0 00.36-.42.88.88 0 00.17-.49.53.53 0 00-.2-.38c-.12-.11-.33-.07-.58-.39-.09-.28 0-.32 0-.44s.06-.21.1-.3.18-.4.28-.58a3 3 0 01.82-.98z"
      />
    </g>
    <path
      fill="#eac7b1"
      className="AngeB1-F_svg__g"
      d="M52.42 43.21c-.85-1.28-4.27 0-5 .65-1.63 1.43-1.61 4.35-.85 6.53a4.42 4.42 0 007.64 1.5 6.39 6.39 0 001.18-5.28 7.33 7.33 0 00-1-2.31c-.84-1.21-2.42-1.37-3.64-1.71"
    />
    <path
      fill="#fcccab"
      className="AngeB1-F_svg__j"
      d="M36.28 31.07a2.34 2.34 0 00-.3-.66zM64.79 31.07l.31-.66a2.36 2.36 0 00-.31.66z"
    />
    <path
      fill="#f6d4bf"
      className="AngeB1-F_svg__e"
      d="M64.79 33.11l-.31.58c-.14-1 .13-2.48-.68-3.4a8 8 0 00-3.29-2 16.4 16.4 0 00-10 .27 16.43 16.43 0 00-10-.27 7.94 7.94 0 00-3.28 2c-.82.92-.55 2.36-.69 3.4l-.31-.58a7.37 7.37 0 01.16 2.83 46 46 0 00-.34 6.42c.31 4.16 3.47 6.91 8.57 8.12a20.5 20.5 0 005.87.53 20.57 20.57 0 005.87-.53c5.09-1.21 8.25-4 8.56-8.12a46 46 0 00-.33-6.42 7.17 7.17 0 01.2-2.83z"
    />
    <path
      fill="#e8b1bc"
      className="AngeB1-F_svg__k"
      d="M41.5 40.33c-1-.11-3.51 1-2.41 2.28.58.67 2.9.56 3.65 0a1.1 1.1 0 00-.24-2 6.72 6.72 0 00-2.4-.4"
    />
    <path
      fill="#1a1919"
      className="AngeB1-F_svg__l"
      d="M42.6 38.31a1.18 1.18 0 00.82 1.75c1 .21 1.29-.88 1.24-1.48a1 1 0 00-.91-1 1.3 1.3 0 00-1.15.73z"
    />
    <path
    fill="#fff"
      className="AngeB1-F_svg__c"
      d="M43.47 38.34a.53.53 0 00.37.8c.46.1.59-.4.57-.67A.46.46 0 0044 38a.57.57 0 00-.53.34z"
    />
    <path
      fill="#e8b1bc"
      className="AngeB1-F_svg__k"
      d="M60.32 40.33c-1-.11-3.5 1-2.41 2.28.59.67 2.9.56 3.65 0a1.09 1.09 0 00-.24-2 6.72 6.72 0 00-2.4-.4"
    />
    <path
      fill="#1a1919"
      className="AngeB1-F_svg__l"
      d="M56.41 38.36a1.18 1.18 0 00.82 1.75c1 .21 1.29-.88 1.24-1.48a1 1 0 00-.91-1 1.3 1.3 0 00-1.15.73z"
    />
    <path
    fill="#fff"
      className="AngeB1-F_svg__c"
      d="M57.28 38.39a.54.54 0 00.37.8c.46.1.59-.4.57-.67a.46.46 0 00-.42-.45c-.36-.07-.5.33-.52.32z"
    />
    <path
      fill="#e5b146"
      className="AngeB1-F_svg__m"
      d="M36.43 33.86c2.11-1.16 4.27-2 5.19-4.09 1.84 3.79 12 6.6 16.55 7.44a17.3 17.3 0 01-2.83-4.78c4.11 3 9 5.55 14.16 5.76-2.18-3.59-1.87-8.31-3.6-12.11-3-6.52-10.73-9.68-17.51-8.24-8.39 1.78-14.46 7.08-11.96 16.02z"
    />
    <path
      fill="#e5b146"
      className="AngeB1-F_svg__m"
      d="M48.45 17.77c-.1-.77-.51-1.51-.67-2.27.83 0 1.4 1.19 2.14 1.22s1.64-1.24 2.47-1.39a5.19 5.19 0 00-.23 1.47c5.5-1.54 12.88 3.28 14.51 8.27 1.82 5.51.37 11.41-1.59 16.65a29.45 29.45 0 00-.74-6.94c-1-4.56-4.78-5.83-8.31-8.14-3.25-2.13-7.46-3.92-7.58-8.87z"
    />
    <path
      fill="#e5b146"
      className="AngeB1-F_svg__m"
      d="M52.26 17.63c-4.2-1.48-8.84-.26-12.61 2.18s-9 8.71-5.66 16.05c.82-.35 1.77-.08 2.47-.24a21.84 21.84 0 011.32-4.06 32.13 32.13 0 014.28-5.11c2.41-2.36 5.45-4.27 8.13-6.3.66-.51 2.17-1.28 2.07-2.52z"
    />
    <path
      d="M46.4 45.38c2.1 1.55 7.23 1.28 8.8 0"
      stroke="#d3916e"
      strokeLinecap="round"
      strokeLinejoin="round"
      strokeWidth="0.42"
      fill="none"
    />
    <path
      d="M51.57 42.9c-.16-.23-.63-.25-.88-.26a1 1 0 00-.86.42c-.43.56.51.47.86.47a2.11 2.11 0 001-.15c.4-.26 0-.53-.33-.64a1.75 1.75 0 00-1-.07"
      fill="#d3916e"
    />
    <path
    fill="#add2d8"
      className="AngeB1-F_svg__b"
      d="M50.55 9.08c-1.46-1.66-4.33-1.13-6.2-.77a30.75 30.75 0 00-9.17 3.53 27.66 27.66 0 00-4.44 2.67c-1.79 1.3-4 3-4.76 5.19-.62 1.78.45 3.32 2.35 3a33.63 33.63 0 005.61-1.72c1.83-.68 3.66-1.35 5.45-2.14 3.07-1.37 6.2-2.53 8.76-4.78C49.3 13 52 10.73 50.55 9.08zM38 10.73a1.44 1.44 0 01-.62.32zm8.45 1.51a20.11 20.11 0 01-5.85 3.82 56.12 56.12 0 01-7.22 2.63 13.63 13.63 0 01-2.74.64c-.39 0-.94.16-1.23-.18-.58-.68 1-2.08 1.41-2.52a18.59 18.59 0 013.93-2.77c.36-.19.77-.35 1.17-.53a29.7 29.7 0 017.23-3.07c1-.32 3-1.26 4-.57s-.15 1.93-.73 2.55z"
    />
    <path
      fill="#c2cbcc"
      className="AngeB1-F_svg__f"
      d="M41.94 49.4a10.8 10.8 0 01-1.38.76c-.46.27-.9.55-1.34.84a27.19 27.19 0 00-2.56 2 8.49 8.49 0 00-1.17 1c-.47.62.55 0 .75-.14.93-.63 1.83-1.3 2.7-2 1.06-.77 2.06-1.62 3-2.46zM65.44 53.75A12 12 0 0064 52.46L60.8 50c-.18-.14-.84-.73-1-.42a9.15 9.15 0 001.39 1l1.42 1.09c.46.37.94.74 1.42 1.09a9.7 9.7 0 011.41.99zM36.15 72c-1 2.5-1.48 3.83-2.61 6.29a46.9 46.9 0 01-3.67 6.27 4.63 4.63 0 00-.71 2.54c.14.77 1.39.92 2.15 1.15a69.46 69.46 0 0019.54 3.34 147.67 147.67 0 0015-1c-.8.55-4.64.9-5.6 1a54.82 54.82 0 01-6.54.43 79.74 79.74 0 01-12.17-.38 46 46 0 01-7.94-1.76 15.45 15.45 0 01-4.57-2.15 1.6 1.6 0 01-.55-.58 1.55 1.55 0 010-.93A9.15 9.15 0 0130 82.94a88.81 88.81 0 006-11M71.6 83.28a6.33 6.33 0 011.12 1.94 2.49 2.49 0 01-.61 2A11.11 11.11 0 0170 89a8.73 8.73 0 002.52-1.39c.71-.64 1.58-1.41 1.42-2.35a4.36 4.36 0 00-1.43-2.16 16.18 16.18 0 01-3.1-4.31c-.33-.77-.7-1.59-1-2.35a37.4 37.4 0 01-2-5.24 15.69 15.69 0 00.59 3.74c.38 1 .81 2 1.28 3a37.43 37.43 0 003.32 5.34z"
    />
  </svg>