<?xml version="1.0" encoding="utf-8"?>
<svg version="1.1" xmlns="http://www.w3.org/2000/svg" xmlns:xlink="http://www.w3.org/1999/xlink" x="0px" y="0px"
	 viewBox="0 0 23 23" style="enable-background:new 0 0 100 100;" xml:space="preserve">
	 <path
      d="M5.334 10.752a.91.91 0 0 1-.35-.522 1.931 1.931 0 0 0-.493.884c-.011.045-.025.096-.066.118-.073.04-.152-.048-.179-.127-.091-.274.001-.572.094-.845l-.429.856c-.126-.174-.159-.402-.133-.615.025-.213.103-.416.181-.617a4.086 4.086 0 0 1-.428.815c-.107-.177-.094-.407-.018-.599.077-.192.211-.355.343-.515a1.362 1.362 0 0 1-.499.242c-.011-.041.007-.085.027-.123.256-.501.786-.791 1.285-1.051l.581.569c.184.18.104.444.125.687.008.09-.062.828-.041.843zM19.386 10.423l.029.078c.031-.265.063-.532.153-.794s.245-.522.475-.7l.184.743c.202-.36.693-.901.806-.84.084.069.111.254.044.362a2.458 2.458 0 0 1-.499.579c.233-.314.538-.583.878-.775.02.197-.067.412-.196.593a3.172 3.172 0 0 1-.463.486c.227-.197.486-.356.758-.464.035-.014.078-.026.1-.002.017.019.011.05.004.078-.109.38-.468.672-.812.909.264-.095.544-.102.78-.019-.436.484-1.088.679-1.692.844-.243.066-.444-.193-.542-.392a.855.855 0 0 1-.007-.686z"
      fill="#f1ede4"
    />
    <path
      d="M11.022 6.94c-.063-.036-.125-.072-.189-.107-.974-.536-2.133-.73-3.228-.541s-2.122.76-2.861 1.591c-.117.132-.229.275-.284.443-.097.299.01.634.199.885.19.251.453.434.712.613.517-.829 1.238-1.174 2.154-1.244-.256.196-.164.216-.38.455-.68.755-1.071 1.47-1.504 2.389-.118.252-.298.459-.472.676-.546.682-1.473.891-2.276 1.236-.125.053-.317.178-.383.296-.213.378-.145.854.007 1.26s.382.784.489 1.205c-.022.047.149.066.133.017 1.153.406 2.559.13 3.411-.747.515.465.928.915 1.443 1.38a3.8 3.8 0 0 1-1.529 1.408c-.408.205-.934.455-1.069.89.284.712.601 1.466 1.233 1.899a.78.78 0 0 0 .362.152c.153.014.303-.045.445-.105a15.46 15.46 0 0 0 3.464-2.026c.452-.351.889-.731 1.231-1.19.367-.492.615-1.06.859-1.622.434-.997.84-2.034 1.274-3.031.93.523 2.049.785 3.079.509.934-.25 1.698-.905 2.428-1.54a.751.751 0 0 0 .206-.237c.24-.511-.722-1.002-.505-1.523-.713.318-1.499.495-2.277.43s-1.546-.383-2.089-.944c-.178-.184-.338-.552-.423-.794-.083.004-.286.064-.286.064s-.259.075-.437.085c-.671.035-1.322-.052-1.875-.445-.551-.393-.976-1.114-1.062-1.787z"
      fill="#f1ede4"
    />
    <path
      d="M6.174 22.821c-.055.073-.117.147-.204.175a.392.392 0 0 1-.227-.013c-.56-.164-.917-.734-1.027-1.307-.11-.573-.023-1.162.016-1.744.013-.194.022-.393.099-.571.15-.347.518-.537.859-.7-.114.054.248 1.004.294 1.107.156.35.368.676.626.959.097.106.245.196.277.337.036.163-.08.445-.128.601a3.719 3.719 0 0 1-.585 1.156zM2.795 13.486c-.143.166-.187.397-.203.621-.025.337.004.686.123 1.014s.335.634.631.834c.041.027.089.077.061.113-.363.465-.676.925-1.112 1.324-.13.118-.27.235-.445.279a.705.705 0 0 1-.712-.272c-.134-.185-.164-.416-.185-.635-.105-1.108-.045-2.297.631-3.13a.735.735 0 0 1 .223-.2.733.733 0 0 1 .234-.066c.243-.035.511.048.754.118z"
      fill="#919191"
    />
    <path
      d="M11.509 13.385c.503-.588.859-1.3 1.026-2.055.012-.053.022-.11-.002-.159-.012-.025-.033-.045-.053-.065a6.38 6.38 0 0 0-2.145-1.352.492.492 0 0 0-.168-.04.436.436 0 0 0-.217.08c-.527.33-.823.917-1.188 1.42-.087.12-.184.271-.121.406.015.032.038.06.062.086.277.311.629.544.976.773l1.37.904c.073.048.15.098.237.104.1.008.197-.044.265-.118a.812.812 0 0 0 .148-.259M6.102 11.228c.015-.011-.018-.032-.028-.017-.01.015.001.037.012.052.188.266.444.478.698.685.964.787 1.942 1.562 3.001 2.213s2.204 1.179 3.408 1.431c-.139.32-.261.727-.454 1.016l-.03.044c-.535-.123-1.065-.358-1.576-.569-2.14-.884-3.915-2.476-5.64-4.035-.03-.027-.061-.057-.066-.096-.004-.031.011-.06.026-.087l.477-.889c.062.051.194.178.172.252zM5.775 18.519l-.605.246c.04-.015.732 1.01.809 1.108.291.371.595.734.913 1.082.111.121.106.151.256.115a.54.54 0 0 0 .245-.151c.079-.12.031-.213-.038-.319-.205-.318-.555-.559-.802-.845-.318-.368-.598-.776-.778-1.236zM2.928 13.785c-.044-.142-.096-.306-.013-.425l-.53.141c-.016.004-.033.009-.044.021-.018.019-.016.048-.012.074.114.948.307 1.889.576 2.811-.003-.022.484-.144.5-.342.016-.211-.154-.504-.198-.719-.107-.518-.121-1.051-.279-1.561z"
      fill="#c5c9d3"
    />
    <path
      d="M21.077 3.529c.027-.078-.064-.145-.142-.127s-.139.086-.193.15l-.943 1.113-1.023 1.208c-.135.16-.276.33-.317.53-.059.285.178.565.459.392.277-.171.538-.733.722-1.001.504-.739.984-1.495 1.437-2.265z"
      fill="#f1ede4"
    />
    <path
      d="M21.382 3.601c-.062.051-.149.063-.228.047s-.151-.055-.219-.097c-.123-.075-.252-.179-.26-.323-.006-.096.046-.187.104-.264a.516.516 0 0 1 .163-.156c.09-.05.2-.053.299-.025.352.102.42.587.141.818z"
      fill="#375561"
    />
    <path
      d="M17.38 8.778a.2.2 0 0 0 .094.032.161.161 0 0 0 .061-.019c.625-.314 1.054-.877 1.413-1.461.067-.11.134-.222.165-.35a.169.169 0 0 0 .003-.092.227.227 0 0 0-.058-.084 8.943 8.943 0 0 0-.61-.606c.035.032-.291.546-.324.599a5.754 5.754 0 0 1-1.145 1.334c-.063.054-.195.117-.204.209-.02.196.462.361.605.438zM9.584 3.516a.208.208 0 0 1-.066-.073.14.14 0 0 1-.006-.064c.04-.699.386-1.316.778-1.877.074-.105.151-.211.255-.291a.168.168 0 0 1 .084-.039.254.254 0 0 1 .1.019c.271.093.537.2.799.319-.043-.02-.385.484-.421.535a5.658 5.658 0 0 0-.769 1.581c-.024.079-.03.226-.111.271-.173.097-.515-.28-.643-.381z"
      fill="#91959f"
    />
    <path
      d="M11.511 1.235c.36-.343.754-.658 1.207-.86.353-.157.734-.242 1.115-.303.28-.045.564-.078.847-.058.822.056 1.542.538 2.219 1.004l.601.486c.597.564 1.219 1.168 1.445 1.96.078.272.105.557.12.84.02.385.016.775-.064 1.154-.103.485-.329.937-.589 1.36-.22.358-.468.702-.777.986-.381.349-.843.596-1.314.806-.441.196-.902.365-1.382.405-.756.063-1.496-.197-2.208-.452-.2-.072-.799-.373-.95-.603-.256-.1-.677-.623-.788-.803-.399-.643-.807-1.312-.904-2.064-.061-.478.008-.964.107-1.436.107-.504.252-1.008.514-1.453.213-.364.498-.679.801-.969z"
      fill="#f1ede4"
    />
    <path
      d="M13.335 7.379c.829.44 1.837.493 2.59.098a2.125 2.125 0 0 0 1.111-2.121c-.108-.926-.796-1.782-1.624-2.326a4.151 4.151 0 0 0-1.444-.614 2.43 2.43 0 0 0-.831-.036 2.01 2.01 0 0 0-.637.212c-.85.446-1.322 1.44-1.155 2.432.167.989 1.093 1.879 1.99 2.355z"
      fill="#375561"
    />
    <path
      d="M14.395 3.052a1.682 1.682 0 0 0-1.07.01c-.415.145-.753.447-1.08.741-.035.032-.072.065-.094.107a.296.296 0 0 0-.015.195c.018.085.083.181.168.162.044-.01.075-.049.103-.084a3.059 3.059 0 0 1 2.019-1.135.381.381 0 0 0-.308-.053M12.184 4.761l-.05.283c-.01.058-.035.131-.094.135-.037.003-.069-.025-.094-.053-.11-.12-.257-.416-.113-.565.159-.163.387-.003.351.2z"
      fill="#fff"
    />
    <path
      d="M10.016 19.192l-.869-.713c-.171-.141-.344-.282-.491-.448-.108-.121-.204-.255-.338-.346-.014-.01-.031-.019-.048-.017-.018.002-.031.016-.044.028a7.044 7.044 0 0 0-.417.479c-.073.093 1.029 1.065 1.142 1.158.127.104.32.325.502.307.188-.02.435-.324.563-.448zM5.537 15.661c-.155.061-.344.062-.477-.039a.719.719 0 0 1-.154-.184 10.695 10.695 0 0 1-.916-1.74c.155-.086.393-.208.548-.294.233.478.485.7.854 1.209.118.164.532.645.597.833 0-.001-.288.15-.452.215z"
      fill="#e85749"
    />
    <g>
      <path
        d="M11.928 11.901a.619.619 0 0 1-.549.602c-.189.021-.409-.052-.521-.217a.645.645 0 0 1-.092-.247.71.71 0 0 1 .024-.394.513.513 0 0 1 .436-.303c.327-.027.704.21.702.559z"
        fill="#e85749"
      />
      <path
        d="M11.595 11.912a.287.287 0 0 1-.253.278.26.26 0 0 1-.24-.1.282.282 0 0 1-.042-.114.325.325 0 0 1 .011-.181.237.237 0 0 1 .201-.14c.15-.014.324.096.323.257zM10.434 11.094a.179.179 0 0 1 .018-.14c.092-.158.331-.052.302.103-.034.177-.277.182-.32.037zM9.85 10.708a.179.179 0 0 1 .018-.14c.092-.158.331-.052.302.103-.034.177-.277.182-.32.037zM9.597 10.961a1.226 1.226 0 0 0-.098.118c-.005.007-.01.014-.009.023.001.008.007.015.013.021a2.5 2.5 0 0 0 .315.247l.34.238c.067.046.139.074.213.019.087-.064.022-.119-.044-.166-.112-.079-.226-.155-.339-.233l-.391-.267zM9.344 11.274a1.226 1.226 0 0 0-.098.118c-.005.007-.01.014-.009.023.001.008.007.015.013.021a2.5 2.5 0 0 0 .315.247l.34.238c.067.046.139.074.213.019.087-.064.022-.119-.044-.166-.112-.079-.226-.155-.339-.233l-.391-.267z"
        fill="#375561"
      />
    </g>
    <path
      d="M19.754 12.117a4.488 4.488 0 0 0-.443.302c-.373-.529-.758-1.09-.816-1.734a3.04 3.04 0 0 1 .283-.093c.123-.024.119-.004.153.111.052.179.098.354.176.524.152.337.373.643.647.89z"
      fill="#e85749"
    />
    <path
      d="M19.086 12.665a1.776 1.776 0 0 1-.431.286 5.628 5.628 0 0 1-.901-1.879c-.023-.085-.038-.191.029-.249.036-.031.085-.039.132-.045.08-.011.222-.062.284.002.048.05.038.221.051.289.039.202.098.4.176.591.037.09.588 1.069.66 1.005z"
      fill="#375561"
    />
    <path
      d="M4.507 8.35c.46.324.843.755 1.112 1.249.042-.073.089-.195.131-.268.012-.02.024-.042.023-.065a.116.116 0 0 0-.018-.05 3.237 3.237 0 0 0-.935-1.073.507.507 0 0 0-.226-.109c-.039.109-.049.207-.087.316z"
      fill="#e85749"
    />
    <path
      d="M4.927 7.72c.509.311.919.783 1.156 1.33.105-.041.23-.1.335-.141A2.983 2.983 0 0 0 5.346 7.42c-.012-.008-.026-.017-.04-.016-.015.001-.027.02-.018.031-.035-.004-.079-.015-.105.007-.086.074-.169.15-.252.228-.008-.004.004.055-.004.05z"
      fill="#375561"
    />
  </svg>