<?xml version="1.0" encoding="utf-8"?>
<svg version="1.1" xmlns="http://www.w3.org/2000/svg" xmlns:xlink="http://www.w3.org/1999/xlink" x="0px" y="0px"
	 viewBox="0 0 100 100" style="enable-background:new 0 0 100 100;" xml:space="preserve">
    <path fill="none" d="M0 0h100v100H0z" />
    <path
      fill="#0e3d63"
      className="AvionRetroB1-F_svg__b"
      d="M79.92 62.07c-5.78.33-11.09-.19-16.51-.45-9.53-.44-19.08-.31-28.56-1.37-5.08-.56-10.31-.84-15.41-1.14-4-.24-8.07-1-12.07-1-3 0-8.5.51-6.24 4.88 1.14 2.2 3.52 3.64 5.55 4.88A46.54 46.54 0 0014 71.56a38 38 0 0010.53 1.91c5.8.48 11.57.92 17.4.91 5.52 0 11.09.05 16.6.46a154.25 154.25 0 0015.65.59c4.49-.11 9.3-.13 13.76-.52 1.94-.17 6.11.12 7.47-1.66 1.12-1.45-.6-3.57-1.53-4.72a16.51 16.51 0 00-6.56-4.75 15.46 15.46 0 00-7.94-1.68M26.5 20.74a12.79 12.79 0 002.77.08 30.79 30.79 0 015.57.65 7.47 7.47 0 012.89.87c1.86 1.47-1 2.75-2.14 3.32-1.63.82-3.24 1.56-4.9 2.3-.63.29-1.67 1.11-2.4.89-1.53-.47-2.43-4.23-2.65-5.58-.26-1.51-.37-2.27.86-2.53z"
    />
    <path
      d="M51.14 79.86C42 68.77 31.8 58.34 24.47 45.83 22.1 41.79 19 38.15 16.83 34c-2-3.82-1.54-7.53.08-11.44a39.89 39.89 0 001.3-4c.64-2.21 1.28-4.46 2.1-6.61.27-.7.68-2.5 1.26-3s1.9.2 2.62.53a6.48 6.48 0 014.18 4.86c1 4.23 1.66 8.54 2.32 12.82a8.3 8.3 0 001.46 4 14.14 14.14 0 005.4 4.43 36.46 36.46 0 018.83 5.55C54 47.24 62.2 52.77 69.12 59.76c.66.67 3.35 2.23 2.94 3-.53 1-4.61-.36-5.45.41a51.52 51.52 0 00-4.84 5.28 76.45 76.45 0 01-8.09 9 25.54 25.54 0 01-2.54 2.41z"
      fill="#5a808d"
    />
    <path
      fill="#0e3d63"
      className="AvionRetroB1-F_svg__b"
      d="M18.17 20.13a2.3 2.3 0 00.35-.1c-2.11.3-4.27.19-6.4.34a26 26 0 00-5 .72c-.47.13-2.86.52-3.15 1.14-1.11 2.34 12.56 4.77 14.16 5 .72.11 5.28.93 5.7.19s-.88-1.85-1.24-2.26c-1-1.11-2-2.29-3.05-3.38-.54-.6-1.46-1.14-1.37-1.65z"
    />
    <path
      d="M69.06 88.38c-2.16.86-7.09-.11-9.07-1.07a32.39 32.39 0 01-9.07-7c-1-1-2.27-2.12-2.43-3.62-.51-4.82 1.84-9.77 5.1-13.15 2.82-2.93 6.85-5.69 11-6.1 1.63-.16 2.69-.17 3.76.87 3.41 3.31 7.22 6.19 10.2 9.93 3.87 4.87-1.79 10.65-5 14.09-1.45 1.54-2.79 3.21-4.3 4.68-.5.48-.14.79-.19 1.37z"
      fill="#386470"
    />
    <path
      d="M79.54 70.58A6.15 6.15 0 0075.82 68c-3.34-.58-6.21 1.13-8.69 3.1-3.58 2.85-11.42 13.4-4.62 16.87 4.81 2.46 10.77-.8 14.34-4 2.87-2.56 5.47-7.77 4-11.64-.76-2-2.12-3.05-3.88-4.19"
      fill="#e4e5e5"
    />
    <path
      fill="#e1ac6c"
      className="AvionRetroB1-F_svg__f"
      d="M70.25 79.62c0 .09.18.07 0 .21-2.65 0-5.17-2.37-7.33-3.73a21.75 21.75 0 01-5-4.82c-.7-.83-2.91-3.69-2.23-4.9.8-1.44 6.39 2.19 7.25 2.71a32 32 0 018.51 7.61c1.82 2.39.31 3.37-1.2 2.92zM73.24 81.11c-.14 0-.07-.16-.2-.1-.06 4 5.15 6.43 8 7.93 1.4.73 4 2.78 5.7 2.19.08-1.19-1.34-2.92-2-3.84a18.46 18.46 0 00-4.57-4.59c-.89-.59-6.66-3.99-6.93-1.59z"
    />
    <path
      fill="#d2955a"
      className="AvionRetroB1-F_svg__g"
      d="M74 77.59c-.82-2.45-5.32.53-5.54 2.49s1.54 2.53 3.14 2.67c1.79.16 3.37 0 3.74-2 .23-1.3-.34-3.45-1.62-4.06-2-1-3.65.89-5.18 1.78M18.79 44.91c-1.18 2.84-1.64 6.21-2.47 9.19-.78 2.77-2.29 6.07-2.45 9-.1 1.81 1.13 1.9 2.73 2.65 1.92-4.46 2.49-9.84 3.82-14.55.3-1.09 2-4 1.54-5.1-.49-1.27-2.38-.94-3.17-1.19zM88.18 47.83c-1.56 2.65-2.47 5.92-3.7 8.77-1.15 2.63-3.09 5.7-3.64 8.56-.35 1.8.85 2 2.33 3C85.69 64 87 58.77 88.94 54.28c.45-1 2.5-3.67 2.22-4.84-.31-1.33-2.23-1.26-2.98-1.61z"
    />
    <path
      fill="#0e3d63"
      className="AvionRetroB1-F_svg__b"
      d="M83.57 40.08c-5.79.33-11.1-.19-16.52-.45-9.52-.45-19.08-.31-28.56-1.37-5.07-.56-10.3-.84-15.41-1.15-4-.23-8.07-1-12.07-1-3 0-8.5.51-6.23 4.88 1.13 2.2 3.52 3.64 5.55 4.87a46.16 46.16 0 007.3 3.67 37.93 37.93 0 0010.52 1.91c5.8.48 11.57.92 17.4.91 5.52 0 11.1 0 16.6.46a154.36 154.36 0 0015.65.59c4.49-.11 9.3-.13 13.77-.53 1.93-.17 6.1.12 7.47-1.65 1.11-1.46-.61-3.57-1.54-4.73a16.61 16.61 0 00-6.56-4.75A15.52 15.52 0 0083 40.11"
    />
    <path
      fill="none"
      stroke="#386a84"
      stroke-linecap="round"
      stroke-linejoin="round"
      stroke-width="1.24px"
      className="AvionRetroB1-F_svg__h"
      d="M17.83 36.69a43 43 0 016.75 5c2.19 2.23 4.07 4.71 6.23 7a20.81 20.81 0 002.89 2.83M28.9 37.39c4.15 1.78 7.19 5.7 10 9.06 1.61 1.92 3.54 3.81 5.08 5.64M40.88 38.57c2.68 1.14 4.22 2.92 6.24 4.93 1.74 1.73 3.36 3.59 5 5.44A26.17 26.17 0 0054.7 52M52.76 39.15c2.68 1.14 4.24 2.91 6.24 4.93 1.74 1.73 3.37 3.59 5 5.44a24.38 24.38 0 002.61 3.08M63.55 39.51c2.68 1.13 4.22 2.91 6.24 4.92 1.74 1.73 3.36 3.59 5 5.45A26.89 26.89 0 0077.37 53M75.14 40.07c2.24 1.14 3.67 2.76 5.49 4.58s3.37 3.59 5 5.44a24.38 24.38 0 002.61 3.08"
    />
  </svg>