<?xml version="1.0" encoding="utf-8"?>
<svg version="1.1" xmlns="http://www.w3.org/2000/svg" xmlns:xlink="http://www.w3.org/1999/xlink" x="0px" y="0px"
	 viewBox="0 0 23 23" style="enable-background:new 0 0 100 100;" xml:space="preserve">
	     <path
      d="M9.619 20.45c-1.094.01-2.18-.256-3.18-.687s-1.92-1.023-2.779-1.681c-.373-.286-.738-.586-1.048-.935-.313-.353-.567-.752-.815-1.151-.39-.625-.753-1.34-.891-2.058.548.91 1.235 1.846 2.063 2.529s1.827 1.19 2.899 1.36c.476.076 1.042.157 1.524.172 1.205.036 2.22-.472 3.409-.677.205-.035.076.728.11.927a2.623 2.623 0 0 1-.39 1.85c-.103.158.249.112.073.187-.176.076-.699.203-.975.164zM22.801 11.012c.069.786-.192 1.565-.526 2.283-1.115 2.394-3.111 4.392-5.544 5.547-.505.24-1.028.444-1.558.627-.837.288-1.694.522-2.564.699.105-.125.195-.238.301-.363.355-.424.715-.856.925-1.362.137-.332.023-.933.09-1.284.512-.062.991-.33 1.3-.73.31-.4.611-.984 1.028-1.28.455-.323.97-.532 1.514-.676 2.096-.556 4.171-1.595 4.998-3.543.007.048.032.034.036.082z"
      fill="#fff"
    />
    <path
      d="M1.671.763c.097-.275.216-.549.413-.763.053.284-.025.581.031.865.054.266.221.495.393.705.341.417.72.804 1.13 1.154.405.346.863.686 1.037 1.19.078.225.092.467.105.704.026.464.05.942-.1 1.382-.294.863-1.885 1.888-2.347.66-.219-.583-.543-1.109-.727-1.709a6.887 6.887 0 0 1-.302-1.99A6.552 6.552 0 0 1 1.671.763z"
      fill="#0b4b65"
    />
    <path
      d="M6.187 5.438c.586.12 1.117.435 1.578.816.168.139.328.287.509.409.654.444 1.514.498 2.279.301.061-.016.137-.029.179.019.055.064-.009.16-.071.217-.815.746-1.862 1.184-2.915 1.516a3.621 3.621 0 0 1-.521.134c-.411.066-.832.003-1.238-.085a9.762 9.762 0 0 1-2.128-.728c-.356-.17-.729-.392-.86-.764-.136-.385.047-.833.363-1.093.205-.169.456-.27.714-.325.267-.056.387-.096.621-.225.447-.248.996-.293 1.49-.192z"
      fill="#0b4b65"
    />
    <path
      d="M10.931 17.673c.111-.145.323-.173.502-.133.178.04.34.135.513.193.149.05.305.073.461.085.619.048 1.253-.171 1.856-.319.528-.13.91-.579 1.223-1.023.313-.444.615-.927 1.089-1.194.492-.277 1.087-.272 1.639-.39a4.946 4.946 0 0 0 1.293-.498 7.62 7.62 0 0 0 2.99-2.908c.119-.208.336-.456.209-.659-.12-.191-.354-.284-.579-.292-.225-.008-.446.056-.662.118-2.021.571-4.14.924-6.222.646-.846-.113-1.706-.329-2.542-.159-.663.135-1.251.502-1.846.824-.901.487-1.802.908-2.786 1.19a5.36 5.36 0 0 1-.95.17 4.731 4.731 0 0 1-1.037.005c-.553-.069-.982-.269-1.448-.574-.497-.325-.943-.736-1.261-1.238s-.502-1.094-.466-1.687c.021-.35.117-.691.232-1.023.086-.249.184-.495.313-.726.107-.192.238-.375.298-.587.061-.212.034-.468-.133-.612-.155-.133-.392-.133-.58-.051-.187.082-.335.232-.473.383-.791.864-1.432 1.879-1.778 2.998S.402 12.559.771 13.67c.314.944.909 1.779 1.631 2.464s1.568 1.227 2.446 1.696c.964.515 2.152.427 3.244.409s2.191-.223 3.181-.685"
      fill="#1d698a"
    />
    <path
      d="M13.972 16.042c.407 1.766-.011 3.801-1.138 5.072a5.379 5.379 0 0 1-1.012.873c-.955.65-2.049 1.045-3.147 1.01.573-.641 1.138-1.352 1.364-2.244.13-.512.139-1.052.2-1.581.062-.529.189-1.074.503-1.46.241-.296.567-.467.869-.67s.603-.465.725-.848c.259.088.535-.15.798-.223.281-.076.556.001.838.071zM2.907 6.882c.21-.138.442-.241.655-.374.43-.268.913-.543 1.215-.95-.035.63-.48 1.103-.801 1.646s-.751 1.092-.873 1.711c-.17-.298.009-.731-.25-.956-.112-.096-.267-.129-.388-.214-.378-.269.215-.715.442-.863z"
      fill="#1d698a"
    />
    <path
      d="M15.324 15.481c.167-.002.318-.039.473-.071a1.41 1.41 0 0 0 .423-.154c.145-.059.289-.142.455-.187a.845.845 0 0 1 .505-.005c-.327.069-.565.237-.864.394-.307.146-.692.186-.992.023zM10.604 17.743c.065-.208.165-.412.325-.578.157-.174.386-.266.583-.344.416-.109.742-.318.947-.719a.946.946 0 0 1-.281.602c-.166.171-.395.25-.59.328-.418.102-.703.364-.984.711zM14.047 16.02c.075.114.151.243.199.381.042.137.052.279.066.419-.003.282-.029.559-.141.825-.074-.28-.061-.551-.083-.817.014-.276-.041-.514-.041-.808z"
      fill="#064564"
    />
    <path
      d="M16.879 15.04c.619-.086 1.238-.181 1.822-.372.591-.176 1.087-.549 1.582-.911.975-.761 1.792-1.705 2.487-2.744-.534 1.136-1.368 2.125-2.347 2.92-.516.357-1.044.752-1.671.899-.616.17-1.249.204-1.873.208z"
      fill="#064564"
    />
    <path
      d="M6.884 13.711c-.144-.018-.298-.033-.425.049s-.199.303-.103.43c.073.097.199.095.308.085l.303-.027c.12-.011.248-.025.341-.115.093-.09.123-.285.026-.37-.051-.045-.119-.046-.183-.045l-.307.002M7.725 14.38c-.145-.014-.198.221-.091.32.107.099.274.089.417.059.1-.02.211-.057.252-.15.054-.119-.049-.261-.174-.299-.125-.038-.259-.002-.385.033-.034.01-.073.024-.082.058-.009.034.051.064.06.03M4.144 13.294a.555.555 0 0 0-.572-.18c-.074.022-.149.066-.173.139-.037.111.056.22.142.3l.256.241c.153.144.31.291.503.376.193.084.431.095.603-.026a.305.305 0 0 0 .13-.181c.026-.13-.065-.254-.16-.347a1.941 1.941 0 0 0-.918-.502M2.627 12.973c-.027-.049-.109-.042-.142.004-.033.046-.028.109-.008.162a.302.302 0 0 0 .229.197c.104.015.22-.048.249-.149.03-.106-.038-.222-.137-.271a.415.415 0 0 0-.321-.002M5.723 14.737c-.027-.039-.109-.033-.142.003-.033.036-.028.087-.008.129a.292.292 0 0 0 .229.156c.104.012.22-.038.249-.118.03-.084-.038-.176-.137-.215a.518.518 0 0 0-.321-.002M2.303 11.821l.126.282a.618.618 0 0 0 .122.2c.057.055.143.087.216.058.129-.051.131-.232.101-.368-.022-.098-.049-.197-.109-.277s-.158-.138-.257-.124-.182.12-.152.216"
      fill="#80aebd"
    />
    <g>
      <path
        d="M14.461 13.864a.459.459 0 0 0-.476.079.776.776 0 0 0-.193.302.98.98 0 0 0-.075.358c.004.304.226.578.499.665s.578.003.806-.18a.941.941 0 0 0 .328-.489.701.701 0 0 0-.095-.581c-.136-.187-.367-.265-.588-.291-.182-.022-.375-.013-.532.088-.059.038-.115.126-.066.179"
        fill="#fff"
      />
      <circle cx="14.718" cy="14.676" r="0.512" fill="#28241f" />
    </g>
  </svg>