<?xml version="1.0" encoding="utf-8"?>
<svg version="1.1" xmlns="http://www.w3.org/2000/svg" xmlns:xlink="http://www.w3.org/1999/xlink" x="0px" y="0px"
	 viewBox="0 0 23 23" style="enable-background:new 0 0 100 100;" xml:space="preserve">
	 <defs>
      <path
        id="BallonFoot_C_svg__a"
        d="M.341 13.558C.013 12.24-.134 10.862.132 9.53c.151-.754.407-1.483.662-2.209.231-.657.465-1.321.833-1.914.292-.471.664-.889 1.051-1.285a18.058 18.058 0 0 1 2.733-2.294S8.8-.708 14.564.471s7.729 6.987 7.729 6.987 2.096 4.367-.961 10.218-10.261 5.589-13.012 4.803c-2.751-.786-6.571-3.256-7.979-8.921z"
      />
    </defs>
    <use xlinkHref="#BallonFoot_C_svg__a" overflow="visible" fill="#f1f1f1" />
    <g clipPath="url(#BallonFoot_C_svg__b)">
      <path
        d="M.261 13.558C-.067 12.24-.214 10.862.052 9.53c.151-.754.407-1.483.662-2.209.231-.657.465-1.321.833-1.914.292-.471.664-.889 1.051-1.285a18.058 18.058 0 0 1 2.733-2.294S8.72-.708 14.484.471s7.729 6.987 7.729 6.987 2.096 4.367-.961 10.218-10.261 5.589-13.012 4.803c-2.751-.786-6.571-3.256-7.979-8.921z"
        fill="#fff"
      />
      <path
        d="M11.205 9.029c.028 1.717.474 3.53 1.243 5.065-.085.512-.419.95-.792 1.311-.373.362-.796.673-1.137 1.064-.256.294-.463.63-.745.899a3.181 3.181 0 0 1-.664.447c-1.642-.486-3.317-1.075-4.943-1.614.023.006.007.046-.017.044s-.039-.024-.05-.045c-.195-.35-.324-.733-.434-1.118-.36-1.268-.473-2.598-.404-3.914a17.888 17.888 0 0 1 3.304-3.554c1.545.278 3.203.786 4.639 1.415zM14.847.371a8.26 8.26 0 0 0-2.567 1.916c-.156.173-.316.361-.537.434-.132.044-.275.042-.414.042a9.836 9.836 0 0 0-3.819.796c-.145.062-.299.13-.454.103a.793.793 0 0 1-.303-.148L4.666 2.087c.387-.339.833-.583 1.302-.794C7.36.668 8.812.155 10.319-.078s3.081-.035 4.528.449zM22.914 9.728a10.828 10.828 0 0 1-.925 3.184 3.543 3.543 0 0 0-2.378-.559l-.325-2.641c-.077-.624-.16-1.267-.479-1.809-.036-.061-.076-.123-.083-.194-.014-.147.115-.264.228-.36a5.27 5.27 0 0 0 1.387-1.827c.29.212.578.436.868.648.206.151.414.303.584.493.211.235.358.52.486.808.327.73.748 1.464.637 2.257zM19.146 20.364c-.973-.201-1.796-.871-2.728-1.003a14.205 14.205 0 0 1-5.413 1.267 52.22 52.22 0 0 1-1.177 2.234c1.672.196 3.421.164 5.051-.254 1.632-.417 3.094-1.037 4.267-2.244zM2.682 17.19c.121.103.25.211.302.361.037.108.03.225.023.339l-.077 1.155c-1.053-1.016-1.621-2.42-2.16-3.781-.3-.756-.496-1.535-.76-2.297.338 1.612 1.437 3.167 2.672 4.223z"
        fill="#343737"
      />
      <g
        fill="none"
        stroke="#343737"
        strokeWidth="0.058"
        strokeLinecap="round"
        strokeLinejoin="round"
        strokeMiterlimit="10"
      >
        <path d="M.832 10.687C.648 9.973.22 8.844.162 8.109M6.517 8.593c.004-1.975.271-3.95.792-5.855M10.485 9.754a22.265 22.265 0 0 1 3.46-3.841c.525-.461 1.344.11 2.001.345 1.172.418 2.347.843 3.446 1.425l.074-.179M19.713 2.737c-.011-.034.201 1.03.19.996.196.658.325 1.337.383 2.021M16.135 19.857c.286-1.227.45-2.483.487-3.742.004-.134.007-.271.058-.395.056-.135.163-.241.268-.344a35.953 35.953 0 0 0 3.445-3.932c.664.146 1.218.49 1.595 1.055s.575 1.234.674 1.906M8.907 17.103a8.964 8.964 0 0 0 2.702 4.102c.035.03.074.061.12.06.046-.001.089-.057.061-.094M2.779 17.717a56.92 56.92 0 0 1 2.069-2.426" />
        <path d="M.317 14.774c-.214-1.126.03-3.048.515-4.088.274.284.688.374 1.079.424a8.67 8.67 0 0 0 2.011.022c.048-.005.112-.052.076-.084M1.797 4.744C2.85 4.008 4.642 3.04 5.75 2.39M11.494 2.093c.153.129.265.3.377.466.723 1.072 1.602 2.253 2.502 3.181M11.648 13.995c1.001.584 2.147.859 3.274 1.126l1.828.433" />
      </g>
    </g>
  </svg>