<?xml version="1.0" encoding="utf-8"?>
<svg version="1.1" xmlns="http://www.w3.org/2000/svg" xmlns:xlink="http://www.w3.org/1999/xlink" x="0px" y="0px"
	 viewBox="0 0 23 23" style="enable-background:new 0 0 100 100;" xml:space="preserve">
	 <path
      d="M16.863 7.156s.76 6.19.847 6.2c.087.01.456.098.434 0-.022-.098-1.086-6.2-1.086-6.2h-.195zM4.568 13.814L3.051 5.512l.213.044 1.695 8.233zM11.109 1.423c0 .065 1.653 15.295 1.718 15.295.065 0 .497.314.497.314s.443-.142.433-.287c-.009-.145-2.453-15.322-2.453-15.322h-.195z"
      fill="#c59267"
    />
    <path
      d="M15.636 20.585c.619-.304 1.081-.85 1.491-1.404.871-1.175 1.376-2.494 1.952-3.838a9.23 9.23 0 0 0 .448-1.306 1.72 1.72 0 0 0 .074-.507c-.002-.05-.011-.104-.05-.136a.175.175 0 0 0-.097-.031c-.285-.029-.567.061-.847.121-.491.106-1.026.164-1.522.086.017.27.02.541.009.811-.013.312-.047.629-.168.917-.203.484-.637.841-1.113 1.061-.637.296-1.353.375-2.056.387-.45.007-.905-.012-1.338-.134s-.882-.315-1.092-.712a1.765 1.765 0 0 0-1.098-.87c-.326-.085-.668-.074-1.005-.071a.308.308 0 0 1-.168-.03c-.066-.041-.092-.122-.122-.194-.187-.447-.705-.76-.7-1.244-2.364-.073-4.388.128-6.695.648.176.264.206.797.381 1.06.497.746.889 1.524 1.468 2.209a.206.206 0 0 0 .078.066c.047.018.1-.001.149-.014.313-.083.647.086.859.331.212.244.329.554.455.852.287.677.648 1.332 1.149 1.87s1.154.954 1.878 1.083c2.579.458 5.33.146 7.68-1.011z"
      fill="#e1a058"
    />
    <path
      d="M9.074 8.498c.53.634.891 1.517.911 2.344.022.287.093 2.598-.291 3.178 1.827-.864 3.936-.947 5.954-.843.17.009.343.154.513.158.307-.848.18-1.801.11-2.7a3.82 3.82 0 0 0-.124-.597c-.255-.862-.84-1.613-1.585-2.117-1.852-.104-3.677.173-5.488.577zM1.672 11.45c.124-.358.11-.572.019-.94l-.016-.065s-.093-.336-.115-.407A7.997 7.997 0 0 0 .09 7.324a10.758 10.758 0 0 1 3.461-.639c.408-.007 1.082-.003 1.46.149.205.082.842.633 1.196 1.225.022.036.165.277.18.306a4.81 4.81 0 0 1 .562 2.423c-1.135-.398-2.381-.291-3.566-.087a4.187 4.187 0 0 0-1.711.749M17.852 8.982c-.184-.536-.406-1.071-.767-1.508.399-.029.794.09 1.166.237.62.245 1.31.657 1.833 1.069 0 0 .28.245.36.322.141.135.275.277.401.425.693.811 1.161 1.822 1.273 2.882A6.054 6.054 0 0 0 19.4 12.4c-.453.104-.831.28-1.216.534-.056-.238.116-.641.14-.9a5.592 5.592 0 0 0-.009-1.051c-.066-.683-.24-1.353-.463-2.001zM9.291 5.892c-.259-.62-.655-1.182-1.091-1.71 1.383-.291 2.842-.161 4.255-.27.073-.006.123-.06.192-.04.097.029.249-.196.314-.124.265.294.386.629.577.969.057.101.072.165.129.284l.154.337c.055.122.079.234.12.348l.475 1.304c-.87-.056-1.742.052-2.589.237-.812.177-1.546.405-2.357.549.149-.293.137-.381.11-.726a3.796 3.796 0 0 0-.289-1.158z"
      fill="#28241f"
    />
    <path
      d="M12.961 3.749c-.296.774-1.539.554-2.318.739-.423.101-.859.18-1.293.139-.309-.028-1.151-.445-1.151-.445.265-.313 1.215-.679 1.608-.766a5.141 5.141 0 0 1 3.154.333z"
      fill="#28241f"
    />
    <path
      d="M5.867 11.752l-5.873.229c.054-.02.101.041.126.093l.234.487c.034.07.07.143.135.184.079.051.181.042.275.032a66.03 66.03 0 0 1 4.787-.332c.024.425.18.854.204 1.279.341-.043.661-.054.417-.542-.103-.206-.132-.418-.172-.644-.011-.067-.12-.787-.133-.786z"
      fill="#f9cda6"
    />
    <path
      d="M1.259 13.372c.028.167.057.335.117.493.006.016.013.032.027.041.014.009.031.009.047.009h.438s.019 0 .025-.006c.013-.011.004-.032-.005-.046-.197-.325-.227-.714-.268-1.084-.008-.073.002-.209-.034-.273-.044-.078-.142-.062-.232-.054-.149.013-.221.064-.218.218.007.233.064.473.103.702zM2.823 13.876c.002.015-.231-.122-.218-.114.008.005.018.005.028.004l.709-.023c-.088-.458-.155-.92-.199-1.385 0 .02-.44.108-.482.12-.111.032.008-.122 0 0-.02.34.127 1.06.162 1.398zM4.838 13.185c.02.114.041.229.091.333-.192.076-.39.138-.591.185.038-.484-.196-.961-.142-1.443 0 .002.32.011.351.012.147.005.137.021.161.165l.13.748z"
      fill="#f9cda6"
    />
    <path
      d="M7.299 10.728a.577.577 0 0 1 0 .28c-.665-.303-1.404-.424-2.135-.41-.731.014-1.454.161-2.153.374-.515.157-1.024.353-1.474.65l-.161-.311c.474-.154 1.006-.303 1.48-.457.366-.119.733-.237 1.109-.316 1.09-.229 2.248-.053 3.334.19zM16.626 13.008c-.014.096-.138.329-.191.41-.357-.128-.805-.104-1.184-.124a14.163 14.163 0 0 0-2.873.137c-.98.142-1.974.332-2.81.861a1.301 1.301 0 0 1-.207-.357c.585-.1 1.137-.252 1.707-.419 1.292-.379 2.648-.503 3.994-.508.51-.001 1.09-.063 1.564 0zM9.57 7.937c1.548-.624 3.222-1.002 4.887-.878l.016-.242c0 .007-2.078.15-2.268.18-.775.123-1.56.36-2.32.555-.12.03-.518.068-.586.173l.271.212z"
      fill="#c48344"
    />
    <path
      d="M10.776 1.769c.733-.247 1.261-.453 2.031-.517.165-.014.338-.018.487.054.149.072.262.244.213.402-.032.103-.127.202-.087.303.025.062.094.095.159.11.344.079.681-.16 1.033-.174a3.557 3.557 0 0 1-.469.449l.749-.025a1.887 1.887 0 0 1-1.369.422c-.189-.018-.398-.083-.481-.253-.038-.078-.045-.17-.087-.246-.1-.18-.348-.203-.553-.183-.403.038-.766.163-1.134.322-.218.094-.225-.031-.342-.206-.035-.052-.089-.478-.15-.458z"
      fill="#dd374b"
    />
    <path
      d="M11.223 1.43c.09-.001.193-.008.246-.08.019-.026.028-.061.013-.089-.014-.027-.046-.038-.075-.046-.133-.035-.417-.056-.51.077-.124.178.234.139.326.138zM2.886 5.532a.203.203 0 0 0-.079.058c-.02.027-.029.068-.013.1.015.028.044.041.072.05.164.055.339.048.51.036.054-.003.11-.008.154-.043.044-.035.067-.109.035-.158-.119-.177-.533-.112-.679-.043z"
      fill="#c59267"
    />
    <path
      d="M5.132 16.176a.54.54 0 0 1 .091-.281c.121-.152.372-.139.526-.019.154.12.23.312.287.498.088.291.144.591.196.891.004.023.007.047-.004.067-.012.02-.035.029-.057.036a2.62 2.62 0 0 1-.612.131c-.149.014-.361.068-.392-.111a4.281 4.281 0 0 1-.035-1.212zM7.13 15.859a.54.54 0 0 1 .091-.281c.121-.152.372-.139.526-.019.154.12.23.312.287.498.088.291.144.591.196.891.004.023.007.047-.004.067-.012.02-.035.029-.057.036a2.62 2.62 0 0 1-.612.131c-.149.014-.361.068-.392-.111a4.281 4.281 0 0 1-.035-1.212z"
      fill="#8e6139"
    />
    <path
      d="M22.699 13.55c.113-.328.212-.66.296-.996l-1.558.226c-.589.086-1.179.171-1.772.232-.878.09-1.756.172-2.639.196a3.507 3.507 0 0 1-1.575 2.91 2.126 2.126 0 0 1-.332.179c-.11.046-.225.079-.34.112-.419.12-.871.167-1.301.241-.376.065-.764-.074-1.072-.298-.308-.224-.55-.526-.783-.828-.205-.265-.403-.538-.536-.845l-1.676.194c-.034.004-.071.007-.099-.014a.133.133 0 0 1-.035-.049c-.281-.56-.507-1.158-.602-1.777-2.707.352-5.278.626-8.005.728 0 0 .012.004 0 0-.054-.018.009.142.078.232.173.225.226.511.456.677.543-.027 1.207-.225 1.744-.309 1.53-.237 3.067-.43 4.609-.578l.325-.03c.085-.008.217-.046.299-.023.138.038.184.293.231.411.167.413.325.829.475 1.248.008.024.018.049.039.064.016.012.037.015.057.018.53.071 1.073.041 1.592-.087.077.12.108.249.185.369.143.224.288.45.472.642.156.163.337.299.517.434.113.085.227.17.351.236.106.056.219.098.334.133.35.107.718.153 1.084.137.858-.038 1.747-.254 2.42-.788.674-.533 1.161-1.277 1.484-2.073.076-.188.144-.38.183-.579a26.75 26.75 0 0 1 1.294-.107c.79-.048 1.582-.023 2.372-.073.476-.032.956-.108 1.428-.165z"
      fill="#f9cda6"
    />
    <path
      d="M17.106 20.057a.114.114 0 0 1-.062.06c-.404.172-1.177.379-1.581.552.884-.898 1.761-2.162 2.21-3.339a58.99 58.99 0 0 0 1.147-3.299.577.577 0 0 1 .099-.211.565.565 0 0 1 .243-.141c.611-.222 1.307-.377 1.896-.1a.465.465 0 0 1 .198.151.511.511 0 0 1 .066.243c.033.384-.002.773-.105 1.144-.056.201-.137.407-.299.54-.147.121-.342.166-.53.193-.251.036-.53.041-.731-.114-.23-.178-.277-.499-.308-.788-.678 1.698-1.473 3.323-2.243 5.109z"
      fill="#f9cda6"
    />
    <g fill="#fff">
      <path d="M13.902 11.315c.032-.015.065-.031.083-.06a.174.174 0 0 0 .019-.079l.023-.292c.027-.078.156-.094.245-.046a.55.55 0 0 1-.022.316c.091-.006.193.039.219.126s-.073.193-.153.151c-.017-.009-.03-.022-.045-.033-.13-.093-.306.009-.433.105a8.426 8.426 0 0 1-1.344.828c-.023.3-.088.398-.148.382-.116-.031-.113-.051-.146-.07-.073-.053.038-.128.077-.224a.085.085 0 0 0 .001-.05c-.011-.035-.148.001-.184.004-.106.008-.193-.124-.144-.218a.101.101 0 0 1 .054-.05c.032-.01.065.003.096.016.195.082.351.099.351.099.152-.094.409-.243.565-.331.307-.174.565-.426.886-.574z" />
      <path d="M13.841 11.873c.122.028.261.071.309.187.025.06.023.134.07.177.059.053.168.011.187-.066s-.041-.16-.118-.179a.178.178 0 0 0 .179-.16.177.177 0 0 0-.158-.18c-.071.011-.059.121-.149.157-.479-.036-1.153-.246-1.153-.246-.106-.009-.427-.127-.528-.161-.301-.101-.112-.149-.208-.248-.096-.099-.245-.127-.34-.027-.099.089.126.16.188.241a.16.16 0 0 0-.151.107.158.158 0 0 0 .058.175c.066.043.174-.116.214-.162.221.079.492.171.719.21.296.049.59.108.881.175z" />
    </g>
    <path
      d="M11.888 8.992l1.667-.304c.04-.007.086-.013.116.016.022.021.028.055.032.085l.196 1.302a.294.294 0 0 1 0 .132c-.036.115-.182.131-.297.126-.028.085.069.16.084.249.011.07-.033.139-.09.176-.057.037-.345.103-.345.103-.068.027-.322.055-.322.055-.063.055-.15-.045-.152-.131-.002-.086.029-.182-.019-.252-.099-.147-.255.005-.372-.032-.134-.042-.135-.273-.167-.402-.025-.1-.286-1.131-.331-1.123z"
      fill="#fff"
    />
    <g fill="#28241f">
      <path d="M12.736 9.575a.081.081 0 0 1 .031.015c.007.008.01.018.012.028.013.056.022.113.028.17a.192.192 0 0 1-.013.111c-.022.041-.07.069-.12.082a.686.686 0 0 1-.157.016c-.026 0-.054 0-.075-.012-.021-.013-.03-.035-.037-.055-.045-.12-.127-.302-.068-.428.019-.042.023-.029.066-.011a.718.718 0 0 0 .105.035c.075.017.154.027.228.049zM13.07 9.518c-.003.003-.007.007-.008.011-.002.007.002.014.005.02a.644.644 0 0 1 .075.242c.001.009.002.019.009.025.006.005.014.006.014.006l.25.025c.02.002.041.004.06-.001a.122.122 0 0 0 .065-.049c.034-.049.04-.11.031-.167s-.034-.11-.058-.163l-.05-.111c-.035-.077-.089-.129-.163-.059-.078.072-.153.147-.23.221z" />
    </g>
  </svg>