<?xml version="1.0" encoding="utf-8"?>
<svg version="1.1" xmlns="http://www.w3.org/2000/svg" xmlns:xlink="http://www.w3.org/1999/xlink" x="0px" y="0px"
	 viewBox="0 0 100 100" style="enable-background:new 0 0 100 100;" xml:space="preserve">
    <path fill="none" d="M0 0h100v100H0z" />
    <path
      d="M.69 11.51A21 21 0 003.34 14c5.2 3.92 11.32 9.32 16.84 12.78 5.73 3.58 11.56 7 17 10.92a21.13 21.13 0 003.24 2.25c-.12 2.3 2.84 5.06 4.14 6.59 1.17 1.37 2.27 3.1 3.77 4.15 1.79 1.24 4.09 1.46 6.13 2.08 3.78 1.14 7.58 2.49 11.22 4 7.58 3.15 15.34 6 22.71 9.62 3.63 1.79 7.53 3.15 11.06 5.12-7.45-.8-15.33 1.3-22.76 1.73-15.92.94-33.23-2.43-45.7-12.76A71.62 71.62 0 0119 47.39c-2.23-3.06-5-6.41-6.26-10-.36-1.06-1.21-7.55-3.45-5.53 1.08.46 4 2.44 5.17 1.7 1.9-1.26-.73-3.93-1.94-4.52s-2.15-.15-3.15-.61C8 27.78 6.55 25.69 5.73 24.5a24.07 24.07 0 01-3.21-7.11C2.14 16.17.85 14.82.87 13.58"
      fill="#cececd"
    />
    <path
      d="M23.69 35.2c3.91-1.46 8.31-2.05 12.41-2.9 6.2-1.29 12.33-2.88 18.54-4.12 3.34-.67 6.83-.86 10.13-1.48.84 1.42.63 3.16.54 4.72a106.76 106.76 0 00.4 12.89c.33 5.38.49 10.72.38 16.11 0 .95-.42 5.69-.19 5.9-1.7 1.91-4.49 2.07-6.87 2.05-7.66-.08-16-4.25-21.51-9.22S27.2 48 24.81 40.76a19.91 19.91 0 01-1.12-5.56z"
      fill="#e4e5e5"
    />
    <path
      fill="none"
      stroke-width="0.86px"
      stroke-linecap="round"
      stroke-linejoin="round"
      stroke="#9f9f9f"
      className="BateauPapierB1-C_svg__d"
      d="M37.24 49.38c0 .17-.08.22 0 .35C43.51 45 49.4 39.55 55.62 34.65c3.14-2.48 6.52-4.74 9.51-7.38M65 27.54c-6.09 10-14 19.33-21.1 28.66"
    />
    <path
      d="M38.94 51.92c-3.36-3.41-6.35-7.21-9.55-10.77C24.91 36.18 5.07 16.69.5 11.29c.37 8.11 1.84 16.32 3 24.35 1 6.82 1.64 13.74 2.3 20.61a3.12 3.12 0 001.43 2.64c3.4 2.91 6.52 6.17 9.93 9.11 9.91 8.51 21 15 32.67 20.71 2.46-.24 5.49-2 7.79-2.83 5.77-2.2 11.38-4.75 17.23-6.76 8.06-2.76 16.68-4.73 24.31-8.42a13.07 13.07 0 00-2.67-.57c-3.43-.62-6.59-1.93-9.93-2.87-9.48-2.65-19.12-4.12-28.67-6.41-3-.72-6-1.4-9-2.26-1.9-.56-4.61-1.1-6.29-2.17-1.35-.88-2.47-3.29-3.66-4.5z"
      fill="#fff"
    />
    <path
      fill="none"
      stroke-width="0.86px"
      stroke="#cececd"
      stroke-miterlimit="10"
      className="BateauPapierB1-C_svg__f"
      d="M6.34 57.37c7.07-1.64 14.51-2.15 21.77-2.8 3.55-.32 7.12-.65 10.68-.89a7.91 7.91 0 002-.24M44.5 55.66c-.34-.11-.1 0-.13.44-.12 2 1.13 4.29 1.41 6.3a129 129 0 002.63 13c1.07 4.28 2.7 8.5 3.66 12.78"
    />
  </svg>