<?xml version="1.0" encoding="utf-8"?>
<svg version="1.1" xmlns="http://www.w3.org/2000/svg" xmlns:xlink="http://www.w3.org/1999/xlink" x="0px" y="0px"
	 viewBox="0 0 23 23" style="enable-background:new 0 0 100 100;" xml:space="preserve">
	 <path d="M17.733 7.93c-.593.775-1.477 1.07-2.324 1.102-.653.025-1.303-.086-1.954-.161.075-.321.109-.66.106-.994-.006-.729-.164-1.441-.319-2.142-.906 1.359-2.788 1.326-3.664-.065a9.599 9.599 0 0 0-.365 2.685c.001.18.011.367.033.551-.556.07-1.11.147-1.667.126C6.733 9 5.849 8.705 5.255 7.93c-1.937 2.945-3.446 4.265-5.261 6.532 1.876-.925 3.627-1.442 4.541 1.35.319-1.002 1.056-1.996 2.063-1.996.842 0 1.439.398 1.84 1.724.097-.624.504-1.151.99-1.281.486-.13 1.022.143 1.306.665.192.352.256.787.334 1.206.213 1.142.32 1.417.423 2.566 0 .022.007.022.008 0 .103-1.149.209-1.417.423-2.566.078-.419.142-.854.334-1.206.284-.522.821-.795 1.306-.665.486.13.892.656.99 1.281.411-1.575 1.458-1.711 1.946-1.587.976.248 1.438.898 1.956 1.86 1.04-2.673 2.751-2.195 4.541-1.35-1.816-2.268-3.324-3.589-5.262-6.533z"
          fill="#000" />
  </svg>