<?xml version="1.0" encoding="utf-8"?>
<svg version="1.1" xmlns="http://www.w3.org/2000/svg" xmlns:xlink="http://www.w3.org/1999/xlink" x="0px" y="0px"
	 viewBox="0 0 100 100" style="enable-background:new 0 0 100 100;" xml:space="preserve">
	 <path
        d="M7.8 40.2c.4-.3.9-.4 1.3-.6 2.4-.7 5-1.4 7.5-1.7 1.2 0 2.4-.1 3.6-.2 1.6-.2 4.5-.8 5.3-2.6.2-.5.2-1.2.3-1.7.1-.6.3-1.2.5-1.8.4-1.2.9-2.3 1.5-3.4.6-1 1.3-2 2.2-2.7.4-.3.9-.8 1.4-.8.6 0 1.1.6 1.8.5 0 .1 0 .2.1.2.1.1.3.1.5.2.4.1.9.2 1.3.3s.9.2 1.3.3c1.2.3 2.5.7 3.7.8 1.3.1 2.4.2 3.7.6 2.4.7 4.7 1.7 7.1 2 .3 2.5-1 4.9-1.2 7.5-.2 2.1.3 4.2 1.4 5.9.3.4.6.9 1 1.2s1.1.4 1.4.7c.6.6.1 3-.1 3.8-.2 1-.6 1.9-.9 2.8s-.7 1.7-1.1 2.6c-.6 1.1-1.3 2-2 3-.7.9-1.4 1.9-2.2 2.8-1 1.7-3.2 3.1-5.2 3.8-1.7.6-2.9-.2-4.3-1-1.2-.6-2.2-1.5-2.8-2.7-.4-.7-.7-1.6-1.1-2.3s-1-1.4-1.8-1.7c-3.9 1.8-8.5 3-12.8 3.6-2.7.4-5.6.5-8.1-.5-.9-.4-1.7-.8-2.5-1.3-.6-.4-1.3-.7-1.8-1.2-1.3-1.1-2.1-2.4-2.5-4.1-.6-2.4-1.1-5.8.1-8.1.8-1.6 1.9-3.1 3.4-4.2z"
        fill="#f6d5af"
      />
      <g fill="none">
        <path d="M14.1 38.2c.3-.1.6-.1 1-.1-.3 0-.7 0-1 .1zM68 11.7c.2 0 .4.1.5.2-.2-.1-.4-.2-.5-.2zM65.1 11.5c-1.6 0-3.1.3-4.7.7 1.6 0 3.8-.7 4.7-.7zM69.1 12.8v-.2c-.1.1-.1.1 0 .2zM66.1 20.7c.1 0 .4.1.6.1-.2 0-.4 0-.6-.1zM84.6 52.6c-.1-.2-.3-.3-.4-.4.2.1.3.3.4.4zM47.4.9zM56.7 4.2c.6-.1 1.2-.1 1.8-.1-.6-.1-1.2 0-1.8.1zM73.1 51.7c-.3.1-.5.2-.8.3.3 0 .6-.2.8-.3zM33.6 27.4c-.1-.3-.4-.5-.8-.5.4 0 .7.2.8.5zM29.7 27.6c.3-.2.7-.3 1.1-.4-.3 0-.7.1-1.1.4zM26.6 33.2c0-.6.2-1.2.4-1.8-.2.6-.4 1.2-.4 1.8zM55.9 46.5c.6.3 1.2.5 1.8.6l-1.8-.6zM48.4 1.9v-.2c0-.4-.3-.5-.6-.6-.1 0-.3-.1-.4-.2.5.2.8.6 1 1zM64.9 44.1c-.6.8-1.3 1.4-2.1 2.1.8-.7 1.5-1.4 2.1-2.1z" />
      </g>
      <path d="M59.4 38.2z" fill="#b67e63" />
      <path
        d="M72.3 52.1c-.1.1-.3.1-.4.2.2-.1.3-.2.4-.2zM84.2 52.2c-.1-.1-.2-.2-.3-.4.1.1.2.3.3.4zM33.6 58.2c-.1-.2-.1-.4-.1-.6 0 .2.1.4.1.6zM65.4 52.4l.2.2c-.1-.1-.2-.1-.2-.2zM89 58.6l-.6-.3c.2.2.4.2.6.3zM73.2 74.2c.1 0 .1 0 .2.1-.1 0-.1-.1-.2-.1zM69.4 67.6c.1 0 .2 0 .3.1-.1-.1-.2-.1-.3-.1zM86.2 90.7c0 .3-.2.5-.4.7.2-.1.4-.4.4-.7zM87.5 93.1l-.2-1v.2c.1.2.1.5.2.8zM87.5 93.1c-.6.2-1.3.3-1.7.7zM70.6 63.8v.6c-.1-.2 0-.4 0-.6zM67.3 53.1c-.4.1-.7.2-.9.4.3-.2.5-.3.9-.4z"
        fill="#eae1ce"
      />
      <path
        d="M46.2 50.7c-.3.4-.6.8-1 1.2.4-.4.7-.8 1-1.2zM39.6 53c-.2.1-.4.2-.5.2.2 0 .4-.1.5-.2zM48 46.8c-.6.6-1.3 1.1-2 1.5.7-.5 1.4-.9 2-1.5zM39.1 53.2c-1.1.5-2.2.9-3.2 1.4 1-.4 2.1-.9 3.2-1.4 0 .1 0 .1 0 0zM33.5 57.6v-.1z"
        fill="#f6d5af"
      />
      <path
        d="M85.6 89.1h.2s-1.3-1.3-1.6-1.4c-.9-.2-1.6-.1-2.3-1-.1-.1-.2-.3-.2-.5s.1-.3.2-.4c.4-.5.8-1 .7-1.6 0-.2-.1-.4-.3-.6-.6-.8-1.6-1.9-2.5-2.2-.6-.2-2.3-.3-2.4-1.1 0-.3.2-.5.4-.7.6-.6 1.2-1.3 1.4-2.1.3-1.2-.5-3.2-1.7-3.6-.1 0-.2-.1-.4-.1h-.7c-.6.1-1.9.6-1.7-.5.1-.4.3-.6.5-.9.4-.6.7-1.3.8-2 0-1-.7-2.2-1.7-2.5-.9-.3-1.8-.4-2.7-.7-.2-.1-.3-.1-.4-.3-.2-.1-.2-.2-.2-.4.1-.9.2-1.9-.1-2.8-.1-.4-.4-.9-.3-1.3s.6-.7 1-.9c1.9-.9 4-1.6 6-2 .6-.1 1.2-.3 1.8-.2 1.2.1 1.9.9 2.6 1.8.6.8 1.6 1.1 2.1 1.9.3.4.3 1 .7 1.3.4.4 1.1.4 1.5.8.8.8.7 1.8 1.8 2.5.3.2.7.2 1 .2 1.1 0 2.3.6 3.4.3.6-.2 1.4-.1 1.8-.7.3-.4.6-2.3.5-2.9-.1-.4-.4-.8-.6-1.2-.3-.5-.7-1-1.1-1.4-.7-.8-1.6-1.3-2.5-2-1.7-1.2-3.1-2.8-4.2-4.6-.8-1.3-1.5-2.7-2.6-3.9-1.6-1.7-3.4-2.2-5.5-1.6-1.1.3-2.4 1.3-3.5 1.7-1.1.6-2.7 1.5-3.8 1.5-.8.3-1.7.6-2.6.5-.8-.1-2.4-1-2-1.9.4-.8 1.8-.8 1.4-2.1-.1-.4-.3-.7-.5-1-.7-.8-1.7-2.8-2.4-2.3-.7.6-2.1 1.6-3 2-2.1 1-3.6.9-5.7 0-.4-.2-1.7-.3-1.9-.6-.1-.1-.5.1-.6 0-.3.8-.6 1.7-1 2.5-.6.9-1.1 1.8-1.6 2.7-.9 1.5-1.8 2.9-2.7 4.4-.7 1.2-1.4 2.5-2.2 3.7-.3.4-.8.8-1.2 1.1-1.3 1.1-3.2 1.7-4.9 1.6s-3.2-1.3-4.1-2.7c-.6-.9-1.4-3.6-2.6-3.8-1.1-.2-.8 1.9-.7 2.5.2 1.5.8 2.8 1.6 4.1-1 .6-1.7 1.6-1.8 2.8s.2 2.3 1 3.2c.2.2.4.4.4.6.2.6-.4 1.1-.8 1.5-.8 1-.8 2.5 0 3.5.2.2.4.5.4.8s-.2.4-.4.6c-.7.6-1.5 1.5-1.2 2.4.1.2.3.5.5.6 1 1.1 2.3 1.9 3.6 2.5 1.4.6 3.1.5 4.5 1.2 1.5.8 2.9 1.7 4.1 2.8 1.4 1.2 2.7 2.6 3.3 4.4.3 1 .6 2.4.3 3.3-.1.3-.3.8-.7.9 0 0-1.9-.5-1.8-.2 0 .1 0 .2.1.2.9.7 1.8 1.3 3 1.5 1.3.2 2.5.9 3.9 1 1.6.2 3.2.4 4.9.6 4.4.5 8.7 1.2 13.1 1.4 0 0 1.5.4 3.5.7.3 0 .6.1.9.1.9.1 1.8.1 2.7 0 .6 0 1.2-.1 1.7-.4 0 0 .1 0 .1-.1.5-.2 1-.4 1.4-.7 0 0 .1 0 .2-.1.4-.2.8-.5 1.2-.7 1-.7 1.9-1.5 2.6-2.6.6-.8 1.1-1.7 1.4-2.5s.3-1.8.2-2.7c-.1-.3-.2-.7-.4-.9-.3-.4-.3-.4-.6-.3z"
        fill="#eae1ce"
      />
      <path
        d="M51.5 96.2c.8.2 1.6.4 2.3.6.7-.4 1.5-.7 2.3-.6.3-.4 0-.7-.1-1 .1-.2.1-.4.2-.5.4-.3 1.1 0 1.3-.7-.2-.2-.5-.5-.7-.8 0-.2 0-.4-.1-.5-.2-.3-.5-.6-.8-.9-.1-.1-.3-.2-.4-.2-.5-.1-1-.1-1.7-.1-.1-.1-.1-.3-.2-.6-.6 0-1 .4-1.4.8-.7-.5-1.3.2-1.9.3-.9.1-1.1 1.2-1.6 1.8.1.3.2.6.2.9-.1.3.1.5.2.7.1.1.2.3.2.3-.1.3-.2.4-.3.6.4.1.8.3 1.2.4.5-.4.9-.6 1.3-.5zM65 98.3c.3.3.6.3 1 .2l.3-.6c-.2-.4-.3-.7-.5-1.1v-.2c-.2 0-.4 0-.5-.3 0-.1.1-.3.2-.4 0 0 .2 0 .3.1v.1c.3 0 .2-.1.2-.2 0 0 0-.1-.1-.1 0-.1-.1-.2-.1-.2 0-.2.1-.3.4-.4V95c-.4-.1-.5-.4-.6-.8 0-.1-.1-.2-.1-.2-.3 0-.2-.2-.2-.4-.4-.4-.7-1.1-1.5-.8-.1 0-.3-.1-.5-.1-.4-.1-.7-.4-1.1-.3-.7.1-1.4.3-2 .8s-1.1 1.1-1.6 1.7c.3.4-.1.8.3 1.1.3.2.3.5.3.9l.4.4c.3.5.8.8 1.4.8.5 0 1 .2 1.4.5.5.4.8.5 1.3.2.1-.1.2-.1.3-.2.3-.4.7-.5 1-.3zM87 92.4c-.5.3-1-.1-1.3-1 .3-.2.4-.4.4-.7v-.3c0-.1 0-.3-.1-.4 0-.2-.1-.3-.2-.5s-.2-.3-.2-.5c-.2 0-.3 0-.5.1-1.5.3-2.7 1.3-4 2-1 .6-1.7 1.3-2.2 2.4-.2.4-.2.7.1 1.1.5.6 1.2.9 1.9 1.2h.6c.1-.3.4-.4.8-.3.3 0 .6-.2.9-.3.4 0 .8 0 1.2-.1.2-.2.4-.5.6-.8h.4c.1-.2.2-.4.3-.5.4-.4 1.1-.5 1.7-.7-.1-.3-.2-.6-.3-.8.1 0 0 .1-.1.1z"
        fill="#cdc3ac"
      />
      <path d="M12 60.1h-.2c.1.1.2.1.2 0 0 .1 0 .1 0 0z" fill="#30251d" />
      <path
        d="M89.3 68.2v.1l.6-.3c0-.1-.1-.2-.1-.3-.5-.5-.4-1.1-.4-1.7.5.2.9.4 1 1 0 .1.2.3.3.4v.5c.1 0 .2.1.3.1s.2.1.3.2c.1-.3.2-.6.4-.8-.2-.5-.4-.9-.7-1.4-.1-.2-.1-.4.2-.4-.2-.2-.3-.5-.5-.7s-.4-.4-.6-.5-.5.1-.9.1c0-.1-.1-.2-.1-.4.1-.4-.1-.7-.3-.9-.4-.3-.4-.6-.1-1-.3-.1-.5-.3-.7-.4s-.4-.2-.5-.3c-.3.1-.5-.2-.7-.4-.1-.1-.2-.2-.3-.4 0 .1 0 .2-.1.4-.2-.2-.2-.2.1-.4-.2-.3-.3-.6-.5-.8 0 0 0 .1-.1.1l-.6-.3c-.1-.1-.3-.2-.4-.3-.6-.6-1.2-1.1-1.9-1.7-.1 0-.2.1-.3.2-.7-.5-1.4-1-2-1.4-.1-.4-.1-.6-.2-.9-.2.1-.2.1-.3.2-.1-.2-.1-.3-.2-.4-.2 0-.3.1-.5.1H78c-.1 0-.2.1-.3.2-.4.4-.9.6-1.5.7-.9.2-1.9.5-2.7.9-.9.5-1.9 1-2.9 1.3-.1 0-.2 0-.2.1-.2.5-.8.5-1.1.8-.3.2-.5.3-.8.1-.3-.1-.5 0-.7.2s-.3.5-.5.7c-.7.5-1.1 1.2-1.3 2 0 .1-.1.2-.1.3-.1.2-.2.3-.2.5 0 .3-.1.5-.3.7-.6.6-1.3 1.2-1.2 2.2.2.2 0 .2-.1.2v.1c.1.2.3.4.4.6-.2.1-.3.2-.4.2-.1.3.6.3.2.7-.1.2-.2.4-.2.6.3 0 .2.2.2.4.1.2.1.4.3.5.3.2.6.5.9.4.5-.2.9 0 1.3.1.8.1 1.4-.2 1.7-.9.2.1.4.2.8.3-.1-.2-.1-.3-.2-.4.2-.1.3-.1.5-.2 0-.1-.1-.2-.1-.3.1 0 .3 0 .4-.1-.7-.4-.7-.4.1-.7h-.3c-.1 0-.2 0-.3-.1.1-.2.2-.3.4-.5.1-.1.2-.3.3-.4.2-.3.3-.6.4-.9v-.5-.2-.5-.2-.6c0-.2-.1-.4-.2-.6-1 .5-2 1-2.9 1.4l-.1-.1c.3-.4.5-.8.8-1.1 1.2-1.3 2.5-2.2 4-2.9.5-.2 1-.4 1.6-.6l.9-.3c.9-.3 1.8-.7 2.7-.8.2 0 .3-.1.5-.1.3-.1.7-.1 1 0 .2 0 .3.1.5.2.3.1.6.1 1 .2.1 0 .2.1.3.1s.2.1.3.2c.7.5 1.4 1.1 2.1 1.6.3.2.6.4.8.7.2.2.4.4.5.6.5.6.8 1.3 1.5 1.8s1.2 1.4 1.6 2.2c.1.3.4.5.7.6.2.1.3.2.4.4s.2.3.2.5c0 .1.1.2.1.3.3-.4.2.2.5.1z"
        fill="#cbc1ab"
      />
      <path
        d="M94 67c-.1-.3-.2-.6-.4-1.1-.1.3-.1.4-.2.6 0 .2.1.4.1.5.1.5-.1.6-.5.6-.1 0-.3-.1-.4-.1-.1.2-.2.3-.3.5-.4 0-.5-.2-.6-.5h-.1c-.1.3-.2.5-.4.8-.1-.1-.2-.1-.3-.2-.1 0-.2-.1-.3-.1l-.4.4c-.2-.1-.3-.2-.4-.3l-.6.3v-.1c-.3.1-.1-.5-.5-.3.1.2.1.3.2.5s.1.3.2.5c-.1 0-.3 0-.4-.1s-.2 0-.4-.1c-.2.8-.5 1.6-.7 2.4-.1.4-.1.7-.2 1.1s-.1.7-.2 1.1c-.1.7 0 1.2.3 1.8.1.2.2.4.3.5l.2.2c.1.1.2.1.3.2.2-.2.3-.3.4-.3-.1-.3-.2-.5-.3-.7v-.2-.9c0-.3 0-.6.1-.9 0-.3.1-.6.1-.9.1-.3.1-.6.2-.8 0-.1.1-.3.2-.4s.1-.3.2-.4V72.3c0 .4.1.8.1 1.2 0 .2 0 .4.1.6.1.3.3.6.5.9.1.1.3.2.5.3.1.1.3.2.4.3s.2.2.4.3c.1.1.2.1.3.2s.2.1.3.2c.2-.2.4-.3.5-.5.1-.1.2-.2.3-.4.3-.8.6-1.6.9-2.5.2-.7.4-1.4.6-2 .1-.2.2-.4.2-.6.1-.2.2-.4.2-.6.1-.3.1-.7.2-1 0-.3.1-.7 0-1v-.8-.2c-.1-.2-.2-.5-.4-.7l-.3 1.2c.1-.2 0-.2 0-.2z"
        fill="#b67e63"
      />
      <path
        d="M77.7 93.2l-.6-.9s.1-.1.2-.1l-.9-.3c-.2-.1-.5-.2-.7-.3-.5-.4-1.1-.4-1.8-.4-.1.6-.5.6-1 .6-.3 0-.6.2-.8.3-.4.2-.6.6-1 .8-.6.3-.9.8-1.1 1.3-.3.9-.5 1.8-.8 2.8.2.2.5.4.9.4.2 0 .4 0 .6.1.5.1.9.3 1.4.5.2 0 .4 0 .7-.1.3.3.6 0 .9-.2.6-.4 1.1-.6 1.8-.5 0 0 .1 0 .1-.1 0-.2 0-.4-.1-.6.5-.1 1-.1 1.4-.2.2-.3.4-.6.4-.9.1-.2-.1-.5 0-.7.1-.6.3-1.1.4-1.5zM67.1 90.8c.4-.1.7 0 1 .2.2.2.4.3.7.1.1 0 .2.1.3.2h.5c.1-.5.3-.8.7-1v-.4c.2-.1.4-.1.6-.2.3 0 .6.1.8.1.3-.2.4-.3.5-.4.2-.1.3-.1.5-.2.4-.2.4-.4.2-.7-.1-.2-.2-.5-.3-.7.3-.2.5-.4.7-.6 0-.1-.1-.2-.1-.3-.5-.6-.9-1.2-1.4-1.8-.1-.2-.4-.2-.6-.3s-.4 0-.7-.1c0 0-.1.1-.2.1-.1-.1-.2-.3-.3-.3-.5.2-1 .4-1.5.4-.5.1-1 .3-1.3.6s-.6.4-1.1.4c-.1 0-.1 0-.2.1v.2c-.8.7-1 1.7-1.3 2.6.1.2.2.3.4.5-.3.3 0 .6.1.9.4.1.8.2 1 .6h.2c.2 0 .4 0 .4.2.2 0 .4.1.6.1l.2-.2c0 .2-.2.1-.4-.1z"
        fill="#cdc3ac"
      />
      <path
        d="M77.7 76c-.3 0-.6-.1-.9-.1-.3.1-.5.3-.7.3-.3 0-.5.1-.7.4-.1.1-.2.1-.3.2-.2.2-.5.3-.7.5-.4.2-.7.3-1.1.5l-.6.3c-.2.1-.3.2-.4.3-.2.2-.5.4-.7.6-.9 1-1 2.3-1.4 3.5.4.2.9.6 1.3.4.3-.1.5-.4.8-.7.3-.1.5.2.8.5.4.3.7.4 1.2.3.4-.1.7-.3 1.1-.5.3-.2.6-.3.9-.5v.1c.2-.3.4-.5.6-.8.2.1.4.1.7.2.1 0 .2-.1.3-.2-.4-.1-.7-.1-1-.2.2-.5.4-.9.6-1.4s.4-.9.6-1.4c.1-.2.1-.3.2-.5s.1-.3.2-.5.1-.3.1-.5v-.6l-.9.6c.1-.4 0-.6 0-.8z"
        fill="#cbc1ab"
      />
      <path
        d="M63 88.7c-.2-.6-.1-1.2.1-1.8l-.3-.3c-.4-.4-.9-.8-1.6-.5-.2.1-.4 0-.6-.1-.4-.3-.8-.3-1.1-.1-.2-.3-.4-.5-.6-.7-.3 0-.6.1-.8.1v.1H57c-.6.1-1 .5-1.4.9 0 .3-.1.7.2.9v.2c0 .8-.1 1.5-.1 2.3.1.4.4.7.7.9.2-.1.4-.2.5.1h.2c.1 0 .2-.1.3 0 .3.2.5.5.7.8h.5c.2 0 .3-.1.4-.1.1-.1.1-.2.2-.3h.8c.3 0 .6 0 .7.4.2.1.4.2.7.4.1-.2.1-.4.2-.6-.2-.2-.3-.4-.5-.5.5-.3.8-.6 1.2-.8 0-.1.1-.2.1-.4.1-.7.2-.8.6-.9zM58.1 77.8c.1 0 .2.1.4.2.6.4 1 .4 1.5-.1.4.5.9.1 1.3.1.1-.2.1-.4.2-.5.3-.1.7.3.9-.1l.6.3c.5.2.8.1.9-.5v-.4c-.1 0-.2-.1-.2-.1.2-.4-.1-.8.1-1.1v-.7c0-.1.2-.2.2-.3.1-.2.1-.5.2-.7-.1-.2-.3-.5-.5-.8V73c-.2 0-.3-.1-.5-.1-.3-.1-.5.1-.7.1-1.1-.2-1.1-.2-1.9.1-.4.1-.9.2-1.3.4s-.7.3-1 .3c-.3.3-.6.5-.9.8 0 .2 0 .5-.2.6-.2.3-.2.8 0 1.3.1.5.3 1.1.9 1.3z"
        fill="#cdc3ac"
      />
      <path
        d="M73.7 70.5c-.2-.1-.5-.2-.7-.2l-.5-.5c-.6.3-1.1.6-1.6.9-.1.1-.1.2-.3.5l-.5-.5c-.5.1-.8.4-1.1.9-.2.4-.6.7-.8 1.1s-.7.7-.5 1.3v.6c-.1.1-.2.1-.3.2 0 .3 0 .6.1 1 .2.3.5.5.9.3h.1c.4.4.7.2 1-.1l.1.1c.2.1.4.1.7.2v-.4c.8-.3 1.5-.3 2.3-.2.3-.2.7-.4.3-.9.2-.2.6-.1.5-.5-.1 0-.1 0-.2-.1-.1 0-.1 0-.2-.1.4-.7.8-1.3 1.2-1.9 0-.1.1-.1.1-.2s.1-.1.1-.2c.4-.6.7-1.3.7-2.1-.2.1-.3.2-.5.3 0 .6-.5.7-.9.5z"
        fill="#cbc1ab"
      />
      <path
        d="M58.2 82.2c.1 0 .2.1.3.2l.4-.4c-.2-.5-.5-1-.7-1.4 0-.3.1-.5 0-.7s-.3-.4-.5-.6c-.3-.2-.5-.5-.8-.7 0 0 0-.1.1-.1-.3 0-.6.1-1 .1-.2-.1-.4-.2-.6-.4-.5-.5-.8-.6-1.6-.1-.3.2-.6.4-.9.5s-.5.3-.6.6c-.3.7-.6 1.3-.9 2-.2.5 0 .8.6.9.2 0 .4.2.5.4.2.2.4.5.7.7.1 0 .3-.1.4-.1.9.6 2 .6 3 .8.3-.8.8-1.4 1.6-1.7zM62.4 69c.3-.3.1-.8.5-1v-.3c-.1-.1-.2-.3-.3-.4 0-.2.1-.4.1-.7-.3-.4-.6-.7-.9-1.1-.1 0-.3.1-.5.1-.3.1-.7.2-1 .1-.4-.2-.8-.1-1.2-.1-.5 0-.9.1-1.3.4-.9-.3-1.6.5-1.9 1.4v.5c0 .1-.2.3-.2.3l.6 1.2c.1.2.5.3.3.7.3.4.7.7 1 1.1.2.1.5.1.6.2l1.8-.6c.4-.3.7-.6 1.1-.9.1 0 .2 0 .3.1h.2c0-.1 0-.1.1-.3l.4.4c.2 0 .4.1.6.1v-.7c-.3-.1-.5-.3-.3-.5zM65.1 83.6c.1-.1.2-.2.3-.2l.7-.7c.1 0 .3-.1.6-.2 0-.2.1-.5.1-.8h.4c.3-.1.7-.1 1.1-.2-.2-.3-.4-.6-.6-.8-.5-.6-1.3-1-1.5-1.9 0-.1-.1-.1-.1-.1l-1.2-.9h-.2c-.8.5-1.5 1.1-2.2 1.6-.3.2-.5.5-.7.7-.5.4-.6 1-1 1.4-.1.3.1.7-.4.9v.4c.2.7.7.9 1.4.9.3 0 .5.3.6.6h.1c.2.1.3.1.5.2s.4.2.6.4c.1-.4.4-.5.8-.4v-.1c.1-.7.3-.8.7-.8z"
        fill="#cdc3ac"
      />
      <path
        d="M53.8 47.6c.1.1.2.2.3.4.8.2 1.5.5 2.4.7 0 .1.1.2.2.4h.4c3.1.6 5.8-.1 8-2.4l-.2-.2c-.1-.1-.2-.1-.3-.2.4-.4.7-.8 1.1-1.2 1-.9 1.7-2 2.2-3.3.1-.3.1-.5.1-.8v-.4-.5c-.1.2-.2.3-.3.5-.1.1-.2.3-.3.4-.6.8-1.3 1.5-1.8 2.3-.2.3-.4.5-.6.8-.6.8-1.3 1.4-2.1 2.1-.5.4-.9.8-1.5.9-.3.1-.7.2-1.1.3-.6.1-1.1 0-1.7-.1-.3-.1-.6-.1-.9-.2-.6-.2-1.2-.3-1.8-.6-.3-.1-.6-.3-.9-.5-.2-.1-.4-.2-.6-.2.1.1.2.3.3.4-.6.3-1.1.7-.9 1.4z"
        fill="#c8bea7"
      />
      <path
        d="M79 83.5c-.8.6-1.6 1.2-2.3 1.8-.4.4-.7.8-1.1 1.3-.1.4.3.7.3 1.1 0 .2.4.3.6.5.1.4.3.7.8.8.2 0 .4.2.6.3.3.1.5.2.8.3-.1-.2-.1-.4-.2-.6h1c.1 0 .3 0 .4-.1.4-.2.6-.6.7-1.1.3 0 .7-.1 1-.1l-.8-.8c.2-.4.4-.7.5-1 .2-.3.3-.6.5-.9.1-.1.1-.3.2-.4.1-.4.1-.7-.1-1.1-.1-.2-.3-.5-.4-.7l-1.5.3c-.4 0-.7.2-1 .4z"
        fill="#cbc1ab"
      />
      <path
        d="M48.3 89.2c.4-.2.8-.3 1.2 0 .3.2.6.5 1.1.3.1-.7.1-.7.8-.6.3.1.7 0 1.1 0-.1-.5-.1-.9-.2-1.2.1-.2.2-.3.3-.5h1c.3-.7.3-.9-.3-1.4-.2-.1-.3-.3-.4-.5.1-.2.2-.4.3-.7-.3-.1-.5-.4-.8-.4-.6 0-1.1 0-1.6-.3h-.4c-.4.1-.8.3-1.1.4-.5.2-.9.3-1.4.5-.1 0-.1.1-.1.1-.3.4-.7.5-1.1.7-.1.3-.3.6-.4.8.8 1 1.5 1.8 2 2.8zM38.2 82.2c.4 0 .7.1 1.1.3 1.5.7 2.9 1.5 4.4 2.2 0-.3 0-.6-.1-.8-.3-.4-.4-.9-.4-1.4.4-.1.3-.3.2-.5l-.6-.9c.6-.1 1.1.1 1.2.4.1.2.3.4.5.7.4 0 .8 0 1-.4.2.2.3.3.5.4h.2l.3-.3c.1-.1.1-.4.4-.2.2 0 .4.1.6.1H47.8c.1 0 .3-.1.3-.1.4.2.7.1 1-.2 0 0 .1.1.2.1.1-.1.2-.2.3-.2 0-.1.1-.2.1-.3v-.6c-.4-.2-.4-.2-.1-.5v-.6c.1-.2.2-.3.3-.6 0 0 0-.2-.1-.4-.1-.1-.2-.2-.3-.4-.1 0-.1 0-.3-.1.2-.3.4-.5.7-.8.1-.2.2-.4-.1-.5-.1-.1-.4-.1-.5-.1-.2.1-.2.1-.4.1h-.5c-.6.2-1.3.2-1.9.4-.8.2-1.5.6-1.9 1.3-.1 0-.2 0-.4-.1-.5.9-.9 1.7-1.3 2.5H42c-.7-.9-.9-1-1.5-1.1-.3.1-.6.3-1 .3-.5.1-.9.2-1.3.5l-.5.5c0 .3-.1.6-.1 1 .2.2.4.3.6.3zm6.1-3.2c.1-.2.3-.4.5-.5.7-.6 1.5-.9 2.3-1.2 1.2-.4 1.9.1 2 1.3v.7c0 .4.1.9.1 1.3 0 .2-.1.4-.3.5s-.5.2-.8.1-.6 0-.9.1c-.2.1-.4.2-.6 0-.1-.1-.4 0-.6 0-.6.2-1.5-.1-1.7-.8-.2-.5-.2-1 0-1.5zM51.5 75.4c.1 0 .3.1.4.2.2.1.4.1.5.2.5.2.8.1 1.1-.4.5-.1 1 0 1.5-.3.3-.1.6-.2.8-.3.1-.1.3-.1.4-.3.2-.3.3-.6.4-.9-.6-.4-.9-.8-.7-1.5-.3-.3-.7-.5-1-.8-.4-.5-.9-.5-1.5-.4-.1 0-.3.1-.4.1l-2.1.3-.1.1c-.1.2-.2.3-.3.5 0 .2-.1.3-.1.5.2.5 0 .8-.5 1.2v.1l.1.1.3.6c.1 0 .1 0 .2.1v.1c-.1 0-.2.1-.4.1v.2c.3 0 .6 0 .8.2.2.3.4.2.6.3zM48.8 70.9c-.2-.2-.4-.3-.6-.5.1-.1.1-.2.2-.3-.4-.2-.7-.5-1-.7-.3.1-.5.2-.7.4-.2.3-.5.6-1 .6-.9 0-1.6.4-2 1.2-.2.4-.4.8-.5 1.2-.1.5 0 .9-.1 1.4s-.1.6.3.9c.2 0 .5 0 .7-.1 0-.1-.1-.2-.1-.3.6 0 .6 0 .9-.3.1-.1.3-.2.4-.2.7.1 1.3.3 2 .5h.4c0-.3 0-.6.5-.8.3-.1.5-.6.8-.9.1-.1.2-.2.2-.3v-.2c0-.2-.1-.3-.1-.5-.1-.3-.5-.6-.3-1.1z"
        fill="#cdc3ac"
      />
      <path
        d="M65.3 49.3c-.1.1-.2 0-.2.1-.3.2-.7.4-1.1.7h-.3c-.3.6-.4.7-1.2.9-.3.1-.6.3-.7.6s.4 1.6.7 1.8.7.4 1.1.7c-.5.4-.9.8-1.4 1.3-.2-.3-.3-.5-.4-.8l-1.2 1.2c-.5.5-.4.6.2.9.2-.1.5-.2.8-.3l.9-.9c.1-.1.2-.2.3-.2 1.1-.7 2.3-1.2 3.5-1.8.3-.1.5-.2.9-.4-.4-.2-.9-.2-1.3-.3-.1 0-.2 0-.2-.1-.1 0-.2-.1-.2-.1l-.2-.2 1.2-1.2.2-.2c.1-.1.1-.1.1-.2.1-.2.1-.3.2-.5.1-.5.1-1-.1-1.5-.6-.1-1.1.1-1.6.5z"
        fill="#cbc1ab"
      />
      <path
        d="M42.8 63.1c.1.1.1.2.1.3s.1.2.2.2c.4.2.8.4 1.2.7.4.2 1 .4 1.2 1-.2.1-.4.2-.6.2-.5.1-.9.3-1.1.8-.3.5-.4 1-.6 1.5.5.3.9.6 1.4.9.5-.3.9 0 1.4.3 0-.1.1-.2.1-.3.1-.2.4-.2.8-.1.2 0 .4-.1.6-.1 0-.1-.1-.2-.1-.3h.5v-.4-.6s-.1-.1-.2-.3c.2 0 .3 0 .4-.1-.1-.1-.2-.2-.2-.3-.2-.2-.3-.5-.5-.8.4-.3.6-.6.5-1-.7-.3-1 .3-1.5.6-.5-.6-1-1.2-1.3-1.8-.3-.4-.5-.8-1-.9h-.3c-.3.2-.6.3-1 .5z"
        fill="#cfc5ae"
      />
      <path
        d="M40.2 78.3c.6.2 1.1.2 1.6 0l.9-.3v-.1c0-.1 0-.3.1-.4.4-.3.2-.7.1-1-.2-.4-.3-.7-.4-1.1 0 0 .1-.1.1-.2s-.1-.2-.1-.4c-.2-.1-.4-.2-.6-.4-.1-.1-.2-.3-.3-.4h-.2c-.4-.4-.8-.5-1.3-.1h-.4c-.2.3-.3.7-.6 1-.4.5-.3 1-.2 1.5.1.3 0 .6-.3.7.1.2.2.3.2.5h.1c.3.3.8.5 1.3.7z"
        fill="#cbc1ab"
      />
      <path
        d="M58.3 63.5c.5-.2 1.1-.3 1.5-.8 0-.2-.1-.3-.1-.5-.4-.6-.8-1.1-1.3-1.8.2-.1.4-.1.5-.2-.3-.8-.8-1.2-1.5-1.1-.2 0-.5.1-.7.3-.6.6-1 1.4-1.3 2.2-.1.4-.3.8-.5 1.2 0 .1.1.1.2.2.6.6 1.4.9 2.2 1.1.3-.4.6-.5 1-.6zM33.2 72.9c0 .6.1 1.1.5 1.6.3.4.7.7.7 1.3.4.1.7.2 1.1.2.2-.3.4-.5.5-.7.4 0 .7.1 1.1.1 0-.3-.1-.6-.1-.8l.6-.3v-.7c-.3-.4-.6-.9-.8-1.3-.2-.3-.5-.7-.8-.9-.5-.4-1-.3-1.6-.1-.2.1-.3.3-.5 0-.6.5-.7 1-.7 1.6z"
        fill="#cdc3ac"
      />
      <path
        d="M33.9 76.9c-.4.1-.5.7-1 .4 0-.1 0-.3-.1-.5-.5.4-.6 1-.4 1.6.2.7.7 1.2 1.2 1.7.4.4 1.2.6 1.1 1.4.6.1 1.1.2 1.7.3-.1-.5.3-.8.4-1.2l-.3-.6c-.1-.2-.1-.4-.2-.5-.4-.4-.6-.9-.9-1.5-.1-.2-.3-.4-.4-.6-.2-.1-.4-.1-.6-.2s-.3-.2-.5-.3z"
        fill="#cbc1ab"
      />
      <path
        d="M51.6 68.6c.1 0 .2.1.3.1.2.1.4.1.6.2.2 0 .4-.1.6-.1v-.2c-.1 0-.1 0-.3-.1.2-.3.5-.7.7-1 .1 0 .3 0 .5-.1 0-.1-.1-.2-.1-.4-.3-.3-.5-.7-.4-1.2-.3-.6-.8-.6-1.3-.6H52c-.2.1-.3.2-.5.4-1 .5-1.5 1.2-1.7 2.3-.1.1-.2.1-.4.2.3.4.6.7.9 1 .3-.5.8-.4 1.3-.5zM40.8 68.7c-.9.5-1.5 1.3-1.9 2.2.4.8 1.3.8 1.9 1.2.3 0 .6 0 1 .1.1-.3.3-.6.5-.9 0-.1-.1-.3 0-.4 0-.2.1-.5.2-.7-.4-.3-.3-.7.1-.9-.1-.1-.1-.2-.2-.3l.3-.6c-.6-.2-1.1-.2-1.6.2-.1-.1-.2 0-.3.1zM58.4 54.5c.3-.1.6-.1.9 0 .9.2 1.5-.1 2-1.1l-.8-.8c-.1-.1-.2-.1-.2-.2 0-.5-.2-.9-.8-.6 0 0-.1 0-.1-.1-.3-.3-.6-.1-.8.1-.5-.3-.6-.3-.8.1-.3.7-.7 1.4-.2 2.3.1.3.2.4.8.3z"
        fill="#cdc3ac"
      />
      <path
        d="M51.9 63.3c.2-.1.4-.2.5-.3-.2-.5-.3-1 .1-1.5-.7-.2-1.3-.5-1.8-.7-1.1.6-2.2 1.2-2.7 2.5.3.2.6.3.9.4.1-.1.3-.2.4-.2.4.2.7.3 1.1.3s.8 0 1.1.3c.2-.1.4-.2.6-.4-.1 0-.1-.2-.2-.4z"
        fill="#cfc5ae"
      />
      <path
        d="M33.6 68c.1.6.4 1.1.9 1.5.3.2.6.5.8.7h.1c.3-.5.3-.5 1.2-.6v-.1c-.1-.2-.2-.5-.3-.8.2 0 .3 0 .5-.1 0-.1-.1-.2-.1-.3-.1-.1-.2-.1-.3-.2-.2-.2-.1-.3.1-.3l-1-1-1.2-.9c0-.3-.1-.5-.5-.5-.1 0-.1-.1-.2-.2-.1.6-.2 1.3-.3 1.9.1.4.2.6.3.9z"
        fill="#cbc1ab"
      />
      <path
        d="M55.9 58.5c.6-.1 1.1-.2 1.6-.4-.1-.7.1-1.4-.3-2.1H57v-.1l.1.1c0-.1.1-.2 0-.2-.4-.3-.7-.6-1.1-.8h-.9c-.6.4-1 .8-1.2 1.5.2.2.4.4.6.5 0 .9.1 1.1 1.4 1.5z"
        fill="#cfc5ae"
      />
      <path
        d="M62.5 63.8c.2-.3.6-.1.8-.1.2-.1.5-.2.7-.3.2-.5-.1-1.2.7-1.4v-.2c-.2-.1-.3-.3-.5-.5-.4-.1-.9.3-1.3.1-.6 0-1 .3-1.4.6-.1.5 0 1.1-.2 1.6.3.4.8 0 1.2.2z"
        fill="#cdc3ac"
      />
      <path
        d="M37.3 63.1l-.1-.1c-.2-.2-.4-.3-.6-.5l-.3-.3-.1-.1c-.2-.1-.4-.2-.5-.3-.7-.6-1.1-.6-1.8 0 .1.4.3.7.5.9l.3.3c.2-.3.4-.1.5.1.2.3.5.3.8.2.2.2.4.3.6.5 0-.2 0-.3.1-.4.2 0 .5.1.6-.3zm-.5.1c-.1-.1-.1-.1 0 0v-.1.1c0-.1 0-.1 0 0z"
        fill="#cfc5ae"
      />
      <path
        d="M55.8 50.1c-.2 0-.4-.1-.6-.1-.3.6-.6 1.1-.3 1.8 0 .1.2.1.3.2.1-.1.1-.2.2-.4.2.1.4.2.7.3.3-.5 1-.8.7-1.6v-.2c.3-.3.2-.6.2-1h-.4c-.2.4-.5.7-.8 1z"
        fill="#d8d0ba"
      />
      <path
        d="M52.6 54.9c.1.7.1.7.5.8.2-.6.4-1.1.6-1.7-.6-.3-.3-1.2-1-1.5-.5.8-.8 1.8-.6 2.1.2.1.4.2.5.3z"
        fill="#cfc5ae"
      />
      <path
        d="M49.7 59.7c.1-.1.3-.1.4-.2.6-.1.7-.6.9-1 .1-.3 0-.6-.3-.6-.4-.1-.8-.6-1.2-.2-.6.5-.4 1.6.2 2z"
        fill="#cdc3ac"
      />
      <path
        d="M91.7 67.4c.1.3.2.5.6.5.1-.2.2-.3.3-.5.1 0 .3.1.4.1.5.1.6-.1.5-.6 0-.2-.1-.4-.1-.5-.4 0-.4-.3-.5-.6-.2 0-.3 0-.5-.1s-.3-.2-.5-.2c-.2-.1-.5-.2-.6.1.4.5.8 1 1 1.8h-.6z"
        fill="#c8bea7"
      />
      <path
        d="M64.1 67.8c.1 0 .2-.1.4-.2-.1-.2-.3-.4-.4-.6-.2.1-.4.1-.6 0s-.5-.3-.8-.4c0 .2-.1.4-.1.7.1.1.2.2.3.4 0 .1.1.3 0 .3-.4.2-.2.7-.5 1-.2.2 0 .5.3.5v-.3c.3-.4.6-.9.9-1.3h.2l.6.6c.3-.4-.3-.4-.3-.7zM53.5 65.8c0 .4.1.8.4 1.2 0-.3.1-.5 0-.9-.2-.5-.5-.9-.8-1.4-.2-.5-.5-1-.8-1.6-.2.1-.3.2-.5.3.1.2.2.4.3.5-.2.1-.4.3-.6.4.2.4.6.3.8.3.3 0 .4.1.5.3-.2.2-.6-.1-.7.3.6 0 1.1 0 1.4.6zM55.8 87.2c-.3-.3-.2-.6-.2-.9l-.9.9s.1 0 .1.1v.9c.5.4.7.9.9 1.5 0-.8.1-1.5.1-2.3.1-.1.1-.2 0-.2zM68.6 76.1h-.1c-.4.2-.7 0-.9-.3 0-.4 0-.7-.1-1 .1-.1.2-.1.3-.2V74l-.6.6c-.1.2-.2.4-.2.6 0 .7.8 1.8 1.7 1.6.4-.1.9-.1 1-.6l-.1-.1c-.3.1-.6.3-1 0z"
        fill="#dcd3bd"
      />
      <path
        d="M38.2 67.4c0-.2-.1-.3-.1-.5l-.2-.2c.1 0 .1-.1.2-.1-.2-.6-.3-1.2-.5-1.7-.3.4-.5.7-.8 1.1.2.1.4.1.7.3-.3 0-.4.1-.5.1.3.5.6.8 1.1 1.1l.1-.1z"
        fill="#d8d0ba"
      />
      <path
        d="M41.8 78.3c-.5.2-1 .2-1.6 0-.5-.2-1-.4-1.4-.8h-.1c.2.3.5.7.7 1l.1-.1c.2.1.4.1.6.2s.4.3.7.5c.2-.1.5-.2.7-.3h.1c.1-.4.2-.4.5-.2h.1c.2-.1.4-.2.6-.2v-.1c-.1-.1-.2-.2-.3-.2s-.4.1-.7.2z"
        fill="#cfc5ae"
      />
      <path
        d="M60 70.7c-.5.2-1.1.4-1.8.6-.1 0-.4-.1-.6-.2.1.4.3.5.7.5.7.1 1.3-.4 1.9-.7.2-.1.4-.3.6-.6.4 0 .5-.1.6-.5-.1 0-.2-.1-.3-.1-.4.4-.7.7-1.1 1z"
        fill="#dcd3bd"
      />
      <path
        d="M38.8 76.4c-.1-.5-.2-1 .2-1.5.3-.3.4-.6.6-1h-.2c-.3.3-.7.6-.8.9-.1.4-.5.6-.6 1v.3c.3.3.4.6.6.8.2 0 .2-.2.2-.5z"
        fill="#cfc5ae"
      />
      <path
        d="M76.5 88.2c-.3-.2-.6-.4-.6-.5 0-.4-.4-.7-.3-1.1l-.3.3c0 .4.1.7.1 1.1.8.6 1.5 1.1 2.3 1.6l.3-.3c-.2-.1-.4-.3-.6-.3-.6 0-.8-.4-.9-.8z"
        fill="#d8d0ba"
      />
      <path
        d="M34.1 21.1l.9-10.3 1.7-3.5L41.4 3 44.5.9l2.7-.3 1.2.7.6 2.3-.7 2.6.9-.1 5.1-1.9 3.7-.3 1.9-.1 1 .2.2.2.6.4.2.7-.2.6-2.3 3.5-.8 1.5.1.5 1 .4 3.5-.4 3-.2 1.8.2 1.1.7.2 1.6-.8 1.6-2.2 2.5-3 1.3-1.5.8 6 .2 2.8 1.4 1.7 1.4.3 1.3-1 1.9-3.6 1.6-15.1 2.5-15.7-4-4.6-2.5z"
        fill="#eae1ce"
      />
      <path
        d="M41.7 50c-.4-.6-1-.8-1.6-.8-1.2-.1-2.3.3-3.4.7-1.3.6-2.6 1.2-3.9 1.7-1.3.6-2.7.9-4.1 1.2-.9.2-1.7.3-2.6.2-1.4-.1-2.7-.3-3.6-1.4-.4-.4-.7-.8-1.1-1.1-1.1-1-2.3-2-3.4-3.1l-1-1c-1.4-1.6-2.9-2.9-5-3.4-1.4-.3-2.6.6-3.9-.1-.4-.2-.8-.4-1.2-.4-1-.1-1 1-1.4 1.7-.2.3-.3.6-.5.8s-.3.4-.3.6c0 .1 0 .1-.1.2-.1.3-.1.5-.1.8s-.1.5-.1.8c0 .2 0 .4-.1.7-.1.7-.1 1.3 0 1.9.1.5.2 1.1.3 1.6.1.4.2.9.4 1.4l.3.9c.2.6.5 1.2.9 1.7.2.3.4.5.7.7l.3.3c.3.3.7.6 1.1.8.3.2.7.3 1 .5.7.3 1.3.7 2 1 .3.1.7.3 1 .4.4.1.7.2 1.1.3 1 .2 1.9.2 2.9.1h1c.5.1 1 .1 1.5 0s1-.2 1.5-.2c.9-.1 1.7-.3 2.6-.6.9-.2 1.7-.5 2.5-.8 1.5-.6 3.1-1.2 4.6-1.9 1.8-.8 3.5-1.5 5.2-2.4 2.3-1.1 4.5-2.3 6.7-3.5.1-.1-.1-.2-.2-.3z"
        fill="#f4c49f"
      />
      <path
        d="M61.3 4.2c-.9-.4-1.9-.7-2.9-.7h-1.8c-2.4 0-4.6.8-6.7 2.1-.3.1-.7.3-1.1.4 0-.4.1-.6.1-.8.1-1 .2-2-.1-2.9C48.7.6 47.5-.2 45.9 0c-1.5.2-2.7 1-3.9 1.9-1.7 1.2-3.2 2.6-4.6 4.2-1.4 1.5-2.5 3-2.6 5.1-.1 2.2-.3 4.4-.5 6.7-.1 1.2-.3 2.4-.4 3.6-.2 0-.4 0-.5.1-.6.6-1.6.7-2.2 1.3-.7.6-1.6 1-2.4 1.5-1.6 1.1-3 2.4-3.8 4.2-.5 1.1-.9 2.4-1.2 3.6-.4 1.1-.3 2.3-.3 3.5 0 .9-.3 1.3-1.1 1.5-.2.1-.5.1-.7.1-.8.1-1.7.1-2.5.2-1.1.1-2.2.3-3.3.3-1.3 0-2.6.3-3.9.5-1.6.3-3.1 1.1-4.5 1.9-.3.2-.7.5-.9.8-.7.8-1.5 1.5-2 2.4-.3.6-.6 1.1-.9 1.8-.3.8-.2 1.6-.2 2.3-.1 1.4-.1 2.8-.1 4.2 0 .2.1.3.1.5.1.3.2.7.4 1 .3.8.6 1.5 1.2 2.1.1.1.2.2.3.4l.5.5.1.1.2.2c.3.6.8 1.2 1.6 1.5.9.5 1.9 1 2.8 1.5-.3-.2-.6-.5-.9-.6l.9.6c.1 0 .2.1.3.1.1 0 .1.1.2.1s.1.1.2.1.2.1.3.1.2.1.3.1H12.2c1.5.5 3 .9 4.6.7 1-.1 2-.3 3-.5 1.2-.3 2.3-.5 3.5-.8 2.2-.4 4.3-1.4 6.4-2 .8-.2 1.5-.6 2.3-.9-.2 3.1.3 4 1.6 5.8v.3c-.1.2-.1.4-.2.5-.7 1.1-1.3 2.2-1.1 3.4-.3.4-.5.7-.8 1-.5.6-.9 1.2-1.4 1.8-.4.5-.9 1-1.4 1.4-1 1-1.5 2.2-2.2 3.4v.1c-.3.6-.5 1.1-.8 1.7-.5.8-1 1.6-1.6 2.4s-.7 1.7-.2 2.6c.8 1.8 2 3.3 3.4 4.7.9.9 1.9 1.3 3.1 1.5 1.5.2 2.9.5 4.2 1.2 1.6.9 3.2 1.9 4.8 2.8.6.3.7.8.8 1.4 0 .3.1.6.2.9.4.8 1.1 1.2 1.8 1.6 1.2.7 2.4.5 3.4-.6.1-.1.3-.1.5-.2.6-.3 1.2-.1 1.8.2.3-.3.6-.6.9-.8.2-1.6.1-3.1-.2-4.6-.5-1-1.2-1.9-2.1-2.6s-1.7-1.4-2.6-2c-1.5-.7-2.9-1.5-4.4-2.2-.3-.2-.7-.3-1.1-.3-.2 0-.4-.1-.7-.2-.4 0-.7-.1-1.1-.1-.5-.1-1.1-.2-1.7-.3 0-.8-.7-1-1.1-1.4-.5-.5-1-1-1.2-1.7s-.1-1.3.4-1.6c.1-.1.3-.2.4-.3l.9-.6c.1-.1.2-.2.3-.2 0-.6-.4-.9-.7-1.3-.4-.5-.4-1-.5-1.6 0-.5.1-1.1.6-1.5.4-.4.7-.9 1.3-.9.1 0 .1-.1.2-.2v-.1c-.3-.2-.6-.5-.8-.7-.5-.4-.8-.8-.9-1.5 0-.3-.2-.5-.3-.8.1-.6.2-1.3.3-1.9 0-.1.1-.3.1-.4.1-.2.3-.4.4-.6.3 0 .6.1.9.1.1-.1.2-.3.3-.5l-.8-.8-.3-.3c-.2-.3-.4-.6-.5-.9s-.3-.5-.4-.8c-.1-.2-.2-.5-.3-.7-.1-1-.2-2-.3-2.9v-.5c.1 0 .2 0 .3.1.1 0 .1.1.2.1.1.1.1.2.2.4v.1c0 .2.1.4.1.6.2.7.5 1.4 1 2 .4.5.8 1 1.3 1.5.1.1.1.2.2.4l.1.1.3.3c.2.2.4.3.6.5l.1.1c.3.1.6.3.8.4.1 0 .2.1.3.2h.1c.1 0 .2 0 .3-.1-.4-.7-.9-1.3-1.5-1.7-.8-.9-1.6-1.9-2.3-2.8v-.2l-.3-.6c-.1-.2-.2-.4-.3-.7-.1-.2-.1-.4-.2-.5s-.2-.3-.3-.5l-.1-.1s0-.1.1-.1c.1-.1.2-.1.2-.2l.1-.1h.2c.1 0 .2-.1.3-.1s.2-.1.3-.1c.2.2.5.4.7.6.2.1.3.3.5.4.5.4 1 .8 1.6 1 .3.1.6.1.9.2.9.1 1.6-.1 2.3-.8 1.1-1.1 2.1-2.2 3.2-3.2.4-.3.7-.6 1.1-.9.3-.3.6-.7.8-1.2 0-.1.1-.2.2-.2.1-.1.2-.1.2-.2s.1-.2.1-.2v-.1-.1c0-.1.1-.2.1-.2.2-.3.4-.7.6-1 .5-.8 1.1-1.7 1.6-2.5.1-.1.1-.2.1-.2.1-.1.1-.3.1-.4v-.2c-.1-.2-.3-.4-.7-.6l-.5.5-.5.5c-.6.6-1.3 1.1-2 1.5s-1.5.8-2.2 1.2c-.1.1-.2.1-.4.1-.5.2-.9.5-1.4.7-2.2 1.2-4.5 2.4-6.7 3.5-1.7.9-3.5 1.6-5.2 2.4-1.5.7-3.1 1.2-4.6 1.9-.8.3-1.7.6-2.5.8-.9.2-1.7.4-2.6.6-.5.1-1 .2-1.5.2s-1 .1-1.5 0h-1c-1 0-2 0-2.9-.1-.4-.1-.8-.2-1.1-.3s-.7-.3-1-.4c-.7-.3-1.3-.6-2-1-.3-.2-.7-.3-1-.5-.4-.2-.7-.5-1.1-.8l-.3-.3c-.3-.2-.5-.5-.7-.7-.4-.5-.7-1.1-.9-1.7.4-.3.3-.6.2-1-.2-.5-.3-1-.5-1.5-.1-.5-.2-1.1-.3-1.6-.1-.6 0-1.3 0-1.9 0-.2 0-.4.1-.7 0-.3.1-.5.1-.8s.1-.5.1-.8c0-.1 0-.2.1-.2l.3-.6c.2-.2.4-.5.5-.8.2-.3.3-.6.5-.9.5.4.9.8 1.3 1.2v5.9c0 .1 0 .3.1.4.1.2.3.4.5.5.1 0 .3.1.4.1V49c0-.3 0-.6.1-.8.1-.1.1-.2.1-.3.1-.3.1-.7.1-1 0-.5.2-1 .2-1.5H9c.2 0 .5.1.7 0 .1 0 .2-.1.3-.1s.2-.1.2-.1h.2c.2 0 .3 0 .5.1h.6c.7-.1 1.4-.1 2.2-.2.1-.1.1-.2.1-.3s0-.1-.1-.2-.1-.1-.1-.2l-.3-.3c-.1-.1-.2-.1-.3-.2-.2-.1-.5-.1-.7 0-.1 0-.2.1-.4.1-.1 0-.2 0-.4.1h-2c-.3-.1-.7-.1-1-.2-.1 0-.2-.1-.3-.2-.4-.2-.8-.3-1.3-.5.3-.2.1-.4-.2-.6 0-.1-.1-.2-.1-.3v-.2c.1-.1.2-.3.4-.4s.3-.2.5-.3c.8-.8 1.8-1.3 2.8-1.6 1.5-.6 3.1-1 4.7-1.2.6-.1 1.2-.1 1.7-.1.2 0 .5 0 .7-.1 1.5-.2 2.9-.4 4.4-.7h.3c.5-.1.9-.3 1.4-.4.8-.2 1.4-.5 1.8-1.3.1-.3.4-.5.6-.7.1.3.2.5.3.8.2.3.5.5.7.8s.5.5.9.6c1 .1 1.9.1 2.8-.5 1.1-.7 1.8-1.7 2.4-2.8.5-.8.9-1.7 1.1-2.6.1-.6.4-1.2.6-1.8.4-1 .1-1.9-.4-2.7-.4-.8-1.3-1.2-2.2-1.1-.4 0-.8 0-1-.5l.9-.3c.1-.1.2-.1.2-.1.1-.1.3-.1.4-.1h.3c.9.1 1.8.1 2.6.1.7 0 .9-.4 1-1 .2-.8.3-1.6.5-2.5-.7.1-1.6.2-2.5.3 0-.1 0-.2-.1-.3v-.3-1.9-.9-.9c0-.6.1-1.3.1-1.9s.1-1.3.2-1.9c0-.3.1-.7.2-1s.2-.7.2-1c0-.1.1-.3.1-.4.1-.2.1-.4.2-.7.2-.7.5-1.3 1-1.8.3-.3.5-.6.7-.9l.3-.3 1.8-1.8c.5-.5 1.1-1 1.6-1.4.2-.2.5-.4.7-.6.1-.1.1-.1.2-.1s.1-.1.2-.2c.1-.2.3-.3.4-.5.3-.3.6-.5.9-.7.2-.1.4-.2.5-.3.3-.1.6-.3.8-.4.9-.3 1.7-.5 2.7-.6.1.1.3.1.4.2.3.1.5.2.6.6v.2c.5 1.3-.1 3.5-.6 4.7 2-.1 3.2-1 5-1.6.5-.2 1.1-.3 1.7-.5.4-.1.9-.2 1.3-.3.3 0 .6-.1.8-.1.6-.1 1.2-.1 1.8-.1h1.7c.6 0 1.3.2 1.4.8.1.3-.1.7-.3.9-.6.9-1.4 1.7-2 2.6-.3.4-.6.9-.8 1.4-.1.1-.4 1.6-.1 1.6.1 0 .2 0 .3-.1-.1-.2-.2-.4-.1-.6s.2-.4.4-.5c.3-.3.6-.5.8-.9.5-.4.7-.7.9-1 .4-.7.9-1.4 1.3-2.1.1-.2.2-.5.3-.8 0-.6-.2-1-.7-1.3z"
        fill="#181513"
      />
      <path
        d="M59 11.3h-.2c-.1.1-.3.1-.4.2.1.2.2.4.4.5.2.2.5.3.9.3h.8c1.5-.4 3.1-.8 4.7-.7h2.6c.1 0 .2 0 .3.1h.1c.2 0 .3.1.5.2h.1c.1.1.2.1.3.2 0 0 0 .1.1.1.1.1.1.2.1.3v.8c-.1.8-.5 1.5-1.1 2.1-1.1 1.4-2.6 2.8-3.3 3.1 0 0-.1.1-.2.1.2-.1.5-.2.7-.2 1.1-.1 1.9-.7 2.5-1.6l.3-.3c.8-.8 1.3-1.8 1.6-2.9.1-.3 0-.6 0-.9-.2-1.2-.4-1.4-1.5-1.6-1.7-.4-3.4-.4-5.1-.3-1-.1-2.1 0-3.1.3-.6.1-.8.2-1.1.2zM95.1 64.4l-.6-.9c-.2-.4-.4-.7-.6-1.1-.3-.6-.5-1.3-1.1-1.7l-4.5-3.6c-.3-.2-.6-.4-.8-.7-.5-.8-1-1.7-1.5-2.6-.7-1.4-1.7-2.5-2.7-3.5-.3-.3-.7-.3-.9-.6-.7-.7-1.4-.8-2.3-.5-.6.2-1.2.4-1.8.5-2.5.5-4.8 1.2-7.1 2.3-.6.3-1.1.5-1.7.7-1.1.3-2.1 0-3-.7.4-.3.7-.6 1.1-.9.2-.2.4-.4.5-.6.3-1.1.1-2.1-.7-2.8-.4-.3-.8-.7-1.2-1-.5-.4-.4-.9.2-1.2.2-.1.5-.2.7-.4 1.7-1.4 2.4-3.5 1.5-5.7-.3-.6-.3-1.2-.2-1.8.1-.4.2-.7.2-1.1 0-1.1.5-2 1.1-2.8.5-.7.8-1.4.7-2.3 0-.2 0-.4-.1-.5-.2-.8-.6-1.5-1.1-2.2-.2-.2-.3-.4-.5-.7.5-.2.9-.4 1.3-.5l3-1.5c.5-.3.7-.8.5-1.3 0-.6-.3-1.1-.6-1.5-.9-1.2-2-2.1-3.4-2.6-1.6-.6-3.3-1.1-5.1-1-.2 0-.5.1-.8-.3.1-.1.3-.2.4-.3l-.5-.5c-.1.1-.3.1-.4.2s-.3.1-.4.2c-1.5.8-3 1.5-4.4 2.4.6 0 1.1 0 1.7-.1.3-.1.6-.1.9-.1.9 0 1.8 0 2.6-.1.3 0 .6-.1.9-.1.6 0 1.2.1 1.8.1h.1c.2 0 .4.1.6.1.7.1 1.4.2 2.1.4 1.2.3 2.3.7 3.1 1.7s.1.1.1.1c.1.2.1.4.2.6 0 .1 0 .2.1.3-.4 1.5-1.5 2.1-2.8 2.5-.1 0-.2.1-.3.1s-.2.1-.3.1c-.6.1-1.2.3-1.7.4H67c-.1 0-.2.1-.1.3l.6.3c.2.1.4.3.6.4s.4.3.5.5l.9 1.2c.1.1.2.2.2.3.2.2.3.4.4.7v.4c-.1.3-.2.7-.4 1-.1.2-.2.3-.3.5-.2.2-.3.4-.6.7 0-.2-.1-.5-.1-.7-.1-.2-.1-.4-.2-.6-.2-.4-.3-.8-.5-1.1 0-.1-.1-.1-.1-.2v-.2c-.2-.5-.7-.8-.7-1.4 0-.1-.1-.2-.1-.2-.4-.5-.7-1-1.1-1.5-.1-.2-.3-.4-.4-.5-.5-.5-1-1-1.6-1.3-.4-.2-.8-.4-1.3-.5h-.5c-.5 0-.9-.1-1.4-.2-.2 0-.3-.1-.5-.1-.3 0-.7-.1-1-.1H59c-.2 0-.5.1-.7.2s-.5.2-.7.3c-.9.5-1.8 1.1-2.8 1.6-.1 0-.2 0-.2.1-.3.2-.6.5-.8.7s-.4.3-.6.5c-.5.5-.9 1.2-1.1 2l-.3.9c-.1.3-.3.6-.4.9-.2.5-.4.9-.5 1.4-.2.5-.3 1-.5 1.4-.2 1-.3 2-.2 3 0 .3.1.7.1 1s.1.5.2.8c.1.5.3 1 .5 1.5.1.2.2.5.3.7.2.4.4.7.6 1 .4.6.8 1.1 1.3 1.6.2.2.3.3.5.4s.3.3.5.4l.1.1.1.1c.2.1.4.1.6.2.3.2.6.3.9.5.6.3 1.2.5 1.8.6.3.1.6.1.9.2.6.1 1.2.2 1.7.1.4 0 .7-.1 1.1-.3.5-.2 1-.5 1.5-.9l2.1-2.1c.2-.3.4-.5.6-.8.6-.8 1.2-1.6 1.8-2.3.1-.1.2-.2.3-.4.1-.1.2-.3.3-.5v.9c0 .3-.1.5-.1.8-.4 1.3-1.2 2.3-2.2 3.3-.4.4-.7.8-1.1 1.2.1.1.2.2.3.2l.2.2c.6.4 1.2.8 1.6 1.5.1.2.2.4.3.7.3.5.3 1 .1 1.5 0 .2-.1.3-.2.5 0 .1-.1.1-.1.2l-.2.2-1.2 1.2.2.2c.1.1.1.1.2.1s.2.1.2.1c.4.1.9.1 1.3.3-.4.1-.7.2-.9.4-1.2.6-2.4 1.2-3.5 1.8-.1.1-.2.1-.3.2l-.9.9h.8c.8-.4 1.6-.6 2.5-.8 1.1-.3 2.1-.7 3.2-1 .4-.1.7-.2 1.1-.3l1.8-.6c.8-.3 1.6-.5 2.3-.8.9-.4 1.9-.9 2.8-1.4.3-.2.7-.3 1.1-.5.1 0 .2-.1.3-.1.3-.1.6-.2 1-.3.9-.1 1.8-.2 2.5-.2.6.4 1.1.6 1.6 1 .4.3.9.6 1.1 1 .7 1.3 1.8 2.4 2.5 3.7.1.2.3.5.4.7.3.4.7.8 1 1.1.2.2.4.3.6.5l.1.1.6.3-.6-.3c.3.4.5.7.8 1.1s.7.8 1.3.6c.3.4.6.7.9 1 .1.6.5.9.9 1.3.3.2.6.5.9.7v.1c0 .1.1.1.1.2s.1.1.1.2c.1.2.2.4.3.5.2.2.4.4.5.7 0 .1.1.3.1.4V65.9c.2.2.3.4.4.7v2c0 .3-.1.7-.2 1 0 .2-.1.4-.2.6s-.2.4-.2.6c-.2.7-.4 1.4-.6 2-.3.8-.6 1.6-.9 2.5-.1.1-.2.3-.3.4l-.5.5c-.1 0-.2-.1-.3-.2s-.2-.1-.3-.2-.3-.2-.4-.3-.3-.2-.4-.3c-.2-.1-.3-.2-.5-.3-.3-.2-.4-.5-.5-.9 0-.2-.1-.4-.1-.6 0-.4-.1-.8-.1-1.2v-.8-.9c-.1.2-.1.3-.2.4s-.1.3-.2.4c-.1.3-.2.6-.2.8-.1.3-.1.6-.1.9s-.1.6-.1.9V75c.1.2.2.4.3.7-.1.1-.2.2-.4.3-.1-.1-.2-.1-.3-.2s-.2-.1-.2-.2c-.1-.2-.2-.3-.3-.5-.3-.5-.4-1.1-.3-1.8.1-.4.1-.7.2-1.1s.1-.7.2-1.1c.2-.8.5-1.6.7-2.4.1 0 .2 0 .4.1s.2 0 .4.1c-.1-.2-.2-.4-.2-.5-.1-.2-.1-.3-.2-.5 0-.1-.1-.2-.1-.3 0-.2-.1-.4-.2-.5l-.4-.4c-.3-.2-.5-.4-.7-.6-.4-.8-.8-1.7-1.6-2.2-.7-.5-1-1.2-1.5-1.8-.2-.2-.3-.4-.5-.6-.3-.2-.5-.5-.8-.7-.7-.5-1.4-1.1-2.1-1.6-.1-.1-.2-.1-.3-.2-.1 0-.2-.1-.3-.1-.3-.1-.7 0-1-.2-.2-.1-.3-.1-.5-.2-.3-.1-.7 0-1 0-.2 0-.3.1-.5.1-.9.2-1.8.5-2.7.8l-.9.3c-.5.2-1.1.4-1.6.6-1.5.7-2.9 1.6-4 2.9-.3.3-.5.8-.8 1.1l.1.1c1-.5 2-1 2.9-1.4.2.2.2.4.2.6v2c-.1.3-.2.6-.4.9-.1.1-.2.3-.3.4s-.3.3-.4.5c.1 0 .2 0 .3.1s.2 0 .3 0c.5 0 1.1.1 1.6.1h1c.5 0 1.1.1 1.6.3.6.2 1 .5 1.2 1 .1.3.1.6 0 1 0 .8-.3 1.4-.7 2.1 0 .1-.1.1-.1.2s-.1.1-.1.2c-.4.6-.8 1.2-1.2 1.9.1 0 .1 0 .2.1.1 0 .1 0 .2.1.1 0 .2 0 .4-.1.1 0 .1-.1.2-.1s.1-.1.2-.1c.7-.1 1.3-.2 2-.3h.7c.1 0 .3 0 .4.1.2.1.5.2.6.4l.3.3c.3.4.5 1 .3 1.4v.6c0 .2-.1.4-.1.5s-.1.3-.2.5-.1.3-.2.5c-.2.5-.4.9-.6 1.4s-.4.9-.6 1.4c.3.1.7.1 1 .2h1.2c.3 0 .5.1.7.2.7.2 1.3.7 1.7 1.3.1.2.3.5.4.7.2.4.2.8.1 1.1 0 .1-.1.3-.2.4-.2.3-.4.6-.5.9-.2.3-.3.7-.5 1l.8.8h1.7c1.1 0 1.9.5 2.4 1.4.1.2.2.3.2.5.1.2.1.3.2.5 0 .1 0 .3.1.4v.3c0 .3-.2.5-.4.7.3.9.7 1.2 1.3 1 .1 0 .2-.1.2-.1v-.2c.5-2.6-1.5-5.2-4.2-5.2-.3 0-.5 0-.6-.3.1-.3.3-.7.5-1.1.4-.9.4-1.8-.3-2.6-1.1-1.3-2.5-2.2-4.2-2.2-.1 0-.3 0-.5-.1l.4-.4c.3-.3.6-.5.8-.8.9-1.2 1.2-2.5.5-3.8C79 74 78 72.9 76.3 73c-.1 0-.1 0-.3-.1.2-.6.3-1.2.5-1.7.6-1.3.5-2.7-.7-3.5-1.1-.7-2.2-1-3.4-1.1-.3 0-.5 0-.7-.3.7-1.4.1-2.6-.5-3.8.4-.4.8-.7 1.4-.9l.9-.3c.8-.3 1.6-.6 2.5-.8 1-.2 2.1-.4 3-.8.9-.5 1.1-.3 1.7.5s1.4 1.6 2.3 2.1c.5.3 1 .7 1.2 1.3.3.6.8 1 1.3 1.3.5.2.7.6.9 1.1.1.4.2.8.5 1.1.4.4.4.9.2 1.4-.1.2-.2.3-.2.5-.4 1.5-.6 3-.7 4.6-.1 1 .3 1.7.9 2.4l.4.4c.7.7 1.4.7 2.2 0l.8-.8c.2.3.4.5.6.7.4.5 1 .5 1.5.2.6-.5 1.2-1 1.4-1.8.2-.7.2-1.4.7-1.9.1-.1.1-.2.1-.4.1-.7.1-1.4.3-2 .3-1 .4-2 .4-3 0-.5-.1-.9 0-1.4.2-.5 0-1-.4-1.6z"
        fill="#181513"
      />
      <path
        d="M32.8 76.9c0 .2 0 .3.1.5.5.2.6-.3 1-.4.1.1.3.2.5.3s.4.1.6.2c.1-.1.2-.2.3-.4-.3-.1-.6-.1-.9-.2-.1-.2-.3-.5-.4-.8l-.9.6c.1.2-.1.2-.3.2zM61.9 83.5c-.7 0-1.2-.2-1.4-.9-.1.1-.2.3-.2.4v.7c.2.1.5.3.8.5.1-.1.1-.2.2-.4.4.1.8.2 1.2.2-.1-.2-.3-.5-.6-.5z"
        fill="#d8d0ba"
      />
      <path
        d="M59.8 62.7c-.4.5-1 .6-1.5.8-.4.1-.7.2-.9.6l.6.3v-.2c.3-.2.5-.4.8-.5.5-.2.9-.4 1.2-.8s.3-.6-.3-.7c.1.2.1.4.1.5zM56.4 69.3l-.6-1.2c0-.1.2-.2.2-.3v-.5c-.3.2-.5.6-.7.9 0 .1 0 .2.1.3.4.5.8 1 1.3 1.5.2-.3-.2-.4-.3-.7zM82.3 96.4c.1-.2.2-.3.3-.4.2 0 .5.1.7.1v-.8c-.3.1-.6.3-.9.3-.4-.1-.7 0-.8.3H81c.3.6 1 0 1.3.5zM52.1 70.3c-.6.2-1 .4-1.3 1l2.1-.3c-.2-.2-.5-.4-.8-.7z"
        fill="#dcd3bd"
      />
      <path
        d="M91 66c.2.5.4 1 .7 1.4h.7c-.1-.8-.5-1.2-1-1.8 0 0-.1 0-.1-.1-.3.1-.4.3-.3.5z"
        fill="#181513"
      />
      <path
        d="M36.4 81.9c.4 0 .7.1 1.1.1 0-.3.1-.6.1-1-.3-.1-.6-.2-.9-.4 0 .5-.4.8-.3 1.3z"
        fill="#dcd3bd"
      />
      <path
        d="M64 63.4c-.2.1-.5.2-.7.3-.1.4.2.5.5.6.2-.2.6-.5.5-.7-.1-.6.3-1.1.3-1.7-.7.3-.4 1-.6 1.5zM68.9 91.2c-.3.1-.5 0-.7-.1-.3-.2-.7-.3-1-.2.2.1.4.2.5.3l-.2.2c.1.1.2.2.4.2.4.1.9 0 1.3.4 0-.3 0-.5.1-.6-.2-.1-.4-.3-.4-.2zm-1 .1s.1 0 0 0c.1 0 .1 0 0 0z"
        fill="#d8d0ba"
      />
      <path
        d="M42.4 75.4c.1.4.2.8.4 1.1.2.4.3.7-.1 1-.1.1-.1.3-.1.4.2-.2.5-.4.8-.7-.2-.5-.4-1.1-.6-1.6v-.4c-.1 0-.2-.1-.4-.1.1.1 0 .2 0 .3z"
        fill="#cfc5ae"
      />
      <path
        d="M64.1 74.4c.3.2.4 0 .5-.2.1-.3.2-.7.3-.9-.2-.3-.4-.5-.5-.6-.2.1-.4.2-.5.2.2.3.3.5.5.8-.2.3-.2.5-.3.7zM48.2 74c-.4.2-.5.4-.5.8h.4c.1-.2.1-.3.2-.5.3 0 .5-.1.5-.1.1-.3.1-.4.2-.6.2-.3.4-.5.2-.9-.1.1-.2.2-.2.3-.2.4-.4.9-.8 1zM44.4 82.1c.3.4.7.7 1.2 1 .1-.4.2-.7.3-1-.1-.1-.3-.3-.5-.4-.2.4-.6.5-1 .4z"
        fill="#dcd3bd"
      />
      <path
        d="M86 60.3c.2.3.3.6.5.8.1.1.2.2.3.4.2.2.4.4.7.4-.4-.7-.9-1.4-1.5-2-.3.1-.5.2-.7.3.3 0 .5.1.7.1zM43.6 76.7c-.2-.4-.3-.8-.7-1 .2.5.4 1.1.6 1.6-.3.3-.6.5-.8.7v.1c.1.1.2.2.3.2.1-.1.1-.2.2-.3.6 0 .8-.2.7-.7-.2-.3-.2-.5-.3-.6zM36 65.7c-.3 0-.5-.1-.6-.1-.1.1-.2.3-.2.4h-.9l1.2.9c.1-.4.3-.8.5-1.2z"
        fill="#d8d0ba"
      />
      <path
        d="M40.8 72.1c.1.1.1.2.1.3H42c0-.1.1-.2.2-.3.2.1.4.2.6.2.1-.5-.1-.8-.5-1.1-.2.3-.4.7-.5.9h-1zM42.5 69.1c-.4.3-.4.6-.1.9.2-.2.3-.3.5-.4-.1-.2-.2-.5-.3-.7.1-.1.2-.1.3-.2V68c-.1.1-.2.1-.3.1l-.3.6c.1.2.1.3.2.4zM45 74.5c.1.1.2.2.4.2.5.1 1 .2 1.5.2.2 0 .4.1.5-.2-.7-.2-1.3-.3-2-.5-.1.1-.2.3-.4.3zM60.2 91h-.8s-.1.1-.2.3c.2.2.4.3.5.4.3 0 .4-.1.6-.1s.3.1.5.1v-.4c0-.3-.3-.3-.6-.3z"
        fill="#dcd3bd"
      />
      <path
        d="M66.7 82.5c-.3.1-.5.2-.6.2l-.7.7c.6.4.5-.3.7-.4.4-.1.6-.2.8-.2.2-.3.3-.5.4-.8v-.3h-.4c-.1.3-.2.5-.2.8z"
        fill="#d8d0ba"
      />
      <path
        d="M61.2 63.6c.2-.5.2-1.1.2-1.6-.5.2-.5.5-.4.9-.5.3-.5.3-.4.9.3.2.5-.1.6-.2z"
        fill="#dcd3bd"
      />
      <path
        d="M73 74.8c.4.5 0 .7-.3.9.6.2.8.1.9-.7.1 0 .3-.1.5-.2-.1-.2-.1-.4-.1-.6-.1 0-.2 0-.4.1 0 .4-.3.3-.6.5z"
        fill="#d8d0ba"
      />
      <path
        d="M61.7 91.1c.3.1.4-.1.5-.3.1-.3.2-.7.3-1-.4.3-.8.5-1.2.8.1.1.2.3.4.5z"
        fill="#dcd3bd"
      />
      <path
        d="M63.7 84.7c-.2-.1-.4-.3-.6-.4s-.3-.1-.5-.2c.1.6.3.7 1.3.8.2-.2.4-.5.6-.7-.4 0-.7.1-.8.5zM64.2 61.2c.2.2.4.3.5.5.2-.3.2-.5-.1-.6-.2-.1-.5-.2-.8-.2-.4 0-.8 0-1 .4.5.3 1-.2 1.4-.1z"
        fill="#d8d0ba"
      />
      <path
        d="M52.9 68.4c.1 0 .2 0 .3.1.6 0 .6-.8 1.2-.9-.2-.1-.2-.2-.3-.2-.2 0-.3 0-.5.1-.3.2-.5.5-.7.9zM40.4 79.7c-.2 0-.4-.2-.5-.1-.3.3-.7.2-1.1.2-.5.1-.6.2-.7.7.4-.3.8-.5 1.3-.5.4-.1.7-.2 1-.3zM35.4 70.2c-.1 0-.1.1-.1.1.5-.1 1-.3 1.6-.4-.2-.2-.3-.3-.4-.3-.8.1-.8.1-1.1.6zM51.9 75.5c-.1-.1-.3-.1-.4-.2-.2 0-.4 0-.6-.1-.2-.2-.5-.2-.8-.2.2.2.3.4.6.5s.6.2 1 .2l.2-.2zM48.1 81.7c-.1 0-.2.1-.3.1 0 .1.1.2.2.2.5.3 1 .1 1.3-.5-.1 0-.2-.1-.2-.1-.3.3-.6.4-1 .3z"
        fill="#dcd3bd"
      />
      <path
        d="M40.1 73.9c.5-.3.9-.3 1.3.1h.2c0-.6-.6-.4-.8-.7l-.6.3-.3.3z"
        fill="#cfc5ae"
      />
      <path
        d="M50.4 72.4c-.1.1-.2.1-.4.2v.3c0 .1-.2.2-.2.3s0 .3.1.4c.5-.3.7-.7.5-1.2zM65.2 90.4h-.4c.5.3.8.7 1.4.6-.2-.5-.6-.5-1-.6zM47.9 67.1v.6h.3c.1-.2.1-.4.2-.6 0-.2 0-.3-.2-.3-.1 0-.2 0-.4.1.1 0 .1.2.1.2zM57.2 90.6c.2.3.5.7.7 1l.3-.3c-.2-.3-.5-.5-.7-.8 0 .1-.2.1-.3.1zM36.6 69.4c.1 0 .2 0 .4-.1-.2-.3.1-.6-.3-.8-.1 0-.2 0-.5.1zM49.5 79.3c.2-.1.5-.1.7-.2-.1-.2-.1-.4-.1-.5 0-.2-.1-.3-.3-.3 0 .2.1.4.1.4-.2.2-.3.4-.4.6zM63.8 76.5s.1.1.2.1c.1-.1.2-.2.3-.4 0-.1-.2-.2-.1-.3.1-.3-.1-.4-.3-.6-.2.5.1.9-.1 1.2zM46.1 68.7c0 .1-.1.2-.1.3h.3c.3 0 .4-.2.6-.4-.4-.2-.6-.1-.8.1zM62.6 89.4c.1-.1.2-.1.3-.2s.2-.1.4-.2c-.2-.1-.3-.2-.3-.3-.4.1-.5.2-.4.7zM49.5 77.9c.2-.1.3-.2.4-.3 0-.2 0-.4-.1-.6-.2.3-.4.5-.7.8.3.1.4.1.4.1zM58.1 85.3c-.5-.3-.8-.3-1.1.1h1.1zM47.5 68.5c.3 0 .6-.1.8-.1v-.1c-.2-.1-.3-.1-.5-.2h-.5c.2.2.2.3.2.4zM65.5 95.9c-.1.1-.2.3-.2.4 0 .3.3.3.5.3V96c-.1-.1-.2-.1-.3-.1z"
        fill="#dcd3bd"
      />
      <path
        d="M41.3 79.5c.3 0 .2-.4.3-.6-.2.1-.5.2-.7.3.1.1.3.3.4.3z"
        fill="#d8d0ba"
      />
      <path
        d="M46.4 81.8l-.3.3c.1.1.3.2.4.3.1-.3.1-.6.2-.8-.2-.2-.2.1-.3.2z"
        fill="#dcd3bd"
      />
      <path
        d="M60.9 81.4c-.4.3-.5.5-.4.9.4-.2.3-.6.4-.9zM43 79c0-.2-.1-.4-.1-.6-.2.1-.4.2-.6.2.1.4.5.3.7.4z"
        fill="#d8d0ba"
      />
      <path
        d="M37 68.4v-.1.1c-.1-.1-.1-.1 0 0-.1 0 0 0 0 0zM36.3 68.1c.1.1.2.1.3.2h.4c0-.3-.2-.5-.5-.5s-.4.1-.2.3zM70.4 90.4c.5.1.5-.4.6-.6-.2.1-.4.1-.6.2z"
        fill="#dcd3bd"
      />
      <path
        d="M65.9 95.5c0 .1 0 .1.1.2.1 0 .2-.1.4-.1v-.5c-.4.1-.5.2-.5.4zM66.3 94.9c-.1-.4-.2-.7-.6-.8.1.3.2.7.6.8zM65.1 83.6c-.4 0-.6.1-.6.5.3.1.5-.2.6-.5z"
        fill="#d8d0ba"
      />
      <path
        d="M70.9 70.7h-.7l.5.5c.1-.3.2-.4.2-.5zM49.6 80.4c.2-.2 0-.4-.1-.5-.3.3-.3.3.1.5zM52.9 69.3c.1-.2.2-.4.2-.6-.2 0-.4.1-.6.1.1.2.2.3.4.5zM56.5 90.5c.1.1.1.2.2.3.2.2.3.1.3-.1-.1-.4-.3-.3-.5-.2zM61.6 69.9c.1.1.3.4.5.1-.1-.1-.2-.3-.4-.4-.1.2-.1.3-.1.3zM51.4 65.6c.2-.1.3-.2.5-.4-.4-.2-.4.1-.5.4z"
        fill="#dcd3bd"
      />
      <path
        d="M42.9 75.3c0-.3-.2-.5-.5-.5 0 .1.1.2.1.4.2 0 .3.1.4.1zM41.7 78.9c.2-.1.3-.2.5-.2-.3-.2-.4-.2-.5.2z"
        fill="#d8d0ba"
      />
      <path
        d="M49.2 72.1c0 .2.1.3.1.5.1-.1.2-.1.2-.2l-.3-.3zM63.3 72.7c.2 0 .3.1.5.1 0-.4-.2-.3-.5-.1zM66.5 91c0 .3.2.2.4.2-.1-.2-.3-.2-.4-.2zM64.3 77v-.1c-.1 0-.2 0-.3-.1v.3c.1-.1.2-.1.3-.1zM64.1 69.1c0 .2 0 .4.2.4 0-.2.1-.4-.2-.4z"
        fill="#dcd3bd"
      />
      <path d="M65.6 93.9c-.1-.1-.2-.3-.2-.4-.1.2-.1.4.2.4z" fill="#d8d0ba" />
      <path
        d="M50.5 74.6c-.1 0-.1 0-.2-.1 0 .1-.1.2-.1.3.1 0 .2-.1.3-.2zM49.6 81c0 .1-.1.2-.1.3.2-.1.4-.1.1-.3z"
        fill="#dcd3bd"
      />
      <path
        d="M37.8 74.5c-.1.1-.1.1 0 .2.1 0 .1 0 .1-.1 0 0 0-.1-.1-.1z"
        fill="#cdc3ac"
      />
      <path d="M64.2 66.6c0 .1-.1.2-.1.2.1 0 .3 0 .1-.2z" fill="#dcd3bd" />
      <path
        d="M69.9 91.4h-.2.2c-.1 0 0 0 0 0zM66.3 95.6c.1 0 .1 0 0 0z"
        fill="#d8d0ba"
      />
      <path
        d="M54.3 29.8c0 .9-.3 1.7-.5 2.5-.4 1.5-.5 3.1-.3 4.6s.8 2.7 1.8 3.7l1.5 1.5c1.3 1.3 4.2 1.2 5.5-.3 1.2-1.4 2.5-2.6 3.5-4.2.6-.9.9-1.9 1.2-3 .1-.4.2-.8.3-1.1 0-.1.2-.1.2-.1 0-.2-.1-.4-.1-.5-.1-.3-.2-.5-.3-.8-.3-.7-.8-1.4-1.2-2.1-.3-.5-.7-1.1-1-1.6-.5-.9-1.3-1.4-2.2-1.6-.4-.1-.8-.1-1.2-.2-.4 0-.8 0-1.2.1-.9.2-1.8.6-2.5 1.1-.2.2-.5.4-.7.7-.2.2-.3.4-.4.6-.7 1.1-.8 2.4-.7 3.7 0 .2 0 .4.1.7h.1c1-.8 2.3-.8 3.5-.7s2.2.5 2.9 1.5c.5.9.7 1.8.4 2.7-.5 1.6-1.5 2.7-3.2 3-2.1.4-4.1-.8-4.7-2.7-.2-.7-.1-1.5.1-2.3 0-.1.2-.2.3-.3-.5-1.7-.4-3.3 0-5 .1-.3.1-.5.3-.7.9-.9 1.8-1.9 2.6-2.8.1-.1.2-.2.2-.3l-.9.3c-.6.2-1.2.4-1.8.8-.3.2-.5.3-.8.5-.1.1-.2.2-.4.3-.1.1-.2.2-.4.3-.2.2-.4.4-.5.8.6.3.5.7.5.9z"
        fill="#b67e63"
      />
      <path
        d="M66.9 27.2h.4c.6-.2 1.2-.3 1.7-.4.1 0 .2-.1.3-.1s.2-.1.3-.1c1.3-.4 2.4-1 2.8-2.5 0-.1 0-.2-.1-.3-.8 0-1.6-.1-2.5-.1-.5 0-1.1 0-1.6-.1-.4-.1-.7 0-1 .2-.4.2-.9.4-1.3 0-.4.1-.9.1-1.2.5-.1.1-.5.3-.7-.1l-1.2-.6c-.3.1-.5.2-.7.6-.1.2-.4.3-.7.4-.2.1-.4 0-.6 0 0 .1 0 .1.1.2-.2.2-.4.3-.6.5.2 0 .3.1.5.1.5.1.9.2 1.4.2h.5c.5.1.9.2 1.3.5.6.3 1.1.8 1.6 1.3.2.2.3.4.4.5.3-.1.6-.1.9-.2-.2-.3-.1-.4 0-.5z"
        fill="#cbc1ab"
      />
      <path
        d="M54 27c-.4.2-.9.4-1.3.6-.1.1-.1.3-.2.4-.5.5-1 1.1-1.5 1.6-.3.9-.7 1.8-.9 2.7-.3 1.1-.7 2.1-.7 3.3 0 1.3-.1 2.7-.1 4 0 .2.1.3.1.5.1.5.1 1 .1 1.5 0 .1 0 .3.1.3.5.5.6 1.2.8 1.8.4 1 .9 1.9 1.7 2.7.1.1.1.2.2.4l.9.6c.2.1.4.2.6.2-.1-.8.3-1.1.9-1.4-.1-.2-.2-.3-.3-.4l-.1-.1-.1-.1c-.2-.1-.3-.3-.5-.4s-.3-.3-.5-.4c-.5-.5-.9-1-1.3-1.6-.2-.3-.4-.7-.6-1-.1-.2-.2-.5-.3-.7-.2-.5-.4-1-.5-1.5-.1-.3-.1-.5-.2-.8s-.1-.7-.1-1c-.1-1-.1-2 .2-3 .1-.5.3-1 .5-1.4.2-.5.4-.9.5-1.4.1-.3.3-.6.4-.9s.3-.6.3-.9c.2-.8.6-1.4 1.1-2 .2-.2.4-.3.6-.5.3-.2.6-.5.8-.7-.2-.7-.4-.6-.6-.4z"
        fill="#e0bc92"
      />
      <path
        d="M63.6 43.3c-.7.7-1.5 1.3-2.5 1.4-1.6.3-3.2.4-4.7-.5-.4-.2-.7-.5-1-.8-1.1-1-2.1-2.1-2.9-3.4-.3-.4-.4-.9-.6-1.3-.1-.1-.2-.2-.3-.4v.8c0 .6.2 1.1.3 1.6.1.3.2.5.3.8.3.7.6 1.3 1.1 1.9.2.3.5.5.7.8.3.2.6.5.9.7l.6.3c.4.2.8.4 1.3.5.2.1.4.1.7.2.7.2 1.4.3 2.1.1.7-.1 1.3-.4 1.9-.7.3-.1.5-.3.8-.4.5-.3 1-.7 1.4-1l.6-.6c.2-.2.4-.3.6-.4s.4-.3.5-.4c.2-.3.4-.5.7-.8.1-.1.2-.3.3-.4.3-.4.4-.9.5-1.4-.2.1-.3.2-.5.3-1 1-1.9 2.1-2.8 3.1z"
        fill="#6b3f1a"
      />
      <path
        d="M53.3 31.6c-.3 1.1-.5 2.2-.5 3.3s-.1 2.3.4 3.4c.3.7.6 1.4 1 2 .8.9 1.6 1.8 2.5 2.5.6.5 1.3.8 2.1.8h1.6c.9-.2 1.7-.6 2.3-1.3 1.3-1.3 2.5-2.6 3.5-4.1.5-.8.9-1.7 1.2-2.7.1-.2.2-.5.3-.7v-.4c0-.2 0-.5-.1-.7 0-.1-.1-.2-.2-.3-.1 0-.2.1-.2.1-.1.4-.2.8-.3 1.1-.3 1-.7 2-1.2 3-1 1.6-2.3 2.8-3.5 4.2-1.3 1.5-4.2 1.6-5.5.3l-1.5-1.5c-1-1-1.6-2.2-1.8-3.7-.2-1.6-.1-3.1.3-4.6.2-.8.5-1.7.5-2.5 0-.3.1-.6-.3-.7-.1.1-.2.2-.3.4.1.7-.1 1.4-.3 2.1z"
        fill="#a97356"
      />
      <path
        d="M67.5 37.2c-.6 1.3-1.4 2.4-2.4 3.5-.7.7-1.4 1.5-2.1 2.2-.8.8-1.7 1.2-2.8 1.3-.7.1-1.4.1-2.2-.1s-1.4-.6-2-1.1c-1-.9-1.9-1.9-2.6-3-.6-1-.9-2-1-3.2-.1-.9.1-1.7 0-2.6 0-.2-.1-.4-.1-.6 0 0 0 .1-.1.1v.1c0 .3-.1.6-.1.9s-.1.6-.1.9c0 .5-.1.9-.1 1.4s-.1.9-.1 1.4c.1.1.3.2.3.4.2.4.4.9.6 1.3.8 1.3 1.8 2.3 2.9 3.4.3.3.7.5 1 .8 1.5.9 3.1.8 4.7.5 1-.2 1.8-.7 2.5-1.4 1-1 1.9-2.1 2.8-3.1.1-.1.3-.2.5-.3.1-.4.3-.8.4-1.2.1-.2.1-.4.2-.6.3-.4.4-.9.4-1.3-.4 0-.6.1-.6.3z"
        fill="#7c4d2a"
      />
      <path
        d="M67.5 35.5c-.3 1-.7 1.8-1.2 2.7-1 1.5-2.2 2.9-3.5 4.1-.7.7-1.4 1.1-2.3 1.3-.5.1-1.1 0-1.6 0-.8 0-1.5-.3-2.1-.8-.9-.8-1.8-1.6-2.5-2.5-.5-.6-.7-1.3-1-2-.5-1.1-.4-2.2-.4-3.4 0-1.1.2-2.2.5-3.3.2-.7.4-1.4.3-2.2-.1.2-.2.3-.4.5-.1.2-.2.3-.3.5-.2.5-.3 1.1-.4 1.6s-.3 1.1-.4 1.6c0 .2.1.4.1.6 0 .9-.1 1.7 0 2.6.2 1.1.4 2.2 1 3.2.7 1.1 1.6 2.1 2.6 3 .6.5 1.3.9 2 1.1s1.4.2 2.2.1c1.1-.1 2-.5 2.8-1.3.7-.7 1.4-1.5 2.1-2.2 1-1 1.8-2.2 2.4-3.5.1-.1.2-.3.4-.4 0-.2 0-.3.1-.5s0-.3 0-.5c0-.3-.1-.6-.1-1-.1.3-.2.5-.3.7z"
        fill="#926040"
      />
      <path
        d="M55.2 35.2c-.2.7-.3 1.5-.1 2.3.6 1.9 2.5 3.1 4.7 2.7 1.6-.3 2.7-1.4 3.2-3 .3-1 .2-1.9-.4-2.7-.7-1.1-1.7-1.4-2.9-1.5s-2.5-.1-3.5.7h-.1c.1.2.1.4.2.6.1-.1.3-.1.4-.2.5-.5 1.1-.7 1.7-.7s1.2 0 1.8.1c.2 0 .3.2.5.3.1 0 .2 0 .3.1.8 0 1.1.6 1.4 1.2.5 1.2.2 2.2-.5 3.2-1.6 2.1-4.7 1.7-5.9-.3-.4-.7-.4-1.4-.4-2.1 0-.1.2-.2.3-.3-.1-.2-.2-.4-.2-.6-.3 0-.5.1-.5.2z"
        fill="#a97356"
      />
      <path
        d="M55.5 35.9c-.1.7 0 1.5.4 2.1 1.2 2 4.3 2.4 5.9.3.7-1 1-2 .5-3.2-.3-.6-.6-1.2-1.4-1.2l.3.3c.2.4.3.8.3 1.2.1 0 .2.1.2.1.2 1.1-.2 2.6-1.7 3.2-1.3.5-2.7 0-3.4-1.2-.2-.3-.2-.7-.2-1-.2-.3-.4-.7-.6-1-.1.2-.3.3-.3.4z"
        fill="#926040"
      />
      <path
        d="M69.7 30.4c-.1-.1-.2-.2-.2-.3l-.9-1.2c-.2-.2-.3-.4-.5-.5s-.4-.3-.6-.4c-.2.1-.3.2-.5.3.2.2.4.4.7.8-.3.1-.5.2-.7.3 0 .1.1.2.1.2.2.1.4.1.6.2.3.2.5.3.8.5.1.1.1.2.2.3.4 0 .2.3.2.5v.1c.1.1.2.2.2.4.2.3.3.7.5 1 .1-.3.2-.7.4-1v-.4c0-.4-.1-.6-.3-.8z"
        fill="#e6d7c1"
      />
      <path
        d="M60 38.8c1.5-.6 1.9-2.1 1.7-3.2 0-.1-.1-.1-.2-.1v.5c0 .3-.2.6-.3.8-.1.1-.2.2-.2.4-.1.1-.2.3-.3.4s-.2.3-.3.4c-.2.2-.5.4-1 .3-.5.3-1 .3-1.6-.1s-.9-1-1.2-1.6c-.1.1-.2.1-.2.2.1.3.1.7.2 1 .7 1 2 1.5 3.4 1z"
        fill="#7c4d2a"
      />
      <path
        d="M59.2 36.5c.2.1.4.2.6.2.3.1.7 0 .8-.3.1-.4.3-.8.4-1.3l-.1-.1c-.2-.3-.3-.3-.9-.4h-.6c-.3.1-.6.2-.7.6-.1.2-.1.4-.1.6v.4c.2.2.4.3.6.3zM57.8 38.1c.6.4 1 .5 1.6.1-.1-.1-.2-.2-.4-.3-.1-.1-.2-.2-.4-.2-.5-.3-.7-.7-.6-1.2v-.6-.6c-.1 0-.1.1-.2.1s-.1 0-.1.1c-.4.4-.8.7-1.2 1.1.4.5.7 1.1 1.3 1.5z"
        fill="#6b3f1a"
      />
      <path
        d="M68.9 31.1V31c-.4-.1-.4-.2-.2-.5-.1-.1-.1-.2-.2-.3-.3-.2-.5-.4-.8-.5-.2-.1-.4-.1-.6-.2 0 .6.5.9.7 1.4h.2c.3.6 1 .9 1 1.6 0 .2 0 .5.3.5.1-.2.2-.3.3-.5-.2-.3-.3-.7-.5-1-.2 0-.2-.2-.2-.4z"
        fill="#cfc5ae"
      />
      <path
        d="M58.4 33.3c-.6 0-1.3.2-1.7.7-.1.1-.2.1-.4.2 0 .1.1.2.1.2.1.1.2.1.3.1h.2c.3-.1.6-.3.8-.4l.9-.3c.7-.2 1.3 0 2 .1-.2-.1-.3-.3-.5-.3-.5-.2-1.1-.3-1.7-.3z"
        fill="#926040"
      />
      <path
        d="M66.9 28.2c.1-.1.3-.2.5-.3l-.6-.3c-.3.1-.6.1-.9.2.4.5.7 1 1.1 1.5.2-.1.4-.1.7-.3-.4-.3-.6-.6-.8-.8z"
        fill="#cfc5ae"
      />
      <path
        d="M69.1 32.5c0-.8-.7-1-1-1.6h-.2v.2c0 .1 0 .1.1.2.2.4.4.7.5 1.1.1.2.1.4.2.6s.1.4.1.7c.3-.3.4-.5.6-.7-.4 0-.3-.3-.3-.5z"
        fill="#c8bea7"
      />
      <path
        d="M33.3 25.4c0 .1 0 .2.1.2.1.1.3.1.5.2.4.1.9.2 1.3.3s.9.2 1.3.3c1.1.3 2.2.5 3.3.8h.2c.1 0 .3.1.3.2s.1.1.1.2c1-.5 2-.6 3-.4s2 .5 2.5 1.5c0 .1.2.1.2.2.1-.1.3-.2.4-.2.8.2 1.5.4 2.3.6.7.1 1.3.2 2 .4.5-.5 1-1.1 1.5-1.6.1-.1.1-.3.2-.4-1-.3-2.1-.5-3.1-.8-.3-.1-.6 0-.8-.4h-2.1c-1-.1-2.1-.1-3.1-.2-.5-.1-1-.2-1.6-.3-.2-.1-.4-.2-.4-.4.2-.3.6.1.7-.3-.4 0-.8 0-1.3-.1 0-.1-.1-.2-.1-.3h-.4c-1.3-.3-2.5-.6-3.8-.9-.1.6-.4 1-1 1-.5.4-1 .6-1.6.5 0-.2-.3-.1-.6-.1z"
        fill="#f0dbbe"
      />
      <path
        d="M29.7 27.6l-.3.3c-.3.3-.5.5-.7.8l-.6.9c-.4.6-.7 1.2-1 1.9-.3.6-.4 1.2-.4 1.8 0 .2 0 .5.1.7 0 .1.1.3.1.4.1.2.1.4.1.6.1.3.2.7.5 1 .2.3.6.6 1 .6h.4l1.2-.3c-1.1-.6-1.6-1.5-1.7-2.7-.2-1.6.3-3 1.3-4.3l.6-.6c1.3-1 2.8-.7 3.6.8.1.1.2.3.3.4 0-.1.1-.3 0-.4-.1-.3-.1-.6-.2-.8-.1-.3-.1-.6-.2-.8 0-.1-.1-.2-.1-.3-.1-.3-.4-.5-.8-.5-.4-.1-.7 0-1 0-.3.1-.7.2-1 .3-.4-.2-.8-.1-1.2.2z"
        fill="#f9f8f8"
      />
      <path
        d="M30.7 28.9c-1.3.7-1.8 1.8-2 3.2-.1.6 0 1.2.1 1.8.1.7.8 1.5 1.4 1.7.5.2 1.2 0 1.6-.3.3-.2.5-.5.7-.9.4-.7 1.8-2.5 1.4-3.3-.2-.4-.3-.9-.5-1.3-.6-1.1-1.7-1.4-2.7-.9z"
        fill="#a77947"
      />
      <path
        d="M30.2 28.6l-.6.6c-1 1.2-1.5 2.7-1.3 4.3.1 1.2.6 2.1 1.7 2.7.4-.2.8-.5 1.1-.7-.8-.1-1.5-.3-1.8-1.1-.1-.3-.3-.4-.3-.6-.1-.5-.2-1.1-.1-1.7.1-1.3.7-2.3 1.9-2.9.9-.5 2-.2 2.5.7.2.4.3.8.5 1.2.1-.1.1-.2.2-.3.2-.3.2-.6.2-1-.1-.1-.2-.3-.3-.4-.9-1.4-2.4-1.7-3.7-.8z"
        fill="#6b3f1a"
      />
      <path
        d="M67.9 15.4l-.6.6c-1.2.9-2.5 1.7-3.8 2.3l.5.5c-.1.1-.3.2-.4.3.3-.2.6-.3.9-.5.1 0 .1-.1.2-.1.5-.3 2.1-1.7 3.2-3.1z"
        fill="#eae1ce"
      />
      <path
        d="M31.7 33.5c-.2.2-.5.4-.9.3-.4 0-.6-.4-.8-.7-.4.3-.5.8-.7 1.2 0 0-.1 0-.1.1.3.8 1 1 1.8 1.1.9-.4 1.3-1.3 1.7-2.1h-.9c.1 0 0 0-.1.1z"
        fill="#d99043"
      />
      <path
        d="M33 25.4h1.1c.6.1 1.1-.2 1.6-.5-.9 0-1.8-.1-2.6-.1h-.3c-.2 0-.3 0-.4.1-.1 0-.2.1-.2.1l.6.3s.1 0 .2.1z"
        fill="#c8bea7"
      />
      <path
        d="M26.9 29c.1-.1.2-.2.4-.3l.1-.1.1-.1c.3-.5.7-.9 1-1.4l.6-.9c.1-.1.2-.3.4-.4.1-.1.3-.2.5-.3.1-.1.3-.2.4-.2.3-.2.5-.4.8-.6.1-.1.2-.2.4-.3 0-.4.1-.8.1-1.2-.3.2-.7.3-.9.5-.7.5-1.5.8-2.1 1.5-.1.1-.2.2-.2.3s-.1.1-.1.1c-.9.6-1.4 1.5-2 2.4-.2.6.2.7.5 1z"
        fill="#b67e63"
      />
      <path
        d="M24.4 35.8s.1 0 .1-.1 0 0 .1 0v-.2c0-.4 0-.9.1-1.3s.3-.8.4-1.2c.2-.5.4-1 .6-1.6 0-.4-.1-.8-.1-1.2 0-.3-.1-.6-.4-.7l-.3.3c-.1.1-.2.2-.2.3-.2.3-.4.7-.4 1 .1.6-.1 1.1-.3 1.7-.3.9-.2 1.8.1 2.7.2.1.2.2.3.3z"
        fill="#6b3f1a"
      />
      <path
        d="M25.6 30.3c0 .4.1.8.1 1.2.2-.5.5-1.1.7-1.6-.3-.3-.5-.6-.8-.9-.1.2-.3.4-.4.6.3.1.4.4.4.7z"
        fill="#7c4d2a"
      />
      <path
        d="M26.9 29c-.2-.3-.7-.4-.6-.9l-.6.9c.3.3.5.6.8.9.1-.3.2-.6.4-.9z"
        fill="#a97356"
      />
      <path
        d="M39.9 83.2s-.1 0-.1-.1c-1.1-.7-2.7-.8-3.9-.8-1 0-2.4 0-2.7-1.1-.2-.5-.2-.8-.6-1.2-.3-.3-.7-.5-.8-1-.2-.6.1-1.4.5-1.9.3-.5.8-.8 1.1-1.3.1-.1.1-.2.1-.3s0-.2-.1-.3c-.6-1.1-1.1-2.5-.5-3.6.3-.5.8-1 .9-1.6.1-.4-.3-.2-.4-.4s-.1-.4-.1-.6c-.1-.3-.4-.5-.7-.5-.8.1-1.8 1.4-2.3 1.9-.7.8-1.3 1.8-2 2.7-.1.1-.2.3-.3.5v.7c-.1.7-.8 1.2-1 1.9-.1.2-.1.5-.2.7-.2.9-.9 1.7-1.4 2.4s-.4 1.3-.1 2.1c.7 1.7 2 3.1 3.6 4 1.1.6 2.4 1 3.7 1.4.6.2 1.2.5 1.8.8.6.2 1.2.2 1.7.5.5.2.9.6 1.3.9.2.2.7.7 1.1.6.1-.1.2-.3.2-.4.1-.4 0-.9.4-1.2.2-.2.5-.4.8-.5.8-.5 1.3-1.4 1.5-2.3.2-1-.8-1.5-1.5-2z"
        fill="#eae1ce"
      />
      <path
        d="M29 73.4c0 .2-.1.4-.1.6s0 .4-.2.4c0 .2-.1.4-.1.6s0 .4-.2.4v.5c.2.2 0 .2-.1.3v.2c0 .2.1.4.1.6.2.6.3 1.1.5 1.7.1.3.2.6.4.9.1.2.2.3.3.5.3.8 1 .9 1.6 1 .5 0 .9.1 1.2.4.3.2.5.5.7.7.7.8 1.6.7 2.4.5.1 0 .2-.3.3-.4-.5-.1-.9-.2-1.4-.3-.6-.1-1-.5-1-1.1 0-.2-.1-.3-.2-.5-.3-.5-.8-.8-1.3-.9-.4-.1-.7-.2-1.1-.3-.2-.1-.5-.2-.5-.5.3-.1.6-.1.8-.1.2-.6.2-1.2.5-1.7s.7-.9 1.1-1.4c-.1-.1-.2-.3-.3-.5-.4-.7-.7-1.5-.6-2.4 0-.2.1-.4.2-.6.2-.3.4-.6.6-.8.3-.4.7-.8 1-1.2-.1-.2-.2-.4-.3-.7-.3-.5-.7-.6-1.2-.2-.2.2-.4.4-.6.7-.5.7-1.1 1.4-1.6 2.1-.2.3-.5.6-.8.9.1 0 .2 0 .4.1-.3.2-.4.4-.5.5z"
        fill="#c8bea7"
      />
      <path
        d="M39.3 89.5l-.1-.1v.1c-.3 0-.6.1-.9.1-.3-.2-.7-.4-1.1-.7.2-.2.3-.4.5-.5.3.1.7.3 1 .4 0-.1.1-.2.1-.2.4-.1.8-.5 1.3-.1 0-.2-.1-.3-.1-.4-.4-.3-.8-.5-1.2-.8-.1.4-.4.2-.6.2-.4-1.1-2.2-1.5-2.9-.6-.1 0-.2 0-.2-.1-.3-.3-.5-.6-.9-.9-.2-.2-.6-.4-.8-.3-.4.1-.8 0-1.2-.2-.5-.2-.9-.5-1.3-.7-.2-.1-.4-.2-.5-.4-.6-.6-1-1.3-1.9-1.6l-.1-.1v-.4c-.4-.6-1.3-.8-1.3-1.7l-.1-.1c-.3-.2-.6-.3-.9-.1-.3-.2-.5-.4-.8-.6-.1.3-.1.7-.3 1-.3.6-.2 1.1.1 1.6.6.8 1.2 1.5 1.7 2.3.7 1 1.7 1.5 2.8 1.7 2.5.4 4.9 1.4 7.1 2.7 1 .6 1.9 1.1 2.9 1.7-.2-.3-.3-.6-.3-1 .1-.1 0-.1 0-.2z"
        fill="#cbc1ab"
      />
      <path
        d="M39 84.2c.1 0 .2 0 .4-.1.2.3.4.6.6.8.1.1.2.2.2.3.3.1.5.2.8.3v-1c-.4-.1-.7-.3-1-.7l-.3-.3c-.5-.4-1-.4-1.6-.5.1.2.2.4.3.5.2.3.4.5.6.7z"
        fill="#c8bea7"
      />
      <path d="M33.2 76.6c-.1.1-.3.2-.4.3.2 0 .4 0 .4-.3z" fill="#cbc1ab" />
      <path
        d="M43.2 49.3c-.9-.2-1.2-.8-1.5-1.6-.3-.9-.6-1.9-.5-2.9.1-1.4.6-2.6 1.7-3.4l.4-.4c-.1-.1-.2-.1-.3-.2h-1.9c-.3.4-.7.8-1 1.3-.6.9-.7 2-.9 3.1-.1.6-.2 1-.5 1.4s-.7.7-1.2.8c-.2.1-.5.2-.7.3s-.5.2-.7.3c-1.7.7-3.3 1.4-5 2.1-.4.2-.8.3-1.3.4-.4.1-.9.2-1.3.3-.7.2-1.4.3-2.2.4-.6.1-1.1.1-1.6-.1-.2-.1-.3-.1-.5-.2l-.9-.6c-.3-.2-.6-.4-.8-.7-.8-.7-1.4-1.4-2.2-2.1-.9-.9-1.9-1.9-2.8-2.9-.5-.5-1-1.1-1.5-1.5l-.9-.6-.9-.6c-.8-.5-1.6-.7-2.5-.8-1.2-.1-2.3.1-3.4.5h-.5c-.1 0-.2-.1-.2-.3-.2.1-.3.2-.5.3s-.3.2-.4.4v.2s0 .2.1.3c.2.3.4.5.7.6.4.2.8.3 1.3.5.2-.1.3-.2.5-.3.9-.3 1.7-.5 2.6-.3 2.1.5 3.6 1.8 5 3.4.3.4.6.7 1 1 1.1 1 2.3 2 3.4 3.1.4.4.8.7 1.1 1.1 1 1.1 2.3 1.3 3.6 1.4.9 0 1.8-.1 2.6-.2 1.4-.3 2.8-.6 4.1-1.2 1.3-.5 2.6-1.1 3.9-1.7 1.1-.5 2.2-.8 3.4-.7.6.1 1.3.2 1.6.8l.3.3c.5-.2.9-.5 1.4-.7 0-.2 0-.3-.1-.3z"
        fill="#f6cea8"
      />
      <path
        d="M50.9 48.9c.5-.6.9-1.4 1.3-2.1-.1-.1-.1-.3-.2-.4-.8-.8-1.3-1.7-1.7-2.7-.2-.6-.4-1.3-.8-1.8-.1-.1-.1-.2-.1-.3-.1-.5-.1-1-.1-1.5 0-.2-.1-.3-.1-.5-1.1 0-2.3-.1-3.4-.1-.6.3-1.2.7-1.8 1l-.9.3c.1.1.1.1.3.2l-.4.4c-1.1.9-1.6 2-1.7 3.4-.1 1 .1 2 .5 2.9.3.7.6 1.4 1.5 1.6.1 0 .2.2.3.3.1 0 .3 0 .4-.1.7-.4 1.5-.8 2.2-1.2s1.4-.9 2-1.5l.5-.5.5-.5c.4.2.6.3.7.6v.2c0 .1 0 .3-.1.4 0 .1-.1.1-.1.2-.6.8-1.1 1.6-1.6 2.5-.2.3-.4.7-.6 1 .3 0 .6-.1.8-.1.9-.2 1.9-.8 2.6-1.7z"
        fill="#f4c49f"
      />
      <path
        d="M36.8 56.2l.3.3c.1.1.2.2.3.2.3.2.7.2.9.4.5.4 1 .3 1.4-.1.1-.1.2-.2.4-.3.1-.1.3-.2.4-.3h.5l.2-.2c.6-.7 1.2-1.3 1.8-2 .2-.2.4-.5.5-.8.2-.3.4-.6.6-.8.6-.8 1.3-1.6 1.9-2.4.4-.5.7-1 1-1.5.1-.2.1-.4.2-.7-1.6 1-3.1 2-4.5 2.9 0 .5-.1.9-.1 1.4h-.2c0-.2-.1-.3-.1-.5 0-.1-.1-.2-.1-.3s-.1-.2-.1-.4c-.3.2-.4.4-.6.6-.1 0-.3.1-.3.2-.1.1-.3.3-.5.4-.1.1-.2.1-.3.2-.1 0-.1.1-.2.1-.1.1-.3.1-.4.2 0 0-.1 0-.1.1-.2.1-.4.2-.5.2.4.2.6.5.6.9 0 .5.1 1.1.2 1.6-.6-.2-.9-1.3-.8-2.6-1.1.5-2.2.9-3.2 1.4.1.3.3.5.4.8s.2.7.4 1z"
        fill="#f9f8f8"
      />
      <path
        d="M35.3 56.5c.5.5 1 1 1.4 1.5.7.5 1.6.6 2.4.7s1.4-.1 2-.7c.2-.2.4-.4.7-.4.8-.2 1.3-.8 1.8-1.4.2-.3.3-.6.6-.8.8-.6 1.3-1.4 1.8-2.2.3-.6.5-1.2.8-1.8-.1.1-.2.1-.2.2-.1.1-.2.1-.2.2-.2.5-.5.8-.8 1.2-.3.3-.7.6-1.1.9-1.1 1.1-2.1 2.2-3.2 3.2-.7.7-1.5.9-2.3.8-.3 0-.6-.1-.9-.2-.6-.2-1.1-.6-1.6-1-.2-.1-.3-.3-.5-.4-.3-.2-.5-.4-.7-.6-.1.1-.2.1-.3.1s-.2.1-.3.1c-.1.4.3.5.6.6z"
        fill="#e0bc92"
      />
      <path
        d="M35.6 61.8c.1.1.3.2.5.3-.1-.1-.1-.3-.2-.4-.4-.5-.8-1-1.3-1.5-.5-.6-.8-1.3-1-2-.1-.2-.1-.4-.1-.6v-.1c0-.2-.1-.3-.2-.4 0-.1-.1-.1-.2-.1s-.2-.1-.3-.1v.1c0 .1-.1.3 0 .4.1 1 .2 2 .3 2.9.1.2.2.5.3.7.1.3.3.5.4.8.7-.6 1.1-.6 1.8 0z"
        fill="#e6d7c1"
      />
      <path
        d="M39.9 55.8c-.1-.5-.2-1.1-.2-1.6s-.2-.8-.6-.9c-.1 1.3.2 2.3.8 2.5z"
        fill="#30251d"
      />
      <path d="M33.8 56.3s0 .1.1.1v-.3c0 .1-.1.1-.1.2z" fill="#e0bc92" />
      <path
        d="M48.6 17.7c.8-1 1.8-1.9 2.8-2.7 1.1-.8 2.1-1.7 3.2-2.6l1.8-1.5.3-.3c.9-.8 1.9-1.6 2.7-2.5.4-.4.7-.8 1.1-1.3.3-.4.7-.9 1-1.3 0-.4 0-.8-.1-1.2-.9-.1-1.7-.2-2.5-.3-.1.1-.3.4-.4.4-.7.1-1.2.5-1.7.8-.9.5-1.9.8-2.6 1.5-.5.4-1.1.7-1.7 1.1-.8.4-1.4.9-2 1.5-.2.2-.5.3-.7.5s-.5.3-.7.5c-.9.8-1.7 1.6-2.6 2.4-.6.5-1 1.1-1.3 1.9-.2.6-.5 1.2-.8 1.7-.5.7-.8 1.4-.9 2.2-.1.4 0 .7.3.9.2.1.3.2.5.3.2-.1.3-.1.5-.2 0-.2 0-.3.1-.5.6 0 .5-.5.7-.9h.3c0-.2.1-.5.1-.7.4.1.8.2 1.1.3.1 0 .2.2.3.2s.3-.1.4-.1c.2-.2.4-.2.6 0h.2c-.1.1-.1 0 0-.1zM44.1 11.4c.7-.6 1.3-1.4 1.9-2.1.3-.3.5-.7.7-1.1.7-1.1 1.2-2.2 1.5-3.5.1-.4.2-.9.2-1.3v-.7c0-.2 0-.5-.1-.7-.5 0-1.1.1-1.4.4-.4.4-.8.5-1.2.9-.9.7-1.8 1.4-2.5 2.2-.9 1-1.6 2.1-2.4 3.2-.5.7-.9 1.5-1.4 2.2-.3.5-.5 1.1-.7 1.6-.1.4-.1.8-.2 1.3.1.1.2.2.3.4.2.1.4.2.6.2-.1.6-.5.5-.9.6.1.2.2.4.3.5 0 .2 0 .5-.1.7.1.1.2.3.4.4.3-.4.5.1.9.1 0-.3-.1-.6-.1-.9.1-.3.4-.2.6-.2v-.2c-.2-.1-.5-.2-.2-.6.2.4.7.3.9.8h.1c.2 0 .3 0 .6.1v-.4l-.5-.5c1-1.2 1.6-2.4 2.7-3.4z"
        fill="#cbc1ab"
      />
      <path
        d="M46.6 9.6c0-.3-.2-.3-.3-.3H46c-.6.7-1.2 1.4-1.9 2.1-1 1-1.7 2.2-2.5 3.5l.5.5c.1 0 .2 0 .4-.1.1-.1.2-.3.3-.4.5-1.1 1.2-2.1 2-3 .5-.8 1.1-1.6 1.8-2.3z"
        fill="#30251d"
      />
      <path
        d="M67.4 13.1c-.4 0-.6.1-.8.4-.6-.1-1.1.1-1.7.4s-1.2.5-1.8.7c-.5.2-1.1.5-1.6.7-.3.1-.5.4-.8.5-.7.2-1.3.4-1.9.8-.9.5-1.9 1-2.8 1.5-.2.1-.4.2-.5.2-.8-.2-1.3.4-1.7.9-.1.1-.2.2-.2.3-.3.3-.7.6-1 .9-.1.3-.2.7-.4 1v.1c.2.2.4.4.6.5l.6.6c.1 0 .2 0 .3.1.1.3.1.5.2.8.2.4.5.4.8.1.1-.1.1-.2.1-.3.2-.3.5-.5.8-.4.5.1 1 .2 1.4.2.5-.3.9-.5 1.2-.7.1-.1.2-.3.3-.4.7-.2 1.5-.4 2.2-.7.1 0 .2-.1.3-.2-.3 0-.6 0-.9.1-.8-.2-1.3-.2-1.9-.2 1.5-.8 3-1.6 4.4-2.4.1-.1.3-.1.4-.2s.3-.1.4-.2c1.3-.7 2.6-1.4 3.8-2.3l.6-.6c.6-.6 1-1.3 1.1-2.1v-.5c-.4.5-1 .4-1.5.4z"
        fill="#cbc1ab"
      />
      <path
        d="M55.1 14.3c.4-.2.9-.5 1.3-.7 0-.2 0-.4-.1-.5-.5-.3-.9-.8-1.6-.7-1.1.9-2.1 1.7-3.2 2.6-1 .8-2 1.7-2.8 2.7-.1.1-.1.2-.2.4h-.2c.1 0 .2.1.2.1v-.1c.3-.2.6-.3.9-.5.5-.2.9-.5 1.3-.7.7-.4 1.3-1 2-1.2.8-.5 1.6-.9 2.4-1.4zM90.7 67.4c-.1-.1-.2-.3-.3-.4-.1-.6-.6-.7-1-1-.1.7-.1 1.3.4 1.7.1.1.1.2.1.3.1.1.3.2.4.3.1-.2.3-.3.4-.4v-.3-.2z"
        fill="#181513"
      />
      <path d="M86.5 61.5c0-.1 0-.3.1-.4-.3.1-.3.1-.1.4z" fill="#d8d0ba" />
      <path
        d="M45.9 81.3c.2-.1.4-.1.6 0 .2.2.4.1.6 0 .3-.1.6-.2.9-.1.2 0 .5 0 .8-.1.1-.1.3-.3.3-.5 0-.4-.1-.9-.1-1.3v-.7c0-1.2-.8-1.8-2-1.3-.8.3-1.6.6-2.3 1.2-.2.2-.4.3-.5.5-.3.5-.2 1-.1 1.5.3.6 1.2 1 1.8.8z"
        fill="#cbc1ab"
      />
      <path d="M57.1 56.1h.2c-.1 0-.1-.1-.2 0 0-.1 0 0 0 0z" fill="#eae1ce" />
      <path d="M38.3 66.9l-.2-.2v.2z" fill="#d8d0ba" />
      <path d="M36.8 63s-.1.1 0 0v0c0 .1 0 .1 0 0z" fill="#eae1ce" />
      <path
        d="M37.9 66.8l.2.2c0 .2.1.3.1.5.2.2.4.4.7.5.2.2.5 0 .5-.1 0-.3.2-.3.3-.4s.2-.3.2-.4c.2 0 .5 0 .7.1 0-.2-.1-.4-.1-.6.3 0 .5 0 .8.1-.1-.2-.2-.4-.2-.5-.5-.8-1.3-1.3-2.1-1.9-.1-.1-.3-.1-.3-.1-.4.3-.9.4-1.1.8.2.6.3 1.2.5 1.7-.1 0-.2.1-.2.1zm.4.1c-.1 0-.1.1-.2.1v-.2s.1 0 .2.1z"
        fill="#cfc5ae"
      />
      <path d="M68 91.3c-.1 0-.1 0 0 0z" fill="#cdc3ac" />
      <path
        d="M42.3 25.1c.2 0 .4-.1.6-.1.7.1 1.4.3 2.1.4.3.1.7.1 1 .1h2.7c0-.6.3-1.1.2-1.7 0-.1.1-.3.2-.4.1-.2.2-.5.3-.8-.2-.1-.4-.1-.6-.2-1-.1-1.9-.3-2.9-.3S44 21.7 43 22h-.2c-.4 0-.8 0-1.1.1-.4.9-.8 1.6-.6 2.5 0 .1.1.2.1.3.2.2.7.2 1.1.2z"
        fill="#181513"
      />
      <path
        d="M48.6 25.6h-2.7c-.3 0-.7 0-1-.1-.7-.1-1.4-.3-2.1-.4-.2 0-.4 0-.6.1-.1.5-.5.1-.7.3-.1.3.2.4.4.4.5.1 1 .3 1.6.3 1 .1 2.1.2 3.1.2h2.1c.1-.7.3-1.4.3-2.1 0-.3-.1-.5-.2-.8-.1.1-.2.3-.2.4.3.6 0 1.1 0 1.7z"
        fill="#c8bea7"
      />
      <path
        d="M48.4 18v.1c.1.1.3.2.4.2.4 0 .8-.3 1.3-.7.3-.2.6-.4.5-.8-.4.2-.9.5-1.3.7-.3.2-.6.4-.9.5z"
        fill="#cfc5ae"
      />
      <path
        d="M64 24c.2.4.5.2.7.1.4-.3.8-.3 1.2-.5-.3-.1-.5-.3-.7-.4-.5.3-.9.6-1.2.8zM40.4 14.9c-.3.4 0 .5.2.6.2 0 .4.1.6.1 0-.4-.6-.3-.8-.7zM51.8 21.1h.2c.1-.3.2-.7.4-1-.4.2-.6.6-.6 1z"
        fill="#dcd3bd"
      />
      <path
        d="M68.9 31c0-.2.1-.5-.2-.5-.2.3-.2.3.2.5zM69.2 31.5c-.1-.1-.2-.2-.2-.4-.1.2-.1.4.2.4z"
        fill="#d8d0ba"
      />
      <ellipse cx="41.9" cy="34.1" fill="#f9f8f8" rx="5.3" ry="6" />
      <path
        d="M47.3 37c.4-2.1.5-4.3-.4-6.3-.1-.1-.2-.3-.1-.5.2-.4-.1-.6-.3-.8-.1-.2-.2-.3-.3-.5-.1-.1-.2-.1-.2-.2-.6-1-1.6-1.2-2.5-1.5-1-.2-2-.1-3 .4-.4.2-.8.5-1.2.8-.2.1-.4.3-.6.5l-.5.5c-.4.4-.7.9-1 1.4-.6.9-.9 2-1.1 3-.1.5-.1 1.1-.1 1.7v.6c0 .2 0 .4.1.5.2.9.6 1.6 1.2 2.3l.4.4c.3.2.5.4.8.5.5.3 1.1.6 1.7.8l.9.3H43c.3-.1.6-.1.9-.3.6-.3 1.2-.7 1.8-1l.4-.4c.7-.8 1.1-1.5 1.2-2.2zm-2.1 1.5c-.8.9-1.8 1.5-3 1.7-.4.1-.9 0-1.3-.1-1.3-.4-2.4-1-3-2.2-.3-.5-.4-1.2-.5-1.8-.4-1.6-.3-3.2.4-4.7s1.8-2.6 3.5-2.9c.9-.2 1.7 0 2.5.4.5.3.9.6 1.4.9.1 0 .1.1.2.2.7 1.4 1.4 2.8 1.4 4.4-.2 1.4-.6 2.8-1.6 4.1zM30.8 33.8c.2-.4.5-.9.7-1.4.4.4.1.7.1 1.1.1 0 .2-.1.3-.1.4-.5.6-1.1.5-1.7-.1 0-.2.1-.3.1-.4-.4-.1-.8-.1-1.2-.1-.1-.2-.1-.3-.2-.5-.1-.8.2-1.1.5-.2.3-.4.6-.5.9v1.3c.2.3.3.6.7.7z"
        fill="#181513"
      />
      <path
        d="M31.7 30.5c-.2-.3-.5-.7-.8-1.1-.3.5-.6.8-.8 1.2-.2.3-.2.7-.2 1 0 .1.1.1.2.2.2-.3.3-.6.5-.9.3-.3.6-.5 1.1-.4z"
        fill="#bf8444"
      />
      <path
        d="M32.1 31.7c.1 0 .2-.1.3-.1.5-.7.5-1 0-1.4-.1.1-.3.2-.5.4.1.4-.2.8.2 1.1z"
        fill="#f9f8f8"
      />
      <path
        d="M31.6 32.4c-.3.5-.5.9-.7 1.4.4.1.6-.1.9-.3-.1-.4.2-.8-.2-1.1z"
        fill="#313580"
      />
      <path
        d="M38 86.5l.8.8c.4.3.8.5 1.2.8.2 0 .3 0 .5-.1.2-.5-.2-.7-.5-.9-.2-.1-.5-.2-.7-.3-.3-.3-.7-.4-1.3-.3zM39.1 85.8l1.2 1.2c.2 0 .3.1.5.1.3 0 .5.1.6-.2 0-.4-.2-.6-.6-.7-.3-.1-.6-.3-.9-.4-.3 0-.5-.1-.8-.1z"
        fill="#30251d"
      />
      <path
        d="M38.7 88.8c-.3-.1-.7-.3-1-.4l-.5.5c.4.3.8.5 1.1.7.4 0 .7-.1.9-.1v-.1l-.1-.1c0-.1-.1-.2-.1-.3-.2-.2-.2-.2-.3-.2z"
        fill="#181513"
      />
      <path d="M39.1 53.3v-.1z" fill="#983a19" />
      <path
        d="M40.8 31.3c-.9.9-1.3 2.1-1.2 3.5.2 1.4.9 2.7 2.4 3 .5.1 1 .2 1.4.1 2.4-.6 2.9-4.2 1.7-6-1.1-1.6-3-1.9-4.3-.6z"
        fill="#a77947"
      />
      <path
        d="M45.7 31.8c-.1-.2-.2-.3-.3-.5-1.3-2-3.8-2.1-5.3-.2-.8 1-1.1 2.1-1.1 3.3 0 1.1.3 2.1.8 2.9 1.4 2 3.8 2.1 5.3.2 1.4-1.8 1.5-3.7.6-5.7zm-.9 4.8s-.1.1-.2.1c-1 1.2-2.3 1.4-3.5.6-.9-.6-1.3-1.5-1.4-2.6-.1-1.3.2-2.4 1.1-3.3 1.2-1.2 3.1-1 4.1.4.9 1.4.8 3.5-.1 4.8z"
        fill="#6b3f1a"
      />
      <path
        d="M44.7 34.8c-.2.1-.3.2-.5.2h-.3c0 .1-.1.1-.1.2-.3.3-.6.7-1.1.8-.5.2-.8-.2-1.1-.4v.4c-.4.4-.3.9-.3 1.4 1.2.8 2.5.6 3.5-.6-.1-.7.2-1.3-.1-2z"
        fill="#d99043"
      />
      <path
        d="M42.7 36c.1-.5.3-1.1.4-1.6h.2c.1.2.2.4.3.5s.2.3.2.4c0-.1.1-.1.1-.2.2-.6.2-1.2 0-1.9-.2.1-.3.2-.4.3-.5-.2-.5-.6-.5-.9-.1-.2-.3-.3-.5-.2-.2 0-.3.1-.5.1-.5.5-.8 1.2-.9 1.9.1.4.3.8.4 1.3.4.2.7.5 1.2.3z"
        fill="#181513"
      />
      <path
        d="M41.7 31.7c-.1-.2-.4-.1-.5.1-.3.6-.6 1.2-.6 2 0 .3 0 .6.5.6.1-.7.3-1.4.9-1.9-.1-.3-.1-.6-.3-.8z"
        fill="#bf8444"
      />
      <path
        d="M43.5 33.4c.1-.1.3-.2.4-.3.1-.5.3-1.1-.3-1.4-.4.1-.5.5-.6.8 0 .4 0 .8.5.9z"
        fill="#f9f8f8"
      />
      <path
        d="M43.2 34.3H43c-.1.5-.3 1.1-.4 1.6.5 0 .8-.4 1.1-.8-.1-.1-.2-.2-.2-.4-.1 0-.2-.2-.3-.4z"
        fill="#313580"
      />
      <path
        d="M47.6 93.4v-.7c0-.8-.1-1.7-.3-2.5-.2-.9-.4-1.7-1.2-2.3-.2-.1-.4-.3-.5-.5-.6-.7-1.2-1.2-2.1-1.5-.1 0-.2-.1-.3-.2-.6-.7-1.4-.9-2.1-1.2v1c-.2-.1-.5-.2-.8-.3-.3 0-.4.2-.4.5.3.1.6.3.9.4s.5.4.6.7c-.1.3-.4.3-.6.2-.2 0-.3-.1-.5-.1H40c.2.3.6.4.5.9-.1 0-.3 0-.5.1 0 .1 0 .2.1.4-.5-.3-.9.1-1.3.1-.1 0-.1.1-.1.2.1 0 .1.1.2.1 0 0 0 .1 0 0 0 .1.1.2.1.3l.1.1.1.1c0 .1.1.1.1.2 0 .4.1.7.3 1 .2.1.3.2.5.3.1.3.2.6.3.8.5 1.3 1.2 2.4 2.6 3 .4.2.8.1 1-.2s.4-.7.5-1.1c.1-1.3-.3-2.5-.8-3.6-.1-.2-.2-.3-.3-.4-.2-.2-.4-.5-.6-.7-.1-.1-.1-.3-.2-.5.5.1.8.2 1.1.2.2.4.5.8.8 1.1.5.7 1.1 1.4 1.1 2.3 0 .6.3 1 .8 1.4.4.7.6.7 1.2.4z"
        fill="#b67e63"
      />
    </svg>