<?xml version="1.0" encoding="utf-8"?>
<svg version="1.1" xmlns="http://www.w3.org/2000/svg" xmlns:xlink="http://www.w3.org/1999/xlink" x="0px" y="0px"
	 viewBox="0 0 100 100" style="enable-background:new 0 0 100 100;" xml:space="preserve">
      <g id="BeretS1-F_svg__fonce">
        <path
          fill="#28642c"
          className="BeretS1-F_svg__st0"
          d="M97.5 25.7c.3-2.8.6-5.4 1.1-8.2.4-1.8.6-3.7 0-5.4-.7-1.9-2.5-3.2-4.4-3.8-4.8-1.6-9.9-1.1-14.7 0-9 2-17.9 4.4-26.3 8.2-4.2 1.9-8.3 4.1-12.1 6.8-3.6 2.6-7 5.8-11.1 7.7-2 1-2.7.5-4.6-.9-1.2-.9-2.6-1.8-4.1-1.7-1.5.1-3 1.7-2.3 3.1.4.8 1.3 1.2 2 1.7 3.4 2.4 1.7 5.1 0 7.8-2.1 3.3-3.9 6.9-5.6 10.4-4.1 8.5-8.3 17-12.4 25.5-1.4 3-2.9 6.1-2.8 9.4 0 1.1.2 2.2.8 3.1 4.2 7.2 12.9-1.8 16.6-5.1 5.4-4.9 10-10.5 15.3-15.4 5.9-5.5 12.6-10 19.3-14.5 3.7-2.5 7.3-5 11-7.5 5.4-3.6 10.8-7.3 16.6-10.1 2.7-1.3 5.4-2 8.1-3.3 2.9-1.4 6-2.5 9.3-2.6h.3c-.2-1.8-.2-3.5 0-5.2z"
        />
        <path
          fill="#28642c"
          className="BeretS1-F_svg__st0"
          d="M85.1 36.5C66.5 46.9 49 59.2 32.8 73c-5.5 4.7-10.3 10.7-16 15.1-2.6 2-5.3 3.8-8.2 5.4 3-.1 6.1-1.5 8.8-3.1C28.5 83.9 38.1 75 49.3 68.7c14.2-8 30.4-11.4 45.1-18.3 1.9-.9 4-2 5-3.9 1.4-2.5.6-5.6 0-8.4-.4-2-.7-4-.8-6.1h-.3c-4.8 0-9.1 2.3-13.2 4.5z"
        />
        <path
          d="M89.4 17.9c-1 1.5-2 3.1-2 4.9-.1 1.8 1.2 3.8 3 3.8 1.3 0 2.5-1 3-2.2.5-1.2.6-2.6.6-3.9 0-1.1 0-2.2-.4-3.2s-1.5-1.8-2.5-1.6c-1.6.3-2.1 2.2-2.2 3.8"
          fill="#f092b8"
        />
      </g>
    </svg>