<?xml version="1.0" encoding="utf-8"?>
<svg version="1.1" xmlns="http://www.w3.org/2000/svg" xmlns:xlink="http://www.w3.org/1999/xlink" x="0px" y="0px"
	 viewBox="0 0 23 23" style="enable-background:new 0 0 100 100;" xml:space="preserve">
	 <path
      fill="#C65FA2"
      d="M20.367 4.908c.372-.387.155-1.332.022-1.776-.22-.735-.476-1.295-1.054-1.787-.756-.643-1.69-1.029-2.67-1.166-.786-.11-1.52.016-2.264.272-.246.085-.48.202-.716.315-.118.056-.681.366-.354.487.135.05.586-.122.632.093.061.295.096.597.125.896.027.28-.903 1.1-.808 1.367.303-.14 1.08-.044 1.358.084.768.353 1.068.722 1.63 1.291.35.357 1.262.704 1.757.793.725.13 1.651.034 2.225-.48.426-.381.517-1.645.443-2.17-.105-.737-.232-1.237-.812-1.69C17.987-.046 16.366.012 15.163.238"
    />
    <path
      fill="#FFF"
      d="M20.571 3.918c.234.133.356.53.47.762.155.314.294.664.417.992.305.815.547 1.784.364 2.655a2.744 2.744 0 0 1-1.132 1.69c-.236.165-1.054.79-1.282.302-.058-.126-.01-.32.004-.45.026-.233.04-.459.026-.693-.042-.706-.295-1.428-.556-2.077a4.093 4.093 0 0 0-.453-.837c-.09-.129-.3-.333-.332-.487-.06-.29.263-.558.453-1.413.066-.295.74-.054 1.357-.201.354-.085.569-.346.69-.366.025.058.042.114-.026.123z"
    />
    <path
      fill="#1B1B1A"
      d="M21.042 4.68c.154.314.293.664.416.992.305.815.547 1.784.364 2.655a2.744 2.744 0 0 1-1.132 1.69c-.236.165-1.054.79-1.282.302-.058-.126-.01-.32.004-.45.026-.233.04-.459.026-.693-.042-.706-.009-.987-.055-1.686-.097-1.454 1.491-1.793 1.215-3.695.024.058.329.653.444.885z"
    />
    <path
      fill="#C65FA2"
      d="M16.78 4.258c-1.025-.753-2.053.02-2.275.4-.636 1.088-.153 2.676.4 3.628.868 1.492 3.13 2.518 4.185 3.867 1.056 1.35 1.7 3.343 1.532 5.085-.67.05-1.123.046-1.8.1-.625.05-2.55.436-2.865-.163-.088-.166-.08-.51-.117-.698a6.15 6.15 0 0 0-.643-1.728c-.816-1.492-2.101-2.699-2.976-4.165-1.14-1.913-1.721-4.494-.95-6.688.578-1.646 1.463-2.91 3.222-3.368 1.327-.346 3.425-.21 4.174 1.09.47.815.035 1.86-.68 2.4-.345.26-.907.56-1.207.24z"
    />
    <path
      fill="#FFF"
      d="M16.653 2.401c-.112.02-.197.102-.26.2-.154.242-.119.609.029.848.189.307.542.511.89.58a1 1 0 0 0 .997-.367c.23-.292.326-.644.207-1.005-.127-.386-.437-.774-.846-.869-.299-.07-.627-.08-.907.063a.889.889 0 0 0-.436.53c-.061.188-.05.4-.019.593.015.096.026.285.1.359"
    />
    <path
      fill="#231F1F"
      d="M16.976 2.691c-.07.012-.122.063-.161.124-.096.15-.074.377.018.525.117.19.335.317.55.36a.619.619 0 0 0 .618-.228c.143-.18.202-.398.128-.622-.079-.24-.27-.48-.523-.538-.186-.043-.389-.05-.562.039a.55.55 0 0 0-.27.328.797.797 0 0 0-.012.367c.01.06.016.176.062.222"
    />
    <path
      fill="#FFF"
      d="M17.282 2.734c-.013.007-.02.021-.024.036-.009.037.011.082.04.105.037.03.09.041.137.035a.132.132 0 0 0 .11-.089.14.14 0 0 0-.018-.135c-.033-.043-.088-.078-.143-.072a.177.177 0 0 0-.112.046.117.117 0 0 0-.031.085c0 .027.01.053.023.076.006.011.015.034.028.04"
    />
    <path
      fill="#C65FA2"
      d="M20.562 16.716c-.493-1.003-2.513-3.382-6.544-3.989s-6.411-.663-9.053.282-3.36 2.842-3.36 2.842a6.295 6.295 0 0 0-.014 2.352c.067.363.168.726.372 1.04.165.252.391.463.623.662a12.47 12.47 0 0 0 4.996 2.598s4.546.803 8.16.073 4.403-1.83 4.874-2.542c.471-.713.438-2.315-.054-3.318zm-5.655.754c-2.214.686-4.63.328-6.915-.146-.263-.055-.496-.148-.69-.328 2.408-.893 5.219-.757 7.54.366l.06.03c-.026-.011.057-.002.06.025.005.027-.028.044-.055.053z"
    />
    <path
      fill="#AAACAD"
      d="M1.492 15.693c-.015-.017-.031-.036-.032-.058-.001-.03.02-.07-.005-.086-.035.027-.039.079-.068.111-.031.034-.085.04-.129.024a.36.36 0 0 1-.114-.077c-.012-.01-.025-.022-.028-.037-.004-.017.004-.034.012-.05.109-.216.246-.417.407-.598.04-.045.087-.092.147-.099a.337.337 0 0 1-.066.13.352.352 0 0 1 .11.052c.032.025.055.066.049.106a.176.176 0 0 1-.027.061l-.1.168c.056.018.093-.059.146-.08.044-.02.094.003.137.024.012.006.025.014.027.027.001.01-.004.018-.009.026-.07.123-.142.246-.213.368-.019.032-.063.148-.102.148-.03-.001-.122-.136-.142-.16z"
    />
    <g>
      <path
        fill="#E2A4C4"
        d="M14.732 15.15c.088.601.446 1.106.902 1.455.46.347 1.006.6 1.564.774a5.595 5.595 0 0 0 1.723.309c.581.003 1.188-.07 1.706-.384-.46.404-1.092.57-1.701.603-.617.037-1.232-.079-1.817-.256-.577-.205-1.144-.462-1.616-.876-.472-.407-.785-1.016-.76-1.625z"
      />
    </g>
    <path
      fill="#AAACAD"
      d="M12.275 10.59c.012.012.023.025.037.032s.035.007.045-.006.003-.031-.004-.046a7.897 7.897 0 0 0-.116-.255.684.684 0 0 0-.156-.233c-.021-.018-.062-.03-.07-.002-.003.01 0 .02 0 .03.001.069-.14.067-.138.136-.017-.004-.031-.015-.048-.02-.062-.025-.132.035-.143.101s.021.132.056.19c.028.044.058.087.091.128.048.059.107.116.182.128.013.002.028.002.038-.007.015-.012.013-.036.004-.053-.053-.106.132-.201.222-.122z"
    />
    <g>
      <path
        fill="#E2A4C4"
        d="M1.504 17.963c.136.114.235.27.297.434.027.1.106.099.205.127.075.081.084.153.188.13.236.028.218.33.358.35.062.017.135-.048.25-.053.134.007.186.132.227.194.055.162.261.064.443.16.176.067.325.172.475.255.323.125.64.263.973.363l2.033.536c.155.032.393.072.538.2.086.05.046.047.168.024.18-.006.258.115.314.151.065.048.062.046.14.035.067-.01.177-.06.317-.027.124.035.199.101.252.119.052.021.091 0 .073.008l.053-.053c.238-.113.415.05.514.108.118.08.2.127.278.105.087-.007.258-.122.431-.072.17.033.313.081.427.12a3.356 3.356 0 0 0 1.945-.008c.069-.019.17-.05.288-.007.073.038.139.082.169.085.216.024.53.032.757-.019.064-.012.097-.033.215-.056.113-.036.235.062.262.075.058.038.155.012.284-.044.28-.137.605-.067.851-.099.534-.022 1.052-.185 1.584-.327.532-.138 1.056-.29 1.574-.454.524-.16.988-.425 1.457-.73.116-.093.283-.05.375-.14.1-.08.177-.207.293-.283.2-.167.49-.34.43-.641.076.3-.213.499-.4.67-.112.083-.172.204-.282.303-.115.114-.278.072-.378.166-.43.315-.913.634-1.44.803-.522.183-1.047.352-1.573.505-.522.153-1.053.349-1.623.374-.292.035-.548-.028-.77.088-.114.048-.309.14-.504.036-.089-.046-.089-.064-.115-.044l-.18.054c-.31.061-.555.06-.881.026-.105-.027-.153-.068-.2-.093-.014-.007-.055-.005-.115.015a3.428 3.428 0 0 1-2.105.012c-.327-.103-.39-.178-.727-.047-.202.041-.376-.08-.477-.151-.116-.085-.21-.126-.237-.1l.052-.052c-.11.175-.296.151-.4.11-.11-.048-.174-.101-.222-.112-.035-.013-.1.005-.203.028-.095.037-.286-.013-.35-.09-.077-.07-.128-.107-.135-.097-.05.038-.277.002-.328-.069-.128-.11-.257-.122-.442-.165l-2.043-.6c-.338-.11-.667-.265-.995-.405-.155-.094-.297-.194-.448-.262a.843.843 0 0 0-.24-.065c-.1.001-.216-.076-.247-.167-.042-.081-.078-.152-.136-.154-.063-.009-.148.062-.266.038-.218-.095-.169-.367-.34-.376-.106.031-.182-.106-.212-.152-.064-.012-.188-.044-.204-.148a1.025 1.025 0 0 0-.272-.445z"
      />
    </g>
    <g>
      <path
        fill="#E2A4C4"
        d="M13.981 12.903c.352.239.622.577.779.996.102.395.204.866-.028 1.25.008-.21-.038-.403-.081-.594a5.704 5.704 0 0 0-.164-.57c-.103-.362-.333-.696-.506-1.082z"
      />
    </g>
    <path
      fill="#DCE0E3"
      d="M7.418 17.039c.428-.284.944-.376 1.444-.44a14.69 14.69 0 0 1 1.685-.133h.249c.657.006 1.304.115 1.948.233.325.059.64.13.953.238.299.103.574.24.858.376.122.058.24.131.378.09a1.97 1.97 0 0 0 .37-.147c.077-.043.147-.066.11-.15-.029-.069-.108-.132-.16-.184a3.447 3.447 0 0 0-1.271-.8c-.504-.179-1.037-.25-1.564-.316-.628-.079-1.262-.049-1.892-.016-.765.04-1.495.144-2.227.378a5.299 5.299 0 0 0-.987.443c-.067.037-.297.13-.32.213-.028.096.17.165.232.189.044.017.112.05.16.04a.096.096 0 0 0 .034-.014z"
    />
    <g>
      <path
        fill="#B74797"
        d="M6.805 16.636c.19.22.47.296.707.482-.152-.013-.284-.08-.423-.137-.115-.089-.265-.183-.284-.345zM15.523 17.08c-.023.15-.163.237-.276.315-.133.045-.27.101-.413.065.128-.057.254-.087.365-.162a.915.915 0 0 0 .324-.218z"
      />
    </g>
  </svg>