<?xml version="1.0" encoding="utf-8"?>
<svg version="1.1" xmlns="http://www.w3.org/2000/svg" xmlns:xlink="http://www.w3.org/1999/xlink" x="0px" y="0px"
	 viewBox="0 0 23 23" style="enable-background:new 0 0 100 100;" xml:space="preserve">
	 <path
      d="M5.87 18.297c.135-.093.216-.245.282-.395a3.73 3.73 0 0 0 .234-.736c.05-.246.075-.504.006-.744-.06-.209-.186-.391-.321-.561a5.318 5.318 0 0 0-1.501-1.297.23.23 0 0 0-.097-.037c-.048-.003-.093.024-.131.054-.248.19-.377.495-.468.793a5.362 5.362 0 0 0-.228 1.858c.016.288.056.579.17.844.115.265.311.503.574.622a.355.355 0 0 0 .162.039c.114-.005.207-.095.265-.193.028-.048.051-.1.089-.14.121-.126.327-.026.472-.011.168.016.348.003.492-.096z"
      fill="#28241f"
    />
    <path
      d="M1.66 19.221c-.151-.189-.228-.425-.281-.661a4.23 4.23 0 0 1 .63-3.289c.162-.236.356-.461.615-.583.24-.113.512-.128.777-.14.288-.014.582-.026.858.055.188.056.361.154.531.252.199.115.396.233.592.352.052.032.106.065.136.118a.294.294 0 0 1 .03.149.736.736 0 0 1-.247.536 1.47 1.47 0 0 1-.112.581 1.646 1.646 0 0 1-.388.614c-.236.224-.547.345-.841.484-.437.208-.882.51-1.016.975a1.01 1.01 0 0 0 .019.589c.033.1.081.194.143.28.041.057.122.128.121.207-.003.163-.369.033-.476.011a3.056 3.056 0 0 1-.565-.158 1.292 1.292 0 0 1-.526-.372z"
      fill="#28241f"
    />
    <path
      d="M5.078 16.356c-.153-.415-.573-.772-1.003-.873-.43-.101-.896.021-1.256.278-.359.257-.617.64-.775 1.053a2.963 2.963 0 0 0-.192.935c-.017.421.059.849.244 1.228.136.277.337.532.609.678.274.147.597.172.907.153.422-.026.784-.289 1.058-.611a2.55 2.55 0 0 0 .535-1.136 3.35 3.35 0 0 0-.127-1.705z"
      fill="#605c59"
    />
    <path
      d="M3.781 16.385c-.321-.037-.644.135-.84.393-.196.258-.276.588-.283.911-.004.226.025.452.087.67.044.155.109.31.227.419a.9.9 0 0 0 .357.18c.087.026.176.048.267.051.279.009.542-.162.704-.39.162-.228.236-.506.283-.782.057-.333.073-.694-.093-.988a1.582 1.582 0 0 0-.138-.197c-.092-.116-.191-.233-.323-.3-.132-.067-.306-.074-.419.022"
      fill="#e3222e"
    />
    <path
      d="M3.915 17.238c-.099-.043-.219-.005-.297.069a.56.56 0 0 0-.151.345c-.012.106-.005.217.04.314s.133.178.239.195c.103.017.207-.027.292-.089a.468.468 0 0 0 .138-.149.51.51 0 0 0 .053-.228.565.565 0 0 0-.087-.351c-.071-.1-.203-.163-.32-.127"
      fill="#28241f"
    />
    <path
      d="M3.695 16.927c-.181.038-.312.195-.399.358-.153.288-.211.637-.102.944a.557.557 0 0 0 .163.25c.063.051.14.081.219.099a.527.527 0 0 0 .24.009.585.585 0 0 0 .193-.093.987.987 0 0 0 .19-.163c.18-.205.235-.493.231-.765a.864.864 0 0 0-.059-.335.565.565 0 0 0-.324-.294.68.68 0 0 0-.441-.002"
      fill="none"
      stroke="#d5d4d5"
      strokeWidth="0.081"
      strokeMiterlimit="10"
    />
    <path
      d="M7.625 19.008c.141-.355-.56-.55-.511-.929a.641.641 0 0 0-.026-.337c-.052-.12-.163-.203-.274-.273-.725-.453-1.647-.537-2.475-.319-.432.114-2.087 1.144-1.11 1.62.422.206 1.253.073 1.727.121.613.063 2.066-.008 2.669.117zM10.357 19.517c.135-.093.216-.245.282-.395a3.73 3.73 0 0 0 .234-.736c.05-.246.075-.504.006-.744-.06-.209-.186-.391-.321-.561a5.318 5.318 0 0 0-1.501-1.297.23.23 0 0 0-.097-.037c-.048-.003-.093.024-.131.054-.248.19-.377.495-.468.793a5.362 5.362 0 0 0-.228 1.858c.016.288.056.579.17.844.115.265.311.503.574.622a.355.355 0 0 0 .162.039c.114-.005.207-.095.265-.193.028-.048.051-.1.089-.14.121-.126.327-.026.472-.011.168.017.347.004.492-.096z"
      fill="#28241f"
    />
    <path
      d="M6.147 20.441c-.151-.189-.228-.425-.281-.661a4.23 4.23 0 0 1 .63-3.289c.162-.236.356-.461.615-.583.24-.113.512-.128.777-.14.288-.014.582-.026.858.055.188.056.361.154.531.252.199.115.396.233.592.352.052.032.106.065.136.118a.294.294 0 0 1 .03.149.736.736 0 0 1-.247.536 1.47 1.47 0 0 1-.112.581 1.646 1.646 0 0 1-.388.614c-.236.224-.547.345-.841.484-.437.208-.882.51-1.016.975a1.03 1.03 0 0 0 .161.866c.041.057.122.128.121.207-.003.163-.369.033-.476.011a3.056 3.056 0 0 1-.565-.158 1.255 1.255 0 0 1-.525-.369z"
      fill="#28241f"
    />
    <path
      d="M9.565 17.577c-.153-.415-.573-.772-1.003-.873s-.896.021-1.256.278-.617.64-.775 1.053a2.963 2.963 0 0 0-.192.935c-.017.421.059.849.244 1.228.136.277.337.532.609.678.274.147.597.172.907.153.422-.026.784-.289 1.058-.611a2.55 2.55 0 0 0 .535-1.136 3.36 3.36 0 0 0-.127-1.705z"
      fill="#605c59"
    />
    <path
      d="M8.268 17.605c-.321-.037-.644.135-.84.393-.196.258-.276.588-.283.911-.004.226.025.452.087.67.044.155.109.31.227.419a.9.9 0 0 0 .357.18c.087.026.176.048.267.051.279.009.542-.162.704-.39.162-.228.236-.506.283-.782.057-.333.073-.694-.093-.988a1.582 1.582 0 0 0-.138-.197c-.092-.116-.191-.233-.323-.3-.132-.067-.306-.074-.419.022"
      fill="#e3222e"
    />
    <path
      d="M8.402 18.459c-.099-.043-.219-.005-.297.069a.56.56 0 0 0-.151.345.59.59 0 0 0 .04.314.334.334 0 0 0 .239.195c.103.017.207-.027.292-.089a.468.468 0 0 0 .138-.149.51.51 0 0 0 .053-.228c.004-.123-.015-.251-.087-.351s-.203-.163-.32-.127"
      fill="#28241f"
    />
    <path
      d="M8.182 18.148c-.181.038-.312.195-.399.358-.153.288-.211.637-.102.944a.557.557 0 0 0 .163.25c.063.051.14.081.219.099a.527.527 0 0 0 .24.009.585.585 0 0 0 .193-.093.987.987 0 0 0 .19-.163c.18-.205.235-.493.231-.765a.864.864 0 0 0-.059-.335.565.565 0 0 0-.324-.294.68.68 0 0 0-.441-.002"
      fill="none"
      stroke="#d5d4d5"
      strokeWidth="0.081"
      strokeMiterlimit="10"
    />
    <path
      d="M21.355 16.551c-.045-.007-.096-.013-.132.014-.036.028-.045.079-.05.125a4.482 4.482 0 0 0-.021.695c.336.019 1.842-.103 1.842-.389 0-.221-1.338-.395-1.639-.445z"
      fill="#babab9"
    />
    <path
      d="M19.003 18.378a.536.536 0 0 1-.157-.122.603.603 0 0 1-.094-.192 2.687 2.687 0 0 1-.137-.77 2.996 2.996 0 0 1 .084-.789c.102-.426.298-.843.63-1.122s.819-.392 1.209-.204c.09.044.175.103.235.185a.708.708 0 0 1 .112.304c.036.221.023.449-.02.669-.06.304-.178.595-.345.854-.204.316-.486.596-.576.963-.024.097-.034.201-.077.292-.051.108-.094.118-.209.115a1.452 1.452 0 0 1-.655-.183z"
      fill="#28241f"
    />
    <path
      d="M19.257 18.126a.693.693 0 0 0 .453.43.659.659 0 0 0 .604-.134c.09-.078.156-.18.215-.285.275-.49.4-1.071.316-1.629a1.35 1.35 0 0 0-.216-.587.719.719 0 0 0-.519-.312.708.708 0 0 0-.486.176 1.345 1.345 0 0 0-.32.422 2.431 2.431 0 0 0-.211 1.64c.034.151.087.305.198.409"
      fill="#605c59"
    />
    <path
      d="M19.625 17.821c-.076-.102-.101-.233-.117-.36a2.188 2.188 0 0 1 .046-.853.801.801 0 0 1 .124-.272.39.39 0 0 1 .245-.157.373.373 0 0 1 .311.116.69.69 0 0 1 .164.303c.088.314.036.652-.059.964a.845.845 0 0 1-.126.274c-.155.203-.436.188-.588-.015z"
      fill="#e3222e"
    />
    <path
      d="M19.782 17.011c-.015.178.007.36.064.529a.26.26 0 0 0 .074.125c.054.042.134.036.193 0a.36.36 0 0 0 .127-.16c.067-.143.088-.305.084-.463a.737.737 0 0 0-.128-.433.22.22 0 0 0-.103-.081c-.207-.065-.3.347-.311.483z"
      fill="none"
      stroke="#d5d4d5"
      strokeWidth="0.08"
      strokeMiterlimit="10"
    />
    <path
      d="M19.873 17.048c-.007.062-.009.127.015.184s.08.104.141.1a.146.146 0 0 0 .103-.06.317.317 0 0 0 .051-.112.683.683 0 0 0 .023-.155.293.293 0 0 0-.011-.098.191.191 0 0 0-.1-.114c-.175-.082-.206.125-.222.255z"
      fill="#28241f"
    />
    <path
      d="M19.037 18.291c.117-.147.084-.359.059-.546a3.715 3.715 0 0 1 .182-1.734c.067-.189.152-.375.286-.523.134-.148.323-.253.52-.248.29.008.531.256.629.533.098.278.129.543.159.837.035.341.034.661-.073.957l-.021.057c.527-.036 1.046-.153 1.561-.27.16-.036.371-.074.531-.11l.125-.247c-.322-.003-1.11.098-1.588.189.1-1.444.199-2.892.162-4.339-.009-.338-.002-.73.259-.94a.809.809 0 0 1 .38-.149c.14-.023.282-.027.423-.014.062.006.126.015.184-.007s.112-.113.119-.176a9.939 9.939 0 0 0-.127-2.981c-.151-.769-.358-1.665-1.084-1.928-3.677-1.331-7.457-2.339-11.232-3.346-.348-.093-.747-.172-1.076-.318-.338-.148-.655-.185-1.004-.297-.539-.173-1.089-.347-1.654-.342a3.952 3.952 0 0 0-.726.085c-.935.183-1.83.536-2.694.942-.305.144-.611.297-.866.52s-.367.49-.486.81C1.207 6.797.844 9.03.703 11.261s-.063 4.471.015 6.706c.004.121.01.246.064.353s.173.191.289.163c.643.229 1.339.357 2.015.447.246.033.495.056.741.025.181-.023.356-.075.531-.126l1.386-.409c.341-.101.418-.622.513-.969.077-.281.176-.563.36-.787.145-.177.337-.309.542-.407a2.209 2.209 0 0 1 1.568-.125c.515.153.97.502 1.256.963.234.377.22.908.189 1.352-.027.381-.145.755-.129 1.136 2.956-.451 6.037-.84 8.994-1.292z"
      fill="#e3222e"
    />
    <path
      d="M2.099 18.468l-.003-1.825c.001-.029.024-.13-.051-.379s-.081-.365-.269-.376c-.189-.011-.487-.009-.487-.009s-.102-.009-.104.136c-.003.145.013 2.051.013 2.051s-.006.32.11.351c.116.031.689.122.689.122s.102.024.102-.071zM2.266 18.449v-1.667s-.027-.274.043-.463c.07-.188.118-.317.258-.307.14.011.619.177.619.177s.172.038.167.247c-.005.21-.022 2.237-.022 2.237s.016.215-.086.204c-.102-.011-.925-.21-.925-.226-.001-.014-.054.024-.054-.202z"
      fill="#28241f"
    />
    <path
      d="M2.039 15.883c-.001-.004-.002-.009 0-.012.003-.005.008-.006.008-.006.036-.005.068-.002.1.001l.103.011c.048.005.097.01.137.037a2.876 2.876 0 0 0-.168.319c-.011.025-.019.081-.05.056-.016-.013-.021-.05-.027-.069-.013-.037-.027-.073-.039-.11a2.647 2.647 0 0 1-.064-.227z"
      fill="#fcf0d5"
    />
    <path
      d="M4.521 17.797a.17.17 0 0 1-.082-.068c-.11-.153-.134-.346-.123-.529a.867.867 0 0 1 .056-.28.482.482 0 0 1 .182-.225.272.272 0 0 1 .124-.044c.051-.003.1.015.142.041.145.088.204.257.225.416.017.125.018.251.002.376a.58.58 0 0 1-.088.264.309.309 0 0 1-.249.135.323.323 0 0 1-.149-.044c-.042-.023-.083-.056-.093-.101"
      fill="#605c59"
    />
    <path
      d="M4.585 17.634c-.022-.007-.038-.026-.05-.045a.584.584 0 0 1-.076-.354c.003-.064.012-.127.035-.187s.06-.115.112-.151a.146.146 0 0 1 .076-.029.148.148 0 0 1 .088.027c.089.059.125.172.139.278.011.083.011.168.001.252-.007.062-.02.124-.054.176s-.092.092-.154.09a.193.193 0 0 1-.092-.03c-.026-.016-.051-.038-.057-.067"
      fill="#f4e1b5"
    />
    <path
      d="M2.588 10.966l-.135 2.917s-.001.156-.193.145c-.192-.01-1.293-.094-1.293-.094s-.114.01-.114-.281.135-2.463.135-2.463.01-.212.125-.225 1.34-.045 1.34-.045.139-.023.135.046z"
      fill="#badfef"
    />
    <path
      d="M22.373 11.727c-.047.009-.106 5.215-.106 5.215s.151.136.284 0l.079-5.199c-.001.001-.091-.046-.257-.016z"
      fill="#868a8e"
    />
    <path
      d="M8.318 10.849l-1.788-.055c-1.218-.037-2.455-.091-3.674-.099a20.623 20.623 0 0 0-.107 2.951c.013.381-.024.763-.022 1.144a5.905 5.905 0 0 1 1.734-.67c.283-.06.57-.1.857-.132.974-.111 1.962-.149 2.932-.004.415.062.832.16 1.192.376a.61.61 0 0 1 .031.352c-.014.091-.048.179-.064.27-.016.091-.012.192.041.267a.327.327 0 0 0 .206.119c.08.015.162.012.243.013.135.002.27.018.409.048.04-1.057.094-2.11.047-3.167-.016-.365-.001-.775-.265-1.029-.21-.203-.521-.254-.81-.295a8.84 8.84 0 0 0-.962-.089z"
      fill="#ac2229"
    />
    <path
      d="M4.533 8.322c-.035.048-.04.11-.046.169a2.192 2.192 0 0 1-.087.423.126.126 0 0 1-.032.059c-.015.014-.037.018-.057.023-.353.073-.716.077-1.075.109-.346.031-.691.088-1.038.106A.573.573 0 0 1 2 9.198l.078-.545c.01-.069.078-.086.147-.096.708-.104 1.422-.167 2.135-.23.057-.006.136-.049.173-.005z"
      fill="#b7babb"
    />
    <path
      d="M1.333 7.085l2.638-.459c.438-.083.882-.125 1.316-.237.433-.101.893-.171 1.341-.121 1.786.096 3.564.31 5.326.608 3.52.633 6.983 1.515 10.45 2.369-3.498-.719-6.955-1.636-10.477-2.212a47.098 47.098 0 0 0-5.305-.66c-.444-.052-.88.011-1.315.107-.433.107-.882.147-1.322.223l-2.652.382zM1.86 4.665l2.52-.617 1.262-.297c.419-.096.847-.213 1.293-.187 1.688.412 3.425.515 5.099.987l5.036 1.245c1.678.411 3.362.839 4.969 1.485-1.628-.587-3.314-.976-4.994-1.381l-5.048-1.193c-1.659-.487-3.404-.609-5.069-1.036-.422-.031-.844.077-1.265.17l-1.266.283-2.537.541z"
      fill="#7b1a1a"
    />
    <path
      d="M6.295 9.812c-1.811.096-3.643.223-5.447.41-.007.142-.02.3-.032.442 1.475-.221 2.976-.185 4.459-.341.344-.036.694-.083 1.033-.013a2.859 2.859 0 0 1-.013-.498zM6.552 9.812c.06-.014 16.378 1.411 16.378 1.411l.002.338-16.38-1.323v-.426z"
      fill="#f7c169"
    />
    <path
      d="M10.366 18.718c1.393-.266 2.811-.449 4.217-.677 1.418-.172 2.829-.389 4.25-.52-1.401.268-2.813.45-4.217.677-1.416.171-2.82.387-4.25.52z"
      fill="#7b1a1a"
    />
    <g>
      <path
        d="M10.647 14.185c1.769-.106 3.569-.131 5.356-.2 1.797-.013 3.591-.071 5.384-.042-1.787.109-3.573.132-5.356.2-1.793.012-3.573.067-5.384.042z"
        fill="#7b1a1a"
      />
    </g>
    <path
      d="M.164 17.704c-.035-.021-.071-.042-.095-.076-.029-.041-.034-.094-.039-.144a10.687 10.687 0 0 1-.032-1.187c.004-.139.011-.28.064-.409a.821.821 0 0 1 .319-.362c.136-.09.289-.151.44-.212.056.197.026.407.002.61a8.664 8.664 0 0 0-.039 1.594c.007.107.047.444-.107.469-.066.011-.17-.08-.222-.111l-.291-.172z"
      fill="#e3222e"
    />
    <g>
      <path
        d="M.269 17.081a.152.152 0 0 1-.076-.063c-.103-.143-.125-.323-.115-.494.005-.089.018-.178.052-.261s.091-.16.17-.21a.238.238 0 0 1 .115-.041.24.24 0 0 1 .133.038c.135.082.19.24.21.388.016.116.017.234.002.351a.54.54 0 0 1-.082.246.287.287 0 0 1-.233.126.311.311 0 0 1-.138-.041c-.039-.022-.077-.053-.087-.094"
        fill="#605c59"
      />
      <path
        d="M.329 16.929a.1.1 0 0 1-.047-.042.545.545 0 0 1-.071-.33.582.582 0 0 1 .032-.175.296.296 0 0 1 .105-.141.132.132 0 0 1 .071-.027.136.136 0 0 1 .082.026c.083.055.117.161.13.26.01.078.01.157.001.235a.38.38 0 0 1-.051.165c-.032.049-.085.086-.143.084a.172.172 0 0 1-.085-.028c-.024-.015-.047-.035-.054-.063"
        fill="#f4e1b5"
      />
    </g>
    <path
      d="M2.942 13.508v-2.431s.021-.108.177-.111c.156-.003 3.325.101 3.325.101s.104-.052.094.218.001 2.276.001 2.276.02.187-.125.187-3.377-.042-3.377-.042-.095.031-.095-.198zM7.856 13.571v-1.538s0-.208.197-.208h1.964s.187 0 .177.229c-.01.229 0 1.631 0 1.631s-.011.177-.187.177c-.177 0-1.891-.104-1.891-.114 0-.011-.26.02-.26-.177zM11.638 13.427v-2.18s-.041-.183.264-.172 2.363.233 2.363.233.132.03.122.254c-.01.223.001 1.866.001 1.866s.02.122-.173.142c-.193.02-2.383 0-2.383 0s-.194.019-.194-.143zM15.049 13.498c.001-.035-.027-1.927 0-1.957s-.014-.132.179-.142c.193-.01 1.826.112 1.826.112s.091 0 .091.233v1.755s-.01.112-.152.132c-.142.02-1.755 0-1.755 0s-.193-.001-.189-.133zM17.703 13.478v-1.684s.01-.142.183-.142 1.481.081 1.481.081.122-.03.122.193v1.552s0 .16-.122.161h-1.511s-.157.021-.153-.161zM11.305 6.425l-.096-1.483s0-.183.282-.122 1.674.487 1.674.487.165.043.165.256.048 1.205.048 1.205.028.207-.158.17-1.68-.292-1.66-.31c.02-.019-.241.008-.255-.203zM14.35 6.976l-.086-1.25s.013-.167.246-.108 1.388.395 1.388.395.166.024.159.233.04 1.005.04 1.005.02.179-.186.138c-.206-.042-1.369-.239-1.369-.257s-.183-.023-.192-.156zM16.796 7.438l-.071-1.071s-.006-.12.173-.092c.18.029 1.245.344 1.245.344s.154.036.141.236c-.013.2.001.824.001.824s.057.149-.148.115c-.205-.034-1.175-.241-1.175-.241s-.161.011-.166-.115zM18.952 7.921s-.059.017-.074-.139-.059-.86-.059-.86-.011-.021.099.007c.111.028.344.1.344.1s.145.041.199.199c.054.158.232.769.232.769s.02.089-.108.07a14.041 14.041 0 0 1-.633-.146zM3.494 5.981c-.016.142-.038.297-.143.395-.082.076-.197.102-.307.124l-1.127.23c-.075-.119-.06-.272-.042-.412.051-.404.102-.809.181-1.208.011-.057.025-.118.066-.159.028-.028.065-.044.102-.06.338-.143.697-.218 1.036-.358.106-.044.277-.071.357-.036.121.055.04.453.022.626-.036.331-.108.527-.145.858zM3.858 6.132l.178-1.448s0-.273.22-.346c.22-.073 1.669-.399 1.669-.399s.283-.105.231.262c-.052.367-.252 1.49-.252 1.49s.063.273-.283.346c-.346.074-1.627.273-1.627.273s-.163.037-.136-.178zM6.745 5.771l.104-1.287s.089-.481.576-.481 2.519.414 2.519.414.326-.029.369.42c.043.45.093 1.368.093 1.368s.046.282-.194.264c-.24-.018-3.066-.368-3.066-.368s-.427-.078-.401-.33z"
      fill="#badfef"
    />
    <path
      d="M2.026 5.445l1.713-.421M4.098 4.937a84.81 84.81 0 0 1 1.984-.45M6.854 4.53c1.133.146 2.269.279 3.405.398M11.3 5.268c.692.213 1.396.389 2.107.526M14.229 5.974l1.819.402M16.702 6.632c.524.136 1.052.253 1.584.353M18.834 7.212c.206.046.413.087.621.121M.924 12.93c.529-.003 1.059.027 1.585.092M11.609 11.953c.903.092 1.812.139 2.72.139M17.684 12.352c.6.009 1.201.01 1.801.004M15.016 12.179c.711.008 1.422.025 2.133.049"
      fill="none"
      stroke="#f1f1f1"
      strokeWidth="0.081"
      strokeLinecap="round"
      strokeLinejoin="round"
      strokeMiterlimit="10"
    />
  </svg>