<?xml version="1.0" encoding="utf-8"?>
<svg version="1.1" xmlns="http://www.w3.org/2000/svg" xmlns:xlink="http://www.w3.org/1999/xlink" x="0px" y="0px"
	 viewBox="0 0 23 23" style="enable-background:new 0 0 100 100;" xml:space="preserve">
	 <path
      d="M2.726 11.809c-.501-.21-.972-.532-1.26-.993s-.36-1.077-.094-1.55c.143-.253.368-.448.6-.622.146-.109.298-.212.464-.289.802-.367 1.754-.037 2.494.442.25.161.492.343.672.58.467.617.373 1.74-.261 2.224-.72.549-1.825.54-2.615.208zM20.248 9.337c.56-.273 1.087-.692 1.408-1.292.321-.6.403-1.401.105-2.016-.159-.329-.411-.583-.671-.809a2.871 2.871 0 0 0-.519-.375c-.895-.478-1.959-.048-2.787.575-.279.21-.55.446-.751.755-.522.802-.416 2.263.292 2.892.805.714 2.04.701 2.923.27z"
      fill="#bad26a"
    />
    <path
      d="M16.506 16.435c.169-.878.945-2.253 1.263-3.094a9.365 9.365 0 0 0 .519-4.568C18.037 6.935 16.8 5.219 15.2 4.155c-.402-.267-.935-.451-1.397-.608-1.817-.616-3.904-.475-5.61.38A5.539 5.539 0 0 0 6.73 4.96c-.46.465-.808 1.02-1.103 1.593a9.386 9.386 0 0 0-.662 1.623c-.663 2.243-.01 4.607 1.118 6.691 1.08 1.995 2.988 2.044 4.797 2.33 1.411.223 2.882.305 4.251-.086.697-.201 1.244.003 1.375-.676z"
      fill="#bad26a"
    />
    <g fill="none" stroke="#fff" strokeWidth="0.277" strokeMiterlimit="10">
      <path d="M11.368 3.219c-1.832.294-3.283 1.839-3.914 3.584-.62 1.715-.565 3.637-.005 5.372s1.604 3.291 2.878 4.595M11.933 3.115a9.606 9.606 0 0 1 3.185 6.782 9.605 9.605 0 0 1-2.731 6.977l.27-.207" />
      <path d="M12.091 15.92c-1.152-1.823-1.68-4-1.7-6.156s.452-4.296 1.179-6.326" />
    </g>
    <path
      d="M10.42 13.003c-.035 0-.072.002-.099.023a.14.14 0 0 0-.041.079c-.098.379.086.774.32 1.087a.93.93 0 0 0 .252.252.782.782 0 0 0 .434.094c.357-.013.707-.175.948-.439s.371-.627.353-.984c-.001-.023-.005-.05-.023-.064-.014-.01-.032-.011-.049-.012-.698-.017-1.395-.037-2.095-.036z"
      fill="#28241f"
    />
    <path
      d="M7.072 12.748c.004-.307.127-.61.338-.833.211-.223.507-.362.813-.382.298-.02.614.081.804.31a.97.97 0 0 1 .153.267c.083.21.109.443.076.667M13.528 12.988c.004-.307.127-.61.338-.833.211-.223.507-.362.813-.382.298-.02.614.081.804.31a.97.97 0 0 1 .153.267c.083.21.109.443.076.667"
      fill="none"
      stroke="#28241f"
      strokeWidth="0.263"
      strokeLinecap="round"
      strokeLinejoin="round"
      strokeMiterlimit="10"
    />
    <path
      d="M8.078 1.826c-.02-.232.016-.483.17-.657.154-.174.451-.232.623-.076.14.127.155.336.198.52.108.456.455.848.894 1.01A3.44 3.44 0 0 1 9.619.887c.012-.184.066-.401.241-.46.229-.078.424.179.521.401.233.534.401 1.097.5 1.671a3.574 3.574 0 0 1 .596-2.277.56.56 0 0 1 .163-.176c.182-.113.438-.001.547.184.109.185.105.413.078.626-.061.487-.228.96-.487 1.377.28-.636.595-1.313 1.195-1.662.11-.064.249-.114.359-.05.094.055.128.176.136.285.045.587-.369 1.098-.758 1.54.316.026.594-.209.785-.462.191-.254.343-.547.6-.733a.314.314 0 0 1 .174-.071c.066 0 .127.036.178.077.357.29.352.871.096 1.254-.605.906-2.456 1.287-3.49 1.338-1.219.059-2.851-.511-2.975-1.923z"
      fill="#e95274"
    />
    <path
      d="M7.061 13.713c.165.004.705-.015.87-.011"
      fill="none"
      stroke="#6a813c"
      strokeWidth="0.222"
      strokeLinecap="round"
      strokeLinejoin="round"
      strokeMiterlimit="10"
    />
    <g>
      <path
        d="M7.02 17.813c0 .098.453 3.576.815 4.266.362.689.845.787.845.787l5.607.134s.491-.239.672-.829c.181-.591 1.117-4.788 1.117-4.788l-9.056.43z"
        fill="#eeb399"
      />
      <path
        d="M17.268 18.142c.216-.649.502-1.321.593-1.999.014-.105.018-.232-.067-.295-.05-.037-.117-.04-.179-.041-4.013-.085-8.297-.007-12.302-.275-.041.801.262 1.635.508 2.431a.82.82 0 0 0 .7.579c3.501.349 6.415.344 9.962.214a.925.925 0 0 0 .785-.614z"
        fill="#f7cdbd"
      />
    </g>
    <ellipse cx="7.496" cy="13.771" rx="0.755" ry="0.55" fill="#f094af" />
    <ellipse cx="15.526" cy="14.035" rx="0.755" ry="0.55" fill="#f094af" />
  </svg>