<?xml version="1.0" encoding="utf-8"?>
<svg version="1.1" xmlns="http://www.w3.org/2000/svg" xmlns:xlink="http://www.w3.org/1999/xlink" x="0px" y="0px"
	 viewBox="0 0 23 23" style="enable-background:new 0 0 100 100;" xml:space="preserve">
	 <g fill="#f0eae2">
      <path d="M20.404 12.057a9.27 9.27 0 0 0 .459-2.887c0-5.055-4.227-9.153-9.196-9.153l.003 22.992c5.195.008 6.87-2.232 6.908-6.2.387-.035.765-.254 1.072-.511.219-.184.425-.395.545-.654.249-.536.096-1.16.046-1.748-.055-.642.089-1.213.178-1.836l-.015-.003z" />
      <path d="M2.475 9.169c0 1.009.163 1.979.459 2.887l-.01.001c.083.624.228 1.195.173 1.837-.05.589-.203 1.212.046 1.748.12.26.326.471.545.654.306.257.685.476 1.072.511.038 3.968 1.712 6.209 6.908 6.2V.016c-4.969 0-9.193 4.098-9.193 9.153z" />
    </g>
    <path
      d="M10.547 16.158c.336-.11.706.134.862.462s.145.714.101 1.078a.337.337 0 0 1-.039.141.275.275 0 0 1-.114.091c-.221.112-.476.125-.722.136-.221.01-.488.007-.643-.188-.106-.133-.07-.293-.054-.451.044-.456.103-1.104.609-1.269zM8.527 16.326c.133-.153.357-.242.547-.169a.581.581 0 0 1 .254.22c.067.097.116.206.146.32.033.125.042.256.051.385l.039.56c.002.025.003.053-.009.075a.124.124 0 0 1-.046.042c-.289.177-1.023.188-1.201-.171-.164-.329-.01-.999.219-1.262zM6.907 16.276c.076-.184.227-.347.417-.377.25-.04.488.164.584.408s.085.517.072.78a.219.219 0 0 1-.027.114.174.174 0 0 1-.072.053c-.221.104-.905.222-1.069-.033-.127-.199.016-.755.095-.945zM14.776 16.326c-.133-.153-.357-.242-.547-.169a.581.581 0 0 0-.254.22 1.02 1.02 0 0 0-.146.32c-.033.125-.042.256-.051.385l-.039.56c-.002.025-.003.053.009.075.01.018.028.031.046.042.289.177 1.023.188 1.201-.171.163-.329.009-.999-.219-1.262zM16.459 16.431c-.076-.184-.227-.347-.417-.377-.25-.04-.488.164-.584.408s-.085.517-.072.78c.002.04.005.082.027.114.017.025.045.04.072.053.221.104.905.222 1.069-.033.127-.2-.017-.756-.095-.945zM12.349 18.036c.176.018.353-.007.527-.038a6.94 6.94 0 0 0 .354-.074c.032-.008.066-.016.09-.038.028-.024.04-.061.051-.097a1.49 1.49 0 0 0-.462-1.512.616.616 0 0 0-.222-.13c-.199-.057-.413.053-.552.206a1.29 1.29 0 0 0-.298.701c-.026.193-.084.565.008.745.078.153.35.221.504.237zM10.51 20.231c.34.107.716-.13.874-.449.158-.319.147-.695.102-1.048a.315.315 0 0 0-.04-.138.282.282 0 0 0-.115-.089c-.224-.109-.482-.122-.732-.132-.224-.009-.495-.007-.652.182-.107.129-.071.285-.055.439.046.445.105 1.075.618 1.235zM8.463 19.757c.133.153.357.242.547.169a.581.581 0 0 0 .254-.22 1.02 1.02 0 0 0 .146-.32c.033-.125.042-.256.051-.385l.039-.56c.002-.025.003-.053-.009-.075a.124.124 0 0 0-.046-.042c-.289-.177-1.023-.188-1.201.171-.164.329-.01.999.219 1.262zM6.777 18.794c.076.184.227.347.417.377.25.04.488-.164.584-.408s.085-.517.072-.78a.219.219 0 0 0-.027-.114.174.174 0 0 0-.072-.053c-.221-.104-.905-.222-1.069.033-.127.199.016.755.095.945zM14.777 19.757c-.133.153-.357.242-.547.169a.581.581 0 0 1-.254-.22 1.02 1.02 0 0 1-.146-.32c-.033-.125-.042-.256-.051-.385l-.039-.56c-.002-.025-.003-.053.009-.075a.124.124 0 0 1 .046-.042c.289-.177 1.023-.188 1.201.171.164.329.01.999-.219 1.262zM16.459 18.975c-.076.184-.227.347-.417.377-.25.04-.488-.164-.584-.408s-.085-.517-.072-.78a.219.219 0 0 1 .027-.114.174.174 0 0 1 .072-.053c.221-.104.905-.222 1.069.033.127.2-.017.756-.095.945zM12.35 18.366c.176-.018.353.007.527.038.119.022.237.046.354.074.032.008.066.016.09.038.028.024.04.061.051.097a1.49 1.49 0 0 1-.462 1.512.616.616 0 0 1-.222.13c-.199.057-.413-.053-.552-.206a1.29 1.29 0 0 1-.298-.701c-.026-.193-.084-.565.008-.745.079-.153.35-.221.504-.237z"
      fill="#e372aa"
    />
    <path
      d="M10.203 13.881c-.088.229-.15.514.013.698.15.169.42.161.63.078.344-.135.616-.438.715-.794a.95.95 0 0 0 .329.7.95.95 0 0 0 .744.213c.182-.027.367-.12.446-.287.08-.169.034-.369-.033-.543-.3-.784-.946-1.415-1.404-2.107-.095.14-.214.199-.339.307-.174.15-.319.356-.453.541-.267.368-.486.77-.648 1.194z"
      fill="#28241f"
    />
    <path
      d="M8.667 11.701c.265.231.443.438.369.782a.675.675 0 0 1-.323.475.774.774 0 0 1-.529.126c-.127-.024-.289-.039-.387-.124-.213-.185-.339-.313-.336-.595.052.306-.047.643-.283.844-.236.201-.61.239-.863.058-.235-.169-.327-.484-.308-.773.014-.212.058-.422.168-.604-.018.279-.26.492-.509.62-.297.153-.7.217-.933-.022-.152-.156-.181-.391-.189-.608-.007-.217 0-.441.08-.643s.244-.382.456-.431c-.28.234-.652.354-1.015.327-.163-.012-.336-.059-.441-.184-.117-.139-.123-.345-.071-.519.147-.497.752-.802 1.24-.625-.26-.02-.524-.041-.768-.131-.245-.09-.472-.259-.572-.5-.1-.241-.041-.555.175-.7.155-.104.354-.108.54-.094.235.017.522.107.558.34-.028-.024-.048-.05-.076-.074-.263-.219-.543-.464-.61-.8-.083-.412.246-.857.663-.898.453-.046.836.309 1.152.637-.246-.283-.509-.626-.428-.992.081-.366.486-.576.861-.594.245-.012.509.045.677.224.131.139.188.334.204.525.021.258-.024.521-.132.757-.038.013-.004.004-.042.017.075-.326.154-.662.353-.931s.552-.452.87-.351c.313.099.497.446.5.774.004.328-.137.64-.294.929.079-.438.578-.706 1.021-.656.13.015.295.147.394.233.175.151.296.49.263.718-.085.58-.67.915-1.242 1.05.341-.194.711-.295 1.06-.116s.599.376.602.768c.001.113-.025.379-.095.467-.056.07-.186.219-.269.253-.383.158-.717.154-1.091-.024.344.071.7.108.901.396.2.288.119.776-.277.95-.24.106-.536.026-.789-.045-.213-.06-.239.027-.441-.062-.049-.022-.102-.047-.126-.095s.278-.074.332-.079z"
      fill="#e6c536"
    />
    <path
      d="M5.514 7.943c-.437.416-.646.997-.691 1.57-.033.424.019.862.229 1.242.244.443.686.778 1.178.992.398.174.847.277 1.283.212.344-.051.663-.206.931-.408.782-.591 1.119-1.624.818-2.506-.469-1.368-2.516-2.276-3.748-1.102z"
      fill="#28241f"
    />
    <path
      d="M18.017 11.937c.265.231.443.438.369.782a.675.675 0 0 1-.323.475.774.774 0 0 1-.529.126c-.127-.024-.289-.039-.387-.124-.213-.185-.339-.313-.336-.595.052.306-.047.643-.283.844-.236.201-.61.239-.863.058-.235-.169-.327-.484-.308-.773.014-.212.058-.422.168-.604-.018.279-.26.492-.509.62-.297.153-.7.217-.933-.022-.152-.156-.181-.391-.189-.608-.007-.217 0-.441.08-.643s.244-.382.456-.431c-.28.234-.652.354-1.015.327-.163-.012-.336-.059-.441-.184-.117-.139-.123-.345-.071-.519.146-.497.752-.803 1.239-.626-.26-.02-.524-.041-.768-.131s-.472-.259-.572-.5c-.1-.241-.041-.555.175-.7.155-.104.354-.108.54-.094.235.017.522.107.558.34-.028-.024-.048-.05-.076-.074-.263-.219-.543-.464-.61-.8-.082-.411.247-.855.664-.897.453-.046.836.309 1.152.637-.246-.282-.508-.626-.428-.992.081-.366.486-.576.861-.594.245-.012.509.045.677.224.131.139.188.334.204.525.022.258-.024.522-.132.758-.038.013-.004.004-.042.017.074-.326.153-.662.352-.93.199-.268.552-.453.871-.352.313.099.497.446.5.774s-.137.64-.294.929c.079-.438.578-.706 1.021-.656.13.015.295.147.394.233.175.151.296.49.263.718-.085.581-.671.916-1.242 1.051.341-.194.711-.295 1.06-.116s.599.376.602.768c.001.113-.025.379-.095.467-.056.07-.186.219-.269.253-.383.158-.717.154-1.091-.024.344.071.7.108.901.396.2.288.119.776-.277.95-.24.106-.536.026-.789-.045-.213-.06-.239.027-.441-.062-.049-.022-.102-.047-.126-.095s.279-.076.332-.081z"
      fill="#e6c536"
    />
    <path
      d="M14.865 8.179c-.437.416-.647.996-.692 1.57-.033.424.019.862.229 1.242.244.443.686.778 1.178.992.398.174.847.277 1.283.212.344-.051.663-.206.931-.408.782-.591 1.119-1.624.818-2.506-.469-1.368-2.515-2.276-3.747-1.102z"
      fill="#28241f"
    />
    <path
      d="M8.285.872c-.745.454-1.158 1.313-1.322 2.169.485.013.954-.157 1.41-.324.24-.088.97-.604.959-.612-.215-.149-.465-.481-.61-.635a2.887 2.887 0 0 1-.437-.598zM11.337 2.933c.008-.01.024.008.017.019-.007.011-.023.011-.036.01a3.904 3.904 0 0 1-.909-.166c-.318-.099-.638-.25-.835-.519-.138.792.049 1.604.296 2.369.007.024.018.051.043.057.018.005.037-.004.053-.013.691-.382.889-1.131 1.371-1.757zM11.768 2.923c.375.637.995 1.289 1.677 1.565.205-.267.275-.75.293-1.086a2.87 2.87 0 0 0-.141-.994c-.142.213-.599.356-.835.413-.112.028-.936.2-.994.102zM13.956 2.216a4.77 4.77 0 0 0 1.926.533c.029.002.062.001.081-.02.015-.017.016-.042.016-.064a1.291 1.291 0 0 0-.08-.392c-.147-.437-.53-1.235-.998-1.403-.278.496-.511.955-.945 1.346z"
      fill="#2fab9e"
    />
    <path
      d="M14.127.35C13.92 1.359 13 2.179 11.973 2.268c-.369.032-.74-.021-1.101-.101-.271-.06-.543-.136-.782-.278-.521-.307-.827-.888-.968-1.476-.014-.061-.004-.046.081-.085 1.629-.356 2.993-.501 4.924.022z"
      fill="#e372aa"
    />
  </svg>