<?xml version="1.0" encoding="utf-8"?>
<svg version="1.1" xmlns="http://www.w3.org/2000/svg" xmlns:xlink="http://www.w3.org/1999/xlink" x="0px" y="0px"
	 viewBox="0 0 100 100" style="enable-background:new 0 0 100 100;" xml:space="preserve">
	 <linearGradient
        id="CarmenP1_svg__b"
        gradientUnits="userSpaceOnUse"
        x1="43.015"
        x2="49.284"
        y1="106.519"
        y2="23.412"
      >
        <stop offset="0.383" stopColor="#f8b659" />
        <stop offset="0.448" stopColor="#f9c15b" />
        <stop offset="0.604" stopColor="#fcd55e" />
        <stop offset="0.708" stopColor="#fddd5f" />
      </linearGradient>
      <linearGradient id="CarmenP1_svg__a">
        <stop offset="0" stopColor="#f8b659" />
        <stop offset="0.168" stopColor="#f9c15b" />
        <stop offset="0.57" stopColor="#fcd55e" />
        <stop offset="0.836" stopColor="#fddd5f" />
      </linearGradient>
      <linearGradient
        id="CarmenP1_svg__c"
        gradientUnits="userSpaceOnUse"
        x1="61.896"
        x2="93.435"
        xlinkHref="#CarmenP1_svg__a"
        y1="76.084"
        y2="41.041"
      />
      <linearGradient
        id="CarmenP1_svg__d"
        gradientUnits="userSpaceOnUse"
        x1="26.216"
        x2="26.719"
        y1="11.918"
        y2="11.918"
      >
        <stop offset="0.155" stopColor="#e65a20" />
        <stop offset="0.161" stopColor="#e65920" />
        <stop offset="0.393" stopColor="#e33721" />
        <stop offset="0.585" stopColor="#e12321" />
        <stop offset="0.712" stopColor="#e01b21" />
        <stop offset="0.836" stopColor="#e01b21" />
      </linearGradient>
      <linearGradient
        id="CarmenP1_svg__e"
        gradientUnits="userSpaceOnUse"
        x1="26.844"
        x2="23.177"
        xlinkHref="#CarmenP1_svg__a"
        y1="61.906"
        y2="86.659"
      />
      <path
        d="M42.7 34.8c0 .6 0 1.2-.1 1.8-.2 1.2-.7 2.4-1.4 3.3-.3.3-.6.6-.9.8-1.1.5-2.1-.2-3.2-.2-1.3 0-2.5-.2-3.8-.3-.2 0-.5-.1-.7-.2-.3-.2-.4-.5-.5-.9-.4-1.2-.9-2.7-.9-3.9 0-1 .3-2.1.8-3 1-1.8 2.7-3 4.8-3 .5 0 1 .1 1.5.2 2 .5 3.6 2.1 4.1 4.1.3.3.3.8.3 1.3z"
        fill="#f8f6f6"
      />
      <path
        d="M52.2 97.1c-1.6 1.4-3.6 2.1-5.7 2.4-8.7 1.3-17.7-.3-25.4-4.5-.4-.2-.9-.5-1-.9-.2-.4-.1-.8 0-1.3.7-2.7 2.1-5.7 4-7.7 2.4-2.5 4-4.6 6.5-6.9.8-.7 1.6-1.5 1.7-2.6.1-.6-.1-1.3-.1-1.9 0-.7.3-1.3.5-1.9 1.6-4.6 1.3-9.8-.8-14.1-2-4.3-4.6-9-5.1-13.7s1-9.9 3.8-13.7c1.4-1.9 2.7-3 4.5-4.5 1.2-1 2.8-1.7 4.2-2.3 1.5-.7 3.2-.9 4.8-1.1 2.2-.3 3.8-.7 6-.9 3.9-.5 8.6-.8 11.9 1.2 2.7 1.6 4.8 4.1 6.2 6.9 2.1 3.9 3.6 9.5 3.6 14 .1 5-4.9 12.6-7.5 16.8-1.9 3.2-1.3 2.3-3.5 5.3-.9 1.2-.9 1.5-1.6 2.8-2.9 5.1-4.2 12.4-4.8 18.1-.4 3.3-.6 5.6-1.4 8.8-.2.4-.4.8-.8 1.7z"
        fill="url(#CarmenP1_svg__b)"
      />
      <path
        d="M63.7 60.9c-.1.2-.3.3-.5.6-.5.6-1.1 1.1-1.7 1.7-.9 1-1.7 2.1-2.5 3.2-1.3 2-2.3 4.2-2.7 6.6.9.5 2 .1 3-.2 3.8-1.4 7.5-2.7 11.3-4.1.7-.2 1.3-.5 1.9-.9.8-.5 1.4-1.2 2.2-1.7 1.1-.7 2.5-.8 3.8-1.1 1-.2 2-.7 2.6-1.5.4-.5.2-.7.8-.8.4-.1 1.2.1 1.7.1 1.5 0 2.3 0 2.9-1.4.5-1.1.8-2.4 1.5-3.4.7-1.1 2-1.6 2.6-2.8.6-1.1.8-2.4.5-3.6-.4-1.6-1.7-2.9-3.3-3.2-.5-.1-1.1-.1-1.5-.5 2.2-1.1 3.9-3.1 4.7-5.3.2-.5.3-1.1.1-1.6-.4-.8-1.5-.9-2.3-.7-2.5.4-4.7 1.8-6.7 3.4-1.9 1.6-3.6 3.5-5.4 5.3-.6.5-1.1 1-1.6 1.6-.6.8-.9 1.7-1.4 2.6-1 2-2.4 3.8-4.2 5.2-1.4 1-3 1.7-4.7 1.9-.6.2-.8.3-1.1.6z"
        fill="url(#CarmenP1_svg__c)"
      />
      <path
        d="M65.1 3.9c.3.6.1 1.4 0 2.1-.5 1.8-1 3.6-1.5 5.3 2.1-1.3 4.4-2.4 6.9-2.5.6 0 1.3 0 1.8.3.6.3 1 .8 1.1 1.4 0 .5-.2 1-.4 1.4-.6 1.3-1.2 2.8-2 4s-2.1 2-3.3 2.8c-1.6 1.1-3.3 2.1-4.8 3.2-.7.6-.6.9-1.5.9-.9-.1-2.6-.6-3.5-.9-2.8-.8-5.9-.6-8.9-.2-.4.1-.7-.2-1.1-.7-.7-1-1.1-2.2-1.5-3.4-.4-1.1-1-2-1.2-3.2s-.3-2.3-.4-3.5c-.1-1-.2-2.1 0-3.1.4-2.7 4.4-8.6 7.6-5.8.5.5.8 1.1 1.1 1.8.8 1.9 1 3.6 1 5.6C55.9 8 56.8 6 58.3 4.6s3.8-2.2 5.6-1.4c.9.4 1.4 1.8 1.4 2.7 0 .4-.1.8-.3 1.2-.3.6-.7 1.2-1 1.9s-.4 1.4-.3 2"
        fill="url(#CarmenP1_svg__d)"
      />
      <path
        d="M83.6 49.2l-.2-.2.2.2zM42.4 41.3c.1 0 .3.1.4.1s.1.1.2.1c-.1 0-.1-.1-.2-.1-.1-.1-.3-.1-.4-.1zM15.5 55.2c-.1 0-.1 0 0 0h.1zM39.1 56.1c.1 0 .2-.1.3-.1-.2.1-.2.1-.3.1zM78.1 49l.1-.1-.1.1-.2.2c-.2.3-.5.5-.7.8.2-.3.5-.5.7-.8l.2-.2zM51.7 50.6c-.1 0-.1.1-.2.2l.2-.2z"
        fill="none"
      />
      <path
        d="M89 45.7c.9-1 1.6-2.1 2.2-3.3-.6.2-1.2.3-1.7.6-1.9 1.2-3.6 2.6-5 4.4-.2.2-.4.5-.6.7l-.3.6c.1.2.1.4.2.6.5-.1 1-.3 1.4-.6s.9-.6 1.3-.9c.2-.1.3-.2.5 0 0 0 .1 0 .1-.1l.1-.1c.1-.1.1-.2.2-.4.6-.5 1.1-1 1.6-1.5z"
        fill="#f8b659"
      />
      <path
        d="M13 69.5c-1.2.4-2.7 1.1-2.8 2.4 0 .8.6 1.6 1.2 2.2 2.2 2.1 4.9 3.7 7.4 5.5 1.2.8 2.6 1.7 3.7 2.8.9.9 1.2 2.4 2.3 3.1.8.5 2.3.3 2.5-.7.7.6 1.5 1.2 2.4 1.4.9.1 2-.5 2-1.4 0-.5-.3-1.2.1-1.5.2-.2.5-.2.8-.1.7.2 1.1.8 1.8 1.1.6.3 1.5.4 1.8-.3.1-.3.1-.6 0-.9-.3-1.7-1.2-3.2-2.4-4.4 1.8-.9 4.5.6 5.8-.9.8-1 .3-2.6-.7-3.3-1.1-.7-2.4-.7-3.7-.4-1.2.3-2.4.8-3.7 1s-2.7.1-3.5-.9c-.2-.3-.4-.7-.2-1 .1-.2.2-.3.3-.4 1.8-1.4 4.7-.3 6.7-1.6 1.2-.8 2.1-5.6.8-6.3-1-.6-7.1 1.2-9.7 1.6-4.5.6-8.8 1.7-12.9 3z"
        fill="url(#CarmenP1_svg__e)"
      />
      <path
        d="M34.7 29.4c.3-.2.5-.4.7-.5-.1-.4-.1-.8-.2-1.1.1-.4.1-.8.2-1.4-.4.3-.8.6-1.1.9-.4.4-.5.8-.3 1.4 0 .3.3.5.7.7zM28.2 73.1c.1.2.2.5.4.6.6.3 1.3.5 2.1.5.5-.7.9-1.4 1.4-2.2-1.3-.2-2.9.2-3.9 1.1zM31.7 36.2c.2 1.3.5 2.6 1.4 3.8.8 0 1.6.1 2.4.1 1.1.1 2.2.2 3.2.3.6 0 1.2.2 1.7-.3.4-.3.8-.7 1.1-1.2.5-.8.7-1.7.8-2.7.4-2.3-.2-4.2-2.1-5.6-.5-.5-1.1-.9-1.8-1.2-.2-.1-.4-.1-.6-.1-1.6-.2-2.9.6-4 1.6-1.7 1.5-2.3 3.3-2.1 5.3z"
        fill="none"
      />
      <path
        d="M53 49.5c2.7-1.4 4.5-2.6 6.9-4.3 1.1-.8 2.2-.8 3.5-1.4.3-.1 1.2-1.5 1.4-1.7-.6-.1-2.6.5-3.2.5h-.5c-.1 0-.3.1-.4.1-.2.1-.4.1-.6.1-1.6.3-3.2.6-4.9.9-1.3.2-2.5.1-3.7.1-.8 0-1.7-.1-2.5-.3-.6-.1-1.3-.1-1.9-.3s-1.3-.3-2-.5l-.1.1c-.1.1-.2.2-.3.2-.2-.1-.4-.2-.5-.3h-.1c-.4.1-.7.2-1.1.3-1.2.2-2.5-1.1-3.7-.8-1.3.3-2.5.4-3.8.5-1.7.2-2.8.2-4.5.6-1.3.3-1.9.1-3.2.5-.4.1-1.3-.8-1.5-.5-.2.4-.9 1.3-1.2 1.7-.6.7-.3 0-1.3.3-.2.1-1.1 1.3-1.4 1.4-.6.3-1.8-.2-2.4 0-.7.1-1.3 1.1-1.8 1.5-.9.9-2 1.7-2.7 2.8-.2.2-1.5 3.1-1.6 3.4.2.3 2.6 1.7 2.9 1.8.5.1 1.3.4 1.8.5 1 .2 1.9-.1 3 0 2.4.2 5.5.3 7.9.1 5.1-.4 9.9-1.3 14.7-2.9 2.7-.7 6.2-3.1 8.8-4.4z"
        fill="#fced65"
      />
      <path
        d="M42.7 63.4c.3.1.5.2.8.3s.7.3 1 .4c.2.1.5.1.7 0 .8-.5 1.7-.9 2.4-1.6 1.1-1.3 2.4-2.5 3.4-3.9.2-.3.5-.5.7-.7.7-.8 1.3-1.6 2-2.4.2-.2.4-.4.6-.5 0-.4.3-.5.6-.7l.7-.7c.6-.7 1.1-1.4 1.7-2 1-1.2 2.1-2.4 3.1-3.6.3-.3.7-.6 1-.9.2-.2.3-.4.5-.6s.3-.4.2-.6c-.8.6-1.7 1.2-2.5 1.9-1.1.9-2.2 1.8-3.3 2.8l-3.6 3.3c-.8.8-1.6 1.5-2.4 2.3-.1.1-.1.2-.2.3-.8.8-1.7 1.5-2.5 2.3-.5.4-1 .9-1.5 1.4-.4.3-.6.8-1.1.8-.1.2-.3.2-.4 0h-.2c-.7-.7-1.4-1.3-2.1-2 0-.1-.1-.1-.1-.2-.3-.4-.6-.8-.9-1.1 0-.1-.1-.1-.1-.2-.1-.4-.2-.5-.2-.6s-.1-.1-.1-.2c-.1-.2-.3-.4-.4-.6l-.3-.3c-.1 0-.3.1-.4.1s-.2 0-.3.1c-.1 0-.2.1-.3.1s-.2.1-.4.1c-.1 0-.1.1-.2.1s-.3 0-.4.1c-.1 0-.1.1-.2.1s-.2 0-.4.1c-.1 0-.1.1-.2.1h-.2c-.1 0-.1.1-.2.1.2.4.5.9.7 1.3 0 .1.1.1.1.2.1.1.1.2.2.3 0 .1.1.1.1.2.1.2.2.4.3.5 0 .1.1.1.1.2.7.8 1.3 1.5 2 2.3l.9.9.1.1.3.3h.1c.4-.2.5.3.8.3z"
        fill="#fced65"
      />
      <path
        d="M53.5 51.6c1.9-1.9 3.9-3.6 6.1-5.2.5-.4.9-.7 1.4-1.1 0-.1-.1-.1-.1-.2-.2.1-.3.1-.5.2-1.7 1.2-3.3 2.3-5 3.5-.8.5-1.5 1.1-2.3 1.6-.3.3-.6.7-1 .9-1.4 1-2.6 2.2-3.8 3.3-.8.8-1.8 1.4-2.7 2.1-.1.1-.3.1-.4.2-.5-.4-.6-.6-.4-1.1.2-.6.5-1.3.7-1.9-1.4.5-2.8 1-4.3 1.5.1.6.3 1.1.7 1.5.6.7 1.2 1.4 1.8 2.2.2.2.5.3.7.5.6-.4 1.1-.8 1.7-1.2.3-.2.5-.3.8-.5.6-.5 1.1-1 1.7-1.5.1-.1.2-.3.3-.4 1.6-1.4 3.1-2.9 4.6-4.4z"
        fill="#e21b18"
      />
      <path
        d="M19.2 49.4c.4.2.9.2 1.3.3.9-.1 1.6-.3 2.7-1 .6-.4 1-1 1.2-1.7.3-.8.2-1.6-.4-2.2-.7-.8-1.6-1.1-2.7-.8-1.6.4-2.8 1.2-3.3 2.8-.2 1 .2 2.2 1.2 2.6z"
        fill="none"
      />
      <path
        d="M17.5 50.9c.3-.2.6-.5.9-.6.2-.1.4-.2.5-.1.5.1.9-.1 1.4 0 .6.1 1.1-.1 1.7-.3l.9-.3c.6-.2 1.1-.7 1.5-1.2.3-.4.5-.9.7-1.3.2-.5.5-.9 1-1.1.7-.3 1.4-.5 2.1-.7h.2c1.1-.5 2.3-.5 3.5-.8.4-.1.9-.3 1.5-.1.2.1.6-.1.8-.1.7-.1 1.5-.1 2.2-.1.8 0 1.5-.4 2.2-.7.8-.3 1.5-.7 2.3-.7.1 0 .1 0 .2-.1.4-.3.9-.2 1.4-.1.1-.6-.6-.8-1.1-.9-2.8-.7-5.6-1.3-8.4-1.4-1.5 0-3 .1-4.4.3-1 .1-2.1.2-3.1.4-1.7.4-3.4 1.1-5 1.8-1.7.8-3.4 1.5-4.8 2.7s-2.5 2.9-2.7 4.7c-.1 1.2.2 2.3.5 3.5.4 1.3 1.1.9 1.7.1.7-1.1 1.4-2.1 2.3-2.9zm.5-4.1c.5-1.7 1.6-2.5 3.3-2.8 1.1-.2 2 0 2.7.8.6.6.7 1.3.4 2.2-.3.7-.6 1.3-1.2 1.7-1.1.7-1.8 1-2.7 1-.4-.1-.9-.1-1.3-.3-1-.4-1.4-1.6-1.2-2.6z"
        fill="#fbf19a"
      />
      <path
        d="M43.8 42.7c-.1 0-.2-.1-.2-.1h-.1c-.1 0-.1-.1-.2-.1-.2 0-.4-.1-.6-.1 0 .1-.1.1-.1.2-.5-.2-.9-.2-1.4.1-.1 0-.1.1-.2.1-.8 0-1.6.4-2.3.7-.7.2-1.4.6-2.2.7-.7 0-1.5.1-2.2.1-.3 0-.6.2-.8.1-.5-.2-1 0-1.5.1-1.1.3-2.4.3-3.5.8h-.2c-.7.2-1.4.4-2.1.7-.5.2-.8.6-1 1.1s-.4.9-.7 1.3c-.4.5-.8 1-1.5 1.2l-.9.3c-.5.3-1.1.4-1.7.3-.5 0-.9.2-1.4 0-.2 0-.4 0-.5.1l-.9.6c-.9.8-1.6 1.8-2.3 2.8-.2.3-.4.5-.7.8l.6.6c.1 0 .1.1.2.1h.2c.1-.3.1-.6.3-.8.7-1 1.5-2 2.4-2.9.5-.5 1.1-.8 1.8-.9s1.4-.1 2-.4c.2-.1.4-.2.7-.3.9-.3 1.6-.9 2.2-1.6.3-.4.5-.8.8-1.2.2-.3.5-.6.9-.7 1.3-.4 2.6-.8 3.9-1.1 1.7-.3 3.3-.5 5-.7 1.3-.1 2.6-.5 3.9-.8 1.2-.3 2.3-.7 3.5-.9.4-.1.7-.2 1.1-.3-.2.2-.3.1-.3.1z"
        fill="#fdf080"
      />
      <path
        d="M30.7 40c.3 0 .6 0 .9-.1-.1-.1-.1-.2-.1-.2h-.8l-.3-.6c-.3-.7-.4-1.5-.4-2.3v-2c0-1.2.3-2.4 1-3.4.5-.6 1-1.2 1.6-1.8.2-.2.4-.2.6-.2-.1-.3-.2-.7-.3-1.1-1.2 1.1-2.2 2.1-3 3.3-.9 1.5-1.4 3.2-2 4.8-.3 1-.5 2-.6 3.1 0 .2.1.5.1.7H27.7c.2 0 .5-.1.7-.1h.6c.8-.1 1.3-.1 1.7-.1z"
        fill="#fddd5f"
      />
      <path
        d="M31.1 31.5c-.7 1-1 2.1-1 3.4v2c0 .8.1 1.6.4 2.3l.3.6h.8c-.7-1.6-1-3.3-.6-5.1.3-1.3.7-2.5 1.7-3.5.4-.3.7-.7 1-1.1-.1-.2-.2-.4-.4-.6-.2 0-.5 0-.6.2-.6.6-1.2 1.1-1.6 1.8zM42.3 29.7c-.2-.4-.5-.8-.7-1.2-.1-.1-.2-.3-.3-.4-.2-.1-.3-.2-.5-.3-.7-.3-1.4-.5-2.2-.5v.9c.3.1.5.3.8.4 1 .5 2 1 2.8 1.9.3.3.5.7.8 1-.1-.1 0-.6 0-.8-.1-.3-.2-.6-.4-.8-.2-.1-.3-.1-.3-.2z"
        fill="#f6be5a"
      />
      <path
        d="M38.6 30.4c.5.2 1.1.3 1.6.4-.5-.5-1.1-.9-1.8-1.2-.2-.1-.4-.1-.6-.1-1.6-.2-2.9.6-4 1.6l.9-.3c1.3-.7 2.6-.8 3.9-.4z"
        fill="#aeaeae"
      />
      <path
        d="M35.2 27.7c.1-.4.1-.8.2-1.4-.4.3-.8.6-1.1.9-.4.4-.5.8-.3 1.4.3-.4.7-.7 1.2-.9z"
        fill="#fddd5f"
      />
      <path
        d="M34 28.6c0 .4.3.6.7.8.3-.2.5-.4.7-.5-.1-.4-.1-.8-.2-1.1-.5.1-.9.4-1.2.8zM36.3 28.5c.5-.1.8-.2 1.2-.2-.1-.3-.1-.5-.2-.7h-1zM36.2 26.2s.1 0 0 0c.1 0 .1 0 0 0z"
        fill="#f6be5a"
      />
      <path
        d="M63.1 60.4c0-.1.1-.1.1-.2-.1 0-.1.1-.2.1 0 .1.1.1.1.1z"
        fill="#ffd45f"
      />
      <path d="M77 50.3c-.1.1-.2.1-.2.2.1 0 .3.1.2-.2z" fill="#fddd5f" />
      <path d="M62.8 60.8c0-.1-.1-.1-.1-.1l.1.1z" fill="#ffd45f" />
      <path d="M59.2 65.9c0-.1-.1-.1-.1-.1l.1.1z" fill="#fcce5e" />
      <path
        d="M84.4 53.4c-.9.3-1.8.7-2.7 1.2l-2.4 1.2c-.1.1-.2.2-.3.4.1.1.1.1.2.1.2 0 .3 0 .5-.1 1.5-.3 2.9-.8 4.4-1 1.1-.2 2.3-.5 3.3-1.1.6-.3 1.1-.7 1.4-1.3-.3-.2-.6-.3-.9-.3-1.3 0-2.4.6-3.5.9zM82.6 58.8c.6-.1 1.1-.4 1.6-.8s1-.7 1.4-1.2c.3-.3.5-.6.8-1-1.4.3-2.7.6-4.2.9 0 .6-.1 1.1 0 1.6 0 .2.2.4.3.6 0 .1 0-.1.1-.1zM77.5 64.1c.2-.1.5-.1.8-.1v.9c1.2-.3 2.6-1.3 2.8-2.1-.3-.4-.7-.8-1.1-1.2-.6.5-1.3 1.1-1.9 1.6-.3.3-.7.5-1 .8 0 .2.2.2.4.1zM82.7 62c.5-.4 1-.8 1-1.5-.7-.2-1.5-.4-1.9-1-.2.4-.3.8-.5 1.2-.4.7-.3 1.1.4 1.5.2.1.5.2.7.3-.1-.3.1-.4.3-.5z"
        fill="#f8b659"
      />
      <path
        d="M88.9 49.7c-.2-.1-.5-.2-.7-.4-.4-.4-.9-.4-1.4-.4-.3 0-.6.1-.8.4.9.2 1.7.3 2.4.5.1-.4.4 0 .5-.1z"
        fill="#d88f38"
      />
      <path
        d="M59.8 34.9c0 2.6-1 4.6-3 6.2-.6.5-1.4.8-2.2 1-1.2.3-2.5.3-3.7.3-.5 0-1-.1-1.4-.4-1-.7-2-1.5-2.8-2.5l-.1.1c.2.8.6 1.5 1.1 2 1.2 1.2 2.6 1.7 4.3 1.8 2.1.1 4.1-.3 5.7-1.6.6-.5 1.3-1 1.8-1.6.7-.7 1-1.7 1.1-2.7.2-1.3.1-2.5-.4-3.6-.2-.4-.3-.7-.5-1.1-.4-.2-.5-.5-.6-.9v-.1c-.3 0-.5-.2-.6-.4h-.1c-.1 0-.2.1-.2.1 1 1 1.5 2.5 1.6 3.4z"
        fill="#f6be5a"
      />
      <path
        d="M59.9 32.8c0-.4-.2-.7-.6-.9.1.4.2.7.6.9zM59.3 31.8c0-.4-.2-.5-.6-.4.1.2.3.4.6.4zM41.2 28c0-.2-.1-.3-.3-.3 0 .2.1.3.3.3z"
        fill="#fddd5f"
      />
      <path
        d="M62.3 45.5c-.1.1-.2.1-.3.2.2 0 .4.1.3-.2zM62.3 45.5c.2.1.2-.1.2-.2l-.2.2z"
        fill="#fced65"
      />
      <path
        d="M19.2 49.4c.4.2.9.2 1.3.3.9-.1 1.6-.3 2.7-1 .6-.4 1-1 1.2-1.7.3-.8.2-1.6-.4-2.2-.7-.8-1.6-1.1-2.7-.8-1.6.4-2.8 1.2-3.3 2.8-.2 1 .2 2.2 1.2 2.6zm0-3.5c.7-.8 1.5-1.3 2.5-1.4 1.4-.1 2.8.9 2.3 2.5-.3.8-.7 1.3-1.4 1.7-.6.3-1.2.5-1.7.5-1.2 0-1.9-.5-2.2-1.5-.2-.6 0-1.3.5-1.8z"
        fill="#fff8d0"
      />
      <path
        d="M45.3 56.9c.1-.1.3-.1.4-.2.9-.7 1.9-1.3 2.7-2.1 1.2-1.2 2.5-2.3 3.8-3.3.4-.3.7-.6 1-.9-.1 0-.3.1-.4.1-.3.1-.5.2-.8.3h-.3c-.1.1-.1.3-.2.3-1.2 1-2.4 1.9-3.6 2.9-.5.4-1 .9-1.5 1.3-.1.1-.3.1-.4.2-.3-.4 0-.7.1-1 .1-.4.3-.7.5-1-.4 0-.7 0-1 .4-.2.6-.5 1.3-.7 1.9s-.2.7.4 1.1z"
        fill="#7b1a10"
      />
      <path
        d="M45.9 55.6c.2-.1.3-.1.4-.2.5-.4 1-.9 1.5-1.3 1.2-1 2.4-1.9 3.6-2.9.1-.1.1-.2.2-.3h.3c0-.1-.1-.2-.2-.2l-.2.2c-.2 0-.4.1-.5.2-1.1.5-2.1 1-3.1 1.5-.6.3-1.1.6-1.4 1.1-.2.3-.4.7-.5 1-.1.2-.4.5-.1.9z"
        fill="#eb864b"
      />
      <path
        d="M50.5 31c1.3-.2 2.5-.3 3.8-.1 1.6.3 2.9 1.1 3.9 2.4.1.1.2.2.3.2 0-.7-.5-1.1-1-1.5-.4-.3-.8-.5-1.2-.8-1.2-.9-2.6-1.2-4.1-1.1-.8.1-1.6.2-2.2.8.2.1.4.1.5.1zM58.6 33.9v.8c.2-.3.2-.5 0-.8z"
        fill="#aeaeae"
      />
      <path
        d="M20.8 49.2c.5 0 1.1-.2 1.7-.5.7-.4 1.2-.9 1.4-1.7.5-1.6-.9-2.6-2.3-2.5-1 .1-1.8.6-2.5 1.4-.5.6-.7 1.2-.5 1.9.3.9 1 1.4 2.2 1.4z"
        fill="#fff"
      />
      <path
        d="M42.7 34.8c0 .6 0 1.2-.1 1.8-.2 1.2-.7 2.4-1.4 3.3-.3.3-.6.6-.9.8-1.1.5-2.1-.2-3.2-.2-1.3 0-2.5-.2-3.8-.3-.2 0-.5-.1-.7-.2-.3-.2-.4-.5-.5-.9-.4-1.2-.9-2.7-.9-3.9 0-1 .3-2.1.8-3 1-1.8 2.7-3 4.8-3 .5 0 1 .1 1.5.2 2 .5 3.6 2.1 4.1 4.1.3.3.3.8.3 1.3z"
        fill="#f8f6f6"
      />
      <circle cx="37.6" cy="35.4" fill="#a87a41" r="3.4" />
      <path
        d="M39.9 36.1c-.3 0-.5.1-.8.1-.1.1-.2.1-.3.2-.3.3-.5.7-1 .7-.4.1-.8 0-1.2-.2-.4.3-.4.9-.4 1.3.1.1.1.2.2.2 1.2.5 2.8.2 3.8-1-.2-.4 0-1-.3-1.3z"
        fill="#d88f38"
      />
      <path
        d="M38.8 34.7c.4-.8.2-1.2-.6-1.2-.1.1-.1.2-.2.3 0 .1-.1.2-.1.3.1.7.2.8.9.6z"
        fill="#f8f6f6"
      />
      <path
        d="M38.1 35.6c-.1.5-.2 1-.4 1.5.5 0 .8-.4 1-.7-.2-.2-.1-.8-.6-.8z"
        fill="#32357c"
      />
      <ellipse cx="52.9" cy="36.1" fill="#f8f6f6" rx="6.4" ry="6.3" />
      <ellipse cx="53.5" cy="35.7" fill="#a87a41" rx="3.9" ry="4" />
      <path
        d="M56 36.3c-.3 0-.5.1-.8.1-.1.1-.2.2-.3.2-.3.4-.6.8-1.2.8-.5.1-1-.1-1.4-.3-.1.2-.3.5-.3.7-.1.3 0 .6 0 .9 1.2.8 3 .4 3.8-.4l.1-.1.1-.1.1-.1.1-.1c0-.6.4-1.2-.2-1.6z"
        fill="#d88f38"
      />
      <g fill="#201d14">
        <path d="M65.5 70.1l-3.6 1.2c-1.6.5-3.2 1.1-4.8 1.6.1-.3.1-.5.1-.7.3-.9.8-1.7 1-2.5s.6-1.5 1-2.2c.3-.6.8-1.2 1.3-1.7.2-.2.4-.4.5-.7s.3-.5.5-.7l2.4-3c.7.2 1.3-.1 1.9-.4 1.3-.7 2.6-1.4 3.9-2 .9-.5 1.8-1 2.3-2 0-.1.1-.1.2-.2.5-.7 1-1.5 1.6-2.2.9-1.2 1.8-2.5 2.8-3.7l.3-.3c.1-.1.2-.1.2-.2.1-.1.1-.2.2-.3.2-.3.5-.5.7-.8l.2-.2.1-.1c.3-.2.5-.5.8-.7h.1c.4-.4.8-.7 1.2-1.1 1.1-1 2.2-2.1 3.3-3.1 1.2-1.1 2.6-2.1 4.2-2.7.6-.2 1.3-.5 2-.5.3 0 .5-.1.8-.1.8.5 1 .9.7 1.7-.6 1.2-1.3 2.3-2.2 3.3-.5.5-1.1 1-1.6 1.5.2-.1.4-.1.5-.2.3-.2.5-.4.7-.6 1.1-1 2.1-2 2.7-3.4.2-.5.4-1 .4-1.5-.1-1.2-.7-1.5-1.5-1.4-.4 0-.7.1-1.1.1-.4.1-.9.3-1.3.4-2.7.4-4.6 2.1-6.4 3.8-1.1 1-2.2 2.1-3.3 3.1s-2.2 1.9-3 3.2-1.7 2.6-2.5 3.9c-.5.7-1 1.5-1.7 2-1.7 1.2-3.5 2.3-5.3 3.4-.3.2-.7.3-1 .4-.2-.5.2-.7.4-.9.9-1 1.8-2 2.5-3.2.6-1.1 1.3-2.3 2-3.4.7-1.3 1.3-2.7 1.8-4.2 1-3.3 1.1-6.6.5-10-.5-3-1.6-5.8-2.9-8.6-.9-1.9-2-3.7-3.4-5.3-.4-.5-.9-.8-1.4-1.2-.4-.3-.8-.6-.5-1.3.4-.3.9-.7 1.3-1.1 1.4-1 2.7-2.1 4.3-2.7.2-.1.4-.2.6-.4.2-.1.3-.3.5-.4s.1-.1.1-.1c.5-.5 1-1 1.3-1.6.8-1.4 1.4-2.9 2.1-4.3.2-.5.3-1 .1-1.4-.3-.6-.6-1.2-.9-1.7-.6-.5-1.1-.7-1.7-.7h-1.4l-1.2.3h-.2c-.1 0-.2.1-.2.1h-.1c-.1 0-.2.1-.3.1-.1 0-.2.1-.3.1-.2.1-.4.1-.5.2-.7.3-1.3.6-2 .8-.2.1-.4.3-.6-.1.1-.2.2-.3.2-.5.4-.9.8-1.7 1.1-2.6.1-.2.2-.5.1-.8-.3-1.1-.7-2.2-1.4-3.1-.5-.5-1-.9-1.7-.9-.8 0-1.6.1-2.4.4-1 .4-1.9 1-2.7 1.6-.9.6-1.7 1.4-2.3 2.4l-.3.3c-.1-.2-.1-.3-.1-.3-.3-1.6-1-3-2-4.3C52.6.9 51.9.3 51-.1c-.5 0-1 .1-1.4.3-.9.4-1.5 1.1-2.1 1.9-.6.9-1.2 1.8-1.8 2.8-.8 1.6-1.5 3.2-1.5 5 0 1.6.3 3.2.7 4.7.6 2.1 1.6 4.1 2.4 6.1.1.2.3.5.1.7h-.2c-1 0-2-.1-3 0-.7 0-1.4.2-2.1.4-.5.1-1 .4-1.5.5-.3.1-.7.1-.9 0-1.2-.6-2.3-.2-3.4.2-.2.6.4.8.6 1.3-.5.5-1.2.7-1.8 1.1s-1.2.8-1.7 1.2c-.2-.3-.4-.5-.5-.7-.7.5-.2 1.1-.3 1.5-4.1 3.7-6.5 8-6.5 13.6-.3 0-.7.1-1 .1-2.7.4-5.2 1.5-7.6 2.7-1.8 1-3.3 2.3-4.6 4-1 1.3-1.3 2.9-1 4.5.1.7.3 1.4.7 1.9 1.2 1.8 2.9 3 5.1 3.3.8.1 1.6.1 2.4.2 2.1.1 4.1.2 6.2.3h4.3c1 1.3 2.4 5.9 2.1 7.1-.1 0-.2.1-.3.1-2.2.4-4.5.8-6.7 1.1-1.4.2-2.7.4-4.1.6-1.1.1-2.1.2-3.2.4-2 .4-3.8 1.2-5.6 2-.7.3-1.5.6-2.2 1-1.4.7-1.8 2-.8 3.2.3.3.5.7.9 1 1.1 1.1 2.3 2.1 3.6 3 2 1.4 4.1 2.9 6.1 4.3 1.1.8 2.1 1.7 2.8 2.9-.1.1-.1.2-.1.2-.2.2-.3.4-.5.6-1.4 1.6-2.5 3.3-3.1 5.4-.1.2-.1.4-.1.6 0 .6 0 1.3.1 1.9.6 0 .7-.4.8-.9.2-1.2.8-2.1 1.3-3.1.4-.8.9-1.5 1.4-2.3.3-.5.6-.9 1-1.3.3.2.5.4.8.6s.6.3.9.4c.7.2 1.1 0 1.4-.6 0-.1.1-.1.2-.2.4.2.8.4 1.2.7.6.4 1.3.6 2.1.6.7.1 1.2-.3 1.2-.9s0-1.2-.1-1.7c0-.2-.1-.4-.2-.7 1.4 1.1 2.9 1.9 4.8 1.7.4-1.2.3-2.3-.2-3.4-.5-.9-1.2-1.7-2-2.4 2.2-.2 4.4-.4 6.4-1.3.2-.1.3-.3.4-.4-.1-1.8-1.9-3.9-4.1-3.9-1.2 0-2.5.2-3.7.5-.3.1-.7.1-1.1.1.1-.8.2-1.4.4-2.1.6-.3 1.3-.6 1.9-.9l1.2-.6c-.4-.3-.8-.1-1.1-.2h-1.1c-.8.1-1.5.2-2.3.3-.3.1-.6.2-.9.4-1 .4-2 .8-3 1.3-.2-.2-.5-.5-.8-.7-.3.1-.4.3-.3.5.2.4.4.7.7 1.1.7.7 1.6 1.2 2.5 1.6 1.1.5 2.3.5 3.5.3 1-.2 2.1-.4 3.1-.6 1-.1 1.9 0 2.8.4.7.3 1.1.8 1.3 1.6-.9.5-1.8.8-2.8.9-1.4.4-2.9.5-4.4.4-.3 0-.6-.1-.8-.1 0 0 0 .1-.1.1l.3.3c.1.1.2.2.3.2.7.4 1.3 1 1.7 1.8.5.6 1 1.2 1.2 2 .1.6.1 1.1-.1 1.8-.8-.2-1.7-.2-2.4-.8l-2.4-2.1c-.3-.3-.7-.5-1-.7-.1-.1-.2 0-.4 0 .6 1 1.1 2 1.4 3.1.2.5.1 1.1 0 1.7-1.3.5-2.3-.1-3.3-.8-.1-.9-.6-1.8-1-2.6-.3-.5-.8-.9-1.5-.7.2.2.3.4.4.6.5.8.9 1.6 1.1 2.5.1.3 0 .6 0 1-.3 0-.5 0-.6-.1-.5-.3-1-.6-1.4-1-.9-1-1.8-2.1-2.6-3.1-.4-.5-.9-.8-1.4-1.1-.7-.4-1.4-1-2.1-1.5-.4-.3-.8-.6-1.1-1-.9-.6-1.8-1.2-2.6-1.7-.1-.1-.1-.2-.2-.3-.8-.6-1.5-1.2-2.3-1.7-.2 0-.3-.1-.2-.3-.5-.3-1-.6-.9-1.3.2-1 1-1.4 1.9-1.8.9-.5 1.9-.9 2.9-1.2.9-.3 1.7-.6 2.5-.9 1.2-.4 2.5-.5 3.8-.7.4 0 .8-.1 1.1-.1s.6-.1.9-.1l4.2-.9c.6-.1 1.3-.3 1.9-.4.9-.2 1.8-.3 2.6-.5.9-.3 1.8-.7 2.8-1-.2-.6-.6-.5-1-.6l-.9-3.6c-.2-.4-.4-.9-.6-1.3-.3-.5-.6-1-.8-1.5 0-.1.1-.1.1-.2.1 0 .2 0 .3-.1.1 0 .2-.1.3-.1 0-.1-.1-.1-.1-.1l.1.1h.9c0-.2.1-.2.2-.2-.1 0-.1.1-.2.2.1 0 .3-.1.4-.1.4-.1.8-.1 1.2-.2.1 0 .1 0 .2-.1h.6c.1.1.2.3.3.4 0 .1.1.1.1.2.1.2.3.5.4.7.1.1.1.2.2.3.4.9 1 1.7 1.6 2.4.9.9 1.8 1.7 2.7 2.6.2.1.3.2.5.3l.1-.1c0-.2 0-.4-.1-.6h-.1v0l-.3-.3-.1-.1-.9-.9c-.7-.8-1.3-1.5-2-2.3 0-.1-.1-.1-.1-.2-.1-.2-.2-.4-.3-.5 0-.1-.1-.1-.1-.2-.1-.1-.1-.2-.2-.3 0-.1-.1-.1-.1-.2-.2-.4-.5-.9-.7-1.3.1 0 .1-.1.2-.1h.2c.1 0 .1-.1.2-.1s.2 0 .4-.1c.1 0 .1-.1.2-.1s.3 0 .4-.1c.1 0 .1-.1.2-.1s.2-.1.4-.1c.1 0 .2-.1.3-.1.1 0 .2 0 .3-.1.1 0 .3-.1.4-.1-.1 0-.1-.1-.1-.1l.1.1.3.3c.1.2.3.4.4.6 0 .1.1.1.1.2.1.1.1.2.2.3 0 .1.1.1.1.2.3.4.6.8.9 1.1 0 .1.1.1.1.2.7.7 1.4 1.3 2.1 2h.2c.2.2.3.1.4 0 .5-.1.8-.5 1.1-.8.5-.4 1-.9 1.5-1.4.8-.8 1.7-1.5 2.5-2.3.1-.1.1-.2.2-.3.8-.8 1.6-1.6 2.4-2.3l3.6-3.3c1.1-.9 2.2-1.9 3.3-2.8.8-.7 1.6-1.3 2.5-1.9.1-.1.2-.1.3-.2.1-.1.1-.2.2-.2.8-.8 1.6-1.5 2.3-2.2v-1c-.4.2-.8.3-1.1.5-.1 0-.2 0-.3.1-.3.1-.5.3-.8.4-1.3.6-2.5 1.3-3.6 2.1-2.5 1.8-5 3.5-7.6 4.9-2.5 1.3-5.1 2.6-7.9 3.5l-3 .9h-.1c-.1 0-.2.1-.3.1h-.3c-.1 0-.1.1-.2.1h-.3c-.1 0-.2.1-.3.1h-.3c-.1 0-.2.1-.2.1-.1 0-.2 0-.4.1-.4.1-.7.2-1.1.2-.1 0-.2 0-.3.1-.2 0-.4.1-.6.1H36c-.2 0-.4.1-.6.1h-.1c-.2 0-.4.1-.6.1h-.1c-.1 0-.2.1-.3.1-.6.1-1.2.2-1.8.2-.1 0-.3.1-.4.1-.3 0-.7 0-1 .1-.2 0-.5.1-.7.1h-1.5c-.2 0-.3.1-.5.1-.4.1-.9.1-1.3.1.4 0 .9-.1 1.3-.1.2 0 .3-.1.5-.1-.7 0-1.4.1-2 .1h-.3c-.6 0-1.2.1-1.7.1h-1.5c-.5 0-1-.1-1.4-.1h-.3c-.5-.1-1-.2-1.4-.3-.5-.1-1-.1-1.5-.2-.1 0-.1-.1-.2-.1h-.7c-.2 0-.4-.1-.6-.1-.1 0-.2-.1-.3-.1h-.1c-.1 0-.3-.1-.4-.1h-.1c-.1 0-.2-.1-.3-.1 0 0 0-.1-.1 0s0-.1-.1-.1h-.1-.1c-.1 0-.1-.1-.2-.1l-.6-.6c-.6-.5-.9-1.2-1-1.9 0-.1 0-.2-.1-.3v-1c.2-.6.3-1.2.5-1.9.3-.5.6-1.1 1-1.6.1-.2.3-.4.4-.6 1.4-1.7 3.2-3 5.4-3.8.1 0 .2-.1.3-.2.1 0 .2-.1.3-.1.4-.2.8-.3 1.2-.5.6-.2 1.1-.4 1.7-.6.1 0 .1-.1.2-.1.2-.1.4-.1.7-.2h.1c.2-.1.5-.2.7-.2s.3-.1.5-.1h.1c.1 0 .2-.1.2-.1.2 0 .3 0 .5-.1.1 0 .2-.1.2-.1.3-.1.6-.1.9-.2.8-.1 1.6-.3 2.5-.4h2.9c.2-.2.3-.2.5-.1-.1-.1-.2-.1-.5.1.2 0 .4.1.6.1.3 0 .6 0 .9.1.2 0 .4.1.6.1-.1-.1-.1-.2-.2-.2.1 0 .2.1.2.2.4 0 .8.1 1.2.1.1 0 .2.1.2.1.4.1.7.1 1.1.2.1 0 .2.1.4.1h.2c.1 0 .2.1.2.1.2.1.4.1.6.2.1 0 .2.1.2.1.1.1.3.1.4.2.1 0 .2.1.3.1.5.1.9.1 1.4.2.1 0 .1.1.2.1s.1.1.2.1c.2 0 .4.1.6.1.1 0 .1.1.2.1h.1c.1 0 .1.1.2.1.1.1.2.1.2.2h.1c.2.1.4.2.5.3.1 0 .2-.1.3-.2-.1-.1-.3-.2-.4-.4-.3-.3-.6-.5-1-.8-.1 0-.1-.1-.2-.1-.1-.1-.2-.1-.4-.2-.1 0-.1-.1-.2-.1s-.3-.1-.4-.1c-.2-.1-.5-.2-.7-.3-.1 0-.2 0-.3-.1-.1 0-.2-.1-.3-.1h-.2s0-.1-.1-.1c.9-1 1.8-2.1 2.2-3.4.2-.5.2-1 .2-1.5 0-1.3 0-2.6-.4-3.8v-.4c-.3-.3-.5-.7-.8-1-.7-.9-1.8-1.4-2.8-1.9-.2-.1-.5-.2-.8-.4v-.9c-.3-.3-.6-.6-.8-.9-.1 0-.1 0-.2.1 0 .4-.1.8-.1 1.2.1.2.1.4.2.7-.4.1-.8.1-1.2.2v-.9c-.2-.4-.2-.9 0-1.3s0 0 .1-.1c.4-1.4 1.5-2 2.8-2.4.9-.2 1.5.2 2 1.1.2 0 .4 0 .7-.1-.2-.6-.3-1.2-.5-1.8.7-.3 1.5-.5 2.3-.6 1.4-.1 2.7-.2 4.1-.3.3 0 .6 0 1 .1.1-.3.1-.5.2-.7-.2-.8-.5-1.5-.8-2.3-.2-.7-.5-1.4-.8-2.1-.3-.8-.6-1.6-.8-2.4 0-.1-.1-.3-.1-.4-.4-.1-.5-.3-.5-.4s0-.2-.1-.4c0-.1-.1-.1-.1-.2V13v-.2-.3-.3c-.2-.7-.3-1.4-.3-2.2 0-1 0-2.1.4-3.1.3-1.7 1.2-3 2.7-3.9.7-.4 1.5-.8 2.3-.9.4-.1.8 0 1.2.2.9.6 1.6 1.4 1.8 2.5.1 1.8.1 3.4-.3 4.9-.2 1-.5 1.9-.7 2.9-.2.7-.4 1.4-.6 2-.2.5-.3 1 .3 1.4.3-.7.6-1.5.9-2.3.2-.4.3-.8.5-1.2.4-.7.7-1.5 1.1-2.2.1-.1.2-.2.2-.3 0-.5.4-.7.6-1.1.3-.5.6-1.1 1-1.6 0 0 0-.1.1-.1 1.3-1.4 2.6-2.9 4.4-3.6.4-.2.9-.2 1.3-.2.7 0 1.3.2 1.7.9.1.2.2.4.4.6 0 1.1-.2 2.1-.7 3-.8 1.6-1.8 3.1-2.7 4.6 0 .1-.1.1-.2.1-.3.5-.6.9-.9 1.4-.5.6-1 1.2-1.6 1.8-.5.6-1.1 1.1-1.6 1.7 0 .5.4.5.7.5.5-.4.9-.7 1.3-1 .4-.5.9-1 1.6-1.3l1.2-1.2c.4-.4.9-.8 1.3-1.1.1-.1.2-.1.3-.1.8-.9 1.9-1.5 2.9-2.1 1.1-.7 2.3-1.2 3.6-1.4.7-.2 1.5-.2 2.2.1.2.1.5.2.6.3-.2 2.4-1.4 4.2-3 5.8-.8 1-1.8 1.8-2.9 2.3-.7.5-1.4 1-2 1.5s-1.2 1-1.7 1.4l-1.8 1.5c.1.1.1.3.2.3.8.2 1.3.9 2.1 1.1.7.8 1.4 1.5 2 2.3.7.9 1.3 1.9 1.8 2.9 1 1.8 1.6 3.7 2.3 5.6l.6 1.8c.7 2.3.9 4.7.8 7.1-.1 2-.6 3.9-1.3 5.7-.5 1.1-.9 2.2-1.5 3.2-1.3 2.2-2.6 4.3-3.9 6.4l-.1.1c-.3.4-.5.8-.8 1.1 0 .1-.1.1-.1.2s-.1.1-.1.2l-.2.2v.1c-.8 1.2-1.5 2.4-2.3 3.5-.4.5-.9 1-1.3 1.5v.1c-.2.2-.4.5-.6.6-.8.8-1.3 1.7-1.6 2.8-.2.8-.5 1.5-.8 2.3-.1.2-.1.5-.2.7-.3 1.5-.6 3.1-.9 4.6l-.3 2.1c-.2 1.6-.5 3.2-.7 4.9 0 .2-.1.5-.1.7l-.6 3.6c-.2 1.6-.5 3.2-.7 4.8-.1 1-.3 2-.8 2.9-.2.4-.4.8-.6 1.3.2.2.3.3.5.4.4-.1.5-.4.7-.7.5-.9.8-1.9 1-2.9.3-1.6.5-3.2.7-4.8.2-1.3.4-2.5.6-3.8.2-1.6.5-3.2.8-4.8.3-2.1.7-4.2 1-6.3.1-.3.2-.5.6-.5.2 0 .5-.1.7-.1 2.2-.5 4.4-1.4 6.5-2.1l1.5-.6 3-1.5c.5-.3 1-.6 1.5-.8-.3 0-.6 0-.9.1-1.7.4-3.1.7-4.4 1.1zm7.6-58.2c0-.3.1-.6 0-.9.1.3 0 .6 0 .9s-.1.5-.2.8c.1-.2.2-.5.2-.8zM30.7 74.2c-.8 0-1.4-.2-2.1-.5-.2-.1-.3-.4-.4-.6 1-.8 2.6-1.2 3.9-1.1-.5.7-.9 1.4-1.4 2.2zM45.5 54c.2-.4.6-.4 1-.4.3-.6.8-.9 1.4-1.1C49 52 50 51.5 51 51c.2-.1.4-.1.5-.2s.1-.2.2-.2.1.1.2.2c.3-.1.5-.2.8-.3.1 0 .3-.1.4-.1.8-.5 1.5-1.1 2.3-1.6 1.7-1.2 3.3-2.3 5-3.5.1-.1.3-.1.5-.2 0 .1.1.1.1.2-.5.4-.9.7-1.4 1.1-2.1 1.6-4.2 3.3-6.1 5.2L49 56.1c-.1.1-.2.3-.3.4.2.1.3 0 .5 0-.1.1-.3.1-.5 0-.6.5-1.1 1-1.7 1.5-.3.2-.5.3-.8.5-.6.4-1.1.8-1.7 1.2-.2-.2-.5-.3-.7-.5-.6-.7-1.2-1.4-1.8-2.2-.3-.4-.5-.9-.7-1.5 1.4-.6 2.8-1 4.2-1.5zm-4.7.5h-.2zm-1.7 1.4s.1 0 .1.1c0-.1 0-.1-.1-.1zm5.3-13.2c-.1 0-.1.1-.2.1s.1-.1.2-.1zM34.3 27.2c.3-.3.7-.5 1.1-.9-.1.6-.1 1-.2 1.4.1.4.1.7.2 1.1-.2.1-.4.3-.7.5-.4-.1-.7-.3-.7-.7-.3-.5-.1-1 .3-1.4zM30.7 40h-2.1v.1c0 .1-.1.2-.1.4 0-.1.1-.2.1-.4V40c-.2 0-.5.1-.7.1h-.1s-.1 0-.1.1h-.1c0-.2-.1-.5-.1-.7 0-1.1.2-2.1.6-3.1.6-1.6 1-3.3 2-4.8.8-1.3 1.9-2.3 3-3.3.1.4.2.8.3 1.1.1.2.2.4.4.6-.4.4-.7.8-1 1.1-1 1-1.4 2.2-1.7 3.5-.4 1.7-.1 3.4.6 5.1 0 .1.1.1.1.2-.5.1-.8.1-1.1.1zm7.1-10.5c.2 0 .4.1.6.1.7.3 1.3.7 1.8 1.2 1.9 1.4 2.5 3.3 2.1 5.6-.2.9-.3 1.9-.8 2.7-.3.4-.7.8-1.1 1.2-.5.4-1.1.3-1.7.3-1.1-.1-2.2-.2-3.2-.3-.8-.1-1.6-.1-2.4-.1-.9-1.1-1.2-2.5-1.4-3.8-.2-2.1.4-3.9 2.1-5.2 1.1-1.2 2.4-1.9 4-1.7zm34-14.6l-1.5 2.4 1.5-2.4z" />
        <path d="M91.8 52c-.1-.6-.2-1.2-.6-1.7-1-1.1-2.2-1.9-3.7-2-.2 0-.4 0-.6-.1 0-.1 0-.2.1-.3s0-.2.1-.2c-.2-.2-.3-.1-.5 0-.4.3-.9.6-1.3.9s-.9.5-1.4.6c-.1 0-.1.1-.2.1-.5.1-1.1.3-1.6.4-.9.3-1.7.6-2.6.9-.3.1-.5.3-.7.4l.3.6c.1 0 .2 0 .2-.1.1-.1.2-.2.3-.2.9 0 1.7-.5 2.6-.6.9-.2 1.8-.5 2.7-.6 1.3-.2 2.6-.1 3.8.5.8.4 1 .8.6 1.6-.1.3-.3.5-.4.7-.3.6-.8 1-1.4 1.3-1 .6-2.2.9-3.3 1.1-1.5.2-3 .7-4.4 1-.2 0-.3 0-.5.1 0 .4.3.5.6.5h1.2c.1.4.2.8-.1 1.2-.2.4-.3.7-.6 1.1l-1.5 2.1c-.6 1-1.4 1.7-2.4 2.2-.5.2-.9.5-1.5.8.5.2.8.2 1.1 0 .3-.1.7-.2 1-.4.3-.3.7-.5 1-.8.6-.5 1.3-1 1.9-1.6.4.4.7.8 1.1 1.2-.2.8-1.6 1.8-2.8 2.1-1.1.5-2.2.7-3.3.9-.5.1-1.1.1-1.6.2-.3.3-.2.7 0 1.1-.6.5-1.3.7-2 1-.3.2-.7.2-.9.6.7 0 1.4-.3 2.1-.4.7-.2 1.2-.5 1.6-1.1.4-.7.9-.9 1.7-1 1.4-.2 2.8-.6 4.2-1.2.9-.4 1.6-.9 1.9-1.9.3.1.6.1.8.2.7.1 1.3.2 2-.1h.1c.1 0 .3-.1.4-.1s.2-.1.2-.1h.2c-.2-.4-.5-.2-.7-.1-.9.3-1.8.1-2.6-.3-.2-.1-.5-.1-.7-.3-.7-.4-.8-.8-.4-1.5.2-.4.3-.8.5-1.2.4.6 1.2.8 1.9 1h1.2c.9.1 1.7-.1 2.4-.4h.3c.1 0 .2 0 .3.1.3-.7.6-1.4.9-2l.6-.9 1.5-1.5c1-1.1 1.1-2.4.9-3.8zm-.5 1.1c-.1.5-.4 1-.6 1.5-.4 1-1.1 1.9-1.8 2.7-.8 1-1.8 1.8-3.1 2.1-.9.2-1.9.2-2.8 0-.2 0-.3-.2-.5-.3l-.3-.6v-1.6l4.2-.9c.6-.2 1.1-.4 1.7-.7 1.1-.5 1.9-1.5 2.1-2.6.3-1.4-.1-2.3-1.5-3-.1 0-.2-.1-.2-.1-.8-.2-1.6-.3-2.4-.5.2-.3.5-.4.8-.4.5 0 1 0 1.4.4.2.2.5.3.7.4 1.7.4 2.6 1.9 2.3 3.6z" />
        <path d="M87.3 60.3v.5c-.3.5-.7 1-1 1.6-.2.2-.5.4-.4.7.2-.1.3-.2.5-.3.3-.3.6-.6.8-.9 0-.1.1-.1.1-.2.1-.3.3-.6.4-.9.1-.1.1-.3.2-.4-.1 0-.2-.1-.3-.1h-.3zM59.2 30.9c.5-.2.8-.7 1.1-1.1.2-.2.3-.6.1-.9-.8.4-1.6.8-2.3 1.3-.4.2-.8.2-1.2 0-.3-.2-.5-.4-.8-.6 1.4-.9 1.6-1.2 1.3-1.9-.6.3-1.2.6-1.8.8s-1.2.6-1.9.3c1.1-1.4 1.1-1.4.8-2-.7.5-1.4.9-2 1.4-.4.3-.7.5-1.1.5-.5 0-1.1.2-1.6.3v.7c-.4.3-.8.5-1.2.7-1 .6-1.9 1.5-2.2 2.7-.2.7-.3 1.3-.4 2-.1 1.3.1 2.6.6 3.8.1.2.2.4.2.6.7 1 1.7 1.8 2.8 2.5.4.3.9.4 1.4.4 1.3 0 2.5 0 3.7-.3.8-.2 1.5-.5 2.2-1 2-1.6 3-3.7 3-6.2 0-.9-.6-2.4-1.3-3.5.1 0 .2-.1.2-.1 0-.1.2-.3.4-.4zm-.7 2.7c0 .1.1.2.1.4.2.3.1.5 0 .8-.1.8 0 1.6-.2 2.4-.5 2.3-2.7 4.2-5 4.6-1.4.2-2.7-.1-3.9-.5-.5-.2-.9-.5-1.2-.9-.7-1-1.3-2.1-1.5-3.4-.4-2.5 1-5 3.3-5.9.6-.6 1.4-.7 2.2-.8 1.5-.1 2.8.2 4.1 1.1.4.3.8.5 1.2.8.4.2.9.7.9 1.4zM53.7 23c.1 0 .1 0 .2-.1.6-.3 1.2-.2 1.9 0 .3.1.6.3.7.6 0 .1.1.3.2.4.1.2.2.4.5.3.3 0 .3-.3.3-.5v-.4c-.4-1.3-1.3-2.2-2.9-2-1.2.1-2.3.5-3.2 1.2-.2.1-.3.3-.5.4.2.3.3.5.4.6.8.3 1.6-.1 2.4-.5zM37.6 39.5c1.8.2 4.1-1.4 4.1-3.9s-2.2-3.9-4-3.9c-2.1 0-4 1.8-4 3.9-.1 2.2 1.9 4.1 3.9 3.9zm-1-6.9c1.7-.5 3.6.2 4.1 2.1.2 1 .2 2-.7 2.7-.9 1.2-2.5 1.4-3.8 1-.1 0-.1-.1-.2-.2-1.1-.4-1.7-1.4-1.7-2.5 0-1.6.9-2.7 2.3-3.1z" />
        <path d="M53.7 31.4c-2.4 0-4.4 2.1-4.4 4.3s1.9 4.4 4.4 4.4 4.6-2.2 4.4-4.3c.1-2.5-2.3-4.3-4.4-4.4zm2.7 6.3l-.1.1-.1.1-.1.1-.1.1c-.8.8-2.7 1.2-3.8.4-1.2-.5-1.8-1.5-2-2.7-.1-.9.2-1.7.7-2.3 1.3-1.6 3.6-1.9 5.2-.5.7.6 1.2 1.4 1.2 2.4-.2 1-.3 1.8-.9 2.3zM36.5 36.9c.4.2.8.4 1.2.2.1-.5.2-1 .4-1.5.5 0 .4.5.7.7.1-.1.2-.1.3-.2 0-.2.1-.4.1-.5 0-.4 0-.8-.4-.9-.6.2-.8.1-.9-.7-.8-.1-1.3.2-1.7.8-.3.7-.3 1.3.3 1.9z" />
        <path d="M53.9 34.3c0-.1 0-.2-.1-.4-.5-.1-.9.1-1.3.2-.6.5-.7 1.1-.8 1.8.2.4.4.8.5 1.2.4.2.9.5 1.4.3.1-.5.2-1 .4-1.6.3-.1.5.1.6.3.1.1.1.3.2.4.1-.1.2-.2.3-.2 0-.2.1-.4.1-.6 0-.4 0-.8-.4-1.1-.5.4-.7.3-.9-.3z" />
      </g>
      <path
        d="M51.7 33.5c-.2.2-.3.5-.2.8-.4.4-.5.8-.4 1.3.1.2.3.4.6.4 0-.7.2-1.3.8-1.8.1-.7-.1-.8-.8-.7z"
        fill="#d88f38"
      />
      <path
        d="M54.9 34.8c.1-.1.1-.3.2-.4.1-.5-.1-.9-.4-1s-.5 0-.8.6c0 .1 0 .2.1.4.1.5.3.6.9.4z"
        fill="#f8f6f6"
      />
      <path
        d="M54.1 35.9c-.1.5-.2 1-.4 1.6.5 0 .9-.4 1.2-.8-.1-.1-.1-.3-.2-.4-.1-.3-.3-.5-.6-.4z"
        fill="#32357c"
      />
    </svg>