<?xml version="1.0" encoding="utf-8"?>
<svg version="1.1" xmlns="http://www.w3.org/2000/svg" xmlns:xlink="http://www.w3.org/1999/xlink" x="0px" y="0px"
	 viewBox="0 0 23 23" style="enable-background:new 0 0 100 100;" xml:space="preserve">
	 <path
      d="M1.293 9.648a2.397 2.397 0 0 0-1.299-.201c.109-.446.266-.881.466-1.294l-.172.051c.094-.39.276-.759.53-1.07l-.245.041c.173-.364.369-.716.587-1.053l-.277-.089a4.92 4.92 0 0 1 .835-.859.186.186 0 0 0-.165-.074c.384-.439.869-.79 1.406-1.019a.574.574 0 0 0-.255-.077 7.368 7.368 0 0 1 1.633-.598l-.024-.165a4.883 4.883 0 0 1 2.125.019l.036-.211c.534.159 1.063.333 1.586.524l.031-.186c.646-.014 1.052.723 1.668.916a8.845 8.845 0 0 1-.482 1.669l-.104-.214a13.942 13.942 0 0 1-.707 1.524l-.193-.142a8.973 8.973 0 0 1-.741 1.201L7.4 8.18a5.381 5.381 0 0 1-1.165 1.221 20.7 20.7 0 0 1 .008-.249 6.416 6.416 0 0 1-1.043.62.255.255 0 0 0-.024-.144 2.967 2.967 0 0 1-1.239.511.324.324 0 0 1 .116-.218 3.447 3.447 0 0 1-1.569.236l.168-.282a10.34 10.34 0 0 1-1.493.032c.045-.076.088-.183.134-.259z"
      fill="#c4d674"
    />
    <path
      d="M11.358 3.914c-.281.128-.591.178-.896.229-.698.118-1.393.253-2.076.435a15.53 15.53 0 0 0-7.364 4.439c.579-.664 1.303-1.185 2.033-1.678 1.94-1.31 4.064-2.497 6.394-2.722.367-.035.736-.046 1.102-.094.301-.039.6-.102.89-.191.166-.051.346-.122.424-.278.052-.103.018-.319-.115-.354-.098-.025-.295.171-.392.214z"
      fill="#ebebb4"
    />
    <path d="M13.455 21.652l.054-.053" fill="none" />
    <path
      d="M16.955 12.32c-.036-.001-.002.067.029.048.031-.019.027-.065.019-.1a12.99 12.99 0 0 0-.364-1.333c-.494-1.438-1.388-2.701-2.324-3.9-.704-.902-1.41-1.754-2.474-2.175.112.512.123 1.041.133 1.565.023 1.229.042 2.475-.251 3.669s-.939 2.351-1.982 3.002c-.106-.092-.191-.247-.297-.339.339-.226.619-.533.854-.866 1.064-1.505 1.215-3.47 1.095-5.309a10.762 10.762 0 0 0-.173-1.422 7.257 7.257 0 0 0-.335-1.157l.4-.331c3.276 1.924 5.705 5.238 6.554 8.941-.27.043-.764-.049-.884-.293z"
      fill="#b7c079"
    />
    <path
      d="M10.859 4.112c-.09-.107-.016-.272-.048-.409-.048-.21-.324-.297-.393-.501a.547.547 0 0 1 .01-.297.775.775 0 0 1 .14-.326c.141-.166.408-.196.597-.087a.63.63 0 0 1 .294.551c-.002.111-.025.237.046.323.043.051.109.074.167.107a.461.461 0 0 1 .186.552c-.139.342-.774.354-.999.087z"
      fill="#8b9255"
    />
    <path
      d="M11.533 18.269c-1.136 1.012-2.431 1.6-3.953 1.63-.067-.047-.324-.021-.46-.063-.247-.076-.502-.093-.734-.207-.232-.114-.44-.273-.675-.382-.366-.17-.784-.214-1.135-.411-.242-.136-.441-.338-.616-.553a4.935 4.935 0 0 1-.978-2.001 5.07 5.07 0 0 1-.108-1.606c.1-1.068.56-2.112 1.335-2.853.775-.742 1.869-1.159 2.936-1.05.55.056 1.107.263 1.467.682.206.239.338.534.538.778.226.275.545.48.896.535.781.122 1.558.6 1.996 1.258.437.658.594 1.496.425 2.268a5.616 5.616 0 0 1-.346 1.116c-.136.302-.339.637-.588.859zM22.299 12.499c-.379-.57-.947-1.029-1.609-1.202a4.626 4.626 0 0 0-.656-.134 2.622 2.622 0 0 0-.905.073c-.521.132-.975.456-1.493.598-.49.134-1.008.099-1.513.16-.851.103-1.712.538-2.091 1.307-.179.363-.239.774-.25 1.178a5.29 5.29 0 0 0 1.397 3.702c.316.341.682.641 1.103.84.166.078.296.18.469.256.159.072.3.092.455.143.537.18 1.12.197 1.646-.03.267-.115.517-.286.804-.329.178-.027.359-.002.539-.002.693.002 1.357-.361 1.814-.883.457-.521.723-1.188.863-1.867a5.996 5.996 0 0 0 .084-1.885c-.078-.68-.278-1.355-.657-1.925z"
      fill="#e73d55"
    />
    <path
      d="M9.443 14.159c.179-.164.42-.243.657-.295.171-.038.347-.063.52-.035.388.063.687.391.846.75a2.017 2.017 0 0 1-.111 1.819c-.1.167-.229.324-.4.416-.171.093-.391.113-.559.015-.23-.133-.301-.425-.439-.652-.15-.247-.39-.426-.569-.654-.287-.364-.308-1.033.055-1.364zM19.107 12.764c.133-.192.345-.326.56-.436.155-.079.319-.149.492-.171.389-.049.757.159.998.432a1.7 1.7 0 0 1 .339 1.629 1.037 1.037 0 0 1-.284.473c-.142.128-.349.204-.535.164-.254-.055-.394-.293-.582-.455-.205-.177-.48-.27-.708-.422-.365-.243-.549-.825-.28-1.214z"
      opacity="0.66"
      fill="#fff"
    />
    <path
      d="M10.966 4.42c.019.043.041.09.085.107a.156.156 0 0 0 .102-.006c.252-.081.439-.31.696-.371.022-.005.045-.009.063-.021.028-.017.043-.049.052-.08.041-.153-.056-.309-.173-.416a.315.315 0 0 0-.137-.083c-.073-.017-.147.012-.216.04-.181.073-.371.149-.517.281-.195.175-.045.341.045.549z"
      fill="#8b9255"
    />
  </svg>