<?xml version="1.0" encoding="utf-8"?>
<svg version="1.1" xmlns="http://www.w3.org/2000/svg" xmlns:xlink="http://www.w3.org/1999/xlink" x="0px" y="0px"
	 viewBox="0 0 23 23" style="enable-background:new 0 0 100 100;" xml:space="preserve">
	 <path
      d="M4.098 22.41c.061-.041 10.147-.383 10.147-.383s.348.039.77-1.032c.422-1.07-.709-.949-.709-.949S2.744 21.412 2.861 21.493c.116.082.605.788.605.788l.632.129z"
      fill="#ccd0d2"
    />
    <path
      d="M17.719 19.956c.715-.9.953-2.112.848-3.256-.105-1.145-.523-2.237-1.007-3.28-.163-.351-.335-.702-.433-1.077-.336-1.288.361-2.766 1.567-3.328.34-.158.727-.249 1.09-.158.373.093.691.385.815.748a1.18 1.18 0 0 1-.184 1.091c-.121.155-.28.276-.413.42-.306.332-.471.79-.446 1.241.016.287.17.623.457.642a.63.63 0 0 0 .275-.061c.234-.095.454-.224.65-.383.05-.04.107-.085.171-.074.05.009.087.051.134.07.18.076.301-.18.399-.349.154-.267.464-.406.654-.649.172-.221.23-.507.277-.782.091-.528.159-1.081-.011-1.589-.126-.378-.379-.704-.676-.969-.881-.786-2.18-1.046-3.316-.724s-2.087 1.193-2.574 2.268a3.326 3.326 0 0 0-.308 1.175c-.06 1.05.492 2.022.853 3.01a8.594 8.594 0 0 1 .513 3.294c-.019.465-.081.943-.313 1.346-.232.403-.667.718-1.131.688-.273-.018-.524-.148-.76-.287-.195-.114-.439-.238-.632-.12a.525.525 0 0 0-.174.207 2.037 2.037 0 0 0-.136 1.607c.172.518.433.607.956.614 1.086.016 2.177-.481 2.855-1.335zM1.171 22.223c-.056.035-.081.223-.076.289.009.109.154.137.263.136 1.027-.011 2.057-.022 3.076-.149.062-.008 1.615-.167 1.652-.218.043-.058-1.461.007-1.492-.058-.109-.226-.329-.38-.559-.482-.949-.424-2.146.029-2.864.482zM15.587 22.395c.057.044.074.264.065.341-.016.126-.17.152-.286.146-1.086-.063-2.175-.127-3.246-.324-.065-.012-3.965-.304-4.001-.364-.042-.07 3.253-.574 3.29-.648.127-.258.926.257 1.174.149 1.027-.449 2.268.138 3.004.7z"
      fill="#ccd0d2"
    />
    <path
      d="M5.711 2.03c1.574-.619 3.192-.534 4.757.108C11.867 1.38 13.512.905 15.102.853a4.863 4.863 0 0 1 1.156.076c.068.014.14.033.187.084.053.057.063.14.069.218a9.049 9.049 0 0 1-1.515 5.738c.091.306.099.624.19.93.044.149.089.298.103.453.036.418-.158.82-.376 1.179s-.472.707-.575 1.114c-.78 3.082.541 6.293.736 9.467.014.221.024.446-.031.66a1.12 1.12 0 0 1-.955.811c-.84.077-1.737.204-2.575.297-.485.054-.969.107-1.455.147a25.66 25.66 0 0 1-5.264-.112c-.561-.07-1.14-.301-1.663-.515-.334-.136-.689-.309-.842-.635-.112-.239-.304-.881-.282-1.145.099-1.211.409-2.058.509-3.27.155-1.889.511-3.619.343-5.507-.05-.56-1.033-1.371-1.286-1.873-.2-.396-.387-.812-.389-1.252-.001-.386.141-.757.281-1.117l.254-.651C.562 4.393.058 2.152.192.214.196.158.203.096.245.058.279.028.326.021.371.017c.246-.023.495-.016.739.024.206.033.409.089.61.146 1.393.397 2.842.96 3.991 1.843z"
      fill="#ccd0d2"
    />
    <path
      d="M3.588 16.886c-.028.147.023.296.073.436a79.825 79.825 0 0 0 1.647 4.196c.207.485.428.983.812 1.344.056.053.122.105.199.109.138.007.231-.139.279-.269.182-.491.175-1.029.165-1.553l-.083-4.492c-1.044.165-2.101-.186-3.158-.173-.075.001-.162.009-.207.069-.037.049-.034.117-.024.178.033.214.122.42.256.59M12.558 16.847a102.042 102.042 0 0 1-2.321 6.117.638.638 0 0 1-.737-.225c-.131-.191-.145-.437-.154-.669l-.194-4.905c.127-.146.339-.304.526-.357a9.408 9.408 0 0 1 2.153-.351c.166-.008.34-.009.487.069.112.06.203.198.24.321z"
      fill="#ccd0d2"
    />
    <path
      d="M3.618 17.195c.196.39.399.776.573 1.173.18.394.337.798.506 1.196.312.807.584 1.63.841 2.463a8.477 8.477 0 0 1-.603-1.157c-.18-.395-.338-.8-.507-1.2-.299-.815-.617-1.624-.81-2.475zM12.558 16.847c-.206.894-.518 1.753-.822 2.615-.335.85-.662 1.704-1.093 2.513.207-.9.519-1.755.822-2.615.335-.847.661-1.697 1.093-2.513zM2.976 1.913c.528.259 1.004.653 1.255 1.17.019.04.038.085.024.126-.015.049-.067.075-.113.097a5.14 5.14 0 0 0-1.879 1.529c-.134-.26-.389-.532-.654-1.205a27.124 27.124 0 0 1-.256-.809l-.132-.713c-.081-.437-.022-.726.469-.62.442.095.882.227 1.286.425zM12.95 3.039c-.104.082-.217.186-.212.318.005.122.108.214.202.292a9.11 9.11 0 0 1 1.505 1.597c.061.083.168.176.251.115.03-.022.088-.075.057-.096 0 0 .229-.233.754-1.543.022-.054.203-.836.216-1.255.009-.31.11-.564-.241-.595-.301-.027-.653.09-.93.194-.589.22-1.113.587-1.602.973z"
      fill="#81868b"
    />
    <path
      d="M10.294 5.899c.023.308.163.594.357.786s.438.295.684.323c.299.034.611-.044.856-.262.244-.218.411-.585.396-.961a.595.595 0 0 1 .001-.073M3.581 5.918c-.001.31.117.611.295.825s.413.347.656.404c.295.07.612.03.872-.157s.454-.532.469-.908a.604.604 0 0 1 .007-.072"
      fill="none"
      stroke="#28241f"
      strokeWidth="0.389"
      strokeLinecap="round"
      strokeLinejoin="round"
      strokeMiterlimit="10"
    />
    <path
      d="M8.246 10.258c-.803-.043-1.491-.464-1.758-1.069s-.113-1.308.351-1.575c.464-.267 1.069-.252 1.069-.252.113-.003.225-.004.338-.002 0 0 .494-.031 1.069.11.574.141.754.603.812.954.058.351-.093.856-.446 1.244a1.931 1.931 0 0 1-1.435.59z"
      fill="#9b9fa3"
    />
    <path
      d="M8.206 8.58a1.038 1.038 0 0 1-.62-.422c-.041-.06-.076-.133-.058-.203.022-.084.11-.13.191-.16a1.61 1.61 0 0 1 .667-.094.65.65 0 0 1 .323.094c.094.064.16.179.139.29-.021.102-.103.177-.181.244-.149.129-.343.267-.525.193"
      fill="#28241f"
    />
    <path
      d="M8.212 8.244c-.004.234.011.582.008.816.001-.005-.009-.01-.008-.015M7.828 9.285c.074-.052.287-.157.362-.209a.075.075 0 0 1 .035-.016c.016-.002.032.006.046.015.077.046.285.169.342.228"
      fill="none"
      stroke="#28241f"
      strokeWidth="0.243"
      strokeLinecap="round"
      strokeLinejoin="round"
      strokeMiterlimit="10"
    />
    <path
      d="M9.793 16.759c.361-.824.508-1.469.341-2.352-.077-.405-.214-.808-.469-1.133-.498-.634-1.415-.869-2.184-.63-.77.238-1.372.901-1.622 1.667s-.169 1.618.136 2.363c.205.145.464.427.553.662.106.279.111.587.212.868a.42.42 0 0 0 .126.199c.056.043.127.059.196.075.613.138 1.261.274 1.858.078.059-.019.12-.044.157-.094a.281.281 0 0 0 .045-.126c.035-.212.005-.429-.005-.643-.01-.215.004-.441.116-.624.113-.185.366-.092.54-.31z"
      fill="#fff"
    />
    <path
      d="M6.751 19.877c.002.057.005.118.037.165.036.052.1.077.16.097a3.34 3.34 0 0 0 2.139-.024.24.24 0 0 0 .107-.062c.041-.048.039-.119.035-.182l-.108-1.631c-.018-.271-.06-.584-.292-.725-.175-.106-.405-.076-.586-.173-.293-.158-.326-.557-.321-.89-.317-.141-.737.073-.81.412-.035.163.001.333-.009.5-.018.287-.161.271-.335.403-.187.143-.108.15-.078.417.063.555.041 1.134.061 1.693z"
      fill="#fff"
    />
    <path
      d="M6.74 22.08c-.001-.394-.057-.781-.085-1.173-.044-.39-.05-.781-.086-1.17-.033-.781-.088-1.566-.006-2.357.166.776.236 1.555.292 2.341.02.785.042 1.578-.115 2.359zM9.346 22.069c-.152-.813-.192-1.63-.242-2.447-.016-.818-.04-1.636.047-2.458.153.813.193 1.63.242 2.447.016.818.04 1.636-.047 2.458z"
      fill="#81868b"
    />
    <path
      d="M1.866 20.193c-.123-.343-.153-.712-.151-1.076.014-2.28 1.234-4.405 1.364-6.68.442 2.544-.138 5.159.083 7.732.026.303.065.606.064.91-.001.316-.103.382-.388.239-.447-.225-.805-.658-.972-1.125zM15.318 20.445c.123-.343.153-.712.151-1.076-.014-2.28-1.234-4.405-1.364-6.68-.442 2.544.138 5.159-.083 7.732-.026.303-.065.606-.064.91.001.316.103.382.388.239.446-.225.804-.659.972-1.125zM17.511 9.83c.116-.364.381-.678.719-.854a1.487 1.487 0 0 1 1.112-.1.834.834 0 0 1 .326.176.86.86 0 0 1 .225.431c.074.301.063.622-.031.916-.065.204-.168.393-.258.588-.138.298-.247.614-.272.942s.038.669.222.941a.818.818 0 0 0 .294.276.84.84 0 0 0 .454.075c.603-.049 1.099-.511 1.411-1.03.028-.047.066-.101.12-.101.056 0 .095.056.149.071.082.023.156-.053.202-.125.124-.192.209-.409.248-.634.009-.054.022-.117.072-.139.025-.011.055-.009.08-.02.034-.015.052-.053.067-.087.241-.576.234-1.25-.017-1.822s-.745-1.031-1.332-1.242c-.61-.219-1.294-.171-1.908.038-.747.253-1.438.774-1.723 1.509"
      fill="#ccd0d2"
    />
    <path
      d="M17.099 10.927c.142-.348.286-.699.509-1.002s.535-.556.903-.629c.368-.074.791.066.982.389.201.339.113.769 0 1.147-.113.377-.245.783-.116 1.155.067.194.222.373.425.401.239.034.456-.142.611-.327.566-.675.765-1.64.511-2.483-.082-.273-.214-.54-.427-.729-.174-.154-.392-.248-.613-.32a1.96 1.96 0 0 0-.742-.114c-.417.03-.797.257-1.104.541a3.175 3.175 0 0 0-1.003 2.337M1.702 19.957c-.054-.706.06-1.414.201-2.107a14.19 14.19 0 0 0 1.885 3.381c.083.11.171.228.185.365.004.04 0 .085-.028.114-.166.179-.839.182-1.073.183-.217.001-.416-.037-.574-.195-.408-.407-.554-1.198-.596-1.741z"
      fill="#ccd0d2"
    />
    <g
      fill="none"
      stroke="#504c49"
      strokeWidth="0.116"
      strokeLinecap="round"
      strokeLinejoin="round"
      strokeMiterlimit="10"
    >
      <path d="M2.62 8.191c.782.064 1.94.147 1.94.147M2.971 9.232l1.808-.334" />
    </g>
    <g
      fill="none"
      stroke="#504c49"
      strokeWidth="0.116"
      strokeLinecap="round"
      strokeLinejoin="round"
      strokeMiterlimit="10"
    >
      <path d="M14.289 8.191c-.782.064-1.94.147-1.94.147M13.939 9.232l-1.809-.334" />
    </g>
  </svg>