<?xml version="1.0" encoding="utf-8"?>
<svg version="1.1" xmlns="http://www.w3.org/2000/svg" xmlns:xlink="http://www.w3.org/1999/xlink" x="0px" y="0px"
	 viewBox="0 0 23 23" style="enable-background:new 0 0 100 100;" xml:space="preserve">
	 <g fill="#c49b6f">
      <path d="M1.155 2.982a4.128 4.128 0 0 0 .939 3.111c.184.216.394.417.649.544 1.06.528 2.035-.942 1.137-1.657-.429-.342-1.03-.421-1.498-.702a3.33 3.33 0 0 1-1.227-1.296z" />
      <path d="M1.133 3.639a4.057 4.057 0 0 1-.009-.493c.009-.202.036-.414.155-.578.009-.012.019-.025.034-.027.015-.002.029.007.041.017.092.074.181.196.263.282.168.177.299.309.497.419.198.11.365.218.569.316.379.182.738.42 1.01.741.134.157.251.359.204.56a.498.498 0 0 1-.307.33 1 1 0 0 1-.461.051 2.129 2.129 0 0 1-1.424-.729c-.282-.329-.455-.736-.585-1.149" />
    </g>
    <path
      d="M10.85 20.144a13.91 13.91 0 0 0 6.667-.075c.553-.144 1.137-.35 1.465-.817.237-.338.305-.764.357-1.173.098-.77.165-1.546.155-2.322-.038-2.922-1.174-5.741-2.736-8.211-.217-.343-.444-.683-.733-.968-.328-.323-.725-.566-1.128-.791-2.375-1.324-4.6-2.519-7.772-2.24C8.294 4.598 8.68 6.252 8.892 7.809c.212 1.557.33 3.192 1.149 4.534.148.242.386.295.538.484.187.233.257.733.336 1.018.189.68.313 1.377.372 2.08a11.268 11.268 0 0 1-.437 4.219z"
      fill="#c49b6f"
    />
    <path
      d="M4.815 4.916c-.581.873-1.166 1.754-1.556 2.727a2.92 2.92 0 0 0-.202.694c-.029.22-.017.443-.021.665-.007.454-.078.904-.15 1.351-.344 2.146-.722 4.331-1.739 6.252-.12.227-.252.494-.149.729.08.182.168.355.273.524.427.685.517 1.517.693 2.305.01.045.021.093.051.129.065.081.189.076.29.054.326-.069.631-.235.866-.472.365-.368.926-.403 1.359-.689.271-.179.542-.382.691-.67.1-.193.137-.411.188-.622.275-1.137.956-2.126 1.624-3.086.895.006 1.788-.372 2.502-.911s1.243-1.319 1.48-2.182c.418-1.518 1.182-2.955 1.175-4.53-.003-.582-.067-1.176-.307-1.706-.285-.628-.563-1.413-1.204-1.669-.439-.173-1.175.043-1.622-.111-.367-.128-.715-.321-1.097-.395-.704-.138-1.42.145-2.05.488-.538.293-.756.615-1.095 1.125z"
      fill="#c49b6f"
    />
    <path
      d="M6.11 2.141c-.429-.324-.871-.913-1.298-1.374-.124-.134-.678-.573-.859-.564-.318 1.269.052 3.124.699 4.26.117.206.252.408.44.552.252.194.578.267.895.285.455.025.938-.063 1.287-.357 1.389-1.168-.409-2.232-1.164-2.802z"
      fill="#c49b6f"
    />
    <path d="M12.374 1.576l.034.034" fill="none" />
    <path
      d="M11.468 16.647c.33-.259.504-.661.734-1.012.229-.351.519-.656.807-.96l.25-.263c.038-.04.082-.083.137-.086.075-.004.131.067.172.13.077.117.157.248.143.387a.54.54 0 0 1-.079.207c-.307.537-.829.91-1.335 1.265-.2.141-.423.221-.626.349-.167.105-.317.233-.492.333a9.6 9.6 0 0 1-1.363.618c-.288.108-.583.21-.838.382-.255.172-.472.427-.524.73.263-.984.95-1.802 1.71-2.481.76-.678 1.611-1.252 2.345-1.959s1.349-1.693 1.499-2.701c-.317.717-.904 1.284-1.549 1.729-.645.446-1.355.786-2.034 1.177-.364.209-.748.469-.864.873.359-1.04 1.388-1.661 2.237-2.361.718-.592 1.354-1.307 1.734-2.157.379-.85.482-1.847.154-2.718-.344-.914-.96-2.899-1.99-3.737-.962-.784-2.349-.73-3.36-.73-.976 0-.574.241-1.171-.531.457-.061.575-.03 1.036-.01.693.03 1.367.22 2.035.408l1.914.539c.248.07.508.147.687.331.068.07.125.155.214.195.117.052.252.009.379-.011.424-.07.842.119 1.23.302 1.233.583 2.483 1.178 3.511 2.075.12-.065.268-.013.392.043a6.64 6.64 0 0 1 2.754 2.31c1.042 1.531 1.348 2.399 1.65 4.227.115.699-.069 2.119-.41 2.929-.382.906-.711 1.239-1.096 1.864-.195.316-.446.536-.758.882-.78.866-1.942 1.254-3.087 1.468a1.82 1.82 0 0 0 1.323-1.222c-.501.694-1.351 1.034-2.172 1.273-.779.227-1.583.396-2.393.381 1.265-.445 2.578-1.846 3.122-3.072.191-.43.259-.6.388-1.163-1.036 2.198-3.286 4.224-5.699 4.517-.777.095-1.566.085-2.34.203-.774.118-1.557.382-2.114.932.116-.605.359-1.177.617-1.737.292-.635.612-1.268 1.075-1.791.449-.507 1.017-.891 1.549-1.311.452-.357.882-.744 1.285-1.156.458-.468.908-1.038.882-1.693-.24.706-.744 1.302-1.34 1.75a4.597 4.597 0 0 1-.159.115M3.367 4.486c-.829.517-1.334 1.414-1.77 2.288S.74 8.569.001 9.208a4.017 4.017 0 0 0 2.292-1.687c-.533.595-.773 1.416-.763 2.214s.25 1.58.58 2.308c.336-.993.578-1.605.838-2.083 0 0 .065-.404.076-.665.009-.221.045-.448.015-.668-.06-.435.135-.856.366-1.322.474-.962.799-1.775 1.778-2.212-.323-.166-.694-.895-.694-.895-.145-.045-1.122.093-1.122.288z"
      fill="#684837"
    />
    <path
      d="M11.299 6.549c-.045.074.006.169.055.24.092.132.186.267.313.365.127.099.295.158.451.118s.284-.2.253-.358a.46.46 0 0 0-.16-.237 1.642 1.642 0 0 0-.322-.227c-.112-.06-.238-.107-.363-.088-.125.019-.244.126-.238.253l.147.044M4.731 2.788c.014.214.08.42.146.623.068.209.136.419.224.62.047.108.1.214.174.304a.897.897 0 0 0 .192.172.785.785 0 0 0 .392.142.515.515 0 0 0 .385-.137.267.267 0 0 0 .089-.183.371.371 0 0 0-.073-.189l-.236-.38c-.075-.121-.15-.242-.239-.352-.154-.192-.345-.346-.524-.512a2.785 2.785 0 0 1-.397-.469c-.127-.183-.137.296-.133.361z"
      fill="#926540"
    />
    <path
      d="M10.488 13.024l.219-1.007c.058-.328.129-.645.171-.968.056-.321.084-.645.126-.975l.096-1.027c.193.31.293.658.351 1.013.064.356.049.72.001 1.077a3.486 3.486 0 0 1-.325 1.027c-.162.32-.362.622-.639.86z"
      fill="#a47951"
    />
    <path
      d="M9.982 5.426c-.196-.08-.362-.023-.572.002-.211.025-.421.185-.428.396-.006.163.103.305.209.428.189.22.397.437.664.55.267.114.608.1.813-.105.216-.215.217-.59.048-.844-.169-.254-.472-.396-.775-.434M11.215 5.359l-.154-.036c.087.273.421.452.715.382.076-.103.064-.247-.001-.355s-.177-.186-.294-.245a.46.46 0 0 0-.207-.06c-.183.002-.311.233-.208.375"
      fill="#926540"
    />
    <path
      d="M13.026 2.766c3.357 1.203 6.748 3.88 8.366 7.058-1.108-.886-3.308-1.738-4.468-2.554-.693-.487-1.406-.968-2.207-1.245-.502-.174-1.177-.039-1.533-.433-1.268-1.403-2.388-1.76-3.874-1.918-.596-.064-1.614.177-2.025-.381-.442-.597-.687-.816-.687-.816 1.542-.27 5.032-.211 6.428.289z"
      fill="#684837"
    />
    <path
      d="M4.122 10.183c.171.33.593.475.957.402s.669-.327.893-.624c.151-.199.274-.427.303-.675"
      fill="none"
      stroke="#343433"
      strokeWidth="0.464"
      strokeLinecap="round"
      strokeLinejoin="round"
      strokeMiterlimit="10"
    />
    <path
      d="M15.398 4.069c.278.267.562.622.776.943.247.37.397.797.499 1.23.446 1.88.021 3.893-.867 5.609s-2.21 3.17-3.617 4.494c-.498.468-1.011.925-1.587 1.292-.287.183-.59.344-.853.56-.36.297-.631.689-.855 1.098-.587 1.072-.876 2.277-1.159 3.466.48-.402.977-.813 1.573-1.004.408-.131.841-.151 1.268-.177 1.181-.07 2.385-.188 3.464-.672 2.002-.896 3.276-2.906 4.083-4.944.866-2.188 1.331-4.565 1.098-6.907-.116-1.165-.645-2.21-1.334-3.156-.247-.339-.487-.709-.77-.964-.325-.294-.66-.454-1.01-.713-.383-.284-.838-.509-1.293-.719.112.138.386.374.584.564z"
      fill="#492f22"
    />
    <path
      d="M13.557 2.969c.673.366 1.102 1.052 1.448 1.716.344.679.59 1.407.747 2.156.299 1.495.143 3.125-.607 4.492-.783 1.332-1.839 2.433-2.933 3.488-1.156.969-2.511 1.722-3.27 3.055.645-1.402 1.997-2.278 3.095-3.258 1.024-1.064 2.08-2.169 2.803-3.453.732-1.278.883-2.822.649-4.277a8.646 8.646 0 0 0-.638-2.131c-.292-.678-.653-1.372-1.294-1.788zM19.641 7.601c.247.436.486.884.721 1.338.19.471.343.957.463 1.453a9.63 9.63 0 0 1 .208 3.048c-.215 2.032-1.145 4.025-2.699 5.336 1.336-1.508 2.175-3.399 2.353-5.37a10.24 10.24 0 0 0-.123-2.959c-.086-.49-.208-.974-.362-1.449l-.561-1.397zM1.56 10.125c-.029-1.097.26-2.201.822-3.144s1.396-1.722 2.375-2.218c.124.132.269.244.428.33a5.563 5.563 0 0 0-2.169 3.721c-.043.349-.054.702-.121 1.047-.079.403-.233.786-.387 1.167-.117.29-.229.86-.458 1.067-.135-.161-.137-.485-.214-.687-.162-.421-.276-.827-.276-1.283z"
      fill="#492f22"
    />
    <path
      d="M1.338 17.05c.017.203.114.395.216.579a.521.521 0 0 0 .161.198c.142.091.358.051.485-.055s.18-.261.201-.412c.038-.263.032-.795-.326-.916-.45-.153-.764.275-.737.606z"
      fill="#343433"
    />
    <path
      d="M2.063 20.105c1.114-.48 1.798-1.628 2.059-2.66"
      fill="none"
      stroke="#343433"
      strokeWidth="0.348"
      strokeLinecap="round"
      strokeLinejoin="round"
      strokeMiterlimit="10"
    />
  </svg>