<?xml version="1.0" encoding="utf-8"?>
<svg version="1.1" xmlns="http://www.w3.org/2000/svg" xmlns:xlink="http://www.w3.org/1999/xlink" x="0px" y="0px"
	 viewBox="0 0 23 23" style="enable-background:new 0 0 100 100;" xml:space="preserve">
	 <path
      fill="#F6C188"
      d="M12.276 1.266c.032-.43-.673-.818-.992-.957-.895-.39-1.84-.34-2.767-.068-.827.242-1.604.816-1.881 1.66-.055.168-.334 1.439-.047 1.447.139.004.445-.432.552-.515.32-.247.707-.435 1.079-.593.571-.244 1.166-.212 1.773-.244.689-.035 1.358-.232 2.018-.417.162-.045.422-.078.265-.313z"
    />
    <path
      fill="#E9E8E8"
      d="M8.671 22.383a3.439 3.439 0 0 1-1.464-.287.294.294 0 0 1-.124-.083c-.038-.05-.04-.12-.04-.184.004-.31.045-.62.124-.921.06-.229.165-.478.386-.561.213-.08.447.026.65.13.04-.142-.034-.288-.105-.417-.312-.565-.605-1.207-.917-1.772-.116-.21-.063-.72.017-.899.272-.607 1.104-.68 1.684-.654.97.044 1.855.353 2.304 1.225.372.724.667 1.824.374 2.632-.311.858-1.045 1.413-1.934 1.555-.247.04-.735.095-.955.236z"
    />
    <path
      fill="#FFF"
      d="M8.164 16.956c.548 1.32.928 2.709 1.128 4.123-.121-.095-.283.059-.346.2a2.127 2.127 0 0 0-.189.9c.001.1.01.204.062.291.072.125.215.19.35.24a4.3 4.3 0 0 0 1.445.263c.313.003.65-.04.88-.252a.815.815 0 0 0 .186-.26c.604-1.302-.184-3-.467-4.407-.15-.743-.35-1.28-1.074-1.537a5.588 5.588 0 0 0-1.3-.298c-.197-.02-.528-.109-.685.073-.135.156.063.478.01.664z"
    />
    <path
      fill="#F6C188"
      d="M15.4 21.044a5.65 5.65 0 0 0 1.14.281c.722.102 1.472.07 2.157-.179.686-.248 1.301-.725 1.64-1.37-.88.503-2.09-.361-2.971.139l.08-.292a1.962 1.962 0 0 1-.755.405l-.178-.64c-.115.155-.233.312-.39.424-.158.111-.365.17-.548.109"
    />
    <path
      fill="none"
      stroke="#1B181D"
      strokeWidth="0.198"
      strokeLinecap="round"
      strokeLinejoin="round"
      d="M11.585 21.116a.551.551 0 0 1 .452-.15c.27.044.339.094.614.13-.686-.238-.854-1.095-.82-1.728.026-.453.075-.936.371-1.28.297-.345.865-.482 1.216-.192"
    />
    <path
      fill="#FFF"
      d="M9.133 19.865a5.562 5.562 0 0 1-2.02-1.665 3.855 3.855 0 0 1-.575-1.048c-.25-.73-.204-1.536 0-2.28.205-.743.56-1.436.928-2.114.445-.82.927-1.71.788-2.634-.007-.045-.014-.095.013-.13.027-.037.101-.03.101.015.23-.16.859-.012 1.118-.017.66-.013 1.367-.024 1.972.281.488.246.216.752.194 1.22-.057 1.228.527 2.63 1.509 3.383.46.353.998.64 1.397 1.07.448.48.713 1.043.853 1.68.206.931.283 1.97.198 2.92-.04.45-.06 1.196-.465 1.498-.53.395-1.436.39-2.06.463-.526.062-1.065-.01-1.589.004-.28-.628-.781-1.143-1.282-1.606-.243-.224-.471-.466-.716-.687-.132-.118-.272-.198-.364-.353z"
    />
    <path
      fill="#D4D3D2"
      d="M11.68 22.461c.144-.439.105-.907-.136-1.292-.113-.195-.193-.457-.15-.695.028-.24.094-.455.128-.679l.3-1.338.15-.67.09-.331.045-.166c.007-.029.023-.055.017-.08 0-.04-.06.006-.027.014-.042-.004.027-.068.037-.017.011.032-.004.061-.006.088l-.023.17-.046.34-.12.675-.241 1.35c-.096.455-.301.884-.046 1.287.245.402.243.942.028 1.344zM9.82 22.792c-.052-.11-.111-.23-.124-.359a1.367 1.367 0 0 1 .018-.387c.087-.243.206-.475.403-.637l.011-.01.003.008.015.046-.026-.03.013-.002c-.091.233-.21.438-.249.67a1.22 1.22 0 0 0-.07.34c.005.114.017.23.006.361zM10.74 22.904c.052-.12.066-.24.096-.361.022-.125.045-.25.05-.368a.828.828 0 0 0 .009-.35l-.04-.19c-.008-.05.021-.178.011-.15.055.035.095.201.143.307.05.127.064.271.055.406-.027.133-.071.255-.113.376a.614.614 0 0 1-.211.33zM7.64 22.16c-.109-.268-.091-.569-.034-.854a.78.78 0 0 1 .242-.374c.102-.09.316-.153.39-.052-.085-.052-.255.035-.338.113a.69.69 0 0 0-.179.346c-.093.26-.088.538-.08.822z"
    />
    <path
      fill="#D4D3D2"
      d="M11.514 20.797c.095-.118.246-.115.382-.125.128.05.273.092.329.233-.142-.012-.236-.068-.355-.056-.111-.047-.217-.022-.356-.052z"
    />
    <path
      fill="#F6C188"
      d="M8.322 17.4c-.758-.792-.505-2.19-1.247-2.998-.032-.034-.072-.07-.118-.063-.03.004-.054.024-.075.045-.595.557-.625 1.581-.488 2.33.127.687.521 1.302.99 1.807.24.259.504.493.787.702.077.057.812.447.8.509.053-.292-.092-.592-.164-.879-.047-.186-.1-.37-.16-.553-.102-.308-.1-.665-.325-.9z"
    />
    <path
      fill="#FFF"
      d="M3.19 9.774c.77 1.056 1.834 1.995 3.42 2.361 1.056.243 2.153.273 3.232.176 1.34-.12 2.726-.37 3.842-1.121 1.504-1.014 2.302-2.858 2.68-4.149.571-1.945-.478-3.02-2.002-4.357-1.031-.905-2.371-1.49-3.744-1.485-1.372.004-2.758.64-3.549 1.762-.475.674-.723 1.483-1.166 2.179S4.706 6.444 3.889 6.33c-.123-.017-.25-.05-.368-.01-.142.046-.231.183-.3.314-.712 1.353-.628 2.917.873 4.166"
    />
    <path
      fill="#1B181D"
      d="M2.844 7.61c.094.106.198.208.327.267.184.084.397.068.597.04.219-.032.45-.084.605-.24.507-.513-.117-1.513-.748-1.563-.728-.058-1.254.959-.78 1.495zM4.3 11.034a4.34 4.34 0 0 0 2.86-.05 3.726 3.726 0 0 0 1.235-.73c.351-.32.65-.735.716-1.23.009.503-.257.984-.61 1.34-.356.363-.803.622-1.273.806a4.005 4.005 0 0 1-1.486.233 3.528 3.528 0 0 1-1.442-.369z"
    />
    <path
      fill="#1B181D"
      d="M8.367 8.573c.223.19.441.363.694.395a.673.673 0 0 0 .677-.288.488.488 0 0 1-.24.384.713.713 0 0 1-.469.1.884.884 0 0 1-.662-.59z"
    />
    <path
      fill="#F6C188"
      d="M11.993 7.01a1.314 1.314 0 0 1-.31.417c-.238.195-.567.227-.874.24-.623.026-1.26.008-1.849-.195-.239-.083-.475-.2-.638-.394a1.14 1.14 0 0 1-.214-.417c-.124-.425-.055-.885.089-1.303a3.788 3.788 0 0 1 1.436-1.88c.125-.086.256-.164.398-.217.19-.07.394-.093.596-.102.428-.019.887.033 1.22.301.103.083.19.182.274.283.127.151.25.308.324.49.086.212.099.446.094.674a4.738 4.738 0 0 1-.546 2.103z"
    />
    <path
      fill="#FFF"
      d="M10.111 4.269c.249.02.417.267.489.506.046.152.069.312.056.47-.025.308-.181.587-.336.855-.141.246-.288.495-.503.68-.215.185-.514.297-.787.22a.26.26 0 0 1-.12-.063c-.044-.046-.057-.112-.066-.174a2.653 2.653 0 0 1 .762-2.25c.138-.134.313-.26.505-.244z"
    />
    <path
      fill="#1B181D"
      d="M9.57 5.647c.117.01.197.127.231.24a.605.605 0 0 1 .027.223c-.012.145-.086.278-.16.405-.066.116-.136.234-.238.322s-.243.14-.373.104A.125.125 0 0 1 9 6.911c-.02-.021-.027-.053-.031-.082a1.257 1.257 0 0 1 .361-1.066c.066-.064.148-.124.24-.116z"
    />
    <path
      fill="#F6C188"
      d="M9.043 7.28c-.234-.058-.484-.13-.633-.32-.032-.04-.059-.088-.056-.14.004-.089.093-.15.178-.176.185-.06.386-.03.576.007.225.044.462.106.62.272.072.077.125.194.075.288-.034.063-.105.096-.175.113-.191.048-.393.003-.585-.044z"
    />
    <path
      fill="none"
      stroke="#1B181D"
      strokeWidth="0.058"
      strokeMiterlimit="10"
      d="M7.366 3.696c.214.018.358.23.42.436.04.13.06.268.048.404-.021.265-.155.506-.288.736-.122.211-.249.426-.433.585s-.442.256-.677.19a.224.224 0 0 1-.103-.055c-.038-.04-.05-.096-.058-.15-.102-.7.15-1.442.656-1.935.12-.116.27-.224.435-.21z"
    />
    <path
      fill="#1B181D"
      d="M6.9 4.882c.101.008.17.109.2.206a.52.52 0 0 1 .022.192c-.01.125-.074.24-.137.348-.058.1-.118.202-.205.278s-.21.121-.32.09a.106.106 0 0 1-.05-.026c-.018-.019-.023-.046-.027-.071-.048-.332.07-.684.31-.917.057-.055.128-.107.207-.1z"
    />
    <path
      fill="#FFF"
      d="M6.447 6.287c-.202-.05-.416-.112-.545-.275-.027-.035-.05-.076-.048-.12.004-.077.08-.13.153-.152.16-.051.332-.026.496.006.194.038.397.09.533.234.063.066.108.167.065.247-.03.054-.09.083-.15.098-.166.041-.34.003-.504-.038z"
    />
    <path
      fill="#E9E8E8"
      d="M7.527 12.274c.313.124.647.101.972.091l.993-.061a25.378 25.378 0 0 0 1.985-.13c-.625.264-1.31.325-1.974.369-.336 0-.664.025-1.005.006-.333-.02-.695-.07-.97-.275z"
    />
    <path
      fill="#1B181D"
      d="M5.994 5.667c.482-.153 1.047.06 1.33.472a9.683 9.683 0 0 0-1.33-.472z"
    />
    <path
      fill="#F6C188"
      d="M12.214 13.759c-.192.979-1.495 1.608-.945 2.103 1.101.991 2.32.435 2.785.168.64-.368.032-.683-.442-.943-.452-.248-1.11-.91-1.398-1.328z"
    />
    <path fill="none" d="M16.672 4.535c.024.257-.066.495-.045.752" />
    <path
      fill="#F6C188"
      d="M12.077 1.312c1.808-.035 3.698.355 4.983 1.698.885.925 1.607 2.033 2.032 3.239.12.34.508 1.255-.158 1.187.197.588.04 1.248-.102 1.847-.097.412-.178.928-.42 1.29-.106.161-.32.268-.417.431-.063.106-.06.248-.104.374-.13.377-.455.731-.812.913-.285.144-.658.213-.965.105-.21-.075-.368-.381-.561-.419-.105-.02-.167.094-.258.112-.276.057-.574.127-.83-.039-.617-.399-.886-1.457-.999-2.135-.148-.89-.07-1.872.123-2.75.177-.81.578-1.657.378-2.498-.311-1.305-.875-2.624-1.994-3.382.062-.005.115-.035.104.027z"
    />
  </svg>