<?xml version="1.0" encoding="utf-8"?>
<svg version="1.1" xmlns="http://www.w3.org/2000/svg" xmlns:xlink="http://www.w3.org/1999/xlink" x="0px" y="0px"
	 viewBox="0 0 23 23" style="enable-background:new 0 0 100 100;" xml:space="preserve">
	 <path
      d="M8.937 20.772c-.233.232-.394.547-.398.876-.002.208.077.438.264.53.028.014.061.024.09.013.041-.015.056-.064.065-.106.06-.281.066-.589.238-.819.15-.199.395-.296.628-.384-.43.303-.566.953-.293 1.403.039.064.111.132.179.1.042-.019.06-.068.071-.113.092-.35.054-.738.226-1.057.228-.421.833-.582 1.24-.33.081.05.199.109.257.033.03-.039.022-.095.007-.141-.34-1.016-2.061-.515-2.574-.005z"
      fill="#7c4d2c"
    />
    <path
      d="M5.021 17.554c-2.35-2.693-3.008-6.51-2.749-10.074.1-1.374.327-2.759.902-4.011S4.705 1.101 5.965.543C6.59.265 7.271.132 7.952.06c1.073-.114 2.171-.079 3.208.217 2.411.689 4.252 2.75 5.22 5.064s1.173 4.87 1.215 7.377a62.297 62.297 0 0 1-.038 3.431c-.037.964-.1 1.943-.425 2.851-.274.766-.859 1.747-1.65 2.08-.72.303-1.771.164-2.529.112-1.926-.132-3.845-.658-5.512-1.643a9.844 9.844 0 0 1-2.42-1.995z"
      fill="#d1b996"
    />
    <path
      d="M14.864 5.668c-.05-.373-.185-.729-.34-1.071-.214-.472-.479-.937-.88-1.265-.597-.49-1.416-.614-2.188-.589-.726.023-1.575.217-2.082.778-.162.18-.277.428-.376.69-.098-.262-.213-.51-.375-.69-.508-.561-1.357-.755-2.083-.778-.771-.025-1.591.099-2.188.589-.401.329-.665.793-.879 1.265-.155.342-.29.699-.34 1.071-.051.379-.014.765.059 1.141.446 2.292 2.338 4.235 4.617 4.742.41.091.767.128 1.189.128.454.007.779-.037 1.189-.128 2.279-.507 4.171-2.451 4.617-4.742.073-.376.11-.762.06-1.141z"
      fill="#fff"
    />
    <path
      d="M15.218 21.236c-.933-.516-1.817-1.149-2.491-1.975-1.465-1.796-1.754-4.44-.803-6.554.396-.88 1.052-1.717 1.978-1.985.984-.284 2.069.153 2.793.878s1.145 1.694 1.478 2.663c.414 1.205.719 2.447.908 3.707.116.769.221 1.541.374 2.305.27 1.354.731 1.863.731 1.863-.304.409-2.054.199-2.461.102-.878-.211-1.719-.568-2.507-1.004z"
      fill="#a28d7b"
    />
    <path
      d="M4.372 6.018c.009.431.2.849.489 1.066s.665.225.959.021c.294-.204.497-.613.517-1.043M13.407 5.935c-.009.431-.2.849-.489 1.066a.807.807 0 0 1-.959.021c-.294-.204-.497-.613-.517-1.043"
      fill="none"
      stroke="#2b2721"
      strokeWidth="0.464"
      strokeLinecap="round"
      strokeLinejoin="round"
      strokeMiterlimit="10"
    />
    <path
      d="M12.303 14.21c.077.256.173.509.333.706.158.196.378.32.608.331a.474.474 0 0 0 .492-.31c.079-.2.088-.453.075-.711l.36.008c-.01.193.06.396.188.524.122.13.314.172.481.142.351-.058.414-.559.35-1.018a.173.173 0 0 1 .147-.195c.073-.01.143.03.177.091.103.188.209.377.353.492a.353.353 0 0 0 .467.005.63.63 0 0 0 .208-.534c-.009-.216-.103-.427-.191-.637.134.183.267.379.317.619.057.232.016.525-.182.717-.183.211-.559.238-.785.072-.229-.152-.374-.36-.49-.566l.323-.104c.031.247.062.508 0 .789-.049.278-.281.584-.602.654a.873.873 0 0 1-.851-.26 1.076 1.076 0 0 1-.269-.815l.001-.007a.18.18 0 0 1 .36.016c-.002.271.005.571-.141.861a.768.768 0 0 1-.813.415.961.961 0 0 1-.703-.495 1.773 1.773 0 0 1-.213-.79zM13.094 16.885l.373.732c.136.222.308.45.515.498.203.056.397-.098.483-.299.095-.197.092-.455.079-.726l.366.002c-.013.313.503.559.868.616.172.02.283-.067.351-.246.06-.167.03-.387-.013-.619l.335-.05c.003.14.098.294.236.36a.456.456 0 0 0 .46-.044c.294-.203.29-.682.219-1.073.083.19.141.394.148.61.008.21-.042.463-.231.628a.7.7 0 0 1-.701.135.732.732 0 0 1-.469-.582.17.17 0 1 1 .333-.059l.002.009c.048.231.114.502.026.798-.058.284-.4.568-.721.521a1.611 1.611 0 0 1-.763-.269c-.22-.14-.462-.404-.447-.746v-.006a.183.183 0 0 1 .366.008c0 .272.01.587-.144.889-.144.283-.516.523-.861.39-.328-.131-.474-.418-.577-.676-.085-.27-.164-.535-.233-.801zM15.842 19.785c.136.176.288.325.468.426.17.11.367.183.52.147a.479.479 0 0 0 .361-.269c.063-.139.027-.311-.043-.432l.353-.148a.711.711 0 0 0 .198.393c.047.05.107.08.128.081.012.007.045.007.09-.056.167-.264.203-.656.054-1.007.279.272.38.737.203 1.148-.04.101-.163.254-.348.255a.561.561 0 0 1-.371-.16 1.09 1.09 0 0 1-.339-.582.195.195 0 0 1 .149-.231.195.195 0 0 1 .196.073l.007.009c.179.238.182.559.059.814a.786.786 0 0 1-.673.433c-.29 0-.505-.154-.673-.308a1.293 1.293 0 0 1-.339-.586z"
      fill="#fff"
    />
    <path
      d="M5.526 12.895a.847.847 0 0 0-.361.03c.019.21.081.417.18.604a.464.464 0 0 0 .171.2c.078.043.188.041.244-.028a2.063 2.063 0 0 0-.195-.763c-.01-.02-.018-.047-.002-.062s.044.023.022.025M6.84 14.46l.172.765.226-.037a4.855 4.855 0 0 0-.074-.816.953.953 0 0 0-.314.156M7.469 16.466l.172.765.226-.037a4.855 4.855 0 0 0-.074-.816.953.953 0 0 0-.314.156M7.886 13.158l.088.559.411-.003a3.788 3.788 0 0 0-.061-.689c-.004-.024-.011-.051-.03-.066-.021-.016-.051-.014-.077-.011l-.353.04c.004.129.029.257.073.379M9.274 14.191l-.002.644c0 .025 0 .052.011.074.035.072.14.058.216.033.028-.257.053-.514.073-.771l-.283.058M10.127 12.804l.007.702c.101.068.224-.055.269-.168.042-.104.068-.225.023-.328s-.186-.167-.276-.1c-.029-.027-.023-.081.01-.102M8.555 15.964c.072.187.127.382.162.579.085.041.192-.025.225-.114s.014-.188-.011-.279c-.025-.091-.056-.184-.044-.278a.442.442 0 0 0-.314.134M9.369 17.426c.072.187.127.382.162.579.085.041.192-.025.225-.114s.014-.188-.011-.279c-.025-.091-.056-.184-.044-.278a.442.442 0 0 0-.314.134M10.039 15.754l.003.584.279.04-.003-.249c-.001-.093-.004-.192-.053-.271s-.164-.125-.239-.07l.072-.093"
      fill="#a28d7b"
    />
    <path
      d="M4.546 8.633a.711.711 0 0 0 .025.286c.034.135.088.27.183.358a.634.634 0 0 0 .296.137c.2.049.408.075.607.022s.388-.197.472-.413c.084-.216.039-.504-.13-.637-.185-.145-.525-.147-.747-.168-.265-.026-.65.042-.706.415zM11.933 8.633a.749.749 0 0 0 .025.286c.034.135.088.27.183.358a.634.634 0 0 0 .296.137c.2.049.408.075.607.022a.698.698 0 0 0 .472-.413c.084-.216.039-.504-.13-.637-.185-.146-.524-.148-.746-.169-.265-.025-.651.043-.707.416z"
      fill="#f4bebf"
    />
    <path
      d="M11.79 21.293c-.263.198-.465.488-.513.813-.03.206.016.445.189.561.026.017.057.032.088.025.042-.01.064-.055.079-.096.098-.27.145-.575.348-.779.175-.177.432-.239.674-.295-.467.241-.69.867-.481 1.35.03.069.092.146.164.124.044-.014.068-.059.086-.102.139-.334.154-.724.368-1.016.283-.386.904-.464 1.273-.158.074.061.182.135.25.068.035-.035.035-.091.026-.139-.199-1.053-1.972-.791-2.551-.356z"
      fill="#7c4d2c"
    />
    <path
      d="M9.67 7.651a1.83 1.83 0 0 0-.563-.531.25.25 0 0 0-.115-.044.242.242 0 0 0-.105.025 1.437 1.437 0 0 0-.637.519c.014.083.022.165.049.244.142.41.364.793.649 1.121.016.019.036.039.102.021a.597.597 0 0 0 .155-.196c.212-.371.358-.746.465-1.159z"
      fill="#eabb4e"
    />
  </svg>