<?xml version="1.0" encoding="utf-8"?>
<svg version="1.1" xmlns="http://www.w3.org/2000/svg" xmlns:xlink="http://www.w3.org/1999/xlink" x="0px" y="0px"
	 viewBox="0 0 23 23" style="enable-background:new 0 0 100 100;" xml:space="preserve">
	 <path
      d="M9.019 4.246c-.173-.174-.4-.287-.627-.387-.913-.4-1.918-.63-2.933-.592-.666.025-1.326.163-1.975.332-.91.237-1.805.536-2.678.895a.15.15 0 0 0-.076.068 4.619 4.619 0 0 0-.168-.001c.122.119.244.238.372.35.606.528 1.342.89 2.069 1.246.396.194.797.39 1.233.48.233.049.473.066.713.069a5.96 5.96 0 0 0 2.035-.34 5.869 5.869 0 0 0 1.076-.3c.363-.141.991-.36 1.275-.638.319-.313-.069-.933-.316-1.182z"
      fill="#63a67c"
    />
    <g
      fill="none"
      stroke="#3b7c4f"
      strokeWidth="0.107"
      strokeLinecap="round"
      strokeLinejoin="round"
      strokeMiterlimit="10"
    >
      <path d="M2.756 4.876c2.09.061 4.198-.689 6.242-.25l-.156-.076" />
      <path d="M3.673 5.663c.255-.275.527-.535.812-.779.015-.013.032-.027.038-.047.01-.031-.01-.063-.031-.088-.093-.106-.234-.159-.344-.248-.108-.089-.182-.21-.255-.329-.008-.012-.015-.03-.004-.04.011-.01.025.019.011.016M4.883 5.678l1.068-.997a5.544 5.544 0 0 1-.603-.77c-.014-.021-.016-.062.009-.058M6.418 5.511c.157-.393.4-.751.708-1.041a2.998 2.998 0 0 1-.563-.982M7.737 5.1l.292-.375c.065-.083.14-.173.245-.188a2.32 2.32 0 0 1-.504-.668" />
    </g>
    <path
      d="M8.963 4.598c-.226-.693-.424-1.4-.483-2.13-.043-.527-.013-1.059.017-1.589.017-.302.172-.815.172-.815.097-.111.836-.046.822.096-.048.466-.19 1.075-.223 1.556-.04.564-.035 1.131.014 1.692.099 1.135.449 2.139.783 3.208-.594.273-.979-1.643-1.102-2.018z"
      fill="#9c7140"
    />
    <g>
      <path
        d="M20.587 21.145c-.087.294-.041.609-.045.915-.004.307-.077.645-.326.824-.268.193-.645.134-.945-.004-.3-.138-.569-.346-.885-.443-.664-.203-1.359.122-2.042.245-.953.172-1.928-.053-2.869-.277-.751-.178-1.507-.359-2.207-.685-1.395-.651-2.485-1.863-3.163-3.245s-.967-2.93-1.035-4.469c-.035-.787-.011-1.59.237-2.337.236-.714.665-1.346 1.016-2.012.35-.666.629-1.412.524-2.157-.023-.169-.065-.335-.06-.504.019-.662.71-1.07 1.312-1.349.619.083 1.096.517 1.647.811.946.504 2.09.309 3.161.356 1.933.085 3.807 1.049 5.017 2.56.449.561.807 1.188 1.132 1.828.648 1.277 1.174 2.638 1.327 4.062s-.089 2.923-.877 4.12c-.38.578-.723 1.098-.919 1.761z"
        fill="#fdde31"
      />
    </g>
  </svg>