<?xml version="1.0" encoding="utf-8"?>
<svg version="1.1" xmlns="http://www.w3.org/2000/svg" xmlns:xlink="http://www.w3.org/1999/xlink" x="0px" y="0px"
	 viewBox="0 0 100 100" style="enable-background:new 0 0 100 100;" xml:space="preserve">
    <path fill="none" d="M0 0h100v100H0z" />
    <path
      fill="#fcdfd1"
      className="CoeursB1-C_svg__b"
      d="M56.77 60C50 51.84 46.21 43.65 43.19 33.3 40.69 24.77 38 7.46 47.76 1.9c12.79-7.31 18.87 15 17.18 23.91C67.14 17.55 73.17 10 81.63 7.5c8.24-2.38 17.53 3 16.51 12.22-1.4 12.74-12.83 23.58-23 30.15-5.92 3.87-11.66 7.75-18.37 10.13zM19.13 99.55c-6.54-2.79-10.7-8.78-14-14.85-2.29-4.21-6.63-18 1-20.11C10.57 63.35 16 71 17.59 74.3c.78 1.63 1.12 3.43 1.82 5-.05-6.2 5.24-13.42 10.59-16.18 7.13-3.65 13.12 4.83 12 11.54-1.84 11.52-14.2 18.48-22.87 24.89z"
    />
  </svg>