<?xml version="1.0" encoding="utf-8"?>
<svg version="1.1" xmlns="http://www.w3.org/2000/svg" xmlns:xlink="http://www.w3.org/1999/xlink" x="0px" y="0px"
	 viewBox="0 0 23 23" style="enable-background:new 0 0 100 100;" xml:space="preserve">
	 <path
      d="M14.818 2.348c.565-.354 1.084-.777 1.601-1.201.076-.063.165-.129.263-.114.089.013.157.089.206.167a.96.96 0 0 1 .016.978c-.1.166-.249.292-.404.404-.831.597-1.871.816-2.773 1.298-.018.009-.037.019-.057.017-.036-.004-.058-.042-.075-.076a1.881 1.881 0 0 0-.176-.283c-.064-.084-.183-.166-.23-.258-.103-.203.193-.259.32-.301a5.96 5.96 0 0 0 1.309-.631z"
      fill="#f8f9fa"
    />
    <path
      d="M3.368 16.896a12.786 12.786 0 0 0 3.997-5.033c.244-.548.573-1.095.788-1.657.187-.488.329-.996.47-1.503l1.473-5.297c.146-.525.292-1.05.441-1.575.03-.108.067-.224.159-.282.094-.06.217-.04.327-.009.453.128.853.415 1.243.697.52.376 1.059.773 1.37 1.344.312.573.356 1.255.279 1.89-.078.635-.267 1.243-.394 1.867-.304 1.492-.251 3.082-.747 4.509-.599 1.723-1.938 3.027-3.364 4.081-1.369 1.013-2.883 1.865-4.55 2.225-.554.12-1.603 1.064-2.059.681-.174-.146.097-1.26.095-1.487s.254-.447.472-.451z"
      fill="#a63b4a"
    />
    <path
      d="M3.223 16.85c.076-.03.172-.055.231.003.03.764.129 1.527.298 2.274-.53.183-1.076.322-1.63.415-.529.089-2.388.047-1.847-1.004.212-.412.914-.693 1.297-.908a13.375 13.375 0 0 1 1.651-.78z"
      fill="#e1dfdf"
    />
    <path
      d="M22.159 11.11c-.588-1.554-1.328-3.077-2.395-4.343-.485-.576-1.038-1.099-1.434-1.743a6.933 6.933 0 0 1-.562-1.207c-.296-.788-.568-1.549-.753-2.367-.526.806-1.444 1.214-2.317 1.584-.529.225-1.061.45-1.621.59-.548.137-1.121.192-1.644.399-.524.208-.832.565-1.073 1.09-.505 1.097-.119 2.456-.376 3.654-.086.403-.245.783-.414 1.153a19.01 19.01 0 0 1-3.628 5.336c-.489.504-1.006.981-1.441 1.537-.435.556-.788 1.203-.889 1.924.681.364 1.446.559 2.194.519 1.738-.093 3.399-.672 4.957-1.412 1.558-.74 3.033-1.643 4.566-2.434 1.551-.8 3.159-1.484 4.74-2.223.289-.135.58-.274.824-.481.216-.184.388-.416.559-.646.239-.322.468-.608.707-.93z"
      fill="#dd374b"
    />
    <path
      d="M14.345 7.724c.018 1.02.718 2.024 1.656 2.375.938.35 2.043.02 2.613-.781.226-.318.372-.703.4-1.105.042-.623-.201-1.254-.567-1.771-.298-.42-.689-.785-1.153-.973-1.445-.588-2.975.755-2.949 2.255zM22.188 10.663c-.296.734-1.096 1.057-1.818 1.326a58.274 58.274 0 0 0-6.64 2.959c-2.55 1.333-5.161 2.516-7.873 3.484-1.418.506-2.94.731-4.463.66-.329-.015-.691-.06-.925-.312a.754.754 0 0 1-.161-.271c-.18.212-.284.547-.303.836s.027.581.093.866c.123.539.319 1.073.646 1.52 1.094.211 2.142.379 3.239.3.673-.049 1.33-.201 1.976-.381.861-.24 1.708-.528 2.535-.865 2.862-1.163 5.024-2.989 7.856-4.223 1.978-.862 4.531-1.478 6.218-2.834-.035.018-.109.012-.106.053.208-.09.343-.297.437-.51.055-.125.1-.259.102-.399a1.263 1.263 0 0 0-.083-.409c-.205-.616-.368-1.263-.73-1.8z"
      fill="#f8f9fa"
    />
    <path
      d="M5.473 17.514a.407.407 0 0 0 .317-.262.809.809 0 0 0 .035-.208.579.579 0 0 0-.008-.181.297.297 0 0 0-.274-.218.47.47 0 0 0-.143.031c-.191.064-.498.173-.467.435.031.259.305.44.54.403zM7.24 16.145a.435.435 0 0 0 .282-.032c.162-.066.318-.198.327-.381a.396.396 0 0 0-.194-.343c-.206-.123-.538-.041-.674.15-.134.187.047.546.259.606zM8.888 14.608a.4.4 0 0 0 .107.022c.051.001.1-.016.144-.041a.561.561 0 0 0 .256-.392.493.493 0 0 0-.005-.226.298.298 0 0 0-.133-.18.33.33 0 0 0-.134-.036c-.219-.019-.549.104-.624.34-.078.25.189.451.389.513zM10.729 12.378c.016-.102.007-.211-.038-.306s-.13-.173-.229-.195c-.328-.072-.755.377-.554.714.244.409.76.175.821-.213zM10.981 10.456a.35.35 0 0 0 .13.237c.072.057.167.08.253.063a.363.363 0 0 0 .175-.095.41.41 0 0 0 .126-.205.55.55 0 0 0-.026-.294.505.505 0 0 0-.166-.259.336.336 0 0 0-.404.022.425.425 0 0 0-.136.396.786.786 0 0 0 .066.187c.02.043.043.089.083.114.04.025.1.019.117-.024M11.317 8.082c-.008.03.003.062.014.091.027.073.056.147.101.21s.112.115.186.122a.351.351 0 0 0 .183-.046.71.71 0 0 0 .216-.142.455.455 0 0 0 .086-.469.445.445 0 0 0-.387-.281.374.374 0 0 0-.36.276.553.553 0 0 0 .029.334c.024.039.064.071.108.072M11.514 6.26c.148.061.32.018.433-.089a.617.617 0 0 0 .174-.43.531.531 0 0 0-.036-.223c-.126-.299-.64-.355-.836-.13-.203.233-.004.76.265.872z"
      fill="none"
      stroke="#bab7b6"
      strokeWidth="0.242"
      strokeMiterlimit="10"
    />
    <path
      d="M4.48 15.832a.564.564 0 0 1 .012-.217.513.513 0 0 1 .157-.217c.104-.095.219-.177.342-.244.105.4.246.789.388 1.178.052.142.104.285.183.413.049.08.11.158.125.251.067.418-.497.374-.677.139a2.525 2.525 0 0 1-.53-1.303zM6.686 15.1a10.163 10.163 0 0 1-.267-1.054c-.038-.195-.071-.4-.016-.586.069-.239.267-.405.455-.557.111.765.33 1.518.647 2.227.136.304.246.874-.26.816-.318-.037-.479-.59-.559-.846zM7.336 12.229a.764.764 0 0 1-.079-.281.64.64 0 0 1 .057-.244 2.22 2.22 0 0 1 .28-.502c.393.84.795 1.694 1.402 2.389.167.192.337.415.187.659-.096.156-.263.26-.43.142-.169-.119-.313-.354-.438-.516a7.699 7.699 0 0 1-.979-1.647zM9.489 12.366c-.216-.108-.402-.272-.582-.439a18.477 18.477 0 0 1-1.027-1.03c-.023-.025-.047-.051-.058-.084a.225.225 0 0 1-.004-.1c.023-.207.073-.409.148-.599.601.814 1.511 1.3 2.312 1.899.246.184.224.45-.074.529-.206.055-.528-.083-.715-.176zM9.598 10.511a2.752 2.752 0 0 1-1.32-1.186.507.507 0 0 1-.065-.156.487.487 0 0 1 .017-.201 3.08 3.08 0 0 1 .289-.765c.137.522.454 1.001.878 1.327s.952.497 1.465.475c.11-.005.22-.018.329.006.109.024.218.094.257.203.267.756-1.557.419-1.85.297zM11.375 8.314c.096.039.193.082.294.091.101.009.21-.023.266-.107a.456.456 0 0 0 .055-.168c.019-.101.036-.211-.011-.305-.063-.125-.21-.17-.341-.202-.608-.15-1.227-.3-1.842-.263-.158.01-.315.031-.471.054-.127.018-.26.039-.36.12-.097.078-.149.203-.183.324-.044.156-.028.178.123.168.278-.018.546-.064.828-.057a4.69 4.69 0 0 1 1.642.345z"
      fill="#f8f9fa"
    />
    <path
      d="M4.735 18.979l2.67-1.776c.389-.259.779-.518 1.13-.827.462-.405.851-.889 1.238-1.372 1.02-1.273 2.06-2.6 2.484-4.217.15-.571.219-1.166.278-1.759.169-1.685.267-3.38.294-5.081"
      fill="none"
      stroke="#f8f9fa"
      strokeWidth="0.242"
      strokeLinecap="round"
      strokeLinejoin="round"
      strokeMiterlimit="10"
    />
    <path
      d="M15.971 6.621c.24.108.453.285.609.505.019.027.039.056.07.065.033.01.067-.008.096-.025l.666-.392-.131.68a.545.545 0 0 0-.006.266.502.502 0 0 0 .051.104c.139.232.306.447.496.636a7.446 7.446 0 0 0-.927-.094 3.462 3.462 0 0 1-.384.883l-.255-.98a1.66 1.66 0 0 1-.852-.053c.164.054.724-.388.767-.56.066-.264-.145-.769-.2-1.035z"
      fill="#263d71"
    />
    <path
      d="M11.725 14.749c-.112 0-.208.092-.24.203a.504.504 0 0 0 .041.342.403.403 0 0 0 .126.167c.118.084.28.05.391-.034a.428.428 0 0 0 .168-.261.399.399 0 0 0-.17-.389.344.344 0 0 0-.402.019M13.856 13.659c-.112 0-.208.092-.24.203s-.008.235.041.342a.403.403 0 0 0 .126.167c.118.084.28.05.391-.034a.428.428 0 0 0 .168-.261c.026-.145-.046-.308-.17-.389s-.293-.073-.402.019"
      fill="none"
      stroke="#bab7b6"
      strokeWidth="0.242"
      strokeMiterlimit="10"
    />
    <path
      d="M.209 18.604c.424.419 1.058.457 1.627.442a16.907 16.907 0 0 0 3.734-.521M7.728 19.999c1.438-.225 2.627-1.167 3.828-1.978a25.04 25.04 0 0 1 5.217-2.696c1.978-.743 4.119-1.275 5.683-2.709"
      fill="none"
      stroke="#bab7b6"
      strokeWidth="0.242"
      strokeLinecap="round"
      strokeLinejoin="round"
      strokeMiterlimit="10"
    />
  </svg>