<?xml version="1.0" encoding="utf-8"?>
<svg version="1.1" xmlns="http://www.w3.org/2000/svg" xmlns:xlink="http://www.w3.org/1999/xlink" x="0px" y="0px"
	 viewBox="0 0 23 23" style="enable-background:new 0 0 100 100;" xml:space="preserve">
	 <path
      fill="#DAB9D1"
      d="M18.785 20.89c.92.125 1.7-.735 2.134-1.464.212-.356.558-1.074.109-1.378-.493-.332-1.009.219-1.276.579-.341.458-.632.955-.897 1.46-.09.173-.164.347-.21.529-.041.168-.054.198.132.195-.005.032-.03.109.008.08zM7.969 14.714c-.23-.25-.823-.29-1.141-.36-.854-.188-1.737-.184-2.59-.4-.857-.217-2.246-.923-1.79-2.006-.327.364-1.127-1.553-1.165-1.787-.144-.885.181-1.928.862-2.418-.308-.927-.174-1.967.415-2.767.37-.503 1.127-1.164 1.727-1.035-.126-.773.774-2.017 1.498-2.385.636-.324 1.752-.473 2.358-.033.326-.877 1.71-1.52 2.587-1.537.49-.01.97.181 1.383.431.242.147.446.322.62.546.062.08.143.293.242.336.192.083.502-.17.698-.243.682-.252 1.538-.306 2.17.101.47.304.82.693 1.023 1.217.112.29.114.626.224.899.843-.338 2.109-.15 2.585.69.213.376.32.882.305 1.31-.01.274-.129.518-.148.776.306-.024.681.312.902.484.453.354.839.982.977 1.544.16.654-.036 1.322-.372 1.882-.33.548-.774.82-1.229 1.23.181.175.135.557.081.778-.122.505-.518.782-.93 1.05-1.059.692-2.205.896-3.424 1.139-1.162.232-2.257.858-3.427 1.007-.755.097-1.639-.008-2.39-.117-.51-.073-1.694.057-2.051-.332z"
    />
    <path
      fill="#F7E6F0"
      d="M8.342 14.525c-.203-.22-.727-.255-1.007-.317-.754-.167-1.535-.163-2.288-.354-.757-.191-1.984-.815-1.581-1.771-.289.321-.996-1.372-1.03-1.579-.126-.781.161-1.703.762-2.135a2.697 2.697 0 0 1 .367-2.444c.326-.445.995-1.028 1.525-.914-.111-.683.684-1.782 1.323-2.107.562-.286 1.548-.417 2.083-.029.288-.775 1.51-1.342 2.285-1.358.432-.008.856.16 1.221.381.214.13.394.284.547.482.056.072.127.26.215.298.169.072.443-.152.617-.216.602-.222 1.358-.27 1.915.09.417.269.724.612.904 1.075.1.256.1.553.198.794.745-.298 1.863-.133 2.284.61.188.332.282.779.269 1.157-.008.242-.114.457-.131.685.27-.022.602.275.796.427.4.313.741.868.863 1.364.142.578-.031 1.167-.328 1.662-.29.484-.684.724-1.085 1.087.16.154.119.491.071.686-.108.447-.457.691-.821.929-.935.61-1.948.79-3.025 1.005-1.026.205-1.993.758-3.026.89-.667.085-1.448-.008-2.111-.103-.45-.065-1.496.05-1.812-.295z"
    />
    <path
      fill="#DAB9D1"
      d="M1.478 18.074c-.038.214.447.823.589 1.014.4.54.772.967 1.286 1.393.344.286.709.567 1.171.589.25.011.264-.028.464.155.736.68 1.706 1.25 2.73 1.226.226-.005.523-.117.746-.05.306.091.574.365.901.46.754.22 1.405.104 2.133-.115.343.369 1.378.326 1.753.065.194.19.695.155.942.126.512-.06.953-.35 1.314-.7.276.051.592.044.889-.003.393-.064 1.024-.241 1.302-.557.01.02.019.045.03.065.466.168 1.04-.328 1.395-.589.396-.29 1.127-.832 1.24-1.366.308-1.45-2.053-1.613-2.866-1.63-.86-.018-1.71.033-2.569.08-1.326.072-2.64.035-3.967-.011-1.135-.04-2.258-.088-3.38-.272-.987-.163-1.965-.365-2.96-.459-.648-.06-1.298-.134-1.948-.152-.247-.006-.723-.068-.93.137-.1.098-.241.461-.265.594z"
    />
    <path
      fill="#F7E6F0"
      d="M8.767 15.121c-.272-.259-1.022-.16-1.372-.196-.788-.08-1.594-.104-2.383 0-.88.114-1.632.356-2.346.955-.538.45-1.538 1.07-1.19 1.886.292.685 1.282.434 1.8.449.129.463.354 1.069.814 1.287.594.283 1.02-.158 1.557-.295.26-.067.23-.064.41.173.266.351.517.649.88.897.547.374 1.175.593 1.83.486.417-.068 1.175-.203 1.419-.616.552.5 1.398.754 2.127.854 1.079.147 1.745-.177 2.563-.85.068.451.639.58 1.019.686.497.138 1.69-.121 1.832-.686.556.2 1.218.192 1.807.016.282-.084.835-.295.924-.645.036-.142-.061-.363-.052-.52.766-.077 1.6-.9 1.083-1.672-.527-.785-1.584-1.274-2.445-1.519-.96-.273-1.978-.492-2.976-.492-.973 0-1.948.064-2.916.025-1.469-.06-2.921-.216-4.385-.223z"
    />
    <path
      fill="#E3B6D4"
      d="M9.462 15.373c-.132.101-.28.028-.447.025-.528-.008-1.016-.129-1.539-.161-1.09-.068-2.374.29-3.112 1.073-.489.518-.562.867-.03 1.333.81.71 1.949.703 2.988.795.651.057 1.261.23 1.903.332.795.127 1.585.051 2.384.053 1.236.002 2.508.166 3.734.008 1.2-.156 2.482-.31 3.043-1.46.46-.944-.36-1.595-1.324-1.622-.578-.016-1.118-.03-1.666-.213-.453-.152-.9-.324-1.38-.38-.768-.089-1.536.015-2.287.17a9.71 9.71 0 0 1-1.242.162c-.345.026-.772.14-1.025-.115z"
    />
    <path
      fill="#FEFAFC"
      d="M13.662 15.437c.458-.179 1.447-.005 1.951-.006 1.157-.003 1.966.176 3.072.499.766.223 1.407.565 2.008 1.13.338.318.619.678.434 1.136-.162.403-.574.719-.972.458.148.1.043.397-.008.534-.123.326-.33.544-.658.65-.549.175-1.368.088-1.875-.19-.311.6-1.014.91-1.652.843-.457-.048-1.095-.359-1.415-.717-.219.215-.437.456-.713.611-.496.28-1.16.36-1.717.325-.607-.038-1.453-.403-1.84-.914-.253.115-.48.295-.76.378a3.3 3.3 0 0 1-1.691.057c-.7-.168-1.761-.537-1.944-1.378-.463.198-.936.414-1.451.271-.356-.099-1.078-.663-1.052-1.124-.537.182-1.113.398-1.47-.234-.433-.766.531-1.606 1.2-1.916 1.017-.47 2.062-.764 3.167-.835a5.76 5.76 0 0 1 1.45.104c.132.025.788.138.901.083-.017-.132-.109-.217-.15-.346-1.195-.14-2.799-.232-4.021.028-.966.205-2.229.717-2.806 1.6-.24.367-.5.717-.392 1.18.061.267.166.52.38.69.365.292 1.081.331 1.465.042.007-.009.006-.009-.002-.001-.07.799.537 1.332 1.267 1.387.325.025.707-.014.997-.187.14-.083.23-.227.373-.298.063.384.482.684.764.902.447.346 1.034.59 1.584.669.56.08 1.648-.01 2.07-.484.12.192.477.297.662.416.407.262.873.416 1.35.438.521.024 1.158-.099 1.603-.397.223-.149.433-.314.656-.457.277.111.528.35.803.477.423.194.865.248 1.322.168.32-.055.676-.173.933-.393.175-.15.22-.39.358-.537.005-.005.497.227.605.246.326.058.655.02.975-.07.35-.098 1.31-.598 1.066-1.117.114-.07.339-.149.514-.252.21-.124.393-.31.503-.54.3-.63.043-1.113-.396-1.536-1.248-1.201-3.086-1.65-4.746-1.648-.524 0-1.984-.132-2.505-.126 0 0-.12.146-.197.38z"
    />
    <path
      fill="#DAB9D1"
      d="M7.972 1.63c.506.837.948 1.717 1.291 2.64.354.925.531 1.893.776 2.838.21.956.399 1.925.484 2.903l.147 1.462c.047.492-.062.981.037 1.464-.139-.476-.071-.98-.158-1.456l-.215-1.448a26.508 26.508 0 0 0-.536-2.87c-.224-.95-.404-1.913-.713-2.83A22.827 22.827 0 0 0 7.972 1.63zM2.369 7.861c.298.232.665.337 1.012.476.352.138.687.315 1.007.514.641.402 1.207.906 1.776 1.391l1.637 1.552.409.388c.143.149.236.214.424.255.171.042.358.058.551.099.183.038.429.117.538.355l-.219.08C8.97 11.31 8.283 9.691 7.4 8.18a19.606 19.606 0 0 0-1.45-2.186c-.264-.349-.535-.694-.817-1.029-.3-.319-.476-.763-.875-.966.411.185.613.625.923.923.299.323.592.651.868.995.55.688 1.045 1.42 1.498 2.176.903 1.512 1.663 3.12 2.18 4.81l-.22.08c-.111-.252-.563-.242-.926-.337-.188-.026-.41-.19-.518-.32l-.4-.393-1.602-1.571c-.56-.499-1.118-.997-1.733-1.418a6.109 6.109 0 0 0-.968-.555c-.338-.155-.704-.28-.991-.527zM2.228 11.893c.276-.123.591-.085.883-.073.29.032.587.03.886.08.595.088 1.164.284 1.718.498.545.233 1.088.478 1.598.789.253.158.5.321.733.515.223.202.41.428.639.616-.489-.343-.932-.717-1.466-.966a16.177 16.177 0 0 0-1.597-.726 9.355 9.355 0 0 0-1.659-.54c-.28-.07-.576-.09-.868-.147-.286-.05-.58-.13-.867-.046zM13.253 1.32a88.75 88.75 0 0 1-.645 2.685c-.205.894-.518 1.767-.647 2.673-.167.9-.264 1.813-.372 2.727-.085.918-.28 1.822-.31 2.742-.06-.924.07-1.844.121-2.76.069-.919.169-1.838.318-2.751.152-.918.461-1.79.708-2.678.261-.885.538-1.765.827-2.638zM12.265 12.364c.166-.387.233-.804.332-1.213.1-.414.242-.81.381-1.21.284-.796.645-1.561 1.018-2.318.38-.748.798-1.497 1.322-2.164.52-.671 1.111-1.272 1.7-1.872-.516.665-1.061 1.307-1.542 1.99-.494.674-.885 1.407-1.264 2.157a29.26 29.26 0 0 0-1.062 2.274c-.355.76-.518 1.591-.885 2.356zM12.83 12.204c.354-.145.53-.525.755-.82.213-.322.489-.596.736-.882a27.645 27.645 0 0 1 1.617-1.623c.57-.506 1.156-1.008 1.803-1.42.641-.421 1.316-.779 1.997-1.12-.636.42-1.276.833-1.89 1.275-.615.44-1.19.929-1.744 1.447-.568.502-1.107 1.037-1.646 1.571-.267.274-.549.524-.778.824-.255.27-.474.637-.85.748zM13.478 14.093c.384-.503.907-.864 1.407-1.242a10.314 10.314 0 0 1 1.646-.922c.58-.24 1.166-.472 1.784-.614.308-.067.623-.116.941-.123.329-.016.622.128.933.138-.314.03-.627-.074-.926-.017a4.83 4.83 0 0 0-.9.186c-.59.174-1.17.401-1.733.655-.57.24-1.115.532-1.642.855-.266.159-.52.333-.775.514-.26.173-.527.333-.735.57z"
    />
    <g>
      <path
        fill="#FEFAFC"
        d="M11.273 16.859c-.64.204-1.38-.217-1.849-.564-1.207-.894-1.633-2.379-.986-3.695.624-1.272 1.843-1.858 3.308-1.72 1.213.114 2.046.92 2.322 2.004a3.318 3.318 0 0 1-1.334 3.537c-.354.247-.966.516-1.46.438z"
      />
    </g>
  </svg>