<?xml version="1.0" encoding="utf-8"?>
<svg version="1.1" xmlns="http://www.w3.org/2000/svg" xmlns:xlink="http://www.w3.org/1999/xlink" x="0px" y="0px"
	 viewBox="0 0 100 100" style="enable-background:new 0 0 100 100;" xml:space="preserve">
	 <path d="M88.3 9.9c-.4-.5-2-2.2-4.5-2.3-2.1-.1-4.3 1-6.4 3.2L65 24.1l1 .3c.2.1 4.5 1.3 7.3-1.8.4-.5.9-1 1.5-1.7 1.9-2.3 4.6-5.4 6.7-5.5.6 0 1 .2 1.5.6 1.8 1.6 1.7 4.6.9 6.7-.6 1.5-1.5 2.5-2.4 2.5-.6 0-1.5 0-2.3-.1H79c-2.6-.2-5.6-.5-7.2 1-.7.6-1 1.5-1 2.7.1 2.6 2.3 5.3 5.5 6.5.3.1.6.2 1 .3L57.5 57 37 79.3c-3.3 3.6-6.7 7.3-10.5 10.6-.4.4-.9.7-1.3 1.1.6-1.4.9-2.9.8-4.3 0-.8-.2-1.5-.4-2.3-.2-.7-.5-1.4-.9-2.1-1.5-2.6-4-4.5-7-5.2-.8-.2-1.6-.3-2.3-.2-.2 0-.5 0-.7.1 1.2-4 2.4-8 3.5-11.9l.1-.4c.9-2.9 1.7-5.7 2.6-8.6 2.8-9.3 5.6-18.7 8.8-28.9l2.9-9.8 5-16.7-2.1 3.6-2.2 5.4-5.8 16.8c-3 8.9-6 18.3-9.4 28.8-1.8 5.5-3.2 10.1-4.5 14.4l-2.9 9.6c-.4.5-.8 1-1.1 1.6-.3.6-.6 1.3-.8 2.1-.2.7-.3 1.5-.3 2.3 0 .6 0 1.2.1 1.7-.1.4-.1.9-.1 1.3 0 .7.1 1.5.3 2.4.3.8.6 1.5 1 2.1.5.7 1 1.3 1.6 1.7.2.2.4.3.7.5l.6.4c.1 0 .2.1.3.1l.7.9c.4.5.9 1.1 1.6 1.6.6.5 1.5.7 2.4.7h.5c.9-.1 1.7-.4 2.3-.7.5-.2.9-.5 1.3-.7.2-.1.3-.2.5-.3 2-1.2 4.1-2.7 6.3-4.6 1.8-1.6 3.6-3.3 5.5-5.4 1.7-1.8 3.3-3.6 5.1-5.6l20-22.7 14.9-17.1 4.8-5.6h.5c2 0 3.9-.8 5.3-2.3l8.5-9.1c.1-.2 1.2-2.1 1.1-4.8 0-2.8-1.1-6.5-6-9.9zM14.4 80.5l.3-.1h.4c.2 0 .4-.1.6-.1.4 0 .9 0 1.4.2 2 .5 3.8 1.8 4.8 3.6.5.9.8 1.9.8 2.8 0 .9-.2 1.9-.6 2.9-.9 1.9-2.6 3.2-4.4 3.4-.8.1-1.7-.1-2.6-.4-1-1.3-2-2.8-2.6-4.5-.2-.5-.4-1-.5-1.5.1-.7.3-1.3.4-1.8.4-1.3.7-2.6 1.1-3.9.3-.3.6-.5.9-.6z" />
    </svg>