<?xml version="1.0" encoding="utf-8"?>
<svg version="1.1" xmlns="http://www.w3.org/2000/svg" xmlns:xlink="http://www.w3.org/1999/xlink" x="0px" y="0px"
	 viewBox="0 0 100 100" style="enable-background:new 0 0 100 100;" xml:space="preserve">
	 <path
        d="M62.3 25.1l-8.5 2.3c-2.3-.4-6.2-1.6-6.2-1.6-8.7-5.3-17.4-.2-17.4-.2-.4.3-.7.6-1.1.8-.5-.8-1-1.7-1.3-2.6-.2-.5-.3-.9-.3-1.3-.1-.4-.1-.8-.1-1.3 0-.6.1-1.2.1-1.8 0-.3.1-.7.1-1v-1.5c0-.5-.1-1.1-.2-1.6s-.3-1-.6-1.5-.6-1-1-1.3c-.5-.4-1-.7-1.6-.9h-.1c-.1 0-.2-.1-.3-.1h-1.3c-1.3.2-2.3.9-3 1.4-.5.4-.8.7-1.2 1.1-.4.5-.7.9-.9 1.3-.1.3-.2.5-.3.8-.1.2-.1.5-.1.7v.1c0 .5.1 1.1.3 1.6.4.9.9 1.7 1.8 2.5.8.8 1.7 1.4 2.3 1.9l.4-.4c-.4-.3-.7-.6-1.1-1l-1-1c-.3-.3-.6-.7-.8-1.1l-.6-1.2c-.1-.4-.2-.8-.1-1.2v-.1c0-.2 0-.3.1-.5 0-.2.1-.3.2-.5.4-.8 1.2-1.4 1.9-1.9.9-.6 1.6-1 2.4-1.1.8-.1 1.6.2 2.1.7.6.5 1 1.3 1.2 2.2.1.4.2.8.2 1.3v1.4c0 .3 0 .6-.1 1 0 .6-.1 1.3-.1 1.9 0 .6 0 1.1.1 1.5.1.5.2 1 .4 1.5.3.8.8 1.7 1.4 2.7.1.1.2.2.3.4-6.2 6.4-3.5 16-3.5 16-.6 2.9-2.3 7.1-2.3 7.1C-7.7 87 2.4 89.8 2.4 89.8L98.8 22c-9.1-8.9-36.5 3.1-36.5 3.1zM40.2 41c13.1-9.2 52.3-19.4 52.3-19.4L5.3 82.8C25.5 53.8 40.2 41 40.2 41z"
        fill="#2d5f84"
      />
    </svg>