<?xml version="1.0" encoding="utf-8"?>
<svg version="1.1" xmlns="http://www.w3.org/2000/svg" xmlns:xlink="http://www.w3.org/1999/xlink" x="0px" y="0px"
	 viewBox="0 0 100 100" style="enable-background:new 0 0 100 100;" xml:space="preserve">
	 <path
        d="M61 3.5c-17-5.6-37.2.7-48 15s-10.8 29.9-5.3 45c6 14.8 18 27 32.6 33.4 5.2 2.2 11.5 1.6 17 .8 7.9-1.1 13.6-4.6 19.1-10.4 6.2-6.6 12.1-14.1 14.4-22.9C97.2 41.3 84.3 11.2 61 3.5zm-5.6 62.7c-1.9-1.6-3.7-4.2-2.5-6.3.4-.6.9-1.1 1.5-1.4 2.2-1.2 5.2-.8 6.8 1.2 1.6 1.9 1.3 5.1-.7 6.6s-5.3.6-6.2-1.7l1.1 1.6zm-2.3-16.9c-1.9-1.6-3.7-4.2-2.5-6.3.4-.6.9-1.1 1.5-1.4 2.2-1.2 5.2-.8 6.8 1.2 1.6 1.9 1.3 5.1-.7 6.6s-5.3.6-6.2-1.7l1.1 1.6zM32.8 38.7c.4-.6.9-1.1 1.5-1.4 2.2-1.2 5.2-.8 6.8 1.2 1.6 1.9 1.3 5.1-.7 6.6s-5.3.6-6.2-1.7l1.1 1.7c-1.8-1.7-3.7-4.3-2.5-6.4zm10.7 25.1c-2 1.5-5.3.6-6.2-1.7l1.1 1.7c-1.9-1.6-3.7-4.2-2.5-6.3.4-.6.9-1.1 1.5-1.4 2.2-1.2 5.2-.8 6.8 1.2 1.5 1.8 1.3 5-.7 6.5z"
        fill="#2d5f84"
      />
      <path
        d="M12.4 39.3c-1.4 8.5.2 17.4 4.5 25-2.5-3.6-4.2-7.7-5.3-12-1-4.3-1.2-8.8-.7-13.2 1.1-8.9 5.8-17.1 12.5-23 6.7-5.8 15.7-9.3 24.7-8.5 4.6.4 8.9 2.1 12.5 4.6 3.6 2.6 6.7 5.7 9.6 9-3.2-3-6.4-6-10-8.3-3.6-2.3-7.8-3.8-12-4-8.5-.5-17.1 2.8-23.4 8.5-6.6 5.6-11.1 13.5-12.4 21.9zm71.2 18c-.5 2.6-1 5.2-1.7 7.8-.6 2.6-1.5 5.1-2.6 7.6-1.2 2.4-2.6 4.8-4.4 6.8-1.8 2-3.8 3.9-6 5.4-2.2 1.5-4.7 2.8-7.2 3.7-5 1.9-10.6 2.4-15.8 1.4 2.6.1 5.3 0 7.8-.5 2.6-.4 5.1-1.2 7.4-2.2 4.7-2 9-5.1 12.4-9 3.4-3.9 5.5-8.7 7-13.7.8-2.5 1.5-5.1 2.2-7.6.7-2.5 1.3-5.1 1-7.8.7 2.8.4 5.5-.1 8.1z"
        fill="#fff"
      />
    </svg>