<?xml version="1.0" encoding="utf-8"?>
<svg version="1.1" xmlns="http://www.w3.org/2000/svg" xmlns:xlink="http://www.w3.org/1999/xlink" x="0px" y="0px"
	 viewBox="0 0 100 100" style="enable-background:new 0 0 100 100;" xml:space="preserve">
      <g id="CoutureMachine-C_svg__clair">
        <path
          fill="#2d5f84"
          className="CoutureMachine-C_svg__st0"
          d="M7.5 12v4.3c0 .9 1.2.9 1.2 0V12c0-.9-1.2-.9-1.2 0z"
        />
        <path
          fill="#efcfc0"
          className="CoutureMachine-C_svg__st1"
          d="M6 9.1c-.1 1.4.9 2.9 2.2 2.7 1.3-.2 2.4-1.8 2.1-3.3C9.9 7.1 8.6 6.4 7.4 7c-1.3.7-1.6 2.5-1 3.8.4.8 1.4.1 1-.7-.2-.6-.2-1.4.4-1.8.5-.4 1.2-.1 1.3.6.1.7-.5 1.4-1 1.5-.6.1-1-.7-1-1.3.1-.9-1.1-.9-1.1 0zM92.2 26.5h3v-4.8s-.2-2.6.8-2.6c0 0 1.2-.2 1.2 2.8v1.6l1.9-.1v1.2h-1.9v12s0 1.7-1 1.7c0 0-1.2.1-1.2-1.8v-8l-2.9.2v-2.2z"
        />
        <path
          fill="#efcfc0"
          className="CoutureMachine-C_svg__st1"
          d="M6.8 57.6s-3.4.4-3.4-5.3c0 0-2.9-22.3 0-33 0 0-.2-5.6 5.8-5.6 0 0 5.3-.5 5.3 5.9 0 0 18-1.1 28.6-5 0 0 25.4-10.8 37.6-4.4 0 0 13.3 4.4 13.3 22.7v42.4s4.3-1.1 4.3 4.6v5.9s-.2 2.1-3.2 2.1c0 0-80.6 4-90.1 0 0 0-4.5 1.3-4.5-3.8v-4.3s-.5-2.6 3.8-2.6 36-1.7 45-1.7c0 0 19.4 2.1 24.6-13.7 0 0 6.1-16.3-6.5-24.6 0 0-7.9-7-24.3-5.1 0 0-18.9 2.4-29.5 9.1l-.7 13.7s.4 3.2-3.7 2.7v5.1l-2.8.3.4-5.4z"
        />
        <path
          fill="#2d5f84"
          className="CoutureMachine-C_svg__st0"
          d="M11.2 27c-.8.4-1.4 1.2-1.7 2.2-.1.5-.2 1-.2 1.5s0 1 .2 1.5c.1.5.3.9.6 1.3s.6.7.9 1c.7.6 1.5.9 2.3 1.1.4.1.8.1 1.3.1.4 0 .8-.1 1.3-.2.8-.2 1.6-.6 2.4-1 1.5-.9 3-2.1 4.4-3.2 5.8-4.5 11.9-8.4 18.4-11.6 3.2-1.6 6.5-2.9 9.9-3.9.8-.3 1.7-.5 2.5-.7.8-.2 1.7-.4 2.6-.6.9-.1 1.8-.2 2.6-.1.9.1 1.8.3 2.6.7.8.4 1.6 1 2.2 1.8.6.8 1 1.8 1.2 2.9.2 1 .2 2.1 0 3.2-.1 1-.4 2.1-.8 3-.4.9-1 1.8-1.8 2.3-.8.5-1.8.6-2.6.2-.4-.2-.8-.5-1-1-.1-.2-.2-.5-.3-.7 0-.3-.1-.5 0-.8 0-.5.2-1 .5-1.4.3-.4.7-.7 1.1-.7-.4.1-.8.3-1.1.8-.3.4-.4.9-.4 1.4 0 .3 0 .5.1.7.1.2.1.5.3.7.2.4.6.7 1 .9.8.3 1.7.2 2.4-.2.7-.5 1.3-1.3 1.7-2.2.4-.9.6-1.9.7-2.9.1-1 .1-2-.1-3s-.6-1.9-1.1-2.6c-.5-.7-1.3-1.3-2-1.6-.8-.3-1.6-.5-2.5-.6-.8-.1-1.7 0-2.5.1s-1.7.3-2.5.6c-.8.2-1.7.5-2.5.7-3.3 1.1-6.6 2.4-9.8 4-3.2 1.6-6.3 3.3-9.4 5.2-3.1 1.9-6 4-9 6.2-1.5 1.1-2.9 2.2-4.5 3.1-.8.4-1.6.8-2.5 1-.4.1-.9.2-1.3.2s-.9 0-1.3-.1c-.9-.2-1.7-.6-2.4-1.2-.4-.3-.7-.7-.9-1.1-.3-.4-.4-.9-.6-1.4-.1-.5-.2-1-.1-1.6 0-.5.1-1 .3-1.5.2-.5.4-.9.7-1.3-.1-.7.3-1 .7-1.2zm61.1-12.4c1.3.3 2.5.8 3.7 1.5 1.2.7 2.3 1.4 3.4 2.4 1.1.9 2 2 2.8 3.3.4.6.8 1.3 1.1 2 .2.3.3.7.5 1 .1.4.3.7.4 1.1.3.7.5 1.5.7 2.2.2.7.4 1.5.5 2.3.3 1.5.5 3.1.7 4.6.2 1.6.2 3.1.2 4.7s-.1 3.1-.1 4.7h-.7c-.1-1.5-.2-3-.4-4.5s-.3-3-.6-4.4c-.3-1.5-.6-2.9-1.1-4.2-.5-1.3-1.2-2.6-2.1-3.6-.9-1-2-1.7-3.2-2-.6-.2-1.2-.2-1.8-.1-.6.1-1.2.3-1.7.7-.3.2-.5.4-.7.7-.2.3-.3.6-.4.9-.2.7-.1 1.5.3 2.1.2.3.4.5.7.7.3.1.6.1.9 0 .3-.1.6-.3.8-.6.2-.3.3-.7.3-1 0 .4-.1.8-.3 1.1-.2.3-.5.5-.8.7-.3.1-.7.1-1 0-.3-.1-.6-.4-.8-.7-.4-.6-.5-1.5-.4-2.3.1-.4.2-.8.4-1.1.2-.3.4-.6.7-.8.5-.5 1.2-.7 1.8-.9.6-.1 1.3-.1 2 0 1.3.3 2.5 1.1 3.5 2.1.5.5.9 1.1 1.3 1.7.4.6.7 1.3 1 2 .6 1.4.9 2.9 1.2 4.4.3 1.5.5 3 .6 4.5.2 1.5.3 3 .4 4.5h-.7c.1-1.5.1-3.1.1-4.6 0-1.5-.1-3.1-.2-4.6-.3-3.1-.8-6.1-1.7-9-.1-.4-.3-.7-.4-1.1-.1-.3-.3-.7-.4-1-.3-.7-.7-1.3-1-1.9-.8-1.2-1.7-2.3-2.7-3.3-2-2-4.3-3.4-6.8-4.2zM79 77.3c1-1.9 1.8-3.8 2.5-5.8s1.3-4.1 1.8-6.2c.5-2.1.8-4.2 1.1-6.4.2-2.2.3-4.3.3-6.5h.7c.1 2.2.3 4.3.7 6.5.3 2.1.8 4.2 1.4 6.3.6 2.1 1.3 4.1 2.1 6 .8 2 1.7 3.9 2.8 5.7-1.1-1.7-2.1-3.6-3-5.5-.9-1.9-1.7-3.9-2.3-6-.6-2.1-1.2-4.2-1.5-6.4-.4-2.2-.6-4.4-.7-6.6h.7c0 2.2-.1 4.4-.3 6.6-.3 2.2-.6 4.4-1.2 6.5-.5 2.1-1.2 4.2-2 6.2-1.1 1.9-2 3.8-3.1 5.6zM8.3 83.1l8 .2 4 .1h8l4-.1 8-.2c-2.7.4-5.3.6-8 .8-1.3.1-2.7.1-4 .2h-8c-1.3-.1-2.7-.1-4-.2-2.7-.2-5.4-.4-8-.8zM57 81.9c3.1.5 6.3.9 9.4 1l2.4.1h4.8l2.4-.1 2.4-.1 2.4-.1 2.4-.1 2.4-.2c3.1-.2 6.3-.5 9.4-.7-3.1.5-6.3.9-9.4 1.3-.8.1-1.6.2-2.4.2l-2.4.2-2.4.1-2.4.1h-4.8l-2.4-.1c-.8 0-1.6-.1-2.4-.2-3.2 0-6.3-.6-9.4-1.4z"
        />
        <path
          fill="#2d5f84"
          className="CoutureMachine-C_svg__st0"
          d="M13.5 35.8c-.2-.1-.4-.3-.6-.4-.2-.2-.3-.4-.4-.6-.1-.2-.2-.5-.2-.7 0-.3-.1-.5 0-.8.2.2.3.4.5.6l.3.6c.1.2.2.4.3.7 0 0 .1.3.1.6zm2.3 0c0 .2-.1.4-.2.6-.1.2-.1.3-.2.5-.1.1-.2.3-.3.4-.1.1-.2.3-.4.5-.1-.2-.1-.5-.1-.7 0-.2.1-.4.2-.6.1-.2.2-.3.4-.5.2-.1.4-.2.6-.2zm2.1-1c-.2.1-.4 0-.6-.1-.2-.1-.4-.3-.5-.5-.1-.2-.2-.4-.3-.7 0-.3 0-.5.1-.8.2.2.3.4.4.5.1.2.2.3.3.5.1.1.2.3.3.5.1.2.2.3.3.6zm2.4-1.5v.9c0 .1-.1.3-.1.4-.1.1-.1.3-.2.5-.2-.1-.2-.3-.3-.5V34c0-.2.1-.4.2-.5.1 0 .2-.1.4-.2zm2.3-1.8c-.1.2-.3.2-.5.3-.2 0-.3 0-.5-.1s-.3-.2-.4-.3c-.1-.2-.2-.3-.2-.6.2 0 .3 0 .5.1.1 0 .2.1.4.1.1.1.2.1.3.2.2 0 .3.1.4.3zm1.8-1v1.1c0 .2 0 .3-.1.5 0 .2-.1.4-.1.6-.2-.1-.3-.3-.4-.5-.1-.2-.1-.5-.1-.7 0-.2.1-.5.2-.7.1-.1.3-.3.5-.3zm2.8-2.3c-.1.3-.3.5-.6.5s-.5 0-.7-.2c-.2-.1-.4-.4-.5-.6-.1-.2-.2-.5-.2-.8l.6.3c.2.1.3.2.5.3.1.1.3.2.4.2.1.3.2.3.5.3zm1.7-.9v.7c0 .2 0 .4.1.6l.1.6c0 .2.1.5 0 .8-.2-.1-.4-.3-.5-.5-.1-.2-.2-.4-.3-.7 0-.3 0-.6.1-.8.1-.4.3-.6.5-.7zm2.2-1.7c-.1.2-.2.4-.4.4-.2.1-.4 0-.5-.1-.2-.1-.3-.2-.4-.4-.1-.2-.1-.4 0-.6.2.1.3.2.4.2.1 0 .2.1.3.1.1 0 .2.1.3.2 0 .1.1.1.3.2zm1.5-.8c.1.1.2.3.3.4.1.1.1.2.1.3v.3c0 .1 0 .3-.1.5-.2 0-.3-.1-.4-.2-.1-.1-.1-.2-.2-.4v-.4c0-.2.1-.4.3-.5zm2.9-1.6c-.1.2-.4.3-.6.3-.2 0-.4 0-.6-.1-.2-.1-.4-.3-.5-.5-.1-.2-.2-.5-.2-.7l1.9 1zm2-1.1c-.1 0-.1.1-.1.1v.6c.1.3.1.6.2.9.1.3.1.6.2.9.1.3.1.6.2 1-.3-.1-.5-.4-.7-.7-.2-.3-.3-.6-.4-1-.1-.3-.1-.7 0-1.1v-.4s0-.1.1-.2c0-.1.1-.2.2-.2 0 0 .1-.1.1 0 .2 0 .2.1.2.1zm2.4-1.5c-.1.2-.3.4-.5.4s-.4 0-.6-.1c-.2-.1-.3-.3-.4-.5-.1-.2-.1-.5 0-.7.1.2.3.3.4.3.1.1.2.1.3.2.1.1.2.1.3.2.2.1.3.2.5.2zm2.9-1.3c0 .3-.1.5-.1.7v1.9c-.2-.1-.4-.3-.5-.6-.1 0-.2-.3-.2-.6s.1-.6.2-.8c.1-.3.3-.5.6-.6zm2.5-1.3c-.2.1-.3.1-.5.1-.2-.1-.3-.2-.4-.3-.1-.1-.2-.3-.2-.5s0-.4.1-.6l.3.3c.1.1.2.2.2.3.1.1.1.2.2.3l.3.4zm3-.8c-.1.2-.1.4-.2.5 0 .1-.1.2-.1.3 0 .1-.1.2-.1.3-.1.1-.1.3-.2.5-.2-.1-.3-.3-.3-.5v-.6c.1-.2.2-.4.3-.5.3-.1.4-.1.6 0zm2.7-1c0 .1-.1.1-.1.1h-.2c-.1 0-.2-.1-.3-.3-.1-.1-.1-.3-.2-.4 0-.1-.1-.2-.1-.3 0-.2-.1-.5 0-.7 0-.2.1-.5.2-.7l.3.6c.1.2.1.4.2.6 0 .2.1.4.1.6 0 .1 0 .2.1.2-.2.2-.1.2 0 .3zm3.2-.8c-.1.1-.1.2-.1.3v.9c0 .2 0 .4-.1.7 0 .2-.1.5-.2.7-.2-.2-.3-.5-.3-.7-.1-.3-.1-.5 0-.8 0-.1 0-.3.1-.4 0-.1 0-.1.1-.2 0-.1 0-.1.1-.2s.1-.3.3-.3c-.2-.1 0-.1.1 0zm2.8-.7c-.1 0-.3 0-.4-.1l-.3-.3c-.1-.1-.1-.3-.1-.4 0-.2 0-.3.1-.4 0 .3.1.5.2.7.2.2.3.4.5.5zm3.3.5c-.2.1-.4.2-.6.4-.2.1-.3.2-.5.4-.2.1-.3.3-.5.4-.2.2-.3.3-.5.6-.1-.3 0-.6.1-.9.1-.3.3-.5.5-.7.2-.2.5-.3.7-.3.3-.1.6 0 .8.1zM85 47.9c-.2.3-.1.7.2.9.3.2.6.1.8-.2.2-.3.2-.7 0-1-.2-.3-.4-.4-.7-.3-.2.1-.4.5-.2.8m-35.7 34c-.3.5-.2 1.2.3 1.5.4.3 1 .1 1.3-.3.3-.5.3-1.2 0-1.7-.3-.4-.7-.7-1.2-.5-.4.2-.6.9-.4 1.3"
        />
          fill="#efcfc0"
        <path className="CoutureMachine-C_svg__st1" d="M7.6 62.8l.3 6 .2-6z" />
      </g>
    </svg>