<?xml version="1.0" encoding="utf-8"?>
<svg version="1.1" xmlns="http://www.w3.org/2000/svg" xmlns:xlink="http://www.w3.org/1999/xlink" x="0px" y="0px"
	 viewBox="0 0 100 100" style="enable-background:new 0 0 100 100;" xml:space="preserve">
      <g id="CouturePelote-C_svg__clair">
        <path
          d="M90.4 23.2C78 1 57.6-2.4 36.7 5 19.3 11.2 3.1 26 2.8 48c-.1 11.2 1.6 22.8 7.7 31.9 1.7 2.6 3.8 4.8 6.1 6.8.9.5 1.7 1.2 2.4 2 1.8 1.4 3.7 2.6 5.7 3.6.6.2 1.1.5 1.7.8 3.2 1.5 6.5 2.7 9.8 3.4 36.6 8.7 77.2-32.4 54.2-73.3z"
          fill="#f9f5f4"
        />
        <path
          fill="#2d5f84"
          className="CouturePelote-C_svg__st2"
          d="M46.8 64c1 4 1.6 8 2.1 12 .8 7.3.7 14.7-.2 22.1h.2c1.6-7.2 2.1-14.7 1.6-22.2-.7-8.3-2.5-16.5-5.5-24.2-3.1-7.7-7.4-15-12.8-21.4-4.5-5.2-9.7-9.8-15.5-13.5l-.3.3C21.9 21.2 26.8 26 31 31.3c5.1 6.4 9.2 13.5 12.1 21.1 1.5 3.8 2.7 7.7 3.7 11.6zm17 7.2c.8 7.9.6 15.9-.6 23.8h.1c1.8-7.8 2.3-15.9 1.7-23.8-.6-8.3-2.5-16.6-5.6-24.4C56.3 39 52.1 31.7 47.1 25c-2.5-3.3-5.4-6.4-8.5-9.2-3.1-2.8-6.6-5.3-10.4-7 3.7 2 6.9 4.5 9.9 7.4 3 2.9 5.6 6.1 8 9.4 2.4 3.3 4.6 6.8 6.6 10.5 2 3.6 3.8 7.3 5.3 11.2 3 7.6 4.9 15.7 5.8 23.9z"
        />
        <path
          fill="#2d5f84"
          className="CouturePelote-C_svg__st2"
          d="M58.5 72.2c-.6-8.3-2.4-16.5-5.5-24.3-3.1-7.7-7.2-15.1-12.4-21.6-2.6-3.3-5.5-6.3-8.7-9-2.8-2.3-5.8-4.2-9-5.7l-.1.1c3.2 1.6 6 3.7 8.6 6.1 3 2.8 5.7 5.9 8.2 9.1 2.4 3.3 4.7 6.7 6.6 10.3 2 3.6 3.8 7.3 5.2 11.1 3 7.6 4.9 15.7 5.7 23.8.8 8.2.6 16.4-.7 24.6 2.1-7.8 2.7-16.2 2.1-24.5z"
        />
        <path
          fill="#2d5f84"
          className="CouturePelote-C_svg__st2"
          d="M33.4 6.4c2 .6 3.9 1.5 5.6 2.6 1.8 1.1 3.4 2.4 5 3.7 3.1 2.7 6 5.8 8.6 9.1 5.2 6.5 9.5 13.7 12.6 21.5 3.1 7.8 4.9 16 5.5 24.3.6 8.3 0 16.7-2 24.7 1.3-8.2 1.5-16.4.7-24.6-.8-8.2-2.7-16.2-5.7-23.8-1.5-3.8-3.3-7.5-5.3-11-2-3.6-4.3-7-6.7-10.3-2.5-3.3-5.1-6.4-8.1-9.2-3-2.9-6.3-5.5-10.2-7z"
        />
        <path
          fill="#2d5f84"
          className="CouturePelote-C_svg__st2"
          d="M75.6 53c1 4 1.6 8 2.1 12 .8 7.3.7 14.7-.3 22.1.1-.1.2-.1.3-.1 1.5-7.2 2-14.7 1.5-22-.6-8.3-2.4-16.5-5.4-24.3-3.1-7.7-7.4-15-12.8-21.4-5.4-6.4-11.9-11.8-19.2-15.7 6.9 4.6 12.9 10.2 18 16.6 5.1 6.4 9.2 13.5 12.1 21.1 1.5 3.8 2.7 7.7 3.7 11.7z"
        />
        <path
          fill="#2d5f84"
          className="CouturePelote-C_svg__st2"
          d="M67 3c-.1 1.7-.2 3.3-.4 4.9-.2 1.6-.6 3.2-1 4.7s-1 3.1-1.6 4.5c-.7 1.5-1.4 2.9-2.3 4.4 1.5-.9 2.7-2.2 3.7-3.6s1.7-3.1 2.2-4.7c.5-1.7.7-3.4.6-5.2-.2-1.7-.5-3.4-1.2-5zm8.5 42.9c1.8-2.2 3.5-4.6 4.9-7 1.4-2.5 2.6-5.1 3.5-7.8.9-2.7 1.4-5.5 1.6-8.3.1-2.8-.2-5.7-1-8.5 1.2 2.6 1.8 5.6 1.8 8.5 0 2.9-.5 5.9-1.4 8.6-1.8 5.6-5.1 10.6-9.4 14.5zm4.7-32c-.1-.7-.3-1.3-.4-2l-.6-1.9c-.2-.5-.4-1-.6-1.4h-.1c.1.5.3 1 .4 1.5l.4 1.9.2 1.9c0 .7.1 1.3.1 2 0 2.6-.2 5.2-.9 7.7-.6 2.5-1.5 5-2.7 7.3-.3.6-.6 1.2-.9 1.7-.4.5-.7 1.1-1.1 1.7l-1 1.6-1.2 1.5c.5-.5 1-.9 1.4-1.4l1.3-1.5c.4-.5.8-1.1 1.2-1.6.4-.5.7-1.1 1.1-1.7 1.4-2.3 2.4-4.8 3-7.4.6-2.6.9-5.3.7-8-.1-.5-.2-1.2-.3-1.9zm-7.5-8.8c.3 1.9.3 3.8.2 5.7-.2 2-.6 3.9-1.2 5.8s-1.4 3.7-2.4 5.4c-1 1.7-2.2 3.3-3.6 4.7 1.6-1.2 2.9-2.8 4-4.4 1.1-1.7 2-3.5 2.6-5.5.6-1.9 1-3.9 1-6 .2-1.9 0-3.8-.6-5.7zm5.1 51c1.7-2.3 3.6-4.5 5.5-6.7 1.8-2.2 3.6-4.4 5.2-6.7 1.5-2.3 2.8-4.8 3.5-7.5.7-2.7.9-5.5.8-8.4.9 2.8 1.2 5.8.7 8.8-.1.7-.3 1.5-.5 2.2-.2.7-.5 1.4-.7 2.1-.3.7-.6 1.4-1 2-.4.6-.7 1.3-1.1 1.9-1.6 2.5-3.6 4.7-5.7 6.7s-4.3 3.9-6.7 5.6zM33.1 32.9c-3.8 1.4-7.2 3.4-10.3 5.9-3.1 2.5-5.8 5.3-8.1 8.5-.6.8-1.2 1.6-1.7 2.4-.5.8-1.1 1.6-1.5 2.5-1 1.7-1.8 3.5-2.6 5.3-1.6 3.5-2.8 7.3-3.7 11.3.1-4 .9-8.1 2.2-11.9 1.3-3.9 3.3-7.5 5.7-10.8 2.4-3.3 5.4-6.2 8.8-8.5 3.3-2.4 7.2-4.1 11.2-4.7zm7.1 12.9c-3.9 1.2-7.4 3.2-10.6 5.7-3.1 2.5-5.9 5.5-8.2 8.8-2.3 3.3-4.2 6.8-5.7 10.6-.8 1.9-1.4 3.8-1.9 5.7-.2 1-.5 2-.7 2.9l-.5 3 .3-3c.1-1 .4-2 .5-3 .5-2 1-3.9 1.7-5.9 1.4-3.8 3.3-7.5 5.6-10.8 2.4-3.3 5.2-6.3 8.4-8.8 1.6-1.2 3.4-2.3 5.2-3.2.4-.2.9-.4 1.4-.6l1.4-.6c1.1-.3 2.1-.5 3.1-.8zm-2.6 22.6c-2.8 1.6-5.4 3.7-7.5 6.2-2.1 2.5-3.9 5.3-5.1 8.3-1.2 2.8-1.8 5.8-1.9 8.8h.1c.8-2.9 1.9-5.6 3.2-8.2l1.1-2c.4-.7.8-1.3 1.2-1.9.4-.6.9-1.2 1.3-1.9l1.5-1.8c2-2.3 4.3-4.4 6.8-6.2 2.5-1.8 5.3-3.2 8.3-4.3-3 .3-6.2 1.4-9 3z"
        />
        <path
          fill="#2d5f84"
          className="CouturePelote-C_svg__st2"
          d="M34.9 37.7c-4 1.4-7.7 3.6-10.9 6.3-3.2 2.8-5.9 6-8 9.7-2.2 3.6-3.7 7.5-4.9 11.6-.6 2-1.1 4.1-1.4 6.2-.4 2.1-.7 4.2-.9 6.3.1-2.1.2-4.2.5-6.3.3-2.1.7-4.2 1.2-6.3 1-4.1 2.6-8.1 4.8-11.8 2.2-3.7 5-7 8.3-9.7 1.7-1.3 3.4-2.5 5.3-3.5 2-1.2 4-2 6-2.5zm2 17.7c-1.9 1-3.7 2.2-5.3 3.5-3.3 2.7-6.1 6.1-8.3 9.7-2.1 3.7-3.7 7.7-4.8 11.8-.5 2.1-.9 4.2-1.2 6.3v.4c.1.1.2.2.3.2 0-.2.1-.4.1-.6.4-2.1.8-4.1 1.4-6.2 1.2-4 2.7-8 4.9-11.6 2.1-3.6 4.8-6.9 8-9.7 3.2-2.8 6.8-4.9 10.9-6.3-2.1.7-4.1 1.5-6 2.5zM26.2 27.8c-.8 1.5-1.5 2.9-2 4.4-.5 1.5-.8 3.1-1.1 4.7-.4-1.6-.2-3.4.4-5 .5-1.5 1.4-3 2.7-4.1zM37.6 70c1.8.8 3.6 1.5 5.5 2s3.8.7 5.8.8c-1.9.5-4 .4-6-.1-1.9-.5-3.8-1.4-5.3-2.7zM20.8 20.7c-1 1.5-1.8 3-2.5 4.7-.7 1.6-1.2 3.3-1.5 5-.4 1.7-.5 3.4-.5 5.2v1.3l.1 1.3.1 1.3c.1.4.1.9.2 1.3-.1-.4-.3-.8-.4-1.3l-.3-1.3-.2-1.3-.1-1.3c-.1-1.8 0-3.6.4-5.4.4-1.8.9-3.5 1.8-5.1.6-1.6 1.6-3.1 2.9-4.4zm9.4 56c2.8 1.8 5.7 3.2 8.8 4.2 3.1 1 6.3 1.5 9.6 1.7-3.3.5-6.7.1-9.8-.9-3.2-1.1-6.2-2.7-8.6-5zM16.3 18.1c-1.7 1.9-3.1 4.1-4.2 6.5-1 2.4-1.7 4.8-2.2 7.4-.4 2.5-.6 5.1-.6 7.7 0 1.3 0 2.6.1 3.9l.3 3.9c-.3-1.3-.5-2.6-.6-3.9-.2-1.3-.3-2.6-.4-3.9-.1-2.6 0-5.3.4-7.9.4-2.6 1.2-5.2 2.4-7.5.6-1.2 1.3-2.3 2.1-3.4.8-1 1.7-2 2.7-2.8zm8.9 65c1.1 1.9 2.8 3.3 4.7 4.1 1.9.9 4 1.4 6.1 2.2 2 .6 4.1 1 6.3 1.3 2.1.3 4.3.4 6.4.6-2.2.1-4.3.2-6.5 0s-4.3-.5-6.4-1.2c-2.1-.7-4.1-1.3-6.1-2.3-1-.5-1.9-1.2-2.7-1.9-.8-.9-1.4-1.8-1.8-2.8zm53.4-20.4c1-1 1.9-2.1 2.6-3.3.8-1.2 1.4-2.4 2-3.7.6-1.3 1.1-2.6 1.6-3.9.5-1.3.9-2.7 1.2-4.1 0 2.9-.8 5.7-2.1 8.3-.6 1.3-1.4 2.6-2.2 3.7-.9 1.2-1.9 2.2-3.1 3zm.1 10.5c2.4-2 4.6-4.1 6.6-6.4 2-2.3 3.7-4.8 5-7.6 1.3-2.7 2.2-5.7 2.6-8.7.4-3 .1-6.1-.7-9.1.6 1.4 1 2.9 1.2 4.5.2 1.5.2 3.1.1 4.7-.2 3.1-1.1 6.2-2.5 9s-3.2 5.4-5.3 7.7c-2.1 2.2-4.4 4.2-7 5.9zM57.3 15.5c1.1-1 2.6-1.5 4.1-1.8 1.5-.2 3-.1 4.4.6-1.5 0-2.9 0-4.3.2-1.5.2-2.8.6-4.2 1zm-6.8-6c.9-1.1 2.1-1.9 3.4-2.4 1.3-.5 2.7-.8 4.1-.8 2.8 0 5.5.7 8.1 1.6-2.7-.3-5.4-.9-8.1-.8-1.3 0-2.7.2-3.9.6-1.3.4-2.5 1-3.6 1.8z"
        />
      </g>
    </svg>