<?xml version="1.0" encoding="utf-8"?>
<svg version="1.1" xmlns="http://www.w3.org/2000/svg" xmlns:xlink="http://www.w3.org/1999/xlink" x="0px" y="0px"
	 viewBox="0 0 100 100" style="enable-background:new 0 0 100 100;" xml:space="preserve">
      <g id="CoutureDe-F_svg__fonce">
        <ellipse
          fill="#332f31"
          className="CoutureDe-F_svg__st0"
          cx="49.7"
          cy="88"
          rx="45.8"
          ry="10.7"
        />
        <path
          fill="#332f31"
          className="CoutureDe-F_svg__st0"
          d="M19.3 10.3L6.7 87.5s38 19.4 85.7 0L80.2 10.3s-23.2 11.4-60.9 0z"
        />
        <path
          fill="#332f31"
          className="CoutureDe-F_svg__st0"
          d="M89.2 66.7c-5 4.5-13.5 7.6-20.3 8.7s-13.8.9-20.7.6c-13.4-.5-27.2-.4-38.4-7.6l9.3-58.1h61l9.1 56.4z"
        />
        <path
          fill="#332f31"
          className="CoutureDe-F_svg__st0"
          d="M19.1 10.3s2.1-8.2 30.4-8.2c0 0 25.5-1 30.7 8.2 0 0-4.1 6.2-30.7 5.1 0 0-27.9.4-30.4-5.1z"
        />
        <path
          fill="#efcfc0"
          className="CoutureDe-F_svg__st1"
          d="M9.7 71.6c4.9 2.4 10 4 15.3 5.1 5.3 1 10.7 1.5 16.1 1.5 2.7.1 5.4.1 8.2.1h8.2c5.4-.1 10.9-.3 16.3-.7-5.3 1.2-10.8 1.8-16.3 2.1-2.7.2-5.5.3-8.2.3-2.7.1-5.5 0-8.2 0-2.7 0-5.5-.2-8.3-.5-2.7-.3-5.5-.8-8.1-1.4-5.4-1.4-10.6-3.5-15-6.5zm13-40.2c-.4-.2-.6-.6-.6-1s.1-.9.3-1.3c.2-.4.6-.7 1-1 .4-.2 1-.3 1.5-.3 1.1.2 1.8.9 2.1 1.7.3.8.2 1.7-.5 2.2-.3-.7-.7-1.1-1-1.4-.4-.3-.7-.4-1-.5-.2 0-.5 0-.9.2-.3.4-.8.6-.9 1.4zm9.7 1.3c-.6-.5-.7-1.3-.4-2.1.3-.7 1.1-1.4 2.1-1.5.5 0 1 .1 1.4.4.4.3.7.6.8 1 .2.4.2.8.1 1.2-.1.4-.3.7-.7.9-.1-.7-.5-.9-.8-1.1-.3-.2-.6-.2-.7-.2-.2 0-.5.1-.8.3-.3.2-.7.5-1 1.1zm8.7.8c-.5-.5-.5-1.4-.1-2 .4-.6 1.2-1.1 2.2-1 .9.1 1.7.7 1.9 1.4.3.7.1 1.6-.5 1.9-.3-.6-.6-.9-.9-1.1-.3-.2-.6-.2-.7-.2-.1 0-.4 0-.8.1-.3.2-.7.3-1.1.9zm9.3.3c-.6-.3-.8-1.1-.5-1.8.2-.7.9-1.3 1.8-1.4.9-.1 1.7.4 2 .9.4.6.4 1.4-.1 1.9-.4-.5-.8-.6-1.1-.7-.3-.1-.5 0-.6 0-.1 0-.3 0-.6.2s-.6.4-.9.9zm9.1.1c-.6-.4-.8-1.3-.5-2.1.2-.7.9-1.4 1.9-1.6 1-.2 1.9.2 2.4.8.5.6.7 1.5.3 2.1-.5-.5-.9-.7-1.3-.8-.4-.1-.7-.1-.9-.1-.2 0-.5.1-.9.4-.4.3-.7.6-1 1.3zm9.5-1.2c-.4-.5-.6-1-.5-1.6.1-.6.4-1.2 1.1-1.6.4-.2.9-.3 1.3-.3.4.1.8.2 1 .4.3.2.5.5.6.9.1.4-.1.8-.4.9-.2-.3-.4-.4-.5-.4h-.4c-.1 0-.2.1-.3.1-.1 0-.1.1-.1.1-.1.1-.3.2-.6.5-.4.2-.7.6-1.2 1zm-43.2 6.8c-.4-.1-.6-.6-.6-1.1 0-.5.2-.9.5-1.3s.7-.7 1.2-.8c.5-.2 1.1-.2 1.7.1.5.2.9.6 1.2.9.3.4.4.8.4 1.3.1.8-.3 1.7-.9 2.1-.3-.7-.6-1.3-.9-1.7-.3-.4-.6-.6-.8-.7-.1 0-.1-.1-.3-.1-.1 0-.3 0-.6.1l-.6.3c-.2.2-.3.5-.3.9zm10.5.7c-.3-.1-.6-.5-.6-.8-.1-.4 0-.8.2-1.1.2-.4.5-.7.8-.9.4-.2.9-.4 1.4-.3.5.1 1 .3 1.3.7.3.3.5.7.5 1.1 0 .4 0 .8-.2 1.1-.2.3-.5.6-.9.6 0-.7-.3-1-.5-1.2-.3-.2-.5-.3-.5-.3s-.2-.1-.6.1c-.3.2-.8.4-.9 1zM47.8 42c-.3-.2-.5-.5-.6-.8-.1-.3-.1-.7-.1-1.1.1-.7.7-1.4 1.5-1.7l.5-.2.5.2c.6.3 1 .8 1.3 1.4.1.3.2.6.2.9 0 .3-.1.6-.3.9-.3-.2-.5-.4-.7-.5-.2-.1-.4-.3-.6-.4-.4-.2-.7-.4-1-.5h1c-.2.1-.5.3-.8.5-.1.1-.3.3-.4.5-.3.2-.4.4-.5.8zm8.1.3c-.3-.2-.5-.5-.6-.8-.1-.4 0-.8.1-1.1.3-.7 1.1-1.4 2.1-1.4s1.8.7 2.1 1.4c.1.4.2.8.1 1.1-.1.4-.3.7-.7.8-.2-.7-.6-.9-.9-1.1-.3-.2-.5-.2-.6-.2-.1 0-.3 0-.7.2-.3.2-.7.4-.9 1.1zm9.8-.3c-.3-.5-.5-1.1-.4-1.7.1-.6.4-1.3 1.2-1.7.1-.1.5-.2.7-.2.3 0 .5 0 .7.1.4.1.8.4 1 .7.2.3.4.7.3 1.1 0 .4-.4.8-.8.7.1-.3-.1-.5-.3-.5-.1-.1-.3-.1-.4-.1h-.3s.1 0 0 0c-.1.1-.4.2-.7.5-.2.3-.5.7-1 1.1zm11.1-1c-.6-.5-.8-1.1-.9-1.9 0-.7.4-1.6 1.2-2.1.2-.1.5-.3.7-.3.3 0 .5-.1.8 0 .5.1.9.3 1.2.6.3.3.5.7.6 1.1 0 .4-.2.9-.6 1 0-.4-.2-.5-.4-.6-.2-.1-.4-.1-.5-.2h-.5c-.2.1-.4.3-.7.7-.4.6-.6 1.1-.9 1.7zm1.9-9.9c-.5-.3-.6-1-.4-1.6.2-.6.8-1.1 1.5-1.2.7-.1 1.4.2 1.8.7.4.5.5 1.2.1 1.6-.5-.3-.8-.3-1.1-.3-.3 0-.4.1-.4.1h-.4c-.4.1-.7.2-1.1.7zM27.9 49.6c-.3-.2-.5-.6-.6-1-.1-.4 0-.8.2-1.2.2-.4.5-.7.9-.9.4-.2.9-.3 1.5-.3.5.1 1 .3 1.3.7.3.3.5.7.6 1.2.1.4 0 .8-.1 1.2-.2.4-.5.7-.9.7 0-.7-.3-1.1-.6-1.4-.3-.3-.5-.4-.7-.4-.1 0-.4 0-.8.2-.2.2-.6.5-.8 1.2zm-10.1-1.4c-.3-.2-.5-.6-.6-1-.1-.4 0-.8.2-1.2.2-.4.5-.7.9-.9.4-.2.9-.3 1.5-.3.5.1 1 .3 1.3.7.3.3.5.7.6 1.2.1.4 0 .8-.1 1.2-.2.4-.5.7-.9.7 0-.7-.3-1.1-.6-1.4-.3-.3-.5-.4-.7-.4-.1 0-.4 0-.8.2-.1.2-.5.5-.8 1.2zm21.5 3.5c-.3-.6-.3-1.3.1-2 .3-.6 1-1.2 1.9-1.3.5-.1 1 .1 1.4.3.4.2.7.5.8.9.2.4.3.8.2 1.2-.1.4-.4.7-.7.8 0-.4-.1-.6-.3-.7-.2-.1-.3-.2-.5-.3-.3-.1-.6-.1-.6-.1-.2 0-.5.1-.9.3-.4.2-.8.5-1.4.9zm12.3 1.1c-.7-.5-.8-1.4-.6-2.2.1-.4.4-.8.8-1.1.4-.3.9-.5 1.4-.6.6 0 1.2.2 1.6.5.4.3.7.7.8 1.2.1.4.1.9 0 1.3-.2.4-.5.8-1 .8.1-.4 0-.7-.1-.9-.1-.2-.3-.4-.4-.5-.2-.1-.3-.2-.5-.3h-.3c-.2 0-.5.1-.9.4-.3.3-.6.7-.8 1.4zm8.7.1c-.3-.6-.4-1.3-.3-2 .2-.7.6-1.4 1.4-1.8.2-.1.5-.2.7-.2h.7c.5.1.9.3 1.2.6.3.3.6.7.6 1.1.1.4-.1.9-.5 1-.1-.4-.3-.5-.5-.6-.2-.1-.4-.1-.6-.2h-.5c-.1 0-.2 0-.3.1-.3.1-.6.3-.9.7-.1.4-.5.8-1 1.3zm11.2-2.1c-.5-.4-.6-1.2-.3-1.9.3-.6 1-1.2 1.8-1.3.9-.1 1.6.3 2 .9.4.6.5 1.4.1 1.9-.5-.5-.9-.6-1.2-.7-.3-.1-.6-.1-.7 0-.1 0-.4 0-.7.2-.2.2-.6.4-1 .9zm8.4-2.3c-.6-.4-.6-1.2-.4-1.8.3-.6.9-1.2 1.8-1.3.9-.1 1.6.3 2.1.8.4.5.6 1.4.1 1.9-.5-.5-.9-.6-1.2-.6-.3-.1-.6 0-.7 0-.1 0-.4 0-.7.2-.2 0-.6.2-1 .8zM19.4 59.1c-.3-.7-.2-1.6.3-2.2.5-.7 1.4-1.2 2.4-1.1.5 0 1.1.3 1.4.6.4.3.6.7.8 1.1.1.4.2.9 0 1.3-.1.4-.5.8-.9.9 0-.4-.1-.7-.2-.9-.1-.2-.3-.4-.5-.5-.3-.3-.7-.4-.9-.4-.3 0-.7 0-1.1.2-.2.2-.7.5-1.3 1zm15.5 11.6c-.3-.7-.2-1.6.3-2.2.5-.7 1.4-1.2 2.4-1.1.5 0 1.1.3 1.4.6.4.3.6.7.8 1.1.1.4.2.9 0 1.3-.1.4-.5.8-.9.9 0-.4-.1-.7-.2-.9-.1-.2-.3-.4-.5-.5-.3-.3-.7-.4-.9-.4-.3 0-.7 0-1.1.2-.3.2-.8.5-1.3 1zm-4.1-10.1c-.2-.7-.3-1.4-.1-2.1.2-.7.8-1.5 1.7-1.8.4-.2.9-.2 1.5-.1.5.1 1.1.4 1.3.9.3.4.3.9.2 1.3-.1.4-.5.8-.9.8.1-.4 0-.6-.2-.8-.1-.2-.3-.3-.5-.3h-.3c-.1 0-.2 0-.4.1-.3.1-.6.3-1 .6-.3.5-.7 1-1.3 1.4zm13.3 1.3c-.4-.6-.5-1.4-.2-2.1.2-.7.9-1.4 1.8-1.6 1-.3 2 .1 2.5.8.3.3.5.7.5 1.1 0 .4-.1.8-.5 1-.1-.3-.3-.5-.5-.7-.2-.1-.4-.2-.6-.2-.4-.1-.7-.1-.8 0-.3.1-.6.2-.9.5-.5.2-.9.6-1.3 1.2zm11.9.7c-.4-.6-.3-1.4.1-2 .4-.6 1.2-1.1 2.1-1.1.9 0 1.7.5 2.1 1.1.4.6.6 1.5.1 2-.5-.5-.9-.7-1.3-.9-.4-.1-.7-.2-.9-.2-.2 0-.6 0-.9.2-.4.2-.8.4-1.3.9zm9.9 0c-.6-.5-.7-1.3-.4-2.1.3-.7 1-1.3 1.9-1.5.9-.2 1.8.2 2.3.8.5.6.8 1.4.4 2-.5-.5-1-.6-1.4-.7-.4-.1-.7-.1-1 0-.2 0-.5.1-.9.4-.2.2-.6.5-.9 1.1zm8.6 7.2c-.6-.5-.7-1.3-.4-2.1.3-.7 1-1.3 1.9-1.5.9-.2 1.8.2 2.3.8.5.6.8 1.4.4 2-.5-.5-1-.6-1.4-.7-.4-.1-.7-.1-1 0-.2 0-.5.1-.9.4-.2.2-.5.5-.9 1.1zm4-8.9c-.7-.5-.9-1.5-.5-2.3.3-.8 1.1-1.6 2.2-1.8 1.1-.2 2.1.3 2.6 1 .6.7.8 1.7.3 2.4-.4-.7-.9-.9-1.4-1.1-.5-.2-.9-.2-1.2-.2-.3 0-.7.2-1 .5-.4.3-.8.8-1 1.5zm-57.5 9c-.5-.6-.4-1.5.1-2.1.5-.6 1.4-1.1 2.4-.8 1 .2 1.6 1 1.8 1.8.2.8-.1 1.7-.8 2-.1-.7-.4-1-.7-1.3-.3-.3-.6-.4-.7-.4-.2 0-.5-.1-.8.1-.4-.1-.9.1-1.3.7zm27.6 1.2c-.2-.7-.1-1.4.2-2.1.3-.6 1-1.3 1.9-1.5.5-.1 1-.1 1.5.1.4.2.8.4 1.1.8.3.3.4.8.4 1.2 0 .4-.2.9-.6 1-.1-.4-.2-.6-.4-.7l-.6-.3c-.4-.1-.7-.1-.9-.1-.3.1-.7.2-1.1.5-.5.4-.9.7-1.5 1.1zm13.7.4s-.1.1-.2.1-.2-.1-.2-.1c-.1-.1-.2-.2-.2-.3 0-.1-.1-.3 0-.4v-.3c.1-.4.2-.7.4-1.1.4-.7 1-1.4 2-1.7.2-.1.5-.1.8-.1.3 0 .6 0 .9.1.6.2 1 .5 1.3.9.3.4.5.9.4 1.4 0 .5-.4 1-.8 1 .1-.4 0-.7-.2-.9-.2-.2-.4-.3-.6-.4-.2-.1-.4-.2-.6-.1h-.2c-.1 0-.2 0-.3.1-.4.1-.9.4-1.4.8l-.7.5c-.2.1-.2.1-.3.2 0 .1-.1.1-.1.2-.1 0-.1.1 0 .1zM32.6 14.1c-.2-.7-.2-1.3.1-1.9.1-.2.2-.3.3-.5.1-.2.3-.3.5-.4.4-.2.8-.4 1.3-.4s1 .1 1.4.5c.4.3.6.8.7 1.1.1.3.1.6 0 .9 0 .3-.1.5 0 .8-.4 0-.7-.2-1-.4-.3-.2-.4-.5-.6-.6-.2-.2-.3-.2-.3-.2h-.4c-.1 0-.3.1-.5.2-.4.1-.8.5-1.5.9zm10 0c-.3-.6-.4-1.2 0-1.8.2-.3.5-.6.9-.8.4-.2.9-.2 1.5 0 .5.2.8.6 1 .9.2.3.2.6.2.9v.7c0 .2-.1.5 0 .8-.3.1-.7-.1-1-.3-.3-.2-.5-.4-.6-.6l-.4-.4c-.1-.1-.1 0-.1 0s.1 0 0 0h-.3c-.2-.1-.6.2-1.2.6zm10.4.2c-.4-.5-.2-1.3.2-1.9.5-.5 1.2-.9 2.1-.7.8.1 1.5.7 1.7 1.4.3.6.1 1.4-.4 1.8-.3-.6-.7-.8-1-.9-.3-.2-.5-.2-.7-.2-.1 0-.4-.1-.7 0-.2 0-.7 0-1.2.5zm9.9 0c-.3-.2-.4-.6-.4-1s.2-.8.5-1c.5-.6 1.4-.9 2.3-.7.8.2 1.5.8 1.8 1.4.3.6.3 1.3 0 2-.5-.4-1-.8-1.3-1-.4-.2-.7-.3-.9-.4-.2 0-.4-.1-.8 0-.4 0-.8.1-1.2.7zM47.3 9.8c-.2-.2-.3-.5-.4-.8-.1-.3-.1-.6.1-1s.5-.7 1.1-.8c.3-.1.6-.1.9 0 .3.1.5.3.7.4.5.5.7 1 .8 1.6.1.6 0 1.2-.5 1.7l-1.8-1.8h.3c0-.1-.1-.1-.2-.1s-.3.1-.4.2c-.2.2-.3.4-.6.6zm8.6 0c-.5-.5-.6-1.3-.3-1.9.3-.7 1-1.3 1.9-1.3.5 0 1 .1 1.3.4.4.2.6.6.8.9.2.4.2.8.1 1.1-.1.4-.3.7-.7.8-.1-.3-.2-.5-.3-.7-.2-.1-.3-.2-.5-.3-.3-.2-.5-.1-.6-.1-.1 0-.4 0-.7.2-.2.1-.6.4-1 .9zm-17-.6c-.3 0-.6-.3-.6-.7-.1-.3 0-.7.3-1 .2-.3.7-.5 1.1-.6.4 0 .8 0 1.1.2.6.3 1 .9 1.1 1.5 0 .6-.1 1-.5 1.4-.5-.4-.8-.7-1-.8-.4-.2-.6-.2-.7-.2 0 0-.1 0-.1-.1v-.2c-.1 0-.2-.1-.3 0-.2.1-.3.2-.4.5zM8.3 85.3c2.5 2.6 6 3.9 9.4 4.7 1.7.4 3.5.7 5.3 1 1.8.3 3.5.5 5.3.7 7.1.8 14.2 1.3 21.3 1.3 7.1.1 14.3-.4 21.3-1.3 3.5-.4 7.1-.9 10.5-1.8 3.4-.9 6.8-2.3 9.6-4.5-2.7 2.4-6 4-9.5 5.1-3.5 1-7 1.7-10.6 2.2-7.1 1-14.3 1.5-21.5 1.6-7.2 0-14.4-.5-21.5-1.6-1.8-.3-3.5-.6-5.3-.9-1.8-.3-3.5-.7-5.3-1.1-3.1-1.1-6.6-2.6-9-5.4zm11.8-73c3.2 2.9 7.2 4.9 11.4 6 4.2 1.1 8.5 1.7 12.9 2 4.3.3 8.7.5 13.1.7 4.4.1 8.7 0 13.1-.6-2.1.5-4.3.7-6.5.9-2.2.2-4.4.2-6.6.2-2.2 0-4.4-.1-6.6-.2l-6.6-.3c-4.4-.3-8.8-.9-13-2.2-2.1-.6-4.1-1.5-6.1-2.6-1.8-1-3.6-2.3-5.1-3.9z"
        />
      </g>
    </svg>