<?xml version="1.0" encoding="utf-8"?>
<svg version="1.1" xmlns="http://www.w3.org/2000/svg" xmlns:xlink="http://www.w3.org/1999/xlink" x="0px" y="0px"
	 viewBox="0 0 100 100" style="enable-background:new 0 0 100 100;" xml:space="preserve">
      <g id="CoutureMetre-C_svg__clair">
        <path fill="#fcfcf8" d="M.8 25.5h90.4v45.7l-69.6-8.5-17-14.3z" />
        <ellipse
          fill="#f3dacc"
          className="CoutureMetre-C_svg__st1"
          cx="46"
          cy="26.2"
          rx="45.2"
          ry="17.8"
        />
        <path
          fill="#f3dacc"
          className="CoutureMetre-C_svg__st1"
          d="M99.6 58.7c-.1-.4-.1-.8-.2-1.2-3.5-1.4-7.7-2.4-12.6-2.8C12.5 48.4 2 33.6.9 27.9v26.2s1.5 13.5 18.6 20.7c0 0 12.2 4.4 16.4 4.4 0 0 35 5.4 37.1 5.4 1.9 0 20.8 3.9 26.3 6.7-1-10.8-2.4-22.3.3-32.6z"
        />
        <ellipse
          fill="#2d5f84"
          className="CoutureMetre-C_svg__st2"
          cx="45.6"
          cy="25.1"
          rx="19"
          ry="7.5"
        />
        <path
          fill="#2d5f84"
          className="CoutureMetre-C_svg__st2"
          d="M12.8 41.1c.2 2.3.3 4.6.4 6.9 0 1.2.1 2.3.1 3.5v7c0 1.2 0 2.3-.1 3.5-.1 2.3-.2 4.6-.4 6.9-.2-2.3-.3-4.6-.4-6.9-.1-1.2-.1-2.3-.1-3.5v-7c0-1.2 0-2.3.1-3.5.1-2.2.2-4.6.4-6.9zm12.7 4.3c.2 2.4.3 4.8.4 7.3 0 1.2.1 2.4.1 3.6v7.2c0 1.2 0 2.4-.1 3.6-.1 2.4-.2 4.8-.4 7.3-.2-2.4-.3-4.8-.4-7.3-.1-1.1-.1-2.3-.2-3.6v-7.2c0-1.2 0-2.4.1-3.6.1-2.5.2-4.9.5-7.3zm12 1.8c.2 2.6.3 5.1.4 7.7 0 1.3.1 2.6.1 3.8v7.6c0 1.3 0 2.6-.1 3.8-.1 2.6-.2 5.1-.4 7.7-.2-2.6-.3-5.1-.4-7.7-.1-1.2-.1-2.4-.1-3.7v-7.6c0-1.3 0-2.6.1-3.8 0-2.7.1-5.3.4-7.8zm13.6 1.7c.2 2.6.3 5.3.4 7.9 0 1.3.1 2.6.1 4v8c0 1.3 0 2.6-.1 4-.1 2.6-.2 5.3-.4 7.9-.2-2.6-.3-5.3-.4-7.9-.1-1.3-.1-2.6-.1-4v-8c0-1.3 0-2.6.1-4 0-2.6.1-5.2.4-7.9zm14.8 5.5c.2 2.3.3 4.6.4 6.8 0 1.1.1 2.3.1 3.4v6.8c0 1.1 0 2.3-.1 3.4-.1 2.3-.2 4.6-.4 6.8-.2-2.3-.3-4.6-.4-6.8-.1-1.1-.1-2.3-.1-3.4v-6.8c0-1.1 0-2.3.1-3.4.1-2.2.2-4.5.4-6.8zm14.5 1.3c.2 2.3.3 4.6.4 6.9 0 1.2.1 2.3.1 3.5v7c0 1.2 0 2.3-.1 3.5-.1 2.3-.2 4.6-.4 6.9-.2-2.3-.3-4.6-.4-6.9 0-1.2 0-2.4-.1-3.6v-7c0-1.2 0-2.3.1-3.5.1-2.2.2-4.5.4-6.8zm15.5 3.8c.2 2.5.3 4.9.4 7.4 0 1.2.1 2.5.1 3.7V78c0 1.2 0 2.5-.1 3.7-.1 2.5-.2 4.9-.4 7.4-.2-2.5-.3-4.9-.4-7.4-.1-1.2-.1-2.5-.1-3.7v-7.4c0-1.2 0-2.5.1-3.7.1-2.5.2-4.9.4-7.4zM85.6 37.2c-.1.4-.2.7-.2 1.1 0 .3 0 .7.1 1v.1c.2 2.4.3 4.7.3 7.1 0 1.2-.1 2.4-.1 3.5-.1 1.2-.2 2.4-.4 3.5-.2-1.2-.3-2.4-.4-3.5-.1-1.2-.1-2.4-.1-3.5 0-2.4 0-4.7.3-7.1v.1c0-.4 0-.9.1-1.2.1-.5.2-.8.4-1.1zm-10.8 5.7c.2.8.3 1.6.4 2.5.1.8.1 1.6.1 2.5 0 .8 0 1.6-.1 2.5-.1.8-.2 1.6-.4 2.5-.2-.8-.3-1.6-.4-2.5-.1-.8-.1-1.6-.1-2.5 0-.8 0-1.6.1-2.5 0-.9.1-1.7.4-2.5zm-14.6 1.7c.2.5.3.9.4 1.4.1.5.1.9.1 1.4 0 .5 0 .9-.1 1.4-.1.5-.2.9-.4 1.4-.2-.5-.3-.9-.4-1.4-.1-.5-.1-.9-.1-1.4 0-.5 0-.9.1-1.4.1-.5.2-1 .4-1.4zm-12.3.8c.2.2.3.5.4.7.1.2.1.5.1.7 0 .2 0 .5-.1.7-.1.2-.2.5-.4.7-.2-.2-.3-.5-.4-.7-.1-.2-.1-.5-.1-.7 0-.2 0-.5.1-.7.1-.2.2-.5.4-.7zM10.3 23.1c-.5.5-.7 1.3-.8 2.1v1.1c0 .2.1.4.1.6 0 .2.1.4.1.5.4 1.4 1.4 2.4 2.4 3.1 1 .7 2.1 1.3 3.3 1.8 1.1.5 2.3 1 3.4 1.5s2.3 1 3.4 1.4c1.1.5 2.3.9 3.5 1.2 2.3.7 4.7 1.2 7.1 1.5-2.4.4-4.9.2-7.3-.3-2.4-.5-4.8-1.4-7.1-2.4-1.1-.5-2.3-1-3.4-1.6-1.1-.6-2.3-1.2-3.4-2.1-.5-.5-1-1-1.5-1.6-.4-.6-.8-1.4-1-2.2 0-.2-.1-.4-.1-.6 0-.2-.1-.4-.1-.6 0-.4 0-.9.1-1.3s.2-.8.4-1.2c.4-.4.6-.7.9-.9zm40.2 14.7c3.2-.5 6.3-1.1 9.5-1.9 3.1-.7 6.3-1.5 9.4-2.5 1.5-.5 3.1-.9 4.5-1.7.7-.4 1.4-.8 2-1.4.6-.6 1.1-1.3 1.6-2.1.4-.8.7-1.8.8-2.8v-1.5c-.1-.5-.2-.9-.4-1.4-.7-1.7-2.3-2.9-3.9-2.6.8-.3 1.6-.2 2.4.2.8.4 1.5 1.1 2 2.1.2.5.4 1 .5 1.6.1.6.1 1.2.1 1.8 0 1.2-.4 2.3-.8 3.3s-1 1.9-1.7 2.5c-.7.7-1.4 1.2-2.2 1.6-1.5.8-3.1 1.3-4.7 1.8s-3.1.9-4.7 1.3-3.2.7-4.8.9c-3.2.6-6.4.9-9.6.8zM19.7 22.9c.2-1.1.6-2.2 1.2-3.1.6-.9 1.3-1.6 2.1-2.2.8-.6 1.6-1.1 2.4-1.5.8-.4 1.6-.8 2.4-1.1.8-.3 1.7-.6 2.5-.9.8-.2 1.7-.5 2.5-.6 1.7-.4 3.4-.5 5.1-.5-1.7.5-3.3 1-4.9 1.6-.8.3-1.6.5-2.4.9l-2.4.9c-.8.3-1.6.7-2.4 1-.8.3-1.6.7-2.3 1.2-1.6.9-3 2.2-3.8 4.3zM30 31.5c-.6-.4-1.3-.6-2-.9-.7-.2-1.4-.6-2-1.1-.6-.6-1.1-1.3-1.4-2.3-.3-1-.3-2.1-.1-3.1.2-1 .7-1.9 1.2-2.6.6-.7 1.1-1.2 1.7-1.7.6-.5 1.2-.9 1.9-1.3.3-.2.7-.3 1-.4l1-.3c1.3-.4 2.7-.9 4.1-1.2 1.4-.3 2.7-.6 4.1-.8 2.8-.3 5.6-.2 8.3.4-2.8 0-5.5.2-8.2.7-1.3.3-2.7.6-4 1-1.3.4-2.7.8-4 1.3l-1 .3c-.3.1-.6.2-.9.4-.6.3-1.2.7-1.8 1.1-.6.4-1.2.9-1.6 1.5-.5.6-.8 1.2-1.1 2-.2.8-.2 1.6 0 2.4.2.8.6 1.5 1.1 2 .5.6 1.1 1 1.7 1.3.3.2.6.3 1 .5.4.3.7.5 1 .8z"
        />
      </g>
    </svg>