<?xml version="1.0" encoding="utf-8"?>
<svg version="1.1" xmlns="http://www.w3.org/2000/svg" xmlns:xlink="http://www.w3.org/1999/xlink" x="0px" y="0px"
	 viewBox="0 0 100 100" style="enable-background:new 0 0 100 100;" xml:space="preserve">
      <g id="CouteauSuisseS1-F_svg__fonce">
        <path
          fill="#2f7e9d"
          className="CouteauSuisseS1-F_svg__st0"
          d="M25.2 30.7c-5.6 5.5-10 12.3-15.6 17.8-2.3 2.3-4.8 4.6-6.5 7.4-2 3.6-2.8 7.6-3.1 11.7 7.1-.6 13.9-3.9 18.7-9 1.8-1.8 3.3-3.9 4.8-6 3.1-4.2 6.1-8.4 9.2-12.6 1.4-1.9 2.8-3.9 3.2-6.2 1.1-7.3-7.1-6.6-10.7-3.1zm-8.5 18.5c-.4.7-1 1.3-1.7 1.8-1.8 1.7-3.9 3.5-6.1 4.7-.6-2.4 7.4-9.2 9.1-11.1-.2 1.6-.5 3.3-1.3 4.6z"
        />
        <path
          fill="#9b2d3a"
          className="CouteauSuisseS1-F_svg__st1"
          d="M8.9 55.7c2.2-1.1 4.3-3 6.1-4.7.6-.6 1.2-1.1 1.7-1.8.9-1.3 1.1-3 1.3-4.6-1.8 2-9.8 8.7-9.1 11.1zM99.1 36.4c-1.9-4.1-4-8.6-8.1-10.7-2.2-1.2-4.7-1.5-7.2-1.8-13.5-1.7-27-3.2-40.6-4.7-4.2-.5-9-.3-12.9 1.6-1.5.8-5.9 4.3-5.5 6.3.1.6.6 1.1 1.3 1.3h.4c1.1-.1 1.8-1.2 2.7-1.8 1.7-1.3 4.4-.6 6 .5 1.7 1.2 3.6 2.7 3.4 4.8-.2 2.8-3.6 4-3.7 6.9 2.5 1.4 6.2-.9 8.6-1.7 5.9-1.8 12.2-1.2 18.4-.5 5.9.6 12 1.3 17.2 4.2 2.7 1.5 5.1 3.6 7.8 5.3.8.5 1.7 1 2.6 1 .8 0 1.5-.5 2.1-.9 1.9-1.1 3.8-2.3 5.7-3.4.9-.5 1.8-1.1 2.2-2 .9-1.3.2-3-.4-4.4zM38.3 25.3c-1.3.4-2.6-.7-2.8-1.9V23.6v-.3-.7V23.4c.2-1.1.6-2.2 1.6-2.3.9-.1 1.7.8 1.8 1.7s-.2 1.7-.6 2.5zm27.1 5.9c-.7 0-1.3-.1-2-.2-.1.6-.2 1.3-.2 2-.5-.1-1.1-.1-1.6-.2h-.1v-.1c.1-.7.3-1.3-.4-1.7-.3-.2-.9 0-1.1-.3-.1-.2 0-1.5.1-1.5.5.1 1.1.1 1.6.2.1-.2.3-2.2.1-2.2.5 0 1.8-.1 2.1.3.3.4 0 1.6-.1 2 .6.1 1.2.1 1.9.2-.1.4-.2.9-.3 1.5zm26.9 8.2c-.2.4-.4.7-.8.9-1 .6-2.4-.1-2.7-1.2-.3-1.1.4-2.3 1.4-2.9l-.1.1c.5-.3 1.3-.4 1.7.1 1 .6 1 2 .5 3z"
        />
        <path
          fill="#2f7e9d"
          className="CouteauSuisseS1-F_svg__st0"
          d="M77.3 49.3c-1.4-.2-2.8 0-4.2.5.7 1.4 1.4 2.9 2 4.3-1.4.1-2.7.2-4.1.3.8.7 1.4 1.5 1.9 2.3-1 .1-2.1.2-3.1.2.9 1 1.8 1.9 2.6 2.9-1.3.1-2.6.5-3.8 1 .6.9 1.1 1.8 1.5 2.8-1.1 0-2.3.4-3.2 1.1.4.8 1 1.4 1.8 1.8-1.1.6-2.1 1.4-2.9 2.3 1.6 1.4 1.8 3.8 1.6 6-.2 2.1-.7 4.3-.2 6.4 1.3-1.2 2.2-2.7 3.1-4.2 5.6-9.3 11.3-18.6 16.2-28.3-1.1 2.2-14.6-11.7-9.2.6zM35.4 23.3v-.7.7zM35.4 23.6v-.2-.1.3zM35.4 23.6v.6-.6zM37.1 21c-1 .1-1.5 1.2-1.6 2.3.2 1.3 1.6 2.3 2.8 1.9.4-.8.8-1.7.6-2.6s-.9-1.7-1.8-1.6zM90.2 36.2l.1-.1c-1 .6-1.7 1.8-1.4 2.9.3 1.1 1.7 1.9 2.7 1.2.3-.2.6-.6.8-.9.5-1 .5-2.4-.3-3.1-.6-.3-1.4-.3-1.9 0z"
        />
        <path
          d="M63.9 27.4c-.3-.4-1.6-.3-2.1-.3.2 0-.1 2.1-.1 2.2-.5-.1-1.1-.1-1.6-.2-.1 0-.2 1.4-.1 1.5.2.3.8.1 1.1.3.7.4.5.9.4 1.7v.1h.1c.5.1 1.1.1 1.6.2 0-.7.1-1.3.2-2 .6.1 1.3.2 2 .2.1-.5.2-1.1.2-1.6-.6-.1-1.2-.1-1.9-.2.1-.4.4-1.6.2-1.9z"
          fill="#fff"
        />
        <path
          fill="#2f7e9d"
          className="CouteauSuisseS1-F_svg__st0"
          d="M40.3 42.3c-.1-.2-.1-.4-.3-.4-.4-.3-1.2.1-1.7.2-.2 0-1.7 0-1.8-.2.1.7.2 1.4.2 2.2.2 1.4.4 2.8.5 4.2.2 2.4.2 4.8.4 7.2.6 8.2 1.5 9.1 1.7 10.9 1.2-2.1 1.4-3.1 1.4-4.9 1.6-6.3 1.5-12.8-.4-19.2z"
        />
      </g>
    </svg>