<?xml version="1.0" encoding="utf-8"?>
<svg version="1.1" xmlns="http://www.w3.org/2000/svg" xmlns:xlink="http://www.w3.org/1999/xlink" x="0px" y="0px"
	 viewBox="0 0 100 100" style="enable-background:new 0 0 100 100;" xml:space="preserve">
	 <path
        d="M18.5 14.9l1.5 1.4c0 .1-.1.3-.1.4 3.1 2.7 6.2 5.5 9.4 8.2 23.2 20.4 45.2 39.6 67.5 57.5l.5-.5-5.3-5C70.4 56.9 43.5 32 24.9 12c-.3-.3-.6-.7-1-1.1-.1.1-.2.1-.3.2-.1.1-.2.1-.3.2-.5.4-.9.8-1.4 1.3-.1.1-.2.2-.2.3 2.1 2.1 4.3 4.1 6.4 6.2.3.3.7.7.6 1.2-2.5-1.9-4.9-4-7.2-6l-.4-.4-1.3-1.2-.3-.3c-.8-.7-1.6-1.4-2.3-2.2-.5-.5-1.1-1.1-1.3-1.8l.3-.1c0-.2.2-.3.4-.3s.3.2.4.3c1.2 1.2 2.4 2.3 3.6 3.5.1-.1.2-.2.2-.3.5-.5 1-.9 1.5-1.3.1-.1.2-.1.3-.2.1-.1.2-.1.3-.2-2.2-2.3-5.3-5.4-7.3-7-.4-.4-.8-.7-1.1-1-1.2-1.2-2.1-2-4.3-1.5-.5.1-.9.6-1.2 1-.3.2-.5.4-.6.5-1.3 1.1-.5 2.6 0 3.7.7 1.5 2.6 3.2 3.1 3.7l6.9 6c0-.1.1-.2.1-.3z"
        fill="#f9f5f4"
      />
      <path
        d="M20 16.6c0-.1.1-.3.1-.4l-1.5-1.4c0 .1-.1.2-.1.3-.3.8-.5 1.7-.7 2.5-.3 1.9-.2 3.7.1 5.5.3 1.8.7 3.6 1.3 5.2.5 1.7 1.1 3.4 1.7 5 2.4 6.7 5.4 13.1 8.8 19.3 1.7 3.1 3.6 6.1 5.5 9.1 1.9 2.9 3.8 5.8 5.2 8.9 1.5 3 2.4 6.2 2.4 9.3 0 1.6-.3 3.1-.8 4.6-.2.8-.6 1.5-.9 2.2-.4.7-.8 1.4-1.3 2-.4.7-1 1.2-1.5 1.9-.6.6-1.2 1.1-1.8 1.6-1.3 1-2.7 1.9-4.2 2.5-1.5.7-3.1 1.2-4.7 1.4-1.6.2-3.3.3-4.9 0-1.6-.2-3.3-.6-4.9-1.3-1.6-.6-3.1-1.4-4.5-2.4s-2.7-2.1-3.9-3.3c-1.1-1.2-2.2-2.6-3.1-4-1.7-2.9-2.9-6.2-2.7-9.6.1-1.7.6-3.3 1.7-4.7 1-1.4 2.5-2.5 4.2-2.9-1.8.2-3.5 1.2-4.7 2.6-1.2 1.4-2 3.1-2.2 4.9-.3 1.8-.1 3.6.3 5.4.2.9.5 1.7.8 2.6.3.9.7 1.7 1.1 2.5.8 1.6 1.9 3.1 3.1 4.5 1.2 1.4 2.5 2.7 4 3.8 3 2.2 6.5 3.9 10.3 4.5 3.8.7 7.8.2 11.4-1.3 1.8-.7 3.5-1.7 5-2.9a19.996 19.996 0 004.1-4.1c.6-.7 1.1-1.6 1.6-2.4.4-.9.9-1.7 1.2-2.6.6-1.8 1-3.8 1-5.7 0-3.8-1.1-7.5-2.7-10.8-1.6-3.3-3.6-6.3-5.5-9.2-2-2.9-3.8-5.8-5.5-8.8-3.5-6-6.5-12.3-9.2-18.7-1.3-3.2-2.6-6.5-3.3-9.7-.3-1.6-.5-3.3-.4-4.9-.1-.1 0-.5.1-1zm2.3-6.3c-.5.4-1 .8-1.5 1.3-.1.1-.2.2-.2.3-.1.1-.2.2-.2.3-.1.1-.2.3-.3.4l-.1.1c0 .1-.1.1-.1.2l1.3 1.2c.1-.1.1-.2.2-.3 0 0 0-.1.1-.1.1-.1.1-.2.2-.3.1-.1.1-.2.2-.3.1-.1.1-.2.2-.3.4-.5.9-.9 1.4-1.3.1-.1.2-.1.3-.2.1-.1.2-.1.3-.2.3-.3.7-.5 1.1-.7 1.5-.8 3.1-1.4 4.8-1.7 3.4-.6 7.1-.3 10.6.3-3.6-1.1-7.2-1.8-10.9-1.4-1.9.1-3.7.6-5.4 1.4-.5.2-1 .5-1.5.8-.1.1-.2.1-.3.2 0 .1-.1.2-.2.3z"
        fill="#efcfc0"
      />
    </svg>