<?xml version="1.0" encoding="utf-8"?>
<svg version="1.1" xmlns="http://www.w3.org/2000/svg" xmlns:xlink="http://www.w3.org/1999/xlink" x="0px" y="0px"
	 viewBox="0 0 23 23" style="enable-background:new 0 0 100 100;" xml:space="preserve">
	 <path
      d="M7.164 14.662C5.46 16.19 3.031 16.87.781 16.451c-.238-.044-.527-.083-.681.103-.078.094-.097.223-.103.345-.059 1.186.788 2.232 1.738 2.943.63.471 1.334.857 2.096 1.049.43.108.874.154 1.318.179 3.813.216 7.691-1.139 10.539-3.684.135-.552-.076-1.159-.338-1.663s-.648-.933-1.047-1.338c-.484-.489-1.002-.956-1.607-1.282-.606-.326-1.311-.504-1.989-.384-1.286.226-2.18 1.427-3.405 1.879-.104.038-.188.163-.138.064z"
      fill="#b96d51"
    />
    <path
      d="M15.94 8.68c2.045-1.028 3.566-3.04 3.998-5.288.046-.237.115-.521.345-.596.116-.038.243-.008.359.031 1.125.378 1.789 1.549 2.104 2.693.208.758.31 1.554.21 2.335a6.96 6.96 0 0 1-.315 1.292c-1.192 3.628-3.872 6.743-7.281 8.464-.563-.076-1.051-.494-1.425-.922-.374-.428-.632-.944-.862-1.464-.278-.629-.524-1.282-.606-1.965-.082-.683.01-1.405.369-1.992.681-1.114 2.125-1.507 2.993-2.483.074-.083.221-.115.111-.105z"
      fill="#b96d51"
    />
    <ellipse
      transform="rotate(-34.283 14.754 16.637)"
      cx="14.755"
      cy="16.639"
      rx="4.977"
      ry="1.433"
      fill="#b96d51"
    />
    <path
      d="M16.431 9.015c-1.082-.981-2.202-1.92-3.32-2.859l-1.934-1.623c-.336-.282-.686-.571-1.109-.685a1.526 1.526 0 0 0-1.17.166c-.497.3-.773.851-1.062 1.354s-.664 1.024-1.226 1.17c-.484.127-1.012-.054-1.493.085-.579.167-.943.774-1.006 1.373s.119 1.194.315 1.764a30.97 30.97 0 0 0 2.49 5.459c.187.323.423.616.78.726.357.109.739.106 1.111.07 1.568-.149 3.054-.851 4.28-1.84s2.207-2.254 3.017-3.606c.141-.235.279-.478.336-.745.056-.267.194-.625-.009-.809z"
      fill="#b96d51"
    />
    <g fill="#f3c86d">
      <path d="M12.037 11.572c.008.444-.013.795-.061 1.236-.003.029-.005.09-.032.078a12.687 12.687 0 0 1-1.172-.601c-.393.238-.789.514-1.17.771-.022-.422-.019-.789-.041-1.211.011-.011-.006-.029-.02-.035-.405-.182-.897-.306-1.271-.546.165-.124.334-.245.513-.349.237-.138.514-.224.717-.409a62.073 62.073 0 0 0-.054-1.363c0-.01-.02-.015-.018-.024.009-.059.048-.1.108-.1s.115.03.168.058c.356.193.722.37 1.095.529a20.6 20.6 0 0 0 1.068-.686c.034-.023.082-.039.118-.061-.003.464.005.928.024 1.392.36.191.705.37 1.066.562-.003.001-.675.534-1.038.759z" />
      <circle cx="9.42" cy="8.943" r="0.251" />
      <circle cx="9.535" cy="13.178" r="0.251" />
      <circle cx="12.059" cy="8.759" r="0.251" />
      <circle cx="13.185" cy="10.795" r="0.251" />
      <circle cx="12.01" cy="12.949" r="0.251" />
      <circle cx="8.13" cy="11.274" r="0.251" />
    </g>
    <path
      d="M16.103 8.618c.304.416.343.989.204 1.511-.139.522-.44 1.002-.774 1.445-1.391 1.846-3.434 3.2-5.622 3.953-.563.194-1.151.352-1.729.315s-1.149-.296-1.414-.781c-.03-.054-.185-.049-.248-.027-.055.417-.105.865.1 1.214.144.245.396.407.653.538.293.149.608.271.946.296.301.023.609-.032.909-.105 1.073-.262 2.085-.765 3.068-1.295 1.819-.982 3.665-2.158 4.694-3.918.149-.256.28-.523.362-.802.072-.243.105-.492.125-.74.038-.496.011-1.017-.257-1.416s-.842-.625-1.307-.388c.064.113.214.097.29.2z"
      fill="#6a1d19"
    />
  </svg>