<?xml version="1.0" encoding="utf-8"?>
<svg version="1.1" xmlns="http://www.w3.org/2000/svg" xmlns:xlink="http://www.w3.org/1999/xlink" x="0px" y="0px"
	 viewBox="0 0 100 100" style="enable-background:new 0 0 100 100;" xml:space="preserve">
      <g id="CroixS1-F_svg__fonce">
        <path
          fill="#2f7e9d"
          className="CroixS1-F_svg__st0"
          d="M45.3 44.4c.4 7.4 1.2 14.8 1.2 22.1v23.7c3.1 0 6.2.6 9.3.5 0-2.5 0-5 .1-7.4.3-25.7 1-51.8 0-77.4 0-.5 0-.9-.2-1.4-.3-.6-1-.9-1.6-1.2-13.2-4.4-8.9 19.9-8.9 27.3-.3 4.6-.2 9.2.1 13.8z"
        />
        <path
          fill="#2f7e9d"
          className="CroixS1-F_svg__st0"
          d="M52.8 41.5c-7.2.4-14.5 1.3-21.7 1.3H7.8c0 3.2-.6 6.3-.5 9.5 2.4 0 4.9 0 7.3.1 25.2.4 50.7 1 75.9 0 .5 0 .9 0 1.3-.3.6-.3.9-1 1.1-1.7 4.4-13.5-19.5-9-26.8-9-4.3-.3-8.8-.2-13.3.1z"
        />
        <path
          fill="#2f7e9d"
          className="CroixS1-F_svg__st0"
          d="M12.5 43.7V67c-1.8.1-3.5.6-5.3.7-.9 0-2 0-2.6-.6-.6-.6-.6-1.4-.7-2.1C3.6 61.6-1 28.4.1 27.9c14.9-6.6 12.4 3.9 12.4 15.8zM47.4 86.9h22.8c.1 1.8.6 3.6.7 5.4 0 .9 0 2-.6 2.7-.5.5-1.3.6-2 .7-3.3.3-35.9 5-36.3 3.9-6.6-15.3 3.8-12.7 15.4-12.7zM47.4.3h22.8c.1 1.8.6 3.6.7 5.4 0 .9 0 2-.6 2.7-.5.5-1.3.6-2 .6-3.3.3-35.9 5-36.3 3.9C25.4-2.3 35.8.3 47.4.3zM99.8 43.7V67c-1.8.1-3.5.6-5.3.7-.9 0-2 0-2.6-.6-.5-.5-.6-1.3-.7-2.1-.3-3.4-4.9-36.6-3.8-37.1 14.9-6.6 12.4 3.9 12.4 15.8z"
        />
      </g>
    </svg>