<?xml version="1.0" encoding="utf-8"?>
<svg version="1.1" xmlns="http://www.w3.org/2000/svg" xmlns:xlink="http://www.w3.org/1999/xlink" x="0px" y="0px"
	 viewBox="0 0 23 23" style="enable-background:new 0 0 100 100;" xml:space="preserve">
	 <path
      d="M3.202 16.809c-1.003-1.398-1.408-3.161-1.398-4.881a11.488 11.488 0 0 1 2.712-7.305c1.136-1.336 2.743-2.212 4.298-3.024.589-.307 1.192-.592 1.826-.793.683-.216 1.392-.331 2.102-.429 1.465-.203 2.972-.335 4.412.003.661.155 1.315.418 1.811.882.842.788 1.096 2.004 1.306 3.138.138.743-.284 1.519-.955 1.868-.261.136-.552.202-.839.268-2.389.556-4.741 1.256-7.091 1.955l-2.006.597c-.454.135-.91.271-1.345.457-1.292.554-2.382 1.566-3.03 2.814s-.849 2.722-.559 4.097c.01.048.021.097.007.144-.022.073-.095.116-.163.152-.381.203-.836.408-1.088.057z"
      fill="#bdddee"
    />
    <path
      d="M7.901 2.258c-1.053-.463-2.132-.932-3.279-1.019-1.74-.132-3.521.702-4.535 2.122-.054.077-.101.197-.026.253.051.038.124.014.183-.009 1.006-.393 2.233-.282 3.056.416s1.115 2.007.539 2.919c.912-.65 1.971-1.069 2.896-1.7.543-.37 1.044-.833 1.388-1.397.169-.277.311-.585.373-.905.096-.493-.171-.493-.595-.68zM3.384 16.687c-.22.274-.384.593-.481.931-.105.368-.128.755-.119 1.138.029 1.227.403 2.459 1.151 3.432.149.194.316.38.527.505-.114-.486.175-.963.423-1.397.3-.524.56-1.086.626-1.687.066-.6-.084-1.248-.51-1.677.553.325 1.213.603 1.834.441.361-.095.666-.326.979-.528.515-.332 1.139-.604 1.727-.432.078-.078.03-.211-.031-.302-.361-.538-1.007-.796-1.617-1.013-.588-.209-1.197-.409-1.82-.38-.592.028-1.153.261-1.7.491l-.478.201c-.228.097-.356.083-.511.277zM21.782 4.424c.307.059.621.136.87.325.248.189.415.518.327.818l-.679.067c-1.083.105-2.193.209-3.246-.064-.014-.004-.029-.008-.041-.017-.043-.033-.016-.101.013-.147a2.84 2.84 0 0 0 .363-.772c.025-.094.014-.294.086-.36.074-.067.269-.032.358-.032a10.35 10.35 0 0 1 1.949.182z"
      fill="#bdddee"
    />
    <path
      d="M9.805 7.799c.077.437.012.898-.185 1.296-2.016.33-3.83 1.708-4.688 3.562-.538 1.161-.709 2.457-.784 3.734-.043-.076-.101-.131-.123-.215-.483-1.847-.016-3.887 1.111-5.428S7.94 8.207 9.805 7.799zM22.977 5.5c-.899.204-1.826.298-2.747.252-.323-.016-.646-.049-.969-.059-2.367-.069-4.622 1.13-6.989 1.135-.021.027-.077.051-.098.078a1.11 1.11 0 0 0-.12.183c-.066.134-.08.286-.09.434a.915.915 0 0 0 .023.354c.051.15.181.287.15.442-.003.015-.008.032-.001.046s.031.019.037.005c.301-.099.576-.185.885-.252a43.846 43.846 0 0 0 5.469-1.566c1.099-.394 2.273-.037 3.431-.188.265-.035.537-.086.76-.234s.311-.368.259-.63z"
      fill="#fff"
    />
    <path
      d="M9.629 7.141c.121.541.013 1.105-.096 1.649-.147.734-.303 1.493-.734 2.105-.115.164-.25.317-.332.499-.016.035-.028.082-.001.109.017.018.044.02.069.021.623.029 1.227-.224 1.759-.549.578-.354 1.104-.805 1.487-1.364.382-.559.615-1.232.591-1.91a4.376 4.376 0 0 0-.162-.956 12.069 12.069 0 0 0-.143-.503.7.7 0 0 0-.124-.261c-.092-.106-.237-.148-.375-.169a1.787 1.787 0 0 0-1.293.311c-.369.265-.63.677-.71 1.125-.014.075-.013.17.054.207M1.49 3.773c.446.036.851.275 1.201.555.412.328.796.78.781 1.306-.017.603-.549 1.08-.643 1.676-.024.15-.01.323.104.423.143.126.365.075.542.004a3.796 3.796 0 0 0 2.301-3.01c.048-.401.023-.831-.194-1.172-.155-.243-.393-.419-.638-.57-.403-.25-.847-.45-1.317-.51-.372-.047-.75-.005-1.12.056-.631.105-.621-.56-1.226-.349-.258.09-1.7 1.319-1.157 1.572.409.191.935-.015 1.366.019z"
      fill="#bdddee"
    />
    <path
      d="M18.693 5.433c1.421.314 2.82.013 4.284.067a10.44 10.44 0 0 1-2.147.353c-.365.003-.735 0-1.099-.065a3.226 3.226 0 0 1-1.038-.355zM10.351 6.272a.611.611 0 0 1-.01.534c-.085.16-.232.273-.302.396-.179.223-.232.546-.388.86-.081-.335-.055-.7.15-1.027.121-.148.244-.24.352-.349a.877.877 0 0 0 .198-.414zM3.481 5.822c.16-.5.475-.925.824-1.308.372-.36.787-.689 1.283-.863-.362.375-.739.695-1.076 1.065-.359.347-.669.733-1.031 1.106z"
      fill="#5e98a6"
    />
    <g>
      <path
        d="M15.969 3.755a.555.555 0 0 0-.577.096.933.933 0 0 0-.234.367 1.16 1.16 0 0 0-.091.434.887.887 0 0 0 .606.806c.331.105.701.003.977-.219.185-.149.335-.354.397-.593a.852.852 0 0 0-.115-.705c-.166-.227-.445-.321-.713-.353-.22-.026-.455-.015-.645.107-.072.046-.139.153-.08.217"
        fill="#fff"
      />
      <circle cx="16.285" cy="4.744" r="0.617" fill="#28241f" />
    </g>
  </svg>