<?xml version="1.0" encoding="utf-8"?>
<svg version="1.1" xmlns="http://www.w3.org/2000/svg" xmlns:xlink="http://www.w3.org/1999/xlink" x="0px" y="0px"
	 viewBox="0 0 23 23" style="enable-background:new 0 0 100 100;" xml:space="preserve">
	 <path
      fill="#FAF2E4"
      d="M5.842 9.76c.088-.156.199-.363.379-.422.218-.071.412.031.528.212.226.35-.755.48-.907.21zM6.921 9.503c.046-.174.102-.402.261-.504.193-.124.407-.073.565.072.306.282-.61.655-.825.432zM4.379 8.018c.116.232.308.608.591.664.3.06.45-.21.622-.373.068.197.36.307.548.318.174.01.316-.058.449-.177.125-.113.165-.316.294-.408.12.264.55.302.774.185.283-.15.537-.583.594-.887a1.096 1.096 0 0 0-.333-.99c-1.126-1.054-3.395.044-3.54 1.668z"
    />
    <path
      fill="#3A936E"
      d="M20.24 18.052c-1.065.877-2.172-.24-2.56-1.231-.142-.365-.255-.747-.435-1.101-.37-.73-.876-1.407-1.326-2.089-.985-1.49-.462-4.047-.535-5.746-.06-1.406-.153-2.924-.759-4.217a3.597 3.597 0 0 0-.194-.326c-.48-.816-1.191-1.73-2.018-2.226-.866-.52-1.632-.863-2.641-.99C8.999.028 8.318-.03 7.557.172 5.787.64 4.353 1.812 3.33 3.304c-.635.927-.856 2.146-.63 3.224.084.396.383.975.72 1.209 1.027.713 2.086.539 3.234.402.735-.088 1.46-.35 1.977-.896-.014.019.033.119.037.148.01.071.02.143.018.214-.02.519-.565 1.336-1.266 1.65a5.411 5.411 0 0 1-.454.186c-.377.114-.748.17-1.133.232-.078.012-.176.022-.23.088-.102.125.055.24.146.303.445.31.995.435 1.528.507.706.097 1.487-.043 2.165-.245.252-.075.501-.163.748-.26.037.488.02.953-.14 1.422-.148.436-.391.822-.521 1.268-.233.799-.41 1.68-.444 2.512-.033.789.167 1.666.387 2.418.326 1.118.847 2.213 1.782 2.955.753.596 1.647.884 2.596.931.874.043 1.756-.1 2.593-.32.729-.191 1.621-.533 2.262-.931.605-.376 1.153-.84 1.505-1.462.083-.147.333-.797.03-.807z"
    />
    <path
      fill="#3A936E"
      d="M8.9 18.122c-.228-.132-.754.059-1.072-.02-.619-.151-1.664-.723-1.873.222-.13.588.064 1.267.267 1.819.131.356.284.77.651.925.677.286 1.022.061 2.162.009.885-.041 2.153-.534 2.106-1.613-.053-1.207-1.432-1.498-2.24-1.342z"
    />
    <path
      fill="#414042"
      d="M4.387 4.836c-.19.05-.109.365.023.438.174.097.29-.07.292-.249.004-.304-.43-.406-.39-.076"
    />
    <path
      fill="#1C6644"
      d="M10.153 9.997c.38-.144.722-.333 1.043-.579.173-.103.345-.205.503-.324.152-.125.312-.244.417-.419-.11.42-.52.641-.825.888-.35.193-.717.435-1.138.434z"
    />
    <path
      fill="#3A936E"
      d="M9.29 13.186c-.072.173-.412.336-.57.43-.345.207-.717.375-1.057.586-.221.137-.563.32-.663.58-.148.38 0 1.126.949 1.442.459.153.192-.737.413-1.03.302-.4.594-.81.859-1.233.101-.162.25-.45.119-.642-.058-.086.051-.139-.05-.133z"
    />
    <path
      fill="#F8F2E7"
      d="M9.962 11.605c-.094.35-.23.682-.4.968-.747 1.262-1.752 2.456-2.01 3.94-.156.903-.175 1.926.222 2.774.294.628 1.016 1.174 1.622 1.47.757.369 1.776.484 2.608.397 2.353-.245.172-.722.105-2.419-.064-1.604-.736-4.276-1.425-5.747a27.14 27.14 0 0 0-.722-1.383"
    />
    <path
      fill="#3A936E"
      d="M13.907 17.53c-.502-.292-1.487.19-1.88.527-.36.308-.559.66-.784 1.058-.054.093-.116.199-.201.272-.508.437-2.38-.071-2.451.802-.04.484.451 1.088.68 1.473.261.438.513.942.977 1.186.485.255.946.038 1.407-.187.79-.385 1.512-1.089 2.395-1.235.597-.098 1.072-.215 1.396-.805.293-.534.202-1.435-.055-1.966-.442-.91-1.297-1.14-2.187-1.359"
    />
    <path
      fill="#1C6644"
      d="M8.589 20.274c.325-.55 1.768-.016.722.478-.262.123-.392.295-.553.03a1.277 1.277 0 0 1-.17-.508z"
    />
    <g fill="#A8D9E4">
      <path d="M15.793 14.49c-.37-.21-.424.731-.39.931.077.459.697 1.25 1.029.539.166-.358-.027-1.812-.64-1.47zM14.072 12.3c-.256-.178-.275.368-.245.511.071.347.36.645.664.794.576.282.644-.59.52-1.006-.158-.53-.757-.835-.939-.298zM14.324 11.041c-.462.154.83.895.434.028-.104-.227-.535-.343-.486.024M14.69 14.612c-.138.107-.191.404.027.474.338.109.486-.135.39-.345-.159-.343-.563-.371-.418.08" />
      <g>
        <path d="M11.223 1.261c-.144-.072-.345-.132-.499-.079-.335.115-.397.439-.225.71.31.488.976.86 1.494.43.334-.278.022-.878-.317-1.021-.163-.07-.365-.077-.454-.04zM12.859 2.318c-.205-.1-.448.204-.423.401.038.293.6.597.774.26.122-.235-.03-.738-.351-.66zM9.737.757c-.203.03-.033.337.088.376.16.052.378-.09.339-.272-.043-.195-.426-.26-.452-.028" />
      </g>
    </g>
    <path
      fill="#3A936E"
      d="M11 13.435c-.15.3-.362.583-.545.866-.164.253-.308.506-.494.743-.321.406-.959 1.173-.158 1.462a4.34 4.34 0 0 0 1.172.215c.456.022.887-.056 1.147-.45.338-.512.366-1.163.672-1.698.056-.099.318-.317.33-.438.041-.388-.935-.65-1.18-.723-.247-.073-.796-.152-.945.023z"
    />
    <path
      fill="#1C6644"
      d="M9.654 16.251c-.025.022-.057.04-.082.06.065-.195.325-.651.55-.4.114.125.053.49-.03.617-.132-.03-.565-.05-.483-.257M10.472 16.488c-.02.027-.048.05-.068.075.025-.204.187-.703.459-.503.136.1.15.47.093.611-.134-.002-.562.065-.523-.155M11.825 16.602c.064-.108.207-.135.269-.229.074-.08.137-.188.19-.29.112-.211.15-.43.15-.674.029-.24.065-.497.192-.723.141-.208.273-.416.464-.57-.143.201-.236.428-.362.623-.096.209-.11.445-.121.685-.018.239-.086.507-.222.715-.069.106-.134.208-.234.296-.103.09-.247.081-.326.167zM11.944 18.133c.17-.22.394-.37.617-.534.246-.106.529-.238.804-.146-.266.06-.502.142-.718.297-.243.102-.444.281-.703.383zM17.435 16.156c.191.321.287.68.385 1.04.04.371.07.743-.005 1.11-.074-.366-.068-.73-.165-1.079-.035-.36-.164-.701-.215-1.07z"
    />
    <g>
      <path
        fill="#1C6644"
        d="M13.584 21.544c.086-.16.254-.218.4-.3.163-.022.34-.079.5.012-.162.06-.306.075-.446.152-.157.022-.285.1-.454.136z"
      />
    </g>
    <path
      fill="#1C6644"
      d="M9.12 21.42c.172-.245 1.037-.546 1.104-.058.025.187-.237.349-.356.462-.1.095-.219.23-.358.25-.078-.137-.422-.483-.39-.654z"
    />
    <g>
      <path
        fill="#414042"
        d="M9.287 5.574c0 .015-.006.025-.018.029-.087-.335.18-.813.412-1.043.282-.28.633-.332.982-.111.26.164.455.505.51.803.016.083.062.297-.059.319-.059-.152-.076-.304-.153-.452a1.392 1.392 0 0 0-.382-.443c-.176-.133-.393-.204-.592-.088-.263.153-.355.327-.478.593-.056.122-.093.275-.154.387-.033.06-.117.127-.068.006z"
      />
    </g>
  </svg>