<?xml version="1.0" encoding="utf-8"?>
<svg version="1.1" xmlns="http://www.w3.org/2000/svg" xmlns:xlink="http://www.w3.org/1999/xlink" x="0px" y="0px"
	 viewBox="0 0 23 23" style="enable-background:new 0 0 100 100;" xml:space="preserve">
	 <path
      d="M4.984 13.552c.088.107.236.153.378.161.141.008.282-.017.423-.023.279-.012.557.047.828.113.172.042.377.121.4.29.257-.707.683-1.393.897-2.105-.497-.076-1.208.276-1.628.504-.132.072-1.41.925-1.298 1.06z"
      fill="#de9f4f"
    />
    <path
      d="M4.117 16.005c.088.107.236.153.378.161.141.008.282-.017.423-.023.279-.012.557.047.828.113.172.042.377.121.4.29.257-.708.683-1.394.897-2.106-.497-.076-1.208.276-1.628.504-.132.073-1.41.926-1.298 1.061zM3.225 18.816c.088.107.236.153.378.161.141.008.282-.017.423-.023.279-.012.557.047.828.113.172.042.377.121.4.29.257-.708.683-1.394.897-2.106-.497-.076-1.208.276-1.628.504-.132.072-1.41.926-1.298 1.061z"
      fill="#dd374b"
    />
    <path
      d="M10.829 8.244c-2.705 2.674-4.069 5.683-4.938 9.332-.203.852-1.123 2.596-1.743 2.804 1.165 1.016 3.945 2.623 4.998 2.346 1.347-.354.269-1.898 1.496-1.254-.17-.668 1.132 1.625.994.951-.372-1.819.042-2.995.896-4.641.372-.716 1.041-1.381 1.878-1.395.34-.256.637-.51.796-.897.114-.277.133-.584.117-.884-.088-1.664-1.25-3.209-2.804-3.967-.166-.081-.34-.156-.473-.281-.215-.202-.292-.498-.39-.77-.17-.47-.496-.958-.827-1.344z"
      fill="#16775f"
    />
    <path
      d="M8.84 17.776c-.625 1.044-1.021 2.202-1.349 3.367-.092.327-.18.66-.178 1 0 .05.003.101.026.146a.37.37 0 0 0 .149.133c1.752 1.073 4.576.392 4.523.067a7.247 7.247 0 0 1-.082-.918 13.72 13.72 0 0 1 .017-1.33c.044-.729.149-1.463.436-2.135.287-.673.772-1.284 1.439-1.626-.284.146-.787-.109-1.069-.207-.37-.128-.537-.272-.967-.567-.111-.076-.354-.299-.354-.299s-.459.212-.569.306c-.375.321-.691.554-1.002.889-.36.387-.751.724-1.02 1.174z"
      fill="#6fc3ae"
    />
    <path
      d="M10.362 16.31c.409.196.771.414 1.168.578.383.193.786.324 1.2.509-.456.053-.904-.073-1.321-.246-.403-.202-.791-.46-1.047-.841zM9.022 17.619c1.01.577 1.976 1.085 3.135 1.208a2.335 2.335 0 0 1-.878.059 3.584 3.584 0 0 1-.858-.226c-.537-.243-1.035-.579-1.399-1.041zM8.172 19.25c1.212.577 2.404 1.053 3.751 1.074-.322.1-.665.142-1.007.126a4.351 4.351 0 0 1-1.006-.178c-.644-.22-1.254-.547-1.738-1.022zM7.645 20.841a7.804 7.804 0 0 0 4.341 1.203c-.75.238-1.572.193-2.336-.003-.757-.225-1.485-.609-2.005-1.2z"
      fill="#48917d"
    />
    <g>
      <path
        d="M7.054 15.654a1.811 1.811 0 0 0-.057.51.491.491 0 0 0 .241.387c.267.202.642.115.933-.071a.798.798 0 0 1-1.007.184.604.604 0 0 1-.257-.495.977.977 0 0 1 .147-.515z"
        fill="#605f73"
      />
    </g>
    <g>
      <path
        d="M14.182 8.892c-.317-.754-.505-1.576-1.003-2.232-.412-.543-1.004-.928-1.573-1.317-.946-.648-1.872-1.347-2.583-2.233-.711-.885-1.195-1.981-1.148-3.101-.139-.037-.232.135-.261.271a6.364 6.364 0 0 0 .856 4.737c.417.651.949 1.226 1.407 1.85.459.624.852 1.324.93 2.086.246.062.453.2.699.262.205.052.41.103.62.131.625.082 1.256-.056 1.871-.193.138-.031.238-.134.185-.261z"
        fill="#fff"
      />
      <path
        d="M10.547 8.4a7.275 7.275 0 0 0 2.996-.316 4.337 4.337 0 0 1-2.996.316z"
        fill="#a6a5a5"
      />
      <path
        d="M9.071 7.771a3.706 3.706 0 0 1-.272-.949c.246-.012.462.147.653.297l1.063.837c.171-.311.251-.669.226-1.021.239-.033.448.143.621.305l1.3 1.224c.142-.298.22-.626.226-.954.231-.005.434.143.606.292.835.722 1.456 1.642 2.067 2.551.256.381.524.821.414 1.263-.011.045-.026.091-.014.136.012.045.064.083.106.062-.009.006-.036-.101-.045-.095.683.418 1.349.857 2.032 1.275.209.128.421.257.657.33s.502.085.724-.02a.728.728 0 0 0 .3-.26c.05.02.086.044.126.08.602.553 1.081 1.237 1.348 1.998s.314 1.598.091 2.372l-.181-.119c-.619-.405-1.279-.638-1.998-.837.249.107 1.545.531 1.795.638-.394.43-1.85 1.001-2.472.753a3.647 3.647 0 0 1-.519-.309c-.166-.122-.355-.212-.539-.301-.251-.121-.528-.184-.802-.246l-2.611-.589c-.093-.021-.225-.019-.243.071-1.068.159-2.106.269-3.154.015-.473-.115-.921-.308-1.366-.501-.449-.194-.906-.394-1.271-.713a3.663 3.663 0 0 1-.623-.754c-.482-.732-.86-1.553-.91-2.419-.048-.846.218-1.681.562-2.46.299-.679.705-1.377 1.396-1.688.302-.138.376-.215.707-.264z"
        fill="#16775f"
      />
      <path
        d="M19.53 14.061c-.083-.052-.176-.096-.276-.099s-.205.042-.249.128c-.051.1-.003.228.085.301.087.073.204.104.318.123s.231.03.338.073a.576.576 0 0 1 .346.435c.034-.373-.251-.766-.562-.961z"
        fill="#1f1f1d"
      />
      <path
        d="M18.931 13.685c-.092.038-.113.149-.174.219-.045.076-.089.135-.088.191-.04.111-.035.249.066.463-.266.039-.468-.272-.401-.553a.55.55 0 0 1 .248-.301c.092-.036.235-.127.349-.019z"
        fill="#064d36"
      />
      <path
        d="M14.155 12.873a4.68 4.68 0 0 0 .062-1.309c-.455.2-.955.1-1.424-.002-.227-.05-.679-.272-.526.13.092.242.334.467.515.625.096.084 1.336.772 1.373.556z"
        fill="#fff"
      />
      <path
        d="M10.758 15.743c-.596.536-1.227 1.135-1.338 1.915-.039.274-.011.559-.094.824-.225-.368-.484-.724-.826-.995-.342-.27-.778-.449-1.219-.422a2.093 2.093 0 0 0-.593.14c-.156.058-.311.114-.455.032a3.44 3.44 0 0 0-.219-2.412c-.203-.418-.531-.821-.994-.931-.268-.063-.569-.026-.801-.168.516-.586.636-1.402.681-2.171.03-.517.027-1.068-.255-1.508-.184-.282-.475-.508-.569-.828.693.049 1.329.376 2.005.529a4.1 4.1 0 0 0 2.755-.345c.126-.064.234.037.313.151.079.114.106.254.131.389l.481 2.563c.07.371.14.745.273 1.1.205.547.559 1.04 1.017 1.417.093.076.192.151.252.253s.071.243-.011.33c-.163.175-.355-.024-.534.137z"
        fill="#16775f"
      />
      <path
        d="M6.645 16.546c.244-.522.565-.978.884-1.436.34-.443.678-.885 1.103-1.273l.037-.034-.01.043-.021.088-.008-.09.027.009c-.242.512-.57.97-.896 1.427-.348.443-.694.888-1.116 1.266zM6.766 16.882c.307-.559.727-1.033 1.161-1.489.458-.433.933-.853 1.493-1.157-.406.49-.86.911-1.288 1.362-.452.426-.876.878-1.366 1.284zM9.055 17.595c-.059-.546.079-1.09.282-1.595.233-.492.538-.963.978-1.292-.253.481-.518.924-.712 1.408-.224.47-.37.966-.548 1.479zM4.883 13.19c.588-.36 1.194-.656 1.79-.979.605-.304 1.196-.629 1.825-.905l.026.038-.154.084.127-.122.026.038c-.522.451-1.114.802-1.72 1.12-.615.3-1.247.573-1.92.726zM4.985 13.466a13.194 13.194 0 0 1 1.687-.66c.582-.159 1.217-.272 1.819-.115l-.004.037-.12-.032.124-.005-.004.037a9.142 9.142 0 0 0-1.738.353c-.573.147-1.151.345-1.764.385zM4.692 9.762c.312-.04.617.085.896.17.286.089.563.197.849.271a6.54 6.54 0 0 0 1.737.331 2.489 2.489 0 0 1-.913.114 4.353 4.353 0 0 1-.908-.168 7.275 7.275 0 0 1-.847-.342c-.279-.126-.517-.309-.814-.376z"
        fill="#064d36"
      />
      <path
        d="M14.834 15.865c.083.032.175 0 .242-.034.233-.115.449-.249.579-.421a8.956 8.956 0 0 1-.437-.189c-.145-.07-.257-.376-.292-.248-.028.102-.009.36-.028.467-.02.115-.029.313-.064.425zM17.014 16.984c.047.032.11-.002.156-.035.223-.162.438-.334.644-.515.042-.037.089-.088.072-.141-.02-.063-.77-.108-.854-.129-.065-.017-.042.762-.018.82zM18.542 16.961c-.012.063-.01.146.051.169.035.013.074-.001.108-.017.207-.097.379-.261.482-.46.009-.017.017-.037.008-.053-.009-.018-.033-.023-.054-.026-.087-.012-.454-.116-.523-.059-.06.048-.059.366-.072.446z"
        fill="#fff"
      />
      <path
        d="M12.441 14.394c.72-.036 1.467-.035 2.177.237.703.27 1.281.739 1.896 1.079.591.394 1.272.523 1.987.669.699.158 1.441.285 2.069.67-.681-.249-1.4-.302-2.115-.406-.705-.085-1.476-.237-2.116-.632-.632-.386-1.193-.834-1.825-1.134-.63-.303-1.358-.378-2.073-.483z"
        fill="#064d36"
      />
      <path
        d="M13.587 12.462a.765.765 0 0 0 .556.459c.119-.45.136-.924.095-1.383.002.022-.575.092-.639.185-.136.195-.095.544-.012.739z"
        fill="#1f1f1d"
      />
      <path
        d="M10.35 9.581c-.331-.788-.528-1.645-1.048-2.331-.431-.567-1.049-.969-1.643-1.376-.988-.676-1.955-1.407-2.697-2.332S3.714 1.473 3.763.303c-.145-.038-.242.142-.273.284a6.647 6.647 0 0 0 .895 4.947c.435.68.991 1.28 1.47 1.932s.976 1.585 1.058 2.381c.257.065.34.07.598.134.214.054.474.044.694.073.653.085 1.312-.059 1.954-.202.143-.031.246-.139.191-.271z"
        fill="#fff"
      />
      <path
        d="M10.642 9.224c.004-.241.043-.47.089-.697.016-.116.056-.224.084-.336a.532.532 0 0 1 .076-.144.261.261 0 0 1 .192-.078.492.492 0 0 1 .254.076c.264.209.31.475.37.687.054.225.103.453.116.693a3.734 3.734 0 0 1-.366-.6c-.104-.208-.182-.426-.308-.488-.02-.019-.069-.036-.069-.036s.019-.006.037-.021c.006.009.01-.012-.001.01-.043.107-.075.217-.131.32-.1.21-.203.418-.343.614zM12.63 9.893c.004-.243.044-.474.09-.703.016-.117.056-.226.085-.339.014-.045.021-.114.099-.228.124-.135.323-.066.374-.019.157.122.166.235.231.338.052.108.115.209.155.323.093.221.179.442.228.673a4.106 4.106 0 0 1-.459-.539c-.129-.157-.259-.44-.353-.509.148-.16-.035.196-.107.383a3.818 3.818 0 0 1-.343.62z"
        fill="#064d36"
      />
      <path
        d="M9.363 18.446c.008.012.018.026.034.027.017.001.029-.015.037-.029a.799.799 0 0 0 .077-.324c.034-.397.042-.807.201-1.175-.227.193-.324.488-.497.727-.087.12-.225.189-.132.336.091.147.187.292.28.438z"
        fill="#16775f"
      />
      <path
        d="M10.617 11.285c.311-.215.723-.248 1.096-.204.38.041.73.181 1.073.273.335.121.674.203 1.006.21.307.024.694-.162.626-.554.123.153.073.398-.057.558-.145.161-.353.232-.548.263-.396.052-.777-.047-1.131-.146-.696-.241-1.332-.541-2.065-.4z"
        fill="#064d36"
      />
    </g>
  </svg>