<?xml version="1.0" encoding="utf-8"?>
<svg version="1.1" xmlns="http://www.w3.org/2000/svg" xmlns:xlink="http://www.w3.org/1999/xlink" x="0px" y="0px"
	 viewBox="0 0 23 23" style="enable-background:new 0 0 100 100;" xml:space="preserve">
	 <path
      fill="#F08973"
      d="M17.868 15.067c.233-.572-.694-1.348-1.092-1.597-.838-.523-1.867-.62-2.802-.891-1.194-.346-2.463-.928-3.39-1.771-.748-.68-1.262-1.546-1.649-2.474-.28-.673-.664-1.418-.696-2.162.078.135.135.327.265.413.107-.21.044-.52.044-.753-.001-.511-.013-1.022.061-1.53.106-.721.371-1.357.742-1.973.315-.524.63-.924 1.166-1.224.015.061.041.134.04.2.446-.059.887-.574 1.329-.735.533-.195 1.093-.26 1.65-.349.674-.107 1.668-.263 2.268.18-.032.027-.072.118-.104.144.105.073.237.085.362.113.34.077.647.16.961.316.566.28 1.22.619 1.575 1.162.164.25.285.53.384.81.05.14.202.442.16.585-.052.176-.198.08-.35.158.315.82.2 2.075-.228 2.846-.08-.073-.162-.175-.277-.21-.004.384-.046.962-.228 1.307-.246-.247-.431-.583-.807-.677-.043.093.003.2-.002.303-.469-.212-1.143-.553-1.66-.3.095.114.29.188.345.32-.658-.004-.5 1.404-.088 1.647.5.35 1.63.704 2.468 1.195 1.133.664 1.865 1.63 2.317 2.858.571 1.551.372 3.152-.315 4.612-.164-.197-.286-.472-.43-.69-.346-.521-.71-1.003-1.198-1.403-.316-.258-.83-.406-1.106-.693"
    />
    <g
      fill="none"
      stroke="#DB6553"
      strokeWidth="0.15"
      strokeLinecap="round"
      strokeLinejoin="round"
      strokeMiterlimit="10"
    >
      <path d="M18.51 14.907c-.463-1.224-1.232-2.227-2.54-2.59-.87-.24-1.775-.35-2.632-.642-.908-.31-2.06-1.265-2.704-1.953C9.318 8.314 8.93 6.83 8.94 4.918c.006-1.254.428-2.998 1.606-3.706" />
      <path d="M19.148 15.395c0-.54.007-1.07-.222-1.571-.403-.882-1.327-1.433-2.145-1.868-.931-.497-2.089-.745-2.925-1.387-1.029-.79-1.812-1.914-2.405-3.055-.556-1.07-1.006-2.128-.737-3.354.258-1.174 1.022-2.123 1.988-2.807.66-.466 1.537-.745 2.33-.897.242-.046.583-.152.814-.07" />
      <path d="M19.56 15.433c.2-.86-.062-1.893-.46-2.667-.582-1.127-2.004-1.769-3.026-2.445-1.178-.78-2.323-1.526-3.053-2.78-.665-1.143-.87-2.738-.281-3.955.738-1.527 2.532-2.408 4.188-2.291.587.041 1.296.287 1.657.78" />
      <path d="M18.66 3.388c-.377-.449-1.107-.51-1.653-.521-1.308-.027-2.697.574-3.017 1.946-.365 1.568.172 3.737 1.648 4.579 1.438.82 2.793 1.442 3.972 2.638 1.02 1.035 1.28 2.846.701 4.19" />
      <path d="M15.47 8.241c-.357-.496-.316-1.731-.143-2.13.487-1.12 2.368-1.477 2.808-.134" />
    </g>
    <path
      fill="#FFA48C"
      d="M8.125 14.836c.06.23.561.265.7.415.521.558.603.652 1.149.847 1.127.402 2.633-.222 3.624-.723.96-.485 1.575-1.069 2.67-1.093.948-.02 2.2.411 3.056.806 1.083.5 1.755 1.479 1.365 2.669-.172.524-.49 1.044-.845 1.464-.4.473-1.148.516-1.721.56-.86.066.86.048 0 0-.226-.013-2.295.47-2.49.353-.267-.162-.696-.097-1.127-.27-.906-.365-2.198-.216-3.026.268-.2.116-.531-.09-.779-.125-.212-.029-.372.19-.437.023-.146-.375-.314-.721-.444-1.105-.28-.833-.682-1.626-1.01-2.44-.14-.346-.294-.683-.418-1.036-.07-.2-.193-.4-.267-.613z"
    />
    <path
      fill="#FFA48C"
      d="M6.005 18.928c.35-.157.869-.045 1.23.01.351.052.692.202 1.013.347.583.263 1.088.63 1.628.963.121-.48.342-.923.465-1.402.071-.277.22-.616.153-.909-.095-.414-.597-.815-.917-1.04-.436-.307-1.16-.736-1.729-.58-.262.073-.46.32-.642.51a8.2 8.2 0 0 0-.686.83c-.163.225-.372.455-.476.716-.028.07-.157.451-.039.555z"
    />
    <path
      fill="#FFF"
      d="M6.581 18.837c.43.214.933.543 1.464.725.637.218 1.299.43 1.976.557.836.157 1.84.348 2.698.362.644.011 1.46-.107 2.102-.121-.26-.24-.358-.422-.551-.78-.141-.262-.085-.544-.154-.834-1.467-.048-3.111.392-4.59.37-.614-.008-1.649-.493-2.226-.657-.214.135-.476.298-.719.378z"
    />
    <path
      fill="#FFA48C"
      d="M8.143 18.367c.24.15.353.937.397 1.198a3.72 3.72 0 0 1-.053 1.528c-.082.334-.297.626-.441.934-.123.262-.183.21.071.26.29.057.224.21.514.06.28-.145.696-.528.82-.65a12.47 12.47 0 0 0 1.58-1.928c.168-.251.377-.493.51-.766.311-.641.156-.511.715-.92-.92.023-1.836-.038-2.748-.155-.293-.037-.596-.069-.89-.091-.095-.008-.157-.033-.25.02.02.098-.259.432-.225.51z"
    />
    <path d="M7.99 22.053c-.48-.233-1.25-.145-1.58.306.317.025.712-.2 1.016-.08-.238.143-.288.348-.32.616.273-.09.464-.43.778-.447-.026.113-.05.297.022.391.175-.157.308-.298.547-.374.205-.065.427-.055.524-.285-.405-.022-.789.04-.988-.127z" />
    <path
      fill="#F08973"
      d="M3.05 14.663c.008.023.01.041.026.059-.376-.578-.265-1.247-.323-1.897a19.482 19.482 0 0 0-.255-1.747c.061.055.089.152.165.19.04-.093.008-.292-.02-.398.2.39.38.76.657 1.102.21.26.507.457.77.663.25.197.478.425.581.73.1.298.158.741-.051 1.006-.219.275-.586.43-.91.538-.097.032-.25.094-.357.063-.175-.05-.263-.305-.284-.309z"
    />
    <path
      fill="#FFA48C"
      d="M8.711 15.268c.042-.116-.122-.344-.191-.443-.124-.175-.252-.317-.33-.521-.146-.375-.531-.649-.795-.944-.227-.254-.549-.493-.89-.525-.81-.077-1.58.083-2.255.541-.778.529-1.523 1.378-1.81 2.286-.266.84-.725 2.32.081 3.023.114.1.267.15.398.22.18.096.434.166.635.216.4.101.749.098 1.157.1.675 0 1.31-.203 1.942-.413.14-.047.292-.054.436-.095.17-.049.295-.172.456-.235.13-.051.265-.073.394-.13.226-.101.368-.283.557-.436.8-.649.564-1.974.215-2.644z"
    />
    <path d="M5.413 14.876a.852.852 0 0 0-1.111.323c-.16.28-.332.617-.24.94.073.253.27.467.509.593.89.466 1.657-.67 1.364-1.409a.838.838 0 0 0-.322-.39c-.126-.084-.224-.06-.2-.057z" />
    <path
      fill="#FFF"
      d="M5.182 15.139c-.303-.16-.55.408-.354.621.203.22.482.124.605-.114.11-.213-.059-.574-.25-.507z"
    />
    <path d="M2.442 17.576c-.222-.214-.454.375-.4.598.088.365.469.415.723.267.275-.16.244-.58.014-.758-.157-.122-.268-.136-.337-.107z" />
    <path
      fill="#FFA48C"
      d="M4.013 14.226c.006-.065-.028-.173-.039-.248a5.737 5.737 0 0 1-.051-.839c0-.46.12-.863.228-1.306.088-.363.16-.73.17-1.105.011-.376-.072-.738-.09-1.111.048.064.084.148.14.204.015-.218-.008-.44-.001-.658.003-.095-.023-.232.016-.316.1.412.318.789.476 1.175-.01-.113-.054-.299.008-.395.11.216.217.443.353.646.175.262.417.494.634.722.557.583 1.06 1.246 1.254 2.041.063.26-.048.369-.28.47-.413.183-.804.406-1.226.566-.417.159-.84.312-1.293.296-.134-.005-.404-.042-.3-.142z"
    />
    <path
      fill="#DB6553"
      d="M4.745 13.545c-.152-.009.03-1.568.296-1.774.218-.169.643.603.755.762.066.095.255.345.222.476-.039.156-.221.05-.332.114-.077.046-.096.11-.192.138-.109.032-.196.04-.306.09-.085.038-.173.049-.26.078a.565.565 0 0 0-.183.116z"
    />
    <path
      fill="#E06958"
      d="M6.41 18.904c.17-.14.386-.176.542-.3a2.49 2.49 0 0 0 .522-.327c-.07.22-.294.316-.45.447a2.124 2.124 0 0 1-.614.18z"
    />
    <g>
      <path
        fill="#FFA48C"
        d="M14.718 16.916c-.24.325-.343 1.012-.367 1.423-.027.477-.025.984.079 1.453.215.967 1.578 1.291 2.408 1.615.879.343 1.217.672 2.104.356.318-.113.791-.07 1.084-.25.163-.101.174-.128.054-.275-.166-.201-.335-.319-.377-.618-.051-.368.097-.75.218-1.085.252-.7.409-1.4.469-2.143.027-.333.14-.975-.184-1.176-.248-.153-.691-.134-.965-.166-.756-.09-1.474-.109-2.224.034-.578.11-1.233.295-1.753.589-.175.099-.324.208-.546.243z"
      />
      <path d="M19.948 21.09c.168.141.36.211.305.682-.032.276-.288.285-.531.326-.526.088-1.095.084-1.628.083-1.166-.002-2.33.18-3.497.117-.198-.982 2.144-.768 2.55-.769.759 0 1.558.009 2.303-.067.244-.024.538-.032.498-.371" />
      <path
        fill="#E06958"
        d="M14.967 17.285c-.258.074-.49.223-.628.434-.142.212-.165.481-.153.737.046.517.131 1.047.26 1.563-.146-.232-.21-.495-.282-.756-.053-.266-.118-.524-.116-.803.002-.271.042-.566.214-.794.162-.239.442-.352.705-.381z"
      />
    </g>
    <g
      fill="none"
      stroke="#DB6553"
      strokeWidth="0.15"
      strokeLinecap="round"
      strokeLinejoin="round"
      strokeMiterlimit="10"
    >
      <path d="M11.22 16.82c.223-.015.474-.02.67-.145M12.742 16.168c.194-.05.397-.116.543-.254M12.941 16.947c.208.016.385-.08.562-.163M14.228 16.096c.178-.076.386-.119.526-.272M15.406 16.077c.13-.124.36-.28.544-.326M15.515 15.008c.198-.25.577-.302.87-.362M16.548 15.334c.197-.054.38-.023.58 0" />
    </g>
    <g>
      <path
        fill="#E06958"
        d="M19.738 19.968c.012.279-.148.53-.33.738-.245.18-.519.21-.783.23.232-.143.52-.16.68-.343.2-.155.319-.384.433-.625z"
      />
    </g>
  </svg>