<?xml version="1.0" encoding="utf-8"?>
<svg version="1.1" xmlns="http://www.w3.org/2000/svg" xmlns:xlink="http://www.w3.org/1999/xlink" x="0px" y="0px"
	 viewBox="0 0 23 23" style="enable-background:new 0 0 100 100;" xml:space="preserve">
	 <path
      d="M3.674 11.73a1.094 1.094 0 0 1-1.182-.389c-.201-.255-.333-.615-.603-.747l-.252.244c.503.337.688 1.125 1.162 1.519.205.171.459.257.708.241.265-.017.518-.146.783-.17l.173-1.287c.013-.1.022-.215.061-.304.09.059-.255.488-.317.552-.154.159-.336.28-.533.341z"
      fill="#e0dfdb"
    />
    <path
      d="M17.306 18.042c.084.077.174.162.289.174.114.013.221-.05.318-.111.379-.239.752-.494 1.067-.811.315-.317.571-.702.678-1.133a.189.189 0 0 0 .005-.105c-.013-.042-.051-.071-.088-.095a4.974 4.974 0 0 0-1.17-.534c-.707-.21-2.087-.572-2.793-.512-.332.028.108.666-.19.814-.298.148-1.174.275-1.244.596-.055.252.705.437.905.491a5.387 5.387 0 0 1 2.223 1.226zM11.957 4.995c.115-.358.424-.628.769-.778.345-.15.725-.194 1.1-.223.847-.064 1.71-.055 2.533.156s1.609.638 2.143 1.299c.64.792.865 1.841.941 2.856.021.274.032.55.082.821.053.284.148.557.253.826.143.364.32.738.639.965.319.227.82.242 1.062-.067.226-.289.316-.645.366-1.008.05-.363.082-.936-.042-1.61.357-.095.7-.232 1.028.069.143.453.21 1.621.152 2.092-.106.862-.324 1.775-.965 2.361-.526.481-1.27.669-1.983.644-.712-.026-1.403-.245-2.072-.49.125.231.223.475.349.706.011.02.023.042.023.065.001.068-.084.098-.152.108-1.214.18-2.47.183-3.652-.146-1.182-.329-2.289-1.01-2.997-2.012-.301-.426-.526-.902-.721-1.386-.184-.457-.345-.932-.373-1.424-.029-.513.088-1.024.254-1.511.3-.88.978-1.427 1.263-2.313z"
      fill="#dbd7d4"
    />
    <path
      d="M14.509 16.818c1.172-.941 1.874-2.374 2.362-3.796-.008.031.045.066.04.035.036-.335.069-.691-.082-.993-.091-.182-.24-.327-.393-.461-.354-.31-.742-.583-1.054-.934-.624-.7-.891-1.636-1.249-2.503-.185-.448-.359-1.002-.825-1.133-.334-.094-.686-.099-1.033-.101-1.635-.009-3.29.043-4.863.489a9.948 9.948 0 0 0-2.253.951 3.891 3.891 0 0 0-.744.526 2.649 2.649 0 0 0-.691 1.086c-.378 1.157-.427 2.412-.202 3.608.225 1.196.718 2.335 1.383 3.355.199-.014.459-.026.658-.017.29.014.577.052.865.09-.015 0-.029-.009-.044-.009a.327.327 0 0 0 .423.143.68.68 0 0 0 .379.303c1.616.545 3.379.414 5.061.133.469-.079.937-.169 1.391-.309.35-.108.707-.258.936-.544.015-.019.03-.047.014-.066-.016-.019-.103.147-.079.147z"
      fill="#dbd7d4"
    />
    <path
      d="M14.988 19.336c-.074-.36-.129-.726-.251-1.076-.401-1.15-.931-1.834-1.187-2.552-.658.442-.126 1.082-.939 1.147-.298.024-.612.024-.873.157-.034.017-.068.039-.082.071-.015.035-.004.075.007.112.332 1.074.398 2.79.304 3.903.452.153.973.123 1.455.118.284-.003.394.003.678 0 .198-.002.691.078.854-.054.294-.239.094-1.535.034-1.826zM7.562 19.478c.368.006-.639-2.995-.751-2.794a.665.665 0 0 0-.066.279 4.616 4.616 0 0 0 .319 2.078c.077.191.2.442.436.473.177.023.299.126.317-.041.046-.436-.175-1.434-.317-1.839a6.693 6.693 0 0 0-.658-1.396c-.278-.435-.698-.609-1.166-.84a1.219 1.219 0 0 0-.474-.139c-.31-.015-.606.174-.757.433-.144.248-.037.448.026.705.185.746.259 1.529.254 2.295a9.84 9.84 0 0 1-.098 1.328c-.007.046-.041.563-.048.61-.022.168-.051.405.066.439.823.24 2.066.132 2.92.047.075-.007.143-.314.174-.515.01-.068.042-.154.058-.295.039-.342.04-.539.019-.833"
      fill="#dbd7d4"
    />
    <path
      d="M12.619 5.553c-.749-.735-1.734-1.208-2.763-1.413-1.029-.205-2.1-.149-3.123.084-.126.029-.265.07-.327.183a.493.493 0 0 0-.04.195 20.24 20.24 0 0 0 .211 4.494c.059.368.14.758.401 1.025.224.229.549.332.785.549.4.368.457.966.635 1.48.082.236.21.478.434.589.187.092.407.077.613.046a4.747 4.747 0 0 0 3.054-1.82c1-1.329.816-2.91.512-4.546-.034-.185-.258-.735-.392-.866z"
      fill="#9d9690"
    />
    <path
      d="M15.747 10.452c-.041-.192-.041-.394.041-.578s.255-.345.482-.406c.227-.061.504-.005.642.154a.62.62 0 0 1 .12.249c.058.202.086.41.084.618"
      fill="none"
      stroke="#28241f"
      strokeWidth="0.275"
      strokeLinecap="round"
      strokeLinejoin="round"
      strokeMiterlimit="10"
    />
    <path
      d="M16.026 11.219c-.209-.098-.465-.107-.66.018s-.307.399-.22.622a.779.779 0 0 0 .137.212c.077.09.162.177.266.229a.681.681 0 0 0 .327.063c.204-.007.412-.081.552-.238s.193-.404.1-.595c-.114-.234-.389-.314-.634-.371"
      fill="#f19397"
    />
    <path
      d="M16.656 13.91c-.802.21-1.658.156-2.456-.093a4.148 4.148 0 0 1-1.121-.556c-.341-.241-.652-.526-.877-.879.37.188.718.371 1.076.525.36.149.716.294 1.084.407.732.248 1.491.393 2.294.596zM6.995 16.467c.205.157.311.373.411.589.071.227.138.458.09.712-.164-.197-.24-.409-.336-.618-.068-.219-.154-.427-.165-.683zM11.519 16.692c.16.152.224.333.294.512.018.095.049.184.054.29a.49.49 0 0 1-.074.31c-.036-.101-.084-.178-.123-.26-.042-.08-.072-.173-.109-.262-.041-.189-.09-.374-.042-.59z"
      fill="#9d9690"
    />
    <path
      d="M7.065 6.883c.511-.811 1.545-1.226 2.51-1.202a4.108 4.108 0 0 1 2.59 1.032c-.935-.122-1.77-.327-2.605-.336-.833-.023-1.633.137-2.495.506z"
      fill="#7a7570"
    />
    <path
      d="M6.605 20.768c.036-.133.077-.266.148-.373.071-.107.177-.183.285-.168.123.017.221.149.267.297s.049.312.051.471c0 .016 0 .033-.006.047-.006.012-.016.019-.026.026-.152.099-.331.094-.501.087-.119-.005-.232.029-.323-.016.017-.119.073-.251.105-.371zM5.306 20.781c.056-.118.117-.236.206-.325s.213-.143.327-.111c.129.036.217.175.247.32.03.146.012.299-.006.448-.002.015-.004.031-.013.043-.008.01-.02.015-.031.02-.176.068-.366.035-.548.001-.126-.024-.252-.01-.343-.067.034-.107.111-.222.161-.329zM14.038 20.865c.036-.132.077-.266.147-.372.07-.106.176-.183.283-.168.122.017.22.149.265.297s.048.311.051.471c0 .016 0 .033-.006.047-.006.012-.016.019-.026.026-.152.099-.329.094-.498.087-.118-.005-.23.029-.32-.016.016-.12.072-.253.104-.372zM12.847 20.842c.052-.106.109-.212.192-.291.083-.079.199-.128.304-.1.12.032.202.157.23.287.028.131.011.268-.006.402-.002.013-.004.028-.012.038a.062.062 0 0 1-.029.018c-.164.061-.341.031-.51.001-.118-.021-.235-.009-.319-.06.031-.097.103-.2.15-.295zM4.902 10.048c-.196-.055-.384.101-.529.245-.057.057-.116.115-.147.189-.031.074-.03.168.026.227.054.057.141.065.22.066.248.005.505-.016.724-.132.219-.116.392-.347.378-.594-.005-.099-.044-.201-.126-.258a.369.369 0 0 0-.233-.051c-.369.02-.668.293-.934.551M4.599 11.444c-.151-.033-.318-.034-.451.046-.133.079-.214.257-.146.396.076.156.28.19.453.186a.74.74 0 0 0 .288-.053c.089-.041.167-.119.184-.216a.292.292 0 0 0-.041-.197.38.38 0 0 0-.512-.122l-.015-.08M5.625 10.974a.65.65 0 0 0 .596.042c.198-.086.572-.5.22-.596-.31-.084-.698.328-.816.554zM6.046 9.024c-.117-.008-.218.116-.202.232.016.116.13.204.247.209s.23-.064.297-.16a.226.226 0 0 0 .045-.11c.01-.104-.09-.193-.193-.211a.639.639 0 0 0-.306.051"
      fill="#fff"
    />
    <g fill="#fff">
      <path d="M18.074 17.15c0-.015 0-.031.008-.044a.083.083 0 0 1 .043-.029.352.352 0 0 1 .279.018.62.62 0 0 1 .103.073l.369.299a6 6 0 0 1-.266.227c-.112.081-.151.084-.262-.005a.73.73 0 0 1-.274-.539zM18.981 16.938c-.131-.151-.266-.309-.323-.501a.222.222 0 0 1-.011-.102c.012-.072.082-.124.155-.136a.455.455 0 0 1 .215.031c.143.048.281.114.409.194.036.023.076.053.079.096.002.028-.013.055-.027.079-.099.168-.188.383-.318.525-.032-.018-.182-.146-.179-.186z" />
    </g>
    <path
      d="M.837 10.03c.055.117.082.243.123.365.089.264.152.526.326.753.129.168.383.32.605.356a.572.572 0 0 0 .516-.201c.118-.143.159-.331.14-.509s-.091-.348-.18-.508a3.048 3.048 0 0 0-.821-.935c.223.208.389.466.479.744-.238-.282-.532-.541-.9-.662a2.042 2.042 0 0 0-.573-.091C.478 9.34.079 9.3.151 9.425c.024.041.158.083.203.11.072.044.141.092.204.146.116.098.216.215.279.349z"
      fill="#e0dfdb"
    />
    <path
      d="M.004 9.391c.125-.081.258-.152.402-.188.106-.026.216-.032.326-.031.485.004.98.152 1.341.476s.564.839.45 1.31c-.014.06-.036.123-.084.162-.084.07-.212.041-.311-.005-.311-.144-.546-.412-.749-.687-.203-.276-.387-.57-.638-.804C.65 9.54.535 9.46.406 9.456a1.569 1.569 0 0 1-.402-.065z"
      fill="#e0dfdb"
    />
  </svg>