<?xml version="1.0" encoding="utf-8"?>
<svg version="1.1" xmlns="http://www.w3.org/2000/svg" xmlns:xlink="http://www.w3.org/1999/xlink" x="0px" y="0px"
	 viewBox="0 0 23 23" style="enable-background:new 0 0 100 100;" xml:space="preserve">
	 <path
      d="M3.669 10.232a1.094 1.094 0 0 1-1.182-.389c-.201-.255-.333-.615-.603-.747l-.252.244c.503.337.688 1.125 1.162 1.519.205.171.459.257.708.241.265-.017.518-.146.783-.17l.174-1.289c.013-.1.022-.215.061-.304.09.061-.255.489-.317.553-.154.16-.337.28-.534.342zM17.302 16.543c.084.077.174.162.289.174.114.013.221-.05.318-.111.379-.239.752-.494 1.067-.811.315-.317.571-.702.678-1.133a.189.189 0 0 0 .005-.105c-.013-.042-.051-.071-.088-.095a4.974 4.974 0 0 0-1.17-.534c-.707-.21-2.087-.572-2.793-.512-.332.028.108.666-.19.814-.298.148-1.174.275-1.244.596-.055.252.705.437.905.491.274.074.542.17.801.287a5.444 5.444 0 0 1 1.422.939zM11.953 3.496c.115-.358.424-.628.769-.778s.725-.194 1.1-.223c.847-.064 1.71-.055 2.533.156s1.609.638 2.143 1.299c.64.792.865 1.841.941 2.856.021.274.032.55.082.821.053.284.148.557.253.826.143.364.32.738.639.965.319.227.82.242 1.062-.067.226-.289.316-.645.366-1.008.05-.363.082-.936-.042-1.61.356-.096.698-.233 1.027.068.143.453.21 1.621.152 2.092-.106.862-.324 1.775-.965 2.361-.526.481-1.27.669-1.983.644-.712-.026-1.403-.245-2.072-.49.125.231.223.475.349.706.011.02.023.042.023.065.001.068-.084.098-.152.108-1.214.18-2.47.183-3.652-.146-1.182-.329-2.289-1.01-2.997-2.012-.301-.426-.526-.902-.721-1.386-.184-.457-.345-.932-.373-1.424-.029-.513.088-1.024.254-1.511.301-.878.979-1.426 1.264-2.312z"
      fill="#9d9690"
    />
    <path
      d="M14.504 15.319c1.172-.941 1.874-2.374 2.362-3.796-.008.031.045.066.04.035.036-.335.069-.691-.082-.993-.091-.182-.24-.327-.393-.461-.354-.31-.742-.583-1.054-.934-.624-.7-.891-1.636-1.249-2.503-.185-.448-.359-1.002-.825-1.133-.334-.094-.686-.099-1.033-.101-1.635-.009-3.29.043-4.863.489-.786.224-1.545.544-2.253.952a3.84 3.84 0 0 0-.743.526 2.632 2.632 0 0 0-.691 1.086c-.378 1.157-.427 2.412-.202 3.608.225 1.196.718 2.335 1.383 3.355.199-.014.459-.026.658-.017.29.014.577.052.865.09-.015 0-.029-.009-.044-.009a.327.327 0 0 0 .423.143.68.68 0 0 0 .379.303c1.616.545 3.379.414 5.061.133.469-.079.937-.169 1.391-.309.35-.108.707-.258.936-.544.015-.019.03-.047.014-.066-.017-.02-.104.146-.08.146z"
      fill="#9d9690"
    />
    <path
      d="M14.983 17.837c-.074-.36-.129-.726-.251-1.076-.401-1.15-.931-1.834-1.187-2.552-.658.442-.126 1.082-.939 1.147-.298.024-.612.024-.873.157-.034.017-.068.039-.082.071-.015.035-.004.075.007.112.332 1.074.398 2.79.304 3.903.452.153.973.123 1.455.118.284-.003.394.003.678 0 .198-.002.691.078.854-.054.295-.238.094-1.535.034-1.826zM7.558 17.98c.368.006-.639-2.995-.751-2.794a.665.665 0 0 0-.066.279 4.616 4.616 0 0 0 .319 2.078c.077.191.2.442.436.473.177.023.299.126.317-.041.046-.436-.175-1.434-.317-1.839-.17-.485-.38-.961-.658-1.396s-.698-.609-1.166-.84a1.219 1.219 0 0 0-.474-.139c-.31-.015-.606.174-.757.433-.144.248-.037.448.026.705.185.746.259 1.529.254 2.295a9.84 9.84 0 0 1-.098 1.328c-.007.046-.041.563-.048.61-.022.168-.051.405.066.439.823.24 2.066.132 2.92.047.075-.007.143-.314.174-.515.01-.068.042-.154.058-.295.039-.342.04-.539.019-.833"
      fill="#9d9690"
    />
    <path
      d="M12.615 4.055c-.749-.735-1.734-1.208-2.763-1.413-1.029-.205-2.1-.149-3.123.084-.126.029-.265.07-.327.183-.031.059-.036.128-.041.194a20.24 20.24 0 0 0 .211 4.494c.059.368.14.758.401 1.025.224.228.55.332.785.548.4.368.457.966.635 1.48.082.236.21.478.434.589.187.092.407.077.613.046a4.747 4.747 0 0 0 3.054-1.82c1-1.329.816-2.91.512-4.546-.033-.183-.258-.733-.391-.864z"
      fill="#605547"
    />
    <path
      d="M15.743 8.954a.931.931 0 0 1 .041-.578.743.743 0 0 1 .482-.406c.227-.061.504-.005.642.154a.62.62 0 0 1 .12.249c.058.202.086.41.084.618"
      fill="none"
      stroke="#28241f"
      strokeWidth="0.275"
      strokeLinecap="round"
      strokeLinejoin="round"
      strokeMiterlimit="10"
    />
    <path
      d="M16.021 9.72c-.209-.098-.465-.107-.66.018-.196.125-.307.399-.22.622a.779.779 0 0 0 .137.212c.077.09.162.177.266.229a.681.681 0 0 0 .327.063.77.77 0 0 0 .552-.238c.139-.157.193-.404.1-.595-.114-.234-.389-.314-.634-.371"
      fill="#fadbd7"
    />
    <path
      d="M16.651 12.411a3.995 3.995 0 0 1-1.231.131 4.461 4.461 0 0 1-1.229-.214 4.105 4.105 0 0 1-1.122-.559c-.34-.243-.651-.53-.872-.886.373.185.721.366 1.08.518.36.147.716.291 1.083.404.363.125.739.215 1.118.319.382.098.772.175 1.173.287zM6.991 14.968c.209.155.315.371.415.587.07.227.137.459.085.714-.168-.196-.244-.408-.341-.616-.067-.218-.152-.427-.159-.685zM11.514 15.194c.164.15.228.332.299.51.017.095.048.184.053.29a.483.483 0 0 1-.078.311c-.038-.101-.088-.177-.127-.259-.043-.08-.073-.173-.11-.262-.04-.188-.089-.374-.037-.59z"
      fill="#615648"
    />
    <path
      d="M7.061 5.385c.504-.82 1.542-1.241 2.51-1.216a4.053 4.053 0 0 1 2.589 1.046c-.939-.112-1.773-.314-2.605-.323-.83-.023-1.625.132-2.494.493z"
      fill="#7a7570"
    />
    <path
      d="M6.601 19.27c.036-.133.077-.266.148-.373.071-.107.177-.183.285-.168.123.017.221.149.267.297s.049.312.051.471c0 .016 0 .033-.006.047-.006.012-.016.019-.026.026-.152.099-.331.094-.501.087-.118-.005-.232.029-.322-.016.015-.119.071-.252.104-.371zM5.302 19.283c.056-.118.117-.236.206-.325.09-.088.213-.143.327-.111.129.036.217.175.247.32.03.146.012.299-.006.448-.002.015-.004.031-.013.043-.008.01-.02.015-.031.02-.176.068-.366.035-.548.001-.126-.024-.252-.01-.343-.067.033-.108.11-.223.161-.329zM14.034 19.367c.036-.132.077-.266.147-.372.07-.106.176-.183.283-.168.122.017.22.149.265.297s.048.311.051.471c0 .016 0 .033-.006.047-.006.012-.016.019-.026.026-.152.099-.329.094-.498.087-.118-.005-.23.029-.32-.016.016-.121.071-.253.104-.372zM12.843 19.343c.052-.106.109-.212.192-.291.083-.079.199-.128.304-.1.12.032.202.157.23.287.028.131.011.268-.006.402-.002.013-.004.028-.012.038a.062.062 0 0 1-.029.018c-.164.061-.341.031-.51.001-.118-.021-.235-.009-.319-.06.031-.096.103-.199.15-.295z"
      fill="#fff"
    />
    <path
      d="M4.898 8.55c-.197-.055-.384.101-.529.245a.611.611 0 0 0-.147.189c-.032.074-.03.168.026.227.054.057.141.065.22.066.248.005.505-.016.724-.132.219-.116.392-.347.378-.594-.006-.099-.045-.202-.126-.258a.372.372 0 0 0-.234-.052c-.369.02-.668.293-.934.551M4.594 9.945c-.151-.032-.318-.033-.451.046s-.214.257-.146.396c.076.156.28.19.453.186.098-.003.199-.012.288-.053s.167-.119.184-.216a.292.292 0 0 0-.041-.197.379.379 0 0 0-.511-.121l-.015-.08M5.621 9.475a.649.649 0 0 0 .596.043c.198-.086.572-.5.22-.596-.31-.084-.699.327-.816.553zM6.041 7.525c-.117-.008-.218.116-.201.232.016.116.13.204.247.209a.358.358 0 0 0 .297-.16.226.226 0 0 0 .045-.11c.01-.104-.09-.193-.193-.211s-.208.018-.307.052"
      fill="#e0dfdb"
    />
    <g fill="#fff">
      <path d="M18.069 15.652c0-.015 0-.031.008-.044a.083.083 0 0 1 .043-.029.352.352 0 0 1 .279.018.62.62 0 0 1 .103.073l.369.299a6 6 0 0 1-.266.227c-.112.081-.151.084-.262-.005a.735.735 0 0 1-.274-.539zM18.977 15.44c-.131-.151-.266-.309-.323-.501a.222.222 0 0 1-.011-.102c.012-.072.082-.124.155-.136a.455.455 0 0 1 .215.031c.143.048.281.114.409.194.036.023.076.053.079.096.002.028-.013.055-.027.079-.099.168-.188.383-.318.525-.032-.019-.182-.147-.179-.186z" />
    </g>
    <path
      d="M.832 8.531c.055.117.082.243.123.365.089.264.153.526.326.753.129.168.383.32.605.356a.572.572 0 0 0 .516-.201c.118-.143.159-.331.14-.509s-.091-.348-.18-.508a3.071 3.071 0 0 0-.821-.935c.224.208.39.466.479.745-.238-.282-.532-.541-.9-.662a2.006 2.006 0 0 0-.572-.091c-.074-.003-.474-.042-.402.082.024.041.158.084.203.111.071.044.14.092.204.145.117.099.216.215.279.349z"
      fill="#605547"
    />
    <path
      d="M0 7.892c.124-.08.257-.152.401-.187.106-.026.216-.032.326-.031.485.004.98.152 1.341.476s.564.839.45 1.31c-.014.06-.036.123-.083.162-.085.07-.212.041-.311-.005-.311-.144-.546-.412-.75-.687-.203-.276-.387-.57-.637-.804-.092-.085-.207-.165-.336-.168A1.563 1.563 0 0 1 0 7.892z"
      fill="#605547"
    />
  </svg>