<?xml version="1.0" encoding="utf-8"?>
<svg version="1.1" xmlns="http://www.w3.org/2000/svg" xmlns:xlink="http://www.w3.org/1999/xlink" x="0px" y="0px"
	 viewBox="0 0 23 23" style="enable-background:new 0 0 100 100;" xml:space="preserve">
	 <path
      d="M14.017 11.75a3.612 3.612 0 0 0-.056 2.595c.648 1.776 2.617 2.861 3.113 4.685.176.647.146 1.341-.031 1.989-.209.765-.753 1.56-1.545 1.596.614-.452.877-1.298.708-2.042-.168-.744-.724-1.369-1.407-1.708-.608-.302-1.298-.393-1.928-.647a4.014 4.014 0 0 1-2.348-2.694 4.014 4.014 0 0 1 .788-3.485c.103-.125.227-.25.387-.274.11-.017.221.018.328.053.696.225 1.449.492 1.836 1.112"
      fill="#b79ec9"
    />
    <path
      d="M4.707 7.223c-.83 1.939-1.263 4.097-.894 6.174.158.887.477 1.777 1.104 2.425.454.469 1.045.787 1.502 1.253.688.7 1.025 1.728.887 2.7-.095.667-.442 1.338-1.046 1.637s-1.466.083-1.715-.544c.254.785 1.04 1.367 1.865 1.379s1.628-.545 1.905-1.323c.023.417-.05.857-.303 1.19-.253.333-.715.526-1.106.379.929.31 1.903.625 2.869.464.966-.161 1.9-.967 1.846-1.945.327.647-.078 1.384-.684 1.816.635-.187 1.043-.929 1.326-1.56.142.614-.258 1.303-.862 1.484.923.275 1.97.094 2.748-.473s1.269-1.51 1.289-2.472c.007-.338-.044-.687-.218-.977-.129-.215-.318-.387-.511-.547a8.582 8.582 0 0 0-1.152-.805c-.582-.339-1.207-.612-1.735-1.031-.528-.419-.96-1.027-.959-1.701.001-.943.801-1.659 1.482-2.312 1.446-1.387 2.64-3.099 3.12-5.045.168-.68.243-1.419-.025-2.066-.194-.469-.553-.852-.939-1.181a7.192 7.192 0 0 0-3.703-1.648c-.796-.107-1.572-.265-2.358-.391-.648-.104-.889.338-1.23.822-.954 1.357-1.848 2.768-2.503 4.298z"
      fill="#b79ec9"
    />
    <path
      d="M20.246 5.628c.239 1.425-.327 2.92.048 4.316.172.639.464 1.266.369 1.921a4.365 4.365 0 0 1-.725 1.848c-.37.54-.806 1.035-1.151 1.591-.17.273-.318.561-.513.818-.126.166-.292.328-.5.343-.635.045-1.328-.059-1.935-.251-.82-.259-2.348-.893-2.847-1.593-.355-.498-1.09-.628-1.517-1.066-.272-.279-.52-.605-.598-.987-.103-.506-.061-.945.02-1.455.219-1.368.448-2.764 1.095-3.99.586-1.11 1.501-2.035 2.575-2.686s2.301-1.033 3.549-1.168c.285-.031.584-.047.846.067.319.138.53.445.693.752.265.498.498.983.591 1.54z"
      fill="#fbe7d9"
    />
    <path
      d="M13.078 10.328c.145.251.391.442.671.521.491.139 1.006-.065 1.514-.114.187-.018.382-.014.553.063a1.293 1.293 0 0 0-.075-.602 1.353 1.353 0 0 0-.331-.564c-.15-.142-.343-.23-.532-.315a.936.936 0 0 0-.255-.086c-.108-.014-.217.013-.324.037-.217.05-.436.093-.655.129-.174.029-.426.014-.583.097-.273.145-.097.638.017.834z"
      fill="#fff"
    />
    <path
      d="M19.134 13.814c-.385.063-.705-.304-1.087-.386-.459-.099-.892.225-1.347.341a1.557 1.557 0 0 1-.894-.039c.339.157.722.236 1.09.305.421.078.846.157 1.274.145.428-.012.865-.122 1.203-.386-.065.009-.175.01-.239.02z"
      fill="#e14187"
    />
    <path
      d="M17.091 14.687c.343.143.744.117 1.087-.028.343-.145.631-.399.859-.693a103.167 103.167 0 0 0-2.188-.055c-.169-.003-.522.058-.66-.033.28.301.506.644.902.809z"
      fill="#e14187"
    />
    <path
      d="M17.468 12.641c.043.06.106.101.173.133a.83.83 0 0 0 .974-.225c.07-.087.121-.214.059-.308-.002.057-.042.107-.091.137a.51.51 0 0 1-.162.055c-.302.064-.616.107-.919.045a.54.54 0 0 1-.109-.038.422.422 0 0 0 .075.201z"
      fill="#d3ad93"
    />
    <path
      d="M19.031 9.542c.306-.182.652-.281.994-.376.034-.009.071-.019.104-.009.069.021.09.106.098.178.035.308.039.64-.125.902-.165.263-.475.408-.783.444a2.38 2.38 0 0 1-.694-.041c-.069-.012-.246-.015-.287-.079-.027-.042.015-.176.028-.225.092-.341.37-.618.665-.794z"
      fill="#fff"
    />
    <path
      d="M12.959 9.215c.232.073.483.056.724.021s.482-.086.725-.078c.679.022 1.305.563 1.425 1.232-.163-.354-.358-.73-.71-.897-.245-.116-.531-.11-.798-.063s-.526.134-.794.173c-.185.027-.382.029-.551-.052-.329-.158-.329-.475-.482-.748.052.202.271.352.461.412z"
      fill="#28241f"
    />
    <path
      d="M14.986 9.465c.059.26.069.548-.067.777a.762.762 0 0 1-.539.352.953.953 0 0 1-.636-.142.477.477 0 0 1-.155-.141.505.505 0 0 1-.058-.142 1.54 1.54 0 0 1-.051-.573c.191-.046.395-.081.586-.127.157-.038.316-.076.478-.081.161-.006.307-.013.442.077z"
      fill="#5c617a"
    />
    <path
      d="M14.433 9.632a.292.292 0 0 0-.103.112c-.04.073-.058.167-.013.237.049.075.149.092.238.103.087.01.187.016.248-.047.041-.043.051-.106.058-.165a.26.26 0 0 0-.004-.121.207.207 0 0 0-.073-.088.353.353 0 0 0-.351-.031z"
      fill="#fff"
    />
    <path
      d="M20.048 9.297c.137.149.08.635-.037.831-.097.163-.274.273-.462.301s-.384-.021-.544-.122a.417.417 0 0 1-.133-.121.442.442 0 0 1-.05-.121c-.045-.159-.026-.244-.009-.408.163-.039.304-.152.467-.192.135-.032.301-.185.439-.174.196.016.323-.032.329.006z"
      fill="#5c617a"
    />
    <path
      d="M19.595 9.606a.24.24 0 0 0-.088.096c-.035.062-.05.143-.011.203.042.064.128.079.204.088.074.009.161.014.212-.04.035-.037.043-.091.05-.142.004-.035.009-.071-.003-.104a.173.173 0 0 0-.062-.075c-.077-.058-.217-.075-.302-.026z"
      fill="#fff"
    />
    <path
      d="M18.418 10.352c.07-.479.415-.907.868-1.076.205-.077.427-.103.626-.193.199-.089.383-.269.382-.487.081.244.094.493.023.74-.3.006-.595.015-.882.101a1.673 1.673 0 0 0-1.03.909c.027-.02-.013.027.013.006z"
      fill="#28241f"
    />
    <path
      d="M20.337 3.525a1.67 1.67 0 0 0-.558-1.098c-.213-.186-.469-.314-.712-.458-.297-.176-.578-.379-.872-.56-.871-.536-1.85-.876-2.846-1.105-1.763-.406-3.657-.465-5.343.191S6.884 2.613 6.588 4.398a.404.404 0 0 0 .007.221c.042.1.15.15.238.213.183.133.289.346.45.505.203.203.482.309.747.421.83.35 1.635.839 2.141 1.584.237.349.274.843.685.94.998.235 2.053-.042 2.974-.491.921-.449 1.751-1.065 2.644-1.569.893-.503 1.889-.9 2.913-.847.212.011.426.043.619.132.149.07.282.174.385.302-.139-.116-.265-.199-.404-.316.139.11.314.703.317 1.071.292-.103.293-.314.479-.562.242-.324.438-.683.58-1.062.037-.099.071-.201.076-.307.012-.257-.15-.497-.359-.647-.209-.15-.46-.226-.707-.3"
      fill="#b79ec9"
    />
    <path
      d="M11.331 8.726c-.576-1.13-1.627-1.951-2.745-2.552-.429-.23-.881-.439-1.236-.773-.175-.165-.331-.364-.553-.46-.056.559.197 1.096.325 1.643.105.447.128.91.197 1.364.132.871.437 1.715.892 2.469.408.678.939 1.289 1.234 2.023.059.147.11.301.215.42.148.168.385.238.609.227.224-.011.438-.095.64-.192.116-.295.207-.671.215-.988.009-.334-.043-.667-.051-1.001-.009-.382.039-.763.088-1.142.043-.352.125-.684.17-1.038z"
      fill="#fbe7d9"
    />
    <path
      d="M7.766 6.582c.365.134.713.302 1.042.518.323.215.636.5.838.833.439.667.773 1.332 1.045 2.065-.52-.573-.894-1.266-1.331-1.854-.172-.34-.443-.574-.718-.828-.278-.248-.586-.474-.876-.734z"
      fill="#d2ab90"
    />
    <path
      d="M9.11 7.726c.227.177.438.387.555.687.123.31.044.646-.025.918-.097.271-.183.519-.197.764-.012.232.073.507.329.644-.313.011-.564-.31-.602-.627-.045-.323.066-.619.13-.883.094-.26.144-.502.103-.741-.039-.247-.18-.495-.293-.762z"
      fill="#d2ab90"
    />
    <path
      d="M20.469 3.806a4.41 4.41 0 0 0-2.638-.555 4.188 4.188 0 0 0-2.408 1.094c-.701.576-1.322 1.296-2.086 1.853a9.838 9.838 0 0 1-2.45 1.359c.81-.46 1.579-.978 2.279-1.573.709-.585 1.311-1.283 2.028-1.91.717-.619 1.651-1.062 2.616-1.093.959-.046 1.929.236 2.659.825zM6.868 5.701c-.539.603-1.085 1.218-1.441 1.935-.364.71-.531 1.508-.534 2.299-.009 1.596.628 3.13 1.531 4.443.44.669.943 1.337 1.248 2.125.299.784.417 1.615.444 2.432.032.803.021 1.693-.443 2.418-.42.728-1.463 1.105-2.152.593.728.451 1.667.01 2.004-.683.398-.688.383-1.518.319-2.312-.068-.799-.175-1.598-.472-2.329-.292-.73-.784-1.37-1.242-2.047-.901-1.36-1.577-2.969-1.508-4.646.037-.828.243-1.655.654-2.375.421-.716 1.012-1.289 1.592-1.853z"
      fill="#846f93"
    />
    <path
      d="M7.137 22.409c.02.102.155.073.227.045a2.293 2.293 0 0 0 .711-.384 2.54 2.54 0 0 0 .662-.83c.327-.631.498-1.35.543-2.057.097-1.434-.504-2.799-1.207-4.054-.677-1.274-1.498-2.548-1.771-4.034a6.036 6.036 0 0 1 .806-4.263 6.366 6.366 0 0 0-.537 4.209c.312 1.403 1.103 2.641 1.815 3.918.682 1.277 1.328 2.722 1.166 4.245-.083.743-.287 1.472-.664 2.121a2.666 2.666 0 0 1-.761.814 2.341 2.341 0 0 1-.755.335c-.076.024-.223.043-.235-.065zM10.063 13.346c.625 1.756 1.906 3.099 2.982 4.613.266.376.506.796.7 1.245.151.476.141.99-.008 1.451-.289.942-1.033 1.626-1.831 2.074.717-.568 1.364-1.283 1.567-2.146.095-.427.108-.874-.036-1.277a6.869 6.869 0 0 0-.685-1.144c-.51-.759-1.094-1.478-1.593-2.265-.496-.783-.93-1.635-1.096-2.551z"
      fill="#846f93"
    />
    <g>
      <path
        d="M7.646 5.72c.937.012 1.849-.352 2.479-.997.626-.645 1.134-1.479 1.879-2.096C13.463 1.393 15.412.717 17.29.911a8.687 8.687 0 0 0-2.709.58c-.853.339-1.662.797-2.346 1.406-.728.562-1.206 1.366-1.924 2.025-.722.657-1.737.96-2.665.798zM7.126 5.115c.757-.391 1.08-1.185 1.556-1.868.483-.704 1.15-1.257 1.863-1.705C11.997.689 13.683.215 15.348.306c-.823.102-1.63.265-2.404.528-.773.26-1.531.574-2.214 1.011-.7.406-1.327.932-1.829 1.562-.493.615-.942 1.452-1.775 1.708z"
        fill="#846f93"
      />
    </g>
    <path
      d="M20.127 7.466a2.824 2.824 0 0 0-2.195 1.031c-.134.166-.259.365-.293.575-.128-.309-.264-.63-.516-.849a1.984 1.984 0 0 0-.377-.242 4.093 4.093 0 0 0-.492-.233c-.456-.172-.951-.204-1.438-.233-.182-.011-.373-.02-.536.062.183-.104.521-.272.661-.421.544-.123.779-.155 1.313.004.535.159 1.024.49 1.334.954.572-.777 1.74-1.261 2.702-1.187.015.175-.028.351-.043.546.005-.014-.124.008-.12-.007z"
      fill="#f7c132"
    />
    <g>
      <path
        d="M14.701 2.728c-.354-.195-.599-.624-.598-1.047.151.308.589.334.743.641.026-.321.142-.627.328-.866-.016.211.141.408.157.622.01.132-.036.257-.08.376a.746.746 0 0 1 .423-.406c.181-.075.38-.097.576-.117-.224.135-.262.468-.418.687a.617.617 0 0 1-.387.251c.154-.076.341-.009.5.079.158.088.316.198.489.211a2.173 2.173 0 0 1-.545.188.781.781 0 0 1-.568-.114c.326.243.532.677.52 1.095l-.462-.263a.88.88 0 0 1-.166-.112c-.13-.118-.191-.301-.246-.473a.792.792 0 0 1-.12.506 2.037 2.037 0 0 1-.328.382c.035-.169-.021-.351-.019-.527a.754.754 0 0 1 .092-.356c.044-.08.175-.164.185-.259-.116.175-.337.249-.54.242-.204-.008-.406-.069-.61-.086.2-.177.291-.494.531-.603.162-.076.359-.05.543-.051z"
        fill="#fff"
      />
      <path
        d="M14.995 3.272c.126.052.229.158.327.261-.025-.054-.064-.098-.096-.148-.032-.05-.056-.11-.045-.167.014-.069.077-.109.14-.125s.13-.015.19-.037A.795.795 0 0 1 15.317 3c-.014-.006-.03-.014-.036-.03-.004-.01-.002-.022 0-.032.028-.156.124-.287.138-.446a.899.899 0 0 1-.135.205c-.027.03-.06.06-.1.054-.053-.008-.083-.074-.098-.132a1.223 1.223 0 0 1-.038-.312c-.044.118-.008.267-.065.377-.003.008-.006.013-.011.016-.013.008-.029-.006-.041-.018a1.297 1.297 0 0 0-.284-.225.935.935 0 0 1 .168.234c.014.028.027.06.018.089a.1.1 0 0 1-.03.04c-.062.059-.125.119-.201.154-.072.033-.16.047-.201.119.146-.065.322-.022.471-.078.031.192.014.39-.049.565l.104-.211c.01-.02.02-.041.036-.056.023-.021.054-.026.083-.032"
        fill="#f2ede2"
      />
    </g>
    <g>
      <path
        d="M10.262 6.123c-.009.247.088.483.176.713.088.23.17.476.129.719.323-.14.614-.354.845-.621a.971.971 0 0 0 .229-.402c.066-.285-.078-.573-.237-.818.152.148.161.392.285.565.157.218.454.272.721.303.422.049.846.086 1.271.112a2.181 2.181 0 0 0-1.619-1.431c.113.084.275.074.401.012s.225-.168.32-.272l.808-.877a1.936 1.936 0 0 0-1.765.388c-.003-.46-.458-.824-.462-1.284-.261.248-.675.386-.757.736-.058.248.083.494.218.709a1.705 1.705 0 0 0-1.248-.229 1.713 1.713 0 0 0-1.056.703c.215-.102.473-.042.689.061.215.102.412.244.64.313.114.034.483-.015.545.066.083.106-.128.401-.133.534z"
        fill="#fff"
      />
      <path
        d="M10.868 4.838a.375.375 0 0 0-.138.15c-.025.052-.03.112-.025.169a.344.344 0 0 0 .091.212.358.358 0 0 0 .117.074c.227.094.486.035.723-.031.036-.01.072-.02.103-.042.069-.048.092-.144.071-.225a.4.4 0 0 0-.143-.201c-.068-.056-.144-.1-.215-.151-.043-.031-.08-.061-.133-.071-.154-.031-.326.03-.451.116z"
        fill="#f2ede2"
      />
      <path d="M12.733 3.494s-.007.007-.005.011" fill="none" />
      <path
        d="M10.32 4.94c-.044.003-.096.012-.113.052l.601.146c.074.018.163.052.172.127.004.037-.013.073-.028.107-.099.235-.064.502-.028.754.029-.226.085-.448.167-.66a.125.125 0 0 1 .035-.057.12.12 0 0 1 .064-.022c.158-.017.313.05.451.129s.271.172.424.215a4.329 4.329 0 0 1-.409-.38c-.011-.012-.023-.026-.021-.041.001-.016.015-.028.028-.038.224-.172.417-.384.567-.623a1.747 1.747 0 0 1-.473.295c-.09.038-.201.066-.28.008-.061-.045-.08-.125-.107-.195-.074-.191-.238-.357-.233-.562-.003.146-.046.289-.044.436.001.071.07.303-.033.327-.031.007-.071-.027-.098-.037-.062-.022-.117-.015-.181-.011l-.461.03z"
        fill="#f2ede2"
      />
    </g>
    <path
      d="M11.947 8.937c-.343.487-.64 1.025-.721 1.615-.081.59.09 1.24.549 1.619.252.208.569.32.837.506.512.355.816.988.774 1.609s-.43 1.208-.984 1.49c-.565.288-1.248.264-1.816.547-.162.081-.317.19-.415.342a.952.952 0 0 0-.123.593c.022.265.129.539.35.688.22.149.565.122.709-.102-.215.255-.635.272-.906.079s-.396-.55-.368-.882c.028-.332.189-.641.395-.903.22-.28.493-.519.8-.698.206-.121.431-.217.606-.38.23-.213.352-.52.42-.827.058-.264.079-.552-.043-.792-.105-.205-.298-.346-.464-.505-.613-.587-.874-1.471-.863-2.32.011-.849.185-1.396.477-2.193.024-.067.279-.057.328-.057.264.002.346-.03.584-.042.181-.009.305-.032.478-.068-.1.111-.346.315-.604.681z"
      fill="#846f93"
    />
    <path
      d="M16.568 7.223c.174-.028.322-.145.435-.28.258-.306.374-.703.484-1.088.003.41.205.813.531 1.061.326.248.769.334 1.165.226l-.322.343c-.021.023-.044.046-.075.053a.155.155 0 0 1-.079-.01c-.269-.081-.54-.164-.781-.308s-.451-.358-.533-.626c-.101.211-.206.42-.321.624-.119.211-.258.426-.472.54 0 0-.483-.415-.502-.455-.082-.174.369-.064.47-.08z"
      fill="#f7c132"
    />
  </svg>