<?xml version="1.0" encoding="utf-8"?>
<svg version="1.1" xmlns="http://www.w3.org/2000/svg" xmlns:xlink="http://www.w3.org/1999/xlink" x="0px" y="0px"
	 viewBox="0 0 23 23" style="enable-background:new 0 0 100 100;" xml:space="preserve">
	 <path
      fill="#E2A4C4"
      d="M3.194 20.39c-.063.07-.18-.055-.136-.139s.15-.105.244-.117c4.308-.565 7.825-1.191 12.057-2.175 1.758-.41 4.426-.734 5.595-2.11.903.26 1.673.98 1.893 1.893s-.085 1.934-.77 2.576c-.945.886-2.365.97-3.66.994-3.686.07-7.373.053-11.059.033-1.865-.01-3.884-.53-5.555-1.188.303-.234 1.088.467 1.39.233z"
    />
    <path
      fill="#D0CAE4"
      d="M2.4 20.838C1.503 20.781.733 20.1.363 19.283c-.609-1.343-.201-3.073.944-4.003.858-.698 2.008-.931 3.114-.965s2.214.107 3.319.053c.721-.034 1.436-.152 2.148-.269 2.445-.402 4.585-1.468 6.907-2.331.6-.223 1.038.102 1.526-.312.213-.18.056-.497.327-.565.363-.092 1.464.357 1.753.596 1.21.998 1.333 2.933.552 4.293s-1.836 2.049-3.743 2.826c-1.453.592-3.352 1.07-5.281 1.454-3.333.662-6.14.993-9.53.778z"
    />
    <path
      fill="#B3E0D8"
      d="M5.814 6.934c.931-.548 2.07-.62 3.146-.523 1.076.098 2.136.351 3.216.403s2.222-.125 3.075-.789c.165-.128.327-.279.531-.325a1 1 0 0 1 .46.03c.682.17 1.35.613 1.554 1.287.285.945-.448 1.919-1.304 2.41-1.29.74-2.911 1.086-4.398 1.123-1.17.029-2.276-.232-3.446-.203-.98.024-3.452.364-4.41.107 0 0-.58-1.756 1.576-3.52z"
    />
    <path
      fill="#FDE062"
      d="M10.294 4.177c.655-.079 1.247-.466 1.757-.884s.907-1.002 1-1.655c.266.84.728 1.617 1.339 2.252.445.463 1.013.955.966 1.596s-.702 1.059-1.32 1.235c-1.497.428-4.868.028-6.365-.393 0 0-.245-1.805 2.623-2.15z"
    />
    <path
      fill="#E0F3FA"
      d="M2.438 11.825c.584-.94 1.604-1.586 2.699-1.749.581-.086 1.173-.043 1.76 0l2.224.165c2.542.188 5.304.32 7.413-1.11.741-.502 1.1-.752 1.324-1.618.764.483 1.517.928 1.478 1.83-.061 1.42-1.257 2.527-2.49 3.234-2.803 1.609-6.138 2.004-9.37 2.034-1.208.012-2.42-.023-3.62.1-.38.04-1.594.012-1.594.012-.898-.829-.242-2.226.176-2.898z"
    />
    <path
      fill="#1B1B1A"
      d="M15.209 16.97c-.036.284.013.599.226.804.13.126.31.198.49.245.266.07.564.093.81-.029.237-.118.388-.358.45-.606.064-.248.187-.933-.264-1.183-.716-.397-1.602-.111-1.712.768z"
    />
    <path
      fill="#FFF"
      d="M16.055 17.444a.42.42 0 0 0 .266.34.3.3 0 0 0 .122.025.356.356 0 0 0 .136-.039.579.579 0 0 0 .3-.277.381.381 0 0 0-.03-.348c-.229-.362-.823-.074-.794.299z"
    />
    <path
      fill="#1B1B1A"
      d="M5.047 17.003c-.036.285.014.6.226.804.131.126.31.198.49.246.267.07.565.093.81-.03.238-.118.388-.358.451-.606.064-.248.186-.933-.265-1.183-.716-.397-1.602-.11-1.712.768z"
    />
    <path
      fill="#FFF"
      d="M5.894 17.477a.42.42 0 0 0 .266.34.3.3 0 0 0 .122.026.356.356 0 0 0 .136-.04.579.579 0 0 0 .299-.276.381.381 0 0 0-.03-.349c-.228-.362-.823-.073-.793.299z"
    />
    <path
      fill="none"
      stroke="#1B1B1A"
      strokeWidth="0.186"
      strokeLinecap="round"
      strokeLinejoin="round"
      strokeMiterlimit="10"
      d="M10.048 18.43a1.024 1.024 0 0 0-.015.248c.03.294.353.528.658.48s.53-.373.456-.66a.504.504 0 0 0 .186.525c.16.123.386.158.583.104.31-.085.421-.348.4-.654"
    />
  </svg>