<?xml version="1.0" encoding="utf-8"?>
<svg version="1.1" xmlns="http://www.w3.org/2000/svg" xmlns:xlink="http://www.w3.org/1999/xlink" x="0px" y="0px"
	 viewBox="0 0 23 23" style="enable-background:new 0 0 100 100;" xml:space="preserve">
	 <g fill="#7d5530">
      <path d="M12.786 11.777c-.337-.163-.866-.395-1.239-.427-.487-.042-1.515.127-1.961.33-2.004.911-3.031 2.589-4.293 4.392a8.889 8.889 0 0 0-1.408 3.306c-.229 1.162.113 2.519 1.118 3.145.833.519 1.918.428 2.844.103.563-.198 1.23-.688 1.827-.684.509.003.857.331 1.642.313.877-.02 1.202-.459 1.908-.47.495-.007.781.104 1.257.24.509.145 1.05.12 1.579.094.321-.016.65-.034.945-.163.447-.196.757-.631.899-1.098.141-.467.133-.966.086-1.452-.314-3.262-2.252-6.206-5.204-7.629zM8.437 8.523c1.582-.197 2.627-2.259 2.335-4.605C10.479 1.572 8.959-.169 7.377.029 5.795.227 4.75 2.288 5.043 4.634c.292 2.345 1.812 4.087 3.394 3.889zM14.499 8.418c1.56.329 3.22-1.279 3.708-3.592S17.826.371 16.265.042c-1.56-.329-3.22 1.279-3.708 3.592-.487 2.314.382 4.455 1.942 4.784zM22.12 8.1c-1.199-.834-3.173-.068-4.41 1.71-1.236 1.778-1.266 3.895-.067 4.729 1.199.834 3.173.068 4.41-1.71 1.236-1.778 1.266-3.896.067-4.729zM5.1 9.51c-.547-2.009-2.09-3.338-3.445-2.969C.3 6.91-.355 8.838.193 10.847c.547 2.009 2.09 3.338 3.445 2.969 1.355-.369 2.01-2.297 1.462-4.306z" />
    </g>
  </svg>