<?xml version="1.0" encoding="utf-8"?>
<svg version="1.1" xmlns="http://www.w3.org/2000/svg" xmlns:xlink="http://www.w3.org/1999/xlink" x="0px" y="0px"
	 viewBox="0 0 23 23" style="enable-background:new 0 0 100 100;" xml:space="preserve">
	 <g fill="#fff">
      <path d="M15.824 9.833l-6.633 1.041-2.754-4.39-.784 5.906-5.659 1.751 5.738 2.076-.625 5.297 4.312-5.061 5.018 3.315-2.82-5.742z" />
      <path d="M19.227 10.679l-1.389 2.526-3.186-.026 2.802 1.77-1.173 2.464 2.792-1.751 1.85 2.287-.464-3.096 2.535-1.309-3.152-.48zM9.282 6.446l2.237-.942 1.003 1.939.122-2.318 2.008-.564-2.17-.801-.091-1.782-1.34 1.574-2.3-.488 1.736 1.668zM20.264 5.936l.471-1.762-1.58 1.28-1.388-.732.592 1.732-1.386 1.501 2.038-.562.841 1.462.195-1.913 1.889.111z" />
    </g>
  </svg>