<?xml version="1.0" encoding="utf-8"?>
<!-- Generator: Adobe Illustrator 25.1.0, SVG Export Plug-In . SVG Version: 6.00 Build 0)  -->
<svg version="1.1" xmlns="http://www.w3.org/2000/svg" xmlns:xlink="http://www.w3.org/1999/xlink" x="0px" y="0px"
	 viewBox="0 0 100 100" style="enable-background:new 0 0 100 100;" xml:space="preserve">
<g id="print">
	<path fill="none" class="st0" d="M34,3.9C34,3.9,34,3.9,34,3.9C34,3.9,34,3.9,34,3.9z"/>
	<path fill="none" class="st0" d="M33.3,4.6c0.1-0.1,0.1-0.2,0.2-0.2c0.1-0.2,0.3-0.3,0.4-0.4C33.6,4.1,33.4,4.3,33.3,4.6z"/>
	<g>
		<path fill="#F3BEB8" class="st1" d="M26,17.7c-3.6,2.6-6.8,5.8-9.8,9c-2.1,2.2-4.2,4.5-6,7C3.7,43,2.1,54.8,1.2,66.1c-0.6,7.4-1,14.8-0.8,22.3
			c2.4,0.1,4.9-0.1,7.3-0.5C7.3,88,7.1,73.4,7.2,72c0.3-5.6,1.2-11.2,2.6-16.7c1.4-5.6,2.7-10.4,6.5-14.7c4.1-4.6,7-9.7,12.4-13
			c2.5-1.5,5.3-2.6,8.1-3.7C47,20,57.2,18.4,67.3,23.2c8.8,4.2,16.2,11.7,19.5,21c4.9,13.8,0.9,29.2,3.6,43.5
			c3.1-0.5,6.1-0.7,9.2-0.6c0.2-22-3.4-44.7-15.5-63c-1.5-2.2-3.1-4.4-5.2-6c-2.5-1.9-5.6-2.9-8.6-3.8c-7.4-2.1-16-4.6-23.7-4.4
			C39.4,10.2,31.8,13.6,26,17.7z"/>
		<path fill="#CA3B17" class="st2" d="M13.7,59.9c0.6-2.7,1.2-5.3,2.3-7.8c1.1-2.8,2.8-5.3,4.4-7.8c2.7-4.3,5.6-8.7,9.8-11.4
			c3.7-2.3,8.2-3.2,12.6-3.7c3.6-0.4,7.2-0.7,10.9-0.8c7.1-0.2,14.6,0.5,20.4,4.6c6.6,4.7,9.6,13.1,11.2,21.1
			c2.2,11.2,2.6,22.8,1,34.1c-2-0.1-3.9-0.2-5.9-0.2c-0.8-5.7-0.4-11.6-0.9-17.4c-0.7-7.6-3.2-15-7.3-21.5c-1.9-3.1-4.2-6-7.2-7.9
			c-4.3-2.7-9.5-3.3-14.6-3.7c-2.4-0.2-4.9-0.4-7.3,0.1c-2.5,0.4-4.8,1.5-7,2.6c-2.4,1.3-4.8,2.9-6.5,5.1c-1.4,1.8-2.3,4-3.2,6.2
			c-4.7,11.9-9.5,24.4-7.7,37.1c-1.6,0.1-8.1,1.9-9,0.9c-0.7-0.8,1.1-5.8,1.2-6.9C11.3,74.8,12.1,67.3,13.7,59.9z"/>
		<path fill="#D18965" class="st3" d="M24.2,74.8c0-2.6,0.1-5.1,0.6-7.7c0.8-3.9,2.6-7.5,4.3-11.1c1.1-2.3,2.3-4.6,3.9-6.5c2.2-2.6,5.3-4.3,8.3-5.9
			c3.1-1.6,6.5-3,10-3c3.9,0,7.5,1.8,10.7,3.8c3.3,2.1,6.4,4.6,8.4,7.8c1.8,2.8,2.7,6.1,3.4,9.4c1.9,8.6,2.8,17.4,2.6,26.2
			c-1.5,0-3.1,0-4.6,0c-0.3,0-0.7,0-1-0.2c-0.5-0.3-0.5-0.9-0.6-1.5c-0.3-6.2-0.5-12.6-2.2-18.6c-1.7-6-5-11.8-10.3-15.2
			s-12.6-3.8-17.6-0.1c-1.6,1.2-2.9,2.8-4,4.4C32.4,63,31.6,70,31.7,77c0,3.1,1.2,8.1,0.2,11c-0.8,2.4-4.6,1-7.2,1.6
			C24.7,84.7,24.2,79.8,24.2,74.8z"/>
		<path fill="#F4B507" class="st4" d="M37.7,70.5c-0.3,5.6-0.4,11.3-0.2,16.9c1.8,0.2,3.6,0.3,5.3,0.5c0.5-5-0.3-10.1,0.2-15.2
			c0.6-5,3-10.4,7.7-12.2c1.9-0.7,4.5-0.7,5.6,1.1c0.6,0.9,0.7,2,0.7,3.1c0.4,7.7,0.8,15.4,1.1,23c2,0.5,4,0.6,6,0.3
			c-0.3-4.8-0.6-9.7-0.9-14.5c-0.2-3.5-0.4-7-1.5-10.2c-2.1-6.5-7.8-10.5-14.8-9C39.9,55.8,38.1,64.4,37.7,70.5z"/>
	</g>
</g>
<g id="vernish" display="none" class="st5">
	<g display="inline" class="st6">
		<path fill="#A191B2" class="st7" d="M26,17.7c-3.6,2.6-6.8,5.8-9.8,9c-2.1,2.2-4.2,4.5-6,7C3.7,43,2.1,54.8,1.2,66.1c-0.6,7.4-1,14.8-0.8,22.3
			c2.4,0.1,4.9-0.1,7.3-0.5C7.3,88,7.1,73.4,7.2,72c0.3-5.6,1.2-11.2,2.6-16.7c1.4-5.6,2.7-10.4,6.5-14.7c4.1-4.6,7-9.7,12.4-13
			c2.5-1.5,5.3-2.6,8.1-3.7C47,20,57.2,18.4,67.3,23.2c8.8,4.2,16.2,11.7,19.5,21c4.9,13.8,0.9,29.2,3.6,43.5
			c3.1-0.5,6.1-0.7,9.2-0.6c0.2-22-3.4-44.7-15.5-63c-1.5-2.2-3.1-4.4-5.2-6c-2.5-1.9-5.6-2.9-8.6-3.8c-7.4-2.1-16-4.6-23.7-4.4
			C39.4,10.2,31.8,13.6,26,17.7z"/>
		<path fill="#A191B2" class="st7" d="M13.7,59.9c0.6-2.7,1.2-5.3,2.3-7.8c1.1-2.8,2.8-5.3,4.4-7.8c2.7-4.3,5.6-8.7,9.8-11.4
			c3.7-2.3,8.2-3.2,12.6-3.7c3.6-0.4,7.2-0.7,10.9-0.8c7.1-0.2,14.6,0.5,20.4,4.6c6.6,4.7,9.6,13.1,11.2,21.1
			c2.2,11.2,2.6,22.8,1,34.1c-2-0.1-3.9-0.2-5.9-0.2c-0.8-5.7-0.4-11.6-0.9-17.4c-0.7-7.6-3.2-15-7.3-21.5c-1.9-3.1-4.2-6-7.2-7.9
			c-4.3-2.7-9.5-3.3-14.6-3.7c-2.4-0.2-4.9-0.4-7.3,0.1c-2.5,0.4-4.8,1.5-7,2.6c-2.4,1.3-4.8,2.9-6.5,5.1c-1.4,1.8-2.3,4-3.2,6.2
			c-4.7,11.9-9.5,24.4-7.7,37.1c-1.6,0.1-8.1,1.9-9,0.9c-0.7-0.8,1.1-5.8,1.2-6.9C11.3,74.8,12.1,67.3,13.7,59.9z"/>
		<path fill="#A191B2" class="st7" d="M24.2,74.8c0-2.6,0.1-5.1,0.6-7.7c0.8-3.9,2.6-7.5,4.3-11.1c1.1-2.3,2.3-4.6,3.9-6.5c2.2-2.6,5.3-4.3,8.3-5.9
			c3.1-1.6,6.5-3,10-3c3.9,0,7.5,1.8,10.7,3.8c3.3,2.1,6.4,4.6,8.4,7.8c1.8,2.8,2.7,6.1,3.4,9.4c1.9,8.6,2.8,17.4,2.6,26.2
			c-1.5,0-3.1,0-4.6,0c-0.3,0-0.7,0-1-0.2c-0.5-0.3-0.5-0.9-0.6-1.5c-0.3-6.2-0.5-12.6-2.2-18.6c-1.7-6-5-11.8-10.3-15.2
			s-12.6-3.8-17.6-0.1c-1.6,1.2-2.9,2.8-4,4.4C32.4,63,31.6,70,31.7,77c0,3.1,1.2,8.1,0.2,11c-0.8,2.4-4.6,1-7.2,1.6
			C24.7,84.7,24.2,79.8,24.2,74.8z"/>
		<path fill="#A191B2" class="st7" d="M37.7,70.5c-0.3,5.6-0.4,11.3-0.2,16.9c1.8,0.2,3.6,0.3,5.3,0.5c0.5-5-0.3-10.1,0.2-15.2
			c0.6-5,3-10.4,7.7-12.2c1.9-0.7,4.5-0.7,5.6,1.1c0.6,0.9,0.7,2,0.7,3.1c0.4,7.7,0.8,15.4,1.1,23c2,0.5,4,0.6,6,0.3
			c-0.3-4.8-0.6-9.7-0.9-14.5c-0.2-3.5-0.4-7-1.5-10.2c-2.1-6.5-7.8-10.5-14.8-9C39.9,55.8,38.1,64.4,37.7,70.5z"/>
	</g>
</g>
</svg>
