<?xml version="1.0" encoding="utf-8"?>
<svg version="1.1" xmlns="http://www.w3.org/2000/svg" xmlns:xlink="http://www.w3.org/1999/xlink" x="0px" y="0px"
	 viewBox="0 0 100 100" style="enable-background:new 0 0 100 100;" xml:space="preserve">
      <g id="ETQBallonHand-C_svg__print">
        <g id="ETQBallonHand-C_svg__clair">
          <path
            fill="#fff"
            className="ETQBallonHand-C_svg__st0"
            d="M3.7 58.1c-1.3-5.4-1.9-11-.9-16.5.6-3.1 1.7-6.1 2.7-9 .9-2.7 1.9-5.4 3.4-7.8 1.2-1.9 2.7-3.6 4.3-5.3 3.4-3.5 7.2-6.6 11.2-9.4 0 0 13.9-10.4 37.5-5.6s31.7 28.6 31.7 28.6 8.6 17.9-3.9 41.8-42 22.9-53.3 19.7S9.5 81.3 3.7 58.1z"
          />
          <path
            fill="#91d3f1"
            className="ETQBallonHand-C_svg__st1"
            d="M48.6 39.6l11.9-14.2 19.8 7.3 4.5 19.5-13.5 14.1-7.5-1.8c-4.6-1.1-6.5-1.6-10.6-4l-4.6-20.9"
          />
          <path
            fill="#91d3f1"
            className="ETQBallonHand-C_svg__st1"
            d="M48.6 39.6c.4 1.9.8 3.7 1.2 5.6.7 3.2 1.5 6.4 2.3 9.6.2.9.3 1.5.3 2.3.1 1.3 1.1 2.4.7 3.7-.1.5-.4.8-.7 1.2-3.3 4.2-6.6 8.5-9.8 12.7-.4.5-.8 1-1.3 1.3-.7.3-1.1 0-1.6-.3s-1.2-.5-1.8-.7c-.8-.2-1.6-.5-2.4-.8l-5.4-1.8c-3.4-1.1-6.8-2.3-10.2-3.4.1 0 0 .2-.1.2s-.2-.1-.2-.2c-.8-1.4-1.3-3-1.8-4.6-1.5-5.2-1.9-10.6-1.7-16 3.8-5.4 8.4-10.3 13.5-14.6 6.3 1.1 13.1 3.2 19 5.8zm15-35.4c1.5.4 3 .8 4.4 1.4 2.9 1.2 5.6 2.9 7.9 4.9-.3-.2-1.1-.3-1.4-.4-.5-.1-1.1-.2-1.6-.4-1.1-.4-2.2-.8-3.2-1.3-2.1-.9-4.2-1.7-6.5-2.2-1-.2-2.1-.4-3.1-.2-.8.2-1.2.7-1.8 1.2-1.9 1.5-3.7 3-5.3 4.8-.6.7-1.3 1.5-2.2 1.8-.5.2-1.1.2-1.7.2-5.4 0-10.7 1.1-15.6 3.3-.6.3-1.2.5-1.9.4-.5-.1-.9-.3-1.2-.6-1.7-1.1-3.3-2.2-4.9-3.4-.3-.2-.9-.8-1.3-.9-.4-.1-.7.2-1.1.4-.8.5-1.6 1.1-2.3 1.6-3.3 2.3-6.5 4.6-9.6 7 1.7-2.6 3.7-4.9 6-7 2.9-2.6 6.5-5.4 10-7C32.9 5.2 38.8 3.1 45 2.2c4.1-.6 8.3-.5 12.4.3 2.1.4 4 1.1 6.2 1.7zM81.1 86c-4-.8-7.4-3.6-11.2-4.1-7 3.2-14.5 4.9-22.2 5.2-1.4 2.9-3.3 6.3-4.8 9.1 6.8.8 14 .7 20.7-1S76.3 91 81.1 86z"
          />
          <path
            fill="#91d3f1"
            className="ETQBallonHand-C_svg__st1"
            d="M29.6 33.8l2-16.2s13.1-6.7 18.7-5.8l11.3 14.3-13 13.5-19-5.8zM40 75.6s7 12 8.6 12.8c0 0 20.6-2.8 21.3-6.5l1.4-15.6-18.9-8.2L40 75.6z"
          />
          <path
            fill="#fff"
            className="ETQBallonHand-C_svg__st0"
            d="M47.4 40.9c-.7 0-1.3-.2-1.7-.3l-16.9-5.7c-.4-.1-.6-.5-.4-.9.1-.4.5-.6.9-.4l16.9 5.7c.6.2 1.3.4 1.7.1.2-.1.4-.4.6-.7 3.5-5.1 7.4-9.9 11.7-14.3.3-.3.7-.3 1 0 .3.3.3.7 0 1-4.3 4.3-8.2 9.1-11.6 14.1-.3.4-.5.8-1 1.1-.3.2-.8.3-1.2.3zm-6.8 34.9c-.2 0-.3-.1-.4-.2-.3-.2-.4-.7-.1-1 4.3-5.3 8.3-11 12-16.7.2-.3.6-.4.9-.2 5.8 3.1 11.9 5.8 18.1 8.1.4.1.6.5.4.9-.1.4-.6.6-.9.4-6-2.3-11.9-4.9-17.6-7.9-3.6 5.6-7.5 11.1-11.7 16.3-.3.2-.5.3-.7.3z"
          />
          <path
            fill="#fff"
            className="ETQBallonHand-C_svg__st0"
            d="M52.6 59c-.3 0-.6-.2-.7-.5-.5-1.9-1-3.7-1.4-5.6-1-4.2-2-8.2-3.4-12.6-.1-.4.1-.8.5-.9.4-.1.8.1.9.5 1.4 4.5 2.4 8.4 3.4 12.7.4 1.8.9 3.6 1.4 5.5.1.4-.1.8-.5.9h-.2z"
          />
          <path
            fill="#2f3032"
            className="ETQBallonHand-C_svg__st2"
            d="M6.1 46.5c-.1 0-.1 0-.1-.1-.3-1-.6-2-.9-3.1-.6-1.9-1.3-4-1.5-6 0-.1 0-.1.1-.1s.1 0 .1.1c.2 2 .8 4 1.5 5.9.3 1 .7 2.1.9 3.1 0 .1 0 .2-.1.2zM91 27.7c-1.3-.3-2.5-.6-3.7-1.1-.1 0-.2-.1-.4-.1-.5-.1-1.1-.3-1.3-.6 0-.1 0-.1-.1-.2v-.1c-.1-.3-.1-.6-.1-.9 0-.3-.1-.7-.2-1-.3-1.5-.7-3-1.2-4.4 0-.1-.2-.9-.4-1.6-.2-1-.3-1.4-.4-1.6 0-.1 0-.1.1-.1s.1 0 .1.1.2.9.4 1.6c.2 1 .3 1.4.4 1.6.5 1.5.9 2.9 1.2 4.4.1.3.1.7.2 1 0 .3.1.6.1.8v.2c.2.2.8.4 1.1.5.1 0 .3.1.4.1 1.2.4 2.4.8 3.6 1 .1 0 .1.1.1.1.2.3.1.3.1.3zm4.5 34c-.1 0-.1 0-.1-.1-.1-.8-.1-1.6-.1-2.4 0-2.1-.1-4-1.8-4.8-3.7-1.6-5.4-1.9-7.9-2.5H85c-.1 0-.1-.1-.1-.1 0-.1.1-.1.1-.1l.6.1c2.4.5 4.2.9 7.9 2.5 1.9.8 2 2.9 2 5 0 .8 0 1.6.1 2.4h-.1zM14.8 73.9c-.1 0-.1 0 0 0-.1-.1-.1-.2-.1-.2 1-1 1.5-1.6 2.3-2.2.7-.6 1.5-1.4 2.8-2.7h.2v.2c-1.4 1.4-2.2 2.1-2.8 2.7-.8.6-1.4 1.1-2.4 2.2z"
          />
          <path
            fill="#2f3032"
            className="ETQBallonHand-C_svg__st2"
            d="M3.7 60.5c-.1 0-.1 0-.1-.1-.8-4.1.1-9 2.4-14 0 0 0-.1.1-.1h.1c.9 1 6.5 1.6 8.8 1.8.5 0 .8.1 1.1.1.1 0 .1.1.1.1 0 .1-.1.1-.1.1-.2 0-.6-.1-1.1-.1-2.7-.3-7.6-.8-8.9-1.8-2.2 4.9-3.1 9.8-2.3 13.7 0 .2 0 .2-.1.3z"
          />
          <path
            fill="#2f3032"
            className="ETQBallonHand-C_svg__st2"
            d="M13.6 79.1c-.1 0-.1-.1-.1-.1.1-2.1.4-3.3 1-5.2-4-1.8-6.7-6.6-9.2-10.8-.5-.9-1.1-1.8-1.6-2.6v-.2h.2c.5.8 1 1.7 1.6 2.6 2.4 4.2 5.2 9 9.2 10.7.1 0 .1.1.1.1-.6 2-.9 3.1-1 5.2-.1.2-.1.3-.2.3zM81 33.9s0-.1 0 0c-.1-.1-.1-.1-.1-.2 1.9-2.4 3.3-5.1 4.3-8 0-.1.1-.1.2-.1s.1.1.1.2c-1.1 2.9-2.5 5.6-4.5 8.1.1-.1.1 0 0 0z"
          />
        </g>
      </g>
    </svg>