<?xml version="1.0" encoding="utf-8"?>
<svg version="1.1" xmlns="http://www.w3.org/2000/svg" xmlns:xlink="http://www.w3.org/1999/xlink" x="0px" y="0px"
	 viewBox="0 0 100 100" style="enable-background:new 0 0 100 100;" xml:space="preserve">
      <g id="ETQBallonVolley-F_svg__print">
        <g id="ETQBallonVolley-F_svg__fonce">
          <circle cx="49.8" cy="49.8" r="47.7" fill="#f7a800" />
          <path
            fill="#eef1f9"
            className="ETQBallonVolley-F_svg__st1"
            d="M43.8 83.9s8.8 3.2 18.7 3.5c0 0 8.1-37.8-1.8-70.2 0 0-15.1 3.3-17.6 5.8 0 0-2.8 40.6.7 60.9z"
          />
          <path
            fill="#003da6"
            className="ETQBallonVolley-F_svg__st2"
            d="M41.8 42c.1-1.8.3-3.7.4-5.5.2-2.9.4-5.8.6-8.8 0-.7.1-1.5.1-2.2 0-.7.2-1.4.1-2.1 0-.2-.1-.3-.2-.5-.8-.8-1.7-1.5-2.7-2.2-2.6-1.7-5.5-3-8.5-3.7-3.7-.9-8.7-1.1-12.5-1.3-.9 0-2.3.1-3 .5-.7.3-1.3 1.3-1.8 1.9C9.2 23.7 5.8 29.8 3.9 37c8.2-1 16.2.1 24.1 2 4.8 1.2 9 1.5 13.8 2.6m.1 24.1c-.3 6.2.4 12.2 1.3 18.3-4.8 1.6-7.8 2.1-12.1 2.5s-4.6.1-8.7-.8c-1.1-.3-4.3-.3-5.3-.9-1.6-.9-7.1-8.8-8.4-10-1-.9-1.9-3.5-2.6-4.7-.6-1-1.4-2.6-1.4-3.8.1-1.6 2-.6 2.9-.4 1.5.4 3.1.7 4.6.9 6.3.9 12.7.8 19 .2 3.6-.4 7.2-.9 10.7-1.3z"
          />
          <path
            fill="#25221e"
            className="ETQBallonVolley-F_svg__st3"
            d="M43.4 84.8c-.2 0-.4-.2-.4-.4-2-20.3-2.1-40.9-.3-61.2 0-.2.2-.4.4-.4s.4.2.4.4c-1.8 20.3-1.6 40.8.3 61 0 .3-.2.5-.4.6z"
          />
          <path
            fill="#eef1f9"
            className="ETQBallonVolley-F_svg__st1"
            d="M15.3 16S38.4-8.4 70.6 7c0 0-27.2-8.7-48.2 8.7l-7.1.3zm2.1 69.1s23 21.1 46.3 10.2c0 0-21 2.9-35.3-8.3l-11-1.9z"
          />
          <path
            fill="#25221e"
            className="ETQBallonVolley-F_svg__st3"
            d="M43 23.3c-.1 0-.2 0-.3-.1-7.3-7.6-21.2-7.1-26.9-6.5-.2 0-.4-.1-.5-.4 0-.2.1-.4.4-.5 5.8-.6 20.1-1.1 27.6 6.8.2.2.2.4 0 .6-.1 0-.2.1-.3.1zM40.8 42c-8.3-1.7-16.8-3.3-25.1-4.6-4.1-.6-7.7-1.1-11.2-.1-.2.1-.4 0-.5-.3-.1-.2.1-.4.3-.5 3.6-1 7.4-.5 11.5.1 8.4 1.3 16.8 2.8 25.1 4.5.2 0 .4.3.3.5 0 .3-.2.4-.4.4zM21.7 67.7c-6.1 0-12.1-.6-18-2.4-.2-.1-.3-.3-.3-.5.1-.2.3-.3.5-.3 12 3.8 25.3 2.3 37 1 .2 0 .4.1.5.4 0 .2-.1.4-.4.5-6 .6-12.6 1.3-19.3 1.3z"
          />
          <path
            fill="#003da6"
            className="ETQBallonVolley-F_svg__st2"
            d="M60.3 16.8s13.8-2.7 19.6-.6c0 0 8.1 13.9 8.8 32.7 0 0-.2 23.9-9 36.4 0 0-8.7 1.9-17.3 1.9.1.2 8.2-31.5-2.1-70.4z"
          />
          <path
            fill="#25221e"
            className="ETQBallonVolley-F_svg__st3"
            d="M62.5 87.8c-.1 0-.1 0 0 0-.3-.1-.5-.3-.4-.5 5-22.8 4.4-46.9-1.5-69.6-.1-.2.1-.4.3-.5.2-.1.4.1.5.3 6 22.9 6.5 47.1 1.5 70-.1.1-.3.3-.4.3z"
          />
          <path
            fill="#25221e"
            className="ETQBallonVolley-F_svg__st3"
            d="M42.9 23c-.2 0-.3-.1-.4-.2-.1-.2 0-.5.2-.6 11.5-5.8 27.8-8.3 40.5-6.3.2 0 .4.2.3.5 0 .2-.2.4-.5.3-12.5-2-28.6.4-40 6.2.1.1 0 .1-.1.1zm19.6 64.9c-6.1 0-12.8-.9-19.7-3.6-.2-.1-.3-.3-.2-.5.1-.2.3-.3.5-.2 16.1 6.3 31.4 2.7 39.5.7.2-.1.4.1.5.3.1.2-.1.4-.3.5-4.7 1-11.9 2.8-20.3 2.8zM23.1 15.8c-.1 0-.2 0-.3-.1-.2-.2-.1-.4 0-.6 13.1-12 34-12.6 47.9-8.2.3.1.4.3.3.5-.1.2-.3.3-.5.3-13.7-4.4-34.3-3.7-47.1 8-.1.1-.2.1-.3.1z"
          />
          <path
            fill="#25221e"
            className="ETQBallonVolley-F_svg__st3"
            d="M28.8 86.9c-3.9 0-7.9-.5-11.6-1.6-.2-.1-.3-.3-.3-.5.1-.2.3-.3.5-.3 8.3 2.4 17.3 2.1 25.4-.8.2-.1.4 0 .5.3.1.2 0 .5-.3.5-4.5 1.6-9.3 2.4-14.2 2.4z"
          />
          <path
            fill="#25221e"
            className="ETQBallonVolley-F_svg__st3"
            d="M60.1 95.8c-5.7 0-10.7-.3-15.7-1.2-6.8-1.3-12.5-3.8-17-7.5-.2-.1-.2-.4-.1-.6.1-.2.4-.2.6-.1 4.3 3.6 9.9 6 16.6 7.3 5.7 1.1 11.5 1.3 18.4 1.2.2 0 .4.2.4.4s-.2.4-.4.4c-.8 0-1.8.1-2.8.1z"
          />
          <path
            d="M80 16c12.4 21.8 10.8 48.9 0 69.1"
            fill="none"
            stroke="#25221e"
            strokeWidth="0.75"
            strokeMiterlimit="10"
          />
        </g>
      </g>
    </svg>