<?xml version="1.0" encoding="utf-8"?>
<!-- Generator: Adobe Illustrator 25.1.0, SVG Export Plug-In . SVG Version: 6.00 Build 0)  -->
<svg version="1.1" xmlns="http://www.w3.org/2000/svg" xmlns:xlink="http://www.w3.org/1999/xlink" x="0px" y="0px"
	 viewBox="0 0 100 100" style="enable-background:new 0 0 100 100;" xml:space="preserve">
<g id="print">
	<path fill="none" class="st0" d="M33.5,4.6c0.1-0.1,0.1-0.2,0.2-0.2c0.1-0.2,0.3-0.3,0.4-0.4C33.8,4.1,33.6,4.3,33.5,4.6z"/>
	<path fill="#F9E7E9" class="st1" d="M67,21.2c-1.1-0.9-2.3-1.8-3.6-2.4c0.1,0.1,0.2,0.1,0.3,0.1c-0.7-0.3-1.3-0.8-2-1c0.3,0,0.6-0.1,0.8-0.1
		c2-0.2,4-0.4,5.9-0.6c0.3,0,0.6-0.1,0.8-0.3c0.2-0.2,0.3-0.5,0.3-0.8c0.4-2,0.9-4,1.3-6c0.2-0.8,0.4-1.7,0.2-2.6
		c-0.5-3.4-4.1-4-4.3-7.6c0-0.2-5,1.6-5.3,2c-0.4,0.5-0.8,0.8-1.3,1.1c-0.7,0.6-1.6,0.9-2.4,1.3c-0.3,0.2-0.7,0.5-1,0.9c0,0,0,0,0,0
		c-0.3,0.4-0.5,1.1-0.7,2c-0.1,0.7-0.2,1.4-0.2,2.2c-0.1,0.8-0.1,1.4-0.6,2.3c0,0,0,0,0,0c0,0,0,0,0,0c0,0,0,0,0,0.1
		c-0.2,0.5-1,0.6-1.3,0.6c-0.4,0-0.7,0-1,0c-0.6,0-1.2,0.5-2.1,0.7c-1,0-1.7-0.2-2.4-0.4c-0.8-0.2-1.6-0.4-2.3-0.7c0,0,0,0,0,0
		c0,0,0,0,0,0c-2.1-0.8-4-2.2-5.7-3.5c-1.2-0.9-2.3-1.9-3.4-3c-0.5-0.5-1-1.1-1.6-1.5c-0.3-0.2-0.7-0.2-1-0.1c0,0,0,0,0,0
		c0,0-0.1,0-0.1,0.1c-0.2,0.1-0.3,0.3-0.4,0.4c-0.1,0.1-0.1,0.2-0.2,0.2c0,0,0,0,0,0c0,0,0,0,0,0c-1.7,2-3.4,4.2-3.8,6.8
		c-0.1,0.7-0.1,1.3-0.1,2c0,1.1-0.1,2.2,0.1,3.2c0.1,1.4,0.6,2.7,1.2,3.9c-0.5-1.2-0.9-2.4-1-3.7c0.2,1.5,0.6,2.9,1.4,4.2
		c0.7,1.2,1.6,2.5,2.8,3.2c0.2,0,0.4,0,0.6,0c0,0,0,0,0.1,0c0.2,0,0.4-0.1,0.6-0.1c1.2-0.3,2.4-0.7,3.5-1.2c1.2-0.5,2.3-1.1,3.4-1.7
		c0,0,0,0,0,0c0.2-0.1,0.3-0.2,0.5-0.3c0,0-0.1,0.1-0.1,0.1c-0.1,0.1-0.2,0.1-0.2,0.2c0.1,0,0.2,0,0.2,0.1c0,0.1,0,0.1,0,0.2l0,0.1
		c0,0.1,0,0.1-0.1,0.1c-1.7,1.3-3.4,2.6-4.6,4.3c-1.2,1.6-2.2,3.4-3.1,5.1c2.6,0.6,4.4,2.4,6.5,3.5c0.1,0.1,0.2,0.2,0.2,0.3l0,0
		c0.3,0.1,0.5,0.3,0.8,0.4c0.2,0.1,0.5,0.1,0.7,0.1c0.3-0.1,0.5-0.5,0.6-0.9c0.2-0.6,0.3-1.3,0.5-1.9v0l0,0l0.6-3.1
		c0.3-1,0.3-2.1,0.6-3.1c0.2-1,0.7-2.2,1.5-3l2.3-2.2l0,0c0.1-0.1,0.3-0.1,0.4-0.1c0.5-0.5,0.8-1.1,0.9-1.6c0.2,0,0.3,0.1,0.5,0
		c0,0,0,0,0,0c0.1-0.1,0.1-0.2,0.3-0.2c0,0,0.1,0,0.2,0c0.4,0,0.8,0.1,0.9,0l0.9-0.5l0.1,0c0,0,0.1,0,0.2,0l0.3,0.1l0.7,0.1
		c0.2,0,0.3,0.2,0.3,0.4l0,0c0,0,0,0.1,0,0.1c0.2,0.1,0.5,0.2,0.7,0.3c0.1-0.1,0.2-0.1,0.3-0.2c0.1,0,0.2,0,0.3,0.1l0,0
		c1,0.6,1.6,1.6,2.1,2.6c0.1,0.2,0.2,0.3,0.3,0.5c0.1,0.2,0.2,0.5,0.2,0.7c0.1,0.2,0.2,0.4,0.2,0.6c0.4,1.5,1.2,3.2,0.7,4.8
		c0.1,0,0.1-0.1,0.2-0.1c0.6-0.5,1.3-1,1.9-1.4c0,0,0-0.1,0-0.1c2.6-1.7,5.7-2.8,8.8-3.2c0.4-0.1,0.8-0.1,1.2-0.2
		C69.8,23.5,68.4,22.3,67,21.2z M63,18.6c-0.4-0.2-0.8-0.4-1.2-0.5C62.2,18.2,62.6,18.4,63,18.6z"/>
	<path fill="#F9E7E9" class="st1" d="M70.3,97.3c0,0-0.1,0-0.1,0c1.1-0.6,1.6-1.7,1.9-2.9c2.3-9,1.1-18.7-2.1-27.5c-0.7-1.8-1.4-3.7-1.9-5.6
		c-1.1-4.8-0.2-9.8-0.7-14.7c-0.2-2.2-0.8-4.5-2.4-5.9c-0.6-0.5-1.2-0.9-1.9-1.2c-0.3-0.2-0.7-0.3-1.1-0.4c-0.1,0-0.2,0-0.3-0.1
		c-0.2-0.1-0.3-0.3-0.4-0.5c-0.1-0.1-0.2-0.2-0.3-0.3c-0.2-0.1-0.4-0.2-0.6-0.2c-0.2,0-0.3-0.1-0.5-0.1c-0.4-0.1-0.9-0.1-1.3,0
		c-0.1,0-0.2,0-0.3,0c-0.1,0-0.1-0.1-0.2-0.1c-0.1-0.1-0.2-0.1-0.3-0.1c-0.3-0.1-0.5-0.2-0.8-0.3c-0.5-0.2-1-0.3-1.6-0.5
		c-0.5-0.2-1.1-0.3-1.6-0.5c-0.3-0.1-0.5-0.1-0.8-0.2c-0.1-0.1-0.3-0.2-0.4-0.2c-0.3-0.2-0.7-0.3-1.1-0.4c-0.4-0.1-0.8-0.3-1.2-0.4
		c-0.8-0.3-2-0.7-2.8-0.8c-1.7-0.2-3,0.1-4.3,1.1c-0.4,0.3-0.7,0.8-1,1.1c-0.5,0.5-0.9,1.1-1.2,1.8c-0.1,0.3-0.3,0.7-0.4,1
		c0,0.2-0.1,0.3-0.1,0.5c-0.3,0.5-0.6,1.1-0.8,1.7c-1.2,2.7-2.3,5.5-3.1,8.4c-0.5,1.5-0.8,3.1-1.5,4.6c-0.6,1.2-1.3,2.3-2,3.4
		c-0.4,0.6-0.8,1.3-1.1,2c-0.7,1.5-1.3,3-1.8,4.6c-0.2,0.8-0.5,1.6-0.6,2.4c-0.1,0.3-0.1,0.6-0.1,0.9c0,0.1,0,0.2-0.1,0.4
		c-0.3,0.6-0.6,1.1-0.9,1.7c-0.4,1-0.6,2-0.8,3c-0.1,0.4-0.1,0.8-0.1,1.2c-0.2,2.4,0.1,4.8,0.4,7.1c0.5,3.6,0.7,7.1,0.8,10.8
		c0,0.5,0.2,0.9,0.4,1.4c3.1,0.8,6.2,1.6,9.2,2.6c0.9,0.3,1.4,0.8,2.3,0.8c0.2,0,0.5,0,0.6-0.1c0.1-0.1,0.2-0.3,0.3-0.4
		c2.3-4.3,4-7.4,5.3-12.1c1.1-4,2.1-9.1,3.9-14c0.4-0.1,0.1,1.6,0,2c0,1.3,0.1,1.6,0.1,2c-0.1,3.9,0.1,5.9,0.3,9.3
		c0.1,1.4,0.2,2.8,0.5,4.2c0.1,0.7,0.3,1.4,0.4,2.1c0.1,0.4,0.2,0.8,0.3,1.2c0.2,0.5,0.4,1,0.6,1.6c0.4,1,0.8,2.1,1.3,3
		c0.2,0.3,0.3,0.6,0.5,0.8c0.5,0.8,1.1,1.4,1.7,2.1c0.3,0.3,0.4,0.9,0.7,1.2c0.2,0.2,0.5,0.1,0.7,0.2c0.1,0.1,0.1,0.2,0.2,0.2
		c0.2,0.1,0.5,0,0.7,0c2.3-0.2,4.6-0.5,6.9-0.7c0.8-0.1,1.5-0.2,2.3-0.4C69,98.3,69.7,97.9,70.3,97.3z"/>
	<path fill="#F4CACD" class="st2" d="M58.1,99L58.1,99c-0.1,0.1,0,0.1,0,0.2c2.2,0.1,4.4,0,6.6-0.3c1.1-0.2,2.2-0.4,3.3-0.6
		c1.1-0.3,2.3-0.5,2.8-1.3l0,0c-2.2-0.6-4.6-1-6.8-0.8C61.7,96.3,60,97.6,58.1,99z"/>
	<path fill="none" class="st0" d="M68,7.7c0,0-0.1,0.1-0.1,0.1c0,0,0,0,0,0C68,7.8,68,7.8,68,7.7z"/>
	<path fill="none" class="st0" d="M58,43.3c0.1-0.4,0.2-0.9,0.2-1.3c-0.1,0.9-0.3,1.8-0.5,2.6c0,0,0,0.1,0,0.1C57.8,44.2,57.9,43.8,58,43.3z"/>
	<polygon fill="none" class="st0" points="46,12 46,12 46,12 	"/>
	<path fill="none" class="st0" d="M34.5,24.3c1.2-0.1,2.4-0.7,3.6-1.1c0.2-0.1,0.3-0.2,0.5-0.3c-1.1,0.5-2.3,0.9-3.5,1.2
		C34.9,24.2,34.7,24.2,34.5,24.3z"/>
	<path fill="none" class="st0" d="M56.1,7.3c0.2-0.8,0.5-1.6,0.7-2C56.4,5.9,56.2,6.6,56.1,7.3z"/>
	<path fill="none" class="st0" d="M55.2,11.7C55.2,11.7,55.2,11.7,55.2,11.7C55.2,11.8,55.2,11.8,55.2,11.7C55.2,11.7,55.2,11.7,55.2,11.7z"/>
	<path fill="none" class="st0" d="M71.6,24.3C71.6,24.3,71.6,24.3,71.6,24.3c-0.4,0-0.9,0.1-1.3,0.2C70.7,24.4,71.2,24.4,71.6,24.3z"/>
	<path fill="none" class="st0" d="M52.1,44.3c-0.3,0.4-0.5,0.8-0.8,1.2C51.6,45,51.9,44.7,52.1,44.3z"/>
	<path fill="none" class="st0" d="M38,93.7c-0.1,0-0.1,0-0.2-0.1C37.9,93.7,38,93.7,38,93.7C38,93.8,38,93.7,38,93.7z"/>
	<path fill="none" class="st0" d="M43.8,33.2c-0.1,0.6-0.2,1.3-0.2,1.9c0,0,0.1,0,0.1-0.1L43.8,33.2z"/>
	<path fill="none" class="st0" d="M48.4,34.2c0.6,0.1,1.1,0.3,1.6,0.5c0-0.7-0.1-1.3-0.1-1.9c-0.3-3.4-0.6-6.7-1.2-10c-0.5,0.5-1.1,1-1.6,1.5
		c-0.7,0.7-1.1,1.6-1.3,2.6c-0.4,2-1,4.1-1.7,6.1L43.8,35C45,34.2,46.5,33.9,48.4,34.2z"/>
	<path fill="none" class="st0" d="M59.3,29.7c0-0.1,0-0.2,0-0.3c0,0-0.1,0.1-0.1,0.1c0.1-0.4,0.1-0.7,0.1-1.1c-0.2-1.2-1-2.4-1.4-3.6
		c-0.3-0.8-0.7-1.6-1.1-2.3c-0.3-0.4-0.5-0.8-0.8-1.2c0.1,1.6,0.1,3.3,0,5c-0.1-0.5-0.1-1-0.2-1.5c0,0.4,0.1,0.8,0.1,1.3
		c0.3,3.9,0.5,7.8,0.9,11.6c0,0-0.1,0-0.1-0.1c0.1,0.1,0.2,0.1,0.2,0.2c0,0,0,0,0,0c1.3-0.5,2.7-0.4,4.1-0.1l-1.3-8.7
		c-0.1,0.1-0.1,0.1-0.2,0.1C59.3,29.5,59.3,29.6,59.3,29.7z"/>
	<path fill="none" class="st0" d="M33.9,24.3c0.2,0,0.3,0,0.5,0C34.2,24.3,34,24.3,33.9,24.3C33.9,24.3,33.9,24.3,33.9,24.3z"/>
	<path fill="none" class="st0" d="M53.3,42.4L53.3,42.4C53.3,42.4,53.3,42.4,53.3,42.4C53.3,42.4,53.3,42.4,53.3,42.4z"/>
	<path fill="none" class="st0" d="M50.6,46.8c-0.1-0.9-0.1-1.8-0.2-2.7C50.4,45,50.5,45.9,50.6,46.8c0,0,0,0.1,0,0.1c0-0.1,0.1-0.2,0.1-0.3
		c0,0.1-0.1,0.1-0.1,0.2C50.6,46.8,50.6,46.8,50.6,46.8z"/>
	<path fill="none" class="st0" d="M52.1,28.8l-0.2-1.3c0,0.4,0.1,0.7,0.1,1.1c0.1,1.8,0.2,3.5,0.4,5.3C52.3,32.2,52.2,30.5,52.1,28.8z"/>
	<path fill="none" class="st0" d="M54.2,36.2C54.2,36.2,54.2,36.2,54.2,36.2C54.2,36.2,54.2,36.2,54.2,36.2C54.2,36.2,54.2,36.2,54.2,36.2z"/>
	<path fill="none" class="st0" d="M54.1,35.8L54.1,35.8L54.1,35.8c-0.2-3.4-0.4-6.9-0.5-10.4c-0.1-1.8-0.1-3.6-0.2-5.4L53.2,20l-0.9,0.4
		c-0.3,0.1-0.5,0.1-0.7,0c0.2,1.3,0.2,2.6,0.4,3.9l0.2,4.5c0.2,2.2,0.3,4.5,0.6,6.7L54.1,35.8z"/>
	<path fill="none" class="st0" d="M57,42.7c0-0.1,0.1-0.3,0.1-0.4c0-0.3-0.1-0.6-0.1-0.9C57.1,41.8,57.1,42.3,57,42.7z"/>
	<path fill="#F4CACD" class="st2" d="M41.1,96c-0.6-0.6-2.3-2-3-2.2c-0.1,0-0.1-0.1-0.2-0.1c-1-0.3-1.9-0.6-2.7-0.8c-0.9-0.2-1.7-0.4-2.6-0.4
		c-0.2,0-0.5,0-0.7,0c-0.7,0-1.5,0.1-2.2,0.2c-0.1,0-0.1,0-0.2,0l0,0C32.9,95,37,96.5,41.1,96z"/>
	<path fill="#F9E7E9" class="st1" d="M64.4,62.3c0-0.1,0-0.2,0-0.3l-0.6-3.7c0,0.3,0,0.6,0,0.8C64,60.2,64.2,61.3,64.4,62.3z"/>
	<path fill="#F9E7E9" class="st1" d="M47.4,54.5c0,0,0-0.1,0-0.1c0.2-1.1,0.5-2.3,0.9-3.4c-0.1,0.1-0.1,0.3-0.2,0.4C47.8,52.3,47.6,53.4,47.4,54.5z
		"/>
	<path fill="#F9E7E9" class="st1" d="M42.5,68.4c1-1,1.9-2.1,2.7-3.5c0.2-0.4,0.4-0.8,0.6-1.2c-0.5,0.9-0.7,1.3-1.5,2.4
		C43.8,66.9,43.2,67.7,42.5,68.4z"/>
	<path fill="#F9E7E9" class="st1" d="M53.7,39.6c-0.1-0.5-0.5-0.9-0.8-1.3l-0.1-0.2c0,0,0,0,0,0c0.2,1.4,0.4,2.8,0.5,4.3l0,0
		c0.2-0.4,0.4-0.8,0.5-1.3C53.9,40.5,53.9,40,53.7,39.6z"/>
	<path fill="#F9E7E9" class="st1" d="M47,56.8c-0.1,0.2,0,0.5,0,0.8C47,57.3,47,57.1,47,56.8c0.1-0.2,0.1-0.5,0.2-0.8c0,0,0,0,0,0
		C47.1,56.2,47.1,56.5,47,56.8z"/>
	<path fill="#F4DAD2" class="st3" d="M54.2,36.2C54.2,36.2,54.2,36.3,54.2,36.2C54.1,36.3,54.2,36.2,54.2,36.2C54.2,36.2,54.2,36.2,54.2,36.2z"/>
	<polygon fill="#F4DAD2" class="st3" points="54,36.3 54,36.3 54,36.3 	"/>
	<path fill="#FCF1EC" class="st4" d="M34.9,71.5c2,0.3,3.9-0.2,5.6-1.2c0.8-0.5,1.5-1.1,2.1-1.8c0.7-0.7,1.3-1.5,1.8-2.3c0.8-1.2,1-1.5,1.5-2.4
		c0.3-0.8,0.6-1.6,0.7-2.5c0.2-1.2,0.3-2.5,0.4-3.7c0-0.3,0-0.6,0-0.8c0.1-0.3,0.1-0.6,0.2-0.9c0.1-0.5,0.2-1,0.3-1.5
		c0.2-1.1,0.3-2.2,0.7-3.1c0.1-0.1,0.1-0.3,0.2-0.4c0.5-1.7,1.2-3.2,2.1-3.9c-0.3,0.4-0.6,0.8-0.8,1.4c0.3-0.6,0.6-1.1,1-1.6
		c-0.1-0.9-0.1-1.8-0.2-2.7c-0.1-0.9-0.2-1.8-0.2-2.7l0,0c-0.3,0-0.6,0-0.9,0.1c-1.5,0.5-2.9,1.9-3.8,3.2c-1.3,2-2.3,4.1-3.1,6.4
		c-0.1,1-0.2,2-0.3,3c-0.3,2.9-1.8,5.9-3.4,8.6c0.1-0.3,0.1-0.6,0.2-0.8c-0.9,1.2-1.9,2.3-2.8,3.4C34.6,66.9,33.5,69.5,34.9,71.5z"
		/>
	<path fill="#FCF1EC" class="st4" d="M60.8,47.3c-0.9-0.5-2.2-0.3-3.4,0.2c-0.1,0.4-0.2,0.8-0.3,1.2c-0.6,2.2-1.5,4.4-1.8,6.6
		c-0.4,2.3-0.4,4.6-1.2,6.8c-0.3,0.9-0.7,1.7-1.1,2.5c0,0.5,0,0.9,0,1.3c0.1,1,0.3,1.9,0.4,2.9c0.2,1.1,0.5,2.1,1.1,3
		c0.5,0.7,1.2,1.2,1.9,1.6c2.1,1.2,4.7,1.5,7,0.8c0.4-0.1,0.8-0.4,1.2-0.6c0.4-0.8,0.6-1.9,0.8-3c-0.1,0.3-0.2,0.7-0.4,0.9l-0.2-1
		c-0.4-1.2-0.6-2.3-0.7-3.6c-0.1-1.6,0.2-3.1,0.3-4.7c-0.2-1-0.4-2.1-0.5-3.1c0-0.3,0-0.6,0-0.8l-1.4-9.5
		C62,48.2,61.4,47.6,60.8,47.3z"/>
	<path fill="#EEBCB8" class="st5" d="M31.8,62.8C31.8,62.8,31.8,62.8,31.8,62.8c0.9-1.7,1.9-3.3,3-4.9c0.8-1.1,1.5-2.3,2.2-3.4
		c0.5-0.8,1-1.6,1.3-2.4c0.4-0.9,0.5-1.9,0.7-2.8c0-0.2,0.1-0.3,0.1-0.5c0.3-1.7,0.8-3.4,1.4-5c0-0.1,0-0.3,0-0.4
		c-0.6,1.8-1.1,3.6-1.5,5.4c0,0.2-0.1,0.3-0.1,0.5c-0.2,0.9-0.4,1.9-0.7,2.8c-0.3,0.8-0.8,1.6-1.3,2.4c-0.7,1.2-1.5,2.3-2.2,3.4
		c-1.4,2-2.8,4.2-3.8,6.4c0,0,0,0,0,0C31.2,63.7,31.6,63.3,31.8,62.8C31.8,62.8,31.8,62.8,31.8,62.8z"/>
	<path fill="#EEBCB8" class="st5" d="M52.8,38.1l0.1,0.2c0.4,0.4,0.7,0.8,0.8,1.3c0.1,0.4,0.1,0.9,0,1.4c-0.1,0.5-0.3,0.9-0.5,1.3c0,0,0,0.1,0,0.1
		c0,0,0,0,0,0c0,0,0,0,0,0.1c0.2-0.5,0.5-1,0.6-1.5c0.1-0.5,0.1-1,0-1.5c-0.1-0.6-0.5-1-0.9-1.4L52.8,38.1c0-0.1,0-0.1,0-0.2
		C52.7,37.9,52.7,38,52.8,38.1C52.7,38,52.8,38,52.8,38.1z"/>
	<path fill="#EEBCB8" class="st5" d="M31.3,69.5c0,0.1,0.1,0.1,0.2,0.2c-0.2-0.2-0.2-0.5-0.4-0.7C31.2,69.1,31.2,69.3,31.3,69.5z"/>
	<path fill="#EEBCB8" class="st5" d="M46.8,35.3c0.9,0,1.9,0.2,2.6,0.5c0.2,0.1,0.4,0.2,0.6,0.3c0,0,0-0.1,0-0.1c-0.2-0.1-0.4-0.2-0.6-0.3
		c-1.4-0.5-3.4-0.9-4.9,0.1c-0.5,0.3-0.8,0.7-1.1,1.2c0,0.1,0,0.1,0,0.2c0.3-0.5,0.7-1,1.2-1.3C45.2,35.4,46,35.3,46.8,35.3z"/>
	<path fill="#EEBCB8" class="st5" d="M32.5,70.7c0.1,0,0.2,0,0.2,0.1c-0.3-0.2-0.5-0.4-0.7-0.6C32.1,70.4,32.3,70.6,32.5,70.7z"/>
	<path fill="#EEBCB8" class="st5" d="M40.4,70.3c0.3-0.2,0.7-0.5,1-0.7c0.5-0.4,0.9-0.7,1.3-1.1c0.2-0.2,0.5-0.5,0.7-0.7c0.5-0.6,1.1-1.4,1.6-2.1
		c0.1-0.2,0.2-0.4,0.3-0.6c-0.8,1.4-1.8,2.5-2.7,3.5C41.9,69.1,41.2,69.8,40.4,70.3z"/>
	<path fill="#EEBCB8" class="st5" d="M47.2,55.9C47.2,56,47.2,56,47.2,55.9c0.1-0.4,0.2-1,0.3-1.6c0,0,0,0.1,0,0.1C47.3,55,47.2,55.4,47.2,55.9z"/>
	<path fill="#EEBCB8" class="st5" d="M49.6,48.4c-0.3,0.6-0.6,1.4-0.8,2.1c0.5-1.2,1.1-2.4,1.8-3.6c0,0,0,0,0,0c0,0,0-0.1,0-0.1
		C50.3,47.3,49.9,47.8,49.6,48.4z"/>
	<path fill="#F4CACD" class="st2" d="M42.5,21c-0.2,0.1-0.3,0.2-0.5,0.3c0,0,0.1,0,0.1,0c0.1-0.1,0.2-0.1,0.2-0.2C42.4,21.1,42.5,21,42.5,21z"/>
	<path fill="#F4CACD" class="st2" d="M50.4,47c-0.8,0.7-1.5,2.3-2.1,3.9c-0.4,1.1-0.7,2.3-0.9,3.4c-0.1,0.6-0.2,1.2-0.3,1.6
		c-0.1,0.3-0.1,0.6-0.1,0.9c0,0.2,0,0.5-0.1,0.7c-0.1,1.2-0.2,2.5-0.4,3.7c-0.1,0.8-0.4,1.6-0.7,2.5c-0.2,0.4-0.4,0.8-0.6,1.2
		c-0.1,0.2-0.2,0.4-0.3,0.6c-0.5,0.8-1,1.5-1.6,2.1c-0.2,0.3-0.4,0.5-0.7,0.7c-0.4,0.4-0.9,0.8-1.3,1.1c-0.3,0.2-0.6,0.5-1,0.7
		c-1.7,1-3.6,1.5-5.6,1.2c-0.2,0-0.4,0-0.7,0c-0.5-0.1-1.1-0.3-1.5-0.6c-0.1,0-0.2,0-0.2-0.1c-0.2-0.1-0.3-0.3-0.5-0.5
		c-0.2-0.2-0.4-0.3-0.5-0.6c0-0.1-0.1-0.1-0.2-0.2c-0.1-0.2-0.1-0.4-0.2-0.5c-0.9-1.9-0.1-4.3,0.7-6.2c0,0,0,0,0,0c0,0,0,0,0,0
		c-0.2,0.5-0.6,1-0.9,1.5c-0.1,0.3-0.2,0.5-0.3,0.8c-0.2,0.6-0.4,1.2-0.6,1.8c-0.2,1.3,0,2.6,0.8,3.7c0.8,1,2.2,1.5,3.5,1.8
		c2.5,0.5,5.2,0.1,7.4-1.2c2.3-1.4,3.4-3.2,4.4-5.8c0.6-1.5,1.1-4.1,1.1-5.7c0-2.4,0.5-6.1,1.5-9c0.3-0.8,0.5-1.5,0.8-2.1
		C49.9,47.8,50.1,47.4,50.4,47z"/>
	<path fill="#F2BABD" class="st6" d="M67.9,61.2c0-0.2-0.1-0.4-0.1-0.5c0.3,2,0.4,4.2,0.4,6.2C68.2,65,68.1,63.1,67.9,61.2z"/>
	<path fill="#F4CACD" class="st2" d="M64.6,73.7c-0.4,0.2-0.8,0.4-1.2,0.6c-2.3,0.7-4.8,0.4-7-0.8c-0.7-0.4-1.4-0.9-1.9-1.6c-0.6-0.9-0.9-1.9-1.1-3
		c-0.2-1-0.3-1.9-0.4-2.9c0-0.5,0-0.9,0-1.3c0.4-0.8,0.8-1.7,1.1-2.5c0.8-2.2,0.9-4.6,1.2-6.8c0.3-2.2,1.2-4.3,1.8-6.6
		c0.1-0.4,0.2-0.8,0.3-1.2c0.2-0.9,0.3-1.9,0.3-2.8c0,0,0-0.1,0-0.1c0-1-0.1-1.9-0.4-2.8c0.4,2.3-0.2,4.5-0.9,6.7
		c-0.7,2.1-1.7,4.3-2,6.6c-0.3,2.3-0.3,4.6-1,6.8c-0.1,0.4-0.3,0.8-0.4,1.2c0-0.1,0-0.3,0-0.4l0,0.4c-0.6,1.7-1.3,3.4-2,5.2
		c0.7-1.1,1.4-2.3,2-3.5c-0.1,1.8,0.2,3.7,0.5,5.5c0.2,1,0.5,2,1.1,2.9c0.5,0.7,1.2,1.2,1.9,1.6c2.1,1.1,4.6,1.4,6.9,0.8
		c1.5-0.4,2.9-1.3,3.7-2.6c0.6-1,0.8-2.2,0.9-3.3c0.1-0.4,0.1-0.9,0.1-1.3c-0.2,1.2-0.4,2.3-0.9,3.4C66.5,72.6,65.6,73.2,64.6,73.7z
		"/>
	<path fill="#F2BABD" class="st6" d="M68,68.1c0.1-0.4,0.1-0.8,0.1-1.2c0,0.5-0.1,0.9-0.1,1.4C68,68.1,68,68.1,68,68.1z"/>
	<path fill="#F0D2D5" class="st7" d="M56.2,17.7c0.2-0.2,0.2-0.5,0.2-0.8c-0.1-1.2-0.1-2.5-0.2-3.7c0-0.4,0-0.7-0.3-1c-0.2-0.2-0.5-0.3-0.8-0.3
		c0,0,0,0,0,0c0,0,0,0,0,0.1c-0.2,0.5-1,0.6-1.3,0.6c-0.4,0-0.7,0-1,0c-0.6,0-1.2,0.5-2.1,0.7c-1,0-1.7-0.2-2.4-0.4
		c-0.8-0.2-1.6-0.4-2.3-0.7c0,0,0,0,0,0c-0.2,0.1-0.4,0.3-0.5,0.5c-0.5,1-0.3,3.4,0.1,4.3c0.5,1.1,1.7,1.8,2.8,2.3
		c0.6,0.3,1.1,0.4,1.7,0.5c0.2,0,0.3,0.1,0.5,0c0,0,0,0,0,0c0.1-0.1,0.1-0.2,0.3-0.2c0,0,0.1,0,0.2,0c0.4,0,0.8,0.1,0.9,0l0.9-0.5
		l0.1,0c0,0,0.1,0,0.2,0l0.3,0.1c0.8-0.4,1.5-0.9,2.4-1.2C55.9,17.8,56.1,17.8,56.2,17.7z"/>
	<path fill="#EFBABD" class="st8" d="M56.5,14.2l0.5,0.4c0.7,0.7,1.2,0.7,2.3,0.7l-0.7-0.1c1.9,0.2,3.8,0.4,5.5-0.4c0.2-0.1,0.4-0.2,0.5-0.4
		c0.2-0.2,0.2-0.5,0.4-0.7c0.2-0.1,0.4-0.1,0.6-0.1c0.8,0,1.6-0.1,2.5-0.1c-0.3-0.3-0.7-0.4-1.1-0.5c-1.3-0.4-2.7-0.5-4-0.3
		c-0.8,0.1-1.5,0.3-2.3,0.1c0.5-1.1,1.5-2,2.5-2.8c1-0.8,2.1-1.4,3.1-2.3c0.4-0.3,0.7-0.7,1.1-0.9c0.8-0.5,1.8-0.9,2-1.8
		c-2.2,0.1-4.1,1.4-5.8,2.6c-2.3,1.7-4.5,3.6-6.6,5.6C57.1,13.7,56.8,13.9,56.5,14.2z"/>
	<path fill="#EFBABD" class="st8" d="M33.5,10.8c0.4,0.2,0.8,0.5,1.2,0.8c1.1,0.7,2.2,1.3,3.4,1.9c1.1,0.7,2.2,1.4,2.8,2.5
		c-0.7,0.2-1.5,0.1-2.3,0.1c-1.3,0-2.7,0.3-3.9,0.8c-0.4,0.2-0.8,0.3-1,0.6c0.8-0.1,1.6-0.1,2.5-0.2c0.2,0,0.4,0,0.6,0.1
		c0.3,0.1,0.3,0.4,0.5,0.7c0.1,0.1,0.3,0.2,0.5,0.3c1.7,0.6,3.7,0.2,5.5-0.2l-0.7,0.1c1.1-0.1,1.6-0.2,2.2-1l0.5-0.5
		c-0.3-0.3-0.6-0.5-0.9-0.8c-2.3-1.8-4.6-3.4-7.1-4.9c-1.8-1.1-3.8-2.1-6-2C31.6,10.1,32.7,10.4,33.5,10.8z"/>
	<path fill="#EFBBBE" class="st9" d="M40.2,22.8C40.2,22.8,40.2,22.8,40.2,22.8c0.1-0.1,0.2-0.2,0.4-0.3C40.4,22.6,40.3,22.7,40.2,22.8z"/>
	<path fill="#EFBBBE" class="st9" d="M38,24.9c0.2-0.2,0.4-0.4,0.6-0.6C38.4,24.5,38.2,24.7,38,24.9z"/>
	<path fill="#EFBBBE" class="st9" d="M59.3,29.4c0-0.3,0-0.7,0-1c0,0.4,0,0.7-0.1,1.1C59.2,29.5,59.3,29.5,59.3,29.4z"/>
	<path fill="#EFBBBE" class="st9" d="M65.6,19.9c-0.2-0.1-0.4-0.2-0.6-0.3c0.7,0.4,1.3,0.8,1.9,1.3C66.4,20.5,66,20.2,65.6,19.9z"/>
	<path fill="#F4CACD" class="st2" d="M43.8,34c0-0.1,0.1-1.2-0.3,0.2c0,0.2-0.1,0.3-0.1,0.5c-0.1,0.3-0.3,0.7-0.6,0.9c-0.2,0.1-0.5,0-0.7-0.1
		c-0.3-0.1-0.5-0.2-0.8-0.4c-0.2,0.2-0.4,0.5-0.7,0.6l-0.1,2.4c0,0.2,0.1,0.3,0.1,0.5c0,0.2,0,0.3,0,0.5c0.1,0.2,0.1,0.4,0.1,0.5
		c0,0,0,0,0,0c0,0,0,0,0,0c0,0,0,0,0,0c0,0.2,0,0.3,0,0.5c0,1,0,2-0.1,3c0,0.1,0,0.3,0,0.4c-0.1,6.4-0.4,12.6-1.7,18.1
		c-0.1,0.3-0.1,0.6-0.2,0.8c1.6-2.7,3.1-5.7,3.4-8.6c0.1-1,0.2-2,0.3-3c0.2-1.9,0.4-3.8,0.5-5.8c0.1-2.8,0.2-5.3,0.5-8.1
		c0-0.1,0-0.1,0-0.2c0-0.3,0-0.5,0.1-0.8c0-0.3,0.1-0.7,0.1-1.1c0-0.1,0.1-0.4,0.2-0.4C43.7,34.6,43.8,34.1,43.8,34z"/>
	<path fill="#F4CACD" class="st2" d="M55.8,26.2c0-0.4-0.1-0.8-0.1-1.3c0.1,0.5-0.4-2.8-0.3-2.3c0.1-1.7,0.6,0.4,0.5-1.2c0.1,0.1-1-0.4-0.9-0.3
		c0-0.2,1,0.1,1.1-0.2c0-0.2,0.1-0.3,0.1-0.5c-0.2-0.1-0.3-0.3-0.5-0.4l0,0C55.6,20,55.5,20,55.4,20c-0.1,0-0.2,0.1-0.3,0.2
		c-0.2-0.2-0.5-0.2-0.7-0.3c0,0,0-0.1,0-0.1l0,0c0-0.2-0.1-0.4-0.3-0.4l-0.7-0.1L53.1,19c-0.1,0-0.1,0-0.2,0l-0.1,0L52,19.5
		c-0.1,0-0.5,0-0.9,0c0,0-0.1,0-0.2,0c-0.1,0-0.2,0.1-0.3,0.2c0,0,0,0,0,0c-0.2,0-0.3,0-0.5,0c-0.1,0.5-0.5,1.1-0.9,1.6
		c-0.1,0-0.2,0-0.3,0.1c0.1,0.2,0.2,0.5,0.2,0.7c0,0.4,0.9,0.5,0.8,0.9c0.5,3.1,0.2,6.3,0.5,9.5c0,0.7-0.3,1.6-0.3,2.3
		c0,0.4,0,0.9,0,1.3c0,0,0,0.1,0,0.1c0,1.7,0.1,3.5,0.1,5.2c0,0.9,0.1,1.8,0.2,2.7c0.1,0.9,0.1,1.8,0.2,2.7c0,0,0,0.1,0,0.1
		c0-0.1,0.1-0.1,0.1-0.2c0.2-0.4,0.4-0.8,0.7-1.2c0.2-0.4,0.5-0.8,0.8-1.2c0.4-0.5,0.8-1,1.2-1.5c0-0.1,0-0.2,0-0.3c0,0,0,0,0-0.1
		c0,0,0,0,0,0c0,0,0-0.1,0-0.1c-0.2-1.4-0.4-2.9-0.5-4.3c0,0,0-0.1,0-0.1c0-0.3-0.1-0.7-0.1-1c0-0.4-0.1-0.8-0.1-1.2
		c0,0,0,0.1,0.1,0.1l1.5,0.5l0,0l0,0l0,0l0.1,0l0.1,0.1c0,0,0,0.1,0,0.1c0.8,0.3,1.5,0.8,2.2,1.2c0,0,0.1,0,0.1,0.1
		C56.3,34,56.1,30.1,55.8,26.2z M52,28.6c0-0.4-0.1-0.9-0.1-1.3l0.1-0.8l-0.4-2.9c-0.1-1.3-0.4-1.4-0.7-2.7
		c-0.3-0.2,1.1-0.4,1.3-0.5l0.9-0.4l0.3,0.1c0,1.8,0.1,3.6,0.2,5.4c0.1,3.5,0.2,6.9,0.5,10.4l0,0l0,0l-1.7-0.5
		c-0.3-2.2,0.1-2.4-0.2-4.6"/>
	<polygon fill="#F4CACD" class="st2" points="54,36.3 54,36.3 54,36.3 	"/>
	<path fill="#F4CACD" class="st2" d="M54.1,36.3C54.2,36.3,54.2,36.2,54.1,36.3c0.1-0.1,0.1-0.1,0.1-0.1c0,0,0,0,0,0C54.2,36.2,54.1,36.3,54.1,36.3
		z"/>
	<path fill="#F4CACD" class="st2" d="M41.5,96L41.5,96C41.5,96,41.5,96.1,41.5,96L41.5,96z"/>
	<path fill="#F4CACD" class="st2" d="M62.5,48.8l1.4,9.5l0.6,3.7c0,0.1,0,0.2,0,0.3c0,1.6-0.4,3.1-0.3,4.7c0.1,1.3,0.3,2.4,0.7,3.6l0.2,1
		c0.2-0.3,0.2-0.6,0.4-0.9c0.9-2.3,1.1-5.4,1.1-6.9c0-1.3,0.1-2.5-0.1-3.8c-1.5-8.1-2.1-13.3-3.1-20.4c0.1,0.1,0.2,0.1,0.3,0.2
		c0-0.2,0.1-0.5,0.2-0.7c0,0-0.1-0.1-0.1-0.1L62,28.1c3-2,6.5-3.1,10.1-3.5c0.1,0,0.1-0.1,0.2-0.1c0-0.1,0-0.2-0.1-0.2
		c-1.9-0.6-3.5-2-5.1-3.2c-0.1-0.1-0.2-0.1-0.3-0.2c-0.6-0.5-1.3-0.9-1.9-1.3c-0.4-0.2-0.8-0.4-1.3-0.6c-0.1,0-0.2-0.1-0.3-0.1
		c1.3,0.6,2.5,1.5,3.6,2.4c1.4,1.2,2.9,2.4,4.6,3.1c0,0,0,0,0,0c-0.4,0-0.8,0.1-1.3,0.2c-3.1,0.4-6.1,1.5-8.8,3.2c0,0,0,0.1,0,0.1
		c-0.7,0.4-1.3,0.9-1.9,1.4l1.3,8.7L62.5,48.8z"/>
	<path fill="#FFFFFF" class="st10" d="M33.5,4.7c0.1-0.3,0.3-0.5,0.6-0.6c0,0,0.1-0.1,0.1-0.1c0,0,0,0,0,0c0.3-0.1,0.7-0.1,1,0.1
		c0.6,0.3,1.1,0.9,1.6,1.5c1.1,1.1,2.2,2,3.4,3C42,9.8,43.9,11.2,46,12c0,0,0,0,0,0c0.7,0.3,1.5,0.5,2.3,0.7
		c0.7,0.2,1.4,0.4,2.4,0.4c0.9-0.2,1.5-0.7,2.1-0.7c0.3-0.1,0.6,0,1,0c0.3,0,1.1-0.1,1.3-0.6c0,0,0,0,0-0.1c0,0,0,0,0,0
		c0.5-0.8,0.5-1.5,0.6-2.3c0.1-0.7,0.1-1.5,0.2-2.2c0.1-0.7,0.3-1.4,0.7-2c0,0,0,0,0,0c0,0,0,0,0,0c0.2-0.4,0.6-0.6,1-0.9
		c0.8-0.4,1.7-0.7,2.4-1.3c0.1-0.1,0.2-0.1,0.3-0.2c-0.3,0.2-0.6,0.4-0.9,0.5c0,0,0,0,0,0c-1,0.4-2.3,0.5-3.1,1.5
		c-1,1.3-1.2,2.9-1.4,4.4c-0.1,0.7-0.3,1.6-0.6,1.9c-0.1,0.4-1,0.1-1.8,0.2c-0.9,0.1-1.6,0.6-2.1,0.7c-0.5-0.1-1.3-0.2-2-0.4
		c-2.9-0.5-5.3-2.2-7.8-3.9c-1.2-0.8-2.4-1.8-3.5-2.7c-0.6-0.4-1.1-1-1.9-1.3C34.6,3.5,33.6,3.9,33.5,4.7
		C33.5,4.7,33.5,4.7,33.5,4.7C33.5,4.7,33.5,4.7,33.5,4.7z"/>
	<g>
		<path fill="#FFFFFF" class="st10" d="M44.5,90c-0.9,2.1-1.9,4.2-3.3,6c-0.1,0-0.1,0-0.2,0c-2,0.2-4.1,0-6-0.6c-2-0.6-3.8-1.5-5.5-2.6c0,0,0,0,0,0
			c-0.4-4.7-0.9-9.4-1.3-14c-0.2-2.4-0.2-4.7,0.2-7c0.4-1.9,0.9-3.7,1.5-5.5c0.1-0.4,0.2-0.7,0.4-1.1c0-0.1,0.1-0.1,0.1-0.2
			c0.4-1.1,0.8-2.2,1.3-3.3c0.5-1.1,1.1-2.1,1.7-3.1c0.6-1,1.2-2.1,1.7-3.2c0.5-1.1,1-2.2,1.4-3.4c1.4-4.2,2.1-8.6,4-12.4
			c0.2-0.3,0.3-0.7,0.5-1l0,0c0-0.1,0.1-0.1,0.1-0.2l0.1-3.3l0-0.1l0,0c0-0.1-0.1-0.3-0.2-0.4c-1.1-0.6-2.1-1.4-3.2-2.1
			c-1-0.6-2-1.2-3.2-1.5c0.9-1.8,1.9-3.5,3.1-5.1c0.6-0.9,1.3-1.6,2.1-2.4c0.8-0.7,1.7-1.3,2.5-2c0,0,0.1-0.1,0.1-0.1l0,0l0-0.1
			c0-0.1,0-0.1,0-0.2c0-0.1-0.1-0.1-0.1-0.1c-0.1,0-0.1,0-0.2,0c0,0,0,0,0,0c-0.6,0.3-1.2,0.6-1.7,0.9c-0.7,0.4-1.5,0.7-2.2,1
			c-0.7,0.3-1.4,0.5-2.1,0.8c-0.7,0.2-1.4,0.5-2.1,0.4c0,0-0.1,0-0.1,0c-0.6-0.2-1.1-0.8-1.5-1.3c-0.5-0.6-0.9-1.2-1.2-1.8
			c-0.7-1.3-1.2-2.7-1.4-4.2c0.1,1,0.3,2,0.7,2.9c0.2,0.5,0.4,0.9,0.6,1.4c0.3,0.7,0.7,1.3,1.2,1.9c0.2,0.3,0.5,0.6,0.7,0.8
			c0.3,0.3,0.6,0.5,1,0.7c0.4,0.1,0.8,0.1,1.2,0c0.4-0.1,0.7-0.2,1.1-0.3c0.7-0.2,1.4-0.5,2.1-0.7c0.7-0.3,1.5-0.6,2.2-0.9
			c-0.3,0.2-0.6,0.5-1,0.8c-0.8,0.7-1.6,1.5-2.2,2.4c-1.3,1.7-2.4,3.6-3.4,5.5c0,0,0,0.1,0,0.1c0,0.2,0.1,0.4,0.3,0.4l0,0
			c1.2,0.2,2.3,0.8,3.4,1.5c1,0.7,2,1.4,3.1,2l-0.1,3c-1.2,2.1-2,4.4-2.6,6.6c-0.7,2.3-1.3,4.6-2,6.8c-0.4,1.1-0.8,2.2-1.3,3.2
			c-0.5,1-1.1,2.1-1.7,3.1c-0.6,1-1.2,2.1-1.7,3.2c-0.5,1.1-0.9,2.2-1.4,3.3c-0.8,2.3-1.6,4.5-2,6.9c-0.4,2.4-0.4,4.9-0.2,7.2
			c0.4,4.7,0.9,9.4,1.3,14.1c-0.1,0.2,0,0.3,0.1,0.5c0,0,0,0,0,0c0.1,0.1,0.1,0.1,0.2,0.1c1.8,1.1,3.7,2,5.8,2.6
			c2.1,0.6,4.3,0.9,6.4,0.5l0,0l0,0c0.1,0,0.2,0,0.3-0.1c0,0,0.1,0,0.1,0c0,0,0-0.1,0-0.1c1.4-1.9,2.5-4.1,3.3-6.3
			c0.9-2.2,1.5-4.6,2-6.9c0.6-2.3,1.1-4.6,1.7-6.9c0.6-2.3,1.4-4.5,2.2-6.8c-0.8,2.2-1.8,4.4-2.4,6.7c-0.4,1.4-0.8,2.8-1.1,4.1
			c-0.2,0.9-0.5,1.8-0.7,2.8C46.1,85.5,45.4,87.8,44.5,90z"/>
	</g>
	<path fill="#FFFFFF" class="st10" d="M73.5,82.3c-0.1-1.3-0.2-2.5-0.3-3.8c-0.1-1.2-0.2-2.5-0.5-3.8c-0.5-2.5-1.3-4.9-2-7.3
		c-0.8-2.4-1.6-4.7-2.2-7.2c-0.3-1.2-0.5-2.4-0.6-3.6c-0.1-1.2-0.1-2.5-0.1-3.7c0.1-2.5,0.1-5-0.3-7.6c-0.4-2.5-1.8-4.9-3.9-6.4
		c-0.5-3.6-1-7.2-1.6-10.8c3-2,6.5-3.2,10.1-3.5c0.1,0,0.1-0.1,0.2-0.1c0-0.1,0-0.2-0.1-0.2c-1.9-0.6-3.5-2-5.1-3.2
		c-0.4-0.3-0.8-0.6-1.3-0.9c-0.4-0.3-0.8-0.6-1.3-0.8c-0.9-0.5-1.8-0.9-2.8-1.2c1,0.4,1.9,0.8,2.8,1.3c0.9,0.5,1.7,1.1,2.5,1.8
		c1.4,1.1,2.7,2.4,4.4,3.1c0,0,0,0,0,0c-0.2,0-0.4,0-0.5,0c-0.1,0-0.1,0-0.2,0c-0.1,0-0.3,0-0.4,0.1c-3.1,0.4-6.1,1.5-8.8,3.2
		c-0.1,0-0.1,0.1-0.1,0.2c0,0,0,0.1,0,0.1c0.5,3.7,1,7.5,1.5,11.2c0,0.1,0.1,0.2,0.2,0.3c0.1,0,0.1,0.1,0.2,0.1
		c0.9,0.7,1.7,1.5,2.3,2.5c0.6,1,1,2.2,1.2,3.4c0.3,2.4,0.3,4.9,0.3,7.4c0,1.3,0,2.5,0.1,3.8c0.1,1.3,0.3,2.5,0.6,3.8
		c0.1,0.2,0.1,0.4,0.2,0.6c0,0.2,0.1,0.3,0.1,0.5c0.5,2.1,1.2,4.1,1.9,6.1c0.8,2.4,1.5,4.8,2,7.2c0.2,1.2,0.4,2.4,0.5,3.7
		c0.1,1.2,0.2,2.5,0.3,3.7c0.1,2.5,0.2,5-0.1,7.4c-0.2,2.4-0.7,4.9-1.9,7L70.5,97l0,0c0,0,0,0,0,0c-0.5,0.7-1.7,1-2.8,1.3
		c-1.1,0.3-2.2,0.5-3.3,0.7c-2.2,0.3-4.4,0.5-6.6,0.3c0,0,0,0-0.1-0.1c-1.4-1.7-2.7-3.5-3.6-5.5c-1-2.1-1.7-4.3-2.1-6.5
		c-0.9-4.5-0.8-9.2-0.8-13.8C51,76,51,78.5,51,81.1c0.1,2,0.2,4.1,0.5,6.1c0.4,2.3,1.1,4.6,2,6.7c1,2.1,2.3,4.1,3.8,5.9
		c0.1,0.1,0.1,0.1,0.2,0.1l0,0c2.3,0.2,4.6,0.1,6.9-0.2c1.1-0.2,2.3-0.4,3.4-0.6c0.6-0.1,1.1-0.3,1.7-0.5c0.6-0.2,1.2-0.5,1.6-1.1
		l0,0l0.2-0.2c0,0,0,0,0-0.1c1.2-2.3,1.7-4.9,2-7.4C73.7,87.3,73.7,84.8,73.5,82.3z"/>
	<path fill="#FFFFFF" class="st10" d="M55,20.5c0.2,1.7,0.4,3.4,0.7,5.1c0.1,0.3,0.1,0.6,0.2,0.9c0.1-1.6,0.1-3.3,0.1-4.9c0,0,0.1,0.1,0.1,0.1
		c0.3,0.3,0.5,0.7,0.7,1c0.1,0.2,0.2,0.5,0.4,0.7c0,0.1,0.1,0.2,0.1,0.3c0.2,0.3,0.3,0.7,0.5,1c0,0.1,0.1,0.2,0.1,0.3
		c0.3,0.8,0.7,1.6,1,2.4c0.2,0.5,0.4,1,0.4,1.6c0,0.2,0,0.4,0,0.6c0,0.1,0,0.2,0,0.3c0.1-0.1,0.1-0.3,0.1-0.4c0.2-0.7,0.2-1.5,0-2.3
		c-0.2-0.9-0.5-1.7-0.8-2.5c0,0,0-0.1,0-0.1c-0.1-0.4-0.3-0.9-0.4-1.3c-0.1-0.2-0.2-0.4-0.3-0.6c-0.1-0.2-0.1-0.3-0.2-0.5
		c-0.2-0.4-0.5-0.8-0.8-1.1c-0.2-0.2-0.3-0.3-0.5-0.5c-0.2-0.2-0.4-0.3-0.6-0.4l0,0c-0.1-0.1-0.2-0.1-0.3-0.1
		c-0.1,0-0.2,0.1-0.3,0.1C55.1,20.2,55,20.3,55,20.5z"/>
	<path fill="#FFFFFF" class="st10" d="M43.7,35c0,0.1,0,0.2,0,0.3C43.7,35.2,43.7,35.1,43.7,35c0.2-0.7,0.3-1.4,0.4-2.1c0.4-1,0.7-2,1-3
		c0.3-1,0.4-2.1,0.7-3.1c0.3-1,0.7-1.9,1.3-2.6c0.3-0.3,0.7-0.7,1.2-1c0.2-0.1,0.3-0.3,0.5-0.5c0.6,3.5,0.9,7,1.2,10.5
		c0,0.5,0.1,1.1,0.1,1.6c0.1-1.1,0.1-2.2,0.2-3.3c0-1.1,0-2.2,0-3.3c-0.1-2.2-0.3-4.4-0.7-6.6c0-0.1-0.1-0.2-0.1-0.3
		c-0.1-0.1-0.2-0.1-0.2-0.1c-0.2,0-0.3,0-0.5,0.1l0,0c-0.4,0.4-0.7,0.7-1.1,1.1c-0.4,0.3-0.8,0.7-1.2,1.1c-0.8,0.9-1.2,2-1.5,3
		c-0.3,1.1-0.3,2.1-0.5,3.1c-0.2,1-0.4,2-0.7,3.1l0,0l0,0c0,0,0,0,0,0c0,0.1,0,0.2,0,0.4C43.8,33.8,43.7,34.4,43.7,35z"/>
	<path fill="#FFFFFF" class="st10" d="M54.4,36.4c0.1,0,0.2-0.1,0.2-0.2l0-0.1c-0.1-2.7-0.1-5.5-0.1-8.2c0-1.2,0-2.4,0-3.5c0-1.6,0-3.1,0-4.7
		c0,0,0,0,0,0l0,0c0-0.2-0.1-0.4-0.4-0.4c-0.2,0-0.4-0.1-0.7-0.2c-0.1,0-0.2,0-0.3,0c-0.1,0-0.2,0-0.2,0.1L52,19.5c0,0-0.2,0-0.4,0
		l-0.5,0c0,0-0.1,0-0.1,0c-0.1,0-0.2,0.1-0.3,0.2h0c-0.1,0.1-0.1,0.2,0,0.3c0.1,0.4,0.2,0.7,0.2,1l0.2,1.1l0.4,2.2
		c0.2,1,0.3,2,0.5,2.9c0.1,0.5,0.1,1,0.2,1.5c0.1-1.5,0-3-0.1-4.5c-0.1-0.7-0.1-1.5-0.2-2.2L51.7,21c0-0.2,0-0.4-0.1-0.5
		c0.2,0,0.4,0,0.6,0c0.2-0.1,0.4-0.2,0.5-0.2l0.4-0.2c0.1,0,0.2,0,0.3,0.1c0,1.5,0,3,0,4.4c0,1.2,0,2.3,0,3.5
		c0.1,2.6,0.3,5.3,0.6,7.9c0,0,0,0,0,0c-0.5-0.1-0.9-0.2-1.4-0.4c-0.3-2.2-0.4-4.5-0.6-6.7c0.1,2,0.2,4,0.3,6.1c0,0.3,0,0.5,0,0.8
		c0,0,0,0,0,0.1c0,0,0,0,0,0.1l0,0c0.5,0.2,0.9,0.4,1.5,0.5l0,0l0,0l0,0l0.1,0c0.1,0,0.1,0,0.2,0.1c0,0,0,0,0,0
		C54.3,36.4,54.4,36.4,54.4,36.4z M54.3,36.2L54.3,36.2C54.3,36.2,54.3,36.2,54.3,36.2C54.3,36.2,54.3,36.2,54.3,36.2z M54,36.3
		L54,36.3C54,36.3,54,36.3,54,36.3C54,36.3,54,36.3,54,36.3L54,36.3z M54.1,36.3c0,0,0.1,0,0.1,0c0,0,0,0,0,0
		C54.1,36.3,54.1,36.3,54.1,36.3z"/>
</g>
<g id="vernish" display="none" class="st11">
	<path display="inline" fill="#A191B2" class="st12" d="M33.5,4.6c0.1-0.1,0.1-0.2,0.2-0.2c0.1-0.2,0.3-0.3,0.4-0.4C33.8,4.1,33.6,4.3,33.5,4.6z"/>
	<path display="inline" fill="#A191B2" class="st12" d="M73.5,82.3c-0.1-1.3-0.2-2.5-0.3-3.8c-0.1-1.2-0.2-2.5-0.5-3.8c-0.5-2.5-1.3-4.9-2-7.3
		c-0.8-2.4-1.6-4.7-2.2-7.2c-0.3-1.2-0.5-2.4-0.6-3.6c-0.1-1.2-0.1-2.5-0.1-3.7c0.1-2.5,0.1-5-0.3-7.6c-0.4-2.5-1.8-4.9-3.9-6.4
		c-0.5-3.6-1-7.2-1.6-10.8c3-2,6.5-3.2,10.1-3.5c0.1,0,0.1-0.1,0.2-0.1c0-0.1,0-0.2-0.1-0.2c-1.9-0.6-3.5-2-5.1-3.2
		c-0.4-0.3-0.8-0.6-1.3-0.9c0,0-0.1-0.1-0.1-0.1c-0.1,0-0.1-0.1-0.2-0.1c-0.1-0.1-0.2-0.1-0.2-0.1c-0.2-0.2-0.5-0.3-0.7-0.5
		C64,19,63.5,18.8,63,18.6c-0.4-0.2-0.9-0.5-1.3-0.7c0.3,0,0.6-0.1,0.8-0.1c2-0.2,4-0.4,5.9-0.6c0.3,0,0.6-0.1,0.8-0.3
		c0.2-0.2,0.3-0.5,0.3-0.8c0.4-2,0.9-4,1.3-6c0.2-0.8,0.4-1.7,0.2-2.6c-0.5-3.4-4.1-4-4.3-7.6c0-0.2-5,1.6-5.3,2
		c-0.4,0.5-0.8,0.8-1.3,1.1c-0.5,0.4-1.2,0.7-1.8,1c0.6-0.3,1.3-0.5,1.8-1c0.1-0.1,0.2-0.1,0.3-0.2c-0.3,0.2-0.6,0.4-0.9,0.5
		c0,0,0,0,0,0c-1,0.4-2.3,0.5-3.1,1.5c-1,1.3-1.2,2.9-1.4,4.4c-0.1,0.7-0.3,1.6-0.6,1.9c-0.1,0.4-1,0.1-1.8,0.2
		c-0.9,0.1-1.6,0.6-2.1,0.7c-0.5-0.1-1.3-0.2-2-0.4c-2.9-0.5-5.3-2.2-7.8-3.9c-1.2-0.8-2.4-1.8-3.5-2.7c-0.6-0.4-1.1-1-1.9-1.3
		c-0.7-0.3-1.8,0-1.9,0.8c-1.7,2-3.4,4.2-3.8,6.8c-0.1,0.7-0.1,1.3-0.1,2c0,1.1-0.1,2.2,0.1,3.2c0.1,1,0.3,1.9,0.7,2.8
		c0,0.1,0.1,0.2,0.1,0.3c0.2,0.5,0.4,0.9,0.6,1.4c0.3,0.7,0.7,1.3,1.2,1.9c0.2,0.3,0.5,0.6,0.7,0.8c0.3,0.3,0.6,0.5,1,0.7
		c0.4,0.1,0.8,0.1,1.2,0c0.4-0.1,0.7-0.2,1.1-0.3c0.7-0.2,1.4-0.5,2.1-0.7c0.7-0.3,1.5-0.6,2.2-0.9c-0.3,0.2-0.6,0.5-1,0.8
		c-0.8,0.7-1.6,1.5-2.2,2.4c-1.3,1.7-2.4,3.6-3.4,5.5c0,0,0,0.1,0,0.1c0,0.2,0.1,0.4,0.3,0.4l0,0c1.2,0.2,2.3,0.8,3.4,1.5
		c1,0.7,2,1.4,3.1,2l-0.1,3c-1.2,2.1-2,4.4-2.6,6.6c-0.7,2.3-1.3,4.6-2,6.8c-0.4,1.1-0.8,2.2-1.3,3.2c-0.5,1-1.1,2.1-1.7,3.1
		c-0.6,1-1.2,2.1-1.7,3.2c-0.5,1.1-0.9,2.2-1.4,3.3c-0.8,2.3-1.6,4.5-2,6.9c-0.4,2.4-0.4,4.9-0.2,7.2c0.4,4.7,0.9,9.4,1.3,14.1
		c-0.1,0.2,0,0.3,0.1,0.5c0,0,0,0,0,0c0.1,0.1,0.1,0.1,0.2,0.1c1.8,1.1,3.7,2,5.8,2.6c2.1,0.6,4.3,0.9,6.4,0.5l0,0l0,0
		c0.1,0,0.2,0,0.3-0.1c0,0,0.1,0,0.1,0c0,0,0-0.1,0-0.1c1.4-1.9,2.5-4.1,3.3-6.3c0.9-2.2,1.5-4.6,2-6.9c0.1-0.2,0.1-0.5,0.2-0.7
		c0.7-2.7,1.4-5.9,2.4-9.1c0.4-1.3,0.8-2.5,1.3-3.8c0.3,0,0,1.6,0,1.9c0,1.3,0.1,1.6,0.1,2c0,1.3,0,2.3,0,3.3c0,1.4,0,2.7,0,4.1
		c0.1,2,0.2,4.1,0.5,6.1c0.4,2.3,1.1,4.6,2,6.7c1,2.1,2.3,4.1,3.8,5.9c0.1,0.1,0.1,0.1,0.2,0.1l0,0c2.3,0.2,4.6,0.1,6.9-0.2
		c1.1-0.2,2.3-0.4,3.4-0.6c0.6-0.1,1.1-0.3,1.7-0.5c0.6-0.2,1.2-0.5,1.6-1.1l0,0l0.2-0.2c0,0,0,0,0-0.1c1.2-2.3,1.7-4.9,2-7.4
		C73.7,87.3,73.7,84.8,73.5,82.3z M71.4,24.3C71.4,24.3,71.4,24.3,71.4,24.3L71.4,24.3C71.4,24.3,71.4,24.3,71.4,24.3z M65.7,20.2
		C65.7,20.2,65.8,20.2,65.7,20.2C65.8,20.2,65.7,20.2,65.7,20.2C65.7,20.2,65.7,20.2,65.7,20.2z M64.3,19.3c0.2,0.1,0.3,0.2,0.5,0.3
		c0,0,0,0,0,0C64.7,19.5,64.5,19.4,64.3,19.3C64.3,19.3,64.3,19.3,64.3,19.3z M29.8,17.3c0-0.1,0-0.3-0.1-0.4c0,0.3,0.1,0.5,0.1,0.7
		C29.8,17.6,29.8,17.5,29.8,17.3z M34.1,4c0,0,0.1-0.1,0.1-0.1c0,0,0,0,0,0c0,0,0,0,0,0C34.2,4,34.1,4,34.1,4
		c-0.2,0.1-0.3,0.3-0.4,0.4c-0.1,0.1-0.1,0.2-0.2,0.2C33.6,4.3,33.8,4.1,34.1,4z M33.5,4.7C33.5,4.7,33.5,4.7,33.5,4.7
		C33.5,4.7,33.5,4.7,33.5,4.7C33.5,4.7,33.5,4.7,33.5,4.7z M33.9,24.3C33.9,24.3,33.9,24.3,33.9,24.3c-0.5-0.2-0.8-0.5-1.1-0.9
		C33.1,23.8,33.5,24.1,33.9,24.3C33.9,24.3,33.9,24.3,33.9,24.3C33.9,24.3,33.9,24.3,33.9,24.3z M36,23.9c-0.7,0.2-1.4,0.5-2.1,0.4
		c0.2,0,0.3,0,0.5,0c0,0,0,0,0.1,0c0.6,0,1.1-0.2,1.7-0.4C36.1,23.9,36.1,23.9,36,23.9z M35.1,95.4c-1.7-0.5-3.3-1.3-4.8-2.2
		c0,0,0,0,0.1,0c2.8,1.6,6,2.8,9.2,2.8c0,0,0.1,0,0.1,0.1C38.1,96.1,36.6,95.9,35.1,95.4z M49.8,22.9c0,0.1,0,0.1,0,0.2
		c0-0.2,0-0.3-0.1-0.5C49.9,22.8,49.9,22.8,49.8,22.9z M48.9,21.3C48.9,21.3,48.9,21.3,48.9,21.3C48.9,21.3,48.9,21.3,48.9,21.3
		C48.9,21.3,48.9,21.3,48.9,21.3z M48.8,21.4L48.8,21.4c0.1,0,0.1-0.1,0.1-0.1c0,0,0,0,0,0C48.9,21.3,48.8,21.4,48.8,21.4L48.8,21.4
		c-0.4,0.4-0.7,0.7-1.1,1.1c-0.1,0.1-0.2,0.1-0.2,0.2L48.8,21.4z M44.4,29.7c0.1-0.2,0.1-0.4,0.1-0.6C44.5,29.3,44.5,29.5,44.4,29.7
		c-0.1,1-0.4,1.9-0.6,2.9L44.4,29.7z M40.3,22.2c-0.7,0.4-1.4,0.7-2.2,1c0.2-0.1,0.3-0.2,0.5-0.2c0,0,0,0,0,0
		c1.2-0.5,2.3-1.1,3.4-1.7c0,0,0,0,0,0c0,0,0,0,0,0C41.5,21.6,40.9,21.9,40.3,22.2z M42,35.5c-0.1,0-0.3-0.1-0.4-0.2
		C41.7,35.4,41.9,35.5,42,35.5c0.1,0,0.2,0.1,0.4,0.1C42.2,35.6,42.1,35.6,42,35.5z M42.4,21.6C42.4,21.6,42.4,21.6,42.4,21.6l0-0.1
		c0-0.1,0-0.1,0-0.2c0,0,0,0,0,0c0,0,0,0,0,0c0,0.1,0,0.1,0,0.2L42.4,21.6z M42.4,21.1c-0.1,0.1-0.1,0.1-0.2,0.1
		C42.3,21.2,42.3,21.1,42.4,21.1c0,0,0.1-0.1,0.1-0.1C42.5,21,42.4,21.1,42.4,21.1z M42.5,21c-0.1,0.1-0.2,0.1-0.3,0.2
		C42.3,21.1,42.4,21,42.5,21C42.5,21,42.5,21,42.5,21z M43.6,33.8c0.1-0.3,0.1-0.6,0.2-0.9c0,0,0,0,0,0c0,0.1,0,0.2,0,0.4
		c0,0.1,0,0.3,0,0.4C43.7,33.5,43.7,33.4,43.6,33.8z M50,34.7c-0.7-0.3-1.7-0.6-2.3-0.7c-1.5-0.2-2.7,0.1-3.9,0.9
		c0.1-0.7,0.3-1.3,0.4-2c0.4-1,0.7-2,1-3c0.3-1,0.4-2.1,0.7-3.1c0.3-1,0.7-1.9,1.3-2.6c0.3-0.3,0.7-0.7,1.2-1
		c0.2-0.1,0.3-0.3,0.5-0.5c0.6,3.5,0.9,7,1.2,10.5c0,0.3,0,0.5,0.1,0.8C50,34.3,50,34.5,50,34.7C50,34.7,50,34.7,50,34.7z
		 M50.3,32.4C50.3,32.4,50.3,32.4,50.3,32.4C50.3,32.4,50.3,32.4,50.3,32.4C50.3,32.4,50.3,32.4,50.3,32.4z M50.7,70.4
		c0.1-0.2,0.1-0.4,0.2-0.6c0,0,0,0,0,0C50.9,70,50.8,70.2,50.7,70.4z M52.3,33.5c0,0.1,0,0.3,0,0.4c0-0.2,0-0.4,0-0.6
		c0-0.1,0-0.3,0-0.4c0,0.7,0.1,1.3,0.1,2c0,0.1,0,0.3,0,0.4C52.3,34.5,52.3,33.9,52.3,33.5z M52.7,35.4c-0.2-1.4-0.3-2.9-0.4-4.3
		c0-0.1,0-0.3,0-0.4l0-0.1c0-0.6-0.1-1.2-0.1-1.8c0,0.4,0,0.9,0.1,1.3l0-0.2c0-0.4,0-0.7-0.1-1.1l-0.2-1c0-0.2,0-0.3,0-0.4
		c0.1,0.5,0.1,1,0.2,1.5c0.1-1.5,0-3-0.1-4.5c-0.1-0.7-0.1-1.5-0.2-2.2L51.7,21c0-0.2,0-0.3-0.1-0.5c0.1,0,0.2,0,0.3,0
		c0.1,0,0.2,0,0.4,0c0.2-0.1,0.4-0.2,0.5-0.2l0.4-0.2c0.1,0,0.2,0,0.3,0.1c0,1.5,0,3,0,4.4c0,1.2,0,2.3,0,3.5
		c0.1,2.6,0.3,5.3,0.6,7.9L52.7,35.4z M56.8,5.3C56.8,5.3,56.8,5.3,56.8,5.3C56.8,5.3,56.8,5.3,56.8,5.3c0.3-0.4,0.6-0.7,1-0.9
		C57.4,4.7,57.1,4.9,56.8,5.3C56.8,5.3,56.8,5.3,56.8,5.3c-0.1,0.1-0.2,0.4-0.3,0.6C56.6,5.7,56.7,5.5,56.8,5.3z M55,21.1
		C55,21.1,55,21.1,55,21.1C55.1,21.1,55.1,21.1,55,21.1C55,21.1,55,21.1,55,21.1z M55.2,11.7C55.2,11.7,55.2,11.7,55.2,11.7
		L55.2,11.7C55.2,11.7,55.2,11.7,55.2,11.7c0.1-0.1,0.1-0.2,0.2-0.3C55.3,11.5,55.2,11.6,55.2,11.7z M60.4,37.8
		c-0.2,0-0.3-0.1-0.5-0.1c-0.4-0.1-0.9-0.1-1.3,0c-0.1,0-0.2,0-0.3,0c-0.1,0-0.1-0.1-0.2-0.1c-0.1-0.1-0.2-0.1-0.3-0.1
		c-0.3-0.1-0.5-0.2-0.8-0.3c-0.2-0.1-0.3-0.1-0.5-0.2c-0.3-3.6-0.5-7.1-0.8-10.8c0-0.3,0-0.5-0.1-0.8c0,0,0,0.1,0,0.1
		c0.1,0.3,0.1,0.6,0.2,0.9c0.1-1.6,0.1-3.3,0.1-4.9c0,0,0.1,0.1,0.1,0.1c0.3,0.3,0.5,0.7,0.7,1c0.1,0.2,0.2,0.5,0.4,0.7
		c0,0.1,0.1,0.2,0.1,0.3c0.2,0.3,0.3,0.7,0.5,1c0,0.1,0.1,0.2,0.1,0.3c0.3,0.8,0.7,1.6,1,2.4c0.2,0.4,0.3,0.9,0.4,1.3
		c0,0.3,0,0.7-0.1,1c0,0,0.1-0.1,0.1-0.1c0-0.3,0-0.5,0-0.8c0,0.1,0,0.1,0,0.2c0,0.2,0,0.4,0,0.6c0,0.1,0,0.2,0,0.3
		c0.1-0.1,0.1-0.3,0.1-0.4c0,0,0,0,0,0c0,0,0.1-0.1,0.1-0.1c0.2-0.2,0.4-0.3,0.6-0.5c-0.2,0.2-0.4,0.3-0.6,0.5l1.3,8.7l0,0
		C60.7,37.8,60.6,37.8,60.4,37.8z M61.5,27.7C61.5,27.7,61.5,27.7,61.5,27.7C61.5,27.7,61.5,27.7,61.5,27.7
		C61.5,27.7,61.5,27.7,61.5,27.7C61.5,27.7,61.5,27.7,61.5,27.7z M61.9,18.1c0.3,0.1,0.6,0.3,0.9,0.4c-0.3-0.2-0.7-0.3-1-0.4
		C61.8,18.1,61.8,18.1,61.9,18.1z"/>
</g>
</svg>
