<?xml version="1.0" encoding="utf-8"?>
<svg version="1.1" xmlns="http://www.w3.org/2000/svg" xmlns:xlink="http://www.w3.org/1999/xlink" x="0px" y="0px"
	 viewBox="0 0 100 100" style="enable-background:new 0 0 100 100;" xml:space="preserve">
      <g id="ETQChaussureFoot-C_svg__print">
        <g id="ETQChaussureFoot-C_svg__clair">
          <path
            fill="#fde000"
            className="ETQChaussureFoot-C_svg__st0"
            d="M6.6 70.3c1.5.3 3 .7 4.5 1.1.3-.7.6-1.5.8-2.2 0-.1.1-.2 0-.3 0-.1-.1-.2-.2-.2C10 67.6 8 66.4 6 66.1c-.3 1.4.3 2.8.6 4.2zm9.9 3.2c.1.3.2.5.5.7.2.2.5.3.8.3 1.2.3 2.4.4 3.6.5.2 0 .4 0 .5-.1s.2-.3.2-.5c.3-1.1.5-2.3.8-3.4-1.7-.3-3.3-.6-5-1-.7-.1-1.6-.5-2.3-.4-.9.1-.6.7-.3 1.3.4.8.8 1.7 1.2 2.6zm13 2.3c1 .1 2.2.2 3.1.1.9-.1 1.2-.1 2.1 0 .4-1.2.5-2.5.4-3.8 0-.1-4.8-.2-5.3-.3-.6 0-2.2-1.6-2.6-1.2s.3 1.9.6 2.6c.4.9.9 2.5 1.7 2.6zm12.7-.5c.2.2.4.4.7.5s.6 0 .9 0c1.8-.3 3.5-.7 5.3-1 .1 0 .2 0 .3-.1s.1-.2.1-.3c.1-1.5.1-2.9.2-4.4-2 .4-4.1.7-6.1.9-1.2.1-3.6.1-3 2 .1.8 1 1.7 1.6 2.4zm39.3-.7c1.6 0 3.1-.1 4.7-.1.4 0 .8 0 1.2-.2.5-.2.8-.5 1.2-.9 1.5-1.6 2.7-3.5 4-5.3-.1.2-1.4.3-1.7.3-.6.1-1.1.2-1.7.3-1.2.2-2.3.3-3.5.4s-2.3.1-3.5.2c-.4 0-1-.1-1.3.1-.3.3-.1.9 0 1.2.2 1.4.4 2.7.6 4zm-13.1-.8c0 .2.1.3.2.4s.3.1.5.1c1.7-.1 3.5-.2 5.2-.3.2 0 .5 0 .7-.1s.4-.4.6-.6c1-1.5 2-2.9 3-4.4-.1.2-1.3.1-1.5.1-.5 0-1.1 0-1.6.1H69c-.7 0-1.1.4-1 1.2-.2 1.1.1 2.4.4 3.5z"
          />
          <path
            fill="#eef1f9"
            className="ETQChaussureFoot-C_svg__st1"
            d="M93.1 36.4c-1.7-.8-6.3-.6-8 .2s-3.5 1.7-5.4 1.7c-1.9-.1-3.6-1.2-5.3-2.2-5.1-3.1-10.6-5.6-16.3-7.4 2.9 2.5 6.2 5.9 9.1 8.4 3.2 2.7 6.5 5.5 10.4 6.9 1.4.5 3.1.8 4.5.2.8-.4 1.5-1 2.1-1.7 2-2 7-4.1 8.9-6.1z"
          />
          <path
            fill="#fde000"
            className="ETQChaussureFoot-C_svg__st0"
            d="M58.4 70.2c-1.4.2-2.8.6-4.2.7-1.8.2-3.6.4-5.5.6-3.6.4-7.3.7-10.9.8H37c-6.7.2-13.4-.6-19.9-2.1-3.3-.8-6.5-1.7-9.6-2.9-.9-.3-1.8-.7-2.7-1.2-.6-.4-1.1-1-1.7-1.5-.9-.7-1.9-1.4-2.2-2.5-.1-.5 0-1 .1-1.6s.2-1.2.4-1.8c1.3-4.9 6.2-6.4 10.5-7.2 5.4-1 10.7-2.4 15.8-4.5 10.7-4.5 20.2-11.4 28.4-19.5l.8-.8c4.9 5.4 11 9.9 17.6 13.1 2.8 1.4 6.1 2.5 9 1.2 2.5-1.2 4.2-4.1 6.9-4.4 1-.8 2.6-.8 3.7-.1.3.2.7.2 1 .4.7.3 1.3 1 1.7 1.7.5 1 .7 2.2.8 3.3 0 2.9 1.1 5.9 1 8.8-.2 5.1-1.7 9.4-2.7 14.7-.2.9-.7 2.3-1.5 2.8-.3.2-.6.2-.9.3-1.4.2-2.8.4-4.2.5-6.9.6-13.8 0-20.7.2-3.5.3-6.9.6-10.2 1z"
          />
          <path
            fill="#1b1b19"
            className="ETQChaussureFoot-C_svg__st2"
            d="M31.7 54c-.2 0-.4 0-.5-.2-2-1.3-3.9-2.7-5.7-4.2-.4-.4-.5-1-.1-1.4s1-.5 1.4-.1c1.7 1.5 3.6 2.8 5.4 4 .5.3.6.9.3 1.4-.1.3-.5.5-.8.5zm4.6-3.1c-.3 0-.6-.1-.8-.4-1.1-1.5-2.6-2.6-4.3-3.2-.5-.2-.8-.8-.6-1.3.2-.5.8-.8 1.3-.6 2 .8 3.9 2.2 5.2 3.9.3.4.2 1.1-.2 1.4-.2.2-.4.2-.6.2zm6.2-2.6c-.2 0-.3 0-.5-.1-2.1-1.1-4.2-2.5-6-4.1-.4-.3-.5-1-.1-1.4.3-.4 1-.5 1.4-.1 1.8 1.5 3.7 2.8 5.7 3.8.5.3.7.9.4 1.3-.2.4-.6.6-.9.6zm5.9-3c-.1 0-.2 0-.4-.1-2.5-1-4.9-2.5-6.8-4.4-.4-.4-.4-1 0-1.4s1-.4 1.4 0c1.8 1.7 3.9 3.1 6.2 3.9.5.2.8.8.6 1.3s-.6.7-1 .7zm5.4-1.9c-.3 0-.5-.1-.7-.3l-6.7-6.6c-.4-.4-.4-1 0-1.4s1-.4 1.4 0l6.7 6.7c.4.4.4 1 0 1.4-.2.1-.5.2-.7.2z"
          />
          <path
            fill="#eef1f9"
            className="ETQChaussureFoot-C_svg__st1"
            d="M94 67.3c.4-.3.8-.7 1.2-1.1.7-.8 1.1-1.9 1.5-3 .3-1.1.6-2.2.8-3.3.6-3.2 1-6.5 1.1-9.8.1-2.7.3-6.2-1.1-8.7-.5-.9-.6-1.9-1.3-2.7-1.5-1.8-4.5-1.4-6.1-.1-1.3 1-2.1 2.5-3.1 3.8-3.3 4.8-7.5 8.5-12.9 10.5-4.4 1.6-8.9 2.9-13.4 3.8-2.2.4-4.6.5-6.8 1.2-2.5.8-5 3.1-5.3 5.7-.2 2 .9 3.9 2.3 5.3s3.2.8 5 .7c1.9-.2 3.9-.5 5.8-.7 7.2-1.1 14.3-1.1 21.6-1h8.2c.5 0 1 0 1.5-.2.5 0 .7-.2 1-.4z"
          />
          <path
            fill="#1b1b19"
            className="ETQChaussureFoot-C_svg__st2"
            d="M52.8 71c-.2 0-.4-.1-.6-.2-1.4-1.1-2.3-3-2.5-5.1-.1-1.9.4-3.6 1.5-4.7s2.6-1.9 4.7-2.3c2.9-.7 5.9-1 8.7-1.3 4.4-.5 8.6-.9 12.6-2.5 2.8-1.1 5-2.7 6.8-4.6 1.3-1.4 2.2-3 3.2-4.7.6-1 1.2-2 1.8-2.9 1.7-2.6 5.2-4.5 8-3.1.5.2.7.8.5 1.3s-.8.7-1.3.5c-2-1-4.5.9-5.5 2.5-.6.9-1.2 1.9-1.7 2.8-1 1.7-2 3.5-3.4 5-1.9 2.1-4.5 3.8-7.5 5-4.3 1.8-8.8 2.2-13.2 2.7-2.8.3-5.7.6-8.5 1.2-1.7.4-2.9 1-3.7 1.8-.7.7-1.1 1.9-1 3.2.1 1.5.8 2.9 1.7 3.6.4.3.5 1 .2 1.4-.2.2-.5.4-.8.4z"
          />
        </g>
      </g>
    </svg>