<?xml version="1.0" encoding="utf-8"?>
<!-- Generator: Adobe Illustrator 25.1.0, SVG Export Plug-In . SVG Version: 6.00 Build 0)  -->
<svg version="1.1" xmlns="http://www.w3.org/2000/svg" xmlns:xlink="http://www.w3.org/1999/xlink" x="0px" y="0px"
	 viewBox="0 0 100 100" style="enable-background:new 0 0 100 100;" xml:space="preserve">
<g id="print">
	<path fill="none" class="st0" d="M34,3.9C34,3.9,34,3.9,34,3.9C34,3.9,34,3.9,34,3.9z"/>
	<path fill="none" class="st0" d="M56.6,5.3C56.6,5.3,56.6,5.3,56.6,5.3c0.3-0.4,0.6-0.6,1-0.9C57.2,4.6,56.9,4.9,56.6,5.3z"/>
	<path fill="none" class="st0" d="M33.3,4.6c0.1-0.1,0.1-0.2,0.2-0.2c0.1-0.2,0.3-0.3,0.4-0.4C33.6,4.1,33.4,4.3,33.3,4.6z"/>
	<path fill="#EFBBBE" class="st1" d="M59.3,3.5C59.3,3.5,59.3,3.5,59.3,3.5C59.3,3.5,59.3,3.5,59.3,3.5z"/>
	<path fill="#BAE1EF" class="st2" d="M97.4,51.2c0-0.7-0.3-1.6-0.6-2.3c-0.7-2.4-1.5-4.8-2.4-7.2c-0.8-2.2-1.8-4.2-2.8-6.2
		c-0.1-0.3-0.2-0.5-0.2-0.5c-0.2-0.6-0.6-1.2-1-1.7c0,0,0,0,0,0c-1.3-2.3-2.8-4.5-4.5-6.5c0,0,0,0,0,0c0.1-0.2-2.3-3.2-3.5-3.8
		c-1.5-1.5-3.2-2.9-4.9-4.1c0,0,0,0,0,0c-0.1-0.1-0.2-0.1-0.3-0.2c-0.3-0.2-0.7-0.5-1-0.7c-0.6-0.5-1.3-1-2.4-1.5
		c-0.4-0.2-0.7-0.4-1.1-0.6c-3.2-1.8-6.8-3.2-10.7-4.4c-0.6-0.2-1.2-0.5-1.7-0.6c0,0.1,0,0.1,0,0.2c-2.6-0.7-5.3-1.2-8-1.6
		c0,0,0,0,0,0c-0.1-0.1-2.5-0.6-4.2-0.4c-2.5-0.1-5-0.1-7.5,0.1c0,0,0,0,0,0L40,9.1c-5.3,0.5-10.4,1.8-15,4
		c-0.3,0.1-0.5,0.3-0.8,0.4c-0.8,0.4-1.5,0.9-2.6,1.5c0,0,0,0,0,0c-1,0.7-2,1.4-2.9,2.2c-1.4,1.2-2.7,2.5-4,3.8
		c-0.9,0.3-1.2,1.1-1.8,2.1c-5.1,6-9,13.4-10.9,21.1c0,0,0,0,0,0c-0.5,1-0.6,3.3-1.1,5.2c0-0.1,0.1-0.1,0.2-0.2
		c-0.2,1.8-0.4,3.6-0.4,5.4c0,0.1-0.1,0.1-0.1,0.1c-0.5,0.8-0.3,2.6-0.4,3.6c0.2,0,0.5-0.1,0.7-0.2c0.2,2.5,0.7,5,1.4,7.5
		c1.5,4.9,4.2,9.2,7.6,12.7c0,1.2,1.6,2.2,3.1,2.9c4.5,3.7,10,6.1,15.9,7c0.5,0.7,2.7,0.3,3.9,0.6c0-0.1,0-0.1,0.1-0.2
		c1.6,0,3.1,0,4.7-0.3c0.3,0.1,0.7,0.2,1.3,0.2c0-0.2,0.1-0.3,0.1-0.5c3.9-0.8,7.6-2.4,10.7-5.3c0.3-0.1,0.6-0.3,0.9-0.5
		c2-1,3.7-2.3,5.2-3.9c0.3-0.2,0.6-0.2,0.7-0.1c11.5,10.2,37.1,11.4,39,6.1c1.9-5.1,3.1-10.5,3.7-15.8
		C99.5,62.5,98.8,56.8,97.4,51.2z"/>
	<path fill="#545570" class="st3" d="M25.1,68.5c-3.1,2.4-3.2,4.9-4,8.3c-0.4,1.8-2.7,4.8-2.5,6.5c0.2,1.9,3.5,2.1,4.4,2.8c1.1-0.6,2.6-4.1,2.6-5.7
		c0-1.2-0.8-2.4-1.1-3.6c-1.6-5.7,4.5-7.4,5-12.6C28.6,66.4,26.8,67.1,25.1,68.5z"/>
	<path fill="#545570" class="st3" d="M12.3,52c2.7-0.5,8.1-1.9,9.7-4.3c-3.8-0.4-6,0.7-9.4-2.1C9.5,43,5.8,42.3,1.9,44.2c0,0,0,0,0,0
		c-0.5,1-0.6,3.3-1.1,5.2c0-0.1,0.1-0.1,0.2-0.2c2.5-3.8,9.9-6.9,12-1.5c-1.9,0.2-3.8,0.5-5.5,1.6c-1.7,1.1-2.7,3.2-4.6,4.1
		c-1.1,0.5-1.7,0.4-2.3,1.2c0,0.1-0.1,0.1-0.1,0.1c-0.5,0.8-0.3,2.6-0.4,3.6c0.2,0,0.5-0.1,0.7-0.2c1.6-0.5,3.1-1.4,4.4-2.4
		C7.8,53.5,8.9,52.6,12.3,52z"/>
	<path fill="#545570" class="st3" d="M37.7,78.8c-1.4-2.2-3.1-3.9-2.9-6.6c-2.2,2.1-4.3,3.5-4.5,6.8c-0.2,2.9,1.7,7.2-1.9,8.8
		c0,0.2,0.1,0.2,0.2,0.3c0.5,0.7,2.7,0.3,3.9,0.6c0-0.1,0-0.1,0.1-0.2c1.8-3.9-1.6-9.2,1-13.1c0.7,2.7,2.3,4.8,3.1,7.5
		c0.7,2.4-1,4.7,0.6,5.4c0.3,0.1,0.7,0.2,1.3,0.2c0-0.2,0.1-0.3,0.1-0.5C39.3,84.8,39.7,81.9,37.7,78.8z"/>
	<path fill="#545570" class="st3" d="M16.2,77.3c0.5-1.8,0.1-3.2,0.5-4.9c0.7-3.1,6.7-5.5,6-8.6c-1.9,0.9-3.3,2.8-5.1,4c-2.8,1.9-2.9,3-4.5,5.9
		c-0.6,1.1-3.4,3.2-3.5,4.4c0,0.1,0,0.1,0,0.2c0,1.2,1.6,2.2,3.1,2.9c0.6,0.3,1.1,0.5,1.6,0.7C15,80.4,15.8,79,16.2,77.3z"/>
	<path fill="#545570" class="st3" d="M9.9,65c-1.4,1.8-2.9,4.3-5.5,3.5c0.6,1.4,1,3.6,1.5,4.5c7.9-0.8,7.8-13,15.9-14C16.9,58.4,12.7,61.3,9.9,65z"
		/>
	<path fill="#545570" class="st3" d="M17.6,38.3c-1.6-2.3-1.5-4.5-3.9-6.4c-4.8-3.9-5.3-0.6-8.5,3.3c4.7-1,6.2,0.1,9.3,3.3c1.4,1.5,2.9,1.6,4.9,2.3
		c1.6,0.6,2.9,2,4.2,2.6C21.9,41.5,19,40.3,17.6,38.3z"/>
	<path fill="#545570" class="st3" d="M16,24.8c2.2,1.2,3.8,2.8,4.4,5.3c0.4,1.9,0.2,3.3,1.8,4.5c1.2,0.8,2.7,1,3.8,2c-0.8-1.7-2-3.3-2.6-5.1
		c-0.9-2.8-0.9-5-3.3-7.2c-1-0.8-3.4-3.4-4.9-3.3c-0.2,0-0.4,0.1-0.6,0.1c-0.9,0.3-1.2,1.1-1.8,2.1c0,0.1-0.1,0.1-0.1,0.2
		C12.7,23.5,15.2,24.3,16,24.8z"/>
	<path fill="#545570" class="st3" d="M28.7,29.1c0.3,0.2,0.5,3.1,1.4,4.1c0-1.6,0.8-3.4,0.4-5c-0.4-1.8-2.8-2.6-1.9-0.3L28.7,29.1z"/>
	<path fill="#545570" class="st3" d="M28.7,24.8c-0.5-2.2-1.2-4-1.3-6.4c-0.1-1.8,0.3-4.5-0.9-5.9c-1,0.4-1.6,0.7-2.3,1c-0.8,0.4-1.5,0.9-2.6,1.5
		c0,0,0,0,0,0C26.5,16.5,22.5,26.8,28.7,24.8z"/>
	<path fill="#545570" class="st3" d="M37.4,18.8c0.4-0.8,0.4-1.7,0.8-2.5c0.6-1.4,2.2-2.3,2.5-3.8C41.1,10,40.9,10,40.5,9c0,0,0,0,0,0L40,9.1
		l-3.8,0.6C39.3,10.7,35.3,16.7,37.4,18.8z"/>
	<path fill="#545570" class="st3" d="M54.2,19.4c-0.7,1.9-0.8,5.5,0.9,6.7c0.8-0.8,0.7-1.7,0.9-2.7c0.3-2.2,0.9-2.9,2.7-4.4
		c1.6-1.3,5.7-4.5,5.1-6.7c-0.5-0.2-1.3-0.5-2-0.9c-0.6-0.2-1.2-0.5-1.7-0.6c0,0.1,0,0.1,0,0.2C60.3,14,55.3,16.5,54.2,19.4z"/>
	<path fill="#545570" class="st3" d="M69,29.6c1.6-2.3,4-3.6,5.7-5.8c1.2-1.6,1.8-3.5,2.7-5.1c0,0,0,0,0,0c-0.1-0.1-0.2-0.1-0.3-0.2
		c-0.3-0.2-0.7-0.5-1-0.7c-0.6-0.5-1.3-1-2.4-1.5c-0.6-0.2-1.2-0.5-2-0.7C76,19.3,68.9,25.5,69,29.6z"/>
	<path fill="#545570" class="st3" d="M82,22.8C82,22.8,82,22.8,82,22.8C82,22.8,82,22.8,82,22.8L82,22.8z"/>
	<path fill="#545570" class="st3" d="M80.5,29.2c1-0.1,4.7-1.6,5.3-2.5c0,0,0,0,0,0c0.1-0.2-2.3-3.2-3.5-3.8c-0.1,0-0.2-0.1-0.3-0.1
		C81.8,23.3,80.8,27.4,80.5,29.2z"/>
	<path fill="#545570" class="st3" d="M66.2,70.2c3-0.2,5.9-1.1,8.5-2.6c2.3-1.4,4.2-3.3,5.9-5.4c0.8-0.9,2.1-2.3,2.3-3.5c-3.5,0.3-5.4,3.9-8.5,5.1
		c-3,1.2-6.8,1.9-10,1.3c-0.3-0.1-0.9-0.2-1.5-0.4c1-3.6,1.5-7.5,1.2-11.3c3.8-2.5,6.3-6.9,7.7-11.1c1.1-3.1,2.8-5.3,5.3-7.3
		c0.7-0.6,2.5-1.5,2.8-2.5c-1.7-0.1-3.7,0.7-5.2,1.3c-3.1,1.2-5.9,3.4-7.6,6.2c-1.2,2-2.2,4.4-3.8,6c-0.2,0.2-0.4,0.4-0.6,0.6
		c-1-2.6-2.5-5-4.4-7.2c1.2-1.7,2-4.6,2.3-6c0.5-2.7-0.3-5.8,1.5-8.1c-3.5,1.3-4.4,5.4-5.1,8.6c-0.2,0.8-0.5,2.1-1.2,3.2
		c-1.8-1.5-3.9-2.7-6.2-3.5c0.1-0.3,0.2-0.6,0.2-0.9c0.5-3.3-1.8-5.5-2.7-8.4c-1-3.3,1.7-6.3,3.1-9.3c0.5-1,2.6-4.5,2.1-5.6
		c0,0,0,0,0,0c-0.1-0.1-2.5-0.6-4.2-0.4c-0.2,0-0.4,0-0.5,0.1c3,1.6-0.6,7.5-1.7,9.2c-1.5,2.3-1.6,3.8-0.9,6.3
		c0.8,2.7,1,5.4,0.4,8.1c-1.6-0.2-3.2-0.2-4.8,0c0-0.7-0.1-1.3-0.3-1.9c-0.6-1.6-1.4-3-1.6-4.7c-0.2-1.4,0.5-3.6-0.7-4.5
		c-0.9,1.8-0.7,5.3-1.3,7.5c-0.3,1.3-0.4,2.9,0,4.2c0,0,0,0,0,0c-3.6,0.9-7.1,2.9-9.7,5.9c-2.5,2.9-4.2,6.4-4.6,10.4
		c-0.5,3.8,0.6,8.2,3.6,11.2c2.8,2.6,6,4.6,10,5.3c1.9,0.3,4.1,0.2,6-0.5c1.9-0.7,3.4-1.8,4.8-3c1.4-1.2,2.7-2.6,3.6-4.5
		c0.8-1.9,1-3.9,0.7-5.9c-0.4-1.9-1.2-3.8-2.7-5.2c-1.5-1.4-3.6-2.2-5.6-2c-1.9,0.1-4,1.2-5,2.8c-1.1,1.5-1.9,3.4-1.3,5.4
		c0.9,2,3.3,2.6,5,1.7c0.8-0.5,1.4-1.3,1.5-2.2c0.3-0.9-0.6-1.9-1.5-1.7c0.9-0.1,1.4,0.8,1.1,1.6c-0.3,0.7-0.8,1.3-1.5,1.6
		c-1.3,0.6-3.2-0.3-3.4-1.5c-0.3-1.2,0.5-2.8,1.5-3.8c1-1.2,2.2-1.6,3.7-1.5c2.8-0.1,4.8,2.4,5,5.2c0.3,2.9-1,5.2-3.5,7
		c-1.2,0.9-2.5,1.6-3.8,2c-1.2,0.4-2.5,0.4-3.9,0.2c-2.6-0.5-5.3-2.3-7.3-4.3c-3.7-3.8-2.4-10.8,1.4-15c3.6-4.4,10.3-5.8,16-4.8
		c5.7,1.1,10.4,5.8,12.8,11.4c2.5,5.6,1.9,12.4,0.1,18.6c-1.7,6.2-5.2,12.3-11.1,15.5c0.7-0.2,1.3-0.5,1.9-0.8c2-1,3.7-2.3,5.2-3.9
		c2.3-2.4,4.1-5.3,5.5-8.4C62.7,70.1,64.5,70.3,66.2,70.2z"/>
	<path fill="#545570" class="st3" d="M95.4,46.9c-3.6,0.4-9,5.8-10.4,9.4c0.6,0.2,1.2-0.6,1.7-0.9c1.4-0.9,2.7-1.8,4.2-2.3c1.8-0.6,3.9,0.2,5.6-0.4
		c0.6-0.2,0.8-0.8,0.8-1.5c0-0.7-0.3-1.6-0.6-2.3C96.3,48,95.7,47.2,95.4,46.9z"/>
	<path fill="#545570" class="st3" d="M87.5,33.8c-2,1.4-3.9,3-5.4,5c-0.8,1.1-1.4,2.3-1.7,3.6c-0.3,1.3-0.4,2.6-0.6,3.9c-0.8,4-3.8,7.1-6.6,10
		c2.5-1.6,4.9-3.4,7.2-5.3c1.1-0.9,2.2-1.9,3-3.1c0.9-1.4,1.4-3.2,2.1-4.7c1.3-2.8,3.5-5.1,6.2-6.5c0.1-0.1-0.1-0.8-0.3-1.3
		c-0.1-0.3-0.2-0.5-0.2-0.5c-0.2-0.6-0.6-1.2-1-1.7c0,0,0,0,0,0C89.4,32.2,88.4,33.2,87.5,33.8z"/>
</g>
<g id="vernish" display="none" class="st4">
	<path display="inline" fill="#A191B2" class="st5" d="M97.4,51.2c0-0.2,0-0.4-0.1-0.6c-0.1-0.4-0.2-0.8-0.3-1.2c-0.1-0.2-0.2-0.4-0.2-0.6c-0.7-2.4-1.5-4.8-2.4-7.2
		c-0.8-2.2-1.8-4.2-2.8-6.2c0-0.1-0.1-0.2-0.1-0.3c0-0.1,0-0.1-0.1-0.1c0,0,0,0,0-0.1c-0.2-0.6-0.6-1.2-1-1.7c0,0,0,0,0,0
		c-1.3-2.3-2.8-4.5-4.5-6.5l0,0c0,0,0,0,0,0c0,0,0,0,0,0c0,0,0-0.1-0.1-0.3c0-0.1-0.1-0.1-0.1-0.2c-0.2-0.3-0.5-0.6-0.8-1
		c-0.2-0.2-0.3-0.4-0.5-0.6c-0.2-0.2-0.4-0.5-0.6-0.7c-0.5-0.5-1-0.9-1.4-1.1c-1.5-1.5-3.2-2.9-4.9-4.1c0,0,0,0,0,0c0,0,0,0,0,0l0,0
		l0,0c-0.1-0.1-0.2-0.1-0.3-0.2c-0.3-0.2-0.7-0.5-1-0.7c-0.6-0.5-1.3-1-2.4-1.5c-0.4-0.2-0.7-0.4-1.1-0.6c-3.2-1.8-6.8-3.2-10.7-4.4
		c0,0,0,0,0,0c-0.1-0.1-0.3-0.1-0.4-0.2c-0.4-0.2-0.9-0.3-1.2-0.5c0,0.1,0,0.1,0,0.2c-2.6-0.7-5.3-1.2-8-1.6l0,0c0,0,0,0,0,0
		c0-0.1-0.4-0.1-0.9-0.2C50.7,9,50,8.9,49.3,8.9c0,0,0,0,0,0c-0.5,0-0.9,0-1.3,0.1c-2.5-0.1-5-0.1-7.5,0.1c0,0,0,0,0,0L40,9.1
		c-5.2,0.5-10.2,1.7-14.7,3.9c-0.1,0-0.2,0.1-0.2,0.1c0,0,0,0,0,0c0,0,0,0,0,0c-0.3,0.1-0.5,0.3-0.8,0.4c-0.2,0.1-0.4,0.2-0.6,0.3
		c-0.4,0.2-0.8,0.5-1.3,0.8c-0.2,0.1-0.5,0.3-0.8,0.5l0,0l0,0c0,0,0,0,0,0c0,0,0,0,0,0c-1,0.7-2,1.4-2.9,2.2c-1.4,1.2-2.7,2.5-4,3.8
		c0,0,0,0,0,0c-0.2,0.1-0.4,0.2-0.6,0.3c-0.2,0.2-0.4,0.5-0.6,0.8c-0.2,0.3-0.4,0.6-0.6,1c-5.1,6-9,13.4-10.9,21.1c0,0,0,0,0,0
		c-0.5,1-0.6,3.3-1.1,5.2c0-0.1,0.1-0.1,0.2-0.2c-0.2,1.8-0.4,3.6-0.4,5.4c0,0-0.1,0.1-0.1,0.1c0,0,0,0,0,0
		c-0.2,0.3-0.3,0.7-0.3,1.2c0,0.2,0,0.4,0,0.5c0,0.7,0,1.4-0.1,1.8l0,0l0,0c0.2,0,0.5-0.1,0.7-0.2c0.2,2.5,0.7,5,1.4,7.5
		c1.5,4.9,4.2,9.2,7.6,12.7l0,0c0,0.5,0.2,0.9,0.6,1.3c0.1,0.1,0.3,0.3,0.4,0.4c0.3,0.2,0.6,0.5,1,0.7c0.4,0.2,0.7,0.4,1.1,0.6
		c4.5,3.7,10,6.1,15.9,7c0.3,0.4,1.3,0.4,2.3,0.5c0.6,0,1.2,0,1.7,0.2l0,0l0,0c0-0.1,0-0.1,0.1-0.2l0,0c1.6,0,3.1,0,4.7-0.3
		c0,0,0.1,0,0.1,0c0.1,0.1,0.3,0.1,0.4,0.1c0.1,0,0.2,0,0.3,0c0.1,0,0.3,0,0.4,0c0-0.2,0.1-0.3,0.1-0.5c3.9-0.8,7.6-2.4,10.7-5.3
		c0.3-0.1,0.6-0.3,0.9-0.5c1-0.5,1.9-1.1,2.8-1.7c0.7-0.5,1.3-1,1.9-1.6c0.2-0.2,0.4-0.4,0.6-0.6c0.3-0.2,0.6-0.2,0.7-0.1
		c11.5,10.2,37.1,11.4,39,6.1c1.9-5.1,3.1-10.5,3.7-15.8C99.5,62.5,98.8,56.8,97.4,51.2z"/>
</g>
</svg>
