<?xml version="1.0" encoding="utf-8"?>
<!-- Generator: Adobe Illustrator 25.1.0, SVG Export Plug-In . SVG Version: 6.00 Build 0)  -->
<svg version="1.1" xmlns="http://www.w3.org/2000/svg" xmlns:xlink="http://www.w3.org/1999/xlink" x="0px" y="0px"
	 viewBox="0 0 100 100" style="enable-background:new 0 0 100 100;" xml:space="preserve">
<g id="print">
	<path fill="none" class="st0" d="M34,3.9C34,3.9,34,3.9,34,3.9C34,3.9,34,3.9,34,3.9z"/>
	<path fill="none" class="st0" d="M33.3,4.6c0.1-0.1,0.1-0.2,0.2-0.2c0.1-0.2,0.3-0.3,0.4-0.4C33.6,4.1,33.4,4.3,33.3,4.6z"/>
	<path fill="#FFA489" class="st1" d="M99.6,40.3c-3.7-0.2-7.5,0.3-11-0.9c-3.4-1.1-6.5-3.4-10-4.5c-3.1-1-10.7-2.5-13.8-3.1c0,0-1.6-8.3-3.7-11.4
		c-1.6-2.3-3.2-4.9-4.3-7.4C54.5,7.8,52.5,1.6,48,9.3c-2.6,4.5-4.3,6.9-7,11.5c-2.6,4.5-3.8,8.7-5.6,11.8
		c-4.8-0.4-12.9-0.3-17.9,0.6c-4.6,0.8-8.9,2.1-13.6,2.2c-3.8,0-4.1,2.1-2.9,4.4c0.2,0.5,0.5,1.1,0.6,1.4
		c5.2,7.2,15.5,9.2,22.8,13.6c-0.3-0.2-6.7,9.7-7.2,10.5c-2.1,4.1-3.2,8.5-5.6,12.5c-2,3.3-4.3,6.6-6.7,9.6c-1.6,2-0.7,2.8,1,3
		c0.4,0.2,0.8,0.5,1.3,0.7c2.7,1.1,6.4-0.6,9.1-1c5.8-1,10.3-3.7,14.9-7.2c4.8-3.6,8.8-7.7,13.3-11.6c0.4-0.3,0.8,0.1,1.2-0.3
		c0.2,0.2,0.5,0.4,0.6,0.5C52,76.9,57.1,82.7,63.8,87c5,3.2,10.5,5.1,16.5,3.8c0.7-0.2,1.8,0.5,2.5,0.3c0.7-0.3,1.2-0.7,1.8-1.1
		c1.3-0.5,2.6-1.3,2-2.9c-0.3-1-2.2-1.9-2.9-2.6c-3.1-3.3-4.8-9.1-6.5-13.4c-0.9-2.3-1.9-4.6-3-6.7c-1.2-2.2-2.9-4-4.2-6.1
		c3.2-0.3,5.8-1.3,8.9-2.4c3.8-1.4,8-3,11.5-4.9c2.1-1.1,3.8-2.2,5.5-3.9C97.6,45.3,100.1,42.9,99.6,40.3z"/>
	<path fill="#F8EDD4" class="st2" d="M17.8,50.8C12.6,49.2,7.6,47,3.7,43.1c-1.1-1.1-2-2.3-2.6-3.4c0.2,0.5,0.5,1.1,0.6,1.4
		c0.7,1.3,1.6,2.4,2.5,3.5c1,1.2,2.3,1.9,3.6,2.6c1.4,0.8,2.4,1.8,3.9,2.5c0.6,0.3,1.3,0.4,1.9,0.8c0.8,0.4,1.4,0.9,2.3,1.2
		c1.5,0.5,3.1,1.1,4.5,1.8c1.1,0.6,2.3,1.7,3.6,2c0.4-0.5,0.7-1.1,0.8-1.6C23.1,52.4,19.8,51.5,17.8,50.8z"/>
	<path fill="#F8EDD4" class="st2" d="M85.8,52.2c-3.4,1.7-7.3,2.7-11,3.3c-2.1,0.3-3.9,0.5-5.1,2.5c0,0,0.1,0.1,0.1,0.1c0.6,0.1,1.3,0.1,2,0.1
		c1.6-0.1,3-0.1,4.5-0.7c4.2-1.6,8.4-2.9,12.4-4.9c2.9-1.5,5.6-3.3,8-5.5c1-1,1.7-2,2.2-3.3c0.1-0.3,0.3-0.9,0.5-1.4
		C97.4,46.4,88.6,50.8,85.8,52.2z"/>
	<path fill="#F8EDD4" class="st2" d="M61.5,83.9c-5.7-5.2-9-12.4-15-17c-4.9,3.8-8.6,9.1-13.6,12.9c-5.6,4.4-11.1,8.2-18.2,9.5
		c-1.5,0.3-6.1,1.3-8.8,0.9c0.4,0.2,0.8,0.5,1.3,0.7c1.2,0.5,2.6,0.5,3.9,0.5c2.1,0.1,3.8-0.6,5.7-1.1c1.6-0.4,3.2-0.4,4.8-0.9
		c3.4-1.2,6.4-2.9,9.1-5.2c1.2-1,2.5-1.7,3.6-2.8c0.8-0.7,1.6-1.4,2.4-2.1c1.2-1,2.1-2.3,3.2-3.2c0.9-0.7,1.4-1.5,2.2-2.3
		c0.7-0.7,1.7-1.3,2.5-1.9c0.4-0.3,0.8-0.7,1.2-1c0.2,0.2,0.5,0.4,0.6,0.5c0.8,0.8,1.3,1.7,2.2,2.4c1.2,1.1,2,2.5,3.4,3.5
		c1.3,1,2,2.5,3.3,3.6c2,1.8,3.9,3.8,6.1,5.3c0.6,0.4,0.9,0.9,1.4,1.4c0.4,0.4,0.9,0.5,1.4,0.8c1.1,0.5,1.9,1.3,3.1,1.7
		c2,0.6,3.9,0.9,5.8,1.6c0.9,0.3,2,0.4,2.9,0.5c1,0.2,1.8-0.3,2.8-0.4c0.7-0.1,1.3,0,1.9-0.1c0.7-0.2,1.4-0.3,2.1-0.5
		c0.7-0.3,1.2-0.7,1.8-1.1c-0.3,0.1-0.6,0.2-0.9,0.3C76,92.3,67.1,89,61.5,83.9z"/>
	<path fill="#FFA489" class="st1" d="M54.1,44.6c0.1-0.2,0.3-0.4,0.5-0.6c-1.6-0.2-3-1.7-3.7-3.1c0,0,0,0-0.1,0c0,0,0,0,0,0c-0.8,0.9-2,1.7-2.9,1.9
		c-0.7,0.2-1.9,0.4-3,0.3c0.6,1.4,0.5,2.6,0.4,3.8c0,0.2,0,0.4,0,0.6c0,0.7-0.4,2.4-1.1,3.6c0.6-0.1,1.3-0.1,2-0.1
		c0.6,0,1.2,0,1.8,0.2c1.5,0.3,3,0.8,4.8,1.6c0.3,0.1,0.5,0.2,0.8,0.3c0.3,0.1,0.6,0.3,0.9,0.4c0-0.1,0.1-0.2,0.1-0.3
		c-0.8-1.3-1.4-2.8-1.4-4.7C53.1,47.5,53.5,45.5,54.1,44.6z"/>
	<path fill="#FFA489" class="st1" d="M42.3,51.7c0-0.2,0.1-0.3,0.3-0.4c-0.7,0.5-1.3,1-1.9,1.5c0.1,0.4,0.1,0.7,0.1,1c0,0.2-0.2,0.4-0.4,0.4
		c0,0,0,0,0,0c-0.2,0-0.4-0.2-0.4-0.4c0-0.1,0-0.3,0-0.5c-4.2,3.6-7.8,8.1-11.4,12.6c-1.6,2-3.1,4-4.6,5.8
		c-3.8,4.5-8.2,9.6-13.5,13.3c-0.2,0.2-0.5,0.4-0.8,0.5c-1.5,1.1-3.2,2.2-4.5,2.2c-0.2,0-0.5,0.2-0.5,0.5c0,0.3,0.2,0.5,0.5,0.5
		c0.1,0,0.1,0,0.2,0c1.6,0,3.4-1.2,4.9-2.3c0.3-0.2,0.5-0.4,0.8-0.5c5.5-3.8,9.8-8.9,13.7-13.5c1.6-1.8,3.1-3.9,4.7-5.8
		c4.2-5.3,8.5-10.8,13.7-14.4c-0.1,0-0.2,0-0.3,0C42.6,52.2,42.3,52,42.3,51.7z"/>
	<path opacity="0.6" fill="#F1DCE6" class="st3" d="M42.3,51.7c0-0.2,0.1-0.3,0.3-0.4c-0.7,0.5-1.3,1-1.9,1.5c0.1,0.4,0.1,0.7,0.1,1c0,0.2-0.2,0.4-0.4,0.4
		c0,0,0,0,0,0c-0.2,0-0.4-0.2-0.4-0.4c0-0.1,0-0.3,0-0.5c-4.2,3.6-7.8,8.1-11.4,12.6c-1.6,2-3.1,4-4.6,5.8
		c-3.8,4.5-8.2,9.6-13.5,13.3c-0.2,0.2-0.5,0.4-0.8,0.5c-1.5,1.1-3.2,2.2-4.5,2.2c-0.2,0-0.5,0.2-0.5,0.5c0,0.3,0.2,0.5,0.5,0.5
		c0.1,0,0.1,0,0.2,0c1.6,0,3.4-1.2,4.9-2.3c0.3-0.2,0.5-0.4,0.8-0.5c5.5-3.8,9.8-8.9,13.7-13.5c1.6-1.8,3.1-3.9,4.7-5.8
		c4.2-5.3,8.5-10.8,13.7-14.4c-0.1,0-0.2,0-0.3,0C42.6,52.2,42.3,52,42.3,51.7z"/>
	<path fill="#FFA489" class="st1" d="M44,42c0.2,0.1,0.4,0.1,0.6,0.1c-6-3.5-12.8-3.7-19.5-3.9c-0.8,0-1.6,0-2.4-0.1c-1.3,0-2.6,0-3.9,0
		c-3.2,0-6.4,0-9.4-0.6c-1.2-0.2-2.4-0.6-3.6-1c-0.9-0.3-1.8-0.6-2.7-0.8c-0.3-0.1-0.5,0.1-0.6,0.3c-0.1,0.3,0.1,0.5,0.4,0.6
		c0.9,0.2,1.8,0.5,2.7,0.8c1.2,0.4,2.4,0.8,3.7,1.1c3.1,0.6,6.4,0.6,9.6,0.6c1.3,0,2.6,0,3.9,0c0.8,0,1.6,0,2.4,0.1
		c6.3,0.2,12.8,0.3,18.3,3.4c0-0.1-0.1-0.3,0-0.4C43.6,42,43.8,41.9,44,42z"/>
	<path opacity="0.6" fill="#F1DCE6" class="st3" d="M44,42c0.2,0.1,0.4,0.1,0.6,0.1c-6-3.5-12.8-3.7-19.5-3.9c-0.8,0-1.6,0-2.4-0.1c-1.3,0-2.6,0-3.9,0
		c-3.2,0-6.4,0-9.4-0.6c-1.2-0.2-2.4-0.6-3.6-1c-0.9-0.3-1.8-0.6-2.7-0.8c-0.3-0.1-0.5,0.1-0.6,0.3c-0.1,0.3,0.1,0.5,0.4,0.6
		c0.9,0.2,1.8,0.5,2.7,0.8c1.2,0.4,2.4,0.8,3.7,1.1c3.1,0.6,6.4,0.6,9.6,0.6c1.3,0,2.6,0,3.9,0c0.8,0,1.6,0,2.4,0.1
		c6.3,0.2,12.8,0.3,18.3,3.4c0-0.1-0.1-0.3,0-0.4C43.6,42,43.8,41.9,44,42z"/>
	<path fill="#FFA489" class="st1" d="M50.8,40.8C50.8,40.8,50.8,40.8,50.8,40.8C50.8,40.8,50.8,40.8,50.8,40.8C50.7,40.8,50.8,40.8,50.8,40.8
		C50.8,40.8,50.8,40.8,50.8,40.8z"/>
	<path opacity="0.6" fill="#F1DCE6" class="st3" d="M50.8,40.8C50.8,40.8,50.8,40.8,50.8,40.8C50.8,40.8,50.8,40.8,50.8,40.8C50.7,40.8,50.8,40.8,50.8,40.8
		C50.8,40.8,50.8,40.8,50.8,40.8z"/>
	<path fill="#FFA489" class="st1" d="M51,39.3c0.2,0,0.4,0.2,0.4,0.4c0,0,0,0,0,0.1c0.8-5.2,0.8-10.7,0.8-16.1l0-2.2c0-1.6-0.1-3.2-0.2-4.8
		c-0.1-2.1-0.2-4.3-0.1-6.4c0-1,0.1-1.8,0.4-2.6c0.1-0.2,0-0.5-0.3-0.6c-0.2-0.1-0.5,0-0.6,0.3c-0.4,0.9-0.4,1.8-0.5,2.9
		c-0.1,2.1,0,4.3,0.1,6.4c0.1,1.6,0.2,3.2,0.2,4.7l0,2.2c0,5.3,0,10.8-0.8,16c0,0,0,0,0,0C50.6,39.3,50.8,39.3,51,39.3z"/>
	<path opacity="0.6" fill="#F1DCE6" class="st3" d="M51,39.3c0.2,0,0.4,0.2,0.4,0.4c0,0,0,0,0,0.1c0.8-5.2,0.8-10.7,0.8-16.1l0-2.2c0-1.6-0.1-3.2-0.2-4.8
		c-0.1-2.1-0.2-4.3-0.1-6.4c0-1,0.1-1.8,0.4-2.6c0.1-0.2,0-0.5-0.3-0.6c-0.2-0.1-0.5,0-0.6,0.3c-0.4,0.9-0.4,1.8-0.5,2.9
		c-0.1,2.1,0,4.3,0.1,6.4c0.1,1.6,0.2,3.2,0.2,4.7l0,2.2c0,5.3,0,10.8-0.8,16c0,0,0,0,0,0C50.6,39.3,50.8,39.3,51,39.3z"/>
	<path fill="#FFA489" class="st1" d="M68.7,68.5c-2.1-3.6-8.7-11.7-12.3-14.3c0,0-0.1,0-0.1,0c0.1,0.1,0.1,0.3,0,0.5c-0.1,0.1-0.2,0.2-0.4,0.2
		c0,0-0.1,0-0.1,0c0,0-0.1,0-0.1,0c0,0.1,0,0.1,0.1,0.2c3.5,2.5,10,10.5,12.1,14c0.7,1.1,1.3,2.4,2,3.8c2.9,5.8,6.5,12.9,13.6,13.2
		c0,0,0,0,0,0c0.3,0,0.5-0.2,0.5-0.5c0-0.3-0.2-0.5-0.5-0.5c-6.5-0.3-9.8-6.9-12.8-12.7C70.1,71,69.4,69.7,68.7,68.5z"/>
	<path opacity="0.6" fill="#F1DCE6" class="st3" d="M68.7,68.5c-2.1-3.6-8.7-11.7-12.3-14.3c0,0-0.1,0-0.1,0c0.1,0.1,0.1,0.3,0,0.5c-0.1,0.1-0.2,0.2-0.4,0.2
		c0,0-0.1,0-0.1,0c0,0-0.1,0-0.1,0c0,0.1,0,0.1,0.1,0.2c3.5,2.5,10,10.5,12.1,14c0.7,1.1,1.3,2.4,2,3.8c2.9,5.8,6.5,12.9,13.6,13.2
		c0,0,0,0,0,0c0.3,0,0.5-0.2,0.5-0.5c0-0.3-0.2-0.5-0.5-0.5c-6.5-0.3-9.8-6.9-12.8-12.7C70.1,71,69.4,69.7,68.7,68.5z"/>
	<path fill="#FFA489" class="st1" d="M56,43.2c0.1,0.1,0.1,0.3,0,0.5c5.7-1.9,10.9-2.2,16.2-0.6c3.5,1,7.1,1.5,10.9,1.5c0.5,0,1,0,1.5,0
		c2-0.1,4.1-0.6,6.1-1.1c0.6-0.1,1.2-0.3,1.8-0.4c0.5-0.1,1-0.2,1.5-0.3c1.6-0.3,3.3-0.6,4.7-1.5c0.2-0.1,0.3-0.4,0.2-0.7
		c-0.1-0.2-0.4-0.3-0.7-0.2c-1.3,0.8-2.9,1.1-4.4,1.3c-0.5,0.1-1.1,0.2-1.6,0.3c-0.6,0.1-1.2,0.3-1.8,0.4c-2,0.5-4.1,1-5.9,1.1
		c-4.2,0.2-8.3-0.3-12.1-1.4C66.8,40.5,61.1,40.8,55,43c0.2,0,0.3,0.1,0.5,0C55.7,42.9,55.9,43,56,43.2z"/>
	<path opacity="0.6" fill="#F1DCE6" class="st3" d="M56,43.2c0.1,0.1,0.1,0.3,0,0.5c5.7-1.9,10.9-2.2,16.2-0.6c3.5,1,7.1,1.5,10.9,1.5c0.5,0,1,0,1.5,0
		c2-0.1,4.1-0.6,6.1-1.1c0.6-0.1,1.2-0.3,1.8-0.4c0.5-0.1,1-0.2,1.5-0.3c1.6-0.3,3.3-0.6,4.7-1.5c0.2-0.1,0.3-0.4,0.2-0.7
		c-0.1-0.2-0.4-0.3-0.7-0.2c-1.3,0.8-2.9,1.1-4.4,1.3c-0.5,0.1-1.1,0.2-1.6,0.3c-0.6,0.1-1.2,0.3-1.8,0.4c-2,0.5-4.1,1-5.9,1.1
		c-4.2,0.2-8.3-0.3-12.1-1.4C66.8,40.5,61.1,40.8,55,43c0.2,0,0.3,0.1,0.5,0C55.7,42.9,55.9,43,56,43.2z"/>
	<path fill="#FFA489" class="st1" d="M55.7,54.3c0.1-0.2,0.4-0.2,0.6-0.1c0,0,0-0.1,0-0.1c-0.3-0.4-0.6-0.8-0.9-1.3c-0.3,0.6-0.5,1.2-0.5,1.8
		c0.3,0.1,0.5,0.2,0.8,0.2C55.6,54.7,55.6,54.5,55.7,54.3z"/>
	<path opacity="0.6" fill="#F1DCE6" class="st3" d="M55.7,54.3c0.1-0.2,0.4-0.2,0.6-0.1c0,0,0-0.1,0-0.1c-0.3-0.4-0.6-0.8-0.9-1.3c-0.3,0.6-0.5,1.2-0.5,1.8
		c0.3,0.1,0.5,0.2,0.8,0.2C55.6,54.7,55.6,54.5,55.7,54.3z"/>
	<path fill="#FFA489" class="st1" d="M53.4,53c-0.3-0.1-0.5-0.2-0.8-0.3c-1.8-0.7-3.4-1.2-4.8-1.6c-0.6-0.1-1.2-0.2-1.8-0.2c-0.7,0-1.3,0.1-2,0.1
		c0.7-1.1,1-2.9,1.1-3.6c0-0.2,0-0.4,0-0.6c0.1-1.1,0.2-2.4-0.4-3.8c1.2,0.1,2.4-0.1,3-0.3c0.9-0.3,2.1-1,2.9-1.9
		c-0.3-0.1-0.4-0.3-0.4-0.6c0-0.2,0.1-0.5,0.1-0.7c-0.6,1.1-1.9,2-2.9,2.3c-0.6,0.1-1.8,0.4-3,0.3c0.1,0,0.1,0.1,0.2,0.1
		c0.2,0.1,0.3,0.4,0.2,0.7c-0.1,0.2-0.3,0.2-0.4,0.2c-0.1,0-0.2,0-0.3-0.1c-0.3-0.2-0.5-0.3-0.8-0.4c0,0,0,0.1,0,0.1
		c1,1.5,0.8,2.8,0.7,4.1c0,0.2,0,0.4,0,0.6c-0.1,1.1-0.8,3.5-1.5,3.8c0,0,0,0.1-0.1,0.1c0.1-0.1,0.3-0.2,0.4-0.3
		c0.2-0.2,0.5-0.1,0.7,0.1c0.1,0.2,0.1,0.5-0.1,0.7c-0.1,0.1-0.3,0.2-0.4,0.3c0.3,0,0.6,0,0.8-0.1c1.3-0.1,2.5-0.2,3.7,0
		c1.4,0.3,2.9,0.8,4.7,1.5c0.2,0.1,0.5,0.2,0.8,0.3c0.4,0.2,0.7,0.3,1.1,0.5c0-0.3,0.1-0.7,0.2-1C54,53.3,53.7,53.1,53.4,53z"/>
	<path opacity="0.6" fill="#F1DCE6" class="st3" d="M53.4,53c-0.3-0.1-0.5-0.2-0.8-0.3c-1.8-0.7-3.4-1.2-4.8-1.6c-0.6-0.1-1.2-0.2-1.8-0.2c-0.7,0-1.3,0.1-2,0.1
		c0.7-1.1,1-2.9,1.1-3.6c0-0.2,0-0.4,0-0.6c0.1-1.1,0.2-2.4-0.4-3.8c1.2,0.1,2.4-0.1,3-0.3c0.9-0.3,2.1-1,2.9-1.9
		c-0.3-0.1-0.4-0.3-0.4-0.6c0-0.2,0.1-0.5,0.1-0.7c-0.6,1.1-1.9,2-2.9,2.3c-0.6,0.1-1.8,0.4-3,0.3c0.1,0,0.1,0.1,0.2,0.1
		c0.2,0.1,0.3,0.4,0.2,0.7c-0.1,0.2-0.3,0.2-0.4,0.2c-0.1,0-0.2,0-0.3-0.1c-0.3-0.2-0.5-0.3-0.8-0.4c0,0,0,0.1,0,0.1
		c1,1.5,0.8,2.8,0.7,4.1c0,0.2,0,0.4,0,0.6c-0.1,1.1-0.8,3.5-1.5,3.8c0,0,0,0.1-0.1,0.1c0.1-0.1,0.3-0.2,0.4-0.3
		c0.2-0.2,0.5-0.1,0.7,0.1c0.1,0.2,0.1,0.5-0.1,0.7c-0.1,0.1-0.3,0.2-0.4,0.3c0.3,0,0.6,0,0.8-0.1c1.3-0.1,2.5-0.2,3.7,0
		c1.4,0.3,2.9,0.8,4.7,1.5c0.2,0.1,0.5,0.2,0.8,0.3c0.4,0.2,0.7,0.3,1.1,0.5c0-0.3,0.1-0.7,0.2-1C54,53.3,53.7,53.1,53.4,53z"/>
	<path fill="#FFA489" class="st1" d="M50.8,40.8C50.8,40.8,50.8,40.8,50.8,40.8c0.7,1.5,2.1,2.9,3.7,3.1c-0.2,0.2-0.3,0.4-0.5,0.6
		c-0.5,0.9-0.9,2.9-0.9,3.9c-0.1,1.8,0.6,3.3,1.4,4.7c0.1-0.4,0.3-0.7,0.5-1.1c-0.6-1.1-0.9-2.2-0.9-3.6c0-0.8,0.4-2.7,0.8-3.4
		c0.1-0.2,0.3-0.4,0.5-0.7c0.2-0.2,0.4-0.4,0.6-0.7c0,0,0,0,0-0.1c-0.3,0.1-0.6,0.2-0.9,0.3c-0.2,0.1-0.5,0-0.6-0.3
		c-0.1-0.3,0-0.5,0.3-0.6c0.1,0,0.2,0,0.3-0.1c-1.6,0-3.1-1.7-3.6-3.3c0,0.3-0.1,0.5-0.1,0.8C51.3,40.7,51.1,40.8,50.8,40.8z"/>
	<path opacity="0.6" fill="#F1DCE6" class="st3" d="M50.8,40.8C50.8,40.8,50.8,40.8,50.8,40.8c0.7,1.5,2.1,2.9,3.7,3.1c-0.2,0.2-0.3,0.4-0.5,0.6
		c-0.5,0.9-0.9,2.9-0.9,3.9c-0.1,1.8,0.6,3.3,1.4,4.7c0.1-0.4,0.3-0.7,0.5-1.1c-0.6-1.1-0.9-2.2-0.9-3.6c0-0.8,0.4-2.7,0.8-3.4
		c0.1-0.2,0.3-0.4,0.5-0.7c0.2-0.2,0.4-0.4,0.6-0.7c0,0,0,0,0-0.1c-0.3,0.1-0.6,0.2-0.9,0.3c-0.2,0.1-0.5,0-0.6-0.3
		c-0.1-0.3,0-0.5,0.3-0.6c0.1,0,0.2,0,0.3-0.1c-1.6,0-3.1-1.7-3.6-3.3c0,0.3-0.1,0.5-0.1,0.8C51.3,40.7,51.1,40.8,50.8,40.8z"/>
	<path fill="#FFA489" class="st1" d="M43.6,51.1c-0.2-0.2-0.5-0.3-0.7-0.1c-0.1,0.1-0.3,0.2-0.4,0.3c-0.2,0.1-0.3,0.3-0.3,0.4
		c0,0.2,0.3,0.4,0.5,0.4c0.1,0,0.2,0,0.3,0c0.1-0.1,0.3-0.2,0.4-0.3C43.7,51.6,43.8,51.3,43.6,51.1z"/>
	<path opacity="0.6" fill="#F1DCE6" class="st3" d="M43.6,51.1c-0.2-0.2-0.5-0.3-0.7-0.1c-0.1,0.1-0.3,0.2-0.4,0.3c-0.2,0.1-0.3,0.3-0.3,0.4
		c0,0.2,0.3,0.4,0.5,0.4c0.1,0,0.2,0,0.3,0c0.1-0.1,0.3-0.2,0.4-0.3C43.7,51.6,43.8,51.3,43.6,51.1z"/>
	<path opacity="0.6" fill="#F1DCE6" class="st3" d="M43.6,51.1c-0.2-0.2-0.5-0.3-0.7-0.1c-0.1,0.1-0.3,0.2-0.4,0.3c-0.2,0.1-0.3,0.3-0.3,0.4
		c0,0.2,0.3,0.4,0.5,0.4c0.1,0,0.2,0,0.3,0c0.1-0.1,0.3-0.2,0.4-0.3C43.7,51.6,43.8,51.3,43.6,51.1z"/>
	<path fill="#FFA489" class="st1" d="M44.5,43.1c0.2,0,0.3-0.1,0.4-0.2c0.1-0.2,0.1-0.5-0.2-0.7c-0.1,0-0.1-0.1-0.2-0.1c-0.2,0-0.4,0-0.6-0.1
		c-0.2-0.1-0.4,0-0.5,0.2c-0.1,0.1-0.1,0.3,0,0.4c0.3,0.1,0.5,0.3,0.8,0.4C44.3,43,44.4,43.1,44.5,43.1z"/>
	<path opacity="0.6" fill="#F1DCE6" class="st3" d="M44.5,43.1c0.2,0,0.3-0.1,0.4-0.2c0.1-0.2,0.1-0.5-0.2-0.7c-0.1,0-0.1-0.1-0.2-0.1c-0.2,0-0.4,0-0.6-0.1
		c-0.2-0.1-0.4,0-0.5,0.2c-0.1,0.1-0.1,0.3,0,0.4c0.3,0.1,0.5,0.3,0.8,0.4C44.3,43,44.4,43.1,44.5,43.1z"/>
	<path opacity="0.6" fill="#F1DCE6" class="st3" d="M44.5,43.1c0.2,0,0.3-0.1,0.4-0.2c0.1-0.2,0.1-0.5-0.2-0.7c-0.1,0-0.1-0.1-0.2-0.1c-0.2,0-0.4,0-0.6-0.1
		c-0.2-0.1-0.4,0-0.5,0.2c-0.1,0.1-0.1,0.3,0,0.4c0.3,0.1,0.5,0.3,0.8,0.4C44.3,43,44.4,43.1,44.5,43.1z"/>
	<path fill="#FFA489" class="st1" d="M50.7,40.8C50.8,40.8,50.8,40.8,50.7,40.8C50.8,40.8,50.8,40.8,50.7,40.8c0.1,0,0.1,0,0.1,0
		c0.2,0,0.4-0.2,0.5-0.4c0-0.3,0.1-0.5,0.1-0.8c0,0,0,0,0-0.1c-0.1-0.2-0.2-0.3-0.4-0.4c-0.2,0-0.4,0.1-0.5,0.3c0,0,0,0,0,0
		c0,0.2-0.1,0.5-0.1,0.7C50.3,40.5,50.5,40.8,50.7,40.8z"/>
	<path opacity="0.6" fill="#F1DCE6" class="st3" d="M50.7,40.8C50.8,40.8,50.8,40.8,50.7,40.8C50.8,40.8,50.8,40.8,50.7,40.8c0.1,0,0.1,0,0.1,0
		c0.2,0,0.4-0.2,0.5-0.4c0-0.3,0.1-0.5,0.1-0.8c0,0,0,0,0-0.1c-0.1-0.2-0.2-0.3-0.4-0.4c-0.2,0-0.4,0.1-0.5,0.3c0,0,0,0,0,0
		c0,0.2-0.1,0.5-0.1,0.7C50.3,40.5,50.5,40.8,50.7,40.8z"/>
	<path opacity="0.6" fill="#F1DCE6" class="st3" d="M50.7,40.8C50.8,40.8,50.8,40.8,50.7,40.8C50.8,40.8,50.8,40.8,50.7,40.8c0.1,0,0.1,0,0.1,0
		c0.2,0,0.4-0.2,0.5-0.4c0-0.3,0.1-0.5,0.1-0.8c0,0,0,0,0-0.1c-0.1-0.2-0.2-0.3-0.4-0.4c-0.2,0-0.4,0.1-0.5,0.3c0,0,0,0,0,0
		c0,0.2-0.1,0.5-0.1,0.7C50.3,40.5,50.5,40.8,50.7,40.8z"/>
	<path fill="#FFA489" class="st1" d="M55.9,54.9c0.2,0,0.3-0.1,0.4-0.2c0.1-0.1,0-0.3,0-0.5c-0.2-0.1-0.5-0.1-0.6,0.1c-0.1,0.2-0.1,0.4,0,0.5
		C55.8,54.9,55.8,54.9,55.9,54.9C55.9,54.9,55.9,54.9,55.9,54.9z"/>
	<path opacity="0.6" fill="#F1DCE6" class="st3" d="M55.9,54.9c0.2,0,0.3-0.1,0.4-0.2c0.1-0.1,0-0.3,0-0.5c-0.2-0.1-0.5-0.1-0.6,0.1c-0.1,0.2-0.1,0.4,0,0.5
		C55.8,54.9,55.8,54.9,55.9,54.9C55.9,54.9,55.9,54.9,55.9,54.9z"/>
	<path opacity="0.6" fill="#F1DCE6" class="st3" d="M55.9,54.9c0.2,0,0.3-0.1,0.4-0.2c0.1-0.1,0-0.3,0-0.5c-0.2-0.1-0.5-0.1-0.6,0.1c-0.1,0.2-0.1,0.4,0,0.5
		C55.8,54.9,55.8,54.9,55.9,54.9C55.9,54.9,55.9,54.9,55.9,54.9z"/>
	<path fill="#FFA489" class="st1" d="M54.5,43.7c0.1,0.3,0.4,0.4,0.6,0.3c0.3-0.1,0.6-0.2,0.9-0.3c0.1-0.2,0.1-0.3,0-0.5c-0.1-0.2-0.3-0.3-0.5-0.2
		c-0.2,0-0.3,0-0.5,0c-0.1,0-0.2,0-0.3,0.1C54.5,43.1,54.4,43.4,54.5,43.7z"/>
	<path opacity="0.6" fill="#F1DCE6" class="st3" d="M54.5,43.7c0.1,0.3,0.4,0.4,0.6,0.3c0.3-0.1,0.6-0.2,0.9-0.3c0.1-0.2,0.1-0.3,0-0.5c-0.1-0.2-0.3-0.3-0.5-0.2
		c-0.2,0-0.3,0-0.5,0c-0.1,0-0.2,0-0.3,0.1C54.5,43.1,54.4,43.4,54.5,43.7z"/>
	<path opacity="0.6" fill="#F1DCE6" class="st3" d="M54.5,43.7c0.1,0.3,0.4,0.4,0.6,0.3c0.3-0.1,0.6-0.2,0.9-0.3c0.1-0.2,0.1-0.3,0-0.5c-0.1-0.2-0.3-0.3-0.5-0.2
		c-0.2,0-0.3,0-0.5,0c-0.1,0-0.2,0-0.3,0.1C54.5,43.1,54.4,43.4,54.5,43.7z"/>
	<path fill="#FFFFFF" class="st4" d="M36.9,48.9c1.1-0.6,2-1.7,1.8-3c-0.1-0.9-0.8-2.5-1.8-2.2c-2.1-1.2-6.6,0.2-7,2.8c-0.3,2,1.9,2.9,3.8,3.1
		c0.1-0.1,0.2-0.1,0.3-0.2C34.9,48.9,35.9,48.7,36.9,48.9z"/>
	<path fill="#FFFFFF" class="st4" d="M24.5,43.5c-1.3-0.8-4.2,0.2-4.4,2c-0.3,1.8,2.3,2.4,3.5,2c1-0.3,2.1-1.2,2-2.5C25.5,44.5,25.1,43.4,24.5,43.5
		z"/>
	<path fill="#FFFFFF" class="st4" d="M15.7,43.6c0-0.5-0.2-1.5-0.7-1.4c-1-0.8-3.4-0.3-3.9,1.2c-0.4,1.5,1.7,2.2,2.7,2
		C14.6,45.3,15.7,44.6,15.7,43.6z"/>
	<path fill="#FFFFFF" class="st4" d="M7.2,41.4c0.2-0.2,0.3-0.7,0.1-0.8c-0.2-0.6-1.4-1.1-2-0.6c-0.6,0.5,0.1,1.5,0.6,1.7
		C6.3,41.8,6.9,41.8,7.2,41.4z"/>
	<path fill="#FFFFFF" class="st4" d="M61.1,51c-0.6-0.3-1.2-0.5-1.8-0.5c0.6,0.8,1.4,1.4,2.3,1.8c0.2,0.1,0.4,0.1,0.7,0.2
		C62,51.9,61.7,51.3,61.1,51z"/>
	<path fill="#FFFFFF" class="st4" d="M61.5,50.4c0.8,0.5,1.3,1.3,1.6,2.1c2,0.1,4.5-0.7,4.4-2.7c-0.2-2.7-4.6-4.4-6.7-3.4c-1-0.3-1.8,1.2-2,2.1
		c-0.1,0.4-0.1,0.9,0.1,1.3C59.8,49.7,60.7,49.9,61.5,50.4z"/>
	<path fill="#FFFFFF" class="st4" d="M73.2,47.3c-0.6-0.2-1.1,0.8-1.2,1.4c-0.2,1.2,0.8,2.2,1.8,2.6c1.2,0.5,3.8,0.2,3.7-1.7
		C77.4,47.8,74.6,46.6,73.2,47.3z"/>
	<path fill="#FFFFFF" class="st4" d="M82.8,46.8c-0.5-0.1-0.8,0.8-0.8,1.3c-0.1,1,0.9,1.8,1.7,2c1,0.3,3.1-0.3,2.9-1.8C86.3,46.7,83.9,46,82.8,46.8
		z"/>
	<path fill="#FFFFFF" class="st4" d="M90.6,45.7c-0.3,0.1-0.1,0.6,0,0.8c0.3,0.5,0.9,0.5,1.3,0.4c0.5-0.2,1.3-1,0.7-1.6
		C92.1,44.7,90.8,45.1,90.6,45.7z"/>
	<path fill="#FFFFFF" class="st4" d="M43.6,57.6c-1.1-0.2-2.4-0.3-3.5,0.3c-2.1,1.2-4.7,4.3-2,6.4c1.1,0.8,2.7,0.9,3.9,0.4c1.1-0.4,3.1-1.2,3.5-2.3
		C46.1,60.8,45.6,58,43.6,57.6z"/>
	<path fill="#FFFFFF" class="st4" d="M57.2,60.3c-1.1-0.7-2.4-0.6-3.5-0.3c-2.1,0.4-2.6,3.2-1.9,4.8c0.4,1.1,2.4,1.9,3.5,2.3
		c1.2,0.4,2.9,0.4,3.9-0.4C61.9,64.6,59.3,61.5,57.2,60.3z"/>
	<path fill="#FFFFFF" class="st4" d="M34.7,67.5c-0.7-0.2-1.7-0.1-2.3,0.3c-1.3,0.9-2.8,3-1.2,4.5c0.6,0.6,1.6,0.6,2.4,0.3c0.7-0.3,1.9-0.9,2.3-1.6
		C36.5,69.8,36,67.8,34.7,67.5z"/>
	<path fill="#FFFFFF" class="st4" d="M26.8,76.5c-0.6-0.1-1.4-0.1-2,0.3c-1.1,0.7-2.4,2.6-1,3.9c0.6,0.5,1.4,0.5,2,0.3c0.6-0.2,1.6-0.8,2-1.4
		C28.3,78.5,27.9,76.7,26.8,76.5z"/>
	<path fill="#FFFFFF" class="st4" d="M18.1,82.9c-0.3-0.1-0.8-0.2-1.2,0c-0.7,0.3-1.7,1.3-1,2.2c0.3,0.3,0.8,0.4,1.2,0.3c0.4-0.1,1-0.3,1.3-0.6
		C18.8,84.2,18.7,83.1,18.1,82.9z"/>
	<path fill="#FFFFFF" class="st4" d="M62.2,70.7c-0.7-0.5-1.7-0.5-2.3-0.3c-1.2,0.3-1.8,2.3-1.1,3.5c0.4,0.7,1.6,1.3,2.3,1.6
		c0.7,0.3,1.7,0.3,2.4-0.3C65,73.7,63.5,71.6,62.2,70.7z"/>
	<path fill="#FFFFFF" class="st4" d="M70.8,83.6c1.4-1.3,0.1-3.2-1-3.9c-0.6-0.4-1.4-0.4-2-0.3c-1.1,0.3-1.5,2-1,3c0.3,0.6,1.4,1.1,2,1.4
		C69.4,84.1,70.3,84.1,70.8,83.6z"/>
	<path fill="#FFFFFF" class="st4" d="M78.7,88c0.7-0.9-0.2-1.9-1-2.2c-0.4-0.2-0.9-0.1-1.2,0c-0.6,0.2-0.7,1.3-0.3,1.9c0.3,0.3,0.9,0.6,1.3,0.6
		C77.9,88.4,78.4,88.3,78.7,88z"/>
	<path fill="#FFFFFF" class="st4" d="M65,57.4c-1.1,0.3-1.5,2-1,3c0.3,0.6,1.4,1.1,1.9,1.4c0.6,0.3,1.5,0.2,2-0.3c1.4-1.3,0.1-3.1-1-3.9
		C66.5,57.3,65.6,57.3,65,57.4z"/>
	<path fill="#FFFFFF" class="st4" d="M71.6,68.6c0.5,0.3,1.3,0.3,1.8-0.1c1.3-1,0.3-2.7-0.6-3.4c-0.5-0.4-1.2-0.5-1.7-0.4c-0.9,0.1-1.4,1.6-1,2.5
		C70.3,67.8,71.1,68.4,71.6,68.6z"/>
	<path fill="#FFFFFF" class="st4" d="M76,75.8c0.3,0.1,0.8,0,1-0.3c0.6-0.8-0.2-1.6-0.8-1.9c-0.3-0.2-0.8-0.1-1,0c-0.5,0.2-0.6,1.1-0.3,1.6
		C75.1,75.5,75.7,75.7,76,75.8z"/>
	<path fill="#FFFFFF" class="st4" d="M25,57.9c-0.5,1.7,0.4,3.2,2.3,3.2c1.9,0.1,4.4-1.3,4.9-3.2c0.4-1.4,0-2.8-1.5-3c-0.6-0.1-1.4-0.3-2-0.2l1,0.1
		C27.6,54.6,25.6,55.8,25,57.9z"/>
	<path fill="#FFFFFF" class="st4" d="M57.2,35.1l0.6-0.7c-0.6,0.3-1,0.9-1.4,1.4c-0.9,1.1-0.4,2.5,0.8,3.3c1.7,1.1,4.4,0.6,5.8-0.7
		c1.4-1.3,1.2-2.9-0.3-3.9C60.9,33.2,58.6,33.6,57.2,35.1z"/>
	<path fill="#FFFFFF" class="st4" d="M44.3,37.2c1.3-0.9,1.2-2.3,0.1-3.2c-1.4-1.2-3.3-1.1-4.6,0l0.6-0.5c-0.5,0.2-0.9,0.7-1.3,1
		c-0.9,0.8-0.5,2,0.4,2.7C40.7,38.3,43,38.1,44.3,37.2z"/>
	<path fill="#FFFFFF" class="st4" d="M32.2,36.2c0.9-0.6,0.9-1.5,0.1-2.2c-1-0.8-2.5-0.8-3.4,0l0.4-0.4c-0.4,0.1-0.7,0.5-1,0.7
		c-0.7,0.6-0.4,1.3,0.3,1.9C29.6,37,31.3,36.9,32.2,36.2z"/>
	<path fill="#FFFFFF" class="st4" d="M22.1,36c0.7-0.5,0.7-1.3,0.1-1.8c-0.8-0.7-1.8-0.6-2.5,0l0.3-0.3c-0.3,0.1-0.5,0.4-0.7,0.6
		c-0.5,0.5-0.3,1.1,0.2,1.5C20.1,36.6,21.4,36.5,22.1,36z"/>
	<path fill="#FFFFFF" class="st4" d="M72.8,38.9c1.1-0.5,1.3-1.5,0.6-2.4c-0.9-1.1-2.3-1.3-3.4-0.7l0.5-0.3c-0.4,0.1-0.8,0.4-1.1,0.6
		c-0.8,0.5-0.7,1.4-0.1,2.1C70,39.2,71.7,39.4,72.8,38.9z"/>
	<path fill="#FFFFFF" class="st4" d="M57.4,25.5c-0.4,0.1-0.8,0.4-1.1,0.6c-0.8,0.5-0.7,1.4-0.1,2.1c0.8,1,2.5,1.2,3.6,0.7c1.1-0.5,1.3-1.5,0.6-2.4
		c-0.9-1.1-2.3-1.3-3.4-0.7L57.4,25.5z"/>
	<path fill="#FFFFFF" class="st4" d="M57.5,21.4c0.8-0.4,0.9-1.1,0.4-1.8c-0.6-0.8-1.7-1-2.5-0.5l0.4-0.2c-0.3,0-0.6,0.3-0.8,0.4
		c-0.6,0.4-0.5,1-0.1,1.6C55.4,21.6,56.7,21.8,57.5,21.4z"/>
	<path fill="#FFFFFF" class="st4" d="M46.9,22.2c0.7-0.5,0.7-1.3,0.1-1.8c-0.8-0.7-1.8-0.7-2.6-0.1l0.3-0.3c-0.3,0.1-0.5,0.4-0.8,0.5
		c-0.5,0.4-0.3,1.1,0.2,1.5C44.8,22.7,46.1,22.6,46.9,22.2z"/>
	<path fill="#FFFFFF" class="st4" d="M81.6,41c0.9-0.4,1-1.2,0.5-2c-0.7-0.9-1.9-1.1-2.8-0.6l0.4-0.3c-0.3,0-0.7,0.3-0.9,0.5
		c-0.6,0.4-0.6,1.1-0.1,1.7C79.2,41.3,80.7,41.4,81.6,41z"/>
	<path fill="#FFFFFF" class="st4" d="M20.5,69c1.3,0.1,3.1-0.7,3.6-2c0.3-1,0.1-2-0.9-2.2c-0.4-0.1-1-0.3-1.4-0.2l0.7,0.2c-1.5-0.3-2.9,0.4-3.4,1.9
		C18.6,67.8,19.2,68.9,20.5,69z"/>
	<path fill="#FFFFFF" class="st4" d="M15.2,78.1c1-0.1,2.2-0.9,2.4-1.9c0.1-0.7-0.1-1.4-0.9-1.5c-0.3,0-0.7-0.1-1,0l0.5,0c-1.1-0.1-2.1,0.6-2.3,1.8
		C13.7,77.4,14.2,78.1,15.2,78.1z"/>
	<path fill="#FFFFFF" class="st4" d="M45.2,29.7c2.7-0.3,1.8-4.4-0.5-3.8c-1.2,0-2.7,0.5-2.9,1.7C41.6,29.5,43.6,29.9,45.2,29.7z"/>
	<path fill="#363025" class="st5" d="M40.3,54.2C40.3,54.2,40.3,54.2,40.3,54.2c0.2,0,0.4-0.2,0.4-0.4c0-0.3,0-0.7-0.1-1c-0.2-1.2-0.7-2.6-1.9-3.3
		c-0.6-0.3-1.2-0.5-1.8-0.6c-1-0.1-2,0-2.9,0.5c-0.1,0.1-0.2,0.1-0.3,0.2c-1.5,0.9-2.4,2.5-2.5,4.2c0,0.2,0.2,0.4,0.4,0.4
		c0,0,0,0,0,0c0.2,0,0.4-0.2,0.4-0.4c0-1.5,0.9-3,2.3-3.8c1.3-0.7,2.7-0.7,3.9,0.1c1.1,0.7,1.5,2.1,1.6,3.2c0,0.2,0,0.3,0,0.5
		C40,54,40.1,54.2,40.3,54.2z"/>
	<path fill="#363025" class="st5" d="M57.2,51c0.7-0.4,1.4-0.5,2.1-0.5c0.6,0,1.2,0.2,1.8,0.5c0.5,0.3,0.9,0.8,1.2,1.4c0.3,0.7,0.5,1.6,0.5,2.3
		c0,0.2,0.2,0.4,0.4,0.4c0.2,0,0.4-0.2,0.4-0.4c0-0.7-0.1-1.5-0.4-2.2c-0.3-0.8-0.8-1.6-1.6-2.1c-0.8-0.5-1.7-0.7-2.6-0.6
		c-0.7,0-1.4,0.2-2.1,0.6c-0.8,0.4-1.4,1-1.9,1.7c-0.2,0.3-0.4,0.7-0.5,1.1c0,0.1-0.1,0.2-0.1,0.3c-0.1,0.3-0.1,0.7-0.2,1
		c0,0.1,0,0.2-0.1,0.3c0,0.2,0.2,0.4,0.4,0.4c0,0,0,0,0,0c0.2,0,0.4-0.2,0.4-0.4c0,0,0-0.1,0-0.1c0-0.6,0.2-1.2,0.5-1.8
		C55.8,52.1,56.4,51.4,57.2,51z"/>
	<path fill="#363025" class="st5" d="M48.6,56.8c-0.5,0-0.9,0-1.4,0c-0.6,0-1.2,0-1.8,0c-0.2,0-0.3,0.1-0.3,0.3c-0.2,1.4,0.9,2.4,2.1,2.6
		c0.1,0,0.3,0,0.4,0c0.9,0,1.7-0.5,2-1.6c0,0,0.2-1-0.2-1.2C49.2,56.8,48.9,56.7,48.6,56.8z"/>
</g>
<g id="vernish" display="none" class="st6">
	<path display="inline" fill="#A191B2" class="st7" d="M99.6,40.3c-3.7-0.2-7.5,0.3-11-0.9c-3.4-1.1-6.5-3.4-10-4.5c-3.1-1-10.7-2.5-13.8-3.1c0,0-1.6-8.3-3.7-11.4
		c-1.6-2.3-3.2-4.9-4.3-7.4C54.5,7.8,52.5,1.6,48,9.3c-2.6,4.5-4.3,6.9-7,11.5c-2.6,4.5-3.8,8.7-5.6,11.8
		c-4.8-0.4-12.9-0.3-17.9,0.6c-4.6,0.8-8.9,2.1-13.6,2.2c-3.8,0-4.1,2.1-2.9,4.4c0.2,0.5,0.5,1.1,0.6,1.4c0.7,1.3,1.6,2.4,2.5,3.5
		c1,1.2,2.3,1.9,3.6,2.6c1.4,0.8,2.4,1.8,3.9,2.5c0.6,0.3,1.3,0.4,1.9,0.8c0.8,0.4,1.4,0.9,2.3,1.2c1.5,0.5,3.1,1.1,4.5,1.8
		c1.1,0.6,2.3,1.7,3.6,2c-0.3,0.4-0.6,0.8-0.9,1.2c-2.1,2.8-4.2,5.4-5.9,8.6c-2.1,4.1-3.2,8.5-5.6,12.5c-2,3.3-4.3,6.6-6.7,9.6
		c-1.6,2-0.7,2.8,1,3c0.4,0.2,0.8,0.5,1.3,0.7c1.2,0.5,2.6,0.5,3.9,0.5c2.1,0.1,3.8-0.6,5.7-1.1c1.6-0.4,3.2-0.4,4.8-0.9
		c3.4-1.2,6.4-2.9,9.1-5.2c1.2-1,2.5-1.7,3.6-2.8c0.8-0.7,1.6-1.4,2.4-2.1c1.2-1,2.1-2.3,3.2-3.2c0.9-0.7,1.4-1.5,2.2-2.3
		c0.7-0.7,1.7-1.3,2.4-1.9c0.4-0.3,0.8-0.7,1.2-1c0.2,0.2,0.5,0.4,0.6,0.5c0.8,0.8,1.3,1.7,2.2,2.4c1.2,1.1,2,2.5,3.4,3.5
		c1.3,1,2,2.5,3.3,3.6c2,1.8,3.9,3.8,6.1,5.3c0.6,0.4,0.9,0.9,1.4,1.4c0.4,0.4,0.9,0.5,1.4,0.8c1.1,0.5,1.9,1.3,3.1,1.7
		c2,0.6,3.9,0.9,5.8,1.6c0.9,0.3,2,0.4,2.9,0.5c1,0.2,1.8-0.3,2.8-0.4c0.7-0.1,1.3,0,1.9-0.1c0.7-0.2,1.4-0.3,2.1-0.5
		c0.7-0.3,1.2-0.7,1.8-1.1c1.3-0.5,2.6-1.3,2-2.9c-0.3-1-2.2-1.9-2.9-2.6c-3.1-3.3-4.8-9.1-6.5-13.4c-1.9-4.9-3.9-9.1-7.5-13
		c0.6,0.1,1.3,0.1,2,0.1c1.6-0.1,3-0.1,4.5-0.7c4.2-1.6,8.4-2.9,12.4-4.9c2.9-1.5,5.6-3.3,8-5.5c1-1,1.7-2,2.2-3.3
		c0.1-0.3,0.3-0.9,0.5-1.4C99.6,41.6,99.7,41,99.6,40.3z"/>
</g>
</svg>
