<?xml version="1.0" encoding="utf-8"?>
<svg version="1.1" xmlns="http://www.w3.org/2000/svg" xmlns:xlink="http://www.w3.org/1999/xlink" x="0px" y="0px"
	 viewBox="0 0 100 100" style="enable-background:new 0 0 100 100;" xml:space="preserve">
      <g id="ETQMariageAppareilPhotoV2F_svg__fonce">
        <path
          fill="#e0ac6c"
          className="ETQMariageAppareilPhotoV2F_svg__st0"
          d="M17.8 38.1c0-2 0-5.4-.3-7.4-1.8.1-3.7.2-5.5.3-.1 0-.3 0-.4.2-.1.1 0 .2 0 .4-.1 2.9.1 5.2-.1 7.8 0 0 4.6-1.1 5.7-1 .2 0 .6-.3.6-.3z"
        />
        <path
          d="M28 36.8c-1.9.2-3.7.3-5.5.4C9.7 38.2-.9 42.6.1 57.3c1.7 25.5-2.8 41.5 20.6 42.2s60.3.4 60.3.4 17.1 1.4 18.2-19.2c.5-10.4 2.6-22.6-3-32.1-6-10.3-19.7-11.2-30.6-11.8-11.5-.8-26.1-1-37.6 0z"
          fill="#698c9b"
        />
        <path
          fill="#1b5056"
          className="ETQMariageAppareilPhotoV2F_svg__st2"
          d="M2.9 59.8c15.5 1.2 31.1.2 46.6.4 15.4.2 30.7-.5 46.1-.1.7 0 1.6-1 .6-1.1-15.4-.4-30.7.3-46.1.1-15.6-.1-31.1.8-46.6-.4-.7 0-1.7 1-.6 1.1z"
        />
        <path
          fill="#fff"
          className="ETQMariageAppareilPhotoV2F_svg__st3"
          d="M53.5 52.6c-9.8 0-17.8 8-17.8 17.8s8 17.8 17.8 17.8 17.8-8 17.8-17.8-8-17.8-17.8-17.8z"
        />
        <path
          fill="#1b5056"
          className="ETQMariageAppareilPhotoV2F_svg__st2"
          d="M90.2 46.9c.1 0 .3 0 .4.2.1.1.1.2.1.3 0 3.5 1.1 7.4-3.5 7.2-2.4-.1-9.7 1.4-10.5-1.9-.2-.7-.1-6.4.4-6.5 4.2-.6 8.9.1 13.1.7zm-69.4 5.3c.6-.3 1.2-.8 1.3-1.4.9-3-4.5-3.3-5.2-.4-.5 2.2 2.2 2.6 3.9 1.8z"
        />
        <path
          fill="#e0ac6c"
          className="ETQMariageAppareilPhotoV2F_svg__st0"
          d="M46 27c0-.3 0-.6.2-.7.1-.1.2-.1.4-.1 3.1 0 6.1 0 9.2-.1.1 0 .2 0 .3.1.1.1.1.1.1.2.3 2 .5 4.1.5 6.2 0 .2 0 .4-.1.5-.1.2-.4.2-.6.2-1.8 0-3.8.3-5.6 0-1-.2-3.1-.1-3.8-1-.8-1-.5-4.1-.6-5.3z"
        />
        <path
          fill="#e0ac6c"
          className="ETQMariageAppareilPhotoV2F_svg__st0"
          d="M65.7 6.5c-.4-.2-.9-.2-1.4-.2-6.6-.5-13.2.5-19.8.4-2.3 0-5.4-.9-7.4.4-1.1.7-1.7 2-1.9 3.3-.6 2.9-.5 5.9-.4 8.9.1 1.8-.5 6.6 1.5 7.2 3.1 1 4.9 1 7.3.9 8-.4 15.3.2 21.5-.1.3 0 .6 0 .9-.2.3-.2.5-.6.6-1 .5-1.6.5-3.3.5-5V9.6c0-.7 0-1.4-.3-2-.3-.6-.7-.9-1.1-1.1z"
        />
        <path
          fill="#fff"
          className="ETQMariageAppareilPhotoV2F_svg__st3"
          d="M62.7 9.8c-.3-.1-.7-.1-1.1-.2-5.3-.3-10.5.4-15.8.4-1.8 0-4.3-.6-5.9.3-.9.5-1.4 1.4-1.6 2.3-.5 2.1-.4 4.2-.4 6.3 0 1.3-.4 4.7 1.1 5.1 2.5.7 3.9.8 5.8.6 5.7-.5 11.4-.1 17.1-.2.2 0 .5 0 .7-.1.3-.1.4-.4.5-.7.4-1.2.4-2.4.4-3.6 0-2.7 0-5.4.1-8.2 0-.5 0-1-.2-1.4 0-.3-.3-.5-.7-.6z"
        />
        <path
          d="M53.5 12.3c.9 1.9 2.3 3.4 4.1 4.5.1.1.3.1.5 0 .1-.1.2-.3 0-.4-1.7-1.1-3.1-2.6-4-4.4-.2-.2-.8 0-.6.3zm3.2.1c1.3 1.6 2.6 3.3 3.8 4.9.1.1.7-.1.6-.2-1.2-1.7-2.5-3.3-3.8-4.9-.1-.1-.7.1-.6.2zm3.1.4c.4.9 1 1.8 1.6 2.5.1.1.3.1.4 0 .1 0 .3-.2.2-.3-.6-.7-1.2-1.5-1.6-2.4-.1-.1-.2-.2-.4-.1 0 0-.2.1-.2.3z"
          fill="#1c5056"
        />
        <path
          fill="#1b5056"
          className="ETQMariageAppareilPhotoV2F_svg__st2"
          d="M39.5 65.5c-1 4-.2 8.3 2.2 11.7 2.3 3.2 5.9 5.4 9.8 5.9.2 0 .7-.3.4-.4-3.8-.6-7.3-2.7-9.6-5.8-2.3-3.3-3.1-7.6-2.1-11.5 0-.3-.7-.2-.7.1zM66.3 74c1.7-4.5.9-9.6-2.1-13.3-1.3-1.6-3-2.9-4.9-3.7-1.9-.8-4.2-1.4-6.1-.6-.4.2 0 .5.3.4 2-.9 4.6.1 6.4 1.1 1.7.9 3.2 2.2 4.3 3.8 2.6 3.5 3.2 8.2 1.6 12.3-.3.2.4.2.5 0zm-6.6 7.6c1-.6 1.8-1.3 2.5-2.1.1-.1.1-.2-.1-.3-.1 0-.4 0-.4.1-.7.8-1.5 1.5-2.4 2.1-.1.1-.2.2 0 .3.1 0 .3 0 .4-.1zm-34-44.1s4.7-5.9 6.2-6.5c1.5-.5 38.2 0 38.2 0s4 5.5 5.4 6.8c0-.1-36.1-1.9-49.8-.3z"
        />
        <path
          fill="#1b5056"
          className="ETQMariageAppareilPhotoV2F_svg__st2"
          d="M53.3 49c-12 0-21.8 9.8-21.8 21.8s9.8 21.8 21.8 21.8 21.8-9.8 21.8-21.8S65.3 49 53.3 49zm.2 39.2c-9.8 0-17.8-8-17.8-17.8s8-17.8 17.8-17.8 17.8 8 17.8 17.8-8 17.8-17.8 17.8z"
        />
        <path
          fill="#e0ac6c"
          className="ETQMariageAppareilPhotoV2F_svg__st0"
          d="M74.9 12.1c2.9-2.8 7-3.7 10.9-3.6 1.4 0 1.4-2.2 0-2.2-4.5-.1-9.1 1.1-12.5 4.3-1 .9.6 2.4 1.6 1.5zm1.6 5.1c3.7-.5 7.5-.5 11.2.2.6.1 1.2-.2 1.3-.8.1-.5-.2-1.2-.8-1.3-4.1-.7-8.3-.8-12.4-.2-.6.1-.9.8-.8 1.3.3.7.9.9 1.5.8zm-1.8 6.6c3.3.2 6.5 1.4 9.3 3.3.5.3 1.2.1 1.5-.4.3-.5.1-1.2-.4-1.5-3.1-2.1-6.7-3.4-10.4-3.6-.6 0-1.1.5-1.1 1.1 0 .6.5 1 1.1 1.1zm-47-15c-3.4-3.2-7.9-4.4-12.5-4.3-1.4 0-1.4 2.2 0 2.2 3.9-.1 8 .9 10.9 3.6 1.1 1 2.7-.5 1.6-1.5zm-2.5 4.6c-4.1-.6-8.3-.5-12.4.2-.6.1-.9.8-.8 1.3.2.6.8.9 1.3.8 3.7-.6 7.5-.7 11.2-.2.6.1 1.2-.1 1.3-.8.3-.5 0-1.2-.6-1.3zm1.2 6.5c-3.7.3-7.3 1.5-10.4 3.6-.5.3-.7 1-.4 1.5.3.5 1 .7 1.5.4 2.7-1.9 5.9-3.1 9.3-3.3.6 0 1.1-.5 1.1-1.1 0-.6-.5-1.2-1.1-1.1z"
        />
      </g>
    </svg>