<?xml version="1.0" encoding="utf-8"?>
<svg version="1.1" xmlns="http://www.w3.org/2000/svg" xmlns:xlink="http://www.w3.org/1999/xlink" x="0px" y="0px"
	 viewBox="0 0 100 100" style="enable-background:new 0 0 100 100;" xml:space="preserve">
      <g id="ETQMariageBagueV2C_svg__clair">
        <ellipse
          fill="#fccc83"
          className="ETQMariageBagueV2C_svg__st0"
          cx="23.3"
          cy="27.9"
          rx="4.1"
          ry="3.2"
        />
        <ellipse
          fill="#fccc83"
          className="ETQMariageBagueV2C_svg__st0"
          cx="37.7"
          cy="27.9"
          rx="4.1"
          ry="3.2"
        />
        <path
          fill="#fff"
          className="ETQMariageBagueV2C_svg__st1"
          d="M14.1 0h32.3l6.1 8.2-21.9 21.9L8.9 8.4z"
        />
        <path d="M14.1 0l16.5 30.1L46.4 0" fill="#f0f8fd" />
        <circle
          fill="#fff"
          className="ETQMariageBagueV2C_svg__st1"
          cx="23.3"
          cy="27.9"
          r="1"
        />
        <circle
          fill="#fff"
          className="ETQMariageBagueV2C_svg__st1"
          cx="37.7"
          cy="27.9"
          r="1"
        />
        <path d="M8.9 8.4l43.6-.2" fill="#c7e3e6" />
        <path
          fill="#fdce85"
          className="ETQMariageBagueV2C_svg__st4"
          d="M55 77.4c2.6-3.9 4.8-8.1 5.5-12.7.7-5.2-.7-10.6-3-15.3-4.6-9.6-13.4-17.4-23.8-19.2-3.9-.7-8.2-.4-11.4 1.9C17.6 35 13.1 38 9 42.8c-3.4 4-6.6 8.3-8 13.4-1.9 6.6-.7 14 2.8 19.9C7.3 82 13 86.6 19.4 89.2c8.5 3.5 18.7 3.5 26.3-1.6 3.8-2.6 6.8-6.3 9.3-10.2zM43.6 84c-6.6 4.4-15.4 4.3-22.7 1.3C15.4 83 10.5 79.1 7.5 74S3.4 62.6 5 56.9c1.3-4.3 4-8.1 6.9-11.5 3.5-4.1 6.2-6.7 11.4-9.2 2.8-2 6.5-2.2 9.9-1.6 9 1.6 16.6 8.3 20.6 16.5 2 4.1 3.2 8.7 2.6 13.2-.6 4-2.5 7.6-4.7 11-2.2 3.3-4.8 6.5-8.1 8.7z"
        />
        <path
          fill="#fdce85"
          className="ETQMariageBagueV2C_svg__st4"
          d="M98.8 76.6c1.1-4.5 1.7-9.3.7-13.8-1.1-5.2-4.3-9.7-8.1-13.4-7.6-7.3-18.6-11.6-29-9.7-3.9.7-7.9 2.4-10.1 5.7-3.3 4.3-6.5 8.7-8.8 14.6-1.9 4.9-3.3 10.1-2.9 15.3.5 6.9 4.2 13.4 9.5 17.7 5.3 4.4 12.2 6.6 19.1 6.9 9.1.3 18.8-3.1 24.1-10.5 2.9-3.7 4.4-8.3 5.5-12.8zm-8.5 10.2c-4.6 6.4-12.9 9.4-20.8 9.1-5.9-.2-11.9-2.2-16.5-6s-7.8-9.4-8.2-15.3c-.3-4.5.9-9 2.5-13.2 1.9-5 4.7-8.8 7.6-12.6 1.9-2.8 5.3-4.3 8.7-4.9 9-1.6 18.4 2 25 8.4 3.3 3.2 6 7.1 6.9 11.5.8 3.9.3 8-.6 11.9-.9 3.9-2.2 7.8-4.6 11.1z"
        />
      </g>
    </svg>