<?xml version="1.0" encoding="utf-8"?>
<svg version="1.1" xmlns="http://www.w3.org/2000/svg" xmlns:xlink="http://www.w3.org/1999/xlink" x="0px" y="0px"
	 viewBox="0 0 100 100" style="enable-background:new 0 0 100 100;" xml:space="preserve">
	 <path
        d="M56.8 60.1c-6.8-8.3-10.6-16.5-13.7-27-2.5-8.6-5.2-26.1 4.6-31.7C60.6-6 66.7 16.5 65 25.5c2.2-8.3 8.3-16 16.8-18.5 8.3-2.4 17.7 3 16.7 12.3-1.4 12.8-12.9 23.8-23.2 30.4-5.9 4-11.7 8-18.5 10.4zM18.9 99.9c-6.6-2.8-10.8-8.8-14.1-15-2.3-4.2-6.7-18.2 1-20.3 4.5-1.2 10 6.4 11.6 9.8.8 1.7 1.1 3.5 1.8 5-.1-6.2 5.3-13.5 10.7-16.3C37.1 59.4 43.1 68 42 74.7c-1.9 11.8-14.4 18.8-23.1 25.2z"
        fill="#b75474"
      />
    </svg>