<?xml version="1.0" encoding="utf-8"?>
<svg version="1.1" xmlns="http://www.w3.org/2000/svg" xmlns:xlink="http://www.w3.org/1999/xlink" x="0px" y="0px"
	 viewBox="0 0 100 100" style="enable-background:new 0 0 100 100;" xml:space="preserve">
      <g id="ETQMariageChampagneV2F_svg__fonce">
        <g id="ETQMariageChampagneV2F_svg___x3C_Groupe_x3E_">
          <path
            fill="#e9bb76"
            className="ETQMariageChampagneV2F_svg__st0"
            d="M49.1 2c-.8.6-.9 1.8-.5 2.7.8 2.1 3.9 2.9 5.7 1.4 1.7-1.5 1.5-4.7-.5-5.8-2-1.1-4.9.4-5.1 2.7m11.6 3.2c-.5.4-.6 1.2-.3 1.8.6 1.4 2.6 1.9 3.7 1 1.1-1 1-3.1-.4-3.8s-3.1.2-3.3 1.7m-6.8 6.8c-.5.4-.6 1.2-.4 1.8.6 1.4 2.6 1.9 3.7 1 1.1-1 1-3.1-.4-3.8s-3.2.3-3.4 1.7M41.2 6.2c-.5.4-.6 1.2-.4 1.8.6 1.4 2.6 1.9 3.7 1 1.1-1 1-3.1-.4-3.8-1.3-.7-3.2.3-3.4 1.7"
          />
          <path
            fill="#f8fbfc"
            className="ETQMariageChampagneV2F_svg__st1"
            d="M69.1 19.4l-16.5 5.2s3.8 33.2 18.5 38.8l7.5 24.5s2.4 7-6.3 11.2c0 0-.6.7.2.8 0 0 10.8.8 20.2-6.2 0 0 .8-.8-.5-1.2 0 0-8.9 1.4-10.9-5.4L74 62.2c.1 0 10.6-8.2-4.9-42.8z"
          />
          <path
            fill="#e9bb76"
            className="ETQMariageChampagneV2F_svg__st0"
            d="M55 33.6l19.3 1.7s6.7 19-.5 26.1c0 0-.9 1.1-2.8 1.1 0 0-10.3-1-16-28.9z"
          />
          <ellipse
            transform="rotate(-83.477 64.71 34.545)"
            fill="#fccc83"
            className="ETQMariageChampagneV2F_svg__st2"
            cx="64.7"
            cy="34.5"
            rx="2.9"
            ry="9.8"
          />
          <path
            fill="#f8fbfc"
            className="ETQMariageChampagneV2F_svg__st1"
            d="M73 56.4c1-3 1.3-6.2.7-9.2 0-.1-.5.1-.5.3.6 3.1.4 6.2-.7 9.2 0 0 .4-.2.5-.3zm0-13l-.6-1.5-.1-.1c-.1 0-.1 0-.2.1s-.2.2-.1.3l.6 1.5.1.1c.1 0 .1 0 .2-.1s.2-.2.1-.3zM28.6 9.9l16.6 4.7s-2.8 33.3-17.3 39.3l-6.8 24.7s-2.2 7 6.6 11c0 0 .6.7-.2.8 0 0-10.8 1.2-20.4-5.6 0 0-.8-.8.4-1.2 0 0 8.9 1.1 10.7-5.7l6.5-25.1c.2 0-10.5-7.9 3.9-42.9z"
          />
          <path
            fill="#e9bb76"
            className="ETQMariageChampagneV2F_svg__st0"
            d="M43.1 23.6l-19.3 2.3S17.7 45.1 25.1 52c0 0 .9 1.1 2.8 1 .1-.1 10.4-1.3 15.2-29.4z"
          />
          <ellipse
            transform="rotate(-8.285 33.474 24.823)"
            fill="#fccc83"
            className="ETQMariageChampagneV2F_svg__st2"
            cx="33.5"
            cy="24.8"
            rx="9.8"
            ry="2.9"
          />
          <path
            fill="#f8fbfc"
            className="ETQMariageChampagneV2F_svg__st1"
            d="M25.9 46.9c-1.1-2.9-1.4-6.1-.9-9.2 0-.1.5.1.5.3-.5 3.1-.2 6.2.9 9.2 0 0-.5-.2-.5-.3zm-.4-13c.2-.5.4-1 .5-1.5l.1-.1c.1 0 .1 0 .2.1s.2.2.2.3c-.2.5-.4 1-.5 1.5l-.1.1c-.1 0-.1 0-.2-.1-.2-.1-.3-.2-.2-.3z"
          />
        </g>
      </g>
    </svg>