<?xml version="1.0" encoding="utf-8"?>
<svg version="1.1" xmlns="http://www.w3.org/2000/svg" xmlns:xlink="http://www.w3.org/1999/xlink" x="0px" y="0px"
	 viewBox="0 0 100 100" style="enable-background:new 0 0 100 100;" xml:space="preserve">
      <g id="ETQMariageColombeV2C_svg__clair">
        <path
          d="M71.6 44.7c.2-2.7 3-4.5 4.1-6.9 1.4-3 .2-6.5-.3-9.8-1.4-8.5 1.3-17 3.9-25.2.2-.6.4-1.3.1-1.8-.3-.8-1.3-1.1-2.1-.9s-1.3.6-1.9 1.2c-6.1 5.5-9.1 13.9-9.6 22.1L65.5 13c0-.4 0-.8-.2-1.2-.7-1.2-2.6-.6-3.6.4-2.2 2.3-3.3 5.5-3.4 8.8-.1 3.2.6 6.4 1.4 9.5-1.1-1.6-2.2-3.2-3.4-4.8-.2-.3-.5-.7-.9-.8-.7-.3-1.5.3-1.7 1-.2.7-.4 3.9-.3 4.6.1 4.5 1 6.9 1.4 8.7-1 1.8-1.3 4-1.5 6.1-.2 1.9.6 3.3 2.1 4.6 3 2.5 7 3 10.5 1.6 2.2-.8 4.4-2.1 5.3-4.4.3-.8.4-1.5.4-2.4z"
          fill="#f9f8f8"
        />
        <path
          fill="#fff"
          className="ETQMariageColombeV2C_svg__st1"
          d="M72.7 44.8c-3.1 2.7-7.1 4.3-11.2 3.6-4.5-.8-7.6.4-11.3 3.1-5.5 4.1-9.7 9.7-12.6 15.8-1.3 2.7-2.4 5.7-2.9 8.6-.7 4.2 2.4 4.9 5.8 6.1 11.8 4.1 23.6 1.9 32.1-7.4 3-3.3 5.4-7.1 7.5-11 1.1-2 2.1-5.1 3.9-6.6 3.7-3.2 13-1.1 13-1.1.4-2.4-1-4.4-1-4.4 0-12.3-16.3-12.8-23.3-6.7z"
        />
        <path
          fill="#fff"
          className="ETQMariageColombeV2C_svg__st1"
          d="M56.8 51.3c-1.8-.9-2.7-3-3-4.9-.3-2-.2-4-.6-6-1.2-5.2-6.3-8.7-11.4-10.3-5.1-1.7-10.6-2-15.6-3.9-7.4-2.8-13.3-8.7-18.8-14.4-2.3 3.6-1.7 8.5.4 12.2s5.5 6.6 8.9 9.3c-2.6 1-5.5.9-8-.3-.9 2.6.9 5.3 3 7 3.9 3.2 9.1 4.7 14.1 4.1-.9 1.5-2.9 1.9-4.6 2.4-1.7.5-3.5 1.8-3.4 3.5 4.5 1.2 9.5 1 13.8-.8-1.6 1.4-3.1 3-4.5 4.6-.6.8-1.3 1.9-.8 2.8.4.7 1.3.8 2 .9 2.6.1 5.3-.6 7.5-2.1-.1 1.2-1.2 2.1-1.9 3.1s-1 2.6 0 3.2c.4.2.8.3 1.3.3 1.8 0 4.6.6 6.1-.4 1.3-.8 2.8-1.5 4.3-1.8 2.9-.7 4.7-3 7-4.9 1.2-.6 3.1-3.2 4.2-3.6z"
        />
        <path
          fill="#fff"
          className="ETQMariageColombeV2C_svg__st1"
          d="M36.5 77.8c-5.4.6-9.3 6.9-11.1 12.3-1.1 3.3-1.5 7.2-4.3 9.3-.4.3-.8.5-1.2.5-.7 0-1.4-.6-1.8-1.2-1.5-2-2-4.8-1.1-7.3-.5 2.4-2 4.5-4 5.9-.5.4-1.2.7-1.8.7-1.7 0-2.3-2.2-2.2-3.8.1-2.6 1-5.2 2.4-7.4-1.3 2.1-3.7 3.6-6.2 3.7-.7.1-1.6-.1-1.8-.8-.1-.3 0-.6.1-.9.9-3.5 3.5-6.6 6.7-8.1-2 1.4-4.3 2.5-6.6 3.3-.7.2-1.6.3-1.9-.3-.2-.3-.1-.6-.1-.9.7-3.6 4.3-5.8 7.7-7.2 5.1-2.2 10.6-3.8 15.4-6.7 3.6-2.3 6.7-5.3 10.2-7.5 3.8-2.4 8.3-1.7 11.7.4 4.6 2.9 1.6 7.7-1.3 10.9-2 1.8-5.5 4.8-8.8 5.1z"
        />
        <g className="ETQMariageColombeV2C_svg__st2" opacity="0.54">
          <path
            fill="#dfd1d0"
            className="ETQMariageColombeV2C_svg__st3"
            d="M34.3 31.2c-2.1.1-4.1.2-6.1.5l-1.5.3c-.5.1-1 .2-1.4.4-.4.2-.5.4-.4.7.1.3.5.8.7 1.1 1.2 1.5 3 2.4 4.9 3 1.9.5 3.9.8 5.9.8.4 0 .7.4.7.8 0 .2-.1.4-.2.5-1.2 1-2.5 1.4-3.4 2-.9.6-1 1.5-.5 2.3.3.4.7.8 1.1 1 .4.2.9.3 1.5.4 1.1 0 2.3-.3 3.5-.6.4-.1.9.1 1 .5.1.3 0 .6-.2.8-.9.8-1.8 1.7-2.5 2.7-.2.2-.4.5-.6.7-.2.3-.3.5-.4.6v.2c.1.1.2.2.4.3.2.1.5.2.7.2.3 0 .6.1.9.1.6 0 1.2 0 1.8-.1 1.2-.1 2.4-.5 3.5-1 .3-.1.6 0 .8.3.1.3 0 .6-.2.7-1 .6-1.8 1.4-2.3 2.4-.3.5-.5 1.1-.5 1.5 0 .4.4.8.9 1 .5.2 1.1.2 1.7.2.6 0 1.2-.1 1.8-.3 1.1-.3 2.2-.9 3.1-1.8-.8 1-1.8 1.7-3 2.2-.6.2-1.2.4-1.8.4-.6.1-1.3.1-1.9-.1-.3-.1-.7-.2-.9-.5-.3-.2-.5-.6-.6-1-.1-.8.2-1.4.5-2 .6-1.2 1.5-2.2 2.6-2.9l.6 1c-1.2.6-2.5 1-3.8 1.2-.7.1-1.3.2-2 .1-.3 0-.7 0-1-.1-.4 0-.7-.1-1.1-.3-.4-.2-.8-.4-1.1-.8-.3-.4-.4-1.1-.2-1.6s.4-.8.6-1c.2-.3.4-.5.6-.8.8-1 1.7-2 2.7-2.9l.8 1.3c-1.2.4-2.5.8-4 .7-.7 0-1.5-.2-2.2-.5-.7-.4-1.3-.9-1.7-1.6-.4-.7-.7-1.5-.5-2.4.2-.9.8-1.6 1.4-2 1.2-.9 2.5-1.1 3.3-1.8l.5 1.3c-2.1-.1-4.2-.4-6.2-1.1-2-.7-4-1.8-5.3-3.6-.2-.2-.3-.5-.4-.7-.1-.2-.3-.5-.4-.8-.5-.1-.5-.5-.3-.8.2-.3.5-.5.8-.6.6-.2 1.1-.2 1.6-.3.5-.1 1-.1 1.5-.1 2.1-.3 4.2-.3 6.2-.1z"
          />
        </g>
        <g className="ETQMariageColombeV2C_svg__st2" opacity="0.54">
          <path
            fill="#dfd1d0"
            className="ETQMariageColombeV2C_svg__st3"
            d="M67.9 34c-.4-1.6-.7-3.2-.9-4.8-.1-.4-.2-.8-.3-1-.2-.3-.4-.4-.6-.4-.4-.1-1 .4-1.4 1-.9 1.2-1.2 2.7-1.2 4.2s.4 3.1.8 4.6c.1.4-.1.9-.6 1-.5.1-1 0-1.3-.2-.4-.2-.6-.4-.9-.6-.5-.4-.8-.7-1.1-.8-.5-.2-1.3.3-1.5 1.2-.2.9-.1 2 .1 3.1s.4 2.1.8 3.1c.1.2 0 .3-.2.4h-.2c-.9-.4-1.9-.7-3-.8 1-.1 2.1-.1 3.2.2l-.4.4c-.5-1-1-2.1-1.3-3.2-.2-.6-.3-1.1-.4-1.7-.1-.6-.1-1.2 0-1.9.1-.6.4-1.4 1-1.8.3-.2.6-.4 1-.5.4-.1.9-.1 1.2 0 .8.3 1.2.7 1.6 1 .2.2.4.3.5.3.1.1.2.1.3 0l-.6 1c-.5-1.6-.9-3.3-.9-5.1 0-1.8.5-3.6 1.7-5 .3-.3.7-.7 1.1-1 .4-.2 1-.4 1.6-.3.6.1 1.1.7 1.2 1.1.2.5.2.9.3 1.4.4 1.8.4 3.4.4 5.1z"
          />
        </g>
        <path
          d="M87.8 47.1c-1 1.2.2 3.1 1.7 2.8 1-.2 1.4-1 1.7-1.8"
          fill="none"
          stroke="#3c3935"
          strokeWidth="0.362"
          strokeLinecap="round"
          strokeLinejoin="round"
          strokeMiterlimit="10"
        />
        <path
          fill="#fff"
          className="ETQMariageColombeV2C_svg__st1"
          d="M83.3 56c-3.1 4.9-4.3 10.2-7.8 15-3.4 4.6-8.8 11.7-14.7 13.4.4-.5.7-1.3.6-2-1.8 1.4-4.5 2.4-6.8 2.8-2.1.4-6.3 1.4-8.2.1.3-.5.9-.8 1-1.3-.8-.2-1.8-.1-2.6-.1-2 .1-3.8-.3-5.7-.9-2.3-.8-8.8-5.2-9.2-7.7-.7-5.1 10.6-7.4 14-9.8 7-5.1 15.2-8.3 23.5-10.8 4-1.2 8.7-2.5 12.9-1.9 1.8.2 2.6 1.3 3 3.2z"
        />
        <path
          fill="#fff"
          className="ETQMariageColombeV2C_svg__st1"
          d="M95.2 51.9c.6-2.1.4-4-.4-6.1-.6-1.8-2.8-5.6-5.2-5.3.1.4.3.8.3 1.2-1.3-1.3-5.1-2.1-6.9-1.6.1.2.3.5.5.6-1.6-.1-3.7.8-5 1.7-3.2 2.1-4.8 6.9-5.2 10.4.9-.5 1.5-2.2 2.3-3 1.4-1.6 2.9-3.5 4.6-4.8 2.1-1.6 5.6-1.3 8-.6 2.8.8 5.3 2.1 5.8 5.2.1.9.3 1.8 1.2 2.3z"
        />
        <path
          d="M95.9 51.4c.3.2.6.6.8.9.3.4.5.7.7 1.1.5.8.6 1.2 1 2.3.1.3.3.7-.2.7-.6 0-2-.3-2.6-.4-.8-.2-1.3-.3-2.1-.4-.6-.1-1.1-.2-1.7-.4.2-.3.3-.8.3-1.1 0-.4-.7-1.1-.5-1.3.2-.2.9-.2 1.2-.3.7-.2 1.3-.4 1.9-.6.4-.2.8-.3 1.2-.5z"
          fill="#ffdb0d"
        />
      </g>
    </svg>