<?xml version="1.0" encoding="utf-8"?>
<svg version="1.1" xmlns="http://www.w3.org/2000/svg" xmlns:xlink="http://www.w3.org/1999/xlink" x="0px" y="0px"
	 viewBox="0 0 100 100" style="enable-background:new 0 0 100 100;" xml:space="preserve">
      <g id="ETQMariageNoeudPapillonV2C_svg__clair">
        <g id="ETQMariageNoeudPapillonV2C_svg__clair_1_">
          <path
            d="M60.3 54.1c9.5 4.1 17.5 6.1 27.9 6.4 3.6.1 7.6-.4 10.8-2.1 1.2-.6 1-1.5.8-2.8-.2-1.8-1.2-3.5-2.1-5.1-1.4-2.1-32.9-3.6-37.3 1.7-.2.6-.3 1.9-.3 1.9M47 60c-3.6 6.6-6.8 13.1-11.7 19-2.3 2.9-4.7 5.9-8.2 7.3-2.6 1-5.7 2-8.6 1.7 0 0-5.6.7-5.4-4.8.2-3.4 2.7-24.8 29.7-24.3 1.2.1 2.2.2 2.2.2s1.4.8 2 .9"
            fill="#fff"
          />
          <path
            fill="#b2d7ba"
            className="ETQMariageNoeudPapillonV2C_svg__st1"
            d="M60 53.4c2.7-.5 5.5-.1 8.2.4 10.2 1.7 20.3 4.7 30.6 4.1.3 0 .6 0 .9-.3.3-.3.3-.7.2-1.1-.5-5.5-4-8.8-5.9-14-.6-1.6 1.1-5.1 1.2-6.8 0-1.5-.1-2.9-.3-4.3-.1-.7-.2-1.5-.5-2.1-1-1.8-3.6-2-5.3-3.2-1.6-1.2-2.3-3.2-2.6-5.2s-.4-4-1.2-5.8c-.8-1.8-2.7-3.4-4.6-3-1.4.2-2.5 1.3-3.5 2.3-2.9 3.1-5.8 6.1-8.7 9.2-5.4 5.8-11.2 12.2-11.7 20.1 0 0 1.1.6 1.5 1.7.4 1.1.6 6.3.6 6.3l1.1 1.7zm-14 6c-6.6 4.9-11.5 12.4-15.8 19.3-2.7 4.3-6.1 7.9-11.9 8.9-6.9 1.2-5.3-7.5-4.4-12 .6-3 1.4-6.5-.5-9-1.2-1.5-3.1-2.2-4.8-3s-3.5-2.1-3.8-3.9c-.3-2 1.1-4 .6-5.9-.7-2.5-4-3.3-5-5.6-.4-.9-.4-1.8-.2-2.7.5-2.1 2.4-3.6 4.5-4.3s4.2-.7 6.4-.7c10.4.1 20.6 1.5 29.7 6.6 0 0 3 10.4 4.2 10.9 1.2.4 1 1.4 1 1.4z"
          />
          <path
            fill="#1b5056"
            className="ETQMariageNoeudPapillonV2C_svg__st2"
            d="M60.4 45.4c3.2-2.4 7-4 11-4.5.2 0 .9-.4.4-.3-4.4.6-8.6 2.3-12.1 4.9-.2.1.1.1.2.1.1-.1.4-.1.5-.2zm12.2 6c-4 .9-8.2.8-12.1-.4-.2-.1-.9.2-.7.3 4.2 1.2 8.6 1.3 12.9.3.4-.1.4-.3-.1-.2zm-12.8-2.3c5.8-.2 11.5-1.4 16.8-3.6.5-.2-.3-.2-.5-.1-5 2-10.4 3.2-15.8 3.3-.2.1-.9.4-.5.4zm-18.4 1.6c-5.8-1.3-11.8-.7-17.3 1.7-.5.2.3.2.5.1 5.1-2.2 10.7-2.7 16.1-1.5.2.1.9-.2.7-.3zm.8 2.9c-7 .5-12.2 5.5-16.8 10.2-.3.3.5.3.7.1 4.4-4.5 9.4-9.4 16.1-9.9.2 0 .5-.5 0-.4zm.4 2.9c-2.2 1.6-4.1 3.6-5.6 5.8-.1.1.3.1.3.1.1 0 .4-.1.5-.2 1.5-2.2 3.4-4.1 5.5-5.7.2-.1-.1-.1-.2-.1-.2 0-.4 0-.5.1z"
          />
          <path
            fill="#b2d7ba"
            className="ETQMariageNoeudPapillonV2C_svg__st1"
            d="M42.2 54.5c-.4-.8-.7-1.6-1.1-2.4-.9-1.9-2.5-5.1-.3-6.7 2.2-1.6 4.9-2.2 7.5-2.6 2.1-.2 4.2-.3 6.3-.2 1.6.1 3.4.4 4.2 2 .7 1.3.7 3 .9 4.5.2 2.1.6 4.7-.4 6.6-.7 1.3-2 2.1-3.3 2.6-1.6.6-3.3 1-5 1.5-1.2.4-2.2.7-3.5.4-1.5-.3-2.8-1.4-3.7-2.7-.6-.9-1.1-1.9-1.6-3z"
          />
          <path
            fill="#b2d7ba"
            className="ETQMariageNoeudPapillonV2C_svg__st1"
            d="M42.2 54.5c-.9-2.4-2.6-4.6-2.5-7.3.1-1.4 1.4-2.2 2.5-2.8 1.1-.6 2.4-1 3.7-1.3 2.5-.6 5.1-.5 7.7-.7 1.3-.1 2.6-.1 3.9.5 1.3.5 2.1 1.9 2.3 3.2.2 1.3.3 2.6.4 3.9.1 1.3.2 2.6 0 3.9-.2 1.3-.9 2.6-2 3.4-1 .8-2.3 1.3-3.5 1.6L51 60c-1.2.4-2.6.7-3.8.2-1.3-.4-2.3-1.3-3.1-2.3-.7-1.1-1.2-2.3-1.9-3.4zm.1 0c.6 1.1 1.2 2.3 1.9 3.4.8 1 1.8 1.8 3.1 2.2 1.2.4 2.6.1 3.8-.3l3.7-1.1c1.2-.3 2.5-.8 3.5-1.6s1.7-2 1.9-3.3c.2-1.3.1-2.6-.1-3.8-.2-1.3-.2-2.6-.5-3.8-.2-1.3-.9-2.5-2.1-3-1.2-.5-2.5-.6-3.8-.5-2.6.2-5.2 0-7.7.6-1.3.3-2.5.7-3.6 1.3-1.1.6-2.4 1.4-2.5 2.7-.2 2.6 1.5 4.8 2.4 7.2z"
          />
          <path
            fill="#1b5056"
            className="ETQMariageNoeudPapillonV2C_svg__st2"
            d="M42.2 54.5c-.9-2.4-2.6-4.6-2.5-7.3.1-1.4 1.4-2.2 2.5-2.8 1.1-.6 2.4-1 3.7-1.3 2.5-.6 5.1-.5 7.7-.7 1.3-.1 2.6-.1 3.9.5 1.3.5 2.1 1.9 2.3 3.2.2 1.3.3 2.6.4 3.9.1 1.3.2 2.6 0 3.9-.2 1.3-.9 2.6-2 3.4-1 .8-2.3 1.3-3.5 1.6L51 60c-1.2.4-2.6.7-3.8.2-1.3-.4-2.3-1.3-3.1-2.3-.7-1.1-1.2-2.3-1.9-3.4zm.1 0c.6 1.1 1.2 2.3 1.9 3.4.8 1 1.8 1.9 3.1 2.2 1.2.4 2.6.1 3.8-.3l3.7-1.1c1.2-.3 2.5-.8 3.5-1.6s1.7-2 1.9-3.3c.2-1.3.1-2.6-.1-3.9-.2-1.3-.2-2.6-.5-3.9-.2-1.3-.9-2.5-2.1-3-1.2-.5-2.5-.6-3.8-.5-2.6.2-5.2 0-7.7.6-1.3.3-2.5.7-3.6 1.3-1.1.6-2.4 1.4-2.5 2.7-.2 2.7 1.5 5 2.4 7.4z"
          />
        </g>
      </g>
    </svg>