<?xml version="1.0" encoding="utf-8"?>
<svg version="1.1" xmlns="http://www.w3.org/2000/svg" xmlns:xlink="http://www.w3.org/1999/xlink" x="0px" y="0px"
	 viewBox="0 0 100 100" style="enable-background:new 0 0 100 100;" xml:space="preserve">
      <g id="ETQMariageEnveloppeV2C_svg__clair">
        <path
          d="M.1 25c2.3 16.7 5.4 33.3 9.3 49.6.2 1 .5 2 1.2 2.8 1.2 1.2 3 1.2 4.7 1C38.5 76.3 61 67.7 79.8 53.9c.8-.6 1.6-1.2 2-2 .5-.9.5-1.9.5-2.9.3-9.1.1-18.2-.5-27.2-.5-6.9-1.2-13.9-4.5-20C77 1.2 76.6.6 76 .3c-.7-.4-1.7-.3-2.5-.2C48.2 4.4 23.4 12.6.5 24.4"
          fill="#fff"
        />
        <path
          fill="#1b5056"
          className="ETQMariageEnveloppeV2C_svg__st1"
          d="M76.1.3c-3.2 7.5-6.6 15-10.5 22.2-1.9 3.6-4 7.2-6.2 10.6l-1.7 2.5-1.9 2.4c-.6.8-1.4 1.5-2 2.3-.7.7-1.5 1.4-2.3 2.1l-.1.1h-.1c-4.3-.6-8.6-1.4-12.9-2.3-4.3-.9-8.5-2-12.7-3.2-4.2-1.3-8.3-2.7-12.3-4.5-4-1.8-7.9-3.8-11.5-6.3l2.8 1.7c.9.6 1.9 1 2.9 1.6.5.3 1 .5 1.4.8l1.5.7c1 .4 2 .9 3 1.3 4 1.7 8.2 3 12.4 4.3 4.2 1.3 8.4 2.3 12.7 3.2 4.3.9 8.5 1.8 12.9 2.4h-.2c.7-.7 1.5-1.3 2.2-2 .7-.8 1.4-1.5 2-2.3l1.9-2.4 1.7-2.5c2.2-3.4 4.3-6.9 6.3-10.5C69.3 15.2 72.8 7.8 76.1.3zM12.5 78.4l9.9-19.6c1.6-3.3 3.3-6.5 5-9.8 1.7-3.2 3.4-6.5 5.3-9.7-1.5 3.3-3.2 6.6-4.8 9.9-1.7 3.3-3.4 6.5-5.1 9.8L12.5 78.4z"
        />
        <path
          fill="#1b5056"
          className="ETQMariageEnveloppeV2C_svg__st1"
          d="M81.8 51.9l-9-13.4c-1.5-2.2-3-4.5-4.4-6.7-1.4-2.3-2.9-4.6-4.2-6.9 1.6 2.2 3.1 4.4 4.6 6.6 1.5 2.2 2.9 4.5 4.4 6.8l8.6 13.6z"
        />
        <path
          fill="#b2d7ba"
          className="ETQMariageEnveloppeV2C_svg__st2"
          d="M9.1 91.1c21.1-.4 42.1-6 60.6-16.1 5.3-2.9 10.3-6.1 15.1-9.7.9-.7 0-2.1-.9-1.5-16.8 12.5-36.6 20.7-57.2 24-5.8.9-11.7 1.4-17.7 1.5-1 .1-1 1.8.1 1.8z"
        />
        <path
          fill="#b2d7ba"
          className="ETQMariageEnveloppeV2C_svg__st2"
          d="M35.4 87.2c4.1-3 6-8.6 4.7-13.4-.2-.7-.5-1.5-1.1-1.9-1-.7-2.5-.2-3.2.8s-.9 2.3-1 3.5c-.4 3.8-.4 7.6-.2 11.4m8.9-2.4c-.5 2.1-1 4.3-1.1 6.5-.1 2.2.3 4.5 1.4 6.4.3.5.7 1 1.2 1.4.6.3 1.2.4 1.9.4 1.3.1 2.7.1 3.8-.6 2-1.2 2.4-4.2 1.5-6.3-.9-2.2-2.8-3.8-4.7-5.3-1.1-.9-2.1-1.7-3.2-2.6m9.1-4.1c2.2-2.3 4.4-4.6 5.9-7.3 1.5-2.8 2.2-6.1 1.2-9.1-1-3-4.1-5.4-7.2-5-.8.1-1.7.4-2.3 1-.6.6-.9 1.5-1.2 2.4-1.6 6.2-.5 13 3 18.3m8.9-2.6c.8 1.8 2.8 2.8 4.6 3.6 6.2 2.8 13.2 5.3 19.6 3.3 1.4-.4 2.8-1.2 3.2-2.5.3-1.1 0-2.3-.7-3.2-2-3-6.1-3.6-9.8-3.6-5.7 0-11.3.8-16.8 2.5m12.1-7.2c6.3-.6 12.6-1.8 18.7-3.7 2.8-.9 5.9-2.1 6.9-4.9.4-1 .5-2.1.4-3.2-.1-1.7-.6-3.5-1.7-4.9-2-2.5-5.6-3.3-8.7-2.5s-5.7 2.8-8 5.1c-3.8 3.9-6.7 8.8-8.3 14.1"
        />
      </g>
    </svg>