<?xml version="1.0" encoding="utf-8"?>
<svg version="1.1" xmlns="http://www.w3.org/2000/svg" xmlns:xlink="http://www.w3.org/1999/xlink" x="0px" y="0px"
	 viewBox="0 0 100 100" style="enable-background:new 0 0 100 100;" xml:space="preserve">
      <g id="ETQMariageCoeurFleurV2C_svg__clair">
        <path
          fill="#b2d7ba"
          className="ETQMariageCoeurFleurV2C_svg__st0"
          d="M95 44c.9-.8 1.7-1.7 2.1-2.8-1.4-.4-2.8-.3-4.3-.1-1.9.2-3.7.6-5.4 1.5-1.2.6-2.8 1.9-3.2 3.3-.3 1.5 1 1.3 2.1 1.3 3.3-.1 6.3-1.2 8.7-3.2zM53.3 67.5c.7-1 1.6-1.9 2.6-2.3.5 1.3.5 2.8.4 4.2-.1 1.9-.3 3.8-1.1 5.5-.5 1.2-1.7 3-3 3.4-1.4.4-1.4-.8-1.5-2-.1-3.2.8-6.3 2.6-8.8zm27.5.4c3.4 0 7.1-.8 9.4-3.3-3.1-2.2-7-3.3-10.8-3.1-.6 0-1.2.1-1.7.3-.6.3-1.1.8-1.6 1.3-1 1.1-3.6 2.7-1.4 3.5 1.7.8 4.2 1.5 6.1 1.3zM64.4 79.5c1.7.9 3.5 1.4 5.3 1.8 2.1.4 4.4.7 6.4-.2-1.4-1.8-2.8-3.6-4.7-4.9-2.4-1.6-5.4-2.1-8.2-1.7-4.1.5-.8 3.9 1.2 5zm1.9-9.1c.7-.2 1.3-.8 1.8-1.3 1.5-1.7 2.7-3.7 3-5.9.4-2.2-.2-4.7-1.8-6.2-1.6 1.6-2.7 3.7-3.4 5.8-.7 2.2-1.1 4.4-1.4 6.7-.1.4-.1.8 0 1.2.2.6.8 1 1.5 1.1s1.3-.1 1.8-.4m7.4-21.6c-.6-2.7-.3-5.4.5-8 1.5.4 2.7 1.4 3.5 2.7.8 1.3 1.3 2.7 1.7 4.2.4 1.6 1.5 7.1-1.3 7.2-2.3-.1-3.9-4.3-4.4-6.1z"
        />
        <path
          fill="#b2d7ba"
          className="ETQMariageCoeurFleurV2C_svg__st0"
          d="M56.6 75.7c2.9-1.2 6.8-3.2 9.4-5 3.7-2.6 7.4-6.5 10.2-10.2 2.9-3.7 4.5-8.2 6.1-12.6 1.4-3.8 3-7.7 3.6-11.6.8.2.8 1.3.7 2.1C83.7 56 73 72.6 55.3 78.2 50 79.9 41.1 82 36 78.5c-.1 0-.7-.4-.6-.5.1-.1.8.1.9.1 1.8.3 3.5.7 5.4.8 1.8.1 3.6 0 5.4-.3.2 0 .5-.1.7-.1 2.7-.5 5.3-1.4 7.8-2.4.4-.1.7-.3 1-.4z"
        />
        <path
          fill="#fff"
          className="ETQMariageCoeurFleurV2C_svg__st1"
          d="M89.6 31.2c2 .7 4.2 1.4 6.3.7 1.6-.6 2.8-1.9 3.7-3.4.2-.3.3-.6.4-.9.1-1-.8-1.7-1.5-2.5-.6-.7-.9-1.6-1.3-2.4-.4-.8-1.1-1.6-2-1.8-1-.2-2 .3-2.8.9-2 1.5-3.5 3.6-4.4 5.9-.5 1.3.3 3 1.6 3.5z"
        />
        <path
          fill="#fff"
          className="ETQMariageCoeurFleurV2C_svg__st1"
          d="M93.1 24.3c1.1-1.7 1.9-3.9.9-5.6-.8-1.5-2.7-2.1-4.5-2.2-.6 0-1.1 0-1.7.2-.5.2-.9.6-1.4.8-.6.3-1.2.4-1.7.8-1 .6-1.6 1.6-2.2 2.6-.3.6-.7 1.3-.7 2 0 1.2 1.2 2.1 2.1 2.9 1.2 1.1 2.1 4.3 4.1 3.8 2.1-.3 4.1-3.7 5.1-5.3z"
        />
        <path
          fill="#fff"
          className="ETQMariageCoeurFleurV2C_svg__st1"
          d="M82.9 21.4c-.5-.3-1-.7-1.5-.9-2.4-1-4.7.9-4.3 3.5.1.7.3 1.4.2 2-.1.9-.9 1.7-.7 2.7.2.8.9 1.3 1.5 1.8 2.8 2 5.9 1.6 7.7-.8.8-1 1.3-3.1.9-4.6-.2-1.7-2.5-2.8-3.8-3.7z"
        />
        <path
          fill="#fff"
          className="ETQMariageCoeurFleurV2C_svg__st1"
          d="M81 31c-.2.7-.3 1.4-.5 2.1-.1.4-.3.7-.4 1.1-.2.9.2 1.9.8 2.6 1.4 1.7 4 2.3 6.2 1.7.5-.1.9-.3 1.3-.7.6-.5.9-1.1 1.2-1.8.3-.6.5-1.1.8-1.7.1-.2.2-.5.2-.8 0-.3-.2-.6-.3-.8-.8-1.4-1.7-2.9-3.1-3.7-1.9-.9-5.4-.5-6.2 2z"
        />
        <path
          fill="#fff"
          className="ETQMariageCoeurFleurV2C_svg__st1"
          d="M89 36.1c-.3 0-.5.4-.4.7.1.3.3.5.5.7.5.5 1.1 1 1.8.7.2-.1.4-.3.7-.4.5-.2 1.1 0 1.7.1 1.2.2 2.4-.4 3.3-1.2.2-.1.3-.3.4-.4.1-.2.2-.5.2-.7.2-1.3.4-2.6.5-3.8.1-1.5-1.2-2.7-2.6-3.2-1.5-.5-4-1-5.4-.3-1.6.8-1.8 3.6-2 5.2-.1.7-.2 1.4 0 2.1.2.7.7 1.3 1.4 1.4.6.1 1.3.4 1.8.4.8 0 1.3-.1 2 .3.8.4 1.7.5 2.6.3.8-.2 1.6-.9 1.9-1.7.1-.4.2-.9.2-1.3 0-.8.1-1.5.1-2.3 0-1.2-.1-2.1-.7-2.8"
        />
        <path
          d="M85.7 29c0 .4.1.8.2 1.2.1.4.3.7.6 1 .3.3.6.5 1 .5.3 0 .7-.2 1-.1.2 0 .3.1.5.2.5.2 1.2.1 1.7-.1.6-.2 1.1-.6 1.4-1.2s.3-1.3-.2-1.8c-.1-.1-.3-.2-.4-.4-.1-.1-.1-.3-.1-.4-.1-.3-.2-.5-.4-.8-.2-.4-.5-.8-.9-1.1-.4-.3-.9-.4-1.4-.3-.5.1-.9.2-1.3.5-.3.2-.6.5-.8.9-.1.2-.1.5-.2.6l-.3.3c-.3.2-.4.6-.4 1z"
          fill="#1b5056"
        />
        <path
          d="M36.1 84.1C25.7 78.4 18.4 71.4 11 61.8 4.9 53.9-5 36.9 2.9 27.2c10.4-12.9 25.8 8 27.7 17.9-1.1-9.5 2.1-19.9 9.9-25.9 7.6-5.9 19.5-4 22.2 6 3.7 13.9-3.8 29.9-11.7 40.9-4.5 6.4-8.9 12.8-14.9 18z"
          fill="#fce9df"
        />
      </g>
    </svg>