<?xml version="1.0" encoding="utf-8"?>
<svg version="1.1" xmlns="http://www.w3.org/2000/svg" xmlns:xlink="http://www.w3.org/1999/xlink" x="0px" y="0px"
	 viewBox="0 0 100 100" style="enable-background:new 0 0 100 100;" xml:space="preserve">
      <g id="ETQNumero10-JAUNE_svg__print">
        <g id="ETQNumero10-JAUNE_svg__fonce">
          <path
            fill="#ffdc1a"
            className="ETQNumero10-JAUNE_svg__st0"
            d="M33.6 25.3c-.8 4.3-1.6 8.9-2.4 13.8-.8 4.8-1.6 9.9-2.4 15.1s-1.6 10.3-2.3 15.3-1.4 9.8-2 14.4-1.2 8.7-1.6 12.4c-.3 1.4-.6 2.4-1.1 2.8s-1.5.3-2.9-.3c-1.4-.5-2.7-1-4-1.5s-2.7-1.2-4-2.2c-1-.9-1.7-2-2-3.3s-.4-3-.3-5.2c.2-3.1.5-7.1 1-12s1.1-10.2 1.8-15.9 1.5-11.4 2.4-17.2c.8-5.8 1.7-11.2 2.6-16-2-1.4-3.3-2.6-3.9-3.5-.6-.9-.4-2.4.3-4.4.9-2.4 1.9-4.8 3.1-7.2s2.3-4.5 3.3-6.3c.9-1.6 1.8-2.6 2.5-2.9s1.8-.2 3.4.4c1.4.5 2.9 1.2 4.3 2 1.4.9 2.9 2 4.3 3.3 1.4 1.2 2.2 2.3 2.6 3.2.3.9.3 2.3-.1 4.1-1.1 3-1.8 6.8-2.6 11.1zM89.3 14.4c1 2.3 1.7 4.9 2.1 7.7.8 5.2 1.1 11 1 17.4s-.6 12.9-1.7 19.3c-1 6.5-2.6 12.7-4.6 18.6-2 6-4.6 11-7.8 15.2-2.2 2.9-4.6 4.7-7 5.5-2.5.8-5.3.9-8.6.5-2-.3-4.2-.8-6.4-1.5-2.2-.8-4.3-1.9-6.3-3.3-1.3-1-2.6-2.5-4.1-4.3-1.5-1.9-2.6-4-3.4-6.4-1.5-5.6-2.4-12-2.6-19.1-.2-7.1.3-14.3 1.5-21.6 1.2-7.2 3.1-14.1 5.8-20.7S53.3 9.6 57.3 5.3c1.8-1.8 3.9-3.1 6.3-3.9s4.6-1 6.6-.6c2.8.6 5.5 1.5 8 2.6 2.6 1.1 4.7 2.6 6.4 4.3 2.3 2.1 3.8 4.4 4.7 6.7zm-19.7 5.4c-1.4 1.6-2.7 3.8-4.1 6.6s-2.7 6.1-3.9 9.8-2.2 7.5-3 11.3-1.3 7.7-1.7 11.6c-.3 3.9-.4 7.5-.3 10.8.1 3.3.5 6.1 1.2 8.5.7 2.3 1.6 3.8 2.8 4.4 1.1.5 2.3.2 3.6-1.1 1.3-1.2 2.6-3.2 3.8-5.8 1.2-2.6 2.4-5.8 3.4-9.5s1.9-7.8 2.6-12.3c.6-3.6 1.1-7.3 1.4-11.3s.5-7.7.5-11.3-.2-6.6-.6-9.1-1.1-3.9-2.2-4.3c-.9-.5-2.1.1-3.5 1.7z"
          />
        </g>
      </g>
    </svg>