<?xml version="1.0" encoding="utf-8"?>
<svg version="1.1" xmlns="http://www.w3.org/2000/svg" xmlns:xlink="http://www.w3.org/1999/xlink" x="0px" y="0px"
	 viewBox="0 0 100 100" style="enable-background:new 0 0 100 100;" xml:space="preserve">
      <g id="ETQNumero11-C_svg__print">
        <g id="ETQNumero11-C_svg__fonce">
          <path
            fill="#fff"
            className="ETQNumero11-C_svg__st0"
            d="M44.5 25.8c-.8 4.3-1.6 8.8-2.4 13.6-.8 4.8-1.6 9.7-2.4 14.8-.8 5.1-1.6 10.1-2.3 15s-1.4 9.6-2 14.1c-.6 4.5-1.2 8.6-1.6 12.2-.3 1.4-.6 2.3-1.1 2.8-.5.4-1.5.3-2.9-.3-1.3-.5-2.7-1-4-1.4-1.3-.5-2.6-1.2-4-2.2-1-.9-1.7-2-2-3.3-.3-1.3-.4-3-.3-5.1.2-3 .5-6.9.9-11.8.5-4.9 1-10.1 1.8-15.6.7-5.6 1.5-11.2 2.3-17 .8-5.7 1.7-11 2.5-15.8-2-1.4-3.3-2.6-3.8-3.5-.5-.9-.4-2.3.3-4.3.8-2.3 1.8-4.7 3-7.1S29 6.4 30 4.7c.9-1.6 1.7-2.6 2.4-2.9.7-.3 1.8-.2 3.3.4 1.4.5 2.8 1.2 4.3 2 1.4.8 2.8 1.9 4.3 3.3 1.3 1.2 2.2 2.2 2.5 3.1.3.9.3 2.3-.1 4-.7 3.2-1.4 6.9-2.2 11.2z"
          />
          <path
            fill="#b78c3c"
            className="ETQNumero11-C_svg__st1"
            d="M31.9 99.1c-.6 0-1.4-.2-2.3-.6-1.3-.5-2.6-1-3.9-1.4-1.3-.5-2.7-1.2-4.1-2.3-1.1-1-1.9-2.2-2.2-3.6-.4-1.3-.4-3.1-.3-5.4.2-3 .5-6.9.9-11.8.5-4.8 1.1-10.1 1.8-15.7.7-5.4 1.5-11.1 2.3-17 .8-5.5 1.6-10.7 2.5-15.4-1.9-1.4-3.1-2.5-3.7-3.4-.7-1.1-.6-2.6.3-4.9.8-2.4 1.9-4.8 3-7.2 1.2-2.5 2.3-4.5 3.3-6.2 1-1.7 1.9-2.7 2.7-3.1.8-.3 2.1-.2 3.8.5 1.4.5 2.9 1.2 4.4 2.1 1.5.9 2.9 2 4.4 3.3 1.4 1.2 2.3 2.4 2.7 3.4.4 1 .3 2.5-.1 4.4-.7 3.1-1.4 6.7-2.2 11.1-.8 4.3-1.6 8.9-2.4 13.6-.8 4.8-1.6 9.7-2.4 14.8-.8 5.1-1.5 10.1-2.3 15-.7 4.9-1.4 9.6-2 14.1-.6 4.5-1.2 8.6-1.6 12.2-.3 1.6-.7 2.6-1.3 3.2-.4.1-.8.3-1.3.3zm1.4-96.9c-.3 0-.5.1-.7.1-.4.2-1.1.8-2.2 2.6-1 1.7-2.1 3.8-3.2 6.2-1.1 2.3-2.2 4.7-3 7-.7 1.8-.8 3.1-.4 3.8.5.8 1.7 1.9 3.7 3.3l.3.2-.1.4c-.8 4.8-1.7 10.1-2.5 15.7-.9 5.9-1.6 11.6-2.3 16.9-.7 5.5-1.3 10.8-1.8 15.6-.5 4.9-.8 8.8-.9 11.8-.2 2.1-.1 3.8.2 5 .3 1.2.9 2.1 1.8 3 1.2.9 2.5 1.6 3.7 2.1 1.3.5 2.6.9 4 1.4 1.7.7 2.2.4 2.3.4.2-.2.6-.7.9-2.4.4-3.5.9-7.6 1.6-12.2.6-4.5 1.3-9.2 2-14.1s1.5-9.9 2.3-15c.8-5.1 1.6-10.1 2.4-14.8.8-4.7 1.6-9.2 2.4-13.6.8-4.4 1.5-8.1 2.2-11.2.4-1.7.4-2.9.1-3.7-.2-.7-1-1.7-2.2-2.8-1.4-1.3-2.8-2.4-4.2-3.2-1.4-.8-2.8-1.5-4.2-2-1-.4-1.7-.5-2.2-.5z"
          />
          <path
            fill="#fff"
            className="ETQNumero11-C_svg__st0"
            d="M76.9 25.8c-.8 4.3-1.6 8.8-2.4 13.6-.8 4.8-1.6 9.7-2.4 14.8-.8 5.1-1.6 10.1-2.3 15s-1.4 9.6-2 14.1c-.6 4.5-1.2 8.6-1.6 12.2-.3 1.4-.6 2.3-1.1 2.8-.5.4-1.5.3-2.9-.3-1.3-.5-2.7-1-4-1.4-1.3-.5-2.6-1.2-4-2.2-1-.9-1.7-2-2-3.3-.3-1.3-.4-3-.3-5.1.2-3 .5-6.9.9-11.8.5-4.9 1-10.1 1.8-15.6.7-5.6 1.5-11.2 2.3-17 .8-5.7 1.7-11 2.5-15.8-2-1.4-3.3-2.6-3.8-3.5-.5-.9-.4-2.3.3-4.3.8-2.3 1.8-4.7 3-7.1s2.3-4.5 3.3-6.2c.9-1.6 1.7-2.6 2.4-2.9.7-.3 1.8-.2 3.3.4 1.4.5 2.8 1.2 4.3 2 1.4.8 2.8 1.9 4.3 3.3 1.3 1.2 2.2 2.2 2.5 3.1.3.9.3 2.3-.1 4-.5 3.2-1.2 6.9-2 11.2z"
          />
          <path
            fill="#b78c3c"
            className="ETQNumero11-C_svg__st1"
            d="M64.3 99.1c-.6 0-1.4-.2-2.3-.6-1.3-.5-2.6-1-3.9-1.4-1.3-.5-2.7-1.2-4.1-2.3-1.1-1-1.9-2.2-2.2-3.6-.4-1.3-.4-3.1-.3-5.3.2-3 .5-7 .9-11.8.5-4.8 1.1-10.1 1.8-15.7.7-5.4 1.5-11.1 2.3-17 .8-5.5 1.6-10.7 2.5-15.4-1.9-1.4-3.1-2.5-3.7-3.4-.7-1.1-.6-2.6.3-4.9.8-2.4 1.9-4.8 3-7.2 1.2-2.4 2.3-4.5 3.3-6.2 1-1.7 1.9-2.7 2.7-3.1.9-.4 2.1-.3 3.8.4 1.4.5 2.9 1.2 4.4 2.1 1.5.9 2.9 2 4.4 3.3 1.4 1.2 2.3 2.4 2.7 3.4.4 1 .3 2.5-.1 4.4-.7 3.1-1.4 6.7-2.2 11.1-.8 4.3-1.6 8.9-2.4 13.6-.8 4.8-1.6 9.7-2.4 14.8-.8 5.1-1.5 10.1-2.3 15-.7 4.9-1.4 9.6-2 14.1-.6 4.5-1.2 8.6-1.6 12.2-.3 1.6-.7 2.6-1.3 3.2-.4.1-.8.3-1.3.3zm1.4-96.9c-.3 0-.5.1-.7.1-.4.2-1.1.8-2.2 2.6-1 1.8-2.1 3.8-3.2 6.2-1.1 2.3-2.2 4.7-3 7-.6 1.9-.7 3.2-.3 3.9.5.8 1.7 1.9 3.7 3.3l.3.2-.1.4c-.8 4.8-1.7 10.1-2.5 15.7-.9 5.9-1.6 11.6-2.3 16.9-.7 5.5-1.3 10.8-1.8 15.6-.5 4.8-.8 8.8-.9 11.8-.2 2.1-.1 3.8.2 5 .3 1.2.9 2.1 1.8 3 1.2.9 2.5 1.6 3.7 2.1 1.3.5 2.6.9 4 1.4 1.7.7 2.2.4 2.3.4.2-.2.6-.7.9-2.4.4-3.5.9-7.6 1.6-12.2.6-4.5 1.3-9.2 2-14.1s1.5-9.9 2.3-15c.8-5.1 1.6-10.1 2.4-14.8.8-4.7 1.6-9.2 2.4-13.6.8-4.4 1.5-8.1 2.2-11.2.4-1.7.4-2.9.1-3.7-.3-.8-1.1-1.8-2.3-2.9-1.4-1.3-2.8-2.4-4.2-3.2-1.4-.8-2.8-1.5-4.2-2-1-.4-1.7-.5-2.2-.5z"
          />
        </g>
      </g>
    </svg>