<?xml version="1.0" encoding="utf-8"?>
<svg version="1.1" xmlns="http://www.w3.org/2000/svg" xmlns:xlink="http://www.w3.org/1999/xlink" x="0px" y="0px"
	 viewBox="0 0 100 100" style="enable-background:new 0 0 100 100;" xml:space="preserve">
	 <path
        d="M69.4 50.2c2.2.2 3.9 1.5 4.9 4.1.6 1.5 1 2.8 1.3 4 .3 1.2.6 2.5 1.1 3.9.3 1.6.3 2.7-.1 3.2-.4.6-1.2 1-2.6 1.1-1.2.1-2.5.2-3.7.2-1.2.1-2.5.2-3.7.3-.9 5.5-1.8 10.7-2.6 15.5-.8 5.1-1.5 9.5-2 13.5-.2 1.6-.6 2.6-1.2 3-.5.4-1.5.4-2.9-.1-1.1-.4-2.3-1-3.6-1.7-1.3-.7-2.6-1.5-3.7-2.4-1.2-1.2-1.9-2.3-2.3-3.4-.4-1.1-.4-2.8-.2-4.9.2-2 .4-4.4.8-7.3.4-2.9.9-6.2 1.4-9.9-2.4.4-4.8.8-7.1 1.2-2.3.4-4.6.8-6.7 1.3-1.2.3-2.2.4-3.2.3-1-.1-2-.9-3.1-2.3-1.2-1.4-2.5-3-3.6-4.8-1.2-1.8-2.2-3.6-3.2-5.4-.7-1.5-1-2.9-1.1-4.3 0-1.4.4-2.9 1.2-4.7 1.6-3.6 3.6-7.6 6-12 2.5-4.4 5.1-8.8 7.9-13.1C40.2 21.1 43 17 45.7 13c2.8-3.9 5.3-7.3 7.5-10 1.2-1.2 2.2-2 3-2.2.8-.2 1.9 0 3.4.6.8.3 1.7.9 3 1.6 1.2.7 2.6 1.6 3.9 2.4 1.4.9 2.7 1.8 4 2.7 1.3.9 2.3 1.7 3.1 2.2 1.3 1.2 2.1 2.2 2.4 3.2.3 1 .2 2.3-.2 4-.9 4.2-1.9 9.2-3 14.8-1.1 5.6-2.2 11.6-3.4 17.9zM38 53c2.2-.4 4.7-.7 7.4-1 2.7-.2 5.3-.5 8-.9.9-4.9 1.8-9.8 2.7-14.8.9-4.9 1.8-9.7 2.8-14.3-1.8 2.2-3.7 4.7-5.5 7.2-1.8 2.6-3.6 5.2-5.4 7.9-1.8 2.7-3.5 5.4-5.2 8-1.7 2.8-3.3 5.4-4.8 7.9z"
        fill="#ffdc1a"
      />
    </svg>