<?xml version="1.0" encoding="utf-8"?>
<svg version="1.1" xmlns="http://www.w3.org/2000/svg" xmlns:xlink="http://www.w3.org/1999/xlink" x="0px" y="0px"
	 viewBox="0 0 100 100" style="enable-background:new 0 0 100 100;" xml:space="preserve">
	 <path
        d="M59.5 41.7c4.1 2.3 6.9 4.9 8.4 7.9s2.3 6.4 2.5 10.3c.3 3.8.1 7.5-.5 11.1-.6 3.6-1.4 7-2.6 10.1s-2.5 6-4 8.4c-1.5 2.5-3.1 4.5-4.7 6-1 .9-2.1 1.7-3.4 2.4-1.3.7-2.7 1.1-4.3 1.3-1.6.2-3.4 0-5.4-.4-2-.4-4.3-1.2-6.8-2.4-4.9-2.7-8.3-6.1-10.2-10.1-1.9-4.1-2.9-9.1-2.8-15.2 0-3.9.4-8.6 1.1-14C27.6 51.7 29 46 31 40s4.6-12.2 7.9-18.5c3.3-6.3 7.4-12.3 12.5-18.1 1.2-1.3 2.1-2.1 2.8-2.5.6-.4 1.8-.4 3.5.1 1.6.4 3.4 1.1 5.5 2 2.1.9 3.7 1.7 4.8 2.6 1.2 1 1.9 2 2.2 3 .3 1-.1 2.2-1.3 3.6-3.5 4-6.8 8.4-9.7 13-2.9 4.7-5.6 9.5-7.9 14.5 2.7-.1 5.4.6 8.2 2zM40.8 76.2c0 3.4.6 5.6 2.1 6.5 1.7 1.2 3.5.7 5.4-1.3 1.9-2.1 3.7-5.3 5.2-9.9 1.3-3.9 1.9-7.3 2-10.3.1-3-.7-5-2.3-5.9-1.4-.8-3.2-.5-5.2 1.1-2.1 1.6-3.8 4-5.3 7.2-1.3 4.9-1.9 9.2-1.9 12.6z"
        fill="#54a034"
      />
    </svg>