<?xml version="1.0" encoding="utf-8"?>
<svg version="1.1" xmlns="http://www.w3.org/2000/svg" xmlns:xlink="http://www.w3.org/1999/xlink" x="0px" y="0px"
	 viewBox="0 0 100 100" style="enable-background:new 0 0 100 100;" xml:space="preserve">
	 <path
        d="M41.7 64.3c-.7-.1-1.4-.4-2.1-.8-4-1.8-6.9-4.1-8.8-7-1.9-2.8-3.1-6.4-3.6-10.6-.6-3.7-.7-7.5-.3-11.4.4-3.9 1.1-7.7 2.1-11.3 1-3.6 2.4-6.9 4-9.9s3.4-5.5 5.3-7.4c1-.9 2.1-1.8 3.3-2.5 1.2-.8 2.6-1.4 4.2-1.7 1.6-.4 3.3-.4 5.2-.1 1.9.3 4 1.1 6.3 2.3 2.3 1.3 4.4 2.7 6.2 4.2 1.9 1.5 3.4 3.2 4.7 5 1.3 1.9 2.3 4 3 6.3.7 2.4 1.2 5 1.4 8 .2 4.8-.3 10.3-1.7 16.5-1.4 6.2-3.4 12.4-6.1 18.8-2.7 6.3-5.9 12.4-9.6 18.2-3.7 5.8-7.8 10.8-12.1 14.9-1.2 1.1-2.2 1.8-3.2 2.2-1 .4-2.2.2-3.6-.7-1.3-.8-2.5-1.5-3.5-2.2-1-.6-2.1-1.5-3.3-2.8-.8-.9-1.4-1.9-1.7-2.8-.3-1 .1-2.1 1.3-3.3 2.9-3.3 5.6-6.7 8-10.3 2.5-3.5 4.7-7.2 6.8-11-.7-.3-1.5-.5-2.2-.6zm12.7-27.1c.8-3.3 1.3-6.3 1.5-8.9.2-2.6.1-4.8-.2-6.5-.3-1.7-1-2.8-1.9-3.3-.8-.4-1.7-.3-2.7.4-1 .7-1.9 1.8-2.8 3.2-.9 1.4-1.8 3.1-2.7 5-.9 1.9-1.6 4-2.2 6.1-.5 2-.9 3.9-1.1 5.8-.2 1.9-.3 3.7-.2 5.3.1 1.6.3 3 .8 4.1.5 1.1 1.1 1.9 2 2.3 2 1.1 4 .2 6.2-2.7 1.4-3.9 2.5-7.5 3.3-10.8z"
        fill="#fff"
      />
      <path
        d="M38.8 98.7c-.9 0-1.9-.3-2.9-1-1.3-.8-2.5-1.5-3.5-2.2-1.1-.6-2.2-1.6-3.4-2.9-.9-1-1.5-2-1.8-3.1-.4-1.2.1-2.5 1.4-3.9 2.8-3.3 5.5-6.7 8-10.2 2.3-3.3 4.4-6.7 6.4-10.2-.5-.1-.9-.2-1.4-.3-.8-.1-1.6-.4-2.3-.9-4-1.8-7-4.2-9-7.2-1.9-2.9-3.2-6.6-3.7-10.8-.6-3.7-.7-7.6-.3-11.6.4-4 1.1-7.8 2.1-11.4 1-3.6 2.4-7 4-10s3.4-5.6 5.4-7.5c1-.9 2.2-1.8 3.4-2.6 1.3-.8 2.8-1.4 4.4-1.8C47.2.7 49.1.7 51 1c2 .3 4.2 1.1 6.5 2.4 2.3 1.3 4.5 2.8 6.3 4.3 1.9 1.5 3.5 3.2 4.8 5.1 1.3 1.9 2.4 4.1 3.1 6.5.8 2.4 1.2 5.1 1.4 8.1.2 4.8-.3 10.4-1.7 16.6-1.4 6.2-3.5 12.5-6.2 18.9-2.7 6.3-5.9 12.5-9.6 18.3-3.7 5.8-7.8 10.9-12.2 15-1.2 1.1-2.3 1.9-3.4 2.3-.3.1-.7.2-1.2.2zM48.6 2c-.9 0-1.8.1-2.7.3-1.5.4-2.9.9-4 1.7-1.2.8-2.3 1.6-3.3 2.5-1.8 1.8-3.6 4.3-5.1 7.2-1.6 3-2.9 6.3-3.9 9.8-1 3.5-1.7 7.3-2.1 11.2-.4 3.9-.3 7.7.3 11.3.5 4.1 1.7 7.6 3.5 10.3 1.8 2.7 4.7 5 8.5 6.8.7.4 1.3.6 2 .8.8.1 1.5.3 2.3.4l.8.2-.5.5c-2.1 3.8-4.4 7.5-6.8 11.1-2.5 3.6-5.2 7-8.1 10.3-1 1.1-1.4 2-1.2 2.8.3.9.8 1.8 1.5 2.6C31 93 32 93.9 33 94.5c1 .6 2.2 1.3 3.5 2.2 1.2.8 2.2 1 3 .7.9-.4 1.9-1.1 3-2.1 4.3-4.1 8.4-9.1 12-14.8 3.7-5.7 6.9-11.8 9.5-18.1 2.7-6.3 4.7-12.5 6.1-18.6 1.4-6.1 2-11.6 1.7-16.3-.2-2.9-.6-5.5-1.3-7.8-.7-2.3-1.7-4.3-2.9-6.2-1.3-1.8-2.8-3.4-4.6-4.9-1.7-1.6-3.8-3-6-4.2-2.2-1.2-4.3-1.9-6.1-2.2-.8-.2-1.6-.2-2.3-.2zm-2 49.7c-.6 0-1.3-.2-1.9-.5-1-.5-1.8-1.3-2.3-2.6-.5-1.2-.8-2.6-.8-4.3-.1-1.6 0-3.5.3-5.4.2-1.9.6-3.9 1.1-5.9.6-2.2 1.3-4.3 2.2-6.2.9-2 1.8-3.7 2.7-5.1.9-1.5 1.9-2.6 2.9-3.3 1.4-1 2.6-.8 3.3-.5 1.1.6 1.8 1.8 2.2 3.8.3 1.8.4 4 .2 6.7-.2 2.6-.7 5.6-1.5 9-.8 3.4-1.9 7-3.2 10.8l-.1.2c-1.7 2.1-3.4 3.3-5.1 3.3zm6.3-32.9c-.3 0-.8.1-1.4.5-.9.7-1.8 1.7-2.6 3-.9 1.4-1.8 3-2.6 4.9-.9 1.9-1.6 3.9-2.1 6-.5 1.9-.9 3.9-1.1 5.7-.2 1.8-.3 3.6-.2 5.2.1 1.5.3 2.8.8 3.9.4 1 1 1.6 1.7 2 .7.3 2.5 1.4 5.4-2.5 1.3-3.7 2.3-7.2 3.1-10.6.8-3.3 1.3-6.3 1.5-8.8.2-2.5.1-4.6-.2-6.3-.3-1.5-.8-2.5-1.6-2.9-.3 0-.5-.1-.7-.1z"
        fill="#b78c3c"
      />
    </svg>