<?xml version="1.0" encoding="utf-8"?>
<svg version="1.1" xmlns="http://www.w3.org/2000/svg" xmlns:xlink="http://www.w3.org/1999/xlink" x="0px" y="0px"
	 viewBox="0 0 100 100" style="enable-background:new 0 0 100 100;" xml:space="preserve">
	 <path
        d="M51.5 20.5c-1.5.2-3 .5-4.5.7-1.5.2-2.9.5-4.2.7-1.3.2-2.5.4-3.4.6-1.1.3-2.3.3-3.5-.1-1.2-.4-2.3-1.2-3.4-2.6-.7-1.1-1.5-2.6-2.5-4.4-1-1.8-1.8-3.4-2.3-4.9-.7-1.4-.9-2.4-.6-2.9.2-.6.8-1 1.7-1.4 2-.7 4.4-1.4 7.1-1.9 2.7-.5 5.4-1 8.4-1.4L53 2c2.9-.2 5.7-.4 8.2-.6 1.4 0 2.6.2 3.6.7 1 .5 2 1.6 2.9 3.2 1.1 1.6 2.2 3.3 3.1 4.9.9 1.6 1.7 3 2.3 4.2.9 1.6 1.4 3.1 1.5 4.5.1 1.5-.4 3.1-1.3 4.9-2.6 5-5.3 10.4-8.1 16.2-2.8 5.8-5.6 11.9-8.4 18.1-2.8 6.3-5.5 12.6-8 19.1-2.6 6.5-4.9 12.8-7.1 18.8-.5 1.5-1 2.3-1.6 2.5-.6.2-1.5-.2-2.8-1-1.2-.9-2.5-1.9-3.7-3.1-1.2-1.1-2.3-2.4-3.3-3.8-.9-1.4-1.4-2.7-1.5-3.8-.1-1.1.2-2.7.7-4.7C31.2 77 33 71.7 35 66.4c2-5.4 4.1-10.7 6.4-16 2.3-5.3 4.6-10.6 7-15.7 2.4-5.1 4.9-10.1 7.3-14.8-1.3.1-2.7.3-4.2.6z"
        fill="#fff"
      />
      <path
        d="M39.8 99.2c-.7 0-1.6-.4-2.8-1.1-1.3-.9-2.5-2-3.8-3.1-1.3-1.2-2.4-2.5-3.4-3.9-1-1.5-1.5-2.9-1.6-4.1-.1-1.4.2-3 .8-5 1.6-5.2 3.5-10.5 5.5-15.8 2-5.3 4.1-10.7 6.4-16.1 2.3-5.3 4.6-10.6 7-15.7 2.2-4.6 4.4-9.2 6.8-13.8-1 .1-2 .3-3.1.5l-4.5.7c-1.5.2-2.9.5-4.2.7-1.3.2-2.5.4-3.4.5-1.2.3-2.5.3-3.8-.1-1.3-.4-2.5-1.4-3.7-2.8-.7-1.2-1.5-2.7-2.5-4.4-1-1.8-1.8-3.4-2.4-4.9-.7-1.5-.9-2.6-.6-3.4.3-.7 1-1.3 2.1-1.7 2.1-.7 4.5-1.4 7.2-1.9s5.5-1 8.4-1.4C47 2 50 1.7 53 1.4c3-.2 5.7-.4 8.2-.6 1.5 0 2.8.3 3.9.8s2.2 1.7 3.2 3.5c1.1 1.6 2.2 3.2 3.1 4.8.9 1.6 1.7 3 2.3 4.3.9 1.6 1.5 3.2 1.5 4.8.1 1.6-.4 3.3-1.4 5.2-2.6 4.9-5.3 10.3-8.1 16.1-2.9 6-5.7 12.1-8.3 18.1-2.7 6.2-5.5 12.6-8 19.1-2.6 6.5-4.9 12.8-7.1 18.8-.6 1.7-1.2 2.6-2 2.8-.1 0-.3.1-.5.1zm17-80.1l-.5 1c-2.5 4.9-5 9.9-7.3 14.8-2.4 5-4.7 10.3-7 15.6-2.3 5.3-4.4 10.7-6.4 16-2 5.3-3.8 10.6-5.5 15.8-.5 1.9-.8 3.4-.7 4.4.1 1 .5 2.2 1.4 3.5.9 1.3 2 2.6 3.2 3.7 1.2 1.1 2.4 2.1 3.6 3 1.6 1 2.2.9 2.3.9.1 0 .6-.2 1.2-2.1 2.1-6 4.5-12.4 7.1-18.8 2.6-6.5 5.3-13 8.1-19.1 2.7-6.1 5.5-12.2 8.4-18.1 2.8-5.8 5.5-11.2 8.1-16.1.9-1.7 1.4-3.2 1.3-4.6-.1-1.4-.5-2.8-1.4-4.3-.7-1.2-1.4-2.7-2.3-4.2-.9-1.6-1.9-3.2-3-4.8-.9-1.6-1.7-2.6-2.7-3-.9-.5-2-.7-3.4-.7-2.5.2-5.2.4-8.2.6-3 .2-5.9.6-8.8.9-2.9.4-5.7.8-8.3 1.3-2.6.5-5 1.2-7 1.9-.7.3-1.2.6-1.4 1-.1.2-.2.8.6 2.4.6 1.5 1.4 3.1 2.3 4.8 1 1.8 1.8 3.2 2.4 4.4.9 1.2 2 2 3 2.4 1.1.3 2.1.4 3.2.1 1.1-.2 2.2-.4 3.5-.6 1.3-.2 2.7-.4 4.2-.7l4.5-.7c1.5-.2 2.9-.5 4.3-.6l1.2-.1z"
        fill="#b78c3c"
      />
    </svg>