<?xml version="1.0" encoding="utf-8"?>
<svg version="1.1" xmlns="http://www.w3.org/2000/svg" xmlns:xlink="http://www.w3.org/1999/xlink" x="0px" y="0px"
	 viewBox="0 0 100 100" style="enable-background:new 0 0 100 100;" xml:space="preserve">
	 <path
        d="M63.9 25.6c-.8 4.3-1.6 8.8-2.4 13.6-.8 4.8-1.6 9.7-2.4 14.9-.8 5.1-1.6 10.1-2.3 15.1s-1.4 9.6-2 14.2c-.6 4.5-1.2 8.6-1.6 12.2-.3 1.4-.6 2.4-1.1 2.8-.5.4-1.5.3-2.9-.3-1.3-.5-2.7-1-4-1.4-1.3-.5-2.6-1.2-4-2.2-1-.9-1.7-2-2-3.3-.3-1.3-.4-3-.3-5.2.2-3 .5-7 .9-11.8.5-4.9 1-10.1 1.8-15.7.7-5.6 1.5-11.3 2.3-17 .8-5.8 1.7-11 2.5-15.8-2-1.4-3.3-2.6-3.8-3.5-.5-.9-.4-2.3.3-4.3.8-2.4 1.8-4.7 3-7.1 1.2-2.4 2.3-4.5 3.3-6.2.9-1.6 1.7-2.6 2.5-2.9.7-.3 1.8-.2 3.3.4 1.4.5 2.9 1.2 4.3 2s2.9 1.9 4.3 3.3c1.3 1.2 2.2 2.2 2.5 3.1.3.9.3 2.3-.1 4-.6 3-1.3 6.8-2.1 11.1z"
        fill="#22201c"
      />
      <path
        d="M51.3 99.2c-.6 0-1.4-.2-2.3-.6-1.3-.5-2.6-1-3.9-1.4-1.3-.5-2.7-1.3-4.1-2.3-1.1-1-1.9-2.2-2.2-3.6-.4-1.3-.4-3.1-.3-5.4.2-3 .5-6.9.9-11.9.5-4.9 1.1-10.1 1.8-15.7.7-5.4 1.5-11.1 2.3-17 .8-5.5 1.6-10.7 2.5-15.5-1.9-1.4-3.1-2.5-3.7-3.4-.7-1.1-.6-2.7.3-4.9.9-2.4 1.9-4.8 3-7.2 1.2-2.5 2.3-4.5 3.3-6.3 1-1.7 1.9-2.8 2.7-3.2.9-.4 2.1-.3 3.8.4 1.4.5 2.9 1.2 4.4 2.1 1.5.9 2.9 2 4.4 3.4 1.4 1.2 2.3 2.4 2.7 3.4.4 1.1.3 2.5-.1 4.4-.7 3.1-1.4 6.7-2.2 11.2-.8 4.4-1.6 8.9-2.4 13.6-.8 4.8-1.6 9.7-2.4 14.9-.8 5.1-1.6 10.1-2.3 15-.7 4.9-1.4 9.6-2 14.2-.6 4.6-1.2 8.7-1.6 12.2-.3 1.6-.7 2.6-1.3 3.2-.4.2-.8.4-1.3.4zm1.4-97.3c-.3 0-.5.1-.7.1-.4.2-1.1.8-2.2 2.7-1 1.7-2 3.8-3.3 6.2-1.1 2.3-2.2 4.7-3 7.1-.7 1.8-.8 3.1-.4 3.8.5.8 1.7 1.9 3.7 3.3.2.1.3.4.2.6-.8 4.8-1.7 10.1-2.5 15.8-.9 5.9-1.6 11.6-2.3 17-.6 5.5-1.2 10.8-1.6 15.6-.5 5-.8 8.8-.9 11.8-.2 2.1-.1 3.8.2 5 .3 1.1.9 2.1 1.8 3 1.2.9 2.5 1.6 3.8 2.1 1.3.5 2.6.9 4 1.4 1.7.7 2.2.4 2.3.4.2-.2.6-.7.9-2.4.4-3.5.9-7.6 1.6-12.2.6-4.5 1.3-9.3 2-14.2.7-4.9 1.5-9.9 2.3-15.1.8-5.1 1.6-10.1 2.4-14.9.8-4.7 1.6-9.3 2.4-13.6.8-4.5 1.6-8.1 2.2-11.2.4-1.7.4-2.9.1-3.7-.3-.8-1.1-1.8-2.3-2.9-1.4-1.3-2.8-2.4-4.2-3.2-1.4-.8-2.8-1.5-4.2-2-1.1-.3-1.8-.5-2.3-.5z"
        fill="#b78c3c"
      />
    </svg>