<?xml version="1.0" encoding="utf-8"?>
<svg version="1.1" xmlns="http://www.w3.org/2000/svg" xmlns:xlink="http://www.w3.org/1999/xlink" x="0px" y="0px"
	 viewBox="0 0 100 100" style="enable-background:new 0 0 100 100;" xml:space="preserve">
	 <path
        d="M64.3 51.6c1.2.7 2.4 1.7 3.4 2.9 2.1 2.4 3.7 4.9 4.8 7.6 1.1 2.6 1.7 5.3 1.9 8 .2 2.7 0 5.4-.6 8-.6 2.6-1.5 5.1-2.6 7.3-2.8 5.3-6.1 8.9-9.8 10.8s-7.9 2.9-12.5 2.9c-3.5 0-7.2-.9-11-2.6-3.8-1.8-7.6-5.1-11.4-9.9-2.3-2.8-3.5-4.8-3.4-6.2 0-1.4.6-2.5 1.6-3.3 1.7-1.5 3.6-2.1 5.6-1.9 2.1.3 3.9 1 5.5 2.1 4.7 3.3 8.5 4.8 11.5 4.4 3-.4 5.5-2.2 7.7-5.4 1-1.6 1.7-3.2 2.2-4.8.5-1.6.7-3.1.8-4.4.1-1.4 0-2.6-.3-3.8-.3-1.1-.7-2-1.2-2.6-1.1-1.2-2.2-1.8-3.4-2-1.2-.2-2.8-.1-4.7.3-2.4.5-4.8-.2-7.1-2s-4.3-4.6-5.9-8.1c-1.3-3.1-1-5.1 1.1-6.1 5-2.3 9.3-4.5 12.7-6.8s6.2-4.4 8.2-6.5c2-2 3.3-3.9 3.9-5.5.6-1.6.6-2.9.1-3.9-.4-.8-1-1.1-1.9-1.1-1.2 0-2.6.6-4.2 1.7s-3.2 2.3-4.6 3.4c-1 1-2.2 1.7-3.6 1.9-1.4.3-2.8.3-4.1.1-1.4-.2-2.7-.6-4-1.3-1.3-.6-2.4-1.4-3.3-2.4-1.8-2.1-2-4.3-.6-6.6.8-1.4 1.9-2.9 3.1-4.4 1.2-1.5 2.6-2.9 4.1-4.2 1.4-1.2 3-2.4 4.7-3.4 1.7-1 3.4-1.8 5.2-2.3 1.3-.3 2.6-.6 4.1-.8 1.5-.2 3.1 0 4.8.5 1.7.5 3.4 1.4 5.1 2.8 1.8 1.4 3.5 3.4 5.3 6 1.8 2.9 3.2 5.8 3.9 8.7.8 2.9 1.1 5.6 1.1 8.3-.1 2.6-.5 5.1-1.3 7.3s-1.7 4.1-2.9 5.6c-2.9 3.6-6.9 6.9-11.9 9.9 1.4.5 2.7 1.1 3.9 1.8z"
        fill="#ffdc1a"
      />
    </svg>