<?xml version="1.0" encoding="utf-8"?>
<svg version="1.1" xmlns="http://www.w3.org/2000/svg" xmlns:xlink="http://www.w3.org/1999/xlink" x="0px" y="0px"
	 viewBox="0 0 100 100" style="enable-background:new 0 0 100 100;" xml:space="preserve">
      <g id="ETQNumero11-VERT_svg__print">
        <path
          d="M44.4 25.1c-.8 4.4-1.6 9-2.4 13.8-.8 4.9-1.6 9.9-2.4 15.1-.8 5.2-1.6 10.3-2.3 15.3s-1.4 9.8-2 14.4c-.6 4.6-1.2 8.8-1.6 12.4-.3 1.5-.6 2.4-1.2 2.8-.5.4-1.5.3-3-.3-1.4-.5-2.7-1-4-1.5-1.3-.5-2.7-1.2-4-2.2-1-.9-1.7-2.1-2.1-3.3-.3-1.3-.4-3-.3-5.3.2-3.1.5-7.1 1-12 .5-5 1.1-10.3 1.8-16 .7-5.7 1.5-11.4 2.4-17.3.9-5.8 1.7-11.2 2.6-16.1-2-1.5-3.4-2.6-3.9-3.5-.6-.9-.5-2.4.3-4.4.9-2.4 1.9-4.8 3.1-7.2 1.2-2.4 2.3-4.5 3.3-6.3C30.5 2 31.3 1 32.1.6c.7-.3 1.9-.2 3.4.4 1.4.5 2.9 1.2 4.4 2.1 1.4.9 2.9 2 4.4 3.3 1.4 1.2 2.2 2.3 2.6 3.2.3.9.3 2.3-.1 4.1-.9 3.2-1.6 7-2.4 11.4zm33 0c-.8 4.4-1.6 9-2.4 13.8-.8 4.9-1.6 9.9-2.4 15.1-.8 5.2-1.6 10.3-2.3 15.3-.7 5-1.4 9.8-2 14.4-.6 4.6-1.2 8.8-1.6 12.4-.3 1.5-.6 2.4-1.2 2.8-.5.4-1.5.3-3-.3-1.4-.5-2.7-1-4-1.5-1.3-.5-2.7-1.2-4-2.2-1-.9-1.7-2.1-2.1-3.3-.3-1.3-.4-3-.3-5.3.2-3.1.5-7.1 1-12 .5-5 1.1-10.3 1.8-16 .7-5.7 1.5-11.4 2.4-17.3.9-5.8 1.7-11.2 2.6-16.1-2-1.5-3.4-2.6-3.9-3.5-.6-.9-.5-2.4.3-4.4.9-2.4 1.9-4.8 3.1-7.2 1.2-2.4 2.3-4.5 3.3-6.3C63.6 2 64.4 1 65.1.6c.7-.3 1.9-.2 3.4.4 1.4.5 2.9 1.2 4.4 2.1 1.4.9 2.9 2 4.4 3.3 1.4 1.2 2.2 2.3 2.6 3.2.3.9.3 2.3-.1 4.1-.8 3.2-1.6 7-2.4 11.4z"
          fill="#54a034"
          id="ETQNumero11-VERT_svg__fonce"
        />
      </g>
    </svg>