<?xml version="1.0" encoding="utf-8"?>
<!-- Generator: Adobe Illustrator 25.1.0, SVG Export Plug-In . SVG Version: 6.00 Build 0)  -->
<svg version="1.1" xmlns="http://www.w3.org/2000/svg" xmlns:xlink="http://www.w3.org/1999/xlink" x="0px" y="0px"
	 viewBox="0 0 100 100" style="enable-background:new 0 0 100 100;" xml:space="preserve">
<g id="print">
	<path fill="none" class="st0" d="M34,3.9C34,3.9,34,3.9,34,3.9C34,3.9,34,3.9,34,3.9z"/>
	<path fill="none" class="st0" d="M56.6,5.3C56.6,5.3,56.6,5.3,56.6,5.3c0.3-0.4,0.6-0.6,1-0.9C57.2,4.6,56.9,4.9,56.6,5.3z"/>
	<path fill="none" class="st0" d="M33.3,4.6c0.1-0.1,0.1-0.2,0.2-0.2c0.1-0.2,0.3-0.3,0.4-0.4C33.6,4.1,33.4,4.3,33.3,4.6z"/>
	<path fill="#EFBBBE" class="st1" d="M59.3,3.5C59.3,3.5,59.3,3.5,59.3,3.5C59.3,3.5,59.3,3.5,59.3,3.5z"/>
	<path fill="#545570" class="st2" d="M82,22.8C82,22.8,82,22.8,82,22.8C82,22.8,82,22.8,82,22.8L82,22.8z"/>
	<path fill="none" class="st0" d="M93.5,8.8c0,0,0,0.1,0.1,0.1C93.6,8.9,93.5,8.8,93.5,8.8z"/>
	<path fill="none" class="st0" d="M93.8,11.3c0,0,0-0.1,0-0.1C93.8,11.2,93.8,11.2,93.8,11.3C93.8,11.3,93.8,11.3,93.8,11.3z"/>
	<path fill="none" class="st0" d="M93.8,9.6c0,0.1,0.1,0.3,0.1,0.4C93.9,9.9,93.9,9.7,93.8,9.6z"/>
	<path fill="#241E1F" class="st3" d="M79.5,30.9C79.5,30.9,79.5,30.9,79.5,30.9C79.4,30.9,79.4,30.9,79.5,30.9C79.5,30.9,79.5,30.9,79.5,30.9z"/>
	<path fill="#241E1F" class="st3" d="M73.9,44.8c0.5,1,1,2.5,1.9,2.2c0.9-0.3,1.4-1.6,2-2.6c1.2-2.1,2.1-4.3,2.5-6.6c0.4-2.3,0.3-4.8-0.8-7
		c-0.3,0.3-0.7,0.7-1,1c-1.4,1.3-2.9,2.5-4.5,3.6c-0.9,1-2,1.9-3.2,2.8l0,0.1L73.9,44.8z"/>
	<path fill="#EFF0F1" class="st4" d="M93.8,11.3C93.8,11.3,93.8,11.3,93.8,11.3c-0.9-0.8-2.3-0.5-3.2,0.2c-1,0.7-1.7,1.7-2.8,2.2
		c-1.3,0.6-2.8,0.5-4.2,0.6c-6.9,0.4-12.6,5.6-16.8,11.2c-1.2,1.6-2.4,3.3-3.1,5.2c-0.5,1.5-0.8,3.1-1.4,4.5c0,1-0.2,2.1-0.2,3.1
		c-0.1,1.6,0.1,3.1,0.1,4.7c2.7-1.5,5.3-3.2,8-4.7l0.4-0.2l0.1,0.3c1.2-0.9,2.3-1.8,3.2-2.8c1.6-1.1,3.1-2.3,4.5-3.6
		c0.3-0.3,0.7-0.7,1-1c0,0,0,0,0,0c0,0,0,0,0,0c0,0,0,0,0,0c4.1-4,7.6-8.6,11-13.2C91.9,15.7,93.2,13.3,93.8,11.3
		C93.8,11.3,93.8,11.3,93.8,11.3C93.8,11.3,93.8,11.3,93.8,11.3C93.8,11.3,93.8,11.3,93.8,11.3z"/>
	<path fill="#EFF0F1" class="st4" d="M48.2,43c0.5-1.4,1.3-2.7,2.3-3.8c-5,0.9-9.5,4-13.6,7.2c-1.2,0.9-2.2,1.9-3.4,2.8c-0.2,0.1-0.4,0.1-0.5,0.1
		c-0.5,0-1.1-0.3-1.2-0.8c-0.1-0.3,0-0.6,0-0.9c0-0.9-0.9-1.6-1.8-1.7c-0.9-0.1-1.8,0.3-2.5,0.7c-4,2.1-7.1,5.9-8.9,10.1
		c-1.8,4.2-1.9,12.5-1.2,16.7c1.1,0.8,1.7,0.1,1.7,0.1c0,0,0,0,0-0.1c0,0,0,0,0,0c0,0,0,0,0,0c0,0,0,0,0,0c0.2-2.6,0.8-5.1,1.6-7.4
		c1.3-2.5,3.1-4.5,6.3-7c4.9-3.7,10.4-6.6,16.1-9c0.7-0.3,2.3-0.6,3.2-1.2c0.4-0.1,0.8-0.2,1.3-0.3c0-0.3,0-0.5,0-0.8
		C47.5,46.3,47.6,44.6,48.2,43z"/>
	<path fill="#241E1F" class="st3" d="M56.4,56.4L56.4,56.4l0-0.6L56.4,56.4c1.8-1.8,3.3-3.7,4.3-6c0.5-1.1,0.9-2.3,1.1-3.5c0.3-1.2,0.2-2.4,0.2-3.6
		l0-0.2l0.2-0.1c0,0,0.1,0,0.1-0.1c-0.1-1.6-0.2-3.1-0.1-4.7c0-1,0.3-2.1,0.2-3.1c0.6-1.4,0.9-3,1.4-4.5c0.7-1.9,1.9-3.6,3.1-5.2
		c4.2-5.6,10-10.8,16.8-11.2c1.4-0.1,2.9,0,4.2-0.6c1.1-0.5,1.8-1.5,2.8-2.2c1-0.7,2.4-1,3.2-0.2c0,0,0-0.1,0-0.1
		c0.1-0.2,0.1-0.5,0.2-0.7c0-0.2-0.1-0.3-0.1-0.5c0-0.1,0-0.3-0.1-0.4c-0.1-0.2-0.2-0.5-0.3-0.7c0,0,0-0.1-0.1-0.1
		c-0.2-0.5-0.6-1-0.9-1.3c-0.8-0.9-1.9-1.1-2.9-1.7c-2-1-4-2.3-6-3.2C79.5,0.7,74.8,0.4,70.4,1c-9,1.1-17.6,4.7-25.1,9.7l0,0l0,0
		c-1,0.4-1.9,1.1-2.9,1.7c-1.2,0.6-2.5,0.3-3.6,0.1c-2.3-0.7-4.2-2-6.1-3.2c-3.7-2.5-7.8-5-12.3-4.4c-1,0.2-2.6,0.5-2,1.1
		c0.1,0.3,0.9,0.4,1.3,0.6L21,7.4c1.9,1.3,3.5,3.1,4.8,5c2.5,3.9,3.8,8.6,3.5,13.3l0,0.2L29.1,26C23.2,31.3,18.4,37.9,15,45.1
		c-3.3,7.2-5.1,15.3-4.7,23.3c1.8,8.3-3.9,15.7-3,23.7c0.1,2,0.6,3.9,1.4,5.7c0.2,0.4,0.4,1,0.6,0.9c0.1,0.1,0.3-0.6,0.4-1l0.6-2.9
		c1.2-3.9,3.6-7.4,6.9-9.9l0,0l0,0c2.6-1.2,5.6-1.8,8.4-1.7l4.3,0.1l2.1,0c0.7,0,1.3-0.6,1.1-1.2c-0.6-1.3-1.6-2.3-2.8-3
		c-1.3-0.6-2.7-1-4-1.5c-2.7-0.8-5.5-1.9-7.5-4c0,0,0,0,0,0.1c0,0-0.6,0.7-1.7-0.1c-0.7-4.2-0.7-12.5,1.2-16.7
		c1.8-4.2,4.9-8,8.9-10.1c0.8-0.4,1.7-0.8,2.5-0.7c0.9,0.1,1.8,0.8,1.8,1.7c0,0.3-0.1,0.6,0,0.9c0.1,0.5,0.7,0.8,1.2,0.8
		c0.2,0,0.4-0.1,0.5-0.1c1.1-0.9,2.2-1.9,3.4-2.8c4.1-3.2,8.6-6.4,13.6-7.2c-0.9,1.2-1.8,2.4-2.3,3.8c-0.5,1.6-0.7,3.3-0.7,4.9
		c0,0.3,0,0.5,0,0.8c-0.1,3.4,0,6.8,0.3,10.1c0.1,0.8,0.2,1.6,0.8,2.1c0.9,0.6,2,0,2.9-0.5c2.2-1.5,4.3-3.1,6.1-5.1
		C57.1,55.7,56.8,56,56.4,56.4L56.4,56.4z M60.6,15.4c1.1-1.1,1.6-2.7,2.5-4c1.7-2.7,4.5-4.4,7.6-5c2-0.4,5.6-0.8,7.3,0.8
		c2,1.9-0.3,3.8-1.8,5.1c-4.1,3.5-9.5,5.5-14.8,5.2c-0.6,0-1.3-0.2-1.4-0.8C59.8,16.2,60.3,15.8,60.6,15.4z"/>
	<path fill="#EFF0F1" class="st4" d="M93.8,11.3C93.8,11.3,93.8,11.3,93.8,11.3c-0.9-0.8-2.3-0.5-3.2,0.2c-1,0.7-1.7,1.7-2.8,2.2
		c-1.3,0.6-2.8,0.5-4.2,0.6c-6.9,0.4-12.6,5.6-16.8,11.2c-1.2,1.6-2.4,3.3-3.1,5.2c-0.5,1.5-0.8,3.1-1.4,4.5c0,1-0.2,2.1-0.2,3.1
		c-0.1,1.6,0.1,3.1,0.1,4.7c2.7-1.5,5.3-3.2,8-4.7l0.4-0.2l0.1,0.3c1.2-0.9,2.3-1.8,3.2-2.8c1.6-1.1,3.1-2.3,4.5-3.6
		c0.3-0.3,0.7-0.7,1-1c0,0,0,0,0,0c0,0,0,0,0,0c0,0,0,0,0,0c4.1-4,7.6-8.6,11-13.2C91.9,15.7,93.2,13.3,93.8,11.3
		C93.8,11.3,93.8,11.3,93.8,11.3C93.8,11.3,93.8,11.3,93.8,11.3C93.8,11.3,93.8,11.3,93.8,11.3z"/>
	<path fill="#FFFFFF" class="st5" d="M61.3,17.5c5.3,0.2,10.7-1.7,14.8-5.2c1.5-1.3,3.8-3.2,1.8-5.1c-1.7-1.6-5.3-1.2-7.3-0.8c-3,0.6-5.9,2.4-7.6,5
		c-0.8,1.3-1.4,2.9-2.5,4c-0.4,0.4-0.8,0.8-0.7,1.3C60,17.3,60.7,17.5,61.3,17.5z M68.5,11.2c0.3,0,0.5,0.1,0.5,0.4
		c0.1,0.8,0.8,1.5,1.5,1.6c0.7,0.2,1.6-0.2,2-0.8c0.4-0.6,0.5-1.6,0.1-2.3c-0.1-0.2-0.1-0.5,0.1-0.6c0.2-0.1,0.5-0.1,0.6,0.1
		c0.6,1,0.5,2.3-0.1,3.2c-0.5,0.8-1.4,1.2-2.3,1.2c-0.2,0-0.4,0-0.6-0.1c-1.1-0.3-2-1.2-2.1-2.3C68.1,11.4,68.3,11.2,68.5,11.2z"/>
	<path fill="#12100B" class="st6" d="M70.3,14c0.2,0,0.4,0.1,0.6,0.1c0.9,0,1.8-0.5,2.3-1.2c0.6-0.9,0.7-2.2,0.1-3.2c-0.1-0.2-0.4-0.3-0.6-0.1
		c-0.2,0.1-0.3,0.4-0.1,0.6c0.4,0.7,0.4,1.6-0.1,2.3c-0.5,0.7-1.3,1-2,0.8c-0.7-0.2-1.4-0.9-1.5-1.6c0-0.2-0.2-0.4-0.5-0.4
		c-0.2,0-0.4,0.3-0.4,0.5C68.3,12.8,69.2,13.7,70.3,14z"/>
	<path fill="#EFF0F1" class="st4" d="M48.2,43c0.5-1.4,1.3-2.7,2.3-3.8c-5,0.9-9.5,4-13.6,7.2c-1.2,0.9-2.2,1.9-3.4,2.8c-0.2,0.1-0.4,0.1-0.5,0.1
		c-0.5,0-1.1-0.3-1.2-0.8c-0.1-0.3,0-0.6,0-0.9c0-0.9-0.9-1.6-1.8-1.7c-0.9-0.1-1.8,0.3-2.5,0.7c-4,2.1-7.1,5.9-8.9,10.1
		c-1.8,4.2-1.9,12.5-1.2,16.7c1.1,0.8,1.7,0.1,1.7,0.1c0,0,0,0,0-0.1c0,0,0,0,0,0c0,0,0,0,0,0c0,0,0,0,0,0c0.2-2.6,0.8-5.1,1.6-7.4
		c1.3-2.5,3.1-4.5,6.3-7c4.9-3.7,10.4-6.6,16.1-9c0.7-0.3,2.3-0.6,3.2-1.2c0.4-0.1,0.8-0.2,1.3-0.3c0-0.3,0-0.5,0-0.8
		C47.5,46.3,47.6,44.6,48.2,43z"/>
	<path fill="#241E1F" class="st3" d="M56.4,56.4L56.4,56.4l0-0.6L56.4,56.4c1.8-1.8,3.3-3.7,4.3-6c0.5-1.1,0.9-2.3,1.1-3.5c0.3-1.2,0.2-2.4,0.2-3.6
		l0-0.2l0.2-0.1c0,0,0.1,0,0.1-0.1c-0.1-1.6-0.2-3.1-0.1-4.7c0-1,0.3-2.1,0.2-3.1c0.6-1.4,0.9-3,1.4-4.5c0.7-1.9,1.9-3.6,3.1-5.2
		c4.2-5.6,10-10.8,16.8-11.2c1.4-0.1,2.9,0,4.2-0.6c1.1-0.5,1.8-1.5,2.8-2.2c1-0.7,2.4-1,3.2-0.2c0,0,0-0.1,0-0.1
		c0.1-0.2,0.1-0.5,0.2-0.7c0-0.2-0.1-0.3-0.1-0.5c0-0.1,0-0.3-0.1-0.4c-0.1-0.2-0.2-0.5-0.3-0.7c0,0,0-0.1-0.1-0.1
		c-0.2-0.5-0.6-1-0.9-1.3c-0.8-0.9-1.9-1.1-2.9-1.7c-2-1-4-2.3-6-3.2C79.5,0.7,74.8,0.4,70.4,1c-9,1.1-17.6,4.7-25.1,9.7l0,0l0,0
		c-1,0.4-1.9,1.1-2.9,1.7c-1.2,0.6-2.5,0.3-3.6,0.1c-2.3-0.7-4.2-2-6.1-3.2c-3.7-2.5-7.8-5-12.3-4.4c-1,0.2-2.6,0.5-2,1.1
		c0.1,0.3,0.9,0.4,1.3,0.6L21,7.4c1.9,1.3,3.5,3.1,4.8,5c2.5,3.9,3.8,8.6,3.5,13.3l0,0.2L29.1,26C23.2,31.3,18.4,37.9,15,45.1
		c-3.3,7.2-5.1,15.3-4.7,23.3c1.8,8.3-3.9,15.7-3,23.7c0.1,2,0.6,3.9,1.4,5.7c0.2,0.4,0.4,1,0.6,0.9c0.1,0.1,0.3-0.6,0.4-1l0.6-2.9
		c1.2-3.9,3.6-7.4,6.9-9.9l0,0l0,0c2.6-1.2,5.6-1.8,8.4-1.7l4.3,0.1l2.1,0c0.7,0,1.3-0.6,1.1-1.2c-0.6-1.3-1.6-2.3-2.8-3
		c-1.3-0.6-2.7-1-4-1.5c-2.7-0.8-5.5-1.9-7.5-4c0,0,0,0,0,0.1c0,0-0.6,0.7-1.7-0.1c-0.7-4.2-0.7-12.5,1.2-16.7
		c1.8-4.2,4.9-8,8.9-10.1c0.8-0.4,1.7-0.8,2.5-0.7c0.9,0.1,1.8,0.8,1.8,1.7c0,0.3-0.1,0.6,0,0.9c0.1,0.5,0.7,0.8,1.2,0.8
		c0.2,0,0.4-0.1,0.5-0.1c1.1-0.9,2.2-1.9,3.4-2.8c4.1-3.2,8.6-6.4,13.6-7.2c-0.9,1.2-1.8,2.4-2.3,3.8c-0.5,1.6-0.7,3.3-0.7,4.9
		c0,0.3,0,0.5,0,0.8c-0.1,3.4,0,6.8,0.3,10.1c0.1,0.8,0.2,1.6,0.8,2.1c0.9,0.6,2,0,2.9-0.5c2.2-1.5,4.3-3.1,6.1-5.1
		C57.1,55.7,56.8,56,56.4,56.4L56.4,56.4z M60.6,15.4c1.1-1.1,1.6-2.7,2.5-4c1.7-2.7,4.5-4.4,7.6-5c2-0.4,5.6-0.8,7.3,0.8
		c2,1.9-0.3,3.8-1.8,5.1c-4.1,3.5-9.5,5.5-14.8,5.2c-0.6,0-1.3-0.2-1.4-0.8C59.8,16.2,60.3,15.8,60.6,15.4z"/>
	<path fill="#241E1F" class="st3" d="M90.4,6c0.4,0.2,0.7,0.4,1.1,0.6C91.1,6.3,90.7,6.1,90.4,6z"/>
	<path fill="#241E1F" class="st3" d="M94,10.5c-0.1,0.2-0.1,0.4-0.2,0.6C93.9,11,94,10.8,94,10.5z"/>
	<path fill="#241E1F" class="st3" d="M29,78.3c-1.2-0.5-2.6-0.9-3.8-1.2c0.4,0.1,0.9,0.3,1.3,0.4C27.3,77.8,28.1,78,29,78.3z"/>
	<path fill="#241E1F" class="st3" d="M20.3,74.8c0.2,0.2,0.5,0.3,0.7,0.5C20.7,75.1,20.5,74.9,20.3,74.8z"/>
	<path fill="#241E1F" class="st3" d="M20.2,74.7c-0.4-0.3-0.8-0.7-1.2-1c0,0,0,0,0,0C19.3,74,19.7,74.4,20.2,74.7z"/>
	<path fill="#FFFFFF" class="st5" d="M94,10.5C94,10.5,94,10.5,94,10.5L94,10.5c-0.1-1.2-0.6-2.3-1.4-3.1c-0.3-0.4-0.8-0.7-1.2-0.9
		c-0.4-0.2-0.7-0.4-1.1-0.6c-0.2-0.1-0.4-0.2-0.6-0.3c-2-1.1-3.9-2.3-6-3.3C79.6,0.4,74.8,0,70.3,0.5c-9.1,1-17.8,4.6-25.4,9.6
		c-1.1,0.4-2,1.2-3,1.7c-0.9,0.5-2,0.3-3.1,0c-2.1-0.6-4-2-5.9-3.2C29.2,6.1,25,3.3,20.1,3.9C19.5,4,19,4.2,18.4,4.4
		c-0.3,0.1-0.7,0.2-0.9,0.6c-0.3,0.4-0.1,0.9,0.1,1.2c0.5,0.7,1.1,0.6,1.7,1L20.6,8c1.8,1.3,3.3,3,4.5,4.8c2.4,3.7,3.6,8.2,3.2,12.5
		c-6,5.4-10.9,12-14.2,19.4c-3.3,7.4-5.1,15.6-4.6,23.7c1.8,8.2-3.8,15.4-2.9,23.8c0.2,2,0.6,4.1,1.5,5.9l0.3,0.7
		c0,0.2,0.5,0.7,0.9,0.5c0.9-0.4,0.7-1,0.9-1.5l0.6-3c1.1-3.8,3.5-7.2,6.6-9.6c2.6-1.2,5.3-1.8,8.2-1.7l4.3,0l2.2,0
		c0.7,0,1.7-0.8,1.3-1.6c-0.6-1.4-1.7-2.4-3-3.1c-0.5-0.2-1-0.4-1.6-0.6c-0.8-0.3-1.7-0.5-2.5-0.8c-0.4-0.1-0.9-0.3-1.3-0.4
		c-1.5-0.5-2.9-1-4.1-1.8c-0.2-0.2-0.5-0.3-0.7-0.5c0,0-0.1,0-0.1-0.1c-0.4-0.3-0.8-0.7-1.2-1c0,0,0,0,0,0c0,0,0,0,0,0
		c2,2.1,4.8,3.2,7.5,4c1.3,0.5,2.7,0.9,4,1.5c1.2,0.7,2.3,1.8,2.8,3c0.2,0.6-0.4,1.2-1.1,1.2l-2.1,0l-4.3-0.1
		c-2.8-0.2-5.8,0.4-8.4,1.7l0,0l0,0c-3.3,2.5-5.7,6-6.9,9.9l-0.6,2.9c-0.1,0.4-0.3,1.1-0.4,1c-0.1,0.1-0.3-0.5-0.6-0.9
		c-0.8-1.8-1.3-3.8-1.4-5.7c-0.9-8,4.8-15.4,3-23.7c-0.4-8,1.3-16,4.7-23.3c3.3-7.3,8.2-13.8,14.1-19.2l0.1-0.1l0-0.2
		c0.3-4.7-0.9-9.4-3.5-13.3c-1.3-1.9-2.9-3.7-4.8-5l-1.6-0.9c-0.4-0.2-1.1-0.3-1.3-0.6c-0.6-0.6,1-0.9,2-1.1
		c4.5-0.6,8.6,1.9,12.3,4.4c1.9,1.2,3.8,2.6,6.1,3.2c1.1,0.3,2.4,0.5,3.6-0.1c1.1-0.6,1.9-1.3,2.9-1.7l0,0l0,0
		c7.5-5,16.1-8.5,25.1-9.7c4.5-0.5,9.1-0.3,13.3,1.5c2.1,1,4,2.2,6,3.2c1,0.6,2.1,0.9,2.9,1.7c0.4,0.4,0.7,0.9,0.9,1.3
		c0,0,0,0.1,0.1,0.1c0.1,0.2,0.2,0.4,0.3,0.7c0,0.1,0.1,0.3,0.1,0.4C94,10.1,94,10.3,94,10.5c-0.1,0.2-0.1,0.4-0.2,0.6
		c0,0,0,0.1,0,0.1c0,0,0,0,0,0c0,0,0,0,0,0c0,0,0-0.1,0-0.1C93.9,10.9,94,10.7,94,10.5z"/>
	<path fill="#FFFFFF" class="st5" d="M79.4,30.9C79.4,30.9,79.4,30.9,79.4,30.9c1.1,2.1,1.2,4.6,0.8,7c-0.4,2.3-1.3,4.6-2.5,6.6
		c-0.6,1-1.1,2.3-2,2.6c-0.9,0.3-1.4-1.3-1.9-2.2l-3.1-6.4l0-0.1L70.6,38l-0.4,0.2c-2.7,1.6-5.3,3.2-8,4.7c0,0-0.1,0-0.1,0.1
		l-0.2,0.1l0,0.2c0,1.2,0.1,2.4-0.2,3.6c-0.2,1.2-0.6,2.4-1.1,3.5c-1,2.3-2.5,4.2-4.3,5.9v-0.5l0,0.6l0,0l0,0c0.4-0.3,0.7-0.7,1.1-1
		c1.4-1.4,2.7-2.9,3.5-4.8c0.5-1.1,1-2.3,1.2-3.6c0.3-1.2,0.2-2.4,0.2-3.6c2.6-1.4,5.2-2.9,7.8-4.4c0.9,2.1,2,4.1,3,6.1
		c0.3,0.5,0.5,1.1,0.9,1.6c0.3,0.5,1,1.1,1.8,0.9c1.4-0.6,1.7-1.9,2.3-2.9c1.1-2.1,2.1-4.4,2.4-6.8C81,35.5,80.7,33,79.4,30.9
		C79.5,30.9,79.5,30.9,79.4,30.9C79.4,30.9,79.4,30.9,79.4,30.9z"/>
</g>
<g id="vernish" display="none" class="st7">
	<path display="inline" fill="#A191B2" class="st8" d="M92.6,7.4c-0.3-0.4-0.8-0.7-1.2-0.9c-0.4-0.2-0.7-0.4-1.1-0.6c-0.2-0.1-0.4-0.2-0.6-0.3c-2-1.1-3.9-2.3-6-3.3
		C79.6,0.4,74.8,0,70.3,0.5c-9.1,1-17.8,4.6-25.4,9.6c-1.1,0.4-2,1.2-3,1.7c-0.9,0.5-2,0.3-3.1,0c-2.1-0.6-4-2-5.9-3.2
		C29.2,6.1,25,3.3,20.1,3.9C19.5,4,19,4.2,18.4,4.4c-0.3,0.1-0.7,0.2-0.9,0.6c-0.3,0.4-0.1,0.9,0.1,1.2c0.5,0.7,1.1,0.6,1.7,1
		L20.6,8c1.8,1.3,3.3,3,4.5,4.8c2.4,3.7,3.6,8.2,3.2,12.5c-6,5.4-10.9,12-14.2,19.4c-3.3,7.4-5.1,15.6-4.6,23.7
		c1.8,8.2-3.8,15.4-2.9,23.8c0.2,2,0.6,4.1,1.5,5.9l0.3,0.7c0,0.2,0.5,0.7,0.9,0.5c0.9-0.4,0.7-1,0.9-1.5l0.6-3
		c1.1-3.8,3.5-7.2,6.6-9.6c2.6-1.2,5.3-1.8,8.2-1.7l4.3,0l2.2,0c0.7,0,1.7-0.8,1.3-1.6c-0.6-1.4-1.7-2.4-3-3.1
		c-0.5-0.2-1-0.4-1.6-0.6c-1.2-0.5-2.6-0.9-3.8-1.2c-1.5-0.5-2.9-1-4.1-1.8c-0.2-0.2-0.5-0.3-0.7-0.5c0,0-0.1,0-0.1-0.1
		c-0.4-0.3-0.8-0.7-1.2-1c0.2-2.6,0.8-5.1,1.6-7.4c1.3-2.5,3.1-4.5,6.3-7c4.9-3.7,10.4-6.6,16.1-9c0.7-0.3,2.3-0.6,3.2-1.2
		c0.4-0.1,0.8-0.2,1.3-0.3c-0.1,3.4,0,6.8,0.3,10.1c0.1,0.8,0.2,1.6,0.8,2.1c0.9,0.6,2,0,2.9-0.5c2.2-1.5,4.3-3.1,6.1-5.1
		c1.4-1.4,2.7-2.9,3.5-4.8c0.5-1.1,1-2.3,1.2-3.6c0.3-1.2,0.2-2.4,0.2-3.6c2.6-1.4,5.2-2.9,7.8-4.4c0.9,2.1,2,4.1,3,6.1
		c0.3,0.5,0.5,1.1,0.9,1.6c0.3,0.5,1,1.1,1.8,0.9c1.4-0.6,1.7-1.9,2.3-2.9c1.1-2.1,2.1-4.4,2.4-6.8c0.3-2.4,0-4.9-1.2-7c0,0,0,0,0,0
		c4.1-4,7.6-8.6,11-13.2c1.5-2,2.8-4.4,3.4-6.4c0,0,0,0,0,0c0,0,0-0.1,0-0.1c0.1-0.2,0.1-0.4,0.2-0.6c0,0,0,0,0-0.1l0,0
		C93.9,9.3,93.4,8.2,92.6,7.4z"/>
</g>
</svg>
