<?xml version="1.0" encoding="utf-8"?>
<svg version="1.1" xmlns="http://www.w3.org/2000/svg" xmlns:xlink="http://www.w3.org/1999/xlink" x="0px" y="0px"
	 viewBox="0 0 23 23" style="enable-background:new 0 0 100 100;" xml:space="preserve">
	 <path
      d="M.247 3.937c-.164-.7.276-1.489.959-1.718.682-.228 1.509.137 1.799.795.095-.723.553-1.422 1.237-1.672s1.564.056 1.838.731c.014-.549.442-1.061.981-1.17s1.32.174 1.547.674c.097.214.254.5.254.5.199-.024.178-.308.352-.408.226-.129.456-.261.711-.309.379-.072.778.052 1.093.275s.553.54.746.874c.107-.199.302-.273.518-.339.526-.161 1.112-.16 1.612.069s.896.704.968 1.249c.039.004-.039.008 0 0 .504-.105 1.124-.219 1.567.182.443.402.624 1.068.446 1.638a2.127 2.127 0 0 1 1.234-.113c.334.07.66.232.865.505.381.506.25 1.217.102 1.833.523.113 1.178.194 1.506.616.241.31.307.719.321 1.111.01.296-.021.63-.247.823.027.055.1.081.156.056.393.137.725.186 1.004.494.3.331.403.811.338 1.254-.065.442-.282.851-.554 1.206-.022.029-.044.07-.021.098.024.028.066-.04.03-.035.511-.019.928.254 1.173.703.245.449.25 1.008.066 1.485-.184.477-.545.874-.974 1.153l.227.011c.642.031.922.879.889 1.521s-.546 1.228-1.178 1.344c.56.313.825 1.065.586 1.66s-.951.954-1.572.793c-.235-.061-.449-.185-.657-.31a24.843 24.843 0 0 1-5.099-4.076c-.665-.693-1.319-1.493-1.407-2.449-.085-.933.39-1.84.357-2.776-.036-1.034-.688-1.952-1.453-2.648C10.989 8.13 8.91 7.396 6.905 6.659A166.788 166.788 0 0 1 .348 4.087c.106-.086-.237-.166-.101-.15z"
      fill="#e8514e"
    />
    <g fill="none" stroke="#502e18" strokeWidth="0.175" strokeMiterlimit="10">
      <path d="M2.937 2.741c.21.428.421.858.569 1.311.1.307.17.624.271.931.138.419.332.817.5 1.224.155.374.289.757.422 1.14.455 1.304 2.678 7.15 3.134 8.454M5.853 2.001l1.98 13.8M9.099 1.819c-.092.191-.112.407-.131.617l-.405 4.51-.233 2.577c-.047.518-.366 6.319-.399 6.164M7.832 15.801c1.178.381 7.451 1.968 8.671 2.177 1.764.301 3.522.634 5.273 1" />
      <path d="M7.68 15.668c1.648.141 8.57.362 10.222.305 1.443-.05 2.138-.156 3.582-.114" />
      <path d="M7.571 15.794c2.705-.557 10.758-2.046 13.463-2.603.221-.046.445-.092.648-.192" />
      <path d="M7.832 15.801c1.417-.656 7.819-3.409 9.237-4.065 1.241-.574 2.2-1.048 3.491-1.498M7.832 15.801s4.853-3.376 5.15-3.604l6.01-4.627M7.832 15.801c2-2.204 7.193-8.24 9.264-10.376M7.897 15.727c1.423-2.612 5.233-9.399 6.772-11.945M7.95 15.552c.915-2.831 3.039-10.284 4.08-13.071" />
    </g>
    <path
      d="M22.418 20.436a6.372 6.372 0 0 1-.42-1.397c.332-.517.636-1.058.827-1.642a5.914 5.914 0 0 0-.7-1.298c-.055-.076-.114-.164-.095-.256.011-.055.049-.099.078-.147.089-.146.099-.325.128-.493.055-.317.182-.616.309-.911.017-.04.081-.14.075-.096l-.789-1.217a.578.578 0 0 1-.099-.21.574.574 0 0 1 .014-.206c.096-.511.153-1.069.239-1.582-.284-.136-.535-.332-.783-.525l-.479-.374a.302.302 0 0 1-.07-.068.288.288 0 0 1-.032-.142c-.025-.499-.005-1.045-.029-1.543l-1.123-.631c-.085-.048-.172-.097-.236-.171-.063-.073-.099-.165-.134-.254-.17-.437-.355-.965-.525-1.402-.45-.143-.895-.303-1.333-.478a1.094 1.094 0 0 1-.346-.191c-.213-.196-.242-.514-.335-.789a1.592 1.592 0 0 0-.343-.574c-.016-.017-.033-.042-.02-.061.013-.019-.022.018-.044.013l-1.234-.228a.79.79 0 0 1-.244-.072.803.803 0 0 1-.186-.154c-.37-.372-.78-.661-1.15-1.033l-1.435.024a.677.677 0 0 1-.18-.013c-.046-.012-.088-.033-.13-.054-.458-.233-.855-.445-1.249-.775l-1.558.426c-.057.015-.116.031-.174.023a.446.446 0 0 1-.18-.088 8.479 8.479 0 0 0-.867-.522.453.453 0 0 0-.176-.062.468.468 0 0 0-.226.059c-.459.205-.853.4-1.312.605L4.52 1.634a.393.393 0 0 0-.186-.012.4.4 0 0 0-.157.101l-1.001.888c-.057.05-.115.102-.187.126a.557.557 0 0 1-.244.009l-.974-.105c-.097-.01-.197-.021-.29.009-.124.039-.216.142-.302.24l-.796.915 4.953 8.461c-.058-.284-.131-.561-.275-.807l.355-.454c.193.114.405.195.624.24a5.25 5.25 0 0 0 .513-.601c.269.042.524.299.772.187.092-.042.155-.127.233-.192.077-.065.191-.11.277-.057.061.038.087.112.128.17.103.145.305.186.48.156s.334-.118.498-.186c.03-.012.062-.024.092-.015.027.008.046.031.064.052l.329.398c.151-.077.319-.122.489-.13a.31.31 0 0 1 .168.027c.125.069.125.249.207.365.12.17.368.162.575.146.029-.002.06-.004.086.011.027.015.042.045.055.074l.207.447c.161.046.309.128.47.174a.266.266 0 0 1 .13.064.268.268 0 0 1 .056.134l.077.346c.01.044.02.089.047.125.041.055.111.079.176.1.214.07.472.201.472.201l.025.536c-.017.044-.014.018-.013.065.001.066.054.118.103.162l.241.219c-.015.252-.078.517-.093.769l.483.463-.176.609c.17.143.299.335.368.547-.206.238-.386.371-.497.59l.198.415-.422.684-.206.038 8.32 3.534c.176-.08.319-.217.458-.351.345-.331.556-.697.976-.925.053-.026.035-.105.012-.16z"
      fill="#e8514e"
    />
    <path
      d="M-.006 4.021l7.434 12.245 13.388 5.836s.43-.093.191-.533L7.832 15.801.474 3.738s-.277-.085-.48.283z"
      fill="#4d2b18"
    />
    <path
      d="M5.64 15.368c-.109.1-.023.052-.06.195-.099.386-.193.786-.135 1.181.099.683.649 1.238 1.284 1.507.26.11.541.181.823.168.395-.018.763-.198 1.117-.374-.244-.659-.57-1.385-1.024-1.929-.201-.241-.519-.229-.799-.356-.105-.047-1.156-.438-1.206-.392z"
      fill="#4d2b18"
    />
    <path
      d="M2.937 2.741c.331.68.682 1.363.859 2.101.269.706.589 1.386.847 2.104l.728 2.152c.246.716.476 1.437.693 2.163C5.492 9.858 5.02 8.417 4.48 7.006c-.236-.714-.543-1.414-.794-2.128-.172-.743-.479-1.428-.749-2.137zM5.853 2.001c.287 1.474.48 2.962.724 4.442.182 1.489.413 2.971.551 4.467-.288-1.474-.482-2.961-.725-4.442-.181-1.489-.412-2.971-.55-4.467zM9.099 1.819c-.143.364-.099.764-.136 1.149l-.089 1.16-.18 2.321-.237 2.316c-.061.774-.205 1.54-.171 2.316-.103-.775.001-1.556.055-2.327l.18-2.321.238-2.316c.105-.765.088-1.558.34-2.298zM12.877 17.195c1.462.398 2.962.585 4.454.851 1.482.312 2.974.576 4.445.931-1.502-.208-2.984-.508-4.476-.76-1.473-.325-2.999-.479-4.423-1.022zM12.945 16.007c1.497.054 2.987-.012 4.482-.101 1.496-.038 2.997-.077 4.491.047-1.498.027-2.991.038-4.484.123-1.493.03-3 .13-4.489-.069zM12.919 14.863c1.448-.375 2.914-.658 4.371-.99l2.2-.424c.73-.16 1.474-.243 2.192-.451-.7.274-1.442.399-2.168.565l-2.188.481c-1.47.271-2.929.591-4.407.819zM12.796 13.753c.03.01-.025.05-.035.018-.008-.026.015-.048.033-.061l.125-.065.249-.127.499-.254 1.009-.484 2.018-.966c.681-.305 1.381-.571 2.07-.858.689-.288 1.384-.56 2.082-.819-1.346.658-2.728 1.204-4.078 1.835l-2.043.913-1.022.456-.517.216-.258.108-.128.055c-.019.011-.039.028-.034.05.002.025.058-.005.03-.017zM12.148 12.945c.457-.574 1.077-.977 1.634-1.437l1.707-1.351c1.169-.861 2.307-1.761 3.503-2.587-1.104.945-2.266 1.815-3.397 2.725L13.853 11.6l-.872.652c-.295.209-.59.422-.833.693zM11.228 12.149l2.84-3.443c.981-1.118 1.938-2.265 3.029-3.281-.981 1.12-1.961 2.236-2.895 3.394-.982 1.117-1.918 2.278-2.974 3.33zM10.225 11.521c.675-1.326 1.432-2.607 2.146-3.913.768-1.275 1.492-2.575 2.297-3.826-.676 1.329-1.433 2.608-2.146 3.913-.767 1.274-1.491 2.572-2.297 3.826zM9.096 10.909c.418-1.428.925-2.827 1.385-4.242.518-1.395.99-2.807 1.55-4.185-.418 1.431-.925 2.828-1.385 4.242-.519 1.394-.99 2.804-1.55 4.185z"
      fill="#ab2229"
    />
    <g>
      <path
        d="M5.705 5.203c.095.216.265.405.493.348a.68.68 0 0 0-.32.615c.02.242.202.468.44.522a.527.527 0 0 0 .594-.308c-.103.422.21.898.638.972a.511.511 0 0 0 .307-.031c.257-.123.287-.471.28-.756.137.109.328.118.502.1.189-.02.379-.069.532-.182s.262-.296.247-.486a.727.727 0 0 0-.134-.333c-.048-.072-.105-.143-.182-.181s-.182-.037-.242.025a.828.828 0 0 0 .252-.685.829.829 0 0 0-.397-.612.656.656 0 0 0-.577-.058c-.184.078-.319.28-.289.477a.675.675 0 0 0-.305-.632c-.2-.122-.567.013-.757.154-.176.132-.103.544-.103.544S6.283 4.46 6 4.602c-.23.115-.4.363-.295.601z"
        fill="#f9cee0"
      />
      <path
        d="M7.385 5.211c-.203-.041-.417.113-.466.314a.52.52 0 0 0 .225.538.69.69 0 0 0 .596.063c.229-.077.427-.28.444-.521.018-.241-.194-.49-.435-.465-.106.011-.23.063-.306-.012"
        fill="#fff"
      />
    </g>
    <g>
      <path
        d="M13.261 8.776c.13.294.361.551.673.474a.927.927 0 0 0-.437.839.81.81 0 0 0 .599.711c.323.074.692-.109.81-.419-.139.575.286 1.223.87 1.324.14.024.29.019.418-.042.35-.168.391-.642.382-1.03.187.148.446.161.684.136.257-.027.517-.095.725-.248.208-.153.357-.404.337-.662a.983.983 0 0 0-.182-.454.69.69 0 0 0-.248-.247c-.106-.052-.247-.05-.33.034a1.13 1.13 0 0 0 .343-.933 1.128 1.128 0 0 0-.541-.834c-.235-.138-.534-.184-.785-.078s-.434.381-.393.65a.917.917 0 0 0-.416-.861c-.273-.167-.773.018-1.031.21-.24.179-.142.741-.142.741s-.546-.321-.932-.129c-.315.155-.547.494-.404.818z"
        fill="#f9cee0"
      />
      <path
        d="M15.55 8.786c-.277-.055-.568.155-.635.429s.073.576.308.733c.235.157.545.176.813.086.312-.106.582-.381.605-.71.023-.329-.266-.668-.594-.633-.144.015-.314.087-.417-.016"
        fill="#fff"
      />
    </g>
    <g>
      <path
        d="M16.444 16.234c.072.163.2.306.374.263a.516.516 0 0 0-.243.466.448.448 0 0 0 .333.395.399.399 0 0 0 .45-.233.627.627 0 0 0 .483.735.39.39 0 0 0 .232-.023c.195-.093.217-.357.212-.572.104.082.248.089.38.075a.82.82 0 0 0 .403-.138.432.432 0 0 0 .187-.368.538.538 0 0 0-.101-.252c-.036-.055-.079-.108-.138-.137s-.137-.028-.183.019a.63.63 0 0 0 .191-.519.627.627 0 0 0-.301-.464.495.495 0 0 0-.436-.043c-.14.059-.241.211-.219.361a.512.512 0 0 0-.231-.479c-.152-.093-.429.01-.573.117-.133.099-.079.412-.079.412s-.304-.179-.518-.071c-.174.088-.302.276-.223.456z"
        fill="#f9cee0"
      />
      <path
        d="M17.716 16.24c-.154-.031-.316.086-.353.238-.037.152.041.32.171.407s.303.098.452.048c.174-.059.324-.212.336-.395.013-.183-.148-.371-.33-.352-.08.008-.174.048-.231-.009"
        fill="#fff"
      />
    </g>
  </svg>