<?xml version="1.0" encoding="utf-8"?>
<svg version="1.1" xmlns="http://www.w3.org/2000/svg" xmlns:xlink="http://www.w3.org/1999/xlink" x="0px" y="0px"
	 viewBox="0 0 23 23" style="enable-background:new 0 0 100 100;" xml:space="preserve">
	 <path
      d="M17.885 2.896c.315-.23.711-.325 1.1-.349.3-.019.604 0 .898-.062.294-.063.588-.226.709-.501.214.453.289.964.255 1.463-.02.292-.077.584-.197.851a1.954 1.954 0 0 1-1.493 1.116 1.958 1.958 0 0 1-1.479-.427c-.229-.187-.446-.422-.427-.734.012-.194.041-.404.106-.588.106-.297.271-.58.528-.769z"
      fill="#cf8c53"
    />
    <path
      d="M14.846 3.688a1.72 1.72 0 0 0 .068-1.172 1.727 1.727 0 0 0-.706-.938c-.363-.234-.806-.325-1.163-.568A1.62 1.62 0 0 1 12.373 0c-.336.29-.675.595-.873.993-.124.249-.186.523-.241.795-.088.431-.161.884-.034 1.305.127.422.442.761.774 1.051.296.257.632.496 1.021.548.337.046.685-.056.97-.242.286-.185.514-.449.698-.735.077-.12.154-.251.281-.317"
      fill="#f0bb81"
    />
    <path
      d="M13.708 3.572c.046-.007.097-.013.129-.047a.187.187 0 0 0 .037-.068c.053-.141.1-.29.088-.44-.018-.225-.163-.42-.329-.572-.278-.256-.623-.427-.928-.65s-.586-.526-.639-.9a2.741 2.741 0 0 0-.153 2.378c.109.262.408.792.758.768.154-.011.304-.192.436-.265.186-.104.39-.174.601-.204z"
      fill="#fff"
    />
    <path
      d="M15.448 2.631c.815-.163 1.661.161 2.336.632.719.502 1.322 1.207 1.514 2.044.052.226.073.458.063.689-.026.594-.257 1.186-.147 1.771.024.129.067.258.15.362s.213.179.348.174c.023.019.01.045.011.074l.017.884a2.704 2.704 0 0 1-2.541.801c-.35-.079-.686-.23-1.045-.245a2.177 2.177 0 0 0-.773.134c-.409.138-.831.376-.959.775-.215-.109-.394-.053-.635-.083-.264-.033-.972-.254-1.099-.48.154-.137.459-.403.533-.592.13-.332.13-.332-.059-.791a3.155 3.155 0 0 0-.533-.86c-.547-.657-.82-1.537-.668-2.368.093-.509.336-.983.628-1.416.448-.666 1.072-1.288 1.878-1.443a2.48 2.48 0 0 1 .544-.039c.171.006.269.011.437-.023z"
      fill="#f0bb81"
    />
    <path
      d="M14.483 10.587c-.092-.072-.068-.309-.197-.323.164-.685.366-.648.317-.969-.049-.321-.167-.633-.227-.952a2.643 2.643 0 0 1 .024-1.081c.053-.226.14-.456.333-.631a1.49 1.49 0 0 1 .532-.287 2.528 2.528 0 0 1 1.17-.111c.391.06.758.231.985.486.23.26.303.581.425.882.122.302.298.59.506.863.122.16.263.322.472.414.273.121.608.103.921.082a.26.26 0 0 1 .032.249.513.513 0 0 1-.123.159c-.418.402-1.079.734-1.744.753-.382.011-.77.008-1.133-.144-.351-.147-.756-.121-1.13-.06-.376.06-1.01.398-1.163.67z"
      fill="#fff"
    />
    <path
      d="M20.238 8.787a.536.536 0 0 1-.178.404c-.063.056-.147.098-.23.08a.293.293 0 0 1-.107-.054c-.237-.181-.309-.599-.099-.83.261-.288.61.123.614.4z"
      fill="#28241f"
    />
    <path
      d="M16.957 7.84a.715.715 0 0 0-.717-.639.716.716 0 0 0-.659.699"
      fill="none"
      stroke="#45403d"
      strokeWidth="0.309"
      strokeLinecap="round"
      strokeLinejoin="round"
      strokeMiterlimit="10"
    />
    <path
      d="M8.072 16.795c-.115.075-.24.159-.281.29-.06.197.095.387.235.538a10.648 10.648 0 0 1 1.97 3.043 7.825 7.825 0 0 1-1.068.325c-.052.012-.109.022-.157-.002-.043-.022-.068-.068-.09-.11L6.461 16.6a.473.473 0 0 1-.073-.234c.006-.134.121-.234.224-.32a8.006 8.006 0 0 0 1.462-1.597c.209-.302.398-.62.646-.891.247-.271.565-.498.927-.554 1.109-.172 1.262 1.136.711 1.818-.605.75-1.485 1.45-2.286 1.973zM14.047 11.79c-.112 1.883.28 3.864 1.016 5.588.392.917.894 1.777 1.339 2.667.021.042.043.089.033.135-.012.059-.069.094-.121.119a2.524 2.524 0 0 1-1.269.246.262.262 0 0 1-.111-.026c-.048-.028-.075-.082-.1-.133-.577-1.196-.948-2.487-1.315-3.771-.388-1.357-.459-3.491-.68-4.888-.044-.279-.389.172-.21-.036.153-.178.403-.208.631-.226.182-.014.384-.022.526.1.101.087.154.226.26.305.04.03 0-.107-.027-.15-.372-.609-.607-.888-.13-.034"
      fill="#cf8c53"
    />
    <path
      d="M14.453 19.55c.208.126.455.152.693.174.204.019.419.037.606-.051.075-.035.145-.089.183-.166s.038-.179-.015-.245c.066.122.133.203.22.309.055.067.114.131.161.205.082.127.126.28.221.397a.022.022 0 0 1-.027-.006c-.056.19-.211.304-.388.37-.288.107-.593.185-.898.155-.114-.011-.234-.043-.31-.133-.046-.055-.038-.109-.074-.171-.152-.262-.317-.538-.372-.838z"
      fill="#28241f"
    />
    <path
      d="M4.919 12.631a2.538 2.538 0 0 1-.242-.624 2.118 2.118 0 0 1-.022-.595 3.16 3.16 0 0 1 .319-1.197c.191-.37.485-.684.853-.895a3.247 3.247 0 0 1 2.576-.263c.455.148.871.397 1.334.519a2.793 2.793 0 0 0 1.981-.24c.496-.26.9-.664 1.19-1.135.003-.032.008-.065.008-.097l.03.032c.046-.078.096-.154.135-.235.007.135-.018.233-.014.364.548.599.648.891 1.384 1.26-.197.16-.07.51-.197.727-.138.235.008.554-.029.822l-.152 1.117c-.074.543-.171 1.132-.585 1.503a2.425 2.425 0 0 1-.342.242c-.163.102-.36.175-.479.324-.152.19-.396.284-.629.365-.813.282-1.663.508-2.525.482-.19-.006-.383-.024-.57.014-.074.015-.146.037-.218.058-.197.192-.41.372-.628.54a6.393 6.393 0 0 1-1.073.691c-.299.146-.622.26-.874.473v.012c.054.06.115.214.183.285.996 1.649 1.654 3.564 2.232 5.288.043.127.055.294-.057.373-.063.045-.147.044-.225.041l-.837-.028c-.235-.008-.516-.042-.621-.247-.018-.035-.029-.074-.041-.112-.287-.978-.584-1.952-.882-2.927-.122-.399-.244-.799-.391-1.19a9.936 9.936 0 0 0-.459-1.041 2.505 2.505 0 0 1-.249-.68.53.53 0 0 1 .13-.472c-.035.006-.027-.052-.003-.077.157-.167.33-.322.458-.511.297-.44.309-1.013.173-1.521s-.404-.973-.642-1.445z"
      fill="#f0bb81"
    />
    <path
      d="M13.012 13.689a12.027 12.027 0 0 0 .706 5.75c.372.969.867 1.885 1.299 2.829.02.045.041.094.028.141-.017.06-.081.093-.14.116a2.907 2.907 0 0 1-1.4.181.286.286 0 0 1-.12-.033c-.05-.031-.077-.089-.101-.143-.557-1.267-.883-2.62-1.206-3.966-.341-1.422-.683-2.849-.839-4.303-.031-.29-.04-.624.168-.828.178-.174.453-.191.702-.197.199-.004.42-.001.568.133.105.095.154.242.265.329.042.033.093.058.127.099s.046.11.006.146M5.697 10.216c.249-.307.355-.708.383-1.103a1.956 1.956 0 0 0-.063-.711c-.138-.454-.498-.808-.887-1.081-.388-.274-.816-.489-1.187-.786-.371-.297-.691-.7-.745-1.172a.449.449 0 0 0-.194.146c-.327.368-.561.824-.645 1.31s-.015 1 .214 1.437c.092.174.216.342.393.43a.933.933 0 0 1-.663-.055c-.018.145.053.285.134.407.381.58.992.98 1.642 1.223.305.114.63.198.955.174s.653-.17.838-.439"
      fill="#f0bb81"
    />
    <path
      d="M13.008 13.006a3.42 3.42 0 0 0 .679-.866c.396-.734.552-1.628.71-2.447.19.096.153.225.366.24-.309.461-.36 1.039-.442 1.588-.171 1.142-.553 2.147-1.368 2.965.054-.444.072-.733.025-1.178-.011-.102-.022-.213.03-.302M9.98 14.11c-.238-.013-.528.073-.74-.013-.222.558-.405 1-.923 1.422l1.371-.119c.469-.041.961-.088 1.343-.305.066-.037.222-.075.259-.131.036-.056.03-.202.009-.261-.151-.416-.039-.742-.039-.742-.291.075-.532.138-.68.154-.202.019-.396.006-.6-.005z"
      fill="#fff"
    />
    <path
      d="M9.56 11.357c-.075.077-.194.08-.3.097-.07.011-.139.03-.21.026a.5.5 0 0 1-.214-.072c-.149-.081-.359-.196-.263-.387a.668.668 0 0 1 .404-.29c.259-.045.869.334.583.626zM10.233 10.324c.108-.01.219.02.308.081.014.01.029.022.033.038.007.026-.012.051-.03.07-.062.065-.139.128-.229.129a.387.387 0 0 1-.164-.047c-.055-.025-.116-.058-.132-.116-.018-.063.027-.131.086-.16a.433.433 0 0 1 .193-.03s.017 0 .022.006c.005.006.002.018.002.018M7.043 9.567c.138-.025.281-.02.418.011.146.033.291.099.379.219.088.12.101.303-.001.412a.482.482 0 0 1-.233.117 3.334 3.334 0 0 1-.385.082c-.124.019-.255.029-.37-.02a.54.54 0 0 1-.166-.118.388.388 0 0 1-.126-.224c-.015-.148.106-.277.237-.35a.906.906 0 0 1 .619-.093M8.806 10.029a.284.284 0 0 1 .255-.017c.08.038.133.134.109.219-.029.102-.146.149-.249.172a.503.503 0 0 1-.305-.008c-.095-.041-.168-.148-.138-.247.031-.101.149-.149.255-.153a.586.586 0 0 1 .276.055c.006.003.014.007.001.018M7.374 10.778a.395.395 0 0 1 .248.041c.058.032.113.089.105.155-.006.051-.048.091-.092.118a.5.5 0 0 1-.231.063c-.087.005-.186-.011-.234-.084a.172.172 0 0 1-.008-.162.244.244 0 0 1 .118-.117c.041-.021.091-.032.132-.011"
      fill="#c07044"
    />
    <path
      d="M12.919 21.645c.219.142.487.183.746.219.222.032.455.062.664-.018a.408.408 0 0 0 .21-.161c.046-.077.052-.182-.002-.254.065.13.133.217.221.332.056.073.116.142.163.221.081.136.121.296.217.422a.024.024 0 0 1-.029-.007c-.072.193-.249.302-.447.36-.321.094-.659.157-.99.108-.123-.018-.253-.058-.331-.156-.047-.059-.035-.115-.07-.181-.147-.278-.311-.572-.352-.885zM6.539 21.676c.202.165.511.208.764.273.217.056.446.111.662.054a.411.411 0 0 0 .226-.137c.054-.072.113-.218.067-.296.05.136.112.221.174.376.034.085.074.173.108.258.179.454.147.442.142.432-.093.184-.28.273-.483.309-.33.058-.672.085-.996 0-.121-.032-.245-.085-.312-.191-.04-.064-.061-.128-.089-.198a6.013 6.013 0 0 1-.263-.88zM8.276 20.097c.18.119.339.08.553.112.183.027.375.054.548-.011a.341.341 0 0 0 .174-.131c.039-.063.074-.189.03-.248.053.107.11.172.174.294.035.067.075.136.11.203.185.357.158.35.153.343-.061.159-.207.248-.37.294-.265.076-.544.126-.817.084-.102-.016-.208-.049-.272-.13-.038-.049-.061-.1-.09-.155-.121-.232-.098-.388-.193-.655z"
      fill="#28241f"
    />
    <path
      d="M9.51 12.895a3.11 3.11 0 0 1-.153 1.516c-.194.491-.594.878-1.039 1.108.376-.344.661-.742.83-1.191.186-.445.233-.939.362-1.433z"
      fill="#b3734a"
    />
    <path
      d="M2.794 5.803a.954.954 0 0 0-.178.296 1.086 1.086 0 0 0-.07.342c-.017.518.031 1.032.305 1.471.279.447.739.757 1.23.947-.15.095-.321.157-.497.182.199.169.411.322.635.455.329.196.707.355 1.085.298a1.61 1.61 0 0 0-.459.635 1.292 1.292 0 0 1-.462-.068c-.423-.146-.868-.326-1.236-.592-.368-.265-.864-.757-.844-1.138.201.081.444.086.635.042.013-.004.019.034.022.021s-.011-.029-.022-.022c-.363-.279-.605-.763-.635-1.22s.06-.833.243-1.283c.045-.111.142-.309.248-.366zM14.348 9.982l.045-.26c.024-.14.049-.28.062-.421.015-.16.016-.32.003-.48-.02-.241-.072-.48-.071-.722 0-.061.004-.123.028-.179.024-.056.071-.105.13-.117.077-.015.152.034.205.091a.92.92 0 0 1 .18.32c.088.243.132.502.128.761a.707.707 0 0 1-.061.312c-.036.071-.091.131-.136.196-.066.094-.114.202-.191.287-.042.046-.093.085-.138.129-.09.089-.156.199-.221.308l.063-.347"
      fill="#fff"
    />
  </svg>