<?xml version="1.0" encoding="utf-8"?>
<svg version="1.1" xmlns="http://www.w3.org/2000/svg" xmlns:xlink="http://www.w3.org/1999/xlink" x="0px" y="0px"
	 viewBox="0 0 100 100" style="enable-background:new 0 0 100 100;" xml:space="preserve">
      <g id="FeuS1-C_svg__clair">
        <path
          fill="#b9d5bc"
          className="FeuS1-C_svg__st0"
          d="M80 89.3c1.3-1.1 2.9-1.8 4.5-2.4-.7-2-2.8-3.1-4.8-3.7-2-.6-4.1-.7-6.2-.9C55.3 80.5 37.2 68.8 19 69.7a14.7 14.7 0 00-3.1 8.1c0 .5 0 1 .2 1.4.4.7 1.2 1 2 1.3 10.4 3 20.7 5.9 31.1 8.9 5.1 1.5 10.2 2.9 15.3 4.4 2.5.7 5.1 1.5 7.6 2.2 1.1.3 2.8.5 3.8 1.1.5.3.8 1.9 1.5 1.6.3-.1.4-.5.4-.8.1-1.3-.3-2.7-.2-4 0-2 1.1-3.5 2.4-4.6z"
        />
        <path
          fill="#b9d5bc"
          className="FeuS1-C_svg__st0"
          d="M88.9 89.4c-.1-.4-.2-.8-.4-1-.3-.2-.6-.3-1-.3-2.4-.1-6.1 1.2-7.3 3.4-.7 1.4-.4 3.1-.1 4.6.3 1.4.7 3.1 2 3.7 1.7.8 3.6-.5 4.7-2 1.8-2.3 2.6-5.4 2.1-8.4zM16.1 87.5c-3.3.3-3.1 1.7-3.2 4.7-.1 1.5-.1 3 .3 4.5.4 1.4 1.4 2.8 2.8 3.3 1.5.5 3.3-.1 4.5-1.2 1.2-1.1 1.9-2.6 2.5-4.1.3-.8.6-1.6.6-2.4 0-.9-.5-1.7-1.1-2.4-1.7-2-4.1-2.6-6.4-2.4z"
        />
        <path
          fill="#b9d5bc"
          className="FeuS1-C_svg__st0"
          d="M41.4 89.5c-4.2-.6-8.4-2-12.2-3.9-.9-.5-1.8-1-2.8-1.2-1.9-.5-5.1.2-6.5 1.6 1.5 1.4 3.6 1.6 4.6 3.7 1 2 .8 4.4.2 6.6 1.3.2 2.6-.4 3.8-.9 4.6-2 9.5-3.6 14.5-4.5.2-.9-.8-1.3-1.6-1.4zM58.3 77.1c.6.4 1.3.5 1.9.6 3.7.7 7.2 2.4 10.9 2.8 3.3.4 6.6-.2 9.8-1.1 2.5-.7 4.9-1.3 7.4-2 .1-2.2-.1-4.5-.7-6.6-.2-.7-.5-1.5-1.1-2-1.3-1.1-3.2-.1-4.8.4-2.3.7-4.7.6-7.1.7-4.8.2-12.4 1-16.5 3.6-1.5.9-1.5 2.5.2 3.6z"
        />
        <path
          d="M30.5 65.6c1.9 1.3 10.5 6.8 12.9 5.3 1-.7-.1-3.9 0-5.3.1-2.5.9-4.9 1.9-7.2 1.8-4.1 4.2-8.2 4.3-12.6-.7 4.8 1.1 9.8 4.7 13 1.5 1.3 3.3 2.4 3.9 4.3.9 3-1.9 6-1.7 9.1 7-2.2 12.6-7.9 15.3-14.8 2.7-6.8 2.6-14.6.3-21.5-1.2-3.6-3.1-7.2-6.5-8.9-.4-.2-.9-.4-1.4-.3-2 .3-1.8 4.5-3.9 4.3-1.1-1.8-1.3-4-1.7-6.1-1.1-6.4-3.6-12.6-7.2-18C49.3 3.8 46.6.8 43 .1c1 6.8 1.3 14.1-1.8 20.3-.4.7-.9 1.5-1.7 1.6-.9.1-1.7-.8-2.2-1.6-1-1.7-1.7-3.5-2.2-5.4-4.9 4.7-6.8 12.3-4.5 18.7.8 2.2 2 4.3 2.7 6.5.7 2.2.7 4.9-.7 6.7-2.3-2.6-4.1-5.5-5.5-8.7-.8 2.9-1.7 5.8-2.5 8.7-.6 2.1-1.2 4.3-1.2 6.5-.1 4.9 3.1 9.4 7.1 12.2zm7.1-10.9c.4-1.9 1.5-3.4 2.7-4.7 2.4-2.4 4.8-4.6 6.5-7.6 1.8-2.8 2.8-6.1 3.3-9.4l.5-3.1.7 3.1c.7 3.1 1.4 6.3 2.4 9.3 1 3.1 1.7 6.1 4.2 8 1.1 1.1 2.6 2.1 3.4 3.8.7 1.6 1 3.2 1.2 4.9.4 3.2.7 6.6-.5 9.7l-.2-.1c.8-3.1.1-6.4-.4-9.5-.3-1.5-.8-3.1-1.4-4.4-.6-1.2-2-2.1-3.2-3.1-1.3-1-2.5-2.5-3.2-4.1-.7-1.6-1.2-3.1-1.6-4.7-.6-2.4-1.1-4.8-1.4-7.3-.8 2.5-1.8 4.8-3 7.1-1.6 3-3.5 5.9-5.9 8.3-1 1.2-2.1 2.5-2.4 3.9-.3 1.5-.3 3.2-.2 4.8.2 3.3.6 6.6 1.5 9.9l-.2.1c-1.4-3.1-2.1-6.5-2.6-9.8-.4-1.5-.5-3.3-.2-5.1z"
          fill="#f8cb0e"
        />
      </g>
    </svg>