<?xml version="1.0" encoding="utf-8"?>
<svg version="1.1" xmlns="http://www.w3.org/2000/svg" xmlns:xlink="http://www.w3.org/1999/xlink" x="0px" y="0px"
	 viewBox="0 0 100 100" style="enable-background:new 0 0 100 100;" xml:space="preserve">
      <g id="FoulardS1-C_svg__clair">
        <path
          d="M50.4 17.5c-.2-.1-.4-.2-.6-.4-1.1-1.1-2.2-2.1-3.4-3-.8-.6-1.7-1.1-2.5-1.6 1.1-2 2.8-3.2 4.6-3.8-.2-.3.1-.4.5-.5.4-.1.8-.2 1.2-.2.8 0 1.5.1 2.2.5l-.1.1c1.3.3 2.6.8 3.8 1.8.2.2.4.4.4.7-1.1.4-1.8 1.1-2.6 2-.9 1.1-1.4 2.4-2.2 3.6-.3.5-.8 1-1.3.8z"
          fill="none"
        />
        <path
          className="FoulardS1-C_svg__st1" fill="#f8cb0e"
          d="M65.8 15.8l-1.2 1.6c-.3.4-.8 1.1-1.6 1.3l-.3.1c.9 3.6.9 7.4.4 11.1-.1.7-.2 1.5-.3 2.2.3-.3.6-.6.9-.8.2-.1.4-.3.6-.4 1.9-1.6 3.5-3.4 4.8-5.5l.5-.7c.2-4.4-.2-8.9-1.6-13-.1.4-.1.7-.3 1.1-.5 1-1.2 2.1-1.9 3zM32.8 33.1c.2.2.9.6 2.4 1.1.2.1.3.1.4.2.4.2.9.3 1.3.5.5.2 1.1.4 1.6.6l.2.1.1.1c-.6-1.3-1.1-2.7-1.4-4.1-.4-1.6-.5-3.3-.5-5-.2 0-.5-.2-.8-.5-.3-.3-.7-.5-1-.8-.2-.1-.4-.3-.7-.5-1.4-1.1-2.4-2.8-3-5.4 0 .2-.1.4-.1.6-.4 4.4.2 8.9 1.3 13.2h.2c.1 0 0-.1 0-.1zM48 57.9c-.3-1.8-.3-3.6-1.2-5.3l-1.5-.3c-.4-.1-.9-.2-1.3-.2l-2.6-.3h-.2c.7 1 1.4 2.1 2 3.1.7 1.2 1.2 2.6 1.7 3.9.2.6.4 1.5.8 2 0 .7 2.1.7 2.5.7 1.2 0 .6-.6.2-1.4-.1-.7-.2-1.5-.4-2.2zM37.9 19.7c.1.1.2.1.2.2.5-1.6 1.2-3.2 2-4.7.4-.8.9-1.6 1.4-2.4l-.1-.1H41c0-.3-.7-1.5-1-2.1-.2-.4-.4-.7-.4-.8-.5-1.3-.8-2.3-.9-3.4v-.2c0-.3-.1-.7-.1-1-1.3 1-2.6 2-3.6 3.6-.6 1.1-1.2 2.1-1.6 3.3l.1.3c.8 2.8 2.3 5.3 4.4 7.3zM39.6 46.3c.5.1.9.1 1.3.2.7.2 1.5.3 2.2.5.2.1.4.1.6.1.4 0 .8.1 1.2.3-.6-1.3-1.2-2.7-1.9-3.9-.4-.8-.9-1.6-1.3-2.4h-.1c-2.1-.3-4.2-.7-6.3-1.1-.2 0-.4-.1-.7-.2.8 2.2 1.8 4.4 3 6.4v-.1c.6.1 1.3.1 2 .2zM60.4 49.3c-1.3.1-2.7.2-3.6 1l-.1-.2c-1.7 3.7-3.2 7.4-4.4 11.3 1.1 0 2.2 0 3.3.1.2 0 .3 0 .5-.1.1 0 .2-.1.3-.2.8-.9 1.1-2.1 1.3-3.2.2-1.5.2-2.8.9-4.1 1-1.8 2.3-3.3 3.6-5-.6.3-1.2.3-1.8.4zM66.4 35c-1.5 1-3.1 1.7-4.7 2.3l-.1-.1c-.4 1.6-.9 3.1-1.5 4.6-.4 1.1-.9 2.2-1.4 3.3.1 0 .1-.1.2-.1.9-.3 1.8-.6 2.6-.8 1.2-.3 2.4-.7 3.5-1.2l.5-.2c1.4-3.2 2.3-6.5 2.8-10-.3.9-1 1.6-1.9 2.2zM61.4 4.7c-.2.6-.4 1.2-.6 1.9-.1.2-.2.4-.3.7-.4 1.2-.9 2.6-1.8 3.1-.1.1-.2.1-.4.1H58c1.1 1 2 2.3 2.7 3.6l.1-.1c.9-1.1 1.6-2.2 2.2-3.5.3-.6.4-1.4.5-2s.2-1.4.5-2.1l.1-.4.4.1c.2 0 .5.2.8.4-.9-1.2-2.1-2.2-3.4-3 0 .1-.1.2-.1.3-.1.1-.2.5-.4.9zM51.5 88.5c-.1 1.5-.3 3.1-.6 4.6.1-1.5.1-3.1.2-4.6l-.1-.2-.2-.3c.1-.1.1-.9.1-2.1-.3-.2-.5-.4-.7-.6l-.2-.2c-.6-.5-1.3-1-2-1.4l-1.8-1.1c-.1 4.8-.1 9.6.1 14.3 0 .8.1 1.6.5 2.3.4.7 1.2 1.1 1.9.8.7-.3 1-1.1 1.2-1.9.3-1.3.7-2.6 1-3.9.3 1.8 1 4 2.8 4 1.6 0 2.3-2 2.6-3.6.5-3.6.7-7.1.6-10.6l-.1.1c-1.7 1.6-3.4 3.1-5.3 4.4zM51.1 80.2c0-.9-.1-1.8-.1-2.7-.1-1.7-.2-3.5-.4-5.2.4 1.7.6 3.4.8 5.2.1 1.1.2 2.2.2 3.4.1.2.1.5.1.7v.2c1.5-1.7 3-3.5 4.2-5.4l.5-.8c0-.5-.1-1-.1-1.5-1.6-.2-3.3-.8-4.8-1.5-1.7-.8-3.4-1.7-5.2-2.5-.1 2-.1 4-.2 5.9l.3.2c1.7 1.3 3.2 2.6 4.7 4z"
        />
        <path
          fill="#fff"
          className="FoulardS1-C_svg__st2"
          d="M56.5 11c0-.3-.2-.5-.4-.7-1.2-.9-2.5-1.5-3.8-1.8-.9.6-1.7 1.4-2.2 2.4-.4-.8-1-1.5-1.6-2.1 0-.1-.1-.1-.1-.1-1.9.5-3.5 1.8-4.6 3.8.9.5 1.7 1 2.5 1.6 1.2.9 2.4 1.9 3.4 3 .2.2.3.3.6.4.6.2 1.1-.3 1.4-.8.8-1.2 1.3-2.5 2.2-3.6.8-1 1.5-1.7 2.6-2.1zM51.1 88.5c0 1.5-.1 3.1-.2 4.6.3-1.5.4-3.1.6-4.6l-.2.2-.2-.2zM51.6 80.8c0-1.1-.1-2.2-.2-3.3-.2-1.7-.4-3.5-.8-5.2.1 1.7.3 3.5.4 5.2 0 .9.1 1.8.1 2.7.2.1.4.3.5.6zM39.6 6v.2c.1 1 .4 2 .9 3.2 0 .1.2.4.4.7.3.7.6 1.2.7 1.5l1.8-2.4c-1.1-1.9-1.7-4.1-1.7-6.4-.2.2-.4.3-.7.5l-1.2.9c-.4.6-.3 1.1-.2 1.8z"
        />
        <path
          className="FoulardS1-C_svg__st1" fill="#f8cb0e"
          d="M52.7 6.7c.3 0 .6.1.9.3.3.1.6.2.9.1.2-.1.3-.2.5-.4.8-.9 1.5-1.8 2.1-2.9.1-.3 1.2-2.8 1.1-2.8-.8-.6-1.9-.7-2.9-.8-2.9-.3-6.1-.1-8.9.7-.1 0-.2 0-.3.1-1 .2-3.2.5-3.5 1.7-.1.2 0 .5 0 .7.1 1.9.2 3.8 1.3 5.3 2.2-2.1 5.7-2.9 8.8-2zM50.2 11c.4-1 1.1-1.9 2-2.6-1-.1-2 0-3 .2-.3.1-.6.2-.8.3l.1.1c.6.7 1.2 1.3 1.7 2z"
        />
        <path
          fill="#fff"
          className="FoulardS1-C_svg__st2"
          d="M50.8 81.2c0-.1-.2-.2-.3-.3-1.2-1.2-2.5-2.3-3.9-3.4 0 .9-.1 1.9-.1 2.8 0 .5 0 1-.1 1.5l1.9 1.2c.7.5 1.5.9 2.2 1.5l.2.2.1.1v-.5c0-.5-.1-.9 0-1.3 0-.1 0-.1.1-.2v-1.1c-.1-.3-.1-.4-.1-.5zM51.9 85.6l.1.8-.1-.1v.9c1.5-1.2 3-2.4 4.3-3.8.2-.2.3-.3.3-.5.1-.1 0-.3 0-.5-.1-1.5-.2-3.1-.4-4.6-1.1 1.6-2.3 3.1-3.6 4.5l-.3.3-.4.4v.7c0 .6 0 1.3.1 1.9z"
        />
        <path className="FoulardS1-C_svg__st1" fill="#f8cb0e" d="M51 88.3z" />
        <path
          fill="#fff"
          className="FoulardS1-C_svg__st2"
          d="M51.7 83.1v3.2l.1.1-.1-.8c0-.6 0-1.3-.1-2v-.7c.1.1.1.1.1.2z"
        />
        <path
          fill="#fff"
          className="FoulardS1-C_svg__st2"
          d="M51.7 83.9v-.8c-.1.2 0 .5 0 .8z"
        />
        <path className="FoulardS1-C_svg__st1" fill="#f8cb0e" d="M56.5 49.9z" />
        <path
          fill="#fff"
          className="FoulardS1-C_svg__st2"
          d="M60.3 48.4h.1c.5 0 .9-.1 1.2-.3.4-.2.7-.7.9-1.1l1.7-2.7c-.8.3-1.6.5-2.3.7-.9.3-1.7.5-2.6.8-.5.2-.6.4-.9 1l-.1.3c-.1.2-.2.5-.4.8-.1.3-.2.5-.3.8 1-.2 1.9-.3 2.7-.3zM45.7 50.5c-.2-.7-.5-1.5-.9-2-.2-.3-.6-.4-1.2-.4-.3 0-.5-.1-.8-.1-.7-.2-1.5-.3-2.2-.5-.4-.1-.8-.1-1.2-.2-.2 0-.3 0-.5-.1.2.3.3.6.4.9l.1.1c.4.8.9 1.6 1.5 2.4.1.1.2.3.3.3.1.1.3.1.4.1l2.6.3c.5.1.9.1 1.4.2.2 0 .4.1.5.1v-.1c-.2-.3-.3-.7-.4-1zM39.2 37.4c-.3-.5-.5-.8-.9-1l-.2-.1c-.5-.2-1-.4-1.5-.5-.5-.2-1-.3-1.4-.5-.1 0-.2-.1-.3-.1-.8-.3-1.3-.6-1.8-.8.3 1.2.8 2.4 1.3 3.5l.1.4c.1.2.2.4.3.5.1.1.4.2.6.2 1.7.4 3.5.7 5.3 1-.4-.8-.9-1.5-1.4-2.2 0-.1-.1-.3-.1-.4zM64.9 31.5c-.2.2-.4.3-.6.5-.6.5-1 .7-1 1.5 0 .5-.2 1.6-.5 2.5 1.1-.5 2.2-1 3.2-1.7 1.5-1.1 2.5-2.4 2.8-3.8.2-.8.2-1.6.2-2.4v-1c-1.2 1.6-2.6 3.1-4.1 4.4zM37.4 20.8c0-.1.1-.2.1-.3l-.2-.2c-1.9-1.8-3.3-4-4.2-6.4l-.9 2.3c-.1.2-.2.5-.2.8v.8c.5 3.2 1.4 5.2 3 6.4.2.2.4.3.6.4.3.2.7.5 1 .8 0-1.7.2-3.2.8-4.6zM63.1 17.7c.3-.2.5-.5.8-.8l1.2-1.6c.7-.9 1.4-1.9 1.7-2.9.2-.6.5-1.9-.1-3-.3-.6-1.3-1.8-2-2.3-.1.4-.2.9-.3 1.4-.1.7-.2 1.5-.5 2.3-.6 1.4-1.3 2.7-2.3 3.8-.1.1-.2.2-.2.3 0 .1.1.2.1.3l1.6 2.5zM61.1 2.3c-.1-.6-.9-.8-1.7-.9-.1.2-.1.3-.2.5.7.3 1.3.6 1.9.9v-.5zM57.6 5.1c-.2.4-.6.8-1 1.3-.5.6-1.1 1.3-1.2 1.8.4.4 2.6 1.3 3 1.3.4-.3.9-1.7 1.2-2.5.1-.3.2-.6.3-.8l.6-1.8c.1-.4.3-.8.4-1.2.1-.2.1-.3.1-.4-.6-.3-1.2-.6-1.9-.9-.5 1.1-1 2.2-1.5 3.2zM50.6 63.2c-1.3-.2-2.7-.4-4-.6-.5-.1-2.3-.5-2.7 0-.5.9 1.2 1.5 1.8 1.8 3.6 1.5 7 3.8 10.9 3.9.2 0 .4 0 .5-.2.1-.1.1-.3.1-.4 0-.9-.1-1.9-.1-2.8 0-.3 0-.6-.2-.8-.3-.5-.9-.5-1.5-.5-1.3 0-2.6-.2-3.9-.3-.3 0-.5 0-.9-.1zM56.9 69.5c-2.9-.8-5.7-1.7-8.5-2.8-.4-.1-2.4-1.2-2.8-.7-.5.6 1.3 2 1.7 2.4 2.6 2.2 5.8 4.1 9.2 3.9.2 0 .4 0 .6-.2.2-.2.2-.5.3-.8 0-.4 0-.7.1-1.1 0-.2 0-.3-.1-.4-.2-.2-.4-.2-.5-.3z"
        />
      </g>
    </svg>