<?xml version="1.0" encoding="utf-8"?>
<svg version="1.1" xmlns="http://www.w3.org/2000/svg" xmlns:xlink="http://www.w3.org/1999/xlink" x="0px" y="0px"
	 viewBox="0 0 23 23" style="enable-background:new 0 0 100 100;" xml:space="preserve">
	 <path
      d="M19.629 8.47c.294-.616.578-1.263.585-1.946s-.329-1.415-.962-1.671c-.391-.158-.841-.116-1.233.038-.392.154-.735.411-1.056.684-1.337 1.136-2.414 2.647-2.754 4.368-.18.912-.149 1.856-.001 2.773.1.615.252 1.222.302 1.842.053.663-.011 1.328-.076 1.99 1.535-1.979 3.011-3.979 4.221-6.179.343-.624.668-1.257.974-1.899z"
      fill="#dcafc6"
    />
    <path
      d="M3.161 19.707c-.389.685-.765 1.43-.715 2.216.024.374.169.769.491.961.317.188.733.131 1.055-.05.322-.18.569-.465.812-.742 1.569-1.795 3.123-3.594 4.594-5.621-1.136-.667-1.837-1.063-2.908-1.816-.598.507-.995 1.475-1.45 2.112a33.81 33.81 0 0 0-1.879 2.94z"
      fill="#c19d6e"
    />
    <path
      d="M19.331 8.294c-.256-.288-.537-.592-.913-.68-.268-.062-.551-.004-.805.101-.216.09-.425.22-.549.417-.169.267-.156.607-.138.922-.072-.103-.18-.058-.304-.043-.485.058-.956.285-1.27.66-.314.375-.455.899-.33 1.371s.53.869 1.013.945c-.263.144-.552.292-.751.516s-.318.543-.228.829c.049.153.151.282.259.401.122.135.258.263.424.337.166.074.369.085.524-.01a61.347 61.347 0 0 1-1.962 2.959c-.411.575-.842 1.155-1.423 1.556-.581.402-1.348.602-2.007.348-.043-.047-.157-.147-.22-.15l-5.93-4.301c-.353-.346-.704-.699-.899-1.154-.195-.454-.231-.999.006-1.432 1.83-3.345 4.222-6.465 7.044-9.03 1.083-.984 2.406-1.629 3.809-2.046 1.715-.509 3.605.114 4.897 1.351.239.229.458.483.611.777.224.43.295.923.312 1.408.052 1.438-.385 2.744-1.17 3.948z"
      fill="#dcafc6"
    />
    <path
      d="M7.656 9.611c-.179.202-.323.446-.305.748s.238.668.576.839a.878.878 0 0 0 .794.011c.21-.11.346-.295.478-.476M12.404 13.01c-.178.203-.323.446-.314.741.009.295.21.648.531.806a.835.835 0 0 0 .764-.011c.205-.113.341-.298.473-.48"
      fill="none"
      stroke="#28241f"
      strokeWidth="0.404"
      strokeLinecap="round"
      strokeLinejoin="round"
      strokeMiterlimit="10"
    />
    <path
      d="M5.697 10.87a.646.646 0 0 0-.233.636.83.83 0 0 0 .169.335c.076.096.17.181.282.229.19.082.424.045.587-.083s.252-.341.24-.548c-.029-.51-.598-.912-1.045-.569zM11.995 15.489a.646.646 0 0 0-.233.636.83.83 0 0 0 .169.335c.076.096.17.181.282.229.19.082.424.045.587-.083a.657.657 0 0 0 .24-.548c-.028-.51-.597-.912-1.045-.569z"
      fill="#b05a79"
    />
    <path
      d="M12.199.97c-1.109.725-1.987 1.766-2.644 2.917-.255.447-.484.935-.478 1.45s.313 1.059.812 1.186c.68.172 1.271-.44 1.822-.874a4.372 4.372 0 0 1 1.148-.65c.19-.072.426-.124.581.008.144.123.143.352.064.524-.079.172-.218.307-.328.461-.202.284-.305.648-.231.988.073.341.338.644.678.72.534.119 1.018-.305 1.421-.674s.964-.736 1.458-.5a.443.443 0 0 1 .226.217c.052.127.016.271.008.408-.032.578.576 1.098 1.143.976.344-.074.687-.338 1.012-.202.22.092.376.356.613.337.123-.01.224-.097.312-.184 1.164-1.144 1.633-2.946 1.173-4.512C19.924-.062 15.077-.911 12.199.97z"
      fill="#7c4d2c"
    />
    <path
      d="M14.581.537l-.51-.188c-.143-.053-.293-.106-.443-.085-.151.022-.298.146-.289.298.011.198.248.289.442.332l.434.097c.125.028.263.054.374-.009.111-.062.146-.255.03-.309M17.793 2.331c.07.363.231.709.464.996.048.059.118.122.19.1.04-.012.068-.047.091-.082a.903.903 0 0 0 .011-.951.613.613 0 0 0-.354-.281c-.15-.038-.326.011-.411.14-.02.03.007.093.028.063"
      fill="#fdde31"
    />
    <path
      d="M15.819 2.64a.837.837 0 0 0-.064.743.341.341 0 0 0 .13.172c.102.061.241.023.326-.061a.616.616 0 0 0 .15-.318c.035-.163.043-.34-.028-.491-.072-.151-.241-.265-.404-.228-.163.037-.266.259-.158.387M19.849 3.338c-.067.026-.103.101-.111.173a.487.487 0 0 0 .125.362c.085.1.197.174.311.239.07.04.149.079.227.061.084-.02.141-.104.152-.189a.476.476 0 0 0-.051-.25c-.099-.224-.377-.505-.653-.396z"
      fill="#dcafc6"
    />
    <path
      d="M16.962.399c-.092.002-.196.009-.254.08-.046.056-.05.137-.028.206s.066.128.11.186a.428.428 0 0 0 .123.124.392.392 0 0 0 .138.04c.182.029.367.042.551.041.076-.001.156-.005.219-.049.179-.125.119-.458-.047-.563-.208-.131-.581-.069-.812-.065zM19.33 4.883c-.025.02-.049.043-.055.076a.177.177 0 0 0 .023.106 1.1 1.1 0 0 0 .237.287c.135.131.275.265.44.355.159.087.362.117.425.013.037-.061.017-.151-.018-.236-.174-.421-.718-.859-1.052-.601z"
      fill="#bc799e"
    />
    <path
      d="M15.504 1.369a.233.233 0 0 0 .169.224c.028.008.058.01.086.002.053-.015.089-.063.126-.104.045-.05.101-.104.094-.172-.008-.079-.096-.12-.172-.146-.141-.048-.3.012-.303.196zM17.265 3.851c.013.051.05.091.088.127.069.065.145.122.227.17.071.042.149.078.231.074s.166-.062.175-.144c.008-.072-.041-.137-.088-.194-.087-.106-.265-.352-.422-.356-.137-.003-.244.195-.211.323zM19.239 2.083a.557.557 0 0 0 .186.147c.087.048.183.087.283.082s.201-.067.226-.163c.027-.105-.041-.209-.111-.291a2.221 2.221 0 0 0-.226-.229c-.323-.282-.551.195-.358.454z"
      fill="#fff"
    />
    <path
      d="M9.036 12.928c-.225.232-.187.661.074.851.261.19.681.092.832-.193"
      fill="none"
      stroke="#28241f"
      strokeWidth="0.404"
      strokeLinecap="round"
      strokeLinejoin="round"
      strokeMiterlimit="10"
    />
  </svg>