<?xml version="1.0" encoding="utf-8"?>
<svg version="1.1" xmlns="http://www.w3.org/2000/svg" xmlns:xlink="http://www.w3.org/1999/xlink" x="0px" y="0px"
	 viewBox="0 0 100 100" style="enable-background:new 0 0 100 100;" xml:space="preserve">
      <g id="JumellesS1-F_svg__fonce">
        <path
          d="M28.5 89.6c1-6.2 5.1-11.9 10.7-14.9 3.1-1.7 6.5-2.6 10-2.1 2.5.4 4.8 1.3 7 2.5.5.3 1.3.4 1.4-.1v-.5c-.4-1.8-1-5.9.3-7.5 1.3-1.6 4.6-1.3 6.2-.5 2.2 1 3.7 3.2 4.4 5.5.4-6.6 4.3-12.8 10.1-16s13.2-3 18.9.3c-1.8-2.7-3.6-5.4-5.4-8-6.3-1.2-12.7-1.6-18.4 1.4-4.4 2.3-7.5 6.7-8.2 11.6-2.5-.9-4.9-1.9-7.5-1.8-2.6.2-5.4 1.8-6 4.3-.4 1.4-.3 3.3-1.7 3.7-1.2.4-2.6-.8-3.7-1.2-4.3-1.5-9-.5-12.8 1.8-2.5 1.5-6.6 5.2-8 7.8-1.4 2.4 1.5 9.6 2.7 13.7z"
          fill="#9b2d3a"
        />
        <path
          fill="#2f7e9d"
          className="JumellesS1-F_svg__st1"
          d="M76.3 30.7c-.9.2-1.7.8-2.5.6-1.1-.2-1.4-1.5-1.8-2.5-.7-2.1-3.2-7-5.6-7.5-1.6-.3-3.2.2-4.7.7-2.5.8-5.3 2.1-5.6 4.7-.2 3 6.5 8.2 3.2 10.9-.4.3-.9.5-1.3.8-2.2 1.5-1.1 5 .3 7.3-2.8-.6-5.6-1.2-8.4-.6s-5.4 2.7-5.7 5.5c0-3.3-4.5-5.6-7.1-3.6-.9-3.3-2.4-6.5-5.2-8.5-5.2-3.7-8.9.3-13.2 3.1-.8 3.1 1.7 5.1 2.4 7.8 1.1 4.2-3.5 4.4-3.8 8.4-.3 2.8.9 5.7 2.2 8.1.4.7 4.3 6 4.2 6.4 1.2-2.5 3.4-4.5 5.8-6.1 1.9-1.3 3.9-2.4 6.2-3 2.4-.6 4.6-.5 6.9.3 2 .7 4.4 2.2 6.5 1.1 1.5-.8 1-2.5 1.6-3.7.5-1.2 1.6-2.2 2.8-2.9 2.4-1.4 5.4-1.6 8.1-1 .9.2 1.9.5 2.7.1 1.1-.5 1.4-1.9 1.7-3 1-3.2 3.6-5.6 6.6-7.2C77.3 44.8 85 44.8 90 46c-2.7-4.1-7.1-16.7-13.7-15.3z"
        />
        <path
          fill="#7aa2b1"
          className="JumellesS1-F_svg__st2"
          d="M81.8 32.6c1.6-1 2.1-2.9 1.6-4.3s-1.9-2.5-3.3-2.5c-1.5-.1-3 .7-3.7 2-.7 1.3-.7 3.2.2 4.8-1.6-1.1-2.3-3.4-1.6-5.4.7-2.1 3-3.4 5.1-3.3 2.2.1 4.3 1.8 4.7 4 .4 2.2-1.1 4.4-3 4.7zM19.9 59.7c-1.5-.2-2.7-1.2-3.9-1.3-1-.2-2.1.4-2.6 1.3-.7.8-.6 1.9.1 2.8.7.9 1.9 1.5 3.3 1.3-1.1 1-3.1.8-4.4-.3-1.4-1-1.6-3.4-.6-4.9 1-1.4 2.9-2.3 4.6-1.6 1.6.7 2.3 1.9 3.5 2.7zM54.6 19.8c-1.3 1.4-1.7 4-.1 5.1-1.5-1.1 11.4-6.4 11.4-6.2.9-3.8-9.7-.6-11.3 1.1zM25.7 32.9c-2.3.4-4.6.9-6.4 2.4-1.7 1.5-2.6 4.3-1.2 6.2 1.6-1.7 3.2-3.4 5.1-4.6 1-.6 5.7-1.5 6-2.2.9-2.1-2.2-2-3.5-1.8z"
        />
        <path
          fill="#2f7e9d"
          className="JumellesS1-F_svg__st1"
          d="M80.1 22.8c1.4-2.8 1.1-6.2-.3-8.9-1.4-2.8-3.8-4.8-6.6-6-5.6-2.4-12.1-2.4-18-1.3-3 .6-5.6 2-8.2 3.8-2.6 1.8-6.2 2.8-9.4 2.3-6.5-.7-12.1-4.3-18-4.5-6-.4-10.8 4.5-14.1 9.4C2.1 22.5.2 29 2.9 34.4c.7 1.4 1.6 2.7 2.2 4.2.5 1.6.6 3.3.5 4.9-.2 3.2-1.3 6.2-1.9 9.2-.5 3-.6 6.3 1.3 8.7 1.8 2.2 5.8 3.5 8.1 1.1-2.2 2.6-6.4 1.6-8.4-.8-2.2-2.5-2.3-6.1-1.8-9.1.5-3.1 1.5-6.1 1.6-9.1.1-1.5-.1-3-.6-4.4-.6-1.3-1.5-2.7-2.2-4-1.6-2.9-2-6.4-1.3-9.6.6-3.2 1.9-6.2 3.7-8.9 1.7-2.7 3.8-5.1 6.4-7.2 2.5-2.1 5.9-3.3 9.2-3.2 6.7.3 12.2 4 18.1 4.6 3 .4 5.8-.3 8.4-2C48.7 7.1 51.8 5.5 55 5c3.2-.6 6.3-.6 9.5-.4 3 .4 6.2 1 9 2.4 5.8 2.6 9.7 10.1 6.6 15.8zM90.8 73.8c-4.5 1.5-9.2 2.3-14 2.2-1.1 0-2.1-.1-3.1-.6-2.2-1.2-2.3-4.3-2.2-6.8.1-1.1.1-2.3.6-3.3.5-.9 1.2-1.6 2-2.3 2.5-2.2 5.1-4.5 8.3-5.7 4.5-1.6 15.4-1 17.3 4.5 1.9 5.6-4.6 10.5-8.9 12zM50.1 93.5c-4.5 1.5-9.2 2.3-14 2.2-1.1 0-2.1-.1-3.1-.6-2.2-1.2-2.3-4.3-2.2-6.8.1-1.1.1-2.3.6-3.3.5-.9 1.2-1.6 2-2.3 2.5-2.2 5.1-4.5 8.3-5.7 4.5-1.6 15.4-1 17.3 4.5 2 5.6-4.5 10.5-8.9 12z"
        />
        <path
          fill="#fff"
          className="JumellesS1-F_svg__st3"
          d="M96.4 58.9c1.7 2.2 1.3 5.5-.4 7.8-1.6 2.4-4 3.9-6.4 5.1-4.9 2.3-11 2.9-15.7.3 5.2 1 10.4.3 14.9-2 2.3-1 4.5-2.5 6.1-4.3 1.6-1.8 2.5-4.4 1.5-6.9zM55 80.7c1.7 1.7 1.1 4.7-.6 6.4-1.6 1.8-3.7 2.7-5.7 3.7-4 1.8-8.9 2.8-13.1 1.2h-.1v-.1l.1-1.2.2 1.2-.1-.2c4.3.3 8.4-.9 12.3-2.6 2-.8 3.9-1.8 5.5-3 1.4-1.2 2.4-3.3 1.5-5.4z"
        />
      </g>
    </svg>