<?xml version="1.0" encoding="utf-8"?>
<svg version="1.1" xmlns="http://www.w3.org/2000/svg" xmlns:xlink="http://www.w3.org/1999/xlink" x="0px" y="0px"
	 viewBox="0 0 23 23" style="enable-background:new 0 0 100 100;" xml:space="preserve">
	 <path
      d="M17.154 15.3c.267.322.513.678.604 1.086.091.408-.002.879-.322 1.149-.354.299-.882.28-1.325.144-.612-.188-1.15-.562-1.638-.977-.987-.84-1.853-1.983-1.85-3.279 0-.045.002-.092.029-.128.029-.039.079-.055.127-.068.308-.084.62-.152.934-.204.55-.091 1.395.542 1.83.831.602.401 1.148.89 1.611 1.446zM5.689 15.192c-.285.306-.551.647-.665 1.049-.114.402-.048.878.256 1.166.337.319.864.33 1.315.22.622-.153 1.18-.495 1.691-.882 1.034-.782 1.964-1.874 2.035-3.168.002-.045.003-.092-.021-.13-.027-.041-.076-.059-.123-.075a9.448 9.448 0 0 0-.921-.257c-.544-.122-1.424.461-1.874.725a7.472 7.472 0 0 0-1.693 1.352z"
      fill="#83868c"
    />
    <path
      d="M14.298 13.224l1.275 2.822c.147.326.295.652.393.996.234.816.444 1.841.292 2.676-.149.82-.724 1.56-1.467 1.939-.322.164-.69.21-1.049.247-1.303.133-2.621.176-3.92.014-.947-.118-1.943-.382-2.573-1.098-.596-.677-.755-1.652-.628-2.545s.507-1.727.882-2.547l1.244-2.718c.217-.475.911-.629 1.403-.806.51-.184 1.065-.194 1.606-.175.47.016.94.053 1.407.11.308.037.628.089.877.273s.398.542.25.814l-.124.074c.032-.037.098-.039.132-.076z"
      fill="#c8c9c9"
    />
    <path
      d="M9.208 15.05c-.31.875-.624 1.777-.587 2.705.037.928.51 1.9 1.37 2.252.264.108.549.153.831.19.604.08 1.222.128 1.82.01.598-.118 1.18-.421 1.525-.924.321-.468.407-1.066.352-1.631-.055-.565-.241-1.108-.425-1.645l-.34-.991c-.199-.581-.408-1.179-.82-1.635a1.382 1.382 0 0 0-.541-.389 1.896 1.896 0 0 0-.531-.085c-.605-.038-1.345-.068-1.871.288-.253.171-.265.384-.361.662-.138.399-.281.795-.422 1.193z"
      fill="#fff"
    />
    <path
      d="M4.521 18.432c-.309.09-.611.227-.841.452-.505.495-.552 1.295-.432 1.992.081.471.234.951.57 1.29.573.577 1.507.587 2.297.394.879-.215 1.535-.545 2.343-.953-.527-.277-.754-.852-1.008-1.391-.232-.49-.251-1.478-.758-1.702-.657-.287-1.493-.279-2.171-.082z"
      fill="#83868c"
    />
    <path
      d="M4.967 22.153c.273-.007.516-.205.638-.45.122-.244.143-.527.131-.801-.007-.154-.027-.317-.125-.436-.09-.108-.232-.16-.37-.185-.471-.085-1.509.011-1.493.67.014.552.663 1.216 1.219 1.202zM3.621 19.591c-.047.013-.079.056-.096.102a.287.287 0 0 0 .167.354.293.293 0 0 0 .358-.164.3.3 0 0 0-.146-.367c-.07-.033-.154-.037-.224-.003s-.12.107-.119.185M4.368 19.326a.331.331 0 0 0 .304.356c.049.002.101-.01.134-.045a.198.198 0 0 0 .04-.084c.035-.128.026-.285-.078-.367-.077-.06-.194-.06-.271 0s-.105.174-.065.263M5.162 19.264a.51.51 0 0 0 .049.262c.043.079.125.141.215.14.117-.002.213-.119.208-.235s-.095-.22-.205-.258a.197.197 0 0 0-.133-.005c-.096.036-.12.159-.126.262"
      fill="#f8dfde"
    />
    <path
      d="M18.785 18.763c.309.09.611.227.841.452.505.495.552 1.295.432 1.992-.081.471-.234.951-.57 1.29-.573.577-1.507.587-2.297.394-.879-.215-1.848-.722-2.656-1.13.527-.277 1.067-.675 1.321-1.214.232-.49.251-1.478.758-1.702.657-.288 1.493-.279 2.171-.082z"
      fill="#83868c"
    />
    <path
      d="M18.339 22.484c-.273-.007-.516-.205-.638-.45-.122-.244-.143-.527-.131-.801.007-.154.027-.317.125-.436.09-.108.232-.16.37-.185.471-.085 1.509.011 1.493.67-.014.551-.664 1.215-1.219 1.202zM19.685 19.921c.047.013.079.056.096.102a.287.287 0 0 1-.167.354.293.293 0 0 1-.358-.164.3.3 0 0 1 .146-.367.262.262 0 0 1 .224-.003.21.21 0 0 1 .119.185M18.938 19.657a.331.331 0 0 1-.304.356c-.049.002-.101-.01-.134-.045a.198.198 0 0 1-.04-.084c-.035-.128-.026-.285.078-.367a.227.227 0 0 1 .271 0c.077.06.105.174.065.263M18.144 19.594a.51.51 0 0 1-.049.262c-.043.079-.125.141-.215.14-.117-.002-.213-.119-.208-.235.004-.117.095-.22.205-.258a.197.197 0 0 1 .133-.005c.096.036.12.159.125.262"
      fill="#f8dfde"
    />
    <path
      d="M16.369.298c.713-.221 1.484-.206 2.215-.053.761.159 1.54.507 1.938 1.175l-.377-.002a3.479 3.479 0 0 1 1.119 2.546c0 .067-.03.159-.096.147l-.283-.373c.065.361-.116.716-.299 1.033-.394.684-.902 1.4-1.67 1.582-.438.104-.901.014-1.344.092l-1.155-1.762c-.235-.358-.471-.718-.761-1.034-.254-.276-.546-.516-.795-.796-.183-.206-.46-.525-.424-.823.029-.243.295-.528.437-.715.372-.489.911-.836 1.495-1.017z"
      fill="#83868c"
    />
    <path
      d="M17.202 1.883a1.816 1.816 0 0 1 1.638.791c.098.147.175.311.205.486.036.213.002.432-.052.641a2.24 2.24 0 0 1-.304.708c-.198.288-.448.559-.762.712-.572.279-.94-.055-1.212-.003-.336.064-.197.329-.491.153-.468-.279-.876-.712-.993-1.247-.113-.515.188-1.006.504-1.412.33-.422.868-.776 1.467-.829z"
      fill="#f8dfde"
    />
    <path
      d="M8.442 2.105C7.93.9 6.103.038 4.658.005c-.526-.012-1.113.091-1.429.511.21.016.418.065.613.146-.631.108-1.211.487-1.564 1.021s-.474 1.216-.327 1.839c.142-.118.261-.262.35-.424-.12.978.024 2.07.735 2.751.079.076.179.15.287.135.109-.015.183-.175.093-.238.296.278.956.815 1.347.923.795-.574 1.325-1.522 1.957-2.27.306-.363.569-.76.83-1.156.296-.448.597-.69.892-1.138z"
      fill="#83868c"
    />
    <path
      d="M5.594 1.93a1.384 1.384 0 0 0-.593-.034c-.156.03-.303.099-.436.187-.562.374-.842 1.116-.693 1.775s.702 1.202 1.357 1.367c.059.015.124.026.177-.004.032-.017.054-.047.075-.075l1.198-1.6c.147-.196.432-.447.294-.702-.117-.22-.377-.415-.578-.553a2.445 2.445 0 0 0-.801-.361z"
      fill="#f8dfde"
    />
    <path
      d="M18.798 8.864c-.02-.625-.228-1.231-.46-1.818-.422-1.067-.936-2.112-1.648-3.039-.712-.927-1.632-1.735-2.739-2.234a6.119 6.119 0 0 0-2.567-.547c-.924-.041-1.775.189-2.568.547-1.107.499-2.027 1.307-2.739 2.234-.712.927-1.226 1.972-1.648 3.039-.232.587-.441 1.193-.46 1.818-.009.252.014.504.044.755.09.758.318 1.443.8 2.063.605.779 1.551 1.285 2.53 1.604.674.219 1.365.414 2.077.469.677.052 1.183.052 1.963.089.774.037 1.286-.036 1.963-.089.712-.055 1.403-.249 2.077-.469.98-.319 1.926-.825 2.53-1.604.482-.62.71-1.305.8-2.063.03-.251.053-.503.045-.755z"
      fill="#bdbbbc"
    />
    <path
      d="M10.717 8.383a.948.948 0 0 0-.204.349 4.49 4.49 0 0 0-.307 1.519c-.007.279.024.582.262.794.225.2.586.275.929.3.212.015.433.015.629-.049a.89.89 0 0 0 .53-.464c.094-.199.109-.414.105-.625a3.995 3.995 0 0 0-.455-1.77c-.229-.441-1.132-.409-1.489-.054z"
      fill="#3c2818"
    />
    <path
      d="M6.065 7.037c.039.537.327 1.035.719 1.283.393.249.876.249 1.272.024s.7-.663.839-1.17M13.621 7.012c.038.534.327 1.015.72 1.24.393.225.877.197 1.273-.05.396-.247.701-.703.84-1.218"
      fill="none"
      stroke="#3c2818"
      strokeWidth="0.364"
      strokeLinecap="round"
      strokeLinejoin="round"
      strokeMiterlimit="10"
    />
    <path
      d="M5.77 9.553a.5.5 0 0 0-.496.322.56.56 0 0 0 .272.712c.155.077.336.089.502.082.14-.006.279-.023.394-.074.257-.115.341-.4.22-.65-.082-.172-.26-.333-.477-.396s-.465-.01-.549.139M16.194 9.4a.5.5 0 0 0-.496.322.56.56 0 0 0 .272.712c.155.077.336.089.502.082.14-.006.279-.023.394-.074.257-.115.341-.4.22-.65-.083-.172-.261-.332-.478-.395s-.465-.01-.548.138"
      fill="#f8dfde"
    />
    <g fill="#c8c9c9">
      <path d="M11.178 18.706c.016.111.02.22.011.327l-.274-.022.025-.508c.079-.004.17.034.221.092s.059.133.018.181M9.814 17.772l.071.462c.003.018.006.037.017.052.037.051.14.036.182-.012.041-.048.039-.112.034-.171l-.03-.327a.517.517 0 0 0-.244.019M12.318 18.115l.03-.391a.087.087 0 0 0-.006-.047c-.027-.051-.137-.069-.19-.042s-.065.079-.073.128c-.015.09-.028.181-.042.271a.717.717 0 0 0 .256.055M11.063 17.276l.078.417c.003.016.006.033.019.047.04.046.154.033.199-.011.045-.044.042-.101.037-.155-.01-.099-.021-.197-.033-.295a.683.683 0 0 0-.267.017M13.126 17.389a.769.769 0 0 0 .021.451l.163.029a.783.783 0 0 0 .093-.467.928.928 0 0 0-.278-.003l-.016.084M10.088 16.467a.892.892 0 0 0 .131.513l.198-.004a.894.894 0 0 0-.002-.558 1.119 1.119 0 0 0-.327.061l.002.1M12.62 16.854a.9.9 0 0 0-.075-.507l-.183-.013a.908.908 0 0 0-.049.54c.087.002.173.004.307-.031l.007-.097M11.231 16.138c0-.031.002-.066.02-.089.023-.03.061-.031.095-.029.036.002.071.003.131.029.025.119.038.241.038.364 0 .028-.003.061-.022.076-.012.01-.028.01-.043.01-.056 0-.145.024-.184-.029-.045-.057-.035-.26-.035-.332zM12.487 18.574c0-.031.002-.066.02-.089.023-.03.061-.031.095-.029.036.002.071.003.131.029.025.119.038.241.038.364 0 .028-.003.061-.022.076-.012.01-.028.01-.043.01-.056 0-.145.024-.184-.029-.045-.057-.035-.26-.035-.332z" />
    </g>
  </svg>