<?xml version="1.0" encoding="utf-8"?>
<svg version="1.1" xmlns="http://www.w3.org/2000/svg" xmlns:xlink="http://www.w3.org/1999/xlink" x="0px" y="0px"
	 viewBox="0 0 23 23" style="enable-background:new 0 0 100 100;" xml:space="preserve">
	 <path
      fill="#F8F1E0"
      d="M8.439 1.24c-.02-.297-.044-.609-.202-.862C8.16.255 8.04.144 7.897.133 7.74.121 7.6.224 7.483.33c-.424.391-.735.889-1.01 1.396-.325.6-.61 1.231-.724 1.904-.113.672-.04 1.394.31 1.978s1.01 1.004 1.691.966c.33-.019.661-.148.882-.393.243-.27.284-.58.164-.903-.14-.378-.14-.76-.167-1.165L8.44 1.24z"
    />
    <path
      fill="#F6B2C0"
      d="M7.756 5.4l-.05-3.044c0-.078-.018-.178-.095-.195-.034-.007-.07.007-.1.023-.165.086-.278.246-.375.404-.285.464-.5.981-.543 1.524s.099 1.112.454 1.524c.114.131.27.253.442.233.174-.02.302-.186.338-.357.036-.171 0-.348-.037-.519"
    />
    <path
      fill="#F8F1E0"
      d="M15.35 1.342c.02-.298.044-.61.202-.863.077-.123.196-.233.34-.245.157-.012.297.092.413.198.424.39.735.888 1.01 1.396.325.6.61 1.23.724 1.903s.04 1.395-.31 1.979c-.352.584-1.01 1.003-1.69.965-.33-.018-.662-.147-.883-.393-.243-.27-.284-.58-.164-.903.14-.377.14-.76.167-1.164l.191-2.873z"
    />
    <path
      fill="#F6B2C0"
      d="M16.033 5.5l.05-3.042c0-.079.018-.179.095-.195.034-.007.07.006.1.023.165.086.278.245.375.403.285.464.5.982.543 1.524.043.543-.099 1.113-.455 1.525-.113.13-.27.253-.441.232-.174-.02-.302-.185-.338-.356s0-.349.037-.52"
    />
    <path
      fill="#F8F1E0"
      d="M6.336 15.572c-.272-1.066-.888-.486-.7-1.573-.144.046-.3-.057-.372-.197-.072-.14-.08-.305-.082-.464a9.503 9.503 0 0 1 .474-3.08l-.357.147c.166-1.117.424-2.234.927-3.23S7.5 5.304 8.481 4.864c.134-.06.273-.113.399-.193.175-.11.32-.27.486-.397.51-.388 1.181-.43 1.809-.405l-.023-.246c1.026-.424 2.31.06 2.855 1.077.958.332 1.9.69 2.682 1.365.782.676 1.39 1.631 1.503 2.696.02.177.022.366-.058.522-.08.156-.27.26-.421.184.275.717.45 1.477.517 2.249.036.41.033.851-.18 1.194-.07.114-.263.193-.298.062.294.9.32 1.897.072 2.813-.041.153-.097.314-.222.402-.124.088-.333.05-.37-.104a4.898 4.898 0 0 1-.266 2.174c-3.162.327-3.338-.923-6.506-1.168-.523-.04-1.426-1.517-1.816-1.89-.068-.065-2.4.359-2.308.373z"
    />
    <g fill="#DDD0B6">
      <path d="M10.99 10.376c-.558.25-.855.918-.99 1.557-.104.49-.135 1.037.104 1.467.19.344.53.565.887.669s.73.101 1.098.082c.538-.028 1.146-.136 1.443-.624.23-.377.2-.87.12-1.314-.073-.41-.185-.82-.4-1.168-.457-.739-1.512-1.007-2.262-.67z" />
      <path d="M9.365 7.11c-.709-.055-1.467.279-1.827.944-.233.431-.283.948-.312 1.447-.028.467-.032.977.229 1.35.175.25.446.4.708.535.659.342 1.364.667 2.092.602a2.143 2.143 0 0 0 1.207-.52c.143-.124.275-.272.344-.456.079-.207.071-.438.063-.661l-.064-1.655a.795.795 0 0 0-.034-.244c-.079-.212-.288-.265-.452-.368-.19-.12-.352-.285-.535-.415-.425-.301-.91-.518-1.42-.558z" />
      <path d="M14.088 7.11c.708-.055 1.466.279 1.826.944.234.431.283.948.313 1.447.028.467.031.977-.229 1.35-.176.25-.446.399-.708.535-.659.342-1.364.666-2.092.602a2.143 2.143 0 0 1-1.207-.52 1.169 1.169 0 0 1-.345-.456c-.078-.207-.07-.438-.062-.662l.063-1.654a.798.798 0 0 1 .035-.244c.078-.212.287-.265.452-.368.19-.12.351-.285.535-.415.425-.301.91-.518 1.419-.558z" />
    </g>
    <g fill="#353839">
      <path d="M12.786 11.456a.071.071 0 0 0-.025-.032c-.04-.026-.09.012-.122.045-.205.21-.467.377-.791.414l-.06-.003c-.344-.026-.619-.202-.832-.421-.033-.034-.082-.072-.122-.046a.071.071 0 0 0-.025.032c-.038.087.025.187.107.236.082.05.171.083.262.116.175.062.334.172.518.198l.022.001c-.008.059.017.136.023.18.01.064.015.122.015.187l.002.222c0 .014 0 .029.006.042s.02.024.035.021c.023-.003.03-.031.031-.054.002-.032-.003-.064-.004-.096a.337.337 0 0 0 .009-.065l.016-.347c0-.013.006-.046.009-.078a.354.354 0 0 0 .038-.002c.184-.026.344-.136.518-.198.091-.033.18-.067.263-.116.082-.05.144-.15.107-.236zM8.427 10.004c.177.22.457.337.723.298a1.5 1.5 0 0 0 .297-.088.593.593 0 0 0 .15-.072.597.597 0 0 0 .114-.12c.125-.162.243-.353.237-.564 0-.027-.004-.056-.02-.077-.017-.02-.051-.025-.066-.003.008.115-.082.207-.15.295-.071.09-.128.195-.207.277a.621.621 0 0 1-.698.125c-.23-.106-.4-.344-.46-.607-.008-.04-.027-.258-.07-.26-.076-.004-.06.198-.058.24a.988.988 0 0 0 .208.556z" />
      <path d="M8.13 9.76l-.15.084a.042.042 0 0 0-.017.013c-.008.013-.001.031.006.046.002.004.005.01.01.01l.006-.003c.04-.024.086-.022.13-.033a.453.453 0 0 0 .126-.064.184.184 0 0 0 .066-.06c.012-.021.02-.068-.005-.084-.023-.013-.053.015-.071.028a1.175 1.175 0 0 1-.102.063zM8.114 10.2c-.021.01-.045.03-.038.054.004.014.019.022.032.022a.09.09 0 0 0 .04-.012c.114-.055.226-.118.335-.187.01-.006.02-.014.022-.025.002-.012-.004-.023-.01-.032-.01-.017-.02-.044-.04-.04-.015.002-.032.03-.042.04a.535.535 0 0 1-.093.071 1.25 1.25 0 0 1-.102.056c-.03.015-.082.028-.104.052zM8.607 10.333a2.078 2.078 0 0 1-.117.124c-.012.012-.025.023-.032.039s-.006.036.006.048c.016.016.041.007.061-.004a.656.656 0 0 0 .301-.263c.005-.006.009-.014.008-.022 0-.01-.01-.018-.018-.024a.52.52 0 0 0-.065-.042c-.028-.014-.031-.013-.048.014a.88.88 0 0 1-.096.13z" />
      <g>
        <path d="M14.73 10.095a.798.798 0 0 1-.722.298 1.5 1.5 0 0 1-.297-.088.596.596 0 0 1-.15-.072.6.6 0 0 1-.114-.12c-.124-.162-.243-.353-.237-.564 0-.027.004-.056.02-.077.018-.02.051-.025.066-.003-.007.115.082.207.15.295.072.09.128.194.207.277.18.187.468.23.699.124.23-.105.399-.343.458-.606.01-.04.028-.258.072-.26.075-.004.06.198.057.24a.987.987 0 0 1-.208.556z" />
        <path d="M15.029 9.85l.15.085a.042.042 0 0 1 .016.013c.008.013.001.031-.006.045-.002.005-.005.01-.01.01l-.006-.002c-.04-.024-.086-.022-.13-.033a.453.453 0 0 1-.126-.064.184.184 0 0 1-.065-.06c-.013-.021-.022-.068.004-.084.023-.013.054.015.071.028a1.2 1.2 0 0 0 .102.063zM15.045 10.29c.02.011.045.032.037.055-.004.014-.018.022-.032.022a.09.09 0 0 1-.039-.012 3.354 3.354 0 0 1-.335-.187c-.01-.006-.02-.014-.023-.025-.002-.012.004-.023.01-.032.011-.017.02-.044.04-.04.015.002.032.03.042.04.029.028.06.05.094.071.033.021.067.039.102.056.028.014.081.028.104.052zM14.552 10.424c.037.043.075.085.116.124.012.012.025.023.032.039s.007.036-.005.048c-.016.016-.042.007-.062-.003a.656.656 0 0 1-.301-.263c-.004-.007-.009-.015-.008-.023 0-.01.01-.018.018-.024a.52.52 0 0 1 .065-.042c.029-.014.031-.013.048.014.029.047.06.09.097.13z" />
      </g>
    </g>
    <path
      fill="#F8F1E0"
      d="M10.039 7.91c.3.121.646.06.949-.056-.02.359.318.665.675.713.356.048.712-.106 1.01-.307.26-.176.51-.417.553-.728.08.229.363.337.6.286s.428-.227.576-.418c.198-.255.343-.605.202-.895-.098-.202-.309-.321-.511-.419a7.67 7.67 0 0 0-1.318-.49c-.464-.126-.953-.208-1.423-.11-.76.16-2.8 1.823-1.313 2.424z"
    />
    <g>
      <path
        fill="#85532F"
        d="M13.466 17.165c.007.173.114.285.215.39.109.097.23.216.344.252.213.11.483-.078.658-.366a.649.649 0 0 1-.186.494.548.548 0 0 1-.575.118 1.05 1.05 0 0 1-.401-.372c-.098-.145-.152-.362-.055-.516z"
        opacity="0.44"
      />
      <path
        fill="none"
        stroke="#FFF"
        strokeWidth="0.17"
        strokeMiterlimit="10"
        d="M7.403 17.954a.958.958 0 0 1 .055-.306c.067-.187.19-.348.272-.528.051-.11.087-.228.107-.348"
      />
      <path
        fill="#FFF"
        d="M6.053 18.114a.79.79 0 0 0-.091.294c-.035.204-.07.41-.056.617.012.207.078.419.217.564.031.032.067.062.108.072.043.01.085.057.128.068.055.015.1.006.143.046.122.114.288.17.447.15.16-.019.223-.06.383-.031.062.01.216-.01.277-.027a.267.267 0 0 0 .1-.062c.26-.226.524-.528.496-.888a1.125 1.125 0 0 0-.113-.374c-.183-.405-.459-.725-.873-.854-.19-.06-.528-.093-.734.088-.134-.011-.355.214-.432.337z"
      />
      <path
        fill="none"
        stroke="#FFF"
        strokeWidth="0.17"
        strokeMiterlimit="10"
        d="M12.518 20.027a.955.955 0 0 1-.037-.309c.01-.198.08-.388.107-.584.017-.12.017-.243 0-.364"
      />
      <path
        fill="#FFF"
        d="M11.273 20.574a.79.79 0 0 0 0 .307c.026.205.052.413.125.607.073.194.197.378.373.476.039.022.081.04.124.037.044-.003.098.03.142.028.057-.002.097-.024.15.003.15.073.325.078.472.013.147-.065.196-.122.356-.142a.955.955 0 0 0 .258-.106.267.267 0 0 0 .077-.09c.184-.29.348-.657.216-.993a1.126 1.126 0 0 0-.217-.325c-.293-.333-.65-.56-1.084-.562-.199-.001-.532.065-.677.298-.131.029-.276.309-.315.449z"
      />
      <path
        fill="none"
        stroke="#FFF"
        strokeWidth="0.17"
        strokeMiterlimit="10"
        d="M15.364 20.805a.955.955 0 0 1-.036-.31c.009-.197.08-.387.106-.584.017-.12.017-.243.001-.363"
      />
      <path
        fill="#F6B2C0"
        d="M14.12 21.351a.79.79 0 0 0-.002.308c.027.205.054.413.126.607.073.194.197.377.373.476.039.022.081.04.124.037.044-.003.098.03.142.028.058-.002.098-.024.15.002.15.073.325.078.472.014.148-.065.196-.122.357-.142a.955.955 0 0 0 .257-.107.267.267 0 0 0 .077-.088c.184-.292.348-.658.217-.994a1.126 1.126 0 0 0-.218-.325c-.293-.333-.65-.56-1.084-.562-.199-.001-.532.065-.677.298-.131.029-.276.309-.315.448z"
      />
      <path
        fill="none"
        stroke="#FFF"
        strokeWidth="0.17"
        strokeMiterlimit="10"
        d="M18.114 20.646a.955.955 0 0 1-.037-.309c.01-.198-.244-.692-.217-.888.017-.12-.307-.166-.323-.287"
      />
      <path
        fill="#FFF"
        d="M16.868 21.193a.79.79 0 0 0 0 .308c.026.205.053.412.126.606.072.195.197.378.372.476.04.022.082.04.125.037.044-.003.097.03.141.029.058-.003.098-.024.151.002.15.073.325.078.471.013.148-.065.196-.122.357-.142a.955.955 0 0 0 .258-.106.267.267 0 0 0 .076-.089c.185-.292.348-.658.217-.994a1.128 1.128 0 0 0-.217-.325c-.294-.333-.65-.559-1.084-.562-.2-.001-.532.065-.677.298-.132.03-.277.31-.316.449z"
      />
      <g>
        <path
          fill="none"
          stroke="#FFF"
          strokeWidth="0.17"
          strokeMiterlimit="10"
          d="M5.124 15.805a.956.956 0 0 1-.003-.31c.031-.197.122-.378.17-.57"
        />
        <path
          fill="#F6B2C0"
          d="M3.826 16.212a.79.79 0 0 0-.035.306c.004.206.008.416.059.617.05.2.154.397.318.514a.232.232 0 0 0 .12.05c.043.002.093.04.137.044.058.004.1-.013.15.019.14.089.314.113.467.065.153-.049.208-.1.37-.102.063 0 .21-.05.267-.078a.268.268 0 0 0 .086-.08c.216-.27.419-.615.325-.964a1.126 1.126 0 0 0-.18-.346c-.256-.364-.585-.628-1.016-.678-.198-.023-.536.006-.706.222-.133.014-.308.276-.362.41z"
        />
      </g>
      <g>
        <path
          fill="none"
          stroke="#FFF"
          strokeWidth="0.17"
          strokeMiterlimit="10"
          d="M9.693 19.163a.956.956 0 0 1-.002-.312c.03-.195.121-.377.17-.569.03-.118.043-.24.04-.361"
        />
        <path
          fill="#F6B2C0"
          d="M8.395 19.569a.79.79 0 0 0-.034.306c.003.206.007.416.058.617.051.2.154.397.318.514a.232.232 0 0 0 .12.05c.044.002.094.04.138.044.057.004.1-.013.15.019.14.089.313.113.466.065.154-.049.208-.1.37-.102.063 0 .21-.05.268-.078a.268.268 0 0 0 .086-.08c.215-.27.418-.615.324-.964a1.126 1.126 0 0 0-.18-.346c-.255-.364-.585-.628-1.015-.678-.198-.023-.536.006-.706.222-.134.014-.309.276-.363.41z"
        />
      </g>
      <path
        fill="#68C3AB"
        d="M17.908 15.625c.68 1.277.168 3.02.51 4.08.054.172-.232.105-.41.122-3.16.307-4.426-.271-7.368-1.383-1.943-.734-4.6-1.954-5.688-3.906-.136-.245.06-.828 0-.684.172-.276.215-.144.546 0 4.067 1.765 7.71 1.325 12.05 1.543a.432.432 0 0 1 .36.228z"
      />
      <g>
        <path
          fill="none"
          stroke="#FFF"
          strokeWidth="0.192"
          strokeLinecap="round"
          strokeMiterlimit="10"
          d="M14.872 17.29c-.02.023-.041.047-.046.077-.006.041.018.08.04.112l.843 1.207 1.149-1.024a8.482 8.482 0 0 0-.386-.745c-.107-.183-.369-.756-.544-.863 0 0-.854 1.013-1.056 1.236z"
        />
      </g>
      <g>
        <path
          fill="none"
          stroke="#FFF"
          strokeWidth="0.192"
          strokeLinecap="round"
          strokeMiterlimit="10"
          d="M12.004 17.052c-.017.021-.035.044-.038.072-.005.037.019.07.04.1l.81 1.064 1.005-.973a7.687 7.687 0 0 0-.378-.662c-.104-.162-.364-.673-.526-.763 0 0-.738.952-.913 1.162z"
        />
      </g>
      <g>
        <path
          fill="none"
          stroke="#FFF"
          strokeWidth="0.192"
          strokeLinecap="round"
          strokeMiterlimit="10"
          d="M9.755 16.551c-.015.017-.03.034-.033.057-.004.03.014.057.03.08l.623.867.823-.754a6.116 6.116 0 0 0-.287-.536c-.08-.132-.275-.545-.403-.62 0 0-.61.742-.753.906z"
        />
      </g>
    </g>
  </svg>