<?xml version="1.0" encoding="utf-8"?>
<svg version="1.1" xmlns="http://www.w3.org/2000/svg" xmlns:xlink="http://www.w3.org/1999/xlink" x="0px" y="0px"
	 viewBox="0 0 23 23" style="enable-background:new 0 0 100 100;" xml:space="preserve">
	 <path
      fill="#F7C0D3"
      d="M10.323 12.672c.195-.13.394-.207.586-.353.236-.18.47-.36.702-.544.48-.378.917-.875 1.382-1.27 1.133-.962 2.275-2.38 3.35-3.407 1.008-.964 1.82-1.805 2.978-2.594.145-.099 1.44-.926 1.774-.22.13.272-.17.794-.535 1.178-.518.544-1.226 1.087-1.8 1.529-2.286 1.761-4.554 3.55-6.744 5.469-.357.313-.778.675-1.048 1.09-.079.122-.208.451-.328.404-.2-.08-.365-1.25-.317-1.282z"
    />
    <path
      fill="#F7C0D3"
      d="M8.402 15.238c.02-.058-.007-.173-.012-.246a2.952 2.952 0 0 1 .004-.634c.065-.439.242-.796.579-1.081.228-.194.466-.307.745-.406.207-.073.42-.125.608-.231.004.112.125.202.203.272.168.149.338.29.51.432.13.108.13.125.137.286.008.188.06.39.032.575-.024.162-.165.429-.269.55-.188.219-.344.266-.58.43-.226.157-.445.21-.7.294-.153.05-.302.11-.465.12-.187.01-.413-.072-.567-.176-.11-.074-.266-.211-.23-.366"
    />
    <path
      fill="#D9ECF4"
      d="M10.112 13.117a15.336 15.336 0 0 1-.334-.764c-.152-.394-.283-.796-.431-1.191A29.884 29.884 0 0 0 7.967 8.1C7.404 7.002 6.91 5.83 6.611 4.63c-.221-.888-.342-1.94-.023-2.822.346-.959 1.754.951 1.92 1.236.673 1.148 1.321 2.33 1.727 3.605.211.665.46 1.348.564 2.039.097.643.055 1.3-.053 1.94-.079.465-.171.916-.205 1.387-.012.167-.073.771-.146.89-.073.12-.205.225-.284.211zM7.352 12.009a72.377 72.377 0 0 1-3.392-2.47C2.777 8.622 1.67 7.618.757 6.427.45 6.027-.43 4.912.31 4.535c.598-.304 1.433.103 1.962.363 1.125.553 2.078 1.283 3.012 2.113.764.68 1.577 1.39 2.03 2.325.404.834.81 1.663 1.262 2.472.177.317.417.611.624.91.063.089.558.63.568.735.022.212-1.923-1.106-2.417-1.444zM10.042 13.736c-.049.015.234.239.295.31.284.325.542.69.758 1.064.668 1.16 1.294 2.325 2.21 3.315.836.906 1.82 1.983 3.005 2.417.537.197 1.057.255 1.612.368.478.097.986.242 1.476.248.241.003.539-.015.614-.285.106-.379-.08-.942-.208-1.29-.38-1.025-1.24-1.814-2.086-2.472-1.52-1.185-3.243-1.869-5.008-2.6-.532-.221-1.05-.484-1.567-.739-.331-.163-.773-.495-1.101-.336zM10.592 13.133c.018.125.456.312.59.384.522.282 1.09.46 1.634.688 1.048.44 2.132.926 3.226 1.22 1.279.345 2.579.423 3.888.52.761.058 1.533.09 2.29-.027.245-.038.822-.084.753-.463-.042-.23-.36-.52-.525-.65-.431-.342-.96-.639-1.446-.875-.504-.246-1.025-.438-1.541-.648-.514-.208-.987-.424-1.541-.487-1.149-.132-2.33-.119-3.48-.066-.966.045-1.927.115-2.89.211-.343.034-.709.014-.958.193z"
    />
    <path
      fill="#F7C0D3"
      d="M9.066 15.315c-.16.026-.332-.182-.466-.246-.24-.116-.72-.155-.883.087-.139.207-.285.412-.38.643-.119.29-.132.661-.015.955.207.521.882.44 1.268.19.144-.092.288-.182.416-.298.16-.145.288-.324.4-.508.107-.175.074-.341-.02-.518-.118-.219-.289-.268-.488-.363"
    />
    <path
      fill="#20211E"
      d="M7.973 15.154c-.288-.29-.708-.035-.754.331-.02.152.104.624.318.609.078-.006.192-.158.231-.206a.948.948 0 0 0 .178-.372c.031-.123.059-.276.027-.362zM9.184 15.827c-.273-.066-.5.152-.564.328-.101.28-.047.55.246.658.223.083.463.068.6-.154.122-.199.13-.415-.005-.61a.692.692 0 0 0-.277-.222z"
    />
  </svg>