<?xml version="1.0" encoding="utf-8"?>
<svg version="1.1" xmlns="http://www.w3.org/2000/svg" xmlns:xlink="http://www.w3.org/1999/xlink" x="0px" y="0px"
	 viewBox="0 0 23 23" style="enable-background:new 0 0 100 100;" xml:space="preserve">
	 <path
      d="M10.125 8.05c.222-.543.806-.891 1.392-.912s1.158.251 1.58.659c.16.155.303.33.48.465.216.164.486.266.756.249a.839.839 0 0 0 .672-.397c.134-.235.116-.558-.068-.757-.184-.199-.528-.236-.733-.059.155-.308.473-.524.814-.571s.699.068.958.295c.393.343.543.937.359 1.425s-.687.837-1.209.836c.032.5.261.985.626 1.329s.863.542 1.364.545c.24.001.493-.048.672-.206.16-.141.241-.353.279-.563a.742.742 0 0 0-.019-.405.484.484 0 0 0-.603-.261.485.485 0 0 0-.265.601c-.178-.156-.199-.443-.085-.65s.337-.337.568-.388a2.08 2.08 0 0 1 .703-.04c.21.026.435.103.591.246a.873.873 0 0 1 .212.347c.201.536.161 1.165-.135 1.655-.296.49-1.497 1.155-2.07 1.154.066.397.899.434 1.217.681.472.366 1.172.433 1.678.116.17-.106.326-.274.325-.474 0-.224-.221-.414-.445-.408-.224.006.463-.36.399-.144-.065-.286-.797-.048-.56-.222.237-.173.539-.234.832-.24.679-.014 1.116.391 1.411 1.003.138.286.277.569.247.885-.067.713-.599.863-1.189 1.269s-.979.567-1.669.377c-.19-.052-.437.315-.588.188.128.486.395.928.72 1.311.363.429.854.814 1.417.812a.814.814 0 0 0 .536-.179c.144-.127.297-.37.23-.551-.067-.18-.347-.383-.518-.294.236-.337.577-.348.971-.229.394.12.701.456.841.844.339.941-.297 2.014-1.178 2.488-.881.474-1.93.49-2.929.448-.642-.027-1.352-.104-1.781-.582-.325-.362-.411-.873-.63-1.307-.186-.367-.466-.676-.738-.984a48.098 48.098 0 0 1-4.523-5.992c-.213-.333-.425-.679-.498-1.067-.042-.223-.036-.453-.068-.677-.086-.607-.581-1.103-.349-1.669z"
      fill="#cf5587"
    />
    <path
      d="M13.065 7.362c.209.192.38.423.598.606s.503.315.781.258c.278-.057.507-.367.4-.63-.118-.29-.533-.329-.815-.192.281-.54.88-1.016 1.46-.831.179.057.334.171.469.301.59.568.803 1.554.347 2.234-.264.394-.708.64-1.168.759-.459.119-.939.126-1.414.131-.688.008-1.382.016-2.057-.115a2.304 2.304 0 0 1-.676-.222 1.522 1.522 0 0 1-.764-1.111c-.231-1.684 1.772-2.17 2.839-1.188zM16.966 12.646c.431.203.819.487 1.25.69.431.203.932.322 1.383.168.166-.057.326-.155.415-.306.089-.151.092-.361-.027-.491-.115-.126-.317-.146-.473-.075a.703.703 0 0 0-.335.372c-.039-.245.064-.494.218-.688.464-.586 1.393-.7 2.027-.303s.94 1.221.796 1.955c-.143.734-.692 1.357-1.372 1.67-.679.313-1.471.336-2.195.146-.507-.133-.983-.363-1.489-.499a4.181 4.181 0 0 0-1.426-.13c-.115.009-.24.022-.338-.039-.107-.066-.15-.198-.185-.319-.118-.408-.856-2.098-.595-2.407.164-.194.94-.097 1.164-.073.409.045.81.155 1.182.329z"
      fill="#cf5587"
    />
    <path
      d="M15.818 14.825a3.112 3.112 0 0 1 2.675.703c.606.538.98 1.297 1.583 1.839.221.199.489.371.786.379.297.008.614-.204.631-.501.017-.297-.388-.546-.605-.343.118-.343.542-.495.902-.443.772.112 1.294.965 1.199 1.739-.095.774-.684 1.422-1.382 1.77-.698.348-1.495.439-2.274.469-.874.033-1.754-.004-2.611-.179-.125-1.757-1.455-3.335-1.279-5.088.014-.154.223-.313.375-.345zM6.996 5.826c-.534.008-1.086.17-1.436.521-.23.231-.357.524-.529.79a3.085 3.085 0 0 1-.94.917c-.312.198-.678.35-1.065.356-.386.006-.791-.16-.958-.463.028.616.332 1.231.875 1.627.543.396 1.329.547 1.993.33.91-.297 1.407-1.164 2.251-1.582.446-.222 1.003-.329 1.297-.695.222-.275.505-1.074.256-1.392-.285-.362-1.299-.416-1.744-.409z"
      fill="#cf5587"
    />
    <path
      d="M17.484 21.477a19.579 19.579 0 0 0-.241-3.118c-.54-3.264-3.015-8.841-8.88-10.991 0 0-.322-.311-1.334.869s1.807 8.112 1.807 8.112c.346.504-.938 5.052-2.704 5.527.284.336 2.314.855 5.437 1.058 2.718.176 4.211-.245 5.915-1.457z"
      fill="#fff"
    />
    <path
      d="M10.844 14.06c-.563.88-1.25 1.635-2.194 2.05a5.007 5.007 0 0 1-2.904.342c-.294-.054-.58-.141-.866-.228-.237-.072-.464-.095-.701-.167-.105.34-.284.663-.547.901s-.617.388-.972.369a1.633 1.633 0 0 1-.526-.131c-.682-.282-1.211-.844-1.636-1.448-.327-.465-.565-.996-.481-1.558.902-.905 1.826-1.791 2.82-2.594.573-.462 1.168-.896 1.743-1.355 1.129-.899 2.179-1.895 3.32-2.78.276-.214.665-.14.966.036.548.32.961.827 1.302 1.362.288.453.534.936.699 1.447.395 1.226.737 2.565-.023 3.754z"
      fill="#fff"
    />
    <path
      d="M6.133 11.693c.165.347.444.649.801.791s.792.106 1.092-.134c.213-.17.345-.428.395-.696.05-.268.023-.545-.041-.81"
      fill="none"
      stroke="#348784"
      strokeWidth="0.567"
      strokeLinecap="round"
      strokeLinejoin="round"
      strokeMiterlimit="10"
    />
    <path
      d="M8.866 6.102a3.66 3.66 0 0 1 2.251-1.072c.231.661.466 1.339.453 2.039-.013.7-.327 1.438-.947 1.764-.649.341-1.297.108-1.812-.335-.175-.15-.433-.273-.549-.48-.146-.26-.095-.65-.017-.92.11-.381.346-.715.621-.996z"
      fill="#fff"
    />
    <path
      d="M9.138 8.213c-.233-.118-.34-.414-.287-.67s.238-.469.458-.61c.331-.214.742-.288 1.055-.529.066.281.124.568.119.857-.005.289-.076.584-.248.816-.121.163-.367.373-.585.367-.119-.004-.103-.043-.191-.098-.1-.062-.216-.08-.321-.133z"
      fill="#f17d82"
    />
    <path
      d="M8.038 6.876S6.042 4.531 5.17 3.388c-.41-.537-.996-1.27-1.511-1.855C3.043.834 2.284-.107 2.298.055c0 0-.01-.012 0 .058.353 2.402 2.978 6.591 3.737 8.906.861.047 1.027-.16 1.665-.712.185-.16.278-.544.382-.76a.674.674 0 0 0-.044-.671z"
      fill="#fcefb5"
    />
    <path
      d="M1.401 13.877c-.237.028-.343.312-.371.549-.026.222.003.501.209.589.167.071.357-.028.497-.144.193-.159.367-.39.324-.636a.444.444 0 0 0-.298-.34.44.44 0 0 0-.438.112"
      fill="#348784"
    />
    <path
      d="M12.817 9.961c-.041.031-.1.013-.148-.005-.315-.123-.633-.246-.92-.424a2.782 2.782 0 0 1-.838-.804c.095-.118.272-.207.423-.203s.297.056.438.11c.357.139.735.332.884.685.039.092.06.192.105.282.045.09.121.173.22.189-.063.083-.062.192-.164.17zM12.405 10.137c.265.546.615 1.059 1.078 1.452.463.393 1.045.661 1.651.685-.536-.58-.804-1.411-1.465-1.842-.412-.268-.956-.432-1.407-.611.041.107.093.212.143.316z"
      fill="#cf5587"
    />
    <path
      d="M16.331 14.757l-.226-.558c-.16-.395-.322-.794-.57-1.14-.277-.386.704-.547-1.091-.89-.054-.01-.099-.044-.151-.056.004.384.34.891.545 1.206a4.623 4.623 0 0 0 1.192 1.243c.058.041.277.136.301.195z"
      fill="#cf5587"
    />
  </svg>