<?xml version="1.0" encoding="utf-8"?>
<svg version="1.1" xmlns="http://www.w3.org/2000/svg" xmlns:xlink="http://www.w3.org/1999/xlink" x="0px" y="0px"
	 viewBox="0 0 23 23" style="enable-background:new 0 0 100 100;" xml:space="preserve">
	 <path
      d="M18.673 12.034a1.3 1.3 0 0 1-.545-.406 10.62 10.62 0 0 1 .514 3.468c-.331-1.121-.989-2.074-1.532-3.085-.25-.466-1.621-3.959-.385-3.844.435.041.849 1.021 1.02 1.381.377.79.679 1.635.928 2.486z"
      fill="#d8d0c4"
    />
    <path
      d="M3.824 12.436l.445-.648a8.175 8.175 0 0 0-.545 2.565c.283-.606.904-.899 1.326-1.393.279-.326.466-.735.649-1.137.39-.857.785-1.727.965-2.668.056-.292.09-.603-.001-.884-.471-1.456-1.417.676-1.653 1.155-.237.48-.455.973-.653 1.475-.174.44-.277 1.162-.533 1.535z"
      fill="#9d9d9d"
    />
    <path
      d="M4.283 12.334a9.8 9.8 0 0 0-.492 2.327c.115-.089.215-.194.295-.309a3.581 3.581 0 0 0-.016 1.222c.114-.043.219-.104.309-.179a2.62 2.62 0 0 0 .057.808c.018.078.059.172.149.181.136.013.222-.189.35-.146a3.15 3.15 0 0 0 .116 1.156c.03.104.074.216.178.273.104.057.277.007.273-.1.101.482.252.957.452 1.417l.26-.329c.083.445.248.88.487 1.282a.75.75 0 0 1 .312-.253c.204.448.523.855.927 1.183a.45.45 0 0 1 .252-.264c.208.426.5.821.856 1.163l.156-.231c.211.283.462.544.745.773l.153-.203c.154.295.493.476.813.639l.504.256c.124-.19.291-.441.468-.594l.066.216.822-.56.104.193a4.47 4.47 0 0 1 .735-.616l.114.219.725-.847c.082-.096.175-.198.308-.225.134-.026.303.077.267.193l.835-.915c.054.08.148.14.251.16l.452-.994.221.152.328-1.154.288.282.193-1.304.098-.532c.145.047.279.118.395.208a4.72 4.72 0 0 0 .063-.787l.22.168.07-1.164.226.134a7.826 7.826 0 0 0-.408-2.363 5.802 5.802 0 0 0-.764-1.546c-.831-1.16-2.244-1.962-3.757-2.251s-3.113-.083-4.509.471c-1.021.406-1.936.989-2.941 1.425-.841.365-1.735.571-2.006 1.365z"
      fill="#fff"
    />
    <path
      d="M11.6 6.355c-.317-.102-.658-.082-.987-.03-1.429.227-2.707 1.033-3.943 1.822-.447.286-.904.58-1.236 1.005-.253.323-.422.71-.554 1.105-.117.352-.207.721-.189 1.092.043.915.705 1.65 1.031 2.498l-.544.135a11.593 11.593 0 0 0 2.031 1.469l-.551.084c.476.398.876.895 1.171 1.454.218.412.381.861.661 1.229.627.825 1.697 1.085 2.683 1.294.226-1.092.084-2.322.145-3.438.049-.906.226-1.8.299-2.704.06-.748.048-1.5.037-2.251-.027-1.609-.029-3.153-.054-4.764z"
      fill="#fff"
    />
    <path
      d="M9.108 2.294A7.159 7.159 0 0 0 7.54.168c-.094-.087-.204-.176-.33-.167-.109.008-.198.088-.275.167-.724.744-1.165 1.741-1.411 2.765-.245 1.025-.308 2.085-.37 3.139-.023.385-.045.775.02 1.156.077.449.279.876.574 1.216 1.244-1.387 2.728-2.518 4.2-3.643.563-.43.327-.587-.038-1.011-.367-.428-.559-.992-.802-1.496z"
      fill="#aeadae"
    />
    <path
      d="M8.553 3.329c-.257-.639-.306-1.362-.644-1.959a.984.984 0 0 0-.337-.38C7.426.904 7.233.886 7.093.982c-.099.068-.159.182-.212.292a9.055 9.055 0 0 0-.687 1.963.391.391 0 0 1 .347-.04 5.404 5.404 0 0 0-.683 2.149l.262-.218c-.158.742-.244 1.5-.256 2.261.836-.387 1.464-1.116 2.144-1.747.192-.178.39-.35.593-.515.158-.128.565-.327.64-.524.107-.279-.56-.957-.688-1.274zM11.736 6.38c.324-.076.663-.029.986.049 1.406.34 2.616 1.246 3.785 2.132.423.321.855.65 1.152 1.1.226.343.364.741.464 1.145.089.36.148.735.101 1.104-.116.909-.834 1.588-1.228 2.408l.532.178c-.668.512-1.387.949-2.142 1.303l.543.128a4.853 4.853 0 0 0-1.283 1.356c-.25.393-.448.828-.757 1.172-.691.773-1.778.946-2.778 1.076-.138-1.107.102-2.322.13-3.438.023-.907-.082-1.812-.082-2.719 0-.751.072-1.499.143-2.247.154-1.604.28-3.143.434-4.747z"
      fill="#fff"
    />
    <path
      d="M14.683 2.571A7.18 7.18 0 0 1 16.357.528c.098-.082.213-.166.338-.151.108.013.193.098.266.181.685.78 1.075 1.798 1.267 2.834.193 1.035.201 2.098.209 3.153.003.386.005.776-.079 1.153-.1.445-.323.86-.636 1.185-1.171-1.449-2.595-2.655-4.008-3.854-.54-.458-.296-.603.09-1.008.39-.406.61-.959.879-1.45z"
      fill="#aeadae"
    />
    <path
      d="M15.069 3.66c.289-.625.375-1.344.743-1.923a.997.997 0 0 1 .356-.362c.15-.078.344-.086.479.017.096.073.149.19.197.302.27.638.467 1.31.586 1.996a.39.39 0 0 0-.345-.058c.34.673.536 1.422.571 2.181l-.25-.231c.12.749.167 1.511.14 2.271-.815-.429-1.405-1.189-2.052-1.855-.183-.188-.371-.37-.566-.545-.151-.136-.547-.356-.612-.556-.092-.284.609-.927.753-1.237z"
      fill="#fff"
    />
    <path
      d="M8.079 10.986c.087.371.439.641.813.715.181.036.371.033.546.092.175.058.343.203.347.387a1.23 1.23 0 0 0-.094-1.369.839.839 0 0 0-.339-.263.916.916 0 0 0-.375-.053c-.205.008-.405.055-.607.086-.183.028-.352.019-.533.013.042.034.096.055.135.094.08.079.083.193.107.298z"
      fill="#292c2d"
    />
    <path
      d="M8.459 11.128a.422.422 0 0 0 .048.178.554.554 0 0 0 .187.173c.1.066.201.1.32.11a.727.727 0 0 0 .375-.072c.086-.042.179-.09.218-.177.046-.102.003-.221-.045-.322a.853.853 0 0 0-.18-.269.625.625 0 0 0-.382-.145c-.118-.007-.331-.01-.428.073-.11.093-.123.32-.113.451z"
      fill="#cce5f2"
    />
    <path
      d="M8.849 11.083a.332.332 0 0 0 .132.099c.045.02.092.035.141.037a.292.292 0 0 0 .266-.155.29.29 0 0 0-.033-.306c-.079-.097-.314-.203-.431-.121-.12.084-.16.33-.075.446z"
      fill="#272d39"
    />
    <path
      d="M14.635 11.049c-.117.363-.489.604-.868.647-.184.021-.372.003-.552.047-.18.044-.358.174-.377.358a1.231 1.231 0 0 1 .205-1.357.842.842 0 0 1 .359-.235.926.926 0 0 1 .378-.022c.204.025.399.088.598.135.18.043.349.047.53.057-.044.03-.1.047-.142.083-.086.072-.098.185-.131.287z"
      fill="#292c2d"
    />
    <path
      d="M14.245 11.16a.423.423 0 0 1-.062.173.554.554 0 0 1-.201.157.65.65 0 0 1-.328.084.723.723 0 0 1-.368-.102c-.082-.048-.171-.104-.203-.194-.038-.106.015-.221.071-.318a.83.83 0 0 1 .202-.253.611.611 0 0 1 .392-.114c.118.003.33.017.421.107.102.103.097.33.076.46z"
      fill="#cce5f2"
    />
    <path
      d="M13.86 11.084a.32.32 0 0 1-.14.087.417.417 0 0 1-.144.026c-.109-.004-.212-.076-.253-.177s-.017-.224.058-.303c.086-.09.329-.177.439-.086.114.095.134.344.04.453z"
      fill="#272d39"
    />
    <path
      d="M11.21 17.612l.005.558v.023l-.023.013c-.413.241-.901.347-1.381.347-.463-.024-1.005-.055-1.376-.455-.345-.386-.448-.901-.456-1.369-.014-.474.013-.938.032-1.408.055.465.094.936.134 1.396.056.452.147.916.453 1.227.288.305.772.381 1.218.408a3.11 3.11 0 0 0 1.339-.219l-.022.037.077-.558z"
      fill="#afa290"
    />
    <path
      d="M11.207 17.67l.032.563-.019-.038c.411.21.864.311 1.317.325.447.01.935-.028 1.247-.309.329-.286.458-.741.549-1.187.077-.455.154-.922.246-1.381-.018.47-.029.935-.081 1.406-.045.466-.189.971-.563 1.328-.402.369-.945.357-1.408.343-.479-.038-.956-.183-1.349-.456l-.022-.015.002-.023.049-.556zM9.84 12.283c-.004.443-.146.863-.305 1.267-.185.394-.392.781-.699 1.099.308-.819.652-1.568 1.004-2.366zM12.838 12.346c.108.385.173.758.267 1.132.068.379.166.755.179 1.156-.197-.349-.309-.725-.405-1.107-.07-.386-.124-.786-.041-1.181z"
      fill="#afa290"
    />
    <path
      d="M10.01 19.206c.088.108.201.15.312.184a3.28 3.28 0 0 0 1.583.087c.129-.025.263-.059.375-.166.113-.107.292-.486.277-.686-.464-.015-1.012-.065-1.385-.476-.41.456-.918.271-1.401.323.16-.023.134.605.239.734z"
      fill="#afa290"
    />
    <path
      d="M4.382 10.993c.014-.101.059-.197.065-.298.014-.222-.158-.42-.164-.643a.893.893 0 0 1 .069-.317c.268-.759.882-1.637 1.354-2.289-.011.406-.588.871-.747 1.244a3.164 3.164 0 0 0-.201 1.803c.08.438.278.955.043 1.378.023-.294-.475-.485-.419-.878z"
      fill="#9d9d9d"
    />
    <path
      d="M4.971 6.18c.009-.17.044-.338.06-.508.033-.367-.028-.735-.023-1.103.014-.914.437-1.766.85-2.582-.27.856-.385 1.751-.439 2.645-.051.852.08 1.81-.083 2.642-.345-.009-.378-.851-.365-1.094zM14.158 3.244a5.257 5.257 0 0 1 1.076-1.348l-.52 1.023c-.248.487-.498.979-.838 1.407a.604.604 0 0 1-.224.197c-.121.051-.282.008-.303-.136-.022-.152.093-.155.183-.233.291-.254.439-.574.626-.91zM11.147 4.063c.067-.024.135-.049.207-.051.125-.004.243.061.367.064.117.003.241-.048.347 0 .034.015.063.04.098.053.068.025.143.003.216 0a.421.421 0 0 1 .361.179c-.285-.005-.571-.011-.855.013-.265.022-.856.23-1.096.121-.377-.17.215-.328.355-.379z"
      fill="#aeadae"
    />
    <path
      d="M5.481 13.606c.056.097.118.196.13.308.005.05 0 .1-.002.15-.009.194.038.408.191.527.059.046.131.075.181.13.054.058.077.137.117.205.234.397.93.303 1.146.71a.462.462 0 0 0-.432.117c.229.086.464.209.578.425.075.142.09.308.13.464.04.156.12.318.269.38l-.266-1.427c-.05-.269-.102-.543-.233-.783-.12-.221-.301-.403-.479-.581-.448-.448-.88-.921-1.347-1.35-.118-.108-.324-.285-.337-.056-.016.268.363.54.354.781zM15.78 15.859l-.282-.002a6.95 6.95 0 0 0 1.791-1.354c-.079-.104-.289-.101-.293-.232a.202.202 0 0 1 .029-.094l.408-.802-2.03 1.795c-.153.135-.309.274-.406.453-.109.201-.135.434-.177.659-.049.267-.122.53-.217.784-.076.203-.037.559-.025.766.557-.548.729-1.35 1.202-1.973z"
      fill="#fff"
    />
    <path
      d="M10.419 15.519a1.65 1.65 0 0 1 .689-.16c.266-.009.533.027.792.089.136.032.274.074.388.156.113.082.2.214.195.354l-1.5-.033a5.358 5.358 0 0 0-.457.004c-.08.005-.16.014-.238.028-.052.01-.191.076-.237.062-.249-.076.278-.456.368-.5z"
      fill="#454544"
    />
    <path
      d="M13.385 4.476a12.34 12.34 0 0 0-5.331.078c-2.269.539-3.258 3.428-4.218 5.554l.637-.128a7.519 7.519 0 0 0-1.245 4.003l.615-.748a4.38 4.38 0 0 0-.01 2.616l.276-.654c-.061 1.052.719 1.944 1.448 2.705a10.634 10.634 0 0 1 .105-3.321.777.777 0 0 0-.414.323 3.54 3.54 0 0 1 .757-2.196l-.498.193c.056-.255.203-.489.407-.651.049-.039.105-.079.121-.139.014-.052-.005-.106-.023-.156-.212-.595-.312-1.258-.103-1.852.209-.594.789-1.086 1.417-1.038l-.637-.403a2.018 2.018 0 0 1 1.952.34.919.919 0 0 0-.016-.414c.426.118.703.517.937.892.409.654.802 1.329 1.024 2.068.222.739.961-1.487.933-1.779a15.484 15.484 0 0 1-.032-2.575c.045-.638.138-1.297.478-1.838s.795-1.016 1.42-.88z"
      fill="#aeadae"
    />
    <path
      d="M9.225 4.407a12.34 12.34 0 0 1 5.331.078c2.269.539 3.258 3.428 4.218 5.554a143.53 143.53 0 0 0-.637-.128 7.519 7.519 0 0 1 1.245 4.003l-.615-.748c.27.844.273 1.77.01 2.616l-.276-.654c.061 1.052-.719 1.944-1.448 2.705a10.634 10.634 0 0 0-.105-3.321c.17.055.319.172.414.323a3.54 3.54 0 0 0-.757-2.196l.498.193a1.157 1.157 0 0 0-.407-.651c-.049-.039-.105-.079-.121-.139-.014-.052.005-.106.023-.156.212-.593.311-1.255.102-1.85-.209-.594-.789-1.086-1.417-1.038l.637-.403a2.018 2.018 0 0 0-1.952.34.919.919 0 0 1 .016-.414c-.426.118-.703.517-.937.892-.409.654-.802 1.329-1.024 2.068s-.961-1.487-.933-1.779c.082-.855.093-1.718.032-2.575-.045-.638-.138-1.297-.478-1.838s-.793-1.017-1.419-.882z"
      fill="#aeadae"
    />
    <path
      d="M11.458 8.483c-.303-.027-.561.247-.645.539-.051.177-.056.366-.119.539-.043.119-.111.227-.16.344-.173.417-.14.896-.036 1.316.162.65.256 1.192.267 1.715.011.535-.054 1.166-.105 1.698-.014.143-.254 1.296-.351 1.302.339-.023.678-.028 1.018-.017"
      fill="#aeadae"
    />
    <path
      d="M11.132 8.483c.303-.027.561.247.645.539.051.177.056.366.119.539.043.119.111.227.16.344.173.417.14.896.036 1.316-.162.65-.256 1.192-.267 1.715-.011.535.054 1.166.105 1.698.014.143.254 1.296.351 1.302a10.166 10.166 0 0 0-1.018-.017"
      fill="#aeadae"
    />
    <path
      d="M12.648 16.089c-.077-.262-.303-.456-.55-.556-.166-.067-.415-.102-.641-.123v-.007l-.081-.001-.221-.017-.001.017c-.227.002-.477.014-.648.068-.255.08-.495.255-.593.51-.073.191-.059.406-.018.607.038.187.101.374.218.523.161.205.4.307.637.387.11.037.221.069.331.104.087.012.174.015.272.011.113-.026.226-.049.338-.077.242-.061.489-.144.666-.335a1.23 1.23 0 0 0 .259-.504c.058-.197.089-.411.032-.607z"
      fill="#454544"
    />
    <g>
      <path
        d="M8.532 6.704c.182.144.241.351.362.55"
        fill="none"
        stroke="#d5d7d8"
        strokeWidth="0.348"
        strokeLinecap="round"
        strokeLinejoin="round"
        strokeMiterlimit="10"
      />
    </g>
    <g
      fill="none"
      stroke="#d5d7d8"
      strokeWidth="0.348"
      strokeLinecap="round"
      strokeLinejoin="round"
      strokeMiterlimit="10"
    >
      <path d="M9.627 5.607c.135.242.2.373.308.628M10.224 7.637l.168.659M11.235 6.727l.067.703M11.823 5.201l.139.661M12.677 6.861l-.106.65M13.843 5.618c-.124.261-.106.436-.23.698M11.626 8.736c-.041.151.008.482-.033.634M14.273 7.1c-.165.193-.188.358-.353.551M12.728 8.299c-.115.179-.083.37-.157.569M10.664 9.57c.054.166.099.336.136.507" />
    </g>
  </svg>