<?xml version="1.0" encoding="utf-8"?>
<svg version="1.1" xmlns="http://www.w3.org/2000/svg" xmlns:xlink="http://www.w3.org/1999/xlink" x="0px" y="0px"
	 viewBox="0 0 23 23" style="enable-background:new 0 0 100 100;" xml:space="preserve">
	 <path
      d="M.285 10.427c.041-.129.137-.232.233-.327.301-.3.623-.578.965-.83.101-.075.21-.15.335-.161.173-.016.331.094.467.203.129.103.254.211.375.322.024.022.049.047.051.08.001.023-.011.045-.022.065a1.816 1.816 0 0 1-.298.394c-.19.191-.419.338-.617.519-.291.266-.547.625-.935.69-.328.055-.641-.679-.554-.955zM12.665 1.442c-.135-.005-.264.052-.386.111a8.682 8.682 0 0 0-1.104.633c-.104.07-.211.148-.263.262-.073.158-.022.344.036.508.054.156.114.31.179.461.013.03.028.062.058.075a.124.124 0 0 0 .069.002c.163-.028.321-.079.47-.15.243-.115.458-.282.695-.409.348-.185.771-.307.962-.652.161-.291-.427-.831-.716-.841z"
      fill="#787b7b"
    />
    <path
      d="M14.901 1.635c-1.026.042-2.012.436-2.922.922-.837.447-1.629.975-2.413 1.511-2.078 1.418-4.117 2.895-6.069 4.483-.883.718-1.753 1.464-2.462 2.352-.502.628-1.103 1.316-1.035 2.108.083.967.517 1.861.954 2.724a115.014 115.014 0 0 0 1.98 3.739c.422.764.941 1.485 1.681 1.951.64.404 1.49.463 2.19.152s1.23-.981 1.367-1.73c.077-.422.036-.854-.005-1.28l-.12-1.236a20.272 20.272 0 0 0-.134-1.151c.275.131.602.074.904.015.741-.146 1.441-.564 1.869-1.187s.561-1.452.286-2.147c.49-.324.92-.744 1.356-1.138a2.466 2.466 0 0 0 2.633.511c.889-.37 1.531-1.265 1.621-2.216.699.343 1.31.686 2.009 1.029.692.34 1.423.688 2.198.648a2.368 2.368 0 0 0 1.722-.9 2.329 2.329 0 0 0 .437-1.881c-.384-1.813-2.217-3.107-3.533-4.407-.448-.44-.915-.897-1.377-1.323-.231-.213-.462-.426-.713-.615-.724-.544-1.511-.972-2.424-.934z"
      fill="#787b7b"
    />
    <path
      d="M10.371 12.066c-.377-.287-.774-.582-1.24-.668-.399-.073-.809.015-1.198.13-.308.092-.605.213-.817.454-.189-.655-.634-1.206-1.129-1.676-.227-.216-.471-.421-.755-.557a2.882 2.882 0 0 0-.567-.189c-.599-.144-1.23-.198-1.831-.06-.939.216-1.736.881-2.31 1.656-.376.507-.482 1.168-.454 1.798.032.727.234 1.452.63 2.063a3.625 3.625 0 0 0 2.926 1.622 3.625 3.625 0 0 0 2.979-1.521c.19.383.567.629.953.813.158.075.32.144.489.187.245.062.502.069.754.042a2.847 2.847 0 0 0 1.01-.307c.366-.192.614-.509.855-.845s.407-.732.436-1.145c.046-.662-.266-1.309-.709-1.803-.008-.009-.019-.018-.03-.014s-.001.027.008.02zM11.824 11.229c-.145-.451-.291-.923-.216-1.392.064-.401.284-.758.522-1.086.189-.26.402-.499.7-.619-.554-.396-.926-1-1.204-1.622-.128-.287-.24-.585-.274-.898a2.847 2.847 0 0 1 .011-.598c.064-.613.223-1.226.554-1.746.517-.814 1.409-1.343 2.331-1.627.603-.185 1.262-.066 1.847.171.674.273 1.292.704 1.735 1.281.708.92.922 2.198.554 3.299s-1.308 1.992-2.427 2.302c.298.307.404.744.449 1.17.019.174.03.349.014.524a2.145 2.145 0 0 1-.211.725 2.83 2.83 0 0 1-.626.85c-.303.281-.684.409-1.081.524-.397.115-.826.14-1.225.029-.639-.177-1.145-.687-1.464-1.269-.006-.01-.011-.024-.004-.033.008-.009.026.009.015.015z"
      fill="#a4a4a4"
    />
    <circle cx="8.474" cy="13.942" r="1.635" fill="#28241f" />
    <circle cx="13.929" cy="10.084" r="1.635" fill="#28241f" />
    <g fill="#28241f">
      <path d="M4.671 13.33l-.769-1.087-.738-1.044c-.086-.122-.235-.056-.235-.056s-.693.477-.8.566c-.107.089-.046.267-.046.267l.732 1.035-1.035.733s-.117.148-.046.267c.071.119.566.8.566.8s.118.112.24.026l1.043-.738.074.104.665.939c.086.122.235.055.235.055s.693-.477.8-.566c.107-.089.046-.267.046-.267l-.658-.931-.017-.024-.057-.079z" />
      <path d="M5.715 12.592c.122-.086.056-.235.056-.235s-.477-.694-.566-.8c-.088-.107-.267-.046-.267-.046l-1.035.732.769 1.087 1.043-.738z" />
    </g>
    <circle cx="13.402" cy="6.372" r="0.907" fill="#a6d8e3" />
    <circle cx="15.932" cy="6.806" r="0.907" fill="#9bc877" />
    <circle cx="16.387" cy="4.307" r="0.907" fill="#db4940" />
    <circle cx="13.858" cy="3.873" r="0.907" fill="#f8d155" />
    <path
      d="M8.373 10.563a1.957 1.957 0 0 0-.269-.351c-.012-.013-.026-.026-.043-.029-.018-.003-.037.005-.053.014a1.813 1.813 0 0 0-.202.134l-.391.285a.463.463 0 0 0-.14.135.091.091 0 0 0-.015.05c.002.022.017.04.031.057l.262.315c.029-.003.044-.022.069-.037.217-.125.43-.257.638-.395.061-.041.151-.115.113-.178zM11.748 7.97c-.286.04-.564.132-.841.222a.544.544 0 0 0-.159.072c-.047.035-.056.096-.052.151.118.157.232.317.342.479-.007-.003.008-.029.013-.024.005.005.015.004.023.002.087-.022.137-.112.182-.188.142-.237.371-.467.492-.714zM9.9 10.805l.804-.569.252.358-.804.568z"
      fill="#28241f"
    />
  </svg>