<?xml version="1.0" encoding="utf-8"?>
<svg version="1.1" xmlns="http://www.w3.org/2000/svg" xmlns:xlink="http://www.w3.org/1999/xlink" x="0px" y="0px"
	 viewBox="0 0 23 23" style="enable-background:new 0 0 100 100;" xml:space="preserve">
	 <path
      d="M10.404 17.687c-1.06-1.893-1.68-3.739-1.839-4.892a21 21 0 0 1-.186-1.937l-1.639-.351-1.094 1.27s.452.641 1.021 1.656 1.189 2.861 1.488 5.01c.298 2.149.8 3.546 1.408 4.189.607.644 1.341.267 1.341.267s.812-.142.908-1.022c.095-.881-.348-2.297-1.408-4.19z"
      fill="#f5daa6"
    />
    <path
      d="M6.769.679c-.643.886-1.554 1.589-2.671 1.964s-2.268.365-3.315.048C.241 4.191.468 5.75.763 6.718c.321 1.053 1.353 2.652 2.52 3.374s1.987 1.2 2.364 1.685c0 0 .291-.474 1.243-.826.971-.295 1.489-.093 1.489-.093.008-.615.374-1.491.867-2.771.494-1.279.351-3.177-.029-4.21-.349-.95-1.11-2.33-2.448-3.198z"
      fill="#dd374b"
    />
    <path
      d="M.497 3.807L1.91 5.112l.911-1.539S4.224 4.75 4.24 4.688s.737-1.728.737-1.728l1.558.805.45-1.775 1.442.384S7.747 1.157 6.769.678.783 2.691.783 2.691s-.222.593-.286 1.116z"
      fill="#f4b06c"
    />
    <g fill="#fadc5f">
      <path d="M6.403.461C4.834-.377 3.278.205 3.278.205S1.687.68.943 2.295c-.064.14-.121.281-.172.422L6.795.693a5.051 5.051 0 0 0-.392-.232zM4.11 2.679A5.488 5.488 0 0 0 6.793.694L.771 2.717a5.506 5.506 0 0 0 3.339-.038z" />
    </g>
    <g fill="#fadc5f">
      <path d="M5.196 6.466a2.443 2.443 0 0 1-.403-.94c-.026-.131-.006-.31.176-.381a.326.326 0 0 1 .311.041c.07.058.096.141.118.221.144.545.238 1.123.184 1.708a7.706 7.706 0 0 0-.386-.649zM5.965 6.375c.058-.346.185-.667.375-.952.074-.111.214-.224.393-.147a.328.328 0 0 1 .193.248c.009.091-.031.167-.072.24-.282.489-.623.966-1.074 1.343a7.6 7.6 0 0 0 .185-.732zM6.565 6.846c.283-.206.599-.347.934-.417.13-.027.31-.01.383.17a.326.326 0 0 1-.036.312c-.058.072-.14.099-.22.122-.543.151-1.12.253-1.706.207-.022.016.436-.243.645-.394zM4.717 7.241c-.348.041-.692.01-1.018-.092-.128-.039-.276-.142-.252-.335a.323.323 0 0 1 .184-.255c.085-.035.17-.018.251.001.548.133 1.101.326 1.59.652.027-.003-.5-.001-.755.029zM4.896 7.966a2.44 2.44 0 0 1-.85.569c-.124.049-.303.062-.407-.103a.328.328 0 0 1-.017-.314c.044-.08.121-.12.196-.156.509-.241 1.06-.439 1.646-.493.02-.02-.389.313-.568.497zM5.722 8.223a2.44 2.44 0 0 1-.052 1.022c-.034.128-.131.28-.325.264-.122-.01-.225-.09-.262-.174s-.024-.168-.009-.25c.112-.553.282-1.113.588-1.615-.004-.027.02.499.06.753zM6.491 7.781c.317.149.592.358.815.618.087.101.158.266.035.418a.327.327 0 0 1-.291.119c-.09-.016-.153-.075-.212-.135-.394-.402-.761-.859-1.003-1.395a7.92 7.92 0 0 0 .656.375z" />
    </g>
    <g>
      <path
        d="M8.093 18.362c1.35-1.699 2.822-2.973 3.829-3.557 1.006-.584 1.722-.906 1.722-.906l-.296-1.65-1.59-.53s-.421.661-1.145 1.573c-.723.912-2.196 2.185-4.071 3.277C4.666 17.66 3.565 18.654 3.2 19.46c-.365.806.262 1.342.262 1.342s.44.697 1.29.452c.849-.246 1.991-1.193 3.341-2.892z"
        fill="#f5daa6"
      />
      <path
        d="M22.452 8.549a5.434 5.434 0 0 1-4.131-4.777c-1.593.067-2.95.869-3.734 1.508-.853.696-1.941 2.258-2.167 3.611-.226 1.353-.356 2.293-.662 2.827 0 0 .549.09 1.235.837.641.786.65 1.343.65 1.343.572-.226 1.521-.22 2.893-.248 1.372-.029 3.074-.88 3.885-1.624.747-.683 1.735-1.91 2.031-3.477z"
        fill="#dd374b"
      />
      <path
        d="M17.179 3.931l-.672 1.803 1.77.259s-.558 1.744-.494 1.736c.064-.008 1.878.027 1.878.027l-.154 1.747 1.813-.257.191 1.48s.868-1.091.94-2.177c.073-1.086-4.132-4.776-4.132-4.776s-.632.019-1.14.158z"
        fill="#f4b06c"
      />
      <g fill="#fadc5f">
        <path d="M22.515 8.127c.181-1.769-.948-2.988-.948-2.988s-1.044-1.293-2.82-1.369a4.928 4.928 0 0 0-.455.001l4.157 4.807c.028-.147.051-.298.066-.451zM19.593 6.847a5.501 5.501 0 0 0 2.854 1.73l-4.156-4.805a5.504 5.504 0 0 0 1.302 3.075z" />
      </g>
      <g fill="#fadc5f">
        <path d="M16.501 9.288c.188-.295.43-.542.716-.73.111-.073.284-.123.419.018.085.089.108.217.081.304s-.094.142-.16.193c-.45.34-.949.646-1.511.818-.015.023.317-.386.455-.603zM16.877 9.964a2.43 2.43 0 0 1 1.022-.013c.131.026.289.113.285.308a.325.325 0 0 1-.157.273c-.081.043-.167.035-.25.024-.558-.076-1.128-.21-1.649-.484a7.71 7.71 0 0 0 .749-.108zM16.668 10.698c.298.184.548.423.739.706.075.11.127.283-.012.419a.324.324 0 0 1-.303.085c-.087-.026-.143-.092-.195-.157-.346-.445-.658-.94-.838-1.5a7.8 7.8 0 0 0 .609.447zM15.601 9.139a2.434 2.434 0 0 1-.301-.977c-.011-.133.027-.309.215-.36a.325.325 0 0 1 .306.074c.064.065.08.15.094.233.085.557.116 1.142 0 1.718a7.786 7.786 0 0 0-.314-.688zM14.999 9.579a2.424 2.424 0 0 1-.848-.571c-.092-.096-.173-.257-.059-.415a.325.325 0 0 1 .284-.135c.091.011.157.066.219.122.416.38.808.815 1.08 1.336a7.791 7.791 0 0 0-.676-.337zM15.074 10.441a2.44 2.44 0 0 1-.964.34c-.132.017-.31-.015-.368-.201a.326.326 0 0 1 .061-.308c.063-.066.147-.086.229-.103.553-.107 1.136-.161 1.717-.068a7.383 7.383 0 0 0-.675.34zM15.775 10.985c-.018.35-.107.684-.263.988-.061.119-.187.247-.373.191a.324.324 0 0 1-.22-.224c-.019-.089.011-.17.044-.247.223-.517.507-1.03.91-1.457a7.924 7.924 0 0 0-.098.749z" />
      </g>
    </g>
  </svg>