<?xml version="1.0" encoding="utf-8"?>
<svg version="1.1" xmlns="http://www.w3.org/2000/svg" xmlns:xlink="http://www.w3.org/1999/xlink" x="0px" y="0px"
	 viewBox="0 0 23 23" style="enable-background:new 0 0 100 100;" xml:space="preserve">
	 <g fill="#FFF">
      <path d="M18.94 12.89c-.937-.166-1.923-.218-2.898-.253.935-.194 1.846-.494 2.75-.79.773-.254 3.9-1.288 3.594-2.564-.12-.502-.853-.64-1.284-.683-1.18-.118-2.33.404-3.388.886-.997.455-1.98.936-2.925 1.475.229-.213.465-.423.703-.553.9-.49 1.785-1.085 2.63-1.668 1.038-.716 2.053-1.407 2.838-2.417.174-.224.582-.614.27-.851-.27-.206-.987-.017-1.253.062-1.259.374-2.416 1.33-3.363 2.197-.49.448-1.251 1.057-1.879 1.715.686-1.017 1.38-2.038 2.05-3.047.599-.9 1.288-1.91 1.686-2.92.114-.288.509-1.09.166-1.287-1.874-1.075-3.809 2.96-4.917 5.98.359-1.187.801-2.468.94-3.484.125-.92 1.04-4.926-.873-4.591-.791.138-1.083 1.002-1.43 1.627-.574 1.033-.692 2.288-.746 3.449-.055 1.183-.143 2.828-.06 4.336-.154-1.204-.324-2.482-.605-3.458-.253-.879-1.534-6.133-3.118-4.976-.711.52-.598 2.075-.502 2.868.145 1.203.66 1.881 1.125 2.964.252.587 1.613 2.629 1.868 3.212.03.07.038.117.033.153-.706-.821-1.227-1.922-1.784-2.784-.772-1.194-1.605-2.58-2.775-3.43-.535-.387-1.576-.857-2.214-.498-1.583.892 1.631 3.79 2.239 4.347.603.554 1.276 1.138 1.996 1.651-1.07-.677-2.246-1.232-3.36-1.673-.678-.27-1.98-1.015-2.74-.647-.792.382.07 1.198.396 1.542.838.888 1.849 1.495 2.946 2.01.066.032.223.107.418.196-1.113-.196-2.248-.276-3.304-.104-.539.088-1.203.112-.8.772.627 1.03 2.249 1.348 3.318 1.577 1.04.223 2.127.41 3.199.491-.046.004-.098.011-.141.013-1.326.061-2.65.122-3.974.199-.734.042-4.647.31-2.711 1.696.95.682 2.417.518 3.538.456.522-.029 1.124-.143 1.727-.285-1.175.627-2.46 1.403-3.285 2.426-.49.607-.248.94.512 1.02 1.03.107 2.169-.383 3.1-.768.963-.398 1.987-1.417 2.783-2.088.01-.009.023-.017.033-.025-.364.415-.752.83-1.226 1.242-.532.463-2.812 2.71-1.97 3.67.865.985 2.65-1.19 3.163-1.802.933-1.112 1.482-2.861 2.262-4.065-.57 1.575-1.037 3.139-1.128 4.837-.025.471-.21 3.255 1.034 2.566.44-.244.6-.875.74-1.313.27-.853.472-1.748.599-2.633.16-1.119.549-2.694.062-3.78.661 1.586.77 3.34 1.53 4.906.375.773 2.157 3.4 3.08 1.826.387-.66-.948-3.346-1.78-4.68-.112-.18-.218-.365-.325-.55.504.462.994.858 1.337 1.088.67.527 1.56 1.143 2.426 1.252.355.045.89.075.947-.383.077-.624-.966-1.44-1.36-1.823-.763-.741-2.082-1.572-3.408-2.272.968.333 1.958.678 2.905.931.96.257 3.713.821 4.084-.657.367-1.466-2.626-1.681-3.502-1.836zm-9.014-.688a.472.472 0 0 0 .232-.115c.033.067.065.137.1.197a.69.69 0 0 1-.331-.082zm.877 2.64a.918.918 0 0 0-.135-.334c.091-.044.175-.075.272-.128.185-.102.394-.21.585-.252-.264.238-.499.476-.722.714zm3.344-1.037c-.472-.217-.914-.4-1.31-.548.207.133.435.343.525.642l-3.139-1.95c.042-.32-.428-.811-.683-1.066a9.101 9.101 0 0 0-1.014-.853 7.77 7.77 0 0 0 1.46.698c.031.054.061.108.094.16l1.714.512c.037.167.072.339.12.49l1.32-1.13c-.017-.181-.009-.387.016-.61l.392.262-.407.348c.03.302.124.543.314.692.014-.062.062-.131.117-.22a.533.533 0 0 0 .374.174c.031 0 .231.023.26 0 .063-.052.13-.114.195-.174l.066 1.446-.414 1.127z" />
      <path d="M12.686 13.198c.047.017.103.041.151.06-.334-.215-.611-.224-.151-.06z" />
    </g>
    <path
      fill="#FED065"
      d="M14.872 13.154a.202.202 0 0 1-.001.216c-.013.02-.03.038-.037.06-.006.02-.004.042-.004.064a.238.238 0 0 1-.136.209.234.234 0 0 1-.077.234c-.027.022-.056.032-.057.067a.302.302 0 0 1-.253.281.5.5 0 0 1-.375.431c.007.122-.111.236-.234.226a.367.367 0 0 1-.1.132.591.591 0 0 1-.17.13c-.065.03-.148.031-.204-.014-.004.051-.048.09-.096.109s-.1.02-.15.03c-.118.023-.222.086-.325.146-.032.018-.066.036-.102.03-.023-.004-.044-.018-.067-.02-.071-.008-.115.088-.186.096-.056.006-.104-.046-.16-.049-.045-.002-.086.027-.13.04a.194.194 0 0 1-.173-.031c-.013-.01-.025-.023-.04-.027-.019-.005-.038.002-.056.008a1.31 1.31 0 0 1-.305.063c-.038.004-.08.004-.111-.018-.038-.026-.054-.08-.097-.096-.04-.013-.08.012-.115.034-.07.043-.15.078-.231.073s-.165-.063-.176-.144c-.084.097-.316.113-.347-.011-.013-.055-.085-.066-.142-.063s-.126.002-.152-.048c-.017-.032-.018-.084-.054-.085-.022 0-.037.021-.056.032-.053.032-.114-.03-.134-.087-.02-.058-.033-.13-.09-.153 0 .044-.062.066-.1.045-.04-.022-.057-.067-.07-.11s-.024-.087-.057-.117c-.031.066-.138.078-.183.02-.033-.042-.03-.1-.038-.153-.008-.053-.042-.113-.096-.11-.022.001-.043.014-.065.017-.068.01-.116-.067-.123-.135-.006-.067.01-.139-.016-.201-.014.042-.08.041-.112.01-.031-.033-.039-.08-.052-.123-.013-.042-.04-.088-.084-.095-.015-.002-.031 0-.047 0-.07-.002-.122-.07-.131-.138a.438.438 0 0 1 .038-.2c-.06.034-.14-.023-.153-.091-.014-.068.017-.136.047-.198-.018.019-.051.01-.066-.011-.014-.02-.015-.048-.016-.073l-.002-.192c-.065.009-.12-.057-.124-.121a.357.357 0 0 1 .055-.183c-.076-.058-.101-.164-.088-.258a.907.907 0 0 1 .109-.28c-.114-.103-.09-.315.043-.392-.1-.095-.083-.284.035-.359a.266.266 0 0 1 .06-.306.408.408 0 0 1 .225-.498.392.392 0 0 1 .235-.509.367.367 0 0 1 .313-.342.185.185 0 0 1 .17-.188c.025-.001.055.001.071-.018.013-.014.013-.035.014-.054.013-.148.2-.25.333-.182.037-.16.238-.26.39-.195.04-.116.21-.102.317-.166.038-.024.068-.059.107-.08a.205.205 0 0 1 .234.026c.014-.133.184-.223.303-.16a.258.258 0 0 1 .344-.08c.021.012.041.03.065.034.043.007.081-.023.12-.044a.288.288 0 0 1 .352.075.231.231 0 0 1 .148-.08c.058-.004.12.031.131.088.068-.096.243-.079.29.028.05-.054.134-.076.205-.055s.128.087.14.16a.224.224 0 0 1 .223-.01.22.22 0 0 1 .114.19.21.21 0 0 1 .242.15c.089.015.169.077.205.159a.33.33 0 0 1 .333.216c.116 0 .203.144.148.244.085.018.174.047.23.112s.064.178-.004.231c.11.09.145.257.081.383.1.056.17.161.183.275-.02-.01.015.023.033.037.1.079.149.218.118.341-.008.03-.02.06-.023.092-.005.073.041.138.074.203s.047.155-.009.203a.66.66 0 0 1 .012.481c.076.071.065.193.047.295a.412.412 0 0 1-.034.119c-.014.027-.034.052-.042.081-.016.06.02.12.027.18.007.062-.037.185-.086.147z"
    />
    <path
      fill="#FED065"
      d="M8.692 10.787c-.283.634-.35 1.346-.31 2.038.022.4.08.805.263 1.161.158.308.401.564.666.788.311.264.66.491 1.05.615.357.114.736.138 1.11.147.623.015 1.274-.017 1.818-.32.269-.151.498-.362.717-.58.228-.227.449-.466.605-.748.187-.335.273-.718.316-1.1.116-1.036-.104-2.143-.77-2.946-1.154-1.39-3.262-1.257-4.582-.188a3.099 3.099 0 0 0-.883 1.133z"
    />
    <path
      opacity="0.77"
      fill="#E3AC37"
      d="M10.2 11.762l.021-.427c.004-.084.018-.183.093-.222.046-.024.102-.015.153-.025.152-.03.216-.204.29-.34.073-.136.255-.26.367-.154.018.017.032.04.053.055.076.056.18-.016.237-.09.057-.075.126-.168.22-.156.084.01.133.103.21.142.108.057.252-.004.357.06.096.059.122.204.228.242.075.027.16-.013.237.01.103.03.142.156.146.264.005.107-.005.224.058.311.056.078.16.114.205.198.08.15-.071.347.008.497.026.049.073.083.103.13a.431.431 0 0 1 .05.197c.015.182.03.367-.008.546-.037.179-.138.354-.3.437-.189.097-.465.087-.547.283-.02.047-.029.107-.075.128-.04.017-.085-.005-.127-.016-.202-.05-.4.177-.6.122-.148-.04-.24-.222-.392-.222-.083 0-.16.057-.243.046-.158-.02-.187-.248-.317-.34-.056-.04-.126-.05-.187-.081-.116-.06-.183-.184-.243-.3-.142-.276-.286-.56-.317-.868-.03-.309.079-.652.345-.811"
    />
  </svg>