<?xml version="1.0" encoding="utf-8"?>
<svg version="1.1" xmlns="http://www.w3.org/2000/svg" xmlns:xlink="http://www.w3.org/1999/xlink" x="0px" y="0px"
	 viewBox="0 0 23 23" style="enable-background:new 0 0 100 100;" xml:space="preserve">
	 <path
      fill="#275672"
      d="M19.066 2.897c.459-.817.55-1.831.241-2.716a3.568 3.568 0 0 1 1.826 2.307 3.569 3.569 0 0 1-.565 2.887c-.44.61-1.06 1.061-1.67 1.502.091-.066-1.622-2.046-1.568-2.33.059-.306.683-.505.913-.689.332-.264.615-.59.823-.961zM2.62 3.03C2.796 1.857 3.466.787 4.368.018c.11.502-.092 1.017-.11 1.53-.025.66.259 1.302.661 1.826s.919.946 1.43 1.364c-.372.091-.703.302-1.025.51-.59.378-1.223.92-1.867 1.162-.036-.542-.499-.989-.673-1.506A3.988 3.988 0 0 1 2.62 3.03z"
    />
    <path
      fill="#414142"
      d="M7.689 18.936c-.55.532-.267 2.282-.127 3.099-.43-.129-1.898.375-1.817.686.099.378 1.595.235 1.988.234.816 0 .729-.119.69-.79-.04-.707.002-1.43.21-2.116.145-.478.472-.995.517-1.471-.697-.033-1.442-.057-1.461.358zM14.98 18.936c.55.532.268 2.282.127 3.099.43-.129 1.898.375 1.817.686-.099.378-1.595.235-1.987.234-.816 0-.73-.119-.691-.79.04-.707-.002-1.43-.21-2.116-.144-.478-.472-.995-.517-1.471.698-.033 1.442-.057 1.461.358z"
    />
    <path
      fill="#6EA7B5"
      d="M6.553 18.17c.262.288.075 1.332.552 1.514 1.265.484 3.19.784 4.734.819 1.421.032 2.507.385 3.912.122 1.123-.21 1.018-1.388 1.566-2.047.315.262.679.705.898 1.04.916-1.156.785-2.64.998-3.863.348.167.618.403.849.672.05.058.16.032.17-.04.261-2.01.661-3.94-.385-5.839-.054.202-.338.431-.347.646-.022.532-.216 1.089-.462 1.58-.59 1.18-1.762 1.882-3.174 2.297-2.608.764-5.616.6-8.172-.2-1.888-.59-3.43-1.155-3.84-2.46-.575-.056-1.13 1.784-1.273 2.18-.233.64-.43 1.457-.444 2.24-.002.115.175.156.256.062.23-.265.552-.466.927-.668.601 1.056-.095 2.834.944 3.749.4-.198.285-1.113.741-1.148.374.796.903 1.643 1.817 1.85a.2.2 0 0 0 .245-.194c0-.242-.012-.486.017-.726.165.236.433.442.646.632.152.135.374.38.571.459.278.11.544-.133.82-.224.081-.026.443-.176.544-.131.09.04.12.204.172.293.206.344.557.34.935.316.62-.041 1.22-.302 1.823-.441.224-.052.161-.04.31.076.168.133.287.28.505.345.389.117.827.047 1.217-.026.385-.072.757-.249 1.09-.453.098-.06.232-.121.248-.248"
    />
    <path
      fill="#6EA7B5"
      d="M14.35 18.78a.038.038 0 0 0 .026-.017c.381-.576 1.247-.488 1.895-.738.331-.128.614-.353.889-.577.894-.73 1.8-1.547 2.166-2.643l.033.82c.002.037.05.053.072.025.635-.79.945-1.81 1.003-2.823.059-1.013-.12-2.026-.373-3.01-.009-.034.026-.061.056-.043.185.115.505.24.695.313.027.01.056-.013.054-.042-.186-2.181-1.63-3.731-3.038-5.295-.381-.423-1.112-.975-1.624-1.225l-4.697-2.297c-.03-.014-.063.012-.057.044.083.44.239.866.46 1.255a.037.037 0 0 1-.041.055c-1.144-.281-2.366-.373-3.544-.464-.04-.003-.057.052-.022.073.46.282.81.517 1.234.928.022.02.013.059-.016.067-.882.262-1.63.555-2.456.975-.655.333-1.1.398-1.755.731-.982.5-1.938 1.324-2.485 2.286-.016.03.01.066.044.06l1.257-.257a.038.038 0 0 1 .039.06C2.673 9.226 1.94 11.686 1.77 14.258c-.01.14.174.202.25.084.256-.395.47-.45 1.109-.904.02-.015.051-.007.06.018.508 1.536 1.556 3.182 2.744 4.29.028.026.07.001.065-.036a1.296 1.296 0 0 1 .09-.646c.013-.03.054-.03.07-.002.617 1.033 2.402.872 3.048 1.905.007.01.018.018.03.018 1.781.084 3.347.041 5.113-.207z"
    />
    <path
      fill="#FFF"
      d="M8.664 11.268a3.808 3.808 0 0 1-.584-3.43c.374-1.147 1.335-2.106 2.522-2.515 1.461-.505 3.267-.099 4.205 1.08.518.653.751 1.48.784 2.296.042 1.09-.281 2.224-1.061 3.023-.777.797-1.88 1.093-2.972.852-1.154-.255-2.143-.309-2.894-1.306z"
    />
    <ellipse fill="#414142" cx="11.708" cy="8.942" rx="1.629" ry="1.549" />
    <ellipse fill="#FFF" cx="12.37" cy="7.904" rx="0.662" ry="0.63" />
    <g>
      <path
        fill="#164358"
        d="M15.884 13.777c-2.356.483-4.718.353-7.047-.219a8.864 8.864 0 0 0-1.33-.202c-.483-.04-.434.383-.437.772-.005.936.22 1.648.793 2.403.635.836 1.632 1.31 2.619 1.538 1.233.284 2.575.134 3.694-.495.804-.453 1.568-1.298 1.827-2.185.113-.39.202-.913.12-1.309-.066-.321-.186-.256-.239-.303z"
      />
      <path
        fill="#F07182"
        d="M11.507 17.393c.209-.242.705-.282.985-.126s.485.47.636.752c.019.035-1.11.204-1.405.188-.47-.026-1.498-.08-1.971-.355-.05-.03.18-.538.638-.697.434-.15.806-.082 1.117.238z"
      />
      <path
        fill="#FEFAD8"
        d="M7.966 13.394c-.126.694.268 1.148.859 1.141.282-.003.406-.122.54-.398.06-.127.128-.287.129-.43-.208-.055-.505-.108-.733-.183-.156-.052-.32-.064-.481-.09-.104-.016-.251-.003-.314-.04zM15.013 13.928c.011.704-.451 1.125-1.033 1.022-.278-.049-.381-.186-.468-.48-.04-.135-.084-.277-.062-.418.214-.022.518-.007.756-.045.162-.026.328-.055.49-.054.106 0 .249.002.317-.025zM11.497 14.008c0 .15-.061.332-.122.47-.1.226-.191.272-.45.275-.223.003-.604-.02-.707-.249-.084-.185.005-.466 0-.668.443.043.823.104 1.28.172z"
      />
    </g>
    <g
      opacity="0.9"
      fill="none"
      stroke="#FFF"
      strokeWidth="0.113"
      strokeLinecap="round"
      strokeLinejoin="round"
      strokeMiterlimit="10"
    >
      <path d="M4.34 8.77V9.79M5.809 10.129c0 .359-.043.612 0 .95M4.558 12.844l.061.678M5.803 13.806l.162.894.015-.16M6.205 7.06c-.007.288.018.57-.007.862M17.857 7.81l.125 1.073M17.128 9.598c.099.257.066.428.101.701M18.413 11.146v.8M19.107 12.278c-.014.271.012.54-.081.796M17.689 14.37v.566M16.84 5.547c-.013.284.006.569.057.848M7.057 15.559c-.025.212.011.432.103.626M6.998 9.506v.679M15.313 3.963l.132.561M16.993 11.55c-.015.213.011.615-.015.793M7.747 5.039l-.07 1.017M5.355 16.154c-.005.328.073.552.208.773M6.753 17.699c.032.168.07.322.137.478.032.073.02.132.05.106M16.875 16.3c-.075.272-.056.637-.104.898M18.399 16.78c0 .209-.028.42-.021.627M15.852 18.116c-.015.214-.069.55-.187.73M15.493 11.794c-.054.23-.08.477-.111.705M7.294 11.498c-.008.226.052.444.036.673-.005.046.022-.03.038-.043" />
    </g>
  </svg>