<?xml version="1.0" encoding="utf-8"?>
<svg version="1.1" xmlns="http://www.w3.org/2000/svg" xmlns:xlink="http://www.w3.org/1999/xlink" x="0px" y="0px"
	 viewBox="0 0 100 100" style="enable-background:new 0 0 100 100;" xml:space="preserve">
    <path fill="none" d="M0 0h100v100H0z" />
    <path
      fill="none" stroke="#805d46" stroke-miterlimit="10" stroke-width="0.89px"
      className="MontgolfiereB1-F_svg__b"
      d="M42.54 78.29c0-.1 0-.19-.12-.25.33 1.72.92 3.38 1.27 5.09a41 41 0 00.85 4.73M46.91 79a17.51 17.51 0 01.31 3 48.51 48.51 0 00.88 5.9M52.35 79.36c.45.57.08 2.12 0 2.81a13.78 13.78 0 00-.1 4M57.11 78.17a11.23 11.23 0 01-.72 3.43 36.14 36.14 0 00-1.1 5"
    />
    <path
      d="M41.45 87.81a2.18 2.18 0 000 1c.17 1.21.57 2.41.83 3.6a22 22 0 00.91 3.2 5.13 5.13 0 001.18 2A6.73 6.73 0 0048.45 99a19.24 19.24 0 004.85-.47 3.94 3.94 0 002.91-2.37 21.23 21.23 0 001.73-7.75c.05-.64.33-1.83-.17-2.38-.84-.9-3.24-.64-4.3-.6-2.74.08-5.5.22-8.22.54-1.34.18-3.36.18-3.8 1.84z"
      fill="#e1ac6c"
    />
    <path
      d="M56.84 84.73c-4.56 0-9.32-.34-13.85.22-1.54.2-3.77 1-2.34 2.72.76.93 3 1 4.19 1.11 1.86.09 4 0 5.86 0 2.1 0 5.33.21 7.19-.85 3.05-1.75.3-3.04-1.05-3.2z"
      fill="#ce8f4d"
    />
    <path
      fill="#a84e6c"
      className="MontgolfiereB1-F_svg__e"
      d="M53.11 1.39C44.87.06 36 2.85 28.59 6.42a24.18 24.18 0 00-10.24 8.65c-3.47 5.22-5.33 10.38-5.1 16.64.29 8 2.78 17.12 7.15 23.86S30.24 67.89 36 73.23c3 2.75 10.09 8.56 14.36 5.6 2.79-1.94 3.83-7.14 4.66-10.12 2-7.23 2.5-14.76 3-22.21a144.63 144.63 0 00.32-19.19c-.4-5.6-.46-11.45-1.93-16.89a51.86 51.86 0 00-3.3-9.03z"
    />
    <path
      fill="#a84e6c"
      className="MontgolfiereB1-F_svg__e"
      d="M46.7 1.39C54.94.06 62 2 69.4 5.57c4.19 2 9.26 5.25 12 9.5a34.59 34.59 0 015.3 19c-.29 8-3 14.78-7.35 21.52s-9.79 12.3-15.55 17.64c-3 2.75-10.09 8.56-14.36 5.6-2.79-1.94-3.83-7.14-4.66-10.12-2-7.23-2.5-14.76-3-22.21a146.36 146.36 0 01-.33-19.19c.41-5.6.47-11.45 1.94-16.89a51.86 51.86 0 013.31-9.03z"
    />
    <path
      fill="#e5939e"
      className="MontgolfiereB1-F_svg__f"
      d="M53.78 1.05c2.46 1.72 3.95 4.85 5 7.6a69.93 69.93 0 014.35 19.87c1.1 16-1.61 36.15-12 49.06 5.3-.13 5.46-.56 8.94-4.83 6.12-7.53 10.82-15.82 15.41-24.34a33.11 33.11 0 00-8.6-41.92 21.48 21.48 0 00-7.12-3.24c-2.08-.63-5.25-1.1-5.98-2.2zM47.08 1.05c-2.46 1.72-3.95 4.85-5 7.6a69.93 69.93 0 00-4.35 19.87c-1.1 16 1.61 36.15 12 49.06-5.3-.13-5.46-.56-8.94-4.83C34.67 65.22 30 56.93 25.38 48.41A33.11 33.11 0 0134 6.49a21.52 21.52 0 017.11-3.24c2.07-.63 5.24-1.1 5.97-2.2z"
    />
    <path
      d="M61.74 75s-2.16.63-2.79.73a59.06 59.06 0 01-6.37.42 55.89 55.89 0 01-8-.35c-2.08-.17-5.06 0-6.88-1.13a10.86 10.86 0 003 4.94c1.45 1.15 4.05 1.5 5.82 1.84a23.28 23.28 0 008.68-.29 6.3 6.3 0 003.18-1.7A13.07 13.07 0 0061.74 75z"
      fill="#933e60"
    />
  </svg>