<?xml version="1.0" encoding="utf-8"?>
<svg version="1.1" xmlns="http://www.w3.org/2000/svg" xmlns:xlink="http://www.w3.org/1999/xlink" x="0px" y="0px"
	 viewBox="0 0 23 23" style="enable-background:new 0 0 100 100;" xml:space="preserve">
	 <path
      fill="#656564"
      d="M12.866 5.698l3.212.966.046-.566-3.3-1.02zM9.549 13.166c.183.408.125.77.499 1.078.379-.221.673-.62 1.04-.877.449-.313 1.048-.574 1.39-1.014-.273-.459-.76-.733-1.233-.962-.438-.213-.61-.178-.92.179-.224.259-.977 1.031-.968 1.404.003.13.106.207.192.192z"
    />
    <path
      fill="#656564"
      d="M13.546 9.906c-.23.096-.463.205-.684.332-.237.136-.464.38-.725.198-.204-.143-.366-.543-.476-.758-.208-.408-.401-.83-.598-1.243-.254-.537-.264-.91.12-1.39.261-.327 1.81-1.935 2.143-.955.129.379.15.881.191 1.277.05.475.13.96.158 1.437.017.282-.037.56-.054.832-.016.262.032.325-.075.27z"
    />
    <path
      fill="#0B0B0C"
      d="M8.218 12.314c.11.357.427 1.184.864 1.293.372.093 1.074-.438 1.417-.584.573-.244 1.05-.515 1.503-.951.397-.383.936-.848.923-1.434-.019-.853-.531-2.216-1.191-2.728-1.824-1.417-3.532 1.393-4.647 2.744-.514.623-1.03.59-.57 1.25.161.232.343.406.548.605.156.15.57.68.82.666.138-.008.337-.274.341-.388M13.535 5.727c.189.455.17.997.235 1.485.068.512.103 1.025.151 1.539.032.335.126.793.053 1.126a1.725 1.725 0 0 0-.41-.04c-.075-.49-.06-1.003-.129-1.5-.061-.448-.098-.9-.168-1.347-.05-.326-.126-.64-.133-.973-.003-.17-.077-.524.159-.515.131.005.362.203.242.225zM6.864 16.457c.236.229.603.607.885.884.06.059.156.22.224.09-.343-.372-.674-.756-1.046-1.098-.02.033-.038.07-.063.124zM8.905 18.545c.236.229.603.607.885.884.06.059.156.22.224.09-.343-.372-.674-.756-1.046-1.099-.02.034-.038.07-.063.125zM7.867 18.374c-.22.244-.586.623-.854.915-.056.06-.213.163-.08.227.359-.356.73-.7 1.06-1.083a1.04 1.04 0 0 0-.126-.06zM7.614 17.943c-.327.041-.851.09-1.244.135-.083.01-.268-.016-.21.12.505-.036 1.011-.053 1.51-.127a1.064 1.064 0 0 0-.056-.128zM10.59 17.825c-.327.04-.851.089-1.244.135-.083.01-.268-.016-.21.119.505-.035 1.011-.052 1.511-.127a1.071 1.071 0 0 0-.057-.127zM8.49 17.306c-.028-.328-.055-.854-.084-1.249-.007-.083.027-.267-.11-.215.013.506.01 1.013.064 1.515.037-.011.075-.027.13-.051zM8.454 20.17c-.028-.327-.054-.853-.084-1.248-.006-.082.027-.267-.11-.214.014.506.01 1.012.064 1.515a1.05 1.05 0 0 0 .13-.052zM9.845 16.44c-.22.245-.586.624-.854.915-.056.061-.214.163-.081.228.36-.356.732-.7 1.061-1.083a1.055 1.055 0 0 0-.126-.06z"
    />
    <path
      fill="#D4D4D4"
      d="M9.682 15.62c-.68-.403-1.399-.585-2.174-.36-.213.06-.465.142-.638.284-.12.098-.226.212-.246.26-.603.617-1.34 1.399-1.246 2.332.02.205.057.407.1.61.04.195.067.405.183.573.139.204.359.344.52.529.29.335.63.641 1.038.821.486.214 1.008.241 1.527.164.586-.088 1.207-.347 1.637-.761.444-.429.528-.99.68-1.556.125-.471.305-.925.048-1.374-.345-.6-.825-1.164-1.429-1.522zm.662 1.509c.315.7.199 1.574-.288 2.168a2.123 2.123 0 0 1-2.07.706 2.096 2.096 0 0 1-1.572-1.672 2.187 2.187 0 0 1-.016-.573c.02-.216.122-.535.211-.74-.014.024-.03.046-.043.071l.055-.102-.012.03c.38-.684 1.134-1.142 1.922-1.111.768.03 1.498.523 1.813 1.223z"
    />
    <path
      fill="#0B0B0C"
      stroke="#FFF"
      strokeWidth="0.173"
      strokeLinecap="round"
      strokeLinejoin="round"
      strokeMiterlimit="10"
      d="M10.875 15.428c-.018-.05-.082-.093-.118-.128-.093-.09-.104-.116-.211-.129-.122-.015-.252-.054-.3-.173-.038-.094-.013-.08-.12-.14-.076-.044-.153-.067-.23-.102-.096.115-.256.02-.37-.027-.105-.043-.094-.104-.165-.16a.602.602 0 0 0-.271-.075c-.03.004-.058.037-.086.043-.053.012-.117-.006-.172-.006-.085 0-.233.037-.299-.013-.069-.053-.032-.098-.136-.106a.724.724 0 0 0-.27.03c-.054.028-.052.067-.101.095-.04.022-.115.01-.161.024-.036.012-.077.049-.113.051-.07.005-.094-.058-.148-.075-.058-.019-.383.063-.423.128-.058.095.043.09-.08.156-.088.048-.203.11-.305.087-.073-.016-.082-.05-.154-.034-.057.013-.214.091-.238.148-.018.041.017.074.006.114-.016.058-.059.086-.102.123-.075.063-.18.16-.273.19-.034.01-.056-.01-.092.004-.047.02-.1.086-.133.123-.097.111-.066.12-.065.25-.085.056-.095.252-.178.323-.07.06-.143.004-.204.084a.744.744 0 0 0-.111.199c-.027.089.014.083.035.166.026.104-.044.2-.081.296-.019.049-.014.087-.056.122-.046.039-.108.03-.151.089-.09.124-.07.27-.014.394a.71.71 0 0 1 .068.325c-.008.109-.075.117-.109.21a.387.387 0 0 0-.014.2c.02.075.052.071.1.123.044.049.055.104.067.167.018.086.072.25.043.333-.138-.013-.013.361.042.407.023.02.062.013.09.035.03.025.036.05.054.083.045.078.122.193.135.278-.083.05.072.303.126.331.11.059.128-.002.207.119.051.079.141.162.176.249.026.064 0 .058.005.097.007.045-.01.033.025.093.028.05.133.191.182.203.022.006.07-.025.1-.022.063.006.123.067.173.105.051.038.131.074.175.118.033.034.038.093.075.127a.543.543 0 0 0 .202.1c.064.006.063-.03.118-.037.116-.015.34.093.428.166.08.067.206.208.337.16.03-.01.05-.068.087-.083.082-.034.214.017.298.028.052.006.105 0 .151.022.036.017.062.058.101.071.059.02.317.03.36-.005.06-.047.017-.102.112-.136.071-.026.231-.063.305-.045.032.007.041.023.066.032a.705.705 0 0 0 .372.023c.187-.041.034-.1.119-.198.049-.057.187-.115.262-.134s.092.009.167.01c.082.003.186-.064.261-.108.115-.066.113-.101.079-.222.037-.041.147-.218.217-.252.066-.033.155.014.233-.03a.674.674 0 0 0 .223-.22c.043-.09-.025-.155.02-.242.077-.15.242-.17.327-.283.047-.063.128-.157.129-.242 0-.07-.045-.103-.031-.167.03-.142.117-.294.239-.363.016-.136.096-.203.04-.321-.013-.029-.029-.035-.038-.067-.01-.037 0-.106-.002-.146-.006-.106-.003-.212-.005-.317.011-.015.098-.065.117-.106.023-.05.003-.143-.006-.195-.01-.069-.02-.129-.063-.17-.037-.036-.065-.022-.093-.076a.627.627 0 0 1-.047-.262c.01-.048.069-.08.084-.125.035-.108-.032-.288-.09-.383-.18.005-.324-.336-.295-.464.01-.043.037-.049.036-.101 0-.048-.04-.114-.061-.155-.062-.119-.092-.126-.213-.11-.125.016-.35-.297-.377-.398-.01-.035.013-.066 0-.101zm-.707 4.244a2.421 2.421 0 1 1-3.481-3.365 2.421 2.421 0 0 1 3.48 3.366z"
    />
    <path
      fill="#0B0B0C"
      d="M8.594 17.226c-.031-.024-.083-.018-.12-.018-.067 0-.135-.01-.202 0-.195.027-.353.145-.485.285a.56.56 0 0 0-.167.49c.012.102.037.2.07.298.029.087.058.188.118.257.065.074.157.132.23.196.075.065.145.12.249.113.125-.008.228.002.343-.044a1.92 1.92 0 0 0 .284-.146c.163-.103.333-.315.419-.492.05-.104.042-.198.01-.306a1.45 1.45 0 0 0-.175-.368l-.088-.088a7.234 7.234 0 0 0-.265-.24l-.057-.042a.49.49 0 0 0-.154-.072c-.214-.056-.513.092-.664.24a1.29 1.29 0 0 0-.225.324c-.02.038-.06.108-.05.152"
    />
    <g>
      <path
        fill="#0B0B0C"
        d="M17.805 5.265c.237.228.603.607.885.884.06.058.156.22.225.09-.344-.372-.675-.756-1.046-1.099-.021.033-.039.07-.064.125zM19.846 7.353c.237.228.603.607.885.884.06.058.156.219.225.089-.344-.372-.675-.755-1.046-1.098a1.05 1.05 0 0 0-.064.125zM18.808 7.181c-.22.245-.586.624-.853.915-.056.061-.214.163-.081.227.36-.356.731-.7 1.06-1.083a1.033 1.033 0 0 0-.126-.059zM18.555 6.75c-.326.042-.85.09-1.244.136-.082.01-.268-.016-.21.119.505-.035 1.012-.052 1.511-.127a1.08 1.08 0 0 0-.057-.127zM21.531 6.633c-.326.04-.85.089-1.243.134-.083.01-.269-.016-.21.12.504-.035 1.01-.052 1.51-.127a1.071 1.071 0 0 0-.057-.127zM19.43 6.113c-.027-.328-.053-.854-.083-1.248-.006-.083.027-.268-.11-.215.014.506.01 1.012.064 1.515.038-.011.075-.027.13-.052zM19.395 8.978c-.027-.327-.054-.854-.084-1.248-.006-.083.027-.267-.11-.215.014.506.01 1.013.064 1.515a1.05 1.05 0 0 0 .13-.052zM20.786 5.248c-.22.244-.586.624-.853.915-.057.061-.214.163-.082.227.36-.356.732-.7 1.062-1.083a1.055 1.055 0 0 0-.127-.059z"
      />
      <path
        fill="#D4D4D4"
        d="M20.623 4.427c-.679-.402-1.399-.585-2.174-.36-.213.061-.465.142-.638.284-.12.099-.226.212-.246.26-.603.618-1.339 1.4-1.245 2.333.02.205.056.407.099.609.04.195.068.405.183.574.14.203.36.343.52.529.29.334.631.641 1.039.82.485.215 1.008.242 1.527.164.585-.087 1.207-.346 1.636-.76.444-.43.528-.99.68-1.557.126-.47.306-.925.048-1.373-.344-.6-.825-1.165-1.428-1.523zm.663 1.51c.314.7.198 1.573-.289 2.167a2.122 2.122 0 0 1-2.069.707 2.096 2.096 0 0 1-1.573-1.673 2.187 2.187 0 0 1-.016-.573c.02-.215.122-.535.211-.74-.013.024-.03.047-.043.072l.055-.102-.012.03c.38-.684 1.134-1.142 1.923-1.112.767.03 1.498.523 1.813 1.223z"
      />
      <path
        fill="#0B0B0C"
        stroke="#FFF"
        strokeWidth="0.173"
        strokeLinecap="round"
        strokeLinejoin="round"
        strokeMiterlimit="10"
        d="M21.816 4.235c-.018-.05-.082-.093-.118-.128-.093-.089-.103-.116-.21-.128-.123-.015-.252-.055-.3-.173-.039-.095-.014-.081-.12-.14-.076-.044-.154-.068-.23-.102-.097.115-.257.019-.371-.028-.105-.042-.094-.103-.165-.159a.602.602 0 0 0-.27-.075c-.031.003-.058.036-.087.043-.052.011-.116-.006-.171-.006-.086 0-.234.036-.299-.014-.07-.053-.033-.097-.137-.105a.724.724 0 0 0-.27.03c-.053.027-.052.067-.1.094-.04.023-.116.01-.162.025-.036.011-.076.049-.113.051-.069.005-.093-.059-.148-.076-.058-.018-.382.064-.422.129-.059.094.043.09-.08.156-.089.048-.203.11-.306.087-.072-.017-.081-.051-.154-.034-.056.013-.214.09-.238.148-.018.041.017.074.006.114-.015.058-.058.085-.101.122-.075.064-.18.161-.273.19-.034.01-.057-.01-.093.005-.047.02-.1.086-.132.123-.097.111-.066.12-.066.25-.085.056-.095.252-.177.323-.07.06-.144.004-.205.083a.744.744 0 0 0-.11.2c-.027.089.013.083.034.165.026.105-.044.2-.08.296-.02.05-.014.088-.057.123-.045.038-.108.029-.15.088-.091.124-.07.271-.015.395a.71.71 0 0 1 .069.324c-.008.11-.076.117-.11.21a.387.387 0 0 0-.013.201c.019.075.052.071.099.123.044.048.055.104.068.167.017.085.072.25.042.332-.137-.012-.013.362.042.408.023.02.062.013.09.035.03.024.036.05.055.083.044.078.121.193.135.277-.084.051.071.304.126.332.11.059.127-.002.206.119.052.079.142.162.176.248.026.065 0 .06.006.098.007.045-.01.033.024.092.029.05.134.192.183.204.022.005.07-.025.1-.022.063.006.122.066.172.104.052.039.132.075.176.12.032.032.037.092.075.126a.543.543 0 0 0 .202.1c.064.006.062-.03.118-.038.115-.014.339.093.427.166.081.068.207.209.337.161.03-.01.051-.068.087-.083.083-.035.215.017.299.027.052.006.104.001.15.023.037.017.062.058.102.07.059.02.317.03.36-.004.059-.048.016-.102.111-.137.072-.025.232-.062.306-.045.032.008.04.024.065.032a.705.705 0 0 0 .373.024c.186-.042.033-.1.118-.199.05-.056.188-.114.262-.133s.093.009.168.01c.082.003.186-.065.26-.108.115-.067.113-.102.08-.222.036-.042.147-.218.217-.253.065-.032.155.014.232-.03a.674.674 0 0 0 .224-.22c.042-.09-.026-.154.02-.242.076-.15.242-.17.326-.282.047-.063.129-.157.13-.243 0-.069-.046-.102-.032-.167.03-.142.117-.293.24-.362.016-.137.095-.204.04-.321-.014-.03-.03-.036-.038-.068-.01-.036 0-.106-.002-.145-.007-.107-.004-.213-.005-.318.01-.014.097-.065.116-.105.024-.05.003-.143-.005-.195-.01-.069-.02-.129-.064-.171-.036-.035-.065-.021-.093-.075a.627.627 0 0 1-.046-.263c.01-.047.068-.08.083-.124.036-.108-.032-.289-.09-.383-.179.004-.324-.336-.295-.465.01-.043.037-.048.037-.1-.001-.048-.04-.114-.062-.155-.061-.119-.091-.126-.212-.11-.125.016-.351-.297-.377-.399-.01-.034.013-.066 0-.1zM21.11 8.48a2.421 2.421 0 1 1-3.481-3.365 2.421 2.421 0 0 1 3.481 3.365z"
      />
      <path
        fill="#0B0B0C"
        d="M19.535 6.034c-.03-.025-.083-.019-.12-.019-.067 0-.135-.01-.202 0-.195.027-.353.146-.485.286a.56.56 0 0 0-.167.49c.012.102.037.2.07.298.03.086.058.188.119.257.064.074.156.132.23.196.075.065.145.12.248.113.125-.008.228.002.344-.044.086-.034.205-.096.284-.146.163-.104.332-.316.418-.492.05-.104.042-.198.01-.306a1.45 1.45 0 0 0-.174-.368l-.089-.088a7.152 7.152 0 0 0-.264-.24l-.058-.043a.49.49 0 0 0-.153-.071c-.215-.057-.514.092-.665.24a1.29 1.29 0 0 0-.225.324c-.019.037-.06.108-.049.151"
      />
      <path
        fill="#FFF"
        d="M19.136 6.641c-.045.037-.076.118-.056.173.02.057.148.17.21.181.193.038.346-.219.28-.389-.096-.242-.413-.114-.434.035z"
      />
    </g>
    <g>
      <path
        fill="#B12230"
        d="M13.6 4.959c.074-.098.113-.22.185-.322.222-.315.504-.577.722-.897.226-.333.466-.68.794-.92a5.984 5.984 0 0 1 1.123-.645c.243-.108.484-.225.724-.338.099-.046.227-.091.302-.168-.058-.053-.131-.055-.213-.065a3.41 3.41 0 0 0-.927.018c-1.102.158-1.931 1.016-2.615 1.819a3.194 3.194 0 0 0-.537.834c-.034.079-.115.181-.132.264-.011.052.009.065.01.11l.015.087c.018.063-.027.045.036.105.088.085.384.23.514.118z"
      />
      <path
        fill="#E72A3C"
        d="M12.822 4.714c.017-.232-.367-.405-.267-.657.041-.103.16-.161.232-.243.159-.182.326-.356.494-.53.439-.454.884-.898 1.379-1.29a2.39 2.39 0 0 1 .673-.386c.306-.11.698-.099 1.022-.117.188-.01.375-.017.563-.012.129.004.297-.022.42.023.097.035.164.125.214.212-.297.024-.619.02-.914.087-.615.14-1.157.479-1.627.885-.658.569-1.08 1.363-1.625 2.03-.056.067-.128.178-.227.175-.105-.004-.288-.196-.337-.177z"
      />
    </g>
    <path
      fill="#0B0B0C"
      stroke="#FFF"
      strokeWidth="0.115"
      strokeLinecap="round"
      strokeLinejoin="round"
      strokeMiterlimit="10"
      d="M7.822 12.896c-.054-.137-.065-.418-.194-.433-.162-.017-.488.186-.628.256-.72.358-1.454.67-2.166 1.047-.307.162-.604.368-.945.432l.08.205c-.037.021-.068.039-.086.047-.156.073-.327.123-.485.184.024.193.16.423.265.585.169-.013.389-.119.565-.232.033.069.085.191.12.208.1.046.367-.152.444-.194.684-.37 1.43-.615 2.112-.982.267-.143.596-.284.83-.47-.036.04.052-.097.103-.19.1-.183.06-.269-.015-.463z"
    />
    <g>
      <path
        fill="#AAA9AA"
        d="M10.528 12.408c-.015-.063.028-.11.057-.163.098-.176.205-.346.328-.505.22-.286.484-.54.747-.784.294-.273.595-.539.91-.787.362-.284.785-.6 1.288-.42.359.13.593.472.71.819.16.475-.114.84-.43 1.143-.312.3-.73.477-1.104.691-.335.192-.7.329-1.032.523-.194.114-.428.282-.676.19-.307-.115-.626-.471-.798-.707z"
      />
      <path
        fill="#656564"
        d="M13.128 10.293c-.453.06-.498.666-.256.99.193.258.512.423.802.272a.789.789 0 0 0 .427-.69c-.007-.413-.32-.782-.743-.752-.107.008-.21.036-.277.12-.052.063-.058.152-.12.21"
      />
    </g>
    <g>
      <path
        fill="#656564"
        d="M7.944 17.906c.069-.333 2.425-4.636 3.037-5.572.195-.298.443-.828.98-.266.435.457-.768 1.955-1.068 2.42-.369.573-1.603 2.653-1.877 3.108-.13.213-.202.528-.438.658-.198.11-.614-.043-.634-.348-.008-.125.177-.377.251-.466"
      />
      <path
        fill="#FFF"
        d="M8.207 17.728c-.042.035-.067.113-.044.166a.462.462 0 0 0 .213.177c.19.038.322-.209.247-.373-.106-.234-.405-.114-.416.03zM11.301 12.392c-.041.036-.066.113-.044.166a.462.462 0 0 0 .213.177c.19.038.322-.208.248-.372-.107-.235-.406-.115-.417.03z"
      />
    </g>
    <g>
      <path
        fill="#656564"
        d="M2.657 13.599c.069-.074.412-.023.532-.02.609.015 1.204.053 1.81.12.791.088 1.552.374 2.306.041.388-.171.816-.396 1.153-.656.13-.1.194-.183.217-.347.058-.407-.09-.902-.156-1.302-.024-.149-.031-.506-.128-.596-.057.04-.245-.041-.346-.01-.569.172-1.138.446-1.69.668-.818.33-1.67.596-2.442 1.025-.483.268-.933.617-1.276 1.044.016.01.008.03.02.033z"
      />
      <path
        fill="#E72A3C"
        d="M.126 15.45c.412-.695 1.147-1.27 1.739-1.827.492-.463.984-.94 1.537-1.33.448-.318.945-.59 1.432-.846.782-.412 1.586-.839 2.307-1.354.559-.4.88-.978 1.244-1.54.746-1.149.963-2.856 2.45-3.342.57-.187 1.236-.463 1.851-.393.275.03.603.245.785.45.172.196.093.422.05.661-.146.814-.508 1.727-1.055 2.364-.203.237-.553.328-.851.434-.83.294-1.533.82-2.257 1.314-.396.27-1.18.81-1.168 1.31.004.173.102.421-.05.517-.2.125-.633.151-.865.208-.51.127-1.039.222-1.557.313-1.188.207-2.492.623-3.364 1.487-.359.355-.727.695-1.105 1.033-.199.178-.444.527-.71.564a3.5 3.5 0 0 1-.49.025c.072-.116.175-.17.293-.218"
      />
    </g>
    <g>
      <path
        fill="#AAA9AA"
        d="M8.843 4.086c.318.036 1.4.365 1.702.46.375.119.763.221 1.146.327 1.163.319 2.308.71 3.484.993.795.192 1.55.49 2.322.755.367.126.746.236 1.117.35.125.037.239.096.356.028.164-.094.248-.403.103-.537-.13-.12-.465-.18-.63-.23-.825-.247-8.646-2.433-9.595-2.743-.224.23-.34.559-.005.597z"
      />
      <path
        fill="#0B0B0C"
        d="M5.99 5.05c-.18-.025-.356-.211-.45-.384-.093-.174-.115-.342-.06-.46.105-.224.467-.338.684-.406.257-.082.485-.16.714-.237l.714-.241c.155-.057.33-.12.5-.12.053 0 .104.006.15.019.131.035.265.083.397.13l.166.059c.055.019.163.067.202.092a.058.058 0 0 1 .022.074.058.058 0 0 1-.071.03c.007.006.117.005.12.014.027.084-.02.212-.075.346-.048.129-.066.164-.151.177h-.026c-.131 0-.23-.027-.326-.052a1.458 1.458 0 0 0-.159-.038c-.164-.029-.245-.043-.323-.043-.387.061-.648.24-.901.412a5.156 5.156 0 0 1-.324.21c-.176.102-.345.215-.515.327a.441.441 0 0 1-.244.095l-.043-.003z"
      />
      <path
        fill="#FFF"
        d="M8.091 3.26c.047 0 .092.005.137.017.185.05.375.125.558.188.055.018.157.064.19.086a.093.093 0 0 0-.022-.006c-.017 0 .053.045.069.092.028.088-.065.28-.095.36-.023.062-.02.079-.085.09a.297.297 0 0 1-.044.002c-.136 0-.326-.075-.449-.093-.108-.017-.223-.044-.333-.044a.534.534 0 0 0-.096.008c-.44.08-.787.407-1.157.622-.177.103-.347.216-.517.329-.067.044-.133.085-.213.085-.011 0-.023 0-.035-.002-.267-.038-.582-.516-.466-.763.098-.21.471-.32.675-.385.426-.135.847-.286 1.272-.424.18-.058.403-.162.611-.162m0-.115c-.18 0-.36.065-.52.122-.044.016-.086.032-.126.045-.196.063-.39.13-.584.195-.229.078-.457.156-.688.23l-.03.009c-.238.075-.6.19-.715.436-.063.135-.04.321.062.511.093.172.278.384.493.415a.36.36 0 0 0 .05.004c.12 0 .211-.06.278-.105.177-.117.34-.226.511-.325.11-.064.218-.138.327-.212.248-.169.504-.344.792-.396a.426.426 0 0 1 .076-.006c.072 0 .152.014.229.027l.087.015c.043.006.096.021.151.036.101.028.216.059.315.059A.41.41 0 0 0 8.86 4.2c.115-.018.145-.077.167-.142l.027-.069c.062-.15.11-.283.078-.387a.225.225 0 0 0-.038-.07.13.13 0 0 0-.056-.079 1.393 1.393 0 0 0-.215-.097l-.163-.058a5.113 5.113 0 0 0-.404-.133.645.645 0 0 0-.166-.02z"
      />
    </g>
    <path
      fill="#0C0B0D"
      d="M3.765 12.05c.108.017.418-.18.521-.211.422-.132 1.015-.414 1.43-.567.651-.24 1.297-.34 1.753-.902.53-.653 1.05-1.996 1.408-2.763-.345.378-.912 1.328-1.14 1.717-.257.435-.485.713-.916.989-.477.305-1.08.587-1.574.87-.234.135-.588.305-.812.455-.193.13-.52.234-.67.413"
    />
  </svg>