<?xml version="1.0" encoding="utf-8"?>
<svg version="1.1" xmlns="http://www.w3.org/2000/svg" xmlns:xlink="http://www.w3.org/1999/xlink" x="0px" y="0px"
	 viewBox="0 0 23 23" style="enable-background:new 0 0 100 100;" xml:space="preserve">
	 <path
      d="M6.632 16.899c-1.264 1.254-2.12 2.851-2.958 4.423-.273.512-.554 1.057-.518 1.636.598.186 1.19-.274 1.628-.721a19.34 19.34 0 0 0 2.756-3.561 4.549 4.549 0 0 0-.835 1.931 11.99 11.99 0 0 0 3.411-4.129c.12-.239.233-.49.247-.756.014-.267-.093-.556-.324-.689-.176-.101-.394-.098-.594-.061-.799.151-1.411.776-1.968 1.369L5.716 18.22"
      fill="#29396b"
    />
    <path
      d="M9.526 16.079c.717.095 1.463.04 2.132-.234a.401.401 0 0 0 .14-.082c.153-.154.009-.41-.135-.574l-.481-.547c-.143-.163-.293-.33-.492-.416-.353-.152-.757-.009-1.114.134-.292.117-2.05.69-2.046 1.046.003.363 1.72.637 1.996.673z"
      fill="#f8cf34"
    />
    <path
      d="M10.918 17.555a4.4 4.4 0 0 0 .044-.414l.398.009a1.71 1.71 0 0 0-.179.618.87.87 0 0 0 .178.607 1.658 1.658 0 0 1-.476-.173c-.072-.04-.157-.074-.221-.117.113-.19.22-.294.256-.53zM12.585 17.357a4.48 4.48 0 0 0 .041-.383l.369.008c-.085.181-.153.373-.165.572s.037.408.165.562a1.528 1.528 0 0 1-.44-.16c-.066-.037-.146-.068-.205-.109.103-.176.202-.272.235-.49z"
      fill="#767471"
    />
    <path
      d="M10.829 17.747l.205-.287c.028.229.051.409.145.426.09.016.259-.097.379-.257.014.082.099.121.171.103s.133-.077.19-.135a6.189 6.189 0 0 0 1.447-2.477c.044-.144.084-.294.078-.444a.727.727 0 0 0-.348-.585c-.19-.114-.416-.134-.636-.109-.729.085-1.351.672-1.692 1.425-.301.664-.184 1.647-.014 2.325.009.04.052.047.075.015z"
      fill="#50a5d8"
    />
    <path
      d="M12.478 17.451l.189-.29c.02.227.036.406.12.421.08.014.233-.102.342-.264a.116.116 0 0 0 .15.099c.065-.02.12-.079.172-.138.594-.682 1.062-1.554 1.341-2.498.043-.145.082-.295.079-.444a.703.703 0 0 0-.296-.575c-.166-.109-.367-.124-.563-.094-.65.101-1.216.7-1.536 1.456-.282.668-.2 1.644-.065 2.315.008.038.046.045.067.012z"
      fill="#50a5d8"
    />
    <path
      d="M18.559.986C17.963.617 17.34.239 16.642.164c-.699-.075-1.406.17-1.981.574-.575.404-1.029.958-1.419 1.542a4.046 4.046 0 0 0-.467.875c-.117.331-.163.682-.22 1.029-.114.689-.28 1.379-.607 1.996-.545 1.031-1.502 1.79-2.104 2.79-.6.997-1.072 2.019-1.327 3.155-.218.973 1.58 1.934 1.144 2.831-.212.436.236.81.857.994.454.135.92.236 1.393.251.908.029 1.799-.259 2.626-.635.651-.295 1.289-.656 1.766-1.188.404-.451.675-1.004.923-1.556.551-1.229.835-2.569.878-3.915.02-.617.135-1.188.134-1.805-.001-.526.048-1.05.098-1.574l.248-2.645c.042-.443.079-.91-.106-1.314-.09-.197-.008-.387.081-.583z"
      fill="#50a5d8"
    />
    <path
      d="M16.607 0c.142.051.278.12.404.204a2.79 2.79 0 0 0-1.092.054c.139.018.276.042.413.071-.436.04-.863.175-1.242.394l.205.008c-.526.228-.911.706-1.144 1.229-.234.523-.334 1.094-.433 1.659-.003.017-.006.037.003.052.009.015.028.022.046.025.14.023.257-.103.34-.219.224-.31.431-.634.687-.919.256-.285.568-.532.935-.64.485-.144 1.01-.03 1.486.141.243.088.482.19.734.246.252.055.524.059.76-.047.298-.134.496-.426.625-.727a.442.442 0 0 0 .048-.232c-.023-.152-.192-.251-.304-.337-.166-.129-.364-.23-.55-.328A6.27 6.27 0 0 0 16.607 0z"
      fill="#50a5d8"
    />
    <path
      d="M13.18 4.788l.464-.122-.58 1.799a.412.412 0 0 0 .437-.224c-.117 1.479-.833 2.852-1.726 4.036s-1.967 2.218-2.942 3.336c-.137.157-.28.335-.284.544-.003.149.786.811.862.939.54.902.811.965 1.849 1.13 1.038.165 2.102.094 3.049-.363.467-.225.963-.511 1.365-.838.569-.462 1.208-1.113 1.547-1.893.574-1.317.682-2.182.842-3.384.231-1.732.317-3.479.402-5.225a2.34 2.34 0 0 0-.009-.481c-.132-.838-1.063-1.258-1.869-1.523-.437-.143-.89-.285-1.349-.242-1.126.106-1.784 1.577-2.058 2.511z"
      fill="#50a5d8"
    />
    <path
      d="M18.834 1.712c.005-.004-.515.076-.51.072-.291.046-.567-.036-.832-.132-.122-.044-.234-.112-.347-.177-.49-.281-1.063-.514-1.605-.35-.266.081-.5.252-.7.451-.803.799-1.084 2.107-.681 3.171.102-.113.184-.244.242-.385-.031.462.209.93.595 1.162.046-.13.076-.265.091-.402.289.423.82.654 1.318.574a.945.945 0 0 1-.123-.34c.45.062.915.014 1.346-.14a1.05 1.05 0 0 0 .398-.225c.224-.22.266-.567.291-.883.057-.693.636-1.278.667-1.972.006-.129.153-.169.104-.287-.011-.027-.083-.162-.109-.173-.024-.012-.142.007-.145.036z"
      fill="#fff"
    />
    <path
      d="M15.873 1.9c.1-.026.202-.045.305-.049.356-.016.724.159.906.465.182.307.148.736-.105.987-.07.069-.152.124-.238.172-.13.074-.272.135-.421.146a.85.85 0 0 1-.511-.145 1.157 1.157 0 0 1-.463-.58c-.042-.118-.222-.566-.183-.672.058-.159.565-.287.71-.324z"
      fill="#1f1f1d"
    />
    <path
      d="M16.252 2.314a.278.278 0 0 0-.094.096c-.021.042-.021.091-.021.138 0 .053 0 .107.017.157a.36.36 0 0 0 .155.181.455.455 0 0 0 .157.067.357.357 0 0 0 .398-.246.5.5 0 0 0 .015-.144c-.01-.413-.344-.448-.627-.249z"
      fill="#fff"
    />
    <g fill="#28241f">
      <path d="M18.556 4.012c-.219.197-.299.485-.339.759a1.27 1.27 0 0 0-.013.374.555.555 0 0 0 .163.331.094.094 0 0 0 .04.025.134.134 0 0 0 .04.001c.156-.014.31-.051.455-.109.116-.046.225-.106.332-.167.309-.178.618-.391.775-.693-.111-.001-.217.056-.328.061a.43.43 0 0 1-.283-.104 1.127 1.127 0 0 1-.192-.222l-.118-.164c-.048-.066-.112-.169-.201-.196-.12-.036-.245.027-.331.104z" />
      <path d="M21.321 2.68c.161.304.301.626.361.972.164.948-.298 1.91-.865 2.683-.191-.386-.047-.899-.256-1.274a1.444 1.444 0 0 0-.335-.408 5.588 5.588 0 0 0-.631-.427 1.032 1.032 0 0 0-.301-.103c-.21-.043-.42.065-.629.126s-.472.051-.58-.144c-.029-.437-.057-.886.061-1.31.09-.32.259-.609.426-.894l.539-.914c.233-.084.785.183.976.3.552.341.925.809 1.234 1.393z" />
    </g>
    <path
      d="M13.91 6.336c-.969.031-1.848.662-2.639 1.331a25.817 25.817 0 0 0-3.649 3.801c-.489.624-.956 1.277-1.339 2-.211.399-.396.818-.633 1.196-.254.405-.562.756-.861 1.113-.407.488-.8.993-1.177 1.514-.827 1.143-1.586 2.383-2.046 3.792-.031.096-.059.214-.004.293.039.056.105.071.166.077.402.038.796-.141 1.159-.35a8.43 8.43 0 0 0 2.374-2.06 2.63 2.63 0 0 0-.8 1.12c1.912-.339 3.544-1.789 5.004-3.302l-.339.836c.518.001 1.004-.278 1.457-.576a17.183 17.183 0 0 0 3.373-2.93c.62-.695 1.2-1.455 1.619-2.34s.671-1.905.601-2.92a3.106 3.106 0 0 0-.177-.888A2.36 2.36 0 0 0 14.858 6.8c-.483-.248-1.012-.338-1.535-.393"
      fill="#0c5ca1"
    />
    <path
      d="M5.931 14.342c-.116.22.019.501.218.595.211.098.454.033.667-.056a2.229 2.229 0 0 0 1.048-.895.1.1 0 0 1 .137-.035.102.102 0 0 1 .048.098c-.049.402-.299.721-.031.901.241.192.599.189.896.055.607-.287 1.128-.801 1.459-1.405a.114.114 0 0 1 .153-.045c.043.023.064.07.057.116l-.003.016c-.043.274-.189.635-.07.814.15.178.509.196.778.11.568-.19 1.088-.58 1.489-1.054v.005a.048.048 0 0 0-.067.002.051.051 0 0 1 .071-.007l.001.005c-.363.506-.833.967-1.447 1.197-.303.095-.685.156-.984-.133-.134-.175-.109-.379-.081-.528l.095-.479.207.088c-.35.643-.867 1.217-1.564 1.525-.347.15-.808.165-1.135-.106-.182-.126-.241-.413-.175-.597.051-.19.132-.346.15-.496l.185.064a2.397 2.397 0 0 1-1.173.905c-.231.076-.511.125-.742-.008-.221-.132-.323-.441-.187-.652zM3.325 20.676c.444-.305.799-.703 1.126-1.118.323-.419.636-.854.935-1.297.63-.864 1.253-1.732 1.961-2.548-.531.932-1.147 1.813-1.755 2.697-.317.432-.628.87-.992 1.274-.36.402-.782.768-1.275.992zM7.961 18.494c.84-.951 1.52-1.952 2.139-3.06-.129.626-.426 1.203-.777 1.734-.376.515-.815.995-1.362 1.326zM8.397 11.562c-.056.225.083.45.265.553.186.108.416.056.604-.036.383-.2.711-.521.961-.876l.169.128c-.113.153-.061.422.082.568.143.147.389.172.61.111.451-.129.836-.491 1.033-.931l.203.117c-.146.189-.05.539.157.696.21.163.539.14.817.025a3.158 3.158 0 0 0 1.414-1.204c-.288.568-.746 1.076-1.349 1.357-.291.136-.688.223-1.012-.005-.287-.223-.447-.652-.216-1.009a.117.117 0 0 1 .162-.035.116.116 0 0 1 .044.144l-.003.007c-.213.5-.636.933-1.189 1.072-.268.069-.61.047-.834-.189-.2-.224-.283-.576-.085-.854a.106.106 0 1 1 .173.123l-.004.005c-.292.364-.646.676-1.076.871-.214.091-.491.118-.695-.028-.196-.135-.311-.391-.231-.61z"
      fill="#202a4e"
    />
    <g>
      <path
        d="M12.247 17.234c.232-.413.516-.757.803-1.103l.258-.31-.033.4a1.015 1.015 0 0 1-.014.109l-.111-.141c.138.036.298-.173.542-.272.251-.095.474-.027.689-.122-.17.173-.445.195-.609.294-.08.052-.159.124-.255.2-.091.072-.224.162-.394.15l-.121-.009.009-.132c.003-.037.008-.073.014-.109l.224.091c-.313.34-.632.681-1.002.954z"
        fill="#0c5ca1"
      />
    </g>
    <path
      d="M9.168 18.725c.379.078.764-.08 1.151-.096.514-.022 1.014.214 1.397.557.383.343.662.786.903 1.24.073.138.209.301.349.233a.256.256 0 0 0 .08-.07c.227-.281.201-.705.024-1.02-.342-.607-1.252-1.119-1.88-1.395-.356-.157-.824-.248-1.211-.191a1.042 1.042 0 0 0-.564.252c-.029.03-.339.472-.249.49z"
      fill="#767471"
    />
    <path
      d="M11.199 18.303c.379.078.764-.08 1.151-.096.514-.022 1.014.214 1.397.557.383.343.662.786.903 1.24.073.138.209.301.349.233a.256.256 0 0 0 .08-.07c.227-.281.201-.705.024-1.02-.342-.607-1.252-1.119-1.88-1.395-.356-.157-.824-.248-1.211-.191a1.042 1.042 0 0 0-.564.252c-.03.03-.34.472-.249.49z"
      fill="#767471"
    />
  </svg>