<?xml version="1.0" encoding="utf-8"?>
<svg version="1.1" xmlns="http://www.w3.org/2000/svg" xmlns:xlink="http://www.w3.org/1999/xlink" x="0px" y="0px"
	 viewBox="0 0 100 100" style="enable-background:new 0 0 100 100;" xml:space="preserve">
    <path fill="none" d="M0 0h100v100H0z" />
    <path
      fill="#fff"
      className="PiedB1-C_svg__b"
      d="M27.48 39.14C12.08 39.52 4 45.9 6.26 65.24s13.52 29.85 13.52 29.85 7.32 7.06 16.15 3 4.88-15.59 1.31-21.78-.56-10.52 3-17.09 2.63-20.45-12.76-20.08zM41.66 27.43c-2.95-.57-5.89 1.81-6.57 5.32s1.16 6.83 4.11 7.4 5.9-1.81 6.58-5.33-1.16-6.82-4.12-7.39zM28.89 36.51c2.34-.16 4.09-2.56 3.89-5.35s-2.25-4.92-4.6-4.76-4.09 2.56-3.9 5.35 2.26 4.93 4.61 4.76zM19.72 38.06c2.15-.33 3.58-2.67 3.18-5.23s-2.46-4.36-4.61-4-3.57 2.64-3.18 5.17 2.46 4.39 4.61 4.06z"
    />
    <ellipse
      fill="#fff"
      className="PiedB1-C_svg__b"
      cx="10.88"
      cy="37.73"
      rx="3.55"
      ry="4.23"
      transform="rotate(-8.76 10.899 37.737)"
    />
    <ellipse
      fill="#fff"
      className="PiedB1-C_svg__b"
      cx="4.8"
      cy="42.68"
      rx="3.33"
      ry="3.97"
      transform="rotate(-8.76 4.804 42.72)"
    />
    <path
      fill="#fff"
      className="PiedB1-C_svg__b"
      d="M72.52 13.4C57.13 13 56.19 26.92 59.75 33.49s6.58 10.89 3 17.08-7.5 17.73 1.32 21.78 16.15-3 16.15-3S91.49 58.84 93.74 39.5s-5.82-25.73-21.22-26.1zM60.8 14.41c3-.57 4.79-3.89 4.11-7.4s-3.62-5.89-6.57-5.32-4.8 3.88-4.12 7.39 3.63 5.92 6.58 5.33zM71.11 10.77c2.35.16 4.41-2 4.61-4.76S74.17.82 71.82.66s-4.41 2-4.6 4.76 1.55 5.18 3.89 5.35zM80.28 12.32c2.15.33 4.21-1.47 4.61-4s-1-4.9-3.18-5.23-4.22 1.47-4.61 4 1.03 4.91 3.18 5.23z"
    />
    <path
      fill="#fff"
      className="PiedB1-C_svg__b"
      d="M88.48 16.17c1.94.3 3.8-1.33 4.15-3.64s-.93-4.42-2.86-4.72-3.77 1.33-4.16 3.64.93 4.42 2.87 4.72zM95.8 13c-1.82-.28-3.56 1.25-3.9 3.41s.87 4.15 2.69 4.43 3.57-1.25 3.9-3.41-.87-4.13-2.69-4.43z"
    />
  </svg>