<?xml version="1.0" encoding="utf-8"?>
<svg version="1.1" xmlns="http://www.w3.org/2000/svg" xmlns:xlink="http://www.w3.org/1999/xlink" x="0px" y="0px"
	 viewBox="0 0 23 23" style="enable-background:new 0 0 100 100;" xml:space="preserve">
	 <path
      d="M20.541 21.891c-1.074.02-1.889.076-2.841.207-2.762.379-5.579-.736-7.726-2.513S6.271 15.42 4.96 12.96c-.664-1.245-1.289-2.668-.902-4.024.457-1.6 2.139-2.494 3.715-3.024.814-.273 1.702-.499 2.522-.244.956.296 1.606 1.176 2.074 2.061 1.156 2.183 1.415 4.133 2.317 6.433.247.63.888 1.759 1.362 2.243.466.476.924.808 1.513 1.117a35.5 35.5 0 0 1 3.493 2.099c.694.473 1.392.995 1.8 1.729.147.265.227.652-.019.828-.181.13-.43.061-.645.001-.836-.235-1.157-.292-2.588-.322"
      fill="#bad26a"
    />
    <path
      d="M4.611 3.479c-.265-.523-.66-1.031-1.223-1.195s-1.288.18-1.331.765c-.005.07-.002.146-.041.204-.044.066-.127.09-.204.109-.477.117-.962.199-1.451.245-.104.009-.222.013-.297-.059-.078-.075-.076-.198-.063-.306C.149 2.037 1.103.973 2.285.694s2.511.248 3.181 1.26c.403.608.572 1.344.941 1.973a3.546 3.546 0 0 0 2.001 1.58c-.322.348-.702.637-1.08.924-.453.345-.921.694-1.453.908-.539.217-.902.288-.814-.378.16-1.217.119-2.361-.45-3.482z"
      fill="#3ca172"
    />
    <path
      d="M4.138 6.777a16.797 16.797 0 0 0-1.45 2.233 3.564 3.564 0 0 0 2.616-1.201c.244.869.71 1.674 1.34 2.319.484-.924.653-2.01.473-3.037a3.183 3.183 0 0 0 2.732.982c0-.891-.504-1.765-1.276-2.211.943.404 2.162-.032 2.635-.943-1.305-.165-2.723-.308-3.851.368-.342.204-.642.477-.995.662-.436.229-.687.088-1.122.11-.492.026-.81.339-1.102.718z"
      fill="#3ca172"
    />
    <path
      d="M14.617 18.107a6.993 6.993 0 0 1-2.314-3.277c-.471-1.414-.503-3.01-1.352-4.235.712.308 1.157 1.013 1.542 1.686a49.77 49.77 0 0 1 1.561 2.952c.451.927.904 1.908 1.725 2.532.847.644 2.05.884 2.589 1.801-.571-.97-2.883-.781-3.751-1.459z"
      opacity="0.44"
      fill="#fff"
    />
  </svg>