<?xml version="1.0" encoding="utf-8"?>
<svg version="1.1" xmlns="http://www.w3.org/2000/svg" xmlns:xlink="http://www.w3.org/1999/xlink" x="0px" y="0px"
	 viewBox="0 0 100 100" style="enable-background:new 0 0 100 100;" xml:space="preserve">
    <path fill="none" d="M0 0h100v100H0z" />
    <path
      fill="#bedabc"
      className="PlanteB1-C_svg__b"
      d="M62.74 44.26a1.1 1.1 0 01-.47-.1 1.13 1.13 0 01-.55-1.5c.76-1.64 1.44-4.35 1.15-5.15a1.13 1.13 0 01.68-1.44 1.12 1.12 0 011.44.68c.69 1.93-.69 5.69-1.23 6.86a1.12 1.12 0 01-1.02.65zM80.18 21.77c.3-.38.23-2.4.31-3.46a25.19 25.19 0 012.77-9.74c1.56-3 9.35-11.26 12.36-5.52 2.61 5-4.14 12.57-7.55 15.31-.84.64-8.07 5.21-7.89 3.41z"
    />
    <path
      fill="#bedabc"
      className="PlanteB1-C_svg__b"
      d="M4.92 89a1.12 1.12 0 01-.2-2.23c5.33-1 12.11-4.89 16.6-7.48 9.3-5.38 18.68-12.81 28.56-22.71a329.91 329.91 0 0022.55-25.51C76.61 25.93 80.3 21.26 83 16.2a1.13 1.13 0 112 1.08c-2.83 5.22-6.59 10-10.84 15.21a333.84 333.84 0 01-22.69 25.69c-10.06 10-19.55 17.58-29 23.06C17.82 83.92 10.84 88 5.12 89z"
    />
    <path
      fill="#bedabc"
      className="PlanteB1-C_svg__b"
      d="M31.28 75.11a1.07 1.07 0 01-.35-.06 1.13 1.13 0 01-.71-1.43 13.53 13.53 0 00.23-5.52 1.13 1.13 0 012.18-.57 15.28 15.28 0 01-.28 6.81 1.14 1.14 0 01-1.07.77zM48.84 61a1.13 1.13 0 01-.55-2.11c1.87-1.06 4.67-2 6.9-1.67a1.13 1.13 0 11-.37 2.22c-1.56-.27-3.85.52-5.42 1.41a1.15 1.15 0 01-.56.15zM72.68 28c.54.76-.77-2.32-.84-2.45-1.84-3.31-4.24-6.78-4.36-10.73-.15-4.73 4.15-9.84 7.71-4.48S76.8 26.35 74 31.9c-.94-1.42-.95-1.68-1.32-3.9zM71.23 34.31A39.74 39.74 0 0086 38.18c3.7.12 13.12-2.81 8.52-8-4.91-5.55-19.62.88-23.29 4.13zM54.27 52.71a20.11 20.11 0 01-2.21-4.31c-1.83-4.19-4.82-9.49-5.59-14.08-.72-4.32 2.53-9.63 6.3-4.92 4.66 5.84 4.42 18.86 1.5 23.31zM59.36 47.75a5.15 5.15 0 01-.68 0c5.66 3 12.53 6.39 19 7.48 5.07.86 14.12-2.56 8.33-8.7-7.19-7.53-21.41-.65-26.65 1.22zM43.06 64.61c-3.25-6.55-8-11.85-9.25-19.34-.87-5.14 1.76-17.41 8.57-9.69 4.36 4.94 3.51 14.24 2.62 20.22-.48 3.34-.42 7.51-1.94 8.81zM34.91 72c1-.36 4.66 2.61 5.64 3.25 3.51 2.29 7.08 5 11 6.58 4.18 1.65 12.57 1.39 12.69-5 .13-7.43-11.63-7.74-16.41-7.27A70.59 70.59 0 0034.91 72zM17.36 83.44C16.55 75 11 67.87 12.23 58.85c.47-3.38 3.8-14 8.9-9.67 2.5 2.15 2.54 7 2.81 9.91a36.58 36.58 0 01-2.88 18.77c-1.41 3.03-4.22 5.14-3.7 5.58zM19.86 81.58c-.26.22-.4-.22-.53.19 4.23 4.6 19.67 27 25.51 12.14 5.59-14.19-18.35-13.81-24.98-12.33z"
    />
    <path
      fill="#e1ac6c"
      className="PlanteB1-C_svg__c"
      d="M59.91 24.35c-6 .94-4.93 10-.74 12.72s8.56-.06 10.41-4.15c3.22-7.13-5.81-11.78-9.67-8.57zM32.06 67.81c5.06 3.83 8.1-6.92 6-10.47-2.5-4.22-6.92-4.89-10.56-1.8-3.17 2.69-4.51 7.7-1.5 11.1a4.66 4.66 0 006.06 1.17zM62.86 52.55c-5.4-1.37-8.56 3.6-8.07 7.38A7 7 0 0065.35 65c6.07-3.62 3.48-12.33-2.49-12.45z"
    />
  </svg>