<?xml version="1.0" encoding="utf-8"?>
<svg version="1.1" xmlns="http://www.w3.org/2000/svg" xmlns:xlink="http://www.w3.org/1999/xlink" x="0px" y="0px"
	 viewBox="0 0 23 23" style="enable-background:new 0 0 100 100;" xml:space="preserve">
	 <path
      d="M12.92 5.039c-.84-.175-1.713-.058-2.551.127-.567.126-1.13.283-1.659.525a5.667 5.667 0 0 0-2.924 3.15c-.445 1.204-.727 2.547-.419 3.793.503 2.033 2.042 3.764 3.975 4.568a4.39 4.39 0 0 0 1.149.323c.359.043.722.023 1.082-.003.795-.058 1.599-.153 2.34-.447 1.686-.669 2.828-2.287 3.477-3.98.149-.39.283-.814.312-1.23.048-.681.095-1.372-.042-2.041-.102-.502-.306-.979-.551-1.428-.906-1.663-2.336-2.971-4.189-3.357z"
      fill="#3b5e9c"
    />
    <path
      d="M15.749 6.564a10.015 10.015 0 0 1-4.075 1.762c-.992.184-2.006.217-3.006.35-1 .133-2.011.378-2.851.937-.123.081-.24.168-.357.254-.008.301-.221 1.571-.229 1.872.737-.879 2.09-1.792 3.22-1.993 1.13-.201 2.335-.222 3.458-.463.959-.205 1.853-.572 2.737-.996.642-.308 1.111-.629 1.683-1.047a4.493 4.493 0 0 1-.58-.676zM8.73 16.909c.754-.407 1.615-.622 2.467-.754 1.108-.172 2.236-.221 3.331-.462a9.636 9.636 0 0 0 1.791-.583l-.761.928c-.045.01-.121.014-.166.024-.874.193-1.75.386-2.638.492-.701.083-1.411.113-2.103.254a4.581 4.581 0 0 0-1.25.435M14.429 5.685A14.138 14.138 0 0 0 6.066 8.21c.19-.606.719-.965 1.28-1.262 1.502-.798 3.126-1.417 4.82-1.57.389-.035.78-.046 1.171-.056.425-.012.893-.012 1.092.363zM17.55 9.284c-1.784 1.154-3.966 1.581-6.055 1.967s-4.207 1.088-5.626 2.67c.203.731.865 1.288 1.199 1.92.674-1.034 1.391-1.335 2.534-1.8 1.143-.464 3.169-.968 4.362-1.284 1.691-.449 2.388-1.786 3.985-2.502-.159-.455-.197-.533-.399-.971z"
      fill="#5479b3"
    />
    <path
      d="M7.219 20.835a.32.32 0 0 0-.039-.108 5.017 5.017 0 0 0-.27-.445c-.104-.152-.221-.303-.383-.39-.235-.127-.51-.12-.775-.087-.026-.015-.047-.051-.015-.071.143-.027.284-.066.42-.118a.712.712 0 0 0 .261-.152c.061-.062.1-.14.139-.218.168-.338.335-.709.261-1.079.011-.031.058-.015.072.015.126.257.24.529.446.727.217.209.519.315.82.327.087.003.175-.001.259.019-.357.061-.695.321-.872.636a2.296 2.296 0 0 0-.148.341c-.08.214-.158.439-.135.666-.016-.022-.051-.04-.041-.063zM16.664 20.156c-.375-.04-.769-.087-1.076-.305-.23-.163-.388-.406-.54-.643a.93.93 0 0 1-.121-.234c-.007-.023-.012-.048-.029-.065-.024-.025-.066-.026-.098-.011s-.052.044-.075.07a1.749 1.749 0 0 1-.556 1.426c-.217.197-.48.335-.747.456a.213.213 0 0 0-.086.057c-.021.028.005.06.032.082.404-.008.818.104 1.131.359.249.203.421.482.589.756l.203.331c.03.049.116.01.148-.038.032-.048.036-.109.04-.166.018-.255.054-.513.153-.749.088-.21.222-.396.36-.576.161-.208.334-.414.56-.55.042-.026.089-.051.11-.096.02-.045.051-.099.002-.104zM15.924 2.225c.264-.143.54-.297.701-.551.12-.19.163-.417.203-.638a.737.737 0 0 0 .018-.209c-.002-.019-.005-.039.002-.057.01-.026.041-.039.069-.038.028.001.052.016.077.029.125.402.446.739.842.882.219.08.455.102.689.11.028.001.057.002.081.016s.014.046.002.07c-.3.116-.572.324-.725.607-.122.225-.165.483-.205.736l-.049.306c-.007.045-.082.043-.121.017s-.06-.069-.08-.11a1.873 1.873 0 0 0-.34-.506 2.091 2.091 0 0 0-.44-.316c-.182-.105-.372-.204-.579-.236-.039-.006-.081-.011-.11-.038-.031-.025-.07-.055-.035-.074z"
      fill="#fff"
    />
    <path
      d="M17.407 13.053a10.416 10.416 0 0 1-4.237 1.776c-.536.094-1.079.146-1.617.231-.419.067-.834.154-1.245.262a9.265 9.265 0 0 0-.717.218c-.6.213-1.17.508-1.69.876a6.448 6.448 0 0 1-1.037-.999c.63-.314 1.211-.72 1.851-1.013 1.308-.598 2.785-.688 4.166-1.09 1.473-.429 2.816-1.207 4.196-1.878a.891.891 0 0 1 .325-.108c.115-.007.241.04.294.142a.444.444 0 0 1 .026.243c-.04.46-.125.931-.315 1.34z"
      fill="#5479b3"
    />
    <path
      d="M5.049 11.173a5.077 5.077 0 0 0-.197.066C2.963 11.924.835 12.7.115 14.277c-.551 1.207.782 2.082 4.008 1.794 2.721-.243 7.822-1.942 7.822-1.942s8.02-2.36 10.273-4.958-.99-2.613-2.257-2.642c-1.267-.029-3.653.467-3.653.467l.726 1.107s1.698-.412 1.882.483c.184.895-2.182 2.539-5.292 3.531s-5.53 1.754-7.179 2.005-3.015.178-2.932-.508 1.808-1.308 1.808-1.308c-.068-.418-.136-.77-.131-1.193-.043.009-.1.048-.141.06z"
      fill="#d9232e"
    />
  </svg>