<?xml version="1.0" encoding="utf-8"?>
<svg version="1.1" xmlns="http://www.w3.org/2000/svg" xmlns:xlink="http://www.w3.org/1999/xlink" x="0px" y="0px"
	 viewBox="0 0 23 23" style="enable-background:new 0 0 100 100;" xml:space="preserve">
	 <path
      d="M18.615 17.705c-.438-.546-1.3-.66-1.942-1.022-.609-.344-1.012-.915-1.239-1.517s-.295-1.241-.361-1.873a8.365 8.365 0 0 0 2.531 1.627c-.698-.633-1.703-1.065-2.068-1.886-.28-.631-.112-1.365-.392-1.996.557.401 1.133.78 1.726 1.138l-1.091-.894c-.163-.133-.328-.27-.433-.443-.101-.167-.139-.357-.175-.544l-.753-3.887a4.596 4.596 0 0 0 1.829 1.366c-1.366-1.159-2.207-2.778-2.308-4.445.374.663.777.888 1.264 1.313-.059-.395-.377-.714-.576-1.072-.313-.564-.322-1.231-.156-1.844s.586-.8.928-1.356c1.407.558 2.42 1.278 2.865 2.571.148.429-1.125.726-.417 1.285a2.62 2.62 0 0 0 .632-.944 14.307 14.307 0 0 1 2.006 5.324 4.655 4.655 0 0 1-.265 2.398c.368-.321.598-.761.634-1.212.062.419.11.839.146 1.26.027.319.047.642-.015.957-.071.367-.249.711-.427 1.05-.213.404-.429.807-.649 1.209.586-.361 1.035-.889 1.262-1.481.018.92.006 1.874-.438 2.711-.232.437-.573.823-.91 1.205l-.647.732c.281-.008.53-.154.761-.295l1.305-.793c-.385.614-1.037 1.098-1.792 1.332l1.676.234c-.289-.04-.654.044-.954.036-.255-.006-.605-.117-.829.028.111.238.293.466.452.685l-.926-.534c-.414.19-1.016.309-1.482.333a1.59 1.59 0 0 1 .716-.527c-.39-.146-1.021-.026-1.334-.275.644-.103 1.204-.05 1.846.046z"
      fill="#74ad9c"
    />
    <path
      d="M17.313 7.462c-.016.016.03.03.039.01.009-.019-.009-.039-.026-.054a9.816 9.816 0 0 0-2.811-1.728c-.327-.475-.429-1.026-.511-1.576l-.133-.904c.309.472.662.968 1.235 1.183a7.009 7.009 0 0 1-1-1.374c.041-.318.076-.662.168-.972.212-.721.623-1.384 1.031-2.039.435.267.923.455 1.358.722.265.163.532.327.753.534.186.175.336.376.484.576l.541.728c.089.119-.056.251-.112.385-.132.32-.29.631-.473.931a3 3 0 0 0 .735-.888c.279.52.487 1.072.765 1.591.03.056.061.116.051.178a.312.312 0 0 1-.077.138 13.437 13.437 0 0 1-1.91 1.921M14.493 6.876c.031.484.151 1 .554 1.332.257.212.599.322.918.456.529.221 1.013.514 1.495.806.034.021.07.043.091.074a.229.229 0 0 1 .031.105l.156 1.184a1.49 1.49 0 0 0-.842-.888c-.206-.083-.432-.119-.65-.172a3.975 3.975 0 0 1-.673-.227c-.201-.088-.4-.199-.516-.368-.085-.124-.117-.268-.149-.41l-.28-1.263M19.016 6.94c.333-.376.608-.803.711-1.269l.288.966c.018.062.037.124.036.188a.556.556 0 0 1-.079.248c-.379.701-1.21 1.086-1.764 1.665-.122.127-.206.349-.339.454-.086.069-.062.065-.093-.041-.04-.134-.004-.306-.011-.443-.009-.171-.089-.365-.006-.525.118-.227.418-.42.611-.598.225-.208.446-.419.646-.645z"
      fill="#a6d8e3"
    />
    <path
      d="M19.357 8.643c.398-.301.795-.632.979-1.062.059.2.104.403.135.608a3.297 3.297 0 0 1-.573.545c-.291.216-.621.391-.904.615-.227.18-.421.391-.573.622-.111.17-.186.344-.227.535-.164-.389-.075-.68.192-1.016.263-.33.626-.586.971-.847zM16.776 12.678c.232.081.478.136.694.246.153.078.286.181.417.284.066.052.134.105.178.172.059.091.069.2.078.304l.121 1.428c-.045-.524-.592-.896-1.125-1.136-.533-.24-1.246-.505-1.584-.937-.174-.222-.273-1.154-.271-1.516.395.456.825.965 1.492 1.155zM14.443 6.937c.115.5.662.824 1.19 1.041s1.112.4 1.463.807c.183.213.289.474.494.671-.016-.406-.155-.826-.49-1.106a2.014 2.014 0 0 0-.426-.26c-.392-.188-.817-.322-1.21-.508s-.765-.438-.964-.789l.032.481"
      fill="#e97475"
    />
    <path
      d="M18.566 12.012c-.163-.447.024-.945.341-1.328s.751-.675 1.157-.987c.219-.168.445-.363.487-.615a10.12 10.12 0 0 1-.123 1.322.146.146 0 0 1-.026.072c-.022.027-.06.039-.095.051-.453.162-.667.605-.854 1a14.98 14.98 0 0 1-.832 1.52l-.173-1.441M20.272 14.436c.455-.411.758-.947.853-1.51.254.81-.096 1.743-.852 2.271-.267.186-.576.324-.832.522a1.688 1.688 0 0 0-.656 1.112c.06-.45-.255-.953.145-1.324.417-.386.921-.69 1.342-1.071z"
      fill="#a6d8e3"
    />
    <path
      d="M18.84 15.912l.192 5.659c.007.196.012.4-.058.58s-.194.314-.375.287c.208-5.789-.783-11.562-1.769-17.277.344.436.437 1.04.572 1.591.761 3.097 1.33 5.968 1.438 9.16z"
      fill="#fff"
    />
    <g>
      <path
        d="M5.124 18.574c.444.261.903.535 1.194.96l-1.443-.836.718.938c-.39-.226-.792-.431-1.204-.613l.335.638-.563-.555a.751.751 0 0 0-.332-.192 2.82 2.82 0 0 0-.846-.122c-.215.002-.441.026-.634-.068.274-.137.563-.243.86-.316l-1.464-.457c.456-.088.924.014 1.376.116a2.317 2.317 0 0 1-.781-1.507c.207.408.579.73 1.013.875-.023-.065.008-.074-.015-.139-.401-.223-.51-.748-.516-1.208-.009-.678.119-1.373.476-1.949.123.608.388 1.187.769 1.677-.187-.676-.374-1.396-.172-2.067.059-.196.149-.38.241-.563.794-1.574 1.749-3.027 2.818-4.429.129.61.448 1.178.903 1.605a6.497 6.497 0 0 1-.403-1.788.697.697 0 0 1 .032-.343.686.686 0 0 1 .203-.236c.886-.743 2.018-1.129 3.147-1.379.325-.072.66-.134.99-.089.04.593.258 1.216.376 1.798.118.583.172 1.202-.033 1.76-.132.359-.364.673-.606.97-.664.816-1.457 1.574-2.449 1.923a6.632 6.632 0 0 0 1.436-.682c.23-.149.45-.315.657-.494.136-.117.323-.391.477-.431-.158.45-.443.88-.664 1.299-.181.344-.355.655-.554.989a3.415 3.415 0 0 1-.439.564 8.28 8.28 0 0 1-3.574 2.271c.337.055.68-.037 1.002-.152a7.216 7.216 0 0 0 1.749-.908c-.151.406-.317.775-.649 1.054-.194.163-.432.264-.667.363-.64.269-1.299.542-1.993.561.469.225.998.323 1.517.281a1.993 1.993 0 0 1-1.493.15c.384.168.821.212 1.23.124a.844.844 0 0 1-.534.742c-.512.191-.949-.078-1.491-.135z"
        fill="#d9d6c7"
      />
      <path
        d="M8.348 11.202c-.542-.698-.74-1.595-.924-2.459-.038-.175-.075-.356-.047-.533.474-.383.925-.774 1.475-1.037.655-.314 1.369-.483 2.084-.612a6.126 6.126 0 0 1 1.104-.121 1.929 1.929 0 0 0-.066.589c.021.266.095.525.159.784.126.511.216 1.036.195 1.561-.02.526-.155 1.056-.447 1.494-.17.255-.514.322-.81.401a7.113 7.113 0 0 1-2.054.233 2.192 2.192 0 0 1-.491-.06.324.324 0 0 1-.159-.082c-.04-.044-.057-.11-.019-.158zM6.877 13.492a1.458 1.458 0 0 0-.26-.925c-.102-.144-.229-.267-.347-.398a4.462 4.462 0 0 1-.842-1.357c-.212.253-.368.547-.522.839l-.269.509c-.026.049-.074.091-.073.147.008.498.279.95.552 1.367s.563.85.616 1.346c.105-.238.325-.376.491-.576.214-.258.381-.551.547-.842.051-.09.1-.008.107-.11zM7.245 14.69c.463-.053.933.003 1.398-.033a3.591 3.591 0 0 0 1.374-.393c-.397.418-.82.812-1.267 1.177a1.05 1.05 0 0 1-.352.215c-.212.063-.568.17-.787.14-.411-.056-.677.003-1.057.168s-.748.259-1.08.508c.05-.038.081-.265.105-.33.048-.128.104-.254.168-.376.097-.186.206-.37.348-.526.302-.332.711-.5 1.15-.55z"
        fill="#74ad9c"
      />
      <path
        d="M4.423 14.309c.208.341.464.655.622 1.022.079.185.132.385.119.585-.014.2-.1.401-.26.523.119-.418-.132-.842-.372-1.204l-.468-.705c-.116-.174-.236-.363-.232-.572.002-.107.037-.21.071-.311.021-.061.079-.358.159-.348.066.008.055.248.067.308.047.245.156.496.294.702zM7.151 11.453c-.177-.216-.377-.413-.539-.641-.162-.228-.286-.494-.284-.774.004-.437.307-.806.594-1.135-.075.503.152 1.002.425 1.431.273.429.602.833.768 1.314a.322.322 0 0 1 .024.153c-.035.206-.276.529-.485.373-.206-.154-.337-.518-.503-.721zM8.952 13.16c.314-.036.626-.087.936-.153.498-.106 1.039-.288 1.282-.735.025.317-.166.622-.422.811s-.569.282-.878.356a9.795 9.795 0 0 1-1.141.2c-.374.042-.753.063-1.118.154a1.928 1.928 0 0 0-.959.539c.257-1.049 1.411-1.069 2.3-1.172z"
        fill="#e97475"
      />
      <path
        d="M7.102 12.022c.17.244.244.594.066.831.019-.279-.112-.548-.282-.77-.169-.222-.379-.411-.553-.629-.207-.259-.641-.853-.473-1.2.194.145.249.542.367.756.223.404.617.641.875 1.012zM5.816 17.388c.255.08.498.198.756.267.247.066.506.085.76.057-.164.094-.331.189-.516.231-.187.043-.382.029-.573.015-.153-.012-.308-.023-.458-.058-.169-.039-.332-.106-.503-.13-.172-.024-.364.003-.485.127.14-.143.068-.441.295-.559.195-.101.531-.011.724.05z"
        fill="#a6d8e3"
      />
      <path
        d="M5.002 15.969c.975-2.122 2.392-4.02 3.998-5.715-.965 2.025-2.433 3.772-3.461 5.765a14.981 14.981 0 0 0-1.266 3.437c-.279 1.187-.269 2.358-.411 3.551-.259-.323-.201-.909-.199-1.303a12.57 12.57 0 0 1 .169-1.965 14.805 14.805 0 0 1 1.17-3.77z"
        fill="#fff"
      />
    </g>
  </svg>