<?xml version="1.0" encoding="utf-8"?>
<svg version="1.1" xmlns="http://www.w3.org/2000/svg" xmlns:xlink="http://www.w3.org/1999/xlink" x="0px" y="0px"
	 viewBox="0 0 23 23" style="enable-background:new 0 0 100 100;" xml:space="preserve">
	 <path
      fill="#E5B4BB"
      d="M17.227 18.479c.198.123.815.478 1.175.548-.21-.22-.458-.392-.689-.582.44-.03.82.004 1.243-.166-.313-.029-.748-.05-1.018-.186.619-.053 1.778-.535 2.055-1.113-.565.073-2.083.974-2.612.51.086-.14.197-.142.324-.2.65-.296 1.258-.454 1.822-.947.61-.532 1.178-1.11 1.056-2.005-.861.635-1.799 1.897-2.999 1.919 1.011-.848 2.247-1.424 2.816-2.72.32-.728.402-1.582.478-2.37.036-.38.124-.932-.021-1.298-.611.887-1.715 2.226-2.784 2.56.811-.88 1.784-1.853 2.397-2.89.276-.465-.148-2.749-.543-3.122-.269.375-.37.866-.799 1.106.145-.42.548-1.035.466-1.494-.07-.399-.63-.83-.905-1.119-.289-.301-.808-.579-1.264-.56-.48.021-1.17.344-1.55.599-.528.353-1.336.932-1.298 1.644.018.324.21.646.363.927.322.587.586 1.168.868 1.771-.27-.36-.662-.576-.908-.969-.195-.311-.337-.686-.473-1.026-.223 1.027-.307 1.881.069 2.87.418 1.1.989 2.52 1.81 3.373-1.425-.46-1.554-2.084-2.153-3.166-.486.717-.595 1.864-.694 2.715-.133 1.15.728 1.346 1.233 2.222-.368-.076-.856-.39-1.106-.694.28.696.906 1.439 1.364 1.934.406.44 1.096.534 1.522.891-.539.196-1.348-.183-1.802-.47.521.45 1.06.91 1.723 1.12-.228.231-.68.336-.944.539.267-.027.554-.074.828-.068-.2.217-.482.573-.55.865.442-.195 1.265-.445 1.5-.948zM10.052 17.884c-.307-.039-1.062.336-1.448.4-.457.076-.973.103-1.387-.13.758-.15 1.62-.134 2.35-.476-.955.035-2.536.267-3.312-.5.767.146 1.457.212 2.241.208.344-.001.767.061 1.093-.045-.332-.218-.865-.174-1.25-.257-.786-.167-1.697-.458-2.288-1.023.776.129 1.53.36 2.32.462.306.04.743.119 1.027-.062-.186-.388-.7-.352-1.092-.413-.791-.124-1.615-.403-2.35-.721-.428-.185-.692-.534-.97-.906-.625-.833-.886-1.643-1.27-2.608-.293-.734-.764-1.604-.967-2.367-.137-.514-.388-1.117-.4-1.568.233.251.526.463.856.608.39.17.765.355 1.202.377-.58-.525-1.43-.873-1.863-1.57-.478-.77-.312-2.06-.168-2.898.178-1.042.533-2.033.949-2.998.19-.444.334-.91.626-1.294.362.163.634.581.93.835.175.151.534.322.653.532.267.473-.122 1.252-.133 1.752.21-.413.44-.829.663-1.232C7.137 3 7.963 4.152 8.496 5.546c.29.757.428 1.587.671 2.364.118.376.262.796.197 1.194-.092.567-.57.923-.753 1.437.499-.3.851-.591 1.119-1.113.213.532.387 1.069.523 1.627.07.284.16.64.132.932-.048.518-.473.836-.699 1.265.38.056.662-.305.928-.49.09.542.268 1.092.298 1.64.045.799-.706 1.303-1.114 1.916.692-.219 1.608-1.106 1.754-1.837-.037.441-.319 1.002-.564 1.363-.19.28-.479.41-.69.614.603.135 1.27-.562 1.78-.794-.34.535-1.036 1.002-1.553 1.379.349.248 1.327-.412 1.708-.514-.615.607-1.43 1.292-2.181 1.355z"
    />
    <path
      fill="#B14A76"
      d="M6.577 9.785c-.972-.433-1.98-.724-2.827-1.419-.603-.494-1.12-1.013-1.558-1.63-.316-.445.038-1.141.101-1.675.098-.83.239-1.625.51-2.423.22-.646.502-1.286.8-1.899.052-.108.248-.622.358-.668.228-.094 1.174.685 1.426.984.42.5.26 1.036.09 1.653.21-.433.365-.582.513-.872 1.503 1.082 2.607 2.993 3.024 4.789.195.836-.617 1.638-1.14 2.21-.166.18-1.01 1.425-1.297.95zM17.54 12.743c.096.012.4-.245.506-.321.317-.227.647-.531.902-.827.448-.52.976-1.027 1.308-1.635.319-.583.397-.943.324-1.635-.048-.454-.131-.953-.283-1.387-.055-.155-.199-.517-.342-.593-.236.324-.375.736-.682.999.12-.424.31-.764.331-1.21.016-.335-.107-.559-.329-.812a3.728 3.728 0 0 0-1.592-1.034c-.602-.186-1.295.033-1.829.327-.34.187-.602.517-.852.805-.178.205-.514.674-.527.962-.015.306.251.764.371 1.036.14.32.295.627.462.933.09.164.21.35.228.533-.1-.024-.154-.15-.218-.234-.18-.234-.391-.445-.53-.707-.144-.27-.193-.576-.328-.842-.237.555-.276 1.268-.276 1.87 0 .356-.015.72.146 1.045.32.645.783 1.235 1.322 1.717.556.498 1.138.729 1.888 1.01z"
    />
    <path
      fill="#FFF"
      d="M17.302 7.099l-.004.081c-.006-.045-.01-.095-.017-.139-.027-.08-.233.21-.194.403 0 3.289-.107 6.56-.582 9.818-.184 1.26-.537 2.38-.83 3.616-.133.567-.62 1.43-.608 1.987.081.044.164.028.246-.01v.01c.024-.009.045-.035.07-.046.019-.013.038-.021.058-.038.508-.28.898-1.05 1.045-1.534.442-1.456.657-3.317.866-4.897.391-2.964.392-6.618-.05-9.251zM12.637 20.968c-1.514-1.734-2.615-3.826-3.583-5.91-1.023-2.202-1.872-4.493-2.719-6.767-.324-.87-.615-1.754-.907-2.635-.063-.189-.33-1.137-.412-1.392.007.072-.008-.001-.046-.108a.486.486 0 0 0-.063-.165c-.035-.063-.062-.159-.128-.197-.06.036-.073.147-.075.25l-.006-.015c-.034.36.113.792.173 1.149.109.636.257 1.05.561 2.251.413 1.631 1.109 3.362 1.7 4.929.573 1.515 1.22 3.006 1.994 4.43.65 1.196 1.318 2.394 2.226 3.416.262.295.685.771 1.128.75-.007-.008-.012-.017-.019-.024.059.015.115.041.176.038zM5.122 5.347l.01.055-.018-.06.008.005z"
    />
    <g>
      <path
        fill="#EFC97B"
        d="M9.76 17.893l.56.875c.181.294.363.588.59.848.208.276.432.537.674.782.231.265.498.465.845.52.064.028.206.015.17.027a.685.685 0 0 0-.14-.187c-.123-.117-.239-.256-.353-.384-.238-.254-.424-.549-.617-.835l-.56-.876c-.166-.304-.314-.62-.462-.932.305.623.683 1.2 1.071 1.772.197.282.388.575.626.822.119.128.226.254.355.375.06.067.125.117.167.226.006.123-.118.103-.143.103a.915.915 0 0 1-.135-.021c-.352-.058-.663-.294-.878-.557a7.867 7.867 0 0 1-.67-.798c-.438-.54-.747-1.167-1.1-1.76z"
      />
    </g>
    <g>
      <path
        fill="#EFC97B"
        d="M16.177 18.774c-.163.81-.323 1.62-.564 2.413-.125.395-.258.786-.416 1.17-.038.095-.076.19-.102.286-.02.1-.052.199.043.207.173.03.358-.115.503-.24.55-.59.874-1.387 1.023-2.19.185-.803.288-1.63.571-2.409-.148.387-.198.8-.273 1.205l-.238 1.216c-.143.814-.45 1.62-1.022 2.246-.16.126-.335.29-.586.253-.054-.004-.134-.076-.124-.144-.001-.06.013-.113.026-.165.03-.102.069-.2.109-.295.161-.377.299-.768.428-1.158.128-.392.236-.79.321-1.193.097-.403.23-.795.301-1.202z"
      />
    </g>
  </svg>