<?xml version="1.0" encoding="utf-8"?>
<svg version="1.1" xmlns="http://www.w3.org/2000/svg" xmlns:xlink="http://www.w3.org/1999/xlink" x="0px" y="0px"
	 viewBox="0 0 23 23" style="enable-background:new 0 0 100 100;" xml:space="preserve">
	 <path
      d="M12.875 3.071c.375-.613.969-1.104 1.664-1.287.584-.153 1.209-.086 1.786.09s1.117.457 1.652.737c.017.009.034.018.043.035.025.048-.038.091-.082.123-.128.094-.137.278-.153.436-.059.595-.385 1.15-.846 1.531-.242.2-.52.356-.817.459-.69.238-1.443.178-2.17.115l-1.098-.095c-.099-.009-.47.017-.535-.054-.049-.054.013-.283.018-.356.05-.607.218-1.211.538-1.734z"
      fill="#7e9d44"
    />
    <path
      d="M12.153 5.279a15.684 15.684 0 0 1 4.049-2.239c.533-.199 1.086-.37 1.654-.381-1.467.151-2.789.916-4.055 1.672-.711.425-1.433.865-1.969 1.497-.073-.161-.09-.163.025-.282.095-.097.189-.185.296-.267z"
      fill="#b3cd7d"
    />
    <path
      d="M9.501 1.613C8.947.899 8.148.393 7.276.312c-.733-.068-1.478.16-2.15.52s-1.279.847-1.882 1.331c-.019.015-.039.031-.047.055-.023.068.061.11.119.142.171.094.211.331.256.534.167.762.653 1.41 1.273 1.803.326.206.688.347 1.065.413.875.154 1.777-.093 2.648-.339L9.873 4.4c.118-.033.572-.083.639-.191.051-.081-.061-.366-.08-.459-.157-.78-.459-1.529-.931-2.137z"
      fill="#7e9d44"
    />
    <path
      d="M10.733 4.324a17.6 17.6 0 0 0-5.268-2.003c-.678-.139-1.376-.237-2.067-.124 1.802-.133 3.528.564 5.184 1.265.93.394 1.877.804 2.628 1.506.063-.227.082-.233-.076-.362a3.15 3.15 0 0 0-.401-.282z"
      fill="#b3cd7d"
    />
    <path
      d="M10.117.792c-.038-.108-.075-.233-.016-.331.037-.061.104-.096.168-.127.239-.115.487-.212.74-.289a.49.49 0 0 1 .264-.027c.126.033.205.155.265.27.429.826.474 1.793.463 2.724-.013 1.066-.059 2.155-.225 3.21-.038.241-.207.994-.626.671-.169-.13-.07-.942-.075-1.166-.034-1.679-.402-3.354-.958-4.935z"
      fill="#7c3f23"
    />
    <path
      d="M10.488 6.878c-.617-.559-1.354-1.03-2.179-1.136-.629-.08-1.268.056-1.862.276C5.144 6.501 4 7.398 3.212 8.541s-1.218 2.529-1.225 3.918c-.005.968.19 1.925.384 2.874.187.916 1.353 1.139 2.27 1.32.917.181 1.87.094 2.781-.118.546-.127 1.088-.301 1.567-.593.43-.262.8-.612 1.132-.99a8.301 8.301 0 0 0 1.71-3.092c.112-.376.198-.771.14-1.158-.055-.367-.234-.702-.411-1.028l-1.042-1.926c-.134-.251-.287-.747-.03-.87z"
      fill="#dd374b"
    />
    <path
      d="M12.108 22.565c-.844-.083-1.687.169-2.536.164-1.299-.007-2.541-.625-3.51-1.49s-1.696-1.966-2.348-3.09c-.462-.795-.894-1.614-1.174-2.49-.998-3.118.199-6.787 2.789-8.79.579-.448 1.238-.826 1.962-.93.995-.143 2.084-.113 3.009.28.32.136.635.311.981.342.541.05 1.041-.252 1.547-.449a4.2 4.2 0 0 1 1.618-.283c.795.02 1.59.002 2.335.279.562.209 1.121.434 1.628.754 1.224.771 2.067 2.055 2.505 3.434s.499 2.851.41 4.295c-.092 1.484-.799 3.001-1.47 4.328-.573 1.134-1.295 2.22-2.292 3.007-.997.787-2.303 1.247-3.554 1.025-.554-.098-1.077-.323-1.627-.442-.081-.018-.169-.032-.243.004-.073.038-.088-.007-.03.052z"
      fill="#dd374b"
    />
    <path
      d="M11.86 20.097c-.818.737-2.089.922-3.083.448a3.95 3.95 0 0 1-.935-.653c-.878-.792-1.53-1.8-2.123-2.823-.318-.548-.622-1.108-.833-1.706-.46-1.307-.444-2.759-.064-4.092.259-.91.741-1.832 1.591-2.247.428-.209.913-.27 1.389-.272 1.399-.007 2.887.556 3.608 1.756l.024.061c.694-1.278 2.141-2.108 3.595-2.062s2.845.968 3.456 2.288c.172.373.286.77.368 1.173a8.105 8.105 0 0 1-.572 4.958 8.11 8.11 0 0 1-3.387 3.666c-.322.18-.662.339-1.027.399-.745.123-1.581-.272-2.007-.894z"
      fill="#fff"
    />
    <path
      d="M11.417 14.702c-.009.21-.031.423-.099.621s-.189.382-.351.474a.678.678 0 0 1-.429.068.591.591 0 0 1-.266-.088c-.207-.141-.276-.473-.229-.765a1.62 1.62 0 0 1 .365-.768c.152-.182.631-.692.856-.581.233.115.163.799.153 1.039zM12.369 14.816c.006.292.043.597.225.837s.548.386.834.256a.61.61 0 0 0 .338-.507c.019-.206-.046-.411-.126-.604a3.838 3.838 0 0 0-.579-.96c-.087-.106-.209-.23-.355-.266-.206-.05-.212.047-.244.207a4.875 4.875 0 0 0-.093 1.037z"
      fill="#752219"
    />
  </svg>