<?xml version="1.0" encoding="utf-8"?>
<svg version="1.1" xmlns="http://www.w3.org/2000/svg" xmlns:xlink="http://www.w3.org/1999/xlink" x="0px" y="0px"
	 viewBox="0 0 23 23" style="enable-background:new 0 0 100 100;" xml:space="preserve">
	 <path
      d="M17.131 13.345c-.05.257-.375.389-.609.284-.235-.105-.364-.38-.362-.643.001-.262.113-.511.248-.733.126-.206.177-.304.221-.543.044-.239-.182-.457-.203-.68-.05-.185.043-.381.165-.527.123-.145.277-.262.387-.418a.975.975 0 0 0-.112-1.217c-.063-.06-.136-.115-.172-.195a.474.474 0 0 1-.017-.378l-4.202-.167c-.008-.12-.013-.24-.025-.36-.018-.185-.042-.373-.124-.539a1.185 1.185 0 0 0-.309-.37c-.582-.488-1.371-.623-2.123-.655a6.637 6.637 0 0 0-1.605.108c-.447.092-.887.233-1.115.637.083.552-.124 1.108-.388 1.597-.185.341-.407.708-.335 1.091.047.254.216.462.38.659.059.071.127.126.168.21.115.234.016.64-.26.891-.192.174-.236.513-.126.75.102.219.362.299.541.458.302.269.32.806.038 1.097-.282.291-.806.273-1.07-.035-.007.359.236.678.552.838.166.119.358.221.478.291.32.186.662.333 1.018.431.662.183 1.421-.462 2.107-.452.839.012 1.392.491 2.221.359.687-.109 1.212-.514 1.9-.619.376-.058 1.117.246 1.495.195.613-.082.982-.258 1.193-.583.178-.218.226-.567.045-.782z"
      fill="#926146"
    />
    <ellipse cx="11.796" cy="8.235" rx="3.847" ry="3.337" fill="#fbe8dd" />
    <g fill="#e34052">
      <path d="M12.608 10.089c-.588-.02-1.167.022-1.755.024.179.261.501.394.813.393.311-.001.578-.038.822-.237a.42.42 0 0 0 .12-.18z" />
      <path d="M11.048 10.028c.146-.05.274-.146.421-.196a.72.72 0 0 1 .319-.034c.203.024.385.132.576.207a.77.77 0 0 0 .591.006c-.36.246-.932.171-1.407.174-.34.002-.698 0-.994-.171a.717.717 0 0 0 .494.014z" />
    </g>
    <path
      d="M12.047 9.462c-.298-.088-.371-.078-.676-.009.029-.153.175-.255.342-.266.17.009.313.123.334.275z"
      fill="#d9b7a9"
    />
    <path
      d="M16.479 4.688c-.314-.627-.813-1.132-1.304-1.626-.147-.149-.312-.306-.518-.324-.057-.005-.104.03-.157.045-.253-.33-.559-.631-.946-.782-.295-.115-.616-.141-.933-.149-1.381-.037-2.833.264-3.88 1.164-1.174 1.009-1.668 2.63-1.667 4.176 0 .219.098.658-.045.825.249-.122.427-.305.678-.424.431-.203.931-.15 1.407-.139a7.137 7.137 0 0 0 3.229-.696 2.28 2.28 0 0 1-.771.742 4.554 4.554 0 0 0 2.619-1.661c.21.734.587 1.428 1.094 1.981.453.495 1.045.965 1.099 1.642.21-.787.42-1.579.485-2.392.063-.813-.027-1.657-.39-2.382z"
      fill="#926146"
    />
    <path
      d="M7.542 8.121c-.138.174-.179.412-.157.634.038.389.287.773.655.87.127.033.26.032.391.023 0 0 .035-.003.047-.015.014-.013.016-.034.017-.053.026-.41.03-.822.013-1.233-.025-.588-.641-.637-.966-.226zM16 8.176c.138.174.178.412.156.634-.038.388-.287.773-.655.869a1.22 1.22 0 0 1-.391.023s-.035-.003-.047-.015c-.014-.013-.016-.034-.017-.053-.026-.41-.03-.822-.013-1.233.026-.587.642-.635.967-.225z"
      fill="#fbe8dd"
    />
    <g
      fill="none"
      stroke="#f3ae6d"
      strokeWidth="0.063"
      strokeLinecap="round"
      strokeLinejoin="round"
      strokeMiterlimit="10"
    >
      <path d="M13.203 14.235a.918.918 0 0 0 .138.534M9.332 14.312c.069.234.071.489.004.724" />
    </g>
    <path
      d="M7.709 8.431c.072-.038.171-.068.264 0a.402.402 0 0 1 .149.233c.013.092.028.176.011.245-.013.077-.031.139.029.204-.097.009-.169-.112-.172-.185a1.426 1.426 0 0 0-.05-.22.286.286 0 0 0-.047-.182c-.031-.036-.104-.064-.184-.095zM15.912 8.514c-.08.033-.152.062-.183.098a.278.278 0 0 0-.044.183c-.02.062-.033.131-.047.221-.002.073-.071.195-.168.188.058-.066.039-.127.025-.205-.018-.068-.004-.153.007-.245a.403.403 0 0 1 .145-.235c.093-.071.192-.042.265-.005z"
      fill="#d9b7a9"
    />
    <path
      d="M14.06 8.414a.48.48 0 0 0 .352-.246.908.908 0 0 1-.25.598.904.904 0 0 0-.781-.365.91.91 0 0 0-.724.468.628.628 0 0 1 .261-.501c.251-.176.579-.274.868-.171a.56.56 0 0 1 .123.06.643.643 0 0 1 .151.157zM9.266 8.493a.48.48 0 0 1-.352-.246.908.908 0 0 0 .25.598.91.91 0 0 1 .781-.365.91.91 0 0 1 .724.468.628.628 0 0 0-.261-.501c-.251-.176-.579-.274-.868-.171a.56.56 0 0 0-.123.06.643.643 0 0 0-.151.157z"
      fill="#28241f"
    />
    <path
      d="M10.274 11.191c.237.073.48.164.651.339.205.21.276.51.309.797.034.296.03.619-.149.861l.006-.108c-.059.151.014.424.151.515.137.091.311.112.477.112a2.29 2.29 0 0 0 .885-.175.088.088 0 0 0 .039-.025c.026-.032.001-.078-.023-.112a1.552 1.552 0 0 1 .007-1.769c.234-.323.588-.552.817-.879-.98.416-2.105.544-3.17.444z"
      fill="#fbe8dd"
    />
    <path
      d="M11.392 12.294c-.056-.012-.08.067-.083.125a1.15 1.15 0 0 1-.445.839c-.439.335-1.054.309-1.554.543a1.62 1.62 0 0 0-.802.838c.147.532.261 1.059.408 1.59.321-.669 1.169-1.034 1.876-.807.346.111.656.343 1.018.373.043.004.089.003.125-.021.039-.027.055-.077.067-.124.202-.754.322-1.529.358-2.309.02-.428-.028-.936-.396-1.156-.187-.112-.514-.101-.572.109z"
      fill="#fbe8dd"
    />
    <path
      d="M4.604 19.958a.801.801 0 0 0-.058.693c.396-.042.542-.524.74-.869.141-.245.345-.447.546-.645 1.032-1.018.799-.386 2.987-2.791.175-.193.484-.635.592-.872s.117-.537-.044-.741c-.178-.225-.502-.269-.788-.246-.814 1.518-1.701 3.113-3.194 3.972-.89.512-2.008.78-2.548 1.654-.069.112-.124.264-.043.367.084.107.249.085.379.049a6.928 6.928 0 0 0 1.431-.571zM12.277 12.485c.056-.012.08.067.083.125.018.326.185.641.445.839.439.335 1.054.309 1.554.543.358.167.65.472.802.838-.147.532-.261 1.059-.408 1.59-.321-.669-1.169-1.034-1.876-.807-.346.111-.656.343-1.018.373-.043.004-.089.003-.125-.021-.039-.027-.055-.077-.067-.124a10.863 10.863 0 0 1-.358-2.309c-.02-.428.028-.936.396-1.156.188-.112.515-.101.572.109z"
      fill="#fbe8dd"
    />
    <path
      d="M19.066 20.149c.123.206.146.47.058.693-.396-.042-.542-.524-.74-.869-.141-.245-.345-.447-.546-.645-1.032-1.018-2.191-1.957-3.224-2.976-.185-.183-.909-.709-.356-.687.26.01-.117-.537.044-.741.178-.225.502-.269.788-.246.814 1.518 1.701 3.113 3.194 3.972.89.512 2.008.78 2.548 1.654.069.112.124.264.043.367-.084.107-.249.085-.379.049a6.92 6.92 0 0 1-1.43-.571z"
      fill="#fbe8dd"
    />
    <g>
      <path
        d="M13.783 18.677a2.14 2.14 0 0 0-.308-.38c-.09-.086-.184-.169-.258-.269-.075-.1-.178-.245-.119-.354.265-.487.641-.903.975-1.346.334-.443.634-.923.709-1.473a1.63 1.63 0 0 0-.99-.682 1.629 1.629 0 0 0-1.187.194c-.283.172-.505.426-.711.685-.184-.255-.384-.504-.643-.68a1.633 1.633 0 0 0-1.175-.254c-.405.069-.78.3-1.024.631.047.553.322 1.048.633 1.507.311.459.666.894.905 1.394.054.112-.057.252-.137.348-.079.096-.178.173-.272.255-.103.09-.192.199-.279.311a8.917 8.917 0 0 0-4.265 2.184c.016.006.033.009.049.015l-.002.001c.279.427.661.805 1.139.981.479.176 1.061.118 1.436-.229a3.896 3.896 0 0 0 2.731 1.472c.362.029.727.006 1.086-.045a6.99 6.99 0 0 0 2.103-.65c.335-.166.67-.37.868-.688.426.239.95.295 1.416.152.467-.143.87-.482 1.089-.918.022-.044.039-.094.027-.141l.03-.01c-1.076-.984-2.413-1.654-3.826-2.011z"
        fill="#fcde5f"
      />
      <path
        d="M14.812 14.764a1.787 1.787 0 0 0-1.245-.694 1.786 1.786 0 0 0-1.351.454c-.14.128-.291.258-.407.407-.282-.48-.81-.806-1.365-.843s-1.122.217-1.465.655c.009.017.046.102.029.112.003.17.013.252.079.409.434-.409 1.128-.712 1.681-.489.14.056.363.206.493.282.206.12.345.31.551.43.223-.179.48-.374.724-.523.136-.084.277-.163.431-.208.313-.09.654-.026.95.111.296.137.554.341.809.544.049-.233.108-.41.086-.647zM13.569 18.505l.257.237c.011.01.022.022.022.036 0 .016-.013.028-.025.038-.676.567-1.41 1.066-2.12 1.589l-1.92-1.461c-.021-.016-.043-.034-.049-.059-.006-.022.002-.046.01-.067.058-.155.14-.3.243-.429.598.491 1.199.97 1.814 1.439-.018-.018-.004-.07.016-.086.577-.456 1.175-.781 1.752-1.237z"
        fill="#fff"
      />
    </g>
    <g>
      <path
        d="M8.67 4.274s.778-.951 1.848-1.143L9.853.444S10 1.451 9.336 1.662 8.192.703 8.193.878c.001.175.6.992.096 1.401s-1.227-.167-1.227-.167L8.67 4.274z"
        fill="#e8b858"
      />
      <ellipse
        transform="rotate(-24.92 9.241 2.92)"
        cx="9.241"
        cy="2.92"
        rx="0.289"
        ry="0.33"
        fill="#fff"
      />
      <path
        d="M7.88 3.331l.288.39c.163.22.336.334.502.553.073-.092.061-.109.021-.204-.04-.095-.113-.169-.175-.249-.112-.144-.192-.312-.284-.472a3.454 3.454 0 0 0-.469-.637c-.168-.181-.379-.419-.634-.498.066.204.234.394.354.567.128.186.263.368.397.55zM9.884.484c-.007.313-.007.626-.007.938 0 .149 0 .3.035.44.033.132.095.251.151.373.093.205.167.421.221.643.017.072.016.208.076.256.047.037.127-.004.196-.008-.06-.462-.191-.878-.304-1.323a30.41 30.41 0 0 0-.271-.998C9.953.712 9.882.584 9.884.484z"
        fill="#e8b858"
      />
      <path
        d="M7.234 2.095c.066.079.174.111.277.139.122.034.25.068.383.04.226-.046.406-.265.473-.485.067-.221.044-.444.019-.66-.01-.079-.019-.159-.05-.229a.858.858 0 0 0-.007.05"
        fill="none"
      />
      <path
        d="M9.926.587c.017.119.035.239.086.345a.403.403 0 0 0 .267.226c.193.046.431-.069.564-.235a.837.837 0 0 0 .169-.557c.026-.023.041-.043.071-.035.018.946.048 1.781.112 2.718-.269-.012-.587.071-.845.117-.476-.72-.129-.742-.24-1.103a4.526 4.526 0 0 1-.208-1.54c.004.029.019.035.024.064zM7.108 2.275c.081.08.163.163.214.265.051.103.069.23.019.352-.077.189-.303.325-.507.344a.738.738 0 0 1-.525-.169c-.033.01-.057.01-.068.04a50.666 50.666 0 0 1 2.088 1.676c.103-.249.292-.46.475-.687-.329-.202-.462-.529-.673-.84a3.777 3.777 0 0 0-1.059-1.037c.02.02.016.036.036.056z"
        fill="#e8b858"
      />
      <circle cx="8.128" cy="0.727" r="0.284" fill="#e8b858" />
      <circle cx="6.304" cy="3.101" r="0.284" fill="#e8b858" />
      <circle cx="6.95" cy="2.054" r="0.284" fill="#e8b858" />
      <circle cx="9.822" cy="0.284" r="0.284" fill="#e8b858" />
      <circle cx="11.036" cy="0.328" r="0.284" fill="#e8b858" />
      <ellipse
        transform="rotate(-10.283 10.265 2.597)"
        cx="10.263"
        cy="2.597"
        rx="0.218"
        ry="0.249"
        fill="#fff"
      />
      <ellipse
        transform="rotate(-40.518 8.412 3.677)"
        cx="8.411"
        cy="3.677"
        rx="0.218"
        ry="0.249"
        fill="#fff"
      />
    </g>
  </svg>