<?xml version="1.0" encoding="utf-8"?>
<svg version="1.1" xmlns="http://www.w3.org/2000/svg" xmlns:xlink="http://www.w3.org/1999/xlink" x="0px" y="0px"
	 viewBox="0 0 23 23" style="enable-background:new 0 0 100 100;" xml:space="preserve">
	 <path
      fill="#E3CE7D"
      d="M4.635 16.33c.032-.258.202-.559.429-.685a6.164 6.164 0 0 1 1.95-.688c1.48-.254 2.531 2.015 2.335 3.503-.052.395-.193.803-.508 1.045-.192.146-.428.218-.66.287-.394.117-.87.144-1.264.262-.423.125-.592-.773-.998-.945-.24-.1.363-.294.202-.498-.706-.896-1.632-.494-1.402-1.61.032-.155-.223-.36-.084-.672z"
    />
    <path
      fill="#FBE28A"
      d="M4.51 16.764c-.203.683-.262 1.44.018 2.096.265.619.847 1.107 1.513 1.202.666.095 1.388-.236 1.704-.83.29-.547.223-1.218.029-1.805-.284-.86-.826-1.356-1.691-1.596-.726-.2-1.367.236-1.573.933z"
    />
    <path
      fill="#131919"
      stroke="#131919"
      strokeWidth="0.044"
      strokeMiterlimit="10"
      d="M6.06 18.675c.185.128.447.156.637.036a.619.619 0 0 0 .204-.225c.295-.53-.138-1.32-.788-1.195-.65.126-.47 1.094-.053 1.384z"
    />
    <path
      fill="#E3CE7D"
      d="M15.406 14.058c.033-.257.203-.558.43-.684a6.164 6.164 0 0 1 1.95-.688c1.48-.254 2.531 2.014 2.335 3.503-.052.394-.193.803-.508 1.044-.192.147-.428.219-.66.287-.394.117-.87.145-1.264.262-.423.126-.592-.773-.998-.944-.24-.1.363-.294.202-.499-.706-.896-1.633-.493-1.402-1.61.032-.155-.223-.36-.085-.67z"
    />
    <path
      fill="#FBE28A"
      d="M15.342 14.428c-.203.684-.261 1.44.019 2.097.264.619.846 1.107 1.512 1.202.667.095 1.389-.236 1.705-.83.29-.547.222-1.218.028-1.805-.283-.86-.825-1.356-1.691-1.596-.725-.2-1.366.236-1.573.932z"
    />
    <path
      fill="#131919"
      stroke="#131919"
      strokeWidth="0.044"
      strokeMiterlimit="10"
      d="M16.893 16.34c.185.128.446.156.636.036a.619.619 0 0 0 .204-.225c.295-.53-.138-1.32-.788-1.195-.649.125-.47 1.094-.052 1.384z"
    />
    <path
      fill="#F1777A"
      d="M19.843 17.422c.085.133.219.285.37.236a.365.365 0 0 0 .125-.084l2.506-2.241c.04-.035.081-.073.095-.124.024-.087-.039-.172-.099-.24a9.51 9.51 0 0 0-1.818-1.59c-.086-.058-.18-.116-.283-.12a.54.54 0 0 0-.26.083c-.594.313-1.632.995-1.782 1.712-.072.348.182.701.338.99.253.469.522.929.808 1.378z"
    />
    <path
      fill="#599BBF"
      d="M5.63 1.445c.64-.232 1.372-.407 1.98-.106.335.166.588.458.801.764.54.775.872 1.668 1.265 2.526s.87 1.709 1.613 2.293c1.198.942 2.89 1.043 4.135 1.923.436.308.836.822.673 1.33-.11.342-.446.564-.783.695-.65.254-1.364.277-2.06.253-1.784-.063-3.574-.422-5.162-1.226S5.128 7.824 4.366 6.225c-.188-.394-.34-.814-.355-1.25-.026-.71.38-1.308.44-2 .072-.838.366-1.235 1.179-1.53z"
    />
    <path
      fill="#99CCED"
      d="M21.486 12.464c-.124-.865-.321-1.756-.863-2.443a2.93 2.93 0 0 0-2.063-1.09c-.421-.03-.844.032-1.267.037-.749.01-1.44-.155-2.17-.316-.9-.198-2.259.225-3.18.19-2.131-.083-3.789-1.355-5.21-2.93-.68-.755-1.23-1.644-1.836-2.46l-.518-.695c-.063-.084-.13-.172-.228-.21-.12-.047-.255-.008-.376.035A5.989 5.989 0 0 0 .22 6.048a2.455 2.455 0 0 0-.15.541c-.032.238-.007.481.043.716.125.583.406 1.123.542 1.704.246 1.047.006 2.142.043 3.218.026.78.2 1.555.51 2.272.167.384.382.764.72 1.012.358.262.818.351 1.262.348s.884-.093 1.324-.154a10.63 10.63 0 0 1 3.092.027c.356.056.706-.001 1.066-.03.544-.045 1.082-.14 1.619-.237 3.82-.682 7.715-1.286 11.195-3z"
    />
    <g fill="#131919">
      <path d="M9.777 6.043c-.665.521-1.512.804-2.1 1.41-.115.12-.224.261-.232.426-.01.165.127.343.292.32.1-.013.176-.09.247-.161.545-.544 1.224-.921 1.86-1.346.184-.124.797-.425.77-.691-.048-.472-.674-.087-.837.042zM9.233 8.687c-.065.079-.132.182-.09.275a.183.183 0 0 0 .081.082c.159.086.352-.01.508-.102.706-.425 1.422-.857 1.98-1.461.178-.194.316-.516.001-.634-.293-.11-.695.238-.91.389-.586.41-1.116.9-1.57 1.451zM12.623 7.839a22.3 22.3 0 0 0-.706.747c-.244.27-.487.557-.6.903-.013.036-.023.077-.005.11.025.048.09.056.143.046.17-.03.3-.164.416-.29l1.12-1.214c.408-.441.03-.705-.368-.302zM13.82 8.655c-.188.244-.36.498-.517.762-.045.077-.09.16-.086.247s.08.179.168.165a.24.24 0 0 0 .112-.063c.41-.344.774-.74 1.083-1.177.134-.189.252-.48-.071-.507-.267-.024-.554.397-.69.573z" />
      <path d="M6.557 6.228c-.196.047-.405.106-.532.261-.062.076-.085.213.005.252.018.008.037.01.057.012.678.074 1.362.035 2.037-.059.28-.039 1.791-.151 1.874-.449.199-.71-3.106-.096-3.441-.017zM9.545 6.689c-.341.01-.695.025-.999.18-.078.04-.163.123-.12.2.022.04.072.057.117.069a5.614 5.614 0 0 0 2.486.078c.474-.093.644-.492.067-.568-.495-.065-1.052.024-1.551.04zM10.74 7.938a.164.164 0 0 0-.077.029c-.047.04-.031.121.016.161.046.04.111.05.173.059.283.038 2.115.202 1.948-.398-.12-.432-1.745.09-2.06.149zM12.646 8.422c.07.1.21.12.334.122.223.005 1.61-.042 1.188-.584-.225-.288-1.435.1-1.522.462z" />
    </g>
    <path
      fill="#FFF"
      d="M3.91 3.625c-.136-.022-.271.095-.292.23-.022.136.054.275.167.354.11.077.272.1.373.011a.279.279 0 0 0 .079-.129c.046-.152-.017-.33-.148-.42s-.321-.084-.448.012M4.652 5.004c-.205.043-.35.273-.298.475s.29.333.49.27a.361.361 0 0 0 .164-.103.364.364 0 0 0 .047-.393c-.065-.133-.212-.222-.361-.219s-.293.099-.353.235M5.224 11.787c.105.04.215.082.292.164.09.095.12.23.147.357.068.339.122.68.161 1.024 1.497.552 2.795 1.642 4.372 1.9-.86-.802-1.787-1.53-2.77-2.178-.14-.092-.284-.186-.38-.323-.092-.132-.131-.294-.168-.45l-.195-.83a.822.822 0 0 0-.08-.231c-.082-.14-.237-.218-.382-.293a8.904 8.904 0 0 1-2.767-2.233s-.706.952-.766 1.054c-.172.292-.381.685-.112.984.264.292.908.402 1.27.538l1.378.517zM9.365 10.617c.05.035.103.073.126.129.028.064.011.138-.006.206l-.263 1.059a.281.281 0 0 0-.01.145c.018.06.073.101.125.138l3.768 2.622-2.564-3.21c-.044-.055-.09-.114-.095-.185a.352.352 0 0 1 .037-.152l.336-.826c-.348-.459-.923-.678-1.472-.859-.321-.105-1.651-.7-1.89-.418.496.53 1.305.931 1.908 1.35z"
    />
    <path
      fill="#599BBF"
      d="M13.932 15.717c-1.01.375-2.112.418-3.182.534-.77.084-1.54.208-2.303.373-.15.033-.302.067-.44.132a1.107 1.107 0 0 0-.53.55c-.098.214-.135.434-.208.65a.218.218 0 0 1-.061.105c-.052.044-.133.056-.205.064l-.924.112c-.11.014-.227.026-.315-.012-.243-.106-.074-.497-.355-.547-.069-.012-.145.003-.218.004a.487.487 0 0 1-.438-.25c-.073-.135-.304.226-.326.075-.007-.05-.074.063-.122.03-.067-.045-.195-.037-.293-.022-.713.11-.807.034-1.519.144-.163-.278-.542-1.09-.598-1.401l-.107-.603c.338-.095.55-.116.895-.127.995-.03 1.602-.177 2.615-.15.429.012 1.021-.06 1.438-.01 1.357.158 2.33-.455 3.748-.7 1.443-.25 2.9-.596 4.346-.824 1.126-.177 2.753-.36 3.815-.762l2.846-1.074c.059.202.078.415.059.63-.01.118-.035.24-.116.35s-.232.204-.389.212c.04.172-.08.365-.256.508s-.398.245-.617.344c-1.034.47-2.117.954-3.254 1.047-.5.041-.993.004-1.493.073a3.589 3.589 0 0 0-1.54.596c.052-.024-.005-.027.047-.05z"
    />
    <g>
      <path
        fill="#E3CE7D"
        d="M1.421 18.073c.032-.257.203-.559.429-.685A6.164 6.164 0 0 1 3.8 16.7c1.48-.254 2.532 2.015 2.336 3.504-.052.394-.193.802-.509 1.044-.191.147-.428.218-.659.287-.394.117-.87.145-1.264.262-.423.126-.592-.773-.998-.944-.24-.101.362-.294.201-.499-.705-.896-1.632-.493-1.402-1.61.032-.155-.222-.36-.084-.671z"
      />
      <path
        fill="#FBE28A"
        d="M1.296 18.507c-.203.683-.261 1.44.019 2.096.264.62.846 1.107 1.512 1.202.667.095 1.389-.236 1.705-.83.29-.547.222-1.218.028-1.805-.283-.86-.825-1.356-1.691-1.596-.725-.2-1.366.236-1.573.933z"
      />
      <path
        fill="#131919"
        stroke="#131919"
        strokeWidth="0.044"
        strokeMiterlimit="10"
        d="M2.847 20.418c.185.128.446.156.636.036a.619.619 0 0 0 .204-.225c.295-.53-.138-1.32-.788-1.195-.649.126-.47 1.094-.052 1.384z"
      />
    </g>
    <path
      fill="#E3CE7D"
      d="M16.258 14.784c.396.12.722.393.985.7.761.893 1.05 2.175.631 3.277a1.363 1.363 0 0 1-.273.469 1.436 1.436 0 0 1-.364.26 3.382 3.382 0 0 1-1.44.397 1.838 1.838 0 0 1-.655-.07 1.88 1.88 0 0 1-.558-.32c-.587-.455-1.046-1.08-1.206-1.793-.162-.72.03-1.75.57-2.327.502-.535 1.63-.797 2.31-.593z"
    />
    <path
      fill="#FBE28A"
      d="M12.918 17.485a2.836 2.836 0 0 0 .844 2.044c.132.13.281.25.46.308.156.051.324.053.488.05.364-.006.743-.034 1.06-.213.341-.195.564-.548.659-.918s.074-.755.02-1.129c-.073-.513-.21-1.026-.498-1.46-.402-.61-1.294-1.161-2.067-.773-.66.332-.957 1.452-.966 2.09z"
    />
    <path
      fill="#131919"
      stroke="#131919"
      strokeWidth="0.044"
      strokeMiterlimit="10"
      d="M14.472 18.03c.177.251.545.381.833.246a.396.396 0 0 0 .157-.125.478.478 0 0 0 .067-.166c.068-.284.052-.6-.123-.832-.172-.226-.685-.41-.931-.194-.266.233-.174.83-.003 1.072z"
    />
  </svg>