<?xml version="1.0" encoding="utf-8"?>
<svg version="1.1" xmlns="http://www.w3.org/2000/svg" xmlns:xlink="http://www.w3.org/1999/xlink" x="0px" y="0px"
	 viewBox="0 0 23 23" style="enable-background:new 0 0 100 100;" xml:space="preserve">
	 <path
      d="M3.895 1.697c-1.006-.158-2.086.112-2.852.781S-.14 4.22.045 5.221C.306 6.639 1.638 7.627 3.003 8.09c.092.031.191.061.284.036.116-.031.193-.137.26-.236a42.248 42.248 0 0 0 2.099-3.451c.702-1.292-.415-2.532-1.751-2.742z"
      fill="#6e4f37"
    />
    <path
      d="M2.677 3.39c-.541.134-1.028.632-1.057 1.226-.022.461.225.897.561 1.179.306.257.679.407.996.648-.065-.05.334-1.04.374-1.143.153-.392.329-.774.526-1.144.068-.125.223-.29.148-.433-.064-.122-.327-.192-.44-.235-.353-.134-.738-.189-1.108-.098z"
      fill="#8a715c"
    />
    <path
      d="M18.964 1.752c1.01-.194 2.109.041 2.906.69s1.254 1.718 1.102 2.735c-.215 1.44-1.526 2.483-2.888 2.999-.092.035-.191.068-.286.046-.117-.028-.199-.132-.27-.229-.8-1.1-1.547-2.239-2.238-3.412-.753-1.281.333-2.571 1.674-2.829z"
      fill="#6e4f37"
    />
    <path
      d="M21.1 5.447c.228-.525.116-1.246-.363-1.661-.371-.322-.89-.408-1.337-.323-.407.078-.95.388-1.17.733-.066 1.973.658.734.725.7.4-.199.441.776.626 1.179.063.137.104.371.27.405.142.029.366-.138.473-.201.333-.198.62-.473.776-.832z"
      fill="#8a715c"
    />
    <path
      d="M11.383 22.034l-.57.848c-.919-.724-1.997-1.199-3.016-1.764s-2.019-1.262-2.623-2.278l-.039 1.076a11.845 11.845 0 0 1-2.752-5.463c-.104.36-.297.694-.554.961a17.441 17.441 0 0 1 1.127-9.991c.173-.4.364-.798.645-1.126.265-.308.599-.543.941-.754.572-.353 1.4-.684 2.028-.916a10.232 10.232 0 0 1-1.414-1.386c.704-.014 1.408.3 1.879.838C7.35 1.192 8.109.564 8.848.003l-.627 1.699c3.011-1.124 6.424-.781 9.323.621-.451.177-.932.256-1.409.335 1.284.364 2.624 1.173 3.321 2.341.413.692.612 1.493.805 2.28.688 2.797 1.376 5.748.627 8.528a6.103 6.103 0 0 0-.588-1.363c.01.737-.332 1.428-.704 2.059a17.284 17.284 0 0 1-4.536 5.064 3.432 3.432 0 0 0 .733-1.692c-1.258 1.116-2.783 1.811-4.41 2.159z"
      fill="#ab8b68"
    />
    <g fill="#6e4f37">
      <path d="M9.914 7.125c-.705-.294-1.473-.423-2.233-.547-.647-.106-1.325-.208-1.949-.014-.982.304-1.566 1.262-1.832 2.2-.237.836-.293 1.732-.046 2.566.247.834.817 1.601 1.626 2.018.666.343 1.455.435 2.211.366.756-.069 1.488-.289 2.199-.541a23.878 23.878 0 0 0 1.647-.652c.077-.034.158-.071.204-.138.047-.068.049-.154.05-.235l.021-1.767c.006-.528.093-1.113-.086-1.622-.263-.747-1.072-1.327-1.812-1.634z" />
      <path d="M15.083 6.582c.536-.112 1.096-.182 1.633-.077 1.099.215 1.918 1.154 2.198 2.173.279 1.018.102 2.1-.205 3.111-.126.417-.28.838-.577 1.171-.562.629-1.521.811-2.396.772-1.438-.064-2.796-.603-4.119-1.133-.251-.101-.511-.207-.695-.397-.217-.224-.298-.534-.349-.832-.119-.701-.111-1.417-.087-2.124.023-.693.095-.902.753-1.11.628-.199 1.19-.649 1.8-.91a10.696 10.696 0 0 1 2.044-.644z" />
      <path d="M10.932 11.929c-.24.004-.482.007-.719.049-.812.143-1.484.728-1.888 1.42s-.577 1.485-.704 2.269c-.087.54-.155 1.096-.03 1.629.125.533.478 1.046 1.011 1.235.219.078.456.098.689.117 1.246.103 2.498.206 3.747.137.546-.03 1.163-.135 1.46-.576.177-.264.199-.596.208-.91.047-1.507-.057-3.071-.781-4.408-.159-.294-.355-.581-.642-.764-.662-.421-1.604-.209-2.351-.198z" />
    </g>
    <path
      d="M6.714 9.072a1.472 1.472 0 0 0-.23.575c-.132.627-.053 1.345.412 1.8.177.173.401.299.639.379.736.247 1.63.016 2.102-.583s.453-1.527-.078-2.078c-.728-.756-2.129-1.075-2.845-.093z"
      fill="#fff"
    />
    <path
      d="M9.229 13.649c-.088.244.074.529.322.638.249.109.554.061.784-.081.36-.221.881-.951.288-1.168-.42-.155-1.255.225-1.394.611zM13.42 13.636c.083.239-.07.518-.306.625-.237.107-.527.059-.745-.079-.342-.217-.837-.932-.274-1.145.4-.152 1.193.221 1.325.599z"
      fill="#cbc1ba"
    />
    <path
      d="M7.589 11.074a1.063 1.063 0 0 1-.266-.646.978.978 0 0 1 .484-.917c.161-.092.354-.142.548-.16.427-.039.893.096 1.128.392.128.161.18.356.189.549.014.3-.076.611-.3.848-.192.203-.57.405-.898.372a1.487 1.487 0 0 1-.885-.438z"
      fill="#28241f"
    />
    <path
      d="M13.526 9.117a1.472 1.472 0 0 0-.23.575c-.132.627-.053 1.345.412 1.8.177.173.401.299.639.379.736.247 1.63.016 2.102-.583.473-.599.453-1.527-.078-2.078-.728-.756-2.128-1.075-2.845-.093z"
      fill="#fff"
    />
    <path
      d="M14.401 11.119a1.063 1.063 0 0 1-.266-.646.978.978 0 0 1 .484-.917c.161-.092.354-.142.548-.16.427-.039.893.096 1.128.392.128.161.18.356.189.549.014.3-.076.611-.3.848-.192.203-.57.405-.898.372a1.495 1.495 0 0 1-.885-.438z"
      fill="#28241f"
    />
    <g>
      <path
        d="M8.265 16.608l1.382-.444c.451-.156.906-.299 1.379-.431.945-.26 2.024-.301 2.946.076-.495.053-.969.087-1.43.17-.46.087-.91.188-1.369.317-.915.241-1.921.465-2.908.312z"
        fill="#cbc1ba"
      />
    </g>
  </svg>