<?xml version="1.0" encoding="utf-8"?>
<svg version="1.1" xmlns="http://www.w3.org/2000/svg" xmlns:xlink="http://www.w3.org/1999/xlink" x="0px" y="0px"
	 viewBox="0 0 23 23" style="enable-background:new 0 0 100 100;" xml:space="preserve">
	 <g fill="#da9a7f">
      <path d="M12.902 8.031c-.412-.379-1.048-.345-1.599-.248-.105.019-.213.039-.318.018a.804.804 0 0 1-.312-.168 11.04 11.04 0 0 1-1.137-.991c-.096-.096-.193-.198-.231-.328-.042-.142-.006-.295.044-.434.088-.244.219-.471.387-.668-.101-.532.348-1.46.347-2.002-.261.182-.786.918-.945 1.193-.207.359-.379.709-.543 1.077s-.272.775-.197 1.17c.059.309.225.586.395.85.169.263.349.48.574.697.196.188.422.381.657.517.548.317 1.137.56 1.749.721a.906.906 0 0 0 .382.041.735.735 0 0 0 .277-.12c.247-.161.447-.402.531-.685s.156-.44-.061-.64z" />
      <path d="M9.786 4.762c-.208.055-.431.119-.565.287a.76.76 0 0 0-.121.235c-.128.382-.1.925.162 1.252.126.157.168-.143.195-.236.065-.233.132-.466.184-.703.061-.276.11-.555.145-.835z" />
    </g>
    <path
      d="M5.573 13.966c.286-.294.651-.496 1.012-.689.361-.194.729-.387 1.028-.667.493-.462.754-1.121.906-1.778a7.145 7.145 0 0 0 .16-2.182c.069.281.251.518.375.78.137.29.202.609.251.926.166 1.081.159 2.198-.123 3.255-.282 1.056-.85 2.05-1.687 2.754-.36.304-.816.562-1.28.481-.389-.068-.705-.368-.891-.716-.39-.735-.349-1.55.249-2.164z"
      fill="#b97597"
    />
    <path
      d="M22.004 7.839a.81.81 0 0 0 .036-.338.638.638 0 0 0-.426-.49.895.895 0 0 0-.664.05c-.12.056-.236.14-.286.263-.05.123.021.303.142.358-.123-.058-.084-.24-.026-.363.018-.039.04-.081.08-.098a.142.142 0 0 1 .071-.006c.259.031.403.364.304.606-.099.242-.366.38-.627.405-.618.059-2.087-.424-2.423-.946-.467-.728-.896-.505-1.046-1.357-.15-.852 1.141-1.837.546-3.59-.278-.819-.939-1.529-1.761-1.798-.385-.126-.825-.14-1.182.052-.037.02-.067.052-.103.075a1.213 1.213 0 0 0-.178-.311c-.311-.37-.87-.375-1.351-.33-.384.036-.77.085-1.136.207-.898.301-1.612 1.038-2.013 1.896-.401.857-.513 1.828-.464 2.774.018.34.056.682.166 1.005.191.558.593 1.017 1.067 1.374.113.187.175.421.097.626-.079.207-.336.35-.535.251-.057-.028-.108-.08-.113-.143 0 .004-.004.007-.004.011 0 .066.044.124.095.165.207.165.541.091.709-.115a.78.78 0 0 0 .156-.521c.562.332 1.181.556 1.798.773.106.037.221.075.328.04a.426.426 0 0 0 .211-.189c.042.1.087.199.146.291.124.192.288.354.44.523.335.372.639.797 1.086 1.021.19.095.43.129.603.241-.214.076-.598.005-.595.224.003.241.654.88.826 1.038.36.332.952.608 1.422.745a3.183 3.183 0 0 0 1.702.009c-.261.044-.536.019-.802-.013a3.542 3.542 0 0 1-1.76-.752c-.374-.307-.601-.664-.645-1.108.233.345.572.603.919.834.283.188.584.366.919.424.274.047.567.088.844.064.332-.029.654-.118.981-.182.327-.064.651-.183.904-.4a2.345 2.345 0 0 1-1.687.125 2.63 2.63 0 0 1-.302-.119c.154.049.311.086.472.095.563.032 1.111-.182 1.612-.439.276-.141.546-.299.777-.505.231-.207.422-.466.508-.764a1.983 1.983 0 0 1-1.346.108 1.984 1.984 0 0 1-1.098-.787c.386.311.856.333 1.348.381.563-.034.898-.227 1.197-.585a1.394 1.394 0 0 1-.985.357c.472-.254.895-.649 1.046-1.162zm-8.657-3.221a5.937 5.937 0 0 0-.217 1.618 2.55 2.55 0 0 0-.855-.55c-.49-.192-.737-.046-1.176-.336-.059-.039-.178-.098-.111-.124.626-.242.218-.347-.014-.59-.109-.114-.372-.269-.225-.326.029-.011-.375-.096-.353-.118.084-.084-.054-.224-.025-.339.023-.094.141-.123.237-.135.742-.089 1.488-.185 2.2-.414.196-.063.389-.14.577-.225-.047.411-.049.827.007 1.237.013.108.054.258-.045.302z"
      fill="#010101"
    />
    <path
      d="M4.419 18.665a3.949 3.949 0 0 1-2.523-1.505 3.95 3.95 0 0 1-.76-2.838c.155-1.239.888-2.332 1.167-3.548A5.012 5.012 0 0 0 1.508 6.8c.605-.046 1.2.153 1.77.361.633.231 1.274.486 1.78.931 1 .88 1.28 2.334 1.212 3.664-.056 1.087-.34 2.23-1.129 2.981.893-.3 1.769-.686 2.509-1.268s1.339-1.377 1.559-2.293c.231 1.512-.158 3.07-.855 4.431a6.723 6.723 0 0 1-.81 1.257c-.871 1.043-2.189 1.708-3.547 1.756"
      fill="#b97597"
    />
    <path
      d="M11.939 9.543c.079.367.172.731.291 1.087.049.147.102.294.145.443"
      fill="#f7dabc"
    />
    <path
      d="M15.496 11.273a7.64 7.64 0 0 0 0-1.987l.076-.01.025-.137c.018.026.031.055.05.08a.673.673 0 0 1 .246-.327c.097-.068.209-.11.32-.15.192-.07.566-.163.758-.233.132-.039.265-.079.396-.123h.002a.147.147 0 0 0 .044-.016c.372-.126.732-.284 1.029-.537.065-.055.13-.123.135-.208a.341.341 0 0 0-.021-.118c-.184-.597-.512-.929-.856-1.45-.061-.092-.103-.16-.196-.219-.26-.121-.289-.147-.38-.089-.043.027.052.067.028.112-.032.06-.019.134-.004.2l.285 1.344c-.108.037-1.215.103-1.953.166a3.126 3.126 0 0 0-1.087-.018c-.144.024-.313.066-.455.01-.042-.017-.263-.151-.264-.172.003.094.017.188.027.282-.021-.005-.044-.004-.064-.013a.404.404 0 0 1-.159-.156c-.019-.03-.031-.075-.063-.077-.022-.001-.086.063-.106.076a1.558 1.558 0 0 1-.489.213c-.112.027-.227.042-.332.09-.011.005-.021.014-.032.02-.151.003-.354.083-.48.115a2.159 2.159 0 0 0-.234.069"
      fill="#da9a7f"
    />
    <path
      d="M13.124 11.937c-.028.129-.102.242-.173.353-.226.351-.441.71-.645 1.075-.026.047-.053.099-.047.153.009.071.072.121.13.162.691.493 1.568 1.054 2.416 1.089.133.005.147-.066.256-.143.092-.065.148-.168.217-.257.137-.174.33-.293.499-.437.169-.144.322-.335.327-.556.007-.281-.218-.505-.366-.744-.299-.483-.3-1.093-.212-1.654.088-.561.255-1.114.258-1.682.003-.568-.195-1.181-.674-1.486-.493-.315-1.177-.212-1.64.145-.463.357-.729.921-.848 1.494-.096.46-.05.854.113 1.289.133.353.473.81.389 1.199zM16.028 3.754c.039 1.663-1.132 3.008-2.759 3.046-1.628.038-2.831-1.129-2.87-2.792-.039-1.663 1.103-3.13 2.73-3.168s2.86 1.251 2.899 2.914z"
      fill="#da9a7f"
    />
    <g fill="#c4242d">
      <path d="M14.028 5.616c-.483-.005-1.017.04-1.5.052.152.21.419.313.675.306.256-.007.437-.046.654-.185.025-.016.152-.124.171-.173z" />
      <path d="M12.661 5.596c.122-.043.228-.125.349-.169a.607.607 0 0 1 .267-.034c.171.016.326.1.487.158s.349.059.496-.007c-.321.179-.78.158-1.179.17-.286.008-.586.014-.838-.121.134.049.284.05.418.003z" />
    </g>
    <path
      d="M14.101 4.446a.435.435 0 0 1 .201-.089.464.464 0 0 1 .139.007c.13.024.253.08.358.159.009.007.018.014.029.017.011.003.023 0 .035-.003.072-.023.12-.088.159-.153a.85.85 0 0 0 .127-.33c-.044.049-.089.1-.145.134a.224.224 0 0 1-.189.03c-.033-.012-.062-.033-.094-.047a.336.336 0 0 0-.154-.022.687.687 0 0 0-.515.283c-.034.044-.052.098-.086.139.043-.044.086-.088.135-.125zM12.213 4.573a.428.428 0 0 0-.205-.079.459.459 0 0 0-.138.013.859.859 0 0 0-.35.176c-.009.007-.018.015-.028.018a.063.063 0 0 1-.036-.001c-.073-.019-.124-.083-.166-.145a.854.854 0 0 1-.142-.324.68.68 0 0 0 .151.127.226.226 0 0 0 .191.021c.033-.013.06-.036.092-.052a.334.334 0 0 1 .153-.029c.203.001.402.1.528.259.034.042.054.095.09.135a1.142 1.142 0 0 0-.14-.119z"
      fill="#1b171c"
    />
    <path
      d="M13.537 5.08c-.142-.007-.229-.051-.308-.037-.077-.005-.178.022-.306.043.028-.147.154-.221.304-.241.156.01.273.103.31.235z"
      fill="#985438"
    />
    <path
      d="M13.053 7.26a.527.527 0 0 1-.023.324.32.32 0 0 1-.249.194c.44-.008.88-.007 1.32.002-.219-.167-.308-.468-.267-.74s.195-.516.386-.714c-.059.061-.333.08-.417.099-.139.031-.279.059-.42.085-.269.049-.583.043-.84.122.031.104.22.167.298.245a.775.775 0 0 1 .212.383zM11.121 5.222c-.04.089-.089.187-.181.219a.329.329 0 0 1-.159.004 2.64 2.64 0 0 1-.496-.121c-.157-.055-.315-.131-.416-.263-.105-.138-.133-.319-.128-.492.006-.202.06-.415.207-.554.147-.139.403-.174.549-.034.027.026.068.044.096.068.355.298.572.754.58 1.217-.026.009-.06-.018-.052-.044zM15.401 5.1c.044.087.098.182.191.21a.347.347 0 0 0 .16-.003c.167-.032.331-.08.489-.144.154-.063.309-.145.403-.282.098-.142.118-.325.105-.497-.015-.202-.08-.412-.233-.544-.153-.132-.411-.155-.55-.008-.025.027-.066.047-.093.072a1.65 1.65 0 0 0-.522 1.243c.027.008.06-.021.05-.047z"
      fill="#da9a7f"
    />
    <path
      d="M9.987 4.284c.07-.049.216-.089.303.009.092.075.113.172.172.261.029.079-.009.151-.047.203-.022.026-.026.048-.038.079a.207.207 0 0 0 .079.203c-.099.013-.218-.071-.232-.2-.014-.06.01-.129.038-.179.011-.025.024-.035.01-.048-.031-.067-.058-.156-.09-.212-.019-.071-.095-.092-.195-.116zM16.387 4.031c-.099.028-.174.053-.19.125-.03.058-.052.148-.08.216-.013.013 0 .022.012.047.031.048.058.116.046.177-.008.129-.123.219-.222.211a.203.203 0 0 0 .07-.206c-.014-.03-.018-.052-.041-.077-.04-.05-.081-.12-.056-.2.054-.092.071-.189.159-.269.082-.103.23-.07.302-.024z"
      fill="#985438"
    />
    <path
      d="M16.895 2.654c-.028-.273-.134-.533-.26-.777-.178-.342-.414-.674-.758-.851a1.849 1.849 0 0 0-.494-.157.55.55 0 0 0-.293 0c-.171.063-.243.175-.266.306a4.293 4.293 0 0 0-.17-.485 1.283 1.283 0 0 0-.193-.342c-.311-.37-.87-.375-1.351-.33-.384.036-.77.085-1.136.207-.898.301-1.612 1.038-2.013 1.896-.286.615-.425 1.286-.463 1.964l.872-.231c.023-.094.141-.123.237-.135.742-.089 1.48-.131 2.192-.359.711-.23 1.401-.655 1.894-1.216.104-.118.203-.256.207-.413l-.002-.038c.03.093.061.182.081.258.134.489.332.96.589 1.398.111.189.255.388.47.431.019.004.039.006.056-.003.02-.011.029-.035.036-.057a.505.505 0 0 1 .182-.255c.088-.059.209-.075.301-.022.017.01.035.022.054.018.014-.003.025-.015.034-.027.167-.217.222-.507.194-.78z"
      fill="#010101"
    />
    <path d="M15.295 7.151v-.025" fill="none" />
    <path
      d="M15.186 8.943c.11-.074.23-.143.362-.149.132-.005.276.075.3.205.014.078-.016.161.005.237.011.039.034.073.055.107.087.141.152.309.12.471-.016.082-.056.157-.07.239-.012.066-.007.134-.01.201a.67.67 0 0 1-.128.383.441.441 0 0 1-.353.178.682.682 0 0 1-.202-.047 3.518 3.518 0 0 1-.863-.452c-.129-.093-.272-.186-.2-.339.067-.143.202-.277.298-.402.189-.247.427-.458.686-.632z"
      fill="#7f2057"
    />
    <path
      d="M13.463 9.254a1.855 1.855 0 0 0-.678-.32c-.108-.023-.22-.031-.326-.002s-.205.099-.248.2c-.015.035-.023.073-.039.108-.03.066-.085.116-.129.173a.617.617 0 0 0-.128.392c.002.079.019.158.011.236-.005.049-.02.097-.028.146a.58.58 0 0 0 .193.513c.029.026.061.05.081.084.02.035.025.076.037.114.048.151.206.246.363.264s.314-.026.465-.075c.263-.086.479-.202.688-.382.194-.167.494-.474.474-.664-.017-.165-.487-.611-.736-.787z"
      fill="#7f2057"
    />
    <path
      d="M14.696 13.073a.258.258 0 0 1 .052-.198c.01-.013.027-.026.05-.019.018.005.029.02.036.033.058.1.048.209-.024.277a.217.217 0 0 1-.114-.16.333.333 0 0 1 .034-.159"
      fill="#965f4a"
    />
    <path
      d="M14.9 14.607c-.075.453-.071-.058-.408-.001-.032.005-.067-.229-.085-.203-.129.178-.15-.015-.186-.029-.646-.245-1.171-.691-1.746-1.076a3.653 3.653 0 0 0-1.474 2.974c.015.715.243 1.416.237 2.131a3.258 3.258 0 0 1-1.169 2.463c-.726.595-1.73.84-2.645.632-1.52-.345-2.703-1.708-3.194-3.187a.96.96 0 0 1-.373-.086c.029.94.422 1.897 1.008 2.632s1.365 1.303 2.208 1.72a4.086 4.086 0 0 0 1.589.417c.351.019.703-.019 1.052-.058.407-.045.815-.09 1.214-.177a5.885 5.885 0 0 0 3.905-2.988c.026-.007.058.013.038-.006-.02-.019-.006-.051.008-.075.065-.112.111-.234.157-.355.264-.704.525-1.412.698-2.145s.255-1.493.157-2.239c-.09-.69-.612.241-.991-.344z"
      fill="#963669"
    />
    <path
      d="M13.221 21.63c.066-.005.122-.046.174-.087 1.108-.866 2.019-2.006 2.518-3.321a6.778 6.778 0 0 0 .045-4.632c-.043.052-.115.088-.158.14-.598.73-1.249 1.416-1.618 2.285-.437 1.029-.471 2.235-.388 3.349.028.371.072.749-.016 1.109-.06.245-.178.471-.296.695l-.234.446c-.022.041-.024.063-.027.016z"
      fill="#963669"
    />
    <path
      d="M14.535 14.685a31.132 31.132 0 0 0-1.963-.584c-.225-.059-.46-.12-.634-.274s-.263-.432-.131-.624c.087-.127.249-.186.402-.184.154.002.302.055.444.114.839.347 1.708.935 2.235 1.688-.118-.04-.233-.096-.353-.136z"
      fill="#f7c24d"
    />
    <path
      d="M15.439 13.774c.167-.219.35-.446.608-.544.072-.027.162-.041.221.01.025.021.04.051.054.081.079.168.126.376.026.532-.073.113-.204.17-.326.226-.453.207-.818.499-1.216.787.106-.392.39-.772.633-1.092z"
      fill="#f7c24d"
    />
    <path
      d="M4.535 15.905a8 8 0 0 0-.156 2.042c.015.288.046.577.122.856.23.852.845 1.537 1.441 2.188-.571-.301-1.157-.628-1.533-1.153-.348-.485-.736-1.184-.625-1.798.134-.741.34-1.497.751-2.135z"
      fill="#963669"
    />
    <path
      d="M5.145 19.493c.658 1.038 1.83 1.766 3.059 1.769 1.229.003 2.455-.785 2.853-1.947.271-.79.166-1.671.43-2.463.308.585.403 1.255.493 1.91.052.377.103.763.022 1.134-.105.481-.43.894-.828 1.183-.399.288-.869.462-1.345.59-.849.228-1.746.318-2.612.16s-1.697-.575-2.269-1.243c-.536-.625-.821-1.444-.874-2.265-.045-.7.032-1.56.342-2.199.133.03.059 1.407.1 1.666a4.49 4.49 0 0 0 .629 1.705z"
      fill="#963669"
    />
    <path d="M12.131 8.121a.603.603 0 0 0-.175-.069" fill="none" />
  </svg>