<?xml version="1.0" encoding="utf-8"?>
<svg version="1.1" xmlns="http://www.w3.org/2000/svg" xmlns:xlink="http://www.w3.org/1999/xlink" x="0px" y="0px"
	 viewBox="0 0 23 23" style="enable-background:new 0 0 100 100;" xml:space="preserve">
	 <path
      fill="#49939F"
      d="M15.052 15.293c.327.564.86.907 1.3 1.38.171.182.774.978.812 1.218.05.32-1.818.972-2.142 1.172-.13.08-.32-.11-.455-.207-.169-.121-.169-.02-.107-.303l.908-.718s-1.716-.816-2.47-1.012c.597-.673 1.867-.638 2.154-1.53z"
    />
    <path
      fill="#1C7990"
      d="M15.975 8.06c.554-.255.987-.303 1.55-.546.904-.392 2.034-.66 2.987-1.06.206-.087.423-.142.631-.22.106-.04.248-.131.357-.146.093-.012.059-.01.129.064.1.107.347.274.34.43-.004.055-.084.023-.12.073-.077.108-.246.27-.348.356-.247.208-.404.485-.665.675-1.078.784-2.351 1.55-3.416 2.351-.291.22-.433.472-.77.61-.146-.676-.25-1.37-.432-2.036a1.712 1.712 0 0 0-.243-.552z"
    />
    <path
      fill="#F7D7D0"
      d="M12.19 7.735c.133-.003.27-.006.39-.062a.484.484 0 0 0 .273-.406c.422.004.843-.053 1.248-.17.022.125-.073.244-.063.37.01.12.12.215.237.248.117.034.241.02.363.012a4.593 4.593 0 0 1 1.58.166c.045.013.103.05.082.093-.01.021-.035.03-.057.037-.787.229-1.6.348-2.414.44-.895.1-1.806.167-2.69-.008-.154-.03-.34-.103-.355-.26-.022-.236.275-.426.471-.448.304-.035.63-.007.935-.012z"
    />
    <path
      fill="#EFD54E"
      d="M4.265 14.582c-.957.644-2.032 1.124-2.895 1.89-.863.766-1.5 1.942-1.205 3.058.28-.684 1.208-1.006 1.852-.644.205.115.375.283.556.435.376.315.853.572 1.338.498.402-.06.734-.336 1.106-.502a2.14 2.14 0 0 1 1.385-.12c.635.16 1.186.612 1.838.675.644.062 1.256-.264 1.893-.375.834-.145 1.38.105 2.02.66-.096-1.34 1.083-2.54 1.638-3.764a9.642 9.642 0 0 0 .805-2.96c.079-.749.06-1.544-.31-2.2-.472-.834-1.42-1.279-2.346-1.526-.719-.192-1.46-.297-2.169-.528-.192-.062-.688-.381-.877-.288-.185.09-.375.678-.476.86-.662 1.2-1.441 2.345-2.392 3.337a10.84 10.84 0 0 1-1.76 1.494z"
    />
    <path
      fill="#49939F"
      d="M10.398 16.509c-.406 1.285-1.011 2.499-1.468 3.767-.268.744-.173 1.13-.336 1.905.14.103 0 0 .173.017.23-.99.895-1.269 1.56-2.038a72.232 72.232 0 0 1 1.78-1.984c.313-.335.63-.669.892-1.044.328-.47.566-.995.8-1.518.04-.09.082-.19.057-.287-.028-.114-.138-.185-.24-.242a6.618 6.618 0 0 0-.833-.395c-.263-.103-.55-.19-.826-.127-.12.027-.232.083-.343.137-.01.072-.485.227-.558.276-.157.102-.16.159-.232.333-.165.395-.297.792-.426 1.2z"
    />
    <path
      fill="#1C7990"
      d="M17.596 7.583c-1.084.262-1.456.232-1.716.141-.896.355-1.888.35-2.852.34-.385-.005-.777-.01-1.14-.137a3.553 3.553 0 0 1-.474-.22l-.234-.124c-.511.135-1.036.264-1.548.4-.37.097-.76.205-1.026.48-.187.192-.293.446-.395.694-.235.572-.473 1.15-.577 1.76-.062.36-.076.739.038 1.086.114.348.372.662.72.776.121.04.263.052.371-.015.154-.096.182-.302.22-.48.112-.525.434-.979.748-1.416.129.576.508 1.05.856 1.525.348.476.652 1.062.508 1.633.303.124.574.267.894.333.43.089.874.07 1.312.05l1.603-.073c.055-.002.115-.007.153-.046.036 0 .056-.022.091-.021a7.674 7.674 0 0 1 1.133-2.218c.16-.218.335-.431.449-.678.105-.23.154-.48.194-.73.068-.423.114-.849.137-1.276M11.97 15.943c.256.314.49.646.702.991.017.028.036.058.066.07.02.009.043.008.065.007l.535-.023a.493.493 0 0 0 .167-.027c.072-.03.125-.092.178-.15a4.59 4.59 0 0 1 1.572-1.141.174.174 0 0 0 .076-.05c.027-.038.02-.088.012-.133l-.106-.58a60.057 60.057 0 0 1-3.287-.215c-.081-.007-.172-.02-.219-.087-.046-.067.016-.189.09-.156.043.088-.045.209-.143.194-.097-.014-.147-.155-.08-.228-.12.13-.35.179-.449.327-.081.124-.108.366-.155.508.417.104.707.364.975.693z"
    />
    <path
      fill="#DF5F60"
      d="M15.376 9.304l-2.756-.17c-.264.257-.55.556-.814.812a.384.384 0 0 0-.106.14.384.384 0 0 0-.004.178l.076.563a.2.2 0 0 0 .022.078c.023.038.068.056.109.072a6.76 6.76 0 0 1 2.192 1.383 9.803 9.803 0 0 1 2.109-1.436 2.819 2.819 0 0 1 .108-.796 10.037 10.037 0 0 1-.997-.764c-.024-.02-.05-.045-.051-.077-.002-.032.09-.006.112.017z"
    />
    <path
      fill="#EFD54E"
      d="M14.583 9.495c.068.211.095.436.08.657.24.064.475.143.705.237-.21.058-.422.106-.636.146.11.244.17.511.172.78l-.491-.419c-.03-.025-.064-.051-.103-.048-.034.003-.06.029-.085.052a1.472 1.472 0 0 1-.582.339c.074-.227.149-.453.226-.68a3.518 3.518 0 0 1-.586-.59c.155-.018.312-.018.467 0 .114.014.304.11.41.092.098-.016.456-.465.423-.566z"
    />
    <path
      fill="#DAA352"
      d="M8.759 13.587c-.374-.23-.675-.564-.915-.93a2.903 2.903 0 0 1-.362-.749.22.22 0 0 1-.013-.101c.017-.099.14-.13.24-.14a12.845 12.845 0 0 1 1.631-.055c-.172.267-.103.624.032.912.24.51.687.915 1.25 1.011-.032.207-.032.237-.247.29-.149.037-.325.063-.48.07a2.02 2.02 0 0 1-1.136-.308z"
    />
    <path
      fill="#DAA352"
      d="M10.666 13.337c.23.032.36.28.418.504.039.15.061.32-.021.45-.086.137-.259.19-.42.214-.129.02-.278.021-.37-.073a.459.459 0 0 1-.092-.177c-.043-.124-.084-.272-.007-.38.125-.175-.06-.223-.008-.36.047-.123.388-.193.5-.178z"
    />
    <g fill="#E0AC57">
      <path d="M21.967 5.95c.038-.033-.04-.077-.088-.064-.659.176-1.371.419-2.398.667-.137.329-.04.823.19 1.094.23.272.42.456.744.606.42-.567 1.17-1.179 1.788-1.795.024-.024.088.006.068.034.098-.087.045-.28-.042-.378a.538.538 0 0 0-.262-.164z" />
      <path d="M22.607 6.522a.46.46 0 0 0 .3-.375c.012-.143-.053-.28-.116-.41-.063-.127-.133-.262-.258-.33-.124-.066-.276-.05-.41-.008-.174.055-.357.188-.348.37.01.202.252.336.258.538.01.278.322.31.574.215z" />
    </g>
    <path
      fill="#E0AC57"
      d="M7.82 22.391c.38-.005.844-.001 1.225-.006.256 0 1.268-1.593 1.738-2.481-.53-.035-1.467-.342-1.962-.535a43.15 43.15 0 0 1-.193 1.864c-.035.283-.046.381-.237.568-.106.105-.412.426-.572.59zM14.8 17.891c.316.422.573.89.759 1.383l-2.304.463a.185.185 0 0 0-.089.035.187.187 0 0 0-.046.082c-.044.126-.204.448-.248.574-.182-.277-.274-.747-.431-1.038.338-.276.765-.459 1.14-.687.417-.255.823-.526 1.219-.812zM15.233 15.087c.104-.242.15-.51.13-.772a31.53 31.53 0 0 1-4.095-.24c-.077-.01-.17-.013-.214.05a.215.215 0 0 0-.028.11l-.05.71c1.404.191 2.844.241 4.257.142z"
    />
    <path
      fill="#F7D7D0"
      d="M11.713 3.602c-.189-.041-.399-.073-.567.024-.15.087-.231.262-.25.434-.017.172.019.344.054.514l.076.357c.008.04.017.082.038.118.076.134.264.136.417.121a.622.622 0 0 0 .206-.043c.063-.03.119-.087.127-.157.04-.369.22-.71.181-1.079a.254.254 0 0 0-.02-.086c-.044-.09-.214-.114-.262-.203z"
    />
    <path
      fill="#F7D7D0"
      d="M13.362 7.724c-.457-.079-.642-.862-.914-1.239a1.904 1.904 0 0 1-.212-.43l-.588-1.5c-.405-1.034.81-2.138 1.84-2.556.468-.19.982-.239 1.488-.248.717-.013 1.447.054 2.116.313.11.042.22.093.292.185a34.463 34.463 0 0 0-.342 2.457l-.068.641c-.041.389-.083.78-.186 1.157-.058.208-.14.422-.31.556-.248.197-.854.222-1.169.183-.316-.04-.644-.08-.945-.034-.517.079-.73.358-1.002.515z"
    />
    <path
      fill="#F7D7D0"
      d="M12.376 6.565c.14.405.15.855.026 1.266.106.093.282.054.381-.046.1-.1.142-.24.181-.376.055-.188.11-.376.134-.57a2.65 2.65 0 0 0-.049-.852 4.403 4.403 0 0 0-.468-1.273c-.12-.217-.286-.441-.53-.486a.478.478 0 0 0-.475.205c-.195.302.07.746.213 1.02.194.371.449.713.587 1.112z"
    />
    <path
      fill="#FFF"
      d="M15.963 5.77c-.037-.01-.077-.01-.115-.011a3.732 3.732 0 0 1-1.8-.534c.147.487.466.921.92 1.15.05.025.117.013.171 0a.546.546 0 0 0 .167-.079c.241-.152.444-.335.657-.526z"
    />
    <path
      fill="#E0CD6F"
      d="M11.576 3.647c-.097-.55-.194-1.103-.202-1.661-.003-.208-.021-.463-.21-.548a1.864 1.864 0 0 1 1.461-.325c.666-.265 1.337-.394 2.048-.482.231-.028.475-.045.686.05.127.058.233.153.352.226.315.195.702.227 1.073.225a.978.978 0 0 0 .358-.05c.113-.045.214-.138.235-.258.425.292.646.837.593 1.35-.02.194-.077.387-.183.55a1.3 1.3 0 0 1-.25.278c-.385.33-.897.486-1.404.52-.507.033-1.014-.046-1.514-.138-.378-.07-.766-.15-1.082-.37-.084-.059-.162-.127-.256-.169-.093-.042-.208-.053-.294.003-.08.052-.118.15-.15.24l-.55 1.578a.198.198 0 0 0-.19-.067 2.574 2.574 0 0 0-.521-.952z"
    />
    <path
      fill="#D69E9D"
      d="M15.61 5.255l-.369.098a.175.175 0 0 1-.077.008c-.091-.018-.22-.156-.255-.233.083-.034.19-.006.278.01.094.016.354-.02.424.117z"
    />
    <path
      fill="#FFF"
      d="M14.37 3.527c.094.036.185.08.27.132a.226.226 0 0 1-.03.082c-.07.13-.175.259-.321.278-.128.018-.255-.06-.328-.166-.053-.076-.195-.415-.093-.485.054-.038.17.043.22.062.093.035.19.061.283.097z"
    />
    <path
      fill="#1B1B1A"
      d="M14.519 3.586a.272.272 0 0 1-.162.2c-.085.038-.197.02-.258-.05-.06-.07-.062-.172-.049-.263.003-.018.01-.04.027-.044 0 0 .294.094.442.157z"
    />
    <path
      fill="#FFF"
      d="M16.535 3.988c-.1-.012-.2-.015-.3-.008a.227.227 0 0 0-.011.086c.001.147.034.31.154.396.105.075.253.066.368.005.081-.043.365-.276.308-.386-.03-.059-.171-.04-.224-.047-.099-.013-.197-.034-.295-.046z"
    />
    <path
      fill="#1B1B1A"
      d="M16.376 3.971a.272.272 0 0 0 .05.252c.058.074.165.11.252.076.085-.034.135-.123.165-.21.006-.017.01-.039-.003-.051 0 0-.304-.054-.464-.067z"
    />
    <path
      fill="#49939F"
      d="M18.347 2.166c-.167.226-.341.46-.587.597-.138.078-.293.121-.446.164-.609.169-1.213.338-1.83.468-.008 0-.016-.004-.025-.003-.33-.26-.672-.512-1.06-.671-.218-.089-.448-.148-.652-.263-.373-.21-.618-.585-.85-.946a.517.517 0 0 1-.083-.175c-.027-.14-.187-.293-.255-.417-.092.267-.165.54-.218.817-.133.686-.128 1.454.289 2.016.078.105.168.2.26.294.366.372.755.72 1.165 1.043.255-.014.488-.14.715-.257.205-.105.435-.192.66-.162.109.061.198.152.285.242l.426.442a.315.315 0 0 0 .122.09.283.283 0 0 0 .168-.013c.438-.135.783-.466 1.111-.787.075-.073.15-.148.206-.237a1.26 1.26 0 0 0 .11-.254c.192-.558.356-1.125.493-1.699.022-.096.043-.203-.004-.29zm-3.75 2.097c-.192.072-.503.125-.622-.042a2.373 2.373 0 0 1-.44-1.252c.532.294 1.049.615 1.549.961-.149.141-.295.262-.487.333zm2.15.423c-.15.105-.396-.031-.536-.148s-.228-.261-.312-.424a16.151 16.151 0 0 1 1.587-.352c-.152.37-.412.695-.74.924z"
    />
  </svg>