<?xml version="1.0" encoding="utf-8"?>
<svg version="1.1" xmlns="http://www.w3.org/2000/svg" xmlns:xlink="http://www.w3.org/1999/xlink" x="0px" y="0px"
	 viewBox="0 0 23 23" style="enable-background:new 0 0 100 100;" xml:space="preserve">
	 <path
      d="M20.223 21.496c.061.001.079-.078.022-.098a11.228 11.228 0 0 1-1.981-.922c-.87-.514-1.673-1.148-2.619-1.522-.913-.361-1.916-.46-2.904-.494-1.435-.049-2.901.038-4.24.532-1.824.674-3.317 2.069-5.199 2.562-.041.011-.054.06-.022.087 1.16.979 2.74 1.524 4.274 1.316.959-.131 1.879-.508 2.848-.53 1.244-.028 2.431.531 3.675.574 2.111.072 4.068-1.548 6.146-1.505z"
      fill="#efe5ce"
    />
    <path
      d="M7.954 20.109c-.119-.094-1.033-.498-2.691-5.491S3.387 5.546 3.4 3.46C3.414 1.375 4.028.208 4.958.021s2.137 1.338 2.355 1.7c.218.364 1.637 3.294 2.169 5.747s1.382 7.38 1.144 11.638-2.672 1.003-2.672 1.003z"
      fill="#434d63"
    />
    <path
      d="M8.061 3.295S6.723-.275 4.958.022 3.403 4.068 3.403 4.068"
      fill="#f3bc51"
    />
    <path
      d="M3.403 4.068s3.067-.521 5.785 16.466l.811-.214S5.283 3.147 8.061 3.295"
      fill="#f3bc51"
    />
    <path
      d="M3.403 4.068c.382.013.691.287.944.547.261.266.486.57.679.888.406.629.714 1.313 1.005 2a33.997 33.997 0 0 1 1.397 4.253 64.563 64.563 0 0 1 1.015 4.362c.313 1.461.548 2.935.812 4.405l-.083-.054.811-.214-.047.082a130.194 130.194 0 0 1-1.99-8.635c-.272-1.451-.518-2.909-.666-4.38-.071-.734-.122-1.473-.093-2.211.01-.369.056-.738.149-1.096.095-.337.321-.743.726-.72-.406-.02-.626.386-.719.722-.09.358-.133.726-.14 1.094-.023.738.034 1.475.109 2.209.159 1.467.416 2.922.699 4.37a129.665 129.665 0 0 0 2.053 8.612l.018.065-.065.017-.811.215-.071.019-.013-.073c-.252-1.47-.476-2.946-.778-4.407a63.828 63.828 0 0 0-.981-4.365A33.844 33.844 0 0 0 6 7.516c-.285-.688-.588-1.374-.989-2.003a4.745 4.745 0 0 0-.67-.891c-.25-.262-.556-.538-.938-.554z"
      fill="#fff"
    />
    <g>
      <path
        d="M12.365 18.08s-.473-3.779.806-8.923 3.176-6.655 3.364-6.633c.188.022 1.788 3.687.751 9.742-1.037 6.055-2.937 8.394-2.937 8.394s-1.676.711-1.984-2.58z"
        fill="#ef5e44"
      />
      <path
        d="M13.635 7.517s1.812 1.068-.195 12.554l.841-.065S15.282 8.549 17.63 7.991c0 0 .15-3.745-1.095-5.467-.001 0-1.609.68-2.9 4.993z"
        fill="#fff"
      />
      <path
        d="M14.899 4.414s.605-.133.969 1.36c0 0 .409-1.164 1.491-1.129 0 0-.231-1.363-.825-2.121 0 0-.734.266-1.635 1.89z"
        fill="#f3bc51"
      />
      <path
        d="M13.477 8.128c.386-1.365.625-2.395 1.441-3.738M17.594 8.609c.03-1.417.102-2.47-.287-3.986"
        fill="#ef5e44"
      />
    </g>
    <path
      d="M10.8 19.977c.207.102.41.235.641.248.417.024.741-.335 1.114-.523.57-.289 1.255-.169 1.872-.003.31.083.624.18.88.372s.448.499.421.819c-.025.296-.235.553-.492.703-.257.15-.556.208-.851.244-1.817.223-3.65-.291-5.479-.208-.443.02-1.253.058-1.415-.512-.121-.427.442-.801.758-.99.758-.453 1.75-.546 2.551-.15z"
      fill="#efe5ce"
    />
  </svg>