<?xml version="1.0" encoding="utf-8"?>
<svg version="1.1" xmlns="http://www.w3.org/2000/svg" xmlns:xlink="http://www.w3.org/1999/xlink" x="0px" y="0px"
	 viewBox="0 0 23 23" style="enable-background:new 0 0 100 100;" xml:space="preserve">
	 <path
      d="M2.817 15.61a1.538 1.538 0 0 0 1.089 2.052c-.226.254-.262.668-.086.975.176.307.551.481.882.411-.148.424.143.923.54 1.143s.864.226 1.306.202c.256.294.568.567.94.641.372.074.806-.121.886-.497.574.537 1.653.395 2.106-.218.04-.054.079-.113.141-.136.064-.024.135-.003.203.012.429.091.892-.123 1.098-.508.05-.094.087-.196.152-.279.25-.314.757-.188 1.113-.366a.74.74 0 0 0 .382-.754 2.004 2.004 0 0 0 1.899-1.115c.833.01 1.626-.546 1.909-1.341.665.117 1.354-.373 1.472-1.047.634-.014 1.19-.584 1.206-1.236.155-.087.31-.093.465-.18.26-.146.536-.307.663-.583.127-.276.015-.694-.281-.762.257-.192.403-.528.374-.86s-.233-.649-.521-.811a.7.7 0 0 0 .07-.71.702.702 0 0 0-.592-.4c.226-.55-.179-1.289-.762-1.392.09-.66-.462-1.359-1.112-1.411-.189-.37-.669-.602-1.069-.646s-.796.037-1.193.082c-.909.104-1.836.016-2.747.095-1.275.111-2.493.544-3.645 1.084-1.662.778-3.235 1.797-4.47 3.172-.687.765-1.261 1.629-1.832 2.491-.382.578-.779 1.207-.757 1.918.01.332.113.66.126.992.002.044.009.1.05.116.04.016.037-.144-.005-.134z"
      fill="#fef6f3"
    />
    <path
      d="M12.159 15.383c.103.25.402.368.661.343a.707.707 0 0 0 .485-.244.55.55 0 0 0 .088-.538c.011.095.096.17.186.195.09.024.185.007.272-.02.197-.062.385-.182.474-.372s.052-.453-.12-.58M15.45 9.955a24.707 24.707 0 0 0-.625 1.788c-.016.053-.028.121.016.156.04.032.097.011.141-.012l1.82-.927"
      fill="none"
      stroke="#28241f"
      strokeWidth="0.411"
      strokeLinecap="round"
      strokeLinejoin="round"
      strokeMiterlimit="10"
    />
    <path
      d="M7.287 15.723c.161.398.542.694.923.752.382.058.751-.111.975-.411.169-.226.261-.537.192-.849a1.128 1.128 0 0 0-.807-.814c-.72-.166-1.65.414-1.283 1.322z"
      fill="#28241f"
    />
    <path
      d="M8.181 14.657c-.197-.015-.366.189-.339.39a.434.434 0 0 0 .424.357c.219-.005.412-.219.375-.442-.036-.223-.318-.378-.501-.262"
      fill="#fff"
    />
    <path
      d="M8.921 17.027a1.155 1.155 0 0 0-.319.552c-.052.219-.036.47.063.693a.41.41 0 0 0 .119.166.35.35 0 0 0 .174.055c.459.044.896-.18 1.124-.577a.804.804 0 0 0 .114-.354.749.749 0 0 0-.299-.616c-.287-.206-.77-.12-.976.081zM16.576 12.12c-.16.147-.29.333-.355.546a.97.97 0 0 0 .028.661c.026.059.06.118.113.153a.346.346 0 0 0 .176.044c.468.018.928-.22 1.183-.612a.814.814 0 0 0 .136-.346.624.624 0 0 0-.275-.575c-.284-.182-.784-.074-1.006.129z"
      fill="#f5b8b8"
    />
    <path
      d="M20.468 4.392c.702-.204 1.492-.225 2.259.104a.46.46 0 0 1 .234.179.313.313 0 0 1-.02.336c-.064.081-.162.117-.257.148-1.168.39-1.671.571-2.954.557.744-.01.758.069 1.52.214.307.059.621.132.916.306.294.174.572.464.695.819-.698.278-1.562-.016-2.343-.418-.094-.19-.954-.523-1.141-.622a7.35 7.35 0 0 0-1.195-.502c.768-.362 1.455-.88 2.286-1.121z"
      fill="#e3423d"
    />
    <path
      d="M18.936 5.762a27.951 27.951 0 0 0-11.933 6.293c-1.214 1.086-2.333 2.279-3.593 3.31-.324.266-.667.525-1.071.635-.403.11-.883.04-1.169-.276-.703-.777-1.274-1.676-1.154-2.712s.666-1.963 1.285-2.788a11.696 11.696 0 0 1 1.617-1.775C3.88 7.604 5 6.963 6.137 6.379c1.875-.962 3.847-1.791 5.936-2.095 2.46-.358 5.035.042 7.301 1.133l-.414.278c.069-.034-.092.101-.024.067z"
      fill="#eb705f"
    />
    <path
      d="M1.342 10.662c.869.002 1.689.452 2.314 1.056s1.085 1.355 1.537 2.097M3.794 7.961a4.425 4.425 0 0 1 2.052.746c.93.635 1.578 1.594 2.204 2.531M6.968 6.204c.544-.119 1.094.147 1.562.447.949.609 1.801 1.425 2.256 2.457M9.967 4.9a5.222 5.222 0 0 1 3.428 2.883M13.222 4.412c.547.14 1.02.5 1.381.934s.624.941.868 1.451M16.221 4.488c.309.108.518.391.703.66.219.318.436.642.579 1.001M.362 13.002c.126.082.281.1.423.15.16.056.301.154.435.257.7.54 1.252 1.27 1.579 2.092"
      fill="none"
      stroke="#fff"
      strokeWidth="0.421"
      strokeLinecap="round"
      strokeLinejoin="round"
      strokeMiterlimit="10"
    />
  </svg>