<?xml version="1.0" encoding="utf-8"?>
<svg version="1.1" xmlns="http://www.w3.org/2000/svg" xmlns:xlink="http://www.w3.org/1999/xlink" x="0px" y="0px"
	 viewBox="0 0 100 100" style="enable-background:new 0 0 100 100;" xml:space="preserve">
      <g id="TenteS1-C_svg__clair">
        <path
          fill="#b9dfe3"
          className="TenteS1-C_svg__st0"
          d="M83.9 51.3c-1.2-2-2.2-4.2-3.1-6.4-2.1-5.1-4.2-10.6-5.3-16.1-.3-1.3.1-3.7-1-4.7-1.5-1.4-5.5-.4-7.3-.2-13.6 1.3-27.5.1-40.7-3.6 1.9 7.9 4 15.6 6.3 23.4 1.4 4.7 2.9 9.4 5.2 13.8.7 1.3 1.5 2.6 2.9 3.1.8.3 1.6.3 2.4.2 13.5-.5 27-.9 40.5-1.4l7.5-.3c-3-2-5.5-4.7-7.4-7.8zM25.5 55c-1.6-5.5-2-11.3-2.1-16.9-1.9 8.3-6.4 16.4-11.8 23-.3.4-.6.8-.7 1.2-.1 1 1.2 1.6 2.2 1.9 4.7 1.3 9.6 2.5 14.3 4 .7.2 2.3 1.4 3.4 1.5 3.1.5-1.8-6.8-2.3-7.7-1.2-2.2-2.2-4.5-3-7z"
        />
        <path
          d="M82.7 62.2c-.6-.6-3.5 0-4.4 0-3.3.1-6.5.2-9.8.3-6.7.2-13.3.3-20 .4-3.3 0-8.3.9-10.7-1.7C33.7 57 32 50 30.6 44.4c-.9-3.8-1.9-7.6-2.8-11.4-.5-1.9-.9-3.8-1.4-5.7-.3-1.2-1.8-4.6-1.4-5.7-3.4 10.3-8.1 20.3-15.1 28.5.7 2.5.6 4.9.6 7.5 3.2-.3 6.3-8.9 7.4-11.5 1.9-4.7 3.4-9.5 5.6-14 .4.1.4.4.2.8.6 4.8 1.3 9.5 2.2 14.3.8 4.5 1.8 8.9 3.4 13.2.7 1.9 1.5 3.8 2.8 5.4 2.2 2.6 5.5 3.9 8.8 4.4 3.3.5 6.7.2 10 0 10.1-.6 20.2-.7 30.3-.3 1.6.1 3.7-.4 3.8-1.9 0-1-.9-1.7-1.5-2.5-.6-.7-.5-3-.8-3.3z"
          fill="#fff"
        />
        <path
          fill="#b9dfe3"
          className="TenteS1-C_svg__st0"
          d="M100.2 66.9s0-.1 0 0c0-.1 0-.1 0 0-.6.3-1 .7-1.1 1.3 0 .4-.1.7-.3 1.1-3.8-1.9-5.7-5.6-7.5-9.7 0 4.4 1.4 8.5 7.4 9.7-.1.1-.1.3-.3.4-.8.8-1.3 1.9-1.2 3.1h.1c1.1-.8 1.5-1.7 1.6-2.9 0-.6.4-1 .8-1.4.5-.4.6-1 .5-1.6zM7.9 51.4c-1.3 1-1.7 2.7-2.7 3.6-.9.9-2.1 1.5-3.4 1.8 0-.5-.2-1.1-.5-1.5h-.1v.1c-.1.1-.1.2-.2.2 0 .2 0 .3-.1.5-.1.3-.1.6-.1.9.1.5.2 1 0 1.3-.2.5-.4 1.1-.5 1.7v.9l.1.5v.2c.1.1-.1-.1.1.3.2.2.4.3.7.2.4-.2.3-.3.3-.3.6-1.1.6-2.4.3-3.5v-.2c1.8.1 3.5-.8 4.5-2.1 1.2-1.4 1.1-3.1 1.6-4.6z"
        />
      </g>
    </svg>