<?xml version="1.0" encoding="utf-8"?>
<svg version="1.1" xmlns="http://www.w3.org/2000/svg" xmlns:xlink="http://www.w3.org/1999/xlink" x="0px" y="0px"
	 viewBox="0 0 23 23" style="enable-background:new 0 0 100 100;" xml:space="preserve">
	 <path
      d="M18.543 10.602c-.241-1.337-.543-2.87-1.598-3.795-1.25-1.097-3.166-1.013-4.759-.882-.978.08-1.953.198-2.921.364-.77.133-1.545.305-2.231.679-1.126.614-1.921 1.74-2.3 2.966-.379 1.226-.371 2.545-.164 3.811.157.962.458 1.959 1.177 2.618.596.546 1.375.763 2.145.932.37.081.718.235.923.336a.32.32 0 0 1 .179.304c-.021.389-.058 1.029.03 1.272.128.355.52.453.898.461.132.003.263.008.393.003l.017-.013c.181-.16.27-.399.331-.634.094-.366.134-.745.118-1.122-.001-.035-.002-.073.019-.1.022-.029.061-.037.097-.043a11.46 11.46 0 0 1 1.012-.126l-.019.101c.004.002.008.002.012.005.191.64-.369 1.789.296 1.895.222.035.564.024.834-.006a.868.868 0 0 0 .131-.329 4.985 4.985 0 0 0 .112-1.521c.127-.034.256-.055.387-.063h.066c.046-.001.091-.003.137-.001.03 0 .058 0 .079.007.036.003.072.005.108.01.023.003.047.008.063.024.015.015.018.038.021.059.033.26.002.522-.016.783l.047.283a.845.845 0 0 0 .05.279c.052.122.153.243.283.266.531.093 1.062-.08 1.098-.349.067-.513.11-1.395.052-1.909-.023-.2-.034-.412.055-.592.219-.44.836-.415 1.313-.534.6-.151 1.083-.627 1.356-1.182.297-.604.373-1.295.381-1.964a12.345 12.345 0 0 0-.212-2.293z"
      fill="#e5e3e1"
    />
    <path
      d="M7.291 9.456c-.648.445-.927 1.256-1.095 2.024-.098.447-.172.907-.117 1.361.055.454.256.907.62 1.183.229.174.508.268.782.354.584.182 1.214.338 1.8.164.483-.144.877-.499 1.183-.899a4.274 4.274 0 0 0 .851-2.161c.066-.673-.046-1.395-.471-1.922-.42-.52-1.019-.655-1.65-.562-.645.094-1.342.072-1.903.458z"
      fill="#010101"
    />
    <path d="M15.388 10.271c.891.297 1.499 1.215 1.545 2.153.011.221-.007.45-.101.65-.092.197-.251.354-.418.494-.389.325-.849.583-1.351.655-.502.073-1.047-.059-1.406-.417-.557-.555-.781-1.905-.546-2.656.265-.844 1.538-1.126 2.277-.879zM10.957 15.872a.279.279 0 0 0 .025.155c.053.089.171.078.259.039a.841.841 0 0 0 .445-.532c.09-.306-.081-.73-.383-.475-.213.179-.331.522-.346.813zM12.276 15.676c.03.124.061.251.126.358.065.107.171.189.273.174.087-.013.154-.096.18-.195a.646.646 0 0 0-.012-.317 1.02 1.02 0 0 0-.31-.514c-.106-.091-.277-.13-.334.034-.044.124.045.331.077.46z" fill="#010101" />
    <path
      d="M22.386 4.806c-.237-.07-.529-.039-.693-.225a2.885 2.885 0 0 0-.004-2.35c-.118-.259-.288-.511-.544-.635-.337-.162-.742-.065-1.085.085-.438.191-.874.512-.967.981-.089.454.168.897.415 1.288l.482.765a113.4 113.4 0 0 1-1.185.879c-.408.297-.859.572-1.251.893.085.06.161.124.216.175.246.233.373.56.488.879.383-.307.795-.567 1.164-.888.249-.216.495-.434.755-.637.088-.068.8-.473.801-.529-.005.264-.01.534.066.787.077.253.249.492.499.579.226.079.479.022.694-.082.381-.185.693-.544.748-.964.057-.42-.192-.881-.599-1.001zm-3.27 2.036l.001-.013c.005.005.008.01.014.014l-.015-.001zM5.432 7.424c.238-.216.513-.387.795-.542l.042-.022c-.119-.107-.243-.207-.364-.31a8.253 8.253 0 0 1-.97-.973 2.354 2.354 0 0 1-.378-.563c-.069-.16-.11-.34-.091-.515l.001-.006a.574.574 0 0 1 .142-.161c.436-.323 1.16.046 1.553-.327a.756.756 0 0 0 .194-.351c.138-.494-.044-1.043-.392-1.419-.349-.375-.843-.592-1.347-.685-.26-.048-.534-.064-.782.028-.248.091-.462.31-.482.573-.011.148.036.292.076.435.106.38.138.839-.14 1.12a.269.269 0 0 1-.103.071c-.088.031-.183-.013-.266-.056-.402-.207-.82-.415-1.272-.442-.452-.027-.948.175-1.13.589-.202.458.043.999.396 1.354a2.508 2.508 0 0 0 1.908.726c.219-.013.448-.055.652.027.181.072.311.229.434.381l1.184 1.46c.097-.144.212-.276.34-.392zM22.178 18.185c-.28-.251-.776-.247-1.003.052-.062.081-.109.183-.156.282l-.047.044c-.097.087-.248.09-.37.042a1.066 1.066 0 0 1-.316-.228 145.017 145.017 0 0 1-1.708-1.618c-.06-.057-.496-.605-.556-.663-.14.199-.342.298-.546.447-.144.105-.493.193-.771.193.043.036.848.758.891.793.454.371.939.71 1.334 1.145.123.135.237.279.366.409a3.211 3.211 0 0 0-.613 2.03.524.524 0 0 0 .058.251c.055.091.154.144.251.188.359.165.746.269 1.139.307.148.014.303.018.441-.04.362-.153.429-.634.4-1.027-.016-.207-.042-.42.014-.62s.223-.387.431-.391c.086-.002.171.028.257.036.34.035.637-.265.741-.591.114-.359.044-.79-.237-1.041zM4.305 18.979c.124-.123.263-.231.4-.338.385-.301 1.044-.828 1.429-1.129-.315-.226-.683-.503-.843-.858-.001-.003.001.003 0 0-.641.493-1.465 1.184-2.106 1.677a1.85 1.85 0 0 0-1.606-.674 1.848 1.848 0 0 0-1.435.985c-.158.312-.217.699-.052 1.007.213.396.719.536 1.17.527.313-.006.625-.065.919-.172.139-.05.31-.105.416-.004.092.088.068.238.041.362-.059.267-.097.561.032.802.199.371.704.452 1.121.382a.791.791 0 0 0 .348-.127.557.557 0 0 0 .198-.507.881.881 0 0 0-.257-.497c-.107-.11-.233-.204-.318-.329a1.019 1.019 0 0 1 .138-.567c.107-.198.244-.381.405-.54z"
      fill="#e5e3e1"
    />
  </svg>