<?xml version="1.0" encoding="utf-8"?>
<svg version="1.1" xmlns="http://www.w3.org/2000/svg" xmlns:xlink="http://www.w3.org/1999/xlink" x="0px" y="0px"
	 viewBox="0 0 23 23" style="enable-background:new 0 0 100 100;" xml:space="preserve">
	 <g fill="#fff">
      <path d="M11.16.133l.655-.125a54.477 54.477 0 0 0-.167 4.624 17.23 17.23 0 0 0 1.098-2.951c.18-.002.361.037.522.114.05.024.102.055.119.106.019.057-.012.118-.043.17l-.901 1.546c-.109.187-.616 1.33-.825 1.325-.439-.009-.351-2.539-.366-2.857-.008-.163-.115-1.949-.092-1.952z" />
      <path d="M10.103 1.732c.123-.078.253-.146.388-.203.038-.016 1.387 3.388 1.131 3.799-.318-.231-.464-.873-.625-1.218a15.421 15.421 0 0 1-.894-2.378z" />
    </g>
    <path
      d="M20.552 21.015c-5.042-8.807-5.899-11.051-8.687-16.13-.028-.051-.07-.109-.13-.104-.06.006-.059.005-.007-.024.035-.08-.059-.163-.15-.174-.09-.011-.209.064-.299.054-1.596 2.83-3.316 5.829-4.995 9.029-.574 1.093-1.054 1.827-1.708 3.091-.382.738-.709 1.382-1.028 1.928-.447.766-.835 1.579-1.226 2.228.504.38 1.109.674 1.72.861.346.106.695.203 1.046.294.171-.08.407-.153.488-.209.32-.219.593-.545.841-.834.615-.718 1.102-1.527 1.57-2.337.527-.914.898-1.576 1.387-2.508.155.881.355 1.379.612 2.168a27.785 27.785 0 0 0 1.95 4.552 26.017 26.017 0 0 0 7.789-1.269c.906-.295.827-.616.827-.616z"
      fill="#e3cda9"
    />
    <path
      d="M4.209 20.54c.225-.088.55-.279.754-.408 1.831-1.157 3.399-2.244 4.416-3.986-.087.419-.31.798-.533 1.167-.491.812-1 1.712-1.524 2.505-.554.838-1.148 1.747-1.962 2.379-.244-.124-.454-.552-.604-.768a6.45 6.45 0 0 1-.547-.889z"
      fill="#fff"
    />
    <path
      d="M13.338 21.16l-1.394 1.848c-1.071-2.22-2.152-4.469-2.624-6.873 1.019 1.874 2.585 3.419 4.018 5.025z"
      fill="#fff"
    />
    <path
      d="M14.853 22.708C13.6 16.555 11.469 4.816 11.469 4.816M19.666 21.494c-2.689-5.674-7.929-16.713-7.929-16.713"
      fill="none"
      stroke="#baa282"
      strokeWidth="0.088"
      strokeMiterlimit="10"
    />
    <path
      d="M17.258 22.286c-.108-.143-.22-.284-.335-.423-.285-.343-.589-.67-.893-.997a30.239 30.239 0 0 1-.553 1.763 13.017 13.017 0 0 0 1.781-.343zM15.476 22.631a12.028 12.028 0 0 0-.292-.453c-.251-.369-.522-.724-.793-1.079a29.886 29.886 0 0 1-.721 1.701c.619-.01 1.194-.075 1.806-.169zM4.388 21.882a12.46 12.46 0 0 0-.084-.537c-.08-.442-.184-.88-.289-1.317-.44.437-.893.861-1.359 1.27.574.246 1.13.421 1.732.584zM19.042 21.849a12.412 12.412 0 0 0-.357-.404c-.303-.328-.625-.637-.946-.947a29.885 29.885 0 0 1-.457 1.79 12.863 12.863 0 0 0 1.76-.439zM20.615 21.234a11.912 11.912 0 0 0-.38-.366c-.32-.296-.655-.572-.99-.848a31.296 31.296 0 0 1-.188 1.814c.547-.159 1.04-.362 1.558-.6z"
      fill="#e38f64"
    />
    <path
      d="M14.374 9.875a9.563 9.563 0 0 1-6.127.061c.453-.729.914-1.474 1.368-2.203.432.117.884-.045 1.319-.15a5.146 5.146 0 0 1 1.788-.107c.191.022.37.04.507.172.137.132.238.295.338.456.256.415.514.831.712 1.275.068.151.128.305.182.461-.031.01-.107.06-.087.035z"
      fill="#fff"
    />
    <path
      d="M9.803 7.225c1.067.377 2.182.295 3.214-.154l.518.959s-1.658.875-4.32.146l.588-.951z"
      fill="#e38f64"
    />
    <path
      d="M9.846 10.306c-.081-.364-.509-1.583-.509-1.583-.005-.032-.729.789-1.05 1.211-.008.01.517.186.729.237.133.032.83.135.83.135zM11.443 10.409c-.136-.347-.747-1.485-.747-1.485-.01-.031-.598.893-.85 1.359-.006.011.54.104.757.121.136.011.84.005.84.005zM13.06 10.221c-.203-.313-1.028-1.307-1.028-1.307-.016-.028-.408.994-.563 1.501-.004.012.55-.006.766-.032.136-.016.825-.162.825-.162z"
      fill="#137a79"
    />
    <path
      d="M14.514 9.844c-.237-.287-1.163-1.176-1.163-1.176-.019-.026-.241 1.019-.314 1.534-.002.012.519-.063.72-.112.126-.031.757-.246.757-.246z"
      fill="#137a79"
    />
    <path
      d="M19.722 19.501c-.042-.018-.474-.382-.754-.488-.096.435-.279.951-.375 1.386l-.999-.941-.523 1.473c-.379-.463-1.224-1.162-1.224-1.162-.186.489-.451.912-.638 1.402 0 0-.678-.702-.969-1.142 0 0-.614 1.181-1.078 1.798l-.141-.184M2.864 19.851c.024-.023.064.005.08.035s.032.069.066.071a.082.082 0 0 0 .044-.014c.443-.237.86-.523 1.242-.849l.324 1.323"
      fill="none"
      stroke="#fff"
      strokeWidth="0.176"
      strokeMiterlimit="10"
    />
    <path
      d="M7.768 10.89a8.865 8.865 0 0 0 7.223-.136"
      fill="none"
      stroke="#fff"
      strokeWidth="0.352"
      strokeMiterlimit="10"
    />
    <path
      d="M15.542 11.895c-2.595 1.352-5.734 1.291-8.509.364l-1.3 2.405s4.533 2.415 11.1-.33l-1.291-2.439z"
      fill="#d0e3bd"
    />
    <g>
      <path
        d="M6.964 12.337c.157 1.014.345 2.025.568 3.024l-.071-.016c.592-.793 1.089-1.654 1.686-2.452l.066-.088.03.107c.255.914.715 1.762.976 2.694l-.124-.017c.482-.828.856-1.72 1.349-2.556l.07-.12.066.121 1.313 2.394-.12.01.957-2.722.029-.083.058.067c.633.72 1.236 1.464 1.893 2.156l-.058.025-.062-2.889.13 2.887.004.087-.062-.062c-.681-.678-1.282-1.425-1.923-2.135l.088-.017-.93 2.732-.047.139-.072-.129-1.336-2.382.137.002c-.482.827-.875 1.71-1.368 2.545l-.082.139-.042-.156c-.245-.914-.698-1.769-.949-2.701l.095.019c-.599.786-1.104 1.643-1.708 2.435l-.054.071-.017-.086a46.871 46.871 0 0 1-.49-3.043z"
        fill="#fff"
      />
    </g>
    <path
      d="M13.987 14.296c-.054.07-.106.159-.076.242.027.075.123.114.196.083a.168.168 0 0 0 .088-.199.18.18 0 0 0-.186-.118M6.387 14.128c-.054.07-.106.159-.076.242.027.075.123.114.196.083a.168.168 0 0 0 .088-.199.18.18 0 0 0-.186-.118M8.89 14.906c-.054.07-.106.159-.076.242.027.075.123.114.196.083a.168.168 0 0 0 .088-.199.18.18 0 0 0-.186-.118M7.785 13.214c-.054.07-.106.159-.076.242.027.075.123.114.196.083s.112-.123.088-.199a.18.18 0 0 0-.186-.118M11.57 14.906c-.054.07-.106.159-.076.242.027.075.123.114.196.083s.112-.123.088-.199a.18.18 0 0 0-.186-.118M12.684 13.472c-.054.07-.106.159-.076.242.027.075.123.114.196.083s.112-.123.088-.199a.18.18 0 0 0-.186-.118M10.242 13.549c-.054.07-.106.159-.076.242.027.075.123.114.196.083s.112-.123.088-.199a.18.18 0 0 0-.186-.118M14.931 12.878c-.054.07-.106.159-.076.242.027.075.123.114.196.083a.168.168 0 0 0 .088-.199.18.18 0 0 0-.186-.118"
      fill="#fff"
    />
  </svg>