<?xml version="1.0" encoding="utf-8"?>
<svg version="1.1" xmlns="http://www.w3.org/2000/svg" xmlns:xlink="http://www.w3.org/1999/xlink" x="0px" y="0px"
	 viewBox="0 0 23 23" style="enable-background:new 0 0 100 100;" xml:space="preserve">
	 <path
      fill="#3A936E"
      d="M15.45 11.021c-.147-.408.068-1.438.11-1.89.073-.802-.024-1.604-.069-2.421-.107-1.936-.687-3.951-1.814-5.54C11.951-1.266 6.494.999 4 2.147c-1.538.709.43.227-.256 1.627-.207.42 4.99.05 8.33 1.723 2.168 1.085.863 4.595 1.7 4.564.69-.026 1.22.453 1.677.96z"
    />
    <path
      fill="#F8F2E7"
      d="M3.788 9.16c.059.205.895 1.08 1.123 1.028.372-.085.558-.786.595-1.147.297-.11.782.584 1.092.567.202-.01.485-.709.462-1.002.088-.008.165.024.29.075.178.072.55.283.757.32.216.04.381-.438.484-.767.073-.232.753.015.9.032.23.025.2-.15.296-.365.044-.098.094-.368.052-.464-.135-.304-.822-.273-1.06-.254-1.231.095-2.463.556-3.498 1.199-.006.003-1.85.521-1.493.777zM6.803 11.719c-.029-.068.097-.475.14-.581.063-.163.181-.145.346-.148.199-.003.608.218.788.125.166-.087.122-.406.132-.563.015-.229.1-.33.326-.315.205.015.598.283.701.027.067-.166-.088-.638.076-.77.114-.091.285-.028.414-.02.166.012.384.08.46-.077.071-.145-.037-.484.028-.631.1-.229.438-.222.675-.275.199-.045.288-.21.355.005.113.361-.282.835-.51 1.09-.144.16-.229.334-.353.508a4.47 4.47 0 0 1-.643.683c-.36.325-.86.554-1.318.717-.381.136-.759.157-1.152.222-.14.023-.345.096-.465.003z"
    />
    <path
      fill="#3A936E"
      d="M1.578 4.813c-.085.255-.125.458-.067 1.113.03.335.087.787.177 1.112.197.708.37 1.304.765 1.932.549.875.888.77 1.907.531.619-.144 1.238-.281 1.85-.453.63-.178 1.25-.42 1.875-.62.218-.07.442-.128.649-.227.438-.21.87-.436 1.281-.696.208-.131.41-.27.606-.42.188-.143.358-.31.55-.448.19-.136.432-.274.429-.542.106.674-.219 1.338-.495 1.928-.29.62-.585 1.08-1.084 1.52-.667.587-1.14 1.044-1.921 1.478-.404.224-.855.55-1.287.708-.275.1-.733.283-.515.53.308.351.767.373 1.24.44.815.114 1.664-.29 2.394-.587a11.75 11.75 0 0 0 2.667-1.55c1.004-.767 1.48-1.423 1.665-2.62.356-2.294.43-4.965-1.567-6.62C10.43-.56 6.37.894 4.02 2.145c-.185.098-.523.096-.51.272.009.112-.127.681-1.538 1.332-.281.13-.267.615-.394 1.063z"
    />
    <path
      fill="#1C6644"
      d="M11.007 6.172c.222-.195.552-.111.8-.02.229.148.472.32.552.59-.198-.18-.388-.346-.628-.435a1.005 1.005 0 0 0-.724-.135z"
    />
    <path
      fill="#3A936E"
      d="M10.856 18.59c-.305-.405-2.952-.363-2.678.387.035.096.106.34.184.404.124.103.371.042.524.058.47.049.858.414 1.326.435.302.013.682-.182.704-.505"
    />
    <path
      fill="#A8D9E4"
      d="M8.236 18.738c-.202.088-.496.502-.496.733 0 .082.189-.006.421-.063.185-.046.254-.02.283-.229.022-.151.002-.476-.208-.441"
    />
    <path
      fill="#3A936E"
      d="M18.643 17.566c.638.288 1.125.237 1.761-.1.305-.163.436-.368.661-.613.058-.063.217-.257.321-.23.326.085.074.97.023 1.143-.304 1.034-.878 1.822-1.684 2.54-.326.29-.742.478-1.113.695-.226.131-.495.242-.758.229.401-1.172 1.353-2.46.789-3.664z"
    />
    <path
      fill="#A8D9E4"
      d="M7.965 15.862c-.016.128.152.636.321.637.104 0 .212-.716.195-.85-.131.13-.334.338-.44.213"
    />
    <path
      fill="#3A936E"
      d="M10.552 13.223c-.086.02-1.35.534-1.47.606-.31.188-.62.384-.938.556-.433.236-.43.626-.384 1.118.036.38.137.718.568.41.409-.29.26-.722.302-1.124.303.042 1.833-.125 2.013-.429.175-.296.01-.855-.09-1.137z"
    />
    <g fill="#1C6644">
      <path d="M15.996 12.518c.027-.134 1.573-.311 1.215.315-.212.373-.478.63-.928.367-.249-.145-.64-.666-.287-.682zM17.394 14.069c-.097.017.09-.064.133-.083.144-.061.288-.086.443-.084.187.003.398.04.536.18-.078.201-.354.687-.57.664-.253-.025-.833-.583-.542-.677zM18.327 15.549c.09-.33 1.14-.214 1.005.175-.033.093-.231.243-.304.315-.151.148-.151.2-.343.048-.185-.146-.379-.453-.358-.538z" />
    </g>
    <path
      fill="#3A936E"
      d="M15.385 8.922c-.057.134-.017.355-.009.529.023.476-.02.96.05 1.434.107.718.46 1.423.902 1.988.44.564.976 1.04 1.45 1.574.577.653.993 1.513 1.25 2.34.555 1.79-.038 4.726-2.253 4.883-.553.04-1.69.057-2.039-.347-.337-.39-1.447-.288-2.014-.28.614-.971.62-2.315.497-3.438-.102-.927-1.427-1.801-2.126-2.442.037-.387-.443 2.527-.759 2.3-.355-.255.1-2.01-.298-2.107.02-.416.923-4.833 1.077-5.237.456-1.197.315-1.602 1.625-2.066.83-.294 1.31.317 1.872.774.337.275.294.094.683-.049.012.049.112.097.092.144z"
    />
    <path
      fill="#1F1F1D"
      d="M9.465 4.32c.011.693 1.037 1.036 1.666.835.614-.195.769-.956.613-1.536-.042-.031-.118-.01-.12.057-.015.567-.12 1.125-.711 1.261-.224.051-.715.022-.92-.143-.22-.177-.25-.302-.346-.552-.053-.024-.196-.085-.182.077z"
    />
    <path
      fill="#A8D9E4"
      d="M15.465 9.264c-.178.36-.917.398-1.24.562-.086.043.202.417.518.473.314.055.66.095.769-.228.05-.153.007-.71-.047-.807z"
    />
    <path
      fill="#F8F2E7"
      d="M11.868 20.92c-2.295-1.543-2.195-6.857-1.137-9.175.015.186.537-.52.604-.139.054.305-.105.935.366 2.304.401 1.166.785 1.813 1.306 2.932.66 1.42 1.594 3.548-.259 4.023-.485.124.696.465-.88.056z"
    />
    <path
      fill="#A8D9E4"
      d="M11.12 16.613c-.008.073.185.834.33.826.147-.008.116-.58.108-.682-.157.063-.303.125-.439-.025M11.697 16.89c.042.018.314.75.483.7.135-.04.12-.588.08-.674-.125.119-.263.141-.415.06"
    />
    <path
      fill="#78BAA2"
      d="M10.33 20.52c.332-.197.83.015 1.126.191.323.193.638.534.968.69"
    />
    <path
      fill="#A8D9E4"
      d="M10.344 20.762c-.23.018-.621.447-.626.739 0 .026.468-.158.637-.093a1.027 1.027 0 0 1-.01-.646z"
    />
    <path
      fill="#A8D9E4"
      d="M10.556 20.205c-.338-.038-.947.342-.885.76.344-.25.876-.136.935-.203.138-.155-.097-.399-.05-.557z"
    />
    <path
      fill="#3A936E"
      d="M14.045 13.506c-.082.276-.5.607-.778.796-.44.3-1.097.404-1.61.518-.482.107-.694.382-.716.904-.012.307.002 1.078.36 1.211.486.181.288-.783.316-1.014-.123.318-.042 1.304.459 1.215.543-.097.522-1.024.288-1.393.307-.174.6-.374.963-.433.459-.076.97.11 1.354-.24.446-.404-.21-1.569-.636-1.564z"
    />
    <path
      fill="#1C6644"
      d="M11.769 14.796c.355-.103.686-.216.98-.43.32-.157.61-.406.979-.492l-.891.64c-.327.167-.693.327-1.068.282zM12.395 15.753c.22-.295.61-.356.92-.475.328-.056.706-.192 1.034-.012-.173-.027-.337.008-.501.034a4.286 4.286 0 0 0-.488.144c-.342.067-.663.14-.965.31zM11.65 16.774c-.162-.184-.14-.436-.17-.654.011-.106.024-.237.083-.345a.416.416 0 0 1 .266-.226c-.15.183-.212.349-.176.575-.03.22-.021.426-.003.65z"
    />
    <g>
      <path
        fill="#3A936E"
        d="M18.036 21.268c-.135.007-.877.36-1.012.36-.222 0-.518.102-.742.086-.547-.04-1.073-.183-1.584-.351-.248.283-.315.763-.555 1.078-.249.328-.67.598-1.08.415-.397-.176-.693-.585-1.068-.817-.31-.192-.757-.473-1.124-.528-.134-.02-.339.02-.452-.047-.205-.12-.396-.934 0-.953-.007-.51.52-.57.94-.455.236.064.478.176.678.32.107.078.373.495.5.479.273-.034.161-1.313.277-1.574.285-.64.94-.959 1.608-1.012.466-.038.95.045 1.38.229.278.118.348.271.522.5.488.638.936 1.177 1.07 1.984.026.163.796.264.642.286z"
      />
      <path
        fill="#1C6644"
        d="M13.614 18.466c.262-.242.631-.312.98-.348.347.025.724.087.982.336-.325-.115-.646-.195-.98-.163-.335-.024-.655.067-.982.175zM10.42 20.511c.117-.145.336-.172.51-.132.18.031.351.094.513.168.15.09.308.185.438.31.135.115.243.246.385.352-.173-.049-.323-.159-.456-.264-.135-.105-.286-.173-.445-.245a2.152 2.152 0 0 0-.46-.208c-.158-.04-.327-.065-.486.02z"
      />
    </g>
    <path
      fill="#1F1F1D"
      d="M2.857 5.387c-.28-.03-.138.753.245.472.332-.243-.203-.781-.325-.44"
    />
    <g>
      <path
        fill="#1C6644"
        d="M9.925 12.103a7.58 7.58 0 0 1 .73-.386l.713-.419c.254-.113.472-.28.706-.426.228-.155.465-.296.714-.43-.205.185-.42.361-.647.523-.225.162-.436.351-.682.48l-.747.37a7.577 7.577 0 0 1-.787.288z"
      />
    </g>
    <path
      fill="#A8D9E4"
      d="M15.071 4.05c.197.585-.87 1.042-1.199 1.377.228.17.81.257 1.101.265.33.01.295.028.328-.307.034-.355-.046-1.021-.23-1.335zM15.515 6.45c.055.344-1.336.857-1.658 1.056.274.127 1.303.747 1.58.442.17-.186.085-1.216.078-1.499z"
    />
    <path
      fill="#FFF"
      d="M1.778 4.003c.008.021-.008.036.02.037-.216-.55-.153-1.334-.042-1.912.039-.2.309-1.395.656-1.374.163.01.358.39.433.501.186.273.346.557.503.849.07.13.173.147.118.275-.078.184-.322.573-.466.702-.27.242-.636.336-.855.627-.105.14-.226.406-.37.478-.006-.03-.02-.05.003-.183z"
    />
    <path
      fill="#3A936E"
      d="M1.468 5.591c-.043-.336.002-.743.044-1.08a4.36 4.36 0 0 1 .164-.785c.07-.218.213-.167.427-.231.357-.108.835-.379 1.072-.654.197-.231.299-.452.163-.782.09.04.168.131.251.2.052.044.186.136.198.206.02.126-.23.39-.292.475-.288.391-.723.661-1.042 1.027-.22.251-.404.487-.557.781-.169.326-.328.589-.343.964-.03-.036-.039-.087-.085-.121z"
    />
    <path
      fill="#3A936E"
      d="M2.058 3.585c-.06.017-.207-.034-.268-.073-.065-.043-.097-.12-.111-.193-.038.08-.042.22-.055.313-.031.234-.088.47-.064.708.011.111.016.317.104.4.099.092.25.02.338-.049.196-.157.514-.464.44-.754-.05-.188-.267-.304-.384-.352z"
    />
    <path
      fill="#E1E2E1"
      d="M1.648 3.314c-.006.087.164.212.232.229-.002-.036-.03-.03-.045-.062a.587.587 0 0 1-.047-.238c-.01-.21.008-.418.029-.627.046-.455.138-.895.282-1.328.05-.153.12-.403.309-.447.093-.021.154.04.216.099a.269.269 0 0 0-.212-.186c-.144-.016-.219.113-.279.225-.292.546-.492 1.213-.49 1.838 0 .193.011.389.005.497z"
    />
  </svg>