<?xml version="1.0" encoding="utf-8"?>
<svg version="1.1" xmlns="http://www.w3.org/2000/svg" xmlns:xlink="http://www.w3.org/1999/xlink" x="0px" y="0px"
	 viewBox="0 0 23 23" style="enable-background:new 0 0 100 100;" xml:space="preserve">
	 <path
      d="M14.676 13.296c.178-.18.357-.359.537-.537.031-.03.063-.061.102-.077.04-.016.091-.014.121.017.029.029.032.074.032.115a5.48 5.48 0 0 1-.061.94c.129-.121.28-.22.442-.291.032-.014.073-.025.097 0 .015.016.017.039.018.061.008.264-.01.528-.054.788a5.04 5.04 0 0 1 .656-.555.692.692 0 0 1 .08.316c.018.298-.041.594-.099.887.295-.382.594-.76.898-1.134.028-.034.057-.07.097-.088.04-.018.094-.015.12.021a.147.147 0 0 1 .021.069c.062.513-.086 1.037-.001 1.546.214-.204.437-.396.651-.599.114.263.172.551.166.838.182-.192.367-.387.593-.525.099.238.159.493.176.751.276-.257.389-.648.643-.928.018-.02.039-.041.066-.044.063-.007.089.077.092.14.017.341.019.683.006 1.024-.002.041-.004.085-.029.118a.198.198 0 0 1-.089.057c-.692.275-1.473.125-2.199-.043-.565-.13-1.148-.279-1.6-.642-.231-.185-.417-.419-.601-.65l-.75-.942c-.13-.17-.281-.481-.131-.633zM15.09 10.413c-.002.252.021.505.066.753.004.024.012.052.035.06.018.007.038-.002.055-.011a.969.969 0 0 0 .379-.356c.027.341.089.68.186 1.009.086-.001.15-.077.2-.147l.408-.561c.032.252.076.503.131.751.005.024.013.05.034.062.031.017.067-.008.094-.031.127-.114.247-.235.36-.363.093.275.187.529.291.801.007.018.016.039.035.045.024.008.047-.011.064-.029l.419-.424c.112-.114.244-.236.404-.23a.534.534 0 0 1 .208.063c.019.009.039.019.05.037.011.017.01.039.01.06a5.76 5.76 0 0 0 .119 1.29c.003.014.006.029.014.041.02.03.064.036.098.022a.238.238 0 0 0 .082-.07c.229-.268.433-.558.609-.864.079.218.152.406.231.624.013.035.035.077.072.073.018-.002.032-.014.046-.026.164-.15.294-.337.379-.543l.255.68c.226-.237.415-.509.559-.804.147.235.31.461.487.675.143-.076.209-.242.261-.395.104-.308.195-.621.273-.937.038-.154.072-.316.033-.47-.052-.203-.224-.354-.403-.463-.324-.197-.695-.302-1.064-.385-1.347-.302-2.737-.343-4.117-.363a12.998 12.998 0 0 0-1.099.017c-.126.009-.265.028-.349.121-.087.095-.04.272.085.288z"
      fill="#fff"
    />
    <path
      d="M4.328 13.186a5.285 5.285 0 0 0-.55-1.153c-.132-.208-.279-.406-.406-.617a3.82 3.82 0 0 1-.49-1.318c.028.161-.537.811-.633.976-.238.412-.27.489.09.818.574.527 1.295.948 1.989 1.294zM6.473 10.937c-.299-.726-.599-1.453-.988-2.135-.133-.234-.278-.465-.361-.722-.126-.392-.1-.83-.281-1.2.004.008-.858 1.044-.929 1.162-.301.498-.352.7.036 1.137.68.767 1.577 1.371 2.523 1.758zM7.227 7.606c.052.046.203.159.203.159.02-.024 0-.181 0-.213l-.019-2.374c.001.135-1.262.164-1.206.847.047.565.619 1.228 1.022 1.581z"
      fill="#115642"
    />
    <path
      d="M0 14.013c1.485-1.189 2.339-2.97 3.27-4.63S5.361 6.04 7.125 5.327c1.11-.449 2.341-.461 3.538-.467l2.97-.014c-1.523 1.79-.524 4.617-1.77 6.609-.241.385-.571.787-.489 1.234.037.199.154.372.268.539l.98 1.435a6.062 6.062 0 0 0-3.587 2.54c-.749 1.145-.223 2.331-1.195 3.294-.499-.612-1.937-1.239-2.54-1.528-.603-.289-1.281-.375-1.919-.577C1.428 17.774.282 16.042 0 14.013z"
      fill="#db874b"
    />
    <path
      d="M14.459 11.731c.008-.667.19-1.316.449-1.894a11.468 11.468 0 0 0-2.168.053c-.38.046-.776.108-1.133-.063-.18-.086-.345-.23-.535-.267-.324-.063-.65.224-.775.61s-.072.839.081 1.208.396.665.654.921c.641.635 1.396 1.061 2.169 1.381.294.122.597.23.906.23.197 0 .407-.045.583-.163.252-.169.234-.233.108-.511-.214-.474-.346-.949-.339-1.505z"
      fill="#7f281d"
    />
    <path
      d="M13.071 11.45c.035.796.412 1.447.52 2.082-1.276-.566-2.949-1.5-3.746-2.749-.367-.576-.67-1.221-.763-1.915-.054-.401-.037-.807-.02-1.21l.035-.815c.007-.158.018-.329.111-.446.114-.142.309-.157.482-.144.911.069 1.758.63 2.405 1.36.551.622 1.083 1.42 1.417 2.212-.001 0-.482.688-.441 1.625z"
      fill="#a74a38"
    />
    <path
      d="M7.061 6.88l.193-.254c.624-.812 1.359-1.615 2.313-1.854.834-.209 1.744.041 2.541-.294.403-.17 2.118.249 6.261-.283 1.052-.135 2.229.121 2.937.969.245.293.418.647.565 1.008.519 1.27.743 2.654.887 4.032.05.475.091.956.241 1.406-.216-.046-.394-.001-.605.065-.779.243-1.596.294-2.406.344-.774.048-1.6.083-2.269-.337-.52-.327-.888-.898-1.432-1.175-.536-.274-1.165-.221-1.748-.098s-1.162.312-1.755.294c-.779-.024-1.519-.409-2.124-.937"
      fill="#db874b"
    />
    <path
      d="M10.661 9.767c.702.868 1.304 2.186 2.006 3.054.124.154.253.311.424.399.465.24 1.03-.115 1.538-.009.488.102.799.587 1.14.971.618.696 1.456 1.132 2.324 1.387.868.255 1.772.34 2.671.425-.042.361-.319.62-.565.874a23.894 23.894 0 0 1-1.837 1.711c-.74-.028-1.523-.311-2.21-.596l-3.4-1.414c-.445-.185-.895-.373-1.288-.661-.244-.179-.553-.094-.841-.169-.419-.109-.845-.22-1.213-.459-.916-.595-1.268-1.85-1.274-3.006-.003-.573.059-1.154-.038-1.716-.406.039-.838.075-1.227.21-1.204.418-1.905.227-3.11.645C5.039 9.619 5.91 8.396 7.367 6.865"
      fill="#db874b"
    />
    <path
      d="M20.596 6.484c-.078-.032-.254-.001-.329.083-.039.043-.046.094-.054.154-.02.153.057.31.174.401.102.08.228.114.344.169.282.134.464.382.59.675.116-.163.025-.7-.062-.849-.146-.251-.379-.516-.663-.633z"
      fill="#28241f"
    />
    <path
      d="M10.87 14.901l-.649-.412c-.207-.155-.367-.365-.555-.549a5.887 5.887 0 0 1-.653-1.409c-.278-.989-.388-2.036-.216-3.045.069 1.015.193 2.009.493 2.962.12.49.345.924.558 1.365.156.186.288.401.467.571l.555.517zM10.501 10.451a.57.57 0 0 1-.243-.409.749.749 0 0 1 .117-.498.674.674 0 0 1 .451-.259.509.509 0 0 1 .447.17.716.716 0 0 0-.399.047.538.538 0 0 0-.265.21c-.075.084-.108.203-.131.327a.961.961 0 0 0 .023.412z"
      fill="#ad5f30"
    />
    <path
      d="M12.894 7.559c.326.271.771.34 1.155.197s.547-.468.701-.891a5.684 5.684 0 0 0-1.073-.243 6.455 6.455 0 0 1-.713-.151c-.14-.038-.408-.188-.519-.011-.095.151.02.448.081.592.084.2.211.375.368.507z"
      fill="#fff"
    />
    <path
      d="M13.557 6.802a.975.975 0 0 0 .009.459.627.627 0 0 0 .246.359.468.468 0 0 0 .381.059.59.59 0 0 0 .323-.241c.039-.057.07-.12.1-.183.045-.094.115-.286.136-.39-.137-.034-.29-.004-.421-.059a2.888 2.888 0 0 0-.604-.18c-.047-.008-.087-.022-.117.019a.43.43 0 0 0-.053.157z"
      fill="#28241f"
    />
    <path
      d="M14.108 7a.22.22 0 0 0-.016.204c.029.064.094.105.157.1s.122-.059.138-.129c.042-.177-.172-.334-.279-.175z"
      fill="#fff"
    />
    <path
      d="M15.601 5.68c.03.195.036.389.055.583-.003.18.039.443-.213.64-.272.158-.485.054-.666.056l-.577-.062c-.761-.131-1.542-.281-2.234-.666.781.077 1.524.198 2.289.286l.569.096c.193.032.388.07.47.038.095-.022.151-.214.176-.4.043-.19.075-.381.131-.571z"
      fill="#ad5f30"
    />
    <path
      d="M11.681 3.889c.518-.276 1.165-.38 1.722-.197.447.147.819.457 1.262.616.402.144.917.298 1.287.27-1.074.072-2.476.131-3.55.203-.662.045-1.991.444-2.575.09.472-.233 1.376-.727 1.854-.982z"
      fill="#db874b"
    />
    <g fill="#115642">
      <path d="M4.221 13.186a5.285 5.285 0 0 0-.55-1.153c-.132-.208-.279-.406-.406-.617a3.82 3.82 0 0 1-.49-1.318c.028.161-.537.811-.633.976-.238.412-.27.489.09.818.575.527 1.295.948 1.989 1.294zM6.366 10.937c-.299-.726-.599-1.453-.988-2.135-.133-.234-.278-.465-.361-.722-.125-.392-.1-.83-.281-1.2.004.008-.857 1.044-.929 1.162-.301.498-.352.7.035 1.137.681.767 1.578 1.371 2.524 1.758zM7.12 7.606c.052.046.203.158.203.158.02-.024 0-.181 0-.213l-.019-2.373c.001.135-1.262.164-1.206.847.047.565.619 1.228 1.022 1.581z" />
    </g>
  </svg>