<?xml version="1.0" encoding="utf-8"?>
<svg version="1.1" xmlns="http://www.w3.org/2000/svg" xmlns:xlink="http://www.w3.org/1999/xlink" x="0px" y="0px"
	 viewBox="0 0 23 23" style="enable-background:new 0 0 100 100;" xml:space="preserve">
	 <path
      d="M13.032 11.75a3.612 3.612 0 0 0-.056 2.595c.648 1.776 2.617 2.861 3.113 4.685.176.647.146 1.341-.031 1.989-.209.765-.753 1.56-1.545 1.596.614-.452.877-1.298.708-2.042s-.724-1.369-1.407-1.708c-.608-.302-1.298-.393-1.928-.647a4.014 4.014 0 0 1-2.348-2.694 4.014 4.014 0 0 1 .788-3.485c.103-.125.227-.25.387-.274.11-.017.221.018.328.053.696.225 1.449.492 1.836 1.112"
      fill="#282f5e"
    />
    <path
      d="M3.723 7.223c-.83 1.939-1.263 4.097-.894 6.174.158.887.477 1.777 1.104 2.425.454.469 1.045.787 1.502 1.253.688.7 1.025 1.728.887 2.7-.095.667-.442 1.338-1.046 1.637s-1.466.083-1.715-.544c.254.785 1.04 1.367 1.865 1.379s1.628-.545 1.905-1.323c.023.417-.05.857-.303 1.19s-.715.526-1.106.379c.929.31 1.903.625 2.869.464.966-.161 1.9-.967 1.846-1.945.327.647-.078 1.384-.684 1.816.635-.187 1.043-.929 1.326-1.56.142.614-.258 1.303-.862 1.484.923.275 1.97.094 2.748-.473a3.193 3.193 0 0 0 1.289-2.472c.007-.338-.044-.687-.218-.977-.129-.215-.318-.387-.511-.547a8.582 8.582 0 0 0-1.152-.805c-.582-.339-1.207-.612-1.735-1.031-.528-.419-.96-1.027-.959-1.701.001-.943.801-1.659 1.482-2.312 1.446-1.387 2.64-3.099 3.12-5.045.168-.68.243-1.419-.025-2.066-.194-.469-.553-.852-.939-1.181a7.192 7.192 0 0 0-3.703-1.648c-.796-.107-1.572-.265-2.359-.391-.647-.104-.889.338-1.229.822-.955 1.357-1.849 2.768-2.503 4.298z"
      fill="#282f5e"
    />
    <path
      d="M19.261 5.628c.239 1.425-.327 2.92.048 4.316.172.639.464 1.266.369 1.921a4.365 4.365 0 0 1-.725 1.848c-.37.54-.806 1.035-1.151 1.591-.17.273-.318.561-.513.818-.126.166-.292.328-.5.343-.635.045-1.328-.059-1.935-.251-.82-.259-2.348-.893-2.847-1.593-.355-.498-1.09-.628-1.517-1.066-.272-.279-.52-.605-.598-.987-.103-.506-.061-.945.02-1.455.219-1.368.448-2.764 1.095-3.99.586-1.11 1.501-2.035 2.575-2.686s2.301-1.033 3.549-1.168c.285-.031.584-.047.846.067.319.138.53.445.693.752.266.498.498.983.591 1.54z"
      fill="#f4dec9"
    />
    <path
      d="M12.094 10.328c.145.251.391.442.671.521.491.139 1.006-.065 1.514-.114.187-.018.382-.014.553.063a1.293 1.293 0 0 0-.075-.602 1.353 1.353 0 0 0-.331-.564c-.15-.142-.343-.23-.532-.315a.936.936 0 0 0-.255-.086c-.108-.014-.217.013-.324.037-.217.05-.436.093-.655.129-.174.029-.426.014-.583.097-.273.145-.097.638.017.834z"
      fill="#fff"
    />
    <path
      d="M18.149 13.814c-.385.063-.705-.304-1.087-.386-.459-.099-.892.225-1.347.341a1.557 1.557 0 0 1-.894-.039c.339.157.722.236 1.09.305.421.078.846.157 1.274.145.428-.012.865-.122 1.203-.386-.064.009-.174.01-.239.02z"
      fill="#c4232d"
    />
    <path
      d="M16.107 14.687c.343.143.744.117 1.087-.028.343-.145.631-.399.859-.693a103.167 103.167 0 0 0-2.188-.055c-.169-.003-.522.058-.66-.033.279.301.505.644.902.809z"
      fill="#c4232d"
    />
    <path
      d="M16.483 12.641c.043.06.106.101.173.133a.83.83 0 0 0 .974-.225c.07-.087.121-.214.059-.308-.002.057-.042.107-.091.137a.51.51 0 0 1-.162.055c-.302.064-.616.107-.919.045a.54.54 0 0 1-.109-.038.432.432 0 0 0 .075.201z"
      fill="#d8ac82"
    />
    <path
      d="M18.047 9.542c.306-.182.652-.281.994-.376.034-.009.071-.019.104-.009.069.021.09.106.098.178.035.308.039.64-.125.902-.165.263-.475.408-.783.444a2.38 2.38 0 0 1-.694-.041c-.069-.012-.246-.015-.287-.079-.027-.042.015-.176.028-.225.092-.341.37-.618.665-.794z"
      fill="#fff"
    />
    <path
      d="M11.975 9.215c.232.073.483.056.724.021s.482-.086.725-.078c.679.022 1.305.563 1.425 1.232-.163-.354-.358-.73-.71-.897-.245-.116-.531-.11-.798-.063s-.526.134-.794.173c-.185.027-.382.029-.551-.052-.329-.158-.329-.475-.482-.748.052.202.27.352.461.412z"
      fill="#28241f"
    />
    <path
      d="M14.002 9.465c.059.26.069.548-.067.777a.762.762 0 0 1-.539.352.953.953 0 0 1-.636-.142.477.477 0 0 1-.155-.141.505.505 0 0 1-.058-.142 1.54 1.54 0 0 1-.051-.573c.191-.046.395-.081.586-.127.157-.038.316-.076.478-.081.161-.006.307-.013.442.077z"
      fill="#5c617a"
    />
    <path
      d="M13.449 9.632a.292.292 0 0 0-.103.112c-.04.073-.058.167-.013.237.049.075.149.092.238.103.087.01.187.016.248-.047.041-.043.051-.106.058-.165a.26.26 0 0 0-.004-.121.209.209 0 0 0-.073-.088c-.088-.068-.252-.088-.351-.031z"
      fill="#fff"
    />
    <path
      d="M19.063 9.297c.137.149.08.635-.037.831-.097.163-.274.273-.462.301s-.384-.021-.544-.122a.417.417 0 0 1-.133-.121.442.442 0 0 1-.05-.121c-.045-.159-.026-.244-.009-.408.163-.039.304-.152.467-.192.135-.032.301-.185.439-.174.196.016.324-.032.329.006z"
      fill="#5c617a"
    />
    <path
      d="M18.61 9.606a.24.24 0 0 0-.088.096c-.035.062-.05.143-.011.203.042.064.128.079.204.088.074.009.161.014.212-.04.035-.037.043-.091.05-.142.004-.035.009-.071-.003-.104a.173.173 0 0 0-.062-.075c-.076-.058-.216-.075-.302-.026z"
      fill="#fff"
    />
    <path
      d="M17.434 10.352c.07-.479.415-.907.868-1.076.205-.077.427-.103.626-.193.199-.089.383-.269.382-.487.081.244.094.493.023.74-.3.006-.595.015-.882.101a1.673 1.673 0 0 0-1.03.909c.027-.02-.014.027.013.006z"
      fill="#28241f"
    />
    <path
      d="M19.352 3.525a1.67 1.67 0 0 0-.558-1.098c-.213-.186-.469-.314-.712-.458-.297-.176-.578-.379-.872-.56-.871-.536-1.85-.876-2.846-1.105-1.763-.406-3.657-.465-5.343.191S5.9 2.613 5.604 4.398a.395.395 0 0 0 .006.221c.042.1.15.15.238.213.183.133.289.346.45.505.204.203.483.309.748.421.83.35 1.635.839 2.141 1.584.237.349.274.843.685.94.998.235 2.053-.042 2.974-.491.921-.449 1.751-1.065 2.644-1.569s1.889-.9 2.913-.847c.212.011.426.043.619.132.149.07.282.174.385.302-.139-.116-.265-.199-.404-.316.059.363.09.73.093 1.097.292-.103.517-.34.703-.589.242-.324.438-.683.58-1.062.037-.099.071-.201.076-.307.012-.257-.15-.497-.359-.647-.209-.15-.46-.226-.707-.3"
      fill="#282f5e"
    />
    <path
      d="M8.125 7.726c.245.164.466.368.595.676.136.32.052.67-.013.944-.102.273-.184.514-.207.747-.019.219.04.487.288.646-.322.033-.598-.294-.643-.625-.055-.335.06-.638.12-.901.097-.258.144-.486.114-.715-.027-.237-.157-.492-.254-.772z"
      fill="#d8ac82"
    />
    <path
      d="M19.485 3.806a4.584 4.584 0 0 0-2.632-.47 4.32 4.32 0 0 0-2.342 1.094c-.685.571-1.319 1.291-2.104 1.834-.769.554-1.609 1.007-2.504 1.292.79-.502 1.541-1.035 2.226-1.641.687-.598 1.277-1.296 2.009-1.929.722-.634 1.698-1.086 2.682-1.093.977-.027 1.959.285 2.665.913zM5.884 5.701c-.513.628-1.058 1.243-1.393 1.961a5.04 5.04 0 0 0-.497 2.276c.01 1.57.635 3.081 1.538 4.379.435.667.941 1.343 1.249 2.149.3.801.422 1.642.435 2.464.022.806.002 1.714-.482 2.452-.44.737-1.526 1.114-2.199.564.743.413 1.64-.028 1.957-.712.378-.675.354-1.487.28-2.278-.081-.794-.185-1.583-.48-2.297-.288-.712-.777-1.343-1.24-2.022-.9-1.375-1.589-3.007-1.5-4.71.047-.839.266-1.676.692-2.4.442-.714 1.034-1.287 1.64-1.826z"
      fill="#4f547e"
    />
    <path
      d="M6.153 22.409c.025.1.153.065.224.034.085-.032.167-.069.247-.11.161-.08.311-.177.447-.291.272-.227.48-.516.634-.83.312-.626.472-1.341.505-2.036.076-1.405-.511-2.745-1.219-3.993-.665-1.273-1.497-2.559-1.757-4.07-.256-1.494.063-3.064.89-4.28-.612 1.327-.776 2.822-.453 4.191.324 1.377 1.105 2.604 1.828 3.882.676 1.284 1.336 2.754 1.153 4.305-.094.755-.309 1.487-.702 2.141-.206.32-.471.607-.789.814a2.313 2.313 0 0 1-.504.248 2.542 2.542 0 0 1-.269.072c-.074.02-.228.033-.235-.077zM9.078 13.346c.353.861.846 1.623 1.394 2.35.554.723 1.139 1.434 1.68 2.199.265.375.517.804.715 1.273a2.476 2.476 0 0 1-.031 1.51c-.316.967-1.091 1.641-1.914 2.051.692-.606 1.307-1.33 1.484-2.169.08-.416.085-.844-.059-1.218a7.123 7.123 0 0 0-.67-1.116c-.512-.75-1.09-1.476-1.572-2.281-.486-.796-.905-1.67-1.027-2.599zM6.661 5.72c.94-.035 1.819-.418 2.42-1.059.593-.643 1.102-1.495 1.865-2.119C12.418 1.28 14.43.634 16.305.911c-.936.102-1.84.306-2.68.661-.835.359-1.625.817-2.302 1.41-.71.556-1.186 1.342-1.938 2.002-.75.662-1.798.945-2.724.736zM6.142 5.115c.693-.415.985-1.144 1.41-1.819a6.622 6.622 0 0 1 1.649-1.787C10.502.533 12.173.014 13.758.201c-.781.148-1.532.336-2.236.642a9.267 9.267 0 0 0-1.974 1.13c-.616.444-1.146.99-1.633 1.578-.465.582-.957 1.369-1.773 1.564z"
      fill="#4f547e"
    />
    <path d="M11.749 3.494c-.004.001-.007.007-.005.011" fill="none" />
    <path d="M10.818 3.947c-.002.009-.001.021.008.023" fill="#bc9139" />
    <path
      d="M10.382 8.713c-.266-.427-.629-.763-.987-1.092-.196-.182-.411-.371-.664-.385-.235-.013-.454.129-.644.286-.174.145-.342.314-.433.537-.077.19-.092.406-.082.615.022.484.165.949.307 1.407l.326 1.051c.081.262.177.544.388.685.137.092.304.108.463.103.499-.016 1.01-.239 1.314-.687.216-.319.311-.722.379-1.117.084-.492.133-1.013-.018-1.484-.197-.619-1.363-1.378-1.943-1.387"
      fill="#f4dec9"
    />
    <path
      d="M19.403 7.82c-2.669-.268-6.336.211-8.966.735-.243-.421-.507-.829-.738-.978.33-.259 2.044-1.39 2.477-1.655.715-.437 1.622-.887 2.362-1.281.739-.394 1.425-.921 1.889-1.618.22.156.295.391.467.6.319.385.717.695 1.112 1.002.347.269.702.543 1.117.684.223.85.276 1.632.28 2.511z"
      fill="#f7e945"
    />
    <path
      d="M10.963 8.937c-.343.487-.64 1.025-.721 1.615-.081.59.09 1.24.549 1.619.252.208.569.32.837.506.512.355.816.988.774 1.609s-.43 1.208-.984 1.49c-.565.288-1.248.264-1.816.547-.162.081-.317.19-.415.342a.952.952 0 0 0-.123.593c.022.265.129.539.35.688.22.149.565.122.709-.102-.215.255-.635.272-.906.079s-.396-.55-.368-.882c.028-.332.189-.641.395-.903.22-.28.493-.519.8-.698.206-.121.431-.217.606-.38.23-.213.352-.52.42-.827.058-.264.079-.552-.043-.792-.105-.205-.298-.346-.464-.505-.613-.587-.874-1.471-.863-2.32.011-.849.335-1.451.627-2.248.024-.067.128-.003.178-.002.264.002.346-.03.584-.042.181-.009.305-.032.478-.068-.1.111-.346.315-.604.681z"
      fill="#4f547e"
    />
    <g>
      <path
        d="M8.569 8.095c.751.388 1.168 1.358.931 2.17a6.184 6.184 0 0 0-.931-2.17z"
        fill="#d8ac82"
      />
    </g>
    <g>
      <path
        d="M8.555 9.759c-.058-.348.284-.804.804-.79l-.119.567c-.148-.145-.529-.108-.685.223z"
        fill="#d8ac82"
      />
    </g>
    <ellipse cx="16.408"  cy="6.012" rx="1.256" ry="1.363" fill="#fff" />
    <path
      d="M15.231 6.33l1.123-.157-.678 1.455c.62-.558 1.084-1.165 1.704-1.723l-.787-.136c.204-.413.49-.984.736-1.373-.676.674-1.386 1.301-2.098 1.934z"
      fill="#c4232d"
    />
  </svg>