<?xml version="1.0" encoding="utf-8"?>
<!-- Generator: Adobe Illustrator 24.2.3, SVG Export Plug-In . SVG Version: 6.00 Build 0)  -->
<svg version="1.1" id="coiffure_x5F_1" xmlns="http://www.w3.org/2000/svg" xmlns:xlink="http://www.w3.org/1999/xlink" x="0px"
	 y="0px" viewBox="0 0 553 574" style="enable-background:new 0 0 553 574;" xml:space="preserve">
<style type="text/css">
	.st0{fill:#BF9660;}
	.st1{fill:#B58B5A;}
	.st2{fill:#D1A868;}
	.st3{fill:#AD8358;}
</style>
<g>
	<g>
		<g>
			<g>
				<g>
					<path class="st0" d="M261.2,122.3c5.1,8.2-20.8-2.5-27.9,4.2c-0.8,0.4-1.6-0.6-1.1-1.3C238.6,118.3,253.9,116.7,261.2,122.3z"
						/>
					<path class="st1" d="M261.2,122.3c0.3,0.6,0.7,1.2,0.7,1.8c0,0.3-0.2,0.7-0.5,0.9c-0.3,0.2-0.6,0.3-0.9,0.4
						c-1.3,0.3-2.6,0.2-4,0.1c-2.6-0.2-5.3-0.5-7.9-0.8c-2.6-0.3-5.3-0.5-7.9-0.3c-1.3,0.1-2.6,0.2-3.9,0.5
						c-1.2,0.3-2.5,0.8-3.4,1.7l0,0l0,0c-0.4,0.2-1,0.1-1.4-0.3c-0.3-0.4-0.4-1,0-1.4l0,0l0,0c1.8-1.9,4.2-3.3,6.6-4.3
						c2.4-1,5-1.5,7.6-1.8c2.6-0.2,5.2-0.1,7.8,0.4C256.6,119.8,259.1,120.7,261.2,122.3z M261.2,122.3c-2.1-1.5-4.6-2.4-7.2-2.9
						c-2.6-0.5-5.2-0.5-7.8-0.2c-2.6,0.3-5.1,0.9-7.5,1.9c-2.4,1-4.6,2.3-6.4,4.2l0,0c-0.2,0.2-0.2,0.6,0,0.8
						c0.2,0.2,0.5,0.3,0.8,0.2l-0.1,0c1-0.9,2.3-1.5,3.6-1.8c1.3-0.3,2.6-0.4,4-0.5c2.7-0.1,5.3,0.2,7.9,0.5c2.6,0.3,5.2,0.7,7.9,1
						c1.3,0.1,2.6,0.2,3.9-0.1c0.6-0.1,1.3-0.5,1.4-1.2C261.9,123.4,261.5,122.8,261.2,122.3z"/>
				</g>
				<g>
					<path class="st0" d="M232.9,126.6c-3.5-4.3,10.5-7.5,13.9-7.3c5.4-0.5,10.9-0.7,14.4,2.9c1.6,1.6-0.1,4.5-2.2,3.9
						C251.2,123.9,240.3,122.8,232.9,126.6z M251.7,119.2c-6.5,0.3-15,0.3-19.4,6c-0.5,0.7,0.2,1.5,1,1.2c6.6-6.5,32.8,3.9,27.8-4v0
						C258.8,119.9,255.3,119.2,251.7,119.2z"/>
					<g>
						<path class="st1" d="M232.9,126.6c-0.5-0.6-0.8-1.4-0.4-2.1c0.3-0.7,0.9-1.2,1.5-1.7c1.2-0.9,2.6-1.5,4-2
							c1.4-0.5,2.9-0.9,4.3-1.2c1.5-0.3,2.9-0.6,4.5-0.6l0,0c2-0.2,4-0.3,6-0.3c2,0.1,4,0.4,5.9,1.3c0.9,0.4,1.8,1,2.5,1.7
							c0.4,0.3,0.8,0.8,0.9,1.4c0.1,0.5,0,1.1-0.2,1.6c-0.4,1-1.5,1.7-2.6,1.5c-1-0.2-1.9-0.5-2.9-0.7c-3.9-0.9-7.8-1.4-11.8-1.4
							C240.6,124.3,236.5,124.8,232.9,126.6z M232.9,126.6c3.5-1.9,7.6-2.6,11.6-2.7c4-0.1,8,0.4,11.9,1.3c1,0.2,2,0.5,2.9,0.7
							c0.9,0.2,1.8-0.4,2.1-1.3c0.4-0.8,0.2-1.8-0.6-2.4c-0.7-0.7-1.5-1.2-2.4-1.7c-1.8-0.9-3.7-1.2-5.7-1.3c-2-0.1-4,0.1-5.9,0.2
							l0,0l0,0c-1.4,0-2.9,0.2-4.4,0.5c-1.5,0.3-2.9,0.7-4.3,1.1c-1.4,0.5-2.8,1-4,1.8c-0.6,0.4-1.2,0.9-1.5,1.6
							C232.2,125.2,232.5,126,232.9,126.6z"/>
						<path class="st1" d="M251.7,119.2c-3.8,0.2-7.7,0.3-11.4,1.3c-1.8,0.5-3.7,1.2-5.2,2.3c-0.8,0.6-1.5,1.2-2.1,1.9l-0.5,0.5
							c-0.1,0.2-0.2,0.4-0.1,0.5c0.1,0.4,0.5,0.6,0.9,0.4l-0.1,0c1-1,2.3-1.5,3.6-1.8c1.3-0.3,2.6-0.5,3.9-0.5
							c2.6-0.1,5.3,0.2,7.9,0.4c2.6,0.3,5.2,0.7,7.8,0.9c1.3,0.1,2.6,0.2,3.9,0c0.6-0.1,1.3-0.4,1.4-1c0.1-0.6-0.2-1.2-0.6-1.8
							l0.1,0v0v0.1l-0.1-0.1c-1.2-1.2-2.7-2.1-4.4-2.5C255.1,119.4,253.4,119.2,251.7,119.2z M251.7,119.2c1.7,0,3.4,0.1,5.1,0.6
							c1.7,0.4,3.2,1.3,4.4,2.5l-0.1,0v0v-0.2l0.1,0.2c0.3,0.6,0.7,1.2,0.6,1.9c0,0.4-0.3,0.7-0.6,0.8c-0.3,0.2-0.6,0.3-0.9,0.4
							c-1.3,0.3-2.6,0.2-4,0.1c-2.6-0.2-5.2-0.5-7.8-0.8c-2.6-0.3-5.2-0.5-7.8-0.4c-1.3,0-2.6,0.2-3.9,0.5c-1.2,0.3-2.5,0.8-3.4,1.7
							l0,0l0,0c-0.3,0.1-0.6,0.1-0.9,0c-0.3-0.1-0.5-0.4-0.5-0.7c-0.1-0.3,0-0.6,0.2-0.8l0.5-0.6c0.6-0.7,1.4-1.4,2.2-1.9
							c1.6-1.1,3.5-1.8,5.3-2.2C244,119.5,247.8,119.4,251.7,119.2z"/>
					</g>
				</g>
			</g>
			<g>
				<g>
					<path class="st0" d="M286.4,120.5c-5.9,7.6,21.1-0.1,27.2,7.2c0.8,0.5,1.7-0.4,1.2-1.2C309.2,119,294.3,115.8,286.4,120.5z"/>
					<path class="st1" d="M286.4,120.5c-0.4,0.5-0.8,1.1-0.8,1.8c0,0.7,0.6,1.2,1.2,1.4c1.3,0.4,2.6,0.5,3.9,0.5
						c2.6,0.1,5.3-0.1,7.9-0.1c2.6,0,5.3,0,7.9,0.4c1.3,0.2,2.6,0.5,3.9,0.9c1.3,0.5,2.5,1.1,3.4,2.2l-0.1,0
						c0.2,0.2,0.6,0.1,0.8-0.1c0.2-0.2,0.3-0.5,0.1-0.8l0,0c-1.5-2-3.6-3.6-5.9-4.9c-2.3-1.2-4.7-2.2-7.2-2.7
						c-2.5-0.6-5.1-0.8-7.7-0.7C291.2,118.6,288.6,119.2,286.4,120.5z M286.4,120.5c2.2-1.3,4.8-2,7.4-2.2c2.6-0.2,5.2,0,7.8,0.5
						c2.6,0.5,5.1,1.4,7.4,2.6c2.3,1.2,4.5,2.8,6.1,5l0,0l0,0c0.3,0.4,0.2,1-0.2,1.4c-0.4,0.4-1,0.4-1.4,0.1l0,0l0,0
						c-0.8-1-2-1.6-3.2-2.1c-1.2-0.5-2.5-0.7-3.8-0.9c-2.6-0.4-5.2-0.5-7.9-0.5c-2.6,0-5.3,0-7.9-0.1c-1.3-0.1-2.7-0.1-3.9-0.6
						c-0.3-0.1-0.6-0.3-0.9-0.5c-0.2-0.2-0.4-0.6-0.4-0.9C285.6,121.6,286,121.1,286.4,120.5z"/>
				</g>
				<g>
					<path class="st0" d="M314.1,128c-7.4-7.6-33.7,0.3-27.8-7.5l0,0.1l0-0.1C290.8,115.3,317.2,120.4,314.1,128z M297.9,123.7
						c5.9-1.7,26.3,9.9,12.2-1.5C291,112,272.1,126.8,297.9,123.7z"/>
					<g>
						<path class="st1" d="M314.1,128c-1-1-2.2-1.6-3.4-2.1c-1.3-0.5-2.6-0.7-3.9-0.9c-2.7-0.4-5.4-0.5-8-0.5c-2.7,0-5.4,0.1-8.1,0
							c-1.4-0.1-2.7-0.1-4.1-0.6c-0.3-0.1-0.7-0.3-0.9-0.6c-0.3-0.3-0.4-0.7-0.4-1.1c0.1-0.8,0.5-1.4,0.9-1.9l0.2-0.3l0.2,0.3l0,0.1
							l-0.4,0.3l0-0.1l-0.1-0.2l0.1-0.2c1-1.1,2.4-1.5,3.8-1.8c1.4-0.3,2.7-0.4,4.1-0.4c2.7,0,5.5,0.3,8.2,0.9
							c2.7,0.6,5.3,1.4,7.8,2.7c1.2,0.6,2.4,1.4,3.3,2.4c0.5,0.5,0.8,1.1,1,1.8C314.4,126.6,314.3,127.3,314.1,128z M314.1,128
							c0.2-0.7,0.3-1.3,0.1-2c-0.2-0.6-0.6-1.2-1-1.7c-0.9-1-2.1-1.7-3.3-2.3c-2.4-1.2-5.1-2-7.7-2.5c-2.7-0.5-5.4-0.9-8.1-0.8
							c-1.4,0-2.7,0.1-4,0.4c-1.3,0.3-2.6,0.7-3.5,1.7l0-0.3l0,0.1l-0.4,0.3l0-0.1l0.4,0c-0.4,0.5-0.8,1.1-0.8,1.7
							c-0.1,0.6,0.4,1,1,1.2c1.2,0.4,2.6,0.5,3.9,0.6c2.7,0.1,5.4,0,8.1,0c2.7,0,5.4,0.2,8.1,0.6c1.3,0.2,2.7,0.6,3.9,1.1
							C312,126.3,313.2,127,314.1,128z"/>
						<path class="st1" d="M297.9,123.7c1-0.3,2-0.2,3.1-0.1c1,0.1,2,0.4,3,0.6c2,0.5,4,1.1,5.9,1.7c1,0.3,2,0.6,2.9,0.9
							c0.5,0.1,1,0.2,1.5,0.3c0.2,0,0.5,0,0.5-0.1c0-0.2-0.2-0.4-0.3-0.6c-1.3-1.5-3-2.7-4.6-4l0,0c-2.9-1.5-6.1-2.6-9.3-3.2
							c-3.2-0.6-6.6-0.6-9.8,0c-1.6,0.3-3.2,0.8-4.6,1.8c-0.3,0.2-0.6,0.5-0.8,0.9c-0.2,0.4,0,0.8,0.3,1c0.6,0.5,1.4,0.7,2.2,0.9
							c1.6,0.3,3.3,0.3,5,0.3C294.6,124,296.3,123.9,297.9,123.7z M297.9,123.7c-3.3,0.4-6.6,0.7-9.9,0.2c-0.8-0.2-1.7-0.3-2.3-0.9
							c-0.3-0.3-0.5-0.8-0.3-1.2c0.2-0.4,0.5-0.7,0.8-1c1.4-1,3-1.5,4.6-1.9c3.3-0.7,6.7-0.7,10-0.2c3.3,0.5,6.5,1.7,9.4,3.3l0,0
							l0,0c0.8,0.6,1.6,1.3,2.4,2c0.8,0.7,1.5,1.4,2.2,2.2c0.1,0.2,0.3,0.4,0.4,0.8c0,0.2-0.2,0.3-0.4,0.4c-0.1,0-0.3,0-0.4,0
							c-0.5,0-1-0.2-1.5-0.3c-1-0.3-2-0.6-2.9-0.9c-1.9-0.7-3.9-1.3-5.9-1.8c-1-0.3-2-0.5-3-0.6C300,123.5,298.9,123.4,297.9,123.7z
							"/>
					</g>
				</g>
			</g>
		</g>
		<g>
			<g>
				<path class="st2" d="M223.9,144.9c1,5.4-1,6.1,0.2,11.5c-3.1-2.1-2.5-0.4-3.9-3.8c-0.4,2.2-0.2,4.4,0.5,6.5
					c-3.4-2-5.7-5.4-6.1-9c-0.9,1.8-2.7,3.2-4.8,3.7c3.6-7.9-0.6-9.9-2.8-16.1c-0.8,1.5-2.6,2.6-4.4,2.7c2.1-4.2,3-9,2.3-13.6
					c-1.2,0.5-2.3,1-3.5,1.5c2.1-3.8,2.8-8.1,2.1-12.3c-1.9,1.1-4.6,1.1-6.4-0.1c7.8-3.8,10-13.4,13.5-20.6
					c-2.2,0.4-4.5-0.1-6.2-1.3c10.3-3.7,10.4-18.3,21-21.6c-1.5-0.9-2.7-2.2-3.5-3.7c13.4,3.6,23.8-19.3,37-7.7
					c-0.9-1.7-1.7-3.3-2.6-5c1.9,0.3,3.6,1.7,4.1,3.4c0.9-3,0.4-6.3-1.5-9c3.1,1.6,5.3,4.3,6.1,7.5c3.1-4.8,9.6-8.4,15.2-5.8
					c-4.6-0.2-9.2,2.7-10.6,6.8c14.9,0.6,34-7.8,44.7,6.7c-1.7-0.6-3.5-0.8-5,0.6c14.8-0.3,15.4,15.7,24.6,21
					c-2.8,0.2-5.7-0.4-8.1-1.7c1.4,3.8,4.1,7.3,7.5,9.9c-1.4-0.5-2.9-0.9-4.3-1.4c1.1,4.4,4.8,8.2,9.5,9.7c-1.1,1.1-2.8,1.7-4.5,1.5
					c3.6,5.4,10.7,8.8,17.7,8.3c-2.5,3.3-6.4,5.7-10.7,6.6c-0.1,4.3,2.3,8.6,6.3,10.9c-2.9,0.6-6,0.9-9,0.6c0,3.9,0,7.8,0,11.7
					c-1.9-0.5-3.7-1.5-5.4-2.9c-1.8,3.3-3,6.9-3.6,10.6c-0.4-1.6-1.1-3.2-1.9-4.7c-0.7,4.1-3.9,7.5-3.6,11.9
					c-1.1-1.9-2-14.7-2.5-16.7c-0.1,1.2-2.5,2.6-3.7,12c-0.2,1.2-1.6,2.7-2.8,2.9c2.2-3.9,1.8-6.2,1.8-9.7
					c-0.5-6.4,7.5-12.5,6.1-19.4c-1.3,1.9-3,3.7-4.9,5.1c0.9-1.6,1.4-3.4,1.3-5.2c-0.9,1.9-2.6,3.5-4.6,4.5
					c1.6-3.6,2.5-7.4,2.7-11.3c-5-1.9-8.1-7.1-7.3-12c-3.9-1.7-4.1-5.3-6.7-9.3c-1.9,2.9-4.4,5.3-7.4,7.2c0.6-1.6,0.7-3.4,0.3-5.1
					c-2.9,9.9-14.3,13.9-23.7,15.6c2.5-2.2,4.2-5.1,4.7-8.3c-4.7,4.2-10.9,6.7-16.9,9c2.1-3.5,3.6-7.3,4.4-11.2
					c-2.7,9-14.3,13.5-22.9,9.9c4.2,0.4,6.9-3.6,8.3-7c-3.3,2.1-7.5,2.9-11.4,2.3c1.4-1.4,2.5-3.1,3.1-4.9c-2.8,3-6.6,5.2-10.8,6.3
					c3.5,3.4,1.6,9.2-2.9,10.5c0.9,2,0.2,4.5-1.7,5.8c1.6,2.7,3.7,5.2,6.2,7.2c-3.5,0.2-7-1.5-8.9-4.2c-0.2,3,0.4,6.1,1.7,8.9
					c-1.3-0.6-2.6-1.3-4-1.9C222.4,141,223.5,143,223.9,144.9z"/>
				<g>
					<path class="st3" d="M223.9,144.9c0.2,1,0.3,1.9,0.3,2.9c0,1-0.1,1.9-0.3,2.9c-0.1,1-0.3,1.9-0.2,2.9c0,1,0.2,1.9,0.4,2.9l0,0
						l0,0c-0.4-0.3-0.8-0.5-1.2-0.7c-0.4-0.2-0.8-0.4-1.3-0.6c-0.4-0.2-0.6-0.7-0.8-1.1c-0.2-0.4-0.4-0.9-0.6-1.3l0,0
						c-0.4,2.2-0.2,4.4,0.5,6.5l0,0l0,0c-3.3-1.9-5.7-5.3-6.1-9.1l0,0c-0.9,1.9-2.8,3.2-4.8,3.7l0,0l0,0c0.6-1.3,1.1-2.7,1.3-4.1
						c0.2-1.4,0.1-2.9-0.4-4.2c-0.5-1.4-1.2-2.6-1.9-3.8c-0.7-1.3-1.3-2.5-1.8-3.9l0.1,0c-0.8,1.6-2.6,2.7-4.4,2.7l-0.1,0l0-0.1
						c2.1-4.2,3-9,2.3-13.6l0.1,0l-3.5,1.5l-0.1,0.1l0.1-0.1c2-3.7,2.8-8.1,2.1-12.2l0.1,0c-2,1.1-4.5,1.1-6.5-0.1l-0.1-0.1l0.1,0
						c1.9-0.9,3.6-2.2,4.9-3.8c1.4-1.6,2.5-3.4,3.4-5.3c1.9-3.7,3.3-7.7,5.1-11.5l0.1,0.1c-2.2,0.4-4.5-0.1-6.3-1.3l-0.1-0.1
						l0.1-0.1c2.4-0.9,4.5-2.5,6.1-4.5c1.6-2,2.9-4.2,4.2-6.4c1.3-2.2,2.6-4.5,4.3-6.4c1.7-2,3.9-3.5,6.4-4.3l0,0.2
						c-1.5-0.9-2.7-2.2-3.5-3.8l-0.1-0.2l0.2,0.1c1.6,0.4,3.3,0.5,5,0.2c1.7-0.3,3.3-0.9,4.8-1.6c3-1.5,5.8-3.5,8.6-5.3
						c2.8-1.8,5.8-3.6,9.3-4.1c1.7-0.2,3.5-0.1,5.1,0.5c1.6,0.6,3.1,1.6,4.3,2.7l-0.2,0.1l-2.6-5l-0.1-0.2l0.2,0
						c1.9,0.3,3.7,1.6,4.2,3.5l-0.3,0c0.9-3,0.3-6.3-1.5-8.8l-0.3-0.4l0.5,0.2c3,1.5,5.4,4.3,6.2,7.6l-0.3,0c1.6-2.5,4-4.5,6.7-5.7
						c1.4-0.6,2.8-1,4.3-1c1.5-0.1,3,0.2,4.4,0.8l0.7,0.3l-0.8,0c-2.2-0.1-4.4,0.5-6.3,1.7c-1.9,1.2-3.4,2.9-4.1,5l-0.1-0.2
						c3.9,0.1,7.9-0.3,11.8-0.7c3.9-0.5,7.9-1,11.8-1.1c4-0.1,8,0.1,11.8,1.5c3.8,1.3,7.1,3.9,9.4,7.1l0.4,0.5l-0.6-0.2
						c-0.8-0.3-1.7-0.5-2.6-0.4c-0.9,0.1-1.7,0.4-2.3,1l-0.1-0.3c2.8,0,5.7,0.6,8.2,2c2.5,1.5,4.4,3.6,6,5.9c1.6,2.3,3,4.8,4.6,7.1
						c1.6,2.3,3.4,4.5,5.9,5.9l0.6,0.4l-0.7,0c-2.8,0.2-5.7-0.4-8.2-1.7l0.3-0.3c1.5,3.9,4.1,7.3,7.5,9.8l1.1,0.8l-1.3-0.4l-4.3-1.4
						l0.3-0.3c0.6,2.3,1.8,4.3,3.4,6c1.6,1.6,3.7,2.9,5.9,3.6l0.4,0.1l-0.3,0.3c-1.2,1.2-3,1.8-4.7,1.6l0.2-0.4
						c1.9,2.8,4.6,5,7.7,6.3c3.1,1.4,6.5,2,9.8,1.8l0.6,0l-0.3,0.4c-2.7,3.5-6.6,5.8-10.8,6.7l0.2-0.2c-0.1,2.2,0.5,4.3,1.6,6.2
						c1.1,1.9,2.7,3.4,4.5,4.5l0.5,0.3l-0.6,0.1c-3,0.6-6,0.9-9.1,0.6l0.2-0.2l0,11.7l0,0.3l-0.3-0.1c-2-0.6-3.9-1.6-5.5-2.9
						l0.3-0.1c-1.8,3.3-3,6.8-3.6,10.5l-0.1,1l-0.3-1c-0.4-1.6-1.1-3.2-1.9-4.6l0.4-0.1c-0.4,2.1-1.4,4-2.2,5.9
						c-0.9,1.9-1.6,3.9-1.4,5.9l0.1,1.2l-0.5-1.1c-0.6-1.4-0.7-2.8-1-4.2c-0.2-1.4-0.4-2.8-0.5-4.2l-0.5-4.2
						c-0.2-1.4-0.3-2.8-0.5-4.2l0.4,0c-0.1,0.4-0.3,0.7-0.4,1l-0.5,0.9c-0.3,0.6-0.6,1.2-0.9,1.9c-0.5,1.3-0.9,2.6-1.2,4
						c-0.3,1.4-0.5,2.7-0.7,4.1c-0.1,0.8-0.6,1.4-1.1,1.9c-0.5,0.5-1.1,1-1.9,1.1l-0.4,0.1l0.2-0.4c0.6-1.1,1.2-2.3,1.5-3.5
						c0.3-1.2,0.4-2.5,0.3-3.8c0-1.3-0.1-2.6,0-3.9c0.1-1.3,0.6-2.5,1.1-3.7c1.1-2.4,2.5-4.5,3.6-6.8c0.6-1.2,1-2.3,1.3-3.6
						c0.3-1.2,0.3-2.5,0.1-3.8l0.3,0.1c-1.3,2-3,3.7-5,5.1l-0.6,0.4l0.4-0.6c0.9-1.5,1.3-3.3,1.3-5.1l0.3,0.1c-1,2-2.7,3.6-4.7,4.6
						l-0.4,0.2l0.2-0.4c1.6-3.6,2.5-7.4,2.7-11.3l0.1,0.1c-2.4-0.9-4.4-2.7-5.8-4.8c-1.4-2.2-2-4.8-1.6-7.3l0.1,0.1
						c-0.9-0.4-1.7-1-2.4-1.7c-0.7-0.7-1.2-1.6-1.6-2.5c-0.9-1.7-1.6-3.5-2.7-5.2l0.2,0c-1.9,2.9-4.5,5.4-7.4,7.3l-0.3,0.2l0.1-0.3
						c0.6-1.6,0.7-3.4,0.3-5l0.2,0c-0.7,2.4-2,4.6-3.7,6.5c-1.7,1.8-3.7,3.3-5.9,4.5c-4.4,2.4-9.3,3.8-14.1,4.6l-0.4,0.1l0.3-0.2
						c2.4-2.1,4.1-5,4.6-8.2l0.2,0.1c-2.4,2.2-5.2,3.8-8.1,5.3c-2.9,1.4-5.9,2.6-8.9,3.8l-0.2,0.1l0.1-0.2c2.1-3.4,3.6-7.2,4.4-11.2
						l0.1,0c-0.7,2.2-1.9,4.3-3.6,5.9c-1.6,1.7-3.6,2.9-5.8,3.8c-4.3,1.8-9.3,2-13.6,0.2l-0.4-0.1l0.4,0c1,0.1,1.9-0.1,2.8-0.5
						c0.9-0.4,1.7-1,2.4-1.7c1.4-1.4,2.3-3.1,3.1-4.9l0.1,0.1c-3.4,2.1-7.5,2.9-11.4,2.3l-0.1,0l0.1-0.1c1.4-1.4,2.5-3.1,3.1-4.9
						l0.1,0c-2.9,3.1-6.7,5.3-10.9,6.3l0-0.1c0.8,0.8,1.4,1.8,1.6,2.8c0.3,1.1,0.2,2.2-0.1,3.3c-0.6,2.1-2.4,3.9-4.5,4.5l0,0
						c0.5,1,0.5,2.2,0.2,3.2c-0.3,1.1-1,2-1.9,2.6l0,0c1.6,2.8,3.7,5.2,6.2,7.2l0,0l0,0c-3.4,0.1-6.9-1.4-8.9-4.2l0,0
						c-0.2,3,0.4,6.1,1.6,8.9l0,0l0,0l-4-1.9l0,0C222.3,140.9,223.5,142.8,223.9,144.9z M223.9,144.9c-0.4-2.1-1.6-4-2.6-5.9l0,0
						l0,0l4,1.9l0,0c-1.3-2.8-1.8-5.8-1.7-8.9l0,0l0,0c2,2.8,5.5,4.3,8.9,4.2l0,0c-2.5-2-4.6-4.4-6.2-7.2l0,0l0,0
						c0.9-0.6,1.6-1.6,1.9-2.6c0.3-1,0.3-2.2-0.2-3.2l0,0l0,0c2.1-0.6,3.8-2.3,4.5-4.4c0.3-1,0.4-2.2,0.1-3.2
						c-0.3-1.1-0.8-2-1.6-2.8l0,0l0.1,0c4.1-1,7.9-3.2,10.8-6.3l0.1-0.1l-0.1,0.2c-0.6,1.9-1.7,3.6-3.1,5l0-0.1
						c3.9,0.6,8-0.2,11.4-2.3l0.1-0.1l-0.1,0.2c-0.8,1.8-1.7,3.5-3.1,4.9c-0.7,0.7-1.5,1.3-2.4,1.7c-0.9,0.4-1.9,0.5-2.9,0.5l0-0.1
						c4.3,1.8,9.3,1.5,13.5-0.2c2.1-0.9,4.1-2.2,5.7-3.8c1.6-1.6,2.9-3.7,3.5-5.9l0.1,0c-0.8,4-2.3,7.8-4.4,11.2l-0.1-0.1
						c3-1.2,6-2.3,8.8-3.8c2.9-1.4,5.6-3.1,8-5.2l0.2-0.2l0,0.3c-0.5,3.2-2.2,6.2-4.7,8.3l-0.1-0.2c4.9-0.9,9.7-2.3,14.1-4.6
						c2.2-1.2,4.2-2.7,5.9-4.5c1.7-1.8,2.9-4,3.6-6.4l0.1-0.4l0.1,0.4c0.4,1.7,0.3,3.5-0.3,5.2l-0.2-0.1c2.9-1.9,5.5-4.3,7.4-7.2
						l0.1-0.2l0.1,0.2c1.1,1.6,1.8,3.5,2.7,5.2c0.4,0.9,0.9,1.7,1.6,2.4c0.6,0.7,1.4,1.3,2.3,1.6l0.1,0l0,0.1
						c-0.4,2.5,0.2,5.1,1.6,7.2c1.3,2.1,3.3,3.8,5.7,4.7l0.1,0l0,0.1c-0.2,3.9-1.1,7.8-2.7,11.4l-0.2-0.2c1.9-0.9,3.6-2.5,4.5-4.4
						l0.3-0.6l0,0.7c0,1.8-0.5,3.7-1.4,5.3l-0.2-0.2c1.9-1.4,3.6-3.1,4.9-5l0.2-0.3l0.1,0.4c0.2,1.3,0.2,2.6-0.1,3.9
						c-0.3,1.3-0.8,2.5-1.3,3.6c-1.1,2.3-2.5,4.5-3.6,6.8c-0.5,1.2-1,2.4-1.1,3.6c-0.1,1.2,0,2.5,0,3.8c0,1.3,0,2.6-0.3,3.9
						c-0.3,1.3-0.8,2.5-1.5,3.6l-0.2-0.3c0.6-0.1,1.2-0.6,1.7-1c0.5-0.5,0.9-1.1,1-1.7c0.2-1.4,0.4-2.8,0.7-4.2
						c0.3-1.4,0.7-2.7,1.2-4.1c0.3-0.7,0.5-1.3,0.9-1.9c0.3-0.6,0.8-1.2,0.9-1.8l0.2-0.9l0.2,0.9c0.3,1.4,0.4,2.8,0.6,4.2l0.5,4.2
						c0.2,1.4,0.3,2.8,0.5,4.2c0.2,1.4,0.4,2.8,0.9,4l-0.4,0.1c-0.1-1.1,0-2.1,0.3-3.2c0.3-1,0.7-2,1.1-3c0.9-1.9,1.8-3.8,2.2-5.8
						l0.1-0.6l0.3,0.5c0.8,1.5,1.5,3.1,2,4.7l-0.4,0c0.6-3.7,1.8-7.3,3.6-10.6l0.1-0.2l0.2,0.2c1.6,1.3,3.4,2.3,5.4,2.8l-0.3,0.2
						l0-11.7l0-0.2l0.2,0c3,0.2,6,0,8.9-0.6l-0.1,0.4c-1.9-1.1-3.6-2.8-4.7-4.7c-1.1-1.9-1.8-4.2-1.7-6.4l0-0.2l0.2,0
						c4.1-0.9,8-3.2,10.5-6.5l0.2,0.4c-3.4,0.3-6.9-0.4-10.1-1.9c-3.1-1.4-5.9-3.6-7.9-6.5l-0.3-0.4l0.5,0.1
						c1.5,0.2,3.2-0.4,4.3-1.5l0.1,0.4c-2.3-0.7-4.4-2-6.1-3.7c-1.7-1.7-3-3.8-3.6-6.2l-0.1-0.4l0.4,0.1l4.3,1.4l-0.2,0.4
						c-3.4-2.5-6.1-6-7.6-10l-0.2-0.5l0.5,0.3c2.4,1.3,5.2,1.9,8,1.7l-0.1,0.4c-2.5-1.5-4.4-3.7-6-6c-1.6-2.3-3-4.8-4.6-7.1
						c-1.6-2.3-3.5-4.4-5.9-5.8c-2.4-1.4-5.2-2-8-2l-0.5,0l0.4-0.3c0.7-0.6,1.6-1,2.5-1.1c0.9-0.1,1.9,0.1,2.7,0.4l-0.2,0.3
						c-2.3-3.2-5.5-5.7-9.2-7c-3.7-1.3-7.7-1.6-11.6-1.5c-3.9,0.1-7.9,0.6-11.8,1.1c-3.9,0.5-7.9,0.9-11.9,0.7l-0.2,0l0.1-0.2
						c0.7-2.2,2.3-4,4.3-5.2c1.9-1.2,4.2-1.8,6.5-1.7l-0.1,0.3c-1.3-0.6-2.8-0.9-4.2-0.8c-1.4,0.1-2.9,0.4-4.2,1
						c-2.7,1.2-5,3.1-6.6,5.6l-0.2,0.3L265,58c-0.8-3.2-3.1-5.9-6-7.4l0.2-0.2c1.8,2.6,2.4,6,1.5,9.1l-0.1,0.4l-0.1-0.4
						c-0.5-1.8-2.2-3-4-3.3l0.1-0.2l2.5,5l0.3,0.6l-0.5-0.4c-1.3-1.1-2.7-2-4.3-2.6c-1.6-0.6-3.3-0.8-4.9-0.5
						c-3.4,0.5-6.3,2.3-9.2,4.1c-2.8,1.8-5.6,3.8-8.7,5.3c-1.5,0.7-3.1,1.4-4.8,1.6c-1.7,0.3-3.4,0.2-5.1-0.2l0.1-0.1
						c0.8,1.5,2,2.8,3.4,3.7l0.2,0.1l-0.2,0.1c-2.5,0.8-4.6,2.3-6.3,4.2c-1.7,1.9-3,4.2-4.3,6.4c-1.3,2.2-2.6,4.5-4.2,6.5
						c-1.6,2-3.7,3.7-6.2,4.5l0-0.1c1.8,1.2,4.1,1.7,6.2,1.3l0.1,0l-0.1,0.1c-1.8,3.8-3.2,7.8-5.1,11.5c-1,1.9-2.1,3.7-3.5,5.3
						c-1.4,1.6-3.1,2.9-5,3.9l0-0.1c1.9,1.2,4.4,1.2,6.4,0.1l0.1,0l0,0.1c0.7,4.2-0.1,8.6-2.1,12.3l-0.1-0.1l3.5-1.5l0.1,0l0,0.1
						c0.6,4.6-0.2,9.5-2.3,13.6l0-0.1c1.8-0.1,3.6-1.1,4.4-2.7l0-0.1l0,0.1c0.5,1.3,1.1,2.6,1.8,3.9c0.7,1.3,1.4,2.5,1.9,3.9
						c0.5,1.4,0.6,2.8,0.4,4.2c-0.2,1.4-0.7,2.8-1.3,4.1l0,0c2-0.5,3.9-1.8,4.8-3.7l0-0.1l0,0.1c0.4,3.8,2.9,7.2,6.1,9l0,0
						c-0.7-2.1-0.9-4.4-0.5-6.5l0,0l0,0c0.2,0.4,0.4,0.9,0.6,1.3c0.2,0.4,0.4,0.9,0.8,1.1c0.4,0.2,0.9,0.4,1.3,0.6
						c0.4,0.2,0.8,0.5,1.2,0.7l0,0c-0.2-0.9-0.3-1.9-0.4-2.9c0-1,0.1-1.9,0.2-2.9c0.1-1,0.3-1.9,0.3-2.9
						C224.2,146.8,224.1,145.9,223.9,144.9z"/>
				</g>
			</g>
			<g>
				<path class="st2" d="M222.8,92.3c-1.9,2.7-4.5,7.1-8.3,7c2.4,1.3,6,2.4,8.2,0.3"/>
				<path class="st3" d="M222.8,92.3c-0.9,1.6-1.9,3.3-3.2,4.7c-0.6,0.7-1.4,1.4-2.2,1.9c-0.9,0.5-1.9,0.8-2.9,0.8l0.2-0.7
					c1.2,0.7,2.6,1.2,4,1.5c0.7,0.1,1.4,0.1,2.1,0c0.7-0.1,1.4-0.4,1.9-0.9c-0.5,0.6-1.1,1-1.9,1.2c-0.7,0.2-1.5,0.3-2.2,0.2
					c-1.5-0.1-2.9-0.7-4.3-1.4l-1.3-0.7l1.5,0c1.8,0,3.4-1.1,4.6-2.4C220.5,95.3,221.6,93.8,222.8,92.3z"/>
			</g>
			<g>
				<path class="st2" d="M253.3,75.4c-0.3,2.7-0.8,5.7-3,7.6c5.1-1.1,10.4-3.9,12.7-8.7c0.3,1.7,0.2,3.5-0.2,5.2
					c2.9-1.8,6.6-4.4,5.9-8.1"/>
				<path class="st3" d="M253.3,75.4c-0.1,1.4-0.3,2.8-0.7,4.1c-0.4,1.4-1.1,2.7-2.2,3.6l-0.2-0.4c2.5-0.6,5-1.6,7.2-3
					c2.2-1.4,4.1-3.3,5.2-5.6l0.5-1l0.2,1.1c0.3,1.8,0.2,3.6-0.3,5.3l-0.4-0.3c1.5-0.9,3-1.9,4.2-3.1c0.6-0.6,1.1-1.3,1.5-2.2
					c0.3-0.8,0.5-1.7,0.4-2.6c0.2,0.9,0.2,1.8-0.2,2.7c-0.3,0.9-0.8,1.6-1.4,2.3c-1.2,1.4-2.7,2.4-4.2,3.4l-0.6,0.4l0.2-0.7
					c0.4-1.6,0.5-3.4,0.2-5l0.7,0.1c-1.2,2.5-3.2,4.5-5.5,5.9c-2.3,1.4-4.8,2.4-7.5,2.9l-1,0.2l0.8-0.6c1-0.9,1.7-2.1,2.2-3.4
					C252.8,78.2,253,76.8,253.3,75.4z"/>
			</g>
			<g>
				<path class="st2" d="M304.1,71.2c0.8,2.5,3.4,3.8,5.7,4.8c-1.6,1.3-4.4,1.1-6.3,0.5"/>
				<path class="st3" d="M304.1,71.2c0.3,0.6,0.6,1.1,1.1,1.6c0.4,0.5,0.9,0.8,1.4,1.2c1,0.7,2.2,1.2,3.4,1.7l0.6,0.3l-0.5,0.4
					c-1,0.8-2.2,1-3.3,0.9c-1.1,0-2.2-0.3-3.2-0.7c1.1,0.2,2.2,0.2,3.2,0.1c1-0.1,2.1-0.3,2.8-1l0.1,0.6c-1.2-0.5-2.4-1.1-3.4-1.9
					c-0.5-0.4-1-0.9-1.4-1.4C304.5,72.4,304.2,71.8,304.1,71.2z"/>
			</g>
			<g>
				<path class="st2" d="M301.1,74.2c1.1,1.3,2.5,2.4,4.1,3.2c-2.3,0.8-5.3,1.2-7.3-0.5"/>
				<path class="st3" d="M301.1,74.2c1.3,1.2,2.7,2.2,4.2,2.8l0.8,0.4l-0.8,0.3c-1.2,0.5-2.5,0.8-3.9,0.7c-1.3,0-2.7-0.5-3.6-1.5
					c1.1,0.7,2.4,0.9,3.6,0.9c1.2-0.1,2.5-0.3,3.6-0.7l0,0.7C303.4,76.9,302,75.7,301.1,74.2z"/>
			</g>
			<g>
				<path class="st2" d="M317,120.3c3.5,1.2,7.3,1.7,11.1,1.4c-4.6-1.3-5.7-6.4-5.8-10.6"/>
				<path class="st3" d="M317,120.3c1.8,0.5,3.6,0.8,5.5,1c1.8,0.2,3.7,0.2,5.5,0l-0.1,0.7c-1.1-0.3-2.1-0.9-2.9-1.7
					c-0.8-0.8-1.4-1.8-1.8-2.8c-0.8-2.1-1-4.3-0.9-6.4c0.2,2.1,0.6,4.3,1.5,6.2c0.4,1,1,1.8,1.8,2.5c0.7,0.7,1.7,1.2,2.6,1.5
					l1.9,0.6l-2,0.2c-1.9,0.2-3.8,0.1-5.7-0.2C320.5,121.6,318.7,121.1,317,120.3z"/>
			</g>
			<g>
				<path class="st2" d="M341.6,120.4c-3.8,0.5-8-1.4-9.9-4.8"/>
				<path class="st3" d="M341.6,120.4c-1.9,0.6-4,0.3-5.8-0.6c-1.8-0.9-3.4-2.3-4-4.2c1.2,1.6,2.7,2.7,4.4,3.5
					C337.8,119.9,339.7,120.3,341.6,120.4z"/>
			</g>
			<g>
				<path class="st2" d="M339.2,131.8c-2.2-0.1-4.3-1.7-4.8-3.7"/>
				<path class="st3" d="M339.2,131.8c-1.1,0.2-2.3-0.1-3.2-0.8c-0.9-0.7-1.6-1.8-1.6-2.9c0.5,1,1.2,1.7,2,2.3
					C337.2,131,338.1,131.5,339.2,131.8z"/>
			</g>
			<g>
				<path class="st2" d="M334.5,105.2c-2,0.3-4.1-0.6-5.2-2.1"/>
				<path class="st3" d="M334.5,105.2c-0.9,0.4-2.1,0.4-3,0c-1-0.4-1.8-1.1-2.2-2.1c0.8,0.6,1.6,1.1,2.5,1.4
					C332.6,104.8,333.5,105,334.5,105.2z"/>
			</g>
			<g>
				<path class="st2" d="M302.8,99.5c2.6-2.6,5-6.3,3.8-10.1"/>
				<path class="st3" d="M302.8,99.5c1.1-1.5,2.2-3,3-4.7c0.8-1.7,1.1-3.5,0.8-5.4c0.4,0.9,0.6,1.8,0.6,2.8c0,1-0.3,2-0.7,2.8
					C305.7,96.9,304.4,98.4,302.8,99.5z"/>
			</g>
			<g>
				<path class="st2" d="M311.8,100.3c-1.4,4.4-0.8,9.5,3.7,11.8c-2.3-1-4.3-2.5-5.8-4.4"/>
				<path class="st3" d="M311.8,100.3c-0.2,1.1-0.4,2.2-0.4,3.3c0,1.1,0.1,2.2,0.4,3.3c0.3,1,0.8,2,1.4,2.9c0.7,0.8,1.5,1.5,2.5,2
					l-0.3,0.6c-1.1-0.5-2.2-1.2-3.2-2c-1-0.8-1.8-1.7-2.5-2.7c0.9,0.9,1.8,1.7,2.8,2.4c1,0.7,2.1,1.2,3.2,1.7l-0.3,0.6
					c-1.1-0.5-2-1.2-2.8-2.2c-0.7-0.9-1.2-2-1.5-3.2c-0.3-1.1-0.3-2.3-0.2-3.4C311,102.5,311.3,101.4,311.8,100.3z"/>
			</g>
			<g>
				<path class="st2" d="M299,88.2c0.7,4.5-0.3,9.2-2.8,13.2"/>
				<path class="st3" d="M299,88.2c0.7,2.2,0.7,4.6,0.2,6.9c-0.5,2.3-1.5,4.5-2.9,6.3c1-2.1,1.8-4.2,2.2-6.4
					C298.9,92.7,299.1,90.5,299,88.2z"/>
			</g>
			<g>
				<path class="st2" d="M288.1,90.6c0.1,6.7-4.3,13.8-10.2,17.1"/>
				<path class="st3" d="M288.1,90.6c0.2,1.7,0,3.5-0.5,5.2c-0.4,1.7-1.2,3.3-2.1,4.9c-0.9,1.5-2,2.9-3.3,4.1
					c-1.3,1.2-2.7,2.2-4.3,3c1.4-1,2.7-2.1,3.9-3.4c1.2-1.3,2.2-2.6,3.1-4.1c0.9-1.5,1.6-3,2.2-4.6C287.6,94,288,92.4,288.1,90.6z"
					/>
			</g>
			<g>
				<path class="st2" d="M240.6,107.7c2.1-1.9,3.1-4.7,2.7-7.3"/>
				<path class="st3" d="M240.6,107.7c0.8-1.1,1.4-2.2,1.9-3.5c0.5-1.2,0.7-2.5,0.8-3.8c0.5,1.3,0.4,2.8-0.1,4.1
					C242.6,105.8,241.8,107,240.6,107.7z"/>
			</g>
			<g>
				<path class="st2" d="M224,114c8.6-2.1,15.7-13.9,12.6-22.2"/>
				<path class="st3" d="M224,114c2.2-0.7,4.2-2,6-3.5c1.7-1.5,3.2-3.3,4.4-5.3c1.2-2,2.1-4.1,2.5-6.4c0.5-2.3,0.5-4.6-0.2-6.9
					c1,2.2,1.1,4.6,0.8,7c-0.4,2.4-1.3,4.6-2.4,6.7c-1.2,2-2.8,3.9-4.6,5.4C228.5,112.4,226.4,113.5,224,114z"/>
			</g>
			<g>
				<path class="st2" d="M228.5,123c-1.4,0.7-2.8,1.5-4.3,2.2c1.4-2.4,0.4-5.2-0.5-7.5"/>
				<path class="st3" d="M228.5,123c-1.3,0.9-2.7,1.7-4.1,2.5l-1.1,0.6l0.6-1.1c0.6-1.1,0.7-2.3,0.6-3.6c-0.1-1.3-0.5-2.5-0.8-3.8
					c0.6,1.1,1.2,2.4,1.5,3.7c0.1,0.7,0.2,1.4,0.1,2.1c-0.1,0.7-0.3,1.4-0.7,2l-0.5-0.5C225.5,124.2,226.9,123.6,228.5,123z"/>
			</g>
			<g>
				<path class="st2" d="M205,126.8c0.6-0.7,1.5-1.1,2.3-1.7S208.8,123.8,205,126.8z"/>
				<g>
					<path class="st3" d="M205,126.8c0.3-0.5,0.8-1,1.3-1.4c0.2-0.2,0.5-0.4,0.7-0.5l0.3-0.3l0.2-0.1l0.1-0.1l0,0l0,0l0,0l0,0
						c0,0-0.1,0.1-0.1,0.2c0,0,0,0,0,0.2c0,0.1,0.1,0.2,0.2,0.2c0.1,0.1,0.2,0.1,0.3,0.1l0.1,0l0,0l0,0l0,0l-0.1,0.1l-0.2,0.1
						l-0.4,0.3c-0.3,0.2-0.5,0.3-0.8,0.5C206.1,126.2,205.6,126.5,205,126.8z M205,126.8c0.4-0.5,0.8-0.9,1.3-1.3
						c0.2-0.2,0.5-0.4,0.7-0.6l0.4-0.3l0.2-0.1l0.1-0.1l0.1,0l0,0l0.1,0l0,0c0,0-0.1,0,0.1,0c0.1,0,0.2,0,0.3,0.1
						c0.1,0.1,0.1,0.2,0.2,0.2c0,0.1,0,0.1,0,0.2c0,0.1,0,0.1-0.1,0.2l0,0l0,0l0,0l-0.1,0L208,125l-0.2,0.1
						c-0.1,0.1-0.3,0.2-0.4,0.3c-0.3,0.2-0.5,0.3-0.8,0.5C206,126.2,205.5,126.4,205,126.8z"/>
				</g>
			</g>
			<g>
				<path class="st2" d="M202.9,116.4c1.6-0.7,4.5-0.6,4.9-2.6"/>
				<path class="st3" d="M202.9,116.4c0.8-0.6,1.8-0.8,2.7-1.1c0.9-0.3,1.7-0.6,2.2-1.5c0.1,0.5-0.2,1.1-0.6,1.4
					c-0.4,0.4-0.9,0.6-1.4,0.8C204.9,116.3,203.9,116.3,202.9,116.4z"/>
			</g>
		</g>
	</g>
</g>
</svg>
