<?xml version="1.0" encoding="utf-8"?>
<!-- Generator: Adobe Illustrator 24.2.3, SVG Export Plug-In . SVG Version: 6.00 Build 0)  -->
<svg version="1.1" id="coiffure_x5F_9" xmlns="http://www.w3.org/2000/svg" xmlns:xlink="http://www.w3.org/1999/xlink" x="0px"
	 y="0px" viewBox="0 0 553 574" style="enable-background:new 0 0 553 574;" xml:space="preserve">
<style type="text/css">
	.st0{fill:#BF9660;}
	.st1{fill:#B58B5A;}
	.st2{fill:#D1A868;}
	.st3{fill:#AD8358;}
</style>
<g>
	<g>
		<g>
			<g>
				<path class="st0" d="M262.2,122.3c5.1,8.2-20.8-2.5-27.9,4.2c-0.8,0.4-1.6-0.6-1.1-1.3C239.6,118.3,254.9,116.7,262.2,122.3z"/>
				<path class="st1" d="M262.2,122.3c0.3,0.6,0.7,1.2,0.7,1.8c0,0.3-0.2,0.7-0.5,0.9c-0.3,0.2-0.6,0.3-0.9,0.4
					c-1.3,0.3-2.6,0.2-4,0.1c-2.6-0.2-5.3-0.5-7.9-0.8c-2.6-0.3-5.3-0.5-7.9-0.3c-1.3,0.1-2.6,0.2-3.9,0.5c-1.2,0.3-2.5,0.8-3.4,1.7
					l0,0l0,0c-0.4,0.2-1,0.1-1.4-0.3c-0.3-0.4-0.4-1,0-1.4l0,0l0,0c1.8-1.9,4.2-3.3,6.6-4.3c2.4-1,5-1.5,7.6-1.8
					c2.6-0.2,5.2-0.1,7.8,0.4C257.6,119.8,260.1,120.7,262.2,122.3z M262.2,122.3c-2.1-1.5-4.6-2.4-7.2-2.9
					c-2.6-0.5-5.2-0.5-7.8-0.2c-2.6,0.3-5.1,0.9-7.5,1.9c-2.4,1-4.6,2.3-6.4,4.2l0,0c-0.2,0.2-0.2,0.6,0,0.8
					c0.2,0.2,0.5,0.3,0.8,0.2l-0.1,0c1-0.9,2.3-1.5,3.6-1.8c1.3-0.3,2.6-0.4,4-0.5c2.7-0.1,5.3,0.2,7.9,0.5c2.6,0.3,5.2,0.7,7.9,1
					c1.3,0.1,2.6,0.2,3.9-0.1c0.6-0.1,1.3-0.5,1.4-1.2C262.9,123.4,262.5,122.8,262.2,122.3z"/>
			</g>
			<g>
				<path class="st0" d="M233.9,126.6c-3.5-4.3,10.5-7.5,13.9-7.3c5.4-0.5,10.9-0.7,14.4,2.9c1.6,1.6-0.1,4.5-2.2,3.9
					C252.2,123.9,241.3,122.8,233.9,126.6z M252.7,119.2c-6.5,0.3-15,0.3-19.4,6c-0.5,0.7,0.2,1.5,1,1.2c6.6-6.5,32.8,3.9,27.8-4v0
					C259.8,119.9,256.3,119.2,252.7,119.2z"/>
				<g>
					<path class="st1" d="M233.9,126.6c-0.5-0.6-0.8-1.4-0.4-2.1c0.3-0.7,0.9-1.2,1.5-1.7c1.2-0.9,2.6-1.5,4-2
						c1.4-0.5,2.9-0.9,4.3-1.2c1.5-0.3,2.9-0.6,4.5-0.6l0,0c2-0.2,4-0.3,6-0.3c2,0.1,4,0.4,5.9,1.3c0.9,0.4,1.8,1,2.5,1.7
						c0.4,0.3,0.8,0.8,0.9,1.4c0.1,0.5,0,1.1-0.2,1.6c-0.4,1-1.5,1.7-2.6,1.5c-1-0.2-1.9-0.5-2.9-0.7c-3.9-0.9-7.8-1.4-11.8-1.4
						C241.6,124.3,237.5,124.8,233.9,126.6z M233.9,126.6c3.5-1.9,7.6-2.6,11.6-2.7c4-0.1,8,0.4,11.9,1.3c1,0.2,2,0.5,2.9,0.7
						c0.9,0.2,1.8-0.4,2.1-1.3c0.4-0.8,0.2-1.8-0.6-2.4c-0.7-0.7-1.5-1.2-2.4-1.7c-1.8-0.9-3.7-1.2-5.7-1.3c-2-0.1-4,0.1-5.9,0.2
						l0,0l0,0c-1.4,0-2.9,0.2-4.4,0.5c-1.5,0.3-2.9,0.7-4.3,1.1c-1.4,0.5-2.8,1-4,1.8c-0.6,0.4-1.2,0.9-1.5,1.6
						C233.2,125.2,233.5,126,233.9,126.6z"/>
					<path class="st1" d="M252.7,119.2c-3.8,0.2-7.7,0.3-11.4,1.3c-1.8,0.5-3.7,1.2-5.2,2.3c-0.8,0.6-1.5,1.2-2.1,1.9l-0.5,0.5
						c-0.1,0.2-0.2,0.4-0.1,0.5c0.1,0.4,0.5,0.6,0.9,0.4l-0.1,0c1-1,2.3-1.5,3.6-1.8c1.3-0.3,2.6-0.5,3.9-0.5
						c2.6-0.1,5.3,0.2,7.9,0.4c2.6,0.3,5.2,0.7,7.8,0.9c1.3,0.1,2.6,0.2,3.9,0c0.6-0.1,1.3-0.4,1.4-1c0.1-0.6-0.2-1.2-0.6-1.8l0.1,0
						v0v0.1l-0.1-0.1c-1.2-1.2-2.7-2.1-4.4-2.5C256.1,119.4,254.4,119.2,252.7,119.2z M252.7,119.2c1.7,0,3.4,0.1,5.1,0.6
						c1.7,0.4,3.2,1.3,4.4,2.5l-0.1,0v0v-0.2l0.1,0.2c0.3,0.6,0.7,1.2,0.6,1.9c0,0.4-0.3,0.7-0.6,0.8c-0.3,0.2-0.6,0.3-0.9,0.4
						c-1.3,0.3-2.6,0.2-4,0.1c-2.6-0.2-5.2-0.5-7.8-0.8c-2.6-0.3-5.2-0.5-7.8-0.4c-1.3,0-2.6,0.2-3.9,0.5c-1.2,0.3-2.5,0.8-3.4,1.7
						l0,0l0,0c-0.3,0.1-0.6,0.1-0.9,0c-0.3-0.1-0.5-0.4-0.5-0.7c-0.1-0.3,0-0.6,0.2-0.8l0.5-0.6c0.6-0.7,1.4-1.4,2.2-1.9
						c1.6-1.1,3.5-1.8,5.3-2.2C245,119.5,248.8,119.4,252.7,119.2z"/>
				</g>
			</g>
		</g>
		<g>
			<g>
				<path class="st0" d="M284.4,120.5c-5.9,7.6,21.1-0.1,27.2,7.2c0.8,0.5,1.7-0.4,1.2-1.2C307.2,119,292.3,115.8,284.4,120.5z"/>
				<path class="st1" d="M284.4,120.5c-0.4,0.5-0.8,1.1-0.8,1.8c0,0.7,0.6,1.2,1.2,1.4c1.3,0.4,2.6,0.5,3.9,0.5
					c2.6,0.1,5.3-0.1,7.9-0.1c2.6,0,5.3,0,7.9,0.4c1.3,0.2,2.6,0.5,3.9,0.9c1.3,0.5,2.5,1.1,3.4,2.2l-0.1,0c0.2,0.2,0.6,0.1,0.8-0.1
					c0.2-0.2,0.3-0.5,0.1-0.8l0,0c-1.5-2-3.6-3.6-5.9-4.9c-2.3-1.2-4.7-2.2-7.2-2.7c-2.5-0.6-5.1-0.8-7.7-0.7
					C289.2,118.6,286.6,119.2,284.4,120.5z M284.4,120.5c2.2-1.3,4.8-2,7.4-2.2c2.6-0.2,5.2,0,7.8,0.5c2.6,0.5,5.1,1.4,7.4,2.6
					c2.3,1.2,4.5,2.8,6.1,5l0,0l0,0c0.3,0.4,0.2,1-0.2,1.4c-0.4,0.4-1,0.4-1.4,0.1l0,0l0,0c-0.8-1-2-1.6-3.2-2.1
					c-1.2-0.5-2.5-0.7-3.8-0.9c-2.6-0.4-5.2-0.5-7.9-0.5c-2.6,0-5.3,0-7.9-0.1c-1.3-0.1-2.7-0.1-3.9-0.6c-0.3-0.1-0.6-0.3-0.9-0.5
					c-0.2-0.2-0.4-0.6-0.4-0.9C283.6,121.6,284,121.1,284.4,120.5z"/>
			</g>
			<g>
				<path class="st0" d="M312.1,128c-7.4-7.6-33.7,0.3-27.8-7.5l0,0.1l0-0.1C288.8,115.3,315.2,120.4,312.1,128z M295.9,123.7
					c5.9-1.7,26.3,9.9,12.2-1.5C289,112,270.1,126.8,295.9,123.7z"/>
				<g>
					<path class="st1" d="M312.1,128c-1-1-2.2-1.6-3.4-2.1c-1.3-0.5-2.6-0.7-3.9-0.9c-2.7-0.4-5.4-0.5-8-0.5c-2.7,0-5.4,0.1-8.1,0
						c-1.4-0.1-2.7-0.1-4.1-0.6c-0.3-0.1-0.7-0.3-0.9-0.6c-0.3-0.3-0.4-0.7-0.4-1.1c0.1-0.8,0.5-1.4,0.9-1.9l0.2-0.3l0.2,0.3l0,0.1
						l-0.4,0.3l0-0.1l-0.1-0.2l0.1-0.2c1-1.1,2.4-1.5,3.8-1.8c1.4-0.3,2.7-0.4,4.1-0.4c2.7,0,5.5,0.3,8.2,0.9
						c2.7,0.6,5.3,1.4,7.8,2.7c1.2,0.6,2.4,1.4,3.3,2.4c0.5,0.5,0.8,1.1,1,1.8C312.4,126.6,312.3,127.3,312.1,128z M312.1,128
						c0.2-0.7,0.3-1.3,0.1-2c-0.2-0.6-0.6-1.2-1-1.7c-0.9-1-2.1-1.7-3.3-2.3c-2.4-1.2-5.1-2-7.7-2.5c-2.7-0.5-5.4-0.9-8.1-0.8
						c-1.4,0-2.7,0.1-4,0.4c-1.3,0.3-2.6,0.7-3.5,1.7l0-0.3l0,0.1l-0.4,0.3l0-0.1l0.4,0c-0.4,0.5-0.8,1.1-0.8,1.7
						c-0.1,0.6,0.4,1,1,1.2c1.2,0.4,2.6,0.5,3.9,0.6c2.7,0.1,5.4,0,8.1,0c2.7,0,5.4,0.2,8.1,0.6c1.3,0.2,2.7,0.6,3.9,1.1
						C310,126.3,311.2,127,312.1,128z"/>
					<path class="st1" d="M295.9,123.7c1-0.3,2-0.2,3.1-0.1c1,0.1,2,0.4,3,0.6c2,0.5,4,1.1,5.9,1.7c1,0.3,2,0.6,2.9,0.9
						c0.5,0.1,1,0.2,1.5,0.3c0.2,0,0.5,0,0.5-0.1c0-0.2-0.2-0.4-0.3-0.6c-1.3-1.5-3-2.7-4.6-4l0,0c-2.9-1.5-6.1-2.6-9.3-3.2
						c-3.2-0.6-6.6-0.6-9.8,0c-1.6,0.3-3.2,0.8-4.6,1.8c-0.3,0.2-0.6,0.5-0.8,0.9c-0.2,0.4,0,0.8,0.3,1c0.6,0.5,1.4,0.7,2.2,0.9
						c1.6,0.3,3.3,0.3,5,0.3C292.6,124,294.3,123.9,295.9,123.7z M295.9,123.7c-3.3,0.4-6.6,0.7-9.9,0.2c-0.8-0.2-1.7-0.3-2.3-0.9
						c-0.3-0.3-0.5-0.8-0.3-1.2c0.2-0.4,0.5-0.7,0.8-1c1.4-1,3-1.5,4.6-1.9c3.3-0.7,6.7-0.7,10-0.2c3.3,0.5,6.5,1.7,9.4,3.3l0,0l0,0
						c0.8,0.6,1.6,1.3,2.4,2c0.8,0.7,1.5,1.4,2.2,2.2c0.1,0.2,0.3,0.4,0.4,0.8c0,0.2-0.2,0.3-0.4,0.4c-0.1,0-0.3,0-0.4,0
						c-0.5,0-1-0.2-1.5-0.3c-1-0.3-2-0.6-2.9-0.9c-1.9-0.7-3.9-1.3-5.9-1.8c-1-0.3-2-0.5-3-0.6C298,123.5,296.9,123.4,295.9,123.7z"
						/>
				</g>
			</g>
		</g>
	</g>
	<g>
		<path class="st2" d="M223.6,146.2c-1.8-2.5-5-4.3-5.3-7.5c-0.6-14-1.6-28-3.8-41.6c2.4-5.2,5.2-9.4-1.6-12
			c-3.2-2.3-1.8-4.4,0.9-5.8c1.3-1.9-2.3-5-0.4-6.2c3.3-0.2,4.2-2.1,1.1-4.5c0.4-1.1,1.8-1.6,2.8-1.1c1.4-2.2-1-3.3-2.6-3.9
			c-1.4-2.3,2.1-3.3,3.9-2.6c0.7-0.8-0.3-2-1.3-2.5c-5.9-3.7,3.1-4.3,5.4-5.2c2.9-2.5-4.6-3.6,0.3-5.9c5.7-1.8-0.5-4.2,0.1-6.9
			c0.6-1.2,2.8-1.2,3-2.5c-0.6-1.8-0.1-4.2,2.1-4.5c4.8-0.6,1.3,6.6,5.5,4.7c5.6-0.4,0.1,6.3,3.9,7.6c5.1,0.1-0.4-4.1,4.8-4.7
			c1.8-1.5-0.7-3.4-2-4.3c-1.4-4.4,6.7-5.5,9.2-3.3c1.3-0.5,0.9-2.5,1.7-3.6c1.8-2.3,5.5-0.3,6.7,1.7c0.2,2.4-0.7,6.5,3.3,4.3
			c5.2-1.2-0.4,3.2,1.6,4.2c0.8,0.2,1.6-1,2.3-0.6c0.9,1.2-0.7,4,2.5,3.3c2.2-0.8,0.9-3.4,1.5-5c2.1-2.5,5.7,3.4,5.1-2.9
			c-1.7-3.6,2.4-2.6,4.2-3.2c1.2-0.9,0-2.8,0.3-4.2c2.1-4.3,10.1,0.5,8.7,4.5c-2.2,6.6,2.3,1.5,3.7,3.1c0.3,0.7-0.8,1.8-0.1,2.3
			c1.9-1.4,4.7,0.8,3.7,3c-1,1.3-2,3.4,0.1,4.3c3.4,1.1,2-3.6,4.1-4.3c1-0.1,1.7,1.5,2.8,1.3c1.9-0.7-0.1-3,0.2-4.3
			c2-4,7.9,0.7,6.3,4.1c-1.6,2.8,1.2,3.6,3.5,3c-0.4-1.9,2.5-2.3,2.7-0.4c0,0.7-0.7,2.1,0.4,2.4c1.7-1.2,4.6-0.8,4.6,1.7
			c-0.4,1.3,0,2.1,1.1,2.9c0.9,3.2,2.7,2.3,5,1c3.7-0.6,4.9,4.9,2.6,7.1c1.3-0.3,3.5,0.4,2.9,2c-0.5,0.9-2,0.9-2.2,1.8
			c-0.2,0.9,0.9,1.4,1.7,1.9c2.7,1.7,2.2,5.6,0.2,7.7c-4.7,4.1,4.9,5.3,0.2,10.6c-4.5,2.6,3.3,5.5,0.9,8.7c-3,1.6-1.4,2.5-0.9,5
			c-3.1,3.3,0.5,7.1-0.1,11.1c-0.3,11,0.4,22.4-1.6,33.2c-1.4,0.5-3.1,0.8-3.8,2.3c1.1-41.8-11.7-4.8-10.6-43.6
			c-27.2-4.5-55.1-1.8-82.4,2.1c-0.5,5.6,2.6,12.9-0.3,17.8C224.2,120.8,223,139.6,223.6,146.2z"/>
		<g>
			<path class="st3" d="M223.6,146.2c-1.3-1.7-3-3-4.2-4.8c-0.6-0.9-1.1-1.9-1.1-3l-0.1-3.2c-0.2-4.3-0.4-8.5-0.8-12.8
				c-0.6-8.5-1.5-17-2.9-25.4l0,0l0,0c0.5-1.1,1-2.2,1.5-3.3c0.5-1.1,0.9-2.3,1.1-3.5c0.2-1.2-0.2-2.5-1.1-3.3
				c-0.9-0.9-2-1.4-3.1-1.8l0,0l0,0c-0.5-0.4-1-0.8-1.4-1.4c-0.4-0.5-0.6-1.2-0.4-1.9c0.2-0.6,0.6-1.2,1.1-1.6
				c0.5-0.4,1-0.8,1.6-1.1l0,0c0.3-0.5,0.3-1,0.2-1.6c-0.1-0.5-0.3-1-0.6-1.6c-0.2-0.5-0.4-1-0.5-1.6c-0.1-0.5,0-1.2,0.6-1.5l0,0
				l0,0c0.6,0,1.2-0.1,1.7-0.4c0.5-0.2,1.1-0.6,1.2-1.2c0.1-0.6-0.2-1.1-0.5-1.6c-0.4-0.5-0.8-0.9-1.3-1.2l0,0l0,0
				c0.4-1.1,1.8-1.7,2.9-1.2l-0.1,0c0.2-0.4,0.4-0.8,0.4-1.3c0-0.4-0.3-0.9-0.6-1.2c-0.7-0.6-1.5-1-2.4-1.4l0,0l0,0
				c-0.3-0.4-0.5-1-0.3-1.5c0.2-0.5,0.7-0.8,1.2-1.1c1-0.4,2.1-0.5,3.1-0.1l-0.1,0c0.4-0.5,0.2-1.1-0.2-1.5
				c-0.2-0.2-0.4-0.4-0.6-0.6c-0.2-0.2-0.5-0.3-0.8-0.5c-0.5-0.3-1-0.7-1.4-1.2c-0.2-0.3-0.3-0.6-0.3-0.9c0-0.3,0.3-0.6,0.5-0.8
				c1-0.8,2.2-1,3.4-1.3c1.2-0.3,2.4-0.5,3.5-0.8l0,0c0.5-0.4,0.9-1,0.6-1.6c-0.3-0.5-0.8-0.9-1.3-1.4c-0.2-0.2-0.5-0.5-0.6-0.8
				c-0.2-0.3-0.2-0.7,0-1c0.4-0.6,1-0.9,1.6-1.2l0,0l0,0c0.7-0.3,1.4-0.5,1.9-1c0.2-0.1,0.2-0.3,0.3-0.4c0-0.2,0.1-0.3,0.1-0.5
				c0-0.3-0.2-0.7-0.4-1c-0.4-0.6-0.9-1.2-1.3-1.8c-0.4-0.6-0.8-1.3-0.7-2.2l0,0l0,0c0.2-0.3,0.4-0.6,0.7-0.8
				c0.3-0.2,0.6-0.3,0.9-0.5c0.6-0.3,1.2-0.6,1.3-1.2l0,0c-0.4-1.2-0.4-2.5,0.4-3.6c0.4-0.5,0.9-0.9,1.6-1c0.6-0.1,1.3-0.1,1.9,0.1
				c0.6,0.2,1,0.8,1.2,1.4c0.2,0.6,0.3,1.2,0.4,1.8c0.1,0.6,0.2,1.2,0.7,1.5c0.5,0.3,1.1,0,1.6-0.2l0,0l0,0c0.4,0,0.9,0,1.3,0.1
				c0.4,0.1,0.9,0.3,1.2,0.7c0.5,0.8,0.4,1.7,0.3,2.6c-0.1,0.8-0.2,1.7-0.2,2.5c0,0.4,0.2,0.8,0.4,1.1c0.2,0.3,0.6,0.5,1,0.7l0,0
				c0.6,0,1.4,0,1.9-0.4c0.5-0.4,0.4-1.1,0.4-1.7c0-0.3,0-0.7,0-1c0-0.2,0.1-0.3,0.2-0.5c0.1-0.1,0.2-0.3,0.4-0.4
				c0.6-0.5,1.3-0.5,2-0.7l-0.1,0c0.3-0.3,0.6-0.7,0.6-1.1c0-0.4-0.2-0.8-0.5-1.2c-0.6-0.7-1.3-1.3-2.1-1.8l0,0l0,0l-0.2-0.8
				c0-0.3,0-0.5,0-0.8c0.1-0.2,0.2-0.5,0.3-0.7c0.2-0.2,0.3-0.5,0.5-0.6c0.8-0.7,1.8-1.1,2.8-1.4c1-0.2,2.1-0.3,3.1-0.2
				c1,0.1,2.1,0.4,2.9,1.1l-0.2,0c0.6-0.2,0.8-0.9,1-1.5c0.2-0.7,0.2-1.4,0.6-2l0,0l0,0c0.4-0.6,1.1-1,1.8-1.1c0.7-0.1,1.4,0,2,0.3
				c1.3,0.5,2.4,1.4,3.2,2.5l0,0l0,0c0.1,1.3,0,2.6,0.2,3.7c0.1,0.6,0.5,1.1,1.1,1c0.6,0,1.1-0.3,1.7-0.6l0,0l0,0
				c0.6-0.1,1.1-0.3,1.8-0.2c0.2,0,0.3,0.1,0.5,0.2c0.2,0.1,0.3,0.3,0.3,0.5c0,0.4-0.1,0.6-0.2,0.9c-0.2,0.5-0.5,1-0.7,1.6
				c-0.2,0.5-0.3,1.1,0.2,1.3l0,0c0.3,0.1,0.7-0.1,1-0.3c0.2-0.1,0.4-0.2,0.6-0.3c0.2-0.1,0.5-0.1,0.7,0l0,0l0,0
				c0.3,0.4,0.3,0.9,0.3,1.3c0,0.4,0,0.9,0.1,1.2c0.1,0.4,0.3,0.7,0.7,0.7c0.4,0.1,0.8,0,1.2,0l0,0c0.4-0.2,0.8-0.4,1-0.8
				c0.2-0.4,0.3-0.8,0.3-1.3c0-0.9-0.2-1.8,0.2-2.8l0,0l0,0c0.2-0.3,0.5-0.5,0.9-0.6c0.4-0.1,0.7-0.1,1.1,0c0.7,0.1,1.3,0.4,1.9,0.6
				c0.3,0.1,0.6,0.1,0.8,0c0.2-0.1,0.3-0.5,0.3-0.8c0.1-0.6,0-1.3,0-2l0,0.1c-0.2-0.5-0.5-1.1-0.4-1.8c0-0.3,0.2-0.7,0.5-0.8
				c0.3-0.2,0.6-0.3,0.8-0.4c1.2-0.3,2.3-0.2,3.4-0.5l-0.1,0c0.5-0.4,0.5-1.1,0.4-1.8c-0.1-0.7-0.3-1.5-0.1-2.2l0,0l0,0
				c0.4-0.8,1.2-1.5,2.1-1.7c0.9-0.2,1.8-0.1,2.7,0.2c1.7,0.6,3.2,1.8,4,3.4c0.4,0.8,0.6,1.8,0.3,2.7c-0.3,0.8-0.5,1.7-0.6,2.5
				c0,0.4,0,0.8,0.3,0.8c0.3,0,0.8-0.1,1.2-0.3c0.4-0.1,0.8-0.3,1.3-0.4c0.4-0.1,1-0.1,1.4,0.4l0,0l0,0c0.1,0.2,0.1,0.5,0,0.7
				c0,0.2-0.1,0.4-0.2,0.6c-0.1,0.2-0.1,0.4-0.1,0.5c0,0.2,0,0.2,0.1,0.3l-0.2,0c0.5-0.3,1.1-0.5,1.6-0.5c0.6,0,1.1,0.3,1.6,0.6
				c0.4,0.3,0.8,0.8,1,1.4c0.2,0.6,0.1,1.2-0.1,1.7l0,0l0,0c-0.5,0.7-0.9,1.4-1,2.2c-0.1,0.4,0,0.8,0.2,1.1c0.2,0.3,0.5,0.5,0.9,0.7
				l0,0c0.5,0.1,1.1,0.2,1.4,0c0.4-0.2,0.6-0.8,0.8-1.3c0.2-0.5,0.3-1.1,0.5-1.6c0.2-0.5,0.6-1.1,1.3-1.3l0,0l0,0
				c0.3,0,0.6,0.1,0.9,0.2c0.2,0.1,0.5,0.3,0.7,0.5c0.4,0.3,0.8,0.6,1.2,0.5l0,0c0.3-0.1,0.6-0.3,0.6-0.6c0.1-0.3,0-0.7-0.1-1
				c-0.1-0.4-0.2-0.7-0.4-1.1c-0.1-0.4-0.2-0.8-0.2-1.3l0,0l0,0c0.4-0.7,0.9-1.3,1.7-1.5c0.8-0.3,1.6-0.1,2.3,0.2
				c1.4,0.6,2.5,1.8,2.9,3.3c0.2,0.7,0.2,1.6-0.1,2.3c-0.3,0.6-0.6,1.3-0.4,1.9c0.2,0.6,0.9,0.9,1.5,1c0.7,0.1,1.4,0,2-0.1l-0.2,0.3
				c-0.1-0.4,0-0.9,0.2-1.3c0.3-0.4,0.7-0.6,1.1-0.6c0.4-0.1,0.9,0,1.2,0.3c0.4,0.3,0.6,0.7,0.6,1.1l0,0l0,0c0,0.5-0.2,0.9-0.2,1.4
				c0,0.2,0,0.4,0.1,0.5c0.1,0.1,0.2,0.2,0.4,0.3l-0.2,0c0.9-0.6,2.1-0.8,3.1-0.5c0.5,0.1,1,0.4,1.4,0.9c0.3,0.5,0.5,1,0.5,1.6l0,0
				l0,0c-0.2,0.5-0.2,1,0,1.5c0.2,0.5,0.6,0.8,1,1.1l0.1,0l0,0.1c0.2,0.5,0.3,1,0.6,1.4c0.3,0.4,0.7,0.6,1.2,0.6
				c0.5,0,1-0.2,1.5-0.4c0.5-0.2,1-0.5,1.4-0.7l0,0l0,0c0.8-0.1,1.8,0,2.5,0.6c0.7,0.6,1.1,1.3,1.3,2.2c0.2,0.8,0.3,1.7,0.1,2.5
				c-0.2,0.8-0.5,1.6-1.2,2.3l-0.2-0.4c0.8-0.1,1.5,0,2.2,0.3c0.3,0.2,0.7,0.4,0.9,0.8c0.2,0.4,0.2,0.9,0,1.2l0,0l0,0
				c-0.4,0.6-1.1,0.8-1.5,1.1c-0.2,0.1-0.5,0.3-0.6,0.5c-0.1,0.2-0.1,0.4,0,0.7c0.2,0.4,0.8,0.7,1.3,1c0.5,0.3,1,0.7,1.4,1.3
				c0.7,1,0.9,2.4,0.7,3.6c-0.2,1.2-0.8,2.4-1.6,3.3l0,0l0,0c-0.7,0.6-1.4,1.5-1.2,2.4c0.2,0.9,1,1.7,1.6,2.5
				c0.6,0.8,1.3,1.8,1.2,2.9c-0.1,1.1-0.7,2-1.4,2.8l0,0l0,0c-0.7,0.4-1.4,1-1.3,1.8c0.1,0.8,0.6,1.5,1.1,2.1
				c0.5,0.7,1.1,1.3,1.4,2.1c0.2,0.4,0.3,0.9,0.3,1.3c0,0.5-0.2,0.9-0.5,1.3l0,0l0,0c-0.4,0.2-0.8,0.5-1.2,0.8
				c-0.4,0.3-0.6,0.7-0.5,1.2c0,0.4,0.3,0.9,0.4,1.4c0.2,0.5,0.3,0.9,0.4,1.4l0,0.1l-0.1,0.1c-0.6,0.7-1.1,1.5-1.2,2.5
				c-0.1,0.9,0.1,1.9,0.3,2.8c0.2,0.9,0.5,1.9,0.7,2.8c0.2,1,0.3,2,0.1,2.9l0,0c-0.1,5.5-0.1,11.1-0.2,16.6
				c-0.1,5.5-0.4,11.1-1.4,16.6l0,0.1l-0.1,0c-0.7,0.2-1.5,0.4-2.1,0.7c-0.7,0.3-1.3,0.8-1.6,1.4l-0.3,0.6l0-0.7c0.1-4,0.1-8-0.1-12
				c-0.2-2-0.4-4-0.8-5.9c-0.3-0.9-0.5-1.9-1.1-2.7c-0.5-0.8-1.2-1.5-2.2-1.9c-0.9-0.4-1.9-0.5-2.8-1c-0.9-0.5-1.5-1.4-2-2.3
				c-0.8-1.9-1.1-3.9-1.3-5.9c-0.4-4-0.4-8-0.3-12l0.1,0.1c-13.6-2.3-27.5-2.7-41.2-2.1c-13.8,0.6-27.5,2.2-41.2,4.1l0,0
				c-0.2,3,0.4,6,0.7,9c0.2,1.5,0.3,3,0.2,4.5c-0.1,1.5-0.4,3-1.2,4.3l0,0l0,0c-1.2,0.1-2.3,0.7-3.2,1.6c-0.9,0.9-1.5,1.9-2.1,3
				c-1.1,2.2-1.7,4.6-2.2,7c-0.5,2.4-0.8,4.9-0.9,7.3C223.5,141.3,223.4,143.8,223.6,146.2z M223.6,146.2c-0.2-2.4-0.2-4.9,0-7.4
				c0.2-2.5,0.4-4.9,0.9-7.3c0.5-2.4,1.1-4.8,2.2-7c0.5-1.1,1.2-2.1,2.1-3c0.9-0.9,2-1.5,3.3-1.6l0,0c0.8-1.3,1.1-2.8,1.2-4.3
				c0.1-1.5,0-3-0.2-4.5c-0.3-3-1-6-0.7-9l0,0l0,0c13.7-1.9,27.4-3.6,41.2-4.2c13.8-0.6,27.7-0.2,41.3,2.1l0.1,0l0,0.1
				c-0.1,4-0.1,8,0.3,12c0.2,2,0.5,4,1.3,5.8c0.4,0.9,1,1.7,1.9,2.2c0.8,0.5,1.9,0.6,2.8,1c1,0.3,1.8,1.1,2.3,2
				c0.5,0.9,0.8,1.9,1.1,2.8c0.5,2,0.7,4,0.9,5.9c0.3,4,0.3,8,0.2,12l-0.3-0.1c0.3-0.7,1-1.3,1.7-1.6c0.7-0.3,1.5-0.5,2.2-0.8
				l-0.1,0.1c1-5.4,1.3-11,1.4-16.5c0.1-5.5,0-11.1,0.1-16.6l0,0l0,0c0.3-1.9-0.4-3.7-0.8-5.6c-0.2-0.9-0.4-1.9-0.3-2.9
				c0.1-1,0.6-1.9,1.3-2.7l0,0.2c-0.1-0.5-0.3-0.9-0.4-1.4c-0.2-0.5-0.4-0.9-0.5-1.5c-0.1-0.6,0.2-1.1,0.6-1.5
				c0.4-0.4,0.8-0.6,1.3-0.9l-0.1,0.1c0.2-0.3,0.4-0.7,0.4-1.1c0-0.4-0.1-0.8-0.2-1.1c-0.3-0.7-0.9-1.4-1.4-2.1
				c-0.5-0.7-1.1-1.4-1.2-2.3c0-0.5,0.2-1,0.5-1.3c0.3-0.3,0.7-0.6,1-0.8l0,0c0.6-0.7,1.2-1.6,1.3-2.6c0.1-1-0.5-1.8-1.1-2.6
				c-0.6-0.8-1.4-1.5-1.7-2.6c-0.1-0.6,0-1.1,0.3-1.6c0.3-0.5,0.7-0.8,1-1.2l0,0c0.8-0.8,1.3-1.9,1.5-3.1c0.2-1.1,0-2.3-0.6-3.3
				c-0.3-0.5-0.8-0.8-1.3-1.1c-0.5-0.3-1.1-0.6-1.5-1.2c-0.2-0.3-0.2-0.7,0-1.1c0.2-0.3,0.5-0.5,0.8-0.7c0.5-0.3,1.1-0.5,1.4-0.9
				l0,0c0.1-0.3,0.1-0.6,0-0.9c-0.1-0.3-0.4-0.5-0.7-0.6c-0.6-0.3-1.3-0.4-2-0.3l-0.7,0.1l0.5-0.5c1.1-1.1,1.4-2.9,0.9-4.3
				c-0.2-0.7-0.6-1.4-1.2-1.9c-0.6-0.5-1.4-0.6-2.1-0.5l0.1,0c-0.5,0.2-1,0.5-1.5,0.7c-0.5,0.2-1,0.4-1.6,0.4
				c-0.6,0-1.2-0.3-1.6-0.8c-0.3-0.5-0.5-1-0.7-1.5l0.1,0.1c-0.5-0.3-1-0.7-1.2-1.3c-0.3-0.6-0.2-1.3,0-1.8l0,0.1
				c0-0.5-0.1-0.9-0.4-1.3c-0.3-0.4-0.7-0.6-1.1-0.7c-0.9-0.2-1.9,0-2.7,0.5l-0.1,0.1l-0.1,0c-0.3-0.1-0.6-0.2-0.7-0.5
				c-0.1-0.3-0.1-0.6-0.1-0.8c0-0.5,0.2-0.9,0.2-1.3l0,0c0-0.3-0.2-0.6-0.4-0.8c-0.2-0.2-0.6-0.2-0.9-0.2c-0.3,0-0.6,0.2-0.8,0.5
				c-0.2,0.2-0.2,0.6-0.1,0.9L312,45l-0.2,0.1c-0.7,0.2-1.5,0.2-2.2,0.1c-0.4-0.1-0.8-0.2-1.1-0.4c-0.3-0.2-0.7-0.5-0.8-0.9
				c-0.3-0.8,0.1-1.6,0.4-2.3c0.3-0.6,0.3-1.3,0.1-1.9c-0.4-1.3-1.4-2.4-2.6-3c-0.6-0.3-1.3-0.4-1.9-0.2c-0.6,0.2-1.1,0.7-1.4,1.3
				l0-0.1c0,0.3,0,0.7,0.2,1.1c0.1,0.4,0.3,0.7,0.4,1.1c0.1,0.4,0.2,0.8,0.1,1.3c-0.1,0.5-0.5,0.8-0.9,1l0,0l0,0
				c-0.3,0.1-0.7,0-0.9-0.2c-0.3-0.1-0.5-0.3-0.7-0.5c-0.4-0.3-0.8-0.7-1.2-0.6l0,0c-0.5,0.1-0.8,0.6-1,1c-0.2,0.5-0.3,1-0.5,1.6
				c-0.2,0.5-0.4,1.2-1,1.5c-0.6,0.4-1.3,0.2-1.8,0.1l0,0l0,0c-0.4-0.2-0.8-0.5-1.1-0.9c-0.3-0.4-0.3-0.9-0.2-1.4
				c0.1-0.9,0.6-1.7,1.1-2.4l0,0c0.2-0.4,0.2-0.9,0.1-1.4c-0.1-0.5-0.4-0.9-0.8-1.2c-0.8-0.6-1.9-0.7-2.7-0.1l-0.1,0.1l-0.1-0.1
				c-0.3-0.1-0.4-0.5-0.3-0.7c0-0.2,0.1-0.4,0.2-0.6c0.1-0.4,0.3-0.8,0.1-1l0,0.1c-0.2-0.3-0.6-0.3-1-0.2c-0.4,0.1-0.8,0.2-1.2,0.4
				c-0.4,0.1-0.8,0.3-1.4,0.3c-0.3,0-0.6-0.3-0.7-0.5c-0.1-0.3-0.1-0.5-0.1-0.7c0.1-0.9,0.4-1.8,0.6-2.6c0.3-0.8,0.1-1.6-0.3-2.4
				c-0.8-1.5-2.2-2.6-3.8-3.2c-0.8-0.3-1.7-0.4-2.5-0.2c-0.8,0.2-1.5,0.8-1.8,1.5l0,0c-0.2,0.6,0,1.4,0.1,2.1
				c0.1,0.4,0.1,0.7,0.1,1.1c0,0.4-0.2,0.8-0.6,1.1l0,0l0,0c-1.2,0.3-2.3,0.2-3.4,0.5c-0.5,0.1-1,0.4-1,0.9c-0.1,0.5,0.2,1,0.4,1.5
				l0,0l0,0c0.1,0.7,0.1,1.4,0,2.1c-0.1,0.3-0.1,0.7-0.5,1c-0.4,0.3-0.8,0.2-1.1,0.1c-0.7-0.2-1.3-0.5-1.9-0.6
				c-0.6-0.1-1.2,0.1-1.6,0.5l0-0.1c-0.3,0.8-0.1,1.8-0.1,2.7c0,0.5-0.1,1-0.3,1.4c-0.2,0.5-0.7,0.8-1.1,0.9l0,0l0,0
				c-0.4,0.1-0.9,0.2-1.4,0c-0.2,0-0.5-0.2-0.7-0.3c-0.2-0.2-0.3-0.4-0.3-0.7c-0.1-0.5-0.1-0.9-0.1-1.3c0-0.4-0.1-0.8-0.3-1.1
				l0.1,0.1c-0.3-0.2-0.6,0-1,0.2c-0.2,0.1-0.4,0.2-0.6,0.3c-0.2,0.1-0.5,0.1-0.7,0.1l0,0l0,0c-0.3-0.1-0.5-0.5-0.5-0.8
				c0-0.3,0.1-0.6,0.2-0.9c0.2-0.6,0.5-1.1,0.7-1.6c0.1-0.3,0.2-0.5,0.2-0.7c0-0.2-0.2-0.3-0.4-0.3c-0.5,0-1.1,0.1-1.6,0.2l0,0
				c-0.6,0.3-1.1,0.6-1.8,0.7c-0.3,0-0.7-0.1-1-0.3c-0.3-0.3-0.4-0.6-0.5-0.9c-0.3-1.3-0.1-2.6-0.2-3.8l0,0.1
				c-0.7-1.1-1.8-1.9-3-2.4c-0.6-0.2-1.3-0.3-1.9-0.3c-0.6,0.1-1.2,0.4-1.6,0.9l0,0c-0.3,0.5-0.4,1.2-0.6,1.9
				c-0.1,0.3-0.2,0.7-0.3,1c-0.2,0.3-0.5,0.6-0.8,0.7l-0.1,0l-0.1-0.1c-0.7-0.6-1.7-0.9-2.7-1c-1-0.1-2-0.1-3,0.2
				c-1,0.2-1.9,0.6-2.6,1.3c-0.2,0.1-0.3,0.4-0.4,0.6c-0.1,0.2-0.2,0.4-0.3,0.7c0,0.2,0,0.5,0,0.7l0.1,0.7l-0.1-0.1
				c0.8,0.5,1.5,1.1,2.1,1.9c0.3,0.4,0.5,0.8,0.6,1.3c0,0.5-0.3,1-0.7,1.3l0,0l0,0c-0.6,0.1-1.3,0.2-1.8,0.6
				c-0.5,0.4-0.6,1.1-0.5,1.7c0,0.3,0.1,0.7,0,1c0,0.4-0.2,0.7-0.5,1c-0.6,0.4-1.3,0.4-2,0.4l0,0l0,0c-0.4-0.1-0.8-0.4-1.1-0.8
				c-0.3-0.4-0.4-0.8-0.5-1.3c-0.1-0.9,0.1-1.7,0.2-2.6c0.1-0.8,0.2-1.7-0.3-2.4c-0.5-0.7-1.4-0.7-2.2-0.6l0,0
				c-0.3,0.1-0.6,0.2-0.9,0.3c-0.3,0.1-0.7,0.1-1-0.1c-0.6-0.4-0.6-1.1-0.8-1.7c-0.1-0.6-0.2-1.2-0.4-1.8c-0.2-0.5-0.5-1.1-1.1-1.3
				c-1.1-0.4-2.5-0.2-3.1,0.8c-0.7,1-0.7,2.3-0.3,3.4l0,0l0,0c0,0.4-0.3,0.7-0.6,0.9c-0.3,0.2-0.6,0.4-0.9,0.5
				c-0.6,0.3-1.2,0.6-1.5,1.1l0,0c-0.1,0.7,0.2,1.4,0.6,2c0.4,0.6,0.9,1.2,1.3,1.8c0.2,0.3,0.4,0.7,0.4,1.1c0,0.2-0.1,0.4-0.1,0.6
				c-0.1,0.2-0.2,0.4-0.4,0.5c-0.6,0.5-1.3,0.8-2,1l0,0c-0.6,0.3-1.2,0.6-1.5,1.1c-0.4,0.5,0.1,1.1,0.5,1.5c0.4,0.4,1,0.8,1.3,1.5
				c0.2,0.3,0.2,0.7,0,1c-0.1,0.3-0.4,0.6-0.6,0.8l0,0l0,0c-1.2,0.4-2.4,0.6-3.5,0.9c-1.2,0.3-2.4,0.6-3.3,1.3
				c-0.2,0.2-0.4,0.4-0.4,0.7c0,0.3,0.1,0.5,0.3,0.8c0.3,0.5,0.8,0.8,1.3,1.2c0.5,0.3,1.1,0.6,1.4,1.1c0.2,0.2,0.4,0.5,0.4,0.8
				c0.1,0.3,0,0.7-0.2,0.9l0,0l-0.1,0c-0.9-0.4-2-0.3-2.9,0.1c-0.5,0.2-0.9,0.5-1.1,1c-0.2,0.5,0,1,0.2,1.4l0,0
				c0.9,0.4,1.7,0.7,2.4,1.4c0.3,0.3,0.6,0.8,0.6,1.3c0,0.5-0.2,1-0.4,1.4l0,0.1l-0.1,0c-1-0.5-2.3,0-2.7,1.1l0-0.1
				c0.5,0.4,0.9,0.8,1.3,1.3c0.4,0.5,0.7,1.1,0.5,1.7c-0.1,0.6-0.7,1-1.3,1.3c-0.6,0.2-1.2,0.3-1.8,0.4l0,0
				c-0.5,0.3-0.6,0.9-0.5,1.4c0.1,0.5,0.3,1,0.5,1.6c0.2,0.5,0.4,1,0.6,1.6c0.1,0.5,0.1,1.2-0.2,1.7l0,0l0,0
				c-0.6,0.3-1.1,0.6-1.6,1.1c-0.5,0.4-0.9,0.9-1.1,1.5c-0.2,0.6,0,1.3,0.4,1.8c0.4,0.5,0.9,0.9,1.4,1.3l0,0c1.1,0.5,2.3,1,3.1,1.9
				c0.9,0.9,1.3,2.2,1.1,3.4c-0.1,1.2-0.6,2.4-1.1,3.5c-0.5,1.1-1,2.2-1.5,3.3l0,0c1.4,8.4,2.2,16.9,2.9,25.4
				c0.3,4.3,0.5,8.5,0.7,12.8l0.1,3.2c0,1.1,0.5,2.1,1.1,3C220.6,143.2,222.4,144.5,223.6,146.2z"/>
		</g>
	</g>
	<g>
		<path class="st3" d="M232.6,106.9c-0.7,0.5-1.5,0.9-2.4,1.2l-0.1,0L230,108c-0.3-0.3-0.5-0.6-0.8-0.9c-0.3-0.3-0.6-0.6-0.8-0.6
			c-0.1,0-0.6,0.4-0.9,0.6c-0.4,0.2-0.8,0.3-1.3,0.4l-0.2,0l-0.1-0.2c-0.3-0.4-0.6-0.8-0.9-0.9c-0.1-0.1-0.2-0.1-0.4,0
			c-0.1,0.1-0.3,0.2-0.5,0.4l-0.1,0.1l0,0c-0.3,0.1-0.6,0.3-1.1,0.2c-0.2,0-0.4-0.2-0.5-0.4c-0.1-0.2-0.2-0.3-0.2-0.5
			c-0.1-0.3-0.1-0.6-0.2-0.8c-0.1-0.3-0.2-0.5-0.3-0.5l0.2,0c-0.5,0.2-1.1,0.5-1.7,0.4c-0.3-0.1-0.6-0.3-0.7-0.6
			c-0.1-0.3-0.2-0.5-0.2-0.8c0.1,0.3,0.2,0.5,0.3,0.7c0.2,0.2,0.4,0.3,0.6,0.4c0.5,0,1-0.2,1.4-0.5l0.1-0.1l0.1,0
			c0.4,0.2,0.6,0.5,0.7,0.8c0.1,0.3,0.2,0.6,0.3,0.8c0.1,0.3,0.2,0.4,0.3,0.4c0.1,0,0.4-0.1,0.6-0.2l-0.1,0.1
			c0.2-0.2,0.4-0.4,0.7-0.5c0.3-0.2,0.7-0.2,1,0c0.6,0.3,0.8,0.8,1.1,1.1l-0.3-0.1c0.4-0.1,0.7-0.2,1.1-0.3c0.2-0.1,0.3-0.2,0.5-0.3
			c0.2-0.1,0.4-0.3,0.7-0.3c0.4,0,0.6,0.2,0.7,0.4c0.2,0.2,0.3,0.3,0.4,0.5c0.3,0.3,0.5,0.7,0.7,1l-0.2-0.1
			C230.9,107.5,231.8,107.2,232.6,106.9z"/>
	</g>
	<g>
		<path class="st3" d="M232.4,105.2c-0.7-0.7-1.5-1.1-2.4-1.4l0.2-0.1c-0.3,0.3-0.5,0.6-0.9,0.8c-0.4,0.2-0.8,0.3-1.3,0.1
			c-0.4-0.1-0.8-0.5-1-0.8c-0.2-0.3-0.4-0.7-0.6-1l0.3,0.2c-0.2,0-0.7,0.2-1.1,0.5c-0.2,0.1-0.5,0.3-0.9,0.2
			c-0.5-0.1-0.7-0.5-0.8-0.7c-0.1-0.1-0.1-0.3-0.1-0.4c0-0.1-0.1-0.2-0.1-0.3c-0.1-0.2-0.1-0.2-0.2-0.2c-0.1,0-0.3,0.1-0.6,0.3
			c-0.2,0.1-0.5,0.3-0.8,0.3l-0.1,0l-0.1,0c-0.2-0.1-0.4-0.4-0.4-0.5c0-0.2,0-0.3,0-0.5c0-0.1,0-0.3,0-0.4c0-0.1,0-0.1-0.1-0.2
			l0.1,0c-0.4,0.1-0.8,0.2-1.2,0.2c-0.2,0-0.5-0.1-0.6-0.3c-0.1-0.2-0.1-0.4-0.1-0.6c0,0.2,0.1,0.4,0.2,0.5c0.1,0.1,0.3,0.2,0.5,0.1
			c0.4-0.1,0.7-0.2,1.1-0.4l0,0l0.1,0c0.2,0,0.4,0.3,0.4,0.5c0,0.2,0,0.3,0,0.5c0,0.1,0,0.3,0,0.4c0,0.1,0.1,0.1,0.1,0.1l-0.1,0
			c0.1,0,0.3-0.1,0.5-0.3c0.2-0.1,0.4-0.3,0.8-0.4c0.2,0,0.4,0,0.6,0.1c0.2,0.1,0.3,0.3,0.3,0.4c0.1,0.1,0.1,0.3,0.2,0.4
			c0,0.1,0.1,0.2,0.1,0.3c0.1,0.2,0.2,0.3,0.2,0.3c0.1,0,0.3-0.1,0.5-0.2c0.2-0.1,0.4-0.2,0.7-0.4c0.2-0.1,0.5-0.3,0.9-0.2l0.2,0
			l0.1,0.2c0.2,0.6,0.6,1.3,1.1,1.5c0.2,0.1,0.5,0.1,0.8,0c0.3-0.1,0.6-0.3,0.8-0.6l0.1-0.1l0.1,0
			C231,103.8,231.8,104.4,232.4,105.2z"/>
	</g>
	<g>
		<path class="st3" d="M325.5,95.7c0.2,0.6,0.2,1.3-0.1,1.9l0,0.1l-0.1,0c-0.6-0.1-1.1-0.2-1.6-0.3c-0.2,0-0.5,0-0.7,0
			c-0.2,0.1-0.2,0.1-0.3,0.3l0-0.2c0.1,0.3,0.1,0.7,0.1,1c0,0.3-0.1,0.7-0.3,1c-0.1,0.2-0.2,0.3-0.4,0.4c-0.2,0.1-0.4,0.2-0.6,0.1
			c-0.4-0.1-0.7-0.3-0.9-0.6l0.1,0.1c-0.1,0-0.3-0.1-0.4-0.1c-0.1,0-0.1,0-0.1,0c0,0-0.1,0.1-0.1,0.3c0,0.2-0.1,0.4-0.2,0.6
			c-0.1,0.2-0.4,0.4-0.6,0.4c-0.2,0.1-0.4,0-0.6,0c-0.4-0.1-0.7-0.2-1-0.3l0.4-0.1c-0.4,0.5-0.7,1-1.3,1.4c-0.3,0.2-0.8,0.3-1.1,0
			c-0.3-0.2-0.4-0.6-0.5-0.8l0,0l0,0l0-0.5c0-0.2-0.1-0.3-0.2-0.4c0.2,0,0.3,0.2,0.3,0.4c0,0.2,0.1,0.4,0.1,0.5l0,0
			c0.1,0.3,0.3,0.5,0.5,0.6c0.2,0.1,0.4,0.1,0.6-0.1c0.4-0.3,0.7-0.8,1-1.3l0.1-0.2l0.3,0.1c0.3,0.1,0.6,0.2,0.9,0.3
			c0.3,0,0.5,0,0.5-0.1c0-0.1,0.1-0.2,0.1-0.4c0-0.2,0-0.3,0.2-0.6c0.2-0.3,0.7-0.3,0.8-0.2c0.2,0,0.4,0.1,0.5,0.2l0,0l0.1,0.1
			c0.2,0.2,0.4,0.3,0.5,0.3c0.1,0,0.2,0,0.4-0.2c0.2-0.4,0.3-0.9,0.2-1.4l0-0.1l0-0.1c0-0.4,0.5-0.7,0.8-0.7c0.3-0.1,0.6,0,0.9,0.1
			c0.5,0.1,1,0.3,1.5,0.4l-0.2,0.1C325.4,96.9,325.6,96.3,325.5,95.7z"/>
	</g>
	<g>
		<path class="st3" d="M315.3,105.5c0.5,0.3,1,0.6,1.6,0.8l-0.2,0c0.2-0.1,0.3-0.4,0.4-0.7l0.3-0.9c0.1-0.3,0.2-0.7,0.6-1
			c0.1-0.1,0.3-0.1,0.4-0.2c0.1,0,0.3,0,0.4,0.1c0.2,0.1,0.4,0.2,0.5,0.3l0,0l0,0.1c0.2,0.3,0.4,0.5,0.6,0.7
			c0.2,0.2,0.3,0.2,0.5,0.1l-0.1,0.2c0.1-0.4,0.2-0.7,0.3-1.1c0.1-0.2,0.2-0.4,0.3-0.5c0.1-0.1,0.2-0.2,0.3-0.2c0.1,0,0.3,0,0.4,0
			c0.4,0.1,0.6,0.4,0.9,0.4c0.2-0.1,0.4-0.5,0.5-0.8c-0.1,0.3,0,0.7-0.5,1c-0.5,0.2-0.8-0.2-1.1-0.2c-0.1,0-0.1,0-0.2,0.1
			c-0.1,0.1-0.1,0.2-0.2,0.4c-0.1,0.3-0.1,0.6-0.2,1l0,0.1l-0.1,0.1c-0.2,0.1-0.5,0.2-0.7,0.2c-0.3,0-0.5-0.2-0.6-0.3
			c-0.3-0.3-0.5-0.6-0.7-0.9l0.1,0.1c-0.1-0.1-0.2-0.2-0.3-0.2c-0.1,0-0.1,0-0.1,0c-0.1,0.1-0.3,0.4-0.4,0.7
			c-0.1,0.3-0.3,0.6-0.4,0.9c-0.2,0.3-0.3,0.6-0.7,0.9l-0.1,0.1l-0.1-0.1C316.1,106.3,315.7,105.9,315.3,105.5z"/>
	</g>
	<g>
		<path class="st3" d="M329.7,102.7c-0.3,0-0.5-0.1-0.8,0c-0.2,0-0.4,0.2-0.5,0.3c-0.2,0.4-0.3,0.9-0.5,1.5l0,0.1l-0.1,0.1
			c-0.2,0.2-0.5,0.2-0.7,0.2c-0.2,0-0.4-0.1-0.5-0.1c-0.1,0-0.3-0.1-0.4-0.1c-0.1,0-0.1,0-0.1,0l0.1-0.2c-0.1,0.5-0.1,1.1-0.4,1.6
			c-0.1,0.1-0.2,0.3-0.4,0.4c-0.2,0.1-0.4,0.1-0.5,0c-0.3-0.1-0.5-0.4-0.6-0.6c0.3,0.1,0.5,0.3,0.7,0.3c0.3,0,0.3-0.1,0.4-0.3
			c0.1-0.5,0.1-1,0.1-1.6l0-0.1l0.1-0.1c0.2-0.2,0.5-0.3,0.7-0.2c0.2,0,0.4,0.1,0.5,0.1c0.3,0.1,0.5,0.1,0.6,0.1l-0.1,0.2
			c0.2-0.5,0.3-1,0.7-1.6c0.2-0.3,0.6-0.4,0.9-0.3C329.2,102.4,329.5,102.5,329.7,102.7z"/>
	</g>
	<g>
		<path class="st3" d="M311,59.2c-0.1,0.8-0.3,1.6,0,2.3c0.3,0.7,0.9,1.1,1.6,1.5c0.7,0.4,1.4,0.6,2.2,1.1c0.7,0.4,1.4,1.2,1.4,2.1
			l0,0.1l-0.1,0.1c-0.3,0.4-0.6,0.8-0.9,1.3c-0.3,0.4-0.5,0.9-0.5,1.3c0,0.4,0.3,0.7,0.7,1c0.4,0.3,0.8,0.5,1.3,0.7l0.1,0l0,0
			c0.5,0.5,0.8,1.2,0.8,1.9c0,0.7-0.2,1.3-0.5,1.9c-0.3,0.6-0.8,1.1-1.5,1.2c-0.7,0.1-1.3-0.3-1.7-0.8c0.5,0.4,1.1,0.7,1.6,0.5
			c0.6-0.2,0.9-0.7,1.2-1.2c0.5-1,0.4-2.4-0.4-3.1l0.1,0.1c-0.5-0.2-1-0.4-1.5-0.8c-0.5-0.3-0.9-0.9-1-1.6c0-0.7,0.3-1.2,0.6-1.7
			c0.3-0.5,0.6-0.9,0.9-1.3l-0.1,0.3c0-0.7-0.5-1.3-1.1-1.7c-0.6-0.4-1.3-0.7-2-1.2c-0.7-0.4-1.4-1-1.6-1.8
			C310.5,60.7,310.7,59.9,311,59.2z"/>
	</g>
	<g>
		<path class="st3" d="M323.4,78.6c0.9,0.5,1.7,1.4,2.2,2.4l0.1,0.1l-0.1,0.1c-0.4,0.4-0.8,0.8-1.1,1.2c-0.3,0.4-0.5,0.8-0.3,1.2
			c0.2,0.4,0.7,0.7,1.1,1.1c0.4,0.4,0.8,1,0.9,1.6c0.2,0.6,0.1,1.3-0.3,1.9c-0.3,0.6-1,0.9-1.6,1c-0.6,0.1-1.3-0.1-1.7-0.5
			c-0.5-0.4-0.6-1.1-0.5-1.6c0,0.6,0.3,1.1,0.7,1.4c0.4,0.3,1,0.3,1.4,0.2c0.5-0.1,0.9-0.4,1.1-0.8c0.2-0.4,0.2-0.9,0.1-1.4
			c-0.1-0.5-0.4-0.9-0.8-1.2c-0.4-0.4-0.8-0.7-1.2-1.3c-0.1-0.1-0.1-0.4-0.2-0.5c0-0.2,0-0.4,0.1-0.5c0.1-0.3,0.3-0.6,0.5-0.8
			c0.4-0.4,0.8-0.8,1.3-1.2l-0.1,0.3C324.8,80.2,324.2,79.3,323.4,78.6z"/>
	</g>
	<g>
		<path class="st3" d="M310.1,86.3c0.3,0.5,0.6,1.1,0.8,1.7c0.2,0.6,0.2,1.3-0.2,2c-0.4,0.6-1.1,0.9-1.8,1c-0.6,0.1-1.3,0.1-1.9,0
			l0.4-0.2c-0.4,0.7-1.1,1.3-1.8,1.5c-0.4,0.1-0.8,0.1-1.2-0.1c-0.4-0.1-0.7-0.4-0.9-0.7c0.3,0.2,0.6,0.4,1,0.4c0.3,0,0.7,0,1-0.1
			c0.6-0.3,1.1-0.8,1.3-1.3l0.1-0.2l0.3,0c0.6,0.1,1.2,0.1,1.7,0c0.5-0.1,1.1-0.3,1.4-0.6c0.3-0.4,0.4-0.9,0.3-1.5
			C310.4,87.4,310.3,86.9,310.1,86.3z"/>
	</g>
	<g>
		<path class="st3" d="M303.3,76.8c0.4,0.4,0.7,0.7,1,1.2c0.1,0.2,0.3,0.5,0.3,0.8c0,0.3-0.2,0.7-0.4,0.8c-0.5,0.4-1,0.5-1.4,0.8
			c-0.4,0.2-0.9,0.5-1.1,0.8l0.1-0.3c0.2,0.8,0.4,1.6,0.1,2.4c-0.2,0.8-1,1.5-1.8,1.7c-0.8,0.2-1.7-0.1-2.4-0.5
			c-0.7-0.5-1.1-1.1-1.4-1.8c0.4,0.6,1,1.2,1.6,1.5c0.6,0.3,1.4,0.4,2,0.2c0.6-0.2,1.1-0.7,1.3-1.3c0.2-0.6,0.1-1.3-0.1-2l-0.1-0.2
			l0.1-0.1c0.4-0.5,0.9-0.7,1.4-0.9c0.5-0.2,1-0.3,1.4-0.6c0.4-0.2,0.4-0.6,0.2-1.1C303.9,77.7,303.6,77.2,303.3,76.8z"/>
	</g>
	<g>
		<path class="st3" d="M290.2,53.6c0.5,0.4,1.1,0.8,1.5,1.3c0.1,0.1,0.2,0.3,0.3,0.4c0.1,0.1,0.2,0.3,0.2,0.5c0.1,0.4,0,0.8-0.3,1.1
			c-0.5,0.6-1.1,0.8-1.7,1.2c-0.6,0.3-1.1,0.6-1.6,1l0.1-0.4c0.3,0.9,0.4,1.9,0.4,2.9c-0.1,1-0.6,2.1-1.6,2.5c-1,0.4-2.1,0-2.8-0.6
			c-0.8-0.6-1.4-1.3-1.9-2c0.7,0.7,1.3,1.3,2.1,1.7c0.8,0.4,1.7,0.6,2.4,0.3c0.7-0.3,1-1.1,1.1-2c0.1-0.8-0.1-1.7-0.3-2.6l-0.1-0.3
			l0.2-0.1c0.6-0.4,1.2-0.7,1.7-1c0.6-0.3,1.2-0.5,1.6-0.9c0.2-0.2,0.3-0.4,0.3-0.7c0-0.1,0-0.3-0.1-0.4c0-0.1-0.1-0.3-0.2-0.4
			C291.1,54.5,290.6,54.1,290.2,53.6z"/>
	</g>
	<g>
		<path class="st3" d="M278.3,43.7c0.6,0.2,1.2,0.4,1.8,0.6c0.3,0.1,0.6,0.2,0.9,0.4c0.3,0.2,0.6,0.4,0.7,0.8
			c0.1,0.4-0.1,0.8-0.3,1.1c-0.2,0.3-0.3,0.6-0.5,0.8c-0.3,0.5-0.6,1.1-0.9,1.7l-0.1-0.4c0.4,0.4,0.7,0.8,0.9,1.2
			c0.3,0.4,0.5,0.9,0.6,1.5c0.1,0.3,0.1,0.6,0,0.9c-0.1,0.3-0.3,0.7-0.6,0.8c-0.6,0.3-1.2,0.3-1.7,0.2l-0.1,0l-0.1-0.1
			c-0.3-0.2-0.5-0.4-0.8-0.4c-0.1,0-0.1,0-0.1,0c0,0,0,0,0,0c0,0,0,0.1,0,0.2c0,0.2,0.1,0.5,0.3,0.8c0.1,0.3,0.3,0.5,0.6,0.7
			l0.1,0.1l0,0.1c0,0.4,0,0.9-0.1,1.3c-0.1,0.4-0.3,0.9-0.8,1.2c-0.4,0.3-0.9,0.3-1.4,0.2c-0.4-0.1-0.8-0.3-1.2-0.5
			c-0.7-0.4-1.4-1-1.8-1.7c-0.4-0.7-0.7-1.5-0.6-2.4c0,0.8,0.4,1.6,0.8,2.2c0.5,0.6,1.1,1.1,1.8,1.5c0.7,0.3,1.5,0.5,2,0.1
			c0.5-0.4,0.6-1.2,0.5-1.9l0.1,0.2c-0.3-0.2-0.6-0.5-0.8-0.9c-0.2-0.3-0.3-0.7-0.4-1.1c0-0.2,0-0.5,0.3-0.7
			c0.1-0.1,0.3-0.2,0.4-0.2c0.1,0,0.3,0,0.4,0c0.4,0.1,0.7,0.3,1,0.5l-0.2-0.1c0.4,0.1,0.9,0.1,1.2-0.1c0.3-0.1,0.3-0.5,0.2-1
			c-0.2-0.9-0.7-1.7-1.3-2.4l-0.2-0.2l0.1-0.2c0.3-0.6,0.7-1.1,1-1.7c0.2-0.3,0.4-0.5,0.5-0.8c0.2-0.3,0.3-0.5,0.3-0.8
			c-0.1-0.5-0.8-0.8-1.3-1.1C279.5,44.2,278.9,43.9,278.3,43.7z"/>
	</g>
	<g>
		<path class="st3" d="M264.4,64.5c-0.6-1.1-1.5-1.9-2.6-2.4l0.3,0c-0.5,0.3-0.6,1-0.8,1.7c-0.1,0.7-0.4,1.6-1.1,2.1
			c-0.7,0.5-1.7,0.5-2.4,0.1c-0.7-0.4-1.1-1.2-1-1.9c0.1,0.7,0.6,1.3,1.2,1.5c0.6,0.2,1.3,0.1,1.7-0.2c0.4-0.4,0.6-1,0.8-1.7
			c0.1-0.3,0.2-0.7,0.3-1.1c0.2-0.4,0.4-0.8,0.8-1l0.2-0.1l0.1,0.1C263.3,62.2,264.1,63.3,264.4,64.5z"/>
	</g>
	<g>
		<path class="st3" d="M257.6,54.2c-1-0.5-2-1-3-1.1c-0.5,0-0.9,0.2-1.1,0.5c-0.3,0.4-0.4,0.9-0.5,1.4c-0.1,0.5-0.2,1.1-0.4,1.7
			c-0.1,0.3-0.2,0.6-0.4,0.9c-0.2,0.3-0.6,0.5-1,0.5c-0.7-0.1-1.2-0.5-1.6-0.8c-0.4-0.4-0.8-0.8-1.2-1.2c0.5,0.3,0.9,0.6,1.4,0.9
			c0.5,0.3,1,0.5,1.4,0.5c0.4,0,0.6-0.4,0.7-0.9c0.1-0.5,0.2-1.1,0.3-1.6c0.1-0.6,0.3-1.1,0.7-1.7c0.4-0.6,1.2-0.8,1.8-0.7
			C255.8,52.8,256.7,53.5,257.6,54.2z"/>
	</g>
	<g>
		<path class="st3" d="M276.2,78.6c-0.8-0.7-1.7-1.5-2.7-1.7c-1-0.3-1.8,0.5-2.4,1.3c-0.7,0.8-1.2,1.9-2.2,2.6
			c-0.5,0.4-1.1,0.7-1.7,0.5c-0.6-0.1-1.1-0.5-1.5-0.9c0.5,0.3,1,0.5,1.5,0.5c0.5,0,0.9-0.3,1.3-0.6c0.7-0.7,1.2-1.7,1.9-2.6
			c0.4-0.4,0.7-0.9,1.3-1.2c0.5-0.3,1.3-0.4,1.9-0.2C274.8,76.7,275.6,77.7,276.2,78.6z"/>
	</g>
	<g>
		<path class="st3" d="M276.7,86.8c0.7,0.4,1.3,0.9,1.8,1.5l0.1,0.1l-0.2,0.1c-0.6,0.5-1.2,0.9-1.9,1.2l0-0.6
			c0.9,0.4,1.4,1.4,1.4,2.3c0,0.5-0.1,1-0.4,1.4c-0.3,0.4-0.7,0.7-1.2,0.9l0,0l0,0c-0.6,0.1-1.2,0-1.7-0.1c-0.5-0.1-1-0.3-1.5-0.4
			c-0.5-0.1-1-0.2-1.5-0.2c-0.5,0-1,0.2-1.4,0.5c0.3-0.4,0.8-0.7,1.4-0.8c0.5-0.1,1.1-0.1,1.6,0c1,0.2,2.1,0.5,2.9,0.3l0,0
			c0.7-0.2,1.1-0.9,1.1-1.6c0-0.7-0.4-1.4-1-1.8l-0.6-0.4l0.7-0.2c0.7-0.2,1.3-0.5,1.9-0.9l0,0.3C277.8,87.9,277.3,87.3,276.7,86.8z
			"/>
	</g>
	<g>
		<path class="st3" d="M239.1,67.2c-0.9,0-1.9,0-2.7,0.2c-0.4,0.2-0.8,0.4-0.9,0.8c-0.1,0.4-0.1,0.8,0,1.2c0.2,0.8,0.6,1.7,1,2.6
			c0.2,0.4,0.3,0.9,0.4,1.4c0,0.3,0,0.6-0.1,0.9c-0.1,0.3-0.4,0.5-0.7,0.7L236,75l-0.1,0c-0.7-0.2-1.4-0.3-1.9-0.1
			c-0.5,0.2-0.7,0.9-0.8,1.6l0,0l0,0c-0.2,0.8-0.6,1.6-1.3,2c-0.7,0.4-1.5,0.5-2.2,0.7c-0.7,0.1-1.5,0.2-2.1,0.5
			c-0.7,0.3-1.1,0.9-1.4,1.6c0.2-0.7,0.6-1.4,1.3-1.8c0.7-0.4,1.4-0.6,2.1-0.7c0.7-0.2,1.4-0.3,2-0.7c0.5-0.4,0.9-1,1-1.6l0,0
			c0-0.4,0.1-0.8,0.3-1.2c0.2-0.4,0.5-0.8,0.9-1c0.4-0.2,0.9-0.2,1.3-0.2c0.4,0,0.8,0.1,1.2,0.2l-0.3,0c0.6-0.2,0.4-1.2,0.1-2
			c-0.3-0.9-0.7-1.7-0.8-2.7c-0.1-0.5-0.1-1,0.1-1.5c0.2-0.5,0.7-0.8,1.2-0.9C237.3,66.9,238.2,67,239.1,67.2z"/>
	</g>
	<g>
		<path class="st3" d="M221.7,73.7c-0.5,0.2-1,0.5-1.1,0.9c-0.1,0.4,0,0.9,0.1,1.4c0,0.3,0.1,0.6,0.1,0.9c0,0.3-0.1,0.7-0.4,0.9
			c-0.7,0.4-1.2,0.2-1.8,0c0.5-0.1,1.1-0.1,1.4-0.4c0.2-0.2,0.1-0.8,0-1.3c-0.1-0.5-0.2-1.1,0.1-1.8c0.1-0.2,0.2-0.3,0.3-0.4
			c0.1-0.1,0.3-0.2,0.4-0.2C221.1,73.6,221.4,73.6,221.7,73.7z"/>
	</g>
	<g>
		<path class="st3" d="M231,53.2c0.3,0.2,0.6,0.5,0.9,0.8c0.3,0.3,0.5,0.6,0.5,1.1c0,0.5-0.4,0.9-0.8,1.1c-0.4,0.2-0.7,0.4-1.1,0.5
			l0.2-0.2c-0.2,0.5-0.2,1.1-0.2,1.8c0,0.6,0.2,1.3,0,2c-0.1,0.4-0.3,0.8-0.7,1c-0.3,0.2-0.7,0.3-1,0.3c-0.7,0-1.3-0.1-2-0.2
			c0.3,0,0.7,0,1-0.1c0.3-0.1,0.6-0.1,0.9-0.2c0.6-0.1,1.1-0.4,1.2-0.9c0.1-0.5-0.1-1.2-0.1-1.9c-0.1-0.7,0-1.4,0.2-2.1l0.1-0.2
			l0.2,0c0.4-0.1,0.7-0.2,1-0.3c0.3-0.1,0.5-0.3,0.6-0.6c0-0.3-0.1-0.6-0.3-0.9C231.4,53.8,231.2,53.5,231,53.2z"/>
	</g>
	<g>
		<path class="st3" d="M252.2,74.8c0.3,0.3,0.6,0.7,0.8,1.1c0.2,0.4,0.4,1,0.1,1.5c-0.3,0.5-0.7,0.7-1,1c-0.3,0.3-0.7,0.6-0.9,0.9
			l0.1-0.1c0,0.2,0,0.4,0.1,0.7l0.2,0.8c0.1,0.3,0.1,0.6,0,1c-0.1,0.4-0.5,0.7-0.8,0.8l-0.2,0.1l-0.1-0.1c-0.8-0.5-1.9-0.3-2.6,0.3
			c-0.4,0.3-0.6,0.8-0.5,1.2c0.1,0.5,0.6,0.8,1,1.1c-0.5-0.2-1-0.5-1.3-1c-0.3-0.6,0-1.3,0.4-1.7c0.8-0.9,2.2-1.2,3.4-0.6l-0.3,0
			c0.2-0.1,0.3-0.2,0.4-0.3c0-0.2,0-0.4,0-0.7l-0.2-0.8c-0.1-0.3-0.1-0.6-0.1-1l0-0.1l0.1-0.1c0.3-0.4,0.7-0.7,1.1-0.9
			c0.4-0.3,0.8-0.5,1-0.8c0.2-0.3,0.2-0.7,0.1-1.1C252.6,75.6,252.4,75.2,252.2,74.8z"/>
	</g>
	<g>
		<path class="st3" d="M241.6,91.6c-1,0-1.8,0.1-2.5,0.5c-0.7,0.4-1.1,1.1-1.6,2c-0.2-1,0.2-2.1,1.1-2.7c0.5-0.3,1-0.4,1.5-0.4
			C240.7,91.2,241.2,91.4,241.6,91.6z"/>
	</g>
	<g>
		<path class="st3" d="M257.9,90.8c0,1-0.4,1.9-1.2,2.6c-0.4,0.3-0.9,0.6-1.4,0.6c-0.5,0-1.1-0.2-1.4-0.6c0.5,0.1,0.9,0.1,1.3,0
			c0.4-0.1,0.7-0.3,1-0.6C256.8,92.3,257.3,91.6,257.9,90.8z"/>
	</g>
	<g>
		<path class="st3" d="M222.6,85.7c0.3,0,0.7-0.1,1,0.2c0.2,0.1,0.3,0.4,0.2,0.6c0,0.2-0.1,0.4-0.2,0.5c-0.4,0.6-0.9,1-1.4,1.5
			l0.1-0.1c-0.1,0.2-0.1,0.4-0.1,0.5c0.1,0.1,0.3,0.3,0.5,0.5c0.2,0.2,0.5,0.4,0.7,0.6c0.2,0.2,0.4,0.6,0.4,1l0-0.1
			c0.2,0.7-0.2,1.3-0.7,1.6c-0.3,0.2-0.6,0.2-0.9,0.2c-0.3-0.1-0.5-0.2-0.7-0.5c0.2,0.2,0.5,0.3,0.7,0.2c0.2,0,0.4-0.1,0.6-0.3
			c0.3-0.3,0.5-0.8,0.3-1.1l0,0l0-0.1c0-0.4-0.5-0.7-1-1.1c-0.2-0.2-0.5-0.4-0.7-0.8c-0.2-0.4,0-0.9,0.2-1.2l0-0.1l0,0
			c0.5-0.4,1-0.7,1.4-1.2c0.2-0.2,0.3-0.5,0.2-0.6C223.3,85.8,222.9,85.8,222.6,85.7z"/>
	</g>
	<g>
		<path class="st3" d="M230.6,41.4c-0.1,0.3-0.3,0.5-0.3,0.8c0,0.3,0,0.5,0.2,0.7c0.3,0.4,0.9,0.6,1.4,0.8l0,0l0,0
			c0.4,0.2,0.7,0.6,0.9,1.1c0.1,0.5,0.1,0.9,0,1.4c-0.2,0.4-0.4,0.8-0.8,1c-0.4,0.2-0.8,0.3-1.2,0.2c0.4-0.1,0.7-0.3,1-0.5
			c0.2-0.3,0.4-0.6,0.5-0.9c0.2-0.7-0.1-1.3-0.6-1.7l0.1,0c-0.6-0.2-1.2-0.5-1.6-1.2c-0.2-0.3-0.2-0.7-0.1-1
			C230.2,41.8,230.4,41.6,230.6,41.4z"/>
	</g>
	<g>
		<path class="st3" d="M250.9,38.5c-0.9,0.7-1.3,1.6-1.4,2.6c0,1,0.4,1.9,1.4,2.4c-0.6,0-1.2-0.2-1.6-0.7c-0.4-0.5-0.6-1.1-0.6-1.7
			c0-0.6,0.2-1.2,0.6-1.7C249.8,38.9,250.4,38.6,250.9,38.5z"/>
	</g>
	<g>
		<path class="st3" d="M256.7,36.8c0.5,0.4,0.9,0.9,1.1,1.5c0.2,0.6,0.2,1.2,0,1.8c-0.4-0.5-0.5-1-0.7-1.6
			C256.9,38,256.7,37.4,256.7,36.8z"/>
	</g>
	<g>
		<path class="st3" d="M282.1,30.4c0.9,0.4,1.7,1.1,2.1,2.1l0.1,0.2l-0.2,0.2c-0.5,0.5-1.2,0.7-1.9,0.8l0.1-0.7
			c0.6,0.2,1.2,0.7,1.4,1.4c0.2,0.7,0.1,1.4-0.3,1.9c-0.4,0.5-0.9,0.9-1.6,1c-0.6,0.1-1.2-0.2-1.6-0.6c0.5,0.3,1.1,0.4,1.6,0.2
			c0.5-0.1,0.9-0.5,1.1-0.9c0.2-0.4,0.3-0.9,0.1-1.4c-0.2-0.4-0.5-0.7-1-0.9l-1.4-0.6l1.5-0.1c0.6,0,1.1-0.2,1.6-0.5l-0.1,0.3
			C283.4,31.9,282.8,31.1,282.1,30.4z"/>
	</g>
	<g>
		<path class="st3" d="M288.1,39.7c-0.7,0.7-1.1,1.5-1.3,2.4l-0.2-0.4c0.5,0.2,0.9,0.5,1.2,0.9c0.3,0.4,0.6,0.8,0.7,1.3
			c0.1,0.5,0.1,1-0.1,1.5c-0.2,0.5-0.7,0.8-1.1,0.9c0.4-0.3,0.6-0.7,0.7-1.1c0.1-0.4,0-0.8-0.1-1.2c-0.3-0.7-0.8-1.4-1.5-1.8
			l-0.3-0.1l0.1-0.3C286.4,40.9,287.2,40.1,288.1,39.7z"/>
	</g>
	<g>
		<g>
			<path class="st3" d="M303.2,44.2c0,0.6,0.2,1.1,0.2,1.6c0,0.3,0.1,0.6,0,0.9c0,0.2,0,0.3-0.1,0.5c0,0.1-0.1,0.2-0.1,0.2
				c0,0-0.1,0.1-0.1,0.1c0,0-0.1,0.1-0.1,0.1c-0.1,0,0,0.1-0.2,0.1c-0.1,0-0.2,0-0.2,0c-0.1,0-0.1-0.1-0.1-0.1
				c-0.1-0.1-0.1-0.2-0.1-0.2c0-0.1,0-0.1,0-0.2c0-0.1,0-0.2,0-0.3c0-0.2,0-0.3,0-0.4c0.1-0.3,0.1-0.6,0.2-0.8
				c0.1-0.3,0.2-0.5,0.3-0.8C303,44.7,303.2,44.4,303.2,44.2z M303.2,44.2c-0.1,0.4,0,0.6,0,0.8l0,0.8l-0.1,0.8c0,0.1,0,0.3,0,0.4
				c0,0.1,0,0.1,0,0.2c0,0,0,0,0,0c0,0,0-0.1-0.1-0.1c0,0,0,0-0.1,0c0,0-0.1,0-0.2,0c-0.2,0.1-0.1,0-0.1,0.1c0,0,0,0,0,0
				c0,0,0,0,0,0c0,0,0-0.1,0.1-0.1c0-0.1,0.1-0.2,0.1-0.3c0.1-0.2,0.1-0.5,0.1-0.8C302.9,45.3,303,44.7,303.2,44.2z"/>
		</g>
	</g>
</g>
</svg>
