<?xml version="1.0" encoding="utf-8"?>
<!-- Generator: Adobe Illustrator 24.2.3, SVG Export Plug-In . SVG Version: 6.00 Build 0)  -->
<svg version="1.1" id="noires" xmlns="http://www.w3.org/2000/svg" xmlns:xlink="http://www.w3.org/1999/xlink" x="0px" y="0px"
	 viewBox="0 0 553 574" style="enable-background:new 0 0 553 574;" xml:space="preserve">
<style type="text/css">
	.st0{opacity:0.65;}
	.st1{fill:#3A2317;}
	.st2{fill:none;}
	.st3{fill:#131313;}
</style>
<g>
	<g>
		<g>
			<g class="st0">
				<path class="st1" d="M247.3,153.5c0.5,0.1,0.7-0.8,0.2-1.1c-0.4-0.3-1-0.2-1.5-0.1c-0.6,1,1.1,2.1,1.8,1.3"/>
				<path class="st1" d="M242.3,155.9c0.5,0.1,0.7-0.8,0.2-1.1c-0.4-0.3-1-0.2-1.5-0.1c-0.6,1,1.1,2.1,1.8,1.3"/>
				<path class="st1" d="M239.4,150.7c0.5,0.1,0.7-0.8,0.2-1.1c-0.4-0.3-1-0.2-1.5-0.1c-0.6,1,1.1,2.1,1.8,1.3"/>
			</g>
		</g>
		<g>
			<g class="st0">
				<path class="st1" d="M305.1,153.5c-0.5,0.1-0.7-0.8-0.2-1.1c0.4-0.3,1-0.2,1.5-0.1c0.6,1-1.1,2.1-1.8,1.3"/>
				<path class="st1" d="M310.1,155.9c-0.5,0.1-0.7-0.8-0.2-1.1c0.4-0.3,1-0.2,1.5-0.1c0.6,1-1.1,2.1-1.8,1.3"/>
				<path class="st1" d="M313,150.7c-0.5,0.1-0.7-0.8-0.2-1.1c0.4-0.3,1-0.2,1.5-0.1c0.6,1-1.1,2.1-1.8,1.3"/>
			</g>
		</g>
	</g>
	<g>
		<path class="st2" d="M267.1,122c0,0-14.2-6.2-28.9-1.2c0,0-5.3,1.3-4.2,9.2c0,0,1.6,15.6,12.4,17.8c0,0,18,6,24-15.8
			C270.4,132,273.1,124.9,267.1,122z"/>
		<path class="st3" d="M321.9,120.1c0,0-24.3-8.1-38.6,0.6c0,0-4.7,3-6.8,3h-0.1c-2.1,0-6.8-3-6.8-3c-14.3-8.7-38.6-0.6-38.6-0.6
			c-2.3,0.6-11.7,11-11.4,11.8c0,0.1,4,2.9,4,2.9s5.8-10,5.8-10c0.7,1.2,2.7,7.2,3.2,9.6c0.1,0.6,0.3,1.2,0.5,1.9
			c5.2,15.7,18,14.2,21.2,13.6c0.6-0.1,1.2-0.2,1.7-0.3c12.7-1.6,17.1-18.2,17.1-18.2c0.9-2.9,2.6-3.2,3.3-3.2h0.1
			c0.7,0,2.4,0.2,3.3,3.2c0,0,4.4,16.7,17.1,18.2c0.6,0.1,1.2,0.1,1.7,0.3c3.2,0.6,15.9,2.1,21.2-13.6c0.2-0.6,0.4-1.2,0.5-1.9
			c0.5-2.3,2.5-8.3,3.2-9.6c0-0.1,7.4,11.7,7.4,11.7s3.4-3.3,3.4-3.4C334.6,132.4,324.1,120.8,321.9,120.1z M270.4,132
			c-5.9,21.7-24,15.8-24,15.8C235.6,145.6,234,130,234,130c-1.1-7.8,4.2-9.2,4.2-9.2c14.7-5,28.9,1.2,28.9,1.2
			C273.1,124.9,270.4,132,270.4,132z M318.9,130c0,0-1.6,15.6-12.4,17.8c0,0-18,6-24-15.8c0,0-2.8-7.1,3.2-10c0,0,14.2-6.2,28.9-1.2
			C314.7,120.8,319.9,122.2,318.9,130z"/>
	</g>
</g>
</svg>
