<?xml version="1.0" encoding="utf-8"?>
<!-- Generator: Adobe Illustrator 25.1.0, SVG Export Plug-In . SVG Version: 6.00 Build 0)  -->
<svg version="1.1" id="print" xmlns="http://www.w3.org/2000/svg" xmlns:xlink="http://www.w3.org/1999/xlink" x="0px" y="0px"
	 viewBox="0 0 162.1 43" style="enable-background:new 0 0 162.1 43;" xml:space="preserve">
<style type="text/css">
	.st0{fill:#002D74;}
	.st1{fill:#F4F4F4;}
	.st2{fill:#D52122;}
</style>
<g id="france">
	<path class="st0" d="M149.7,37.8v-3.2v-5.2V14.3V5.7h0v-1l0-2.6c-2.7-1.3-5.8-2-9-2H21.6C9.7,0.1,0.1,9.7,0.1,21.6
		c0,11.9,9.6,21.5,21.5,21.5h119.1c3.2,0,6.2-0.7,9-2L149.7,37.8L149.7,37.8z"/>
	<path class="st1" d="M162.2,21.6c0-8.7-5.1-16.2-12.5-19.6l0,2.7v1h0v8.6v15.1h0v5.2v3.2h0l0,3.4C157.1,37.7,162.2,30.3,162.2,21.6
		z"/>
	<g>
		<path class="st2" d="M160.9,14.3h-11.2v15.1h11.1c0.9-2.4,1.5-5,1.5-7.8C162.2,19,161.7,16.6,160.9,14.3z"/>
	</g>
</g>
</svg>
