<svg viewBox="0 0 166.56 47.54" xmlns="http://www.w3.org/2000/svg"><rect fill="#fff" height="47.54" rx="23.77" width="166.56"/><rect fill="#263068" height="47.54" rx="23.77" width="166.56"/><g opacity=".45"><g fill="none"><path d="m135.15 47.54h5a5.61 5.61 0 0 0 -5 0z"/><path d="m50.77 47.54h5a5.61 5.61 0 0 0 -5 0z"/><path d="m36.7 47.54h5a5.61 5.61 0 0 0 -5 0z"/><path d="m121.09 47.54h5a5.61 5.61 0 0 0 -5 0z"/><path d="m107 47.54h5a5.61 5.61 0 0 0 -5 0z"/><path d="m93 47.54h5a5.61 5.61 0 0 0 -5 0z"/><path d="m14.41 36.75a5.34 5.34 0 0 0 6.69 0 5.82 5.82 0 0 1 7.38 0 5.33 5.33 0 0 0 6.68 0 5.82 5.82 0 0 1 7.38 0 5.34 5.34 0 0 0 6.69 0 5.8 5.8 0 0 1 7.37 0 5.34 5.34 0 0 0 6.69 0 5.82 5.82 0 0 1 7.38 0 5.34 5.34 0 0 0 6.69 0 5.8 5.8 0 0 1 7.37 0 5.34 5.34 0 0 0 6.69 0 5.82 5.82 0 0 1 7.38 0 5.33 5.33 0 0 0 6.68 0 5.82 5.82 0 0 1 7.38 0 5.34 5.34 0 0 0 6.69 0 5.8 5.8 0 0 1 7.37 0 5.34 5.34 0 0 0 6.69 0 5.82 5.82 0 0 1 7.38 0 5.34 5.34 0 0 0 6.69 0 5.8 5.8 0 0 1 7.37 0 5.34 5.34 0 0 0 6.69 0 4.54 4.54 0 0 1 1.54-.93 23.56 23.56 0 0 0 2.32-5.37 5 5 0 0 0 -3.52 1.16 5.8 5.8 0 0 1 -7.37 0 5.34 5.34 0 0 0 -6.69 0 5.82 5.82 0 0 1 -7.38 0 5.33 5.33 0 0 0 -6.68 0 5.82 5.82 0 0 1 -7.38 0 5.34 5.34 0 0 0 -6.69 0 5.8 5.8 0 0 1 -7.37 0 5.34 5.34 0 0 0 -6.69 0 5.82 5.82 0 0 1 -7.38 0 5.34 5.34 0 0 0 -6.69 0 5.8 5.8 0 0 1 -7.37 0 5.34 5.34 0 0 0 -6.69 0 5.82 5.82 0 0 1 -7.38 0 5.33 5.33 0 0 0 -6.68 0 5.82 5.82 0 0 1 -7.38 0 5.34 5.34 0 0 0 -6.69 0 5.8 5.8 0 0 1 -7.37 0 5.34 5.34 0 0 0 -6.69 0 5.82 5.82 0 0 1 -7.38 0 5.33 5.33 0 0 0 -6.68 0 5.82 5.82 0 0 1 -7.38 0 5.34 5.34 0 0 0 -6.69 0 5.87 5.87 0 0 1 -5.68 1 24.16 24.16 0 0 0 2.92 5.24 4.51 4.51 0 0 0 2.38-1.1 5.8 5.8 0 0 1 7.41 0z"/><path d="m7 31.24a5.8 5.8 0 0 1 7.37 0 5.34 5.34 0 0 0 6.69 0 5.82 5.82 0 0 1 7.38 0 5.33 5.33 0 0 0 6.68 0 5.82 5.82 0 0 1 7.38 0 5.34 5.34 0 0 0 6.69 0 5.8 5.8 0 0 1 7.37 0 5.34 5.34 0 0 0 6.69 0 5.82 5.82 0 0 1 7.38 0 5.34 5.34 0 0 0 6.69 0 5.8 5.8 0 0 1 7.37 0 5.34 5.34 0 0 0 6.69 0 5.82 5.82 0 0 1 7.38 0 5.33 5.33 0 0 0 6.68 0 5.82 5.82 0 0 1 7.38 0 5.34 5.34 0 0 0 6.69 0 5.8 5.8 0 0 1 7.37 0 5.34 5.34 0 0 0 6.69 0 5.82 5.82 0 0 1 7.38 0 5.34 5.34 0 0 0 6.69 0 5.8 5.8 0 0 1 7.37 0 5.31 5.31 0 0 0 6.69 0 5.52 5.52 0 0 1 4-1.29 23.41 23.41 0 0 0 .79-4.91 5.27 5.27 0 0 0 -4.45 1.06 5.77 5.77 0 0 1 -7.37 0 5.41 5.41 0 0 0 -6-.5l-.13-.21.13.22a3.4 3.4 0 0 0 -.67.49 5.79 5.79 0 0 1 -7.38 0 5.33 5.33 0 0 0 -6.68 0 5.79 5.79 0 0 1 -7.38 0 5.34 5.34 0 0 0 -6.69 0 5.78 5.78 0 0 1 -7.37 0 5.34 5.34 0 0 0 -6.69 0 5.79 5.79 0 0 1 -7.38 0 5.34 5.34 0 0 0 -6.69 0 5.77 5.77 0 0 1 -7.37 0 5.34 5.34 0 0 0 -6.69 0 5.79 5.79 0 0 1 -7.38 0 5.34 5.34 0 0 0 -6.68 0 5.79 5.79 0 0 1 -7.38 0 5.34 5.34 0 0 0 -6.69 0 5.78 5.78 0 0 1 -7.37 0 5.35 5.35 0 0 0 -6.69 0 5.79 5.79 0 0 1 -7.38 0 5.33 5.33 0 0 0 -6.68 0 5.79 5.79 0 0 1 -7.38 0 5.34 5.34 0 0 0 -6.69 0 5.82 5.82 0 0 1 -7.26.09 23.37 23.37 0 0 0 1.32 5.75 5.41 5.41 0 0 0 5.58-.7z"/><path d="m21.64 4.4a5.8 5.8 0 0 1 7.36 0 5.34 5.34 0 0 0 6.69 0 5.82 5.82 0 0 1 7.38 0 5.34 5.34 0 0 0 6.69 0 5.8 5.8 0 0 1 7.37 0 5.34 5.34 0 0 0 6.69 0 5.82 5.82 0 0 1 7.38 0 5.33 5.33 0 0 0 6.68 0 5.82 5.82 0 0 1 7.38 0 5.34 5.34 0 0 0 6.74 0 5.8 5.8 0 0 1 7.37 0 5.34 5.34 0 0 0 6.69 0 5.82 5.82 0 0 1 7.38 0 5.34 5.34 0 0 0 6.69 0 5.8 5.8 0 0 1 7.37 0 5.34 5.34 0 0 0 6.69 0 5.82 5.82 0 0 1 7.38 0 5.33 5.33 0 0 0 6.68 0 5.82 5.82 0 0 1 7.38 0 4.56 4.56 0 0 0 2.37 1.11 23.64 23.64 0 0 0 -15.21-5.51h-119a23.68 23.68 0 0 0 -11.79 3.14 5.1 5.1 0 0 1 3 1.26 5.34 5.34 0 0 0 6.64 0z"/><path d="m64.83 47.54h5a5.61 5.61 0 0 0 -5 0z"/><path d="m7.57 15.41a5.82 5.82 0 0 1 7.38 0 5.34 5.34 0 0 0 6.69 0 5.8 5.8 0 0 1 7.37 0 5.34 5.34 0 0 0 6.69 0 5.82 5.82 0 0 1 7.38 0 5.34 5.34 0 0 0 6.69 0 5.8 5.8 0 0 1 7.37 0 5.34 5.34 0 0 0 6.69 0 5.82 5.82 0 0 1 7.38 0 5.33 5.33 0 0 0 6.68 0 5.82 5.82 0 0 1 7.38 0 5.34 5.34 0 0 0 6.69 0 5.8 5.8 0 0 1 7.37 0 5.34 5.34 0 0 0 6.69 0 5.82 5.82 0 0 1 7.38 0 5.34 5.34 0 0 0 6.69 0 5.8 5.8 0 0 1 7.37 0 5.34 5.34 0 0 0 6.69 0 5.82 5.82 0 0 1 7.38 0 5.33 5.33 0 0 0 6.68 0 5.82 5.82 0 0 1 7.38 0 5.34 5.34 0 0 0 6.69 0 4.87 4.87 0 0 1 2.3-1.15 24.18 24.18 0 0 0 -2.14-3.86 5.8 5.8 0 0 1 -7.19-.13 5.34 5.34 0 0 0 -6.69 0 5.82 5.82 0 0 1 -7.38 0 5.34 5.34 0 0 0 -6.69 0 5.8 5.8 0 0 1 -7.37 0 5.34 5.34 0 0 0 -6.69 0 5.82 5.82 0 0 1 -7.38 0 5.33 5.33 0 0 0 -6.68 0 5.82 5.82 0 0 1 -7.38 0 5.34 5.34 0 0 0 -6.69 0 5.8 5.8 0 0 1 -7.37 0 5.34 5.34 0 0 0 -6.69 0 5.82 5.82 0 0 1 -7.38 0 5.34 5.34 0 0 0 -6.69 0 5.8 5.8 0 0 1 -7.37 0 5.34 5.34 0 0 0 -6.69 0 5.82 5.82 0 0 1 -7.38 0 5.33 5.33 0 0 0 -6.68 0 5.82 5.82 0 0 1 -7.38 0 5.34 5.34 0 0 0 -6.69 0 5.8 5.8 0 0 1 -7.37 0 5.34 5.34 0 0 0 -6.69 0 5.61 5.61 0 0 1 -4.52 1.25 23.41 23.41 0 0 0 -2 4.26 5.4 5.4 0 0 0 6.17-.37z"/><path d="m28.5 47.54h7.3a5.88 5.88 0 0 1 6.77 0h7.29a5.88 5.88 0 0 1 6.77 0h7.3a5.86 5.86 0 0 1 6.76 0h7.31a5.88 5.88 0 0 1 6.77 0h7.3a5.86 5.86 0 0 1 6.76 0h7.3a5.86 5.86 0 0 1 6.76 0h7.3a5.88 5.88 0 0 1 6.77 0h7.3a5.86 5.86 0 0 1 6.76 0h1.78a23.72 23.72 0 0 0 13.42-4.15 4.48 4.48 0 0 1 -1.17-.77 5.37 5.37 0 0 0 -6.69 0 5.79 5.79 0 0 1 -7.38 0 5.35 5.35 0 0 0 -6.68 0 5.79 5.79 0 0 1 -7.38 0 5.37 5.37 0 0 0 -6.69 0 5.78 5.78 0 0 1 -7.37 0 5.37 5.37 0 0 0 -6.69 0 5.79 5.79 0 0 1 -7.38 0 5.37 5.37 0 0 0 -6.69 0 5.78 5.78 0 0 1 -7.37 0 5.37 5.37 0 0 0 -6.69 0 5.78 5.78 0 0 1 -7.37 0 5.37 5.37 0 0 0 -6.69 0 5.79 5.79 0 0 1 -7.38 0 5.37 5.37 0 0 0 -6.69 0 5.78 5.78 0 0 1 -7.37 0 5.37 5.37 0 0 0 -6.69 0 5.79 5.79 0 0 1 -7.38 0 5.35 5.35 0 0 0 -6.68 0 5.79 5.79 0 0 1 -7.38 0 5.41 5.41 0 0 0 -5.84-.62 23.62 23.62 0 0 0 13.28 5.41 5.89 5.89 0 0 1 6.65.13z"/><path d="m14.74 42.26a5.34 5.34 0 0 0 6.69 0 5.82 5.82 0 0 1 7.38 0 5.33 5.33 0 0 0 6.68 0 5.82 5.82 0 0 1 7.38 0 5.34 5.34 0 0 0 6.69 0 5.82 5.82 0 0 1 7.38 0 5.33 5.33 0 0 0 6.68 0 5.82 5.82 0 0 1 7.38 0 5.34 5.34 0 0 0 6.69 0 5.8 5.8 0 0 1 7.37 0 5.34 5.34 0 0 0 6.69 0 5.82 5.82 0 0 1 7.38 0 5.34 5.34 0 0 0 6.69 0 5.8 5.8 0 0 1 7.37 0 5.34 5.34 0 0 0 6.69 0 5.8 5.8 0 0 1 7.37 0 5.34 5.34 0 0 0 6.69 0 5.82 5.82 0 0 1 7.38 0 5.34 5.34 0 0 0 6.69 0 5.8 5.8 0 0 1 7.37 0 4.08 4.08 0 0 0 1.3.79 23.68 23.68 0 0 0 6.12-6.46 4.12 4.12 0 0 0 -.72.52 5.8 5.8 0 0 1 -7.37 0 5.34 5.34 0 0 0 -6.69 0 5.82 5.82 0 0 1 -7.38 0 5.33 5.33 0 0 0 -6.68 0 5.82 5.82 0 0 1 -7.38 0 5.34 5.34 0 0 0 -6.69 0 5.8 5.8 0 0 1 -7.37 0 5.34 5.34 0 0 0 -6.69 0 5.82 5.82 0 0 1 -7.38 0 5.34 5.34 0 0 0 -6.69 0 5.79 5.79 0 0 1 -7.37 0 5.34 5.34 0 0 0 -6.69 0 5.82 5.82 0 0 1 -7.38 0 5.33 5.33 0 0 0 -6.68 0 5.82 5.82 0 0 1 -7.38 0 5.34 5.34 0 0 0 -6.69 0 5.8 5.8 0 0 1 -7.37 0 5.35 5.35 0 0 0 -6.69 0 5.82 5.82 0 0 1 -7.38 0 5.33 5.33 0 0 0 -6.68 0 5.82 5.82 0 0 1 -7.38 0 5.34 5.34 0 0 0 -6.69 0 4.92 4.92 0 0 1 -2.38 1.18 23.81 23.81 0 0 0 3.19 3.39 5.89 5.89 0 0 1 6.55.58z"/><path d="m78.9 47.54h4.95a5.59 5.59 0 0 0 -4.95 0z"/><path d="m22.7 47.51h1.07 3.83a5.65 5.65 0 0 0 -4.9 0z"/><path d="m7 20.24a5.78 5.78 0 0 1 7.37 0 5.35 5.35 0 0 0 6.69 0 5.79 5.79 0 0 1 7.38 0 5.35 5.35 0 0 0 6.68 0 5.79 5.79 0 0 1 7.38 0 5.37 5.37 0 0 0 6.69 0 5.78 5.78 0 0 1 7.37 0 5.37 5.37 0 0 0 6.69 0 5.79 5.79 0 0 1 7.38 0 5.37 5.37 0 0 0 6.69 0 5.78 5.78 0 0 1 7.37 0 5.35 5.35 0 0 0 6.69 0 5.79 5.79 0 0 1 7.38 0 5.35 5.35 0 0 0 6.68 0 5.79 5.79 0 0 1 7.38 0 5.37 5.37 0 0 0 6.69 0 5.78 5.78 0 0 1 7.37 0 5.37 5.37 0 0 0 6.69 0 5.79 5.79 0 0 1 7.38 0 5.37 5.37 0 0 0 6.69 0 5.78 5.78 0 0 1 7.37 0 5.34 5.34 0 0 0 6.69 0 5.57 5.57 0 0 1 4.37-1.24 24.19 24.19 0 0 0 -1.29-4.24 4.43 4.43 0 0 0 -2.16 1 5.8 5.8 0 0 1 -7.37 0 5.34 5.34 0 0 0 -6.69 0 5.82 5.82 0 0 1 -7.38 0 5.34 5.34 0 0 0 -6.69 0 5.8 5.8 0 0 1 -7.37 0 5.34 5.34 0 0 0 -6.69 0 5.82 5.82 0 0 1 -7.38 0 5.33 5.33 0 0 0 -6.68 0 5.82 5.82 0 0 1 -7.38 0 5.34 5.34 0 0 0 -6.69 0 5.8 5.8 0 0 1 -7.37 0 5.34 5.34 0 0 0 -6.69 0 5.82 5.82 0 0 1 -7.38 0 5.34 5.34 0 0 0 -6.69 0 5.8 5.8 0 0 1 -7.37 0 5.34 5.34 0 0 0 -6.69 0 5.82 5.82 0 0 1 -7.38 0 5.33 5.33 0 0 0 -6.68 0 5.82 5.82 0 0 1 -7.38 0 5.34 5.34 0 0 0 -6.69 0 5.8 5.8 0 0 1 -7.37 0 5.34 5.34 0 0 0 -6.69 0 5.89 5.89 0 0 1 -6.71.5 23.86 23.86 0 0 0 -.94 3.9s.06 0 .08.06a5.37 5.37 0 0 0 6.65.02z"/><path d="m7 25.74a5.8 5.8 0 0 1 7.37 0 5.34 5.34 0 0 0 6.69 0 5.82 5.82 0 0 1 7.38 0 5.33 5.33 0 0 0 6.68 0 5.82 5.82 0 0 1 7.38 0 5.34 5.34 0 0 0 6.69 0 5.8 5.8 0 0 1 7.37 0 5.34 5.34 0 0 0 6.69 0 5.82 5.82 0 0 1 7.38 0 5.34 5.34 0 0 0 6.69 0 5.8 5.8 0 0 1 7.37 0 5.34 5.34 0 0 0 6.69 0 5.82 5.82 0 0 1 7.38 0 5.33 5.33 0 0 0 6.68 0 5.82 5.82 0 0 1 7.38 0 5.34 5.34 0 0 0 6.69 0 5.8 5.8 0 0 1 7.37 0 5.34 5.34 0 0 0 6.69 0 5.82 5.82 0 0 1 7.38 0 5.34 5.34 0 0 0 6.69 0 4.35 4.35 0 0 1 .75-.57 6 6 0 0 1 6.62.57 5.34 5.34 0 0 0 6.69 0 5.71 5.71 0 0 1 4.8-1.22c0-.25 0-.5 0-.75a24.19 24.19 0 0 0 -.39-4.29 5.18 5.18 0 0 0 -4.09 1.12 5.8 5.8 0 0 1 -7.37 0 5.34 5.34 0 0 0 -6.69 0 5.82 5.82 0 0 1 -7.38 0 5.33 5.33 0 0 0 -6.68 0 5.82 5.82 0 0 1 -7.38 0 5.34 5.34 0 0 0 -6.69 0 5.8 5.8 0 0 1 -7.37 0 5.34 5.34 0 0 0 -6.69 0 5.82 5.82 0 0 1 -7.38 0 5.34 5.34 0 0 0 -6.69 0 5.8 5.8 0 0 1 -7.37 0 5.34 5.34 0 0 0 -6.69 0 5.82 5.82 0 0 1 -7.38 0 5.33 5.33 0 0 0 -6.68 0 5.82 5.82 0 0 1 -7.38 0 5.34 5.34 0 0 0 -6.69 0 5.8 5.8 0 0 1 -7.37 0 5.34 5.34 0 0 0 -6.69 0 5.82 5.82 0 0 1 -7.38 0 5.33 5.33 0 0 0 -6.68 0 5.82 5.82 0 0 1 -7.38 0 5.34 5.34 0 0 0 -6.69 0 5.81 5.81 0 0 1 -7.18.14 23.25 23.25 0 0 0 -.2 3c0 .59 0 1.18.07 1.76.09.08.2.13.28.21a5.34 5.34 0 0 0 6.71.03z"/><path d="m7.57 9.91a5.82 5.82 0 0 1 7.38 0 5.34 5.34 0 0 0 6.69 0 5.8 5.8 0 0 1 7.37 0 5.34 5.34 0 0 0 6.69 0 5.82 5.82 0 0 1 7.38 0 5.34 5.34 0 0 0 6.69 0 5.8 5.8 0 0 1 7.37 0 5.34 5.34 0 0 0 6.69 0 5.82 5.82 0 0 1 7.38 0 5.33 5.33 0 0 0 6.68 0 5.82 5.82 0 0 1 7.38 0 5.34 5.34 0 0 0 6.69 0 5.8 5.8 0 0 1 7.37 0 5.34 5.34 0 0 0 6.69 0 5.82 5.82 0 0 1 7.38 0 5.34 5.34 0 0 0 6.69 0 5.8 5.8 0 0 1 7.37 0 5.34 5.34 0 0 0 6.69 0 5.82 5.82 0 0 1 7.38 0 5.33 5.33 0 0 0 6.68 0 5.82 5.82 0 0 1 7.38 0 5.37 5.37 0 0 0 6.57.09 24 24 0 0 0 -3.52-3.94 5.26 5.26 0 0 1 -3.39-1.29 5.34 5.34 0 0 0 -6.69 0 5.82 5.82 0 0 1 -7.38 0 5.34 5.34 0 0 0 -6.69 0 5.8 5.8 0 0 1 -7.37 0 5.34 5.34 0 0 0 -6.69 0 5.82 5.82 0 0 1 -7.38 0 5.33 5.33 0 0 0 -6.68 0 5.82 5.82 0 0 1 -7.38 0 5.34 5.34 0 0 0 -6.69 0 5.8 5.8 0 0 1 -7.37 0 5.34 5.34 0 0 0 -6.69 0 5.82 5.82 0 0 1 -7.38 0 5.34 5.34 0 0 0 -6.69 0 5.8 5.8 0 0 1 -7.37 0 5.34 5.34 0 0 0 -6.69 0 5.82 5.82 0 0 1 -7.38 0 5.33 5.33 0 0 0 -6.68 0 5.82 5.82 0 0 1 -7.38 0 5.34 5.34 0 0 0 -6.69 0 5.8 5.8 0 0 1 -7.37 0 4.93 4.93 0 0 0 -3.4-1.18 23.85 23.85 0 0 0 -7.51 7.41 5.06 5.06 0 0 0 3.87-1.09z"/></g><g fill="#fff"><path d="m1.21 16.28a5.89 5.89 0 0 0 6.71-.5 5.34 5.34 0 0 1 6.69 0 5.8 5.8 0 0 0 7.37 0 5.34 5.34 0 0 1 6.69 0 5.82 5.82 0 0 0 7.38 0 5.33 5.33 0 0 1 6.68 0 5.82 5.82 0 0 0 7.38 0 5.34 5.34 0 0 1 6.69 0 5.8 5.8 0 0 0 7.37 0 5.34 5.34 0 0 1 6.69 0 5.82 5.82 0 0 0 7.38 0 5.34 5.34 0 0 1 6.69 0 5.8 5.8 0 0 0 7.37 0 5.34 5.34 0 0 1 6.69 0 5.82 5.82 0 0 0 7.38 0 5.33 5.33 0 0 1 6.68 0 5.82 5.82 0 0 0 7.38 0 5.34 5.34 0 0 1 6.69 0 5.8 5.8 0 0 0 7.37 0 5.34 5.34 0 0 1 6.69 0 5.82 5.82 0 0 0 7.38 0 5.34 5.34 0 0 1 6.69 0 5.8 5.8 0 0 0 7.37 0 4.43 4.43 0 0 1 2.16-1c-.07-.15-.13-.31-.2-.47a4.87 4.87 0 0 0 -2.3 1.15 5.34 5.34 0 0 1 -6.69 0 5.82 5.82 0 0 0 -7.38 0 5.33 5.33 0 0 1 -6.68 0 5.82 5.82 0 0 0 -7.38 0 5.34 5.34 0 0 1 -6.69 0 5.8 5.8 0 0 0 -7.37 0 5.34 5.34 0 0 1 -6.69 0 5.82 5.82 0 0 0 -7.38 0 5.34 5.34 0 0 1 -6.69 0 5.8 5.8 0 0 0 -7.37 0 5.34 5.34 0 0 1 -6.69 0 5.82 5.82 0 0 0 -7.38 0 5.33 5.33 0 0 1 -6.68 0 5.82 5.82 0 0 0 -7.38 0 5.34 5.34 0 0 1 -6.69 0 5.8 5.8 0 0 0 -7.37 0 5.34 5.34 0 0 1 -6.69 0 5.82 5.82 0 0 0 -7.38 0 5.34 5.34 0 0 1 -6.69 0 5.8 5.8 0 0 0 -7.37 0 5.34 5.34 0 0 1 -6.69 0 5.82 5.82 0 0 0 -7.38 0 5.4 5.4 0 0 1 -6.19.37c-.06.11-.11.28-.17.45z"/><path d="m134.15 4.4a5.34 5.34 0 0 1 -6.69 0 5.8 5.8 0 0 0 -7.37 0 5.34 5.34 0 0 1 -6.69 0 5.82 5.82 0 0 0 -7.38 0 5.34 5.34 0 0 1 -6.69 0 5.8 5.8 0 0 0 -7.33 0 5.34 5.34 0 0 1 -6.69 0 5.82 5.82 0 0 0 -7.38 0 5.33 5.33 0 0 1 -6.68 0 5.82 5.82 0 0 0 -7.38 0 5.34 5.34 0 0 1 -6.69 0 5.8 5.8 0 0 0 -7.37 0 5.34 5.34 0 0 1 -6.69 0 5.82 5.82 0 0 0 -7.38 0 5.34 5.34 0 0 1 -6.74 0 5.8 5.8 0 0 0 -7.37 0 5.34 5.34 0 0 1 -6.63 0 5.1 5.1 0 0 0 -3-1.26l-.76.45a4.93 4.93 0 0 1 3.4 1.18 5.8 5.8 0 0 0 7.37 0 5.34 5.34 0 0 1 6.69 0 5.82 5.82 0 0 0 7.38 0 5.33 5.33 0 0 1 6.68 0 5.82 5.82 0 0 0 7.38 0 5.34 5.34 0 0 1 6.69 0 5.8 5.8 0 0 0 7.37 0 5.34 5.34 0 0 1 6.69 0 5.82 5.82 0 0 0 7.38 0 5.34 5.34 0 0 1 6.69 0 5.8 5.8 0 0 0 7.37 0 5.34 5.34 0 0 1 6.69 0 5.82 5.82 0 0 0 7.38 0 5.33 5.33 0 0 1 6.68 0 5.82 5.82 0 0 0 7.38 0 5.34 5.34 0 0 1 6.69 0 5.8 5.8 0 0 0 7.37 0 5.34 5.34 0 0 1 6.69 0 5.82 5.82 0 0 0 7.38 0 5.34 5.34 0 0 1 6.69 0 5.26 5.26 0 0 0 3.39 1.29l-.67-.55a4.56 4.56 0 0 1 -2.41-1.11 5.82 5.82 0 0 0 -7.38 0 5.33 5.33 0 0 1 -6.68 0 5.82 5.82 0 0 0 -7.38 0z"/><path d="m155.59 9.91a5.82 5.82 0 0 0 -7.38 0 5.33 5.33 0 0 1 -6.68 0 5.82 5.82 0 0 0 -7.38 0 5.34 5.34 0 0 1 -6.69 0 5.8 5.8 0 0 0 -7.37 0 5.34 5.34 0 0 1 -6.69 0 5.82 5.82 0 0 0 -7.38 0 5.34 5.34 0 0 1 -6.69 0 5.8 5.8 0 0 0 -7.37 0 5.34 5.34 0 0 1 -6.69 0 5.82 5.82 0 0 0 -7.38 0 5.33 5.33 0 0 1 -6.68 0 5.82 5.82 0 0 0 -7.38 0 5.34 5.34 0 0 1 -6.69 0 5.8 5.8 0 0 0 -7.37 0 5.34 5.34 0 0 1 -6.69 0 5.82 5.82 0 0 0 -7.38 0 5.34 5.34 0 0 1 -6.69 0 5.8 5.8 0 0 0 -7.37 0 5.34 5.34 0 0 1 -6.69 0 5.82 5.82 0 0 0 -7.38 0 5.06 5.06 0 0 1 -3.87 1.09c-.1.16-.21.32-.3.48a5.61 5.61 0 0 0 4.52-1.25 5.34 5.34 0 0 1 6.69 0 5.8 5.8 0 0 0 7.37 0 5.34 5.34 0 0 1 6.69 0 5.82 5.82 0 0 0 7.38 0 5.33 5.33 0 0 1 6.68 0 5.82 5.82 0 0 0 7.38 0 5.34 5.34 0 0 1 6.69 0 5.8 5.8 0 0 0 7.37 0 5.34 5.34 0 0 1 6.69 0 5.82 5.82 0 0 0 7.38 0 5.34 5.34 0 0 1 6.69 0 5.8 5.8 0 0 0 7.37 0 5.34 5.34 0 0 1 6.69 0 5.82 5.82 0 0 0 7.38 0 5.33 5.33 0 0 1 6.68 0 5.82 5.82 0 0 0 7.38 0 5.34 5.34 0 0 1 6.69 0 5.8 5.8 0 0 0 7.37 0 5.34 5.34 0 0 1 6.69 0 5.82 5.82 0 0 0 7.38 0 5.34 5.34 0 0 1 6.69 0 5.8 5.8 0 0 0 7.19.13l-.28-.4a5.37 5.37 0 0 1 -6.57-.05z"/><path d="m161.74 25.74a5.34 5.34 0 0 1 -6.69 0 6 6 0 0 0 -6.62-.57 4.35 4.35 0 0 0 -.75.57 5.34 5.34 0 0 1 -6.69 0 5.82 5.82 0 0 0 -7.38 0 5.34 5.34 0 0 1 -6.69 0 5.8 5.8 0 0 0 -7.37 0 5.34 5.34 0 0 1 -6.69 0 5.82 5.82 0 0 0 -7.38 0 5.33 5.33 0 0 1 -6.68 0 5.82 5.82 0 0 0 -7.38 0 5.34 5.34 0 0 1 -6.69 0 5.8 5.8 0 0 0 -7.37 0 5.34 5.34 0 0 1 -6.69 0 5.82 5.82 0 0 0 -7.38 0 5.34 5.34 0 0 1 -6.69 0 5.8 5.8 0 0 0 -7.37 0 5.34 5.34 0 0 1 -6.69 0 5.82 5.82 0 0 0 -7.38 0 5.33 5.33 0 0 1 -6.68 0 5.82 5.82 0 0 0 -7.38 0 5.34 5.34 0 0 1 -6.69 0 5.8 5.8 0 0 0 -7.37 0 5.34 5.34 0 0 1 -6.69 0 2.92 2.92 0 0 0 -.28-.21v.66a5.82 5.82 0 0 0 7.26-.09 5.34 5.34 0 0 1 6.69 0 5.82 5.82 0 0 0 7.38 0 5.33 5.33 0 0 1 6.68 0 5.82 5.82 0 0 0 7.38 0 5.35 5.35 0 0 1 6.69 0 5.8 5.8 0 0 0 7.37 0 5.34 5.34 0 0 1 6.69 0 5.82 5.82 0 0 0 7.38 0 5.34 5.34 0 0 1 6.68 0 5.82 5.82 0 0 0 7.38 0 5.34 5.34 0 0 1 6.69 0 5.77 5.77 0 0 0 7.37 0 5.34 5.34 0 0 1 6.69 0 5.79 5.79 0 0 0 7.38 0 5.34 5.34 0 0 1 6.69 0 5.8 5.8 0 0 0 7.37 0 5.34 5.34 0 0 1 6.69 0 5.79 5.79 0 0 0 7.38 0 5.33 5.33 0 0 1 6.68 0 5.82 5.82 0 0 0 7.38 0 3.4 3.4 0 0 1 .67-.49l-.13-.22.13.21a5.41 5.41 0 0 1 6 .5 5.77 5.77 0 0 0 7.37 0 5.27 5.27 0 0 1 4.52-1.1c0-.17 0-.34 0-.52a5.71 5.71 0 0 0 -4.79 1.26z"/><path d="m155.05 36.75a5.8 5.8 0 0 0 -7.37 0 5.34 5.34 0 0 1 -6.69 0 5.82 5.82 0 0 0 -7.38 0 5.34 5.34 0 0 1 -6.69 0 5.8 5.8 0 0 0 -7.37 0 5.34 5.34 0 0 1 -6.69 0 5.82 5.82 0 0 0 -7.38 0 5.33 5.33 0 0 1 -6.68 0 5.82 5.82 0 0 0 -7.38 0 5.34 5.34 0 0 1 -6.69 0 5.8 5.8 0 0 0 -7.37 0 5.34 5.34 0 0 1 -6.69 0 5.82 5.82 0 0 0 -7.38 0 5.34 5.34 0 0 1 -6.69 0 5.8 5.8 0 0 0 -7.37 0 5.34 5.34 0 0 1 -6.69 0 5.82 5.82 0 0 0 -7.38 0 5.33 5.33 0 0 1 -6.68 0 5.82 5.82 0 0 0 -7.38 0 5.34 5.34 0 0 1 -6.69 0 5.8 5.8 0 0 0 -7.37 0 4.51 4.51 0 0 1 -2.42 1.1l.34.44a4.92 4.92 0 0 0 2.42-1.18 5.34 5.34 0 0 1 6.69 0 5.82 5.82 0 0 0 7.38 0 5.33 5.33 0 0 1 6.68 0 5.82 5.82 0 0 0 7.38 0 5.35 5.35 0 0 1 6.69 0 5.8 5.8 0 0 0 7.37 0 5.34 5.34 0 0 1 6.69 0 5.82 5.82 0 0 0 7.38 0 5.33 5.33 0 0 1 6.68 0 5.82 5.82 0 0 0 7.38 0 5.34 5.34 0 0 1 6.69 0 5.79 5.79 0 0 0 7.37 0 5.34 5.34 0 0 1 6.69 0 5.82 5.82 0 0 0 7.38 0 5.34 5.34 0 0 1 6.69 0 5.8 5.8 0 0 0 7.37 0 5.34 5.34 0 0 1 6.69 0 5.82 5.82 0 0 0 7.38 0 5.33 5.33 0 0 1 6.68 0 5.82 5.82 0 0 0 7.38 0 5.34 5.34 0 0 1 6.69 0 5.8 5.8 0 0 0 7.37 0 4.12 4.12 0 0 1 .72-.52l.48-.77a4.54 4.54 0 0 0 -1.54.93 5.34 5.34 0 0 1 -6.69 0z"/><path d="m155.05 31.24a5.8 5.8 0 0 0 -7.37 0 5.34 5.34 0 0 1 -6.69 0 5.82 5.82 0 0 0 -7.38 0 5.34 5.34 0 0 1 -6.69 0 5.8 5.8 0 0 0 -7.37 0 5.34 5.34 0 0 1 -6.69 0 5.82 5.82 0 0 0 -7.38 0 5.33 5.33 0 0 1 -6.68 0 5.82 5.82 0 0 0 -7.38 0 5.34 5.34 0 0 1 -6.69 0 5.8 5.8 0 0 0 -7.37 0 5.34 5.34 0 0 1 -6.69 0 5.82 5.82 0 0 0 -7.38 0 5.34 5.34 0 0 1 -6.69 0 5.8 5.8 0 0 0 -7.37 0 5.34 5.34 0 0 1 -6.69 0 5.82 5.82 0 0 0 -7.38 0 5.33 5.33 0 0 1 -6.68 0 5.82 5.82 0 0 0 -7.38 0 5.34 5.34 0 0 1 -6.69 0 5.8 5.8 0 0 0 -7.37 0 5.41 5.41 0 0 1 -5.6.7c.08.22.17.44.26.66a5.84 5.84 0 0 0 5.68-1 5.34 5.34 0 0 1 6.69 0 5.82 5.82 0 0 0 7.38 0 5.33 5.33 0 0 1 6.68 0 5.82 5.82 0 0 0 7.38 0 5.34 5.34 0 0 1 6.69 0 5.8 5.8 0 0 0 7.37 0 5.34 5.34 0 0 1 6.69 0 5.82 5.82 0 0 0 7.38 0 5.33 5.33 0 0 1 6.68 0 5.82 5.82 0 0 0 7.38 0 5.34 5.34 0 0 1 6.69 0 5.8 5.8 0 0 0 7.37 0 5.34 5.34 0 0 1 6.69 0 5.82 5.82 0 0 0 7.38 0 5.34 5.34 0 0 1 6.69 0 5.8 5.8 0 0 0 7.37 0 5.34 5.34 0 0 1 6.69 0 5.82 5.82 0 0 0 7.38 0 5.33 5.33 0 0 1 6.68 0 5.82 5.82 0 0 0 7.38 0 5.34 5.34 0 0 1 6.69 0 5.8 5.8 0 0 0 7.37 0 5 5 0 0 1 3.52-1.16c.05-.17.1-.33.14-.5a5.52 5.52 0 0 0 -4 1.29 5.31 5.31 0 0 1 -6.69.01z"/><path d="m.27 20.18c0 .18-.05.37-.07.56a5.81 5.81 0 0 0 7.18-.14 5.34 5.34 0 0 1 6.69 0 5.82 5.82 0 0 0 7.38 0 5.33 5.33 0 0 1 6.68 0 5.82 5.82 0 0 0 7.38 0 5.34 5.34 0 0 1 6.69 0 5.8 5.8 0 0 0 7.37 0 5.34 5.34 0 0 1 6.69 0 5.82 5.82 0 0 0 7.38 0 5.33 5.33 0 0 1 6.68 0 5.82 5.82 0 0 0 7.38 0 5.34 5.34 0 0 1 6.69 0 5.8 5.8 0 0 0 7.37 0 5.34 5.34 0 0 1 6.69 0 5.82 5.82 0 0 0 7.38 0 5.34 5.34 0 0 1 6.69 0 5.8 5.8 0 0 0 7.37 0 5.34 5.34 0 0 1 6.69 0 5.82 5.82 0 0 0 7.38 0 5.33 5.33 0 0 1 6.68 0 5.82 5.82 0 0 0 7.38 0 5.34 5.34 0 0 1 6.69 0 5.8 5.8 0 0 0 7.37 0 5.18 5.18 0 0 1 4.09-1.12c0-.17-.06-.34-.1-.51a5.57 5.57 0 0 0 -4.33 1.27 5.34 5.34 0 0 1 -6.69 0 5.78 5.78 0 0 0 -7.37 0 5.37 5.37 0 0 1 -6.69 0 5.79 5.79 0 0 0 -7.38 0 5.37 5.37 0 0 1 -6.69 0 5.78 5.78 0 0 0 -7.37 0 5.37 5.37 0 0 1 -6.69 0 5.79 5.79 0 0 0 -7.38 0 5.35 5.35 0 0 1 -6.68 0 5.79 5.79 0 0 0 -7.38 0 5.35 5.35 0 0 1 -6.69 0 5.78 5.78 0 0 0 -7.37 0 5.37 5.37 0 0 1 -6.69 0 5.79 5.79 0 0 0 -7.38 0 5.37 5.37 0 0 1 -6.69 0 5.78 5.78 0 0 0 -7.37 0 5.37 5.37 0 0 1 -6.69 0 5.79 5.79 0 0 0 -7.38 0 5.35 5.35 0 0 1 -6.68 0 5.79 5.79 0 0 0 -7.38 0 5.35 5.35 0 0 1 -6.69 0 5.78 5.78 0 0 0 -7.37 0 5.37 5.37 0 0 1 -6.69 0s-.06-.04-.08-.06z"/><path d="m148 42.26a5.34 5.34 0 0 1 -6.69 0 5.82 5.82 0 0 0 -7.38 0 5.34 5.34 0 0 1 -6.69 0 5.8 5.8 0 0 0 -7.37 0 5.34 5.34 0 0 1 -6.69 0 5.8 5.8 0 0 0 -7.37 0 5.34 5.34 0 0 1 -6.69 0 5.82 5.82 0 0 0 -7.38 0 5.34 5.34 0 0 1 -6.69 0 5.8 5.8 0 0 0 -7.37 0 5.34 5.34 0 0 1 -6.69 0 5.82 5.82 0 0 0 -7.38 0 5.33 5.33 0 0 1 -6.68 0 5.82 5.82 0 0 0 -7.38 0 5.34 5.34 0 0 1 -6.69 0 5.82 5.82 0 0 0 -7.38 0 5.33 5.33 0 0 1 -6.68 0 5.82 5.82 0 0 0 -7.38 0 5.34 5.34 0 0 1 -6.69 0 5.89 5.89 0 0 0 -6.59-.58l.42.36a5.41 5.41 0 0 1 5.83.58 5.79 5.79 0 0 0 7.38 0 5.35 5.35 0 0 1 6.68 0 5.79 5.79 0 0 0 7.38 0 5.37 5.37 0 0 1 6.69 0 5.78 5.78 0 0 0 7.37 0 5.37 5.37 0 0 1 6.69 0 5.79 5.79 0 0 0 7.38 0 5.37 5.37 0 0 1 6.69 0 5.78 5.78 0 0 0 7.37 0 5.37 5.37 0 0 1 6.69 0 5.78 5.78 0 0 0 7.37 0 5.37 5.37 0 0 1 6.69 0 5.79 5.79 0 0 0 7.38 0 5.37 5.37 0 0 1 6.69 0 5.78 5.78 0 0 0 7.37 0 5.37 5.37 0 0 1 6.69 0 5.79 5.79 0 0 0 7.38 0 5.35 5.35 0 0 1 6.68 0 5.79 5.79 0 0 0 7.38 0 5.37 5.37 0 0 1 6.69 0 4.48 4.48 0 0 0 1.17.77l.47-.34a4.08 4.08 0 0 1 -1.3-.79 5.8 5.8 0 0 0 -7.37 0z"/><path d="m120.18 47.54h.91a5.61 5.61 0 0 1 5 0h.9a5.88 5.88 0 0 0 -6.81 0z"/><path d="m106.12 47.54h.9a5.61 5.61 0 0 1 5 0h.9a5.86 5.86 0 0 0 -6.8 0z"/><path d="m21.85 47.45c.28 0 .57 0 .85.06a5.65 5.65 0 0 1 4.9 0h.9a5.89 5.89 0 0 0 -6.65-.06z"/><path d="m35.8 47.54h.9a5.61 5.61 0 0 1 5 0h.91a5.88 5.88 0 0 0 -6.81 0z"/><path d="m134.25 47.54h.9a5.61 5.61 0 0 1 5 0h.9a5.86 5.86 0 0 0 -6.8 0z"/><path d="m92.06 47.54h.94a5.61 5.61 0 0 1 5 0h.9a5.86 5.86 0 0 0 -6.84 0z"/><path d="m63.93 47.54h.9a5.61 5.61 0 0 1 5 0h.9a5.86 5.86 0 0 0 -6.8 0z"/><path d="m49.86 47.54h.91a5.61 5.61 0 0 1 5 0h.9a5.88 5.88 0 0 0 -6.81 0z"/><path d="m78 47.54h.91a5.59 5.59 0 0 1 4.95 0h.91a5.88 5.88 0 0 0 -6.77 0z"/></g></g></svg>