<svg xmlns="http://www.w3.org/2000/svg" viewBox="0 0 567 269"><defs><style>.a{fill:#f9b7b7;}.b{fill:#fcd4d4;}.c{fill:#ffebe3;}.ab,.ah,.am,.ap,.ba,.d,.n,.q,.s,.t{fill:none;}.d{stroke:#edaca9;}.ab,.ah,.am,.ap,.ba,.d,.q,.s,.t{stroke-miterlimit:10;}.d,.q,.s{stroke-width:0.2px;}.e{fill:#edaca9;}.f{fill:#d29890;}.g{fill:#ffbdbd;}.h{fill:#efa3a3;}.i{opacity:0.6;}.j{fill:#c47d7e;}.k{fill:#ffdcdc;opacity:0.78;}.l{fill:#a0a02d;}.m{fill:#aa9100;}.o{fill:#bcaf37;}.p{fill:#8c8517;}.q{stroke:#ffd0cc;}.r{fill:#ffd0cc;}.s{stroke:#aa9100;}.t{stroke:#d1be37;stroke-width:0.47px;}.u{fill:#d1be37;}.v{fill:#ffce33;}.w{fill:#faeae4;}.x{fill:#ff988d;}.y{fill:#fff;}.z{fill:#fbefdb;}.aa{fill:#ff9f9f;}.ab,.ba{stroke:#dba490;}.ab{stroke-width:0.1px;}.ac{fill:#f2b09e;}.ad{fill:#f2dec2;}.ae{fill:#d9d4a3;}.af{fill:#baba38;}.ag{fill:#ffe5a4;}.ah{stroke:#f2958e;}.ah,.ap{stroke-width:0.23px;}.ai{fill:#8c8017;}.aj{opacity:0.5;}.ak{fill:#d8c764;}.al{fill:#ffb1a4;}.am{stroke:#e4cdad;stroke-width:0.17px;}.an{fill:#e4cdad;}.ao{fill:#ffa89f;}.ap{stroke:#ff988d;}.aq{fill:#aa9e2d;}.ar{fill:#ca5b59;}.as{fill:#ffe4d7;}.at{fill:#f9ada5;}.au{opacity:0.57;}.av{fill:#f7c2b5;}.aw{fill:#f4d0c1;opacity:0.45;}.ax{fill:#f9cccc;opacity:0.3;}.ay{fill:#fce5e6;}.az{fill:#f4c5b0;opacity:0.48;}.ba{stroke-width:0.08px;}.bb{fill:#db8f35;}.bc{fill:#d17a1c;}.bd{fill:#e08d68;opacity:0.08;}.be{fill:#dd7e68;opacity:0.13;}.bf{fill:#ddb1a6;}.bg{fill:#1d1d1b;}.bh{fill:#fca9a7;}.bi{fill:#e2cf7c;}.bj{fill:#db8f33;}</style></defs><title>danseuse</title><path class="a" d="M442.83,255.25c-9,1.38-18.65-2.12-26.27-7.05a26.44,26.44,0,0,1,13.75.34c1.89.52,6.67,1.81,8.3,2.91A25.45,25.45,0,0,1,442.83,255.25Z"/><path class="a" d="M505.78,257.1c-1.09,1.52-3.14,2.19-5.06,2.69a75.89,75.89,0,0,1-23.26,2.34,12.62,12.62,0,0,1,7.57-7.2,29.67,29.67,0,0,1,10.57-1.45,12.65,12.65,0,0,1,5.8,1c.74.38,1.4.89,2.1,1.34A12.54,12.54,0,0,0,505.78,257.1Z"/><path class="b" d="M464.28,195.22a87.92,87.92,0,0,0-.66,10.93c-.31,19.19-1.23,38.46,13.84,56l.63-.59c4-3,7.72-5.9,12.7-6.3s10.15.61,15,1.86l.37-.44c6.05-11.17,4.81-29.46,3.31-43.62-1.39-13-9.54-28.73-10.82-41.85-.64-6.57.11-11.95-.27-18.55s-.77-11-4.92-16.09-11.57-8.07-17.63-5.44"/><path class="b" d="M442.63,255.27a13.51,13.51,0,0,0-4.32-2.88c-6.58-3.12-14.55-5.86-21.63-4.15l-.06.07c-.73-8.06-1.63-16.51-2.36-24.57-.69-7.62-1.38-15.4.28-22.87a110.94,110.94,0,0,1,5.81-17.75c2.64-6.51,7.08-12.21,9.75-18.7s4.31-13.75,6.28-20.32c3.62-12.06,9.21-23.53,21.67-21.18,4,.76,7.83,2.8,11.87,3.54l0,0a2.62,2.62,0,0,0,.49.19c4,1.15,5.81,4,6.71,8.09a20,20,0,0,1-.82,11.39c-2.49,6.65-4.82,11.37-5.92,18.56-1.25,8.22-3,17-4.69,25.16-1.16,5.69-3.55,11-5.43,16.54-5.64,16.49-7,35-17.53,48.9"/><path class="c" d="M466.75,143.57a2.51,2.51,0,0,0-.17-1.1,8.66,8.66,0,0,0-1.95-3.12,4.67,4.67,0,0,0-4.79-1c-3.3,1-6.18,4.08-8.07,6.85a61.31,61.31,0,0,0-9.25,22.41c-.78,4-1.22,8.09-3.08,11.67-2,3.8-5.32,6.64-8,10-3.05,3.83-5.61,9.51-2.13,13.9.45.57,4.95-.23,5.71-.35a15.66,15.66,0,0,0,5.76-2.48c3.34-2.19,6.27-5.75,8.56-9,2.4-3.41,2.34-3.55,4.82-8.17.74-1.39.77-4,.88-5.56s-.43-4.75,0-6.32c1-3.76,1-8.09,2.48-11.71A68.1,68.1,0,0,1,465,146.48C465.71,145.39,466.64,144.63,466.75,143.57Z"/><path class="c" d="M472.49,157.94c-2.13,12.33-6.26,23.16-4.54,35.88.5,3.74,1.38,8.34,3.7,11.31,1.71,2.21,4.75,3,7.21,4.27,4.09,2.18,10,3.36,13.23-.87,2.16-2.8,2.68-11,2.4-14.41-.39-4.79-2.79-11.54-3.33-17.86-.39-4.68.95-9.69.17-14.3s-3.06-9.19-6.87-11.11-11.34,0-12,7.09"/><path class="d" d="M467.44,131.08a16.66,16.66,0,0,0-7.24-4.87c-3.25-1.16-7.34-1.79-10.41.2a11.42,11.42,0,0,0-3.74,4.81,89.74,89.74,0,0,0-7.88,22.63,41.09,41.09,0,0,1-1.77,7.07,35.64,35.64,0,0,1-2.75,5.17c-4.33,7.15-9.79,13.75-13.13,21.41-2.25,5.16-.46,11.65,4.44,14.28s11.16,1.54,15.83-1.49a35.83,35.83,0,0,0,11-12,24.32,24.32,0,0,0,2.69-6.79,31.55,31.55,0,0,0,.39-6.07,49.74,49.74,0,0,1,9.31-27.89c2.23-3.09,4.75-6.17,5.41-10a7.62,7.62,0,0,0-.06-3.12A8.16,8.16,0,0,0,467.44,131.08Z"/><path class="e" d="M471.46,145.24a30,30,0,0,1-4.57,8.3l-1.08,1.84c-8.77-31.69.95-68.11-11.31-98l-.07,0,.81-.85a.66.66,0,0,0,.17-.24l0,0A24.86,24.86,0,0,1,464,72.81c.69,6.55,1.62,13.24,1.85,19.83.25,7,.59,13.4,1.37,20.5,1.16,10.51,2.39,21.72,4.21,32.1"/><path class="e" d="M469.55,55.92a6.25,6.25,0,0,0,3.27-.45l-.1,0c.29,10.28,1.08,20.88,1.78,31.2,1.19,17.54,1.67,34.39,4.67,51.5l-.18-.21-.77.33a14.75,14.75,0,0,0-1.62-2.75,3.13,3.13,0,0,0-2.29-1.36l.23.21c-6.34-25.94-3.41-50.22-4.9-78.52"/><path class="e" d="M450.85,87.8a53.13,53.13,0,0,1-5.42-10.88v-.17c-8.77,31.69-1.86,72-9.61,102.62,3.58-6.06,6.94-12.82,7.63-19.37s1.62-13.23,1.85-19.82c.25-7.05.59-13.41,1.37-20.51,1.15-10.51,2.39-21.72,4.21-32.1"/><path class="e" d="M475.8,131.22a9.48,9.48,0,0,1,1.91,3.88,13.21,13.21,0,0,1,.39,4.34,12.08,12.08,0,0,1-.39,2.16l-.52,2.11c-.35,1.41-.75,2.81-1.23,4.19-2,5.46-4.64,10.69-5.32,16.44-.89,5.73-1.71,11.47-2.64,17.19a90.42,90.42,0,0,1-4.76,16.72c.92-2.74,1.77-5.51,2.53-8.31a64.61,64.61,0,0,0,1.81-8.48l2.47-17.2c.73-5.86,3.45-11.14,5.48-16.51.5-1.36.92-2.74,1.31-4.13l.56-2.1a14,14,0,0,0,.43-2.1,13.17,13.17,0,0,0-.25-4.29A9.47,9.47,0,0,0,475.8,131.22Z"/><path class="a" d="M462.37,150.29c-4.37,5.6-6.75,19.22-6.75,26.77a39,39,0,0,1-2.41,12.22c-2.25,5.47-4.64,9.5-9.46,12.4A23.14,23.14,0,0,1,428,204.3c-2.8-.54-5.65-1.58-7.45-3.78a10.29,10.29,0,0,1-1.74-9.1,18.38,18.38,0,0,1,1.58-3.88c.63-1.2,1.62-2.34,2.15-3.57-1.9,4.36-3.93,10.12-1.05,14.41A9.53,9.53,0,0,0,424,201a10.78,10.78,0,0,0,3.73,1.51c12.6,2.82,24.57-10.12,26.51-21.75.52-3.11.57-6.28.92-9.41C455.64,166.66,458.25,153.88,462.37,150.29Z"/><path class="f" d="M477.52,134.44a12.11,12.11,0,0,1,8.65-.24,10.65,10.65,0,0,1,2,.93,8.88,8.88,0,0,1,1.82,1.34,3.74,3.74,0,0,1,.86,2.16c.08.74.16,1.44.28,2.15.44,2.86,1.38,5.64,2,8.5a25.47,25.47,0,0,1,.64,4.36,13.83,13.83,0,0,1-.5,4.35,18.74,18.74,0,0,0-.58-8.61c-.71-2.81-1.66-5.59-2.16-8.5-.11-.73-.19-1.48-.26-2.18a3.15,3.15,0,0,0-.69-1.86,11,11,0,0,0-3.6-2.21A12.59,12.59,0,0,0,477.52,134.44Z"/><path class="e" d="M477.26,51.66A8,8,0,0,1,479.71,44l.41.7-.12-.2a71,71,0,0,0,4,27.67c1.92,5.36,4,21.22,4.7,26.87,3.94,30.54,5.09,44.1,9.56,71.44a57,57,0,0,1,.32,9.52c0,4.49-.58,14.08-3.38,19.64l-.36-2.61a35.79,35.79,0,0,1-1.55-9c-.31-4.12.71-8.21.71-12.34"/><path class="a" d="M467.63,187.28A46.49,46.49,0,0,0,468.7,200a15,15,0,0,0,2.29,6.14,12.19,12.19,0,0,0,4.06,3.35,19.77,19.77,0,0,0,14.78,1.63,13.11,13.11,0,0,0,7.91-5.65,20,20,0,0,0,2-7.14c1-6.37.33-14.63-.65-21.36l-.32-3.9c1,7,2.19,15.61,1.23,22.25a21.49,21.49,0,0,1-2,7.44,13.24,13.24,0,0,1-8,5.9,19.32,19.32,0,0,1-14.87-1.7,12.28,12.28,0,0,1-4.09-3.5,16,16,0,0,1-2.3-6.4,50,50,0,0,1-1.09-13.24"/><path class="g" d="M449.2,71.39a46.1,46.1,0,0,1-3.69,2.82c-4.66,3.62-7.61,9-10.43,14.13,5.06.75,8.61,5.51,13.46,7.13a1.86,1.86,0,0,0,1.18.11c.58-.2.84-.85,1-1.42a75.12,75.12,0,0,0,2.59-10.23c.51-2.81.93-5.82,2.81-8a25.17,25.17,0,0,1,2.48-2.25c1.09-1,4.08-3.76,3.59-5.43-.33-1.11-3.64-2.59-4.73-2.82C453.66,64.63,451.52,69.13,449.2,71.39Z"/><path class="g" d="M477.18,85.43a7.75,7.75,0,0,0-.36-4.67,47,47,0,0,0-2-5.26,16.23,16.23,0,0,0-3.05-4.86,7.11,7.11,0,0,0-5.13-2.29c1.09-.84,2.74-2.07,3.82-2.91a4.69,4.69,0,0,1,1.56-.93,4.37,4.37,0,0,1,1.4-.08,28.2,28.2,0,0,1,14.39,5c3.57,2.47,6.65,5.82,10.76,7.23A35.79,35.79,0,0,0,477.18,85.43Z"/><path class="g" d="M457.07,65.88a53.92,53.92,0,0,1-20,10.59,4.31,4.31,0,0,1-2.13.2,3.94,3.94,0,0,1-1.79-1.23,19.66,19.66,0,0,1-5.28-11.33,38.77,38.77,0,0,1-.08-5.39,25.49,25.49,0,0,1,.24-3.38c.73-4.49,3.73-8.24,6.62-11.75a3.12,3.12,0,0,1,.81-.77c1.17-.68,2.57.36,3.55,1.3a63.66,63.66,0,0,0,15.82,11A19.73,19.73,0,0,1,457.07,65.88Z"/><path class="h" d="M471.32,65.28a29.13,29.13,0,0,0-.37-8.44,2.26,2.26,0,0,1,0-1.5,2.14,2.14,0,0,1,1-.8l2.88-1.42a4.65,4.65,0,0,0,1.21-.78,4.8,4.8,0,0,0,.76-1.17,31.39,31.39,0,0,1,5.9-7.93"/><path class="g" d="M471,58.65a5.35,5.35,0,0,1-.52-2.43c.33-2.24,1.39-9.35,2.79-11.17,2.21-2.89,5.55-2.52,7.76-5.38.51-.66,8.87-3.81,8.9-3.41.35,6,6.3,7,7.13,12.62a12.23,12.23,0,0,1-.39,4.29l-2.16,10a1.71,1.71,0,0,1-1.89,1.7c-3.3.35-6.61.68-9.92,1-2.87.29-7.27,1.23-10,.1-1.88-.76-1.34-.47-1.2-2.5A12.14,12.14,0,0,0,471,58.65Z"/><path class="g" d="M460.06,56.81a5.44,5.44,0,0,0,2,.61,7.71,7.71,0,0,0,3-1.06,12.32,12.32,0,0,1,4.57-.63,2.77,2.77,0,0,1,2.19.64,2.7,2.7,0,0,1,.45,1.68l.28,6.21a1.82,1.82,0,0,1-.33,1.4,1.85,1.85,0,0,1-.66.36c-2.32.86-4,2.28-6.27,3.14-.53.2-1.74-.15-2.3-.08a7,7,0,0,1-3.75-.91c-1.87-.87-3.83-1.94-4.69-3.81-.77-1.63-1.07-5.56-.21-7.23C455.49,54.87,458.12,56,460.06,56.81Z"/><g class="i"><path class="j" d="M454.16,58.53a11.84,11.84,0,0,0,2,3.65,11.76,11.76,0,0,1,1,1.83,7.66,7.66,0,0,0,1,1.8,8,8,0,0,0,3.29,2.43c.63.29,1.29.53,1.94.77a2.15,2.15,0,0,0,2,0,2.18,2.18,0,0,1-2,.06c-.66-.23-1.32-.46-2-.73a8.26,8.26,0,0,1-3.4-2.44,8.91,8.91,0,0,1-1-1.85,10.74,10.74,0,0,0-1-1.83A10.32,10.32,0,0,1,454.16,58.53Z"/></g><g class="i"><path class="j" d="M461.8,59.17a4.41,4.41,0,0,1,1.51,2.18c.3.86.42,1.75.64,2.6a5.68,5.68,0,0,0,.43,1.24,2.46,2.46,0,0,0,.91.9,3,3,0,0,1,1,.93,3.8,3.8,0,0,0,.24.62.39.39,0,0,0,.57.08.41.41,0,0,1-.61,0,4.12,4.12,0,0,1-.29-.6,2.7,2.7,0,0,0-1-.85,2.67,2.67,0,0,1-1-.94,6.13,6.13,0,0,1-.46-1.28c-.21-.87-.33-1.75-.59-2.6A4.69,4.69,0,0,0,461.8,59.17Z"/></g><g class="i"><path class="j" d="M456.17,65.6a1.75,1.75,0,0,0-1.4.08,2.93,2.93,0,0,0-1.12.88c-.3.38-.58.78-.9,1.16a4.19,4.19,0,0,1-1.18.91c-.88.46-1.83.72-2.71,1.11a14.18,14.18,0,0,0-2.54,1.44,11.47,11.47,0,0,1,2.48-1.58c.88-.43,1.83-.68,2.68-1.14a4.34,4.34,0,0,0,1.13-.86c.33-.36.6-.77.93-1.13A2.31,2.31,0,0,1,456.17,65.6Z"/></g><g class="i"><path class="j" d="M456.34,71.94a6.12,6.12,0,0,0-.81,2.38,3.67,3.67,0,0,1-.48,1.18,3.93,3.93,0,0,1-.89.93c-.67.53-1.43.92-2.07,1.45a6.92,6.92,0,0,0-1.53,2,14.51,14.51,0,0,0-2.07,4.57,19.39,19.39,0,0,0-.06,5,16.58,16.58,0,0,1-.07-5.07,14.32,14.32,0,0,1,2-4.65,6.86,6.86,0,0,1,1.59-2c.67-.54,1.44-.93,2.1-1.43a4.12,4.12,0,0,0,.88-.89,3.78,3.78,0,0,0,.48-1.15A6.12,6.12,0,0,1,456.34,71.94Z"/></g><g class="i"><path class="j" d="M472.54,64.84a31.47,31.47,0,0,1,3.92.94,17.79,17.79,0,0,1,3.74,1.52,15.77,15.77,0,0,1,2.93,2.78c.91,1,1.8,2,2.68,3-.94-1-1.87-1.93-2.78-2.91a15.64,15.64,0,0,0-2.93-2.71,17.81,17.81,0,0,0-3.68-1.55C475.14,65.5,473.85,65.14,472.54,64.84Z"/></g><path class="k" d="M449.54,65.45c-2.88-.31-5.23-2.27-8.06-2.83a16.59,16.59,0,0,0-3.73-.17,22.13,22.13,0,0,0-2.7.18,2.3,2.3,0,0,0-1.45.62l1.92.49a1.41,1.41,0,0,1,.42.16c.33.24.28.69.35,1.06a2.29,2.29,0,0,0,2,1.51,8.25,8.25,0,0,0,2.75-.19,9.78,9.78,0,0,1,4.81.07c.71.25,1.35.65,2.07.86a5.49,5.49,0,0,0,3.23-.22,11.5,11.5,0,0,0,2.06-1c.27-.16,1.61-.74,1-1.06-.36-.19-1.82.36-2.27.43A9.89,9.89,0,0,1,449.54,65.45Z"/><path class="k" d="M476,61.88c-1.29,0-1.9,0-2.65-.84l-.62-.46c.3-.35.62-.67.95-1a77,77,0,0,1,7.54-6.48c1.93-1.45,4.1-2.89,6.62-3-.23,1-1.45,1.43-2.34,2a16.82,16.82,0,0,0-1.32,1.08c-1.11.94-2.4,1.72-3.59,2.6A9,9,0,0,0,477.74,59a9.46,9.46,0,0,0,2.65-.13,12.25,12.25,0,0,1,4.59.36,2.71,2.71,0,0,1,1.22.61l-2.84.14a1.33,1.33,0,0,0-.69.16c-.27.19-.3.55-.5.81a1.69,1.69,0,0,1-.59.41c-1.91.87-4.2.68-6.34.46"/><g class="i"><path class="j" d="M471,55.79A7,7,0,0,0,471,59a10,10,0,0,1,.21,3.23,4.1,4.1,0,0,1-.57,1.54,5,5,0,0,1-1.12,1.18,2.28,2.28,0,0,0-.83,1.3,3.12,3.12,0,0,0,.13,1.57,3.19,3.19,0,0,1-.23-1.59,2.42,2.42,0,0,1,.83-1.39,5.09,5.09,0,0,0,1.06-1.17,3.66,3.66,0,0,0,.53-1.47,10.35,10.35,0,0,0-.16-3.18A6.43,6.43,0,0,1,471,55.79Z"/></g><path class="l" d="M469.67,161.67a15.66,15.66,0,0,0,8.56.15,51.1,51.1,0,0,0,8.25-2.64c2.68-1.08,5.38-2.14,8-3.38a44,44,0,0,0,7.4-4.45,58,58,0,0,0,12-12.42c1.7-2.33,3.3-4.75,4.83-7.21s3-4.94,4.5-7.43c-1.41,2.53-2.82,5.06-4.31,7.55s-3.08,4.92-4.77,7.28a58.18,58.18,0,0,1-12,12.6,44.7,44.7,0,0,1-7.52,4.43c-2.63,1.23-5.34,2.26-8,3.32a52.37,52.37,0,0,1-8.32,2.58A15.91,15.91,0,0,1,469.67,161.67Z"/><path class="m" d="M501.21,152a13.16,13.16,0,0,0,3.53-4.94,24.53,24.53,0,0,0,1.67-5.88c.35-2,.56-4.06.88-6.09a47.75,47.75,0,0,1,1.35-6c1.18-3.94,2.72-7.75,3.78-11.71a29,29,0,0,0,1-12.14,23,23,0,0,1,.34,6.14,36.76,36.76,0,0,1-1.08,6.07c-1,4-2.52,7.83-3.65,11.76a45.23,45.23,0,0,0-1.4,6c-.34,2-.58,4.06-.95,6.08a25,25,0,0,1-1.75,5.92A13.35,13.35,0,0,1,501.21,152Z"/><path class="n" d="M488.66,158.07a11.59,11.59,0,0,0,2.09-1.51,13,13,0,0,0,2.4-3.6,8.65,8.65,0,0,0,1.13-3.24,2,2,0,0,0-.63-1.81c-2.09-1.52-4.77,1.74-6.51,2.92a6.58,6.58,0,0,0-2.9,4.8c-.17,1.26-.42,4.28,1.68,3.9A9,9,0,0,0,488.66,158.07Z"/><path class="l" d="M494.56,148.57a8.52,8.52,0,0,1-1.34,5.21,19,19,0,0,1-3.76,3.9c-1.7,1.4-3.46,1.66-5.89,2.64.23-2.12.17-3.94,1.4-5.83C487.22,151,490.41,149.73,494.56,148.57Z"/><path class="l" d="M511.61,153.71a14.49,14.49,0,0,0-1.22-3.19,4.31,4.31,0,0,0-2.42-2.38,3.25,3.25,0,0,0-2.48.42c-.79.48-1.81,1.28-1.25,2.13a6.87,6.87,0,0,0,2.14,1.76,9.19,9.19,0,0,0,2.58,1A21.4,21.4,0,0,0,511.61,153.71Z"/><path class="l" d="M499.84,144.44a9.78,9.78,0,0,1,1.11-8.39c.32-.5,2.43,2.66,2.53,2.86a12.84,12.84,0,0,1,1.61,4.43,7.83,7.83,0,0,1-.19,3.16c-.19.69-.75,3.07-1.55,3.3C501.82,150.26,500.21,145.43,499.84,144.44Z"/><path class="l" d="M511.83,134.44a13.83,13.83,0,0,0,3.31-2.83,7.9,7.9,0,0,0,1.82-3.9.62.62,0,0,0,0-.33.71.71,0,0,0-.43-.36,4.88,4.88,0,0,0-3.37,0,9.71,9.71,0,0,0-3,1.73,6.39,6.39,0,0,0-1.25,1.24,7.14,7.14,0,0,0-.94,2.59c-.2.91-.81,2.45.41,2.86S510.91,135,511.83,134.44Z"/><path class="l" d="M529.82,122.85a10.5,10.5,0,0,0,3.08-7.59.64.64,0,0,0-.12-.43c-.17-.2-.5-.13-.75,0a42.68,42.68,0,0,0-4.09,1.66,8.84,8.84,0,0,0-1.82,1,10.59,10.59,0,0,0-1.86,2,11.39,11.39,0,0,0-1.8,2.93,4.47,4.47,0,0,0-.26,2.67c.33.88,1.15.75,1.95.62A10.69,10.69,0,0,0,529.82,122.85Z"/><path class="l" d="M505.25,119.85a10.52,10.52,0,0,1,.36-7.43c0-.06.06-.13.13-.15s.18.06.24.14a54.4,54.4,0,0,1,4.07,6.32,6.36,6.36,0,0,1,1.05,3.42,7.44,7.44,0,0,1-.89,2.56c-.5,1.09-.76,1.47-1.71.48A13.63,13.63,0,0,1,505.25,119.85Z"/><path class="l" d="M519.26,142a8.52,8.52,0,0,0,5.81-2.33.34.34,0,0,0,.13-.22c0-.13-.14-.2-.26-.25l-2.85-1.11a15.31,15.31,0,0,0-3.54-1.05c-1.53-.2-4.95-.07-4.52,2.26C514.41,141.39,517.49,142,519.26,142Z"/><path class="l" d="M515.86,114.29a7,7,0,0,0,1.27-3.06.83.83,0,0,0,0-.62,6.72,6.72,0,0,0-2.24.61c-.44.22-1.1.26-1.22.73a9.33,9.33,0,0,0-.24,1.17c0,.56-.69,2.14-.17,2.56S515.5,114.74,515.86,114.29Z"/><path class="l" d="M499,161.57a9.52,9.52,0,0,0,6.65-1.65l-4.14-2.42a16.32,16.32,0,0,0-4.65-1.94c-1.49-.28-2.22.86-3.68,1.28C489.83,157.81,497.56,161.38,499,161.57Z"/><path class="o" d="M497.18,215A33.66,33.66,0,0,1,486,198.14c-.48-1.65-.83-3.35-1.16-5-.26-1.27-.53-2.58-.86-3.85-2.24-8.82-9.66-18.09-16-23.38l.68-.82C475.13,170.5,482.71,180,485,189c.33,1.29.6,2.62.86,3.9.33,1.62.68,3.3,1.14,4.91a32.68,32.68,0,0,0,10.82,16.28Z"/><path class="o" d="M492.67,209.38a6.29,6.29,0,0,1,4.75,1.79,6.07,6.07,0,0,1,2.26,3,3.21,3.21,0,0,1-1.44,3.53,3.07,3.07,0,0,1-3.18-.24,5.49,5.49,0,0,1-1.76-2.54,16,16,0,0,1-1.16-5.72l.88.48"/><path class="o" d="M494.55,199.54a5.28,5.28,0,0,1,3,1.61,2,2,0,0,1,.38,1.58,2.31,2.31,0,0,1-1,1.32,4.14,4.14,0,0,1-3.59.33,10.42,10.42,0,0,1-3-1.85,18,18,0,0,1-3.4-2.82C489,198.28,492.39,198.89,494.55,199.54Z"/><path class="o" d="M483.05,207c-.2,1.13-.18,2.48.72,3.19a2.2,2.2,0,0,0,2.28.18,3.44,3.44,0,0,0,1.59-1.75,8.64,8.64,0,0,0,.51-3.65,24.49,24.49,0,0,0-.26-3.93c-.3-1.49-1.24-1-2-.08A13.08,13.08,0,0,0,483.05,207Z"/><path class="o" d="M490.86,187.6a5.48,5.48,0,0,1,4.91,3.93,2.62,2.62,0,0,1-.11,1.66,2.94,2.94,0,0,1-2.71,1.37,8.51,8.51,0,0,1-4.77-1.63,18.27,18.27,0,0,1-2.55-2.17c-.86-.84-1.42-1.13-.21-1.81A9.48,9.48,0,0,1,490.86,187.6Z"/><path class="o" d="M479.61,193a5.5,5.5,0,0,0-.42,6.28,2.67,2.67,0,0,0,1.31,1,2.94,2.94,0,0,0,2.84-1.09,8.46,8.46,0,0,0,2-4.61,18.74,18.74,0,0,0,.12-3.35c0-1.2.12-1.81-1.19-1.37A9.49,9.49,0,0,0,479.61,193Z"/><path class="o" d="M479.5,166a5.48,5.48,0,0,1,4.92,3.92,2.65,2.65,0,0,1-.11,1.67,3,3,0,0,1-2.72,1.36,8.41,8.41,0,0,1-4.77-1.63,19.42,19.42,0,0,1-2.55-2.16c-.86-.85-1.41-1.14-.21-1.81A9.5,9.5,0,0,1,479.5,166Z"/><path class="o" d="M468.26,171.34a5.47,5.47,0,0,0-.42,6.27,2.56,2.56,0,0,0,1.3,1,2.93,2.93,0,0,0,2.84-1.08,8.43,8.43,0,0,0,2-4.62,19.64,19.64,0,0,0,.12-3.34c-.05-1.21.12-1.81-1.2-1.38A9.52,9.52,0,0,0,468.26,171.34Z"/><path class="o" d="M473.87,182c-2.12,1.65-3.36,4.61-2.42,7.13a3.12,3.12,0,0,0,1.18,1.6,3.51,3.51,0,0,0,3.62-.38,10.05,10.05,0,0,0,3.75-4.72,21.19,21.19,0,0,0,1.17-3.83c.32-1.4.7-2.05-.95-1.95A11.27,11.27,0,0,0,473.87,182Z"/><path class="o" d="M486.87,175.09c2.68,0,5.48,1.59,6.28,4.15a3.09,3.09,0,0,1,.05,2,3.53,3.53,0,0,1-3.09,1.92,10.12,10.12,0,0,1-5.86-1.42,22.69,22.69,0,0,1-3.27-2.31c-1.12-.91-1.81-1.2-.45-2.13A11.32,11.32,0,0,1,486.87,175.09Z"/><path class="p" d="M439.43,158.46a15.77,15.77,0,0,1,2.09,8.35,52.4,52.4,0,0,1-.86,8.66c-.5,2.86-1,5.72-1.65,8.55a44.66,44.66,0,0,1-2.83,8.25,58.28,58.28,0,0,1-10,14.24c-2,2.13-4,4.16-6.17,6.13s-4.34,3.85-6.54,5.74c2.15-1.94,4.29-3.89,6.38-5.9s4.16-4,6.1-6.18a57.59,57.59,0,0,0,9.76-14.23,43.52,43.52,0,0,0,2.88-8.14c.7-2.81,1.2-5.66,1.72-8.51a52,52,0,0,0,.94-8.61A15.72,15.72,0,0,0,439.43,158.46Z"/><path class="p" d="M436.31,191.28a13.32,13.32,0,0,1-4,4.62,24.82,24.82,0,0,1-5.44,2.93c-1.9.79-3.86,1.41-5.77,2.14a45.78,45.78,0,0,0-5.56,2.56c-3.62,1.9-7.07,4.15-10.79,5.94a36.71,36.71,0,0,1-5.74,2.24,22.53,22.53,0,0,1-6.09.88,28.61,28.61,0,0,0,11.68-3.44c3.65-1.84,7.09-4.09,10.72-6a46.61,46.61,0,0,1,5.63-2.54c1.93-.72,3.88-1.35,5.79-2.08a24.63,24.63,0,0,0,5.43-2.78A13.2,13.2,0,0,0,436.31,191.28Z"/><path class="n" d="M439.7,177.78a11.83,11.83,0,0,1-1.06,2.35,12.84,12.84,0,0,1-3,3.07,8.83,8.83,0,0,1-3,1.76,2,2,0,0,1-1.91-.26c-1.9-1.74.76-5,1.56-7a6.65,6.65,0,0,1,4.13-3.81c1.2-.42,4.11-1.26,4.16.87A9.07,9.07,0,0,1,439.7,177.78Z"/><path class="p" d="M431.57,185.46a8.52,8.52,0,0,0,4.84-2.35,18.89,18.89,0,0,0,3.07-4.47c1-1.94.93-3.73,1.41-6.29-2,.64-3.83,1-5.44,2.53C432.52,177.77,431.88,181.16,431.57,185.46Z"/><path class="p" d="M439.1,203.51a13.06,13.06,0,0,1-3.85-.45,4.16,4.16,0,0,1-3.08-2.35,5.24,5.24,0,0,1,.13-3.44c.44-1.23,1.22-2.87,2.28-2.43a6.69,6.69,0,0,1,2.33,2.2,11.33,11.33,0,0,1,1.56,3C438.56,200.37,439.18,203.51,439.1,203.51Z"/><path class="p" d="M428.58,191.46a9.65,9.65,0,0,0-4.16.42,9.76,9.76,0,0,0-3.84,2.34c-.42.42,3.09,1.85,3.31,1.92a13,13,0,0,0,4.67.68,7.82,7.82,0,0,0,3.06-.81c.63-.33,2.85-1.35,2.92-2.18C434.68,192.23,429.62,191.63,428.58,191.46Z"/><path class="n" d="M417.75,196.72a11.37,11.37,0,0,1-1.57-1.95"/><path class="p" d="M421.18,205.21a14.3,14.3,0,0,1-2.1,3.81,8.1,8.1,0,0,1-3.46,2.56.77.77,0,0,1-.33.06.72.72,0,0,1-.44-.35,4.86,4.86,0,0,1-.67-3.3,10,10,0,0,1,1.1-3.26,6,6,0,0,1,1-1.46,7.1,7.1,0,0,1,2.35-1.44c.86-.38,2.24-1.29,2.89-.17S421.58,204.19,421.18,205.21Z"/><path class="p" d="M413.42,225.15a10.55,10.55,0,0,1-6.81,4.54.69.69,0,0,1-.45,0c-.23-.13-.23-.46-.2-.73a42.47,42.47,0,0,1,.8-4.34,9.68,9.68,0,0,1,.66-2,10.78,10.78,0,0,1,1.63-2.24,11.6,11.6,0,0,1,2.51-2.34,4.49,4.49,0,0,1,2.56-.79c.93.15,1,1,1,1.79A10.56,10.56,0,0,1,413.42,225.15Z"/><path class="p" d="M405.57,201.68a10.49,10.49,0,0,0-7.21,1.83.28.28,0,0,0-.12.16c0,.1.1.17.18.21a53.75,53.75,0,0,0,7,2.72A6.33,6.33,0,0,0,409,207a7.45,7.45,0,0,0,2.33-1.38c1-.72,1.29-1,.13-1.78A13.75,13.75,0,0,0,405.57,201.68Z"/><path class="p" d="M430.07,211a8.57,8.57,0,0,1-1.12,6.15.35.35,0,0,1-.2.18c-.12,0-.22-.1-.29-.21l-1.66-2.57a15.47,15.47,0,0,1-1.74-3.26c-.49-1.45-1.06-4.84,1.31-4.88C428.51,206.35,429.71,209.25,430.07,211Z"/><path class="p" d="M402.24,213.19A6.8,6.8,0,0,1,399.5,215a.85.85,0,0,1-.62.08,6.49,6.49,0,0,1,.16-2.32c.12-.48,0-1.13.47-1.34a8.73,8.73,0,0,1,1.09-.47c.54-.15,2-1.1,2.48-.68S402.62,212.74,402.24,213.19Z"/><path class="p" d="M445.19,187.22a9.5,9.5,0,0,1-.28,6.84l-3.2-3.58a16.28,16.28,0,0,1-2.83-4.16c-.57-1.4.4-2.36.52-3.87C439.68,179,444.72,185.84,445.19,187.22Z"/><path class="n" d="M478.9,161.33l.91.51"/><path class="q" d="M480.83,156.74c4.53,6.4,13.51,8.91,17.48,15.69"/><path class="r" d="M497.34,173.77a5.31,5.31,0,0,0,5.18,4.88,4.38,4.38,0,0,0,1.91-.33,2.76,2.76,0,0,0,1.43-1.36,2.87,2.87,0,0,0-.45-2.64,6.7,6.7,0,0,0-6.08-3.3c-.51,0-1.85-.08-2.1.46-.1.22.09.88.1,1.13S497.32,173.39,497.34,173.77Z"/><path class="r" d="M491.82,165.79l0,0a10,10,0,0,1,.83,8.58,3,3,0,0,1-1.5,2,2,2,0,0,1-2.21-.76,4.56,4.56,0,0,1-.9-3.09,9.71,9.71,0,0,1,.87-3.37,7.64,7.64,0,0,1,.9-1.6A5.51,5.51,0,0,1,491.82,165.79Z"/><path class="r" d="M485.11,163.46a12,12,0,0,1-.39,4.06,3.56,3.56,0,0,1-1.69,2.57,2,2,0,0,1-2.53-.91,5,5,0,0,1-.35-2.86,11.85,11.85,0,0,1,.84-3.67c.33-.77,2-3.58,2.6-2.64A9,9,0,0,1,485.11,163.46Z"/><path class="r" d="M495.05,160.42a1.42,1.42,0,0,0,.65-.81.91.91,0,0,0-.07-.49,2.12,2.12,0,0,0-1.44-1.23,4.13,4.13,0,0,0-1.27-.06,12.73,12.73,0,0,0-3.83.87c-.85.34-4.59,2.1-3.79,2.54a14.19,14.19,0,0,0,6.06.83A10.13,10.13,0,0,0,495.05,160.42Z"/><path class="r" d="M494.22,167.43a.4.4,0,0,1-.4-.23c-.05-.11-.26-.28-.34-.16a19.16,19.16,0,0,0,3.95,1.42,7.51,7.51,0,0,0,4.36-.3,2.61,2.61,0,0,0,1.69-1.64,1.53,1.53,0,0,0-.22-1.07,3.27,3.27,0,0,0-3.26-1.17,18.85,18.85,0,0,0-3.77,1.17,9,9,0,0,0-2.82,1.33"/><path class="n" d="M463.33,189.23a3.28,3.28,0,0,1-1.39.18"/><path class="n" d="M463.28,189.86a16.92,16.92,0,0,0-2.34.55"/><path class="s" d="M447.13,166.3a21.57,21.57,0,0,1,5.4,19.74"/><path class="m" d="M445.64,176.11a4.81,4.81,0,0,0-1.27,2.59,2,2,0,0,0,1.52,2.16,2.83,2.83,0,0,0,1.62-.49,8,8,0,0,0,3.85-3.55,9.34,9.34,0,0,0,.43-1.57A10.36,10.36,0,0,0,452,174c.24-2.24-.71-2.14-2.47-1.23A12.67,12.67,0,0,0,445.64,176.11Z"/><path class="m" d="M455.83,173.57a37.36,37.36,0,0,1,3.44,1.93,5.14,5.14,0,0,1,2,2,1.6,1.6,0,0,1,.12,1.23,1.51,1.51,0,0,1-1.22.89,3.64,3.64,0,0,1-1.56-.2,14.77,14.77,0,0,1-4.31-2.11c-.83-.59-3.61-2.88-2.94-4.19S455,173.16,455.83,173.57Z"/><path class="m" d="M449.6,185.34a6.43,6.43,0,0,0,1,4.16,3.93,3.93,0,0,0,1,1.25,2.75,2.75,0,0,0,2.64.23,3.84,3.84,0,0,0,1.92-1.91,6.43,6.43,0,0,0-1.07-6.54c-1.06-1.37-1.83-1.52-3.23-.55A5.26,5.26,0,0,0,449.6,185.34Z"/><path class="t" d="M442.42,147.85a21.57,21.57,0,0,1-15-13.95"/><path class="u" d="M438.54,138.72a4.87,4.87,0,0,0-.28-2.86,2,2,0,0,0-2.43-1,2.81,2.81,0,0,0-1.12,1.26,8,8,0,0,0-1.41,5,9.45,9.45,0,0,0,.45,1.55c.15.41.29.81.47,1.19,1,2,1.74,1.45,2.76-.24A12.68,12.68,0,0,0,438.54,138.72Z"/><path class="u" d="M431.2,146.24a37.16,37.16,0,0,1-3.95.16,5.07,5.07,0,0,1-2.75-.59,1.59,1.59,0,0,1-.75-1,1.49,1.49,0,0,1,.57-1.4,3.63,3.63,0,0,1,1.42-.66,14.87,14.87,0,0,1,4.79-.46c1,.06,4.58.55,4.7,2S432.14,146.14,431.2,146.24Z"/><path class="u" d="M430.31,133a6.35,6.35,0,0,0-3-3,3.87,3.87,0,0,0-1.54-.53,2.79,2.79,0,0,0-2.37,1.19,3.89,3.89,0,0,0-.63,2.64,6.44,6.44,0,0,0,4.34,5c1.63.61,2.37.33,3.05-1.23A5.25,5.25,0,0,0,430.31,133Z"/><path class="v" d="M446.76,150.58a9.82,9.82,0,0,1-7.92-3.9,18.83,18.83,0,0,1,12.06-6.31,8.34,8.34,0,0,1-5.47-3.55,21.57,21.57,0,0,1-2.84-6.13,15.89,15.89,0,0,1,12.53.92,6.36,6.36,0,0,1-.42-5.15,19.07,19.07,0,0,1,2.48-4.7,1.48,1.48,0,0,1,.74-.7,1.33,1.33,0,0,1,.89.15A7.77,7.77,0,0,1,463,125a4.58,4.58,0,0,1-1,5.33A13.87,13.87,0,0,1,473,125.67c1.65,4.85-1.44,10.21-5.37,13.5-3.2,2.68-6.95,4.54-10.28,7S450.85,150.63,446.76,150.58Z"/><path class="w" d="M460.86,133c-.13.91-.28,1.82-.44,2.73l-1.19-1.23c-.2-.21-.49-.44-.77-.32a.58.58,0,0,0-.25.61c0,.24.16.46.22.69a1.6,1.6,0,0,1-.15,1.23,6.47,6.47,0,0,0-1.16-.55.67.67,0,0,0-.6,0,.52.52,0,0,0-.15.57,1.89,1.89,0,0,0,.32.55,1.57,1.57,0,0,1,.34.82.69.69,0,0,1-.43.71,1.48,1.48,0,0,1-.47,0,1.4,1.4,0,0,0-1.37,1.31.7.7,0,0,0,.39.71.76.76,0,0,0,.26,0l2.91-.09a5.48,5.48,0,0,0,2-.33C462.72,139.36,462.94,134.43,460.86,133Z"/><path class="x" d="M468.72,167.25a.56.56,0,0,1,.29.05c.27.16.14.58,0,.83a7.92,7.92,0,0,1-3.91,2.91c.87.18,1.78,0,2.64.18a3.13,3.13,0,0,1,2,1.34,1.3,1.3,0,0,1,.2.45,1,1,0,0,1-.57,1,2.13,2.13,0,0,1-1.17.14,6.42,6.42,0,0,1-2.27-.64,3.77,3.77,0,0,1-.57,4.46.51.51,0,0,1-.35.19c-.2,0-.33-.19-.43-.36a12.74,12.74,0,0,1-1.63-3.7,5.59,5.59,0,0,1-1.87,2.6,1.08,1.08,0,0,1-1,.3.78.78,0,0,1-.46-.67,1.88,1.88,0,0,1,.13-.84,8,8,0,0,1,1.53-2.65,5.87,5.87,0,0,1-2.15.78,2,2,0,0,1-2-.9.85.85,0,0,1-.1-.66c.12-.36.53-.51.89-.61a12,12,0,0,1,3.1-.4,5.72,5.72,0,0,1-2.16-2.36,1.74,1.74,0,0,1,0-1.8.56.56,0,0,1,.38-.24.85.85,0,0,1,.6.25,10.62,10.62,0,0,1,2.78,3.43c-.09-1.52-.11-3.21.89-4.36a1,1,0,0,1,.88-.44.82.82,0,0,1,.61.58,1.75,1.75,0,0,1,0,.88c-.1.65-.6,2.1-.69,2.71a11.7,11.7,0,0,1,1.93-1.83A6.18,6.18,0,0,1,468.72,167.25Z"/><path class="y" d="M463.08,172a.26.26,0,0,0,.09-.31.51.51,0,0,0-.24-.26c-.1,0-.23-.09-.31,0s.1.53-.1.66c-.19-.07-.44-.11-.56.05a.33.33,0,0,0,.15.44,1,1,0,0,0,.5.08.36.36,0,0,0-.23.46.4.4,0,0,0,.48.21.42.42,0,0,0,.26-.47.29.29,0,0,0,.35.23.3.3,0,0,0,.21-.36.35.35,0,0,0-.35-.25.34.34,0,0,0,.37-.21.3.3,0,0,0-.16-.38.27.27,0,0,0-.35.2"/><path class="z" d="M466.24,151.21c-2.82.5-5.81,1.27-7.68,3.45a10.29,10.29,0,0,0-2.07,6.41,3.08,3.08,0,0,0,.16,1.28c.5,1.25,2.13,1.45,3.39,1.94a23,23,0,0,1,3.12,1.87,4.44,4.44,0,0,0,3.47.71,4.81,4.81,0,0,0,2.65-3,18,18,0,0,0,1.13-9.8A3.86,3.86,0,0,0,466.24,151.21Z"/><path class="z" d="M468.08,161.74c-.07,2.7.44,5.76,2.65,7.1,2,1.18,4.55.54,6.66-.53a5.05,5.05,0,0,0,1.79-1.34,17.73,17.73,0,0,0,1-1.87c.44-.72,1.07-1.31,1.49-2a8.47,8.47,0,0,0,.73-4.49,5.6,5.6,0,0,0-.55-2.77c-.87-1.41-2.75-1.61-4.35-2-2.1-.5-5.31-3.62-7.34-1.66S468.14,159.25,468.08,161.74Z"/><path class="z" d="M481.09,157.39a11.1,11.1,0,0,0,2.3.05,4.17,4.17,0,0,0,2.67-6.9,10.16,10.16,0,0,1-1.61-2.17c-.48-1.19,0-2.56-.94-3.56a4.51,4.51,0,0,0-2.94-1c-4.6-.41-7.87,2.17-8.39,6.11a8.52,8.52,0,0,0,2,5.95C475.67,157.42,479,157.19,481.09,157.39Z"/><path class="z" d="M476.89,144.93c-.21-.93-.65-1.8-.85-2.73a13.81,13.81,0,0,0-.32-1.58,4.39,4.39,0,0,0-2.74-2.5,7.93,7.93,0,0,0-8.28,2.2,5,5,0,0,0-1.07,1.63,6.81,6.81,0,0,0-.18,2.88l.19,2.44a2.43,2.43,0,0,0,.24,1,2.35,2.35,0,0,0,.89.73c1.87,1.07,3.86,2.17,6,2.15C473.9,151.15,477.67,148.37,476.89,144.93Z"/><path class="z" d="M464.2,144.4a.74.74,0,0,0,0-1.08,2.07,2.07,0,0,0-1.1-.5c-.88-.22-2-.37-2.56.33-.22.26-.32.59-.52.86-.47.6-1.33.69-2,1a5.91,5.91,0,0,0-3,3.61,2.81,2.81,0,0,0-.19.81,2.72,2.72,0,0,0,.21,1,40.64,40.64,0,0,0,2.06,4.74c.93,1.82,3.22,2.36,5.14,2s5.25-1.46,6.47-3.33c1.34-2.06-.32-5.37-1.12-7.37a6.28,6.28,0,0,0-1.42-2.37,2.45,2.45,0,0,0-2.55-.61c-.7.3-1.72.38-2.38.75a5.35,5.35,0,0,1-2.46,1,4.93,4.93,0,0,0-3.16,1.37,3.66,3.66,0,0,0-1,3.23,6.58,6.58,0,0,0,.7,1.67l1.45,2.71a5.54,5.54,0,0,0,2.69,2.77"/><path class="aa" d="M488.31,129.64a.93.93,0,0,1,.44.08c.41.24.21.88-.07,1.26a12,12,0,0,1-5.9,4.4c1.31.26,2.69,0,4,.26a4.77,4.77,0,0,1,3,2,1.75,1.75,0,0,1,.3.67,1.46,1.46,0,0,1-.86,1.45,3.42,3.42,0,0,1-1.77.21,9.89,9.89,0,0,1-3.42-1,5.69,5.69,0,0,1-.87,6.74.81.81,0,0,1-.52.29c-.3,0-.5-.29-.65-.55a18.84,18.84,0,0,1-2.46-5.59,8.56,8.56,0,0,1-2.82,3.93,1.69,1.69,0,0,1-1.55.46,1.22,1.22,0,0,1-.7-1,2.93,2.93,0,0,1,.21-1.27,11.86,11.86,0,0,1,2.31-4,9,9,0,0,1-3.26,1.17,3.07,3.07,0,0,1-3-1.36,1.34,1.34,0,0,1-.15-1c.18-.54.79-.78,1.34-.93a18.48,18.48,0,0,1,4.68-.6,8.53,8.53,0,0,1-3.25-3.56,2.63,2.63,0,0,1-.06-2.73,1,1,0,0,1,.59-.36,1.26,1.26,0,0,1,.89.38,16.11,16.11,0,0,1,4.21,5.18c-.14-2.29-.17-4.85,1.34-6.58a1.57,1.57,0,0,1,1.33-.66,1.23,1.23,0,0,1,.93.87,2.84,2.84,0,0,1,0,1.33c-.16,1-.91,3.17-1.05,4.1a17.7,17.7,0,0,1,2.91-2.77A9.56,9.56,0,0,1,488.31,129.64Z"/><path class="y" d="M479.79,136.8a.38.38,0,0,0,.14-.47.78.78,0,0,0-.36-.38.43.43,0,0,0-.48,0c-.28.23.16.8-.14,1-.29-.1-.67-.17-.85.08a.51.51,0,0,0,.22.66,1.4,1.4,0,0,0,.76.11.55.55,0,0,0-.34.7.6.6,0,0,0,.73.32.65.65,0,0,0,.39-.7.43.43,0,0,0,.52.34.47.47,0,0,0,.32-.55.38.38,0,1,1,0-.68.47.47,0,0,0-.25-.58.42.42,0,0,0-.54.3"/><path class="ab" d="M470.76,152.62l-.2.23c.05,0,0,.09-.06.07a.16.16,0,0,1-.07-.12,20.33,20.33,0,0,1-.4-5.2"/><path class="ac" d="M469.78,147.62a.58.58,0,0,0,.78,0,.4.4,0,0,0,.14-.28.29.29,0,0,0-.19-.26c-.12,0-.35-.06-.36,0,0-.09,0-.09-.11-.14s-.25,0-.27.06c0-.11-.23-.15-.31-.07a.3.3,0,0,0,0,.34.78.78,0,0,0,.53.36"/><path class="ab" d="M470.29,153s.08.05,0,.08a.14.14,0,0,1-.14,0,29.63,29.63,0,0,1-5.58-2.06"/><path class="ac" d="M464.5,151.46c.25,0,.34-.73.31-.79a.69.69,0,0,0-.31-.3.42.42,0,0,0-.42,0,.23.23,0,0,0,.08.35.72.72,0,0,0-.39.08.19.19,0,0,0,0,.31.18.18,0,0,0-.2.27.48.48,0,0,0,.43.19.85.85,0,0,0,.69-.33"/><path class="ab" d="M470.1,153.58s.09,0,.1,0,0,.08-.05.11a21.89,21.89,0,0,1-4.3,3.23"/><path class="ac" d="M466.21,157.25c.09-.31-.29-.64-.66-.68a.7.7,0,0,0-.43.08.28.28,0,0,0-.12.35.29.29,0,0,0,.37.13.51.51,0,0,0-.07.34.25.25,0,0,0,.3.18c-.11.1,0,.31.2.32a.41.41,0,0,0,.36-.23.72.72,0,0,0-.06-.72"/><path class="ab" d="M470,153.41c-.05,0,0-.09,0-.09a.21.21,0,0,1,.12.07,24.83,24.83,0,0,1,3.32,4.53"/><path class="ac" d="M473.79,157.59a.61.61,0,0,0-.8.42.49.49,0,0,0,.05.39.43.43,0,0,0,.39.19.21.21,0,0,0,.17-.3.78.78,0,0,0,.38.15c.14,0,.27-.1.23-.22a.22.22,0,0,0,.36-.1c0-.14-.1-.28-.23-.37a1,1,0,0,0-.82-.11"/><path class="ab" d="M470.31,153.69s-.1,0-.09,0,0-.06.1-.08a26.84,26.84,0,0,1,5.54-1.34"/><path class="ac" d="M475.57,151.74c-.22.24,0,.66.33.83a.7.7,0,0,0,.44.08.29.29,0,0,0,.27-.26.26.26,0,0,0-.29-.25.5.5,0,0,0,.22-.28.23.23,0,0,0-.2-.27c.15,0,.11-.27,0-.34a.45.45,0,0,0-.45.07.69.69,0,0,0-.27.66"/><path class="ab" d="M473.36,150.1a24.8,24.8,0,0,0-2.6,2.52"/><path class="ac" d="M473.37,149.8a.7.7,0,0,1,.3.12.24.24,0,0,1,.07.23.22.22,0,0,1-.1.21.36.36,0,0,1-.23,0,.73.73,0,0,1-.32-.15.27.27,0,0,1,0-.4.24.24,0,0,1,.19,0,.23.23,0,0,1,.12,0S473.4,149.79,473.37,149.8Z"/><path class="ab" d="M467.77,150.06a32,32,0,0,0,2.55,2.93"/><path class="ac" d="M467.45,149.82a.21.21,0,0,1,.06-.17.3.3,0,0,1,.26,0c.09,0,.2.06.23.14a.24.24,0,0,1,0,.2.45.45,0,0,1-.19.24.39.39,0,0,1-.45-.1.23.23,0,0,1,0-.18.42.42,0,0,1,0-.1S467.45,149.8,467.45,149.82Z"/><path class="ab" d="M466.09,153.77a36.08,36.08,0,0,0,3.91-.56"/><path class="ac" d="M465.85,153.88a.29.29,0,0,1-.15-.14c0-.08,0-.15.08-.21a.3.3,0,0,1,.24-.11.39.39,0,0,1,.19.12.61.61,0,0,1,.18.28.3.3,0,0,1-.27.31.36.36,0,0,1-.19-.08.2.2,0,0,1-.08-.08S465.83,153.87,465.85,153.88Z"/><path class="ab" d="M469.9,157.47a22.83,22.83,0,0,0,.37-3.5"/><path class="ac" d="M469.87,157.62c-.05,0,0,.17-.09.17a.34.34,0,0,1-.21-.16.28.28,0,0,1-.06-.24.28.28,0,0,1,.18-.11.57.57,0,0,1,.34,0c.15,0,.3.21.27.35s-.07.09-.13.12-.07,0-.11,0S469.85,157.64,469.87,157.62Z"/><path class="ab" d="M474.53,155a38.41,38.41,0,0,0-3.71-1.65"/><path class="ac" d="M474.8,155a.23.23,0,0,1,0,.18c0,.07-.13.1-.22.11a.32.32,0,0,1-.27,0,.27.27,0,0,1-.08-.19.43.43,0,0,1,0-.3c.12-.19,0-.34.44-.1a.27.27,0,0,1,.1.16.22.22,0,0,1,0,.11S474.81,155,474.8,155Z"/><path class="ad" d="M469.45,150.13a1.62,1.62,0,0,1,.64-.29.72.72,0,0,1,.67.21.38.38,0,0,0,.11.11.22.22,0,0,0,.14,0c.3,0,.58-.16.88-.19a.75.75,0,0,1,.78.35c.08.19,0,.4,0,.61s.42.56.74.75.68.45.68.78-.27.48-.52.65a1.21,1.21,0,0,1-.28,1.8c-.19.12-.43.2-.52.39a1.47,1.47,0,0,0-.06.42c-.06.45-.57.7-1,.89a.89.89,0,0,1-.32.08c-.41,0-.59-.54-1-.66s-.74.2-1.14.21a1.06,1.06,0,0,1-.86-.45,4,4,0,0,1-.46-.83,1.88,1.88,0,0,0-.12-.18,1.58,1.58,0,0,0-.29-.22,1.15,1.15,0,0,1-.32-1.59.66.66,0,0,0,.15-.27c0-.13-.09-.25-.16-.37a.65.65,0,0,1,.48-.9,1.35,1.35,0,0,0,.4-.08.64.64,0,0,0,.22-.27c.32-.49.51-.89,1.17-1"/><path class="g" d="M436.45,153a6.73,6.73,0,0,0-6.81-2.84,2.11,2.11,0,0,0-1,.43,2.05,2.05,0,0,0-.37,2,11,11,0,0,0,3,5.62,6,6,0,0,0-5.07,4,2.23,2.23,0,0,0,.14,2.05,2.73,2.73,0,0,0,1.73.78,34.23,34.23,0,0,0,8.59.39,13.85,13.85,0,0,0-7.33,6.1c-.41.72-.72,1.7-.15,2.24a1.8,1.8,0,0,0,1.19.37,10.86,10.86,0,0,0,6-1.52,5,5,0,0,0,.36,5.92,2.26,2.26,0,0,0,1.9.86,3,3,0,0,0,1.33-.67,12.66,12.66,0,0,0,4.94-10.45,12.37,12.37,0,0,0,2.27,6.82A4.13,4.13,0,0,0,449,176.5a5.24,5.24,0,0,0,3.67-.48,1.74,1.74,0,0,0,.66-.44,1.46,1.46,0,0,0,.1-1.29,13,13,0,0,0-2.29-4.62,5.27,5.27,0,0,0,7.05.15,1.28,1.28,0,0,0,.41-.54,1.22,1.22,0,0,0,0-.6,9.53,9.53,0,0,0-6.78-7.46,1.73,1.73,0,0,0,.88.26,13.48,13.48,0,0,0,4.35-.83,4.74,4.74,0,0,0,2.88-3.19,1.33,1.33,0,0,0-.05-.84,1.48,1.48,0,0,0-.64-.62,6.3,6.3,0,0,0-4.75-.66c1.17-1.13,2.46-2.59,2.1-4.08s-2.2-2.08-3.71-1.66a9.12,9.12,0,0,0-3.84,2.69c-.53.55-1.05,1.09-1.56,1.65a19.75,19.75,0,0,0,1.68-3.13c.45-1.45.69-3.2-.36-4.21a3.25,3.25,0,0,0-3.76-.1,10.48,10.48,0,0,0-2.89,2.93,2.72,2.72,0,0,0-2.93-2.94,4,4,0,0,0-3.39,3.19C435.53,151.28,435.23,152,436.45,153Z"/><path class="y" d="M443.88,161.75a1.41,1.41,0,0,1-.43,1.57l-.24-.85a3,3,0,0,1-.67.45c-.09.05-.22.09-.29,0a.22.22,0,0,1,0-.19,1.64,1.64,0,0,1,.53-1,1.44,1.44,0,0,1-.91.09.63.63,0,0,1-.46-.68c.07-.3.5-.5.72-.29a6.61,6.61,0,0,1-.44-.6.53.53,0,0,1-.12-.29c0-.28.38-.45.64-.35a1.16,1.16,0,0,1,.54.59,1,1,0,0,1,.21-1.18,1.07,1.07,0,0,1,.67,1.05.48.48,0,1,1,.4.65,3.25,3.25,0,0,1,1.31.33.41.41,0,0,1,.22.19c.07.16-.09.37-.28.42a1,1,0,0,1-.55-.08,1.86,1.86,0,0,0,.43.41.45.45,0,0,1,.14.54c-.19.29-.64.09-.81-.19s-.3-.65-.63-.69"/><path class="ae" d="M44.73,196.26a10.69,10.69,0,0,1-.72-2.2,10.44,10.44,0,0,1-.17-2.3,21.8,21.8,0,0,0,.34,2.27A20.14,20.14,0,0,0,44.73,196.26Z"/><path class="ae" d="M42.12,192.67a4.85,4.85,0,0,1-.55-2.43c0-.43.06-.84.11-1.26s0-.88.37-1.18c-.27.34-.2.79-.26,1.19s0,.83,0,1.25A5.77,5.77,0,0,0,42.12,192.67Z"/><path class="ae" d="M42.11,192.64a6.5,6.5,0,0,0-2-.7,6.73,6.73,0,0,0-2.15-.08,5.17,5.17,0,0,1,2.18-.09A5,5,0,0,1,42.11,192.64Z"/><path class="ae" d="M44.85,196.23a8.28,8.28,0,0,0-2.06-.72,3.55,3.55,0,0,0-1.08,0,1.58,1.58,0,0,0-1,.39,1.33,1.33,0,0,1,1-.5,3.51,3.51,0,0,1,1.12,0A6.16,6.16,0,0,1,44.85,196.23Z"/><path class="l" d="M80.06,85.44a7.23,7.23,0,0,1-.85-3.37,8.23,8.23,0,0,1,.43-3.34A29.47,29.47,0,0,1,90.13,64.11a13.18,13.18,0,0,1,2.26-1.25.25.25,0,0,1,.35.19c1.11,8.29-4.09,17.41-11.1,22C80.91,85.5,80.83,85.05,80.06,85.44Z"/><path class="u" d="M212.6,86a20.88,20.88,0,0,1-11.41-5.1c-.8-.71-1.54-1.48-2.26-2.23-.56-.58-1.13-1.17-1.72-1.73-4.1-3.87-11.05-6.27-16.12-6.93l.08-.65c5.18.67,12.29,3.13,16.49,7.1.6.57,1.18,1.17,1.74,1.75.71.74,1.45,1.51,2.22,2.19a20.15,20.15,0,0,0,11.06,4.94Z"/><path class="u" d="M208.4,84.55a3.9,3.9,0,0,1,3.08-.64,3.75,3.75,0,0,1,2.16.82,2,2,0,0,1,.42,2.32,1.91,1.91,0,0,1-1.74.93,3.45,3.45,0,0,1-1.77-.75,10,10,0,0,1-2.5-2.61l.62,0"/><path class="u" d="M206.12,78.78a3.23,3.23,0,0,1,2.13-.17,1.23,1.23,0,0,1,.72.71,1.45,1.45,0,0,1-.09,1,2.55,2.55,0,0,1-1.77,1.36,6.5,6.5,0,0,1-2.2,0,10.94,10.94,0,0,1-2.71-.35C202.82,79.94,204.78,79.15,206.12,78.78Z"/><path class="u" d="M202.57,86.47c.26.66.73,1.36,1.43,1.43a1.34,1.34,0,0,0,1.25-.66,2.06,2.06,0,0,0,.25-1.44,5.29,5.29,0,0,0-.94-2.08,14.62,14.62,0,0,0-1.44-2c-.64-.68-1-.11-1.07.62A8.09,8.09,0,0,0,202.57,86.47Z"/><path class="u" d="M200.24,73.75a3.41,3.41,0,0,1,3.87.43,1.58,1.58,0,0,1,.49.91,1.8,1.8,0,0,1-1,1.61,5.19,5.19,0,0,1-3,.73,11.77,11.77,0,0,1-2-.29c-.73-.16-1.12-.12-.71-.88A5.93,5.93,0,0,1,200.24,73.75Z"/><path class="u" d="M196.13,80.29A3.41,3.41,0,0,0,198,83.71a1.67,1.67,0,0,0,1,.11,1.82,1.82,0,0,0,1.13-1.51,5.23,5.23,0,0,0-.48-3.08,11.43,11.43,0,0,0-1-1.79c-.42-.61-.54-1-1.08-.32A5.89,5.89,0,0,0,196.13,80.29Z"/><path class="u" d="M187.14,66.19a3.39,3.39,0,0,1,3.87.43,1.58,1.58,0,0,1,.49.91,1.82,1.82,0,0,1-1,1.61,5.23,5.23,0,0,1-3,.73,12.81,12.81,0,0,1-2.05-.29c-.73-.16-1.12-.13-.71-.88A5.93,5.93,0,0,1,187.14,66.19Z"/><path class="u" d="M183,72.72a3.41,3.41,0,0,0,1.86,3.43,1.66,1.66,0,0,0,1,.11A1.82,1.82,0,0,0,187,74.75a5.23,5.23,0,0,0-.47-3.08,11.49,11.49,0,0,0-1-1.79c-.42-.62-.53-1-1.08-.32A6,6,0,0,0,183,72.72Z"/><path class="u" d="M189.48,76.42A4.06,4.06,0,0,0,190.57,81a1.9,1.9,0,0,0,1.15.45,2.17,2.17,0,0,0,1.77-1.4,6.19,6.19,0,0,0,.4-3.71,14.07,14.07,0,0,0-.65-2.39c-.3-.84-.32-1.31-1.15-.71A7,7,0,0,0,189.48,76.42Z"/><path class="u" d="M194,68.53a4,4,0,0,1,4.66.09,2,2,0,0,1,.69,1,2.19,2.19,0,0,1-1,2,6.3,6.3,0,0,1-3.54,1.2,13.7,13.7,0,0,1-2.48-.13c-.88-.11-1.34,0-.94-1A7.06,7.06,0,0,1,194,68.53Z"/><path class="g" d="M78.21,91.23a4.4,4.4,0,0,0,4.46,1.86,1.26,1.26,0,0,0,.67-.28,1.35,1.35,0,0,0,.24-1.29,7.18,7.18,0,0,0-2-3.68,3.92,3.92,0,0,0,3.32-2.61,1.46,1.46,0,0,0-.09-1.34,1.75,1.75,0,0,0-1.14-.51,22,22,0,0,0-5.62-.25,9.14,9.14,0,0,0,4.8-4c.26-.47.47-1.11.1-1.46a1.23,1.23,0,0,0-.78-.25,7.14,7.14,0,0,0-3.91,1A3.28,3.28,0,0,0,78,74.55,1.45,1.45,0,0,0,76.8,74a1.88,1.88,0,0,0-.87.43,8.27,8.27,0,0,0-3.23,6.84,8.08,8.08,0,0,0-1.49-4.46,2.68,2.68,0,0,0-1.2-1,3.4,3.4,0,0,0-2.4.31,1,1,0,0,0-.43.29,1,1,0,0,0-.07.84,8.31,8.31,0,0,0,1.5,3A3.45,3.45,0,0,0,64,80.21a.81.81,0,0,0-.26.35.74.74,0,0,0,0,.39,6.24,6.24,0,0,0,4.44,4.88,1.19,1.19,0,0,0-.58-.17,8.89,8.89,0,0,0-2.84.55,3.11,3.11,0,0,0-1.89,2.08,1,1,0,0,0,0,.55,1,1,0,0,0,.42.41,4.14,4.14,0,0,0,3.11.43c-.77.74-1.61,1.69-1.37,2.67a1.91,1.91,0,0,0,2.43,1.08A5.93,5.93,0,0,0,70,91.67q.52-.53,1-1.08a13.48,13.48,0,0,0-1.09,2c-.3,1-.45,2.1.23,2.76a2.13,2.13,0,0,0,2.46.06,6.74,6.74,0,0,0,1.89-1.91,1.78,1.78,0,0,0,1.92,1.92,2.6,2.6,0,0,0,2.21-2.09C78.81,92.33,79,91.89,78.21,91.23Z"/><path class="y" d="M73.35,85.49a.93.93,0,0,1,.28-1l.16.55a1.71,1.71,0,0,1,.43-.29c.07,0,.15-.06.2,0a.13.13,0,0,1,0,.12,1.06,1.06,0,0,1-.34.66.87.87,0,0,1,.59-.06.4.4,0,0,1,.3.44c0,.2-.33.33-.47.19.11.13.2.26.29.39a.36.36,0,0,1,.08.19c0,.19-.25.3-.42.23a.71.71,0,0,1-.35-.39.71.71,0,0,1-.14.78.7.7,0,0,1-.44-.69.34.34,0,0,1-.56.06.35.35,0,0,1,.3-.49,2.1,2.1,0,0,1-.86-.21c-.06,0-.12-.06-.14-.12s.06-.25.18-.28a.64.64,0,0,1,.36,0c-.06-.11-.19-.18-.28-.27a.29.29,0,0,1-.09-.35c.12-.19.42-.06.53.12s.19.43.41.46"/><path class="l" d="M194.67,223.45a40.77,40.77,0,0,1-7.44,2.28q-3.18.72-6.4,1.28c2.23-6.3,8.09-10.72,14.33-13.09,1.93-.73,9.52-3.12,9.31,1.24C204.3,218.54,197.29,222.3,194.67,223.45Z"/><path class="l" d="M205.85,211.39a8.7,8.7,0,0,1,2.84,3,10,10,0,0,1,1.49,3.76,35.51,35.51,0,0,1-2.53,21.44,16.87,16.87,0,0,1-1.65,2.63.31.31,0,0,1-.49,0c-6-8.07-5.8-20.65-1.09-29.52C204.92,211.82,205.26,212.25,205.85,211.39Z"/><path class="g" d="M211.11,213.33a4.57,4.57,0,0,0,5,.47,1.48,1.48,0,0,0,.59-.49,1.42,1.42,0,0,0-.17-1.37,7.52,7.52,0,0,0-3.12-3.05,4.12,4.12,0,0,0,2.5-3.63,1.56,1.56,0,0,0-.51-1.31,1.83,1.83,0,0,0-1.29-.16,23.33,23.33,0,0,0-5.69,1.5,9.44,9.44,0,0,0,3.54-5.48c.12-.55.13-1.26-.35-1.5a1.27,1.27,0,0,0-.86,0,7.4,7.4,0,0,0-3.59,2.21,3.42,3.42,0,0,0-1.44-3.79,1.53,1.53,0,0,0-1.42-.17,2,2,0,0,0-.73.7,8.67,8.67,0,0,0-1.09,7.83,8.41,8.41,0,0,0-2.88-4,2.73,2.73,0,0,0-1.49-.58,3.56,3.56,0,0,0-2.3,1.06,1.06,1.06,0,0,0-.34.42,1,1,0,0,0,.2.86,8.69,8.69,0,0,0,2.43,2.55,3.6,3.6,0,0,0-4.63,1.34.91.91,0,0,0-.16.44.89.89,0,0,0,.12.39,6.53,6.53,0,0,0,6,3.49,1.26,1.26,0,0,0-.64,0,9.4,9.4,0,0,0-2.66,1.44,3.19,3.19,0,0,0-1.23,2.67.91.91,0,0,0,.2.53,1,1,0,0,0,.54.28,4.33,4.33,0,0,0,3.24-.54c-.54,1-1.08,2.19-.54,3.09a2,2,0,0,0,2.76.33,6.27,6.27,0,0,0,2-2.54c.23-.47.46-.93.68-1.4a13.43,13.43,0,0,0-.46,2.39c0,1,.2,2.23,1.09,2.67a2.24,2.24,0,0,0,2.48-.7,7.08,7.08,0,0,0,1.29-2.5,1.85,1.85,0,0,0,2.51,1.32,2.71,2.71,0,0,0,1.56-2.77C212.05,214.25,212.11,213.74,211.11,213.33Z"/><path class="y" d="M204.47,209.11a.94.94,0,0,1,0-1.11l.33.5a2.3,2.3,0,0,1,.34-.43c.05,0,.13-.1.19-.06s.05.07.06.11a.41.41,0,1,0,.44.51.42.42,0,0,1,.43.35c0,.21-.22.43-.4.34l.4.3a.38.38,0,0,1,.14.17c.06.18-.16.37-.35.36a.8.8,0,0,1-.47-.28.72.72,0,0,1,.11.82.74.74,0,0,1-.66-.56.36.36,0,0,1-.54.24.37.37,0,0,1,.15-.58,2.39,2.39,0,0,1-.92.06.27.27,0,0,1-.18-.08c-.08-.09,0-.26.09-.33a.72.72,0,0,1,.38-.07,1.41,1.41,0,0,0-.37-.18.31.31,0,0,1-.2-.32c.07-.23.4-.19.57,0s.33.36.55.32"/><path class="aa" d="M175.9,54.89a.75.75,0,0,1,.23-.37c.35-.28.84.12,1.09.5a11.38,11.38,0,0,1,1.88,6.73c.68-1.07.9-2.39,1.6-3.45a4.5,4.5,0,0,1,2.81-1.93,1.84,1.84,0,0,1,.7,0,1.39,1.39,0,0,1,1,1.26,3.18,3.18,0,0,1-.42,1.64,9.34,9.34,0,0,1-2,2.71A5.4,5.4,0,0,1,188.43,65a.74.74,0,0,1,.07.56c-.1.26-.42.34-.7.39a18,18,0,0,1-5.81.27,8.19,8.19,0,0,1,2.53,3.85,1.59,1.59,0,0,1-.12,1.53,1.13,1.13,0,0,1-1.14.27,2.72,2.72,0,0,1-1.06-.62,11.39,11.39,0,0,1-2.76-3.41,8.46,8.46,0,0,1-.07,3.29,2.9,2.9,0,0,1-2.23,2.19,1.2,1.2,0,0,1-.93-.2,1.68,1.68,0,0,1-.37-1.5,17.71,17.71,0,0,1,1.07-4.36,8,8,0,0,1-4.27,1.66,2.49,2.49,0,0,1-2.44-.88.85.85,0,0,1-.12-.64,1.21,1.21,0,0,1,.64-.66,15.24,15.24,0,0,1,6-2c-2.09-.66-4.36-1.51-5.38-3.45a1.5,1.5,0,0,1-.14-1.4,1.18,1.18,0,0,1,1.09-.53,2.9,2.9,0,0,1,1.19.43c.82.48,2.51,1.89,3.28,2.33a16.7,16.7,0,0,1-1.46-3.52A9.06,9.06,0,0,1,175.9,54.89Z"/><path class="y" d="M179.34,64.9a.37.37,0,0,0-.37-.29.79.79,0,0,0-.46.19c-.13.1-.25.26-.2.41.11.32.77.13.84.47-.18.22-.38.53-.22.78a.48.48,0,0,0,.66,0,1.36,1.36,0,0,0,.36-.64.53.53,0,0,0,.51.54.55.55,0,0,0,.53-.53.61.61,0,0,0-.49-.59.4.4,0,0,0,.48-.34.45.45,0,0,0-.38-.47.5.5,0,0,0-.52.33.48.48,0,0,0-.07-.6.45.45,0,0,0-.6,0,.39.39,0,0,0,.09.58"/><path class="m" d="M147.93,260.93a16.59,16.59,0,0,0,3.92-.59,25.43,25.43,0,0,0,11.28-5.9c.36.23.2.47-.46,1-2.93,2.19-5.58,4.72-9,5.63a22.68,22.68,0,0,1-5.42.58,17.5,17.5,0,0,1-3.06-.16,15.45,15.45,0,0,1-5.63-2.31c-1.49-.93-3.79-2.19-4.92-3.7.84-.45,1.91.76,2.65,1.3a27.19,27.19,0,0,0,3.51,2.22A15.44,15.44,0,0,0,147.93,260.93Z"/><path class="m" d="M165.35,254.13a1.3,1.3,0,0,0,.34-.75.89.89,0,0,0-.34-.81.75.75,0,0,0-.51,0,2.56,2.56,0,0,0-1.59,1,10.73,10.73,0,0,0-.77,2c.18-.45,1-.33,1.39-.41A2.4,2.4,0,0,0,165.35,254.13Z"/><path class="m" d="M162,258.88a2.65,2.65,0,0,0,.94.43,1,1,0,0,0,.89-.24.58.58,0,0,0,.18-.4.87.87,0,0,0-.19-.48,2.17,2.17,0,0,0-1.17-.7,11.35,11.35,0,0,0-1.38-.3c-.38-.06-.89-.21-1.19.05C160.19,257.13,161.64,258.66,162,258.88Z"/><path class="m" d="M157.86,256a2,2,0,0,0-.07-.84.7.7,0,0,0-.55-.53.6.6,0,0,0-.39.19,2.71,2.71,0,0,0-.7,1.67,9.66,9.66,0,0,0,0,2c0,.33,0,.67.09,1A5.59,5.59,0,0,0,157.86,256Z"/><path class="m" d="M149.32,259.1a3.86,3.86,0,0,0,1.09-2.92,1,1,0,0,0-.12-.37.57.57,0,0,0-.56-.22,1.87,1.87,0,0,0-1.36,1,6.31,6.31,0,0,0-.6,1.87,12.55,12.55,0,0,0-.31,2.76A24.56,24.56,0,0,0,149.32,259.1Z"/><path class="m" d="M144.8,257.71a3.68,3.68,0,0,0,.59-1.17,2.28,2.28,0,0,0-.1-1.43,1.09,1.09,0,0,0-.52-.59.83.83,0,0,0-.44-.06,3.29,3.29,0,0,0-2.26,1.78c-.54.89-1,1.85-1.54,2.74C142.1,260.54,143.82,259,144.8,257.71Z"/><path class="m" d="M153.6,259.09a4.31,4.31,0,0,0,.92-2.76,1.2,1.2,0,0,0-.19-.64.61.61,0,0,0-.72-.2,1.38,1.38,0,0,0-.56.54,6,6,0,0,0-.85,3.52,6.18,6.18,0,0,1,0,1.36A8,8,0,0,0,153.6,259.09Z"/><path class="m" d="M160.32,253.86c-.15-.29-.47-.51-.7-.38a.56.56,0,0,0-.2.25,2.57,2.57,0,0,0,.1,1.8,19.41,19.41,0,0,1,.43,2A5.19,5.19,0,0,0,160.32,253.86Z"/><path class="m" d="M158.64,261.06a1.87,1.87,0,0,0,.74.23A.71.71,0,0,0,160,261a.48.48,0,0,0,.1-.23.84.84,0,0,0-.11-.43,2.23,2.23,0,0,0-1.62-1,3.81,3.81,0,0,0-1.93.06A18.58,18.58,0,0,0,158.64,261.06Z"/><path class="m" d="M154.34,262.82a3.49,3.49,0,0,0,1,.8c.32.16.74.17.89-.16a1.16,1.16,0,0,0-.22-1,5.41,5.41,0,0,0-2-1.67c-.33-.19-1.33-.72-1.08.1A6.69,6.69,0,0,0,154.34,262.82Z"/><path class="m" d="M148.38,263.32a3.44,3.44,0,0,0,1.6,1.42.58.58,0,0,0,.75-.21c.15-.34-.09-.79-.34-1.11a7.59,7.59,0,0,0-1.57-1.58c-.23-.16-1.8-1-1.8-.55,0,.15.49.58.57.7C147.89,262.4,148.1,262.89,148.38,263.32Z"/><path class="m" d="M144.29,262.82a3.68,3.68,0,0,1,.65,2.24.83.83,0,0,1-.37.67.62.62,0,0,1-.33,0,2.11,2.11,0,0,1-1.42-1.23,10.39,10.39,0,0,1-.65-2c-.29-1-.7-2-1.07-3A8.67,8.67,0,0,1,144.29,262.82Z"/><path class="u" d="M50.56,114A17.07,17.07,0,0,1,58,107c.78-.38,1.59-.69,2.38-1,.61-.24,1.24-.48,1.84-.75,4.2-1.87,8.19-6.34,10.28-10l.47.27c-2.14,3.68-6.22,8.26-10.53,10.17-.61.27-1.25.52-1.86.76-.78.3-1.59.62-2.35,1A16.5,16.5,0,0,0,51,114.25Z"/><path class="u" d="M53,111.28a3.18,3.18,0,0,1-.49,2.51,3.06,3.06,0,0,1-1.29,1.37,1.61,1.61,0,0,1-1.88-.41,1.55,1.55,0,0,1-.15-1.6,2.8,2.8,0,0,1,1.11-1.1A8.28,8.28,0,0,1,53,111l-.16.48"/><path class="u" d="M58,111.37a2.76,2.76,0,0,1-.55,1.66,1,1,0,0,1-.75.32A1.2,1.2,0,0,1,56,113a2.13,2.13,0,0,1-.47-1.76,5.52,5.52,0,0,1,.67-1.67,9.15,9.15,0,0,1,1.11-1.93C58.18,108.52,58.16,110.25,58,111.37Z"/><path class="u" d="M53.34,106.28a1.64,1.64,0,0,0-1.52.63,1.11,1.11,0,0,0,.1,1.15,1.73,1.73,0,0,0,1,.64,4.54,4.54,0,0,0,1.87,0,12.93,12.93,0,0,0,1.93-.47c.72-.27.39-.69-.13-1A6.62,6.62,0,0,0,53.34,106.28Z"/><path class="u" d="M63.64,108.53a2.76,2.76,0,0,1-1.53,2.78,1.36,1.36,0,0,1-.84.08,1.46,1.46,0,0,1-.91-1.24,4.31,4.31,0,0,1,.41-2.51,9.22,9.22,0,0,1,.86-1.45c.35-.5.44-.8.88-.26A4.78,4.78,0,0,1,63.64,108.53Z"/><path class="u" d="M60,103.38a2.77,2.77,0,0,0-3.16.33,1.34,1.34,0,0,0-.41.73,1.5,1.5,0,0,0,.78,1.33,4.33,4.33,0,0,0,2.47.61,9.56,9.56,0,0,0,1.68-.23c.59-.12.91-.09.58-.71A4.88,4.88,0,0,0,60,103.38Z"/><path class="u" d="M73.45,101a2.78,2.78,0,0,1-1.54,2.78,1.35,1.35,0,0,1-.84.09,1.5,1.5,0,0,1-.91-1.24,4.29,4.29,0,0,1,.41-2.51,10.06,10.06,0,0,1,.86-1.45c.35-.5.45-.8.89-.26A4.82,4.82,0,0,1,73.45,101Z"/><path class="u" d="M69.82,95.9a2.77,2.77,0,0,0-3.16.32,1.39,1.39,0,0,0-.4.74A1.47,1.47,0,0,0,67,98.28a4.18,4.18,0,0,0,2.47.61,8.59,8.59,0,0,0,1.67-.22c.6-.12.91-.09.58-.71A4.71,4.71,0,0,0,69.82,95.9Z"/><path class="u" d="M65,99.59a3.32,3.32,0,0,0-3.76-.6,1.57,1.57,0,0,0-.69.73,1.75,1.75,0,0,0,.49,1.76A5.09,5.09,0,0,0,63.73,103a11.29,11.29,0,0,0,2,.26c.73,0,1.09.17.9-.64A5.78,5.78,0,0,0,65,99.59Z"/><path class="u" d="M69.53,105.48A3.3,3.3,0,0,1,68,109a1.56,1.56,0,0,1-1,.19,1.79,1.79,0,0,1-1.22-1.37,5.11,5.11,0,0,1,.22-3,10.14,10.14,0,0,1,.87-1.82c.36-.64.44-1,1-.41A5.79,5.79,0,0,1,69.53,105.48Z"/><path class="l" d="M52.93,193.35a12.45,12.45,0,0,1-4.53-2.26,12.77,12.77,0,0,1-3.34-3.39c-4.71-7.13-7.32-14.67-6.8-22.48a14.37,14.37,0,0,1,.66-3.14.36.36,0,0,1,.54-.14c10.28,6.44,15.73,19.26,14.45,29.62C53.78,192.64,53.2,192.3,52.93,193.35Z"/><path class="af" d="M51.43,197.46c-2.13-5-6.6-9.11-11.09-11.6A14.84,14.84,0,0,0,35,184.53a.81.81,0,0,0-.83.76,8.52,8.52,0,0,0,.5,3.7,26,26,0,0,0,5.85,10.12,35.25,35.25,0,0,0,8.19,5.76c1.74,1,4.83,3,5.21-.28C54.16,202.22,52.32,199.55,51.43,197.46Z"/><path class="v" d="M52.37,224a6.46,6.46,0,0,1-4.2,3.8,12,12,0,0,1-.74-8.61,5.47,5.47,0,0,1-3.4,2.42,13.51,13.51,0,0,1-4.26.27,10.44,10.44,0,0,1,3.59-7.23,3.92,3.92,0,0,1-3.1-.94,11.7,11.7,0,0,1-2.13-2.56.92.92,0,0,1-.23-.6.88.88,0,0,1,.3-.49,5.09,5.09,0,0,1,3.21-1.61,2.79,2.79,0,0,1,2.85,1.85,8.93,8.93,0,0,1,0-7.64c3.23.15,5.6,3.22,6.55,6.31.78,2.52,1,5.18,1.59,7.73S53.4,221.58,52.37,224Z"/><path class="ag" d="M47.36,211.91c.41.4.82.81,1.22,1.23l-1.07.17c-.19,0-.41.09-.45.28a.35.35,0,0,0,.21.36c.14.06.29.08.43.13a1,1,0,0,1,.57.53,5.07,5.07,0,0,0-.72.4.47.47,0,0,0-.23.31.32.32,0,0,0,.24.29,1,1,0,0,0,.39,0,.88.88,0,0,1,.55.12.43.43,0,0,1,.2.48,1.14,1.14,0,0,1-.18.25.88.88,0,0,0,.15,1.19.44.44,0,0,0,.51.06.64.64,0,0,0,.1-.13l1-1.55a3.31,3.31,0,0,0,.59-1.17C51.3,213.27,48.88,211.36,47.36,211.91Z"/><path class="ah" d="M67,205.42c3.14-3.75,3.61-9.29,7-12.8"/><path class="x" d="M74.92,192.92a3.66,3.66,0,0,0,2.21-3.84,2.24,2.24,0,0,0-.39-1,1.3,1.3,0,0,0-.92-.55,1.87,1.87,0,0,0-1.45.75,4.44,4.44,0,0,0-1.22,4.05c.08.28.15,1.05.48,1.1.14,0,.49-.22.64-.27Z"/><path class="x" d="M71,197.53l0,0a6.43,6.43,0,0,1,4.77-2.07A1.48,1.48,0,0,1,77,196a1.28,1.28,0,0,1-.19,1.39,3.12,3.12,0,0,1-1.66,1.09,5.39,5.39,0,0,1-2,.13,3.78,3.78,0,0,1-1-.2A2.73,2.73,0,0,1,71,197.53Z"/><path class="x" d="M70.38,201.75a7.53,7.53,0,0,1,2.34-.54,1.82,1.82,0,0,1,1.64.48,1.28,1.28,0,0,1-.25,1.6,3.34,3.34,0,0,1-1.58.73,6.93,6.93,0,0,1-2.17.21c-.47,0-2.25-.49-1.77-1A6.21,6.21,0,0,1,70.38,201.75Z"/><path class="x" d="M67.6,196.7a.72.72,0,0,0-.53-.21.57.57,0,0,0-.27.13,1.46,1.46,0,0,0-.54,1,2.57,2.57,0,0,0,.1.73,6.68,6.68,0,0,0,.9,2c.28.42,1.68,2.21,1.85,1.67a8.54,8.54,0,0,0-.18-3.58A4.85,4.85,0,0,0,67.6,196.7Z"/><path class="x" d="M71.66,195.86a.25.25,0,0,1-.09.27c-.06.05-.13.2,0,.23a12.6,12.6,0,0,0,.38-2.5,4,4,0,0,0-.63-2.41,1.27,1.27,0,0,0-1.11-.65,1,1,0,0,0-.58.33,2.08,2.08,0,0,0-.32,2.06,9.66,9.66,0,0,0,1.06,1.91,4.49,4.49,0,0,0,1.06,1.34"/><path class="ai" d="M67.67,219.2a28.88,28.88,0,0,1,8,8.13.56.56,0,0,1,.15.47.58.58,0,0,1-.22.27,4.8,4.8,0,0,1-3.4.84,11.15,11.15,0,0,1-3.41-1,17.7,17.7,0,0,1-5.28-3.4c-1.29-1.27-3.36-3.76-1.59-5.45C63.52,217.47,66.16,218.27,67.67,219.2Z"/><path class="ai" d="M62.86,222.25A22.13,22.13,0,0,1,66,234.8a.75.75,0,0,1-.21.57.63.63,0,0,1-.54,0,9.32,9.32,0,0,1-4.67-3.58,15.27,15.27,0,0,1-2.1-3.92c-.85-2.34-2-7.57-1-9.75C58.89,215.16,62,220.85,62.86,222.25Z"/><g class="aj"><path class="ak" d="M71.91,226.6a22.22,22.22,0,0,1-7.18-5.06c1.18.88,2.33,1.79,3.53,2.61S70.68,225.79,71.91,226.6Z"/></g><g class="aj"><path class="ak" d="M63.75,231.47a25.06,25.06,0,0,1-2.08-3.63,14.8,14.8,0,0,1-1.18-4A36.82,36.82,0,0,0,62,227.7C62.53,229,63.21,230.18,63.75,231.47Z"/></g><path class="al" d="M55.25,218.52a.38.38,0,0,1,.14-.14c.19-.08.36.15.43.35a5.22,5.22,0,0,1,0,3.2c.42-.39.67-1,1.11-1.34a2.09,2.09,0,0,1,1.47-.53.78.78,0,0,1,.31.07.62.62,0,0,1,.29.67,1.38,1.38,0,0,1-.37.68,4.36,4.36,0,0,1-1.22,1,2.49,2.49,0,0,1,2.16,2,.33.33,0,0,1,0,.26c-.07.1-.22.1-.35.09a8.23,8.23,0,0,1-2.61-.56,3.68,3.68,0,0,1,.67,2,.74.74,0,0,1-.23.66.52.52,0,0,1-.54,0,1.24,1.24,0,0,1-.39-.4,5.05,5.05,0,0,1-.83-1.83,3.84,3.84,0,0,1-.41,1.45,1.37,1.37,0,0,1-1.25.71.57.57,0,0,1-.39-.2.75.75,0,0,1,0-.71,7.93,7.93,0,0,1,1-1.81,3.74,3.74,0,0,1-2.09.24,1.14,1.14,0,0,1-1-.67.44.44,0,0,1,0-.3.57.57,0,0,1,.37-.22,6.77,6.77,0,0,1,2.9-.16,3.9,3.9,0,0,1-2-2.16.71.71,0,0,1,.1-.64.54.54,0,0,1,.55-.1,1.39,1.39,0,0,1,.48.32c.3.31.89,1.13,1.18,1.42a7.48,7.48,0,0,1-.24-1.73A4.17,4.17,0,0,1,55.25,218.52Z"/><path class="y" d="M55.32,222.8a.16.16,0,0,0-.13-.17.36.36,0,0,0-.23,0c-.07,0-.14.08-.13.16s.32.15.32.3-.24.2-.19.32a.2.2,0,0,0,.28.09.53.53,0,0,0,.24-.23.23.23,0,0,0,.16.29.26.26,0,0,0,.3-.17.3.3,0,0,0-.15-.32A.18.18,0,0,0,56,223a.2.2,0,0,0-.11-.26.17.17,0,1,1-.23-.19.22.22,0,0,0-.27-.06.19.19,0,0,0,0,.27"/><path class="l" d="M57.81,182.93a35.86,35.86,0,0,1,4.83-5,25.31,25.31,0,0,1,4.7-2.94.37.37,0,0,1,.51.31c.34,5.83-2.73,11.47-6.83,15.66-1.31,1.33-6.63,6.17-8.11,2.51C51.77,190.61,56.09,184.87,57.81,182.93Z"/><path class="am" d="M66.82,215.89c4.69.72,11,3.06,14.24,7.63"/><path class="an" d="M72.16,222.25a3.59,3.59,0,0,0,.77,2,1.47,1.47,0,0,0,1.95.27,2.08,2.08,0,0,0,.55-1.13,5.9,5.9,0,0,0,0-3.89,6.76,6.76,0,0,0-.63-1,8.36,8.36,0,0,0-.57-.76c-1.11-1.26-1.53-.69-1.93.72A9.51,9.51,0,0,0,72.16,222.25Z"/><path class="an" d="M75.94,215.41a27.64,27.64,0,0,1,2.8-.9,3.82,3.82,0,0,1,2.09-.12,1.22,1.22,0,0,1,.73.56,1.11,1.11,0,0,1-.13,1.11,2.65,2.65,0,0,1-.9.76,10.74,10.74,0,0,1-3.34,1.27c-.74.16-3.39.51-3.76-.52S75.28,215.66,75.94,215.41Z"/><path class="an" d="M79.2,224.76A4.78,4.78,0,0,0,82,226.33a2.92,2.92,0,0,0,1.21.07,2.06,2.06,0,0,0,1.46-1.32,2.87,2.87,0,0,0-.07-2,4.8,4.8,0,0,0-4.1-2.73c-1.28-.11-1.76.23-1.94,1.48A3.9,3.9,0,0,0,79.2,224.76Z"/><path class="ao" d="M53.74,188.24A.59.59,0,0,1,54,188c.32-.15.61.25.73.59a9,9,0,0,1,.08,5.47c.72-.68,1.15-1.63,1.89-2.29a3.53,3.53,0,0,1,2.52-.9,1.36,1.36,0,0,1,.53.11,1.07,1.07,0,0,1,.49,1.15,2.39,2.39,0,0,1-.64,1.16,7.4,7.4,0,0,1-2.08,1.64,4.22,4.22,0,0,1,3.69,3.45.6.6,0,0,1-.06.44.62.62,0,0,1-.61.15,13.67,13.67,0,0,1-4.44-.95,6.36,6.36,0,0,1,1.14,3.42,1.25,1.25,0,0,1-.4,1.13.9.9,0,0,1-.91,0,2.32,2.32,0,0,1-.68-.68,8.63,8.63,0,0,1-1.4-3.14,6.76,6.76,0,0,1-.71,2.48A2.28,2.28,0,0,1,51,202.43a.93.93,0,0,1-.66-.34,1.3,1.3,0,0,1,0-1.21A14,14,0,0,1,52,197.8a6.39,6.39,0,0,1-3.56.41,2,2,0,0,1-1.67-1.16.69.69,0,0,1,0-.51,1,1,0,0,1,.62-.37,12,12,0,0,1,5-.28c-1.45-.91-3-2-3.38-3.67a1.18,1.18,0,0,1,.17-1.09.92.92,0,0,1,.93-.18,2.07,2.07,0,0,1,.82.56c.52.52,1.52,1.93,2,2.42a13.38,13.38,0,0,1-.4-3A7.16,7.16,0,0,1,53.74,188.24Z"/><path class="y" d="M54.34,196.49a.29.29,0,0,0-.22-.29.59.59,0,0,0-.39.06c-.12.05-.24.14-.23.26s.55.26.54.53c-.18.13-.39.33-.32.54a.37.37,0,0,0,.49.15,1,1,0,0,0,.4-.4.42.42,0,0,0,.28.51.43.43,0,0,0,.5-.3.47.47,0,0,0-.25-.54.33.33,0,0,0,.44-.17.36.36,0,0,0-.2-.43.41.41,0,0,0-.46.15.38.38,0,0,0,.07-.47.34.34,0,0,0-.46-.1.31.31,0,0,0-.05.45"/><path class="v" d="M125.85,49.88a8.37,8.37,0,0,1-2.95-6.73,15.58,15.58,0,0,1,10.91,2.62,7.07,7.07,0,0,1-1.6-5.18,18,18,0,0,1,1.42-5.37,13.57,13.57,0,0,1,7.43,7.39,5.07,5.07,0,0,1,2.43-3.43,14.71,14.71,0,0,1,4-1.58,1.22,1.22,0,0,1,.84,0,1.15,1.15,0,0,1,.48.58,6.54,6.54,0,0,1,.67,4.61,3.63,3.63,0,0,1-3.45,2.75,11.59,11.59,0,0,1,9.41,3.14c-1.5,3.92-6.26,5.58-10.46,5.49-3.42-.07-6.76-1-10.17-1.21S128.41,52.14,125.85,49.88Z"/><path class="ag" d="M143.76,49.68l-2.1.8.36-1.36c.06-.24.1-.54-.1-.69a.48.48,0,0,0-.54.07,4,4,0,0,0-.38.44,1.27,1.27,0,0,1-.93.39,5.44,5.44,0,0,0-.1-1.06.6.6,0,0,0-.25-.44.41.41,0,0,0-.46.13,1.53,1.53,0,0,0-.25.45,1.35,1.35,0,0,1-.43.59.55.55,0,0,1-.68,0,1.3,1.3,0,0,1-.21-.34,1.15,1.15,0,0,0-1.49-.44.55.55,0,0,0-.33.57A.66.66,0,0,0,136,49L137.25,51a4.74,4.74,0,0,0,1.07,1.32C140.06,53.63,143.61,51.77,143.76,49.68Z"/><path class="ap" d="M220.55,141.83c-3.2,4.31-3.65,10.2-7.12,14.29"/><path class="x" d="M212.55,155.9a4.35,4.35,0,0,0-2.24,4.29,2.1,2.1,0,0,0,.4,1,1.2,1.2,0,0,0,.94.47,2.16,2.16,0,0,0,1.48-.95,5.18,5.18,0,0,0,1.23-4.41c-.08-.28-.16-1.09-.5-1.1-.14,0-.5.28-.65.35Z"/><path class="x" d="M216.55,150.6l0,0a7.28,7.28,0,0,1-4.86,2.72,1.35,1.35,0,0,1-1.3-.36,1.42,1.42,0,0,1,.19-1.49,3.67,3.67,0,0,1,1.69-1.33,5.37,5.37,0,0,1,2-.37,3.84,3.84,0,0,1,1,.1A2.39,2.39,0,0,1,216.55,150.6Z"/><path class="x" d="M217.14,146.08a8,8,0,0,1-2.39.83,1.68,1.68,0,0,1-1.67-.31,1.44,1.44,0,0,1,.25-1.72,3.77,3.77,0,0,1,1.61-.95,7.17,7.17,0,0,1,2.21-.47c.48,0,2.3.26,1.81.83A7.68,7.68,0,0,1,217.14,146.08Z"/><path class="x" d="M220,151.08a.65.65,0,0,0,.54.17.73.73,0,0,0,.28-.17,1.79,1.79,0,0,0,.55-1.16,2.45,2.45,0,0,0-.11-.76,6.31,6.31,0,0,0-.93-2c-.29-.41-1.72-2.14-1.89-1.55a9.08,9.08,0,0,0,.2,3.75A4.35,4.35,0,0,0,220,151.08Z"/><path class="x" d="M215.86,152.43a.31.31,0,0,1,.09-.29c.06-.06.13-.23.06-.25a13.76,13.76,0,0,0-.39,2.68,4.1,4.1,0,0,0,.66,2.46,1.14,1.14,0,0,0,1.14.56,1.2,1.2,0,0,0,.59-.41,2.32,2.32,0,0,0,.31-2.2,8.15,8.15,0,0,0-1.09-1.9,3.92,3.92,0,0,0-1.08-1.3"/><path class="af" d="M220,150.34c.24,6.3,3.36,12.55,7.19,17.08a16.79,16.79,0,0,0,5.25,3.65.94.94,0,0,0,1.21-.47,9.87,9.87,0,0,0,1-4.19c.14-5.48-.44-9.38-2.13-13.33-1.52-3.56-4-6.6-6.46-9.59-1.47-1.79-4-5.26-5.74-1.85C219,144.08,219.93,147.72,220,150.34Z"/><path class="n" d="M211.71,125.3l-.86-.26"/><path class="v" d="M238.34,123.74a7.41,7.41,0,0,1,6.54-.07,13.89,13.89,0,0,1-6,8,6.3,6.3,0,0,1,4.8.51,16,16,0,0,1,3.89,3,12,12,0,0,1-8.64,3.5,4.51,4.51,0,0,1,2,3.19,13.45,13.45,0,0,1-.11,3.85,1.05,1.05,0,0,1-.26.69,1,1,0,0,1-.64.19,5.83,5.83,0,0,1-4-1.06,3.25,3.25,0,0,1-1-3.78,10.28,10.28,0,0,1-5.85,6.6c-2.69-2.6-2.37-7.07-.84-10.47,1.26-2.78,3.15-5.2,4.54-7.9S235.6,125,238.34,123.74Z"/><path class="ag" d="M233.41,138c0-.67-.08-1.33-.11-2l1,.67c.19.12.44.24.61.11a.42.42,0,0,0,.09-.48c-.07-.16-.19-.29-.27-.44a1.13,1.13,0,0,1-.08-.9,4.2,4.2,0,0,0,.92.2.48.48,0,0,0,.44-.09.37.37,0,0,0,0-.43,1.43,1.43,0,0,0-.32-.33,1.16,1.16,0,0,1-.38-.52.5.5,0,0,1,.2-.57,1.05,1.05,0,0,1,.35-.08,1,1,0,0,0,.78-1.14c0-.21-.19-.43-.4-.44a.42.42,0,0,0-.19,0l-2.09.54a4,4,0,0,0-1.41.55C231.06,133.84,231.68,137.35,233.41,138Z"/><path class="p" d="M221.43,116.18a33.2,33.2,0,0,1-.68-13.14.67.67,0,0,1,.23-.52.65.65,0,0,1,.39-.06,5.5,5.5,0,0,1,3.58,1.87,12.56,12.56,0,0,1,2.15,3.52,20.59,20.59,0,0,1,2,7c.14,2.09,0,5.83-2.8,5.94C223.7,120.85,222,118.14,221.43,116.18Z"/><path class="p" d="M227.92,117.22A25.52,25.52,0,0,1,234.79,104a.87.87,0,0,1,.61-.35c.21,0,.37.22.49.41a10.75,10.75,0,0,1,1.29,6.66,18,18,0,0,1-1.18,5c-1.05,2.67-4.07,8.06-6.61,9.18C225.93,126.39,227.58,119.08,227.92,117.22Z"/><path class="z" d="M223.83,132.07c2.27-.94,4.63-2.15,5.79-4.33a8.77,8.77,0,0,0,.53-5.75,2.75,2.75,0,0,0-.37-1c-.66-1-2.07-.81-3.21-1a19.85,19.85,0,0,1-3-1,3.82,3.82,0,0,0-3,.06,4.09,4.09,0,0,0-1.65,3,15.34,15.34,0,0,0,.89,8.42A3.29,3.29,0,0,0,223.83,132.07Z"/><path class="z" d="M221.46,123.6c-.45-2.27-1.46-4.74-3.56-5.45-1.87-.62-3.92.4-5.48,1.7a4.24,4.24,0,0,0-1.25,1.45,17,17,0,0,0-.51,1.76c-.23.69-.64,1.3-.86,2A7.28,7.28,0,0,0,210,129a4.89,4.89,0,0,0,1,2.22c1,1,2.6.83,4,.85,1.85,0,5.13,2,6.47,0S221.87,125.7,221.46,123.6Z"/><path class="z" d="M210.62,129a8.9,8.9,0,0,0-1.94.39,3.57,3.57,0,0,0-.94,6.28,8.72,8.72,0,0,1,1.76,1.52c.62.91.49,2.14,1.46,2.81a3.86,3.86,0,0,0,2.65.3c3.93-.52,6.18-3.3,5.89-6.7a7.32,7.32,0,0,0-2.83-4.6C215.16,128,212.42,128.78,210.62,129Z"/><path class="z" d="M216.48,138.67c.35.74.88,1.38,1.22,2.13.2.41.33.86.57,1.25a3.8,3.8,0,0,0,2.77,1.59,6.81,6.81,0,0,0,6.52-3.41,4.23,4.23,0,0,0,.59-1.56,5.92,5.92,0,0,0-.39-2.45l-.62-2a2,2,0,0,0-.39-.81,2,2,0,0,0-.89-.45,10.62,10.62,0,0,0-5.44-.67C217.82,132.89,215.18,135.93,216.48,138.67Z"/><path class="z" d="M227.21,136.73a.63.63,0,0,0,.21.9,1.83,1.83,0,0,0,1,.22c.78,0,1.73-.07,2.09-.77.13-.25.15-.55.27-.82.28-.59,1-.83,1.53-1.19a5,5,0,0,0,1.85-3.6,2.12,2.12,0,0,0,0-.71,2.43,2.43,0,0,0-.37-.8,34,34,0,0,0-2.62-3.59c-1.12-1.35-3.14-1.37-4.68-.71s-4.13,2.21-4.8,4c-.73,2,1.28,4.43,2.32,6a5.4,5.4,0,0,0,1.64,1.72,2.12,2.12,0,0,0,2.26,0c.52-.38,1.36-.64,1.85-1.07a4.49,4.49,0,0,1,1.87-1.31,4.23,4.23,0,0,0,2.39-1.75,3.1,3.1,0,0,0,.26-2.89,5.39,5.39,0,0,0-.9-1.28l-1.72-2a4.83,4.83,0,0,0-2.77-1.81"/><g class="aj"><path class="ak" d="M223.42,106.54a25.6,25.6,0,0,1,1.64,4.82,26.93,26.93,0,0,1,.7,5c-.33-1.67-.62-3.33-1-5S223.88,108.17,223.42,106.54Z"/></g><g class="aj"><path class="ak" d="M234.87,106.66a29.06,29.06,0,0,1-.84,5.86,12.94,12.94,0,0,1-2.69,5.25,17.36,17.36,0,0,0,2.36-5.34C234.23,110.55,234.5,108.6,234.87,106.66Z"/></g><path class="aq" d="M223.83,148.57a12.78,12.78,0,0,1,2,3.35c.58,1.18,1.13,2.37,1.65,3.58a71.81,71.81,0,0,1,2.63,7.42c-.85-2.48-1.74-4.95-2.79-7.36-.5-1.21-1-2.41-1.59-3.59A15.08,15.08,0,0,0,223.83,148.57Z"/><path class="aq" d="M227,154.49a9.76,9.76,0,0,1,.11,2.16,9.5,9.5,0,0,1-.43,2.12c.1-.72.23-1.42.26-2.13A19.23,19.23,0,0,0,227,154.49Z"/><path class="aq" d="M228.75,158.68a4.82,4.82,0,0,1-.12,2.58,10.48,10.48,0,0,1-.45,1.22c-.17.38-.28.87-.69,1.08.37-.26.42-.73.59-1.12s.28-.81.39-1.23A5.86,5.86,0,0,0,228.75,158.68Z"/><path class="aq" d="M225.31,150.94a12.85,12.85,0,0,1,.32,2.47,5.48,5.48,0,0,1-.52,2.43,7,7,0,0,0,.35-2.43C225.49,152.59,225.36,151.77,225.31,150.94Z"/><path class="aq" d="M228.75,158.72a7.54,7.54,0,0,0,4,1.92,5.12,5.12,0,0,1-4-1.92Z"/><path class="aq" d="M226.9,154.49a8.21,8.21,0,0,0,1.68,1.15,3.25,3.25,0,0,0,1,.3,1.47,1.47,0,0,0,1-.1,1.27,1.27,0,0,1-1,.22,3.56,3.56,0,0,1-1-.26A5.55,5.55,0,0,1,226.9,154.49Z"/><path class="aq" d="M225.22,150.91a10.5,10.5,0,0,0,1.75.78,10.34,10.34,0,0,0,1.84.47,6.2,6.2,0,0,1-1.9-.31A6.09,6.09,0,0,1,225.22,150.91Z"/><path class="al" d="M231.65,126.27a.37.37,0,0,1-.23,0c-.23-.07-.19-.4-.1-.62a6,6,0,0,1,2.41-2.81c-.67,0-1.32.3-2,.31a2.4,2.4,0,0,1-1.68-.67.93.93,0,0,1-.22-.3.73.73,0,0,1,.27-.8,1.64,1.64,0,0,1,.84-.3,4.89,4.89,0,0,1,1.79.1,2.86,2.86,0,0,1-.32-3.4.41.41,0,0,1,.23-.2c.15,0,.28.08.38.19a9.33,9.33,0,0,1,1.82,2.48,4.3,4.3,0,0,1,1-2.24.85.85,0,0,1,.71-.4.62.62,0,0,1,.45.42,1.58,1.58,0,0,1,0,.65,5.83,5.83,0,0,1-.7,2.22,4.54,4.54,0,0,1,1.48-.94,1.55,1.55,0,0,1,1.62.34.65.65,0,0,1,.18.47c0,.29-.3.47-.56.6a8.76,8.76,0,0,1-2.23.81,4.25,4.25,0,0,1,2,1.4,1.32,1.32,0,0,1,.33,1.33.49.49,0,0,1-.25.24.6.6,0,0,1-.48-.09,8,8,0,0,1-2.63-2.08,4.55,4.55,0,0,1,.06,3.38.79.79,0,0,1-.58.47.63.63,0,0,1-.55-.32,1.49,1.49,0,0,1-.16-.65c0-.5.09-1.66.06-2.13a9.21,9.21,0,0,1-1.12,1.68A4.75,4.75,0,0,1,231.65,126.27Z"/><path class="y" d="M234.86,122.52a.21.21,0,0,0,0,.25.42.42,0,0,0,.22.14c.08,0,.18,0,.23,0s-.16-.38,0-.51.35,0,.41-.13a.24.24,0,0,0-.18-.3.62.62,0,0,0-.38,0,.28.28,0,0,0,.09-.38.3.3,0,0,0-.4-.08.32.32,0,0,0-.11.39.21.21,0,0,0-.29-.11.23.23,0,0,0-.1.3.26.26,0,0,0,.3.13.25.25,0,0,0-.24.21.23.23,0,0,0,.18.26.21.21,0,0,0,.23-.21"/><path class="am" d="M219.9,119.58a16.59,16.59,0,0,1-6.57-14.29"/><path class="an" d="M219.8,112a3.78,3.78,0,0,0,.64-2.11,1.52,1.52,0,0,0-1.43-1.45,2.12,2.12,0,0,0-1.16.57,6.09,6.09,0,0,0-2.47,3.17,6.54,6.54,0,0,0-.14,1.24c0,.33,0,.66,0,1,.1,1.73.81,1.53,2,.63A9.81,9.81,0,0,0,219.8,112Z"/><path class="an" d="M212.39,115.15a26.18,26.18,0,0,1-2.85-1,3.9,3.9,0,0,1-1.79-1.23,1.2,1.2,0,0,1-.25-.91,1.17,1.17,0,0,1,.81-.83,2.75,2.75,0,0,1,1.21-.05,11.25,11.25,0,0,1,3.54,1.07c.7.34,3.09,1.73,2.75,2.81S213.09,115.36,212.39,115.15Z"/><path class="an" d="M215.64,105.45a4.9,4.9,0,0,0-1.27-3,3.2,3.2,0,0,0-.94-.82,2.16,2.16,0,0,0-2,.15,3,3,0,0,0-1.22,1.7,4.91,4.91,0,0,0,1.63,4.82c1,.91,1.58.93,2.52,0A4.07,4.07,0,0,0,215.64,105.45Z"/><path class="aa" d="M129.8,246.12a.84.84,0,0,1,.22-.36c.35-.28.84.12,1.09.49A11.43,11.43,0,0,1,133,253c.68-1.08.9-2.39,1.6-3.45a4.56,4.56,0,0,1,2.81-1.94,1.84,1.84,0,0,1,.7,0,1.39,1.39,0,0,1,1,1.26,3.09,3.09,0,0,1-.42,1.64,9.17,9.17,0,0,1-2,2.71,5.41,5.41,0,0,1,5.69,3.06.77.77,0,0,1,.08.57c-.11.26-.43.34-.71.38a17.7,17.7,0,0,1-5.8.28,8,8,0,0,1,2.52,3.85,1.59,1.59,0,0,1-.12,1.53,1.17,1.17,0,0,1-1.14.27,2.73,2.73,0,0,1-1.05-.62,11,11,0,0,1-2.76-3.42,8.71,8.71,0,0,1-.07,3.3,2.93,2.93,0,0,1-2.24,2.19,1.26,1.26,0,0,1-.93-.2,1.66,1.66,0,0,1-.36-1.51,17.08,17.08,0,0,1,1.06-4.35,8.08,8.08,0,0,1-4.27,1.66,2.49,2.49,0,0,1-2.44-.88.86.86,0,0,1-.12-.64,1.18,1.18,0,0,1,.64-.66,15.25,15.25,0,0,1,6-2c-2.09-.66-4.36-1.5-5.38-3.44a1.5,1.5,0,0,1-.14-1.4,1.19,1.19,0,0,1,1.09-.53,2.6,2.6,0,0,1,1.19.43c.82.48,2.51,1.89,3.28,2.33a17.26,17.26,0,0,1-1.46-3.52A9,9,0,0,1,129.8,246.12Z"/><path class="y" d="M133.23,256.13a.35.35,0,0,0-.36-.28.7.7,0,0,0-.47.19c-.12.1-.25.25-.19.41.1.32.76.13.84.46-.19.23-.39.54-.22.78a.45.45,0,0,0,.65,0,1.26,1.26,0,0,0,.37-.63.51.51,0,0,0,.5.54.55.55,0,0,0,.53-.53.6.6,0,0,0-.49-.59.42.42,0,0,0,.49-.34.46.46,0,0,0-.38-.48.37.37,0,1,1-.6-.27.45.45,0,0,0-.6,0,.39.39,0,0,0,.09.57"/><path class="ar" d="M126.06,147.22a154.21,154.21,0,0,0-15.3,4.82c-2.5.93-5,1.92-7.44,3-1.22.53-2.44,1.08-3.65,1.65a20,20,0,0,0-1.8.88A3.25,3.25,0,0,0,96.5,159l0,0,1.19-.37-1.18.4h0v0a3.29,3.29,0,0,1,1.37-1.44,17.79,17.79,0,0,1,1.79-.92c1.2-.58,2.42-1.13,3.64-1.67,2.45-1.08,4.93-2.1,7.44-3A134.43,134.43,0,0,1,126.06,147.22Z"/><path class="as" d="M159.2,69.36a23.65,23.65,0,0,0-1.92-2.5.25.25,0,0,0-.32,0c-.14.1-.11.28-.08.42a7.24,7.24,0,0,0,1.5,3,2.69,2.69,0,0,1,.49.67,5.43,5.43,0,0,1,.25,2.85,6.83,6.83,0,0,0-2.11-2.2.14.14,0,0,0-.19.12,2.53,2.53,0,0,0,.26,1.32,16.72,16.72,0,0,0,4.11,5.89c.79.71.48,2,.24,3.15q-1,5-1.61,10a62.52,62.52,0,0,1-1.59,7.25,15.24,15.24,0,0,1-3.53,6.22c-.94,1.11-1.55,2.31-2.65,3.56-2,2.24-4.83,5.41-6.9,7.64a16.37,16.37,0,0,0-.08,3.88,10,10,0,0,0,.94,4c.65,1.21,0,2.46.4,3.83l-.18.9a69,69,0,0,1,5-9c2.63-4,5.5-7.38,8-11.62a41.83,41.83,0,0,0,3.3-5.66,22.41,22.41,0,0,0,1.33-5.18c.6-4.13.32-8.32.48-12.48.06-1.63.19-3.26.13-4.87a21.16,21.16,0,0,0-6.74-14.75c-.15.31,0,.64.14,1,.58,1.51,1.55,2.68,2.16,4"/><path class="as" d="M145.85,116.11c-.91.66-2.47,2.5-3.47,2.42s-1.89-1.16-1.46-2c0,0,.18-1.3.19-1.33-.63-.15-1.43.64-2,.42a11.46,11.46,0,0,1-3.73-2,12,12,0,0,1,.16,3.17,2.14,2.14,0,0,1-.43,1.43.93.93,0,0,1-1.41,0c-.56-.57-2.59-2.52-3.19-3.22-.38,1.52,1.53,4.55,1.69,6a8.54,8.54,0,0,0,1.05,3.17,4,4,0,0,0,3.7,2.24,8.85,8.85,0,0,0,5.74-1.73c1.62-1.21,3.13-2.42,3.52-4.36a5.53,5.53,0,0,0-.42-2.21C145.62,117.59,146.42,116.1,145.85,116.11Z"/><path class="as" d="M120.7,68.92a25,25,0,0,1,2-2.41.25.25,0,0,1,.33,0c.13.1.1.28.05.43a7.21,7.21,0,0,1-1.64,2.94,2.56,2.56,0,0,0-.53.65,5.46,5.46,0,0,0-.39,2.86,6.78,6.78,0,0,1,2.22-2.11.14.14,0,0,1,.18.13,2.63,2.63,0,0,1-.33,1.31,16.69,16.69,0,0,1-4.4,5.71c-.82.68-.58,2-.4,3.15.51,3.36.88,6.75,1.1,10.14a64.37,64.37,0,0,0,1.23,7.37c.59,3.23,2.29,5.76,4.1,8.41a42.71,42.71,0,0,0,6,7.29,11.38,11.38,0,0,1,1.24,1.68,10.29,10.29,0,0,1,1.54,4.47c0,1.6-2.09,2.53-2.83,3.77-.63,1,.35,2.15-.11,3.16-.72-1-1.58-1.48-2.29-2.49s-1.27-2.8-2-3.91c-1.93-3-3.34-6.3-5-9.43s-4-5.92-5.14-9.41a22.93,22.93,0,0,1-1.08-5.28c-.38-4.19.11-8.38.16-12.58,0-1.64,0-3.28.11-4.9a21.32,21.32,0,0,1,7.48-14.48c.13.32-.06.64-.19,1-.65,1.49-1.69,2.48-2.37,3.79"/><path class="n" d="M131.36,211.89a8.9,8.9,0,0,1,1.31-1.84"/><path class="as" d="M144.32,184a236.92,236.92,0,0,0-6.9,26.74c-1.93,9.08-4.51,23.17-7.47,25.25-.12.09-1.14.76-1.26.83-.47.29-.64-.91-.45-1.69,1.19-5.11-6.29-10.57,0-12.11,1.54-.37,1.78-3.65,2-4.65.62-2.27.2-3.69.07-6a35.36,35.36,0,0,1,1.14-12.38c.65-2.42,2-4.54,2.3-7.05,1-8.31.06-14.78.82-22.9a10.24,10.24,0,0,1,1.36-4.71,4.73,4.73,0,0,1,2.26-1.62l8.07-3.41c1.91-.8,5.18-3.74,4.85.71C150.55,168.74,146.67,177,144.32,184Z"/><path class="at" d="M131.25,234.37a15.55,15.55,0,0,1-1.3,3.24c-.4.67-1,1.35-1.82,1.2s-1.21-1.22-1.09-2.07.57-1.61.75-2.45c.33-1.54-.37-3-1-4.51-.31-.75-.53-1.6-.83-2.36a4.5,4.5,0,0,1-.47-2.42c.15-.76.35-1,1.47-1.13.38-.05.78.79,1,1.15a63.4,63.4,0,0,1,2.94,7.24,4.38,4.38,0,0,1,.38,2,13.47,13.47,0,0,1-.77,2.29"/><path class="at" d="M134.2,225.37c.17-.66.23-1,.36-1.54-1.65-.15-5.4-1.23-6.92-.65a3.49,3.49,0,0,0-1.49.71c-1.47,1.19,2.19.89,2.58.81A41.81,41.81,0,0,1,134.2,225.37Z"/><path class="at" d="M136,217.44l.15-.72c.08-.3.12-.51.18-.79-1.21.38-.38.15-2,.64-.41.12-2.67,1-3.08,1.05a6.47,6.47,0,0,0-.85.17l-.34,1.72s2.27-.65,3-.92Z"/><path class="at" d="M135.41,220.3l.09-.46c.11-.64.24-1.13.24-1.13a11.75,11.75,0,0,1-1.18-.81c-.39-.36-.76-.73-1.15-1.08a7.73,7.73,0,0,0-1.2-.86,5,5,0,0,0-.71-.32c-.13,0-.91-.7-.93-.56a15.51,15.51,0,0,0,0,1.66s0,0,.06.06a4.25,4.25,0,0,0,.63.41,3.73,3.73,0,0,1,.7.4c.77.67,2.19,1.86,2.19,1.86A9.92,9.92,0,0,0,135.41,220.3Z"/><path class="at" d="M134.67,223.67c-.37-.17-.73-.39-.9-.48-1.57-.88-1.57-.85-3.14-1.62-.24-.12-.77-.42-1-.56.15-.5.29-1,.4-1.53.61.24,1.15.47,1.75.73a13.66,13.66,0,0,1,2.65,1.44,2.39,2.39,0,0,1,.56.54,3.22,3.22,0,0,1-.13.66c0,.13-.06.25-.09.39S134.74,223.42,134.67,223.67Z"/><path class="as" d="M141.54,238.33a65.39,65.39,0,0,1-2.68-13.39c-.41-4.35-.21-8.1-2.11-12.21-.9-2-2-3.85-3-5.8-2.93-5.87-3.7-12.37-4.61-18.77-.22-1.56-1.33-3.29-2-4.84-.54-1.26-1.35-2.62-2.51-4.91a27.65,27.65,0,0,1-2.69-9.48c4.34-.91,10.78-3.72,15.19-4.27.34,4.4,1,11.61.68,16.4-.29,4.5-.22,5.06.94,9.62.62,2.45.82,4.9,1.45,7.35a24.14,24.14,0,0,1,.6,4.57l.83,12.16a22.45,22.45,0,0,0,.68,5.3c.52,1.65,1.53,3.09,2.07,4.74,1.3,4,2.43,8,2.13,12.16a1.64,1.64,0,0,1-.37,1.09,2.12,2.12,0,0,1-1.25.43A7.27,7.27,0,0,1,141.54,238.33Z"/><path class="at" d="M144.36,224.8a33.5,33.5,0,0,1,2.25,12.34,1.84,1.84,0,0,1-1,1.5,3.26,3.26,0,0,1-1.4.3,3.63,3.63,0,0,1-2.56-.48,2.93,2.93,0,0,1-.88-1.66,50.69,50.69,0,0,1-2-12.44c.1,1.95.59,3.66.8,5.61a3,3,0,0,0,.68,2.14,4.87,4.87,0,0,0,2.81.76,2.21,2.21,0,0,0,1.9-.72,1.38,1.38,0,0,0,.46-1.16A38.42,38.42,0,0,0,144.36,224.8Z"/><path class="at" d="M138.74,223.61c.8-.7,1.61-1.09,2.4-1.78.45-.4.78-.65,1.37-1.18.09-.08-.23-.73-.3-1a8.5,8.5,0,0,1-.31-1.9,7.73,7.73,0,0,1-3.32,3.15C138.61,222.23,138.7,222.52,138.74,223.61Z"/><path class="at" d="M142,218.91c-.9-.19-2-.27-2.86-.47s-.82.12-1-.84c-.06-.43-.22-1.17-.32-1.63a11.24,11.24,0,0,0,4,1.22C141.92,217.84,141.93,218.18,142,218.91Z"/><path class="at" d="M144.58,225.37a14.47,14.47,0,0,0-5.8-1.32c-.05-.57-.12-1.69-.16-2.31,1.41.32,3.68,1.26,5,1.74l.25.1.17.39C144.24,224.45,144.41,224.87,144.58,225.37Z"/><g class="au"><path class="av" d="M136.51,174.55c.24,2,.3,4,.39,6l.12,3a12.87,12.87,0,0,0,.31,2.92l.65,2.91c.23.95.59,1.88.86,2.85.53,1.95.73,3.93,1.27,5.85-.73-1.86-1-3.86-1.63-5.74-.3-.94-.66-1.87-.92-2.86l-.67-2.92a6.8,6.8,0,0,1-.23-1.5l-.06-1.5c0-1,0-2,0-3C136.54,178.54,136.57,176.54,136.51,174.55Z"/></g><g class="au"><path class="av" d="M131,199.91a26.16,26.16,0,0,0,1.19,2.89,30.44,30.44,0,0,0,1.38,2.81c1,1.85,2,3.62,2.92,5.55-1.2-1.71-2.3-3.52-3.34-5.34a11.59,11.59,0,0,1-.68-1.42c-.21-.48-.42-1-.61-1.45a11.57,11.57,0,0,1-.52-1.5Z"/></g><path class="aw" d="M136.69,177.32c0,.09,0,.21,0,.27a.36.36,0,0,0,.2.08,2.32,2.32,0,0,0,1.44-.24c.27-.15.57-.36.85-.25a1.23,1.23,0,0,1,.34.26,1.94,1.94,0,0,0,2.35.21c.28-.18.55-.45.89-.43a1,1,0,0,1,.41.14,4.37,4.37,0,0,1,.91.54,7.17,7.17,0,0,0,.72.64,2.45,2.45,0,0,0,.87.31,8.8,8.8,0,0,0,1.76.26c.09,0,.32-.7.37-.81.25-.6.28-.56.56-1.18a1.46,1.46,0,0,0,0-1c0-.07-.51-.09-.66-.11a13.8,13.8,0,0,1-1.89-.31c-.88-.23-3-1.21-3.85-1.37-1.59-.3-1.57.11-3.18.24-.5,0-2.27-.08-2.19.51S136.63,176.71,136.69,177.32Z"/><path class="aw" d="M122.51,176.94a.64.64,0,0,0,.24.22,1.21,1.21,0,0,0,.82.05,5.3,5.3,0,0,1,1.15-.31c.83,0,1.5.8,2.33.79a.38.38,0,0,0,.21,0,.75.75,0,0,0,.16-.15,1,1,0,0,1,1-.24,4.48,4.48,0,0,1,1,.39,7.4,7.4,0,0,0,2.09.67,1.7,1.7,0,0,0,.8.1c.34-.09.62-.31,1-.41a3.5,3.5,0,0,1,1.44,0,2.11,2.11,0,0,0,1.24-.22c.35-.16.7-.25.71-.69s0-1,0-1.46-.1-.55-.11-.89c-1.61.45-3.32,0-5-.35a29.54,29.54,0,0,0-8.85-.44c-.62.06-1.48.23-1.2.87a12.73,12.73,0,0,0,.74,1.65A4.78,4.78,0,0,0,122.51,176.94Z"/><path class="ax" d="M92.34,165.39a8,8,0,0,1-4-.7,17.53,17.53,0,0,0-2.78-1.3c-.73-.19-1.51-.18-2.24-.35-.41-.1-.87-.35-.88-.76s.48-.7.89-.86c4.08-1.53,8.31-2.6,12.38-4.24,11-4.47,21.87-10.59,34-11.68,3.45-.31,6.68-.11,10.14-.15a25.94,25.94,0,0,1,6.16.42,27.1,27.1,0,0,1,5.34,2c6.92,3.23,13.84,6.46,20.61,10,5.31,2.79,10.59,5.95,16.32,7.36.35.09.79.38.65.74a.65.65,0,0,1-.41.31l-2.65,1a1.91,1.91,0,0,0-1,.63,3.23,3.23,0,0,0-.32,1,4.11,4.11,0,0,1-1.83,2.54c-.47.28-1.05.52-1.2,1.07-.1.36,0,.76-.09,1.11a1.57,1.57,0,0,1-.78.86,10.3,10.3,0,0,1-7.41,1.28,12.1,12.1,0,0,0-3.72-.93c-2,.09-3.62,1.83-5.59,2.22-2.51.49-5-1.32-7.51-1.21-2.77.13-5.18,2.49-7.94,2.35-2.22-.11-4.11-1.83-6.29-2.29-3.37-.72-6.72,1.64-10.14,1.36-2.58-.21-4.94-1.89-7.52-1.9-3.83,0-7.7,3.59-11.1,1.7-1.34-.75-2.3-2.27-3.76-2.67s-2.86.37-4.31.36c-2.23,0-4-1.73-5.8-2.73a7.07,7.07,0,0,0-3.14-.83,5.47,5.47,0,0,1-2.94-.53A3.4,3.4,0,0,1,92,168.38a3.91,3.91,0,0,0-.22-1,2.72,2.72,0,0,0-1.39-1.09,19.28,19.28,0,0,1-3.14-1.87A19.11,19.11,0,0,0,84,163.07a1.65,1.65,0,0,1-.89-.77c-.39-1,1.41-1.39,2.23-1.59"/><path class="r" d="M149.1,146a9.31,9.31,0,0,1-4.67-9.57c.43-2.53.54-4.21,1.62-6.52.92-2,1.75-4.45,1.33-6.59a1.4,1.4,0,0,0-1.14-1.09c-2.06-.32-3.67-.36-5.55.83a18,18,0,0,1-2.15,1.19c-.94.25-1.87-.36-2.72-.83-2.55-1.4-4.37-2.31-7-.93-.86.45-1.2,2.35-1,2.85a22.9,22.9,0,0,1,2.17,9.07c.29,4.12-2,8.31-4.81,11.33a80.35,80.35,0,0,1,16.4.5,20.91,20.91,0,0,0,6.55.2C147.7,146.19,149.49,146.23,149.1,146Z"/><path class="r" d="M92.44,164.06a8,8,0,0,1-4-.69,17.43,17.43,0,0,0-2.77-1.3c-.74-.19-1.51-.18-2.25-.36-.4-.1-.87-.34-.88-.76s.48-.7.89-.85c4.09-1.53,8.32-2.6,12.38-4.25,11.06-4.47,21.87-10.58,34-11.67,3.45-.31,6.68-.11,10.14-.16a26.35,26.35,0,0,1,6.15.42,27,27,0,0,1,5.35,2.06c6.91,3.22,13.83,6.46,20.61,10,5.3,2.78,10.58,5.95,16.32,7.36.35.09.79.38.65.73a.62.62,0,0,1-.42.32l-2.64,1a1.94,1.94,0,0,0-1,.63,2.86,2.86,0,0,0-.32,1,4.15,4.15,0,0,1-1.84,2.54c-.47.28-1,.52-1.2,1.07-.1.36,0,.75-.08,1.11a1.58,1.58,0,0,1-.78.85,10.26,10.26,0,0,1-7.41,1.28,12.76,12.76,0,0,0-3.73-.93c-2,.09-3.62,1.84-5.59,2.22-2.51.49-5-1.32-7.51-1.2-2.76.13-5.17,2.49-7.93,2.35-2.23-.12-4.11-1.83-6.29-2.3-3.37-.71-6.72,1.64-10.15,1.37-2.57-.21-4.93-1.9-7.52-1.91-3.82,0-7.7,3.6-11.1,1.7-1.34-.75-2.29-2.26-3.76-2.67s-2.86.38-4.31.36c-2.22,0-4-1.72-5.79-2.72a6.82,6.82,0,0,0-3.15-.83,5.58,5.58,0,0,1-2.94-.53,3.42,3.42,0,0,1-1.43-2.24,3.91,3.91,0,0,0-.22-1A2.63,2.63,0,0,0,90.51,165a19,19,0,0,1-3.13-1.88,19.42,19.42,0,0,0-3.25-1.37,1.73,1.73,0,0,1-.9-.78c-.39-1,1.41-1.39,2.23-1.59"/><path class="ay" d="M120.54,149.46c-4.18,1.68-8.31,3.5-12.36,5.47q-3.06,1.44-6.06,3a22.42,22.42,0,0,0-5.67,3.62,22.56,22.56,0,0,1,5.64-3.68c2-1.05,4-2.06,6-3.05Q114.24,151.93,120.54,149.46Z"/><path class="ay" d="M124.84,151.7a34.25,34.25,0,0,0-6.6,8.3c-1.92,3-3.79,6.05-6.43,8.46a44.05,44.05,0,0,0,6.32-8.53C120.05,157,122,153.92,124.84,151.7Z"/><path class="ay" d="M135.57,150.49c-.28,1.53-.53,3-.76,4.58s-.43,3.07-.53,4.61-.18,3.09-.21,4.64,0,3.09,0,4.64h0c-.08-1.55-.15-3.1-.11-4.65s.11-3.09.26-4.63.3-3.09.5-4.62.49-3.06.84-4.57Z"/><path class="ay" d="M144.5,152.27a22.82,22.82,0,0,1,3.86,4.23c1.11,1.56,2,3.25,3,4.87a18.41,18.41,0,0,0,3.55,4.45,17,17,0,0,0,4.81,3,15.75,15.75,0,0,1-4.87-3,18.8,18.8,0,0,1-3.6-4.44c-1-1.64-1.87-3.33-3-4.9A25.19,25.19,0,0,0,144.5,152.27Z"/><path class="ay" d="M148.15,149.43c2.42-.07,4.67,1,6.8,2s4.28,2.13,6.42,3.2a64.65,64.65,0,0,0,13.21,5.49,65,65,0,0,1-13.27-5.38c-2.13-1.09-4.24-2.21-6.39-3.26S150.57,149.38,148.15,149.43Z"/><path class="az" d="M141.08,115.37c-.14-.05-1.58.09-1.78.1-.52,0-.93.48-1.43.4a11.53,11.53,0,0,1-1.41-.33,7.4,7.4,0,0,0-1-.4c.43.31.81.65,1.27.93a1.16,1.16,0,0,0,.81.24,2.46,2.46,0,0,1,1,.29c.29.11.38-.07.64-.11s.53.06.75-.06A14.64,14.64,0,0,0,141.08,115.37Z"/><path class="aq" d="M48.77,201.06a11.24,11.24,0,0,1-2.57-2.35c-.78-.87-1.55-1.75-2.29-2.65a61.37,61.37,0,0,1-4.06-5.7c1.34,1.9,2.7,3.8,4.19,5.59.73.91,1.47,1.81,2.24,2.68A13.63,13.63,0,0,0,48.77,201.06Z"/><path class="aq" d="M44.6,196.79A8.35,8.35,0,0,1,44,195a8.18,8.18,0,0,1-.16-1.91c.1.63.16,1.26.32,1.88A17.29,17.29,0,0,0,44.6,196.79Z"/><path class="aq" d="M42.09,193.63a4.29,4.29,0,0,1-.54-2.23,11.11,11.11,0,0,1,.08-1.15c0-.36,0-.81.33-1.09-.24.31-.17.73-.22,1.1s0,.76,0,1.14A5.3,5.3,0,0,0,42.09,193.63Z"/><path class="aq" d="M46.93,199.4a11.16,11.16,0,0,1-.89-2,4.69,4.69,0,0,1-.14-2.2,6.31,6.31,0,0,0,.3,2.16C46.38,198,46.69,198.7,46.93,199.4Z"/><path class="aq" d="M42.08,193.6A6.28,6.28,0,0,0,40.2,193a6.2,6.2,0,0,0-2-.05,4.65,4.65,0,0,1,2-.12A4.75,4.75,0,0,1,42.08,193.6Z"/><path class="aq" d="M44.7,196.76A7.21,7.21,0,0,0,43,196.2a2.6,2.6,0,0,0-.88,0,1.3,1.3,0,0,0-.82.33,1.12,1.12,0,0,1,.8-.44,2.9,2.9,0,0,1,.93,0A4.82,4.82,0,0,1,44.7,196.76Z"/><path class="aq" d="M47,199.4a10.92,10.92,0,0,0-3.36-.18,5.09,5.09,0,0,1,1.7-.21A5.29,5.29,0,0,1,47,199.4Z"/><path class="ba" d="M220.92,130l-.17.19s0,.08-.05.06a.13.13,0,0,1-.06-.1,16.68,16.68,0,0,1-.34-4.44"/><path class="ac" d="M220.08,125.68a.48.48,0,0,0,.66,0,.32.32,0,0,0,.13-.24.26.26,0,0,0-.17-.22c-.1,0-.3,0-.3,0,0-.08,0-.08-.1-.12s-.21,0-.23,0c0-.1-.19-.13-.26-.06a.22.22,0,0,0,0,.28.66.66,0,0,0,.45.32"/><path class="ba" d="M220.52,130.31s.07,0,0,.06-.08,0-.12,0a25.06,25.06,0,0,1-4.77-1.77"/><path class="ac" d="M215.57,129c.22,0,.29-.63.26-.68a.51.51,0,0,0-.26-.26.35.35,0,0,0-.36,0,.2.2,0,0,0,.07.3.59.59,0,0,0-.33.06.17.17,0,0,0,0,.27.16.16,0,0,0-.17.23.4.4,0,0,0,.37.17.69.69,0,0,0,.58-.29"/><path class="ba" d="M220.36,130.78s.07,0,.08,0a.1.1,0,0,1,0,.1,19,19,0,0,1-3.68,2.76"/><path class="ac" d="M217,133.91c.08-.27-.25-.54-.57-.58a.56.56,0,0,0-.36.07.23.23,0,0,0-.1.29.25.25,0,0,0,.32.12.43.43,0,0,0-.07.29c0,.1.16.2.26.16-.1.08,0,.25.17.26a.35.35,0,0,0,.31-.19.63.63,0,0,0-.06-.62"/><path class="ba" d="M220.31,130.63c-.05,0,0-.07,0-.08s.07,0,.1.07a21.42,21.42,0,0,1,2.84,3.86"/><path class="ac" d="M223.51,134.2a.52.52,0,0,0-.69.36.42.42,0,0,0,.05.34.36.36,0,0,0,.32.16.18.18,0,0,0,.15-.26.68.68,0,0,0,.33.13c.11,0,.23-.09.19-.19a.19.19,0,0,0,.31-.08.34.34,0,0,0-.2-.32.84.84,0,0,0-.69-.1"/><path class="ba" d="M220.53,130.87s-.08,0-.08,0a.11.11,0,0,1,.09-.07,22,22,0,0,1,4.74-1.14"/><path class="ac" d="M225,129.2c-.19.21,0,.57.28.71a.57.57,0,0,0,.38.07.26.26,0,0,0,.23-.22.24.24,0,0,0-.26-.22.41.41,0,0,0,.2-.23.2.2,0,0,0-.18-.23c.13,0,.1-.24,0-.3a.39.39,0,0,0-.39.07.59.59,0,0,0-.23.56"/><path class="ba" d="M223.13,127.8a22.56,22.56,0,0,0-2.21,2.16"/><path class="ac" d="M223.15,127.54a.62.62,0,0,1,.25.11.22.22,0,0,1,.07.19.26.26,0,0,1-.09.19.35.35,0,0,1-.2,0,.51.51,0,0,1-.27-.12.25.25,0,0,1,0-.35.25.25,0,0,1,.17,0,.22.22,0,0,1,.11,0Z"/><path class="ba" d="M218.36,127.77a28.47,28.47,0,0,0,2.18,2.5"/><path class="ac" d="M218.09,127.57a.18.18,0,0,1,0-.15.3.3,0,0,1,.23,0c.07,0,.16.06.19.13a.2.2,0,0,1,0,.17.37.37,0,0,1-.17.2.34.34,0,0,1-.39-.08.2.2,0,0,1,0-.15s0-.07,0-.09S218.09,127.55,218.09,127.57Z"/><path class="ba" d="M216.93,130.94a30.87,30.87,0,0,0,3.34-.48"/><path class="ac" d="M216.73,131c-.06,0-.12-.06-.14-.12s0-.13.08-.18a.25.25,0,0,1,.2-.09.34.34,0,0,1,.16.1.45.45,0,0,1,.15.24.25.25,0,0,1-.23.27.21.21,0,0,1-.15-.07s-.07,0-.08-.07S216.7,131,216.73,131Z"/><path class="ba" d="M220.19,134.1a21.34,21.34,0,0,0,.31-3"/><path class="ac" d="M220.16,134.23s0,.14-.08.14a.28.28,0,0,1-.18-.14c0-.06-.08-.14-.05-.2a.27.27,0,0,1,.15-.1.62.62,0,0,1,.3,0,.31.31,0,0,1,.23.3.29.29,0,0,1-.11.11l-.1,0S220.14,134.24,220.16,134.23Z"/><path class="ba" d="M224.14,132a33.31,33.31,0,0,0-3.17-1.42"/><path class="ac" d="M224.37,132a.19.19,0,0,1,0,.16c0,.07-.11.09-.18.1a.34.34,0,0,1-.24,0,.24.24,0,0,1-.07-.16.38.38,0,0,1,0-.26c.1-.16,0-.29.37-.08a.17.17,0,0,1,.09.14.13.13,0,0,1,0,.09S224.38,132,224.37,132Z"/><path class="ad" d="M219.8,127.83a1.34,1.34,0,0,1,.54-.25.61.61,0,0,1,.58.18s.05.07.09.09a.17.17,0,0,0,.12,0c.26,0,.49-.13.75-.16a.64.64,0,0,1,.67.3c.07.17,0,.34,0,.52s.36.48.63.64.58.38.58.67-.23.41-.44.55a1,1,0,0,1-.24,1.54c-.17.1-.37.17-.45.34a1,1,0,0,0,0,.35c-.06.39-.5.6-.88.76a.68.68,0,0,1-.28.07c-.35,0-.5-.46-.83-.57s-.64.18-1,.19a1,1,0,0,1-.74-.39,3.68,3.68,0,0,1-.39-.7.86.86,0,0,0-.1-.16,1.6,1.6,0,0,0-.25-.18,1,1,0,0,1-.27-1.37A.53.53,0,0,0,218,130c0-.11-.08-.21-.14-.31a.55.55,0,0,1,.41-.77,1.28,1.28,0,0,0,.34-.07.54.54,0,0,0,.19-.23c.27-.42.44-.76,1-.82"/><path class="n" d="M68.74,207.71l.7-.33"/><path class="z" d="M57.13,210.93c-.93,1.92-1.77,4.06-1.27,6.13a7.56,7.56,0,0,0,3,4,2.42,2.42,0,0,0,.84.47c1,.24,1.8-.66,2.65-1.2a17,17,0,0,1,2.48-1.07,3.29,3.29,0,0,0,1.94-1.78,3.58,3.58,0,0,0-.65-2.9,13.4,13.4,0,0,0-5.42-5A2.85,2.85,0,0,0,57.13,210.93Z"/><path class="z" d="M64.27,214.41c1.6,1.22,3.67,2.24,5.43,1.49,1.57-.66,2.32-2.5,2.59-4.24a3.87,3.87,0,0,0,0-1.66,14.3,14.3,0,0,0-.68-1.43c-.25-.58-.33-1.22-.59-1.79a6.21,6.21,0,0,0-2.38-2.39,4.15,4.15,0,0,0-1.91-.87c-1.23-.1-2.17.95-3.09,1.75-1.22,1-4.5,1.62-4.21,3.7S62.8,213.29,64.27,214.41Z"/><path class="z" d="M67,205.34a7.5,7.5,0,0,0,1-1.37,3.09,3.09,0,0,0-3-4.61,7.14,7.14,0,0,1-2,0c-.92-.23-1.54-1.1-2.55-1a3.36,3.36,0,0,0-1.9,1.33c-2.25,2.59-2.12,5.69,0,7.72a6.32,6.32,0,0,0,4.47,1.36C64.67,208.62,66,206.52,67,205.34Z"/><path class="z" d="M58,201.78c-.66-.28-1.37-.4-2-.68a11.74,11.74,0,0,0-1.09-.49,3.25,3.25,0,0,0-2.7.56,5.89,5.89,0,0,0-2.28,6,3.58,3.58,0,0,0,.52,1.35,5.11,5.11,0,0,0,1.65,1.37l1.56.95a1.9,1.9,0,0,0,.72.3,1.75,1.75,0,0,0,.83-.22,9.08,9.08,0,0,0,3.91-2.69C60.42,206.29,60.39,202.81,58,201.78Z"/><path class="z" d="M52.13,209.19a.56.56,0,0,0-.65-.47,1.67,1.67,0,0,0-.78.45c-.52.44-1.09,1-.92,1.69.06.24.22.45.29.69.16.55-.16,1.1-.3,1.65a4.32,4.32,0,0,0,.86,3.4,2,2,0,0,0,.4.47,2.09,2.09,0,0,0,.7.3,29.86,29.86,0,0,0,3.75.83A3.5,3.5,0,0,0,58.93,216c.68-1.42,1.41-3.81.81-5.36-.66-1.7-3.37-2.14-4.93-2.53a4.73,4.73,0,0,0-2-.18,1.84,1.84,0,0,0-1.49,1.28c-.12.55-.52,1.19-.58,1.75a4.07,4.07,0,0,1-.46,1.93,3.63,3.63,0,0,0-.55,2.5,2.69,2.69,0,0,0,1.49,2,4.91,4.91,0,0,0,1.31.31l2.27.3a4.09,4.09,0,0,0,2.84-.41"/><path class="ba" d="M60.27,208.91l-.16.2s0,.07,0,0a.1.1,0,0,1-.06-.09,17.19,17.19,0,0,1-.35-4.45"/><path class="ac" d="M59.44,204.64a.49.49,0,0,0,.66,0,.35.35,0,0,0,.12-.24.23.23,0,0,0-.16-.22c-.1,0-.3-.06-.3,0,0-.07,0-.08-.1-.12s-.21,0-.23.05a.18.18,0,0,0-.27-.05.24.24,0,0,0,0,.28.66.66,0,0,0,.46.31"/><path class="ba" d="M59.87,209.26s.07.05,0,.07-.07,0-.12,0A24.93,24.93,0,0,1,55,207.57"/><path class="ac" d="M54.93,207.92c.21,0,.28-.63.26-.67a.55.55,0,0,0-.26-.26.31.31,0,0,0-.36,0,.19.19,0,0,0,.06.29.56.56,0,0,0-.32.07.16.16,0,0,0,0,.26.17.17,0,0,0-.18.24.44.44,0,0,0,.37.16.71.71,0,0,0,.59-.29"/><path class="ba" d="M59.72,209.73s.07,0,.08,0,0,.07,0,.09a18.28,18.28,0,0,1-3.67,2.76"/><path class="ac" d="M56.39,212.86c.08-.26-.25-.54-.57-.57a.54.54,0,0,0-.36.06.23.23,0,1,0,.21.41.44.44,0,0,0-.06.3.22.22,0,0,0,.26.15c-.1.08,0,.26.16.27a.33.33,0,0,0,.31-.2.61.61,0,0,0-.05-.62"/><path class="ba" d="M59.66,209.58s0-.07,0-.07a.17.17,0,0,1,.11.06,21.43,21.43,0,0,1,2.83,3.87"/><path class="ac" d="M62.86,213.15a.52.52,0,0,0-.68.37.42.42,0,0,0,0,.33.37.37,0,0,0,.33.16.18.18,0,0,0,.15-.25.66.66,0,0,0,.32.12c.12,0,.24-.09.2-.19a.19.19,0,0,0,.31-.08.36.36,0,0,0-.2-.32.87.87,0,0,0-.7-.1"/><path class="ba" d="M59.89,209.83s-.08,0-.08,0,0,0,.09-.06a21.94,21.94,0,0,1,4.73-1.15"/><path class="ac" d="M64.39,208.16c-.2.2,0,.56.28.71a.6.6,0,0,0,.37.07.26.26,0,0,0,.23-.23.22.22,0,0,0-.25-.21.51.51,0,0,0,.2-.24A.2.2,0,0,0,65,208c.13,0,.09-.23,0-.29a.4.4,0,0,0-.38.06.58.58,0,0,0-.23.57"/><path class="ba" d="M62.49,206.76a23.78,23.78,0,0,0-2.22,2.15"/><path class="ac" d="M62.5,206.5a.64.64,0,0,1,.26.1.21.21,0,0,1,.06.2.18.18,0,0,1-.09.18s-.12,0-.19,0a.62.62,0,0,1-.27-.13.23.23,0,0,1,0-.34.25.25,0,0,1,.17,0l.1,0Z"/><path class="ba" d="M57.72,206.72a27.21,27.21,0,0,0,2.18,2.51"/><path class="ac" d="M57.45,206.52a.17.17,0,0,1,0-.15.28.28,0,0,1,.22,0,.29.29,0,0,1,.2.13.23.23,0,0,1,0,.16.44.44,0,0,1-.17.21.34.34,0,0,1-.39-.09.2.2,0,0,1,0-.15s0-.06,0-.08S57.45,206.5,57.45,206.52Z"/><path class="ba" d="M56.28,209.89a30.51,30.51,0,0,0,3.34-.47"/><path class="ac" d="M56.08,210a.24.24,0,0,1-.13-.11.19.19,0,0,1,.07-.18c.06-.05.12-.11.2-.09a.25.25,0,0,1,.17.1.45.45,0,0,1,.15.24.25.25,0,0,1-.23.26.26.26,0,0,1-.16-.07s-.06,0-.07-.07S56.06,210,56.08,210Z"/><path class="ba" d="M59.54,213.05a21.35,21.35,0,0,0,.32-3"/><path class="ac" d="M59.52,213.18s0,.15-.08.14a.24.24,0,0,1-.18-.13c0-.07-.08-.14,0-.21a.26.26,0,0,1,.15-.09.48.48,0,0,1,.29,0c.13,0,.26.17.23.29a.15.15,0,0,1-.11.11.12.12,0,0,1-.1,0S59.5,213.2,59.52,213.18Z"/><path class="ba" d="M63.49,210.9a32,32,0,0,0-3.16-1.41"/><path class="ac" d="M63.73,210.94a.19.19,0,0,1,0,.16c0,.06-.11.08-.19.09a.21.21,0,0,1-.3-.2.39.39,0,0,1,0-.26c.1-.16,0-.28.37-.07a.24.24,0,0,1,.09.13.17.17,0,0,1,0,.1S63.74,211,63.73,210.94Z"/><path class="ad" d="M59.16,206.78a1.58,1.58,0,0,1,.54-.25.65.65,0,0,1,.58.18.22.22,0,0,0,.09.1s.08,0,.12,0c.26,0,.49-.14.75-.17a.67.67,0,0,1,.67.3c.06.17,0,.35,0,.52s.35.48.63.64.58.39.58.67-.23.41-.44.55a1.05,1.05,0,0,1-.24,1.55c-.17.09-.37.17-.45.33a1.42,1.42,0,0,0-.05.36c0,.38-.49.59-.88.76a.63.63,0,0,1-.27.06c-.35,0-.5-.45-.84-.56s-.63.17-1,.18a.93.93,0,0,1-.73-.38,5,5,0,0,1-.4-.71.47.47,0,0,0-.1-.16,1.5,1.5,0,0,0-.24-.18,1,1,0,0,1-.28-1.36.46.46,0,0,0,.14-.23.83.83,0,0,0-.14-.32.55.55,0,0,1,.4-.77,1,1,0,0,0,.35-.07.57.57,0,0,0,.19-.22c.27-.43.43-.77,1-.83"/><g class="au"><path class="av" d="M149.86,119.16a2.89,2.89,0,0,0-.69.47,3.91,3.91,0,0,0-.56.59,7.89,7.89,0,0,0-.49.65,6.57,6.57,0,0,0-.44.74,2.3,2.3,0,0,1,.58-1.69,2.66,2.66,0,0,1,.71-.58A1.34,1.34,0,0,1,149.86,119.16Z"/></g><g class="au"><path class="av" d="M127.1,119a1.36,1.36,0,0,1,.76.26,2.85,2.85,0,0,1,.57.58,2.81,2.81,0,0,1,.49,1.48c-.36-.4-.58-.84-.87-1.22A4.88,4.88,0,0,0,127.1,119Z"/></g><g class="au"><path class="av" d="M138.33,122.71a1.56,1.56,0,0,1,.25.81,1.06,1.06,0,0,1-.33.8,3.06,3.06,0,0,1-.14-.8A1.57,1.57,0,0,1,138.33,122.71Z"/></g><path class="bb" d="M149.13,103.6a3.15,3.15,0,0,1,1.36.84,1.61,1.61,0,0,1,.26,1.66c-.29.62-1,.88-1.48,1.3a2.6,2.6,0,0,0-.92,1.49,1.67,1.67,0,0,0,.44,1.57c.66.58,1.7.26,2.5-.25a8.17,8.17,0,0,0,1.87-1.66,3.53,3.53,0,0,1-1.62,2.11,4.3,4.3,0,0,1-2.43.53,2.76,2.76,0,0,1-1.41-.41,1.61,1.61,0,0,1-.71-1.32,3.59,3.59,0,0,1,1.06-2,2.72,2.72,0,0,0,.8-2.11c-.3-1.23-1.91-1.8-2.64-2.41C146.71,101.85,148.42,103.33,149.13,103.6Z"/><path class="n" d="M125.1,95.69a.8.8,0,0,0,.8.16"/><path class="bb" d="M128.69,101.2c.52.13.78.74.86,1.25a1.47,1.47,0,0,1-.28,1.3c-.38.36-1,.31-1.53.39-.89.14-2.92,1.38-2.2,2.54.36.58,1.19.18,1.62,1,.53,1-1.06,1.14-1.2,2s.54.59,1,.53c.29,0,.85,0,.86.42s-.65.81-.92,1.08c-.55.57-.41,1,.37,1.17a.69.69,0,0,1-.3-1c.27-.38.63-.14,1-.22a1,1,0,0,0,0-2c-.41-.05-1-.16-.5-.68s.89-.2.94-1-.4-.83-.73-1.32a1.37,1.37,0,0,1,0-1.33c.44-.87,1.77-.87,2.53-1.27,0,0,.09,0,.06,0,1.26-.71.79-2.83-.15-3.73a1.15,1.15,0,0,0-.4-.26.74.74,0,0,0-.78.3A1.84,1.84,0,0,0,128.69,101.2Z"/><path class="as" d="M130.59,102.82c-1.88-1.36-3.41-.56-3.8.74-.48,1.57.94,3.09,2,4a1.59,1.59,0,0,0,1.76,0c.64-.37.68-1.14.53-1.92S131.23,103.3,130.59,102.82Z"/><g class="au"><path class="av" d="M127.75,104.83a5.73,5.73,0,0,1,.35-1,.53.53,0,0,1,.46-.29.83.83,0,0,1,.49.2,3.75,3.75,0,0,1,.68.76,1.6,1.6,0,0,1,.38.93,2.2,2.2,0,0,0-.47-.86,3.47,3.47,0,0,0-.69-.69c-.23-.23-.58-.29-.75,0S127.92,104.54,127.75,104.83Z"/></g><g class="au"><path class="av" d="M129.37,104.34c-.1,0-.16,0-.21.12a1.83,1.83,0,0,0-.13.24,2.07,2.07,0,0,0-.16.52c-.12.34.19.67.23,1.06l-.28-.5a.92.92,0,0,1-.12-.59,2.37,2.37,0,0,1,.23-.54,1.31,1.31,0,0,1,.17-.24C129.17,104.34,129.29,104.27,129.37,104.34Z"/></g><path class="as" d="M147.22,104.19c2-1.1,3.45-.11,3.67,1.23.27,1.62-1.34,2.94-2.51,3.66a1.61,1.61,0,0,1-1.75-.26c-.58-.46-.52-1.22-.27-2S145.77,104.74,147.22,104.19Z"/><g class="au"><path class="av" d="M149.77,106.55c-.12-.31-.2-.65-.32-.94s-.49-.31-.75-.11a4,4,0,0,0-.78.59,2.26,2.26,0,0,0-.57.79,1.65,1.65,0,0,1,.49-.87,4.13,4.13,0,0,1,.78-.66.83.83,0,0,1,.52-.13.55.55,0,0,1,.41.34A5.19,5.19,0,0,1,149.77,106.55Z"/></g><g class="au"><path class="av" d="M148.23,105.85c.09-.06.2,0,.26.11a.91.91,0,0,1,.13.26,2.12,2.12,0,0,1,.16.56.88.88,0,0,1-.2.57l-.33.46c.08-.38.43-.66.36-1a2,2,0,0,0-.09-.53,2,2,0,0,0-.1-.26C148.38,105.92,148.33,105.83,148.23,105.85Z"/></g><path class="as" d="M147.16,103.46c-.21-.82-.82-1.16-1.43-1.57a4.08,4.08,0,0,0-2.5-.66c-1.1.06-1.8-3.47-2.59-2.7s-.9-.85-1.2.35c-1.08-4.45-3.29-5.72-4.5-1.76-.32,1-.81,1-1.91,1-.86,0-.92,3.4-1.63,3.89s-2-1-1.42,1.57a9.9,9.9,0,0,1,.21,3.17,7.36,7.36,0,0,0,.63,4.16,10.06,10.06,0,0,0,2.61,3,8.58,8.58,0,0,0,2.79,1.65,6.8,6.8,0,0,0,2.39.37,8.14,8.14,0,0,0,2.3-.46,8.51,8.51,0,0,0,2.79-1.66,9.77,9.77,0,0,0,2.61-3,7.39,7.39,0,0,0,.64-4.17A9.58,9.58,0,0,1,147.16,103.46Z"/><path class="bc" d="M141.28,103c.07-.25-.25-.35.07-.6a5,5,0,0,1,2.74-.53c.82,0,1.85.39,2,1-.29-.52-1.2-.6-1.85-.51a11.48,11.48,0,0,0-1.65.45C142.24,103,141.5,103.27,141.28,103Z"/><path class="bc" d="M136.9,103c-.08-.25.25-.35-.07-.6a5,5,0,0,0-2.74-.53c-.82.05-1.86.39-2,1.05.29-.52,1.2-.6,1.84-.51a10.81,10.81,0,0,1,1.65.45C135.93,103,136.68,103.21,136.9,103Z"/><path class="bd" d="M132.47,106.29l-.11,0a1.71,1.71,0,0,0-.34,2.86,2.3,2.3,0,0,0,2,.42,1.71,1.71,0,0,0,.94-.56,2.72,2.72,0,0,0,.3-2,1.13,1.13,0,0,0-.39-.77A2.56,2.56,0,0,0,132.47,106.29Z"/><path class="bd" d="M146.2,109a1.91,1.91,0,0,0-.09-1.17,1.68,1.68,0,0,0-1.78-1.25,2.27,2.27,0,0,0-1.69,1.08,1.87,1.87,0,0,0-.2,1.64,2.89,2.89,0,0,0,1.77,1.1,1.43,1.43,0,0,0,.65,0,1.55,1.55,0,0,0,.54-.28A2.15,2.15,0,0,0,146.2,109Z"/><path class="be" d="M134.12,107a2.13,2.13,0,0,0-1.43,0c-.36.19-.06.47-.31.71s-.6.32-.27.65a3.18,3.18,0,0,0,1.43.5c.34.08.53.1.75-.18a3.4,3.4,0,0,0,.39-.84C134.86,107.37,134.46,106.91,134.12,107Z"/><path class="be" d="M145.06,107.64a2.36,2.36,0,0,0-1.44,0c-.35.16-.05.41-.3.62s-.6.29-.28.59a3.48,3.48,0,0,0,1.44.45c.33.07.52.09.75-.16a2.58,2.58,0,0,0,.38-.76A.55.55,0,0,0,145.06,107.64Z"/><g class="au"><path class="bf" d="M139.21,108.77c.26-.27.75-.2.83-.45a.59.59,0,0,0,0-.44,2,2,0,0,0-.17-.48.93.93,0,0,1,.36,1,.64.64,0,0,1-.52.29A1.81,1.81,0,0,0,139.21,108.77Z"/></g><g class="au"><path class="bf" d="M138.67,108.67c-.19-.12-.39,0-.61,0a.42.42,0,0,1-.32-.11.26.26,0,0,1,0-.32.29.29,0,0,0,.35.34l.32,0A.31.31,0,0,1,138.67,108.67Z"/></g><path class="y" d="M132,106.43c-.1,0-.15.08-.08.15a.26.26,0,0,0,.33-.08c.06-.22-.35-.19-.35,0"/><path class="y" d="M132.88,106.56c-.18,0-.09.23.05.18a.1.1,0,1,0-.08-.18"/><path class="y" d="M132.16,106.91s0,0,0,0,.23,0,.07,0"/><path class="y" d="M145.14,107.15c-.07,0-.12,0-.07.1s.22,0,.25,0-.24-.17-.25,0"/><path class="y" d="M146,107.31c-.18,0-.09.23.05.18a.1.1,0,1,0-.08-.18"/><path class="y" d="M145.28,107.65s0,0-.05,0,.23,0,.07,0"/><path class="bg" d="M136.32,104.72a2.23,2.23,0,0,0-1.1-.56,1.22,1.22,0,0,0-.54,0,2.07,2.07,0,0,0-.64.14,1.3,1.3,0,0,1-.46.13,1.42,1.42,0,0,1-.66-.12,1.38,1.38,0,0,1-.27-.16.47.47,0,0,0-.13-.11c0,.11.13.24.19.34a1.43,1.43,0,0,0,.52.48l.07,0a1,1,0,0,0,.31.13,2.67,2.67,0,0,0,1.19-.09,3.28,3.28,0,0,1,1.16-.09,1.44,1.44,0,0,1,.45.17,1.59,1.59,0,0,0,.27.18A1.22,1.22,0,0,0,136.32,104.72Z"/><path class="bg" d="M142,104.63a2.15,2.15,0,0,1,1.1-.56,1.22,1.22,0,0,1,.54.05,1.93,1.93,0,0,1,.64.14,1.55,1.55,0,0,0,.46.13,1.42,1.42,0,0,0,.66-.12,1.75,1.75,0,0,0,.27-.16s.07-.09.13-.11-.13.24-.2.33a1.19,1.19,0,0,1-.51.48l-.07,0a1.12,1.12,0,0,1-.32.14,2.83,2.83,0,0,1-1.19-.09,3.24,3.24,0,0,0-1.16-.09,1.19,1.19,0,0,0-.44.17,2,2,0,0,1-.27.17A1.26,1.26,0,0,1,142,104.63Z"/><path class="y" d="M140.24,112.28a1.4,1.4,0,0,1-.31.28,1.62,1.62,0,0,1-1,.12,3.6,3.6,0,0,1-2.15-1.1c-.15-.17-.71-.71-.57-.87s.64,0,.74,0a5,5,0,0,1,1.5,0c.38,0,.77,0,1.15.06a7.73,7.73,0,0,1,1.6,0C141.64,111,140.46,112,140.24,112.28Z"/><path class="bh" d="M136.49,110.54a1.25,1.25,0,0,0,.31-.07,5.79,5.79,0,0,0,.68-.29,3.58,3.58,0,0,1,.65-.14,3.45,3.45,0,0,1,2.25.45,3.23,3.23,0,0,0,1.63.22,2.38,2.38,0,0,1-.83.36,8.94,8.94,0,0,1-1.64.17,8.84,8.84,0,0,1-3-.47,3,3,0,0,1-.85-.35,1.74,1.74,0,0,0,.85.12"/><path class="bh" d="M135.77,110.6a6.63,6.63,0,0,1,.51.66l.42.68a2.41,2.41,0,0,0,1,1.19,2.22,2.22,0,0,0,3-.93,10.9,10.9,0,0,1,.91-1.28.47.47,0,0,0-.46.15c-.52.4-1,.92-1.34,1.13a2.07,2.07,0,0,1-1.46.22,2.57,2.57,0,0,1-1.31-.85,5.2,5.2,0,0,0-.77-.86A.78.78,0,0,0,135.77,110.6Z"/><path class="bh" d="M136.4,110.78a1.27,1.27,0,0,1-1-.51c.14,0,.28.14.43.19a4,4,0,0,0,.69.15c.07,0,.39,0,.42,0S136.53,110.79,136.4,110.78Z"/><path class="bh" d="M135.6,110c-.29,0-.5.11-.46.42.12-.11.2-.39.4-.37,0,0,0,0,0,0"/><g class="aj"><path class="bi" d="M136.2,93.15A6,6,0,0,1,135.12,96a9,9,0,0,1-2.25,2.1,7.63,7.63,0,0,0-2.24,2,4.7,4.7,0,0,0-.76,2.88h0a4.31,4.31,0,0,1,.62-3,6.47,6.47,0,0,1,2.35-2,6.15,6.15,0,0,0,2.17-2.1,8.34,8.34,0,0,0,1.2-2.79Z"/></g><path class="av" d="M148.74,106.91c.22,0,.29.24.36.39a2.28,2.28,0,0,1,.15.57c0,.44-.34.71-.49,1.06.14-.36.48-.65.44-1.05a2.75,2.75,0,0,0-.12-.57C149,107.15,149,106.87,148.74,106.91Z"/><path class="bb" d="M136.86,94.23c.64,1.22,0,2.69-1,3.73a43.35,43.35,0,0,1-3.5,2.71,9.2,9.2,0,0,0-2.79,3.55,13.52,13.52,0,0,1,0-4.25,13.49,13.49,0,0,1,.71-3.46,5.74,5.74,0,0,1,1.07-2.26,5.94,5.94,0,0,1,3.28-2.32c3.93-1.34,9.06-1,12,2.16l.33.38a9.85,9.85,0,0,1,1.67,3.82c.4,2.27.64,4.29-.31,6.39-.16.36-.43,1-.78,1.21-.22-.45-.16-1.08-.35-1.57a2.52,2.52,0,0,0-.59-.89,5.43,5.43,0,0,0-3-1.11,29.5,29.5,0,0,1-3.51-.87,4.55,4.55,0,0,1-2.24-1.72c-.65-1.14-.57-1.77-1.29-2.89"/><path class="bc" d="M136.9,93a3.59,3.59,0,0,1,1.08.68,1.83,1.83,0,0,1,.52,1.17,24.3,24.3,0,0,1,.05,2.56,3.17,3.17,0,0,0,.13,1.23,2.39,2.39,0,0,0,.71,1,6.23,6.23,0,0,0,2.23,1.11,44.48,44.48,0,0,1,4.83,1.67,3.75,3.75,0,0,1,2,1.63,2.74,2.74,0,0,1-.59,2.42,2.68,2.68,0,0,0,.48-2.38,3.65,3.65,0,0,0-1.91-1.53,46.43,46.43,0,0,0-4.84-1.59,6.49,6.49,0,0,1-2.29-1.18,2.52,2.52,0,0,1-.74-1.08,3.39,3.39,0,0,1-.13-1.3,23.91,23.91,0,0,0,0-2.54,1.75,1.75,0,0,0-.45-1.14A3.65,3.65,0,0,0,136.9,93Z"/><path class="bc" d="M141.69,92.81a5.27,5.27,0,0,1,3.06,1.42,2.57,2.57,0,0,1,.61,1.61,7.39,7.39,0,0,0,.26,1.64,8.81,8.81,0,0,0,1.61,2.92,8.23,8.23,0,0,0,2.45,2.29,7.56,7.56,0,0,1-2.59-2.18,8.71,8.71,0,0,1-1.69-3c-.38-1.1,0-2.36-.79-3.21A5.55,5.55,0,0,0,141.69,92.81Z"/><path class="bc" d="M137.68,92.53a3.68,3.68,0,0,1,2.59,2.28c.54,1.07.6,2.35,1.35,3.26a4.93,4.93,0,0,0,1.4,1c.52.28,1.06.55,1.59.81a25.13,25.13,0,0,1,3.12,1.75,9.63,9.63,0,0,1,1.38,1.16,2.69,2.69,0,0,1,.9,1.58c.06.69-.51,1.17-1,1.51a2.51,2.51,0,0,0-1.09,1.3,2.6,2.6,0,0,0,.06,1.7,1.79,1.79,0,0,0,1.48.73,3.44,3.44,0,0,0,1.74-.19,2.06,2.06,0,0,0,1.21-1.21,2.16,2.16,0,0,1-1.19,1.27,3.67,3.67,0,0,1-1.77.24,1.89,1.89,0,0,1-1.59-.78,2.65,2.65,0,0,1-.09-1.8,2.7,2.7,0,0,1,1.13-1.4c.46-.35.94-.78.88-1.36A2.53,2.53,0,0,0,149,103a11.24,11.24,0,0,0-1.36-1.12,24.54,24.54,0,0,0-3.08-1.76c-.53-.28-1.06-.55-1.58-.84a4.91,4.91,0,0,1-1.44-1.08c-.78-1-.81-2.26-1.33-3.32A3.64,3.64,0,0,0,137.68,92.53Z"/><path class="bb" d="M129.2,93.42l-.09-.21a2.68,2.68,0,0,1,.19-2.28,11.47,11.47,0,0,1,2.14-2.09,9.4,9.4,0,0,0,.89-1.09,9.09,9.09,0,0,1,1-1.19,5.45,5.45,0,0,1,2.24-1.22A10.59,10.59,0,0,1,145,87.49a2.27,2.27,0,0,1,.79,1c.18.61-.15,1.32.13,1.89a1.61,1.61,0,0,0,.69.65c.87.52,2,.88,2.33,1.84a2.45,2.45,0,0,1-1.34,2.67c-2.23,1.38-5.08.86-7.67.46-2-.31-4.09-.28-6.12-.52C132.22,95.28,130,95.06,129.2,93.42Z"/><path class="bc" d="M137.67,85.32a12,12,0,0,1,6.34.79,4.94,4.94,0,0,1,1.41.8,1.54,1.54,0,0,1,.52,1.48c-.15.56-.76.81-.91,1.31a.55.55,0,0,0,.31.62,1.9,1.9,0,0,0,.76.2c1,.12,2.18-.12,3.19.39a1.74,1.74,0,0,1,1,1.24,2.06,2.06,0,0,1-.45,1.53,3.73,3.73,0,0,1-1.21,1.06,2.31,2.31,0,0,0-.62.5,1.23,1.23,0,0,0-.26.74,5,5,0,0,0,.39,1.55,1.61,1.61,0,0,1,0,1.55,1.64,1.64,0,0,0,0-1.55A4.87,4.87,0,0,1,147.7,96a1.24,1.24,0,0,1,.27-.76,2.35,2.35,0,0,1,.62-.51,3.94,3.94,0,0,0,1.2-1.06,2.06,2.06,0,0,0,.42-1.49,1.62,1.62,0,0,0-1-1.18c-1-.5-2.09-.25-3.16-.37a2.07,2.07,0,0,1-.8-.21.64.64,0,0,1-.34-.72c.19-.55.78-.79.92-1.31a1.46,1.46,0,0,0-.49-1.42,5.19,5.19,0,0,0-1.39-.8A12,12,0,0,0,137.67,85.32Z"/><path class="bb" d="M132,86.8a2.76,2.76,0,0,1,0-2.46,4,4,0,0,1,1.72-1.73,5.55,5.55,0,0,1,3.78-.61c.87.17,1.69.55,2.56.73a8.9,8.9,0,0,1,1.55.33,1.6,1.6,0,0,1,1,1.16,2.07,2.07,0,0,1-.76,1.67A7.43,7.43,0,0,1,137.47,88a9.33,9.33,0,0,1-3.05.24A3.46,3.46,0,0,1,132,86.8Z"/><path class="bc" d="M131.08,95a8,8,0,0,1-2.93-.6,1.65,1.65,0,0,1-1.15-1,2.15,2.15,0,0,1,0-1.52,3.24,3.24,0,0,1,2.55-1.51,8.62,8.62,0,0,0,2.81-.93,6.47,6.47,0,0,0,1.22-.81,1,1,0,0,0,.23-1.24,2,2,0,0,0-1.07-.92,14.56,14.56,0,0,0-1.41-.47.76.76,0,0,1-.56-.56,1.27,1.27,0,0,1,.13-.77A2.68,2.68,0,0,1,132,83.6a3.9,3.9,0,0,1,2.91-.52,3.89,3.89,0,0,0-2.85.61,2.59,2.59,0,0,0-1,1,1.08,1.08,0,0,0-.11.68.62.62,0,0,0,.47.44,13.92,13.92,0,0,1,1.43.46,2.29,2.29,0,0,1,1.18,1,1.25,1.25,0,0,1,.14.79,1.37,1.37,0,0,1-.4.69,7.08,7.08,0,0,1-1.26.87,9,9,0,0,1-2.88.91,3.12,3.12,0,0,0-2.45,1.38,2.1,2.1,0,0,0-.05,1.42,1.49,1.49,0,0,0,1.06.9A8,8,0,0,0,131.08,95Z"/><path class="bc" d="M132.79,83.33a3.35,3.35,0,0,0-2.26.74.79.79,0,0,0,0,1.09,1.73,1.73,0,0,0,1.08.48.72.72,0,0,1,.53.28,1.56,1.56,0,0,1,.11.6,1.68,1.68,0,0,1-.23,1.18A4.28,4.28,0,0,1,130,88.9,5.46,5.46,0,0,0,127.81,90a2.22,2.22,0,0,0-.57,2.23c.26.8,1.07,1.19,1.76,1.57a9.79,9.79,0,0,0,2.28.85,10.23,10.23,0,0,1-2.28-.84c-.69-.38-1.52-.76-1.79-1.57a2.27,2.27,0,0,1,.57-2.26,5.41,5.41,0,0,1,2.16-1.1A4.21,4.21,0,0,0,132,87.68a1.67,1.67,0,0,0,.23-1.16,1.39,1.39,0,0,0-.1-.58.73.73,0,0,0-.51-.28,1.74,1.74,0,0,1-1.1-.49.82.82,0,0,1,0-1.11A3.38,3.38,0,0,1,132.79,83.33Z"/><path class="bc" d="M132.48,87.35a4.37,4.37,0,0,1-2.11,2,6.57,6.57,0,0,0-1.26.73,1.73,1.73,0,0,0-.7,1.22,1.9,1.9,0,0,0,.49,1.32,4.29,4.29,0,0,0,1.15.88,4.54,4.54,0,0,1,1.22.83,1.2,1.2,0,0,1,.22,1.4A4.37,4.37,0,0,1,129,97.23a13.31,13.31,0,0,0-2.75.94,2,2,0,0,0-.41,2.62,3.72,3.72,0,0,0,2.38,1.56,3.67,3.67,0,0,1-2.4-1.55,2,2,0,0,1,.4-2.67,13.3,13.3,0,0,1,2.76-1,4.3,4.3,0,0,0,2.39-1.52,1.11,1.11,0,0,0-.2-1.3,4.94,4.94,0,0,0-1.19-.82,4.07,4.07,0,0,1-1.16-.9,2,2,0,0,1-.5-1.37,1.79,1.79,0,0,1,.73-1.24,6.38,6.38,0,0,1,1.27-.72A4.31,4.31,0,0,0,132.48,87.35Z"/><path class="bj" d="M136.79,96.22a4.49,4.49,0,0,1-1.3,2.83,14.4,14.4,0,0,1-2.43,2,5,5,0,0,0-1.89,2.1,2,2,0,0,0,.72,2.52,2.14,2.14,0,0,1-1.27-2.7,4.88,4.88,0,0,1,2-2.53,25.56,25.56,0,0,0,2.45-1.76A5.53,5.53,0,0,0,136.79,96.22Z"/><path class="bb" d="M129.76,95.57A5,5,0,0,0,128,99.23a8.19,8.19,0,0,0,.92,4,5,5,0,0,0,.73,1.08,5.72,5.72,0,0,1,.16-2.06,21.66,21.66,0,0,1,1.08-3,7.84,7.84,0,0,0,.82-2.32,2.47,2.47,0,0,0-.35-1.66c-.15-.23-.34-.49-.61-.42A3.29,3.29,0,0,0,129.76,95.57Z"/><path class="bc" d="M133.35,87.3a6.09,6.09,0,0,0,4.2.32,10,10,0,0,0,2-.78,2.26,2.26,0,0,1,2.12-.15,2.36,2.36,0,0,0-2,.31,8.44,8.44,0,0,1-2,.84,6.46,6.46,0,0,1-2.19.17A4.65,4.65,0,0,1,133.35,87.3Z"/><path class="bc" d="M141,88.27a5,5,0,0,0-.9,2.2,4.19,4.19,0,0,1-1.45,1.93,8.34,8.34,0,0,1-2.15,1.13c-.76.27-1.54.46-2.26.79a2.84,2.84,0,0,0-1.66,1.54,17.23,17.23,0,0,1-.66,2.32,12.08,12.08,0,0,1-1.43,1.95,3.91,3.91,0,0,0-.47,2.3,4,4,0,0,1,.38-2.37,11.71,11.71,0,0,0,1.38-2,17.88,17.88,0,0,0,.62-2.32,3.06,3.06,0,0,1,1.74-1.68c.75-.33,1.55-.51,2.3-.76a8,8,0,0,0,2.12-1.08A4.14,4.14,0,0,0,140,90.43,4.93,4.93,0,0,1,141,88.27Z"/><path class="bc" d="M137.81,94.41a3.72,3.72,0,0,1,2-.76,8.47,8.47,0,0,1,2.19.19c.72.14,1.42.32,2.14.41a4.2,4.2,0,0,0,2.09-.12.85.85,0,0,0,.59-.71,1.11,1.11,0,0,0-.41-.87,3.94,3.94,0,0,0-2-.62,1.53,1.53,0,0,1-1-.5,1.63,1.63,0,0,1-.2-1.09,2.27,2.27,0,0,0-.06-1.07.66.66,0,0,0-.87-.39.69.69,0,0,1,.92.37,2.25,2.25,0,0,1,.12,1.09,1.5,1.5,0,0,0,.2,1,1.45,1.45,0,0,0,.92.43,4,4,0,0,1,2.11.62,1.35,1.35,0,0,1,.49,1,1.07,1.07,0,0,1-.7.9,4.42,4.42,0,0,1-2.22.11c-.73-.11-1.43-.3-2.14-.46a8.23,8.23,0,0,0-2.15-.22A3.55,3.55,0,0,0,137.81,94.41Z"/><path class="bc" d="M139.72,85.49a8.19,8.19,0,0,1-5.67.18c-.43-.18-1-.39-1.1-1a.73.73,0,0,1,.34-.69,3.8,3.8,0,0,1,.65-.36,5.14,5.14,0,0,1,2.87-.39,16.57,16.57,0,0,0,2.82.46c.47,0,.91-.2,1.44-.15a.72.72,0,0,1,.37.13.36.36,0,0,1,.19.38c-.08.31-.35.42-.56.53a6.19,6.19,0,0,1-2.85.41c-.48,0-1,0-1.44,0a3,3,0,0,0-1.4.24c1.81-.71,3.89.14,5.62-.74.21-.1.43-.23.47-.42s-.22-.29-.42-.31c-.44,0-.91.17-1.41.18a16.56,16.56,0,0,1-2.86-.43,4.92,4.92,0,0,0-2.76.34c-.41.18-.94.41-.9.85s.57.67,1,.84A8.66,8.66,0,0,0,139.72,85.49Z"/><path class="bc" d="M139.3,88.24a5.37,5.37,0,0,1-3.06,1.32c-1.13.14-2.26.11-3.37.24a5.38,5.38,0,0,0-1.6.41,1.69,1.69,0,0,0-1,1.18,1.16,1.16,0,0,0,.66,1.29c.45.27,1.08.57,1.19,1.25a.93.93,0,0,1-.41.82,2.52,2.52,0,0,1-.81.35,10.57,10.57,0,0,0-1.6.48,4.1,4.1,0,0,0-1.38.89,2.39,2.39,0,0,0-.67,1.45c-.18,2.32,2.11,3.89,2.4,6.17a7.94,7.94,0,0,0-1.47-3,5.38,5.38,0,0,1-1.09-3.18,2.66,2.66,0,0,1,.7-1.56,4.3,4.3,0,0,1,1.44-.95,10.44,10.44,0,0,1,1.62-.5c.5-.14,1.09-.43,1-1s-.6-.81-1.07-1.09a1.9,1.9,0,0,1-.64-.62,1.31,1.31,0,0,1-.1-.89,1.91,1.91,0,0,1,1.11-1.3,5.67,5.67,0,0,1,1.66-.4c1.13-.13,2.26-.08,3.37-.21A5.24,5.24,0,0,0,139.3,88.24Z"/><path class="bb" d="M131,95.24c-.19-.19-.64-.17-.9-.17a2.91,2.91,0,0,0-1.41.34,1,1,0,0,0-.47.82c0,.49.35.9.31,1.41-.06,1.08-1.36.85-2.07,1.22a.68.68,0,0,0-.38.84c.1.24.51.42.66.14-.06.13-.23.12-.35.09a.68.68,0,0,1-.43-.66,1.11,1.11,0,0,1,.38-1c.32-.24.63-.07,1-.09s.86-.18,1-.54-.34-.61-.58-.86-.13-1.15.1-1.55a2.35,2.35,0,0,1,2.24-1c.31,0,1.15.27,1.2.68A.29.29,0,0,1,131,95.24Z"/><path class="bb" d="M147.15,94.62s-.05,0-.05-.05a3.55,3.55,0,0,1,2.44,1.05,2.22,2.22,0,0,1,.72,1.36,2.92,2.92,0,0,1-.36,1c-.41,1.05.39,1.67,1.35,1.87.72.15,2.09.13,2.4.93s-1,1.7-1.31,2.39-.38,1.92.66,1.72c.48-.09,2.17-1,2.27-.17.07.54-.89.72-1.16,1.1s.41.82.71.28c-.27.15-.83.52-1,0s.62-.65.77-1,0-.51-.37-.47a1.26,1.26,0,0,0-.68.47,1.46,1.46,0,0,1-2.46-1.15,2.17,2.17,0,0,1,.92-1.15c.61-.43,1.75-1.08.92-1.81-.51-.46-1.22.1-1.75.3a2.21,2.21,0,0,1-2.4-.56,2.63,2.63,0,0,1-.25-1.84c.12-.58.84-1.35.72-1.93s-.82-.92-1.29-1.07a16.11,16.11,0,0,0-2.31-.17c-.41-.08-.43-.15-.25-.48a1.12,1.12,0,0,1,.65-.59,3,3,0,0,1,1.73-.18"/></svg>