<svg xmlns="http://www.w3.org/2000/svg" xmlns:xlink="http://www.w3.org/1999/xlink" viewBox="0 0 567 269"><defs><style>.a{fill:none;}.b{clip-path:url(#a);}.c{fill:#527466;}.d{fill:#d5ecf5;}.e{fill:#e2982b;}.f{fill:#f2dfe0;}.g{fill:#d7e0d7;}.h{fill:#cad8ca;}.i,.m{fill:#fff;}.j{fill:#e3eae3;}.k{fill:#3c3c3b;}.l{fill:#4d4d4d;}.m{stroke:#1d1e1b;stroke-linecap:round;stroke-linejoin:round;stroke-width:0.24px;}.n{fill:#a37686;}</style><clipPath id="a"><rect class="a" x="2.15" y="11.79" width="562.7" height="245.43" transform="translate(567 269) rotate(-180)"/></clipPath></defs><title>fete-meres</title><g class="b"><path class="c" d="M180.21,196.91c-5.46-4.3-9.52-11.5-13.12-17.13a98.8,98.8,0,0,1-11.57-24.33A70.66,70.66,0,0,1,152.73,137c0-2.17-.08-4.88,1.3-6.66,2.68,1.27,4.75,4.06,6.78,6.06,4.3,4.23,8.81,8.68,12,13.66,7,10.91,8.41,23.24,12.7,34.92-1.18-3.07-1.68-6.76-2.62-9.95-2.3-7.83-4.75-15.52-5.92-23.54-1.25-8.57-1.63-19.81,4.72-26.71,2.18.87,3.32,3.73,4.16,5.62a84.19,84.19,0,0,1,4.68,15.7,48.67,48.67,0,0,1,1,18.94c-.76,4.71-2.3,9.4-1.94,14.24,2.3-11.38,5.3-23.07,11-33.36a88.72,88.72,0,0,1,14.11-18.31c1.93-2,5.47-6.65,8.56-6.87-1.21,9.92.31,19.38-5.89,28.21-7.42,10.58-13.88,21.78-21.18,32.38,3.59-1.19,6.54-6.95,8.95-9.61,6.55-7.25,13.21-12.69,22.54-16.8,5.59-2.46,10.91-4.43,15.41-8.4,1.32-1.17.75,8.92-5.46,15.47-4.93,5.18-8.26,10.72-14.7,14.1-4.69,2.47-12,5-15.47,9,9.53-1.1,11.76-2.66,20.37-6,5.42-2.13,14.28-7.14,16.33-5.92,2.87,1.72-10,15.91-15.43,19.9C214.61,203.26,192.72,207.09,180.21,196.91Z"/><path class="c" d="M271.76,78.51c2.81,8.8,12,13.79,19.49,20,6.71,5.6,7.81,17.82,13.7,17.89,0,.06,4.88,10.91,5.94,2.85,14.14,15.17,47.12,2.65,65.6-2.09,7.53-1.94,25.05-9.69,21.06-18.76-11.52,2.45-26.61,11.82-39.94,7-7.7-2.79-4.88-6.08,1.82-7.26,9.48-1.67,19.93.52,29.1-2.72,8.59-3,18.91-20,12.05-27.54-4.86-5.35-13,4.48-17.8,6.65-6.55,3-23,8-30.07,2C363,60.4,411,67.73,396.16,39.9c-6.47,3.63-11.16,8.59-19,11.07-5,1.56-16,4.3-21.19,1.19-5.94-3.59-1.36-6.19,3.27-8.75a46.61,46.61,0,0,1,11.33-4.57c4.12-1,9.75-.08,13.54-1.28,16.5-5.26-2.18-29.86-7.52-39.22C367.23,6,350,1.15,339.57,8.21c-9,6.08-.46,14.4,1.48,22.1,2.41,9.62-2.8,9.61-8.83,2.19a47.07,47.07,0,0,1-7.63-12.65c-.53-1.36-.83-5.65-2.12-6.49-2.87-1.87-9.83,1.73-11.86,3.55-15.23,13.6,26.24,28,21.17,41.29-12.94,2.39-22.34-10.88-28.24-17.86a38.57,38.57,0,0,1-8.71-21.11c-9.56,5.45-14.61,13.81-8.93,23.9,6.58,11.7,28.63,15.83,31.58,28.72,3.57,15.58-21.85-3.87-27.13-7.71-5.72-4.16-12.54-8.1-14.67-14.4-1.16-3.41-.26-6.93-.76-10.3C261.74,38.64,269.71,72.07,271.76,78.51Zm71.72,5.54c3.67-.78,12.75-2.56,13.24,2.83.27,2.92-1.46,4.54-4,5.45-2.07.74-4.35.72-6.49,1.07-1.16.2-3,1.1-4.16.84C337,93.15,338.51,84.68,343.48,84.05Zm-31.63,2.16c1.48-.68,3.3-1.12,6.41.65-.27-.82-.53.71,0,0a7.66,7.66,0,0,1,1.25,12.71c-3.84,3.2-7.62-3.57-9.74-6.5C308,90.56,308.59,87.71,311.85,86.21Z"/><path class="d" d="M192.86-8.22c-2.83,10.51-6.14,20.56-14.65,28-10.9,9.47-24.13,12.1-37.71,7.08-6.84-2.53-13.27-6.1-20.25-8.19C98.86,12.25,72.57,21,54.59,32.8c-8.89,5.82-17,13.14-27.37,16.36S5,53.61-5.35,50.41c-5-1.56-1.25,7.34-6.52,6.84-3.64-.35-3.84-.9-4-4.47-.11-3.4-.1-6.8.07-10.2.67-13.38,4-26.65,11.45-37.91C5.11-9.57,22.05-15.64,37.8-20.18a251.87,251.87,0,0,1,68.33-9.19c10.63,0,21.16,0,31.64,2.08,7.42,1.46,14.44,3.95,21.67,6,9.95,2.89,20,5.26,28.85,10.85C189.66-9.53,192-8.17,192.86-8.22Z"/><path class="e" d="M307,144.25c1-1,5.45-2.81,4.51-4.31-.66-1.06-4.46.14-5.65.71-2.47,1.17-.9,1.58-2.14,3.14,1.26.62,3.05.15,4.46-.3"/><path class="e" d="M314.19,132a2.79,2.79,0,0,1,.67-.32,18.22,18.22,0,0,0,4.38-2.22c1.38-1.12.05-1.18-1.28-1.09.84-.83.05-1.2-1-1.06a6.49,6.49,0,0,0-3.64,1.74C311.67,130.67,312.48,132.38,314.19,132Z"/><path class="e" d="M295.89,136.88a12.15,12.15,0,0,0,3.81-1.32c1.3-.83.07-.63-.58-.92.28-.7,2.06-1.64.7-2-.94-.24-2.66.47-3.61.76a4,4,0,0,0-2.1,1.1c-.34.46-.41,1,.42.87-.52.29-.88.62-.66,1,.41.8,2.25.33,3.14.15"/><path class="e" d="M303.26,119.55a11.08,11.08,0,0,0,4.54-2c1.43-1.15.94-1.51-.58-1.6,2.94-2.83-5.24-.23-4.27.43-.57.66-1.77,1.2-1.65,2.08A1.5,1.5,0,0,0,303.26,119.55Z"/><path class="e" d="M284.89,130a8.19,8.19,0,0,0,4-2.37c.81-1-.32-.48-.7-1-.11-.15.16-.48.07-.67s-.54-.38-1-.39a6.59,6.59,0,0,0-2.46.73c-1.39.62-1.69,1-1.76,2.07C283,129.72,283.79,130.36,284.89,130Z"/><path class="e" d="M327.49,134.13a8.34,8.34,0,0,0,4-2.37c.8-1-.33-.49-.71-1-.1-.14.17-.48.07-.67s-.54-.37-1-.38a6.62,6.62,0,0,0-2.47.72c-1.39.62-1.68,1-1.75,2.08C325.6,133.81,326.4,134.46,327.49,134.13Z"/><path class="e" d="M320.67,118.23a8.3,8.3,0,0,0,4-2.37c.8-1-.32-.49-.7-1-.11-.14.16-.48.06-.66s-.54-.38-1-.39a6.68,6.68,0,0,0-2.47.72c-1.39.62-1.68,1-1.75,2.08C318.78,117.91,319.58,118.56,320.67,118.23Z"/><path class="e" d="M279.45,142.5c1.15-.47,2.35-.85,3.47-1.42,1.35-.68,1.08-.87.38-1.49.89-.86.84-1.34-.16-1.72-1.17-.46-2.83-.08-4.21.42-.6.22-3.1,1.94-1.91,2.23a.92.92,0,0,0-.24,1.25c.61,1,2.74.9,4,.13"/><path class="e" d="M293.54,147.49c1.39-.42,3.73-2,1.14-1.72,1.36-1-2.39-.54-2.79-.39-1.28.48-2.57,1.5-.9,1.88C290,148.63,293.92,147.36,293.54,147.49Z"/><path class="e" d="M336.8,122.53c1.39-.41,3.73-2,1.14-1.71,1.35-1-2.39-.54-2.79-.39-1.28.48-2.58,1.5-.9,1.88C333.21,123.68,337.18,122.41,336.8,122.53Z"/><path class="e" d="M416.17,127.11c.76-1.22,4.68-4,3.43-5.21-.88-.89-4.31,1.13-5.36,1.95-1.47,1.16-1.16,1.54-1.11,2.26a1.3,1.3,0,0,0,1.7,1.1,11.73,11.73,0,0,0,2.31-1.11"/><path class="e" d="M404.34,124.62a12.1,12.1,0,0,0,3.41-2.14c1.09-1.09-.07-.62-.77-.76.12-.75,1.65-2.06.24-2.1-1,0-2.48,1.06-3.35,1.56a3.84,3.84,0,0,0-1.79,1.54c-.24.52-.2,1,.59.75-.44.39-.71.8-.42,1.15.59.69,2.27-.18,3.11-.55"/><path class="e" d="M388.89,135.41c1-.71,2.1-1.35,3.07-2.15,1.16-1,.85-1.1,0-1.54.68-1,.53-1.49-.53-1.65a6.6,6.6,0,0,0-4,1.35c-.54.35-2.59,2.59-1.37,2.6a.92.92,0,0,0,.05,1.28c.81.84,2.87.26,3.93-.77"/><path class="e" d="M404.21,134.37c1.26-.72,3.2-2.75.72-1.93,1.11-1.26-2.44,0-2.8.24-1.14.76-2.18,2-.46,2C401,136.28,404.55,134.16,404.21,134.37Z"/><path class="f" d="M475.26,42.5c-3.14-.65-6.49.44-9.57,1.12-12,2.68-25.56,3.21-37.1,7.47-14.66,5.42-30,14.19-39,27.19,29.7,5,60.29-9.48,85.11-24.27C461.41,64.73,447,74.79,436.35,88.54c-12.64,16.25-19.82,32.94-26.43,52.14,17.17-7.29,31.89-16.71,44.88-30.7C466,97.89,475,83.81,483.2,69.58c-.57,4.31-4.81,9.26-6.44,13.65-3.63,9.8-6.25,21.93-5.7,32.4.62,11.62,3.54,22.28,6.78,33.35,1.59,5.43,2.82,11.67,6.28,16.27,1.95-7.78,9.72-15.31,13.78-22.16,7.69-13,14.35-28.1,15-43.43a69.11,69.11,0,0,0-11.19-39.79c-3.51-5.18-7.82-10.37-13.16-13.7C483.73,43.14,479.13,43.55,475.26,42.5Z"/><path class="g" d="M590.6-.72C556,1,521.65-1.26,487.06-1.07c-13.61.07-27.33.2-40.91-.44-4.9-.23-5.44-1.19-5,4.43,1,14.1,14.69,24.58,25.82,32.72,8.93,6.53,18.36,12.18,24.93,20.91,5,6.66,6.46,14.12,9.67,21.43,11.22,25.55,49.27,16.72,69.74,7.17a201,201,0,0,0,19.18-10.6c2.41-1.47,1.54-9,1.83-12.5.71-8.26.9-16.44.91-24.78C593.22,23,592.18,13.27,590.6-.72Z"/><path class="f" d="M290.22,289.33c10.41-14.1,24.47-38.52,14.59-56.71-17.22-31.7-54.08-24.85-79.4-26.52-21.44-1.41-24.54-5.94-34.6-25.27-3.8-7.31-8.47-14.17-18-15.82-6-1-12.43-2-17.66-5.47-7.16-4.74-7-14.17-12.13-20.91-11.07-14.6-38.26-13-53.74-14-34.5-2.22-79-7.18-104.69,29.49-24.93,35.55-24.32,88.14,12,110.39,17,10.4,42.08,8.9,60.83,11.24,21.09,2.64,41.59,9.41,62.65,12.72,34.19,5.38,68.82,6.45,103.43,6.1C246.73,294.29,268.14,286.21,290.22,289.33Z"/><path class="h" d="M79.49,252.71c1.91-14,12.09-24.23,24.46-30.11,10-4.72,28.63-5.12,34.22-16,6.45-12.6-2.17-25.38-11.4-33.31-11-9.41-21.3-17.78-31.29-28.15-17.92-18.58-45.57-15.3-69-10.47-19.49,4-29.26,12.49-44.28,25.75-10.15,9-19,14.66-24.54,27.24-5.78,13.16-6.06,26.66-1.89,40.49,11.88,39.39,69.78,50.91,105.1,43C70,269.12,81.43,261.13,79.49,252.71Z"/><path class="d" d="M553.79,187.5c-23.07,18.61-48.8,34.64-80.25,28.21-20.91-4.28-40.4-2.81-58.42,11.3.71.53,1.34.71,2.06,1.34-4.74,5.39-11.94,6.29-17.41,10.28-4.22,3.08-7.89,7.43-12.11,10.46-9.28,6.67-21.72,13.56-29.16,23.17,41.08,4.05,81.31,12.05,122.1,18.34,39.25,6.06,97.61-9.31,101.77-63.69C584.52,198.87,573.85,181.93,553.79,187.5Z"/><path class="i" d="M49.56,279.8c-.22.25-.38.51-.62.74a91.68,91.68,0,0,0,6.31-12.76c2.31-5.37,5.18-10.28,7.78-15.5a197.44,197.44,0,0,1,15.1-25.53,216.6,216.6,0,0,1,19.53-24.13c3.06-3.26,12.23-7.65,12.69-12,.77-7.49-7.64.22-9.71,1.88A78.42,78.42,0,0,0,86.3,207.92c-8.59,12-16.61,24.29-24.74,36.58-5.29,8-8.58,17.39-12.3,26.14-1.11,2.61-3.69,6.9-3.73,9.68C46.86,280.38,48.53,280.48,49.56,279.8Z"/><path class="i" d="M104.28,194.91c.46-1.37,1.5-1.17,2.93-1.65,3.72-1.23,7.65-1.93,11.44-2.89,6.33-1.6,11.87-5.31,16.67-9.55C137.38,179,153.88,164,144.77,163c-4.05-.47-8.9,2.94-12.44,4.41-6.15,2.56-11.39,4.75-16.58,9-6.68,5.52-14.26,12.06-17.56,20.13C100.75,196.68,105.14,194.7,104.28,194.91Z"/><path class="i" d="M99.63,194.35c.21-4,4.21-9.67,5.34-14,1.69-6.44,3-13,2.81-19.63-.14-6-1-13.29-3-19.07-2,1.58-3.55,6.88-4.3,9.3-2.09,6.68-3.18,14.27-4.17,21.16-1,6.62-1.57,14.71,1.09,21.12C98.15,195.07,100.2,196.85,99.63,194.35Z"/><path class="i" d="M89.73,203c1.57-3.76,1.18-8.92,1.18-12.95A121.55,121.55,0,0,0,89.15,169c-1.29-7.21-2.48-15.63-5.9-22.23-2.56,1.84-2.18,8.41-2.32,11.18A105.13,105.13,0,0,0,82,180.67c1.06,6.29,3.15,12.07,5,18.16C87.14,199.41,89.51,208.86,89.73,203Z"/><path class="i" d="M81.87,213.12c.18-.2.13-.36.53-.33.92-13.39-4-28-6.5-41.22-.66-3.5-1.51-8.22-3.59-11.23-1.49-2.16-5.51-6.32-7.93-7.15-1.93,2.8-1.36,8.51-1.09,11.68a81.83,81.83,0,0,0,5.09,22C72.18,196.64,75.81,207.47,81.87,213.12Z"/><path class="i" d="M76.63,222.36c.19-2.8-1.3-5.51-2.22-8.08-3-8.5-5.85-17.31-9.77-25.47-2.8-5.84-5.45-11.94-8.66-17.57-1-1.76-3-5.39-5.21-5.72-4.33,15.56,8.72,30.77,16.28,43C70.26,213.68,73.3,220.92,76.63,222.36Z"/><path class="i" d="M69.35,229.93c1.07-1.6-2.3-6.29-3.06-7.83A158,158,0,0,0,54.68,203c-2.26-3.28-5.56-8.79-9.45-10.53-1.32,17.16,12.87,30.78,24.18,42.24C72.9,233.48,70.1,229.57,69.35,229.93Z"/><path class="i" d="M63.82,244.22c-6.07-12.32-12.82-24.85-25-32.48,3.2,11.41,8,21.69,16.51,30.59,1.26,1.33,5.66,6.75,7.76,6.64C65,248.87,65.29,245.6,63.82,244.22Z"/><path class="i" d="M55.09,258c.08.44.48.54.23,1.09-5.55-7.21-8.75-22.63-20.86-23.18-.24,5.08,4,12,7.14,15.78s8.64,10.64,14.61,9.91A3.81,3.81,0,0,0,55.09,258Z"/><path class="i" d="M105.16,196a67.94,67.94,0,0,0,23.65,3.11c4.41-.26,8.79-.6,13.18-1.09,3.11-.35,7,.15,9.73-1.47-1.56-2.2-7.46-1.63-10-2-7.48-1.1-15-1.9-22.46-3-3.51-.53-11.38-2.34-14.36,1.05C103.9,193.74,103.52,195.45,105.16,196Z"/><path class="i" d="M93.81,204.71c.4.36,3.67,1,4.81,1.36,7.12,2.19,14.38,3.12,21.54,5,11,2.83,20.39,2.25,31-1.35-1.25-2.43-8.65-2.51-11.23-3.07-8.45-1.83-16.75-3.14-25.3-4.42-5.29-.79-17.93-3.19-22.33,1.68C92.81,204.54,93.56,205.22,93.81,204.71Z"/><path class="i" d="M84.78,215.08c9.69,3.11,20.68,3.21,30.54,6.47,7.9,2.6,20.7,6.84,28.75,2.49-1.72-1.13-4.31-1.3-6.27-1.91-6.29-1.95-12.4-4.14-18.76-5.86-7.34-2-15-4.32-22.57-5.19-3.06-.36-10-1.86-12.28.62C82.72,213.32,83,215.72,84.78,215.08Z"/><path class="i" d="M78.67,225.45c10.67,2.48,20.43,9.23,31.36,11.61a55,55,0,0,0,17.42.55c2.66-.27,7.72-.23,9.77-2.06-1.36-2.16-6.84-3-9.14-3.88a106.88,106.88,0,0,0-13.42-4.52c-6.56-1.48-13.15-2.56-19.75-3.83-4.22-.81-9.31-1.83-13.65-1.58C79.14,221.86,75.15,225.08,78.67,225.45Z"/><path class="i" d="M69.64,237.77c4,.67,7.54,3.55,11.33,5a68.89,68.89,0,0,0,19.58,4.37c7.73.54,20.27,1.9,27.35-1.78-4.28-3.17-12.9-2.83-18.12-4.26-8.67-2.36-17.55-6.5-26.56-7.37C78.68,233.24,71.41,232.86,69.64,237.77Z"/><path class="i" d="M63.82,250.94c1.6-.88,5.27,2.75,6.8,3.75a27.48,27.48,0,0,0,15.16,5c6.11.26,19.88,2.31,24.61-2.83-2-1.23-4.59-1.51-6.85-2.08-4.69-1.18-9.15-2.9-13.73-4.4-5.09-1.68-10.47-3.44-15.87-3.83C72.68,246.42,61.19,247.05,63.82,250.94Z"/><path class="i" d="M56.83,263.83c7.65.53,15.4,6.66,23.63,7.46,5,.49,11.36-.55,15.28-3.89-5.13-2.61-12-2.83-17.59-4.43a62.58,62.58,0,0,0-12.75-2.44C60.84,260.21,58.49,261.09,56.83,263.83Z"/><path class="j" d="M122.85-10.77c3.53.4,6.66,2.71,9.65,4.49,11.69,7,25.69,12.22,36.31,20.7,13.5,10.77,26.6,25.29,31.52,42.05-32.89-5-60-30.85-80.85-55,10.2,15.83,21.77,31.37,28.21,49.49,7.62,21.43,9.38,41.42,9.64,63.84-15.48-13.59-27.64-28.58-36.42-47.75-7.59-16.58-12.12-34.46-15.78-52.21-.89,4.71,1.84,11.37,2,16.54.42,11.54-1,25.17-5.26,36-4.67,12-11.43,22.13-18.66,32.62-3.55,5.15-7,11.26-12.23,14.89.65-8.83-4.89-19.43-6.77-28-3.57-16.26-5.31-34.45-.69-50.75A76.31,76.31,0,0,1,89.07-1.74c5.47-4.21,11.79-8.16,18.55-9.8C113.75-13,118.43-11,122.85-10.77Z"/><path class="e" d="M-7.81,142.66C-8.25,145.47-.69,151.92.94,154c6.54,8.1,16.38,13.84,26.06,18.63,12.32,6.1,25.92,9.18,39,13.14a94.43,94.43,0,0,0,22.74,4.45c4.19.2,13.41.81,17.26-1.79,4.83-3.25-.81-4.69-4.72-7.24-10.09-6.61-19.24-13.74-30-19.42-15-8-32.36-17.17-49.39-19.75,15.57-4.42,32.4-5.1,47.66-10.95a94,94,0,0,0,34.32-22.54c3.63-3.79,10.92-9.38,12.57-14.24-6.91-.23-13.65-1.64-20.64-1.45-13,.35-25.3,4-37.42,8.54-9,3.4-18.7,5.73-26.93,11-5.35,3.4-10.29,7.67-16.26,10,12.56-11.46,23.51-22.94,31.85-38,6.43-11.58,15.53-25.24,16.66-38.78-8,4-15.83,11.47-22.66,17.28-14,11.9-28.17,26.23-37,42.49-5.24,9.66-9,20.85-7.71,32,.76,6.65,5,9.48,7.13,14.95"/><path class="c" d="M573.74,242.23c3.41-9.43,2.77-21.75,2.79-31.68a153.15,153.15,0,0,0-4.85-40.16A116,116,0,0,0,560.49,144c-1.67-2.91-3.77-6.52-6.9-7.94-2.34,3.51-2.7,8.61-3.66,12.65-2,8.54-4.11,17.52-4.18,26.32-.14,19.28,7.94,36.55,11.85,55-1-4.88-3.26-10.11-4.62-15-3.33-11.94-6.38-23.8-11.28-35.24-5.24-12.22-13.68-27.38-27.07-32.21-2,2.64-1.19,7.22-.74,10.29,1.21,8.24,3.91,16.18,6.62,24,3.3,9.56,7.42,17.91,13.82,25.76,4.68,5.74,10.32,10.9,13.71,17.57-11.89-13.53-24.9-27-40.21-36.71-9.94-6.33-21-11-32.13-14.67-4-1.32-12.11-5.09-16.13-3.27,9.38,12.33,15,25.92,29.72,33.4,17.65,9,34.59,19.42,52.11,28.49-5.43.87-13.68-4.75-18.8-6.64-13.92-5.16-26.55-7.83-41.44-6.91-8.93.55-17.12,1.57-25.89-.63-2.58-.65-8.88-3.57-11-1.38,8.22,10,14.84,19,27.79,23.48,10.25,3.52,21.06,3.27,31.78,3.37,7.82.07,19-1.48,26.44,1.37-12.77,5-26,3.65-39.46,5-8.46.87-16.18,1.07-20.9,8.77-2.5,4.07-3.72,9.57-7.58,12.66,8-11.7,35.12-.11,45.11,1.44C533.28,277,566.2,264.25,573.74,242.23Z"/><path class="e" d="M338,269.08c7.64-11.22,12.82-27.31,16.12-40.25,3.44-13.55,4.73-28.89.37-42.4-3.35,12.42-10,25.21-14.41,37.79-5.43,15.55-5.45,30.5-6.94,46.57-10.09-1.54-9.66-27.34-11.18-34.66-3.32-16-12.9-32.71-28.37-39.66,8.88,5.72,10.09,16.83,13,26,4,12.79,14.78,25.62,16.46,38.79-19-17.66-39.35-41.77-68.09-41.59,10.43,4.17,17.84,12.19,26.21,19.19,12.58,10.53,33.05,13.37,38.95,30.71-4,0-7.71-2.83-11.11-4.79-8.81-5.1-16.87-10.4-26.76-13.29-14.14-4.14-30.24-4.05-43.45-10.76,7.29,15.14,33.56,21.63,48.43,24.41,9.08,1.7,16.95,2.78,25.23,7.18C321,276.89,330.23,278,338,269.08Z"/><path class="k" d="M406.77,231.65c.05-2.72,4.26-9.79.58-11.68-2.61-1.34-6.7,4.12-7.72,6.18-2.09,4.25,1,3.62,1.36,7.5,2.87,0,4.95-2.36,6.47-4.41"/><path class="k" d="M404,206.89c0-.31.28-.62.56-1.15,1.39-2.66,3-4.72,3.49-7.8s-1.67-2.17-3.6-.85c.06-2.24-1.72-2.22-3.17-1a8.44,8.44,0,0,0-3.05,6.29C398.22,206.77,402,209.14,404,206.89Z"/><path class="k" d="M383,231.64c1.51-1.55,3.29-3.5,3.94-5.68.78-2.62-.83-1.18-2.28-1.14-.6-1.51.77-4.75-1.86-4.19-1.81.39-3.42,3.15-4.46,4.52-.87,1.14-1.8,2.25-1.6,3.79.14,1.13.76,2.08,1.93,1.21-.38,1-.43,1.88.5,2.43,1.84,1.08,4-1.36,5.1-2.47"/><path class="k" d="M378.48,206.74a14.1,14.1,0,0,0,4-7.59c.5-3.3-.8-3.53-3.28-2.37.34-7.64-8.45,4.14-6,4.49.1,1.68-1,3.69.53,5.18S377.91,207.82,378.48,206.74Z"/><path class="k" d="M355.77,228.86a11.26,11.26,0,0,0,2.7-7.75c-.29-2.56-1.23-.6-2.56-1.17-.38-.16-.46-1-.89-1.25a2,2,0,0,0-2.06.13c-1.21.63-2.13,2.29-2.75,3.45-1.23,2.32-1.09,3.31.36,5.26C352.37,229.94,354.56,230.41,355.77,228.86Z"/><path class="k" d="M365.86,256a53,53,0,0,0,3.28-5.56c1.07-2.4.37-2.51-1.63-3,.1-2.32-.68-3.14-2.81-3-2.49.2-4.5,2.31-5.89,4.41-.6.92-1.91,6.19.35,5.67a2.47,2.47,0,0,0,1.49,2.47c2.44,1.27,5.57-.77,6.4-3.23"/><path class="k" d="M391.38,249.81c1.54-1.95,2.86-6.78-.79-4.08.64-2.94-4.5,1.1-4.9,1.72-1.27,2-1.76,4.94,1.39,4.17C387.52,255,391.77,249.26,391.38,249.81Z"/><path class="l" d="M134,51.13a44.23,44.23,0,0,0,7.18-4.87c-.49.18-1.08.24-1.6.39.17-.37.24-1.12.37-1.52a8.11,8.11,0,0,0-1.67.46.78.78,0,0,1,0-.5C136,46.15,132.69,48,132.7,51c0,.68-.3,1.4,2-.27"/><path class="l" d="M153.6,37.65c4.14-.23,7.92-5.06,11.21-7.27a8,8,0,0,1-2.79.5,1.26,1.26,0,0,1,.26-.66c-.46-.2-1-.14-1.33-.53-2.76,1.51-6,4.51-6.87,7.53a2.14,2.14,0,0,0,2-.18"/><path class="l" d="M143.83,36.42c.83-1.54,5.11-3.36,6.67-5.45-.53.2-1.11.34-1.66.49.14-.55.35-1.35.46-1.94-3.11,1.08-6.89,4.67-8.75,7.37a4.55,4.55,0,0,0,4.54-.77"/><path class="l" d="M155.41,21a17.19,17.19,0,0,0,7.17-4c-.12-.21-.05,0-.22-1.11-.39-.51-.77.26-1.13.19l.37-1.1c-2.64,1.8-5.95,3.53-8.29,5.83a9.39,9.39,0,0,0,.85,1.24,7,7,0,0,0,3.76-1.68"/><path class="l" d="M116,49.47a17,17,0,0,0,7.18-4c-.13-.21-.06,0-.22-1.12-.4-.5-.77.27-1.13.19l.37-1.09c-2.64,1.8-6,3.53-8.29,5.83a8.82,8.82,0,0,0,.85,1.24,7.13,7.13,0,0,0,3.76-1.68"/><path class="l" d="M130.91,33.7c2.13-1.67,4.58-2.8,6.47-4.79-.12-.09-.93.26-1.11.26.08-.17.74-1.34.76-1.5-3.07.33-8,5.11-8.73,8.21,2-.46,3.7-1.73,5.53-2.76"/><path class="l" d="M149.42,14.56c2.11-2.42,3.49-4.52,6.1-6.39-.15-.2-.93.27-1.06.32.06-.2.6-1.39.6-1.5.05.13-.43.34-.92.21,0,0,.65-.81.67-.73-3.35,2.21-5.28,5.14-7.95,8,.24.32.56.63.79.93a9,9,0,0,0,2.14-1.1"/><path class="l" d="M169,5.64a30.47,30.47,0,0,1,4.26-3.36,27,27,0,0,0,.29-2.79c-.1,0-1.71.29-1.67.28a12.78,12.78,0,0,0,.85-1.27c-2.61,1.92-8.06,5.25-6.68,8.91a36.61,36.61,0,0,0,4.61-2"/><path class="l" d="M183.1,9a4.57,4.57,0,0,0-.55,1.05A54.62,54.62,0,0,1,188.2,5.7a7.54,7.54,0,0,0-1.12.33,10.06,10.06,0,0,0,1.24-2.29c-.48-.29-.58.28-1,.25,0-.25-.09-.49-.13-.74-3,2-6.77,3.68-8.64,6.94a7.92,7.92,0,0,0,1.13,1.38,16.74,16.74,0,0,0,5.09-2.81"/><path class="l" d="M118.2,28.47c-.2.25-.7.3-.38.54a30.24,30.24,0,0,1,3.86-3.73,3.25,3.25,0,0,1-.69.08c.49-.77.88-1.9,1.35-2.68A18.06,18.06,0,0,0,120.06,24c-.1-.1.09-.68-.06-.65-2.28,2.22-6.31,4.66-6.49,8a13,13,0,0,0,4.63-2"/><path class="l" d="M135.52,15.25a9.53,9.53,0,0,1,1.67-1.4,46.26,46.26,0,0,0,3.38-3.48c-.52.33-1.74,1.12-1.58-.06-1.27.79-4.63,2.29-5,3.92S135.47,15.3,135.52,15.25Z"/><path class="l" d="M126.53,13.4a9.25,9.25,0,0,0,2.22-2.48c-.2,0-.44,0-.64,0,0-.16,0-.42.1-.59a6.71,6.71,0,0,0-4.14,3.85c0,.84,1.42-.17,2.46-.76"/><path class="e" d="M568.6,46.6c-14.85.47-31.31-4.44-44.87,4.42C514.07,57.32,513,69.6,508.5,79.28,502,93.41,487.42,96.05,474.45,102.2,461,108.58,446,116.43,438.53,130c-2.9,5.3-6.95,11.53-2.43,14.81,7.54,5.47,27.72.27,35.48-2,5.07-1.51,10.57-3.12,15.87-1.22,6.77,2.43,11.43,10.07,17.95,13.52,9.81,5.19,22.24,3.34,32.1-.83,7.73-3.27,20.16-9.25,24.93-16.38,9.91-14.8,1.41-38.66,3.1-56.46C566.45,71.75,571.05,55.2,568.6,46.6Z"/><path class="i" d="M567.48,50c-6.25-10.71-17.3-30.72-30.17-33.44,7.46,23.46,16.65,43.31,34.22,60.9a69.35,69.35,0,0,1-.59-7.9,26,26,0,0,1-2.89,10.06c-7.93.21-17.61-16.73-22.64-22.33-6.66-7.41-15.71-17.85-25.59-20.83C531.68,53,542,70.94,556.6,85.54c5.3,5.31,5.86,5.26,6.71,12.4.7,5.94,1.85,12,2.69,17.74C555.08,112.79,547.14,95,539.38,87.2c-8.57-8.61-20.61-22-32.06-26,11.57,18.62,23,38.41,40.12,52.22,4.91,4,18.68,10.6,21.06,16.55,1.26,3.17-1.64,9.61-1.81,13.41-24.94,0-33.18-50.61-59.35-45.48,2.88,4.71,8,8.33,11.66,12.67,7.54,8.92,13.35,19.06,21.13,27.86,6.07,6.86,12,12.73,20.29,16.83,1.22.61,7.82,4.36,9.49,4,6.67-1.26,6.27-12.35,7-18.24,2.07-17.92.39-36.64-2.44-54.44C572.27,73.12,572.09,56.7,567.48,50Z"/><rect class="m" x="206.16" y="53.51" width="152.08" height="161.49"/><rect class="m" x="209" y="56.91" width="146.41" height="154.69"/><path class="n" d="M266.92,117a4.51,4.51,0,0,0-.59,1.37,18.35,18.35,0,0,1-.52,2c-.51,1.55-1.07,3.1-1.62,4.65-.41,1.07-.89,2.07-1.3,3.14a6.67,6.67,0,0,1-1.18,2.51,5.81,5.81,0,0,1-3.8,1.59,3,3,0,0,1-2.29-1.18c-1.22-1.33-.92-3.22-1-4.88a52.43,52.43,0,0,1,.18-6c.07-.7.15-1.4.19-2.14a43.86,43.86,0,0,1,.84-5l.67-3c.15-.73.33-1.51.44-2.25s.26-1.66.33-2.47a12.59,12.59,0,0,0-.07-1.26.59.59,0,0,0-.22,0,7.54,7.54,0,0,0-3,2,5.48,5.48,0,0,1-.59.59,9.74,9.74,0,0,0-1.33,2c-.15.3-.33.59-.48.85a27.18,27.18,0,0,0-1.41,2.66,13.66,13.66,0,0,0-1.21,3.17s0,.12,0,.19a21.16,21.16,0,0,0-1.15,4.21c-.22.92-.62,1.81-.92,2.73s-.59,2.07-1,3.1a4.05,4.05,0,0,1-1.25,1.67c-.67.55-1.19-.41-1.48-1a5,5,0,0,1-.37-1.78V122.2c0-.59,0-1.18,0-1.77.07-1.29.11-2.62.14-4s.15-2.47.19-3.73v-.59a3,3,0,0,0-.56.66c-.55,1-1.1,1.89-1.62,2.85-.19.29-.26.63-.44,1a14.73,14.73,0,0,0-1,2.51c-.15.52-.37,1-.48,1.48a13.92,13.92,0,0,0-.52,2.14,15.41,15.41,0,0,1-1,3.58,34.32,34.32,0,0,0-1,4.21c0,.33-.11.7-.15,1s-.22.52-.62.63a3.56,3.56,0,0,1-1.26,0,1.21,1.21,0,0,1-1-.81,4.64,4.64,0,0,1-.37-1.37,28.35,28.35,0,0,1,0-4.61,6.93,6.93,0,0,0,0-.93,24,24,0,0,1,.15-3.69c.15-1.51.18-3,.29-4.54.08-1.74.19-3.47.26-5.25.08-.85.11-1.69.11-2.51a2.17,2.17,0,0,0,0-.51,1.68,1.68,0,0,0-.33.07,4.87,4.87,0,0,0-1.48.77,6.27,6.27,0,0,1-.85.67,20.3,20.3,0,0,0-2.17,2.18,3.61,3.61,0,0,0-.74,1,.7.7,0,0,1-.52.33l-.59.11c-.48-.48-.41-.52-.15-.92a13.26,13.26,0,0,1,2.33-3c.66-.6,1.29-1.15,2-1.7a8.84,8.84,0,0,1,1.41-.89,4.25,4.25,0,0,1,.92-.22c.48-.08,1-.11,1.44-.15a4,4,0,0,1,1.85.41,1.92,1.92,0,0,1,1,.88,3.38,3.38,0,0,1,.37,1.18c.08.85.22,1.67.22,2.48a7.44,7.44,0,0,1-.14,2.36c0,.15,0,.3,0,.45v1.77a.41.41,0,0,1-.12.26.82.82,0,0,0-.11.44c0,.11,0,.26-.07.41s0,.25.15.33c.07-.11.11-.22.18-.33.56-1.22,1.11-2.48,1.74-3.7a13.76,13.76,0,0,1,2-2.91c.29-.34.59-.63.85-.93a.2.2,0,0,1,.18-.11,14.22,14.22,0,0,1,1.77-.37,1.28,1.28,0,0,1,1.15.37c.22.19.51.26.7.48a2.31,2.31,0,0,1,.77,2c0,.33,0,.66-.07,1,0,.11,0,.18,0,.29.22-.07.22-.26.29-.37.26-.59.48-1.18.78-1.73s.59-1.15.88-1.7c.67-1,1.3-2.11,2-3.1a8.13,8.13,0,0,1,3.07-2.81,5.32,5.32,0,0,1,1.84-.52,11.05,11.05,0,0,1,2.7-.11,1.59,1.59,0,0,1,1.33,1.26,7.71,7.71,0,0,1,.29,2.62c0,.63.11,1.22.08,1.81a18.54,18.54,0,0,1-.15,2.88,50.08,50.08,0,0,0-.74,5.87c-.11,2-.74,3.84-.88,5.8-.12,1.62,0,3.25-.08,4.84,0,.48-.26.92,0,1.36s.19.59.56.67.85.14,1.18-.26c.07-.15.18-.26.26-.41.33-1,.7-1.88,1.07-2.8s.7-2,1.11-3c.4-1.15.85-2.26,1.29-3.36s.92-2.18,1.4-3.25a4.21,4.21,0,0,0,.19-.67c.11-.44.29-.4.85-.4A1.33,1.33,0,0,1,266.92,117Z"/><path class="n" d="M270.72,120a2.68,2.68,0,0,1-1.62.81c-.44,0-.85.22-1.29.26a2.26,2.26,0,0,1-2.52-1.74,5.15,5.15,0,0,1-.07-2.47c.07-.37.11-.74.19-1.11l.33-1.11c.15-.44.33-.88.44-1.33a6.65,6.65,0,0,1,1.29-2.4,4.38,4.38,0,0,0,.59-.7,2.29,2.29,0,0,1,1.19-.77l.88-.34a14.62,14.62,0,0,1,1.59-.26,1.23,1.23,0,0,0,.33,0,2.49,2.49,0,0,1,1.3,0,1.33,1.33,0,0,1,.85.59,4.89,4.89,0,0,1,.44.7.8.8,0,0,1-.15,1.07.51.51,0,0,1-.37.11c-.11,0-.18,0-.22-.18-.07-.59-.52-1-.89-1.41l-.11-.11a2.14,2.14,0,0,0-1.25-.07,2.41,2.41,0,0,0-1.7,1,23.68,23.68,0,0,0-1.22,3c-.18.48-.33,1-.52,1.48a6.33,6.33,0,0,0-.4,3.51,1.43,1.43,0,0,0,1.77,1c.85-.37,1.59-1.74,2-2.51a5.56,5.56,0,0,0,.22-.85,7.24,7.24,0,0,1,.22-.89c.11-.44.3-.89.45-1.33s.33-.92.44-1.4.29-.59.63-.63.48-.11.7-.15a.47.47,0,0,1,.55.37l.11.22c.08.37-.26.71-.07,1.07a2.62,2.62,0,0,1,0,.56,17.27,17.27,0,0,1-.44,2.62c-.15.89-.15,1.48-.3,2.36a6.8,6.8,0,0,0-.18.85c-.08.56-.15,1.11-.22,1.7a4.17,4.17,0,0,0-.08.7c0,.3-.37,2,.7,1.52a6.5,6.5,0,0,0,1.3-1.15,20.16,20.16,0,0,0,1.32-2.1c.6-1.22,1.45-3.18,2-4.4.11-.18,0-.48.25-.48s.3,0,.48-.07.26,0,.23.22a2.11,2.11,0,0,1-.15.67,26.48,26.48,0,0,0-1.26,2.77c-1,2.21-2.32,5.39-4.76,6.24a2.57,2.57,0,0,1-2.14-.34,1,1,0,0,1-.33-.4,4.33,4.33,0,0,1-.49-2.55c0-.7.12-1.37.19-2.07v-.33C270.91,119.84,270.8,119.91,270.72,120Z"/><path class="n" d="M303.81,125.64a11,11,0,0,0-1,1.7,3.4,3.4,0,0,1-1.07,1.33,6.68,6.68,0,0,1-1.62,1.18c-.08,0-.11,0-.19,0a4.27,4.27,0,0,1-2-.25,3,3,0,0,1-1.14-.74,5.42,5.42,0,0,1-1.08-2.14c0-.19,0-.41-.07-.63-.07-.44-.11-.93-.18-1.41v-.14c0-.74,0-1.52,0-2.26a32.66,32.66,0,0,1,2.47-9.71c.3-.74.55-1.44.85-2.14.18-.52.26-1.07.41-1.63a.52.52,0,0,0-.19,0,.49.49,0,0,0-.22.11c-1.51,1.22-2.73,2.69-4.14,4a9.66,9.66,0,0,0-2,3c-.67,1.14-1.29,2.32-2,3.43a.72.72,0,0,0-.15.22,12.94,12.94,0,0,0-.74,1.55,2.79,2.79,0,0,0-.15.3,6.1,6.1,0,0,0-.4.81,2,2,0,0,0-.08.52,3.58,3.58,0,0,0-.11.48v.37c-.18.11-.44-.08-.66.14a1.61,1.61,0,0,1,.07.37.67.67,0,0,0-.22,0,.37.37,0,0,1-.37-.11,5,5,0,0,0-.48-.3,1.33,1.33,0,0,1-.59-.66,4.87,4.87,0,0,1-.22-1.48,10.6,10.6,0,0,1,.33-2.84,7.59,7.59,0,0,1,.22-.78c.45-1.48.93-2.92,1.3-4.39a2,2,0,0,1,.07-.23,11.12,11.12,0,0,0,.52-2.14c0-.22.14-.4,0-.66,0,0-.11,0-.11.07a2.5,2.5,0,0,0-.26.33.74.74,0,0,1-.37.41c-.62.37-1.07,1.44-1.51,2a18.73,18.73,0,0,0-1.44,2.29c-.41.78-.66,1.67-1.11,2.44a17,17,0,0,0-.81,1.85,2,2,0,0,0-.11.4,2.89,2.89,0,0,1-.44,1.22c-.11.22-.26.44-.37.7a2.28,2.28,0,0,1-.45.63,3.14,3.14,0,0,0-.51.52,3.44,3.44,0,0,1-.67.55.33.33,0,0,1-.44,0,2,2,0,0,1-.26-.11.51.51,0,0,1-.37-.18.48.48,0,0,0-.37-.15h-.07a.85.85,0,0,1-.78-.85v-.89c0-.81,0-1.58,0-2.4,0-.33.07-.7.11-1.07.15-1.29.41-2.51.59-3.8.15-.89.15-1.81.37-2.7s.44-2,.63-3a8.63,8.63,0,0,0,0-.88c0-.15,0-.23.19-.23a.62.62,0,0,1,.33,0c.15,0,.26,0,.41,0a1,1,0,0,1,.66.33.67.67,0,0,0,.34.22.34.34,0,0,1,.18.34v.66a1.19,1.19,0,0,0,.22.7c.41.45.19,1.11.08,1.63a23.65,23.65,0,0,0-.26,2.36c-.08.89-.11,1.81-.15,2.73a2.51,2.51,0,0,1-.07.41,1,1,0,0,0-.08.48c0,.22,0,.41,0,.66.07-.07.11-.07.14-.11.19-.4.37-.81.59-1.18s.41-.74.63-1.07c.44-.7.85-1.36,1.22-2.1.15-.26.3-.52.48-.78s.33-.48.48-.74a1.87,1.87,0,0,1,.26-.33l1-1.11a7.44,7.44,0,0,1,1-.88,3.78,3.78,0,0,0,.63-.41.74.74,0,0,1,.48-.15h.18c.33,0,.67-.11,1,.08a8.68,8.68,0,0,1,.89.48,1.27,1.27,0,0,1,.37.22,3.08,3.08,0,0,0,0,.52c0,.18.11.33.11.51a4,4,0,0,1,0,1.33c0,.52-.11,1-.19,1.48s-.11.74-.18,1.07a.25.25,0,0,1-.08.18,1.2,1.2,0,0,0-.18.52,1.55,1.55,0,0,1-.08.37.56.56,0,0,1,0,.22.16.16,0,0,0,.18-.11c.45-.7.85-1.44,1.29-2.14a1.25,1.25,0,0,1,.19-.3c.55-.62,1-1.33,1.48-2,.11-.07.14-.22.22-.33a8.39,8.39,0,0,1,1.33-1.7c.44-.41.85-.85,1.29-1.26a4.26,4.26,0,0,1,1.26-.92c.18-.07.33-.19.48-.26a.61.61,0,0,1,.51-.11l1.26.11a2,2,0,0,1,.63.19c.25.07.51.25.81.33a.57.57,0,0,1,.29.22,1.21,1.21,0,0,1,.3,1,1.25,1.25,0,0,0,0,.81c0,.08,0,.15,0,.22a.61.61,0,0,0,0,.26,1.18,1.18,0,0,1-.11.81,11.64,11.64,0,0,0-.22,1.15,8.53,8.53,0,0,1-.44,1.22c-.41.92-.93,1.77-1.26,2.69a19.9,19.9,0,0,0-.7,3,38.64,38.64,0,0,0-1,5.69,5,5,0,0,1,0,1.1,2.43,2.43,0,0,0,.81,2.7.3.3,0,0,0,.34,0,1.82,1.82,0,0,0,.29-.22,5.68,5.68,0,0,0,.82-1c.11-.18.22-.37.33-.52.85-1.21,1.33-2.62,2.14-3.84,1-1.51,1.62-3.21,2.51-4.76.37-.63.78-1.22,1.14-1.85a.73.73,0,0,0,.19-.29,1.28,1.28,0,0,1,.52-.56,1.42,1.42,0,0,0,.4.08c.15,0,.26,0,.41.07a2.59,2.59,0,0,1-.33.85,2.56,2.56,0,0,0-.34.59c-.18.37-.51.7-.7,1a27,27,0,0,1-1.33,2.63,21.42,21.42,0,0,1-.92,2.21,7.12,7.12,0,0,0-.7,1.74A3.5,3.5,0,0,1,303.81,125.64Z"/><path class="n" d="M311.42,120a2.68,2.68,0,0,1-1.62.81c-.45,0-.85.22-1.3.26a2.23,2.23,0,0,1-2.14-.92,2.11,2.11,0,0,1-.37-.82,5,5,0,0,1-.07-2.47c.07-.37.11-.74.18-1.11l.33-1.11c.15-.44.34-.88.45-1.33a6.65,6.65,0,0,1,1.29-2.4,5,5,0,0,0,.59-.7,2.3,2.3,0,0,1,1.18-.77l.89-.34a14.62,14.62,0,0,1,1.59-.26,1.23,1.23,0,0,0,.33,0,2.45,2.45,0,0,1,1.29,0,1.31,1.31,0,0,1,.85.59,4.14,4.14,0,0,1,.44.7.79.79,0,0,1-.14,1.07.53.53,0,0,1-.37.11c-.11,0-.19,0-.22-.18a3,3,0,0,0-.89-1.41l-.11-.11a2.17,2.17,0,0,0-1.26-.07,2.41,2.41,0,0,0-1.7,1,25.17,25.17,0,0,0-1.21,3c-.19.48-.34,1-.52,1.48a6.43,6.43,0,0,0-.41,3.51,1.45,1.45,0,0,0,1.78,1c.84-.37,1.58-1.74,2-2.51a7,7,0,0,0,.22-.85,5.79,5.79,0,0,1,.22-.89c.11-.44.29-.89.44-1.33s.34-.92.45-1.4.29-.59.62-.63.48-.11.71-.15a.48.48,0,0,1,.55.37c0,.08.07.15.11.22.07.37-.26.71-.07,1.07a3.49,3.49,0,0,1,0,.56,16.14,16.14,0,0,1-.45,2.62c-.14.89-.14,1.48-.29,2.36a6.87,6.87,0,0,0-.19.85c-.07.56-.14,1.11-.22,1.7a4.15,4.15,0,0,0-.07.7c0,.3-.37,2,.7,1.52a6.44,6.44,0,0,0,1.29-1.15,18.68,18.68,0,0,0,1.33-2.1c.59-1.22,1.44-3.18,2-4.4.11-.18,0-.48.26-.48s.3,0,.48-.07.26,0,.22.22a1.68,1.68,0,0,1-.15.67,26.4,26.4,0,0,0-1.25,2.77c-1,2.21-2.33,5.39-4.76,6.24a2.58,2.58,0,0,1-2.15-.34,1.26,1.26,0,0,1-.33-.4,4.32,4.32,0,0,1-.48-2.55c0-.7.11-1.37.19-2.07v-.33C311.6,119.84,311.49,119.91,311.42,120Z"/><path class="n" d="M331.62,119.91a42.42,42.42,0,0,0-.52,5.25,4.41,4.41,0,0,0,0,1,.7.7,0,0,1-.08.26c0,.14,0,.18.15.37a1.14,1.14,0,0,1,.11-.11c.07-.08.11-.15.19-.23.44-.7.92-1.36,1.29-2.06.55-1,1-1.93,1.51-2.88a11.89,11.89,0,0,1,.74-1.19,13.26,13.26,0,0,0,.78-1.33c.22-.37.4-.77.62-1.14s.3-.48.45-.74.26-.44.37-.66.22-.45.33-.63a.34.34,0,0,1,.48-.08,3.11,3.11,0,0,1-.22.45,1.69,1.69,0,0,0-.19.74v.18a2.51,2.51,0,0,1-.26.89,6.42,6.42,0,0,1-.51,1.29,10.92,10.92,0,0,1-.59,1.07c-.59,1-1,2-1.59,3a20.37,20.37,0,0,1-1.92,3.36,4.08,4.08,0,0,1-3.55,1.62,1.34,1.34,0,0,1-.92-.81,4,4,0,0,1-.3-.92,14.75,14.75,0,0,1-.22-2.48v-1a25.75,25.75,0,0,1,.56-4.1c.11-.55.18-1.1.29-1.66s.22-1.44.33-2.14.23-1.11.3-1.66a11.88,11.88,0,0,0,.22-2v-.18a1.72,1.72,0,0,0-.48.26.38.38,0,0,0-.15.18,2.4,2.4,0,0,0-.22.37,2,2,0,0,1-.18.26c-.56.33-.85,1.11-1.18,1.66s-1,1.33-1.44,2a14,14,0,0,0-1.11,2c-.3.63-.7,1.25-.93,1.88,0,0,0,0,0,0a2.58,2.58,0,0,0-.37.92,2,2,0,0,1-.26.63c-.11.22-.26.41-.15.66a.51.51,0,0,1-.07.23c-.11.25-.26.51-.41.81s-.15.18-.33.15a.37.37,0,0,0-.44.07s-.11.11-.15.11a1.22,1.22,0,0,0-.74.22,1.42,1.42,0,0,1-1.11,0c-.18,0-.26-.18-.33-.37s0-.29-.07-.44a9.63,9.63,0,0,1-.08-1.07,1.54,1.54,0,0,0,0-.37,1.22,1.22,0,0,0,0-.33,14.94,14.94,0,0,1-.08-1.89.93.93,0,0,0,0-.33c0-.4,0-.85,0-1.29v-.89c0-.62,0-1.22,0-1.84a3.28,3.28,0,0,0,0-.63v-.26c.08-1,.15-2,.23-3.07,0-.59.11-1.21.18-1.8a7.31,7.31,0,0,1,.18-.78.44.44,0,0,1,.37-.33,2,2,0,0,1,1.33.18.09.09,0,0,1,.08.08,1.37,1.37,0,0,0,.44.36c0,.15.11.34.15.49s0,.07.07.07a.87.87,0,0,1,.52.77,4.2,4.2,0,0,0,.07,1.37,2.39,2.39,0,0,1,.22,1.15c0,.51-.07,1-.14,1.47a8.53,8.53,0,0,0-.15,1.74c0,.22.11.44.11.66a6.79,6.79,0,0,0,0,.78,4.18,4.18,0,0,1,0,1,6.12,6.12,0,0,0,0,.85c.15,0,.15-.12.18-.19.3-.55.56-1.11.85-1.66.08-.19.19-.33.26-.52a4.88,4.88,0,0,0,.22-.51c.11-.26.23-.56.37-.82a2.53,2.53,0,0,0,.26-.44l1.22-2.22c.22-.37.44-.77.7-1.14s.52-.78.78-1.15a6.22,6.22,0,0,1,.81-.88,2.62,2.62,0,0,1,1.92-.63h.89a1,1,0,0,1,.77.26c.22.26.48.48.7.7s.22.3.19.44a1.16,1.16,0,0,0,.11.63,7.14,7.14,0,0,1,.15,2.81,9.3,9.3,0,0,1-.19,1C332.43,116.55,332,118.21,331.62,119.91Z"/><path class="n" d="M272.42,145.14a.53.53,0,0,1-.18-.21l-.24-.5a8.58,8.58,0,0,0,.7-2.72,5.56,5.56,0,0,0-.14-1.87c-.32-1.35-2.05-.57-2.72,0a6.15,6.15,0,0,0-1.13,1.7,37.67,37.67,0,0,0-1.84,3.78c-.39,1-.74,1.91-1.17,2.87a24.82,24.82,0,0,0-.95,2.75c-.5,2-1.17,3.89-1.49,5.95-.1.74-.21,1.55-.28,2.29-.07,1.1.11,2.13.07,3.19a1.76,1.76,0,0,0,1.41,1.8,5.56,5.56,0,0,0,3.22-.39,10.39,10.39,0,0,0,2.34-1.7,31.46,31.46,0,0,0,3-3.07,15,15,0,0,0,2.4-3.11c.64-1.1,1.27-2.16,2-3.26a.51.51,0,0,1,.21-.28,3.57,3.57,0,0,1,1.27-.39,1.44,1.44,0,0,0,0,.32c0,.07-.15.18-.11.25.11.42-.18.74-.35,1.06a11.17,11.17,0,0,1-.64,1c-1,1.45-1.73,3.14-2.86,4.49a27.5,27.5,0,0,1-9.94,7.71,5.45,5.45,0,0,1-3,.31,3.08,3.08,0,0,1-1.41-.7,4.81,4.81,0,0,1-1.73-3.22c-.64-3.93.24-7.81,1.16-11.63.36-1.49.71-2.9,1.21-4.35.95-2.76,2-5.34,4.17-7.36a8.07,8.07,0,0,1,3.36-1.84,10.6,10.6,0,0,1,4.06-.56A1.87,1.87,0,0,1,274.4,139a4.71,4.71,0,0,1,.14,1,9.59,9.59,0,0,1,.07,1.06,5.13,5.13,0,0,1-.14,1,6.18,6.18,0,0,1-.67,2.05c-.07.11-.14.25-.21.36-.18.28-.36.53-.6.85Z"/><path class="n" d="M281.75,147.79a.78.78,0,0,0-.17.21.86.86,0,0,1-.32.43,1.93,1.93,0,0,1-.36.56,4,4,0,0,0-.35,1c-.18.74-.35,1.52-.6,2.26-.18.5-.28,1-.43,1.52s-.38,1-.49,1.45a.71.71,0,0,1-.07.18,1.89,1.89,0,0,0-.28,1.31c0,.49.07,1,.14,1.48a.55.55,0,0,0,.24.43c.15.14.32.28.46.42a.52.52,0,0,0,.53.11,4.89,4.89,0,0,0,1.7-.78c.25-.18.57-.35.82-.57a2.16,2.16,0,0,0,.42-.38,5.06,5.06,0,0,0,.74-.92s0,0,0-.07a1.55,1.55,0,0,1,.32-.61c0-.07,0-.14.07-.24a7.5,7.5,0,0,1-2.2-1.81,8.6,8.6,0,0,1-.49-.74,3.79,3.79,0,0,1-.28-2.72,7.31,7.31,0,0,1,.6-1.56.15.15,0,0,1,0-.07c.29-.1.43-.42.75-.46a1.54,1.54,0,0,0,.42-.07,2.08,2.08,0,0,1,1.27.39,2.93,2.93,0,0,1,1.42,1.1,2.75,2.75,0,0,1,.39,1.37c0,.22.07.39.1.57a4.29,4.29,0,0,1,.07,1.38c0,.35-.28.64-.32,1s-.07.46-.14.75c.11,0,.18.07.25.07a6.53,6.53,0,0,0,.71-.07,7.31,7.31,0,0,0,3.78-2.05,1.3,1.3,0,0,0,.18-.25c.07-.07.1-.18.18-.21a.46.46,0,0,1,.38,0,.92.92,0,0,1,.43.28,6.25,6.25,0,0,1-2.19,2.09c-.64.21-1.21.63-1.84.88a3,3,0,0,1-1.66.28,1.92,1.92,0,0,0-.75.07.6.6,0,0,0-.35.39,8,8,0,0,0-.46,1c-.21.49-.74.78-1,1.2a3.21,3.21,0,0,1-.74.81c-.32.22-.56.5-.88.71a2.35,2.35,0,0,1-1.35.53,3.91,3.91,0,0,1-1.52-.6,6.35,6.35,0,0,1-2.44-2.3,4.59,4.59,0,0,1-.39-1.66,12.2,12.2,0,0,1-.07-1.91,10.54,10.54,0,0,1,.39-1.77,19.61,19.61,0,0,1,1-2.44,2,2,0,0,1,.46-.67c.21-.25.46-.53.67-.81a3.66,3.66,0,0,1,.74-.57c.39-.28.78-.49,1.2-.78a.69.69,0,0,1,.54-.1,2.08,2.08,0,0,1,1,.35A.8.8,0,0,1,281.75,147.79Zm3,6.05a.39.39,0,0,1,0-.21,1.89,1.89,0,0,0,.28-1.31,4.09,4.09,0,0,0-.28-1.73,2.84,2.84,0,0,1-.46-.92v0c-.07,0-.11-.1-.18-.1a.18.18,0,0,0-.18.14,1.42,1.42,0,0,1-.14.35,5.21,5.21,0,0,0-.35,1.17.58.58,0,0,1-.07.21,1.79,1.79,0,0,0-.11,1.34,3.74,3.74,0,0,0,.64,1.24c.18.18.32.39.57.42C284.62,154.23,284.76,154.09,284.72,153.84Z"/><path class="n" d="M294.44,147.79a.78.78,0,0,0-.17.21.76.76,0,0,1-.32.43,2.15,2.15,0,0,1-.35.56,3.67,3.67,0,0,0-.36,1c-.17.74-.35,1.52-.6,2.26-.18.5-.28,1-.42,1.52s-.39,1-.5,1.45a.46.46,0,0,1-.07.18,1.89,1.89,0,0,0-.28,1.31c0,.49.07,1,.14,1.48a.56.56,0,0,0,.25.43c.14.14.32.28.46.42a.51.51,0,0,0,.53.11,4.92,4.92,0,0,0,1.69-.78c.25-.18.57-.35.82-.57a2.16,2.16,0,0,0,.42-.38,4.67,4.67,0,0,0,.74-.92s0,0,0-.07a1.69,1.69,0,0,1,.32-.61c0-.07,0-.14.07-.24a7.31,7.31,0,0,1-.64-.39,5.84,5.84,0,0,1-1.55-1.42,6.87,6.87,0,0,1-.5-.74,3.84,3.84,0,0,1-.28-2.72,7.31,7.31,0,0,1,.6-1.56s0-.07,0-.07c.28-.1.42-.42.74-.46a1.54,1.54,0,0,0,.42-.07,2.12,2.12,0,0,1,1.28.39,2.86,2.86,0,0,1,1.41,1.1,2.65,2.65,0,0,1,.39,1.37c0,.22.07.39.1.57a4.6,4.6,0,0,1,.08,1.38c0,.35-.29.64-.32,1s-.07.46-.14.75c.1,0,.17.07.24.07a6.3,6.3,0,0,0,.71-.07,7.27,7.27,0,0,0,3.78-2.05,1,1,0,0,0,.18-.25c.07-.07.11-.18.18-.21a.48.48,0,0,1,.39,0,.89.89,0,0,1,.42.28,6.25,6.25,0,0,1-2.19,2.09c-.64.21-1.2.63-1.84.88a3,3,0,0,1-1.66.28,1.85,1.85,0,0,0-.74.07.59.59,0,0,0-.36.39,8,8,0,0,0-.46,1c-.21.49-.74.78-1,1.2a3.24,3.24,0,0,1-.75.81c-.31.22-.56.5-.88.71a2.29,2.29,0,0,1-1.34.53,3.91,3.91,0,0,1-1.52-.6,6.28,6.28,0,0,1-2.44-2.3,4.21,4.21,0,0,1-.39-1.66,11.1,11.1,0,0,1-.07-1.91,9.64,9.64,0,0,1,.39-1.77,18.17,18.17,0,0,1,1-2.44,2.11,2.11,0,0,1,.46-.67c.21-.25.46-.53.67-.81a4,4,0,0,1,.74-.57c.39-.28.78-.49,1.21-.78a.67.67,0,0,1,.53-.1,2.08,2.08,0,0,1,1,.35A.8.8,0,0,1,294.44,147.79Zm3,6.05a.39.39,0,0,1,0-.21,1.89,1.89,0,0,0,.28-1.31,4.09,4.09,0,0,0-.28-1.73,2.84,2.84,0,0,1-.46-.92v0c-.07,0-.11-.1-.18-.1a.17.17,0,0,0-.17.14,2,2,0,0,1-.14.35,4.77,4.77,0,0,0-.36,1.17.44.44,0,0,1-.07.21,1.74,1.74,0,0,0-.1,1.34,3.72,3.72,0,0,0,.63,1.24c.18.18.32.39.57.42C297.31,154.23,297.45,154.09,297.41,153.84Z"/><path class="n" d="M314,153.61a4,4,0,0,1-.57,1.56c-.42.83-.81,1.69-1.24,2.52s-.88,1.33-1.27,2A28.8,28.8,0,0,1,309,163a5.52,5.52,0,0,1-.46.69,10.87,10.87,0,0,1-1,1,4.28,4.28,0,0,1-2.08.9,1.27,1.27,0,0,1-.68-.13,3.69,3.69,0,0,1-1.8-2.56c-.21-.79-.32-1.59-.46-2.35-.07-.56-.21-1.09-.25-1.62a37.21,37.21,0,0,1,.11-4.84,17.85,17.85,0,0,1,.46-3.85,31.74,31.74,0,0,0,.88-4.07,16.24,16.24,0,0,1,1.21-3.81c.42-1.16.84-2.32,1.37-3.49a6.27,6.27,0,0,1,1.88-2.55,7.92,7.92,0,0,1,4.21-1.55,4.16,4.16,0,0,1,.67.06,1.18,1.18,0,0,1,1.06.4.75.75,0,0,0,.25.13.63.63,0,0,1,.17.1c.07.37.43.56.5,1s.28.7.35,1.06a6.73,6.73,0,0,1-.49,3.62,17.63,17.63,0,0,1-1.45,3.28c-.21.39-.36.86-.57,1.26s-.6.89-.88,1.36c-.39.63-.85,1.25-1.31,1.85a7.36,7.36,0,0,1-1.59,1.66c-.32.26-.6.56-.92.83s-.78.66-1.2,1l-.78.5a.46.46,0,0,0-.28.46c-.07.76-.18,1.49-.25,2.25a7.6,7.6,0,0,0-.11,2,33.17,33.17,0,0,1,.25,4.24,3.88,3.88,0,0,0,.21.63,2.86,2.86,0,0,0,1.13,1.16.5.5,0,0,0,.36,0,3.38,3.38,0,0,0,.7-.66c.36-.53.64-1.07,1-1.63,1.31-2.32,2.55-4.71,3.75-7.09l.32-.76c.14-.34.49-.47.74-.67a.11.11,0,0,1,.1,0A7.19,7.19,0,0,1,314,153.61ZM306.11,152c.21-.17.46-.3.71-.47a13.13,13.13,0,0,0,2.48-2.28,20.47,20.47,0,0,0,1.94-2.82c.32-.6.67-1.19.95-1.82s.57-1.46.82-2.19c.14-.37.28-.76.39-1.13s.14-.83.21-1.22a4.37,4.37,0,0,0,0-1.53,7.13,7.13,0,0,0-.28-1,.92.92,0,0,0-.35-.66.49.49,0,0,1-.14-.3.77.77,0,0,0-.36-.43l-.46-.2a.55.55,0,0,0-.7.13,2,2,0,0,0-.29.3c-.32.46-.63.89-.92,1.39a19.18,19.18,0,0,0-1.94,4.54c-.32,1-.67,2-.89,3s-.31,2-.45,3c-.11.43-.15.89-.25,1.32s-.29.73-.39,1.1a11,11,0,0,0-.21,1.12A.11.11,0,0,1,306.11,152Z"/><path class="e" d="M337.16,268.8c7.63-11.22,12.81-27.31,16.11-40.26,3.45-13.55,4.74-28.88.38-42.39-3.36,12.41-10,25.21-14.41,37.79-5.44,15.55-5.46,30.49-6.94,46.57-10.09-1.54-9.67-27.34-11.18-34.66-3.32-16-12.91-32.71-28.37-39.66,8.87,5.72,10.08,16.82,13,26,4,12.79,14.79,25.62,16.47,38.79-19-17.67-39.36-41.77-68.1-41.59,10.43,4.16,17.85,12.19,26.21,19.19,12.59,10.53,33.05,13.37,38.95,30.71-4,0-7.71-2.83-11.11-4.8-8.8-5.09-16.86-10.39-26.75-13.29-14.15-4.13-30.24-4-43.46-10.75,7.29,15.14,33.56,21.63,48.44,24.41,9.07,1.7,16.94,2.77,25.22,7.18C320.11,276.61,329.39,277.76,337.16,268.8Z"/><path class="f" d="M268.27,21.35c2.18,14-7.6,30.64-14.06,44.57,2-15.15,1.51-35.16-4.42-49.07-4.54-10.64-4.88-13.11-16.11-13.54,2.81,5.09,2.21,10.7,2.81,15.55.78,6.36-5.26,21.09-7.56,27C224.13,58,221.15,62.3,216.16,74.1c-3.45-15.54,3.36-27,6.19-41.53,1.27-6.51,3.11-23.1-1.53-28.66C217.9,23.76,200.9,39.61,189,54.52c-1-9.85,7-22.46,10.79-31.45C203.4,14.51,206.53-1,216.31-4.71c16.6-6.23,48.92,8,52,26.06"/></g></svg>