<svg xmlns="http://www.w3.org/2000/svg" xmlns:xlink="http://www.w3.org/1999/xlink" viewBox="0 0 567 269"><defs><style>.a{fill:none;}.b{clip-path:url(#a);}.c{fill:#527466;}.d{fill:#d5ecf5;}.e{fill:#e2982b;}.f{fill:#f2dfe0;}.g{fill:#d7e0d7;}.h{fill:#cad8ca;}.i,.m{fill:#fff;}.j{fill:#e3eae3;}.k{fill:#3c3c3b;}.l{fill:#4d4d4d;}.m{stroke:#1d1e1b;stroke-linecap:round;stroke-linejoin:round;stroke-width:0.24px;}.n{fill:#a37686;}</style><clipPath id="a"><rect class="a" x="1.5" y="11.5" width="564" height="246" transform="translate(567 269) rotate(-180)"/></clipPath></defs><title>good-vibes</title><g class="b"><path class="c" d="M180,197.06c-5.48-4.31-9.55-11.53-13.16-17.18a99.05,99.05,0,0,1-11.6-24.38A70.55,70.55,0,0,1,152.43,137c0-2.17-.08-4.88,1.3-6.67,2.69,1.27,4.76,4.07,6.8,6.07,4.3,4.24,8.83,8.7,12.06,13.7,7.06,10.93,8.42,23.28,12.72,35-1.18-3.07-1.68-6.77-2.63-10-2.3-7.84-4.75-15.55-5.92-23.59-1.26-8.59-1.64-19.85,4.72-26.78,2.19.88,3.34,3.74,4.18,5.64a84.58,84.58,0,0,1,4.68,15.74,48.49,48.49,0,0,1,1,19c-.75,4.73-2.3,9.42-1.94,14.28,2.3-11.42,5.31-23.13,11-33.44a89.21,89.21,0,0,1,14.15-18.36c1.93-2,5.49-6.67,8.58-6.88-1.21,9.94.31,19.43-5.9,28.28-7.44,10.6-13.91,21.83-21.23,32.45,3.6-1.2,6.56-7,9-9.63,6.56-7.28,13.24-12.73,22.59-16.84,5.6-2.47,10.93-4.44,15.45-8.42,1.32-1.17.75,8.94-5.48,15.5-4.93,5.2-8.28,10.74-14.73,14.14-4.71,2.47-12,5.06-15.51,9,9.55-1.1,11.79-2.67,20.42-6.06,5.44-2.15,14.32-7.17,16.37-5.94,2.88,1.72-10,16-15.47,19.94C214.45,203.42,192.51,207.26,180,197.06Z"/><path class="c" d="M271.74,78.38c2.81,8.82,12.05,13.82,19.53,20.06,6.72,5.61,7.82,17.86,13.73,17.93,0,.06,4.89,10.94,5.95,2.85,14.18,15.21,47.23,2.67,65.76-2.09,7.55-1.95,25.1-9.71,21.11-18.8-11.56,2.46-26.67,11.85-40,7-7.71-2.79-4.89-6.1,1.83-7.28,9.5-1.67,20,.53,29.16-2.72,8.61-3,19-20,12.08-27.6-4.87-5.37-13,4.49-17.84,6.66-6.57,3-23.05,8-30.14,2,10.33-16.17,58.44-8.82,43.55-36.72-6.48,3.64-11.18,8.61-19.08,11.09-5,1.57-16.07,4.32-21.23,1.2-6-3.6-1.36-6.2,3.28-8.77a46.78,46.78,0,0,1,11.35-4.58c4.13-1,9.77-.08,13.57-1.29,16.54-5.27-2.18-29.92-7.53-39.3C367.42,5.66,350.15.84,339.7,7.92c-9,6.09-.46,14.43,1.48,22.15,2.42,9.64-2.8,9.64-8.84,2.19a47.29,47.29,0,0,1-7.66-12.67c-.53-1.37-.83-5.67-2.12-6.51-2.87-1.88-9.85,1.73-11.89,3.55C295.41,30.27,337,44.65,331.89,58c-13,2.39-22.39-10.91-28.3-17.9A38.65,38.65,0,0,1,294.86,19c-9.59,5.46-14.64,13.84-8.95,24,6.59,11.73,28.69,15.87,31.65,28.78,3.57,15.62-21.91-3.88-27.2-7.72-5.73-4.17-12.56-8.12-14.7-14.44-1.16-3.41-.26-6.94-.76-10.32C261.69,38.42,269.68,71.93,271.74,78.38Zm71.88,5.55c3.68-.78,12.78-2.57,13.27,2.84.27,2.93-1.46,4.55-4,5.46-2.08.75-4.36.72-6.51,1.08-1.16.19-3,1.09-4.16.84C337.12,93.05,338.64,84.57,343.62,83.93ZM311.91,86.1c1.49-.68,3.31-1.13,6.43.65-.27-.82-.54.71,0,0a7.68,7.68,0,0,1,1.25,12.74c-3.85,3.21-7.63-3.58-9.76-6.52C308,90.46,308.65,87.6,311.91,86.1Z"/><path class="d" d="M192.65-8.56C189.81,2,186.5,12.06,178,19.48,167,29,153.78,31.61,140.16,26.58c-6.84-2.54-13.3-6.12-20.29-8.21-21.44-6.4-47.79,2.4-65.81,14.2C45.15,38.4,37,45.74,26.63,49S4.37,53.42-6,50.21c-5-1.56-1.27,7.36-6.54,6.86-3.65-.35-3.85-.9-4-4.48-.11-3.41-.11-6.82.06-10.23.67-13.4,4-26.71,11.48-38C4.47-9.9,21.45-16,37.23-20.53c21.59-6.23,46.1-9.29,68.49-9.22,10.66,0,21.21,0,31.72,2.08,7.43,1.47,14.46,4,21.71,6.06,10,2.9,20.08,5.27,28.92,10.88C189.44-9.87,191.81-8.5,192.65-8.56Z"/><path class="e" d="M307.1,144.28c1-1,5.45-2.82,4.52-4.32-.67-1.07-4.47.14-5.67.7-2.48,1.17-.9,1.59-2.14,3.15,1.26.62,3.05.15,4.47-.3"/><path class="e" d="M314.26,131.94a2.5,2.5,0,0,1,.67-.31,18.69,18.69,0,0,0,4.39-2.23c1.39-1.12.05-1.18-1.28-1.09.84-.84,0-1.21-1-1.07a6.6,6.6,0,0,0-3.65,1.75C311.74,130.66,312.55,132.37,314.26,131.94Z"/><path class="e" d="M295.92,136.89a12.22,12.22,0,0,0,3.82-1.33c1.3-.83.06-.62-.59-.92.29-.7,2.08-1.64.7-2-.93-.24-2.66.47-3.61.77a3.88,3.88,0,0,0-2.1,1.1c-.35.46-.42,1,.41.88-.51.28-.87.62-.66,1,.42.8,2.26.33,3.16.15"/><path class="e" d="M303.31,119.51a10.92,10.92,0,0,0,4.55-2c1.43-1.15.94-1.52-.58-1.61,2.94-2.83-5.25-.22-4.28.44-.58.66-1.78,1.2-1.66,2.09A1.51,1.51,0,0,0,303.31,119.51Z"/><path class="e" d="M284.89,130a8.18,8.18,0,0,0,4-2.37c.81-1-.32-.49-.7-1-.11-.15.16-.48.07-.67s-.54-.38-1-.39a6.69,6.69,0,0,0-2.47.73c-1.39.62-1.69,1-1.76,2.08C283,129.71,283.79,130.35,284.89,130Z"/><path class="e" d="M327.59,134.13a8.34,8.34,0,0,0,4-2.38c.8-1-.33-.49-.71-1-.1-.14.17-.48.07-.67s-.54-.38-1-.39a6.88,6.88,0,0,0-2.48.73c-1.39.62-1.69,1-1.76,2.08C325.69,133.81,326.5,134.46,327.59,134.13Z"/><path class="e" d="M320.76,118.19a8.3,8.3,0,0,0,4-2.37c.81-1-.32-.49-.7-1-.11-.15.16-.48.07-.67s-.54-.38-1-.39a6.69,6.69,0,0,0-2.47.73c-1.39.62-1.69,1-1.76,2.08C318.86,117.88,319.66,118.52,320.76,118.19Z"/><path class="e" d="M279.44,142.52c1.16-.47,2.35-.85,3.48-1.42,1.35-.69,1.08-.88.38-1.5.89-.86.84-1.34-.16-1.73a6.65,6.65,0,0,0-4.22.43c-.6.22-3.1,1.95-1.91,2.23a.91.91,0,0,0-.24,1.26c.61,1,2.74.89,4,.13"/><path class="e" d="M293.57,147.52c1.39-.42,3.74-2,1.13-1.72,1.36-1-2.39-.54-2.79-.39-1.28.48-2.58,1.5-.9,1.88C290,148.66,293.94,147.39,293.57,147.52Z"/><path class="e" d="M336.92,122.51c1.4-.42,3.74-2,1.14-1.72,1.36-1-2.39-.55-2.79-.4-1.29.49-2.58,1.51-.91,1.89C333.33,123.65,337.3,122.38,336.92,122.51Z"/><path class="e" d="M416.47,127.09c.77-1.22,4.7-4,3.45-5.22-.89-.89-4.33,1.13-5.37,1.95-1.48,1.17-1.17,1.55-1.12,2.27a1.32,1.32,0,0,0,1.71,1.11,12.66,12.66,0,0,0,2.31-1.12"/><path class="e" d="M404.62,124.59a12.12,12.12,0,0,0,3.42-2.13c1.09-1.11-.07-.63-.78-.77.12-.75,1.66-2.07.25-2.1-1,0-2.49,1-3.36,1.56a3.87,3.87,0,0,0-1.8,1.54c-.24.52-.2,1,.6.76-.44.39-.72.8-.42,1.15.59.69,2.28-.18,3.11-.56"/><path class="e" d="M389.13,135.41c1-.71,2.11-1.35,3.08-2.16,1.16-1,.86-1.09,0-1.54.68-1,.53-1.49-.53-1.65a6.6,6.6,0,0,0-4,1.36c-.54.34-2.59,2.59-1.37,2.6a.91.91,0,0,0,0,1.28c.82.84,2.88.26,3.94-.76"/><path class="e" d="M404.49,134.37c1.26-.72,3.2-2.75.72-1.93,1.11-1.27-2.45,0-2.8.24-1.15.76-2.19,2-.47,2C401.24,136.28,404.83,134.16,404.49,134.37Z"/><path class="f" d="M475.71,42.29c-3.16-.66-6.51.44-9.6,1.12-12.06,2.69-25.62,3.21-37.18,7.49-14.7,5.43-30.12,14.22-39.13,27.25,29.77,5,60.44-9.5,85.31-24.32-13.29,10.73-27.69,20.83-38.4,34.61-12.67,16.28-19.88,33-26.49,52.25,17.21-7.3,32-16.75,45-30.76,11.26-12.13,20.25-26.24,28.46-40.5-.57,4.32-4.82,9.28-6.45,13.68-3.64,9.83-6.27,22-5.71,32.48.61,11.65,3.55,22.32,6.79,33.42,1.59,5.45,2.82,11.7,6.3,16.31,2-7.79,9.74-15.35,13.81-22.21,7.7-13,14.38-28.16,15.05-43.53a69.3,69.3,0,0,0-11.22-39.89C498.72,54.51,494.4,49.3,489,46,484.19,42.93,479.58,43.34,475.71,42.29Z"/><path class="g" d="M591.31-1C556.62.72,522.2-1.58,487.54-1.39c-13.65.08-27.4.2-41-.44-4.91-.23-5.44-1.19-5,4.44,1,14.14,14.73,24.64,25.89,32.8,8.95,6.54,18.4,12.21,25,21,5,6.68,6.47,14.15,9.69,21.48C513.29,103.46,551.43,94.6,572,85a198.4,198.4,0,0,0,19.22-10.62c2.42-1.47,1.54-9.06,1.84-12.53.71-8.28.9-16.48.91-24.83C593.94,22.75,592.89,13,591.31-1Z"/><path class="f" d="M290.24,289.69c10.43-14.13,24.52-38.61,14.62-56.84-17.26-31.77-54.2-24.91-79.59-26.58-21.48-1.41-24.59-6-34.67-25.34-3.81-7.32-8.49-14.19-18-15.85-6-1.05-12.47-2-17.71-5.49-7.17-4.74-7-14.2-12.16-21-11.1-14.63-38.35-13.07-53.86-14.07-34.58-2.23-79.15-7.2-104.93,29.56-25,35.63-24.38,88.34,12,110.64,17,10.43,42.19,8.92,61,11.27,21.13,2.64,41.68,9.43,62.79,12.75,34.27,5.39,69,6.46,103.67,6.11C246.64,294.66,268.11,286.56,290.24,289.69Z"/><path class="h" d="M79,253c1.91-14,12.12-24.3,24.52-30.18,10-4.74,28.69-5.14,34.3-16.1,6.45-12.62-2.18-25.43-11.43-33.38-11-9.43-21.35-17.82-31.37-28.21-18-18.63-45.67-15.34-69.18-10.5-19.54,4-29.34,12.52-44.39,25.81-10.18,9-19.06,14.7-24.59,27.3-5.8,13.19-6.08,26.72-1.9,40.59,11.9,39.48,69.94,51,105.34,43.15C69.48,269.43,81,261.42,79,253Z"/><path class="d" d="M554.41,187.62C531.3,206.28,505.5,222.35,474,215.9c-21-4.29-40.49-2.82-58.55,11.32.71.54,1.34.72,2.06,1.34-4.76,5.41-12,6.31-17.45,10.31-4.23,3.09-7.91,7.45-12.14,10.49-9.3,6.68-21.77,13.59-29.22,23.22,41.17,4.06,81.49,12.08,122.38,18.38,39.34,6.07,97.83-9.32,102-63.84C585.21,199,574.52,182,554.41,187.62Z"/><path class="i" d="M49,280.14a8.55,8.55,0,0,1-.61.74,92.08,92.08,0,0,0,6.32-12.79c2.32-5.39,5.2-10.31,7.8-15.54A197.54,197.54,0,0,1,77.65,227a219,219,0,0,1,19.57-24.19c3.07-3.27,12.27-7.67,12.72-12.06.78-7.51-7.65.22-9.72,1.89a77.86,77.86,0,0,0-14.37,15.48c-8.62,12-16.66,24.35-24.81,36.66-5.3,8-8.6,17.44-12.32,26.21-1.11,2.61-3.71,6.91-3.75,9.7C46.31,280.72,48,280.82,49,280.14Z"/><path class="i" d="M103.87,195.05c.45-1.37,1.5-1.17,2.93-1.65,3.73-1.24,7.66-1.94,11.47-2.9,6.34-1.61,11.9-5.32,16.7-9.57,2.07-1.83,18.61-16.83,9.48-17.89-4.06-.47-8.92,3-12.47,4.43-6.17,2.56-11.41,4.76-16.62,9.06-6.7,5.53-14.29,12.08-17.59,20.17C100.33,196.83,104.73,194.84,103.87,195.05Z"/><path class="i" d="M99.2,194.49c.21-4,4.22-9.69,5.35-14a71.1,71.1,0,0,0,2.83-19.68,66.72,66.72,0,0,0-3-19.11c-2,1.58-3.56,6.9-4.32,9.32-2.08,6.69-3.18,14.3-4.18,21.2-1,6.65-1.56,14.76,1.1,21.18C97.72,195.21,99.78,197,99.2,194.49Z"/><path class="i" d="M89.28,203.19c1.58-3.77,1.19-8.94,1.18-13A121.15,121.15,0,0,0,88.7,169c-1.29-7.22-2.49-15.66-5.91-22.28-2.57,1.85-2.19,8.43-2.33,11.2a105.68,105.68,0,0,0,1.08,22.82c1.07,6.3,3.16,12.1,5,18.2C86.68,199.56,89.06,209,89.28,203.19Z"/><path class="i" d="M81.4,213.3c.18-.2.13-.35.54-.33.92-13.42-4-28.09-6.52-41.32-.67-3.51-1.52-8.23-3.6-11.25-1.49-2.16-5.52-6.34-7.95-7.17-1.94,2.81-1.36,8.54-1.09,11.71A82.11,82.11,0,0,0,67.88,187C71.69,196.79,75.33,207.64,81.4,213.3Z"/><path class="i" d="M76.15,222.57c.19-2.81-1.3-5.53-2.22-8.11-3-8.51-5.87-17.35-9.79-25.52-2.81-5.86-5.47-12-8.69-17.62-1-1.76-3-5.4-5.22-5.72-4.34,15.59,8.74,30.83,16.32,43.07C69.77,213.87,72.81,221.12,76.15,222.57Z"/><path class="i" d="M68.86,230.15c1.06-1.6-2.31-6.3-3.07-7.85a158.66,158.66,0,0,0-11.64-19.19c-2.27-3.29-5.57-8.81-9.47-10.56-1.32,17.2,12.89,30.86,24.23,42.34C72.41,233.71,69.6,229.79,68.86,230.15Z"/><path class="i" d="M63.31,244.47c-6.09-12.34-12.85-24.9-25.06-32.55,3.21,11.43,8.07,21.74,16.55,30.66,1.27,1.33,5.67,6.77,7.78,6.66C64.51,249.13,64.79,245.86,63.31,244.47Z"/><path class="i" d="M54.56,258.23c.08.45.48.55.23,1.1-5.56-7.23-8.76-22.68-20.9-23.24-.25,5.1,4,12,7.15,15.82s8.66,10.66,14.64,9.93A3.81,3.81,0,0,0,54.56,258.23Z"/><path class="i" d="M104.74,196.17a68.05,68.05,0,0,0,23.71,3.12c4.42-.26,8.82-.6,13.21-1.09,3.12-.35,7.06.15,9.76-1.47-1.57-2.21-7.48-1.64-10-2-7.49-1.1-15-1.9-22.51-3-3.52-.53-11.41-2.34-14.39,1.05C103.49,193.88,103.11,195.59,104.74,196.17Z"/><path class="i" d="M93.37,204.88c.4.36,3.68,1,4.82,1.36,7.14,2.19,14.41,3.12,21.59,5,11,2.83,20.44,2.26,31.09-1.36-1.26-2.43-8.68-2.51-11.27-3.07-8.47-1.84-16.78-3.15-25.35-4.43-5.3-.79-18-3.2-22.38,1.68C92.37,204.71,93.12,205.38,93.37,204.88Z"/><path class="i" d="M84.32,215.27c9.71,3.11,20.72,3.22,30.61,6.48,7.92,2.61,20.75,6.86,28.81,2.5-1.71-1.14-4.31-1.3-6.28-1.92-6.3-2-12.43-4.15-18.8-5.87-7.36-2-15-4.33-22.63-5.21-3.06-.35-10-1.86-12.3.63C82.26,213.51,82.49,215.91,84.32,215.27Z"/><path class="i" d="M78.19,225.66c10.7,2.49,20.48,9.25,31.44,11.64a55.22,55.22,0,0,0,17.45.55c2.67-.27,7.75-.23,9.8-2.07-1.36-2.17-6.85-3-9.16-3.88a107.41,107.41,0,0,0-13.45-4.54c-6.58-1.48-13.18-2.56-19.8-3.84-4.23-.81-9.33-1.83-13.68-1.58C78.66,222.06,74.67,225.29,78.19,225.66Z"/><path class="i" d="M69.15,238c4,.67,7.55,3.55,11.35,5a69.5,69.5,0,0,0,19.62,4.37c7.76.54,20.32,1.9,27.42-1.78-4.29-3.18-12.93-2.84-18.16-4.27-8.7-2.37-17.59-6.51-26.63-7.39C78.21,233.47,70.92,233.09,69.15,238Z"/><path class="i" d="M63.31,251.21c1.61-.88,5.28,2.76,6.81,3.75a27.49,27.49,0,0,0,15.2,5c6.13.27,19.93,2.32,24.67-2.83-2-1.24-4.6-1.52-6.87-2.09-4.7-1.19-9.17-2.9-13.75-4.41-5.11-1.68-10.5-3.45-15.92-3.84C72.19,246.68,60.68,247.31,63.31,251.21Z"/><path class="i" d="M56.31,264.13c7.66.53,15.43,6.68,23.68,7.48,5.05.49,11.38-.55,15.32-3.9-5.14-2.61-12-2.84-17.63-4.44a62.46,62.46,0,0,0-12.78-2.45C60.32,260.5,58,261.39,56.31,264.13Z"/><path class="j" d="M122.47-11.11c3.54.41,6.68,2.72,9.68,4.51,11.72,7,25.75,12.24,36.4,20.74,13.53,10.79,26.66,25.35,31.58,42.15-33-5-60.09-30.92-81-55.09,10.22,15.87,21.82,31.44,28.28,49.61,7.64,21.47,9.39,41.51,9.66,64-15.52-13.63-27.71-28.65-36.5-47.86-7.61-16.62-12.15-34.54-15.82-52.34-.89,4.72,1.84,11.4,2,16.58.41,11.57-1,25.23-5.28,36-4.68,12-11.46,22.19-18.7,32.7-3.56,5.16-7,11.29-12.27,14.92.66-8.85-4.89-19.47-6.78-28.08C60.15,70.46,58.4,52.23,63,35.89A76.52,76.52,0,0,1,88.62-2c5.48-4.23,11.82-8.18,18.6-9.83C113.36-13.38,118.05-11.35,122.47-11.11Z"/><path class="e" d="M-8.49,142.68C-8.92,145.5-1.35,152,.29,154c6.55,8.12,16.41,13.88,26.12,18.68,12.35,6.12,26,9.2,39.08,13.17a94.28,94.28,0,0,0,22.78,4.46c4.21.2,13.45.81,17.31-1.79,4.84-3.27-.82-4.7-4.73-7.26-10.12-6.62-19.28-13.77-30-19.47-15.07-8-32.43-17.21-49.5-19.79,15.6-4.43,32.47-5.12,47.77-11a94.13,94.13,0,0,0,34.39-22.59c3.64-3.8,11-9.4,12.6-14.28-6.93-.23-13.68-1.64-20.69-1.45-13.08.36-25.35,4-37.5,8.57-9.07,3.41-18.75,5.74-27,11-5.36,3.4-10.31,7.69-16.29,10,12.59-11.48,23.56-23,31.92-38C53,72.58,62.07,58.9,63.21,45.33c-8,4-15.87,11.49-22.71,17.31-14,11.93-28.24,26.3-37.08,42.6-5.25,9.68-9,20.89-7.73,32.05.77,6.66,5,9.5,7.15,15"/><path class="c" d="M574.41,242.47c3.42-9.44,2.78-21.79,2.8-31.74,0-13.43-1.32-27.26-4.87-40.25A116,116,0,0,0,561.13,144c-1.67-2.91-3.77-6.54-6.91-8-2.35,3.52-2.71,8.64-3.67,12.69-2,8.55-4.12,17.55-4.19,26.38-.15,19.32,8,36.63,11.87,55.09-1-4.89-3.26-10.14-4.63-15-3.34-12-6.39-23.86-11.3-35.32-5.25-12.25-13.71-27.45-27.14-32.29-2,2.65-1.19,7.23-.74,10.32,1.22,8.25,3.93,16.21,6.64,24.07,3.3,9.58,7.43,17.95,13.85,25.82,4.69,5.76,10.34,10.93,13.74,17.61-11.92-13.56-25-27-40.3-36.8-10-6.34-21-11-32.2-14.7-4-1.32-12.14-5.1-16.17-3.27,9.4,12.36,15,26,29.78,33.47,17.7,9,34.68,19.46,52.24,28.56-5.45.87-13.72-4.76-18.84-6.66-14-5.17-26.62-7.84-41.54-6.93-8.95.55-17.17,1.58-26-.63-2.57-.64-8.89-3.57-11-1.38,8.24,10,14.87,19.09,27.85,23.54,10.27,3.52,21.11,3.27,31.85,3.37,7.83.07,19-1.48,26.5,1.37-12.8,5.06-26.09,3.67-39.55,5-8.48.87-16.21,1.08-20.95,8.79-2.5,4.08-3.73,9.59-7.59,12.69,8-11.73,35.2-.11,45.21,1.44C533.86,277.31,566.86,264.55,574.41,242.47Z"/><path class="e" d="M338.12,269.39C345.77,258.15,351,242,354.27,229c3.46-13.58,4.75-28.95.38-42.49-3.37,12.44-10,25.27-14.44,37.88-5.45,15.59-5.47,30.56-7,46.67-10.11-1.54-9.69-27.4-11.21-34.74-3.33-16-12.93-32.78-28.43-39.75,8.89,5.74,10.1,16.87,13,26.09,4,12.82,14.82,25.68,16.5,38.89-19-17.71-39.44-41.87-68.25-41.69,10.46,4.17,17.89,12.22,26.27,19.23,12.62,10.56,33.13,13.4,39.05,30.78-4,0-7.73-2.83-11.14-4.8-8.83-5.11-16.91-10.43-26.82-13.32-14.18-4.15-30.31-4.06-43.55-10.78,7.3,15.17,33.63,21.68,48.54,24.47,9.1,1.69,17,2.77,25.29,7.19C321,277.22,330.34,278.37,338.12,269.39Z"/><path class="k" d="M407.05,231.87c.06-2.72,4.27-9.8.59-11.7-2.62-1.34-6.72,4.13-7.74,6.19-2.1,4.26,1,3.63,1.36,7.52,2.88,0,5-2.36,6.48-4.42"/><path class="k" d="M404.3,207.06c0-.32.28-.62.56-1.16,1.4-2.66,3-4.72,3.5-7.82s-1.68-2.17-3.61-.85c.06-2.24-1.72-2.22-3.17-1a8.5,8.5,0,0,0-3.07,6.31C398.49,206.94,402.28,209.31,404.3,207.06Z"/><path class="k" d="M383.23,231.87c1.52-1.56,3.29-3.51,3.95-5.69.78-2.63-.84-1.19-2.28-1.15-.6-1.51.76-4.77-1.87-4.2-1.81.39-3.42,3.16-4.47,4.53-.88,1.15-1.8,2.26-1.61,3.8.15,1.13.77,2.09,1.94,1.21-.38,1-.43,1.88.5,2.44,1.84,1.08,4-1.37,5.12-2.47"/><path class="k" d="M378.7,206.91a14.07,14.07,0,0,0,4.05-7.61c.5-3.3-.81-3.53-3.29-2.38.34-7.66-8.47,4.16-6,4.5.1,1.69-1,3.7.53,5.2S378.13,208,378.7,206.91Z"/><path class="k" d="M355.93,229.08a11.25,11.25,0,0,0,2.71-7.77c-.29-2.56-1.23-.6-2.56-1.17-.38-.16-.46-1-.89-1.26a2,2,0,0,0-2.07.14c-1.21.63-2.14,2.29-2.76,3.45-1.23,2.33-1.08,3.32.37,5.27C352.53,230.16,354.73,230.63,355.93,229.08Z"/><path class="k" d="M366.05,256.32a54.45,54.45,0,0,0,3.29-5.58c1.07-2.41.37-2.52-1.64-3,.1-2.33-.68-3.15-2.81-3-2.5.2-4.51,2.32-5.9,4.43-.61.92-1.92,6.2.35,5.68a2.46,2.46,0,0,0,1.49,2.47c2.44,1.28,5.58-.77,6.41-3.24"/><path class="k" d="M391.63,250.08c1.54-2,2.87-6.79-.79-4.09.64-3-4.52,1.1-4.91,1.72-1.27,2-1.77,4.95,1.39,4.18C387.76,255.26,392,249.53,391.63,250.08Z"/><path class="l" d="M133.66,50.93c2.4-1.48,5.13-2.92,7.2-4.88-.5.19-1.08.25-1.6.4.16-.37.24-1.13.36-1.53a9.5,9.5,0,0,0-1.66.46.72.72,0,0,1,0-.5c-2.34,1.07-5.63,2.87-5.62,5.89,0,.67-.3,1.4,2-.27"/><path class="l" d="M153.3,37.43c4.14-.23,7.94-5.07,11.24-7.29a8.13,8.13,0,0,1-2.8.5A1.18,1.18,0,0,1,162,30c-.46-.21-1-.14-1.33-.53-2.77,1.51-6,4.52-6.89,7.54a2.13,2.13,0,0,0,2-.18"/><path class="l" d="M143.51,36.2c.83-1.55,5.12-3.37,6.69-5.47-.54.2-1.12.34-1.68.49.15-.55.35-1.35.47-1.94-3.12,1.08-6.91,4.68-8.77,7.38a4.55,4.55,0,0,0,4.55-.77"/><path class="l" d="M155.11,20.68a17,17,0,0,0,7.19-4c-.12-.21-.06,0-.22-1.12-.39-.51-.77.27-1.13.19,0,0,.37-1.08.37-1.1-2.64,1.81-6,3.54-8.31,5.85a10.1,10.1,0,0,0,.85,1.24,7.08,7.08,0,0,0,3.77-1.68"/><path class="l" d="M115.61,49.27a17,17,0,0,0,7.2-4c-.13-.21-.06,0-.23-1.12-.39-.5-.76.27-1.12.2,0-.06.37-1.09.36-1.1-2.64,1.8-6,3.54-8.3,5.84a8.28,8.28,0,0,0,.85,1.24,7,7,0,0,0,3.77-1.68"/><path class="l" d="M130.55,33.46c2.14-1.67,4.59-2.8,6.49-4.8-.12-.09-.93.26-1.11.27.08-.17.74-1.35.77-1.51-3.09.33-8,5.13-8.76,8.23,2-.46,3.71-1.73,5.55-2.76"/><path class="l" d="M149.11,14.28c2.11-2.42,3.5-4.53,6.11-6.4-.14-.2-.93.27-1.05.32.05-.2.6-1.39.59-1.5.05.13-.43.34-.92.21,0,0,.65-.81.67-.74-3.36,2.22-5.29,5.16-8,8,.23.32.55.63.78.93a8.57,8.57,0,0,0,2.15-1.1"/><path class="l" d="M168.75,5.34A31.23,31.23,0,0,1,173,2a24.18,24.18,0,0,0,.29-2.8c-.1,0-1.71.3-1.66.28a14.66,14.66,0,0,0,.84-1.27c-2.62,1.93-8.08,5.27-6.69,8.94a38.33,38.33,0,0,0,4.62-2"/><path class="l" d="M182.87,8.74a4.11,4.11,0,0,0-.55,1.06A53.87,53.87,0,0,1,188,5.4a7.54,7.54,0,0,0-1.12.33,10.06,10.06,0,0,0,1.24-2.29c-.48-.3-.58.28-1,.25L187,3c-3,2-6.79,3.68-8.67,7a8.45,8.45,0,0,0,1.14,1.38,16.61,16.61,0,0,0,5.1-2.82"/><path class="l" d="M117.82,28.23c-.2.25-.71.29-.38.54A31.07,31.07,0,0,1,121.3,25a2.66,2.66,0,0,1-.69.08c.49-.76.88-1.9,1.36-2.68a18.26,18.26,0,0,0-2.29,1.3c-.1-.1.09-.69-.06-.66-2.28,2.22-6.32,4.67-6.51,8a12.93,12.93,0,0,0,4.64-2"/><path class="l" d="M135.18,15a9.16,9.16,0,0,1,1.67-1.41,48.58,48.58,0,0,0,3.39-3.49c-.52.33-1.74,1.12-1.58-.06-1.28.79-4.65,2.3-5,3.93S135.12,15,135.18,15Z"/><path class="l" d="M126.17,13.12a9.3,9.3,0,0,0,2.22-2.49c-.2,0-.44,0-.64,0,0-.16,0-.42.1-.59a6.73,6.73,0,0,0-4.15,3.87c0,.83,1.43-.18,2.47-.77"/><path class="e" d="M569.26,46.4c-14.88.47-31.38-4.45-45,4.42C514.6,57.14,513.52,69.45,509,79.15c-6.56,14.16-21.13,16.82-34.13,23-13.5,6.4-28.55,14.27-36,27.87-2.91,5.31-7,11.56-2.44,14.85,7.57,5.48,27.79.27,35.56-2,5.09-1.52,10.6-3.13,15.92-1.22,6.78,2.43,11.45,10.09,18,13.55,9.83,5.2,22.29,3.34,32.17-.84,7.74-3.27,20.21-9.26,25-16.41,9.93-14.84,1.41-38.75,3.11-56.59C567.11,71.61,571.72,55,569.26,46.4Z"/><path class="i" d="M568.14,49.83C561.87,39.1,550.8,19,537.9,16.31c7.48,23.52,16.69,43.41,34.3,61.05a69.7,69.7,0,0,1-.59-7.92,26.06,26.06,0,0,1-2.9,10.08c-7.94.22-17.65-16.77-22.69-22.38-6.68-7.42-15.75-17.89-25.65-20.88,11.88,16.57,22.24,34.53,36.86,49.17,5.31,5.32,5.88,5.27,6.73,12.43.7,6,1.85,12,2.69,17.77-10.94-2.89-18.89-20.72-26.67-28.54-8.6-8.63-20.66-22-32.15-26.09,11.6,18.67,23.06,38.5,40.22,52.34,4.92,4,18.73,10.62,21.11,16.59,1.27,3.17-1.64,9.63-1.82,13.44-25,0-33.25-50.73-59.49-45.59,2.9,4.72,8,8.35,11.69,12.71,7.56,8.94,13.39,19.1,21.19,27.92,6.08,6.87,12,12.76,20.33,16.87,1.22.61,7.84,4.37,9.51,4.05,6.69-1.26,6.29-12.38,7-18.28,2.08-18,.39-36.73-2.45-54.57C572.94,73,572.75,56.52,568.14,49.83Z"/><rect class="m" x="205.75" y="52.45" width="152.43" height="161.86"/><rect class="m" x="208.59" y="55.85" width="146.75" height="155.05"/><path class="n" d="M260.35,127.84a9.27,9.27,0,0,1-1-1.69,12.62,12.62,0,0,1-1.1-4.67,1.93,1.93,0,0,1-.09-.33.41.41,0,0,0-.42.29,1.25,1.25,0,0,1-.34.43,2.37,2.37,0,0,0-.76.67c-.09.09-.17.22-.26.26a13,13,0,0,1-2.16.8c-5.72,1.32-10.34-3-11.11-8.43a18,18,0,0,1-.25-3.73,55.32,55.32,0,0,1,.85-5.89,48.1,48.1,0,0,1,3.22-9.71c.34-.85.68-1.7,1.06-2.54a3.28,3.28,0,0,1,.34-.6,1.58,1.58,0,0,0,.21-.38,6.84,6.84,0,0,1,1.14-1.7A26.35,26.35,0,0,1,252.59,88a3.43,3.43,0,0,1,1.4-.67c.51-.13,1-.3,1.48-.43a10,10,0,0,1,4,.09,6.58,6.58,0,0,1,2,.55,8,8,0,0,1,2,1.27,2.15,2.15,0,0,1,.63,1.48c.05.64.05,1.28.05,1.91a6.13,6.13,0,0,1-.09.85c-.08.51-.17,1-.25,1.48-.05.09-.05.21-.13.3a13.77,13.77,0,0,1-1.23.89c-.25.13-.42,0-.47-.34,0-.55-.08-1.1-.12-1.61s-.09-1.1-.13-1.65a.58.58,0,0,0-.47-.55c-.89-.26-1.82-.51-2.75-.77,0,0-.13,0-.21,0-.64.17-1.28,0-1.91.21A1.77,1.77,0,0,1,256,91a2.31,2.31,0,0,0-1.82.76c-.22.21-.47.42-.68.64a4.93,4.93,0,0,0-1.23,1.82,18.88,18.88,0,0,0-1.4,4.53c-.3,1.36-.55,2.72-.85,4.07s-.55,2.63-.8,4c-.13.93-.21,1.82-.34,2.75a18.48,18.48,0,0,0-.21,4.33,20.67,20.67,0,0,0,.89,5.12,6.65,6.65,0,0,0,1.23,2.12,2,2,0,0,0,1.18.77,7,7,0,0,0,1.83.25,4.48,4.48,0,0,0,1.61-.72,5.34,5.34,0,0,0,1.78-1.82c.21-.34.46-.68.72-1a1.5,1.5,0,0,0,.25-1c0-1.1,0-2.2,0-3.3a15.23,15.23,0,0,1,.17-1.91c.26-1.44.47-2.88.77-4.33.12-.59.34-1.18.51-1.73.12-.3.21-.55.29-.81a.37.37,0,0,0-.55-.08,3.48,3.48,0,0,1-1.86.12.88.88,0,0,0-.47,0,7.71,7.71,0,0,1-2.42.38,1.45,1.45,0,0,1-1.4-1.1c.26,0,.47-.13.68-.17.64-.09,1.27-.22,1.91-.3a6.71,6.71,0,0,1,.89-.09,1.53,1.53,0,0,1,.42,0c.68-.08,1.36-.17,2-.21a2.2,2.2,0,0,0,.55-.13,3.05,3.05,0,0,1,1.82,0,1.52,1.52,0,0,1,1.06.68,4,4,0,0,1,.34.64c.09.12,0,.29.13.42.55.76.38,1.7.59,2.59a.73.73,0,0,1,0,.29c-.12,1.49-.25,3-.38,4.5a41.76,41.76,0,0,1-.67,6.06,22.09,22.09,0,0,1-.43,2.24,9.59,9.59,0,0,0-.51,2.93c0,.55.38,2.08-.12,2.5-.13.09-.26.21-.47.38a1.38,1.38,0,0,1,.34,0c0,.72,0,.8-.68.93,0,0,0-.09,0-.13s-.08,0-.13,0a.15.15,0,0,1,.05.13A1.26,1.26,0,0,1,260.35,127.84Z"/><path class="n" d="M270.82,103.85a1.57,1.57,0,0,0-.22.25.85.85,0,0,1-.38.51,2.38,2.38,0,0,1-.42.68,4.35,4.35,0,0,0-.42,1.15c-.22.89-.43,1.82-.73,2.71-.21.59-.33,1.23-.5,1.82s-.47,1.15-.6,1.74a.71.71,0,0,1-.08.21,2.29,2.29,0,0,0-.34,1.57c0,.59.08,1.19.17,1.78a.65.65,0,0,0,.29.51c.17.17.39.34.56.51a.61.61,0,0,0,.63.13,6.12,6.12,0,0,0,2-.94c.29-.21.67-.42,1-.68a2.47,2.47,0,0,0,.51-.46,5.57,5.57,0,0,0,.89-1.1.19.19,0,0,0,0-.09,2.06,2.06,0,0,1,.38-.72,1.35,1.35,0,0,0,.09-.3,5.49,5.49,0,0,1-.76-.46,7.07,7.07,0,0,1-1.87-1.7,9.79,9.79,0,0,1-.59-.89,4.57,4.57,0,0,1-.34-3.26,8.43,8.43,0,0,1,.72-1.87.14.14,0,0,1,0-.08c.34-.13.51-.51.89-.55a2.28,2.28,0,0,0,.51-.09,2.52,2.52,0,0,1,1.53.47,3.5,3.5,0,0,1,1.69,1.31,3.23,3.23,0,0,1,.47,1.66c0,.25.08.46.13.67a5.79,5.79,0,0,1,.08,1.66c0,.42-.34.76-.38,1.14s-.09.55-.17.89c.13,0,.21.09.3.09a6.7,6.7,0,0,0,.84-.09,8.66,8.66,0,0,0,4.54-2.46,1.32,1.32,0,0,0,.21-.29c.09-.09.13-.22.21-.26a.63.63,0,0,1,.47,0,1.15,1.15,0,0,1,.51.34,7.4,7.4,0,0,1-2.63,2.5c-.76.26-1.44.77-2.21,1.06a3.53,3.53,0,0,1-2,.34,2.1,2.1,0,0,0-.89.09c-.21,0-.34.25-.42.46A11.46,11.46,0,0,0,274,115c-.26.59-.89.93-1.23,1.44a4,4,0,0,1-.89,1c-.38.25-.68.59-1.06.85a2.9,2.9,0,0,1-1.61.63,4.8,4.8,0,0,1-1.83-.72,7.57,7.57,0,0,1-2.92-2.75,5.43,5.43,0,0,1-.47-2,14.57,14.57,0,0,1-.08-2.29,11.6,11.6,0,0,1,.46-2.12,23.65,23.65,0,0,1,1.23-2.92,2.51,2.51,0,0,1,.56-.81c.25-.29.55-.63.8-1a4.38,4.38,0,0,1,.89-.68c.47-.34.93-.59,1.44-.93a.8.8,0,0,1,.64-.13,2.43,2.43,0,0,1,1.18.43A.93.93,0,0,1,270.82,103.85Zm3.56,7.25a.53.53,0,0,1,0-.25,2.3,2.3,0,0,0,.34-1.57,4.93,4.93,0,0,0-.34-2.08,3.34,3.34,0,0,1-.55-1.1v0c-.09,0-.13-.13-.21-.13a.22.22,0,0,0-.22.17,1.61,1.61,0,0,1-.17.42,6.22,6.22,0,0,0-.42,1.4.61.61,0,0,1-.08.25,2.13,2.13,0,0,0-.13,1.62,4.42,4.42,0,0,0,.76,1.48c.21.21.38.47.68.51C274.25,111.57,274.42,111.4,274.38,111.1Z"/><path class="n" d="M286,103.85a2.14,2.14,0,0,0-.21.25.85.85,0,0,1-.38.51,2.63,2.63,0,0,1-.42.68,4.73,4.73,0,0,0-.43,1.15c-.21.89-.42,1.82-.72,2.71-.21.59-.34,1.23-.51,1.82s-.46,1.15-.59,1.74a.71.71,0,0,1-.08.21,2.24,2.24,0,0,0-.34,1.57c0,.59.08,1.19.17,1.78a.65.65,0,0,0,.29.51c.17.17.39.34.55.51a.63.63,0,0,0,.64.13,6,6,0,0,0,2-.94,11.55,11.55,0,0,0,1-.68,2.47,2.47,0,0,0,.51-.46,6,6,0,0,0,.89-1.1.19.19,0,0,0,0-.09,2.06,2.06,0,0,1,.38-.72,1.35,1.35,0,0,0,.09-.3,6.25,6.25,0,0,1-.77-.46,7.19,7.19,0,0,1-1.86-1.7,9.79,9.79,0,0,1-.59-.89,4.52,4.52,0,0,1-.34-3.26,8.43,8.43,0,0,1,.72-1.87.14.14,0,0,1,0-.08c.34-.13.51-.51.89-.55a2.28,2.28,0,0,0,.51-.09,2.47,2.47,0,0,1,1.52.47,3.48,3.48,0,0,1,1.7,1.31,3.23,3.23,0,0,1,.47,1.66c0,.25.08.46.12.67a5.46,5.46,0,0,1,.09,1.66c0,.42-.34.76-.38,1.14s-.09.55-.17.89c.12,0,.21.09.29.09A6.84,6.84,0,0,0,292,112a8.66,8.66,0,0,0,4.54-2.46,1.32,1.32,0,0,0,.21-.29c.08-.09.13-.22.21-.26a.63.63,0,0,1,.47,0,1.15,1.15,0,0,1,.51.34,7.48,7.48,0,0,1-2.63,2.5c-.76.26-1.44.77-2.21,1.06a3.53,3.53,0,0,1-2,.34,2.09,2.09,0,0,0-.89.09c-.21,0-.34.25-.42.46a11.46,11.46,0,0,0-.55,1.23c-.26.59-.89.93-1.23,1.44a4,4,0,0,1-.89,1c-.38.25-.68.59-1.06.85a2.9,2.9,0,0,1-1.61.63,4.8,4.8,0,0,1-1.83-.72,7.57,7.57,0,0,1-2.92-2.75,5.23,5.23,0,0,1-.47-2,14.57,14.57,0,0,1-.08-2.29,11.6,11.6,0,0,1,.46-2.12,23.65,23.65,0,0,1,1.23-2.92,2.65,2.65,0,0,1,.55-.81c.26-.29.56-.63.81-1a4.12,4.12,0,0,1,.89-.68c.47-.34.93-.59,1.44-.93a.8.8,0,0,1,.64-.13,2.43,2.43,0,0,1,1.18.43A.91.91,0,0,1,286,103.85Zm3.57,7.25a.53.53,0,0,1,0-.25,2.3,2.3,0,0,0,.34-1.57,4.93,4.93,0,0,0-.34-2.08,3.34,3.34,0,0,1-.55-1.1v0c-.09,0-.13-.13-.21-.13a.22.22,0,0,0-.22.17,1.61,1.61,0,0,1-.17.42,5.74,5.74,0,0,0-.42,1.4.51.51,0,0,1-.09.25,2.18,2.18,0,0,0-.12,1.62,4.42,4.42,0,0,0,.76,1.48c.21.21.38.47.68.51C289.47,111.57,289.64,111.4,289.6,111.1Z"/><path class="n" d="M321.09,108.94a.2.2,0,0,1,0,.21,8.6,8.6,0,0,0-.76,1.44c-.43.76-.51,1.4-.89,2.16-.68,1.44-1.49,2.88-2.21,4.28a15.61,15.61,0,0,1-4.45,5.68c-.68.47-1.35.89-2.07,1.32a2,2,0,0,1-1.57.17,3.56,3.56,0,0,0-.68-.17,3.87,3.87,0,0,1-3.18-2.63,9.16,9.16,0,0,1-.47-2.54,4.31,4.31,0,0,0-.08-.68s-.51.34-.55.38a1.15,1.15,0,0,0-.38.51c-1.32,1.86-4.12,1.23-5.64,0a8,8,0,0,1-1.44-1.52,7.59,7.59,0,0,1-1-5.09,11.07,11.07,0,0,1,3.18-6.57,7.46,7.46,0,0,1,1.82-1.36,12,12,0,0,1,1.57-.51c.51-.17.93-.51,1.44-.68a6.39,6.39,0,0,1,2-.25,1.4,1.4,0,0,0,.38,0l.12-.38a43.21,43.21,0,0,1,1.28-5.6c.38-1.14.8-2.29,1.18-3.43A5.64,5.64,0,0,1,309.6,92a2.6,2.6,0,0,1,2.08-.84h.59a1.88,1.88,0,0,1,.56.12,8,8,0,0,1,1.44,1.19A4.76,4.76,0,0,1,315.75,96c0,.3.09.55.09.85a20.13,20.13,0,0,1-1,5.21,29.62,29.62,0,0,1-1.83,4.28c-.21.43-.46.77-.63,1.15l-.64,1.18c-.51.85-1,1.66-1.52,2.5-.09.13-.17.3-.26.43a9.86,9.86,0,0,0-.72,1.06,4.36,4.36,0,0,0-.34.72,21.68,21.68,0,0,0-.55,4.36,18.73,18.73,0,0,0,0,2.12,3.26,3.26,0,0,0,1.4,2.42,1.74,1.74,0,0,0,1.7.21,14.33,14.33,0,0,0,3.52-3.43,24.72,24.72,0,0,0,3.09-5.43c.3-.72.8-1.48,1.1-2.2a14.08,14.08,0,0,0,.76-1.7,1.92,1.92,0,0,1,1.19-1.35A2.5,2.5,0,0,1,321.09,108.94Zm-17.85,8c.43-.38.85-.72,1.28-1.06a.76.76,0,0,0,.29-.64c0-.68.05-1.35.09-2,0-1,.17-2,.21-2.93a41.61,41.61,0,0,1,.55-4.62c.09-.51.17-1,.3-1.57a1.3,1.3,0,0,0-.55.13,13.25,13.25,0,0,0-1.32.89c-2.07,1.4-4,3.35-4.45,5.77-.38,2-.72,4.11.89,5.63a5.15,5.15,0,0,0,.6.47A2.48,2.48,0,0,0,303.24,116.91Zm6.53-7.93a1.39,1.39,0,0,0,.17-.3c.3-.55.64-1.1.89-1.65.51-1.06,1.06-2.08,1.49-3.14a23.21,23.21,0,0,0,.89-2.67,14,14,0,0,0,.68-5.89,4.92,4.92,0,0,0-.3-1,7.82,7.82,0,0,0-.51-1.35c-.13-.22-.25-.51-.59-.51-.09.08-.77-.21-.94,1.31-.12.34-1.44,9.67-1.48,9.88-.13.59-.21,1.19-.34,1.78a10.69,10.69,0,0,0-.25,1.23c-.13.76-.47,2.24.12,2.29C309.65,108.94,309.69,109,309.77,109Z"/><path class="n" d="M264.1,165a1.46,1.46,0,0,0-.83.06,3.62,3.62,0,0,1-1.1.42,1.29,1.29,0,0,1-1-.45,3.39,3.39,0,0,1-.58-1c-.51-1.22-1.45-3.52-1-4.87.17-.51.34-1,.55-1.48a20.12,20.12,0,0,0,1.49-4.92,15.2,15.2,0,0,0,.34-2.75,9.34,9.34,0,0,0-.26-2.89c-.08-.46-.17-.89-.21-1.35a1.23,1.23,0,0,0-1-1.23l-.34-.13a2.76,2.76,0,0,0-1.83-.13,9.6,9.6,0,0,0-2.24,1,1.35,1.35,0,0,0-.68.76c-.17.64-.34,1.32-.55,2,0,.26-.17.47-.21.72a31.1,31.1,0,0,0-.42,6.61,19.64,19.64,0,0,0,1.33,6.86,2.89,2.89,0,0,1,.29,1.18,2.73,2.73,0,0,1-.22.85c-.91,2.39-1.78,4.78-2.64,7.18-.55,1.48-1.14,2.93-1.69,4.37-.09.25-.17.46-.47.55-.13-.38-.42-.72-.38-1.06a12.83,12.83,0,0,0-.38-2.88c-.17-.81-.3-1.62-.47-2.42s-.13-1.44-.25-2.16c-.21-1,0-2.08-.21-3.1v-.08c-.05-.3-.05-.55-.09-.85a8.57,8.57,0,0,0-.21-1c-.26-1.31-.51-2.62-.85-3.94a6,6,0,0,1-.47-2.16c.05-.13,0-.3-.08-.46-.09-.6-.21-1.23-.34-1.83s-.17-1.1-.3-1.65a6.08,6.08,0,0,0-.21-.81c-.08-.51-.17-1.06-.29-1.57a16.58,16.58,0,0,0-.51-2c-.26-.72-.6-1.4-.89-2.07a2.81,2.81,0,0,1-.22-.51,4,4,0,0,0-1.82-2.17,2.79,2.79,0,0,0-3.09.68c.38,0,.42.3.46.6.13.93.26,1.86.38,2.84.09.72.17,1.48.26,2.2.13,1.7.3,3.39.47,5.09,0,.55.12,1.14.21,1.69.21,1.23.34,2.42.59,3.61.34,1.69.76,3.39,1.15,5.08l.5,1.87c.43,1.91.81,3.77,1.23,5.64.17.67.3,1.35.47,2l.89,2.93c.13.29.21.55.34.8a1.64,1.64,0,0,0,1.61.89,5.72,5.72,0,0,1,1.91.26.46.46,0,0,0,.51-.05,1.84,1.84,0,0,0,.89-.8c.12-.3.42-.55.5-.89a6.28,6.28,0,0,1,.56-1.27,7,7,0,0,1,.76-1.4,4.77,4.77,0,0,0,.68-1.4c.68-1.53,1.35-3.05,2-4.62.21-.59.38-1.19.6-1.78a7.37,7.37,0,0,1,.63-1.61c.13.12.21.17.3.25a3.91,3.91,0,0,0,3.27,1.06,5.91,5.91,0,0,0,3.38-.75,1,1,0,0,0,.4-1A.86.86,0,0,0,264.1,165Zm-5.42-9.26a13,13,0,0,1-.51-2.33,19.91,19.91,0,0,1-.29-3.52c.08-.85.08-1.65.08-2.46a1.54,1.54,0,0,1,.38-1,2.09,2.09,0,0,1,.81,1.06,5.13,5.13,0,0,1,.42,2.11c0,.6.09,1.19,0,1.74a21.44,21.44,0,0,1-.63,3.65C258.85,155.27,258.77,155.52,258.68,155.78Z"/><path class="n" d="M276.7,167.11a5.65,5.65,0,0,0-.17.63c-.26.43-.34.85-.55,1.28a3.29,3.29,0,0,1-.21.42,1.33,1.33,0,0,0-.39.68c-.08.13-.12.25-.21.42a2.86,2.86,0,0,0-.29.72c-.05.13-.17.3-.22.43a15.48,15.48,0,0,0-.72,1.9l-.08,0a10.79,10.79,0,0,1-.64,1,4.81,4.81,0,0,1-1.4,1.23,2.3,2.3,0,0,1-1,.6.33.33,0,0,0-.17.08c-.38.08-.76.13-1.06.21a1.26,1.26,0,0,1-.68,0c-.42-.17-.89-.25-1.27-.42A2.48,2.48,0,0,1,266.4,175a6.62,6.62,0,0,1-.43-1.82,14.44,14.44,0,0,1,0-1.86c0-.68,0-1.4,0-2.12a24.32,24.32,0,0,1,.13-3.52c.08-.6.13-1.19.21-1.78a12,12,0,0,1,.25-1.74c.17-.51.34-1,.51-1.53.05-.17.17-.17.3-.17a2.24,2.24,0,0,1,.93.17.75.75,0,0,1,.43.34,7.16,7.16,0,0,0,.34.68,1.13,1.13,0,0,1,.12.38,9,9,0,0,0,.13,1.15,17.94,17.94,0,0,1,0,2.2,2.26,2.26,0,0,1,0,.89,1.74,1.74,0,0,0,0,.51,2.82,2.82,0,0,1-.05,1.19,9.54,9.54,0,0,0-.12,1.57v.55s-.09,0-.09.08a4.87,4.87,0,0,1-.08,1.4.52.52,0,0,1,0,.25,1.67,1.67,0,0,1,.08.77,2.76,2.76,0,0,0,0,.8,3.85,3.85,0,0,1,.09,1.23,2.12,2.12,0,0,0,.29.93c.05.09.13.09.21.09a1.57,1.57,0,0,0,.43,0,3,3,0,0,0,.85-.6,1.83,1.83,0,0,0,.46-.55,16.85,16.85,0,0,0,1.83-2.5c.16-.42.42-.72.59-1.19a4.94,4.94,0,0,0,.68-1.27,11.48,11.48,0,0,0,.76-1.78c0-.21.21-.34.3-.59a1.19,1.19,0,0,1,1-.51A.74.74,0,0,1,276.7,167.11Zm-9.58-11c.08,0,.13-.08.17,0a3.31,3.31,0,0,0,.63,0,1.11,1.11,0,0,1,1.15.47,10.37,10.37,0,0,1-.34,1.52,3.23,3.23,0,0,0-.38.43.16.16,0,0,0-.09,0,1.13,1.13,0,0,1-.93-.21,1.68,1.68,0,0,1-.42-.55,1.09,1.09,0,0,1-.3-.89c0-.22,0-.47,0-.68A1.9,1.9,0,0,1,267.12,156.13Z"/><path class="n" d="M284.16,173.84a3.37,3.37,0,0,1,.72-2.46,13,13,0,0,1,1.53-1.95l.5-.51c.56-.47,1.11-1,1.66-1.44a.81.81,0,0,0,.29-.6c0-.21.05-.42.05-.63-.05-.72-.13-1.4-.17-2.08a3.33,3.33,0,0,0-.26-.89,1.35,1.35,0,0,1-.25-.47,1.88,1.88,0,0,0-1.7-1.1,1.79,1.79,0,0,0-1.18.39,10.32,10.32,0,0,0-2,1.9,9.56,9.56,0,0,0-1.44,2.21.11.11,0,0,1,0,.08,3.3,3.3,0,0,0-.55,1.15,2.57,2.57,0,0,1-.21.59,2.21,2.21,0,0,0-.21,1.48,14.62,14.62,0,0,1,0,2.29,4.87,4.87,0,0,1-.08,1.1,2.94,2.94,0,0,0,0,.89.76.76,0,0,1-.17.6,2.5,2.5,0,0,1-.09.25.84.84,0,0,1-.42.68,8.2,8.2,0,0,0-.59.59c-.17,0-.3-.12-.47-.17-.09.17-.17.3-.3.51a1.17,1.17,0,0,0-.59-.29c-.09,0-.13-.09-.17-.13-.09-.25-.17-.51-.25-.76a1.36,1.36,0,0,1-.13-.47,17,17,0,0,1-.55-3c-.17-1-.17-2-.26-2.92,0-.77,0-1.49-.08-2.25a6.15,6.15,0,0,1,.08-.81,12.05,12.05,0,0,1,.09-1.23c.08-.63.12-1.27.21-1.86s.08-1.06.13-1.57a1.23,1.23,0,0,1,.12-.55,1.88,1.88,0,0,0,.17-.85,10,10,0,0,1,.13-2,1.1,1.1,0,0,0,0-.51,3,3,0,0,1,.25-1.48,8.13,8.13,0,0,0,.34-1,2.74,2.74,0,0,0,.09-.64,4.33,4.33,0,0,1,.25-1,4.17,4.17,0,0,0,.55-1.61c.05-.17.09-.34.13-.51.26-.64.47-1.31.72-2a27.79,27.79,0,0,1,2-4.41l1-1.87.25-.38a13.4,13.4,0,0,1,.85-1.23,7.73,7.73,0,0,1,1-1.1,11,11,0,0,1,2.12-1.57,5.5,5.5,0,0,1,1.1-.51,10.64,10.64,0,0,1,2-.59,2.84,2.84,0,0,1,1.36,0,.63.63,0,0,1,.38.21.61.61,0,0,0,.42.26,6.5,6.5,0,0,1,.94.33,3,3,0,0,1,1.86,2.68,4.8,4.8,0,0,0,.09,1.06,2,2,0,0,1,0,.84,2.67,2.67,0,0,0-.09.26c0,.51,0,1-.09,1.57a1.91,1.91,0,0,1-.25.84.67.67,0,0,0-.08.38,1.83,1.83,0,0,1-.09.85,5,5,0,0,1-.29.85c-.22.47-.3.93-.47,1.36a2.14,2.14,0,0,1-.17.46,1.79,1.79,0,0,0-.38.81c0,.17-.21.34-.26.51-.17.38-.29.76-.42,1.14a8,8,0,0,1-.93,1.87c-.26.38-.47.76-.68,1.14-.09.13-.21.21-.3.34a4.37,4.37,0,0,0-.68.76,5.17,5.17,0,0,1-1.65,1.57c-.76.51-1.53,1-2.33,1.57-.21.13-.43.21-.68.34s-.47.25-.68.38a3.81,3.81,0,0,1-1.1.47,14.25,14.25,0,0,0-1.4.34,2.51,2.51,0,0,1-.76.12.65.65,0,0,0-.64.47,2.87,2.87,0,0,0-.21,1,13.71,13.71,0,0,0,0,1.82.73.73,0,0,1,0,.29,3.14,3.14,0,0,0,0,1.06c0,.05,0,.05,0,.09A.31.31,0,0,0,281,165c.21-.25.47-.55.68-.85a7.35,7.35,0,0,1,1.4-1.44,1.74,1.74,0,0,1,.42-.34c.55-.34,1.11-.72,1.7-1.06a2.76,2.76,0,0,1,1.44-.42c.17,0,.34,0,.51,0a4.58,4.58,0,0,1,1.1,0,2.62,2.62,0,0,1,1.65,1,3.27,3.27,0,0,1,.6.93,4.14,4.14,0,0,1,.42,1.7,2.21,2.21,0,0,0,.13.76,1.47,1.47,0,0,0,.25-.12,32.72,32.72,0,0,0,2.59-2.08c.42-.38.93-.72,1.35-1.14s1.19-.89,1.57-1.53a.87.87,0,0,1,.68-.34.68.68,0,0,1,.55.08c0,.09,0,.17,0,.22-.21.17-.34.46-.59.63l-.55.43c-.05.08-.13.12-.17.21-.22.51-.68.76-1.06,1.1-.21.21-.43.47-.64.72s-.46.47-.68.72a13.82,13.82,0,0,1-1.14,1c-.13,0-.21.17-.3.25l-.21.26c-.38.29-.81.59-1.19.89a.66.66,0,0,1-.21.17.44.44,0,0,0-.17.29,4.45,4.45,0,0,0,0,.73,1.2,1.2,0,0,1,0,.38,7.16,7.16,0,0,0,0,.93c0,.13,0,.3,0,.42a8.78,8.78,0,0,0-.21,1.83,2.19,2.19,0,0,1-.3.89c-.21.38-.42.8-.64,1.23a4,4,0,0,1-.72,1s-.12.13-.17.17l-1.35.76a6.42,6.42,0,0,1-1.57.38.4.4,0,0,1-.34,0c-.25-.08-.47-.16-.68-.25l-.59-.13A6.4,6.4,0,0,1,284.16,173.84Zm-2.93-14c.22-.09.43-.13.64-.22a9.34,9.34,0,0,0,1.82-.76c.68-.34,1.36-.68,2-1.06a15.67,15.67,0,0,0,3.22-2.54,13.12,13.12,0,0,0,.89-1.06,28,28,0,0,0,2.07-3.44,8,8,0,0,0,.77-2.11c.08-.3.17-.56.25-.85a2,2,0,0,0,.17-.51,3.68,3.68,0,0,0,.09-1.36.68.68,0,0,1,0-.3c.13-.55.08-1.1.17-1.61,0-.12,0-.29,0-.42a9.36,9.36,0,0,1,0-1.06,3.19,3.19,0,0,0-.13-1.1.83.83,0,0,1-.08-.43,2.57,2.57,0,0,0-.34-1.1,1.11,1.11,0,0,1-.21-.42,1.68,1.68,0,0,0-.77-.85.79.79,0,0,0-.55-.08,3.92,3.92,0,0,0-1.14.38,1.12,1.12,0,0,0-.64.46c-.12.13-.29.22-.42.34a6.33,6.33,0,0,0-.85.68,3.5,3.5,0,0,0-.76.81c-.3.46-.72.84-1.06,1.31a3.13,3.13,0,0,0-.38.47,16.9,16.9,0,0,0-1,1.57,2,2,0,0,1-.26.38,3.74,3.74,0,0,0-.63.76,5.48,5.48,0,0,0-.68,1.74,5.74,5.74,0,0,1-.51,1.65c0,.13-.08.25-.13.38-.21,1-.46,1.91-.67,2.88-.05.22-.09.43-.13.6-.13.51-.3,1-.42,1.52a.72.72,0,0,1-.05.3,4.24,4.24,0,0,1-.25,1.44.68.68,0,0,0,0,.3,1.77,1.77,0,0,1-.13.63.66.66,0,0,0-.09.3c0,.47-.12,1-.12,1.49a2.27,2.27,0,0,0,.08.89Zm6.19,13.09c.09-.29.17-.55.26-.8.25-.59.46-1.19.68-1.78a7.6,7.6,0,0,1,.34-1v-.25a1.93,1.93,0,0,0-.26.17,5.77,5.77,0,0,1-.63.68,1.57,1.57,0,0,0-.34.46,6,6,0,0,1-.43.64,3.49,3.49,0,0,0-.51.85c0,.08-.08.21,0,.29a3.53,3.53,0,0,0,.17,1.32,1.39,1.39,0,0,0,.25.29A2.2,2.2,0,0,0,287.42,172.9Z"/><path class="n" d="M310.31,160a.74.74,0,0,1-.17.33,6.05,6.05,0,0,0-.8,1.4.4.4,0,0,0-.09.17c0,.51-.38.85-.5,1.27s-.39.72-.64,1.06c-1.27,1.57-1.91,3.52-3.65,4.75-1.31,1-2.67,2.29-4.45,2.16a9.72,9.72,0,0,1-1.86-.46s-.09,0-.17-.09a4.26,4.26,0,0,1-2.21-3.81,21.06,21.06,0,0,1,.09-3.27c.08-.68.17-1.39.21-2.07a1.56,1.56,0,0,1,.09-.47c.17-.68.29-1.36.42-2.08a17.79,17.79,0,0,1,.89-2.54,2.14,2.14,0,0,1,.17-.34,2.57,2.57,0,0,0,.51-.85s0-.08,0-.12a3.37,3.37,0,0,1,1.06-1.53,1,1,0,0,1,.3-.21,7.26,7.26,0,0,1,2.24-.81,4.77,4.77,0,0,1,2.08,0c.09,0,.17,0,.26,0,2.75.09,1.52,5.09.08,6.19a2.4,2.4,0,0,0-.64.47.22.22,0,0,1-.21.12,2.88,2.88,0,0,1-.68.34,10,10,0,0,1-1.44.47c-.76.13-.72.08-.89.72a3,3,0,0,0-.08.55c0,2.16-1.19,5.6.12,7.46a1.85,1.85,0,0,0,.85.64.65.65,0,0,0,.55,0,4,4,0,0,0,1.11-.55c.5-.34,1-.68,1.44-1a3.58,3.58,0,0,0,.55-.55,13.28,13.28,0,0,0,1.4-2.08,3.82,3.82,0,0,1,.29-.42,24.51,24.51,0,0,0,1.7-2.59,1.58,1.58,0,0,0,.21-.38,10.47,10.47,0,0,1,1.1-1.86.53.53,0,0,1,.47-.34A1.68,1.68,0,0,0,310.31,160ZM304.46,154a.24.24,0,0,0-.12-.21,1.7,1.7,0,0,0-1.53-.59,1.12,1.12,0,0,0-1,.76,5.34,5.34,0,0,0-.47,1.48.8.8,0,0,1-.13.43,6.15,6.15,0,0,0-.34,1.44,4.07,4.07,0,0,1-.21,1.06,1.06,1.06,0,0,0-.08.72,6.68,6.68,0,0,0,2-.55,2.65,2.65,0,0,0,1-.85,18.25,18.25,0,0,0,1-1.57c.05-.09.13-.21.05-.34a.94.94,0,0,1,.08-.59l.13-.43A2.34,2.34,0,0,1,304.46,154Z"/><path class="n" d="M314.59,165.74c-.72-.68-1.44-1.4-2.16-2.08a13.2,13.2,0,0,1-1.73-1.78,19.59,19.59,0,0,1-2.12-2.92,7.38,7.38,0,0,1-.73-2.67,3.66,3.66,0,0,1,.13-.93,5.34,5.34,0,0,1,1.32-2.68,2.61,2.61,0,0,1,1.27-.84,2.66,2.66,0,0,1,1.74,0l.46.12a3.89,3.89,0,0,1,1.4.68c.38.26.34.51,0,.68a5.67,5.67,0,0,1-1.23.38,1.83,1.83,0,0,0-.42.21,2.57,2.57,0,0,0-.73,1.06,1.94,1.94,0,0,1-.21.47,1.6,1.6,0,0,0-.08,1.1,1.62,1.62,0,0,0,.38.72.14.14,0,0,1,0,.09,7.25,7.25,0,0,0,1,1.31c.13.13.3.26.42.38.77.72,1.66,1.36,2.42,2.12.42.43.85.89,1.27,1.36.26.29.51.63.76.93s.34.3.51.47a2.47,2.47,0,0,0,.64-.47,2,2,0,0,0,.3-.25,6.19,6.19,0,0,0,1-1.06c.26-.26.56-.51.85-.77a6.7,6.7,0,0,0,1.32-1.39,1.67,1.67,0,0,1,.29-.3.45.45,0,0,1,.51-.09,3.16,3.16,0,0,0,.72.17.25.25,0,0,1,.13.43l-.13.12c-.17.17-.08.47-.38.6s-.38.25-.59.42-.43.51-.64.72a2.18,2.18,0,0,1-.34.34,2.61,2.61,0,0,1-.38.42,1.76,1.76,0,0,1-.51.6.77.77,0,0,0-.38.51s-.13.12-.17.17-.21.08-.25.17c-.26.29-.51.55-.77.8s-.16.26,0,.47.22.34.34.51a3.35,3.35,0,0,0,.22.34,6.45,6.45,0,0,1,.84,1.73,2.1,2.1,0,0,1,.09.89,1.5,1.5,0,0,0,.13.85c.76,1.57.21,3.94-.22,5.51-.55,1.78-1.78,2.63-3.09,3.82a5.12,5.12,0,0,1-3.39.89,4.59,4.59,0,0,1-3-1.57.41.41,0,0,0-.25-.21,1.75,1.75,0,0,1-.47-.47,1.22,1.22,0,0,0-.34-.34.71.71,0,0,1-.25-.46,8.39,8.39,0,0,1,1.9-6.41,4.26,4.26,0,0,0,.56-.76c.25-.25.46-.55.72-.85.59-.63,1.22-1.22,1.78-1.9a2.1,2.1,0,0,1,.33-.34A10.16,10.16,0,0,0,314.59,165.74Zm.81,3a4.57,4.57,0,0,1-.64.68,7.13,7.13,0,0,0-.55.55c0,.13-.17.21-.29.3a7.15,7.15,0,0,0-1.49,1.52,2.4,2.4,0,0,0-.55.85v0a1.79,1.79,0,0,0-.34.81c-.08.34-.17.63-.25,1a5.85,5.85,0,0,0-.09,1.91.76.76,0,0,0,.89.64,1.64,1.64,0,0,0,.47-.09l.34-.08a3.48,3.48,0,0,0,1.36-.56,13.32,13.32,0,0,1,1.31-.84,1.72,1.72,0,0,1,.55-.26,2.06,2.06,0,0,0,.85-.51,2.08,2.08,0,0,0,.3-.38,4.3,4.3,0,0,0,.29-1.78,8,8,0,0,0-.34-2.67c0-.13,0-.21-.08-.34a4.27,4.27,0,0,0-.68-1.48s0,0-.13-.09A2.8,2.8,0,0,0,315.4,168.75Z"/><path class="e" d="M337.28,269.11c7.65-11.24,12.85-27.38,16.15-40.35,3.46-13.58,4.75-28.95.38-42.49-3.36,12.44-10,25.26-14.44,37.87-5.45,15.59-5.47,30.57-7,46.68-10.11-1.54-9.68-27.4-11.21-34.74-3.32-16-12.93-32.78-28.43-39.75,8.89,5.74,10.11,16.87,13,26.09,4,12.82,14.82,25.68,16.51,38.88-19-17.7-39.45-41.87-68.26-41.68,10.46,4.17,17.89,12.22,26.27,19.23,12.62,10.56,33.13,13.4,39,30.78-4,0-7.73-2.83-11.14-4.81-8.83-5.11-16.91-10.42-26.82-13.32-14.18-4.14-30.31-4.05-43.55-10.77,7.3,15.17,33.63,21.68,48.54,24.46,9.1,1.7,17,2.78,25.29,7.2C320.2,276.94,329.5,278.09,337.28,269.11Z"/><path class="f" d="M268.23,21.08c2.19,14.08-7.61,30.72-14.09,44.68,2-15.19,1.51-35.24-4.43-49.18C245.16,5.91,244.82,3.43,233.57,3c2.81,5.11,2.21,10.73,2.81,15.59.79,6.37-5.27,21.14-7.58,27C224,57.86,221,62.14,216,74c-3.46-15.58,3.38-27.09,6.21-41.62,1.27-6.53,3.12-23.16-1.53-28.73-2.94,19.9-20,35.78-31.91,50.73-1-9.88,7-22.52,10.81-31.53,3.64-8.58,6.77-24.17,16.57-27.85,16.64-6.24,49,8,52.08,26.12"/></g></svg>