<?xml version="1.0" encoding="iso-8859-1"?>
<!-- Generator: Adobe Illustrator 22.1.0, SVG Export Plug-In . SVG Version: 6.00 Build 0)  -->
<svg version="1.1" id="Azteque" xmlns="http://www.w3.org/2000/svg" xmlns:xlink="http://www.w3.org/1999/xlink" x="0px" y="0px"
	 viewBox="0 0 567 269" style="enable-background:new 0 0 567 269;" xml:space="preserve">
<g>
	<path style="fill:#1D1D1B;" d="M86.109,41.834c-0.108,0.302-0.511,0.602-0.785,0.504s-0.594-0.671-0.486-0.973
		s0.711-0.615,0.984-0.517C86.096,40.946,86.217,41.532,86.109,41.834z"/>
	<path style="fill:none;stroke:#1D1D1B;stroke-width:0.4597;stroke-linecap:round;stroke-linejoin:round;stroke-miterlimit:10;" d="
		M89.076,45.132c0,0-1.48-3.218-3.063-3.156"/>
	<path style="fill:none;stroke:#1D1D1B;stroke-width:0.4597;stroke-linecap:round;stroke-linejoin:round;stroke-miterlimit:10;" d="
		M85.934,42.992c0,0-0.133,0.034-0.327,0.052c-0.582,0.055-1.71-0.028-1.431-1.568c0.372-2.053,1.785-0.456,1.785-0.456
		s1.103,1.927-0.683,2.564"/>
	<path style="fill:none;stroke:#1D1D1B;stroke-width:0.4597;stroke-linecap:round;stroke-linejoin:round;stroke-miterlimit:10;" d="
		M83.646,41.015c0,0,0.305-2.782,1.822-1.936"/>
	<path style="fill:#F9BA05;" d="M83.35,48.146c0,0,1.87-3.269,5.48-3.41c3.61-0.141,8.737-0.938,10.674,7.26
		c0,0-1.276,12.041-8.945,13.259C90.559,65.256,76.014,64.615,83.35,48.146z"/>
	<path style="fill:#9CC31A;" d="M84.486,62.319c0,0-1.431,6.04-0.285,6.136c1.146,0.096,3.949-3.844,3.949-3.844"/>
	<path style="fill:#9CC31A;" d="M90.78,64.397c0,0,1.515,5.059,2.867,4.531c1.352-0.527,0.857-6.871,0.857-6.871"/>
	<path style="fill:none;stroke:#1D1D1B;stroke-width:0.4597;stroke-linecap:round;stroke-linejoin:round;stroke-miterlimit:10;" d="
		M85.687,45.865c-3.16,2.598-4.358,8.812-2.929,13.454c0.81,2.633,2.764,4.747,5.746,5.556c3.057,0.83,5.916-1.068,7.555-3.207
		c2.963-3.868,5.004-9.536,1.936-13.946c-1.515-2.178-4.394-2.687-6.905-2.673c0,0-4.648-0.159-5.74,2.35"/>
	<path style="fill:none;stroke:#1D1D1B;stroke-width:0.4597;stroke-linecap:round;stroke-linejoin:round;stroke-miterlimit:10;" d="
		M94.26,46.018c0,0,0.693-2.518,2.376-2.924"/>
	<path style="fill:none;stroke:#1D1D1B;stroke-width:0.4597;stroke-linecap:round;stroke-linejoin:round;stroke-miterlimit:10;" d="
		M95.705,42.452c0,0,0.049,1.244,1.188,1.425c1.139,0.182,2.049-2.43,0.579-2.372c-1.47,0.058-1.492,1.207-1.492,1.207"/>
	<path style="fill:none;stroke:#1D1D1B;stroke-width:0.4597;stroke-linecap:round;stroke-linejoin:round;stroke-miterlimit:10;" d="
		M97.084,40.104c0,0,1.822,0.228,2.278,1.822"/>
	<path style="fill:#1D1D1B;" d="M97.077,42.331c-0.477,0.362-0.262,1.035,0.162,1.338c0.536,0.384,1.294-0.025,1.092-0.746
		C98.21,42.489,97.5,42.01,97.077,42.331z"/>
	<path style="fill:none;stroke:#1D1D1B;stroke-width:0.4597;stroke-linecap:round;stroke-linejoin:round;stroke-miterlimit:10;" d="
		M84.801,62.579c0,0-1.464,5.717-0.059,5.504c1.405-0.214,2.348-4.108,2.348-4.108"/>
	<path style="fill:none;stroke:#1D1D1B;stroke-width:0.4597;stroke-linecap:round;stroke-linejoin:round;stroke-miterlimit:10;" d="
		M91.065,64.146c0,0,1.755,5.747,2.614,4.084s0.461-4.97,0.461-4.97"/>
	<path style="fill:none;stroke:#1D1D1B;stroke-width:0.4597;stroke-linecap:round;stroke-linejoin:round;stroke-miterlimit:10;" d="
		M91.817,46.611c0,0-0.397,1.036,0.52,1.096c0.413,0.027,0.492-0.268,0.266-0.562c-0.28-0.364-0.772-0.253-1.168-0.25"/>
	<path style="fill:#DDDDDD;" d="M54.322,256.371c0,0,121.349-98.06,306.13-76.916c140.41,16.067,191.829,75.69,191.829,75.69
		L54.322,256.371z"/>
	<path style="fill:#E10918;stroke:#1D1D1B;stroke-width:0.4597;stroke-miterlimit:10;" d="M83.985,220.767
		c0,0-2.901,0.415-3.212-0.965c-0.332-1.473,2.34-2.442,2.34-2.442"/>
	<path style="fill:#E10918;stroke:#1D1D1B;stroke-width:0.4597;stroke-miterlimit:10;" d="M58.634,187.256
		c0,0,1.664-2.552,2.913-1.889c1.334,0.708,0.097,3.948,0.097,3.948"/>
	<path style="fill:#E10918;stroke:#1D1D1B;stroke-width:0.4597;stroke-miterlimit:10;" d="M91.857,159.784
		c0,0,1.393-2.444,2.44-1.809c1.117,0.678,0.082,3.781,0.082,3.781"/>
	<path style="fill:#E10918;stroke:#1D1D1B;stroke-width:0.4597;stroke-miterlimit:10;" d="M88.991,159.855
		c0,0-0.122-3.044,1.281-3.227c1.497-0.195,2.366,3.162,2.366,3.162"/>
	<path style="fill:#E10918;stroke:#1D1D1B;stroke-width:0.4597;stroke-miterlimit:10;" d="M80.86,163.344
		c0,0-1.866-2.408-0.829-3.371c1.106-1.028,3.762,1.202,3.762,1.202"/>
	<path style="fill:none;stroke:#1D1D1B;stroke-width:0.4597;stroke-linecap:round;stroke-linejoin:round;stroke-miterlimit:10;" d="
		M413.756,191.719c33.338,8.977,71.032,23.031,106.603,41.439"/>
	<path style="fill:#E10918;" d="M80.288,162.804c0,0-7.567-3.317-2.459,1.687c0,0-8.925-4.85-1.116,3.496
		c0,0-7.702-2.48-1.825,2.386c0,0-3.56-0.258,0.103,2.992c0,0-2.565,0.823,0.055,3.155c0,0-1.551,1.433,0.299,2.815
		c0,0-0.861,1.844,0.922,2.275c0,0-1.23,1.353,0.922,1.783"/>
	<path style="fill:#DDDDDD;" d="M82.355,237.177c0,0,4.302-8.604,0.935-10.101s13.094-11.41,19.641-9.727
		c0,0,1.122,7.295,5.799,9.166C113.406,228.386,82.355,237.177,82.355,237.177z"/>
	<path style="fill:#E10918;" d="M79.606,187.518c0,0-3.295,0.486-4.56-0.524c-1.266-1.01-1.378-5.498-2.472-4.127
		c-1.094,1.371-1.238,8.338,4.831,10.293c0,0,2.852,1.241,3.876-2.019C82.306,187.882,79.606,187.518,79.606,187.518"/>
	<path style="fill:none;stroke:#1D1D1B;stroke-width:0.4597;stroke-linecap:round;stroke-linejoin:round;stroke-miterlimit:10;" d="
		M80.175,187.454c0,0-3.799,1.333-5.154-0.573c-0.938-1.32-1.351-4.983-2.446-3.612c-1.094,1.371,0.403,8.736,5.432,9.297"/>
	<path style="fill:#A6ADAA;" d="M106.456,246.739c0,0-0.245-3.92,4.287-4.9c4.532-0.98,9.8-0.857,8.697,2.45
		C118.338,247.596,108.048,249.679,106.456,246.739z"/>
	<path style="fill:#A6ADAA;" d="M202.401,230.748c0,0-0.245-3.92,4.287-4.9c4.532-0.98,9.8-0.857,8.697,2.45
		C214.283,231.605,203.993,233.688,202.401,230.748z"/>
	<path style="fill:#6F6F6E;" d="M179.089,220.377c0,0-0.134-1.694,2.338-2.117c2.471-0.423,5.344-0.371,4.742,1.059
		S179.958,221.647,179.089,220.377z"/>
	<path style="fill:#A6ADAA;" d="M242.955,231.582c0,0,0.626-3.88,6.034-3.603c5.408,0.278,11.401,1.827,9.376,4.746
		C256.34,235.643,244.096,234.874,242.955,231.582z"/>
	<path style="fill:#A6ADAA;" d="M421.611,226.787c0,0,0.479-2.562,2.892-2.657s5.024,0.608,3.966,2.615
		C427.411,228.75,421.955,228.875,421.611,226.787z"/>
	<path style="fill:#6F6F6E;" d="M237.98,199.464c0,0,9.612-1.352,11.565-1.051s13.367,0,10.513,4.806
		C257.205,208.025,233.625,204.12,237.98,199.464z"/>
	<path style="fill:#6F6F6E;" d="M338.206,238.461c0,0,4.445-0.944,5.348-0.735c0.903,0.21,6.181,0,4.862,3.358
		C347.096,244.442,336.192,241.714,338.206,238.461z"/>
	<path style="fill:#6F6F6E;" d="M462.751,225.293c0,0,7.437,0.944,8.847,1.524c1.41,0.581,10.014,2.584,7.037,5.284
		S458.676,227.601,462.751,225.293z"/>
	<path style="fill:none;stroke:#1D1D1B;stroke-width:0.4597;stroke-linecap:round;stroke-linejoin:round;stroke-miterlimit:10;" d="
		M209.436,186.764c51.908-9.602,132.294-15.867,206.685,3.91"/>
	<g>
		<path style="fill:#1CA8E0;" d="M33.217,132.929c0,0-4.179-3.393,1.172-8.695c3.044-3.016,8.388,0.523,9.132,1.4
			c0.744,0.878,2.188,4.492-1.651,8.523C38.032,138.189,33.443,133.692,33.217,132.929z"/>
		
			<path style="fill:none;stroke:#1D1D1B;stroke-width:0.4597;stroke-linecap:round;stroke-linejoin:round;stroke-miterlimit:10;" d="
			M35.251,123.834c1.619-0.54,4.371-0.657,5.814,0.126c2.751,1.492,3.533,5.371,2.041,8.122c-1.492,2.751-4.931,3.771-7.682,2.279
			c-2.751-1.492-4.211-5.17-2.719-7.921c0.586-1.08,2.565-2.526,3.718-3.063"/>
	</g>
	<path style="fill:none;stroke:#1D1D1B;stroke-width:0.4597;stroke-linecap:round;stroke-linejoin:round;stroke-miterlimit:10;" d="
		M104.135,224.166c29.386-12.864,74.295-30.573,114.401-38.331"/>
	<path style="fill:none;stroke:#1D1D1B;stroke-width:0.4597;stroke-linecap:round;stroke-linejoin:round;stroke-miterlimit:10;" d="
		M54.003,254.256c0,0,28.301-20.681,36.112-24.345"/>
	<path style="fill:none;stroke:#1D1D1B;stroke-width:0.4597;stroke-linecap:round;stroke-linejoin:round;stroke-miterlimit:10;" d="
		M513.76,242.892c0,0,5.31-2.276,3.034-6.069c0,0,15.332,4.907,15.931,3.414c1.186-2.954-12.93-3.326-12.93-3.326"/>
	<path style="fill:none;stroke:#1D1D1B;stroke-width:0.4597;stroke-linecap:round;stroke-linejoin:round;stroke-miterlimit:10;" d="
		M532.43,241.028c0,0-2.668,4.903-0.771,7.558"/>
	<path style="fill:none;stroke:#1D1D1B;stroke-width:0.4597;stroke-linecap:round;stroke-linejoin:round;stroke-miterlimit:10;" d="
		M484.635,218.278c0,0,1.888-2.392,1.133-3.651c-0.755-1.259,3.147,3.147,4.909,2.266s-3.273-2.14-3.273-2.14"/>
	<path style="fill:none;stroke:#1D1D1B;stroke-width:0.4597;stroke-linecap:round;stroke-linejoin:round;stroke-miterlimit:10;" d="
		M491.357,217.292c0,0-1.636,2.186-1.133,3.776"/>
	<path style="fill:none;stroke:#1D1D1B;stroke-width:0.4597;stroke-linecap:round;stroke-linejoin:round;stroke-miterlimit:10;" d="
		M117.022,231.507c0,0,6.407-4.29,7.437-2.189s-8.738,3.287-6.867,0.223"/>
	<path style="fill:none;stroke:#1D1D1B;stroke-width:0.4597;stroke-linecap:round;stroke-linejoin:round;stroke-miterlimit:10;" d="
		M120.437,242.25c0,0-11.414,7.941-13.379,4.229s14.527-7.489,11.277-1.932"/>
	<path style="fill:none;stroke:#1D1D1B;stroke-width:0.4597;stroke-linecap:round;stroke-linejoin:round;stroke-miterlimit:10;" d="
		M203.46,228.95c0,0,8.028-4.415,10.035-2.007C215.501,229.351,200.65,232.964,203.46,228.95z"/>
	<path style="fill:none;stroke:#1D1D1B;stroke-width:0.4597;stroke-linecap:round;stroke-linejoin:round;stroke-miterlimit:10;" d="
		M239.403,199.6c0,0,19.433-2.508,20.06,2.508c0.627,5.015-28.21,2.508-18.18-5.015"/>
	<path style="fill:none;stroke:#1D1D1B;stroke-width:0.4597;stroke-linecap:round;stroke-linejoin:round;stroke-miterlimit:10;" d="
		M338.024,239.772c0,0,8.44-2.147,8.985,0.032s-12.312,2.616-8.289-1.24"/>
	<path style="fill:none;stroke:#1D1D1B;stroke-width:0.4597;stroke-linecap:round;stroke-linejoin:round;stroke-miterlimit:10;" d="
		M491.049,242.479c0,0,6.052,1.066,5.457,3.223c-0.596,2.157-8.61-2.019-4.519-4.063"/>
	<path style="fill:none;stroke:#1D1D1B;stroke-width:0.4597;stroke-linecap:round;stroke-linejoin:round;stroke-miterlimit:10;" d="
		M387.375,228.406c0,0,3.065-0.557,4.458,0c1.393,0.557-6.13,3.622-3.901-1.114"/>
	<path style="fill:none;stroke:#1D1D1B;stroke-width:0.4597;stroke-linecap:round;stroke-linejoin:round;stroke-miterlimit:10;" d="
		M180.507,218.781c0,0,3.065-0.557,4.458,0c1.393,0.557-6.13,3.622-3.901-1.114"/>
	<path style="fill:none;stroke:#1D1D1B;stroke-width:0.4597;stroke-linecap:round;stroke-linejoin:round;stroke-miterlimit:10;" d="
		M257.313,233.608c0,0-9.118,0.966-13.086-0.974c-3.968-1.94,18.784-9.294,11.207,4.123"/>
	<path style="fill:none;stroke:#1D1D1B;stroke-width:0.4597;stroke-linecap:round;stroke-linejoin:round;stroke-miterlimit:10;" d="
		M462.976,224.834c0,0,16.053,3.421,14.737,6.579c-1.316,3.158-18.685-5.79-13.158-5.527"/>
	<path style="fill:none;stroke:#1D1D1B;stroke-width:0.4597;stroke-linecap:round;stroke-linejoin:round;stroke-miterlimit:10;" d="
		M423.501,225.097c0,0,2.105-0.526,3.948,0.526c1.842,1.053-3.684,1.842-3.421,0.79"/>
	<path style="fill:none;stroke:#1D1D1B;stroke-width:0.4597;stroke-linecap:round;stroke-linejoin:round;stroke-miterlimit:10;" d="
		M367.332,197.459c0,0-0.533,1.999,3.998,0.933c2.412-0.568,0-1.866,0-1.866"/>
	<g>
		<path style="fill:#F9BA05;" d="M382.563,77.887c0,0,6.539-13.122,16.215-11.73c9.676,1.391,12.322,14.686,12.041,17.297
			c-0.281,2.611-3.985,10.678-16.683,10.67C381.437,94.115,381.656,79.459,382.563,77.887z"/>
		
			<path style="fill:none;stroke:#1D1D1B;stroke-width:0.4597;stroke-linecap:round;stroke-linejoin:round;stroke-miterlimit:10;" d="
			M400.794,66.951c3.437,1.827,7.957,6.194,8.932,9.809c1.858,6.892-3.324,14.282-10.217,16.14s-13.986-2.223-15.843-9.116
			c-1.858-6.892,1.927-15.087,8.819-16.945c2.705-0.729,8.207,0.268,10.907,1.33"/>
		<path style="fill:#95BF1E;" d="M382.221,79.772c0,0-11.539,6.679-6.81,7.721c4.729,1.042,44.35-5.69,43.746-12.447
			c0,0-0.506-3.859-11.308-2.179l0.766,1.059c0,0,5.062,0.476,5.428,1.75c0.366,1.274-38.623,17.568-31.765,6.215L382.221,79.772z"
			/>
		
			<path style="fill:none;stroke:#1D1D1B;stroke-width:0.4597;stroke-linecap:round;stroke-linejoin:round;stroke-miterlimit:10;" d="
			M409.731,74.138c2.134,0.075,3.496,0.505,3.713,1.309c0.549,2.037-8.742,6.407-17.944,8.887
			c-9.201,2.48-14.829,2.132-15.378,0.095c-0.21-0.778,0.684-1.793,2.382-2.889"/>
		
			<path style="fill:none;stroke:#1D1D1B;stroke-width:0.4597;stroke-linecap:round;stroke-linejoin:round;stroke-miterlimit:10;" d="
			M385.487,79.027c-3.018,0.95-7.442,3.333-7.442,3.333c-2.263,1.456-3.455,2.804-3.177,3.835c0.728,2.7,12.262,1.877,24.519-1.427
			c12.256-3.304,21.118-8.036,19.867-10.537c-0.907-1.815-5.753-1.895-7.818-1.571c-1.169,0.184-1.914,0.419-3.082,0.612"/>
	</g>
	<g>
		<path style="fill:#1CA8E0;" d="M458.873,23.139c-8.265-5.617-22.005-7.072-29.076-0.13c-10.214,10.027-2.864,27.595,0.415,29.603
			c4.28,2.622,12.489,11.014,27.471,0c8.401-6.176,10.948-18.882,3.483-26.891C460.205,24.692,460.128,23.991,458.873,23.139z"/>
		
			<path style="fill:none;stroke:#1D1D1B;stroke-width:0.4597;stroke-linecap:round;stroke-linejoin:round;stroke-miterlimit:10;" d="
			M428.106,25.695c-2.473,5.135-4.024,14.206-2.041,19.318c3.78,9.745,16.302,13.977,26.047,10.196
			c9.745-3.78,14.58-14.745,10.8-24.49s-15.349-16.137-25.094-12.357c-3.824,1.484-9.454,7.43-11.721,11.023"/>
		<g>
			<path style="fill:#95BF1E;" d="M436.589,19.48c0,0-0.541,0.216-0.108,1.082c0.433,0.866,0.325,1.082,0.108,1.515
				c-0.216,0.433,1.082,0.757,1.298,0.108c0.216-0.649-1.19-1.298-0.757-1.623C437.563,20.237,436.589,19.48,436.589,19.48z"/>
			<path style="fill:#95BF1E;" d="M438.39,22.417c0,0-0.974,1.082-1.731,0.974s0.325,0.216,0.433,0.974s0.108,1.082-0.757,1.082
				s-1.731,0-1.731,0s0,0.974,0.216,1.515c0.216,0.541,0.974,0.541,0.974,0.541s1.082,1.298,1.298,0.216
				c0.216-1.082,0.325-1.515,0.866-1.623c0.541-0.108,0.216-0.649,0.757-0.649c0.541,0,0.757,0,1.082-0.108s-0.433,0,0.325-0.108
				c0.757-0.108,1.961,1.031,1.711,1.904c-0.199,0.698,0.669-0.822,0.669-0.822s-1.839-1.19-1.298-1.515
				c0.541-0.325,1.623,0.325,1.947,1.082c0.325,0.757,1.406,2.056,1.406,2.056s-0.433-1.623,0.433-1.515s1.19,1.947,2.705,1.839
				c1.515-0.108,1.298,0.325,1.19,1.082c-0.108,0.757-1.298,1.298,0.216,2.813c1.515,1.515,2.597,2.164,2.705,4.003
				s1.298,0.325,1.947,0c0.649-0.325,2.921-0.974,3.029-2.164c0.108-1.19-0.974-2.164-1.406-1.839
				c-0.433,0.325-0.974,0.974-1.515,0.325c-0.541-0.649-1.515-1.406-1.082-2.056c0.433-0.649,3.246,1.947,4.111,1.406
				c0.866-0.541,0-1.19,0-2.272s-1.406-2.597-2.056-2.272c-0.649,0.325-1.947,0.216-2.38-0.216c-0.433-0.433-1.082-0.433-2.38-0.649
				c-1.298-0.216-3.354,0.649-3.895-1.082c-0.541-1.731-1.839-2.597-2.272-1.947c-0.433,0.649,3.354,1.406,4.003,0.757
				c0.649-0.649,1.623-1.082,0.649-1.623c-0.974-0.541-1.839-1.19-2.597-1.839c-0.757-0.649-2.705-1.515-3.029-0.757
				c-0.325,0.757-1.082,1.19-1.839,1.298S438.499,22.309,438.39,22.417z"/>
			<path style="fill:#95BF1E;" d="M430.226,34.481c0.297-0.535,2.697-2.988,3.563-3.42c0.866-0.433,0.707-2.152,1.356-2.477
				c0.649-0.325,0.757,0,1.623,0s0.974-0.541,2.164-0.649s2.38,0.974,3.246,1.515c0.866,0.541,1.19,0.108,2.272,0.325
				c1.082,0.216,2.705,0.649,3.787,1.947c1.082,1.298,1.839,5.842,4.219,5.734c2.38-0.108,2.705,0.433,1.406,1.839
				c-1.298,1.406-3.354,1.515-3.246,3.895s1.839,3.246,0,4.652c-1.839,1.406-0.649,2.705-1.731,3.895
				c-1.082,1.19-2.488,3.678-4.328,3.354s-2.272-2.164-2.164-3.787s0.866-6.059,0.108-6.708c-0.757-0.649-3.895-4.436-4.868-4.544
				c-0.974-0.108-4.552,0.813-4.984,0.272C432.216,39.783,429.685,35.454,430.226,34.481z"/>
			<path style="fill:#95BF1E;" d="M451.481,50.438c0-0.342,0.216-0.757,0.433-1.623c0.216-0.866,1.082-0.757,1.731-1.515
				s0.974-0.541,0.541,0.866c-0.433,1.406-0.541,3.246-1.406,3.354S451.481,50.654,451.481,50.438z"/>
		</g>
		<g>
			
				<path style="fill:none;stroke:#1D1D1B;stroke-width:0.4597;stroke-linecap:round;stroke-linejoin:round;stroke-miterlimit:10;" d="
				M436.807,19.604c0,0-0.541,0.216-0.108,1.082c0.433,0.866,0.325,1.082,0.108,1.515c-0.216,0.433,1.082,0.757,1.298,0.108
				c0.216-0.649-1.19-1.298-0.757-1.623C437.78,20.361,436.807,19.604,436.807,19.604z"/>
			
				<path style="fill:none;stroke:#1D1D1B;stroke-width:0.4597;stroke-linecap:round;stroke-linejoin:round;stroke-miterlimit:10;" d="
				M439.079,22.417c0,0-0.974,1.082-1.731,0.974s0.325,0.216,0.433,0.974s0.108,1.082-0.757,1.082s-1.731,0-1.731,0
				s0,0.974,0.216,1.515c0.216,0.541,0.974,0.541,0.974,0.541s1.082,1.298,1.298,0.216s0.325-1.515,0.866-1.623
				c0.541-0.108,0.216-0.649,0.757-0.649s0.757,0,1.082-0.108c0.325-0.108-0.433,0,0.325-0.108s1.17,1.404,0.92,2.277
				c-0.199,0.698,0.885-0.974,0.885-0.974s-1.81-1.328-1.269-1.653c0.541-0.325,2.168,0.241,2.493,0.999
				c0.325,0.757,1.406,2.056,1.406,2.056s-0.433-1.623,0.433-1.515s1.19,1.947,2.705,1.839s0.424,0.413,0.316,1.17
				c-0.108,0.757-0.827,1.234,0.687,2.749c1.515,1.515,3,2.14,3.108,3.979s1.298,0.325,1.947,0c0.649-0.325,2.921-0.974,3.029-2.164
				c0.108-1.19-0.974-2.164-1.406-1.839c-0.433,0.325-0.974,0.974-1.515,0.325c-0.541-0.649-2.553-1.222-2.12-1.871
				c0.433-0.649,4.284,1.763,5.149,1.222c0.866-0.541-1.124-1.22-1.124-2.302c0-1.082-0.282-2.566-0.932-2.242
				c-0.649,0.325-1.947,0.216-2.38-0.216c-0.433-0.433-1.082-0.433-2.38-0.649s-4.036,0.782-4.577-0.949
				c-0.541-1.731-0.039-2.302-0.472-1.653c-0.433,0.649,2.236,0.979,2.885,0.33c0.649-0.649,0.45-1.353-0.524-1.894
				c-0.974-0.541-0.666-0.919-1.424-1.568c-0.757-0.649-2.705-1.515-3.029-0.757c-0.325,0.757-1.082,1.19-1.839,1.298
				S439.187,22.309,439.079,22.417z"/>
			
				<path style="fill:none;stroke:#1D1D1B;stroke-width:0.4597;stroke-linecap:round;stroke-linejoin:round;stroke-miterlimit:10;" d="
				M430.929,33.16c0.297-0.535,1.491-1.825,2.356-2.258c1.262-0.631,2.254-2.171,2.548-2.318c0.649-0.325,0.757,0,1.623,0
				s0.974-0.541,2.164-0.649c1.19-0.108,2.38,0.974,3.246,1.515c0.866,0.541,1.19,0.108,2.272,0.325s2.705,0.649,3.787,1.947
				c1.082,1.298,1.839,5.842,4.219,5.734s1.566,0.385,0.268,1.792c-1.298,1.406-2.216,1.562-2.107,3.942
				c0.108,2.38,1.839,3.246,0,4.652c-1.839,1.406-0.649,2.705-1.731,3.895c-1.082,1.19-2.488,3.678-4.328,3.354
				s-2.938-2.046-2.83-3.669c0.108-1.623,0.463-6.223-0.295-6.872c-0.757-0.649-2.826-4.388-3.8-4.497
				c-0.974-0.108-4.505,0.423-4.938-0.118C432.95,39.393,430.388,34.134,430.929,33.16z"/>
			
				<path style="fill:none;stroke:#1D1D1B;stroke-width:0.4597;stroke-linecap:round;stroke-linejoin:round;stroke-miterlimit:10;" d="
				M452.169,50.438c0-0.342,0.216-0.757,0.433-1.623c0.216-0.866,1.082-0.757,1.731-1.515c0.649-0.757,0.974-0.541,0.541,0.866
				c-0.433,1.406-0.541,3.246-1.406,3.354S452.169,50.654,452.169,50.438z"/>
		</g>
	</g>
	<path style="fill:#FFFFFF;" d="M149.195,131.761c0,0,1.02-0.99,2.938,0.711c0.864,0.766,2.909,7.861,1.667,7.845
		S147.454,135.522,149.195,131.761z"/>
	<path style="fill:none;stroke:#1D1D1B;stroke-width:0.4597;stroke-linecap:round;stroke-linejoin:round;stroke-miterlimit:10;" d="
		M162.422,224.349c0,0-0.29,0.733,4.352,0.521c4.642-0.212,0.67-1.804-1.413-1.374"/>
	<path style="fill:none;stroke:#1D1D1B;stroke-width:0.4597;stroke-linecap:round;stroke-linejoin:round;stroke-miterlimit:10;" d="
		M146.021,226.489c0,0,2.612,0.299,2.702,0.59c0.405,1.3-5.346,1.434-5.277,0.057"/>
	<circle style="fill:#E10918;" cx="49.826" cy="116.584" r="1.781"/>
	<circle style="fill:#E10918;" cx="275.38" cy="86.977" r="1.781"/>
	<circle style="fill:#1D1D1B;" cx="46.609" cy="142.785" r="1.326"/>
	<circle style="fill:#E10918;" cx="113.259" cy="91.374" r="0.99"/>
	<circle style="fill:#F9BA05;" cx="16.013" cy="15.612" r="2.038"/>
	<circle style="fill:#F9BA05;" cx="541.304" cy="38.478" r="1.586"/>
	<circle style="fill:#1D1D1B;" cx="197.835" cy="74.143" r="0.99"/>
	<circle style="fill:#1D1D1B;" cx="291.605" cy="119.802" r="0.99"/>
	<circle style="fill:#1D1D1B;" cx="433.178" cy="78.648" r="1.441"/>
	<circle style="fill:#1D1D1B;" cx="526.795" cy="171.436" r="1.441"/>
	<circle style="fill:#F9BA05;" cx="247.938" cy="108.923" r="1.566"/>
	<circle style="fill:#95BF1E;" cx="35.549" cy="71.781" r="1.572"/>
	<circle style="fill:#95BF1E;" cx="525.569" cy="220.926" r="1.012"/>
	<circle style="fill:#E10918;" cx="473.53" cy="26.85" r="0.892"/>
	<circle style="fill:#E10918;" cx="410.798" cy="27.927" r="0.892"/>
	<circle style="fill:#E20613;" cx="528.787" cy="106.012" r="1.253"/>
	<circle style="fill:#95BF1E;" cx="124.385" cy="15.612" r="0.911"/>
	<circle style="fill:#95BF1E;" cx="128.427" cy="174.952" r="0.911"/>
	<circle style="fill:#95BF1E;" cx="205.547" cy="27.927" r="1.195"/>
	<circle style="fill:#95BF1E;" cx="395.627" cy="49.821" r="1.195"/>
	<g>
		
			<path style="fill:none;stroke:#1D1D1B;stroke-width:0.4597;stroke-linecap:round;stroke-linejoin:round;stroke-miterlimit:10;" d="
			M84.279,234.331c0,0,3.97-6.037-1.021-8.424c0,0,19.378-5.456,18.973-7.428c-0.8-3.899-15.782,5.45-15.782,5.45"/>
		
			<path style="fill:none;stroke:#1D1D1B;stroke-width:0.4597;stroke-linecap:round;stroke-linejoin:round;stroke-miterlimit:10;" d="
			M102.468,219.509c0,0,0.599,6.954,4.409,8.416"/>
	</g>
	<path style="fill:none;stroke:#1D1D1B;stroke-width:0.4597;stroke-linecap:round;stroke-linejoin:round;stroke-miterlimit:10;" d="
		M31.41,128.785c0,0-1.699,1.707,3.697,0.793c5.396-0.914,10.709-2.996,10.045-3.242s-1.995,0.025-1.995,0.025"/>
	<path style="fill:none;stroke:#1D1D1B;stroke-width:0.4597;stroke-linecap:round;stroke-linejoin:round;stroke-miterlimit:10;" d="
		M31.928,127.808c0,0-2.734,0.371-3.368,1.356c-0.634,0.985,6.276,2.371,14.102-0.713"/>
	<circle style="fill:#1D1D1B;" cx="89.05" cy="113.367" r="0.889"/>
	<circle style="fill:#1D1D1B;" cx="497.297" cy="14.498" r="1.113"/>
	<circle style="fill:#1D1D1B;" cx="402.893" cy="56.582" r="1.113"/>
	<path style="fill:#8B5123;" d="M343.285,127.316c0,0,11.804-1.523,19.924,21.551c9.014,25.613,6.365,33.102,6.365,33.102
		c-0.62,0.481-2.011,0.944-2.797,0.647c-0.852-0.323-5.879-10.383-7.473-10.412c-4.583-0.083-7.85,2.213-7.85,2.213
		s2.618,15.292,0.464,15.761c-2.154,0.468-30.183-31.308-21.864-56.828"/>
	<path style="fill:none;stroke:#1D1D1B;stroke-width:0.4597;stroke-linecap:round;stroke-linejoin:round;stroke-miterlimit:10;" d="
		M332.603,159.627c4.279,10.962,9.795,21.994,18.988,30.267l0.919-0.919c0-4.597-0.919-9.193-1.839-13.79
		c0-0.919,0.919-1.839,0.919-1.839c2.758-1.839,5.516-2.758,8.274-1.839c3.677,1.839,4.597,7.354,7.354,11.032
		c0.919,0.919,2.758,0,2.758-0.919c0.919-9.193-0.919-17.467-3.601-25.45"/>
	
		<path style="fill:#1CA8E0;stroke:#1D1D1B;stroke-width:0.4597;stroke-linecap:round;stroke-linejoin:round;stroke-miterlimit:10;" d="
		M344.994,125.285c0,0-0.836,0-1.394,0.335s-13.049,4.796-14.61,9.424l1.729,1.729l15.837-9.703L344.994,125.285z"/>
	
		<path style="fill:#8B5123;stroke:#1D1D1B;stroke-width:0.4597;stroke-linecap:round;stroke-linejoin:round;stroke-miterlimit:10;" d="
		M333.84,162.22c0,0-0.523,1.602-4.015-1.653c0,0,1.1,6.335,6.101,6.23"/>
	
		<line style="fill:none;stroke:#1D1D1B;stroke-width:0.4597;stroke-linecap:round;stroke-linejoin:round;stroke-miterlimit:10;" x1="366.788" y1="180.122" x2="367.832" y2="182.804"/>
	
		<line style="fill:none;stroke:#1D1D1B;stroke-width:0.4597;stroke-linecap:round;stroke-linejoin:round;stroke-miterlimit:10;" x1="368.494" y1="179.84" x2="368.757" y2="182.318"/>
	
		<line style="fill:none;stroke:#1D1D1B;stroke-width:0.4597;stroke-linecap:round;stroke-linejoin:round;stroke-miterlimit:10;" x1="351.509" y1="187.149" x2="351.809" y2="189.873"/>
	
		<line style="fill:none;stroke:#1D1D1B;stroke-width:0.4597;stroke-linecap:round;stroke-linejoin:round;stroke-miterlimit:10;" x1="350.225" y1="187.096" x2="350.977" y2="189.265"/>
	<path style="fill:#FFFFFF;stroke:#1D1D1B;stroke-width:0.4597;stroke-linejoin:round;stroke-miterlimit:10;" d="M349.874,91.361
		c-0.181-1.096-0.207-2.413,0.344-3.412c1.158-2.102,4.957-0.367,3.511,1.172C353.059,89.835,349.577,89.559,349.874,91.361z"/>
	<g>
		<path style="fill:#8B5123;" d="M324.176,110.83c0,0,0.678,1.56,1.272,4.518c1.476,7.354,3.125,16.898,5.79,20.041
			c0,0,5.575,2.36,9.196-1.391c3.621-3.752,6.806-26.453,6.309-31.361c-0.497-4.908-3.521-9.527-4.636-1.224l-0.431,5.885
			c0,0-6.06-0.245-11.616,1.587c-1.604,0.529-5.533-9.222-8.136-8.897C319.274,100.319,321.645,106.778,324.176,110.83"/>
		
			<path style="fill:none;stroke:#1D1D1B;stroke-width:0.4597;stroke-linecap:round;stroke-linejoin:round;stroke-miterlimit:10;" d="
			M329.902,115.406c0.01,0.296-0.661,1.077-1.137,0.839c-0.85-0.427,0.203-1.074,0.646-1.072
			C329.759,115.175,329.897,115.276,329.902,115.406z"/>
		<path style="fill:#1D1D1B;" d="M343.537,114.581c0.02,0.857-0.321,1.769-1.025,2.535c-1.666,1.812-5.239,4.491-6.29,2.112
			c-1.35-3.056,2.268-8.11,4.949-7.421C342.717,112.205,343.508,113.335,343.537,114.581z"/>
		<path style="fill:#FFFFFF;" d="M338.69,114.17c0.031,0.066,0.464,0.547,0.459,0.57c-0.043,0.203-0.41,0.757-1.068,0.739
			c-1.749-0.05-1.006-1.186,0.337-1.356c0.096-0.012,0.183,0.003,0.262,0.035"/>
		<path style="fill:#1D1D1B;" d="M338.046,114.474c0.021,0.045,0.315,0.371,0.311,0.386c-0.029,0.137-0.278,0.514-0.724,0.501
			c-1.186-0.034-0.682-0.804,0.229-0.919c0.065-0.008,0.124,0.002,0.178,0.023"/>
		<circle style="fill:none;stroke:#1D1D1B;stroke-width:0.4597;stroke-miterlimit:10;" cx="338.53" cy="133.576" r="0.079"/>
		<circle style="fill:none;stroke:#1D1D1B;stroke-width:0.4597;stroke-miterlimit:10;" cx="332.74" cy="134.133" r="0.079"/>
		<circle style="fill:none;stroke:#1D1D1B;stroke-width:0.4597;stroke-miterlimit:10;" cx="333.269" cy="133.125" r="0.079"/>
		<circle style="fill:none;stroke:#1D1D1B;stroke-width:0.4597;stroke-miterlimit:10;" cx="331.712" cy="133.445" r="0.079"/>
		<circle style="fill:none;stroke:#1D1D1B;stroke-width:0.4597;stroke-miterlimit:10;" cx="339.501" cy="132.831" r="0.079"/>
		<circle style="fill:none;stroke:#1D1D1B;stroke-width:0.4597;stroke-miterlimit:10;" cx="338.192" cy="131.899" r="0.079"/>
		
			<path style="fill:none;stroke:#1D1D1B;stroke-width:0.4597;stroke-linecap:round;stroke-linejoin:round;stroke-miterlimit:10;" d="
			M325.123,109.473c0,0,0.243,1.85,0.68,4.58c1.06,6.611,3.263,18.382,5.929,21.524c0,0,4.233,2.278,7.854-1.473
			c3.621-3.752,8.847-27.093,8.35-32.001c-0.497-4.908-4.256-8.938-4.944-1.551l-0.696,6.977c0,0-7.314-0.863-13.085,1.461
			c-1.567,0.631-5.039-6.876-7.116-8.478c-2.077-1.602-1.39,6.703,2.363,10.953"/>
		
			<line style="fill:#FFFFFF;stroke:#1D1D1B;stroke-width:0.4597;stroke-linecap:round;stroke-linejoin:round;stroke-miterlimit:10;" x1="327.934" y1="114.656" x2="330.037" y2="113.504"/>
		
			<line style="fill:#FFFFFF;stroke:#1D1D1B;stroke-width:0.4597;stroke-linecap:round;stroke-linejoin:round;stroke-miterlimit:10;" x1="339.981" y1="110.997" x2="342.366" y2="111.241"/>
		
			<path style="fill:#F29FB4;stroke:#1D1D1B;stroke-width:0.4597;stroke-linecap:round;stroke-linejoin:round;stroke-miterlimit:10;" d="
			M336.265,131.977c0,0-0.424,2.966-2.15,1.601"/>
		
			<polygon style="fill:none;stroke:#1D1D1B;stroke-width:0.4597;stroke-linecap:round;stroke-linejoin:round;stroke-miterlimit:10;" points="
			328.891,115.433 329.074,116.233 328.6,115.93 		"/>
	</g>
	<path style="fill:none;stroke:#1D1D1B;stroke-width:0.4597;stroke-linecap:round;stroke-linejoin:round;stroke-miterlimit:10;" d="
		M374.839,204.554c0,0,1.494-0.079,3.392-0.014c3.137,0.108,7.378,0.613,7.801,2.525c0.678,3.07-5.427,5.861-11.532,5.023
		s-6.105-0.837-6.105-0.837L374.839,204.554z"/>
	
		<line style="fill:none;stroke:#1D1D1B;stroke-width:0.4597;stroke-linecap:round;stroke-linejoin:round;stroke-miterlimit:10;" x1="376.867" y1="204.883" x2="370.666" y2="211.425"/>
	
		<line style="fill:none;stroke:#1D1D1B;stroke-width:0.4597;stroke-linecap:round;stroke-linejoin:round;stroke-miterlimit:10;" x1="369.167" y1="204.134" x2="362.966" y2="210.676"/>
	
		<line style="fill:none;stroke:#1D1D1B;stroke-width:0.4597;stroke-linecap:round;stroke-linejoin:round;stroke-miterlimit:10;" x1="380.342" y1="204.747" x2="373.418" y2="212.09"/>
	
		<line style="fill:none;stroke:#1D1D1B;stroke-width:0.4597;stroke-linecap:round;stroke-linejoin:round;stroke-miterlimit:10;" x1="383.072" y1="205.486" x2="377.139" y2="212.107"/>
	<path style="fill:none;stroke:#1D1D1B;stroke-width:0.4597;stroke-linecap:round;stroke-linejoin:round;stroke-miterlimit:10;" d="
		M371.961,204.611l-5.799,6.083c0,0-4.744,0.837-5.023-0.837S364.425,203.495,371.961,204.611z"/>
	<path style="fill:none;stroke:#1D1D1B;stroke-width:0.4597;stroke-linecap:round;stroke-linejoin:round;stroke-miterlimit:10;" d="
		M384.675,206.882c0,0-2.806,5.527-11.48,4.082"/>
	<path style="fill:none;stroke:#1D1D1B;stroke-width:0.4597;stroke-linecap:round;stroke-linejoin:round;stroke-miterlimit:10;" d="
		M337.756,214.591c0,0-3.678-3.857-1.68-6.394"/>
	<path style="fill:none;stroke:#1D1D1B;stroke-width:0.4597;stroke-linecap:round;stroke-linejoin:round;stroke-miterlimit:10;" d="
		M337.35,212.199c0,0-1.613-3.816,1.297-4.842"/>
	<path style="fill:#1CA8E0;" d="M343.379,190.407c0,0-10.464,9.687-10.285,12.485c0,0,7.266,2.481,8.444,3.856
		c1.177,1.375-4.811,2.513-1.713,6.099c3.098,3.587,7.069,5.034,12.521-2.406c0,0,3.888-6.623,3.511-7.345
		C355.857,203.096,346.904,190.709,343.379,190.407z"/>
	<path style="fill:none;stroke:#1D1D1B;stroke-width:0.4597;stroke-linecap:round;stroke-linejoin:round;stroke-miterlimit:10;" d="
		M334.034,203.02c0,0,9.275,3.13,9.01,4.16c-0.265,1.03-4.096,2.229-3.175,4.333s4.825,7.019,12.232-1.842l3.766-4.909l0.473,0.734
		l-3.209,4.44c0,0-1.603-0.679-1.883-0.532"/>
	<path style="fill:none;stroke:#1D1D1B;stroke-width:0.4597;stroke-linecap:round;stroke-linejoin:round;stroke-miterlimit:10;" d="
		M355.145,203.891c0,0-8.27-11.907-12.199-12.261"/>
	<path style="fill:none;stroke:#1D1D1B;stroke-width:0.4597;stroke-linecap:round;stroke-linejoin:round;stroke-miterlimit:10;" d="
		M334.107,202.988c0,0,10.817-9.095,10.267-12.337s-10.862,9.985-10.862,9.985"/>
	<path style="fill:none;stroke:#1D1D1B;stroke-width:0.4597;stroke-linecap:round;stroke-linejoin:round;stroke-miterlimit:10;" d="
		M344.327,190.328c0,0,6.834,0.126-6.014,10.868"/>
	<path style="fill:#1CA8E0;" d="M366.99,147.985c0,0-12.622-27.455-21.884-22.7c0,0,1.108,17.491-15.669,9.447
		c0,0-6.349,12.178,0.954,25.567c0,0,12.237-1.742,12.237,0.326"/>
	<path style="fill:none;stroke:#1D1D1B;stroke-width:0.4597;stroke-linecap:round;stroke-linejoin:round;stroke-miterlimit:10;" d="
		M334.547,187.269c0,0-12.648-1.273-11.838,3.092c0.81,4.365,21.702-1.214,10.488-5.912"/>
	
		<ellipse transform="matrix(0.9974 -0.072 0.072 0.9974 -9.7427 24.564)" style="fill:#E10918;" cx="335.681" cy="147.353" rx="1.783" ry="1.7"/>
	
		<ellipse transform="matrix(0.9974 -0.072 0.072 0.9974 -13.4272 25.33)" style="fill:#E10918;" cx="344.458" cy="198.818" rx="1.783" ry="1.7"/>
	<path style="fill:none;stroke:#1D1D1B;stroke-width:0.4597;stroke-linecap:round;stroke-linejoin:round;stroke-miterlimit:10;" d="
		M335.645,149.053c0.841-0.061,1.474-0.792,1.414-1.634c-0.061-0.841-0.792-1.474-1.634-1.414c-0.841,0.061-1.771,0.718-1.71,1.56
		C333.775,148.407,334.803,149.114,335.645,149.053z"/>
	<path style="fill:#1CA8E0;" d="M366.371,148.095c0,0,3.672,10.022,2.298,12.104c-4.903,7.431-29.36,13.294-30.739,13.294
		s-6.187-15.898-6.187-15.898"/>
	<path style="fill:none;stroke:#1D1D1B;stroke-width:0.4597;stroke-linecap:round;stroke-linejoin:round;stroke-miterlimit:10;" d="
		M368.368,159.328c0,0-6.205,9.423-32.176,13.33c0,0-1.637-0.782,0.919-2.298"/>
	<g>
		<g>
			<g>
				<path style="fill:#8B5123;" d="M339.279,159.351c0.374,0.111,2.096,0.471,2.463,0.616c0.014,0.005,0.266,0.051,0.28,0.056
					c0.551,3.758,0.283,6.135-1.219,6.265c-2.006,0.174-4.36-3.282-6.276-6.943C336.566,159.386,337.253,159.565,339.279,159.351z"
					/>
				
					<path style="fill:none;stroke:#1D1D1B;stroke-width:0.4597;stroke-linecap:round;stroke-linejoin:round;stroke-miterlimit:10;" d="
					M334.251,159.857c1.073,1.652,3.719,6.177,6.236,5.8c2.325-0.348,1.767-3.95,1.567-5.61"/>
			</g>
		</g>
	</g>
	
		<line style="fill:none;stroke:#1D1D1B;stroke-width:0.4597;stroke-linecap:round;stroke-linejoin:round;stroke-miterlimit:10;" x1="339.744" y1="164.242" x2="340.27" y2="165.47"/>
	
		<line style="fill:none;stroke:#1D1D1B;stroke-width:0.4597;stroke-linecap:round;stroke-linejoin:round;stroke-miterlimit:10;" x1="340.847" y1="164.204" x2="341.076" y2="165.463"/>
	<g>
		<g>
			<g>
				<path style="fill:#8B5123;" d="M359.286,152.003c1.444-1.807,3.344-3.064,5.451-3.927c2.175,3.61,3.613,6.798,2.9,8.081
					c-1.262,2.273-5.193-0.289-8.978-3.611C358.882,152.408,359.096,152.241,359.286,152.003z"/>
			</g>
		</g>
		
			<line style="fill:none;stroke:#1D1D1B;stroke-width:0.4597;stroke-linecap:round;stroke-linejoin:round;stroke-miterlimit:10;" x1="366.06" y1="155.304" x2="366.855" y2="156.632"/>
		
			<line style="fill:none;stroke:#1D1D1B;stroke-width:0.4597;stroke-linecap:round;stroke-linejoin:round;stroke-miterlimit:10;" x1="365.409" y1="155.579" x2="365.686" y2="156.719"/>
		
			<line style="fill:none;stroke:#1D1D1B;stroke-width:0.4597;stroke-linecap:round;stroke-linejoin:round;stroke-miterlimit:10;" x1="366.917" y1="154.859" x2="367.905" y2="155.822"/>
	</g>
	<path style="fill:none;stroke:#1D1D1B;stroke-width:0.4597;stroke-linecap:round;stroke-linejoin:round;stroke-miterlimit:10;" d="
		M365.566,148.66c0.87,1.531,3.625,5.602,2.29,7.478c-2.145,3.014-6.943-2.441-8.052-3.906"/>
	<path style="fill:none;stroke:#1D1D1B;stroke-width:0.4597;stroke-linecap:round;stroke-linejoin:round;stroke-miterlimit:10;" d="
		M343.339,127.641c1.04-0.357,1.435-0.429,2.517-0.239"/>
	<path style="fill:none;stroke:#1D1D1B;stroke-width:0.4597;stroke-linecap:round;stroke-linejoin:round;stroke-miterlimit:10;" d="
		M367.299,147.534c0,0-8.584,3.29-8.584,5.358"/>
	<path style="fill:none;stroke:#1D1D1B;stroke-width:0.4597;stroke-linecap:round;stroke-linejoin:round;stroke-miterlimit:10;" d="
		M367.219,148.066c0,0-11.491-23.213-22.063-22.753c0,0,0.796,17.956-15.982,9.912c0,0-4.703,12.152,1.503,24.332
		c0,0,12.181-0.919,12.181,1.149"/>
	<path style="fill:#1CA8E0;" d="M360.03,173.504c0,0,12.113-3.073,11.553-4.388c0,0-0.354,5.933,0.286,7.18s3.211-2.71,4.872,0.562
		c1.661,3.272,1.533,6.541-5.397,8.264c0,0-5.886,0.843-6.292,0.361C365.052,185.484,359.212,176.118,360.03,173.504z"/>
	<path style="fill:none;stroke:#1D1D1B;stroke-width:0.4597;stroke-linecap:round;stroke-linejoin:round;stroke-miterlimit:10;" d="
		M371.294,170.431c0,0-0.373,6.958,0.443,7.071c0.815,0.113,2.798-2.281,4.036-1.004s3.613,5.516-4.908,8.223l-4.622,1.258
		l0.387,0.554l4.122-0.996c0,0-0.016-1.347,0.171-1.505"/>
	<path style="fill:none;stroke:#1D1D1B;stroke-width:0.4597;stroke-linecap:round;stroke-linejoin:round;stroke-miterlimit:10;" d="
		M371.712,170.756c0,0,0.63,2.153-10.032,3.992"/>
	<path style="fill:none;stroke:#1D1D1B;stroke-width:0.4597;stroke-linecap:round;stroke-linejoin:round;stroke-miterlimit:10;" d="
		M365.83,185.206c0,0-6.105-9.417-5.206-12.337"/>
	<g>
		
			<path style="fill:none;stroke:#1D1D1B;stroke-width:0.4597;stroke-linecap:round;stroke-linejoin:round;stroke-miterlimit:10;" d="
			M360.494,112.749c0.114,1.38,0.196,3.569,0.072,5.097c-0.736,9.087-11.426,19.985-20.282,23.094
			c-14.075,4.941-26.225-7.652-28.106-21.293C307.743,87.503,358.1,83.82,360.494,112.749z"/>
		
			<path style="fill:none;stroke:#1D1D1B;stroke-width:0.4597;stroke-linecap:round;stroke-linejoin:round;stroke-miterlimit:10;" d="
			M357.133,108.142c0,0,2.747,4.721,0.367,9.339l-1.835-0.351c0,0,1.921-0.923,1.72-6.14"/>
		
			<path style="fill:none;stroke:#1D1D1B;stroke-width:0.4597;stroke-linecap:round;stroke-linejoin:round;stroke-miterlimit:10;" d="
			M315.343,125.428c0,0-3.851-7.999,0.593-15.18l1.609,0.993c0,0-4.658,3.535-2.028,12.638"/>
	</g>
	<path style="fill:none;stroke:#1D1D1B;stroke-width:0.4597;stroke-linecap:round;stroke-linejoin:round;stroke-miterlimit:10;" d="
		M341.018,136.805c0,0,9.748,12.765,14.249,31.946"/>
	<path style="fill:none;stroke:#1D1D1B;stroke-width:0.4597;stroke-linecap:round;stroke-linejoin:round;stroke-miterlimit:10;" d="
		M361.396,173.5c0,0,10.142-2.874,9.705-3.866c-0.437-0.992-1.885-0.811-1.885-0.811"/>
	<path style="fill:none;stroke:#1D1D1B;stroke-width:0.4597;stroke-linecap:round;stroke-linejoin:round;stroke-miterlimit:10;" d="
		M366.507,145.796c0,0,0-1.664-1.479-1.294s-8.32,2.588-8.69,6.841"/>
	<path style="fill:none;stroke:#1D1D1B;stroke-width:0.4597;stroke-linecap:round;stroke-linejoin:round;stroke-miterlimit:10;" d="
		M343.396,159.663c0,0,0.8-3.34-6.101-3.513c-7.396-0.185-8.505,2.219-8.505,2.219s-0.76,0.816,1.409,0.586"/>
	<path style="fill:none;stroke:#1D1D1B;stroke-width:0.4597;stroke-linecap:round;stroke-linejoin:round;stroke-miterlimit:10;" d="
		M341.59,156.283c0,0-0.877-6.608-0.674-7.35"/>
	<path style="fill:none;stroke:#1D1D1B;stroke-width:0.4597;stroke-linecap:round;stroke-linejoin:round;stroke-miterlimit:10;" d="
		M358.51,151.87c-0.688-0.749-8.477-8.443-6.836-9.1c0.669-0.267,1.538,1.137,1.538,2.073"/>
	<path style="fill:none;stroke:#1D1D1B;stroke-width:0.4597;stroke-linecap:round;stroke-linejoin:round;stroke-miterlimit:10;" d="
		M332.303,159.055c4.336,14.423,4.515,12.546,5.371,13.687"/>
	<path style="fill:none;stroke:#1D1D1B;stroke-width:0.4597;stroke-linecap:round;stroke-linejoin:round;stroke-miterlimit:10;" d="
		M366.433,148.227c0,0,2.945,8.229,2.772,11.868"/>
	<path style="fill:none;stroke:#1D1D1B;stroke-width:0.4597;stroke-linecap:round;stroke-linejoin:round;stroke-miterlimit:10;" d="
		M362.545,157.654c0,0-3.696,2.095-4.435,1.232c-0.739-0.862-2.218-4.066-2.218-4.066"/>
	<path style="fill:none;stroke:#1D1D1B;stroke-width:0.4597;stroke-linecap:round;stroke-linejoin:round;stroke-miterlimit:10;" d="
		M346.036,155.189c0,0,3.038,6.85,1.971,7.639c-0.966,0.714-2.341,1.602-5.298,1.725"/>
	
		<ellipse transform="matrix(0.9974 -0.072 0.072 0.9974 -11.733 26.7343)" style="fill:#E10918;" cx="364.774" cy="176.032" rx="1.783" ry="1.7"/>
	
		<circle style="fill:none;stroke:#1D1D1B;stroke-width:0.4597;stroke-linecap:round;stroke-linejoin:round;stroke-miterlimit:10;" cx="365.021" cy="176" r="1.114"/>
	<path style="fill:none;stroke:#1D1D1B;stroke-width:0.4597;stroke-linecap:round;stroke-linejoin:round;stroke-miterlimit:10;" d="
		M254.244,95.051"/>
	<ellipse style="fill:#BCBEBC;" cx="478.15" cy="118.844" rx="25.071" ry="24.723"/>
	<polygon style="fill:#E10918;" points="466.33,109.459 469.797,110.615 467.921,115.076 464.506,113.716 	"/>
	<polygon style="fill:#E10918;" points="484.574,114.929 488.255,116.041 487.488,120.664 482.837,119.253 	"/>
	<polygon style="fill:#F9BA05;" points="470.501,110.211 474.712,111.405 473.037,115.648 468.495,114.612 	"/>
	
		<line style="fill:#9CC31A;stroke:#1D1D1B;stroke-width:0.4597;stroke-linecap:round;stroke-linejoin:round;stroke-miterlimit:10;" x1="461.582" y1="112.514" x2="493.712" y2="123.084"/>
	
		<line style="fill:#9CC31A;stroke:#1D1D1B;stroke-width:0.4597;stroke-linecap:round;stroke-linejoin:round;stroke-miterlimit:10;" x1="460.499" y1="115.379" x2="491.83" y2="124.864"/>
	<polygon style="fill:#9CC31A;" points="481.464,110.574 484.9,111.528 483.932,115.067 480.325,114.013 	"/>
	
		<line style="fill:#9CC31A;stroke:#1D1D1B;stroke-width:0.4597;stroke-linecap:round;stroke-linejoin:round;stroke-miterlimit:10;" x1="471.378" y1="107.192" x2="467.236" y2="117.295"/>
	
		<line style="fill:#9CC31A;stroke:#1D1D1B;stroke-width:0.4597;stroke-linecap:round;stroke-linejoin:round;stroke-miterlimit:10;" x1="484.789" y1="111.85" x2="482.731" y2="122.584"/>
	
		<line style="fill:#9CC31A;stroke:#1D1D1B;stroke-width:0.4597;stroke-linecap:round;stroke-linejoin:round;stroke-miterlimit:10;" x1="477.664" y1="109.245" x2="475.607" y2="119.979"/>
	
		<line style="fill:#9CC31A;stroke:#1D1D1B;stroke-width:0.4597;stroke-linecap:round;stroke-linejoin:round;stroke-miterlimit:10;" x1="488.396" y1="112.874" x2="487.394" y2="123.261"/>
	
		<line style="fill:#9CC31A;stroke:#1D1D1B;stroke-width:0.4597;stroke-linecap:round;stroke-linejoin:round;stroke-miterlimit:10;" x1="467.744" y1="105.988" x2="463.562" y2="116.245"/>
	
		<line style="fill:#9CC31A;stroke:#1D1D1B;stroke-width:0.4597;stroke-linecap:round;stroke-linejoin:round;stroke-miterlimit:10;" x1="475.372" y1="108.902" x2="471.712" y2="116.771"/>
	
		<line style="fill:#9CC31A;stroke:#1D1D1B;stroke-width:0.4597;stroke-linecap:round;stroke-linejoin:round;stroke-miterlimit:10;" x1="466.881" y1="105.514" x2="492.889" y2="114.585"/>
	
		<line style="fill:#9CC31A;stroke:#1D1D1B;stroke-width:0.4597;stroke-linecap:round;stroke-linejoin:round;stroke-miterlimit:10;" x1="464.353" y1="108.552" x2="493.362" y2="118.413"/>
	<path style="fill:#F9BA05;" d="M437.721,127.134c0,0-16.77-8.591-31.768,50.611c0,0,18.945-15.393,23.681-15.787
		C429.634,161.958,435.748,131.475,437.721,127.134z"/>
	<ellipse style="fill:#E10918;" cx="418.832" cy="160.257" rx="2.727" ry="2.859"/>
	<path style="fill:#F9BA05;" d="M494.939,153.275c0,0,6.813,3.434,6.315,13.025c-1.579,30.391-28.584,49.68-28.584,49.68
		s6.482-28.761,0.956-37.445L494.939,153.275z"/>
	<path style="fill:#7A7979;" d="M483.502,76.532l17.983-7.159c0,0,6.202,10.086,6.202,13.637
		C507.687,83.01,497.351,76,483.502,76.532z"/>
	<path style="fill:none;stroke:#1D1D1B;stroke-width:0.4597;stroke-linecap:round;stroke-linejoin:round;stroke-miterlimit:10;" d="
		M443.153,180.105l-6.515,9.689c0,0-1.819,5.532,10.524,6.014l3.007-12.863"/>
	<path style="fill:#F9B300;" d="M439.316,191.07c0,0-7.797,1.769-9.786,8.218l3.58-1.319c0,0-6.032,3.685-5.157,10.338l3.954-3.233
		c0,0-5.479,5.472-3.511,12.158l4.069-3.954c0,0-3.542,5.707-2.755,8.45c0,0,6.302-1.913,8.409-8.931l2.054,3.176
		c0,0,0.687-2.103,0.501-4.518l1.219,1.675c0,0,0.793-0.474,1.112-4.447c0,0-0.015,2.527,0.939,2.757
		c0.094-0.736,0.21-2.335,0.372-3.06c0.343-1.535,1.444-2.74,1.904-4.236c0.977-3.183,0.72-8.185-0.4-11.308"/>
	<path style="fill:none;stroke:#1D1D1B;stroke-width:0.4597;stroke-linecap:round;stroke-linejoin:round;stroke-miterlimit:10;" d="
		M493.859,154.771c0,0,8.23,1.551,5.508,18.917s-26.011,40.785-26.011,40.785s3.873-24.423,0.033-33.798"/>
	<path style="fill:none;stroke:#1D1D1B;stroke-width:0.4597;stroke-linecap:round;stroke-linejoin:round;stroke-miterlimit:10;" d="
		M441.644,128.836c0,0-9.684-4.247-18.058,4.507c-8.374,8.754-17.681,45.965-17.681,45.965s20.445-18.103,25.55-16.624"/>
	<path style="fill:#EC7409;" d="M438.38,191.459c0,0-5.254,1.392-7.016,6.346l3.261-1.119c0,0-5.051,5.707-4.814,8.793l2.714-2.141
		c0,0-4.14,6.527-2.642,10.927l3.16-3.304c0,0-2.856,4.648-2.125,7.197c0,0,5.421-1.123,7.379-7.644l1.326,2.156
		c0,0,1.003-2.053,0.83-4.297l1.304,1.875c0,0,0.801-0.908,1.097-4.6c0,0-0.156,2.668,0.731,2.882
		c0.057-0.447,0.221-1.005,0.47-2.121c0.319-1.427,1.342-2.546,1.769-3.936c0.908-2.957,0.828-7.116-0.212-10.018"/>
	<path style="fill:none;stroke:#1D1D1B;stroke-width:0.4597;stroke-linecap:round;stroke-linejoin:round;stroke-miterlimit:10;" d="
		M435.815,189.662c4.155-0.673,8.569-0.067,11.971,2.511c0.688,0.522,0.851,0.49,1.214,1.296c0.377,0.838-0.733,1.799-1.953,2.023"
		/>
	<path style="fill:none;stroke:#1D1D1B;stroke-width:0.4597;stroke-linecap:round;stroke-linejoin:round;stroke-miterlimit:10;" d="
		M435.662,191.833c-0.221,0.044,9.792-3.031,11.988,2.155"/>
	
		<path style="fill:#7A7979;stroke:#1D1D1B;stroke-width:0.4597;stroke-linecap:round;stroke-linejoin:round;stroke-miterlimit:10;" d="
		M498.695,71.537l6.275-10.121l-3.216,11.74C501.754,73.156,502.114,72.076,498.695,71.537z"/>
	<path style="fill:none;stroke:#1D1D1B;stroke-width:0.4597;stroke-linecap:round;stroke-linejoin:round;stroke-miterlimit:10;" d="
		M484.135,76.66c0,0,22.016,3.196,23.791,6.392c0.964,1.735-0.888,1.775-0.888,1.775"/>
	<path style="fill:none;stroke:#1D1D1B;stroke-width:0.4597;stroke-linecap:round;stroke-linejoin:round;stroke-miterlimit:10;" d="
		M421.548,160.003c0,1.353-1.097,2.45-2.45,2.45c-1.353,0-2.45-1.097-2.45-2.45c0-1.353,0.944-2.916,2.297-2.916
		C420.298,157.086,421.548,158.65,421.548,160.003z"/>
	<path style="fill:#E10918;" d="M484.845,195.87c0,1.353-2.251,3.344-3.605,3.344s-2.45-1.097-2.45-2.45
		c0-1.353,0.611-3.436,1.937-3.701C482.911,192.627,484.845,194.517,484.845,195.87z"/>
	<path style="fill:none;stroke:#1D1D1B;stroke-width:0.4597;stroke-linecap:round;stroke-linejoin:round;stroke-miterlimit:10;" d="
		M484.136,196.086c0,1.353-0.784,3.036-2.137,3.036c-1.353,0-3.455-2.102-3.455-3.455s1.789-2.032,3.142-2.032
		S484.136,194.733,484.136,196.086z"/>
	<path style="fill:none;stroke:#1D1D1B;stroke-width:0.4597;stroke-linecap:round;stroke-linejoin:round;stroke-miterlimit:10;" d="
		M430.872,128.891c0,0-0.454,7.495,0.681,9.312"/>
	<path style="fill:none;stroke:#1D1D1B;stroke-width:0.4597;stroke-linecap:round;stroke-linejoin:round;stroke-miterlimit:10;" d="
		M426.329,130.935c0,0,2.953,11.584,4.316,12.492"/>
	<path style="fill:none;stroke:#1D1D1B;stroke-width:0.4597;stroke-linecap:round;stroke-linejoin:round;stroke-miterlimit:10;" d="
		M423.4,132.166c0,0,0.83,6.644,6.109,13.987"/>
	<path style="fill:none;stroke:#1D1D1B;stroke-width:0.4597;stroke-linecap:round;stroke-linejoin:round;stroke-miterlimit:10;" d="
		M499.239,160.463c0,0-6.133,1.817-7.723,2.044"/>
	
		<line style="fill:none;stroke:#1D1D1B;stroke-width:0.4597;stroke-linecap:round;stroke-linejoin:round;stroke-miterlimit:10;" x1="499.466" y1="163.87" x2="490.608" y2="164.778"/>
	<path style="fill:none;stroke:#1D1D1B;stroke-width:0.4597;stroke-linecap:round;stroke-linejoin:round;stroke-miterlimit:10;" d="
		M499.693,167.277c0,0-10.247,1.026-12.518,0.572"/>
	<path style="fill:none;stroke:#1D1D1B;stroke-width:0.4597;stroke-linecap:round;stroke-linejoin:round;stroke-miterlimit:10;" d="
		M401.78,168.968c0,0-2.227,7.573-0.445,9.355"/>
	<path style="fill:none;stroke:#1D1D1B;stroke-width:0.4597;stroke-linecap:round;stroke-linejoin:round;stroke-miterlimit:10;" d="
		M399.977,169.503c0,0-3.043,6.161-1.472,7.906"/>
	<path style="fill:#E10918;" d="M501.019,69.186l-7.226,1.895c-65.396,29.82-68.581,101.773-68.581,101.773
		c25.419,21.493,44.163,20.834,44.163,20.834C542.207,121.077,501.019,69.186,501.019,69.186z M476.842,135.013
		c-10.006,0-18.127-7.988-18.127-17.399s8.112-17.039,18.118-17.039c10.006,0,18.118,7.629,18.118,17.039
		S486.848,135.013,476.842,135.013z"/>
	<path style="fill:#FFFFFF;" d="M429.043,150.749l1.169-4.937c0,0,28.192,23.645,56.124,24.294c0,0-4.027,6.106-4.547,5.976
		C481.788,176.082,451.648,174.393,429.043,150.749z"/>
	<path style="fill:none;stroke:#1D1D1B;stroke-width:0.4597;stroke-linecap:round;stroke-linejoin:round;stroke-miterlimit:10;" d="
		M430.457,145.971c0,0,20.046,22.051,54.57,24.055"/>
	<path style="fill:none;stroke:#1D1D1B;stroke-width:0.4597;stroke-linecap:round;stroke-linejoin:round;stroke-miterlimit:10;" d="
		M429.566,150.871c0,0,10.023,16.705,51.674,24.723"/>
	<path style="fill:none;stroke:#1D1D1B;stroke-width:0.4597;stroke-linecap:round;stroke-linejoin:round;stroke-miterlimit:10;" d="
		M470.001,190.15c66.581-73.402,30.196-118.872,30.196-118.872c-70.622,16.151-74.649,98.691-74.649,98.691
		s12.081,18.138,46.684,20.164c0,0,1.978-1.924-1.381-4.146"/>
	<circle style="fill:#1D1D1B;" cx="434.931" cy="153.435" r="0.669"/>
	<circle style="fill:#1D1D1B;" cx="477.815" cy="171.941" r="0.669"/>
	<circle style="fill:#1D1D1B;" cx="466.524" cy="169.445" r="0.669"/>
	<circle style="fill:#1D1D1B;" cx="443.822" cy="159.886" r="0.669"/>
	<ellipse style="fill:#1D1D1B;" cx="454.924" cy="165.438" rx="0.836" ry="0.941"/>
	<circle style="fill:#95BF1E;" cx="514.467" cy="92.299" r="1.012"/>
	<g>
		<path style="fill:none;stroke:#7A7979;stroke-width:2.7579;stroke-miterlimit:10;" d="M495.825,116.29
			c0.774,10.081-6.637,18.537-17.18,19.347c-10.543,0.81-20.226-6.333-21-16.414c-0.774-10.081,7.145-18.909,17.688-19.719
			C485.876,98.694,495.05,106.209,495.825,116.29z"/>
		
			<path style="fill:none;stroke:#1D1D1B;stroke-width:0.4597;stroke-linecap:round;stroke-linejoin:round;stroke-miterlimit:10;" d="
			M457.316,113.974c0,0,5.525-21.161,26.084-14.16c20.559,7.001,16.647,30.541,5.246,35.707
			C477.244,140.687,451.599,137.294,457.316,113.974z"/>
		
			<path style="fill:none;stroke:#1D1D1B;stroke-width:0.4597;stroke-linecap:round;stroke-linejoin:round;stroke-miterlimit:10;" d="
			M461.099,114.405c0,0,4.597-17.888,21.771-11.951c17.174,5.936,13.926,25.837,4.409,30.196
			C477.762,137.008,456.344,134.119,461.099,114.405z"/>
		<circle style="fill:#1D1D1B;" cx="460.838" cy="110.073" r="0.721"/>
		<circle style="fill:#1D1D1B;" cx="493.666" cy="128.671" r="0.721"/>
		<circle style="fill:#1D1D1B;" cx="468.549" cy="134.134" r="0.721"/>
		<circle style="fill:#1D1D1B;" cx="470.185" cy="101.084" r="0.721"/>
		<circle style="fill:#1D1D1B;" cx="483.753" cy="135.536" r="0.721"/>
		<circle style="fill:#1D1D1B;" cx="496.627" cy="117.041" r="0.721"/>
	</g>
	<path style="fill:none;stroke:#1D1D1B;stroke-width:0.4597;stroke-linecap:round;stroke-linejoin:round;stroke-miterlimit:10;" d="
		M439.929,191.07c0,0-7.359,0.791-9.348,7.24l3.141-0.341c0,0-7.082,3.272-6.208,9.924l5.005-2.819c0,0-5.33,4.895-3.362,11.581
		l3.921-3.377c0,0-4.817,5.671-4.03,8.414c0,0,7.578-1.877,9.685-8.896l0.993,3.474c0,0,1.748-2.401,1.563-4.816l1.011,2.626
		c0,0,0.393-1.229,0.712-5.202c0,0,0.593,2.33,1.548,2.561c0.094-0.736,0.21-2.335,0.372-3.06c0.343-1.535,0.797-2.877,1.256-4.374
		c0.977-3.183,0.682-8.321-0.438-11.444"/>
	<path style="fill:#E10918;" d="M440.499,191.296c-1.18,0.242-3.67,2.416-4.614,3.235c-0.541,0.47-1.383,1.424-1.565,1.58
		l1.945-0.239c0,0-4.268,3.834-3.786,6.513l2.709-1.631c0,0-2.966,2.885-1.915,6.576c0,0,1.716-2.449,2.586-2.376
		c0,0,0.742,2.482,0.201,2.944c0,0,3.639-1.783,4.052-3.917c0,0,0.599,0.922,0.439,1.911c0,0,2.589-1.467,3.072-4.261
		c0.168-0.97,0.115-0.586,0.115-0.586s0.534,1.308,0.445,2.136c1.216-2.056,2.387-4.71,2.292-7.121
		c-0.037-0.947-0.057-3.354-0.83-3.959c-0.769-0.602-1.785-1.024-2.728-0.985C442.667,191.127,443.189,190.744,440.499,191.296z"/>
	<path style="fill:none;stroke:#1D1D1B;stroke-width:0.4597;stroke-linecap:round;stroke-linejoin:round;stroke-miterlimit:10;" d="
		M440.102,191.695c0,0-3.573,2.108-4.895,4.435l1.146-0.088c0,0-3.314,3.759-3.164,5.71l1.103-0.645c0,0-0.667,2.574-0.882,5.395
		c0,0,1.967-2.534,2.837-2.461c0,0,0.93,2.732,0.389,3.194c0,0,2.436-1.273,2.848-3.408c0,0,0.532,0.832,0.373,1.822
		c0,0,2.14-1.392,2.623-4.186c0.168-0.97,0.159-1.251,0.159-1.251s0.861,1.871,0.771,2.699c0,0,3.223-5.029,1.768-7.98"/>
	
		<path style="fill:#EC7409;stroke:#1D1D1B;stroke-width:0.4597;stroke-linecap:round;stroke-linejoin:round;stroke-miterlimit:10;" d="
		M104.026,183.059c0,0,9.3-15.342,6.7-15.688c-1.92-0.256-4.498,4.009-4.498,4.009"/>
	<g>
		<path style="fill:#EC7409;" d="M104.76,167.29c0,0,5.215-11.319,3.621-13.715c-1.594-2.396-9.956,7.357-9.956,7.357"/>
		
			<path style="fill:none;stroke:#1D1D1B;stroke-width:0.4597;stroke-linecap:round;stroke-linejoin:round;stroke-miterlimit:10;" d="
			M104.661,167.129c0,0,5.976-10.718,4.382-13.113c-1.594-2.396-10.478,7.059-10.478,7.059"/>
	</g>
	<path style="fill:#EC7409;" d="M97.556,195.458c7.458-4.499,10.53-16.995,8.58-24.236c-1.806-6.709-7.243-14.413-17.74-12.6
		c-6.143,1.061-11.495,6.616-12.854,12.777c-1.593,7.222,4.225,16.496,0.964,23.43c-4.34,0.947-9.62-2.871-13.695-5.901
		c-8.564-6.367-11.591,3.485-10.442,5.783c1.125,2.249,4.833-2.674,5.231-1.651c1.49,3.827,7.986,7.258,10.821,8.079
		c2.495,0.722,14.369,1.757,14.419,1.807c1.716,1.716-2.249,16.516,2.532,21.045c3.353,3.176,13.359-1.811,5.1-8.697
		C86.602,212.066,86.853,201.915,97.556,195.458z"/>
	<path style="fill:none;stroke:#1D1D1B;stroke-width:0.4597;stroke-linecap:round;stroke-linejoin:round;stroke-miterlimit:10;" d="
		M97.915,195.032c5-5.575,8.631-15.9,7.983-23.371c-0.751-8.656-10.94-14.681-18.777-12.69c-6.042,1.535-9.539,6.651-10.898,12.812
		c-1.593,7.222,4.732,16.905,1.471,23.838c-4.34,0.947-11.61-2.046-15.018-5.812c-6.613-7.308-9.462,2.18-9.666,4.741
		c-0.099,1.243,4.865-2.345,5.241-1.344c3.051,8.123,14.741,8.582,21.831,9.085c0.186,0.013,3.426,0.15,3.431,0.47
		c0.129,8.299-0.118,17.131,1.469,20.08c1.832,3.405,14.626,1.219,4.463-8.354C85.778,211.033,90.07,203.779,97.915,195.032z"/>
	<g>
		
			<path style="fill:#FFFFFF;stroke:#1D1D1B;stroke-width:0.4597;stroke-linecap:round;stroke-linejoin:round;stroke-miterlimit:10;" d="
			M100.188,166.665c-1.069,0.204-1.998,0.961-2.169,2.373c-0.194,1.609,0.952,3.071,2.561,3.266
			c1.609,0.194,3.071-0.952,3.266-2.561c0.222-1.838-2.822-3.24-4.318-3.395"/>
		<path style="fill:#1D1D1B;" d="M100.813,170.722c-0.055,0.454,0.368,1.102,0.822,1.157c0.454,0.055,1.097-0.347,1.152-0.801
			s-0.598-1.025-1.052-1.079C101.28,169.944,100.868,170.268,100.813,170.722z"/>
	</g>
	<g>
		
			<path style="fill:#FFFFFF;stroke:#1D1D1B;stroke-width:0.4597;stroke-linecap:round;stroke-linejoin:round;stroke-miterlimit:10;" d="
			M92.643,166.39c-1.399,0.749-2.246,2.023-1.998,3.682c0.315,2.11,1.608,4.625,5.091,3.399c2.123-0.747,2.866-2.135,2.551-4.245
			c-0.315-2.11-2.282-3.565-4.392-3.249c-0.058,0.009-2.019,0.318-2.076,0.329"/>
		<path style="fill:#1D1D1B;" d="M93.366,169.473c0.089,0.596,0.229,2.716,2.883,1.821c0.571-0.192,0.641-1.159,0.552-1.755
			s-0.709-1.402-1.305-1.313C94.901,168.315,93.277,168.878,93.366,169.473z"/>
	</g>
	<path style="fill:none;stroke:#1D1D1B;stroke-width:0.4597;stroke-linecap:round;stroke-linejoin:round;stroke-miterlimit:10;" d="
		M82.135,174.116c0,0,1.603,9.125-0.226,9.229c-2.106,0.119-1.872-1.678-4.074-7.493"/>
	<g>
		<path style="fill:#EC7409;" d="M89.777,159.024c0,0-7.551-10.203-9.323-8.319c-1.973,2.095,2.496,13.595,2.496,13.595"/>
		
			<path style="fill:none;stroke:#1D1D1B;stroke-width:0.4597;stroke-linecap:round;stroke-linejoin:round;stroke-miterlimit:10;" d="
			M89.987,159.31c0,0-5.599-9.331-8.43-8.716c-2.831,0.615,0.796,12.297,0.796,12.297"/>
	</g>
	<path style="fill:#E10918;stroke:#1D1D1B;stroke-width:0.4597;stroke-miterlimit:10;" d="M90.311,170.966
		c-0.184-1.65,0.338-5.433,3.09-5.893c3.8-0.635,5.032,2.077,5.298,4.356l-7.76,1.769c0,0-0.093-0.266-0.19-0.689"/>
	<path style="fill:#E10918;stroke:#1D1D1B;stroke-width:0.4597;stroke-miterlimit:10;" d="M104.024,169.03
		c0,0-5.449,0.658-6.655,0.395c0,0,0.171-3.793,3.586-3.734C102.489,165.718,104.792,167.863,104.024,169.03z"/>
	<path style="fill:none;stroke:#1D1D1B;stroke-width:0.4597;stroke-linecap:round;stroke-linejoin:round;stroke-miterlimit:10;" d="
		M85.694,160.709c0,0-3.078-9.944-4.799-9.232"/>
	<path style="fill:none;stroke:#1D1D1B;stroke-width:0.4597;stroke-linecap:round;stroke-linejoin:round;stroke-miterlimit:10;" d="
		M57.003,197.679c0,0-0.489-2.445-3.966-0.573c-3.477,1.871-2.965-1.816-4.76-1.623c-1.796,0.193-2.196,0.69-5.797-1.558"/>
	
		<polyline style="fill:#616261;stroke:#1D1D1B;stroke-width:0.4597;stroke-linecap:round;stroke-linejoin:round;stroke-miterlimit:10;" points="
		147.367,147.787 145.456,227.568 147.065,227.705 149.393,152.551 164.368,224.312 166.268,224.203 150.334,151.01 	"/>
	<path style="fill:#616261;" d="M102.271,169.839l51.669-37.067c0,0,1.684-1.347,3.86,1.338c2.511,3.099,3.648,10.457,0.707,12.164
		c-2.941,1.708-54.422,26.786-54.422,26.786S100.995,171.688,102.271,169.839z"/>
	<path style="fill:none;stroke:#1D1D1B;stroke-width:0.4597;stroke-linecap:round;stroke-linejoin:round;stroke-miterlimit:10;" d="
		M102.229,170.979l51.293-37.093c0,0-1.396,6.58,3.796,9.533c5.192,2.953,1.705-11.385-2.289-10.369"/>
	<path style="fill:none;stroke:#1D1D1B;stroke-width:0.4597;stroke-linecap:round;stroke-linejoin:round;stroke-miterlimit:10;" d="
		M156.727,145.461l-53.144,27.356c0,0-2.6-1.945-1.212-3.502"/>
	
		<polyline style="fill:#616261;stroke:#1D1D1B;stroke-width:0.4597;stroke-linecap:round;stroke-linejoin:round;stroke-miterlimit:10;" points="
		146.966,181.114 154.965,178.456 156.483,179.998 148.484,182.185 	"/>
	<path style="fill:#1D1D1B;" d="M145.724,148.472c0,0,0.291-0.383,0.544,0.066c0.666,1.182,2.017,3.767,4.207,1.623l1.83-0.816
		c0,0,0.012,0.77-0.378,1.328C151.562,151.194,146.664,155.552,145.724,148.472z"/>
	<path style="fill:#FFFFFF;" d="M138.38,143.859c0,0-2.566,0.638-0.876,4.264c1.69,3.626,5.6,7.326,7.615,5.784
		C145.12,153.907,137.446,149.488,138.38,143.859"/>
	<path style="fill:none;stroke:#1D1D1B;stroke-width:0.4597;stroke-linecap:round;stroke-linejoin:round;stroke-miterlimit:10;" d="
		M140.171,143.219c0,0-4.227,0.478-1.635,4.466s6.537,6.835,6.678,5.172"/>
	<path style="fill:none;stroke:#1D1D1B;stroke-width:0.4597;stroke-linecap:round;stroke-linejoin:round;stroke-miterlimit:10;" d="
		M137.78,144.208c0,0-1.929,1.206,0.059,4.686c1.988,3.48,5.952,5.871,7.14,4.659"/>
	
		<path style="fill:#F9BA05;stroke:#1D1D1B;stroke-width:0.4597;stroke-linecap:round;stroke-linejoin:round;stroke-miterlimit:10;" d="
		M90.441,164.816c0,0,2.192-0.936,2.589-0.995"/>
	
		<line style="fill:#F9BA05;stroke:#1D1D1B;stroke-width:0.4597;stroke-linecap:round;stroke-linejoin:round;stroke-miterlimit:10;" x1="100.407" y1="164.443" x2="101.757" y2="164.84"/>
	
		<polyline style="fill:#FFFFFF;stroke:#1D1D1B;stroke-width:0.4597;stroke-linecap:round;stroke-linejoin:round;stroke-miterlimit:10;" points="
		96.137,177.833 95.332,180.936 92.344,179.672 94.037,177.028 	"/>
	
		<polyline style="fill:#FFFFFF;stroke:#1D1D1B;stroke-width:0.4597;stroke-linecap:round;stroke-linejoin:round;stroke-miterlimit:10;" points="
		103.803,177.117 106.279,180.196 103.142,180.94 102.124,177.997 	"/>
	<path style="fill:none;stroke:#1D1D1B;stroke-width:0.4597;stroke-linecap:round;stroke-linejoin:round;stroke-miterlimit:10;" d="
		M80.804,162.649c0,0-7.807-3.505-1.897,2.421c0,0-11.672-4.79-1.678,2.762c0,0-8.065-2.849-0.964,2.625c0,0-5.361-0.817-0.485,3.12
		c0,0-2.837,0.456-0.217,2.788c0,0-1.631,1.863,0.582,2.846c0,0-1.353,1.783,0.492,2.029c0,0-1.23,1.537,0.553,1.906"/>
	
		<path style="fill:#EC7409;stroke:#1D1D1B;stroke-width:0.4597;stroke-linecap:round;stroke-linejoin:round;stroke-miterlimit:10;" d="
		M106.537,166.33c0,0,0.812,1.624,1.726,1.32c0.914-0.305,3.35-3.147,2.944-3.959C110.8,162.879,107.146,164.808,106.537,166.33z"/>
	
		<path style="fill:#F9BA05;stroke:#1D1D1B;stroke-width:0.4597;stroke-linecap:round;stroke-linejoin:round;stroke-miterlimit:10;" d="
		M63.773,146.873"/>
	
		<polyline style="fill:#FFFFFF;stroke:#1D1D1B;stroke-width:0.4597;stroke-linecap:round;stroke-linejoin:round;stroke-miterlimit:10;" points="
		91.146,176.58 90.276,179.097 87.951,177.374 90.023,175.46 	"/>
	<path style="fill:none;stroke:#1D1D1B;stroke-width:0.4597;stroke-linecap:round;stroke-linejoin:round;stroke-miterlimit:10;" d="
		M83.121,171.39c0,0,5.343,12.553,13.923,11.481c0,0,4.234-1.059,3.013-4.641"/>
	
		<polyline style="fill:#FFFFFF;stroke:#1D1D1B;stroke-width:0.4597;stroke-linecap:round;stroke-linejoin:round;stroke-miterlimit:10;" points="
		98.859,177.996 97.836,181.038 101.423,181.855 101.078,178.178 	"/>
	
		<polyline style="fill:#FFFFFF;stroke:#1D1D1B;stroke-width:0.4597;stroke-linecap:round;stroke-linejoin:round;stroke-miterlimit:10;" points="
		86.407,174.018 84.403,175.874 83.581,173.654 85.438,172.763 	"/>
	<path style="fill:none;stroke:#1D1D1B;stroke-width:0.4597;stroke-linecap:round;stroke-linejoin:round;stroke-miterlimit:10;" d="
		M83.145,171.207c0,0,11.352,10.289,22.696,5.645"/>
	
		<polyline style="fill:#FFFFFF;stroke:#1D1D1B;stroke-width:0.4597;stroke-linecap:round;stroke-linejoin:round;stroke-miterlimit:10;" points="
		97.287,182.549 97.001,180.145 99.541,180.074 98.933,181.855 	"/>
	
		<polyline style="fill:#FFFFFF;stroke:#1D1D1B;stroke-width:0.4597;stroke-linecap:round;stroke-linejoin:round;stroke-miterlimit:10;" points="
		90.783,181.005 91.219,179.387 93.543,179.529 92.355,181.811 	"/>
	
		<polyline style="fill:#FFFFFF;stroke:#1D1D1B;stroke-width:0.4597;stroke-linecap:round;stroke-linejoin:round;stroke-miterlimit:10;" points="
		88.37,178.936 89.15,177.73 91.066,178.723 89.761,180.109 	"/>
	<path style="fill:#1CA8E0;" d="M154.587,138.138c0,0-0.62-4.39,0.62-4.235c1.24,0.155,5.165,5.888,3.925,8.367
		C159.132,142.27,155.93,144.026,154.587,138.138z"/>
	<path style="fill:none;stroke:#1D1D1B;stroke-width:0.4597;stroke-linecap:round;stroke-linejoin:round;stroke-miterlimit:10;" d="
		M155.355,140.066c0,0,1.317,2.515,3.058,2.593"/>
	<g>
		<path style="fill:#E10918;" d="M102.627,58.708c0,0,20.076,8.009,23.396,15.989c1.16,2.787-7.327,5.939-17.378,4.145
			c-17.915-3.197-40.122-11.123-55.788-19.958c0,0-28.471-13.825-9.441-14.654c0,0,23.289-0.648,33.86,5.636
			c0,0-1.116,1.701,1.253,3.308S101.904,65.745,102.627,58.708z"/>
		<path style="fill:#FFFFFF;" d="M116.5,71.571c0,0-1.652-1.139-2.783-0.384s-2.565,1.934-0.078,1.884
			C116.158,73.02,116.766,72.776,116.5,71.571z"/>
		
			<path style="fill:none;stroke:#1D1D1B;stroke-width:0.4597;stroke-linecap:round;stroke-linejoin:round;stroke-miterlimit:10;" d="
			M76.977,49.799c-17.966-7.094-32.652-5.306-32.652-5.306S30.46,45.991,45.229,54.94"/>
		<path style="fill:#1D1D1B;" d="M103.768,62.757c-0.268,0.291-0.25,0.745,0.041,1.013c0.291,0.268,0.985,0.618,1.254,0.327
			c0.268-0.291,0.01-1.113-0.281-1.381S104.037,62.466,103.768,62.757z"/>
		<path style="fill:#1D1D1B;" d="M98.151,65.048c-0.268,0.291-0.028,0.797,0.263,1.065c0.291,0.268,0.745,0.25,1.013-0.041
			c0.268-0.291,0.25-0.745-0.041-1.013C99.094,64.79,98.419,64.757,98.151,65.048z"/>
		<path style="fill:#1D1D1B;" d="M88.664,62.253c-0.268,0.291-0.484,0.998-0.193,1.267c0.291,0.268,0.979-0.003,1.247-0.294
			c0.268-0.291,0.25-0.745-0.041-1.013C89.386,61.943,88.932,61.962,88.664,62.253z"/>
		<path style="fill:#1D1D1B;" d="M77.258,57.346c-0.378,0.116-0.921,0.619-0.804,0.997c0.116,0.378,0.847,0.49,1.226,0.373
			s0.591-0.517,0.475-0.896C78.038,57.442,77.636,57.23,77.258,57.346z"/>
		<path style="fill:#1D1D1B;" d="M73.046,50.101c-0.378-0.117-1.109-0.007-1.226,0.371c-0.117,0.378,0.424,0.882,0.803,0.999
			s0.78-0.095,0.897-0.473C73.636,50.619,73.425,50.218,73.046,50.101z"/>
		
			<path style="fill:none;stroke:#1D1D1B;stroke-width:0.4597;stroke-linecap:round;stroke-linejoin:round;stroke-miterlimit:10;" d="
			M101.632,61.489c0,0-0.115,0.705-3.477,0.217c-3.91-0.567-12.307-2.345-22.957-10.302"/>
		
			<line style="fill:none;stroke:#1D1D1B;stroke-width:0.4597;stroke-linecap:round;stroke-linejoin:round;stroke-miterlimit:10;" x1="86.305" y1="75.187" x2="87.999" y2="82.525"/>
		
			<line style="fill:none;stroke:#1D1D1B;stroke-width:0.4597;stroke-linecap:round;stroke-linejoin:round;stroke-miterlimit:10;" x1="84.759" y1="76.419" x2="84.259" y2="79.869"/>
		
			<line style="fill:none;stroke:#1D1D1B;stroke-width:0.4597;stroke-linecap:round;stroke-linejoin:round;stroke-miterlimit:10;" x1="81.106" y1="72.286" x2="78.042" y2="76.369"/>
		
			<path style="fill:none;stroke:#1D1D1B;stroke-width:0.4597;stroke-linecap:round;stroke-linejoin:round;stroke-miterlimit:10;" d="
			M123.72,76.446c-1.793,4.164-8.569,3.469-12.158,3.108c-8.376-0.844-16.782-3.38-24.676-6.221
			c-4.274-1.538-8.505-3.193-12.749-4.809c-7.4-2.819-14.677-5.961-21.733-9.562"/>
		
			<path style="fill:none;stroke:#1D1D1B;stroke-width:0.4597;stroke-linecap:round;stroke-linejoin:round;stroke-miterlimit:10;" d="
			M102.475,59.789c0,0,19.86,7.785,23.406,16.585"/>
		
			<path style="fill:none;stroke:#1D1D1B;stroke-width:0.4597;stroke-linecap:round;stroke-linejoin:round;stroke-miterlimit:10;" d="
			M123.6,74.463c0,0,1.002,4.968-12.391,3.204C97.816,75.903,62.48,65.076,46.188,53.512"/>
		
			<path style="fill:none;stroke:#1D1D1B;stroke-width:0.4597;stroke-linecap:round;stroke-linejoin:round;stroke-miterlimit:10;" d="
			M101.632,61.489c0,0,12.54-17.846-3.947-25.815c-11.808-5.707-21.708,6.32-20.49,15.781"/>
		
			<path style="fill:none;stroke:#1D1D1B;stroke-width:0.4597;stroke-linecap:round;stroke-linejoin:round;stroke-miterlimit:10;" d="
			M115.771,72.411c0,0,0.644-1.567-1.719-0.89c-2.363,0.678-1.424,1.49,1.576,1.074"/>
		
			<path style="fill:none;stroke:#1D1D1B;stroke-width:0.4597;stroke-linecap:round;stroke-linejoin:round;stroke-miterlimit:10;" d="
			M51.867,45.254c0,0,2.424,0.622,1.236,0.91c-1.188,0.288-4.799-0.046-4.224-0.669C49.453,44.871,51.867,45.254,51.867,45.254z"/>
		
			<path style="fill:none;stroke:#1D1D1B;stroke-width:0.4597;stroke-linecap:round;stroke-linejoin:round;stroke-miterlimit:10;" d="
			M102.349,60.876c0,0,0.81,1.087-0.112,1.595c-1.379,0.76-3.316,0.673-4.753,0.486c-7.708-1-15.576-4.29-21.452-9.438
			c-0.44-0.386-2.592-2.499-1.15-3.144"/>
		<circle style="fill:#1D1D1B;" cx="108.818" cy="49.393" r="0.789"/>
		<g>
			<path style="fill:#A6ADAA;" d="M46.531,19.372c0,0-8.836-4.678-13.458-0.258s-0.61,12.682,0.532,13.965
				c1.142,1.283,6.181,4.17,12.938-0.663S47.611,19.864,46.531,19.372z"/>
			
				<path style="fill:none;stroke:#1D1D1B;stroke-width:0.4597;stroke-linecap:round;stroke-linejoin:round;stroke-miterlimit:10;" d="
				M32.667,20.482c-1.135,2.28-1.881,6.323-1.025,8.618c1.631,4.376,7.2,6.339,11.576,4.708s6.6-6.501,4.969-10.876
				c-1.631-4.376-6.762-7.299-11.137-5.668c-1.717,0.64-4.267,3.263-5.301,4.855"/>
		</g>
		<circle style="fill:#F9BA05;" cx="35.787" cy="23.49" r="1.566"/>
		<circle style="fill:#1D1D1B;" cx="76.438" cy="32.066" r="1.099"/>
		<circle style="fill:#F9BA05;" cx="124.385" cy="54.188" r="1.344"/>
		<circle style="fill:#95BF1E;" cx="25.458" cy="28.832" r="1.012"/>
		
			<path style="fill:none;stroke:#1D1D1B;stroke-width:0.4597;stroke-linecap:round;stroke-linejoin:round;stroke-miterlimit:10;" d="
			M30.172,44.21c0,0-4.876,2.01,0.755,6.792"/>
		
			<path style="fill:none;stroke:#1D1D1B;stroke-width:0.4597;stroke-linecap:round;stroke-linejoin:round;stroke-miterlimit:10;" d="
			M31.371,45.182c0,0-3.584,3.047,2.509,5.556"/>
		<g>
			
				<path style="fill:#9CC31A;stroke:#1D1D1B;stroke-width:0.4597;stroke-linecap:round;stroke-linejoin:round;stroke-miterlimit:10;" d="
				M189.542,120.378c-3.716-2.776-7.227-5.338-7.451-5.273c-0.485,0.14-2.092,0.182-1.961-0.466
				c0.182-0.898,1.385-0.477,1.067-0.622c-0.317-0.145-1.583-0.658-1.107-1.196c0.729-0.825,1.808,0.381,1.808,0.381
				s-1.446-1.317-0.349-1.554c1.097-0.237,1.854,2.218,1.854,2.218s5.534,5.112,6.348,5.771"/>
			<g>
				
					<path style="fill:#F19EB3;stroke:#1D1D1B;stroke-width:0.4597;stroke-linecap:round;stroke-linejoin:round;stroke-miterlimit:10;" d="
					M190.797,116.036c0.714-0.122,1.668,0.221,2.156,0.474c2.99,1.554,5.338,4.116,6.316,7.356c0.269,0.89,0.618,1.87,0.632,2.812
					l0.855-0.71c-0.055-3.655-2.145-7.829-4.967-10.132c-1.716-1.401-4.355-2.947-6.592-1.972
					C187.894,114.543,188.475,116.359,190.797,116.036z"/>
				
					<path style="fill:#FFFFFF;stroke:#1D1D1B;stroke-width:0.4597;stroke-linecap:round;stroke-linejoin:round;stroke-miterlimit:10;" d="
					M258.482,161.434c0,0,2.843-3.174,2.696,1.2c0,0,1.931-4.327,1.811,0.078"/>
				
					<path style="fill:#FFFFFF;stroke:#1D1D1B;stroke-width:0.4597;stroke-linecap:round;stroke-linejoin:round;stroke-miterlimit:10;" d="
					M262.162,152.926c0.89,4.891,3.602-1.185,3.602-1.185c2.457,5.752,4.748-0.668,4.748-0.668c3.165,7.028,5.131-0.377,5.131-0.377
					c1.172,5.675,4.862,1.034,4.862,1.034S261.354,148.488,262.162,152.926z"/>
				
					<path style="fill:#F19EB3;stroke:#1D1D1B;stroke-width:0.4597;stroke-linecap:round;stroke-linejoin:round;stroke-miterlimit:10;" d="
					M259.323,156.103c0,0,9.923,1.219,7.744,6.412c0,0-0.576,0.466-0.904-0.411c-0.329-0.877-0.631-4.451-7.099-5.027"/>
				<g>
					<path style="fill:#E10918;" d="M245.916,164.858c-0.384-0.091-12.635,7.335-12.635,7.335s0.586,2.359,0.242,3.165
						c-0.309,0.724-1.308,0.036-1.777-2.381c0,0-0.266-1.18,0.293-1.89c0.21-0.266,11.392-8.826,11.685-8.35
						S246.3,164.949,245.916,164.858z"/>
					
						<path style="fill:none;stroke:#1D1D1B;stroke-width:0.4597;stroke-linecap:round;stroke-linejoin:round;stroke-miterlimit:10;" d="
						M244.927,164.965c-1.449-0.296-12.191,7.379-12.191,7.379s1.023,2.993,0.271,2.545c-1.375-0.819-0.781-3.281-0.781-3.281
						s9.483-7.592,11.477-8.351"/>
				</g>
				<path style="fill:#9CC31A;" d="M239.369,148.397c-0.639,0.328-46.126-14.732-50.381-19.494
					c-1.648-1.844-1.216-5.969-0.004-8.388c0.139-0.276,0.427-0.499,0.47-0.442c5.399,7.156,11.502,1.101,12.359-0.869
					c1.734-3.99-4.447-7.87-4.448-7.87c0.039,0.025,0.134,0.021,0.18,0.028c0.573,0.087,1.146,0.137,1.723,0.185
					c0.761,0.063,1.553,0.132,2.249,0.474c3.492,1.716,3.313,10.824,0.269,16.023c-1.283,2.192,36.863,19.66,37.517,18.991"/>
				
					<path style="fill:none;stroke:#1D1D1B;stroke-width:0.4597;stroke-linecap:round;stroke-linejoin:round;stroke-miterlimit:10;" d="
					M239.535,148.12c-0.639,0.328-45.688-15.157-49.943-19.919c-1.648-1.844-1.143-5.428-0.164-7.95
					c0.012-0.03,0.475-0.982,0.518-0.926c5.399,7.156,11.455,1.584,12.311-0.386c1.734-3.99-4.447-7.87-4.448-7.87
					c0.039,0.025,0.134,0.021,0.18,0.028c0.573,0.087,1.146,0.137,1.723,0.185c0.761,0.063,1.553,0.132,2.249,0.474
					c3.492,1.716,1.65,11.443-1.393,16.642c-1.283,2.192,37.837,18.71,38.681,18.804"/>
				
					<path style="fill:none;stroke:#1D1D1B;stroke-width:0.4597;stroke-linecap:round;stroke-linejoin:round;stroke-miterlimit:10;" d="
					M189.945,119.324c0.286-0.14,2.183-0.582,2.666,0.09s-0.682,1.78-0.682,1.78s2.096-1.338,2.686-0.968
					c0.59,0.37-0.061,2.287-0.061,2.287s1.676-2.716,2.228-1.648c0.552,1.068,0.256,1.872,0.256,1.872"/>
				
					<path style="fill:#FFFFFF;stroke:#1D1D1B;stroke-width:0.4597;stroke-linecap:round;stroke-linejoin:round;stroke-miterlimit:10;" d="
					M197.935,111.167c0,0-1.532,3.01-0.458,3.44c1.03,0.412,2.862-1.236,2.862-1.236s-2.07,2.289-1.061,2.922
					c1.008,0.633,2.383-0.922,2.383-0.922"/>
				<g>
					<circle style="fill:#FFFFFF;stroke:#1D1D1B;stroke-width:0.4597;stroke-miterlimit:10;" cx="202.86" cy="110.453" r="2.686"/>
					<circle style="fill:#1D1D1B;" cx="201.119" cy="109.632" r="1.706"/>
					
						<path style="fill:#FFFFFF;stroke:#1D1D1B;stroke-width:0.4597;stroke-linecap:round;stroke-linejoin:round;stroke-miterlimit:10;" d="
						M202.79,105.923c0,0,1.631-0.746,3.606,1.307"/>
				</g>
				<g>
					<path style="fill:#E10918;stroke:#1D1D1B;stroke-width:0.4597;stroke-miterlimit:10;" d="M242.308,164.041
						c-0.228-0.027-0.349-0.241-0.336-0.695c0.014-0.478-0.009-0.96-0.017-1.438c-0.048-2.584,0.153-5.486-1.647-7.596
						c-1.824-2.139-4.788-1.904-7.174-0.966c-3.541,1.392-6.487,3.989-9.779,5.842c-0.637,0.358-1.395,0.843-2.141,0.926
						c-1.409,0.157-1.227-1.978-1.198-4.06c0.101-7.186-1.808-4.361-2.061-3.725c-0.797,2.003,0.826,10.443,2.241,9.969
						c3.749-1.255,6.835-3.982,10.524-5.408c1.187-0.459,6.429-2.688,6.544,0.18c0.684,17.135,6.875,11.277,11.412,6.958"/>
				</g>
				
					<path style="fill:#E10918;stroke:#1D1D1B;stroke-width:0.4597;stroke-linecap:round;stroke-linejoin:round;stroke-miterlimit:10;" d="
					M268.271,149.066c0,0,4.186-4.861,6.224-5.271c0,0-12.845-10.248-13.514,6.865"/>
				<path style="fill:#E10918;" d="M281.611,153.089c0,0-5.971-6.821-17.488-5.827c-15.227,1.314-19.76,10.245-23.214,17.346
					c1.527,0.734,2.479,1.664,3.054,2.728c0.192-0.306,0.439-0.59,0.738-0.832c0.194-0.157,0.383,0.699,0.581,0.546
					c1.772-1.055,5.594-6.554,8.475-7.007c0,0,4.589,5.962,9.131,2.714c0,0-6.297,1.04-3.059-6.551
					C263.933,146.592,281.611,153.089,281.611,153.089z"/>
				
					<path style="fill:none;stroke:#1D1D1B;stroke-width:0.4597;stroke-linecap:round;stroke-linejoin:round;stroke-miterlimit:10;" d="
					M244.582,167.533c2.775-2.076,6.172-5.734,9.073-6.686c0,0,5.196,4.802,9.334,1.865c0,0-5.497,2.099-3.953-5.918
					c2.299-11.935,21.989-3.883,21.989-3.883s-5.432-7.559-18.196-5.182c-19.795,3.686-20.65,18.658-20.87,15.502"/>
				
					<path style="fill:none;stroke:#1D1D1B;stroke-width:0.4597;stroke-linecap:round;stroke-linejoin:round;stroke-miterlimit:10;" d="
					M274.296,144.126c0,0,2.138,1.798,1.244,4.36"/>
				<path style="fill:#1D1D1B;" d="M274.54,144.861c0,0-1.817,3.261,0.916,2.862C277.263,147.459,276.465,144.191,274.54,144.861z"
					/>
				<g>
					
						<path style="fill:none;stroke:#1D1D1B;stroke-width:0.4597;stroke-linecap:round;stroke-linejoin:round;stroke-miterlimit:10;" d="
						M229.525,171.548c0,0,1.042-3.039,2.468-3.15"/>
					
						<path style="fill:none;stroke:#1D1D1B;stroke-width:0.4597;stroke-linecap:round;stroke-linejoin:round;stroke-miterlimit:10;" d="
						M227.572,171.711c0,0-0.067-3.212,1.234-3.807"/>
				</g>
				
					<path style="fill:none;stroke:#1D1D1B;stroke-width:0.4597;stroke-linecap:round;stroke-linejoin:round;stroke-miterlimit:10;" d="
					M249.272,173.594c0,0,1.603,2.784,0.749,3.931"/>
				
					<path style="fill:none;stroke:#1D1D1B;stroke-width:0.4597;stroke-linecap:round;stroke-linejoin:round;stroke-miterlimit:10;" d="
					M249.711,172.794c0,0,2.463,2.062,2.056,3.433"/>
				<g>
					<path style="fill:#E10918;" d="M247.402,162.08c-0.341,0.361,0.051,18.36,0.051,18.36s1.859-0.141,2.52,0.74
						c0.594,0.791,0.343,2.668-2.582,1.661c0,0-1.251-0.619-1.495-1.939c-0.078-0.419-2.882-17.749-2.18-17.769
						S247.743,161.719,247.402,162.08z"/>
					
						<path style="fill:none;stroke:#1D1D1B;stroke-width:0.4597;stroke-linecap:round;stroke-linejoin:round;stroke-miterlimit:10;" d="
						M246.897,163.225c-1.232,1.392,0.377,17.904,0.377,17.904s2.94,0.223,2.244,1.076c-1.683,2.064-3.366-0.983-3.366-0.983
						s-2.309-15.09-1.884-17.737"/>
				</g>
				
					<path style="fill:none;stroke:#1D1D1B;stroke-width:0.4597;stroke-linecap:round;stroke-linejoin:round;stroke-miterlimit:10;" d="
					M274.391,142.891c0,0,0.279-0.965-1.651-0.303c-1.908,0.654-4.692,5.204-4.692,5.204"/>
				
					<path style="fill:none;stroke:#1D1D1B;stroke-width:0.4597;stroke-linecap:round;stroke-linejoin:round;stroke-miterlimit:10;" d="
					M242.93,161.492c-0.512-1.571,0.664-1.705,0.664-1.705c-0.731-1.336,0.941-1.579,0.941-1.579
					c-0.571-1.932,1.344-1.731,1.344-1.731c-0.857-3.512,1.723-2.151,1.723-2.151c-0.646-3.644,1.979-1.077,1.979-1.077
					c-1.123-3.435,1.675-1.435,1.675-1.435c-0.506-3.425,2.148-1.291,2.148-1.291c-0.297-3.096,2.098-1.129,2.098-1.129
					s-0.614-3.072,2.595-0.854c0,0,0.311-3.072,2.272-1.107"/>
				
					<path style="fill:#E10918;stroke:#1D1D1B;stroke-width:0.4597;stroke-linecap:round;stroke-linejoin:round;stroke-miterlimit:10;" d="
					M254.334,152.643c0,0-9.467-2.913-12.758-3.475c-1.108-0.189-5.445,2.198-4.269-2.466c0.551-2.185,18.625,4.735,18.625,4.735"/>
				
					<path style="fill:#9CC31A;stroke:#1D1D1B;stroke-width:0.4597;stroke-linecap:round;stroke-linejoin:round;stroke-miterlimit:10;" d="
					M240.839,149.537c0.128,0.251,4.229,5.014-0.004,9.469c0.044-0.047,0.381-0.111,0.455-0.145c0.406-0.184,0.8-0.439,1.128-0.739
					c1.06-0.968,1.575-2.417,1.714-3.808c0.129-1.291,0.143-2.961-0.441-4.151c-0.269-0.549-1.322-0.926-1.982-0.926
					C241.352,149.235,240.802,149.464,240.839,149.537z"/>
				
					<path style="fill:none;stroke:#1D1D1B;stroke-width:0.4597;stroke-linecap:round;stroke-linejoin:round;stroke-miterlimit:10;" d="
					M184.586,126.554c0,0-0.697,3.832,1.742,4.529"/>
				
					<path style="fill:none;stroke:#1D1D1B;stroke-width:0.4597;stroke-linecap:round;stroke-linejoin:round;stroke-miterlimit:10;" d="
					M183.715,125.508c0,0-0.871,3.31-0.523,4.007"/>
				
					<path style="fill:#9CC31A;stroke:#1D1D1B;stroke-width:0.4597;stroke-linecap:round;stroke-linejoin:round;stroke-miterlimit:10;" d="
					M200.958,107.567c0,0.001,0.696,5.104,2.048,5.391c0.552,0.117,1.37-0.232,1.82-0.497c1.165-0.686,1.316-2.02,0.929-3.248
					c-0.276-0.877-0.996-1.748-1.859-2.088c-0.432-0.17-0.881-0.181-1.334-0.101C202.397,107.052,200.941,107.443,200.958,107.567z"
					/>
			</g>
			
				<path style="fill:#9CC31A;stroke:#1D1D1B;stroke-width:0.4597;stroke-linecap:round;stroke-linejoin:round;stroke-miterlimit:10;" d="
				M194.693,127.024l-16.487-12.725c0,0,0.084-2.266-1.21-2.1c-1.294,0.167,0.215,1.305,0.215,1.305s-2.182-1.162-2.426-0.507
				c-0.244,0.654,0.513,1.18,0.86,1.332c0.347,0.152-1.403,0.05-1.309,0.529c0.095,0.48,1.624,0.643,2.2,0.536
				s17.364,12.12,17.364,12.12"/>
		</g>
		<g>
			
				<path style="fill:#9CC31A;stroke:#1D1D1B;stroke-width:0.4597;stroke-linecap:round;stroke-linejoin:round;stroke-miterlimit:10;" d="
				M154.737,89.561l16.082,12.964c0,0-0.933,2.478,0.308,2.404s0.585-1.604,0.585-1.604s1.341,2.17,2.271,0.623
				c0.337-0.56-0.408-1.127-0.728-1.29c-0.32-0.163,1.245,0.044,1.279-0.409c0.104-1.397-1.5-0.699-2.055-0.636
				s-15.21-12.339-15.21-12.339"/>
			<g>
				<g>
					
						<path style="fill:#9CC31A;stroke:#1D1D1B;stroke-width:0.4597;stroke-linecap:round;stroke-linejoin:round;stroke-miterlimit:10;" d="
						M120.08,74.429c4.105-0.654,8.066,5.969,11.138,8.472c3.072,2.503,6.256-0.894,9.004,0.928
						c2.543,1.686,3.858,4.675,6.452,6.277c4.893,3.022,14.336,5.95,19.627,2.293c0.792-0.547,1.45-1.307,1.937-2.134
						c0.016-0.028,0.477-0.985,0.405-0.983c-8.987,0.21-8.377-8.019-7.361-9.919c2.057-3.848,8.956-1.402,8.956-1.402
						c-1.291-1.057-6.05-10.471-15.347,8.495c-0.503,1.025-1.313,2.229-2.241,2.916c-2.637,1.952-6.834-1.068-8.09-3.445
						c-0.987-1.87-1.218-4.134-3.182-5.364c-2.083-1.304-7.292,2.223-10.438-0.871c-2.786-2.74-5.074-7.285-9.038-8.466
						c-0.927-0.276-3.8-0.596-4.455,0.47C116.698,72.918,119.065,74.591,120.08,74.429z"/>
					<circle style="fill:#FFFFFF;stroke:#1D1D1B;stroke-width:0.4597;stroke-miterlimit:10;" cx="166.193" cy="73.275" r="2.026"/>
					
						<path style="fill:#F19EB3;stroke:#1D1D1B;stroke-width:0.4597;stroke-linecap:round;stroke-linejoin:round;stroke-miterlimit:10;" d="
						M161.23,80.086c0,0,3.394,4.094,4.96,2.539c1.567-1.554,4.481-2.944,6.036-1.377c1.555,1.567,4.7,5.26,6.307,4.032
						c0,0,1.265,0.839-0.651,1.176c-1.916,0.337-3.867-1.214-5.07-2.891s-2.484-2.912-3.834-1.749
						c-1.35,1.163-3.397,4.735-7.978-0.639"/>
					<circle style="fill:#1D1D1B;" cx="167.128" cy="74.049" r="0.94"/>
					
						<path style="fill:#FFFFFF;stroke:#1D1D1B;stroke-width:0.4597;stroke-linecap:round;stroke-linejoin:round;stroke-miterlimit:10;" d="
						M168.765,71.198c0,0-1.433-1.294-1.549-1.362"/>
					
						<path style="fill:#FFFFFF;stroke:#1D1D1B;stroke-width:0.4597;stroke-linecap:round;stroke-linejoin:round;stroke-miterlimit:10;" d="
						M168.643,89.281c-0.068-0.312-0.232-1.519-1.061-1.479c-0.829,0.04-1.643,1.084-1.643,1.084s0.19-1.895-0.468-2.128
						c-0.658-0.233-2.203,0.886-2.203,0.886"/>
					
						<path style="fill:#FFFFFF;stroke:#1D1D1B;stroke-width:0.4597;stroke-linecap:round;stroke-linejoin:round;stroke-miterlimit:10;" d="
						M170.082,77.921c0,0-0.371,1.982-1.377,1.405c-0.965-0.553-1.852-1.923-1.852-1.923s0.267,2.522-0.858,2.123
						s-1.537-1.917-1.537-1.917"/>
				</g>
				
					<path style="fill:none;stroke:#1D1D1B;stroke-width:0.4597;stroke-linecap:round;stroke-linejoin:round;stroke-miterlimit:10;" d="
					M124.118,69.846c0,0-3.324-2.965-5.066-1.241"/>
				
					<path style="fill:none;stroke:#1D1D1B;stroke-width:0.4597;stroke-linecap:round;stroke-linejoin:round;stroke-miterlimit:10;" d="
					M124.385,69.011c0,0-2.146-2.732-3.72-1.647"/>
				<g>
					
						<path style="fill:none;stroke:#1D1D1B;stroke-width:0.4597;stroke-linecap:round;stroke-linejoin:round;stroke-miterlimit:10;" d="
						M150.054,80.768c0.038,0.926,0.164,2.385,0.373,3.39c1.238,5.972,9.233,12.326,15.369,13.66
						c9.752,2.12,16.78-7.242,16.904-16.454C182.993,59.658,149.258,61.365,150.054,80.768z"/>
					
						<path style="fill:none;stroke:#1D1D1B;stroke-width:0.4597;stroke-linecap:round;stroke-linejoin:round;stroke-miterlimit:10;" d="
						M151.905,77.432c0,0-1.434,3.361,0.527,6.231l1.19-0.384c0,0-1.351-0.454-1.648-3.935"/>
					
						<path style="fill:none;stroke:#1D1D1B;stroke-width:0.4597;stroke-linecap:round;stroke-linejoin:round;stroke-miterlimit:10;" d="
						M181.075,85.463c0,0,1.897-5.628-1.645-10.029l-0.986,0.792c0,0,3.384,1.963,2.389,8.223"/>
				</g>
			</g>
			
				<path style="fill:#9CC31A;stroke:#1D1D1B;stroke-width:0.4597;stroke-linecap:round;stroke-linejoin:round;stroke-miterlimit:10;" d="
				M150.412,90.574l14.228,14.976c0,0-0.507,2.05,0.733,2.141c1.24,0.091,0.046-1.229,0.046-1.229s1.818,1.468,2.169,0.918
				c0.351-0.551-0.256-1.171-0.551-1.375c-0.296-0.204,1.319,0.218,1.322-0.237c0.002-0.455-1.394-0.891-1.953-0.902
				c-0.558-0.011-13.445-14.242-13.445-14.242"/>
		</g>
		
			<path style="fill:#E10918;stroke:#1D1D1B;stroke-width:0.4597;stroke-linecap:round;stroke-linejoin:round;stroke-miterlimit:10;" d="
			M258.405,136.338"/>
		<path style="fill:#FFFFFF;" d="M93.399,70.697c0,0-0.913-2.608-2.347-2.477c-1.434,0.13-3.369,0.571-1.065,2.295
			C92.322,72.26,93.008,72.392,93.399,70.697z"/>
		<path style="fill:#FFFFFF;" d="M66.854,59.321c0,0-1.334-2.608-3.431-2.477c-2.097,0.13-4.925,0.571-1.557,2.295
			C65.28,60.884,66.282,61.016,66.854,59.321z"/>
		
			<path style="fill:none;stroke:#1D1D1B;stroke-width:0.4597;stroke-linecap:round;stroke-linejoin:round;stroke-miterlimit:10;" d="
			M92.574,70.357c0,0,1.149-1.246-1.629-1.733c-2.778-0.488-2.097,1.524,1.303,2.586"/>
		
			<path style="fill:none;stroke:#1D1D1B;stroke-width:0.4597;stroke-linecap:round;stroke-linejoin:round;stroke-miterlimit:10;" d="
			M65.846,58.842c0,0-1.035-1.877-3.679-2.01c-2.644-0.133-1.091,2.682,2.664,3.61s1.839-1.993,0.612-2.663"/>
	</g>
	<g>
		<path style="fill:#F9B300;" d="M308.015,233.788c0,0-2.157,6.452,0.557,6.909c2.714,0.456,3.867-6.894,3.867-6.894
			L308.015,233.788z"/>
		<path style="fill:#F9B300;" d="M303.999,233.317c0,0-1.984,4.881,0.216,5.453l3.435-5.309L303.999,233.317z"/>
		<path style="fill:#F9B300;" d="M276.065,226.217c0,0-1.818,5.61,0.468,6.11c1.581,0.346,1.638-1.739,1.638-1.739
			s0.788,1.691,2.138,1.009c1.35-0.682,2.364-4.295,2.364-4.295L276.065,226.217z"/>
		<path style="fill:#F9B300;" d="M273.687,224.72c0,0,6.368-8.814,14.872-8.878c7.933-0.059,26.821,5.7,26.072,19.703
			C314.63,235.546,271.966,228.404,273.687,224.72z"/>
		<path style="fill:#FFFFFF;" d="M287.491,220.29c0,0,0.955-1.729,2.871-1.055c1.917,0.674,4.2,1.892,3.793,4.177
			c-0.407,2.285-2.107,2.703-3.439,2.447C289.385,225.605,285.636,222.878,287.491,220.29z"/>
		
			<path style="fill:none;stroke:#1D1D1B;stroke-width:0.4597;stroke-linecap:round;stroke-linejoin:round;stroke-miterlimit:10;" d="
			M274.07,225.324c0,0,1.701-12.455,21.333-7.403c19.632,5.052,18.732,17.728,18.732,17.728"/>
		
			<path style="fill:none;stroke:#1D1D1B;stroke-width:0.4597;stroke-linecap:round;stroke-linejoin:round;stroke-miterlimit:10;" d="
			M287.735,223.847c0,0-1.187-4.631,2.204-4.437s4.36,4.273,3.62,5.177C292.818,225.49,289.748,226.368,287.735,223.847z"/>
		<path style="fill:#1D1D1B;" d="M291.16,222.686c0,0-0.483,1.028-0.096,1.716c0.265,0.47,1.32,0.729,1.703,0.639
			C294.613,224.605,293.59,220.929,291.16,222.686z"/>
		
			<path style="fill:none;stroke:#1D1D1B;stroke-width:0.4597;stroke-linecap:round;stroke-linejoin:round;stroke-miterlimit:10;" d="
			M273.009,224.171c0,0-2.115,0.797,3.056,2.046c5.17,1.249,40.414,10.938,39.093,8.851"/>
		
			<path style="fill:none;stroke:#1D1D1B;stroke-width:0.4597;stroke-linecap:round;stroke-linejoin:round;stroke-miterlimit:10;" d="
			M276.626,226.498c0,0-2.017,4.843-0.278,5.064c1.738,0.221,2.176-4.799,2.176-4.799"/>
		
			<path style="fill:none;stroke:#1D1D1B;stroke-width:0.4597;stroke-linecap:round;stroke-linejoin:round;stroke-miterlimit:10;" d="
			M308.984,233.9c0,0-2.465,5.746-0.226,6.056c2.24,0.31,2.671-5.69,2.671-5.69"/>
		
			<path style="fill:none;stroke:#1D1D1B;stroke-width:0.4597;stroke-linecap:round;stroke-linejoin:round;stroke-miterlimit:10;" d="
			M291.532,217.8c0,0-2.408-0.49-3.213,0.73"/>
		
			<path style="fill:none;stroke:#1D1D1B;stroke-width:0.4597;stroke-linecap:round;stroke-linejoin:round;stroke-miterlimit:10;" d="
			M301.642,217.199c0,0,2.715,0.443,2.549,2.382"/>
		
			<path style="fill:none;stroke:#1D1D1B;stroke-width:0.4597;stroke-linecap:round;stroke-linejoin:round;stroke-miterlimit:10;" d="
			M279.367,226.613c0,0-1.307,4.027-0.173,4.738c1.134,0.711,2.555-4.216,2.555-4.216"/>
		
			<path style="fill:none;stroke:#1D1D1B;stroke-width:0.4597;stroke-linecap:round;stroke-linejoin:round;stroke-miterlimit:10;" d="
			M304.472,233.448c0,0-1.656,4.33-0.094,4.693c1.562,0.363,2.325-4.346,2.325-4.346"/>
		<path style="fill:#FFFFFF;" d="M275.159,226.332"/>
		
			<path style="fill:none;stroke:#1D1D1B;stroke-width:0.4597;stroke-linecap:round;stroke-linejoin:round;stroke-miterlimit:10;" d="
			M313.888,242.949c0,0-4.98,2.3-6.958,2.144"/>
		
			<path style="fill:none;stroke:#1D1D1B;stroke-width:0.4597;stroke-linecap:round;stroke-linejoin:round;stroke-miterlimit:10;" d="
			M313.529,241.438c0,0-2.912,2.461-4.281,2.398"/>
		<path style="fill:#FFFFFF;" d="M296.46,220.236c0,0,1.239-2.217,3.755-1.336c2.517,0.881,5.518,2.464,5.001,5.401
			s-2.742,3.462-4.489,3.124C298.981,227.087,293.35,227.41,296.46,220.236z"/>
		
			<path style="fill:none;stroke:#1D1D1B;stroke-width:0.4597;stroke-linecap:round;stroke-linejoin:round;stroke-miterlimit:10;" d="
			M295.742,225.063c0,0-0.554-5.976,3.429-5.911c2.455,0.04,6.674,3.278,5.341,6.158c-1.333,2.88-8.225,1.707-9.591-1.194"/>
		<path style="fill:#1D1D1B;" d="M299.422,224.751c0,0,1.575-0.146,1.843-0.778c0.694-1.639,0.308-4.884-1.758-4.965
			C296.644,218.894,294.516,223.655,299.422,224.751z"/>
		
			<path style="fill:#F9B300;stroke:#1D1D1B;stroke-width:0.4597;stroke-linecap:round;stroke-linejoin:round;stroke-miterlimit:10;" d="
			M286.234,218.517c0.672,0.718,1.515,1.311,2.392,1.75c0.869,0.435,1.877,0.784,2.841,0.912c0.847,0.113,1.875-0.059,2.526,0.639
			c0.625,0.67,0.408,1.376-0.295,1.905c-1.824,1.375-7.963,1.248-10.312-1.773"/>
		
			<path style="fill:none;stroke:#1D1D1B;stroke-width:0.4597;stroke-linecap:round;stroke-linejoin:round;stroke-miterlimit:10;" d="
			M305.563,222.7c0,0-2.134,3.88-6.549,4.217c0,0-2.259,0.619-0.294,1.784c1.965,1.165,8.052,0.358,10.052-2.904"/>
		
			<polyline style="fill:#FFFFFF;stroke:#1D1D1B;stroke-width:0.4597;stroke-linecap:round;stroke-linejoin:round;stroke-miterlimit:10;" points="
			296.506,229.969 295.551,232.459 294.312,232.053 295.117,229.639 		"/>
		
			<polyline style="fill:#FFFFFF;stroke:#1D1D1B;stroke-width:0.4597;stroke-linecap:round;stroke-linejoin:round;stroke-miterlimit:10;" points="
			292.838,228.547 291.504,231.04 289.889,230.636 290.583,227.809 		"/>
		
			<polyline style="fill:#FFFFFF;stroke:#1D1D1B;stroke-width:0.4597;stroke-linecap:round;stroke-linejoin:round;stroke-miterlimit:10;" points="
			290.023,227.983 290.577,226.292 289.075,225.925 288.362,227.954 		"/>
		
			<polyline style="fill:#FFFFFF;stroke:#1D1D1B;stroke-width:0.4597;stroke-linecap:round;stroke-linejoin:round;stroke-miterlimit:10;" points="
			294.812,229.658 295.365,227.967 293.863,227.6 293.047,229.33 		"/>
		
			<path style="fill:none;stroke:#1D1D1B;stroke-width:0.4597;stroke-linecap:round;stroke-linejoin:round;stroke-miterlimit:10;" d="
			M296.689,230.789c0,0-1.1-1.981-9.655-2.904"/>
		
			<path style="fill:none;stroke:#1D1D1B;stroke-width:0.4597;stroke-linecap:round;stroke-linejoin:round;stroke-miterlimit:10;" d="
			M278.421,213.794c0,0,0.457,2.566-0.812,2.38s-1.244,0.28-1.87,1.392s-1.551-0.783-2.155,1.442"/>
	</g>
	<path style="fill:none;stroke:#1D1D1B;stroke-width:0.4597;stroke-linecap:round;stroke-linejoin:round;stroke-miterlimit:10;" d="
		M343.456,199.317c0.368,0.705,1.147,1.178,1.851,0.81c0.705-0.368,0.873-1.671,0.505-2.376c-0.368-0.705-1.015-0.48-1.72-0.112
		C343.387,198.007,343.087,198.612,343.456,199.317z"/>
	<path style="fill:none;stroke:#616261;stroke-width:1.1032;stroke-linejoin:round;stroke-miterlimit:10;" d="M85.306,56.834
		c0,0,3.329-3.41,7.167-1.124c3.226,1.922,2.227,4.81,2.227,4.81"/>
	<path style="fill:none;stroke:#1D1D1B;stroke-width:0.4597;stroke-linecap:round;stroke-linejoin:round;stroke-miterlimit:10;" d="
		M84.831,56.477c0,0,3.983-3.032,7.848-1.308s2.497,5.351,2.497,5.351"/>
	<path style="fill:none;stroke:#1D1D1B;stroke-width:0.4597;stroke-linecap:round;stroke-linejoin:round;stroke-miterlimit:10;" d="
		M85.841,57.131c0,0,2.735-1.843,4.875-1.308c2.14,0.535,3.27,1.902,3.329,4.281"/>
	<g>
		<path style="fill:#F9BA05;" d="M99.774,50.951c-0.083-0.071,4.507,4.029,2.014,4.891c-2.815,0.974-6.814,0.827-6.814,0.827
			s0.671,0.105,0.198-0.295c-0.423-0.358-1.199,0.43-1.199,0.43s-1.478,0.44-1.88-0.016c-0.26-0.295,0.486-0.582,1.443-0.731
			c0,0-0.864-0.776,0.319-1.075c0,0-0.167,0.474,0.82,0.825c0.14,0.05,2.717-0.557,5.53-1.26c1.343-0.336-0.442-1.828-0.432-1.678
			C99.803,53.262,99.985,51.133,99.774,50.951z"/>
		
			<path style="fill:none;stroke:#1D1D1B;stroke-width:0.4597;stroke-linecap:round;stroke-linejoin:round;stroke-miterlimit:10;" d="
			M99.918,51.238c-0.335-0.271,3.788,4.268,0.813,4.575c-2.788,0.288-5.977,0.692-5.977,0.692s-2.067,1.444-2.372,0.005
			c-0.172-0.81,1.81-0.519,1.81-0.519s-1.004-0.38-0.587-0.812c0.266-0.276,1.07,0.698,1.07,0.698s2.981-0.591,5.71-1.032
			c1.856-0.3,0.062-1.162-0.705-1.881"/>
	</g>
	<g>
		<path style="fill:#F9BA05;" d="M83.198,48.731c0.098-0.048-5.384,2.75-3.191,4.218c2.475,1.658,6.38,2.533,6.38,2.533
			s-1.506,0.359-0.947,0.093c0.5-0.239,2.071,0.242,2.071,0.242s1.126,0.851,1.631,0.512c0.326-0.219-0.322-0.686-1.21-1.074
			c0,0,1.371,0.105,0.303-0.485c0,0-0.297-0.135-1.341-0.047c-0.148,0.012-2.486-1.229-5.027-2.624
			c-1.213-0.666,0.893-1.655,0.844-1.513C82.583,50.96,82.948,48.854,83.198,48.731z"/>
		
			<path style="fill:none;stroke:#1D1D1B;stroke-width:0.4597;stroke-linecap:round;stroke-linejoin:round;stroke-miterlimit:10;" d="
			M82.986,48.973c0.393-0.177-4.749,3.164-1.949,4.218c2.623,0.988,4.443,2.048,5.283,2.23c0.485,0.105,1.764,1.485,2.672,0.686
			c0.622-0.546-1.105-0.963-1.105-0.963s1.209,0.002,0.915-0.522c-0.187-0.335-1.924,0.172-1.924,0.172s-2.733-1.329-5.259-2.45
			c-1.718-0.762,0.236-1.139,1.161-1.64"/>
	</g>
	<path style="fill:none;stroke:#1D1D1B;stroke-width:0.4597;stroke-linecap:round;stroke-linejoin:round;stroke-miterlimit:10;" d="
		M88.435,51.228c0,0,4.583,3.142,6.547,0.393"/>
	<path style="fill:none;stroke:#1D1D1B;stroke-width:0.4597;stroke-linecap:round;stroke-linejoin:round;stroke-miterlimit:10;" d="
		M482.097,130.772"/>
	<g>
		<defs>
			<path id="SVGID_1_" d="M466.452,130.747c0,0,3.051,3.144,9.637,3.29c1.52,0.034,3.703,0.485,5.944-0.368
				c2.113-0.805,4.058-1.49,5.161-2.337c9.338-7.174,6.827-14.017,6.827-14.017l0.718-4.372l-12.611-6.958l-9.495-3.044
				l-4.929,5.146l-7.103,7.32l-5.146,3.479l-2.247,2.972l-0.684,2.542l7.202,4.108l5.815-1.28L466.452,130.747z"/>
		</defs>
		<clipPath id="SVGID_2_">
			<use xlink:href="#SVGID_1_"  style="overflow:visible;"/>
		</clipPath>
		<path style="clip-path:url(#SVGID_2_);fill:#1D1D1B;" d="M480.643,112.455c1.039-0.651,0.279-1.735-0.716-1.625
			c-1.32,0.146-0.426,1.833,0.667,1.624"/>
		<path style="clip-path:url(#SVGID_2_);fill:#1CA8E0;" d="M485.573,119.622c0,0-1.41-4.223-5.563-5.224
			c-4.153-1.001-9.911-3.114-14.058,5.943c0,0-1.532,14.572,7.076,17.762C473.028,138.102,490.259,140.417,485.573,119.622z"/>
		
			<path style="clip-path:url(#SVGID_2_);fill:none;stroke:#1D1D1B;stroke-width:0.4597;stroke-linecap:round;stroke-linejoin:round;stroke-miterlimit:10;" d="
			M483.95,116.447c2.335,5.141,3.009,11.226,0.276,16.277c-1.55,2.864-4.305,4.862-7.949,5.109c-3.737,0.253-6.611-2.61-8.015-5.47
			c-2.539-5.171-3.59-12.215,0.99-16.617c2.261-2.174,5.717-2.096,8.625-1.498c0,0,5.425,0.893,6.109,4.055"/>
		
			<path style="clip-path:url(#SVGID_2_);fill:none;stroke:#1D1D1B;stroke-width:0.4597;stroke-linecap:round;stroke-linejoin:round;stroke-miterlimit:10;" d="
			M475.734,118.583c0,0,1.014,0.831,0.108,1.431c-0.408,0.27-0.662,0.013-0.602-0.421c0.074-0.537,0.645-0.712,1.053-0.941"/>
		
			<path style="clip-path:url(#SVGID_2_);fill:none;stroke:#1D1D1B;stroke-width:0.4597;stroke-linecap:round;stroke-linejoin:round;stroke-miterlimit:10;" d="
			M473.667,115.418c0,0-0.712-3.894,1.291-5.527"/>
		
			<path style="clip-path:url(#SVGID_2_);fill:#FFFFFF;stroke:#1D1D1B;stroke-width:0.4597;stroke-linecap:round;stroke-linejoin:round;stroke-miterlimit:10;" d="
			M472.684,109.147c0,0,0.715,1.529,2.262,1.245c1.547-0.284,1.337-3.947-0.506-3.217c-1.843,0.73-1.269,2.173-1.269,2.173"/>
		<path style="clip-path:url(#SVGID_2_);fill:#1D1D1B;" d="M475.01,107.162c-0.571-0.322-1.153,0.188-1.273,0.746
			c-0.152,0.706,0.589,1.288,1.225,0.771C475.345,108.368,475.516,107.447,475.01,107.162z"/>
		
			<path style="clip-path:url(#SVGID_2_);fill:none;stroke:#1D1D1B;stroke-width:0.4597;stroke-linecap:round;stroke-linejoin:round;stroke-miterlimit:10;" d="
			M477.544,116.423c0,0,3.334-2.003,3.173-3.71"/>
		<path style="clip-path:url(#SVGID_2_);fill:#FFFFFF;" d="M480.71,113.001c0,0,0.162,0.012,0.391-0.007
			c0.688-0.056,1.985-0.384,1.344-2.119c-0.164-0.445-0.465-1.017-1.001-1.03c-0.776-0.019-1.679,0.651-1.821,1.437
			c-0.031,0.171,0.007,0.363,0.018,0.535c0.036,0.533,0.249,0.781,0.681,1.099c0.354,0.26,1.107,0.109,1.599-0.095"/>
		
			<path style="clip-path:url(#SVGID_2_);fill:#FFFFFF;stroke:#1D1D1B;stroke-width:0.4597;stroke-linecap:round;stroke-linejoin:round;stroke-miterlimit:10;" d="
			M491.78,123.996c0,0-14.775,3.3-30.245,1.678c-4.765-0.499,31.717-3.412,30.164-1.875c-0.69,0.682-2.271,0.973-2.271,0.973"/>
		<g style="clip-path:url(#SVGID_2_);">
			<path style="fill:#1CA8E0;" d="M485.364,119.766c0.056,0.145,10.318,0.792,8.802,2.882c-0.959,1.322-1.693,0.763-1.693,0.763
				s-0.765-1.781-1.421-0.562c-0.406,0.752,0.085,0.876,0.085,0.876s-2.947-0.03-2.576,0.699c0.1,0.197,0.202,0.908,2.893,0.513
				c0,0,0.554,1.719,1.187,0.559c0,0,0.119-0.673,0.001-0.927c-0.056-0.12,2.44-0.182,3.962-1.894
				c1.976-2.222-12.043-5.062-11.925-4.849C484.728,117.917,485.245,119.462,485.364,119.766z"/>
			
				<path style="fill:none;stroke:#1D1D1B;stroke-width:0.4597;stroke-linecap:round;stroke-linejoin:round;stroke-miterlimit:10;" d="
				M484.645,119.251c0.287,0.298,11.159,1.647,9.791,3.623c-0.966,1.396-2.163,0.79-2.163,0.79s-0.266-1.038-0.653-1.026
				c-0.387,0.012-0.556,0.793-0.08,1.127s-3.131-0.503-2.662,0.803c0.294,0.819,2.916-0.152,2.916-0.152s-0.027,1.59,0.389,1.267
				s0.191-1.285,0.191-1.285s2.089-0.327,3.734-1.58c2.636-2.008-11.448-4.618-11.776-4.97"/>
		</g>
		<g style="clip-path:url(#SVGID_2_);">
			<path style="fill:#1CA8E0;" d="M466.807,121.474c0.063,0.155-10.004,0.591-9.34,1.753c0.81,1.418,3,1.387,3,1.387
				s0.852-1.369,1.365-0.518c0.441,0.732-0.323,1.046-0.323,1.046s1.939-0.93,1.813,0.769c-0.011,0.146-0.556,0.508-2.047,0.106
				c0,0-1.015,1.868-1.398,0.603c0,0,0.021-0.683,0.189-0.908c0.079-0.106-4.219-0.285-5.36-2.272
				c-1.481-2.579,12.154-3.16,12.248-3.385C467.132,119.629,466.684,121.172,466.807,121.474z"/>
			
				<path style="fill:none;stroke:#1D1D1B;stroke-width:0.4597;stroke-linecap:round;stroke-linejoin:round;stroke-miterlimit:10;" d="
				M466.578,121.494c-0.934-0.04-9.971,0.431-9.153,1.793c0.799,1.331,3.186,1.614,3.186,1.614s0.472-0.962,0.849-0.871
				s0.382,0.89-0.152,1.119c-0.534,0.229,2.562-0.417,1.757,0.715c-0.045,0.064-2.138-0.13-2.138-0.13s-0.299,1.562-0.64,1.16
				c-0.341-0.402,0.075-1.297,0.075-1.297s-4.392-0.758-5.482-2.515c-1.017-1.64,11.253-3.056,12.124-2.966"/>
		</g>
		
			<path style="clip-path:url(#SVGID_2_);fill:#F19EB3;stroke:#1D1D1B;stroke-width:0.4597;stroke-linecap:round;stroke-linejoin:round;stroke-miterlimit:10;" d="
			M476.976,123.899c0,0-2.911-0.314-2.665,1.204c0.246,1.518-0.589,1.762-0.589,1.762s-2.13,0.857-0.302,1.933
			s3.9-1.026,3.626-2.609c-0.274-1.583-0.632-2.29,0.335-2.39"/>
		
			<path style="clip-path:url(#SVGID_2_);fill:none;stroke:#1D1D1B;stroke-width:0.4597;stroke-linecap:round;stroke-linejoin:round;stroke-miterlimit:10;" d="
			M476.03,130.596c0,0,1.859,0.132,2.036-1.001"/>
		
			<path style="clip-path:url(#SVGID_2_);fill:none;stroke:#1D1D1B;stroke-width:0.4597;stroke-linecap:round;stroke-linejoin:round;stroke-miterlimit:10;" d="
			M477.043,131.222c0,0,1.6-0.518,1.314-1.628"/>
		
			<path style="clip-path:url(#SVGID_2_);fill:#58C2F0;stroke:#1D1D1B;stroke-width:0.4597;stroke-linecap:round;stroke-linejoin:round;stroke-miterlimit:10;" d="
			M473.718,127.516c0,0-2.769,0.799-2.108,2.132C472.272,130.98,473.718,127.516,473.718,127.516z"/>
		
			<path style="clip-path:url(#SVGID_2_);fill:#58C2F0;stroke:#1D1D1B;stroke-width:0.4597;stroke-linecap:round;stroke-linejoin:round;stroke-miterlimit:10;" d="
			M478.798,126.73c0,0,0.784,1.553,1.501,1.011C481.015,127.199,478.798,126.73,478.798,126.73z"/>
		
			<path style="clip-path:url(#SVGID_2_);fill:#58C2F0;stroke:#1D1D1B;stroke-width:0.4597;stroke-linecap:round;stroke-linejoin:round;stroke-miterlimit:10;" d="
			M471.789,126.333c0,0-1.917-0.689-2.09,0.347S471.789,126.333,471.789,126.333z"/>
		
			<path style="clip-path:url(#SVGID_2_);fill:none;stroke:#1D1D1B;stroke-width:0.4597;stroke-linecap:round;stroke-linejoin:round;stroke-miterlimit:10;" d="
			M476.063,123.867c0,0-0.741,0.237-0.471,0.934c0.398,1.024-0.466,2.337-0.661,2.482"/>
		
			<path style="clip-path:url(#SVGID_2_);fill:none;stroke:#1D1D1B;stroke-width:0.4597;stroke-linecap:round;stroke-linejoin:round;stroke-miterlimit:10;" d="
			M472.876,107.812c0,0,2.171-0.617,3.349,0"/>
		<circle style="clip-path:url(#SVGID_2_);fill:#1D1D1B;" cx="480.858" cy="112.156" r="0.471"/>
		<path style="clip-path:url(#SVGID_2_);fill:#1CA8E0;" d="M478.807,111.418c0,0,0.902-2.744,2.815-1.539
			c1.913,1.206,0.912,3.055,0.912,3.055S481.367,111.189,478.807,111.418z"/>
		
			<path style="clip-path:url(#SVGID_2_);fill:none;stroke:#1D1D1B;stroke-width:0.4597;stroke-linecap:round;stroke-linejoin:round;stroke-miterlimit:10;" d="
			M478.558,111.724c0,0,1.995-1.063,4.097,1.336"/>
		
			<path style="clip-path:url(#SVGID_2_);fill:none;stroke:#1D1D1B;stroke-width:0.4597;stroke-linecap:round;stroke-linejoin:round;stroke-miterlimit:10;" d="
			M480.752,113.001c0,0,0.162,0.012,0.391-0.007c0.688-0.056,1.985-0.384,1.344-2.119c-0.164-0.445-0.465-1.017-1.001-1.03
			c-0.776-0.019-1.679,0.651-1.821,1.437c-0.031,0.171,0.007,0.363,0.018,0.535c0.036,0.533,0.249,0.781,0.681,1.099
			c0.354,0.26,1.107,0.109,1.599-0.095"/>
	</g>
</g>
</svg>
