<svg xmlns="http://www.w3.org/2000/svg" xmlns:xlink="http://www.w3.org/1999/xlink" viewBox="0 0 166.8 36.24"><defs><style>.a{fill:url(#a);}.b{opacity:0.8;}.c{fill:#fff;}.d{opacity:0.7;}.e{opacity:0.36;}</style><linearGradient id="a" y1="18.28" x2="166.8" y2="18.28" gradientUnits="userSpaceOnUse"><stop offset="0" stop-color="#30354f"/><stop offset="0.19" stop-color="#104586"/><stop offset="0.69" stop-color="#5486c5"/><stop offset="1" stop-color="#bbc8e8"/></linearGradient></defs><title>espace</title><rect class="a" y="0.16" width="166.8" height="36.24" rx="18.12"/><g class="b"><path class="c" d="M138.76,7c-.28-.14-.62-.14-.9-.27.37-.2.87.12,1.23-.11a.83.83,0,0,0,.31-.54,8,8,0,0,0,.15-2l.22,2.1a.51.51,0,0,0,.1.29.64.64,0,0,0,.18.1c.34.12.67.15,1,.28-.39,0-.88,0-1.19.15s-.24.5-.27.78c0,.45-.06.91-.14,1.35C139.32,8.43,139.57,7.45,138.76,7Z"/><path class="c" d="M41.68,9.82c-.34-.14-.74-.13-1.08-.27.45-.19,1,.12,1.47-.1a.82.82,0,0,0,.37-.54,6.54,6.54,0,0,0,.18-2L42.89,9a.42.42,0,0,0,.11.29.55.55,0,0,0,.22.1c.4.12.8.16,1.2.28-.46.06-1.05-.05-1.41.16s-.29.49-.33.77c0,.45-.08.91-.17,1.35C42.35,11.22,42.64,10.24,41.68,9.82Z"/><path class="c" d="M149.77,24.87c-.2-.09-.44-.09-.64-.17.27-.12.63.07.88-.06a.47.47,0,0,0,.22-.32,3.82,3.82,0,0,0,.11-1.21l.16,1.25a.31.31,0,0,0,.07.18.25.25,0,0,0,.13.05c.24.08.48.1.72.17a2.31,2.31,0,0,0-.85.1c-.17.09-.17.29-.19.46s0,.54-.11.81C150.17,25.7,150.35,25.11,149.77,24.87Z"/><path class="c" d="M71.42,30.56c-.16-.09-.36-.08-.53-.17.22-.11.52.08.73-.06a.51.51,0,0,0,.19-.32,4.9,4.9,0,0,0,.09-1.21L72,30.05a.35.35,0,0,0,.06.18.39.39,0,0,0,.11.06c.2.07.4.09.6.16-.23,0-.52,0-.71.1s-.14.3-.16.46,0,.55-.09.81C71.76,31.39,71.91,30.8,71.42,30.56Z"/><path class="c" d="M47.3,35.82c-.17-.08-.37-.08-.54-.16.22-.12.53.07.74-.07a.45.45,0,0,0,.18-.32,4.87,4.87,0,0,0,.1-1.21l.13,1.26a.21.21,0,0,0,.06.17.27.27,0,0,0,.1.06c.21.07.41.09.61.17-.23,0-.53,0-.71.09s-.15.3-.16.47,0,.54-.09.8C47.64,36.65,47.79,36.07,47.3,35.82Z"/><g class="d"><path class="c" d="M97.84,7.77c-.35-.18-.77-.17-1.13-.34.47-.24,1.1.15,1.55-.13a1,1,0,0,0,.38-.67,9.79,9.79,0,0,0,.19-2.53l.28,2.62a.56.56,0,0,0,.12.36.53.53,0,0,0,.23.13c.42.15.84.19,1.26.35-.48.06-1.1-.06-1.48.19s-.31.62-.34,1c-.06.56-.09,1.14-.19,1.69C98.54,9.52,98.85,8.29,97.84,7.77Z"/></g><path class="c" d="M40.43,26.42a.47.47,0,0,0-.7.37c.19-.05.27.25.2.43s-.18.42,0,.55.28.06.43.07.49.15.73.1c.39-.09.48-.61.41-1a1,1,0,0,0-.35-.71c-.22-.15-.61-.06-.65.21"/><path class="c" d="M86,27a.48.48,0,0,0,.4.69c-.06-.19.23-.29.42-.23s.43.16.55,0,.05-.28.05-.43.13-.49.06-.73-.63-.45-1-.37a1,1,0,0,0-.69.39c-.14.23,0,.61.23.64"/><path class="c" d="M124.82,24.84a.24.24,0,0,0-.27.19.43.43,0,0,0,.08.34.41.41,0,0,0,.33.2.36.36,0,0,0,.24-.16.47.47,0,0,0,0-.54.32.32,0,0,0-.49-.05"/><path class="c" d="M78.55,25.82a.24.24,0,0,0-.27.19.42.42,0,0,0,.08.34.36.36,0,0,0,.33.2.38.38,0,0,0,.24-.15.49.49,0,0,0,0-.55.32.32,0,0,0-.49-.05"/><path class="c" d="M113,31a.37.37,0,0,0-.48-.21.72.72,0,0,0-.41.41.67.67,0,0,0,0,.63.61.61,0,0,0,.43.19.78.78,0,0,0,.78-.4.53.53,0,0,0-.35-.73"/><path class="c" d="M110.27,29.36a.25.25,0,0,0-.28.19.46.46,0,0,0,.09.35.36.36,0,0,0,.33.19.35.35,0,0,0,.24-.15.49.49,0,0,0,0-.55.32.32,0,0,0-.49-.05"/><path class="c" d="M38.24,20a.25.25,0,0,0-.28.19.42.42,0,0,0,.09.34.36.36,0,0,0,.33.2.38.38,0,0,0,.24-.15.49.49,0,0,0,.05-.55.32.32,0,0,0-.49-.05"/><path class="c" d="M47.05,6.16a.25.25,0,0,0-.28.18.48.48,0,0,0,.08.35.41.41,0,0,0,.34.2.36.36,0,0,0,.24-.16.49.49,0,0,0,0-.54.33.33,0,0,0-.5-.06"/><path class="c" d="M61.89,9.84c-.12-.06-.25.08-.28.21a1.1,1.1,0,0,0,.08.64.45.45,0,0,0,.06.12.34.34,0,0,0,.16.1,1,1,0,0,0,.23.07.63.63,0,0,0,.33-.06.66.66,0,0,0,.26-.87.65.65,0,0,0-.86-.26.05.05,0,0,0,0,0s0,0,0,0"/><path class="c" d="M67.69-.72c-.12-.06-.25.07-.28.2a1,1,0,0,0,.09.64.5.5,0,0,0,0,.13.32.32,0,0,0,.16.09,1,1,0,0,0,.23.07.54.54,0,0,0,.33-.06.68.68,0,0,0,.27-.87.67.67,0,0,0-.87-.25s0,0,0,0,0,0,0,0"/><path class="c" d="M129.19,29.08c-.11,0-.23.07-.26.18a1,1,0,0,0,.08.57.37.37,0,0,0,.05.11.31.31,0,0,0,.14.09l.2.06a.51.51,0,0,0,.3-.06.56.56,0,1,0-.54-1s0,0,0,0a0,0,0,1,0,0,0"/><path class="c" d="M125.2,35.2c-.11-.06-.23.06-.26.18A1.13,1.13,0,0,0,125,36a1.17,1.17,0,0,0,0,.11.36.36,0,0,0,.15.08.47.47,0,0,0,.2.06.42.42,0,0,0,.29-.05.59.59,0,0,0,.24-.77.59.59,0,0,0-.77-.23s0,0,0,0,0,0,0,0"/><path class="c" d="M114.77,6.12c-.12-.06-.25.07-.28.2a1,1,0,0,0,.09.64.5.5,0,0,0,0,.13.37.37,0,0,0,.16.09,1,1,0,0,0,.23.07.54.54,0,0,0,.33-.06.68.68,0,0,0,.27-.87.66.66,0,0,0-.87-.25s0,0,0,0,0,0,0,0"/><path class="c" d="M156.51,21.74a.25.25,0,0,0-.27.19.42.42,0,0,0,.08.34.39.39,0,0,0,.34.2.41.41,0,0,0,.24-.15.52.52,0,0,0,0-.55.33.33,0,0,0-.5-.05"/><path class="c" d="M156,1.59a.24.24,0,0,0-.27.19.42.42,0,0,0,.08.34.32.32,0,0,0,.57,0,.49.49,0,0,0,0-.55.32.32,0,0,0-.49-.05"/><path class="c" d="M153.18,17.81c-.12-.06-.25.08-.28.21a1.1,1.1,0,0,0,.08.64.45.45,0,0,0,.06.12.34.34,0,0,0,.16.1,1,1,0,0,0,.23.07.55.55,0,0,0,.33-.07.64.64,0,1,0-.6-1.12s0,0,0,0,0,0,0,0"/><g class="e"><path class="c" d="M58.63,8.67a.24.24,0,0,0-.28.18.45.45,0,0,0,.09.35.38.38,0,0,0,.33.2A.36.36,0,0,0,59,9.24a.47.47,0,0,0,.05-.54.32.32,0,0,0-.49-.06"/><path class="c" d="M94.16,8a.25.25,0,0,0-.28.18.45.45,0,0,0,.09.35.38.38,0,0,0,.33.2.36.36,0,0,0,.24-.16.47.47,0,0,0,0-.54.33.33,0,0,0-.5-.06"/><path class="c" d="M112.61,28.26a.25.25,0,0,0-.3-.14.46.46,0,0,0-.26.25.39.39,0,0,0,0,.38.36.36,0,0,0,.26.13.47.47,0,0,0,.49-.23.31.31,0,0,0-.2-.45"/><path class="c" d="M63.87,26.69a.25.25,0,0,0-.28.19.42.42,0,0,0,.09.34.36.36,0,0,0,.33.2.38.38,0,0,0,.24-.15.49.49,0,0,0,0-.55.32.32,0,0,0-.49,0"/><path class="c" d="M100.42,28.21c-.12-.06-.25.07-.29.2a1.18,1.18,0,0,0,.09.64.52.52,0,0,0,.06.13.32.32,0,0,0,.16.09.94.94,0,0,0,.22.07.56.56,0,0,0,.34-.06.67.67,0,0,0,.26-.87.66.66,0,0,0-.87-.25s0,0,0,0,0,0,0,0"/><path class="c" d="M133,30.21a.25.25,0,0,0-.28.19.43.43,0,0,0,.09.34.38.38,0,0,0,.33.2.36.36,0,0,0,.24-.16.47.47,0,0,0,.05-.54.32.32,0,0,0-.49,0"/><path class="c" d="M147.27,14a.23.23,0,0,0-.27.18.44.44,0,0,0,.08.35.41.41,0,0,0,.33.2.36.36,0,0,0,.24-.16.47.47,0,0,0,0-.54.32.32,0,0,0-.49-.06"/><path class="c" d="M128.93,1.17a.25.25,0,0,0-.27.18.48.48,0,0,0,.08.35.41.41,0,0,0,.34.2.38.38,0,0,0,.24-.16.51.51,0,0,0,.05-.54.33.33,0,0,0-.5-.06"/><path class="c" d="M80.3,6.32A.25.25,0,0,0,80,6.5a.45.45,0,0,0,.09.35.38.38,0,0,0,.33.2.36.36,0,0,0,.24-.16.47.47,0,0,0,0-.54.32.32,0,0,0-.49-.06"/><path class="c" d="M146.66,29.58a.24.24,0,0,0-.27.19.43.43,0,0,0,.08.34.41.41,0,0,0,.34.2.38.38,0,0,0,.24-.16.51.51,0,0,0,0-.54.33.33,0,0,0-.5-.05"/><path class="c" d="M146.47,3c-.12-.06-.26.07-.29.2a1.23,1.23,0,0,0,.09.65.34.34,0,0,0,.06.12.32.32,0,0,0,.16.09.81.81,0,0,0,.22.07.54.54,0,0,0,.33-.06.67.67,0,0,0,.27-.87.67.67,0,0,0-.87-.25s0,0,0,0,0,0,0,0"/></g><path class="c" d="M158,9.84c-.12-.06-.25.08-.29.21a1.19,1.19,0,0,0,.09.64.45.45,0,0,0,.06.12.34.34,0,0,0,.16.1.94.94,0,0,0,.22.07.66.66,0,0,0,.34-.06.67.67,0,0,0,.26-.87.66.66,0,0,0-.87-.26s0,0,0,0,0,0,0,0"/><path class="c" d="M145.18,26.54c-.12-.06-.25.08-.29.21a1.19,1.19,0,0,0,.09.64.45.45,0,0,0,.06.12.34.34,0,0,0,.16.1.94.94,0,0,0,.22.07.57.57,0,0,0,.34-.07.64.64,0,1,0-.61-1.12s0,0,0,0,0,0,0,0"/><path class="c" d="M60.26,27.84c-.12-.06-.26.07-.29.2a1.23,1.23,0,0,0,.09.65.34.34,0,0,0,.06.12.32.32,0,0,0,.16.09.81.81,0,0,0,.22.07.54.54,0,0,0,.33-.06.64.64,0,1,0-.6-1.12s0,0,0,0,0,0,0,0"/><path class="c" d="M81.1,35.06c-.12-.06-.26.08-.29.21a1.19,1.19,0,0,0,.09.64A.23.23,0,0,0,81,36a.34.34,0,0,0,.16.1.81.81,0,0,0,.22.07.63.63,0,0,0,.33-.06.67.67,0,0,0,.27-.87.67.67,0,0,0-.87-.26l0,0s0,0,0,0"/></g></svg>