<svg xmlns="http://www.w3.org/2000/svg" viewBox="0 0 166.8 36.24"><defs><style>.a{fill:#fff;}.b{fill:#263068;}.c{fill:none;}.d{opacity:0.45;}</style></defs><title>vagues</title><rect class="a" width="166.8" height="36.24" rx="18.12" ry="18.12"/><path class="b" d="M148.89,36.24H19.24c-6.57,0-12.67-2.83-16.25-8.5A18.28,18.28,0,0,1,10.93,1.59C14.31.06,17.75,0,21.34,0H148.76a18.4,18.4,0,0,1,10.3,3.14,18.12,18.12,0,0,1-10.17,33.1Z"/><path class="c" d="M148.89,36.24H19.24c-6.57,0-12.67-2.83-16.25-8.5A18.28,18.28,0,0,1,10.93,1.59C14.31.06,17.75,0,21.34,0H148.76a18.4,18.4,0,0,1,10.3,3.14,18.12,18.12,0,0,1-10.17,33.1Z"/><g class="d"><path class="c" d="M108,36.24h6.65A5.34,5.34,0,0,0,108,36.24Z"/><path class="c" d="M94,36.24h6.65A5.34,5.34,0,0,0,94,36.24Z"/><path class="c" d="M79.9,36.24h6.65A5.34,5.34,0,0,0,79.9,36.24Z"/><path class="c" d="M51.77,36.24h6.65A5.34,5.34,0,0,0,51.77,36.24Z"/><path class="c" d="M65.83,36.24h6.65A5.34,5.34,0,0,0,65.83,36.24Z"/><path class="c" d="M37.71,36.24h6.64A5.32,5.32,0,0,0,37.71,36.24Z"/><path class="c" d="M12.18,35.13a17.36,17.36,0,0,0,3.82.94A5.29,5.29,0,0,0,12.18,35.13Z"/><path class="c" d="M156.89,25.24A5.11,5.11,0,0,0,153,24.09c-1.51.14-2.29.94-3.5,1.68a5.91,5.91,0,0,1-4.05.71c-1.47-.25-2.22-1.15-3.45-1.82a5.62,5.62,0,0,0-4.22-.35c-1.33.42-2.17,1.57-3.51,2a6.13,6.13,0,0,1-4.14-.17c-1.24-.52-2-1.58-3.39-1.9a5.48,5.48,0,0,0-4.08.57A20.15,20.15,0,0,1,121,26a5.89,5.89,0,0,1-2.58.57,6.16,6.16,0,0,1-2.16-.39,9.56,9.56,0,0,1-2-1.32,5.47,5.47,0,0,0-3.93-.7c-1.46.27-2.24,1.33-3.53,1.91a6.12,6.12,0,0,1-4.13.26c-1.32-.37-2.13-1.46-3.38-1.92a5.71,5.71,0,0,0-4,0c-1.29.52-2.09,1.61-3.51,1.95A6.08,6.08,0,0,1,87.59,26c-1.23-.63-2-1.58-3.43-1.82a5.35,5.35,0,0,0-3.9.79,6.53,6.53,0,0,1-3.67,1.62,5.61,5.61,0,0,1-3.9-1.14A5.37,5.37,0,0,0,69,24.07a5.9,5.9,0,0,0-3.59,1.49,5.76,5.76,0,0,1-4,1c-1.55-.16-2.37-1-3.61-1.74a5.54,5.54,0,0,0-4-.6c-1.4.29-2.17,1.32-3.41,1.88a6.17,6.17,0,0,1-4.13.26c-1.36-.38-2.19-1.52-3.5-2a5.68,5.68,0,0,0-4,.14c-1.29.56-2.08,1.62-3.52,1.93a6.07,6.07,0,0,1-4-.47c-1.29-.65-2.05-1.63-3.57-1.84A5.3,5.3,0,0,0,23.9,25a6.24,6.24,0,0,1-3.7,1.55,5.6,5.6,0,0,1-3.77-1.15,5.38,5.38,0,0,0-3.8-1.34,6.31,6.31,0,0,0-3.56,1.57,5.85,5.85,0,0,1-4,.88A5.56,5.56,0,0,1,3.21,26c-.64-.33-1.11-.87-1.72-1.23a18,18,0,0,0,2.75,4.71,8,8,0,0,0,1.86,2c.61.32,1.85-.2,2.43-.54s1.14-.94,1.82-1.27a5.73,5.73,0,0,1,2.15-.54,5.67,5.67,0,0,1,4.09,1.31,5.33,5.33,0,0,0,4.15,1.12c1.61-.22,2.41-1.33,3.79-2A6.16,6.16,0,0,1,29,29.42c1.39.51,2.25,1.71,3.76,2a5.36,5.36,0,0,0,4.26-.82,6.16,6.16,0,0,1,4-1.55,6.24,6.24,0,0,1,4,1.55,5.36,5.36,0,0,0,4.26.82c1.5-.31,2.37-1.52,3.76-2a6.15,6.15,0,0,1,4.39.09c1.38.58,2.21,1.73,3.78,2a5.32,5.32,0,0,0,4.19-1,5.77,5.77,0,0,1,4-1.4c1.67.07,2.61.82,3.91,1.7a5.49,5.49,0,0,0,4.32.61C79.13,31,80,29.72,81.52,29.3a6.09,6.09,0,0,1,4.36.37c.61.31,1.05.81,1.62,1.17a5.08,5.08,0,0,0,2.21.7,5.38,5.38,0,0,0,4.07-1.32A5.75,5.75,0,0,1,98,29.1a5.6,5.6,0,0,1,2,.57c.68.35,1.16.93,1.83,1.29a5.58,5.58,0,0,0,4.37.31c1.4-.48,2.27-1.69,3.75-2a6,6,0,0,1,4.33.56c.58.34,1,.85,1.61,1.17a5.29,5.29,0,0,0,2.27.6,5.88,5.88,0,0,0,4-1.49,5.8,5.8,0,0,1,4.23-.94,5.68,5.68,0,0,1,2,.66c.65.38,1.14,1,1.83,1.29a5.71,5.71,0,0,0,4.39.1c1.38-.56,2.22-1.71,3.77-2a5.92,5.92,0,0,1,4.29.74,13.26,13.26,0,0,0,1.62,1.16,5.53,5.53,0,0,0,2.31.48,5.72,5.72,0,0,0,2.08-.38,11.61,11.61,0,0,0,1.85-1.26,5.91,5.91,0,0,1,4.29-.74c1.63.31,2.55,1.61,4.07,2.1a3.1,3.1,0,0,0,2.46,0,10,10,0,0,0,2-2.15,18.13,18.13,0,0,0,2.68-4.83,9.08,9.08,0,0,0-2.22,1.38,5.52,5.52,0,0,1-2.3.81A5.58,5.58,0,0,1,156.89,25.24Z"/><path class="c" d="M23.64,36.24h6.65A5.35,5.35,0,0,0,23.64,36.24Z"/><path class="c" d="M9.75,3.54a5.79,5.79,0,0,1,7.38,0A5.13,5.13,0,0,0,20.88,4.7c1.51-.1,2.33-.83,3.52-1.62a5.8,5.8,0,0,1,3.77-.82,7.26,7.26,0,0,1,3.5,1.66,5.37,5.37,0,0,0,3.93.7C37,4.36,37.78,3.37,39,2.77a6.15,6.15,0,0,1,4-.38c1.34.32,2.09,1.29,3.28,1.84a5.64,5.64,0,0,0,4,.23c1.28-.4,2.09-1.5,3.37-1.93a6.15,6.15,0,0,1,4,.05C59,3,59.77,4.13,61.08,4.5a5.62,5.62,0,0,0,4-.32c1.23-.62,2-1.57,3.42-1.85a6.09,6.09,0,0,1,3.85.5c1.24.63,2,1.58,3.43,1.81a5.34,5.34,0,0,0,3.9-.78,6.67,6.67,0,0,1,3.54-1.62,5.71,5.71,0,0,1,3.83,1,5.83,5.83,0,0,0,3.46,1.49,5.27,5.27,0,0,0,3.71-1.25A5.7,5.7,0,0,1,98,2.22a5.79,5.79,0,0,1,3.64,1.4,5.22,5.22,0,0,0,3.79,1.08c1.51-.14,2.29-.94,3.5-1.68a5.86,5.86,0,0,1,3.93-.73c1.42.21,2.19,1,3.34,1.7a5.52,5.52,0,0,0,4,.61c1.39-.3,2.16-1.33,3.4-1.88a6.14,6.14,0,0,1,4-.3c1.35.35,2.13,1.41,3.38,1.92a5.77,5.77,0,0,0,3.91.09c1.26-.44,2.07-1.54,3.37-1.94a6.22,6.22,0,0,1,4,.13c1.25.49,2,1.57,3.38,1.92a5.61,5.61,0,0,0,4-.42c1.17-.64,1.91-1.52,3.3-1.79A6,6,0,0,1,157,3c.56.32,1,.82,1.55,1.14a5.36,5.36,0,0,0,2.51.62A18.3,18.3,0,0,0,148.85,0H21.27a27,27,0,0,0-8.2.79A18.23,18.23,0,0,0,6.22,4.7,4.92,4.92,0,0,0,9.75,3.54Z"/><path class="c" d="M150.31,36.17a17.94,17.94,0,0,0,4.48-.94A5.3,5.3,0,0,0,150.31,36.17Z"/><path class="c" d="M157.42,14.92a5,5,0,0,0-3.88-1.16,5.37,5.37,0,0,0-2,.58c-.59.32-1,.83-1.61,1.17a6,6,0,0,1-4.07.62c-1.47-.29-2.25-1.3-3.53-1.9a5.67,5.67,0,0,0-4.15-.2c-1.31.45-2.14,1.59-3.5,2a6.18,6.18,0,0,1-4.13-.27c-1.29-.58-2.07-1.63-3.53-1.9a5.38,5.38,0,0,0-4,.76,6.61,6.61,0,0,1-3.67,1.63,5.67,5.67,0,0,1-3.9-1.15,5.39,5.39,0,0,0-3.8-1.33c-1.58.07-2.43.82-3.67,1.63a5.89,5.89,0,0,1-4,.79,5.42,5.42,0,0,1-2-.66c-.58-.34-1-.85-1.61-1.17A5.56,5.56,0,0,0,96.24,14c-1.35.38-2.18,1.53-3.5,2a6.19,6.19,0,0,1-4.14-.09c-1.3-.51-2.11-1.62-3.51-1.95a5.55,5.55,0,0,0-4.09.58c-.57.35-1,.85-1.61,1.16a5.6,5.6,0,0,1-2,.57,5.75,5.75,0,0,1-4-1,5.38,5.38,0,0,0-7.45,0,5.75,5.75,0,0,1-4,1,5.6,5.6,0,0,1-2-.57c-.61-.31-1-.81-1.61-1.16a5.55,5.55,0,0,0-4.09-.58c-1.4.33-2.21,1.45-3.51,1.95a6.19,6.19,0,0,1-4.14.09c-1.32-.44-2.15-1.59-3.5-2a5.56,5.56,0,0,0-4.12.38c-.59.32-1,.83-1.61,1.17a5.42,5.42,0,0,1-2,.66,5.93,5.93,0,0,1-4-.79c-1.23-.81-2.08-1.56-3.66-1.63A5.39,5.39,0,0,0,24,15.08a5.67,5.67,0,0,1-3.9,1.15A6.61,6.61,0,0,1,16.4,14.6a5.38,5.38,0,0,0-4-.76c-1.46.27-2.24,1.33-3.53,1.9A6.18,6.18,0,0,1,4.71,16c-1.51-.43-2.44-1.73-4-2.09a19.36,19.36,0,0,0-.47,2.94c0,.24-.21,1.16,0,1.37s1.18.38,1.54.58c.64.37,1.12.94,1.8,1.26a5.53,5.53,0,0,0,2.31.48,5.53,5.53,0,0,0,2.31-.48c.69-.33,1.18-.91,1.84-1.29a6.06,6.06,0,0,1,4.46-.53c1.49.4,2.4,1.67,3.87,2.09a5.52,5.52,0,0,0,4.44-.58c1.35-.9,2.33-1.67,4-1.7A6.41,6.41,0,0,1,31,19.69a5.47,5.47,0,0,0,4.3.71c1.55-.36,2.48-1.68,4-2.11a6,6,0,0,1,4.47.43c.63.35,1.1.89,1.72,1.23a5.29,5.29,0,0,0,2.27.6c1.73.07,2.76-.63,4.1-1.56a5.81,5.81,0,0,1,4.39-.82c1.59.3,2.46,1.51,3.89,2A5.57,5.57,0,0,0,64.66,20c.63-.34,1.1-.89,1.72-1.23a6,6,0,0,1,6.47.66,5.32,5.32,0,0,0,4.41,1.08c1.57-.29,2.44-1.53,3.89-2.05a6.14,6.14,0,0,1,4.5.14,11.74,11.74,0,0,1,1.74,1.21,4.9,4.9,0,0,0,2.19.75,5.38,5.38,0,0,0,4.2-1.3,5.8,5.8,0,0,1,4.43-1.09,5.61,5.61,0,0,1,2,.66c.66.38,1.14,1,1.84,1.29a5.64,5.64,0,0,0,4.62,0,13.26,13.26,0,0,0,1.62-1.16,5.47,5.47,0,0,1,2.17-.79,5.78,5.78,0,0,1,4.43,1.09,5.39,5.39,0,0,0,4.2,1.3,5,5,0,0,0,2.09-.68A14.73,14.73,0,0,1,123,18.55a6.16,6.16,0,0,1,4.51-.14c1.44.52,2.31,1.76,3.89,2.05a5.33,5.33,0,0,0,4.41-1.08,5.66,5.66,0,0,1,4.09-1.31,5.74,5.74,0,0,1,2.26.59c.68.35,1.17.93,1.83,1.29a5.58,5.58,0,0,0,4.49.26c1.44-.53,2.31-1.74,3.89-2a5.8,5.8,0,0,1,4.39.82c1.34.93,2.37,1.63,4.1,1.56A5.42,5.42,0,0,0,163,20c.74-.38,1.28-1,2-1.39a5.82,5.82,0,0,1,1.34-.43,4.52,4.52,0,0,0,.63-.09,3.4,3.4,0,0,0,0-.77,18.16,18.16,0,0,0-.48-3.35,8.59,8.59,0,0,0-2.3,1.4,5.56,5.56,0,0,1-2.3.81A5.64,5.64,0,0,1,157.42,14.92Z"/><path class="c" d="M150.2,30.75a5.78,5.78,0,0,1-7.1.24c-2-1.56-4.74-2-6.88-.32a5.88,5.88,0,0,1-7.08.4,5.8,5.8,0,0,0-3.32-1.48,5.18,5.18,0,0,0-3.57,1,5.91,5.91,0,0,1-7.07.55,6.36,6.36,0,0,0-3.29-1.54,5.21,5.21,0,0,0-3.6.91,6.23,6.23,0,0,1-3.44,1.54,5.83,5.83,0,0,1-3.63-.84A7,7,0,0,0,98,29.61a5.31,5.31,0,0,0-3.64.83,6.75,6.75,0,0,1-3.4,1.6,5.92,5.92,0,0,1-3.66-.76c-1.12-.7-1.84-1.46-3.23-1.65a5.27,5.27,0,0,0-3.77.81A6.81,6.81,0,0,1,77,32a5.92,5.92,0,0,1-3.69-.68c-1.13-.65-1.83-1.47-3.21-1.69a5.35,5.35,0,0,0-3.79.72A7.52,7.52,0,0,1,63.05,32a5.93,5.93,0,0,1-3.7-.6c-1.13-.62-1.84-1.48-3.19-1.73a5.42,5.42,0,0,0-3.82.63c-1.11.69-1.85,1.45-3.22,1.68a6,6,0,0,1-3.72-.52c-1.19-.6-1.91-1.54-3.3-1.79a5.52,5.52,0,0,0-3.72.57c-1.12.65-1.85,1.46-3.19,1.72a6.09,6.09,0,0,1-3.74-.44c-1.14-.55-1.87-1.49-3.16-1.8a5.66,5.66,0,0,0-3.86.45c-1.14.62-1.85,1.48-3.18,1.76a6.11,6.11,0,0,1-3.75-.36C16.31,31,15.55,30,14.23,29.72a5.58,5.58,0,0,0-3.75.4A16.44,16.44,0,0,0,9,31.22,5.32,5.32,0,0,1,6.73,32a17.91,17.91,0,0,0,2.74,1.91,7.83,7.83,0,0,0,1.5.76,4.24,4.24,0,0,0,1.5-.07,6,6,0,0,1,2.93.5,8.77,8.77,0,0,1,1.19.79,2.61,2.61,0,0,0,1.57.35c1,0,1.93,0,2.9,0a10.44,10.44,0,0,0,1.48,0c.59-.09.92-.56,1.43-.88A6,6,0,0,1,29.16,35a4.63,4.63,0,0,1,1,.53c.3.21.61.63.95.74a3.39,3.39,0,0,0,.9,0h3.64a5.15,5.15,0,0,0,1.11,0c.57-.13,1-.78,1.6-1.06a6,6,0,0,1,5.09-.11c.62.27,1.14,1,1.75,1.17a4,4,0,0,0,1,0h3.65a3.79,3.79,0,0,0,1,0c.61-.18,1.14-.9,1.76-1.17a6.06,6.06,0,0,1,5.1.11c.51.26,1,.93,1.57,1.06a5.34,5.34,0,0,0,1.13,0H64.1a3.79,3.79,0,0,0,.89,0c.3-.09.61-.48.86-.67a5,5,0,0,1,1.23-.65,6,6,0,0,1,5.07.44c.43.27.81.77,1.3.88a7.38,7.38,0,0,0,1.41,0h3.58c1.18,0,1.91-1.11,3.08-1.44a5.92,5.92,0,0,1,5,.77c.38.29.63.6,1.1.67a10.44,10.44,0,0,0,1.48,0h3.52a1.11,1.11,0,0,0,1-.35,5.57,5.57,0,0,1,2.24-1.15,5.83,5.83,0,0,1,5,1c.45.36.54.47,1,.51s1,0,1.52,0c1.14,0,2.32.08,3.45,0,.51,0,.59-.15,1-.51a5.23,5.23,0,0,1,2.31-1,6.15,6.15,0,0,1,5,1.3c.68.49,1.73.26,2.55.26a22.86,22.86,0,0,0,3.31,0c.46-.07.7-.38,1.1-.67a5.43,5.43,0,0,1,2.64-1,6.26,6.26,0,0,1,2.36.2,5,5,0,0,1,1.19.5c.41.23.84.81,1.27.94a9.8,9.8,0,0,0,2.48,0,15.59,15.59,0,0,0,3.13,0c.49-.11.87-.61,1.3-.88a5.67,5.67,0,0,1,2.6-.78,6.3,6.3,0,0,1,2.47.34,4.94,4.94,0,0,1,1,.51c.34.22.68.69,1.07.81a11,11,0,0,0,2.81,0,17.38,17.38,0,0,0,2.7,0c.83-.14,1.53-1,2.39-1.34a6.29,6.29,0,0,1,2.92-.25c.57.09.94.31,1.47.15a8.64,8.64,0,0,0,1.59-.77,17.78,17.78,0,0,0,2.9-2,5.53,5.53,0,0,1-3.06-.92,7.37,7.37,0,0,0-2.25-1.35A5.28,5.28,0,0,0,150.2,30.75Z"/><path class="c" d="M156.89,19.74A5.07,5.07,0,0,0,153,18.59a5.17,5.17,0,0,0-2,.57c-.59.32-1,.84-1.61,1.17a6,6,0,0,1-4.07.62c-1.47-.28-2.25-1.3-3.53-1.9a5.72,5.72,0,0,0-4.15-.19c-1.31.45-2.14,1.58-3.49,2a6.21,6.21,0,0,1-4.14-.27c-1.28-.57-2.07-1.63-3.53-1.9a5.34,5.34,0,0,0-4,.77,6.67,6.67,0,0,1-3.67,1.62,5.63,5.63,0,0,1-3.9-1.15,5.39,5.39,0,0,0-3.8-1.33c-1.57.07-2.42.82-3.66,1.63a5.87,5.87,0,0,1-4,.79,5.48,5.48,0,0,1-2-.66c-.58-.33-1-.85-1.61-1.17a5.65,5.65,0,0,0-4.12-.38c-1.34.38-2.18,1.53-3.5,2a6.13,6.13,0,0,1-4.14-.09c-1.3-.5-2.11-1.62-3.51-1.95a5.55,5.55,0,0,0-4.09.58,18.23,18.23,0,0,1-1.61,1.16,5.83,5.83,0,0,1-2,.58,5.76,5.76,0,0,1-4-1,5.38,5.38,0,0,0-7.45,0,5.76,5.76,0,0,1-4,1,5.83,5.83,0,0,1-2-.58c-.6-.31-1-.8-1.61-1.16a5.54,5.54,0,0,0-4.08-.58c-1.4.33-2.22,1.45-3.51,1.95a6.16,6.16,0,0,1-4.15.09c-1.32-.44-2.15-1.58-3.5-2a5.66,5.66,0,0,0-4.12.38c-.59.32-1,.84-1.61,1.17a5.37,5.37,0,0,1-2,.66,5.85,5.85,0,0,1-4-.79c-1.24-.81-2.09-1.56-3.66-1.63a5.37,5.37,0,0,0-3.8,1.33,5.71,5.71,0,0,1-3.91,1.15,6.61,6.61,0,0,1-3.66-1.62,5.38,5.38,0,0,0-4-.77c-1.46.27-2.24,1.33-3.53,1.9a6.11,6.11,0,0,1-4.13.27c-1.49-.43-2.41-1.7-3.92-2.08a17.63,17.63,0,0,0,.37,3.08c.11.53.24,1.05.4,1.56.22.73.43.71,1,1.12,1.35.91,2.36,1.62,4.09,1.54a5.41,5.41,0,0,0,2.16-.53c.71-.37,1.22-1,1.94-1.35a6.09,6.09,0,0,1,4.36-.38c1.52.44,2.45,1.75,4,2.12a5.41,5.41,0,0,0,4.29-.72,6.54,6.54,0,0,1,4.2-1.63A6.56,6.56,0,0,1,31,25.19a5.42,5.42,0,0,0,4.55.65c1.43-.41,2.31-1.64,3.75-2.05a6,6,0,0,1,4.58.5c.58.33,1,.85,1.61,1.17a5.28,5.28,0,0,0,2.27.59,5.54,5.54,0,0,0,2.35-.38A10.54,10.54,0,0,0,52,24.42a5.91,5.91,0,0,1,4.42-.72c1.55.33,2.44,1.57,3.88,2.06a5.56,5.56,0,0,0,4.48-.37c.62-.36,1.08-.9,1.72-1.22a5.8,5.8,0,0,1,2.27-.6A5.88,5.88,0,0,1,72.94,25a5.33,5.33,0,0,0,4.32,1c1.57-.29,2.44-1.52,3.89-2.05a6.14,6.14,0,0,1,4.5.15,11.68,11.68,0,0,1,1.74,1.2,4.91,4.91,0,0,0,2.19.76,5.43,5.43,0,0,0,4.2-1.3,5.7,5.7,0,0,1,4.3-1.11,5.53,5.53,0,0,1,2.09.68c.66.38,1.14,1,1.84,1.28a5.59,5.59,0,0,0,4.5.05,11.68,11.68,0,0,0,1.74-1.2,5.32,5.32,0,0,1,2.17-.79,5.74,5.74,0,0,1,4.33,1A5.57,5.57,0,0,0,118.92,26a4.94,4.94,0,0,0,2.11-.64c.65-.38,1.14-.95,1.84-1.28a6.12,6.12,0,0,1,4.49-.24c1.45.49,2.35,1.74,3.89,2.06A5.3,5.3,0,0,0,135.6,25a6,6,0,0,1,4.56-1.43,5.59,5.59,0,0,1,2.18.67c.67.38,1.16,1,1.86,1.29a5.59,5.59,0,0,0,4.5.05,11,11,0,0,0,1.74-1.2,5.32,5.32,0,0,1,2.17-.79A5.74,5.74,0,0,1,157,24.72,5.39,5.39,0,0,0,161.11,26a4.9,4.9,0,0,0,2.11-.64A14.78,14.78,0,0,1,165.49,24c.58-.21.63-.23.81-.84.13-.45.24-.89.33-1.35a18.42,18.42,0,0,0,.36-3.15c-2,.21-3.16,1.89-5.1,2.31A5.67,5.67,0,0,1,156.89,19.74Z"/><path class="c" d="M136.15,36.24h6.65A5.34,5.34,0,0,0,136.15,36.24Z"/><path class="c" d="M157.42,3.91a5.12,5.12,0,0,0-4.15-1.13C151.75,3,151,4,149.71,4.62a6.09,6.09,0,0,1-4.36.38c-1.36-.39-2.19-1.53-3.5-2a5.63,5.63,0,0,0-4.37.31c-.59.32-1,.83-1.61,1.17a5.48,5.48,0,0,1-2,.66,5.79,5.79,0,0,1-4.23-.93A5.84,5.84,0,0,0,126,2.73a5.72,5.72,0,0,0-2.08.38A11.17,11.17,0,0,0,122,4.37a5.88,5.88,0,0,1-4.16.77A5.4,5.4,0,0,1,116,4.5c-.65-.38-1.14-1-1.83-1.28a5.64,5.64,0,0,0-4.27-.15c-1.34.5-2.18,1.65-3.63,2a6.05,6.05,0,0,1-4.22-.5c-.59-.32-1-.83-1.61-1.17a5.23,5.23,0,0,0-2.11-.64,5.33,5.33,0,0,0-4,1.24,5.71,5.71,0,0,1-4,1.23c-1.6-.1-2.51-.85-3.77-1.69a5.45,5.45,0,0,0-4.19-.65c-1.44.34-2.28,1.51-3.63,2a6.15,6.15,0,0,1-4.27,0c-1.34-.52-2.17-1.67-3.64-2a5.44,5.44,0,0,0-4.16.74,6.5,6.5,0,0,1-3.8,1.63,5.75,5.75,0,0,1-4-1.31,5.27,5.27,0,0,0-4.14-1.13C53.31,3,52.54,4,51.26,4.62A6.09,6.09,0,0,1,46.9,5c-1.36-.39-2.19-1.53-3.5-2A5.63,5.63,0,0,0,39,3.33c-.59.32-1,.83-1.61,1.17a5.42,5.42,0,0,1-2,.66,5.8,5.8,0,0,1-4.23-.93,5.84,5.84,0,0,0-3.73-1.5,5.63,5.63,0,0,0-2.07.38,11.26,11.26,0,0,0-1.86,1.26,5.88,5.88,0,0,1-4.16.77,5.34,5.34,0,0,1-1.82-.64c-.66-.38-1.15-1-1.84-1.28a5.64,5.64,0,0,0-4.27-.15A6.79,6.79,0,0,0,9.75,4.2a5.28,5.28,0,0,1-2.44,1c-.43.06-.86,0-1.29,0s-.67.31-1,.69A20,20,0,0,0,3.25,8.14c-.35.54-.53.56-.1,1A3.24,3.24,0,0,0,4,9.68a5.26,5.26,0,0,0,2.16.54A5.58,5.58,0,0,0,10,8.81,5.68,5.68,0,0,1,14.1,7.76a5.81,5.81,0,0,1,2,.57c.64.33,1.11.87,1.72,1.23a5.59,5.59,0,0,0,4.24.45c1.38-.4,2.24-1.59,3.62-2a6.1,6.1,0,0,1,4.25.22c1.35.6,2.13,1.68,3.67,1.93a5.35,5.35,0,0,0,4.1-.94,5.92,5.92,0,0,1,7.74,0,5.34,5.34,0,0,0,4.23.92c1.46-.27,2.24-1.33,3.53-1.91A6.18,6.18,0,0,1,57.58,8c1.32.44,2.15,1.58,3.5,2a5.57,5.57,0,0,0,4.34-.51c.57-.36,1-.86,1.61-1.17a5.81,5.81,0,0,1,2-.57A5.75,5.75,0,0,1,73.2,8.88a5.38,5.38,0,0,0,3.93,1.33A5.26,5.26,0,0,0,79,9.74c.69-.33,1.18-.91,1.83-1.29a6,6,0,0,1,4.21-.58c1.48.31,2.3,1.43,3.63,2A5.71,5.71,0,0,0,93,9.79c1.33-.58,2.13-1.66,3.64-1.95a6,6,0,0,1,4.19.68c.57.35,1,.86,1.61,1.16a5.18,5.18,0,0,0,2.15.54,5.62,5.62,0,0,0,3.9-1.41,5.68,5.68,0,0,1,4.07-1.05,5.81,5.81,0,0,1,2,.57c.64.33,1.1.87,1.72,1.23a5.57,5.57,0,0,0,4.23.45c1.39-.4,2.25-1.59,3.63-2a6.1,6.1,0,0,1,4.25.22c1.34.6,2.13,1.68,3.67,1.93a5.31,5.31,0,0,0,4.09-.94,5.81,5.81,0,0,1,7.75,0,5.33,5.33,0,0,0,4.23.92c1.46-.27,2.24-1.33,3.53-1.91A6.18,6.18,0,0,1,156,8c1.32.44,2.15,1.58,3.5,2a5.58,5.58,0,0,0,4.34-.51c.14-.09.61-.33.64-.5s-.61-1-.74-1.17a18.37,18.37,0,0,0-1.62-2c-.41-.44-.5-.6-1.09-.6a6.89,6.89,0,0,1-1.29-.14A4.87,4.87,0,0,1,157.42,3.91Z"/><path class="c" d="M157.42,9.41a5.07,5.07,0,0,0-3.88-1.15,5.23,5.23,0,0,0-1.89.52c-.64.32-1.1.87-1.72,1.23a6,6,0,0,1-4.07.61c-1.44-.27-2.19-1.22-3.42-1.84a5.62,5.62,0,0,0-4.13-.29c-1.29.4-2.1,1.51-3.38,1.93a6.19,6.19,0,0,1-4.14-.08c-1.3-.51-2.11-1.63-3.51-1.95a5.5,5.5,0,0,0-4.09.57c-1.19.75-2,1.54-3.47,1.72a5.8,5.8,0,0,1-4-.88A6.26,6.26,0,0,0,112,8.24a5.28,5.28,0,0,0-3.66,1.34,5.64,5.64,0,0,1-3.91,1.14,6.57,6.57,0,0,1-3.66-1.62,5.42,5.42,0,0,0-4-.77c-1.42.26-2.17,1.26-3.41,1.85a6.1,6.1,0,0,1-4.12.35c-1.39-.36-2.21-1.47-3.51-2a5.71,5.71,0,0,0-4,0c-1.29.52-2.09,1.61-3.51,2a6.14,6.14,0,0,1-4.11-.44c-1.28-.66-2-1.63-3.56-1.84a5.35,5.35,0,0,0-3.87.88,6.2,6.2,0,0,1-3.7,1.56,5.62,5.62,0,0,1-3.86-1.24,5.32,5.32,0,0,0-3.71-1.25c-1.57.07-2.42.82-3.66,1.63a5.88,5.88,0,0,1-4,.8,5.82,5.82,0,0,1-1.85-.6c-.62-.35-1.09-.89-1.71-1.23a5.61,5.61,0,0,0-4-.42c-1.37.36-2.2,1.49-3.5,2a6.25,6.25,0,0,1-4,0c-1.31-.44-2.15-1.58-3.49-2A5.63,5.63,0,0,0,25,8.84c-.55.3-1,.77-1.5,1.1a5.52,5.52,0,0,1-2.06.73,5.88,5.88,0,0,1-4-.8c-1.2-.78-2-1.52-3.53-1.62A5.31,5.31,0,0,0,10,9.49a5.57,5.57,0,0,1-3.73,1.24A5.84,5.84,0,0,1,2.54,9.28,18.06,18.06,0,0,0,.86,13.43c1.66.4,2.67,1.83,4.35,2.18a5.4,5.4,0,0,0,4.26-.82,6.2,6.2,0,0,1,4.1-1.56,6.6,6.6,0,0,1,3.94,1.64,5.44,5.44,0,0,0,4.29.71c1.47-.35,2.35-1.57,3.75-2a6.14,6.14,0,0,1,4.5.24,14.35,14.35,0,0,1,1.62,1.15,4.91,4.91,0,0,0,2.19.76,5.42,5.42,0,0,0,4.2-1.3,5.66,5.66,0,0,1,4.17-1.12,5.6,5.6,0,0,1,2,.57c.68.34,1.17.93,1.83,1.29a5.63,5.63,0,0,0,4.37.31c1.45-.5,2.33-1.74,3.88-2.07a5.94,5.94,0,0,1,4.31.66,17.29,17.29,0,0,0,1.73,1.21,5.42,5.42,0,0,0,2.31.49,5.68,5.68,0,0,0,2.08-.38,11.17,11.17,0,0,0,1.85-1.26,6,6,0,0,1,4.29-.75c1.55.3,2.39,1.45,3.77,2a5.68,5.68,0,0,0,4.5-.16c.64-.33,1.11-.87,1.72-1.23A5.53,5.53,0,0,1,83,13.28a5.7,5.7,0,0,1,4.3,1.11,5.44,5.44,0,0,0,4.07,1.32,5.37,5.37,0,0,0,2-.58c.66-.36,1.15-1,1.83-1.29a6.09,6.09,0,0,1,4.36-.38c1.48.43,2.39,1.7,3.88,2.09a5.43,5.43,0,0,0,4.31-.62c1.35-.89,2.32-1.66,4-1.7a6,6,0,0,1,4,1.49,5.33,5.33,0,0,0,4.23.91c1.53-.28,2.38-1.46,3.77-2a6.13,6.13,0,0,1,4.5,0c1.39.58,2.21,1.72,3.79,2a5.28,5.28,0,0,0,4.28-1.1,5.75,5.75,0,0,1,4.09-1.31,6,6,0,0,1,2,.49A16.69,16.69,0,0,1,144.29,15a5.49,5.49,0,0,0,4.34.51c1.47-.42,2.38-1.69,3.87-2.08A6,6,0,0,1,157,14c.58.34,1,.85,1.61,1.17a5.28,5.28,0,0,0,2.27.59c1.74.08,2.75-.63,4.1-1.56.35-.24.8-.33,1.14-.56s.24,0,.21-.46a3.15,3.15,0,0,0-.22-.7,17.42,17.42,0,0,0-1.3-3A5.73,5.73,0,0,1,157.42,9.41Z"/><path class="c" d="M122.09,36.24h6.65A5.34,5.34,0,0,0,122.09,36.24Z"/><path class="a" d="M157.77,14.55c-2.15-2-5.44-1.52-7.56.17a5.33,5.33,0,0,1-4,1c-1.52-.21-2.28-1.19-3.56-1.84a6.08,6.08,0,0,0-4.11-.44c-1.42.33-2.22,1.42-3.51,1.95a5.72,5.72,0,0,1-4.15,0c-1.34-.54-2.16-1.66-3.64-2a6,6,0,0,0-4.09.53c-.56.3-1,.77-1.5,1.1a5,5,0,0,1-2.09.69,5.2,5.2,0,0,1-3.92-1.06,5.8,5.8,0,0,0-7.56,0,5.22,5.22,0,0,1-3.93,1.06,5.08,5.08,0,0,1-1.86-.56c-.63-.34-1.1-.89-1.72-1.23a6.06,6.06,0,0,0-4.1-.53c-1.44.31-2.23,1.36-3.51,1.92a5.67,5.67,0,0,1-4.15.1c-1.3-.48-2.12-1.6-3.51-2a6.16,6.16,0,0,0-4.12.35c-1.29.62-2,1.64-3.55,1.87a5.26,5.26,0,0,1-4-.86,6.28,6.28,0,0,0-3.84-1.56A5.69,5.69,0,0,0,66,14.55a5.47,5.47,0,0,1-5.77.64c-.64-.33-1.11-.87-1.72-1.23a6,6,0,0,0-4.08-.62c-1.47.28-2.25,1.3-3.53,1.9a5.65,5.65,0,0,1-4.14.2c-1.31-.45-2.14-1.59-3.5-2a6.17,6.17,0,0,0-4.13.27c-1.29.57-2.08,1.63-3.54,1.9a5.38,5.38,0,0,1-4-.76,6.58,6.58,0,0,0-3.67-1.63A5.68,5.68,0,0,0,24,14.39a5.33,5.33,0,0,1-3.8,1.33c-1.58-.07-2.42-.81-3.66-1.63a5.93,5.93,0,0,0-4-.79,5.48,5.48,0,0,0-2,.66c-.58.34-1,.85-1.6,1.17a5.58,5.58,0,0,1-4.13.38c-1.49-.43-2.42-1.71-4-2.08-.16.59,0,.48.5.68a4.25,4.25,0,0,1,1.24.71,6.25,6.25,0,0,0,1.86,1.11,6.13,6.13,0,0,0,4.38-.19c1.38-.62,2.19-1.73,3.79-2a5.29,5.29,0,0,1,4.15,1.13,5.78,5.78,0,0,0,4.09,1.31A5.93,5.93,0,0,0,23,15.69a19.2,19.2,0,0,0,1.73-1.22A5.49,5.49,0,0,1,29.09,14c1.42.4,2.31,1.64,3.74,2.05a6.12,6.12,0,0,0,4.37-.38c.64-.33,1.1-.87,1.72-1.23A5.19,5.19,0,0,1,41,13.76a5.44,5.44,0,0,1,4.07,1.32,5.63,5.63,0,0,0,4.16,1.12,5.38,5.38,0,0,0,2.11-.63c.63-.34,1.09-.89,1.72-1.23A5.63,5.63,0,0,1,57.46,14c1.4.48,2.27,1.69,3.76,2a6,6,0,0,0,4.33-.56c.62-.36,1.08-.9,1.72-1.23a5.37,5.37,0,0,1,2.16-.53,5.76,5.76,0,0,1,4,1.49,5.82,5.82,0,0,0,4.24.93,5.41,5.41,0,0,0,2.06-.73,17.29,17.29,0,0,1,1.73-1.21,5.67,5.67,0,0,1,4.39-.11c1.38.56,2.21,1.71,3.76,2a6,6,0,0,0,4.29-.75,11.45,11.45,0,0,1,1.74-1.2,5.49,5.49,0,0,1,2.19-.44,5.37,5.37,0,0,1,2.2.44,11.37,11.37,0,0,1,1.73,1.2,6,6,0,0,0,4.29.75c1.55-.3,2.39-1.45,3.77-2a5.67,5.67,0,0,1,4.39.11,17.29,17.29,0,0,1,1.73,1.21,5.35,5.35,0,0,0,2.06.73,5.83,5.83,0,0,0,4.24-.93,5.76,5.76,0,0,1,4-1.49,5.41,5.41,0,0,1,2.16.53c.64.33,1.1.87,1.72,1.23a6,6,0,0,0,4.33.56c1.48-.35,2.36-1.56,3.75-2a5.63,5.63,0,0,1,4.37.31c.63.34,1.09.89,1.72,1.23a5.61,5.61,0,0,0,2.11.63,5.66,5.66,0,0,0,4.17-1.12,5.42,5.42,0,0,1,4.07-1.32,5.23,5.23,0,0,1,2.11.64c.61.36,1.08.9,1.72,1.23a6.09,6.09,0,0,0,4.36.38,5.44,5.44,0,0,0,1.9-1,5.48,5.48,0,0,1,1-.71c.57-.28.84-.13.66-.79-1.63.48-2.61,1.88-4.34,2.15A5.11,5.11,0,0,1,157.77,14.55Z"/><path class="a" d="M150.39,3.54a4.92,4.92,0,0,1-3.61,1.17,5.56,5.56,0,0,1-3.36-1.41,5.84,5.84,0,0,0-7.09.24,5.15,5.15,0,0,1-3.62,1.17,5.61,5.61,0,0,1-3.36-1.41,5.84,5.84,0,0,0-7.09.24c-2.15,1.79-4.9,1.37-7-.24a5.84,5.84,0,0,0-7.09.24c-2.15,1.79-4.91,1.36-7-.24a5.84,5.84,0,0,0-7.09.24,5.38,5.38,0,0,1-6.88-.16,5.83,5.83,0,0,0-7.19.16,5.36,5.36,0,0,1-6.87-.16,5.82,5.82,0,0,0-7.1.08,5.4,5.4,0,0,1-7-.08A5.81,5.81,0,0,0,52,3.46a5.4,5.4,0,0,1-7-.08,5.84,5.84,0,0,0-7.1.08,5.37,5.37,0,0,1-7-.08,5.84,5.84,0,0,0-7.1.08,5.39,5.39,0,0,1-7-.08,5.84,5.84,0,0,0-7.1.08A5,5,0,0,1,8,4.49a5.37,5.37,0,0,1-1.12.2,1.39,1.39,0,0,0-1.18.48,6,6,0,0,0,4.58-1.43,5.31,5.31,0,0,1,4-1c1.48.21,2.23,1.11,3.46,1.78a6,6,0,0,0,4,.56c1.47-.28,2.25-1.3,3.53-1.9A5.67,5.67,0,0,1,29.34,3c1.26.44,2.07,1.54,3.37,1.94a6.2,6.2,0,0,0,4.14-.18c1.24-.52,2-1.58,3.39-1.9a5.53,5.53,0,0,1,4.08.58c1.25.77,2.06,1.57,3.61,1.73A5.79,5.79,0,0,0,51.8,4.3a6.23,6.23,0,0,1,3.56-1.56,5.37,5.37,0,0,1,3.8,1.33,5.68,5.68,0,0,0,3.9,1.15,6.29,6.29,0,0,0,3.57-1.55,5.34,5.34,0,0,1,4-.86C72.09,3,72.83,4,74.06,4.62a6.08,6.08,0,0,0,4.11.44c1.42-.33,2.22-1.43,3.51-1.95a5.76,5.76,0,0,1,4,0C87,3.54,87.77,4.62,89.09,5a6.17,6.17,0,0,0,4.13-.27c1.29-.57,2.07-1.63,3.53-1.9a5.35,5.35,0,0,1,3.93.7,7.09,7.09,0,0,0,3.64,1.67,5.66,5.66,0,0,0,3.84-1,5.38,5.38,0,0,1,7.45,0,5.68,5.68,0,0,0,3.84,1,7.09,7.09,0,0,0,3.64-1.67,5.36,5.36,0,0,1,3.93-.7c1.46.27,2.24,1.33,3.53,1.9a6.14,6.14,0,0,0,4,.3c1.38-.37,2.2-1.48,3.5-2a5.76,5.76,0,0,1,4,0c1.29.52,2.1,1.62,3.51,1.95a6.08,6.08,0,0,0,4.11-.44c1.24-.63,2-1.58,3.43-1.81a5.34,5.34,0,0,1,4,.86,6.21,6.21,0,0,0,4.41,1.52c-.84-.82-2.27-.57-3.3-1.27a8.83,8.83,0,0,0-2.47-1.47A5.76,5.76,0,0,0,150.39,3.54Z"/><path class="a" d="M157.77,9.05c-2.15-2-5.44-1.53-7.56.16a5.29,5.29,0,0,1-4,1c-1.48-.2-2.22-1.11-3.45-1.78a6,6,0,0,0-4.09-.52c-1.42.3-2.17,1.29-3.41,1.87a5.69,5.69,0,0,1-4.14.19c-1.31-.45-2.14-1.58-3.5-2a6.18,6.18,0,0,0-4.13.26c-1.24.56-2,1.59-3.4,1.88a5.44,5.44,0,0,1-4.06-.67,7.15,7.15,0,0,0-3.64-1.68,5.73,5.73,0,0,0-3.84,1,5.4,5.4,0,0,1-7.45,0,5.76,5.76,0,0,0-4-1,7.31,7.31,0,0,0-3.51,1.67,5.44,5.44,0,0,1-4.06.67c-1.43-.3-2.23-1.38-3.52-1.93a6.2,6.2,0,0,0-4-.21c-1.36.39-2.19,1.52-3.5,2a5.69,5.69,0,0,1-4.14-.19c-1.28-.6-2.06-1.62-3.54-1.9a6,6,0,0,0-4,.55c-1.28.7-2,1.62-3.59,1.8a5.25,5.25,0,0,1-3.92-1.06,5.84,5.84,0,0,0-7.47-.08,5.49,5.49,0,0,1-5.77.63c-.64-.32-1.1-.87-1.72-1.23a6,6,0,0,0-3.94-.63,5.6,5.6,0,0,0-1.83.63c-.62.36-1.08.91-1.72,1.23A5.67,5.67,0,0,1,33,10c-1.34-.39-2.18-1.53-3.5-2a6.19,6.19,0,0,0-4.14.08c-1.3.51-2.11,1.63-3.51,2a5.51,5.51,0,0,1-4.09-.57c-1.2-.75-2-1.54-3.47-1.72a5.8,5.8,0,0,0-4,.88,6.3,6.3,0,0,1-3.56,1.56A5.53,5.53,0,0,1,2.8,8.85c-.26.44-.25.39.1.73a3.93,3.93,0,0,0,.84.55A6,6,0,0,0,6,10.72a5.62,5.62,0,0,0,4-1.23,5.31,5.31,0,0,1,4-1.23,5.07,5.07,0,0,1,2,.58c.66.36,1.15.94,1.83,1.29a6.14,6.14,0,0,0,4.36.37c1.4-.4,2.26-1.58,3.63-2A5.58,5.58,0,0,1,30,8.84c.59.32,1,.83,1.61,1.17a5.59,5.59,0,0,0,2.22.69,5.68,5.68,0,0,0,4.07-1,5.62,5.62,0,0,1,3.9-1.41,5.35,5.35,0,0,1,2,.48c.69.33,1.18.91,1.83,1.29a6,6,0,0,0,4.21.58c1.52-.32,2.36-1.5,3.76-2a5.66,5.66,0,0,1,4.26.15,13.18,13.18,0,0,1,1.62,1.15,5.47,5.47,0,0,0,2.18.8,5.89,5.89,0,0,0,4.13-.87A6.18,6.18,0,0,1,69.7,8.24a5.63,5.63,0,0,1,2.07.38,11,11,0,0,1,1.86,1.25,5.87,5.87,0,0,0,4.16.77,5.34,5.34,0,0,0,1.93-.7,17.38,17.38,0,0,1,1.73-1.22,5.67,5.67,0,0,1,4.39-.1c1.38.56,2.21,1.7,3.76,2a6,6,0,0,0,4.18-.68c.57-.35,1-.86,1.62-1.16a5.18,5.18,0,0,1,2.15-.54,5.83,5.83,0,0,1,4,1.49,5.72,5.72,0,0,0,4.1.95,5.5,5.5,0,0,0,2-.61c.63-.35,1.09-.89,1.72-1.23a5.58,5.58,0,0,1,4.37-.31c1.39.48,2.27,1.68,3.75,2a6.1,6.1,0,0,0,4.22-.5c.59-.33,1-.83,1.61-1.17a5.23,5.23,0,0,1,2.11-.64,5.38,5.38,0,0,1,4.07,1.32,5.64,5.64,0,0,0,4,1.13,5.86,5.86,0,0,0,2-.53A17.38,17.38,0,0,0,137.26,9a5.57,5.57,0,0,1,4.34-.51c1.38.4,2.25,1.59,3.62,2a6.11,6.11,0,0,0,4.37-.28c1.34-.64,2.12-1.68,3.68-1.89a5.28,5.28,0,0,1,4.15,1.12,5.74,5.74,0,0,0,3.94,1.32,6,6,0,0,0,2-.44,5,5,0,0,0,.89-.47c.47-.33.51-.33.22-.82A5.27,5.27,0,0,1,157.77,9.05Z"/><path class="a" d="M157.23,24.88a5.74,5.74,0,0,0-5.14-1.15c-1.86.44-2.94,2.06-4.91,2.29a5.73,5.73,0,0,1-2.75-.35,24.55,24.55,0,0,1-2.2-1.45,6,6,0,0,0-5.68.09c0,.08.17.41.25.43a5.75,5.75,0,0,0,1-.43,5.74,5.74,0,0,1,2.18-.23,5.16,5.16,0,0,1,2,.58c.6.32,1,.84,1.62,1.18a6,6,0,0,0,3.82.66,5.43,5.43,0,0,0,1.95-.66c.58-.34,1-.85,1.61-1.17a5.61,5.61,0,0,1,4.12-.39c1.27.37,2,1.42,3.26,1.89a6.19,6.19,0,0,0,4.14.09,5.54,5.54,0,0,0,1.74-1,5.11,5.11,0,0,1,1-.68c.52-.24.62-.23.81-.8-1.7.43-2.73,1.88-4.46,2.2A5.16,5.16,0,0,1,157.23,24.88Z"/><path class="a" d="M9.56,25.24a5.35,5.35,0,0,1,6.31-.31,6.87,6.87,0,0,0,2.87,1.52,6.22,6.22,0,0,0,3.39-.28c1-.41,1.73-1.3,2.76-1.72a5.73,5.73,0,0,1,3.4-.23c1.17.27,1.83,1.05,2.82,1.62a5.87,5.87,0,0,0,3.29.71,5.45,5.45,0,0,0,3.1-1.14,5.29,5.29,0,0,1,3-1.32,5.43,5.43,0,0,1,3.3.7,9.18,9.18,0,0,0,2.82,1.61,6.33,6.33,0,0,0,3.4-.14c1.08-.37,1.77-1.23,2.77-1.71a5.76,5.76,0,0,1,3.38-.39A7.52,7.52,0,0,1,59,25.71a5.91,5.91,0,0,0,6.41-.15,6.1,6.1,0,0,1,2.92-1.44,5.55,5.55,0,0,1,3.35.55c1,.54,1.66,1.34,2.79,1.66a6.14,6.14,0,0,0,3.4,0c1.13-.32,1.8-1.12,2.79-1.66A5.54,5.54,0,0,1,84,24.12,6.1,6.1,0,0,1,87,25.56a5.5,5.5,0,0,0,3.17,1,5.64,5.64,0,0,0,3.23-.85,7.63,7.63,0,0,1,2.87-1.55,5.76,5.76,0,0,1,3.38.39c1,.48,1.68,1.34,2.77,1.71a6.3,6.3,0,0,0,3.39.14,9.12,9.12,0,0,0,2.83-1.61,5.48,5.48,0,0,1,6.33.65,5.87,5.87,0,0,0,7.33-.36,5.36,5.36,0,0,1,6.32,0,6,6,0,0,0,6.31,1,5.93,5.93,0,0,0,1.35-.91c.47-.38.63-.32.32-.85-1.17.69-1.88,1.5-3.3,1.69a5.44,5.44,0,0,1-3.45-.61c-1.08-.62-1.78-1.41-3.07-1.69a6.09,6.09,0,0,0-3.63.31c-1.07.44-1.78,1.37-2.89,1.75a5.73,5.73,0,0,1-3.66,0c-1.15-.39-1.88-1.36-3-1.8A6.18,6.18,0,0,0,110,23.7c-1.28.27-2,1.07-3.06,1.69a5.52,5.52,0,0,1-3.59.59,7.22,7.22,0,0,1-3-1.56,5.82,5.82,0,0,0-3.5-.85c-2.54.16-4,2.43-6.5,2.48A5.11,5.11,0,0,1,87,25a5.73,5.73,0,0,0-3.25-1.38,6,6,0,0,0-3.41.71c-1.09.63-1.78,1.43-3.08,1.67a5.62,5.62,0,0,1-3.61-.5c-1-.57-1.72-1.39-2.92-1.7a6.23,6.23,0,0,0-3.65.15c-1.13.42-1.87,1.39-3,1.81a5.79,5.79,0,0,1-3.54.12c-1.19-.34-1.91-1.29-3-1.78a6.07,6.07,0,0,0-3.62-.39,7.89,7.89,0,0,0-3,1.59,5.32,5.32,0,0,1-3.53.76,6,6,0,0,1-3-1.46,5.84,5.84,0,0,0-6.81.16,5.4,5.4,0,0,1-6.59.4,6.32,6.32,0,0,0-3.18-1.51,6.09,6.09,0,0,0-3.46.56c-1.09.55-1.78,1.44-3,1.74a5.7,5.7,0,0,1-3.64-.34c-1.09-.51-1.81-1.43-3-1.78a6.29,6.29,0,0,0-3.52,0c-1.19.37-1.91,1.31-3,1.79a5.66,5.66,0,0,1-3.52.29c-1.32-.31-2.1-1.31-3.3-1.84.51,1.45,2.49,2.31,4,2.46A5.53,5.53,0,0,0,9.56,25.24Z"/><path class="a" d="M51.41,35.89a3.27,3.27,0,0,1-.48.35,3,3,0,0,0,.67,0,3.31,3.31,0,0,0,.86-.51,5.66,5.66,0,0,1,5.15-.06,5,5,0,0,0,.91.57,3.56,3.56,0,0,0,.73,0,6.92,6.92,0,0,0-3.89-1.66A5.45,5.45,0,0,0,51.41,35.89Z"/><path class="a" d="M11.28,34.8c1,.42,1.93.2,3,.45a4.64,4.64,0,0,1,1.28.49,3.07,3.07,0,0,0,1.46.43C15.22,34.91,13.48,34.21,11.28,34.8Z"/><path class="a" d="M23.28,35.89a3.82,3.82,0,0,1-.47.35,3,3,0,0,0,.67,0,3.67,3.67,0,0,0,.86-.51A5.34,5.34,0,0,1,27,35.08a5.4,5.4,0,0,1,2.52.59,4.44,4.44,0,0,0,.91.57,3.47,3.47,0,0,0,.72,0,6.92,6.92,0,0,0-3.89-1.66A5.45,5.45,0,0,0,23.28,35.89Z"/><path class="a" d="M93.6,35.89a3.82,3.82,0,0,1-.47.35,2.91,2.91,0,0,0,.66,0,3.31,3.31,0,0,0,.86-.51,5.68,5.68,0,0,1,5.16-.06,4.44,4.44,0,0,0,.91.57,3.47,3.47,0,0,0,.72,0,6.92,6.92,0,0,0-3.89-1.66A5.45,5.45,0,0,0,93.6,35.89Z"/><path class="a" d="M37.34,35.89a3.19,3.19,0,0,1-.47.35,3,3,0,0,0,.67,0,3.48,3.48,0,0,0,.86-.51A5.34,5.34,0,0,1,41,35.08a5.4,5.4,0,0,1,2.52.59,5,5,0,0,0,.91.57,3.56,3.56,0,0,0,.73,0,7,7,0,0,0-3.89-1.66A5.46,5.46,0,0,0,37.34,35.89Z"/><path class="a" d="M107.66,35.89a3.19,3.19,0,0,1-.47.35,3,3,0,0,0,.67,0,3.67,3.67,0,0,0,.86-.51,5.34,5.34,0,0,1,2.63-.65,5.4,5.4,0,0,1,2.52.59c.31.17.59.49.91.57a3.56,3.56,0,0,0,.73,0,7,7,0,0,0-3.89-1.66A5.46,5.46,0,0,0,107.66,35.89Z"/><path class="a" d="M65.47,35.89a3.82,3.82,0,0,1-.47.35,3,3,0,0,0,.67,0,3.67,3.67,0,0,0,.86-.51,5.34,5.34,0,0,1,2.63-.65,5.4,5.4,0,0,1,2.52.59c.31.17.59.49.91.57a3.56,3.56,0,0,0,.73,0,7,7,0,0,0-3.9-1.66A5.45,5.45,0,0,0,65.47,35.89Z"/><path class="a" d="M79.53,35.89a2.73,2.73,0,0,1-.47.35,3,3,0,0,0,.67,0,3.48,3.48,0,0,0,.86-.51,5.66,5.66,0,0,1,5.15-.06,5,5,0,0,0,.91.57,3.56,3.56,0,0,0,.73,0,7,7,0,0,0-3.89-1.66A5.46,5.46,0,0,0,79.53,35.89Z"/><path class="a" d="M121.72,35.89a2.73,2.73,0,0,1-.47.35,3,3,0,0,0,.67,0,3.31,3.31,0,0,0,.86-.51,5.66,5.66,0,0,1,5.15-.06,5,5,0,0,0,.91.57,3.56,3.56,0,0,0,.73,0,6.92,6.92,0,0,0-3.89-1.66A5.48,5.48,0,0,0,121.72,35.89Z"/><path class="a" d="M149.85,35.89a2.67,2.67,0,0,1-.43.32,2.48,2.48,0,0,0,1.47-.45,5,5,0,0,1,1.49-.56c1.13-.22,2.18.15,3.23-.27A5.8,5.8,0,0,0,149.85,35.89Z"/><path class="a" d="M135.79,35.89a3.82,3.82,0,0,1-.47.35,3,3,0,0,0,.67,0,3.67,3.67,0,0,0,.86-.51,5.34,5.34,0,0,1,2.63-.65,5.4,5.4,0,0,1,2.52.59,4.44,4.44,0,0,0,.91.57,3.56,3.56,0,0,0,.73,0,7,7,0,0,0-3.9-1.66A5.45,5.45,0,0,0,135.79,35.89Z"/><path class="a" d="M157.23,30.39a5.78,5.78,0,0,0-7.38,0,5.2,5.2,0,0,1-3.74,1.16c-1.52-.1-2.34-.84-3.53-1.63a5.92,5.92,0,0,0-3.77-.82,7.22,7.22,0,0,0-3.51,1.67,5.43,5.43,0,0,1-3.92.7c-1.43-.27-2.18-1.26-3.42-1.85a6.09,6.09,0,0,0-4-.39c-1.34.32-2.09,1.29-3.28,1.85a5.74,5.74,0,0,1-4,.23c-1.28-.41-2.09-1.51-3.37-1.94a6.22,6.22,0,0,0-4,.05c-1.26.46-2.07,1.55-3.38,1.93a5.67,5.67,0,0,1-4-.33c-1.23-.62-2-1.57-3.42-1.84a6,6,0,0,0-3.85.49c-1.24.63-2,1.59-3.43,1.82a5.35,5.35,0,0,1-3.9-.79,6.62,6.62,0,0,0-3.54-1.61,5.66,5.66,0,0,0-3.83,1,6,6,0,0,1-3.46,1.49,5.32,5.32,0,0,1-3.71-1.26A5.63,5.63,0,0,0,69,29.07a5.73,5.73,0,0,0-3.64,1.4,5.26,5.26,0,0,1-3.79,1.07c-1.51-.14-2.3-.93-3.5-1.68a6,6,0,0,0-3.93-.73c-1.42.21-2.19,1-3.34,1.71a5.52,5.52,0,0,1-4,.6c-1.39-.29-2.16-1.32-3.4-1.88a6.27,6.27,0,0,0-4-.3c-1.35.36-2.13,1.42-3.38,1.92a5.77,5.77,0,0,1-3.91.09c-1.26-.43-2.07-1.53-3.37-1.93a6.22,6.22,0,0,0-4,.12c-1.25.49-2.05,1.57-3.38,1.92a5.61,5.61,0,0,1-4-.42c-1.17-.63-1.91-1.52-3.3-1.78a6,6,0,0,0-4.07.61c-.54.32-.95.79-1.49,1.1a5.24,5.24,0,0,1-2.31.65c.46.41.52.49,1.14.34a5.42,5.42,0,0,0,1-.36c.73-.35,1.25-1,1.95-1.35a5.66,5.66,0,0,1,4-.41c1.37.35,2.2,1.48,3.5,2a6.22,6.22,0,0,0,4,0c1.32-.44,2.16-1.59,3.5-2a5.67,5.67,0,0,1,4,.33c1.23.62,2,1.57,3.42,1.84a6,6,0,0,0,4.07-.62c.55-.31,1-.79,1.5-1.1a4.94,4.94,0,0,1,2.11-.64,5.15,5.15,0,0,1,3.79,1.07,5.87,5.87,0,0,0,7.47.08,5.51,5.51,0,0,1,5.65-.69,17.38,17.38,0,0,1,1.73,1.22,5.89,5.89,0,0,0,3.92.72,5.22,5.22,0,0,0,1.85-.6c.63-.34,1.09-.89,1.72-1.23a5.62,5.62,0,0,1,4-.41c1.34.34,2.13,1.43,3.39,1.91a6.13,6.13,0,0,0,4.14.09c1.32-.44,2.15-1.59,3.5-2a5.62,5.62,0,0,1,4,.33c1.22.62,2,1.56,3.41,1.84a6,6,0,0,0,4.08-.62c.54-.31,1-.79,1.5-1.1a4.9,4.9,0,0,1,2.11-.64,5.2,5.2,0,0,1,3.79,1.07,5.79,5.79,0,0,0,3.64,1.4A5.68,5.68,0,0,0,108,30.75a5.15,5.15,0,0,1,3.74-1.16,5.26,5.26,0,0,1,1.91.47,17.38,17.38,0,0,1,1.73,1.22,5.89,5.89,0,0,0,3.92.72,5.29,5.29,0,0,0,1.85-.6c.62-.34,1.09-.89,1.71-1.23a5.66,5.66,0,0,1,4-.41c1.33.34,2.13,1.42,3.38,1.91a6.13,6.13,0,0,0,4.14.09c1.32-.44,2.16-1.59,3.5-2a5.62,5.62,0,0,1,4,.33c1.23.62,2,1.57,3.42,1.84a6,6,0,0,0,4.07-.62c1.23-.71,2-1.56,3.48-1.73a5.24,5.24,0,0,1,3.92,1.06,5.86,5.86,0,0,0,2,1.14,4.08,4.08,0,0,0,1.29.23c.47,0,.56-.19.92-.51A5,5,0,0,1,157.23,30.39Z"/><path class="a" d="M157.23,19.38c-2.15-2-5.44-1.53-7.56.16a5.29,5.29,0,0,1-4,1c-1.52-.21-2.28-1.18-3.56-1.84a6.14,6.14,0,0,0-4.11-.44c-1.42.34-2.22,1.43-3.51,2a5.72,5.72,0,0,1-4.15,0c-1.34-.54-2.16-1.66-3.64-2a6,6,0,0,0-4.09.53c-.56.3-1,.77-1.5,1.11a5,5,0,0,1-2.09.68,5.23,5.23,0,0,1-3.92-1.05,5.8,5.8,0,0,0-7.56,0,5.24,5.24,0,0,1-3.92,1.05,5.07,5.07,0,0,1-1.87-.56c-.63-.34-1.09-.89-1.72-1.23A6,6,0,0,0,96,18.19c-1.44.31-2.24,1.37-3.52,1.93a5.67,5.67,0,0,1-4.15.09c-1.3-.48-2.12-1.6-3.5-2a6.13,6.13,0,0,0-4.13.36c-1.28.62-2,1.63-3.54,1.87a5.32,5.32,0,0,1-4-.87,6.19,6.19,0,0,0-3.84-1.55,5.64,5.64,0,0,0-3.82,1.32A5.49,5.49,0,0,1,59.7,20c-.64-.32-1.1-.87-1.72-1.23a6,6,0,0,0-4.08-.61c-1.46.28-2.25,1.3-3.53,1.9a5.69,5.69,0,0,1-4.14.19c-1.31-.45-2.14-1.58-3.5-2a6.17,6.17,0,0,0-4.13.26c-1.29.58-2.07,1.64-3.53,1.91a5.42,5.42,0,0,1-4-.77,6.5,6.5,0,0,0-3.66-1.62,5.65,5.65,0,0,0-3.91,1.14,5.38,5.38,0,0,1-3.8,1.34c-1.58-.07-2.41-.82-3.66-1.64a5.91,5.91,0,0,0-4-.79,5.63,5.63,0,0,0-2,.66c-.58.34-1,.85-1.61,1.17a5.61,5.61,0,0,1-4.12.39C2.75,19.9,1.81,18.59.22,18.23c0,.58.13.52.64.71a5,5,0,0,1,1.21.7,5.81,5.81,0,0,0,1.85,1.11,6.14,6.14,0,0,0,4.5-.24A13.18,13.18,0,0,0,10,19.36a4.91,4.91,0,0,1,2.19-.76,5.43,5.43,0,0,1,4.2,1.3A5.72,5.72,0,0,0,20.6,21a5.83,5.83,0,0,0,2-.58c.67-.34,1.16-.93,1.83-1.29a5.63,5.63,0,0,1,4.37-.3c1.39.48,2.27,1.68,3.75,2a6,6,0,0,0,4.33-.56c.62-.35,1.08-.9,1.72-1.22a5.24,5.24,0,0,1,2.29-.54,6.19,6.19,0,0,1,4,1.56,5.85,5.85,0,0,0,4.26.84,5.33,5.33,0,0,0,2-.77A10.62,10.62,0,0,1,53,19a5.64,5.64,0,0,1,4.38.1A13.18,13.18,0,0,1,59,20.2,5.31,5.31,0,0,0,61.2,21a5.75,5.75,0,0,0,4.23-.93,5.81,5.81,0,0,1,4-1.49,5.18,5.18,0,0,1,2.15.54c.68.34,1.17.92,1.84,1.28a6,6,0,0,0,4.34.47c1.46-.38,2.35-1.6,3.75-2a5.51,5.51,0,0,1,4.47.47,18.23,18.23,0,0,0,1.61,1.16,5.93,5.93,0,0,0,6.35-.71,5.26,5.26,0,0,1,4.15-1.12c1.6.22,2.41,1.33,3.8,1.94a6.09,6.09,0,0,0,4.5.15c1.39-.51,2.26-1.71,3.76-2a5.39,5.39,0,0,1,4.26.81,6.2,6.2,0,0,0,4.1,1.56,6.53,6.53,0,0,0,3.94-1.63,5.4,5.4,0,0,1,4.29-.72c1.48.35,2.35,1.57,3.75,2a6.16,6.16,0,0,0,4.39-.19c1.38-.62,2.19-1.72,3.79-1.94a5.33,5.33,0,0,1,4.24,1.2A5.74,5.74,0,0,0,147,21a5.65,5.65,0,0,0,2.13-.59c.68-.34,1.17-.93,1.83-1.29a5.63,5.63,0,0,1,4.37-.3c1.4.48,2.27,1.68,3.76,2a6,6,0,0,0,4.33-.56c.63-.36,1.1-.92,1.76-1.24a11.54,11.54,0,0,1,1.3-.41c.49-.16.49,0,.49-.58a5.43,5.43,0,0,0-2.87,1.08A5.6,5.6,0,0,1,162,20.37,5.25,5.25,0,0,1,157.23,19.38Z"/></g></svg>