<?xml version="1.0" encoding="utf-8"?>
<!-- Generator: Adobe Illustrator 24.2.3, SVG Export Plug-In . SVG Version: 6.00 Build 0)  -->
<svg version="1.1" id="bleu_x5F_fonce_1_" xmlns="http://www.w3.org/2000/svg" xmlns:xlink="http://www.w3.org/1999/xlink" x="0px"
	 y="0px" viewBox="0 0 553 574" style="enable-background:new 0 0 553 574;" xml:space="preserve">
<style type="text/css">
	.st0{fill:none;}
	.st1{fill:#285E78;}
	.st2{fill:#080707;}
	.st3{fill:#FFFFFF;}
</style>
<g id="cadre_8_">
	<rect x="0" class="st0" width="553" height="574"/>
</g>
<g id="vert_x5F_fonce_2_">
	<g>
		<path class="st1" d="M308.7,138.6c0-4-3.5-7.3-7.8-7.3c-4.3,0-7.7,3.3-7.7,7.4c0,4,3.5,7.3,7.8,7.3
			C305.3,145.9,308.7,142.6,308.7,138.6"/>
		<path class="st2" d="M306.5,138.6c0-3-2.5-5.5-5.6-5.5c-3.1,0-5.6,2.5-5.6,5.5s2.5,5.5,5.6,5.5C304,144.1,306.5,141.6,306.5,138.6
			"/>
		<path class="st3" d="M299.2,134.9c0-0.8-0.7-1.5-1.5-1.5c-0.8,0-1.5,0.7-1.5,1.5c0,0.8,0.7,1.5,1.5,1.5S299.2,135.7,299.2,134.9"
			/>
		<path class="st3" d="M296.8,139.4c0-0.6-0.5-1.1-1.1-1.1c-0.6,0-1.1,0.5-1.1,1.1s0.5,1.1,1.1,1.1S296.8,140,296.8,139.4"/>
	</g>
	<g>
		<path class="st1" d="M254.6,138.7c0-4-3.4-7.2-7.6-7.1c-4.2,0-7.6,3.2-7.5,7.2c0,4,3.4,7.2,7.6,7.1
			C251.2,145.9,254.6,142.7,254.6,138.7"/>
		<path class="st2" d="M252.5,138.7c0-3-2.5-5.4-5.5-5.4c-3,0-5.5,2.4-5.5,5.4c0,3,2.5,5.4,5.5,5.4
			C250,144.2,252.5,141.7,252.5,138.7"/>
		<path class="st3" d="M245.3,135.1c0-0.8-0.7-1.5-1.5-1.5s-1.5,0.7-1.5,1.5s0.7,1.5,1.5,1.5C244.7,136.6,245.3,135.9,245.3,135.1"
			/>
		<path class="st3" d="M242.9,139.6c0-0.6-0.5-1.1-1.1-1.1c-0.6,0-1.1,0.5-1.1,1.1c0,0.6,0.5,1.1,1.1,1.1
			C242.4,140.6,242.9,140.2,242.9,139.6"/>
	</g>
</g>
</svg>
