<?xml version="1.0" encoding="utf-8"?>
<!-- Generator: Adobe Illustrator 25.2.3, SVG Export Plug-In . SVG Version: 6.00 Build 0)  -->
<svg version="1.1" id="casque" xmlns="http://www.w3.org/2000/svg" xmlns:xlink="http://www.w3.org/1999/xlink" x="0px" y="0px"
	 viewBox="0 0 553 574" style="enable-background:new 0 0 553 574;" xml:space="preserve">
<style type="text/css">
	.st0{fill:none;}
	.st1{fill:#BAB1B1;stroke:#9F9495;stroke-width:0.5;stroke-miterlimit:10;}
	.st2{fill:#BAB1B1;}
	.st3{fill:#9F9495;}
</style>
<g id="cadre_8_">
	<rect x="0" class="st0" width="553" height="574"/>
</g>
<g id="casque_1_">
	<g>
		<path class="st1" d="M321.2,24.2c-13.7-7.6-36.3-10.4-52.4-11.5c-5.6-0.4-11.4-0.3-16.9,0.8c-7,1.4-13.5,4.5-19.6,7.9
			C210,33.8,191,52.3,183.8,75c-5.2,16.4-4,33.7-2.1,50.6c0.8,6.7,1.6,13.4,3.6,19.8c3.9,12.8,12,24.2,21.2,34.4
			c7.3,8,15.5,15.5,25.4,20.7c18.8,9.8,41.9,10.3,63.6,8c12.3-1.3,20.7-4.5,32-9.2c11.3-4.7,40-30.7,42.9-60.8
			C374.5,95.6,364.2,48,321.2,24.2z M360.6,143.8c-7.4,29-33.2,50-63.8,53.2c-9.5,1-19.1,1.3-28.6,0.5
			c-22.2-1.9-44.3-10.2-58.2-25.9c-4.2-4.8-7.6-10.1-10.4-15.7c-16.9-33.4-11.2-75.3,14.1-104.4c4.9-5.6,10.6-10.9,17.5-14.4
			c4.6-2.3,9.6-3.9,14.6-5c24-5.5,50.3-2.6,71.3,8.9c19.9,10.9,34.4,28.9,41.5,49C364.7,107.2,365.2,126,360.6,143.8z"/>
	</g>
	<g>
		<path class="st2" d="M326.1,199.8c3.9,3.5,5.9,9,5.1,14.2c-18.1,5.8-37,9.3-56.1,9.4s-38.2-3.4-55.5-11.1
			c-0.4-0.2-0.8-0.4-0.9-0.7c-0.1-0.3,0-0.7,0.2-1c1.9-4.5,4.3-8.8,7.1-12.8c11,7.5,25.1,9,38.5,9.7c7.6,0.4,15.3,0.7,23,0.3
			C300.4,206.9,313.2,204,326.1,199.8z"/>
		<path class="st3" d="M326.1,199.8c3.9,3.5,6,9,5.2,14.2l0,0l0,0c-10.4,3.4-21,6-31.8,7.6c-10.8,1.6-21.8,2.3-32.7,1.7
			c-10.9-0.6-21.8-2.3-32.3-5.4c-5.2-1.6-10.4-3.4-15.4-5.7c-0.2-0.1-0.3-0.2-0.4-0.4c-0.1-0.2-0.2-0.4-0.1-0.6
			c0.1-0.4,0.2-0.7,0.4-1c0.3-0.6,0.6-1.2,0.9-1.9c0.6-1.2,1.2-2.5,1.9-3.7c1.3-2.4,2.7-4.7,4.3-7l0.1-0.2l0.2,0.1
			c3.5,2.4,7.4,4.2,11.5,5.6c4.1,1.3,8.2,2.2,12.5,2.8c4.2,0.6,8.5,1,12.8,1.2c4.3,0.3,8.5,0.5,12.8,0.6c8.5,0.2,17.1-0.3,25.6-1.7
			C309.7,204.6,318,202.4,326.1,199.8z M326.1,199.8c-8.1,2.7-16.4,5-24.8,6.4c-8.4,1.5-17,2-25.6,1.8c-4.3-0.1-8.6-0.3-12.8-0.5
			c-4.3-0.3-8.5-0.6-12.8-1.2c-4.2-0.6-8.5-1.5-12.5-2.8c-4.1-1.3-8-3.2-11.6-5.6l0.3-0.1c-1.5,2.2-3,4.6-4.3,7
			c-0.6,1.2-1.3,2.4-1.8,3.6c-0.3,0.6-0.6,1.2-0.8,1.9c-0.1,0.3-0.3,0.6-0.3,0.9c0,0.3,0.1,0.5,0.4,0.6c4.9,2.3,10.1,4.1,15.3,5.7
			c10.4,3.1,21.3,4.9,32.2,5.5c10.9,0.6,21.8-0.1,32.6-1.6c10.8-1.6,21.4-4.2,31.8-7.4l0,0C332,208.8,330,203.3,326.1,199.8z"/>
	</g>
</g>
</svg>
