<?xml version="1.0" encoding="utf-8"?>
<!-- Generator: Adobe Illustrator 25.2.3, SVG Export Plug-In . SVG Version: 6.00 Build 0)  -->
<svg version="1.1" id="masque" xmlns="http://www.w3.org/2000/svg" xmlns:xlink="http://www.w3.org/1999/xlink" x="0px" y="0px"
	 viewBox="0 0 553 574" style="enable-background:new 0 0 553 574;" xml:space="preserve">
<style type="text/css">
	.st0{fill:none;}
	.st1{fill:#040404;}
	.st2{fill:#FFFFFF;}
</style>
<g id="cadre_8_">
	<rect x="0" class="st0" width="553" height="574"/>
</g>
<g id="masque_1_">
	<g>
		<path d="M318.8,131.1c-3.9-7.1-15.3-30.6-23.3-16.4c-7.8,10.4-22.6,19.4-31.2,13.3c-8.5-5.5-16.6-12.5-25.8-16.4
			c-8.6,4.3-12.7,15.6-13.2,25.2c-0.4,13,8.1,31.1,22.6,30c9-2.6,17-8.5,26-10.9c9.3-0.6,17.2,9.5,26.9,7.7
			C315.7,161,325.4,145.5,318.8,131.1z M259.7,146.1c-7.2,8.2-23.9,6.5-26.3-5.3c0.1-0.2,0.2-0.4,0.3-0.7c-0.2,0.2-0.4,0.5-0.7,0.7
			c2.8-13.3,24.3-13,26.6,0.4c-0.3-0.8-0.7-1.6-1.2-2.4C259.5,141,260,143.5,259.7,146.1z M303.4,150.8c-5.4,0.9-11.3-1-14.9-4.9
			c-0.3-2.4,0.1-4.7,1-6.7c-0.4,0.7-0.7,1.4-0.9,2.1c2.3-13.6,23.1-14.1,26.3-0.8c-0.1,0.1,0,0.2,0,0.3c0,0-0.1-0.1-0.1-0.1
			C313.4,146.3,308.7,149.9,303.4,150.8z"/>
		<path class="st1" d="M298.9,131.1c6.3-1,13,2.7,15.3,8.3c-3.5-13-23.9-12-26.1,1.3C289.8,135.8,293.7,131.8,298.9,131.1z"/>
		<path class="st1" d="M314.4,140c0,0,0,0.1,0,0.1c0,0,0.1,0.1,0.1,0.1C314.4,140.1,314.4,140,314.4,140z"/>
		<path class="st2" d="M314.4,139.9c-0.1-0.2-0.1-0.3-0.2-0.5c0.1,0.2,0.1,0.4,0.2,0.6C314.4,139.9,314.4,139.9,314.4,139.9z"/>
		<path class="st1" d="M248.5,131.3c5.1,0.7,9,4.6,10.7,9.3c-2.3-13.4-23.8-13.7-26.6-0.4C235.5,134.6,241.5,130.1,248.5,131.3z"/>
	</g>
</g>
</svg>
