<?xml version="1.0" encoding="utf-8"?>
<!-- Generator: Adobe Illustrator 22.1.0, SVG Export Plug-In . SVG Version: 6.00 Build 0)  -->
<svg version="1.1" id="Calque_1" xmlns="http://www.w3.org/2000/svg" xmlns:xlink="http://www.w3.org/1999/xlink" x="0px" y="0px"
	 viewBox="0 0 100 100" style="enable-background:new 0 0 100 100;" xml:space="preserve">
<style type="text/css">
	.st0{fill:none;stroke:#000000;stroke-width:0.5;stroke-linejoin:round;}
</style>
<title>BOX</title>
<path class="st0" d="M11.3,33.5h77.5c2.8,0,3.1,3.1,3.9,5.6l1.2,4.3H6.1l1.5-4.6C8.8,36,8.4,33.5,11.3,33.5z"/>
<path class="st0" d="M83.3,66.6H16.7c-6.3,0-6.9-5.7-8.8-11.2L5.4,45.2h89.2l-2.3,10.5C90.8,61.3,89.5,66.6,83.3,66.6z"/>
<path class="st0" d="M70.6,48.5h-43c-1.1,0-2-0.9-2-2v-3.1h46.9v3.2C72.5,47.6,71.7,48.4,70.6,48.5z"/>
<line class="st0" x1="26.6" y1="46.8" x2="71.6" y2="46.8"/>
<line class="st0" x1="27.4" y1="47.3" x2="71.2" y2="47.3"/>
<path class="st0" d="M3.9,44.2L3.9,44.2c0-0.5,0.4-0.9,0.9-0.9h20.9v1.8H4.8C4.3,45.2,3.9,44.8,3.9,44.2C3.9,44.2,3.9,44.2,3.9,44.2
	z"/>
<path class="st0" d="M96.1,44.2L96.1,44.2c0,0.5-0.4,0.9-0.9,0.9c0,0,0,0,0,0H72.6v-1.9h22.6C95.7,43.3,96.1,43.7,96.1,44.2
	C96.1,44.2,96.1,44.2,96.1,44.2z"/>
</svg>
