<?xml version="1.0" encoding="utf-8"?>
<!-- Generator: Adobe Illustrator 22.1.0, SVG Export Plug-In . SVG Version: 6.00 Build 0)  -->
<svg version="1.1" id="Calque_1" xmlns="http://www.w3.org/2000/svg" xmlns:xlink="http://www.w3.org/1999/xlink" x="0px" y="0px"
	 viewBox="0 0 100 100" style="enable-background:new 0 0 100 100;" xml:space="preserve">
<style type="text/css">
	.st0{fill:none;stroke:#000000;stroke-width:0.5;stroke-linejoin:round;}
	.st1{fill:#FFFFFF;}
	.st2{fill:none;stroke:#FFFFFF;stroke-width:0.5;stroke-linejoin:round;}
</style>
<title>GRD</title>
<path class="st0" d="M38.8,41.8c-0.1-2.9,2.2-5.2,5.1-5.3h13.4c2.9,0.1,5.1,2.4,5.1,5.3v38.4c0,2.9-0.8,5.3-3.7,5.3l-16,0.1
	c-2.8,0-3.9-2.4-3.9-5.3L38.8,41.8z"/>
<path class="st0" d="M42.3,33.5c-0.3-3-0.9-6.3-0.9-9.5c0-5.1,4.1-9.2,9.2-9.2c5.1,0,9.2,4.1,9.2,9.2c0,0,0,0,0,0l-0.8,9.5H42.3z"/>
<path class="st0" d="M37.6,26.3v-0.6c0-0.6,0.5-1.2,1.1-1.2c0,0,0,0,0,0l2.8-0.1l0.1,3l-2.8,0.1C38.2,27.5,37.7,27,37.6,26.3
	C37.6,26.4,37.6,26.3,37.6,26.3z"/>
<polygon class="st0" points="41.6,24.4 59.8,24.4 59.4,27.4 41.8,27.3 "/>
<path class="st0" d="M56.9,24.4h2.8c1.5,0,2.8,0.2,2.8,0.5s-1.2,0.5-2.8,0.5h-2.8V24.4z"/>
<path class="st0" d="M56.9,33.3c0,0.8,0.1,1.6,0.4,2.3c0.2,0.5,0.9,1.4,1.1,0.8"/>
<path class="st0" d="M44.1,33.3c0,0.8-0.1,1.6-0.4,2.3c-0.3,0.5-0.9,1.4-1.2,0.8"/>
<line class="st0" x1="59.4" y1="26.1" x2="41.8" y2="25.9"/>
<path d="M38.6,25.9c0-0.3,0.2-0.5,0.5-0.5c0.3,0,0.5,0.2,0.5,0.5c0,0,0,0,0,0c0,0.3-0.2,0.5-0.5,0.5C38.8,26.4,38.6,26.1,38.6,25.9
	C38.6,25.9,38.6,25.9,38.6,25.9z"/>
<path class="st0" d="M38.6,25.9c0-0.3,0.2-0.5,0.5-0.5c0.3,0,0.5,0.2,0.5,0.5c0,0,0,0,0,0c0,0.3-0.2,0.5-0.5,0.5
	C38.8,26.4,38.6,26.1,38.6,25.9C38.6,25.9,38.6,25.9,38.6,25.9z"/>
<polygon class="st1" points="57.7,37.2 56.7,35.7 44.5,35.9 42.8,37.6 "/>
<polygon class="st2" points="57.7,37.2 56.7,35.7 44.5,35.9 42.8,37.6 "/>
</svg>
