<svg viewBox="0 0 29.15 24.75" xmlns="http://www.w3.org/2000/svg"><g fill="none" stroke="#010101" stroke-miterlimit="10" stroke-width=".5"><path d="m19.91 1.44c0-.1-.11-.53-.29-.4a12.33 12.33 0 0 1 -4.92.7c-1 0-2.45.08-3.49.06-3.15-.08-5.21.2-8.31-.14-.4 0-.53.15-1-.3-.21 6.47-.32 13.64 0 19.81a1.55 1.55 0 0 0 .32.94 1.74 1.74 0 0 0 1 1.14 6.48 6.48 0 0 0 2 .73 34.52 34.52 0 0 0 4.42.48 20.77 20.77 0 0 0 8.31-1.22 3.18 3.18 0 0 0 1-.5 1.22 1.22 0 0 0 .5-.95c0-1.13.13-2.29.16-3.43.1-4.28.21-8.57.55-12.84.07-1.23-.3-2.65-.25-4.08z"/><path d="m19.41 1.5a.3.3 0 0 0 .35-.39c-.08-.17-.29-.22-.47-.25a49.54 49.54 0 0 0 -17 .25.58.58 0 0 0 -.29.15c-.09.1-.07.3.06.33-.06 0 0 0 0 0a6.31 6.31 0 0 0 1.3.14c3.78.15 7.61 0 11.4 0a30.91 30.91 0 0 0 4.65-.23z"/><path d="m24.09 5.22a3.43 3.43 0 0 1 2.17 2.44 12.89 12.89 0 0 1 .6 5.51 7.12 7.12 0 0 1 -2.68 4.72 3.83 3.83 0 0 1 -1.95.55c-1 0-2.67.06-2.71-.92.07 1.67-.23 1-.06 2.78-.05-.53 1-.4 1.52-.38s1.06.11 1.6.13a5.36 5.36 0 0 0 3.42-1.05 6.71 6.71 0 0 0 2.18-3 12.56 12.56 0 0 0 .7-3.69 12.83 12.83 0 0 0 -.4-4.31 7.05 7.05 0 0 0 -2.29-3.58 4.92 4.92 0 0 0 -4.05-1 2.9 2.9 0 0 1 -2.14-.09c.05 0-.39 2.29-.38 2.52.08.9 1.42-.06 1.85-.38.97-.7 1.46-.59 2.62-.25z"/></g></svg>