<?xml version="1.0" encoding="utf-8"?>
<!-- Generator: Adobe Illustrator 22.1.0, SVG Export Plug-In . SVG Version: 6.00 Build 0)  -->
<svg version="1.1" id="Calque_1" xmlns="http://www.w3.org/2000/svg" xmlns:xlink="http://www.w3.org/1999/xlink" x="0px" y="0px"
	 viewBox="0 0 100 100" style="enable-background:new 0 0 100 100;" xml:space="preserve">
<style type="text/css">
	.st0{fill:none;stroke:#000000;stroke-width:0.5;stroke-linejoin:round;}
</style>
<title>MUG</title>
<path class="st0" d="M67.2,26.3v47.4c0,0.9-8.5,1.6-18.9,1.6s-18.9-0.7-18.9-1.6V26.3 M67.2,26.3c0,0.9-8.5,1.6-18.9,1.6
	s-18.9-0.7-18.9-1.6s8.4-1.6,18.9-1.6S67.2,25.5,67.2,26.3z"/>
<path class="st0" d="M67.1,30.7c0.9,0.3,1.8,0.4,2.8,0.3c1-0.1,1.9-0.4,2.9-0.7c0.8-0.4,1.7-0.6,2.6-0.6c1.3-0.1,2.5,0.3,3.6,1
	c1.4,1.2,2.6,2.7,3.3,4.4c1,2.5,1.7,5.2,2.1,7.9c0.4,3.1,0.4,6.3,0,9.4c-0.4,2.9-1.1,5.7-2.3,8.4c-1,1.7-2.3,3.2-4,4.3
	c-1,0.7-2.1,1.1-3.3,1.3c-1.1,0.3-2.2,0.4-3.3,0.4c-1.3,0-3.5,0-4.3-0.5"/>
<path class="st0" d="M67,37.8c2.2-1.2,2.5-1.6,3.6-2.1c1-0.6,2.2-0.9,3.4-0.9c1.2,0.3,2.2,0.9,3,1.8c0.8,1,1.4,2.1,1.8,3.4
	c0.5,1.5,0.9,3.1,1.1,4.6c0.3,1.6,0.4,3.3,0.3,4.9c-0.1,2.1-0.4,4.2-0.8,6.3c-0.3,1.3-0.8,2.6-1.5,3.8c-0.5,1-1.2,1.8-2.1,2.5
	c-0.8,0.5-1.6,0.7-2.5,0.8c-0.6,0.1-1.2,0.2-1.8,0.1c-0.6,0.1-1.2,0.1-1.8,0c-0.9-0.1-1.8-0.3-2.6-0.6"/>
</svg>
