<svg enable-background="new 0 0 100 100" height="300" viewBox="0 0 100 100" width="300" xmlns="http://www.w3.org/2000/svg"><g fill="none"><path d="m30.961 44.786c-7.754-.735-18.65-2.302-23.591-5.484v15.428c0 1.435 5.808 4.864 23.591 6.576v-6.582-6.571z"/><path d="m61.454 46.702-5.85 7.17 11.92 13.627v-6.048l1.187-.111c18.073-1.711 23.922-5.192 23.922-6.61v-15.44c-5.042 3.243-16.258 4.804-23.676 5.507l-1.433.137v-5.674l-4.547 5.574z"/><path d="m57.451 28.259c-2.354-.081-9.564-.116-10.693-.103-26.228.385-39.391 4.966-39.391 7.424 0 1.47 6.113 5.043 25.016 6.706l1.196.105v1.199 1.706c5.23-.416 10.747-.628 16.421-.628 3.208 0 6.422.07 9.562.207l1.386-1.697 9.195-11.264v10.143c.058-.008.118-.013.175-.019.111-.012.219-.023.33-.035.419-.046.835-.092 1.242-.139.126-.015.248-.029.374-.044.382-.046.76-.091 1.129-.138.137-.019.267-.034.401-.053.35-.046.696-.091 1.035-.138.141-.021.276-.039.414-.059.324-.048.646-.094.959-.141.142-.021.276-.043.416-.063.3-.046.6-.093.89-.141.144-.021.281-.047.424-.07.275-.046.55-.093.816-.139.145-.023.283-.051.424-.074.257-.049.512-.095.76-.143.138-.024.272-.052.409-.078.24-.047.479-.095.711-.141.133-.027.264-.055.395-.083.229-.047.453-.095.672-.144.127-.027.251-.057.375-.084.212-.047.421-.095.625-.143.123-.028.242-.058.361-.086.198-.047.394-.095.585-.144.117-.029.232-.062.348-.091.182-.047.359-.094.533-.141.115-.032.23-.063.342-.095.167-.046.331-.095.492-.142.109-.031.216-.063.321-.094.157-.047.31-.094.46-.141.102-.032.203-.063.301-.096.146-.046.287-.093.426-.139.098-.033.192-.063.285-.097.132-.046.261-.091.387-.138.092-.032.184-.064.271-.098.121-.045.237-.09.353-.135.085-.032.17-.065.252-.099.112-.045.22-.089.325-.133.077-.032.154-.063.229-.097.101-.044.197-.087.295-.13.071-.033.145-.065.214-.099.09-.043.175-.082.26-.123.067-.034.136-.067.201-.101.081-.041.158-.081.234-.121.06-.033.12-.063.178-.096.074-.041.144-.081.213-.122.052-.029.106-.063.156-.091.063-.04.123-.078.183-.116.048-.03.099-.062.144-.092.056-.037.106-.074.157-.11.042-.029.085-.062.124-.09.051-.036.095-.072.139-.109.033-.027.069-.057.103-.084.042-.033.077-.068.115-.104.028-.026.061-.056.087-.082.034-.035.063-.068.094-.104.022-.022.046-.05.067-.073.027-.035.049-.066.073-.101.017-.022.035-.047.051-.068.021-.033.036-.064.053-.097.012-.021.025-.042.035-.063.014-.034.024-.065.034-.099.006-.017.014-.033.018-.052.011-.046.019-.092.019-.137-.003-2.474-12.533-6.518-35.186-7.299z"/></g><path d="m46.725 25.536c-15.592.23-41.976 2.602-41.976 10.044v19.149c0 6.008 17.173 8.414 27.407 9.314l1.423.125v-9.447-6.787c5.229-.425 10.737-.648 16.422-.648 2.508 0 5.003.058 7.479.144l-5.303 6.501 17.968 20.537v-10.637c9.902-1.01 25.107-3.477 25.107-9.102v-19.149c0-6.378-20.313-9.341-37.71-9.938-2.445-.083-9.643-.12-10.817-.106zm14.729 21.165 1.524-1.868 4.547-5.574v5.674l1.433-.137c7.418-.703 18.633-2.264 23.676-5.507v15.44c0 1.418-5.848 4.898-23.922 6.607l-1.187.113v6.047l-11.92-13.626zm-54.084-7.398c4.938 3.183 15.837 4.749 23.591 5.484v3.365 6.571 6.582c-17.783-1.711-23.591-5.142-23.591-6.576zm50.085-11.054c22.652.779 35.182 4.824 35.182 7.321 0 .044-.006.091-.019.138-.003.018-.013.034-.017.051-.01.034-.02.064-.034.1-.01.019-.024.04-.035.062-.017.032-.032.063-.053.097-.015.021-.035.045-.051.068-.024.033-.046.065-.073.1-.021.024-.045.052-.067.074-.03.035-.06.067-.094.104-.026.026-.058.054-.087.081-.038.034-.073.069-.115.104-.031.027-.066.058-.103.084-.045.037-.089.072-.139.109-.04.029-.083.06-.125.09-.052.036-.102.073-.157.11-.043.028-.095.06-.143.09-.061.038-.12.076-.184.117-.05.028-.104.06-.156.091-.069.04-.139.079-.213.121-.058.032-.119.063-.178.096-.076.04-.153.08-.234.121-.063.033-.133.066-.201.099-.085.041-.17.083-.26.124-.07.034-.142.066-.214.1-.096.043-.193.086-.294.13-.075.033-.152.063-.229.097-.104.044-.213.088-.324.133-.082.032-.167.066-.253.1-.115.044-.231.089-.353.134-.088.033-.18.065-.271.098-.127.046-.255.092-.388.137-.094.033-.188.063-.285.097-.14.046-.28.094-.425.14-.099.032-.2.063-.301.096-.151.047-.304.094-.46.141-.106.031-.212.063-.321.094-.161.048-.325.095-.492.141-.112.031-.228.063-.343.096-.175.047-.353.094-.534.141-.113.029-.229.061-.348.09-.191.049-.386.097-.585.144-.12.029-.239.059-.361.087-.205.047-.414.095-.626.143-.124.027-.248.057-.375.084-.22.049-.444.097-.671.145-.13.027-.262.054-.395.081-.233.048-.471.095-.711.142-.136.026-.271.054-.409.078-.249.048-.503.094-.76.141-.142.024-.281.052-.425.075-.267.047-.541.095-.816.141-.142.022-.281.048-.425.069-.291.047-.589.095-.889.141-.138.021-.274.043-.416.063-.313.047-.635.093-.959.14-.138.02-.272.039-.414.06-.339.046-.686.092-1.035.138-.135.019-.266.034-.401.053-.369.047-.748.092-1.129.138-.125.015-.248.029-.374.044-.406.047-.822.093-1.241.138-.111.014-.219.024-.33.035-.058.007-.118.013-.176.02v-10.15l-9.195 11.272-1.387 1.697c-3.139-.137-6.354-.207-9.562-.207-5.674 0-11.188.213-16.422.629v-1.717-1.199l-1.194-.105c-18.898-1.665-25.014-5.237-25.014-6.706 0-2.458 13.162-7.041 39.391-7.425 1.131-.011 8.343.023 10.697.094z"/></svg>