<svg xmlns="http://www.w3.org/2000/svg" viewBox="0 0 100 100"><defs><style>.a,.b,.d,.e{fill:none;}.a,.c{fill-rule:evenodd;}.b,.d,.e{stroke:#000;}.b,.e{stroke-linejoin:round;stroke-width:0.5px;}.d{stroke-miterlimit:10;stroke-width:0.15px;}.e{stroke-dasharray:0.38 0.13;}</style></defs><title>TROTROIL</title><path class="a" d="M89.31,34.84c.13,1.43.26,2.88.32,4.17s-.11,2.49,0,3.63a31.53,31.53,0,0,0,.63,3.23A35.4,35.4,0,0,1,91,50.18c.18,2.08.37,6.12.31,8.2a37.45,37.45,0,0,1-.63,4.31c-.1,1.34.13,2.42,0,3.76a27.29,27.29,0,0,1-.78,4.3c-.31,1.08,0,1.84-1.1,2.16s-5.35-.28-5.35-.28L44.06,72c-11.45,0-23.15.26-29.23.4s-5.89.65-7.22.4-.16-.56-.79-1.88-2.38-4.33-3-6.06-.5-1.7-.63-4.3-.32-8-.15-11.29a65.83,65.83,0,0,1,1.09-8.75,48.64,48.64,0,0,1,1.42-5.38A8.07,8.07,0,0,1,6,33.49c.14-.15-1.67,1.17.32.68S14,31.52,18,30.53a126.28,126.28,0,0,1,12.57-2.28A115.07,115.07,0,0,1,43.43,27c4.53-.13,9.92.07,14.3.41a92.79,92.79,0,0,1,11.94,1.6c4,.82,9.22,2.5,11.79,3.24a33.22,33.22,0,0,1,3.61,1.2Z"/><path class="b" d="M89.31,34.84c.13,1.43.26,2.88.32,4.17s-.11,2.49,0,3.63a31.53,31.53,0,0,0,.63,3.23A35.4,35.4,0,0,1,91,50.18c.18,2.08.37,6.12.31,8.2a37.45,37.45,0,0,1-.63,4.31c-.1,1.34.13,2.42,0,3.76a27.29,27.29,0,0,1-.78,4.3c-.31,1.08,0,1.84-1.1,2.16s-5.35-.28-5.35-.28L44.06,72c-11.45,0-23.15.26-29.23.4s-5.89.65-7.22.4-.16-.56-.79-1.88-2.38-4.33-3-6.06-.5-1.7-.63-4.3-.32-8-.15-11.29a65.83,65.83,0,0,1,1.09-8.75,48.64,48.64,0,0,1,1.42-5.38A8.07,8.07,0,0,1,6,33.49c.14-.15-1.67,1.17.32.68S14,31.52,18,30.53a126.28,126.28,0,0,1,12.57-2.28A115.07,115.07,0,0,1,43.43,27c4.53-.13,9.92.07,14.3.41a92.79,92.79,0,0,1,11.94,1.6c4,.82,9.22,2.5,11.79,3.24a33.22,33.22,0,0,1,3.61,1.2Z"/><polygon class="c" points="88.68 34.71 88.68 33.09 87.42 31.75 85.54 31.75 84.59 32.29 84.59 33.37 88.68 34.71"/><polygon class="b" points="88.68 34.71 88.68 33.09 87.42 31.75 85.54 31.75 84.59 32.29 84.59 33.37 88.68 34.71"/><polygon class="c" points="89.15 32.69 97.01 35.25 95.75 36.32 89.15 32.69"/><polygon class="b" points="89.15 32.69 97.01 35.25 95.75 36.32 89.15 32.69"/><path class="d" d="M28.19,60c1.31-.47,8.17-.67,8.17-.67,4-.29,9.35-1.17,15.71-1.08s19.46,1,22.47,1.62-.08,1.28-4.4,1.88-17,1.64-21.52,1.75-5.34-1.08-5.34-1.08a26.56,26.56,0,0,0-2.84-.53,16.36,16.36,0,0,0-3,0c-1.31.08-3.38.49-4.87.53a14.92,14.92,0,0,1-4.09-.26C27.56,61.85,26.88,60.47,28.19,60Z"/><path class="d" d="M21.75,65c-.84-.29-2.05,0-2.2-2a39.64,39.64,0,0,1,1.26-10c.76-2.51,2.4-5,3.3-5.12s1.62,2.54,2,4.72a34.82,34.82,0,0,1,.48,8.34,5.68,5.68,0,0,1-2,3.76A3,3,0,0,1,21.75,65Z"/><polyline class="d" points="18.45 39.68 20.96 41.3 24.11 46.94 21.59 45.87 20.18 44.12 19.55 42.64 20.49 41.16 22.06 40.9 29.45 44.26 23.48 43.72 23.17 42.78 23.63 39.68 26.77 40.09 29.45 44.12"/><polyline class="d" points="80.35 39.84 78.3 41.84 71.51 43.97 72.93 41.94 75.07 40.9 76.83 40.5 78.49 41.45 78.69 42.81 74.26 48.8 75.31 43.75 76.42 43.57 79.99 44.27 79.3 46.92 74.41 48.81"/><path class="d" d="M24.58,48a36.85,36.85,0,0,0-1.1,4.3,30.27,30.27,0,0,0-.16,3.5c-.11,1.84-.39,5.63-.47,7.54s0,2.9,0,3.89"/><path class="d" d="M69.67,65.24c.63-.47.79-2,.94-2.69s-.1-.42,0-1.34.76-2.63.63-4.17a10.93,10.93,0,0,0-1.41-5.12c-1.1-1.74-4.33-5.55-5.18-5.38s0,4.47,0,6.46-.53,3.45-.17,5.52,1.53,5.75,2.36,6.85S69,65.71,69.67,65.24Z"/><path class="e" d="M89.53,37.36,78.77,34.5c-3.81-1-7.92-2.23-12.07-3a95.19,95.19,0,0,0-12.82-1.74,85.5,85.5,0,0,0-12.62.47c-4.43.43-13.93,2.07-13.93,2.07-4.26.67-8,1.11-11.69,1.91S8.48,36,5.06,37"/></svg>