<svg viewBox="0 0 166.8 36.24" xmlns="http://www.w3.org/2000/svg" xmlns:xlink="http://www.w3.org/1999/xlink"><mask id="a" height="42.52" maskUnits="userSpaceOnUse" width="170.08" x="-5.91" y="-3.29"><path d="m-5.91 18c0-11.74 7.47-21.26 16.7-21.26h136.67c9.23 0 16.7 9.52 16.7 21.26s-7.47 21.26-16.7 21.26h-136.67c-9.23-.03-16.7-9.55-16.7-21.26z" fill="#fff"/></mask><rect fill="#fff" height="36.24" rx="18.12" width="166.8"/><path d="m148.68 36.26h-129.68c-6.57 0-12.67-2.83-16.25-8.5a18.29 18.29 0 0 1 7.97-26.15c3.38-1.52 6.82-1.61 10.4-1.61h127.43a18.38 18.38 0 0 1 10.3 3.15 18.12 18.12 0 0 1 -10.17 33.09z" fill="#fff"/><g mask="url(#a)"><g opacity=".45"><path d="m29.88 0c1.49 2.3 2.9 4.65 4.2 7.07-1.14-2.39-2.37-4.75-3.71-7.07" fill="#bfddbc"/><path d="m33.17 4.43c-.18-.29-1-1.79-1.24-.82-.14.61.92 2.22 1.17 2.75a31.53 31.53 0 0 0 2.16 4.11 12.06 12.06 0 0 1 1.92 3.4 32.81 32.81 0 0 0 -4.01-9.44z" fill="#bfddbc"/><path d="m31.09 1.57c-.92-.4-.78 4-.75 4.36a24.67 24.67 0 0 0 1.89 6.84 56.34 56.34 0 0 0 -.33-6.87c-.09-.88-.23-1.76-.33-2.64-.05-.39-.03-1.5-.48-1.69z" fill="#bfddbc"/><path d="m28.7 0a18 18 0 0 0 -.15 5.54 14.07 14.07 0 0 0 .33 2.46 5.08 5.08 0 0 1 .39 2 28.68 28.68 0 0 0 .33-5.93 12.64 12.64 0 0 0 -.33-4.07" fill="#bfddbc"/><path d="m26.91 0a51.42 51.42 0 0 0 -.51 10.15c-.06-1.5.74-3.15 1-4.64a42.33 42.33 0 0 0 .4-5.51" fill="#bfddbc"/><path d="m31.43 1.4c-.06 1.32 3.11 2 4 2.24 1.76.58 3.52 1.13 5.29 1.69a37.77 37.77 0 0 0 -5.12-2.66c-1.21-.56-2.78-1.49-4.17-1.27z" fill="#bfddbc"/><path d="m31 0a15.24 15.24 0 0 0 4.42 1.09 36.35 36.35 0 0 0 5 .38 18.87 18.87 0 0 0 -4.27-1.47" fill="#bfddbc"/><path d="m23.89 0c-.16 1.25-.28 2.51-.4 3.77a10.44 10.44 0 0 1 -.28 3 24.9 24.9 0 0 0 1.79-6.77" fill="#bfddbc"/><path d="m20.76 0c-.33 1.71-.62 3.43-.85 5.15a29.27 29.27 0 0 0 2.21-5.15" fill="#bfddbc"/><g fill="#89c693"><path d="m139.26.11a2.88 2.88 0 0 0 -.88 0c-.44.2-1.11 1.59-1.39 2q-1.32 2-2.53 4a94.84 94.84 0 0 0 -4.58 8.7 108.27 108.27 0 0 1 9.38-14.7z"/><path d="m130.77 12.12a33.25 33.25 0 0 0 -3.93 9.48 12.1 12.1 0 0 1 1.9-3.42 33.5 33.5 0 0 0 2.12-4.13c.25-.55 1.29-2.14 1.14-2.77-.24-.98-1.06.56-1.23.84z"/><path d="m132.83 9.24c-.43.18-.42 1.24-.46 1.6-.11.92-.23 1.83-.32 2.74a60.61 60.61 0 0 0 -.27 6.87 24 24 0 0 0 1.83-6.86c.03-.35.13-4.75-.78-4.35z"/><path d="m134.34 12a24.49 24.49 0 0 0 .38 5.67 5.49 5.49 0 0 1 .4-2.14 15 15 0 0 0 .31-2.83 14.23 14.23 0 0 0 -.43-5.64c-1.15.94-.62 3.66-.66 4.94z"/><path d="m136.32 11.09a30.5 30.5 0 0 0 .55 3.66 11.83 11.83 0 0 1 .73 3 47.44 47.44 0 0 0 -1.33-13.54 28 28 0 0 0 .05 6.88z"/><path d="m127.79 10.62a30 30 0 0 0 -4.52 2.47c1.76-.57 3.52-1.14 5.27-1.74.85-.29 4-1 3.94-2.28-1.57-.24-3.31.93-4.69 1.55z"/><path d="m123.5 9.24a34.87 34.87 0 0 0 6.52-.7c1.38-.27 3.27-.57 4.09-1.86a12.13 12.13 0 0 0 -2.6.35c-.92.14-1.84.29-2.75.47a20.57 20.57 0 0 0 -5.26 1.74z"/><path d="m132.94 4.63a33.32 33.32 0 0 0 -4.67.6 20.18 20.18 0 0 0 -2.2.54 10 10 0 0 1 -1.93.59c2.76-.26 5.51-.48 8.27-.76.36 0 2.21 0 2.34-.55.18-.81-1.45-.44-1.81-.42z"/><path d="m135.69 2.42a78.32 78.32 0 0 0 -11.15.37c2.81.08 5.59.54 8.39.54a8.45 8.45 0 0 0 3.36-.33c1.02-.51-.13-.56-.6-.58z"/><path d="m136.44.39c-1.72.07-3.44-.18-5.14-.23a46.43 46.43 0 0 0 -5.3.23q4.52.6 9.06.93c.69.06 2.18.35 2.59-.44s-.77-.51-1.21-.49z"/><path d="m140.4 11c-.22-2.12-.46-4.24-.86-6.34-.2-1.05-.17-3-1-3.74-.81 1.88 0 4.56.32 6.49a25.77 25.77 0 0 0 1.91 7 4.2 4.2 0 0 1 -.16-1.5c-.06-.62-.14-1.25-.21-1.91z"/><path d="m142.6 9.77a29.36 29.36 0 0 0 1.4 2.93c-.39-2.77-1-5.53-1.54-8.27a27 27 0 0 0 -1-3.74c-.17-.45-.13-.48-.51-.58a3.84 3.84 0 0 0 -.83 0 29.68 29.68 0 0 0 2.48 9.66z"/><path d="m146.22 6.8-1.56-5c-.14-.45-.26-1.49-.66-1.67a3.15 3.15 0 0 0 -1 0 21.71 21.71 0 0 0 3.22 6.67z"/><path d="m147.74.11h-.92a28.11 28.11 0 0 0 1.75 2.94c-.25-.99-.57-1.96-.83-2.94z"/><path d="m41.48 36.35h.7a71.65 71.65 0 0 0 -11.7-16 87 87 0 0 1 11 16z"/><path d="m29.64 18.92a26.5 26.5 0 0 0 -3.38-2.77c1.13.78 1.78 2.18 2.67 3.2s1.82 2 2.77 2.94c.2.2.61.76.91.7.47-.09 0-.64-.11-.84a23.69 23.69 0 0 0 -2.86-3.23z"/><path d="m32.38 23.2a47.18 47.18 0 0 0 -6.68-3 16.63 16.63 0 0 0 6.05 3.92c.3.09 1.77.65 2 .23s-1.1-.99-1.37-1.15z"/><path d="m31.28 24.51a18.81 18.81 0 0 0 -4.34-1.34 4.06 4.06 0 0 1 1.41.86 12.43 12.43 0 0 0 2 1.06 11.72 11.72 0 0 0 4.41 1.35c-.32-1.13-2.55-1.53-3.48-1.93z"/><path d="m28.72 25.65a13 13 0 0 1 -2.72-.37 38 38 0 0 0 10.5 2.9 25.07 25.07 0 0 0 -7.78-2.53z"/><path d="m33.65 15.93c-.08 1.49-.16 3-.22 4.46 0 .75-.44 3.25.56 3.58.55-1 .3-2.36.23-3.39a31.59 31.59 0 0 0 -.57-4.65z"/><path d="m35.05 22.58c-.16 1-.4 2.38.27 3.29a17.81 17.81 0 0 0 .91-4.18 16 16 0 0 0 .22-4.48 28.47 28.47 0 0 0 -1.4 5.37z"/><path d="m36.62 26.85c.37-.09.43-.83.52-1.13.23-.79.47-1.56.65-2.36a25.41 25.41 0 0 0 .45-2.61 15 15 0 0 1 .18-2.23c-.49 1.73-1 3.46-1.48 5.2-.09.34-1.17 3.33-.32 3.13z"/><path d="m37.49 28.85c.3.5.77-1.1.84-1.26.33-.81.65-1.62 1-2.44.64-1.74 1.21-3.51 1.69-5.3-.66 1.59-1.49 3.11-2.21 4.68a24.14 24.14 0 0 0 -.92 2.31c-.2.46-.69 1.53-.4 2.01z"/><path d="m38.62 30.2c.44.58.59-.34.68-.64a17.15 17.15 0 0 1 1-2.35 38 38 0 0 0 2.06-5.57q-1.26 2.3-2.41 4.65c-.4.76-1.95 3.04-1.33 3.91z"/><path d="m39.7 32.32c.68 0 1.81-2.53 2.09-3a16.5 16.5 0 0 0 2.27-5.88q-1.16 2.38-2.49 4.67c-.66 1.1-2.18 2.8-1.87 4.21z"/><path d="m27.63 28.61a9.45 9.45 0 0 1 2.61.7c1.07.29 2.14.58 3.22.82.9.21 1.81.36 2.71.54.61.13 1.54.45 2.15.14-1.11-1.08-3.12-1.23-4.56-1.54a21.13 21.13 0 0 0 -6.13-.66z"/><path d="m30.56 31.32a22.62 22.62 0 0 0 -2.6.23c2.29.53 4.61.91 6.93 1.27.79.13 4.09 1 4.67-.08-2.64-1.28-6.11-1.52-9-1.42z"/><path d="m41.47 34.46a8.74 8.74 0 0 0 1.92-3.11 17.48 17.48 0 0 0 1.44-4.29 54.08 54.08 0 0 1 -2.83 5.24 7.18 7.18 0 0 0 -.68 1.46c-.09.24-.32 1.09.15.7z"/><path d="m38.64 34.5a19.12 19.12 0 0 0 -6.91.38c2.25.15 4.51.38 6.76.45.32 0 1.66 0 1.56-.56-.05-.38-1.15-.25-1.41-.27z"/><path d="m46.65 29.59c-1 2.34-2.59 4.39-3.52 6.76.26 0 .86.12 1.08 0 .38-.2.72-1.3.9-1.69a19.55 19.55 0 0 0 1.54-5.07z"/><path d="m47.24 34.6a5.16 5.16 0 0 0 .32-1.5 13.92 13.92 0 0 1 -1.31 3.25c.55 0 .65.13.89-.32a6.89 6.89 0 0 0 .49-2.34z"/></g><path d="m55.67 15.31a72.55 72.55 0 0 0 -1.6 11.37c-.11 1.83-.14 3.67-.1 5.5 0 1 .07 2 .13 3 0 .24 0 1.06.15 1.15a1.81 1.81 0 0 0 .57 0 87.21 87.21 0 0 1 .85-21.02z" fill="#dfeddc"/><path d="m55 17.44c0 .24-.28 1.52.32 1.19.4-.22.53-1.78.63-2.19a29.29 29.29 0 0 0 .67-3.72 10.55 10.55 0 0 1 .38-3.22 26 26 0 0 0 -2 7.94z" fill="#dfeddc"/><path d="m54.86 20.27c.39.7 2.47-2.18 2.65-2.46a19.76 19.76 0 0 0 2.12-5.19 46.78 46.78 0 0 0 -3.16 4.51c-.24.39-1.91 2.6-1.61 3.14z" fill="#dfeddc"/><path d="m57.15 19.25c-.58.83-2.26 2.34-1.95 3.47a11.51 11.51 0 0 0 2.94-3.31 14.16 14.16 0 0 0 1.22-2 4.43 4.43 0 0 1 .79-1.58 20 20 0 0 0 -3 3.42z" fill="#dfeddc"/><path d="m59.93 18.87a25.14 25.14 0 0 0 -5.29 6.25 38 38 0 0 0 7.4-8 12.21 12.21 0 0 1 -2.11 1.75z" fill="#dfeddc"/><path d="m53.91 18c-1.06-1.63-2.17-3.22-3.27-4.81a30.2 30.2 0 0 0 2 4.25c.48.93 1 2.24 2 2.77.41-.58-.42-1.74-.73-2.21z" fill="#dfeddc"/><path d="m48.92 15.75a16.23 16.23 0 0 0 2.5 3.64 17.57 17.57 0 0 0 3 3.13c.11-1.37-1.24-2.66-2.08-3.58a26.65 26.65 0 0 0 -3.42-3.19z" fill="#dfeddc"/><path d="m53.62 23.12c-1.87-1.76-3.79-3.48-5.69-5.22a20.76 20.76 0 0 1 1.68 2.24 26.65 26.65 0 0 0 2.19 2.31c.41.38 1.17 1.35 1.72 1.51.79.24.48-.49.1-.84z" fill="#dfeddc"/><path d="m53.46 25.27c-2.07-2-4.69-3.24-7-4.9 1.58 1.48 3.24 2.88 5 4.2a12.17 12.17 0 0 0 2.28 1.68c.9.35.06-.66-.28-.98z" fill="#dfeddc"/><path d="m52.86 26.66q-3.26-2.13-6.62-4.05a54 54 0 0 0 5.54 4.23 11.82 11.82 0 0 1 1.2.91c.16.14.39.5.61.51 1.02 0-.49-1.44-.73-1.6z" fill="#dfeddc"/><path d="m51.75 28.45a68.92 68.92 0 0 1 -6-3.42 16.39 16.39 0 0 0 4.86 3.73c.5.27 2.94 1.94 3.52 1.55-.38-.97-1.53-1.44-2.38-1.86z" fill="#dfeddc"/><path d="m54.48 28.31c.64-.06 1.23-.76 1.67-1.17.7-.66 1.42-1.29 2.1-2s1.47-1.5 2.19-2.26c.56-.6 1.24-1.73 2-2.1a20.52 20.52 0 0 0 -4.69 3.61c-1.14 1.1-2.89 2.35-3.27 3.92z" fill="#dfeddc"/><path d="m57.6 27.3a15.74 15.74 0 0 0 -3.17 3.3c.49.27 1.33-.34 1.72-.58a19.92 19.92 0 0 0 2.41-1.9c1.75-1.5 3.48-3 5.12-4.63a24.3 24.3 0 0 0 -6.08 3.81z" fill="#dfeddc"/><path d="m52.76 31.84c-1.92-1.12-4-2-5.79-3.31a20.17 20.17 0 0 0 5.32 4c.25.13 1.7.91 1.67.35.04-.35-.96-.88-1.2-1.04z" fill="#dfeddc"/><path d="m56.14 31.61c-.21.16-1.09.55-1.07.88 0 .71 1.46-.14 1.69-.29 1.85-1.23 3.64-2.6 5.46-3.89a18.93 18.93 0 0 0 -6.08 3.3z" fill="#dfeddc"/><path d="m55.1 35.75c-1 1.32 1.7-.3 1.92-.44 1.68-1.08 3.31-2.24 4.87-3.47-2.27.76-5.3 1.93-6.79 3.91z" fill="#dfeddc"/><path d="m53.89 36c-2.15-1.82-4.86-2.76-7.14-4.37a19.59 19.59 0 0 0 4.42 3.8 4.87 4.87 0 0 0 1.8.91 10.43 10.43 0 0 0 1.25 0 2.13 2.13 0 0 0 -.33-.34z" fill="#dfeddc"/><path d="m58.77 36.09-.64.26a6 6 0 0 0 1.2 0c.64-.13 1.3-.87 1.82-1.3a8.44 8.44 0 0 1 -2.38 1.04z" fill="#dfeddc"/><path d="m48.87 36.22-.8-.57c.44.57.57.7 1.25.7a11.1 11.1 0 0 1 -1.5-1.24 5.26 5.26 0 0 0 1.05 1.11z" fill="#dfeddc"/><g fill="#bfddbc"><path d="m62 .2h-.63a87.13 87.13 0 0 1 3.73 17.86 70.78 70.78 0 0 0 -3.1-17.86z"/><path d="m64.69 14.68c-.32.15-.14 1.1-.13 1.37 0 .94.06 1.88.13 2.83.13 1.64.85 3.52.6 5.15a26.56 26.56 0 0 0 .23-5.91c-.02-.24-.2-3.72-.83-3.44z"/><path d="m63.67 13.87c-1.42 2.34-1.67 5.13-1.67 7.82a47.92 47.92 0 0 0 2.27-6.59c.12-.45.56-1.34.42-1.8-.28-.81-.82.24-1.02.57z"/><path d="m61.72 14.57a13 13 0 0 0 -.72 2.43 4.57 4.57 0 0 1 -.36 1.73 26.27 26.27 0 0 0 2.22-4.63c.33-.8 1.28-2.44.77-3.31a10.8 10.8 0 0 0 -1.91 3.78z"/><path d="m60.06 15.73a25 25 0 0 0 3.49-7.4 37.77 37.77 0 0 0 -5.08 9.67 12.76 12.76 0 0 1 1.59-2.27z"/><path d="m64.9 13c-.44.94 1.68 2.4 2.22 2.87 1.12 1 2.25 1.93 3.39 2.89a30.36 30.36 0 0 0 -2.9-3.51c-.74-.75-1.61-1.94-2.71-2.25z"/><path d="m65.51 11.4a5.11 5.11 0 0 0 -1.09-.62c.24 1.31 1.76 2.17 2.79 2.83a27.92 27.92 0 0 0 4.29 2.27 22.73 22.73 0 0 0 -5.99-4.48z"/><path d="m68.92 11.3a34.83 34.83 0 0 0 -3.16-1.76c-.27-.13-.77-.53-1.09-.4s-.13.49.1.68a19.51 19.51 0 0 0 3.35 1.78l3.78 2c-1.06-.6-1.96-1.6-2.98-2.3z"/><path d="m64.53 7.15c-.47-.18-1.27-.37-.51.35a8.26 8.26 0 0 0 2.56 1.26c2 .78 4.09 1.27 6.1 2a61.2 61.2 0 0 0 -8.15-3.61z"/><path d="m64.59 5.41c-.34-.15-1.11-.76-1.06 0s1.37 1 1.89 1.15c2.28.73 4.58 1.41 6.89 2a37.2 37.2 0 0 0 -3.68-1.7c-1.33-.51-2.74-.86-4.04-1.45z"/><path d="m65.12 3.45c-.48-.1-2-.74-2.39-.29.75 1.11 2.7 1.18 3.88 1.44 1.88.41 3.75.91 5.59 1.48a18.45 18.45 0 0 0 -7.08-2.63z"/><path d="m62.16 1.94v.06"/><path d="m61.25 7.28c-.82 1.21-1.54 2.47-2.25 3.72l-1 1.85a6.13 6.13 0 0 1 -.86 1.62 20.28 20.28 0 0 0 3.47-4.47c.84-1.37 2.3-3.14 2.26-4.82-.77.3-1.2 1.47-1.62 2.1z"/><path d="m60.59 4.23a33.21 33.21 0 0 0 -2.76 3.91c-.9 1.35-1.78 2.71-2.59 4.1a24.32 24.32 0 0 0 4.16-4.24 17.14 17.14 0 0 0 2.92-5c-.61-.18-1.38.85-1.73 1.23z"/><path d="m62.38.41c-.84.13 1.53 1 1.78 1.07a57.7 57.7 0 0 1 5.91 1.52 17.83 17.83 0 0 0 -4-1.86 8.89 8.89 0 0 0 -3.69-.73z"/><path d="m61 1.15c-1-.15-2.06 1.76-2.57 2.37l-3 3.69a16.63 16.63 0 0 0 4-3.58c.16-.17 2.17-2.41 1.57-2.48z"/><path d="m58.93.2c-.63 0-1.07-.12-1.52.29a22.14 22.14 0 0 0 -2.62 3.23 22.49 22.49 0 0 0 4.14-3.52z"/><path d="m54.88.2c-.11 0-.18.06-.2.22z"/><path d="m98.82.11c-.74 0-.81 0-1.17.65q-.78 1.52-1.5 3.06c-.91 1.95-1.75 3.93-2.5 5.95a84.41 84.41 0 0 0 -3.54 12.57 101.06 101.06 0 0 1 8.71-22.23z"/><path d="m90.34 19.73a30.86 30.86 0 0 0 -1.52 9.43 11.1 11.1 0 0 1 1-3.45 30.72 30.72 0 0 0 1.08-4.35c.09-.48.69-2.23.4-2.69-.51-.73-.86.77-.96 1.06z"/><path d="m92.5 17.77c-.13-.33-.48-1.58-1-1-.35.39 0 1.61.08 2.08a58.57 58.57 0 0 0 1.46 8.21c.45-3.06.67-6.34-.54-9.29z"/><path d="m95 21.48c-.22-2.3-.57-5.28-1.9-7.24-.74.91.05 3 .29 4a29.82 29.82 0 0 0 1.72 5.71c-.33-.77-.03-1.7-.11-2.47z"/><path d="m95.15 17.6a26 26 0 0 0 1.28 3.2 10.58 10.58 0 0 1 1.31 2.6 44.14 44.14 0 0 0 -4.11-12 25.87 25.87 0 0 0 1.52 6.2z"/><path d="m87.32 19a30.18 30.18 0 0 0 -3.57 3.21c1.45-.88 2.9-1.76 4.33-2.66.74-.47 3.5-1.77 3.16-2.95-1.48.13-2.8 1.57-3.92 2.4z"/><path d="m83.14 18.69a32.51 32.51 0 0 0 5.59-2c1.23-.56 3-1.25 3.46-2.64a11.84 11.84 0 0 0 -2.31.89c-.78.31-1.56.64-2.33 1a19.06 19.06 0 0 0 -4.41 2.75z"/><path d="m90.7 12.49a30.35 30.35 0 0 0 -4.11 1.51 37.18 37.18 0 0 1 -3.49 1.91c2.46-.84 4.94-1.64 7.4-2.49.36-.13 2-.43 1.91-1s-1.41-.03-1.71.07z"/><path d="m92.71 9.89a72.39 72.39 0 0 0 -10 2.73c2.47-.51 5-.7 7.46-1.26a10.49 10.49 0 0 0 3.06-1c.2-.12.63-.41.38-.65s-.75.15-.9.18z"/><path d="m93 7.89c-1.55.44-3.15.58-4.71.9a41.21 41.21 0 0 0 -4.74 1.34q4.16-.43 8.33-1.13c.62-.1 2.12-.16 2.3-1s-.8-.23-1.18-.11z"/><path d="m92.69 5.54a21.32 21.32 0 0 0 -8.6 1.76q3.33-.5 6.69-.71c1.41-.09 3.64.19 4.72-1-.38-.59-2.23-.08-2.81-.05z"/><path d="m98.83 16.69c-.63-1.82-1.28-3.64-2.07-5.4-.41-.94-.84-2.81-1.8-3.33-.34 1.9 1 4.17 1.72 5.88a23.38 23.38 0 0 0 3.19 5.82 11.37 11.37 0 0 1 -1.04-2.97z"/><path d="m97.76 7.25c-.33-.51-1-1.82-1.77-1.76a20.4 20.4 0 0 0 2.55 6.43 28.08 28.08 0 0 0 3.94 5.49c-.69-1.77-1.47-3.5-2.27-5.22a37.21 37.21 0 0 0 -2.45-4.94z"/><path d="m96.38 2.53c-1.27-.41-3 0-4.3.21a21.18 21.18 0 0 0 -5 1.43 71.06 71.06 0 0 1 7.14-.73 7.77 7.77 0 0 0 1.78-.32c.21-.12 1-.37.38-.59z"/><path d="m97.82 3.63c-.6 0 0 .9.15 1.1.46.74.88 1.5 1.35 2.23a19.17 19.17 0 0 0 3.87 4.64q-1.44-2.43-2.87-4.87c-.46-.73-1.38-3.07-2.5-3.1z"/><path d="m100.38 2.9a26.59 26.59 0 0 0 4.13 4.79c-.88-1.66-1.82-3.29-2.83-4.87-.47-.74-.93-1.5-1.45-2.2-.4-.55-.5-.51-1.15-.51a7.43 7.43 0 0 0 1.3 2.79z"/><path d="m94.53.11h-2.82c-.52 0-1 0-1.56 0a5.35 5.35 0 0 0 -1.84.66c2.05-.41 4.15-.45 6.22-.66z"/><path d="m105.23 3.92c-.33-.64-.66-1.28-1-1.92a6.64 6.64 0 0 0 -1-1.73c-.34-.3-1-.16-1.52-.16 1.08 1.25 2.77 2.34 3.52 3.81z"/></g><path d="m117.61.11a5.33 5.33 0 0 0 -1.13 0 13.38 13.38 0 0 0 -3 1.68c-2 1.16-3.9 2.41-5.78 3.73a95.87 95.87 0 0 1 9.91-5.41z" fill="#c14f96"/><path d="m109.55 3.89a29 29 0 0 0 -7.12 5.48 10.33 10.33 0 0 1 2.88-1.75 28.86 28.86 0 0 0 3.4-2.18c.4-.29 2-1.1 2.13-1.63.26-.87-1.01-.07-1.29.08z" fill="#c14f96"/><path d="m112.37 2.6c-.44-.05-.9.82-1.11 1.1-.49.67-1 1.33-1.48 2a50.64 50.64 0 0 0 -3.1 5 21.48 21.48 0 0 0 4.32-4.32c.19-.31 2.24-3.69 1.37-3.78z" fill="#c14f96"/><path d="m112.32 5.35a21.3 21.3 0 0 0 -2.19 4.47c.21-.63.92-1.07 1.35-1.56a15.89 15.89 0 0 0 1.43-2 12 12 0 0 0 2.09-4.36c-1.28.17-2.1 2.51-2.68 3.45z" fill="#c14f96"/><path d="m113.12 8.31a14.18 14.18 0 0 1 -.86 2.87 41.52 41.52 0 0 0 4.91-10.86 27.13 27.13 0 0 0 -4.05 7.99z" fill="#c14f96"/><path d="m103.43 1.35c1.59.33 3.18.67 4.78 1 .8.16 3.44 1 4 0-.93-.74-2.47-.72-3.59-.82a34.33 34.33 0 0 0 -5.19-.18z" fill="#c14f96"/><path d="m114.46 1.22c-1.84-1.22-3.79-1.11-5.87-1.11 1.55.64 4.2 1.98 5.87 1.11z" fill="#c14f96"/><path d="m114.67.11c.22 0 1.09.14 1.07-.14" fill="#c14f96"/><path d="m115.73.11h-1.06c.23.1.96.46 1.06 0z" fill="#c14f96"/><path d="m116.13 10a9 9 0 0 1 1.05-2.36c.36-.81.73-1.63 1.08-2.46.7-1.65 1.36-3.35 1.9-5.06-.75 0-.86-.11-1.19.63-.43 1-.79 1.94-1.16 2.91a22.86 22.86 0 0 0 -1.68 6.34z" fill="#c14f96"/><path d="m119.56 7.28a24.65 24.65 0 0 0 -.19 2.85c.7-1.75 1.32-3.53 1.91-5.32a35.25 35.25 0 0 0 1.41-4.7 3.57 3.57 0 0 0 -1.13 0c-.42.19-.62 1.32-.77 1.79a27.6 27.6 0 0 0 -1.23 5.38z" fill="#c14f96"/><path d="m123.61 6.61c.48-2.17 1-4.33 1.46-6.5a2.38 2.38 0 0 0 -.8 0c-.39.18-.41 1.21-.48 1.67a16.64 16.64 0 0 0 -.18 4.83z" fill="#c14f96"/><path d="m127 4.78c.43-1.54.78-3.1 1.09-4.67a3.09 3.09 0 0 0 -.68 0c-.48.11-.34.15-.39.78a24.06 24.06 0 0 0 -.02 3.89z" fill="#c14f96"/><path d="m130 2.67c.24-.85.48-1.7.7-2.56h-.7a7.85 7.85 0 0 1 0 2.56z" fill="#c14f96"/><g fill="#bfddbc"><path d="m163.57 28.16-.37.53"/><path d="m163.2 28.69.37-.53a75.76 75.76 0 0 0 -25.25-8 87.45 87.45 0 0 1 24.88 8.53z"/><path d="m140.56 20.17a26.5 26.5 0 0 0 -8.18-.69 10.36 10.36 0 0 1 3.19.65 29.55 29.55 0 0 0 3.86.62c.4 0 1.83.43 2.15.13.49-.47-.78-.65-1.02-.71z"/><path d="m141.56 21.16a45.62 45.62 0 0 0 -7.1 1.81 16.33 16.33 0 0 0 7.25-.77c.29-.11 1.81-.61 1.59-1.09s-1.38-.01-1.74.05z"/><path d="m141.53 22.86a19.5 19.5 0 0 0 -4.23 1.67 3.93 3.93 0 0 1 1.64-.2 13.38 13.38 0 0 0 2.41-.49 11.33 11.33 0 0 0 4.1-1.66c-.96-.67-2.95.41-3.92.68z"/><path d="m140.24 25.35a12.44 12.44 0 0 1 -2.34 1.41 37.92 37.92 0 0 0 10-4.31 25.51 25.51 0 0 0 -7.66 2.9z"/><path d="m138 14.69c.87 1.21 1.73 2.42 2.62 3.61.44.59 1.71 2.8 2.68 2.44-.18-1.12-1.29-2.08-2-2.88a31.67 31.67 0 0 0 -3.3-3.17z"/><path d="m141 13.93a28 28 0 0 0 2.09 4.75c.55 1 1.24 2.4 2.44 2.72a17.63 17.63 0 0 0 -1.93-3.89 16.39 16.39 0 0 0 -2.6-3.58z"/><path d="m145.35 16.87c-.57-1.07-1.54-2.05-2-3.15.55 1.3 1.09 2.61 1.64 3.92a18.59 18.59 0 0 0 1.51 3.48c.17.22.39.55.65.22s-.19-.94-.29-1.18a32.6 32.6 0 0 0 -1.51-3.29z"/><path d="m148.28 18.7a58 58 0 0 0 -2.12-5.54c.73 2.51 1.05 5.14 2 7.58.11.26 1.09 2.38 1.16 1.33a4.9 4.9 0 0 0 -.37-1.22c-.21-.72-.43-1.43-.67-2.15z"/><path d="m149.81 17.67a34.94 34.94 0 0 0 -1.46-4c.28 1.53.58 3.05.91 4.57.26 1.2.35 2.89 1 3.95.13.21.6.75.9.44s-.14-.66-.2-.82a37.3 37.3 0 0 1 -1.15-4.14z"/><path d="m152.51 18.78a15.54 15.54 0 0 0 -1.7-4.77q.65 2.82 1.05 5.69c.16 1.2.07 3.14 1.12 4 .4-.3.05-1.5 0-1.88-.17-1.03-.27-2.04-.47-3.04z"/><path d="m147.48 24.51a24.71 24.71 0 0 0 -6.24 3.83 9.66 9.66 0 0 1 2.48-1.08c1-.45 2-.89 3-1.38.83-.4 1.63-.85 2.45-1.27.55-.29 1.48-.62 1.76-1.24-1.2-.12-2.39.63-3.45 1.14z"/><path d="m145.23 28.62a24.81 24.81 0 0 0 -1.89 1.81c2.07-1 4.08-2.13 6.07-3.27.72-.41 3.92-1.87 3.73-3.06-2.86.66-5.71 2.64-7.91 4.52z"/><path d="m153.69 16.37a48.23 48.23 0 0 1 1 5.47c.06.37.25 2.49.79 2.61s0-2.55 0-2.94a18.8 18.8 0 0 0 -1.79-5.14z"/><path d="m153.52 26.05a18.94 18.94 0 0 0 -5.15 4.62c1.83-1.28 3.71-2.51 5.49-3.85.21-.15 1.47-1.17.89-1.48-.32-.17-.99.54-1.23.71z"/><path d="m157.77 26.45c-2.37.75-4.49 3.2-6 5.09q2.46-1.54 4.76-3.32a7.81 7.81 0 0 0 1.56-1.31c.38-.47.3-.66-.32-.46z"/><path d="m156.69 17.2c.25.89 1.27 9.23 2.34 9 .7-.17-.22-3.5-.37-4.05a19.78 19.78 0 0 0 -1.97-4.95z"/><path d="m159.77 27.37a9.71 9.71 0 0 0 -2.59 2.28 10.54 10.54 0 0 1 -2.1 2.27 37.51 37.51 0 0 0 4.1-2.74 3.24 3.24 0 0 0 1.17-1.4c.18-.63-.06-.67-.58-.41z"/><path d="m160.29 20.74a4.84 4.84 0 0 0 -.69-1.36 15 15 0 0 1 1.13 4c.08.46.42 3.8.88 3.7.74-.15.1-3.05 0-3.55a11.57 11.57 0 0 0 -1.61-3.74z"/><path d="m113.66 36.35h.57a93.46 93.46 0 0 0 -3.69-10.84 110 110 0 0 1 3.12 10.84z"/><path d="m110.25 23.43a33.22 33.22 0 0 0 -2.63-4.79c.85 1.29.95 3 1.41 4.41.56 1.75 1.3 3.43 2 5.13.12.29.37 1.25.74 1.34.57.14.4-.65.32-1a34.4 34.4 0 0 0 -1.84-5.09z"/><path d="m105.09 23a25.29 25.29 0 0 0 3.49 5.68c.35.41 3.28 3.55 3.93 2.86s-2.07-3.1-2.39-3.46a58.81 58.81 0 0 0 -5.03-5.08z"/><path d="m109.55 30.67a24.22 24.22 0 0 0 -4.42-3.58c.61.37.92 1.19 1.3 1.75a15.18 15.18 0 0 0 1.86 2.16 14.3 14.3 0 0 0 4.41 3.53c.13-1.46-2.26-2.97-3.15-3.86z"/><path d="m108.86 32.74a27 27 0 0 0 -3.16-2.14 11.3 11.3 0 0 1 -2.62-1.49 54.88 54.88 0 0 0 5.33 4.66c.91.71 1.85 1.38 2.82 2a2.61 2.61 0 0 0 1.78.58 34 34 0 0 0 -4.15-3.61z"/><path d="m112.73 30.13c0 .38-.12.89.22 1.17 1.08-.86 1.45-2.61 1.85-3.86a38.72 38.72 0 0 0 1.48-5.62c-.64 1.39-1.29 2.78-1.92 4.17a16.15 16.15 0 0 0 -1.63 4.14z"/><path d="m113.6 34.12a13.51 13.51 0 0 0 1.51-2.12c.52-.77 1-1.54 1.52-2.34a19.94 19.94 0 0 0 2.31-5 35.5 35.5 0 0 0 -3.65 4.8c-.82 1.24-2.12 3.04-1.69 4.66z"/><path d="m114.66 35.86c.47.07 1-.89 1.22-1.2.67-.85 1.34-1.69 2-2.59s1-1.64 1.52-2.49a19.42 19.42 0 0 1 1.22-2.58c-1.34 1.74-2.69 3.46-4 5.19-.29.39-3.04 3.51-1.96 3.67z"/><path d="m123 29.77c-2.22 2.25-4.78 4.16-6.83 6.58a4.17 4.17 0 0 0 1.17 0c.58-.2 1.25-1.24 1.66-1.7q2.06-2.35 4-4.88z"/><path d="m119.22 36.35c.82 0 1.12.1 1.7-.52 1-1.07 1.89-2.21 2.79-3.35-1.53 1.26-3.02 2.52-4.49 3.87z"/><path d="m123.72 36.35c.68 0 .82-.42 1.16-1-.38.34-.78.65-1.16 1z"/><path d="m104.72 34.7c.68.52 1.58 1.5 2.41 1.65a9.38 9.38 0 0 0 1.59 0 23.05 23.05 0 0 0 -5.31-2.63c.52.17.89.67 1.31.98z"/></g></g></g><path d="m137.11 33.63c.58-2.11-.73-4.05-1.62-5.88a18.84 18.84 0 0 1 -1.89 4.16c-.24.33-.73 1-1 .39s.48-1.26.73-1.62c.61-.88 1.73-2.68 1.29-3.75s-2-1.93-3-2.52a5.71 5.71 0 0 1 .23 3.95c-.14.57-.44 1.41-1.1 1.57-.89.23-.78-.62-.59-1.19.37-1.12 1.48-3 .84-4.22s-2.91-1.24-4-1.41c.77 1 1.67 2.56 1.3 3.92-.14.48-.59 1.08-1.09.57s-.21-1.21-.21-1.68c0-.87 0-2.13-.9-2.63a4.78 4.78 0 0 0 -1.92-.35 7.46 7.46 0 0 1 -2.2-.76c.71 1.88-1.15 3.64-1.26 5.49s2.8 2.06 4.14 2c.51 0 2.12-.18 2 .72-.11.74-1.5.95-2 1-1.84.14-3.24-.77-4.64-1.85a4.08 4.08 0 0 0 .7 2.72 2.53 2.53 0 0 0 1.4 1.31 8.19 8.19 0 0 0 2.32.08 11.07 11.07 0 0 1 2.37 0c1 .19.15.78-.37.92a9.91 9.91 0 0 1 -4.62-.22c.14.72.39 1.87 1.17 2.06a10.2 10.2 0 0 0 2.21 0 11.23 11.23 0 0 0 2.15-.29 2.2 2.2 0 0 1 1.08 0 2.53 2.53 0 0 1 .29.32h.33a9.67 9.67 0 0 0 1.94 0h2.5a5.54 5.54 0 0 0 1.35 0c.96-.37 1.83-1.92 2.07-2.81z" fill="#bfddbc"/><path d="m127.68 29.06a43.25 43.25 0 0 0 -4-4.39c1.57 2.09 3.16 4.17 4.72 6.28.75 1 1.48 2 2.17 3.1.31.49 1.09 2.5 1.74 2.3a56.42 56.42 0 0 0 -4.63-7.29z" fill="#9dbf9a"/><path d="m69.84 35.18c-.78.06-4.84-.38-4.11-2 .32-.68 1.69-.38 2.23-.29a8.8 8.8 0 0 0 2.71.21 4.76 4.76 0 0 0 2.55-.87c.52-.58.31-1.82.19-2.5-.29-1.76-1.49-3.63-.55-5.39a8.57 8.57 0 0 1 -2.59.6 6.53 6.53 0 0 0 -2.53.09c-1.15.43-1.4 2-1.54 3.05-.07.58 0 1.86-.7 2.13s-1-.59-1.06-1.15c-.08-1.69 1.09-3.22 2.2-4.37a20.42 20.42 0 0 0 -3 .26c-.75.12-1.68.17-2.08.9-.8 1.45.12 3.64.41 5.12.14.75.08 2-1 1.32a2.43 2.43 0 0 1 -1-1.88 7 7 0 0 1 .88-4.88 10.13 10.13 0 0 0 -3.85 2.47c-1 1.1.16 3.63.74 4.75.28.54 1.06 1.59.71 2.24s-.92-.2-1.14-.63a24 24 0 0 1 -1.6-5.36c-1.05 1.58-2.54 3.28-2.87 5.2-.07.41-.27 1.84.1 2.14h.33a7.86 7.86 0 0 0 1.68 0h15.88a7.91 7.91 0 0 0 1.82 0c.84-.21 1.34-2 1.26-2.81a9.83 9.83 0 0 1 -4.07 1.65z" fill="#bfddbc"/><path d="m70.41 27.12a61.36 61.36 0 0 0 -9.49 9.23 2 2 0 0 0 .6 0c.38-.16.89-1 1.17-1.28.83-.89 1.67-1.77 2.53-2.64z" fill="#9dbf9a"/><path d="m70 1.45c-.55 1.08-1.45 2.55-.82 3.75a4.39 4.39 0 0 0 2.33 1.86 13.73 13.73 0 0 1 .79-5.36c.15-.35.87-1.6 1.31-.84.15.26-.13.92-.18 1.18-.13.58-.27 1.15-.4 1.73a12.46 12.46 0 0 0 -.57 2.88 2.85 2.85 0 0 0 1.1 2.1 5.11 5.11 0 0 0 3.2 1.64c-1.02-2.08-1.76-4.13-.92-6.39.21-.56 1-2.21 1.87-1.71s.1 2.25-.07 2.9a6.66 6.66 0 0 0 -.06 3.2 3 3 0 0 0 .63 1.52 2.11 2.11 0 0 0 1.28.31c2.08.11 4.56-1.38 6.49-.15a8.74 8.74 0 0 1 -.4-2.63 6.54 6.54 0 0 0 .11-2.53c-.35-1.18-1.89-1.55-2.93-1.77-.56-.14-1.85-.14-2.07-.89s.67-1 1.23-1c1.69.06 3.13 1.34 4.19 2.53 0-.74 0-1.48 0-2.22 0-.26 0-1.34-.15-1.48s-.56 0-.69 0h-12.76a9.75 9.75 0 0 0 -1.43 0c-.68.14-.7.71-1.08 1.37z" fill="#a0e2ba"/><path d="m68.33 1c.09-.29.2-.58.31-.87h-3.33a7.46 7.46 0 0 0 2.14 4.18c.24-1.14.55-2.24.88-3.31z" fill="#a0e2ba"/><path d="m83.42 7.39a56.89 56.89 0 0 0 -3.32-4.7q-.87-1.08-1.83-2.1c-.48-.5-.58-.48-1.27-.48 2.19 2.41 4.3 4.89 6.42 7.28z" fill="#6fa983"/><path d="m148.31 2.33c.47.13 1.38.3 1.69.75s-.13.7-.69.67a5.49 5.49 0 0 1 -1.66-.59 9.51 9.51 0 0 0 -2-.61 7 7 0 0 0 -1.93-.17 2.11 2.11 0 0 0 -1.38 1.08 12.49 12.49 0 0 0 -1.51 3.3 6.92 6.92 0 0 1 4.54-1.24 2.58 2.58 0 0 1 2.15.8c.74 1.09-.56 1.18-1.31 1.09-1.45-.17-3.69-.9-5 0-.68.45-.65 1.37-.72 2.11a23.4 23.4 0 0 0 0 3c1.06-1.19 2.49-2.46 4.17-2.51.55 0 1.43.22 1.21 1s-1.49.74-2.05.86c-1 .22-2.56.58-2.9 1.75a6.26 6.26 0 0 0 .11 2.51 8.93 8.93 0 0 1 -.4 2.61c1.88-1.2 4.24.21 6.26.16a2.7 2.7 0 0 0 1.32-.24 2.32 2.32 0 0 0 .72-1.42 6.74 6.74 0 0 0 0-3.34c-.17-.68-.83-2.23-.14-2.81s1.65.93 1.87 1.48c.93 2.3.17 4.41-.86 6.51a4.93 4.93 0 0 0 3.07-1.52 3 3 0 0 0 1.2-2 11.58 11.58 0 0 0 -.56-3l-.51-1.56c-.07-.33-.33-.92-.23-1.26.26-.86 1.08.2 1.24.58a13.39 13.39 0 0 1 .85 5.47c1.08-.47 2.53-1.3 2.57-2.65 0-1.53-1.3-3-1.84-4.37-.19-.45-.58-1.37 0-1.67s1.38.48 1.68.94a14.81 14.81 0 0 1 1.62 5 8.57 8.57 0 0 0 2.36-6.82c-.16-1.36-1.54-2.17-2.6-2.89a7.35 7.35 0 0 0 -1.6-1 1.71 1.71 0 0 0 -1.48.16 1.77 1.77 0 0 0 -.53-1.1 4.29 4.29 0 0 0 -1.04-.39 20.27 20.27 0 0 0 -2-.52 19.38 19.38 0 0 0 -3.7-.37h-2.16c-1 0-1.53.69-2.32 1.3a45.8 45.8 0 0 1 4.49.92z" fill="#a0e2ba"/><path d="m145.49.11c3.35 0 6.57.05 9.74 1.34" fill="#a0e2ba"/><path d="m156.16 1.87.46.23" fill="#6fa983"/><path d="m149.37 8.13a51 51 0 0 0 -6.3 8c4.24-4.84 8.29-10.23 13.55-14-.49-.26-.53-.18-1 .17-.27.21-.54.42-.8.64-.63.52-1.24 1.07-1.84 1.62-1.22 1.13-2.42 2.35-3.61 3.57z" fill="#6fa983"/><path d="m36.64 3.37a4.05 4.05 0 0 1 1.55-3.37 7.38 7.38 0 0 0 -2.1 0c-.06 0-.2 0-.24 0s0 .93 0 1.11a5.46 5.46 0 0 0 .79 2.26z" fill="#d45b9c"/><path d="m39.62 3c.17.89.35 1.78.53 2.66.06.31.14 1.54.52 1.7a5.85 5.85 0 0 1 .25-2.39 8.53 8.53 0 0 1 1.21-2 7.9 7.9 0 0 1 .58-1 2.8 2.8 0 0 1 .74-.49c.34-.23.36-.22.23-.63a2.51 2.51 0 0 0 -.4-.82c-.19-.11-.74 0-1 0h-1.54c-.19 0-.88-.11-1 0s-.23.85-.25 1.06a6.1 6.1 0 0 0 .13 1.91z" fill="#d45b9c"/><path d="m41.72 1.37a5.89 5.89 0 0 0 1.4 2 2.35 2.35 0 0 0 2 .93 13.15 13.15 0 0 1 2.41-.46 5.31 5.31 0 0 1 2.29.76 4.32 4.32 0 0 0 -1.08-1.22c-.49-.49-1-1-1.51-1.44a8.94 8.94 0 0 0 -3-1.93 7.13 7.13 0 0 0 -1.6 0 2.15 2.15 0 0 0 -.63-.01c-.3.2-.37 1.05-.28 1.37z" fill="#d45b9c"/><path d="m45.23 2.5c-1.84-.5-2.56 1-1.82 2.53a17 17 0 0 0 2.59 3.8c-.46-1.44.37-2.52.82-3.81s-.33-2.18-1.59-2.52z" fill="#d45b9c"/><path d="m47.08 3.51c-1.55-1-2.15 2.33-1.27 3.23.51.53 1.43.39 2.08.71a6.17 6.17 0 0 1 1.8 1.55c-.23-1.87-.92-4.41-2.61-5.49z" fill="#d45b9c"/><path d="m48.55 7.39c.12-1.22-2-1.51-2.57-.63-.98 1.63 1.58 3.24 2.67 3.84-.65-1.15-.21-2.03-.1-3.21z" fill="#d45b9c"/><path d="m49 8.09c-.63-.73-1.52-.09-1.39.77s1.47 1.47 2 2.17a16.09 16.09 0 0 0 -.31-1.71c-.03-.4.01-.91-.3-1.23z" fill="#d45b9c"/><path d="m36.68 1.81a.24.24 0 0 1 -.35 0 5.86 5.86 0 0 0 .14 1.51 7 7 0 0 1 1.66-3.32c-1.13 0-.86 1.15-1.45 1.81z" fill="#fbd977"/><path d="m43.49.56c-.05 0-.57 1.31-.6 1.37-.2.34-.31.31-.51.57s-.31.52-.5.74c-.42.52-.91.67-1.22 1.31a3.85 3.85 0 0 0 -.15 2.45 4.83 4.83 0 0 1 1.79-3.65c.2-.17 2.04-2.63 1.19-2.79z" fill="#fbd977"/><path d="m48.66 3.81c-.92-.67-1.66-.41-2.66-.18a5.19 5.19 0 0 1 -1.42.14c-.13 0-.75-.17-.88-.06.58.84 1.87.37 2.65.25a5 5 0 0 1 3.34.79 6.76 6.76 0 0 0 -1.03-.94z" fill="#fbd977"/><path d="m46.77 4.26c-.1 0-.33.62-.36.74a5.05 5.05 0 0 1 -.52 1 3.43 3.43 0 0 0 .11 2.83 3.35 3.35 0 0 1 .4-2.83c.04 0 .76-1.79.37-1.74z" fill="#fbd977"/><path d="m48.54 7.66c-.23 0-.24-.23-.42-.33a2.8 2.8 0 0 0 -.9-.2 5.11 5.11 0 0 0 -.82-.2c-.25 0-.21.19-.45.32.42.41 1.47.4 2 .63a3 3 0 0 1 1.6 1.32c-.08-.35-.55-1.55-1.01-1.54z" fill="#fbd977"/><path d="m48.26 9.61c0-.36 0-.7 0-1s0-.84-.32-.34.22 2.17.59 2.61a2.64 2.64 0 0 1 -.27-1.27z" fill="#fbd977"/><path d="m48.84 9.61c0-.16-.6-.29-.38.14.07.12.41.26.53.37a5.2 5.2 0 0 1 .7.92 1.73 1.73 0 0 0 -.37-.84c-.14-.2-.49-.34-.48-.59z" fill="#fbd977"/><path d="m48.53 4.05c-.31-.07-.55-.25-.87-.3a4.63 4.63 0 0 0 -1.39.07 11.93 11.93 0 0 1 -1.19.24c-.33 0-.86-.21-1.17-.11.6.78 2.08.35 2.86.24a4.11 4.11 0 0 1 3 .79 2.9 2.9 0 0 0 -1.24-.93z" fill="#24a194"/><path d="m43.24 1.66c-.29.32-.33.87-.66 1.24a9.81 9.81 0 0 0 -1.2 1.37 4.08 4.08 0 0 0 -.7 3.44 6.45 6.45 0 0 1 1.39-4c.45-.53 1.09-.83 1.43-1.47.14-.27.5-1.21.12-1.48a2.15 2.15 0 0 1 -.38.9z" fill="#24a194"/><path d="m37.51.79c-.4.66-1.4 2-.92 2.85a9.46 9.46 0 0 1 1.91-3.64c-.5-.12-.76.41-.99.79z" fill="#24a194"/><path d="m46.78 5.15c-.23.73-.83 1.28-1 2a3.1 3.1 0 0 0 .2 2c-.43-1.66 1.13-3 .91-4.66-.12.12-.08.51-.11.66z" fill="#24a194"/><path d="m47.82 7.69c-.16-.06-1.59-.35-1.53-.19.16.39 1.27.39 1.55.46a3 3 0 0 1 1.81 1.31 3 3 0 0 0 -1.83-1.58z" fill="#24a194"/><path d="m48.47 8.82a.91.91 0 0 0 .05-.65c0-.1-.27-.2-.28-.27.08.39-.13.88-.06 1.32a3.3 3.3 0 0 0 .43 1.65c-.06-.11 0-.13.08-.07a3.29 3.29 0 0 1 -.22-1.98z" fill="#24a194"/><path d="m49.12 10.2c-.12-.15-.46-.57-.71-.39 0 0 1.19 1.18 1.28 1.28a5.59 5.59 0 0 0 -.57-.89z" fill="#24a194"/><path d="m84.65 35.8c1.43-.89.61-2.68 0-3.82a10.07 10.07 0 0 1 -1.68-4.59 14.57 14.57 0 0 0 -.91 4.61c0 1.39.28 3.15-.5 4.39h1.53a3.39 3.39 0 0 0 .78 0c.32-.13.47-.39.78-.59z" fill="#d45b9c"/><path d="m89.1 33.72a2.76 2.76 0 0 0 -2.53-.54 3.45 3.45 0 0 1 -1.24.38 2.33 2.33 0 0 0 -1.2.35c-.46.33-1.14 1.41-.71 2 .22.31.58.17.91.16a7.89 7.89 0 0 1 1.53.26 33.38 33.38 0 0 0 5.1 0 10 10 0 0 0 -1.86-2.61z" fill="#d45b9c"/><path d="m89.47 28.2c-.69-1.48-.39-2.48.11-3.94a11.33 11.33 0 0 0 -2.11 4.34 18.67 18.67 0 0 0 -.89 2.71 5.19 5.19 0 0 0 -.18 2.13c.24.54 1.17.52 1.72.54.81 0 1.23-.63 1.62-1.28a4.15 4.15 0 0 0 .62-2.11 5.31 5.31 0 0 0 -.89-2.39z" fill="#d45b9c"/><path d="m95 33.14c-.42-.75-1.19-1.07-1.45-1.93-.15-.5 0-.66-.61-.63-.39 0-.78.2-1.18.2a3.61 3.61 0 0 0 -1.92.38c-2.14 1.19 1.14 3.3 2.25 3.71a12.68 12.68 0 0 0 3.58.43c.49 0 2.56.5 2.94 0a5.07 5.07 0 0 1 -3.61-2.16z" fill="#d45b9c"/><path d="m98.3 25.47a7.54 7.54 0 0 0 -2.46 1.32 14.8 14.8 0 0 0 -2.4 1.76c-1 1-3.36 3-1.1 4 1.19.53 3.84-.81 4.31-2 .33-.86 0-1.85.23-2.76a5.46 5.46 0 0 1 1.42-2.32z" fill="#d45b9c"/><path d="m96.58 28.15c-1.63.24-3 3.2-.9 3.81a5.54 5.54 0 0 0 3-.42 17.92 17.92 0 0 0 2.84-1.14 4.07 4.07 0 0 1 -2.71-1.1c-.67-.52-1.31-1.3-2.23-1.15z" fill="#d45b9c"/><path d="m99.2 26.8c-.85.16-2.43.46-2.88 1.32s.62 1.76 1.36 2a2.29 2.29 0 0 0 1.53 0c.57-.24.66-.67.91-1.18a5.09 5.09 0 0 1 2.51-2.13 10.67 10.67 0 0 0 -3.43-.01z" fill="#d45b9c"/><path d="m102.14 28.19c-.72-.24-1.47-1.1-2.25-.6a1.93 1.93 0 0 0 -.71 1.77c.19 1 1.38 1 2.14.78a6.22 6.22 0 0 0 2.63-1.9 3.19 3.19 0 0 1 -1.81-.05z" fill="#d45b9c"/><path d="m101.56 27.19c-.86.42-.53 1.43.32 1.57 1 .17 1.92-1 2.77-1.41-.59-.12-1.19-.07-1.79-.14a2.49 2.49 0 0 0 -1.3-.02z" fill="#d45b9c"/><path d="m85.45 33.24a6 6 0 0 0 -.89-1.24c-.33-.5-.66-1-1-1.52a6.66 6.66 0 0 1 -.56-1.28c-.09-.28-.15-1.33-.35-1.52a7.12 7.12 0 0 0 -.45 2.17c.11.5 0 .18.33.25.08 0 .16-.09.29 0s.17.67.18.71c.26.84 3.62 4.26 1.64 5 1.52.13 1.11-1.72.81-2.57z" fill="#fbd977"/><path d="m90.15 35.1c-.46-.92-1.22-2-2.36-2 1 .21 1.32 1.23 1.8 1.95.21.31.42.66.63 1s.27.36.73.36a11 11 0 0 1 -.8-1.31z" fill="#fbd977"/><path d="m90.39 29.15c-.38-1-1.36-2.46-1-3.62 0-.11.72-1.13.15-1.06-.15 0-.55 1-.59 1.14a2.19 2.19 0 0 0 0 1.77c.13.25.34.41.45.66s.16.69.29 1c.4 1.06 1.2 2.81.3 3.83 1.2-.64.8-2.68.4-3.72z" fill="#fbd977"/><path d="m95.43 33.32c-.36-.39-.46-.93-.78-1.35a3.67 3.67 0 0 0 -1.34-1.2c-.17-.08-.71-.29-.68 0s.79.57.91.67a8 8 0 0 1 1.7 2.49 3.41 3.41 0 0 0 2.94 1.45c-1.18-.2-1.98-1.23-2.75-2.06z" fill="#fbd977"/><path d="m96.39 27.55a12.88 12.88 0 0 0 -.13 2.06c0 .26-.59 1.55-.48 1.76 1-.38.86-1.94 1-2.79a5.2 5.2 0 0 1 1.65-2.89 3.57 3.57 0 0 0 -2.04 1.86z" fill="#fbd977"/><path d="m97.82 28.52c-.06 0-.65-.26-.67-.09s.55.52.63.57a2.36 2.36 0 0 1 .77.64 3.47 3.47 0 0 0 2.93.81c-1.77.13-2.26-1.34-3.66-1.93z" fill="#fbd977"/><path d="m101 27.57c-.06.23-.29.18-.43.33a2.73 2.73 0 0 0 -.45.84 6.61 6.61 0 0 0 -.42.76c0 .26.14.26.21.54.46-.28.73-1.28 1.06-1.71a3.18 3.18 0 0 1 1.84-1.33c-.37 0-1.69.06-1.81.57z" fill="#fbd977"/><path d="m103.56 28.45a6.5 6.5 0 0 1 -1.64-.3c-.13 0-.76-.46-.65 0 .17.73 2.53.42 2.9.24a2.47 2.47 0 0 1 -.61.06z" fill="#fbd977"/><path d="m103.46 27.62c-.09.07-1.1.37-.54.62.13.06.44-.34.51-.39a5 5 0 0 1 1.24-.53 1.79 1.79 0 0 0 -1.21.3z" fill="#fbd977"/><g fill="#24a194"><path d="m97.41 26.62a8.88 8.88 0 0 0 -.53.78 4.8 4.8 0 0 0 -.3 1.4 10.49 10.49 0 0 1 -.08 1.25c-.06.33-.43.8-.42 1.13.91-.37.9-1.91 1-2.7a4.31 4.31 0 0 1 1.61-2.9 3 3 0 0 0 -1.28 1.04z"/><path d="m95.06 32.52a3.94 3.94 0 0 0 -1-1.51c-.24-.2-1-.66-1.31-.4a12.51 12.51 0 0 1 1.31.95 7.33 7.33 0 0 1 1.18 1.69 4.5 4.5 0 0 0 3.76 2.15 6.28 6.28 0 0 1 -3.94-2.88z"/><path d="m90.69 29.25c-.25-.89-.74-1.68-.92-2.6s.24-1.78 0-2.64c-1.53 2.47.86 4.95.88 7.5 0-.31.19-.59.2-.92a4.36 4.36 0 0 0 -.16-1.34z"/><path d="m90 34.23a4.25 4.25 0 0 0 -1.09-.78 7.24 7.24 0 0 1 1.4 1.77c.2.37.46 1.28 1 1.13-.54-.65-.8-1.51-1.31-2.12z"/><path d="m88.86 33.45a1.06 1.06 0 0 0 -.64-.35z"/><path d="m84.83 31.9a14.74 14.74 0 0 1 -1.4-2.4c-.34-.83-.22-1.81-.56-2.6a3.5 3.5 0 0 0 -.49 1.2 1.42 1.42 0 0 1 .21-.17 9.39 9.39 0 0 0 1.48 3.45c.54.72 1.5 1.83 1.56 2.75.5.09-.63-2.03-.8-2.23z"/><path d="m97.49 28.36c0 .13.53.28.65.37a9.45 9.45 0 0 1 1 1c.54.47 2 1.16 2.72.8-1.74-.04-2.69-1.97-4.37-2.17z"/><path d="m100.84 28.29c-.07.11-.85 1.39-.6 1.47s.47-.52.54-.65c.58-1.05.89-1.79 2.12-2.22a3.12 3.12 0 0 0 -2.06 1.4z"/><path d="m104.17 28.26a3.62 3.62 0 0 1 -1.76-.19c-.25-.1-.53-.38-.8-.37s-.34.24-.45.23c.36 0 .73.33 1.12.39a3.87 3.87 0 0 0 1.94 0c-.13.06-.15.03-.05-.06z"/><path d="m103.68 27.66c-.18.09-.68.31-.57.6 0 0 1.48-.86 1.61-.92a6.56 6.56 0 0 0 -1.04.32z"/><path d="m79.83 28.74c-1.57 1.42-3.23 3-3.85 5-.15.49-.54 2.24 0 2.57.22.15 1 0 1.3 0h1.62c.66 0 .63-.17.84-.91.57-2.17-.46-4.4.09-6.66z"/></g><g fill="#d45b9c"><path d="m152.11 35.83-.06.16.42-.11a.22.22 0 0 0 -.36-.05z"/><path d="m152.28 34.59a24.15 24.15 0 0 1 .6-2.93 13.05 13.05 0 0 0 0-3.42c-.48 2-2.28 3-3.1 4.73a1.74 1.74 0 0 0 .4 2.15c.17.22.41 1 .65 1.06s1.29-.21 1.61-.28a3.41 3.41 0 0 1 -.16-1.31z"/><path d="m150.11 33a4.2 4.2 0 0 1 -1-.36c-.39-.28-.39-.43-.92-.5a2.73 2.73 0 0 0 -2.17.66c-1.2 1-2 2.71-3.85 2.53 2.16 1.21 4.39.12 6.6-.22a3.82 3.82 0 0 1 1.39 0c.41.09.68.3.92-.15.37-.67-.31-1.69-.97-1.96z"/><path d="m149 29c-.24-1.54-.22-3.16-1.06-4.53a5.19 5.19 0 0 1 .09 2 4.24 4.24 0 0 1 -1.07 1.69 3.2 3.2 0 0 0 -.52 3.55c.24.58.39.91 1 1.05.32.08 1.2.25 1.47 0s.22-1.13.25-1.48a9 9 0 0 0 -.16-2.28z"/><path d="m145.37 29.52c-.14-.08-.12 0-.29 0a4.94 4.94 0 0 1 -.88-.33c-.62-.24-.52-.13-.8.38a6.78 6.78 0 0 1 -1.91 1.65 4.7 4.7 0 0 1 -3 .8c.25.52 2.2.48 2.66.55a7.48 7.48 0 0 0 3.67 0c.73-.25 2-.68 2.06-1.63s-.88-1.09-1.51-1.42z"/><path d="m142.9 26.08c-.63-.64-1.57-1.85-2.43-2.14a4.77 4.77 0 0 1 .53 3.86c-.23 1.35 1.13 2.26 2.18 2.83.86.46 2.32 0 2-1.16a8.93 8.93 0 0 0 -2.28-3.39z"/><path d="m141.42 26.46c-.78-.29-1.51.32-2.17.64a3.27 3.27 0 0 1 -2.29.36c1.1.88 3.16 2.54 4.66 2.31 1.69-.27 1.05-2.85-.2-3.31z"/><path d="m139.49 24.89a9.14 9.14 0 0 0 -2.83-.62 4.35 4.35 0 0 1 1.7 2.2c.27 1 .7 1.54 1.84 1.42.7-.07 1.7-.66 1.4-1.48s-1.43-1.24-2.11-1.52z"/><path d="m138.1 25.18c-1 .15-1.79.58-2.79.06.56.89 2.09 3.11 3.45 2.15.73-.52.41-2.39-.66-2.21z"/><path d="m136.39 24.58c-.5 0-1-.19-1.5-.19.67.48 1.46 2.05 2.47 1.57a.66.66 0 0 0 .41-.78c-.16-.59-.91-.54-1.38-.6z"/></g><path d="m153 28.65a9.46 9.46 0 0 1 -2.66 3.49c-.63.51-2 2.56-.34 2.75-1.5-1 1.88-3.24 2.24-3.86.15-.25.14-.53.41-.58s.14.26.36.18.15-1 .17-1.21.06-1-.11-.89z" fill="#fbd977"/><path d="m146.53 32.41a10.4 10.4 0 0 0 -1.78 1.73 5.84 5.84 0 0 1 -2.59 1.36 4.79 4.79 0 0 0 1.31.06c-.38-.27.76-.64.85-.7a5.89 5.89 0 0 0 1.15-1.07c.6-.56 1.46-1.69 2.36-1.69a1.93 1.93 0 0 0 -1.3.31z" fill="#fbd977"/><path d="m148.06 25.21c-.19-.69-.37-.64-.32.05a3.8 3.8 0 0 1 -.85 2.44c-.64.91-2 2.85-.8 3.85-.65-1.14.58-2.44 1.08-3.36.63-1.13 1.28-1.55.89-2.98z" fill="#fbd977"/><path d="m143.67 29.2c-1 .23-1.41 1-2 1.62a4.34 4.34 0 0 1 -2.81 1.34 3.5 3.5 0 0 0 2-.17c.64-.3.75-.76 1.23-1.2a9.67 9.67 0 0 1 1.1-.93c.05 0 1.17-.56 1.16-.59-.13-.19-.56-.09-.68-.07z" fill="#fbd977"/><path d="m141.68 26a3 3 0 0 0 -1.33-1.89 4.44 4.44 0 0 1 .85 2.77c-.06.7-.46 1.9.32 2.39.14-.17-.12-1.27-.09-1.54a10.31 10.31 0 0 0 .25-1.73z" fill="#fbd977"/><path d="m140.33 26.55c-1.26.25-1.92 1.37-3.37.95a2.94 2.94 0 0 0 2.54-.13 3.87 3.87 0 0 1 .65-.36c.09 0 .74-.31.75-.42s-.5-.05-.57-.04z" fill="#fbd977"/><path d="m138.37 26.2a2.35 2.35 0 0 0 -1.89-1.82 2.56 2.56 0 0 1 1.22 1.33c.22.44.29 1.4.64 1.73.1-.22.23-.19.26-.41s-.21-.62-.23-.83z" fill="#fbd977"/><path d="m137.17 25.44a2.91 2.91 0 0 1 -2.07-.1 3.06 3.06 0 0 0 1.7.48c.12 0 .6 0 .69-.11s-.09-.37-.32-.27z" fill="#fbd977"/><path d="m136.21 25c-.47-.19-.77-.62-1.33-.67a4.85 4.85 0 0 1 .71.47s.4.48.42.48.18.27.27 0c.02 0 0-.22-.07-.28z" fill="#fbd977"/><g fill="#24a194"><path d="m141.17 25.37a5.17 5.17 0 0 0 -1-1.4 3.59 3.59 0 0 1 .82 2.62c-.05.69-.37 2 .34 2.47.06-.23-.14-.62-.15-.86a4.53 4.53 0 0 1 .12-1 2.92 2.92 0 0 0 -.13-1.83z"/><path d="m143.38 29.11c-1 .23-1.33 1.24-2.08 1.81a5.8 5.8 0 0 1 -3.13 1.08 3.82 3.82 0 0 0 3.43-1.13 6.82 6.82 0 0 1 1.27-1.19 9.88 9.88 0 0 1 1.25-.55c-.12-.13-.54-.06-.74-.02z"/><path d="m147.83 24.73a1.52 1.52 0 0 0 -.09-.51c-.26.58-.09 1.26-.28 1.86a5 5 0 0 1 -.81 1.45 6.7 6.7 0 0 0 -.77 1.32 5.92 5.92 0 0 0 -.19 1.43 10.37 10.37 0 0 1 1.6-3.12 3.75 3.75 0 0 0 .54-2.43z"/><path d="m145.84 32.66c-.67.47-1.06 1.25-1.75 1.73a14.13 14.13 0 0 1 -2.19 1c.83.42 2.17-.7 2.75-1.18a18.73 18.73 0 0 1 2.23-2 3.45 3.45 0 0 0 -1.04.45z"/><path d="m146.88 32.21.59-.18a.86.86 0 0 0 -.59.18z"/><path d="m152.75 28.47a6.28 6.28 0 0 1 -1.75 2.64c-.39.38-.78.76-1.14 1.17 0 0-.86 1-.46 1.06.2-.74 1.14-1.44 1.69-1.94a8.28 8.28 0 0 0 1.91-2.66.52.52 0 0 1 .15.18 3.11 3.11 0 0 0 -.19-1.08 1.87 1.87 0 0 0 -.21.63z"/><path d="m136.62 27.47a2.8 2.8 0 0 0 2.09 0c.42-.16.73-.51 1.13-.7.07 0 .77-.2.79-.28-1.42-.14-2.55 1.29-4.01.98z"/><path d="m137.88 25.83a2.63 2.63 0 0 0 -1.46-1.52 2.72 2.72 0 0 1 1.28 1.83c.06.24.13.92.41 1s-.21-1.24-.23-1.31z"/><path d="m137.5 25.27c-.26-.19-.71.08-1 .12a3.12 3.12 0 0 1 -1.39-.17c.06.09 0 .11-.06.07a2.63 2.63 0 0 0 1.3.28c.43 0 .92-.15 1.3-.1-.04-.06-.09-.13-.15-.2z"/><path d="m135.63 24.81a5.67 5.67 0 0 0 -.8-.45c.09.07 1.14 1.09 1.17 1.05.14-.22-.24-.5-.37-.6z"/><path d="m155.18 29.9c.06 1.91-1.14 3.6-1.06 5.52a18.55 18.55 0 0 0 2-.79c.26-.12.52-.26.78-.4.49-.25.49-.26.32-.8a12.54 12.54 0 0 0 -2.04-3.53z"/></g></svg>