<svg xmlns="http://www.w3.org/2000/svg" viewBox="0 0 524.41 269.29"><defs><style>.a{fill:#fdd032;}.b{opacity:0.36;}.c{fill:#fff;}.d{fill:#dd3b4a;}.e{fill:#08507a;}.f{fill:#fdf6d9;}.g{fill:#86b8c3;}.h{fill:#609aa2;}.i{fill:#e4e8e8;}.j{fill:#242020;}.k{fill:#9f2d3c;}.l{fill:#9ac6d1;}.m{fill:#c12339;}.n{fill:#222021;}.o{fill:#1b1c1c;}.p{fill:none;}</style></defs><title>troscolrect_comics</title><path class="a" d="M402.19,188.46a3.27,3.27,0,0,0-1.1-2.37,7.79,7.79,0,0,0-1.64-.86,34.74,34.74,0,0,1-4.77-3,36.16,36.16,0,0,1-3.66-3.69,7.45,7.45,0,0,0-1.22-1.41,3.3,3.3,0,0,0-2.55-.55c-2.85.38-5.4,1.29-7,3.05-2,2.15-2.41,5.44-2,8.95s1.33,7.39,1.49,12.67c1.18-1.61,1.22-1.57,0,0,5.19-1,9.19-1,12.71-1.36s6.65-1.54,8.32-3.92C402.13,194,402.45,191.31,402.19,188.46Z"/><g class="b"><path class="c" d="M399.21,185.2a6.32,6.32,0,0,1-1.31,4.28c-1,1.05-2.2,1.44-4.14,1.5s-3.43-.07-6,.2c-.35-2.89-1.5-6.44-1.18-9a4.17,4.17,0,0,1,.52-1.77,3.42,3.42,0,0,1,1.53-1.16,7.94,7.94,0,0,1,2.12-.55c0-.13.12-.08.34.05a3.35,3.35,0,0,1,.58.49A39.81,39.81,0,0,0,399.21,185.2Z"/></g><g class="b"><path class="c" d="M401,186.05c-.39,2.66-1.08,5.22-2.75,7s-3.58,2.68-6.51,3.13-5.15.51-9,1.4c0-4.54-1.1-10-.16-14.05a8.59,8.59,0,0,1,1.12-2.9,6.94,6.94,0,0,1,2.51-2.12,14.06,14.06,0,0,1,3.29-1.27c.07-.21.2-.15.5,0a3.38,3.38,0,0,1,.78.68A43.52,43.52,0,0,0,401,186.05Z"/></g><path class="d" d="M422.28,189.19c-2.49,5.65-7,10-11.37,14.25-.77-4.28,2-8.09.65-12.34A9.45,9.45,0,0,0,403.7,185a60.42,60.42,0,0,1,13.12-11.82c.92-.61,2.59-2.27,3.8-2.33s1.68,1.45,2.14,2.63a19.64,19.64,0,0,1,1.32,7.72A21.17,21.17,0,0,1,422.28,189.19Z"/><path class="e" d="M410.78,203.52a5.45,5.45,0,0,0,2.51-1.3,30.69,30.69,0,0,0,5.87-5.68,14.07,14.07,0,0,0,2.92-7.65,19.18,19.18,0,0,0-11.88,13.3,1.14,1.14,0,0,0,.09,1C410.53,203.54,410.86,203.88,410.78,203.52Z"/><path class="f" d="M402.88,185.36c-.72.61-1.42,1.58-2.45,1.63a7.26,7.26,0,0,1-3.15-.79,17.91,17.91,0,0,1-7.18-6.06,4.07,4.07,0,0,1-.72-1.5,3.32,3.32,0,0,1,.31-1.77l.48-1.25a24.14,24.14,0,0,1,11,7.3A9.84,9.84,0,0,1,402.88,185.36Z"/><path class="g" d="M389.44,173.62s5.81-15,8.92-20.6S414,130.28,431.79,122.4l10.61,7.93s-2.3,13.78-8.76,25.18-12.44,16.83-12.44,16.83l-15.6,12.82S396.2,185,389.44,173.62Z"/><path class="d" d="M380.65,156.85c-4.61,4.06-7.41,9.67-10.13,15.18,4.26-.51,7.05-4.31,11.46-4.24a9.42,9.42,0,0,1,8.06,5.83,61.29,61.29,0,0,0,7.34-16.16c.31-1.07,1.39-3.18,1.09-4.36s-1.86-1.21-3.11-1.31a19.33,19.33,0,0,0-7.68,1A20.78,20.78,0,0,0,380.65,156.85Z"/><path class="e" d="M442.4,130.33a27.44,27.44,0,0,0,1-12,42.58,42.58,0,0,0-11.56,4,20.57,20.57,0,0,0,3.69,4.55A14.64,14.64,0,0,0,442.4,130.33Z"/><path class="e" d="M370.47,172.17a5.56,5.56,0,0,1,.5-2.8,30.87,30.87,0,0,1,3.65-7.34A14,14,0,0,1,381,157a19.31,19.31,0,0,1-9.09,15.4,1.11,1.11,0,0,1-1,.21C370.53,172.42,370.11,172.2,370.47,172.17Z"/><path class="h" d="M428.81,163.72c-1.85,1.28-4.18,1.14-6.19.64A25.44,25.44,0,0,1,412.4,159a50.46,50.46,0,0,1-7.8-8.57,6.55,6.55,0,0,1-1.3-2.39,2.87,2.87,0,0,1,.72-2.7,1.08,1.08,0,0,0-1.23.5,3.39,3.39,0,0,0-.48,1.61c-.18,2.13,1,3.87,2.17,5.48a35.05,35.05,0,0,0,4.08,4.36c3.56,3.4,7.47,6.59,12.18,8.17a13.46,13.46,0,0,0,4.64.83,4.63,4.63,0,0,0,2.28-.55A2.47,2.47,0,0,0,428.81,163.72Z"/><path class="h" d="M405.94,184.58c-.25.71-1.22.81-2.05.72a14.48,14.48,0,0,1-5.95-2.25,33.45,33.45,0,0,1-5.11-4.09,12.91,12.91,0,0,1-2.69-3.2,3.41,3.41,0,0,1-.1-3.57c1,3.24,3.67,6.24,6.51,8.55a22.42,22.42,0,0,0,4.48,2.93A9.19,9.19,0,0,0,405.94,184.58Z"/><path class="h" d="M393.83,179.16a184.63,184.63,0,0,1,12.94-14.6,1.06,1.06,0,0,1,.68.44c-3.82,5.42-7.35,11.07-10.92,16.68-.09-.14-.51-.09-.64,0a.69.69,0,0,0-.29.27c-.31.43-1.8,1.45-2.11,1.88.09-1.29,1-3.28.27-4.54C393.82,179.22,393.79,179.21,393.83,179.16Z"/><path class="d" d="M383.92,192.74a5.5,5.5,0,0,1,.69-2.74,31,31,0,0,1,4.18-7,23.41,23.41,0,0,1,6.46-5.59c-.77,6.34-4.35,12.68-9.9,15.61a1.18,1.18,0,0,1-1,.14C384,193,383.55,192.74,383.92,192.74Z"/><path class="c" d="M415.86,145.26a9.86,9.86,0,0,1-.82-2.13,7.11,7.11,0,0,1,.72-4.41c1.1-2.42,3-4.68,5.74-5.12a8.35,8.35,0,0,1,2.12,0,13.33,13.33,0,0,1,9.32,5.1,6.55,6.55,0,0,1,.89,1.56,6.21,6.21,0,0,1,.36,2.25,10.09,10.09,0,0,1-7.93,9.89,4.79,4.79,0,0,1-2,.11,6.59,6.59,0,0,1-1.77-.72c-1.36-.7-3.08-1.32-4.14-2.46A15.93,15.93,0,0,1,415.86,145.26Z"/><path class="i" d="M425.89,136.85c-2-.6-4.35-.55-5.84.78a6.31,6.31,0,0,0-1.47,2.28,8.19,8.19,0,0,0-.67,2.89,6.78,6.78,0,0,0,4.32,6.14,6.58,6.58,0,0,0,7.13-1.64,6.82,6.82,0,0,0,1.4-6.07C430.25,139.06,428,137.48,425.89,136.85Z"/><path class="i" d="M210.3,268.66c-3.18.21-7.24.95-10.78,1-7.65.21-15.27-.4-22.93-.21-8.74.22-17.69.46-26.41-.13-3.82-.26-7.67-.5-11.49-.68-1.76-.08-4.91.67-6.52-.13,1.89-1.89,4.13-3.64,6.07-5.55,3.76-3.7,8-7.3,13-9.28,3.69-1.47,8.08-1.95,11.66.13,2.86,1.66,4.9,5,7.22,7.29,1.12,1.12,2.19,2.1,3.73,1.52,2.43-.91,3.9-3.36,6.59-3.92,2.35-.49,4,.56,4.91,2.7.33.76.39,2.09,1.06,2.53,1.76-2.37,4.82-5.22,8.06-4.43,2.15.53,4.47,2.31,6.09,3.77a15.86,15.86,0,0,0,5.4,3.5c2,.63,4.17.21,6.13.87C211.76,268.43,210,268.37,210.3,268.66Z"/><path class="e" d="M107.89,91.07a3.72,3.72,0,0,0,.66.46c-2.72-2.56-6.63-4.61-8.69-7.88a.68.68,0,0,1,.37-1c2.07-.57,6.06.8,7.71,1.22,2.12.53,5.11,1.81,7.41,1.23a.73.73,0,0,0,.57-.78C115.4,80.59,113,76.6,112,73c-.26-.92-1.84-5.34-1-6.24.75-.75,3.46.37,4.25.7,3.26,1.33,5.73,3.85,8.41,6,4.28,3.47,4,0,5.43-3.94,1.58-4.55,3.28-9.11,5-13.59.7-1.77,1.21-4.25,2.27-6a.72.72,0,0,1,1.27.07,57.06,57.06,0,0,1,3.6,8.88c.69,2.58,1.11,9.51,3.84,10.76,1.14.52,3.2,0,4.31-.17,3-.43,6-1.21,9-1.92,1.92-.45,6.88-2.09,9.34-1.23a.7.7,0,0,1,.38,1c-1.32,2.51-3.47,5-4.92,7.33-2,3.21-4.42,6.3-6.19,9.63a.7.7,0,0,0,.14.84c2.44,2.37,4.83,4.78,7.31,7.12,2.78,2.62,6.07,5,8.57,7.88a.72.72,0,0,1-.36,1.15,18.73,18.73,0,0,1-2.69.35,55.8,55.8,0,0,1-9.82.75c-3.12-.13-7.76-2.31-10.95-1.4a.69.69,0,0,0-.47.8c.8,3.81,4,8.27,3.58,12.26a.73.73,0,0,1-.92.64c-2.09-.58-4.21-2.15-5.92-3.23-1.92-1.22-3.71-2.67-5.61-3.88-.55-.35-.84-.73-1.49-.75-.13,2.32-1.57,4.62-2.35,6.78-.87,2.42-1.87,4.78-2.77,7.18a19.56,19.56,0,0,1-.86,2.38.71.71,0,0,1-1.24,0c-1.95-3.64-2.83-8.25-3.74-12.17-.39-1.68-.14-5.29-2.14-5.47-2.21-.19-6.62,4.52-8,5.77-1.8,1.66-4,5-6.35,6.26a.7.7,0,0,1-1-.69c.23-2.11,1.49-4.75,2-6.48.88-2.79,1.55-5.69,2.5-8.46a.69.69,0,0,0-.7-.93c-3.18.18-6.34.12-9.58.53-3.39.42-7.37,1.33-11.06,1.34a.71.71,0,0,1-.28-1.36c2.94-1.34,5.87-3.69,8.25-5.23A36,36,0,0,0,107.89,91.07Z"/><path class="a" d="M120.91,82.28c-2.64-1.77-6.54-1.22-9.22.21a30.46,30.46,0,0,0-3,2.42c.86,2.72,2.07,5.47,3.09,8.16a84.52,84.52,0,0,0,3.8,8.47,4.45,4.45,0,0,1,.52,1.12,10.61,10.61,0,0,1,1.54-.19c.42-.09,2.23-.52,2.43-.92s-.65-1.87-.81-2.26a23.16,23.16,0,0,1-1.45-3.6A10.56,10.56,0,0,0,122.66,92,6.54,6.54,0,0,0,120.91,82.28Zm-1.56,7.19c-.59,1-2.38,2.39-3.38,2,0,.09.06.14-.08.18a33.68,33.68,0,0,1-2.13-5.62c1.65-.67,4.2-.56,5.39.9A2,2,0,0,1,119.35,89.47Z"/><path class="a" d="M135.15,82.61c-1.16-1.4-3.5-3.25-5.62-2.57-1.65.54-2.82,2.77-3.33,4.19-1.08,3,.1,7.06,1.64,9.62.66,1.1,1.88,3,3,3.57h0a3.78,3.78,0,0,0,5.55-1.86C138.19,91.68,137.8,85.82,135.15,82.61Zm-2.85,9.72c-3.09-.17-3.24-6.88-1.83-6.64,1.59-.2,2.53.4,3.19,2C134.21,89.08,134.52,92.45,132.3,92.33Z"/><path class="a" d="M143.67,93.3a5.1,5.1,0,0,0-.62-2c-1.24-3-2.49-6-3.59-9.06-.5-1.38-1-2.75-1.35-4.16-.07-.26-.4-.94-.32-1.19.13-.4.65-.52,1-.7s1.86-1.21,2.23-1.08.91,2.11,1.14,2.64c.83,2,1.39,4,2.17,6A4.44,4.44,0,0,0,145,85a54.8,54.8,0,0,1,.12-6.14c.46,0,1.1-.4,1.53-.22s1.34,1.91,1.53,2.22c.4.66.73,1.36,1.09,2a16.37,16.37,0,0,0-.59-2.34c-.37-1.44-.71-2.88-1.07-4.33a4.25,4.25,0,0,1-.33-1.28c.2-.77,2.28-1.72,3-2a10.87,10.87,0,0,1,1,2.93c.73,2.86,1.21,5.77,1.86,8.64.25,1.09.5,2.18.81,3.25a5.86,5.86,0,0,1,.45,1.52c-.11.67,0,.47-.55.85-.68.49-2.29,1.17-3,.7-1-.69-1.48-2.75-2-3.75-.4-.73-.8-1.47-1.25-2.16.16.94.21,1.92.28,2.88s.07,1.93.14,2.9c0,.26.2.84.08,1.09s-.41.33-.89.44C146.58,92.39,144.49,93.19,143.67,93.3Z"/><path class="a" d="M157.42,82.3c-.1.06-.89-3.38-1-3.91a50.67,50.67,0,0,1-1.09-6A16.74,16.74,0,0,1,159.05,71a44.43,44.43,0,0,0,.85,7.15c.21,1.49.57,3,.71,4.47A3.13,3.13,0,0,1,157.42,82.3Z"/><path class="a" d="M160.62,85.85a1.39,1.39,0,0,0-1.84.06c-1.32,1.13-.34,2.58,1,3,3,.94,2.43-3.82-.49-3.29"/><path class="d" d="M461.16,235.91c-.34-1.93-2.36-3.77-4-4.68-3.3-1.86-7.23-2.29-10.75-3.57a22.55,22.55,0,0,1-9.61-6.35,11.5,11.5,0,0,1-2.05-3.49c-.17-.44-.32-1-.68-1.26-1.95,3.86-2.51,8.35-3,12.6-.88,7.45-.68,18.11,5.81,23.28a13.76,13.76,0,0,0,8.59,2.54c5.15,0,5.24-.41,7.36.42,1.75.69,2.44,2,3.57,3.32a2.88,2.88,0,0,0,1.85,1.22,24.62,24.62,0,0,0,.55-5.29c.28-3.23,1.12-6.41,1.72-9.59C461.06,242.24,462.42,238.54,461.16,235.91Z"/><path class="e" d="M454,250.68a40.26,40.26,0,0,1,.23-4.23,15,15,0,0,0-.78-5.11c-1-2.84-3-4.38-5.72-5.45a32.77,32.77,0,0,1-7.07-3.24,27.16,27.16,0,0,1-4.83-4.37,19.34,19.34,0,0,0-.65,8.25,13.11,13.11,0,0,0,1.08,4.38,12.71,12.71,0,0,0,4.86,5c3.06,1.62,6.35,1.45,9.47,2.81a12.6,12.6,0,0,1,3,2.3C453.84,250.88,453.88,250.6,454,250.68Z"/><path class="c" d="M452.08,246.94a5.85,5.85,0,0,0-.22-2.15,9.31,9.31,0,0,0-1.27-3.33,7,7,0,0,0-3.75-3.28c-3.48-1.22-7.26-1.48-9.63-4.71a10.84,10.84,0,0,0,6.87,10.91c2,.82,4.17.8,6.19,1.51C450.86,246.1,451.73,247.05,452.08,246.94Z"/><path class="d" d="M466.37,237.84c1.1-1.62,3.7-2.48,5.56-2.65,3.77-.36,7.54.85,11.27,1.11a22.52,22.52,0,0,0,11.36-1.89,11.35,11.35,0,0,0,3.3-2.35c.33-.32.7-.8,1.13-.87.21,4.32-1.11,8.65-2.38,12.74-2.23,7.16-6.76,16.81-14.79,18.89a13.69,13.69,0,0,1-8.87-1.18c-4.73-2.05-4.62-2.5-6.9-2.61-1.88-.08-3,.81-4.61,1.58a2.88,2.88,0,0,1-2.19.36,25.93,25.93,0,0,1,1.65-5.05c1.06-3.07,1.59-6.32,2.34-9.47C463.89,243.67,464.15,239.73,466.37,237.84Z"/><path class="e" d="M465.82,253.77c.68-1.18.94-2.7,1.5-4a15.18,15.18,0,0,1,2.79-4.35c2.06-2.2,4.5-2.8,7.45-2.65a32.65,32.65,0,0,0,7.78-.09,27.19,27.19,0,0,0,6.19-2,19.46,19.46,0,0,1-2.76,7.8,13.26,13.26,0,0,1-2.78,3.56,12.7,12.7,0,0,1-6.48,2.59c-3.45.24-6.38-1.26-9.79-1.29a12.53,12.53,0,0,0-3.65.9C465.91,254,466,253.76,465.82,253.77Z"/><path class="c" d="M469.12,251.16a5.72,5.72,0,0,1,1.08-1.88,9.3,9.3,0,0,1,2.51-2.53,7,7,0,0,1,4.76-1.47c3.67.3,7.23,1.6,10.71-.38a10.82,10.82,0,0,1-10.71,7.17c-2.16-.06-4.14-1-6.27-1.14C470.57,250.88,469.39,251.4,469.12,251.16Z"/><path class="e" d="M457.94,260.71a14.88,14.88,0,0,0,.15-3.53c.05-3.06.38-6.15.65-9.2a103,103,0,0,1,2.05-13.69,11.3,11.3,0,0,1,5,.79c.43.17,1.5.39,1.66.86s-.62,1.95-.74,2.31a140.9,140.9,0,0,0-4.42,14.22c-.64,2.87-1.32,5.8-2.09,8.63a11.19,11.19,0,0,1-2-.56C458.21,260.34,458.19,260.14,457.94,260.71Z"/><path class="d" d="M261.26,84.91c1.85-2.91,2.93-6.33,4.75-9.29.73-1.19,1.38-2.48,2.15-3.64,1.2,2.08,1.31,4.41,1.64,6.73.26,1.85.66,3.66.8,5.54a4.87,4.87,0,0,0,.17,1.66c.44.77,2.22,1.13,3.09,1.37,2.36.64,4.74,1.25,7.12,1.77,1.41.31,2.09.68.82,1.74-2.65,2.21-6.07,3.42-9.14,4.92-.46.23-1.63.63-1.76,1.22a7.42,7.42,0,0,0,.62,2.25c.5,1.84,1.11,3.65,1.46,5.54a9.39,9.39,0,0,1,.42,2.81c-1.94-.26-4.2-2.6-5.38-4a28.91,28.91,0,0,0-2.87-3.19,1.8,1.8,0,0,0-.85-.54c-.57-.09-1.18.43-1.63.69-1.62.91-3.17,1.85-4.85,2.64a49.43,49.43,0,0,1-5.07,2.2c-.5.17-1.54.61-2.05.38,0-.92.86-2,1.3-2.75.75-1.22,1.46-2.47,2.21-3.7.6-1,1.75-2.21,2-3.37.16-.71-.29-1.08-.72-1.69-1.43-2-3.22-3.82-4.68-5.86-.4-.56-2.34-2.52-1.8-3.42.15-.24,1-.31,1.17-.36a10.67,10.67,0,0,1,3.17-.42C256,84.21,258.66,84.92,261.26,84.91Z"/><path class="j" d="M246,91.74H246a15.45,15.45,0,0,1-1.72-.44l-1-.26a.49.49,0,0,1,.24-1l1,.28a14.79,14.79,0,0,0,1.62.41.49.49,0,0,1-.09,1Z"/><path class="j" d="M252.41,78.36a.47.47,0,0,1-.35-.14,12,12,0,0,1-.78-.93,5.92,5.92,0,0,0-1.35-1.38.49.49,0,0,1,.52-.84,6.8,6.8,0,0,1,1.6,1.61,10.63,10.63,0,0,0,.71.85.49.49,0,0,1,0,.69A.47.47,0,0,1,252.41,78.36Z"/><path class="j" d="M259.21,73.47a.49.49,0,0,1-.41-.21,7.26,7.26,0,0,1-.5-1,8.44,8.44,0,0,0-.64-1.25.49.49,0,0,1-.36-.42.5.5,0,0,1,.44-.54c.6-.07.95.68,1.45,1.81a7.42,7.42,0,0,0,.42.85.49.49,0,0,1-.12.68A.51.51,0,0,1,259.21,73.47Z"/><path class="j" d="M274.27,76.32a.47.47,0,0,1-.28-.09.5.5,0,0,1-.11-.69,7,7,0,0,1,1-1.08,8.33,8.33,0,0,0,.88-.91.48.48,0,0,1,.68-.1.49.49,0,0,1,.1.69,8.91,8.91,0,0,1-1,1,6.08,6.08,0,0,0-.9.94A.48.48,0,0,1,274.27,76.32Z"/><path class="j" d="M279,82.06a.89.89,0,0,1-.85-.41.49.49,0,0,1,.17-.67.48.48,0,0,1,.62.1,5.44,5.44,0,0,0,1.33-.29,5.1,5.1,0,0,1,.92-.23.49.49,0,0,1,.11,1,6.76,6.76,0,0,0-.75.2A6.08,6.08,0,0,1,279,82.06Zm0-.91Z"/><path class="j" d="M279.43,105h-.06c-.46-.06-.76-.5-1-.89a4.15,4.15,0,0,0-.28-.36,6,6,0,0,0-1.41-1.12.49.49,0,0,1-.2-.67.5.5,0,0,1,.67-.19,7,7,0,0,1,1.65,1.3,3.19,3.19,0,0,1,.37.48,2.73,2.73,0,0,0,.39.48.48.48,0,0,1,.41.54A.51.51,0,0,1,279.43,105Z"/><path class="j" d="M284,99a.5.5,0,0,1-.43-.25,5.28,5.28,0,0,0-2.33-.85.48.48,0,0,1-.53-.44.47.47,0,0,1,.43-.53c.54-.07,2.85.52,3.29,1.35a.5.5,0,0,1-.19.67A.52.52,0,0,1,284,99Z"/><path class="j" d="M244.16,100.59a1.72,1.72,0,0,1-.6-.1.49.49,0,0,1-.3-.63.48.48,0,0,1,.63-.29c.55.19,1.49-.34,2.17-.73.23-.12.43-.24.62-.33a.49.49,0,0,1,.43.88l-.56.31A5.41,5.41,0,0,1,244.16,100.59Z"/><path class="j" d="M257.56,112.25a.54.54,0,0,1-.21,0,.5.5,0,0,1-.24-.65c.19-.39.41-.78.64-1.17a8.92,8.92,0,0,0,.85-1.73.48.48,0,0,1,.61-.33.5.5,0,0,1,.33.61,9.14,9.14,0,0,1-.94,1.94c-.21.37-.43.73-.6,1.09A.49.49,0,0,1,257.56,112.25Z"/><path class="j" d="M267.52,111.05h-.06a.49.49,0,0,1-.42-.55,5.2,5.2,0,0,0-.72-1.71c-.09-.17-.18-.32-.24-.45a.49.49,0,1,1,.87-.44c.06.12.14.26.23.42a4.54,4.54,0,0,1,.83,2.31A.49.49,0,0,1,267.52,111.05Z"/><path class="d" d="M463.56,9.73C467,6.91,469,2.54,472.21-.45c1.83,3,2.67,6.78,3.65,10.07,4-2,6.76-6.36,10.66-8.39.59,1.45,1.1,3.17,1.55,4.72a19.91,19.91,0,0,1,.85,3.82c.07.87-.41,2.35.24,3.09,1.66,1.93,8.78-4.24,11.63-4.61.1,3,1.34,7.16,1.78,10.44,3.93,0,8.16-2,12-2.79-.26,3.91-1.28,7.68-2,11.54a29.46,29.46,0,0,1,8.47,2.73c2.78,1.6.39,3.75-1.23,5.94-.61.82-2.94,3-3,4.1,0,.71.36.51.71,1.11,1.57,2.71,5.64,3.57,7,6.6-1.55.91-5.68.19-6.76,1.4-1.31,1.46,1.94,5.91,2,7.58.08,2.21-.68,2.44-2.83,1.55a34.54,34.54,0,0,1-8.09-4.53,109,109,0,0,1-6.18,11,88.5,88.5,0,0,1-6.83-7.44c-1.59,1.14-2.79,3.68-4.12,5.21-.53.6-2.41,3.7-3.42,3.71-1.27,0-4-5.25-4.57-6.15a25.58,25.58,0,0,1-2.05-4.8,34.13,34.13,0,0,1-10.12,8.56c-1.07-1.44-.54-5.35-.84-7.2-.19-1.13.07-4.46-1.26-4.91-.4-.13-1.24.43-1.58.51-1.94.45-3.79,1.09-5.69,1.64a17.36,17.36,0,0,1-6.53.8c0-3.23,2.26-6.74,1.82-9.92-.35-2.51-2-1.4-4.47-1.1-1.51.18-9,1.57-9.27-.68s4.38-5.82,5.15-8.22c-3.79-1.95-9.59-3.16-12.45-6.27,3.57-.89,6.6-3.05,10.2-3.9-.46-1.36-2.36-2.72-3.25-3.85-1.66-2.08-4.08-4.39-4.62-7,2.12.14,4.55,1.23,6.64,1.78,1.15.3,5.54,2.11,6.66,1.25s1.21-5.51,1.43-6.66c.54-2.9.66-6.05,1.61-8.82,1.64,1.86,3.43,3.69,5.05,5.59A19.25,19.25,0,0,0,463.56,9.73Z"/><path class="c" d="M477.47,41.24c.27-1,.37-2.06.58-3.08.67-3.23,1.32-6.47,2.21-9.65.26-1,.53-1.89.85-2.82.15-.41.36-1.37.73-1.67s1-.16,1.48-.15,1.09-.05,1.35.53a24.09,24.09,0,0,1,1,3.55c.63,2.3,1.07,4.64,1.51,7a24.5,24.5,0,0,0,.84,3.68c.09.24.21.72.47.89.05-.82.26-1.62.39-2.44.36-2.16.66-4.34,1-6.51.16-1.05.31-2.11.54-3.15.06-.25.08-.8.27-1s.58,0,.91,0A8.12,8.12,0,0,1,494,27c1,.48.68,1,.47,1.83-.48,2-.91,3.94-1.57,5.86-1.07,3.14-2.13,6.34-3.15,9.52a2,2,0,0,1-.26.64c-.94-.29-2.15.07-2.91-.76a3.53,3.53,0,0,1-.58-1.51c-.38-1.41-.76-2.81-1.07-4.24-.4-1.81-.83-3.6-1.3-5.39-.17-.64-.32-2-.87-2.4a24,24,0,0,1-.48,4.61c-.18,1.3-.42,2.6-.58,3.91a14,14,0,0,1-.32,1.94c-.17.65-.46.7-1.08.57A18.49,18.49,0,0,0,477.47,41.24Z"/><path class="c" d="M505.28,29.65a5.16,5.16,0,0,1-.08,1,8.29,8.29,0,0,1-.42,1.77,8.58,8.58,0,0,0-3.08.48,4.9,4.9,0,0,0-3.27,2.87c-.93,1.72-1.13,4.23.49,5.76a5.28,5.28,0,0,0,4,1.82c.48,0,.62,0,.88-.27a3.51,3.51,0,0,0,.48-1.58c.06-.37.37-1.3,0-1.58-.2-.16-.81-.07-1-.08a5.39,5.39,0,0,1-1.75-.13,3.59,3.59,0,0,1,.72-2c.44-.39,1.25-.26,1.78-.26s1.61-.2,2.13.11.41,1.15.47,1.75a21.82,21.82,0,0,1,0,4.35,1.22,1.22,0,0,1-.4.84,7.11,7.11,0,0,1-5.12,1.48c-2.9-.13-5.68-1.71-6.4-4.48a9.74,9.74,0,0,1,2.63-9.65,11.28,11.28,0,0,1,4.13-2.16,14.64,14.64,0,0,1,3.84-.11"/><path class="c" d="M511.79,43.06s0,.07-.06,0a16.4,16.4,0,0,0,.19-2.88,45.81,45.81,0,0,1,.66-6.41c.21-1.14,0-2.95,1-3.62a8.43,8.43,0,0,1,2.7-.16.37.37,0,0,1,.36.41c-.1.93-.38,1.91-.52,2.84-.39,2.68-1.31,5.27-1.88,7.88-.15.67-.16,1.4-.35,2.06,0,.11-.08.31-.18.39-.39.28-1.51,0-2-.09C511.71,43.49,511.77,43.5,511.79,43.06Z"/><path class="c" d="M512.64,47.12a1.11,1.11,0,0,0-1.23-.46c-1.15.32-1.47,2.53-.35,3.08s2-.68,2-1.6a1.79,1.79,0,0,0-.37-1.18c-.39-.44-.8-.34-1.33-.26"/><path class="c" d="M468,29.48Z"/><path class="c" d="M474.66,40a31.17,31.17,0,0,0-.63-4.71c-.32-2.53-.33-5.09-.45-7.63a25.85,25.85,0,0,0-.64-6c-.11-.38-.1-.53-.52-.59-.73-.09-1.55-.17-2.39-.23a.62.62,0,0,0-.53.21c-.94,1.11-3,5.77-4.43,8.25-1.34,2.31-2.68,4.62-4,7-.21.38-.4.78-.6,1.17a.67.67,0,0,0,.44,1,10.25,10.25,0,0,1,1.16.26,1.71,1.71,0,0,0,2-.33c1-.92,1.46-2.64,1.94-3.88.26-.66.43-.88.61-1.37a.66.66,0,0,1,.71-.44c.3.05.63.13.88.18a17.13,17.13,0,0,1,1.79.28c.31.11.62.16.73.49a7.46,7.46,0,0,1,.2,2.49c0,1.15.08,2.3.09,3.45,0,.33-.18.84.1,1.08s2.08.06,2.56,0S474.64,40.58,474.66,40Zm-4.05-9.58a6.56,6.56,0,0,1-2.14-.37c-.29-.09-.64-.29-.51-.52h0c.49-.73.84-1.6,1.27-2.37.24-.42.55-1.18,1-1.43a1.6,1.6,0,0,1,.28,1c.06.65.14,1.3.19,1.95C470.73,29,471,30.17,470.61,30.37Z"/><path class="c" d="M459.7,30.88a6.07,6.07,0,0,0-2.8-3.26,16.87,16.87,0,0,0,2.9-1.55c1.16-1,2.24-2.79,1.7-4.38s-2.62-2.7-4.23-3.16a14.11,14.11,0,0,0-4.53-.4c-.37,0-.86-.06-1.14.17s-.19.52-.24.66c-.25.81-.45,1.64-.65,2.46-.69,2.81-1.29,5.65-1.8,8.5a31.55,31.55,0,0,0-.68,5,5.09,5.09,0,0,0,1.78.81c2,.47,3.94,1,6,.48C458.39,35.62,460.51,33.54,459.7,30.88Zm-6.62-6.73a6.73,6.73,0,0,1,.24-1.4c.09-.42.19-.87.32-1.28a.82.82,0,0,1,.26-.46,2.68,2.68,0,0,1,1.75-.09A2.8,2.8,0,0,1,457.46,22a1.68,1.68,0,0,1,0,1.64A2.25,2.25,0,0,1,456,24.7a4.19,4.19,0,0,1-2.08.08C453.6,24.7,453,24.59,453.08,24.15Zm1.7,9.25a4.2,4.2,0,0,1-2.08.14c-.37-.07-1-.17-.89-.61a6.15,6.15,0,0,1,.2-1.41c.08-.42.17-.87.28-1.29a.87.87,0,0,1,.25-.46,2.57,2.57,0,0,1,1.75-.13,2.7,2.7,0,0,1,1.83,1,1.68,1.68,0,0,1,.08,1.64A2.27,2.27,0,0,1,454.78,33.4Z"/><path class="e" d="M87.72,245.09c-1.3-1.36-1.33-4.45-1.4-6.22a16.15,16.15,0,0,1,2.08-8.46,23.37,23.37,0,0,1,7.15-7,20.66,20.66,0,0,1,13.22-3.67c3.6.23,6.63,1.83,9.5,3.91a13.46,13.46,0,0,1,4.58,7c.61,1.83,1.64,4.23,1.24,6.19a7.07,7.07,0,0,1-2,2.92,25.13,25.13,0,0,1-5.09,4.57A28.7,28.7,0,0,1,87.72,245.09Z"/><path class="d" d="M73.31,230.56a2.48,2.48,0,0,1,.24,1,31.09,31.09,0,0,0,.77,4A53.44,53.44,0,0,0,78,246.13c2.7,5.45,6.22,10.5,12.43,12.06a19.9,19.9,0,0,0,8.51.43,60.7,60.7,0,0,0,6.41-1.32c1.73-.48,3.23-1.17,5-.68a24.6,24.6,0,0,0-1.93-6c-1.37-2.42-5.5-3.69-8-4.12-7.26-1.28-15.5-1.83-20.74-7.76-1.43-1.62-2.92-3.15-4.37-4.76C74.51,233,73.15,231.63,73.31,230.56Z"/><path class="c" d="M102.93,249.92c-1,1.64-4,4.1-5.88,4.26-2.93.24-4.64-2.12-5.56-4.58.49-.07.76-.42,1.21-.73a6.14,6.14,0,0,1,4-.85C97.62,248.1,103.49,248.43,102.93,249.92Z"/><path class="j" d="M108.91,251.35c-1.46-5.83-8.27-8.35-13.59-8.37-4.37,0-8.44-.47-12.26-2.83-4-2.48-7.14-6.05-10-9.66-.05,1.16.88,3.06,1.29,4.15a34.62,34.62,0,0,0,4.46,8.19,18.14,18.14,0,0,0,6.79,5.75c2.61,1.16,5.11,1.21,7.89,1.27,4.07.08,8.16-.85,12.15.33a13,13,0,0,1,2.47,1c.32.18.69.5,1,.5C109,251.39,108.83,251.13,108.91,251.35Z"/><path class="d" d="M127.67,213.49a2.42,2.42,0,0,0,.38.94,31,31,0,0,1,1.75,3.74A53.36,53.36,0,0,1,133,228.86c1,6,1.09,12.16-3,17.06a20.3,20.3,0,0,1-6.65,5.32,62.62,62.62,0,0,1-6,2.67c-1.69.62-3.3.94-4.45,2.37a25.17,25.17,0,0,1-2-6c-.3-2.77,2.31-6.21,4.06-8,5.14-5.29,11.51-10.55,12.29-18.42.22-2.15.53-4.27.76-6.42C128.13,216.18,128.42,214.26,127.67,213.49Z"/><path class="c" d="M115,246.79c1.79.74,5.67,1,7.27,0,2.51-1.52,2.52-4.43,1.83-7a3,3,0,0,1-1.41.11,6.07,6.07,0,0,0-3.77,1.68C118.3,242.21,113.72,245.91,115,246.79Z"/><path class="j" d="M110.93,251.16c-2.21-5.58,1.84-11.6,6.14-14.73,3.53-2.57,6.58-5.32,8.29-9.47,1.81-4.35,2.26-9.07,2.51-13.7.72.91,1.08,3,1.38,4.12a34.31,34.31,0,0,1,1.17,9.25,18.1,18.1,0,0,1-2.15,8.63c-1.44,2.47-3.43,4-5.66,5.64-3.26,2.45-7.12,4.09-9.66,7.38a12.57,12.57,0,0,0-1.41,2.26c-.16.34-.27.81-.55,1C110.89,251.25,110.87,250.94,110.93,251.16Z"/><path class="k" d="M106.88,250.89c.48,1.21.75,2.49,1.22,3.7.58,1.49,2.58,2.32,4.1,3.28.9-1.83,1.82-4,1.45-5.13-.62-1.92-1.59-4.1-2.08-6.07a5.55,5.55,0,0,0-1.12-2.36,17.07,17.07,0,0,0-5,1.64C105.44,246.25,106.58,250.12,106.88,250.89Z"/><path class="a" d="M408,74.65c1.66-1.2,2.88-3.18,4.22-4.69a53.19,53.19,0,0,1,7.29-7.41c2.3-1.72,6,.48,8.34,1.29,3.5,1.19,6.9,2.59,10.3,4,1.19.49,2.49.74,3.63,1.28a6,6,0,0,1-1.58,1.56,98.2,98.2,0,0,1-8.1,5.62c-3.4,2.31-6.82,4.6-10.2,7-1,.71-2.65,1.64-3.29,2.73,2.42,0,5.3,2.62,6.57,4.51-3.63,3.6-8.37,6.17-12.55,9.09-2.33,1.63-4.79,3.13-7.2,4.64a12.4,12.4,0,0,1-3.13,1.75c.88-2.62,3.16-4.86,4.75-7.06,1.07-1.48,3.13-3.7,3.28-5.62a15.28,15.28,0,0,1-3-1.57C405.76,90.78,404,90,402.5,89c1.92-2,4.62-3.48,6.79-5.22s4.48-3.34,6.49-5.22C415,78.11,406.45,76.81,408,74.65Z"/><path class="i" d="M78.33,191.71a5.91,5.91,0,0,1-.58,2.2,6.66,6.66,0,0,1-5,3.07c-1.75.05-3.79-.44-4.68-2.07a7.47,7.47,0,0,1-.61-2.24c0,.3-1.6-.2-1.9-.26a5.78,5.78,0,0,1-4.2-3c-1-2.47.18-4.5,2.06-6,0-.16-.36-.27-.5-.5a6.6,6.6,0,0,1-.92-3.5c0-2.48.67-5.06,2.89-6.47,1.48-.94,4.38-1.61,6-.63a13.25,13.25,0,0,1,1.39-3.57c1-1.49,3.4-2.36,5.15-2.52a5,5,0,0,1,4.82,2.47,7.38,7.38,0,0,1,.58,3.17c.3-.34,2.44.05,2.9.19a6.51,6.51,0,0,1,4.38,4.07c1.26,4.3-2.08,8.51-5.49,10.62A33.39,33.39,0,0,0,87.15,192c1.79,2.89,2.93,6.09,4.46,9.1C86.6,198.69,82.85,194.91,78.33,191.71Z"/><path class="c" d="M70.73,177.9a4,4,0,0,1,.81-2.94,6,6,0,0,1,5.59-2.36,6.58,6.58,0,0,1,1.51.33c.46.19,1,.44,1.19,1a2,2,0,0,0-1.31-.46,9.62,9.62,0,0,0-1.42,0,7.26,7.26,0,0,0-4.95,2.06A5.43,5.43,0,0,0,70.73,177.9Z"/><path class="i" d="M504.58,111.45a6.28,6.28,0,0,0-.06,2.27,6.68,6.68,0,0,0,4,4.36c1.66.55,3.76.65,5.08-.66a7.53,7.53,0,0,0,1.21-2c0,.31,1.59.27,1.9.29a5.77,5.77,0,0,0,4.89-1.74c1.71-2.08,1.1-4.37-.28-6.33,0-.16.41-.16.62-.34a6.61,6.61,0,0,0,1.86-3.09c.75-2.38.78-5-1-7-1.15-1.32-3.74-2.78-5.61-2.31a12.75,12.75,0,0,0-.32-3.81c-.49-1.69-2.59-3.22-4.23-3.87a5,5,0,0,0-5.32,1,7.07,7.07,0,0,0-1.45,2.88c-.19-.41-2.36-.64-2.84-.64a6.56,6.56,0,0,0-5.35,2.67c-2.42,3.77-.4,8.75,2.27,11.74a32.89,32.89,0,0,1-3.91,4.34c-2.53,2.27-4.52,5-6.84,7.47C494.68,115.82,499.35,113.24,504.58,111.45Z"/><path class="c" d="M515.78,100.34a5.43,5.43,0,0,0-.69-2.73,7,7,0,0,0-1.75-2.08,7.28,7.28,0,0,0-2.41-1.3,11.15,11.15,0,0,0-1.37-.38,2,2,0,0,0-1.39.08,1.81,1.81,0,0,1,1.42-.58,6.62,6.62,0,0,1,1.54.1,6,6,0,0,1,4.7,3.84A4,4,0,0,1,515.78,100.34Z"/><path class="e" d="M55.43,254c-.82-1.09-3.29-3.56-3.84-4.3-1.75-2.36-2.85-4.65-2.28-7.67.62-3.34,2.59-5.37,5-7.49.29-.25,2.35-1.54,2.26-2-.12-.69-4,.06-4.45.07A13.25,13.25,0,0,1,43.82,230a13.87,13.87,0,0,1-5.38-8.71,38.22,38.22,0,0,0-1.22-5.56c-1.32.51-2.66,3.47-3.41,4.65-1.73,2.71-3.23,5.41-6.37,6.68-3.9,1.57-6.64.35-9.59-2.45-1.7-1.62-3.38-3.42-5-5.12-.22.58.35,2,.61,2.58,1.51,3.37,3.64,6.27,3.35,10.17-.28,3.66-3.69,5.83-6.85,7.06-1.9.74-3.88,1.27-5.79,2a13.23,13.23,0,0,0-3.71,1.67,11.74,11.74,0,0,1,2.28.76,35.27,35.27,0,0,0,4.9,1c2.58.42,6.25.61,8,2.83s1,5.92.14,8.43c-.7,2-2.39,4.67-2.27,6.9a4.63,4.63,0,0,0,2.09-.75c1.48-.74,2.8-1.72,4.22-2.55,3.52-2.05,7.14-3.44,10.63-.72a16.25,16.25,0,0,1,4.76,7c.32.82.92,3.31,1.84,3.56.37-6.2,3.39-13.71,10.55-13.84,3.29-.07,6.58.72,9.81,1.08C57.93,256.17,56.68,255.08,55.43,254Z"/><path class="c" d="M23,251.29c.78-1.74,1.43-4.39.66-6.27s-2.61-2.85-4.14-4a7.25,7.25,0,0,0,2.85-3.52c.81-2-.07-3.4-.53-5.28a6.16,6.16,0,0,1,1.11.39A7.75,7.75,0,0,0,27,232c2.82-1.1,4.61-3.66,6.39-6,.28.58.36,1.43.6,2.1a9.72,9.72,0,0,0,8.32,6.94c.47,0,2.3-.5,2.59,0s-.44,1.25-.63,1.58A8.73,8.73,0,0,0,42.89,242c.24,3,1.94,5.51,3.55,8-2.1,0-4.07,1.23-5.81,2.31a9.65,9.65,0,0,0-3.29,3.4,7.12,7.12,0,0,1-1.13,1.94c-.71-.83-1.23-1.89-2-2.75a10.05,10.05,0,0,0-5-3.18,10.83,10.83,0,0,0-4.17-.18C24.64,251.59,23.23,252.12,23,251.29Z"/><path class="l" d="M29.46,247.81a3.68,3.68,0,0,0-.25-2.35c-.62-1.55-2.43-1.23-3.73-1.94-.51-.68,4-.21,4.14-3,.11-1.71-2.33-3.86-.48-3.19,1.66.6,2.92,1.94,3.78.17.25-.5.78-4.36,1.64-3.81.3.19.57,1.94.71,2.29a5.51,5.51,0,0,0,1.47,2.41,4.73,4.73,0,0,0,2.73.75c.33,0,1.69-.28,1.92.1.42.67-1.67,2.82-1.57,3.82.16,1.48,1.64,2.73,2,4.14-.49.76-3.22-.85-4.06.4-.61.91-1.24,5.5-2.32,2.74-.47-1.2-.83-3.42-2.66-3.42-1,0-2.09,1.83-3.22,1.78,0-.33-.14-.54-.05-.87"/><path class="d" d="M29,139.2c-.08-.36-.3-1.25-.38-1.72a13,13,0,0,0-.23-1.76,10.78,10.78,0,0,0-8.08,4c-1.32,1.83-1.36,5,1.11,5.84,1.73.58,3.55-.18,5.33-.17,2.53,0,5.18,2,2.9,4.33A5.53,5.53,0,0,1,25.39,151a5.16,5.16,0,0,0-2.14-.1c.07.44.16.89.24,1.33s.09,1.45.35,1.66.33,0,.54,0a15.13,15.13,0,0,0,3.07-.42,6.81,6.81,0,0,0,4.45-2.78c1.23-2,1.63-4.55-.14-6.24a7.1,7.1,0,0,0-5.07-1.73c-1.12.07-3.23.42-3.07-1.25.13-1.4,1.74-2.53,3.07-2.82.67-.15,1.37-.09,2-.25a1.07,1.07,0,0,0-.06-.31"/><path class="d" d="M31.72,136.07c.13-.4,2.06-.73,2.58-.79a59.49,59.49,0,0,0,1.6,7.06c.31,1.2,1.72,6,4.07,4.7.94-.53,1-2,1.05-2.85a15,15,0,0,0-.61-5c-.37-1.39-.71-2.79-1.15-4.17-.16-.51-.32-.6.13-.83a11.44,11.44,0,0,1,1.22-.29,5.78,5.78,0,0,1,1.23-.43c.53-.06.53.09.73.53a23.92,23.92,0,0,1,1.73,9.69c0,2.65-1.13,5.5-4,6.5-2.68.93-4.85-.87-5.83-3a35.07,35.07,0,0,1-2.54-8,15.32,15.32,0,0,1-.36-2.43A1.18,1.18,0,0,1,31.72,136.07Z"/><path class="d" d="M53.43,133.07c-2-2.78-6.28-2.16-9.11-.75a86.56,86.56,0,0,0,2.14,8.79c.41,1.55.75,3.12,1.22,4.66.13.43.38,1.15.44,1.49,1.09.25,2-.22,2.77-.16a7.72,7.72,0,0,0-.58-2.62,11.21,11.21,0,0,0-.81-2.6,5.83,5.83,0,0,1,1.17-.47,5.31,5.31,0,0,0,2.47-2C54.36,137.52,54.74,134.87,53.43,133.07ZM49,138.39a9.93,9.93,0,0,1-.94-4.13c1.23,0,2.81-.33,3.27,1.22C51.62,136.63,50.15,139,49,138.39Z"/><path class="d" d="M56.59,136.82a48.16,48.16,0,0,1-1.4-5.75,9.26,9.26,0,0,0,1.48-.58,24.79,24.79,0,0,1,3.86-1.24c.41-.1.5-.16.76,0a3.75,3.75,0,0,1,.73,1.59c-.65.35-3.17,1.14-3.93,1.54a8.15,8.15,0,0,1,.7,2.28c.3,1,.55,1.83.88,2.81.44-.26,2.29-.75,2.39-.85a4.1,4.1,0,0,1,.86,2.2c-.83.18-1.61.59-2.44.8.11.78.75,3.65.75,3.65.42.24,3.24-.76,3.52-.54a4.56,4.56,0,0,1,.35,1.72c-.06.38-3.09,1-4.36,1.23a6.58,6.58,0,0,1-1.84.23C58.92,145.73,57.27,139,56.59,136.82Z"/><path class="d" d="M74.24,139.24c-.85-.77-1.68-1.55-2.49-2.36-.16-.15-.6-.48-.66-.69a.83.83,0,0,1,.19-.63,14.5,14.5,0,0,0,1.52-2.05,3.82,3.82,0,0,0-1-4.66c-1.53-1.15-3.88-1.11-5.69-.49a7.85,7.85,0,0,0-1.67.58c-.08.06-.14,0-.21.12-.22.27,0,1.18.06,1.49.26,1.94.63,3.87,1,5.79a51.32,51.32,0,0,0,1.24,6c.06.17.38.76.15.85.59.19,2.16-.33,2.64-.31a7.5,7.5,0,0,0-.36-2.43c-.17-1.05-.4-2.11-.54-3.16.69.57,1.34,1.13,2,1.73A15.38,15.38,0,0,0,73,140.92a1.71,1.71,0,0,1,.59.46,6.63,6.63,0,0,0,2-.73A6.65,6.65,0,0,0,74.24,139.24Zm-4.76-5.86c-.34.32-1.41,1-1.6,1.2a28.85,28.85,0,0,1-.55-3.71c1-.16,2.07-.69,2.54.62A1.68,1.68,0,0,1,69.48,133.38Z"/><path class="d" d="M77.81,133.87a39.36,39.36,0,0,1-.74-4,49.31,49.31,0,0,1-.67-6,16.61,16.61,0,0,1,3.81-1.11,45.71,45.71,0,0,0,.36,7.19c.11,1.5.36,3,.4,4.51A3.14,3.14,0,0,1,77.81,133.87Z"/><path class="d" d="M80.76,137.63a1.41,1.41,0,0,0-1.85-.06c-1.39,1-.52,2.55.82,3.07,3,1.14,2.69-3.65-.26-3.32"/><path class="d" d="M53.8,13.23c-7.8-2.92-17.82.08-23,6.56-7.16,9-6.69,24.85,2.82,31.94,8.84,6.61,23.72,7.46,30.84-2.18a23.7,23.7,0,0,0,.76-27.46c-3.47-5.11-9.75-9.82-16-9.82"/><path class="j" d="M22.85,26.28h0a.56.56,0,0,1-.53-.59,17.12,17.12,0,0,1,4.36-9.8.56.56,0,1,1,.82.76,15.88,15.88,0,0,0-4.06,9.11A.56.56,0,0,1,22.85,26.28Z"/><path class="j" d="M29,14a.58.58,0,0,1-.37-.13.56.56,0,0,1-.05-.79,5.88,5.88,0,0,1,2.07-1.48.57.57,0,0,1,.74.29.56.56,0,0,1-.28.74,4.68,4.68,0,0,0-1.69,1.18A.55.55,0,0,1,29,14Z"/><path class="j" d="M69.49,52.18a.55.55,0,0,1-.42-.2.56.56,0,0,1,.05-.79,7.47,7.47,0,0,0,2.49-3.79.57.57,0,0,1,.66-.44.55.55,0,0,1,.44.66A8.66,8.66,0,0,1,69.86,52,.59.59,0,0,1,69.49,52.18Z"/><path class="j" d="M72.75,44.88a.61.61,0,0,1-.31-.09.55.55,0,0,1-.15-.78,2,2,0,0,0,.33-1.08.56.56,0,0,1,.54-.58.57.57,0,0,1,.58.54,3,3,0,0,1-.52,1.74A.57.57,0,0,1,72.75,44.88Z"/><path class="m" d="M25.9,32.66c1.67-3.78,5.48-6.84,9.85-6.62,1.84.1,3.56.74,5.41.19,2.26-.67,3.29-2.32,4.91-3.84a10.61,10.61,0,0,1,4.24-2.49c1.82-.48,3.76-.1,5.59-.43s3.83-.89,4.54-2.59A5,5,0,0,1,62.18,19a11.67,11.67,0,0,0-1.81,1.64,11.73,11.73,0,0,1-5.58,2.9c-2.61.48-4.75.2-7,1.85-1.89,1.39-3,3.43-5,4.7-3.14,2-6.71,1.51-10,3-2.27,1.05-6.09,2.72-6.2,5.66C25.5,37.12,25.9,33.56,25.9,32.66Z"/><path class="m" d="M27.85,43.08a23.16,23.16,0,0,1,3.69-3.3c2.71-1.64,4.91-1.08,7.82-.86,2.7.2,5.47.24,7.3-2.05,1.49-1.85,2.36-4,4.68-4.95s4.7-.86,7.09-1.36a13.11,13.11,0,0,0,6.12-2.92c.7-.61,1.27-1.69,2-2.16,1.05,1,1.54,4.4,1.53,5.74a13,13,0,0,0-2,.38,8.85,8.85,0,0,0-3.5,1c-1,.69-1.7,1.81-2.66,2.56-2,1.57-4.82,1-7,2.28-2.45,1.5-4,3.79-6,5.78-3.4,3.37-10.61.66-12.72,5.39-.22.49-.23,2-.65,2.29s-1.07-.39-1.54-.76C30.25,48.75,27.29,45.68,27.85,43.08Z"/><path class="m" d="M42.83,55.38c.57,0,1.86-2.22,2.94-2.52,2.29-.66,4.61-.35,6.88-1.47,2.06-1,3-2.74,4.63-4.14A6.17,6.17,0,0,1,61.58,46c2,0,5.1.28,6.07-1.94.06,1.29-1.51,4.24-2.81,4.83a5.45,5.45,0,0,1-2,.08,4.89,4.89,0,0,0-3.62,1.69c-1.11,1.16-1.91,2.21-3.5,2.8a15.17,15.17,0,0,1-4.49.57c-1.63.1-4.47.48-4.43,2.6C45.94,56.45,42.92,55.76,42.83,55.38Z"/><path class="e" d="M26.15,38.53c-1.71.31-3.81,2.1-5.1,3.14-2.75,2.21-6,5.73-5.42,9.52,1.09,7.47,13.49,3.35,17.75,1.83,12.18-4.35,23.95-10.83,34.88-17.66,3.86-2.4,8.88-5.67,10.59-10.1,1.21-3.15-1.15-5.67-4-6.7-2.67-1-8.75-.37-11,1.68,0,0,.94,1.21,1.6,2.15,3.16-1.42,8.81-3.24,10,.9.65,2.23-1.47,4.18-2.94,5.58C69.25,32,65,33.43,61.23,35.71,56,38.83,50.31,41,45,44a108.06,108.06,0,0,1-14.62,6.19c-2.79,1-4.94,2.08-7.91,1.23-2.41-.69-3.36-2.7-2-5C22,43.76,24.5,42.78,26.69,41Z"/><path class="e" d="M20.84,44.33c-1.3,2.84-1.44,6,2.54,6,5.37,0,10.94-2.24,15.7-4.54q9.69-4.66,19.31-9.51c3.23-1.63,6.33-3.58,9.54-5.28,2.16-1.15,5.09-2.61,6.46-4.73a3.49,3.49,0,0,0-2.33-5.55c2.48-.78,5.67.91,5,4.07-.41,1.82-2,3.58-3.33,4.83a41.85,41.85,0,0,1-7.27,5.2c-3.64,2.22-7.57,3.64-11.34,5.56-1.39.7-2.6,1.66-4,2.36s-3,1.36-4.47,2.11c-3.13,1.61-6.38,3-9.59,4.47S30.79,52.35,27.15,53c-2.32.39-5.53.61-6.94-1.72S19.82,46.57,20.84,44.33Z"/><path class="a" d="M295.88,257.71c.05,1.85-1.54,3.7-2.87,4.88A20,20,0,0,1,279.82,267c-6.73-.2-15.51-7.75-14.21-15.09a9.36,9.36,0,0,1-4.78-1.18c-3.77-1.86-6.5-4.89-6.89-9.32-.54-6,6-11.66,11.72-12-.64-.92.09-2.58.48-3.49a9.93,9.93,0,0,1,6.41-5.93c4.2-1.15,8.61.23,10.84,3.95.5-.28,3.19-5.41,8.58-7.49a16.43,16.43,0,0,1,9.91-.26A10,10,0,0,1,308,222c.45,1.09,1.37,3.22,1,4.25,3.45-3.67,9.85-4,12.83-.28,1.64,2,1.41,4.85,1.06,7a16.1,16.1,0,0,1,5.29,2c3,2.16,3.76,6.77,2.75,10.13-1.8,6-7.09,11.92-16.35,9.38-.78,4.25-3.84,8.86-8.7,8.69C302.22,263.05,297.83,260.85,295.88,257.71Z"/><path class="d" d="M313.75,243.34c.05-.84,0-2.38-.05-3.44a47.72,47.72,0,0,1,.23-6.87c1.24-.27,2.24-.7,3.16-.37.68.24,1.17,2.11,1.39,2.69.38,1,.68,2,1.06,2.92,1.28-1.72,1.71-3.67,2.58-5.54a10.32,10.32,0,0,1,2.34.19c.69.07,1.2,0,1.44.62.48,1.2-.06,3.45-.25,4.61a27.89,27.89,0,0,1-.85,3.5c-.1.31-.18,1.11-.4,1.34a4.16,4.16,0,0,1-2-.18c-.07-.08.43-2,.53-2.52a8.25,8.25,0,0,0,.16-3c-.45.23-.88,1.2-1.16,1.63a29.87,29.87,0,0,0-1.54,2.7c-.58,0-1.51.24-1.95-.08,0,0-1-2.1-1.39-2.8a6.51,6.51,0,0,0-.95-1.52c.05,1.84.77,4.09.36,5.88A12.44,12.44,0,0,1,313.75,243.34Z"/><path class="d" d="M279.22,234.93l.2.09h0Z"/><path class="d" d="M284.31,238.81a9.15,9.15,0,0,0-4.89-3.79c-5.31-.21-6.26,5.11-6.15,8.53s1.46,6.71,4.56,8.45c2.43,1.36,5.9,1.42,7.73-1C288.27,247.49,286.53,242.14,284.31,238.81Zm-1.88,7.85c-.95,2.12-3.32,1.12-4.23-.41a5.18,5.18,0,0,1-.79-3.56c.06-.36.65-2.26,1.31-1.95.7-.75,1.91.15,2.66.92A5.08,5.08,0,0,1,282.43,246.66Z"/><path class="d" d="M294.82,232.86l.15.11h0Z"/><path class="d" d="M298.58,237.22A8.26,8.26,0,0,0,295,233c-4.64-1.17-6.47,3.34-7,6.37s0,6.19,2.45,8.3c1.88,1.65,4.94,2.35,7,.59C300.45,245.61,299.92,240.57,298.58,237.22Zm-3.13,6.57c-1.22,1.7-3.13.37-3.65-1.15a4.69,4.69,0,0,1,0-3.28c.12-.31,1-1.87,1.52-1.47.76-.54,1.65.48,2.17,1.3A4.54,4.54,0,0,1,295.45,243.79Z"/><path class="d" d="M311.32,235.91a7.53,7.53,0,0,0-3-4.15c-4.18-1.4-6.17,2.61-6.87,5.36s-.4,5.68,1.67,7.78c1.61,1.64,4.37,2.49,6.38,1C312.46,243.73,312.32,239.07,311.32,235.91Zm-3.31,5.8c-1.25,1.48-2.9.13-3.27-1.3a4.33,4.33,0,0,1,.19-3c.14-.28,1-1.65,1.5-1.25.73-.44,1.48.56,1.9,1.35A4.2,4.2,0,0,1,308,241.71Z"/><path class="d" d="M308.18,231.65a1.27,1.27,0,0,1,.13.11h0Z"/><path class="d" d="M272.3,246.68a5.62,5.62,0,0,0-3.93-1.16c.94-2,2.76-4,1.12-6.26-1-1.45-3-1.6-4.68-1.43a12,12,0,0,0-5.36,2.13c-.35.23-1.26.61-1.37,1-.06.19.16.66.21.83.27,1,.5,2,.73,3,.74,3.25,1.41,6.52,2.41,9.71.12.38.73,1.49.51,1.88,4.3.54,7.64-.36,10.05-3.39C273.4,251.24,274.34,248.41,272.3,246.68Zm-9.05-.93c-.12-.06-.21-.27-.57-.58a9.18,9.18,0,0,1-.7-2.09c-.09-.33-.38-.91-.21-1.26a2.55,2.55,0,0,1,1.31-.91,2.28,2.28,0,0,1,2.45.43c1.14,1.15.05,2.93-.94,3.77C264.31,245.35,263.68,246,263.25,245.75Zm4.26,7c-.28.24-.9.87-1.34.65-.12-.07-.21-.28-.57-.58a8.92,8.92,0,0,1-.69-2.1c-.1-.33-.39-.91-.22-1.26a2.65,2.65,0,0,1,1.31-.91,2.29,2.29,0,0,1,2.45.43C269.6,250.17,268.5,251.94,267.51,252.78Z"/><path class="d" d="M331.3,239.76c.72-2.31,1.22-5.45,2.55-8a.38.38,0,0,1,.39-.2c.78.14,2.3.21,2.54.6.1.16,0,.18,0,.33a12.5,12.5,0,0,1-1.17,2.62c-.57,1.29-1,2.44-1.65,3.7a6.2,6.2,0,0,1-.77,1.52C332.76,240.59,331.71,240.18,331.3,239.76Z"/><path class="d" d="M331.92,241.82c-.77-.41-2,.38-1.85,1.19a1.75,1.75,0,0,0,2,1.05c1.09-.43.46-2.24-.67-2.09"/><path class="n" d="M416,27.3a3.43,3.43,0,0,0-1-1.39,14.9,14.9,0,0,0-5.18-2.81,8.86,8.86,0,0,0-8,.67c-1.4,1-2.54,2.26-3.91,3.24a28,28,0,0,1-3.17,2,8.8,8.8,0,0,1-1.79.68v0a9.81,9.81,0,0,1-3.27.42,27.33,27.33,0,0,1-3.71-.5c-1.65-.33-3.22-1-4.89-1.34a8.87,8.87,0,0,0-7.59,2.68A15.19,15.19,0,0,0,370,35.59a3.63,3.63,0,0,0-.3,1.66,6.73,6.73,0,0,0,1.63,3.92,10.62,10.62,0,0,0,5.92,3.45A13.31,13.31,0,0,0,385.38,43a25.47,25.47,0,0,0,5.82-4.73,11.37,11.37,0,0,1,1-.89,3.86,3.86,0,0,1,3.28-.72,12.76,12.76,0,0,1,1.36.41A26,26,0,0,0,404.12,39a13.36,13.36,0,0,0,8.08-1.9,10.67,10.67,0,0,0,4-5.58A6.68,6.68,0,0,0,416,27.3Z"/><path class="c" d="M375.72,35.87c.47-.36,1.1-1.18,1.71-1.57a6.39,6.39,0,0,1,5-.57c.76.23,2.49.9,2.56,1.92s-1.11,1.89-1.74,2.39c-1.8,1.43-4.63,2.21-6.58.66C375.82,38,375,37.23,375.72,35.87Z"/><path class="c" d="M410,28.52c-.58-.13-1.48-.62-2.2-.73A6.37,6.37,0,0,0,403,29.32c-.6.52-1.91,1.84-1.55,2.8s1.79,1.27,2.57,1.47c2.23.56,5.13.11,6.27-2.1C410.78,30.54,411.19,29.47,410,28.52Z"/><path class="n" d="M227.77,172.35a8,8,0,0,1-2-.83,24.18,24.18,0,0,1-2.49-1.75c-1.07-.85-1.93-1.93-3-2.76a7.66,7.66,0,0,0-6.48-1.11,12.23,12.23,0,0,0-4.34,1.77,2.51,2.51,0,0,0-.83,1c-.41.84-1.1,1.1-.8,2.41a9.73,9.73,0,0,0,9.94,7.43,21.41,21.41,0,0,0,6-.94c.34-.08.71-.15,1.08-.2a3.31,3.31,0,0,1,1.62.18"/><path class="c" d="M213.5,169.93a4.67,4.67,0,0,1,1.83-.4,5.52,5.52,0,0,1,3.81,1.52c.46.44,1.46,1.55,1.13,2.26s-1.51.83-2.16.93c-1.83.27-4.17-.29-5-2.07C212.76,171.41,212.47,170.56,213.5,169.93Z"/><path class="n" d="M210.12,172.36a4.38,4.38,0,0,1-1.42.75,9.09,9.09,0,0,1-1.42-4,14.15,14.15,0,0,1,.44-4.91,8.75,8.75,0,0,1,2-3.83c.51.52,1.38,1.76,1.93,2.3a8.32,8.32,0,0,0,4.08,2.48,15.92,15.92,0,0,1,5.34,1.76,8,8,0,0,1,2.29,1.93,16.29,16.29,0,0,0,2.43,2.72c.33.26-1.45.17-1.13.47-1.86-1.72-5.95-3.76-8.41-3.77a13.62,13.62,0,0,0-5.29.94C210.16,169.5,210.56,171.28,210.12,172.36Z"/><path class="n" d="M227.19,172.14a8.6,8.6,0,0,0,2.13.45,23.73,23.73,0,0,0,3,0c1.36-.09,2.68-.49,4.06-.56a7.66,7.66,0,0,1,6,2.77,12,12,0,0,1,2.57,3.92,2.47,2.47,0,0,1,.13,1.29c-.15.93.28,1.53-.71,2.44a9.72,9.72,0,0,1-12.41.48,21.63,21.63,0,0,1-4.39-4.15,9.49,9.49,0,0,0-.77-.79,3.37,3.37,0,0,0-1.43-.76"/><path class="c" d="M240.32,178.23a4.59,4.59,0,0,0-1.27-1.36,5.54,5.54,0,0,0-4-.91c-.63.1-2.08.45-2.21,1.22s.77,1.54,1.25,2c1.36,1.26,3.6,2.12,5.29,1.13C240.1,179.87,240.81,179.33,240.32,178.23Z"/><path class="n" d="M241.73,182.14a4.33,4.33,0,0,0,.75,1.44,9.28,9.28,0,0,0,3.46-2.53,14.15,14.15,0,0,0,2.41-4.29,8.74,8.74,0,0,0,.54-4.28c-.7.14-2.12.66-2.89.79a8.23,8.23,0,0,1-4.77-.26,15.7,15.7,0,0,0-5.39-1.57,7.87,7.87,0,0,0-3,.29,17,17,0,0,1-3.54.86c-.43,0,1.09,1,.66,1,2.51-.37,7,.27,9.07,1.66a13.46,13.46,0,0,1,3.82,3.77C243.32,179.77,242,181,241.73,182.14Z"/><path class="o" d="M165.76,39.68c.53.16,1.88,1.22,2.43,1.32a24.71,24.71,0,0,1,3.26.93,7.52,7.52,0,0,1,2.86,1.55,17.42,17.42,0,0,0,2.94,2.43c1.44.76,2.51.34,4.12,0a13.52,13.52,0,0,1,2.92-.65,9.16,9.16,0,0,1,2.65.41c.85.29,3.39-.14,4.24,0,.57-1.87-.74-2.62-.82-4.58-.18-4.29-3.55-7.81-7.58-9-3.86-1.09-8.37.29-11.52,2.59A12.09,12.09,0,0,0,168.84,37c-.38.49-.68,1-1,1.54S166.15,38.57,165.76,39.68Z"/><path class="o" d="M161.78,34.73c-.33-2.52.41-5,.9-7.44a83.19,83.19,0,0,1,3.87-13.87c.52-1.33,6.89-14,8.6-12.17.85.91,0,3.45-.11,4.52a21.7,21.7,0,0,0-.08,5c.1,1,.25,1.39-.19,2.12A8.62,8.62,0,0,1,173,14.47a30.47,30.47,0,0,0-3.48,3.7,31.53,31.53,0,0,0-5.41,10.25A64.39,64.39,0,0,0,161.78,34.73Z"/><path class="o" d="M196.85,43.4a24.57,24.57,0,0,0,3.24-7.13A82.66,82.66,0,0,0,203,22.16c.14-1.42.22-15.61-2.14-14.75-1.17.42-1.6,3.06-1.95,4.08A21,21,0,0,1,196.64,16c-.53.83-.85,1.14-.79,2a8.37,8.37,0,0,0,.85,2.17A30.3,30.3,0,0,1,198.11,25a31.1,31.1,0,0,1,.17,11.58C198,38.49,197.44,40.8,196.85,43.4Z"/><path class="o" d="M161.83,34.39c-.78-1.19.85-2.95,1.06-4.34a25.27,25.27,0,0,1,5.53-12.77c4.69-5.49,12.18-8.43,19.18-6.07C196,14.06,201.85,23,200.94,31c-.48,4.14-1,9.23-4.09,12.38C193.5,46.85,188,45.66,183.71,45a54.12,54.12,0,0,1-12.64-3.71c-2-.78-5.85-1.13-7.21-2.84-1-1.21-2.35-3.32-2.25-5"/><path class="c" d="M176,34a26,26,0,0,1-2.36-1.36,33.3,33.3,0,0,1-4.14-3.16c-.22-.18-.68-.77-1-.56s-.17.74-.18.95a7,7,0,0,0,.28,2.49A4.37,4.37,0,0,0,176,34Z"/><path class="c" d="M184.68,36a24,24,0,0,0,2.72-.14,32,32,0,0,0,5.12-.94c.28-.06,1-.37,1.17,0s-.19.73-.28.93A6.91,6.91,0,0,1,192,38a4.1,4.1,0,0,1-6.22,0A4,4,0,0,1,184.68,36Z"/><path class="e" d="M331.51,174.41c-2.05-6.75-9.23-11.95-16.26-12.1-9.71-.2-20.17,8.3-20.05,18.36.12,9.36,7.21,19.8,17.37,19.63a20.09,20.09,0,0,0,18.87-13.64c1.65-5,1.58-11.61-1.62-15.79"/><path class="l" d="M324.2,167.36c-2.45-2.68-6.45-4.49-10-2.71a5.45,5.45,0,0,0-3,5.15c.17,2.17,2.17,3.87,4,4.8,2.67,1.36,7.07,2.18,8.71-1.15a6.36,6.36,0,0,0,.8-3.71C324.6,168.72,324,168.08,324.2,167.36Z"/><path class="l" d="M329.63,174.2c-.34-1.08-1.55,0-1.78.59-.53,1.31-.31,4.13,1.46,4.41a2,2,0,0,0,2.13-2.06A4.31,4.31,0,0,0,329.63,174.2Z"/><path class="l" d="M327.59,183.5c-3.65-5.57-10.53,5-5.62,7.86,2.14,1.23,5.16-1.31,5.66-3.34C327.78,187.42,328.08,183.81,327.59,183.5Z"/><path class="l" d="M314.26,189.75a2.41,2.41,0,0,0-3,.76c-.94,1.29.51,2.09,1.69,2.14.85,0,2.76-.29,2.89-1.4S314.53,189.29,314.26,189.75Z"/><path class="l" d="M296.86,188.06c.58-1,2.33-.93,3.32-.85a5.84,5.84,0,0,1,4.38,2.9,4.57,4.57,0,0,1-.36,4.82c-.29.47-.6,1.29-1.19,1.27s-1.09-.75-1.4-1a30.61,30.61,0,0,1-2.45-2.75C298.08,191.2,296.85,189.77,296.86,188.06Z"/><path class="l" d="M298.8,176.68c-1.09,1.34-.25,4.07.41,5.34a4,4,0,0,0,2.89,2.44,1.94,1.94,0,0,0,2.34-1.24c.75-1.91-.32-4.9-1.73-6.25C301.84,176.13,299.76,175.51,298.8,176.68Z"/><path class="l" d="M302.68,171.81c-.95.39.21,4,2,2.69C306.84,173,303.87,169.28,302.68,171.81Z"/><path class="j" d="M335.57,171.18a.38.38,0,0,1-.35-.25,11.77,11.77,0,0,0-6.06-7.08.38.38,0,0,1,.29-.7,12.5,12.5,0,0,1,6.47,7.52.39.39,0,0,1-.22.49Z"/><path class="j" d="M337.58,166.57a.39.39,0,0,1-.35-.23,6.13,6.13,0,0,0-1.39-2,9,9,0,0,0-2.43-1.57.37.37,0,0,1-.19-.5.37.37,0,0,1,.5-.18,9.49,9.49,0,0,1,2.64,1.71,7,7,0,0,1,1.57,2.27.39.39,0,0,1-.2.5A.4.4,0,0,1,337.58,166.57Z"/><path class="l" d="M76.28,89.06c.66-.64,1.15-1.45,1.81-2.1.26-.26.51-.55.78-.8a4.75,4.75,0,0,1,0,1.84c-.05.49-.06,1-.14,1.47a1.35,1.35,0,0,0-.07.44c.07.23.5.43.71.55.57.31,1.14.62,1.72.9.35.17.5.31.11.5a11.16,11.16,0,0,1-2.67.69c-.13,0-.46.07-.53.21a2.17,2.17,0,0,0,0,.62c0,.5.06,1,0,1.51a2.66,2.66,0,0,1-.07.75c-.49-.18-.92-.93-1.13-1.37a9.64,9.64,0,0,0-.54-1c0-.07-.1-.16-.18-.19a.76.76,0,0,0-.47.07c-.47.13-.93.28-1.41.38a14.14,14.14,0,0,1-1.45.24c-.14,0-.43.06-.55,0,.06-.24.35-.47.51-.63s.53-.54.8-.81a3.41,3.41,0,0,0,.73-.74c.09-.17,0-.3-.08-.48-.24-.62-.59-1.19-.83-1.8-.07-.17-.45-.8-.25-1,.05,0,.26,0,.32,0a3,3,0,0,1,.85.1C75,88.54,75.61,88.89,76.28,89.06Z"/><path class="a" d="M69.16,75.83c-.23-.88-.7-1.71-1-2.6-.1-.35-.24-.71-.32-1.07a4.76,4.76,0,0,1,1.6.89c.41.28.83.53,1.22.84.1.08.24.24.36.27s.62-.23.82-.36c.55-.34,1.1-.69,1.63-1.06.31-.22.5-.29.48.15a10.75,10.75,0,0,1-.69,2.66c0,.13-.16.43-.07.56s.42.23.54.29c.45.23.92.44,1.35.71a2.45,2.45,0,0,1,.62.43,3,3,0,0,1-1.75.32,8.68,8.68,0,0,0-1.14,0,.56.56,0,0,0-.26.07c-.12.1-.12.31-.16.45-.11.47-.21,1-.35,1.41a13.47,13.47,0,0,1-.49,1.39c-.06.12-.16.41-.29.46a1.65,1.65,0,0,1-.3-.75l-.33-1.09a3.48,3.48,0,0,0-.29-1c-.11-.16-.26-.13-.46-.16-.65-.09-1.32-.06-2-.15-.18,0-.91,0-1-.26,0-.07.11-.24.14-.29a2.85,2.85,0,0,1,.49-.7C68.08,76.73,68.7,76.34,69.16,75.83Z"/><path class="l" d="M319.87,87.61c-.26-1-.77-1.88-1.05-2.85-.11-.39-.26-.79-.35-1.18a5.26,5.26,0,0,1,1.76,1c.45.31.91.58,1.34.92.11.08.26.26.39.29s.68-.25.91-.39c.6-.37,1.2-.76,1.78-1.17.34-.24.56-.31.53.17a12.62,12.62,0,0,1-.75,2.93c0,.14-.19.47-.09.61s.47.25.61.32c.49.25,1,.48,1.47.78a2.71,2.71,0,0,1,.68.46,3.17,3.17,0,0,1-1.92.36,8.7,8.7,0,0,0-1.25,0,.48.48,0,0,0-.28.08c-.13.1-.14.33-.18.48-.12.53-.23,1.05-.39,1.56a13.67,13.67,0,0,1-.53,1.52c-.07.14-.18.45-.33.51a2,2,0,0,1-.33-.82c-.11-.4-.24-.8-.35-1.2a4.21,4.21,0,0,0-.32-1.1c-.12-.17-.29-.15-.51-.18-.72-.1-1.45-.06-2.17-.16-.2,0-1,0-1.09-.29,0-.08.12-.26.15-.32a3.38,3.38,0,0,1,.54-.76C318.68,88.6,319.36,88.17,319.87,87.61Z"/><path class="e" d="M234,37.64c-.5-1.88-1.5-3.64-2-5.52-.22-.77-.5-1.53-.69-2.29a10,10,0,0,1,3.42,1.9c.86.6,1.77,1.13,2.6,1.78.2.16.5.51.75.57.49.11,1.32-.49,1.75-.76,1.17-.73,2.33-1.48,3.46-2.27.67-.46,1.08-.6,1,.33a24.4,24.4,0,0,1-1.47,5.67c-.08.28-.35.92-.16,1.19s.91.47,1.16.61c1,.5,1.94.94,2.86,1.52a5.47,5.47,0,0,1,1.33.9c-.86.71-2.69.74-3.73.69a17.77,17.77,0,0,0-2.42,0,1,1,0,0,0-.55.15c-.25.2-.27.65-.34.94-.24,1-.45,2-.76,3a26.9,26.9,0,0,1-1,2.94c-.12.27-.34.87-.63,1a3.73,3.73,0,0,1-.64-1.6c-.22-.78-.46-1.55-.69-2.33a7.39,7.39,0,0,0-.62-2.12c-.24-.34-.56-.29-1-.35-1.39-.19-2.81-.13-4.22-.3-.38-.05-1.94,0-2.1-.57-.05-.15.23-.51.29-.62a6.15,6.15,0,0,1,1.05-1.47C231.69,39.55,233,38.72,234,37.64Z"/><path class="a" d="M101.4,6.58c-.24-.89-.71-1.71-1-2.59-.1-.36-.23-.72-.32-1.08a4.76,4.76,0,0,1,1.6.89c.41.29.83.53,1.23.84.09.08.23.24.35.27s.62-.23.82-.36c.55-.34,1.09-.69,1.62-1.06.32-.22.51-.29.49.15a11.7,11.7,0,0,1-.69,2.66c0,.13-.16.43-.07.56s.42.22.54.29c.45.23.91.44,1.34.71a2.66,2.66,0,0,1,.63.42,3,3,0,0,1-1.75.33,8.68,8.68,0,0,0-1.14,0,.46.46,0,0,0-.26.07c-.12.09-.12.31-.16.44-.11.48-.21,1-.35,1.42a14.17,14.17,0,0,1-.49,1.38c-.06.13-.16.41-.29.47a1.75,1.75,0,0,1-.3-.75c-.11-.37-.22-.73-.32-1.1a3.78,3.78,0,0,0-.3-1c-.11-.16-.26-.14-.46-.17-.65-.09-1.32-.06-2-.14-.18,0-.91,0-1-.27,0-.07.12-.24.14-.29A3.08,3.08,0,0,1,99.82,8C100.31,7.47,100.93,7.09,101.4,6.58Z"/><path class="l" d="M124.9,15.65c.75-1.27,1.16-2.74,1.89-4,.3-.52.56-1.08.87-1.58a7.58,7.58,0,0,1,.79,2.84c.14.79.33,1.56.42,2.35a1.88,1.88,0,0,0,.1.71c.19.32,1,.45,1.34.54,1,.24,2,.47,3.05.66.61.11.91.25.38.72a18.08,18.08,0,0,1-3.83,2.23c-.19.1-.68.29-.73.55s.23.73.29.95c.24.78.53,1.54.7,2.34a3.79,3.79,0,0,1,.22,1.19A4.75,4.75,0,0,1,128,23.48a13.2,13.2,0,0,0-1.27-1.32.78.78,0,0,0-.37-.22c-.24,0-.49.21-.68.32-.68.41-1.33.84-2,1.2a20.82,20.82,0,0,1-2.14,1c-.21.08-.64.28-.86.2a2.91,2.91,0,0,1,.51-1.2c.31-.53.59-1.07.89-1.6a5.72,5.72,0,0,0,.81-1.47c.06-.31-.14-.45-.33-.71-.64-.85-1.43-1.58-2.07-2.43-.18-.23-1-1.05-.82-1.44.06-.1.4-.14.49-.17a4.82,4.82,0,0,1,1.35-.22C122.65,15.42,123.79,15.69,124.9,15.65Z"/><path class="e" d="M53,90.88c.6-1.66.76-3.48,1.33-5.15.23-.68.42-1.4.67-2.06a9,9,0,0,1,1.56,3.17c.34.89.74,1.75,1,2.67a2.1,2.1,0,0,0,.27.81c.3.33,1.23.32,1.69.34,1.24.06,2.49.1,3.74.09.73,0,1.12.11.6.78a21.79,21.79,0,0,1-4,3.46c-.2.17-.74.5-.74.8s.44.82.56,1.06c.45.86,1,1.69,1.34,2.59a4.61,4.61,0,0,1,.52,1.36c-1,.08-2.38-.83-3.12-1.41a14.87,14.87,0,0,0-1.79-1.27A.82.82,0,0,0,56.2,98c-.29,0-.54.34-.74.52-.7.63-1.37,1.27-2.12,1.85A22.85,22.85,0,0,1,51.06,102c-.23.14-.7.47-1,.42a3.35,3.35,0,0,1,.35-1.52c.23-.69.45-1.39.68-2.08a6.91,6.91,0,0,0,.63-1.91c0-.37-.26-.5-.54-.76-.94-.85-2-1.54-3-2.4-.26-.23-1.45-1-1.28-1.5.05-.14.44-.26.54-.31A5.38,5.38,0,0,1,49,91.36C50.34,91.11,51.74,91.17,53,90.88Z"/><path class="e" d="M102.51,37.33c.26-.71.33-1.49.57-2.21.1-.29.18-.6.29-.88A4,4,0,0,1,104,35.6c.14.38.31.75.43,1.14a1,1,0,0,0,.12.35c.13.14.52.13.72.14.54,0,1.07.05,1.61,0,.31,0,.47,0,.25.34a10.1,10.1,0,0,1-1.71,1.48c-.09.07-.32.21-.32.34s.18.35.24.45c.19.37.41.73.57,1.12a2.42,2.42,0,0,1,.23.58,2.46,2.46,0,0,1-1.34-.61,8.19,8.19,0,0,0-.77-.54.31.31,0,0,0-.2-.07c-.13,0-.23.14-.32.22-.3.27-.59.55-.91.79a8.41,8.41,0,0,1-1,.71c-.09.06-.3.21-.42.18a1.51,1.51,0,0,1,.15-.65l.3-.89a2.93,2.93,0,0,0,.27-.82c0-.15-.12-.21-.24-.32-.4-.37-.87-.66-1.27-1-.12-.1-.62-.43-.55-.64,0-.06.19-.12.23-.14a2.61,2.61,0,0,1,.66-.24C101.36,37.43,102,37.45,102.51,37.33Z"/><path class="e" d="M374.45,239.33c-.25-1-.77-1.88-1-2.85-.12-.39-.26-.79-.36-1.18a5.1,5.1,0,0,1,1.76,1c.45.31.92.58,1.35.92.1.08.25.26.39.29s.68-.25.9-.39c.6-.38,1.21-.76,1.79-1.17.34-.24.56-.31.53.17A13.14,13.14,0,0,1,379,239c0,.14-.19.47-.09.61s.47.25.6.32c.5.25,1,.48,1.48.78a2.71,2.71,0,0,1,.68.46,3.17,3.17,0,0,1-1.92.36,10.43,10.43,0,0,0-1.25,0,.51.51,0,0,0-.28.08c-.13.1-.14.34-.18.48-.12.53-.23,1.05-.39,1.56a13.73,13.73,0,0,1-.54,1.52c-.06.14-.17.45-.32.52a2.07,2.07,0,0,1-.33-.83c-.11-.4-.24-.8-.35-1.2a4.23,4.23,0,0,0-.33-1.1c-.12-.17-.29-.15-.5-.18-.72-.09-1.46-.06-2.18-.15-.2,0-1,0-1.09-.3,0-.07.12-.26.16-.32a3.34,3.34,0,0,1,.53-.76C373.26,240.32,373.94,239.89,374.45,239.33Z"/><path class="l" d="M395.45,242c.82-1.39,1.28-3,2.08-4.43.33-.57.62-1.18,1-1.74a8.5,8.5,0,0,1,.87,3.13c.15.87.37,1.71.46,2.59,0,.21,0,.59.11.77.21.36,1.06.5,1.47.6,1.11.26,2.24.51,3.36.72.67.12,1,.29.42.8A20.38,20.38,0,0,1,401,246.9c-.21.12-.75.32-.8.6s.25.81.32,1.05c.26.85.58,1.69.77,2.57a4.6,4.6,0,0,1,.25,1.31,5.19,5.19,0,0,1-2.59-1.8,13.7,13.7,0,0,0-1.4-1.45.83.83,0,0,0-.4-.24c-.27,0-.55.22-.76.35-.74.45-1.46.92-2.23,1.31a22.89,22.89,0,0,1-2.35,1.11c-.23.09-.71.31-.95.21a3.07,3.07,0,0,1,.57-1.31c.33-.58.64-1.18,1-1.77a6.67,6.67,0,0,0,.89-1.61c.06-.34-.16-.5-.37-.78-.7-.94-1.57-1.74-2.28-2.68-.2-.25-1.14-1.14-.9-1.58.07-.11.44-.15.55-.18a4.94,4.94,0,0,1,1.48-.25C393,241.77,394.23,242.06,395.45,242Z"/><path class="l" d="M366,258.1c.29-.78.36-1.64.63-2.42.11-.32.2-.66.32-1a4.07,4.07,0,0,1,.73,1.49c.16.42.35.83.48,1.26,0,.1.05.3.13.38s.58.15.8.16c.58,0,1.17.05,1.76,0,.35,0,.53,0,.28.37a9.85,9.85,0,0,1-1.89,1.63c-.09.08-.34.24-.34.38s.2.38.26.5c.21.4.45.8.63,1.22a2.5,2.5,0,0,1,.25.64,2.67,2.67,0,0,1-1.48-.67,6.31,6.31,0,0,0-.84-.59.47.47,0,0,0-.22-.09c-.14,0-.26.17-.35.25-.33.3-.65.6-1,.87a12,12,0,0,1-1.08.79c-.11.06-.33.22-.46.19a1.6,1.6,0,0,1,.16-.71c.12-.33.22-.66.33-1a3.37,3.37,0,0,0,.29-.9c0-.18-.12-.24-.25-.36-.44-.4-1-.73-1.41-1.13-.12-.11-.68-.47-.6-.71,0-.06.21-.12.26-.15a2.7,2.7,0,0,1,.72-.26C364.72,258.21,365.38,258.24,366,258.1Z"/><path class="e" d="M3.64,187.78c-.17-1.44-.72-2.84-.91-4.29-.08-.58-.21-1.18-.26-1.76a7.66,7.66,0,0,1,2.31,1.77c.58.53,1.19,1,1.73,1.59.13.14.31.43.5.5.34.13,1-.22,1.37-.38.94-.41,1.87-.84,2.79-1.3.54-.27.86-.34.73.35a18.59,18.59,0,0,1-1.68,4c-.09.2-.36.64-.25.87s.62.44.79.57c.66.47,1.34.9,2,1.42a4,4,0,0,1,.88.8,4.6,4.6,0,0,1-2.82.12A12,12,0,0,0,9,191.78a.74.74,0,0,0-.42,0c-.21.13-.27.46-.35.66-.29.73-.54,1.45-.88,2.15a20.18,20.18,0,0,1-1.08,2.06c-.11.18-.34.6-.56.67a2.74,2.74,0,0,1-.3-1.25c-.08-.6-.18-1.19-.26-1.79a6,6,0,0,0-.24-1.63c-.14-.27-.38-.27-.68-.36-1-.29-2.07-.39-3.08-.67-.28-.08-1.43-.21-1.49-.65,0-.11.22-.35.28-.42a4.55,4.55,0,0,1,.93-1C1.74,188.94,2.79,188.47,3.64,187.78Z"/><path class="l" d="M12.27,170.57c.36-.66.54-1.43.88-2.1.14-.27.26-.57.41-.83a3.82,3.82,0,0,1,.47,1.44c.09.4.21.79.27,1.19a1,1,0,0,0,.06.36c.11.16.51.21.7.25l1.58.27c.32,0,.47.11.21.36a9.58,9.58,0,0,1-1.91,1.23c-.1.06-.34.17-.36.3s.13.37.17.48c.14.39.3.78.41,1.18a2.16,2.16,0,0,1,.14.61,2.46,2.46,0,0,1-1.24-.79,8.31,8.31,0,0,0-.68-.65.38.38,0,0,0-.2-.1c-.12,0-.25.11-.34.18-.34.22-.66.45-1,.65a9.93,9.93,0,0,1-1.07.57c-.1,0-.32.15-.44.11a1.57,1.57,0,0,1,.24-.62c.15-.28.28-.56.42-.84a2.63,2.63,0,0,0,.38-.77c0-.16-.08-.23-.18-.36-.35-.42-.77-.78-1.12-1.2-.09-.11-.55-.51-.45-.72,0-.05.2-.08.25-.09a2.3,2.3,0,0,1,.69-.15C11.11,170.51,11.7,170.62,12.27,170.57Z"/><path class="a" d="M34.37,185.78a5.34,5.34,0,0,0,.41-1c.3-.91.58-1.82.9-2.73a5.15,5.15,0,0,1,.64-1.46c.34.82.86,1.52,1.27,2.31s.59,1.41.91,2.11a3.81,3.81,0,0,0,.27.66.76.76,0,0,0,.26.16,9.11,9.11,0,0,0,2,.67,13.33,13.33,0,0,1,1.92.69,1.28,1.28,0,0,1,.6.44,16.69,16.69,0,0,1-2.94,2c-.48.25-1.28.51-1.24,1.08a10.73,10.73,0,0,0,.7,2.41c.17.5.39,1,.56,1.48a2.66,2.66,0,0,1,.24.82c-.06.25,0,.19-.28.18a2.2,2.2,0,0,1-.8-.35c-.36-.18-.74-.32-1.1-.49-.64-.3-1.27-.61-1.9-.94a1.08,1.08,0,0,0-.64-.18,3.15,3.15,0,0,0-.61.36,16.87,16.87,0,0,1-2.3,1.22c-.39.16-2.47,1.07-2.65.5-.05-.15.2-.63.23-.74.17-.53.32-1.06.5-1.58s.37-1.24.64-1.8A19.7,19.7,0,0,1,30.07,190a27.84,27.84,0,0,1-2.18-1.89,4,4,0,0,1-.94-1.15c.82,0,1.64-.23,2.46-.27,1.11-.06,2.2-.14,3.3-.25C32.89,186.38,34.25,186.49,34.37,185.78Z"/><path class="a" d="M460.31,167.15c.32-.94.39-2,.7-2.93.13-.38.22-.79.36-1.16a4.89,4.89,0,0,1,.91,1.77c.2.5.44,1,.6,1.5a1.48,1.48,0,0,0,.16.46c.18.18.7.16,1,.17.71,0,1.42,0,2.12,0,.42,0,.63,0,.35.43a12.86,12.86,0,0,1-2.23,2c-.12.09-.42.28-.41.46s.25.45.32.59c.27.48.56.95.79,1.45a2.77,2.77,0,0,1,.31.76,3.26,3.26,0,0,1-1.79-.76,8,8,0,0,0-1-.7.45.45,0,0,0-.27-.1c-.17,0-.3.2-.41.31-.39.36-.77.73-1.18,1.07s-.83.67-1.28,1c-.13.08-.39.27-.55.24a2,2,0,0,1,.18-.86c.13-.39.24-.79.37-1.18a4.18,4.18,0,0,0,.34-1.09c0-.21-.16-.28-.32-.42-.54-.48-1.16-.85-1.71-1.33-.15-.13-.82-.55-.73-.84,0-.07.24-.15.3-.18a3.33,3.33,0,0,1,.86-.33C458.79,167.31,459.58,167.33,460.31,167.15Z"/><path class="e" d="M466.4,143.21c-.67-.74-1.54-1.3-2.22-2-.28-.3-.59-.58-.85-.88a5.13,5.13,0,0,1,2,.06c.54.07,1.08.1,1.61.2a1.09,1.09,0,0,0,.47.08c.25-.06.49-.53.62-.75.36-.61.71-1.22,1-1.85.19-.36.35-.53.55-.09a12.62,12.62,0,0,1,.66,2.92c0,.15.06.5.21.58a2.15,2.15,0,0,0,.67,0c.55,0,1.1,0,1.65,0a3.18,3.18,0,0,1,.82.1,3.23,3.23,0,0,1-1.53,1.19,8.81,8.81,0,0,0-1.11.55.53.53,0,0,0-.22.2.86.86,0,0,0,.07.5c.13.52.27,1,.36,1.56a11.78,11.78,0,0,1,.22,1.58c0,.15.06.47-.05.59-.25-.07-.49-.39-.66-.57l-.86-.9a4.09,4.09,0,0,0-.79-.82c-.18-.09-.32,0-.52.07-.68.25-1.31.61-2,.86-.18.06-.88.45-1.09.23-.05-.05,0-.28,0-.35a3.08,3.08,0,0,1,.13-.91C465.8,144.62,466.2,143.94,466.4,143.21Z"/><path class="l" d="M481.93,159.54c.09-1.6-.24-3.24-.18-4.85,0-.65,0-1.32.05-2a8.47,8.47,0,0,1,2.19,2.35c.52.7,1.1,1.34,1.58,2.07.12.17.26.52.45.64.35.21,1.15,0,1.56-.15,1.1-.27,2.21-.57,3.29-.9.64-.19,1-.2.73.52a20.14,20.14,0,0,1-2.6,4.08c-.13.19-.51.62-.43.89s.59.6.76.77c.62.64,1.28,1.23,1.85,1.92a4.49,4.49,0,0,1,.81,1,5.13,5.13,0,0,1-3.1-.41,14,14,0,0,0-1.89-.64.73.73,0,0,0-.46,0c-.25.09-.38.44-.51.65-.45.74-.87,1.47-1.37,2.17a22.14,22.14,0,0,1-1.56,2.05c-.16.18-.48.59-.74.62a3.11,3.11,0,0,1-.1-1.42c0-.66,0-1.33.06-2a6.17,6.17,0,0,0,.05-1.82c-.1-.33-.36-.37-.67-.52-1.05-.51-2.18-.82-3.23-1.32-.29-.14-1.52-.49-1.51-1,0-.13.32-.34.39-.42a5.15,5.15,0,0,1,1.2-.88C479.64,160.45,480.88,160.13,481.93,159.54Z"/><path class="e" d="M342.18,102.38c-.4-1.52-1.21-2.95-1.64-4.48-.18-.61-.41-1.23-.56-1.85a8.13,8.13,0,0,1,2.77,1.54c.7.49,1.44.91,2.11,1.45.16.12.4.41.61.46.39.09,1.07-.4,1.42-.62.95-.59,1.89-1.2,2.81-1.84.54-.37.87-.49.83.27a19.45,19.45,0,0,1-1.18,4.6c-.07.22-.29.74-.14,1s.74.38,1,.49c.77.41,1.57.77,2.31,1.24a4,4,0,0,1,1.08.73,5.05,5.05,0,0,1-3,.55,14.25,14.25,0,0,0-2,0,.84.84,0,0,0-.45.11c-.2.17-.22.54-.27.77-.2.82-.37,1.64-.62,2.45a22.4,22.4,0,0,1-.84,2.38c-.1.22-.27.71-.51.81a3.17,3.17,0,0,1-.52-1.29c-.17-.64-.37-1.26-.55-1.89a6.39,6.39,0,0,0-.51-1.73c-.19-.27-.45-.23-.79-.28-1.13-.15-2.29-.1-3.42-.24-.31,0-1.58,0-1.71-.46,0-.13.19-.42.24-.51a5,5,0,0,1,.85-1.19C340.31,103.93,341.38,103.26,342.18,102.38Z"/><path class="l" d="M364.7,93c.28-.77.36-1.62.62-2.4.11-.32.2-.65.32-1a4.45,4.45,0,0,1,.73,1.48c.15.42.34.82.47,1.25a1,1,0,0,0,.13.37c.14.16.57.15.79.16.58,0,1.16,0,1.74,0,.35,0,.52,0,.28.36a10.37,10.37,0,0,1-1.87,1.62c-.09.07-.34.23-.34.37s.2.38.26.49c.21.4.44.79.62,1.21a2.5,2.5,0,0,1,.25.64,2.64,2.64,0,0,1-1.46-.66,6.05,6.05,0,0,0-.84-.59.43.43,0,0,0-.22-.09c-.14,0-.25.17-.35.25-.32.29-.64.59-1,.86a11.56,11.56,0,0,1-1.06.78c-.11.06-.33.22-.46.19a1.71,1.71,0,0,1,.16-.7c.11-.33.21-.66.32-1a3.12,3.12,0,0,0,.3-.89c0-.17-.13-.23-.26-.35-.44-.4-.94-.72-1.39-1.12-.12-.11-.67-.47-.59-.71,0-.06.2-.12.25-.14a2.58,2.58,0,0,1,.72-.26C363.44,93.07,364.1,93.1,364.7,93Z"/><path class="l" d="M247.46,11.16c.34-.95.44-2,.77-3,.13-.39.24-.81.38-1.19a5.13,5.13,0,0,1,.9,1.83c.2.51.42,1,.59,1.53a1.24,1.24,0,0,0,.15.47c.17.19.71.18,1,.2.71,0,1.43.05,2.15.05.42,0,.64.06.35.45a13.33,13.33,0,0,1-2.31,2c-.12.09-.43.29-.43.46s.25.47.32.61c.26.5.55,1,.77,1.49a2.89,2.89,0,0,1,.31.78,3.26,3.26,0,0,1-1.8-.81,9.15,9.15,0,0,0-1-.73.5.5,0,0,0-.28-.1c-.17,0-.31.2-.42.3-.41.37-.79.74-1.22,1.07a13.33,13.33,0,0,1-1.32.95c-.13.08-.4.28-.56.25a1.92,1.92,0,0,1,.2-.88l.39-1.2a3.84,3.84,0,0,0,.36-1.1c0-.21-.15-.28-.31-.43-.54-.5-1.17-.89-1.72-1.38-.15-.14-.83-.58-.73-.87,0-.08.25-.15.31-.18a3.05,3.05,0,0,1,.89-.32C245.91,11.3,246.71,11.33,247.46,11.16Z"/><path class="e" d="M251.6,202.74c-.29-.83-.81-1.58-1.12-2.41-.12-.33-.28-.66-.39-1a4.56,4.56,0,0,1,1.6.73c.42.23.84.44,1.24.7.1.06.24.21.36.23s.58-.27.76-.41c.5-.37,1-.75,1.47-1.15.28-.24.47-.31.48.11a11,11,0,0,1-.44,2.6c0,.13-.13.43,0,.55s.43.17.55.23a13.14,13.14,0,0,1,1.34.57,2.63,2.63,0,0,1,.64.35,2.83,2.83,0,0,1-1.65.46,7.88,7.88,0,0,0-1.09.07.54.54,0,0,0-.25.09c-.1.1-.09.3-.11.43-.07.47-.13.93-.23,1.39a12.35,12.35,0,0,1-.36,1.36c0,.13-.11.41-.24.48a1.85,1.85,0,0,1-.35-.7c-.13-.34-.27-.68-.39-1a3.41,3.41,0,0,0-.37-.93c-.11-.14-.26-.11-.45-.12-.63,0-1.27.05-1.91,0-.17,0-.87.08-1-.18,0-.06.09-.23.11-.29a3.33,3.33,0,0,1,.42-.7C250.64,203.69,251.2,203.26,251.6,202.74Z"/><path class="e" d="M99.52,151.94c.91-.46,1.71-1.17,2.62-1.65.37-.19.73-.42,1.1-.6a5.3,5.3,0,0,1-.6,2c-.22.51-.39,1-.64,1.53-.06.12-.21.31-.21.45s.39.62.58.82c.5.52,1,1,1.54,1.53.31.29.43.49,0,.57a12.73,12.73,0,0,1-3.08-.14c-.15,0-.51-.08-.63,0a2.15,2.15,0,0,0-.19.67c-.15.55-.27,1.1-.47,1.63a2.56,2.56,0,0,1-.32.78,3.37,3.37,0,0,1-.76-1.84,8.89,8.89,0,0,0-.24-1.25.51.51,0,0,0-.14-.26c-.13-.11-.36-.07-.52-.08-.55,0-1.09,0-1.63-.06a14.52,14.52,0,0,1-1.63-.21c-.15,0-.48-.08-.58-.22.14-.23.53-.38.75-.5l1.13-.61a3.6,3.6,0,0,0,1-.55c.15-.16.09-.32.07-.54,0-.73-.24-1.46-.3-2.2,0-.2-.21-1,.07-1.15.07,0,.29.07.35.09a3.2,3.2,0,0,1,.87.38C98.29,151,98.86,151.54,99.52,151.94Z"/><path class="l" d="M111.26,134.23c.67-1.39,1-3,1.62-4.37.27-.56.49-1.17.77-1.72a8,8,0,0,1,1.08,2.89c.21.81.48,1.59.64,2.42a2.27,2.27,0,0,0,.16.73c.23.31,1,.38,1.44.44,1.08.16,2.17.31,3.25.42.64.06,1,.19.46.73a19.61,19.61,0,0,1-3.8,2.65c-.2.13-.69.37-.72.63s.31.75.39,1c.32.79.68,1.56.93,2.38a4.12,4.12,0,0,1,.34,1.22,4.86,4.86,0,0,1-2.59-1.5,15.75,15.75,0,0,0-1.44-1.27.78.78,0,0,0-.41-.19c-.25,0-.5.25-.69.39-.66.49-1.3,1-2,1.42a19.69,19.69,0,0,1-2.13,1.24c-.21.1-.65.35-.89.28a2.84,2.84,0,0,1,.44-1.29c.27-.58.51-1.17.78-1.75a6,6,0,0,0,.72-1.61c0-.32-.19-.46-.41-.7-.74-.84-1.63-1.53-2.38-2.36-.2-.23-1.16-1-1-1.42,0-.12.4-.19.5-.23a5.07,5.07,0,0,1,1.38-.34C108.9,134.19,110.11,134.37,111.26,134.23Z"/><path class="a" d="M5,121.69c.39-1.45.4-3,.77-4.47.15-.59.25-1.21.42-1.79A7.63,7.63,0,0,1,7.74,118c.35.74.75,1.44,1,2.2a2,2,0,0,0,.29.66c.28.27,1.06.19,1.46.17,1.06,0,2.12-.09,3.18-.18.62-.06.95,0,.56.61a18.22,18.22,0,0,1-3.16,3.23c-.16.15-.59.47-.57.73s.43.66.55.85c.44.7.93,1.38,1.32,2.11a4.13,4.13,0,0,1,.54,1.12,4.82,4.82,0,0,1-2.75-1,13.61,13.61,0,0,0-1.61-1,.7.7,0,0,0-.42-.11c-.24,0-.43.33-.59.49-.55.59-1.07,1.18-1.67,1.73a19.21,19.21,0,0,1-1.82,1.56c-.18.14-.56.45-.8.43a2.93,2.93,0,0,1,.19-1.31c.15-.61.28-1.22.44-1.82a5.73,5.73,0,0,0,.39-1.66c0-.32-.26-.41-.51-.61-.86-.66-1.83-1.17-2.7-1.83-.24-.18-1.3-.74-1.19-1.19,0-.11.36-.25.44-.3a4.81,4.81,0,0,1,1.26-.58C2.73,122.08,3.92,122,5,121.69Z"/><path class="a" d="M10.32,117.21l-.13,0a.51.51,0,0,1-.37-.62,23.09,23.09,0,0,1,2.75-6.64,32.66,32.66,0,0,1,7.12-8,23.43,23.43,0,0,1,2.07-1.45,21.71,21.71,0,0,0,2-1.41.53.53,0,0,1,.73.08.51.51,0,0,1-.08.73,23.27,23.27,0,0,1-2.1,1.47,22.59,22.59,0,0,0-2,1.38,31.78,31.78,0,0,0-6.9,7.7,22.08,22.08,0,0,0-2.62,6.34A.52.52,0,0,1,10.32,117.21Z"/><path class="a" d="M12,118.47l-.16,0a.52.52,0,0,1-.33-.65,5.73,5.73,0,0,1,.67-1.28,31.65,31.65,0,0,1,7.41-7.58,41.18,41.18,0,0,1,9.7-5.67c.36-.15,1.46-.64,1.62-.74a.52.52,0,0,1,.71.14.5.5,0,0,1-.12.7c-.26.19-1.79.85-1.81.86a39.93,39.93,0,0,0-9.47,5.52,31.11,31.11,0,0,0-7.17,7.33,4.57,4.57,0,0,0-.56,1A.52.52,0,0,1,12,118.47Z"/><path class="a" d="M296.61,25.89c1-1.09,1.77-2.46,2.79-3.57.41-.45.8-.95,1.22-1.38a7.62,7.62,0,0,1,.14,3c0,.81,0,1.62-.11,2.43a2.21,2.21,0,0,0-.07.72c.13.36.86.67,1.21.84.95.47,1.92.93,2.89,1.35.58.24.84.46.21.81a19.59,19.59,0,0,1-4.31,1.34c-.22.06-.75.13-.85.37s.06.79.07,1c.06.83.18,1.66.17,2.49a4.58,4.58,0,0,1-.05,1.23c-.81-.27-1.58-1.46-2-2.16a13,13,0,0,0-1-1.6.75.75,0,0,0-.31-.3c-.24-.08-.54.09-.76.16-.76.26-1.51.53-2.29.73a23.25,23.25,0,0,1-2.34.52c-.23,0-.71.13-.91,0a2.87,2.87,0,0,1,.79-1.07c.42-.46.82-.93,1.24-1.39a5.78,5.78,0,0,0,1.14-1.28c.13-.28,0-.48-.17-.77-.44-1-1.06-1.9-1.51-2.89-.12-.27-.79-1.27-.48-1.61.08-.09.43-.05.53-.06a4.57,4.57,0,0,1,1.38.09C294.42,25.15,295.5,25.68,296.61,25.89Z"/><path class="a" d="M303.66,24.52a.51.51,0,0,1-.35-.13.52.52,0,0,1,0-.73,23.22,23.22,0,0,1,5.57-4.55,32.65,32.65,0,0,1,10-3.62,24.5,24.5,0,0,1,2.51-.3,21.41,21.41,0,0,0,2.44-.28.51.51,0,0,1,.6.41.51.51,0,0,1-.41.6,24.93,24.93,0,0,1-2.55.3,24.15,24.15,0,0,0-2.4.28A31.72,31.72,0,0,0,309.36,20,22,22,0,0,0,304,24.36.51.51,0,0,1,303.66,24.52Z"/><path class="a" d="M304.56,26.44a.49.49,0,0,1-.37-.16.52.52,0,0,1,0-.73,5.4,5.4,0,0,1,1.19-.8,31.53,31.53,0,0,1,10.12-3.17,40.94,40.94,0,0,1,11.23-.4c.37,0,1.6.14,1.78.11a.54.54,0,0,1,.56.46.52.52,0,0,1-.44.57c-.32,0-2-.11-2-.11a40.07,40.07,0,0,0-10.95.38,30.9,30.9,0,0,0-9.79,3.06,4.18,4.18,0,0,0-1,.65A.56.56,0,0,1,304.56,26.44Z"/><path class="a" d="M518.54,209.07c-1-1.09-1.78-2.46-2.8-3.57-.41-.45-.79-.95-1.22-1.38a8,8,0,0,0-.14,3c0,.82,0,1.62.12,2.43a2,2,0,0,1,.06.73c-.12.36-.85.66-1.2.84-1,.47-1.92.92-2.89,1.34-.58.25-.84.47-.21.81a18.78,18.78,0,0,0,4.31,1.35c.21,0,.74.13.85.37a3.16,3.16,0,0,1-.08,1c-.06.83-.17,1.65-.16,2.49a3.89,3.89,0,0,0,.05,1.23c.81-.27,1.57-1.46,2-2.16a14.41,14.41,0,0,1,1-1.6.84.84,0,0,1,.32-.3c.24-.08.54.09.76.16.76.26,1.5.53,2.28.73a20.92,20.92,0,0,0,2.35.51c.22,0,.71.14.9,0-.07-.39-.53-.8-.78-1.07l-1.25-1.39a5.78,5.78,0,0,1-1.14-1.28c-.12-.29,0-.48.17-.77.44-1,1.06-1.9,1.51-2.89.13-.27.79-1.27.49-1.61-.08-.09-.43-.05-.53-.06a4.63,4.63,0,0,0-1.39.09C520.72,208.33,519.65,208.85,518.54,209.07Z"/><path class="a" d="M511.49,207.7a.48.48,0,0,1-.38-.17,22.17,22.17,0,0,0-5.32-4.34,31.69,31.69,0,0,0-9.72-3.51,21.24,21.24,0,0,0-2.4-.28,24.93,24.93,0,0,1-2.55-.3.53.53,0,0,1-.41-.61.52.52,0,0,1,.61-.41,20.88,20.88,0,0,0,2.44.29,24.5,24.5,0,0,1,2.51.3,32.05,32.05,0,0,1,10,3.62,23.41,23.41,0,0,1,5.57,4.55.52.52,0,0,1,0,.73A.53.53,0,0,1,511.49,207.7Z"/><path class="a" d="M510.59,209.62a.54.54,0,0,1-.36-.14,4.94,4.94,0,0,0-1-.66,31.26,31.26,0,0,0-9.79-3,40.16,40.16,0,0,0-11-.38s-1.68.15-2,.11a.52.52,0,0,1,.12-1c.18,0,1.4-.07,1.77-.11a40.94,40.94,0,0,1,11.23.39,32,32,0,0,1,10.12,3.17,5.57,5.57,0,0,1,1.19.81.51.51,0,0,1,0,.73A.5.5,0,0,1,510.59,209.62Z"/><path class="i" d="M374.15,61.79c-2,.11-4.18-.59-6.22-.72-3.6-.22-7.22-.14-10.82-.41-4.17-.32-8.35-.69-12.53-.69-10,0-20.07.45-30.11-.06a89.35,89.35,0,0,0-9.54.13,22.86,22.86,0,0,1-4.9-.16c6-.23,10.35-4.55,15-7.84,2.14-1.52,4.63-3,7.36-2.6a16.82,16.82,0,0,1,6.23,2.79c1.19.76,2.39,2,3.69,2.52,2.14.85,3.45-1.22,4.67-2.64,2.63-3.08,5.13-5.4,9.43-4.71,2.88.46,4.42,3.16,5.13,5.77.46,1.69.4,2.7,2.36,2.33,2.86-.53,5.41-1.11,8.22-.06a14.25,14.25,0,0,1,3.53,2.13C368.3,59.66,371.34,61.85,374.15,61.79Z"/><path class="i" d="M226.05,80.54c-1.64-.56-4.12-.07-5.81-.09-4.9-.06-9.75-.77-14.64-1-5-.24-10.07-.39-15.11-.75a56,56,0,0,0-6.35,0,9.81,9.81,0,0,1-2.76,0c7.13-1.73,7.68-12,15.33-13.19a9.33,9.33,0,0,1,8.64,3.11c1.26,1.59,1.6,4.11,3.26,5.33,1.4-.73,2.32-2.59,3.64-3.54a4.12,4.12,0,0,1,4.37-.49c2,1.05,2.44,3.09,2.84,5.12.36,1.85,1.38,2.58,3,3.56s3.84,2,5.61,2"/><path class="a" d="M123.22,177.9c2.26-4,4.2-8.06,6.64-11.94l2.95-4.62c1.35-.39,4,2.16,5,2.64,1.68.8,3.28,2.74,4.78,3.89a.23.23,0,0,1,0,.3c-1.41,2.19-3.23,3.29-4.95,5.23s-3.93,3.74-5.24,5.78a.23.23,0,0,0,.1.33c1.52.72,5.32,3.28,4.84,4.8-.19.61-1.63,1.61-2.06,2-1.86,1.65-3.91,3-5.85,4.46-1.64,1.25-3.81,3.29-5.71,4.24a.22.22,0,0,1-.26-.34c1.39-1.72,2.44-4,3.85-5.69a31.21,31.21,0,0,0,2.78-4.6c.07-.14-.45-.25-.6-.3-1.79-.6-3.25-2-5.11-3C123,180.26,122.54,179.31,123.22,177.9Z"/><path class="g" d="M231.15,237.39a17.54,17.54,0,0,0,2-5.45,16.88,16.88,0,0,0-1.31-8.27,22.73,22.73,0,0,0-3.2-6.09,31,31,0,0,0-7.28-6.21L210.59,204c-4.59-3.16-9.26-6.37-14.56-8.07-4.75-1.53-10-1.84-14.24-4.39a5.66,5.66,0,0,0,1.44,3,25.58,25.58,0,0,0-6.29.35,32.49,32.49,0,0,1-20.81-5,8.94,8.94,0,0,0,3.55,6.18,27,27,0,0,0,6.44,3.47L176.49,204a25.86,25.86,0,0,1-5.7-.09c2.42.29,4.4,2.11,5.71,4.16s2.07,4.4,3.16,6.57a25.18,25.18,0,0,0,7.55,8.94,16,16,0,0,1,3.65,3.09,12.24,12.24,0,0,1,1.59,3.6,34.7,34.7,0,0,0,4.54,10A25.46,25.46,0,0,0,207,248a10.25,10.25,0,0,0,6.14,1.25,21.28,21.28,0,0,1,3.56-.88c1.49,0,3.2.76,4.36-.18,1.52-1.24,1.51-1.53,3.48-1.88,1.28-.23,1.49-.16,2.27-1.2A57.1,57.1,0,0,0,231.15,237.39Z"/><path class="c" d="M221,216.16a6,6,0,0,0-4.45-2.91,25.82,25.82,0,0,0-3.78.52c-1.26.13-2.76-.26-3.26-1.42a14.9,14.9,0,0,1-.32-2.61c-.46-2-2.86-2.7-4.87-2.77s-4.27.09-5.78-1.25a17.71,17.71,0,0,1-1.27-1.46c-2.46-2.73-6.69-2.62-10.16-3.84-2.4-.84-4.59-2.4-7.11-2.66,3.33.85,5.2,4.39,8.16,6.14,2.69,1.59,6.45,1.85,8,4.57.77,1.37,1,3.37,2.56,3.76a5.13,5.13,0,0,0,2.18-.24,1.85,1.85,0,0,1,2,.61c.8,2,1,4.33-.11,6.11s-4,2.39-5.43.79c-1.16-1.35-.85-3.56-2.06-4.87-1.46-1.6-4.59-1.23-5.45-3.22a7.73,7.73,0,0,1-.35-1.72,5.64,5.64,0,0,0-2.71-3.53,16.76,16.76,0,0,0-4.26-1.63,5.57,5.57,0,0,1,3,3.38,19.29,19.29,0,0,0,1.95,4.25c1.77,2.38,5.23,3.33,6.39,6.06a10.44,10.44,0,0,1,.59,3.05c.38,3.32,1.43,6.71,3.8,9.07s6.3,3.35,9.17,1.63c1-.57,1.73-1.39,2.63-2.05,2.95-2.17,6.88-2.44,10.23-3.92a5.5,5.5,0,0,0,2.48-1.86C224.08,222.13,222.12,217.92,221,216.16Z"/><path class="g" d="M217.14,204.19c-.65-.63-1.48-1.06-2.14-1.69a4.64,4.64,0,0,1-1.4-2.92,9.59,9.59,0,0,0,.56,4.51c.45,1,1.48,2.55,2.7,2.81C218.6,207.26,218,205,217.14,204.19Z"/><path class="g" d="M185.94,227.13a3.36,3.36,0,0,1-2.15-2.15,26.09,26.09,0,0,0,1.06,3.24,6.36,6.36,0,0,0,1.89,2.76c1,.77,3.3.67,3.09-1S187.23,227.69,185.94,227.13Z"/><path class="g" d="M178,216.23c.15.5.19,1.77.38,2.26.36.95,1.22.88,2.05,1.49-1.3,0-2.74-.19-3.58-1.17a5.29,5.29,0,0,1-.92-2.51A9.77,9.77,0,0,0,175,214C176.21,213.46,177.65,215.19,178,216.23Z"/><path class="g" d="M205.4,197.14a14.67,14.67,0,0,0-2.3-.73,2,2,0,0,1-1.51-1.7,3.33,3.33,0,0,0,2.1,3.11c.58.22,1.22.27,1.82.47a2.61,2.61,0,0,1,1.21.94C207,198.51,206,197.49,205.4,197.14Z"/><path class="g" d="M187.19,189.8a12.45,12.45,0,0,1-2.38-1.15,7.89,7.89,0,0,0,.67,1.71c.43.77,2.38,2.68,3.45,2.13C190.17,191.84,187.77,190.07,187.19,189.8Z"/><path class="g" d="M176.46,192.81c-.87-.33-1.83-1.06-2.76-1,.38,0,.62.42.84.74a4.16,4.16,0,0,0,4.07,1.72A4.41,4.41,0,0,0,176.46,192.81Z"/><path class="g" d="M170.42,206.79a3.16,3.16,0,0,0,.32.89c.32.61,2.58,2.9,3,1.59C173.71,209.35,171.61,207.57,170.42,206.79Z"/><path class="e" d="M225.76,225.12a8.53,8.53,0,0,1,2.16,2.54c.68,1.86-.84,3.73-1.46,5.61-.27.82-.37,1.7-.67,2.51A9.77,9.77,0,0,1,222,240a21.34,21.34,0,0,1-3,1.85,13.3,13.3,0,0,1-11,.17c-2.91-1.29-5.48-4.17-5-7.31a2.42,2.42,0,0,0,0-1,2.72,2.72,0,0,0-.88-1.12,3.74,3.74,0,0,1-.66-4.14c.41-.83,1.12-1.48,1.53-2.32.3-.62.42-1.31.7-1.94.82-1.85,2.82-2.81,4.67-3.63a4.66,4.66,0,0,1,1.53-.46,9.07,9.07,0,0,0,1.87.08,3.69,3.69,0,0,0,1.26-.78,7.76,7.76,0,0,1,5.77-1.52c1.69.25,4,1.25,4.89,2.81S224.46,223.76,225.76,225.12Z"/><path class="g" d="M206.46,227a3.79,3.79,0,0,1,.61-2,1.35,1.35,0,0,1,.54-.52,1.4,1.4,0,0,1,.88,0,1,1,0,0,1,.68.37,1.13,1.13,0,0,1,.11.41l.18,1.4a2.9,2.9,0,0,1,0,.72,1.53,1.53,0,0,1-1,1.23A1.57,1.57,0,0,1,206.46,227Z"/><path class="g" d="M207.26,237.75a3.82,3.82,0,0,1-.44-1.76,2.21,2.21,0,0,1,.68-2,1.89,1.89,0,0,1,1.09-.28,1.92,1.92,0,0,1,1.06.23,2.68,2.68,0,0,1,.65.65l1.09,1.41a2.73,2.73,0,0,1,.44.68,1.64,1.64,0,0,1-1.29,2.31A3.87,3.87,0,0,1,207.26,237.75Z"/><path class="g" d="M202.22,231a3.17,3.17,0,0,1,.06-1.53,1.27,1.27,0,0,1,.28-.57,1,1,0,0,1,1.21,0,1.88,1.88,0,0,1,.63,1.14,3.6,3.6,0,0,1,.08,1.18,1.83,1.83,0,0,1-.2.77C203.6,233.19,202.42,231.83,202.22,231Z"/><path class="g" d="M218,220.79a.78.78,0,0,1-.08.87,1.2,1.2,0,0,1-.3.15q-1,.36-2,.63a1.33,1.33,0,0,1-1,0,1.21,1.21,0,0,1-.47-1.1,1.61,1.61,0,0,1,.16-.78,1.54,1.54,0,0,1,.48-.47A2,2,0,0,1,218,220.79Z"/><path class="g" d="M224.61,233.6a2,2,0,0,0,.6,2.22.59.59,0,0,0,.27.14c.28.06.46-.23.54-.51a2.22,2.22,0,0,0,.09-.81,2.77,2.77,0,0,1,.38-1.41c.15-.34.35-.74.24-.89C226.17,231.61,224.81,233.06,224.61,233.6Z"/><path class="g" d="M217.78,236.46a1.11,1.11,0,0,1-1-.75,1.74,1.74,0,0,1-.12-1.32,1.11,1.11,0,0,1,1-.75,1.21,1.21,0,0,1,1,1.13,3,3,0,0,1-.42,1.57.23.23,0,0,1-.08.11c-.16.11-.38-.15-.54,0"/><path class="g" d="M215.16,228.09a.8.8,0,0,1-.1,1.18.47.47,0,0,1-.42.08.55.55,0,0,1-.29-.47.85.85,0,0,1,.2-.78c.21-.19.62-.16.71.11"/><path class="g" d="M222.75,229.83a1.31,1.31,0,0,1,0-.83.94.94,0,0,1,.57-.58.53.53,0,0,1,.33,0,.59.59,0,0,1,.27.31,1.31,1.31,0,0,1,.1,1,.84.84,0,0,1-.71.59.6.6,0,0,1-.64-.58"/><rect class="p" x="-0.59" y="0.13" width="524.41" height="269.29"/></svg>