<svg id="troscolrect_jungle_v3" xmlns="http://www.w3.org/2000/svg" viewBox="0 0 524.41 269.29"><defs><style>.cls-1,.cls-17,.cls-19,.cls-21,.cls-34,.cls-39,.cls-40,.cls-44,.cls-46,.cls-47,.cls-48,.cls-51,.cls-6,.cls-9{fill:none;}.cls-2{fill:#fcd2a6;}.cls-3{fill:#c5bcdc;}.cls-4{fill:#fef7ec;}.cls-5{fill:#6bc1b0;}.cls-19,.cls-39,.cls-40,.cls-51,.cls-6{stroke:#3d3d3b;}.cls-17,.cls-19,.cls-21,.cls-34,.cls-39,.cls-40,.cls-44,.cls-46,.cls-47,.cls-48,.cls-51,.cls-6,.cls-9{stroke-linecap:round;stroke-linejoin:round;}.cls-6,.cls-9{stroke-width:0.68px;}.cls-7{fill:#e6137f;}.cls-8{fill:#f088a1;}.cls-9{stroke:#211e1e;}.cls-10{fill:#e0b491;}.cls-11{fill:#c58259;}.cls-12{fill:#fff;}.cls-13{fill:#59200f;}.cls-14{fill:#f6b928;}.cls-15{fill:#f7c4d3;}.cls-16{fill:#1e1e1c;}.cls-17{stroke:#3e3d3c;stroke-width:0.81px;}.cls-18{fill:#585857;}.cls-19{stroke-width:0.85px;}.cls-20{fill:#eab27f;}.cls-21,.cls-34,.cls-44{stroke:#c58259;}.cls-21{stroke-width:0.15px;}.cls-22{fill:#3d3d3b;}.cls-23{fill:#f9eff7;}.cls-24{fill:#f8d3b3;}.cls-25{fill:#903c1f;}.cls-26{fill:#5d3124;}.cls-27{fill:#ba6733;}.cls-28{fill:#fbedcf;}.cls-29{fill:#e61281;}.cls-30{fill:#f8c910;}.cls-31{fill:#cde7df;}.cls-32{fill:#211e1e;}.cls-33{fill:#e94574;}.cls-34{stroke-width:0.22px;}.cls-35{fill:#c0e1d6;}.cls-36{fill:#f5b5d2;}.cls-37{fill:#672f17;}.cls-38{fill:#fec835;}.cls-39{stroke-width:0.67px;}.cls-40{stroke-width:0.78px;}.cls-41{fill:#aa693e;}.cls-42{fill:#fef9fa;}.cls-43{fill:#fff5de;}.cls-44{stroke-width:0.14px;}.cls-45{opacity:0.52;}.cls-46{stroke:#c0e1d6;}.cls-46,.cls-47{stroke-width:0.66px;}.cls-47{stroke:#fff;}.cls-48{stroke:#24211d;stroke-width:0.53px;}.cls-49{fill:#fde8d9;}.cls-50{fill:#f7dfe7;}.cls-51{stroke-width:0.58px;}</style></defs><path class="cls-1" d="M318.53,47.8v.1"/><rect class="cls-2" x="344.22" y="229.84" width="4.55" height="37.65" rx="1.65" transform="translate(-79.91 257.01) rotate(-36.79)"/><circle class="cls-3" cx="325.08" cy="220.84" r="18.44"/><path class="cls-4" d="M334.16,208.52a1.33,1.33,0,0,1,1.47-.27,3.34,3.34,0,0,1,1.11,1l4.13,5.23a2.63,2.63,0,0,0,.66.67.91.91,0,0,0,.9.06c.65-.37-.05-1.41-.32-1.82-.78-1.21-1.34-2.53-2.06-3.77-4.09-7.1-12.6-9.23-20.1-6.75s-14.81,10.51-13.44,19.45c.51,3.31,1.13,5.93,3.13,8.62a6.17,6.17,0,0,0,1.52,1.58c.66.43,1.25-.23,1.21-.87-.05-1-.86-2-1.32-2.82a21.4,21.4,0,0,1-1.81-5.68c-.29-1.34.91-.24,1.22.19s.68,1.18,1,1.75c.9,1.46,1.82,2.91,2.8,4.33a2.83,2.83,0,0,0,.9.95,1,1,0,0,0,1.22-.12c.36-.41.17-1-.05-1.55-.36-.86-.69-1.75-1.05-2.61a8.19,8.19,0,0,0-.64-1c-.22-.35-.33-.83-.56-1.16a1.39,1.39,0,0,1-.1-.94c.3-.64,1.21-.12,1.61.2a4,4,0,0,0,1.36.89,2.38,2.38,0,0,0,1.92-.55,1.52,1.52,0,0,0,.61-.74c.13-.45-.11-.94-.06-1.41a1.75,1.75,0,0,1,1.07-1.36c.67-.15,1.25.65,1.67,1.11,1.2,1.32,2.06,2.91,3.17,4.3a3.33,3.33,0,0,0,1.19,1.05,1.32,1.32,0,0,0,1.48-.22,1.34,1.34,0,0,0,.2-1.3,4.25,4.25,0,0,0-.69-1.18c-.79-1.07-1.54-2.16-2.24-3.29a1.16,1.16,0,0,1-.23-.55.42.42,0,0,1,.33-.44.61.61,0,0,1,.34.14c.38.29.68.65,1,1a2,2,0,0,0,1.24.58,1,1,0,0,0,1-.81,1.65,1.65,0,0,0-.46-1,14,14,0,0,1-2-4.13,3.46,3.46,0,0,1-.26-1.73c.2-1.18,1.42-1.21,2.32-.71a8.47,8.47,0,0,1,2.3,2.6c1.27,1.81,2.56,4,5.07,4.06a.9.9,0,0,0,.46-.09.93.93,0,0,0,.31-.42c1-2.52-1.61-5-2.75-6.89a3.24,3.24,0,0,1-.55-2.48A2.29,2.29,0,0,1,334.16,208.52Z"/><path class="cls-5" d="M308.19,217.86a.92.92,0,0,0-.41.37.33.33,0,0,0,.17.47.45.45,0,0,0,.28,0l1.68-.52a1.4,1.4,0,0,0,.4-.16.54.54,0,0,0,.26-.45C310.52,216.73,308.52,217.68,308.19,217.86Z"/><path class="cls-5" d="M318.85,218.4c.21,0,.5,0,.51-.25a.43.43,0,0,0-.2-.3c-.29-.25-2.1-1.78-2.27-1S318.39,218.33,318.85,218.4Z"/><path class="cls-5" d="M319.78,207c.22,0,.52,0,.53-.26s-.1-.23-.2-.32c-.31-.25-2.2-1.86-2.38-1C317.59,206.15,319.3,207,319.78,207Z"/><path class="cls-5" d="M331.92,205.42c.19,0,.45,0,.45-.22a.34.34,0,0,0-.17-.27c-.26-.21-1.84-1.55-2-.83S331.52,205.36,331.92,205.42Z"/><path class="cls-5" d="M309.21,226.42c.19,0,.44,0,.45-.21a.4.4,0,0,0-.17-.27c-.26-.21-1.83-1.55-2-.83S308.81,226.36,309.21,226.42Z"/><path class="cls-5" d="M330.55,209.85a1.17,1.17,0,0,1,.09-.45.43.43,0,0,1,.37-.24c.26,0,.37.33.42.58a10.8,10.8,0,0,1,.17,1.89,1.19,1.19,0,0,1-.19.77C330.47,213.53,330.53,210.19,330.55,209.85Z"/><path class="cls-5" d="M323.91,217.05a1.07,1.07,0,0,1,.27-.29.35.35,0,0,1,.38,0c.18.13.13.41.05.61a8.75,8.75,0,0,1-.73,1.47,1,1,0,0,1-.49.49C322.2,219.73,323.74,217.29,323.91,217.05Z"/><path class="cls-5" d="M324.17,210.12a.15.15,0,0,1,.15-.07,2.36,2.36,0,0,0-1.92,1.46.38.38,0,0,0,0,.21c.05.18.31.16.49.09a4.81,4.81,0,0,0,1.48-.91.61.61,0,0,0,.23-.3.26.26,0,0,0-.13-.33"/><path class="cls-5" d="M324.05,205.05a.7.7,0,0,1-.09-.35.27.27,0,0,1,.2-.27.38.38,0,0,1,.23.06,4,4,0,0,1,1.52,1.67.92.92,0,0,1,.16.57C325.92,207.75,324.2,205.36,324.05,205.05Z"/><path class="cls-5" d="M314,219.93a2.13,2.13,0,0,0-1.32.07.76.76,0,0,0-.36.25.33.33,0,0,0,0,.41.45.45,0,0,0,.25.09,2.94,2.94,0,0,0,1.55-.18c.18-.07.38-.22.32-.41s-.3-.2-.5-.18"/><path class="cls-5" d="M316.33,211.86a2.23,2.23,0,0,0-.13,1.35.79.79,0,0,0,.2.41.33.33,0,0,0,.42,0,.44.44,0,0,0,.13-.24,2.9,2.9,0,0,0,.06-1.6c-.05-.19-.17-.42-.37-.4s-.26.29-.27.49"/><path class="cls-5" d="M312.94,224.6a2.52,2.52,0,0,0-.1,1.49.85.85,0,0,0,.21.45.35.35,0,0,0,.44.06.48.48,0,0,0,.14-.25,3.5,3.5,0,0,0,0-1.76c-.05-.22-.19-.48-.4-.45s-.26.3-.27.52"/><path class="cls-5" d="M310.62,212.43a4.38,4.38,0,0,0,1.19-.58,1.06,1.06,0,0,0,.55-.93c0-.07-.05-.14-.11-.16a.22.22,0,0,0-.16,0,4.13,4.13,0,0,0-1.52.94.76.76,0,0,0-.24.34.31.31,0,0,0,.12.37"/><path class="cls-5" d="M335.57,207.66a3.91,3.91,0,0,0,1.32.05,1,1,0,0,0,.92-.56.23.23,0,0,0,0-.2.28.28,0,0,0-.15-.06,4.11,4.11,0,0,0-1.78.11.85.85,0,0,0-.38.19.32.32,0,0,0-.07.38"/><path class="cls-6" d="M320.61,231.74a1.1,1.1,0,0,0,.78.89,2.15,2.15,0,0,0,1.23,0,3,3,0,0,0,1.56-1,1.88,1.88,0,0,0,.33-1.76c-.07-.17-.19-.35-.37-.36"/><path class="cls-6" d="M333.37,222.87a1.11,1.11,0,0,0,.78.89,2.15,2.15,0,0,0,1.23,0,3,3,0,0,0,1.56-1,1.85,1.85,0,0,0,.33-1.76c-.06-.17-.19-.35-.37-.36"/><path class="cls-6" d="M328.74,232.71a1.51,1.51,0,0,0,1.88.4,2.1,2.1,0,0,0,1-2.66,1.6,1.6,0,0,0,2,.14,2.32,2.32,0,0,0,1.1-1.19,1.48,1.48,0,0,0-.3-1.53"/><rect class="cls-2" x="360.38" y="230.09" width="4.74" height="34.37" rx="1.55" transform="translate(-48.83 94.52) rotate(-13.92)"/><circle class="cls-7" cx="354.28" cy="215.96" r="17.27"/><path class="cls-4" d="M342.94,202.92a1.85,1.85,0,0,0-.4.39,1.41,1.41,0,0,0-.14.58c0,.22,0,.44-.09.66-.09.61-.11,1.2-.21,1.81a23.07,23.07,0,0,1-.88,3.67.78.78,0,0,1-1.22.29,2.39,2.39,0,0,1-.39-1.6c0-.68.1-1.34.1-2,0,0-.09.11-.11.14l-.11.18-.18.33c-.13.26-.28.51-.41.76s-.34.71-.5,1.07c-.08.17-.15.34-.22.52a1.26,1.26,0,0,0-.13.43c.48,1.86,1.69,3.46,4,2.52a2.85,2.85,0,0,0,1.56-1.69,18.09,18.09,0,0,0,.73-4.77c.07-.77.09-1.52.21-2.29.08-.5.16-1.13.29-1.62,0-.17.11-.84.11-.84a6.43,6.43,0,0,1-.64.43c-.22.15-.43.32-.65.48s-.42.34-.62.52Z"/><path class="cls-4" d="M356,198.78c-.88,3.89-.15,9.43-.61,11.15a.72.72,0,0,1-1,.44c-1-.47-1.58-2.44-1.73-3.26-.5-2.71-.37-5.26-.74-8.26l-1.62.3-.67.17c1.24,4.42.5,10,4,13.53a2,2,0,0,0,1.53.74c.91-.09,1.37-1,1.58-1.81.3-1.13.78-8.2,2-12.48a13.9,13.9,0,0,0-2-.42C356.58,198.84,356.34,198.81,356,198.78Z"/><path class="cls-4" d="M366.93,204.21a3.22,3.22,0,0,1-.28.24,1.11,1.11,0,0,1-1.5.15,1.15,1.15,0,0,1-.33-.61,8.34,8.34,0,0,1-.23-1.88l-.35-.25c-.52-.35-.76-.51-1.41-.9a11.39,11.39,0,0,0,.45,3.25,3.15,3.15,0,0,0,1.6,2,3.39,3.39,0,0,0,2.92-.22,4.1,4.1,0,0,0,.41-.26A17.61,17.61,0,0,0,366.93,204.21Z"/><path class="cls-8" d="M371.87,217.16c-.52.87-2.36,1.72-3.3,2.19-4.18,2.14-9.2,3-13.85,3.91A104.22,104.22,0,0,1,343.54,225c-1.46.12-4.4.55-5.05-.59a13.65,13.65,0,0,1-2-6.1,16.09,16.09,0,0,1,2.6-.05c.92,0,1.85-.08,2.77-.17a98.28,98.28,0,0,0,12.8-2.35,86.6,86.6,0,0,0,11.47-3,26.12,26.12,0,0,0,5.26-2.63,14.2,14.2,0,0,0,.55,1.81,12.16,12.16,0,0,1,.22,1.7,25.11,25.11,0,0,1-.12,3.12A.86.86,0,0,1,371.87,217.16Z"/><path class="cls-9" d="M355.29,227.59a1.09,1.09,0,0,0,.55,1,2.1,2.1,0,0,0,1.21.25,2.93,2.93,0,0,0,1.74-.58,1.88,1.88,0,0,0,.72-1.64.49.49,0,0,0-.28-.44"/><path class="cls-6" d="M367,218a9.93,9.93,0,0,0-3.89,3.39l4.79-.71"/><path class="cls-6" d="M345.6,222.84a9.35,9.35,0,0,1,3.92.7,2.51,2.51,0,0,1,1.29,1,22.38,22.38,0,0,0-4.73,1.41l.22-.08"/><path class="cls-10" d="M78.79,37.73a1.77,1.77,0,0,0-.07-.31,4.43,4.43,0,0,1-2.66,2.43c-1.7.72-3.62,1-5.08,2.1-2.57,2-2.62,5.66-4.35,8.35s-4.83,4-7.87,4.83-6.22,1.16-9.12,2.42c-1.65.72-3.17,1.71-4.79,2.48a19,19,0,0,1-13,1.21C29,60.46,26.09,59,23.25,60c-1.87.69-3.52,2.43-5.45,2.16a3.75,3.75,0,0,1-2.63-2.13c-.54-1-.83-2.17-1.36-3.2a2.54,2.54,0,0,0-1.26-1.3A6,6,0,0,0,11,55.42a4.35,4.35,0,0,1-3.35-2.33C6.38,58.75,10.52,66,14,68.82s14.79,8.05,35.33,2.27,25.87-13.63,28.9-19C81.53,46.27,79.24,38.59,78.79,37.73Z"/><path class="cls-7" d="M60.16,30.93c15.62,1,18.15,5.3,18.56,6.49,1.22-3.34-3.4-8.06-6.11-9.64a18.84,18.84,0,0,0-4.36-1.84c-5.15-1.46-10.7-1.25-16-1.92-3.09-.39-6.17-1.07-9.31-.86-6.34.43-11.92,4.37-17.71,7.14-4.19,2-8.73,3.51-12.26,6.51A17,17,0,0,0,6.88,49a8.22,8.22,0,0,0,.78,4.11C9,47.42,42,29.79,60.16,30.93Z"/><path class="cls-7" d="M11,55.42a6,6,0,0,1,1.54.15,2.54,2.54,0,0,1,1.26,1.3c.53,1,.82,2.17,1.36,3.2A3.75,3.75,0,0,0,17.8,62.2c1.93.27,3.58-1.47,5.45-2.16,2.84-1,5.79.42,8.62,1.2a19,19,0,0,0,13-1.21c1.62-.77,3.14-1.76,4.79-2.48,2.9-1.26,6.07-1.62,9.12-2.42s6.18-2.22,7.87-4.83S68.41,43.92,71,42c1.46-1.12,3.38-1.38,5.08-2.1a4.43,4.43,0,0,0,2.66-2.43c-.41-1.19-2.94-5.52-18.56-6.49C42,29.79,9,47.42,7.66,53.09A4.35,4.35,0,0,0,11,55.42Zm18.31-8.21c1.37-1.53,3.84-1.63,5.41-3,1.36-1.16,1.87-3.09,3.38-4.05a5.08,5.08,0,0,1,1.69-.63,9.22,9.22,0,0,1,4.05.06c1.48.36,2.92,1.11,4.47.86s3-1.6,4.56-2,4.26.15,3.16,2.08a16,16,0,0,1-4.41,4.53,20.17,20.17,0,0,1-2.23,1.37,28.18,28.18,0,0,1-5,2.52,15.32,15.32,0,0,1-2.8.85h-.1a13.62,13.62,0,0,1-5.13.18,22.25,22.25,0,0,1-6.45-1.33c-.43-.16-.92-.44-.88-.9A1,1,0,0,1,29.32,47.21Z"/><path class="cls-11" d="M41.59,49.82a15.32,15.32,0,0,0,2.8-.85,20.19,20.19,0,0,1-2.9.86Z"/><path class="cls-11" d="M29.91,48.68A22.25,22.25,0,0,0,36.36,50a12.55,12.55,0,0,1-1.47-.35c-.46-.15-.25-.93,0-1.34a2.56,2.56,0,0,1,.85-.75A28,28,0,0,1,50,43.07a4.51,4.51,0,0,1,3.07.7,31.41,31.41,0,0,1-3.71,2.68,20.17,20.17,0,0,0,2.23-1.37A16,16,0,0,0,56,40.55c1.1-1.93-1.67-2.45-3.16-2.08s-2.93,1.74-4.56,2-3-.5-4.47-.86a9.22,9.22,0,0,0-4.05-.06,5.08,5.08,0,0,0-1.69.63c-1.51,1-2,2.89-3.38,4.05-1.57,1.34-4,1.44-5.41,3a1,1,0,0,0-.29.57C29,48.24,29.48,48.52,29.91,48.68Z"/><path class="cls-12" d="M38.13,50.08c-.59,0-1.18,0-1.77-.07a13.62,13.62,0,0,0,5.13-.18A17.23,17.23,0,0,1,38.13,50.08Z"/><path class="cls-12" d="M44.39,49a28.18,28.18,0,0,0,5-2.52c-.22.13-.44.26-.67.38A39.69,39.69,0,0,1,44.39,49Z"/><path class="cls-3" d="M73,34a.41.41,0,0,0-.13-.22.39.39,0,0,0-.24,0c-1.31.16-3.62,0-4.89.4-.29.09.41.49.18.67a.84.84,0,0,0-.37.75.78.78,0,0,0,.61.6,2.42,2.42,0,0,0,.93,0,23.53,23.53,0,0,0,4-1C73.57,35,73.1,34.24,73,34Z"/><path class="cls-5" d="M46.37,31.56a.15.15,0,0,0-.12,0s0,.05-.07.09c-.14.27-.28.55-.41.84a.39.39,0,0,0,0,.35.34.34,0,0,0,.12.12,5.67,5.67,0,0,1,1,1.11A5.86,5.86,0,0,0,48,35a.8.8,0,0,0,.39.18.44.44,0,0,0,.33-.19,2.28,2.28,0,0,0,.4-.62c.28-.58-.65-1.16-1-1.47A7.35,7.35,0,0,0,46.37,31.56Z"/><path class="cls-3" d="M20.12,39.92a.42.42,0,0,0-.29-.14.46.46,0,0,0-.24.12,11.51,11.51,0,0,0-2.95,3.2,2.31,2.31,0,0,0-.37,1,.88.88,0,0,0,.38.87c.51.28,1.16-.11,1.62-.51a10.79,10.79,0,0,0,2-2.29C21,41,21,40.76,20.12,39.92Z"/><path class="cls-13" d="M20.51,51.39a2,2,0,0,1,.89,0,.66.66,0,0,1,.48.64c-.05.46-.64.65-1.1.78-1.41.42-2.63,1.37-4,1.79a.58.58,0,0,1-.5,0,.44.44,0,0,1-.16-.26C15.37,52,19,51.59,20.51,51.39Z"/><path class="cls-5" d="M33.75,54.67a1.34,1.34,0,0,1,.66.19c.37.28.34.82.28,1.28a20.11,20.11,0,0,1-2.71.92,21,21,0,0,1-3.59.65.45.45,0,0,1-.28,0,.41.41,0,0,1-.15-.27C27,53.88,31.72,54.48,33.75,54.67Z"/><path class="cls-13" d="M54.31,50a11.2,11.2,0,0,1-1.7,2.13A9,9,0,0,1,49.18,54a.48.48,0,0,1-.28.06.48.48,0,0,1-.27-.19c-.19-.23-.39-.5-.3-.78a1,1,0,0,1,.39-.44L52,50.23a3.78,3.78,0,0,1,1.45-.86C53.72,49.35,54.57,49.62,54.31,50Z"/><path class="cls-3" d="M40.83,26.1a.52.52,0,0,0-.22.12.44.44,0,0,0,0,.32c0,.41.15.88.52,1.06a1.38,1.38,0,0,0,.83,0c1.25-.22,5-.33,5-1.93s-1.3-.85-2.34-.61A36.55,36.55,0,0,0,40.83,26.1Z"/><path class="cls-14" d="M33.4,34.2a2,2,0,0,0-1.12-1,17.26,17.26,0,0,0-3.55,1.52,2,2,0,0,0-.49.33.53.53,0,0,0-.12.45c0,.38.12.82.72.89a3.58,3.58,0,0,0,1.41-.27A8.42,8.42,0,0,0,33.63,34"/><path class="cls-14" d="M25.5,46l-.63-.69a4.94,4.94,0,0,0-2.09,1.29.79.79,0,0,0-.17.25.69.69,0,0,0,0,.35l.21.63A.3.3,0,0,0,23,48a.38.38,0,0,0,.34,0,7.09,7.09,0,0,0,2.28-1.57"/><path class="cls-5" d="M62.26,44a2.24,2.24,0,0,1,1,.39.77.77,0,0,1,.22,1,.79.79,0,0,1-.31.26,2.16,2.16,0,0,1-1.44.11,14.15,14.15,0,0,0-1.44-.3c-.33,0-.67,0-1-.06a1.09,1.09,0,0,1-.8-.52,1.12,1.12,0,0,1,.91-1.5A16.24,16.24,0,0,1,62.26,44Z"/><path class="cls-14" d="M62.79,30a2.28,2.28,0,0,1,.83.36.7.7,0,0,1-.21,1.29,2.1,2.1,0,0,1-.75,0,7.31,7.31,0,0,1-2.5-.71.74.74,0,0,1,.21-1.41A5.52,5.52,0,0,1,62.79,30Z"/><path class="cls-3" d="M41.88,56.67c.36.23.74.57.71,1a1.36,1.36,0,0,1-.52.83.78.78,0,0,1-.64.3c-.2,0-.33-.22-.47-.37-.67-.74-1.85-1-2.28-1.89-.36-.74.28-1.15.92-.95A9.17,9.17,0,0,1,41.88,56.67Z"/><path class="cls-12" d="M123.26,75.86s-24-2-37.83,18.32-7.65,38.2.35,47,21.92,8.36,36,3.8,26.8-12.42,32.86-20.16,7.7-14.62,4.87-25S139.35,76.58,123.26,75.86Z"/><path class="cls-12" d="M94.68,85a99.82,99.82,0,0,0-34.28,5.1s.05,17.14,17.28,33.57C77.68,123.71,73.69,102.47,94.68,85Z"/><path class="cls-12" d="M115.58,76.21a94.66,94.66,0,0,1,27.66-21.07s10.88,11.32,10.3,35.13C153.54,90.27,137.85,72.93,115.58,76.21Z"/><ellipse class="cls-15" cx="144.96" cy="115.77" rx="3.71" ry="3.04" transform="translate(-33.37 64.65) rotate(-22.62)"/><ellipse class="cls-15" cx="99.27" cy="134.41" rx="3.71" ry="3.04" transform="translate(-44.06 48.51) rotate(-22.62)"/><ellipse class="cls-16" cx="138.45" cy="109.47" rx="4.59" ry="4.6" transform="translate(-19.99 31.7) rotate(-12.19)"/><ellipse class="cls-12" cx="137.08" cy="108.38" rx="1.9" ry="1.91" transform="translate(-19.79 31.39) rotate(-12.19)"/><circle class="cls-12" cx="141.59" cy="110.13" r="0.77" transform="translate(-20.06 32.38) rotate(-12.19)"/><ellipse class="cls-16" cx="100.43" cy="125.25" rx="4.59" ry="4.6" transform="translate(-24.18 24.03) rotate(-12.19)"/><circle class="cls-12" cx="103.54" cy="125.52" r="0.77" transform="translate(-24.17 24.69) rotate(-12.19)"/><ellipse class="cls-12" cx="98.98" cy="124.18" rx="1.9" ry="1.91" transform="matrix(0.98, -0.21, 0.21, 0.98, -23.99, 23.7)"/><path class="cls-17" d="M128.58,120.71a3.06,3.06,0,0,1-1,3.72,4.18,4.18,0,0,1-5.62-.68c.58,1.31-.37,2.83-1.56,3.64a4.65,4.65,0,0,1-3.11.86,2.91,2.91,0,0,1-2.45-1.92"/><path class="cls-15" d="M79.28,107.37a2.56,2.56,0,0,0,.18-1.09,2.51,2.51,0,0,0-.5-1c-4.47-6.34-11.4-12.55-18.69-15.19.2,1.81.7,4.73.81,5.28a60.76,60.76,0,0,0,2.13,7.21,49.6,49.6,0,0,0,10.1,16.63c.56.64,2.7,3,4,4.17s.51-4,.53-5A36.89,36.89,0,0,1,79.28,107.37Z"/><path class="cls-15" d="M142,81.18a2.6,2.6,0,0,1-.89-.64,2.34,2.34,0,0,1-.38-1.09c-1.33-7.65-.73-17.29,2.56-24.31a33.24,33.24,0,0,1,3.93,5.75A40.25,40.25,0,0,1,149.54,66a65.47,65.47,0,0,1,2.76,9.34c.89,3.32,1.93,15.63,1.24,15C150.72,87.53,145.44,83,142,81.18Z"/><path class="cls-17" d="M91.88,132.54l-7.29,2.66"/><path class="cls-17" d="M93.68,136.47l-5.8,3.87"/><path class="cls-17" d="M158.06,107.83c0,.15-.19.21-.33.25l-6.6,1.62"/><path class="cls-17" d="M157.45,115.29h-.83c-.69,0-1.38,0-2.06,0a12.33,12.33,0,0,1-3.79-.25"/><path class="cls-1" d="M115.58,76.21a94.66,94.66,0,0,1,27.66-21.07s10.88,11.32,10.3,35.13C153.54,90.27,137.85,72.93,115.58,76.21Z"/><path class="cls-1" d="M94.56,84.45a99.79,99.79,0,0,0-34.28,5.1s0,17.14,17.27,33.57C77.55,123.12,73.56,101.88,94.56,84.45Z"/><path class="cls-18" d="M199.39,198.82a16,16,0,0,1-8.54-4.1,18.53,18.53,0,0,1-5.33-12.8c-.21-6.72,2.94-13.62,8.56-17.32s13.63-3.7,18.87.52a19,19,0,0,1,5.91,9.24S203.86,182.29,199.39,198.82Z"/><path class="cls-18" d="M291.25,193.53s5.43-1.38,8.63-5.44a18.58,18.58,0,0,0,3.54-13.41c-.71-6.69-4.77-13.1-10.84-16s-14-1.81-18.63,3.09a19,19,0,0,0-4.6,10S284.57,177.76,291.25,193.53Z"/><path class="cls-15" d="M199.06,189.06a8,8,0,0,1-1.17-2.65c-.36-2,.59-3.92,1.71-5.57A10.8,10.8,0,0,1,205,176.3c2.28-.71,5.15.09,6.15,2.25a1.43,1.43,0,0,1,.17.83,1.92,1.92,0,0,1-.41.72q-2.48,3.06-4.81,6.22c-1.32,1.79-2.72,4.84-4.49,6.11A13.67,13.67,0,0,1,199.06,189.06Z"/><path class="cls-15" d="M279.87,172.75c1.95-1.82,5.05-1.62,7.57-.77a9.32,9.32,0,0,1,3.38,1.86,7,7,0,0,1,1.91,6.25,9.82,9.82,0,0,1-3.47,5.69,1.77,1.77,0,0,1-1.5.54,1.89,1.89,0,0,1-.91-.88,31.14,31.14,0,0,0-5.82-6.57C278.7,176.88,277,175.46,279.87,172.75Z"/><path class="cls-12" d="M220.06,173s23.47-15.84,49-2.18S298.25,207,295,220.9s-17.76,21.42-34.69,24.61-34.39,2.14-44.92-2.61-16.06-11.13-19-23.81S204,182.92,220.06,173Z"/><ellipse class="cls-15" cx="275.38" cy="224.71" rx="5.91" ry="4.45" transform="translate(-21.89 29.88) rotate(-5.97)"/><ellipse class="cls-15" cx="221.06" cy="230.4" rx="5.91" ry="4.45" transform="translate(-22.78 24.26) rotate(-5.97)"/><path class="cls-19" d="M239.16,226a3.55,3.55,0,0,0,3.1,3.25,4.88,4.88,0,0,0,5.38-3.82c.13,1.66,2,2.69,3.62,2.85a5.35,5.35,0,0,0,3.67-.84,3.39,3.39,0,0,0,1.44-3.33"/><path class="cls-18" d="M250.24,220.19a3,3,0,0,1-5.9.61c-.12-1.17,1.1-2.26,2.73-2.43S250.12,219,250.24,220.19Z"/><path class="cls-18" d="M213.26,211.84s1.48-6,9.43-8.55,11.57,1.34,13.16,4.08S238.3,218.17,231,223s-14,2.34-16.64-.44S212.33,214.27,213.26,211.84Z"/><circle class="cls-12" cx="228.72" cy="209.56" r="3.15"/><path class="cls-18" d="M278.49,205.21s-2.69-5.54-11-6.42-11,3.7-12,6.72-.15,11.07,8,14.3,14.19-.61,16.18-3.88S279.9,207.39,278.49,205.21Z"/><circle class="cls-12" cx="262.97" cy="205.98" r="3.15"/><path class="cls-1" d="M220.06,173s23.47-15.84,49-2.18S298.25,207,295,220.9s-17.76,21.42-34.69,24.61-34.39,2.14-44.92-2.61-16.06-11.13-19-23.81S204,182.92,220.06,173Z"/><path class="cls-4" d="M255,166a14.11,14.11,0,0,0-2.5-4.58A4.89,4.89,0,0,0,250,159.6a3.06,3.06,0,0,0-3.58,3.27,6.68,6.68,0,0,0-7.78-1.26,4.41,4.41,0,0,0-1.83,1.59,3.17,3.17,0,0,0,2.55,4.79,2.4,2.4,0,0,0-2.36.62,4.39,4.39,0,0,0-1.16,2.25,4.1,4.1,0,0,0,.59,3.47,4.17,4.17,0,0,0,3.19,1.27,8.07,8.07,0,0,0,3.73-.83"/><path class="cls-1" d="M381.21,33.9a2.19,2.19,0,0,0,.13-1.31"/><path class="cls-20" d="M419.88,73.15c-4.77.55-9.6,1.2-14.35,2.2l-.15.07c-3.86,2.94-7.51,6.17-11.05,9.42-2.46,2.25-1.89,2.64.05,5.21q2.55,3.39,5.14,6.73,5.1,6.57,10.38,13,5.89,7.21,12,14.23a12,12,0,0,0,3.17,2.86,4.47,4.47,0,0,0,6.52-3,12,12,0,0,0-.09-4.26q-1.32-9.21-2.92-18.39-1.41-8.19-3.06-16.36c-.56-2.76-1.13-5.53-1.72-8.29C423.12,73.44,423.19,72.76,419.88,73.15Z"/><path class="cls-21" d="M401.56,99.4l19.26-21"/><path class="cls-21" d="M407.18,106.45Q416.53,96.37,425.59,86"/><path class="cls-21" d="M412.56,112.79q7.88-7.73,15.27-15.93"/><path class="cls-21" d="M418.14,119.5q5.91-5.79,11.41-12"/><path class="cls-21" d="M424.13,126.36c2.51-2.38,4.92-4.87,7.23-7.44"/><path class="cls-21" d="M396.05,91.82a72.82,72.82,0,0,1,5.17-5.37"/><path class="cls-21" d="M418,119.26q6.68,1.63,13.24,3.69"/><path class="cls-21" d="M410.11,110.06c6.26,1.81,13.63,2.45,19.84,4.43"/><path class="cls-21" d="M402.58,100.69A112.42,112.42,0,0,1,429,103.54"/><path class="cls-21" d="M396.18,91.76c10.4,1.39,20.69,1.37,31.07,2.86"/><path class="cls-21" d="M411.78,84.57a9.45,9.45,0,0,1,2-.09c3.85.13,8,1.1,11.82,1.54"/><path class="cls-21" d="M422.33,76.62a10.34,10.34,0,0,1,1.47,0"/><path class="cls-1" d="M419.88,73.15c-4.77.55-9.6,1.2-14.35,2.2l-.15.07c-3.86,2.94-7.51,6.17-11.05,9.42-2.46,2.25-1.89,2.64.05,5.21q2.55,3.39,5.14,6.73,5.1,6.57,10.38,13,5.89,7.21,12,14.23a12,12,0,0,0,3.17,2.86,4.47,4.47,0,0,0,6.52-3,12,12,0,0,0-.09-4.26q-1.32-9.21-2.92-18.39-1.41-8.19-3.06-16.36c-.56-2.76-1.13-5.53-1.72-8.29C423.12,73.44,423.19,72.76,419.88,73.15Z"/><path class="cls-8" d="M424.16,63.92a7.37,7.37,0,0,0-1.1-.43,22,22,0,0,0-.51-4.07c-3-9.43-12.18-16.6-22.05-16.9s-19.62,6.42-22.62,15.83S379,79.2,387.5,84.16c.23.14-.06.31-.36.92-1.14,2.31.17,5.94,2.58,7.09a5.65,5.65,0,0,0,6.74-1.42,13.27,13.27,0,0,0,3.13-7.23c.4,3.87,5.39,6.15,8.93,4.51s5.15-6.12,4.28-9.92A5,5,0,0,0,422,74.42c2.5.22,5.09-.59,5.87-3.12a5.2,5.2,0,0,0,0-2.82A7.16,7.16,0,0,0,424.16,63.92Z"/><path class="cls-22" d="M386.91,71.71A4.08,4.08,0,0,1,394,68.8c.34.35.87-.18.54-.53a4.84,4.84,0,0,0-8.36,3.44.38.38,0,0,0,.75,0Z"/><path class="cls-22" d="M406.57,63.57a4.4,4.4,0,0,1,7.31-3.2c.37.31.91-.22.54-.54a5.17,5.17,0,0,0-8.61,3.74c0,.48.74.48.76,0Z"/><path class="cls-22" d="M397.93,68.49a1.17,1.17,0,0,0,.45,1.21,2,2,0,0,0,1.5.29,2,2,0,0,0,1.93-1.92l-.7.19c.48.94,1.86.57,2.52.07a1.81,1.81,0,0,0,.38-2.65c-.32-.36-.85.17-.53.53a1.06,1.06,0,0,1-.31,1.53c-.29.22-1.16.62-1.41.14a.38.38,0,0,0-.7.19,1.24,1.24,0,0,1-1.1,1.15c-.35.08-1.45.12-1.31-.53.11-.47-.62-.68-.72-.2Z"/><ellipse class="cls-23" cx="388.29" cy="76.93" rx="2.5" ry="1.56" transform="translate(3.19 168.51) rotate(-24.58)"/><ellipse class="cls-23" cx="416.35" cy="64.71" rx="2.5" ry="1.56" transform="translate(10.82 179.07) rotate(-24.58)"/><path class="cls-24" d="M419,52.56c-.18-.27-.29-.36-.49-.63s-.88-1.07-1-1.19a29.16,29.16,0,0,0-2.45-2.4,22.83,22.83,0,0,0-29.59-.74c-7.74,6.25-10.49,15.51-7.35,24.64a1.66,1.66,0,0,0,1.56,1.15c1.11,0,1.69-1.33,1.89-2.43s.47-2.43,1.53-2.78c.59-.21,1.28,0,1.87-.25.77-.33,1-1.26,1.28-2.06.59-2.05,1.87-4.27,4-4.55,1.69-.23,3.24.88,4.64,1.85s3.14,1.91,4.74,1.33c1.38-.5,2.15-2,2.62-3.33a11,11,0,0,1,1.8-4,2,2,0,0,1,1.38-.76c.89,0,1.75.78,2.59.47,1.16-.44.74-2.32,1.59-3.22s2-.47,2.82.14a26.25,26.25,0,0,0,2.34,2c1.45.83,4.54.29,4.87-1.58C419.81,53.51,419.69,53.49,419,52.56Z"/><path class="cls-25" d="M404.27,43a3.07,3.07,0,0,1-.6,2.55,3.32,3.32,0,0,1-2.34,1.15c-1.16.08-2.38-.42-3.45,0a3.37,3.37,0,0,0-1.72,2.34,22.32,22.32,0,0,1-.75,2.92,4.73,4.73,0,0,1-5.4,2.6c-1.1-.3-2.06-1-3.17-1.25a4.22,4.22,0,0,0-4.41,1.82,14.05,14.05,0,0,0-1,2.29,3.9,3.9,0,0,1-1.43,2,1.82,1.82,0,0,1-1.83.35,1,1,0,0,1-.43-.39c-.18-.33,0-.74.1-1.07s.27-.86.43-1.28a18.91,18.91,0,0,1,1.13-2.41,19.55,19.55,0,0,1,1.44-2.18,24.46,24.46,0,0,1,14.53-9.56,23.66,23.66,0,0,1,4.84-.37A22.61,22.61,0,0,1,404.27,43Z"/><path class="cls-26" d="M401.67,49a1,1,0,0,1,.6-.86.58.58,0,0,1,.29-.06.74.74,0,0,1,.27.1.93.93,0,0,1,.16,1.7C402.42,50.2,401.66,49.57,401.67,49Z"/><path class="cls-26" d="M402.29,42.57a1,1,0,0,1,.6-.86.58.58,0,0,1,.29-.06.63.63,0,0,1,.27.1.93.93,0,0,1,.16,1.7C403,43.81,402.29,43.18,402.29,42.57Z"/><path class="cls-27" d="M389.84,55a1,1,0,0,1,.59-.87.63.63,0,0,1,.3,0,1,1,0,0,1,.27.09.94.94,0,0,1,.16,1.71C390.58,56.21,389.83,55.59,389.84,55Z"/><path class="cls-27" d="M380.18,51.88a1,1,0,0,1,.59-.87.71.71,0,0,1,.29,0,.63.63,0,0,1,.27.1.93.93,0,0,1,.16,1.7C380.92,53.12,380.17,52.49,380.18,51.88Z"/><path class="cls-28" d="M378.39,60.67a1,1,0,0,1,.59-.87.58.58,0,0,1,.29,0,.78.78,0,0,1,.27.09.94.94,0,0,1,.16,1.71C379.13,61.9,378.38,61.27,378.39,60.67Z"/><path class="cls-24" d="M379,62.42c.13-.38.07-.81.18-1.2a1.4,1.4,0,0,1,.33-.58.94.94,0,0,1,.65-.3.57.57,0,0,1,.56.39.74.74,0,0,1,0,.39,5.5,5.5,0,0,1-1.2,2,1.33,1.33,0,0,1-.29.29c-.21.14-.76.2-.83-.13S378.94,62.71,379,62.42Z"/><path class="cls-25" d="M380.49,53.15a3.09,3.09,0,0,1,.45-.7l.39-.49a.75.75,0,0,1,.26-.24.71.71,0,0,1,.41,0,.58.58,0,0,1,.26,0,.53.53,0,0,1,.18.6,1.72,1.72,0,0,1-1.2,1.32c-.22.06-.5.4-.72.26S380.41,53.35,380.49,53.15Z"/><path class="cls-24" d="M390.52,55.45a.88.88,0,0,1,.41-.17c.35,0,.6.35.95.42a.65.65,0,0,1,.2,0,.45.45,0,0,1,.25.56,1,1,0,0,1-.44.5,3.27,3.27,0,0,1-1.17.37c-.53.07-1.19,0-1.38-.6S390.13,55.68,390.52,55.45Z"/><path class="cls-25" d="M402.32,43.32a.65.65,0,0,1,.59-.09.6.6,0,0,0,.19.06c.17,0,.28-.17.43-.24a.57.57,0,0,1,.59.12.46.46,0,0,1,.15.22.53.53,0,0,1-.18.4,2.84,2.84,0,0,1-1.87,1C401.46,44.73,402,43.58,402.32,43.32Z"/><path class="cls-24" d="M401.78,50.52a.5.5,0,0,1,0-.36c.17-.31.69-.29.81-.62.06-.13,0-.3.13-.4l.12-.07a1,1,0,0,1,.79-.09.65.65,0,0,1,.28.65,2.21,2.21,0,0,1-.27.7,5,5,0,0,1-.41.71,1,1,0,0,1-.25.24C402.5,51.58,401.87,51,401.78,50.52Z"/><path class="cls-8" d="M382.13,46.16c-3.49-4.84-2.54-12.87,3.53-14.94a12,12,0,0,1,3.87-.55c3.36,0,7.72,3.33,8.87,6.5.9,2.47.07,5-.77,7.23-1.38,3.71-6.15,6.09-10,5.31A8.83,8.83,0,0,1,382.13,46.16Z"/><path class="cls-15" d="M395,44a4,4,0,0,0,1.74-3.39,5.77,5.77,0,0,0-1.68-3.42A9.75,9.75,0,0,0,392,34.84a7.07,7.07,0,0,0-3.67-.71,5.52,5.52,0,0,0-3.28,1.44,5.33,5.33,0,0,0-1.79,3c-.39,2.3,1.18,4.83,2.95,6.42a3.55,3.55,0,0,0,3.15.75,5.91,5.91,0,0,0,3-1.87,3.84,3.84,0,0,0,1.06-3.16,4.34,4.34,0,0,0-1.92-2.84,5,5,0,0,0-3.51-.73,2.51,2.51,0,0,0-1.49.78,2.13,2.13,0,0,0-.41,1.6,3.52,3.52,0,0,0,2.1,2.9,1.74,1.74,0,0,0,1.76-.27,1.59,1.59,0,0,0,.59-1.75,1.71,1.71,0,0,1-.43,1.93,2.07,2.07,0,0,1-2,.49,4.08,4.08,0,0,1-2.73-3.19,2.9,2.9,0,0,1,.47-2.26,3.47,3.47,0,0,1,2-1.2,6.08,6.08,0,0,1,4.35.67,5.38,5.38,0,0,1,2.64,3.62,4.65,4.65,0,0,1-.14,2.37,6.36,6.36,0,0,1-1.13,2,7.22,7.22,0,0,1-3.8,2.4,5.22,5.22,0,0,1-2.36,0,5,5,0,0,1-2.13-1,9.27,9.27,0,0,1-1.51-1.64,11.46,11.46,0,0,1-1.16-1.84,7,7,0,0,1-.75-4.42,6.77,6.77,0,0,1,2.34-3.81,6.87,6.87,0,0,1,1.92-1.17,7,7,0,0,1,2.19-.45,9.21,9.21,0,0,1,7.41,3.8,6.34,6.34,0,0,1,1.49,3.91A4,4,0,0,1,395,44Z"/><path class="cls-25" d="M387,50.89a3.77,3.77,0,0,1-1.7-.48,1.24,1.24,0,0,1-.61-1.42c.26-.65,1.15-.86,1.9-.85a10.41,10.41,0,0,0,3.44-.07c1.31-.44,2.09-1.7,3.31-2.31a3.68,3.68,0,0,1,1.6-.4c.5,0,2.8-.57,3.15-.24.59.57-1.42,2.15-1.69,2.9a4.72,4.72,0,0,1-.67,1.37,3.79,3.79,0,0,1-2.39,1.28A25.41,25.41,0,0,1,387,50.89Z"/><path class="cls-27" d="M399.33,44.81a1,1,0,0,1,.59-.87.58.58,0,0,1,.29,0,.92.92,0,0,1,.28.09.93.93,0,0,1,.15,1.71C400.07,46,399.32,45.41,399.33,44.81Z"/><path class="cls-28" d="M394.67,47.71a1,1,0,0,1,.59-.87.71.71,0,0,1,.29-.05.63.63,0,0,1,.27.1.93.93,0,0,1,.16,1.7C395.41,49,394.66,48.32,394.67,47.71Z"/><path class="cls-25" d="M395.3,48.51a.88.88,0,0,1,.19-.12,1.59,1.59,0,0,0,.51-.49.85.85,0,0,1,.2-.22.21.21,0,0,1,.27,0,.29.29,0,0,1,0,.3,2.41,2.41,0,0,1-.51.93.41.41,0,0,1-.24.13,1.09,1.09,0,0,1-.25,0,.26.26,0,0,0-.21.07A.5.5,0,0,1,395.3,48.51Z"/><path class="cls-25" d="M399.57,45.09a.71.71,0,0,1,.2,0,4.82,4.82,0,0,0,.65,0,.76.76,0,0,1,.73.69.69.69,0,0,1-.66.73,1.2,1.2,0,0,1-.42-.08c-.3-.1-1-.18-1.11-.53S399.31,45.12,399.57,45.09Z"/><path class="cls-26" d="M386.7,50.39a1,1,0,0,1,.6-.87.58.58,0,0,1,.29-.05,1,1,0,0,1,.27.09.94.94,0,0,1,.16,1.71C387.45,51.62,386.7,51,386.7,50.39Z"/><path class="cls-25" d="M387.41,51a1.19,1.19,0,0,0,.29.12A1.07,1.07,0,0,0,388,51a.6.6,0,0,1,.72.55.94.94,0,0,1-.46.71,1.06,1.06,0,0,1-.43.23,3.54,3.54,0,0,1-.65,0,3.55,3.55,0,0,0-.64.1c-.29.06-.68.07-.72-.33s.42-.77.63-1A.86.86,0,0,1,387.41,51Z"/><path class="cls-28" d="M410.58,46a1,1,0,0,1,.6-.87.58.58,0,0,1,.29,0,.68.68,0,0,1,.27.1.93.93,0,0,1,.16,1.7C411.33,47.23,410.58,46.6,410.58,46Z"/><path class="cls-24" d="M410.26,46.53a.7.7,0,0,1,.58-.32c.2,0,.36.21.56.25s.35,0,.5,0a.44.44,0,0,1,.23.43.94.94,0,0,1-.2.47,1.36,1.36,0,0,1-1,.61,1.47,1.47,0,0,1-1.14-.62C409.55,47,410,46.79,410.26,46.53Z"/><path class="cls-2" d="M511.5,64.64a9.89,9.89,0,0,1-.26,2.61c-.73,2.72-3.33,4.47-5.81,5.79-11.29,6-24.19,8.51-37,9.09a8.34,8.34,0,0,1-3.69-.4,8.7,8.7,0,0,1-3.4-3.33c-2.06-3-4.21-6.18-4.1-9.77a15.88,15.88,0,0,1,.9-4.25,24.84,24.84,0,0,1,2.67-6.24c3.15-4.83,8.92-7.15,14.42-8.89,7.2-2.28,14.83-4.06,22.27-2.72a27.66,27.66,0,0,1,6.21,1.89c2.77,1.22,6,3.46,6.93,6.51S511.5,61.62,511.5,64.64Z"/><path class="cls-3" d="M493.14,28.25c7.94,1.32,13,5.13,15.7,13.28.91,2.75,3.35,9.34,1.9,12.1-1.67,3.19-6.3,1.2-8.54-.05s-5.51-2.42-7.38-.53c-1.31,1.33-1.2,3.5-2.13,5.12-1.67,2.92-6.11,2.95-8.93,1.12a44.69,44.69,0,0,0-3.71-2.58,3.87,3.87,0,0,0-4.24.19c-1.55,1.4-1.3,4.45-3.28,5.11-1,.35-2.13-.22-3.2-.46-3.07-.68-6.17,1.55-7.68,4.31-1.11,2-2.13,4.73-4.43,4.85a4.34,4.34,0,0,1-3.12-1.48c-2.84-2.72-4.15-6.69-4.71-10.58-1.91-13.24,5.27-22.11,17.11-26.84C474.33,28.68,483,27,491.37,28,492,28.07,492.56,28.15,493.14,28.25Z"/><path class="cls-29" d="M489,44.39a2.59,2.59,0,0,0,.13,1.3c.09.18.29.35.47.26a.45.45,0,0,0,.2-.35c.13-.6.75-2.91-.13-3.21S489,44,489,44.39Z"/><path class="cls-30" d="M462.79,51.15a.93.93,0,0,0-.15.6.38.38,0,0,0,.45.31.65.65,0,0,0,.15-.1l1.1-.93a6.79,6.79,0,0,0,.83-.78c.62-.76.79-1.81-.4-1.26A4.93,4.93,0,0,0,462.79,51.15Z"/><path class="cls-30" d="M502.06,41.16a1,1,0,0,0-.15.59c0,.21.26.39.45.32s.1-.07.15-.1l1.1-.93a6.13,6.13,0,0,0,.83-.78c.62-.76.79-1.81-.4-1.26A5,5,0,0,0,502.06,41.16Z"/><path class="cls-5" d="M474.69,52.75a.5.5,0,0,0-.44.2c-.12.19,0,.43.21.58a4.36,4.36,0,0,0,3,.68c1,0,.15-.91-.29-1.11A5.39,5.39,0,0,0,474.69,52.75Z"/><path class="cls-31" d="M455.91,61.84a1,1,0,0,0,.13.7.48.48,0,0,0,.63.15.84.84,0,0,0,.15-.18A4.85,4.85,0,0,0,458,59.7a.43.43,0,0,0-.13-.36C457,58.68,456,61.31,455.91,61.84Z"/><path class="cls-5" d="M495.1,34.18c.11.09.25.19.39.13a.34.34,0,0,0,.16-.19,1.66,1.66,0,0,0-.21-1.58,3.54,3.54,0,0,0-1.27-1.06c-.77-.43-.88.35-.64.88A6.08,6.08,0,0,0,495.1,34.18Z"/><path class="cls-5" d="M453.94,50a.31.31,0,0,0,.3.07c.13-.06.12-.24.09-.38a7.72,7.72,0,0,0-.95-2.32c-.51-.84-1.12-.21-.94.52A4.38,4.38,0,0,0,453.94,50Z"/><path class="cls-5" d="M504,47.78a1,1,0,0,1,.63-.34.29.29,0,0,1,.26.12.34.34,0,0,1,0,.2,2.29,2.29,0,0,1-.84,1.53c-.36.32-1.89,1.42-1.83.3C502.28,49,503.57,48.17,504,47.78Z"/><path class="cls-31" d="M478,43.2a.63.63,0,0,1,.45-.15.45.45,0,0,1,.31.5,1.32,1.32,0,0,1-.28.57,13.75,13.75,0,0,1-1.17,1.36c-.77.78-1,0-.71-.71A4.58,4.58,0,0,1,478,43.2Z"/><path class="cls-29" d="M459.27,39.27a1.33,1.33,0,0,0-.33.71.52.52,0,0,0,.42.57.72.72,0,0,0,.51-.27,5.55,5.55,0,0,0,1-1.36c.24-.46.13-1-.43-.86S459.5,39,459.27,39.27Z"/><path class="cls-29" d="M468.77,57a1.37,1.37,0,0,0-.77-.11.53.53,0,0,0-.42.58.73.73,0,0,0,.41.4,5.39,5.39,0,0,0,1.61.55c.5.09.94-.16.68-.68S469.14,57.14,468.77,57Z"/><path class="cls-31" d="M488.34,57.21l.65-1.37c.58-1.22,1.49-.74,1.09.46a5,5,0,0,1-.6,1.08,1.78,1.78,0,0,1-.75.74.29.29,0,0,1-.33,0,.39.39,0,0,1-.06-.19l-.07-.71"/><path class="cls-30" d="M487.35,35.71a.42.42,0,0,0,.18.17c.23.07.35-.25.36-.48a13.63,13.63,0,0,0-.06-1.81c-.07-.74-.86-1.62-1.21-.54A4,4,0,0,0,487.35,35.71Z"/><path class="cls-32" d="M474.32,67.91A4.23,4.23,0,0,0,480,66.4a.38.38,0,0,0-.66-.39,3.45,3.45,0,0,1-4.66,1.24c-.43-.23-.81.42-.38.66Z"/><path class="cls-32" d="M489.45,63.65a4.22,4.22,0,0,0,5.7-1.51.38.38,0,0,0-.66-.38A3.44,3.44,0,0,1,489.83,63c-.43-.23-.81.43-.38.66Z"/><path class="cls-12" d="M483.75,68.32c-.68,0-1.63-.11-2,.66a1.55,1.55,0,0,0,.35,1.68,2.64,2.64,0,0,0,1.5.65,7.12,7.12,0,0,0,4.45-.57,2.86,2.86,0,0,0,1.32-1.44,2,2,0,0,0-.27-2,1.47,1.47,0,0,0-1-.45c-.91-.09-1.23.49-1.87,1A3.42,3.42,0,0,1,483.75,68.32Z"/><path class="cls-5" d="M479.08,32.19c-4.24-3.39-6.07-6.63-6.48-9.53s.51-5.48,1.44-8.06c.71-2,1.56-4,5.49-4.79,2,.2,3.89,1.43,4.12,2.2s-.82,1.22-1.75,1.66c-7.72,3.64-7.38,12-2.91,18.83"/><path class="cls-33" d="M466.12,28.53a9,9,0,0,0-.36,2.11,9.78,9.78,0,0,0,2.59,7.22,7.37,7.37,0,0,0,11.51-.44c1.84-2.22,4.29-8.51,1.16-10.74-1.54-1.09-3.37-.24-5.08-.21s-3.41-1.19-5.21-1.47a4.67,4.67,0,0,0-2,0C467.31,25.44,466.52,27.15,466.12,28.53Z"/><path class="cls-3" d="M467.18,41c-.25-1.08.86-2,1.89-2.4a12.19,12.19,0,0,1,10.16.42,1.36,1.36,0,0,1,.78.76C480.88,43.11,468.48,41.27,467.18,41Z"/><path class="cls-20" d="M53,198.14c-4.23-3.28-8.6-6.52-13.16-9.42l-.18-.07c-5.37-.65-10.8-.92-16.15-1.09-3.71-.11-3.57.64-4,4.2q-.6,4.68-1.13,9.37-1.05,9.23-1.86,18.47-.9,10.34-1.5,20.7a13.22,13.22,0,0,0,.3,4.74,4.61,4.61,0,0,0,3.09,3.23,4.59,4.59,0,0,0,4.44-.53,13.08,13.08,0,0,0,3.24-3.47q6.14-8.39,12-16.94,5.25-7.65,10.3-15.44,2.56-4,5.07-8C55.35,200.89,55.94,200.41,53,198.14Z"/><path class="cls-34" d="M17.94,204.81l31.71-1.76"/><path class="cls-34" d="M16.92,214.81q15.31-.75,30.6-2"/><path class="cls-34" d="M16.28,224.06q12.31,0,24.59-.81"/><path class="cls-34" d="M15.51,233.76q9.23,0,18.42-.66"/><path class="cls-34" d="M15,243.9q5.78.07,11.56-.31"/><path class="cls-34" d="M19.44,194.47a82.09,82.09,0,0,1,8.3-.25"/><path class="cls-34" d="M15.61,233.48q4,6.51,7.69,13.26"/><path class="cls-34" d="M16.46,220c3.58,6.31,9,12.57,12.37,19"/><path class="cls-34" d="M17.74,206.64a125.3,125.3,0,0,1,18.87,22.85"/><path class="cls-34" d="M19.59,194.53C26.81,203.74,35,211.73,42.16,221"/><path class="cls-34" d="M37.63,200.94a10.16,10.16,0,0,1,1.66,1.48c3,3.1,5.52,7.1,8.23,10.43"/><path class="cls-34" d="M52.24,202.81c.47.51.79.57,1.19,1.12"/><path class="cls-1" d="M53,198.14c-4.23-3.28-8.6-6.52-13.16-9.42l-.18-.07c-5.37-.65-10.8-.92-16.15-1.09-3.71-.11-3.57.64-4,4.2q-.6,4.68-1.13,9.37-1.05,9.23-1.86,18.47-.9,10.34-1.5,20.7a13.22,13.22,0,0,0,.3,4.74,4.61,4.61,0,0,0,3.09,3.23,4.59,4.59,0,0,0,4.44-.53,13.08,13.08,0,0,0,3.24-3.47q6.14-8.39,12-16.94,5.25-7.65,10.3-15.44,2.56-4,5.07-8C55.35,200.89,55.94,200.41,53,198.14Z"/><path class="cls-35" d="M63.59,194.1a8.5,8.5,0,0,0-.54-1.19,24.64,24.64,0,0,0,2.76-3.65c5-9.82,3.21-22.73-4.43-30.66s-20.65-10.15-30.37-5S15.63,171.09,18.58,181.7c.08.29-.28.2-1,.46-2.7,1-4.48,4.87-3.45,7.66a6.3,6.3,0,0,0,6.48,4.12,14.83,14.83,0,0,0,8.13-3.33c-2.7,3.4-.49,9.11,3.61,10.55s8.88-.87,11.14-4.58A5.83,5.83,0,0,0,47.71,204a5.87,5.87,0,0,0,6-3.22c1.82,2.12,4.51,3.49,7.12,2.07A5.75,5.75,0,0,0,63,200.65,8,8,0,0,0,63.59,194.1Z"/><path class="cls-32" d="M27.8,171.31a4.56,4.56,0,0,1,7.93,3.18.41.41,0,0,0,.82,0,5.38,5.38,0,0,0-9.33-3.76c-.37.39.21,1,.58.58Z"/><path class="cls-32" d="M49.82,180.12a4.92,4.92,0,0,1,8.35,3.14c0,.52.87.53.82,0a5.75,5.75,0,0,0-9.75-3.72c-.38.36.2.94.58.58Z"/><path class="cls-32" d="M39.11,177.33a1.32,1.32,0,0,0-.57,1.35,2.21,2.21,0,0,0,.92,1.32,2.26,2.26,0,0,0,3.06,0l-.69-.4c-.34,1.21,1.14,2,2.12,2a2,2,0,0,0,2.19-1.82c0-.53-.8-.53-.82,0a1.16,1.16,0,0,1-1.26,1c-.45,0-1.62-.37-1.44-1a.41.41,0,0,0-.68-.4,1.38,1.38,0,0,1-1.79.06c-.35-.22-1.26-1-.63-1.45.44-.29,0-1-.41-.71Z"/><ellipse class="cls-36" cx="24.84" cy="176.56" rx="1.74" ry="2.78" transform="translate(-149.74 140.36) rotate(-70.28)"/><ellipse class="cls-36" cx="56.75" cy="188.65" rx="1.74" ry="2.78" transform="translate(-139.99 178.41) rotate(-70.28)"/><path class="cls-5" d="M68.35,181.05c.08-.35.05-.51.11-.88,0-.18.12-1.54.13-1.73a32.38,32.38,0,0,0-.1-3.82c-1-12.46-10.34-22.45-23-23.64-11-1-20.45,4.21-25,13.94a1.85,1.85,0,0,0,.34,2.13c.89.87,2.38.26,3.4-.46s2.27-1.58,3.39-1c.63.31,1,1,1.68,1.26a3.24,3.24,0,0,0,2.63-.64c2.07-1.18,4.82-1.95,6.73-.53,1.52,1.14,1.9,3.23,2.26,5.1s1,4,2.75,4.75c1.48.67,3.23.12,4.68-.62s2.89-1.66,4.52-1.76a2.34,2.34,0,0,1,1.69.47c.75.66.79,2,1.71,2.39,1.26.56,2.39-1.27,3.77-1.32,1.15-.05,2,1.17,2.13,2.3a29.93,29.93,0,0,0,.3,3.43c.52,1.8,3.4,3.77,5.12,2.53C68.23,182.41,68.15,182.31,68.35,181.05Z"/><path class="cls-35" d="M64,161.91a3.43,3.43,0,0,1-2.46,1.56,3.74,3.74,0,0,1-2.77-.89c-1-.85-1.57-2.19-2.77-2.67a3.76,3.76,0,0,0-3.2.52A24.18,24.18,0,0,1,50,162.18a5.28,5.28,0,0,1-6.33-2.13c-.65-1.09-.87-2.4-1.55-3.47a4.74,4.74,0,0,0-4.95-2,15.35,15.35,0,0,0-2.55,1.08,4.36,4.36,0,0,1-2.69.46c-.71-.17-1.47-.38-1.73-1.14a1.15,1.15,0,0,1,0-.66c.12-.4.58-.58.92-.77s.89-.47,1.34-.68a18.61,18.61,0,0,1,2.78-1,19.7,19.7,0,0,1,2.84-.62,27.29,27.29,0,0,1,19,3.68,27.38,27.38,0,0,1,4.15,3.47A25.37,25.37,0,0,1,64,161.91Z"/><path class="cls-35" d="M43.53,152.15a15.68,15.68,0,0,1,2.9-.39,4.94,4.94,0,0,1,2.78.76c.79.53,1.34,1.35,2.08,1.95,1.36,1.11,3.24,1.42,4.59,2.55a1.1,1.1,0,0,1,.41.59c.07.43-.34.8-.75.95a10.77,10.77,0,0,1-2,.33,13.7,13.7,0,0,0-2.77,1.05,25.75,25.75,0,0,1-3.53,1.1,5.51,5.51,0,0,1-1.65.25,1.9,1.9,0,0,1-1.47-.69,3.26,3.26,0,0,1-.42-1.1,9.37,9.37,0,0,0-1.58-3.4,6.16,6.16,0,0,0-1.29-1.26c-.4-.28-1.08-.5-.85-1.12C40.38,152.72,42.63,152.34,43.53,152.15Z"/><path class="cls-27" d="M57.21,154.73a1.11,1.11,0,0,1,1.15-.23.68.68,0,0,1,.28.18.86.86,0,0,1,.14.29c.29.85-.2,1.7-1.2,1.48C56.85,156.29,56.74,155.21,57.21,154.73Z"/><path class="cls-37" d="M57.3,164.66a1.1,1.1,0,0,1,1.15-.23.71.71,0,0,1,.27.18,1.14,1.14,0,0,1,.15.29c.29.85-.21,1.7-1.21,1.48C56.93,166.22,56.82,165.14,57.3,164.66Z"/><path class="cls-28" d="M25.84,165.65a1.08,1.08,0,0,1,1.15-.24.64.64,0,0,1,.27.19,1,1,0,0,1,.15.29c.29.84-.21,1.7-1.2,1.48C25.47,167.21,25.36,166.12,25.84,165.65Z"/><path class="cls-37" d="M62.33,159.71a1.1,1.1,0,0,1,1.15-.23.71.71,0,0,1,.27.18,1.14,1.14,0,0,1,.15.29c.29.85-.21,1.7-1.2,1.48C62,161.27,61.85,160.19,62.33,159.71Z"/><path class="cls-28" d="M52.68,158.21a1.09,1.09,0,0,1,1.15-.24.61.61,0,0,1,.28.19.78.78,0,0,1,.14.29c.29.84-.2,1.7-1.2,1.48C52.32,159.77,52.21,158.68,52.68,158.21Z"/><path class="cls-37" d="M44.25,154.14a1.1,1.1,0,0,1,1.15-.23.71.71,0,0,1,.27.18,1,1,0,0,1,.15.29c.29.85-.21,1.7-1.21,1.48C43.88,155.7,43.77,154.62,44.25,154.14Z"/><path class="cls-27" d="M42.81,160.65a1.07,1.07,0,0,1,1.14-.24.61.61,0,0,1,.28.19.71.71,0,0,1,.14.29c.3.84-.2,1.7-1.2,1.48C42.44,162.21,42.33,161.12,42.81,160.65Z"/><path class="cls-27" d="M37.88,150.25A1.09,1.09,0,0,1,39,150a.68.68,0,0,1,.28.18.86.86,0,0,1,.14.29c.3.85-.2,1.7-1.2,1.48C37.51,151.81,37.4,150.73,37.88,150.25Z"/><path class="cls-28" d="M29.61,155.86a1.09,1.09,0,0,1,1.14-.23.61.61,0,0,1,.28.19.71.71,0,0,1,.14.29c.3.84-.2,1.7-1.2,1.48C29.24,157.43,29.13,156.34,29.61,155.86Z"/><path class="cls-5" d="M28.76,157.77c.4-.2.69-.59,1.08-.82a1.61,1.61,0,0,1,.71-.2,1.07,1.07,0,0,1,.76.26.63.63,0,0,1,.14.75.89.89,0,0,1-.31.3,6,6,0,0,1-2.55.7,1.77,1.77,0,0,1-.46,0c-.27,0-.75-.43-.56-.75S28.46,157.92,28.76,157.77Z"/><path class="cls-35" d="M37.13,151.51a3.17,3.17,0,0,1,.91-.21l.7-.09a.74.74,0,0,1,.39,0,.89.89,0,0,1,.37.27.82.82,0,0,1,.16.25c.08.24-.11.48-.32.62a2,2,0,0,1-2,.12c-.22-.12-.7-.07-.77-.35S36.92,151.6,37.13,151.51Z"/><path class="cls-35" d="M44.37,155.15a.9.9,0,0,0,.13.32,1,1,0,0,0,.29.18.67.67,0,0,1,.14,1,1.08,1.08,0,0,1-.91.22,1.13,1.13,0,0,1-.52-.16,4.26,4.26,0,0,1-.51-.53,3.37,3.37,0,0,0-.58-.41c-.28-.19-.59-.48-.32-.83s.94-.29,1.27-.3A1,1,0,0,1,44.37,155.15Z"/><path class="cls-5" d="M43,161.54a1,1,0,0,1,.45.19c.3.26.22.75.44,1.07A2.14,2.14,0,0,1,44,163a.5.5,0,0,1-.24.64,1,1,0,0,1-.74.06,3.52,3.52,0,0,1-1.22-.62c-.48-.35-1-.92-.63-1.54S42.49,161.43,43,161.54Z"/><path class="cls-35" d="M52.56,159.33a1,1,0,0,1,.25,0,1.63,1.63,0,0,0,.79,0,.93.93,0,0,1,.33,0c.11,0,.22.12.21.23s-.14.19-.24.24a2.7,2.7,0,0,1-1.13.34.43.43,0,0,1-.29-.08c-.08-.06-.11-.16-.17-.23a.29.29,0,0,0-.23-.1A.58.58,0,0,1,52.56,159.33Z"/><path class="cls-35" d="M57.18,155.14a.83.83,0,0,1,.15.17c.14.2.39.3.56.48a.86.86,0,0,1,0,1.12.8.8,0,0,1-1.1.07,1.34,1.34,0,0,1-.27-.4c-.17-.31-.66-.91-.47-1.28S57,155,57.18,155.14Z"/><path class="cls-35" d="M61.77,160.32a.75.75,0,0,1,.54.39.49.49,0,0,0,.11.2c.12.14.35.09.53.14a.64.64,0,0,1,.37.56.47.47,0,0,1,0,.29.57.57,0,0,1-.45.18,3.2,3.2,0,0,1-2.26-.68C60,160.78,61.27,160.24,61.77,160.32Z"/><path class="cls-5" d="M56.17,166a.58.58,0,0,1,.31-.27c.37-.11.77.3,1.13.14.14-.06.26-.22.42-.22a.33.33,0,0,1,.14,0,1,1,0,0,1,.7.54.73.73,0,0,1-.29.74,2.22,2.22,0,0,1-.75.34,4.63,4.63,0,0,1-.88.25,1,1,0,0,1-.39,0C55.92,167.39,55.86,166.45,56.17,166Z"/><path class="cls-5" d="M25.17,165.82a.76.76,0,0,1,.71.2c.14.18.12.44.25.64s.29.25.36.42a.48.48,0,0,1-.15.52,1,1,0,0,1-.52.22,1.56,1.56,0,0,1-1.31-.33,1.58,1.58,0,0,1-.42-1.37C24.23,165.64,24.78,165.86,25.17,165.82Z"/><path class="cls-38" d="M109.37,218.78c.65.14.48-1.24.73-1.86,0,0,7.41-19.6,30-14S157,230.43,157,230.43a10.8,10.8,0,0,1,5.84,5.49,22.45,22.45,0,0,1,14.82-2.73s8.53-39.86-31.12-50.91c-40.82-11.39-55,27.48-55,27.48s10.29-.24,11.13,10.07A9.21,9.21,0,0,1,109.37,218.78Z"/><path class="cls-7" d="M96.09,210.07s14.35-30.87,49.21-22.23C178.38,196,173,232.19,173,232.19L167.08,234s5.32-34.32-23.34-40.46-42.44,19.72-42.44,19.72Z"/><path class="cls-3" d="M103.27,219.45s3.24-9.27,10.65-15.6,18.36-7.86,29.49-4.8S160.6,210,161.23,218.86a68.86,68.86,0,0,1-.33,14.6l1.89,2.46,4.29-1.9a44.5,44.5,0,0,0-6.33-30C151.4,189.62,131,192,131,192s-17.42-1.37-29.67,21.27C101.3,213.28,103.58,215,103.27,219.45Z"/><path class="cls-35" d="M109.41,219.26s6.41-21.82,30-16.52S157,230.43,157,230.43l4.52,3.46s3.62-13-2.23-23.86c-4.59-8.51-16-13.79-27.71-12.93s-20.89,6-28.26,22.88A9,9,0,0,1,109.41,219.26Z"/><path class="cls-12" d="M87.65,210.9a11.42,11.42,0,0,1,10.4,0,10.21,10.21,0,0,1,5.22,9.06,9,9,0,0,1,11.28,2.64c2.42,3.53,1.49,9.23-2.13,11.5a4.85,4.85,0,0,1,2.43,5.39,6.93,6.93,0,0,1-4,4.73,11,11,0,0,1-6.14.63c-2.83-.42-5.8-1.82-6.83-4.58a10.26,10.26,0,0,1-11.56,2,10.83,10.83,0,0,1-5.65-10.56A12.6,12.6,0,0,1,71,231.2a8.75,8.75,0,0,1-4.6-8.4A9.18,9.18,0,0,1,73,215.46a12,12,0,0,1,5-.26c1,.15,4.32,1.19,4.32,1.19s1.29-1.92,1.92-2.77A9.4,9.4,0,0,1,87.65,210.9Z"/><path class="cls-12" d="M157,230.43a13.63,13.63,0,0,0-15.43,3.84,9.58,9.58,0,0,0-2.21,7.95,9.71,9.71,0,0,0,4.76,5.89,26.92,26.92,0,0,0,7.32,2.58,6.48,6.48,0,0,0,1.54,4.63,11.72,11.72,0,0,0,7.31,4.93c3,.46,6.35-1,7.53-3.73a4.8,4.8,0,0,0,2.93,3.65,10.88,10.88,0,0,0,4.81.72,12.52,12.52,0,0,0,5.24-1,5.72,5.72,0,0,0,3.27-4,3.76,3.76,0,0,0-2.48-4.23c2.09,0,3.64-2,4.29-4a11.41,11.41,0,0,0-3.09-11.69,13.67,13.67,0,0,0-10.33-3.16,19.93,19.93,0,0,0-5.33,1.27c-1,.39-4.29,1.9-4.29,1.9s-1.33-1.66-1.89-2.46A9.15,9.15,0,0,0,157,230.43Z"/><path class="cls-1" d="M101.42,212.71s9.8-25.39,38.39-20.49,29.05,30.57,27.27,41.8"/><path class="cls-1" d="M96.65,210.29s13.94-31,47.65-22.7,28.11,45.16,28.11,45.16"/><path class="cls-39" d="M80.22,222.5a3.08,3.08,0,0,1,2.09-1.4,5,5,0,0,1,2.55.25,4.68,4.68,0,0,1,2,1.23,2.69,2.69,0,0,1,.73,2.2"/><path class="cls-39" d="M97,227.37a4.42,4.42,0,0,1,7.3,2.71"/><path class="cls-39" d="M89.62,228a3.12,3.12,0,0,0-.18,2.32,1.79,1.79,0,0,0,1.85,1.19c.91-.15,1.42-1.1,1.76-2"/><path class="cls-39" d="M154,239.19a6.31,6.31,0,0,1,4,3.56l-3.83.2.44-.17"/><path class="cls-39" d="M174,243c.14,0-.07-.22-.22-.19a10.47,10.47,0,0,0-4.25,1.93,8.6,8.6,0,0,1,4.66,1.5"/><path class="cls-39" d="M161.41,245.38c-.33-.23-.8.09-1,.47a1.47,1.47,0,0,0,2.7,1.16,1.7,1.7,0,1,0,3.22-.83"/><ellipse class="cls-36" cx="80.19" cy="224.45" rx="1.67" ry="2.34" transform="translate(-158.12 220.5) rotate(-69.39)"/><ellipse class="cls-36" cx="103.89" cy="232.78" rx="1.67" ry="2.34" transform="translate(-150.56 248.07) rotate(-69.39)"/><ellipse class="cls-36" cx="153.33" cy="245.51" rx="1.67" ry="2.34" transform="translate(-118.77 344.23) rotate(-77.95)"/><ellipse class="cls-36" cx="173.68" cy="248.93" rx="1.67" ry="2.34" transform="translate(-106.02 366.84) rotate(-77.95)"/><path class="cls-12" d="M464.35,107.07a26.33,26.33,0,0,0-2.48,12.57c.06,2.6.5,5.44,2.44,7.17,1.44,1.28,3.42,1.7,5.31,2.07a19.73,19.73,0,0,0,4.27.38,20,20,0,0,0,3.78-.41,39,39,0,0,0,7.39-2.08,31.35,31.35,0,0,0,6.89-3.83,15.18,15.18,0,0,0,3.27-3.47c1.52-2.38.89-5.33-.43-7.82a20.88,20.88,0,0,0-5.35-6.47,35.29,35.29,0,0,0-7.16-4.77c-3.18-1.48-7.08-2.3-10.39-.81A16.2,16.2,0,0,0,464.35,107.07Z"/><path class="cls-5" d="M468.71,114.77a2,2,0,0,0,.74.86,2.09,2.09,0,0,0,1.29.09A73.39,73.39,0,0,0,483,112.81a1.27,1.27,0,0,0,.7-.42,1.28,1.28,0,0,0,.09-.93l-1.49-9.57a2,2,0,0,0-.24-.79,1.87,1.87,0,0,0-.6-.48,11.24,11.24,0,0,0-8-1.18c-2.55.58-6.45,2.64-7,5.49C465.78,108,467.25,112.15,468.71,114.77Z"/><path class="cls-40" d="M487.61,114.24a9.91,9.91,0,0,0-3.69,3.67l4.77-1"/><path class="cls-40" d="M469.3,119.53a9.49,9.49,0,0,1,4,.44,2.53,2.53,0,0,1,1.36.88,22.61,22.61,0,0,0-4.65,1.73l.21-.09"/><path class="cls-40" d="M477.05,122.41a.82.82,0,0,0-.26,1.06,1.26,1.26,0,0,0,1,.62,2.65,2.65,0,0,0,1.18-.17c.58-.19,1.22-.63,1.12-1.23a2.1,2.1,0,0,0,2.62,0,1.58,1.58,0,0,0,.71-.92.82.82,0,0,0-.47-1"/><ellipse class="cls-15" cx="470.89" cy="124.34" rx="2.08" ry="1.34" transform="translate(-16.1 130.76) rotate(-15.55)"/><ellipse class="cls-15" cx="488.66" cy="119.03" rx="2.08" ry="1.41" transform="translate(-14.02 135.33) rotate(-15.55)"/><path class="cls-5" d="M485.06,141.23c-.33.41.66,2.5.85,2.92a19.43,19.43,0,0,0,1.6,2.85c1.28,1.94,2.78,3.74,3.87,5.79a6.12,6.12,0,0,0,1.12,1.7,4.11,4.11,0,0,0,1.54.79,15.83,15.83,0,0,0,7.74.22,22.77,22.77,0,0,0,8.39-3.26,16.69,16.69,0,0,0,5.94-6.7,4.12,4.12,0,0,0,.44-1.35,4.86,4.86,0,0,0-.24-1.81,62.25,62.25,0,0,0-5.86-14.32"/><path class="cls-12" d="M509.66,126.59a4.76,4.76,0,0,0-3.68-1.53,12.07,12.07,0,0,0-4,.88c-.88.31-1.76.65-2.62,1-4.82,2-10.48,4.6-13.62,8.95a6.22,6.22,0,0,0-1.13,2.29c-.38,1.72.54,3.7,2.43,3.86a19.22,19.22,0,0,0,7-.46,24.2,24.2,0,0,0,3.77-1.53,63.67,63.67,0,0,0,8.31-4.54,11.17,11.17,0,0,0,3.81-3.8A4.74,4.74,0,0,0,509.66,126.59Z"/><path class="cls-8" d="M492.34,131.62a17.09,17.09,0,0,1,5.76-2.9,5,5,0,0,1,2.81-.27,10.64,10.64,0,0,0,1.35.44c.54.08,1.17-.07,1.58.3a1.61,1.61,0,0,1,.24,1.55,3.42,3.42,0,0,1-1,2.16,4.26,4.26,0,0,1-1.14.54,10.71,10.71,0,0,0-2.5,1.33A16.81,16.81,0,0,1,496.1,137a8.08,8.08,0,0,1-2.44.43,18.09,18.09,0,0,1-2.85-.07c-1-.1-1.83-.09-1.56-1.27A8.77,8.77,0,0,1,492.34,131.62Z"/><path class="cls-35" d="M496.23,133a10.07,10.07,0,0,1,5.21-1.87,1.6,1.6,0,0,1,.92.14,1.08,1.08,0,0,1,.43,1.12,2,2,0,0,1-.63,1.07,8,8,0,0,1-1.65,1.17c-1,.56-1.92,1.13-2.92,1.63-.57.28-2.37,1.38-3,1.09s-.19-1.58-.08-2A4.17,4.17,0,0,1,496.23,133Z"/><path class="cls-40" d="M502.23,148.87a1.08,1.08,0,0,0,.65,1,2.05,2.05,0,0,0,1.2.12,2.83,2.83,0,0,0,1.64-.75,1.85,1.85,0,0,0,.54-1.67.5.5,0,0,0-.32-.4"/><circle class="cls-22" cx="496.68" cy="149.14" r="2.05"/><circle class="cls-12" cx="496.84" cy="148.43" r="0.85"/><circle class="cls-22" cx="509.67" cy="143.16" r="2.05"/><circle class="cls-12" cx="509.83" cy="142.45" r="0.85"/><ellipse class="cls-15" cx="498.06" cy="152.12" rx="1.44" ry="0.92" transform="translate(-20.56 199.48) rotate(-22.2)"/><ellipse class="cls-15" cx="511.81" cy="145.49" rx="1.44" ry="0.92" transform="translate(7.88 316.29) rotate(-34.59)"/><path class="cls-12" d="M451.8,153.8a12.46,12.46,0,0,1,1-6.4,26.69,26.69,0,0,1,10.66-12.7c2.36-1.46,5.34-2.95,7.88-1.82,7.56,3.35,11.54,12.43,12.2,13.76A25.71,25.71,0,0,1,485,150.1c.64,2.16,1.18,3.11.82,5.34a5.39,5.39,0,0,1-3.1,4.07,16.21,16.21,0,0,1-5.66,1.32,63.12,63.12,0,0,1-11.32.62,32.14,32.14,0,0,1-9.39-2.45A6.29,6.29,0,0,1,451.8,153.8Z"/><path class="cls-5" d="M460.05,156a1.52,1.52,0,0,1,.58-.65,1.82,1.82,0,0,1,1.11-.09,84.8,84.8,0,0,0,16.63.41,31.88,31.88,0,0,1-.64,4,2.89,2.89,0,0,1-.37,1.08,26,26,0,0,1-3,.25c-7.51.82-10.38.27-15.51-1.11.77.21.47-1.2.49-1.54A5.79,5.79,0,0,1,460.05,156Z"/><circle class="cls-16" cx="461.01" cy="147.34" r="1.69"/><circle class="cls-16" cx="476.12" cy="147.99" r="1.69"/><circle class="cls-12" cx="461.31" cy="146.89" r="0.79"/><circle class="cls-12" cx="476.38" cy="147.53" r="0.79"/><ellipse class="cls-15" cx="459.91" cy="150.44" rx="1.3" ry="2.02" transform="translate(289.98 603.52) rotate(-87.55)"/><ellipse class="cls-15" cx="477.9" cy="150.87" rx="1.36" ry="2.02" transform="matrix(0.04, -1, 1, 0.04, 306.77, 621.89)"/><path class="cls-40" d="M466.14,149.62a1.43,1.43,0,0,0,1.2,1.09,1.35,1.35,0,0,0,1.36-.78,1.18,1.18,0,0,0,.47.7,1.55,1.55,0,0,0,1.11.21,1.27,1.27,0,0,0,.82-.84"/><path class="cls-41" d="M221,94.79a5.88,5.88,0,0,0,2.2,2.25,4.73,4.73,0,0,0,3.72-.18,5.28,5.28,0,0,0,2.9-2.4,6.07,6.07,0,0,0-.21-4.63,39.85,39.85,0,0,0-5-8.75c-1.94-2.78-3.41-6.2-5.43-8.81-2,1.24-4.07,2.68-6,4.1-.62.47-2.47,1.38-2.53,2.22-.15,2.18,3.22,5.53,4.35,7.22l5.93,8.89Z"/><path class="cls-38" d="M194.5,83a5.53,5.53,0,0,0,2.35,2.25,4.86,4.86,0,0,0,2.7,0c4.33-1,8.15-3.47,11.78-6q8-5.64,15.49-11.94c1.76-1.48,3.66-3.36,3.43-5.65a7.16,7.16,0,0,0-1.64-3.39L216.69,41.73c-4-5.51-8-11-12.91-15.73a11.88,11.88,0,0,0-4.06-2.8,9.7,9.7,0,0,0-5-.15c-5.65,1.1-10.46,4.83-14.34,9.07a31.21,31.21,0,0,0-5.9,8.72c-1.22,2.87-2.57,7.72-1,10.73.56,1.1,1.72,1.76,2.47,2.74a67.53,67.53,0,0,1,3.55,5.77Q186.71,71.71,194.5,83Z"/><path class="cls-36" d="M169.33,44.5c-.45-1-.86-2.1-1.2-3.15a18.68,18.68,0,0,1,6.59-20.7,26.58,26.58,0,0,1,4.93-2.8c3.7-1.74,7.8-3.2,12.09-2.58a17.37,17.37,0,0,1,9.42,4.94,27.85,27.85,0,0,1,6,9.11,3.38,3.38,0,0,1,.34,1.22c0,1.28-1.49,2-2.72,1.65a5.81,5.81,0,0,1-2.86-2.54,4.52,4.52,0,0,0-2.1-2.07c-1.5-.44-2.77,1.25-2.65,2.82s1.08,3,1.85,4.39A19.79,19.79,0,0,1,200.69,39c.4,1.48.38,3.43-1,3.91a2.76,2.76,0,0,1-2-.28c-2.36-1.09-4-3.34-5.4-5.61-1-1.67-2.17-3.64-4-3.87a3.14,3.14,0,0,0-3.07,1.79,6.49,6.49,0,0,0-.42,3.82c.2,1.41.59,3.05-.3,4.07-1.22,1.41-3.6.38-5.45.74a3.64,3.64,0,0,0-2.6,4.57c.49,1.65,1.92,3,2.48,4.62.39,1.12,0,1.86-1.17,2a3.3,3.3,0,0,1-2.05-.39,6.39,6.39,0,0,1-2-2.06A46.15,46.15,0,0,1,169.33,44.5Z"/><path class="cls-32" d="M189,61.43a10.24,10.24,0,0,1,3.14-1c.86-.13,2.31-.27,2.85.6l.15-.55A11.86,11.86,0,0,0,191,63.93c-.29.43.4.84.69.41a11.06,11.06,0,0,1,3.84-3.14.41.41,0,0,0,.15-.55c-.7-1.14-2.24-1.17-3.42-1a10.77,10.77,0,0,0-3.67,1.11c-.46.24-.05.93.4.69Z"/><path class="cls-42" d="M206.65,57.72a12.24,12.24,0,0,1,1.58,3.93,4.37,4.37,0,0,1,.13,1.61,1.88,1.88,0,0,1-.8,1.35,2.57,2.57,0,0,1-2.51-.27,9.71,9.71,0,0,1-3.86-3.92,35.15,35.15,0,0,0,3.68-2.21,13.68,13.68,0,0,0,1.44-1.06A4.86,4.86,0,0,1,206.65,57.72Z"/><path class="cls-32" d="M211.35,45.91a10.62,10.62,0,0,0-2.65,2.74c-.67,1-1.38,2.38-.69,3.52a.41.41,0,0,0,.55.14,11,11,0,0,1,4.54-2,.43.43,0,0,0,.41-.4.42.42,0,0,0-.41-.41,11.78,11.78,0,0,0-4.94,2.1l.55.14c-.54-.88.24-2.09.76-2.82a9.75,9.75,0,0,1,2.29-2.33c.42-.3,0-1-.41-.7Z"/><path class="cls-8" d="M202.29,22.44a2.85,2.85,0,0,1-1.41,2.24c-1.31.71-2.95.31-4.4.66a4.35,4.35,0,0,0-3,2.69c-.34.94-.47,2.15-1.39,2.55s-2.1-.52-3.06-1.13a5.11,5.11,0,0,0-7.3,2,8.47,8.47,0,0,0-.37,5.52,15.35,15.35,0,0,1,.5,3.55,1.16,1.16,0,0,1-.14.58,1.11,1.11,0,0,1-.74.45c-1,.22-2.11-.16-3.17,0-1.88.26-3.17,2.23-3.27,4.13a10.81,10.81,0,0,0,1.58,5.42,4.4,4.4,0,0,1,.55,1.46,1.44,1.44,0,0,1-.53,1.39c-.31.21-.68,0-1,.09a4.35,4.35,0,0,0,1.69.88,2.91,2.91,0,0,0,1.06.12,1.26,1.26,0,0,0,.9-.51c.65-1,.1-2.69-.39-3.61a12.32,12.32,0,0,1-1.54-3.44,2.88,2.88,0,0,1,1.4-3.22c1.22-.49,2.56.29,3.87.31a3.5,3.5,0,0,0,3.31-2.36c.43-1.36,0-2.81-.17-4.23s.18-3.12,1.49-3.68a2.71,2.71,0,0,1,2.46.32,8,8,0,0,1,1.85,1.78l3.61,4.31a9.21,9.21,0,0,0,2.09,2,3,3,0,0,0,2.78.31,2.94,2.94,0,0,0,1.5-2,7.11,7.11,0,0,0,0-2.6,23.33,23.33,0,0,0-1-4,17.84,17.84,0,0,1-1.36-4.69c0-.33,0-.73.34-.86s.64.16.86.42c.69.83,1.29,1.74,2,2.52a4.81,4.81,0,0,0,2.77,1.57,2.57,2.57,0,0,0,2.69-1.38c.67-1.58-.32-3.53-1.06-4.92a24.94,24.94,0,0,0-2-3c-.38-.5-.78-1-1.15-1.49-.06-.08-.65-.95-.72-.68S202.34,22.23,202.29,22.44Z"/><path class="cls-15" d="M170.92,39a2.7,2.7,0,0,0,.93.94c1.12.6,2.53-.37,3-1.56a19.56,19.56,0,0,0,.63-3.76,7.12,7.12,0,0,1,2.37-4c.63-.52,1.39-1,1.65-1.77a3,3,0,0,0-.28-2.09c-2.17-5.14-6.25-2.53-8.45.91A10.58,10.58,0,0,0,170.92,39Z"/><path class="cls-5" d="M189.43,18.34a.73.73,0,0,0,.26.17.26.26,0,0,0,.28-.06c-.11-.27-.82-1.68-1.2-1.52C188.24,17.16,189.26,18.2,189.43,18.34Z"/><path class="cls-5" d="M196.66,19.84c.05-.1.12-.21.23-.21a.38.38,0,0,1,.17.32,1.23,1.23,0,0,1-.08.37c-.09.25-.21,1-.61.7S196.52,20.11,196.66,19.84Z"/><path class="cls-7" d="M191.54,23.88a3.05,3.05,0,0,0,.55-.64c.1-.14.19-.28.28-.43a.35.35,0,0,0,0-.41.34.34,0,0,0-.37-.09.69.69,0,0,0-.38.39c-.11.2-.22.41-.31.62s-.1.21-.14.32-.09.18,0,.27S191.42,24,191.54,23.88Z"/><path class="cls-5" d="M182.65,25.24c0-.16.25-.55.38-.48.62.29.31,1.2,0,1.74-.18.28-.42.3-.55-.05S182.6,25.58,182.65,25.24Z"/><path class="cls-5" d="M172.84,35.52c-.07.27.21.48.46.61s1.74.94,1.48.14C174.61,35.76,173.3,35.55,172.84,35.52Z"/><path class="cls-5" d="M172,43.33c.09-.07.25-.16.32-.06s0,.33-.06.48a1.62,1.62,0,0,1-.34.35c-.22.17-1.2,1-1.37.54S171.77,43.53,172,43.33Z"/><path class="cls-5" d="M196.5,33.85a.72.72,0,0,1,.32.08.28.28,0,0,1,.15.28c-.07.32-2.39.36-2.46,0C194.4,33.63,196.29,33.83,196.5,33.85Z"/><path class="cls-43" d="M201,23.62a3.38,3.38,0,0,0-.47,1.81.43.43,0,0,0,.48-.18,1.11,1.11,0,0,0,.18-.51l.14-.71a.47.47,0,0,0,0-.31.17.17,0,0,0-.26-.08"/><path class="cls-43" d="M179.25,39.1l-.5-.57a.68.68,0,0,1-.18-.33.33.33,0,0,1,.23-.33.4.4,0,0,1,.39.21c.27.35.75.68.7,1.12,0,.21-.28.29-.64-.1"/><path class="cls-43" d="M176,22.58a.82.82,0,0,0-.1.37.29.29,0,0,0,.2.29c.18,0,.33-.15.42-.31s.67-1.08.33-1.33S176.15,22.36,176,22.58Z"/><path class="cls-43" d="M177.63,53.45a1.44,1.44,0,0,0-.2.57.38.38,0,0,0,.06.23.25.25,0,0,0,.22.12.3.3,0,0,0,.15-.12c.2-.3.4-.62.58-.94a.56.56,0,0,0,.09-.47C178.27,52.05,177.7,53.32,177.63,53.45Z"/><path class="cls-43" d="M190.91,30.49a4.17,4.17,0,0,0-.29-.84c-.12-.23-.28-.47-.53-.51a.31.31,0,0,0-.19,0c-.16.09-.13.32-.06.49a4.27,4.27,0,0,0,.56,1,.8.8,0,0,0,.2.21.28.28,0,0,0,.28,0c.08-.06.05-.19,0-.36"/><path class="cls-7" d="M176.14,29.63a.77.77,0,0,0,.12.26.26.26,0,0,0,.26.1c.19,0,.19-.31.15-.49a2.85,2.85,0,0,0-.31-1,.5.5,0,0,0-.28-.24C175.48,28.12,176.08,29.44,176.14,29.63Z"/><path class="cls-7" d="M167.92,35a.1.1,0,0,0,0,0,.11.11,0,0,0,.08.12.29.29,0,0,0,.16,0,10.16,10.16,0,0,0,1.07-.33c.42-.16.38-.63-.08-.63S168.16,34.69,167.92,35Z"/><path class="cls-7" d="M196.61,39.29a.32.32,0,0,1,0-.16.19.19,0,0,1,.2-.12.68.68,0,0,1,.22.12,5.83,5.83,0,0,1,.93,1.11c.35.5-.11.57-.43.26A4.37,4.37,0,0,1,196.61,39.29Z"/><path class="cls-7" d="M204.77,28.87c.08-.31.21-.68.53-.77a.77.77,0,0,1,.18.52,1.45,1.45,0,0,1-.15.54c-.08.21-.35,1-.67.75S204.72,29.07,204.77,28.87Z"/><path class="cls-37" d="M185.22,31.21a8.81,8.81,0,0,0-1.26.12.11.11,0,0,0-.11.14.44.44,0,0,0,.31.35,1,1,0,0,0,.49,0c.33,0,.79.08,1-.19s-.13-.48-.41-.46"/><path class="cls-37" d="M174.35,45.66a3.48,3.48,0,0,0,.38.68.87.87,0,0,0,.27.27c.11.07.31.12.36,0,.16-.35-.2-.74-.45-1s-.42-.36-.54-.19a.23.23,0,0,0,0,.25"/><path class="cls-37" d="M169.86,28c.34.17.5-.53.67-.86a.79.79,0,0,0,.12-.44C170.49,25.5,169.5,27.82,169.86,28Z"/><path class="cls-37" d="M183.88,18.11a2.68,2.68,0,0,0-1.6-.15.5.5,0,0,0,.29.37,3.23,3.23,0,0,0,1.59.48.25.25,0,0,0,.22-.07.29.29,0,0,0,0-.27.75.75,0,0,0-.75-.45"/><path class="cls-20" d="M304,38.9c-.34-.08-.09-.87,0-1.2L310.31,10a1.68,1.68,0,0,1,2-1.27l10.56,2a1.34,1.34,0,0,0-.34.93,1.4,1.4,0,0,0,.81,1.24,1.23,1.23,0,0,0-.37.9,1.3,1.3,0,0,0,1.35,1.25,1.38,1.38,0,0,0,.58-.15,2.83,2.83,0,0,0,0,.29,1.44,1.44,0,0,0,1.5,1.39s.07,0,.09.08L321,41.42c-.09.4-.47,1.14-1,1Z"/><path class="cls-44" d="M314.85,9.43c-.61,3-6.3,27.19-6.9,30.22"/><path class="cls-44" d="M322.89,12.82c-.61,3-5.76,25.63-6.37,28.66"/><path class="cls-44" d="M319,10.2c-.61,3-6.26,27.34-6.86,30.38"/><line class="cls-44" x1="309.64" y1="13.49" x2="326.13" y2="17.25"/><line class="cls-44" x1="325.19" y1="21.57" x2="308.69" y2="17.8"/><line class="cls-44" x1="307.62" y1="22.12" x2="324.28" y2="25.8"/><line class="cls-44" x1="323.37" y1="30.19" x2="306.71" y2="26.44"/><line class="cls-44" x1="305.69" y1="30.52" x2="322.49" y2="34.37"/><line class="cls-44" x1="321.59" y1="38.28" x2="304.81" y2="34.67"/><path class="cls-41" d="M267,59.3c-1,2.62-1,6,.72,8.06,1.51,1.83,3.92,5.64,6,6.32,2.92.93,6.17,2.93,8.9,4.42,8,4.35,16.07,3.64,24.88,3.05A28.08,28.08,0,0,0,330.1,67.28a9.32,9.32,0,0,0,1.44-4.53c0-2.28-1.38-4.23-2.81-5.8-7.08-7.81-17.2-11.13-27-11.18-7.15,0-14.22,1.5-21.12,3.57C274.77,51.08,269.69,52.32,267,59.3Z"/><path class="cls-35" d="M274.24,57.51a4.61,4.61,0,0,1,1.16-8.76,8.23,8.23,0,0,1-.9-5.54,6.94,6.94,0,0,1,3.16-4.59c2.4-1.44,5.41-1.17,8.19-.84a14,14,0,0,1,3-11.8,16.43,16.43,0,0,1,11-5.31c2.46-.2,5.38.4,6.44,2.62-.8-.61-1.94-.2-2.85.22a4.12,4.12,0,0,0-1.63,1.11c-.95,1.26-.09,3.2,1.29,4a10.13,10.13,0,0,0,4.62.82c4.21.18,8.56,1.28,11.68,4.12S324,41.23,322.06,45a8.34,8.34,0,0,1,5.33,7,5.82,5.82,0,0,1-.29,2.78,6.72,6.72,0,0,1-3.09,3c-5.09,2.9-11.18,3.21-17,4.07C304.46,62.24,282.23,61.06,274.24,57.51Z"/><g class="cls-45"><path class="cls-5" d="M275.2,46.91a3.54,3.54,0,0,0,.79,2.26,6.41,6.41,0,0,0,1.82,1.58,16.62,16.62,0,0,0,4.51,1.8c3.16.89,6.46.55,9.76.7a60.18,60.18,0,0,1,9.84,1.24,55.55,55.55,0,0,1,9.45,2.92A77.19,77.19,0,0,0,301.82,55a65.35,65.35,0,0,0-9.76-1.08l-4.94-.14a17.27,17.27,0,0,1-4.93-.74,16.73,16.73,0,0,1-4.56-2,6.89,6.89,0,0,1-1.78-1.75A3.5,3.5,0,0,1,275.2,46.91Z"/></g><g class="cls-45"><path class="cls-5" d="M285.6,36.3a5.76,5.76,0,0,0,3.16,3.55,21.68,21.68,0,0,0,4.61,1.67A40.42,40.42,0,0,0,303.09,43a85,85,0,0,1,9.93.51,19.12,19.12,0,0,1,4.8,1.38,12.25,12.25,0,0,1,4.05,2.87A15.78,15.78,0,0,0,313,44a98.21,98.21,0,0,0-9.88-.35A38.56,38.56,0,0,1,293.23,42a21.32,21.32,0,0,1-4.63-1.88A5.71,5.71,0,0,1,285.6,36.3Z"/></g><path class="cls-5" d="M323.88,74.37c0-1.16-1.75-.69-2.25-.35s-1.27.58-1.66.12c-.15-.19-.19-.44-.37-.61-.43-.42-1.17.08-1.45.6s-.6,1.19-1.22,1.21-1.06-.77-1.68-1c-.8-.35-1.67.25-2.26.86s-1.28,1.32-2.15,1.24c-1.22-.1-2-1.74-3.19-1.54s-1.57,1.91-2.72,1.87c-.75,0-1.2-.8-1.89-1.1-.94-.4-2,.21-2.84.77s-1.95,1.11-2.84.62a8.61,8.61,0,0,1-.77-.58,2.41,2.41,0,0,0-3.07.54c-1.09.09-1.6-1.43-2.67-1.66-1.32-.29-2.37,1.55-3.7,1.3s-1.76-2.22-3-2.06c-.94.11-1.5,1.39-2.44,1.24-1.18-.2-1.1-2.41-2.3-2.39-.79,0-1.32,1.12-2.08.92-.58-.15-.66-.89-1-1.36a1.49,1.49,0,0,0-1.59-.54c-.57.18-1.14.7-1,1.25L281.6,97a2.13,2.13,0,0,0,1,1.47,46.26,46.26,0,0,0,28.48,1.71c1.88-.49,4-1.32,4.6-3.08C318.59,89.16,321.16,82.33,323.88,74.37Z"/><path class="cls-46" d="M277.32,75.41a52.54,52.54,0,0,0,1.79,6.87l4.67,15.1"/><path class="cls-47" d="M312.51,97.61q3.44-11,7.08-21.9"/><path class="cls-46" d="M308.57,98.55q2.44-10.44,4.47-21"/><path class="cls-46" d="M287.26,97.75q-1.87-10.29-4.6-20.4"/><path class="cls-46" d="M290.79,98.64q-.69-10.48-1.88-20.91"/><path class="cls-46" d="M304.34,98.45c.58-6.72,1.43-13.42,2.55-20.06"/><path class="cls-46" d="M295.6,98.91q-.33-10.2-1.06-20.37"/><path class="cls-46" d="M299.73,99q0-9.9.38-19.78"/><path class="cls-48" d="M284.92,64.7a4.63,4.63,0,0,0,1,2.88,2.48,2.48,0,0,0,2.79.73c1.13-.53,1.48-2,1.58-3.19"/><path class="cls-48" d="M312.41,65a4.63,4.63,0,0,1-1.05,2.86,2.47,2.47,0,0,1-2.82.66c-1.11-.55-1.43-2-1.49-3.23"/><path class="cls-48" d="M296.42,69.86a1.59,1.59,0,0,0,1.35,1.77,1.48,1.48,0,0,0,1.55-1.54,1.43,1.43,0,1,0,2.76-.28"/><circle class="cls-37" cx="287.29" cy="43.48" r="2.41"/><circle class="cls-37" cx="291.57" cy="23.71" r="2.41"/><circle class="cls-37" cx="294.05" cy="57.05" r="2.41"/><circle class="cls-37" cx="303.31" cy="48.2" r="2.41"/><circle class="cls-37" cx="316.88" cy="52.34" r="2.41"/><circle class="cls-37" cx="318.03" cy="37.86" r="2.41"/><circle class="cls-37" cx="300.42" cy="34.76" r="2.41"/><path class="cls-35" d="M289.14,45.26c.9.18,1.95.33,2.39,1.13a1.85,1.85,0,0,1-.76,2.32,4.35,4.35,0,0,1-2.59.51c-1.51-.07-5.82-1-5.23-3.42S287.7,45,289.14,45.26Z"/><path class="cls-35" d="M295.71,24a2.31,2.31,0,0,0-2.75-.15A6.68,6.68,0,0,0,291,26c-.52.77-1,1.86-.38,2.53a1.5,1.5,0,0,0,2-.12,7.43,7.43,0,0,0,1.23-1.83,2.41,2.41,0,0,1,1.68-1.32"/><path class="cls-35" d="M304.38,38.53a2.05,2.05,0,0,1-1.61,1.68c-1.91.51-8.38-.72-5.34-3.72C298.87,35.07,304.6,35.89,304.38,38.53Z"/><path class="cls-35" d="M296.68,47a7.24,7.24,0,0,0,3.63.46c1.23,0,2.64.24,3.29,1.29a2.48,2.48,0,0,1-1,3.29,3.51,3.51,0,0,1-3.65-.39,6.36,6.36,0,0,1-2.14-3.13"/><path class="cls-35" d="M289,59l3.12-1.17c1.16-.43,2.58-.83,3.54-.06a1.87,1.87,0,0,1,0,2.79,3.12,3.12,0,0,1-2,.56,10.83,10.83,0,0,1-3.9-.72"/><path class="cls-49" d="M311.06,56.05a5.5,5.5,0,0,1,6.67-2.63,2.07,2.07,0,0,1,.78.47,2.71,2.71,0,0,1,.33,2.37,1.55,1.55,0,0,1-.45,1,1.46,1.46,0,0,1-.74.22,12.85,12.85,0,0,1-6.74-1.23"/><path class="cls-49" d="M320.75,39.47a2.93,2.93,0,0,0-4.91,2.2,3.2,3.2,0,0,0,4.56-1.92"/><circle class="cls-37" cx="277.18" cy="52.15" r="2.41"/><path class="cls-35" d="M279.89,53.78A2.92,2.92,0,0,0,275,56a3.21,3.21,0,0,0,4.58-1.89"/><path class="cls-50" d="M469.69,217.51c.14-1.69,3.48-12.81.48-19.91S450.93,188,445,187c-14.31-2.52-21.87-11.48-24.64-20.64l-3.09-10.24a9.22,9.22,0,0,0,3-8.61,8.58,8.58,0,0,0-7.68,3.74s-4.15-2.93-7.84-2.42c0,0-.89-5.57-5.14-7.34,0,0-3.82,4.78-2.34,8.43,0,0-8.36,4.3-12.34,8.67s-5.48,11.31.66,13.8,16-.35,16-.35-1,13.77,1.83,20.18c0,0-13.4,6-20.75,14.15a3,3,0,0,0,1.59,2.74s15.84-6.4,20.74-7.19c0,0,2.56.12,1.42,1.92,0,0-10.7,6.64-16.07,12.49,0,0-.9,3,1.91,3,0,0,13.13-7.1,20.29-8.9,0,0,23,12.65,38.76,14.51,0,0,14.59,15.81,19,18.9a2.44,2.44,0,0,0,2.7-1.58s-12.7-17.62-12-19.17,3.29-.77,5.47,1.63,12.71,16.05,12.71,16.05a1.88,1.88,0,0,0,2.35-1.43S469.54,219.2,469.69,217.51Z"/><path class="cls-51" d="M389.34,155.73a3.58,3.58,0,0,0,4.05,2.46,2,2,0,0,0,1.54-1.17"/><path class="cls-51" d="M400.45,158.45A3.93,3.93,0,0,0,403,161a3.26,3.26,0,0,0,3.39-1.08"/><path class="cls-51" d="M383.82,166.59a1,1,0,0,1,1.95.12"/><path class="cls-51" d="M390.92,168.45c0,.07-.13.06-.14,0s.05-.13.1-.17a1.19,1.19,0,0,1,1.9,1"/><path class="cls-3" d="M475.18,200c1.29-.17,2.23-1.33,3-2.39s1.32-2.23,2.09-3.27a10.49,10.49,0,0,1,7.47-4.15,12.13,12.13,0,0,1,6.8,1.59,7.86,7.86,0,0,1,2.44,2,20.78,20.78,0,0,1,1.57,2.9,11,11,0,0,0,18.64,1.2c-.93,3.53-3.38,7.05-6.77,8.42a12.28,12.28,0,0,1-5.66.88,13.82,13.82,0,0,0,5.83,3.65c-2.31,3-4.95,4.77-7.92,4.83a4.13,4.13,0,0,0,2.2,1.65,7.18,7.18,0,0,1-4.8,3.48,7.77,7.77,0,0,1-3.14-.26,14.41,14.41,0,0,1-9.89-9.22,22.75,22.75,0,0,0-1.62-4.66c-1.59-2.63-5-3.77-8.06-3.18a27.69,27.69,0,0,1-3.35.7,2.49,2.49,0,0,1-2.63-1.14s-.34-2.57-.79-4.31A7.8,7.8,0,0,0,475.18,200Z"/><path class="cls-38" d="M444.28,186.63c2.25-2.39,2.82-5.86,3.29-9.1a3.54,3.54,0,0,1-3,1.92,7.61,7.61,0,0,1-3.61-.79,13.47,13.47,0,0,0,3.4-6.4,7.65,7.65,0,0,1-9.42.48,4.25,4.25,0,0,0,3.53-2,9.05,9.05,0,0,0,1.3-4,10.93,10.93,0,0,1-9.27-1.08,8.59,8.59,0,0,0,3.19-1.54,9,9,0,0,0,2.55-4.95,2.53,2.53,0,0,1-2.25,1.1,8.28,8.28,0,0,1-5.48-1.77,35,35,0,0,1-3.64-4.05c-1.23-1.34-2.86-2.52-4.67-2.45a9.89,9.89,0,0,1-2.93,4.06l3.23,10.68a25.5,25.5,0,0,0,9.89,14.07C438.67,186.9,444.28,186.63,444.28,186.63Z"/><path class="cls-38" d="M403.84,145.88l4-16.13s.67-.82,1,.21,4.47,20.45,4.47,20.45l-.65.8s-4.41-3.2-7.84-2.42A8.84,8.84,0,0,0,403.84,145.88Z"/><path class="cls-7" d="M421.8,160.16a14.1,14.1,0,0,1,2.85.9,26,26,0,0,1,2.25,1.37,16.23,16.23,0,0,0,4.27,1.86,3.69,3.69,0,0,0,1.83.14c1.21-.3,1.87-1.56,2.38-2.69a4.76,4.76,0,0,0,.5-1.59,18.14,18.14,0,0,1-3.13-.08,7.71,7.71,0,0,1-1.59-.31,9.51,9.51,0,0,1-1.75-.87,7.48,7.48,0,0,1-2.12-1.61,20.5,20.5,0,0,1-1.08-1.75c-1.2-1.81-3.33-2.75-5.34-3.6a.67.67,0,0,0-.39-.07.67.67,0,0,0-.31.27l-2.61,3.58a.62.62,0,0,0-.16.35.56.56,0,0,0,.05.25l.67,1.94c.15.43.26,1.24.63,1.55s.91.08,1.34.09A8.34,8.34,0,0,1,421.8,160.16Z"/><path class="cls-3" d="M425.4,168.26a38.37,38.37,0,0,1,3.75,2.87,7.43,7.43,0,0,0,1.27.82,8.85,8.85,0,0,0,3.58.64,6.44,6.44,0,0,0,1.81-.1,4.55,4.55,0,0,0,2.74-2.3,13.42,13.42,0,0,0,1.18-3.47,2.66,2.66,0,0,1-2.07.6,20.88,20.88,0,0,1-3.87-.27,7.47,7.47,0,0,1-3.5-1.56c.72-.43,1.82-.21,2.29-.91a8.36,8.36,0,0,1-3.93-1.29c-.65-.41-1.24-.92-1.88-1.36a11.6,11.6,0,0,0-8-1.93.5.5,0,0,0-.33.14.47.47,0,0,0-.05.33c.17,2,1.25,4,2,5.88.37.92.9.87,1.8.9A6.7,6.7,0,0,1,425.4,168.26Z"/><path class="cls-35" d="M426.59,177.48c1.54-.51,3.07.19,4.59.78a16.78,16.78,0,0,0,5.28,1.31,7.32,7.32,0,0,0,5.1-1.57c1.69-1.48,2.34-3.8,2.9-6a6.35,6.35,0,0,1-4.75,2.08,7.62,7.62,0,0,1-4.77-1.36,10.85,10.85,0,0,1-7.2-2.44c-.6-.46-1.14-1-1.75-1.42a6.82,6.82,0,0,0-5.22-1.31,21.7,21.7,0,0,0,3.53,7.25A27.82,27.82,0,0,0,426.59,177.48Z"/><rect id="cadre" class="cls-1" width="524.41" height="269.29"/></svg>