<svg xmlns="http://www.w3.org/2000/svg" viewBox="0 0 467.72 184.25"><defs><style>.a{fill:#130c19;}.b{fill:#69a492;}.c{fill:#cbda8a;}.d{fill:#e6e7e7;}.e{fill:#5f8072;}.f{fill:#d5c098;}.g{fill:#7c653c;}.h{fill:#bdcd75;}.i{fill:#8e5b36;}.j{fill:#f4a4a5;}.k{fill:#f0e6e2;}.l{fill:#fff;}.m{fill:#f7b9b8;}.n{fill:#f1e6cc;}.o{fill:#ebe4da;}.p{fill:none;}</style></defs><title>troscoltube_panda</title><path class="a" d="M50.72,10.68a3.6,3.6,0,0,1,2.7-3.5,8.07,8.07,0,0,1,4.7.35L58,7.89a4.43,4.43,0,0,1,2.61,2l-.26.12a2.48,2.48,0,0,1,1.18,2.34l-.62.12a13.53,13.53,0,0,1-2.63-2,7.94,7.94,0,0,0-2.6-1.34,4.44,4.44,0,0,0-2.88.15A3.64,3.64,0,0,0,51,11C50.93,10.93,50.82,10.74,50.72,10.68Z"/><path class="a" d="M85.29,23.82c-.07,0-.06.07-.13.05-.35-.67.25-2.26,1-2.41a2,2,0,0,1,1.6.39,2.74,2.74,0,0,1-.27,3,2.16,2.16,0,0,1-1.39.28c-1.26-.14-1.15-1-1-2.07"/><path class="a" d="M90.59,19.32c-.68-.36-.26-2.33.21-2.71.26-.23.51-.07.79-.14s.64-.46,1.06-.18c.7.47.47,2.32.06,2.89S90.63,19.93,90.59,19.32Z"/><path class="a" d="M91.84,24.63c-.28,0,0-1.87.26-2.18a1.19,1.19,0,0,1,1.75.05c.66.74.27,2.24-.37,2.88C92.62,26.25,91.81,25.36,91.84,24.63Z"/><path class="a" d="M89.73,29.66c.23-.65-.07-2.32.94-2.49.48-.08.48.34.74.42s.39-.09.65.06C93.7,28.6,90.38,32.38,89.73,29.66Z"/><path class="a" d="M95.28,19.94c-.45-.5,0-2.09.17-2.63s.86-1.68,1.17-.57c1.24-.65,1.12,1.19.92,2a2.89,2.89,0,0,1-.74,1.39C96.08,20.72,95.6,20.14,95.28,19.94Z"/><path class="a" d="M95.59,30.14a3.74,3.74,0,0,1,.33-2.52c.16-.32.61-.92,1-.74.23.1.44.68.58.91a2,2,0,0,1,0,2.47c-.29.4-.46.56-.94.53C95.91,30.74,95.82,30.35,95.59,30.14Z"/><path class="a" d="M97.87,24.58c-.74.36-.26-2.36-.17-2.61s.38-1,.83-.88c.25.07.28.43.51.5.39.13.66-.29,1,.2a2.93,2.93,0,0,1,0,2A1.86,1.86,0,0,1,98.93,25c-1.06.36-1.39-.73-1.49-1.55"/><path class="a" d="M101.55,18.51c-.06,0-.08,0-.15,0-.22-.67,0-3.11.88-3.19a2.1,2.1,0,0,1,1.43.65,2.49,2.49,0,0,1-.33,2.42C102.8,19.17,101.34,19.2,101.55,18.51Z"/><path class="a" d="M102.79,22.91c-.43-.38.1-2,.31-2.4.44-.82,1.14-.44,1.59.19a1.67,1.67,0,0,1,0,2C104.24,23.28,102.64,24.41,102.79,22.91Z"/><path class="a" d="M101.41,29.06a4.09,4.09,0,0,1,.5-2.56c.6-.93,1.35-.12,1.8.49C104.81,28.51,102,30.91,101.41,29.06Z"/><path class="a" d="M106.29,26.59c-.45.06-.05-2,.08-2.24.34-.61.57-.48,1.09-.38.84.15,1.36.17,1.2,1.23a1.69,1.69,0,0,1-.63,1.18c-.76.52-1.33,0-1.89-.5"/><path class="a" d="M107.87,19.13c-.73-.41-.32-1.75-.07-2.3.57-1.26.89-.77,1.77-.34a1.31,1.31,0,0,1,.52,2,1.21,1.21,0,0,1-.92.73c-.92.12-1.34-.55-1.45-1.34"/><path class="a" d="M111.36,24.25c-.43.13-.76-.77-.77-1.1-.06-1.12.64-2.06,1.68-1.89s1.25.46,1.19,1.49a1.74,1.74,0,0,1-.51,1.41C112.56,24.44,111.56,24.61,111.36,24.25Z"/><path class="b" d="M439.24,24.44a.88.88,0,0,1,.25.41c-4.19-1-7.31-5.92-8.19-9.8a48,48,0,0,1-1-7.94,9.52,9.52,0,0,1,.11-3.24,40.29,40.29,0,0,0,2.84,3,28.67,28.67,0,0,1,5.5,8.89,20.15,20.15,0,0,1,1.52,6.05C440.41,23,441,24.87,439.24,24.44Z"/><path class="c" d="M446.75,33a5.21,5.21,0,0,1-.34.56c-1.21-7.7,4.11-13.32,9.91-17.5a5.43,5.43,0,0,1-.25,2.21,40.14,40.14,0,0,1-3.44,9.32,18.51,18.51,0,0,1-3,4.68C449,33,446.84,34.87,446.75,33Z"/><path class="c" d="M56.16,158a.79.79,0,0,0-.24.41c4.18-1,7.3-5.92,8.18-9.8a48,48,0,0,0,1-7.94,9.78,9.78,0,0,0-.1-3.24c-.86,1.07-1.89,2-2.85,3a28.93,28.93,0,0,0-5.5,8.88,20.29,20.29,0,0,0-1.52,6.06C55,156.53,54.39,158.41,56.16,158Z"/><path class="b" d="M52.15,173.16a6.53,6.53,0,0,0,.35.56c1.2-7.7-4.12-13.33-9.91-17.5a5.26,5.26,0,0,0,.25,2.21,39.69,39.69,0,0,0,3.44,9.32,18.45,18.45,0,0,0,3,4.67C50,173.08,52.06,175,52.15,173.16Z"/><path class="c" d="M280.77,32.93a.88.88,0,0,0-.25.41c4.19-1,7.31-5.92,8.18-9.8a47,47,0,0,0,1-7.94,9.77,9.77,0,0,0-.11-3.24,40.32,40.32,0,0,1-2.85,3,28.9,28.9,0,0,0-5.49,8.88,20.29,20.29,0,0,0-1.52,6.06C279.6,31.48,279,33.36,280.77,32.93Z"/><path class="b" d="M276.76,45.57a4.73,4.73,0,0,0,.35.56c1.2-7.7-4.12-13.33-9.92-17.5a5.27,5.27,0,0,0,.26,2.21,39.69,39.69,0,0,0,3.44,9.32,18.19,18.19,0,0,0,3,4.67C274.56,45.49,276.67,47.41,276.76,45.57Z"/><path class="d" d="M301.07,65.09a10.45,10.45,0,0,0-2.33-1,7.2,7.2,0,0,0-5.9,2.17c-1.23,1.43-.69,2.8.88,3.6a11.18,11.18,0,0,0,4.66.76c1.4.06,6.08-.4,5-2.81a6.08,6.08,0,0,0-3.19-3.14"/><path class="d" d="M292.34,72.65a2.78,2.78,0,0,0-3.16,0c-.55.27-2.31,1.15-2,2.11.21.63,1.55.82,2.1.89,1,.11,3-.12,3.81-.9C294.09,73.72,292.72,72.78,292.34,72.65Z"/><path class="d" d="M286.26,67.79c.09-.24-.3-.36-.58-.47a3,3,0,0,0-3,.77c-.58.53-.95.84-.45,1.46a3.13,3.13,0,0,0,2.19,1.17,3.88,3.88,0,0,0,3.18-1.28C288.46,68.23,286.75,67.84,286.26,67.79Z"/><path class="d" d="M105.31,55.22a11.16,11.16,0,0,0-2.33-.95,7.23,7.23,0,0,0-5.91,2.17c-1.23,1.43-.69,2.8.88,3.6a11.21,11.21,0,0,0,4.66.76c1.4.06,6.09-.39,5-2.8a6.1,6.1,0,0,0-3.19-3.15"/><path class="d" d="M94.12,59.64c.09-.23-.29-.36-.58-.46a3,3,0,0,0-3,.76c-.58.53-1,.85-.46,1.47a3.14,3.14,0,0,0,2.2,1.16,3.93,3.93,0,0,0,3.18-1.27C96.33,60.09,94.61,59.7,94.12,59.64Z"/><path class="a" d="M162.84,41.13a.28.28,0,0,1-.27-.2,8.39,8.39,0,0,1-.18-2.73v-.11c0-.13,0-.29.05-.47a3.51,3.51,0,0,0,0-1.45,5.64,5.64,0,0,0-1.8,1.29l-.53.48a.28.28,0,0,1-.4,0,.29.29,0,0,1,0-.41l.51-.46a5.71,5.71,0,0,1,2.21-1.48.28.28,0,0,1,.28.06c.48.45.37,1.39.29,2.07a3.82,3.82,0,0,0,0,.43v.1a9.91,9.91,0,0,0,.08,2.25,4.68,4.68,0,0,0,1-.81,4.81,4.81,0,0,1,1.35-1,.29.29,0,1,1,.22.53,4.48,4.48,0,0,0-1.17.9,3.66,3.66,0,0,1-1.53,1.06Z"/><path class="a" d="M167.48,35.87a.28.28,0,0,1-.2-.08.29.29,0,0,1-.09-.21,5.22,5.22,0,0,1,.29-1.28,3.62,3.62,0,0,0,.26-1.48,7.16,7.16,0,0,0-1.73.57l-.24.1a.29.29,0,0,1-.38-.15.29.29,0,0,1,.16-.38l.23-.1a7.14,7.14,0,0,1,2.15-.64.31.31,0,0,1,.29.18,3.14,3.14,0,0,1-.19,2.07,7.91,7.91,0,0,0-.22.78,4.22,4.22,0,0,0,.87-.36,4.89,4.89,0,0,1,.57-.27.29.29,0,0,1,.38.16.28.28,0,0,1-.16.37,5.12,5.12,0,0,0-.53.25,3.27,3.27,0,0,1-1.46.47Z"/><path class="a" d="M173.13,33.44h-.31a.3.3,0,0,1-.2-.1.29.29,0,0,1-.07-.22,3.84,3.84,0,0,1,.4-1.24,4.57,4.57,0,0,0,.34-.93,2.33,2.33,0,0,0-1.43.26.29.29,0,1,1-.27-.51,2.86,2.86,0,0,1,2.1-.25.29.29,0,0,1,.21.29,3.79,3.79,0,0,1-.43,1.37,5.12,5.12,0,0,0-.29.76c.25,0,.51,0,.77,0l.44,0a.3.3,0,0,1,.3.27.29.29,0,0,1-.27.31l-.42,0C173.72,33.41,173.42,33.44,173.13,33.44Z"/><path class="e" d="M352.34,104.27a1.81,1.81,0,0,0-.22-.64c-.6-1.39-1.66-2.65-2.32-4A23.93,23.93,0,0,1,347.34,88a29.84,29.84,0,0,1,2.23-10.47,5.9,5.9,0,0,1,1.4-2.42,19.65,19.65,0,0,0,1.65,3.27,18.3,18.3,0,0,1,2.58,8.09,44.92,44.92,0,0,1-.91,11.8C354,100.17,353.7,103,352.34,104.27Z"/><path class="e" d="M355.87,102.7a.89.89,0,0,0-.18.24,18.76,18.76,0,0,1,7.46-9.33,26.21,26.21,0,0,1,5.53-2.42,9.54,9.54,0,0,1,3.13-.82c-.4.81-.77,1.65-1.11,2.51A13,13,0,0,1,366,98.29a29.8,29.8,0,0,1-6.63,3.61C358.2,102.33,356.08,103.55,355.87,102.7Z"/><path class="f" d="M347.19,112.29a28.32,28.32,0,0,1,4.95,4.47,57.81,57.81,0,0,1,7.12,9.29c.71,1.15.61,1.6,1.85,1.23a5.45,5.45,0,0,0,2.73-1.52c-1.85-3.61-3.5-7.46-5.06-11.22-.88-2.13-1.85-4.23-2.57-6.42a9.45,9.45,0,0,0-1.12-2.88,37.3,37.3,0,0,1-2.93,2.49C350.75,108.88,349.54,110.37,347.19,112.29Z"/><path class="g" d="M353.9,105.86c.06-.08.15,0,.12-.13a17.24,17.24,0,0,0-7.46,6.81,16.34,16.34,0,0,0,2.85-1.6,12.92,12.92,0,0,0,3.51-2.57c.65-.71,2.09-1.82,2.25-2.83A4,4,0,0,1,353.9,105.86Z"/><path class="g" d="M352.91,118.23a.28.28,0,0,1-.28-.24.29.29,0,0,1,.23-.33,10.52,10.52,0,0,0,6.14-3.23.28.28,0,0,1,.4,0,.3.3,0,0,1,0,.41,11.13,11.13,0,0,1-6.47,3.42Z"/><path class="g" d="M358.26,125.07a.3.3,0,0,1-.32-.29.29.29,0,0,1,.29-.29h0c1.28,0,3.39-.38,4.05-1.46a.28.28,0,0,1,.39-.1.29.29,0,0,1,.1.4C362,124.71,359.49,125.07,358.26,125.07Z"/><path class="f" d="M9,167c-2-2,3.06-13.56,4-16.24a100,100,0,0,1,14-26.57c4.82-6.43,14.78-16.4,22.28-19.83l2.31,1.18c-9,6.31-17.66,14.88-23.13,24.65-6.69,12-12.36,25.2-10.87,39C14.67,168.68,11.4,168.36,9,167Z"/><path class="g" d="M16.44,160.45l-.63,0c-2.36-.25-5.71-1.77-6.11-3.14a.29.29,0,0,1,.19-.36.29.29,0,0,1,.36.2c.3,1,3.35,2.49,5.62,2.73,1,.1,1.73-.07,1.94-.46a.29.29,0,0,1,.39-.12.29.29,0,0,1,.12.39A2,2,0,0,1,16.44,160.45Z"/><path class="g" d="M18.85,148.18a6.61,6.61,0,0,1-1.16-.11,5,5,0,0,1-1.94-1,3.3,3.3,0,0,0-1.43-.78.29.29,0,0,1-.26-.31.28.28,0,0,1,.31-.26,3.57,3.57,0,0,1,1.72.89,4.69,4.69,0,0,0,1.71.94,3.4,3.4,0,0,0,2.48-.28.29.29,0,1,1,.39.42A2.71,2.71,0,0,1,18.85,148.18Z"/><path class="g" d="M23.22,138.4a6.28,6.28,0,0,1-4.43-2.3.28.28,0,1,1,.44-.36c1.08,1.34,3.58,2.73,5.29,1.76a.29.29,0,0,1,.28.5A3.15,3.15,0,0,1,23.22,138.4Z"/><path class="g" d="M29.81,127.16c-1.59,0-3-1.4-3.88-2.3l-.13-.13a.29.29,0,0,1,.41-.41l.13.13c1.09,1.1,2.75,2.76,4.47,1.88a.3.3,0,0,1,.39.13.28.28,0,0,1-.13.38A2.74,2.74,0,0,1,29.81,127.16Z"/><path class="g" d="M37.1,118.82c-1.5,0-3-1.34-3.94-2.78a.29.29,0,0,1,.08-.4.28.28,0,0,1,.4.08c.37.54,2.29,3.21,4.22,2.37a.29.29,0,0,1,.38.15.3.3,0,0,1-.15.38A2.5,2.5,0,0,1,37.1,118.82Z"/><path class="g" d="M46.68,110.36l-.11,0a5.18,5.18,0,0,1-3.25-3.27.29.29,0,0,1,.56-.12,4.66,4.66,0,0,0,2.9,2.85.29.29,0,0,1-.1.56Z"/><path class="e" d="M47.67,105.19c-.81-1.09-.18-5.81.15-7.37.46-2.21,1.58-6.07,3.41-7.51,1.57,2.41.62,6.37-.1,9S48.8,103.49,47.67,105.19Z"/><path class="e" d="M49.34,105.14a11,11,0,0,0,1.62-2c2.54-3.14,5.13-5.69,8.91-7.35,1.33-.59,5.22-3,5.17-.57s-4.05,5.34-5.83,6.48C56.4,103.51,53.24,104.39,49.34,105.14Z"/><path class="e" d="M50,106.4c1.91-1.36,8.71-.4,10.27,1.32C58.65,110.37,52.91,108.15,50,106.4Z"/><path class="e" d="M20.94,133a1.63,1.63,0,0,1,0,.62,17.8,17.8,0,0,1-7.74-10.06c-.78-2.78-.59-5.71-.63-8.56,3.23,1,5.76,6.56,7,9.42C20.62,126.72,22.06,131.22,20.94,133Z"/><path class="e" d="M22.33,130l.2.42c-.66-4.1-.5-10.54,2.86-13.69C27.39,120.43,24.69,126.49,22.33,130Z"/><path class="h" d="M365,171.92a.49.49,0,0,1-.43-.26,3.23,3.23,0,0,0-.29-.31c-.54-.54-1.09-1.06-1.64-1.57a40.87,40.87,0,0,1-3-3c-1.77-2-3.77-4.31-5.48-6.69-2.51-3.48-4-7.42-5.6-11.83a.49.49,0,1,1,.93-.33c1.55,4.34,3,8.21,5.47,11.59,1.69,2.33,3.58,4.51,5.42,6.61a40.94,40.94,0,0,0,2.94,2.95c.56.52,1.12,1,1.67,1.59s.47.55.49.62a.5.5,0,0,1-.31.62Z"/><path class="c" d="M353.24,158c-2.52-1.89-4.46-2-5.91-4.8-1.15-2.27-1.77-6.88-2.32-9.38a6.11,6.11,0,0,1-.26-3,27.79,27.79,0,0,1,7,6.83C354,150.91,353.38,154.27,353.24,158Z"/><path class="c" d="M359.05,166.12c.12,1.16-5.43.3-6,.16-3.86-.89-7.91-4.11-10.89-6.74,2.66-.38,5.86.65,8.34,1.5A22.82,22.82,0,0,1,359.05,166.12Z"/><path class="c" d="M361,167.35c-1.2-2.61-2.62-4.74-2.92-7.71a33.55,33.55,0,0,1,.34-7.62,7,7,0,0,1,.46-2.44c1.46,1.51,2.27,3.95,3,5.92C363.48,159.85,362.52,163.77,361,167.35Z"/><path class="h" d="M121.47,43.32A.49.49,0,0,1,121,43a.51.51,0,0,1,.36-.6c4.11-1,8.86-2.5,13-5.58a23.24,23.24,0,0,0,5-5.27c.63-.88,1.19-1.84,1.74-2.77a32.76,32.76,0,0,1,2.28-3.5.5.5,0,0,1,.78.61,30.94,30.94,0,0,0-2.21,3.4c-.56.94-1.13,1.92-1.78,2.83a24.14,24.14,0,0,1-5.19,5.49c-4.26,3.18-9.13,4.69-13.33,5.75Z"/><path class="c" d="M137.48,34.69c2.56-1.32,4.57-2.12,6.3-4.45,1.39-1.87,2.41-4.9,3.29-7.07a5.6,5.6,0,0,0,.7-2.69,25.3,25.3,0,0,0-7.37,5.07C137.9,28.18,137.93,31.31,137.48,34.69Z"/><path class="c" d="M129.71,40c-.49,1,4.51,2.48,5,2.59,3.58.76,8.07-.52,11.46-1.7-2.13-1.43-5.19-1.78-7.57-2A18.72,18.72,0,0,0,129.71,40Z"/><path class="c" d="M129.79,40.74c1.56-2.42,3.25-4.32,4-7.23a33.8,33.8,0,0,0,.72-7.59,7.07,7.07,0,0,0-.11-2.48c-1.66,1.29-2.8,3.59-3.8,5.44C128.36,33,128.77,37,129.79,40.74Z"/><path class="d" d="M416.23,91A10.42,10.42,0,0,0,413.9,90,7.19,7.19,0,0,0,408,92.2c-1.23,1.44-.69,2.81.88,3.6a11.21,11.21,0,0,0,4.66.76c1.41.06,6.09-.39,5-2.8a6.13,6.13,0,0,0-3.19-3.15"/><path class="d" d="M422.85,97.17a2.78,2.78,0,0,0-3.16,0c-.55.27-2.31,1.15-2,2.11.21.63,1.55.82,2.1.88,1,.12,3-.11,3.81-.89C424.6,98.23,423.23,97.3,422.85,97.17Z"/><path class="d" d="M406.06,95.46c.09-.24-.29-.36-.57-.47a3,3,0,0,0-3,.77c-.58.53-1,.84-.45,1.46a3.11,3.11,0,0,0,2.19,1.17,3.94,3.94,0,0,0,3.18-1.28C408.27,95.9,406.56,95.51,406.06,95.46Z"/><path class="d" d="M180.27,112.55a10.42,10.42,0,0,1,2.33-.94,7.16,7.16,0,0,1,5.9,2.16c1.23,1.44.69,2.81-.88,3.6a11.13,11.13,0,0,1-4.65.76c-1.41.06-6.09-.39-5-2.8a6.1,6.1,0,0,1,3.19-3.15"/><path class="d" d="M189,120.11a2.8,2.8,0,0,1,3.16,0c.55.27,2.31,1.14,2,2.11-.21.63-1.55.82-2.1.88-1,.11-3-.12-3.81-.89C187.25,121.18,188.62,120.24,189,120.11Z"/><path class="d" d="M195.08,115.26c-.08-.24.3-.37.58-.47a3,3,0,0,1,3,.76c.58.54,1,.85.45,1.47a3.12,3.12,0,0,1-2.19,1.16,3.92,3.92,0,0,1-3.18-1.27C192.88,115.7,194.59,115.31,195.08,115.26Z"/><path class="f" d="M216.23,172.23a10.25,10.25,0,0,0,.46-2.43c.35-2.08.74-4.2,1.16-6.26A92.39,92.39,0,0,1,223,147.38c.35-.85,1-3.41,1.87-3.95.52-.31,1.61.15,2.14.23,1.73.23,3.51.42,5.2.77a9.82,9.82,0,0,1-1,1.68c-.91,1.56-1.84,3.14-2.73,4.73a52.65,52.65,0,0,0-5.18,12.49c-.47,1.86-1,3.72-1.5,5.56a17.71,17.71,0,0,1-1,3.56C220.18,173.49,217.2,173.2,216.23,172.23Z"/><path class="i" d="M223.58,161.11a2.92,2.92,0,0,1-.51,0,10.52,10.52,0,0,1-4.66-1.82.49.49,0,0,1,0-.69.5.5,0,0,1,.7,0,9,9,0,0,0,4.16,1.57,3.2,3.2,0,0,0,.76,0,5.29,5.29,0,0,1,1,0,.5.5,0,1,1-.16,1,3.1,3.1,0,0,0-.75,0Z"/><path class="c" d="M227.94,141.78c-.46-.26-.83-3-.89-3.39-.61-4.13.61-8.53,2.22-12.31a30.59,30.59,0,0,1,6.24-9.54c.84-.85,2-2.22,3.15-2.49a51.23,51.23,0,0,1-.91,6.29,48.28,48.28,0,0,1-3.12,10.15c-1.07,2.31-2.35,4.57-3.49,6.85C230.31,139,229.35,141.11,227.94,141.78Z"/><path class="c" d="M230.72,143a5,5,0,0,0,.76-.93,20.8,20.8,0,0,1,5.31-5.48,25.44,25.44,0,0,1,11.29-4.22c1.21-.15,3.35-.38,4.51.3-.86.78-1.68,1.66-2.53,2.47a28.53,28.53,0,0,1-6.77,4.61,37.79,37.79,0,0,1-6.89,2.34C234.79,142.54,232.65,143.26,230.72,143Z"/><path class="c" d="M222,146.84a20.21,20.21,0,0,1-6.63-5.17c-2-2.4-3.52-6-2.82-9.26,2.84,1.82,4.87,5.11,7,7.69a10.06,10.06,0,0,1,2.22,3.51C222,144.45,222.52,145.89,222,146.84Z"/><path class="i" d="M232.78,144.56a4.44,4.44,0,0,0-1.81-.63,37.38,37.38,0,0,0-4.62-.58c-.37,0-2.47-.14-2.41.33s2.15.72,2.53.79A19.36,19.36,0,0,0,232.78,144.56Z"/><path class="a" d="M51.51,74.91c.73,1,3,1.57,4.08,2a17.44,17.44,0,0,0,5.78.92c3.54,0,6.34-2.47,7.48-5.83.51-1.51.64-3.19-1.29-3-2.13.22-3.8-1.06-5.41-2.52-1.83-1.66-3.6-2.73-6.13-1.67C52.08,66.45,51.13,71.2,51.51,74.91Z"/><path class="a" d="M50.69,11.49c.44-1.25.39-3.15,1.78-4,1.23-.77,3.37-.26,4.63.16,1.86.61,4.51,3,4.46,5.09a4.57,4.57,0,0,1-1.48,2.81c-.57.48-2.16,1.7-2.88,1.7-1.21,0-3.2-2.14-4.14-2.91C52.33,13.71,49.57,12,50.69,11.49Z"/><path class="j" d="M54.9,10.44a6.15,6.15,0,0,1,2.53,1.66,2.28,2.28,0,0,1,0,1.81,1.81,1.81,0,0,1-.9.91c-1.08.45-4-.72-4-2.05C52.45,11.17,53.71,10,54.9,10.44Z"/><path class="a" d="M23.43,13.32a8.81,8.81,0,0,0-4.5-5.19c-2-.91-5.33,0-6.84,1.59.22.13.44.44.74.53C10,11.22,7.51,16,8.91,18.48A5.36,5.36,0,0,1,9.75,18c-.06,2.05.3,2.86,2,4,1,.69,3.27,1.6,4.44,1.13A3.33,3.33,0,0,0,17.38,22c1.42-1.71,3.08-3.2,4.49-4.89C22.76,16.09,24.3,14.2,23.43,13.32Z"/><path class="j" d="M18.35,13.24a2.26,2.26,0,0,0-2-.17,3.43,3.43,0,0,0-1,.7,5.12,5.12,0,0,0-1.6,2.85,2.84,2.84,0,0,0,1.27,2.86,3.68,3.68,0,0,0,1.34.38,2.48,2.48,0,0,0,1.84-.32A2.69,2.69,0,0,0,19,18.12a11.81,11.81,0,0,0,.69-3A2.53,2.53,0,0,0,18.35,13.24Z"/><path class="k" d="M57.89,42.29A21.24,21.24,0,0,0,58.83,45a27.57,27.57,0,0,1,1.29,5.38,72.53,72.53,0,0,1,.77,8.95,46.92,46.92,0,0,1-.57,8.12,9,9,0,0,1-2,4.77c-2.76,3-7.64,3.17-11.39,3.68a89.15,89.15,0,0,1-14.24.48c-2.09,0-4.18,0-6.25.14a21,21,0,0,1-11-3.06,6,6,0,0,1-3.07-4c-.93-3.85.2-8.42,1.26-12.14C16.85,46.39,25,36.57,36.53,34a36.53,36.53,0,0,1,14.58-.41c2.63.5,5.7,1.5,6.53,4.37C58.06,39.39,57.47,40.83,57.89,42.29Z"/><path class="a" d="M40.65,50.6a35.59,35.59,0,0,1,5.59-1.76,40.48,40.48,0,0,1,7.19-1.05,30.1,30.1,0,0,1,5.2,0,6.24,6.24,0,0,0,1.14.07,15.64,15.64,0,0,0-1.19-3.4,11.63,11.63,0,0,0-1.52-2.74c-1.2-1.25-3.58-1.91-5.21-2.12-4-.51-22.46,2.37-17.07,9.41,1,1.24,2.92,2.5,4.52,2.12,1.24-.29-2.86.89-1.61.61"/><path class="k" d="M43.89,8.38c-2.15-.87-6.4-3-8.77-2.2.68.38,1.85.56,2.11,1.34-1.7.09-5.18-.64-6.52.52a7.41,7.41,0,0,1,1.71.67c-3.76,1.51-6.76.82-10.41,3.63a15.4,15.4,0,0,0-3.8,4.13c-.84,1.59-1.39,2.47-2.16,4.09a35.47,35.47,0,0,0-2.23,7.84c-.67,3.24-.92,6.73.33,9.86,0,.08-.3-.52-.22-.53,1.63,5.13,7.26,7.75,12.36,8.47,8.79,1.24,18.56,1.92,27.35-1.93,2.5-1.1,4.77-2,5.84-4.57a22.71,22.71,0,0,0,1.3-9.39c-.21-5.21-1.12-11.42-4.55-15.63a19.33,19.33,0,0,0-6.38-4.77C48.11,9,46.09,7.28,44,7.44,44.19,7.78,43.75,8,43.89,8.38Z"/><path class="a" d="M37.37,20.67c-2.67-2.16-6.17-.71-8.71.86C24.55,24.09,23.71,29,26,33.11c1.27,2.27,5.25,3.27,7.76,2.91,3.68-.51,6.75-3,7.36-6.64a11.15,11.15,0,0,0-1-6.65,5.35,5.35,0,0,0-1.43-1.93c-.78-.58-1.94-.45-2.65-1.08"/><path class="l" d="M36.77,25.75c-6.23-.63-5.09,8.24.19,6.61,3.76-1.17,3.2-7.08-1.17-6.61"/><path class="a" d="M57.5,19.51c-.86-.91-2.29-.83-3.47-.65-2.38.37-3.59,2-3.84,4.36-.41,4,1.39,7,5.42,7.63,1.44.21,4.37-.11,4.86-1.75.43-1.47-.43-3.75-.88-5.13C59,22.1,58.52,20.14,57.5,19.51Z"/><path class="a" d="M48.07,35.57c-.94.06-2.88-.84-2.93-1.9-.07-1.45,3.36-1.26,4.28-1.23C52.83,32.57,49,36.22,48.07,35.57Z"/><path class="a" d="M48.3,37a.16.16,0,0,1-.15-.15v-.08a14.46,14.46,0,0,0-.06-2,.15.15,0,0,1,.13-.16.13.13,0,0,1,.16.12,15.1,15.1,0,0,1,.06,2v.09A.14.14,0,0,1,48.3,37Z"/><path class="f" d="M54.14,41.81c2.45,4.53,4.14,9.52,6.41,14.16C61.49,57.9,62,60.12,63,62a43.08,43.08,0,0,1,3.43,6.82,27.57,27.57,0,0,0,1.72,4.39c.35.64.64,1.66,1.29,1.72s2-1,2.64-1.35c.9-.5,1.74-1,2.6-1.63.34-.23.86-.4.89-.86,0-.27-.45-.77-.59-1a17.18,17.18,0,0,1-1-1.94c-.71-1.46-1.59-2.85-2.25-4.32-1.42-3.16-3.44-6-4.78-9.24A31,31,0,0,0,65.31,51c-1.1-1.89-2.49-3.71-3.42-5.67-.58-1.21-1.2-2.38-1.81-3.58a13.12,13.12,0,0,0-1.29-2.47C58.44,41.24,55.06,40.17,54.14,41.81Z"/><path class="g" d="M59.93,54.7a.28.28,0,0,1-.28-.24.29.29,0,0,1,.24-.33A11.8,11.8,0,0,0,64.67,52l.9-.56a.28.28,0,1,1,.3.48l-.9.57a12.25,12.25,0,0,1-5,2.2Z"/><path class="g" d="M65.05,65.81h0a.28.28,0,0,1-.28-.29.29.29,0,0,1,.29-.29h0c2.09,0,4.67-1.8,6-3.5a.28.28,0,0,1,.44.36C70.05,63.94,67.35,65.81,65.05,65.81Z"/><path class="g" d="M54.55,42a7.52,7.52,0,0,0,3.88-1.85c.47-.47,1-.75.36-.87-1-.21-4.65,1.34-4.95,2.72C53.91,42,54.35,42,54.55,42Z"/><path class="a" d="M62.32,45.69c-.27-.31-.43-.36-.79-.2-.84.38-.84,1.56-.77,2.32a6.19,6.19,0,0,0,3.45,4.94,1.7,1.7,0,0,0,1.65-.28c.47-.45.33-1.18.27-1.73a9.54,9.54,0,0,0-2.68-5.2c-.24-.28-1.56-1.55-2-1.22C61.44,44.32,62,45.82,62.32,45.69Z"/><path class="l" d="M29.74,25.49a1.49,1.49,0,0,0-.06,1.27,1.13,1.13,0,0,0,1,.68,1.68,1.68,0,0,0,1.21-.83,1.34,1.34,0,0,0,.17-.31,1.26,1.26,0,0,0,0-.58,1.51,1.51,0,0,0-.29-.77C31.11,24.12,30.14,24.71,29.74,25.49Z"/><path class="a" d="M38.61,28.68a2.5,2.5,0,0,0-2.73-1.37,2.17,2.17,0,0,0-1.61,1.58,2.49,2.49,0,0,0,1.19,2.57,2.55,2.55,0,0,0,2.2.23A2.52,2.52,0,0,0,39.19,30a2.73,2.73,0,0,0-.91-2.75A2.57,2.57,0,0,0,35.53,27a1.65,1.65,0,0,0-1,1.73"/><path class="l" d="M52.59,24.71A2.58,2.58,0,0,0,52.24,27a3,3,0,0,0,5.15,1.13,2.42,2.42,0,0,0-.46-3.85A3.28,3.28,0,0,0,52.59,24.71Z"/><path class="a" d="M55.38,24.85a5.81,5.81,0,0,0-1.31.56c-.21.12,0-.15-.15.06-.65,1.18-.06,3,1,3.26a2.9,2.9,0,0,0,2.45-.47,2.07,2.07,0,0,0,.37-2.17A2.42,2.42,0,0,0,57,25a2.45,2.45,0,0,0-2.43-.17,2,2,0,0,0-.93,1.25"/><path class="l" d="M56.85,22.69a.39.39,0,0,0-.08.28.72.72,0,0,0,.39.45,1.15,1.15,0,0,1,.27.27c.17.19.35.44.63.47.61.07.7-.8.38-1.14a1.78,1.78,0,0,0-.9-.54A.69.69,0,0,0,56.85,22.69Z"/><path class="j" d="M28.62,37.5a1.1,1.1,0,0,0-.1,1.15,2.92,2.92,0,0,0,4.33.38C34.77,36.84,30,35.2,28.62,37.5Z"/><path class="j" d="M56.77,32.8A1.14,1.14,0,0,0,56.88,34a2.94,2.94,0,0,0,4.33-.41C62.71,31.05,57.69,30.3,56.77,32.8Z"/><path class="a" d="M46.43,38.19a.15.15,0,0,1-.14-.1.14.14,0,0,1,.08-.18,5.42,5.42,0,0,0,1.85-1.2.17.17,0,0,1,.21,0,3.94,3.94,0,0,0,1.47.94.15.15,0,0,1,.08.19.14.14,0,0,1-.18.08A4.36,4.36,0,0,1,48.32,37a5.82,5.82,0,0,1-1.84,1.17Z"/><path class="b" d="M60,40.29a11.31,11.31,0,0,1,4.19-4.1,12,12,0,0,1,8.46-1,3.79,3.79,0,0,1-1.26,1.6,13.89,13.89,0,0,1-4.63,2.66C64.6,40.3,61.75,40.83,60,40.29Z"/><path class="b" d="M58.63,38.89c-.13-2.61,1-5.28,2.17-7.7a16.86,16.86,0,0,1,3.11-4.55c.26-.26,1.22-1.37,1.79-1s.14,2.61,0,3.18a16.48,16.48,0,0,1-1.82,4.48,21.79,21.79,0,0,1-2.71,3.93A4.37,4.37,0,0,1,58.63,38.89Z"/><path class="a" d="M246.43,21.09a2,2,0,0,1,.59,2.36c-.47.89-1.61,1.14-2.61,1.28-1.47.22-3.31-1.26-2.74-2.93S245.27,20.12,246.43,21.09Z"/><path class="k" d="M210.43,31a19.91,19.91,0,0,0,1.81-2,57.06,57.06,0,0,1,6.71-6.2,43.54,43.54,0,0,1,6.93-4.18A12,12,0,0,1,230,17.14a1.42,1.42,0,0,0-.52.62,40.53,40.53,0,0,1,5.83,0c.48.06,4.43.85,3.64,1.77.33.62,1.25.91,1.84,1.22a17.89,17.89,0,0,1,2.82,2.09,18.41,18.41,0,0,1,3.89,4.18c1.94,3,4.17,6.15,5.3,9.54-.09-.06,0,0-.06-.07a27.07,27.07,0,0,1-5.51,12c-3,3.91-7.09,8.11-11.53,10.5-2.83,1.52-6,1.44-9.09,1.41a54.88,54.88,0,0,1-9.13-.93c-.82-.15-2.29-.05-2.9-.71-1-1.06-.14-4.2-.17-5.45A37,37,0,0,0,212,40.26C211,37.78,208.06,32.84,210.43,31Z"/><path class="a" d="M210.4,52.93c-1.09,0-.25.43-1.37.52a12,12,0,0,0-7.63,4.13c-1,1.07-3,2.78-2.88,4.44.17,2.07,3.44,2.24,4.91,2.4,4.65.5,11.21-1,13.94-5.18,1.39-2.13,1.28-5.82,1.1-8.19a18.71,18.71,0,0,0-1.89-7.19c-1-2.1-2.42-4-3.16-6.29a26.7,26.7,0,0,1-1.26-5.72c-.09-.88-.52-2.11-.23-3a13.44,13.44,0,0,0-3,2.61c1.36,1.54,1.77,3.91,2.14,5.87a54.19,54.19,0,0,1,.78,10.79c0,1.4.11,3.38-.46,4.69"/><path class="a" d="M183.16,29.12c-.39.21-1.47-1-1.73-1.39a5.93,5.93,0,0,1-.68-3.88c.57-2.86,4.44-4.27,7-4.52.91-.1,2.36-.27,3.17.25s1.07,2,1.16,3a6.12,6.12,0,0,1-1.45,4.81C188.89,29.36,185.48,29.93,183.16,29.12Z"/><path class="k" d="M179.14,51.74a9,9,0,0,0-.81-1.72,37,37,0,0,1-1.79-4.66,11,11,0,0,1-.24-7.45,21.33,21.33,0,0,1,5.51-8.13c2.81-2.51,6.84-4,10.49-4.72,3.49-.7,7.77-.93,10.94,1.07a24.29,24.29,0,0,1,3.22,2.8,21.34,21.34,0,0,1,4.14,5.26c3.62,6.49,5.05,14.43-1.08,20.7A27,27,0,0,1,201.9,60a60.31,60.31,0,0,1-5.59,2.31c-3.75,1.27-7.85.46-11.35-1.11-2.44-1.1-6.15-3-6.92-5.86a2.9,2.9,0,0,1,.43-2.07C178.72,52.82,179.39,52.39,179.14,51.74Z"/><path class="a" d="M178.59,56.23a1.59,1.59,0,0,1-.63-1.82,3.3,3.3,0,0,1,2.28-1.48A3.67,3.67,0,0,1,178.59,56.23Z"/><path class="a" d="M184,47.88a49.53,49.53,0,0,1-1-4.9,6.54,6.54,0,0,1,0-2.75c.85-2.68,4.72-3.82,7.2-3.94,4.24-.21,8.42,3,7.91,7.57-.43,3.93-3.88,5.94-7.28,7.07a4.39,4.39,0,0,1-4.28-.37A6.21,6.21,0,0,1,184,47.88Z"/><path class="l" d="M186.33,43.75c-.2,2,1.92,5,4.88,3,.77-.53,1.06-3.84-.15-4.13-.08,1.12.15,4.2-1.79,4.09-1.16-.07-2-2.66-2.56-3.55C186.59,43.19,186.32,43.72,186.33,43.75Z"/><path class="j" d="M194,51.12a1.13,1.13,0,0,0,.49,1.05,2.93,2.93,0,0,0,3.95-1.82C199.05,47.49,194.07,48.45,194,51.12Z"/><path class="a" d="M191.28,27.47c-.86-3.16-1.68-7,1.79-8.88a8.54,8.54,0,0,1,7.11-.33c-.29.91,2.28.66,1.69,1.5.71.56,2,.55,2.55,1.39.07.12.17.73.26,1a6,6,0,0,1-.51,5.33,1.56,1.56,0,0,1-.9.73,15.8,15.8,0,0,1-4.44.48A19.29,19.29,0,0,1,191.28,27.47Z"/><path class="j" d="M195.77,27.47c-.53-1.46-1.37-3.5.34-4.54,1.3-.79,4.53-.64,5,1.09a3.8,3.8,0,0,1-1.45,3.69c-.59.33-1.24.07-1.91,0C196.74,27.49,195.88,27.55,195.77,27.47Z"/><path class="a" d="M237.93,45.59c.08-3.55,2.49-8.81,6.32-10a15.9,15.9,0,0,1,5.59-.38,7.55,7.55,0,0,1,1.89.26c2.7,3.13,2.64,8.29,1.78,12.17-1.41,6.33-5.58,11.86-11.86,13.89-.84.28-2.06,1-2.87.44s-.71-1.7-.82-2.42a46.87,46.87,0,0,1-.24-4.74C237.6,51.79,237.87,48.6,237.93,45.59Z"/><path class="a" d="M249.35,56.16a23.47,23.47,0,0,1-6.94,6.12,6.21,6.21,0,0,1-4.82.77c-1.28-.26-3.75-.73-4-2.45-.16-1.16,1.48-1.26,2-2.12a7.52,7.52,0,0,0,.89-2.48c.48-2.41,1.41-11.8,2.15-14.16.57-1.82,1.14,3.22,3,2.56,3.09-1.08,5.57.93,6.81,3.51a10.2,10.2,0,0,1,1,5C249.46,54,249.46,55.72,249.35,56.16Z"/><path class="d" d="M308.36,109.74c.25-3.78,3.34-6.38,4.09-4.44C313.11,107,309.45,108.72,308.36,109.74Z"/><path class="d" d="M312.68,111.1c.61-.73,2.56-2.28,3.61-1.56.56.38.48.74.08,1.21-.91,1.07-1.87.11-3.69.35"/><path class="a" d="M126.67,177.73a3.08,3.08,0,0,0,1.51.41.34.34,0,0,0,.17,0l.1-.09a1.26,1.26,0,0,1,.54-.2,1.61,1.61,0,0,0,.5-.31,1.48,1.48,0,0,0,.52-1,2.09,2.09,0,0,0-.06-.56c-.3-1.38-2.91-4-4.27-2.37C124.49,175,125.43,177,126.67,177.73Z"/><path class="a" d="M91.58,167.69c-.07,0-.06.06-.13,0-.24-.7.61-2.18,1.41-2.2.44,0,1.33.25,1.52.65a2.73,2.73,0,0,1-.76,3,2.1,2.1,0,0,1-1.42,0c-1.22-.34-1-1.19-.69-2.21"/><path class="a" d="M96.61,163.09c-.61-.47.12-2.34.64-2.65.3-.17.52,0,.81,0s.71-.34,1.08,0c.61.57.08,2.37-.42,2.86S96.55,163.7,96.61,163.09Z"/><path class="a" d="M97,168.53c-.27-.08.31-1.84.62-2.11a1.18,1.18,0,0,1,1.72.34c.53.83-.1,2.25-.83,2.78C97.48,170.26,96.83,169.25,97,168.53Z"/><path class="a" d="M94.52,174c.33-.61.31-2.31,1.33-2.31.49,0,.42.41.66.53s.41,0,.64.16C98.61,173.59,94.05,177.83,94.52,174Z"/><path class="a" d="M101.14,164.46c-.37-.56.33-2.06.59-2.56s1.12-1.52,1.25-.38c1.33-.43.91,1.36.58,2.1a2.87,2.87,0,0,1-1,1.25C101.8,165.37,101.42,164.71,101.14,164.46Z"/><path class="a" d="M99.62,174a3.82,3.82,0,0,1,.73-2.43c.22-.3.76-.81,1.16-.56.21.13.32.74.43,1a2,2,0,0,1-.41,2.44c-.35.35-.54.47-1,.36C99.84,174.61,99.81,174.2,99.62,174Z"/><path class="a" d="M102.93,169.46c-.78.23.13-2.37.27-2.6s.53-.92,1-.74c.24.11.21.47.42.58.38.19.7-.18,1,.36a2.93,2.93,0,0,1-.33,2,1.87,1.87,0,0,1-1.28,1.06c-1.11.18-1.25-1-1.22-1.77"/><path class="a" d="M107.56,164.07c-.06,0-.09,0-.16,0-.11-.69.47-3.07,1.39-3a2.05,2.05,0,0,1,1.3.88,2.47,2.47,0,0,1-.71,2.32C108.69,164.92,107.24,164.72,107.56,164.07Z"/><path class="a" d="M108.07,168.61c-.37-.45.41-2,.69-2.32.56-.73,1.2-.25,1.54.45a1.68,1.68,0,0,1-.35,1.93C109.43,169.21,107.67,170.07,108.07,168.61Z"/><path class="a" d="M105.76,174.1a4.09,4.09,0,0,1,.91-2.45c.74-.82,1.35.1,1.69.78C109.21,174.11,106,176,105.76,174.1Z"/><path class="a" d="M110.91,172.82c-.44,0,.28-2,.45-2.2.44-.55.64-.39,1.14-.21.8.29,1.31.4,1,1.42a1.69,1.69,0,0,1-.82,1.06c-.82.39-1.31-.21-1.77-.8"/><path class="a" d="M113.69,165.71c-.65-.52,0-1.78.31-2.28.76-1.15,1-.61,1.79-.05a1.31,1.31,0,0,1,.2,2.06,1.22,1.22,0,0,1-1,.57c-.92,0-1.23-.76-1.21-1.55"/><path class="a" d="M116.3,171.33c-.44.06-.62-.89-.58-1.21.12-1.11,1-1.93,2-1.59s1.16.66.93,1.66a1.74,1.74,0,0,1-.74,1.31C117.45,171.71,116.44,171.71,116.3,171.33Z"/><path class="k" d="M110.86,155.86a32.76,32.76,0,0,0,1.65,4.45,42,42,0,0,0,4.64,9.43,14.42,14.42,0,0,0,10.78,6.7c4.1.64,9.14-.29,12.37-3.07s5.11-8,6.09-11.83a20.19,20.19,0,0,0-2.14-15.76c-1.38-2.4-3.35-6-6.24-6.83-3.87-1-8.37,4.37-10.83,6.55a47.38,47.38,0,0,1-10.09,7.19c-2,1-4,1.86-6,2.83C110.93,155.56,111,155.56,110.86,155.86Z"/><path class="b" d="M119.12,98.6c-1.82-2.39-1.35-5.48-.57-8.19.49-1.69.89-2.57,1.41-4.5a11.09,11.09,0,0,1,.67-1.61c1.34,2.29,1,5.61.87,8.15S120.55,97.59,119.12,98.6Z"/><path class="b" d="M120.65,100.34a.23.23,0,0,1-.28-.25c.25-1.43,1.74-3.2,2.67-4.25a19.46,19.46,0,0,1,4.67-3.56.22.22,0,0,1,.31.3C126.41,95.45,124.38,99.45,120.65,100.34Z"/><path class="f" d="M119.75,114.87c.08.06,0,.18.16.22-.23-.89-.68-1.77-.93-2.67a23.73,23.73,0,0,1-.65-5.94,36.48,36.48,0,0,1,.61-9.1,3.22,3.22,0,0,1,1,0c.26,3.61.23,6.93,1.08,10.49a24,24,0,0,0,2.16,6.16,20.73,20.73,0,0,1,1.92,3.86C123.29,116.81,121.82,115.28,119.75,114.87Z"/><path class="f" d="M136.2,139.15c4.27,4.89,6.08,11.47,8.42,17.16,1.28-.59,6.14,2.84,6.81,1.55.35-.66-.05-1.73-.17-2.47s-.56-2.65-.75-3.41c-.37-1.48-3.08-5.41-3.83-6.69-1.74-3-3.26-5.68-5.81-8.07-.4-.37-1.84-2.4-2.46-2.31C137.36,135.07,136.79,138,136.2,139.15Z"/><path class="f" d="M147,164.23c.41,1,1.05,2,1.53,3a17.54,17.54,0,0,1,1.2,4.79c.64,3.67,1.67,7.29,2,11,.16,1.7.53,1.39,2.39.78a12.57,12.57,0,0,0,6.49-5.32c1.26-1.87-.72-4.59-1.41-6.54a46,46,0,0,0-3.72-8.4,25,25,0,0,0-4.1-5.65,8.93,8.93,0,0,1-1.22,3A17,17,0,0,1,147,164.23Z"/><path class="f" d="M133.22,135.35c-1.45-2.16-2.72-4.42-4.35-6.52-3.19-4.11-6.76-8-10-12-3.47-4.34-7.51-7.85-11.41-11.77-2.68-2.69-5.54-5.21-8.25-7.87-.65-.64-1.29-1.16-.41-1.9a32.69,32.69,0,0,1,8,5.83c4.85,4.53,10,8.71,14.88,13.26s10,9.16,14,14.47c.66.86,1.6,1.85,1.15,2.81C136.45,132.27,133.3,134.35,133.22,135.35Z"/><path class="b" d="M106,100.14c-1-1.18-1.64-3.92-1.65-5.65,0-3.33,1.2-8.18,2.1-9.16a12,12,0,0,1,.42,2.74c.13,2.19.1,4,.21,6.16C107.17,96.08,107.18,99.06,106,100.14Z"/><path class="b" d="M100,96.34l.26,0a20.41,20.41,0,0,1-4.89-2.14,23.06,23.06,0,0,1-4.48-3C88,88.67,86.14,85,84.27,81.62c-.42-.74-1.73-2.78.13-2.38C86,79.59,87.53,81,88.84,82c3.29,2.46,6.82,5.29,8.7,9C98.43,92.8,98.7,94.55,100,96.34Z"/><path class="b" d="M103.73,101.07c-1.58,1.16-5.13.44-6.8.13a31.92,31.92,0,0,1-7.82-2.44c-.87-.4-2.28-1-2.16-1.74A76.25,76.25,0,0,1,97,98.37,17,17,0,0,1,103.73,101.07Z"/><path class="g" d="M106.5,103.82a.23.23,0,0,1-.18-.09l-.07-.08-.08-.1a.28.28,0,0,1-.07-.36,2.52,2.52,0,0,0,.28-.7,1.37,1.37,0,0,1,.91-1,.28.28,0,1,1,.25.51c-.48.24-.52.37-.61.69a3.39,3.39,0,0,1-.23.64h0a.32.32,0,0,1,0,.43A.28.28,0,0,1,106.5,103.82Z"/><path class="a" d="M113.65,110.34c-.2-.94,2.11-2.16,2.84-2.65"/><path class="g" d="M140.88,147.64a.29.29,0,0,1,0-.57,10.05,10.05,0,0,0,5.78-3.14.3.3,0,0,1,.41,0,.28.28,0,0,1,0,.4,10.65,10.65,0,0,1-6.12,3.34Z"/><path class="g" d="M149.43,169.43a.3.3,0,0,1-.26-.16.31.31,0,0,1,.14-.39l1.13-.52c2.34-1.06,3.88-1.76,5.65-4a.29.29,0,1,1,.45.35c-1.86,2.34-3.54,3.1-5.86,4.16l-1.12.51A.31.31,0,0,1,149.43,169.43Z"/><path class="g" d="M152.16,180.32a.29.29,0,0,1-.08-.56c3.13-.88,6.37-1.79,8.78-4.31a.29.29,0,0,1,.41,0,.3.3,0,0,1,0,.41c-2.53,2.63-5.84,3.56-9.05,4.46Z"/><path class="g" d="M124.12,118.37a.28.28,0,0,1-.29-.28.28.28,0,0,1,.28-.29c.42,0,.68-.3,1-.67l.11-.12a.28.28,0,0,1,.4,0,.29.29,0,0,1,0,.41l-.1.11a1.93,1.93,0,0,1-1.43.86Z"/><path class="a" d="M135.68,175.72s-.12-1.33-.12-1.45c0-.74,0-1-.06-1.77a21.49,21.49,0,0,1,.77-5.9c1-3.85,3.57-7.07,6.28-9.9a22,22,0,0,1,4.57-3.45,8.59,8.59,0,0,0,2.14-1.31,2.74,2.74,0,0,0,.18-2.93c-.62-1.61,3.8.56,4.24,1.12,2.24,2.88,2,7,.58,10.2-1.83,4.1-5.79,7.67-9.35,10.23C142.17,172.54,139.5,175.16,135.68,175.72Z"/><path class="a" d="M141.33,138.49c-.05-.11.1-.15,0-.2-.43,1.7,1.36,4.27,3,4.8,2.4.8,2.86-1.92,1.83-3.59a7.22,7.22,0,0,0-4-2.9C140.54,136.28,140.71,137.19,141.33,138.49Z"/><path class="a" d="M89.4,131.94c-1.15-1.86-6.41.4-7.56,1.57-2.3,2.34-2.45,7.17-.43,9.78.09-.13.39-.32.48-.46.45.8.65,2.13,1.31,2.82a11.31,11.31,0,0,0,2.18,1.24,4.75,4.75,0,0,0,5.19-.4c2-1.4,1.51-3.72,1.28-5.92C91.55,137.73,91.77,133.49,89.4,131.94Z"/><path class="m" d="M85.86,137.24a3.6,3.6,0,0,0,.5,3.31.35.35,0,0,0,.2.16c.14,0,.26-.13.41-.17s.4.13.55.28a2.73,2.73,0,0,0,2.74.59,1.5,1.5,0,0,0,.53-.28,2.35,2.35,0,0,0,.65-1.7,5.36,5.36,0,0,0-.54-3.11C89.56,134,86.65,135,85.86,137.24Z"/><path class="a" d="M128.24,136.94c1.2-.09,2.49-1.33,3.41-2a13.79,13.79,0,0,0,3.11-2.84c1.05-1.38.61-1.94.67-3.38,2.08-.31,4.93.41,5.79,2.55.7,1.73.14,4.1-.38,5.8-2,6.6-6.58,11.15-12.37,14.72A36.56,36.56,0,0,1,118,156c-1.9.46-4.92.74-6.66,1.7a9.54,9.54,0,0,1-.66-3.12,29.6,29.6,0,0,1,3.39-2.44c2.33-1.88,4.41-4,6.61-6a31.85,31.85,0,0,0,5.36-6.39A25.18,25.18,0,0,1,128.24,136.94Z"/><path class="a" d="M104.16,113.19c-.54-.11-1.58-3.39-1.54-4.19.08-1.46,2-2.76,3.25-3.31a10.34,10.34,0,0,1,8.47-.26c2.67,1.2,4.23,4.17,2.61,6.9-1.12,1.89-3.41,2.46-5.44,2.52a22.47,22.47,0,0,1-4.26.06C106.07,114.72,105.63,114.92,104.16,113.19Z"/><path class="k" d="M131.48,130a19.28,19.28,0,0,1-1.43,5.86,63.73,63.73,0,0,1-8.14,11.78,24.57,24.57,0,0,1-9.36,7.12c-2.25.94-4.63,1.91-7.1,1.65a11.19,11.19,0,0,1-3.54-1,9.65,9.65,0,0,1-2.27-1.48,44.83,44.83,0,0,1-5.47-5.12,26.83,26.83,0,0,1-5-9.37,20.78,20.78,0,0,1-.46-8.45c.5-3,1.07-6.91,2.69-9.55a6.27,6.27,0,0,1,.67,1.21c.43-2.56,2.55-5.3,4.48-6.95.08.55-.15,1.07-.06,1.62,1.42-1.51,3-3.88,5.06-4.64a1.61,1.61,0,0,1-.23.86c.61-.48,2.49-.71,3.45-.86a22.93,22.93,0,0,1,5.3-.3,24.68,24.68,0,0,1,8.91,2.11c4,1.9,6.37,5.48,9.13,8.75C129.29,124.67,131.65,126.38,131.48,130Z"/><path class="a" d="M111.53,128.06a6.37,6.37,0,0,0-4.35-.67c-3.09.74-5.2,4.49-6,7.27-1.56,5.18,1.46,9.83,7,10.3a7.17,7.17,0,0,0,6.6-3.37c1.12-1.87,2.1-5.13,1.65-7.32C115.71,131.19,113.06,129.5,111.53,128.06Z"/><path class="a" d="M118.81,117.41c-1.86.12-3,2.58-2.83,4.23a5.82,5.82,0,0,0,3.28,4.66c1.48.61,4,.88,5.42,0a6,6,0,0,0,2.53-3.26c.37-2.19-1.69-3.68-3.25-4.7S120.87,116.31,118.81,117.41Z"/><path class="a" d="M122.69,129.8c-.61.71-2.24,2.28-2.33,3.24-.13,1.4,1.88.8,2.67.48a2.16,2.16,0,0,0,1.34-2.44A1.25,1.25,0,0,0,122.69,129.8Z"/><path class="a" d="M125.27,134.38a.14.14,0,0,1-.12-.06,5.07,5.07,0,0,0-.69-.79,4.6,4.6,0,0,1-.66-.74.14.14,0,0,1,0-.2.15.15,0,0,1,.2,0,5.78,5.78,0,0,0,.63.69,6.37,6.37,0,0,1,.73.84.15.15,0,0,1,0,.2Z"/><path class="l" d="M107,133.17a4.07,4.07,0,0,0,3.4,6.15,3.66,3.66,0,0,0,3.41-1.25,3.45,3.45,0,0,0,.6-1.52,4.34,4.34,0,0,0-.86-3.69C112,131.11,108.19,131.07,107,133.17Z"/><path class="a" d="M112.32,132.24a1.82,1.82,0,0,0-1.51-.36c-2.12.48-2.15,3.43-.94,4.51a4.32,4.32,0,0,0,2.45.68c2.55-.11,2.75-4.07.64-5a3,3,0,0,0-2.06-.09"/><path class="l" d="M120.53,119.91c-1.16.56-1.34,2.52-.81,3.63s1.68,1.41,3,1.32a3.53,3.53,0,0,0,1.11-.26,3.1,3.1,0,0,0,.94-.65,3,3,0,0,0,.23-3.1,2.48,2.48,0,0,0-2.23-1.47,3.49,3.49,0,0,0-2.91,1.1"/><path class="a" d="M121.66,122.14a1.93,1.93,0,0,0,1.43,1.43,2.16,2.16,0,0,0,2.07-.73,1.89,1.89,0,0,0-.25-2,2,2,0,0,0-1.88-.73A1.56,1.56,0,0,0,121.66,122.14Z"/><path class="m" d="M114.43,143.86a1.11,1.11,0,0,0,.72.91,2.93,2.93,0,0,0,3.42-2.68C118.47,139.18,113.85,141.26,114.43,143.86Z"/><path class="m" d="M126.59,127a1,1,0,0,0,.58.81,2.19,2.19,0,0,0,2.58-2.25C129.6,123,126.08,124.66,126.59,127Z"/><path class="m" d="M108.15,110.4a2.25,2.25,0,0,1,1.19-1.2,3.19,3.19,0,0,1,1.41-.16,3.83,3.83,0,0,1,1.33.29,1.77,1.77,0,0,1,1,.92,2.83,2.83,0,0,1,0,1.63.82.82,0,0,1-.22.51.86.86,0,0,1-.59.12l-3.47-.19c-.5,0-.77.05-.86-.43A2.75,2.75,0,0,1,108.15,110.4Z"/><path class="a" d="M114,105.11a8.78,8.78,0,0,0-2.44-.52c-.86-.08-1.72-.13-2.58-.14a2.66,2.66,0,0,0-1.67.38l.15.35a4.15,4.15,0,0,0-3.66,2.4,24.16,24.16,0,0,1,5.07-1.28,30.42,30.42,0,0,1,3.82,0,8.74,8.74,0,0,1,3.52.48c-.45,0-.62-.49-.89-.77A3.87,3.87,0,0,0,114,105.11Z"/><path class="a" d="M31.61,57.07c3.79,1,7.83,1.17,11.29-.82,1-.58,4.45-2.66,2.59-4-1-.7-2.44-.83-3.53-1.28A34.51,34.51,0,0,1,38,48.88a10.13,10.13,0,0,0-2-1.09c-1.1-.33-2.49.24-3.56.46-2.82.57-9,1.6-8.3,4.8.31,1.49,2,2.17,3.24,2.66A38.21,38.21,0,0,0,31.61,57.07Z"/><path class="a" d="M33.41,56.12c-.7-.11.39,1-4.49,0a55.68,55.68,0,0,0-6.59-.45,39.6,39.6,0,0,0-5.55.18c-.88.06-2,.54-2.8.59a20.48,20.48,0,0,1,2.72-5.73c1.35-2.18,2.69-4.94,4.87-6.45a30.32,30.32,0,0,0,6.78,2c1.71.37,3.47.7,5.2.92a11,11,0,0,1,2.94.63,10.07,10.07,0,0,1,3,2.42c1.43,1.51,1.38,3.08.19,4.77s-2.31-.28-4.44-.17C33.9,54.85,34.26,57.32,33.41,56.12Z"/><path class="a" d="M30.09,80.24c-.05-.06-1.43.89-1.84.94-1.66.19-4-.69-5.5-1.29A20.84,20.84,0,0,1,16.32,76c-1-1-2.85-2.91-3.06-4.42a54.65,54.65,0,0,1,6.53-2.93,36.4,36.4,0,0,1,5.77-1.26c.74-.1,2.48-.65,3.2-.3.36.18.35.61.45,1a25.47,25.47,0,0,1,1,5.68,32.91,32.91,0,0,1,.33,4.31C30.46,78.7,30.16,79.59,30.09,80.24Z"/><path class="a" d="M18.12,76.29c1.3-.51,2.36,1.62,3.17,2.37a11.74,11.74,0,0,0,6.66,3,19.48,19.48,0,0,0,4-.07c2.21-.3,3.49-1.59,4.7-3.37,1-1.42,2.49-4.5.83-6.06-1-.92-1.42.18-2.28,0-.54-.11-1.42-1.32-1.82-1.7a23.62,23.62,0,0,0-4.66-3.37c-1.56-.59-1.37,1-2.89,1.62C22.64,70,19.18,72,18.12,76.29Z"/><path class="k" d="M308.5,151.62a7.47,7.47,0,0,1,1.57,2.56c.66,1.28,1.33,2.58,1.87,3.92A21.26,21.26,0,0,1,313,171.2c-.67,2.52-2.28,5.47-4.6,6.87a13,13,0,0,1-6,1.55c-3.76.25-7.45.14-11.22.25a27.77,27.77,0,0,1-6.81-.53,40.62,40.62,0,0,1-8.4-2.5c-3.79-1.8-4.56-7-4.09-10.75.78-6.32,4-11.76,7.49-16.92a23.9,23.9,0,0,1,15.39-9.94c4.11-.67,8.22-.33,11.29,2.7,1.39,1.38,1.48,2.7,1.59,4.56C307.78,148.12,307.78,150.81,308.5,151.62Z"/><path class="a" d="M309.94,151.7a64.33,64.33,0,0,1,4.16,5.42c1.75,2.46,4.12,5.39,3.85,8.57-.17,2-1.45,1.41-3.37,1-3.31-.74-4-5.8-4.78-8.68C309.73,157.77,308,150.49,309.94,151.7Z"/><path class="a" d="M303.71,178.49A6.16,6.16,0,0,0,306,179.9a14.38,14.38,0,0,0,6.68,1.32c3.59-.18,5.87-3.45,7-6.2.47-1.13,1.75-4.64.16-5.59s-2.82.37-4.12,0c-1.65-.42-2.9-1.75-4.6-2.56-3.32.8-5.31,2.32-6.46,5.36C304,174,303,176.94,303.71,178.49Z"/><path class="a" d="M282.6,178.49a6.16,6.16,0,0,1-2.25,1.41,14.38,14.38,0,0,1-6.68,1.32c-3.59-.18-5.87-3.45-7-6.2-.48-1.13-1.76-4.64-.17-5.59s2.65.95,3.94.62a8.07,8.07,0,0,0,3.28-2.1,2.74,2.74,0,0,1,2.89-.59,8.26,8.26,0,0,1,5.08,4.91C282.34,174,283.33,176.94,282.6,178.49Z"/><path class="a" d="M276.84,151.51a42.14,42.14,0,0,0-8.16,8c-1.24,1.6-2.63,3.51-2.81,5.59-.08,1-.07,2.3,1.09,2.61.94.25,2.33-.65,3.15-1a7.84,7.84,0,0,0,3.49-3,35.21,35.21,0,0,0,3.78-8.39C277.87,153.77,279.11,152,276.84,151.51Z"/><path class="a" d="M308.89,118.84c.46-1.23,2.23-2.2,3.38-2.88a5.16,5.16,0,0,1,3.71-.49c1.66.39,4,1.93,4.27,3.57-.19,0-.38.25-.59.29a5.71,5.71,0,0,1,1.42,3.45,7.8,7.8,0,0,1-.62,3.58c-1,1.6-5.65,1.75-7.31.86C310.25,125.67,308.38,121.56,308.89,118.84Z"/><path class="m" d="M314,119.55a2.26,2.26,0,0,1,1.69.84,3.5,3.5,0,0,1,.72,1.78,2.34,2.34,0,0,1-.34,1.68,2.24,2.24,0,0,1-1.14.71,2.14,2.14,0,0,1-1.37,0,2.21,2.21,0,0,1-.86-.62c-.58-.61-1.53-2-1.24-2.9A3.19,3.19,0,0,1,314,119.55Z"/><path class="a" d="M277.73,119.05c.54-1-1.05-2.08-1.69-2.63-1.27-1.08-2.66-2.2-4.4-1.79-3.13.73-4.3,3.12-5.34,5.59-.18.43-.53.71-.56,1.2,0,.28.36.22.37.37,0,.93-.33,1.65.11,2.59.77,1.64,2.82,3.3,4.73,3.1,1.09-.12,2.62-.25,3.35-1.08,1.06-1.22.82-3.44,1.86-4.67S277.75,119.8,277.73,119.05Z"/><path class="m" d="M276.72,121.08a3.27,3.27,0,0,0-3.47-1.8,2,2,0,0,0-.88.37,2.82,2.82,0,0,0-.59.81,6.55,6.55,0,0,0-.68,1.53,2.29,2.29,0,0,0,.15,1.63,3,3,0,0,0,2.65,1.16,4.94,4.94,0,0,0,2.63-.55,2.44,2.44,0,0,0,1.3-2.22A1.64,1.64,0,0,0,276,120.5"/><path class="a" d="M277,153.42c.59,1.23,3,1.76,4.15,2.14a35.39,35.39,0,0,0,8.21,1.47c6.56.53,13.49,0,19.6-2.55,1.16-.47,1.5-.52,1.39-1.65-.29-3.07-2.71-5.12-5.46-6.2-4.91-1.93-11-2.29-16.22-1.75-2.78.29-6.38.86-8.61,2.74A12,12,0,0,0,277,153.42Z"/><path class="k" d="M287.18,153.31a40.21,40.21,0,0,1-6.45-.9,16.88,16.88,0,0,1-7.38-2.62,10.6,10.6,0,0,1-3.86-4.6,13.56,13.56,0,0,1-.63-4.06c-.23-4.76,1.51-9.9,3.48-14.18a43.64,43.64,0,0,1,3.08-6,16.19,16.19,0,0,1,4.85-4.58,14.05,14.05,0,0,1,6.47-2.24c1.23-.08,2.49-.07,3.72-.07a4.38,4.38,0,0,0,1.09,0c-.55-.5-1.67-.84-2-1.47.85-.49,2.65,0,3.5.32a12.76,12.76,0,0,0,2.84,1,5.71,5.71,0,0,0-2.15-1.83c2-.15,3.66,1,5.48,1.28-.05-.48-.46-.84-.66-1.22a9.78,9.78,0,0,1,3.08,1,28.06,28.06,0,0,1,4,2c1.24.8,3,1.62,3.9,2.76s2.4,2.35,3.35,3.63c2.32,3.1,3,7.65,3.36,11.39.38,4.13,1,8.84-.26,12.87-1.4,4.45-6,5.63-10.08,6.76C299.76,154.3,293.45,153.24,287.18,153.31Z"/><path class="a" d="M304.53,128.33a7,7,0,0,0-5.51,2.58,3.27,3.27,0,0,0-.44,2.6c.21,1.26.35,2.51.54,3.77.34,2.33,1.06,4.76,3.33,5.84a11.47,11.47,0,0,0,6.44.88,9,9,0,0,0,3.68-1.38,5.26,5.26,0,0,0,1.88-2.93,10.81,10.81,0,0,0-.05-7.08,6.2,6.2,0,0,0-3.93-4.13C308.46,127.79,306.43,128.18,304.53,128.33Z"/><path class="l" d="M303,138.42c0-2,1.65-4.51,3.93-3.65,1.7.64,2.1,2.17,1.7,3.79-.13-1.4-.94-3.44-2.66-3.28a2.92,2.92,0,0,0-2.27,2C303.55,137.58,303.61,138.44,303,138.42Z"/><path class="l" d="M308.61,138.81h0a.26.26,0,0,1-.23-.23,4.8,4.8,0,0,0-.7-2.11,1.77,1.77,0,0,0-1.7-.94,2.7,2.7,0,0,0-2.06,1.81,1.84,1.84,0,0,0-.06.29c-.07.37-.21,1.07-.87,1a.24.24,0,0,1-.24-.24,4.58,4.58,0,0,1,1.78-3.59,2.57,2.57,0,0,1,2.47-.29c1.67.63,2.35,2.12,1.86,4.08A.24.24,0,0,1,308.61,138.81Zm-2.61-4a2.09,2.09,0,0,0-1.2.39,4,4,0,0,0-1.53,2.71,3.13,3.13,0,0,0,.09-.4c0-.15.06-.28.09-.38a3.17,3.17,0,0,1,2.47-2.12,2.26,2.26,0,0,1,2.16,1.16,5.06,5.06,0,0,1,.4.77,2.41,2.41,0,0,0-1.66-2A2.48,2.48,0,0,0,306,134.84Z"/><path class="a" d="M293.22,145.27c-1.06-.23-3.88-1.68-2-2.76a4.75,4.75,0,0,1,2.61-.37,4.63,4.63,0,0,1,2.57.5c.95.69.28,1.33-.44,1.83S294,145.86,293.22,145.27Z"/><path class="a" d="M293.73,146.65a.13.13,0,0,1-.13-.13c0-.19,0-.39,0-.59,0-.58,0-1.18,0-1.73a.12.12,0,0,1,.13-.12h0a.13.13,0,0,1,.13.13c0,.55,0,1.14,0,1.71,0,.21,0,.41,0,.6a.13.13,0,0,1-.13.13Z"/><path class="a" d="M295.16,147.33a2.21,2.21,0,0,1-1.36-.46l-.08-.05-.05,0a2,2,0,0,1-2.07.26.14.14,0,0,1-.07-.18.12.12,0,0,1,.18-.06,1.7,1.7,0,0,0,1.78-.23.46.46,0,0,1,.17-.09.37.37,0,0,1,.31.11,2.05,2.05,0,0,0,1.78.32.14.14,0,0,1,.16.11.13.13,0,0,1-.11.16A2.87,2.87,0,0,1,295.16,147.33Z"/><path class="m" d="M306.66,146.18a1.11,1.11,0,0,0-.17,1.15,2.93,2.93,0,0,0,4.29.66C312.84,145.93,308.16,144,306.66,146.18Z"/><path class="a" d="M287.21,129.92a4.59,4.59,0,0,0-2.42-.91,30.43,30.43,0,0,0-3.66-.63,10.31,10.31,0,0,0-5.5,1.32c-1.7,1.09-2.08,2.68-2.67,4.5a8.36,8.36,0,0,0-.06,5.79c.78,1.92,2.6,2.88,4.42,3.64a10.86,10.86,0,0,0,5.53.92,5.79,5.79,0,0,0,3.18-1.16,10.1,10.1,0,0,0,2.41-3.81,11.32,11.32,0,0,0,.42-6.64,5.25,5.25,0,0,0-.7-1.78C287.79,130.6,287.19,130.28,287.21,129.92Z"/><path class="l" d="M277.76,138.14a4,4,0,0,1,.77-2.51,2.77,2.77,0,0,1,3.37-1.08,3.23,3.23,0,0,1,1.47,3.6,4.1,4.1,0,0,0-.73-1.76,2.48,2.48,0,0,0-2.13-1.17C278.53,135.39,278.12,136.74,277.76,138.14Z"/><path class="l" d="M283.37,138.39h0a.24.24,0,0,1-.22-.2,3.8,3.8,0,0,0-.69-1.66,2.32,2.32,0,0,0-1.91-1.07c-1.73.15-2.14,1.23-2.53,2.74a.24.24,0,0,1-.28.18.25.25,0,0,1-.21-.27l0-.21a4.09,4.09,0,0,1,.8-2.42,3,3,0,0,1,3.67-1.16,3.48,3.48,0,0,1,1.6,3.92A.24.24,0,0,1,283.37,138.39ZM280.66,135a2.76,2.76,0,0,1,2.18,1.29,3.41,3.41,0,0,1,.36.57,2.89,2.89,0,0,0-1.39-2,2.46,2.46,0,0,0-2.79.64,3.27,3.27,0,0,1,1.46-.45Z"/><path class="m" d="M276.29,146.18a1.09,1.09,0,0,0-.17,1.14,2.93,2.93,0,0,0,4.29.68C282.48,145.94,277.81,144,276.29,146.18Z"/><path class="a" d="M454.32,130.82c.07,0,.06.07.14,0,.34-.66-.26-2.26-1-2.4a2,2,0,0,0-1.61.39,2.76,2.76,0,0,0,.27,3,2.25,2.25,0,0,0,1.39.28c1.26-.14,1.15-1,1-2.07"/><path class="a" d="M450.11,125.46c.68-.36.26-2.33-.2-2.72-.27-.22-.52-.06-.8-.14s-.64-.45-1.06-.17c-.69.46-.47,2.32-.06,2.89S450.08,126.07,450.11,125.46Z"/><path class="a" d="M448.87,130.77c.28,0,0-1.87-.27-2.18a1.18,1.18,0,0,0-1.75,0c-.65.74-.27,2.24.37,2.88C448.09,132.39,448.89,131.5,448.87,130.77Z"/><path class="a" d="M450.4,136.56c-.23-.66.07-2.32-.93-2.5-.49-.08-.48.34-.74.43s-.4-.1-.66,0C446.44,135.5,450.24,140.41,450.4,136.56Z"/><path class="a" d="M445.42,126.08c.45-.5,0-2.09-.17-2.63s-.85-1.68-1.16-.58c-1.25-.64-1.13,1.2-.92,2a2.73,2.73,0,0,0,.74,1.39C444.62,126.86,445.1,126.28,445.42,126.08Z"/><path class="a" d="M445.37,135.7a3.72,3.72,0,0,0-.32-2.52c-.17-.33-.62-.93-1.06-.74-.23.1-.43.67-.57.9a2,2,0,0,0,0,2.48c.29.4.46.55.93.52C445.05,136.3,445.15,135.9,445.37,135.7Z"/><path class="a" d="M442.84,130.72c.73.35.26-2.36.16-2.61s-.38-1-.82-.88c-.25.06-.28.42-.51.5-.4.13-.66-.29-1,.2a2.81,2.81,0,0,0,0,2,1.86,1.86,0,0,0,1.09,1.26c1.06.35,1.38-.74,1.49-1.55"/><path class="a" d="M439.15,124.64c.06,0,.08,0,.15,0,.23-.67.05-3.11-.87-3.2a2.12,2.12,0,0,0-1.44.66,2.5,2.5,0,0,0,.33,2.41C437.9,125.3,439.36,125.34,439.15,124.64Z"/><path class="a" d="M436.73,130.05c.43-.39-.1-2-.31-2.41-.44-.81-1.14-.44-1.59.2a1.67,1.67,0,0,0,0,1.95C435.28,130.42,436.88,131.55,436.73,130.05Z"/><path class="a" d="M439.3,134.84a4.19,4.19,0,0,0-.5-2.57c-.61-.93-1.36-.12-1.8.49C435.89,134.28,438.74,136.68,439.3,134.84Z"/><path class="a" d="M432.52,135.71c.45.06.05-2-.08-2.24-.34-.61-.56-.48-1.09-.39-.83.16-1.35.18-1.2,1.24a1.69,1.69,0,0,0,.63,1.18c.76.52,1.33,0,1.89-.5"/><path class="a" d="M432.84,125.27c.72-.41.31-1.75.06-2.3-.57-1.26-.89-.77-1.76-.34a1.31,1.31,0,0,0-.53,2,1.22,1.22,0,0,0,.92.73c.92.11,1.34-.55,1.45-1.34"/><path class="a" d="M429.34,130.39c.43.13.76-.78.78-1.1.05-1.12-.65-2.06-1.69-1.89s-1.25.46-1.19,1.48a1.72,1.72,0,0,0,.52,1.42C428.15,130.58,429.14,130.74,429.34,130.39Z"/><path class="a" d="M401.91,167.91c-.41.66-.65,1.62-1.16,2.33a22.15,22.15,0,0,1-3.36,3.55c-1.3,1.16.45,1.55,1.64,1.59a8.26,8.26,0,0,0,7.43-4.28c.94-1.56,1.16-3.77-.16-5.19C404.67,164.14,401.78,166.7,401.91,167.91Z"/><path class="k" d="M396.9,129.77c-5.57.95-10.78,5.33-13.37,10.29-1.64,3.13-3.46,6-2.86,9.6a23.39,23.39,0,0,0,3.34,8.69c.89,1.32,1.75,1.64.86,3.13-1.05,1.76-.52,2.25.54,3.88.78.37,1,1.13,1.71,1.66a14.4,14.4,0,0,0,4.36,2.23,19.88,19.88,0,0,0,11.63-.12c5.41-1.46,10.32-3.67,14.18-7.83,2.81-3,3.87-6.61,4.27-10.65.66-6.64-1.07-12.69-6.68-16.71-2.65-1.89-5.39-4-8.54-5a15.23,15.23,0,0,0-5.27-.75C399.24,128.33,398.58,129.48,396.9,129.77Z"/><path class="a" d="M439.15,169.33c.7,2.2,1.49,4.64.51,6.92-.45,1-2.76,2.68-.37,3.21a7.2,7.2,0,0,0,3.68-.36c2-.87,2.67-3.64,2.62-5.59s-.79-4.23-2.39-5.33C441.82,167.24,439.72,167.14,439.15,169.33Z"/><path class="k" d="M419.62,140.55c4.92-2.79,10-6.39,15.89-6.74,4.14-.24,7.28-.22,10.62,2.51a28.36,28.36,0,0,1,6.92,7.61,21.33,21.33,0,0,1,2.15,6.87c.69,3.73-.33,7.07-1.19,10.68a25.57,25.57,0,0,1-1.19,4.65c-1.55,3.3-6.38,3.25-9.45,3.19a35.34,35.34,0,0,0-4.48.19,51.2,51.2,0,0,1-8.12-.1,44.2,44.2,0,0,1-10-1.41,21.83,21.83,0,0,1-4.61-1.58c-1.82-1-2.37-2.75-2.81-4.69-1.21-5.32.2-10.81,2.29-15.74A13,13,0,0,1,419.62,140.55Z"/><path class="a" d="M452.59,143.75c.83.49,2.25.22,3.18.77.52.31,1.72,1.5,1.61,2.21s-2.05,1.7-2.7,1.56C453.3,148,452.68,145.29,452.59,143.75Z"/><path class="a" d="M385.33,136.93a5.82,5.82,0,0,1-2.46-5c.35-2.9,3.85-5,6.46-5.46,3.48-.63,4.12,4.51,3.73,7C392.61,136.25,387.8,139.47,385.33,136.93Z"/><path class="m" d="M401.22,160.49a1.11,1.11,0,0,0,.48,1,2.92,2.92,0,0,0,4-1.79C406.25,156.89,401.27,157.83,401.22,160.49Z"/><path class="a" d="M392.85,134.14c-2.27-1.78-4.62-4.31-4-7.41a5.4,5.4,0,0,1,1.23-2.61c.39-.43,1.7-1.71,2-.72a11.59,11.59,0,0,1,11.59-2.25c2,.91,3,3.18,3.09,5.25.07,1.18.07,3.41-.53,4.46-.46.8-1.53.64-2.49.68a24,24,0,0,0-6.23,1A34.73,34.73,0,0,0,392.85,134.14Z"/><path class="m" d="M396,127.09c.06-.08.15-.18.25-.14s.09.06.13.11l.35.5a3.58,3.58,0,0,1,2.09-1.36,2.52,2.52,0,0,1,2.23,1,4,4,0,0,1,.75,2.39,1.49,1.49,0,0,1-.41,1.2,1.87,1.87,0,0,1-1,.29,12.23,12.23,0,0,0-2.92.72c-.63.23-1.28.47-1.81-.07C394.55,130.61,395.21,128.16,396,127.09Z"/><path class="a" d="M391.51,160.15a38,38,0,0,1-3.93-5.42c-1.08-2-.43-3.39.91-5.21a7.78,7.78,0,0,1,8.22-3.3c4.38.93,8.34,4.23,6.07,9.11C401.42,158.26,394.93,163.86,391.51,160.15Z"/><path class="l" d="M391.33,151.9a3.73,3.73,0,0,1,6.13,2,3.38,3.38,0,0,1-.53,3.3,3.29,3.29,0,0,1-1.27.81,4,4,0,0,1-3.47-.15C390.34,156.76,389.64,153.32,391.33,151.9Z"/><path class="a" d="M391.58,156.59a1.68,1.68,0,0,1-.59-1.31c.06-2,2.72-2.53,3.9-1.63a4,4,0,0,1,1,2.09c.34,2.33-3.19,3.2-4.4,1.46a2.72,2.72,0,0,1-.45-1.84"/><path class="a" d="M385.08,165.08a2.27,2.27,0,0,1-1.17-2c.08-.58,1.35-2,2-1.85C387.45,161.44,385.76,164.37,385.08,165.08Z"/><path class="a" d="M441.46,169c-.09.19,1.33,2.35,1.54,3a8.49,8.49,0,0,1,.24,3.78,2.69,2.69,0,0,1-.74,1.53c-.45.45-1.35.69-1.55,1.36-.3,1,.91,1.42,1.8,1.55,2.36.35,5.32-.59,6.67-2.47,1.51-2.11,2.33-5.05,3.14-7.49a66.63,66.63,0,0,0,2.18-8.21c.94-4.9,1.81-9.2-.07-13.78-.15.29-.54.54-.56.9a13.15,13.15,0,0,1-1.52,3.75c-1.29,2.56-2.9,3.73-4.42,6.17a58.28,58.28,0,0,1-4.85,7A9.24,9.24,0,0,0,441.46,169Z"/><path class="a" d="M405.44,168.37a12.87,12.87,0,0,1-3.16,7.11c-.42.48-1.5,1.24-.8,1.88s2.48,0,3.13-.11c9.7-2.26,15.26-12.8,17.74-21.67a30.13,30.13,0,0,0,.9-11.3,18,18,0,0,0-1-5.22c-.93.41-1.87.86-2.85,1.22a7.15,7.15,0,0,0-2.44,1,2.57,2.57,0,0,0-.44,1.08c-.54,1.62-1.05,3.26-1.62,4.87-1.52,4.32-3,8.74-4.76,12.95-.78,1.82-1.32,4.22-2.5,5.82C407.07,166.8,406.05,167.19,405.44,168.37Z"/><path class="a" d="M328.71,37.29c.07,0,.06.07.14,0,.34-.66-.26-2.26-1.05-2.4a2,2,0,0,0-1.6.39,2.76,2.76,0,0,0,.27,3,2.23,2.23,0,0,0,1.39.28c1.26-.14,1.15-1,1-2.07"/><path class="a" d="M324.5,31.93c.68-.36.26-2.33-.2-2.72-.27-.22-.52-.06-.8-.14s-.64-.45-1.06-.17c-.69.46-.47,2.32-.06,2.89S324.47,32.54,324.5,31.93Z"/><path class="a" d="M323.26,37.24c.28,0,0-1.87-.27-2.18a1.18,1.18,0,0,0-1.75,0c-.66.74-.27,2.24.37,2.88C322.48,38.86,323.28,38,323.26,37.24Z"/><path class="a" d="M324.79,43c-.23-.66.07-2.32-.94-2.5-.48-.08-.47.34-.74.43s-.39-.1-.65,0C320.82,42,324.63,46.88,324.79,43Z"/><path class="a" d="M319.81,32.55c.45-.5,0-2.09-.17-2.63s-.86-1.68-1.17-.58c-1.24-.64-1.12,1.2-.91,2a2.77,2.77,0,0,0,.74,1.39C319,33.33,319.49,32.75,319.81,32.55Z"/><path class="a" d="M319.76,42.17a3.78,3.78,0,0,0-.32-2.52c-.17-.33-.62-.93-1.06-.74-.23.1-.43.67-.58.9a2.06,2.06,0,0,0,0,2.48c.29.4.46.55.93.52C319.44,42.77,319.53,42.37,319.76,42.17Z"/><path class="a" d="M317.23,37.19c.73.35.25-2.36.16-2.61s-.38-1-.82-.88c-.25.06-.28.42-.51.5-.4.13-.66-.29-1,.2a2.81,2.81,0,0,0,0,2,1.84,1.84,0,0,0,1.09,1.26c1.06.35,1.38-.74,1.49-1.55"/><path class="a" d="M313.54,31.11c.06,0,.08.05.15,0,.22-.66,0-3.1-.88-3.19a2.11,2.11,0,0,0-1.43.66,2.5,2.5,0,0,0,.33,2.41C312.29,31.77,313.75,31.81,313.54,31.11Z"/><path class="a" d="M312.3,35.52c.43-.39-.09-2-.31-2.41-.43-.81-1.14-.44-1.59.2a1.67,1.67,0,0,0,0,1.95C310.85,35.89,312.46,37,312.3,35.52Z"/><path class="a" d="M313.73,40.84a2.93,2.93,0,0,0-.54-2.1c-.61-.93-1.36-.12-1.8.49C310.28,40.75,313.17,42.69,313.73,40.84Z"/><path class="a" d="M308.8,39.2c.45.06.05-2-.08-2.24-.34-.61-.56-.49-1.09-.39-.83.16-1.35.18-1.2,1.24a1.71,1.71,0,0,0,.64,1.18c.75.52,1.33,0,1.88-.51"/><path class="a" d="M307.23,31.74c.72-.41.31-1.75.06-2.3-.57-1.26-.89-.77-1.77-.34a1.31,1.31,0,0,0-.52,2,1.21,1.21,0,0,0,.92.73c.92.11,1.34-.55,1.45-1.34"/><path class="a" d="M303.73,36.86c.43.13.76-.78.78-1.1.05-1.12-.65-2.06-1.69-1.89s-1.25.46-1.19,1.48a1.75,1.75,0,0,0,.51,1.42C302.53,37.05,303.53,37.21,303.73,36.86Z"/><path class="a" d="M411.79,59.46a10,10,0,0,1,4.82-3.53c.63-.23,1.92-1,2.61-.75s.37.73.22,1.39a18.08,18.08,0,0,1-1.45,3.6,25.4,25.4,0,0,1-2.4,4.33,9.85,9.85,0,0,1-3.8,3.45c-.84.37-3,1.07-3.75,0-.44-.64.43-2,.67-2.66a14.56,14.56,0,0,0,1-2.91C409.83,61,411,60.61,411.79,59.46Z"/><path class="f" d="M414.29,59.17A51.16,51.16,0,0,1,426.24,62a71.81,71.81,0,0,1,8.64,3.64,9.43,9.43,0,0,1,2.34,1.47c.23-.25.59-.6.51-.93-.14-.64-1.87-1.53-2.32-1.8-3.83-2.25-7.66-4.46-11.66-6.39a40.43,40.43,0,0,0-7.06-2.69c-1-.26-2.79-1-3.83-.65-.09.71-1,3.22,0,3.41"/><path class="f" d="M342.71,40.33c-1.69-.47-4.12-.56-6-.86a42.65,42.65,0,0,0-8.89-.34c-1.8.08-4.1.1-5.7,1.06s-1,4.16-1.11,5.76-.66,4.16.13,5.83c6.63-2.29,18.78-4.35,25.8-2.87.4.08,2.69-1.54,2.94-1.86s-6.56-.39-6.55-.86c0-1.27,0-2.54,0-3.81A2.37,2.37,0,0,0,342.71,40.33Z"/><path class="f" d="M354.07,49.23c2.2.15,4.88-.09,7.23.13a91.57,91.57,0,0,1,12,1.43c1.06.24,9.6,1.14,10.13.16s-4.55-2.82-4-3.81c.19-.34-1.49-1.45-1.72-1.93s-1.74-.8-2.16-1c-3.35-1.34-7.14-1.55-10.68-1.88a33.05,33.05,0,0,0-6.21-.19c-.71.06-2.36,0-2.86.58-.33.37-.47,1.48-.71,2-.54,1.06-1.71,2.46-1.86,3.69"/><path class="n" d="M380.44,51.48c2.18.28,7.68,1.45,10,1.8a90.67,90.67,0,0,1,11.93,2.17c1,.31,1.48,1,2.07,0s.88-2.09,1.47-3c.21-.34,1.38-1.82,1.17-2.31S405.4,49.24,405,49c-3.25-1.54-7-2-10.54-2.52a33.77,33.77,0,0,0-6.18-.58c-.72,0-2.36-.14-2.9.41-.35.35-.56,1.45-.82,1.9-.61,1-1.86,2.35-2.09,3.57"/><path class="a" d="M358.18,13.7a8.34,8.34,0,0,1-1.21-.21,10.78,10.78,0,0,0-5.05.63c-.63.25-4.22,3-2.07,2.51-.68,1.48-.46,4,2.7,2.6C353.92,18.61,360.31,14.85,358.18,13.7Z"/><path class="k" d="M392.45,18.43c-.77-.43-1.4-1.52-2.07-2.14a57.37,57.37,0,0,0-4.62-4.2,32.91,32.91,0,0,0-6.1-3.62C378,7.72,376,6.13,374.22,5.93a1.84,1.84,0,0,1,.82,1,28.16,28.16,0,0,0-5-.64c-1.26,0-3.72-.12-4.75.68a1.44,1.44,0,0,1,.33.17,16.18,16.18,0,0,0-2.27,1.24,24.3,24.3,0,0,0-4,2.43,34.7,34.7,0,0,0-8.26,8.87,21.94,21.94,0,0,0-3.37,9.45,13.17,13.17,0,0,0,.26,5.52c.27.83.81,2.63,1.58,3.14-.07.06.08-.34,0-.23a11.88,11.88,0,0,0,3.55,3.15,40.05,40.05,0,0,0,8.3,4.1,43.68,43.68,0,0,0,10.82,1.88,20.71,20.71,0,0,0,12-3.63c5.6-3.67,12.06-9.89,11.26-17.18C395.23,23,393.68,21,392.45,18.43Z"/><path class="e" d="M426.32,59.58c-.17-.16.21-.49.51-.78a16.09,16.09,0,0,1,6.7-3.46,26.46,26.46,0,0,1,8.12-.9c1.2,0,2.46.32,3.65.24A22.24,22.24,0,0,1,437,59.32a16.2,16.2,0,0,1-6.41,1.1c-.86-.08-1.73-.16-2.58-.28A4.51,4.51,0,0,1,426.32,59.58Z"/><path class="e" d="M435.76,65.9A7.37,7.37,0,0,0,438.12,68a31.9,31.9,0,0,0,6.55,3.42A28.55,28.55,0,0,0,453.44,73c1.35,0,2.7,0,4.05-.05a4.5,4.5,0,0,0,1.72-.14,37.16,37.16,0,0,0-3.8-3.1,29.6,29.6,0,0,0-7.72-4,21.87,21.87,0,0,0-7-1.25,13.6,13.6,0,0,0-4,.64c-1,.28-1.05.41-.84.79"/><path class="e" d="M437.13,66.13c-.32,2.42,1.47,6.11,3,7.89a24.81,24.81,0,0,0,6,5.12,13.72,13.72,0,0,0-.84-3.11A16,16,0,0,0,443,71.41a14.39,14.39,0,0,0-2.69-3.08A5.93,5.93,0,0,0,438.31,67,1.32,1.32,0,0,1,437.13,66.13Z"/><path class="g" d="M333.11,49.33h-.05a.29.29,0,0,1-.23-.33l.06-.4a29.94,29.94,0,0,1,1.23-5.34c.32-.9,1.47-3.86,2.49-4a.27.27,0,0,1,.32.24.28.28,0,0,1-.24.33c-.42.06-1.33,1.68-2,3.63a29.16,29.16,0,0,0-1.2,5.23l-.07.4A.28.28,0,0,1,333.11,49.33Z"/><path class="g" d="M362.2,49.6h0a.29.29,0,0,1-.25-.32,7.79,7.79,0,0,1,1.28-2.92c.17-.26.32-.52.46-.77a.29.29,0,0,1,.51.29c-.15.25-.31.52-.48.78a7.39,7.39,0,0,0-1.2,2.69A.28.28,0,0,1,362.2,49.6Z"/><path class="g" d="M421.45,60.76a.28.28,0,0,1-.18-.06.29.29,0,0,1,0-.41A8.65,8.65,0,0,1,424,57.91a.28.28,0,0,1,.38.14.28.28,0,0,1-.13.38,8.13,8.13,0,0,0-2.62,2.23A.28.28,0,0,1,421.45,60.76Z"/><path class="g" d="M431.8,64.29a.25.25,0,0,1-.15-.05.28.28,0,0,1-.1-.39,4.28,4.28,0,0,1,1.5-1l.22-.12a.29.29,0,0,1,.39.12.28.28,0,0,1-.11.39l-.23.12a5,5,0,0,0-1.28.83A.28.28,0,0,1,431.8,64.29Z"/><path class="o" d="M374.2,46.89a4.89,4.89,0,0,1-2-.23c1-.35,2.2-.73,2.53-1.38a3.19,3.19,0,0,1,.65-1.23c.27-.24.67-.41,1-.64a9.71,9.71,0,0,0,1.18-1.32,8.78,8.78,0,0,1,3-1.57,21.1,21.1,0,0,0-1.9,4.86c-.15.62,0,1.11-1.08,1.35A15.74,15.74,0,0,1,374.2,46.89Z"/><path class="a" d="M349.06,27.34c-.55.2-1,.95-1.33,1.39a18.33,18.33,0,0,0-2.89,4.83,40.32,40.32,0,0,0-3.06,12.92,9.85,9.85,0,0,0,1.85,7A10,10,0,0,0,350.91,57c1.64,0,2.76-.91,2-2.53a3.87,3.87,0,0,1,.49-4.38c1.68-2.39,3.83-4.3,5.67-6.52,1.21-1.47,1.63-2.29,1.07-4.27a19,19,0,0,0-4.91-8.4,15.32,15.32,0,0,0-3.7-3A4.24,4.24,0,0,0,349.06,27.34Z"/><path class="a" d="M378.11,41.33a35.34,35.34,0,0,0-1,12.35c.27,2.21,2.27,8.49,5.54,8,1.6-.23,1.38-2.46,1.69-3.7,1-4,3.89-6.93,5.17-10.77,1.13-3.39,0-9.7-4.54-10.08C381.88,36.89,381.32,30.1,378.11,41.33Z"/><path class="a" d="M378,44.42c.17-.82.12-2.28.29-3.27a22.66,22.66,0,0,1,2.84-7.59,22.24,22.24,0,0,1,8.12-8.25,15.72,15.72,0,0,1,4.37-1.69c.49-.11,1.58-.47,2.1-.21,1.32.67.06,3.68-.52,4.48-1.25,1.73-3.25,2.93-4.67,4.51A20.58,20.58,0,0,0,387,38.45c-.93,2.28-2,4.43-4.11,5.82a3.55,3.55,0,0,1-2.37.9A6.17,6.17,0,0,1,378,44.42Z"/><path class="a" d="M423.05,34.46c1.23-1.78,3.25-2.69,5.12-1.24.77.6,2.37,2.41,2.33,3.44,0,.41.13,1-.59.48.14.77.7,1.72.47,2.56-.12-.07-.36-.09-.47-.16-.21.93.32,1.91,0,2.9-.41,1.16-1.19,1.28-2.32,1.6-2.08.56-3.78.76-4.8-1.43C421.56,40.05,421.78,36.13,423.05,34.46Z"/><path class="m" d="M426.11,37.52a2.75,2.75,0,0,1,1.42,2.53,1.58,1.58,0,0,1-.12.68,1.64,1.64,0,0,1-.37.42,2.85,2.85,0,0,1-1.23.58.82.82,0,0,1-.44,0,1,1,0,0,1-.47-.63A8.07,8.07,0,0,1,424,38C424.1,37.07,425.48,37.24,426.11,37.52Z"/><path class="k" d="M422.92,34.64a30.38,30.38,0,0,0-1.78-3.9c-1.14-2-3.09-5-5.22-6.08a7.41,7.41,0,0,0,.65,2c-1.87-.3-3.29-2.94-5.18-3.54.25.48.88.78.73,1.4a24.1,24.1,0,0,1-2.87-1.74,8.28,8.28,0,0,0,.34.8c-2.28-.15-4.32-1.31-6.6-1.38a16.35,16.35,0,0,0-10.3,3.05c-5.13,3.82-10.78,10.65-10.49,17.5.17,4.12,3.16,6.92,6.41,9.09,2.83,1.89,5.62,3.63,8.62,5.23,5.07,2.7,12.57,5.58,18.07,3,5.06-2.32,7-7.61,8.86-12.47C425.7,43.54,425.08,38.86,422.92,34.64Z"/><path class="a" d="M407.27,36.09c-1.57-.24-2.82-1.59-4.53-1.87-3.7-.61-6,1.49-8.36,4.17-1.55,1.76-1.59,2.47-.83,4.64.71,2,1.93,4.18,4.05,4.92,3,1,6.32.78,8.63-1.59S409.55,38.37,407.27,36.09Z"/><path class="a" d="M419.26,43.22c-2.3-1.53-5.46,3-6.27,4.75-1.09,2.34,1.28,5.37,3.25,6.55s3.92.94,5.17-1,2.25-4.63,1.94-6.82a3.75,3.75,0,0,0-1.16-2.39C421.13,43.44,419.57,43.46,419.26,43.22Z"/><path class="a" d="M407.18,53.6a3.29,3.29,0,0,1-1.8-2.54c-.1-1.43,1.16-1.13,2.14-.79s3.59,1,3.7,2.2S407.67,54.17,407.18,53.6Z"/><path class="a" d="M406.05,55.85a.21.21,0,0,1-.12-.05.17.17,0,0,1,0-.23,6.34,6.34,0,0,0,.85-1.38c.17-.33.34-.65.5-.9a.16.16,0,0,1,.23,0,.17.17,0,0,1,0,.23c-.15.24-.31.54-.48.87a6.55,6.55,0,0,1-.9,1.46A.21.21,0,0,1,406.05,55.85Z"/><path class="l" d="M398.28,43.71a3.9,3.9,0,0,0,1.38,1.84,2.57,2.57,0,0,0,2.23.34,3.18,3.18,0,0,0,1.11-.74,5.79,5.79,0,0,0,1.61-2.88,21.1,21.1,0,0,1-2,1.91,2.3,2.3,0,0,1-.76.47,2,2,0,0,1-1.13-.1,2.11,2.11,0,0,1-.88-.48,2.58,2.58,0,0,1-.55-1.3l-.57-2.64a.49.49,0,0,0-.13-.29c-.37-.31-.62,1.45-.63,1.66A5.19,5.19,0,0,0,398.28,43.71Z"/><path class="l" d="M419.31,52.78a3.37,3.37,0,0,1-2,.46,2.27,2.27,0,0,1-1.72-1.05,2.83,2.83,0,0,1-.33-1.15,5.26,5.26,0,0,1,.56-2.89,18.34,18.34,0,0,0,.26,2.45,2,2,0,0,0,.25.76,1.79,1.79,0,0,0,.82.58,1.81,1.81,0,0,0,.88.18,2.3,2.3,0,0,0,1.13-.57l1.91-1.48a.47.47,0,0,1,.25-.11c.44,0-.41,1.35-.52,1.5A4.5,4.5,0,0,1,419.31,52.78Z"/><path class="m" d="M415.72,55.62c-.34.18-.67.48-.68.81a2.2,2.2,0,0,0,3,1.86C420.59,57.38,417.92,54.43,415.72,55.62Z"/><path class="a" d="M403.08,22.47c.2-1.22.55-3.43-.18-4.83s-3.58-2.93-5.19-2.38c-1,0-2.43,1.32-3,1.39-.16.34-1,.44-1.45.66-.94.46-2.38,1.54-2.65,2.65a4.69,4.69,0,0,0,1.79,4.84C395.38,27,400,24.73,403.08,22.47Z"/><path class="m" d="M395.23,23.3a2.37,2.37,0,0,1,1.41-2,4.36,4.36,0,0,1,1.25-.27,3.25,3.25,0,0,1,1.67.08,2.46,2.46,0,0,1,1.26,2.45.6.6,0,0,1-.07.32.7.7,0,0,1-.3.26c-.93.52-2.49,1.47-3.59,1.44S395.18,24.22,395.23,23.3Z"/><path class="m" d="M389.77,44.42a1.12,1.12,0,0,0-.63,1,2.93,2.93,0,0,0,3.63,2.39C395.5,46.75,392.05,43,389.77,44.42Z"/><path class="p" d="M321.94,137.7a2.58,2.58,0,0,1,.68,1.26c.17.45.55.92,1,.85a1,1,0,0,0,.6-.43,2.37,2.37,0,0,0,.46-1.72.74.74,0,0,0-.08-.29.59.59,0,0,0-.85,0,1.63,1.63,0,0,0-.42.85"/><rect class="p" width="467.72" height="184.25"/></svg>