<svg id="troscolrect_renard_v3" xmlns="http://www.w3.org/2000/svg" viewBox="0 0 524.41 269.29"><defs><style>.cls-1{fill:#009598;}.cls-2{fill:#acd6c7;}.cls-3{fill:#f8c1c1;}.cls-12,.cls-16,.cls-18,.cls-4,.cls-9{fill:none;}.cls-4{stroke:#4f8f72;stroke-width:0.66px;}.cls-12,.cls-16,.cls-4,.cls-9{stroke-linecap:round;stroke-linejoin:round;}.cls-5{fill:#ec6741;}.cls-6{fill:#f9e4b2;}.cls-7{fill:#1e181d;}.cls-8{fill:#b32e18;}.cls-16,.cls-9{stroke:#b32e18;}.cls-9{stroke-width:0.62px;}.cls-10{fill:#c3a050;}.cls-11{fill:#e2d2ad;}.cls-12{stroke:#006967;stroke-width:0.4px;}.cls-13{fill:#da6e2a;}.cls-14{fill:#d66d2e;}.cls-15{fill:#db4d2a;}.cls-16{stroke-width:0.67px;}.cls-17{fill:#fbe9c2;}</style></defs><path class="cls-1" d="M172.14,222.81c-.83-.37-1.19-1.78-1.44-2.57a11.87,11.87,0,0,1,.77-8.1c.5-1.07,4.48-6.69,5.77-5.91a9.32,9.32,0,0,1,.61,1.8,11.11,11.11,0,0,1,.58,3.42,19,19,0,0,1-.93,5.44C176.76,219.23,175.28,222.74,172.14,222.81Z"/><path class="cls-2" d="M167,225.5c.1.1.26.05.14.23-3.83.42-7.94.4-11.36-1.53-1.94-1.1-5.25-3.35-5.49-5.81,3.81-.69,7.78-1.72,11.47.05C164.07,219.53,166.93,221.63,167,225.5Z"/><path class="cls-1" d="M364.21,256.05c.42-.87-.26-2.26-.6-3.08a12.63,12.63,0,0,0-6.19-6c-1.14-.52-8.22-2.34-8.74-.83a10.76,10.76,0,0,0,.74,1.89,11.63,11.63,0,0,0,1.89,3.16,20.3,20.3,0,0,0,4.48,3.78C358,256.32,361.62,258.15,364.21,256.05Z"/><path class="cls-2" d="M372,257.91c0,.11-.12.16,0,.2,2.35-1.58,4.65-3.55,5.64-6.26.57-1.54,1.36-4.37.33-5.87-2.47,1.43-5.18,2.73-6.41,5.48C370.8,253.15,370.19,255.69,372,257.91Z"/><path class="cls-1" d="M181.47,93.82c-.38-.78.23-2,.54-2.78a11.4,11.4,0,0,1,5.6-5.46c1-.47,7.43-2.12,7.89-.75a9.07,9.07,0,0,1-.67,1.71,10.61,10.61,0,0,1-1.7,2.86,18.38,18.38,0,0,1-4,3.41C187.08,94.06,183.81,95.72,181.47,93.82Z"/><path class="cls-2" d="M174.45,95.5c0,.1.11.15,0,.18-2.13-1.43-4.2-3.21-5.1-5.65-.52-1.39-1.23-4-.29-5.31,2.23,1.29,4.67,2.47,5.79,5A5.42,5.42,0,0,1,174.45,95.5Z"/><path class="cls-3" d="M211.25,166.65c-1.08,1.76,1.84,3.75,3.36,3.82a3.12,3.12,0,0,0,3.15-2.32,3.71,3.71,0,0,0-1.19-3.5A3.09,3.09,0,0,0,211.25,166.65Z"/><path class="cls-3" d="M218.55,175.54c-.49,2.41,1.71,4.18,3.92,4.7a4.19,4.19,0,0,0,4.76-5.49c-.83-2.54-3.88-3.22-6.08-2.16A5.41,5.41,0,0,0,218.55,175.54Z"/><path class="cls-3" d="M223.9,163.6c-.53.76-.18,2.21.17,3a3.65,3.65,0,0,0,3.81,1.72c1.79-.18,3.51-1.06,3.77-3a4.86,4.86,0,0,0-1.21-3.6C228.16,159.44,224.31,161.41,223.9,163.6Z"/><path class="cls-3" d="M51.86,135.19c-1.32.44-.68,2.74.08,3.43a2.1,2.1,0,0,0,2.64.17,2.49,2.49,0,0,0,.9-2.33A2.08,2.08,0,0,0,51.86,135.19Z"/><path class="cls-3" d="M51.78,143c-1.3,1-.93,2.9,0,4.12a2.83,2.83,0,0,0,4.85-.77,2.92,2.92,0,0,0-2.21-3.75A3.62,3.62,0,0,0,51.78,143Z"/><path class="cls-3" d="M59.73,139.1c-.6.16-1,1.06-1.19,1.6a2.46,2.46,0,0,0,1.23,2.54,2.54,2.54,0,0,0,3.26.07,3.26,3.26,0,0,0,.93-2.39C63.74,138.79,60.89,138.14,59.73,139.1Z"/><path class="cls-3" d="M392.33,137.74c-1.33.44-.68,2.74.08,3.43a2.1,2.1,0,0,0,2.64.17,2.5,2.5,0,0,0,.89-2.33A2.08,2.08,0,0,0,392.33,137.74Z"/><path class="cls-3" d="M392.25,145.51c-1.3,1-.93,2.9,0,4.12a2.82,2.82,0,0,0,4.84-.77,2.92,2.92,0,0,0-2.21-3.75A3.59,3.59,0,0,0,392.25,145.51Z"/><path class="cls-3" d="M400.2,141.65c-.61.16-1.06,1.06-1.19,1.6a2.44,2.44,0,0,0,1.22,2.54,2.54,2.54,0,0,0,3.26.07,3.26,3.26,0,0,0,.93-2.39C404.21,141.34,401.36,140.69,400.2,141.65Z"/><path class="cls-3" d="M113.69,249.07c-1.32.45-.68,2.74.08,3.44a2.12,2.12,0,0,0,2.64.17,2.51,2.51,0,0,0,.9-2.33A2.09,2.09,0,0,0,113.69,249.07Z"/><path class="cls-3" d="M113.61,256.85c-1.3,1-.93,2.9,0,4.12a2.83,2.83,0,0,0,4.84-.77,2.91,2.91,0,0,0-2.2-3.76A3.62,3.62,0,0,0,113.61,256.85Z"/><path class="cls-3" d="M121.56,253c-.6.17-1,1.07-1.19,1.6a2.46,2.46,0,0,0,1.22,2.54,2.53,2.53,0,0,0,3.26.08,3.23,3.23,0,0,0,.94-2.39C125.57,252.68,122.72,252,121.56,253Z"/><path class="cls-2" d="M424.35,75c.4,0,.44-2.18.47-2.69a20.25,20.25,0,0,0-1.56-8.37,21.58,21.58,0,0,0-1.57-3.46c-.59-.93-2.46-2.77-3.72-2s-.76,3.8-.34,4.83A20.21,20.21,0,0,0,416,59.69c-1.29-1.85-3.79-4.67-6.16-5.06-2.9-.47-1.57,3.4-1,4.83a12.3,12.3,0,0,0-4.41-3.52c-1.58-.81-5.22-2.36-6.59-.53-1.24,1.65.17,3.88,1.5,4.93,1,.76,2.51,1.19,3.26,2.11-2-1-6.62-.63-4.16,2.41,1.15,1.42,3.17,2.09,4.84,2.66,1.49.5,3.55.69,4.88,1.52-1.58.13-4,.08-3.78,2.35S408,74.75,409.93,75a47.64,47.64,0,0,0,9.7,0A43.8,43.8,0,0,1,424.35,75Z"/><path class="cls-4" d="M423.66,74.17c-3.44-1.86-6.67-5.19-9.85-7.55A110.57,110.57,0,0,0,402.5,59"/><path class="cls-4" d="M411.29,59.44a16.77,16.77,0,0,1,1.52,3.44c.73,1.64.68,2.25,1.3,3.92"/><path class="cls-4" d="M420.35,63.07a30.88,30.88,0,0,1,1.22,9.45"/><path class="cls-4" d="M402.62,64.84c3.22.64,7.28,1.5,9.82,1.39"/><path class="cls-4" d="M409.94,71.58a50,50,0,0,0,9.52-.15"/><path class="cls-2" d="M123.2,140.76c.4,0,.44-2.18.47-2.69a20.24,20.24,0,0,0-1.55-8.37,22.49,22.49,0,0,0-1.57-3.46c-.59-.93-2.46-2.77-3.73-2-1.12.72-.76,3.8-.34,4.83a19.54,19.54,0,0,0-1.67-3.63c-1.29-1.85-3.78-4.67-6.16-5.06-2.9-.47-1.57,3.4-1,4.83a12.3,12.3,0,0,0-4.41-3.52c-1.57-.81-5.21-2.36-6.59-.53-1.24,1.65.17,3.88,1.5,4.93,1,.76,2.51,1.19,3.27,2.11-2-1-6.63-.63-4.17,2.41,1.15,1.42,3.18,2.09,4.85,2.66,1.48.5,3.55.69,4.87,1.52-1.58.13-4,.08-3.78,2.35s3.66,3.36,5.62,3.64a47.64,47.64,0,0,0,9.7,0A43.91,43.91,0,0,1,123.2,140.76Z"/><path class="cls-4" d="M122.51,140c-3.44-1.86-6.67-5.18-9.85-7.55a110.57,110.57,0,0,0-11.31-7.6"/><path class="cls-4" d="M110.15,125.23a17.27,17.27,0,0,1,1.51,3.44c.73,1.64.68,2.25,1.3,3.92"/><path class="cls-4" d="M119.2,128.86a30.57,30.57,0,0,1,1.22,9.45"/><path class="cls-4" d="M101.48,130.63c3.22.64,7.28,1.5,9.81,1.39"/><path class="cls-4" d="M108.79,137.37a50,50,0,0,0,9.52-.15"/><path class="cls-2" d="M7.25,27.42c-.4,0-.44-2.18-.47-2.69a20.28,20.28,0,0,1,1.56-8.37A20.74,20.74,0,0,1,9.91,12.9c.59-.93,2.46-2.77,3.72-2s.76,3.8.34,4.83a19.54,19.54,0,0,1,1.67-3.63c1.29-1.85,3.78-4.67,6.16-5.06,2.9-.46,1.57,3.4,1,4.83a12.41,12.41,0,0,1,4.41-3.52c1.57-.81,5.22-2.36,6.59-.53,1.24,1.65-.17,3.88-1.5,4.93-1,.76-2.51,1.19-3.26,2.11,2-1,6.62-.63,4.16,2.41-1.15,1.42-3.18,2.09-4.85,2.66-1.48.5-3.54.69-4.87,1.52,1.58.13,4,.08,3.78,2.35s-3.66,3.36-5.62,3.64a47.64,47.64,0,0,1-9.7,0A43.91,43.91,0,0,0,7.25,27.42Z"/><path class="cls-4" d="M7.94,26.62c3.44-1.86,6.67-5.18,9.85-7.55a110.57,110.57,0,0,1,11.31-7.6"/><path class="cls-4" d="M20.3,11.89a17.27,17.27,0,0,0-1.51,3.44c-.73,1.64-.68,2.25-1.3,3.92"/><path class="cls-4" d="M11.25,15.52A30.57,30.57,0,0,0,10,25"/><path class="cls-4" d="M29,17.29c-3.23.64-7.28,1.5-9.82,1.39"/><path class="cls-4" d="M21.66,24a50,50,0,0,1-9.52-.15"/><path class="cls-5" d="M473.73,119.67c6.81-.82,13.19,2.25,20.09,2.83s15.19.08,20-5.48a18.27,18.27,0,0,0,4.1-16.63c-.78-3.2-2.49-7.77-5.66-9a12,12,0,0,0-1.43,3.43c-.17.61-1,1.77-1,2.3,0,.86,1.42,1.26,1.85,2.12a6.56,6.56,0,0,1,.25,4.24c-.6,2.15-2.5,2.79-4.55,3.16a26.05,26.05,0,0,1-9.64-.32c-5.59-1.17-10.08-4.67-15.42-6.51a30.7,30.7,0,0,0-6.66-1.5c-.94.41-1.14,1.65-1.28,2.59a7.35,7.35,0,0,0,.58,4c.51,1.36,1.3,2.57,1.76,4,.29.9.56,1.81.88,2.71a23.16,23.16,0,0,1,.8,2.61c.26,1.1.45,2.51-.57,3.27a22.23,22.23,0,0,1-2.32,1.23C474.89,119.11,474.35,119.29,473.73,119.67Z"/><path class="cls-6" d="M478.4,98.76a32.16,32.16,0,0,0-24.2,4.81c-3.91,2.64-7,7.32-7.23,12.12-.18,3.59-.46,7.45,1.53,10.66.65,1,2.19,3.23,3.56,3.1,0-1.09-.68-2.11-.65-3.2,1.21,2.94,2.25,5.16,5.18,6.73,2.12,1.15,5.49,2.14,7.91,1.24a11.35,11.35,0,0,1-3-2.86c1.67.31,3,1.2,4.83,1.27a8.07,8.07,0,0,0,4.12-1.07c.74-.35,2.58-.89,2.81-1.86-1.92.25-4.21.52-6-.72a4.43,4.43,0,0,1-1.3-4.71c.61-2.06,2.09-3.06,4-3.72,5.56-2,10.75-.7,16,.54-1.68-.49-5.91-1.78-3.51-4.07-1.51-.82-6.43-3.79-2.85-5.4a5.33,5.33,0,0,1-2.09-2.45c-.13-.73.56-1.32,1.13-1.76-.92-1.58-3.34-2.36-3.45-4.59-.06-1.34,1.44-1.24,2.41-1.61C477.2,100.06,477.13,99.52,478.4,98.76Z"/><path class="cls-7" d="M481,81.87a8,8,0,0,1,.9,3.64,48.22,48.22,0,0,1,.05,7.88,12.88,12.88,0,0,1-1.13,3.87c-.4,1.07-.09,1.65,1.15,1.62,2.53,0,3.66-3.72,4.05-5.77.27-1.44,2.71-7.2,1.82-8.43-1.08-1.48-4.26,1.06-5.32-.43A13.58,13.58,0,0,1,481,81.87Z"/><path class="cls-6" d="M479.93,54.94c-.71,1.56-2.87,4.63-3.33,9.09a27.28,27.28,0,0,0,1.29,12,6.28,6.28,0,0,0,.4-1.27,13.48,13.48,0,0,1,.56,2.12,19.37,19.37,0,0,0,1.57,3.84c.91,1.9,2.3,4.31,4.07,5.57-.19-1.34,2.16.92,2.38,1.11A13.75,13.75,0,0,0,491,90.09c.09-.39-.1-.58-.19-1a16,16,0,0,1-.37-5.88,11.74,11.74,0,0,1,.69-3c.17-.4,1-1.3,1-1.67,0-.65-1.59-1.81-1.93-2.34a25.77,25.77,0,0,1-3.49-7.9,24.35,24.35,0,0,1-.64-7.17c.07-1,.59-2.13.47-3.1-.83.59-1.42-1.63-2.39-1.78C481.83,55.87,482.2,55.66,479.93,54.94Z"/><path class="cls-5" d="M495.19,55.45a29.81,29.81,0,0,0,4.75,11.15c1.42,2.2,3.47,4,5.15,6a74.09,74.09,0,0,1,4.92,7A26.72,26.72,0,0,1,513.82,92a12.39,12.39,0,0,1-.51,5.89c-.34.78-.68.78-1.44.92a26.78,26.78,0,0,1-7.25.56,26.07,26.07,0,0,1-6.69-1c-2.23-.83-4-2.88-5.39-4.72a11.46,11.46,0,0,1-2.63-5,16.76,16.76,0,0,1,.72-9.25c-1.52-.88-2.27-3.36-3.08-4.83-2.33-4.24-2.93-9.06-3-13.83,0-1.25-.14-2.31.71-3.3,1.22-1.42,3.44-1.93,5.16-2.39C491.77,54.64,495.51,52.88,495.19,55.45Z"/><path class="cls-8" d="M501.48,83.16l-1.36.1a10.28,10.28,0,0,0-1.22.12c-.84.17-1.66.33-2.44.53a9.48,9.48,0,0,0-2.17.82,10,10,0,0,0-1.94,1.66,4.07,4.07,0,0,1,1.11-2.62A5.34,5.34,0,0,1,496,82.33a8.31,8.31,0,0,1,2.8-.23,4.85,4.85,0,0,1,1.41.37A4.67,4.67,0,0,1,501.48,83.16Z"/><path class="cls-7" d="M488.12,76.74c.85,2.69-.11,9.2-.6,12.42a37,37,0,0,1-1.37,7c-.39,1.18-1.44,2.57-1.37,3.79,0,.51-.16.47.34.71a4,4,0,0,0,1.51,0,3.89,3.89,0,0,0,3.14-2.35,17.61,17.61,0,0,0,1.68-7.78c0-1.11.41-2.22.13-3.41-.57-2.34,1.57-5.18,2.21-7.52C491.78,79,489.76,75.24,488.12,76.74Z"/><path class="cls-7" d="M509.65,98.4c-.32-.36-.91-.27-1.38-.34-2-.29-4-.4-6-.64a46.37,46.37,0,0,0-5.27-.14,5.17,5.17,0,0,0-3.92,1.19c-2.09,1.94.67,1.68,2,1.53a15.62,15.62,0,0,1,3,0c2.19.18,4.4,0,6.59.08,1.29,0,3.62.49,4.81-.24A.85.85,0,0,0,509.65,98.4Z"/><path class="cls-5" d="M487.63,88.44c.06-1.28.18-2,.14-2.84-.06-1.37-.06-2.73-.13-4.09-.08-1.73-.43-3.46-.6-5.18-.07-.65-1.9-8.42-1.94-9.13-.21-3.49,2.59,6.71,2.86,6.62a5,5,0,0,1,2.39.24c1.31.34,2.6.42,3.5,1.57,1.9,2.42.46,5-.58,7.45a21.93,21.93,0,0,0-1.21,3.81c-.15.7-.09,1.42-.25,2.11a4.77,4.77,0,0,0-.48-1.22c-.56-.67-.47-.06-1-.06s-.43-.78-1-1C488.43,86.54,488.08,88.24,487.63,88.44Z"/><path class="cls-9" d="M491.67,87.92c.47-1.8,1.19-3,1.66-4.84"/><path class="cls-6" d="M510.64,27.45a5.06,5.06,0,0,1-3.25.93c-1.73-.46-3.35-3.45-4.56-4.74-.65-.69-2.09-1.57-2.51-2.42-.6-1.22.62-2.73,1.38-3.59a58.41,58.41,0,0,1,10-9.35c1.19-.82,3-1.91,4.23-.81,1.58,1.38,1.83,3.59,1.85,5.57a20.32,20.32,0,0,1-.33,5.05,23.13,23.13,0,0,1-2,4.63C514.58,24.45,512.4,27.59,510.64,27.45Z"/><path class="cls-7" d="M497.52,20.46a5.52,5.52,0,0,0,1.05-1c1.41-1.54,2.77-3.06,4.23-4.56a50.5,50.5,0,0,1,6.68-6.32c1.71-1.21,5-2.4,6.79-.81s1.48,6.25,1.51,8.59a13.43,13.43,0,0,1-4.55,10.54c-.78.72-5.65,4.78-6.76,2.21,5.73-1.57,10.35-7.44,10.35-13.21,0-1.76-.19-6-2.54-6.45-.9-.16-1.84.76-2.49,1.23a18.79,18.79,0,0,0-3.17,2.74c-1.39,1.54-2.83,3.09-4.33,4.52-.83.78-1.63,1.55-2.51,2.26A7.81,7.81,0,0,1,500,21.59c-.8.28-2.51-.31-3.27-.69C496.78,20.74,496.88,20.71,497.52,20.46Z"/><path class="cls-10" d="M501.17,20.17c-.84,1.77,3.37-.82,6.58.41,0,.45-.46.74-.51,1.2.69.26,1.5-.06,2.16.24a4.23,4.23,0,0,1-.6.67c.3.28.85.34,1.14.6-1.83.92-1,2-1.05,3.61-1.13-.36-2.34-2.85-3.22-3.7-.62-.59-1.18-1.17-1.85-1.7S501.13,21.21,501.17,20.17Z"/><path class="cls-6" d="M461.18,29.21c1.42.88,4.31-2.67,5.15-3.66a20.8,20.8,0,0,0,3.15-4.13c.42-.93-.19-1.82-.69-2.7A20.09,20.09,0,0,0,465.07,14c-2-1.86-5.82-5.74-8.94-4.31-1.43.65-1.89,2.38-2.18,3.78a16.52,16.52,0,0,0-.13,6.42,14,14,0,0,0,4,7.36C458.66,28.15,460.52,29.92,461.18,29.21Z"/><path class="cls-10" d="M468.07,21.93a17.84,17.84,0,0,0-6.28-1.2,24.09,24.09,0,0,1,3,2.49c-.58.63-1.93.2-2.71.78a3.42,3.42,0,0,1,1.63,1.18c-.32.05-1.16.11-1.28.49s.39.6.46.95c-.77.31-1.62,1-1.06,1.94s.87.28,1.52-.34a32.83,32.83,0,0,0,5.05-5.85C468.71,21.81,469.17,21.1,468.07,21.93Z"/><path class="cls-7" d="M472.07,20.43a25.78,25.78,0,0,0-1.92-1.84c-1.13-1.05-2-2.31-3.15-3.39-2.5-2.46-5.42-5.71-9.06-6.36-4.91-.87-5.48,8.65-4.82,11.59A21,21,0,0,0,457,28a9.12,9.12,0,0,0,4.26,3.3c.27-.49.48-1,.72-1.55a10.07,10.07,0,0,1-5.76-5.21c-1.42-3.24-2.51-6.25-2-9.85.22-1.56.75-4.41,2.75-4.56,1.26-.09,2.46,1,3.43,1.62A18.89,18.89,0,0,1,464,15a33.68,33.68,0,0,1,3.38,4.5,11.38,11.38,0,0,0,2.2,2.76C470.51,21.59,471.17,21,472.07,20.43Z"/><path class="cls-6" d="M478.66,56.15c-2.7-.69-5.25-1-7.63-2.36-1.5-.83-3-1.83-4.52-2.56a48.69,48.69,0,0,0-4.72-1.63,14.8,14.8,0,0,1-2.89-1,6.7,6.7,0,0,1,2.26-.63,39.14,39.14,0,0,0-4.37-1.43c-1.45-.42-3.84-.45-5-1.41a4.38,4.38,0,0,1,2.54-.41,8.28,8.28,0,0,1-4.19-1.6,6.58,6.58,0,0,0-2.52-1.26,32.81,32.81,0,0,0,3.25-1.4,33.41,33.41,0,0,0,4.2-3,39.07,39.07,0,0,0,6-6.35c1.41-1.91,2.47-4.07,4.26-5.68a49.47,49.47,0,0,1,5.85-5c.91-.59,1.87-1.15,2.83-1.68a24.43,24.43,0,0,1,7.09-2.6c2.48-.48,5.18-.22,7.7-.31a16.76,16.76,0,0,1,3.25.22,24,24,0,0,1,3.45.81A22.26,22.26,0,0,1,505.79,24c2.77,3.16,4.35,6.8,6.48,10.4,1.65,2.78,3.22,5.23,6.19,6.47.67.28,1.41.07,2.13.34-.44.79-1.75,1.23-2.51,1.69a21.81,21.81,0,0,1-5.7,2.34c1.39.41,3-.27,4.42-.17a10.42,10.42,0,0,1-3.57,2.37,49,49,0,0,1-8.11,2.37c1.27-.05,2.56-.89,3.76-.86-5.21,3-11.44,4-16.81,6.57a21.41,21.41,0,0,1-6.79,1.86C482.76,57.73,481.34,56.85,478.66,56.15Z"/><path class="cls-7" d="M493.67,46A7.08,7.08,0,0,1,499,41.57a4.62,4.62,0,0,1,3.05.49c.29.18.82.65.78,1a6,6,0,0,1-1.09-.57,4.08,4.08,0,0,0-3.34.28,11.73,11.73,0,0,0-3.8,2.44C494.45,45.38,493.52,46.66,493.67,46Z"/><path class="cls-7" d="M475.39,46.42c.09-.41-.52-1.16-.75-1.49a6.81,6.81,0,0,0-2.75-2.65,6.69,6.69,0,0,0-4.48-.08c-.61.18-2.36.65-2.22,1.56,1,0,2.05-.42,3.08-.52a8.89,8.89,0,0,1,3.25.22,7.44,7.44,0,0,1,3.75,2.79C475.34,46.24,475.27,46.22,475.39,46.42Z"/><path class="cls-5" d="M482.13,51.28c.54-5.1-1.38-8-2.31-10.1a16.41,16.41,0,0,0-3.72-4.94,12.85,12.85,0,0,0-4.54-2.35,16.62,16.62,0,0,0-6.14-1.28c-1.05,0-5.48,0-5.27-.6a11.41,11.41,0,0,1,1.19-2.3,40.72,40.72,0,0,1,6.4-7.48c3.29-3,8.22-5,12.55-6.07,8.61-2.05,16.08-1,23.19,5.09a25.67,25.67,0,0,1,5.5,5.92,14.51,14.51,0,0,1,2.27,5.46c-5.06-2.2-8.94-.82-13.73,1.89a18.76,18.76,0,0,0-8.07,8.95,31.43,31.43,0,0,0-1.63,4,30.79,30.79,0,0,0-.49,4.63c-.93-.31-1.05.74-2.06.7C483.73,52.7,483.66,50.73,482.13,51.28Z"/><path class="cls-7" d="M484.59,53.72c-.68-.19-3.76-1.28-3.46-2.78.2-1,2.08-1.22,2.88-1.35a7.37,7.37,0,0,1,3.17,0c.86.22,2.49.92,1.71,2.06C488.43,52.36,485.94,54,484.59,53.72Z"/><path class="cls-8" d="M513.81,92.32a2.55,2.55,0,0,1,.38,1.29,6.46,6.46,0,0,1-.08,1.32,6.61,6.61,0,0,1-1,2.44,22.14,22.14,0,0,1,.38-2.54l.19-1.24A7.59,7.59,0,0,0,513.81,92.32Z"/><path class="cls-8" d="M478.88,23.2c0-.46-.16-2,.4-2.47,0,.15.23.37.25.57a1.52,1.52,0,0,1,.2-.06c.09.47.34,3-.77,2.44"/><path class="cls-8" d="M482.67,25.81c.23-.52.15-1.36.42-2,.25.69.59.65.6,1.48,0,.33-.48,2-.86.79"/><path class="cls-8" d="M486,22.17a3,3,0,0,1,.23-2.12c1.06,0,1.23,1.53.8,2.33-.25.46-.86.69-1-.05"/><path class="cls-8" d="M487.33,26a5.91,5.91,0,0,1,.34-1.83,1.77,1.77,0,0,0,.45.25,2.18,2.18,0,0,1,.09,1.55c0,.13,0,.48-.16.57-.37.23-.72-.22-.72-.54"/><path class="cls-8" d="M491.6,23.28a2.76,2.76,0,0,1,.08-1.9l.22.16c.62-1.06.66,1.1.59,1.44s-.75,1.47-.81.46"/><path class="cls-8" d="M494.29,25.41c.22-.48.11-1.24.37-1.79a3.48,3.48,0,0,1,.26.3,1.12,1.12,0,0,1,.22-.16A2.43,2.43,0,0,1,495,25.6c-.43.49-.84.11-.67-.58"/><path class="cls-11" d="M478.85,56.33a11.42,11.42,0,0,0,1.64.36c.56.11,1.11.25,1.65.39s1.09.27,1.63.42a13.19,13.19,0,0,0,1.65.39,5.29,5.29,0,0,1-1.73,0,17.07,17.07,0,0,1-1.7-.26,14.59,14.59,0,0,1-1.63-.48A3.79,3.79,0,0,1,478.85,56.33Z"/><path class="cls-5" d="M432,246.84a21.36,21.36,0,0,1-3.54-3.91c-1.69-2.19-4.25-4.16-5.51-6.65,1.33-1.95,3.9-3.78,6.39-2.81,2.34.91,4.11,4,4.86,6.31a25.22,25.22,0,0,1,1,5.1c.08.8.39,2.34-.4,2.89C433.78,248.45,432.77,247.18,432,246.84Z"/><path class="cls-7" d="M429.91,245c1.73,1.23,2.93,4.56,3.65,6.54a35,35,0,0,1,1.52,5.88c.14.82.32,3.8,1.74,2.15,1.09-1.25.81-5,.77-6.56a24.63,24.63,0,0,0-1.49-6.51c-.3-.93-.69-2.86-1.58-3.34a7.22,7.22,0,0,1-.53,2.7,2.32,2.32,0,0,1-.9-.72,1.29,1.29,0,0,0-.35.95C432.11,246.09,431,245.15,429.91,245Z"/><path class="cls-5" d="M390.88,199.52c.56.71,3.45.82,4.38,1A102.52,102.52,0,0,1,405.47,203c6.5,1.8,12.72,3.4,18.92,6.13,4.94,2.17,9.7,4.93,13.12,9.27a49,49,0,0,1,8.05,15.4c1.49,4.68,2.84,9.23,3.87,14,.2.92,1.27,3.72.63,4.36-.06.06-.89.11-1,.16-.44.15-.86.51-1.29.69-.86-1.61-1.63-3.87-3.2-5-2.89-2.05-6.69-2.57-9.75-4.35-2.65-1.54-5.88-3.81-6.93-6.84.17.92,1.12,1.4,1.22,2.33-.94.11-2.49-.64-3.39-.94-3.25-1.09-6.52-2.21-9.78-3.33A122.35,122.35,0,0,0,402,231.08a70.13,70.13,0,0,0-11.19-2,24.21,24.21,0,0,0-9.64,1.22,42.9,42.9,0,0,0-4.54,2.17c-.9.47-2.27,1.65-3.25,1.05a6.54,6.54,0,0,1-1.41-2.19,2.46,2.46,0,0,1,.52-2.23c1.31-2,3.37-3.36,4.87-5.15a22.7,22.7,0,0,0-3.15-2.1,27.23,27.23,0,0,1-3.78-3c-.83.33-1.67.68-2.53,1a23.5,23.5,0,0,0-3.44,1.72,14,14,0,0,1-1.91.91,4,4,0,0,1-4.2-.48c.18-.44,0-.59.32-.94,1.61-1.65,6-6.57,7.79-8.06,4.62-3.88,7.22-4.29,12.36-7.48C382.43,203.2,386.54,200,390.88,199.52Z"/><path class="cls-7" d="M360.74,218.91c-.42,0-1.11.93-1.52,1.31-1.74,1.6-3.84,4.14-5.1,4.94-.93.59-5.36,2.65-3.34,3.89s6.6-2.52,8.11-3.58,4.48-2.58,5.35-4.27c-.88,0-1.75.62-2.67.68a5.55,5.55,0,0,1,1.08-1.44c-.22.09-.52,0-.72,0C359.89,220.11,362.15,218.43,360.74,218.91Z"/><path class="cls-7" d="M373.79,227.46c-2.2,1.85-5,4.82-6.89,6.65-1.18,1.14-1.74,1.12-2.79,2.37-.29.33-.93.94-.79,1.45.54,2,4.14,0,4.93-.46,2.07-1.31,4.12-2.58,6.28-3.73a16.45,16.45,0,0,0,3.6-2.09s-.05-.09-.07-.14a3.48,3.48,0,0,1-2-.7c-.72-.81,0-.94.41-1.78-.34,0-1.24.52-1.53.32-.57-.39.29-1.06.14-1.56C374.84,227,374.32,227.06,373.79,227.46Z"/><path class="cls-7" d="M443.43,247.46c.93,1.95,2.36,3.69,3.28,5.71a26.52,26.52,0,0,1,1.65,5.82c.22,1.11.19,5.55,2.3,3.07,1.46-1.71.71-6.43.34-8.35-.69-3.45-1.25-7.16-2.74-10.35-.25,1.22.09,2.59-.25,3.83-.55-.26-.78-.95-1.42-1.12a4.21,4.21,0,0,0,.09,1.83C446,247.56,445,246.53,443.43,247.46Z"/><path class="cls-5" d="M431.87,220.18c3.23-5.11,8.11-12.08,13.39-16.11,9.7-7.4,24.54-13.06,34.94-3.69,6.16,5.56,8.62,15.67,17.83,17.14A32.33,32.33,0,0,0,520.59,212c-2.22,5-2.49,10.53-6.14,15-3.09,3.76-8.29,8.15-13.13,9.26-1.76.4-3.8,0-5.41.29a35.88,35.88,0,0,0,3.34,2.29c-3.38,2.11-11.67,0-13.83-3,.69,1.63,1.78,3.16,2.1,4.91-1.89,1.36-8.66-1.16-10.59-2.17-5.52-2.92-9-8.14-13.82-11.85-5.05-3.86-14.43-8.47-20.42-4.64-2.47,1.58-4.39,3.81-6.52,5.75C435.65,224.91,433.34,222.76,431.87,220.18Z"/><path class="cls-6" d="M483.47,204.07c4.11,5.5,7.16,12.27,14.56,13.45A32.33,32.33,0,0,0,520.59,212c-2.22,5-2.49,10.53-6.14,15-3.09,3.76-8.29,8.15-13.13,9.26-1.76.4-3.8,0-5.41.29a35.88,35.88,0,0,0,3.34,2.29c-3.38,2.11-11.67,0-13.83-3,.69,1.63,1.78,3.16,2.1,4.91-1.89,1.36-8.66-1.16-10.59-2.17,2.39.46,1.23-1.67.41-3.62,2.92,2.42,5-1,3.54-3.79a3.89,3.89,0,0,0,5.25-1.09c1.37-2.25-.55-5.72-1.78-7.72,1.27,1.47,2.47.78,2.79-1,.5-2.69-2.72-5.76-3.85-7.9.37.39.84.38,1.32.62,1.37-1.72-.33-4.8-1.39-6.3.71.48.75.07,1.28.11A6.48,6.48,0,0,0,483.47,204.07Z"/><path class="cls-6" d="M374.78,181.27c.84-.11,2.57-2.57,3.2-3.12a24.12,24.12,0,0,1,5.3-3.33,42.33,42.33,0,0,1,6.76-2.74c1.8-.53,4.86-1.06,6.59-.1a3.7,3.7,0,0,1,1.4,2.61c.8,3.27-.59,6.5-1.53,9.64a20.34,20.34,0,0,1-3.52,7c-2.05,2.54-4.1,4.06-7.46,2.94C380.29,192.39,375.29,187.15,374.78,181.27Z"/><path class="cls-7" d="M390.71,193.63a10.12,10.12,0,0,0,2.8-3,38.08,38.08,0,0,0,4.29-7.11c1.19-2.63,3.64-8,1.74-10.79-2.2-3.24-7.72-2.21-10.87-1.51a27.22,27.22,0,0,0-9.49,4.27c-2,1.4-3.2,3.16-4.89,4.77.74.66,2.6,2.72,3.59,2.38.52-.18,1.22-1.74,1.55-2.14a24.38,24.38,0,0,1,4.78-3.91c2.79-2.1,7.67-5.09,11.4-4.49,2.23.36,2.3,1.85,2.19,3.79a24.57,24.57,0,0,1-2.47,10.46,21.16,21.16,0,0,1-4.17,6.15c-.51.45-1.42.76-1.6,1.46C389.74,194.15,390.5,193.74,390.71,193.63Z"/><path class="cls-10" d="M381.11,182.67c2.17-.55,4.16-1.75,6.49-1.4-.15,1-1.62,1.46-1.65,2.47.8.18,2.49-.25,3.15.23s-.28,1.14-.71,1.75c.47.41,2.11.55,1.24,1.53,1.25,1.15-.71,2.64-1.92,2.11s-2.21-2.52-3-3.57a12.7,12.7,0,0,0-2.26-2.48C381.82,182.81,381,182.45,381.11,182.67Z"/><path class="cls-6" d="M344.6,187.61c-.5,0-1.79-1.69-2.14-2.24a19,19,0,0,1-1.64-3.75,42.6,42.6,0,0,1-1-5.5,17.42,17.42,0,0,1,.12-6c.44-2.8,2.4-5.43,5.55-4.42a15.3,15.3,0,0,1,3.51,2,16.66,16.66,0,0,1,5.72,5.57c2.5,4.34.38,8.78-3.15,11.72a10.76,10.76,0,0,1-4.11,2.19C346.41,187.38,345.61,186.68,344.6,187.61Z"/><path class="cls-7" d="M359.3,176.88c-.29-.18-.22-.28-.37-.55-.56-1-.92-2.07-1.58-3a24,24,0,0,0-3.5-4.1c-2.65-2.47-9.62-6.72-13-3.25-1.74,1.8-1.69,5.36-1.48,7.65a46.07,46.07,0,0,0,1.61,9.09c.53,1.77,1.8,4.16,3.55,5,1-.92-1.21-2.84-1.77-3.82a20.92,20.92,0,0,1-1.75-15c.44-1.46.93-2.41,2.57-2.36a7.73,7.73,0,0,1,3.45,1,17.52,17.52,0,0,1,7.06,7.48c.31.59.84,3.24,1.52,3.4.34.08.65-.37.89-.5C357.32,177.45,358.3,176.73,359.3,176.88Z"/><path class="cls-10" d="M351.81,178c-.62-1-4-3.38-5-2,.56.89,1.84,1.7,2.05,2.72-.74.31-1.69-.43-2.42.21.08.46.48.86.54,1.27-1.71-.66-2,2-1.7,3.09,1.22.05,3.48-2.46,4.43-3.14A6,6,0,0,0,351.81,178Z"/><path class="cls-6" d="M343.47,188.53c-.84,1.49-3.84,4.75-5.37,5.45-1.69.78-3.67.65-5.35,1.18,1.57,1.58,4.74,2.41,5.76,4.46a4.15,4.15,0,0,0-2.4-.19c2.35,2.45,5.7,4,8.09,6.44,1.58,1.38,4,3.91,5.06,4.73a19.77,19.77,0,0,0,13,3.9,23.94,23.94,0,0,0,6.63-.85c2.31-.69,4.43-1.68,6.69-2.46,6.62-2.29,12.92-4.74,20-5.34-.62-1-2.14-1.15-2.78-2,1.65-.21,3.55.71,5.09.39-.79-.81-1.89-1.32-2.73-2.11a23.52,23.52,0,0,1-2-2.21,10.28,10.28,0,0,1-1.08-1.47,27.19,27.19,0,0,0-1.59-2.93c-4-5.3-12-7.46-18.06-9-6.25-1.54-13.13-2.42-19.49-.95C349.07,186.46,345.45,185,343.47,188.53Z"/><path class="cls-5" d="M392.88,197.63a65.12,65.12,0,0,0-5.07-10,20.93,20.93,0,0,0-4.9-5.5,25.53,25.53,0,0,0-5.91-4c-8.42-4.63-18.57-5.61-26.9.47a19.37,19.37,0,0,0-5.41,6.34,31.77,31.77,0,0,0-2,4.6c.92,0,2.86-.92,3.87-.62a6.83,6.83,0,0,1,4.36,2.93c2.17,3,2.81,6.89,2.56,10.66-.06.94-.21.88.29,1.31a8,8,0,0,0,2.06.73,21.07,21.07,0,0,0,2.42-2.57,26.15,26.15,0,0,1,5.36-5c4.93-3.71,10.62-5.72,16.52-4.6a18.22,18.22,0,0,1,11.36,6.82c1,1.27,2.11,2.8,3.72,3.23A47.85,47.85,0,0,1,392.88,197.63Z"/><path class="cls-7" d="M353.44,207.19c-1,0-2.63-2.2-2.48-3.21.28-1.81,4.17-.38,5-.11,1.06.36,3.09,1.1,1.81,2.51C357.1,207.11,354.5,208.05,353.44,207.19Z"/><path class="cls-7" d="M348,195.49c.34-1-1.22-1.42-2-1.1-1.11.47-1.91,3.34-1.06,4.26s2.75.13,3.21-.87A2.12,2.12,0,0,0,348,195.49Z"/><path class="cls-7" d="M371.09,200.31c.12-.14.23-.16.12-.37-2.84-1-4.47,4.62-1.06,4.77,1.58.08,1.81-1.05,2-2.44C372.23,201.51,372.61,199.69,371.09,200.31Z"/><path class="cls-6" d="M356.44,213.28c1.28,1.22,5.81,1.18,7.49,1.13,5.51-.15,10.47-2.54,15.74-3.76,2-.46,4-.94,6-1.24,1.23-.18,3.18-.11,4.29-.62,2.23-1-1.05-1.84-2.09-2.18a3.32,3.32,0,0,0,2-.89c-6.19-2.3-13.56,1.52-18.56,4.92-1.57,1.07-2.58,2-4.56,2.28-2.66.36-5.41.24-8.09.38"/><path class="cls-8" d="M355.78,181.91c.3-.11.41-1.3,1-1.38a4.77,4.77,0,0,1,.11,1.06c-.05.69-1.35,1.6-1.16.53"/><path class="cls-8" d="M359.53,180.63c.11-.42.4-1.07.85-1.19a2.6,2.6,0,0,1,.14.51c0,.06.2,0,.22,0a1.19,1.19,0,0,1-.12.61c-.33.89-1.34,1.13-1-.1"/><path class="cls-8" d="M359.5,185.29s0,.09-.05.13a2.11,2.11,0,0,1,.67-1.37c0,.14.13.3.12.45l.14-.07a1.3,1.3,0,0,1-.38,1.32c-.34.24-.75.06-.5-.46"/><path class="cls-8" d="M362,182.89c-.08,0,0,.09-.11,0,.11-.45.46-1.39,1-1.42a.81.81,0,0,1,0,.63c.85.52-1.2,2-1,.86"/><path class="cls-8" d="M364.43,186.87s0,.13,0,.08c.12-.38.28-1.5.79-1.46.22.53.43.66.17,1.35s-1.21.62-.81-.34"/><path class="cls-8" d="M368.23,183.93s0,.08-.09.11a2.39,2.39,0,0,1,.78-1.42,1.09,1.09,0,0,1,.08.59.73.73,0,0,1,.19-.07,1.6,1.6,0,0,1-.69,1.41c-.24.09-.67.1-.58-.35"/><path class="cls-8" d="M369.16,187.44c.09-.32.22-1,.51-1.13s.54-.12.51.31a2.12,2.12,0,0,0,.21-.11c.4,1.16-1.61,2.25-1.1.54"/><path class="cls-8" d="M365.27,181.05a.5.5,0,0,0-.14.1,1.14,1.14,0,0,1,.53-.9.57.57,0,0,1,.15.55s0,0,.08,0c.05.3-.19,1.32-.63,1.3-.68,0-.25-.93-.05-1.16"/><path class="cls-8" d="M434.5,215.48a10.54,10.54,0,0,1,4.3,3,8.63,8.63,0,0,1,1.43,2.24,17.87,17.87,0,0,1,.82,2.47,14.31,14.31,0,0,1-1.55-2.07,20.07,20.07,0,0,0-1.5-1.94C436.93,217.88,435.69,216.78,434.5,215.48Z"/><path class="cls-8" d="M429,239.5c-.13-.28-.45-.42-.69-.64a5.29,5.29,0,0,1-.71-.71,9.17,9.17,0,0,1-1.08-1.67,14.58,14.58,0,0,1-.78-1.8,10.3,10.3,0,0,1-.44-2,10.6,10.6,0,0,1,2.06-7.48c-.18,1.29-.38,2.52-.48,3.73a17.72,17.72,0,0,0,0,3.57,19.12,19.12,0,0,0,.78,3.49,16.77,16.77,0,0,0,.59,1.73,7,7,0,0,0,.38.84A2,2,0,0,1,429,239.5Z"/><path class="cls-8" d="M377,224.34a11.08,11.08,0,0,1,.64-1.33,7.43,7.43,0,0,1,.76-1.1,6,6,0,0,1,1-1,3.41,3.41,0,0,1,1.38-.71,4.66,4.66,0,0,1-.38,1.48,4.72,4.72,0,0,1-.75,1.23,4.5,4.5,0,0,1-1.11,1A2.62,2.62,0,0,1,377,224.34Z"/><path class="cls-1" d="M490.07,176.88c-1.36.83-3.35.64-4.84.5-3.55-.34-8.1-1-10.67-3.8-.78-.85-1.74-2.66-1-3.75s2.63-.77,3.77-1.08c-.46-.53-1.53-.6-2.18-.83-2.19-.77-5.72-2.91-5.6-5.73.11-2.64,2.69-1.9,4.46-1.51-1.77-2-3.31-3.87-3.41-6.69-.06-1.59.12-4.14,2.1-4.16,3.36,0,4.11,3.55,6,5.42,0-2.36,1.12-5.34,3.5-2.65,2,2.21,1.65,5.29,2.81,7.81.11-1.2.79-2.69,2.16-2.72,2,0,2.93,2.12,3.53,3.62C492.6,165.87,491.85,171.16,490.07,176.88Z"/><path class="cls-12" d="M489.29,176.19c.17-.11-1.37-1.76-1.68-2.15-1.43-1.82-2.82-3.64-4.17-5.52a156.76,156.76,0,0,1-9.17-14.24"/><path class="cls-12" d="M476.42,171.9c3.13,1,7.12,1.94,10.47,1.45"/><path class="cls-12" d="M487.69,162.42c-.32,1.6-.05,3.3-.36,4.93a40.33,40.33,0,0,1-1,5"/><path class="cls-12" d="M472.84,163.33c2.78,1.19,5.82,2.57,8.91,2.4"/><path class="cls-12" d="M481.11,155.14a24.13,24.13,0,0,1,.69,5.92c-.06,1.15-.12,3.27-.69,4.25"/><path class="cls-13" d="M300.94,83.69a5.94,5.94,0,0,1-2.4-2.1,2.62,2.62,0,0,1,0-2.14,5,5,0,0,1,1-1.59,20.64,20.64,0,0,0-3.43-.31c-1.57,0-2.26,1.45-2.76,2.77a4,4,0,0,0,.51,4.25,3.87,3.87,0,0,0,2.25,1.32c.72.2,1.76.59,2.47.21s1.24-1,1.93-1.44a11.83,11.83,0,0,1,1.13-.42c-.25-.57-1.75-1.07-2.14-1.36"/><path class="cls-13" d="M254.41,77.92c-1.4,2.5-2.78,4.92-4,7.53-.17.39-.49,1.8-.83,2s-1.16-.17-1.33-.36c-.46-.54-1.31-1.31-1.39-2-.2-1.7,1-7.07,1.54-9.27.4-1.55,1.06-1.85,2.82-2.26,2.11-.49,3.43,1.18,3.58,3.18"/><path class="cls-5" d="M286.41,62.23a7.56,7.56,0,0,0-1.41.08,11.81,11.81,0,0,1-3.2-.69c-4-1.13-7.64-3-11.48-4.45-6.86-2.64-13.36-5-20.84-4.38-10.61.83-12.79,14.4-14.74,22.68-.47,2-1.18,4.18-.81,6.21,1.09-.18,2.12.45,3.16.39s1-1.08,1.86-1.7c1.48-1,2.51-1.25,4-2.15a15.6,15.6,0,0,0,2.82-2.31,4.86,4.86,0,0,0,1.4.6,57.08,57.08,0,0,1,5.67,2.17c4.84,1.94,9.79,3.31,14.74,4.88a61.11,61.11,0,0,0,8.08,1.61,29.56,29.56,0,0,0,8.8.5c7-.93,13.05-4.07,18.57-8.42.47-.37,1.89-1.36,1.86-2.09,0-.19-.16-.29-.24-.45a17.53,17.53,0,0,0-2.19-2.47,61.39,61.39,0,0,1-4.81-6.73c-.67-1.08-1.46-3-2.67-3.59a2.82,2.82,0,0,1-2.57,1.14C290.3,63,288.26,62,286.41,62.23Z"/><path class="cls-7" d="M239,80.19c-1,2.6-2.89,5.11-3.26,8-.13,1,1,3.89-1,2.67s-1.75-3.66-1.59-5.54c.11-1.28.21-6.21,1.32-6.86a3.4,3.4,0,0,0,.46,1.41c.25-.3.61-1.17,1.1-1.19.68,0,.53,1,1,1.3S238.76,79.44,239,80.19Z"/><path class="cls-7" d="M251.17,83.54c-1.49,4.3-1.52,5.7-1.51,7.65,0,.68,1.2,3,0,3-1.55,0-2.68-2.88-2.76-4.47-.09-1.79-.31-5.86.48-6.75.41.52.19,1.19.48,1.73C249.06,83.92,250,82.2,251.17,83.54Z"/><path class="cls-5" d="M289.35,94.43c-.15-1.76.52-4,.87-5.7.42-2.16,1.46-4.11,2-6.16a18.43,18.43,0,0,0-2.08.35l-2.65.44a11.06,11.06,0,0,0-2.09.26c-.4.18-.34-.07-.58.29-.38.56-.11,2.37-.07,2.93a42.68,42.68,0,0,0,.62,6c.2.88.73,2.89,1.52,3.43,1.58,1.09,2.1-.92,2.42-1.82"/><path class="cls-7" d="M299.52,82.88a25.7,25.7,0,0,1,7.31,5.28c1.13,1.16,1.77,2.94.63,4.31s-1.76-.19-2.08-1.15c-.4-1.2-1.69-1.93-2.76-2.53-1.52-.87-3.09-1.46-4.65-2.23a27.37,27.37,0,0,1-3.44-1.47c.21-.17,1.16,0,1.38-.22s-.06-.55.58-.81c.27-.11,1.4.13,1.64,0,.44-.28-.55-1.11-.07-1.27C298.79,82.53,299,82.88,299.52,82.88Z"/><path class="cls-6" d="M304.27,45.31s0,.07.07.06a3.64,3.64,0,0,0-.28-1.95,22.43,22.43,0,0,0-1.36-3.28,30.76,30.76,0,0,0-3.13-4.81c-1.55-2-3.4-4.37-5.86-5.27a3.51,3.51,0,0,0-3.46.33A6.39,6.39,0,0,0,288.78,33a20.8,20.8,0,0,0-1,10.87c.6,2.76,1.27,6.63,4.19,7.79,2.31.93,5.18.24,7.42-.66A7.51,7.51,0,0,0,304,46.15"/><path class="cls-7" d="M305.31,43.88c.19-.72-.44-1.76-.8-2.44a41.31,41.31,0,0,0-4.29-6.76c-2.08-2.54-5.45-5.89-9-5.93-3.07,0-3.65,3.82-3.95,6.51a22.12,22.12,0,0,0-.16,5c.1.93.2,2.22.39,3.13a28.37,28.37,0,0,0,2.4,7.71c.1.2,1.06-.67,1.06-.67s-1.43-3-1.67-3.65c-1.61-4.11-2.24-9.74-.15-13.84,3.78-7.44,12.75,7.45,13.08,11.48a7.25,7.25,0,0,0,2.1-.37C304.84,43.91,305.52,43.91,305.31,43.88Z"/><path class="cls-10" d="M300.58,43.7a2.51,2.51,0,0,1-1-.63c-1.34-1.1-3-2.67-4.85-2.61,0,.81.51,1.63.4,2.45-.42-.1-1.06-.45-1.41-.07q.11.46.24.93c-1.08.76-1.56.56-1.33,2.11.06.43.11,1.26.6,1.43s1.35-.5,1.7-.72c1-.58,1.9-1.1,2.89-1.62.69-.36,2,.1,2.74,0C301.14,44.85,301,44.16,300.58,43.7Z"/><path class="cls-6" d="M332.28,65.44a9.1,9.1,0,0,0,6.82-2A21.9,21.9,0,0,0,346.2,54c.94-2.36,1.92-6.23-1.21-7.21-4.85-1.52-9.75.39-13.47,3.68a13,13,0,0,0-4.29,9.67,6.76,6.76,0,0,0,2.14,5C330,65.68,331.48,66.56,332.28,65.44Z"/><path class="cls-7" d="M328,51.51a13.26,13.26,0,0,1,3.34-2.45c2.54-1.63,5.56-3.25,8.56-3.57,2.24-.24,7.73-.48,8.12,2.65.35,2.73-1,5.78-2.27,8.11a24.45,24.45,0,0,1-6.85,8c-.63.45-6,3.38-6.17.81,2-.5,3.81-.32,5.69-1.61a16.21,16.21,0,0,0,4.48-5c1.37-2.21,6.2-9.19,2-10.55-4.75-1.53-9.82,1.07-12.76,4.88-.56.73-1.1,1.46-1.63,2.2-.1.14-.36.62-.53.68C329.21,55.93,328.1,52.51,328,51.51Z"/><path class="cls-10" d="M331.35,55.67c1.28-.28,3.74-.18,4.47,1-.52.45-1.36.53-1.93.86.39.38,1.63.87,1.29,1.54-.12.24-.64.07-.76.35s.4.51.46.6c.72,1.18.95,1.72-.19,2.59a7.48,7.48,0,0,1-1.36.87,11.85,11.85,0,0,1-.64-2.07A20,20,0,0,0,331,57.77C330.25,56.52,330.36,55.17,331.35,55.67Z"/><path class="cls-6" d="M295.73,50.38a24.29,24.29,0,0,1,4,0,76.65,76.65,0,0,1,8,.13c7.61.74,14.93,3.7,19.57,10a63.52,63.52,0,0,1,5.55,8.27c.5.88,2.35,5.43,3.1,6.12s2.45,1.4,3,2.45c-.84,0-1.74-.4-2.54-.18a9.62,9.62,0,0,1,3.67,2.33c-.51.57-2,.25-2.69.26-1.15,0-3.47-.35-4.37.45a10.88,10.88,0,0,0,2.67,1.56c-1.3.74-3.73,0-5.14,0a56.85,56.85,0,0,0-6.65.33c-3.19.26-6.38.37-9.57.8a27,27,0,0,1-8.88-.64,8.91,8.91,0,0,1-2.73-1.46,53,53,0,0,1-7.27-5.27c-2.77-2.41-5.35-5-8.16-7.38-1.77-1.49-3.75-2.72-5.58-4.13a20.52,20.52,0,0,0-3.28-2.29c1-.34,2.15,0,3.19,0A6.89,6.89,0,0,0,276.8,59c1.56-.24,3.27-.13,4.78-.46a6.71,6.71,0,0,1-1.77-.9,31.69,31.69,0,0,0,6.54-2.87,55.06,55.06,0,0,1,5.46-2.94A16.55,16.55,0,0,1,294,51C294.47,50.84,295.48,50.76,295.73,50.38Z"/><path class="cls-5" d="M332.49,68.86A7.89,7.89,0,0,0,329.16,66a9.13,9.13,0,0,0-6-.78A16.26,16.26,0,0,0,315,68.74c-2.29,2-3.51,4.93-4.63,7.73-.23.58-.29,1.23-.88,1.25a11.39,11.39,0,0,1-1.65-.55c-.89-.17-1.13,0-1.1-.91,0-1.3.24-2.57.19-3.89a40.45,40.45,0,0,0-.73-5.12,16.9,16.9,0,0,0-3.88-8.41c-3.75-4-10.18-6-15.28-4.49a31,31,0,0,1,5.57-6.09A23.67,23.67,0,0,1,306,42.06c6.11-.56,12.45.7,17.27,4.61,3.76,3,7.38,7,8.81,11.84a60.17,60.17,0,0,1,1.73,7.25c.16,1,.83,5.1.49,6.08A12.85,12.85,0,0,0,332.49,68.86Z"/><path class="cls-7" d="M308.65,79c.86-.22,3.38-.26,3.21-2-.14-1.38-3.22-2.31-4.36-2.54-.86-.18-2.38-.07-2.47,1.11-.07.86.9,2,1.5,2.46A3.35,3.35,0,0,0,308.65,79Z"/><path class="cls-8" d="M322,56.15c.2-.45,1-1.89.65-2.58-.11.13-.38.27-.48.45-.07-.05-.11-.1-.17-.15-.28.43-1.57,2.79-.27,2.71"/><path class="cls-8" d="M317.3,57.13c0-.6.42-1.39.42-2.09-.53.57-.84.4-1.2,1.2-.14.32-.37,2.14.5,1.13"/><path class="cls-8" d="M315.64,52.2a3.33,3.33,0,0,0,.67-2.17c-1-.43-1.83,1-1.75,1.95.05.55.53,1,1,.38"/><path class="cls-8" d="M312.77,55.36a6.8,6.8,0,0,0,.44-1.92,2.46,2.46,0,0,1-.54.05,2.41,2.41,0,0,0-.73,1.48c0,.15-.18.47-.08.62.26.39.78.08.91-.23"/><path class="cls-8" d="M309.8,51a3,3,0,0,0,.72-1.89,2.13,2.13,0,0,0-.27.07c-.16-1.3-1.1.8-1.17,1.16s.1,1.75.58.79"/><path class="cls-8" d="M306.34,51.94c0-.56.41-1.27.39-1.9a3.18,3.18,0,0,0-.37.18,1.48,1.48,0,0,0-.14-.25,2.63,2.63,0,0,0-.67,1.85c.21.65.76.45.88-.3"/><path class="cls-7" d="M289.2,93.38a2.43,2.43,0,0,1,.13,1.3,25.24,25.24,0,0,0,.1,4.19c.25,2.64,2.44,4.67,1.26,4.88-2.45.45-3.48-2.94-4-4.12a33.39,33.39,0,0,1-1.48-6.76c.34.18,1.09,1.09,1.4,1.3.27-.31.23-.74.5-1,.16.22.31.51.45.72C287.93,93.36,288.87,92.56,289.2,93.38Z"/><path class="cls-5" d="M247.18,57c.21-3.8-2.7-8.19-4.94-11.08-6.55-8.45-16.94-16.43-27.87-12-3.45,1.4-6.64,3-10.46,2.73-4.62-.36-8.75-3.23-12.25-6.1a28,28,0,0,1-7.49-10.18c-.37-.83-.72-3-1.65-3.37-2.09,2.23-3.23,6.12-3.67,9a20,20,0,0,0-.15,6.69,47.82,47.82,0,0,0,1.69,5.07c-1.59-.42-2.74-2.32-4-3.24.79,7.94,8.44,13.62,13.84,18.59a11.88,11.88,0,0,1-2.15-.89c-.07,3.13,5.6,6.79,7.82,8.16a16.92,16.92,0,0,0,13.5,1.89c3.74-1.06,7.87-2.21,11.19-4.3C226.39,54.28,232.46,47,240,52c3.14,2.07,2.63,5.56,3.83,8.59C245,59.85,247.41,57.85,247.18,57Z"/><path class="cls-6" d="M210.62,35.38a15.44,15.44,0,0,1-6.71,1.2c-4.62-.36-8.75-3.23-12.25-6.1a28,28,0,0,1-7.49-10.18c-.37-.83-.72-3-1.65-3.37-2.09,2.23-3.23,6.12-3.67,9a20,20,0,0,0-.15,6.69,47.82,47.82,0,0,0,1.69,5.07c-1.59-.42-2.74-2.32-4-3.24.79,7.94,8.44,13.62,13.84,18.59a11.88,11.88,0,0,1-2.15-.89c-.07,3.13,5.6,6.79,7.82,8.16a16.74,16.74,0,0,0,6.54,2.36,2.4,2.4,0,0,1-1.4-.84c-.87-1.16.42-2.45,1.38-2.92A2.58,2.58,0,0,1,200,57.36c-.81-2,1.33-2.5,2.58-3.44-1.83.57-4.41-.76-3.72-3,.74-2.38,4.66-2.91,6.51-4-3.83-1.17.27-4.07,2.32-5C204.27,40.79,208,35.55,210.62,35.38Z"/><path class="cls-8" d="M247.07,53.11a20.59,20.59,0,0,1-2.27,1.11,24.24,24.24,0,0,0-2.2,1.13,3.81,3.81,0,0,1,1.93-1.74A5.66,5.66,0,0,1,247.07,53.11Z"/><path class="cls-6" d="M284.68,85.64a12.73,12.73,0,0,1,.1-2.83,33.88,33.88,0,0,1-7.8-.29,108.15,108.15,0,0,1-12.33-2.63,40.24,40.24,0,0,1-9.56-3.53,27.56,27.56,0,0,1-5.23-3.28c-1.13.86-2.73,2.49-4.05,2.83a92.57,92.57,0,0,0,17.12,6.77c3.68,1,6.22,1.5,10,2.28A37.77,37.77,0,0,0,284.68,85.64Z"/><path class="cls-8" d="M252.09,69s0-.06,0-.06,0,0,0,.06v.17a2.11,2.11,0,0,1-.05.35,5.35,5.35,0,0,1-.15.64,7.57,7.57,0,0,1-.46,1.23,8.55,8.55,0,0,1-1.47,2.2,8.11,8.11,0,0,1-2.09,1.64,9.36,9.36,0,0,1-2.46.92,12.14,12.14,0,0,1,1.68-2l1.64-1.73,1.61-1.78.84-.92.46-.46.22-.22L252,69s0-.06.13,0S252.1,69,252.09,69Z"/><path class="cls-7" d="M299.39,64.52c.44-1.23-1.43-1.74-2.34-1.37-1.35.53-2.38,4-1.38,5.1s3.3.23,3.88-1A2.56,2.56,0,0,0,299.39,64.52Z"/><path class="cls-7" d="M323.13,70.34c.13-.14.24-.16.13-.38-2.9-1.12-4.71,4.67-1.2,4.9,1.64.11,1.89-1,2.11-2.47C324.28,71.6,324.72,69.73,323.13,70.34Z"/><path class="cls-3" d="M371.66,13.87c.23-1.77-2.77-2.32-4-1.83A2.69,2.69,0,0,0,366,15a3.19,3.19,0,0,0,2.17,2.33A2.66,2.66,0,0,0,371.66,13.87Z"/><path class="cls-3" d="M362.78,9.43C362.32,7.36,360,6.74,358,7.11a3.61,3.61,0,0,0-1.82,6c1.55,1.71,4.19,1.18,5.55-.43A4.6,4.6,0,0,0,362.78,9.43Z"/><path class="cls-3" d="M362.76,20.72a3,3,0,0,0-1.17-2.26,3.13,3.13,0,0,0-3.6,0c-1.35.77-2.39,2.07-1.91,3.7a4.2,4.2,0,0,0,2.22,2.42C360.87,25.5,363.21,22.59,362.76,20.72Z"/><path class="cls-3" d="M509.1,258.54c1.56-.88.19-3.61-.93-4.29a2.67,2.67,0,0,0-3.35.43,3.2,3.2,0,0,0-.57,3.13A2.66,2.66,0,0,0,509.1,258.54Z"/><path class="cls-3" d="M507.32,248.76c1.38-1.6.46-3.86-1-5.17a3.61,3.61,0,0,0-5.89,2.14c-.44,2.26,1.58,4.06,3.68,4.18A4.64,4.64,0,0,0,507.32,248.76Z"/><path class="cls-3" d="M498.28,255.54c.72-.35,1.06-1.6,1.1-2.3a3.12,3.12,0,0,0-2.15-2.89c-1.42-.62-3.09-.67-4.1.7a4.12,4.12,0,0,0-.6,3.22C493.32,256.89,497.05,257,498.28,255.54Z"/><path class="cls-7" d="M118.09,68a7.24,7.24,0,0,0,.57,1.52,53,53,0,0,1,8.21,8.32c1.18,1.55,2.1,3.62,3.86,4.53.83.44,2,1,2.86.2,1.25-1-.4-1.81-1.28-2.79-2.18-2.44-6.67-9.53-9-11.93C122,66.38,118.58,62.76,118.09,68Z"/><path class="cls-5" d="M117.76,68.91a18.35,18.35,0,0,1,3.08,2.44c.17-.55-.51-1.47-.08-2s.59,0,.75-.51,0-1.22.84-1.25a1.81,1.81,0,0,1,1,.18,13,13,0,0,0-1.78-2.54c-.7-.78-1.57-1.89-2.61-1.95a3.23,3.23,0,0,0-2.09,1c-.67.56-4.58-1.85-4.26-.84A69,69,0,0,0,117.76,68.91Z"/><path class="cls-14" d="M87,84.38c.26-.12.24-.77.31-1.33.23-2,.91-2.54.9-4.62,0-3.7,1.34-11.52,1.06-14.19-4.1-1.36-6.33,8.67-6.94,11.86-.48,2.5-.73,5.22.75,7.64C84.13,85.47,86.57,86.88,87,84.38Z"/><path class="cls-7" d="M83,84.57c0-.12-.12.07,0,.53a43.09,43.09,0,0,1,2.07,6.3,23.89,23.89,0,0,0,2.05,5.46c1.36,2.55,4.33,2.5,3.24.13-2.06-4.48-1.53-7.76-2.09-11.41-.48-3.14,0-4.29-.22-7.36-.33,1.9-.92,2-1.52,3.72-1.44-1.42-1.33.06-1.93,1.17-.16-.21-.56-.27-.72-.44A9.66,9.66,0,0,0,83,84.57Z"/><path class="cls-5" d="M115,31.41c-.78-.14-1.5-.7-2.32-.9a33.84,33.84,0,0,0-6.41-.6c-8.65-.25-16.75.89-23.7,5.87a31.77,31.77,0,0,0-12.65,18,70.31,70.31,0,0,0-2.24,12.86c-.43,7.46,2.19,14.44,4.44,21.63a37.87,37.87,0,0,0,2.49,5.15c1.76,1.92,3.55,0,6-1.15.39-3,2-6.26,2.93-9.11,1.13-3.34,3.37-5.66,4-9.22,1-6.1,7.25-9.06,12.79-10.64a19.83,19.83,0,0,1,10.4,0c1.53-.94,2.15-3.08,3-4.67a33.33,33.33,0,0,0,3.91-19.37C117.47,38,118,32,115,31.41Z"/><path class="cls-8" d="M84.11,60.7A9.77,9.77,0,0,1,87.91,66a15.62,15.62,0,0,1,.57,6.62,16.69,16.69,0,0,1-.76,3.27,18.21,18.21,0,0,1-1.39,3c-1.06,1.9-2.26,3.62-3.27,5.53a29.21,29.21,0,0,1,2.17-6.07,20.76,20.76,0,0,0,1.68-5.92,17.46,17.46,0,0,0,.15-3.07,15.56,15.56,0,0,0-.34-3A12.72,12.72,0,0,0,84.11,60.7Z"/><path class="cls-7" d="M73.19,90.82a58.47,58.47,0,0,0,2.64,8.27,37.53,37.53,0,0,0,3.94,7.6c.86,1.21,2.07,3,3.56,3.32.79.18,1.29-.29,1-1.36a9.19,9.19,0,0,0-1.32-2.19,13,13,0,0,1-1.64-4.12,31.77,31.77,0,0,1-.57-6c0-2,.78-4.47.23-6.46-.49.52-.64,1.5-1.45,1.69-.59-1-.68-1.18-1.37-1.17-.15,0-.27.57-.56.58-.55,0-.68-.63-1.15-.81-1.46-.54-.58.95-1.85,1.2C74.12,91.43,73.55,90.55,73.19,90.82Z"/><path class="cls-7" d="M129.55,64.34c0-.11,1.5,1.79,1.71,1.85A16.86,16.86,0,0,1,135,70.75c1,1.59,2.12,4,4,4.66,2.59.9,1.75-1.55.8-2.93-1.83-2.67-3-6-5.29-8.3-.81-.81-2.79-2.1-3.91-1.92C128.91,62.53,128.11,63,129.55,64.34Z"/><path class="cls-5" d="M70.26,61.62A24.51,24.51,0,0,0,67.34,58a40.67,40.67,0,0,0-5.9-6.39c-6.26-5.14-15.27-7-22.25-5.2-8.73,2.26-14.31,10.58-15,20-.3,4.25.52,8.61.78,12.9a35.32,35.32,0,0,1-1.39,13.1c-1.43,4.39-4.8,10.12-9.73,10.16A9.33,9.33,0,0,1,4.67,94.8c-2.3,1.18.34,7.81,1.22,9.4,1.3,2.36,3.18,4.62,5.6,5.6,1.33.54,3.39.5,4.53,1.26-1.09.8-2.69.74-3.89,1.35,3.88,3.91,8.63,2.32,12.91,1.76-1.08,1.19-3.43,2.27-.29,2.8,3,.51,5.76-.07,8.58-.6,5.61-1.06,10-4.57,13.7-8.91A30.47,30.47,0,0,0,54.1,92.12a36.76,36.76,0,0,0,.25-9.56c-.23-2-.94-4-1.17-6-.49-4.12,0-9.2,3.39-11.38A9.17,9.17,0,0,1,63.86,64a10.39,10.39,0,0,1,2.42,1.12c.8.44,2.48,2.2,3.23,2.19C71.12,67.31,70.94,62.94,70.26,61.62Z"/><path class="cls-6" d="M54.1,92.12A30.47,30.47,0,0,1,47,107.46c-3.74,4.34-8.09,7.85-13.7,8.91-2.82.53-5.59,1.11-8.58.6-3.14-.53-.79-1.61.29-2.8-4.28.56-9,2.15-12.91-1.76,1.2-.61,2.8-.55,3.89-1.35-1.14-.76-3.2-.72-4.53-1.26-2.42-1-4.3-3.24-5.6-5.6C5,102.61,2.37,96,4.67,94.8a9.33,9.33,0,0,0,9.19,7.69c4.93,0,8.3-5.77,9.73-10.16A35.32,35.32,0,0,0,25,79.23c0-.69-.1-1.39-.16-2.08.95,1.76,1.57,5.36,3.82,3.76.16,1.79,1.24,5.24,3,6.14,2.19,1.15,3.48-1.33,4-3.06.61,2.05,2.16,5.27,4.41,5.75,1.64.35,3.58-1.43,4.06-2.93,1,4.68,4.93,5,6.47.66.2.88,2.28,3.85,3.09,2.29.1-.18.21.53.4.46A3.93,3.93,0,0,1,54.1,92.12Z"/><path class="cls-8" d="M67.65,66.35a6.23,6.23,0,0,1-.49-1.88,8.44,8.44,0,0,1,0-1.88,7.52,7.52,0,0,1,.46-1.84,4.83,4.83,0,0,1,1-1.67,10,10,0,0,1,.18,1.9,13.48,13.48,0,0,1-.1,1.8,11.16,11.16,0,0,1-.34,1.78A6.35,6.35,0,0,1,67.65,66.35Z"/><path class="cls-6" d="M136.76,24.35c-.14,0-.25-1.18-.26-1.29a10.93,10.93,0,0,1,.32-3.12,19.23,19.23,0,0,1,1.77-4.67,15.56,15.56,0,0,1,2.29-3.61,14.48,14.48,0,0,1,2.82-2.3,3.91,3.91,0,0,1,3.73-.68,4.72,4.72,0,0,1,1.86,2.11A21.49,21.49,0,0,1,151,16.4a18.31,18.31,0,0,1,.2,5.12c-.06,2,.43,4.25-.85,5.89-1.52,1.95-4.68,1.28-6.76.68a24.39,24.39,0,0,1-4-1.51A7.54,7.54,0,0,1,136.76,24.35Z"/><path class="cls-7" d="M133.64,22.46s-.06.12.09-.11c1.12-1.76,1.67-4,2.69-5.81A24.08,24.08,0,0,1,144.16,8c1.1-.67,3.14-1.65,4.24-.6.76.74,1.23,2.59,1.57,3.53,1.53,4.22,1.29,8.61,1.48,13,0,.93.73,5.21-1.33,4,1.19-3.07.79-7.44.36-10.71-.26-2-1.06-7.28-3.26-8-.89-.29-2.22.45-2.9.9a17.35,17.35,0,0,0-6.07,8.25c-.46,1.23-.53,2.64-1,3.85-.1.26,0,.59-.26.76s-1.23-.09-1.53-.1C134.64,22.91,133.72,23.24,133.64,22.46Z"/><path class="cls-10" d="M139.34,22.34c0-1.53,4-3.9,5.38-4.29.7.15-.33,1.65-.34,2.45.57,0,1.23-.89,1.49-.51a3.94,3.94,0,0,1,0,1.45c.44-.11.81.14,1.33.27.34.59-.15,4.53-.77,3.24-1.35-.11-2.73-1-4-1.45C141.37,23.13,139.36,23.14,139.34,22.34Z"/><path class="cls-5" d="M113.27,35.38c-1.42-.35-4.33.7-5.28,1.58.86.48,1.88.6,2.75,1.08-.37.17-.82.25-1.22.41a4,4,0,0,0,.84.52c-1.14.62-2.09,1.13-.91,2.24-1,1.27.08,2.4,1,.59C111.59,39.51,111.56,36.38,113.27,35.38Z"/><path class="cls-6" d="M110.51,51.32c-.33.66-3.85-2-4.38-2.39a24.48,24.48,0,0,1-4.3-3.77c-1.69-1.93-3.55-4.17-4.16-6.71a2.16,2.16,0,0,1,.07-1.75A10,10,0,0,1,99,35a5.29,5.29,0,0,1,3.13-2c2.81-.47,5.59-1.09,8.48-.45a7.84,7.84,0,0,1,5.73,5.8,9.09,9.09,0,0,1-.55,5.8,17.76,17.76,0,0,1-2.68,4.39A9.77,9.77,0,0,1,110.51,51.32Z"/><path class="cls-7" d="M117.2,32.45c-.79-.08-1.63-.42-2.44-.54a61.11,61.11,0,0,0-6.47-.53c-3.54-.12-8.36.36-10.67,3.36-3.75,4.88,3,10.87,6.55,13.64,1.17.91,3.28,3.23,4.91,3.19.78,0,1.17-.7,1.61-1.26-1.42-.7-3-.72-4.33-1.75a26.47,26.47,0,0,1-7.07-7.2c-1-1.64-1.87-4.09-.32-5.61s4.37-2,6.43-2.12a31.87,31.87,0,0,1,9.67,1.18c.46.12.92.39,1.32.17s.44-1.15.57-1.41C117.2,33.07,117.48,32.62,117.2,32.45Z"/><path class="cls-10" d="M113.64,37.45a6.33,6.33,0,0,0-2.84,0c-.9.15-2.21.21-2.81,1,.33.3,1,.24,1.35.49-.29.36-1,.45-1.4.6a3.49,3.49,0,0,0-1.55.86c-.38.38-.94.77-.38,1.14a4.25,4.25,0,0,0,2.14.26c-.25.24-1.07.79-1,1.22s.72.42,1,.49c-.2.3-.68.51-.7.93s.55.78,1,1c1.47.69,3.09-.42,4.1-1.4s2.59-2.58,2.21-4.19C114.61,39.09,114.1,37.63,113.64,37.45Z"/><path class="cls-6" d="M146.34,27c-3.14-.33-2.13-.9-5.07,0a35.92,35.92,0,0,0-10.12,5.45c-3.73,2.65-11.36,8.14-14.4,11.58C112,49.37,112.1,50.19,109.49,57c-.43,1.1-1.55,4.95-1.85,6,.55,0,1.24-.27,1.81-.08-1,1.16-2.15,2.18-3.07,3.4.87.6,3.36-.73,4.28-1s2.38-.83,3.22-.45c-.56.34-1.39,1.37-1.27,2,1.4,0,2.92-.87,4.25-1.27a32.56,32.56,0,0,1,7.22-1.08c3.1-.2,6.23.13,9.3-.39,3.9-.67,8.68-2,11.75-4.36.66-.51,1.64-1.37,2.36-1.84a26.52,26.52,0,0,0,7.73-8.25c3.05-4.81,4.5-10.44,7.63-15.19-.5-.17-1.08.32-1.6.4.25-2.18,1.92-4.67,3.13-6.41-1.5.32-2.59,1.9-3.91,2.57a8.66,8.66,0,0,1,3.11-3.79,8.92,8.92,0,0,1-6.44,1.08,13.18,13.18,0,0,1-3.49-.76c-.48-.24-2.84,0-3.33-.22A19.57,19.57,0,0,0,146.34,27Z"/><path class="cls-5" d="M107.78,62.57c0-.64.91-6.24,1-6.85a88.77,88.77,0,0,0,1.22-9.24c.4-3.09.6-6.23,1.67-9.17a27.4,27.4,0,0,1,3.13-5.94,26,26,0,0,1,8.87-7.83c2.72-1.59,6-3.43,9.28-3.28a29,29,0,0,1,4.8.33c2.8.58,5.35,2,7.92,3.24a53,53,0,0,0,8.07,3.55c1.21.35,2.47.54,3.68.86a23.06,23.06,0,0,0-2.73.65,13.49,13.49,0,0,0-4.46,3c-1.79,1.54-3.77,2.89-5,5a17.88,17.88,0,0,0-2.44,7.85,14.3,14.3,0,0,0,.47,5.12c.44,1.45,1,2.85,1.47,4.29a8.57,8.57,0,0,0-2,.83,12.88,12.88,0,0,1-1.7,1.26A16.37,16.37,0,0,0,130,48.47c-4.09-.72-8.59-.84-12.42.79a13.7,13.7,0,0,0-5.19,3.84C111.16,54.46,109.33,61.53,107.78,62.57Z"/><path class="cls-7" d="M144.37,57.66a7.15,7.15,0,0,1-3.19.15c-1.7-.59-.72-2,.19-2.82s3-2.4,4.41-2.15C147.78,53.17,145.52,57.09,144.37,57.66Z"/><path class="cls-7" d="M132.18,56.35a4,4,0,0,0-.94-1.29,7.4,7.4,0,0,0-3.54-1.86,6.66,6.66,0,0,0-4.45,1c-.55.34-2.15,1.25-1.76,2.13a30.76,30.76,0,0,0,2.89-1.29,8.92,8.92,0,0,1,3.27-.58,7.82,7.82,0,0,1,4.47,1.89C132.18,56.35,132,56.17,132.18,56.35Z"/><path class="cls-7" d="M149.12,46.55a4,4,0,0,1-.65-1.46,7.32,7.32,0,0,1,.16-4,6.59,6.59,0,0,1,3.1-3.34c.57-.32,2.15-1.25,2.73-.47-.72.74-1.77,1.19-2.56,1.86a8.9,8.9,0,0,0-2.14,2.55,7.76,7.76,0,0,0-.58,4.81C149.12,46.55,149.05,46.31,149.12,46.55Z"/><path class="cls-8" d="M120.67,35c-.39-.69-1.44-1.91-1.36-2.65,0-.33-.18-.37.22-.45s.45.18.63.35a3.31,3.31,0,0,1,1,1.8C121.17,34.41,121.1,35.34,120.67,35Z"/><path class="cls-8" d="M124.84,35.39c-.4-.33-2.07-3-.74-2.27C124.51,33.35,125.86,35.07,124.84,35.39Z"/><path class="cls-8" d="M124.64,30.64c-.17-.28-.91-1.55-.74-1.86.24-.46.65,0,.85.25a2.72,2.72,0,0,1,.64,1.52.44.44,0,0,1-.79.26"/><path class="cls-8" d="M128.56,31.15c-.32-.18-1.42-2.27-.38-2,.27.06.84,1.12.91,1.38s-.13,1.1-.57.47"/><path class="cls-8" d="M130.61,27.05a3.57,3.57,0,0,1-.85-1.86c.27,0,.51.16.62-.13a2.13,2.13,0,0,1,.85,1.49c-.1.55-.63.58-.89,0"/><path class="cls-8" d="M132.56,31.13a4.41,4.41,0,0,1-.73-1.39c.47-.63.87-.12,1.25.45.15.23.39.51.26.79s-.6.27-.77-.07"/><path class="cls-8" d="M135.13,27.56c-.47-.43-1.16-1.27-.58-1.8,1.19.16,1.31,2.39.58,1.8"/><path class="cls-7" d="M77.4,259.32c.34-.38,1-.29,1.48-.36,2.12-.31,4.29-.44,6.42-.69a46.47,46.47,0,0,1,5.66-.15,5.48,5.48,0,0,1,4.2,1.28c2.25,2.07-.72,1.8-2.15,1.64a16.29,16.29,0,0,0-3.2,0c-2.35.19-4.73,0-7.08.08-1.38,0-3.88.53-5.16-.26A.9.9,0,0,1,77.4,259.32Z"/><path class="cls-15" d="M100,249.86c-.38,2.37-1.9,4.39-3.51,6.18a47.94,47.94,0,0,1-3.63,3.64A5,5,0,0,1,91,260.89a5.3,5.3,0,0,1-3.12-.39,4.28,4.28,0,0,1-1.9-1.05,3.92,3.92,0,0,1-.61-3,22.06,22.06,0,0,1,7.19-14.26c1.76-1.56,4.4.34,5.63,1.74A7.37,7.37,0,0,1,100,249.86Z"/><path class="cls-3" d="M106.78,214.12a2.56,2.56,0,0,1,1.48,2.14,1.56,1.56,0,0,0,.2.94c.3.34.87.21,1.27,0a4,4,0,0,0,2-3.52,2.94,2.94,0,0,0-.5-1.6,2.36,2.36,0,0,0-2.52-.81,2.43,2.43,0,0,0-1.64,2.09"/><path class="cls-7" d="M109.07,217.66a4.65,4.65,0,0,1,1.65-1.18,4.41,4.41,0,0,1,2-.1,15.48,15.48,0,0,1,3,.67,4.5,4.5,0,0,1,1.81,1,1.72,1.72,0,0,1-1,3.09,4.31,4.31,0,0,1-2.06-.33,2.7,2.7,0,0,0-1.38-.26,2.37,2.37,0,0,0-1.34,1.16q-3.84,5.64-7.2,11.58c.5-.87-.25-3.94-.3-5-.09-1.52-.6-3.73-.16-5.2C104.65,221.12,107.6,219.11,109.07,217.66Z"/><path class="cls-6" d="M103.78,211c.76,1.68,4,8.16,4.53,12.94a29,29,0,0,1-1.38,12.92,6.54,6.54,0,0,1-.43-1.36,13,13,0,0,0-.59,2.27,22,22,0,0,1-1.69,4.12c-1,2-2.48,4.63-4.37,6,.2-1.45-2.32,1-2.56,1.18a14.93,14.93,0,0,1-4.38,2.86c-.1-.42.1-.62.21-1a17.41,17.41,0,0,0,.4-6.31,12.73,12.73,0,0,0-.75-3.27c-.18-.43-1.07-1.4-1.06-1.79,0-.7,1.7-1.95,2.07-2.52a28.08,28.08,0,0,0,3.75-8.47,26.27,26.27,0,0,0,.68-7.7c-.07-1.07-.63-2.28-.5-3.33.89.63-1.13-6.11-.09-6.28C100.05,210.78,101.35,211.75,103.78,211Z"/><path class="cls-5" d="M88.8,210.56c.53,8.7-3.19,12.48-5.54,16.12-1.53,2.36-3.73,4.28-5.53,6.43a79.39,79.39,0,0,0-5.28,7.48,28.58,28.58,0,0,0-4.09,13.33,13.45,13.45,0,0,0,.54,6.33c.37.84.74.84,1.56,1a29,29,0,0,0,7.77.6,28.14,28.14,0,0,0,7.19-1.11c2.39-.9,4.27-3.1,5.78-5.08A12.26,12.26,0,0,0,94,250.28a18,18,0,0,0-.78-9.93c1.64-.94,2.44-3.6,3.31-5.18,2.5-4.56,3.14-9.73,3.2-14.85,0-1.34-.5-8.13-1.41-9.2-1.31-1.52-1.8-2.37-3.65-2.87C93.26,207.87,88.46,207.81,88.8,210.56Z"/><path class="cls-8" d="M83.4,243.51a4.94,4.94,0,0,1,1.32-.75,5.47,5.47,0,0,1,1.51-.4,9,9,0,0,1,3,.25A5.73,5.73,0,0,1,92,244.15a4.45,4.45,0,0,1,1.2,2.81,10.67,10.67,0,0,0-2.1-1.76,9,9,0,0,0-2.32-.89c-.84-.22-1.72-.39-2.62-.57a11.37,11.37,0,0,0-1.31-.13Z"/><path class="cls-7" d="M99,237c-.56,3,1.29,9.79,2.22,13.17a41.24,41.24,0,0,0,2.35,7.33c.57,1.2,1.87,2.55,1.94,3.87,0,.54.24.47-.27.79a4.25,4.25,0,0,1-1.61.21,4.16,4.16,0,0,1-3.64-2.11,18.73,18.73,0,0,1-2.77-8.07c-.11-1.19-.73-2.31-.58-3.62.31-2.57-2.33-5.33-3.31-7.74C95.4,239.89,97.07,235.58,99,237Z"/><path class="cls-7" d="M72.84,260.81c.34-.38,1-.29,1.47-.36,2.12-.31,4.29-.44,6.43-.69a46.3,46.3,0,0,1,5.65-.15,5.53,5.53,0,0,1,4.21,1.28c2.25,2.07-.72,1.8-2.16,1.64a16.29,16.29,0,0,0-3.2,0c-2.35.19-4.72,0-7.07.08-1.39,0-3.89.54-5.16-.26A.9.9,0,0,1,72.84,260.81Z"/><path class="cls-5" d="M101,249.38c-.22-1.36-.44-2.09-.51-3-.11-1.46-.28-2.91-.38-4.37-.14-1.85,0-3.74,0-5.59,0-.7.93-9.22.9-10-1.22-27.64-5.17-1.93-5.46-2-.79-.15,1.45,9.69.73,10-1.35.52-2.71.77-3.53,2.11-1.71,2.83-2.12,3.63-.69,6.14a48.28,48.28,0,0,1,3,5.26c.24.72,2,4.39,2.24,5.1.14-.43-.6-3.48-.34-3.87.52-.78.49-.12,1.1-.19s.37-.89,1-1.14C99.92,247.45,100.52,249.23,101,249.38Z"/><path class="cls-16" d="M96.28,250.94c-.72-1.87-1.65-3.08-2.38-5"/><path class="cls-8" d="M68.37,254.28a7.67,7.67,0,0,0,.13,1.37l.2,1.33a25.19,25.19,0,0,1,.41,2.73,7.24,7.24,0,0,1-1.06-2.62,6.16,6.16,0,0,1-.08-1.42A2.61,2.61,0,0,1,68.37,254.28Z"/><path class="cls-6" d="M136.25,201.12a9,9,0,0,1-2.7,1.55,3.37,3.37,0,0,0,1.23,1.44,61.88,61.88,0,0,1-14.19,5.36l.87.63c-4.5,1.54-13.49,6.15-21.21,3.55-.63-.21.66-2.81.19-3.26s4.46-.71,4.27-1.5c-1.52-6.58.65-14.06,6.09-18.2a15.63,15.63,0,0,1,14.82-2.05C131.16,190.82,132,197.25,136.25,201.12Z"/><path class="cls-6" d="M66.19,199.23c-.27.12-.58.26-.68.54a1.06,1.06,0,0,0,.32,1,12.62,12.62,0,0,0,5.6,4,1.38,1.38,0,0,0-.71,1.11,54.61,54.61,0,0,0,12.4,3l-.61,1.06c6.35.84,14.18,3.74,22.53,4.33.53-6.14-3.87-14.11-4.78-20.2a3.81,3.81,0,0,0-.36-1.3,3.64,3.64,0,0,0-1.27-1.13c-5.53-3.51-5.75-12.43-12.54-12.24-4.51.12-11.12,7.83-12.67,11.78A14.78,14.78,0,0,1,66.19,199.23Z"/><path class="cls-6" d="M75.61,184.19a5.32,5.32,0,0,0,3.44,1.14c1.88-.42,3.74-3.55,5.1-4.89.72-.72,2.3-1.59,2.79-2.49.69-1.29-.55-3-1.33-3.91a62.84,62.84,0,0,0-10.35-10.46c-1.25-.93-3.1-2.17-4.5-1-1.76,1.41-2.12,3.77-2.22,5.89a21,21,0,0,0,.14,5.43,24.47,24.47,0,0,0,1.94,5.06C71.5,180.81,73.71,184.27,75.61,184.19Z"/><path class="cls-7" d="M90,177.26a6.38,6.38,0,0,1-1.08-1.12c-1.44-1.72-2.84-3.41-4.34-5.07a54.25,54.25,0,0,0-6.9-7.07c-1.78-1.37-5.22-2.78-7.25-1.16s-1.86,6.65-2,9.16a14.38,14.38,0,0,0,4.43,11.5c.81.8,5.86,5.36,7.16,2.65-6.08-1.93-10.79-8.42-10.54-14.61.07-1.89.46-6.45,3-6.81,1-.13,1.93.9,2.61,1.43a19.87,19.87,0,0,1,3.28,3.07c1.43,1.71,2.91,3.44,4.46,5,.85.87,1.68,1.74,2.6,2.54a8.46,8.46,0,0,0,1.83,1.56c.86.34,2.71-.22,3.54-.6C90.76,177.58,90.65,177.55,90,177.26Z"/><path class="cls-10" d="M86.07,176.79c.82,1.93-3.58-1-7.08.16,0,.48.47.81.5,1.3-.75.26-1.61-.12-2.32.17a4.35,4.35,0,0,0,.61.75c-.33.28-.93.32-1.25.6,1.92,1.06,1,2.16,1,3.91,1.23-.34,2.63-3,3.62-3.83a26.28,26.28,0,0,1,2-1.75C84,177.48,86.07,177.91,86.07,176.79Z"/><path class="cls-6" d="M128.59,188.18c-1.56.89-4.51-3-5.37-4.14a22.21,22.21,0,0,1-3.21-4.56c-.4-1,.28-1.95.86-2.87a21.48,21.48,0,0,1,4.19-4.92c2.24-1.91,6.49-5.91,9.77-4.25,1.51.77,1.93,2.64,2.18,4.16a17.51,17.51,0,0,1-.14,6.88,15.08,15.08,0,0,1-4.56,7.74C131.33,187.15,129.26,189,128.59,188.18Z"/><path class="cls-10" d="M121.5,180.08a19.23,19.23,0,0,1,6.79-1A25.69,25.69,0,0,0,125,181.6c.6.7,2.07.3,2.87,1a3.73,3.73,0,0,0-1.79,1.2c.34.07,1.24.17,1.35.58s-.45.63-.53,1c.8.37,1.69,1.14,1,2.13s-.95.27-1.62-.43a35.28,35.28,0,0,1-5.17-6.49C120.82,179.92,120.36,179.14,121.5,180.08Z"/><path class="cls-7" d="M117.28,178.3a27.06,27.06,0,0,1,2.14-1.89c1.25-1.08,2.29-2.39,3.52-3.5,2.79-2.53,6.05-5.9,10-6.44,5.3-.72,5.51,9.51,4.68,12.64a22.86,22.86,0,0,1-4.44,8,9.82,9.82,0,0,1-4.71,3.35c-.27-.53-.47-1.14-.71-1.69a10.8,10.8,0,0,0,6.4-5.34c1.66-3.42,3-6.6,2.57-10.49-.17-1.68-.61-4.76-2.76-5-1.34-.15-2.67.92-3.74,1.59a19.72,19.72,0,0,0-4,3.29,36.46,36.46,0,0,0-3.82,4.68,12.22,12.22,0,0,1-2.48,2.87C118.9,179.62,118.22,179,117.28,178.3Z"/><path class="cls-5" d="M107.67,210.62c-.24-.11-.07-2.27,0-2.58.39-3.79,2.25-6.95,4.43-10a16.34,16.34,0,0,1,5.71-4.9,15.32,15.32,0,0,1,7.87-1.47c1.13,0,4.12.16,3.92-.47a12.53,12.53,0,0,0-1.17-2.52,43.92,43.92,0,0,0-6.56-8.29c-3.4-3.37-8-6.76-12.65-8-9.16-2.57-17.76-.73-25.64,5.48A27.41,27.41,0,0,0,77.39,184a15.66,15.66,0,0,0-2.66,5.76c.1-.44,2.91-.81,3.35-.87a11.8,11.8,0,0,1,3.25,0c5.89.89,12.26,2.87,16.08,7.75a20.93,20.93,0,0,1,3.76,8.59c.3,1.51.81,3,0,4.34-.09.14-.54.67-.4.82.58.64-.15-.1,0,0a5.78,5.78,0,0,0,2.77,1.17C105.17,211.57,106.05,210,107.67,210.62Z"/><path class="cls-7" d="M105,213.58c.73-.17,4.09-1.21,3.83-2.83-.17-1.08-2.18-1.4-3-1.57a8.13,8.13,0,0,0-3.4-.09c-.94.21-2.72.89-1.92,2.15C101,212,103.58,213.83,105,213.58Z"/><path class="cls-8" d="M109.86,181c0-.5.25-2.14-.33-2.67,0,.16-.26.39-.29.6l-.22-.08c-.11.51-.49,3.2.73,2.65"/><path class="cls-8" d="M105.68,183.62c-.23-.56-.11-1.46-.36-2.12-.3.73-.67.68-.72,1.56,0,.36.43,2.16.89.89"/><path class="cls-8" d="M102.27,179.58a3.32,3.32,0,0,0-.15-2.29c-1.14,0-1.39,1.6-1,2.47.24.5.88.78,1.1,0"/><path class="cls-8" d="M100.67,183.59a6.56,6.56,0,0,0-.28-2,2.5,2.5,0,0,1-.5.25,2.32,2.32,0,0,0-.16,1.66c0,.14,0,.51.14.61.4.27.79-.2.8-.55"/><path class="cls-8" d="M96.21,180.53a3,3,0,0,0,0-2l-.24.16c-.63-1.16-.76,1.15-.69,1.52s.73,1.61.84.53"/><path class="cls-8" d="M93.23,182.7c-.22-.52-.07-1.34-.32-1.93a4.11,4.11,0,0,0-.29.31,1.21,1.21,0,0,0-.23-.18,2.54,2.54,0,0,0,0,2c.44.55.89.16.74-.59"/><path class="cls-11" d="M98.83,213.57c1.06.17,2,.39,3.06.54s2,.26,3.07.43a6.59,6.59,0,0,1-3.18.22A6.52,6.52,0,0,1,98.83,213.57Z"/><path class="cls-7" d="M83.7,201c-.14,0-.15-.11-.3-.06a6.36,6.36,0,0,0,6.68,5.33,6,6,0,0,0,4.28-2.72c-1.68.67-3.69,1.49-5.74,1.07C87.05,204.3,85,202.52,83.7,201Z"/><path class="cls-7" d="M121.34,201.73c.12,0,.13-.09.26,0a5.64,5.64,0,0,1-5.92,4.73,5.35,5.35,0,0,1-3.8-2.41c1.49.59,3.28,1.32,5.1.94C118.37,204.65,120.22,203.07,121.34,201.73Z"/><path class="cls-5" d="M40,260.74c-8.56-2.62-16.64-8.56-19.32-17.09-2.45-7.79-.13-16.46-2.56-24.25-2.2-7-7.66-12.19-14.14-15.69,10.71-5.17,23.49-3.26,32.94,4,0-.79.36-2.33.34-3.12,4.79,2.44,6.94,8,8.69,13.1a5.82,5.82,0,0,0,.68-2.71c1.25.23,1.78,1.7,2.07,2.94q1.35,5.87,2.25,11.81a57.79,57.79,0,0,0,2.15,10.54,15.67,15.67,0,0,0,6.33,8.45c3.09,1.83,7.31,2,10.13-.24-.18.15.07,5,0,5.58-.1,1,3.13-.65,2.61.25-1.33,2.31-8.73,6.3-11.1,6.94A38.54,38.54,0,0,1,40,260.74Z"/><path class="cls-6" d="M18.6,231.08c0-7.43-1.52-15.19-6.26-20.91-1.89-2.28-5.94-3.82-7.82-4.69a1.33,1.33,0,0,1-.2-2.3,17.21,17.21,0,0,1,4.07-2.28,23.3,23.3,0,0,1,6.37-1.56c7-.47,13.5,2.15,19.34,5.65a4.68,4.68,0,0,0,.4-2.45c5.07,1.54,8.29,6.38,11.09,10.88l1.13-1.63c2.54,6.1,4.81,12.25,4.36,18.84-1.46-1.15-2.4-3.22-5.39-2.87-1.89.21-3,2.09-3.55,3.9a4.47,4.47,0,0,0-8.75.14,4,4,0,0,0-3.95-2.42,4.45,4.45,0,0,0-2.87,1.38c-1.29,2.07-1,4.38-1.21,6.81-.32-1.35-2.49-1.89-3.73-1.27s-1.53,1.48-1.82,3.27C18.6,236.63,18.6,232.38,18.6,231.08Z"/><path class="cls-5" d="M236.85,208.58c.61-2.28,2.52-4.51,4.11-6.17A26.37,26.37,0,0,1,245.9,199a46.48,46.48,0,0,1,7.46-3.75A50.72,50.72,0,0,1,272,191.68c6.56-.05,13.11.16,19.45,2.08,12.06,3.66,22.27,15.31,22.2,28.34a22.15,22.15,0,0,1-.31,3.63,71.74,71.74,0,0,1-3.27,12c-.5,1.44-1.35,4.1-2.86,4.31a33.64,33.64,0,0,1-4.49,0c-3.49,0-7-.32-10.49-.1-8.86.57-16.58,5.11-24.81,8-2.2.76-4.5,1.06-6.7,1.83-1.4.48-2.71,1.14-4.09,1.64a7.2,7.2,0,0,1-3.88,0c-2-.36-3.91-1-5.9-1.3s-3.72-.2-5.56-.53a14.87,14.87,0,0,1-7.14-3.84c-2.44-2.29-2.83-6-3.24-9.2a49.62,49.62,0,0,1,.68-15.66c1.06-5.51,3.54-10.49,6-15.5"/><path class="cls-7" d="M239.38,250c-1.89,0-3.78,0-5.66.09a8.7,8.7,0,0,1-3.77-.26,1.5,1.5,0,0,1-.71-2.49c1-1.51,3.08-1.77,4.78-1.59,2.2.24,4.07,1.47,6.28,1.7a2.92,2.92,0,0,1,1.55.4c.58.43.67.83.26,1.4-1.07,1.49-3.47,1.12-4.92.75"/><path class="cls-5" d="M309.27,239.63c-.21,2.15-2.09,4.61-3.18,6.41-2.1,3.46-6,6.42-9.48,8.29a96,96,0,0,1-16.23,6.83A44.33,44.33,0,0,1,269,262.71c-1.33.07-2.68,0-4,0a6.82,6.82,0,0,1-2.56-.11c.68-.46,1.27-1.09,1.95-1.51-2.36-.25-4.74.26-7.13-.18a21.36,21.36,0,0,1-8.91-3.77,10.12,10.12,0,0,0,2.41-.9c-3.08-.2-5.81-.4-8.66-1.88a17.21,17.21,0,0,1-4.17-3c-.44-.44-2.43-2.42-2.34-3.09.13-.95,2.73-.16,3.41-.11a52,52,0,0,0,11.43-.13c6.19-.87,10.81-5.52,15.64-9.07a34.52,34.52,0,0,1,25-6.08c4.18.52,8,2.91,11.44,5.24a3.81,3.81,0,0,0,1.47.72c1.32.29,1.47-.13,3.23.17a6.78,6.78,0,0,1,2,.57"/><path class="cls-5" d="M270.25,236.4a35.59,35.59,0,0,1,20.87-3.47c4.18.52,8,2.91,11.44,5.24a3.81,3.81,0,0,0,1.47.72c1.32.29,1.47-.13,3.23.17a6.78,6.78,0,0,1,2,.57"/><path class="cls-6" d="M281.26,260.88l-.88.28A44.33,44.33,0,0,1,269,262.71c-1.33.07-2.68,0-4,0a6.82,6.82,0,0,1-2.56-.11c.68-.46,1.27-1.09,1.95-1.51-2.36-.25-4.74.26-7.13-.18a21.36,21.36,0,0,1-8.91-3.77,10.12,10.12,0,0,0,2.41-.9c-3.08-.2-5.81-.4-8.66-1.88a17.21,17.21,0,0,1-4.17-3c-.44-.44-2.43-2.42-2.34-3.09.13-.95,2.73-.16,3.41-.11a52,52,0,0,0,11.43-.13c6.19-.87,10.81-5.52,15.64-9.07a31.5,31.5,0,0,1,4.17-2.61c-.17,0-.16,0-.5.18-.92,1.47-1.51,3.59.64,4.22-1.23.29-3.07,2.12-2.87,3.42.36,2.36,3.85,1.6,5.46,2.09-.47.86-2.13,1.59-2,2.88.17,1.67,2.47,1.17,3.5,2.06a2.63,2.63,0,0,0,.37,4.63c1.47.78,3.49.05,4.79.95C278.15,258.27,279.56,260.34,281.26,260.88Z"/><path class="cls-5" d="M309.27,239.63c-.21,2.15-2.09,4.61-3.18,6.41-2.1,3.46-6,6.42-9.48,8.29a95.22,95.22,0,0,1-15.35,6.55"/><path class="cls-8" d="M293.66,215.61a11.64,11.64,0,0,0-6.34.64,8.07,8.07,0,0,0-4.48,3.92,19.52,19.52,0,0,0-1.3,2.9,29.19,29.19,0,0,0-1,3.05,13.86,13.86,0,0,0-.3,3.17c0,1.08.16,2.18.15,3.32a32.81,32.81,0,0,1-.92-3.24,11.69,11.69,0,0,1-.14-3.45,10.55,10.55,0,0,1,.33-1.71c.14-.54.29-1.08.46-1.63a17.91,17.91,0,0,1,1.34-3.18,9.86,9.86,0,0,1,2.28-2.76,8.3,8.3,0,0,1,3.2-1.56A9.34,9.34,0,0,1,293.66,215.61Z"/><path class="cls-6" d="M224.43,226.76c-1,.49-3.85-.87-5-1.45a18.56,18.56,0,0,1-4.92-4.12c-2.54-2.83-5-7.61-2.24-11.14,2.48-3.17,8.3-1.68,11.17-.07a18.86,18.86,0,0,1,5.7,4.28c1.66,2,1.6,4.81,1,7.25a10,10,0,0,1-3.3,5.5C226.28,227.5,224.36,228.36,224.43,226.76Z"/><path class="cls-7" d="M231.83,213.84c-1-.82-2.39-1.48-3.48-2.29a23.32,23.32,0,0,0-4.46-2.63,21.63,21.63,0,0,0-6.09-1.73c-1.77-.18-4.45-.31-5.66,1.2-3.38,4.19.38,11.09,3.48,14.11,1.69,1.64,5.23,4.87,7.84,4.93a2.52,2.52,0,0,0,1.6-.6,19,19,0,0,1-9.94-7c-1.52-2.13-4.31-8.24-1-10.18,2.81-1.64,7.55,1,10,2.31,1.77,1,4.78,2.45,5.42,4.53C230.08,215.89,232.26,214.06,231.83,213.84Z"/><path class="cls-10" d="M229,216.21c-1.36-1.45-5.21-1.16-6.75-.29.5.28,3.84,1.32,3.7,2.18s-2.24.82-2.61,1.87a8.48,8.48,0,0,1,1.34.8c-1.25.92-3.26.9-2.17,3.12.17.34,1,1.62,1.39,1.59.71-.06,2.55-4,2.93-4.53C227.71,219.77,229.23,218.05,229,216.21Z"/><path class="cls-6" d="M269.6,215.06c1.12.06,3.23-2.27,4-3.23a19,19,0,0,0,3-5.68c1.27-3.59,1.73-9-2.17-11.16-3.51-2-8.32,1.61-10.36,4.19a18.94,18.94,0,0,0-3.64,6.12c-.76,2.52.36,5.07,1.79,7.11a10,10,0,0,0,5.14,3.83C268.17,216.45,270.28,216.51,269.6,215.06Z"/><path class="cls-7" d="M257.84,205.93c.58-1.12,1.65-2.28,2.35-3.44a22.92,22.92,0,0,1,3.12-4.14,21.66,21.66,0,0,1,5-3.92c1.57-.83,4-2,5.69-1,4.72,2.59,3.87,10.4,2.15,14.37-.93,2.16-3,6.5-5.37,7.55a2.52,2.52,0,0,1-1.71.05,19,19,0,0,0,6.52-10.29c.59-2.55.85-9.26-3-9.79-3.22-.45-6.6,3.78-8.36,5.94-1.28,1.56-3.49,4.08-3.29,6.25C260.24,207.16,257.53,206.29,257.84,205.93Z"/><path class="cls-10" d="M261.32,207.06c.71-1.86,4.37-3.05,6.13-2.84-.35.45-3.05,2.68-2.59,3.42s2.39-.09,3.13.74a8.34,8.34,0,0,0-.94,1.25c1.51.37,3.36-.41,3.2,2.06,0,.37-.32,1.88-.69,2-.67.22-3.86-2.71-4.43-3.07C263.91,209.84,261.84,208.83,261.32,207.06Z"/><path class="cls-17" d="M221.32,232.69c-.08,0-1.89,2.5-2.32,3-1.1,1.22-2.47,2.14-3.58,3.28.54.62,1.65.56,2.4.77,1.19.34,2.42,1.11,3.68,1.08-.48.81-2.09.9-2.19,2.09a26.25,26.25,0,0,1,6.2-.13,16,16,0,0,1,3.26.26,2.9,2.9,0,0,0-1.05,1.25A73.74,73.74,0,0,1,239.43,246a75.75,75.75,0,0,0,8.19,1.69c1.88.19,5.17.27,6.87-.79,1.29-.81,1.75-1,3-1.89a65.58,65.58,0,0,0,6.25-5.16c3.59-3.24,7.34-6.27,11.1-9.3a22.44,22.44,0,0,1,5.18-2.93c1.19-.53,2.61-.94,3.74-1.53a10.11,10.11,0,0,0-3.89-.77c0-.11,0-.08,0-.19,1-.63,2-1.12,3-1.73-.59-.34-1.59-.13-2.29-.17.92-1.22,3.15-1.73,4.45-2.64a7.63,7.63,0,0,0-2.62-.37c-1.26.13-1.3.39-2.85-.18a40.17,40.17,0,0,0-10-2.36,74.85,74.85,0,0,0-23.74,1.48,67.08,67.08,0,0,0-19.49,7.47C224,228.08,222.9,230.48,221.32,232.69Z"/><path class="cls-7" d="M230.36,236.34c-.12,0-.14-.08-.27,0,.73,2.74,3.55,5.18,6.53,4.26a5.59,5.59,0,0,0,3.32-3.42c-1.36.94-3,2.1-4.82,2C233.72,239.1,231.67,237.65,230.36,236.34Z"/><path class="cls-7" d="M259.77,233.05c1.75,1.58,5.69-.44,6.85-1.9.84-1.06,2.41-4.5,1-5.67-.74,2.18-1,4.53-3.09,5.89a9.77,9.77,0,0,1-2.81,1.32A9.59,9.59,0,0,0,259.77,233.05Z"/><path class="cls-5" d="M280.32,221.27c-.34.13-1-.17-1.44-.25a30.91,30.91,0,0,0-4.1-.28c-1.51-.07-3.13-.28-4.63-.21a18.74,18.74,0,0,0-6.62,1.83,16.94,16.94,0,0,0-8.68,9.77c-1.13,3-.48,5.85-.56,8.87-.44.67-2.89,1.18-3.78,1.33-1.14.18-.88-.1-1.43-1.13-2.6-5-7.48-9.42-13.1-10.48a18.61,18.61,0,0,0-9.23,1,22.13,22.13,0,0,0-5.19,2.37,14.52,14.52,0,0,1-2.69,1.55c1.16-2.54,2.67-5,4-7.46,1.48-2.72,2.19-5.73,3.62-8.51,1.72-3.35,4-7.34,7.12-9.55,3.87-2.71,7.8-5.14,12.54-6,6.61-1.16,12.65.73,18.32,4a112,112,0,0,1,10.66,7c1.3,1,2.45,2.34,3.77,3.28,1.07.77,3.36,1.21,4.48,1.83C282.89,220.53,280.89,221.05,280.32,221.27Z"/><path class="cls-7" d="M253.71,244.39a1.3,1.3,0,0,1-.91.33c-1.39-.07-3.4.12-3.89-.83-.79-1.54,1.87-2.27,2.78-2.55s3.2-1.5,3.84-.32S254.81,243.46,253.71,244.39Z"/><path class="cls-8" d="M236.85,218.71a21.83,21.83,0,0,0-.45-2.36c.76.27,1.69,1.94.93,2.62a1,1,0,0,1-.21-.62"/><path class="cls-8" d="M243,217.8c-.54.23-.84-1.75-.28-1.75s1.17,2,.75,2.41a1.18,1.18,0,0,1-.75-.84"/><path class="cls-8" d="M243.06,223.46c-.31-.47-.79-1.55-.26-2,.44.18.62.86.68,1.29.13.85-.45,1.24-.61.23"/><path class="cls-8" d="M248.35,224.1A4.77,4.77,0,0,1,248,222a1.64,1.64,0,0,1,.54,2.36c-.21,0-.19-.13-.28-.27"/><path class="cls-8" d="M248.08,216.16c-.18-.69-.9-2.33-.27-2.84.49.55,1,2.19.43,2.82a1,1,0,0,1-.34-.17"/><path class="cls-8" d="M252.28,219.9a7.29,7.29,0,0,1-.47-2.37c.74,0,.91,1.56.82,2.18a.72.72,0,0,1-.35-.08"/><path class="cls-8" d="M254.2,212.69c0-.36-.36-1.89.18-1.93s.62,1.7.44,2.1a.69.69,0,0,1-.62-.54"/><path class="cls-8" d="M237.34,207.4a22.73,22.73,0,0,1,4.66-2.7,19.68,19.68,0,0,1,5.24-1.44,17.4,17.4,0,0,1,5.44.19,22.69,22.69,0,0,1,5.13,1.62,31.47,31.47,0,0,0-10.45-.84,24.9,24.9,0,0,0-5.09,1.18C240.61,206,239,206.67,237.34,207.4Z"/><path class="cls-8" d="M270,236.74a14.81,14.81,0,0,1,4.22-2.64,42.56,42.56,0,0,1,4.69-1.62,31.4,31.4,0,0,1,9.95-1.24,19.33,19.33,0,0,1,9.58,3.17,14.54,14.54,0,0,1,2,1.58c.61.58,1.17,1.16,1.78,1.67a10.39,10.39,0,0,0,2,1.33,6.78,6.78,0,0,0,2.33.64,5.72,5.72,0,0,1-2.49-.25,11.13,11.13,0,0,1-2.28-1.1c-1.43-1-2.56-2.08-4-2.83a20.67,20.67,0,0,0-9-2.64,38.3,38.3,0,0,0-9.57.86c-1.58.33-3.16.72-4.74,1.16A17.16,17.16,0,0,0,270,236.74Z"/><rect id="cadre" class="cls-18" width="524.41" height="269.29"/></svg>