<svg id="troscoltube_licorne_v3" xmlns="http://www.w3.org/2000/svg" xmlns:xlink="http://www.w3.org/1999/xlink" viewBox="0 0 467.72 184.25"><defs><style>.cls-1,.cls-40,.cls-41,.cls-42,.cls-54,.cls-55{fill:none;}.cls-2{clip-path:url(#clip-path);}.cls-3{fill:#ffea9f;}.cls-4{fill:#ed9eb2;}.cls-5{fill:#af92c4;}.cls-6{fill:#9ad5e0;}.cls-46,.cls-48,.cls-49,.cls-7{fill:#fdfaf2;}.cls-8{fill:#d35097;}.cls-14,.cls-39,.cls-9{fill:#fff;}.cls-10{fill:#f6b8c8;}.cls-11{fill:#fee787;}.cls-12{fill:#c5587e;}.cls-13{fill:#f4afbe;}.cls-14{opacity:0.35;}.cls-15{fill:#f5f2e8;}.cls-16{fill:#e7c4da;}.cls-17{opacity:0.39;}.cls-18{fill:#be96b1;}.cls-19{opacity:0.24;}.cls-20{fill:#edd1e1;}.cls-21{fill:#fae284;}.cls-22{fill:#fed62a;}.cls-23{fill:#f8f3e9;}.cls-24{fill:#cd579a;}.cls-25{fill:#f6dcec;}.cls-26{opacity:0.18;}.cls-27{fill:#d8aec6;}.cls-28{opacity:0.75;}.cls-29{fill:#df9dbc;}.cls-30{opacity:0.07;}.cls-31{fill:#a58775;}.cls-32{opacity:0.25;}.cls-33{fill:#dcbed1;}.cls-34{opacity:0.29;}.cls-35{fill:#eb8d9d;}.cls-36{fill:#141a18;}.cls-37{fill:#f3dbea;}.cls-38,.cls-39{opacity:0.9;}.cls-40,.cls-42{stroke:#edd1e1;}.cls-40,.cls-42,.cls-55{stroke-linecap:round;}.cls-40,.cls-42,.cls-54,.cls-55{stroke-linejoin:round;}.cls-40{stroke-width:0.1px;}.cls-41{stroke:#cd579a;stroke-miterlimit:10;stroke-width:0.09px;}.cls-42{stroke-width:0.25px;}.cls-43{fill:#a2877a;}.cls-44{fill:#68a593;}.cls-45{fill:#ddc89b;}.cls-46{opacity:0.6;}.cls-47{fill:#efe7b4;}.cls-48{opacity:0.7;}.cls-49{opacity:0.8;}.cls-50{fill:#76b19d;}.cls-51{fill:#1b828b;}.cls-52{fill:#0e8e8b;}.cls-53{opacity:0.65;}.cls-54,.cls-55{stroke:#fff;stroke-width:0.03px;}.cls-56{fill:#bb4b94;}.cls-57{fill:#a1d3c0;}</style><clipPath id="clip-path"><polygon class="cls-1" points="204.04 80.38 233.86 80.38 268.42 48.92 308.1 41.94 341.4 55.26 360.34 84.11 370.77 138.59 427.65 142.38 423.81 96.08 403.72 51.83 369.37 19.54 344.13 8.66 297.93 4.62 262.5 14.55 231.47 44.73 206.13 67.39 204.04 80.38"/></clipPath></defs><g class="cls-2"><path class="cls-3" d="M214.34,80.63c8-17.11,17.36-31.85,40.39-48.66s43.7-19.57,65.9-16.1,45.93,21,58.4,35.06c11.86,13.41,29.65,44.36,31,78.88a48.55,48.55,0,0,1,10.19,3.45,80.68,80.68,0,0,0-.11-10.94,107.8,107.8,0,0,0-3.39-22.39C410.6,76.3,400,54.58,381.11,37.87c-17.25-15.27-40-30-72.17-29.18a99.79,99.79,0,0,0-25.61,4.47c-15.64,4.62-29.15,14.15-40.8,25-19,17.72-34.08,39.84-39.79,64.51l3.39.46h0C206.24,102.34,206.36,97.74,214.34,80.63Z"/><path class="cls-4" d="M209.85,103.31a126.89,126.89,0,0,1,8.49-23.54C224,68.1,236,53,245.54,45.32s23.56-22.07,52.12-24.54S350.44,32.39,362,44c11.21,11.2,33.56,36.37,39.32,84.53a61.8,61.8,0,0,1,8.71,1.3c-1.38-34.52-19.17-65.47-31-78.88-12.47-14.1-36.21-31.59-58.4-35.06s-42.87-.72-65.9,16.1-32.42,31.55-40.39,48.66-8.1,21.71-8.21,22.49h0l7.21,2.27s.16-.65.52-1.81Z"/><path class="cls-5" d="M297.66,20.78C269.1,23.25,255,37.62,245.54,45.32S224,68.1,218.34,79.77a126.89,126.89,0,0,0-8.49,23.54l4,.27a110.4,110.4,0,0,1,10.19-22.83c7.78-13.23,12.44-20.79,29.77-34.42S291.61,25.68,322,33.43s46.08,36.7,51.3,45.72c5,8.65,12.18,29.65,14.72,49.64a65.84,65.84,0,0,1,8.06-.49q2.7,0,5.31.21C395.59,80.35,373.24,55.18,362,44,350.44,32.39,326.21,18.32,297.66,20.78Z"/><path class="cls-6" d="M388,128.79c-2.54-20-9.71-41-14.72-49.64-5.22-9-20.95-38-51.3-45.72s-50.8-.72-68.14,12.9-22,21.19-29.77,34.42a110.4,110.4,0,0,0-10.19,22.83c-.36,1.16-.52,1.81-.52,1.81l2.66.6s11.2-29.63,34.58-50.06,50.92-21.62,77.25-11.38,38.66,40.15,45,55.45a91.35,91.35,0,0,1,6.36,30.54A57.5,57.5,0,0,1,388,128.79Z"/><path class="cls-7" d="M292.34,22.6a5.63,5.63,0,0,1,1.29.23,2.44,2.44,0,0,1,.53.21,2.11,2.11,0,0,1,.93,1.29,6.12,6.12,0,0,1,.15,1.6,7.31,7.31,0,0,1,.39-1.53,2.55,2.55,0,0,1,2.3-1.64c-.78-.19-1.28-.14-1.78-.75a3,3,0,0,1-.48-.94,6.21,6.21,0,0,1-.31-1.53,4.88,4.88,0,0,1-.32,1.64,2.13,2.13,0,0,1-1.16,1.18,3.8,3.8,0,0,1-.76.16Z"/><path class="cls-7" d="M335.67,36.28a6.43,6.43,0,0,1,1.38.24,2.83,2.83,0,0,1,.57.23,2.25,2.25,0,0,1,1,1.38,6.58,6.58,0,0,1,.17,1.71,8.28,8.28,0,0,1,.41-1.63,2.76,2.76,0,0,1,1.05-1.31,2.81,2.81,0,0,1,1.42-.45c-.84-.2-1.37-.15-1.91-.8a3.21,3.21,0,0,1-.51-1,6.71,6.71,0,0,1-.33-1.65,5.25,5.25,0,0,1-.35,1.76A2.21,2.21,0,0,1,337.32,36a3.73,3.73,0,0,1-.82.17Z"/><path class="cls-7" d="M354.82,39.05a2.82,2.82,0,0,1,.58.1l.25.1a1,1,0,0,1,.42.59,2.89,2.89,0,0,1,.07.72,3.31,3.31,0,0,1,.17-.69,1.18,1.18,0,0,1,.45-.56,1.25,1.25,0,0,1,.6-.19c-.35-.08-.58-.06-.81-.34a1.35,1.35,0,0,1-.22-.43,3.22,3.22,0,0,1-.14-.7,2.08,2.08,0,0,1-.14.75,1,1,0,0,1-.53.54,1.36,1.36,0,0,1-.35.07Z"/><path class="cls-7" d="M286.43,28.8a2.54,2.54,0,0,1,.55.1.85.85,0,0,1,.22.09.86.86,0,0,1,.4.55,2.54,2.54,0,0,1,.06.67,2.88,2.88,0,0,1,.17-.64,1.06,1.06,0,0,1,.41-.52,1.16,1.16,0,0,1,.56-.18c-.33-.08-.54-.06-.75-.32a1.28,1.28,0,0,1-.21-.4,2.41,2.41,0,0,1-.12-.65,2.35,2.35,0,0,1-.14.7.89.89,0,0,1-.49.5,1.94,1.94,0,0,1-.33.07Z"/><path class="cls-7" d="M263.3,25.33a3.87,3.87,0,0,1,1,.17,2,2,0,0,1,.4.16,1.59,1.59,0,0,1,.69.95,4.76,4.76,0,0,1,.11,1.19,5.52,5.52,0,0,1,.29-1.13,1.9,1.9,0,0,1,.72-.91,1.87,1.87,0,0,1,1-.31c-.58-.14-.95-.11-1.32-.56a2.12,2.12,0,0,1-.36-.7,4.44,4.44,0,0,1-.23-1.14,4,4,0,0,1-.24,1.22,1.58,1.58,0,0,1-.86.88,2.75,2.75,0,0,1-.57.12Z"/><path class="cls-7" d="M243.53,40.52a2.54,2.54,0,0,1,.55.1.92.92,0,0,1,.23.09.89.89,0,0,1,.39.55,2.58,2.58,0,0,1,.07.68,3.43,3.43,0,0,1,.16-.65,1.07,1.07,0,0,1,.42-.52,1.09,1.09,0,0,1,.56-.18c-.33-.08-.54-.06-.76-.32a1.5,1.5,0,0,1-.2-.4,2.42,2.42,0,0,1-.13-.65,2.08,2.08,0,0,1-.14.7.86.86,0,0,1-.49.5,1.76,1.76,0,0,1-.33.07Z"/><path class="cls-7" d="M396.58,101.62a6.32,6.32,0,0,1-1.3-.23,2.78,2.78,0,0,1-.54-.22,2.15,2.15,0,0,1-.94-1.3,6.31,6.31,0,0,1-.15-1.62,7.4,7.4,0,0,1-.39,1.54,2.57,2.57,0,0,1-1,1.24,2.53,2.53,0,0,1-1.34.42c.79.19,1.29.14,1.8.76a3.12,3.12,0,0,1,.49,1,5.83,5.83,0,0,1,.3,1.55,5.21,5.21,0,0,1,.33-1.66,2.15,2.15,0,0,1,1.17-1.2,3.49,3.49,0,0,1,.78-.16Z"/><path class="cls-7" d="M371.55,78.58a6.42,6.42,0,0,1,1.31.23,3.11,3.11,0,0,1,.53.22,2.1,2.1,0,0,1,.94,1.3,5.91,5.91,0,0,1,.16,1.62,7.4,7.4,0,0,1,.39-1.54,2.62,2.62,0,0,1,1-1.24,2.53,2.53,0,0,1,1.34-.42c-.79-.19-1.3-.14-1.8-.76a2.91,2.91,0,0,1-.49-1,6.27,6.27,0,0,1-.31-1.55,5.15,5.15,0,0,1-.32,1.66,2.14,2.14,0,0,1-1.18,1.2,3.29,3.29,0,0,1-.77.16Z"/><path class="cls-7" d="M387.07,61.88a6.32,6.32,0,0,1,1.3.23,2.78,2.78,0,0,1,.54.22,2.15,2.15,0,0,1,.94,1.3,6.31,6.31,0,0,1,.15,1.62,7.4,7.4,0,0,1,.39-1.54,2.57,2.57,0,0,1,1-1.24,2.53,2.53,0,0,1,1.34-.42c-.79-.19-1.29-.14-1.8-.76a3.12,3.12,0,0,1-.49-1,6.27,6.27,0,0,1-.31-1.55,5.2,5.2,0,0,1-.32,1.66,2.17,2.17,0,0,1-1.18,1.2,3.29,3.29,0,0,1-.77.16Z"/><path class="cls-7" d="M383.4,103.94a2.65,2.65,0,0,1,.55.1.83.83,0,0,1,.63.65,2.57,2.57,0,0,1,.06.68,3,3,0,0,1,.17-.65,1.1,1.1,0,0,1,.42-.53,1.16,1.16,0,0,1,.57-.18c-.34-.08-.55-.06-.77-.32a1.42,1.42,0,0,1-.2-.41,2.42,2.42,0,0,1-.13-.66,2.42,2.42,0,0,1-.14.71,1,1,0,0,1-.5.51,1.94,1.94,0,0,1-.33.07Z"/><path class="cls-7" d="M381.61,93.14a2.62,2.62,0,0,1,.56.09l.23.09a.93.93,0,0,1,.39.56,2.22,2.22,0,0,1,.07.68,3,3,0,0,1,.17-.65,1,1,0,0,1,.42-.52,1,1,0,0,1,.57-.18c-.34-.09-.55-.07-.77-.33a1.28,1.28,0,0,1-.21-.4,3.08,3.08,0,0,1-.13-.66,1.86,1.86,0,0,1-.14.7.88.88,0,0,1-.49.51,1.3,1.3,0,0,1-.33.07Z"/><path class="cls-7" d="M386.07,97.89c-.17-.07-.35.1-.39.27a.6.6,0,0,0,.4.66.61.61,0,0,0,.72-.31.56.56,0,0,0-.28-.7.58.58,0,0,0-.73.25"/><path class="cls-7" d="M378.17,74.22c-.17-.06-.34.11-.38.28a.59.59,0,0,0,1.11.35.56.56,0,0,0-.27-.71.6.6,0,0,0-.74.26"/></g><path class="cls-8" d="M308.4,179c1.25-2.75.12-7.9.25-10.92a17.42,17.42,0,0,1,1-6c1-2.35,2.83-4.2,4.65-6-.24.23.85,8.3.71,9.47a25,25,0,0,1-3.24,9.48c-3.57,6.12-8,6.46-14.31,3.18a50.19,50.19,0,0,1-8.69-6.27,15.47,15.47,0,0,1,10.31,1.6,46.63,46.63,0,0,1,8.66,6.15,20.69,20.69,0,0,1-7.66-20.55c4.82,5.62,9.33,12.45,8.57,19.81,0-.43,0-.87-.05-1.31a1.87,1.87,0,0,0,.25,1.74c1.09-3.74,3.82-6.77,6.74-9.36s6.11-4.88,8.63-7.86c-.1,3.51-.42,7.16-2.2,10.19-2.66,4.52-7.92,6.71-12.82,8.6a28.76,28.76,0,0,1,19.07-8,8.05,8.05,0,0,1-2.85,4.75,11.3,11.3,0,0,1-4.11,1.62q-2.62.61-5.26,1.1C312.91,181,311,180.92,308.4,179Z"/><path class="cls-6" d="M386.59,26.28c.08-1.51,2.16-2.3,3.44-1.51a3.53,3.53,0,0,1,1.21,4c.09-1.47,2-2.35,3.33-1.76a3.69,3.69,0,0,1,1.95,3.66,5.13,5.13,0,0,1,3.11.68c.19.11.38.26.39.47a.61.61,0,0,1-.35.49c-2,1.32-4.59.58-6.9.05a31.56,31.56,0,0,0-11.58-.47c-2.81.41-5.56,1.2-8.38,1.56a14.26,14.26,0,0,1-8.32-1.07A4.1,4.1,0,0,1,363,31.28c-.93-1.23-.64-3,.06-4.38A4.78,4.78,0,0,1,365,24.82a2.44,2.44,0,0,1,2.68.16c-1.74-2.05-1.54-5-.65-7.53a8.36,8.36,0,0,1,2.9-4.29A8.67,8.67,0,0,1,374,11.91a11.31,11.31,0,0,1,5.6.63,9.66,9.66,0,0,1,5,5.79,22.46,22.46,0,0,1,1,7.79c0,.15,0,.36.18.38S386.68,26.15,386.59,26.28Z"/><path class="cls-9" d="M385.6,23.78A7.59,7.59,0,0,1,381.69,29a7.91,7.91,0,0,1-6.66.21,4.75,4.75,0,0,1-1.47-.95,3.69,3.69,0,0,1-.88-1.53,4.56,4.56,0,0,1,.2-3.42,2.93,2.93,0,0,1,2.93-1.59,2.06,2.06,0,0,1,1.63,2.58A1.94,1.94,0,0,0,375.77,22a2.59,2.59,0,0,0-2.51,1.51c-.83,1.88-.12,4.57,2,5.2a7.55,7.55,0,0,0,6.24-.08A7.86,7.86,0,0,0,385.6,23.78Z"/><path class="cls-10" d="M415.06,50a5.81,5.81,0,0,0-2.81,0c-.75.21-2.26.64-2.55,1.93-.06.28.07.93,1.27,1.4,3.65,1.4,8.65.43,12.55.19a53.41,53.41,0,0,0,9-1.07,48,48,0,0,1,5.12-1.17c6.33-.74,12.94,3.37,18.87,1a9.67,9.67,0,0,0,2.16-1.07c.64-.5.78-.67.57-1.41a4.08,4.08,0,0,0-2-2.16,6.83,6.83,0,0,0-2.24-.32,13.12,13.12,0,0,0,3.09-11.08A12,12,0,0,0,450.87,28a14.67,14.67,0,0,0-7.29-.67,11.15,11.15,0,0,0-6,2.52C435,32.21,434.34,36,434,39.52c-1.39-2.78-4.44-5.14-7.38-4.13a6.32,6.32,0,0,0-3.85,5,12.89,12.89,0,0,0,.84,6.45,4.92,4.92,0,0,0-6.06-3.54C415,44.06,414,47.59,415.06,50Z"/><path class="cls-7" d="M434.39,36.66c.07,1.88.17,3.92,1.32,5.42a6.32,6.32,0,0,0,4.81,2.37,9.17,9.17,0,0,0,5.23-1.59,6.35,6.35,0,0,0,3.08-4.29,5.69,5.69,0,0,0-1.74-4.92,5.07,5.07,0,0,0-5.07-1,4.26,4.26,0,0,0-2.13,1.6,2.94,2.94,0,0,0-.44,2.56,2,2,0,0,0,2.06,1.39,4,4,0,0,0,1.33-.45,1.16,1.16,0,0,0,.54-.43c.1-.18,0-.52-.26-.53.27,0,.41.33.3.56a1.2,1.2,0,0,1-.53.49,4,4,0,0,1-1.35.54A2.25,2.25,0,0,1,439.13,37a3.3,3.3,0,0,1,.4-2.91,4.72,4.72,0,0,1,2.31-1.87,5.53,5.53,0,0,1,5.67,1,6.33,6.33,0,0,1,2,5.46,7,7,0,0,1-3.42,4.73A9.39,9.39,0,0,1,440.5,45a6.68,6.68,0,0,1-5.06-2.71C434.31,40.59,434.32,38.54,434.39,36.66Z"/><path class="cls-7" d="M423.31,45.57a8.6,8.6,0,0,0,3.22,2.77,3.12,3.12,0,0,0,3.63-.72,2.73,2.73,0,0,0-.4-3.53,1.29,1.29,0,0,0-1.71.08,1.13,1.13,0,0,0-.24.93.91.91,0,0,0,.22.45l.21.18a.11.11,0,0,1,0,.14s-.14,0-.08,0,.06.06.06,0,0-.07-.05-.08l-.24-.15a1.09,1.09,0,0,1-.33-.48,1.43,1.43,0,0,1,.14-1.17,1.74,1.74,0,0,1,2.28-.33,2.72,2.72,0,0,1,1.18,2.06,3.31,3.31,0,0,1-.52,2.33,3.15,3.15,0,0,1-2.1,1.15,3.8,3.8,0,0,1-2.3-.36A7.24,7.24,0,0,1,423.31,45.57Z"/><path class="cls-10" d="M107.39,47.84a5.65,5.65,0,0,0-2.71-.05c-.73.2-2.19.62-2.46,1.87-.06.27.06.9,1.22,1.35,3.53,1.36,8.36.41,12.14.18a51.67,51.67,0,0,0,8.7-1,46.82,46.82,0,0,1,5-1.13c6.11-.71,12.51,3.26,18.23,1a8.91,8.91,0,0,0,2.1-1c.61-.48.74-.65.55-1.36a4,4,0,0,0-2-2.09,6.35,6.35,0,0,0-2.16-.31,12.67,12.67,0,0,0,3-10.71,11.56,11.56,0,0,0-7-8,14.13,14.13,0,0,0-7-.64,10.65,10.65,0,0,0-5.76,2.43c-2.53,2.3-3.18,6-3.5,9.37-1.35-2.69-4.29-5-7.14-4a6.1,6.1,0,0,0-3.72,4.79,12.37,12.37,0,0,0,.81,6.23,4.76,4.76,0,0,0-5.85-3.42C107.38,42.1,106.36,45.51,107.39,47.84Z"/><path class="cls-7" d="M126.08,35c.07,1.81.16,3.78,1.28,5.23a6.09,6.09,0,0,0,4.65,2.3,9,9,0,0,0,5.06-1.54,6.16,6.16,0,0,0,3-4.15A5.51,5.51,0,0,0,138.35,32a4.9,4.9,0,0,0-4.89-1,4.09,4.09,0,0,0-2.06,1.55,2.87,2.87,0,0,0-.43,2.48,1.92,1.92,0,0,0,2,1.34,3.75,3.75,0,0,0,1.28-.44,1.11,1.11,0,0,0,.52-.41c.1-.18,0-.5-.24-.51.25,0,.39.32.28.54a1.22,1.22,0,0,1-.51.47,3.8,3.8,0,0,1-1.3.53,2.16,2.16,0,0,1-2.33-1.41,3.18,3.18,0,0,1,.38-2.81,4.56,4.56,0,0,1,2.23-1.81,5.36,5.36,0,0,1,5.48,1,6.12,6.12,0,0,1,1.94,5.28,6.72,6.72,0,0,1-3.3,4.57A9.14,9.14,0,0,1,132,43a6.49,6.49,0,0,1-4.89-2.62C126,38.74,126,36.76,126.08,35Z"/><path class="cls-7" d="M115.37,43.55a8.23,8.23,0,0,0,3.11,2.69,3,3,0,0,0,3.51-.7,2.66,2.66,0,0,0-.38-3.42,1.26,1.26,0,0,0-1.66.09,1.07,1.07,0,0,0-.23.89.87.87,0,0,0,.21.43c.06.07.14.12.2.18a.11.11,0,0,1,0,.14s-.14,0-.08-.06,0,.07.06,0a.07.07,0,0,0-.05-.08l-.23-.14a1,1,0,0,1-.32-.47,1.34,1.34,0,0,1,.14-1.13,1.65,1.65,0,0,1,2.19-.31,2.58,2.58,0,0,1,1.15,2,3.24,3.24,0,0,1-.51,2.26,3.09,3.09,0,0,1-2,1.11,3.73,3.73,0,0,1-2.23-.35A7,7,0,0,1,115.37,43.55Z"/><path class="cls-11" d="M316.66,146.91a5.42,5.42,0,0,1,1.34-.19,2,2,0,0,1,1.94,1,6.37,6.37,0,0,1,.69,1.58,7.93,7.93,0,0,1-.13-1.68,2.72,2.72,0,0,1,.54-1.56,2.57,2.57,0,0,1,1.16-.86c-.83.07-1.31.28-2-.18a3.2,3.2,0,0,1-.8-.8,6.75,6.75,0,0,1-.82-1.46,5.64,5.64,0,0,1,.24,1.77,2.24,2.24,0,0,1-.73,1.59,3.77,3.77,0,0,1-.7.41C317.17,146.67,316.87,146.8,316.66,146.91Z"/><path class="cls-11" d="M176.33,52a5.56,5.56,0,0,1,1.34-.19,2.88,2.88,0,0,1,.59,0,2.25,2.25,0,0,1,1.35,1,6.72,6.72,0,0,1,.7,1.57,7.2,7.2,0,0,1-.14-1.67,2.75,2.75,0,0,1,.54-1.57,2.64,2.64,0,0,1,1.16-.86c-.83.07-1.3.28-2-.18a3,3,0,0,1-.8-.8,6.72,6.72,0,0,1-.81-1.46,5.38,5.38,0,0,1,.23,1.78,2.24,2.24,0,0,1-.73,1.58,3.47,3.47,0,0,1-.7.41C176.85,51.8,176.55,51.93,176.33,52Z"/><path class="cls-11" d="M340.41,125.13a5.43,5.43,0,0,1,1.3.4,2.65,2.65,0,0,1,.52.29,2.33,2.33,0,0,1,.79,1.48,7.08,7.08,0,0,1,0,1.72,8,8,0,0,1,.59-1.57,2.7,2.7,0,0,1,1.16-1.18,2.63,2.63,0,0,1,1.41-.28c-.77-.3-1.29-.31-1.73-1a3.26,3.26,0,0,1-.37-1.06,6.68,6.68,0,0,1-.12-1.67,5.54,5.54,0,0,1-.54,1.7,2.19,2.19,0,0,1-1.34,1.12,3.17,3.17,0,0,1-.81.07C341,125.14,340.65,125.13,340.41,125.13Z"/><path class="cls-11" d="M234.73,16.13a5.22,5.22,0,0,1,1.29.4,2.47,2.47,0,0,1,.53.29,2.31,2.31,0,0,1,.79,1.48,7.08,7.08,0,0,1-.05,1.72,7.8,7.8,0,0,1,.59-1.57A2.7,2.7,0,0,1,239,17.27a2.54,2.54,0,0,1,1.41-.28c-.77-.3-1.29-.31-1.73-1a3,3,0,0,1-.37-1.06,6.72,6.72,0,0,1-.12-1.67,5.63,5.63,0,0,1-.54,1.7,2.19,2.19,0,0,1-1.34,1.12,3.17,3.17,0,0,1-.81.07Z"/><path class="cls-11" d="M321.18,135.63a9.3,9.3,0,0,1,2.52.2,4.73,4.73,0,0,1,1.08.36,5,5,0,0,1,2.16,2.76,17.55,17.55,0,0,1,.78,3.69A19.26,19.26,0,0,1,328,139a5.9,5.9,0,0,1,1.49-3.1,4.28,4.28,0,0,1,2.39-1.31c-1.54-.25-2.47,0-3.61-1.3a7.61,7.61,0,0,1-1.21-2.07,17,17,0,0,1-1-3.5,14.6,14.6,0,0,1-.12,3.91,4.66,4.66,0,0,1-1.85,3.06,5.39,5.39,0,0,1-1.41.56Z"/><path class="cls-11" d="M205.22,34.79a6,6,0,0,1,1.34-.2,2.88,2.88,0,0,1,.59,0,2.23,2.23,0,0,1,1.35,1,6.37,6.37,0,0,1,.69,1.58,7.93,7.93,0,0,1-.13-1.68A2.7,2.7,0,0,1,209.6,34a2.57,2.57,0,0,1,1.16-.86c-.83.06-1.3.28-2-.18a3.38,3.38,0,0,1-.8-.8,7.2,7.2,0,0,1-.82-1.46,5.6,5.6,0,0,1,.24,1.77,2.24,2.24,0,0,1-.73,1.59,3.77,3.77,0,0,1-.7.41C205.73,34.55,205.43,34.68,205.22,34.79Z"/><path class="cls-11" d="M187.43,23.47a9.3,9.3,0,0,1,2.52.2A4.16,4.16,0,0,1,191,24a4.94,4.94,0,0,1,2.16,2.76,16.94,16.94,0,0,1,.78,3.69,21,21,0,0,1,.27-3.65,5.87,5.87,0,0,1,1.49-3.1,4.39,4.39,0,0,1,2.4-1.32c-1.55-.24-2.48,0-3.62-1.29A7.77,7.77,0,0,1,193.3,19a17.34,17.34,0,0,1-1-3.49,14.51,14.51,0,0,1-.12,3.9,4.68,4.68,0,0,1-1.85,3.07,5.85,5.85,0,0,1-1.4.56Z"/><path class="cls-12" d="M262.59,120.48a19.52,19.52,0,0,0,.76,6.08,54.48,54.48,0,0,0,2,5.79l.1.23-.15-.2c-2.31-3.26-4.85-6.49-8.28-8.63,3.44,2.12,6,5.35,8.33,8.59l-.05,0a51.15,51.15,0,0,1-2-5.81A19.5,19.5,0,0,1,262.59,120.48Z"/><path class="cls-13" d="M265.89,122c.7-2.58,2-5.16,4.24-6.62a4.14,4.14,0,0,1,1.82-.7c2.08-.19,3.67,1.87,4.37,3.85a14.51,14.51,0,0,1-4.48,15.71,11.66,11.66,0,0,1,4.05,2.09,2.81,2.81,0,0,1,1.33,2.4,2.07,2.07,0,0,1-1.7,1.56,4.58,4.58,0,0,1-2.39-.34C265.35,137.12,263.92,129.3,265.89,122Z"/><path class="cls-14" d="M267.86,129a13.73,13.73,0,0,1,1-2.9,5.88,5.88,0,0,1,1-1.62,2,2,0,0,1,1.69-.69A2.17,2.17,0,0,1,273,124.9a4.81,4.81,0,0,1,.5,2.94,6.63,6.63,0,0,1-3,4.74C268.12,134.13,267.55,130.53,267.86,129Z"/><path class="cls-13" d="M258.6,127.23c-2-1.1-4.25-1.79-6-1.1a2,2,0,0,0-1,.85c-.77,1.36.2,3.75,1.38,5.46,3.28,4.75,8.51,7.51,12.46,6.57a12.51,12.51,0,0,0,.24,4.14,3.94,3.94,0,0,0,1.29,2.43,1.14,1.14,0,0,0,1.61-.24,3.62,3.62,0,0,0,.49-1.9C269.42,136.2,264.34,130.35,258.6,127.23Z"/><path class="cls-14" d="M262.9,132.92a12,12,0,0,0-2.36-1.06,3.89,3.89,0,0,0-1.44-.33,1,1,0,0,0-1,.76,2.65,2.65,0,0,0,.36,1.76,6.36,6.36,0,0,0,1.92,2.18,4.51,4.51,0,0,0,4.25.82C266.47,136.3,264.1,133.67,262.9,132.92Z"/><path class="cls-12" d="M269.53,138.92a5.9,5.9,0,0,1,.44,2.15,55.07,55.07,0,0,1-4.22-6.42,20.12,20.12,0,0,1-1.78-3.49c-.11-.33-.22-.89.23-1s.57.27.77.52a27.53,27.53,0,0,1,1.82,2.6A29.93,29.93,0,0,1,269.53,138.92Z"/><path class="cls-15" d="M271.87,125.19a.38.38,0,0,0-.07-.24.79.79,0,0,0-.18-.14,1.48,1.48,0,0,0-.7-.22.84.84,0,0,0-.62.38c-.3.42-.4,1.49.3,1.57A1.28,1.28,0,0,0,271.87,125.19Z"/><path class="cls-15" d="M272.41,126.84a.48.48,0,0,1,.19.21.63.63,0,0,1-.25.79c-.34.2-1,0-.9-.5A.76.76,0,0,1,272.41,126.84Z"/><path class="cls-15" d="M272.22,129a.57.57,0,0,1,.11.67.57.57,0,0,1-.63.26.56.56,0,1,1,.52-.93Z"/><path class="cls-15" d="M259.14,133.5a.72.72,0,0,1-.14-.2.52.52,0,0,1,0-.21,1.19,1.19,0,0,1,.06-.63.41.41,0,0,1,.45-.2c.39.05,1.18.64,1,1.18S259.59,133.93,259.14,133.5Z"/><path class="cls-15" d="M260.15,134.9a.72.72,0,0,0,.09.27c.15.26.44.41.63.31s.26-.71-.08-.95A.42.42,0,0,0,260.15,134.9Z"/><path class="cls-15" d="M261.69,136.07a.75.75,0,0,0,.44.49.3.3,0,0,0,.38-.28.82.82,0,0,0-.47-.77C261.78,135.45,261.61,135.78,261.69,136.07Z"/><path class="cls-15" d="M267.17,142.87c0-.07,0-.11.1-.08s.1.09.15.15a2.18,2.18,0,0,1,.4.77.65.65,0,0,1-.15.64.52.52,0,0,1-.58,0,1.34,1.34,0,0,1-.67-1c0-.4.21-.71.54-.68a.43.43,0,0,1,.35.23"/><path class="cls-15" d="M275.23,137.44a.11.11,0,0,1,.15-.11.26.26,0,0,1,.17.14,1.59,1.59,0,0,1,.4.77.84.84,0,0,1-.32.74,1,1,0,0,1-.8.15,1,1,0,0,1-.71-1,1,1,0,0,1,.86-.86.45.45,0,0,1,.44.19"/><path class="cls-16" d="M348.13,141.61a17.55,17.55,0,0,0-3.7,3.54c-1.54,2.13-2.1,4.68-2.63,7.17a3.22,3.22,0,0,0,0,1.92,1.47,1.47,0,0,0,1.75.82c1.31-3,2.77-6.26,5.79-8.17s6.83-2.12,10.47-2c1.2,0,2.65,0,3.21-1a2.2,2.2,0,0,0,.19-1.43c-.27-2.05-2.23-6.84-5.26-6.75-1.59,0-3.62,1.71-4.87,2.48A58.58,58.58,0,0,0,348.13,141.61Z"/><g class="cls-17"><path class="cls-18" d="M356.26,137.64c-.06.2-.27.34-.35.54-.22.5.44,1,.54,1.5.07.39-.16.79-.06,1.17a1.93,1.93,0,0,0,.55.76.77.77,0,0,1,.23.86c.22-.1.46.11.52.34a5.37,5.37,0,0,1,0,.7,1.49,1.49,0,0,0,.3.62,2.12,2.12,0,0,0,1.77.72c-1-2.19-1.78-4.28-2.53-6.55-.14-.41-.33-2-.78-2.09C355.66,136.07,356.34,137.34,356.26,137.64Z"/></g><g class="cls-19"><path class="cls-18" d="M355.14,136.94a.49.49,0,0,1,.34.55,1.89,1.89,0,0,1-.28.65c0,.08-.08.17,0,.23a.35.35,0,0,0,.16.08.48.48,0,0,1,.2.62c-.08.23-.24.42-.33.64a.53.53,0,0,0,.15.64,1.36,1.36,0,0,1,.21.1.37.37,0,0,1,.09.32c0,.48-.36,1-.1,1.41.11.19.32.29.47.45a1.05,1.05,0,0,1,.31.63.74.74,0,0,0,.09.33c.08.1.24.12.36.16a.79.79,0,0,1,.47.39,1.12,1.12,0,0,0,.16.28.6.6,0,0,0,.24.12,6.29,6.29,0,0,0,2.15.34l0-.13a6.49,6.49,0,0,0-.23-.75c-.14-.34-.34-.65-.51-1a10.06,10.06,0,0,1-.48-1.18,32.28,32.28,0,0,1-1.24-3.95c-.08-.37-.14-1.64-.52-1.79S355.44,136.74,355.14,136.94Z"/></g><path class="cls-20" d="M389.05,83.6a1.08,1.08,0,0,1-.05,1,8.86,8.86,0,0,1-1,1.58,10.24,10.24,0,0,1-1.4,1.67,3.3,3.3,0,0,1-1.95.88,1.53,1.53,0,0,1-1.52-.79,2.11,2.11,0,0,1,.59-2,3.47,3.47,0,0,1,2.36-1.58C386.35,84.31,389.21,83.85,389.05,83.6Z"/><path class="cls-21" d="M380.67,90.85a5.32,5.32,0,0,1-1.05-.63,1.94,1.94,0,0,1-.81-1.07,2.09,2.09,0,0,1,.38-1.4,10.25,10.25,0,0,1,1.47-1.93,1.31,1.31,0,0,1,1.17-.55c-.24-.18-.19-.46-.13-.75a3.64,3.64,0,0,1,.64-1c.34-.44.78-.78,1-.68a1,1,0,0,1,.18-1.12,4.31,4.31,0,0,1,1.54-1.49c.14-.06.32.1.4.23a1.18,1.18,0,0,1,.09.46,7.77,7.77,0,0,1-.46,2.78,22,22,0,0,1-1.56,3.06c-.57,1-1.06,2.1-1.68,3.09a5.88,5.88,0,0,1-.55.76.78.78,0,0,1-.36.26C380.81,90.91,380.71,91,380.67,90.85Z"/><path class="cls-22" d="M379.54,89.58c-.09,0,.28.16.31.24a3.73,3.73,0,0,0,2.58,1.84,1,1,0,0,0,.48,0,.9.9,0,0,0,.51-.55L384,90a1.68,1.68,0,0,0,.13-1.62c.59-.13.85-.83,1.08-1.35s.49-1.14.18-1.5c.45,0,.7-.44,1-1.1a1.63,1.63,0,0,0,.15-1.24,1.84,1.84,0,0,0,.54-.5,2.47,2.47,0,0,0,.43-.81,2.91,2.91,0,0,0,.1-.58,2.75,2.75,0,0,0-.12-.61,4.14,4.14,0,0,0,.86-1.24c0-.08.06-.32.09-.41a1.09,1.09,0,0,0-.08-.61s.3-.06.34-.09a1.79,1.79,0,0,0,.42-.81,1.47,1.47,0,0,0,.13-1,3.35,3.35,0,0,0,.83-1.3c.05-.17.2-.45,0-.67a2.45,2.45,0,0,0,.2-.48c.19-.51.2-.64.39-1.13.06-.15.05-.16,0-.19s-.07,0-.15.1c-.42.5-1,1-.79,1.33-.09,0-.08-.07-.16,0a1.71,1.71,0,0,0-.42.36c-.28.36-.64.88-.61,1.15-.12-.12-.16-.06-.27,0a3.33,3.33,0,0,0-.6.72c-.12.17-.37.49-.29.7,0,0,.06.11,0,.1a.51.51,0,0,0-.48.17,3.57,3.57,0,0,0-.54.69,1.26,1.26,0,0,0-.15.83.77.77,0,0,0-.56.1,3.84,3.84,0,0,0-.59.84,1.23,1.23,0,0,0-.12.26.82.82,0,0,0,0,.49c-.11-.07-.28,0-.37.1a3.09,3.09,0,0,0-.82,1,1.87,1.87,0,0,0-.12,1.34.8.8,0,0,0-.61.22,4.59,4.59,0,0,0-.8.85,1.83,1.83,0,0,0-.33,1.26.47.47,0,0,0-.44.14C380.49,86.64,378.52,88.88,379.54,89.58Z"/><path class="cls-23" d="M384.06,88.46a4.73,4.73,0,0,1-1.51-1.3,3.74,3.74,0,0,1-.51-.89,2.33,2.33,0,0,1-.16-1A16.17,16.17,0,0,0,383,86.84,11.22,11.22,0,0,1,384.06,88.46Z"/><path class="cls-23" d="M385.22,85.43a3.17,3.17,0,0,1-1.28-1.07,3,3,0,0,1-.6-1.57c.31.48.58.92.89,1.35S384.88,85,385.22,85.43Z"/><path class="cls-23" d="M386.48,83.15a2.86,2.86,0,0,1-1.2-1.11,2.57,2.57,0,0,1-.35-.75,1.67,1.67,0,0,1,0-.83,5.47,5.47,0,0,0,.69,1.39A15.15,15.15,0,0,0,386.48,83.15Z"/><path class="cls-23" d="M387.37,80.8a2.81,2.81,0,0,1-.86-.89,1.71,1.71,0,0,1-.25-1.21,7.23,7.23,0,0,0,.53,1A7.63,7.63,0,0,1,387.37,80.8Z"/><path class="cls-23" d="M388.18,78.45a1.25,1.25,0,0,1-.61-.61,1.22,1.22,0,0,1-.1-.86,5.7,5.7,0,0,1,.39.72A5.28,5.28,0,0,1,388.18,78.45Z"/><path class="cls-23" d="M389.2,76.72a.93.93,0,0,1-.54-.45.86.86,0,0,1-.08-.7,2.67,2.67,0,0,1,.36.54A2.87,2.87,0,0,1,389.2,76.72Z"/><path class="cls-23" d="M390.13,74.73a.54.54,0,0,1-.41-.2.39.39,0,0,1,0-.48,1.82,1.82,0,0,1,.28.28A.61.61,0,0,1,390.13,74.73Z"/><path class="cls-24" d="M422.67,122.91a17.2,17.2,0,0,1,6.48-8.27,10.48,10.48,0,0,1,10.17-.74,12.3,12.3,0,0,1,5.14,6c1.11,2.43,1.76,5,2.63,7.57a17.31,17.31,0,0,0,4,6.9,8,8,0,0,0,7.33,2.27c2.58-.7,4.58-3.54,3.82-6.11,3.26,2.43,3.13,7.91.19,10.71s-7.76,3-11.37,1.14c.15,3.39,2.38,5.74,7,4.85-2.3,1.79-3.52,2.6-6,3.09-2.31.46-5.52-.17-6.69-2.22a3.15,3.15,0,0,0-.06,2.15,4.4,4.4,0,0,0,2.53,2.73c-5.18,2-12.52-3.71-12.12-11.18.1-1.91,1.06-3.7,1.17-5.61a7.71,7.71,0,0,0-3.7-7,7,7,0,0,0-7.83.66c-.83.72-7.86,11.56-8.44,5.86-.15-1.51,2.15-3.8,2.82-5.06C421,128.16,421.64,125.45,422.67,122.91Z"/><path class="cls-24" d="M457.11,138.08a6.91,6.91,0,0,1-5.13-1.7c-1.71-1.52-2.88-3.85-3.57-7.11-.21-1-.36-1.92-.52-2.86a33.27,33.27,0,0,0-1.08-5,14.17,14.17,0,0,0-6.71-8.29,10.58,10.58,0,0,0-10.41.27,15.13,15.13,0,0,0-4.09,4.35,38.63,38.63,0,0,0-4.12,8c-.2.54-.39,1.09-.57,1.62a30.93,30.93,0,0,1-1.65,4.11,15.61,15.61,0,0,1-2,2.91.11.11,0,0,1-.14,0,.1.1,0,0,1,0-.15,15.1,15.1,0,0,0,2-2.86,30.62,30.62,0,0,0,1.64-4.09c.18-.53.37-1.08.57-1.62a38.53,38.53,0,0,1,4.14-8.08,15.38,15.38,0,0,1,4.14-4.41,10.81,10.81,0,0,1,10.62-.28,14.39,14.39,0,0,1,6.82,8.4,34,34,0,0,1,1.08,5c.16.94.32,1.9.51,2.84.69,3.23,1.84,5.52,3.51,7,1.86,1.66,5.08,2.4,7.25.78a.11.11,0,0,1,.14,0,.1.1,0,0,1,0,.15A4.77,4.77,0,0,1,457.11,138.08Z"/><path class="cls-24" d="M445.31,152.93h0a9.23,9.23,0,0,1-10-10.6,17.32,17.32,0,0,1,.75-2.85,11.74,11.74,0,0,0,.8-4.4,6.64,6.64,0,0,0-6-5.67,8.58,8.58,0,0,0-7.63,4c-.17.26-.34.53-.5.8-.78,1.28-1.58,2.61-3,2.9a.1.1,0,0,1-.12-.08.1.1,0,0,1,.08-.12c1.34-.27,2.12-1.56,2.87-2.8l.51-.82a8.77,8.77,0,0,1,7.81-4.1,6.84,6.84,0,0,1,6.23,5.86,11.64,11.64,0,0,1-.81,4.47,18.58,18.58,0,0,0-.74,2.82,9,9,0,0,0,9.79,10.37.1.1,0,0,1,.11.09A.09.09,0,0,1,445.31,152.93Z"/><path class="cls-24" d="M460.16,141.81a2.58,2.58,0,0,1-.68,0s-.06,0-.05-.07a.05.05,0,0,1,.07-.05,3.57,3.57,0,0,0,2.74-1,7.36,7.36,0,0,0,1.69-2.49,11.09,11.09,0,0,0,1-6.33,6.88,6.88,0,0,0-3.6-5.1,2.65,2.65,0,0,0-2.22-.16,1.69,1.69,0,0,0-.57,2.37.94.94,0,0,0,.89.43.54.54,0,0,0,.39-.37.37.37,0,0,0-.07-.38.05.05,0,0,1,0-.08.05.05,0,0,1,.08,0,.5.5,0,0,1,.1.5.68.68,0,0,1-.48.45,1.07,1.07,0,0,1-1-.48,1.72,1.72,0,0,1-.24-1.41,1.7,1.7,0,0,1,.86-1.14,2.75,2.75,0,0,1,2.33.16,7,7,0,0,1,3.66,5.19,11.15,11.15,0,0,1-1,6.4,7.5,7.5,0,0,1-1.72,2.53A3.91,3.91,0,0,1,460.16,141.81Z"/><path class="cls-24" d="M460.32,148a.91.91,0,0,1-.69-.19.69.69,0,0,1-.15-.9.53.53,0,0,1,.48-.22.49.49,0,0,1,.39.23.05.05,0,0,1,0,.08.07.07,0,0,1-.09,0,.31.31,0,0,0-.29-.16.41.41,0,0,0-.37.16.57.57,0,0,0,.13.74.87.87,0,0,0,.81.11,1.14,1.14,0,0,0,.67-.67,1.12,1.12,0,0,0,0-1,1.68,1.68,0,0,0-1.55-.72,5.63,5.63,0,0,0-1.44.36l-.35.12a4.72,4.72,0,0,1-3.39.06,5,5,0,0,1-1.47-1.08c-.82-.81-2.13-2.43-1.67-4.13,0,0,0-.05.07,0a.06.06,0,0,1,0,.07c-.44,1.64.85,3.22,1.65,4a4.93,4.93,0,0,0,1.42,1.06,4.64,4.64,0,0,0,3.32-.07l.34-.12a5.85,5.85,0,0,1,1.47-.36,1.79,1.79,0,0,1,1.67.78,1.26,1.26,0,0,1,0,1.06,1.22,1.22,0,0,1-.75.74Z"/><path class="cls-24" d="M451.22,154.13a.87.87,0,0,1-.23,0,.52.52,0,0,1-.39-.28.06.06,0,0,1,0-.07s.07,0,.08,0a.41.41,0,0,0,.3.19.38.38,0,0,0,.35-.06.83.83,0,0,0,.2-.68,1.42,1.42,0,0,0-.63-1,3.65,3.65,0,0,0-1.64-.41l-.31,0a5.4,5.4,0,0,1-3.88-2,3.58,3.58,0,0,1-.59-2.46.05.05,0,0,1,.07,0s.05,0,.05.07a3.43,3.43,0,0,0,.57,2.37,5.3,5.3,0,0,0,3.8,1.93l.3,0a3.7,3.7,0,0,1,1.7.43,1.55,1.55,0,0,1,.68,1,.92.92,0,0,1-.23.78A.36.36,0,0,1,451.22,154.13Z"/><path class="cls-24" d="M455.85,147.05a5,5,0,0,1-3.07-.65,5,5,0,0,1-2.36-3.61.05.05,0,0,1,.05-.06h0s.07,0,.07.06a4.78,4.78,0,0,0,6.5,3.85,8,8,0,0,0,1-.47,7.62,7.62,0,0,1,.91-.44,2.68,2.68,0,0,1,2.09.08.06.06,0,0,1,0,.08.07.07,0,0,1-.08,0,2.54,2.54,0,0,0-2-.08c-.3.13-.6.28-.89.44a10.25,10.25,0,0,1-1,.48A5.14,5.14,0,0,1,455.85,147.05Z"/><path class="cls-20" d="M457.57,137.26a9.69,9.69,0,0,1-1.71,0,13.79,13.79,0,0,1-5.5-1.66,14.53,14.53,0,0,1-4.55-4,31,31,0,0,1-3.08-5.72l-.34-.76a21.72,21.72,0,0,0-3.8-6.21,8.34,8.34,0,0,0-6.46-2.8H432c-2.7.29-5.3,2.42-7,5.73a37.54,37.54,0,0,0-1.8,4.37,39.58,39.58,0,0,1-1.89,4.54c-1.22,2.31-2.71,3.73-4.45,4.19a.06.06,0,0,1-.07,0,.07.07,0,0,1,0-.08c1.7-.45,3.17-1.84,4.37-4.13a36.36,36.36,0,0,0,1.88-4.53,39.44,39.44,0,0,1,1.81-4.37c1.74-3.41,4.45-5.59,7.24-5.81a8.47,8.47,0,0,1,6.56,2.84,21.8,21.8,0,0,1,3.82,6.24c.11.25.23.5.34.76a30.42,30.42,0,0,0,3.07,5.7,14.15,14.15,0,0,0,4.51,4,13.6,13.6,0,0,0,5.44,1.65,6.6,6.6,0,0,0,3.47-.5,3.33,3.33,0,0,0,1.94-2.72.05.05,0,0,1,.06-.06.06.06,0,0,1,.06.06,3.41,3.41,0,0,1-2,2.83A5.54,5.54,0,0,1,457.57,137.26Z"/><path class="cls-20" d="M438.44,149.71h0c-1.11-1-3-4.93-2.58-7.65a22.71,22.71,0,0,1,1.16-4.68c.07-.21.15-.41.22-.61a11,11,0,0,0,.9-3.67,6,6,0,0,0-1.84-4.29,7.33,7.33,0,0,0-4.31-2.14,10.2,10.2,0,0,0-8.59,3.77c-.5.58-.95,1.2-1.38,1.8s-.89,1.22-1.38,1.79a6.82,6.82,0,0,1-3.74,2.46h0s0,0,0,0,0,0,0,0a6.76,6.76,0,0,0,3.69-2.43c.49-.57.94-1.19,1.38-1.79s.89-1.23,1.39-1.8a10.25,10.25,0,0,1,8.65-3.8,7.41,7.41,0,0,1,4.35,2.16,6.1,6.1,0,0,1,1.86,4.34,11.15,11.15,0,0,1-.9,3.7c-.08.2-.15.4-.22.6a22.62,22.62,0,0,0-1.16,4.67c-.37,2.65,1.49,6.62,2.56,7.59,0,0,0,0,0,0S438.45,149.71,438.44,149.71Z"/><path class="cls-20" d="M445.7,151.46h0a11.25,11.25,0,0,1-7.09-5,9.62,9.62,0,0,1-.74-8.57c.19-.46.42-.92.65-1.35a12.21,12.21,0,0,0,.89-2c1-3.14-1-6.89-4.37-8.18a9.87,9.87,0,0,0-9.57,1.92,25.07,25.07,0,0,0-3.14,3.29c-1.65,1.94-3.35,3.93-5.75,4.79a.06.06,0,0,1-.08,0,.06.06,0,0,1,0-.08c2.37-.84,4-2.74,5.69-4.75a26.67,26.67,0,0,1,3.16-3.3,10,10,0,0,1,9.69-1.94c3.39,1.31,5.43,5.12,4.45,8.33a12.86,12.86,0,0,1-.9,2c-.23.44-.46.89-.65,1.35a9.52,9.52,0,0,0,.73,8.46,11.12,11.12,0,0,0,7,5,.06.06,0,0,1,.05.07S445.73,151.45,445.7,151.46Z"/><path class="cls-20" d="M455.11,148.5a10,10,0,0,1-8.51-3.77c-2.09-2.53-3.31-6-3.72-10.56l-.09-1.07a17.78,17.78,0,0,0-.73-4.52,9.06,9.06,0,0,0-12.51-5.23c-2.64,1.27-4.49,3.72-6.27,6.1s-3.84,5.12-6.75,6.29a0,0,0,0,1,0,0s0,0,0-.05c2.89-1.16,4.84-3.75,6.73-6.27s3.63-4.84,6.29-6.12a9.13,9.13,0,0,1,12.61,5.28,17.94,17.94,0,0,1,.73,4.54l.09,1.06c.41,4.56,1.62,8,3.7,10.52,2.61,3.16,6.74,4.55,10.06,3.39,0,0,0,0,0,0a0,0,0,0,1,0,0A7.45,7.45,0,0,1,455.11,148.5Z"/><path class="cls-16" d="M433.48,164.92l-.09-.3a19,19,0,0,1-.75-5.61c0-1.21.12-2.54-.63-3.48a5.18,5.18,0,0,0-1.63-1.17,17.87,17.87,0,0,1-4.39-3.49,19.86,19.86,0,0,1-2.68-3.64,18.87,18.87,0,0,1-1.45-3.17c-.37-1.11-.66-2.24-1.05-3.34a5.39,5.39,0,0,0-.92-1.74,2.62,2.62,0,0,0-1.69-.69,5.29,5.29,0,0,0-3.65.85,6.57,6.57,0,0,0-2.61,5.21,12.45,12.45,0,0,0,1.44,5.8,10.38,10.38,0,0,0,2.07,3.07,10.62,10.62,0,0,0,2.67,1.75,26.57,26.57,0,0,0,6,2.08,6.15,6.15,0,0,1,2.6.93,5.47,5.47,0,0,1,1.4,2.09c.66,1.46,1.29,3,1.87,4.44.13.34.27.69.43,1,.79,1.66,1.72,4.41,2.92,5.74a15.65,15.65,0,0,0,1.85-2.42A10.71,10.71,0,0,1,433.48,164.92Z"/><path class="cls-25" d="M426.28,161.14c-.37-.77-1.31-1-2.09-1.39a8.15,8.15,0,0,1-4.11-5.09,16.24,16.24,0,0,1-.64-3.32c0-3.14,1.51-6.47,1.29-9.64a.13.13,0,0,0,0-.06,11,11,0,0,0-1.89-6.91c-3.24-4.16-9.75-5.07-14.54-5.81-7.05-1.1-14-2.07-20-6.2-3.81-2.62-5.47-5.4-5.94-9.79a21.55,21.55,0,0,1,0-2.17,18.63,18.63,0,0,0,3.63.83,14.3,14.3,0,0,1,5.44,2.13l.5.33a7.61,7.61,0,0,0,1.56,1,4,4,0,0,0,2.19-.05c.85-.1,1.72,0,2.58-.19a1.64,1.64,0,0,0,1-.61,1.5,1.5,0,0,0,.16-.67c0-1.17.11-2,.1-3.13a4.12,4.12,0,0,0-.14-1.31,4.56,4.56,0,0,0-1.21-1.6,38.45,38.45,0,0,1-7.12-10,11.8,11.8,0,0,0,.1-1.46,5.55,5.55,0,0,0-.67-2.89,7.49,7.49,0,0,0-2.1-2c-1-.75-2.07-1.51-3.1-2.27a6.05,6.05,0,0,1-.87-.72,6.38,6.38,0,0,1-.83-1.28A8.56,8.56,0,0,0,377,83.62,16.66,16.66,0,0,1,374.15,82a3,3,0,0,0-.95-.8,10,10,0,0,0,1.4,7.89l.35.41c-.63.39-1.33.66-1.95,1.07-6.53,4.31-10.82,10-14,17.22-1.61,3.63-1.51,5.77-1.79,9.72,0,.57-1.51,2.51-1.11,2.92a3.52,3.52,0,0,0,.69.53,45.2,45.2,0,0,0,.33,17.27c.66,3.06,1.71,6.16,3.85,8.47l.23.24c-1.16.67-2.24,1.33-3.18,1.94-4,2.6-4.44,3.89-5.51,8.53-.58,2.54-2,8.33-1.63,10.91a1.68,1.68,0,0,0,.57,1.22c.68.45,1.25.13,2.37.31.76-4.5,3.75-12.57,5.14-13.52,4-2.75,7.73-4.43,12.37-3.92a15,15,0,0,0,2.12-.09,1.26,1.26,0,0,0,.27,0,116.08,116.08,0,0,0,20.37,1.1,30.3,30.3,0,0,0,3.23-.27c1.49,2.66,4.08,4.67,6.69,6.34a26,26,0,0,0,4.45,2.37c3.1,1.21,6.52,1.44,9.67,2.51a3.29,3.29,0,0,1,1.49.84,3.19,3.19,0,0,1,.61,1.38c1,4.12-.2,8.79,2,12.4a5.61,5.61,0,0,0,3.53.1c-.08-.23-.37-1.48-.44-1.71a20.31,20.31,0,0,1,.72-13.8A3.09,3.09,0,0,0,426.28,161.14Z"/><g class="cls-26"><path class="cls-27" d="M374,110.68c.16,0,.34,0,.48,0,.39.18.11.89.47,1.11.2.13.49,0,.69.14s.17.48.27.72c.19.45.83.5,1.15.86.16.2.23.46.4.65a1.48,1.48,0,0,0,.6.3c.11,0,.24.07.32,0a.33.33,0,0,0,0-.24l-.23-3.09a.47.47,0,0,0-.08-.26.33.33,0,0,0-.14-.1l-2.26-1.2c-.45-.24-1.87-1.32-2.27-.86S373.48,110.59,374,110.68Z"/></g><g class="cls-28"><path class="cls-27" d="M375.47,110.61c0,.08.11.17.2.18s.14,0,.21,0,.25.24.3.41.17.39.35.36l.12,0c.11,0,.21.08.26.19a1.57,1.57,0,0,0,.15.32.22.22,0,0,0,.31,0s.05-.12.11-.12.08.07.12.11.16.1.25.13.19.13.14.21a4.19,4.19,0,0,0,.32-1.31.31.31,0,0,0,0-.23.45.45,0,0,0-.22-.13,14.4,14.4,0,0,1-2.35-.94c-.17-.09-.87-.6-.95-.31S375.35,110.44,375.47,110.61Z"/></g><path class="cls-29" d="M371.2,105.46c.55.55,1.07,1.08,1.61,1.58s1.11,1,1.7,1.42a20.91,20.91,0,0,0,1.82,1.25c.63.39,1.29.75,2,1.13a7.08,7.08,0,0,1-2.26-.56,9.32,9.32,0,0,1-3.69-2.81A7.18,7.18,0,0,1,371.2,105.46Z"/><path class="cls-29" d="M396,146.88l.43,2c.15.66.3,1.32.49,2s.38,1.29.59,1.93.63,1.14.85,1.82a7.32,7.32,0,0,1-1.44-1.56,9.44,9.44,0,0,1-1.12-4.07A7.1,7.1,0,0,1,396,146.88Z"/><path class="cls-29" d="M359.17,148.16a10.15,10.15,0,0,1,1.61-1.6,14,14,0,0,1,1.87-1.18,13.66,13.66,0,0,1,2.05-.86,10,10,0,0,1,2.17-.45c-.66.33-1.32.64-2,1s-1.3.63-1.93,1-1.27.67-1.9,1S359.82,147.81,359.17,148.16Z"/><g class="cls-30"><path class="cls-31" d="M388.45,113.46l-.65-1.36a1.6,1.6,0,0,1-.22-.7c0-.69.74-1.18,1.45-1.41a4.28,4.28,0,0,0,2-.94,6.11,6.11,0,0,0,.59-1.17,1.22,1.22,0,0,1,1.06-.73,1.48,1.48,0,0,1,.73.31,4.94,4.94,0,0,1,2.1,2.07,4.37,4.37,0,0,1,.11,2.1l-.13,1.21a2.25,2.25,0,0,1-.78,1.78c-.89.57-2.15-.06-3.15.3-.29.1-.54.28-.84.36a1.28,1.28,0,0,1-1.22-.32,2.63,2.63,0,0,1-.46-.77,4.64,4.64,0,0,0-1.27-1.59"/></g><g class="cls-30"><path class="cls-31" d="M389.53,114.77a7.78,7.78,0,0,1-1.76-2.72,2.18,2.18,0,0,1-.1-1.78.36.36,0,0,1,.2-.2,1.1,1.1,0,0,0,.18,0c.13-.07.1-.29.23-.37a.69.69,0,0,1,.25,0c.27-.06.3-.51.57-.55a1.8,1.8,0,0,1,.22,0c.21,0,.35-.24.55-.28s.36,0,.52,0,.19-.27.35-.31l.15,0c.18,0,.17-.3.19-.49a1.69,1.69,0,0,1,.53-.94c.11-.14.26-.28.43-.25s.27.1.33,0,0-.19,0-.26a.17.17,0,0,1,.13-.07,1.07,1.07,0,0,1,.53,0,1.17,1.17,0,0,1,.3.19A8.32,8.32,0,0,1,395,108.4a3,3,0,0,1,.52,1.1c.06.29,0,.59.09.89a6.49,6.49,0,0,1,.13.85,4.82,4.82,0,0,1-.11.85c-.06.44,0,.88-.11,1.31a1.49,1.49,0,0,1-.65,1.09,1.72,1.72,0,0,1-.67.19l-2.71.43a3.47,3.47,0,0,1-1.2.06,1.82,1.82,0,0,1-1.14-.77c-.23-.35-.37-.82-.76-1"/></g><path class="cls-29" d="M394,111.12a.42.42,0,0,1-.42,0,1.8,1.8,0,0,1-.73-.56c-.39-.46-.58-1.72.39-1.43C393.76,109.33,394.45,110.63,394,111.12Z"/><path class="cls-29" d="M392.46,108.57a.73.73,0,0,1,.31-.24.77.77,0,0,1,.41-.07,1.53,1.53,0,0,1,.73.33,1.62,1.62,0,0,1,.63,1.37,3,3,0,0,0-.85-1.1,1.83,1.83,0,0,0-.56-.34.66.66,0,0,0-.32,0A.73.73,0,0,0,392.46,108.57Z"/><g class="cls-32"><path class="cls-33" d="M386.46,101.78c.14-.2.25-.51.06-.67s-.15-.07-.21-.12c-.32-.25.13-.81-.11-1.14s-.44-.18-.6-.35-.1-.49-.22-.71a.47.47,0,0,0-.78,0c-.09-.45-.27-1-.72-1.07a1.61,1.61,0,0,1-.54-.08c-.11-.06-.18-.17-.29-.22a.59.59,0,0,0-.39,0,6,6,0,0,1-1.25.26.65.65,0,0,1-.34,0c-.09,0-.17-.09-.27-.13a.79.79,0,0,0-.73.16,2.57,2.57,0,0,0-.84,1.91,1,1,0,0,0,.18.78c.25.25.66.18,1,.12a3.34,3.34,0,0,1,2.91.68c.58.57,1,1.84,1.81,2.09a1.21,1.21,0,0,0,1.15-.34C386.54,102.59,386.12,102.28,386.46,101.78Z"/></g><path class="cls-13" d="M379,103.43a1,1,0,0,0-.57.72,1.27,1.27,0,0,0,.52,1.07,1.21,1.21,0,0,0,.66.32,1.44,1.44,0,0,0,.68-.11,1.61,1.61,0,0,0,.74-.49.89.89,0,0,0,0-1A1.85,1.85,0,0,0,379,103.43Z"/><g class="cls-34"><path class="cls-35" d="M385.36,102.14a5.44,5.44,0,0,1,0-.81,1.55,1.55,0,0,0,.07-.31c0-.11,0-.23-.15-.25s-.16,0-.22,0a.21.21,0,0,1-.07-.13,4.53,4.53,0,0,1,0-.52c0-.17-.17-.35-.34-.33s-.06,0-.08,0,0,0,0-.05,0-.25-.09-.37a.31.31,0,0,0-.28-.21c-.09,0-.17.06-.26.05-.25,0-.22-.49-.46-.56s-.27.07-.4,0-.25-.4-.46-.38-.26.22-.4.16-.1-.14-.19-.15a.19.19,0,0,0-.15.07.87.87,0,0,1-.7.13.28.28,0,0,0-.2,0c-.06,0-.09.11-.16.11s-.14-.09-.21-.06l-.06,0a2.12,2.12,0,0,0-.54,1.28.47.47,0,0,0,0,.16c.08.14.28.14.44.14a6.77,6.77,0,0,1,1.42.14,2.62,2.62,0,0,1,2.26,1.5l.35.54c.11.17.27.44.5.39S385.34,102.35,385.36,102.14Z"/></g><path class="cls-36" d="M384.82,102a3.26,3.26,0,0,0-1.36-1.88,3.56,3.56,0,0,0-1.5-.43,3,3,0,0,0-1.29.14,1.5,1.5,0,0,0-.91.88,1.82,1.82,0,0,1,1.58-.27c1.93.4,2.8,1.81,3.6,3.42C385.27,103.45,385,102.44,384.82,102Z"/><path class="cls-36" d="M380.77,99.12a.84.84,0,0,1-.12-.76,1.68,1.68,0,0,0,0,1.5.08.08,0,0,0,0,0h.06c.11,0,.63-.06.6-.25s-.24-.19-.29-.23A2,2,0,0,1,380.77,99.12Z"/><path class="cls-36" d="M379.23,99.08a2.22,2.22,0,0,0,1.21,1.1c-.11.09-.35.16-.46.25s-.1.14-.17.13-.18-.18-.21-.22a1.58,1.58,0,0,1-.24-.39,1.26,1.26,0,0,1-.13-.43C379.21,99.4,379.27,99.18,379.23,99.08Z"/><path class="cls-36" d="M382.14,98.85c-.14.23.21.75.34.92-.23.08-.54.25-.59-.09A1.45,1.45,0,0,1,382.14,98.85Z"/><g class="cls-26"><path class="cls-27" d="M379.53,89.17a8.42,8.42,0,0,1,.17,1.66c-.08.64-.52,1.37-.09,1.86.14.17.37.25.5.43.28.38.06,1,.4,1.31.16.16.42.19.61.31.5.31.49,1.13,1,1.4.31.16.69.07,1,.22s.32.28.51.39a1.72,1.72,0,0,0,.82.16l2.05,0c.23,0,.53,0,.6-.26a8.09,8.09,0,0,1-6.52-6.88c0-.31,0-1.72-.35-1.86C379.72,87.72,379.51,88.86,379.53,89.17Z"/></g><g class="cls-26"><path class="cls-27" d="M379.27,88.89c0,.15.06.3.06.46,0,.44-.33.84-.25,1.28a4.75,4.75,0,0,0,.17.49c.14.52-.17,1.06-.07,1.59.06.31.25.58.29.89s-.05.56.12.76.43.19.62.34.27.83.65,1c.08,0,.18,0,.27.07.24.12.25.54.52.6s.28-.06.41,0,.32.42.56.5.41-.1.61,0,.24.22.39.27.36-.08.54,0,.22.15.35.2a.51.51,0,0,0,.3,0L386.7,97c-1.24-.39-2.08-1.36-3.21-2a9.11,9.11,0,0,1-1.12-1.12,4.91,4.91,0,0,1-1.5-3,3.85,3.85,0,0,1-.24-1.73c.08-.37.16-1.29-.46-1.34S379.24,88.45,379.27,88.89Z"/></g><path class="cls-24" d="M381.47,93a11.93,11.93,0,0,0,2.44,2.72,6.46,6.46,0,0,0,2.28,1,5.88,5.88,0,0,0,2.85.18,3.71,3.71,0,0,0,1.81-6.2,1.69,1.69,0,0,1,.6,1.53,2.12,2.12,0,0,1-.9,1.41,1.77,1.77,0,0,1-1.15.36,2,2,0,0,1-1.59-1.34,6.82,6.82,0,0,1-.33-2.16,4.47,4.47,0,0,0-.5-2.11c-.69-1.16-2.16-1.54-3.47-1.83a3.23,3.23,0,0,0-1.07.08A4,4,0,0,0,380.5,88a4.84,4.84,0,0,0,0,1.76A9,9,0,0,0,381.47,93Z"/><path class="cls-24" d="M387.63,97.17a5.26,5.26,0,0,1-1.37,0c-2.42-.45-4-1.32-5-2.74a8,8,0,0,1-1.32-5.78,1.39,1.39,0,0,1,.34-.8.06.06,0,1,1,.09.09,1.28,1.28,0,0,0-.31.73,7.83,7.83,0,0,0,1.3,5.68c1,1.4,2.56,2.26,4.94,2.7a4.54,4.54,0,0,0,5.17-2.93s0-.06.07,0a.07.07,0,0,1,.05.08A4.55,4.55,0,0,1,387.63,97.17Z"/><path class="cls-24" d="M389.86,93.46a1.77,1.77,0,0,1-1.24-.28,2.18,2.18,0,0,1-.76-1.69c0-.27,0-.54,0-.81a6.81,6.81,0,0,0,0-1,3.77,3.77,0,0,0-3-3.11,5.13,5.13,0,0,0-4.31,1.33.11.11,0,0,1-.14,0,.09.09,0,0,1,0-.14,5.3,5.3,0,0,1,4.48-1.38,4,4,0,0,1,3.2,3.28,6.15,6.15,0,0,1,0,1c0,.26,0,.53,0,.79a2,2,0,0,0,.68,1.54,1.77,1.77,0,0,0,1.55.14A2.46,2.46,0,0,0,391.78,92a1.73,1.73,0,0,0,0-1.8.1.1,0,0,1,0-.14.1.1,0,0,1,.14,0,1.94,1.94,0,0,1,.06,2,2.66,2.66,0,0,1-1.61,1.24A2.84,2.84,0,0,1,389.86,93.46Z"/><path class="cls-37" d="M388.64,96.07h0A3.38,3.38,0,0,1,385.25,94a6.63,6.63,0,0,1-.34-1.92,7.64,7.64,0,0,0-.24-1.66,3.78,3.78,0,0,0-3.89-2.55h-.07a.08.08,0,0,1-.07,0s0-.07.06-.07h.07a3.91,3.91,0,0,1,4,2.63,8.12,8.12,0,0,1,.25,1.69,6.4,6.4,0,0,0,.32,1.89,3.27,3.27,0,0,0,3.25,2h0a3.22,3.22,0,0,0,2.76-2.57,7.53,7.53,0,0,0,.09-1.39.06.06,0,0,1,.06-.06.07.07,0,0,1,.07.06,10.08,10.08,0,0,1-.09,1.41A3.38,3.38,0,0,1,388.64,96.07Z"/><path class="cls-24" d="M354.23,168.06a5.14,5.14,0,0,1-3.39-.65,7.71,7.71,0,0,0,0,2.71.64.64,0,0,0,.2.41.69.69,0,0,0,.45.1,13.84,13.84,0,0,0,2.23,0,.55.55,0,0,0,.33-.27,3.1,3.1,0,0,0,.1-.53C354.13,169.13,354.22,168.78,354.23,168.06Z"/><path class="cls-24" d="M344.13,153.72a3.63,3.63,0,0,1-2.44-.74,6,6,0,0,0-.27,2.1.48.48,0,0,0,.12.33.5.5,0,0,0,.34.12,10.2,10.2,0,0,0,1.66.05.57.57,0,0,0,.32-.18,1.65,1.65,0,0,0,.07-.32C344,154.47,344.1,154.31,344.13,153.72Z"/><g class="cls-19"><path class="cls-18" d="M420.81,140.72a31.65,31.65,0,0,1-.64,5.8c-.42,2.18-1,4.42-.5,6.57a1,1,0,0,0,.58.1c0-.3-.23-.59-.17-.89a1.33,1.33,0,0,1,.35-.54.6.6,0,0,0,.16-.59c0-.09-.11-.16-.16-.25-.14-.28.12-.6.36-.8s.53-.47.47-.78-.2-.32-.26-.51c-.11-.4.32-.76.35-1.18s-.29-.75-.21-1.13.43-.55.43-.89-.28-.5-.36-.78a1.39,1.39,0,0,1,.05-.7A5.21,5.21,0,0,0,420.81,140.72Z"/></g><g class="cls-19"><path class="cls-18" d="M421.82,151.05c.18-.3-.11-.7,0-1s.36-.4.36-.66-.17-.36-.15-.55a.68.68,0,0,1,.07-.2,3.23,3.23,0,0,0,.13-2.29.94.94,0,0,1-.08-.33,2.17,2.17,0,0,0,0-.26,4.5,4.5,0,0,1-.07-.63,1.3,1.3,0,0,0-.09-.75c-.11-.24-.26-.45-.37-.69a10.57,10.57,0,0,1-.37-1.54c-.52-2-.38-1.15-.55-1.6a19.69,19.69,0,0,1-.14,4.09c-.12.73-.31,1.69-.45,2.42a22.45,22.45,0,0,0-.51,4c0,.65-.11,2.4.61,2a3.62,3.62,0,0,0,1.09-1c.08-.21-.08-.39.06-.61S421.71,151.23,421.82,151.05Z"/></g><g class="cls-38"><path class="cls-9" d="M396.76,133.18a5.31,5.31,0,0,0-1.3-.29,1.33,1.33,0,0,0-1,.25,1,1,0,0,0,.07,1.3,1.92,1.92,0,0,0,1.33.47,1.61,1.61,0,0,0,1.15-.35.77.77,0,0,0,0-1.09.36.36,0,0,0-.24-.11"/></g><g class="cls-38"><path class="cls-9" d="M400,130.89a3,3,0,0,0-1.12,0c-.23,0-.5.12-.56.35s.16.47.38.6a3,3,0,0,0,1.33.4c.31,0,.69-.06.77-.36s-.13-.51-.35-.65a5.21,5.21,0,0,1-.7-.38"/></g><g class="cls-38"><path class="cls-9" d="M404.87,131.9a1,1,0,0,0-.77-.11.51.51,0,0,0-.36.62.73.73,0,0,0,.69.39.83.83,0,0,0,.56-.09.51.51,0,0,0,.15-.65.51.51,0,0,0-.64-.19"/></g><g class="cls-38"><path class="cls-9" d="M410.57,132.17a4,4,0,0,0-1.1,0,.74.74,0,0,0-.62.39.68.68,0,0,0,.29.69,1.86,1.86,0,0,0,1.38.39.74.74,0,0,0,.64-.41.7.7,0,0,0-.28-.72,1.59,1.59,0,0,0-1.35-.37"/></g><path class="cls-39" d="M396.53,128.6a.12.12,0,0,0,0-.17.34.34,0,0,0-.2,0,1.62,1.62,0,0,0-.38.09c-.18.06-.38.2-.33.39s.16.18.27.22a2.36,2.36,0,0,0,.44.11c.24,0,.55,0,.64-.23a.39.39,0,0,0-.15-.43.65.65,0,0,0-.47-.1"/><path class="cls-29" d="M392.48,114.87a17.9,17.9,0,0,1-4.07-1.53,6.21,6.21,0,0,1-1.64-1.47,3.26,3.26,0,0,1-.53-1,1.36,1.36,0,0,1,.07-1.1h0a2.22,2.22,0,0,0,.71,1.86,9.09,9.09,0,0,0,1.52,1.45,19.73,19.73,0,0,0,3.92,1.74Z"/><path class="cls-29" d="M385.88,109.45c.23.08.36.17.53.24s.31.14.51.27a.63.63,0,0,1-.66.05A.65.65,0,0,1,385.88,109.45Z"/><path class="cls-24" d="M413.76,141.76c0-.15.18-3.72.18-3.72l1.65,3.07,2.84-.92L417,142.43l1.57,1.91-3-.89s-1.46,2.94-1.3,2.72a15.37,15.37,0,0,0-.31-2.81L411.27,142Z"/><path class="cls-39" d="M407.06,139.54c0-.1.08-2.46.08-2.46l1.13,2,1.87-.64-1,1.5,1.07,1.25-2-.56s-.93,2-.83,1.82a9.94,9.94,0,0,0-.23-1.86l-1.78-.85Z"/><g class="cls-38"><path class="cls-9" d="M388.79,132.74a2.36,2.36,0,0,0-1.62.13.54.54,0,0,0-.3.44c0,.28.32.42.58.51l1.29.44a2.08,2.08,0,0,0,.78.15.69.69,0,0,0,.62-.42.78.78,0,0,0-.27-.77,1.61,1.61,0,0,0-1.76-.32"/></g><g class="cls-38"><path class="cls-9" d="M392.71,129.3l-.61-.1c-.29,0-.68,0-.77.25a.53.53,0,0,0,.21.53,1.39,1.39,0,0,0,1.6.14.37.37,0,0,0,.21-.28.38.38,0,0,0-.13-.26,1.2,1.2,0,0,0-.77-.31"/></g><path class="cls-23" d="M385.76,88.59a2.7,2.7,0,0,0-.73.23,1.14,1.14,0,0,0-.3.18,1.52,1.52,0,0,0-.45,1,5.43,5.43,0,0,0,0,1.14A6.51,6.51,0,0,0,384,90a1.76,1.76,0,0,0-.65-.81,1.3,1.3,0,0,0-.8-.23c.44-.17.74-.17,1-.63a2.3,2.3,0,0,0,.21-.69,5.14,5.14,0,0,0,.07-1.11,4.43,4.43,0,0,0,.3,1.15,1.45,1.45,0,0,0,.76.78,1.76,1.76,0,0,0,.45.07Z"/><path class="cls-23" d="M387.37,90.81a1.8,1.8,0,0,0-.32.06l-.13.06a.57.57,0,0,0-.22.32,1.89,1.89,0,0,0,0,.41,1.64,1.64,0,0,0-.1-.38.62.62,0,0,0-.24-.31.6.6,0,0,0-.32-.1c.18-.05.31,0,.43-.2a.88.88,0,0,0,.11-.24,1.59,1.59,0,0,0,.07-.38,1.42,1.42,0,0,0,.08.41.55.55,0,0,0,.29.29l.19,0Z"/><path class="cls-24" d="M357.42,130.42c-.26.16-.52.32-.79.47a6.26,6.26,0,0,1-2,.59,2,2,0,0,1-2.42-1.74c0,.53.58.78,1.11.8a2,2,0,0,0,1.86-1.2c.9-2-1.06-3-1.83-4.5a3.06,3.06,0,0,1-.23-2.45c.39-1,1.44-1.59,2.2-2.37a5.25,5.25,0,0,0,1-5.46c-.58-1.61-2.13-2.59-2.78-4.16-1.1-2.63,1.39-5.54,4.12-6.36a6.77,6.77,0,0,0,2.51-1c2.05-1.74.27-5.48,1.91-7.62.79-1,2.16-1.38,3.26-2.07A24.3,24.3,0,0,0,368.09,91a10.3,10.3,0,0,1,6.47-2.57c1.75,3.15-2.46,4-3.52,6.34-1.8,4,4.21,8.79,1.78,12.41-.63.94-1.74,1.52-2.25,2.54-.82,1.66.3,3.61,1.49,5,2,2.41,4.29,4.57,6.18,7.06a15,15,0,0,1,3.46,8.56c.06,3.13-1.61,6.43-4.53,7.57-1.34.52-2.81.56-4.19,1a3.89,3.89,0,0,0-3,2.77c-.31,2.07,2.83,3.59,4.25,2a2.5,2.5,0,0,1-2.67,1.47,6.65,6.65,0,0,1-1.59-.35,8.09,8.09,0,0,1-5.4-7.41,13.86,13.86,0,0,1,.24-2.73,8.19,8.19,0,0,0,.3-2.4,7.15,7.15,0,0,0-2.05-4.1,10.82,10.82,0,0,0-1.89-1.48c-.93-.57-1.16-.46-1.42.61A5.29,5.29,0,0,1,357.42,130.42Z"/><path class="cls-24" d="M374.56,88.42a4.08,4.08,0,0,1,.8,1.63,3.41,3.41,0,0,1,0,1.82A7.23,7.23,0,0,1,373,94.6,3.34,3.34,0,0,0,371.86,96a3,3,0,0,0,.08,1.74,30.43,30.43,0,0,0,1.27,3.41,10.62,10.62,0,0,1,.86,3.55,4.73,4.73,0,0,1-1.12,3.42c-.39.47-.82.9-1.16,1.4a2.73,2.73,0,0,0-.51,1.68,2.94,2.94,0,0,0,2.05,2.7,3,3,0,0,1-2.14-2.69,2.87,2.87,0,0,1,.51-1.75c.34-.51.78-1,1.16-1.42a4.64,4.64,0,0,0,1.06-3.34,10.87,10.87,0,0,0-.88-3.48,29.39,29.39,0,0,1-1.25-3.44,3.17,3.17,0,0,1-.07-1.83,3.6,3.6,0,0,1,1.19-1.4,7.09,7.09,0,0,0,2.39-2.66,3.36,3.36,0,0,0,0-1.78A3.84,3.84,0,0,0,374.56,88.42Z"/><path class="cls-40" d="M374.51,88.92c-.08,1.08-1.17,1.78-2.19,2.15a5.71,5.71,0,0,0-2.83,1.5c-.82,1.07-.54,2.59-.1,3.86a20.48,20.48,0,0,0,1.69,3.65,22,22,0,0,1,1.66,3,4.35,4.35,0,0,1,.08,3.34c-.73,1.58-2.65,2.28-3.52,3.79-1,1.8-.21,4.16,1.21,5.68s3.31,2.48,4.95,3.76c3.42,2.67,6.33,7.78,5.55,12.23a6.92,6.92,0,0,1-3.63,5.09,15,15,0,0,1-4.17,1,7.5,7.5,0,0,0-3.93,1.56,3,3,0,0,0,1.55,5.32,5.22,5.22,0,0,0,2.85-.62"/><path class="cls-24" d="M425.31,177.34a5.58,5.58,0,0,1-3.68.4,8.67,8.67,0,0,0,.71,2.81.71.71,0,0,0,.31.37.69.69,0,0,0,.47,0,20.85,20.85,0,0,0,2.59-.77c.11-.06.26-.1.28-.23a2.34,2.34,0,0,0-.14-.5C425.6,178.58,425.5,178.09,425.31,177.34Z"/><path class="cls-24" d="M435,168.59a3.83,3.83,0,0,1-2.62,1.23,7.1,7.1,0,0,0,1.29,2.13.64.64,0,0,0,.38.22.75.75,0,0,0,.4-.17,7.56,7.56,0,0,0,1.74-1.74.24.24,0,0,0,.06-.23.85.85,0,0,0-.21-.31A9.35,9.35,0,0,1,435,168.59Z"/><path class="cls-41" d="M354,110.68a7.13,7.13,0,0,0,.92,2.49A13.82,13.82,0,0,1,356,115a2.85,2.85,0,0,1-.29,2.66,2.22,2.22,0,0,1-2.47.82,1.82,1.82,0,0,1-1.07-2.27.83.83,0,0,1,.56-.53.55.55,0,0,1,.59.4.54.54,0,0,1-.36.62"/><path class="cls-41" d="M373.49,138.59a2,2,0,0,0-1.38,1.7,1.67,1.67,0,0,0,1.27,1.71,1.46,1.46,0,0,0,1.69-1.2.82.82,0,0,0-.12-.59.67.67,0,0,0-.86-.18.66.66,0,0,0-.23.84"/><path class="cls-23" d="M377.24,87.28c-.53-.51-1.13-.93-1.68-1.41a4.16,4.16,0,0,1-1.26-1.76,7.11,7.11,0,0,0,1.07,3.72,2.34,2.34,0,0,0,1,.79,1.82,1.82,0,0,0,.83.11.63.63,0,0,0,.51-.25.38.38,0,0,0-.12-.51c0-.06-.07.2,0,.15C377.68,87.8,377.49,87.52,377.24,87.28Z"/><path class="cls-24" d="M365,129a3.26,3.26,0,0,1-.74-1.39c-.31-2-1-4-2.61-5.12-.79-.56-1.71-.94-2.52-1.47a16.42,16.42,0,0,1,.8,4.13c-.05,2.19-.87,4.29-1.26,6.45s-.27,4.63,1.26,6.21a3.45,3.45,0,0,0,2,1.07,2.41,2.41,0,0,0,2.12-.75,1.34,1.34,0,0,1-1.54-.9c-.88-2.52,2.35-3.34,3.16-5.18a2.54,2.54,0,0,0,.06-1.86A5.27,5.27,0,0,0,365,129Z"/><path class="cls-23" d="M374.69,129.28a2.7,2.7,0,0,0-.73.23,1.27,1.27,0,0,0-.29.18,1.53,1.53,0,0,0-.46,1,5.53,5.53,0,0,0,0,1.15,5.41,5.41,0,0,0-.32-1.06,1.75,1.75,0,0,0-.66-.82,1.27,1.27,0,0,0-.79-.23c.44-.17.73-.16,1-.62a2.37,2.37,0,0,0,.21-.7,5.1,5.1,0,0,0,.08-1.11,4,4,0,0,0,.3,1.15,1.37,1.37,0,0,0,.75.78,1.76,1.76,0,0,0,.45.07Z"/><path class="cls-23" d="M375.26,127a1.16,1.16,0,0,0-.31.07l-.13,0a.54.54,0,0,0-.22.33,1.8,1.8,0,0,0,0,.4,1.64,1.64,0,0,0-.1-.38.64.64,0,0,0-.24-.3.61.61,0,0,0-.33-.1c.19,0,.31,0,.43-.2a.68.68,0,0,0,.12-.24,1.76,1.76,0,0,0,.06-.39,1.12,1.12,0,0,0,.09.41.5.5,0,0,0,.29.3l.18,0Z"/><path class="cls-42" d="M369.64,144.4a4.52,4.52,0,0,1-2.55-5.88c1.28-3,5.29-3.8,7.3-6.4a6,6,0,0,0,.95-5.45,9.85,9.85,0,0,0-3.9-4.63,32.3,32.3,0,0,1-4.88-3.73,6.19,6.19,0,0,1-1.86-5.59c.56-2.18,2.65-3.54,4.2-5.17a4.17,4.17,0,0,0,1.39-3c-.09-1.3-1.15-2.28-1.85-3.37a6.33,6.33,0,0,1,.63-8"/><path class="cls-40" d="M367.7,99.55c1.29,2.68,0,4.55-2.53,5.91a11.84,11.84,0,0,0-3.64,2.27,5.93,5.93,0,0,0-1,5c.55,2.75,2.28,5,4.11,7.09,1.59,1.75,4.24,3.49,4.71,5.94.38,2-.8,4-1.77,5.85a14.11,14.11,0,0,0-1.83,5.61,7.53,7.53,0,0,0,2,5.77"/><path class="cls-42" d="M369.07,93.14a13.37,13.37,0,0,1-2.48,2A3.33,3.33,0,0,0,365,97.77c0,.89.67,1.64.85,2.51.36,1.75-1.13,3.34-2.7,4.2s-3.38,1.38-4.58,2.7a4.81,4.81,0,0,0-.87,4.95,37.07,37.07,0,0,0,2.19,3.4c1.07,2,.84,4.78-1,6-.92.6-2.24.87-2.61,1.91-.5,1.38,1.09,2.58,1.46,4s-1.6,3.67-3.11,4"/><path class="cls-40" d="M362.53,117.29a12.35,12.35,0,0,1,1.18,2.32,11.06,11.06,0,0,1,.87,3.08c.25,2.71-1.27,5.29-3.13,7.27a10.37,10.37,0,0,0-1.49,1.76,4.31,4.31,0,0,0,1.75,6.1,2.34,2.34,0,0,0,1.57.28,1.29,1.29,0,0,0,1-1.1"/><path class="cls-15" d="M365.27,105.3a2.7,2.7,0,0,0-.73.23,1.75,1.75,0,0,0-.29.18,1.53,1.53,0,0,0-.46,1,6.22,6.22,0,0,0,0,1.14,5.41,5.41,0,0,0-.32-1.06,1.8,1.8,0,0,0-.66-.82,1.33,1.33,0,0,0-.79-.22c.44-.18.73-.17,1-.63a2.28,2.28,0,0,0,.21-.7,5.05,5.05,0,0,0,.08-1.1,4,4,0,0,0,.3,1.14,1.17,1.17,0,0,0,1.21.85Z"/><path class="cls-15" d="M366.88,107.52a1.55,1.55,0,0,0-.31.06l-.13.06a.51.51,0,0,0-.22.33,1.35,1.35,0,0,0,0,.4,2.36,2.36,0,0,0-.1-.38.61.61,0,0,0-.25-.3.55.55,0,0,0-.32-.1c.19,0,.31,0,.43-.2a.74.74,0,0,0,.11-.24,1.78,1.78,0,0,0,.07-.39,1.16,1.16,0,0,0,.09.41.52.52,0,0,0,.28.3.63.63,0,0,0,.19,0Z"/><path class="cls-15" d="M359.6,125.65a1.16,1.16,0,0,0-.31.07l-.13,0a.54.54,0,0,0-.22.33,1.84,1.84,0,0,0,0,.41,1.72,1.72,0,0,0-.1-.39.64.64,0,0,0-.24-.3.61.61,0,0,0-.33-.1c.19,0,.31,0,.43-.2a.68.68,0,0,0,.12-.24,1.67,1.67,0,0,0,.06-.39,1.5,1.5,0,0,0,.09.42.49.49,0,0,0,.29.29l.18,0Z"/><path class="cls-15" d="M368.76,93.64a2,2,0,0,0-.48.09.88.88,0,0,0-.2.09.84.84,0,0,0-.34.51,2.14,2.14,0,0,0,0,.62,3,3,0,0,0-.16-.59,1,1,0,0,0-.37-.47.93.93,0,0,0-.5-.16c.29-.07.48-.06.66-.3a1.24,1.24,0,0,0,.17-.37,2.36,2.36,0,0,0,.11-.6,2,2,0,0,0,.13.64.81.81,0,0,0,.44.45,1,1,0,0,0,.29.06Z"/><path class="cls-15" d="M358.38,124.08a2.66,2.66,0,0,0-.49.1.82.82,0,0,0-.19.09.77.77,0,0,0-.34.5,2.17,2.17,0,0,0-.05.62,3,3,0,0,0-.16-.59,1,1,0,0,0-.87-.62c.29-.08.48-.06.66-.3a1.27,1.27,0,0,0,.18-.37,2.51,2.51,0,0,0,.1-.6,2.28,2.28,0,0,0,.13.64.86.86,0,0,0,.45.45,1.37,1.37,0,0,0,.28,0Z"/><path class="cls-6" d="M58.06,33.66a6.46,6.46,0,0,1,3.15,0c.85.23,2.54.71,2.86,2.16.07.31-.07,1-1.42,1.57-4.09,1.57-9.71.48-14.09.21a60.14,60.14,0,0,1-10.11-1.19A51.81,51.81,0,0,0,32.71,35c-7.1-.83-14.53,3.78-21.17,1.14A9.82,9.82,0,0,1,9.11,35c-.72-.55-.87-.75-.64-1.57A4.52,4.52,0,0,1,10.73,31a7.63,7.63,0,0,1,2.51-.36c-2.86-3.16-4.46-8.29-3.47-12.43A13.46,13.46,0,0,1,17.88,9a16.43,16.43,0,0,1,8.17-.75A12.51,12.51,0,0,1,32.74,11c2.93,2.67,3.69,6.94,4.07,10.89,1.56-3.13,5-5.78,8.28-4.64a7.08,7.08,0,0,1,4.32,5.56,14.53,14.53,0,0,1-.94,7.24,5.52,5.52,0,0,1,6.79-4C58.08,27,59.26,31,58.06,33.66Z"/><path class="cls-7" d="M36.37,18.69c.08,2.12.09,4.43-1.19,6.32a7.53,7.53,0,0,1-5.69,3,10.63,10.63,0,0,1-6.29-1.81,7.8,7.8,0,0,1-3.81-5.32,7.12,7.12,0,0,1,2.27-6.12A6.22,6.22,0,0,1,28,13.65a5.3,5.3,0,0,1,2.59,2.1A3.7,3.7,0,0,1,31.05,19a2.5,2.5,0,0,1-2.7,1.63,4.56,4.56,0,0,1-1.52-.6,1.41,1.41,0,0,1-.6-.56c-.12-.25,0-.63.34-.62a.41.41,0,0,0-.29.6,1.22,1.22,0,0,0,.61.48,4.27,4.27,0,0,0,1.49.52,2.26,2.26,0,0,0,2.35-1.57,3.35,3.35,0,0,0-.49-2.9,4.87,4.87,0,0,0-2.41-1.83,5.75,5.75,0,0,0-5.74,1.09,6.45,6.45,0,0,0-2,5.56,7.16,7.16,0,0,0,3.46,4.87,10.38,10.38,0,0,0,5.92,1.81A7.08,7.08,0,0,0,34.9,24.8a6.5,6.5,0,0,0,1.2-2.9A22.79,22.79,0,0,0,36.37,18.69Z"/><path class="cls-7" d="M43.33,29c.06,0,0,.11-.09.09h0c-.12-.11,0-.23.08-.28a1.62,1.62,0,0,0,.18-.2.88.88,0,0,0,.15-.49,1.1,1.1,0,0,0-.35-.88,1.3,1.3,0,0,0-1.68.15A2.41,2.41,0,0,0,41,29.13a2.43,2.43,0,0,0,.6,1.78,3.35,3.35,0,0,0,3.74.52,12,12,0,0,0,3.51-2.74,8.81,8.81,0,0,1-3.19,3.4,4,4,0,0,1-4.75-.54,3.3,3.3,0,0,1-.8-2.45,3.11,3.11,0,0,1,1.07-2.32,1.85,1.85,0,0,1,2.51.1,1.48,1.48,0,0,1,.28,1.24,1.14,1.14,0,0,1-.3.55.69.69,0,0,1-.24.18c-.08,0-.18.1-.13.17h0S43.38,29,43.33,29Z"/><path class="cls-43" d="M98.09,86.36a6.55,6.55,0,0,1-1.57,3.26c-2.44,2.45-7.36,1.37-9.64,4a6.84,6.84,0,0,0-3-3.06c1.79-.69,3.8-.55,5.73-.56s4-.22,5.47-1.42a7.5,7.5,0,0,0,2.19-4.7c.32-1.91.24-3.83.45-5.72C99.65,78,98.37,85.17,98.09,86.36Z"/><path class="cls-44" d="M97.88,79.21c-.14.29-.55.32-.9.33a7.46,7.46,0,0,0-6.87,5.29,7.19,7.19,0,0,1,.3-4.93,4,4,0,0,1,4.38-2.1,20.63,20.63,0,0,0-5.21.14,6.54,6.54,0,0,0-4.26,2.6c.52-1,1.09-1.93,1.71-2.87a7.07,7.07,0,0,1,2.38-2.48c2-1,4.37-.36,6.48.32a3.1,3.1,0,0,0-1.06-1A9.53,9.53,0,0,0,91.65,73a3.76,3.76,0,0,0-3.37.73,6.47,6.47,0,0,1,5.81-1.35,6,6,0,0,1,4.22,4c-.31-.1,0-.47.23-.72a5.71,5.71,0,0,1,6.53-1.52,4.08,4.08,0,0,0-4.36,2.45c1.64-1.28,4.29-.8,5.78.63a7.9,7.9,0,0,1,2.09,5.53,7.75,7.75,0,0,0-6.21-4.09,6,6,0,0,1,1.41,7.52,6.1,6.1,0,0,0-1.58-4.62A6.42,6.42,0,0,0,97.88,79.21Z"/><path class="cls-45" d="M8,152.59a5.58,5.58,0,0,1-.56-3.18q.24-11.61.47-23.22c.09-4.29.26-8.85,2.79-12.43a19.44,19.44,0,0,0,1.9-2.74,10.12,10.12,0,0,0,.73-3.74,272.69,272.69,0,0,1,6.21-42c1.55-6.79,3.76-14.1,9.75-18.16a3.73,3.73,0,0,1,3-.81C26,74.85,30.76,104.52,28,133.58c-.68,7.13-1.81,14.22-2.15,21.37l-2.69-1.16c.56.24-2.8,1.91-3.27,1.94-1.05.07-2.57-1.1-3.7-1.31C13.59,153.94,9.71,155.24,8,152.59Z"/><path class="cls-7" d="M81.8,139.36a3.7,3.7,0,0,1,.82.14l.34.13a1.29,1.29,0,0,1,.59.8,3.66,3.66,0,0,1,.1,1,4.35,4.35,0,0,1,.25-.94,1.54,1.54,0,0,1,.62-.76,1.64,1.64,0,0,1,.84-.26c-.5-.12-.81-.09-1.13-.46a1.76,1.76,0,0,1-.31-.59,3.91,3.91,0,0,1-.19-.95,3.2,3.2,0,0,1-.21,1,1.3,1.3,0,0,1-.74.73,2,2,0,0,1-.48.1Z"/><path class="cls-45" d="M72.21,61.21a10.71,10.71,0,0,1,3.32,3.67c6,9.44,10.06,19.56,11.3,29.84a13,13,0,0,1-.1,4.9,6.43,6.43,0,0,1-3.15,4.08c-3.31,1.81-8.19,1-11.79-.76a26.76,26.76,0,0,1-11.06-10,30,30,0,0,1-3.67-8.28c-1.37-5.18-1-10.32-.34-15.47.51-3.82,1.35-6.64,6.4-8.46C65.9,59.69,69.61,59.62,72.21,61.21Z"/><path class="cls-46" d="M61,63.66A6.74,6.74,0,0,1,64.76,62a8.89,8.89,0,0,1,4.22.4,8.07,8.07,0,0,1,3.35,2.45,19,19,0,0,1,2.18,3.46,92.56,92.56,0,0,1,6.1,15l1.23,3.84c.41,1.29.83,2.57,1.16,3.88a16.31,16.31,0,0,1,.58,4,6.69,6.69,0,0,1-.29,2,3.34,3.34,0,0,1-1.15,1.77,2.8,2.8,0,0,1-2.18.39,6.7,6.7,0,0,1-2-.79A29.9,29.9,0,0,1,74.5,96a27.22,27.22,0,0,1-5.59-6.11,69.22,69.22,0,0,1-4.08-7.07,38.31,38.31,0,0,1-2.92-7.58,23.44,23.44,0,0,1-.68-4,19.58,19.58,0,0,1-.07-2,8.82,8.82,0,0,1,.05-1,1.91,1.91,0,0,1,.45-1,8.09,8.09,0,0,1,.82-.7c.25-.21.49-.45.74-.7a3.83,3.83,0,0,1,1.86-1.18,5.25,5.25,0,0,1,4.18,1.17A11.85,11.85,0,0,1,72,68.9a32.09,32.09,0,0,1,2,3.59,44.18,44.18,0,0,1,2.61,7.67c.66,2.62,1.17,5.25,1.7,7.88a34.74,34.74,0,0,1,.8,8l-.07.17-.23,0a29.52,29.52,0,0,1-9.7-10,38,38,0,0,1-4.11-13,6.5,6.5,0,0,1,0-3.42,2.27,2.27,0,0,1,.51-.75,1,1,0,0,1,.92-.33,3.71,3.71,0,0,1,1.51,1,15.37,15.37,0,0,1,3.67,5.84c.8,2.15,1.5,4.31,2.17,6.49a32.64,32.64,0,0,1,1.36,6.67A33.14,33.14,0,0,0,73.62,82c-.69-2.16-1.43-4.33-2.24-6.46a15.31,15.31,0,0,0-3.69-5.74,3.55,3.55,0,0,0-1.39-.93.71.71,0,0,0-.69.25,2.18,2.18,0,0,0-.45.68,6.34,6.34,0,0,0,0,3.29A37.65,37.65,0,0,0,69.32,86a26.58,26.58,0,0,0,9.15,9.44l.13-.06a29.45,29.45,0,0,0-.78-7.29c-.54-2.63-1.07-5.26-1.72-7.85a43.66,43.66,0,0,0-2.62-7.59,30.36,30.36,0,0,0-2-3.53,11.24,11.24,0,0,0-2.59-3.06A4.76,4.76,0,0,0,65.21,65a3.4,3.4,0,0,0-1.61,1c-.25.24-.49.49-.77.72a9.3,9.3,0,0,0-.77.65,2.58,2.58,0,0,0-.39,1.76,18.9,18.9,0,0,0,.06,2,21.84,21.84,0,0,0,.66,3.92,37.72,37.72,0,0,0,2.86,7.5,65.48,65.48,0,0,0,4,7,27.08,27.08,0,0,0,5.48,6,29.54,29.54,0,0,0,3.38,2.4,6.44,6.44,0,0,0,1.9.75,2.46,2.46,0,0,0,1.9-.32,3,3,0,0,0,1-1.6A6.64,6.64,0,0,0,83.24,95a16.42,16.42,0,0,0-.56-3.93c-.32-1.3-.74-2.58-1.14-3.86l-1.22-3.85a98.54,98.54,0,0,0-6-15,19.1,19.1,0,0,0-2.12-3.46,7.88,7.88,0,0,0-3.29-2.45A8.83,8.83,0,0,0,64.76,62,6.72,6.72,0,0,0,61,63.66Z"/><path class="cls-47" d="M89.5,92.87a8.07,8.07,0,0,1,3.21.06,7.12,7.12,0,0,1,4.16,3.7A45.49,45.49,0,0,1,103.22,116a9.54,9.54,0,0,1-.63,5.15,12.7,12.7,0,0,1-3.8,4c-2.69,2.06-6,4.07-9.92,3.94a12,12,0,0,1-8.38-4A17.18,17.18,0,0,1,77,117.86a25.11,25.11,0,0,1-1-9.27C76.72,102.35,80.34,94.32,89.5,92.87Z"/><path class="cls-48" d="M78.57,100.23a20.12,20.12,0,0,1,7.54-5.18,8,8,0,0,1,2.28-.55,4.1,4.1,0,0,1,2.28.49,11.76,11.76,0,0,1,3.26,3.18,20,20,0,0,1,3.15,8.29,63.69,63.69,0,0,1,.9,8.81c.1,2.93,0,6-1.47,8.7a10.81,10.81,0,0,1-7.35,5.26,9.15,9.15,0,0,1-4.73-.18A7.36,7.36,0,0,1,81,126a34.18,34.18,0,0,1-2-4c-.61-1.36-1.19-2.74-1.69-4.14a23.29,23.29,0,0,1-1.6-8.73,14.76,14.76,0,0,1,.83-4.39,9.52,9.52,0,0,1,2.5-3.79,12.47,12.47,0,0,1,4-2.47c.35-.13.69-.32,1.09-.45a4,4,0,0,1,1.23-.18,6.15,6.15,0,0,1,2.38.43,5.53,5.53,0,0,1,2,1.34l.76.85a5.43,5.43,0,0,1,.75.89,14.16,14.16,0,0,1,1.6,4.2,34.22,34.22,0,0,1,1.56,8.74c.15,3,.06,5.9-.07,8.87a5.21,5.21,0,0,1-.62,2.21A5.06,5.06,0,0,1,92,127a9,9,0,0,1-4.57,1.32,12.82,12.82,0,0,1-8.7-3.28,14.72,14.72,0,0,1-2.89-3.57,17.24,17.24,0,0,1-1.77-4.15,12.51,12.51,0,0,1,.66-8.8,13.49,13.49,0,0,1,6.53-6.35,6.74,6.74,0,0,1,4.74-.37,8,8,0,0,1,2.12,1.08,9.23,9.23,0,0,1,1.77,1.53,13.72,13.72,0,0,1,1.3,1.88,14.71,14.71,0,0,1,1,2,11.72,11.72,0,0,1,.9,4.39c.12,3,.08,5.9-.08,8.85-.09,1.48-.19,2.95-.34,4.42a2.76,2.76,0,0,1-1,2.07,5.09,5.09,0,0,1-2.31.7,12.74,12.74,0,0,1-8.92-2.52,10.71,10.71,0,0,1-4.24-7.75,15.46,15.46,0,0,1,.24-4.45,13.14,13.14,0,0,1,1.52-4.21A11,11,0,0,1,79.28,108a4.26,4.26,0,0,1,1.91-1.38,4.76,4.76,0,0,1,2.4,0,6.91,6.91,0,0,1,2.2.88,7.42,7.42,0,0,1,3,3.41,11.39,11.39,0,0,1,.73,4.39c0,1.48,0,2.94-.08,4.42a10.86,10.86,0,0,1-.94,4.34,3.13,3.13,0,0,1-1.53,1.7,3.57,3.57,0,0,1-2.37-.06,7.46,7.46,0,0,1-2-1.17A22.78,22.78,0,0,1,80.85,123a10.4,10.4,0,0,1-2.63-3.66,5.07,5.07,0,0,1,.17-4.32,2.55,2.55,0,0,1,1.81-1.33,2,2,0,0,1,2.07.74,5.75,5.75,0,0,1,.11,4.33,5.79,5.79,0,0,0-.13-4.31,2,2,0,0,0-2-.72,2.52,2.52,0,0,0-1.76,1.32,5,5,0,0,0-.13,4.26,10.15,10.15,0,0,0,2.62,3.6,20.5,20.5,0,0,0,1.75,1.46,7.24,7.24,0,0,0,2,1.14,3.38,3.38,0,0,0,2.24,0A2.93,2.93,0,0,0,88.33,124a11,11,0,0,0,.9-4.28c0-1.46,0-2.94,0-4.41a11,11,0,0,0-.72-4.29,7.18,7.18,0,0,0-2.91-3.29,6.81,6.81,0,0,0-2.11-.84,4.59,4.59,0,0,0-2.24,0,4,4,0,0,0-1.76,1.3,10,10,0,0,0-1.31,1.8,13,13,0,0,0-1.48,4.13,15.57,15.57,0,0,0-.22,4.36A10.39,10.39,0,0,0,80.64,126a12.42,12.42,0,0,0,8.65,2.43,4.7,4.7,0,0,0,2.13-.64,2.37,2.37,0,0,0,.88-1.82c.15-1.45.25-2.93.33-4.4.16-2.94.19-5.88.06-8.82a11.54,11.54,0,0,0-.88-4.25,13.45,13.45,0,0,0-1-2,11.56,11.56,0,0,0-1.26-1.82,8.44,8.44,0,0,0-1.68-1.46,7.71,7.71,0,0,0-2-1,6.29,6.29,0,0,0-4.41.37,13,13,0,0,0-6.27,6.14,12,12,0,0,0-.61,8.49,16,16,0,0,0,4.52,7.48,12.36,12.36,0,0,0,8.32,3.17,8.47,8.47,0,0,0,4.31-1.23,4.6,4.6,0,0,0,1.52-1.52,4.81,4.81,0,0,0,.57-2c.26-5.84.44-11.82-1.44-17.47a13.8,13.8,0,0,0-1.53-4.09,5.55,5.55,0,0,0-.71-.84l-.76-.84a5.17,5.17,0,0,0-1.81-1.26,5.78,5.78,0,0,0-2.21-.39,3.1,3.1,0,0,0-1.09.16c-.34.1-.68.29-1.06.44a12,12,0,0,0-3.84,2.37c-2.25,2-3.1,5-3.23,7.94a23,23,0,0,0,1.55,8.6c.5,1.4,1.07,2.77,1.68,4.12a32.8,32.8,0,0,0,2,4,7,7,0,0,0,3.23,3,8.87,8.87,0,0,0,4.55.18,10.49,10.49,0,0,0,7.15-5.1c1.43-2.62,1.55-5.65,1.47-8.57a64.87,64.87,0,0,0-.83-8.79,19.66,19.66,0,0,0-3.07-8.25,11.64,11.64,0,0,0-3.2-3.17,3.9,3.9,0,0,0-2.23-.49,7.92,7.92,0,0,0-2.26.53A20,20,0,0,0,78.57,100.23Z"/><path class="cls-45" d="M20.7,131a137.58,137.58,0,0,0,41.37-1.3,3.06,3.06,0,0,0,1.53-.56A1.79,1.79,0,0,0,64,128a73.72,73.72,0,0,0-.81-18.4c-.88-5.92-2.51-12.09-3.4-18-.86-5.76-2.58-11-3.91-16.74-2.11-9-4.49-18.21-10.26-26.27a10.42,10.42,0,0,0-2.55-2.68,11.81,11.81,0,0,0-6.27-1.66,14.24,14.24,0,0,0-12,6.81C22.49,54.48,21.49,62,20.7,76.66Z"/><path class="cls-46" d="M21.21,69.54A36.18,36.18,0,0,1,26.83,57.2a18.78,18.78,0,0,1,5-4.88,7.61,7.61,0,0,1,3.47-1.12,5.84,5.84,0,0,1,3.51,1,8.93,8.93,0,0,1,2.46,2.52,14.83,14.83,0,0,1,1.57,3.07,35.8,35.8,0,0,1,1.75,6.55,100.85,100.85,0,0,1,1.07,13.42l.23,6.72c.05,2.24.16,4.48.13,6.73a22.63,22.63,0,0,1-.26,3.38c-.18,1.13-.53,2.21-.79,3.3a50.38,50.38,0,0,1-2,6.48,17.39,17.39,0,0,1-1.58,3.06,15.69,15.69,0,0,1-2.29,2.66,55.83,55.83,0,0,1-5.45,4.47c-3.79,2.79-7.76,5.4-11,8.74l-.08.09-.13,0a2.48,2.48,0,0,1-1.56-1.58,7,7,0,0,1-.4-2.06c-.06-1.37-.13-2.73-.15-4.09-.06-2.74-.05-5.47.07-8.2a130.18,130.18,0,0,1,5.45-32.32c.78-2.63,1.69-5.23,2.63-7.82a39.05,39.05,0,0,1,3.56-7.51,15.56,15.56,0,0,1,1.24-1.72,3.37,3.37,0,0,1,.88-.69,1.68,1.68,0,0,1,1.17-.15A3,3,0,0,1,37,58.67a7.49,7.49,0,0,1,.73,2c.54,2.7,1,5.39,1.32,8.11a159.11,159.11,0,0,1,1.36,16.32,58.94,58.94,0,0,1-.25,8.19,29.43,29.43,0,0,1-.7,4,34,34,0,0,1-1.42,3.88,33,33,0,0,1-4.12,7.22,11.19,11.19,0,0,1-1.46,1.54,4.32,4.32,0,0,1-1.89,1,2.29,2.29,0,0,1-2-.56,5.34,5.34,0,0,1-1.25-1.67,5.63,5.63,0,0,0,1.25,1.67,2.33,2.33,0,0,0,2,.55,4.56,4.56,0,0,0,1.88-1,11.71,11.71,0,0,0,1.45-1.54A32.72,32.72,0,0,0,38,101.15a32.15,32.15,0,0,0,1.41-3.88,30.55,30.55,0,0,0,.68-4,57.17,57.17,0,0,0,.2-8.17,159.05,159.05,0,0,0-1.44-16.31c-.38-2.7-.8-5.41-1.36-8.08a6.66,6.66,0,0,0-.72-1.89,2.64,2.64,0,0,0-1.47-1.32,1.84,1.84,0,0,0-1.75.76,14.39,14.39,0,0,0-1.22,1.68,38.59,38.59,0,0,0-3.52,7.47C27.88,70,27,72.56,26.21,75.19a127.6,127.6,0,0,0-3.71,16,128.89,128.89,0,0,0-1.67,16.27c-.12,2.73-.12,5.45-.06,8.18,0,1.36.1,2.72.16,4.08a6.5,6.5,0,0,0,.39,2,2.07,2.07,0,0,0,1.3,1.34l-.21.06c3.24-3.39,7.23-6,11-8.8a58,58,0,0,0,5.4-4.45A15.07,15.07,0,0,0,41,107.22a17.65,17.65,0,0,0,1.55-3,49.76,49.76,0,0,0,2-6.44c.27-1.1.61-2.17.77-3.27a22.86,22.86,0,0,0,.24-3.32c0-4.46-.3-9-.39-13.42a101.32,101.32,0,0,0-1-13.38,35.61,35.61,0,0,0-1.69-6.49,11.24,11.24,0,0,0-3.86-5.45,5.55,5.55,0,0,0-3.3-1A7.22,7.22,0,0,0,32,52.56a18.81,18.81,0,0,0-5,4.77A36.1,36.1,0,0,0,21.21,69.54Z"/><path class="cls-46" d="M21.22,59.13c1.46-2.09,2.53-5.38,4.39-7.19A22.8,22.8,0,0,1,32,47.39a16.87,16.87,0,0,1,3.84-1.23,6.93,6.93,0,0,1,4,.32,7.92,7.92,0,0,1,2.9,2.66l1.12,1.57,1,1.62a46.76,46.76,0,0,1,5.23,14.15A105.23,105.23,0,0,1,52,81.36c.15,2.49.24,5,.28,7.48a37.71,37.71,0,0,1-.4,7.5,17.09,17.09,0,0,1-3.16,6.92,63.61,63.61,0,0,1-5,5.88c-3.54,3.77-7.31,7.33-11,10.93l-5.62,5.37A13.77,13.77,0,0,1,24,127.83a5.31,5.31,0,0,1-1.9.62,3.28,3.28,0,0,1-1.95-.36,3.25,3.25,0,0,0,1.94.33,5.37,5.37,0,0,0,1.88-.64,14,14,0,0,0,3-2.42l5.53-5.46c3.69-3.63,7.45-7.2,11-11a65.27,65.27,0,0,0,5-5.87,16.75,16.75,0,0,0,3-6.78,37.45,37.45,0,0,0,.34-7.42q-.08-3.73-.32-7.46a105.65,105.65,0,0,0-1.76-14.83,46.29,46.29,0,0,0-5.11-14.07l-1-1.61-1.1-1.56a7.56,7.56,0,0,0-2.76-2.57,6.57,6.57,0,0,0-3.86-.32,17.13,17.13,0,0,0-3.78,1.19A22.88,22.88,0,0,0,25.7,52C23.82,53.8,22.72,57.06,21.22,59.13Z"/><path class="cls-46" d="M33.62,64.83c.84,2.43,1.62,4.89,2.27,7.38a44.32,44.32,0,0,1,1.32,7.59,33,33,0,0,1,0,3.85,34.82,34.82,0,0,1-.46,3.83c-.39,2.51-.8,5.08-.08,7.57a10.63,10.63,0,0,1-.64-3.79,30.74,30.74,0,0,1,.31-3.83c.15-1.27.32-2.53.37-3.8a32.17,32.17,0,0,0-.07-3.8,48.45,48.45,0,0,0-1.18-7.54C34.92,69.79,34.25,67.32,33.62,64.83Z"/><path class="cls-46" d="M30.54,87.93a4.68,4.68,0,0,0-.05,1.67,4.34,4.34,0,0,0,.19.81,1.3,1.3,0,0,0,.41.7c.23.16.52,0,.72-.21a2.14,2.14,0,0,0,.5-.66,5.78,5.78,0,0,0,.5-1.59,40.49,40.49,0,0,0,.8-6.67c.06-2.21,0-4.53-1.12-6.47-.27-.46-.63-1-1-1s-.7.56-.89,1.06c-.43,1.05-.84,2.1-1.2,3.17a47.62,47.62,0,0,0-2.53,13.18A47.14,47.14,0,0,0,27,98.64c.09,1.11.23,2.23.41,3.34a5,5,0,0,0,.57,1.58,1.94,1.94,0,0,0,1.37,1,2,2,0,0,1-1.43-1,5.18,5.18,0,0,1-.63-1.59c-.23-1.11-.4-2.22-.54-3.34a44.8,44.8,0,0,1-.29-6.75A46.31,46.31,0,0,1,28.87,78.6c.38-1.08.79-2.14,1.24-3.19a3.37,3.37,0,0,1,.41-.8,1.14,1.14,0,0,1,.92-.55,1.32,1.32,0,0,1,.95.5,4.9,4.9,0,0,1,.51.74A12,12,0,0,1,34,82a39,39,0,0,1-1,6.71,6,6,0,0,1-.57,1.62,2.66,2.66,0,0,1-.57.69,1.73,1.73,0,0,1-.39.25.55.55,0,0,1-.5-.06,1.31,1.31,0,0,1-.43-.76,4.63,4.63,0,0,1-.17-.84A4.69,4.69,0,0,1,30.54,87.93Z"/><path class="cls-6" d="M98.28,183.73a26.87,26.87,0,0,0,3.2-9.74c.39-3.53-.78-7.43-3.85-9.49s-6.81-1.87-10.4-1.7l-11.14.52c-3.23.15-8.32-.26-9.1-2.11-1.17-1.66,8.52-6,13.74-6.9s10.6-1,15.76-2.23a11.48,11.48,0,0,0,5.79-2.76c2.33-2.41,2.19-6.39.15-9s-5.63-2.89-9.36-3.48c-3-.46-6.2,0-8.29-2.05-1.27-1.24-1.54-3.09-1.77-4.8-2.17-15.62-7.65-30.64-13.11-45.53a62.09,62.09,0,0,0-3.27-7.82c-3.39-6.4-7.15-10.77-14-13.84,3.06,9.62,5,18.79,7,28.88,1.31,6.4,3.45,12.7,3.93,19.2.49,6.73,2.25,11.53,0,16.8-.77,1.8-1.91,3.45-2.52,5.3s-.58,4.07.8,5.51c2.45,2.56,8.26,2.07,8.73,5.49.39,2.79-3.47,4.12-6.42,4.64a63.7,63.7,0,0,0-21.81,8.2c-2,1.23-4.18,2.88-4.34,5.15-.18,2.56,2.39,4.66,5,5.29s5.44.21,8.18.25a24.73,24.73,0,0,1,9.38,2c1,.42,2,1.07,2.14,2.08s-.79,1.76-1.59,2.38c-4.83,3.71-7.85,6.19-13.41,10C65.47,184.77,79.85,183.73,98.28,183.73Z"/><path class="cls-47" d="M42.75,98.85C44.1,96,45.62,93.12,47.94,91s5.63-3.28,8.55-2.27c3.78,1.31,5.64,5.6,7.07,9.44,3.1,8.31,6,16.74,7.54,25.51.53,3.12,1.31,7.33,1.63,9.27.58,3.44.91,6.67-.71,8.66-1.41,1.74-2.51,2.11-6.22,2.71a25.57,25.57,0,0,1-7.59.5A19.81,19.81,0,0,1,51.7,143a18.41,18.41,0,0,1-4.55-3.86c-4.57-5-9.53-12.1-11-19C35.43,117,37.23,113,38.23,110A101.74,101.74,0,0,1,42.75,98.85Z"/><path class="cls-48" d="M41.4,115.67a16.22,16.22,0,0,1,.72-7.28c.72-2.35,1.7-4.6,2.61-6.87l2.79-6.8a11.31,11.31,0,0,1,1.73-3.25,4.18,4.18,0,0,1,3.32-1.35A5.75,5.75,0,0,1,56,91.39a10.5,10.5,0,0,1,2.4,2.78,30.64,30.64,0,0,1,3,6.73,63.09,63.09,0,0,1,1.74,7.18c.46,2.42.86,4.84,1.21,7.28s.64,4.88.87,7.34a16.76,16.76,0,0,1-.46,7.38,17.24,17.24,0,0,1-4.13,6.07c-.86.87-1.7,1.72-2.63,2.54a5.27,5.27,0,0,1-1.58,1,3.1,3.1,0,0,1-1.88.11,8.83,8.83,0,0,1-1.72-.64c-.56-.25-1.1-.52-1.63-.81a16.67,16.67,0,0,1-3-2.11,11.61,11.61,0,0,1-2.32-2.89,14.39,14.39,0,0,1-1.41-3.45,35.11,35.11,0,0,1-.45-14.75,35.89,35.89,0,0,1,5.55-13.61,7.75,7.75,0,0,1,2.57-2.68,3.19,3.19,0,0,1,1.87-.37,3.73,3.73,0,0,1,1.76.68,6.31,6.31,0,0,1,2.22,3c.46,1.16.77,2.35,1.11,3.53a49.66,49.66,0,0,1,2.26,14.59,27.94,27.94,0,0,1-1.14,7.32A21.63,21.63,0,0,1,58.77,131a11,11,0,0,1-.94,1.61,2.29,2.29,0,0,1-1.69.84,4.84,4.84,0,0,1-3.42-1.24,7.44,7.44,0,0,1-2.1-3.05,15.09,15.09,0,0,1-.83-3.62q-.23-1.85-.3-3.69a45.81,45.81,0,0,1,1.76-14.64,4,4,0,0,1,1-1.61,1.8,1.8,0,0,1,1.78-.42,2.68,2.68,0,0,1,1.43,1.18,5.79,5.79,0,0,1,.64,1.74c.53,2.41.93,4.84,1.24,7.28a84.44,84.44,0,0,1,.54,14.74,85.17,85.17,0,0,0-.67-14.72c-.33-2.43-.76-4.86-1.3-7.25a5.51,5.51,0,0,0-.64-1.68,2.4,2.4,0,0,0-1.31-1.06,1.56,1.56,0,0,0-1.55.38,3.93,3.93,0,0,0-.88,1.51,45.64,45.64,0,0,0-1.68,14.53c0,1.23.15,2.45.3,3.67a15,15,0,0,0,.83,3.53,7,7,0,0,0,2,2.9,4.5,4.5,0,0,0,3.17,1.15,2,2,0,0,0,1.44-.71,11.61,11.61,0,0,0,.89-1.55,21.42,21.42,0,0,0,1.34-3.38,27,27,0,0,0,1.09-7.21,49.35,49.35,0,0,0-2.28-14.45c-.35-1.17-.66-2.36-1.11-3.48a5.88,5.88,0,0,0-2-2.78,3,3,0,0,0-3.15-.27,7.46,7.46,0,0,0-2.39,2.53,35.58,35.58,0,0,0-5.42,13.42,34.45,34.45,0,0,0,.39,14.51,12.25,12.25,0,0,0,3.58,6.11,15.16,15.16,0,0,0,2.89,2.06c.52.29,1.05.56,1.59.8a8.78,8.78,0,0,0,1.63.62,3.4,3.4,0,0,0,3.1-1c.89-.78,1.75-1.65,2.6-2.5a16.83,16.83,0,0,0,4-5.9,16.64,16.64,0,0,0,.47-7.21q-.34-3.66-.85-7.32c-.34-2.43-.73-4.85-1.19-7.26A62,62,0,0,0,61,101a30.72,30.72,0,0,0-2.91-6.67,10.3,10.3,0,0,0-2.33-2.71,5.49,5.49,0,0,0-3.22-1.23,3.92,3.92,0,0,0-3.14,1.24A11.16,11.16,0,0,0,47.7,94.8l-2.84,6.78c-.94,2.26-1.94,4.5-2.68,6.83A16.14,16.14,0,0,0,41.4,115.67Z"/><path class="cls-6" d="M101.76,139.37a12.17,12.17,0,0,0-3.9-2.29c-3.84-1.58-8-2.73-11.21-5.28-4.13-3.29-6-8.4-7.4-13.32s-2.51-10.07-5.65-14.22a4.67,4.67,0,0,0-2-1.67,2,2,0,0,0-2.38.57,2.53,2.53,0,0,0-.16,1.8c1.68,10.11,6.12,19.61,10.51,29a21.68,21.68,0,0,0,4.15,6.59,23.14,23.14,0,0,0,5.83,3.71,34,34,0,0,0,8.85,3.46C104.21,148.79,105.22,142.7,101.76,139.37Z"/><path class="cls-43" d="M66.19,51c.44,3-.84,6.74-2.17,9.45,1.73-.15,3.67-.73,5.29-.12a6.32,6.32,0,0,1-1.16-4.64,25.54,25.54,0,0,0,.29-4.85C68,46.91,64.52,44,61.3,41.54a6.89,6.89,0,0,0-3.12-1.7c.65,1.51,2.92,2.87,4.09,4.12A13.48,13.48,0,0,1,66.19,51Z"/><path class="cls-44" d="M59.63,41.39a17.88,17.88,0,0,1,13.24,6c.72-2-.38-4.3-2.12-5.66a14.83,14.83,0,0,0-6.2-2.43A12.86,12.86,0,0,1,76.27,42.8a9.4,9.4,0,0,0-4.61-5.67,8.76,8.76,0,0,0-7.5-.29,7.64,7.64,0,0,1,7.66-2.11,6.83,6.83,0,0,0-7.48-2.26A8.27,8.27,0,0,0,59,38.22c-1.2-2.6-5.19-4.51-8-3.46a3.48,3.48,0,0,1,3.35,1.05,8.89,8.89,0,0,1,1.75,3.08A3.43,3.43,0,0,0,53.38,37a7.12,7.12,0,0,0-6.31,1.81,5,5,0,0,0-.8,6c-.25-1.32.92-2.52,2.18-3.16A9,9,0,0,1,54.82,41a7.27,7.27,0,0,0-4.33,3.84,6.65,6.65,0,0,0,.11,5.6c0-2.21,1.5-4.19,3.24-5.68S57.28,41.37,59.63,41.39Z"/><path class="cls-7" d="M64.21,75.71a4.43,4.43,0,0,1-.81-.14l-.34-.13a1.32,1.32,0,0,1-.58-.79,3.66,3.66,0,0,1-.1-1,5,5,0,0,1-.24.94,1.57,1.57,0,0,1-.62.75,1.73,1.73,0,0,1-.84.26c.5.11.81.08,1.13.46a1.78,1.78,0,0,1,.3.58,3.34,3.34,0,0,1,.19.94,3.19,3.19,0,0,1,.21-1,1.34,1.34,0,0,1,.73-.73,2.54,2.54,0,0,1,.48-.09Z"/><path class="cls-7" d="M88.92,177.07a5.46,5.46,0,0,1,1.22.2,2.85,2.85,0,0,1,.51.2,2,2,0,0,1,.88,1.19,5.21,5.21,0,0,1,.14,1.47,6.89,6.89,0,0,1,.37-1.4A2.33,2.33,0,0,1,93,177.6a2.4,2.4,0,0,1,1.25-.38c-.74-.18-1.21-.13-1.68-.7a2.43,2.43,0,0,1-.46-.87,5.28,5.28,0,0,1-.29-1.41,4.62,4.62,0,0,1-.31,1.51,2,2,0,0,1-1.1,1.1,3.4,3.4,0,0,1-.72.14Z"/><path class="cls-7" d="M46.12,163.86a3.7,3.7,0,0,1,.74.13,1.57,1.57,0,0,1,.3.12,1.15,1.15,0,0,1,.54.72,3.4,3.4,0,0,1,.09.9,3.75,3.75,0,0,1,.22-.86,1.44,1.44,0,0,1,.56-.68,1.56,1.56,0,0,1,.77-.24c-.45-.1-.74-.08-1-.42A1.68,1.68,0,0,1,48,163a3.64,3.64,0,0,1-.17-.86,2.61,2.61,0,0,1-.19.92,1.19,1.19,0,0,1-.67.67,1.63,1.63,0,0,1-.44.08Z"/><path class="cls-7" d="M93,172.92a2.36,2.36,0,0,1,.52.09l.21.08a.85.85,0,0,1,.38.51,2.56,2.56,0,0,1,.06.62,2.44,2.44,0,0,1,.15-.59,1,1,0,0,1,.4-.48,1.07,1.07,0,0,1,.53-.17c-.32-.07-.52,0-.72-.29a1.09,1.09,0,0,1-.19-.37,2.06,2.06,0,0,1-.12-.6,2.28,2.28,0,0,1-.13.64.87.87,0,0,1-.47.47,2.84,2.84,0,0,1-.31.06Z"/><path class="cls-7" d="M56.52,71.16a1.77,1.77,0,0,1,.46.08.56.56,0,0,1,.18.07.7.7,0,0,1,.33.44,2.51,2.51,0,0,1,.06.55,2.2,2.2,0,0,1,.13-.52.85.85,0,0,1,.35-.42.87.87,0,0,1,.46-.15c-.27-.06-.45,0-.62-.25a1,1,0,0,1-.17-.33,1.93,1.93,0,0,1-.11-.52,1.8,1.8,0,0,1-.11.56.75.75,0,0,1-.41.41,1.28,1.28,0,0,1-.27,0Z"/><path class="cls-7" d="M62.29,70.87c-.14-.05-.28.08-.31.22a.47.47,0,0,0,.32.53.51.51,0,0,0,.59-.25.44.44,0,0,0-.23-.57.49.49,0,0,0-.6.2"/><path class="cls-7" d="M44.62,162.59c-.09,0-.2.06-.22.16a.34.34,0,0,0,.23.37.35.35,0,0,0,.41-.18.31.31,0,0,0-.16-.39.33.33,0,0,0-.42.14"/><path class="cls-7" d="M88.18,165.2c-.16-.06-.32.1-.36.25a.56.56,0,0,0,.37.61.58.58,0,0,0,.68-.29.51.51,0,0,0-.26-.64.55.55,0,0,0-.69.23"/><path class="cls-7" d="M80.54,133.54a7,7,0,0,1-1.57-.27,3.23,3.23,0,0,1-.65-.25,2.51,2.51,0,0,1-1.13-1.53,7.09,7.09,0,0,1-.19-1.9,7.9,7.9,0,0,1-.47,1.81,3,3,0,0,1-1.19,1.45,3.13,3.13,0,0,1-1.62.5c1,.23,1.56.17,2.17.89a3.44,3.44,0,0,1,.59,1.12,7.17,7.17,0,0,1,.37,1.83,5.85,5.85,0,0,1,.4-1.95,2.51,2.51,0,0,1,1.41-1.41,4.27,4.27,0,0,1,.93-.19C79.88,133.61,80.26,133.58,80.54,133.54Z"/><path class="cls-7" d="M70.7,118.76a3.28,3.28,0,0,1,.82.14,1.4,1.4,0,0,1,.34.13,1.32,1.32,0,0,1,.59.8,3.62,3.62,0,0,1,.1,1,5.09,5.09,0,0,1,.24-.95,1.65,1.65,0,0,1,1.47-1c-.5-.12-.82-.09-1.13-.47a1.72,1.72,0,0,1-.31-.58,3.48,3.48,0,0,1-.19-1,3.19,3.19,0,0,1-.21,1,1.34,1.34,0,0,1-.74.74,2.5,2.5,0,0,1-.49.09Z"/><path class="cls-7" d="M78.52,128.35a2.33,2.33,0,0,1,.46.08.7.7,0,0,1,.2.08.72.72,0,0,1,.33.45,2.09,2.09,0,0,1,.06.56,2,2,0,0,1,.14-.53.82.82,0,0,1,.35-.43.94.94,0,0,1,.48-.15c-.28-.07-.46,0-.64-.26a.93.93,0,0,1-.18-.34,1.93,1.93,0,0,1-.11-.53,1.62,1.62,0,0,1-.12.57.74.74,0,0,1-.41.42,1.37,1.37,0,0,1-.28,0Z"/><path class="cls-7" d="M84.06,135.76a4.94,4.94,0,0,1,1,.17,2.63,2.63,0,0,1,.42.17,1.57,1.57,0,0,1,.74,1,4.29,4.29,0,0,1,.12,1.24,6,6,0,0,1,.31-1.18,1.93,1.93,0,0,1,.78-.94,2.07,2.07,0,0,1,1-.33c-.62-.14-1-.1-1.41-.58a2.29,2.29,0,0,1-.39-.72,4.93,4.93,0,0,1-.24-1.19,3.69,3.69,0,0,1-.26,1.27,1.62,1.62,0,0,1-.92.91,2.46,2.46,0,0,1-.6.12Z"/><path class="cls-7" d="M93,140.13a2.62,2.62,0,0,1,.56.09,1.57,1.57,0,0,1,.23.09.89.89,0,0,1,.4.55,2.46,2.46,0,0,1,.07.67,3.33,3.33,0,0,1,.16-.64,1.09,1.09,0,0,1,.43-.52,1.06,1.06,0,0,1,.57-.17c-.34-.08-.55-.06-.77-.32a1.28,1.28,0,0,1-.21-.4,2.8,2.8,0,0,1-.13-.64,2.07,2.07,0,0,1-.14.69.94.94,0,0,1-.5.5,1.28,1.28,0,0,1-.33.06Z"/><path class="cls-7" d="M84.17,133.05c-.14-.06-.29.08-.32.22a.49.49,0,0,0,.34.54.5.5,0,0,0,.6-.25.47.47,0,0,0-.23-.58.5.5,0,0,0-.62.21"/><path class="cls-7" d="M62.5,82.7c-.07,0-.14,0-.16.11a.23.23,0,0,0,.16.26.25.25,0,0,0,.3-.12.22.22,0,0,0-.12-.28.24.24,0,0,0-.3.1"/><path class="cls-7" d="M56.37,68.53c-.06,0-.14,0-.15.11a.23.23,0,0,0,.16.26.24.24,0,0,0,.29-.12.22.22,0,0,0-.11-.29.25.25,0,0,0-.3.1"/><path class="cls-47" d="M101,120.5a9.39,9.39,0,0,1,8.88,3.17c1.84,2.25,2.41,5,3.33,7.51a30.81,30.81,0,0,0,2,4.32q-4.2,1-8.51,1.7a33.55,33.55,0,0,1-9,.55c-4.49-.47-10.11-3.48-7.92-7.33C91.61,127.14,96.19,121.59,101,120.5Z"/><path class="cls-49" d="M90.26,131.71a37.17,37.17,0,0,1,5-5.55,7.75,7.75,0,0,1,3.2-2.12,5.47,5.47,0,0,1,3.91.55,6.17,6.17,0,0,1,2.51,2.85,19.07,19.07,0,0,1,1.19,3.48,21,21,0,0,1,.52,3.6c0,.31,0,.61,0,.91a2.63,2.63,0,0,1-.1.92,1.16,1.16,0,0,1-.73.62,4.27,4.27,0,0,1-.94.21,4.38,4.38,0,0,0,.91-.28,1,1,0,0,0,.63-.59,2.52,2.52,0,0,0,0-.87c0-.3-.05-.6-.08-.9a21.12,21.12,0,0,0-.66-3.53,21.34,21.34,0,0,0-1.23-3.38,5.7,5.7,0,0,0-2.34-2.61,5,5,0,0,0-3.51-.54,7.76,7.76,0,0,0-3,2A52.13,52.13,0,0,0,90.26,131.71Z"/><path class="cls-49" d="M93.54,125.21a12.44,12.44,0,0,1,6.23-3.1,9.54,9.54,0,0,1,3.61.09,6.28,6.28,0,0,1,3.15,1.7,8.21,8.21,0,0,1,1.73,3,23.28,23.28,0,0,1,.87,3.25,26.59,26.59,0,0,1,.39,3.32,4.44,4.44,0,0,1-.81,3.2,4.44,4.44,0,0,0,.55-3.18,25.92,25.92,0,0,0-.54-3.27,27.45,27.45,0,0,0-.92-3.18,7.76,7.76,0,0,0-1.66-2.79c-1.52-1.64-4-2-6.31-1.75A13.6,13.6,0,0,0,93.54,125.21Z"/><path class="cls-47" d="M19.27,156.06c10,1.08,13.69.47,22.36.51a29.77,29.77,0,0,0,7.89-.74,10.77,10.77,0,0,0,6.29-4.11c2.17-3.33,2-7.64.79-11.17-1.72-4.92-3.43-9.84-5.52-14.64-1.79-4.12-4-8.32-8-11A10.6,10.6,0,0,0,38,113.06,12.42,12.42,0,0,0,33,114a24.26,24.26,0,0,0-7.32,4.2,22.46,22.46,0,0,0-5.94,7c-2.22,4-1.16,15.15-1.16,21.21C18.62,146.34,18.6,156,19.27,156.06Z"/><path class="cls-49" d="M18.62,132.52A43,43,0,0,1,26,121.27c.78-.84,1.59-1.67,2.45-2.44a15.17,15.17,0,0,1,2.81-2.13,9.28,9.28,0,0,1,3.47-1.14,11.49,11.49,0,0,1,3.7.2,11.92,11.92,0,0,1,6.17,3.51,21,21,0,0,1,3.78,5.63,29.5,29.5,0,0,1,2.22,12.89c0,2.19-.13,4.36-.38,6.55A13.4,13.4,0,0,1,48,150.59a11.05,11.05,0,0,1-2.48,2.49,9.29,9.29,0,0,1-3.34,1.5,27.73,27.73,0,0,1-7.38.32l-7.35-.31c-1.22-.06-2.44-.1-3.68-.17a7.9,7.9,0,0,1-3.63-.91,2,2,0,0,1-1-1.55c-.05-.58,0-1.11-.06-1.63a19.27,19.27,0,0,1-.07-3.31,24,24,0,0,1,1.41-6.46,48,48,0,0,1,6.67-11.68c1.33-1.8,2.73-3.74,4.94-4.9a9.38,9.38,0,0,1,7.27-.76,7.93,7.93,0,0,1,3.11,1.87A8.53,8.53,0,0,1,44.32,128a21.34,21.34,0,0,1,1.42,6.45,20.74,20.74,0,0,1-.28,6.57,7.82,7.82,0,0,1-1.56,3,14.61,14.61,0,0,1-2.58,2.38c-.94.7-1.94,1.34-2.94,2s-2,1.27-3.08,1.81a12.52,12.52,0,0,1-1.69.7,5.39,5.39,0,0,1-1.85.36,4.37,4.37,0,0,1-1.81-.52,8.92,8.92,0,0,1-1.55-.92A7.41,7.41,0,0,1,25.25,144a15.7,15.7,0,0,1,1.63-6.38,54,54,0,0,1,3-6c.57-1,1.15-1.92,1.79-2.86a6.42,6.42,0,0,1,2.59-2.32,3.07,3.07,0,0,1,1.85,0,5.39,5.39,0,0,1,1.61.8A4.67,4.67,0,0,1,39.55,130c.5,2.18-.48,4.36,0,6.52-.54-2.16.42-4.36-.1-6.5a4.68,4.68,0,0,0-1.83-2.74,5.27,5.27,0,0,0-1.58-.77,2.93,2.93,0,0,0-1.76,0,6.3,6.3,0,0,0-2.49,2.28c-.63.93-1.2,1.9-1.75,2.87a54.12,54.12,0,0,0-2.94,6,15.5,15.5,0,0,0-1.57,6.3,7.11,7.11,0,0,0,3,5.59,8.67,8.67,0,0,0,1.5.88,4,4,0,0,0,1.66.48,4.91,4.91,0,0,0,1.71-.34,13.2,13.2,0,0,0,1.64-.69c1.06-.53,2-1.17,3-1.8s2-1.28,2.91-2a13.88,13.88,0,0,0,2.51-2.32,7.37,7.37,0,0,0,1.48-2.89,20.19,20.19,0,0,0,.24-6.45,20.74,20.74,0,0,0-1.41-6.34,8.31,8.31,0,0,0-1.77-2.75,7.43,7.43,0,0,0-2.93-1.75,8.83,8.83,0,0,0-6.84.75c-2.08,1.09-3.43,2.95-4.76,4.77A47.76,47.76,0,0,0,21,140.72a23.64,23.64,0,0,0-1.4,6.33,18.33,18.33,0,0,0,.05,3.23c.07.56,0,1.13.06,1.63a1.46,1.46,0,0,0,.73,1.22,7.52,7.52,0,0,0,3.36.83c1.21.08,2.45.12,3.67.18l7.34.33a27.3,27.3,0,0,0,7.24-.28,9.54,9.54,0,0,0,5.57-3.8,13,13,0,0,0,2.19-6.1c.25-2.15.34-4.33.4-6.5.07-4.33-.31-8.75-2.15-12.78a20.63,20.63,0,0,0-3.71-5.56,11.73,11.73,0,0,0-6-3.45,11.16,11.16,0,0,0-3.6-.22,9,9,0,0,0-3.38,1.08,14.81,14.81,0,0,0-2.8,2.07c-.87.77-1.69,1.58-2.47,2.42A43.06,43.06,0,0,0,18.62,132.52Z"/><path class="cls-47" d="M20.81,122.9c-1.78,3.82-1.4,9.69-1.52,13.78q-.11,3.57.1,7.14c.11,2.15.95,4.79.66,6.9-.35,2.58-3.8,3.31-4.43.46-.92-4.11.18-9.45.83-13.56A55,55,0,0,1,20.81,122.9Z"/><path class="cls-47" d="M18.13,155.36A4.12,4.12,0,0,1,16.26,154a3.8,3.8,0,0,1-.54-1.6,20.73,20.73,0,0,1,.2-7.77q.58,3,1.27,5.89a5.22,5.22,0,0,0,1.34,2.84,8.9,8.9,0,0,1-.3-2.51l1.06,3.29a3.2,3.2,0,0,0,1.81,2.33C20.36,156.65,18.85,155.64,18.13,155.36Z"/><path class="cls-46" d="M19.35,150.68a6.73,6.73,0,0,1-3.46-3.45,15.51,15.51,0,0,1-1.25-4.7c-.31-3.22-.37-6.42-.47-9.63-.14-6.43.1-12.86.56-19.27s1.31-12.8,2.46-19.14c.57-3.17,1.2-6.32,1.92-9.46s1.54-6.26,2.43-9.36c-.68,3.15-1.39,6.28-2,9.44s-1.18,6.32-1.67,9.49c-1,6.34-1.77,12.7-2.23,19.09s-.77,12.79-.78,19.2c0,3.2,0,6.42.2,9.6a15.5,15.5,0,0,0,1,4.65A6.81,6.81,0,0,0,19.35,150.68Z"/><path class="cls-46" d="M13.9,154a11,11,0,0,1-2.21-3.83,29.23,29.23,0,0,1-1-4.27,83.77,83.77,0,0,1-1.09-8.65,81.68,81.68,0,0,1-.17-8.71,71.78,71.78,0,0,1,.77-8.67c0,1.45-.08,2.89-.06,4.34s0,2.89,0,4.33c.06,2.89.17,5.77.39,8.65s.52,5.74.87,8.61a27.29,27.29,0,0,0,.77,4.24A11.93,11.93,0,0,0,13.9,154Z"/><path class="cls-43" d="M21.49,152.82c-.22,5.52,2.23,10.78,5,15.54a19.25,19.25,0,0,0-8.73,2.14c1.66-2.5,1.65-5.75,1.16-8.71s-1.4-5.89-1.36-8.89c.09-7.23,5.54-13.12,10.65-18.24,1.45-1.46,3.05-3.15,5.09-3.65-.85,2.88-4.52,5.77-6.33,8.27C24.11,143.28,21.69,147.8,21.49,152.82Z"/><path class="cls-44" d="M31.09,134.1A30.3,30.3,0,0,0,9.3,147.45c-1.6-3.59-.11-8,2.65-10.77s6.55-4.3,10.28-5.51A21.42,21.42,0,0,0,2.6,139.51,17.25,17.25,0,0,1,9.54,128.3a14.43,14.43,0,0,1,12.9-1.81,12.74,12.74,0,0,0-13.62-2.58c2.23-4.36,7.75-6.51,12.52-5.41s8.62,5,10.26,9.66c1.6-5,8.15-9.17,13.18-7.71a5.8,5.8,0,0,0-5.61,2.49,17.23,17.23,0,0,0-2.47,6c.46-2,2.45-3.29,4.41-3.89a11.83,11.83,0,0,1,11.22,2.25,9.72,9.72,0,0,1,2.47,10.91c.2-2.48-2-4.48-4.34-5.45a14.76,14.76,0,0,0-11.12-.09,12.8,12.8,0,0,1,9,16.66c-.39-4.07-3.34-7.45-6.62-9.89S35.15,133.66,31.09,134.1Z"/><path class="cls-50" d="M81.44,161.59c-.39-1.08-.65-2.15-.94-3.28a33.27,33.27,0,0,1-.81-8.62c0-3.27.11-6.57.29-9.83.06-1.15.06-2.31.1-3.47a3.28,3.28,0,0,0-.1-1.21c0,4-.58,7.93-.77,11.92-.15,3.33-.59,6.81,0,10.12C79.39,158.53,79.85,161,81.44,161.59Z"/><path class="cls-50" d="M84.79,162.69c-.58.07-.78,0-.87-.59-.37-2.19.29-4.65.75-6.77a49,49,0,0,1,3.91-11.26c.89-1.79,1.72-4.19,3.27-5.52a7.77,7.77,0,0,0-1,1.64c-.68,1.12-1.16,2.34-1.77,3.49A34.79,34.79,0,0,0,87,149a39.21,39.21,0,0,0-2.3,10.41c0,.7,0,1.41,0,2.12A11.35,11.35,0,0,0,84.79,162.69Z"/><path class="cls-24" d="M79.87,145.25c-.12.24-1-.06-1.14-.21a2.89,2.89,0,0,1-.49-1.78,12.07,12.07,0,0,1,.3-3.11,5,5,0,0,1,.54-1.87,1.26,1.26,0,0,1,1.31-.35c.34.2.36,1.07.41,1.41a12.56,12.56,0,0,1,0,2.21c0,.68-.07,1.39-.15,2.07a2.26,2.26,0,0,1-.37,1.2A3.25,3.25,0,0,0,79.87,145.25Z"/><path class="cls-51" d="M83.81,161.85a2.91,2.91,0,0,0,.25-1.11,15.77,15.77,0,0,1,1.75-4.54A17.28,17.28,0,0,1,89.14,152a9.59,9.59,0,0,1,4.46-2.58,16.69,16.69,0,0,0-4.42,4.93c-1.3,2.17-2.82,4.25-3.61,6.69a9,9,0,0,0-.29,1.37c0,.19,0,.53-.2.68a.65.65,0,0,1-.71.08C83.75,162.91,83.88,162,83.81,161.85Z"/><path class="cls-51" d="M83.81,163.17a.73.73,0,0,1-.35-.54,70.42,70.42,0,0,0-.51-7.69,39.14,39.14,0,0,0-2-7.77,20.27,20.27,0,0,0-1.52-2.83,9.34,9.34,0,0,1-.71-1.1,10.13,10.13,0,0,0,1.24,1.21,12.26,12.26,0,0,1,1.65,2.39,25.28,25.28,0,0,1,2.56,6.4,24.79,24.79,0,0,1,.74,4.87c-.25,1.11.19,1.24.13,2.37,0,.54-.89.61-.88,1.15C84.13,161.91,86.31,163.6,83.81,163.17Z"/><path class="cls-50" d="M81.59,162.55a18.21,18.21,0,0,0-3.65-10.61,20.46,20.46,0,0,0-5-4.63,8.45,8.45,0,0,0-3-1.58,2.9,2.9,0,0,1,.87.49c.47.28.9.63,1.37.91A19.48,19.48,0,0,1,75.81,150a16,16,0,0,1,2.76,3.74,26.35,26.35,0,0,1,1.94,4.83A11,11,0,0,1,81,161.9c0,.26-.09.59.14.7A.45.45,0,0,0,81.59,162.55Z"/><path class="cls-24" d="M72.06,146.18c-.32.08-.44.82-.48,1.09-.06.51.19.76.54,1.11a17.33,17.33,0,0,0,1.8,1.51A6.86,6.86,0,0,0,76,151.27c.6.14,1.22-.52,1.25-1.1a2,2,0,0,0-.52-1,8.75,8.75,0,0,0-3.06-2.47C73.26,146.45,72.46,146,72.06,146.18Z"/><path class="cls-51" d="M82.7,163c0,.06-.73-.24-.77-.19,0-1.73-1.17-3.35-2.17-4.7a17.89,17.89,0,0,0-3.86-3.91,15.61,15.61,0,0,0-3.61-1.74c.4.23.68.62,1.09.86a14.13,14.13,0,0,1,2.43,1.73A16.47,16.47,0,0,1,79.55,160c.37.76.73,1.52,1,2.32.12.32.18.58.5.76C81.74,163.51,82.78,163.47,82.7,163Z"/><path class="cls-52" d="M82,163c-1.08-3.61-1.48-7.95-.09-11.52a39.76,39.76,0,0,0,.13,5.23,24.44,24.44,0,0,0,.81,5.33c.11.32.44,1,.06,1.31S81.78,163.35,82,163Z"/><path class="cls-24" d="M87.51,148.39a1,1,0,0,1-1.05-.5,2.87,2.87,0,0,1,.05-1.85,12.24,12.24,0,0,1,1.19-2.88,4.94,4.94,0,0,1,1.06-1.63,1.26,1.26,0,0,1,1.36,0c.27.29,0,1.13,0,1.47a12.17,12.17,0,0,1-.66,2.1c-.24.65-.47,1.31-.75,1.94a2.23,2.23,0,0,1-.71,1A4.89,4.89,0,0,1,87.51,148.39Z"/><g class="cls-53"><path class="cls-54" d="M84.12,163.12a6.28,6.28,0,0,0,.34-1.48,18,18,0,0,1,1-3.27,23.06,23.06,0,0,1,1.28-2.59,21.07,21.07,0,0,1,2-2.76,13.83,13.83,0,0,1,3.34-3,11,11,0,0,0,1.24-.61"/><path class="cls-54" d="M72.72,152.69a3.07,3.07,0,0,0,.59.25,8.54,8.54,0,0,1,.94.51,18.52,18.52,0,0,1,2.38,1.67,13.7,13.7,0,0,1,2.21,2.35,14.12,14.12,0,0,1,2,3.34c.25.66.54,1.3.79,1.94.07.16.18.62.29.64"/><path class="cls-55" d="M79.22,143.81c1.92,1.92,2.92,4.7,3.73,7.25a28.76,28.76,0,0,1,1.45,8.63"/><path class="cls-51" d="M81.84,151.54a19.86,19.86,0,0,0-.19,8.09c.17,1.19.49,2.52.67,3.63"/></g><path class="cls-56" d="M71.81,146.44c-.14.11-.06.52,0,.66a2.09,2.09,0,0,0,.59.73c.23.21.52.31.77.5s.4.57.71.77a10.48,10.48,0,0,1,1,.54c.21.17.35.4.55.58a2.32,2.32,0,0,0,.53.35,1.43,1.43,0,0,0,1.21.06,1.06,1.06,0,0,1-.68.56,1.72,1.72,0,0,1-1.37-.43c-.61-.39-1.19-.87-1.76-1.32-.23-.18-.49-.34-.7-.54s-.45-.44-.67-.67a1.54,1.54,0,0,1-.41-1.17c0-.15,0-.51.23-.56C71.77,146.53,71.77,146.57,71.81,146.44Z"/><path class="cls-56" d="M79.89,145.21a1.65,1.65,0,0,1-.86-1.65,4.42,4.42,0,0,0,0-.63,5.37,5.37,0,0,1-.15-.67,2.43,2.43,0,0,1,.09-.61,3.18,3.18,0,0,0,0-.69,3.53,3.53,0,0,1,0-.65,3,3,0,0,1,.24-.65,2.89,2.89,0,0,0,.07-.83.93.93,0,0,1,.64-.92.93.93,0,0,0-.77.39,4.3,4.3,0,0,0-.48,1.37,13.12,13.12,0,0,0-.37,2.92,12.26,12.26,0,0,0,.07,1.36,1.72,1.72,0,0,0,.37,1.12,1,1,0,0,0,.73.24A1.59,1.59,0,0,0,79.89,145.21Z"/><path class="cls-56" d="M87.51,148.39c-.13-.17-.32-.28-.43-.47s-.08-.6-.08-.92a4.53,4.53,0,0,1,0-1,4.93,4.93,0,0,1,.31-.71,7.15,7.15,0,0,0,.2-.7,12.5,12.5,0,0,1,.61-1.41,5.46,5.46,0,0,1,.59-1.09,1.43,1.43,0,0,1,1.19-.68,2.89,2.89,0,0,0-.88,0c-.45.16-.68.66-.92,1a12.54,12.54,0,0,0-1.21,2.6,8.08,8.08,0,0,0-.53,2.22,1,1,0,0,0,.5,1,1.59,1.59,0,0,0,.41.16C87.37,148.44,87.39,148.39,87.51,148.39Z"/><path class="cls-57" d="M193.42,172.66c-2.3-3.26-3.61-7.1-4.94-10.86s-2.78-7.58-5.29-10.69a31.9,31.9,0,0,1,23.95,19c.86,2.11,1.48,4.52.6,6.62C204.94,183.47,195.66,175.83,193.42,172.66Z"/><path class="cls-44" d="M184.22,151.8a73,73,0,0,1,6.51,5.93,83.23,83.23,0,0,1,5.82,6.62,81.92,81.92,0,0,1,5,7.25,68.83,68.83,0,0,1,4.18,7.75q-2-3.93-4.34-7.65a83.61,83.61,0,0,0-5.08-7.17,84.62,84.62,0,0,0-5.73-6.67Q187.53,154.7,184.22,151.8Z"/><path class="cls-44" d="M204.89,177.29l.09.12h0a15.76,15.76,0,0,1-1.26-2.81,8.7,8.7,0,0,1-.59-3,2.8,2.8,0,0,1,.51-1.52,2.08,2.08,0,0,1,2.88-.46,2,2,0,0,1,.8,1.3,2,2,0,0,0-2.29-1.44,1.89,1.89,0,0,0-1.18.76,2.52,2.52,0,0,0-.43,1.37,8.67,8.67,0,0,0,.52,3,24.8,24.8,0,0,0,1,2.88h0Z"/><path class="cls-44" d="M201.4,171.62l.06,0h0a17.36,17.36,0,0,1-1.07-2.64,8.69,8.69,0,0,1-.45-2.83,3.2,3.2,0,0,1,1.38-2.5,2,2,0,0,1,2.62.46,1.93,1.93,0,0,0-2.5-.27,3,3,0,0,0-1.2,2.33,8.69,8.69,0,0,0,.37,2.75,28,28,0,0,0,.86,2.69v0l0,0Z"/><path class="cls-44" d="M193.77,173.14a3.5,3.5,0,0,1,.19-3,3.4,3.4,0,0,1,2.52-1.75,3.61,3.61,0,0,1,3,.86,26.06,26.06,0,0,1,2,2.38c-.77-.69-1.33-1.58-2.11-2.21a3.4,3.4,0,0,0-2.76-.74,3.24,3.24,0,0,0-2.38,1.57A3.67,3.67,0,0,0,193.77,173.14Z"/><path class="cls-44" d="M197.28,165.49c-.34-.68-.67-1.37-1-2.06a6.64,6.64,0,0,1-.51-2.25,2.73,2.73,0,0,1,.84-2.15,1.89,1.89,0,0,1,2.16-.38,1.91,1.91,0,0,0-2,.54,2.62,2.62,0,0,0-.7,2,7.09,7.09,0,0,0,.43,2.17C196.78,164.06,197,164.76,197.28,165.49Z"/><path class="cls-44" d="M190.3,166.71a2.87,2.87,0,0,1,2.55-3.89,4.38,4.38,0,0,1,2.53.84,10.3,10.3,0,0,1,1.9,1.83,14.94,14.94,0,0,0-2-1.64,4.37,4.37,0,0,0-2.4-.74,2.55,2.55,0,0,0-2.11,1.15A2.91,2.91,0,0,0,190.3,166.71Z"/><path class="cls-44" d="M193.43,160.89a10.81,10.81,0,0,1-1.91-3.41,2,2,0,0,1,.29-2,2.25,2.25,0,0,1,1.82-.68,2.4,2.4,0,0,0-1.64.83,1.77,1.77,0,0,0-.19,1.73A18.7,18.7,0,0,0,193.43,160.89Z"/><path class="cls-44" d="M188.1,161a1.27,1.27,0,0,1,0-.86,2,2,0,0,1,.34-.81,1.71,1.71,0,0,1,.66-.62,1.67,1.67,0,0,1,.91-.15,4.38,4.38,0,0,1,1.6.71,11.64,11.64,0,0,1,1.34,1.07c-.49-.29-1-.61-1.46-.87a4.64,4.64,0,0,0-1.51-.62,1.39,1.39,0,0,0-1.36.61,1.94,1.94,0,0,0-.39.72A1.36,1.36,0,0,0,188.1,161Z"/><path class="cls-44" d="M188.86,155.66l.07,0,0,0c-.21-.25-.45-.46-.68-.7a1.5,1.5,0,0,1-.43-1,1.21,1.21,0,0,1,1.47-1.14,1.23,1.23,0,0,0-1.18,1.15c0,.58.6,1,.84,1.64l0,.05,0,0Z"/><path class="cls-44" d="M198.12,177.11a2.24,2.24,0,0,1,.43-2.07,2.76,2.76,0,0,1,2-1,3.63,3.63,0,0,1,3.54,2.15,3.89,3.89,0,0,0-3.52-1.86,2.64,2.64,0,0,0-1.81.83A2.37,2.37,0,0,0,198.12,177.11Z"/><path class="cls-44" d="M186.19,156a.82.82,0,0,1-.06-.79,1,1,0,0,1,.65-.53,1.19,1.19,0,0,1,.81.17,4,4,0,0,1,.59.5c-.48-.15-.93-.51-1.34-.38A.87.87,0,0,0,186.19,156Z"/><path class="cls-44" d="M205.72,173.8a17,17,0,0,1,2.71-5.73c4.1-6.07,9.65-10.88,15.12-15.6-.32,3.77-.83,7.54-1.52,11.27-1,5.63-2.7,11.55-6.77,15.47a6.72,6.72,0,0,1-2.11,1.46c-2,.77-4.35-.22-6.07-1.17S205.29,175.74,205.72,173.8Z"/><path class="cls-57" d="M208.28,179.82c2.61-4.51,5.23-9,7.68-13.61s4.9-9.19,7.28-13.82c-2.19,4.73-4.61,9.35-7.06,13.94S211.07,175.42,208.28,179.82Z"/><path class="cls-57" d="M217.76,157.3a1.28,1.28,0,0,1,1-.27,1.39,1.39,0,0,1,.9.55,1.52,1.52,0,0,1,.27,1,2.93,2.93,0,0,1-.29,1,2.34,2.34,0,0,0-.18-1.85A1.37,1.37,0,0,0,217.76,157.3Z"/><path class="cls-57" d="M214.29,161a2.43,2.43,0,0,1,1.53-.48,2,2,0,0,1,1.47.75,2,2,0,0,1,.31,1.62c-.11.53-.28,1-.44,1.55.07-.53.18-1.06.25-1.58a1.85,1.85,0,0,0-.32-1.44,1.88,1.88,0,0,0-1.28-.71A2.71,2.71,0,0,0,214.29,161Z"/><path class="cls-57" d="M210.83,165.11a1.61,1.61,0,0,1,2-.47,2.59,2.59,0,0,1,1.33,1.71,5.61,5.61,0,0,1,0,2.16,7,7,0,0,1-.65,2.05,10,10,0,0,0,.46-2.07,5.79,5.79,0,0,0-.08-2.08,2.46,2.46,0,0,0-1.17-1.6A1.6,1.6,0,0,0,210.83,165.11Z"/><path class="cls-57" d="M206.76,170.8a2.25,2.25,0,0,1,2.2-.69,2.36,2.36,0,0,1,1.7,1.65,7.73,7.73,0,0,1,.15,2.39,8.67,8.67,0,0,1-.51,2.32,11.56,11.56,0,0,0,.32-2.33,8.09,8.09,0,0,0-.19-2.31,2.21,2.21,0,0,0-1.52-1.53A2.28,2.28,0,0,0,206.76,170.8Z"/><path class="cls-57" d="M219.6,159.76a3.06,3.06,0,0,1,.73-.79,2.16,2.16,0,0,1,1-.41,1.29,1.29,0,0,1,1.06.38,2,2,0,0,1,.32,1,2.76,2.76,0,0,0-.47-.92,1.14,1.14,0,0,0-.89-.25A3.16,3.16,0,0,0,219.6,159.76Z"/><path class="cls-57" d="M217.12,164.58a7.22,7.22,0,0,1,1.27-1,5,5,0,0,1,1.49-.69,1.53,1.53,0,0,1,1.47.71,3.25,3.25,0,0,1,.46,1.56,4.17,4.17,0,0,0-.61-1.45,1.37,1.37,0,0,0-1.28-.58,6,6,0,0,0-1.44.61C218,164,217.56,164.28,217.12,164.58Z"/><path class="cls-57" d="M214,170.39a6.72,6.72,0,0,1,1.6-1.68,3,3,0,0,1,2.27-.54,2.61,2.61,0,0,1,1.78,1.5,3.87,3.87,0,0,1,.21,2.3,4.25,4.25,0,0,0-.38-2.21,2.49,2.49,0,0,0-1.66-1.35,2.93,2.93,0,0,0-2.12.46A8.13,8.13,0,0,0,214,170.39Z"/><path class="cls-57" d="M210.26,176.6a4.17,4.17,0,0,1,1.58-1.75,3.72,3.72,0,0,1,2.33-.49,3.4,3.4,0,0,1,2.12,1.1,2.08,2.08,0,0,1,.47,1.11,2.91,2.91,0,0,1-.23,1.17,2.08,2.08,0,0,0-.39-2.15,3.24,3.24,0,0,0-2-1,3.64,3.64,0,0,0-2.21.42A4.44,4.44,0,0,0,210.26,176.6Z"/><path class="cls-10" d="M186.35,166.78a13,13,0,0,1,.38-4.17c.19-.67.65-1.44,1.34-1.36s1,.87,1.09,1.53A108.21,108.21,0,0,1,190.64,181c0-.94-1-2.22-1.35-3.07-.52-1.18-1-2.38-1.42-3.6A27.48,27.48,0,0,1,186.35,166.78Z"/><path class="cls-10" d="M191.51,168.11a13.42,13.42,0,0,1,.79-3.72,5.45,5.45,0,0,1,2.43-2.83,1.16,1.16,0,0,1,.47-.14.8.8,0,0,1,.69.57,2,2,0,0,1,.05.94,30.55,30.55,0,0,1-1,4.63l-1.94,7c-.53,1.94-.81,4.39-1.73,6.17-.44-1.31,0-3.46,0-4.83C191.24,173.33,191.26,170.71,191.51,168.11Z"/><path class="cls-10" d="M196.27,170.78a12.06,12.06,0,0,1,2.08-2.91,5.11,5.11,0,0,1,3.16-1.54,1,1,0,0,1,.63.12c.46.31.23,1,0,1.51a64.32,64.32,0,0,1-6.36,8.82c-.34.4-4,4.23-4.29,4,0,0,2.1-4.09,2.24-4.45A43,43,0,0,1,196.27,170.78Z"/><path class="cls-10" d="M201.9,173.46a8,8,0,0,1,2.31-1.17,3.46,3.46,0,0,1,2.53.18,4.54,4.54,0,0,1-2,2.27,78.26,78.26,0,0,1-7.81,4.59,34.31,34.31,0,0,1-4.83,1.44s1.85-1,2.53-1.41a34,34,0,0,0,3.61-3A32.69,32.69,0,0,1,201.9,173.46Z"/><path class="cls-10" d="M180.75,170.47a11.59,11.59,0,0,1-1.32-3.34,2.34,2.34,0,0,1,.39-2.07.53.53,0,0,1,.31-.17.64.64,0,0,1,.43.22c3.37,3.14,5,7.64,7.32,11.64.63,1.09,1.85,2.94,2.49,4-.71.1-2.43-2-3-2.44a25.28,25.28,0,0,1-2.6-2.36A26.08,26.08,0,0,1,180.75,170.47Z"/><path class="cls-10" d="M175,174a1.07,1.07,0,0,1-.32-.86.79.79,0,0,1,.33-.43c.75-.53,1.77-.17,2.59.23a52.83,52.83,0,0,1,12,7.86c-.66,0-1.41-.46-2.42-.61-.6-.08-1.47-.41-2.06-.52a22.64,22.64,0,0,1-3.87-1.15A15.19,15.19,0,0,1,175,174Z"/><path class="cls-43" d="M166,156.29c-.26,6.44,2.6,12.59,5.87,18.15a22.5,22.5,0,0,0-10.2,2.5c1.93-2.92,1.93-6.72,1.35-10.18s-1.64-6.87-1.59-10.38c.11-8.45,6.48-15.33,12.44-21.31,1.7-1.71,3.57-3.68,6-4.27-1,3.37-5.28,6.74-7.39,9.67C169.1,145.14,166.28,150.42,166,156.29Z"/><path class="cls-44" d="M177.26,134.41A35.43,35.43,0,0,0,151.8,150c-1.87-4.19-.13-9.31,3.09-12.58s7.65-5,12-6.44A25,25,0,0,0,144,140.74a20.06,20.06,0,0,1,8.1-13.1,16.83,16.83,0,0,1,15.07-2.11,14.84,14.84,0,0,0-15.9-3c2.6-5.1,9.05-7.62,14.62-6.33s10.06,5.89,12,11.28c1.87-5.82,9.53-10.71,15.4-9-2.46-.54-5,.9-6.55,2.92a19.79,19.79,0,0,0-2.88,7c.53-2.34,2.85-3.84,5.15-4.55a13.84,13.84,0,0,1,13.1,2.64A11.34,11.34,0,0,1,205,139.17c.23-2.9-2.4-5.24-5.08-6.37a17.2,17.2,0,0,0-13-.1,15,15,0,0,1,10.5,19.46c-.45-4.75-3.91-8.7-7.73-11.55S182,133.9,177.26,134.41Z"/><rect id="cadre" class="cls-1" width="467.72" height="184.25"/></svg>