<svg xmlns="http://www.w3.org/2000/svg" viewBox="0 0 524.41 269.29"><defs><style>.a{fill:#1f5888;}.b{fill:#f6cbcc;}.c{fill:#a0d2c3;}.d{fill:#519d92;}.e{fill:#ea849e;}.f{fill:#99abd0;}.g{fill:#3d78a4;}.h{fill:#4c8771;}.i{fill:#125f50;}.j{fill:#fff;}.k{fill:none;}</style></defs><title>troscolrect_cactus</title><path class="a" d="M237.34,183.78a6.8,6.8,0,0,1,2.72-3.28c-.1.35,0,.92-.14,1.26l.49-.15c0,2.24-4,5.73-2.52,1.26"/><path class="a" d="M244.27,180c.19-1.15,1.37-2.74,2.54-2.91,0,.26,0,.67,0,.89,1.79.1-.6,4.13-2.52,3.13a3,3,0,0,1,.54-1.84"/><path class="a" d="M243.18,188.15c.8-1,1.54-2.11,2.31-3.17.94.25,1.48-.31,1.69,1.13s-1.71,3.42-3.14,2.87a1,1,0,0,1,.23-1"/><path class="a" d="M251.56,182.5c-.14,0-.24.46-.24,0a8,8,0,0,1,2.49-2.44,8.18,8.18,0,0,1,.15,1.13c.07,0,.45,0,.49.05a2.45,2.45,0,0,1-3.77,2.33,5.78,5.78,0,0,1,.52-1.44"/><path class="a" d="M260.31,180.68a4.28,4.28,0,0,1,2.54-3,7.63,7.63,0,0,0-.72,1.86c.39-.22,1.07-.18,1.46-.36.47,2.81-3.81,3.13-3.28,1.45"/><path class="a" d="M253.75,190.34a5.94,5.94,0,0,1,2.73-2.93c-.14.39,0,1-.17,1.42.31-.15.74-.16,1-.29.17,2.7-4.11,3-2.49.52"/><path class="a" d="M264.87,187.24c-.2-.14-.39.22-.35-.21a5.45,5.45,0,0,1,2.94-2.9c-.07.36.12,1,0,1.44,3,1.49-6,5.35-2.57,0"/><path class="a" d="M257.94,196.17a5.27,5.27,0,0,1,2.18-1.77,5.12,5.12,0,0,1,.22.47c.33-.13,1.08-.06,1.37-.19.18,4.38-6.42,4.58-3.59.58"/><path class="a" d="M248.22,195.07c.17,0,2.19-2.6,2.15-1.26,2.68-.11-1.46,4-1.13,1.83-.64.52-1.54.16-1-.76"/><path class="a" d="M253,173.9a3.8,3.8,0,0,1,2.06-.79c-.08.19-.06.56-.22.78,1.35-.33.48,1.42-.17,1.8-1.28.76-2.38-.4-1.67-1.69"/><path class="a" d="M240.18,173.31a4.47,4.47,0,0,1,2.14-1.42c-.08.19,0,.47-.26.72,1.22-.07.93.28,1.12,1.21-.47.51-1.67,1.79-2.44,1.66-1-.18-.78-1.34-.35-2"/><path class="b" d="M302.94,216.54c1.66-2.18,3.35-5.5,5.93-6.65-.31,1.14-1.22,2-1.58,3.18.25-.17.69-.26.95-.43a13.24,13.24,0,0,1-2.15,3.24C304.54,217.71,301.48,217.63,302.94,216.54Z"/><path class="b" d="M311.3,213.22a26.29,26.29,0,0,1,4.28-5.19c-.06.14-.14.27-.2.41.39-.11.95-.11,1.37-.27.34,2-3.31,6.7-5.28,6.07C311.45,213.8,311.58,213.28,311.3,213.22Z"/><path class="b" d="M306.13,230.07a26.29,26.29,0,0,1,4.28-5.19c-.06.15-.13.28-.2.42.39-.12,1-.12,1.37-.28.34,2-3.31,6.7-5.27,6.07C306.28,230.65,306.41,230.13,306.13,230.07Z"/><path class="b" d="M310.15,220.58s2.66-3.22,3.46-3.62a2.07,2.07,0,0,0,0,.43c.31-.18.83-.23,1.13-.42a11,11,0,0,1-1.82,3.69c-.41.51-1.3,1.86-2.07,1.94C309.64,222.74,309.31,221.78,310.15,220.58Z"/><path class="b" d="M301.29,225.27s2.67-3.21,3.47-3.61a1.55,1.55,0,0,0,0,.43c.31-.19.83-.23,1.13-.42a11,11,0,0,1-1.82,3.69c-.42.51-1.3,1.86-2.08,1.94C300.79,227.44,300.46,226.48,301.29,225.27Z"/><path class="b" d="M319.38,215.82c-.29-.76,2-3.27,2.74-3.61,0,.08-.15.18-.16.26a11.56,11.56,0,0,1,2.31-1.7c.11,1.89-.94,2.34-2.19,3.86-.74.91-2.18,4.1-3.73,3.19C318.31,216.74,319,215.51,319.38,215.82Z"/><path class="b" d="M316,222.79a3,3,0,0,1-.25.51c1.5-1.24,2.4-3.36,4.13-4.25-.11.18-.18.5-.29.71.55-.12,1.07-.4,1.6-.56a2.15,2.15,0,0,0-.06.88c-.8,1.14-4.58,6.67-6.39,5.15A9,9,0,0,1,316,222.79Z"/><path class="c" d="M297.17,169.44c-7.48-4.09-16.34-2.94-23.58,1.15-12.18,6.89-14.25,22.88-12.48,35.55,2,14.2,4.52,34.18,16.26,42.65,2.57,1.86,4.56,2.14,7.86,1.63,1.92-.3,3.3-1,5.25-.61,1.3.24,2.36,1.13,3.67.66,1.94-4.94,5.18-11.05,6.73-16.13,3.12-10.2,6.15-20.08,7.55-30.7C310.08,191.16,309.79,176.32,297.17,169.44ZM265.84,179a.84.84,0,1,1,1.58.56,19.27,19.27,0,0,0-.84,2.88.84.84,0,0,1-.82.68h-.16a.85.85,0,0,1-.67-1A21.58,21.58,0,0,1,265.84,179Zm-2.54,18.27a11.32,11.32,0,0,1,0-2.73c0-.41.05-.82.05-1.21a.84.84,0,0,1,.84-.83h0a.83.83,0,0,1,.83.84c0,.42,0,.86-.05,1.3a10,10,0,0,0,0,2.33.85.85,0,0,1-.68,1h-.15A.83.83,0,0,1,263.3,197.31Zm1.9,14.56h-.08c-.76,0-.93-.79-1.11-2q0-.26-.09-.54a7.75,7.75,0,0,1-.18-1.63.84.84,0,1,1,1.67.05,6.78,6.78,0,0,0,.16,1.28c0,.2.07.4.1.59s.1.53.16.8a.82.82,0,0,1,.17.51A.94.94,0,0,1,265.2,211.87Zm2.72,15.23a.55.55,0,0,1-.18,0,.83.83,0,0,1-.82-.66c-.16-.73-.43-1.76-.83-3.13a.84.84,0,0,1,1.61-.47c.42,1.43.69,2.46.86,3.25A.83.83,0,0,1,267.92,227.1ZM275.39,179a.83.83,0,0,1,1.18-.08.84.84,0,0,1,.09,1.18,3.24,3.24,0,0,0-.26,1.92c0,.23,0,.44,0,.63a.84.84,0,0,1-.83.84h0a.85.85,0,0,1-.83-.85c0-.17,0-.36,0-.56A4.36,4.36,0,0,1,275.39,179Zm-2.13,61.82h0a.83.83,0,0,1-.83-.83,3.72,3.72,0,0,0-.28-1,5.07,5.07,0,0,1-.4-1.63.84.84,0,0,1,.81-.86h0a.85.85,0,0,1,.84.81,4,4,0,0,0,.29,1.1,4.47,4.47,0,0,1,.38,1.59A.85.85,0,0,1,273.26,240.85ZM274,195c-.47-.5-.53-1.78-.2-3.81a.86.86,0,0,1,1-.69.84.84,0,0,1,.69,1,10,10,0,0,0-.15,2.49.83.83,0,0,1-.12,1.08.85.85,0,0,1-.57.23A.82.82,0,0,1,274,195Zm.91,11.26a6.45,6.45,0,0,1-.26-2.87c0-.26,0-.49,0-.69a.84.84,0,0,1,.84-.84h0a.84.84,0,0,1,.83.85c0,.21,0,.47,0,.74a7.3,7.3,0,0,0,.09,2.06.83.83,0,0,1-.37,1.12.73.73,0,0,1-.38.09A.82.82,0,0,1,274.86,206.3Zm1.34,11.49a11.5,11.5,0,0,1-.36-3.46.84.84,0,1,1,1.68.08,9.62,9.62,0,0,0,.29,2.92.83.83,0,0,1-.58,1,.59.59,0,0,1-.23,0A.84.84,0,0,1,276.2,217.79Zm2.86,12.64V231a.83.83,0,0,1-.83.83h0a.83.83,0,0,1-.83-.83v-.56a12,12,0,0,0-.21-3.08.84.84,0,1,1,1.62-.41A13.46,13.46,0,0,1,279.06,230.43Zm11.75-56.76a.83.83,0,0,1,.89.77l.06.72a14.58,14.58,0,0,1,.1,1.78.83.83,0,0,1-.84.81h0a.83.83,0,0,1-.81-.85,14.22,14.22,0,0,0-.09-1.58c0-.25-.05-.5-.07-.75A.83.83,0,0,1,290.81,173.67ZM289.59,238a.85.85,0,0,1-.76.47.94.94,0,0,1-.36-.08.84.84,0,0,1-.39-1.12,7.83,7.83,0,0,0,.26-3c0-.34,0-.67,0-1a.84.84,0,0,1,.84-.83h0a.83.83,0,0,1,.83.84c0,.28,0,.59,0,.91A8.72,8.72,0,0,1,289.59,238Zm.83-14.84a.83.83,0,0,1-.79.57.75.75,0,0,1-.26,0,.83.83,0,0,1-.53-1.06,9.61,9.61,0,0,0,.16-2.84v-.31a.82.82,0,0,1,.8-.86.8.8,0,0,1,.87.8v.3A10.44,10.44,0,0,1,290.42,223.15Zm1-12.31a.86.86,0,0,1-.8.58,1.17,1.17,0,0,1-.26,0,.85.85,0,0,1-.54-1.06,4.45,4.45,0,0,0,0-1.48c0-.33-.05-.64-.05-.93a.85.85,0,0,1,.84-.84h0a.83.83,0,0,1,.83.84,7.63,7.63,0,0,0,.05.8A5.85,5.85,0,0,1,291.45,210.84Zm.86-10.77a.84.84,0,0,1-.82.68l-.17,0a.84.84,0,0,1-.65-1,9.3,9.3,0,0,0,.09-2c0-.26,0-.51,0-.76a.84.84,0,0,1,.83-.84h0a.85.85,0,0,1,.83.85c0,.23,0,.48,0,.72A11,11,0,0,1,292.31,200.07Zm-.22-10.51a.94.94,0,0,1-.36.08.84.84,0,0,1-.76-.48,7.59,7.59,0,0,1-.32-3.1v-.28a.79.79,0,0,1,.85-.83.84.84,0,0,1,.82.85v.29a8.27,8.27,0,0,0,.16,2.35A.84.84,0,0,1,292.09,189.56Zm7.48,40.19a10.2,10.2,0,0,0-.64,2.45.85.85,0,0,1-.83.7H298a.84.84,0,0,1-.7-1,12.74,12.74,0,0,1,.77-2.88.84.84,0,0,1,1.53.7Zm2.23-11.91a7.35,7.35,0,0,0-.27,1.8c0,.43-.07.85-.13,1.21a.83.83,0,0,1-.82.7h-.14a.85.85,0,0,1-.69-1c.05-.32.08-.68.11-1.06a7.85,7.85,0,0,1,.39-2.3.84.84,0,0,1,1.09-.47A.83.83,0,0,1,301.8,217.84Zm.67-36.36a4.49,4.49,0,0,0-.72-2.25.84.84,0,0,1,1.43-.87,6.24,6.24,0,0,1,1,3.27.84.84,0,0,1-.83.76h-.08A.85.85,0,0,1,302.47,181.48Zm2,25.25a.84.84,0,0,1-.81.63l-.21,0a.85.85,0,0,1-.61-1,12.2,12.2,0,0,0,.34-2.8.83.83,0,0,1,.84-.84h0a.84.84,0,0,1,.84.83A14.12,14.12,0,0,1,304.49,206.73Zm.81-14.2c0,.33,0,.65,0,1a.84.84,0,0,1-.81.86h0a.85.85,0,0,1-.84-.82c0-.36,0-.73,0-1.1a6.22,6.22,0,0,0-.07-1.74.84.84,0,1,1,1.63-.39A7.57,7.57,0,0,1,305.3,192.53Z"/><path class="d" d="M68.37,206.46c-.18-4.65-.19-13.09-4.34-16.1a4.69,4.69,0,0,0-6.84.92c-2.09,2.9-2.75,7.33-3.23,10.81-.86,6.11-.73,12.37-1.25,18.51-.34,4.05-.75,10.06-5,11.84a4.25,4.25,0,0,1-4.1,0c-.17-5.58-.59-11.16-.38-16.75.24-6.64,0-16.26-.19-22.91-.28-8.39-.27-13.85-1.42-22.16C40.8,164.34,40.14,158,38.1,152c-.76-2.27-2-6.56-4.81-7-5.66-.95-8,9.24-8.55,13.18-1.64,11.92-1.57,24-1.19,36.1l-.05,0a7.2,7.2,0,0,1-1.36,1.25,3.89,3.89,0,0,1-2.4-.22A6,6,0,0,1,16,191.78c-2.13-5.06-1-11.72-1.84-17.12-.44-2.94-1-6.81-3.73-8.36-6.35-3.55-7.68,4.49-7.94,9.2C2,184,2,193.89,5.11,201.43c1.69,4.11,5,8.58,9.51,9.6,2.09.47,4.2.59,6.31.91a12.84,12.84,0,0,0,3.22-.12q.11,3.66.15,7.3c.12,11.27.51,22.62.95,33.88.2,5.19-.1,10.44.2,15.62,4.3.25,9.09.58,13.31-.31,3.87-.81,4.3-3.13,4.16-7.49l-.32,3.33c.6-5.66.89-11.34,1-17l1.87-.25a33,33,0,0,0,5.24-1,24.93,24.93,0,0,0,8.81-4.76c3.73-3.14,5.52-7.28,6.73-12A79.24,79.24,0,0,0,68.37,206.46Zm-61-26.53a.5.5,0,0,1,.37-.61.51.51,0,0,1,.61.38l.06.24c.27,1.19.6,2.42,1.22,2.86,0-.17.06-.35.1-.52.08-.44.17-.87.22-1.31s.08-.8.11-1.21l.06-.75v0a.08.08,0,0,1,0,0v-.08h0c.09-.44.37-.49.54-.47s.45.14.45.56h0v.13l-.07.76c0,.42-.06.83-.11,1.24s-.14.93-.23,1.39c0,.13-.05.26-.07.39a4.48,4.48,0,0,0,1.86-2.1,8.81,8.81,0,0,1,.57-.92.5.5,0,0,1,.81.6,9.18,9.18,0,0,0-.51.82c-.6,1.05-1.42,2.48-3,2.7l-.31,0c-1.81,0-2.38-2.47-2.69-3.82Zm7.22,20.21c-.11,1.47-.33,4.19-2.41,4.19h0c-1.55,0-2.57-1.29-3.31-2.24-.23-.28-.43-.54-.63-.74a.51.51,0,0,1,.72-.71,9.43,9.43,0,0,1,.7.83,4.46,4.46,0,0,0,2.14,1.81c0-.13-.08-.25-.13-.38-.15-.44-.3-.88-.43-1.34s-.19-.8-.29-1.2l-.17-.76a.07.07,0,0,1,0,0l0-.07h0a.49.49,0,0,1,.37-.62.48.48,0,0,1,.6.38h0l0,.08v.08l.17.74c.09.39.17.78.28,1.16s.26.85.41,1.27c.05.16.11.33.17.5.54-.53.7-1.8.8-3l0-.25a.49.49,0,0,1,.54-.46.51.51,0,0,1,.46.55Zm10.81-28.57a.53.53,0,0,1,0-.72.52.52,0,0,1,.72,0,9.43,9.43,0,0,1,.7.83A4.48,4.48,0,0,0,29,173.49c-.05-.12-.09-.25-.13-.38-.16-.44-.31-.88-.43-1.34s-.21-.81-.3-1.23L28,170c0-.06,0-.12,0-.17l0-.09h0a.47.47,0,0,1,.14-.49.5.5,0,0,1,.84.25h0l0,.08a.43.43,0,0,1,0,.05h0l.17.73c.09.4.19.8.29,1.19s.26.85.41,1.27l.17.5c.54-.53.7-1.79.8-3l0-.25a.49.49,0,0,1,.54-.46.49.49,0,0,1,.46.54v.25c-.12,1.46-.34,4.19-2.42,4.19h0c-1.55,0-2.57-1.3-3.32-2.24A6.33,6.33,0,0,0,25.39,171.57Zm1.08,43.91a7.09,7.09,0,0,0-.62-.73.51.51,0,1,1,.71-.72,9.43,9.43,0,0,1,.7.83,4.52,4.52,0,0,0,2.15,1.81c0-.13-.08-.25-.13-.38-.15-.44-.31-.88-.43-1.34s-.2-.82-.3-1.23l-.13-.6-.05-.17,0-.08h0a.47.47,0,0,1,.13-.49.51.51,0,0,1,.5-.12.47.47,0,0,1,.34.37h0v.08a.06.06,0,0,1,0,0h0l.17.74c.09.4.18.8.29,1.19s.26.85.4,1.27c.06.16.12.33.17.5.55-.53.71-1.8.8-3l0-.25a.49.49,0,0,1,.55-.45.5.5,0,0,1,.46.54l0,.24c-.12,1.47-.34,4.19-2.42,4.19h0C28.24,217.72,27.22,216.43,26.47,215.48Zm8.75,43.11c-.11.26-.2.57-.31.92-.34,1.15-.81,2.73-2.26,3.3a1.94,1.94,0,0,1-.72.15c-1.52,0-2.5-2-3.07-3.15l-.11-.22a.51.51,0,0,1,.91-.45l.11.23c.53,1.08,1.15,2.2,1.85,2.49l0-.53c0-.44,0-.88-.08-1.32s-.11-.8-.17-1.2l-.12-.8v0l0-.08h0a.6.6,0,0,1,.42-.58c.24,0,.47.2.56.44h0l0,.11v0l.11.75q.11.61.18,1.23c.05.47.07.93.09,1.4,0,.12,0,.24,0,.36A4.53,4.53,0,0,0,34,259.22a7.7,7.7,0,0,1,.35-1,.5.5,0,1,1,.92.4Zm5-24.59a7.08,7.08,0,0,0-.63.73c-.74,1-1.77,2.24-3.32,2.24h0c-2.08,0-2.3-2.72-2.41-4.19l0-.24a.51.51,0,0,1,.46-.55.5.5,0,0,1,.54.46l0,.25c.1,1.21.26,2.48.8,3,.06-.17.11-.34.17-.5.15-.42.29-.84.41-1.27s.19-.76.28-1.15l.15-.65,0-.13h0l0-.12h0a.47.47,0,0,1,.35-.37.49.49,0,0,1,.49.12.49.49,0,0,1,.14.48h0l0,.09a.06.06,0,0,1,0,0h0l-.18.76c-.09.4-.18.8-.29,1.19s-.27.9-.43,1.34c0,.13-.08.25-.13.38a4.48,4.48,0,0,0,2.15-1.81,9.43,9.43,0,0,1,.7-.83.51.51,0,0,1,.72,0A.53.53,0,0,1,40.18,234Zm2.2-44.35a7.08,7.08,0,0,0-.63.73c-.74,1-1.76,2.24-3.32,2.24h0c-2.08,0-2.3-2.72-2.41-4.19l0-.24a.51.51,0,0,1,.46-.55.49.49,0,0,1,.54.46l0,.25c.1,1.21.26,2.48.8,3l.17-.51c.15-.41.29-.83.41-1.26s.2-.79.29-1.19l.2-.87h0a.5.5,0,0,1,.84-.25.46.46,0,0,1,.14.48h0l0,.09c0,.06,0,.11,0,.17l-.14.59c-.09.41-.19.83-.29,1.23s-.28.9-.43,1.34l-.14.38A4.43,4.43,0,0,0,41,189.76a9.43,9.43,0,0,1,.7-.83.52.52,0,0,1,.72,0A.53.53,0,0,1,42.38,189.65Zm11.88,25.16a8.6,8.6,0,0,0-.62-.74.5.5,0,0,1,.71-.71,8.94,8.94,0,0,1,.7.82A4.49,4.49,0,0,0,57.2,216l-.13-.39c-.15-.43-.31-.88-.43-1.33s-.2-.82-.3-1.23l-.13-.6a1.24,1.24,0,0,1,0-.16l0-.1h0a.47.47,0,0,1,.13-.49.54.54,0,0,1,.5-.12.48.48,0,0,1,.34.38h0l.2.86c.09.4.18.8.29,1.2s.26.84.4,1.26c.06.17.12.34.17.5.55-.52.71-1.79.8-3l0-.25a.49.49,0,0,1,.55-.46.51.51,0,0,1,.46.55l0,.24c-.12,1.46-.33,4.19-2.42,4.19h0C56,217.05,55,215.75,54.26,214.81ZM63.66,232a7.5,7.5,0,0,0-.62.74c-.75.94-1.77,2.23-3.32,2.24h0c-2.08,0-2.3-2.73-2.42-4.19l0-.25a.5.5,0,0,1,.47-.54.49.49,0,0,1,.54.46l0,.25c.1,1.21.26,2.47.8,3l.17-.5c.15-.42.29-.83.41-1.27s.2-.79.29-1.19l.17-.74h0a.43.43,0,0,1,0-.05l0-.08h0a.5.5,0,0,1,.84-.25.49.49,0,0,1,.14.49h0v0c0,.06,0,.14,0,.22L61,231q-.14.63-.3,1.23c-.12.46-.27.9-.43,1.34,0,.13-.08.26-.13.38a4.48,4.48,0,0,0,2.15-1.81,9.43,9.43,0,0,1,.7-.83.53.53,0,0,1,.72,0A.52.52,0,0,1,63.66,232Zm3-36.24a7.09,7.09,0,0,0-.62.73c-.75.95-1.77,2.24-3.32,2.25h0c-2.09,0-2.3-2.73-2.42-4.19l0-.25a.51.51,0,0,1,1-.08l0,.25c.09,1.21.25,2.47.8,3,.05-.17.11-.34.17-.5.14-.42.29-.84.4-1.27s.2-.79.29-1.19l.2-.87h0a.48.48,0,0,1,.34-.37.49.49,0,0,1,.49.12.45.45,0,0,1,.14.49h0l0,.1a1.24,1.24,0,0,1,0,.16l-.13.59c-.1.41-.19.83-.3,1.23s-.28.9-.43,1.34c-.05.13-.09.26-.13.38a4.46,4.46,0,0,0,2.14-1.81,9.39,9.39,0,0,1,.71-.83.51.51,0,1,1,.71.72Z"/><path class="c" d="M158.42,105.69c-3.26-5.86-10.09-8.09-16.22-6.9a31.24,31.24,0,0,0,1.56-5.21c1.42-5.41,3.92-15.91-1-20.25-5.91-5.27-17.71,2.9-18.68,9.48-.68,4.62,2,9.21,4.69,12.74,1.09,1.46,4.34,5.8,6.12,5.89h0a2,2,0,0,0,.67.32,13.54,13.54,0,0,0-2.1,2c-5.84,6.92-3.88,17.59-3.82,26a20.65,20.65,0,0,0-14.31.1,37.18,37.18,0,0,0,.61-4.71c.38-5.71-.38-12.57-6.41-13.35.37-.55.7-1.08,1-1.51,2.44-3.92,4.91-10.9.85-14.68-5.21-4.83-14.78.63-15.89,6.87-.62,3.5,1.6,6.73,3.47,9.43a20.75,20.75,0,0,0,1.59,2.4c-4.6,2.86-8.46,7.67-7,12.39,1.8,6,7.3,8.88,11.82,12.32a13.46,13.46,0,0,0-.66,1.71c-2.09,6.75-.51,13.78,2,20.19,1,2.47,3.9,11.23,6.78,11.38,2.14,1,9.11.92,12,0,3.55-1.18,5-5.94,6.71-8.93,3.21-5.56,7.26-15.78,6-23.64,2.36.24,5.25-2.66,7-3.87C154.83,129.14,165.18,117.85,158.42,105.69Zm-58.36-1.09H100c-1.33-.07-1.71-1.93-2-3.16,0-.27-.1-.49-.14-.64a.56.56,0,1,1,1.07-.34c.06.18.11.44.18.75.11.55.46,2.24.92,2.26h0c.44,0,1.26-1.57,1.43-2.55a.56.56,0,0,1,.65-.46.57.57,0,0,1,.46.65C102.51,101.66,101.64,104.6,100.06,104.6Zm1.27,17.73c-1.33-.07-1.71-1.93-2-3.16,0-.27-.1-.49-.14-.64a.55.55,0,0,1,.37-.7.55.55,0,0,1,.7.37c.06.17.11.43.18.74.11.55.46,2.24.92,2.27h0c.43,0,1.26-1.57,1.42-2.56a.57.57,0,0,1,1.12.19c-.1.55-1,3.49-2.55,3.49Zm2.36,10.43h-.07c-1.32-.07-1.71-1.93-2-3.16-.06-.26-.1-.49-.15-.64a.56.56,0,0,1,1.08-.33c0,.17.11.44.17.74.12.56.46,2.24.92,2.27h0c.44,0,1.26-1.57,1.43-2.56a.56.56,0,1,1,1.11.2C106.14,129.83,105.27,132.76,103.69,132.76Zm3.56-23.69c-1.33-.07-1.71-1.93-2-3.16a6,6,0,0,0-.14-.64.56.56,0,0,1,1.07-.33c.06.17.11.43.18.74.11.55.46,2.24.92,2.27h0c.44,0,1.26-1.57,1.43-2.56a.57.57,0,0,1,.65-.46.58.58,0,0,1,.46.65c-.1.56-1,3.49-2.54,3.49Zm5.46,35.61a10,10,0,0,1-2.1,3.24.58.58,0,0,1-.39.15.63.63,0,0,1-.19,0c-1-.36-1.42-1.56-1.83-2.62a8.25,8.25,0,0,0-.46-1.06.55.55,0,0,1,.17-.77.57.57,0,0,1,.78.17,7.16,7.16,0,0,1,.56,1.26,6.58,6.58,0,0,0,.89,1.76,9,9,0,0,0,1.52-2.52.57.57,0,0,1,.74-.31A.55.55,0,0,1,112.71,144.68Zm.33-22.32a8.91,8.91,0,0,1-2.1,3,.51.51,0,0,1-.35.13.47.47,0,0,1-.17,0c-1-.32-1.41-1.41-1.82-2.38a6.54,6.54,0,0,0-.46-1,.54.54,0,0,1,.88-.62,7.24,7.24,0,0,1,.57,1.15,4.84,4.84,0,0,0,.92,1.63,8.26,8.26,0,0,0,1.55-2.32.54.54,0,0,1,1,.44Zm3.66,13.44a.58.58,0,0,1,.71.37c0,.18.11.44.17.75.11.55.46,2.24.92,2.26h0c.44,0,1.26-1.57,1.43-2.55a.56.56,0,1,1,1.11.19c-.1.55-1,3.49-2.54,3.49h-.07c-1.33-.07-1.71-1.93-2-3.17-.06-.26-.1-.48-.15-.63A.57.57,0,0,1,116.7,135.8Zm-.48,22.62a.71.71,0,0,1-.2,0c-1-.36-1.41-1.56-1.82-2.61a6.15,6.15,0,0,0-.47-1.06.56.56,0,0,1,.18-.78.55.55,0,0,1,.77.17,7.13,7.13,0,0,1,.57,1.26,5.92,5.92,0,0,0,.89,1.76,9.19,9.19,0,0,0,1.52-2.52.57.57,0,0,1,1,.42,10,10,0,0,1-2.1,3.24A.59.59,0,0,1,116.22,158.42Zm4.1,10.08h-.07c-1.33-.07-1.71-1.93-2-3.16-.06-.27-.1-.49-.15-.64a.58.58,0,0,1,.37-.71.57.57,0,0,1,.71.38c0,.17.11.43.17.74.12.55.46,2.24.92,2.27h0c.44,0,1.26-1.58,1.43-2.56a.56.56,0,1,1,1.11.19C122.77,165.56,121.9,168.5,120.32,168.5Zm2.25-18h-.06c-1.33-.07-1.71-1.93-2-3.16-.05-.26-.1-.49-.14-.64a.56.56,0,0,1,1.07-.33c.06.17.11.44.18.74.11.56.46,2.24.92,2.27h0c.43,0,1.26-1.57,1.42-2.56a.57.57,0,0,1,1.12.19C125,147.54,124.15,150.47,122.57,150.47Zm5.35,7.92h-.07c-1.32-.07-1.71-1.93-2-3.16,0-.26-.1-.49-.14-.64a.56.56,0,0,1,1.07-.33,6.5,6.5,0,0,1,.17.74c.12.55.47,2.24.92,2.27h0c.44,0,1.26-1.57,1.43-2.56a.58.58,0,0,1,.65-.46.56.56,0,0,1,.46.65C130.37,155.45,129.5,158.39,127.92,158.39Zm6.29-18.6a9,9,0,0,1-2.11,3,.51.51,0,0,1-.35.13l-.17,0c-1-.33-1.41-1.42-1.82-2.39a5.65,5.65,0,0,0-.46-1,.54.54,0,0,1,.88-.62,6.27,6.27,0,0,1,.57,1.16,4.89,4.89,0,0,0,.92,1.62,8.07,8.07,0,0,0,1.56-2.32.53.53,0,0,1,.7-.27A.54.54,0,0,1,134.21,139.79ZM131.56,86.9h-.07c-1.33-.07-1.71-1.93-2-3.17a5.73,5.73,0,0,0-.14-.63.57.57,0,0,1,.37-.71.56.56,0,0,1,.7.38c.06.17.11.43.18.74.11.55.46,2.24.92,2.26h0c.44,0,1.26-1.57,1.43-2.55a.56.56,0,0,1,.65-.46.57.57,0,0,1,.46.65C134,84,133.13,86.9,131.56,86.9Zm2.55,5.34a5.17,5.17,0,0,0-.15-.64.58.58,0,0,1,.38-.71.56.56,0,0,1,.7.38c.05.17.11.43.17.74.12.55.46,2.24.92,2.27h0c.44,0,1.26-1.57,1.43-2.56a.58.58,0,0,1,.65-.46.56.56,0,0,1,.46.65c-.09.55-1,3.49-2.54,3.49h-.07C134.75,95.33,134.36,93.47,134.11,92.24Zm5.82,33.39a9.13,9.13,0,0,1-2.11,3,.55.55,0,0,1-.35.12.47.47,0,0,1-.17,0c-1-.32-1.41-1.42-1.82-2.39a6.54,6.54,0,0,0-.46-1,.54.54,0,1,1,.88-.62,7.38,7.38,0,0,1,.57,1.16,5,5,0,0,0,.92,1.63,8.31,8.31,0,0,0,1.55-2.33.54.54,0,0,1,1,.44Zm-2.48-8.88h-.07c-1.33-.07-1.71-1.93-2-3.16-.06-.26-.1-.49-.15-.64a.56.56,0,0,1,1.08-.33c.05.17.11.44.17.75.11.55.46,2.23.92,2.26h0c.44,0,1.26-1.57,1.43-2.56a.56.56,0,1,1,1.11.2C139.89,113.81,139,116.75,137.45,116.75Zm1.81-34.25h-.07c-1.32-.07-1.71-1.93-2-3.16-.06-.27-.1-.49-.15-.64a.56.56,0,1,1,1.08-.33c.05.17.11.43.17.74.12.55.46,2.24.92,2.27h0c.44,0,1.26-1.57,1.43-2.56a.56.56,0,1,1,1.11.19C141.71,79.56,140.84,82.5,139.26,82.5Zm8.09,43.1h-.07c-1.33-.07-1.71-1.93-2-3.16a6,6,0,0,0-.14-.64.55.55,0,0,1,.37-.7.57.57,0,0,1,.71.37c.05.17.11.44.17.74.11.55.46,2.24.92,2.27h0c.44,0,1.26-1.57,1.43-2.56a.56.56,0,0,1,1.11.19C149.79,122.67,148.92,125.6,147.35,125.6Zm0-12.26h-.07c-1.33-.07-1.71-1.94-2-3.17a5.73,5.73,0,0,0-.14-.63.57.57,0,0,1,.37-.71.58.58,0,0,1,.71.37c.05.18.11.44.17.74.11.56.46,2.25.92,2.27h0c.44,0,1.26-1.57,1.43-2.55a.56.56,0,1,1,1.11.19C149.79,110.4,148.92,113.34,147.35,113.34Z"/><path class="e" d="M131.21,73.88c-.14.26.17.37-.22.47-1.13-.71-4-3.6-3.26-5.15.68-1.36,3.26.29,4.32.73,0-.85-.49-2.8.39-3.24,1.45-.72,2.54,1.89,3,2.81.48-.94.89-2.38,1.91-3a3.45,3.45,0,0,1,.93,1.67c.34-.52,2.06-2.17,2.9-1.53,1,.78-1.52,4.23-2.16,5.06C137.65,73.46,131.86,77.89,131.21,73.88Z"/><path class="b" d="M257.14,47c-1-1.43-1.76-6.48.92-7.22,2.52-.68,3.51,2.6,3.8,3.91,2.8-2.86,2.89-.07,2.94,1.77,2.77-.6,3.94.86,2.46,2.71-2.81,3.51-8.54,2.63-9.79-1"/><path class="b" d="M226.78,51.53A7.45,7.45,0,0,1,220,46c-.51-3.08,2.63-2.32,4.69-2.55a.7.7,0,0,0,.56-.64c.37-2.29,1.48-3.11,3.23-1.6,1.44,1.23,1.59.66,1.74-.39a1.37,1.37,0,0,1,2.36-.82l0,0a.61.61,0,0,0,1-.14c.68-1.3,1.54-2.29,2.85-1.35,1.47,1,.27,4.5-.19,5.83C234.85,48.26,233.17,52.64,226.78,51.53Z"/><path class="a" d="M253.66,46.75a15.93,15.93,0,0,1,2.18,7.15,14.18,14.18,0,0,1-1.18,7.17A16.56,16.56,0,0,1,253.47,63a8.73,8.73,0,0,0-1.41,2.6,7.54,7.54,0,0,0,.84,5.51c.27.46.6.91.93,1.37,1.16,1.59,2.59,3.57,1.65,6.12a5.26,5.26,0,0,1-1.71,2.13c-.77.67-1.16,1-1.12,1.73a4.91,4.91,0,0,0,.94,2.1,7.46,7.46,0,0,1,1.22,2.61c.44,2.35-.51,4.91-1.43,7.13a42.63,42.63,0,0,1-3.11,5.64,4,4,0,0,1,1.46.09,1.05,1.05,0,0,0,.4.32c3.08-2.25,5.13-6.2,6.69-9.21.58-1.12,1.08-2.09,1.56-2.82a22.34,22.34,0,0,1,2.18-2.71c1.6-1.76,2.75-3,2.51-5.82a14.2,14.2,0,0,0-.95-3.75c-.84-2.36-1.7-4.79.95-8.19,2.35-3,3.56-5.43,2.81-8.85a27,27,0,0,0-1.11-3.34,25.43,25.43,0,0,1-1.31-4.08v0a26.08,26.08,0,0,0-2.63-2.3A27,27,0,0,0,252,44.36C252.79,45.39,253.42,46.37,253.66,46.75Z"/><path class="a" d="M237.17,100.89c.1-1.57-.46-3.77-3.73-5.38-4.07-2-4-4.8-3.89-7.05A6.24,6.24,0,0,0,229,84.8a4.25,4.25,0,0,0-1.48-1.21,5.47,5.47,0,0,1-2.15-2c-.77-1.46-.25-3,.21-4.42a7.61,7.61,0,0,0,.45-1.82c.07-2-1.09-2.87-2.54-4s-2.82-2.23-3.32-4.35c-.7-2.94.87-6.38,2.26-9.41.4-.88.81-1.77,1.13-2.6a27,27,0,0,0-5.35,20.37c1.25,8,6.49,15.39,12.26,20.85,1.44,1.37,4.32,3.91,6.74,4.72C237.18,100.91,237.17,100.9,237.17,100.89Z"/><path class="a" d="M251.52,93.52c.85-2,1.64-4.17,1.3-6a5.75,5.75,0,0,0-.93-1.9,6.71,6.71,0,0,1-1.26-3.06,4,4,0,0,1,1.82-3.38,3.64,3.64,0,0,0,1.13-1.31c.54-1.44-.16-2.56-1.38-4.23-.36-.5-.73-1-1-1.54a9.43,9.43,0,0,1-1-7,10.21,10.21,0,0,1,1.7-3.24,13.92,13.92,0,0,0,1-1.68,12.3,12.3,0,0,0,1-6.11A13.81,13.81,0,0,0,252,47.82,40.94,40.94,0,0,0,249,43.89a29.08,29.08,0,0,0-7.1.09c-.85.12-1.68.28-2.5.48-2.63,4.39-4.56,13.29-1.7,17.82a19.5,19.5,0,0,0,1.87,2.36A16.91,16.91,0,0,1,242.06,68c1.33,2.56.64,4.6-.09,6.76l-.28.84c-.86,2.68-.23,3.5.82,4.87a11.39,11.39,0,0,1,2.05,3.7,5.4,5.4,0,0,1-.56,4.43c-.63,1.29-1.09,2.23.56,4.53,1.36,1.9,1.13,3.9.91,5.83,0,.32-.08.64-.11,1a1,1,0,0,1-.3.62h.08a8.15,8.15,0,0,0,2.34-.11A37.67,37.67,0,0,0,251.52,93.52Z"/><path class="a" d="M269.26,56.58a18.62,18.62,0,0,1,.59,2c1,4.62-1.12,7.85-3.19,10.52s-1.44,4-.64,6.27a16.07,16.07,0,0,1,1.06,4.26c.31,3.66-1.38,5.54-3,7.34a20.28,20.28,0,0,0-2,2.47c-.41.64-.89,1.56-1.45,2.64a36.91,36.91,0,0,1-5,7.84A16.18,16.18,0,0,0,260.47,97c5.67-6.08,12.14-19.76,11.94-26.57C272.26,65.16,271.43,60.59,269.26,56.58Z"/><path class="a" d="M243.35,99.69c0-.33.07-.67.11-1,.2-1.76.36-3.16-.54-4.42-2.35-3.29-1.45-5.12-.73-6.6a3.49,3.49,0,0,0,.44-2.94,9.33,9.33,0,0,0-1.72-3.07c-1.2-1.56-2.33-3-1.14-6.72l.29-.87c.66-2,1.14-3.38.21-5.18A15.25,15.25,0,0,0,238.08,66,21.12,21.12,0,0,1,236,63.36c-2.94-4.67-1.67-12.87.72-18.11a28.17,28.17,0,0,0-10.55,6.68c.17,1.82-.81,4-1.95,6.49-1.25,2.74-2.67,5.84-2.14,8.1.35,1.44,1.4,2.28,2.61,3.24,1.6,1.27,3.41,2.71,3.3,5.69a8.48,8.48,0,0,1-.55,2.37c-.36,1.11-.7,2.15-.33,2.85a3.71,3.71,0,0,0,1.42,1.2,5.93,5.93,0,0,1,2.14,1.88,8,8,0,0,1,.88,4.79c-.08,2.17-.14,3.74,2.76,5.16,4.49,2.21,5,5.54,4.86,7.32a.25.25,0,0,0,0,.07c.79-.22,1.3-.8,2.13-1a6,6,0,0,1,2.16.07A1.06,1.06,0,0,1,243.35,99.69Z"/><path class="f" d="M175.57,260.63c-3.15-2.62-5.21-7-6.14-10.76a29.07,29.07,0,0,1,.73-17.34,95.1,95.1,0,0,0,5-18.23,42.5,42.5,0,0,0,.77-8.57,8.88,8.88,0,0,1-.15-2.74c1.57,1,2.83,4.43,3.42,6.16a77.27,77.27,0,0,1,2.56,11.76,93.52,93.52,0,0,1,1.29,18.9,91.38,91.38,0,0,1-1.66,14.08C181.12,255.14,179.55,263.18,175.57,260.63Z"/><path class="f" d="M173.71,261.09c-1.42-.37-3.22.11-5-.8-4.42-2.24-7.2-6.41-9.23-10.78-1.47-3.16-2-7.19-2.56-10.62-.71-4-1.33-8-1.78-12a58,58,0,0,0-3.45-15.26c1.14,0,2.05,1.72,2.81,2.48a68.9,68.9,0,0,1,6,6.46c3.23,4.24,6.35,8.86,9.22,13.36,3.17,5,4.56,12.12,5.28,17.89C175.32,254.83,176.63,260,173.71,261.09Z"/><path class="f" d="M170.09,260.62a69.9,69.9,0,0,1-8.54-.63c-3.7-.55-6.71-3.23-9.73-5.31a29.55,29.55,0,0,1-9.45-9.65,47.88,47.88,0,0,0-5.81-7.27c2.11-1.12,7.13.69,9.36,1.1a33.65,33.65,0,0,1,13.78,6C161.25,246,173.75,256.82,170.09,260.62Z"/><path class="f" d="M182.53,244.23c-.12.16-2.33,1.09-2.41,1.28.87-7.51,5.52-14.27,10.47-20,2-2.38,4.46-5.35,7-7.17,2.36-1.68,5.06-2.93,7.3-4.79-.69,2.5-2.23,4.9-3,7.45-1.13,3.74-1.91,7.56-2.79,11.36-1.52,6.53-5.12,12.22-8.11,18.12-2.27,4.45-9.8,9.47-12.31,10.33-3.89,1.33-1.8-7.71-1.06-10.52,1.4-5.33,2.93-11,6.79-15.19"/><path class="f" d="M188.21,252.11c2-2,3.2-5.34,5.21-7.57a43.23,43.23,0,0,1,9.27-7.4,42.74,42.74,0,0,1,8.1-4.09,25,25,0,0,0,4.33-2.67,5.58,5.58,0,0,1-1.1,2.17c-1.21,2-2.27,4-3.28,6.13-2.51,5.26-4.9,10.38-8.83,14.77s-13,8.31-19.07,6c.61-4.13,5.43-7.46,7.73-10.8"/><path class="a" d="M143.06,246.12c-1.05-1.66-1.52-2.91-.55-3.94.4-.44,1.21-.24,1.54-.67s0-.95.21-1.46c.88-2.05,3.16-.71,6.42,0-1.32.75-1.75.66-2.34,2-.23.55,0,.79-.43,1.3s-.95.41-1.24.78c-.66.87-.23,1.35-.61,2.14s-1.55.94-1.21,2.27A15.07,15.07,0,0,1,143.06,246.12Z"/><path class="a" d="M148.91,252.28c.12-.22-.07-.49,0-.77,1.31.21,1.05-.09,1.11-1.12.3,0,.73.13,1-.11.4-.39,0-1,.57-1.27s1.18,0,1.33-.88c.06-.37-.24-.94-.08-1.3s.2-.21.51-.36c.82-.4.7-.34.72-1.41,0-.88.21-.39.54-.84.52-.69-.55-2.08-.11-2.49s2.45,1.63,2.78,1.93a2.22,2.22,0,0,1,.55.67c.12.33,0,.36,0,.71s.38.84.31,1.25c-.05.25-.31.31-.38.56-.29,1.06.89,1.88-.59,1.87-.14.52.1,1.21-.22,1.69-.21.31-.62.33-.79.62-.27.45.13,1.19-.4,1.58-.27.21-.48,0-.73.24-.42.44-.15.79-.88,1-.33.11-.43-.06-.66.18,0,0-.16.53-.24.65s-.34.32-.46.51C151.45,254.58,149.65,253.56,148.91,252.28Z"/><path class="a" d="M163.06,259.78c-.35.29-1.1.09-1.56,0a7.83,7.83,0,0,1-3.38-.95c-.54-.39-.52-.5.17-.63,1.26-.25,1.29-.17,1.09-1.46-.17-1.09.35-.5.88-1s-.45-1.15,0-1.72c.2-.28.7-.26.92-.57s.16-.85.19-1.26,0-.9.26-1.2c.55.29,1,1,1.51,1.42.73.59,1.38,1.26,2.09,1.87.37.31,1.23.69.92,1.15s-1.41,0-1.43.78c0,.54.83.75.28,1.31-.35.35-.93.07-1.11.57-.12.33.22.69.07,1A1.45,1.45,0,0,1,163.06,259.78Z"/><path class="a" d="M153.88,218.84s0-.59,0-.9c.05-1.38.05-.65.84-.81s.18.11.68-.31c.34-.28.17-.62.74-.73s3.1,2.59,3.53,3.52c-.35,0-1.07-.46-1.37-.28s-.1.74-.4,1-.71-.37-1.12-.3-.36.6-.74.8c-.83.43-1-.27-1.59,1C153.9,221.1,153.9,219,153.88,218.84Z"/><path class="a" d="M155.32,228.7c-.13-1.13.48-1.45.84-1.58,1.15-.43.48,1,1.63-.19.39-.42.23-.64.81-.7.35,0,.79.54,1.16.37s.22-1.1.61-1.28.58.33.83.25c1-.32.84-2.43,2.15-1.25.75.69,1.26,2.14,2.05,3.14-.62-.1-.73.42-1.06.81-.17.21-.39,1-.62,1.22s-1.15,0-1.39.13c-.77.23-.68.87-1.45,1-.42.08-.72-.3-1.08-.26s-.49.39-.79.47c-.87.21-1-.41-1.76-.36s-.88.82-1.65.36A11.32,11.32,0,0,1,155.32,228.7Z"/><path class="a" d="M168.64,232.52c-.89,0-.92.51-1.37,1.13-.57.8-1.3.16-1.85.69-.36.34-.28.68-.76.91s-.8.1-1.2.34c-.77.45-.62,1.4-1.62,1.4-.33,0-.5-.15-.86,0s-.59.65-.91.88c-.72.53-1.11.29-1.85.42-.41.08-1,.42-1,.81-.51.7.3,2.53.52,3.25.09.3.21,1.16.61,1.23.55.09.61-.54,1.17-.41.39.09.72.73,1.27.5s.34-.9.79-1.08,1.06.62,1.69.39.65-1.18,1.08-1.64c.67.06.92.74,1.64,0,.27-.27.35-.87.72-1.06.21-.11.49,0,.71-.07,1.19-.21.65-1.88,1.24-2.35.2-.16.29-1.26.15-.62-.43,2,.62-2.47.81-3.17S169,233,168.64,232.52Z"/><path class="a" d="M175.9,208.39c.11-.25.11-.75.42-.85s.61.42.83.59c.34-.29.39-.8.94-.74.23,0,.3.25.54.13a23.56,23.56,0,0,1,.71,3c-.26-.09-.57-.43-.85-.35s-.21.37-.41.42-.35-.26-.56-.27c-.36,0-.39.44-.82.28s-.36-.43-.75-.28A3.6,3.6,0,0,1,175.9,208.39Z"/><path class="a" d="M174.87,215.57a6.82,6.82,0,0,1,.66-.92c.53-.45.65,0,1,.47s.24.39.56.18.4-.63.79-.23c.21.22.22.67.58.58.16,0,.27-.39.47-.46a.72.72,0,0,1,.41,0c.6.13.85.27,1.21-.29.34.2.32.88.37,1.21a11,11,0,0,1,.29,2c0,.29,0,.79-.37.86-.56.1-.46-.54-1,0-.19.22-.28.46-.61.47s-.57-.44-.9-.58c-.67-.29-1.17.62-1.76,0s-.31-.87-1.05-.72c-.37.07-.54.11-.79-.23C174.36,217.32,174.84,216,174.87,215.57Z"/><path class="a" d="M173.34,223.56a1.2,1.2,0,0,0,.34.94c.56.5.73.11,1.38,0,.82-.12.92.5,1.46.79.81.44.7-.65,1.46-.63.55,0,.65.84,1.18,1,.7.17.72-.6,1.27-.64.4,0,.54.42,1,.24.31-.11.53-.54.71-.74.28,1.84.75,4.11.1,6a.74.74,0,0,1-1.18.16,3.52,3.52,0,0,0-.61-.61c-.45.23-.52,1-1.23.81-.37-.08-.4-.46-.8-.48s-.91.33-1.3.47c-1.32.47-.69-.55-1.67-.84-.41-.12-.76.22-1.15.18-.68-.06-.53-.66-.86-1s-.78-.07-1.21-.34-.43-1.32-.31-1.7A16,16,0,0,1,173.34,223.56Z"/><path class="a" d="M200.41,216.62c.12-.06.43-.27.55-.23.5.14,0,.77.29,1s.53-.21.78-.09.12.49.14.73c.33,0,.55-.26.83-.17a26,26,0,0,1-1.47,3.5c-.34-.23-.17-.68-.4-1-.37-.44-.82.16-1.26,0-.62-.22-.06-.9-.19-1.3s-.69-.29-.92-.58C198,217.58,200.25,216.36,200.41,216.62Z"/><path class="a" d="M195.08,220.91a1.92,1.92,0,0,0-.06.71c.18.56.42.21.89.16,1.09-.12.45.85.64,1.54.25.91.68.06,1.22.28s.1.93.68,1c.27,0,.45-.33.71-.32.1,0,.11.21.21.22.59.06,1-.3,1.54-.44a4.37,4.37,0,0,1-.31,1.75,5.11,5.11,0,0,1-.85,2.21c-.41-.52-.72-.31-1.19.06-.19.15-.62.64-.89.59s-.24-.36-.38-.61c-.43-.77-1-.17-1.65-.37s-.22-1.12-.71-1.54c-.23-.19-.54,0-.78-.13s-.37-.28-.54-.59c-.27-.52-.28-.63-.8-.8s-.53.06-.57-.53a1.06,1.06,0,0,1,.31-.87C193,222.72,194.46,220.77,195.08,220.91Z"/><path class="a" d="M188.68,227.8c-.07.44-.35.67,0,1s.51.15.78.28a1.37,1.37,0,0,1,.69,1c.12.45.06,1.09.38,1.47s.75.15,1.32.1c1-.09.58.59,1.14,1.13s1.37-.22,2,.13.45,1.25,1.36,1.19c.57,0,.93-.63,1.33-.21.25.25.08,1.16.72.9-.35.65-.34,1.33-.65,2-.37.83-.78,1.72-1.22,2.5a1.15,1.15,0,0,0-1.57-.26c-.32.15-.78.54-1.16.37s-.22-.77-.53-1c-.62-.42-1.47.54-1.7-.49-.09-.39.13-.79-.25-1.09-.61-.49-.9.16-1.54.16-1.48,0-.21-1.7-.93-2.18-.27-.17-.78.32-1.13,0-.57-.56.4-1.44.12-2s-1.53.32-1.28-.8c.19-.84.73-.75-.09-1.11a7.09,7.09,0,0,1,1-1.73A12.55,12.55,0,0,0,188.68,227.8Z"/><path class="a" d="M169.47,235.45c0,.8.22,1.92,1.16,1.86s1.27-.54,1.87.48c.21.37.18.81.66.85s.79-.61,1.2-.66c.81-.09,1.13,1.16,2.06.91.58-.16.8-1,1.4-1,.37,0,.54.63.9.76.93.34,1-.85,1.68-.82s.53.84,1.25.6c.49-.17.71-.88,1.08-1.19.05,1.15.13,2.3.23,3.46,0,.58.39,2.86-.16,3.26-.19.13-.39-.19-.57-.14-.52.16-.68.6-1,1-.73.84-.87-.24-1.76.61-.26.26-.9,1.25-1.33,1.22s-.79-.82-1.35-.94c-1.36-.27-2,1.56-2.9-.06-.75-1.45-.8,0-2,0-1.58,0-.44-2-1.35-2.5-.55-.28-.85.56-1.37.44s-.64-1.73-.63-2.18A35,35,0,0,1,169.47,235.45Z"/><path class="a" d="M169.29,249.89c0,.51.48,1.59,1,1.74s.71-.35,1.19-.25c.79.15,1,1.35,1.9,1.34.68,0,.95-.86,1.66-.76s.95,1.15,1.62,1.15.9-1.06,1.64-.85c.22.06.31.43.54.51.44.16,1-.21,1.33-.43a5.87,5.87,0,0,0,1.48-1.46,13.48,13.48,0,0,1-1.59,5.68,5.14,5.14,0,0,1-1.36,1.92c-.75.46-.88-.37-1.54-.58-.29-.09-.35.06-.57.07-.63,0-.25.39-.87-.24-.84-.85-.59.06-1.37.32a1.55,1.55,0,0,1-1.05-.22c-1.07-.52-1.85-1.92-2.47-2.91A12.54,12.54,0,0,1,169.29,249.89Z"/><path class="a" d="M167.19,255.58c-.34.17-2.14-1.57-2.58-1.93a5.52,5.52,0,0,1-2.08-2.8c.74-.5,1.22.79,1.4-.38.29-1.9.88.5,1.69-.16.34-.28,0-1.32.59-1.44.32-.07.58.36.93.36.73,0,.73-1,1-1.45.88.54.87,2.62,1.09,3.52.19.75.59,1.3.83,2,.1.29.2.68-.09.92s-.78-.11-1.11.06-.16.54-.49.64-.59-.31-.82-.1.08.4,0,.49S166.86,255.31,167.19,255.58Z"/><path class="a" d="M182.62,239c.34.29.36,1.28.73,1.76a1.65,1.65,0,0,0,1,.67c.34.07.93-.14,1.23.05.58.37.13,1.47.82,1.83s1.71-.71,2.25-.11-.24,1.71.86,1.64,1-.73,1.29.28c.42,1.48,2.29.22,3-.37a4.49,4.49,0,0,1-1,2.4,19.77,19.77,0,0,1-2.43,2.75,29.43,29.43,0,0,1-4.35,3.62c-.49-.59.19-2.28-.4-2.53-.21-.08-.39.28-.66.05-.43-.35.23-1.21,0-1.62-.5.25-.76.8-1.22,1.06-.2-.62.06-1.26-.06-1.87-.46,0-.71.7-1.1.21s-.13-2.06-.1-2.66c.06-1.16.11-2.32.22-3.47A7.09,7.09,0,0,0,182.62,239Z"/><path class="a" d="M210.1,233.52a1.57,1.57,0,0,0-.52,1.09c.11.52.62.35.83.72s-.31.81.38,1c.24.08.67-.11.94-.11.05.93-1.52,4.71-2.53,4.71-.12-.41.05-1.27-.31-1.55s-1.34.53-1.64-.21c-.24-.58.38-.76,0-1.26-.23-.27-.68-.19-.75-.63s.37-.51.38-.77-.21-.27-.24-.53c-.08-.56.47-1.09.89-1.42A5.51,5.51,0,0,1,210.1,233.52Z"/><path class="a" d="M202.31,237.3c-.38.59-1.42,1.73-1.07,2.51.24.53.77.31,1.19.53.58.29.18.57.3,1.16.21,1.08,1.15-.09,1.45.9.12.41-.18,1,.29,1.21s1-.25,1.31-.38c.26.57,0,1.34.76,1.5.47.1.91-.33,1.34-.35a12.29,12.29,0,0,1-2.57,4.48c-.46.55-1.26,1-1.59.18-.12-.32,0-.75-.27-1s-1.21.17-1.61-.21.12-.95-.06-1.33c-.28-.58-1.09-.28-1.55-.55-.68-.38-.08-.56-.17-1.13s-.22-.36-.68-.52c-1.46-.5.37-1.39,0-2.29-.13-.32-.55-.21-.67-.48s.29-.65.41-1,0-.42.05-.65a2.32,2.32,0,0,1,.84-1A20,20,0,0,0,202.31,237.3Z"/><path class="a" d="M194.29,244.73a3.43,3.43,0,0,0-.43,2c.2.69,1.06.73,1.36,1.32s-.28,1.47.27,2.07,1.13.11,1.48.56c.48.62-.05,1.44,1.09,1.51,1,.07.82-.22.9.83.06.73.33,1.15,1.14,1.21.41,0,.8-.21,1.13.13a7.26,7.26,0,0,1-2.51,2.14,21.86,21.86,0,0,1-2,1.25A4.7,4.7,0,0,1,195,258c-.53-.07-.39-.23-.64-.65s-.54-.52-1.14-.62-.93-.1-1-.72.25-.63-.24-1c-.33-.22-.85,0-1-.47s1-1.26.76-1.72c-.15-.24-.73,0-.95-.13-.4-.32.15-.7.11-1.18,0-.32-.29-.37-.35-.62s.14-.68.29-1a21.05,21.05,0,0,1,1.73-2.47A19.58,19.58,0,0,1,194.29,244.73Z"/><path class="a" d="M186.38,255a1,1,0,0,0-.21.66c0,.69.29.91.87,1.16.33.14.7.19.79.56s-.13.68.13,1,.56.19.73.4.06.48.18.68.54.09.56.41-.74.39-1,.4a13.5,13.5,0,0,1-2.77,0c-1.08-.23-2.31-.19-2.8-.88s1-2,1.62-2.67A8.7,8.7,0,0,1,186.38,255Z"/><path class="a" d="M180.91,254.84a1.25,1.25,0,0,0,.07,1.56c.2.15.66.09.82.25s0,.42.11.61c.24.66,1.6.05,1,.92a3.28,3.28,0,0,1-1.33.9c-.6.29-1.1.72-1.66,1.05-.3.17-.88.48-1.23.28s-.1-.79.06-1.13C179.38,257.85,180.71,256.53,180.91,254.84Z"/><path class="a" d="M174.5,260.13c.85.28-1.17.8-1.37.81a8.72,8.72,0,0,1-4.7-.49c.11-.62,1-.32,1.34-.76s-.27-.63-.29-1.05c.21-.1.54,0,.68-.24s0-.43,0-.61c.46-.11,1,.27,1.41.47.19.09.46.31.69.29.41,0,.22-.25.19-.57.52,0,.75.47,1.05.8S174.77,259.75,174.5,260.13Z"/><path class="g" d="M174.23,259.24c-.29-.05-.49-.32-.71-.51s-.42-.42-.62-.64c-.4-.44-.78-.89-1.16-1.35a12,12,0,0,1-1.9-3.07,26.69,26.69,0,0,1-1.69-7,29.08,29.08,0,0,1,.12-7.16,27.37,27.37,0,0,1,1.93-6.85,42.46,42.46,0,0,0-1.29,6.93,31.42,31.42,0,0,0,.08,7,28.58,28.58,0,0,0,1.45,6.82,12,12,0,0,0,1.62,3.07c.33.49.67,1,1,1.45l.53.7C173.8,258.86,174,259.16,174.23,259.24Z"/><path class="g" d="M179.15,259.83a4.58,4.58,0,0,0,2.67-1.15,23.08,23.08,0,0,0,2.21-2,54.54,54.54,0,0,0,3.85-4.56c1.23-1.58,2.59-3.1,3.89-4.6a20.47,20.47,0,0,0,1.78-2.38,19.43,19.43,0,0,1,1.63-2.53,27.21,27.21,0,0,0-1.27,2.73,20.79,20.79,0,0,1-1.63,2.58c-1.22,1.64-2.52,3.13-3.74,4.73a35.27,35.27,0,0,1-4.07,4.5,21.8,21.8,0,0,1-2.42,1.85A4.41,4.41,0,0,1,179.15,259.83Z"/><path class="g" d="M182.69,236.62c.09,1,.28,1.91.46,2.87a17,17,0,0,1,.18,2.93,32.55,32.55,0,0,1-.58,5.83,55.89,55.89,0,0,1-1.41,5.67,13.39,13.39,0,0,1-2.78,5.12,17.47,17.47,0,0,0,2.16-5.3c.45-1.85.82-3.77,1.21-5.65a56.77,56.77,0,0,0,.76-5.69,17.22,17.22,0,0,0,.05-2.87A20.17,20.17,0,0,1,182.69,236.62Z"/><path class="g" d="M173.84,259.44a15.54,15.54,0,0,0-2.71-1.1,19.28,19.28,0,0,1-2.75-1.15,17.59,17.59,0,0,1-4.76-3.6,39.39,39.39,0,0,1-3.71-4.63,16.29,16.29,0,0,1-2.49-5.36,22.93,22.93,0,0,0,3,5c1.2,1.53,2.48,3,3.8,4.43a20.82,20.82,0,0,0,4.47,3.61C170.3,257.69,172.27,258.2,173.84,259.44Z"/><path class="a" d="M33.26,148.21a6.51,6.51,0,0,1,2.62-3.16c-.1.33,0,.88-.13,1.21l.47-.15c0,2.16-3.85,5.53-2.43,1.22"/><path class="a" d="M39.94,144.51c.19-1.1,1.32-2.64,2.45-2.8,0,.25,0,.65,0,.85,1.73.11-.58,4-2.43,3a2.84,2.84,0,0,1,.52-1.78"/><path class="a" d="M38.89,152.42c.77-1,1.48-2,2.23-3.06.91.24,1.42-.29,1.63,1.1s-1.65,3.29-3,2.76a1,1,0,0,1,.22-1"/><path class="a" d="M47,147c-.14,0-.24.43-.23,0a7.76,7.76,0,0,1,2.39-2.35,6.38,6.38,0,0,1,.15,1.09c.07,0,.43,0,.47.05A2.35,2.35,0,0,1,46.12,148a5.93,5.93,0,0,1,.5-1.39"/><path class="a" d="M55.4,145.22a4.12,4.12,0,0,1,2.45-2.84,7.21,7.21,0,0,0-.69,1.79c.37-.22,1-.17,1.41-.35.45,2.71-3.67,3-3.17,1.4"/><path class="a" d="M49.08,154.53a5.73,5.73,0,0,1,2.63-2.82c-.13.38,0,1-.16,1.37.3-.15.71-.16,1-.29.17,2.61-4,2.87-2.4.51"/><path class="a" d="M59.8,151.54c-.2-.13-.37.21-.34-.2a5.27,5.27,0,0,1,2.83-2.8,9.25,9.25,0,0,1,0,1.39c2.85,1.44-5.82,5.16-2.48,0"/><path class="a" d="M53.12,160.16a5,5,0,0,1,2.1-1.71,2.67,2.67,0,0,1,.21.45c.32-.13,1-.06,1.32-.19.17,4.23-6.18,4.42-3.45.57"/><path class="a" d="M43.75,159.09c.16,0,2.11-2.5,2.07-1.21,2.58-.11-1.4,3.83-1.09,1.76-.61.5-1.48.15-.94-.73"/><path class="a" d="M48.34,138.68a3.7,3.7,0,0,1,2-.76c-.09.18-.06.54-.22.75,1.31-.32.46,1.37-.16,1.74-1.24.73-2.29-.39-1.61-1.63"/><path class="a" d="M36,138.12a4.29,4.29,0,0,1,2.06-1.38c-.08.19-.05.46-.25.69,1.18-.06.89.28,1.08,1.17-.45.49-1.61,1.73-2.35,1.6-1-.17-.75-1.28-.34-1.88"/><path class="a" d="M380,27.08a6.57,6.57,0,0,1,2.62-3.16c-.1.34,0,.89-.13,1.21L383,25c0,2.16-3.85,5.52-2.43,1.21"/><path class="a" d="M386.7,23.39c.19-1.1,1.33-2.64,2.45-2.8,0,.25,0,.64,0,.85,1.73.1-.57,4-2.43,3a2.81,2.81,0,0,1,.52-1.77"/><path class="a" d="M385.65,31.3c.77-1,1.49-2,2.23-3.06.91.24,1.43-.3,1.63,1.09s-1.65,3.29-3,2.77a1,1,0,0,1,.22-1"/><path class="a" d="M393.73,25.85c-.13,0-.23.44-.23,0a7.94,7.94,0,0,1,2.4-2.36,7.81,7.81,0,0,1,.14,1.1c.07,0,.44,0,.48,0a2.36,2.36,0,0,1-3.63,2.25,5.23,5.23,0,0,1,.49-1.39"/><path class="a" d="M402.17,24.09a4.15,4.15,0,0,1,2.44-2.84,8,8,0,0,0-.69,1.8c.38-.22,1-.18,1.41-.36.46,2.72-3.67,3-3.16,1.4"/><path class="a" d="M395.84,33.41a5.75,5.75,0,0,1,2.63-2.83c-.13.38,0,1-.15,1.37.29-.14.71-.15,1-.28.17,2.6-4,2.87-2.39.51"/><path class="a" d="M406.56,30.42c-.19-.14-.37.21-.34-.2a5.23,5.23,0,0,1,2.84-2.8,10.92,10.92,0,0,1,0,1.39c2.85,1.44-5.82,5.16-2.48,0"/><path class="a" d="M399.88,39a5,5,0,0,1,2.1-1.71,4,4,0,0,1,.22.46c.31-.13,1-.06,1.32-.19.17,4.23-6.19,4.42-3.46.56"/><path class="a" d="M390.51,38c.16,0,2.11-2.51,2.07-1.22,2.59-.1-1.4,3.83-1.09,1.76-.61.51-1.48.16-.93-.73"/><path class="a" d="M395.1,17.56a3.74,3.74,0,0,1,2-.77c-.08.19-.06.55-.22.76,1.31-.32.46,1.37-.16,1.74-1.23.73-2.29-.39-1.61-1.63"/><path class="a" d="M382.76,17a4.32,4.32,0,0,1,2.06-1.37c-.08.18-.05.45-.24.69,1.17-.06.89.27,1.07,1.17-.45.49-1.61,1.72-2.35,1.6-1-.17-.75-1.29-.34-1.89"/><path class="a" d="M235.07,265.81a.41.41,0,0,1-.36-.19c-1.66-2.36-2.61-6.1-3-8.81a.44.44,0,0,1,.38-.49.45.45,0,0,1,.5.38,20.42,20.42,0,0,0,2.79,8.42.44.44,0,0,1-.11.61A.38.38,0,0,1,235.07,265.81Z"/><path class="a" d="M237.08,263.61a.44.44,0,0,1-.44-.42,30.44,30.44,0,0,0-.47-3.67,23,23,0,0,1-.49-4.79.44.44,0,1,1,.88,0,22.9,22.9,0,0,0,.48,4.61,29.58,29.58,0,0,1,.48,3.78.44.44,0,0,1-.43.46Z"/><path class="a" d="M239.47,263.71h-.06a.43.43,0,0,1-.37-.5,38.15,38.15,0,0,0,.17-5.49c0-1.14,0-2.21,0-3.09a.45.45,0,0,1,.89,0c-.05.85,0,1.9,0,3a37.59,37.59,0,0,1-.18,5.64A.44.44,0,0,1,239.47,263.71Z"/><path class="a" d="M242,264.47a.36.36,0,0,1-.14,0,.44.44,0,0,1-.27-.56c.63-1.84,1.49-6.09.8-7.3a.43.43,0,0,1,.16-.6.44.44,0,0,1,.6.16c1,1.69-.19,6.47-.73,8A.43.43,0,0,1,242,264.47Z"/><path class="a" d="M244.32,265.14l-.13,0a.43.43,0,0,1-.29-.55,56.85,56.85,0,0,0,1.51-6.82.43.43,0,0,1,.49-.38.44.44,0,0,1,.39.49,59,59,0,0,1-1.55,7A.44.44,0,0,1,244.32,265.14Z"/><path class="a" d="M176.45,179h-.06c-1-.17-1.07-1.33-1.15-2.26a5.16,5.16,0,0,0-.14-.91,2.54,2.54,0,0,0-1.77-1.71,10.76,10.76,0,0,1-1.07-.54c-1.06-.64-1.62-3.3-1.35-4.55.14-.69.52-.84.74-.87a.35.35,0,0,1,.38.31.35.35,0,0,1-.3.39l0-.35,0,.35s-.14.15-.18.6c-.1,1.25.48,3.16,1.07,3.52a10.35,10.35,0,0,0,1,.5,3.25,3.25,0,0,1,2.14,2.12,4.52,4.52,0,0,1,.17,1.07c.07.7.14,1.57.58,1.64a.35.35,0,0,1-.06.7Z"/><path class="a" d="M177.68,178.83h-.07a.35.35,0,0,1-.28-.41c.12-.54.25-1,.37-1.52.43-1.63.78-2.92,0-4.75-.71-1.64-1.46-3.64-1-4.73a1.13,1.13,0,0,1,.74-.66.33.33,0,0,1,.43.23.35.35,0,0,1-.22.44.47.47,0,0,0-.32.28c-.28.62,0,2,1,4.15a7,7,0,0,1,.07,5.22c-.12.47-.25,1-.36,1.48A.35.35,0,0,1,177.68,178.83Z"/><path class="a" d="M178.39,178.83a.35.35,0,0,1-.21-.63,7.19,7.19,0,0,0,2.88-5.33v-.23c0-1.54.1-4.12,1.44-5.78a.35.35,0,0,1,.49-.05.34.34,0,0,1,.06.49c-1.19,1.47-1.25,3.91-1.29,5.36v.23a7.79,7.79,0,0,1-3.16,5.87A.33.33,0,0,1,178.39,178.83Z"/><path class="a" d="M179,179.48a.39.39,0,0,1-.25-.1.35.35,0,0,1,0-.5,3.57,3.57,0,0,1,1.55-.75,6.93,6.93,0,0,0,.85-.31,4.67,4.67,0,0,0,2.29-2.35,8.78,8.78,0,0,0,.18-1.8c.07-1.74.15-3.72,1.08-4.43a1.29,1.29,0,0,1,1.14-.22.34.34,0,0,1,.26.41.35.35,0,0,1-.41.27.65.65,0,0,0-.56.09c-.67.52-.76,2.48-.82,3.91a7.21,7.21,0,0,1-.23,2.05,5.24,5.24,0,0,1-2.62,2.69,7.31,7.31,0,0,1-1,.36,3.2,3.2,0,0,0-1.26.58A.33.33,0,0,1,179,179.48Z"/><path class="a" d="M175.92,179.48c-1.33,0-2.34-1.1-3.16-2-.23-.25-.45-.49-.66-.7a4.24,4.24,0,0,0-1.41-.75,5.22,5.22,0,0,1-1.58-.83,6.87,6.87,0,0,1-1.39-2,9,9,0,0,0-.81-1.37.35.35,0,1,1,.54-.43,8.46,8.46,0,0,1,.89,1.47,6.26,6.26,0,0,0,1.23,1.82,4.38,4.38,0,0,0,1.36.7,4.77,4.77,0,0,1,1.65.9c.23.22.46.47.7.73.79.87,1.7,1.86,2.78,1.76a.36.36,0,0,1,.38.32.35.35,0,0,1-.32.38Z"/><path class="a" d="M435,153.16H435c-1-.17-1.06-1.33-1.15-2.27a4.58,4.58,0,0,0-.13-.91,2.6,2.6,0,0,0-1.77-1.71,8.27,8.27,0,0,1-1.07-.54c-1.06-.64-1.62-3.3-1.36-4.54.15-.7.53-.85.74-.87a.35.35,0,0,1,.39.3.34.34,0,0,1-.3.39l0-.34,0,.34s-.14.15-.18.6c-.11,1.26.47,3.17,1.07,3.52a8.37,8.37,0,0,0,1,.5,3.3,3.3,0,0,1,2.15,2.12,5.1,5.1,0,0,1,.17,1.08c.06.69.14,1.56.58,1.64a.35.35,0,0,1-.06.69Z"/><path class="a" d="M436.26,153h-.07a.34.34,0,0,1-.27-.41c.11-.55.25-1.05.37-1.52.43-1.64.77-2.93,0-4.76-.71-1.63-1.46-3.64-1-4.73A1.24,1.24,0,0,1,436,141a.35.35,0,0,1,.44.23.34.34,0,0,1-.23.44.53.53,0,0,0-.31.28c-.29.63,0,2,1,4.16a7,7,0,0,1,.07,5.22c-.13.46-.25.95-.36,1.48A.36.36,0,0,1,436.26,153Z"/><path class="a" d="M437,153a.35.35,0,0,1-.28-.14.34.34,0,0,1,.07-.49,7.26,7.26,0,0,0,2.88-5.34v-.22c0-1.54.1-4.12,1.44-5.78a.35.35,0,0,1,.49,0,.34.34,0,0,1,.05.49c-1.19,1.47-1.24,3.9-1.28,5.35v.23a7.8,7.8,0,0,1-3.16,5.88A.4.4,0,0,1,437,153Z"/><path class="a" d="M437.59,153.68a.33.33,0,0,1-.24-.1.34.34,0,0,1,0-.49,3.72,3.72,0,0,1,1.54-.76,5.36,5.36,0,0,0,.86-.31,4.56,4.56,0,0,0,2.28-2.34,7.67,7.67,0,0,0,.18-1.8c.08-1.75.16-3.72,1.09-4.44a1.36,1.36,0,0,1,1.14-.22.36.36,0,0,1,.26.42.34.34,0,0,1-.42.26.63.63,0,0,0-.56.1c-.67.52-.75,2.48-.81,3.91a7.65,7.65,0,0,1-.23,2.05,5.28,5.28,0,0,1-2.62,2.69,7.28,7.28,0,0,1-1,.35,3.35,3.35,0,0,0-1.26.58A.35.35,0,0,1,437.59,153.68Z"/><path class="a" d="M434.51,153.68c-1.34,0-2.34-1.1-3.16-2-.23-.25-.45-.49-.66-.69a4,4,0,0,0-1.42-.76,4.67,4.67,0,0,1-1.57-.83,6.74,6.74,0,0,1-1.39-2,7.78,7.78,0,0,0-.82-1.36.35.35,0,0,1,.55-.44,9.22,9.22,0,0,1,.89,1.48,6.2,6.2,0,0,0,1.23,1.82,4.38,4.38,0,0,0,1.36.7,4.61,4.61,0,0,1,1.65.9c.22.21.46.47.7.73.79.87,1.69,1.85,2.78,1.76a.35.35,0,0,1,.05.7Z"/><path class="a" d="M173.59,40.58a.35.35,0,0,1-.35-.29.35.35,0,0,1,.29-.4c.43-.08.51-1,.57-1.64a5.1,5.1,0,0,1,.17-1.08,3.3,3.3,0,0,1,2.15-2.12,8.47,8.47,0,0,0,1-.5c.59-.36,1.17-2.26,1.07-3.52,0-.45-.16-.59-.18-.6A.36.36,0,0,1,178,30a.35.35,0,0,1,.39-.3c.21,0,.59.17.74.87.26,1.24-.29,3.9-1.35,4.54a9.78,9.78,0,0,1-1.07.54,2.58,2.58,0,0,0-1.77,1.71,3.87,3.87,0,0,0-.14.91c-.09.93-.19,2.1-1.15,2.27Z"/><path class="a" d="M172.36,40.46a.35.35,0,0,1-.34-.28c-.11-.53-.24-1-.36-1.48-.45-1.7-.84-3.16.06-5.22s1.26-3.53,1-4.16a.48.48,0,0,0-.31-.28.35.35,0,1,1,.21-.67,1.21,1.21,0,0,1,.74.66c.5,1.09-.26,3.1-1,4.72-.8,1.84-.46,3.13,0,4.77.13.47.26,1,.37,1.52a.34.34,0,0,1-.27.41Z"/><path class="a" d="M171.65,40.46a.44.44,0,0,1-.22-.07,7.82,7.82,0,0,1-3.15-5.88v-.23c0-1.45-.09-3.88-1.28-5.35a.36.36,0,0,1,0-.5.35.35,0,0,1,.49.06c1.34,1.65,1.4,4.23,1.44,5.78v.22a7.23,7.23,0,0,0,2.88,5.34.35.35,0,0,1,.06.49A.35.35,0,0,1,171.65,40.46Z"/><path class="a" d="M171,41.1a.35.35,0,0,1-.25-.1,3.14,3.14,0,0,0-1.26-.58,7.14,7.14,0,0,1-1-.35A5.31,5.31,0,0,1,166,37.38a7.17,7.17,0,0,1-.24-2.05c-.06-1.44-.14-3.4-.81-3.91a.63.63,0,0,0-.56-.1.34.34,0,0,1-.42-.26.35.35,0,0,1,.27-.42,1.33,1.33,0,0,1,1.14.22c.93.72,1,2.69,1.08,4.44a7.67,7.67,0,0,0,.18,1.8,4.54,4.54,0,0,0,2.29,2.34,6.37,6.37,0,0,0,.85.31,3.76,3.76,0,0,1,1.55.76.36.36,0,0,1,0,.49A.35.35,0,0,1,171,41.1Z"/><path class="a" d="M174.12,41.1h-.2a.35.35,0,0,1,.06-.7c1.07.09,2-.9,2.78-1.76.24-.26.47-.52.7-.73a4.49,4.49,0,0,1,1.64-.9,4.27,4.27,0,0,0,1.36-.7,6,6,0,0,0,1.23-1.82,10,10,0,0,1,.89-1.48.35.35,0,0,1,.55.44,8.45,8.45,0,0,0-.82,1.36,6.51,6.51,0,0,1-1.39,2,4.67,4.67,0,0,1-1.57.83,4.05,4.05,0,0,0-1.41.75c-.22.21-.44.45-.67.7C176.46,40,175.45,41.1,174.12,41.1Z"/><path class="a" d="M342.9,259.52a.35.35,0,0,1-.34-.29.36.36,0,0,1,.28-.41c.44-.07.52-.94.58-1.64a5.1,5.1,0,0,1,.17-1.07,3.28,3.28,0,0,1,2.15-2.12,7.67,7.67,0,0,0,1-.5c.6-.36,1.18-2.27,1.07-3.53,0-.44-.15-.58-.18-.59a.35.35,0,0,1,.09-.7c.21,0,.59.18.74.87.26,1.25-.3,3.91-1.36,4.55a9.78,9.78,0,0,1-1.07.54,2.56,2.56,0,0,0-1.77,1.71,4.47,4.47,0,0,0-.13.91c-.09.93-.19,2.09-1.15,2.26Z"/><path class="a" d="M341.67,259.39a.35.35,0,0,1-.34-.28c-.11-.53-.24-1-.36-1.48a7,7,0,0,1,.07-5.21c.93-2.14,1.26-3.53,1-4.16a.48.48,0,0,0-.31-.28.35.35,0,0,1-.23-.44.34.34,0,0,1,.44-.23,1.21,1.21,0,0,1,.74.66c.49,1.09-.26,3.09-1,4.72-.8,1.84-.46,3.13,0,4.76.12.48.26,1,.37,1.52a.35.35,0,0,1-.27.42Z"/><path class="a" d="M341,259.39a.33.33,0,0,1-.21-.07,7.79,7.79,0,0,1-3.16-5.87v-.23c0-1.45-.09-3.88-1.29-5.36a.35.35,0,0,1,.55-.44c1.34,1.66,1.4,4.24,1.44,5.78v.23a7.26,7.26,0,0,0,2.88,5.34.33.33,0,0,1,.07.48A.32.32,0,0,1,341,259.39Z"/><path class="a" d="M340.35,260a.35.35,0,0,1-.25-.1,3.2,3.2,0,0,0-1.26-.58,7.31,7.31,0,0,1-1-.36,5.28,5.28,0,0,1-2.62-2.69,7.6,7.6,0,0,1-.23-2.05c-.06-1.43-.14-3.39-.82-3.91a.64.64,0,0,0-.55-.09.35.35,0,0,1-.42-.27.35.35,0,0,1,.26-.41,1.29,1.29,0,0,1,1.14.22c.93.72,1,2.69,1.09,4.43a7.71,7.71,0,0,0,.18,1.81,4.59,4.59,0,0,0,2.28,2.34,6.54,6.54,0,0,0,.86.31,3.58,3.58,0,0,1,1.54.75.35.35,0,0,1,0,.5A.31.31,0,0,1,340.35,260Z"/><path class="a" d="M343.43,260h-.19a.34.34,0,0,1-.32-.38.35.35,0,0,1,.37-.32c1.08.09,2-.89,2.78-1.75.24-.27.48-.52.7-.74a4.77,4.77,0,0,1,1.65-.9,4.18,4.18,0,0,0,1.36-.7,6.07,6.07,0,0,0,1.23-1.82,9.13,9.13,0,0,1,.89-1.47.35.35,0,1,1,.55.43,8.28,8.28,0,0,0-.82,1.37,6.87,6.87,0,0,1-1.39,2,4.62,4.62,0,0,1-1.58.83,4.24,4.24,0,0,0-1.41.75c-.21.21-.43.45-.66.7C345.77,258.94,344.77,260,343.43,260Z"/><path class="a" d="M101,227.26c-1.45-3-3.85-9-2.8-12.25,1.4,2.34,1.88,5.54,2.57,8.18.33,1.25,1.81,3.54,1.15,4.76C101.43,227.79,101.52,227.53,101,227.26Z"/><path class="a" d="M104.72,226.76c-1.07-1.4-.72-5-.9-6.61a71.57,71.57,0,0,1-.55-8.53c1.48,4.45,2.7,11.07,2.15,15.88C105.18,227.44,105.23,227.27,104.72,226.76Z"/><path class="a" d="M108.62,226.26c-.62-.45-.3-5.71-.27-6.74a28.44,28.44,0,0,1,.65-7.08c1.08,3,.27,6.65.23,9.73,0,1.61.24,3.45-.29,5C108.59,227.32,108.58,227.06,108.62,226.26Z"/><path class="a" d="M112,225.94c.1.19-.11.29.13.36a45.31,45.31,0,0,1,2.36-9.16c.17,2.6.23,8.76-1.64,10.82C111.85,227.54,111.94,226.31,112,225.94Z"/><path class="a" d="M350.23,197.62c-1.46-3-3.86-9-2.8-12.25,1.4,2.34,1.87,5.54,2.57,8.18.33,1.26,1.8,3.55,1.15,4.77C350.64,198.16,350.73,197.9,350.23,197.62Z"/><path class="a" d="M353.93,197.12c-1.07-1.4-.72-5-.9-6.61a69.54,69.54,0,0,1-.55-8.53c1.48,4.45,2.7,11.07,2.15,15.89C354.39,197.8,354.43,197.63,353.93,197.12Z"/><path class="a" d="M357.82,196.62c-.61-.45-.29-5.71-.26-6.74a28.4,28.4,0,0,1,.65-7.07c1.08,3,.27,6.64.23,9.72,0,1.61.24,3.46-.29,5C357.79,197.68,357.79,197.42,357.82,196.62Z"/><path class="a" d="M361.16,196.3c.1.2-.12.3.13.37a45.14,45.14,0,0,1,2.36-9.16c.17,2.6.23,8.76-1.64,10.81C361.06,197.91,361.15,196.67,361.16,196.3Z"/><path class="a" d="M475.32,243.33c-1.45-3-3.85-9-2.8-12.25,1.4,2.34,1.88,5.54,2.57,8.18.33,1.25,1.81,3.54,1.15,4.76C475.73,243.86,475.82,243.6,475.32,243.33Z"/><path class="a" d="M479,242.82c-1.08-1.39-.73-5-.9-6.6a69.68,69.68,0,0,1-.56-8.53c1.48,4.44,2.7,11.07,2.15,15.88C479.48,243.5,479.53,243.33,479,242.82Z"/><path class="a" d="M482.92,242.33c-.62-.45-.3-5.72-.27-6.74a28.44,28.44,0,0,1,.65-7.08c1.09,3,.27,6.64.23,9.73,0,1.6.24,3.45-.29,5C482.89,243.39,482.88,243.13,482.92,242.33Z"/><path class="a" d="M486.25,242c.1.2-.11.3.13.37a45.14,45.14,0,0,1,2.36-9.16c.17,2.6.23,8.76-1.64,10.82C486.15,243.61,486.24,242.38,486.25,242Z"/><path class="a" d="M43,99.46c1.44-2.38,3.82-7.08,2.79-9.66-1.39,1.84-1.87,4.37-2.56,6.45-.33,1-1.79,2.8-1.15,3.76C42.56,99.88,42.48,99.68,43,99.46Z"/><path class="a" d="M39.32,99.07c1.07-1.1.73-3.91.91-5.21a44.59,44.59,0,0,0,.57-6.72c-1.48,3.51-2.69,8.73-2.16,12.52C38.87,99.61,38.83,99.48,39.32,99.07Z"/><path class="a" d="M35.49,98.69c.61-.35.3-4.5.28-5.31a18.13,18.13,0,0,0-.62-5.58c-1.08,2.34-.28,5.24-.26,7.67,0,1.27-.24,2.72.27,3.93C35.51,99.53,35.52,99.32,35.49,98.69Z"/><path class="a" d="M32.2,98.45c-.1.15.11.23-.13.29a30.06,30.06,0,0,0-2.3-7.22c-.18,2-.25,6.91,1.58,8.52A1.42,1.42,0,0,0,32.2,98.45Z"/><path class="a" d="M298.45,15.64c1.46-3,3.86-9,2.8-12.25-1.4,2.34-1.87,5.54-2.57,8.18-.33,1.25-1.8,3.54-1.15,4.76C298,16.17,298,15.91,298.45,15.64Z"/><path class="a" d="M294.75,15.14c1.07-1.4.72-5,.9-6.61A69.54,69.54,0,0,0,296.2,0c-1.48,4.44-2.7,11.07-2.15,15.88C294.29,15.82,294.25,15.64,294.75,15.14Z"/><path class="a" d="M290.86,14.64c.61-.45.29-5.72.26-6.74a28.44,28.44,0,0,0-.65-7.08c-1.08,3-.27,6.64-.23,9.73,0,1.6-.24,3.45.29,5C290.89,15.7,290.89,15.44,290.86,14.64Z"/><path class="a" d="M287.52,14.31c-.1.2.12.3-.13.37A45.14,45.14,0,0,0,285,5.52c-.17,2.6-.22,8.76,1.64,10.82C287.62,15.92,287.53,14.69,287.52,14.31Z"/><path class="e" d="M3.83,240.12c1.6-2.1,3.23-5.3,5.71-6.41-.29,1.1-1.17,2-1.51,3.06.23-.16.66-.25.91-.41a12.55,12.55,0,0,1-2.07,3.12C5.37,241.25,2.42,241.18,3.83,240.12Z"/><path class="e" d="M11.89,236.92a24.77,24.77,0,0,1,4.13-5c-.06.14-.13.26-.2.4.38-.11.92-.12,1.32-.27.33,2-3.19,6.46-5.08,5.85C12,237.48,12.16,237,11.89,236.92Z"/><path class="e" d="M6.91,253.17a25.4,25.4,0,0,1,4.12-5c0,.14-.13.27-.19.4.38-.11.92-.11,1.32-.26.33,1.95-3.19,6.46-5.08,5.84C7.05,253.73,7.18,253.23,6.91,253.17Z"/><path class="e" d="M10.78,244s2.57-3.1,3.34-3.48a2.81,2.81,0,0,0,0,.41c.31-.18.8-.22,1.1-.4a10.87,10.87,0,0,1-1.76,3.55c-.4.5-1.25,1.79-2,1.88C10.29,246.1,10,245.17,10.78,244Z"/><path class="e" d="M2.24,248.54s2.57-3.1,3.34-3.49a2,2,0,0,0,0,.42c.3-.18.8-.22,1.09-.41a10.44,10.44,0,0,1-1.76,3.56c-.39.5-1.25,1.79-2,1.87C1.75,250.62,1.44,249.7,2.24,248.54Z"/><path class="e" d="M19.67,239.42c-.27-.72,1.95-3.15,2.65-3.47,0,.07-.14.17-.15.25a10.71,10.71,0,0,1,2.22-1.64c.11,1.82-.9,2.25-2.11,3.72-.72.88-2.1,4-3.59,3.08C18.65,240.31,19.32,239.13,19.67,239.42Z"/><path class="e" d="M16.37,246.15a2.39,2.39,0,0,1-.24.48c1.44-1.19,2.32-3.23,4-4.09-.1.18-.17.48-.28.68.53-.11,1-.38,1.55-.54a2,2,0,0,0-.06.85c-.78,1.1-4.42,6.43-6.16,5A8.62,8.62,0,0,1,16.37,246.15Z"/><path class="e" d="M314.06,93.18c1.61-2.1,3.23-5.3,5.72-6.41-.29,1.11-1.17,2-1.52,3.07.24-.17.67-.26.92-.42a12.64,12.64,0,0,1-2.08,3.13C315.61,94.31,312.66,94.24,314.06,93.18Z"/><path class="e" d="M322.12,90a25.81,25.81,0,0,1,4.13-5c-.05.14-.13.27-.19.4.38-.11.92-.11,1.31-.26.34,1.95-3.18,6.46-5.08,5.84C322.27,90.55,322.4,90.05,322.12,90Z"/><path class="e" d="M317.14,106.23a25.45,25.45,0,0,1,4.13-5c-.06.14-.13.26-.2.4.38-.11.93-.12,1.32-.27.34,2-3.18,6.46-5.08,5.85C317.28,106.79,317.42,106.29,317.14,106.23Z"/><path class="e" d="M321,97.08s2.58-3.1,3.34-3.49a2.75,2.75,0,0,0,0,.41c.3-.17.8-.21,1.09-.4a10.44,10.44,0,0,1-1.76,3.56c-.39.49-1.25,1.79-2,1.87C320.52,99.16,320.21,98.24,321,97.08Z"/><path class="e" d="M312.48,101.6s2.57-3.09,3.34-3.48a1.85,1.85,0,0,0,0,.41c.3-.17.8-.22,1.09-.4a10.49,10.49,0,0,1-1.76,3.55c-.4.5-1.25,1.8-2,1.88C312,103.69,311.67,102.77,312.48,101.6Z"/><path class="e" d="M329.91,92.49c-.27-.73,1.95-3.15,2.65-3.48,0,.08-.15.18-.16.25a11,11,0,0,1,2.23-1.63c.1,1.81-.91,2.25-2.11,3.72-.72.87-2.1,4-3.59,3.07C328.88,93.37,329.55,92.19,329.91,92.49Z"/><path class="e" d="M326.6,99.21a2.42,2.42,0,0,1-.23.49c1.44-1.19,2.31-3.24,4-4.1-.1.18-.18.49-.28.69.53-.11,1-.38,1.54-.54a2.15,2.15,0,0,0-.05.85c-.78,1.09-4.43,6.42-6.16,5A8.41,8.41,0,0,1,326.6,99.21Z"/><path class="h" d="M281.26,250.07a.34.34,0,0,1-.28-.13c-1.86-2.41-2.89-5.41-3.89-8.32-.44-1.3-.87-2.53-1.36-3.71-8.18-19.66-10.76-37.27-7.68-52.37a61.92,61.92,0,0,1,4-12,7.25,7.25,0,0,1,.54-.82,11,11,0,0,0,.7-1.05.35.35,0,0,1,.44-.22.34.34,0,0,1,.22.43,7,7,0,0,1-.79,1.24c-.18.26-.43.61-.47.69a62,62,0,0,0-4,11.91c-3.05,15-.48,32.44,7.65,52,.5,1.2.94,2.5,1.37,3.76a28.29,28.29,0,0,0,3.78,8.11.34.34,0,0,1-.27.56Z"/><path class="h" d="M289.77,248.63a.35.35,0,0,1-.17,0,.35.35,0,0,1-.14-.47,49.17,49.17,0,0,0,3.93-11.21c2.18-9,4-18.23,5.67-28.33,1.69-10.45,1.68-19.73,0-27.58l-.06-.25c-.71-3.27-2.37-10.95-6.1-12a.35.35,0,0,1-.24-.43.36.36,0,0,1,.43-.24c4.13,1.14,5.8,8.82,6.6,12.5l.05.26c1.73,7.93,1.74,17.3,0,27.83-1.63,10.12-3.49,19.4-5.68,28.39a49.78,49.78,0,0,1-4,11.37A.38.38,0,0,1,289.77,248.63Z"/><path class="h" d="M284.77,250.07h0a.35.35,0,0,1-.31-.38,43.36,43.36,0,0,0-.61-8.43c-.21-1.56-.4-3-.48-4.18l-.13-2a214.18,214.18,0,0,1-.72-23c.1-2.51.2-5,.29-7.56.26-6.86.52-14,1-20.9.14-2.24.43-4.5.71-6.69.25-2,.51-4,.65-6,0-.33,0-.7,0-1.07a5.68,5.68,0,0,1,.24-2.22.35.35,0,1,1,.63.29,5.68,5.68,0,0,0-.18,1.92c0,.39,0,.78,0,1.13-.15,2-.41,4.06-.66,6-.28,2.18-.57,4.42-.7,6.64-.43,6.94-.7,14-.95,20.89-.1,2.52-.19,5-.29,7.56a212.85,212.85,0,0,0,.72,22.91l.13,2c.07,1.12.27,2.59.47,4.14a43.24,43.24,0,0,1,.62,8.59A.35.35,0,0,1,284.77,250.07Z"/><path class="e" d="M278.29,168.62c-1.23-.13-9.37-6.08-5.67-7.83,1.77-.84,6.26,4.52,7.89,5.49-.61-3.52-3.18-6.79-2.69-10.74,2.75-.35,4.86,6.89,5.75,9.2-.09-2-.88-9.3,2.49-9.47,3.6-.19,2.28,9,3.15,11.22,1.61-3.24,2.56-7.66,6.11-9.55,1.41,1.64-1,6.34-1.38,8.35,1.23-1.7,3.47-4.6,5.79-4.59.09,2.19-1.28,4.07-2.32,5.84.83-.37,2.48-1.76,3-.44.65,1.68-2.71,3.08-3.78,3.51C293.36,170.91,278.83,172.68,278.29,168.62Z"/><path class="i" d="M38.3,268.35h-.07a.35.35,0,0,1-.26-.4c3.06-14.54,2.2-30.13,1.36-45.21-.54-9.54-1.09-19.4-.67-29.06a.34.34,0,0,1,.35-.32.33.33,0,0,1,.32.35c-.41,9.63.14,19.47.67,29,.84,15.12,1.71,30.75-1.37,45.38A.33.33,0,0,1,38.3,268.35Z"/><path class="i" d="M38.53,187.57a.33.33,0,0,1-.33-.28,88.87,88.87,0,0,1-.48-15.76c.23-8.43.46-17.15-2.81-25.31a.33.33,0,0,1,.62-.25c3.32,8.28,3.09,17.08,2.86,25.58a89.33,89.33,0,0,0,.48,15.64.34.34,0,0,1-.29.38Z"/><path class="i" d="M29.38,268.9a.34.34,0,0,1-.34-.3c-2-18.39-2.45-36.78-2.6-52.34a.33.33,0,0,1,.33-.34h0a.34.34,0,0,1,.34.33c.15,15.55.58,33.92,2.6,52.28a.34.34,0,0,1-.29.37Z"/><path class="i" d="M26.75,213.86a.34.34,0,0,1-.34-.33c0-3.73,0-7.47-.06-11.2-.05-9.48-.1-19.29-.34-28.93a.34.34,0,1,1,.67,0c.25,9.65.29,19.46.34,29q0,5.59.07,11.19a.34.34,0,0,1-.34.34Z"/><path class="i" d="M26.27,171a.34.34,0,0,1-.34-.32v-.18c-.21-7.44-.54-18.68,4-24.76a.34.34,0,1,1,.54.4c-4.44,5.9-4.11,17.44-3.91,24.34v.18a.34.34,0,0,1-.33.34Z"/><path class="i" d="M33.84,269.09h0a.34.34,0,0,1-.34-.34c0-1.85.06-3.88.18-6.4A.34.34,0,0,1,34,262a.34.34,0,0,1,.32.36c-.12,2.5-.17,4.52-.17,6.36A.34.34,0,0,1,33.84,269.09Z"/><path class="i" d="M34.23,258.13h0a.33.33,0,0,1-.32-.34c.4-12.5-.25-25.21-.88-37.5-.93-18.16-1.89-36.94.52-55.43.67-3.34,0-6.7-.67-10s-1.32-6.52-.61-9.63a.35.35,0,0,1,.41-.25.34.34,0,0,1,.25.41c-.68,3-.05,6.06.61,9.34s1.37,6.75.68,10.2c-2.4,18.4-1.44,37.15-.52,55.29.63,12.3,1.28,25,.88,37.55A.34.34,0,0,1,34.23,258.13Z"/><path class="i" d="M42.17,243.53a.34.34,0,0,1-.34-.34.33.33,0,0,1,.33-.33C50,242.81,58,242.09,61.8,234a.34.34,0,0,1,.45-.16.35.35,0,0,1,.16.45c-4,8.44-12.19,9.19-20.24,9.24Z"/><path class="i" d="M63.62,230.61h-.07a.34.34,0,0,1-.26-.4c1.95-9.88,3.57-20.71,2.17-33a.34.34,0,0,1,.3-.37.33.33,0,0,1,.37.29c1.4,12.37-.22,23.27-2.18,33.2A.33.33,0,0,1,63.62,230.61Z"/><path class="i" d="M65.64,195.58a.35.35,0,0,1-.34-.29c-.16-1.23-.35-2.48-.57-3.71a.32.32,0,0,1,.27-.39.34.34,0,0,1,.39.27c.22,1.24.42,2.5.58,3.74a.34.34,0,0,1-.29.37Z"/><path class="i" d="M45.34,235.8a11.79,11.79,0,0,1-3-.4.34.34,0,1,1,.17-.65,8.31,8.31,0,0,0,7.37-1.1c4.75-3.57,5.55-12.77,5.68-16.57a.34.34,0,0,1,.67,0c-.16,4.84-1.14,13.48-6,17.09A8.11,8.11,0,0,1,45.34,235.8Z"/><path class="i" d="M56,214.66h0a.33.33,0,0,1-.33-.34c0-1.21,0-2.73-.12-4.34-.3-7.13-.71-16.89,4.19-20.6a.34.34,0,1,1,.41.53c-4.62,3.5-4.22,13.06-3.93,20,.07,1.62.13,3.15.12,4.38A.34.34,0,0,1,56,214.66Z"/><path class="i" d="M44.06,240c-.57,0-1.16,0-1.76-.05a.34.34,0,1,1,0-.67c7.19.39,11.61-1.58,14.79-6.58a.33.33,0,0,1,.46-.1.34.34,0,0,1,.11.46C54.63,237.86,50.5,240,44.06,240Z"/><path class="i" d="M58.73,230.73a.35.35,0,0,1-.14,0,.34.34,0,0,1-.16-.45c4-8.49,3.59-18,3.22-27.14q-.09-2.12-.15-4.2a.34.34,0,0,1,.33-.35.32.32,0,0,1,.34.33c0,1.39.1,2.79.15,4.19.37,9.25.75,18.82-3.28,27.46A.34.34,0,0,1,58.73,230.73Z"/><path class="i" d="M61.79,196.81a.34.34,0,0,1-.34-.33,69.48,69.48,0,0,1,.26-7.18.34.34,0,0,1,.37-.3.33.33,0,0,1,.3.36,71,71,0,0,0-.26,7.11.33.33,0,0,1-.33.34Z"/><path class="i" d="M22,210.81a19.7,19.7,0,0,1-8-2c-4.75-2.31-6.4-6.94-7.47-11.61a83.28,83.28,0,0,1-2.19-18.64c0-.46,0-1,0-1.55-.07-3.63-.16-9.12,2.23-11.33a.34.34,0,0,1,.48,0,.32.32,0,0,1,0,.47c-2.18,2-2.08,7.32-2,10.83,0,.57,0,1.1,0,1.56A83.1,83.1,0,0,0,7.17,197c1,4.5,2.62,9,7.12,11.16,2.48,1.21,7.23,2.62,10.14,1.58a.34.34,0,0,1,.43.2.34.34,0,0,1-.2.43A8,8,0,0,1,22,210.81Z"/><path class="i" d="M21,199.85A5.05,5.05,0,0,1,18.2,199c-5.17-3.27-5.63-15.23-5.67-16.59a.34.34,0,0,1,.33-.34.36.36,0,0,1,.35.33c.12,4.77,1.39,13.53,5.35,16a5.22,5.22,0,0,0,5.1.08.33.33,0,0,1,.27.61A7.29,7.29,0,0,1,21,199.85Z"/><path class="i" d="M12.81,180a.34.34,0,0,1-.34-.33c0-.47,0-1,0-1.44,0-4-.1-8.59-2.48-11.68a.33.33,0,0,1,.06-.47.33.33,0,0,1,.47.06c2.52,3.26,2.57,7.95,2.62,12.08,0,.49,0,1,0,1.43a.34.34,0,0,1-.33.35Z"/><path class="i" d="M22.64,205.06a9.76,9.76,0,0,1-6.4-2.26c-4.83-4-6.4-12.4-6.86-18.75a.34.34,0,0,1,.67-.05c.45,6.22,2,14.44,6.62,18.28a9.38,9.38,0,0,0,7.38,2,.34.34,0,0,1,.38.29.34.34,0,0,1-.3.38A12.67,12.67,0,0,1,22.64,205.06Z"/><path class="i" d="M9.6,182.66a.34.34,0,0,1-.33-.32c-.12-2-.28-4-.44-6-.28-3.46-.57-7-.59-10.57a.34.34,0,0,1,.34-.34h0a.35.35,0,0,1,.34.34c0,3.5.3,7.07.58,10.52.16,2,.33,4,.44,6a.34.34,0,0,1-.32.36Z"/><path class="c" d="M522.61,142.74c-.05-4.06.14-11.44-3.41-14.17a4.12,4.12,0,0,0-6,.64c-1.88,2.48-2.57,6.34-3.08,9.37-.89,5.32-.93,10.79-1.53,16.14-.39,3.54-.9,8.78-4.61,10.23a3.71,3.71,0,0,1-3.58-.1c0-4.88-.25-9.77.06-14.65.38-5.8.42-14.21.39-20,0-7.34.1-12.11-.71-19.4-.61-5.49-1-11-2.67-16.32-.62-2-1.63-5.79-4-6.26-4.92-1-7.22,7.88-7.79,11.31-1.72,10.39-1.94,21-1.9,31.53l-.05,0a6.54,6.54,0,0,1-1.21,1.06,3.46,3.46,0,0,1-2.1-.26,5.2,5.2,0,0,1-3.2-3.15c-1.74-4.48-.61-10.27-1.19-15-.32-2.59-.69-6-3.07-7.4-5.46-3.25-6.82,3.73-7.15,7.85-.61,7.4-.86,16.06,1.68,22.73,1.38,3.62,4.2,7.61,8.08,8.61,1.82.46,3.65.61,5.49.94a11.08,11.08,0,0,0,2.82,0q0,3.19,0,6.38c-.17,9.85-.1,19.78,0,29.64.06,4.53-.33,9.12-.2,13.65,3.76.32,7.94.72,11.65.05,3.4-.62,3.83-2.63,3.81-6.45l-.36,2.9c.66-4.93,1.05-9.89,1.31-14.86.55-.07,1.11-.12,1.65-.17a28.69,28.69,0,0,0,4.6-.77,21.69,21.69,0,0,0,7.81-4c3.34-2.65,5-6.22,6.17-10.33A69.7,69.7,0,0,0,522.61,142.74Zm-52.69-24.65a.44.44,0,1,1,.86-.17l.05.21a4.58,4.58,0,0,0,1,2.53c0-.15.06-.3.1-.46.08-.37.16-.75.22-1.14s.09-.69.12-1l.08-.66v-.14h0c.08-.37.33-.41.48-.39s.39.13.38.5h0v.11l-.07.67c0,.36-.08.72-.13,1.08s-.15.81-.23,1.21c0,.11-.05.23-.08.34.74-.26,1.23-1.07,1.68-1.79a7.4,7.4,0,0,1,.53-.8.43.43,0,0,1,.61-.07.44.44,0,0,1,.08.62,6.73,6.73,0,0,0-.47.71c-.55.89-1.3,2.12-2.65,2.28l-.28,0c-1.58,0-2-2.21-2.25-3.41Zm5.83,17.85c-.14,1.27-.39,3.65-2.21,3.6h0c-1.36,0-2.22-1.19-2.85-2a8.43,8.43,0,0,0-.53-.66.43.43,0,0,1,0-.62.44.44,0,0,1,.62,0,8.66,8.66,0,0,1,.6.74,3.83,3.83,0,0,0,1.83,1.64c0-.11-.07-.22-.11-.34-.12-.38-.24-.77-.34-1.18s-.15-.7-.23-1.05l-.13-.67v-.11h0c0-.39.19-.5.33-.53a.42.42,0,0,1,.52.35h0v.13l.13.65c.07.35.14.69.22,1s.21.75.32,1.12c.05.14.1.29.14.44a4.62,4.62,0,0,0,.77-2.61l0-.22a.42.42,0,0,1,.48-.39.44.44,0,0,1,.39.49Zm10.13-24.72a.44.44,0,0,1,.64-.61,8.66,8.66,0,0,1,.6.74A3.88,3.88,0,0,0,489,113c0-.11-.07-.23-.11-.34-.12-.38-.24-.77-.34-1.18s-.16-.72-.23-1.08l-.11-.53,0-.15v-.07h0a.41.41,0,0,1,.13-.43.45.45,0,0,1,.43-.09.44.44,0,0,1,.3.34h0v.06a.08.08,0,0,1,0,0h0l.14.65c.07.35.14.7.22,1s.21.75.33,1.11c0,.15.09.3.13.44a4.58,4.58,0,0,0,.77-2.6l0-.22a.43.43,0,0,1,.48-.39.44.44,0,0,1,.39.49l0,.21c-.14,1.28-.39,3.66-2.21,3.61h0c-1.36,0-2.22-1.2-2.85-2A8.43,8.43,0,0,0,485.88,111.22Zm-.11,38.41a6.94,6.94,0,0,0-.52-.66.44.44,0,1,1,.64-.61c.18.2.38.46.59.74a3.9,3.9,0,0,0,1.83,1.63c0-.11-.07-.22-.1-.33-.13-.39-.25-.78-.35-1.18s-.15-.72-.23-1.08l-.1-.53,0-.15,0-.08h0a.44.44,0,0,1,.57-.51.42.42,0,0,1,.29.33h0l0,.07a.06.06,0,0,0,0,0h0l.13.64c.07.36.14.71.22,1s.21.75.33,1.12l.14.44A4.69,4.69,0,0,0,490,148l0-.22a.43.43,0,0,1,.49-.39.45.45,0,0,1,.39.49l0,.21c-.13,1.28-.39,3.65-2.21,3.6h0C487.27,151.63,486.4,150.47,485.77,149.63Zm6.62,37.88a7,7,0,0,0-.29.79c-.33,1-.78,2.37-2.06,2.84a1.82,1.82,0,0,1-.63.11c-1.33,0-2.14-1.81-2.61-2.83l-.09-.19a.45.45,0,0,1,.22-.59.44.44,0,0,1,.58.21l.1.21c.44,1,.95,1.95,1.55,2.22,0-.16,0-.31,0-.47,0-.38,0-.77,0-1.15s-.08-.7-.12-1l-.09-.71h0v-.07h0a.52.52,0,0,1,.38-.5c.21,0,.4.18.48.4h0v.1h0v0l.08.66c.05.36.1.72.13,1.08s0,.82,0,1.22c0,.11,0,.21,0,.32a3.92,3.92,0,0,0,1.22-2.09,6.78,6.78,0,0,1,.33-.89.44.44,0,1,1,.8.37Zm4.92-21.38a7.47,7.47,0,0,0-.57.63c-.67.81-1.59,1.92-2.95,1.88h0c-1.82,0-2-2.44-2-3.72v-.21a.44.44,0,0,1,.41-.47.45.45,0,0,1,.47.42v.21a4.56,4.56,0,0,0,.63,2.65c0-.15.1-.29.16-.43.13-.36.27-.73.38-1.1s.19-.66.27-1l.15-.56,0-.12h0l0-.11h0a.42.42,0,0,1,.31-.32.46.46,0,0,1,.43.12.43.43,0,0,1,.11.43h0l0,.07a.08.08,0,0,1,0,0h0l-.17.67c-.09.35-.18.69-.28,1s-.27.78-.41,1.16l-.12.33a3.94,3.94,0,0,0,1.92-1.53,7.86,7.86,0,0,1,.63-.71.43.43,0,0,1,.62,0A.44.44,0,0,1,497.31,166.13Zm3-38.7a6.18,6.18,0,0,0-.56.63c-.68.8-1.6,1.91-3,1.88h0c-1.82-.05-1.94-2.44-2-3.73V126a.44.44,0,0,1,.42-.46.42.42,0,0,1,.46.41v.22a4.69,4.69,0,0,0,.63,2.64l.16-.43c.14-.36.28-.72.39-1.1s.19-.69.28-1l.2-.76h0a.41.41,0,0,1,.31-.31.46.46,0,0,1,.43.11.41.41,0,0,1,.1.43h0l0,.09,0,.14-.14.51c-.09.36-.18.72-.29,1.08s-.26.77-.4,1.15c-.05.11-.09.22-.13.33a3.85,3.85,0,0,0,1.92-1.53c.23-.27.44-.52.64-.71a.45.45,0,0,1,.62,0A.44.44,0,0,1,500.29,127.43Zm9.79,22.27a8.43,8.43,0,0,0-.53-.66.43.43,0,0,1,0-.62.44.44,0,0,1,.62,0,8.7,8.7,0,0,1,.59.74,3.85,3.85,0,0,0,1.84,1.64c0-.11-.07-.23-.11-.34-.12-.38-.25-.77-.34-1.17s-.16-.73-.23-1.09l-.11-.52,0-.15,0-.08h0a.39.39,0,0,1,.13-.42.43.43,0,0,1,.72.24h0l.15.76c.07.35.14.7.23,1.05s.2.75.32,1.11c0,.15.09.3.14.45a4.62,4.62,0,0,0,.77-2.61l0-.22a.44.44,0,0,1,.49-.39.45.45,0,0,1,.39.49l0,.22c-.14,1.27-.4,3.65-2.22,3.6h0C511.57,151.7,510.71,150.55,510.08,149.7Zm7.8,15.28a7.49,7.49,0,0,0-.56.63c-.68.81-1.6,1.92-3,1.88h0c-1.82-.05-1.94-2.43-2-3.72v-.21a.45.45,0,0,1,.42-.47.43.43,0,0,1,.46.42v.22a4.69,4.69,0,0,0,.63,2.64l.16-.43c.14-.36.28-.72.39-1.1s.19-.69.28-1l.16-.63h0s0,0,0,0l0-.07h0a.45.45,0,0,1,.31-.32.46.46,0,0,1,.43.12.4.4,0,0,1,.1.43h0v0c0,.06,0,.13-.05.2l-.14.51c-.09.36-.18.72-.29,1.07a11.38,11.38,0,0,1-.41,1.16l-.12.33a3.85,3.85,0,0,0,1.92-1.53c.23-.27.44-.52.64-.71a.44.44,0,1,1,.6.64Zm3.46-31.6a7.49,7.49,0,0,0-.56.63c-.68.81-1.6,1.92-3,1.88h0c-1.82,0-1.94-2.44-2-3.72V132a.45.45,0,0,1,.41-.47.43.43,0,0,1,.47.42v.21a4.64,4.64,0,0,0,.63,2.65c0-.15.11-.29.16-.44.14-.35.28-.72.39-1.09s.19-.69.28-1l.19-.75h0a.43.43,0,0,1,.31-.32.46.46,0,0,1,.43.12.4.4,0,0,1,.1.43h0l0,.09a1,1,0,0,1,0,.14l-.13.51c-.09.36-.18.72-.29,1.07s-.26.78-.41,1.16l-.12.33a3.85,3.85,0,0,0,1.92-1.53c.23-.27.44-.52.63-.71a.44.44,0,0,1,.63,0A.43.43,0,0,1,521.34,133.38Z"/><path class="h" d="M494.86,196.17h-.09a.35.35,0,0,1-.25-.42c3-12.64,2.63-26.28,2.26-39.47-.24-8.35-.48-17,.11-25.42a.35.35,0,0,1,.7.05c-.59,8.4-.35,17-.11,25.35.37,13.24.76,26.93-2.28,39.65A.36.36,0,0,1,494.86,196.17Z"/><path class="h" d="M497,125.58a.36.36,0,0,1-.35-.31,78.27,78.27,0,0,1,0-13.79c.4-7.36.81-15-1.85-22.16a.36.36,0,0,1,.21-.45.35.35,0,0,1,.45.21c2.71,7.32,2.29,15,1.89,22.44a76.9,76.9,0,0,0,0,13.67.36.36,0,0,1-.31.39Z"/><path class="h" d="M487,196.44a.34.34,0,0,1-.34-.32c-1.34-16.14-1.27-32.22-1-45.82A.33.33,0,0,1,486,150a.35.35,0,0,1,.35.35c-.24,13.59-.31,29.65,1,45.75a.36.36,0,0,1-.32.38Z"/><path class="h" d="M486.06,148.27h0a.35.35,0,0,1-.35-.35l.21-9.79c.19-8.29.38-16.86.4-25.3a.35.35,0,0,1,.35-.34h0a.34.34,0,0,1,.35.35c0,8.43-.21,17-.4,25.3l-.21,9.79A.35.35,0,0,1,486.06,148.27Z"/><path class="h" d="M486.67,110.77a.35.35,0,0,1-.35-.35v-.15c0-6.52,0-16.36,4.14-21.58a.34.34,0,0,1,.49-.06.35.35,0,0,1,.05.49c-4,5-4,15.12-4,21.15v.15a.35.35,0,0,1-.35.35Z"/><path class="h" d="M490.94,196.71h0a.35.35,0,0,1-.34-.36c0-1.63.14-3.4.3-5.59a.36.36,0,0,1,.38-.32.35.35,0,0,1,.32.37c-.16,2.18-.26,3.94-.3,5.56A.35.35,0,0,1,490.94,196.71Z"/><path class="h" d="M491.54,187.14h0a.35.35,0,0,1-.33-.37c.65-10.91.39-22,.14-32.78-.38-15.9-.77-32.34,1.78-48.44.66-2.9.15-5.85-.35-8.71s-1-5.74-.3-8.45a.37.37,0,0,1,.43-.25.36.36,0,0,1,.25.43c-.67,2.56-.19,5.27.31,8.15s1,6,.35,9c-2.54,16-2.15,32.42-1.78,48.29.26,10.77.52,21.9-.13,32.84A.34.34,0,0,1,491.54,187.14Z"/><path class="h" d="M500.63,174.59l-1.81,0a.35.35,0,0,1-.34-.36c0-.19.17-.38.35-.34,6.85.14,13.81-.29,17.32-7.24a.35.35,0,1,1,.63.31C513.4,173.63,507.08,174.59,500.63,174.59Z"/><path class="h" d="M517.88,163.79h-.07a.34.34,0,0,1-.27-.41c2.25-9.93,3.56-18.61,2.69-28.77a.35.35,0,0,1,.7-.06c.93,10.85-.75,20.34-2.71,29A.34.34,0,0,1,517.88,163.79Z"/><path class="h" d="M520.48,133.22a.35.35,0,0,1-.34-.31c-.12-1.07-.25-2.17-.42-3.25a.36.36,0,0,1,.3-.4.34.34,0,0,1,.39.29c.17,1.1.31,2.2.42,3.29a.35.35,0,0,1-.31.38Z"/><path class="h" d="M502,167.89a10.37,10.37,0,0,1-2.82-.42.35.35,0,0,1,.19-.68,7.2,7.2,0,0,0,6.42-.77c4.22-3,5.14-11,5.33-14.3a.35.35,0,1,1,.7,0c-.25,4.23-1.32,11.78-5.63,14.83A7.08,7.08,0,0,1,502,167.89Z"/><path class="h" d="M511.6,149.67h0a.35.35,0,0,1-.34-.37c0-1.05,0-2.38,0-3.78-.09-6.26-.21-14.82,4.18-18a.36.36,0,0,1,.49.08.35.35,0,0,1-.08.49c-4.1,2.93-4,11.28-3.89,17.37,0,1.42,0,2.76,0,3.83A.35.35,0,0,1,511.6,149.67Z"/><path class="h" d="M501.23,171.53c-.71,0-1.45,0-2.22-.1a.35.35,0,1,1,.06-.69c6.26.51,10.15-1.1,13-5.37a.35.35,0,0,1,.48-.1.36.36,0,0,1,.1.49C510,169.74,506.5,171.53,501.23,171.53Z"/><path class="h" d="M513.61,163.78a.32.32,0,0,1-.16,0,.35.35,0,0,1-.15-.47c3.66-7.31,3.56-15.6,3.46-23.62,0-1.23,0-2.46,0-3.67a.34.34,0,0,1,.34-.35h0a.34.34,0,0,1,.34.35c0,1.21,0,2.44,0,3.66.1,8.11.2,16.48-3.54,23.94A.34.34,0,0,1,513.61,163.78Z"/><path class="h" d="M517.09,134.21h0a.36.36,0,0,1-.35-.36,60.71,60.71,0,0,1,.4-6.27.34.34,0,0,1,.39-.3.34.34,0,0,1,.3.39,61.92,61.92,0,0,0-.39,6.19A.35.35,0,0,1,517.09,134.21Z"/><path class="h" d="M482.25,145.5a17.12,17.12,0,0,1-7.25-2c-4.12-2.15-5.45-6.25-6.28-10.36a72.9,72.9,0,0,1-1.47-16.36c0-.4,0-.86,0-1.36,0-3.18.07-8,2.24-9.89a.36.36,0,0,1,.5,0,.35.35,0,0,1,0,.49c-1.93,1.68-2,6.31-2,9.37,0,.5,0,1,0,1.37A72.69,72.69,0,0,0,469.4,133c.8,3.94,2.07,7.87,5.93,9.88,2.13,1.11,6.23,2.46,8.78,1.62a.35.35,0,0,1,.44.22.35.35,0,0,1-.22.44A6.54,6.54,0,0,1,482.25,145.5Z"/><path class="h" d="M481.49,135.89a4.56,4.56,0,0,1-2.58-.79c-4.47-3-4.58-13.5-4.58-14.68a.34.34,0,0,1,.35-.35h0a.35.35,0,0,1,.35.35c0,4.17.89,11.83,4.27,14.1a4.49,4.49,0,0,0,4.4.19.35.35,0,0,1,.45.19.34.34,0,0,1-.19.45A6.5,6.5,0,0,1,481.49,135.89Z"/><path class="h" d="M474.69,118.38h0a.34.34,0,0,1-.34-.36c0-.4,0-.82,0-1.26.06-3.51.12-7.49-1.87-10.23a.34.34,0,0,1,.07-.48.35.35,0,0,1,.49.07c2.13,2.93,2.07,7.21,2,10.66,0,.42,0,.84,0,1.25A.36.36,0,0,1,474.69,118.38Z"/><path class="h" d="M483,140.48a8.7,8.7,0,0,1-5.87-2.14c-4.13-3.62-5.3-11-5.56-16.59a.35.35,0,0,1,.34-.37.35.35,0,0,1,.36.33c.25,5.44,1.37,12.65,5.32,16.1a8.21,8.21,0,0,0,6.37,1.93.35.35,0,0,1,.38.31.34.34,0,0,1-.32.38A8.71,8.71,0,0,1,483,140.48Z"/><path class="h" d="M471.82,120.59a.34.34,0,0,1-.34-.34c-.06-1.75-.15-3.53-.24-5.26-.16-3-.33-6.17-.26-9.26a.35.35,0,0,1,.35-.34h0a.35.35,0,0,1,.34.36c-.06,3.06.1,6.18.27,9.21.09,1.73.18,3.51.23,5.27a.34.34,0,0,1-.34.36Z"/><path class="a" d="M49.56,42.5a1.72,1.72,0,0,1-.19.49,2.72,2.72,0,0,1-2.22,1c-1.24.1-1.45.38-1.45.38s0,.23.4.82a2,2,0,0,1,.44,1.86c-.31.94-1.29,1.24-2.15,1.5l-.35.11c-.47.15-.48.21-.5.33a5.8,5.8,0,0,0,.28,2.22c.12.31.25.82.35,1.16a32.36,32.36,0,0,0,6,2.88,3.73,3.73,0,0,1-.52-3.23,2.12,2.12,0,0,1,2-1.14,5.86,5.86,0,0,1,1.17.09L53,51a.77.77,0,0,0,0-.15c0-.17,0-.34-.08-.49a2.2,2.2,0,0,1,1.18-2.82,4.36,4.36,0,0,1,1.12-.35l.44-.11A9.37,9.37,0,0,0,55,45.54a1.07,1.07,0,0,1-.14-.39Q52.27,43.74,49.56,42.5Z"/><path class="a" d="M61.94,32.74c-1.1-.35-1.4-.22-1.4-.21s0,.5,0,.71a2.48,2.48,0,0,1-.09,1.12,1.87,1.87,0,0,1-2.68,1.1l-.1,0c0,.1.13.35.2.52a2.31,2.31,0,0,1-.13,2.66c-1.19,1.25-2.53.32-3.1-.07a3.5,3.5,0,0,0-.57-.34.54.54,0,0,0-.26,0c-.14.16-.41.81.19,3.5a.93.93,0,0,1-.07.59c.63.57,1.27,1.13,1.91,1.69.44.43,2.06,1.79,2.55,2.21,0-.12,0-.23-.05-.35-.32-2.16.3-3.15.88-3.61a2.77,2.77,0,0,1,2.88-.2,7.79,7.79,0,0,1,.72.34,2.57,2.57,0,0,0,.33.18,1.74,1.74,0,0,0,0-.79c0-.13,0-.26,0-.39a1.69,1.69,0,0,1,2.41-1.72l.21.1.16.09a2.51,2.51,0,0,1,1.27-1.93,3.18,3.18,0,0,1,.33-.09,51.27,51.27,0,0,0-5-5.11A.92.92,0,0,1,61.94,32.74Z"/><path class="a" d="M69.67,33.38a3.07,3.07,0,0,0,0-.7,4,4,0,0,1,.21-1.77A2,2,0,0,1,71.4,29.6c1-.13,1.67.73,2.22,1.41l.32.39.14.16.14-.32a5.17,5.17,0,0,1,1-1.71,1.45,1.45,0,0,1,1.89-.16,4.16,4.16,0,0,1,.8.85c.24.31.35.44.49.48s.72-.74,1-1.1a1,1,0,0,1,.67-.43,26,26,0,0,0-2.23-7,1.58,1.58,0,0,1-1.35.95,2.21,2.21,0,0,1-1.55-.55c-.15-.13-.32-.31-.49-.49a3,3,0,0,0-.55-.5,9.05,9.05,0,0,0-.64,1,5.85,5.85,0,0,1-.54.8,2,2,0,0,1-1.49.87,2.22,2.22,0,0,1-1.69-.91,3.25,3.25,0,0,0-.41-.39,16.34,16.34,0,0,0-.91,2.32,1,1,0,0,1-.76.66,36.54,36.54,0,0,0,2.2,7.63S69.63,33.4,69.67,33.38Z"/><path class="a" d="M68.91,12.21a1.9,1.9,0,0,1,1.66,1.15,2.23,2.23,0,0,1,1.51-1.47,1.78,1.78,0,0,1,.69,0,44.49,44.49,0,0,1-1.28-4.45c-.19-.82-.19-1.85-.42-2.58a45.58,45.58,0,0,0-2.7,7.5A1.56,1.56,0,0,1,68.91,12.21Z"/><path class="a" d="M96.77,20c1.46.28,1.23,1.81,1.14,2.39a5.92,5.92,0,0,0-.07.7,2.4,2.4,0,0,1,2.06-.22A2.05,2.05,0,0,1,101,24.08c.4-2.21,1.13-4.32,1.73-6.48a25.38,25.38,0,0,1,2-5.56c-2.52,1.56-4.81,4-7,6-.72.65-1.41,1.33-2.08,2A3.37,3.37,0,0,1,96.77,20Z"/><path class="a" d="M97,35.56a3.37,3.37,0,0,1-.38-2.17,4.29,4.29,0,0,0,0-.61c0-.11,0-.19,0-.25a7,7,0,0,0-1.14.72,10.42,10.42,0,0,1-1,.63,2.17,2.17,0,0,1-2.13.16c-.89-.56-.85-1.75-.82-2.79a4.78,4.78,0,0,0-.06-1.32.63.63,0,0,0-.52-.26c-.45,0-2.62,1-3.08,1-.92,1.75-1.75,3.55-2.53,5.38a2.4,2.4,0,0,1,2.8,0c1.27.94,1,2.44.77,3.44a8.28,8.28,0,0,0-.13.89l.32-.24c.62-.49,1.91-1.51,3.13-.47,1,.87.74,2.22.52,3.21v.07a79.13,79.13,0,0,0,4.65-7A1.23,1.23,0,0,1,97,35.56Z"/><path class="a" d="M100.47,27.48a.93.93,0,0,1-.52-.4,5.43,5.43,0,0,1-.54-1.45,3.64,3.64,0,0,0-.31-.88l-.45.23a1.93,1.93,0,0,1-1.64.26,1.89,1.89,0,0,1-1-1.15,3.76,3.76,0,0,1-.06-2,.22.22,0,0,1,0-.08,6.81,6.81,0,0,0-2.25.76,1,1,0,0,1-.59.14,47.22,47.22,0,0,0-3.66,5,3.64,3.64,0,0,1,1.64-.3,2.69,2.69,0,0,1,2,1.1,4.13,4.13,0,0,1,.43,2.55c0,.22,0,.53,0,.79a8.84,8.84,0,0,0,.75-.5c1-.69,2.08-1.47,3.16-1a2.19,2.19,0,0,1,1.19,1.88,5.08,5.08,0,0,1,0,.88,24.13,24.13,0,0,0,1.13-2.85A19.55,19.55,0,0,0,100.47,27.48Z"/><path class="a" d="M68.46,20.88a2.62,2.62,0,0,1,2.48,1l.16.17h0a4.69,4.69,0,0,0,.38-.57,3.69,3.69,0,0,1,1.86-1.83,2.43,2.43,0,0,1,2.52,1l.23.24c0-.09.49-.54.64-.85-1-1.79-1.9-3.38-2.76-5.25a3.1,3.1,0,0,1-.83-.44,3.35,3.35,0,0,0-.61-.49c-.07.14-.15.34-.21.47-.24.58-.61,1.46-1.56,1.5a2,2,0,0,1-1.86-1.38,6.78,6.78,0,0,0-.63.74c-.18.16-.35.4-.71.8-.2,1.19-.36,2.39-.45,3.6a25.82,25.82,0,0,0,0,2.78C67.58,21.31,68,21,68.46,20.88Z"/><path class="a" d="M75,39.07a3,3,0,0,1,1.15,1.22l.08.13a4.77,4.77,0,0,0,.4-.55c.46-.71,1.54-2.37,3.1-1.43a2.29,2.29,0,0,1,.92,1.38c0,.08.06.18.08.25s0,0,.08,0a81.76,81.76,0,0,0-.46-8.42,2.2,2.2,0,0,1-2.4,1,2.82,2.82,0,0,1-1.62-1.18c-.08.17-.17.36-.24.54-.32.76-.68,1.62-1.6,1.77a2.4,2.4,0,0,1-2.06-1.06c-.12-.14-.25-.3-.37-.46l-.31-.37a5.45,5.45,0,0,0,0,.7c0,.82.09,2.34-1.36,2.77l.06.14a38,38,0,0,1,1.77,4.6C72.7,39.44,73.63,38.38,75,39.07Z"/><path class="a" d="M106.34,43.16c.06-.26.13-.53.21-.82.17-.64.44-1.62.15-1.75,0,0-.56.11-.83.18-.81.21-1.91.5-2.58-.36s-.21-1.89.13-2.64a4.5,4.5,0,0,0,.33-.85,5,5,0,0,0-2,.48,4.27,4.27,0,0,1-.81.28c-1.65,1.78-3,3.53-4.62,5.34a2.81,2.81,0,0,1,.86.1,1,1,0,0,1,.7.66,3,3,0,0,1,0,1.33,2.64,2.64,0,0,0,0,.28s0,.06,0,.1l.27-.07c.27-.07.55-.14.83-.19,1.31-.25,1.7.48,1.81.81a2.8,2.8,0,0,1-.7,2.34l-.08.12h.47c.33,0,.64,0,1,0l.44,0h0a26.08,26.08,0,0,0,4.34-4.32C106.12,43.93,106.29,43.41,106.34,43.16Z"/><path class="a" d="M98.09,50.25a1,1,0,0,1-.57-.92,2.68,2.68,0,0,1,.58-1.61l.09-.15.06-.1-.32.07c-.69.15-1.36.31-1.85-.17a2,2,0,0,1-.26-1.89,2.11,2.11,0,0,0,0-.21s0-.1,0-.16a7.63,7.63,0,0,0-1.05.4,1,1,0,0,1-.86,0q-.72.7-1.5,1.35c-1.18,1-2.71,2.3-4.25,2.52a4.34,4.34,0,0,1,1-1.55l2.13-2.9a1,1,0,0,1-.67-.77,4.56,4.56,0,0,1,.15-1.71,5,5,0,0,0,.16-1.16,5.9,5.9,0,0,0-.59.43c-.61.48-1.74,1.37-2.82.48s-.78-2.15-.6-3.1.22-1.28,0-1.43-1.31.63-1.87,1.08l-.59.47a1,1,0,0,1-.49.18c-1.14,2.91-2.2,5.83-3.35,8.65a11.69,11.69,0,0,1,0-3.44c.06-.84.08-1.69.1-2.54a.93.93,0,0,1-.24,0h0a2,2,0,0,1-1.79-1.64v0a5.72,5.72,0,0,0-.39.56,3.88,3.88,0,0,1-1.12,1.28,1.84,1.84,0,0,1-2.79-.91c-.08-.12-.19-.31-.27-.41a4.69,4.69,0,0,0-.42.55c-.13.18-.25.36-.37.5a.94.94,0,0,1-.56.32,19.26,19.26,0,0,1,.43,3.1,18.83,18.83,0,0,1,.25,2.7,24.28,24.28,0,0,0-4.11-7.93,1,1,0,0,1-.77-.11,1.56,1.56,0,0,0-.63-.26c0,.05-.07.45-.1.62a1.57,1.57,0,0,1-.43,1,1.93,1.93,0,0,1-2.22.38,3,3,0,0,1-.2,1.71,1.92,1.92,0,0,1-1.13,1.11,2.47,2.47,0,0,1-2-.4,5.24,5.24,0,0,0-.48-.23c-.55-.21-.83-.17-.9-.12s-.3.67-.15,1.69.14,1.27.15,1.4c.07.43.07.79.1,1.21.59.51,1.22,1,1.86,1.49l-2.1-1.28a13.4,13.4,0,0,1-1.67-1l-1.05-.61a1.72,1.72,0,0,1-.24,1.65,3.33,3.33,0,0,1-1.76.8,3.33,3.33,0,0,0-.66.19.77.77,0,0,0-.2.12s.07.3.11.5.07.39.1.6a2.32,2.32,0,0,1-.44,2,2.19,2.19,0,0,1-2,.39,4.39,4.39,0,0,0-.82-.07.67.67,0,0,0-.32,0c0,.17,1.34,3.12,1.35,3.23,1.26.42,2.54.82,3.85,1.19a54.58,54.58,0,0,0,15.27,1.86,18.91,18.91,0,0,0,6.65-1c2.21-.29,4.65-1.32,7.22-2a35.65,35.65,0,0,0,6.8-2.39c2.11-1.05,4.25-2.19,6.32-3.36A1.61,1.61,0,0,1,98.09,50.25Z"/><path class="a" d="M99,48.43l.1,0h0Z"/><path class="a" d="M112,34.67a1.51,1.51,0,0,0,0-.82,4.11,4.11,0,0,0-.47-.07,2.16,2.16,0,0,1-1.63-.79.93.93,0,0,1-.18-.45,3,3,0,0,1,.3-1.44l.09-.23a3.53,3.53,0,0,0-1.07-.08,4.75,4.75,0,0,1-.76,0,42.08,42.08,0,0,0-4.72,4.12,3.87,3.87,0,0,1,.69.05,1.84,1.84,0,0,1,1.2.79,3,3,0,0,1-.23,2.86l-.13.27.23-.06a3.26,3.26,0,0,1,2.18-.07,2.11,2.11,0,0,1,1.29,1.89c1-1.48,2-3,2.88-4.44.16-.27.17-.26.34-.52S112,34.94,112,34.67Z"/><path class="a" d="M116.78,26.31c-1.41.84-3,1.32-4.5,2-.43.21-.85.44-1.27.68a1.8,1.8,0,0,1,1.11.87,2.41,2.41,0,0,1-.16,1.9,2.38,2.38,0,0,1,1.7.85,1.54,1.54,0,0,1,.17.31c1.06-1.59,2.14-3.18,3.18-4.78.65-1,1.21-2.13,1.92-3.06A16.8,16.8,0,0,0,116.78,26.31Z"/><path class="a" d="M43,22.15a1.69,1.69,0,0,1,1.4.15,2.17,2.17,0,0,1,.73-1.7,2.07,2.07,0,0,1,.65-.32c-.2-.17-.42-.33-.62-.51C43.45,18.32,41.6,17,40,15.37a12,12,0,0,0-1.42-1.43,65.05,65.05,0,0,1,3.49,9.16A1.83,1.83,0,0,1,43,22.15Z"/><path class="a" d="M43.28,26.56A42.75,42.75,0,0,0,47,34.14a6.09,6.09,0,0,1,.15-3.38A2.11,2.11,0,0,1,50,29.55a1.94,1.94,0,0,0,.51.12c0-.05,0-.39,0-.59a2.26,2.26,0,0,1,1.42-2.51,10.34,10.34,0,0,1,1.57-.31l.22,0c-1.9-1.33-3.77-2.68-5.6-4.09a1.05,1.05,0,0,1-.74.14,3.29,3.29,0,0,0-.94-.09c0,.1,0,.23,0,.32a1.75,1.75,0,0,1-1.36,1.93,2.2,2.2,0,0,1-1.28-.2,8.06,8.06,0,0,0,0,1.3A1,1,0,0,1,43.28,26.56Z"/><path class="a" d="M55.15,28a12.55,12.55,0,0,1-1.36.25c-.44.07-1,.15-1.22.22a1.49,1.49,0,0,0,0,.56,2.6,2.6,0,0,1-.69,2.14,2.29,2.29,0,0,1-2.41.3L49,31.37l-.07.15a6.07,6.07,0,0,0,.17,3.24,9.39,9.39,0,0,1,.28,1.76,1,1,0,0,1-.27.73,36.46,36.46,0,0,0,2.55,2.88,4.13,4.13,0,0,1,.64-3.26,2.2,2.2,0,0,1,2-.67,3.24,3.24,0,0,1,1.46.68l.39.25c-.05-.14-.12-.3-.16-.41A3,3,0,0,1,55.71,35a2.09,2.09,0,0,1,.86-1.48,2.2,2.2,0,0,1,1.83,0l.19.05a1,1,0,0,1,0-.22,2.69,2.69,0,0,1,.76-2.45,2,2,0,0,1,.6-.3L59.09,30l-3.41-2.39A.93.93,0,0,1,55.15,28Z"/><path class="a" d="M41.54,48.74a2.41,2.41,0,0,1,1.88-2l.38-.12a6.66,6.66,0,0,0,.67-.23c-1.12-1.52-.85-2.56-.43-3.17A3.88,3.88,0,0,1,47,42a3.92,3.92,0,0,0,.59-.09,1.21,1.21,0,0,0-.05-.14.74.74,0,0,1,0-.25,43.34,43.34,0,0,0-5.2-1.72s-1.35.38-1.73.44a1.67,1.67,0,0,0-.59.16.18.18,0,0,0-.07.05,2.26,2.26,0,0,0,.07.68,2,2,0,0,1-1,2.47,2.58,2.58,0,0,1-1.76,0L37,43.49l0,0c-.19.43.73,3.29.81,3.63.41.42.63.67,1,1.09a26.28,26.28,0,0,0,2.82,2.41A7.16,7.16,0,0,1,41.54,48.74Z"/><path class="a" d="M35.1,42.72a2,2,0,0,1,2.68-1.09l.21.06,0-.18a2.68,2.68,0,0,1,.36-2.35,2.3,2.3,0,0,1,.37-.32c-1.19-.32-2.37-.66-3.55-1.06-3.21-1.09-6.47-1.93-9.59-3.24,1.74,1.07,3,3,4.42,4.49,1.68,1.71,3.31,3.47,5,5.21A2.8,2.8,0,0,1,35.1,42.72Z"/><path class="e" d="M370.46,128.67c-.95.91-6.82-2.76-6.68-4.35.19-2.09,3-.52,4.11-.31.19-3.11.21-2.33,2.55-1.19,0-1.28,1.23-4.34,2.08-1.95a2.28,2.28,0,0,1,1.38-2.08c1.35,1.61.47,4.68.07,6.49-.49,2.21-.53,3.49-3.08,4A1.41,1.41,0,0,0,370.46,128.67Z"/><path class="e" d="M414.46,62.22c-.69-1.41-1.71-8.25,1.5-6.88,1.49.64,1.66,3.44,2.83,4.5,2.48-1.56,2.83-1.63,3,1.31,2-.47,4.66.48,3,2.89-1.2,1.71-3.88,2-5.76,1.92C416,65.77,414.22,63.77,414.46,62.22Z"/><path class="e" d="M373.15,34.38c-1.68-1-5.1-3.64-4.49-6s3.18-.31,4.46.45c.57-.63.48-2.08,1.45-2.23s1.62,1.33,2.28,1.8c.67-1.21,2.33-3.08,2.88-.79.81-.61,2.43-2,3.37-1,.76.79,0,2.42-.4,3.18C380.9,33.2,376.68,36.43,373.15,34.38Z"/><path class="d" d="M407,62.21c-3.63,1.16-6.19,4.83-7.46,8.2a39.84,39.84,0,0,0-2.41,11.11c-.15,2,0,4.11-.3,6.08a21.49,21.49,0,0,0-2.88-.54c-.89-.11-1.79-.18-2.69-.21,1.46-3,1.6-8,1.77-10.75.3-4.7-.12-17-7.05-16.64a36.69,36.69,0,0,0,1.7-15.07c-.46-6.1-2.65-10.6-9.24-10.61-5.41,0-11,4-13.95,8.35-6.18,9.15,3.86,16.49,10.32,21.58-3.77,2.5-6.84,5.95-7.63,10.05-.7,3.67,2.26,7.94,4.64,10.4,1.34,1.37,6.11,6.23,8.1,5.9l.4.22a10.36,10.36,0,0,0-2.79,5.28c-1.15,5.27-.27,11.07,1.29,16.16,1.14,3.69,2,8.06,4,11.41a.7.7,0,0,0,.06.09c-1.15.17-2.26.37-3.29.59-2.64.54-5.72,1-7.6,3.2-2.28,2.61-2.18,6.57-1.5,9.74,1.16,5.4,3.83,9.85,6.11,14.79,1,2.13,2.05,4.14,3.13,6.21a4.39,4.39,0,0,1,.69,2.05c2.21.08,4,.91,6.43.45,1.9-.36,4.51-.93,6.29,0a71.33,71.33,0,0,0,4.46-8.81,66,66,0,0,0,1.83-8c.67-3.2,1.51-6.42,1.32-9.72-.25-4.18-2.52-9-6.83-10.29l-.31-.08a6.38,6.38,0,0,0,1.41-1.3c1.61-2.17,2.57-4.73,3.95-7a45,45,0,0,0,5.41-12.16c1-3.87,1.68-7.88-.89-11.24-.16-.21-.34-.39-.52-.59a23,23,0,0,0,2.29.25c1.69.08,2.66-.65,4.23-1.69a48.88,48.88,0,0,0,8.91-7.45c2.59-2.79,6.13-7,6.05-11C424.2,63.47,413,60.27,407,62.21ZM370.57,50.78a.49.49,0,0,1-.41.21.5.5,0,0,1-.31-.1c-.41-.29-.62-1.08-.91-2.63l-.06-.34a.51.51,0,0,1,1-.2l.06.35a9.25,9.25,0,0,0,.53,2A.49.49,0,0,1,370.57,50.78ZM372,44.6h-.11a.5.5,0,0,1-.49-.4,16.09,16.09,0,0,1-.26-1.79c0-.26-.07-.53-.1-.79a.49.49,0,0,1,.43-.56.5.5,0,0,1,.57.43c0,.27.07.54.1.81a16,16,0,0,0,.25,1.69A.52.52,0,0,1,372,44.6ZM374.69,58a5.15,5.15,0,0,1-1-2.38.5.5,0,0,1,.48-.53h0a.5.5,0,0,1,.5.48,4.51,4.51,0,0,0,.82,1.89c.11.17.21.33.29.48a.51.51,0,0,1-.18.69.47.47,0,0,1-.25.07.49.49,0,0,1-.44-.26Zm1.54,19.35h-.07a.51.51,0,0,1-.5-.44,6,6,0,0,0-.35-1.17,8.7,8.7,0,0,1-.47-1.59.52.52,0,0,1,.42-.58.51.51,0,0,1,.58.43,7.29,7.29,0,0,0,.42,1.4,7.08,7.08,0,0,1,.4,1.38A.51.51,0,0,1,376.23,77.37Zm1.44-25.64-.14,0a.64.64,0,0,1-.53-.35.52.52,0,0,1,0-.3c0-.09-.05-.2-.08-.28l0-.17q-.17-.78-.3-1.56a.51.51,0,0,1,1-.17c.08.51.18,1,.29,1.52l0,.13C378,51.17,378.13,51.57,377.67,51.73Zm.95-9a.46.46,0,0,1-.33.13.51.51,0,0,1-.41-.81,5.79,5.79,0,0,0-.11-1.17,5.58,5.58,0,0,1-.1-.75.49.49,0,0,1,.48-.52.5.5,0,0,1,.52.48c0,.15.05.38.09.63C378.93,41.73,379,42.37,378.62,42.71Zm-2.9,96.65a.49.49,0,0,1-.32.12.53.53,0,0,1-.39-.18,4.2,4.2,0,0,1-.46-3.05.5.5,0,0,1,.62-.36.49.49,0,0,1,.36.61,3.52,3.52,0,0,0,.25,2.15A.51.51,0,0,1,375.72,139.36Zm3.9-6.76a5.34,5.34,0,0,1,.16-3.36.51.51,0,0,1,.91.45,4.79,4.79,0,0,0-.19,2.43.51.51,0,0,1-.45.74A.49.49,0,0,1,379.62,132.6Zm1.83,19.29a.41.41,0,0,1-.16,0,.51.51,0,0,1-.48-.35,22.39,22.39,0,0,1-.57-2.32c-.09-.44-.17-.88-.28-1.31a.5.5,0,0,1,1-.24c.11.45.2.9.29,1.35a18.61,18.61,0,0,0,.54,2.2A.5.5,0,0,1,381.45,151.89Zm-.06-9.88h0a.64.64,0,0,1-.4-.15c-.52-.46-.64-3.05-.65-3.16a.51.51,0,0,1,.48-.53.49.49,0,0,1,.53.48,14.46,14.46,0,0,0,.34,2.46.52.52,0,0,1,.19.37A.49.49,0,0,1,381.39,142Zm.85-95.67a.5.5,0,0,1,.3-.64.5.5,0,0,1,.65.3,3.75,3.75,0,0,1,.08,1.63,6.07,6.07,0,0,0,0,.71.5.5,0,0,1-.49.52h0a.51.51,0,0,1-.51-.49,8.21,8.21,0,0,1,.05-.84A2.76,2.76,0,0,0,382.24,46.34ZM380.19,66.4a.5.5,0,0,1,.6.38l.07.3a7,7,0,0,1,.29,1.93.49.49,0,0,1-.5.45h0a.5.5,0,0,1-.45-.55,7.6,7.6,0,0,0-.28-1.6L379.8,67A.5.5,0,0,1,380.19,66.4Zm1.44,18.82a.51.51,0,0,1-.39.18.49.49,0,0,1-.32-.12,3.18,3.18,0,0,1-.83-1.86,4.2,4.2,0,0,0-.25-.91.5.5,0,0,1,.24-.67.51.51,0,0,1,.67.24,5.1,5.1,0,0,1,.33,1.13,2.48,2.48,0,0,0,.49,1.3A.51.51,0,0,1,381.63,85.22Zm.3-28.43.05-.12c.07-.42.11-2.15.11-2.83a.5.5,0,0,1,.51-.5h0a.5.5,0,0,1,.5.51c0,3.19-.18,3.32-.36,3.46a.52.52,0,0,1-.32.11l-.13,0A.51.51,0,0,1,381.93,56.79Zm1.46,48a.51.51,0,0,1-.18.69.48.48,0,0,1-.26.07.5.5,0,0,1-.43-.25,4.33,4.33,0,0,1-.16-2.54,9.16,9.16,0,0,0,.09-1.18.51.51,0,0,1,1,0,9.28,9.28,0,0,1-.1,1.33A4.14,4.14,0,0,0,383.39,104.83Zm.45-25.39a.51.51,0,0,1-.51-.5,9.61,9.61,0,0,0-.27-1.79c-.07-.34-.14-.66-.19-1a.5.5,0,1,1,1-.16c.05.29.12.6.18.92a9.6,9.6,0,0,1,.3,2,.5.5,0,0,1-.5.51Zm1.36,36.92a.52.52,0,0,1-.3.65l-.18,0a.51.51,0,0,1-.47-.32,6.85,6.85,0,0,1,0-3.06c0-.21.05-.41.07-.6a.5.5,0,1,1,1,.11c0,.19,0,.4-.07.63A6.3,6.3,0,0,0,385.2,116.36Zm.58-25.2a3.39,3.39,0,0,0-.44,1.51,7,7,0,0,1-.19,1,.51.51,0,0,1-.49.36l-.14,0a.51.51,0,0,1-.34-.63,7.5,7.5,0,0,0,.17-.85,3.69,3.69,0,0,1,.73-2.08.5.5,0,0,1,.7.72Zm2.51-12a.5.5,0,0,1,.63.33,9.06,9.06,0,0,1,.26,2.6.5.5,0,0,1-.5.48h0a.52.52,0,0,1-.48-.53A8.32,8.32,0,0,0,388,79.8.51.51,0,0,1,388.29,79.16Zm-2.09-9.85a.5.5,0,0,1,.94-.36,10.78,10.78,0,0,1,.69,3.18.52.52,0,0,1-.5.52h0a.5.5,0,0,1-.5-.49A9.89,9.89,0,0,0,386.2,69.31ZM387.83,146a.51.51,0,0,1-.51.51h0a.5.5,0,0,1-.5-.5v-1.95a.5.5,0,0,1,.5-.51.51.51,0,0,1,.51.51Zm.11-9-.06.57a.49.49,0,0,1-.42.45h-.08a.51.51,0,0,1-.46-.3,1.65,1.65,0,0,1-.1-.4.55.55,0,0,1,.12-.39v0a14.45,14.45,0,0,0,.11-1.72.5.5,0,0,1,.5-.51h0a.5.5,0,0,1,.5.5A13.72,13.72,0,0,1,387.94,137Zm.95-37.51a.51.51,0,0,1-.48.53h0a.5.5,0,0,1-.5-.47,8.19,8.19,0,0,1,.09-1.32c0-.36.08-.72.09-1a.5.5,0,0,1,.5-.49h0a.52.52,0,0,1,.5.52c0,.33-.06.73-.1,1.11A7.47,7.47,0,0,0,388.89,99.45Zm1.12,8.89a.52.52,0,0,1-.45.26.53.53,0,0,1-.24-.06.52.52,0,0,1-.2-.69,4.17,4.17,0,0,0,.11-1.4c0-.3,0-.59,0-.81a.5.5,0,1,1,1,.08c0,.19,0,.44,0,.71A4.21,4.21,0,0,1,390,108.34Zm1.4,7.82a5.27,5.27,0,0,0,.54-2.55.52.52,0,0,1,.54-.47.5.5,0,0,1,.47.54,6.22,6.22,0,0,1-.76,3.11.48.48,0,0,1-.39.19.5.5,0,0,1-.32-.11A.51.51,0,0,1,391.41,116.16Zm.94,35.62c-.06.28-.11.57-.16.85a.5.5,0,0,1-.5.42h-.08a.51.51,0,0,1-.42-.58c.05-.3.11-.59.17-.89a11.13,11.13,0,0,0,.3-2.61.51.51,0,0,1,.48-.53.52.52,0,0,1,.53.48A12.36,12.36,0,0,1,392.35,151.78Zm.49-10.46a.5.5,0,0,1-.49.52h0a.51.51,0,0,1-.51-.5,16.37,16.37,0,0,1,.13-2.8.51.51,0,0,1,1,.16A16.16,16.16,0,0,0,392.84,141.32Zm-.18-7.94a.5.5,0,0,1-.26.08.52.52,0,0,1-.43-.24.5.5,0,0,1,.15-.69c.11-.11.23-.54.19-1.91v-.26a.47.47,0,0,1,.5-.51.5.5,0,0,1,.51.5v.25C393.35,131.78,393.32,133,392.66,133.38Zm3.23-33.72a9.72,9.72,0,0,0-.22,1.1.49.49,0,0,1-.5.46h0a.51.51,0,0,1-.46-.55,8.37,8.37,0,0,1,.24-1.25,6.13,6.13,0,0,0,.23-1.37.5.5,0,0,1,.5-.49h0a.5.5,0,0,1,.5.51A7.44,7.44,0,0,1,395.89,99.66Zm2.45,6.87c-.22,2-.27,2.15-.49,2.32a.54.54,0,0,1-.32.11h-.08a.51.51,0,0,1-.41-.58.48.48,0,0,1,.07-.2c.07-.29.18-1.3.22-1.74,0-.23,0-.42.06-.52a.48.48,0,0,1,.56-.44.51.51,0,0,1,.44.57Zm4.19-25.15a4,4,0,0,0-1.07,2.05.51.51,0,0,1-.5.44h-.07a.49.49,0,0,1-.43-.56,5,5,0,0,1,1.4-2.68.53.53,0,0,1,.72,0A.52.52,0,0,1,402.53,81.38ZM407,79.85a6.22,6.22,0,0,1,1.21-2,.51.51,0,0,1,.71-.09.52.52,0,0,1,.08.71,5.81,5.81,0,0,0-1,1.66.51.51,0,0,1-.49.36l-.14,0A.5.5,0,0,1,407,79.85Zm-.63-7.17a6.47,6.47,0,0,0-1.4,2.39.5.5,0,0,1-.5.41h-.09a.49.49,0,0,1-.4-.59A7.37,7.37,0,0,1,405.62,72a.5.5,0,0,1,.71,0A.52.52,0,0,1,406.34,72.68Zm2.9,11.61a5.74,5.74,0,0,1-1.68,2.33l-.15.15a.51.51,0,0,1-.36.15l-.13,0a.51.51,0,0,1-.36-.35,1,1,0,0,1,0-.24.49.49,0,0,1,.43-.56h0a4.94,4.94,0,0,0,1.26-1.66.5.5,0,1,1,1,.21Zm.57-15.3h-.05a.51.51,0,0,1-.45-.55,2.61,2.61,0,0,1,.75-1.32,5,5,0,0,0,.43-.58.5.5,0,1,1,.89.46,3.9,3.9,0,0,1-.55.77,2.5,2.5,0,0,0-.52.76A.49.49,0,0,1,409.81,69Zm2.71,3a3.42,3.42,0,0,0-.61.64,3.64,3.64,0,0,1-.63.66.5.5,0,0,1-.7-.13.5.5,0,0,1,.13-.7,2.88,2.88,0,0,0,.41-.46,3.89,3.89,0,0,1,.83-.84.5.5,0,0,1,.57.83Zm2.85,5.57a4.44,4.44,0,0,1-.92,1.47,5.56,5.56,0,0,0-.54.71.51.51,0,0,1-.44.25.47.47,0,0,1-.25-.07.51.51,0,0,1-.18-.69,6.9,6.9,0,0,1,.63-.85,3.7,3.7,0,0,0,.74-1.11.5.5,0,0,1,1,.29Zm3.61-6-.27.44a5,5,0,0,1-.87,1.24.49.49,0,0,1-.35.15.51.51,0,0,1-.35-.87,4.94,4.94,0,0,0,.7-1c.09-.17.19-.33.28-.48a.5.5,0,0,1,.7-.16A.51.51,0,0,1,419,71.59Z"/><path class="a" d="M435.78,238a32.14,32.14,0,0,0,1.42-4.43c1.62-6.91,2-12.81,1.09-17.53-1.31-6.93-6.14-13.23-12.93-16.87a.61.61,0,0,1-.15-.13,36.06,36.06,0,0,0-13.54,0c-3.4,1.38-8.36,6.06-10.13,8.53a35,35,0,0,0-5.84,16.51,42.28,42.28,0,0,0,5,23.62c2.07,3.85,8,11.35,12,14.29,2.75-.2,5.51-.23,8.25-.48.48-.05,2.4,0,2.51-.43,1.81.52,4.46-.86,6.58-2.42C426.31,247.14,433,240.28,435.78,238Zm-2.92-26.13a.88.88,0,0,1,1.14.48,7.41,7.41,0,0,1,.25,2.67c0,.27,0,.52,0,.75a.88.88,0,0,1-.86.89h0a.88.88,0,0,1-.87-.86c0-.24,0-.53,0-.82a6.92,6.92,0,0,0-.12-2A.88.88,0,0,1,432.86,211.89Zm-2.41,13.41a.89.89,0,0,1,1,.7,8.47,8.47,0,0,1,.06,3.69.87.87,0,0,1-.83.63,1.17,1.17,0,0,1-.26,0,.87.87,0,0,1-.58-1.09,7.28,7.28,0,0,0-.11-2.86A.88.88,0,0,1,430.45,225.3Zm-28.1,12.13a.79.79,0,0,1-.3,0,.87.87,0,0,1-.82-.57,10.15,10.15,0,0,1-.62-3.75.83.83,0,0,1,.9-.85.89.89,0,0,1,.85.91,8.28,8.28,0,0,0,.51,3.09A.87.87,0,0,1,402.35,237.43Zm1.49-20.18c-.06.24-.13.49-.2.75a5.06,5.06,0,0,0-.31,1.72.87.87,0,0,1-.8.94h-.07a.87.87,0,0,1-.87-.81,6.29,6.29,0,0,1,.37-2.34c.06-.23.13-.45.18-.67a.87.87,0,1,1,1.7.41Zm3.2,7.3a.87.87,0,0,1,1.65.57,4.17,4.17,0,0,0,.08,2.52.86.86,0,0,1-.26,1.21.92.92,0,0,1-.47.14.89.89,0,0,1-.74-.41A5.66,5.66,0,0,1,407,224.55ZM409.6,239l.12.58a9.31,9.31,0,0,0,.69,2.31.88.88,0,0,1-.38,1.18.93.93,0,0,1-.4.09.89.89,0,0,1-.78-.47,10.82,10.82,0,0,1-.84-2.76l-.12-.55a.88.88,0,0,1,1.71-.38Zm.62,14.55a.91.91,0,0,1-.5.15.88.88,0,0,1-.72-.37,9,9,0,0,1-1.29-3,.87.87,0,1,1,1.72-.31,7.45,7.45,0,0,0,1,2.31A.88.88,0,0,1,410.22,253.54Zm1.59-44.07c-.11.4-.25.79-.4,1.18a12,12,0,0,0-.39,1.26.88.88,0,0,1-.86.69.55.55,0,0,1-.18,0,.86.86,0,0,1-.67-1,10.54,10.54,0,0,1,.46-1.5,9.38,9.38,0,0,0,.34-1,.88.88,0,0,1,1.7.44Zm2.23,25.8H414a.87.87,0,0,1-.87-.8c-.08-1-.09-1.92-.09-2.73a.87.87,0,0,1,.87-.87h0a.88.88,0,0,1,.88.87c0,.77,0,1.68.08,2.59A.87.87,0,0,1,414,235.27Zm1.53-17.54a5.88,5.88,0,0,0-.11,1.61.87.87,0,0,1-.77,1h-.1a.88.88,0,0,1-.87-.78,7.37,7.37,0,0,1,.13-2.08,8.75,8.75,0,0,0,.13-1.21.89.89,0,0,1,.88-.87h0a.87.87,0,0,1,.87.88A8.6,8.6,0,0,1,415.57,217.73ZM418.1,252a1,1,0,0,1-.32.06.88.88,0,0,1-.82-.56,10.51,10.51,0,0,1-.85-3.57.87.87,0,0,1,.85-.9.92.92,0,0,1,.9.86,9.24,9.24,0,0,0,.73,3A.87.87,0,0,1,418.1,252Zm.85-24.63c.07-.72,0-2.35,0-3.33v-.2a.88.88,0,0,1,1.75,0v.2a34.68,34.68,0,0,1,0,3.54.88.88,0,0,1-.87.79h-.09A.87.87,0,0,1,419,227.41ZM421.67,243a.91.91,0,0,1-.88.88h0a.85.85,0,0,1-.84-.88V243a8.94,8.94,0,0,0-.14-2.56.87.87,0,0,1,.57-1.1.88.88,0,0,1,1.1.57A10.16,10.16,0,0,1,421.67,243Zm1.5-31.28a.88.88,0,0,1-.88.84h0a.87.87,0,0,1-.85-.9,10.48,10.48,0,0,0-.24-2.94.88.88,0,0,1,1.7-.44A12.46,12.46,0,0,1,423.17,211.76Zm2.47,22.13a7.83,7.83,0,0,0-.08,1.16.87.87,0,0,1-.81.93h-.07a.88.88,0,0,1-.87-.81,10.13,10.13,0,0,1,.09-1.46c0-.41.09-.83.09-1.18a.88.88,0,0,1,1.75,0C425.73,232.94,425.69,233.42,425.64,233.89Zm.2-12.79h0a.87.87,0,0,1-.88-.87c0-.88,0-1.75-.08-2.63v-.16a.89.89,0,0,1,.84-.92.9.9,0,0,1,.91.84v.16c0,.9.08,1.8.08,2.71A.87.87,0,0,1,425.84,221.1Z"/><path class="a" d="M434.42,241.11a16.17,16.17,0,0,0-3.54,6.33C432,245.58,433.28,243.43,434.42,241.11Z"/><path class="a" d="M431.45,200.92a26.08,26.08,0,0,1,8.83,14.77c.94,5,.57,11.17-1.12,18.36-1.26,5.41-4.17,10.56-6.57,14.45a1,1,0,0,1-.86.48,1,1,0,0,1-.53-.15,1,1,0,0,1-.46-.9,18.2,18.2,0,0,0,.44,9.87,15.86,15.86,0,0,0,1.23-1.13,53.43,53.43,0,0,0,8-10.73c4.71-8,7.63-17.11,7.36-26.43C447.54,210.42,439.66,204.14,431.45,200.92Zm10.85,16.92a.76.76,0,0,1-.36-.08.86.86,0,0,1-.44-1.15c.17-.38.18-1.58-.32-3.74a.87.87,0,1,1,1.7-.4c.54,2.33.61,4,.21,4.85A.86.86,0,0,1,442.3,217.84Zm1.47,9.4a.85.85,0,0,1-.26-.05.86.86,0,0,1-.57-1.09,19.16,19.16,0,0,0,.77-3.72.87.87,0,1,1,1.74.18,21.12,21.12,0,0,1-.84,4.07A.89.89,0,0,1,443.77,227.24Z"/><path class="b" d="M411.21,199.6c-1.46.58-4.86-4.49-4.46-5.89.89-3.05,5.14-.12,6.2,1.4.76-.76.51-2.77,2-3.14,1.69-.43,1.83,1.67,2.57,2.6.8-.75,1.48-2.35,2.72-2.66,1.51-.37,1,1.32,1.08,2.36.74-.85,3-3.1,4.37-2.21s0,3.06-.65,4a15.07,15.07,0,0,1-5.29,4.4C416.5,202.36,413.53,200.5,411.21,199.6Z"/><path class="d" d="M455.45,241.57a14.45,14.45,0,0,0-4.76-4.43c-1.89-1-4.61-1.3-6.75-1.48-5-.43-8.52.23-12.68,3-4.35,2.89-7.33,7.16-7.36,12.19s1.76,9.58,4.41,13.83a10.76,10.76,0,0,0,4.32,4,6.79,6.79,0,0,0,2.82.66h0a3.66,3.66,0,0,0-.63-1l-.35-.45a26.05,26.05,0,0,1-2.36-4.27c-1.46-3.16-3.4-7.85-3.34-12.08a15.85,15.85,0,0,1,3.78-10.07c1.15-1.41,4-4.72,5.63-4.92a.67.67,0,1,1,.16,1.33c-.72.09-2.76,2-4.75,4.44a14.6,14.6,0,0,0-3.47,9.24c-.06,3.95,1.81,8.45,3.22,11.49a24.6,24.6,0,0,0,2.22,4.05l.31.41a4.73,4.73,0,0,1,.85,1.37.62.62,0,0,1,0,.38,11.53,11.53,0,0,0,1.15-.2c1.5-.34,4.76.2,7.89.05a.66.66,0,0,1,.35-.79c.45-.2,1.07-1.88,1.33-2.59.11-.32.22-.6.31-.81A36.67,36.67,0,0,0,450.4,254,22.27,22.27,0,0,0,449,243.26a20.76,20.76,0,0,0-2.2-4.23l-.23-.34c-.74-1.05-.95-1.37-.85-1.76a.66.66,0,0,1,.81-.5.65.65,0,0,1,.5.53c.11.2.46.7.64,1l.25.36a22.14,22.14,0,0,1,2.34,4.5,23.6,23.6,0,0,1,1.46,11.35,38,38,0,0,1-2.76,11.3c-.08.18-.17.44-.28.73a10.08,10.08,0,0,1-1.33,2.77,11.13,11.13,0,0,0,1.44-.3c.69.74,2.12-.68,2.68-1.33,1.64-1.89,2.1-3.67,3.48-6.22C458,255.43,459.45,247.24,455.45,241.57Z"/><path class="b" d="M437.92,237.51c-.9-1.67-3.65-3-2.64-5.44,2,0,3,2.16,4.48,3.1.11-1-.05-4.26,1.72-4.08,1.45.14,1.76,2.82,2.52,3.66.94-.69,1.63-2.3,2.89-2.48.5.78-.06,1.81.46,2.49.79-.38,2.68-2.15,3.52-1.28s-1.1,3.43-1.74,4a10.14,10.14,0,0,1-4.87,1.86A8.12,8.12,0,0,1,437.92,237.51Z"/><path class="a" d="M398.94,248.68a44.41,44.41,0,0,1-5.25-24.78,37.17,37.17,0,0,1,6.2-17.47,35.66,35.66,0,0,1,5.87-6c-6.12,1.79-12.38,4.69-16.93,8.68-7.31,6.39-8.87,18.09-6.74,27,2.34,9.74,8.73,17.5,17,23.09a22.74,22.74,0,0,0,6.41,3.28,10.1,10.1,0,0,0,4.44-.19A61.44,61.44,0,0,1,398.94,248.68Zm-13-12.59h0a.87.87,0,0,1-.83-.91,8.81,8.81,0,0,0-.2-1.77,8.79,8.79,0,0,1-.2-2,.88.88,0,0,1,.93-.81.87.87,0,0,1,.81.93,8.48,8.48,0,0,0,.18,1.58,9.79,9.79,0,0,1,.23,2.16A.87.87,0,0,1,385.92,236.09Zm1.61-19.46h0a.87.87,0,0,1-.85-.9,9.28,9.28,0,0,1,1.22-4.21.87.87,0,0,1,1.21-.25.88.88,0,0,1,.25,1.21,7.56,7.56,0,0,0-.93,3.31A.88.88,0,0,1,387.53,216.63Zm1.14,9.6c0-.3,0-.62,0-.94a8,8,0,0,1,.22-3,.87.87,0,0,1,1.65.57,6.57,6.57,0,0,0-.12,2.31c0,.35,0,.7,0,1a.88.88,0,0,1-1.75,0Zm1.7,11.16a.87.87,0,0,1,1.17.4c.56,1.15,1.15,2.39,1.65,3.7a.88.88,0,0,1-.51,1.13,1.18,1.18,0,0,1-.31,0,.86.86,0,0,1-.82-.56c-.47-1.24-1-2.44-1.58-3.55A.88.88,0,0,1,390.37,237.39ZM393,249.64a.88.88,0,0,1-1.22-.24,10.69,10.69,0,0,1-1.46-3.1.87.87,0,1,1,1.7-.41,8.63,8.63,0,0,0,1.22,2.54A.87.87,0,0,1,393,249.64Zm6,6.66a1,1,0,0,1-.34.06.86.86,0,0,1-.8-.54,6.78,6.78,0,0,0-.82-1.3c-.21-.29-.42-.57-.59-.85a.87.87,0,1,1,1.48-.92,8.22,8.22,0,0,0,.52.73,8.47,8.47,0,0,1,1,1.67A.87.87,0,0,1,399,256.3Z"/><path class="j" d="M455.89,34.86l-.15-.15a.24.24,0,0,0-.34.34l.15.15a.24.24,0,0,0,.34-.34Z"/><path class="a" d="M505.67,38.37a49.1,49.1,0,0,0-9.16,2.93,54.11,54.11,0,0,0-6.24,2.86,17.21,17.21,0,0,0,3.05-4.77c1.76-4.23,2.14-8.78,2.94-13.25.4-2.21,1.12-4.45,1.4-6.65a11.4,11.4,0,0,0-1.3,1.3c-1.41,1.33-3.06,2.42-4.58,3.61a42.31,42.31,0,0,0-9.42,10.54c-.56.83-1.11,1.69-1.66,2.55a71.09,71.09,0,0,0-4.53-17.2c-1.17-2.94-2.52-5.81-3.67-8.75-.44-1.1-.73-2.34-1.27-3.37a11.81,11.81,0,0,1-.88,3.28c-.87,2.53-1.55,5.06-2.2,7.66a123.91,123.91,0,0,0-3,15.37A94.9,94.9,0,0,0,457.66,27c-2.91-2.66-6.5-6.58-10.53-7.36.22.83,1.27,1.77,1.73,2.59A49.84,49.84,0,0,1,452.32,31a50.33,50.33,0,0,0,4.08,9.41,16.62,16.62,0,0,0,1.77,2.29l-.53-.45a29.14,29.14,0,0,0-6.15-4.18c-2.4-1.23-4.84-2.28-7.25-3.46-1.17-.58-3-1.9-4.29-2,2.16,3,3.86,6.35,5.85,9.46,3.44,5.37,8.14,9.05,13.33,12.64a35.57,35.57,0,0,0,12.05,5.76c.37.09.74.15,1.11.21l.2.11a8.06,8.06,0,0,0,3.16.49A3.13,3.13,0,0,0,477,61c1.51,1.05,4.51.51,5.93.25,5-.9,8.87-3.72,12.29-7.41s6.07-7.62,9.4-11.21c1.66-1.8,3.66-3.27,5.27-5.08A31.76,31.76,0,0,0,505.67,38.37Zm-51-7.54a.84.84,0,0,1-.35.07.79.79,0,0,1-.72-.46l-.13-.27a12.44,12.44,0,0,1-.71-1.68.81.81,0,0,1,1.55-.47,11.68,11.68,0,0,0,.61,1.46l.13.27A.81.81,0,0,1,454.63,30.83Zm-5.12,11.74a.81.81,0,0,1-.67.35.77.77,0,0,1-.45-.14,5.86,5.86,0,0,1-.93-.89l-.36-.38a.81.81,0,0,1,1.14-1.14l.41.43a5.63,5.63,0,0,0,.65.65A.8.8,0,0,1,449.51,42.57Zm5.67,1.62a.86.86,0,0,1-.46.14.8.8,0,0,1-.66-.36,7.42,7.42,0,0,0-.94-1.17.81.81,0,0,1,1.1-1.19,8.15,8.15,0,0,1,1.17,1.46A.81.81,0,0,1,455.18,44.19ZM460,50.62a.81.81,0,0,1-.62.29.8.8,0,0,1-.52-.19,5.89,5.89,0,0,1-.69-.74,3.07,3.07,0,0,0-.5-.55.81.81,0,0,1,1-1.29,4.71,4.71,0,0,1,.79.82,4,4,0,0,0,.48.53A.8.8,0,0,1,460,50.62Zm.18-15.95h-.1a.81.81,0,0,1-.79-.7,6.18,6.18,0,0,0-.71-1l.54-.61.62-.52a4.4,4.4,0,0,1,1.15,1.91A.81.81,0,0,1,460.17,34.67Zm2.78,9a.78.78,0,0,1-.33.07.82.82,0,0,1-.74-.48,11.52,11.52,0,0,1-.84-2.46.8.8,0,0,1,.64-.94.81.81,0,0,1,.94.65,9.86,9.86,0,0,0,.74,2.1A.81.81,0,0,1,463,43.64ZM475.69,30.3a.81.81,0,0,1,1,.5,7.26,7.26,0,0,1,.22,2.39.81.81,0,0,1-.81.79h0a.81.81,0,0,1-.79-.82,5.76,5.76,0,0,0-.13-1.83A.8.8,0,0,1,475.69,30.3Zm-7.12-2.53a2.77,2.77,0,0,1,.17-1.45.81.81,0,0,1,1.45.71,1.83,1.83,0,0,0,0,.63,2.59,2.59,0,0,1-.18,1.41.8.8,0,0,1-.71.43.85.85,0,0,1-.38-.09.82.82,0,0,1-.34-1.09A2.48,2.48,0,0,0,468.57,27.77Zm-.41,25.82a.8.8,0,0,1-1.13.12,3.12,3.12,0,0,1-.9-1.46c-.06-.16-.12-.32-.19-.47a.8.8,0,1,1,1.43-.73,5.19,5.19,0,0,1,.27.63,2.34,2.34,0,0,0,.4.78A.8.8,0,0,1,468.16,53.59Zm1.19-5.33-.15,0a.8.8,0,0,1-.79-.66,9.06,9.06,0,0,0-.37-1.2c-.12-.3-.23-.61-.32-.92a.81.81,0,1,1,1.55-.45c.08.28.18.55.28.82a8.16,8.16,0,0,1,.44,1.45A.79.79,0,0,1,469.35,48.26Zm1.56-8.17a.81.81,0,0,1-1-.56,8.44,8.44,0,0,1-.2-2.05.84.84,0,0,1,.8-.86h0a.76.76,0,0,1,.8.75,7.28,7.28,0,0,0,.15,1.72A.81.81,0,0,1,470.91,40.09Zm3-16.37a.8.8,0,0,1-.8.78h0a.81.81,0,0,1-.78-.84,8.58,8.58,0,0,0-.14-1.94.8.8,0,0,1,.55-1,.81.81,0,0,1,1,.56A9.74,9.74,0,0,1,474,23.72Zm2.69,29.58a6.09,6.09,0,0,0-.15,1.1c0,.28-.05.56-.09.83a.8.8,0,0,1-.79.68h-.13a.8.8,0,0,1-.67-.92c0-.23.05-.47.07-.71a8,8,0,0,1,.21-1.41.81.81,0,0,1,1-.55A.79.79,0,0,1,476.64,53.3Zm.65-7.92a.78.78,0,0,1-.71.43.73.73,0,0,1-.36-.08.81.81,0,0,1-.37-1.08,4.06,4.06,0,0,0,0-1.13c0-.22,0-.43,0-.61a.81.81,0,1,1,1.61,0c0,.15,0,.33,0,.51A4,4,0,0,1,477.29,45.38Zm4.17,2a5.57,5.57,0,0,0,.67-1.47l.09-.24a.8.8,0,1,1,1.51.55l-.08.23a6.47,6.47,0,0,1-.92,1.93.81.81,0,0,1-.63.3.78.78,0,0,1-.5-.17A.81.81,0,0,1,481.46,47.41Zm2.92,6.77c-.11.2-.22.43-.33.67a5.51,5.51,0,0,1-1.15,1.82.79.79,0,0,1-.54.2.83.83,0,0,1-.6-.26.81.81,0,0,1,.06-1.14,4.74,4.74,0,0,0,.77-1.3c.12-.28.25-.54.38-.78a.81.81,0,0,1,1.41.79Zm2-17.83a12.39,12.39,0,0,1-.75,1.6.82.82,0,0,1-1.1.31.81.81,0,0,1-.31-1.1,11.21,11.21,0,0,0,.65-1.38.81.81,0,1,1,1.51.57ZM490,31.88l.24-.5a4.47,4.47,0,0,0,.27-.59.81.81,0,0,1,1.52.54,6.65,6.65,0,0,1-.34.77c-.07.14-.14.28-.2.42a.81.81,0,0,1-.75.49.7.7,0,0,1-.31-.07A.81.81,0,0,1,490,31.88Zm-1.52,8.38a5.07,5.07,0,0,0,1-1.59l.08-.16a.81.81,0,0,1,1.09-.36.8.8,0,0,1,.36,1.08l-.08.16a6.27,6.27,0,0,1-1.45,2.12.77.77,0,0,1-.51.19.79.79,0,0,1-.62-.3A.8.8,0,0,1,488.43,40.26ZM491.38,49a9,9,0,0,1-.84,1.07l-.36.41a.8.8,0,0,1-.63.3.8.8,0,0,1-.62-1.32l.39-.46a7.43,7.43,0,0,0,.69-.86.81.81,0,0,1,1.37.86Zm5.14.26a4.94,4.94,0,0,1-1.07,1.39,5.08,5.08,0,0,0-.58.66.81.81,0,0,1-.67.35.79.79,0,0,1-.46-.15.81.81,0,0,1-.2-1.12,7.18,7.18,0,0,1,.76-.87,3.86,3.86,0,0,0,.75-.94.8.8,0,0,1,1.07-.39A.81.81,0,0,1,496.52,49.3Zm2.91-5.13a4.27,4.27,0,0,1-.74.58l-.37.27a.85.85,0,0,1-.52.19.81.81,0,0,1-.51-1.43,5,5,0,0,1,.5-.37,3.47,3.47,0,0,0,.49-.37.81.81,0,0,1,1.14,0A.81.81,0,0,1,499.43,44.17Z"/><rect class="k" width="524.41" height="269.29"/></svg>