<svg id="troscolrect_panda_v3" xmlns="http://www.w3.org/2000/svg" viewBox="0 0 524.41 269.29"><defs><style>.cls-1{fill:#1e181d;}.cls-2{fill:#f5aaad;}.cls-3{fill:#fffbf4;}.cls-11,.cls-13,.cls-4,.cls-7{fill:none;}.cls-4{stroke:#1e181d;stroke-width:0.78px;}.cls-11,.cls-4,.cls-7{stroke-linecap:round;stroke-linejoin:round;}.cls-5{fill:#6ca692;}.cls-6{fill:#ddc89b;}.cls-11,.cls-7{stroke:#856933;}.cls-7{stroke-width:1.56px;}.cls-8{fill:#856933;}.cls-9{fill:#fff;}.cls-10{fill:#618171;}.cls-11{stroke-width:0.52px;}.cls-12{fill:#d6dd82;}</style></defs><path class="cls-1" d="M114.78,241.08c1.45,2,5.9,3.12,8.1,3.89a34.39,34.39,0,0,0,11.46,1.84c7,0,12.61-4.91,14.87-11.58,1-3,1.27-6.33-2.58-5.93-4.21.43-7.54-2.11-10.73-5-3.62-3.29-7.15-5.42-12.16-3.3C115.91,224.3,114,233.73,114.78,241.08Z"/><path class="cls-1" d="M118.17,97.51c.93-3.1.83-7.81,3.79-10,2.62-1.92,7.18-.66,9.86.38,4,1.53,9.62,7.39,9.5,12.64a11.81,11.81,0,0,1-3.16,7c-1.21,1.21-4.59,4.22-6.11,4.23-2.59,0-6.83-5.3-8.83-7.22C121.66,103,115.78,98.82,118.17,97.51Z"/><path class="cls-2" d="M128.72,94.9c1.46.51,5.65,2.7,6.26,4.12a5.66,5.66,0,0,1-.07,4.51,4.49,4.49,0,0,1-2.22,2.26c-2.68,1.12-9.87-1.79-10-5.1C122.64,96.73,125.75,93.87,128.72,94.9Z"/><path class="cls-1" d="M50.6,102.07A21.83,21.83,0,0,0,39.43,89.19c-7.22-3.27-15.57,3-19.37,8.86a21.64,21.64,0,0,0-3.37,14.41c.24,1.92-.14,4.05.36,5.89.63,2.36,2.57,4,4.49,5.36,2.4,1.7,8.12,4,11,2.79,1.38-.56,2.07-1.69,3-2.83,3.52-4.24,7.64-7.93,11.16-12.13C48.94,108.92,52.76,104.25,50.6,102.07Z"/><path class="cls-2" d="M38,101.85a5.65,5.65,0,0,0-4.93-.41,8.12,8.12,0,0,0-2.39,1.73,12.73,12.73,0,0,0-4,7.08c-.38,2.73.74,5.78,3.15,7.1a9.2,9.2,0,0,0,3.34.93c1.57.19,3.31.2,4.54-.78A6.5,6.5,0,0,0,39.6,114c.64-2.27,1.75-5.14,1.73-7.51C41.31,104.63,39.57,102.75,38,101.85Z"/><path class="cls-3" d="M127.44,176.33a40.89,40.89,0,0,0,1.87,5.46,55.79,55.79,0,0,1,2.57,10.68,141.05,141.05,0,0,1,1.51,17.76,92.57,92.57,0,0,1-1.13,16.13c-.6,3.44-1.46,6.84-3.88,9.48-5.48,6-15.18,6.29-22.62,7.3-9.42,1.28-18.79,1.17-28.26.94-4.15-.1-8.29.07-12.4.28-7.29.37-15.58-2.44-21.78-6.08a11.76,11.76,0,0,1-6.09-7.92c-1.85-7.63.39-16.71,2.5-24.08C46,184.47,62.13,165,85,159.8A72.52,72.52,0,0,1,114,159c5.23,1,11.32,3,13,8.67C127.78,170.58,126.61,173.44,127.44,176.33Z"/><path class="cls-1" d="M93.22,192.83a70.16,70.16,0,0,1,11.1-3.49,79.88,79.88,0,0,1,14.27-2.09,60.29,60.29,0,0,1,10.32-.1,13.19,13.19,0,0,0,2.27.15,31.69,31.69,0,0,0-2.36-6.75c-.91-1.77-1.62-4-3-5.44-2.39-2.49-7.11-3.79-10.35-4.21-8-1-44.58,4.69-33.88,18.67,1.9,2.47,5.8,5,9,4.22,2.48-.59-5.66,1.75-3.18,1.21"/><path class="cls-3" d="M101.39,89.81c-5.34-2.17-15.9-7.39-21.77-5.47,1.69.93,4.59,1.39,5.24,3.32-4.22.24-12.86-1.59-16.19,1.28a19.27,19.27,0,0,1,4.25,1.67c-9.35,3.75-16.78,2-25.83,9-3.2,2.46-7.56,6.67-9.45,10.26-2.09,3.94-3.45,6.11-5.35,10.14-2.85,6-4.18,13-5.54,19.47-1.68,8-2.29,16.69.81,24.47.08.18-.74-1.3-.54-1.32,4,12.72,18,19.24,30.67,21,21.82,3.07,46.09,4.76,67.89-4.8,6.21-2.72,11.85-5,14.51-11.35,2.95-7.11,3.54-15.7,3.23-23.29-.54-12.94-2.81-28.33-11.3-38.79-4.13-5.07-10-8.9-15.84-11.84-4.33-2.16-9.33-6.54-14.51-6.12C102.12,88.31,101.05,88.9,101.39,89.81Z"/><path class="cls-1" d="M85.19,120.31c-6.61-5.36-15.31-1.77-21.6,2.14C53.38,128.78,51.3,140.94,57,151.18c1.88,3.37,5.67,5.35,9.33,3.6,1.83-.88,3.35-2.29,5.17-3.19,3.49-1.73,7.68-1.4,11.42-.3,2.09.61,4.32,1.45,6.39.76,3.6-1.21,3.66-5,4.24-8.08.22-1.13.73-2.15,1-3.26,1.3-4.91-.29-10.89-2.43-15.29a13.59,13.59,0,0,0-3.53-4.81c-2-1.44-4.83-1.11-6.6-2.67"/><path class="cls-1" d="M135.16,117.42c-2.14-2.25-5.68-2.07-8.6-1.61-5.93.92-8.93,4.94-9.54,10.82-1,9.82,3.46,17.46,13.46,18.93,3.56.52,10.85-.27,12.05-4.34,1.07-3.65-1.07-9.3-2.17-12.73C138.88,123.86,137.69,119,135.16,117.42Z"/><path class="cls-1" d="M111.87,156.39a4.38,4.38,0,0,1-1.43-.47c-1.21-.67-2.27-1.73-3.64-2a18.3,18.3,0,0,1-2.57-.21c-.63-.21-1.33-1-1-1.71s1.68-.75,2.38-1,1.1-.68,1.7-1c2.28-1.08,5.41-.65,7.84-.55,1.29,0,3.21.31,3.43,1.88a1.54,1.54,0,0,1-.8,1.67c-.85.53-2.13.18-2.84.9-.4.4-.44,1-.72,1.54A2.18,2.18,0,0,1,111.87,156.39Z"/><path class="cls-4" d="M112.17,155.2a40.69,40.69,0,0,1,.15,5.18"/><path class="cls-2" d="M69.56,157.21a2.73,2.73,0,0,0-.24,2.86c2.27,3.37,8.1,4,10.74,1C84.83,155.57,72.92,151.51,69.56,157.21Z"/><path class="cls-2" d="M133.35,150.42a2.76,2.76,0,0,0,.28,2.86c2.83,2.9,8.68,2.44,10.73-1C148.08,146.07,135.64,144.2,133.35,150.42Z"/><path class="cls-4" d="M104.62,164.05c1.91,0,1.28.07,3.06-.63a14.34,14.34,0,0,0,4.71-3,10.62,10.62,0,0,0,3.78,2.41"/><path class="cls-5" d="M143.4,167.07a18.19,18.19,0,0,1,6.75-6.62c3.68-2,9.49-2.86,13.62-1.54a5.83,5.83,0,0,1-2,2.57,22.28,22.28,0,0,1-7.45,4.29C150.85,167.08,146.25,167.93,143.4,167.07Z"/><path class="cls-5" d="M134.74,166.45c-.33-6.49,2.58-13.11,5.38-19.1a42,42,0,0,1,7.74-11.3c.64-.65,3-3.4,4.44-2.52s.33,6.48,0,7.91a41.08,41.08,0,0,1-4.52,11.12,54,54,0,0,1-6.73,9.74C139.45,164.12,137.33,166.19,134.74,166.45Z"/><path class="cls-1" d="M75.27,205.68C82.8,207.6,90.82,208,97.69,204c2-1.14,8.83-5.27,5.15-7.93-1.94-1.4-4.85-1.65-7-2.55A66.52,66.52,0,0,1,88,189.42a20,20,0,0,0-4-2.17c-2.19-.65-4.93.47-7.07.91-5.59,1.15-17.79,3.19-16.47,9.54.61,3,3.92,4.3,6.43,5.27A73.13,73.13,0,0,0,75.27,205.68Z"/><path class="cls-1" d="M78.86,203.79c-1.39-.22.77,2-8.93,0-3.93-.8-9.08-.62-13.08-.89a79.44,79.44,0,0,0-11,.35c-1.76.13-3.9,1.07-5.55,1.17.83-3.79,3.33-8,5.4-11.38,2.67-4.31,5.33-9.79,9.66-12.79,4.32,2,8.77,2.9,13.46,3.9,3.39.71,6.88,1.37,10.31,1.82A22,22,0,0,1,85,187.21c2.29,1,4.28,3,6,4.81,2.84,3,2.75,6.11.38,9.46-2.48,3.51-4.58-.55-8.81-.34C79.83,201.27,80.54,206.17,78.86,203.79Z"/><path class="cls-1" d="M72.26,251.66c-.09-.12-2.84,1.78-3.65,1.87-3.3.38-8-1.37-10.93-2.56a41.45,41.45,0,0,1-12.74-7.72c-2.06-1.91-5.67-5.77-6.09-8.76,4.12-1.92,8.57-4.48,13-5.82a71,71,0,0,1,11.46-2.51c1.47-.19,4.92-1.29,6.35-.59.71.35.69,1.21.9,1.93a51.2,51.2,0,0,1,1.9,11.26c.17,2.8.86,5.76.66,8.57C73,248.61,72.39,250.38,72.26,251.66Z"/><path class="cls-1" d="M48.5,243.83c2.58-1,4.68,3.21,6.3,4.7A23.2,23.2,0,0,0,68,254.48a37.73,37.73,0,0,0,8-.13c4.39-.6,6.91-3.16,9.33-6.69,1.94-2.83,4.92-8.94,1.64-12-1.93-1.81-2.83.36-4.53,0-1.07-.21-2.81-2.62-3.61-3.38-1.75-1.64-7-5.81-9.25-6.68-3.09-1.18-2.72,2.06-5.73,3.21C57.47,231.25,50.6,235.28,48.5,243.83Z"/><path class="cls-4" d="M96.34,153.64a17.17,17.17,0,0,1,6.29,24"/><path class="cls-6" d="M109,166.74c7.82,10.1,14,21.66,21.39,32.09,3.1,4.36,5.2,9.59,8.5,13.73,3.87,4.84,8.15,9.75,11.14,15.32a69.27,69.27,0,0,0,6,10.06c1.12,1.44,2.25,3.81,3.85,3.69,1.92-.16,4.47-3.18,5.92-4.35,2-1.61,3.85-3.3,5.72-5,.75-.7,1.94-1.32,1.83-2.47-.07-.68-1.41-1.7-1.84-2.17a40.25,40.25,0,0,1-3.33-4.34c-2.32-3.29-5.05-6.33-7.25-9.66-4.75-7.18-10.84-13.41-15.42-20.72a76,76,0,0,0-5.44-8.07c-3.43-4.19-7.56-8.09-10.64-12.51-1.9-2.74-3.89-5.36-5.87-8.05-1.32-1.79-2.55-4.13-4.17-5.54C119.25,163.62,110.55,162.36,109,166.74Z"/><path class="cls-7" d="M128.21,195.28c5.52-1.85,8.24-4.78,13.09-9"/><path class="cls-7" d="M145.11,220.44c5.61-.86,11.33-6.68,14-11.38"/><path class="cls-8" d="M110,167.08a18.67,18.67,0,0,0,8.77-6.08,7.85,7.85,0,0,0,1-1.36.52.52,0,0,0,0-.21.39.39,0,0,0-.3-.25,1.73,1.73,0,0,0-1.22.15c-1.11.58-1.38,2-2.39,2.68a5,5,0,0,1-1.51.55c-2.13.55-4.36,1.57-5.31,3.57-.11.24-.29.73-.09,1S109.77,167.1,110,167.08Z"/><path class="cls-1" d="M140.55,185.32c-.67-.78-1.08-.89-2-.49-2.08.95-2.09,3.87-1.91,5.76.43,4.81,3.91,10.44,8.55,12.26a4.28,4.28,0,0,0,4.11-.72c1.16-1.09.83-2.91.66-4.27-.61-5.18-3.3-9.09-6.64-12.91-.61-.69-3.88-3.84-5-3C138.36,181.9,139.82,185.65,140.55,185.32Z"/><path class="cls-1" d="M123.17,219.58a7.73,7.73,0,0,0-1.7,2.25,2.94,2.94,0,0,0-.08,2.39,1.77,1.77,0,0,0,1.69,1.24,1.83,1.83,0,0,0,1.73-1.64,1.59,1.59,0,0,1-.19,1.55,2.37,2.37,0,0,1-1.38,1,2.24,2.24,0,0,1-1.78-.3,3.09,3.09,0,0,1-1.12-1.37,3.54,3.54,0,0,1-.23-1.7,3.64,3.64,0,0,1,.59-1.57A4.69,4.69,0,0,1,123.17,219.58Z"/><path class="cls-9" d="M74.86,140.49a.82.82,0,0,0,.47.22,2.56,2.56,0,0,0,2-.49,11.66,11.66,0,0,0,1.3-1.5,1.91,1.91,0,0,1,1.75-.75c.85.21,1.17,1.23,1.76,1.88,1.12,1.24,1.83.84,2.09,0a3.45,3.45,0,0,0-.16-2.25,5.1,5.1,0,0,0-4.36-3A4.8,4.8,0,0,0,74.68,140,.91.91,0,0,0,74.86,140.49Z"/><path class="cls-9" d="M127,136.2a.65.65,0,0,0,.37.18A1.94,1.94,0,0,0,129,136a10.68,10.68,0,0,0,1-1.2,1.43,1.43,0,0,1,1.35-.6c.66.17.91,1,1.36,1.5.87,1,1.41.67,1.62,0a3,3,0,0,0-.12-1.8,4,4,0,0,0-3.38-2.41,3.8,3.8,0,0,0-3.91,4.37A.82.82,0,0,0,127,136.2Z"/><path class="cls-10" d="M339.67,255a1.37,1.37,0,0,0-.57,0c-1.28.09-2.58.58-3.87.73a20.31,20.31,0,0,1-10-1.25,25.48,25.48,0,0,1-7.75-4.69c-.54-.5-1.34-1.09-1.55-1.79a17,17,0,0,0,3.08-.41,15.43,15.43,0,0,1,7.18.18,38.27,38.27,0,0,1,9.18,4C336.84,252.57,339,253.56,339.67,255Z"/><path class="cls-10" d="M339.39,251.73c.05.07.07.15.15.21a15.81,15.81,0,0,1-5.39-8.55,22.24,22.24,0,0,1-.4-5.09,8.06,8.06,0,0,1,.21-2.73c.54.54,1.1,1.07,1.7,1.58a11,11,0,0,1,3,5.27,25,25,0,0,1,1.05,6.31C339.74,249.77,340.14,251.8,339.39,251.73Z"/><path class="cls-6" d="M344.65,261.33a23.79,23.79,0,0,1,5-2.72,49.33,49.33,0,0,1,9.4-3.11c1.12-.25,1.45-.05,1.5-1.14a4.64,4.64,0,0,0-.46-2.6c-3.4.47-6.93.73-10.37.93-1.95.11-3.9.31-5.85.28a7.83,7.83,0,0,0-2.61.09c.46.94.8,2,1.17,3C342.92,257.54,343.77,258.92,344.65,261.33Z"/><path class="cls-8" d="M341.37,254.19c0-.08,0-.13-.06-.14a14.46,14.46,0,0,0,3.37,7.85,14.26,14.26,0,0,0-.49-2.72,11.07,11.07,0,0,0-1.08-3.52c-.39-.72-.88-2.18-1.64-2.58A3.24,3.24,0,0,1,341.37,254.19Z"/><path class="cls-11" d="M350.76,258.33a9.16,9.16,0,0,0-.91-6"/><path class="cls-11" d="M357.7,256c.4-1.13.66-3-.08-3.91"/><path class="cls-1" d="M481.92,164c0,3.85-2.63,7.78-6.41,8.54-4.34.88-8.35-2.32-11.62-5.33-4.81-4.43-4.85-14.8,2.41-17.45S482,157.33,481.92,164Z"/><path class="cls-3" d="M386.71,177.71c1.6-1.1,3.06-3.08,4.5-4.42,5.28-4.89,10.55-9.83,16.57-13.82a104.46,104.46,0,0,1,16.83-9.05c3-1.26,6.7-3.08,10-3.11a3.27,3.27,0,0,0-1.3,1.41c4.61.19,9.12-.05,13.74.8,1.12.21,10.35,2.54,8.38,4.62.71,1.5,2.83,2.29,4.19,3.1A42.91,42.91,0,0,1,466,162.5a43.26,43.26,0,0,1,8.68,10.32c4.21,7.26,9.1,15,11.36,23.13-.2-.15.07-.09-.14-.17-2.1,10.11-7.72,20.06-14.41,27.76-7.68,8.85-17.7,18.29-28.45,23.39-6.85,3.26-14.25,2.69-21.63,2.24A128.22,128.22,0,0,1,400,245.89c-1.92-.44-5.4-.38-6.76-2-2.14-2.6.16-9.92.24-12.88.27-10.68-.64-21.16-4.2-31.29C387.21,193.74,380.89,181.74,386.71,177.71Z"/><path class="cls-1" d="M384,229.4c-2.59,0-.64,1-3.29,1.08-7,.22-13.57,4-18.49,8.83-2.42,2.4-7.44,6.2-7.32,10.13.15,4.9,7.83,5.7,11.29,6.25,10.91,1.72,26.57-1,33.51-10.57,3.52-4.85,3.71-13.58,3.57-19.19a44.62,44.62,0,0,0-3.6-17.18c-2.22-5.07-5.24-9.86-6.71-15.21a63.17,63.17,0,0,1-2.3-13.64c-.1-2.11-1-5.05-.2-7.05a32.05,32.05,0,0,0-7.39,5.8c3,3.81,3.69,9.44,4.35,14.1A128.36,128.36,0,0,1,388,218.3c-.23,3.3-.13,8-1.65,11"/><path class="cls-1" d="M338.5,179.09c-.77.36-2.77-2.12-3.23-2.87a11.52,11.52,0,0,1-.94-7.63c1.39-5.5,9.06-7.87,14-8.12,1.78-.09,4.62-.29,6.15.81,1.7,1.22,1.87,4,2,5.89a12.06,12.06,0,0,1-3.3,9.22C349.62,180.12,342.93,180.89,338.5,179.09Z"/><path class="cls-3" d="M328.46,222.72A17.72,17.72,0,0,0,327,219.3a74.92,74.92,0,0,1-3-9.24c-1.32-4.92-1.81-9.77.26-14.54a41.46,41.46,0,0,1,11.53-15.28c5.71-4.61,13.71-7.1,20.88-8.16,6.87-1,15.22-1.05,21.2,3.16a47.7,47.7,0,0,1,6,5.76,40.82,40.82,0,0,1,7.55,10.65c6.42,13,8.42,28.58-4.12,40.18-4.23,3.92-10,7.08-15.35,9.24a109.44,109.44,0,0,1-11.11,4c-7.41,2.11-15.33.12-22-3.28-4.66-2.38-11.68-6.42-12.9-12.07a5.72,5.72,0,0,1,1-4C327.53,224.79,328.88,224,328.46,222.72Z"/><path class="cls-1" d="M327,231.41c-1-.95-1.75-2.3-1.05-3.6.61-1.11,3.24-2.9,4.57-2.66A7.15,7.15,0,0,1,327,231.41Z"/><path class="cls-1" d="M338.35,215.69a92.86,92.86,0,0,1-1.54-9.63,12.42,12.42,0,0,1,.22-5.36c1.9-5.13,9.55-7,14.4-7,8.26,0,16.09,6.61,14.65,15.51-1.23,7.61-8.15,11.18-14.88,13.06-3.29.91-5.43.81-8.29-1.14C340.68,219.63,338.8,217.28,338.35,215.69Z"/><path class="cls-9" d="M343.08,213.31c-.38,1.71,2.61,4.4,7.06,2.91,1.17-.39,1.73-3.19,0-3.53-.16.95,0,3.6-2.82,3.36-1.7-.15-2.76-2.42-3.62-3.22A1.46,1.46,0,0,0,343.08,213.31Z"/><path class="cls-2" d="M357.51,223a2.13,2.13,0,0,0,.85,2.09c2.78,1.55,7.07-.1,7.85-3.15C367.62,216.41,357.84,217.79,357.51,223Z"/><path class="cls-1" d="M354.47,176.67c-1.36-6.22-2.59-13.87,4.36-17.1,3.95-1.84,9.92-2.15,13.85.05-.63,1.74,4.39,1.5,3.15,3.09,1.34,1.17,3.89,1.27,4.83,2.95.14.25.26,1.43.41,1.88a11.62,11.62,0,0,1-1.52,10.32,3,3,0,0,1-1.81,1.33c-2.47.75-6.17.56-8.69.5C364.72,179.57,358.3,178.71,354.47,176.67Z"/><path class="cls-2" d="M363.21,177.11c-.89-2.88-2.33-6.93,1.1-8.79,2.61-1.42,8.88-.8,9.72,2.61.55,2.24-1.09,6-3.18,7-1.18.58-2.43,0-3.71-.27C365.09,177.25,363.4,177.29,363.21,177.11Z"/><path class="cls-1" d="M449.86,215.38c.6-8.37,6.91-20.49,16.08-23,4.14-1.11,9-.66,13.24-.21a17.26,17.26,0,0,1,4.42.82c6,7.73,5.25,19.88,2.75,28.93-4.08,14.77-14.57,27.32-29.61,31.37-2,.55-5,2.07-6.83.7-1.53-1.13-1.48-4.1-1.64-5.83a109.91,109.91,0,0,1,0-11.19C448.34,230,449.34,222.47,449.86,215.38Z"/><path class="cls-1" d="M475.54,241.67c-4.19,5.44-11,10.31-17.1,13.6A14.58,14.58,0,0,1,447,256.51c-3-.77-8.78-2.17-9.12-6.24-.23-2.77,3.65-2.8,5.09-4.77a17.41,17.41,0,0,0,2.4-5.74c1.42-5.63,4.74-27.68,6.76-33.15,1.56-4.23,2.3,7.75,6.81,6.41,7.4-2.19,13,2.84,15.63,9.08A24,24,0,0,1,476.32,234C476.05,236.68,475.83,240.65,475.54,241.67Z"/><path class="cls-12" d="M477.25,251.74c1.15-.27,3.62-6,4-6.75,3.79-8.51,3.82-18.71,2.63-27.81a68.23,68.23,0,0,0-7.69-24.28c-1.3-2.34-2.9-6-5.29-7.26a114.94,114.94,0,0,0-1.82,14.1c-.52,7.63-.63,16.14.61,23.7.92,5.61,2.3,11.24,3.39,16.84C473.83,244.35,474.63,249.47,477.25,251.74Z"/><path class="cls-12" d="M470.53,252.7a11.89,11.89,0,0,1-1.08-2.45,46.11,46.11,0,0,0-8.12-15,57,57,0,0,0-21.74-15.87c-2.52-1-7-2.83-9.9-2.07,1.4,2.22,2.62,4.59,4,6.85a62.53,62.53,0,0,0,11.78,14c4,3.59,8.85,6.44,13.41,9.19C462.06,249.26,466.24,252.1,470.53,252.7Z"/><path class="cls-12" d="M489.14,251.47c4.85-.55,12.42-3.73,17.36-7.13,5.77-4,11.2-10.87,11.63-18.24-7.19,2.2-13.55,8.08-19.61,12.37-2.54,1.8-5.23,3.48-6.89,6.19C490.62,246.33,488.53,249.1,489.14,251.47Z"/><rect id="cadre" class="cls-13" width="524.41" height="269.29"/></svg>