<?xml version="1.0" encoding="utf-8"?>
<!-- Generator: Adobe Illustrator 25.3.1, SVG Export Plug-In . SVG Version: 6.00 Build 0)  -->
<svg version="1.1" id="troscoltube_x5F_streetgaming_x5F_v3"
	 xmlns="http://www.w3.org/2000/svg" xmlns:xlink="http://www.w3.org/1999/xlink" x="0px" y="0px" viewBox="0 0 467.7 184.3"
	 style="enable-background:new 0 0 467.7 184.3;" xml:space="preserve">
<style type="text/css">
	.st0{fill:#13110C;}
	.st1{fill:#FFFFFF;}
	.st2{fill:#E9E8E9;}
	.st3{fill:#BAB5B4;}
	.st4{fill:#A5A1A0;}
	.st5{fill:#5D5857;}
	.st6{fill:#13110C;stroke:#FFFFFF;stroke-miterlimit:10;}
	.st7{fill:#FBFBFB;}
	.st8{fill:#FFFFFF;stroke:#FFFFFF;stroke-width:3;stroke-linecap:round;stroke-linejoin:round;stroke-miterlimit:10;}
	.st9{fill:#13110C;stroke:#13110C;stroke-width:0.5;stroke-miterlimit:10;}
	.st10{fill:#13110C;stroke:#13110C;stroke-width:0.4;stroke-miterlimit:10;}
	.st11{fill:#FFFFFF;stroke:#FFFFFF;stroke-width:2;}
	.st12{fill:none;}
</style>
<g>
	<g>
		<g>
			<path class="st0" d="M23.2,26.6c5.8,3.2,11.6,4.8,17.4,5.4c2.9,0.3,5,0.9,6.3,2.2c1.3,1.3,2,3.4,2,6.3c0,1.4,0,2.8,0,4.1
				c0,2.9-0.7,5.1-2,6.4c-1.3,1.3-3.4,2-6.3,1.7c-3.3-0.3-6.6-1-10-2.2c0,2.8,0,5.5,0,8.3c-2.5-0.8-5-1.9-7.5-3.3
				C23.2,46,23.2,36.3,23.2,26.6z M41.4,40.4c0-1.7-0.8-2.5-2.5-2.8c-2.8-0.4-5.5-1-8.3-2c0,3,0,6.1,0,9.1c2.8,0.9,5.5,1.6,8.3,2
				c1.7,0.2,2.5-0.6,2.5-2.2C41.4,43.2,41.4,41.8,41.4,40.4z"/>
			<path class="st0" d="M60.1,54c5-1,10.1-2.5,15.1-4c0,1.9,0,3.9,0,5.8c-7.5,2.3-15.1,4.4-22.6,5.2c0-9.7,0-19.4,0-29
				c2.5-0.3,5-0.7,7.5-1.2C60.1,38.5,60.1,46.2,60.1,54z"/>
			<path class="st0" d="M83.3,53.2c-2.7,0.9-5.4,1.7-8.1,2.5c3.7-10.8,7.3-21.7,11-32.5c2.8-0.9,5.5-1.7,8.3-2.4
				c3.7,8.7,7.3,17.5,11,26.6c-2.7,0.4-5.4,1-8.1,1.7c-0.6-1.6-1.2-3.1-1.9-4.7c-3.5,0.9-6.9,2-10.4,3
				C84.6,49.4,83.9,51.3,83.3,53.2z M87.1,41.5c2.2-0.7,4.4-1.3,6.6-2c-1.1-2.9-2.2-5.9-3.3-8.8C89.3,34.3,88.2,37.9,87.1,41.5z"/>
			<path class="st0" d="M101,19.3c2.6-0.6,5.3-1,7.9-1.3c2.3,4.4,4.6,9,6.8,13.6c2.3-4.7,4.6-9.3,6.8-13.7c2.6,0.3,5.3,0.9,7.9,1.7
				c-3.7,6-7.3,12.5-11,19.4c0,2.6,0,5.1,0,7.7c-2.5-0.1-5-0.1-7.5,0.1c0-2.6,0-5.1,0-7.7C108.3,32.1,104.6,25.6,101,19.3z"/>
			<path class="st0" d="M28.4,107.8c-2.7-1.1-5.4-2.4-8.1-4.1c3.7-7.4,7.3-15.3,11-23.8c2.8,0.9,5.5,1.5,8.3,1.8
				c3.7,10.1,7.3,19.9,11,29.3c-2.7,0.2-5.4,0.2-8.1,0.1c-0.6-1.8-1.2-3.6-1.9-5.3c-3.5-0.4-6.9-1.1-10.4-2.3
				C29.6,104.9,29,106.4,28.4,107.8z M32.1,98.6c2.2,0.7,4.4,1.1,6.6,1.5c-1.1-3.4-2.2-6.9-3.3-10.4C34.3,92.7,33.2,95.7,32.1,98.6z
				"/>
			<path class="st0" d="M60.1,103.8c5-1,10.1-2.5,15.1-4c0,1.9,0,3.9,0,5.8c-7.5,2.3-15.1,4.4-22.6,5.2c0-9.7,0-19.4,0-29
				c2.5-0.3,5-0.7,7.5-1.2C60.1,88.3,60.1,96,60.1,103.8z"/>
			<path class="st0" d="M85.6,96.5c5-1.6,10.1-3.1,15.1-4.2c0,1.9,0,3.9,0,5.8c-7.5,1.6-15.1,4.1-22.6,6.5c0-9.7,0-19.4,0-29
				c2.5-0.8,5-1.6,7.5-2.4C85.6,81,85.6,88.7,85.6,96.5z"/>
			<path class="st0" d="M44.3,131.8c1.7,6.3,3.3,12.5,5,18.6c1.5-6.3,2.9-12.7,4.4-19.1c2.7-0.3,5.4-0.8,8.1-1.4
				c-2.6,10.3-5.3,20.4-7.9,30.4c-2.6,0.3-5.3,0.5-7.9,0.5c-1.7-6-3.3-12.1-5-18.3c-1.7,5.9-3.3,11.6-5,17.3
				c-2.6-0.5-5.3-1.3-7.9-2.4c-2.6-10.7-5.3-21.8-7.9-33.1c2.7,1.7,5.4,3.1,8.1,4.1c1.5,6.8,2.9,13.5,4.4,20.1
				c1.7-5.7,3.3-11.6,5-17.5C39.9,131.6,42.1,131.8,44.3,131.8z"/>
			<path class="st0" d="M86.9,151.7c-7.7,2.4-15.3,5-23,6.8c0-9.7,0-19.4,0-29c7.7-1.8,15.3-4.5,23-6.8c0,1.9,0,3.9,0,5.8
				c-5.2,1.6-10.4,3.3-15.6,4.8c0,1.9,0,3.7,0,5.6c4.1-1.2,8.2-2.5,12.2-3.8c0,1.9,0,3.9,0,5.8c-4.1,1.3-8.2,2.6-12.2,3.8
				c0,2,0,4,0,6c5.2-1.5,10.4-3.2,15.6-4.8C86.9,147.8,86.9,149.8,86.9,151.7z"/>
			<path class="st0" d="M113.2,146.1c-7.7,0.4-15.3,2.3-23,4.5c0-9.7,0-19.4,0-29c7.7-2.3,15.3-4.1,23-4.5c0,1.9,0,3.9,0,5.8
				c-5.2,0.3-10.4,1.2-15.6,2.5c0,1.9,0,3.7,0,5.6c4.1-1,8.2-1.8,12.2-2.2c0,1.9,0,3.9,0,5.8c-4.1,0.4-8.2,1.2-12.2,2.2c0,2,0,4,0,6
				c5.2-1.3,10.4-2.2,15.6-2.5C113.2,142.3,113.2,144.2,113.2,146.1z"/>
			<path class="st0" d="M124,146.6c-2.5-0.4-5-0.6-7.5-0.6c0-9.7,0-19.4,0-29c2.5,0,5,0.2,7.5,0.6c0,3.8,0,7.6,0,11.4
				c1.2,0.2,2.5,0.4,3.7,0.7c2.2-3.3,4.3-6.4,6.5-9.3c2.6,1.1,5.3,2.4,7.9,4.1c-2.7,3.1-5.4,6.5-8.1,10.1c2.7,6,5.4,12.3,8.1,18.9
				c-2.6-1.7-5.3-3-7.9-4.1c-2.1-4.8-4.3-9.4-6.4-13.9c-1.2-0.3-2.5-0.5-3.7-0.7C124,138.7,124,142.7,124,146.6z"/>
		</g>
	</g>
	<g>
		<g>
			<path class="st1" d="M28.4,32.5c5.8,3.2,11.6,4.8,17.4,5.4c2.9,0.3,5,0.9,6.3,2.2c1.3,1.3,2,3.4,2,6.3c0,1.4,0,2.8,0,4.1
				c0,2.9-0.7,5.1-2,6.4c-1.3,1.3-3.4,2-6.3,1.7c-3.3-0.3-6.6-1-10-2.2c0,2.8,0,5.5,0,8.3c-2.5-0.8-5-1.9-7.5-3.3
				C28.4,51.8,28.4,42.2,28.4,32.5z M46.6,46.3c0-1.7-0.8-2.5-2.5-2.8c-2.8-0.4-5.5-1-8.3-2c0,3,0,6.1,0,9.1c2.8,0.9,5.5,1.6,8.3,2
				c1.7,0.2,2.5-0.6,2.5-2.2C46.6,49.1,46.6,47.7,46.6,46.3z"/>
			<path class="st1" d="M65.3,59.9c5-1,10.1-2.5,15.1-4c0,1.9,0,3.9,0,5.8c-7.5,2.3-15.1,4.4-22.6,5.2c0-9.7,0-19.4,0-29
				c2.5-0.3,5-0.7,7.5-1.2C65.3,44.4,65.3,52.1,65.3,59.9z"/>
			<path class="st1" d="M88.5,59.1c-2.7,0.9-5.4,1.7-8.1,2.5c3.7-10.8,7.3-21.7,11-32.5c2.8-0.9,5.5-1.7,8.3-2.4
				c3.7,8.7,7.3,17.5,11,26.6c-2.7,0.4-5.4,1-8.1,1.7c-0.6-1.6-1.2-3.1-1.9-4.7c-3.5,0.9-6.9,2-10.4,3
				C89.7,55.3,89.1,57.2,88.5,59.1z M92.2,47.4c2.2-0.7,4.4-1.3,6.6-2c-1.1-2.9-2.2-5.9-3.3-8.8C94.4,40.2,93.3,43.8,92.2,47.4z"/>
			<path class="st1" d="M106.1,25.2c2.6-0.6,5.3-1,7.9-1.3c2.3,4.4,4.6,9,6.8,13.6c2.3-4.7,4.6-9.3,6.8-13.7
				c2.6,0.3,5.3,0.9,7.9,1.7c-3.7,6-7.3,12.5-11,19.4c0,2.6,0,5.1,0,7.7c-2.5-0.1-5-0.1-7.5,0.1c0-2.6,0-5.1,0-7.7
				C113.5,38,109.8,31.5,106.1,25.2z"/>
			<path class="st1" d="M33.5,113.7c-2.7-1.1-5.4-2.4-8.1-4.1c3.7-7.4,7.3-15.3,11-23.8c2.8,0.9,5.5,1.5,8.3,1.8
				c3.7,10.1,7.3,19.9,11,29.3c-2.7,0.2-5.4,0.2-8.1,0.1c-0.6-1.8-1.2-3.6-1.9-5.3c-3.5-0.4-6.9-1.1-10.4-2.3
				C34.8,110.8,34.2,112.3,33.5,113.7z M37.3,104.5c2.2,0.7,4.4,1.1,6.6,1.5c-1.1-3.4-2.2-6.9-3.3-10.4
				C39.5,98.6,38.4,101.5,37.3,104.5z"/>
			<path class="st1" d="M65.3,109.7c5-1,10.1-2.5,15.1-4c0,1.9,0,3.9,0,5.8c-7.5,2.3-15.1,4.4-22.6,5.2c0-9.7,0-19.4,0-29
				c2.5-0.3,5-0.7,7.5-1.2C65.3,94.2,65.3,101.9,65.3,109.7z"/>
			<path class="st1" d="M90.8,102.4c5-1.6,10.1-3.1,15.1-4.2c0,1.9,0,3.9,0,5.8c-7.5,1.6-15.1,4.1-22.6,6.5c0-9.7,0-19.4,0-29
				c2.5-0.8,5-1.6,7.5-2.4C90.8,86.9,90.8,94.6,90.8,102.4z"/>
			<path class="st1" d="M49.5,137.7c1.7,6.3,3.3,12.5,5,18.6c1.5-6.3,2.9-12.7,4.4-19.1c2.7-0.3,5.4-0.8,8.1-1.4
				c-2.6,10.3-5.3,20.4-7.9,30.4c-2.6,0.3-5.3,0.5-7.9,0.5c-1.7-6-3.3-12.1-5-18.3c-1.7,5.9-3.3,11.6-5,17.3
				c-2.6-0.5-5.3-1.3-7.9-2.4c-2.6-10.7-5.3-21.8-7.9-33.1c2.7,1.7,5.4,3.1,8.1,4.1c1.5,6.8,2.9,13.5,4.4,20.1
				c1.7-5.7,3.3-11.6,5-17.5C45.1,137.5,47.3,137.7,49.5,137.7z"/>
			<path class="st1" d="M92,157.6c-7.7,2.4-15.3,5-23,6.8c0-9.7,0-19.4,0-29c7.7-1.8,15.3-4.5,23-6.8c0,1.9,0,3.9,0,5.8
				c-5.2,1.6-10.4,3.3-15.6,4.8c0,1.9,0,3.7,0,5.6c4.1-1.2,8.2-2.5,12.2-3.8c0,1.9,0,3.9,0,5.8c-4.1,1.3-8.2,2.6-12.2,3.8
				c0,2,0,4,0,6c5.2-1.5,10.4-3.2,15.6-4.8C92,153.7,92,155.6,92,157.6z"/>
			<path class="st1" d="M118.4,152c-7.7,0.4-15.3,2.3-23,4.5c0-9.7,0-19.4,0-29c7.7-2.3,15.3-4.1,23-4.5c0,1.9,0,3.9,0,5.8
				c-5.2,0.3-10.4,1.2-15.6,2.5c0,1.9,0,3.7,0,5.6c4.1-1,8.2-1.8,12.2-2.2c0,1.9,0,3.9,0,5.8c-4.1,0.4-8.2,1.2-12.2,2.2c0,2,0,4,0,6
				c5.2-1.3,10.4-2.2,15.6-2.5C118.4,148.2,118.4,150.1,118.4,152z"/>
			<path class="st1" d="M129.2,152.5c-2.5-0.4-5-0.6-7.5-0.6c0-9.7,0-19.4,0-29c2.5,0,5,0.2,7.5,0.6c0,3.8,0,7.6,0,11.4
				c1.2,0.2,2.5,0.4,3.7,0.7c2.2-3.3,4.3-6.4,6.5-9.3c2.6,1.1,5.3,2.4,7.9,4.1c-2.7,3.1-5.4,6.5-8.1,10.1c2.7,6,5.4,12.3,8.1,18.9
				c-2.6-1.7-5.3-3-7.9-4.1c-2.1-4.8-4.3-9.4-6.4-13.9c-1.2-0.3-2.5-0.5-3.7-0.7C129.2,144.6,129.2,148.6,129.2,152.5z"/>
		</g>
	</g>
</g>
<g>
	<g>
		
			<rect x="261.1" y="151.3" transform="matrix(-1 -1.224647e-16 1.224647e-16 -1 533.8187 314.2004)" class="st1" width="11.7" height="11.7"/>
		
			<rect x="244.6" y="151.3" transform="matrix(-1 -1.013978e-12 1.013978e-12 -1 500.7676 314.2004)" class="st2" width="11.7" height="11.7"/>
		
			<rect x="228" y="151.3" transform="matrix(-1 1.013733e-12 -1.013733e-12 -1 467.7165 314.2004)" class="st3" width="11.7" height="11.7"/>
		
			<rect x="211.5" y="151.3" transform="matrix(-1 1.013733e-12 -1.013733e-12 -1 434.6655 314.2004)" class="st4" width="11.7" height="11.7"/>
		
			<rect x="195" y="151.2" transform="matrix(-1 -1.224647e-16 1.224647e-16 -1 401.6144 313.9792)" class="st5" width="11.7" height="11.7"/>
	</g>
	<g>
		<rect x="193.1" y="120.7" class="st6" width="78.8" height="24.1"/>
		<g>
			<path class="st1" d="M204.1,135.7v-5.6l-0.1-0.9h4.9c0.5,0,0.8,0.1,1.1,0.2s0.5,0.3,0.6,0.5c0.1,0.2,0.2,0.4,0.2,0.6
				s0.1,0.4,0.1,0.7v0.7c0,0.2,0,0.4-0.1,0.6c-0.1,0.2-0.1,0.4-0.3,0.6c-0.1,0.2-0.3,0.4-0.6,0.5c-0.3,0.1-0.6,0.2-1,0.2h-1.1
				c-0.5,0-0.9,0-1.3,0c-0.4,0-0.7,0-0.9-0.1v2.1H204.1z M205.6,132.6h3c0.3,0,0.6-0.1,0.7-0.2c0.1-0.2,0.2-0.4,0.2-0.6v-0.7
				c0-0.2-0.1-0.4-0.2-0.6c-0.1-0.2-0.4-0.2-0.7-0.2h-3V132.6z"/>
			<path class="st1" d="M212.4,135.7v-6.1l-0.1-0.9h1.5v7H212.4z"/>
			<path class="st1" d="M216.5,135.7c-0.6,0-1-0.1-1.2-0.4c-0.3-0.3-0.4-0.6-0.4-1.1c0-0.5,0.1-0.8,0.4-1.1c0.3-0.3,0.7-0.4,1.2-0.4
				h0.6c0.6,0,1.1,0,1.5,0c0.4,0,0.8,0.1,1.1,0.1v-0.7c0-0.1,0-0.1,0-0.2c0-0.1-0.1-0.1-0.1-0.2c-0.1,0-0.2-0.1-0.4-0.1h-0.6
				c-0.8,0-1.5,0-2,0c-0.5,0-0.9,0-1.1,0.1l-0.1-0.8c0-0.1,0.3-0.2,0.8-0.2c0.6,0,1.5,0,2.8,0h0.6c0.4,0,0.7,0.1,0.9,0.2
				c0.2,0.1,0.3,0.2,0.4,0.4c0.1,0.2,0.1,0.3,0.2,0.5c0,0.2,0,0.3,0,0.4v3.5h-0.9l-0.4-0.2c-0.3,0.1-0.7,0.1-1.1,0.2
				c-0.4,0-0.9,0.1-1.5,0.1H216.5z M216.8,134.8h2.5c0.2,0,0.3,0,0.3,0c0,0,0-0.1,0-0.3v-0.9h-2.9c-0.2,0-0.3,0-0.4,0.1
				s-0.1,0.2-0.1,0.5c0,0.2,0,0.4,0.1,0.4C216.5,134.7,216.6,134.8,216.8,134.8z"/>
			<path class="st1" d="M222.8,137.9c-0.4,0-0.7,0-1-0.1c-0.3-0.1-0.5-0.2-0.6-0.2l0.3-1c0.1,0.1,0.3,0.1,0.5,0.2
				c0.2,0.1,0.5,0.1,0.8,0.1h0.1c0.3,0,0.6-0.1,0.9-0.3c0.3-0.2,0.5-0.5,0.6-0.8h-0.6l-2.2-5h1.6l1.3,3.1l0.3,0.8h0.1l0.3-0.8
				l1.3-3.1h1.5l-0.2,0.7c-0.1,0.3-0.3,0.6-0.5,1c-0.2,0.4-0.4,0.8-0.6,1.2c-0.2,0.4-0.4,0.8-0.6,1.2c-0.2,0.4-0.3,0.7-0.5,1
				c-0.2,0.4-0.4,0.8-0.7,1.2c-0.3,0.3-0.5,0.6-0.9,0.8c-0.3,0.2-0.7,0.3-1.2,0.3H222.8z"/>
			<path class="st1" d="M232.7,135.7c-0.6,0-1-0.1-1.2-0.4c-0.3-0.3-0.4-0.6-0.4-1.1c0-0.5,0.1-0.8,0.4-1.1c0.3-0.3,0.7-0.4,1.2-0.4
				h0.6c0.6,0,1.1,0,1.5,0c0.4,0,0.8,0.1,1.1,0.1v-0.7c0-0.1,0-0.1,0-0.2c0-0.1-0.1-0.1-0.1-0.2c-0.1,0-0.2-0.1-0.4-0.1h-0.6
				c-0.8,0-1.5,0-2,0c-0.5,0-0.9,0-1.1,0.1l-0.1-0.8c0-0.1,0.3-0.2,0.8-0.2s1.5,0,2.8,0h0.6c0.4,0,0.7,0.1,0.9,0.2
				c0.2,0.1,0.3,0.2,0.4,0.4c0.1,0.2,0.1,0.3,0.2,0.5c0,0.2,0,0.3,0,0.4v3.5h-0.9l-0.4-0.2c-0.3,0.1-0.7,0.1-1.1,0.2
				c-0.4,0-0.9,0.1-1.5,0.1H232.7z M233,134.8h2.5c0.2,0,0.3,0,0.3,0c0,0,0-0.1,0-0.3v-0.9H233c-0.2,0-0.3,0-0.4,0.1
				s-0.1,0.2-0.1,0.5c0,0.2,0,0.4,0.1,0.4C232.7,134.7,232.8,134.8,233,134.8z"/>
			<path class="st1" d="M242.1,137.7c-0.8,0-1.5,0-2,0c-0.5,0-0.9,0-1.2-0.1c-0.3,0-0.5-0.1-0.6-0.1c-0.1,0-0.2-0.1-0.2-0.1l0.3-0.8
				c0.1,0,0.3,0.1,0.6,0.1c0.3,0.1,0.7,0.1,1.1,0.1h1.9c0.3,0,0.5,0,0.6-0.1c0.1-0.1,0.2-0.2,0.2-0.4v-0.7c-0.3,0.1-0.7,0.1-1.1,0.2
				c-0.4,0-0.9,0.1-1.5,0.1h-0.6c-0.4,0-0.7,0-0.9-0.1c-0.2-0.1-0.3-0.2-0.4-0.4c-0.1-0.1-0.1-0.3-0.2-0.5c0-0.2,0-0.3,0-0.4v-2.1
				c0-0.1,0-0.2,0-0.4c0-0.2,0.1-0.3,0.2-0.5c0.1-0.2,0.2-0.3,0.4-0.4c0.2-0.1,0.5-0.2,0.8-0.2h0.6c0.8,0,1.4,0,1.8,0
				c0.4,0,0.7,0.1,0.9,0.1l0.3-0.1h0.9v5.5c0,0.1,0,0.3-0.1,0.4c0,0.2-0.1,0.3-0.2,0.5c-0.1,0.1-0.3,0.3-0.5,0.4
				c-0.2,0.1-0.5,0.1-0.9,0.1H242.1z M240.3,134.8h2.4c0.2,0,0.3,0,0.3,0c0,0,0-0.1,0-0.3v-2.6c-0.3,0-0.6,0-1-0.1
				c-0.4,0-0.8,0-1.2,0h-0.6c-0.4,0-0.5,0.1-0.5,0.4v2.2C239.7,134.6,239.9,134.8,240.3,134.8z"/>
			<path class="st1" d="M247.1,135.7c-0.6,0-1-0.1-1.2-0.4c-0.3-0.3-0.4-0.6-0.4-1.1c0-0.5,0.1-0.8,0.4-1.1c0.3-0.3,0.7-0.4,1.2-0.4
				h0.6c0.6,0,1.1,0,1.5,0c0.4,0,0.8,0.1,1.1,0.1v-0.7c0-0.1,0-0.1,0-0.2c0-0.1-0.1-0.1-0.1-0.2c-0.1,0-0.2-0.1-0.4-0.1h-0.6
				c-0.8,0-1.5,0-2,0c-0.5,0-0.9,0-1.1,0.1L246,131c0-0.1,0.3-0.2,0.8-0.2c0.6,0,1.5,0,2.8,0h0.6c0.4,0,0.7,0.1,0.9,0.2
				c0.2,0.1,0.3,0.2,0.4,0.4c0.1,0.2,0.1,0.3,0.2,0.5s0,0.3,0,0.4v3.5h-0.9l-0.4-0.2c-0.3,0.1-0.7,0.1-1.1,0.2
				c-0.4,0-0.9,0.1-1.5,0.1H247.1z M247.4,134.8h2.5c0.2,0,0.3,0,0.3,0c0,0,0-0.1,0-0.3v-0.9h-2.9c-0.2,0-0.3,0-0.4,0.1
				s-0.1,0.2-0.1,0.5c0,0.2,0,0.4,0.1,0.4C247.1,134.7,247.3,134.8,247.4,134.8z"/>
			<path class="st1" d="M253.7,130c-0.3,0-0.5-0.1-0.6-0.2c-0.1-0.1-0.2-0.3-0.2-0.6c0-0.3,0.1-0.5,0.2-0.6c0.1-0.1,0.3-0.2,0.6-0.2
				c0.3,0,0.5,0.1,0.6,0.2c0.1,0.1,0.2,0.3,0.2,0.6c0,0.3-0.1,0.4-0.2,0.5C254.2,130,254,130,253.7,130z M253,135.7v-5h1.4v5H253z"
				/>
			<path class="st1" d="M255.9,135.7v-5h0.9l0.4,0.2c0.3-0.1,0.7-0.1,1.1-0.2c0.4,0,0.9-0.1,1.5-0.1h0.6c0.4,0,0.7,0.1,0.9,0.2
				c0.2,0.1,0.3,0.2,0.4,0.4c0.1,0.2,0.1,0.3,0.2,0.5s0,0.3,0,0.4v3.5h-1.4v-3.6c0-0.3-0.2-0.4-0.5-0.4h-2.4c-0.1,0-0.2,0-0.3,0
				c0,0-0.1,0.1-0.1,0.2v3.8H255.9z"/>
		</g>
	</g>
</g>
<g>
	<g>
		<path class="st1" d="M296.2,72.3H170.3c-3.2,0-5.8-3-5.8-6.7c0-3.7,2.6-6.7,5.8-6.7h125.8c3.2,0,5.8,3,5.8,6.7
			C301.9,69.3,299.3,72.3,296.2,72.3z"/>
	</g>
</g>
<g>
	<g>
		<path class="st1" d="M220.3,57.4c-1.3,0-2.3-0.4-2.9-1.1c0-0.1-0.1-0.1-0.1-0.2v1c0,0.1-0.1,0.2-0.2,0.2h-2.8
			c-1.1,0-1.8-0.2-2.3-0.7c-0.5-0.5-0.8-1.2-0.8-2.2v-6c0-0.1,0.1-0.2,0.2-0.2h2.5c0.1,0,0.2,0.1,0.2,0.2c0,0,0,6,0,6.1
			c0,0,0.1,0,0.2,0h2.4c-0.1-0.5-0.1-1-0.1-1.6v-0.6c0-1.4,0.3-2.4,0.9-3.1c0.6-0.8,1.6-1.1,2.9-1.1c1.3,0,2.2,0.4,2.9,1.1
			c0.6,0.7,0.9,1.8,0.9,3.1V53c0,1.5-0.3,2.5-0.9,3.3C222.5,57,221.6,57.4,220.3,57.4z M220.3,50.9c-0.5,0-0.6,0.2-0.6,0.3
			c-0.1,0.3-0.2,0.8-0.2,1.4V53c0,1.1,0.2,1.4,0.2,1.4c0,0.1,0.1,0.1,0.2,0.2c0.1,0,0.2,0.1,0.4,0.1c0.2,0,0.3,0,0.4-0.1
			c0.1-0.1,0.2-0.1,0.2-0.1c0-0.1,0.1-0.1,0.1-0.3c0.1-0.3,0.1-0.7,0.1-1.2v-0.4c0-0.6-0.1-1-0.2-1.4
			C220.8,51.1,220.8,50.9,220.3,50.9z"/>
		<path class="st1" d="M220.3,48.4c1.2,0,2.1,0.4,2.7,1.1c0.6,0.7,0.9,1.7,0.9,3V53c0,1.4-0.3,2.4-0.8,3.1c-0.6,0.7-1.5,1-2.7,1
			c-1.2,0-2.1-0.4-2.7-1c-0.3-0.3-0.4-0.7-0.6-1.2v2.1h-2.8c-1,0-1.7-0.2-2.2-0.6c-0.5-0.4-0.7-1.1-0.7-2v-6h2.5v6
			c0,0.2,0,0.2,0,0.3c0,0,0.1,0.1,0.4,0.1h2.7c-0.1-0.5-0.2-1.1-0.2-1.8v-0.6c0-1.3,0.3-2.3,0.8-3C218.2,48.7,219.1,48.4,220.3,48.4
			 M220.3,54.8c0.2,0,0.4,0,0.5-0.1c0.1-0.1,0.2-0.1,0.3-0.2c0.1-0.1,0.1-0.2,0.2-0.4c0.1-0.3,0.1-0.7,0.1-1.2v-0.4
			c0-0.6-0.1-1.1-0.2-1.5c-0.1-0.2-0.3-0.4-0.8-0.4c-0.6,0-0.8,0.2-0.9,0.4c-0.1,0.3-0.2,0.8-0.2,1.5V53c0,1.1,0.2,1.4,0.3,1.6
			c0.1,0.1,0.2,0.2,0.3,0.2C219.9,54.8,220.1,54.8,220.3,54.8 M220.3,47.9c-1.3,0-2.4,0.4-3.1,1.2c-0.6,0.8-1,1.9-1,3.3V53
			c0,0.5,0,0.9,0.1,1.3h-2.1v-5.8c0-0.3-0.2-0.5-0.5-0.5h-2.5c-0.3,0-0.5,0.2-0.5,0.5v6c0,1,0.3,1.8,0.9,2.4
			c0.6,0.5,1.4,0.7,2.5,0.7h2.8c0.3,0,0.5-0.2,0.5-0.5v-0.3c0.7,0.6,1.6,0.9,2.8,0.9c1.4,0,2.4-0.4,3.1-1.2c0.6-0.8,1-1.9,1-3.4
			v-0.6c0-1.4-0.3-2.5-1-3.3C222.6,48.3,221.6,47.9,220.3,47.9L220.3,47.9z M220.3,54.3c-0.2,0-0.2,0-0.3,0c0,0-0.1,0-0.1-0.1
			c0,0-0.2-0.3-0.2-1.3v-0.4c0-0.7,0.1-1.1,0.2-1.3c0-0.1,0.2-0.1,0.4-0.1c0.3,0,0.4,0.1,0.4,0.1c0.1,0.2,0.2,0.6,0.2,1.3V53
			c0,0.5,0,0.8-0.1,1.1c0,0.1-0.1,0.2-0.1,0.2l0,0c0,0,0,0-0.1,0.1C220.5,54.3,220.4,54.3,220.3,54.3L220.3,54.3z"/>
	</g>
	<g>
		<path class="st1" d="M228.5,57.3c-0.1,0-0.2-0.1-0.2-0.2l-0.4-1.2h-1.5l-0.4,1.1c0,0.1-0.1,0.2-0.2,0.2h-2.6c-0.1,0-0.2,0-0.2-0.1
			c0-0.1-0.1-0.2,0-0.2l2.7-7.7c0.2-0.4,0.4-0.7,0.6-0.9c0.3-0.2,0.6-0.3,0.9-0.3c0.3,0,0.7,0.1,0.9,0.3c0.2,0.2,0.4,0.5,0.6,0.9
			l2.7,7.7c0,0.1,0,0.2,0,0.2c0,0.1-0.1,0.1-0.2,0.1H228.5z"/>
		<path class="st1" d="M227.2,48.4c0.3,0,0.5,0.1,0.7,0.2l0,0c0.2,0.1,0.4,0.4,0.5,0.7l2.7,7.7h-2.6l-0.4-1.3h-1.9l-0.4,1.3h-2.6
			l2.7-7.7c0.2-0.4,0.3-0.6,0.5-0.7C226.6,48.5,226.9,48.4,227.2,48.4 M226.9,53.5h0.5l-0.3-0.9L226.9,53.5 M227.2,47.9
			c-0.4,0-0.8,0.1-1.1,0.3c-0.3,0.2-0.5,0.5-0.7,1l-2.7,7.7c-0.1,0.2,0,0.3,0.1,0.5c0.1,0.1,0.2,0.2,0.4,0.2h2.6
			c0.2,0,0.4-0.1,0.5-0.3l0.3-1h1.1l0.3,1c0.1,0.2,0.3,0.3,0.5,0.3h2.6c0.2,0,0.3-0.1,0.4-0.2c0.1-0.1,0.1-0.3,0.1-0.5l-2.7-7.7
			c-0.2-0.5-0.4-0.8-0.7-1c0,0,0,0,0,0C227.9,48.1,227.6,47.9,227.2,47.9L227.2,47.9z"/>
	</g>
	<g>
		<path class="st1" d="M234.4,57.3c-1.3,0-2.1-0.2-2.7-0.6c-0.6-0.4-0.9-1.2-0.9-2.2v-6.1c0-0.1,0.1-0.2,0.2-0.2h3.5
			c1.1,0,1.9,0.3,2.5,0.9c0.5,0.5,0.8,1.1,0.9,1.9c0.1,0.4,0.1,1,0.1,1.7l0,0.8c0,0.6-0.1,1.1-0.2,1.5c-0.1,0.5-0.4,0.9-0.8,1.3
			C236.4,57,235.5,57.3,234.4,57.3z M233.7,54.5c0.1,0,0.3,0,0.6,0c0.4,0,0.5-0.1,0.6-0.2c0,0,0.1-0.1,0.1-0.3
			c0-0.3,0.1-0.7,0.1-1.3c0-0.7,0-1.1-0.1-1.2c0-0.2-0.1-0.3-0.1-0.3c-0.1-0.1-0.2-0.2-0.6-0.2h-0.6V54.5z"/>
		<path class="st1" d="M234.5,48.4c1,0,1.8,0.3,2.4,0.9c0.5,0.5,0.8,1,0.8,1.7v0c0.1,0.4,0.1,1,0.1,1.7l0,0.8c0,0.6-0.1,1.1-0.2,1.5
			c-0.1,0.4-0.4,0.8-0.7,1.2c-0.6,0.6-1.4,0.9-2.5,0.9c-1.2,0-2-0.2-2.5-0.5c-0.5-0.4-0.8-1-0.8-2v-6.1H234.5 M234.3,54.8
			c0.5,0,0.7-0.2,0.8-0.3c0.1-0.1,0.1-0.2,0.2-0.4v0c0-0.3,0.1-0.7,0.1-1.3c0-0.7,0-1.1-0.1-1.3c0-0.2-0.1-0.3-0.2-0.4
			c-0.1-0.1-0.3-0.3-0.7-0.3h-0.9v3.8c0,0,0,0.1,0,0.2C233.5,54.7,233.7,54.8,234.3,54.8 M234.5,47.9H231c-0.3,0-0.5,0.2-0.5,0.5
			v6.1c0,1.1,0.3,1.9,1,2.4c0.6,0.4,1.5,0.6,2.8,0.6c1.2,0,2.1-0.3,2.8-1c0.4-0.4,0.7-0.9,0.8-1.4c0.1-0.4,0.2-0.9,0.2-1.6l0-0.9
			c0-0.7,0-1.3-0.1-1.7c-0.1-0.8-0.4-1.5-1-2C236.5,48.3,235.6,47.9,234.5,47.9L234.5,47.9z M234,51.2h0.4c0.3,0,0.3,0.1,0.4,0.1
			c0,0,0,0,0,0.2c0,0.1,0.1,0.5,0.1,1.2c0,0.7,0,1.1-0.1,1.2c0,0.1-0.1,0.2-0.1,0.2c0,0-0.1,0.1-0.4,0.1c-0.1,0-0.3,0-0.3,0
			L234,51.2L234,51.2z"/>
	</g>
	<g>
		<path class="st1" d="M238.1,57.3c-0.1,0-0.2-0.1-0.2-0.2v-8.6c0-0.1,0.1-0.2,0.2-0.2h2.5c0.1,0,0.2,0.1,0.2,0.2v8.6
			c0,0.1-0.1,0.2-0.2,0.2H238.1z"/>
		<path class="st1" d="M240.5,48.4v8.6h-2.5v-8.6H240.5 M240.5,47.9h-2.5c-0.3,0-0.5,0.2-0.5,0.5v8.6c0,0.3,0.2,0.5,0.5,0.5h2.5
			c0.3,0,0.5-0.2,0.5-0.5v-8.6C241,48.2,240.8,47.9,240.5,47.9L240.5,47.9z"/>
	</g>
	<g>
		<path class="st1" d="M247.1,57.4c-0.5,0-1.3-0.2-1.9-1.2l-1.3-2v2.9c0,0.1-0.1,0.2-0.2,0.2h-2.5c-0.1,0-0.2-0.1-0.2-0.2v-8.6
			c0-0.1,0.1-0.2,0.2-0.2h2.2c0.1,0,0.2,0,0.2,0.1l1.9,3.1v-2.9c0-0.1,0.1-0.2,0.2-0.2h2.5c0.1,0,0.2,0.1,0.2,0.2v7.4
			c0,0.4-0.1,0.8-0.4,1.1C247.9,57.2,247.5,57.4,247.1,57.4z"/>
		<path class="st1" d="M248.3,48.4v7.4c0,0.4-0.1,0.7-0.3,0.9c-0.2,0.3-0.5,0.4-0.9,0.4c-0.5,0-1.1-0.2-1.6-1.1l-1.7-2.7v3.7h-2.5
			v-8.6h2.2l2.4,3.8v-3.8H248.3 M248.3,47.9h-2.5c-0.3,0-0.5,0.2-0.5,0.5v2.1l-1.5-2.3c-0.1-0.1-0.3-0.2-0.4-0.2h-2.2
			c-0.3,0-0.5,0.2-0.5,0.5v8.6c0,0.3,0.2,0.5,0.5,0.5h2.5c0.3,0,0.5-0.2,0.5-0.5v-2l0.8,1.3c0.6,1.2,1.6,1.3,2.1,1.3
			c0.5,0,0.9-0.2,1.3-0.6c0.3-0.3,0.5-0.8,0.5-1.2v-7.4C248.8,48.2,248.6,47.9,248.3,47.9L248.3,47.9z"/>
	</g>
	<g>
		<path class="st1" d="M252,57.4c-1.3,0-2.3-0.4-2.9-1.2c-0.6-0.7-0.9-1.8-0.9-3.2V52c0-1.2,0.3-2.1,1-2.8c0.7-0.7,1.6-1.1,2.7-1.1
			c1.1,0,2,0.4,2.7,1.1c0.5,0.5,0.8,1.3,0.8,2.3V52c0,0.1,0,0.1-0.1,0.2c0,0,0,0.1,0,0.2l0,3c-0.3,0.8-0.8,1.3-1.4,1.6
			C253.4,57.2,252.7,57.4,252,57.4z M251.9,50.9c-0.1,0-0.3,0-0.3,0.1c-0.1,0.1-0.2,0.1-0.2,0.1c0,0-0.1,0.1-0.1,0.3
			c0,0.2-0.1,0.4-0.1,0.6c0,0.2,0,0.4,0,0.7c0,0.3,0,0.5,0,0.6c0,0.1,0,0.2,0,0.5c0,0.2,0,0.3,0,0.3c0,0.1,0.1,0.2,0.2,0.3
			c0.1,0.1,0.2,0.1,0.3,0.1c0,0,0,0,0,0v-2.2c0-0.1,0.1-0.2,0.2-0.2h0.6c0,0,0,0,0-0.1v-0.5C252.5,51.1,252.5,50.9,251.9,50.9z"/>
		<path class="st1" d="M251.8,48.4c1.1,0,1.9,0.3,2.6,1c0.5,0.5,0.7,1.2,0.7,2.1V52h-2.4v-0.5c0-0.5-0.1-0.8-0.9-0.8
			c-0.2,0-0.3,0-0.5,0.1c-0.1,0.1-0.2,0.1-0.3,0.2c0,0-0.1,0.2-0.1,0.4c0,0.2-0.1,0.4-0.1,0.6c0,0.2,0,0.4,0,0.7c0,0.3,0,0.5,0,0.6
			c0,0.1,0,0.3,0,0.5c0,0.3,0.1,0.4,0.1,0.4c0,0.1,0.1,0.2,0.2,0.4c0,0.1,0.1,0.1,0.1,0.1c0.2,0.2,0.5,0.2,0.8,0.2
			c0.3,0,0.6-0.1,0.8-0.4H252v-2.2h3.2l0,3c-0.3,0.6-0.7,1.1-1.3,1.4c-0.5,0.3-1.2,0.5-1.9,0.5c-1.2,0-2.1-0.4-2.7-1.1
			c-0.6-0.7-0.8-1.7-0.8-3.1V52c0-1.1,0.3-2,0.9-2.7C249.9,48.7,250.8,48.4,251.8,48.4 M251.8,47.9c-1.2,0-2.2,0.4-2.9,1.2
			c-0.7,0.7-1.1,1.8-1.1,3V53c0,1.5,0.3,2.6,0.9,3.4c0.7,0.8,1.7,1.3,3.1,1.3c0.8,0,1.5-0.2,2.1-0.5c0.7-0.4,1.2-0.9,1.5-1.7
			c0-0.1,0-0.1,0-0.2l0-3c0,0,0-0.1,0-0.1c0-0.1,0-0.1,0-0.2v-0.5c0-1.1-0.3-1.9-0.9-2.5C254,48.3,253,47.9,251.8,47.9L251.8,47.9z
			 M251.6,51.3C251.6,51.3,251.6,51.2,251.6,51.3c0.1-0.1,0.1-0.1,0.3-0.1c0.3,0,0.4,0.1,0.4,0.1c0,0,0,0,0,0.2v0.3H252
			c-0.3,0-0.5,0.2-0.5,0.5v1.1c0,0,0,0,0-0.1c0-0.1,0-0.3,0-0.6c0-0.3,0-0.5,0-0.7c0-0.1,0-0.3,0.1-0.5
			C251.6,51.4,251.6,51.3,251.6,51.3L251.6,51.3L251.6,51.3z"/>
	</g>
</g>
<path class="st1" d="M298.7,61.2c-0.3-0.2-0.6-0.4-0.9-0.6c-0.2-0.1-0.3-0.2-0.5-0.2c-0.3-0.1-0.7-0.3-1.1-0.3
	c-0.2,0-0.4-0.1-0.6-0.1c-0.2,0-0.4,0-0.6,0H171.3c-3.1,0-5.7,2.6-5.7,5.7c0,0.8,0.2,1.5,0.4,2.2c0.4,0.9,0.9,1.6,1.6,2.2
	c0.1,0.1,0.3,0.2,0.4,0.3c0.9,0.6,2,1,3.2,1h123.8c2.4,0,4.4-1.4,5.3-3.5c0.3-0.7,0.4-1.4,0.4-2.2C300.8,63.8,300,62.2,298.7,61.2z"
	/>
<g>
	<g>
		<path class="st0" d="M169.7,68.4c-0.5,0-0.9-0.4-0.9-0.9v-3.9c0-0.5,0.4-0.9,0.9-0.9h87.6c0.5,0,0.9,0.4,0.9,0.9v3.9
			c0,0.5-0.4,0.9-0.9,0.9H169.7z"/>
		<path class="st0" d="M257.3,63.2c0.2,0,0.4,0.2,0.4,0.4v3.9c0,0.2-0.2,0.4-0.4,0.4h-87.6c-0.2,0-0.4-0.2-0.4-0.4v-3.9
			c0-0.2,0.2-0.4,0.4-0.4H257.3 M257.3,62.2h-87.6c-0.8,0-1.4,0.6-1.4,1.4v3.9c0,0.8,0.6,1.4,1.4,1.4h87.6c0.8,0,1.4-0.6,1.4-1.4
			v-3.9C258.7,62.9,258.1,62.2,257.3,62.2L257.3,62.2z"/>
	</g>
	<g>
		<path class="st0" d="M295.1,71.3H171.3c-3.1,0-5.7-2.6-5.7-5.7c0-3.1,2.6-5.7,5.7-5.7h123.8c3.1,0,5.7,2.6,5.7,5.7
			C300.8,68.7,298.3,71.3,295.1,71.3z M171.3,60.6c-2.7,0-5,2.2-5,5c0,2.7,2.2,5,5,5h123.8c2.7,0,5-2.2,5-5c0-2.7-2.2-5-5-5H171.3z"
			/>
		<path class="st0" d="M295.1,59.9H171.3c-3.1,0-5.7,2.6-5.7,5.7s2.6,5.7,5.7,5.7h123.8c3.1,0,5.7-2.6,5.7-5.7
			S298.3,59.9,295.1,59.9L295.1,59.9z M171.3,70.5c-2.7,0-5-2.2-5-5c0-2.7,2.2-5,5-5h123.8c2.7,0,5,2.2,5,5c0,2.7-2.2,5-5,5H171.3
			L171.3,70.5z"/>
	</g>
</g>
<g>
	<g>
		<path class="st0" d="M214.2,57.1c-1,0-1.7-0.2-2.2-0.6c-0.5-0.4-0.7-1.1-0.7-2v-5.5c0-0.3,0.2-0.5,0.5-0.5h1.5
			c0.3,0,0.5,0.2,0.5,0.5v5.5c0,0.2,0,0.2,0,0.3l0,0c0,0,0.1,0,0.4,0h2.3c0.3,0,0.5,0.2,0.5,0.5v1.3c0,0.3-0.2,0.5-0.5,0.5H214.2z"
			/>
		<path class="st7" d="M213.3,48.9v5.5c0,0.3,0.1,0.5,0.2,0.6c0.1,0.1,0.4,0.2,0.7,0.2h2.3v1.3h-2.3c-0.9,0-1.5-0.2-1.9-0.5
			c-0.4-0.3-0.6-0.9-0.6-1.6v-5.5H213.3 M213.3,47.9h-1.5c-0.6,0-1,0.4-1,1v5.5c0,1,0.3,1.9,0.9,2.4c0.6,0.5,1.4,0.7,2.5,0.7h2.3
			c0.6,0,1-0.4,1-1v-1.3c0-0.6-0.4-1-1-1h-2.2v-5.3C214.3,48.4,213.8,47.9,213.3,47.9L213.3,47.9z"/>
	</g>
	<g>
		<path class="st0" d="M220.3,57.1c-1.2,0-2.1-0.4-2.7-1.1c-0.6-0.7-0.8-1.7-0.8-3.1v-0.6c0-1.3,0.3-2.3,0.8-3c0.6-0.7,1.5-1,2.7-1
			c1.2,0,2.1,0.4,2.7,1.1c0.6,0.7,0.9,1.7,0.9,3V53c0,1.4-0.3,2.4-0.8,3.1C222.4,56.8,221.5,57.1,220.3,57.1z M220.3,50.7
			c-0.6,0-0.8,0.2-0.8,0.4c-0.1,0.3-0.2,0.8-0.2,1.5V53c0,1.1,0.2,1.4,0.3,1.6c0.1,0.1,0.2,0.2,0.3,0.2c0.1,0.1,0.3,0.1,0.5,0.1
			s0.4,0,0.5-0.1c0.1-0.1,0.2-0.1,0.3-0.2c0.1-0.1,0.1-0.2,0.2-0.4c0.1-0.3,0.1-0.7,0.1-1.2v-0.4c0-0.6-0.1-1.1-0.2-1.5
			C221,50.9,220.9,50.7,220.3,50.7z"/>
		<path class="st7" d="M220.3,48.9c1.1,0,1.8,0.3,2.3,0.9c0.5,0.6,0.7,1.5,0.7,2.7V53c0,1.3-0.2,2.2-0.7,2.8
			c-0.5,0.6-1.3,0.9-2.3,0.9c-1.1,0-1.8-0.3-2.3-0.9c-0.5-0.6-0.7-1.5-0.7-2.8v-0.6c0-1.2,0.2-2.1,0.7-2.7
			C218.4,49.2,219.2,48.9,220.3,48.9 M220.3,55.3c0.3,0,0.5,0,0.7-0.1c0.2-0.1,0.3-0.2,0.5-0.3c0.1-0.1,0.2-0.3,0.2-0.5
			c0.1-0.4,0.2-0.8,0.2-1.3v-0.4c0-0.7-0.1-1.2-0.3-1.6c-0.2-0.5-0.6-0.7-1.3-0.7c-0.7,0-1.1,0.2-1.3,0.7c-0.2,0.4-0.2,0.9-0.2,1.6
			V53c0,0.9,0.1,1.5,0.4,1.9c0.1,0.1,0.2,0.3,0.4,0.3S220,55.3,220.3,55.3 M220.3,47.9c-1.4,0-2.4,0.4-3.1,1.2c-0.6,0.8-1,1.9-1,3.3
			V53c0,1.6,0.3,2.7,0.9,3.5c0.7,0.8,1.7,1.2,3.1,1.2c1.4,0,2.4-0.4,3.1-1.2c0.6-0.8,1-1.9,1-3.4v-0.6c0-1.4-0.3-2.5-1-3.3
			C222.6,48.3,221.6,47.9,220.3,47.9L220.3,47.9z M220.3,54.3c-0.2,0-0.2,0-0.3,0c-0.1,0-0.1-0.1-0.1-0.1c0,0-0.2-0.3-0.2-1.3v-0.4
			c0-0.7,0.1-1.1,0.2-1.2c0-0.1,0.3-0.1,0.4-0.1c0.2,0,0.3,0,0.4,0.1c0.1,0.2,0.2,0.6,0.2,1.3V53c0,0.6-0.1,0.9-0.1,1.1
			c0,0.1-0.1,0.2-0.1,0.2c0,0,0,0-0.1,0.1C220.5,54.3,220.4,54.3,220.3,54.3L220.3,54.3z"/>
	</g>
	<g>
		<path class="st0" d="M228.9,57.1c-0.2,0-0.4-0.1-0.5-0.3l-0.3-1h-1.8l-0.3,1c-0.1,0.2-0.3,0.3-0.5,0.3h-1.6
			c-0.2,0-0.3-0.1-0.4-0.2c-0.1-0.1-0.1-0.3-0.1-0.5l2.5-7c0.2-0.4,0.3-0.6,0.5-0.7c0.2-0.2,0.5-0.2,0.8-0.2c0.3,0,0.6,0.1,0.8,0.2
			c0.2,0.1,0.4,0.4,0.5,0.8l2.5,7c0.1,0.2,0,0.3-0.1,0.5c-0.1,0.1-0.2,0.2-0.4,0.2H228.9z M227.4,53.5l-0.2-0.8l-0.3,0.8H227.4z"/>
		<path class="st7" d="M227.2,48.9c0.2,0,0.3,0,0.5,0.1c0.1,0.1,0.2,0.3,0.3,0.5l2.5,7h-1.6l-0.4-1.3h-2.6l-0.4,1.3h-1.6l2.5-7
			c0.1-0.2,0.2-0.4,0.4-0.5C226.8,49,227,48.9,227.2,48.9 M226.2,54h1.8l-0.9-3L226.2,54 M227.2,47.9c-0.4,0-0.8,0.1-1.1,0.3
			c-0.3,0.2-0.5,0.5-0.7,0.9c0,0,0,0,0,0.1l-2.5,7c-0.1,0.3-0.1,0.6,0.1,0.9c0.2,0.3,0.5,0.4,0.8,0.4h1.6c0.4,0,0.8-0.3,1-0.7
			l0.2-0.6h1.1l0.2,0.6c0.1,0.4,0.5,0.7,1,0.7h1.6c0.3,0,0.6-0.2,0.8-0.4c0.2-0.3,0.2-0.6,0.1-0.9l-2.5-7c-0.2-0.5-0.4-0.8-0.7-1
			C228,48,227.6,47.9,227.2,47.9L227.2,47.9z"/>
	</g>
	<g>
		<path class="st0" d="M234.4,57.1c-1.2,0-2-0.2-2.5-0.5c-0.5-0.4-0.8-1.1-0.8-2v-5.6c0-0.3,0.2-0.5,0.5-0.5h3c1,0,1.8,0.3,2.4,0.9
			c0.5,0.5,0.8,1.1,0.8,1.7c0.1,0.4,0.1,1,0.1,1.7l0,0.8c0,0.6-0.1,1.1-0.2,1.5c-0.1,0.4-0.4,0.8-0.7,1.2
			C236.3,56.8,235.4,57.1,234.4,57.1z M233.5,54.5c0,0.1,0,0.1,0,0.2c0,0,0.2,0.1,0.8,0.1c0.5,0,0.6-0.2,0.7-0.3
			c0.1-0.1,0.1-0.2,0.2-0.4c0-0.3,0.1-0.7,0.1-1.3c0-0.6,0-1-0.1-1.3c0-0.2-0.1-0.3-0.2-0.4c-0.1-0.1-0.3-0.3-0.7-0.3h-0.8V54.5z"/>
		<path class="st7" d="M234.5,48.9c0.9,0,1.5,0.2,2,0.7c0.4,0.4,0.6,0.9,0.7,1.4c0.1,0.4,0.1,0.9,0.1,1.6l0,0.8c0,0.5-0.1,1-0.2,1.3
			c-0.1,0.4-0.3,0.7-0.6,1c-0.5,0.5-1.2,0.7-2.1,0.7c-1.1,0-1.8-0.1-2.3-0.4c-0.4-0.3-0.6-0.8-0.6-1.6v-5.6H234.5 M234.3,55.3
			c0.5,0,0.9-0.2,1.1-0.5c0.1-0.2,0.2-0.4,0.3-0.7c0-0.3,0.1-0.7,0.1-1.4s0-1.1-0.1-1.3c0-0.3-0.1-0.5-0.3-0.7
			c-0.3-0.3-0.6-0.5-1.1-0.5H233v4.2c0,0.3,0.1,0.5,0.3,0.6C233.5,55.2,233.8,55.3,234.3,55.3 M234.5,47.9h-3c-0.6,0-1,0.4-1,1v5.6
			c0,1.1,0.3,1.9,1,2.4c0.6,0.4,1.5,0.6,2.8,0.6c1.2,0,2.2-0.3,2.8-1c0.4-0.4,0.7-0.9,0.8-1.4c0.1-0.4,0.2-0.9,0.2-1.5
			c0,0,0,0,0-0.1l0-0.8c0-0.7,0-1.3-0.1-1.7c-0.1-0.8-0.4-1.5-1-2C236.5,48.3,235.6,47.9,234.5,47.9L234.5,47.9z M234,51.3h0.3
			c0.3,0,0.3,0.1,0.3,0.1c0,0,0,0,0,0.2c0,0.2,0,0.5,0,1.2c0,0.7,0,1.1-0.1,1.2c0,0.1,0,0.2,0,0.2c0,0-0.1,0.1-0.4,0.1
			c-0.1,0-0.2,0-0.3,0L234,51.3L234,51.3z"/>
	</g>
	<g>
		<path class="st0" d="M238.6,57.1c-0.3,0-0.5-0.2-0.5-0.5v-7.7c0-0.3,0.2-0.5,0.5-0.5h1.5c0.3,0,0.5,0.2,0.5,0.5v7.7
			c0,0.3-0.2,0.5-0.5,0.5H238.6z"/>
		<path class="st7" d="M240.1,48.9v7.7h-1.5v-7.7H240.1 M240.1,47.9h-1.5c-0.6,0-1,0.4-1,1v7.7c0,0.6,0.4,1,1,1h1.5c0.6,0,1-0.4,1-1
			v-7.7C241.1,48.4,240.6,47.9,240.1,47.9L240.1,47.9z"/>
	</g>
	<g>
		<path class="st0" d="M247.1,57.2c-0.5,0-1.1-0.2-1.7-1.1l-1.7-2.7v3.2c0,0.3-0.2,0.5-0.5,0.5h-1.5c-0.3,0-0.5-0.2-0.5-0.5v-7.7
			c0-0.3,0.2-0.5,0.5-0.5h1.4c0.2,0,0.3,0.1,0.4,0.2l2.2,3.5v-3.3c0-0.3,0.2-0.5,0.5-0.5h1.5c0.3,0,0.5,0.2,0.5,0.5v6.9
			c0,0.4-0.1,0.7-0.3,0.9C247.7,57,247.4,57.2,247.1,57.2z"/>
		<path class="st7" d="M247.8,48.9v6.9c0,0.2-0.1,0.4-0.2,0.6c-0.1,0.2-0.3,0.3-0.5,0.3c-0.5,0-0.9-0.3-1.2-0.9l-2.6-4.1v4.9h-1.5
			v-7.7h1.4l3.1,5v-5H247.8 M247.8,47.9h-1.5c-0.6,0-1,0.4-1,1v1.5l-1.3-2.1c-0.2-0.3-0.5-0.5-0.8-0.5h-1.4c-0.6,0-1,0.4-1,1v7.7
			c0,0.6,0.4,1,1,1h1.5c0.6,0,1-0.4,1-1v-1.5l0.8,1.2c0.7,1.2,1.6,1.3,2.1,1.3c0.5,0,0.9-0.2,1.3-0.6c0.3-0.3,0.5-0.8,0.5-1.3v-6.9
			C248.8,48.4,248.4,47.9,247.8,47.9L247.8,47.9z"/>
	</g>
	<g>
		<path class="st0" d="M252,57.1c-1.2,0-2.2-0.4-2.7-1.1c-0.6-0.7-0.8-1.7-0.8-3.1V52c0-1.1,0.3-2,0.9-2.7c0.6-0.7,1.5-1,2.5-1
			c1.1,0,1.9,0.3,2.6,1c0.5,0.5,0.7,1.2,0.7,2.1c0,0.3-0.2,0.5-0.5,0.5h-1.4c-0.3,0-0.5-0.2-0.5-0.5c0-0.5-0.1-0.8-0.9-0.8
			c-0.2,0-0.3,0-0.5,0.1c-0.1,0.1-0.2,0.1-0.3,0.2c0,0-0.1,0.2-0.1,0.4c0,0.2-0.1,0.4-0.1,0.6c0,0.2,0,0.4,0,0.7c0,0.3,0,0.5,0,0.6
			c0,0.1,0,0.3,0,0.5c0,0.3,0,0.3,0.1,0.4c0,0.1,0.1,0.2,0.2,0.4c0,0.1,0.1,0.1,0.1,0.1c0.2,0.1,0.5,0.2,0.8,0.2
			c0.3,0,0.6-0.1,0.7-0.3h-0.3c-0.3,0-0.5-0.2-0.5-0.5v-1.2c0-0.3,0.2-0.5,0.5-0.5h2.2c0.3,0,0.5,0.2,0.5,0.5v2.3c0,0.1,0,0.1,0,0.2
			c-0.3,0.6-0.7,1.1-1.3,1.4C253.3,57,252.7,57.1,252,57.1z"/>
		<path class="st7" d="M251.8,48.9c0.9,0,1.7,0.3,2.2,0.8c0.4,0.4,0.6,1,0.6,1.8h-1.4c0-0.9-0.5-1.3-1.4-1.3c-0.3,0-0.5,0.1-0.7,0.2
			c-0.2,0.1-0.3,0.2-0.4,0.4c-0.1,0.1-0.2,0.3-0.2,0.6c-0.1,0.3-0.1,0.5-0.1,0.7c0,0.2,0,0.4,0,0.7c0,0.3,0,0.5,0,0.6
			c0,0.1,0,0.3,0,0.5c0,0.2,0,0.4,0.1,0.5c0,0.1,0.1,0.2,0.2,0.4c0.1,0.2,0.2,0.3,0.3,0.3c0.3,0.2,0.6,0.3,1,0.3
			c0.6,0,1.1-0.3,1.3-0.8V54h-0.9v-1.2h2.2v2.3c-0.2,0.5-0.6,0.9-1.1,1.2c-0.5,0.3-1,0.4-1.6,0.4c-1.1,0-1.9-0.3-2.3-0.9
			c-0.5-0.6-0.7-1.5-0.7-2.8V52c0-1,0.3-1.8,0.8-2.3C250.2,49.1,250.9,48.9,251.8,48.9 M251.8,47.9c-1.2,0-2.2,0.4-2.9,1.2
			c-0.7,0.7-1.1,1.8-1.1,3V53c0,1.5,0.3,2.6,0.9,3.4c0.7,0.9,1.7,1.3,3.1,1.3c0.8,0,1.5-0.2,2.1-0.5c0.7-0.4,1.2-0.9,1.5-1.7
			c0.1-0.1,0.1-0.3,0.1-0.4v-2.3c0-0.2-0.1-0.5-0.2-0.6c0.1-0.2,0.2-0.4,0.2-0.6c0-1.1-0.3-1.9-0.9-2.5
			C254,48.2,253,47.9,251.8,47.9L251.8,47.9z M251.6,51.3C251.6,51.3,251.6,51.3,251.6,51.3c0.1-0.1,0.1-0.1,0.3-0.1
			c0.3,0,0.3,0.1,0.3,0.1c0,0,0,0.1,0,0.2c0,0.1,0,0.2,0,0.3c-0.4,0.1-0.7,0.4-0.8,0.8c0-0.2,0-0.4,0-0.5c0-0.1,0-0.3,0.1-0.5
			C251.6,51.4,251.6,51.3,251.6,51.3L251.6,51.3z"/>
	</g>
</g>
<g>
	<path class="st8" d="M362.2,22.7c-0.3,0.2-0.5,0.3-0.7,0.4c-0.2,0.1-0.4,0-0.5,0c-0.2-0.1-0.3-0.2-0.4-0.4l-0.8-1
		c-0.2-0.3-0.3-0.6-0.3-0.8c0.1-0.3,0.3-0.5,0.6-0.8l1.6-1.3c0.3-0.2,0.5-0.3,0.6-0.4c0.1-0.1,0.2-0.1,0.3-0.1l0.2,0.5
		c-0.1,0-0.3,0.2-0.6,0.4c-0.3,0.2-0.8,0.6-1.3,1l-0.3,0.2c-0.3,0.2-0.4,0.5-0.2,0.7l0.9,1.1c0.1,0.1,0.2,0.2,0.3,0.2
		c0.1,0,0.2-0.1,0.4-0.2l0.2-0.2c0.3-0.3,0.6-0.5,0.9-0.7c0.2-0.2,0.4-0.4,0.6-0.5l-0.5-0.6l-0.3,0.3l-0.7,0.6l-0.3-0.4l1.8-1.4
		l1,1.2l0.1,0c0,0,0,0.1-0.2,0.2c-0.1,0.1-0.4,0.4-0.8,0.6L362.2,22.7z"/>
	<path class="st8" d="M365.1,20.5l0-3.9l1.2-0.7l3.5,1.8l-0.9,0.6l-0.7-0.4l-2.1,1.3l0,0.8L365.1,20.5z M365.9,18.5l1.7-1l-1.6-0.8
		l-0.1,0L365.9,18.5z"/>
	<path class="st8" d="M370.1,17.4l-1.2-2.6l-0.3-0.4l1-0.4l2.4,1.4l0.5-2.7l0.9-0.4l1.4,3l-0.8,0.4l-0.9-1.9l-0.1,0l0,0.6l-0.3,1.5
		l-0.8,0.3l-1.3-0.8l-0.5-0.3l-0.1,0l0.9,1.9L370.1,17.4z"/>
	<path class="st8" d="M375.8,15l-1-3.1l4.1-1.3L379,11l-3.2,1.1l0.2,0.7l2.5-0.8l0.2,0.5l-2.5,0.8l0.3,0.8l3.3-1.1l0.4,0.4
		c0,0,0,0-0.2,0.1c-0.1,0.1-0.3,0.1-0.6,0.2L375.8,15z"/>
	<path class="st8" d="M385.1,12.5c-0.2,0-0.4,0.1-0.5,0c-0.2,0-0.4-0.1-0.7-0.2l-0.6-0.3c-0.2-0.1-0.5-0.2-0.7-0.2
		c-0.3,0-0.6,0-0.9,0.1l-0.2,0l0.3,1.2l-0.9,0.2l-0.6-2.8l-0.2-0.4l3-0.6c0.3-0.1,0.5-0.1,0.7-0.1c0.2,0,0.3,0.1,0.4,0.2
		c0.1,0.1,0.2,0.2,0.2,0.3c0,0.1,0.1,0.2,0.1,0.3l0,0.1c0,0.1,0,0.2,0,0.3c0,0.1,0,0.2-0.1,0.3c-0.1,0.1-0.1,0.2-0.3,0.3
		c-0.1,0.1-0.3,0.2-0.5,0.2c0.1,0,0.1,0,0.3,0.1c0.1,0,0.2,0.1,0.3,0.1c0.1,0,0.2,0.1,0.3,0.1c0.1,0,0.2,0.1,0.2,0.1
		c0.2,0,0.3,0.1,0.5,0.1c0.1,0,0.2,0,0.3,0c0.1,0,0.1,0,0.1,0l0,0.5c0,0-0.1,0-0.2,0.1C385.3,12.5,385.2,12.5,385.1,12.5z
		 M382.3,11.3c0.2,0,0.3-0.1,0.5-0.1c0.1,0,0.3-0.1,0.4-0.1c0.2-0.1,0.3-0.1,0.4-0.2c0.1-0.1,0.1-0.2,0.1-0.3l0-0.1
		c0-0.1-0.1-0.2-0.2-0.3c-0.1-0.1-0.2-0.1-0.4,0l-1.9,0.4l0.2,1c0.2,0,0.4-0.1,0.6-0.1C382,11.3,382.2,11.3,382.3,11.3z"/>
	<path class="st8" d="M388.5,12c-0.3,0-0.5,0-0.7,0s-0.2,0-0.2-0.1l0.2-0.5c0.1,0,0.4,0,0.8,0c0.4,0,1-0.1,1.7-0.1l0.1,0
		c0.2,0,0.3-0.1,0.4-0.1c0.1-0.1,0.1-0.2,0.1-0.3l0-0.1c0-0.1-0.1-0.2-0.1-0.3c-0.1-0.1-0.2-0.1-0.5,0l-1.6,0.1c-0.5,0-0.8,0-1-0.1
		c-0.2-0.1-0.4-0.3-0.4-0.7l0-0.1c0-0.2,0-0.3,0.1-0.5c0.1-0.1,0.2-0.3,0.4-0.4c0.2-0.1,0.4-0.2,0.8-0.2l1.9-0.2c0.3,0,0.6,0,0.8,0
		c0.2,0,0.3,0,0.3,0.1L391.4,9c-0.1,0-0.4,0-0.8,0c-0.4,0-1,0.1-1.7,0.1l-0.1,0c-0.2,0-0.4,0.1-0.4,0.1c-0.1,0.1-0.1,0.2-0.1,0.3
		l0,0.1c0,0.1,0.1,0.2,0.2,0.3c0.1,0.1,0.2,0.1,0.4,0.1l1.5-0.1c0.3,0,0.5,0,0.8,0c0.2,0,0.4,0.1,0.5,0.2c0.1,0.1,0.2,0.3,0.2,0.6
		l0,0.1c0,0.3,0,0.5-0.2,0.7c-0.2,0.2-0.5,0.3-0.9,0.3L388.5,12z"/>
	<path class="st8" d="M394,11.7c-0.3,0-0.6,0-0.8-0.1c-0.2-0.1-0.3-0.2-0.4-0.3c-0.1-0.1-0.1-0.3-0.1-0.6l0-1.3c0-0.2,0-0.4,0.1-0.5
		c0.1-0.1,0.2-0.3,0.4-0.3c0.2-0.1,0.4-0.1,0.8-0.1l2,0c0.3,0,0.6,0,0.8,0.1c0.2,0.1,0.3,0.2,0.4,0.3s0.1,0.3,0.1,0.5l0,0.7
		c0,0.3,0,0.5-0.1,0.7c-0.1,0.2-0.2,0.3-0.5,0.4c-0.1,0.1-0.4,0.2-0.7,0.3c0.2,0,0.4,0.1,0.5,0.1c0.2,0,0.3,0.1,0.4,0.1
		c0.2,0,0.3,0,0.5,0.1c0.2,0,0.3,0,0.4,0c0.1,0,0.2,0,0.2,0l-0.2,0.5c0,0-0.1,0-0.1,0c-0.1,0-0.2,0-0.3,0c-0.2,0-0.4,0-0.6-0.1
		c-0.2,0-0.4-0.1-0.6-0.1c-0.2,0-0.4-0.1-0.5-0.1c-0.2-0.1-0.3-0.1-0.5-0.1c-0.2,0-0.4-0.1-0.6-0.1C394.6,11.7,394.3,11.7,394,11.7z
		 M394.2,11.2l0.9,0c0.3,0,0.6,0,0.8-0.1c0.2-0.1,0.3-0.2,0.4-0.3c0.1-0.1,0.1-0.4,0.1-0.6l0-0.8c0-0.1,0-0.2-0.1-0.3
		s-0.2-0.1-0.4-0.1l-1.6,0c-0.2,0-0.3,0-0.4,0.1c-0.1,0.1-0.2,0.2-0.2,0.3l0,1.4c0,0.1,0,0.2,0.1,0.3
		C393.9,11.1,394,11.2,394.2,11.2z"/>
	<path class="st8" d="M399.3,11.9c-0.4,0-0.7-0.2-0.8-0.4c-0.1-0.2-0.2-0.5-0.2-0.8l0.2-2.3l0.9,0.1l-0.3,2.4c0,0.2,0,0.3,0.1,0.4
		c0.1,0.1,0.2,0.1,0.4,0.1l1.5,0.2c0.1,0,0.3,0,0.4-0.1c0.1,0,0.2-0.2,0.2-0.3l0.3-2.4l0.9,0.1l-0.2,2.3c0,0.2-0.1,0.4-0.2,0.5
		c-0.1,0.1-0.2,0.2-0.4,0.3c-0.2,0.1-0.4,0.1-0.7,0.1L399.3,11.9z"/>
	<path class="st8" d="M403,12.3l2.7-2.8l1.3,0.3l1.3,3.6l-1-0.2l-0.3-0.8l-2.4-0.5l-0.6,0.6L403,12.3z M404.9,11.4l1.9,0.4l-0.6-1.7
		l-0.1,0L404.9,11.4z"/>
	<path class="st8" d="M408.8,13.5l0.9-2.7l0.1-0.4l3.1,1c0.4,0.1,0.6,0.2,0.8,0.4c0.2,0.1,0.3,0.3,0.3,0.4c0,0.2,0,0.4-0.1,0.6
		l-0.4,1.2c-0.1,0.2-0.2,0.4-0.3,0.5c-0.1,0.1-0.3,0.2-0.5,0.2c-0.2,0-0.5,0-0.9-0.2L408.8,13.5z M409.8,13.3l2.1,0.7
		c0.3,0.1,0.6,0,0.6-0.2l0.4-1.4c0-0.1,0-0.2,0-0.3c-0.1-0.1-0.2-0.2-0.4-0.2l-2.1-0.7L409.8,13.3z"/>
	<path class="st8" d="M414.9,15.6l0.4-0.2l2-0.5l-0.9-2.3l1,0.5l0.7,1.7l0.1,0l1.8-0.5l1,0.5l-0.4,0.2l-2,0.5l0.9,2.3l-1-0.5
		l-0.7-1.7l-0.1,0l-1.8,0.5L414.9,15.6z"/>
	<path class="st8" d="M422.1,19.5c-0.3-0.2-0.5-0.4-0.6-0.5c-0.1-0.2-0.2-0.3-0.1-0.5c0-0.2,0.1-0.3,0.2-0.5l0.7-1
		c0.2-0.3,0.4-0.5,0.7-0.5c0.3,0,0.6,0.1,0.9,0.3l1.7,1.2c0.3,0.2,0.5,0.3,0.6,0.4c0.1,0.1,0.2,0.2,0.2,0.2l-0.4,0.3
		c-0.1-0.1-0.2-0.2-0.6-0.4c-0.3-0.2-0.8-0.5-1.4-1l-0.3-0.2c-0.3-0.2-0.5-0.2-0.7,0l-0.8,1.2c-0.1,0.1-0.1,0.2-0.1,0.3
		c0,0.1,0.1,0.2,0.3,0.3l0.2,0.2c0.4,0.3,0.7,0.5,0.9,0.6c0.3,0.2,0.5,0.3,0.6,0.4l0.4-0.6l-0.3-0.2l-0.8-0.5l0.3-0.5l1.9,1.3
		l-0.9,1.3l0,0.1c0,0-0.1,0-0.3-0.1c-0.2-0.1-0.5-0.3-0.8-0.5L422.1,19.5z"/>
	<path class="st8" d="M425.1,21.5l3.7-1.1l1,0.9l-0.7,3.8l-0.8-0.7l0.2-0.8l-1.9-1.6l-0.8,0.2L425.1,21.5z M427.2,21.6l1.5,1.3
		l0.3-1.8l-0.1,0L427.2,21.6z"/>
	<path class="st8" d="M429.5,25.4l2.2-1.8l0.3-0.3l0.7,0.8l-0.7,2.6l2.8-0.2l0.6,0.7l-2.5,2.1l-0.6-0.7l1.6-1.3l0-0.1l-0.5,0.1
		l-1.5,0.1l-0.5-0.6l0.4-1.5l0.2-0.5l0-0.1l-1.6,1.3L429.5,25.4z"/>
	<path class="st8" d="M433.3,30.1l2.8-1.7l2.2,3.7l-0.5,0.3l-1.7-2.9l-0.7,0.4l1.3,2.2l-0.5,0.3l-1.3-2.2l-0.8,0.5l1.7,3l-0.3,0.5
		c0,0-0.1,0-0.1-0.1c-0.1-0.1-0.2-0.3-0.3-0.5L433.3,30.1z"/>
	<path class="st8" d="M437.4,38.8c-0.1-0.2-0.1-0.4-0.1-0.5c0-0.2,0-0.4,0.1-0.7l0.2-0.6c0.1-0.2,0.1-0.5,0.1-0.8
		c0-0.3-0.1-0.6-0.2-0.9l-0.1-0.2l-1.2,0.4l-0.3-0.9l2.7-1l0.4-0.2l1.1,2.9c0.1,0.3,0.2,0.5,0.2,0.7c0,0.2,0,0.3-0.1,0.4
		c-0.1,0.1-0.2,0.2-0.3,0.3c-0.1,0.1-0.2,0.1-0.3,0.2l-0.1,0c-0.1,0-0.2,0-0.3,0.1c-0.1,0-0.2,0-0.3,0c-0.1,0-0.2-0.1-0.4-0.2
		c-0.1-0.1-0.2-0.3-0.3-0.5c0,0.1,0,0.2,0,0.3c0,0.1,0,0.2-0.1,0.3c0,0.1,0,0.2-0.1,0.3c0,0.1,0,0.2,0,0.2c0,0.2,0,0.3,0,0.5
		c0,0.1,0,0.2,0.1,0.3c0,0.1,0,0.1,0,0.1l-0.5,0c0,0-0.1-0.1-0.1-0.2C437.5,39,437.4,38.9,437.4,38.8z M438.2,35.9
		c0.1,0.2,0.1,0.3,0.2,0.4c0.1,0.1,0.1,0.2,0.2,0.3c0.1,0.2,0.2,0.3,0.3,0.3c0.1,0,0.2,0.1,0.3,0l0.1,0c0.1,0,0.2-0.1,0.2-0.2
		c0-0.1,0-0.2,0-0.4l-0.7-1.8l-0.9,0.3c0.1,0.2,0.1,0.4,0.2,0.5C438.1,35.6,438.2,35.7,438.2,35.9z"/>
	<path class="st8" d="M438.2,42c0-0.3-0.1-0.5-0.1-0.7c0-0.1,0-0.2,0-0.2l0.5,0.2c0,0.1,0,0.4,0.1,0.8c0,0.4,0.1,1,0.2,1.7l0,0.1
		c0,0.2,0.1,0.3,0.1,0.4c0.1,0.1,0.2,0.1,0.3,0.1l0.1,0c0.1,0,0.2-0.1,0.3-0.1c0-0.1,0.1-0.2,0-0.5l-0.2-1.6c-0.1-0.5,0-0.8,0.1-1
		c0.1-0.2,0.3-0.4,0.6-0.4l0.1,0c0.2,0,0.3,0,0.5,0.1c0.1,0.1,0.3,0.2,0.4,0.3c0.1,0.2,0.2,0.4,0.2,0.7l0.3,1.9
		c0,0.3,0.1,0.6,0.1,0.8c0,0.2,0,0.3,0,0.3l-0.5-0.1c0-0.1,0-0.4-0.1-0.8c0-0.4-0.1-1-0.2-1.7l0-0.1c0-0.2-0.1-0.3-0.2-0.4
		c-0.1-0.1-0.2-0.1-0.3-0.1l-0.1,0c-0.1,0-0.2,0.1-0.3,0.2c0,0.1-0.1,0.2,0,0.4l0.2,1.5c0,0.3,0.1,0.5,0,0.8c0,0.2-0.1,0.4-0.2,0.5
		c-0.1,0.1-0.3,0.2-0.5,0.2l-0.1,0c-0.3,0-0.5,0-0.7-0.2c-0.2-0.2-0.3-0.4-0.4-0.9L438.2,42z"/>
	<path class="st8" d="M438.6,47.5c0-0.3,0.1-0.6,0.1-0.8c0.1-0.2,0.2-0.3,0.4-0.4c0.2-0.1,0.3-0.1,0.6-0.1l1.3,0.1
		c0.2,0,0.4,0.1,0.5,0.1c0.1,0.1,0.3,0.2,0.3,0.4c0.1,0.2,0.1,0.4,0.1,0.8l-0.1,2c0,0.3-0.1,0.6-0.1,0.8c-0.1,0.2-0.2,0.3-0.4,0.4
		c-0.2,0.1-0.3,0.1-0.6,0.1l-0.7,0c-0.3,0-0.5-0.1-0.7-0.2c-0.2-0.1-0.3-0.2-0.4-0.5c-0.1-0.1-0.1-0.4-0.2-0.7
		c0,0.2-0.1,0.4-0.1,0.5c0,0.2-0.1,0.3-0.1,0.4c0,0.2-0.1,0.3-0.1,0.5c0,0.2,0,0.3-0.1,0.4c0,0.1,0,0.2,0,0.2l-0.5-0.2
		c0,0,0-0.1,0-0.1c0-0.1,0-0.2,0-0.3c0-0.2,0-0.4,0.1-0.6c0-0.2,0.1-0.4,0.1-0.6c0.1-0.2,0.1-0.4,0.2-0.5c0.1-0.2,0.1-0.3,0.2-0.5
		c0-0.2,0.1-0.4,0.1-0.6C438.6,48,438.6,47.8,438.6,47.5z M439.2,47.7l0,0.9c0,0.3,0,0.6,0.1,0.8c0.1,0.2,0.1,0.3,0.3,0.4
		c0.1,0.1,0.3,0.1,0.6,0.2l0.8,0c0.1,0,0.2,0,0.3-0.1c0.1-0.1,0.1-0.2,0.1-0.4l0.1-1.6c0-0.2,0-0.3-0.1-0.4
		c-0.1-0.1-0.2-0.2-0.3-0.2l-1.4-0.1c-0.1,0-0.2,0-0.3,0.1C439.2,47.4,439.2,47.5,439.2,47.7z"/>
	<path class="st8" d="M438.1,52.6c0.1-0.4,0.2-0.7,0.5-0.8c0.2-0.1,0.5-0.2,0.8-0.1l2.3,0.5l-0.2,0.9l-2.3-0.5c-0.2,0-0.3,0-0.4,0.1
		c-0.1,0.1-0.1,0.2-0.2,0.4l-0.3,1.4c0,0.1,0,0.3,0,0.4c0,0.1,0.1,0.2,0.3,0.2l2.3,0.5l-0.2,0.9l-2.3-0.5c-0.2,0-0.4-0.1-0.5-0.2
		c-0.1-0.1-0.2-0.2-0.3-0.4c0-0.2,0-0.4,0-0.7L438.1,52.6z"/>
	<path class="st8" d="M437.4,56.2l2.3,3.1l-0.5,1.3l-3.8,0.6l0.4-1l0.8-0.1l0.9-2.3l-0.5-0.7L437.4,56.2z M437.9,58.2l-0.7,1.8
		l1.8-0.3l0-0.1L437.9,58.2z"/>
	<path class="st8" d="M435.1,61.6l2.4,1.5l0.4,0.2l-1.7,2.7c-0.2,0.3-0.4,0.5-0.5,0.7s-0.3,0.2-0.5,0.2c-0.2,0-0.3-0.1-0.5-0.2
		l-1.1-0.7c-0.2-0.1-0.3-0.2-0.4-0.4c-0.1-0.1-0.1-0.3-0.1-0.5c0-0.2,0.2-0.5,0.4-0.8L435.1,61.6z M435.1,62.7l-1.1,1.9
		c-0.2,0.3-0.2,0.5,0.1,0.7l1.2,0.8c0.1,0.1,0.2,0.1,0.3,0c0.1,0,0.2-0.1,0.3-0.3l1.1-1.9L435.1,62.7z"/>
	<path class="st8" d="M431.6,66.9l0.1,0.4l-0.1,2l2.4-0.2l-0.7,0.8l-1.8,0.2l-0.1,0.1l0,1.8l-0.7,0.8l-0.1-0.4l0.1-2l-2.4,0.2
		l0.7-0.8l1.8-0.2l0.1-0.1l0-1.8L431.6,66.9z"/>
	<path class="st8" d="M425.9,72.7c0.3-0.2,0.5-0.3,0.7-0.4c0.2-0.1,0.4-0.1,0.5,0c0.1,0.1,0.3,0.2,0.4,0.4l0.8,1
		c0.2,0.3,0.3,0.6,0.3,0.8c-0.1,0.3-0.3,0.5-0.6,0.8l-1.6,1.3c-0.3,0.2-0.5,0.3-0.6,0.4c-0.1,0.1-0.2,0.1-0.3,0.1l-0.2-0.5
		c0.1,0,0.3-0.2,0.6-0.4c0.3-0.2,0.8-0.6,1.3-1l0.3-0.2c0.3-0.2,0.4-0.5,0.2-0.7l-0.9-1.1c-0.1-0.1-0.2-0.2-0.3-0.2
		c-0.1,0-0.2,0.1-0.4,0.2l-0.2,0.2c-0.3,0.3-0.6,0.5-0.9,0.7c-0.2,0.2-0.4,0.4-0.6,0.5l0.5,0.6l0.3-0.3l0.7-0.6l0.3,0.4l-1.8,1.4
		l-1-1.2l-0.1,0c0,0,0-0.1,0.2-0.2c0.1-0.1,0.4-0.4,0.8-0.6L425.9,72.7z"/>
	<path class="st8" d="M423,75l0,3.9l-1.2,0.7l-3.5-1.8l0.9-0.6l0.7,0.4l2.1-1.3l0-0.8L423,75z M422.2,76.9l-1.7,1l1.6,0.8l0.1,0
		L422.2,76.9z"/>
	<path class="st8" d="M418,78l1.2,2.6l0.3,0.4l-1,0.4l-2.4-1.4l-0.5,2.7l-0.9,0.4l-1.4-3l0.8-0.4l0.9,1.9l0.1,0l0-0.6l0.3-1.5
		l0.8-0.3l1.3,0.8l0.5,0.3l0.1,0l-0.9-1.9L418,78z"/>
	<path class="st8" d="M366,76.1c0.3,0.2,0.5,0.4,0.6,0.5c0.1,0.2,0.2,0.3,0.1,0.5c0,0.2-0.1,0.3-0.2,0.5l-0.7,1
		c-0.2,0.3-0.4,0.5-0.7,0.5c-0.3,0-0.6-0.1-0.9-0.3l-1.7-1.2c-0.3-0.2-0.5-0.3-0.6-0.4c-0.1-0.1-0.2-0.2-0.2-0.2l0.4-0.3
		c0.1,0.1,0.2,0.2,0.6,0.4s0.8,0.5,1.4,1l0.3,0.2c0.3,0.2,0.5,0.2,0.7,0l0.8-1.2c0.1-0.1,0.1-0.2,0.1-0.3c0-0.1-0.1-0.2-0.3-0.3
		l-0.2-0.2c-0.4-0.3-0.7-0.5-0.9-0.6c-0.3-0.2-0.5-0.3-0.6-0.4l-0.4,0.6l0.3,0.2l0.8,0.5l-0.3,0.5l-1.9-1.3l0.9-1.3l0-0.1
		c0,0,0.1,0,0.3,0.1c0.2,0.1,0.5,0.3,0.8,0.5L366,76.1z"/>
	<path class="st8" d="M363,74l-3.7,1.1l-1-0.9l0.7-3.8l0.8,0.7l-0.2,0.8l1.9,1.6l0.8-0.2L363,74z M360.9,73.8l-1.5-1.3l-0.3,1.8
		l0.1,0L360.9,73.8z"/>
	<path class="st8" d="M358.6,70.1l-2.2,1.8l-0.3,0.3l-0.7-0.8l0.7-2.6l-2.8,0.2l-0.6-0.7l2.5-2.1l0.6,0.7l-1.6,1.3l0,0.1l0.5-0.1
		l1.5-0.1l0.5,0.6l-0.4,1.5l-0.2,0.5l0,0.1l1.6-1.3L358.6,70.1z"/>
	<path class="st8" d="M354.8,65.4l-2.8,1.7l-2.2-3.7l0.5-0.3l1.7,2.9l0.7-0.4l-1.3-2.2l0.5-0.3l1.3,2.2l0.8-0.5l-1.7-3l0.3-0.5
		c0,0,0.1,0,0.1,0.1c0.1,0.1,0.2,0.3,0.3,0.5L354.8,65.4z"/>
	<path class="st8" d="M350.7,56.8c0.1,0.2,0.1,0.4,0.1,0.5c0,0.2,0,0.4-0.1,0.7l-0.2,0.6c-0.1,0.3-0.1,0.5-0.1,0.8
		c0,0.3,0.1,0.6,0.2,0.9l0.1,0.2l1.2-0.4l0.3,0.9l-2.7,1l-0.4,0.2l-1.1-2.9c-0.1-0.3-0.2-0.5-0.2-0.7c0-0.2,0-0.3,0.1-0.4
		c0.1-0.1,0.2-0.2,0.3-0.3c0.1-0.1,0.2-0.1,0.3-0.2l0.1,0c0.1,0,0.2,0,0.3-0.1c0.1,0,0.2,0,0.3,0c0.1,0,0.2,0.1,0.4,0.2
		s0.2,0.3,0.3,0.5c0-0.1,0-0.2,0-0.3c0-0.1,0-0.2,0.1-0.3c0-0.1,0-0.2,0.1-0.3c0-0.1,0-0.2,0-0.2c0-0.2,0-0.3,0-0.5
		c0-0.1,0-0.2-0.1-0.3c0-0.1,0-0.1,0-0.1l0.5,0c0,0,0.1,0.1,0.1,0.2C350.6,56.5,350.6,56.6,350.7,56.8z M349.8,59.7
		c-0.1-0.2-0.1-0.3-0.2-0.4c-0.1-0.1-0.1-0.2-0.2-0.3c-0.1-0.2-0.2-0.3-0.3-0.3c-0.1,0-0.2-0.1-0.3,0l-0.1,0c-0.1,0-0.2,0.1-0.2,0.2
		c0,0.1,0,0.3,0,0.4l0.7,1.8l0.9-0.3c-0.1-0.2-0.1-0.4-0.2-0.5C350,60,349.9,59.8,349.8,59.7z"/>
	<path class="st8" d="M349.9,53.5c0,0.3,0.1,0.5,0.1,0.7c0,0.1,0,0.2,0,0.2l-0.5-0.2c0-0.1,0-0.4-0.1-0.8c0-0.4-0.1-1-0.2-1.7l0-0.1
		c0-0.2-0.1-0.3-0.1-0.4c-0.1-0.1-0.2-0.1-0.3-0.1l-0.1,0c-0.1,0-0.2,0.1-0.3,0.1c0,0.1-0.1,0.2,0,0.5l0.2,1.6c0.1,0.5,0,0.8-0.1,1
		c-0.1,0.2-0.3,0.4-0.6,0.4l-0.1,0c-0.2,0-0.3,0-0.5-0.1c-0.1-0.1-0.3-0.2-0.4-0.3c-0.1-0.2-0.2-0.4-0.2-0.7l-0.3-1.9
		c0-0.3-0.1-0.6-0.1-0.8c0-0.2,0-0.3,0-0.3l0.5,0.1c0,0.1,0,0.4,0.1,0.8c0,0.4,0.1,1,0.2,1.7l0,0.1c0,0.2,0.1,0.3,0.2,0.4
		c0.1,0.1,0.2,0.1,0.3,0.1l0.1,0c0.1,0,0.2-0.1,0.3-0.2c0-0.1,0.1-0.2,0-0.4l-0.2-1.5c0-0.3-0.1-0.5,0-0.8c0-0.2,0.1-0.4,0.2-0.5
		c0.1-0.1,0.3-0.2,0.5-0.2l0.1,0c0.3,0,0.5,0,0.7,0.2c0.2,0.2,0.3,0.4,0.4,0.9L349.9,53.5z"/>
	<path class="st8" d="M349.4,48c0,0.3-0.1,0.6-0.1,0.8c-0.1,0.2-0.2,0.3-0.4,0.4c-0.2,0.1-0.3,0.1-0.6,0.1l-1.3-0.1
		c-0.2,0-0.4-0.1-0.5-0.1c-0.1-0.1-0.3-0.2-0.3-0.4c-0.1-0.2-0.1-0.4-0.1-0.8l0.1-2c0-0.3,0.1-0.6,0.1-0.8c0.1-0.2,0.2-0.3,0.4-0.4
		c0.2-0.1,0.3-0.1,0.6-0.1l0.7,0c0.3,0,0.5,0.1,0.7,0.2c0.2,0.1,0.3,0.2,0.4,0.5c0.1,0.1,0.1,0.4,0.2,0.7c0-0.2,0.1-0.4,0.1-0.5
		c0-0.2,0.1-0.3,0.1-0.4c0-0.2,0.1-0.3,0.1-0.5c0-0.2,0-0.3,0.1-0.4c0-0.1,0-0.2,0-0.2l0.5,0.2c0,0,0,0.1,0,0.1c0,0.1,0,0.2,0,0.3
		c0,0.2,0,0.4-0.1,0.6c0,0.2-0.1,0.4-0.1,0.6c-0.1,0.2-0.1,0.4-0.2,0.5c-0.1,0.2-0.1,0.3-0.2,0.5c0,0.2-0.1,0.4-0.1,0.6
		C349.4,47.4,349.4,47.7,349.4,48z M348.9,47.8l0-0.9c0-0.3,0-0.6-0.1-0.8c-0.1-0.2-0.1-0.3-0.3-0.4c-0.1-0.1-0.3-0.1-0.6-0.2
		l-0.8,0c-0.1,0-0.2,0-0.3,0.1c-0.1,0.1-0.1,0.2-0.1,0.4l-0.1,1.6c0,0.2,0,0.3,0.1,0.4c0.1,0.1,0.2,0.2,0.3,0.2l1.4,0.1
		c0.1,0,0.2,0,0.3-0.1C348.8,48.1,348.9,48,348.9,47.8z"/>
	<path class="st8" d="M349.9,42.8c-0.1,0.4-0.2,0.7-0.5,0.8c-0.2,0.1-0.5,0.2-0.8,0.1l-2.3-0.5l0.2-0.9l2.3,0.5c0.2,0,0.3,0,0.4-0.1
		c0.1-0.1,0.1-0.2,0.2-0.4l0.3-1.4c0-0.1,0-0.3,0-0.4c0-0.1-0.1-0.2-0.3-0.2l-2.3-0.5l0.2-0.9l2.3,0.5c0.2,0,0.4,0.1,0.5,0.2
		c0.1,0.1,0.2,0.2,0.3,0.4c0,0.2,0,0.4,0,0.7L349.9,42.8z"/>
	<path class="st8" d="M350.6,39.3l-2.3-3.1l0.5-1.3l3.8-0.6l-0.4,1l-0.8,0.1l-0.9,2.3l0.5,0.7L350.6,39.3z M350.1,37.3l0.7-1.8
		l-1.8,0.3l0,0.1L350.1,37.3z"/>
	<path class="st8" d="M352.9,33.9l-2.4-1.5l-0.4-0.2l1.7-2.7c0.2-0.3,0.4-0.5,0.5-0.7c0.2-0.1,0.3-0.2,0.5-0.2
		c0.2,0,0.3,0.1,0.5,0.2l1.1,0.7c0.2,0.1,0.3,0.2,0.4,0.4c0.1,0.1,0.1,0.3,0.1,0.5c0,0.2-0.2,0.5-0.4,0.8L352.9,33.9z M353,32.9
		l1.1-1.9c0.2-0.3,0.2-0.5-0.1-0.7l-1.2-0.7c-0.1-0.1-0.2-0.1-0.3,0s-0.2,0.1-0.3,0.3l-1.1,1.9L353,32.9z"/>
	<path class="st8" d="M356.4,28.6l-0.1-0.4l0.1-2l-2.4,0.2l0.7-0.8l1.8-0.2l0.1-0.1l0-1.8l0.7-0.8l0.1,0.4l-0.1,2l2.4-0.2l-0.7,0.8
		l-1.8,0.2l-0.1,0.1l0,1.8L356.4,28.6z"/>
</g>
<path class="st1" d="M453.2,110.6c0.3-1,0.4-2.1,0.2-3.1c-0.4-2.6-2.1-4.5-3.5-5.5c-0.8-0.7-5.4-4.3-10-5.8
	c-3.7-1.3-6.3-0.9-8.1-0.3c-3.7-0.2-6.3-1.3-7-1.6c-1.3-0.8-6.7-4.2-9.3-5.6c-0.4-0.5-0.9-1.6-1.4-2.8c0.2-0.5,0.2-0.9,0.3-1.3
	c0.4-3.4-1.9-5.5-5.4-8.7c-2.8-2.5-5.5-3.7-8.3-3.5c-0.6,0-1.1,0.1-1.7,0.3c-5.9-1.7-10.9-1.8-21.1,0.9c-6.1,1.6-13.4,6.2-21.6,13.7
	c-5,4.6-9.6,10.6-12.6,14.9l-0.2,0.3c-1.3,2.3-5.7,10-5.7,15.2c0,0,0,0,0,0c-0.4,3.3,1.7,6.2,1.7,6.2c1.9,3.2,5,5.3,7.2,6.2
	c6.7,2.8,14.4-1.3,20.1-5.6c4.2,3.8,10.4,6.1,15.9,5.6l0.2,2.4c0.2,3,1.3,5.7,3.1,7.9c1.8,2.2,4.1,3.6,6.5,4
	c0.4,0.1,0.8,0.5,1.1,0.9l-1.6,14l0,0.3c-0.1,1.9-0.3,11.9,6,17.3c2.4,2.1,5.5,3.2,9,3.2c1.2,0,2.5-0.1,3.8-0.4
	c15.4-3.1,24.3-21.1,27.2-27l0.4-0.7c1.5-2.9,2.9-4.8,3.2-5.3c6.4-6.3,10.9-15.3,11.8-17l0.2-0.4l0.1-0.3
	C454.2,127.1,456.6,118.8,453.2,110.6z"/>
<g>
	<path class="st9" d="M448,111l-0.3-0.5c0-0.1-4.2-8.1-14.6-9.5l-0.7-0.1l0.4-0.5c0.1-0.1,1.4-1.7,5.7-0.2c4.1,1.4,8.6,5,8.8,5.2
		c0,0,1.6,1,1.8,2.5c0.1,0.9-0.2,1.8-0.9,2.6L448,111z M434.5,100.4c8.4,1.6,12.6,7.4,13.7,9.2c0.3-0.5,0.5-1,0.4-1.5
		c-0.2-1.2-1.5-2-1.5-2c-0.1-0.1-4.6-3.7-8.6-5.1C436.5,100.2,435.2,100.2,434.5,100.4z"/>
	<path class="st9" d="M408.2,85.1l-0.2-0.3c0-0.1-3.4-5.5-8.8-7.1l-0.6-0.2l0.4-0.5c0,0,0.6-0.7,1.8-0.8c1.4-0.1,3.1,0.7,4.9,2.4
		c3,2.7,4.1,3.9,4,4.8c-0.1,0.6-0.6,1-1.2,1.3L408.2,85.1z M400.2,77.2c4.6,1.6,7.5,5.6,8.3,6.8c0.3-0.2,0.5-0.4,0.5-0.6
		c0.1-0.7-1.4-2.1-3.8-4.2c-2.1-1.9-3.5-2.2-4.3-2.2C400.6,77.1,400.3,77.2,400.2,77.2z"/>
	<path class="st9" d="M341.3,117.6c0-4.4,5.2-13.1,5.2-13.1c3.4-4.9,7.7-10.3,12.1-14.3c5.3-4.9,13.1-11.1,19.9-12.9
		c11.6-3,15.3-2.1,21.5-0.2c6.1,2,8.8,7.2,8.9,7.4c0.6,1.8,2.5,6.6,4.1,7.4c2.1,1.1,9.5,5.7,9.8,5.9c0,0,4,2.1,10.1,2.2
		c0.1,0,9.8,1.2,15.2,9.2c5.4,8,1.8,18.1,1.8,18.2c-0.1,0.1-4.7,9.9-11.2,16.2l0,0c0,0-1.9,2.3-4,6.4l-0.4,0.8
		c-2.7,5.5-10.9,22.2-24.3,24.9c-1,0.2-2,0.3-2.9,0.3c-2.4,0-4.4-0.7-6.1-2.1c-4.9-4.3-4.5-13.4-4.4-13.8l1.8-15.7
		c-0.2-0.6-1.8-4-5.2-4.6c-1.4-0.3-2.7-1.1-3.8-2.4c-1.2-1.5-1.9-3.3-2.1-5.4l-0.2-2.6c-0.1-0.9-0.1-1.9-0.1-2.8
		c0-0.4-0.1-0.8-0.4-1c-0.4-0.4-1.4-0.7-3.7-0.4c-5.4,0.9-12.2-2-15.4-6.5c0,0-0.1-0.2-0.4-0.3c-0.3-0.1-1.1,0-2.6,1.2
		c-3.7,3-11.4,8.4-16.9,6C347.5,125.9,341.3,123.3,341.3,117.6z M363.8,119.2c1.3-1.1,2.4-1.5,3.3-1.4c0.6,0.1,0.8,0.6,0.9,0.6
		c3,4.3,9.5,7,14.6,6.2c0.7-0.1,1.3-0.2,1.8-0.2c1.1,0,2,0.2,2.5,0.7c0.6,0.5,0.7,1.2,0.7,1.6c0,0.9,0,1.8,0.1,2.7l0.2,2.6
		c0.2,1.9,0.8,3.6,1.9,5c1,1.2,2.1,1.9,3.4,2.2c4.1,0.7,5.7,5,5.8,5.2l0,0.1l-1.8,15.8c0,0.1-0.5,9.1,4.2,13.2
		c2.1,1.8,4.9,2.3,8.3,1.6c13.1-2.6,21.1-19.1,23.8-24.5l0.4-0.8c2.1-4.2,4-6.5,4.1-6.6c6.4-6.3,11.1-15.9,11.1-16
		c0-0.1,3.4-9.8-1.7-17.5c-5.1-7.7-14.5-8.8-14.6-8.9c-6.2-0.2-10.2-2.3-10.4-2.3c-0.1-0.1-7.6-4.8-9.7-5.8
		c-2.2-1.1-4.4-7.6-4.4-7.8l0,0c0,0-2.6-5.1-8.4-7c-6-1.9-9.6-2.8-21,0.2c-6.6,1.7-14.3,7.9-19.6,12.7c-4.3,3.9-8.2,8.7-11.4,13.8
		c0,0-6.5,10.7-5.4,14.1C343.5,122.5,348.5,131.6,363.8,119.2z"/>
	<path class="st9" d="M383.4,109.6c-2.1,0-4.6-0.4-7.5-1.4c-3.2-1.1-5.3-2.9-6-5.2c-0.8-2.3,0-4.7,0.9-6.2c0.5-0.8,1.3-1.6,2.1-2.3
		c0.5-0.4,0.7-0.6,0.9-0.8c-2.2-1.1-3.6-3.1-3.8-5.6c-0.2-3,1.4-6.1,4.1-7.8c3.2-2,6-3.2,8.2-3.6c0.5-0.1,9.4-2.5,16.1,2.9l0.2,0.2
		c2,1.7,3,4.1,2.9,6.7c-0.2,2.6-1.5,4.9-3.7,6.3c-1.5,1-4.9,2.3-7.2,2.7c1.6,1.2,4.8,4,3.3,7.5C392.6,105.7,389.8,109.6,383.4,109.6
		z M387.6,76.7c-2.9,0-5,0.6-5.1,0.6c0,0,0,0,0,0c-2.1,0.4-4.9,1.6-8,3.5c-2.5,1.6-3.9,4.3-3.7,7.1c0.2,2.4,1.6,4.3,3.8,5.2
		c0.1,0.1,0.2,0.2,0.2,0.3c0,0.2,0.1,0.3-1.4,1.6c-0.8,0.7-1.5,1.4-2,2.2c-0.9,1.3-1.5,3.4-0.8,5.5c0.7,2.1,2.6,3.6,5.6,4.7
		c11.2,3.9,15.4-1.3,16.9-4.8c1.8-4-3.8-7.1-3.8-7.1c-0.2-0.1-0.2-0.3-0.2-0.4c0-0.2,0.2-0.3,0.4-0.3c1.9-0.1,6.2-1.7,7.9-2.7
		c2-1.3,3.2-3.4,3.4-5.7c0.2-2.3-0.8-4.5-2.6-6.1l-0.2-0.2C394.6,77.4,390.7,76.7,387.6,76.7z"/>
	<path class="st9" d="M382.7,97.4c-3.9,0-7-1.6-7-3.5s3.1-3.5,7-3.5c3.9,0,7,1.6,7,3.5S386.6,97.4,382.7,97.4z M382.7,91.1
		c-3.4,0-6.2,1.3-6.2,2.8c0,1.5,2.8,2.8,6.2,2.8c3.4,0,6.2-1.3,6.2-2.8C388.9,92.4,386.1,91.1,382.7,91.1z"/>
	<path class="st9" d="M403.7,113.2c-4.5,0-8.1-1.7-8.1-3.8c0-2.1,3.5-3.8,8.1-3.8c4.5,0,8.1,1.7,8.1,3.8
		C411.7,111.5,408.2,113.2,403.7,113.2z M403.7,106.3c-4.4,0-7.3,1.6-7.3,3c0,1.5,2.9,3,7.3,3s7.3-1.6,7.3-3
		C411,107.9,408,106.3,403.7,106.3z"/>
	<path class="st9" d="M382.9,105.3c-2.5,0-5-0.3-6-0.8c-0.8-0.4-2.7-1.5-3-3.2c-0.2-1.2,0.5-2.4,1.9-3.5c0.1-0.1,0.2-0.1,0.3-0.1
		c0.1,0,0.2,0.1,0.3,0.2c0.1,0.1,1.8,2.6,5.9,2.3c4.2-0.3,5.9-1.9,5.9-1.9c0.1-0.1,0.4-0.1,0.5,0c0,0,2.5,2.5,1.1,5.3
		C389.1,104.8,386,105.3,382.9,105.3z M376,98.6c-1,0.9-1.4,1.8-1.3,2.6c0.2,1.4,2,2.4,2.5,2.6c2.4,1.1,10.9,1.1,11.9-0.7
		c1-1.8-0.2-3.5-0.7-4.1c-0.7,0.5-2.6,1.6-6.1,1.9C378.7,101.1,376.7,99.4,376,98.6z"/>
	<path class="st9" d="M431.1,129.4c-9,0-16.5-6.8-18.1-8.4c-4.7,6.2-12.6,5.2-12.7,5.2c0,0,0,0,0,0c-0.3,0-5-0.1-8.7-5
		c-0.9-1.2-1.2-2.6-1-3.9c0.6-3.4,4.7-6,4.9-6.1c0.1-0.1,0.2-0.1,0.4,0c0.1,0.1,0.2,0.2,0.2,0.3c0.3,2.9,1.3,3.4,1.3,3.4
		c3.9,1.4,8.2,2.3,13.2-0.8c0.4-0.2,1-0.9,1.9-1.8c2.2-2.3,5.9-6.2,10.8-8.1c5.4-2.1,11.7-2,16.4,0.1c2.9,1.4,5,3.4,5.9,6
		c2.9,8.1,0.2,14.2-7.6,17.7C435.6,129,433.3,129.4,431.1,129.4z M412.9,120c0.1,0,0.2,0,0.3,0.1c0.1,0.1,12.1,12.5,24.4,7.1
		c7.4-3.2,9.9-9,7.2-16.7c-0.8-2.4-2.7-4.3-5.5-5.5c-4.5-2-10.6-2.1-15.8-0.1c-4.7,1.8-8.3,5.6-10.5,7.9c-0.9,1-1.6,1.6-2,1.9
		c-5.3,3.2-9.8,2.3-13.9,0.8c-0.2-0.1-1.3-0.7-1.7-3.4c-1.1,0.8-3.6,2.8-4.1,5.3c-0.2,1.2,0.1,2.3,0.8,3.3c3.5,4.7,8.1,4.7,8.1,4.7
		c0.1,0,7.8,1,12.3-5.2C412.6,120.1,412.7,120.1,412.9,120C412.8,120,412.9,120,412.9,120z"/>
	<path class="st9" d="M398.9,144.8l-0.7-0.3c1-2.8,3.2-10.5,1-12.1c-2.9-2.1-6.9-5.5-10.2-8.2c-2-1.7-3.7-3.1-4.7-3.9
		c-0.6-0.5-1.4-0.6-2.1-0.4c-3.2,0.8-11,1.7-14.7-6.1c-2.6-0.6-8.7,3.9-13.6,8.4c-2.1,1.9-7.9,1.6-9.3,1.5l0.1-0.8
		c1.9,0.2,7.2,0.1,8.7-1.3c3.2-2.9,11.2-9.7,14.5-8.5c0.1,0,0.2,0.1,0.2,0.2c3.5,7.5,10.9,6.6,13.9,5.8c1-0.2,2,0,2.8,0.6
		c1.1,0.8,2.8,2.3,4.8,3.9c3.2,2.7,7.3,6.1,10.1,8.2C402.7,134.1,399.3,143.7,398.9,144.8z"/>
	<path class="st9" d="M400.1,141l-0.8,0c0-0.1,0.1-2.6-2.8-4.4c-1-0.6-2.2-1.1-3.4-1.6c-2.5-1-5.1-2-6-4.5l0.7-0.3
		c0.8,2.2,3.1,3.1,5.6,4.1c1.2,0.5,2.5,1,3.6,1.6C400.2,138,400.1,140.9,400.1,141z"/>
	<path class="st9" d="M385.3,89.7c-1.9,0-4-0.4-5.8-1.7c-1.2-0.9-1.9-2.3-1.6-3.6c0.2-1.3,1.1-3.1,4.1-4.2c0,0,0,0,0,0
		c0.3-0.1,8-2.2,11.4,1.4c0.9,1,1.3,2,1.1,3.1c-0.4,2.4-3.4,3.9-3.6,4C390.6,88.7,388.2,89.7,385.3,89.7z M382.2,80.9
		c-2.1,0.8-3.3,2-3.6,3.6c-0.2,1.1,0.3,2.2,1.3,2.9c4.3,3,10.5,0.6,10.6,0.6l0,0c0,0,2.8-1.5,3.1-3.4c0.1-0.8-0.2-1.6-0.9-2.4
		C389.7,78.8,382.5,80.8,382.2,80.9z"/>
	<path class="st9" d="M378.3,85.3l-0.2-0.7c5-1.2,15.5-0.3,15.9-0.3l-0.1,0.8C393.9,85.1,383.2,84.2,378.3,85.3z"/>
	<path class="st9" d="M385.1,89.3c-0.6-6.2,2.6-9.7,2.8-9.9l0.6,0.5c0,0-3.1,3.4-2.6,9.3L385.1,89.3z"/>
	<path class="st9" d="M407.2,95.8c-0.1,0-0.2,0-0.3-0.1l-3.6-3.2c-0.1-0.1-0.1-0.2-0.1-0.4c0-0.1,0.1-0.2,0.3-0.3l2.7-0.9
		c0.1,0,0.2,0,0.3,0.1l4.2,3.3c0.1,0.1,0.2,0.2,0.1,0.4c0,0.1-0.1,0.3-0.3,0.3L407.2,95.8C407.3,95.8,407.2,95.8,407.2,95.8z
		 M404.3,92.4l3,2.6l2.4-0.6l-3.5-2.7L404.3,92.4z"/>
	<path class="st9" d="M419.3,103.8c-0.1,0-0.2,0-0.2-0.1l-4-2.9c-0.1-0.1-0.2-0.2-0.2-0.3c0-0.1,0-0.2,0.1-0.3l2.2-1.9
		c0.1-0.1,0.3-0.1,0.5,0l4.6,3.2c0.1,0.1,0.2,0.2,0.2,0.3c0,0.1-0.1,0.2-0.2,0.3l-2.8,1.6C419.5,103.8,419.4,103.8,419.3,103.8z
		 M416,100.5l3.4,2.5l2.1-1.2l-3.9-2.7L416,100.5z"/>
	<path class="st9" d="M423.1,111.9c-2.2,0-4-1.1-4-2.4s1.8-2.4,4-2.4c2.2,0,4,1.1,4,2.4S425.3,111.9,423.1,111.9z M423.1,107.8
		c-1.9,0-3.2,0.9-3.2,1.7s1.3,1.7,3.2,1.7c1.9,0,3.2-0.9,3.2-1.7S425,107.8,423.1,107.8z"/>
	<path class="st9" d="M423.2,114.9c-0.8,0-1.5-0.2-2.2-0.5c-0.1-0.1-0.3-0.1-0.4-0.2c-0.9-0.5-1.4-1.4-1.4-2.4l0-2.2
		c0-0.1,0-0.2,0-0.2c0-0.2,0.2-0.4,0.4-0.3c0.2,0,0.4,0.2,0.4,0.4l0,0.2c0,0.2,0.1,0.5,0.3,0.8c0.5,0.5,1.3,0.8,2.6,0.8
		c3.1,0,3.5-1.5,3.5-1.6c0-0.2,0.2-0.3,0.4-0.3c0.2,0,0.3,0.2,0.3,0.4l0,1.9c0,1.2-0.7,2.3-1.7,2.8
		C424.7,114.8,423.9,114.9,423.2,114.9z M419.9,111.1l0,0.7c0,0.7,0.4,1.4,1,1.7c0.1,0.1,0.3,0.1,0.4,0.2c1.2,0.6,2.6,0.6,3.8,0
		c0.8-0.4,1.3-1.2,1.3-2.2l0-0.7c-0.6,0.5-1.7,1-3.5,1C421.5,112,420.5,111.7,419.9,111.1z"/>
	<path class="st9" d="M436.3,112.2c-2.3,0-4-0.9-4-2.1c0-1.2,1.7-2.1,4-2.1c2.3,0,4,0.9,4,2.1C440.3,111.3,438.6,112.2,436.3,112.2z
		 M436.3,108.8c-1.9,0-3.2,0.7-3.2,1.3c0,0.6,1.4,1.3,3.2,1.3c1.9,0,3.2-0.7,3.2-1.3C439.5,109.5,438.1,108.8,436.3,108.8z"/>
	<path class="st9" d="M436.4,114.7c-0.8,0-1.5-0.1-2.2-0.4c-0.3-0.1-0.6-0.2-0.9-0.4c-0.6-0.3-1-0.9-1-1.6l0-2c0-0.1,0-0.2,0-0.2
		c0-0.2,0.2-0.3,0.4-0.3c0.2,0,0.4,0.2,0.4,0.4l0,0.1c0,0.1,0.1,0.3,0.2,0.4c0.3,0.3,1,0.7,2.7,0.7c3.1,0,3.5-1.3,3.5-1.3
		c0.1-0.2,0.2-0.3,0.4-0.3c0.2,0,0.3,0.2,0.3,0.4l0,1.6c0,1-0.5,1.8-1.4,2.3c-0.1,0.1-0.2,0.1-0.4,0.2
		C437.9,114.5,437.1,114.7,436.4,114.7z M433,111.5l0,0.7c0,0.4,0.2,0.8,0.6,0.9c0.3,0.1,0.6,0.3,0.8,0.4c1.2,0.5,2.7,0.5,3.8,0
		c0.1,0,0.2-0.1,0.3-0.2c0.6-0.3,0.9-0.9,0.9-1.6l0-0.5c-0.6,0.5-1.7,0.9-3.5,0.9C434.7,112.2,433.7,112,433,111.5z"/>
	<path class="st9" d="M436.7,121.5c-2.2,0-4.5-0.7-4.5-2.1c0-1.3,2.3-2.1,4.5-2.1s4.5,0.7,4.5,2.1
		C441.2,120.8,438.9,121.5,436.7,121.5z M436.7,118.1c-2.3,0-3.8,0.8-3.8,1.3c0,0.5,1.5,1.3,3.8,1.3c2.3,0,3.8-0.8,3.8-1.3
		C440.5,118.9,439,118.1,436.7,118.1z"/>
	<path class="st9" d="M436.8,124.1c-0.9,0-1.7-0.1-2.5-0.4c-0.4-0.1-0.8-0.3-1.2-0.5c-0.5-0.2-0.9-0.8-0.9-1.4l0-2.2
		c0-0.1,0-0.2,0-0.2c0-0.2,0.2-0.3,0.4-0.3c0.2,0,0.3,0.2,0.3,0.4l0,0.1c0,0.1,0.1,0.3,0.2,0.4c0.3,0.3,1,0.8,3.2,0.8
		c3.6,0,4.1-1.4,4.1-1.4c0.1-0.2,0.2-0.3,0.4-0.3c0.2,0,0.3,0.2,0.3,0.4l0,1.8c0,0.9-0.5,1.6-1.2,2c-0.2,0.1-0.5,0.2-0.8,0.3
		C438.5,123.9,437.7,124.1,436.8,124.1z M432.9,120.8l0,1c0,0.3,0.2,0.6,0.4,0.7c0.4,0.2,0.8,0.3,1.2,0.5c1.5,0.5,3.1,0.5,4.4,0
		c0.3-0.1,0.5-0.2,0.7-0.3c0.5-0.3,0.8-0.8,0.8-1.4l0-0.7c-0.6,0.5-1.9,1-4.1,1C434.8,121.6,433.6,121.3,432.9,120.8z"/>
	<path class="st9" d="M423.4,120.7c-2.4,0-4.3-1-4.3-2.3s1.9-2.3,4.3-2.3c2.4,0,4.3,1,4.3,2.3S425.8,120.7,423.4,120.7z
		 M423.4,116.9c-2.1,0-3.5,0.8-3.5,1.5c0,0.7,1.5,1.5,3.5,1.5c2.1,0,3.5-0.8,3.5-1.5C427,117.7,425.5,116.9,423.4,116.9z"/>
	<path class="st9" d="M423.6,123.5c-0.8,0-1.6-0.2-2.4-0.5c-0.2-0.1-0.5-0.2-0.7-0.3c-0.8-0.4-1.3-1.2-1.3-2.1l-0.1-2
		c0-0.1,0-0.2,0-0.2c0-0.2,0.2-0.3,0.4-0.3c0.2,0,0.4,0.2,0.4,0.4l0,0.1c0,0.1,0.1,0.3,0.3,0.6c0.3,0.4,1.1,0.8,3,0.8
		c3.4,0,3.9-1.5,3.9-1.5c0-0.2,0.2-0.3,0.4-0.3c0.2,0,0.3,0.2,0.3,0.4l0,2.2c0,0.7-0.3,1.4-0.9,1.8c-0.3,0.2-0.6,0.4-0.9,0.5
		C425.2,123.4,424.4,123.5,423.6,123.5z M419.9,119.9l0,0.7c0,0.6,0.3,1.2,0.8,1.4c0.2,0.1,0.5,0.2,0.7,0.3c1.4,0.5,2.9,0.6,4.1,0
		c0.3-0.1,0.5-0.3,0.8-0.4c0.4-0.3,0.6-0.7,0.6-1.2l0-1c-0.6,0.5-1.8,1-3.8,1C421.7,120.7,420.6,120.5,419.9,119.9z"/>
	<path class="st9" d="M403,122.5c-3.6,0-6.3-1.4-6.4-1.4c-0.5-0.2-2.4-1.6-2.4-3.4c0-1.2,0.8-2.3,2.4-3.2c0.1-0.1,0.3-0.1,0.4,0
		c0,0,1.9,1.5,5.8,1.7c3.5,0.2,6-1,6.1-1c0.2-0.1,0.4,0,0.5,0.1c0.1,0.1,1.5,2.1,0.9,4c-0.4,1.2-1.4,2.1-3.2,2.6
		C405.7,122.3,404.3,122.5,403,122.5z M396.7,115.2c-1.2,0.8-1.8,1.6-1.8,2.4c0,1.4,1.7,2.6,2,2.7c0,0,4.8,2.4,9.9,0.8
		c1.5-0.5,2.4-1.2,2.7-2.1c0.4-1.2-0.3-2.5-0.6-3.1c-0.8,0.3-3.1,1.1-6.1,1C399.3,116.7,397.4,115.6,396.7,115.2z"/>
	<path class="st9" d="M403.5,116.7c-0.1,0-0.2,0-0.3,0c-2.4,0-5.6-0.5-6.7-1.7c-1.8-2.1-0.9-5.6-0.8-5.7c0-0.2,0.2-0.3,0.4-0.3
		c0.2,0,0.3,0.1,0.4,0.3c0,0.1,0.7,3,7.2,3c0.1,0,0.2,0,0.3,0c6.5-0.1,7.2-3,7.2-3c0-0.2,0.2-0.3,0.4-0.3c0.2,0,0.3,0.2,0.4,0.3
		c0.3,4.1-0.9,5.4-1,5.4C409.1,116.5,405.1,116.7,403.5,116.7z M396.2,110.6c-0.1,1.1-0.1,2.8,0.9,3.9c0.7,0.8,3.2,1.4,6.1,1.4
		c3.3,0,6-0.6,7-1.7c0,0,0.8-0.9,0.8-3.5c-0.9,1-2.9,2.3-7.2,2.4c-0.1,0-0.2,0-0.3,0C398.9,113.1,397,111.7,396.2,110.6z"/>
	<path class="st9" d="M396.7,118.7c-0.2,0-0.3,0-0.4,0c-0.2,0-0.4-0.2-0.3-0.4c0-0.2,0.2-0.4,0.4-0.3c0,0,1.3,0.1,2-0.5
		c0.4-0.3,0.5-0.8,0.5-1.5c0-0.2,0.2-0.4,0.4-0.4c0.2,0,0.4,0.2,0.4,0.4c0,0.9-0.2,1.6-0.7,2.1C398.2,118.6,397.2,118.7,396.7,118.7
		z"/>
	<path class="st9" d="M407.5,119.2c-0.4,0-1.1-0.1-1.6-0.6c-0.5-0.5-0.8-1.2-0.8-2.2c0-0.2,0.2-0.4,0.4-0.4c0.2,0,0.4,0.2,0.4,0.4
		c0,0.8,0.2,1.3,0.5,1.6c0.5,0.5,1.3,0.4,1.3,0.4c0.2,0,0.4,0.1,0.4,0.3c0,0.2-0.1,0.4-0.3,0.4C407.8,119.2,407.7,119.2,407.5,119.2
		z"/>
	<path class="st9" d="M382,101c-2.3,0-4.3-0.8-5.5-1.7c-2-1.6-0.8-5.3-0.7-5.4c0.1-0.2,0.2-0.3,0.4-0.3c0.2,0,0.3,0.2,0.3,0.3
		c0,0.1,0.4,3.2,6.2,2.8c5.8-0.4,6.2-2.8,6.2-2.8c0-0.2,0.2-0.3,0.4-0.3c0,0,0,0,0,0c0.2,0,0.4,0.1,0.4,0.3c0.5,3.8-0.7,4.6-0.9,4.7
		C386.5,100.3,384.1,101,382,101z M376.2,95.2c-0.2,1.1-0.2,2.7,0.8,3.4c1.4,1.1,6.2,3.2,11.4-0.7c0,0,0.7-0.5,0.7-2.7
		c-0.8,0.9-2.5,2-6.3,2.3C378.6,97.7,376.9,96.3,376.2,95.2z"/>
	<path class="st9" d="M390.9,83.1l-0.8-0.1l0.1-1.1l-1.8-0.1l0.1-0.8l2.2,0.2c0.2,0,0.4,0.2,0.4,0.4L390.9,83.1z"/>
	<path class="st9" d="M383.4,87.6l-2.2,0c-0.2,0-0.4-0.2-0.4-0.4l0-1.5h0.8l0,1.1l1.8,0L383.4,87.6z"/>
	<path class="st9" d="M389.4,87.7C389.4,87.7,389.4,87.7,389.4,87.7l-1.8-0.1l0-0.8l1.4,0l-0.2-1.2l0.8-0.1l0.2,1.6
		c0,0.1,0,0.2-0.1,0.3C389.6,87.6,389.5,87.7,389.4,87.7z"/>
	<path class="st9" d="M381.9,83.2l-0.2-1.6c0-0.1,0-0.2,0.1-0.3c0.1-0.1,0.2-0.1,0.3-0.1c0,0,0,0,0,0l1.8,0l0,0.8l-1.4,0l0.2,1.2
		L381.9,83.2z"/>
	<path class="st9" d="M376.4,101.8c-0.2,0-0.3,0-0.3,0c-0.2,0-0.4-0.2-0.3-0.4c0-0.2,0.2-0.4,0.4-0.3c0.3,0,1.1,0,1.5-0.4
		c0.2-0.2,0.3-0.4,0.2-0.7c0-0.2,0.2-0.4,0.4-0.4c0.2,0,0.4,0.2,0.4,0.4c0,0.5-0.1,1-0.5,1.3C377.7,101.8,376.9,101.8,376.4,101.8z"
		/>
	<path class="st9" d="M386.7,102.1c-0.3,0-1-0.1-1.4-0.5c-0.4-0.4-0.6-0.9-0.6-1.6c0-0.2,0.2-0.4,0.4-0.4c0.2,0,0.4,0.2,0.4,0.4
		c0,0.4,0.1,0.8,0.3,1c0.4,0.4,1.1,0.3,1.1,0.3c0.2,0,0.4,0.1,0.4,0.3s-0.1,0.4-0.3,0.4C387,102.1,386.9,102.1,386.7,102.1z"/>
</g>
<g>
	<path class="st10" d="M362.2,22.7c-0.3,0.2-0.5,0.3-0.7,0.4c-0.2,0.1-0.4,0-0.5,0c-0.2-0.1-0.3-0.2-0.4-0.4l-0.8-1
		c-0.2-0.3-0.3-0.6-0.3-0.8c0.1-0.3,0.3-0.5,0.6-0.8l1.6-1.3c0.3-0.2,0.5-0.3,0.6-0.4c0.1-0.1,0.2-0.1,0.3-0.1l0.2,0.5
		c-0.1,0-0.3,0.2-0.6,0.4c-0.3,0.2-0.8,0.6-1.3,1l-0.3,0.2c-0.3,0.2-0.4,0.5-0.2,0.7l0.9,1.1c0.1,0.1,0.2,0.2,0.3,0.2
		c0.1,0,0.2-0.1,0.4-0.2l0.2-0.2c0.3-0.3,0.6-0.5,0.9-0.7c0.2-0.2,0.4-0.4,0.6-0.5l-0.5-0.6l-0.3,0.3l-0.7,0.6l-0.3-0.4l1.8-1.4
		l1,1.2l0.1,0c0,0,0,0.1-0.2,0.2c-0.1,0.1-0.4,0.4-0.8,0.6L362.2,22.7z"/>
	<path class="st10" d="M365.1,20.5l0-3.9l1.2-0.7l3.5,1.8l-0.9,0.6l-0.7-0.4l-2.1,1.3l0,0.8L365.1,20.5z M365.9,18.5l1.7-1l-1.6-0.8
		l-0.1,0L365.9,18.5z"/>
	<path class="st10" d="M370.1,17.4l-1.2-2.6l-0.3-0.4l1-0.4l2.4,1.4l0.5-2.7l0.9-0.4l1.4,3l-0.8,0.4l-0.9-1.9l-0.1,0l0,0.6l-0.3,1.5
		l-0.8,0.3l-1.3-0.8l-0.5-0.3l-0.1,0l0.9,1.9L370.1,17.4z"/>
	<path class="st10" d="M375.8,15l-1-3.1l4.1-1.3L379,11l-3.2,1.1l0.2,0.7l2.5-0.8l0.2,0.5l-2.5,0.8l0.3,0.8l3.3-1.1l0.4,0.4
		c0,0,0,0-0.2,0.1c-0.1,0.1-0.3,0.1-0.6,0.2L375.8,15z"/>
	<path class="st10" d="M385.1,12.5c-0.2,0-0.4,0.1-0.5,0c-0.2,0-0.4-0.1-0.7-0.2l-0.6-0.3c-0.2-0.1-0.5-0.2-0.7-0.2
		c-0.3,0-0.6,0-0.9,0.1l-0.2,0l0.3,1.2l-0.9,0.2l-0.6-2.8l-0.2-0.4l3-0.6c0.3-0.1,0.5-0.1,0.7-0.1c0.2,0,0.3,0.1,0.4,0.2
		c0.1,0.1,0.2,0.2,0.2,0.3c0,0.1,0.1,0.2,0.1,0.3l0,0.1c0,0.1,0,0.2,0,0.3c0,0.1,0,0.2-0.1,0.3c-0.1,0.1-0.1,0.2-0.3,0.3
		c-0.1,0.1-0.3,0.2-0.5,0.2c0.1,0,0.1,0,0.3,0.1c0.1,0,0.2,0.1,0.3,0.1c0.1,0,0.2,0.1,0.3,0.1c0.1,0,0.2,0.1,0.2,0.1
		c0.2,0,0.3,0.1,0.5,0.1c0.1,0,0.2,0,0.3,0c0.1,0,0.1,0,0.1,0l0,0.5c0,0-0.1,0-0.2,0.1C385.3,12.5,385.2,12.5,385.1,12.5z
		 M382.3,11.3c0.2,0,0.3-0.1,0.5-0.1c0.1,0,0.3-0.1,0.4-0.1c0.2-0.1,0.3-0.1,0.4-0.2c0.1-0.1,0.1-0.2,0.1-0.3l0-0.1
		c0-0.1-0.1-0.2-0.2-0.3c-0.1-0.1-0.2-0.1-0.4,0l-1.9,0.4l0.2,1c0.2,0,0.4-0.1,0.6-0.1C382,11.3,382.2,11.3,382.3,11.3z"/>
	<path class="st10" d="M388.5,12c-0.3,0-0.5,0-0.7,0s-0.2,0-0.2-0.1l0.2-0.5c0.1,0,0.4,0,0.8,0c0.4,0,1-0.1,1.7-0.1l0.1,0
		c0.2,0,0.3-0.1,0.4-0.1c0.1-0.1,0.1-0.2,0.1-0.3l0-0.1c0-0.1-0.1-0.2-0.1-0.3c-0.1-0.1-0.2-0.1-0.5,0l-1.6,0.1c-0.5,0-0.8,0-1-0.1
		c-0.2-0.1-0.4-0.3-0.4-0.7l0-0.1c0-0.2,0-0.3,0.1-0.5c0.1-0.1,0.2-0.3,0.4-0.4c0.2-0.1,0.4-0.2,0.8-0.2l1.9-0.2c0.3,0,0.6,0,0.8,0
		c0.2,0,0.3,0,0.3,0.1L391.4,9c-0.1,0-0.4,0-0.8,0c-0.4,0-1,0.1-1.7,0.1l-0.1,0c-0.2,0-0.4,0.1-0.4,0.1c-0.1,0.1-0.1,0.2-0.1,0.3
		l0,0.1c0,0.1,0.1,0.2,0.2,0.3c0.1,0.1,0.2,0.1,0.4,0.1l1.5-0.1c0.3,0,0.5,0,0.8,0c0.2,0,0.4,0.1,0.5,0.2c0.1,0.1,0.2,0.3,0.2,0.6
		l0,0.1c0,0.3,0,0.5-0.2,0.7c-0.2,0.2-0.5,0.3-0.9,0.3L388.5,12z"/>
	<path class="st10" d="M394,11.7c-0.3,0-0.6,0-0.8-0.1c-0.2-0.1-0.3-0.2-0.4-0.3c-0.1-0.1-0.1-0.3-0.1-0.6l0-1.3
		c0-0.2,0-0.4,0.1-0.5c0.1-0.1,0.2-0.3,0.4-0.3c0.2-0.1,0.4-0.1,0.8-0.1l2,0c0.3,0,0.6,0,0.8,0.1c0.2,0.1,0.3,0.2,0.4,0.3
		s0.1,0.3,0.1,0.5l0,0.7c0,0.3,0,0.5-0.1,0.7c-0.1,0.2-0.2,0.3-0.5,0.4c-0.1,0.1-0.4,0.2-0.7,0.3c0.2,0,0.4,0.1,0.5,0.1
		c0.2,0,0.3,0.1,0.4,0.1c0.2,0,0.3,0,0.5,0.1c0.2,0,0.3,0,0.4,0c0.1,0,0.2,0,0.2,0l-0.2,0.5c0,0-0.1,0-0.1,0c-0.1,0-0.2,0-0.3,0
		c-0.2,0-0.4,0-0.6-0.1c-0.2,0-0.4-0.1-0.6-0.1c-0.2,0-0.4-0.1-0.5-0.1c-0.2-0.1-0.3-0.1-0.5-0.1c-0.2,0-0.4-0.1-0.6-0.1
		C394.6,11.7,394.3,11.7,394,11.7z M394.2,11.2l0.9,0c0.3,0,0.6,0,0.8-0.1c0.2-0.1,0.3-0.2,0.4-0.3c0.1-0.1,0.1-0.4,0.1-0.6l0-0.8
		c0-0.1,0-0.2-0.1-0.3s-0.2-0.1-0.4-0.1l-1.6,0c-0.2,0-0.3,0-0.4,0.1c-0.1,0.1-0.2,0.2-0.2,0.3l0,1.4c0,0.1,0,0.2,0.1,0.3
		C393.9,11.1,394,11.2,394.2,11.2z"/>
	<path class="st10" d="M399.3,11.9c-0.4,0-0.7-0.2-0.8-0.4c-0.1-0.2-0.2-0.5-0.2-0.8l0.2-2.3l0.9,0.1l-0.3,2.4c0,0.2,0,0.3,0.1,0.4
		c0.1,0.1,0.2,0.1,0.4,0.1l1.5,0.2c0.1,0,0.3,0,0.4-0.1c0.1,0,0.2-0.2,0.2-0.3l0.3-2.4l0.9,0.1l-0.2,2.3c0,0.2-0.1,0.4-0.2,0.5
		c-0.1,0.1-0.2,0.2-0.4,0.3c-0.2,0.1-0.4,0.1-0.7,0.1L399.3,11.9z"/>
	<path class="st10" d="M403,12.3l2.7-2.8l1.3,0.3l1.3,3.6l-1-0.2l-0.3-0.8l-2.4-0.5l-0.6,0.6L403,12.3z M404.9,11.4l1.9,0.4
		l-0.6-1.7l-0.1,0L404.9,11.4z"/>
	<path class="st10" d="M408.8,13.5l0.9-2.7l0.1-0.4l3.1,1c0.4,0.1,0.6,0.2,0.8,0.4c0.2,0.1,0.3,0.3,0.3,0.4c0,0.2,0,0.4-0.1,0.6
		l-0.4,1.2c-0.1,0.2-0.2,0.4-0.3,0.5c-0.1,0.1-0.3,0.2-0.5,0.2c-0.2,0-0.5,0-0.9-0.2L408.8,13.5z M409.8,13.3l2.1,0.7
		c0.3,0.1,0.6,0,0.6-0.2l0.4-1.4c0-0.1,0-0.2,0-0.3c-0.1-0.1-0.2-0.2-0.4-0.2l-2.1-0.7L409.8,13.3z"/>
	<path class="st10" d="M414.9,15.6l0.4-0.2l2-0.5l-0.9-2.3l1,0.5l0.7,1.7l0.1,0l1.8-0.5l1,0.5l-0.4,0.2l-2,0.5l0.9,2.3l-1-0.5
		l-0.7-1.7l-0.1,0l-1.8,0.5L414.9,15.6z"/>
	<path class="st10" d="M422.1,19.5c-0.3-0.2-0.5-0.4-0.6-0.5c-0.1-0.2-0.2-0.3-0.1-0.5c0-0.2,0.1-0.3,0.2-0.5l0.7-1
		c0.2-0.3,0.4-0.5,0.7-0.5c0.3,0,0.6,0.1,0.9,0.3l1.7,1.2c0.3,0.2,0.5,0.3,0.6,0.4c0.1,0.1,0.2,0.2,0.2,0.2l-0.4,0.3
		c-0.1-0.1-0.2-0.2-0.6-0.4c-0.3-0.2-0.8-0.5-1.4-1l-0.3-0.2c-0.3-0.2-0.5-0.2-0.7,0l-0.8,1.2c-0.1,0.1-0.1,0.2-0.1,0.3
		c0,0.1,0.1,0.2,0.3,0.3l0.2,0.2c0.4,0.3,0.7,0.5,0.9,0.6c0.3,0.2,0.5,0.3,0.6,0.4l0.4-0.6l-0.3-0.2l-0.8-0.5l0.3-0.5l1.9,1.3
		l-0.9,1.3l0,0.1c0,0-0.1,0-0.3-0.1c-0.2-0.1-0.5-0.3-0.8-0.5L422.1,19.5z"/>
	<path class="st10" d="M425.1,21.5l3.7-1.1l1,0.9l-0.7,3.8l-0.8-0.7l0.2-0.8l-1.9-1.6l-0.8,0.2L425.1,21.5z M427.2,21.6l1.5,1.3
		l0.3-1.8l-0.1,0L427.2,21.6z"/>
	<path class="st10" d="M429.5,25.4l2.2-1.8l0.3-0.3l0.7,0.8l-0.7,2.6l2.8-0.2l0.6,0.7l-2.5,2.1l-0.6-0.7l1.6-1.3l0-0.1l-0.5,0.1
		l-1.5,0.1l-0.5-0.6l0.4-1.5l0.2-0.5l0-0.1l-1.6,1.3L429.5,25.4z"/>
	<path class="st10" d="M433.3,30.1l2.8-1.7l2.2,3.7l-0.5,0.3l-1.7-2.9l-0.7,0.4l1.3,2.2l-0.5,0.3l-1.3-2.2l-0.8,0.5l1.7,3l-0.3,0.5
		c0,0-0.1,0-0.1-0.1c-0.1-0.1-0.2-0.3-0.3-0.5L433.3,30.1z"/>
	<path class="st10" d="M437.4,38.8c-0.1-0.2-0.1-0.4-0.1-0.5c0-0.2,0-0.4,0.1-0.7l0.2-0.6c0.1-0.2,0.1-0.5,0.1-0.8
		c0-0.3-0.1-0.6-0.2-0.9l-0.1-0.2l-1.2,0.4l-0.3-0.9l2.7-1l0.4-0.2l1.1,2.9c0.1,0.3,0.2,0.5,0.2,0.7c0,0.2,0,0.3-0.1,0.4
		c-0.1,0.1-0.2,0.2-0.3,0.3c-0.1,0.1-0.2,0.1-0.3,0.2l-0.1,0c-0.1,0-0.2,0-0.3,0.1c-0.1,0-0.2,0-0.3,0c-0.1,0-0.2-0.1-0.4-0.2
		c-0.1-0.1-0.2-0.3-0.3-0.5c0,0.1,0,0.2,0,0.3c0,0.1,0,0.2-0.1,0.3c0,0.1,0,0.2-0.1,0.3c0,0.1,0,0.2,0,0.2c0,0.2,0,0.3,0,0.5
		c0,0.1,0,0.2,0.1,0.3c0,0.1,0,0.1,0,0.1l-0.5,0c0,0-0.1-0.1-0.1-0.2C437.5,39,437.4,38.9,437.4,38.8z M438.2,35.9
		c0.1,0.2,0.1,0.3,0.2,0.4c0.1,0.1,0.1,0.2,0.2,0.3c0.1,0.2,0.2,0.3,0.3,0.3c0.1,0,0.2,0.1,0.3,0l0.1,0c0.1,0,0.2-0.1,0.2-0.2
		c0-0.1,0-0.2,0-0.4l-0.7-1.8l-0.9,0.3c0.1,0.2,0.1,0.4,0.2,0.5C438.1,35.6,438.2,35.7,438.2,35.9z"/>
	<path class="st10" d="M438.2,42c0-0.3-0.1-0.5-0.1-0.7c0-0.1,0-0.2,0-0.2l0.5,0.2c0,0.1,0,0.4,0.1,0.8c0,0.4,0.1,1,0.2,1.7l0,0.1
		c0,0.2,0.1,0.3,0.1,0.4c0.1,0.1,0.2,0.1,0.3,0.1l0.1,0c0.1,0,0.2-0.1,0.3-0.1c0-0.1,0.1-0.2,0-0.5l-0.2-1.6c-0.1-0.5,0-0.8,0.1-1
		c0.1-0.2,0.3-0.4,0.6-0.4l0.1,0c0.2,0,0.3,0,0.5,0.1c0.1,0.1,0.3,0.2,0.4,0.3c0.1,0.2,0.2,0.4,0.2,0.7l0.3,1.9
		c0,0.3,0.1,0.6,0.1,0.8c0,0.2,0,0.3,0,0.3l-0.5-0.1c0-0.1,0-0.4-0.1-0.8c0-0.4-0.1-1-0.2-1.7l0-0.1c0-0.2-0.1-0.3-0.2-0.4
		c-0.1-0.1-0.2-0.1-0.3-0.1l-0.1,0c-0.1,0-0.2,0.1-0.3,0.2c0,0.1-0.1,0.2,0,0.4l0.2,1.5c0,0.3,0.1,0.5,0,0.8c0,0.2-0.1,0.4-0.2,0.5
		c-0.1,0.1-0.3,0.2-0.5,0.2l-0.1,0c-0.3,0-0.5,0-0.7-0.2c-0.2-0.2-0.3-0.4-0.4-0.9L438.2,42z"/>
	<path class="st10" d="M438.6,47.5c0-0.3,0.1-0.6,0.1-0.8c0.1-0.2,0.2-0.3,0.4-0.4c0.2-0.1,0.3-0.1,0.6-0.1l1.3,0.1
		c0.2,0,0.4,0.1,0.5,0.1c0.1,0.1,0.3,0.2,0.3,0.4c0.1,0.2,0.1,0.4,0.1,0.8l-0.1,2c0,0.3-0.1,0.6-0.1,0.8c-0.1,0.2-0.2,0.3-0.4,0.4
		c-0.2,0.1-0.3,0.1-0.6,0.1l-0.7,0c-0.3,0-0.5-0.1-0.7-0.2c-0.2-0.1-0.3-0.2-0.4-0.5c-0.1-0.1-0.1-0.4-0.2-0.7
		c0,0.2-0.1,0.4-0.1,0.5c0,0.2-0.1,0.3-0.1,0.4c0,0.2-0.1,0.3-0.1,0.5c0,0.2,0,0.3-0.1,0.4c0,0.1,0,0.2,0,0.2l-0.5-0.2
		c0,0,0-0.1,0-0.1c0-0.1,0-0.2,0-0.3c0-0.2,0-0.4,0.1-0.6c0-0.2,0.1-0.4,0.1-0.6c0.1-0.2,0.1-0.4,0.2-0.5c0.1-0.2,0.1-0.3,0.2-0.5
		c0-0.2,0.1-0.4,0.1-0.6C438.6,48,438.6,47.8,438.6,47.5z M439.2,47.7l0,0.9c0,0.3,0,0.6,0.1,0.8c0.1,0.2,0.1,0.3,0.3,0.4
		c0.1,0.1,0.3,0.1,0.6,0.2l0.8,0c0.1,0,0.2,0,0.3-0.1c0.1-0.1,0.1-0.2,0.1-0.4l0.1-1.6c0-0.2,0-0.3-0.1-0.4
		c-0.1-0.1-0.2-0.2-0.3-0.2l-1.4-0.1c-0.1,0-0.2,0-0.3,0.1C439.2,47.4,439.2,47.5,439.2,47.7z"/>
	<path class="st10" d="M438.1,52.6c0.1-0.4,0.2-0.7,0.5-0.8c0.2-0.1,0.5-0.2,0.8-0.1l2.3,0.5l-0.2,0.9l-2.3-0.5
		c-0.2,0-0.3,0-0.4,0.1c-0.1,0.1-0.1,0.2-0.2,0.4l-0.3,1.4c0,0.1,0,0.3,0,0.4c0,0.1,0.1,0.2,0.3,0.2l2.3,0.5l-0.2,0.9l-2.3-0.5
		c-0.2,0-0.4-0.1-0.5-0.2c-0.1-0.1-0.2-0.2-0.3-0.4c0-0.2,0-0.4,0-0.7L438.1,52.6z"/>
	<path class="st10" d="M437.4,56.2l2.3,3.1l-0.5,1.3l-3.8,0.6l0.4-1l0.8-0.1l0.9-2.3l-0.5-0.7L437.4,56.2z M437.9,58.2l-0.7,1.8
		l1.8-0.3l0-0.1L437.9,58.2z"/>
	<path class="st10" d="M435.1,61.6l2.4,1.5l0.4,0.2l-1.7,2.7c-0.2,0.3-0.4,0.5-0.5,0.7s-0.3,0.2-0.5,0.2c-0.2,0-0.3-0.1-0.5-0.2
		l-1.1-0.7c-0.2-0.1-0.3-0.2-0.4-0.4c-0.1-0.1-0.1-0.3-0.1-0.5c0-0.2,0.2-0.5,0.4-0.8L435.1,61.6z M435.1,62.7l-1.1,1.9
		c-0.2,0.3-0.2,0.5,0.1,0.7l1.2,0.8c0.1,0.1,0.2,0.1,0.3,0c0.1,0,0.2-0.1,0.3-0.3l1.1-1.9L435.1,62.7z"/>
	<path class="st10" d="M431.6,66.9l0.1,0.4l-0.1,2l2.4-0.2l-0.7,0.8l-1.8,0.2l-0.1,0.1l0,1.8l-0.7,0.8l-0.1-0.4l0.1-2l-2.4,0.2
		l0.7-0.8l1.8-0.2l0.1-0.1l0-1.8L431.6,66.9z"/>
	<path class="st10" d="M425.9,72.7c0.3-0.2,0.5-0.3,0.7-0.4c0.2-0.1,0.4-0.1,0.5,0c0.1,0.1,0.3,0.2,0.4,0.4l0.8,1
		c0.2,0.3,0.3,0.6,0.3,0.8c-0.1,0.3-0.3,0.5-0.6,0.8l-1.6,1.3c-0.3,0.2-0.5,0.3-0.6,0.4c-0.1,0.1-0.2,0.1-0.3,0.1l-0.2-0.5
		c0.1,0,0.3-0.2,0.6-0.4c0.3-0.2,0.8-0.6,1.3-1l0.3-0.2c0.3-0.2,0.4-0.5,0.2-0.7l-0.9-1.1c-0.1-0.1-0.2-0.2-0.3-0.2
		c-0.1,0-0.2,0.1-0.4,0.2l-0.2,0.2c-0.3,0.3-0.6,0.5-0.9,0.7c-0.2,0.2-0.4,0.4-0.6,0.5l0.5,0.6l0.3-0.3l0.7-0.6l0.3,0.4l-1.8,1.4
		l-1-1.2l-0.1,0c0,0,0-0.1,0.2-0.2c0.1-0.1,0.4-0.4,0.8-0.6L425.9,72.7z"/>
	<path class="st10" d="M423,75l0,3.9l-1.2,0.7l-3.5-1.8l0.9-0.6l0.7,0.4l2.1-1.3l0-0.8L423,75z M422.2,76.9l-1.7,1l1.6,0.8l0.1,0
		L422.2,76.9z"/>
	<path class="st10" d="M418,78l1.2,2.6l0.3,0.4l-1,0.4l-2.4-1.4l-0.5,2.7l-0.9,0.4l-1.4-3l0.8-0.4l0.9,1.9l0.1,0l0-0.6l0.3-1.5
		l0.8-0.3l1.3,0.8l0.5,0.3l0.1,0l-0.9-1.9L418,78z"/>
	<path class="st10" d="M366,76.1c0.3,0.2,0.5,0.4,0.6,0.5c0.1,0.2,0.2,0.3,0.1,0.5c0,0.2-0.1,0.3-0.2,0.5l-0.7,1
		c-0.2,0.3-0.4,0.5-0.7,0.5c-0.3,0-0.6-0.1-0.9-0.3l-1.7-1.2c-0.3-0.2-0.5-0.3-0.6-0.4c-0.1-0.1-0.2-0.2-0.2-0.2l0.4-0.3
		c0.1,0.1,0.2,0.2,0.6,0.4s0.8,0.5,1.4,1l0.3,0.2c0.3,0.2,0.5,0.2,0.7,0l0.8-1.2c0.1-0.1,0.1-0.2,0.1-0.3c0-0.1-0.1-0.2-0.3-0.3
		l-0.2-0.2c-0.4-0.3-0.7-0.5-0.9-0.6c-0.3-0.2-0.5-0.3-0.6-0.4l-0.4,0.6l0.3,0.2l0.8,0.5l-0.3,0.5l-1.9-1.3l0.9-1.3l0-0.1
		c0,0,0.1,0,0.3,0.1c0.2,0.1,0.5,0.3,0.8,0.5L366,76.1z"/>
	<path class="st10" d="M363,74l-3.7,1.1l-1-0.9l0.7-3.8l0.8,0.7l-0.2,0.8l1.9,1.6l0.8-0.2L363,74z M360.9,73.8l-1.5-1.3l-0.3,1.8
		l0.1,0L360.9,73.8z"/>
	<path class="st10" d="M358.6,70.1l-2.2,1.8l-0.3,0.3l-0.7-0.8l0.7-2.6l-2.8,0.2l-0.6-0.7l2.5-2.1l0.6,0.7l-1.6,1.3l0,0.1l0.5-0.1
		l1.5-0.1l0.5,0.6l-0.4,1.5l-0.2,0.5l0,0.1l1.6-1.3L358.6,70.1z"/>
	<path class="st10" d="M354.8,65.4l-2.8,1.7l-2.2-3.7l0.5-0.3l1.7,2.9l0.7-0.4l-1.3-2.2l0.5-0.3l1.3,2.2l0.8-0.5l-1.7-3l0.3-0.5
		c0,0,0.1,0,0.1,0.1c0.1,0.1,0.2,0.3,0.3,0.5L354.8,65.4z"/>
	<path class="st10" d="M350.7,56.8c0.1,0.2,0.1,0.4,0.1,0.5c0,0.2,0,0.4-0.1,0.7l-0.2,0.6c-0.1,0.3-0.1,0.5-0.1,0.8
		c0,0.3,0.1,0.6,0.2,0.9l0.1,0.2l1.2-0.4l0.3,0.9l-2.7,1l-0.4,0.2l-1.1-2.9c-0.1-0.3-0.2-0.5-0.2-0.7c0-0.2,0-0.3,0.1-0.4
		c0.1-0.1,0.2-0.2,0.3-0.3c0.1-0.1,0.2-0.1,0.3-0.2l0.1,0c0.1,0,0.2,0,0.3-0.1c0.1,0,0.2,0,0.3,0c0.1,0,0.2,0.1,0.4,0.2
		s0.2,0.3,0.3,0.5c0-0.1,0-0.2,0-0.3c0-0.1,0-0.2,0.1-0.3c0-0.1,0-0.2,0.1-0.3c0-0.1,0-0.2,0-0.2c0-0.2,0-0.3,0-0.5
		c0-0.1,0-0.2-0.1-0.3c0-0.1,0-0.1,0-0.1l0.5,0c0,0,0.1,0.1,0.1,0.2C350.6,56.5,350.6,56.6,350.7,56.8z M349.8,59.7
		c-0.1-0.2-0.1-0.3-0.2-0.4c-0.1-0.1-0.1-0.2-0.2-0.3c-0.1-0.2-0.2-0.3-0.3-0.3c-0.1,0-0.2-0.1-0.3,0l-0.1,0c-0.1,0-0.2,0.1-0.2,0.2
		c0,0.1,0,0.3,0,0.4l0.7,1.8l0.9-0.3c-0.1-0.2-0.1-0.4-0.2-0.5C350,60,349.9,59.8,349.8,59.7z"/>
	<path class="st10" d="M349.9,53.5c0,0.3,0.1,0.5,0.1,0.7c0,0.1,0,0.2,0,0.2l-0.5-0.2c0-0.1,0-0.4-0.1-0.8c0-0.4-0.1-1-0.2-1.7
		l0-0.1c0-0.2-0.1-0.3-0.1-0.4c-0.1-0.1-0.2-0.1-0.3-0.1l-0.1,0c-0.1,0-0.2,0.1-0.3,0.1c0,0.1-0.1,0.2,0,0.5l0.2,1.6
		c0.1,0.5,0,0.8-0.1,1c-0.1,0.2-0.3,0.4-0.6,0.4l-0.1,0c-0.2,0-0.3,0-0.5-0.1c-0.1-0.1-0.3-0.2-0.4-0.3c-0.1-0.2-0.2-0.4-0.2-0.7
		l-0.3-1.9c0-0.3-0.1-0.6-0.1-0.8c0-0.2,0-0.3,0-0.3l0.5,0.1c0,0.1,0,0.4,0.1,0.8c0,0.4,0.1,1,0.2,1.7l0,0.1c0,0.2,0.1,0.3,0.2,0.4
		c0.1,0.1,0.2,0.1,0.3,0.1l0.1,0c0.1,0,0.2-0.1,0.3-0.2c0-0.1,0.1-0.2,0-0.4l-0.2-1.5c0-0.3-0.1-0.5,0-0.8c0-0.2,0.1-0.4,0.2-0.5
		c0.1-0.1,0.3-0.2,0.5-0.2l0.1,0c0.3,0,0.5,0,0.7,0.2c0.2,0.2,0.3,0.4,0.4,0.9L349.9,53.5z"/>
	<path class="st10" d="M349.4,48c0,0.3-0.1,0.6-0.1,0.8c-0.1,0.2-0.2,0.3-0.4,0.4c-0.2,0.1-0.3,0.1-0.6,0.1l-1.3-0.1
		c-0.2,0-0.4-0.1-0.5-0.1c-0.1-0.1-0.3-0.2-0.3-0.4c-0.1-0.2-0.1-0.4-0.1-0.8l0.1-2c0-0.3,0.1-0.6,0.1-0.8c0.1-0.2,0.2-0.3,0.4-0.4
		c0.2-0.1,0.3-0.1,0.6-0.1l0.7,0c0.3,0,0.5,0.1,0.7,0.2c0.2,0.1,0.3,0.2,0.4,0.5c0.1,0.1,0.1,0.4,0.2,0.7c0-0.2,0.1-0.4,0.1-0.5
		c0-0.2,0.1-0.3,0.1-0.4c0-0.2,0.1-0.3,0.1-0.5c0-0.2,0-0.3,0.1-0.4c0-0.1,0-0.2,0-0.2l0.5,0.2c0,0,0,0.1,0,0.1c0,0.1,0,0.2,0,0.3
		c0,0.2,0,0.4-0.1,0.6c0,0.2-0.1,0.4-0.1,0.6c-0.1,0.2-0.1,0.4-0.2,0.5c-0.1,0.2-0.1,0.3-0.2,0.5c0,0.2-0.1,0.4-0.1,0.6
		C349.4,47.4,349.4,47.7,349.4,48z M348.9,47.8l0-0.9c0-0.3,0-0.6-0.1-0.8c-0.1-0.2-0.1-0.3-0.3-0.4c-0.1-0.1-0.3-0.1-0.6-0.2
		l-0.8,0c-0.1,0-0.2,0-0.3,0.1c-0.1,0.1-0.1,0.2-0.1,0.4l-0.1,1.6c0,0.2,0,0.3,0.1,0.4c0.1,0.1,0.2,0.2,0.3,0.2l1.4,0.1
		c0.1,0,0.2,0,0.3-0.1C348.8,48.1,348.9,48,348.9,47.8z"/>
	<path class="st10" d="M349.9,42.8c-0.1,0.4-0.2,0.7-0.5,0.8c-0.2,0.1-0.5,0.2-0.8,0.1l-2.3-0.5l0.2-0.9l2.3,0.5
		c0.2,0,0.3,0,0.4-0.1c0.1-0.1,0.1-0.2,0.2-0.4l0.3-1.4c0-0.1,0-0.3,0-0.4c0-0.1-0.1-0.2-0.3-0.2l-2.3-0.5l0.2-0.9l2.3,0.5
		c0.2,0,0.4,0.1,0.5,0.2c0.1,0.1,0.2,0.2,0.3,0.4c0,0.2,0,0.4,0,0.7L349.9,42.8z"/>
	<path class="st10" d="M350.6,39.3l-2.3-3.1l0.5-1.3l3.8-0.6l-0.4,1l-0.8,0.1l-0.9,2.3l0.5,0.7L350.6,39.3z M350.1,37.3l0.7-1.8
		l-1.8,0.3l0,0.1L350.1,37.3z"/>
	<path class="st10" d="M352.9,33.9l-2.4-1.5l-0.4-0.2l1.7-2.7c0.2-0.3,0.4-0.5,0.5-0.7c0.2-0.1,0.3-0.2,0.5-0.2
		c0.2,0,0.3,0.1,0.5,0.2l1.1,0.7c0.2,0.1,0.3,0.2,0.4,0.4c0.1,0.1,0.1,0.3,0.1,0.5c0,0.2-0.2,0.5-0.4,0.8L352.9,33.9z M353,32.9
		l1.1-1.9c0.2-0.3,0.2-0.5-0.1-0.7l-1.2-0.7c-0.1-0.1-0.2-0.1-0.3,0s-0.2,0.1-0.3,0.3l-1.1,1.9L353,32.9z"/>
	<path class="st10" d="M356.4,28.6l-0.1-0.4l0.1-2l-2.4,0.2l0.7-0.8l1.8-0.2l0.1-0.1l0-1.8l0.7-0.8l0.1,0.4l-0.1,2l2.4-0.2l-0.7,0.8
		l-1.8,0.2l-0.1,0.1l0,1.8L356.4,28.6z"/>
</g>
<polygon class="st11" points="312.7,154.8 311.8,155.2 311.2,153.4 310.3,153.7 310,152.9 313.5,151.6 313.2,150.7 312.8,149.8 
	312,150.1 311.7,149.3 310.8,149.6 310.5,148.7 309.6,149 309.3,148.1 308.4,148.5 308.1,147.6 307.2,147.9 306.9,147 306,147.3 
	305.7,146.5 304.8,146.8 304.5,145.9 303.6,146.2 303.3,145.3 302.4,145.7 302.1,144.8 301.2,145.1 300.9,144.2 300,144.5 
	299.7,143.7 298.8,144 304.2,158.9 305.1,158.6 306,158.3 305.7,157.4 306.5,157.1 306.2,156.2 307.1,155.9 306.8,155 307.7,154.7 
	308.3,156.4 309.2,156.1 309.8,157.9 310.7,157.6 311,158.4 312.8,157.8 312.4,156.9 313.3,156.6 "/>
<g>
	<path class="st1" d="M312.1,149.7l-0.3-0.9l-0.9,0.3l-0.3-0.9l-0.9,0.3l-0.3-0.9l-0.9,0.3l-0.3-0.9l-0.9,0.3l-0.3-0.9l-0.9,0.3
		l-0.3-0.9l-0.9,0.3l-0.3-0.9l-0.9,0.3l-0.3-0.9l-0.9,0.3l-0.3-0.9l-0.9,0.3l-0.3-0.9l-0.9,0.3l-0.3-0.9l-0.9,0.3l5.4,14.9l0.9-0.3
		l0.9-0.3l-0.3-0.9l0.9-0.3l-0.3-0.9l0.9-0.3l-0.3-0.9l0.9-0.3l0.6,1.8l0.9-0.3l0.6,1.8l0.9-0.3l0.3,0.9l1.8-0.6l-0.3-0.9l0.9-0.3
		l-0.6-1.8l-0.9,0.3l-0.6-1.8l-0.9,0.3l-0.3-0.9l3.5-1.3l-0.3-0.9l-0.3-0.9L312.1,149.7z"/>
	<g>
		
			<rect x="301.6" y="142.9" transform="matrix(0.9405 -0.3399 0.3399 0.9405 -33.2743 111.6393)" class="st0" width="0.9" height="15.9"/>
		
			<rect x="300.2" y="143.9" transform="matrix(0.9405 -0.3399 0.3399 0.9405 -31.1591 110.7987)" class="st0" width="0.9" height="0.9"/>
		
			<rect x="301.4" y="144.4" transform="matrix(0.9405 -0.3399 0.3399 0.9405 -31.2784 111.238)" class="st0" width="0.9" height="0.9"/>
		
			<rect x="302.6" y="145" transform="matrix(0.9405 -0.3399 0.3399 0.9405 -31.3977 111.6773)" class="st0" width="0.9" height="0.9"/>
		
			<rect x="303.8" y="145.6" transform="matrix(0.9405 -0.3399 0.3399 0.9405 -31.517 112.1166)" class="st0" width="0.9" height="0.9"/>
		
			<rect x="305" y="146.1" transform="matrix(0.9405 -0.3399 0.3399 0.9405 -31.6364 112.5559)" class="st0" width="0.9" height="0.9"/>
		
			<rect x="306.2" y="146.7" transform="matrix(0.9405 -0.3399 0.3399 0.9405 -31.7557 112.9952)" class="st0" width="0.9" height="0.9"/>
		
			<rect x="307.4" y="147.2" transform="matrix(0.9405 -0.3399 0.3399 0.9405 -31.875 113.4345)" class="st0" width="0.9" height="0.9"/>
		
			<rect x="308.6" y="147.8" transform="matrix(0.9405 -0.3399 0.3399 0.9405 -31.9943 113.8738)" class="st0" width="0.9" height="0.9"/>
		
			<rect x="309.8" y="148.4" transform="matrix(0.9405 -0.3399 0.3399 0.9405 -32.1136 114.3131)" class="st0" width="0.9" height="0.9"/>
		
			<rect x="311" y="148.9" transform="matrix(0.9405 -0.3399 0.3399 0.9405 -32.233 114.7524)" class="st0" width="0.9" height="0.9"/>
		
			<rect x="312.2" y="149.5" transform="matrix(0.9405 -0.3399 0.3399 0.9405 -32.3523 115.1917)" class="st0" width="0.9" height="0.9"/>
		
			<rect x="308.9" y="151" transform="matrix(0.9405 -0.3399 0.3399 0.9405 -32.9516 114.7931)" class="st0" width="4.7" height="0.9"/>
		
			<rect x="309.3" y="152.5" transform="matrix(0.9405 -0.3399 0.3399 0.9405 -33.5508 114.3944)" class="st0" width="0.9" height="0.9"/>
		
			<rect x="306.7" y="153.5" transform="matrix(0.9405 -0.3399 0.3399 0.9405 -34.0308 113.5565)" class="st0" width="0.9" height="0.9"/>
		
			<rect x="308" y="154" transform="matrix(0.9405 -0.3399 0.3399 0.9405 -34.2898 114.0758)" class="st0" width="0.9" height="1.9"/>
		
			<rect x="309.5" y="155.4" transform="matrix(0.9405 -0.3399 0.3399 0.9405 -34.6884 114.6751)" class="st0" width="0.9" height="1.9"/>
		
			<rect x="310.9" y="156.7" transform="matrix(0.9405 -0.3399 0.3399 0.9405 -34.8674 115.334)" class="st0" width="1.9" height="0.9"/>
		
			<rect x="310.7" y="153" transform="matrix(0.9405 -0.3399 0.3399 0.9405 -33.8098 114.9137)" class="st0" width="0.9" height="1.9"/>
		
			<rect x="312.2" y="154.5" transform="matrix(0.9405 -0.3399 0.3399 0.9405 -34.2084 115.513)" class="st0" width="0.9" height="1.9"/>
		
			<rect x="306.1" y="154.7" transform="matrix(0.9405 -0.3399 0.3399 0.9405 -34.4701 113.4372)" class="st0" width="0.9" height="0.9"/>
		
			<rect x="305.6" y="155.8" transform="matrix(0.9405 -0.3399 0.3399 0.9405 -34.9094 113.3178)" class="st0" width="0.9" height="0.9"/>
		
			<rect x="305" y="157" transform="matrix(0.9405 -0.3399 0.3399 0.9405 -35.3487 113.1986)" class="st0" width="0.9" height="0.9"/>
	</g>
</g>
<rect id="cadre_2_" class="st12" width="467.7" height="184.3"/>
</svg>
