<svg id="troscoltube_fruits_v3" xmlns="http://www.w3.org/2000/svg" viewBox="0 0 467.72 184.25"><defs><style>.cls-1{fill:#f2b7d5;}.cls-2{fill:#1c3258;}.cls-3{fill:#91c8a2;}.cls-4{fill:#a31958;}.cls-5{opacity:0.47;}.cls-6{fill:#fff;}.cls-7{fill:#f5b832;}.cls-8{fill:#fbde53;}.cls-9{fill:#00a87a;}.cls-10{fill:#eccc1f;}.cls-11{fill:#008586;}.cls-12{fill:#b76daa;}.cls-13{fill:none;}</style></defs><path class="cls-1" d="M243.13,18.15a9.9,9.9,0,0,0-8.13-.79,6.56,6.56,0,0,0-3.11,2.36c-.66.85-1.81.62-2.76.85a13.75,13.75,0,0,0-3.26,1.26A11.58,11.58,0,0,0,221,26.61c-2,3.79-1.09,9,2.4,11.46,1.9,1.32,4.26,1.73,6.39,2.62a14.89,14.89,0,0,1,7,6.2c1.73,3,2.79,7,6.1,8.11,2.47.81,5.26-.57,6.8-2.67A14.88,14.88,0,0,0,252.05,45a39.35,39.35,0,0,0-1.79-17.28C248.9,23.87,246.66,20.16,243.13,18.15Z"/><path class="cls-2" d="M226.45,30.89a8,8,0,0,0,2.12,2.18.51.51,0,0,0,.48,0s.33-.18.2-.27a8,8,0,0,1-2.12-2.19c0-.05-.15-.05-.19-.05a.72.72,0,0,0-.29.06c-.1,0-.28.14-.2.27Z"/><path class="cls-2" d="M232.76,32.22l1.37,1.61a.28.28,0,0,0,.18,0,.64.64,0,0,0,.28-.06c.07,0,.3-.11.22-.22L233.44,32s-.15,0-.18,0A1.36,1.36,0,0,0,233,32c-.06,0-.3.12-.21.22Z"/><path class="cls-2" d="M234.78,26.57a14.52,14.52,0,0,1,1.81,2c.07.09.3,0,.39,0s.39-.12.34-.19a14.64,14.64,0,0,0-1.85-2.08s-.15,0-.18,0a1.15,1.15,0,0,0-.28.06s-.31.11-.23.19Z"/><path class="cls-2" d="M238.75,20.1a15.58,15.58,0,0,1,1.83,2.06s.14.05.19.05a.88.88,0,0,0,.28-.06c.09,0,.29-.14.2-.26a14.27,14.27,0,0,0-1.83-2.06c-.11-.1-.35,0-.47,0s-.32.16-.2.26Z"/><path class="cls-2" d="M241,27.37l1.17,1.52c.1.14.36.1.49,0s.29-.2.18-.34l-1.17-1.52c-.1-.14-.35-.1-.48,0s-.29.2-.19.34Z"/><path class="cls-2" d="M239.21,35.38,241,37.76c.07.09.3,0,.39,0s.39-.12.33-.19l-1.73-2.39c-.07-.09-.3,0-.39,0s-.39.12-.34.2Z"/><path class="cls-2" d="M244.37,33.37l1.32,1.88c.1.15.35.13.49.06s.28-.23.17-.38L245,33.05a.42.42,0,0,0-.49-.06c-.13.07-.28.23-.17.38Z"/><path class="cls-2" d="M246.79,29.48a14,14,0,0,1,1.39,1.94s.15.06.2.06a.54.54,0,0,0,.28-.05c.12-.05.27-.15.19-.3a13.82,13.82,0,0,0-1.38-1.93c-.17-.19-.86.07-.68.28Z"/><path class="cls-2" d="M239.07,40.91a6.92,6.92,0,0,1,1.49,2c.07.14.28.12.41.08s.38-.14.31-.28a7.26,7.26,0,0,0-1.54-2.07.48.48,0,0,0-.48,0c-.08,0-.31.18-.19.29Z"/><path class="cls-2" d="M247.79,37.87a7,7,0,0,1,1.49,2c.1.18.79-.07.73-.2a7.41,7.41,0,0,0-1.54-2.06.4.4,0,0,0-.19,0,1,1,0,0,0-.28.07c-.06,0-.31.12-.21.21Z"/><path class="cls-2" d="M245.1,46.42a7,7,0,0,1,1.49,2c.07.15.27.16.42.12s.38-.16.3-.31a7.21,7.21,0,0,0-1.54-2.09.46.46,0,0,0-.49,0c-.09,0-.31.21-.18.33Z"/><path class="cls-2" d="M240.42,46.33A5.88,5.88,0,0,0,242,48.16s.15,0,.19,0a1,1,0,0,0,.28-.07s.31-.12.22-.19a5.61,5.61,0,0,1-1.53-1.79c-.06-.1-.31,0-.39,0s-.38.11-.34.2Z"/><path class="cls-2" d="M245.22,41.44l1.23,1.6s.14,0,.19,0a.94.94,0,0,0,.28-.06c.08,0,.29-.13.2-.25l-1.22-1.6s-.15,0-.19,0a.88.88,0,0,0-.28.06c-.09,0-.3.13-.21.25Z"/><path class="cls-2" d="M233.56,38.21,235,40s.15,0,.18,0a1.36,1.36,0,0,0,.29-.06c.07,0,.29-.12.21-.23L234.24,38s-.15,0-.19,0a1,1,0,0,0-.28.07c-.08,0-.3.11-.21.22Z"/><path class="cls-2" d="M230,23.2a15.93,15.93,0,0,0,9-15.67c-.08-.92-.07-2.92-1.32-3.06a3.88,3.88,0,0,0-1.84.5,16.56,16.56,0,0,0-2.4,1.25,13.27,13.27,0,0,0-6.21,8.22A17.16,17.16,0,0,0,227.4,21c.13.7.28,1.87.94,2.3.49.33,1.12.08,1.61-.12s0-.48-.3-.34c-1.45.59-1.57-2.33-1.71-3.26a14.51,14.51,0,0,1-.05-5.09A12.37,12.37,0,0,1,233.13,7a15.07,15.07,0,0,1,2-1.22c.54-.27,1.91-1.11,2.46-.66.37.3.41,1.17.48,1.59A15.14,15.14,0,0,1,238.29,9a15.66,15.66,0,0,1-2,7.68,14.91,14.91,0,0,1-6.61,6.18C229.19,23.06,229.6,23.36,230,23.2Z"/><path class="cls-2" d="M229.12,23.1A27.12,27.12,0,0,1,231,18.71c.73-1.52,1.14-3.14,1.79-4.7a47.9,47.9,0,0,1,5.08-9c.27-.38-.41-.52-.61-.23a49.55,49.55,0,0,0-5,8.88c-.67,1.55-1.06,3.19-1.78,4.72A31.8,31.8,0,0,0,228.42,23c-.11.42.61.43.7.1Z"/><path class="cls-2" d="M232.9,13.66l-.15-3.19-.08-1.53a6.58,6.58,0,0,1,0-1.66c0-.17-.69-.06-.72.12a13.75,13.75,0,0,0,0,3.14l.16,3.32c0,.13.73,0,.72-.2Z"/><path class="cls-2" d="M232.86,13.78a51,51,0,0,0,5.89-3.46c.13-.09.18-.25.05-.35a.49.49,0,0,0-.52,0,48.24,48.24,0,0,1-5.73,3.36c-.44.23,0,.58.31.4Z"/><path class="cls-2" d="M231.25,17.76l-1.79-7.2c-.05-.22-.78,0-.72.19L230.52,18c.06.22.79,0,.73-.2Z"/><path class="cls-2" d="M231.14,18a43.26,43.26,0,0,0,6.33-3c.13-.07.19-.22.06-.31s-.39,0-.52.06a42.41,42.41,0,0,1-6.16,2.94c-.12.05-.29.19-.19.32s.36.07.48,0Z"/><path class="cls-2" d="M235.76,8.18a16.82,16.82,0,0,1,.18-2.83c0-.14-.73,0-.72.2A15,15,0,0,0,235,8.38c0,.16.76,0,.72-.2Z"/><path class="cls-2" d="M235.82,8.08a28.39,28.39,0,0,0,2.92-1.46c.12-.07.09-.14,0-.15a1,1,0,0,0-.51.14A25.89,25.89,0,0,1,235.4,8c-.06,0-.24.13-.09.18a.92.92,0,0,0,.51-.1Z"/><path class="cls-2" d="M229.74,21.34c-.69-1.86-1.36-3.73-2-5.6-.09-.26-.81-.06-.73.19.64,1.88,1.3,3.75,2,5.6.09.26.81,0,.72-.19Z"/><path class="cls-2" d="M229.73,21.29c1.87-.72,3.72-1.52,5.52-2.39.11,0,.21-.15.08-.23s-.39,0-.51.08q-2.62,1.28-5.36,2.32c-.08,0-.29.12-.2.24s.38,0,.47,0Z"/><path class="cls-3" d="M232.84,20.7a14.61,14.61,0,0,0-2.23-1.89,15.6,15.6,0,0,0-16.59-1c-1,.54-1.4,1-.65,1.93a15.6,15.6,0,0,0,7.48,5.3,11,11,0,0,0,5.68.26A15.5,15.5,0,0,0,230.18,24c.89-.47,2.46-1.14,3-2C233.53,21.51,233.12,21,232.84,20.7Z"/><path class="cls-1" d="M40.59,73.43a14.79,14.79,0,0,0-5.06,9.25A22.18,22.18,0,0,0,37.88,97c1.59,2.9,4.07,5.58,7.31,6.27,4,.84,7.93-1.48,11-4.19s5.7-6,9.38-7.67a22.48,22.48,0,0,0,4.31-2.06,6.42,6.42,0,0,0,2.47-5.63,6.82,6.82,0,0,0-3.36-5.19,14.09,14.09,0,0,0-3.64-1.29,89.15,89.15,0,0,1-9.79-2.7C50.51,72.7,45.52,69.61,40.59,73.43Z"/><path class="cls-2" d="M42.71,95.46a17.53,17.53,0,0,1,2.6-.29c.16,0,.38-.13.39-.31s-.18-.26-.34-.26a18.64,18.64,0,0,0-2.79.33c-.16,0-.34.19-.29.36s.28.2.43.17Z"/><path class="cls-2" d="M41.54,88l3.07-.25c.15,0,.38-.11.4-.29s-.19-.23-.33-.22l-3.07.25c-.15,0-.38.11-.4.29s.2.23.33.22Z"/><path class="cls-2" d="M47.68,91.14a24.61,24.61,0,0,0,3-.34c.15,0,.38-.1.4-.28s-.2-.24-.33-.22a26.84,26.84,0,0,1-3,.35c-.15,0-.38.11-.4.28s.19.22.33.21Z"/><path class="cls-2" d="M59.38,88.15a26,26,0,0,0,3-.43c.12,0,.35-.14.31-.3s-.31-.12-.41-.1a25.19,25.19,0,0,1-2.86.39c-.14,0-.38.1-.41.26s.21.18.32.18Z"/><path class="cls-2" d="M40.81,80.29l2.64,0a.59.59,0,0,0,.48-.2c.09-.14-.08-.22-.2-.22H41.09a.63.63,0,0,0-.48.2c-.09.15.08.23.2.23Z"/><path class="cls-2" d="M59.07,82.19h2.64c.16,0,.39-.12.4-.3s-.19-.23-.33-.23H59.14a.41.41,0,0,0-.4.3c0,.18.19.23.33.23Z"/><path class="cls-2" d="M48.79,83.21a18.84,18.84,0,0,0,3.74-.53c.15,0,.34-.17.3-.34s-.29-.17-.42-.14a19.46,19.46,0,0,1-3.55.5c-.16,0-.39.11-.4.28s.19.24.33.23Z"/><path class="cls-2" d="M52.66,86.69a19.58,19.58,0,0,0,2.53-.28c.13,0,.38-.08.41-.24s-.22-.15-.31-.13a18.42,18.42,0,0,1-2.34.27.65.65,0,0,0-.48.19c-.1.14.08.2.19.19Z"/><path class="cls-2" d="M50.48,78l2.73-.13c.14,0,.38-.1.4-.26s-.2-.19-.32-.19l-2.72.13c-.15,0-.38.11-.41.27s.21.19.32.18Z"/><path class="cls-2" d="M54.29,94.58l2.16-.27c.16,0,.38-.1.41-.28s-.2-.24-.33-.22l-2.17.27c-.15,0-.38.11-.4.28s.2.24.33.22Z"/><path class="cls-2" d="M64.32,84.3,66.87,84c.14,0,.38-.09.41-.25s-.21-.17-.31-.16l-2.55.31c-.14,0-.38.09-.42.25s.22.17.32.16Z"/><path class="cls-2" d="M38.22,89.44c1-6.54-2.88-13.23-8.74-16.06-.8-.39-2.14-1.16-3-.43a3.14,3.14,0,0,0-.66,1.86,15.76,15.76,0,0,0-.23,3.07,12.68,12.68,0,0,0,4.24,9.66,18.23,18.23,0,0,0,5.44,2.93,3.37,3.37,0,0,0,2.09.28c.58-.2.74-.76.84-1.31.07-.36-.67-.26-.73.06s-.09.73-.66.78a2.5,2.5,0,0,1-1-.25c-.66-.23-1.29-.54-1.93-.82a13.65,13.65,0,0,1-4.14-2.68,12.57,12.57,0,0,1-3.42-8.71,17.35,17.35,0,0,1,.1-2.16c.06-.54.1-2.15.64-2.44s1.33.34,1.69.5a15.47,15.47,0,0,1,7.29,7.16,14.92,14.92,0,0,1,1.43,8.62C37.44,89.86,38.18,89.76,38.22,89.44Z"/><path class="cls-2" d="M37.66,90.2a27.71,27.71,0,0,1-2.65-4c-.87-1.42-2-2.62-2.94-4a47.56,47.56,0,0,1-4.86-9.16c-.09-.24-.81,0-.72.19a48.71,48.71,0,0,0,4.74,9c.93,1.37,2.07,2.57,2.95,4A30,30,0,0,0,37,90.47c.15.18.85-.08.67-.27Z"/><path class="cls-2" d="M31.93,82.07l-2.85-1.64-1.4-.81a6.45,6.45,0,0,1-1.22-.84c-.16-.15-.83.12-.68.26a6.31,6.31,0,0,0,1.17.82l1.45.83,2.85,1.64a.59.59,0,0,0,.47,0s.33-.17.21-.24Z"/><path class="cls-2" d="M31.88,81.91a47.29,47.29,0,0,0,.27-6.73c0-.17-.73,0-.72.19A49.25,49.25,0,0,1,31.16,82c0,.23.7.09.72-.11Z"/><path class="cls-2" d="M34.42,85.64l-7-2.38c-.16-.05-.8.21-.6.28l7,2.38c.16,0,.8-.21.6-.28Z"/><path class="cls-2" d="M34.52,85.62a45.27,45.27,0,0,0,.86-6.87c0-.15-.71,0-.73.2a42.89,42.89,0,0,1-.85,6.78c0,.22.67.1.72-.11Z"/><path class="cls-2" d="M28.83,76.71c-.87-.35-1.43-1.16-2.22-1.65a.55.55,0,0,0-.47,0c-.05,0-.34.17-.2.25A16.75,16.75,0,0,0,28.25,77a.71.71,0,0,0,.51-.08c.08,0,.23-.18.07-.24Z"/><path class="cls-2" d="M28.82,76.52a25.49,25.49,0,0,0,.34-3.15c0-.33-.71-.19-.73.08a25.49,25.49,0,0,1-.34,3.15c-.05.31.68.2.73-.08Z"/><path class="cls-2" d="M36.53,88.78c-1.91-.41-3.8-.85-5.69-1.32a.7.7,0,0,0-.51.08c-.07,0-.25.2-.08.24q2.91.72,5.82,1.36a.67.67,0,0,0,.51-.14c.12-.1.09-.18,0-.22Z"/><path class="cls-2" d="M36.56,88.58c.4-1.92.72-3.86,1-5.8,0-.23-.7-.09-.72.11q-.36,2.92-1,5.8c0,.22.67.1.72-.11Z"/><path class="cls-3" d="M37.54,85.68a13.74,13.74,0,0,0-2.77.84,15.47,15.47,0,0,0-9.72,13.34c-.06,1.09.07,1.69,1.26,1.58A15.55,15.55,0,0,0,34.76,98,10.91,10.91,0,0,0,38,93.43a14.47,14.47,0,0,0,.8-3.79c.09-1,.38-2.66,0-3.61C38.59,85.53,38,85.62,37.54,85.68Z"/><path class="cls-1" d="M153.57,129.63a14,14,0,0,1,8.69-5,21,21,0,0,1,13.63,2c2.79,1.45,5.37,3.76,6.07,6.82.87,3.75-1.27,7.54-3.78,10.45s-5.57,5.51-7.12,9a22.35,22.35,0,0,1-1.88,4.13,6.13,6.13,0,0,1-5.31,2.43,6.51,6.51,0,0,1-5-3.1,13.27,13.27,0,0,1-1.27-3.44,87.2,87.2,0,0,0-2.73-9.23C153,139.05,150,134.37,153.57,129.63Z"/><path class="cls-2" d="M173.88,131.24a17.07,17.07,0,0,0-.25,2.56c0,.17.19.21.32.2s.41-.11.41-.27a16.82,16.82,0,0,1,.25-2.56c0-.32-.68-.21-.73.07Z"/><path class="cls-2" d="M166.81,130.38l-.19,2.91c0,.15.21.13.31.11s.41-.08.41-.22l.19-2.91c0-.15-.2-.13-.3-.11s-.41.08-.42.22Z"/><path class="cls-2" d="M169.89,136.19a25.71,25.71,0,0,1-.27,2.77c0,.14.21.11.29.1s.4-.08.42-.22a22.54,22.54,0,0,0,.28-2.85c0-.14-.71,0-.72.2Z"/><path class="cls-2" d="M167.27,147.3a24.21,24.21,0,0,1-.34,2.81c0,.24.69.12.73-.11a23.77,23.77,0,0,0,.33-2.8c0-.15-.2-.15-.3-.13s-.41.09-.42.23Z"/><path class="cls-2" d="M159.51,129.89l0,2.5c0,.18.18.23.33.21s.4-.1.4-.27l0-2.51c0-.17-.18-.22-.33-.21s-.4.11-.4.28Z"/><path class="cls-2" d="M161.57,147.14l0,2.51c0,.11.73,0,.73-.2l0-2.5c0-.12-.73,0-.73.19Z"/><path class="cls-2" d="M162.38,137.37a17.88,17.88,0,0,1-.43,3.42c0,.24.67.12.72-.1a18,18,0,0,0,.43-3.51c0-.18-.72-.07-.72.19Z"/><path class="cls-2" d="M165.81,141a18,18,0,0,1-.23,2.32c-.05.3.69.18.73-.08a18,18,0,0,0,.22-2.32c0-.16-.19-.19-.32-.18s-.4.1-.4.26Z"/><path class="cls-2" d="M157.49,139l-.08,2.59c0,.38.73.28.74-.05l.07-2.59c0-.38-.72-.28-.73.05Z"/><path class="cls-2" d="M173.26,142.35l-.23,2.06c0,.16.21.17.32.15s.39-.09.41-.24l.22-2.06c0-.16-.2-.18-.31-.16s-.39.09-.41.25Z"/><path class="cls-2" d="M163.72,152.05l-.25,2.42c0,.16.2.16.31.15s.39-.09.41-.24l.25-2.43c0-.15-.2-.16-.31-.14s-.4.09-.41.24Z"/><path class="cls-2" d="M168.77,126.54a14.4,14.4,0,0,1-13.37-5.44,13.5,13.5,0,0,1-2-3.34c-.25-.64-.38-1.11.37-1.41a9.06,9.06,0,0,1,2.49-.39,12.22,12.22,0,0,1,9,2.69,12,12,0,0,1,2.88,4c.31.65.63,1.29.89,2s.67,1.74-.37,2c-.45.09-.34.5.11.41s1-.23,1.25-.69a2.64,2.64,0,0,0-.27-1.86,19.11,19.11,0,0,0-2.34-4.45,11.83,11.83,0,0,0-9.19-4.49,12,12,0,0,0-5,.59c-1.16.49-.76,1.5-.34,2.42a15.09,15.09,0,0,0,6.14,6.68,14.82,14.82,0,0,0,9.6,1.82C169.05,126.93,169.27,126.46,168.77,126.54Z"/><path class="cls-2" d="M169.88,126.09a25.71,25.71,0,0,0-3.74-2.42c-1.4-.82-2.59-1.89-3.94-2.79a45.45,45.45,0,0,0-8.88-4.5c-.26-.1-.84.28-.43.44a44.66,44.66,0,0,1,8.74,4.45c1.27.84,2.39,1.86,3.71,2.65a26.21,26.21,0,0,1,3.87,2.48c.22.18.9-.11.67-.31Z"/><path class="cls-2" d="M162.09,120.84l-1.62-2.71c-.27-.44-.53-.88-.79-1.32a6,6,0,0,0-.82-1.13c-.14-.14-.81.12-.68.26a5.91,5.91,0,0,1,.83,1.15l.78,1.32,1.58,2.63c.11.19.79-.08.72-.2Z"/><path class="cls-2" d="M161.54,120.62a46.3,46.3,0,0,1-6.34.36c-.41,0-.55.53-.06.54a46.4,46.4,0,0,0,6.34-.37c.15,0,.38-.11.39-.29s-.18-.26-.33-.24Z"/><path class="cls-2" d="M165.54,123.19l-2.38-6.58c-.06-.16-.77.06-.72.19l2.37,6.58c.06.16.78-.06.73-.19Z"/><path class="cls-2" d="M165,123.16a39,39,0,0,1-6.27.9c-.14,0-.4,0-.48.19s.06.19.19.19a43.85,43.85,0,0,0,6.65-1c.09,0,.35-.12.32-.26s-.32-.08-.41-.06Z"/><path class="cls-2" d="M157,118c-.35-.84-1.14-1.37-1.63-2.12-.11-.17-.77.11-.72.2.48.75,1.27,1.28,1.62,2.12.05.1.32,0,.39,0s.38-.11.34-.21Z"/><path class="cls-2" d="M156.27,117.84a23.12,23.12,0,0,1-2.88.36c-.15,0-.38.11-.41.28s.21.21.33.2a26.45,26.45,0,0,0,3.08-.39c.13,0,.35-.16.31-.32s-.3-.15-.43-.13Z"/><path class="cls-2" d="M168.59,125.2q-.65-2.73-1.37-5.43c-.09-.33-.81-.14-.73.19.49,1.8.94,3.62,1.37,5.43.08.33.81.14.73-.19Z"/><path class="cls-2" d="M167.85,125q-2.67.61-5.39,1c-.16,0-.38.11-.4.3s.19.26.34.24c1.87-.26,3.74-.6,5.58-1,.15,0,.35-.18.3-.35s-.29-.19-.43-.16Z"/><path class="cls-3" d="M165.13,126.53a14,14,0,0,1,.75-2.65,14.69,14.69,0,0,1,12.49-9.43c1-.08,1.61,0,1.52,1.16a14.63,14.63,0,0,1-3.08,8.07,10.34,10.34,0,0,1-4.32,3.18,14.11,14.11,0,0,1-3.58.82,8.44,8.44,0,0,1-3.43,0C165,127.52,165.08,126.94,165.13,126.53Z"/><path class="cls-1" d="M294.05,160.25c-.72-3.81.49-7.79,2.53-11.09a23.87,23.87,0,0,1,12.15-9.89c3.36-1.21,7.28-1.6,10.39.16,3.8,2.16,5.34,6.86,5.84,11.21s.34,8.89,2.09,12.9a24.35,24.35,0,0,1,2,4.75,6.9,6.9,0,0,1-2,6.31,7.38,7.38,0,0,1-6.42,1.79,15.21,15.21,0,0,1-3.86-1.57,98.23,98.23,0,0,0-9.83-4.82C301.53,167.93,295.3,166.86,294.05,160.25Z"/><path class="cls-2" d="M310.93,144.28a19.11,19.11,0,0,0,1.95,2.17c.12.11.36.05.48,0s.31-.16.2-.27a19.3,19.3,0,0,1-2-2.18s-.14-.05-.19-.05a.67.67,0,0,0-.28.06c-.09,0-.3.14-.2.27Z"/><path class="cls-2" d="M304.75,149.51l2.3,2.4a.28.28,0,0,0,.18,0,.94.94,0,0,0,.29-.06c.06,0,.3-.12.21-.21l-2.3-2.4a.28.28,0,0,0-.18,0,.94.94,0,0,0-.29.06c-.06,0-.3.12-.21.21Z"/><path class="cls-2" d="M312,151.38a27.13,27.13,0,0,1,2.15,2.39c.15.19.85-.06.67-.28a27,27,0,0,0-2.14-2.39c-.18-.18-.87.09-.68.28Z"/><path class="cls-2" d="M319.29,162.14a28.6,28.6,0,0,1,2.09,2.44s.15,0,.19,0a.71.71,0,0,0,.28-.06c.08,0,.29-.13.21-.24a27,27,0,0,0-2.1-2.44c-.14-.15-.82.11-.67.26Z"/><path class="cls-2" d="M298.75,155.26l2.12,1.9s.14,0,.19,0a1,1,0,0,0,.28-.07c.05,0,.31-.12.21-.2L299.43,155s-.14,0-.18,0a1.15,1.15,0,0,0-.28.06c-.06,0-.32.13-.22.21Z"/><path class="cls-2" d="M314.74,166.76l2.12,1.9c.12.11.35.05.48,0s.32-.16.2-.27l-2.12-1.9c-.12-.11-.35-.05-.48,0s-.32.17-.2.27Z"/><path class="cls-2" d="M307.17,158.57a21.3,21.3,0,0,1,2.58,3s.15,0,.19,0a.71.71,0,0,0,.28-.06c.08,0,.29-.12.21-.23a21.3,21.3,0,0,0-2.58-3c-.15-.14-.83.13-.68.26Z"/><path class="cls-2" d="M312.92,158.58a18.21,18.21,0,0,1,1.77,2c.18.23.88,0,.67-.3a19.33,19.33,0,0,0-1.77-2,.44.44,0,0,0-.48,0c-.1,0-.31.2-.19.33Z"/><path class="cls-2" d="M304.9,164.06l2.11,2.05a.42.42,0,0,0,.52,0,.24.24,0,0,0,0-.39l-2.11-2.06a.45.45,0,0,0-.52,0,.25.25,0,0,0,0,.4Z"/><path class="cls-2" d="M319.75,153.32l1.55,1.77s.15,0,.18,0a.94.94,0,0,0,.29-.06c.07,0,.3-.12.21-.23l-1.55-1.77s-.15,0-.19,0a1.27,1.27,0,0,0-.28.06c-.07,0-.3.12-.21.23Z"/><path class="cls-2" d="M320.54,168.78l1.84,2.08c.16.18.86-.08.67-.29l-1.84-2.07c-.17-.19-.86.07-.67.28Z"/><path class="cls-2" d="M303,145.33a16.19,16.19,0,0,1-15.22,6.95,10.56,10.56,0,0,1-4.25-1.12c-1.28-.84.68-3,1.32-3.82a14.1,14.1,0,0,1,8.62-5.46,13.79,13.79,0,0,1,6.27.71c.74.23,1.5.44,2.21.74a4.89,4.89,0,0,1,.9.49c.59.42.49,1,.15,1.51-.18.31.55.25.68,0,.3-.49.58-1,.19-1.55a4.33,4.33,0,0,0-1.94-1.08,22.14,22.14,0,0,0-5.54-1.37,13.66,13.66,0,0,0-10.44,4,14.41,14.41,0,0,0-3.49,4.64c-.54,1.34.81,1.74,1.86,2.07A17.28,17.28,0,0,0,294.7,152a16.87,16.87,0,0,0,8.95-6.64C303.84,145.07,303.11,145.11,303,145.33Z"/><path class="cls-2" d="M303.66,144.13a32.52,32.52,0,0,0-5.3,1.38c-1.73.52-3.53.68-5.28,1.12a52.59,52.59,0,0,0-10.5,4c-.43.21.25.15.41.07a50.24,50.24,0,0,1,10.14-3.83c1.5-.38,3.05-.51,4.55-.91a43,43,0,0,1,5.66-1.52c.18,0,.79-.33.32-.27Z"/><path class="cls-2" d="M293.17,146.46l-3.47-.71a15,15,0,0,0-3.39-.55c-.41,0-.55.57-.06.55a7.48,7.48,0,0,1,1.7.23l1.64.34,3.34.68c.36.08.72-.44.24-.54Z"/><path class="cls-2" d="M292.5,146.88a51.09,51.09,0,0,1-4.57,5.59c-.12.13.1.18.19.18a.71.71,0,0,0,.48-.19,52,52,0,0,0,4.56-5.59c.17-.24-.54-.16-.66,0Z"/><path class="cls-2" d="M297.87,145.39l-7.34-3.06c-.33-.14-.84.33-.41.51l7.33,3.07c.33.13.84-.34.42-.52Z"/><path class="cls-2" d="M297.28,145.76a46.41,46.41,0,0,1-4.19,6.13c-.11.13.09.18.19.19a.65.65,0,0,0,.48-.19,46.41,46.41,0,0,0,4.19-6.13c.15-.28-.56-.19-.67,0Z"/><path class="cls-2" d="M287.07,148.7c-1-.36-2.06-.11-3.09-.29a.71.71,0,0,0-.51.13c-.12.1-.09.2.06.23a16.28,16.28,0,0,1,3,.25.62.62,0,0,0,.51-.08c.08,0,.23-.19.07-.24Z"/><path class="cls-2" d="M286.15,149a28.62,28.62,0,0,1-2,2.79c-.11.14.09.22.19.23a.64.64,0,0,0,.48-.2,28.22,28.22,0,0,0,2-2.79c.09-.15-.08-.22-.2-.23a.61.61,0,0,0-.48.2Z"/><path class="cls-2" d="M302,144.44q-2.78-1.56-5.6-3a.49.49,0,0,0-.52.05c-.11.07-.21.27,0,.35q2.82,1.49,5.6,3a.51.51,0,0,0,.52,0c.11-.09.2-.27,0-.36Z"/><path class="cls-2" d="M301,144.9c-1,1.83-2.17,3.63-3.37,5.37-.07.1.26.06.28.06s.35-.07.43-.19c1.2-1.75,2.33-3.54,3.37-5.38.07-.11-.25-.06-.28,0s-.36.07-.43.19Z"/><path class="cls-3" d="M300.35,148.18a15.68,15.68,0,0,1-1.64-2.66,16.68,16.68,0,0,1,1.69-17.72c.73-.93,1.26-1.32,2.14-.38a16.74,16.74,0,0,1,4.4,8.79,11.77,11.77,0,0,1-.66,6,16.27,16.27,0,0,1-2.06,3.63c-.65.88-1.6,2.43-2.61,2.91C301.09,149.05,300.65,148.54,300.35,148.18Z"/><path class="cls-1" d="M409.31,28.67c1.9-3.38,5.38-5.65,9.06-6.89A23.89,23.89,0,0,1,434,22c3.36,1.22,6.61,3.44,7.87,6.78,1.53,4.1-.31,8.69-2.71,12.35s-5.45,7-6.68,11.24A24.42,24.42,0,0,1,431,57.3a6.94,6.94,0,0,1-5.62,3.53,7.4,7.4,0,0,1-6.08-2.74,15.26,15.26,0,0,1-1.95-3.68,97.35,97.35,0,0,0-4.45-10C410.12,39.37,406,34.54,409.31,28.67Z"/><path class="cls-2" d="M432.49,27.41a21.06,21.06,0,0,0,.1,3c0,.21.76.06.73-.19a18.5,18.5,0,0,1-.11-2.88c0-.15-.2-.15-.3-.13s-.41.09-.42.23Z"/><path class="cls-2" d="M424.39,27.52l.22,3.31c0,.12.74,0,.73-.19l-.23-3.31c0-.12-.74,0-.72.19Z"/><path class="cls-2" d="M428.72,33.56a26.49,26.49,0,0,1,.11,3.21c0,.17.72.06.72-.19a26.59,26.59,0,0,0-.1-3.22c0-.19-.75,0-.73.2Z"/><path class="cls-2" d="M427.44,46.53a27.77,27.77,0,0,1,0,3.16c0,.16.19.17.31.16s.41-.1.41-.25a27.45,27.45,0,0,0,0-3.27c0-.23-.74-.08-.72.2Z"/><path class="cls-2" d="M416.1,28.08l.4,2.82c0,.18.3.2.43.16a.34.34,0,0,0,.3-.35l-.41-2.82c0-.18-.3-.2-.43-.16a.33.33,0,0,0-.29.35Z"/><path class="cls-2" d="M421,47.15,421.4,50c0,.18.29.2.43.17s.32-.18.29-.36L421.71,47c0-.19-.29-.21-.43-.17a.34.34,0,0,0-.29.36Z"/><path class="cls-2" d="M420.43,36a20.33,20.33,0,0,1,0,3.9c0,.37.7.26.73-.06a21,21,0,0,0,0-4c0-.32-.77-.14-.73.2Z"/><path class="cls-2" d="M424.85,39.69a20.48,20.48,0,0,1,.1,2.6c0,.16.19.17.31.15s.41-.09.41-.24a20.31,20.31,0,0,0-.09-2.7c0-.15-.32-.11-.41-.09s-.33.12-.32.28Z"/><path class="cls-2" d="M415.18,38.66l.3,2.93c0,.13.74,0,.73-.19l-.3-2.93c0-.12-.75,0-.73.19Z"/><path class="cls-2" d="M433.45,40.06l.05,2.35c0,.12.73,0,.73-.19l-.06-2.36c0-.12-.72,0-.72.2Z"/><path class="cls-2" d="M424.14,52.34l.08,2.78c0,.18.17.25.34.24s.4-.12.39-.3l-.08-2.77c0-.18-.17-.26-.33-.25s-.41.12-.4.3Z"/><path class="cls-2" d="M425.94,23.06c-5.58,1.73-11.91-.26-16-4.31a14.69,14.69,0,0,1-2.67-3.51c-.48-.92-.4-1.39.67-1.83a15.08,15.08,0,0,1,13.11,1.17,14.65,14.65,0,0,1,3.85,4.26c.59.92,2.79,3.61.93,4.25-.49.17,0,.27.25.18a2.21,2.21,0,0,0,1.16-.68c.4-.66-.24-1.7-.56-2.27a21.76,21.76,0,0,0-3.19-4.47,13.26,13.26,0,0,0-10.66-3.73,16.93,16.93,0,0,0-5.56,1.28c-1.47.65-1,1.63-.28,2.79a17,17,0,0,0,8,6.57,16.91,16.91,0,0,0,11,.54C426.42,23.17,426.37,22.93,425.94,23.06Z"/><path class="cls-2" d="M427.1,22.27a30.65,30.65,0,0,0-4.71-2.22c-1.7-.72-3.2-1.76-4.85-2.56a53.41,53.41,0,0,0-10.48-3.67c-.3-.07-.86.37-.43.47a51.06,51.06,0,0,1,10.67,3.76c1.48.74,2.83,1.67,4.35,2.34a32.86,32.86,0,0,1,4.88,2.28c.26.17.9-.19.57-.4Z"/><path class="cls-2" d="M417.55,17.53l-2.22-2.79c-.35-.46-.71-.91-1.07-1.36a6.66,6.66,0,0,0-1.09-1.16c-.19-.14-.85.14-.68.27a6.61,6.61,0,0,1,1.06,1.12l1.11,1.4,2.22,2.79c.13.17.83-.08.67-.27Z"/><path class="cls-2" d="M416.91,17.47a53.54,53.54,0,0,1-7,1.34c-.11,0-.41.09-.41.23s.2.15.3.14A54.62,54.62,0,0,0,417,17.8c.1,0,.35-.12.32-.27s-.32-.09-.41-.06Z"/><path class="cls-2" d="M421.81,19.69l-3.66-7.06c-.11-.21-.81,0-.73.2l3.66,7.06c.11.21.81,0,.73-.2Z"/><path class="cls-2" d="M421.19,19.68a46.38,46.38,0,0,1-7.05,2c-.11,0-.35.14-.3.29s.3.13.41.1a47.63,47.63,0,0,0,7.23-2c.13-.05.28-.18.19-.31s-.37-.06-.48,0Z"/><path class="cls-2" d="M411.37,15.11A4.27,4.27,0,0,0,410.32,14l-.58-.49a4.18,4.18,0,0,1-.52-.51.41.41,0,0,0-.49-.07c-.12.07-.29.25-.17.39a9,9,0,0,0,1.16,1.07,4.24,4.24,0,0,1,1,1.08c.09.16.36.14.49.07s.27-.23.17-.39Z"/><path class="cls-2" d="M410.57,15.12a27.51,27.51,0,0,1-3.12.82c-.11,0-.39.07-.42.21s.23.13.3.11a29.5,29.5,0,0,0,3.5-.92c.08,0,.3-.13.21-.24s-.38,0-.47,0Z"/><path class="cls-2" d="M425.55,21.5c-.76-2-1.54-4-2.36-5.92-.13-.32-.85-.12-.72.2.81,2,1.6,3.93,2.35,5.92.13.33.85.12.73-.2Z"/><path class="cls-2" d="M424.7,21.46q-2.93,1.09-5.94,1.93c-.07,0-.36.1-.33.21s.34,0,.39,0q3.1-.87,6.13-2c.07,0,.28-.09.22-.2s-.41,0-.47,0Z"/><path class="cls-3" d="M421.88,23.45a15.6,15.6,0,0,1,.45-3.09A16.72,16.72,0,0,1,435,7.85c1.15-.24,1.81-.2,1.89,1.09a16.72,16.72,0,0,1-2.27,9.55,11.58,11.58,0,0,1-4.39,4.23,16.17,16.17,0,0,1-3.91,1.46c-1.06.26-2.78.83-3.86.56C421.9,24.59,421.89,23.92,421.88,23.45Z"/><path class="cls-4" d="M219.39,138.66a12.74,12.74,0,0,0-3.26-.23c0-.49-.09-1-.16-1.47a8.82,8.82,0,0,0-.24-1.54c.05.14-.18.31-.26.41a9.35,9.35,0,0,1-1,1,3.43,3.43,0,0,1-.58.42c-.08.05-.19.15-.29.11s-.12-.17-.14-.25a5.13,5.13,0,0,0-2.08-2.89,4.67,4.67,0,0,0,0,.75,11.53,11.53,0,0,1-.13,2.49,5.68,5.68,0,0,1-3.85,4.08,26.17,26.17,0,0,1-5,1.18c-9,1.67-18.48,8.81-17.56,18.91a14.25,14.25,0,0,0,.25,1.72,11.8,11.8,0,0,0,1.54,4,8.42,8.42,0,0,0,1.82,1.9c.37.32.75.63,1.11,1a6.38,6.38,0,0,1,.53.51c.12.13.37.29.36.48s-.41.35-.59.4a3.91,3.91,0,0,1-1.8,0c.1,0,.24.16.33.21l.45.23a4,4,0,0,0,.95.34,6.9,6.9,0,0,0,1.21.14,2.55,2.55,0,0,0,.93-.2,1.13,1.13,0,0,0-.08.22,2,2,0,0,1-.13.25,3.07,3.07,0,0,1-.57.72l-.52.5c-.08.09-.07.18,0,.22a1.45,1.45,0,0,0,.55,0,3.35,3.35,0,0,0,1.81-.72c.05,0,.31-.18.3-.26A6.56,6.56,0,0,0,195,177a7.32,7.32,0,0,1,.46-3.14A12.61,12.61,0,0,0,205,175.1c6.87-1.63,12.65-5.56,13.93-12.61.79-4.33-.45-9.74-1.57-14a12.14,12.14,0,0,1,.83-8,5.44,5.44,0,0,1,1.4-1.79Z"/><path class="cls-4" d="M215.22,136.39c-.19-.42-.4-.84-.62-1.25-.11-.19-.44-.1-.59,0l-1.24.79c-.1.07-.22.21-.06.28a.58.58,0,0,0,.51-.06l1.24-.8h-.59c.23.41.43.83.63,1.25.06.14.29.12.41.08s.37-.13.31-.27Z"/><path class="cls-4" d="M218.29,138.34a10.75,10.75,0,0,0,0-1.7c0-.12-.23-.17-.33-.15-.63.1-1.26.2-1.89.32-.14,0-.35.17-.3.33s.29.17.42.14l.44-.08h.06l.11,0,.21,0,.88-.15-.33-.15a9.13,9.13,0,0,1,0,1.57c0,.17.19.23.33.22s.39-.11.4-.29Z"/><g class="cls-5"><path class="cls-6" d="M211.33,145.72a3.55,3.55,0,0,1-.06,1c-1,5.31,1.83,11.09-.54,16.29-1.75,3.84-6.06,6.83-10.56,6.21a8.89,8.89,0,0,1-7.79-7.81,9.25,9.25,0,0,1,2.8-6.7c2-2,4.71-3.15,7.26-4.31a35,35,0,0,0,4.18-2.13,24,24,0,0,0,3.29-3,.92.92,0,0,1,1.06-.18A.83.83,0,0,1,211.33,145.72Z"/></g><path class="cls-2" d="M200.63,161.66l.68.31.47.22a.36.36,0,0,1,.18.22c0,.23-.29.35-.44.43l-.81.41a.47.47,0,0,1-.43.05,1.35,1.35,0,0,1-.46-.66c-.12-.27-.29-.8,0-1a.48.48,0,0,1,.4-.1A1.42,1.42,0,0,1,200.63,161.66Z"/><path class="cls-2" d="M206.19,154.53c.22.11.45.2.68.3l.47.22a.37.37,0,0,1,.18.23c.06.22-.29.35-.44.42l-.81.41a.45.45,0,0,1-.42,0,1.29,1.29,0,0,1-.47-.65c-.11-.28-.29-.8,0-1a.48.48,0,0,1,.4-.1A1.06,1.06,0,0,1,206.19,154.53Z"/><path class="cls-2" d="M202.27,154.37c-.17.18-.32.38-.48.57l-.34.4a.33.33,0,0,1-.26.11c-.23,0-.26-.37-.29-.54s-.13-.59-.19-.89a.45.45,0,0,1,.07-.42,1.36,1.36,0,0,1,.76-.28c.29,0,.84-.06,1,.25a.53.53,0,0,1,0,.41A1.51,1.51,0,0,1,202.27,154.37Z"/><path class="cls-2" d="M203.73,165.23c0,.24,0,.49-.07.74s0,.37-.06.52a.35.35,0,0,1-.15.24c-.2.12-.42-.16-.54-.28l-.65-.64a.47.47,0,0,1-.19-.39,1.28,1.28,0,0,1,.48-.65c.22-.19.66-.53,1-.37a.51.51,0,0,1,.22.35A1.11,1.11,0,0,1,203.73,165.23Z"/><path class="cls-2" d="M196.32,159.75c0,.25,0,.5-.07.74s0,.38-.06.52a.35.35,0,0,1-.15.25c-.2.12-.42-.17-.54-.29l-.65-.63a.48.48,0,0,1-.19-.39,1.28,1.28,0,0,1,.48-.65c.22-.2.66-.53,1-.37a.51.51,0,0,1,.22.35A1.07,1.07,0,0,1,196.32,159.75Z"/><path class="cls-2" d="M209.32,151.85c0,.25,0,.5-.07.74s0,.38-.06.53a.4.4,0,0,1-.16.24c-.19.12-.42-.17-.54-.28s-.43-.43-.65-.64a.47.47,0,0,1-.18-.39,1.32,1.32,0,0,1,.47-.65c.22-.19.66-.53,1-.37a.52.52,0,0,1,.23.35A1.49,1.49,0,0,1,209.32,151.85Z"/><path class="cls-6" d="M200.08,157.5c0,.25,0,.5-.07.74s0,.37-.06.52a.35.35,0,0,1-.15.25c-.2.12-.43-.17-.55-.29l-.65-.63a.47.47,0,0,1-.18-.39,1.32,1.32,0,0,1,.47-.65c.22-.2.67-.53,1-.37a.52.52,0,0,1,.22.35A1.49,1.49,0,0,1,200.08,157.5Z"/><path class="cls-2" d="M199.79,157.53c-.06.41-.07.82-.13,1.23a.38.38,0,0,1,0,.1v0h0a.18.18,0,0,1,.12,0c.06,0,.07,0,0,0l-.1-.08c-.13-.11-.25-.25-.38-.37s-.33-.31-.48-.48a.3.3,0,0,1,0-.41,1.8,1.8,0,0,1,.32-.35,2.52,2.52,0,0,1,.33-.24l.12-.05s0,0,0,0h0s0,0,0,0l.06,0a.79.79,0,0,1,.09.64c0,.27.55.19.58-.05a1.11,1.11,0,0,0-.11-.8.66.66,0,0,0-.69-.22,2.18,2.18,0,0,0-1.17.76.82.82,0,0,0-.27.66c.05.26.32.45.5.62l.53.52a.66.66,0,0,0,.74.16c.31-.15.35-.45.38-.76s.05-.63.09-.94S199.82,157.28,199.79,157.53Z"/><path class="cls-6" d="M205.09,151.88c0,.25-.05.49-.08.74s0,.37,0,.52a.4.4,0,0,1-.16.24c-.2.12-.42-.16-.54-.28l-.65-.64a.44.44,0,0,1-.18-.38c0-.25.29-.5.47-.66s.66-.52,1-.36a.54.54,0,0,1,.23.34A1.55,1.55,0,0,1,205.09,151.88Z"/><path class="cls-2" d="M204.8,151.92c-.06.4-.07.82-.13,1.23a.61.61,0,0,1,0,.11c0,.08-.06.05.09,0s.11,0,.05-.05l-.09-.08-.39-.38c-.16-.16-.33-.31-.48-.48a.34.34,0,0,1,0-.44,1.79,1.79,0,0,1,.68-.63l.08,0s.09,0,0,0h0a.22.22,0,0,1,.09.07.83.83,0,0,1,.1.67c0,.22.55.11.58-.08a1.08,1.08,0,0,0-.11-.77.64.64,0,0,0-.68-.19,2.25,2.25,0,0,0-1.19.77.76.76,0,0,0-.26.61.66.66,0,0,0,.17.29l.32.31c.18.18.35.36.53.53a.68.68,0,0,0,.73.12.62.62,0,0,0,.34-.35,1.5,1.5,0,0,0,.05-.37c0-.32.05-.64.1-.95S204.82,151.72,204.8,151.92Z"/><path class="cls-2" d="M206.19,158.81c.24-.07.47-.16.7-.24l.5-.17a.42.42,0,0,1,.29,0c.19.13,0,.45,0,.61s-.21.57-.31.86a.48.48,0,0,1-.27.33,1.3,1.3,0,0,1-.79-.16c-.27-.12-.76-.38-.74-.73a.46.46,0,0,1,.22-.34A1.3,1.3,0,0,1,206.19,158.81Z"/><path class="cls-2" d="M196.6,155.36c.24-.07.46-.16.7-.24s.35-.13.5-.17a.38.38,0,0,1,.28,0c.19.13,0,.45,0,.61l-.3.86a.48.48,0,0,1-.27.33,1.32,1.32,0,0,1-.8-.16c-.26-.12-.75-.38-.74-.73a.55.55,0,0,1,.22-.35A1.58,1.58,0,0,1,196.6,155.36Z"/><path class="cls-2" d="M203.15,158.46c-.08.24-.14.48-.21.72s-.1.36-.15.5a.37.37,0,0,1-.2.21c-.21.08-.38-.24-.48-.38l-.52-.74a.47.47,0,0,1-.11-.42c.07-.23.38-.44.58-.55s.75-.4,1-.19a.51.51,0,0,1,.16.39A1.5,1.5,0,0,1,203.15,158.46Z"/><path class="cls-2" d="M197.21,164.19c-.23.1-.44.22-.67.33l-.47.23a.41.41,0,0,1-.29,0c-.2-.11-.08-.45,0-.61s.13-.6.19-.89a.45.45,0,0,1,.23-.36,1.26,1.26,0,0,1,.81.05c.28.09.79.29.82.63a.54.54,0,0,1-.17.38A1.3,1.3,0,0,1,197.21,164.19Z"/><path class="cls-6" d="M205.64,162l.7.25.49.18a.35.35,0,0,1,.2.21c.07.22-.26.37-.41.45l-.77.48a.49.49,0,0,1-.42.09,1.31,1.31,0,0,1-.52-.62c-.14-.26-.35-.77-.12-1a.51.51,0,0,1,.39-.14A1.27,1.27,0,0,1,205.64,162Z"/><path class="cls-2" d="M205.47,162.21c.21.09.43.15.64.23l.28.1a1.48,1.48,0,0,1,.27.1s0,0,.06.05l0,0s0,.05,0,0,0,0,0,0l0,0s0,0,0,0l-.07,0s0,0,0,0l0,0-.24.15-.61.38a1.34,1.34,0,0,1-.12.06h0a.35.35,0,0,1-.15-.13,2,2,0,0,1-.43-.85.91.91,0,0,1,0-.23.64.64,0,0,1,0-.09s0-.06,0,0,0,0,0,0,0,0,0,0,.05,0,.05,0h0a1.08,1.08,0,0,1,.35.1.37.37,0,0,0,.41-.11.18.18,0,0,0-.08-.3,1.38,1.38,0,0,0-.87-.11.71.71,0,0,0-.53.55,1.17,1.17,0,0,0,.12.66,2.55,2.55,0,0,0,.29.57.93.93,0,0,0,.6.44,1.32,1.32,0,0,0,.86-.33l.65-.39c.18-.11.41-.27.41-.52s-.37-.45-.63-.55-.61-.2-.9-.32a.4.4,0,0,0-.41.11A.18.18,0,0,0,205.47,162.21Z"/><path class="cls-6" d="M209.1,157.07c.09-.24.15-.47.24-.71s.11-.35.17-.49a.35.35,0,0,1,.2-.21c.22-.07.38.26.47.4l.49.77a.46.46,0,0,1,.09.42c-.08.23-.4.42-.61.53s-.76.36-1,.13a.53.53,0,0,1-.14-.38A1.25,1.25,0,0,1,209.1,157.07Z"/><path class="cls-2" d="M209.38,157c.09-.22.15-.45.23-.68a5.14,5.14,0,0,1,.2-.55l.07-.08-.16,0c-.16,0-.2,0-.13,0l0,0a.46.46,0,0,1,.15.16c.1.14.19.3.28.44s.27.39.38.6a.4.4,0,0,1-.08.5,2.16,2.16,0,0,1-.4.27s0,0,0,0l-.05,0-.1.05-.08,0h-.06a.33.33,0,0,1-.34-.2,1,1,0,0,1,.07-.68c0-.09-.19,0-.23,0s-.3.06-.34.16a1,1,0,0,0-.08.72.49.49,0,0,0,.52.28,2.6,2.6,0,0,0,1.41-.51c.17-.12.39-.29.41-.52a.62.62,0,0,0-.11-.34l-.26-.4c-.12-.2-.24-.41-.37-.59a.55.55,0,0,0-.19-.18.61.61,0,0,0-.42,0,.8.8,0,0,0-.43.24,1.12,1.12,0,0,0-.16.37c-.11.31-.2.63-.32.94,0,.09.2,0,.23,0S209.35,157.11,209.38,157Z"/><path class="cls-6" d="M198.69,166.32c.09-.23.15-.47.24-.7l.17-.5a.37.37,0,0,1,.21-.2c.22-.07.37.25.46.4l.49.76a.46.46,0,0,1,.09.42c-.08.23-.4.42-.61.53s-.76.37-1,.14a.55.55,0,0,1-.14-.39A1.49,1.49,0,0,1,198.69,166.32Z"/><path class="cls-2" d="M199,166.35c.08-.22.15-.46.23-.68a4.12,4.12,0,0,1,.18-.53l0,0s-.11,0-.12,0h0l0,0h0l.08.1.27.42c.12.2.26.39.38.6a.3.3,0,0,1-.08.39,1.51,1.51,0,0,1-.35.23l-.19.09a.86.86,0,0,1-.21.07.28.28,0,0,1-.18,0h0l0,0a.18.18,0,0,1-.05-.07.74.74,0,0,1,.06-.6c.11-.3-.47-.29-.56-.06a1.25,1.25,0,0,0-.1.78.61.61,0,0,0,.56.4,2.31,2.31,0,0,0,1.35-.48,1,1,0,0,0,.44-.59c0-.28-.2-.55-.34-.77l-.39-.62a.59.59,0,0,0-.57-.3.66.66,0,0,0-.45.25,1.32,1.32,0,0,0-.18.4c-.11.31-.2.62-.32.93S198.88,166.58,199,166.35Z"/><path class="cls-4" d="M357,10.58a12.85,12.85,0,0,0-.85,3.16c-.49-.06-1-.1-1.47-.13a9.05,9.05,0,0,0-1.56-.06c.14,0,.27.24.35.34a10.37,10.37,0,0,1,.8,1.16c.11.21.21.42.3.64s.11.22,0,.31-.18.09-.27.1a5.08,5.08,0,0,0-3.23,1.47,4.06,4.06,0,0,0,.73.15,11.76,11.76,0,0,1,2.42.61,5.67,5.67,0,0,1,3.26,4.56,26.16,26.16,0,0,1,.19,5.16c-.1,9.14,5.09,19.83,15.17,20.87a14.28,14.28,0,0,0,1.74.09,11.75,11.75,0,0,0,4.23-.74,8.83,8.83,0,0,0,2.21-1.41c.39-.31.76-.62,1.16-.92.19-.14.39-.28.6-.41s.36-.31.55-.27.25.47.27.66a4,4,0,0,1-.29,1.77c0-.09.19-.2.26-.28s.22-.26.32-.39a4.22,4.22,0,0,0,.51-.87,6.53,6.53,0,0,0,.37-1.16,2.76,2.76,0,0,0,0-1,.76.76,0,0,0,.2.12l.22.17a4,4,0,0,1,.6.7c.13.2.24.41.38.61s.16.11.23,0a1.42,1.42,0,0,0,.12-.54,3,3,0,0,0,0-.67,3.66,3.66,0,0,0-.36-1.25c0-.06-.12-.33-.2-.34a6.59,6.59,0,0,0,3.94-.92,7.51,7.51,0,0,1-3-1.06,12.71,12.71,0,0,0,3-9.15c-.28-7.06-3-13.48-9.69-16.1-4.09-1.61-9.64-1.43-14-1.16a12.18,12.18,0,0,1-7.71-2.35,5.58,5.58,0,0,1-1.49-1.72Z"/><path class="cls-4" d="M354,14.46c-.46.1-.9.23-1.35.37a.58.58,0,0,0-.24.11s-.1.08-.08.14l.54,1.37c.05.13.3.08.4.05a.57.57,0,0,0,.25-.11s.09-.08.07-.14L353,14.88l-.33.25c.45-.14.9-.26,1.35-.37.09,0,.36-.11.32-.25s-.32-.07-.4,0Z"/><path class="cls-4" d="M356.74,11.81a10.61,10.61,0,0,0-1.67-.29.72.72,0,0,0-.41.08c-.08,0-.18.08-.19.18,0,.6,0,1.21-.05,1.82,0,.14.73,0,.73-.2,0-.6,0-1.21.05-1.82l-.6.26a10,10,0,0,1,1.55.27.76.76,0,0,0,.51-.08c.06,0,.25-.18.08-.22Z"/><g class="cls-5"><path class="cls-6" d="M362.37,19.85a3.61,3.61,0,0,1,.95.25c5,2,11.24.34,15.88,3.67,3.43,2.46,5.53,7.26,4.06,11.56a8.88,8.88,0,0,1-9.16,6.13,9.18,9.18,0,0,1-6-4c-1.55-2.38-2.18-5.23-2.83-7.95A34.86,34.86,0,0,0,363.94,25a23.57,23.57,0,0,0-2.27-3.8.91.91,0,0,1,0-1.07A.84.84,0,0,1,362.37,19.85Z"/></g><path class="cls-2" d="M376,33.43c.15-.2.28-.41.43-.61s.21-.31.31-.42a.35.35,0,0,1,.25-.14c.23,0,.29.36.33.52s.17.58.25.87a.5.5,0,0,1,0,.43,1.26,1.26,0,0,1-.74.33c-.29.06-.84.13-1-.16a.55.55,0,0,1,0-.42A1.28,1.28,0,0,1,376,33.43Z"/><path class="cls-2" d="M370,26.59c.15-.19.28-.4.43-.6l.31-.43a.36.36,0,0,1,.25-.13c.23,0,.29.35.33.51s.17.59.25.88a.47.47,0,0,1,0,.43,1.39,1.39,0,0,1-.74.33c-.29.06-.83.13-1-.17a.45.45,0,0,1,0-.41A1.23,1.23,0,0,1,370,26.59Z"/><path class="cls-2" d="M369.12,30.41a6.61,6.61,0,0,0,.47.58l.32.41a.32.32,0,0,1,.06.28c-.05.23-.41.18-.58.18h-.91a.46.46,0,0,1-.4-.15,1.33,1.33,0,0,1-.13-.79c0-.3.1-.84.44-.95a.52.52,0,0,1,.4.09A1.52,1.52,0,0,1,369.12,30.41Z"/><path class="cls-2" d="M380.05,31.07l.72.21.5.16a.36.36,0,0,1,.2.2c.08.21-.24.38-.38.47l-.75.52a.44.44,0,0,1-.41.1c-.24-.07-.44-.39-.55-.59s-.39-.75-.17-1a.48.48,0,0,1,.38-.15A1.06,1.06,0,0,1,380.05,31.07Z"/><path class="cls-2" d="M373.25,37.28c.24.09.48.14.72.22l.5.15a.45.45,0,0,1,.21.2c.07.22-.25.39-.39.48l-.75.52a.47.47,0,0,1-.41.1c-.23-.07-.44-.39-.55-.59s-.39-.75-.17-1a.49.49,0,0,1,.38-.16A1.46,1.46,0,0,1,373.25,37.28Z"/><path class="cls-2" d="M368,23l.71.21.5.16a.35.35,0,0,1,.21.2c.08.22-.24.38-.38.48l-.75.51a.47.47,0,0,1-.42.11c-.23-.08-.43-.39-.55-.59s-.38-.76-.17-1a.51.51,0,0,1,.39-.15A1.52,1.52,0,0,1,368,23Z"/><path class="cls-6" d="M371.77,33.16c.24.09.48.14.71.22a4.16,4.16,0,0,1,.5.16.33.33,0,0,1,.21.19c.08.22-.24.39-.38.48l-.75.52a.49.49,0,0,1-.42.1c-.23-.07-.43-.39-.55-.59s-.38-.75-.17-1a.51.51,0,0,1,.39-.16A1.52,1.52,0,0,1,371.77,33.16Z"/><path class="cls-2" d="M371.5,33.26c.21.08.44.13.66.2s.37.1.55.17.27.21.16.36a1.4,1.4,0,0,1-.33.26l-.58.39-.12.08s0,0-.06.05.12-.06.14,0l-.11,0-.11-.08a2.17,2.17,0,0,1-.51-.85.7.7,0,0,1,0-.53s.06-.06.06-.08-.15,0-.09,0a2.37,2.37,0,0,1,.36.09.6.6,0,0,0,.37,0s.26-.12.17-.15a1.46,1.46,0,0,0-.83-.09c-.24.06-.57.16-.64.44a1.54,1.54,0,0,0,.38,1.13.85.85,0,0,0,.53.4,1.35,1.35,0,0,0,.94-.32l.66-.45c.15-.1.37-.22.41-.4s-.31-.37-.5-.43-.64-.17-.95-.28a.6.6,0,0,0-.37,0S371.41,33.23,371.5,33.26Z"/><path class="cls-6" d="M367.22,27.17c.23.08.47.13.71.21l.5.16a.35.35,0,0,1,.21.2c.08.21-.24.38-.38.47l-.75.52a.44.44,0,0,1-.42.1c-.23-.07-.43-.39-.55-.59s-.39-.75-.17-1a.5.5,0,0,1,.38-.15A1.1,1.1,0,0,1,367.22,27.17Z"/><path class="cls-2" d="M367.05,27.37l.67.2a3.09,3.09,0,0,1,.54.17s.05,0,.06,0,0,.06,0,0,0,.05-.05.07a3,3,0,0,1-.41.28l-.57.4-.08.05s0,0,0,0h0l-.08,0-.09-.08a2.08,2.08,0,0,1-.47-.83.51.51,0,0,1,0-.24.31.31,0,0,1,0-.1l0-.05s0,0,0,0,0,0,0,0h.1a.89.89,0,0,1,.32.08.39.39,0,0,0,.41-.11.17.17,0,0,0-.08-.29,1.34,1.34,0,0,0-.86-.08.68.68,0,0,0-.53.55,1.34,1.34,0,0,0,.14.65,3,3,0,0,0,.32.55,1,1,0,0,0,.62.43,1.34,1.34,0,0,0,.88-.37c.21-.14.41-.29.62-.42s.38-.29.37-.51-.35-.44-.61-.52l-.95-.28a.38.38,0,0,0-.41.11A.18.18,0,0,0,367.05,27.37Z"/><path class="cls-2" d="M374.24,27.42c0-.25-.08-.49-.11-.74l-.07-.52a.39.39,0,0,1,.1-.27c.16-.16.45.06.59.15l.78.46a.47.47,0,0,1,.27.33,1.31,1.31,0,0,1-.3.75c-.17.24-.52.67-.86.59a.57.57,0,0,1-.3-.29A1.19,1.19,0,0,1,374.24,27.42Z"/><path class="cls-2" d="M369,36.17c0-.25-.08-.49-.11-.74s-.05-.37-.06-.52a.33.33,0,0,1,.09-.27c.16-.16.45.06.59.14l.79.47a.47.47,0,0,1,.27.33,1.42,1.42,0,0,1-.31.75c-.17.24-.52.67-.86.58a.52.52,0,0,1-.3-.28A1.19,1.19,0,0,1,369,36.17Z"/><path class="cls-2" d="M373.3,30.34l.66.34c.14.07.34.17.47.25a.36.36,0,0,1,.17.23c0,.23-.31.33-.47.4l-.83.37a.45.45,0,0,1-.42,0,1.3,1.3,0,0,1-.44-.68c-.1-.28-.24-.81,0-1a.51.51,0,0,1,.4-.08A1.21,1.21,0,0,1,373.3,30.34Z"/><path class="cls-2" d="M377.78,37.27c.05.24.13.48.19.72l.14.51a.36.36,0,0,1-.06.28c-.14.18-.45,0-.61-.07l-.83-.37a.47.47,0,0,1-.31-.29,1.28,1.28,0,0,1,.21-.78c.14-.26.43-.73.78-.69a.5.5,0,0,1,.33.24A1.72,1.72,0,0,1,377.78,37.27Z"/><path class="cls-6" d="M377.26,28.58c.14-.21.25-.43.38-.64l.27-.45a.41.41,0,0,1,.25-.15c.23,0,.31.33.37.48s.21.57.32.86a.48.48,0,0,1,0,.42,1.36,1.36,0,0,1-.71.4c-.28.08-.82.19-1-.09a.48.48,0,0,1-.06-.4A1.32,1.32,0,0,1,377.26,28.58Z"/><path class="cls-2" d="M377.54,28.61c.12-.2.23-.41.36-.61s.09-.16.14-.24.16-.23.15-.24-.07,0-.09,0l-.05,0h0a.37.37,0,0,1,.09.16c.07.16.12.34.19.5s.18.44.24.67a.25.25,0,0,1,0,.23.5.5,0,0,1-.14.1l-.11,0-.05,0h0l-.22.06-.1,0h-.05c-.08,0,0,0,0,0h-.4l-.05,0a.21.21,0,0,1-.06-.1.76.76,0,0,1,.2-.61c.07-.12-.07-.22-.18-.23a.41.41,0,0,0-.37.17,1.06,1.06,0,0,0-.24.78.58.58,0,0,0,.45.43,2.44,2.44,0,0,0,1.36-.2,1.06,1.06,0,0,0,.6-.5c.11-.28-.07-.59-.17-.85s-.16-.46-.25-.69a.55.55,0,0,0-.46-.38.73.73,0,0,0-.57.23,2.12,2.12,0,0,0-.23.35c-.16.28-.32.56-.49.83s.06.22.17.23A.43.43,0,0,0,377.54,28.61Z"/><path class="cls-6" d="M373.08,24.23c-.21-.13-.43-.24-.65-.37L372,23.6a.4.4,0,0,1-.16-.24c0-.23.33-.32.48-.38l.85-.34a.5.5,0,0,1,.43,0,1.33,1.33,0,0,1,.4.7c.09.29.21.82-.06,1a.49.49,0,0,1-.41.06A1.29,1.29,0,0,1,373.08,24.23Z"/><path class="cls-2" d="M373.35,24.13l-.64-.37a3,3,0,0,1-.49-.29c-.12-.1-.14-.27,0-.34l0,0s0,0,0,0h0l.25-.1.33-.12a3.88,3.88,0,0,0,.36-.15c.08,0,0,0,0,0s.11.05.12.05a.87.87,0,0,1,.17.21,2.45,2.45,0,0,1,.27.92.71.71,0,0,1-.1.47l0,0,.15-.05-.12,0a1.45,1.45,0,0,1-.35-.18c-.09-.06-.27,0-.37,0s-.26.11-.17.17a1.17,1.17,0,0,0,.79.23.83.83,0,0,0,.72-.39,1.64,1.64,0,0,0-.13-1.15.89.89,0,0,0-.37-.5c-.32-.16-.71,0-1,.15l-.73.28a.94.94,0,0,0-.53.34c-.13.26.19.44.37.54s.59.32.88.5a.48.48,0,0,0,.37,0S373.44,24.19,373.35,24.13Z"/><path class="cls-6" d="M380.16,36.23c-.22-.14-.44-.24-.65-.37l-.45-.27a.34.34,0,0,1-.16-.24c0-.23.32-.32.48-.38l.84-.33a.47.47,0,0,1,.43,0,1.35,1.35,0,0,1,.41.7c.08.28.21.82-.07,1a.53.53,0,0,1-.41.06A1.35,1.35,0,0,1,380.16,36.23Z"/><path class="cls-2" d="M380.39,36.09c-.21-.14-.44-.25-.65-.37l-.24-.14a1.94,1.94,0,0,1-.24-.15.21.21,0,0,1-.06-.2s0,0,0,0,0,0,0,0,0,0,0,0h0c.14-.07.31-.12.46-.18l.32-.13.18-.07a.62.62,0,0,1,.19-.07h0a.12.12,0,0,1,.08,0,.66.66,0,0,1,.15.21,2.23,2.23,0,0,1,.27.91,1.06,1.06,0,0,1,0,.25.36.36,0,0,1,0,.09.05.05,0,0,1,0,0s0,0,0,0l0,0h0a.52.52,0,0,1-.11,0,1.71,1.71,0,0,1-.33-.17.48.48,0,0,0-.42,0c-.09.06-.16.16,0,.23a1.29,1.29,0,0,0,.83.24.78.78,0,0,0,.65-.45,1.77,1.77,0,0,0-.16-1.17,1,1,0,0,0-.4-.52c-.33-.16-.7,0-1,.15l-.71.28a.81.81,0,0,0-.51.39c-.1.29.23.46.43.58s.59.32.88.5a.46.46,0,0,0,.41,0C380.43,36.26,380.5,36.16,380.39,36.09Z"/><path class="cls-4" d="M454.33,137.42a13.13,13.13,0,0,0-3.12-1c.08-.48.14-1,.18-1.46a9.11,9.11,0,0,0,.12-1.56c0,.15-.25.27-.35.34a9.16,9.16,0,0,1-1.19.75,4.84,4.84,0,0,1-.66.28c-.09,0-.22.1-.3,0s-.08-.18-.09-.27a5.2,5.2,0,0,0-1.36-3.29s-.16.67-.18.73a11.16,11.16,0,0,1-.69,2.4,5.69,5.69,0,0,1-4.68,3.09,27,27,0,0,1-5.16,0c-9.13-.44-20,4.35-21.42,14.39a16.59,16.59,0,0,0-.15,1.73,11.82,11.82,0,0,0,.59,4.26,8.78,8.78,0,0,0,1.33,2.27c.29.39.59.78.87,1.18.14.2.27.41.39.62s.3.37.25.56-.48.23-.67.24a4,4,0,0,1-1.76-.35c.09,0,.19.2.27.27a3.9,3.9,0,0,0,.38.33,4.75,4.75,0,0,0,.85.55,6.55,6.55,0,0,0,1.15.41,2.52,2.52,0,0,0,.95,0s-.11.17-.13.2l-.18.21a3.29,3.29,0,0,1-.72.57c-.2.13-.42.24-.62.36s-.11.16,0,.23a1.45,1.45,0,0,0,.54.15,3.65,3.65,0,0,0,.66,0,3.71,3.71,0,0,0,1.27-.32c.05,0,.33-.11.35-.18a6.51,6.51,0,0,0,.77,4,7.35,7.35,0,0,1,1.17-2.95,12.66,12.66,0,0,0,9,3.37c7.07,0,13.59-2.52,16.45-9.09,1.76-4,1.78-9.58,1.66-14a12.23,12.23,0,0,1,2.64-7.62,5.53,5.53,0,0,1,1.77-1.42Z"/><path class="cls-4" d="M450.78,134.17c-.09-.45-.2-.9-.32-1.35,0-.07-.12-.08-.18-.09a.91.91,0,0,0-.32.06l-1.39.49c-.07,0-.31.15-.2.26s.36,0,.47,0l1.39-.48-.49,0c.12.45.23.9.32,1.36,0,0,.09.07.13.08a.61.61,0,0,0,.27,0c.09,0,.35-.1.32-.25Z"/><path class="cls-4" d="M453.33,136.75a9.58,9.58,0,0,0,.34-1.59c0-.08-.05-.1-.12-.11-.61-.05-1.21-.09-1.82-.11a.83.83,0,0,0-.51.13s-.1.07-.08.13.09.06.13.06c.6,0,1.21.07,1.81.12l-.12-.11a10.84,10.84,0,0,1-.34,1.6c0,.14.23.11.29.1a1.31,1.31,0,0,0,.28-.09c.05,0,.13-.07.14-.13Z"/><g class="cls-5"><path class="cls-6" d="M444.87,142.45a3.44,3.44,0,0,1-.28.93c-2.16,5-.75,11.22-4.25,15.74-2.59,3.34-7.46,5.26-11.7,3.63a8.88,8.88,0,0,1-5.8-9.38,9.28,9.28,0,0,1,4.26-5.89c2.44-1.46,5.31-2,8-2.53a35.28,35.28,0,0,0,4.56-1.12,23.75,23.75,0,0,0,3.88-2.13.91.91,0,0,1,1.07.07A.83.83,0,0,1,444.87,142.45Z"/></g><path class="cls-2" d="M430.81,155.52c.19.17.39.3.59.46s.3.22.41.32a.38.38,0,0,1,.13.26c0,.23-.37.27-.53.31l-.88.22a.5.5,0,0,1-.43-.05,1.33,1.33,0,0,1-.31-.75c0-.29-.09-.84.21-1a.49.49,0,0,1,.41,0A1.28,1.28,0,0,1,430.81,155.52Z"/><path class="cls-2" d="M437.86,149.85c.19.16.39.3.59.45s.29.23.41.33a.36.36,0,0,1,.12.26c0,.23-.36.27-.53.31l-.88.22a.47.47,0,0,1-.42,0,1.36,1.36,0,0,1-.31-.75c0-.29-.1-.84.2-1a.55.55,0,0,1,.42,0A1.72,1.72,0,0,1,437.86,149.85Z"/><path class="cls-2" d="M434.07,148.8c-.21.14-.39.3-.59.45l-.43.31a.34.34,0,0,1-.28.05c-.22-.06-.17-.42-.16-.59l0-.91a.47.47,0,0,1,.16-.4,1.29,1.29,0,0,1,.8-.09c.29,0,.84.13.93.47a.5.5,0,0,1-.11.39A1.34,1.34,0,0,1,434.07,148.8Z"/><path class="cls-2" d="M433,159.71c-.09.23-.16.47-.24.7s-.12.35-.18.49a.31.31,0,0,1-.2.2c-.22.08-.38-.25-.47-.39l-.48-.77a.44.44,0,0,1-.09-.42c.08-.23.4-.42.61-.53s.76-.36,1-.13a.49.49,0,0,1,.13.39A1.29,1.29,0,0,1,433,159.71Z"/><path class="cls-2" d="M427.05,152.68c-.09.24-.15.47-.24.71l-.17.49a.37.37,0,0,1-.21.2c-.22.07-.37-.25-.46-.4l-.49-.76a.49.49,0,0,1-.09-.42A1.37,1.37,0,0,1,426,152c.26-.14.77-.36,1-.14a.51.51,0,0,1,.14.39A1.25,1.25,0,0,1,427.05,152.68Z"/><path class="cls-2" d="M441.51,148c-.09.23-.16.47-.24.7s-.12.35-.18.49a.33.33,0,0,1-.2.2c-.22.08-.37-.25-.46-.39l-.49-.77a.46.46,0,0,1-.09-.42c.08-.23.4-.42.61-.53s.76-.36,1-.13a.54.54,0,0,1,.14.39A1.57,1.57,0,0,1,441.51,148Z"/><path class="cls-6" d="M431.23,151.35c-.1.23-.16.47-.24.7s-.12.36-.18.5a.37.37,0,0,1-.21.2c-.21.07-.37-.26-.46-.4l-.49-.77a.49.49,0,0,1-.09-.42,1.29,1.29,0,0,1,.61-.52c.26-.14.77-.36,1-.14a.48.48,0,0,1,.14.39A1.47,1.47,0,0,1,431.23,151.35Z"/><path class="cls-2" d="M430.94,151.4c-.08.22-.15.45-.23.67s-.11.37-.19.55a.71.71,0,0,1-.07.09c-.07.1.38,0,.3-.06l0,0a.54.54,0,0,1-.15-.15c-.11-.15-.19-.31-.29-.46a5.39,5.39,0,0,1-.37-.6.4.4,0,0,1,.07-.5,2.29,2.29,0,0,1,.41-.28l.16-.07.08,0h0s0,0,0,0a.21.21,0,0,1,.08,0l.09,0a.29.29,0,0,1,.18.19.92.92,0,0,1-.07.67c0,.1.2,0,.23,0s.3-.06.34-.15a1,1,0,0,0,.08-.74.52.52,0,0,0-.52-.27,2.74,2.74,0,0,0-1.4.51.84.84,0,0,0-.42.52.6.6,0,0,0,.11.34l.26.4c.12.2.24.41.37.6a.73.73,0,0,0,.18.17.64.64,0,0,0,.43,0,.85.85,0,0,0,.45-.26,1.37,1.37,0,0,0,.15-.38c.11-.3.2-.61.31-.9,0-.09-.19-.05-.23-.05S431,151.31,430.94,151.4Z"/><path class="cls-6" d="M437.38,147c-.09.23-.15.47-.24.71s-.11.35-.17.49a.37.37,0,0,1-.21.2c-.22.07-.37-.26-.46-.4l-.49-.77a.49.49,0,0,1-.09-.42,1.29,1.29,0,0,1,.61-.52c.26-.14.77-.36,1-.14a.48.48,0,0,1,.14.39A1.25,1.25,0,0,1,437.38,147Z"/><path class="cls-2" d="M437.11,147c-.09.22-.15.43-.22.65a5.14,5.14,0,0,1-.2.55s0,.06,0,0,.12,0,.14,0,0,0,0,0,0,0,0,0l-.07-.09c-.1-.14-.18-.29-.27-.44s-.27-.39-.38-.6a.24.24,0,0,1-.05-.2.35.35,0,0,1,.11-.15,1.56,1.56,0,0,1,.38-.25l.19-.09.06,0s0,0,0,0l.15,0s.05,0,0,0h.15s0,0,0,0a.12.12,0,0,1,.06.08.74.74,0,0,1-.06.58c-.13.32.45.33.55.08a1.17,1.17,0,0,0,.1-.8.62.62,0,0,0-.56-.4,2.18,2.18,0,0,0-1.35.48.94.94,0,0,0-.44.59c0,.29.2.55.35.78s.25.42.39.62a.62.62,0,0,0,.57.32.66.66,0,0,0,.46-.28,1.5,1.5,0,0,0,.18-.41c.1-.3.19-.61.3-.9S437.2,146.73,437.11,147Z"/><path class="cls-2" d="M436.87,154l.74-.08.53,0a.35.35,0,0,1,.26.1c.16.17-.07.45-.16.59l-.5.76a.44.44,0,0,1-.34.26,1.29,1.29,0,0,1-.73-.33c-.24-.18-.65-.54-.56-.88a.53.53,0,0,1,.3-.29A1.17,1.17,0,0,1,436.87,154Z"/><path class="cls-2" d="M428.33,148.47c.24,0,.49-.05.74-.08s.37,0,.52,0a.35.35,0,0,1,.27.1c.15.17-.08.44-.17.59s-.33.51-.49.76-.18.25-.35.26a1.29,1.29,0,0,1-.73-.33c-.24-.18-.65-.55-.56-.88a.5.5,0,0,1,.3-.29A1.4,1.4,0,0,1,428.33,148.47Z"/><path class="cls-2" d="M434,153c-.13.22-.24.44-.36.65s-.18.33-.27.46a.34.34,0,0,1-.23.16c-.23,0-.32-.32-.39-.48s-.22-.56-.34-.84a.5.5,0,0,1,0-.43,1.31,1.31,0,0,1,.7-.41c.28-.09.81-.21,1,.06a.47.47,0,0,1,.07.4A1.13,1.13,0,0,1,434,153Z"/><path class="cls-2" d="M426.9,157.21c-.24,0-.48.11-.72.16l-.52.12a.37.37,0,0,1-.27-.07c-.18-.15,0-.45.09-.61l.39-.81c.07-.14.15-.27.31-.3a1.34,1.34,0,0,1,.77.23c.26.15.71.46.66.81a.51.51,0,0,1-.26.32A1.33,1.33,0,0,1,426.9,157.21Z"/><path class="cls-6" d="M435.61,157c.2.14.41.26.62.4s.32.2.44.29a.34.34,0,0,1,.14.25c0,.23-.34.3-.5.35l-.86.29a.47.47,0,0,1-.43,0,1.24,1.24,0,0,1-.36-.72c-.07-.28-.17-.83.12-1a.53.53,0,0,1,.41,0A1.34,1.34,0,0,1,435.61,157Z"/><path class="cls-2" d="M435.38,157.17l.59.38.26.16a1.12,1.12,0,0,1,.22.16.23.23,0,0,1,.07.16s0,.05,0,0,0,0,0,0-.06,0,0,0l-.07,0,0,0c.06,0,0,0,0,0l-.09,0-.3.09-.7.23h0a.11.11,0,0,1-.06,0,.72.72,0,0,1-.14-.19,2.35,2.35,0,0,1-.15-.47,2.12,2.12,0,0,1-.06-.43.83.83,0,0,1,0-.27l0-.08s0,0,0,0h0l.12,0a1.44,1.44,0,0,1,.31.19.4.4,0,0,0,.41,0c.1-.07.16-.2,0-.28a1.18,1.18,0,0,0-.82-.29.72.72,0,0,0-.65.44,1.83,1.83,0,0,0,.09,1.22,1,1,0,0,0,.41.55,1.26,1.26,0,0,0,.95-.1l.71-.23c.22-.08.51-.19.57-.44s-.23-.49-.44-.63-.56-.34-.82-.52a.38.38,0,0,0-.41,0C435.32,157,435.26,157.08,435.38,157.17Z"/><path class="cls-6" d="M440.1,153c.15-.21.26-.42.4-.63s.19-.32.28-.45a.38.38,0,0,1,.24-.15c.23,0,.31.34.37.5l.3.86a.45.45,0,0,1,0,.42,1.27,1.27,0,0,1-.71.38c-.29.08-.83.18-1-.1a.49.49,0,0,1,0-.41A1.19,1.19,0,0,1,440.1,153Z"/><path class="cls-2" d="M440.39,152.94c.13-.2.25-.4.37-.6s.22-.33.32-.5h0c.06-.06,0-.05-.24,0h0l.07.06a.82.82,0,0,1,.09.19c.07.18.12.35.18.53a3.78,3.78,0,0,1,.23.67.36.36,0,0,1-.24.4l-.07,0-.07,0c-.05,0,0,0,0,0l-.11,0h-.05l-.1,0h-.06c-.08,0,0,0,0,0h-.21a.36.36,0,0,1-.34-.29.93.93,0,0,1,.23-.65c.06-.09-.21-.07-.23-.06a.52.52,0,0,0-.34.16.92.92,0,0,0-.23.72.47.47,0,0,0,.42.34,2.73,2.73,0,0,0,1.38-.21c.22-.09.52-.22.61-.47a.5.5,0,0,0,0-.36l-.15-.45c-.08-.22-.15-.46-.24-.68a.4.4,0,0,0-.44-.28.94.94,0,0,0-.59.24,1.44,1.44,0,0,0-.23.32c-.17.28-.33.56-.51.83-.06.09.21.06.23.06A.54.54,0,0,0,440.39,152.94Z"/><path class="cls-6" d="M427.86,159.62c.14-.21.25-.42.39-.63s.19-.32.28-.45a.34.34,0,0,1,.25-.14c.23,0,.3.33.36.49l.3.86a.45.45,0,0,1,0,.42,1.27,1.27,0,0,1-.71.38c-.28.08-.83.18-1-.1a.49.49,0,0,1-.05-.41A1.21,1.21,0,0,1,427.86,159.62Z"/><path class="cls-2" d="M428.13,159.63c.13-.2.24-.4.37-.6s.22-.32.31-.48.05,0,0,0l-.11,0h0s0,0,0,0h0a.59.59,0,0,1,.1.17l.17.51a5.3,5.3,0,0,1,.23.67.33.33,0,0,1,0,.26.41.41,0,0,1-.14.1l-.11.05s-.09,0,0,0h0a1,1,0,0,1-.23.06s-.1,0,0,0h-.12l-.11,0h-.09l-.09,0a.16.16,0,0,1-.09,0,.25.25,0,0,1-.13-.17.77.77,0,0,1,.21-.62c.07-.12-.07-.18-.16-.18a.48.48,0,0,0-.38.16,1,1,0,0,0-.26.75.53.53,0,0,0,.44.41,2.37,2.37,0,0,0,1.36-.19,1,1,0,0,0,.61-.48c.12-.26-.06-.57-.15-.82s-.15-.47-.24-.7a.47.47,0,0,0-.44-.35.82.82,0,0,0-.57.22,1.39,1.39,0,0,0-.24.34c-.17.27-.33.55-.51.82-.08.11.06.17.15.18A.51.51,0,0,0,428.13,159.63Z"/><path class="cls-4" d="M151.19,13.09a13,13,0,0,0-1.12,3.07c-.48-.1-1-.18-1.45-.25a10.28,10.28,0,0,0-1.55-.2c.14,0,.25.27.32.37a9.91,9.91,0,0,1,.69,1.23,3.84,3.84,0,0,1,.25.67c0,.09.09.22,0,.3s-.19.07-.28.08a5.14,5.14,0,0,0-3.35,1.19,5.71,5.71,0,0,0,.72.22,11.52,11.52,0,0,1,2.36.8,5.73,5.73,0,0,1,2.87,4.83,27.74,27.74,0,0,1-.25,5.15c-.88,9.1,3.38,20.19,13.33,22.09a16.73,16.73,0,0,0,1.73.24,11.68,11.68,0,0,0,4.28-.39,8.37,8.37,0,0,0,2.33-1.22c.4-.27.81-.55,1.22-.81.21-.13.42-.25.64-.36s.38-.27.57-.22.21.49.21.68a3.9,3.9,0,0,1-.44,1.74c0-.09.21-.18.29-.25l.35-.37a4.33,4.33,0,0,0,.58-.82,6,6,0,0,0,.46-1.12,2.34,2.34,0,0,0,.07-1s.17.12.19.14a1.81,1.81,0,0,1,.21.18,3.33,3.33,0,0,1,.54.75c.11.21.21.43.33.64s.15.12.22,0a1.23,1.23,0,0,0,.17-.52,3,3,0,0,0,.07-.66,3.48,3.48,0,0,0-.26-1.28c0-.06-.09-.34-.16-.36a6.56,6.56,0,0,0,4-.58,7.25,7.25,0,0,1-2.89-1.32,12.66,12.66,0,0,0,3.81-8.85c.32-7.06-1.87-13.69-8.29-16.87-3.95-1.95-9.49-2.24-13.86-2.33a12.23,12.23,0,0,1-7.48-3,5.53,5.53,0,0,1-1.33-1.84Z"/><path class="cls-4" d="M147.9,16.62q-.75.11-1.47.27c-.12,0-.36.15-.31.31l.42,1.41c.05.16.3.15.42.11s.35-.14.31-.3L146.85,17l-.31.31.67-.14h.09l.16,0,.35-.06c.15,0,.38-.09.41-.26s-.21-.21-.32-.19Z"/><path class="cls-4" d="M150.81,14.28a8.56,8.56,0,0,0-1.58-.42.77.77,0,0,0-.42.06c-.08,0-.22.07-.24.18-.07.6-.14,1.2-.2,1.8,0,0,.12.06.13.06a1.17,1.17,0,0,0,.26,0c.1,0,.32-.08.34-.21.05-.6.12-1.21.2-1.81l-.66.24a8.77,8.77,0,0,1,1.58.42.6.6,0,0,0,.23,0,.86.86,0,0,0,.27-.09c.08,0,.24-.13.09-.18Z"/><g class="cls-5"><path class="cls-6" d="M155.75,22.78a3.07,3.07,0,0,1,.92.33c4.85,2.39,11.17,1.29,15.52,5,3.2,2.74,4.9,7.7,3.06,11.86a8.9,8.9,0,0,1-9.65,5.33,9.18,9.18,0,0,1-5.67-4.54c-1.34-2.5-1.73-5.39-2.15-8.16a34.44,34.44,0,0,0-.9-4.61,22.83,22.83,0,0,0-1.94-4,.93.93,0,0,1,.12-1.07A.86.86,0,0,1,155.75,22.78Z"/></g><path class="cls-2" d="M168.14,37.46c.17-.18.31-.38.48-.57l.34-.39a.4.4,0,0,1,.27-.12c.23,0,.25.38.28.55s.12.59.17.89a.45.45,0,0,1-.07.42,1.35,1.35,0,0,1-.76.27c-.29,0-.84.05-1-.25a.51.51,0,0,1,0-.42A1.43,1.43,0,0,1,168.14,37.46Z"/><path class="cls-2" d="M162.81,30.15c.17-.19.32-.38.48-.57s.24-.29.35-.4a.41.41,0,0,1,.26-.11c.23,0,.25.38.29.54s.11.6.17.9a.45.45,0,0,1-.07.42,1.35,1.35,0,0,1-.76.27c-.29,0-.85.05-1-.26a.53.53,0,0,1,0-.41A1.43,1.43,0,0,1,162.81,30.15Z"/><path class="cls-2" d="M161.58,33.88c.13.21.28.4.42.61l.29.44a.39.39,0,0,1,0,.28c-.07.22-.43.15-.59.14l-.91-.08a.46.46,0,0,1-.39-.18,1.36,1.36,0,0,1-.06-.8c0-.29.18-.83.52-.9a.51.51,0,0,1,.39.12A1.57,1.57,0,0,1,161.58,33.88Z"/><path class="cls-2" d="M172.42,35.46l.69.27.49.2a.39.39,0,0,1,.19.21c.06.23-.28.36-.42.45l-.79.45a.51.51,0,0,1-.43.07,1.39,1.39,0,0,1-.5-.64c-.12-.26-.32-.78-.08-1a.52.52,0,0,1,.4-.12A1.3,1.3,0,0,1,172.42,35.46Z"/><path class="cls-2" d="M165.12,41.07c.22.11.46.18.69.28s.35.13.48.2a.31.31,0,0,1,.19.21c.07.22-.27.36-.42.44l-.79.45a.43.43,0,0,1-.42.07c-.23-.09-.4-.42-.5-.63s-.32-.78-.08-1a.5.5,0,0,1,.39-.12A1.53,1.53,0,0,1,165.12,41.07Z"/><path class="cls-2" d="M161.1,26.41c.23.1.46.17.69.27l.49.2a.36.36,0,0,1,.19.21c.06.23-.27.36-.42.45l-.79.45a.48.48,0,0,1-.42.07,1.32,1.32,0,0,1-.5-.64c-.13-.27-.33-.78-.09-1a.53.53,0,0,1,.4-.12A1.18,1.18,0,0,1,161.1,26.41Z"/><path class="cls-6" d="M164,36.84l.69.28.48.19a.34.34,0,0,1,.19.22c.07.22-.27.36-.42.44l-.79.45a.43.43,0,0,1-.42.07,1.31,1.31,0,0,1-.5-.63c-.12-.27-.32-.78-.08-1a.5.5,0,0,1,.39-.12A1.53,1.53,0,0,1,164,36.84Z"/><path class="cls-2" d="M163.76,37l.65.25a4.93,4.93,0,0,1,.53.22.26.26,0,0,1,.13.19.16.16,0,0,1-.07.12l-.14.08-.22.12-.64.37s-.08.06-.1.05H164l0,0a.83.83,0,0,1-.17-.15,2.18,2.18,0,0,1-.41-.87.83.83,0,0,1,0-.27.5.5,0,0,1,0-.12s0-.11,0-.1h0s0,0,0,0h0a1.26,1.26,0,0,1,.37.13.52.52,0,0,0,.4-.06c.08-.05.18-.16.06-.21a1.4,1.4,0,0,0-.9-.13.71.71,0,0,0-.57.47,1.79,1.79,0,0,0,.33,1.17.85.85,0,0,0,.5.43,1.34,1.34,0,0,0,1-.28l.68-.38c.15-.09.39-.22.42-.42s-.31-.42-.53-.5-.61-.23-.9-.36a.46.46,0,0,0-.41.06C163.74,36.81,163.63,36.92,163.76,37Z"/><path class="cls-6" d="M160,30.48c.23.1.46.18.69.27l.49.2a.41.41,0,0,1,.19.22c.06.22-.28.36-.42.44l-.79.45a.45.45,0,0,1-.43.07,1.24,1.24,0,0,1-.49-.63c-.13-.27-.33-.79-.09-1a.53.53,0,0,1,.4-.12A1.3,1.3,0,0,1,160,30.48Z"/><path class="cls-2" d="M159.73,30.6c.21.1.43.17.65.26a3.49,3.49,0,0,1,.53.22c.12.08.18.23.07.33a.67.67,0,0,1-.14.09l-.22.12L160,32s-.11.05-.1.06.15,0,0,0a.7.7,0,0,1-.19-.16,2.32,2.32,0,0,1-.41-.87.72.72,0,0,1,0-.5l0,0-.06,0s0,0,0,0h.05a1.6,1.6,0,0,1,.37.12.52.52,0,0,0,.4-.06c.07,0,.18-.13.07-.18a1.41,1.41,0,0,0-.9-.12.7.7,0,0,0-.57.45,1.66,1.66,0,0,0,.33,1.17.84.84,0,0,0,.47.42,1.39,1.39,0,0,0,1-.29l.68-.38c.16-.09.39-.21.43-.41s-.32-.4-.52-.48-.61-.23-.9-.36a.58.58,0,0,0-.41.06C159.72,30.46,159.61,30.55,159.73,30.6Z"/><path class="cls-2" d="M166.93,31.33c0-.25,0-.5,0-.74s0-.38,0-.53a.36.36,0,0,1,.11-.26c.18-.15.44.1.58.19l.74.53a.44.44,0,0,1,.24.36,1.37,1.37,0,0,1-.36.72c-.19.22-.58.62-.91.51a.52.52,0,0,1-.27-.31A1.25,1.25,0,0,1,166.93,31.33Z"/><path class="cls-2" d="M161,39.6c0-.25,0-.49,0-.74s0-.38,0-.53a.36.36,0,0,1,.11-.26c.18-.15.44.1.58.2l.74.52a.45.45,0,0,1,.24.36,1.32,1.32,0,0,1-.37.72c-.18.22-.57.62-.9.51a.52.52,0,0,1-.27-.31A1.25,1.25,0,0,1,161,39.6Z"/><path class="cls-2" d="M165.75,34.16l.63.39c.13.09.32.2.44.29a.32.32,0,0,1,.15.24c0,.23-.33.31-.49.36l-.86.3a.47.47,0,0,1-.43,0,1.32,1.32,0,0,1-.37-.71c-.08-.29-.18-.83.1-1a.5.5,0,0,1,.41-.05A1.3,1.3,0,0,1,165.75,34.16Z"/><path class="cls-2" d="M169.63,41.44c0,.25.09.49.13.74s.07.36.09.51a.4.4,0,0,1-.08.28c-.16.17-.45,0-.6-.12l-.8-.44a.46.46,0,0,1-.29-.32,1.36,1.36,0,0,1,.28-.76c.16-.24.49-.69.83-.62a.52.52,0,0,1,.31.27A1.22,1.22,0,0,1,169.63,41.44Z"/><path class="cls-6" d="M169.85,32.74l.43-.6.31-.43a.36.36,0,0,1,.26-.13c.23,0,.28.35.32.52s.17.58.25.87a.5.5,0,0,1,0,.43,1.39,1.39,0,0,1-.74.33c-.29.06-.84.12-1-.17a.53.53,0,0,1,0-.41A1.46,1.46,0,0,1,169.85,32.74Z"/><path class="cls-2" d="M170.11,32.73c.15-.19.27-.38.41-.57l.18-.25c.05-.07.13-.15.18-.23s-.15.09-.2,0h0s.05,0,.06.06a.54.54,0,0,1,.08.19c0,.17.09.35.14.52a4.26,4.26,0,0,1,.19.7.31.31,0,0,1-.07.26.7.7,0,0,1-.14.08l0,0h0l-.12,0h-.05l-.11,0h-.11s.06,0,0,0h-.26a.35.35,0,0,1-.33-.26.82.82,0,0,1,.24-.64c.08-.1-.07-.13-.14-.13a.61.61,0,0,0-.39.15,1.08,1.08,0,0,0-.3.71.48.48,0,0,0,.4.41,2.52,2.52,0,0,0,1.33-.11,1.16,1.16,0,0,0,.68-.44c.13-.23,0-.55-.08-.78s-.13-.49-.2-.73-.16-.35-.38-.36a.89.89,0,0,0-.59.17,1.34,1.34,0,0,0-.29.34c-.19.26-.37.54-.57.79s.07.13.15.13A.58.58,0,0,0,170.11,32.73Z"/><path class="cls-6" d="M166.05,28.05c-.2-.15-.41-.27-.61-.42l-.43-.3a.42.42,0,0,1-.14-.26c0-.23.35-.29.51-.33l.88-.26a.45.45,0,0,1,.42,0,1.35,1.35,0,0,1,.35.74c.06.28.13.83-.16,1a.49.49,0,0,1-.41,0A1.42,1.42,0,0,1,166.05,28.05Z"/><path class="cls-2" d="M166.32,27.94c-.19-.15-.39-.27-.59-.41a4,4,0,0,1-.47-.34.25.25,0,0,1-.09-.21s0,0,0,0,0,0,0,0,0,0,0,0h.07l.1,0,.27-.08.71-.21h0l.07,0a.56.56,0,0,1,.14.2,2.21,2.21,0,0,1,.2.92,1.22,1.22,0,0,1,0,.26l0,.09,0,.05h0l.06,0s0,0,0,0h0l-.11,0a2,2,0,0,1-.31-.19.39.39,0,0,0-.38,0c-.06,0-.27.16-.16.24a1.35,1.35,0,0,0,.78.32.78.78,0,0,0,.73-.4,1.74,1.74,0,0,0,0-1.17,1,1,0,0,0-.38-.58,1.13,1.13,0,0,0-.9.06l-.77.22a.89.89,0,0,0-.59.36c-.15.3.17.5.37.64s.54.36.79.55a.41.41,0,0,0,.39,0C166.22,28.15,166.43,28,166.32,27.94Z"/><path class="cls-6" d="M172.08,40.61l-.61-.43-.43-.3a.36.36,0,0,1-.13-.25c0-.23.34-.29.51-.34l.87-.26a.45.45,0,0,1,.42,0,1.29,1.29,0,0,1,.35.73c.06.29.14.83-.16,1a.58.58,0,0,1-.41,0A1.69,1.69,0,0,1,172.08,40.61Z"/><path class="cls-2" d="M172.31,40.45l-.58-.4-.25-.17a1.18,1.18,0,0,1-.22-.17.24.24,0,0,1-.06-.11s0,0,0-.05h0s0,0,0,0,0,0,0,0l.06,0,.05,0,.1,0,.29-.09.7-.21s0,0,0,0l.06,0a.82.82,0,0,1,.12.2,2,2,0,0,1,.19.91.82.82,0,0,1,0,.26l0,.08s0,0,0,0,0,0,0,0l.06,0h-.05a.18.18,0,0,1-.12,0,1.17,1.17,0,0,1-.3-.19c-.19-.14-.71.12-.45.32a1.21,1.21,0,0,0,.81.3.73.73,0,0,0,.66-.43,1.9,1.9,0,0,0-.05-1.2.92.92,0,0,0-.4-.58,1.23,1.23,0,0,0-.92.07l-.75.22a.84.84,0,0,0-.57.39c-.13.31.2.52.42.67s.54.36.8.56S172.56,40.64,172.31,40.45Z"/><path class="cls-7" d="M86.55,121.84a12.3,12.3,0,0,1,6-9.36,3.68,3.68,0,0,1,1.58-.57c1.3-.06,2.35,1,3,2.13a14.83,14.83,0,0,1,2.28,8,11.86,11.86,0,0,0,1.54-.16l1.62-.17,3.22-.34,6.45-.67c1.54-.16,3.08-.31,4.62-.41,1.14-.09.21-1.37,0-1.86q-.66-1.24-1.2-2.55c-.33-.8-.54-1.66-.91-2.44-.59-1.5-2.16-1.25-3.43-.77a27.51,27.51,0,0,0-4.11,1.64l4.54-2.72a2.4,2.4,0,0,0,1-.85,2.16,2.16,0,0,0-.4-2,14.36,14.36,0,0,0-2.74-3.23c-.73-.64-1.37-1.43-2.2-.94-1.19.69-1.77,2-4,3.62,1.11-1.63,2.48-3,2.9-5,.31-1.48-1.34-2.66-2.54-3.45a16.31,16.31,0,0,0-5.6-2.36c-.33-.07-.35-.07-.52.23l-.42.79-.81,1.51-1.62,3-1,1.94a21.58,21.58,0,0,0-.72-7.5c-.17-.61-.43-1.07-1.11-1.08a6.54,6.54,0,0,0-1.51.31c-.89.21-1.78.44-2.66.69-1.71.49-3.4,1.07-5.06,1.72a.5.5,0,0,0-.25.15c-.14.18,0,.76.08,1,.06.42.14.84.24,1.25a19,19,0,0,0,.74,2.44,12.52,12.52,0,0,0,2.07,3.64,12.51,12.51,0,0,0-2.3-2.12c-1-.75-1.94-1.46-2.94-2.14-.16-.11-.66-.34-.75-.52-.71-.5-1.67-1.3-2.58-.76a2.63,2.63,0,0,0-.84.94c-.61,1-1.29,2-1.95,3-.33.5-.66,1-1,1.49s-.69,1-.54,1.41,1.25.85,1.57,1c1.71,1,3.44,2.07,5.13,3.13a13.83,13.83,0,0,1-2.81-.5c-.8-.17-1.6-.34-2.39-.53a9,9,0,0,0-2.19-.55,2.59,2.59,0,0,0-2.48.64,5.46,5.46,0,0,0-1.09,2.38,15.25,15.25,0,0,0-.38,5.3,5.36,5.36,0,0,0,.1,1.2c.2.58.65.43,1.16.36,1.62-.21,3.23-.43,4.87-.49a44.11,44.11,0,0,1,4.88.07A50.16,50.16,0,0,1,86.55,121.84Z"/><path class="cls-2" d="M78.8,107.29q4.32,2.46,8.42,5.3c.15.11.69-.12.46-.28q-4.09-2.84-8.42-5.3c-.17-.1-.7.14-.46.28Z"/><path class="cls-2" d="M87.11,102.21a12.9,12.9,0,0,1,1.48,3.58c.06.22.64.06.58-.16A13.43,13.43,0,0,0,87.65,102c-.11-.18-.67,0-.54.23Z"/><path class="cls-2" d="M89.11,101.63q.94,3.75,2.07,7.45c.07.23.64.07.57-.16-.74-2.46-1.43-5-2.06-7.45-.06-.23-.64-.08-.58.16Z"/><path class="cls-2" d="M96.32,107.05c.91-1.42,1.89-2.81,2.92-4.15.12-.16-.11-.19-.22-.19a.87.87,0,0,0-.58.22c-1,1.34-2,2.73-2.92,4.15-.1.16.09.19.22.19s.48-.07.58-.22Z"/><path class="cls-2" d="M97.68,110.55a24.17,24.17,0,0,1,4.33-6.31c.13-.14-.12-.13-.2-.12a1,1,0,0,0-.58.2,24.63,24.63,0,0,0-4.41,6.39c-.06.14.3.08.35.07s.44-.08.51-.23Z"/><path class="cls-2" d="M73.52,117.06q5.6.16,11.15.71c.17,0,.68-.26.36-.29q-5.62-.56-11.28-.72c-.2,0-.62.29-.23.3Z"/><path class="cls-2" d="M100.1,114.53a51,51,0,0,1,8.1-5.32c.44-.23,0-.55-.31-.37a51.2,51.2,0,0,0-8.25,5.41c-.39.31.21.48.46.28Z"/><path class="cls-2" d="M102.29,120.15a76,76,0,0,0,11.15-2.37c.43-.12.32-.57-.12-.44a74.59,74.59,0,0,1-10.95,2.33c-.38,0-.58.54-.08.48Z"/><path class="cls-2" d="M104.62,117.9c2-.39,4-.87,6-1.44.08,0,.36-.1.32-.23s-.33-.07-.4,0q-2.88.82-5.82,1.39c-.09,0-.41.09-.42.22s.21.12.3.11Z"/><path class="cls-2" d="M75.76,114.51c1.79.33,3.58.62,5.39.85a.79.79,0,0,0,.4-.07s.21-.12.08-.14c-1.81-.23-3.6-.52-5.39-.86a.69.69,0,0,0-.4.08s-.21.11-.08.14Z"/><path class="cls-7" d="M241.61,135.05a12.32,12.32,0,0,1,10.09,4.65,3.69,3.69,0,0,1,.78,1.49c.24,1.28-.7,2.46-1.7,3.3a14.74,14.74,0,0,1-7.63,3.35,9.42,9.42,0,0,0,.37,1.51l.38,1.58.78,3.15,1.54,6.29c.37,1.5.73,3,1,4.53.24,1.11,1.38,0,1.84-.31.76-.55,1.55-1.06,2.36-1.54s1.57-.75,2.29-1.23c1.41-.79.94-2.31.3-3.5a27.08,27.08,0,0,0-2.19-3.85l3.31,4.13a2.38,2.38,0,0,0,1,.83,2.18,2.18,0,0,0,1.94-.67,14.19,14.19,0,0,0,2.83-3.16c.54-.81,1.23-1.54.63-2.31-.84-1.09-2.28-1.47-4.13-3.44,1.77.88,3.34,2.05,5.34,2.19,1.51.11,2.45-1.68,3.08-3a16.4,16.4,0,0,0,1.57-5.87c0-.34,0-.36-.3-.48l-.84-.31-1.61-.6-3.23-1.19-2.07-.76a21.89,21.89,0,0,0,7.34-1.74c.57-.25,1-.57.91-1.25a6.42,6.42,0,0,0-.51-1.45c-.33-.86-.67-1.7-1-2.54-.72-1.63-1.53-3.23-2.4-4.78a.5.5,0,0,0-.18-.22c-.2-.12-.75.14-1,.2-.41.13-.81.26-1.21.41a17.3,17.3,0,0,0-2.31,1.07,12.36,12.36,0,0,0-3.33,2.55,12.33,12.33,0,0,0,1.79-2.57c.61-1.05,1.18-2.12,1.72-3.21.08-.17.24-.7.41-.8.4-.78,1.06-1.84.4-2.67a2.49,2.49,0,0,0-1-.7c-1.1-.47-2.15-1-3.22-1.53l-1.6-.77c-.39-.17-1-.55-1.47-.34s-.67,1.35-.82,1.7c-.8,1.84-1.58,3.69-2.4,5.51a14.37,14.37,0,0,1,.11-2.85c.06-.82.12-1.63.2-2.45a9,9,0,0,0,.25-2.24,2.58,2.58,0,0,0-1-2.37,5.36,5.36,0,0,0-2.5-.75,15.07,15.07,0,0,0-5.31.34,5.21,5.21,0,0,0-1.17.26c-.55.29-.34.71-.2,1.2.43,1.59.87,3.15,1.15,4.76a46.54,46.54,0,0,1,.6,4.85A49.18,49.18,0,0,1,241.61,135.05Z"/><path class="cls-2" d="M254.86,125.64q-1.86,4.62-4.11,9.07c-.05.11.49.06.57-.09q2.25-4.45,4.11-9.07c0-.12-.51-.07-.57.09Z"/><path class="cls-2" d="M261.06,133.15a12.86,12.86,0,0,1-3.26,1.91c-.07,0-.23.12-.16.21s.3,0,.38,0a13.65,13.65,0,0,0,3.5-2c.09-.08.06-.16,0-.18a.55.55,0,0,0-.41.11Z"/><path class="cls-2" d="M262,134.92q-3.59,1.46-7.1,3.07c-.36.16,0,.51.27.37q3.51-1.62,7.1-3.07c.36-.15,0-.49-.27-.37Z"/><path class="cls-2" d="M257.18,142.5c1.51.71,3,1.48,4.45,2.3a.71.71,0,0,0,.57,0c.05,0,.4-.2.25-.29-1.49-.85-3-1.63-4.57-2.36a.83.83,0,0,0-.61.1c-.11.06-.27.19-.09.27Z"/><path class="cls-2" d="M253.82,144.29a24.29,24.29,0,0,1,6.84,3.44c.13.09.43,0,.55-.06s.38-.15.27-.23a24.54,24.54,0,0,0-6.94-3.47,1,1,0,0,0-.61.11c-.08,0-.29.15-.11.21Z"/><path class="cls-2" d="M244.45,121.67q.6,5.58.82,11.21c0,.16.58.05.58-.16q-.22-5.61-.82-11.21c0-.16-.61,0-.58.16Z"/><path class="cls-2" d="M250.48,147.38a51.1,51.1,0,0,1,6.42,7.36c.14.2.84,0,.68-.28a51.24,51.24,0,0,0-6.43-7.37c-.18-.17-.87.1-.67.29Z"/><path class="cls-2" d="M245.32,150.52a75.56,75.56,0,0,0,3.83,10.62c.07.16.77-.08.73-.19A76.89,76.89,0,0,1,246,150.33c0-.15-.76,0-.72.19Z"/><path class="cls-2" d="M247.79,152.55c.66,1.92,1.39,3.82,2.21,5.67.09.2.79,0,.72-.19-.81-1.86-1.55-3.75-2.2-5.67-.07-.2-.79,0-.73.19Z"/><path class="cls-2" d="M247.26,123.67c-.09,1.81-.13,3.63-.12,5.45,0,.1.58,0,.58-.16,0-1.81,0-3.63.12-5.45,0-.09-.57,0-.58.16Z"/><path class="cls-2" d="M141.35,168.33c-2.21,3.4-5.79,5.95-9.32,7.81-3.1,1.63-6.66,3-10.21,2.92-3-.05-6.75-.72-8.33-3.24-2.27-3.59-3.1-6.74-2.1-10.39,1.43-5.14,5-12.83,8.15-16.49Z"/><path class="cls-8" d="M142.19,160.75a14.08,14.08,0,0,0-5-8.2c-3.11-2.56-5.92-5.2-10-5.91a8.4,8.4,0,0,0-7.5,2.14,8.76,8.76,0,0,0-1.68,8,23.33,23.33,0,0,0,3.79,7.53,15.75,15.75,0,0,0,4.72,5,14.73,14.73,0,0,0,6.3,1.56c2.87.22,6.12.1,8.1-2S142.82,163.53,142.19,160.75Z"/><path class="cls-2" d="M121,147.73c1,1.28,2.15,2.5,3.26,3.72s2,2.44,3,3.67c.14.17.7,0,.54-.24-1-1.23-1.92-2.5-3-3.67s-2.21-2.44-3.25-3.72c-.15-.18-.7,0-.54.24Z"/><path class="cls-2" d="M128.12,147q.45,3.32.66,6.65c0,.13.59,0,.58-.15q-.21-3.34-.66-6.66c0-.13-.6,0-.58.16Z"/><path class="cls-2" d="M132.85,155l1.23-2.3a13.09,13.09,0,0,1,1.17-1.88c.08-.11-.07-.13-.15-.13a.55.55,0,0,0-.38.15,12.56,12.56,0,0,0-1.17,1.88L132.28,155c-.06.11.2.09.24.09a.48.48,0,0,0,.33-.18Z"/><path class="cls-2" d="M117.77,155.94c3,.47,5.92.91,8.89,1.3.28,0,.59-.36.2-.41q-4.45-.6-8.89-1.3c-.28-.05-.59.35-.2.41Z"/><path class="cls-2" d="M122.11,164.07c1.76-1.23,3.49-2.53,5.36-3.6.11-.06.06-.11,0-.13a.74.74,0,0,0-.41.11c-1.88,1.07-3.6,2.37-5.36,3.6-.1.07-.07.12,0,.13a.65.65,0,0,0,.41-.11Z"/><path class="cls-2" d="M128.19,169.83a35.92,35.92,0,0,0,3-6.14c0-.15-.52-.08-.58.09a35.68,35.68,0,0,1-2.94,6.06c-.12.2.45.13.53,0Z"/><path class="cls-2" d="M137.06,170.54a31.55,31.55,0,0,1-3.2-6.55c-.06-.15-.63,0-.58.16a32,32,0,0,0,3.2,6.55c.1.15.64-.07.58-.16Z"/><path class="cls-2" d="M142.51,165.92q-3.73-1.83-7.36-3.86c-.15-.09-.69.14-.46.27,2.41,1.35,4.87,2.64,7.35,3.86.16.08.7-.16.47-.27Z"/><path class="cls-2" d="M135,158.27c1.76-.63,3.53-1.22,5.33-1.76.06,0,.28-.09.26-.19s-.27,0-.32,0c-1.84.56-3.67,1.16-5.48,1.82-.07,0-.23.09-.17.18s.32,0,.38,0Z"/><path class="cls-6" d="M113.44,168.82a9.76,9.76,0,0,1,.8-1.7c.06-.11-.26-.07-.29-.07a1.31,1.31,0,0,0-.28.09s-.12.05-.15.11a11.47,11.47,0,0,0-.8,1.7c0,.12.24.07.29.06a1.29,1.29,0,0,0,.28-.08s.13-.06.15-.11Z"/><path class="cls-6" d="M115.69,172l.88-1.52s0-.1,0-.14a.27.27,0,0,0-.19-.06.72.72,0,0,0-.29.06.5.5,0,0,0-.19.13L115,172c0,.05,0,.09,0,.14a.34.34,0,0,0,.2.06.94.94,0,0,0,.28-.06.34.34,0,0,0,.19-.14Z"/><path class="cls-6" d="M115.43,162.71l.15-.29s0,0,0,0l0,0,0-.07.09-.15a5.3,5.3,0,0,1,.39-.54.09.09,0,0,0,0-.13.3.3,0,0,0-.19-.05.71.71,0,0,0-.48.19,6.64,6.64,0,0,0-.75,1.19c0,.05,0,.09.07.11a.6.6,0,0,0,.23,0,.53.53,0,0,0,.42-.23Z"/><path class="cls-6" d="M119,170.45a11.91,11.91,0,0,1,.77-1.22c.1-.14-.08-.2-.19-.2a.61.61,0,0,0-.48.19,11.91,11.91,0,0,0-.77,1.22c0,.05,0,.1,0,.14a.27.27,0,0,0,.19.06.71.71,0,0,0,.29,0,.34.34,0,0,0,.19-.14Z"/><path class="cls-6" d="M117.1,175.86a8.58,8.58,0,0,0,1-1.34s0-.07-.06-.08a.39.39,0,0,0-.24,0,.6.6,0,0,0-.42.2,8,8,0,0,1-.9,1.26c-.11.12.09.15.17.14a.64.64,0,0,0,.28-.06.55.55,0,0,0,.21-.12Z"/><path class="cls-6" d="M116.73,166.8a5.23,5.23,0,0,1,1-1.46c.12-.12-.1-.14-.17-.14a.81.81,0,0,0-.48.18,5.57,5.57,0,0,0-1.06,1.54c-.05.13.25.1.3.09a.86.86,0,0,0,.27-.09.3.3,0,0,0,.15-.12Z"/><path class="cls-6" d="M124.51,173.35l.84-1.51c0-.05.05-.09,0-.14a.3.3,0,0,0-.19,0,.71.71,0,0,0-.28.06.46.46,0,0,0-.2.13l-.84,1.51c0,.05,0,.09,0,.14a.35.35,0,0,0,.2,0,.71.71,0,0,0,.28-.06.53.53,0,0,0,.2-.13Z"/><path class="cls-6" d="M129.3,175.25l.09-.16v0l0,0a.56.56,0,0,0,.05-.08c.07-.1.14-.21.22-.31l.23-.27.07-.07s0,0,0,0l0,0,.14-.12s.09-.09.07-.14-.09-.08-.13-.09a.71.71,0,0,0-.51.14,3.91,3.91,0,0,0-1,1.31s0,.09.07.11a.45.45,0,0,0,.23,0,.53.53,0,0,0,.42-.23Z"/><path class="cls-6" d="M121.81,176.24l.85-1.39a.2.2,0,0,0,0-.21.31.31,0,0,0-.21-.11.47.47,0,0,0-.47.23l-.84,1.38a.22.22,0,0,0,0,.22.31.31,0,0,0,.2.11.47.47,0,0,0,.47-.23Z"/><path class="cls-6" d="M126.09,176.94l.73-1.21a.2.2,0,0,0,0-.21.28.28,0,0,0-.21-.12.54.54,0,0,0-.28,0,.55.55,0,0,0-.19.18l-.73,1.21a.2.2,0,0,0,0,.21.27.27,0,0,0,.21.11.53.53,0,0,0,.28,0,.55.55,0,0,0,.19-.18Z"/><path class="cls-6" d="M120.86,172.47l.75-1.27s0-.08,0-.13a.25.25,0,0,0-.19,0,.71.71,0,0,0-.28.06.37.37,0,0,0-.2.12l-.75,1.27s0,.09,0,.13a.32.32,0,0,0,.19,0,.94.94,0,0,0,.28-.06.46.46,0,0,0,.2-.13Z"/><path class="cls-9" d="M135,162.22a6.53,6.53,0,0,0-.24-3.86,3.38,3.38,0,0,0-.9-1.37c-.43-.41-.55-1.06-1-1.49a7.69,7.69,0,0,0-2-1.44,3,3,0,0,0-1.47-.41,2.52,2.52,0,0,0-2,1.37,5.54,5.54,0,0,0-.57,2.48,6.06,6.06,0,0,0,.46,2.95,11.32,11.32,0,0,0,4.27,3.73,2.58,2.58,0,0,0,2.3-.13A3,3,0,0,0,135,162.22Z"/><circle class="cls-6" cx="131.37" cy="152.89" r="0.48"/><circle class="cls-6" cx="134.92" cy="155.87" r="0.48"/><circle class="cls-6" cx="136.29" cy="160.46" r="0.48"/><circle class="cls-6" cx="135.65" cy="164.6" r="0.48"/><circle class="cls-6" cx="132.32" cy="165.84" r="0.48"/><circle class="cls-6" cx="127.73" cy="163.05" r="0.48"/><circle class="cls-6" cx="125.29" cy="159.03" r="0.48"/><circle class="cls-6" cx="125.31" cy="155" r="0.48"/><circle class="cls-6" cx="127.73" cy="152.89" r="0.48"/><path class="cls-2" d="M43.14,142.67c-2.21,3.39-5.79,6-9.32,7.81a21.83,21.83,0,0,1-10.21,2.92c-3-.06-6.75-.73-8.33-3.24-2.27-3.6-3.1-6.75-2.1-10.39,1.42-5.15,5-12.84,8.15-16.49Z"/><path class="cls-8" d="M44,135.08a14.13,14.13,0,0,0-5-8.2c-3.11-2.56-5.92-5.2-10-5.91a8.41,8.41,0,0,0-7.5,2.15c-1.94,2.06-2.34,5.21-1.69,8a23.55,23.55,0,0,0,3.8,7.53,15.83,15.83,0,0,0,4.71,5,14.52,14.52,0,0,0,6.31,1.56c2.87.22,6.12.1,8.09-2S44.61,137.87,44,135.08Z"/><path class="cls-2" d="M22.83,122.06c1,1.28,2.15,2.5,3.26,3.72s2,2.44,3,3.67c.14.18.7,0,.54-.24-1-1.23-1.92-2.5-3-3.66s-2.22-2.45-3.25-3.73c-.15-.18-.7,0-.54.24Z"/><path class="cls-2" d="M29.91,121.3q.45,3.32.66,6.65c0,.13.59,0,.58-.15-.14-2.23-.36-4.44-.66-6.65,0-.14-.6,0-.58.15Z"/><path class="cls-2" d="M34.64,129.29l1.23-2.3A12.66,12.66,0,0,1,37,125.1c.08-.11-.07-.13-.15-.13a.55.55,0,0,0-.38.15A12.56,12.56,0,0,0,35.34,127l-1.27,2.38c-.06.1.2.08.24.08a.47.47,0,0,0,.33-.17Z"/><path class="cls-2" d="M19.56,130.27c3,.48,5.92.91,8.89,1.31.28,0,.59-.36.2-.42-3-.39-5.93-.83-8.89-1.3-.28,0-.59.35-.2.41Z"/><path class="cls-2" d="M23.9,138.41c1.76-1.24,3.49-2.54,5.36-3.61.11-.06.06-.11,0-.13a.74.74,0,0,0-.41.11c-1.88,1.07-3.6,2.37-5.36,3.61-.1.06-.07.11,0,.13a.65.65,0,0,0,.41-.11Z"/><path class="cls-2" d="M30,144.16A34.8,34.8,0,0,0,33,138c.06-.15-.51-.08-.57.09a35.32,35.32,0,0,1-2.94,6.06c-.13.21.44.13.53,0Z"/><path class="cls-2" d="M38.85,144.88a32,32,0,0,1-3.2-6.55c-.06-.15-.63,0-.58.15a31.79,31.79,0,0,0,3.2,6.55c.1.15.64-.07.58-.15Z"/><path class="cls-2" d="M44.3,140.25q-3.73-1.83-7.36-3.86c-.16-.08-.69.15-.46.27,2.41,1.35,4.87,2.64,7.35,3.86.16.08.7-.16.47-.27Z"/><path class="cls-2" d="M36.83,132.61q2.64-1,5.32-1.77c.07,0,.29-.08.27-.18s-.27,0-.32,0c-1.85.55-3.67,1.16-5.48,1.81-.07,0-.23.1-.17.19s.32,0,.38,0Z"/><path class="cls-6" d="M15.23,143.15a10.5,10.5,0,0,1,.79-1.7c.07-.11-.25-.07-.28-.06a.9.9,0,0,0-.28.08.42.42,0,0,0-.15.11,11.47,11.47,0,0,0-.8,1.7c0,.12.24.07.29.07a1.52,1.52,0,0,0,.28-.09s.13-.06.15-.11Z"/><path class="cls-6" d="M17.48,146.36l.88-1.52c0-.05,0-.1,0-.14a.27.27,0,0,0-.19-.06.72.72,0,0,0-.29.06.5.5,0,0,0-.19.13l-.88,1.53s0,.1,0,.14a.27.27,0,0,0,.19.06.72.72,0,0,0,.29-.06.34.34,0,0,0,.19-.14Z"/><path class="cls-6" d="M17.22,137l.15-.29s0,0,0,0l0,0,0-.07.09-.15q.18-.27.39-.54a.09.09,0,0,0,0-.13.3.3,0,0,0-.19,0,.71.71,0,0,0-.48.19,7,7,0,0,0-.75,1.19s0,.09.07.11a.45.45,0,0,0,.23,0,.53.53,0,0,0,.42-.23Z"/><path class="cls-6" d="M20.77,144.78a11.91,11.91,0,0,1,.77-1.22c.1-.13-.08-.2-.19-.2a.61.61,0,0,0-.48.19,11.91,11.91,0,0,0-.77,1.22.12.12,0,0,0,0,.15.33.33,0,0,0,.19.06.94.94,0,0,0,.29-.06c.06,0,.16-.07.19-.14Z"/><path class="cls-6" d="M18.88,150.2a9.71,9.71,0,0,0,1-1.34c0-.05,0-.08-.06-.09a.65.65,0,0,0-.24,0,.57.57,0,0,0-.42.21,8.37,8.37,0,0,1-.91,1.26c-.1.12.1.14.18.13a.67.67,0,0,0,.28-.06.49.49,0,0,0,.2-.11Z"/><path class="cls-6" d="M18.52,141.13a5.38,5.38,0,0,1,1-1.46c.12-.12-.1-.14-.17-.13a.79.79,0,0,0-.49.17,5.65,5.65,0,0,0-1.05,1.55c-.06.12.25.09.3.08a.86.86,0,0,0,.27-.09.26.26,0,0,0,.15-.12Z"/><path class="cls-6" d="M26.29,147.68l.85-1.51s.05-.09,0-.13A.26.26,0,0,0,27,146a.94.94,0,0,0-.28.06.41.41,0,0,0-.2.14l-.84,1.5s-.05.09,0,.14a.32.32,0,0,0,.19.05.72.72,0,0,0,.29-.06c.06,0,.16-.06.19-.13Z"/><path class="cls-6" d="M31.09,149.59l.09-.17v0l0,0a.56.56,0,0,1,.05-.08l.21-.31.24-.28a.46.46,0,0,1,.07-.07h0l0,0,.14-.12s.09-.09.07-.14-.09-.08-.13-.08a.66.66,0,0,0-.51.13,3.91,3.91,0,0,0-1,1.31c0,.05,0,.1.07.11a.46.46,0,0,0,.23,0,.59.59,0,0,0,.42-.23Z"/><path class="cls-6" d="M23.6,150.58l.85-1.39a.22.22,0,0,0,0-.22.31.31,0,0,0-.21-.11.47.47,0,0,0-.47.23l-.84,1.39a.22.22,0,0,0,0,.21.36.36,0,0,0,.21.11.48.48,0,0,0,.47-.22Z"/><path class="cls-6" d="M27.87,151.27l.74-1.21a.2.2,0,0,0,0-.21.27.27,0,0,0-.21-.11.53.53,0,0,0-.28,0,.55.55,0,0,0-.19.18l-.73,1.21a.2.2,0,0,0,0,.21.28.28,0,0,0,.2.12.58.58,0,0,0,.29-.05.45.45,0,0,0,.18-.18Z"/><path class="cls-6" d="M22.65,146.8l.75-1.27s.05-.08,0-.12-.14,0-.19,0a.71.71,0,0,0-.28.06.39.39,0,0,0-.2.13L22,146.81c0,.05-.05.09,0,.13a.3.3,0,0,0,.19.05.71.71,0,0,0,.28-.06.46.46,0,0,0,.2-.13Z"/><path class="cls-9" d="M36.82,136.55a6.53,6.53,0,0,0-.24-3.86,3.45,3.45,0,0,0-.9-1.37c-.43-.41-.55-1.06-1-1.49a7.69,7.69,0,0,0-2-1.44,3,3,0,0,0-1.47-.41,2.52,2.52,0,0,0-2,1.37,5.54,5.54,0,0,0-.57,2.48,6,6,0,0,0,.46,2.95,7.62,7.62,0,0,0,2.26,2.44,7.49,7.49,0,0,0,2,1.29,2.58,2.58,0,0,0,2.3-.13A2.94,2.94,0,0,0,36.82,136.55Z"/><circle class="cls-6" cx="33.16" cy="127.22" r="0.48"/><circle class="cls-6" cx="36.71" cy="130.2" r="0.48"/><circle class="cls-6" cx="38.08" cy="134.79" r="0.48"/><circle class="cls-6" cx="37.44" cy="138.94" r="0.48"/><circle class="cls-6" cx="34.11" cy="140.17" r="0.48"/><circle class="cls-6" cx="29.52" cy="137.38" r="0.48"/><circle class="cls-6" cx="27.08" cy="133.36" r="0.48"/><circle class="cls-6" cx="27.1" cy="129.33" r="0.48"/><circle class="cls-6" cx="29.52" cy="127.22" r="0.48"/><path class="cls-2" d="M219.65,60.9c-2.2,3.4-5.78,5.95-9.32,7.82-3.1,1.63-6.65,3-10.2,2.91-3,0-6.75-.72-8.34-3.23-2.27-3.6-3.1-6.75-2.09-10.39,1.42-5.15,5-12.84,8.14-16.49Z"/><path class="cls-8" d="M220.5,53.32a14.15,14.15,0,0,0-5-8.2c-3.11-2.56-5.92-5.2-10-5.91a8.37,8.37,0,0,0-7.5,2.15c-1.94,2-2.34,5.21-1.69,8a23.15,23.15,0,0,0,3.8,7.53,15.72,15.72,0,0,0,4.71,5,14.51,14.51,0,0,0,6.3,1.56c2.87.22,6.12.1,8.1-2S221.12,56.11,220.5,53.32Z"/><path class="cls-2" d="M199.34,40.3c1,1.28,2.16,2.5,3.26,3.72s2,2.44,3,3.67c.14.18.69,0,.53-.24-1-1.23-1.91-2.5-3-3.67s-2.21-2.44-3.25-3.72c-.14-.18-.7,0-.54.24Z"/><path class="cls-2" d="M206.43,39.54c.3,2.21.51,4.43.65,6.65,0,.13.59,0,.58-.15-.14-2.23-.36-4.44-.65-6.65,0-.14-.61,0-.58.15Z"/><path class="cls-2" d="M211.16,47.52l1.23-2.29a12.6,12.6,0,0,1,1.16-1.89c.08-.11-.07-.13-.14-.13a.56.56,0,0,0-.39.15,12.56,12.56,0,0,0-1.17,1.88l-1.27,2.37c-.06.11.2.09.24.09a.5.5,0,0,0,.34-.18Z"/><path class="cls-2" d="M196.07,48.51q4.44.7,8.89,1.31c.28,0,.59-.37.2-.42-3-.39-5.93-.83-8.88-1.3-.29-.05-.6.35-.21.41Z"/><path class="cls-2" d="M200.42,56.65c1.76-1.24,3.48-2.54,5.35-3.61.11-.06.06-.11,0-.13a.74.74,0,0,0-.41.11c-1.87,1.07-3.6,2.37-5.36,3.61-.09.06-.07.11,0,.13a.74.74,0,0,0,.41-.11Z"/><path class="cls-2" d="M206.49,62.4a34.85,34.85,0,0,0,3-6.14c.06-.15-.51-.08-.58.09A34.23,34.23,0,0,1,206,62.41c-.12.2.45.13.53,0Z"/><path class="cls-2" d="M215.37,63.12a31.58,31.58,0,0,1-3.21-6.55c0-.15-.63,0-.58.15a31.33,31.33,0,0,0,3.21,6.55c.1.15.63-.07.58-.15Z"/><path class="cls-2" d="M220.81,58.49c-2.48-1.22-4.94-2.51-7.36-3.86-.15-.09-.69.14-.46.27q3.63,2,7.36,3.86c.16.08.69-.16.46-.27Z"/><path class="cls-2" d="M213.34,50.85q2.64-1,5.33-1.77c.06,0,.29-.08.26-.18s-.27,0-.32,0q-2.76.83-5.48,1.81c-.06,0-.23.1-.16.19s.31,0,.37,0Z"/><path class="cls-6" d="M191.74,61.39a10.55,10.55,0,0,1,.8-1.7c.06-.11-.26-.07-.29-.07a1.52,1.52,0,0,0-.28.09.53.53,0,0,0-.15.11,10.5,10.5,0,0,0-.79,1.7c-.05.12.24.07.28.06a.9.9,0,0,0,.28-.08s.13-.06.15-.11Z"/><path class="cls-6" d="M194,64.6l.87-1.52s0-.1,0-.14a.26.26,0,0,0-.19-.06.67.67,0,0,0-.28.06.46.46,0,0,0-.2.13l-.87,1.53c0,.05-.05.09,0,.14a.3.3,0,0,0,.2.06.71.71,0,0,0,.28-.06.41.41,0,0,0,.2-.14Z"/><path class="cls-6" d="M193.73,55.28l.16-.29h0l0,0,0-.07.09-.15q.18-.27.39-.54a.09.09,0,0,0,0-.13.32.32,0,0,0-.19-.05.69.69,0,0,0-.48.19,6.49,6.49,0,0,0-.76,1.19s0,.09.07.11a.49.49,0,0,0,.24,0,.51.51,0,0,0,.41-.23Z"/><path class="cls-6" d="M197.29,63a10.41,10.41,0,0,1,.77-1.22c.09-.13-.09-.2-.2-.2a.61.61,0,0,0-.48.19,11.91,11.91,0,0,0-.77,1.22c0,.05,0,.1,0,.15a.29.29,0,0,0,.2.05.69.69,0,0,0,.28-.05.41.41,0,0,0,.2-.14Z"/><path class="cls-6" d="M195.4,68.44a9.64,9.64,0,0,0,1-1.34s0-.08-.06-.09a.59.59,0,0,0-.23,0,.57.57,0,0,0-.42.21,9.28,9.28,0,0,1-.91,1.25c-.11.13.09.15.18.14a.71.71,0,0,0,.28-.06.64.64,0,0,0,.2-.11Z"/><path class="cls-6" d="M195,59.37a5.19,5.19,0,0,1,1-1.46c.11-.12-.1-.14-.18-.13a.76.76,0,0,0-.48.17,5.54,5.54,0,0,0-1.05,1.54c-.06.13.24.1.29.09a1,1,0,0,0,.28-.09c.05,0,.12-.06.14-.12Z"/><path class="cls-6" d="M202.81,65.92l.84-1.51s0-.09,0-.13a.27.27,0,0,0-.19-.06.94.94,0,0,0-.29.06c-.06,0-.16.07-.19.14l-.85,1.5s0,.09,0,.14a.3.3,0,0,0,.19,0,.71.71,0,0,0,.28-.06.46.46,0,0,0,.2-.13Z"/><path class="cls-6" d="M207.6,67.83l.09-.17v0l0,0,0-.08.22-.32.23-.27.07-.07h0l0,0,.14-.12s.09-.09.08-.14a.14.14,0,0,0-.14-.08.67.67,0,0,0-.51.13,4,4,0,0,0-1,1.31s0,.09.07.11a.49.49,0,0,0,.24,0,.57.57,0,0,0,.41-.23Z"/><path class="cls-6" d="M200.12,68.81l.84-1.38a.22.22,0,0,0,0-.22.31.31,0,0,0-.2-.11.47.47,0,0,0-.47.23l-.85,1.39a.2.2,0,0,0,0,.21.31.31,0,0,0,.21.11.47.47,0,0,0,.47-.23Z"/><path class="cls-6" d="M204.39,69.51l.73-1.21a.22.22,0,0,0,0-.21.28.28,0,0,0-.21-.11.48.48,0,0,0-.29,0,.52.52,0,0,0-.18.18l-.74,1.21a.22.22,0,0,0,0,.21.28.28,0,0,0,.21.12.54.54,0,0,0,.28,0,.47.47,0,0,0,.19-.18Z"/><path class="cls-6" d="M199.16,65l.75-1.27s.05-.08,0-.12a.27.27,0,0,0-.19,0,.72.72,0,0,0-.29.06c-.06,0-.16.06-.2.13l-.74,1.26s-.05.09,0,.13a.32.32,0,0,0,.19,0,.64.64,0,0,0,.28-.06.46.46,0,0,0,.2-.13Z"/><path class="cls-9" d="M213.34,54.79a6.61,6.61,0,0,0-.25-3.86,3.35,3.35,0,0,0-.9-1.37c-.43-.41-.54-1.06-1-1.49a7.36,7.36,0,0,0-2-1.44,2.93,2.93,0,0,0-1.47-.41,2.51,2.51,0,0,0-2,1.37,5.55,5.55,0,0,0-.58,2.48,6,6,0,0,0,.46,3,7.55,7.55,0,0,0,2.27,2.44,7.6,7.6,0,0,0,2,1.29,2.6,2.6,0,0,0,2.31-.13A3,3,0,0,0,213.34,54.79Z"/><circle class="cls-6" cx="209.67" cy="45.46" r="0.48"/><circle class="cls-6" cx="213.22" cy="48.44" r="0.48"/><circle class="cls-6" cx="214.6" cy="53.03" r="0.48"/><circle class="cls-6" cx="213.95" cy="57.17" r="0.48"/><circle class="cls-6" cx="210.63" cy="58.41" r="0.48"/><circle class="cls-6" cx="206.03" cy="55.62" r="0.48"/><circle class="cls-6" cx="203.6" cy="51.6" r="0.48"/><circle class="cls-6" cx="203.61" cy="47.57" r="0.48"/><circle class="cls-6" cx="206.03" cy="45.46" r="0.48"/><path class="cls-2" d="M392,83.69c-2.21,3.4-5.78,6-9.32,7.81a21.79,21.79,0,0,1-10.21,2.92c-3-.06-6.75-.73-8.33-3.24-2.27-3.6-3.1-6.75-2.09-10.39,1.42-5.14,5-12.84,8.14-16.49Z"/><path class="cls-8" d="M392.89,76.1a14.15,14.15,0,0,0-5-8.2c-3.11-2.56-5.92-5.2-10-5.9a8.38,8.38,0,0,0-7.5,2.14c-1.93,2.06-2.33,5.21-1.68,8a23.33,23.33,0,0,0,3.79,7.53,15.76,15.76,0,0,0,4.72,5,14.48,14.48,0,0,0,6.3,1.56c2.87.22,6.12.1,8.1-2S393.51,78.89,392.89,76.1Z"/><path class="cls-2" d="M371.73,63.08c1,1.28,2.15,2.5,3.26,3.73s2,2.43,3,3.66c.14.18.69,0,.53-.24-1-1.23-1.92-2.49-3-3.66s-2.21-2.45-3.25-3.73c-.14-.17-.7,0-.54.24Z"/><path class="cls-2" d="M378.81,62.32q.45,3.32.66,6.66c0,.13.59,0,.58-.16q-.21-3.33-.66-6.65c0-.14-.6,0-.58.15Z"/><path class="cls-2" d="M383.54,70.31l1.23-2.3a13.54,13.54,0,0,1,1.17-1.89c.08-.1-.07-.13-.14-.13a.61.61,0,0,0-.39.15A13.09,13.09,0,0,0,384.24,68L383,70.4c-.06.1.2.09.24.08s.28-.06.33-.17Z"/><path class="cls-2" d="M368.46,71.29c3,.48,5.92.91,8.89,1.31.28,0,.59-.36.2-.42-3-.39-5.93-.83-8.89-1.3-.28,0-.59.35-.2.41Z"/><path class="cls-2" d="M372.81,79.43c1.76-1.24,3.48-2.54,5.35-3.61.11-.06.06-.11,0-.13a.74.74,0,0,0-.41.11c-1.87,1.07-3.6,2.37-5.36,3.61-.1.07-.07.11,0,.13a.67.67,0,0,0,.41-.11Z"/><path class="cls-2" d="M378.88,85.18a35.82,35.82,0,0,0,3-6.13c.05-.16-.52-.09-.58.08a35,35,0,0,1-2.94,6.07c-.12.2.45.12.53,0Z"/><path class="cls-2" d="M387.75,85.9a32,32,0,0,1-3.2-6.55c-.06-.15-.63,0-.58.15a31.09,31.09,0,0,0,3.21,6.55c.09.15.63-.07.57-.15Z"/><path class="cls-2" d="M393.2,81.27q-3.74-1.83-7.36-3.86c-.15-.08-.69.15-.46.27,2.42,1.36,4.87,2.64,7.36,3.86.16.08.69-.16.46-.27Z"/><path class="cls-2" d="M385.73,73.63c1.76-.64,3.53-1.23,5.33-1.77.06,0,.29-.08.26-.18s-.27-.05-.32,0c-1.84.55-3.67,1.16-5.48,1.81-.07,0-.23.1-.17.19s.32,0,.38,0Z"/><path class="cls-6" d="M364.13,84.17a10.55,10.55,0,0,1,.8-1.7c.06-.11-.26-.07-.29-.06a1.29,1.29,0,0,0-.28.08.42.42,0,0,0-.15.11,11.47,11.47,0,0,0-.8,1.7c0,.12.25.08.29.07a1.31,1.31,0,0,0,.28-.09s.13,0,.15-.11Z"/><path class="cls-6" d="M366.39,87.39l.87-1.53s0-.1,0-.14a.27.27,0,0,0-.19-.06.72.72,0,0,0-.29.06.43.43,0,0,0-.19.14l-.88,1.52c0,.05,0,.1,0,.14a.3.3,0,0,0,.2.06.71.71,0,0,0,.28-.06.46.46,0,0,0,.2-.13Z"/><path class="cls-6" d="M366.12,78.06l.15-.29s0,0,0,0l0,0,0-.07.09-.15a6.55,6.55,0,0,1,.39-.53.11.11,0,0,0,0-.13.24.24,0,0,0-.2,0,.63.63,0,0,0-.48.19,6.55,6.55,0,0,0-.75,1.18s0,.09.07.11a.49.49,0,0,0,.24,0,.51.51,0,0,0,.41-.23Z"/><path class="cls-6" d="M369.67,85.8a13.93,13.93,0,0,1,.77-1.22c.1-.13-.08-.2-.19-.2a.62.62,0,0,0-.48.2,11.77,11.77,0,0,0-.77,1.21.12.12,0,0,0,0,.15.34.34,0,0,0,.2.06.71.71,0,0,0,.28-.06.34.34,0,0,0,.19-.14Z"/><path class="cls-6" d="M367.79,91.22a9.64,9.64,0,0,0,1-1.34s0-.08-.06-.09a.59.59,0,0,0-.23,0c-.15,0-.35.07-.43.21a8.51,8.51,0,0,1-.9,1.26c-.11.12.09.14.17.14a1,1,0,0,0,.29-.07.56.56,0,0,0,.2-.11Z"/><path class="cls-6" d="M367.42,82.16a5.24,5.24,0,0,1,1-1.47c.11-.11-.1-.14-.18-.13a.8.8,0,0,0-.48.17,5.69,5.69,0,0,0-1.06,1.55c-.05.12.25.09.3.08a.84.84,0,0,0,.27-.08.36.36,0,0,0,.15-.12Z"/><path class="cls-6" d="M375.2,88.7l.84-1.51s0-.09,0-.13a.29.29,0,0,0-.2,0,.92.92,0,0,0-.28,0,.41.41,0,0,0-.2.14l-.84,1.51s0,.09,0,.13a.35.35,0,0,0,.2,0,.71.71,0,0,0,.28-.06.34.34,0,0,0,.2-.13Z"/><path class="cls-6" d="M380,90.61l.09-.17v0l0,0,.05-.08a3.46,3.46,0,0,1,.22-.31,3.11,3.11,0,0,1,.23-.28l.07-.07h0s0,0,0,0l.14-.12s.09-.08.08-.14a.16.16,0,0,0-.14-.08.76.76,0,0,0-.51.13,3.91,3.91,0,0,0-1,1.31c0,.05,0,.1.07.11a.49.49,0,0,0,.24,0c.15,0,.34-.08.41-.23Z"/><path class="cls-6" d="M372.51,91.6l.84-1.39a.2.2,0,0,0,0-.21.28.28,0,0,0-.21-.12.47.47,0,0,0-.47.23l-.84,1.39a.2.2,0,0,0,0,.21.27.27,0,0,0,.21.11.47.47,0,0,0,.47-.22Z"/><path class="cls-6" d="M376.78,92.29l.73-1.21a.2.2,0,0,0,0-.21.31.31,0,0,0-.2-.11.49.49,0,0,0-.29,0,.42.42,0,0,0-.18.17l-.74,1.21a.22.22,0,0,0,0,.22.31.31,0,0,0,.21.11.45.45,0,0,0,.28,0,.47.47,0,0,0,.19-.18Z"/><path class="cls-6" d="M371.55,87.82l.75-1.26s.05-.09,0-.13a.3.3,0,0,0-.19-.05.71.71,0,0,0-.28.06.39.39,0,0,0-.2.13l-.75,1.26s0,.09,0,.13.14.05.19.05a.67.67,0,0,0,.28-.06.39.39,0,0,0,.2-.13Z"/><path class="cls-9" d="M385.73,77.57a6.61,6.61,0,0,0-.25-3.86,3.35,3.35,0,0,0-.9-1.37c-.43-.41-.54-1-1-1.49a7.52,7.52,0,0,0-2-1.44,3.19,3.19,0,0,0-1.47-.41,2.51,2.51,0,0,0-2,1.37,5.58,5.58,0,0,0-.58,2.48,6,6,0,0,0,.46,3,11.32,11.32,0,0,0,4.27,3.73,2.58,2.58,0,0,0,2.3-.13A3,3,0,0,0,385.73,77.57Z"/><circle class="cls-6" cx="382.06" cy="68.24" r="0.48"/><circle class="cls-6" cx="385.61" cy="71.23" r="0.48"/><circle class="cls-6" cx="386.99" cy="75.81" r="0.48"/><circle class="cls-6" cx="386.34" cy="79.96" r="0.48"/><circle class="cls-6" cx="383.02" cy="81.19" r="0.48"/><circle class="cls-6" cx="378.42" cy="78.4" r="0.48"/><circle class="cls-6" cx="375.98" cy="74.39" r="0.48"/><circle class="cls-6" cx="376" cy="70.35" r="0.48"/><circle class="cls-6" cx="378.42" cy="68.24" r="0.48"/><path class="cls-2" d="M392.63,124.94c0-2.28,0-3.73.12-6l-4.34.79-1.2.22c-.09,0-.2.06-.21.15s0,.08,0,.12c.82,1.61,1.88,3.55,2.7,5.16a5.5,5.5,0,0,1,2.48-.47C392.35,124.9,392.63,124.94,392.63,124.94Z"/><path class="cls-10" d="M400,150a30.16,30.16,0,0,0-.8-18.53c-.07-.18-.15-.36-.22-.53-1.31-3.08-3.73-6.18-7.4-6.07a4.43,4.43,0,0,0-4,3.09,9.88,9.88,0,0,0,.2,4.45,35.24,35.24,0,0,1-3.62,22.49,35.93,35.93,0,0,1-7,9.24c-2.92,2.77-6.24,4.34-9.57,6.46a4,4,0,0,0-.9.68,1.21,1.21,0,0,0-.29,1.18c.24.63.06,1.29.73,1.33,3.62.18,8.08-1,11.52-2.09a32.42,32.42,0,0,0,9.3-4.36A30.64,30.64,0,0,0,400,150Z"/><path class="cls-8" d="M381.52,166.19a31.83,31.83,0,0,0,12.51-18A31.28,31.28,0,0,0,393.2,129c-.08-.19-.15-.37-.23-.55a14.25,14.25,0,0,0-2-3.46,4.41,4.41,0,0,0-3.38,3,9.74,9.74,0,0,0,.19,4.45,35.24,35.24,0,0,1-3.62,22.49,35.93,35.93,0,0,1-7,9.24c-2.92,2.77-6.23,4.34-9.57,6.46a3.74,3.74,0,0,0-.9.68,1.26,1.26,0,0,0-.33.92c1.95-.42,3.87-1,5.56-1.49A33.81,33.81,0,0,0,381.52,166.19Z"/><path class="cls-2" d="M367.66,171.37l.86,1.44a.62.62,0,0,1,.09.26c0,.21-.25.32-.45.39l-.93.28a.75.75,0,0,1-.33,0,.6.6,0,0,1-.26-.16,3.13,3.13,0,0,1-.63-.77.33.33,0,0,1-.06-.19.78.78,0,0,1,.1-.15c.21-.39.56-1.72,1.14-1.44Z"/><path class="cls-2" d="M392.18,128.18c3.18,5.5,2.61,12.22.58,18-.06.16.52.09.58-.08,2-5.8,2.6-12.56-.58-18.07-.1-.17-.65,0-.58.15Z"/><path class="cls-2" d="M374.34,170.15a26.39,26.39,0,0,0,13.29-10.05c.17-.25-.42-.24-.55,0a25.46,25.46,0,0,1-12.84,9.74c-.34.12-.25.48.1.36Z"/><path class="cls-2" d="M397.44,132.09a1.78,1.78,0,0,1,.15.71v-.06a2.56,2.56,0,0,1,0,.39c0,.17.21.19.32.17a.66.66,0,0,0,.27-.09.31.31,0,0,0,.14-.16,2,2,0,0,0-.13-1.15c-.06-.15-.28-.13-.41-.1a.51.51,0,0,0-.24.13s-.1.11-.07.16Z"/><path class="cls-2" d="M398.57,134.35l-.08,1.4c0,.16.19.17.31.16a.68.68,0,0,0,.27-.1c.05,0,.14-.08.14-.15l.09-1.4c0-.16-.2-.17-.31-.16a.67.67,0,0,0-.28.1s-.13.08-.14.15Z"/><path class="cls-2" d="M340.18,31.57c.65-2.18,1.12-3.56,1.88-5.71l-4.38-.52-1.21-.14c-.09,0-.2,0-.24.08a.28.28,0,0,0,0,.13c.31,1.78.76,3.94,1.07,5.72a5.58,5.58,0,0,1,2.51.28C339.92,31.45,340.18,31.57,340.18,31.57Z"/><path class="cls-10" d="M339.83,57.69a30.23,30.23,0,0,0,4.68-17.95l-.06-.57c-.34-3.33-1.74-7-5.29-8A4.4,4.4,0,0,0,334.45,33a9.79,9.79,0,0,0-1.12,4.32,35.24,35.24,0,0,1-10.08,20.43,35.78,35.78,0,0,1-9.41,6.77c-3.61,1.79-7.24,2.32-11,3.36a3.83,3.83,0,0,0-1.06.38,1.21,1.21,0,0,0-.62,1c0,.67-.33,1.25.3,1.48,3.41,1.23,8,1.4,11.63,1.39a32.39,32.39,0,0,0,10.16-1.43A30.66,30.66,0,0,0,339.83,57.69Z"/><path class="cls-8" d="M317.43,67.73A31.8,31.8,0,0,0,334.68,54.2a31.23,31.23,0,0,0,4.86-18.62c0-.2,0-.4-.05-.6a14.42,14.42,0,0,0-.94-3.9A4.43,4.43,0,0,0,334.43,33a9.85,9.85,0,0,0-1.12,4.31,35.63,35.63,0,0,1-19.49,27.2c-3.61,1.79-7.24,2.32-11.05,3.36a3.76,3.76,0,0,0-1.06.39,1.33,1.33,0,0,0-.59.77c2,.18,4,.22,5.76.22A33.66,33.66,0,0,0,317.43,67.73Z"/><path class="cls-2" d="M302.66,68.61l.39,1.63a.42.42,0,0,1,0,.27c-.07.2-.33.23-.54.23h-1a.58.58,0,0,1-.32-.06.67.67,0,0,1-.21-.23,3.29,3.29,0,0,1-.37-.91.3.3,0,0,1,0-.21s.1-.07.14-.11c.31-.31,1-1.47,1.51-1Z"/><path class="cls-2" d="M338.81,34.62c1.41,6.17-1.1,12.42-4.73,17.34-.14.19.43.12.53,0,3.66-5,6.2-11.26,4.77-17.48,0-.17-.62,0-.57.15Z"/><path class="cls-2" d="M309.38,69.41A26.33,26.33,0,0,0,325,63.71c.31-.24-.16-.39-.37-.23A25.58,25.58,0,0,1,309.44,69c-.31,0-.46.4-.06.39Z"/><path class="cls-2" d="M342.69,39.93v0a1.87,1.87,0,0,1-.08.67l0-.06a2.88,2.88,0,0,1-.13.31c-.09.15.07.28.21.29a.5.5,0,0,0,.48-.22,2,2,0,0,0,.22-1.21c0-.07-.1-.12-.15-.14a.45.45,0,0,0-.28,0,.4.4,0,0,0-.23.14.22.22,0,0,0-.06.19Z"/><path class="cls-2" d="M343.09,42.41l-.49,1.32c0,.05,0,.12.07.15a.52.52,0,0,0,.25,0,.44.44,0,0,0,.4-.26l.5-1.31c0-.06,0-.13-.08-.15a.41.41,0,0,0-.24,0,.48.48,0,0,0-.41.26Z"/><path class="cls-2" d="M137.14,42.77c2-1.16,3.19-1.94,5.09-3.2l1.55,4.13.43,1.14c0,.08.06.2,0,.26a.25.25,0,0,1-.13,0c-1.8.13-4,.21-5.81.34a5.54,5.54,0,0,0-.87-2.37C137.32,43,137.14,42.77,137.14,42.77Z"/><path class="cls-10" d="M111.88,49.4a30.07,30.07,0,0,1,16.29-8.86l.57-.09c3.31-.47,7.21,0,9,3.22a4.43,4.43,0,0,1-.59,5,9.82,9.82,0,0,1-3.93,2.13,35.24,35.24,0,0,0-17.4,14.69,35.81,35.81,0,0,0-4.31,10.77c-.87,3.93-.51,7.58-.61,11.53a3.81,3.81,0,0,1-.11,1.12,1.19,1.19,0,0,1-.87.85c-.65.13-1.13.62-1.51.07-2-3-3.28-7.46-4.15-11a32.91,32.91,0,0,1-1-10.22A30.57,30.57,0,0,1,111.88,49.4Z"/><path class="cls-8" d="M107.51,73.55a31.83,31.83,0,0,1,9-20,31.28,31.28,0,0,1,16.91-9.19l.59-.09a13.88,13.88,0,0,1,4,0,4.45,4.45,0,0,1-.84,4.45,9.83,9.83,0,0,1-3.92,2.12,35.29,35.29,0,0,0-17.41,14.7,36,36,0,0,0-4.31,10.76c-.87,3.93-.51,7.58-.61,11.53a3.91,3.91,0,0,1-.11,1.13,1.36,1.36,0,0,1-.61.76c-.65-1.9-1.18-3.83-1.6-5.54A33.84,33.84,0,0,1,107.51,73.55Z"/><path class="cls-2" d="M110.21,88.09l-1.67,0a.47.47,0,0,0-.27,0c-.18.11-.15.37-.1.58l.24,1a.58.58,0,0,0,.13.3.63.63,0,0,0,.27.14,3.63,3.63,0,0,0,1,.14.28.28,0,0,0,.2,0s.05-.11.08-.16c.22-.38,1.18-1.36.64-1.72Z"/><path class="cls-2" d="M134.63,44.4c-6.49.1-12.14,4.11-16.14,8.94-.14.17.43.12.53,0,3.82-4.61,9.17-8.55,15.37-8.65.19,0,.63-.29.24-.28Z"/><path class="cls-2" d="M108.28,81.61A25.91,25.91,0,0,1,110,65.42c.13-.28-.45-.26-.55,0a26.21,26.21,0,0,0-1.77,16.4c.06.24.64.09.58-.16Z"/><path class="cls-2" d="M128.49,41.81a2.5,2.5,0,0,0-1.35.59s-.09.08-.07.13.09.07.13.08a.63.63,0,0,0,.27,0,.53.53,0,0,0,.24-.11l.21-.16,0,0s0,0,0,0l.06,0,.11-.06,0,0h0l.06,0,.06,0,0,0h0l.06,0s.12,0,0,0l.13,0a.66.66,0,0,0,.27-.09s.14-.07.15-.13-.23-.12-.3-.11Z"/><path class="cls-2" d="M125.63,42.05l-1.15.8c-.11.07-.21.25,0,.33a.5.5,0,0,0,.51,0l1.16-.8c.11-.07.2-.25.05-.33a.51.51,0,0,0-.52,0Z"/><path class="cls-7" d="M43.25,57a16.71,16.71,0,0,0,4.89-3.52c2.33-2.78,1.1-6.88,0-9.91C46.36,38.9,44.78,34,41.55,30.19,38.8,26.91,35.27,25,31,26.14c-4.59,1.23-10.13,3.14-12.74,7.42a8.79,8.79,0,0,0-.71,7.57,111.72,111.72,0,0,0,5.72,11.62,56.63,56.63,0,0,0,3.15,5.58,6,6,0,0,0,6.69,2.61,32.61,32.61,0,0,0,8.29-3C42,57.6,42.62,57.29,43.25,57Z"/><path class="cls-2" d="M25.16,46.51c.82.47,1.55,1.07,2.32,1.62S29.3,49.38,30.22,50q2.76,1.77,5.67,3.28c.18.09.76-.21.68-.24-1.93-1-3.82-2.11-5.66-3.28q-1.35-.87-2.67-1.8c-.79-.56-1.55-1.18-2.4-1.67-.17-.1-.76.2-.68.24Z"/><path class="cls-2" d="M24,38.8l-.41-.38-.68.26Q31.53,44,39.84,49.78c.19.13.83-.16.67-.27Q32.2,43.75,23.6,38.42c-.15-.1-.86.09-.68.26l.41.39c.16.15.84-.12.68-.27Z"/><path class="cls-2" d="M26.35,35A88.81,88.81,0,0,1,41.82,44c.24.17.89-.17.57-.4a88.89,88.89,0,0,0-15.48-8.93c-.26-.11-.9.25-.56.4Z"/><path class="cls-2" d="M30.77,32.1l10.82,6.43c.19.12.86-.17.58-.33L31.35,31.76c-.19-.11-.86.17-.58.34Z"/><path class="cls-2" d="M26.11,52.19c.71-7.58,4.17-14.43,7.6-21.09.18-.34-.55-.3-.68-.05-3.45,6.7-6.94,13.6-7.65,21.21,0,.33.71.21.73-.07Z"/><path class="cls-2" d="M29.27,54.9a67.12,67.12,0,0,1,8.61-22.08c.16-.28-.56-.2-.68,0A67.42,67.42,0,0,0,28.55,55c-.05.25.67.14.72-.1Z"/><path class="cls-2" d="M33.76,55.61A77,77,0,0,1,42.07,33.2c.06-.11-.61-.07-.72.12a77,77,0,0,0-8.3,22.41c0,.18.68.07.71-.12Z"/><path class="cls-11" d="M29.76,26.53c.67-4,2.62-7.71,1.85-11.58-.13-.62-.45-1.31-1.07-1.43S29.31,14,29,14.59c-.75,1.2-1.2,3.93-1.48,5.32-.12-2.92,1.06-7.56-.3-10.24-.35-.68-.94-1.37-1.7-1.31-1,.07-1.58,1.4-1.49,2.45a63.4,63.4,0,0,1,.28,7.44c-.6-2.52-1.12-6.65-2-8.93-.34-.89-.84-1.87-1.76-2.09a2,2,0,0,0-2,.94,3.55,3.55,0,0,0-.4,2.29,12.45,12.45,0,0,0,1.05,3.39l2.34,5.61A29.3,29.3,0,0,0,14.84,14a2.78,2.78,0,0,0-1.36-.52,1.08,1.08,0,0,0-1.13.76,1.45,1.45,0,0,0,.06.62c.9,3.67,4.5,5.8,7.42,7.94a27.35,27.35,0,0,1-3.37-1.6A5,5,0,0,0,13,20.41a1.36,1.36,0,0,0-.77.39,1.45,1.45,0,0,0-.07,1.47,6.36,6.36,0,0,0,2.25,2.5,23.69,23.69,0,0,0,8.79,4l.44.1s3.67-1.6,4.45-1.85S29.76,26.53,29.76,26.53Z"/><path class="cls-7" d="M424.11,113.67a16.72,16.72,0,0,0,5.78,1.7c3.63.14,6.11-3.35,7.8-6.11,2.59-4.21,5.46-8.43,6.52-13.35.9-4.17.24-8.13-3.26-10.79-3.78-2.88-8.69-6.08-13.67-5.52a8.76,8.76,0,0,0-6.41,4.08,109.76,109.76,0,0,0-5.68,11.64,56.9,56.9,0,0,0-2.48,5.92,6,6,0,0,0,2.05,6.88,32.57,32.57,0,0,0,7.48,4.69Z"/><path class="cls-2" d="M421.21,93.27c.13,1,.11,1.91.15,2.86s.11,2.12.21,3.18q.29,3.3.89,6.57c0,.2.76,0,.72-.19q-.58-3.27-.89-6.57-.14-1.59-.21-3.18c0-1,0-1.92-.15-2.86,0-.2-.76,0-.72.19Z"/><path class="cls-2" d="M426.7,87.1l.05-.56-.72.15q1.07,10.07,1.6,20.17c0,.18.74,0,.72-.2q-.54-10.09-1.59-20.16c0-.2-.71,0-.73.15l0,.55c0,.25.7.11.72-.1Z"/><path class="cls-2" d="M431,87.08a89.49,89.49,0,0,1,2.44,17.69c0,.11.73,0,.72-.19a89.57,89.57,0,0,0-2.43-17.7c0-.14-.76,0-.73.2Z"/><path class="cls-2" d="M436,88.8l1.55,12.49c0,.33.77.15.73-.19l-1.55-12.5c0-.32-.77-.15-.73.2Z"/><path class="cls-2" d="M417.35,97.1c6.37-4.06,13.9-5.5,21.21-6.86.46-.09.32-.56-.13-.48-7.45,1.39-15.06,2.89-21.56,7-.41.26.19.49.48.31Z"/><path class="cls-2" d="M417.06,101.32a66.62,66.62,0,0,1,22.58-6.69c.4,0,.56-.59.07-.53a67.48,67.48,0,0,0-23,6.8c-.44.22-.05.61.32.42Z"/><path class="cls-2" d="M419.29,105.14a76,76,0,0,1,22.52-7.09c.29,0,.66-.32.14-.25a77.74,77.74,0,0,0-23.07,7.27c-.42.21.25.15.41.07Z"/><path class="cls-11" d="M439.87,84.36c3.57-1.92,7.7-2.65,10.28-5.64a1.64,1.64,0,0,0,.48-1.72c-.32-.6-1.14-.67-1.82-.6-1.41.14-3.84,1.46-5.11,2.09,2.23-1.89,6.62-3.79,7.9-6.51a2,2,0,0,0,0-2.15c-.71-.78-2.08-.38-2.86.32a58.37,58.37,0,0,1-5.7,4.78c1.62-2,4.57-5,5.83-7.05a3,3,0,0,0,.56-2.68,2,2,0,0,0-2-1,3.55,3.55,0,0,0-2,1.08,12.5,12.5,0,0,0-2,2.9l-3,5.3a29.61,29.61,0,0,0,.23-8.56,3,3,0,0,0-.43-1.4,1.07,1.07,0,0,0-1.29-.42,1.54,1.54,0,0,0-.46.42c-2.34,3-1.82,7.11-1.72,10.73a28.49,28.49,0,0,1-.8-3.64,5,5,0,0,0-1.48-3.26,1.39,1.39,0,0,0-.78-.37,1.44,1.44,0,0,0-1.2.85,6.25,6.25,0,0,0-.6,3.31,23.66,23.66,0,0,0,2.24,9.39l.19.4s3.51,1.93,4.19,2.39S439.87,84.36,439.87,84.36Z"/><path class="cls-12" d="M363.93,120.1c-1.71-1.7-3.4-3.25-5.95-3.38-.81,0-1.62.07-2.42,0s-1.49-.57-2.3-.63a18.92,18.92,0,0,0-4,.12,16.69,16.69,0,0,0-7.34,2.83,14.23,14.23,0,0,0-6.09,11.5,17.07,17.07,0,0,0,3.9,9.95,14.74,14.74,0,0,0,3.56,3.4,17.09,17.09,0,0,0,7.56,2.23A24.94,24.94,0,0,0,363,144.76c3.78-1.6,7.05-4.82,7.91-8.83a13.28,13.28,0,0,0-1.44-8.74A28.77,28.77,0,0,0,363.93,120.1Z"/><path class="cls-2" d="M358.83,118.39a2,2,0,0,0-.37-1.09,1.35,1.35,0,0,0-.8-.65c-.47-.07-1,.12-1.43.09a5.21,5.21,0,0,1-1.57-.31,5.49,5.49,0,0,0-.57-.2,2.7,2.7,0,0,0-.69-.18,7.62,7.62,0,0,0-1.51,0,1.65,1.65,0,0,0-.58.14.58.58,0,0,0-.32.48c0,.29.27.5.54.62a2.65,2.65,0,0,0,1.55.17A2.64,2.64,0,0,0,352,118a.79.79,0,0,0-.36.57.57.57,0,0,0,.32.48,1.11,1.11,0,0,0,.6.11,3.39,3.39,0,0,0,2.14-1.19,3.26,3.26,0,0,0-.51,1.12,1,1,0,0,0,.11.86.75.75,0,0,0,.95.12,1.71,1.71,0,0,0,.64-.81,3.86,3.86,0,0,0,.32-1.1,5.31,5.31,0,0,0,.52.75,3.45,3.45,0,0,0,.64.48,1,1,0,0,0,1,.07.81.81,0,0,0,.35-.46A1.44,1.44,0,0,0,358.83,118.39Z"/><path class="cls-3" d="M355.6,117.49c-.06,0-.09-.17-.11-.22a2.53,2.53,0,0,1-.12-.36,5.1,5.1,0,0,1-.15-.76,7.83,7.83,0,0,1,0-1.53,7.54,7.54,0,0,1,.12-.83,12,12,0,0,1,5.94-8.07c3.62-2,7.94-1.87,12.05-2a2.85,2.85,0,0,0,1.72-.61,22,22,0,0,1-2,4.47,11.49,11.49,0,0,1-2.68,3.32,14.27,14.27,0,0,1-4.13,2.06,54.06,54.06,0,0,1-5.53,1.67,16.77,16.77,0,0,0-2.53.76,5,5,0,0,0-2,1.45,3,3,0,0,0-.21.33,2.14,2.14,0,0,1-.2.32S355.62,117.5,355.6,117.49Z"/><path class="cls-2" d="M357.49,114.08a5.86,5.86,0,0,1,3-3.27,21.94,21.94,0,0,1,4-1,17.35,17.35,0,0,0,3.81-1.11,12.07,12.07,0,0,0,3.21-2.38c.32-.3-.39-.39-.6-.18A10.35,10.35,0,0,1,367,108.7a34,34,0,0,1-4.22,1,11.51,11.51,0,0,0-3.48,1.16A7,7,0,0,0,356.8,114c-.18.35.56.32.69.06Z"/><path class="cls-3" d="M354.16,115l.16-.07a1.71,1.71,0,0,0,.59-1,7.4,7.4,0,0,0-1.21-6.48c-2.41-2.77-5.53-4.85-7.29-9-.26,1.5-.4,2.53-.62,3.79a13.17,13.17,0,0,0,.45,6.35,8.87,8.87,0,0,0,3.84,4.7,12.85,12.85,0,0,0,2.11,1.16C352.72,114.7,353.58,115.18,354.16,115Z"/><path class="cls-12" d="M280.36,31.13c1.72-1.71,3.4-3.26,6-3.38.8,0,1.61.06,2.41,0s1.49-.58,2.31-.64a18.18,18.18,0,0,1,4,.13A16.68,16.68,0,0,1,302.35,30a14.19,14.19,0,0,1,6.09,11.51,16.91,16.91,0,0,1-3.9,9.94A14.79,14.79,0,0,1,301,54.9a17.07,17.07,0,0,1-7.56,2.22,24.89,24.89,0,0,1-12.12-1.34c-3.79-1.59-7.06-4.81-7.92-8.83a13.3,13.3,0,0,1,1.45-8.74A28.87,28.87,0,0,1,280.36,31.13Z"/><path class="cls-2" d="M285.46,29.41a1.94,1.94,0,0,1,.38-1.08,1.27,1.27,0,0,1,.79-.65c.48-.07,1,.12,1.44.08a5.15,5.15,0,0,0,1.56-.31c.18-.07.4-.13.57-.2a2.79,2.79,0,0,1,.69-.17,7.62,7.62,0,0,1,1.51,0,1.27,1.27,0,0,1,.58.14.58.58,0,0,1,.33.47c0,.29-.28.51-.54.62a2.67,2.67,0,0,1-1.55.17,2.66,2.66,0,0,1,1,.52.76.76,0,0,1,.35.56.58.58,0,0,1-.32.49,1,1,0,0,1-.59.1A3.29,3.29,0,0,1,289.57,29a3.32,3.32,0,0,1,.5,1.12,1,1,0,0,1-.1.87.77.77,0,0,1-1,.11,1.69,1.69,0,0,1-.64-.8,4.85,4.85,0,0,1-.32-1.11,5,5,0,0,1-.51.75,3.41,3.41,0,0,1-.65.48,1,1,0,0,1-1,.08.83.83,0,0,1-.36-.46A1.49,1.49,0,0,1,285.46,29.41Z"/><path class="cls-3" d="M288.7,28.51c.05,0,.09-.17.11-.22l.12-.36a6.38,6.38,0,0,0,.15-.76,7.82,7.82,0,0,0,0-1.53,7.53,7.53,0,0,0-.11-.83,12.2,12.2,0,0,0-1.19-3.25A12,12,0,0,0,283,16.75c-3.63-1.95-8-1.87-12.06-2a2.8,2.8,0,0,1-1.71-.61,21.29,21.29,0,0,0,2,4.48A11.46,11.46,0,0,0,274,21.91,14.71,14.71,0,0,0,278.12,24a55.87,55.87,0,0,0,5.53,1.67,15.89,15.89,0,0,1,2.52.76,4.73,4.73,0,0,1,2,1.45,3.62,3.62,0,0,1,.22.32,1.29,1.29,0,0,0,.19.32A.07.07,0,0,0,288.7,28.51Z"/><path class="cls-2" d="M287.51,25a6.93,6.93,0,0,0-2.39-3.1,11.13,11.13,0,0,0-3.69-1.21,32.13,32.13,0,0,1-4.1-1,10.54,10.54,0,0,1-3.89-2.57c-.22-.21-.91.08-.67.31A11.84,11.84,0,0,0,276,19.79a18.28,18.28,0,0,0,3.9,1.11,22.31,22.31,0,0,1,3.79.93,6.07,6.07,0,0,1,3.11,3.34c.14.29.86.07.72-.2Z"/><path class="cls-3" d="M290.14,26,290,26a1.64,1.64,0,0,1-.59-1,7.35,7.35,0,0,1,1.21-6.47c2.4-2.78,5.52-4.85,7.29-9,.26,1.5.4,2.52.62,3.78a13.35,13.35,0,0,1-.45,6.36,8.94,8.94,0,0,1-3.84,4.69,12.67,12.67,0,0,1-2.12,1.17C291.57,25.72,290.72,26.21,290.14,26Z"/><path class="cls-12" d="M60.27,152.51c1.72-1.7,3.4-3.25,6-3.38.8,0,1.61.07,2.41,0s1.5-.57,2.31-.63a18.82,18.82,0,0,1,4,.12,16.69,16.69,0,0,1,7.34,2.83,14.18,14.18,0,0,1,6.09,11.5,16.93,16.93,0,0,1-3.9,9.95,14.56,14.56,0,0,1-3.56,3.4,17.09,17.09,0,0,1-7.56,2.23,24.79,24.79,0,0,1-12.12-1.35c-3.79-1.59-7.06-4.81-7.92-8.82a13.29,13.29,0,0,1,1.45-8.74A29,29,0,0,1,60.27,152.51Z"/><path class="cls-2" d="M65.37,150.8a2,2,0,0,1,.38-1.09,1.33,1.33,0,0,1,.8-.65c.47-.07,1,.12,1.43.09a5.15,5.15,0,0,0,1.56-.31c.18-.08.4-.14.57-.2a2.81,2.81,0,0,1,.69-.18,7.72,7.72,0,0,1,1.52,0,1.54,1.54,0,0,1,.57.14.59.59,0,0,1,.33.48c0,.29-.28.5-.54.62a2.66,2.66,0,0,1-1.55.17,2.78,2.78,0,0,1,1.05.51.78.78,0,0,1,.35.57.57.57,0,0,1-.32.48,1.09,1.09,0,0,1-.59.11,3.34,3.34,0,0,1-2.14-1.19,3.06,3.06,0,0,1,.5,1.12,1,1,0,0,1-.1.86.77.77,0,0,1-1,.12,1.78,1.78,0,0,1-.64-.81,4.63,4.63,0,0,1-.32-1.1,5.35,5.35,0,0,1-.51.75,4.28,4.28,0,0,1-.64.48,1,1,0,0,1-1,.07.83.83,0,0,1-.36-.46A1.64,1.64,0,0,1,65.37,150.8Z"/><path class="cls-3" d="M68.61,149.9s.09-.17.11-.22l.12-.36a5.1,5.1,0,0,0,.15-.76A7.92,7.92,0,0,0,69,147a7.68,7.68,0,0,0-.11-.82,12.14,12.14,0,0,0-1.19-3.26A12,12,0,0,0,63,138.13c-3.62-1.95-8-1.87-12.06-2a2.8,2.8,0,0,1-1.71-.61,21.49,21.49,0,0,0,2,4.47,11.46,11.46,0,0,0,2.67,3.32A14.2,14.2,0,0,0,58,145.35,53.31,53.31,0,0,0,63.56,147a17.5,17.5,0,0,1,2.53.76,4.93,4.93,0,0,1,2,1.45l.22.33a1.22,1.22,0,0,0,.2.32A.07.07,0,0,0,68.61,149.9Z"/><path class="cls-2" d="M67.42,146.36A7,7,0,0,0,65,143.25a11.36,11.36,0,0,0-3.68-1.2,33.63,33.63,0,0,1-4.11-1,10.56,10.56,0,0,1-3.89-2.58c-.22-.21-.91.09-.67.31a11.67,11.67,0,0,0,3.22,2.37,18.25,18.25,0,0,0,3.9,1.1,22.1,22.1,0,0,1,3.79.94,6,6,0,0,1,3.11,3.33c.15.3.86.08.72-.19Z"/><path class="cls-3" d="M70.05,147.43l-.16-.07a1.71,1.71,0,0,1-.59-1,7.4,7.4,0,0,1,1.21-6.48c2.41-2.77,5.52-4.85,7.29-9,.26,1.5.4,2.53.62,3.79A13.3,13.3,0,0,1,78,141a9,9,0,0,1-3.84,4.7A13.36,13.36,0,0,1,72,146.88C71.48,147.11,70.63,147.59,70.05,147.43Z"/><path class="cls-12" d="M71.68,31.77c1.72-1.7,3.4-3.25,6-3.38.8,0,1.61.07,2.41,0s1.5-.57,2.31-.63a18.94,18.94,0,0,1,4,.12,16.65,16.65,0,0,1,7.33,2.83,14.18,14.18,0,0,1,6.09,11.5,16.93,16.93,0,0,1-3.9,10,14.69,14.69,0,0,1-3.55,3.4,17.17,17.17,0,0,1-7.57,2.23,24.79,24.79,0,0,1-12.12-1.35c-3.79-1.59-7.06-4.81-7.92-8.82a13.29,13.29,0,0,1,1.45-8.74A29,29,0,0,1,71.68,31.77Z"/><path class="cls-2" d="M76.78,30.06A2,2,0,0,1,77.16,29a1.33,1.33,0,0,1,.8-.65c.47-.07,1,.12,1.43.09A5.15,5.15,0,0,0,81,28.1c.18-.08.4-.14.57-.2a2.81,2.81,0,0,1,.69-.18,7.72,7.72,0,0,1,1.52,0,1.65,1.65,0,0,1,.58.14.6.6,0,0,1,.32.48c0,.29-.27.5-.54.62a2.66,2.66,0,0,1-1.55.17,2.78,2.78,0,0,1,1,.51.78.78,0,0,1,.35.57.57.57,0,0,1-.32.48,1.09,1.09,0,0,1-.59.11,3.34,3.34,0,0,1-2.14-1.19,3.06,3.06,0,0,1,.5,1.12,1,1,0,0,1-.1.86.78.78,0,0,1-1,.12,1.78,1.78,0,0,1-.64-.81,4.63,4.63,0,0,1-.32-1.1,5.35,5.35,0,0,1-.51.75,4.28,4.28,0,0,1-.64.48,1.06,1.06,0,0,1-1,.07.87.87,0,0,1-.36-.46A1.64,1.64,0,0,1,76.78,30.06Z"/><path class="cls-3" d="M80,29.16c.06,0,.09-.17.11-.23l.12-.35a5.1,5.1,0,0,0,.15-.76,7.92,7.92,0,0,0,0-1.54,7.68,7.68,0,0,0-.11-.82,12.14,12.14,0,0,0-1.19-3.26,11.89,11.89,0,0,0-4.75-4.81c-3.62-2-8-1.87-12.06-2a2.8,2.8,0,0,1-1.71-.61,21.73,21.73,0,0,0,2,4.47,11.46,11.46,0,0,0,2.67,3.32,14.2,14.2,0,0,0,4.14,2.06A55.87,55.87,0,0,0,75,26.28,17.5,17.5,0,0,1,77.5,27a4.93,4.93,0,0,1,2,1.45l.22.33a1.22,1.22,0,0,0,.2.32A.07.07,0,0,0,80,29.16Z"/><path class="cls-2" d="M78.83,25.62a7,7,0,0,0-2.39-3.11,11.29,11.29,0,0,0-3.68-1.2,33.63,33.63,0,0,1-4.11-1,10.69,10.69,0,0,1-3.89-2.58c-.22-.21-.9.08-.66.31a11.47,11.47,0,0,0,3.21,2.37,18.17,18.17,0,0,0,3.91,1.1,22.23,22.23,0,0,1,3.78.94,6,6,0,0,1,3.11,3.33c.15.3.86.08.72-.19Z"/><path class="cls-3" d="M81.46,26.68a.44.44,0,0,1-.16-.06,1.71,1.71,0,0,1-.59-1,7.4,7.4,0,0,1,1.21-6.48c2.41-2.77,5.53-4.85,7.29-9,.26,1.5.4,2.53.62,3.79a13.3,13.3,0,0,1-.45,6.35A9,9,0,0,1,85.54,25a13.36,13.36,0,0,1-2.12,1.16C82.9,26.37,82,26.85,81.46,26.68Z"/><rect id="cadre" class="cls-13" width="467.72" height="184.25"/></svg>