<svg xmlns="http://www.w3.org/2000/svg" viewBox="0 0 467.72 184.25"><defs><style>.a{fill:#f7b9b8;}.b{fill:#149898;}.c{fill:#a0d2c3;}.d{fill:#e8b859;}.e{fill:#518d76;}.f{fill:#ef6f50;}.g{fill:#110c19;}.h{fill:#f4ddae;}.i{fill:#b0352b;}.j{fill:#b99a5d;}.k{fill:#f6e3bc;}.l{fill:#d9caa8;}.m{fill:#0d7774;}.n{fill:#0c6b68;}.o{fill:#da573d;}.p{fill:#d27240;}.q{fill:none;}</style></defs><title>troscoltube_renard</title><path class="a" d="M51.16,100.68c.12-.89-1.39-1.17-2-.92a1.35,1.35,0,0,0-.84,1.48,1.61,1.61,0,0,0,1.09,1.17A1.34,1.34,0,0,0,51.16,100.68Z"/><path class="a" d="M46.68,98.44a1.9,1.9,0,0,0-2.38-1.17,1.82,1.82,0,0,0-.92,3,1.87,1.87,0,0,0,2.8-.22A2.3,2.3,0,0,0,46.68,98.44Z"/><path class="a" d="M46.68,104.13a1.53,1.53,0,0,0-.59-1.14,1.6,1.6,0,0,0-1.82,0,1.62,1.62,0,0,0-1,1.86,2.1,2.1,0,0,0,1.12,1.22A1.81,1.81,0,0,0,46.68,104.13Z"/><path class="b" d="M210.79,158.62c-.61-.27-.88-1.32-1.07-1.91a8.8,8.8,0,0,1,.58-6c.37-.79,3.32-5,4.28-4.39a7.59,7.59,0,0,1,.46,1.34,8.4,8.4,0,0,1,.42,2.54,13.86,13.86,0,0,1-.69,4C214.22,156,213.12,158.57,210.79,158.62Z"/><path class="c" d="M185.64,131.69c.06.09.19.08.08.19-2.86-.23-5.85-.83-8.07-2.73-1.25-1.07-3.34-3.18-3.17-5,2.87,0,5.91-.15,8.35,1.66C184.33,126.92,186.11,128.86,185.64,131.69Z"/><path class="b" d="M188.55,132.57c-.07.08,0,.2-.15.12-.61-2.79-.91-5.84.26-8.5.66-1.52,2.07-4.14,3.87-4.5.8,2.76,1.86,5.61.84,8.47A6.09,6.09,0,0,1,188.55,132.57Z"/><path class="b" d="M340.6,180.57c.24-.5-.15-1.29-.34-1.77a7.22,7.22,0,0,0-3.56-3.46c-.65-.3-4.71-1.35-5-.48a6,6,0,0,0,.43,1.09,6.53,6.53,0,0,0,1.08,1.81,11.39,11.39,0,0,0,2.57,2.17C337,180.72,339.11,181.77,340.6,180.57Z"/><path class="c" d="M345.05,181.64c0,.06-.07.09,0,.11a7.92,7.92,0,0,0,3.24-3.59c.33-.88.78-2.51.19-3.37-1.42.82-3,1.57-3.68,3.15A3.46,3.46,0,0,0,345.05,181.64Z"/><path class="c" d="M73.57,179.06c-.24-.5.15-1.29.34-1.76a7.32,7.32,0,0,1,3.56-3.47c.65-.3,4.72-1.35,5-.48a5.72,5.72,0,0,1-.42,1.09A6.89,6.89,0,0,1,81,176.25a11.66,11.66,0,0,1-2.58,2.17C77.14,179.22,75.06,180.27,73.57,179.06Z"/><path class="b" d="M69.12,180.13c0,.06.07.09,0,.11a7.82,7.82,0,0,1-3.24-3.59c-.32-.88-.77-2.51-.18-3.36,1.41.81,3,1.56,3.68,3.14A3.46,3.46,0,0,1,69.12,180.13Z"/><path class="c" d="M135.33,19.58c-.25-.3-.1-.91,0-1.26a5.06,5.06,0,0,1,1.89-2.92c.4-.31,3-1.66,3.35-1.11a3.69,3.69,0,0,1-.12.81,4.67,4.67,0,0,1-.46,1.41,8.09,8.09,0,0,1-1.42,1.88C137.79,19.13,136.53,20.17,135.33,19.58Z"/><path class="b" d="M131.57,21.62c0,.07.11.09,0,.15a10.47,10.47,0,0,1-5.28-3.72c-.69-1.05-1.75-3-1.24-4.33,2.09.65,4.33,1.17,5.72,3A4.59,4.59,0,0,1,131.57,21.62Z"/><path class="b" d="M131.58,22.11l-.13,0A11.1,11.1,0,0,1,126,18.24c-.72-1.11-1.85-3.19-1.27-4.64a.35.35,0,0,1,.42-.21l.64.2c1.94.58,3.94,1.18,5.26,2.93a4.91,4.91,0,0,1,.89,5.09.28.28,0,0,1,0,.18.45.45,0,0,1-.22.28A.32.32,0,0,1,131.58,22.11Zm-6.28-7.95c-.22,1.21.81,3,1.29,3.7a10,10,0,0,0,4.74,3.44,4.33,4.33,0,0,0-.83-4.37c-1.17-1.56-3.07-2.13-4.9-2.68Z"/><path class="b" d="M198.26,67.37c-.28-.58.17-1.51.4-2.06a8.45,8.45,0,0,1,4.16-4.05c.76-.35,5.51-1.58,5.86-.56a7,7,0,0,1-.5,1.27,8,8,0,0,1-1.26,2.12,13.53,13.53,0,0,1-3,2.53C202.43,67.56,200,68.78,198.26,67.37Z"/><path class="c" d="M193.05,68.62c0,.08.09.11,0,.14a9.2,9.2,0,0,1-3.78-4.2c-.38-1-.91-2.94-.22-3.94,1.66,1,3.47,1.83,4.3,3.68A4,4,0,0,1,193.05,68.62Z"/><path class="b" d="M401.37,129.28a.49.49,0,0,1-.46-.32.48.48,0,0,1,.29-.62c3.6-1.37,5.4-3.63,7.67-6.49l.67-.84c1.89-2.35,4.16-6.16,4.5-7.56a.48.48,0,1,1,.94.23c-.41,1.71-2.86,5.67-4.68,7.94l-.66.84c-2.28,2.86-4.24,5.32-8.1,6.79A.51.51,0,0,1,401.37,129.28Z"/><path class="d" d="M413.58,114.06a.45.45,0,0,1-.07.35c-1.51-1.42-1.43-4.46.43-5.6s5.35-.69,5.62,1.82a4.05,4.05,0,0,1-3.32,4.33c-1,.2-3.12-.35-3.3-1.62"/><path class="b" d="M406.24,126.13a.43.43,0,0,1-.3-.11.48.48,0,0,1-.07-.68,11.4,11.4,0,0,0,1.32-4.31c.2-1.69.29-4.34-.09-4.94a.49.49,0,1,1,.83-.51c.74,1.2.25,5.39.22,5.56-.1.9-.62,3.7-1.53,4.81A.48.48,0,0,1,406.24,126.13Z"/><path class="b" d="M406.07,126.6a.49.49,0,0,1-.14-1,25.3,25.3,0,0,0,3.19-1.14,18.32,18.32,0,0,0,1.91-1.09l.6-.38a.49.49,0,0,1,.67.16.48.48,0,0,1-.16.67l-.59.37a15.94,15.94,0,0,1-2,1.15,26,26,0,0,1-3.31,1.2Z"/><path class="d" d="M407.88,113.25a2.83,2.83,0,0,0-3.87,2.22c-.24,1.3-.05,2.65,1.19,3.27a3.5,3.5,0,0,0,2.85-.11,3.22,3.22,0,0,0,1.68-4.19,3,3,0,0,0-1.61-1.42,4.42,4.42,0,0,0-1.88,0"/><path class="d" d="M418.15,120.23c-.68-1.6-3.08-2-4.47-1.22a4.7,4.7,0,0,0-1.9,3.83,2.43,2.43,0,0,0,1.9,2,4,4,0,0,0,4.56-1.73,2.7,2.7,0,0,0-1.06-3.88"/><path class="b" d="M127.39,82.36h0a.48.48,0,0,1-.44-.53c.32-3.84-1-6.43-2.55-9.72l-.47-1c-1.31-2.71-3.78-6.41-4.89-7.31a.49.49,0,0,1-.07-.69.48.48,0,0,1,.68-.07c1.36,1.11,3.89,5,5.16,7.65l.46,1c1.6,3.29,3,6.12,2.65,10.23A.49.49,0,0,1,127.39,82.36Z"/><path class="a" d="M119.35,64.51a.45.45,0,0,1,.28.21,3.73,3.73,0,0,1-4.86-2.79c-.22-2.09,1.67-5.13,4-4.29a4.06,4.06,0,0,1,2.49,4.86c-.27,1-1.66,2.66-2.89,2.27"/><path class="b" d="M126.65,76.61a.51.51,0,0,1-.44-.28,11.39,11.39,0,0,0-3.32-3c-1.43-.91-3.78-2.12-4.49-2a.49.49,0,0,1-.54-.43.49.49,0,0,1,.43-.54c1.42-.15,5,2.09,5.12,2.19.76.48,3.06,2.15,3.68,3.45a.49.49,0,0,1-.23.65A.54.54,0,0,1,126.65,76.61Z"/><path class="b" d="M127,77h-.08a.5.5,0,0,1-.41-.56,24.82,24.82,0,0,0,.34-3.37,16.11,16.11,0,0,0-.16-2.18l-.08-.72a.49.49,0,0,1,1-.11l.08.71a17.46,17.46,0,0,1,.17,2.32,29.62,29.62,0,0,1-.35,3.5A.49.49,0,0,1,127,77Z"/><path class="a" d="M116.17,69.31a2.83,2.83,0,0,0,.33,4.45c1.07.77,2.37,1.19,3.47.33a3.52,3.52,0,0,0,1.13-2.62A3.22,3.22,0,0,0,118,68.15a3.06,3.06,0,0,0-2,.84,4.45,4.45,0,0,0-.76,1.72"/><path class="a" d="M126.89,63c-1.74-.07-3.16,1.91-3,3.51a4.68,4.68,0,0,0,2.64,3.36,2.39,2.39,0,0,0,2.59-.86,4,4,0,0,0,.41-4.87,2.71,2.71,0,0,0-4-.71"/><path class="b" d="M367.2,40.48a.38.38,0,0,1-.38-.38c-.17-10.59,4.38-19.79,8.22-25.65a.4.4,0,0,1,.53-.11.39.39,0,0,1,.11.54c-3.78,5.76-8.26,14.82-8.09,25.2a.4.4,0,0,1-.38.4Z"/><path class="a" d="M378.18,11A1.24,1.24,0,0,0,377,10.2a3,3,0,0,0-3,1c-.81,1.09-1.22,3,0,4a2.77,2.77,0,0,0,2.44.66,3.21,3.21,0,0,0,2.71-3.07,2.64,2.64,0,0,0-1.72-2.47"/><path class="b" d="M369.15,27.26a.36.36,0,0,1-.29-.16,10.74,10.74,0,0,1-.85-2.63,8.46,8.46,0,0,1,.05-3.78.34.34,0,0,1,.42-.21.34.34,0,0,1,.21.42,7.85,7.85,0,0,0,0,3.48,10,10,0,0,0,.77,2.37.35.35,0,0,1-.11.46A.37.37,0,0,1,369.15,27.26Z"/><path class="b" d="M370,25.49a.3.3,0,0,1-.22-.08.33.33,0,0,1,0-.47l.18-.2a11.68,11.68,0,0,1,2.45-2.28A11.49,11.49,0,0,1,374,21.6l.13-.06a.33.33,0,1,1,.28.59l-.13.06a10.69,10.69,0,0,0-1.53.82,11,11,0,0,0-2.33,2.17l-.18.2A.29.29,0,0,1,370,25.49Z"/><path class="a" d="M369.27,15.67c-.78-1.64-3.14.06-3.7,1-1.14,2-.4,4.46,2.08,4.78,2.15.28,4-2.25,3.54-4.26a3.48,3.48,0,0,0-1.39-2,3.54,3.54,0,0,0-2.15-.37"/><path class="a" d="M378.16,19.36c-.22-1.45-2.83-1.42-3.63-.63a3.07,3.07,0,0,0,1.62,5.35c1.54.22,2.92-1.42,3-2.87a2.7,2.7,0,0,0-.46-1.63c-.35-.48-.85-.52-1.33-.82"/><path class="b" d="M367.38,36.87a3.15,3.15,0,0,1-1.23-.52,10.08,10.08,0,0,1-4.39-4.3,8.79,8.79,0,0,1-.87-4.7c.09-.84.62-2.43,1.68-1.76a8.18,8.18,0,0,1,2.12,3,14.36,14.36,0,0,1,1.23,2.92C366.36,33.22,366.75,34.92,367.38,36.87Z"/><path class="b" d="M367.65,33.05a13.14,13.14,0,0,0,1.26-2,12.79,12.79,0,0,1,2.88-3.7c1.07-.87,2.69-1.68,4.1-1.22.54.18.92.36.95.95a3.55,3.55,0,0,1-.51,1.58c-1.74,3.33-5.9,3.28-8.64,5.27C367.48,33.54,367.56,33.49,367.65,33.05Z"/><path class="b" d="M181.27,176.56a.29.29,0,0,1-.16,0c-11.74-5.71-15.6-13.69-17.79-23.92a.35.35,0,0,1,.27-.43.36.36,0,0,1,.43.28c2.15,10,5.93,17.84,17.41,23.42a.37.37,0,0,1,.16.49A.37.37,0,0,1,181.27,176.56Z"/><path class="d" d="M162.45,147.62a1.38,1.38,0,0,0-1.51.47,3.32,3.32,0,0,0-1.16,3.3c.39,1.44,1.72,3.06,3.42,2.74a3,3,0,0,0,2.22-1.65c.7-1.43.6-3.44-.79-4.4a2.91,2.91,0,0,0-3.29-.2"/><path class="b" d="M169.38,167.36h0a11.33,11.33,0,0,1-2.83-1,9.18,9.18,0,0,1-3.21-2.61.36.36,0,1,1,.6-.4,8.41,8.41,0,0,0,3,2.38,10.74,10.74,0,0,0,2.56,1,.35.35,0,0,1,.31.4A.36.36,0,0,1,169.38,167.36Z"/><path class="b" d="M169,165.93a.37.37,0,0,1-.36-.3l0-.29a13.14,13.14,0,0,1-.29-3.65,12.34,12.34,0,0,1,.35-2l0-.17a.36.36,0,0,1,.43-.26.35.35,0,0,1,.27.43l0,.16a11.69,11.69,0,0,0-.33,1.86,12.4,12.4,0,0,0,.28,3.46l.06.3a.36.36,0,0,1-.3.41Z"/><path class="d" d="M159.81,159.25c-1.95-.44-2.09,2.74-1.62,3.89,1,2.35,3.55,3.37,5.51,1.46,1.7-1.65.8-5-1.25-5.93a3.81,3.81,0,0,0-2.64-.14c-.91.29-1.19.92-1.77,1.59"/><path class="d" d="M169.51,154.64c-1.41-.79-3.14,1.47-3,2.69a3.36,3.36,0,0,0,5.69,2.24c1.23-1.18.77-3.47-.45-4.49a2.86,2.86,0,0,0-1.71-.72c-.65,0-1,.38-1.6.59"/><path class="b" d="M177.17,173.54a3.49,3.49,0,0,1-1.27.7,11.08,11.08,0,0,1-6.68.85,9.67,9.67,0,0,1-4.62-2.43c-.66-.66-1.66-2.2-.37-2.65s2.91,0,4.05.24a16.08,16.08,0,0,1,3.34.93C173.36,171.93,175.07,172.75,177.17,173.54Z"/><path class="b" d="M174.22,171.62a15.26,15.26,0,0,0-.9-2.47,13.86,13.86,0,0,1-1.22-5c0-1.51.38-3.44,1.74-4.34.51-.34.93-.55,1.46-.17a4,4,0,0,1,1,1.51c1.68,3.75-1.2,7.29-1.35,11C174.52,172.09,174.54,172,174.22,171.62Z"/><path class="a" d="M277.86,128c-.54.88.92,1.88,1.69,1.91a1.57,1.57,0,0,0,1.58-1.16,1.86,1.86,0,0,0-.6-1.75A1.55,1.55,0,0,0,277.86,128Z"/><path class="a" d="M281.52,132.45c-.25,1.2.86,2.09,2,2.35a2.1,2.1,0,0,0,2.38-2.75,2.15,2.15,0,0,0-3-1.08A2.7,2.7,0,0,0,281.52,132.45Z"/><path class="a" d="M284.21,126.46a1.71,1.71,0,0,0,.08,1.48,1.84,1.84,0,0,0,1.91.86,1.88,1.88,0,0,0,1.89-1.51,2.42,2.42,0,0,0-.61-1.81A2.07,2.07,0,0,0,284.21,126.46Z"/><path class="a" d="M384.4,89.07c-1,.33-.5,2,.06,2.55a1.57,1.57,0,0,0,2,.13,1.86,1.86,0,0,0,.67-1.73A1.55,1.55,0,0,0,384.4,89.07Z"/><path class="a" d="M384.35,94.84c-1,.77-.69,2.16,0,3.07a2.1,2.1,0,0,0,3.59-.58,2.17,2.17,0,0,0-1.64-2.79A2.7,2.7,0,0,0,384.35,94.84Z"/><path class="a" d="M390.25,92c-.45.12-.79.79-.89,1.18a1.84,1.84,0,0,0,.91,1.89,1.89,1.89,0,0,0,2.42.06,2.42,2.42,0,0,0,.7-1.78A2.08,2.08,0,0,0,390.25,92Z"/><path class="a" d="M186.54,20.22c-1,.33-.51,2,.06,2.55a1.57,1.57,0,0,0,2,.13,1.9,1.9,0,0,0,.67-1.73A1.55,1.55,0,0,0,186.54,20.22Z"/><path class="a" d="M186.48,26c-1,.77-.69,2.16,0,3.07a2.11,2.11,0,0,0,3.6-.58,2.17,2.17,0,0,0-1.64-2.79A2.74,2.74,0,0,0,186.48,26Z"/><path class="a" d="M192.38,23.13c-.45.12-.78.79-.88,1.18a1.81,1.81,0,0,0,.91,1.89,1.89,1.89,0,0,0,2.42.06,2.45,2.45,0,0,0,.69-1.78A2.08,2.08,0,0,0,192.38,23.13Z"/><path class="a" d="M138.85,166.8c-1-.13-1.35,1.61-1.07,2.32a1.57,1.57,0,0,0,1.7,1,1.88,1.88,0,0,0,1.36-1.26A1.55,1.55,0,0,0,138.85,166.8Z"/><path class="a" d="M136.25,172c-1.2.26-1.57,1.63-1.36,2.74a2.1,2.1,0,0,0,3.48,1.07,2.15,2.15,0,0,0-.24-3.22A2.67,2.67,0,0,0,136.25,172Z"/><path class="a" d="M142.81,172c-.45-.09-1.05.36-1.31.67a1.82,1.82,0,0,0,0,2.1,1.9,1.9,0,0,0,2.15,1.12,2.47,2.47,0,0,0,1.4-1.29A2.08,2.08,0,0,0,142.81,172Z"/><path class="c" d="M392.24,66.64h-.05a.38.38,0,0,1-.32-.42A23.85,23.85,0,0,1,394.23,58a17.25,17.25,0,0,1,6.3-6.76,14.13,14.13,0,0,1,2.2-.94,9.45,9.45,0,0,0,2.55-1.17.36.36,0,0,1,.52.08.37.37,0,0,1-.08.52A10.21,10.21,0,0,1,403,51a13,13,0,0,0-2.08.87,16.55,16.55,0,0,0-6,6.48,23,23,0,0,0-2.28,8A.37.37,0,0,1,392.24,66.64Z"/><path class="c" d="M401.51,51.66c.89.69,3.44.28,4.48-.66,1.91-1.76,1.59-5.36-1.26-5.1-2.09.19-3.26,3.12-3.86,4.84C400.45,52,400.78,51.75,401.51,51.66Z"/><path class="c" d="M395.66,56.8a10,10,0,0,0,4.09,1.27,4,4,0,0,0,3.51-1.63,1.43,1.43,0,0,0-.95-2.29,7.4,7.4,0,0,0-4.68.68,6.1,6.1,0,0,0-1.34.7A1.83,1.83,0,0,0,395.66,56.8Z"/><path class="c" d="M393,63.4c-.35,1,2.86,1.6,3.43,1.64,1.86.15,5.95-.59,4.93-3.38C400.23,58.53,394.06,61.22,393,63.4Z"/><path class="c" d="M396.81,55.85a26.78,26.78,0,0,0,.8-3.35c.08-1.31-.6-4.73-2.54-4.52-2.17.24-1.83,4-1.29,5.33C394.05,54,395.55,55.74,396.81,55.85Z"/><path class="c" d="M393.36,62.74a4.35,4.35,0,0,1-.05-1.24,6.41,6.41,0,0,0-.95-3.68c-.86-1.13-3.45-3-4.19-.85C387.09,60,390.62,62.76,393.36,62.74Z"/><path class="c" d="M75.07,96.16a.43.43,0,0,1-.16,0,.4.4,0,0,1-.35-.45,23.8,23.8,0,0,1,2.27-8.27,17.3,17.3,0,0,1,6.24-6.84,13.43,13.43,0,0,1,2.21-1,9.31,9.31,0,0,0,2.52-1.2.41.41,0,0,1,.49.65,10.65,10.65,0,0,1-2.74,1.32,12,12,0,0,0-2.06.89,16.46,16.46,0,0,0-5.94,6.52,23.11,23.11,0,0,0-2.19,8A.4.4,0,0,1,75.07,96.16Z"/><path class="c" d="M84.08,81.07c.89.68,3.44.25,4.46-.71,1.9-1.77,1.54-5.37-1.3-5.08-2.09.21-3.24,3.16-3.81,4.88C83,81.4,83.35,81.16,84.08,81.07Z"/><path class="c" d="M87,81.52a4.14,4.14,0,0,1-3-.09l-.13,0c-.32.06-.62.11-.83-.14s-.14-.62.07-1.26c.7-2.09,1.89-4.9,4.1-5.12a2.42,2.42,0,0,1,2.6,1.39,3.93,3.93,0,0,1-1,4.29A4.46,4.46,0,0,1,87,81.52Zm-3.39-.73.14,0,.28,0a.4.4,0,0,1,.26.06c.74.57,3.11.16,4-.68a3.28,3.28,0,0,0,.86-3.5,1.73,1.73,0,0,0-1.9-1c-2,.21-3.14,3.55-3.51,4.65A4,4,0,0,0,83.61,80.79Z"/><path class="c" d="M78.28,86.27a10,10,0,0,0,4.1,1.23,4,4,0,0,0,3.5-1.66,1.44,1.44,0,0,0-1-2.29,7.46,7.46,0,0,0-4.67.73A5.52,5.52,0,0,0,78.9,85,1.78,1.78,0,0,0,78.28,86.27Z"/><path class="c" d="M83.87,87.66a5.09,5.09,0,0,1-1.51.19,10.26,10.26,0,0,1-4.28-1.3.34.34,0,0,1-.14-.31,2.11,2.11,0,0,1,.74-1.51A5.46,5.46,0,0,1,80,84c2.06-.9,3.71-1.15,5-.78a2,2,0,0,1,1.39,1.11A1.88,1.88,0,0,1,86.18,86,3.81,3.81,0,0,1,83.87,87.66ZM78.65,86.1a10.57,10.57,0,0,0,3.74,1.06,3.67,3.67,0,0,0,3.19-1.5,1.27,1.27,0,0,0,.17-1.07,1.36,1.36,0,0,0-1-.71,6.84,6.84,0,0,0-4.43.72,5.69,5.69,0,0,0-1.26.67A1.42,1.42,0,0,0,78.65,86.1Z"/><path class="c" d="M75.7,92.9c-.33,1,2.88,1.57,3.46,1.61,1.86.12,5.94-.66,4.88-3.44C82.87,88,76.72,90.71,75.7,92.9Z"/><path class="c" d="M81.88,94.55a8.77,8.77,0,0,1-2.75.3s-3-.31-3.64-1.32a.79.79,0,0,1-.11-.74s0,0,0,0c.8-1.71,4.18-3.5,6.47-3.42A2.54,2.54,0,0,1,84.37,91a2.28,2.28,0,0,1-.23,2.25A4.23,4.23,0,0,1,81.88,94.55ZM76,93a.12.12,0,0,0,0,.12c.38.56,2.46,1,3.12,1,1.3.09,3.6-.29,4.4-1.37a1.58,1.58,0,0,0,.14-1.6A1.88,1.88,0,0,0,81.84,90C79.65,89.94,76.68,91.67,76,93Z"/><path class="c" d="M79.42,85.31A30.93,30.93,0,0,0,80.19,82c.06-1.31-.66-4.72-2.59-4.49-2.17.26-1.79,4-1.23,5.34C76.64,83.46,78.15,85.21,79.42,85.31Z"/><path class="c" d="M79.51,85.64h-.12c-1.41-.1-3-1.94-3.34-2.72-.4-.93-.81-3.37,0-4.81a2,2,0,0,1,1.49-1,1.86,1.86,0,0,1,1.52.53c1.12,1,1.5,3.33,1.45,4.33a7.78,7.78,0,0,1-.43,2,11.11,11.11,0,0,0-.34,1.35A.34.34,0,0,1,79.51,85.64Zm-2.08-7.8a1.28,1.28,0,0,0-.76.62,5.88,5.88,0,0,0,0,4.2,5.31,5.31,0,0,0,2.46,2.25c.09-.38.2-.75.3-1.1a7.6,7.6,0,0,0,.4-1.88,5.86,5.86,0,0,0-1.23-3.78,1.17,1.17,0,0,0-1-.35Z"/><path class="c" d="M76,92.23A4.24,4.24,0,0,1,76,91a6.34,6.34,0,0,0-1-3.67c-.87-1.12-3.48-2.93-4.2-.81C69.74,89.6,73.3,92.28,76,92.23Z"/><path class="c" d="M76.14,92.57H76a6.4,6.4,0,0,1-5-2.53,3.93,3.93,0,0,1-.63-3.64,1.6,1.6,0,0,1,1.27-1.19c1.24-.21,2.84,1,3.53,1.9A6.4,6.4,0,0,1,76.32,91c0,.11,0,.25,0,.4a2.89,2.89,0,0,0,0,.68.34.34,0,0,1,0,.34A.35.35,0,0,1,76.14,92.57Zm-4.39-6.65a1,1,0,0,0-.64.71,3.28,3.28,0,0,0,.54,3,5.82,5.82,0,0,0,4,2.22c0-.14,0-.31,0-.5V91a5.89,5.89,0,0,0-.91-3.47c-.61-.78-2-1.79-2.88-1.64Z"/><path class="c" d="M273.38,24.78c.3,0,.43-1.59.48-2a14.9,14.9,0,0,0-.73-6.28,16.51,16.51,0,0,0-1-2.65c-.39-.72-1.69-2.17-2.66-1.64s-.76,2.78-.5,3.56A14.48,14.48,0,0,0,267.94,13c-.86-1.43-2.57-3.65-4.31-4.06-2.13-.49-1.34,2.44-1,3.52a9.22,9.22,0,0,0-3.09-2.83c-1.12-.67-3.74-2-4.85-.72s-.07,2.89.86,3.73c.68.61,1.8,1,2.31,1.73-1.4-.81-4.87-.81-3.2,1.57a7.64,7.64,0,0,0,3.45,2.21,18.45,18.45,0,0,1,3.54,1.38c-1.18,0-3-.14-2.92,1.55s2.53,2.68,4,3a34.62,34.62,0,0,0,7.19.5A33.69,33.69,0,0,1,273.38,24.78Z"/><path class="e" d="M272.91,24.4a.2.2,0,0,1-.13,0,30,30,0,0,1-4.54-3.86c-.82-.81-1.61-1.57-2.41-2.25a83.64,83.64,0,0,0-8-6.19.22.22,0,0,1-.07-.33.24.24,0,0,1,.33-.07,82.16,82.16,0,0,1,8,6.22c.81.69,1.63,1.5,2.43,2.27A29.41,29.41,0,0,0,273,24a.25.25,0,0,1,.07.34A.23.23,0,0,1,272.91,24.4Z"/><path class="e" d="M266.2,18.46a.24.24,0,0,1-.23-.18c-.16-.55-.24-1-.32-1.33a8.91,8.91,0,0,0-.44-1.62c-.07-.2-.15-.47-.23-.77a6.81,6.81,0,0,0-.69-1.81.24.24,0,0,1,.07-.33.23.23,0,0,1,.33.06,7,7,0,0,1,.76,1.95c.08.28.15.54.22.73a10,10,0,0,1,.46,1.69,11.7,11.7,0,0,0,.31,1.3.25.25,0,0,1-.17.3Z"/><path class="e" d="M271.45,23.07h0a.26.26,0,0,1-.22-.27,22.34,22.34,0,0,0-.42-7,.24.24,0,0,1,.19-.29.24.24,0,0,1,.28.19,23,23,0,0,1,.44,7.13A.25.25,0,0,1,271.45,23.07Z"/><path class="e" d="M265,18h0a35.57,35.57,0,0,1-6.84-1.42l-.42-.12a.24.24,0,0,1-.17-.29.24.24,0,0,1,.3-.17l.42.11A34.9,34.9,0,0,0,265,17.47a.24.24,0,0,1,0,.48Z"/><path class="e" d="M268.41,22.21a43.12,43.12,0,0,1-5.56-.42.24.24,0,0,1-.21-.28.23.23,0,0,1,.27-.2,37,37,0,0,0,7,.37h0a.24.24,0,0,1,0,.48C269.47,22.19,269,22.21,268.41,22.21Z"/><path class="c" d="M18,177.35c-.28.1-.82-1.44-1-1.78a15,15,0,0,1-.85-6.27,16.32,16.32,0,0,1,.3-2.8c.2-.8,1.09-2.53,2.17-2.25s1.42,2.5,1.36,3.32a15.31,15.31,0,0,1,.33-2.94c.48-1.61,1.58-4.18,3.17-5,1.93-1,1.9,2,1.85,3.16a9.18,9.18,0,0,1,2.29-3.51c.92-.93,3.12-2.87,4.52-1.9s.78,2.77.09,3.82c-.5.76-1.49,1.43-1.81,2.25,1.16-1.13,4.52-2,3.5.73a7.68,7.68,0,0,1-2.8,3,18.12,18.12,0,0,0-3.08,2.21c1.14-.27,2.88-.88,3.21.78s-1.79,3.22-3.11,3.87a34.77,34.77,0,0,1-6.84,2.28A32.59,32.59,0,0,0,18,177.35Z"/><path class="e" d="M18.32,176.87a.2.2,0,0,1-.16-.07.23.23,0,0,1,0-.34,29.78,29.78,0,0,0,3.37-4.79c.58-.95,1.18-1.93,1.79-2.8a82.89,82.89,0,0,1,6.22-8,.24.24,0,0,1,.36.32,80.87,80.87,0,0,0-6.19,8c-.6.86-1.17,1.79-1.77,2.77a29.8,29.8,0,0,1-3.43,4.87A.22.22,0,0,1,18.32,176.87Z"/><path class="e" d="M23.34,169.45h0a.25.25,0,0,1-.24-.25c0-.56,0-.95,0-1.33a10.57,10.57,0,0,1,0-1.75c0-.21,0-.48,0-.77a7,7,0,0,1,.24-2.07.24.24,0,0,1,.31-.15.24.24,0,0,1,.15.31,6.84,6.84,0,0,0-.22,1.92c0,.31,0,.59,0,.8a9.59,9.59,0,0,0,0,1.68c0,.39,0,.79,0,1.37A.25.25,0,0,1,23.34,169.45Z"/><path class="e" d="M19.41,175.22a.25.25,0,0,1-.23-.16,22.87,22.87,0,0,1-1.35-7,.24.24,0,0,1,.22-.25.24.24,0,0,1,.26.23,22.3,22.3,0,0,0,1.33,6.87.24.24,0,0,1-.15.31Z"/><path class="e" d="M24.38,168.66a.25.25,0,0,1-.07-.48,34.94,34.94,0,0,0,6.17-3l.37-.21a.25.25,0,0,1,.33.09.23.23,0,0,1-.09.33l-.37.22a35.67,35.67,0,0,1-6.27,3.08Z"/><path class="e" d="M20.64,174a.24.24,0,0,1,0-.48,36.69,36.69,0,0,0,6.7-2.1.24.24,0,0,1,.31.13.25.25,0,0,1-.13.32A37.47,37.47,0,0,1,20.69,174Z"/><path class="f" d="M214.1,140a11.42,11.42,0,0,1,2.89-4.33,18.81,18.81,0,0,1,3.48-2.42,33.06,33.06,0,0,1,5.25-2.64,35.69,35.69,0,0,1,13.08-2.5,45.78,45.78,0,0,1,13.69,1.47c8.48,2.57,15.66,10.77,15.62,19.94a16.77,16.77,0,0,1-.22,2.55,50.89,50.89,0,0,1-2.3,8.42c-.36,1-.95,2.88-2,3a23.65,23.65,0,0,1-3.15,0c-2.46,0-4.94-.23-7.39-.07-6.23.4-11.66,3.6-17.45,5.6-1.55.54-3.17.75-4.72,1.29-1,.34-1.9.8-2.87,1.15a5.1,5.1,0,0,1-2.74,0c-1.39-.25-2.75-.68-4.14-.91s-2.62-.14-3.92-.38a10.46,10.46,0,0,1-5-2.7c-1.72-1.61-2-4.24-2.28-6.47a34.86,34.86,0,0,1,.48-11c.74-3.88,2.49-7.38,4.18-10.91"/><path class="g" d="M215.89,169.17c-1.33,0-2.66,0-4,.06a6.08,6.08,0,0,1-2.65-.18,1.06,1.06,0,0,1-.5-1.76,3.55,3.55,0,0,1,3.37-1.11c1.54.17,2.86,1,4.41,1.2a2,2,0,0,1,1.09.27c.41.31.48.59.19,1-.76,1.05-2.44.79-3.47.53"/><path class="f" d="M265.06,161.89c-.15,1.51-1.47,3.24-2.24,4.52a17.87,17.87,0,0,1-6.67,5.83,67,67,0,0,1-11.42,4.8,31.17,31.17,0,0,1-8,1.1c-.94,0-1.88,0-2.83,0a4.91,4.91,0,0,1-1.8-.08c.49-.32.9-.76,1.38-1.06-1.66-.18-3.34.18-5-.13a15.1,15.1,0,0,1-6.27-2.65,7.7,7.7,0,0,0,1.7-.63,14.47,14.47,0,0,1-6.09-1.33,12,12,0,0,1-2.94-2.09c-.31-.31-1.71-1.7-1.64-2.18.09-.66,1.92-.11,2.4-.07a36.63,36.63,0,0,0,8-.09c4.36-.61,7.6-3.88,11-6.39a24.35,24.35,0,0,1,17.62-4.27c2.94.37,5.64,2,8,3.69a2.64,2.64,0,0,0,1,.5c.93.2,1-.09,2.26.12a4.64,4.64,0,0,1,1.42.4"/><path class="f" d="M237.61,159.62a25,25,0,0,1,14.68-2.44c2.94.37,5.64,2,8,3.69a2.64,2.64,0,0,0,1,.5c.93.2,1-.09,2.26.12a4.64,4.64,0,0,1,1.42.4"/><path class="h" d="M245.35,176.84l-.62.2a31.17,31.17,0,0,1-8,1.1c-.94,0-1.88,0-2.83,0a4.91,4.91,0,0,1-1.8-.08c.49-.32.9-.76,1.38-1.06-1.66-.18-3.34.18-5-.13a15.1,15.1,0,0,1-6.27-2.65,7.7,7.7,0,0,0,1.7-.63,14.47,14.47,0,0,1-6.09-1.33,12,12,0,0,1-2.94-2.09c-.31-.31-1.71-1.7-1.64-2.18.09-.66,1.92-.11,2.4-.07a36.63,36.63,0,0,0,8-.09c4.36-.61,7.6-3.88,11-6.39a22.48,22.48,0,0,1,2.94-1.83c-.12,0-.12,0-.36.12-.65,1-1.06,2.53.46,3-.87.21-2.17,1.5-2,2.42.25,1.65,2.7,1.12,3.83,1.46-.33.61-1.49,1.13-1.4,2,.13,1.17,1.74.82,2.47,1.45a1.84,1.84,0,0,0,.26,3.25c1,.56,2.45,0,3.37.67C243.17,175,244.15,176.46,245.35,176.84Z"/><path class="f" d="M265.06,161.89c-.15,1.51-1.47,3.24-2.24,4.52a17.87,17.87,0,0,1-6.67,5.83,66.26,66.26,0,0,1-10.8,4.6"/><path class="i" d="M254.08,145a8.11,8.11,0,0,0-4.46.45,5.65,5.65,0,0,0-3.16,2.76,12.52,12.52,0,0,0-.91,2,18.54,18.54,0,0,0-.7,2.15,10.29,10.29,0,0,0-.21,2.23c0,.76.11,1.53.11,2.33-.24-.74-.47-1.49-.65-2.28a8.49,8.49,0,0,1-.1-2.42,14.64,14.64,0,0,1,1.5-4.59,7.06,7.06,0,0,1,1.6-1.94,6,6,0,0,1,2.26-1.1A6.61,6.61,0,0,1,254.08,145Z"/><path class="h" d="M205.37,152.84c-.72.34-2.71-.62-3.5-1a13.2,13.2,0,0,1-3.46-2.9c-1.79-2-3.52-5.35-1.57-7.84,1.74-2.23,5.84-1.18,7.86-.05a13.46,13.46,0,0,1,4,3,5.89,5.89,0,0,1,.73,5.1,7,7,0,0,1-2.31,3.87C206.67,153.36,205.31,154,205.37,152.84Z"/><path class="g" d="M210.57,143.75c-.67-.58-1.68-1.05-2.45-1.61a16,16,0,0,0-3.14-1.86,15.54,15.54,0,0,0-4.28-1.22c-1.25-.12-3.13-.21-4,.85-2.37,3,.28,7.81,2.46,9.93,1.18,1.15,3.67,3.43,5.51,3.47a1.74,1.74,0,0,0,1.13-.43,13.34,13.34,0,0,1-7-4.95c-1.07-1.5-3-5.79-.69-7.16,2-1.16,5.31.69,7,1.62,1.25.67,3.37,1.73,3.82,3.19C209.34,145.19,210.87,143.9,210.57,143.75Z"/><path class="j" d="M208.61,145.41c-1-1-3.66-.81-4.75-.2.35.2,2.7.93,2.6,1.53s-1.58.58-1.84,1.32a5.93,5.93,0,0,1,.95.56c-.88.65-2.29.64-1.53,2.2.12.24.71,1.14,1,1.12.5,0,1.79-2.8,2.06-3.19C207.67,147.92,208.75,146.71,208.61,145.41Z"/><path class="h" d="M237.15,144.61c.79,0,2.27-1.6,2.84-2.28a13.44,13.44,0,0,0,2.1-4c.89-2.52,1.22-6.29-1.53-7.85-2.47-1.4-5.85,1.14-7.29,3a13.39,13.39,0,0,0-2.56,4.31c-.54,1.77.25,3.56,1.26,5a7,7,0,0,0,3.62,2.69C236.14,145.58,237.63,145.63,237.15,144.61Z"/><path class="g" d="M228.87,138.18c.41-.79,1.16-1.61,1.66-2.42a16,16,0,0,1,2.19-2.91,15.07,15.07,0,0,1,3.5-2.76c1.1-.59,2.81-1.39,4-.74,3.33,1.83,2.73,7.33,1.52,10.12-.66,1.52-2.09,4.57-3.78,5.31a1.8,1.8,0,0,1-1.21,0,13.31,13.31,0,0,0,4.59-7.25c.42-1.79.6-6.51-2.09-6.89-2.26-.31-4.64,2.67-5.88,4.19-.9,1.09-2.46,2.87-2.31,4.4C230.56,139,228.65,138.44,228.87,138.18Z"/><path class="j" d="M231.32,139c.5-1.31,3.08-2.14,4.32-2-.25.31-2.15,1.88-1.82,2.4s1.67-.06,2.2.52a6,6,0,0,0-.67.88c1.07.26,2.37-.28,2.25,1.45,0,.27-.22,1.33-.48,1.41-.47.15-2.72-1.91-3.12-2.16C233.15,140.93,231.69,140.22,231.32,139Z"/><path class="k" d="M203.18,157c-.06,0-1.33,1.76-1.64,2.1-.77.86-1.73,1.51-2.52,2.31.38.44,1.16.4,1.69.55a10.05,10.05,0,0,0,2.6.76c-.35.56-1.48.63-1.54,1.47a18.08,18.08,0,0,1,4.35-.1,11.71,11.71,0,0,1,2.3.18,2.18,2.18,0,0,0-.74.88,53.58,53.58,0,0,1,8.24,1.24,53.48,53.48,0,0,0,5.76,1.19c1.32.13,3.64.19,4.84-.56.9-.56,1.23-.71,2.11-1.32a47.73,47.73,0,0,0,4.4-3.64c2.52-2.27,5.16-4.41,7.8-6.54a16,16,0,0,1,3.65-2.06c.84-.37,1.84-.66,2.63-1.07a6.88,6.88,0,0,0-2.74-.55c0-.07,0,0,0-.13.68-.45,1.42-.79,2.1-1.22-.42-.24-1.12-.09-1.62-.12.65-.85,2.22-1.22,3.13-1.85a5.1,5.1,0,0,0-1.84-.26,2.94,2.94,0,0,1-2-.13,28.06,28.06,0,0,0-7-1.66,52.42,52.42,0,0,0-16.71,1,46.92,46.92,0,0,0-13.71,5.26C205.05,153.77,204.29,155.45,203.18,157Z"/><path class="g" d="M209.54,159.58c-.09,0-.1-.06-.19,0,.51,1.93,2.5,3.64,4.59,3a4,4,0,0,0,2.34-2.41,5.7,5.7,0,0,1-3.39,1.41A6.57,6.57,0,0,1,209.54,159.58Z"/><path class="g" d="M230.23,157.26c1.23,1.11,4-.31,4.82-1.33.59-.75,1.69-3.17.72-4-.53,1.53-.69,3.18-2.17,4.14a7,7,0,0,1-2,.93A7.2,7.2,0,0,0,230.23,157.26Z"/><path class="f" d="M244.69,149c-.24.09-.68-.12-1-.18a21.33,21.33,0,0,0-2.88-.2c-1.07,0-2.21-.19-3.27-.14a13.17,13.17,0,0,0-4.66,1.28,11.94,11.94,0,0,0-6.1,6.88c-.79,2.08-.34,4.11-.39,6.24-.31.47-2,.83-2.67.93-.8.13-.62-.07-1-.79-1.83-3.5-5.26-6.63-9.22-7.38a13.06,13.06,0,0,0-6.49.68,15.63,15.63,0,0,0-3.65,1.66,10.08,10.08,0,0,1-1.9,1.1c.82-1.79,1.88-3.51,2.83-5.25,1.05-1.92,1.54-4,2.55-6,1.21-2.36,2.79-5.16,5-6.72,2.72-1.91,5.49-3.62,8.82-4.2,4.66-.82,8.9.52,12.89,2.85a77.61,77.61,0,0,1,7.5,4.94c.92.68,1.73,1.64,2.65,2.31.76.54,2.37.85,3.16,1.28C246.5,148.45,245.09,148.82,244.69,149Z"/><path class="g" d="M226,165.24a.87.87,0,0,1-.65.23c-1,0-2.38.09-2.73-.58-.56-1.08,1.31-1.6,1.95-1.79s2.26-1.06,2.71-.23S226.74,164.59,226,165.24Z"/><path class="i" d="M214.1,147.18a16.38,16.38,0,0,0-.31-1.67c.53.19,1.18,1.37.65,1.85a.69.69,0,0,1-.15-.44"/><path class="i" d="M218.41,146.53c-.38.17-.59-1.23-.2-1.23s.83,1.4.53,1.7a.89.89,0,0,1-.53-.6"/><path class="i" d="M218.47,150.52c-.21-.33-.55-1.09-.18-1.39.31.12.44.6.48.91.09.59-.32.87-.43.16"/><path class="i" d="M222.2,151a3.38,3.38,0,0,1-.25-1.47,1.15,1.15,0,0,1,.38,1.65c-.15,0-.14-.08-.2-.18"/><path class="i" d="M222,145.38c-.13-.49-.64-1.64-.2-2,.35.39.73,1.54.31,2a.9.9,0,0,1-.24-.12"/><path class="i" d="M225,148a5.51,5.51,0,0,1-.33-1.67c.52,0,.64,1.1.58,1.54a.76.76,0,0,1-.25-.06"/><path class="i" d="M226.31,142.93c0-.24-.25-1.32.13-1.35s.44,1.2.31,1.48a.5.5,0,0,1-.44-.38"/><path class="i" d="M214.45,139.22a14.78,14.78,0,0,1,7-2.92,14.13,14.13,0,0,1,7.44,1.28,22.13,22.13,0,0,0-7.35-.6A23.55,23.55,0,0,0,214.45,139.22Z"/><path class="i" d="M237.4,159.86a10.71,10.71,0,0,1,3-1.86,34.74,34.74,0,0,1,3.3-1.14,22.24,22.24,0,0,1,7-.87,13.72,13.72,0,0,1,6.74,2.23,22.16,22.16,0,0,1,2.65,2.29,5.33,5.33,0,0,0,3,1.38,5.19,5.19,0,0,1-3.36-.95c-1-.68-1.8-1.46-2.78-2a14.68,14.68,0,0,0-6.35-1.86,26.87,26.87,0,0,0-6.73.6A20.48,20.48,0,0,0,237.4,159.86Z"/><path class="f" d="M432,88.46c4.85-.59,9.41,1.61,14.33,2s10.85,0,14.31-3.91a13,13,0,0,0,2.92-11.88c-.56-2.28-1.77-5.54-4-6.4a8.87,8.87,0,0,0-1,2.45c-.12.43-.71,1.26-.7,1.64,0,.62,1,.9,1.32,1.51a4.71,4.71,0,0,1,.18,3c-.43,1.53-1.78,2-3.25,2.26a18.74,18.74,0,0,1-6.88-.23c-4-.84-7.19-3.34-11-4.65a22.35,22.35,0,0,0-4.75-1.07c-.68.29-.81,1.18-.91,1.85a5.19,5.19,0,0,0,.41,2.88c.37,1,.93,1.83,1.25,2.82.21.65.4,1.3.63,1.94a16.72,16.72,0,0,1,.58,1.86c.18.79.31,1.79-.41,2.33a13.82,13.82,0,0,1-1.66.88C432.78,88.06,432.4,88.19,432,88.46Z"/><path class="h" d="M435.29,73.53A23,23,0,0,0,418,77a11.68,11.68,0,0,0-5.16,8.65c-.13,2.56-.33,5.32,1.09,7.61.47.74,1.57,2.31,2.55,2.21,0-.78-.49-1.5-.47-2.28.87,2.1,1.61,3.68,3.7,4.8,1.51.82,3.92,1.53,5.65.89a8.07,8.07,0,0,1-2.15-2c1.2.23,2.18.86,3.46.91a5.79,5.79,0,0,0,2.94-.76c.52-.25,1.84-.64,2-1.33-1.37.18-3,.37-4.27-.52a3.16,3.16,0,0,1-.92-3.36,4,4,0,0,1,2.85-2.66c4-1.39,7.67-.49,11.45.39-1.2-.35-4.22-1.27-2.51-2.9-1.08-.59-4.59-2.71-2-3.86A3.83,3.83,0,0,1,434.7,81c-.1-.52.4-.94.8-1.25-.66-1.13-2.38-1.69-2.46-3.28,0-1,1-.89,1.72-1.15C434.44,74.46,434.38,74.07,435.29,73.53Z"/><path class="g" d="M437.13,61.47a5.74,5.74,0,0,1,.64,2.6,34,34,0,0,1,0,5.62,9.41,9.41,0,0,1-.81,2.77c-.28.76-.07,1.17.82,1.16,1.81,0,2.61-2.66,2.89-4.12.2-1,1.94-5.15,1.3-6-.77-1.06-3,.75-3.8-.31A9.87,9.87,0,0,1,437.13,61.47Z"/><path class="h" d="M436.38,42.25A17.49,17.49,0,0,0,434,48.74a19.22,19.22,0,0,0,.93,8.58,4.12,4.12,0,0,0,.28-.9,9.58,9.58,0,0,1,.4,1.51,13.6,13.6,0,0,0,1.12,2.74,10.64,10.64,0,0,0,2.91,4c-.14-1,1.54.66,1.7.79a10,10,0,0,0,2.91,1.9c.06-.28-.07-.41-.14-.69a11.44,11.44,0,0,1-.26-4.2,8.2,8.2,0,0,1,.49-2.18c.12-.28.71-.93.71-1.19,0-.46-1.13-1.29-1.38-1.67a18.51,18.51,0,0,1-2.49-5.64,17.29,17.29,0,0,1-.46-5.12,12.31,12.31,0,0,0,.33-2.21c-.59.42-1-1.16-1.7-1.27A13.17,13.17,0,0,1,436.38,42.25Z"/><path class="f" d="M447.28,42.61a21.27,21.27,0,0,0,3.38,8,46.89,46.89,0,0,0,3.68,4.28,53.8,53.8,0,0,1,3.51,5,19,19,0,0,1,2.72,8.86,8.82,8.82,0,0,1-.36,4.21c-.24.56-.49.56-1,.66A19.5,19.5,0,0,1,454,74a18.83,18.83,0,0,1-4.78-.74,9.64,9.64,0,0,1-3.85-3.38,8.23,8.23,0,0,1-1.88-3.57,12,12,0,0,1,.52-6.6c-1.09-.63-1.62-2.4-2.2-3.45a20.76,20.76,0,0,1-2.13-9.87A3.17,3.17,0,0,1,440.2,44c.87-1,2.45-1.38,3.68-1.7C444.84,42,447.51,40.78,447.28,42.61Z"/><path class="i" d="M451.76,62.4c-.64.05-1.32.07-1.84.15s-1.18.22-1.74.38a5.86,5.86,0,0,0-1.55.59,7,7,0,0,0-1.39,1.18,2.93,2.93,0,0,1,.8-1.87,3.79,3.79,0,0,1,1.85-1,6.11,6.11,0,0,1,2-.17A3.76,3.76,0,0,1,451.76,62.4Z"/><path class="g" d="M442.23,57.81c.61,1.92-.08,6.57-.43,8.87a26.9,26.9,0,0,1-1,5c-.28.83-1,1.83-1,2.7,0,.36-.12.33.24.5a3,3,0,0,0,3.32-1.66,12.57,12.57,0,0,0,1.19-5.55,10.29,10.29,0,0,0,.09-2.43c-.4-1.68,1.13-3.71,1.59-5.38C444.84,59.46,443.4,56.74,442.23,57.81Z"/><path class="g" d="M457.59,73.27c-.22-.25-.64-.19-1-.24-1.4-.2-2.85-.29-4.27-.45a29.47,29.47,0,0,0-3.76-.1,3.6,3.6,0,0,0-2.79.85c-1.5,1.38.47,1.19,1.43,1.09a10.83,10.83,0,0,1,2.13,0c1.56.12,3.14,0,4.7,0,.92,0,2.59.36,3.43-.17A.6.6,0,0,0,457.59,73.27Z"/><path class="f" d="M441.88,66.17c0-.92.13-1.42.1-2,0-1-.05-1.95-.09-2.92-.06-1.23-.31-2.46-.44-3.69,0-.46-1.35-6-1.38-6.52-.15-2.49,1.85,4.79,2,4.73a3.44,3.44,0,0,1,1.71.17,4,4,0,0,1,2.5,1.12c1.35,1.73.33,3.55-.42,5.31a16,16,0,0,0-.86,2.73c-.11.49-.06,1-.18,1.5a3.42,3.42,0,0,0-.34-.87c-.4-.48-.33,0-.74,0s-.31-.56-.74-.68C442.45,64.8,442.2,66,441.88,66.17Z"/><path class="i" d="M444.76,66h-.05a.22.22,0,0,1-.16-.27,14.25,14.25,0,0,1,.6-1.75,15.48,15.48,0,0,0,.59-1.71.21.21,0,0,1,.26-.16.22.22,0,0,1,.16.27,15,15,0,0,1-.6,1.76,14.7,14.7,0,0,0-.59,1.7A.21.21,0,0,1,444.76,66Z"/><path class="h" d="M458.3,22.62a3.54,3.54,0,0,1-2.32.66c-1.23-.32-2.39-2.45-3.25-3.38-.46-.49-1.49-1.12-1.79-1.73-.43-.87.44-1.94,1-2.56a41.52,41.52,0,0,1,7.16-6.67c.85-.59,2.11-1.37,3-.58,1.14,1,1.31,2.56,1.32,4a14.48,14.48,0,0,1-.23,3.6,16.39,16.39,0,0,1-1.43,3.31C461.12,20.48,459.56,22.72,458.3,22.62Z"/><path class="g" d="M448.94,17.63a3.86,3.86,0,0,0,.75-.71c1-1.1,2-2.19,3-3.26a37,37,0,0,1,4.78-4.51c1.22-.86,3.54-1.71,4.84-.58s1.06,4.47,1.08,6.14a9.57,9.57,0,0,1-3.25,7.52c-.56.51-4,3.41-4.82,1.58a10.39,10.39,0,0,0,7.38-9.43c0-1.26-.13-4.3-1.81-4.61-.64-.11-1.31.55-1.77.88a13.27,13.27,0,0,0-2.27,2c-1,1.1-2,2.21-3.09,3.22-.59.56-1.16,1.11-1.79,1.62a5.67,5.67,0,0,1-1.26,1,4.17,4.17,0,0,1-2.34-.49C448.41,17.83,448.48,17.81,448.94,17.63Z"/><path class="j" d="M451.54,17.42c-.59,1.27,2.41-.58,4.7.3,0,.32-.33.53-.36.85.49.19,1.07,0,1.54.17a2.46,2.46,0,0,1-.43.48c.21.2.61.24.81.44-1.3.65-.74,1.4-.74,2.57-.81-.26-1.67-2-2.31-2.64a16.87,16.87,0,0,0-1.31-1.22C452.89,17.94,451.52,18.17,451.54,17.42Z"/><path class="h" d="M423,23.88c1,.63,3.08-1.9,3.68-2.61a14.67,14.67,0,0,0,2.25-2.95c.3-.67-.14-1.3-.49-1.93A14.55,14.55,0,0,0,425.77,13c-1.44-1.32-4.15-4.09-6.38-3.08-1,.47-1.35,1.71-1.56,2.71a12,12,0,0,0-.09,4.58,10,10,0,0,0,2.83,5.25C421.2,23.12,422.53,24.39,423,23.88Z"/><path class="j" d="M427.91,18.68a12.88,12.88,0,0,0-4.48-.86,18.68,18.68,0,0,1,2.12,1.78c-.42.45-1.39.14-1.94.56a2.41,2.41,0,0,1,1.16.84c-.23,0-.83.08-.91.35s.28.43.33.68c-.55.22-1.16.71-.76,1.38s.62.21,1.09-.24a23.51,23.51,0,0,0,3.6-4.17C428.37,18.6,428.7,18.09,427.91,18.68Z"/><path class="g" d="M430.77,17.61c0-.05-1.14-1.1-1.37-1.31-.81-.75-1.46-1.65-2.25-2.42-1.79-1.76-3.87-4.08-6.47-4.54-3.5-.62-3.91,6.17-3.44,8.27A15.18,15.18,0,0,0,420,23a6.59,6.59,0,0,0,3,2.35c.19-.35.34-.75.52-1.11a7.18,7.18,0,0,1-4.11-3.71c-1-2.32-1.8-4.47-1.44-7,.16-1.11.54-3.15,2-3.25.89-.07,1.75.68,2.44,1.15A13.57,13.57,0,0,1,425,13.71a24.23,24.23,0,0,1,2.41,3.21,8.21,8.21,0,0,0,1.57,2C429.66,18.44,430.13,18,430.77,17.61Z"/><path class="h" d="M435.47,43.11A22.22,22.22,0,0,1,430,41.43c-1.07-.6-2.12-1.31-3.23-1.83a35.28,35.28,0,0,0-3.37-1.17,10.59,10.59,0,0,1-2.07-.73,4.81,4.81,0,0,1,1.62-.45,28.42,28.42,0,0,0-3.12-1c-1-.3-2.74-.32-3.59-1a3.14,3.14,0,0,1,1.82-.29,5.91,5.91,0,0,1-3-1.14,4.81,4.81,0,0,0-1.81-.9,21.35,21.35,0,0,0,2.32-1,24.37,24.37,0,0,0,3-2.14,27.79,27.79,0,0,0,4.27-4.54,25.06,25.06,0,0,1,3-4.05,35.24,35.24,0,0,1,4.18-3.54c.65-.42,1.34-.82,2-1.2a17.46,17.46,0,0,1,5.06-1.86,35.92,35.92,0,0,1,5.49-.22,12.92,12.92,0,0,1,2.33.16,15.58,15.58,0,0,1,9.84,5.68c2,2.25,3.11,4.86,4.63,7.43,1.18,2,2.29,3.73,4.42,4.61.48.2,1,.06,1.52.24-.32.57-1.25.89-1.8,1.21a15.32,15.32,0,0,1-4.06,1.67c1,.3,2.14-.19,3.15-.11a7.45,7.45,0,0,1-2.55,1.68,34,34,0,0,1-5.79,1.69c.91,0,1.83-.63,2.69-.61-3.72,2.12-8.17,2.84-12,4.7A15.25,15.25,0,0,1,440.2,44C438.4,44.24,437.39,43.61,435.47,43.11Z"/><path class="g" d="M446.19,35.85A5.08,5.08,0,0,1,450,32.7a3.31,3.31,0,0,1,2.18.35c.2.13.58.47.55.75a4.52,4.52,0,0,1-.78-.41,2.89,2.89,0,0,0-2.38.21,8.23,8.23,0,0,0-2.71,1.74C446.75,35.42,446.08,36.33,446.19,35.85Z"/><path class="g" d="M433.14,36.17c.06-.3-.37-.83-.53-1.07a5,5,0,0,0-2-1.89,4.81,4.81,0,0,0-3.2-.06c-.44.13-1.68.47-1.58,1.12a21.37,21.37,0,0,0,2.19-.38,6.51,6.51,0,0,1,2.33.16,5.33,5.33,0,0,1,2.68,2S433.05,36,433.14,36.17Z"/><path class="f" d="M438,39.63c.39-3.64-1-5.67-1.65-7.2a11.54,11.54,0,0,0-2.65-3.53,9.28,9.28,0,0,0-3.24-1.68,11.61,11.61,0,0,0-4.39-.91c-.75,0-3.91,0-3.76-.43a8.05,8.05,0,0,1,.85-1.65,29.35,29.35,0,0,1,4.57-5.33,21,21,0,0,1,8.95-4.34c6.16-1.46,11.49-.7,16.56,3.63a18.58,18.58,0,0,1,3.93,4.23,10.24,10.24,0,0,1,1.62,3.9c-3.61-1.57-6.38-.58-9.8,1.35a13.39,13.39,0,0,0-5.76,6.39A22.48,22.48,0,0,0,442,36.89a22.51,22.51,0,0,0-.35,3.3c-.66-.22-.74.53-1.46.5C439.1,40.65,439,39.24,438,39.63Z"/><path class="g" d="M439.71,41.37c-.49-.13-2.69-.91-2.47-2,.14-.72,1.48-.88,2.05-1a5.43,5.43,0,0,1,2.27,0c.61.16,1.78.66,1.21,1.48C442.45,40.41,440.67,41.58,439.71,41.37Z"/><path class="i" d="M460.56,68.93a1.7,1.7,0,0,1,.27.92,6.05,6.05,0,0,1-.05,1,5,5,0,0,1-.71,1.74c0-.64.2-1.22.28-1.81,0-.29.1-.6.14-.89A5.41,5.41,0,0,0,460.56,68.93Z"/><path class="i" d="M435.63,19.59c0-.33-.11-1.43.28-1.76a1.47,1.47,0,0,1,.18.4l.15,0c.06.34.24,2.13-.55,1.74"/><path class="i" d="M438.34,21.45c.16-.37.11-1,.29-1.4.18.49.43.47.44,1.06,0,.24-.34,1.42-.62.57"/><path class="i" d="M440.71,18.86a2.14,2.14,0,0,1,.16-1.52c.76,0,.88,1.1.57,1.66-.18.33-.61.5-.73,0"/><path class="i" d="M441.67,21.56a4.25,4.25,0,0,1,.23-1.3,1.63,1.63,0,0,0,.33.18,1.57,1.57,0,0,1,.06,1.11c0,.09,0,.34-.11.4-.27.17-.52-.16-.51-.39"/><path class="i" d="M444.71,19.65a1.93,1.93,0,0,1,.06-1.36l.15.11c.45-.75.48.79.43,1s-.53,1.05-.58.33"/><path class="i" d="M446.63,21.17c.16-.34.08-.89.27-1.28.05.07.14.15.18.22a.61.61,0,0,1,.16-.12,1.74,1.74,0,0,1-.08,1.31c-.31.35-.6.08-.47-.41"/><path class="l" d="M435.61,43.24a7.62,7.62,0,0,0,1.17.26c.4.09.79.17,1.17.28s.79.18,1.17.3a9.19,9.19,0,0,0,1.18.27,3.64,3.64,0,0,1-1.23,0c-.41,0-.8-.11-1.21-.19s-.79-.23-1.17-.34A2.76,2.76,0,0,1,435.61,43.24Z"/><path class="f" d="M404.48,170.69A15,15,0,0,1,402,167.9c-1.2-1.56-3-3-3.93-4.75,1-1.38,2.78-2.69,4.56-2s2.93,2.89,3.47,4.5a18.09,18.09,0,0,1,.69,3.65c.06.57.28,1.67-.29,2.06S405,170.94,404.48,170.69Z"/><path class="g" d="M403,169.36c1.24.88,2.09,3.26,2.61,4.67a25.13,25.13,0,0,1,1.08,4.2c.1.58.23,2.71,1.25,1.53.77-.89.57-3.56.54-4.68a17.26,17.26,0,0,0-1.06-4.65c-.22-.67-.49-2-1.13-2.38a5.13,5.13,0,0,1-.37,1.92,1.7,1.7,0,0,1-.65-.51.91.91,0,0,0-.25.68C404.55,170.16,403.78,169.49,403,169.36Z"/><path class="f" d="M375.12,136.92c.4.5,2.46.58,3.13.69,2.48.43,4.86,1.09,7.28,1.76A98.12,98.12,0,0,1,399,143.75c3.52,1.55,6.92,3.52,9.37,6.62a35,35,0,0,1,5.74,11c1.07,3.35,2,6.59,2.77,10,.14.66.9,2.66.44,3.12,0,0-.63.08-.73.11-.31.11-.61.37-.92.5-.61-1.15-1.17-2.76-2.28-3.55-2.06-1.47-4.78-1.84-7-3.1-1.9-1.1-4.2-2.73-5-4.89.12.66.8,1,.87,1.67a7.64,7.64,0,0,1-2.42-.68c-2.32-.77-4.66-1.58-7-2.38a88.39,88.39,0,0,0-10-2.73,48.16,48.16,0,0,0-8-1.41,17.23,17.23,0,0,0-6.88.87,28.42,28.42,0,0,0-3.25,1.55c-.64.33-1.61,1.17-2.31.74a4.49,4.49,0,0,1-1-1.56,1.78,1.78,0,0,1,.38-1.59c.94-1.42,2.4-2.39,3.48-3.68a18,18,0,0,0-2.25-1.5,18.72,18.72,0,0,1-2.7-2.17c-.59.23-1.2.49-1.81.69a17,17,0,0,0-2.45,1.23,11.3,11.3,0,0,1-1.36.65,2.85,2.85,0,0,1-3-.34c.13-.32,0-.43.23-.68,1.15-1.17,4.31-4.69,5.56-5.75,3.3-2.77,5.16-3.06,8.82-5.34C369.09,139.54,372,137.26,375.12,136.92Z"/><path class="g" d="M353.6,150.76c-.3,0-.79.66-1.08.93-1.25,1.14-2.74,3-3.64,3.53-.67.42-3.83,1.89-2.39,2.78s4.71-1.8,5.79-2.56,3.2-1.84,3.82-3.05c-.63,0-1.25.44-1.9.49a3.8,3.8,0,0,1,.77-1c-.16.06-.38,0-.52,0C353,151.61,354.61,150.41,353.6,150.76Z"/><path class="g" d="M362.92,156.86c-1.57,1.32-3.57,3.44-4.92,4.75-.84.81-1.24.8-2,1.69-.2.24-.65.67-.56,1,.39,1.42,3,0,3.52-.32,1.48-.94,2.94-1.85,4.49-2.66a12.18,12.18,0,0,0,2.57-1.5.31.31,0,0,1,0-.1,2.45,2.45,0,0,1-1.43-.5c-.51-.58,0-.67.3-1.27-.24,0-.88.37-1.09.23-.41-.28.21-.76.09-1.12C363.67,156.53,363.3,156.57,362.92,156.86Z"/><path class="g" d="M412.63,171.13c.67,1.4,1.69,2.64,2.34,4.09a18.58,18.58,0,0,1,1.18,4.15c.16.79.14,4,1.65,2.19,1-1.22.51-4.59.23-6a32.59,32.59,0,0,0-1.95-7.39c-.17.87.07,1.85-.17,2.74-.4-.19-.56-.68-1-.81a3.23,3.23,0,0,0,.06,1.31A2,2,0,0,0,412.63,171.13Z"/><path class="f" d="M404.38,151.67c2.3-3.66,5.79-8.63,9.56-11.51,6.92-5.28,17.52-9.32,24.94-2.63,4.4,4,6.16,11.18,12.73,12.23a23,23,0,0,0,16.11-4c-1.59,3.57-1.78,7.52-4.39,10.69-2.2,2.68-5.92,5.81-9.37,6.61-1.25.29-2.71,0-3.86.21a25.67,25.67,0,0,0,2.38,1.63c-2.41,1.51-8.33,0-9.87-2.16a17.41,17.41,0,0,1,1.5,3.51c-1.35,1-6.19-.83-7.56-1.55-3.94-2.08-6.41-5.81-9.86-8.46-3.61-2.75-10.31-6-14.58-3.31a35.78,35.78,0,0,0-4.66,4.11C407.08,155,405.43,153.5,404.38,151.67Z"/><path class="h" d="M441.22,140.16c2.93,3.93,5.11,8.76,10.39,9.6a23,23,0,0,0,16.11-4c-1.59,3.57-1.78,7.52-4.39,10.69-2.2,2.68-5.92,5.81-9.37,6.61-1.25.29-2.71,0-3.86.21a25.67,25.67,0,0,0,2.38,1.63c-2.41,1.51-8.33,0-9.87-2.16a17.41,17.41,0,0,1,1.5,3.51c-1.35,1-6.19-.83-7.56-1.55,1.71.33.88-1.19.29-2.58,2.09,1.72,3.6-.72,2.53-2.71a2.77,2.77,0,0,0,3.74-.78c1-1.6-.39-4.08-1.26-5.51.9,1.05,1.76.56,2-.7.35-1.92-1.94-4.11-2.75-5.64.26.28.6.27.94.45,1-1.23-.23-3.43-1-4.5.51.34.53,0,.92.08A4.64,4.64,0,0,0,441.22,140.16Z"/><path class="h" d="M363.62,123.89c.6-.08,1.84-1.84,2.29-2.23a17.31,17.31,0,0,1,3.78-2.38,29.75,29.75,0,0,1,4.83-2c1.28-.38,3.47-.76,4.71-.07a2.65,2.65,0,0,1,1,1.85c.58,2.34-.42,4.65-1.09,6.89a14.35,14.35,0,0,1-2.51,5c-1.47,1.82-2.93,2.91-5.33,2.11C367.56,131.83,364,128.08,363.62,123.89Z"/><path class="g" d="M375,132.71a7.29,7.29,0,0,0,2-2.13,27.79,27.79,0,0,0,3.06-5.07c.85-1.88,2.6-5.71,1.24-7.71-1.57-2.31-5.51-1.57-7.76-1.08a19.46,19.46,0,0,0-6.77,3,29,29,0,0,0-3.5,3.41c.53.47,1.86,1.94,2.57,1.7.37-.13.87-1.24,1.1-1.53a17.39,17.39,0,0,1,3.42-2.79c2-1.5,5.47-3.64,8.13-3.21,1.6.26,1.65,1.33,1.57,2.71a17.65,17.65,0,0,1-1.76,7.47,15.3,15.3,0,0,1-3,4.38c-.36.33-1,.55-1.14,1.05C374.3,133.08,374.85,132.79,375,132.71Z"/><path class="j" d="M368.14,124.89c1.55-.4,3-1.26,4.64-1-.11.72-1.16,1-1.18,1.76.57.13,1.78-.18,2.24.16s-.19.82-.5,1.25c.34.3,1.51.4.89,1.09.89.82-.51,1.89-1.38,1.51s-1.57-1.8-2.14-2.55a9.34,9.34,0,0,0-1.61-1.77C368.65,125,368.08,124.73,368.14,124.89Z"/><path class="h" d="M342.08,128.41c-.36,0-1.28-1.21-1.53-1.6a13.6,13.6,0,0,1-1.17-2.68,31.87,31.87,0,0,1-.73-3.92,12.5,12.5,0,0,1,.09-4.27c.31-2,1.71-3.88,4-3.16a11.66,11.66,0,0,1,2.51,1.4,12,12,0,0,1,4.08,4c1.79,3.1.27,6.27-2.25,8.36a7.58,7.58,0,0,1-2.93,1.57C343.37,128.25,342.8,127.75,342.08,128.41Z"/><path class="g" d="M352.57,120.75c-.2-.12-.15-.2-.26-.39-.4-.7-.66-1.48-1.13-2.17a16.63,16.63,0,0,0-2.5-2.93c-1.89-1.76-6.87-4.8-9.27-2.32-1.25,1.29-1.22,3.83-1.07,5.46a33.32,33.32,0,0,0,1.15,6.49,6,6,0,0,0,2.54,3.57c.7-.65-.87-2-1.27-2.72A14.94,14.94,0,0,1,339.52,115c.31-1,.66-1.72,1.83-1.69a5.5,5.5,0,0,1,2.47.73,12.55,12.55,0,0,1,5,5.34c.21.42.59,2.32,1.08,2.43.24,0,.47-.27.63-.36A3.48,3.48,0,0,1,352.57,120.75Z"/><path class="j" d="M347.23,121.56c-.45-.72-2.83-2.42-3.58-1.44.4.64,1.31,1.21,1.46,1.94-.52.23-1.2-.3-1.72.16.05.33.34.61.38.9-1.22-.47-1.42,1.43-1.21,2.21.87,0,2.48-1.76,3.16-2.24A4.34,4.34,0,0,0,347.23,121.56Z"/><path class="h" d="M341.27,129.07a13.53,13.53,0,0,1-3.83,3.89c-1.21.56-2.62.46-3.82.84,1.12,1.13,3.38,1.72,4.11,3.18a2.89,2.89,0,0,0-1.71-.13c1.68,1.75,4.07,2.84,5.77,4.6,1.13,1,2.83,2.79,3.62,3.38a14.19,14.19,0,0,0,9.28,2.78,17.21,17.21,0,0,0,4.73-.61c1.65-.49,3.16-1.2,4.77-1.75,4.73-1.64,9.23-3.39,14.26-3.82-.44-.71-1.53-.82-2-1.44,1.17-.15,2.53.51,3.63.28-.56-.58-1.35-.94-2-1.51a15.42,15.42,0,0,1-1.45-1.58,6.35,6.35,0,0,1-.77-1,21,21,0,0,0-1.14-2.1c-2.83-3.78-8.54-5.32-12.9-6.4s-9.37-1.73-13.9-.68C345.27,127.59,342.68,126.58,341.27,129.07Z"/><path class="f" d="M376.55,135.56a47.36,47.36,0,0,0-3.62-7.11,14.94,14.94,0,0,0-3.5-3.93,18.11,18.11,0,0,0-4.22-2.85c-6-3.31-13.26-4-19.21.33a14,14,0,0,0-3.86,4.53,24.5,24.5,0,0,0-1.46,3.28c.66,0,2.05-.66,2.77-.44a4.88,4.88,0,0,1,3.12,2.09,11.65,11.65,0,0,1,1.82,7.61c-.05.67-.15.63.21.94a6.05,6.05,0,0,0,1.47.52,15,15,0,0,0,1.72-1.84,19,19,0,0,1,3.83-3.6c3.52-2.64,7.59-4.08,11.8-3.28a13.09,13.09,0,0,1,8.11,4.87,5.62,5.62,0,0,0,2.65,2.3A33.54,33.54,0,0,1,376.55,135.56Z"/><path class="g" d="M348.39,142.39c-.7,0-1.88-1.57-1.77-2.29.2-1.29,3-.27,3.56-.08.76.26,2.21.79,1.29,1.79C351,142.33,349.15,143,348.39,142.39Z"/><path class="g" d="M344.53,134c.24-.74-.87-1-1.41-.79-.79.33-1.36,2.39-.75,3s2,.1,2.29-.62A1.52,1.52,0,0,0,344.53,134Z"/><path class="g" d="M361,137.48c.08-.1.16-.11.08-.26-2-.74-3.18,3.29-.75,3.4,1.13,0,1.29-.75,1.42-1.74C361.81,138.33,362.08,137,361,137.48Z"/><path class="h" d="M350.53,146.74c.92.87,4.15.84,5.35.8,3.93-.1,7.47-1.81,11.24-2.68,1.41-.33,2.82-.67,4.27-.88a12.92,12.92,0,0,0,3.06-.45c1.59-.72-.75-1.31-1.5-1.55a2.48,2.48,0,0,0,1.41-.64c-4.43-1.64-9.69,1.08-13.25,3.51a7,7,0,0,1-3.26,1.63c-1.9.26-3.86.17-5.77.27"/><path class="i" d="M350.06,124.34c.22-.07.29-.92.73-1a2.88,2.88,0,0,1,.08.77c0,.48-1,1.14-.82.37"/><path class="i" d="M352.74,123.43c.08-.3.29-.76.61-.85.06.11,0,.26.1.37s.14,0,.15,0a.76.76,0,0,1-.09.44c-.23.63-.95.8-.7-.07"/><path class="i" d="M352.71,126.75l0,.1c.05-.3.21-.83.48-1a1.16,1.16,0,0,1,.08.32l.11,0a.94.94,0,0,1-.27.94c-.25.17-.54,0-.37-.33"/><path class="i" d="M354.52,125c-.06,0,0,.07-.08,0,.08-.32.33-1,.7-1a.57.57,0,0,1,0,.46c.6.37-.86,1.44-.72.61"/><path class="i" d="M356.23,127.88s0,.1,0,.06c.09-.27.21-1.07.57-1,.16.38.31.48.12,1s-.86.45-.58-.24"/><path class="i" d="M359,125.78s0,.06-.06.08a1.71,1.71,0,0,1,.55-1,.85.85,0,0,1,.06.42c.05,0,.07,0,.13,0a1.12,1.12,0,0,1-.49,1c-.17.07-.48.08-.41-.24"/><path class="i" d="M359.61,128.29c.07-.23.16-.7.37-.81s.38-.08.36.22a.71.71,0,0,0,.15-.08c.29.84-1.15,1.61-.78.39"/><path class="i" d="M356.83,123.73s-.07,0-.1.07a.82.82,0,0,1,.39-.64.41.41,0,0,1,.1.39s0,0,.06,0c0,.21-.14.93-.45.93-.49,0-.18-.67,0-.83"/><path class="i" d="M406.26,148.31a7.56,7.56,0,0,1,3.07,2.11,6.32,6.32,0,0,1,1,1.6,15.15,15.15,0,0,1,.59,1.76,10.78,10.78,0,0,1-1.11-1.48,13.16,13.16,0,0,0-1.07-1.39C408,150,407.11,149.23,406.26,148.31Z"/><path class="i" d="M402.35,165.45c-.09-.2-.32-.3-.49-.45a3.45,3.45,0,0,1-.5-.51,6,6,0,0,1-.77-1.19,7.87,7.87,0,0,1-.88-2.7,7.61,7.61,0,0,1,1.47-5.34c-.13.92-.27,1.8-.34,2.66a12.77,12.77,0,0,0,0,2.55,14,14,0,0,0,.57,2.5,12.66,12.66,0,0,0,.41,1.23,6.54,6.54,0,0,0,.28.6A1.35,1.35,0,0,1,402.35,165.45Z"/><path class="i" d="M365.22,154.63a6.67,6.67,0,0,1,1-1.73,4.66,4.66,0,0,1,.71-.69,2.35,2.35,0,0,1,1-.5,3.44,3.44,0,0,1-.8,1.92,3.14,3.14,0,0,1-.8.69A1.78,1.78,0,0,1,365.22,154.63Z"/><path class="b" d="M152.78,58.71a.41.41,0,0,1-.27-.71c3.22-2.85,5.53-6.65,7.27-12A49.87,49.87,0,0,0,162,28.6a.41.41,0,0,1,.39-.42.4.4,0,0,1,.42.4,50.47,50.47,0,0,1-2.3,17.7c-1.12,3.44-3.12,8.46-7.5,12.33A.38.38,0,0,1,152.78,58.71Z"/><path class="b" d="M161.89,34.9c1.35.54,3.14-3.53,3.34-4.48a11,11,0,0,0-2.58-8.8,14.46,14.46,0,0,1-1.64,3,5.16,5.16,0,0,0-1.59,3.82C159.35,31,160.11,33.89,161.89,34.9Z"/><path class="b" d="M162.15,35.29a1,1,0,0,1-.39-.07l0,0c-2.05-1.17-2.71-4.39-2.65-6.8a5.53,5.53,0,0,1,1.69-4,7.26,7.26,0,0,0,1.09-1.88c.15-.34.31-.68.49-1a.35.35,0,0,1,.25-.18.4.4,0,0,1,.3.09,11.3,11.3,0,0,1,2.68,9.12c-.18.85-1.5,3.94-2.82,4.64A1.28,1.28,0,0,1,162.15,35.29Zm-.11-.71a.44.44,0,0,0,.38-.06c1.06-.56,2.31-3.4,2.47-4.17a10.81,10.81,0,0,0-2.16-8.13c-.09.18-.17.36-.25.54a7.94,7.94,0,0,1-1.2,2.06,4.8,4.8,0,0,0-1.52,3.6C159.71,30.63,160.27,33.56,162,34.58Z"/><path class="b" d="M161.48,42.74a11.9,11.9,0,0,0,4.4-.64c2.43-.94,4.15-4.27,4.77-6.68-1.85.64-4.46.84-6,2S161.18,40.55,161.48,42.74Z"/><path class="b" d="M161.72,43.09h-.24a.33.33,0,0,1-.34-.29c-.31-2.27,1.56-4.48,3.27-5.68a11.37,11.37,0,0,1,4-1.46c.75-.18,1.46-.34,2.09-.56a.35.35,0,0,1,.35.08.35.35,0,0,1,.1.34c-.69,2.66-2.54,6-5,6.91A11.63,11.63,0,0,1,161.72,43.09Zm8.42-7.15c-.48.14-1,.26-1.53.38a11.14,11.14,0,0,0-3.81,1.35c-1.18.84-3.07,2.74-3,4.72a10.84,10.84,0,0,0,4-.61C167.8,41,169.4,38.31,170.14,35.94Z"/><path class="b" d="M158.49,51.2c.74,1.6,3.31,1.65,4.8,1.35,3-.6,6.89-3.28,7.67-6.39-2.73-.11-5.65-.3-8.25.75C161.38,47.45,157.86,49.71,158.49,51.2Z"/><path class="b" d="M161.79,53c-1.42,0-3-.38-3.62-1.7h0a1.43,1.43,0,0,1,0-1.16c.64-1.55,3.35-3.17,4.37-3.58,2.52-1,5.26-.9,7.91-.79l.48,0a.32.32,0,0,1,.26.13.31.31,0,0,1,.06.29c-.79,3.2-4.74,6-7.93,6.65A8,8,0,0,1,161.79,53Zm-3-2c.64,1.36,3,1.44,4.43,1.15,2.84-.56,6.32-3,7.27-5.72h0c-2.58-.11-5.24-.22-7.62.74-1.08.44-3.48,2-4,3.2A.84.84,0,0,0,158.8,51.06Z"/><path class="b" d="M160.86,44.18a8.09,8.09,0,0,0-2-5.45c-1.35-1.36-3.56-2.36-4.42-4.14-1.1,1.45-.63,4.12.07,5.7C155,41.46,158.61,45.56,160.86,44.18Z"/><path class="b" d="M159.85,44.81a3.23,3.23,0,0,1-.94-.15,10.1,10.1,0,0,1-4.73-4.23c-.68-1.54-1.26-4.42,0-6a.32.32,0,0,1,.3-.13.34.34,0,0,1,.28.19,8.12,8.12,0,0,0,2.62,2.63,14.39,14.39,0,0,1,1.73,1.42,8.35,8.35,0,0,1,2.12,5.7.37.37,0,0,1-.17.29A2.25,2.25,0,0,1,159.85,44.81Zm1-.63h0Zm-6.43-8.9a6.77,6.77,0,0,0,.38,4.87,9.54,9.54,0,0,0,4.3,3.85,2,2,0,0,0,1.41,0,7.68,7.68,0,0,0-1.92-5A13.55,13.55,0,0,0,157,37.63,10.48,10.48,0,0,1,154.43,35.28Z"/><path class="b" d="M157.35,52.75a9.39,9.39,0,0,1-.18-1.3,8,8,0,0,0-2.69-4.2c-1.72-1.61-4.15-2.48-5-4.9a14.94,14.94,0,0,0,1.76,7.88,4.5,4.5,0,0,0,2.35,2.24C154.5,52.71,156.37,52.45,157.35,52.75Z"/><path class="b" d="M157.37,53.09h-.12c-.93-.29-2.79,0-3.72-.28A4.76,4.76,0,0,1,151,50.41a15,15,0,0,1-1.82-8.06.34.34,0,0,1,.29-.34.33.33,0,0,1,.38.23c.53,1.55,1.77,2.42,3.08,3.35a17.17,17.17,0,0,1,1.81,1.4,8.48,8.48,0,0,1,2.79,4.4c0,.19.05.41.07.63a3.67,3.67,0,0,0,.08.56.35.35,0,0,1,0,.39A.32.32,0,0,1,157.37,53.09Zm-7.49-9.27a13.16,13.16,0,0,0,1.69,6.23,4.25,4.25,0,0,0,2.14,2.09,7.6,7.6,0,0,0,1.62.1,11.42,11.42,0,0,1,1.58.07l0-.22a4.93,4.93,0,0,0-.06-.58,7.77,7.77,0,0,0-2.59-4,14.24,14.24,0,0,0-1.73-1.34A10.86,10.86,0,0,1,149.88,43.82Z"/><path class="m" d="M162.1,34.87a.15.15,0,0,1-.09,0,.25.25,0,0,1-.13-.32,6.58,6.58,0,0,0,.14-.87c0-.16,0-.32.06-.44a27.13,27.13,0,0,0,.37-6.61.23.23,0,0,1,.22-.26.24.24,0,0,1,.26.22,27.59,27.59,0,0,1-.37,6.73c0,.11,0,.26-.06.42a4.56,4.56,0,0,1-.17,1A.24.24,0,0,1,162.1,34.87Z"/><path class="m" d="M161.46,43a.26.26,0,0,1-.19-.1.24.24,0,0,1,0-.34,5.69,5.69,0,0,1,.74-.46,15.47,15.47,0,0,0,4.86-3.81.24.24,0,0,1,.34,0,.25.25,0,0,1,0,.34,15.92,15.92,0,0,1-5,3.93,6.71,6.71,0,0,0-.69.43A.25.25,0,0,1,161.46,43Z"/><path class="m" d="M160.77,44.13h0a2.12,2.12,0,0,1-1.08-.44l-.06,0a11.5,11.5,0,0,1-3.92-4.88.24.24,0,0,1,.12-.32.25.25,0,0,1,.32.12,10.83,10.83,0,0,0,3.75,4.67l.06,0a1.72,1.72,0,0,0,.82.37.25.25,0,0,1,.24.25A.25.25,0,0,1,160.77,44.13Z"/><path class="m" d="M159,51.16h0a.25.25,0,0,1,0-.49l.94-.06a12.37,12.37,0,0,0,7.36-3.29.26.26,0,0,1,.35,0,.25.25,0,0,1,0,.35A12.86,12.86,0,0,1,160,51.1Z"/><path class="m" d="M156.94,52.33a.23.23,0,0,1-.11,0,12.34,12.34,0,0,1-5-5,.25.25,0,0,1,.09-.33.24.24,0,0,1,.33.08,11.86,11.86,0,0,0,4.8,4.86.24.24,0,0,1,.11.32A.24.24,0,0,1,156.94,52.33Z"/><path class="c" d="M297.21,174.8a.39.39,0,0,1-.27-.11.4.4,0,0,1,0-.57,36.25,36.25,0,0,0,7.62-12.5c2.52-7.55,2.62-9.69,2.62-16.65a.41.41,0,1,1,.82,0c0,6.92-.11,9.26-2.67,16.91a36.78,36.78,0,0,1-7.78,12.78A.41.41,0,0,1,297.21,174.8Z"/><path class="c" d="M307.21,152.84a7.45,7.45,0,0,0,3.42-4.8,11.21,11.21,0,0,0-.5-6c-.44-1.3-1.11-3.49-2.06-4.53a4.2,4.2,0,0,1-1.89,2.49c-1.47,1.06-2.51,1.8-3,3.69a7.75,7.75,0,0,0,.89,5.54A10.07,10.07,0,0,0,307.21,152.84Z"/><path class="c" d="M305.52,159a4.23,4.23,0,0,0,3.41,1.26c3.47-.51,6.07-3.35,8.11-6-2.44.17-5.06-1.36-7.41-.36C307.43,154.88,306.39,157.41,305.52,159Z"/><path class="c" d="M302,167.82c1.72,1.44,3.57,3.19,6,2.62,2.13-.49,6.84-2.5,7.84-4.79-2.91.09-5.42-2.16-8.35-2C304.71,163.8,303.19,165.59,302,167.82Z"/><path class="c" d="M304.85,161.38s0-1,.06-1.41a10.32,10.32,0,0,0-1-4.56c-1.07-2.09-3.4-3.74-4.88-5.51-1.11,2.1-2,4.53-1.07,7.06a5.29,5.29,0,0,0,2.84,3.09A16.46,16.46,0,0,0,304.85,161.38Z"/><path class="c" d="M301.13,169.4c-.37-.7,0-1.84-.14-2.65a7.26,7.26,0,0,0-2.37-4.53c-1.72-1.5-4.29-2.37-5.56-4.33-.25,1.24-.78,2.48-.95,3.76-.27,2,1,3.47,2.39,4.8a10.09,10.09,0,0,0,4.25,2.33A12.25,12.25,0,0,1,301.13,169.4Z"/><path class="e" d="M307.05,151.88a.27.27,0,0,1-.18-.46,3.11,3.11,0,0,0,.22-.58c.52-2.15.11-4.83-.23-7l.26-.1.26,0c.35,2.26.78,5,.22,7.26,0,0-.17.69-.39.85A.23.23,0,0,1,307.05,151.88Z"/><path class="e" d="M304.52,161.13a.28.28,0,0,1-.15,0,16.74,16.74,0,0,1-1.7-1.51,14,14,0,0,1-2.16-3.46l-.33-.65a.27.27,0,0,1,.12-.36.26.26,0,0,1,.35.12c.12.21.22.43.33.65a13.84,13.84,0,0,0,2.08,3.33,15.44,15.44,0,0,0,1.6,1.43.27.27,0,0,1-.14.49Z"/><path class="e" d="M300.22,169a.28.28,0,0,1-.25-.19l-.16-.08-.22-.11-.55-.32a7.94,7.94,0,0,1-1.87-1.34,10.28,10.28,0,0,1-2.09-3.94.27.27,0,0,1,.17-.34.26.26,0,0,1,.33.17,10,10,0,0,0,2,3.75,7.62,7.62,0,0,0,1.75,1.24l.55.33.17.08c.31.14.52.25.5.48a.35.35,0,0,1-.25.26Z"/><path class="e" d="M306.6,159.09a.27.27,0,0,1-.26-.2.27.27,0,0,1,.2-.32,16.41,16.41,0,0,0,6-2.66.26.26,0,0,1,.37.06.27.27,0,0,1-.06.37,17,17,0,0,1-6.22,2.75Z"/><path class="e" d="M306.43,167.84a9.84,9.84,0,0,1-4.06-.85.26.26,0,0,1-.13-.35.27.27,0,0,1,.35-.13c2.84,1.25,5.61.87,8.9-.08a.27.27,0,1,1,.15.51A18.83,18.83,0,0,1,306.43,167.84Z"/><path class="b" d="M465.69,124.23a6.12,6.12,0,0,1-3.59.37c-2.63-.25-6-.77-7.92-2.82-.58-.63-1.29-2-.72-2.79s2-.57,2.8-.79c-.35-.4-1.14-.45-1.62-.62-1.63-.57-4.25-2.16-4.16-4.26.08-1.95,2-1.4,3.31-1.12-1.31-1.47-2.46-2.87-2.53-5-.05-1.18.09-3.07,1.56-3.09,2.49,0,3.05,2.64,4.48,4,0-1.75.83-4,2.6-2,1.47,1.64,1.22,3.93,2.09,5.8.08-.89.58-2,1.6-2,1.46,0,2.18,1.57,2.62,2.68C467.57,116.05,467,120,465.69,124.23Z"/><path class="n" d="M465.12,123.87a.15.15,0,0,1-.13-.07.18.18,0,0,1,0-.1,8.92,8.92,0,0,0-.87-1.08l-.35-.41c-1.23-1.56-2.21-2.86-3.1-4.1a117.6,117.6,0,0,1-6.82-10.59.14.14,0,0,1,.06-.2.15.15,0,0,1,.2.06,118.34,118.34,0,0,0,6.8,10.56c.89,1.23,1.87,2.53,3.09,4.09.06.08.19.22.34.39.79.91,1,1.15.95,1.31a.16.16,0,0,1-.07.11Zm-.08-.27h0Z"/><path class="n" d="M461.83,121.86a20.8,20.8,0,0,1-6.31-1.19.14.14,0,0,1-.1-.18.14.14,0,0,1,.19-.09,17.6,17.6,0,0,0,7.7,1.06.14.14,0,0,1,.16.13.13.13,0,0,1-.12.16A10.34,10.34,0,0,1,461.83,121.86Z"/><path class="n" d="M462.91,121h-.05a.14.14,0,0,1-.09-.19,17.78,17.78,0,0,0,.58-2.72c.06-.35.11-.69.17-1a10,10,0,0,0,.12-1.81,10.41,10.41,0,0,1,.14-1.85.14.14,0,0,1,.17-.12.15.15,0,0,1,.12.17,9.85,9.85,0,0,0-.13,1.8,11.64,11.64,0,0,1-.13,1.86c-.06.3-.11.63-.17,1a17.75,17.75,0,0,1-.59,2.77A.15.15,0,0,1,462.91,121Z"/><path class="n" d="M459.14,116.11a15.66,15.66,0,0,1-6-1.69l-.28-.11a.16.16,0,0,1-.07-.2A.14.14,0,0,1,453,114l.27.11c1.93.83,4.11,1.77,6.27,1.66a.15.15,0,0,1,.16.14.15.15,0,0,1-.14.15Z"/><path class="n" d="M459,115.79l-.07,0a.15.15,0,0,1-.06-.2,7.83,7.83,0,0,0,.49-2.89v-.2a16.1,16.1,0,0,0-.42-3.91l-.09-.46a.14.14,0,0,1,.11-.17.15.15,0,0,1,.17.12l.09.46a16,16,0,0,1,.43,4v.21a7.8,7.8,0,0,1-.52,3A.16.16,0,0,1,459,115.79Z"/><path class="b" d="M360.56,100.48l-.12,0a.39.39,0,0,1-.25-.49c2.17-6.84-1-15.26-3.62-21-1.73-3.83-4.4-7.1-7.45-10.67a.38.38,0,1,1,.58-.5c3.09,3.62,5.8,6.93,7.57,10.86,2.65,5.86,5.9,14.46,3.65,21.56A.38.38,0,0,1,360.56,100.48Z"/><path class="b" d="M355.16,75.52c-.25-.73-10-4.07-7-8.44C349.83,64.58,354.62,73.11,355.16,75.52Z"/><path class="b" d="M355.16,75.91a.39.39,0,0,1-.34-.22,11.37,11.37,0,0,0-1.35-.78c-2.09-1.13-5.58-3-6.18-5.43a3.17,3.17,0,0,1,.53-2.61,1.28,1.28,0,0,1,1.35-.6c2.37.44,5.93,7.24,6.37,9.17a.4.4,0,0,1-.27.45ZM348.91,67a.53.53,0,0,0-.45.29,2.38,2.38,0,0,0-.42,2c.52,2.1,3.82,3.88,5.79,4.94l.61.33c-1-2.63-3.87-7.25-5.41-7.53Z"/><path class="b" d="M357.94,81.9c-1.89-.78-4.06-.67-5.95-1.61-1.71-.86-4.27-3.5-.78-3.38C354.25,77,357.49,80.25,357.94,81.9Z"/><path class="b" d="M357.94,82.28a.4.4,0,0,1-.15,0,13.09,13.09,0,0,0-2.64-.67,11.8,11.8,0,0,1-3.33-1c-1.06-.52-3-2.06-2.7-3.22.16-.63.87-.93,2.11-.89,3.28.12,6.6,3.54,7.08,5.27a.37.37,0,0,1-.12.39A.35.35,0,0,1,357.94,82.28Zm-6.95-5c-.77,0-1.09.16-1.13.31-.12.49,1.12,1.76,2.3,2.35a11.68,11.68,0,0,0,3.12.87c.64.12,1.3.24,1.94.42-1-1.61-3.63-3.87-6-3.95Z"/><path class="b" d="M357.12,79.94a.39.39,0,0,1-.38-.33,14.4,14.4,0,0,1,.26-5,.38.38,0,1,1,.75.16,14,14,0,0,0-.25,4.77.39.39,0,0,1-.32.44Z"/><path class="b" d="M361.06,88.69a49.25,49.25,0,0,1-.46-7.79c.06-1,1.31-7.15,3.34-5.33,1.11,1,.07,4.74-.33,5.86-1.05,3-2.24,5.12-2.63,8.3"/><path class="b" d="M361,90.16h-.06a.44.44,0,0,1-.38-.49c0-.27.07-.53.12-.79a.33.33,0,0,1,0-.15c-.05-.53-.1-1.06-.16-1.59a38.4,38.4,0,0,1-.3-6.26c0-.61.8-5.27,2.55-6a1.38,1.38,0,0,1,1.52.35c1.53,1.37-.14,6.13-.21,6.34-.29.82-.59,1.58-.89,2.32a23,23,0,0,0-1.72,5.88A.44.44,0,0,1,361,90.16Zm2.21-14.49a.49.49,0,0,0-.15,0c-1,.42-1.93,4.07-2,5.23a33.76,33.76,0,0,0,.24,5.5c.31-1,.67-1.9,1.05-2.85.29-.73.59-1.48.88-2.3.65-1.84,1.17-4.74.44-5.39A.67.67,0,0,0,363.19,75.67Z"/><path class="b" d="M360.26,88.86a.36.36,0,0,1-.31-.16,6.66,6.66,0,0,0-3.44-2.94.4.4,0,0,1-.23-.5.38.38,0,0,1,.49-.23,7.43,7.43,0,0,1,3.81,3.23.38.38,0,0,1-.1.53A.36.36,0,0,1,360.26,88.86Z"/><path class="b" d="M361.12,95.11c-.7-1.68-11.79-6.66-8.05-7.64C356.38,86.6,360.65,92.36,361.12,95.11Z"/><path class="b" d="M361.12,95.49a.38.38,0,0,1-.35-.24c-.22-.52-2.17-1.75-3.74-2.74-3.29-2.08-5.27-3.42-5.1-4.53.06-.42.41-.72,1-.88a4.26,4.26,0,0,1,3.4.78A13.16,13.16,0,0,1,361.5,95a.39.39,0,0,1-.27.44Zm-7.35-7.73a2.35,2.35,0,0,0-.6.08c-.36.1-.47.21-.48.26-.11.68,2.93,2.61,4.75,3.76,1.18.74,2.13,1.35,2.82,1.86A13.22,13.22,0,0,0,356,88.53,4.12,4.12,0,0,0,353.77,87.76Z"/><path class="b" d="M361.29,96.79c1-1.68,1.3-4.45,1.86-6.05.35-1,2.7-6.63,4.38-5.35C370.11,87.36,362.59,96.8,361.29,96.79Z"/><path class="b" d="M361.29,97.23h0a.45.45,0,0,1-.38-.23.46.46,0,0,1,0-.44,15.24,15.24,0,0,0,1.26-3.88,20.6,20.6,0,0,1,.56-2.09s1.89-5.17,3.86-5.77a1.29,1.29,0,0,1,1.2.22c.81.61.93,1.73.38,3.34C367.05,91.62,362.69,97.23,361.29,97.23ZM367,85.65l-.15,0c-1.17.35-2.82,3.87-3.28,5.21-.19.55-.36,1.26-.54,2a26.24,26.24,0,0,1-.72,2.66c1.68-1.64,4.59-5.48,5.2-8.08.21-.86.12-1.44-.25-1.72A.41.41,0,0,0,367,85.65Z"/><path class="d" d="M357.83,71.18c-1.31-.47-2.11,1.76-1.65,2.73.58,1.22,2.35,1.77,3.2.54C360.51,72.81,359.31,70.65,357.83,71.18Z"/><path class="d" d="M355.31,83.14c-1.34-.21-1.9,1.84-1.35,2.61a2,2,0,0,0,3.21,0C358.12,84.15,356.72,82.46,355.31,83.14Z"/><path class="o" d="M299.16,65.58a4.27,4.27,0,0,1-1.71-1.5,1.86,1.86,0,0,1,0-1.53,3.41,3.41,0,0,1,.74-1.13,15.4,15.4,0,0,0-2.45-.23c-1.12,0-1.61,1-2,2a2.91,2.91,0,0,0,.36,3,2.75,2.75,0,0,0,1.61.93c.52.15,1.26.43,1.76.16s.89-.75,1.38-1c.26-.15.55-.18.81-.3-.18-.41-1.25-.77-1.53-1"/><path class="o" d="M266,61.45c-1,1.79-2,3.52-2.85,5.38-.12.28-.35,1.29-.59,1.44s-.83-.12-.95-.26c-.33-.39-.94-.94-1-1.41-.14-1.21.69-5,1.1-6.61.28-1.11.75-1.32,2-1.62,1.51-.35,2.45.84,2.55,2.27"/><path class="f" d="M288.8,50.26a4.92,4.92,0,0,0-1,.05,8.52,8.52,0,0,1-2.28-.49c-2.84-.81-5.46-2.13-8.2-3.18-4.9-1.88-9.54-3.54-14.88-3.12-7.58.59-9.13,10.27-10.52,16.19a11,11,0,0,0-.58,4.43c.77-.13,1.51.32,2.25.28s.71-.78,1.34-1.22c1.05-.73,1.79-.89,2.88-1.53a11.44,11.44,0,0,0,2-1.65,3.44,3.44,0,0,0,1,.43A42.2,42.2,0,0,1,264.86,62c3.45,1.38,7,2.36,10.52,3.48a43.31,43.31,0,0,0,5.77,1.15,21,21,0,0,0,6.28.36,27.19,27.19,0,0,0,13.26-6c.33-.27,1.35-1,1.33-1.5,0-.13-.12-.2-.18-.31a12.36,12.36,0,0,0-1.56-1.77,43.63,43.63,0,0,1-3.43-4.8c-.48-.77-1.05-2.15-1.91-2.56a2.05,2.05,0,0,1-1.84.81C291.57,50.82,290.11,50.09,288.8,50.26Z"/><path class="g" d="M254.93,63.08c-.73,1.85-2.07,3.64-2.33,5.67-.09.7.69,2.78-.7,1.91s-1.24-2.61-1.13-4c.08-.92.15-4.44.95-4.91a2.45,2.45,0,0,0,.32,1c.18-.22.44-.85.78-.85.49,0,.39.7.71.92S254.78,62.54,254.93,63.08Z"/><path class="g" d="M263.64,65.47a13.33,13.33,0,0,0-1.08,5.46c0,.48.85,2.11,0,2.1-1.11,0-1.92-2-2-3.19s-.22-4.18.34-4.82c.29.38.13.86.34,1.24C262.13,65.74,262.77,64.51,263.64,65.47Z"/><path class="f" d="M290.89,73.24a16.32,16.32,0,0,1,.62-4.07c.3-1.54,1.05-2.93,1.46-4.4a12.39,12.39,0,0,0-1.48.26c-.64.09-1.26.2-1.89.31a7.42,7.42,0,0,0-1.5.19c-.28.13-.24-.06-.41.2s-.08,1.69-.05,2.09a30.58,30.58,0,0,0,.44,4.28,5,5,0,0,0,1.08,2.44c1.13.78,1.51-.66,1.73-1.3"/><path class="g" d="M298.15,65a18.2,18.2,0,0,1,5.22,3.77,2.27,2.27,0,0,1,.45,3.07c-.76.91-1.25-.13-1.48-.82-.29-.85-1.21-1.37-2-1.81-1.09-.62-2.21-1-3.33-1.58a20.06,20.06,0,0,1-2.45-1c.15-.13.83,0,1-.16s0-.39.42-.58c.19-.08,1,.09,1.17,0s-.39-.79-.05-.9C297.63,64.75,297.8,65,298.15,65Z"/><path class="h" d="M301.54,38.18s0,0,0,0a2.56,2.56,0,0,0-.2-1.39,14.59,14.59,0,0,0-1-2.34,21.09,21.09,0,0,0-2.23-3.44c-1.11-1.45-2.43-3.12-4.18-3.76a2.53,2.53,0,0,0-2.48.23,4.49,4.49,0,0,0-1,1.87,14.79,14.79,0,0,0-.72,7.76c.42,2,.9,4.73,3,5.56,1.65.66,3.7.17,5.3-.47a5.36,5.36,0,0,0,3.31-3.46"/><path class="g" d="M302.28,37.16c.14-.52-.3-1.26-.56-1.75a30.27,30.27,0,0,0-3.07-4.82c-1.48-1.82-3.88-4.21-6.4-4.24-2.19,0-2.61,2.73-2.82,4.65a15.33,15.33,0,0,0-.11,3.58c.07.66.14,1.58.27,2.23a20.35,20.35,0,0,0,1.72,5.51c.07.14.75-.48.75-.48s-1-2.16-1.19-2.61c-1.15-2.93-1.6-6.95-.11-9.88,2.71-5.31,9.11,5.32,9.34,8.2a5.49,5.49,0,0,0,1.5-.26C302,37.18,302.44,37.17,302.28,37.16Z"/><path class="j" d="M298.91,37a1.74,1.74,0,0,1-.7-.44c-.95-.79-2.12-1.91-3.46-1.87,0,.58.36,1.17.28,1.75-.3-.07-.76-.32-1-.05.05.22.1.45.17.66-.78.55-1.12.41-.95,1.51,0,.31.08.9.43,1s1-.35,1.21-.51c.69-.42,1.35-.79,2.07-1.16.48-.25,1.4.08,2,0C299.31,37.84,299.23,37.36,298.91,37Z"/><path class="h" d="M321.54,52.55a6.53,6.53,0,0,0,4.87-1.46,15.65,15.65,0,0,0,5.07-6.68c.67-1.69,1.37-4.45-.87-5.15-3.46-1.08-6.95.28-9.61,2.63a9.29,9.29,0,0,0-3.07,6.9,4.84,4.84,0,0,0,1.53,3.55C319.92,52.72,321,53.34,321.54,52.55Z"/><path class="g" d="M318.45,42.6a9.62,9.62,0,0,1,2.39-1.75A15,15,0,0,1,327,38.3c1.6-.17,5.52-.34,5.8,1.89.25,2-.72,4.14-1.62,5.8a17.54,17.54,0,0,1-4.89,5.72c-.45.32-4.25,2.41-4.41.58,1.45-.36,2.72-.23,4.06-1.15a11.38,11.38,0,0,0,3.2-3.56c1-1.57,4.43-6.56,1.42-7.53-3.4-1.09-7,.77-9.11,3.49-.4.52-.79,1-1.17,1.57-.07.1-.25.44-.37.48C319.35,45.76,318.55,43.32,318.45,42.6Z"/><path class="j" d="M320.88,45.57c.91-.2,2.67-.13,3.19.74-.37.33-1,.38-1.38.62.28.27,1.16.62.92,1.1-.09.17-.46,0-.54.25s.28.36.32.43c.52.84.68,1.22-.13,1.84a5.21,5.21,0,0,1-1,.63,9.4,9.4,0,0,1-.46-1.48,14,14,0,0,0-1.24-2.63C320.09,46.18,320.17,45.21,320.88,45.57Z"/><path class="h" d="M295.45,41.79a18.09,18.09,0,0,1,2.85,0,52.14,52.14,0,0,1,5.73.09c5.43.53,10.65,2.64,14,7.16a45.36,45.36,0,0,1,4,5.9c.36.63,1.68,3.88,2.21,4.37s1.75,1,2.18,1.75c-.6,0-1.25-.28-1.82-.13a6.91,6.91,0,0,1,2.62,1.67c-.36.4-1.44.17-1.92.18-.82,0-2.48-.25-3.12.33a8,8,0,0,0,1.91,1.1c-.93.53-2.67,0-3.67,0a42,42,0,0,0-4.75.23c-2.28.19-4.56.27-6.83.57a19.28,19.28,0,0,1-6.34-.45,6.37,6.37,0,0,1-1.95-1,36.65,36.65,0,0,1-5.19-3.76c-2-1.71-3.82-3.58-5.83-5.27-1.26-1.06-2.67-1.94-4-2.94a14.48,14.48,0,0,0-2.34-1.64,8.28,8.28,0,0,1,2.28,0,4.94,4.94,0,0,0-3.49-2c1.12-.17,2.34-.08,3.42-.32a4.49,4.49,0,0,1-1.27-.65,23,23,0,0,0,4.67-2,36.61,36.61,0,0,1,3.9-2.1,11.76,11.76,0,0,1,1.58-.62C294.54,42.12,295.27,42.07,295.45,41.79Z"/><path class="f" d="M321.69,55a5.56,5.56,0,0,0-2.38-2,6.53,6.53,0,0,0-4.3-.56,11.57,11.57,0,0,0-5.8,2.49,13.88,13.88,0,0,0-3.3,5.52c-.17.42-.21.88-.63.9a9.13,9.13,0,0,1-1.18-.4c-.64-.12-.81,0-.79-.65,0-.93.18-1.83.14-2.77a29.85,29.85,0,0,0-.52-3.66,12.11,12.11,0,0,0-2.77-6,11.51,11.51,0,0,0-10.91-3.2,22.17,22.17,0,0,1,4-4.35,17.07,17.07,0,0,1,21.85-1.13c2.68,2.17,5.27,5,6.29,8.45a41.77,41.77,0,0,1,1.23,5.17,18.19,18.19,0,0,1,.36,4.35A9.4,9.4,0,0,0,321.69,55Z"/><path class="g" d="M304.67,62.2c.61-.16,2.41-.19,2.29-1.4-.1-1-2.3-1.65-3.11-1.82-.61-.12-1.7,0-1.77.8,0,.61.65,1.39,1.08,1.75A2.36,2.36,0,0,0,304.67,62.2Z"/><path class="i" d="M314.22,45.91c.14-.32.69-1.35.46-1.84-.08.09-.27.19-.35.32a1.27,1.27,0,0,0-.12-.1c-.19.3-1.12,2-.19,1.93"/><path class="i" d="M310.85,46.61c0-.42.3-1,.3-1.49-.38.41-.6.29-.86.86-.1.23-.26,1.53.35.81"/><path class="i" d="M309.66,43.1a2.41,2.41,0,0,0,.48-1.55c-.73-.31-1.31.7-1.25,1.39,0,.39.38.73.72.27"/><path class="i" d="M307.61,45.35a4.85,4.85,0,0,0,.32-1.37,2.41,2.41,0,0,1-.39,0,1.65,1.65,0,0,0-.52,1c0,.11-.13.34-.06.44.19.28.56.06.65-.16"/><path class="i" d="M305.49,42.21a2,2,0,0,0,.51-1.35l-.19,0c-.11-.93-.78.57-.83.83s.07,1.25.41.56"/><path class="i" d="M303,42.91c0-.4.29-.9.28-1.36l-.26.13a.78.78,0,0,0-.11-.18,1.89,1.89,0,0,0-.47,1.32c.15.47.54.32.63-.21"/><path class="g" d="M290.78,72.49a1.68,1.68,0,0,1,.1.93,17.4,17.4,0,0,0,.07,3c.18,1.89,1.74,3.34.9,3.49-1.75.31-2.48-2.11-2.83-3A24.21,24.21,0,0,1,288,72.13c.25.13.78.78,1,.93.19-.22.16-.53.35-.74.11.15.22.36.33.51C289.88,72.48,290.55,71.91,290.78,72.49Z"/><path class="f" d="M260.79,46.49c.15-2.72-1.93-5.85-3.53-7.91-4.67-6-12.1-11.73-19.89-8.58-2.47,1-4.74,2.15-7.47,1.94-3.3-.25-6.25-2.3-8.75-4.35a19.83,19.83,0,0,1-5.34-7.27c-.27-.59-.52-2.14-1.18-2.41-1.5,1.6-2.31,4.38-2.62,6.46a14.15,14.15,0,0,0-.11,4.77,33.4,33.4,0,0,0,1.21,3.62c-1.14-.3-2-1.66-2.87-2.32.56,5.67,6,9.73,9.88,13.28a8.63,8.63,0,0,1-1.54-.64c-.05,2.24,4,4.85,5.59,5.83a12.05,12.05,0,0,0,9.63,1.34,30.71,30.71,0,0,0,8-3.06c4.16-2.61,8.49-7.82,13.9-4.24,2.24,1.47,1.88,4,2.74,6.13C259.23,48.56,261,47.13,260.79,46.49Z"/><path class="h" d="M234.69,31.09a11,11,0,0,1-4.79.85c-3.3-.25-6.25-2.3-8.75-4.35a19.83,19.83,0,0,1-5.34-7.27c-.27-.59-.52-2.14-1.18-2.41-1.5,1.6-2.31,4.38-2.62,6.46a14.15,14.15,0,0,0-.11,4.77,33.4,33.4,0,0,0,1.21,3.62c-1.14-.3-2-1.66-2.87-2.32.56,5.67,6,9.73,9.88,13.28a8.63,8.63,0,0,1-1.54-.64c-.05,2.24,4,4.85,5.59,5.83a12,12,0,0,0,4.66,1.68,1.69,1.69,0,0,1-1-.6c-.62-.82.3-1.75,1-2.09a1.84,1.84,0,0,1-1.71-1.12c-.58-1.43,1-1.79,1.84-2.46-1.3.41-3.14-.54-2.65-2.11s3.32-2.08,4.65-2.89c-2.74-.83.19-2.9,1.65-3.57C230.16,35,232.8,31.21,234.69,31.09Z"/><path class="i" d="M260.71,43.75a17,17,0,0,1-1.62.78,15.65,15.65,0,0,0-1.57.81,2.78,2.78,0,0,1,1.38-1.24A4.15,4.15,0,0,1,260.71,43.75Z"/><path class="h" d="M287.56,67a9.16,9.16,0,0,1,.07-2,24,24,0,0,1-5.57-.2,77.82,77.82,0,0,1-8.8-1.88,28.52,28.52,0,0,1-6.82-2.52A19.92,19.92,0,0,1,262.7,58c-.81.61-1.95,1.78-2.89,2A66.26,66.26,0,0,0,272,64.85c2.63.75,4.44,1.08,7.12,1.63A26.85,26.85,0,0,0,287.56,67Z"/><path class="i" d="M264.3,55.11l0,0c.05,0,0,0,0,0v.12a1.75,1.75,0,0,1,0,.24c0,.16-.07.31-.11.46a5.48,5.48,0,0,1-.33.88,6.34,6.34,0,0,1-1.05,1.57,6,6,0,0,1-1.49,1.17,6.44,6.44,0,0,1-1.76.66,8.8,8.8,0,0,1,1.2-1.4c.4-.42.8-.81,1.18-1.23s.76-.84,1.15-1.27l.6-.66.32-.33.16-.16.08-.09s0,0,.09,0A.16.16,0,0,1,264.3,55.11Z"/><path class="g" d="M298.06,51.89c.31-.88-1-1.24-1.67-1-1,.38-1.7,2.84-1,3.64s2.36.17,2.77-.68A1.83,1.83,0,0,0,298.06,51.89Z"/><path class="g" d="M315,56.83c.09-.11.17-.12.09-.28-2.07-.8-3.36,3.33-.86,3.5,1.17.08,1.36-.74,1.51-1.76C315.83,57.72,316.14,56.39,315,56.83Z"/><path class="a" d="M318.23,11.67c.12-.89-1.39-1.16-2-.92a1.36,1.36,0,0,0-.84,1.47,1.63,1.63,0,0,0,1.09,1.17A1.33,1.33,0,0,0,318.23,11.67Z"/><path class="a" d="M313.77,9.44a1.9,1.9,0,0,0-2.37-1.17,1.81,1.81,0,0,0-.91,3,1.86,1.86,0,0,0,2.78-.22A2.29,2.29,0,0,0,313.77,9.44Z"/><path class="a" d="M313.77,15.1a1.5,1.5,0,0,0-.59-1.13,1.56,1.56,0,0,0-1.81,0,1.61,1.61,0,0,0-.95,1.85A2.07,2.07,0,0,0,311.53,17,1.79,1.79,0,0,0,313.77,15.1Z"/><path class="b" d="M7.53,22.71h-.1a.47.47,0,0,1-.36-.55c.79-3.89,2.83-6.14,5.2-8.74l.69-.75c1.87-2.09,5.26-5,6.82-5.68a.47.47,0,0,1,.36.86c-1.27.54-4.55,3.29-6.49,5.44L13,14c-2.36,2.61-4.23,4.66-5,8.3A.47.47,0,0,1,7.53,22.71Z"/><path class="d" d="M19.64,8.37a.52.52,0,0,0-.33.12,3.59,3.59,0,0,0,5.25-1.27c.77-1.87-.16-5.19-2.59-5A3.9,3.9,0,0,0,18.36,6c0,1,.82,2.9,2.06,2.87"/><path class="b" d="M9.76,17.6a.47.47,0,0,1-.31-.12.47.47,0,0,1,0-.66c.92-1,3.5-2,4.33-2.2.17,0,4.07-1.17,5.32-.65a.47.47,0,0,1,.25.62.46.46,0,0,1-.61.25c-.63-.27-3.13.22-4.7.68a11,11,0,0,0-3.89,1.92A.48.48,0,0,1,9.76,17.6Z"/><path class="b" d="M9.35,17.83H9.29a.46.46,0,0,1-.4-.53A24.63,24.63,0,0,1,9.51,14a15.4,15.4,0,0,1,.78-2.1l.26-.62a.47.47,0,0,1,.87.35l-.27.64a14,14,0,0,0-.74,2,25.52,25.52,0,0,0-.6,3.21A.46.46,0,0,1,9.35,17.83Z"/><path class="d" d="M21.28,13.66a2.72,2.72,0,0,1-1.51,4c-1.19.42-2.5.46-3.29-.63a3.36,3.36,0,0,1-.33-2.72,3.08,3.08,0,0,1,3.72-2.24,3,3,0,0,1,1.6,1.31,4.3,4.3,0,0,1,.24,1.79"/><path class="d" d="M13.07,5c1.62.4,2.4,2.62,1.85,4.06a4.55,4.55,0,0,1-3.35,2.4,2.34,2.34,0,0,1-2.16-1.5,3.82,3.82,0,0,1,.94-4.61,2.6,2.6,0,0,1,3.84.42"/><path class="g" d="M81.18,48a5,5,0,0,0,.4,1.07,37.12,37.12,0,0,1,5.77,5.85c.82,1.09,1.47,2.54,2.71,3.18.59.31,1.37.68,2,.14.88-.73-.28-1.27-.9-2-1.53-1.71-4.69-6.7-6.3-8.38C83.91,46.89,81.52,44.35,81.18,48Z"/><path class="f" d="M81,48.67a12.65,12.65,0,0,1,2.16,1.72c.12-.39-.35-1,0-1.38s.41,0,.53-.36,0-.86.58-.88a1.3,1.3,0,0,1,.7.13,9.33,9.33,0,0,0-1.25-1.78c-.49-.56-1.11-1.33-1.84-1.38a2.25,2.25,0,0,0-1.46.72c-.48.39-3.22-1.3-3-.59A48.38,48.38,0,0,0,81,48.67Z"/><path class="p" d="M59.33,59.54c.18-.08.17-.54.21-.93.16-1.43.65-1.79.64-3.25,0-2.6.94-8.09.75-10-2.89-1-4.45,6.09-4.88,8.34a7.32,7.32,0,0,0,.52,5.36C57.32,60.31,59,61.3,59.33,59.54Z"/><path class="g" d="M56.53,59.67c0-.08-.08,0,0,.38A31,31,0,0,1,58,64.47a16.36,16.36,0,0,0,1.44,3.84c1,1.79,3.05,1.76,2.28.09-1.45-3.15-1.08-5.45-1.47-8-.34-2.2,0-3-.16-5.17-.23,1.34-.64,1.37-1.06,2.61-1-1-.94,0-1.36.83-.11-.15-.39-.19-.5-.31A6.77,6.77,0,0,0,56.53,59.67Z"/><path class="f" d="M79,22.33c-.54-.11-1.06-.5-1.63-.64a23.63,23.63,0,0,0-4.5-.42c-6.08-.17-11.77.63-16.66,4.12A22.38,22.38,0,0,0,47.3,38a50.25,50.25,0,0,0-1.56,9c-.31,5.24,1.53,10.14,3.11,15.2a27.88,27.88,0,0,0,1.75,3.62c1.24,1.35,2.49,0,4.23-.81.28-2.11,1.38-4.4,2.06-6.4.8-2.35,2.37-4,2.77-6.48.69-4.29,5.1-6.37,9-7.48a13.94,13.94,0,0,1,7.31,0c1.07-.66,1.51-2.16,2.12-3.28a23.43,23.43,0,0,0,2.75-13.61C80.74,26.92,81.11,22.73,79,22.33Z"/><path class="i" d="M57.3,42.9A6.88,6.88,0,0,1,60,46.62a10.93,10.93,0,0,1,.4,4.65,13,13,0,0,1-.53,2.3,12.58,12.58,0,0,1-1,2.1c-.73,1.34-1.6,2.54-2.29,3.89a21.36,21.36,0,0,1,1.52-4.26,14.19,14.19,0,0,0,1.19-4.16,12.93,12.93,0,0,0-.14-4.3A8.81,8.81,0,0,0,57.3,42.9Z"/><path class="g" d="M49.63,64.07a41,41,0,0,0,1.86,5.81,26.5,26.5,0,0,0,2.76,5.34c.61.85,1.46,2.09,2.51,2.33.55.12.9-.2.74-1a6,6,0,0,0-.94-1.54,9.56,9.56,0,0,1-1.15-2.9A21.9,21.9,0,0,1,55,67.91c0-1.42.55-3.14.16-4.54-.35.36-.45,1.05-1,1.19-.42-.71-.48-.83-1-.82-.11,0-.19.4-.4.4-.39,0-.48-.44-.81-.56-1-.38-.4.66-1.3.84C50.28,64.49,49.88,63.88,49.63,64.07Z"/><path class="g" d="M89.23,45.46c0-.08,1.06,1.26,1.21,1.3A11.81,11.81,0,0,1,93.09,50c.73,1.11,1.49,2.8,2.82,3.27,1.81.63,1.22-1.09.56-2.06-1.29-1.87-2.1-4.21-3.72-5.83-.56-.57-2-1.48-2.75-1.35C88.78,44.19,88.22,44.52,89.23,45.46Z"/><path class="f" d="M47.57,43.55a16.36,16.36,0,0,0-2-2.58,28.47,28.47,0,0,0-4.14-4.49,18.53,18.53,0,0,0-15.64-3.65c-6.13,1.59-10,7.43-10.53,14-.21,3,.37,6,.55,9.06a24.72,24.72,0,0,1-1,9.2c-1,3.09-3.37,7.12-6.83,7.15a6.57,6.57,0,0,1-6.46-5.41c-1.62.83.24,5.49.86,6.61A8.55,8.55,0,0,0,6.28,77.4c.93.38,2.39.35,3.19.88-.77.57-1.89.52-2.74,1C9.46,82,12.8,80.86,15.8,80.48c-.76.83-2.41,1.59-.2,2a16.6,16.6,0,0,0,6-.42c3.94-.74,7-3.22,9.63-6.26a21.49,21.49,0,0,0,5-10.78,26,26,0,0,0,.17-6.72c-.16-1.4-.65-2.78-.82-4.2-.34-2.9,0-6.46,2.38-8a6.5,6.5,0,0,1,5.13-.81,7.49,7.49,0,0,1,1.7.79c.56.31,1.74,1.55,2.27,1.53C48.18,47.55,48.05,44.48,47.57,43.55Z"/><path class="h" d="M36.22,65a21.49,21.49,0,0,1-5,10.78c-2.62,3-5.69,5.52-9.63,6.26a16.6,16.6,0,0,1-6,.42c-2.21-.37-.56-1.13.2-2-3,.38-6.34,1.5-9.07-1.25.85-.43,2-.38,2.74-1-.8-.53-2.26-.5-3.19-.88a8.55,8.55,0,0,1-3.93-3.93c-.62-1.12-2.48-5.78-.86-6.61A6.57,6.57,0,0,0,8,72.27c3.46,0,5.83-4.06,6.83-7.15a24.72,24.72,0,0,0,1-9.2c0-.48-.07-1-.11-1.46.66,1.24,1.1,3.77,2.68,2.64.11,1.26.87,3.68,2.08,4.32,1.54.8,2.45-.94,2.85-2.16.42,1.45,1.52,3.71,3.09,4.05,1.16.24,2.52-1,2.86-2.06.67,3.29,3.46,3.48,4.54.46.15.62,1.61,2.7,2.18,1.61.06-.13.14.37.27.33A2.71,2.71,0,0,1,36.22,65Z"/><path class="i" d="M45.74,46.87a5.26,5.26,0,0,1-.34-2.64,4.35,4.35,0,0,1,1-2.46,8.72,8.72,0,0,1,.06,2.59A6.53,6.53,0,0,1,45.74,46.87Z"/><path class="h" d="M94.3,17.36c-.1,0-.18-.83-.19-.9a8,8,0,0,1,.23-2.19A13.6,13.6,0,0,1,95.58,11,11.07,11.07,0,0,1,97.2,8.44a10.19,10.19,0,0,1,2-1.61,2.75,2.75,0,0,1,2.63-.47,3.27,3.27,0,0,1,1.3,1.47,15.12,15.12,0,0,1,1.18,3.95,13.1,13.1,0,0,1,.15,3.59c-.05,1.38.29,3-.61,4.14-1.07,1.38-3.28.9-4.74.48a17,17,0,0,1-2.81-1.06A5.31,5.31,0,0,1,94.3,17.36Z"/><path class="g" d="M92.1,16s0,.09.07-.07c.79-1.24,1.17-2.8,1.89-4.09a17,17,0,0,1,5.44-6c.77-.47,2.2-1.16,3-.42A7.32,7.32,0,0,1,103.58,8c1.08,3,.91,6,1,9.12,0,.65.51,3.67-.93,2.83.83-2.16.55-5.23.25-7.53-.19-1.37-.74-5.12-2.29-5.61a3,3,0,0,0-2,.63,12.21,12.21,0,0,0-4.26,5.81c-.33.86-.38,1.85-.71,2.7-.08.18,0,.42-.19.53s-.86-.06-1.07-.07C92.81,16.35,92.16,16.58,92.1,16Z"/><path class="j" d="M96.11,16c0-1.08,2.84-2.74,3.78-3,.49.11-.23,1.16-.24,1.73.4,0,.87-.63,1-.36a2.51,2.51,0,0,1,0,1c.31-.08.57.1.94.19.24.41-.11,3.18-.54,2.27a12.86,12.86,0,0,1-2.82-1C97.54,16.5,96.12,16.52,96.11,16Z"/><path class="f" d="M77.8,25.11a5.7,5.7,0,0,0-3.72,1.11c.61.34,1.33.42,1.93.76-.25.12-.57.17-.85.29a2.94,2.94,0,0,0,.59.37c-.8.43-1.47.79-.64,1.57-.73.89.06,1.68.7.41C76.61,28,76.59,25.82,77.8,25.11Z"/><path class="h" d="M75.85,36.31c-.23.47-2.7-1.41-3.07-1.68a17.23,17.23,0,0,1-3-2.64,12,12,0,0,1-2.93-4.72,1.54,1.54,0,0,1,0-1.23,7.34,7.34,0,0,1,.91-1.17A3.7,3.7,0,0,1,70,23.48a15.33,15.33,0,0,1,6-.32,5.49,5.49,0,0,1,4,4.08,6.39,6.39,0,0,1-.38,4.07A12.69,12.69,0,0,1,77.7,34.4,6.87,6.87,0,0,1,75.85,36.31Z"/><path class="g" d="M80.55,23.06c-.55-.06-1.14-.3-1.71-.39-1.51-.21-3-.31-4.55-.37-2.48-.08-5.87.25-7.5,2.37-2.63,3.42,2.11,7.63,4.61,9.58.82.64,2.3,2.27,3.45,2.24.55,0,.82-.49,1.13-.88-1-.5-2.07-.51-3-1.24a18.8,18.8,0,0,1-5-5c-.7-1.16-1.32-2.88-.22-3.95s3.07-1.4,4.51-1.49a22.3,22.3,0,0,1,6.8.83c.32.09.64.28.92.12s.32-.81.41-1C80.56,23.49,80.75,23.17,80.55,23.06Z"/><path class="j" d="M78.05,26.57a4.46,4.46,0,0,0-2,0c-.64.11-1.56.15-2,.73.23.22.67.17.94.35-.2.25-.69.32-1,.42a2.41,2.41,0,0,0-1.09.61c-.27.26-.66.54-.27.79a3,3,0,0,0,1.51.19c-.18.17-.76.55-.7.86s.5.29.74.34c-.14.21-.48.36-.5.65s.39.55.68.69c1,.49,2.17-.29,2.88-1s1.82-1.82,1.56-2.95C78.73,27.72,78.38,26.69,78.05,26.57Z"/><path class="h" d="M101,19.2c-2.21-.23-1.5-.63-3.56,0a25.22,25.22,0,0,0-7.11,3.83c-2.62,1.86-8,5.72-10.12,8.14-3.32,3.75-3.27,4.33-5.11,9.08-.3.77-1.08,3.48-1.29,4.24.39,0,.87-.19,1.27,0-.69.81-1.51,1.53-2.16,2.38.61.43,2.36-.51,3-.69s1.67-.58,2.26-.32c-.39.24-1,1-.89,1.45a10.6,10.6,0,0,0,3-.9,22.75,22.75,0,0,1,5.07-.75,64.58,64.58,0,0,0,6.53-.28c2.74-.47,6.1-1.37,8.26-3.06.46-.37,1.15-1,1.66-1.3a18.79,18.79,0,0,0,5.43-5.79c2.14-3.38,3.16-7.34,5.36-10.68-.35-.12-.76.23-1.12.28a11.45,11.45,0,0,1,2.19-4.5c-1,.22-1.81,1.33-2.74,1.8a6.15,6.15,0,0,1,2.18-2.66,6.3,6.3,0,0,1-4.52.76,8.87,8.87,0,0,1-2.46-.54c-.33-.16-2,0-2.34-.15A14.36,14.36,0,0,0,101,19.2Z"/><path class="f" d="M73.94,44.22c0-.45.63-4.39.74-4.82a63.25,63.25,0,0,0,.85-6.49,30.44,30.44,0,0,1,1.17-6.44,19.21,19.21,0,0,1,2.21-4.18,18.13,18.13,0,0,1,6.22-5.49c1.91-1.12,4.22-2.41,6.52-2.31a20.36,20.36,0,0,1,3.38.23A24.64,24.64,0,0,1,100.6,17a37.41,37.41,0,0,0,5.66,2.49c.85.25,1.74.38,2.59.61a15.74,15.74,0,0,0-1.92.45,9.58,9.58,0,0,0-3.13,2.1,14.19,14.19,0,0,0-3.49,3.51,12.57,12.57,0,0,0-1.71,5.51,9.73,9.73,0,0,0,.33,3.6c.31,1,.72,2,1,3a5.77,5.77,0,0,0-1.39.58,8.39,8.39,0,0,1-1.2.88,11.54,11.54,0,0,0-7.81-5.44,15.69,15.69,0,0,0-8.73.55,9.81,9.81,0,0,0-3.65,2.7C76.31,38.52,75,43.49,73.94,44.22Z"/><path class="g" d="M99.64,40.77a5.09,5.09,0,0,1-2.23.1c-1.2-.41-.51-1.42.13-2s2.07-1.68,3.1-1.51C102,37.61,100.45,40.36,99.64,40.77Z"/><path class="g" d="M91.08,39.85a2.71,2.71,0,0,0-.66-.91,5.08,5.08,0,0,0-2.49-1.3,4.59,4.59,0,0,0-3.12.72c-.39.24-1.51.87-1.24,1.5.7-.18,1.34-.66,2-.91a6.2,6.2,0,0,1,2.3-.41A5.45,5.45,0,0,1,91,39.87S91,39.72,91.08,39.85Z"/><path class="g" d="M103,33a2.94,2.94,0,0,1-.46-1,5.26,5.26,0,0,1,.11-2.81,4.68,4.68,0,0,1,2.19-2.35c.4-.22,1.51-.87,1.91-.33a19.72,19.72,0,0,1-1.8,1.31,6.48,6.48,0,0,0-1.5,1.79,5.51,5.51,0,0,0-.41,3.38S102.94,32.79,103,33Z"/><path class="i" d="M83,24.86c-.27-.48-1-1.34-.95-1.86,0-.23-.13-.26.15-.32s.32.13.44.25a2.24,2.24,0,0,1,.68,1.26C83.34,24.43,83.29,25.09,83,24.86Z"/><path class="i" d="M85.92,25.12c-.28-.23-1.45-2.13-.52-1.6C85.69,23.69,86.64,24.89,85.92,25.12Z"/><path class="i" d="M85.78,21.79c-.12-.2-.64-1.1-.52-1.32s.46,0,.6.18a2,2,0,0,1,.45,1.07.3.3,0,0,1-.55.18"/><path class="i" d="M88.54,22.14c-.23-.13-1-1.59-.27-1.43.19.05.59.79.64,1s-.09.77-.4.32"/><path class="i" d="M90,19.26a2.43,2.43,0,0,1-.6-1.31c.19,0,.36.12.44-.09a1.5,1.5,0,0,1,.59,1.05c-.06.38-.44.41-.62,0"/><path class="i" d="M91.35,22.12a3,3,0,0,1-.52-1c.34-.44.61-.09.89.32.1.16.26.36.18.55s-.43.19-.54-.05"/><path class="i" d="M93.15,19.62c-.33-.3-.81-.89-.4-1.27.83.12.92,1.68.4,1.27"/><path class="b" d="M24.33,129.76l-.12,0c-7.08-2.27-12.21-9.92-15.45-15.47-2.17-3.73-3.3-7.85-4.46-12.46a.39.39,0,0,1,.75-.19c1.14,4.56,2.26,8.62,4.38,12.26,3.17,5.44,8.18,12.93,15,15.13a.39.39,0,0,1,.25.48A.39.39,0,0,1,24.33,129.76Z"/><path class="b" d="M24.33,130.11a.78.78,0,0,1-.22,0c-7.2-2.31-12.38-10-15.65-15.63-2.19-3.76-3.33-7.91-4.49-12.55A.72.72,0,0,1,4.5,101a.73.73,0,0,1,.89.53c1.13,4.53,2.24,8.57,4.34,12.16,3.14,5.4,8.1,12.82,14.82,15a.72.72,0,0,1,.47.92A.72.72,0,0,1,24.33,130.11ZM4.71,101.7c1.08,4.61,2.2,8.71,4.35,12.39,3.21,5.51,8.29,13.08,15.26,15.32h0a.05.05,0,0,0,0,0c-7-2.28-12-9.84-15.24-15.34C7,110.38,5.86,106.29,4.71,101.7Z"/><path class="b" d="M7.44,110.74c-.45-.63,2.45-10.48-2.81-10.61C1.61,100.05,5.79,108.89,7.44,110.74Z"/><path class="b" d="M7.47,111.1a.39.39,0,0,1-.29-.13c-1.31-1.47-4.78-8.29-3.77-10.46a1.2,1.2,0,0,1,1.23-.73A3.13,3.13,0,0,1,7,100.85c1.63,1.88,1.13,5.81.84,8.15a9.27,9.27,0,0,0-.14,1.58.31.31,0,0,1-.08.45A.26.26,0,0,1,7.47,111.1ZM4.59,100.47a.55.55,0,0,0-.56.33c-.67,1.44,1.52,6.56,3.06,8.91,0-.23.06-.49.1-.8.28-2.23.75-6-.67-7.61a2.42,2.42,0,0,0-1.9-.83Z"/><path class="b" d="M4.59,100.51a.49.49,0,0,0-.52.31c-.66,1.41,1.46,6.4,3,8.77,0-.2,0-.42.08-.68.28-2.22.75-6-.66-7.59a2.41,2.41,0,0,0-1.87-.81Z"/><path class="b" d="M7.07,109.94a.34.34,0,0,1-.29-.16c-1.43-2.21-3.8-7.44-3-9.11a.91.91,0,0,1,.87-.51,2.74,2.74,0,0,1,2.13.94c1.51,1.76,1,5.57.74,7.85l-.08.68a.34.34,0,0,1-.26.3Zm-2.48-9.43v.35c-.16,0-.18,0-.21.1-.47,1,.93,4.9,2.47,7.6.28-2.25.62-5.57-.62-7a2,2,0,0,0-1.62-.69Z"/><path class="b" d="M11,116.69c.46-2,1.82-3.69,2.14-5.77.3-1.9-.37-5.51-2.3-2.59C9.18,110.86,9.94,115.37,11,116.69Z"/><path class="b" d="M11,117a.33.33,0,0,1-.26-.13c-1.14-1.39-2-6-.19-8.78.67-1,1.31-1.42,1.9-1.19,1.09.43,1.21,2.87,1,4a11.85,11.85,0,0,1-1.15,3.25,12.54,12.54,0,0,0-1,2.55.35.35,0,0,1-.26.26Zm1.13-9.46c-.2,0-.55.24-1,.94-1.35,2-1,5.6-.23,7.31a20.08,20.08,0,0,1,.81-1.9,11.61,11.61,0,0,0,1.1-3.07c.21-1.34-.11-3.08-.6-3.27Z"/><path class="b" d="M12.15,107.61c-.18,0-.52.24-1,.93-1.32,2-1,5.45-.27,7.19a18.44,18.44,0,0,1,.78-1.82,11.82,11.82,0,0,0,1.09-3c.2-1.3-.11-3.06-.58-3.24Z"/><path class="b" d="M10.91,116.07a.34.34,0,0,1-.32-.21c-.77-1.79-1.09-5.4.3-7.51.47-.72.9-1.08,1.26-1.08l.18,0c.77.3,1,2.37.79,3.61A11.48,11.48,0,0,1,12,114.06c-.27.57-.55,1.17-.77,1.78a.32.32,0,0,1-.31.23Zm1.2-8.08a2.44,2.44,0,0,0-.64.74c-1.05,1.59-1,4.24-.54,6,.15-.33.3-.65.44-1a11.07,11.07,0,0,0,1.07-3A5,5,0,0,0,12.11,108Z"/><path class="b" d="M14.75,123.18a49.66,49.66,0,0,0-6.08-4.89c-.89-.56-6.59-3.08-6.28-.38.16,1.49,3.82,2.81,5,3.14,3,.86,5.46,1.14,8.28,2.66"/><path class="b" d="M15.64,124.06a.47.47,0,0,1-.16,0,22.49,22.49,0,0,0-5.81-2c-.78-.19-1.57-.38-2.41-.62,0,0-5-1.45-5.22-3.43a1.29,1.29,0,0,1,.55-1.35c1.56-1,5.83,1.12,6.26,1.39a38,38,0,0,1,4.93,3.87q.6.54,1.2,1a.47.47,0,0,1,.09.12c.24.12.49.24.74.38a.35.35,0,0,1,.14.47A.38.38,0,0,1,15.64,124.06ZM3.7,117a1.33,1.33,0,0,0-.74.16c-.12.07-.28.23-.23.68.12,1.06,2.89,2.32,4.72,2.84.83.24,1.62.43,2.38.62,1.14.28,2.24.55,3.36.93a36.27,36.27,0,0,0-4.7-3.68A13.09,13.09,0,0,0,3.7,117Z"/><path class="b" d="M3.71,117.11a1.4,1.4,0,0,0-.7.15c-.07,0-.24.16-.19.6.11,1,2.77,2.23,4.65,2.77.83.23,1.62.42,2.38.61,1,.24,2,.48,2.94.79a34.4,34.4,0,0,0-4.35-3.37A12.56,12.56,0,0,0,3.71,117.11Z"/><path class="b" d="M12.79,122.38a.22.22,0,0,1-.11,0c-1-.31-1.91-.54-2.91-.78-.77-.19-1.56-.38-2.39-.62-1.22-.35-4.74-1.66-4.9-3.06a.87.87,0,0,1,.35-.93,1.57,1.57,0,0,1,.88-.2,12.74,12.74,0,0,1,4.91,1.59A34.7,34.7,0,0,1,13,121.77a.35.35,0,0,1-.22.61Zm-9.08-4.92a.87.87,0,0,0-.51.1s-.06.1,0,.27c.07.63,2.26,1.85,4.41,2.46.83.24,1.61.43,2.37.62.48.12,1,.23,1.43.36A27.91,27.91,0,0,0,8.26,119,12.39,12.39,0,0,0,3.71,117.46Z"/><path class="b" d="M20.91,127.85c-1-1.55,1.41-13.47-1.55-11C16.73,119.06,19,125.87,20.91,127.85Z"/><path class="b" d="M20.91,128.2a.36.36,0,0,1-.25-.11,13.19,13.19,0,0,1-2.84-8.3,4.23,4.23,0,0,1,1.31-3.19c.49-.41.92-.52,1.29-.34,1,.49.92,2.88.71,6.75-.11,1.95-.23,4.17.07,4.66a.33.33,0,0,1-.08.45A.32.32,0,0,1,20.91,128.2Zm-.85-11.33a.93.93,0,0,0-.48.26,3.57,3.57,0,0,0-1.07,2.69,13.34,13.34,0,0,0,1.82,6.68c0-.87,0-2,.11-3.53.12-2.16.31-5.77-.33-6.09Z"/><path class="b" d="M20.06,116.91a.84.84,0,0,0-.46.25,3.53,3.53,0,0,0-1.05,2.66,13.4,13.4,0,0,0,1.73,6.53c0-.86,0-2,.12-3.38.11-2.15.31-5.74-.31-6Z"/><path class="b" d="M20.28,126.69a.35.35,0,0,1-.3-.17,13.82,13.82,0,0,1-1.78-6.71,3.88,3.88,0,0,1,1.18-2.92c.34-.28.65-.39.87-.28.7.35.71,2.33.49,6.38-.07,1.32-.13,2.49-.11,3.35a.34.34,0,0,1-.26.34Zm-.3-9.38-.16.11a3.27,3.27,0,0,0-.93,2.42A12.47,12.47,0,0,0,20,124.91c0-.6.05-1.26.09-2C20.13,121.57,20.32,118,20,117.31Z"/><path class="b" d="M21.21,128.06c-1.93-.18-4.38-1.52-6-2-1-.3-7-1.63-6.89.47C8.42,129.78,20.47,129.13,21.21,128.06Z"/><path class="b" d="M15.59,129.29a19.82,19.82,0,0,1-5.19-.59c-1.58-.47-2.4-1.19-2.43-2.15a1.19,1.19,0,0,1,.48-1c1.59-1.23,6.8.2,6.85.21.6.18,1.29.46,2,.76a15.45,15.45,0,0,0,3.92,1.22.35.35,0,0,1,.28.2.34.34,0,0,1,0,.35C21.06,128.88,18.4,129.29,15.59,129.29Zm-5-3.58a3,3,0,0,0-1.73.36.5.5,0,0,0-.21.45c0,.56.54,1,1.55,1.39,2.74,1,7.74.73,9.81.28a22.71,22.71,0,0,1-3-1.06c-.72-.29-1.39-.57-1.95-.73A19,19,0,0,0,10.6,125.71Z"/><path class="b" d="M10.58,125.81a2.86,2.86,0,0,0-1.65.34.39.39,0,0,0-.17.37c0,.47.43.87,1.25,1.21,2.48,1,7.29.86,9.6.45-.87-.26-1.76-.62-2.59-1a20.72,20.72,0,0,0-1.94-.73A19.27,19.27,0,0,0,10.58,125.81Z"/><path class="b" d="M15.51,128.84a16.45,16.45,0,0,1-5.63-.79c-1-.39-1.45-.9-1.47-1.52a.75.75,0,0,1,.31-.66,3.14,3.14,0,0,1,1.86-.4,19.36,19.36,0,0,1,4.6.69c.57.17,1.25.45,2,.74a25.94,25.94,0,0,0,2.56.95.35.35,0,0,1,.25.35.35.35,0,0,1-.29.32A25.42,25.42,0,0,1,15.51,128.84Zm-4.93-2.68a2.48,2.48,0,0,0-1.44.26s0,0,0,.09c0,.4.57.71,1,.9,1.91.77,5.45.85,8,.62l-1.22-.49c-.7-.29-1.37-.56-1.91-.72A18.69,18.69,0,0,0,10.58,126.16Z"/><path class="b" d="M8.56,114.31l.11.1a4.17,4.17,0,0,1-2.44-.16,9.61,9.61,0,0,1-3.8-1.63c-.81-.61-2.22-1.89-2.07-3.06.1-.91,1.06-.63,1.72-.35A15.37,15.37,0,0,1,8.56,114.31Z"/><path class="b" d="M8,114.9a6.53,6.53,0,0,1-1.51-.24l-.29-.07a9.85,9.85,0,0,1-3.94-1.69c-.89-.69-2.37-2-2.21-3.39a1,1,0,0,1,.47-.78c.39-.23.94-.18,1.74.16a15.92,15.92,0,0,1,6.62,5.21l0,0a.33.33,0,0,1,.17.3.36.36,0,0,1-.2.3A1.94,1.94,0,0,1,8,114.9ZM1,109.28a.39.39,0,0,0-.21,0s-.11.06-.13.27c-.13,1.07,1.45,2.38,1.94,2.75a9.35,9.35,0,0,0,3.66,1.57l.31.07a5.75,5.75,0,0,0,1.47.22A15.4,15.4,0,0,0,2,109.53,2.4,2.4,0,0,0,1,109.28Z"/><path class="b" d="M1,109.32a.4.4,0,0,0-.19,0s-.09,0-.11.24c-.13,1.06,1.44,2.35,1.92,2.72a9.3,9.3,0,0,0,3.65,1.56l.31.07a6.12,6.12,0,0,0,1.38.22,15.53,15.53,0,0,0-6.07-4.61A2.46,2.46,0,0,0,1,109.32Z"/><path class="b" d="M8,114.51H8a7,7,0,0,1-1.46-.22l-.31-.08a9.53,9.53,0,0,1-3.78-1.62c-.66-.51-2.2-1.83-2.05-3a.59.59,0,0,1,.28-.5c.25-.15.73-.09,1.39.19A15.85,15.85,0,0,1,8.28,114a.33.33,0,0,1,0,.36A.35.35,0,0,1,8,114.51Zm-6.91-4.84c0,.75.94,1.73,1.78,2.37a8.79,8.79,0,0,0,3.52,1.5l.31.07.51.12a15.8,15.8,0,0,0-5.41-3.85A2.48,2.48,0,0,0,1.09,109.67Z"/><path class="b" d="M14.67,121.39a16,16,0,0,1-.65-5.77c.06-.64.34-3,1.44-3.19.73-.14.79.82.83,1.29.22,3.07-1.27,6.08-.81,9.15C14.81,122.56,14.48,121.16,14.67,121.39Z"/><path class="b" d="M15.48,123.22a.23.23,0,0,1-.14,0,2.41,2.41,0,0,1-1.07-1.8s0-.06,0-.08a16.37,16.37,0,0,1-.62-5.71c.16-1.48.58-3.28,1.73-3.5a.93.93,0,0,1,.72.15,2,2,0,0,1,.51,1.45,16.73,16.73,0,0,1-.44,4.37,14.06,14.06,0,0,0-.36,4.76.35.35,0,0,1-.35.4ZM15,121.53a.89.89,0,0,0,.06.2,20,20,0,0,1,.46-3.79,16.53,16.53,0,0,0,.43-4.19c0-.25-.06-.81-.25-1,0,0,0,0-.16,0-.55.1-1,1.18-1.17,2.89A15.82,15.82,0,0,0,15,121.3.36.36,0,0,1,15,121.53Z"/><path class="b" d="M15.64,112.86c-.49.07-1,.85-1.19,2.81a14.78,14.78,0,0,0,.54,5.19,26,26,0,0,1,.43-2.94,15.78,15.78,0,0,0,.43-4.17C15.84,113.56,15.8,113,15.64,112.86Z"/><path class="b" d="M15,121.21a.35.35,0,0,1-.34-.26,15.45,15.45,0,0,1-.55-5.32c.26-2.43,1-3,1.49-3.11a.35.35,0,0,1,.26.07c.21.16.3.48.35,1.14a16.26,16.26,0,0,1-.44,4.25,25.83,25.83,0,0,0-.43,2.91.34.34,0,0,1-.31.32Zm.47-7.86a4.7,4.7,0,0,0-.67,2.36,11.76,11.76,0,0,0,.12,3.09c.06-.31.12-.63.17-.94a16.06,16.06,0,0,0,.43-4.08A3,3,0,0,0,15.46,113.35Z"/><path class="g" d="M90.67,163.05c.22-.26.64-.19,1-.24,1.41-.21,2.85-.29,4.27-.46a31.42,31.42,0,0,1,3.76-.1,3.67,3.67,0,0,1,2.8.85c1.49,1.38-.48,1.2-1.44,1.09a10.73,10.73,0,0,0-2.12,0c-1.57.13-3.15,0-4.71.06-.92,0-2.58.35-3.43-.18A.6.6,0,0,1,90.67,163.05Z"/><path class="o" d="M105.69,156.76a8.45,8.45,0,0,1-2.34,4.1,32.49,32.49,0,0,1-2.41,2.43,3.23,3.23,0,0,1-1.24.8,3.47,3.47,0,0,1-2.07-.26,3,3,0,0,1-1.27-.69,2.59,2.59,0,0,1-.4-2,14.69,14.69,0,0,1,4.78-9.49c1.17-1,2.93.23,3.74,1.16A4.94,4.94,0,0,1,105.69,156.76Z"/><path class="a" d="M110.2,133a1.71,1.71,0,0,1,1,1.42,1,1,0,0,0,.13.63c.2.23.58.14.84,0a2.64,2.64,0,0,0,1.31-2.34,1.83,1.83,0,0,0-.34-1.06,1.55,1.55,0,0,0-1.67-.54,1.62,1.62,0,0,0-1.09,1.39"/><path class="g" d="M111.72,135.35a3.19,3.19,0,0,1,1.11-.79,2.89,2.89,0,0,1,1.31-.07,11,11,0,0,1,2,.45,3.15,3.15,0,0,1,1.21.65,1.15,1.15,0,0,1-.67,2.06,3,3,0,0,1-1.38-.22,1.71,1.71,0,0,0-.91-.18,1.56,1.56,0,0,0-.89.77c-1.7,2.5-3.3,5.08-4.79,7.71.33-.58-.17-2.63-.2-3.33a11.51,11.51,0,0,1-.11-3.46C108.78,137.65,110.74,136.31,111.72,135.35Z"/><path class="h" d="M108.21,130.9c.51,1.11,2.68,5.42,3,8.6a19.42,19.42,0,0,1-.92,8.59,4.29,4.29,0,0,1-.28-.9,8.38,8.38,0,0,0-.4,1.51,14.47,14.47,0,0,1-1.12,2.74,10.86,10.86,0,0,1-2.91,4c.14-1-1.54.66-1.7.79a10,10,0,0,1-2.91,1.9c-.07-.28.07-.42.14-.7a11.59,11.59,0,0,0,.26-4.19,8.13,8.13,0,0,0-.5-2.18c-.11-.28-.7-.93-.7-1.19,0-.47,1.13-1.3,1.38-1.68a18.81,18.81,0,0,0,2.49-5.63,17.62,17.62,0,0,0,.46-5.12,13.26,13.26,0,0,1-.34-2.22c.59.43-.75-4.06-.06-4.17C105.73,130.77,106.59,131.41,108.21,130.9Z"/><path class="f" d="M98.25,130.63c.35,5.78-2.12,8.29-3.69,10.71a46.67,46.67,0,0,1-3.68,4.28,50.5,50.5,0,0,0-3.5,5,19.12,19.12,0,0,0-2.73,8.87,9,9,0,0,0,.36,4.21c.25.56.49.56,1,.65A21.58,21.58,0,0,0,96,164a9.63,9.63,0,0,0,3.84-3.38,8.13,8.13,0,0,0,1.88-3.57,12,12,0,0,0-.51-6.61c1.08-.62,1.62-2.39,2.2-3.44a20.65,20.65,0,0,0,2.12-9.88c0-.89-.33-5.4-.94-6.11-.86-1-1.19-1.58-2.42-1.91C101.21,128.84,98,128.8,98.25,130.63Z"/><path class="i" d="M94.66,152.53a3.75,3.75,0,0,1,1.88-.75,6.1,6.1,0,0,1,2,.16,3.89,3.89,0,0,1,1.85,1,2.93,2.93,0,0,1,.8,1.86,7.34,7.34,0,0,0-1.39-1.18,6.08,6.08,0,0,0-1.55-.59c-.56-.15-1.15-.26-1.74-.38S95.3,152.58,94.66,152.53Z"/><path class="g" d="M105,148.18c-.38,2,.85,6.52,1.47,8.76a26.71,26.71,0,0,0,1.57,4.88c.37.8,1.24,1.7,1.29,2.57,0,.36.15.31-.18.53a2.92,2.92,0,0,1-1.07.14,2.78,2.78,0,0,1-2.43-1.4,12.6,12.6,0,0,1-1.84-5.37,11,11,0,0,1-.38-2.41c.2-1.71-1.55-3.54-2.21-5.15C102.63,150.13,103.75,147.26,105,148.18Z"/><path class="g" d="M87.63,164c.23-.25.65-.19,1-.24,1.41-.21,2.85-.29,4.28-.46a31.31,31.31,0,0,1,3.75-.1,3.65,3.65,0,0,1,2.8.85c1.5,1.38-.48,1.2-1.43,1.09a12.62,12.62,0,0,0-2.13,0c-1.56.13-3.14,0-4.71.06-.92,0-2.58.35-3.43-.17A.61.61,0,0,1,87.63,164Z"/><path class="f" d="M106.37,156.44c-.15-.9-.29-1.39-.34-2-.07-1-.18-1.94-.25-2.91-.09-1.23,0-2.48,0-3.71,0-.47.62-6.14.6-6.64-.81-18.39-3.43-1.29-3.63-1.32-.52-.1,1,6.44.49,6.63-.9.34-1.81.51-2.35,1.4-1.14,1.88-1.41,2.42-.46,4.08a33,33,0,0,1,2,3.5c.16.48,1.32,2.92,1.49,3.39.09-.28-.4-2.31-.23-2.57.35-.52.33-.08.74-.13s.24-.59.64-.76C105.64,155.16,106,156.34,106.37,156.44Z"/><path class="i" d="M103.22,157.69a.2.2,0,0,1-.2-.14,15.24,15.24,0,0,0-.78-1.62,13.71,13.71,0,0,1-.81-1.67.22.22,0,1,1,.41-.16,14.6,14.6,0,0,0,.78,1.63,13.71,13.71,0,0,1,.81,1.67.22.22,0,0,1-.13.28Z"/><path class="i" d="M84.66,159.7a5.19,5.19,0,0,0,.08.9c0,.3.08.6.14.89.08.59.25,1.18.28,1.82a4.81,4.81,0,0,1-.71-1.74,5.06,5.06,0,0,1-.06-.95A1.86,1.86,0,0,1,84.66,159.7Z"/><path class="h" d="M129.8,124.34a5.88,5.88,0,0,1-1.8,1,2.38,2.38,0,0,0,.82,1,41.51,41.51,0,0,1-9.44,3.56l.58.42c-3,1-9,4.09-14.1,2.36-.42-.14.44-1.87.12-2.17s3-.47,2.85-1a12,12,0,0,1,4-12.1,10.42,10.42,0,0,1,9.86-1.36C126.41,117.5,127,121.77,129.8,124.34Z"/><path class="h" d="M83.21,123.09a.74.74,0,0,0-.45.36.7.7,0,0,0,.21.64,8.38,8.38,0,0,0,3.73,2.65.91.91,0,0,0-.48.74,36.67,36.67,0,0,0,8.25,2l-.41.7c4.22.56,9.43,2.49,15,2.88.35-4.08-2.58-9.38-3.18-13.44a2.57,2.57,0,0,0-.24-.86,2.45,2.45,0,0,0-.85-.75c-3.68-2.33-3.82-8.27-8.34-8.14-3,.08-7.39,5.21-8.42,7.83A9.84,9.84,0,0,1,83.21,123.09Z"/><path class="h" d="M89.47,113.09a3.52,3.52,0,0,0,2.29.75c1.25-.27,2.49-2.36,3.39-3.25.48-.47,1.54-1,1.86-1.65.46-.86-.37-2-.88-2.6a41.57,41.57,0,0,0-6.89-7c-.83-.62-2.06-1.45-3-.7-1.17.94-1.41,2.51-1.48,3.92a14.53,14.53,0,0,0,.09,3.61,16.12,16.12,0,0,0,1.3,3.36C86.75,110.84,88.21,113.14,89.47,113.09Z"/><path class="g" d="M99,108.48a3.71,3.71,0,0,1-.73-.75c-1-1.14-1.89-2.26-2.88-3.37a36.41,36.41,0,0,0-4.59-4.7c-1.19-.91-3.47-1.84-4.82-.77s-1.24,4.42-1.32,6.09a9.57,9.57,0,0,0,3,7.65c.54.53,3.89,3.56,4.76,1.77a10.42,10.42,0,0,1-7-9.72c0-1.26.31-4.29,2-4.53.64-.09,1.28.6,1.73.95a13.66,13.66,0,0,1,2.19,2c.94,1.14,1.93,2.29,3,3.35.57.58,1.12,1.15,1.73,1.68a5.71,5.71,0,0,0,1.22,1,4.08,4.08,0,0,0,2.35-.4C99.55,108.7,99.48,108.68,99,108.48Z"/><path class="j" d="M96.43,108.17c.55,1.28-2.38-.69-4.71.11,0,.31.31.53.34.86-.5.17-1.07-.08-1.55.11a2.8,2.8,0,0,0,.41.5c-.22.19-.62.21-.83.4,1.28.7.69,1.43.64,2.6.82-.23,1.75-2,2.41-2.55.45-.4.87-.8,1.36-1.16S96.43,108.91,96.43,108.17Z"/><path class="h" d="M124.7,115.74c-1,.59-3-2-3.57-2.75a15.18,15.18,0,0,1-2.13-3c-.27-.69.19-1.3.57-1.91a14.1,14.1,0,0,1,2.79-3.27c1.49-1.27,4.31-3.93,6.49-2.83,1,.51,1.29,1.76,1.46,2.77a11.72,11.72,0,0,1-.1,4.57,10,10,0,0,1-3,5.15C126.53,115.06,125.15,116.27,124.7,115.74Z"/><path class="j" d="M120,110.36a12.63,12.63,0,0,1,4.51-.68,17.44,17.44,0,0,0-2.18,1.69c.4.46,1.38.19,1.91.63a2.52,2.52,0,0,0-1.19.8c.23,0,.83.11.9.38s-.3.42-.35.67c.53.25,1.12.76.7,1.41s-.63.18-1.08-.28a23.92,23.92,0,0,1-3.44-4.32C119.54,110.25,119.23,109.73,120,110.36Z"/><path class="g" d="M117.18,109.17s1.18-1,1.42-1.26c.84-.71,1.53-1.58,2.35-2.32,1.85-1.68,4-3.92,6.64-4.28,3.52-.49,3.66,6.32,3.11,8.4a15,15,0,0,1-2.95,5.3,6.53,6.53,0,0,1-3.13,2.23c-.18-.35-.32-.76-.47-1.13a7.16,7.16,0,0,0,4.25-3.55c1.11-2.27,2-4.39,1.71-7-.11-1.12-.41-3.17-1.83-3.33-.9-.1-1.78.62-2.49,1.06a12.9,12.9,0,0,0-2.69,2.19,23.84,23.84,0,0,0-2.55,3.11,7.93,7.93,0,0,1-1.64,1.91C118.26,110.05,117.81,109.61,117.18,109.17Z"/><path class="f" d="M110.79,130.66c-.16-.07,0-1.5,0-1.71a13.9,13.9,0,0,1,3-6.63,10.76,10.76,0,0,1,3.8-3.26,10.12,10.12,0,0,1,5.23-1c.75,0,2.74.11,2.61-.31a8.83,8.83,0,0,0-.78-1.68,29.61,29.61,0,0,0-4.36-5.51,21.18,21.18,0,0,0-8.42-5.35c-6.09-1.71-11.81-.49-17,3.64a18.55,18.55,0,0,0-4.09,4.07,10.36,10.36,0,0,0-1.77,3.83c.06-.29,1.93-.54,2.22-.58a8.3,8.3,0,0,1,2.17,0c3.92.59,8.15,1.91,10.69,5.16a13.76,13.76,0,0,1,2.5,5.71c.2,1,.54,2,0,2.89-.06.09-.36.44-.26.54.38.43-.1-.06,0,0a3.82,3.82,0,0,0,1.84.78C109.13,131.29,109.72,130.23,110.79,130.66Z"/><path class="g" d="M109.05,132.63c.48-.11,2.72-.8,2.54-1.88-.11-.72-1.45-.93-2-1a5.27,5.27,0,0,0-2.27-.06c-.62.14-1.8.59-1.27,1.43C106.34,131.56,108.08,132.8,109.05,132.63Z"/><path class="i" d="M112.25,111c0-.33.16-1.42-.22-1.77,0,.1-.17.25-.19.39l-.15,0c-.07.34-.32,2.13.49,1.76"/><path class="i" d="M109.47,112.71c-.15-.37-.07-1-.24-1.41-.2.48-.44.45-.48,1,0,.24.29,1.43.6.59"/><path class="i" d="M107.2,110a2.18,2.18,0,0,0-.1-1.52c-.75,0-.92,1.06-.64,1.64.17.34.59.52.74,0"/><path class="i" d="M106.14,112.69a4.18,4.18,0,0,0-.19-1.31,1.73,1.73,0,0,1-.33.17,1.6,1.6,0,0,0-.11,1.1c0,.1,0,.34.1.41.26.18.52-.14.53-.37"/><path class="i" d="M103.17,110.66a2,2,0,0,0,0-1.36l-.16.1c-.42-.77-.51.77-.46,1s.48,1.08.56.36"/><path class="i" d="M101.19,112.1c-.14-.35,0-.89-.21-1.29-.06.07-.15.15-.19.21a.61.61,0,0,0-.16-.12,1.74,1.74,0,0,0,0,1.31c.29.37.59.11.49-.39"/><path class="l" d="M104.92,132.63c.7.1,1.35.27,2,.36s1.34.16,2,.28a4.7,4.7,0,0,1-4.07-.64Z"/><path class="g" d="M94.86,124.27c-.1,0-.1-.07-.2,0a4.22,4.22,0,0,0,4.44,3.54,4,4,0,0,0,2.84-1.81,6.78,6.78,0,0,1-3.81.71A7.35,7.35,0,0,1,94.86,124.27Z"/><path class="g" d="M119.88,124.75c.09,0,.09-.06.18,0a3.74,3.74,0,0,1-3.94,3.14,3.53,3.53,0,0,1-2.52-1.6,6,6,0,0,0,3.38.63A6.59,6.59,0,0,0,119.88,124.75Z"/><path class="f" d="M65.79,164c-5.69-1.74-11.07-5.69-12.85-11.36-1.63-5.18-.09-10.95-1.7-16.13-1.47-4.67-5.1-8.11-9.41-10.43a21.13,21.13,0,0,1,21.91,2.64c0-.53.24-1.55.22-2.08,3.19,1.63,4.62,5.33,5.79,8.72a4.07,4.07,0,0,0,.45-1.81c.83.16,1.18,1.14,1.37,2q.9,3.9,1.5,7.85a38.57,38.57,0,0,0,1.43,7A10.41,10.41,0,0,0,78.71,156a6.08,6.08,0,0,0,6.73-.16c-.12.1,0,3.3,0,3.71-.07.67,2.08-.43,1.74.17-.88,1.53-5.81,4.19-7.38,4.61A25.6,25.6,0,0,1,65.79,164Z"/><path class="h" d="M51.57,144.27c0-4.94-1-10.1-4.17-13.91-1.25-1.51-3.95-2.54-5.2-3.11a.89.89,0,0,1-.13-1.53,11.21,11.21,0,0,1,2.7-1.52,15.57,15.57,0,0,1,4.24-1c4.63-.31,9,1.43,12.86,3.76a3.13,3.13,0,0,0,.27-1.63c3.37,1,5.51,4.24,7.37,7.24l.75-1.09c1.69,4.06,3.2,8.15,2.9,12.53-1-.77-1.59-2.14-3.58-1.91-1.26.14-2,1.39-2.36,2.6a3,3,0,0,0-5.82.09,2.66,2.66,0,0,0-2.63-1.61,3,3,0,0,0-1.91.92c-.86,1.38-.67,2.91-.8,4.52-.21-.89-1.66-1.25-2.48-.84s-1,1-1.21,2.18A16.46,16.46,0,0,1,51.57,144.27Z"/><rect class="q" width="467.72" height="184.25"/></svg>