<?xml version="1.0" encoding="utf-8"?>
<!-- Generator: Adobe Illustrator 25.3.1, SVG Export Plug-In . SVG Version: 6.00 Build 0)  -->
<svg version="1.1" id="trotoil_x5F_kings_x5F_v3" xmlns="http://www.w3.org/2000/svg" xmlns:xlink="http://www.w3.org/1999/xlink"
	 x="0px" y="0px" viewBox="0 0 524.41 269.29" style="enable-background:new 0 0 524.41 269.29;" xml:space="preserve">
<style type="text/css">
	.st0{fill:#FFFFFF;}
	.st1{fill:none;}
	.st2{fill:#FDC53B;}
	.st3{fill:#FCD14E;}
	.st4{fill:#282520;}
</style>
<path class="st0" d="M402.37,175.93c-1.09-3.39-3.34-6.13-6.33-7.71c-2.63-1.39-5.45-1.85-8.61-1.39
	c-8.37,1.21-16.75,2.63-25.05,4.26c-0.11-0.68-0.28-1.37-0.5-2.04c-0.27-0.83-0.63-1.63-1.05-2.37c5.76-0.83,11.33-1.64,16.61-2.39
	l6.31-0.91c3.83-0.55,7.18-2.9,9.21-6.45c2.04-3.56,2.36-7.66,0.89-11.25c-6.36-15.49-14.21-30.44-23.35-44.46
	c-2.06-8.95-4.57-17.87-7.48-26.54c-5.4-16.09-12.1-33.28-24.45-49.9c-2.3-3.1-6.19-4.59-9.98-3.84c-3.79,0.75-6.8,3.62-7.74,7.37
	c-0.72,2.84-1.7,4.63-3.32,7.6c-0.42,0.77-0.86,1.58-1.32,2.45c-1.11,2.08-1.95,4.15-2.76,6.16c-0.97,2.37-1.88,4.61-2.87,5.94
	c-0.28,0.36-0.52,0.74-0.74,1.14l-10.07,18.1L285.3,37.45c-1.54-3.44-4.89-5.72-8.66-5.9c-3.75-0.18-7.31,1.78-9.17,5.07
	l-26.14,46.16L216,43.46c-1.98-3.08-5.49-4.83-9.15-4.56c-3.65,0.27-6.86,2.52-8.37,5.86l-21.69,47.97
	c-6.56-6.46-12.82-13.36-18.61-20.54c-1.45-1.79-2.87-3.69-4.37-5.7c-3.34-4.47-6.8-9.1-11.09-13.24l-0.35-0.34
	c-2.89-2.75-7.13-3.52-10.8-1.97c-3.66,1.56-6.06,5.14-6.1,9.12c-0.03,3.36,0.03,6.75,0.08,10.02c0.13,7.39,0.25,14.37-0.57,21.02
	c-1.3,10.49-2.35,21.25-3.12,31.99c-0.66,9.07-0.38,13.77,0.37,26.34c0.38,6.48,0.91,15.36,1.5,28.27c0.13,2.73,1.35,5.3,3.37,7.12
	c-0.59,0.17-1.18,0.34-1.77,0.5c-4.59,1.3-8.02,4.79-9.17,9.34c-1.19,4.69,0.22,9.69,3.68,13.05c2.45,2.39,5.65,3.66,8.98,3.66
	c1.22,0,2.45-0.17,3.68-0.52c3.44-0.97,6.93-1.93,10.45-2.89c0.01,0.05,0.02,0.11,0.04,0.16c0.93,2.86,2.68,5.2,4.92,6.81
	c-0.28,1.92-0.13,3.89,0.48,5.79c1.84,5.66,7.1,9.32,12.7,9.32c1.25,0,2.52-0.19,3.77-0.57c10.76-3.32,21.72-6.32,32.58-8.91
	c3.08-0.74,6.23-1.47,9.38-2.16c3.53-0.78,6.61-3.07,8.47-6.31c1.85-3.24,2.28-7.08,1.16-10.54c-0.35-1.09-0.84-2.1-1.43-3.03
	c0.78-2.47,0.82-5.1,0.1-7.56c2.67-0.54,5.36-1.08,8.08-1.63c-0.42,2.36-0.8,4.8-1.15,7.34c-0.33,0.8-0.56,1.64-0.71,2.49
	c-0.28,1.65-0.33,3.22-0.16,4.76c-0.35,3.31-0.64,6.62-0.92,9.83c-0.24,2.7-0.48,5.4-0.75,8.09c-0.2,1.91-0.4,3.82-0.64,5.73
	l-0.3,2.33c-0.14,1.01-0.29,2.02-0.44,3.04c-0.19,1.25-0.78,5.05,1.58,9.08c1.81,3.1,4.94,5.42,8.35,6.2
	c0.97,0.22,1.95,0.32,2.94,0.32c2.75,0,5.51-0.82,7.78-2.36c2.94-2,4.86-5.01,5.39-8.46c0.83-5.37,1.44-10.82,1.94-15.92
	c0.52,0.2,1.03,0.4,1.54,0.59c6.13,2.31,12.58,3.93,19.16,4.83c2.99,0.41,6.03,0.71,9.27,0.92c1.56,0.56,3.21,0.81,4.86,0.74
	c2.52-0.12,4.83-0.91,6.79-2.19c2.52,2.5,5.97,3.99,9.69,3.82c3.6-0.16,7.05-1.79,9.47-4.46c0.36-0.4,0.69-0.81,0.99-1.24
	c2.18,2.77,4.27,5.2,6.33,7.37c2.54,2.66,6.1,4.04,9.64,4.04c2.56,0,5.12-0.73,7.27-2.22c3.58-2.5,6.02-5.99,7.04-10.1
	c0.32-1.3,0.51-2.65,0.58-4.04c0.04,0.01,0.07,0.03,0.11,0.04c2.06,0.58,4.22,0.86,6.39,0.86c4.03,0,8.12-0.98,11.79-2.9
	c6.27-3.27,10.61-9.12,11.6-15.66c0.28-1.8,0.33-3.59,0.18-5.36c4.23-0.83,8.44-1.59,12.62-2.29c3.48-0.58,7.04-1.13,10.57-1.64
	c4.38-0.63,7.6-3.69,9.16-6.34C403.04,183.36,403.49,179.39,402.37,175.93z"/>
<rect id="cadre_1_" class="st1" width="524.41" height="269.29"/>
<g>
	<path class="st1" d="M334.73,183.77c-0.02,0.14-0.04,0.28-0.06,0.42c0.02-0.11,0.03-0.2,0.04-0.28c0.01-0.05,0.01-0.1,0.02-0.15
		C334.73,183.76,334.73,183.76,334.73,183.77z"/>
	<path class="st1" d="M334.73,183.76c0-0.03,0.01-0.06,0.02-0.09C334.79,183.41,334.76,183.57,334.73,183.76z"/>
	<path class="st1" d="M345.53,175.59c0,0,0.06,0.01,0.13,0.02C345.59,175.59,345.53,175.59,345.53,175.59z"/>
	<path class="st1" d="M321.92,220.3c-0.01,0.03-0.03,0.07-0.04,0.11c0.01-0.03,0.03-0.07,0.06-0.12
		C321.93,220.29,321.93,220.29,321.92,220.3z"/>
	<path class="st1" d="M321.96,220.25c0.02-0.04,0.04-0.07,0.07-0.11c0.01-0.03,0.01-0.05,0.02-0.08c-0.04,0.05-0.08,0.11-0.11,0.21
		C321.94,220.27,321.95,220.26,321.96,220.25z"/>
	<path class="st1" d="M336.64,178.81c-0.04-0.01-0.15,0.14-0.28,0.35C336.46,179.03,336.64,178.81,336.64,178.81z"/>
	<path class="st1" d="M343.42,191.43c-0.01,0.01,0.09-0.03,0.2-0.07C343.55,191.37,343.45,191.39,343.42,191.43z"/>
	<path class="st1" d="M352,200.7c0.04-0.02,0.08-0.17,0.12-0.29C352.05,200.55,351.97,200.71,352,200.7z"/>
	<path class="st1" d="M330.87,154.42c15.32-2.28,30.65-4.48,45.98-6.68c-3.65-8.51-7.8-16.82-12.4-24.86
		c0.27,1.74,0.52,3.48,0.75,5.23c-71.81,19.47-144.59,35.39-217.98,47.69c0,4.05,0,8.1,0.03,12.15c0.01,0.8-0.23,1.44-0.6,1.94
		c11.94-3.13,23.93-6.05,35.97-8.79c16.31-3.71,32.7-7.09,49.13-10.22c16.45-3.13,32.94-6.01,49.46-8.73
		C297.74,159.43,314.29,156.88,330.87,154.42z"/>
	<path class="st1" d="M346.98,191.87c-0.01,0-0.01-0.01-0.02-0.01C346.72,191.75,346.83,191.8,346.98,191.87z"/>
	<path class="st1" d="M347.23,191.97c-0.03-0.01-0.06-0.02-0.09-0.03C347.17,191.95,347.21,191.97,347.23,191.97z"/>
	<path class="st1" d="M343.91,204.17c0.05,0.02,0.17,0.03,0.25,0.03C344.01,204.18,343.87,204.16,343.91,204.17z"/>
	<path class="st2" d="M364.44,122.88c-1.65-2.89-3.36-5.75-5.12-8.58c-6.57-10.52-13.92-20.54-22.01-29.94
		c-2-2.32-4.03-4.6-6.11-6.85c-0.93-1-1.96-2.39-3.12-2.97c-0.27-0.13,0.03-0.12-0.31-0.15c-0.03,0.01-0.07,0.02-0.13,0.03
		c-0.26,0.06-0.67,0.34-0.99,0.62c-2.25,1.97-4.1,4.66-5.92,7.02c-1.9,2.46-3.71,4.99-5.44,7.57c-3.57,5.31-6.79,10.85-9.63,16.58
		c-1.31,2.63-2.47,5.41-4.57,7.52c-2.26,2.27-5.36,3.29-8.51,2.72c-6.15-1.12-9.71-7.61-12.76-12.39
		c-3.21-5.03-6.43-10.06-9.64-15.09c-2.5,2.03-4.87,4.29-7.06,6.66c-10.59,11.44-17.5,25.89-24.19,39.89
		c-1.01,2.11-4.62,2.15-5.62,0c-5.43-11.63-10.85-23.26-16.28-34.89c-1.2-2.57-2.4-5.14-3.59-7.7c-0.52-1.12-0.99-2.29-1.62-3.36
		c-0.16,0.15-0.31,0.31-0.46,0.47c-0.14,0.16-0.38,0.48-0.61,0.83c-0.76,1.17-1.48,2.37-2.22,3.56c-1.51,2.41-3.01,4.82-4.52,7.23
		c-3.01,4.82-6.03,9.65-9.04,14.47c-2.84,4.54-5.44,9.38-8.76,13.59c-3.16,4.03-7.83,6.4-12.99,4.94c-4.9-1.38-8.82-5.33-12.34-8.81
		c-4.54-4.49-8.65-9.42-12.27-14.69c-0.12,2.87-0.24,5.73-0.34,8.6c-0.69,18.67-1.03,37.34-1.05,56.02
		c73.38-12.3,146.16-28.22,217.98-47.69C364.96,126.36,364.71,124.62,364.44,122.88z"/>
	<path class="st3" d="M212.13,89.33c0.01,0,0.01,0,0.02-0.01c0.02-0.01,0.03-0.02,0.06-0.04c-0.02,0.02-0.04,0.03-0.05,0.04
		c0.07-0.02,0.13-0.04,0.2-0.06c-0.06-0.04-0.17,0.02-0.23,0.07C212.12,89.33,212.12,89.33,212.13,89.33z"/>
	<path class="st2" d="M142.59,100.42c0.15-3.08,4.46-4.62,6.07-1.64c5.25,9.68,12.09,18.4,20.29,25.75
		c1.55,1.39,3.32,2.86,5.22,3.61c1.87,0.74,3.4,0.6,4.91-0.41c1.32-0.88,2.54-2.61,3.53-4.13c1.48-2.28,2.89-4.61,4.33-6.91
		c6.02-9.64,11.93-19.37,18.08-28.94c1.34-2.08,3.09-4.15,5.6-4.77c2.9-0.72,5.51,1.01,6.9,3.46c1.31,2.32,2.31,4.87,3.43,7.29
		c1.2,2.57,2.4,5.14,3.59,7.7c3.87,8.3,7.74,16.59,11.61,24.89c1.07-2.2,2.16-4.39,3.28-6.56c7.47-14.55,16.51-28.59,29.94-38.31
		c1.47-1.07,3.58-0.21,4.46,1.17c4.41,6.9,8.82,13.8,13.23,20.71c1.53,2.39,3.2,4.9,5.49,6.24c0.62,0.36,0.59,0.37,1.43,0.56
		c-0.53-0.12,0.39,0.02,0.46,0.02c0.13,0.01,0.2,0.02,0.25,0.03c0.04-0.02,0.12-0.05,0.25-0.09c0.23-0.07,0.33-0.09,0.36-0.09
		c0.05-0.03,0.11-0.06,0.19-0.1c-0.03,0.01,0.64-0.43,0.58-0.36c0.47-0.39,0.84-0.83,1.05-1.11c1.63-2.28,2.67-5.01,3.95-7.49
		c1.52-2.94,3.14-5.83,4.85-8.67c3.42-5.65,7.22-11.05,11.34-16.21c1.9-2.39,3.8-5.12,6.37-6.85c3.31-2.23,7.06-1.22,9.85,1.29
		c2.22,2,4.17,4.39,6.15,6.63c2.12,2.4,4.2,4.84,6.23,7.32c5.45,6.66,10.55,13.59,15.28,20.75c-2.05-9.24-4.59-18.36-7.6-27.33
		c-5.74-17.1-12.17-32.54-23-47.12c-1.26,5.01-3.15,7.85-5.5,12.29c-2.25,4.24-3.58,9.57-6.47,13.42
		c-4.46,8.01-8.91,16.03-13.37,24.04c-0.93,1.67-2,3.47-3.78,4.16c-3.91,1.51-7.28-3.06-8.99-6.88
		c-5.42-12.08-10.84-24.16-16.26-36.23c-11.43,20.19-22.86,40.37-34.29,60.56c-11.43-17.74-22.86-35.49-34.29-53.23
		c-7.76,17.16-15.51,34.32-23.27,51.48c-0.87,1.91-1.89,3.99-3.81,4.83c-3.05,1.34-6.36-1.09-8.76-3.41
		c-7.59-7.32-14.73-15.11-21.35-23.31c-4.8-5.94-9.12-12.71-14.62-18.03c-0.1-0.1-0.2-0.19-0.3-0.29
		c-0.1,10.67,0.73,21.63-0.57,32.18c-1.29,10.43-2.31,20.99-3.07,31.48c-0.93,12.93,0.18,16.26,1.89,53.43
		c0.03,0.75,3.43,0.3,6.98-0.31c0-2.79,0-5.57,0.02-8.36C140.85,145.84,141.47,123.12,142.59,100.42z"/>
	<path class="st4" d="M326.53,161.6c16.48-2.47,32.98-4.85,49.48-7.22c2.1-0.3,4.2-0.6,6.31-0.9c1.61-0.23,2.88-2.52,2.27-4.01
		c-6.37-15.52-14.23-30.34-23.46-44.29c-4.74-7.16-9.83-14.08-15.28-20.75c-2.03-2.48-4.11-4.92-6.23-7.32
		c-1.98-2.23-3.93-4.63-6.15-6.63c-2.79-2.51-6.54-3.52-9.85-1.29c-2.56,1.72-4.47,4.46-6.37,6.85
		c-4.11,5.16-7.92,10.56-11.34,16.21c-1.71,2.83-3.33,5.72-4.85,8.67c-1.28,2.48-2.32,5.21-3.95,7.49
		c-0.21,0.29-0.58,0.73-1.05,1.11c0.06-0.07-0.61,0.37-0.58,0.36c-0.08,0.04-0.14,0.07-0.19,0.1c-0.03,0-0.12,0.02-0.36,0.09
		c-0.14,0.04-0.21,0.07-0.25,0.09c-0.04-0.01-0.12-0.02-0.25-0.03c-0.07,0-0.99-0.14-0.46-0.02c-0.84-0.19-0.81-0.2-1.43-0.56
		c-2.29-1.33-3.96-3.85-5.49-6.24c-4.41-6.9-8.82-13.8-13.23-20.71c-0.88-1.37-2.98-2.23-4.46-1.17
		c-13.43,9.72-22.47,23.76-29.94,38.31c-1.12,2.18-2.2,4.37-3.28,6.56c-3.87-8.3-7.74-16.59-11.61-24.89
		c-1.2-2.57-2.4-5.14-3.59-7.7c-1.13-2.42-2.12-4.97-3.43-7.29c-1.39-2.46-4-4.18-6.9-3.46c-2.51,0.62-4.26,2.69-5.6,4.77
		c-6.14,9.57-12.05,19.29-18.08,28.94c-1.44,2.3-2.85,4.63-4.33,6.91c-0.99,1.53-2.21,3.26-3.53,4.13
		c-1.51,1.01-3.04,1.15-4.91,0.41c-1.9-0.75-3.67-2.22-5.22-3.61c-8.21-7.35-15.04-16.07-20.29-25.75
		c-1.61-2.97-5.92-1.44-6.07,1.64c-1.12,22.7-1.74,45.43-1.87,68.15c-0.02,2.79-0.02,5.57-0.02,8.36c0,3.67,0.01,7.34,0.03,11.01
		c0.01,1.57,0.94,2.56,2.09,2.95c-2.88,0.77-5.77,1.54-8.64,2.34c-2.05,0.56-4.09,1.14-6.13,1.71c-4.03,1.14-2.32,7.42,1.73,6.28
		c16.1-4.55,32.31-8.69,48.61-12.49c16.29-3.79,32.66-7.25,49.08-10.44c16.43-3.19,32.92-6.13,49.43-8.88
		C293.42,166.67,309.97,164.09,326.53,161.6z M212.35,89.26c-0.07,0.02-0.13,0.04-0.2,0.06c0.02-0.01,0.03-0.02,0.05-0.04
		c-0.02,0.02-0.04,0.03-0.06,0.04c-0.01,0-0.01,0-0.02,0.01c0,0-0.01,0-0.01,0C212.18,89.28,212.29,89.22,212.35,89.26z
		 M182.61,181.09c-12.03,2.74-24.03,5.66-35.97,8.79c0.38-0.49,0.61-1.14,0.6-1.94c-0.03-4.05-0.03-8.1-0.03-12.15
		c0.02-18.68,0.36-37.36,1.05-56.02c0.11-2.87,0.22-5.74,0.34-8.6c3.62,5.27,7.73,10.21,12.27,14.69c3.52,3.48,7.44,7.43,12.34,8.81
		c5.15,1.46,9.82-0.91,12.99-4.94c3.31-4.21,5.92-9.05,8.76-13.59c3.01-4.82,6.03-9.65,9.04-14.47c1.51-2.41,3.01-4.82,4.52-7.23
		c0.74-1.19,1.46-2.38,2.22-3.56c0.23-0.36,0.47-0.68,0.61-0.83c0.15-0.16,0.3-0.32,0.46-0.47c0.63,1.07,1.1,2.24,1.62,3.36
		c1.2,2.57,2.4,5.14,3.59,7.7c5.43,11.63,10.85,23.26,16.28,34.89c1,2.15,4.61,2.11,5.62,0c6.7-14,13.6-28.45,24.19-39.89
		c2.19-2.37,4.56-4.63,7.06-6.66c3.21,5.03,6.43,10.06,9.64,15.09c3.05,4.78,6.61,11.27,12.76,12.39c3.16,0.57,6.25-0.45,8.51-2.72
		c2.1-2.11,3.27-4.89,4.57-7.52c2.85-5.73,6.07-11.27,9.63-16.58c1.73-2.58,3.54-5.11,5.44-7.57c1.82-2.36,3.67-5.05,5.92-7.02
		c0.32-0.28,0.73-0.56,0.99-0.62c0.06-0.01,0.1-0.02,0.13-0.03c0.34,0.03,0.04,0.01,0.31,0.15c1.16,0.58,2.19,1.97,3.12,2.97
		c2.08,2.24,4.12,4.53,6.11,6.85c8.09,9.4,15.44,19.42,22.01,29.94c1.76,2.82,3.47,5.68,5.12,8.58c4.6,8.04,8.75,16.35,12.4,24.86
		c-15.33,2.2-30.66,4.4-45.98,6.68c-16.57,2.46-33.13,5.01-49.66,7.72c-16.52,2.71-33.01,5.59-49.46,8.73
		C215.31,174,198.92,177.38,182.61,181.09z"/>
	<path class="st4" d="M203.24,197.72c1.67-0.34,2.79-2.41,2.27-4.01c-0.57-1.77-2.22-2.64-4.01-2.27
		c-12.14,2.49-24.29,4.99-36.43,7.48c-3.43,0.7-6.87,1.41-10.3,2.11c-1.67,0.34-2.79,2.41-2.27,4.01c0.57,1.77,2.22,2.64,4.01,2.27
		c12.14-2.49,24.29-4.99,36.43-7.48C196.37,199.13,199.8,198.42,203.24,197.72z"/>
	<path class="st4" d="M202.93,202.36c-11.21,2.47-22.33,5.29-33.36,8.47c-3.14,0.91-6.27,1.84-9.39,2.8
		c-1.63,0.5-2.83,2.3-2.27,4.01c0.53,1.64,2.26,2.81,4.01,2.27c10.97-3.38,22.04-6.41,33.2-9.08c3.18-0.76,6.36-1.49,9.55-2.19
		c1.67-0.37,2.8-2.39,2.27-4.01C206.37,202.88,204.71,201.96,202.93,202.36z"/>
	<path class="st4" d="M249.81,205.53C249.13,205.23,249.6,205.44,249.81,205.53L249.81,205.53z"/>
	<path class="st4" d="M282.01,183.71c-1.93,0.09-3.05,1.44-3.26,3.26c-0.92,8.21-1.43,16.46-1.51,24.72
		c-2.35-0.14-4.71-0.33-7.05-0.62c-0.19-0.02-0.37-0.05-0.56-0.07c-0.36-0.05-0.72-0.1-1.07-0.16c-0.74-0.11-1.49-0.24-2.23-0.37
		c-1.43-0.26-2.86-0.56-4.28-0.9c-2.76-0.66-5.48-1.49-8.15-2.46c-1.37-0.49-2.72-1.02-4.06-1.58c-0.01,0-0.02-0.01-0.03-0.01
		c0.04,0.02,0.08,0.03,0.13,0.05c-0.17-0.07-0.34-0.15-0.52-0.22c-0.29-0.12-0.58-0.25-0.86-0.38c-0.76-0.34-1.52-0.68-2.28-1.03
		c-0.72-0.33-1.43-0.67-2.15-1.01c1.12-0.8,2.23-1.59,3.34-2.4c5.09-3.7,10.18-7.55,14.41-12.23c2.32-2.57,4.44-5.38,6-8.48
		c0.77-1.52,0.45-3.6-1.17-4.46c-1.48-0.78-3.64-0.46-4.46,1.17c-0.56,1.1-1.18,2.17-1.86,3.2c-0.31,0.47-0.63,0.93-0.97,1.38
		c-0.13,0.18-0.85,1.05-0.18,0.24c-0.2,0.24-0.39,0.5-0.59,0.74c-1.63,1.98-3.43,3.8-5.33,5.52c-0.96,0.87-1.94,1.71-2.94,2.54
		c-0.49,0.4-0.99,0.8-1.48,1.2c-0.24,0.19-0.47,0.37-0.71,0.56c-0.06,0.05-0.59,0.46-0.15,0.12c0.43-0.34-0.14,0.11-0.23,0.17
		c-2.09,1.6-4.23,3.14-6.38,4.67c-1.04,0.74-2.08,1.49-3.12,2.23c0.02-0.15,0.04-0.29,0.06-0.44c0.06-0.45,0.13-0.9,0.19-1.34
		c0.13-0.86,0.26-1.73,0.41-2.59c0.67-4.05,1.52-8.07,2.56-12.05c0.43-1.65-0.55-3.61-2.27-4.01c-1.7-0.39-3.54,0.51-4.01,2.27
		c-1.62,6.16-2.72,12.43-3.53,18.74c-0.26,0.32-0.46,0.69-0.52,1.1c-0.17,0.99-0.17,1.89,0.07,2.8c-0.71,6.4-1.17,12.82-1.81,19.22
		c-0.2,1.98-0.42,3.96-0.66,5.94c-0.06,0.48-0.12,0.95-0.18,1.43c-0.03,0.23-0.06,0.47-0.09,0.7c-0.02,0.12-0.03,0.24-0.05,0.36
		c-0.15,1.06-0.3,2.13-0.47,3.19c-0.14,0.9-0.15,1.7,0.33,2.51c0.4,0.68,1.17,1.32,1.95,1.5c1.56,0.35,3.73-0.47,4.01-2.27
		c1.12-7.27,1.82-14.59,2.47-21.91c0.19-2.21,0.4-4.41,0.61-6.62c0.27-0.1,0.53-0.23,0.78-0.4c4.26,2.11,8.57,4.1,13.02,5.77
		c5.5,2.06,11.18,3.49,17,4.28c3.46,0.47,6.94,0.78,10.43,0.95c0.54,0.41,1.19,0.65,1.9,0.62c1.76-0.08,3.27-1.43,3.26-3.26
		c-0.06-9.57,0.45-19.15,1.52-28.66c0.09-0.77-0.43-1.78-0.95-2.3C283.74,184.1,282.82,183.68,282.01,183.71z"/>
	<path class="st4" d="M327.22,206.79c-0.97-6.75-1.94-13.49-2.91-20.24c-0.56-3.88-1.12-7.76-1.68-11.64
		c-0.11-0.75-0.88-1.58-1.5-1.95c-0.7-0.41-1.73-0.58-2.51-0.33c-0.79,0.26-1.55,0.74-1.95,1.5c-0.44,0.83-0.46,1.59-0.33,2.51
		c1.86,12.95,3.73,25.89,5.59,38.84c0.03,0.22,0.06,0.43,0.09,0.65c-0.17-0.2-0.34-0.41-0.51-0.61c-0.25-0.31-0.49-0.61-0.74-0.92
		c-0.09-0.11-0.18-0.23-0.27-0.34c-0.12-0.15-0.71-0.96-0.15-0.19c-1.84-2.56-3.72-5.06-5.45-7.7c-3.54-5.38-6.76-10.96-9.87-16.59
		c-1.69-3.06-3.35-6.14-5.02-9.21c-0.81-1.5-3.01-2.1-4.46-1.17c-0.77,0.49-1.28,1.21-1.48,2.01c-0.12,0.33-0.2,0.69-0.22,1.07
		c-0.59,9-0.76,18.02-0.5,27.04c0.08,2.58,0.19,5.16,0.33,7.74c0.1,1.7,1.43,3.34,3.26,3.26c1.68-0.08,3.36-1.44,3.26-3.26
		c-0.44-7.79-0.56-15.6-0.36-23.4c4.37,7.9,8.97,15.68,14.42,22.88c2.24,2.97,4.6,5.84,7.16,8.54c0.93,0.97,2.8,1.31,3.95,0.51
		c1.52-1.06,2.6-2.49,3.06-4.31c0.34-1.38,0.39-2.84,0.25-4.25C328.35,213.74,327.72,210.26,327.22,206.79z M322.03,220.14
		c-0.02,0.04-0.04,0.07-0.07,0.11c-0.01,0.01-0.02,0.02-0.03,0.02c0.04-0.09,0.08-0.16,0.11-0.21
		C322.04,220.09,322.03,220.12,322.03,220.14z M321.92,220.3c0.01,0,0.01-0.01,0.02-0.01c-0.03,0.04-0.05,0.09-0.06,0.12
		C321.89,220.36,321.91,220.33,321.92,220.3z"/>
	<path class="st4" d="M334.71,183.9c0.02-0.1,0.03-0.18,0.04-0.23c0,0.03-0.01,0.06-0.02,0.09
		C334.73,183.81,334.72,183.86,334.71,183.9z"/>
	<path class="st4" d="M392.85,179.01c-0.26-0.79-0.74-1.55-1.5-1.95c-0.83-0.44-1.59-0.46-2.51-0.33
		c-12.72,1.83-25.37,4.16-37.91,6.99c-1.65,0.37-3.29,0.75-4.93,1.14c-1.43-0.23-2.91-0.21-4.24,0.25
		c-1.45,0.51-2.55,1.35-3.41,2.63c-0.72,1.08-0.49,2.65,0.25,3.62c0.81,1.04,2.14,1.49,3.42,1.17c1.33-0.33,2.66-0.65,3.99-0.97
		c0.11,0.03,0.22,0.06,0.33,0.1c0.18,0.06,0.35,0.12,0.52,0.18c0.05,0.02,0.12,0.05,0.18,0.08c0.72,0.35,1.42,0.74,2.08,1.2
		c0.03,0.02,0.1,0.07,0.17,0.12c0.08,0.06,0.17,0.13,0.2,0.16c0.33,0.28,0.64,0.58,0.94,0.89c0.22,0.23,0.42,0.47,0.62,0.71
		c0.03,0.04,0.05,0.07,0.08,0.11c0.14,0.2,0.27,0.4,0.39,0.61c0.17,0.29,0.32,0.59,0.47,0.9c0,0,0,0.01,0,0.01
		c0.07,0.19,0.13,0.39,0.19,0.59c0.06,0.2,0.11,0.4,0.15,0.6c0.01,0.04,0.03,0.14,0.04,0.23c0.01,0.09,0.02,0.18,0.02,0.22
		c0.01,0.21,0.01,0.42,0.01,0.63c0,0.16-0.02,0.32-0.03,0.47c-0.07,0.32-0.14,0.63-0.24,0.94c-0.01,0.02-0.02,0.06-0.03,0.1
		c-0.02,0.05-0.04,0.09-0.06,0.13c-0.14,0.28-0.3,0.56-0.47,0.82c-0.03,0.04-0.1,0.13-0.15,0.22c-0.22,0.26-0.46,0.5-0.71,0.74
		c-0.1,0.1-0.21,0.19-0.32,0.28c-0.25,0.17-0.5,0.34-0.76,0.5c-0.26,0.15-0.53,0.3-0.8,0.43c-0.04,0.02-0.12,0.06-0.2,0.09
		c-0.06,0.02-0.11,0.04-0.14,0.05c-0.65,0.24-1.32,0.42-2.01,0.54c-0.01,0-0.02,0-0.03,0.01c-0.09,0.01-0.2,0.02-0.25,0.03
		c-0.36,0.03-0.72,0.04-1.08,0.04c-0.29,0-0.58-0.02-0.87-0.05c-0.13-0.03-0.27-0.05-0.4-0.07c-0.32-0.07-0.65-0.16-0.96-0.26
		c-0.13-0.04-0.26-0.09-0.39-0.13c-0.51-0.26-0.99-0.54-1.47-0.87c0,0,0,0,0,0c-0.01-0.01-0.02-0.01-0.02-0.02
		c-0.23-0.19-0.45-0.39-0.66-0.59c-0.43-0.41-0.83-0.85-1.2-1.31c-0.05-0.06-0.1-0.13-0.12-0.16c-0.18-0.25-0.35-0.5-0.52-0.75
		c-0.36-0.55-0.69-1.11-1-1.68c-0.31-0.58-0.59-1.18-0.87-1.78c-0.03-0.08-0.07-0.16-0.1-0.25c-0.13-0.34-0.26-0.67-0.38-1.01
		c-0.47-1.33-0.84-2.69-1.12-4.07c-0.06-0.31-0.12-0.61-0.17-0.92c-0.03-0.18-0.06-0.36-0.09-0.54c0-0.03-0.01-0.09-0.02-0.14
		c-0.01-0.09-0.02-0.18-0.03-0.22c-0.02-0.15-0.03-0.31-0.05-0.46c-0.03-0.36-0.06-0.71-0.08-1.07c-0.08-1.31-0.06-2.62,0.08-3.93
		c0-0.02,0-0.03,0.01-0.05c-0.01,0.08-0.03,0.17-0.04,0.28c0.02-0.14,0.04-0.28,0.06-0.42c0,0,0-0.01,0-0.01
		c0.03-0.19,0.06-0.34,0.02-0.09c0.05-0.29,0.1-0.57,0.16-0.86c0.12-0.57,0.28-1.13,0.46-1.68c0.05-0.14,0.1-0.29,0.15-0.43
		c0-0.01,0.01-0.03,0.02-0.04c0.01-0.02,0.02-0.05,0.03-0.06c0.06-0.13,0.13-0.26,0.19-0.39c0.04-0.08,0.32-0.61,0.55-0.99
		c0.02-0.02,0.05-0.06,0.11-0.12c0.09-0.1,0.18-0.2,0.27-0.3c0.26-0.29,0.55-0.56,0.84-0.82c0.04-0.03,0.13-0.11,0.22-0.18
		c0.06-0.04,0.11-0.08,0.13-0.1c0.34-0.23,0.68-0.45,1.04-0.65c0.34-0.19,0.68-0.37,1.03-0.53c0.01,0,0.02-0.01,0.02-0.01
		c0.18-0.07,0.36-0.14,0.54-0.2c0.74-0.26,1.51-0.47,2.28-0.61c0.05-0.01,0.2-0.03,0.32-0.05c0.07-0.01,0.13-0.01,0.16-0.02
		c0.42-0.04,0.84-0.06,1.26-0.06c0.38,0,0.77,0.02,1.15,0.05c0.02,0,0.04,0,0.06,0.01c0.16,0.03,0.34,0.06,0.37,0.07
		c0.37,0.08,0.73,0.17,1.08,0.28c0.13,0.04,0.25,0.09,0.38,0.14c0.04,0.02,0.07,0.03,0.1,0.04c1.53,0.74,3.59,0.47,4.46-1.17
		c0.77-1.46,0.47-3.67-1.17-4.46c-3.79-1.82-8.23-1.9-12.19-0.52c-3.55,1.24-6.88,3.49-8.65,6.9c-2.97,5.72-2.46,12.95-0.62,18.94
		c1.84,5.99,5.56,12.6,12.01,14.41c3.61,1.01,7.56,0.44,10.87-1.28c3.13-1.63,5.79-4.73,6.33-8.29c0.38-2.49,0.03-4.79-0.97-7.09
		c-0.66-1.52-1.68-2.92-2.87-4.1c8.25-1.82,16.55-3.43,24.89-4.82c3.59-0.6,7.19-1.16,10.8-1.68c0.75-0.11,1.58-0.88,1.95-1.5
		C392.93,180.82,393.11,179.79,392.85,179.01z M345.66,175.61c-0.08-0.01-0.13-0.02-0.13-0.02
		C345.53,175.59,345.59,175.59,345.66,175.61z M336.64,178.81c0,0-0.19,0.22-0.28,0.35C336.49,178.95,336.6,178.8,336.64,178.81z
		 M344.16,204.2c-0.08,0-0.2-0.01-0.25-0.03C343.87,204.16,344.01,204.18,344.16,204.2z M346.96,191.86c0.01,0,0.01,0.01,0.02,0.01
		C346.83,191.8,346.72,191.75,346.96,191.86z M347.13,191.94c0.03,0.01,0.06,0.03,0.09,0.03
		C347.21,191.97,347.17,191.95,347.13,191.94z M352.11,200.41c-0.03,0.12-0.08,0.27-0.12,0.29
		C351.97,200.71,352.05,200.55,352.11,200.41z M343.62,191.35c-0.11,0.05-0.21,0.08-0.2,0.07
		C343.45,191.39,343.55,191.37,343.62,191.35z"/>
</g>
</svg>
