<svg id="bebesdinosaures" xmlns="http://www.w3.org/2000/svg" viewBox="0 0 524.41 269.29"><defs><style>.cls-1{fill:#21683d;}.cls-2{fill:#83ba9f;}.cls-3{fill:#399067;}.cls-4{fill:#f8f6e1;}.cls-5{fill:#494445;}.cls-6{fill:#2f875f;}.cls-7{fill:#deebdb;}.cls-8{fill:#148998;}.cls-11,.cls-9{fill:#b7deea;}.cls-9{stroke:#6fc7da;stroke-miterlimit:10;stroke-width:0.25px;}.cls-10{fill:#282621;}.cls-12{fill:#735743;}.cls-13{fill:#add39a;}.cls-14{opacity:0.6;}.cls-15{fill:#bca78b;}.cls-16{opacity:0.43;}.cls-17{fill:#1e1f1c;}.cls-18{fill:#489779;}.cls-19{opacity:0.49;}.cls-20{fill:#c6e3d4;}</style></defs><path class="cls-1" d="M174.84,198.24A9.52,9.52,0,0,0,171.7,197a12.25,12.25,0,0,0-3.77-.18,11.69,11.69,0,0,0-3.66,1,8.17,8.17,0,0,0-3,2.22,18.11,18.11,0,0,1,3.34-1.32,20.28,20.28,0,0,1,3.44-.66,21.66,21.66,0,0,1,6.77.34l.32.06C175.05,198.36,174.94,198.31,174.84,198.24Z"/><path class="cls-1" d="M199.44,210.18a2.92,2.92,0,0,0-1.78-.79,5.43,5.43,0,0,0-2,.21,12.23,12.23,0,0,0-3.46,1.69c-.52.36-1,.73-1.51,1.13a10.56,10.56,0,0,0-1.37,1.39c-.81,1-1.47,2-2.37,2.86a10.7,10.7,0,0,0,3.05-2.21,14.1,14.1,0,0,1,1.38-1.12l1.51-1a22,22,0,0,1,3.09-1.8,4.39,4.39,0,0,1,3.43-.33Z"/><path class="cls-2" d="M405.4,182.17c-6.29,6.58-14.27,1.17-18.3-5,.12.32.25.63.35,1a22,22,0,0,1,.92,7.89c-.41-1.27-.72-2.55-1-3.8s-.67-2.5-1.05-3.73-.8-2.44-1.23-3.67-.85-2.44-1.2-3.71a34.23,34.23,0,0,0-1.74-3c-3.25-4.87-7.43-9.25-11.21-13.72-8.27-9.76-6.74-28.38-8.7-40.4-1.62-10-3.58-20.66-9-29.34a27,27,0,0,0-1.66-2.15c-4.1-5.39-9.95-11.29-16.25-14.11-6.6-3-12.34-4.74-19.62-4.79-5.58,0-10.47.14-15.71,2.22-12.19,4.83-21.39,14.39-27.39,25.87a30.65,30.65,0,0,0-1.72,23.46c.92,2.75,3.54,6.61,6.14,8a20.11,20.11,0,0,0,7.84,2.32c5.11.45,10.15-.92,15.5-2.21.36-.09.73-.2,1.09-.31s.52-.13.77-.21a24.22,24.22,0,0,0,8.35-4.34,18,18,0,0,0,3.08-3.2c-.08.14.34.82.39,1a7.94,7.94,0,0,1,.31,1.51c.26,3.11-1.95,8-5.46,11.2a13.54,13.54,0,0,1-2.13,1.61c-.71.42-2.32,1.38-3.07,1.71l-.21.08q-.75.32-1.5.6c-1.87.7-3.76,1.25-5.7,1.8l-.45.13a2.59,2.59,0,0,0-1.56.82c-.62,1,.6,1.66,1.29,2,3.44,1.82,7.45,2.24,11.3,2.3,5.11.08,10.54-1.58,15.19-3.59,1.73-.75,3.42-1.58,5.09-2.49a25.06,25.06,0,0,1,.23,10.24q-.14.62-.3,1.23c.87,1.2,4,5.6,6.07,8.89.74,1.18,1.49,2.48,2.24,3.88-.79,1.92-1.83,3.8-2.74,5.66s-1.76,3.85-2.88,5.69c-1.94,3.17-5.82,9.17.12,10.53a30.86,30.86,0,0,0,8.52.53,10.82,10.82,0,0,0,5.77-1.79c1.19,3.5,2.2,6.93,3,10.08.36-.48.73-.95,1.13-1.4a15.14,15.14,0,0,1,2.17-2,10.12,10.12,0,0,1,2.62-1.44,5.7,5.7,0,0,1,3-.3,13.14,13.14,0,0,0-2.57,1.17,27.05,27.05,0,0,0-2.29,1.55l-2.25,1.7a22.6,22.6,0,0,1-2.41,1.63l0,0a27.81,27.81,0,0,0-4.18,7.61,7.48,7.48,0,0,1-1.19,2.11c-3.24,3.54-17,1.52-16.75,7.79,0,.14,0,.27,0,.41a20.38,20.38,0,0,1-6.61-6.13,25.79,25.79,0,0,1-3.33-9c-4.44-.89-9.87-2-10.43,3.65-.43,4.29,1.54,9,3.45,12.71,1.23,2.42,2.67,5.23,5.42,6,4.85,1.4,7.14-.29,14.43-1.61.62.78,1.26,1.53,1.85,2.23,0,0,0,0,0,0,1-1.89,6.9-4.77,7.79-1.36.34,1.31-1.39,2.69-2.13,3.59-.62.75-1.35,1.79-2.3,2.08a14.48,14.48,0,0,0,5.87,4.88c3.67,1.4,6.76-.54,9.85-2.53,4.35-2.81,8.2-7.11,12.86-9.54.61,0,1.21,0,1.82-.07a61.7,61.7,0,0,0,18.16-4.49,63.75,63.75,0,0,0,15.29-8.55c4-3.18,7.49-7,9.46-11.67C406.33,186.82,407.55,182,405.4,182.17ZM281.94,104.81a2.22,2.22,0,0,1-1-2.64c-.1-1.85,2.69-1.41,2.91.62C283.94,104.06,283.26,105.35,281.94,104.81Zm50,75.18c-.93-.1-3.87.11-3.66-1.3a2,2,0,0,0-.21.2c.29-1.45,1.75-4.91,3.57-3.32C332.54,176.37,332.41,179,331.93,180Zm6.27.28c-.93.1-3.77.89-3.85-.53-.05.08-.12.15-.16.23,0-1.47.73-5.16,2.83-4C338.07,176.6,338.48,179.22,338.2,180.27Zm1.3-103.68c2.22-.82,3.73,2.63,3.06,4.4-.95,2.54-5.21.86-5.73-1.19C336.49,78.42,338,76.06,339.5,76.59Zm-16.15-6.26a5,5,0,0,1,3.61.14,5,5,0,0,1,3.26-.11c2.53.73,5.26,4.73,3.12,7-3.31,3.49-8.37,1.42-11-1.78C320.9,73.79,321.06,71.44,323.35,70.33ZM316,68.15v0c.51-1.11,2.72-.87,3.13.32s-1,2.46-2.18,2.23C316,70.57,314.55,68.53,316,68.15Zm5,27c-1.74,1.31-2.25,2.62-2.89,4.62-.29.91-.43,2-.77,2.88-.16.43-.64.92-.5.25a.14.14,0,0,1-.08.07c-.9-2.3.59-5.93,2-7.76a5.29,5.29,0,0,1,6.89-1.63A9.17,9.17,0,0,1,330,98.88c.19.58.7,2.06-.15,2.32a27.9,27.9,0,0,0-1.47-3.08,9.86,9.86,0,0,0-3.1-2.82A3.73,3.73,0,0,0,321,95.18ZM331,132a10.9,10.9,0,0,1-4.15,1.49,35.27,35.27,0,0,0,6.93-5c1.1-.94,2.22-1.82,3.25-2.79a17.58,17.58,0,0,0,1.48-1.51,7.25,7.25,0,0,0,1.18-1.78,5.24,5.24,0,0,1-.69,2.12,11.56,11.56,0,0,1-1.28,1.83,25.26,25.26,0,0,1-3.15,3.06A24.7,24.7,0,0,1,331,132Zm18.27,33a9.26,9.26,0,0,0-.38,2.41c0,.83,0,1.68,0,2.54,0,.44,0,.86,0,1.32a9.15,9.15,0,0,1-.1,1.38,9.8,9.8,0,0,1-.82,2.61c-.2.4-.41.8-.65,1.18a7,7,0,0,1-.82,1.1,4.24,4.24,0,0,1-1.14.77,6.27,6.27,0,0,0-.58.29,2.4,2.4,0,0,0-.27.16.35.35,0,0,0-.19.24.42.42,0,0,1,.12-.3,2.73,2.73,0,0,1,.23-.25q.25-.22.51-.42a4,4,0,0,0,.86-.88,6.28,6.28,0,0,0,.58-1.09c.17-.39.34-.77.47-1.17a10.39,10.39,0,0,0,.61-3.61c0-.41,0-.85-.05-1.28a23.89,23.89,0,0,1,0-2.67,8.64,8.64,0,0,1,.65-2.66,15.51,15.51,0,0,1,1.2-2.37c.49-.78,1.17-1.34,1.67-2.05a7.29,7.29,0,0,1-.56,1.2,9.29,9.29,0,0,0-.58,1.13A23.8,23.8,0,0,0,349.22,165Zm12.91,46.18a6.23,6.23,0,0,1,3.23-1.53,3.47,3.47,0,0,1,1.83.18c-.57.26-1.06.5-1.56.74l-1.48.71c-.49.24-1,.47-1.5.7s-1,.44-1.61.67A3.9,3.9,0,0,1,362.13,211.21Zm2.64-44.49c-1.47-.29-2.47-2.88-2-4-.19-1.85,2.06-1.66,3.26.29C366.93,164.42,367.27,167.2,364.77,166.72ZM357,137.6c-.46-2.36,2.56-1.89,3.47-.41C363.84,142.74,355.11,139.23,357,137.6Zm.82,9.86c.83-4,5.35-2.32,6.93,1.32,1.24,2.85,1.5,9.11-2.84,7.6a8.82,8.82,0,0,1-5.4-5.08C356.17,150.31,355.84,146.41,357.81,147.46ZM324.44,207.9c1.84-4.19,12.56-1.62,5.54,2.78-1.75,1.1-2.53,2.44-3.9.69A9.15,9.15,0,0,1,324.44,207.9Zm53.27-36.43c-1.75,5.34-6.84.24-7.78-2.95-.41-1.4-.82-8.14,2-7C376,158.61,378.59,168.78,377.71,171.47Z"/><path class="cls-3" d="M200.36,205.5c3.29-.54,5.71-3.45,9-4.19,1.06-.24,2.86,0,3.65-.86a.83.83,0,0,0,.11-.15c-.4-.12-.64-.4-.86-1.2-.28-1.06-.42-3.36,1.09-3.3a3,3,0,0,1,.42.18c-1.59-2.7-10.33-2.4-15.45-.92a44.1,44.1,0,0,1-2.25,9.3A5.54,5.54,0,0,0,200.36,205.5Z"/><path class="cls-4" d="M298.28,132.16a4.8,4.8,0,0,0-2,2.58c1.94-.55,3.83-1.1,5.7-1.8A3.14,3.14,0,0,0,298.28,132.16Z"/><path class="cls-4" d="M306.74,130.55a13.54,13.54,0,0,0,2.13-1.61,3.19,3.19,0,0,0-4,0c-.94.77-1.2,2.2-1.37,3.41l.21-.08C304.42,131.93,306,131,306.74,130.55Z"/><path class="cls-4" d="M284.84,125.48c1,1.41,2.39,3,4,3.08,2.18.17,3-1.88,4.1-3.18.65,1.34,2.83,1.87,4.17,1.79a4.25,4.25,0,0,0,3-1.64,15.07,15.07,0,0,0,1.29-2.57c-.36.11-.73.22-1.09.31C295,124.56,290,125.93,284.84,125.48Z"/><path class="cls-4" d="M307.54,123a9.26,9.26,0,0,0,3-4.62,24.22,24.22,0,0,1-8.35,4.34C303.47,124.12,306.18,124,307.54,123Z"/><path class="cls-2" d="M325.35,150.91c.3-.81.56-1.64.79-2.51C325.87,149.24,325.6,150.07,325.35,150.91Z"/><path class="cls-5" d="M280.9,102.17a2.22,2.22,0,0,0,1,2.64c1.32.54,2-.75,1.87-2C283.59,100.76,280.8,100.32,280.9,102.17Z"/><path class="cls-6" d="M337.67,126.37a11.56,11.56,0,0,0,1.28-1.83,5.24,5.24,0,0,0,.69-2.12,7.25,7.25,0,0,1-1.18,1.78,17.58,17.58,0,0,1-1.48,1.51c-1,1-2.15,1.85-3.25,2.79a35.27,35.27,0,0,1-6.93,5A10.9,10.9,0,0,0,331,132a24.7,24.7,0,0,0,3.57-2.57A25.26,25.26,0,0,0,337.67,126.37Z"/><path class="cls-2" d="M319.69,160.46c-2.27,1.75-4.77,3.27-7,5.06-1.46,1.16-3.73,2.76-4.22,4.68-.64,2.5.6,6.82,5.73,8.8,1-7.07,4.27-13.57,7.44-20C320.93,159.56,320.18,160.08,319.69,160.46Z"/><path class="cls-7" d="M324.42,207.71c0-.14,0-.27,0-.41-.23-6.27,13.51-4.25,16.75-7.79a7.48,7.48,0,0,0,1.19-2.11,27.81,27.81,0,0,1,4.18-7.61c.19-.31.4-.61.61-.9-.76-3.15-1.77-6.58-3-10.08a10.82,10.82,0,0,1-5.77,1.79,30.86,30.86,0,0,1-8.52-.53c-5.94-1.36-2.06-7.36-.12-10.53,1.12-1.84,1.93-3.76,2.88-5.69s1.95-3.74,2.74-5.66c-.75-1.4-1.5-2.7-2.24-3.88-2.05-3.29-5.2-7.69-6.07-8.89l-.24-.33a29.37,29.37,0,0,1-.67,3.31c-.23.87-.49,1.7-.79,2.51-.17.48-.35,1-.55,1.41-1,2.23-2.07,4.45-3.17,6.67-3.17,6.44-6.4,12.94-7.44,20a30.58,30.58,0,0,0-.32,3.05,44.45,44.45,0,0,0,.61,10.58,25.79,25.79,0,0,0,3.33,9A20.38,20.38,0,0,0,324.42,207.71Z"/><path class="cls-1" d="M330,210.68c7-4.4-3.7-7-5.54-2.78a9.15,9.15,0,0,0,1.64,3.47C327.45,213.12,328.23,211.78,330,210.68Z"/><path class="cls-8" d="M371.91,161.56c-2.8-1.18-2.39,5.56-2,7,.94,3.19,6,8.29,7.78,2.95C378.59,168.78,376,158.61,371.91,161.56Z"/><path class="cls-8" d="M361.9,156.38c4.34,1.51,4.08-4.75,2.84-7.6-1.58-3.64-6.1-5.29-6.93-1.32-2-1.05-1.64,2.85-1.31,3.84A8.82,8.82,0,0,0,361.9,156.38Z"/><path class="cls-8" d="M360.46,137.19c-.91-1.48-3.93-1.95-3.47.41C355.11,139.23,363.84,142.74,360.46,137.19Z"/><path class="cls-8" d="M362.81,162.72c-.51,1.12.49,3.71,2,4,2.5.48,2.16-2.3,1.3-3.71C364.87,161.06,362.62,160.87,362.81,162.72Z"/><path class="cls-8" d="M333.34,77.35c2.14-2.26-.59-6.26-3.12-7a5,5,0,0,0-3.26.11,5,5,0,0,0-3.61-.14c-2.29,1.11-2.45,3.46-1,5.24C325,78.77,330,80.84,333.34,77.35Z"/><path class="cls-8" d="M342.56,81c.67-1.77-.84-5.22-3.06-4.4-1.55-.53-3,1.83-2.67,3.21C337.35,81.85,341.61,83.53,342.56,81Z"/><path class="cls-8" d="M319.09,68.52c-.41-1.19-2.62-1.43-3.13-.32v0c-1.42.38,0,2.42.94,2.6C318.09,71,319.53,69.79,319.09,68.52Z"/><path class="cls-1" d="M328.06,178.89a2,2,0,0,1,.21-.2c-.21,1.41,2.73,1.2,3.66,1.3.48-1,.61-3.62-.3-4.42C329.81,174,328.35,177.44,328.06,178.89Z"/><path class="cls-1" d="M337,176c-2.1-1.19-2.84,2.5-2.83,4,0-.08.11-.15.16-.23.08,1.42,2.92.63,3.85.53C338.48,179.22,338.07,176.6,337,176Z"/><path class="cls-6" d="M350.06,162.61a9.29,9.29,0,0,1,.58-1.13,7.29,7.29,0,0,0,.56-1.2c-.5.71-1.18,1.27-1.67,2.05a15.51,15.51,0,0,0-1.2,2.37,8.64,8.64,0,0,0-.65,2.66,23.89,23.89,0,0,0,0,2.67c0,.43,0,.87.05,1.28a10.39,10.39,0,0,1-.61,3.61c-.13.4-.3.78-.47,1.17a6.28,6.28,0,0,1-.58,1.09,4,4,0,0,1-.86.88q-.26.19-.51.42a2.73,2.73,0,0,0-.23.25.42.42,0,0,0-.12.3.35.35,0,0,1,.19-.24,2.4,2.4,0,0,1,.27-.16,6.27,6.27,0,0,1,.58-.29,4.24,4.24,0,0,0,1.14-.77,7,7,0,0,0,.82-1.1c.24-.38.45-.78.65-1.18a9.8,9.8,0,0,0,.82-2.61,9.15,9.15,0,0,0,.1-1.38c0-.46,0-.88,0-1.32,0-.86-.07-1.71,0-2.54a9.26,9.26,0,0,1,.38-2.41A23.8,23.8,0,0,1,350.06,162.61Z"/><path class="cls-6" d="M346.48,189.82a22.6,22.6,0,0,0,2.41-1.63l2.25-1.7a27.05,27.05,0,0,1,2.29-1.55,13.14,13.14,0,0,1,2.57-1.17,5.7,5.7,0,0,0-3,.3,10.12,10.12,0,0,0-2.62,1.44,15.14,15.14,0,0,0-2.17,2c-.4.45-.77.92-1.13,1.4-.21.29-.42.59-.61.9Z"/><path class="cls-6" d="M386.28,178.51c.38,1.23.73,2.47,1.05,3.73s.63,2.53,1,3.8a22,22,0,0,0-.92-7.89c-.1-.32-.23-.63-.35-1a23.75,23.75,0,0,0-1.17-2.74,23.2,23.2,0,0,0-2.1-3.38l0,0c.35,1.27.78,2.49,1.2,3.71S385.9,177.29,386.28,178.51Z"/><path class="cls-6" d="M364.15,211.31l1.48-.71c.5-.24,1-.48,1.56-.74a3.47,3.47,0,0,0-1.83-.18,6.23,6.23,0,0,0-3.23,1.53,3.9,3.9,0,0,0-1.09,1.47c.59-.23,1.1-.45,1.61-.67S363.66,211.55,364.15,211.31Z"/><path class="cls-1" d="M334.86,217.83c.74-.9,2.47-2.28,2.13-3.59-.89-3.41-6.78-.53-7.79,1.36,0,0,0,0,0,0,0,1.25,2.66,3.39,3.33,4.29h0C333.51,219.62,334.24,218.58,334.86,217.83Z"/><path class="cls-5" d="M328.39,98.12a27.9,27.9,0,0,1,1.47,3.08c.85-.26.34-1.74.15-2.32a9.17,9.17,0,0,0-4.31-5.27,5.29,5.29,0,0,0-6.89,1.63c-1.45,1.83-2.94,5.46-2,7.76a.14.14,0,0,0,.08-.07c-.14.67.34.18.5-.25.34-.85.48-2,.77-2.88.64-2,1.15-3.31,2.89-4.62a3.73,3.73,0,0,1,4.28.12A9.86,9.86,0,0,1,328.39,98.12Z"/><path class="cls-4" d="M224.81,126.37c.83,2.58,2.53,6,4.8,6.22,1,.12,3.56-2.68,5.28-5.1l-2-.21C230.21,127,227.51,126.69,224.81,126.37Z"/><path class="cls-4" d="M193.22,120.57c.87,1.43.8,2.7,2.41,2.32a40.64,40.64,0,0,1,4.32-1.43c-2.52-.88-5-1.84-7.44-2.94A7.56,7.56,0,0,0,193.22,120.57Z"/><path class="cls-4" d="M213.32,124.46c.68,2.29,2.68,5.54,3.88,5.46,1.47-.09,3.22-2.48,4.87-3.91l-2.6-.37C217.41,125.32,215.37,124.9,213.32,124.46Z"/><path class="cls-4" d="M202.05,122.13c1,2.22,2.53,5.24,4,4.79s3.87-2.25,5.07-2.91l0,0c-1.82-.39-3.63-.79-5.44-1.14C204.48,122.62,203.25,122.43,202.05,122.13Z"/><path class="cls-4" d="M199,136.48c-.4-1.33.1-4.33-1.07-5.06-.88-.55-2,0-2.94.21a7.59,7.59,0,0,1-2.52.37l.5.36C195.15,133.86,197.07,135.22,199,136.48Z"/><path class="cls-4" d="M217.54,145c.14-.51-1.09-3.27-1.48-4-.59-1.09-1.41-.87-2.57-.75s-2.84,1.21-4.24,1.54a51,51,0,0,0,8.19,3.27Z"/><path class="cls-4" d="M206.62,138c-.3-1.6-1-2.25-2.57-1.94-1,.19-2.44,1.25-3.59,1.41a48.81,48.81,0,0,0,6.74,3.5A12.83,12.83,0,0,1,206.62,138Z"/><path class="cls-4" d="M191.63,131.38c-.55-1-.12-3.38-.69-4.34-.87-1.48-3.11-1.22-4.81-1.36A28,28,0,0,0,191.63,131.38Z"/><path class="cls-3" d="M217.48,145.09h0a51,51,0,0,1-8.19-3.27c-.49-.22-1-.44-1.47-.63l-.58-.26a48.81,48.81,0,0,1-6.74-3.5c-.49-.31-1-.62-1.46-.94-1.93-1.26-3.85-2.62-6-4.12l-.5-.36c-.28-.21-.57-.41-.84-.62a28,28,0,0,1-5.5-5.7c-.71-1-1.41-2-2.11-3.14-2.25-3.61-4.84-7.64-5.11-12-.26.14-.52.29-.77.45a18.13,18.13,0,0,0-2.13,1.62,16.5,16.5,0,0,0-1.93,2,6,6,0,0,1,1.23-2.64,8.62,8.62,0,0,1,2.17-2,7.32,7.32,0,0,1,2.78-1.09,4,4,0,0,1,2.88.56,6.15,6.15,0,0,0-2.66.38,10.41,10.41,0,0,0-1.28.57c.62,1.2,2,1.83,3.19,2.47,1.47.81,2.81,1.85,4.25,2.7s3.06,1.7,4.64,2.45c.41.2.82.38,1.23.56,2.43,1.1,4.92,2.06,7.44,2.94l1,.34c.37.12.75.23,1.13.33,1.2.3,2.43.49,3.65.72,1.81.35,3.62.75,5.44,1.14l2.18.47c2.05.44,4.09.86,6.15,1.18l2.6.37,2.74.36c2.7.32,5.4.61,8.1.91l2,.21c5.89.63,8.21.43,11.05-5.58,2.26-4.77,3-9.13,3.76-14.3a49.72,49.72,0,0,0,.31-8c0-.85-.06-1.58-.11-2.24a1.83,1.83,0,0,1,.13-.16,32.67,32.67,0,0,0-1.22-7.59c-.17-.68-.36-1.35-.57-2a30.88,30.88,0,0,0-1-4.1,14.72,14.72,0,0,0-.5-1.83,1.43,1.43,0,0,0-.15-.33,2,2,0,0,1-.63,1.45,2.61,2.61,0,0,1-.46.31c-.49-.06-1.06,0-1.76-.16a18.48,18.48,0,0,1-8.12-3.71c-1.49-1.37-2.36-2.76-1.91-4.93,0-.15,0-.3.09-.46a9.53,9.53,0,0,0-1.6,1.63l-.17.18a19.25,19.25,0,0,0-2.15-.4l-.67-.22-1-.33a117.38,117.38,0,0,0-24.72-6.51c-17.76-3.45-36.9-3.91-43.43,8.13a69.17,69.17,0,0,0-7.39,22.85c.76,3.46,7.29,5.52,9.61,7.38-1.46,1.4-5.5,2.5-7.55,2.81-2.32.34-2.06.44-2.57-1.9-.09-.41-.16-.91-.22-1.44a85.27,85.27,0,0,0-.05,10c1.78,2.18,10.1,4.22,12.26,5.22-1.82,1.13-8.57,6.39-10.79,4.46-.53-.45-.89-1.87-1.15-3.54a75.29,75.29,0,0,0,1.29,12c.15.67.38,1.54.63,2.51a6.07,6.07,0,0,1,.15-1.66c1.56,2.39,6.81,2,9.24,2.92.64.24-1.07,3.12-3.26,3.78-1.74.53-3.63,1-4.85,0,.21,1,.39,2,.49,2.86,0,.6.05,1.21,0,1.82a29.65,29.65,0,0,1-3,11.77c-.51,1.05-1.05,2.07-1.64,3-.69,1.14-1.43,2.24-2.2,3.33-1.42,2-2.93,3.9-4.4,5.85-.78,1-1.56,2.09-2.3,3.16-.5.72-1,1.47-1.41,2.23a40.91,40.91,0,0,0-2.52,5.2,51,51,0,0,0-1.88,5.59c-.42,1.53-.77,3.06-1,4.57A31.3,31.3,0,0,0,135,198c-2.74.73-5.41.36-8.7-.92-2.29-.88-3.39-2.22-5.19-3.76-.46-.39-1.75-1.63-2.46-1.35-2.23.88.3,6.91.81,8.09,3,7,7.74,12.13,14,16.51,2.55,1.77,5.65,2.75,8.45,4a11.31,11.31,0,0,0,4.68,1.06h0c-.49.2-.73.32-.41.33a7.31,7.31,0,0,1,1.62.3,15.84,15.84,0,0,0,7.64,1.47l.92-.05a11,11,0,0,0,2.59-.05c.64-.13,1.27-.28,1.9-.44,3.17-.5,6.47-1.39,8.13-3l.87-.4c2,1.79,2.87,5.12,4.83,7.15s5.24,3.66,8,2,4.39-4.72,6.85-6.68c2-1.61,5-4,7.49-4.68.93-.26,2.41-.15,3.15-.71a1.55,1.55,0,0,0,.41-.51,7.1,7.1,0,0,0,.67-4.24l0-.14c-.21-1.1-.78-1.92-1.85-1.84h0a4.39,4.39,0,0,0-3.43.33,22,22,0,0,0-3.09,1.8l-1.51,1a14.1,14.1,0,0,0-1.38,1.12,10.7,10.7,0,0,1-3.05,2.21c.9-.89,1.56-1.89,2.37-2.86a10.56,10.56,0,0,1,1.37-1.39c.49-.4,1-.77,1.51-1.13a12.23,12.23,0,0,1,3.46-1.69,5.43,5.43,0,0,1,2-.21,2.92,2.92,0,0,1,1.78.79,3.46,3.46,0,0,0-.89-2.1,4.26,4.26,0,0,0-3.66-1,9.69,9.69,0,0,0-2.47.65,15.1,15.1,0,0,0-4.52,2.83c-.69.65-2.22,3.81-3.14,3.81-1.94,0-2.24-9.14-3.28-10.89a11.62,11.62,0,0,0-6.67-5.08v-.06a21.66,21.66,0,0,0-6.77-.34,20.28,20.28,0,0,0-3.44.66,18.11,18.11,0,0,0-3.34,1.32,8.17,8.17,0,0,1,3-2.22,11.69,11.69,0,0,1,3.66-1,12.25,12.25,0,0,1,3.77.18,9.52,9.52,0,0,1,3.14,1.25,90.16,90.16,0,0,1,3.21-11.79c1-3.17,2-5.84,2.88-8.41a13.91,13.91,0,0,0-3-.7c-1.19-.18-2.39-.28-3.61-.47s-2.38-.4-3.56-.52a15.19,15.19,0,0,0-1.78-.11,6.53,6.53,0,0,0-1.79.21,4.43,4.43,0,0,1,1.71-.81,10.11,10.11,0,0,1,1.89-.26,19.13,19.13,0,0,1,3.72.28,25.14,25.14,0,0,1,3.63.74,7.74,7.74,0,0,1,2.86,1.48l.62.26c-1.15,2.38-.85,7.47,1.67,9.09a3.13,3.13,0,0,0,1.54.5,2.19,2.19,0,0,0,2.06-1.07,5.21,5.21,0,0,0,.74-2c0,.06-.06.13-.1.18a15.47,15.47,0,0,0-.22-2.31l-.35-2.28a8.12,8.12,0,0,0-.44-2.1,5.23,5.23,0,0,0-1.29-1.81,3.22,3.22,0,0,1,2.13,1.33,3.89,3.89,0,0,1,.57,1.2,8.33,8.33,0,0,1,.24,1.21,11.46,11.46,0,0,1,.1,2.42,5.19,5.19,0,0,1-.52,2,3.17,3.17,0,0,0,.46.94,1.35,1.35,0,0,0,1.92.28,2.43,2.43,0,0,0,.89-.83c1.36-2,.92-6.2.63-8-.6-3.66-2.33-5.43-5.82-5.78l-.82-.07a10.54,10.54,0,0,1-4,.09,15.26,15.26,0,0,1-3.82-1.18c-1.21-.54-2.34-1.19-3.46-1.83s-2.21-1.3-3.37-1.94a14.63,14.63,0,0,1,3.8,1.08c1.21.49,2.37,1.05,3.53,1.57a30.29,30.29,0,0,0,3.53,1.37c.65.2,1.32.36,2,.5.52-1.83,1-3.78,1.48-6,2.17-10.07.51-14.38.64-16.58a1.26,1.26,0,0,1,.13-.54l-1.13-.43a53,53,0,0,1-5.33-2.67,31.61,31.61,0,0,1-4.92-3.35c1.79.86,3.57,1.68,5.36,2.49l2.68,1.21c.9.42,1.76.83,2.67,1.18s1.81.71,2.73,1.08,1.86.76,2.72,1.21a51.27,51.27,0,0,0,5.47,2.13l-.45-.05c.14,0,.27.09.41.12,5.41,1.49,11.74,3.62,17.41,2.12,3.28-.87,6.5-1.41,8.38-4.15C222.89,146.47,219.5,145.56,217.48,145.09Zm-36.07-42.78c-4.51-.86-6.24-6.11-5.63-10.33a.53.53,0,0,1,.89.3c.59,4,1.81,7.84,6.1,8.3,1.61.18,5.06-.45,6.37-1.79s1.51-2.34,2-4.19c.35-.21,1.31-.77,1.35.4C193,99.91,186,103.19,181.41,102.31Zm57.31-1.82c-2.51-1.41.64-5.53,1.85-3.49C241.9,97.59,241.36,102,238.72,100.49Z"/><path class="cls-1" d="M183.14,109.39a4,4,0,0,0-2.88-.56,7.32,7.32,0,0,0-2.78,1.09,8.62,8.62,0,0,0-2.17,2,6,6,0,0,0-1.23,2.64,16.5,16.5,0,0,1,1.93-2,18.13,18.13,0,0,1,2.13-1.62c.25-.16.51-.31.77-.45l.29-.17a10.41,10.41,0,0,1,1.28-.57A6.15,6.15,0,0,1,183.14,109.39Z"/><path class="cls-9" d="M212.26,199.1c.22.8.46,1.08.86,1.2a9.17,9.17,0,0,0,1.33.17c1.69.21,3.1.67,3,.09-.18-1.49-2.21-3.83-3.71-4.58a3,3,0,0,0-.42-.18C211.84,195.74,212,198,212.26,199.1Z"/><path class="cls-9" d="M210.31,175.93a4.8,4.8,0,0,1-1.18-.89c.34,1.73,1.38,5.06,2,5,.88-.11,1.52-2.18,1.71-3.61A3,3,0,0,1,210.31,175.93Z"/><path class="cls-3" d="M207.23,168.24c.54,2.38.14,5,1.9,6.8a4.8,4.8,0,0,0,1.18.89,3,3,0,0,0,2.51.49c1-.44,1.2-2.1,1.16-3.87-.09-3.52-.4-6.28-3.66-7.57-2.38-.95-4.75-2.07-7.1-3.13-.65-.3-5.6-1.68-8.61-2.48a84.9,84.9,0,0,1,2.38,8.94A40.59,40.59,0,0,0,207.23,168.24Z"/><path class="cls-1" d="M152.87,158.19c-2-.62-10.66-.19-7.91,3.51,1.18,1.59,2.49,2.81,4.07,2.86.77-1.09,1.51-2.19,2.2-3.33C151.82,160.26,152.36,159.24,152.87,158.19Z"/><path class="cls-1" d="M144.63,170.41c-.3-.12-.76-.26-.93-.31a7.51,7.51,0,0,0-3.2-.21,5.44,5.44,0,0,0-3.63,1.72c.64,1.2,2.57,3.85,4,4.19.45-.76.91-1.51,1.41-2.23C143.07,172.5,143.85,171.45,144.63,170.41Z"/><path class="cls-1" d="M132.43,183.91c.31.63,1.84,1.52,2.41,2,.87.66,1.13,1,1.68.71A51,51,0,0,1,138.4,181C136.19,180.19,131.37,181.73,132.43,183.91Z"/><path class="cls-10" d="M192.47,95c0-1.17-1-.61-1.35-.4-.47,1.85-.57,2.76-2,4.19s-4.76,2-6.37,1.79c-4.29-.46-5.51-4.31-6.1-8.3a.53.53,0,0,0-.89-.3c-.61,4.22,1.12,9.47,5.63,10.33S193,99.91,192.47,95Z"/><path class="cls-11" d="M160.25,141.7c2.19-.66,3.9-3.54,3.26-3.78-2.43-.88-7.68-.53-9.24-2.92a6.07,6.07,0,0,0-.15,1.66,13.13,13.13,0,0,0,.51,4.08,2.67,2.67,0,0,0,.77,1C156.62,142.69,158.51,142.23,160.25,141.7Z"/><path class="cls-7" d="M190,149.11c-1.45-.57-2.93-1.06-4.41-1.6a1.26,1.26,0,0,0-.13.54c-.13,2.2,1.53,6.51-.64,16.58-.47,2.2-1,4.15-1.48,6,.57.13,1.16.24,1.75.34h0l.82.07c3.49.35,5.22,2.12,5.82,5.78.29,1.83.73,6-.63,8-.24,1.81-.8,4.47-1.51,4.52s-1.18-2.56-1.3-4a3.17,3.17,0,0,1-.46-.94l-.12.2a5.21,5.21,0,0,1-.74,2c-.54,1.59-1.5,4.54-2.41,4.38-.76-.13-1.15-2.45-1.19-3.81-2.52-1.62-2.82-6.71-1.67-9.09l-.62-.26a4.64,4.64,0,0,1,.4.36c-.17-.08-.34-.13-.52-.2-.88,2.57-1.84,5.24-2.88,8.41a90.16,90.16,0,0,0-3.21,11.79c.1.07.21.12.3.19l-.32-.06v.06a11.62,11.62,0,0,1,6.67,5.08c1,1.75,1.34,10.88,3.28,10.89.92,0,2.45-3.16,3.14-3.81a15.1,15.1,0,0,1,4.52-2.83,9.69,9.69,0,0,1,2.47-.65c.43-.88.82-1.8,1.18-2.75a44.1,44.1,0,0,0,2.25-9.3A81.19,81.19,0,0,0,197,168.31a84.9,84.9,0,0,0-2.38-8.94,54.65,54.65,0,0,0-4.42-10.19Z"/><path class="cls-11" d="M189.56,189.35c.71,0,1.27-2.71,1.51-4.52a2.43,2.43,0,0,1-.89.83,1.35,1.35,0,0,1-1.92-.28C188.38,186.79,188.71,189.4,189.56,189.35Z"/><path class="cls-11" d="M184.53,191c.91.16,1.87-2.79,2.41-4.38a2.19,2.19,0,0,1-2.06,1.07,3.13,3.13,0,0,1-1.54-.5C183.38,188.59,183.77,190.91,184.53,191Z"/><path class="cls-11" d="M200.65,216.4v.06c1.14-.61,4.61.3,4.58.11-.23-1.64-2.27-3.69-3.91-4.41A7.1,7.1,0,0,1,200.65,216.4Z"/><path class="cls-11" d="M199.44,210.18h0c1.07-.08,1.64.74,1.85,1.84a7.19,7.19,0,0,1,3.82.73c.08-2.88-4.13-5-6.56-4.67A3.46,3.46,0,0,1,199.44,210.18Z"/><path class="cls-1" d="M183.31,170.61c-.68-.14-1.35-.3-2-.5a30.29,30.29,0,0,1-3.53-1.37c-1.16-.52-2.32-1.08-3.53-1.57a14.63,14.63,0,0,0-3.8-1.08c1.16.64,2.26,1.29,3.37,1.94s2.25,1.29,3.46,1.83A15.26,15.26,0,0,0,181.1,171a10.54,10.54,0,0,0,4-.09h0C184.47,170.85,183.88,170.74,183.31,170.61Z"/><path class="cls-1" d="M181.05,177.88a7.74,7.74,0,0,0-2.86-1.48,25.14,25.14,0,0,0-3.63-.74,19.13,19.13,0,0,0-3.72-.28,10.11,10.11,0,0,0-1.89.26,4.43,4.43,0,0,0-1.71.81,6.53,6.53,0,0,1,1.79-.21,15.19,15.19,0,0,1,1.78.11c1.18.12,2.35.34,3.56.52s2.42.29,3.61.47a13.91,13.91,0,0,1,3,.7c.18.07.35.12.52.2A4.64,4.64,0,0,0,181.05,177.88Z"/><path class="cls-1" d="M188.32,182.48a11.46,11.46,0,0,0-.1-2.42,8.33,8.33,0,0,0-.24-1.21,3.89,3.89,0,0,0-.57-1.2,3.22,3.22,0,0,0-2.13-1.33,5.23,5.23,0,0,1,1.29,1.81,8.12,8.12,0,0,1,.44,2.1l.35,2.28a15.47,15.47,0,0,1,.22,2.31s.06-.12.1-.18l.12-.2A5.19,5.19,0,0,0,188.32,182.48Z"/><path class="cls-10" d="M240.57,97c-1.21-2-4.36,2.08-1.85,3.49S241.9,97.59,240.57,97Z"/><path class="cls-1" d="M190.34,148.23c-.86-.45-1.81-.84-2.72-1.21s-1.84-.7-2.73-1.08-1.77-.76-2.67-1.18l-2.68-1.21c-1.79-.81-3.57-1.63-5.36-2.49a31.61,31.61,0,0,0,4.92,3.35,53,53,0,0,0,5.33,2.67l1.13.43c1.48.54,3,1,4.41,1.6l.22.07a21.54,21.54,0,0,0,5.17,1.13l.45.05A51.27,51.27,0,0,1,190.34,148.23Z"/><path class="cls-11" d="M154.72,109.36c2.05-.31,6.09-1.41,7.55-2.81-2.32-1.86-8.85-3.92-9.61-7.38a3.13,3.13,0,0,1,0-1.33c-.86,2-1,5.59-.71,8.18.06.53.13,1,.22,1.44C152.66,109.8,152.4,109.7,154.72,109.36Z"/><path class="cls-11" d="M164.14,121.22c-2.16-1-10.48-3-12.26-5.22a1.27,1.27,0,0,1-.34-.84c.11,1.22.26,4.4.66,7,.26,1.67.62,3.09,1.15,3.54C155.57,127.61,162.32,122.35,164.14,121.22Z"/><path class="cls-4" d="M235.65,79.23a18.48,18.48,0,0,0,8.12,3.71c.7.12,1.27.1,1.76.16a2.61,2.61,0,0,0,.46-.31,2,2,0,0,0,.63-1.45,1.43,1.43,0,0,1,.15.33A36,36,0,0,0,245.06,73c-.44-1.39-3.36-9.59-5.79-9.15-1.15.21-2.2,3.06-2.64,3.91a66.66,66.66,0,0,0-2.83,6.41l-.06.14C233.29,76.47,234.16,77.86,235.65,79.23Z"/><path class="cls-11" d="M262.66,166.08c-.43.41-.42,2.71,0,2.67-.34,1.14,3.39,0,2.95-1.69C265.33,166.1,263.39,165.37,262.66,166.08Z"/><path class="cls-11" d="M274.87,167c-.32-.72-1.94-1-2.42-.38-.27.38,0,2.18.33,2.1C272.66,169.6,275.44,168.22,274.87,167Z"/><path class="cls-11" d="M292.52,149c-4.09-3-9.48-3.32-14.55-3.54-11.53-.5-27.27-2.67-37.94,2.65a20.16,20.16,0,0,0-13.67-10.47c.92.19,2.92,3.89,3.43,4.68a27.9,27.9,0,0,1,2.77,5.27c.54,1.41.57,3.56,1.12,5a32.64,32.64,0,0,0-8.89,17,23.17,23.17,0,0,0,.11,10.67c2.32,8.14,10.59,13.17,18.75,15.4a48,48,0,0,0,31.2-1.79,40.35,40.35,0,0,0,21.78-22.07C299.62,164.08,299.24,153.91,292.52,149Zm-47.46,28.58c-1.34,5.81-8.79,9.17-13.44,4.76-3.18-3-2.87-8.78-2.1-12.78.53-2.77,1.84-5.66,4.3-7.21a6.91,6.91,0,0,1,9.84,2.23c.71,1-.29,2.8-1.25,3.34-1.44.82-2.19.28-3.47-.26-2.91-1.21-5,2.06-5.42,4.61s.59,8.48,4.17,8.25a3.91,3.91,0,0,0,3.63-3.59.83.83,0,0,0-.85-.93c-.89,0-1.74.28-2.09-.6-.71-1.84,1.17-2.69,2.54-3,1-.26,3-.61,3.76.29C245.66,173.74,245.35,176.33,245.06,177.57Zm13.33-.48c-2.1,2.55-3.7-1.19-5.6-1.91-.71,1.34.87,3.37.23,4.83-.4.89-1.47.75-2,.79-1-3.09-2-6.17-2.72-9.32a18.71,18.71,0,0,1-.67-4.64c0-1.73.54-2.52,2.22-3a8.36,8.36,0,0,1,5.86.47c1.16.55,2.57,1.34,2.81,2.72.46,2.67-2.12,4.57-4.17,5.73a7.49,7.49,0,0,0,1.1.54,17,17,0,0,1,2,1.6C258.46,175.72,259.4,175.87,258.39,177.09Zm7.2-4.93a15.12,15.12,0,0,1,1.48,1.62c.78.84,1.56,1.09.54,2-2.13,1.88-3-1.51-4.5-2.38-.79,1,.28,3-.46,4.13-.46.71-1.35.45-1.83.4-.41-2.75-.84-5.5-1.05-8.28a15.53,15.53,0,0,1,.05-4c.25-1.46.8-2.07,2.28-2.24a7.18,7.18,0,0,1,4.92,1.18c.91.63,2,1.5,2,2.69,0,2.33-2.42,3.6-4.31,4.31A7,7,0,0,0,265.59,172.16Zm12,1.34c-1.41,1.76-2.54-.78-3.84-1.26-.48.92.61,2.3.19,3.3-.26.61-1,.53-1.38.56-.69-2.11-1.39-4.21-1.93-6.35a13.18,13.18,0,0,1-.5-3.17,1.8,1.8,0,0,1,1.5-2.06,5.72,5.72,0,0,1,4,.27c.8.37,1.77.9,1.94,1.84.33,1.82-1.42,3.14-2.81,4a4.82,4.82,0,0,0,.76.36,11,11,0,0,1,1.37,1.08C277.66,172.57,278.3,172.66,277.62,173.5Zm9.19-.84c-4.17,0-1.75-5.14.17-3.82l-.15-.12C289,168.74,289.65,172.65,286.81,172.66Zm.76-8.31c-.25.94-1.14,3.36-2.27,1.61-.67-1.57-.75-3.43-1.22-5.07a34.11,34.11,0,0,1-1.14-4.77c-.08-.6-.46-2-.13-2.63.65-1.19,5.07-2.85,6.45-2.77A70.38,70.38,0,0,1,287.57,164.35Z"/><path class="cls-11" d="M254.47,167.45c-.46-1-2.82-1.54-3.53-.59-.41.55,0,3.19.45,3.08C251.2,171.3,255.28,169.32,254.47,167.45Z"/><path class="cls-3" d="M257.41,174.91a17,17,0,0,0-2-1.6,7.49,7.49,0,0,1-1.1-.54c2.05-1.16,4.63-3.06,4.17-5.73-.24-1.38-1.65-2.17-2.81-2.72a8.36,8.36,0,0,0-5.86-.47c-1.68.47-2.19,1.26-2.22,3a18.71,18.71,0,0,0,.67,4.64c.76,3.15,1.74,6.23,2.72,9.32.56,0,1.63.1,2-.79.64-1.46-.94-3.49-.23-4.83,1.9.72,3.5,4.46,5.6,1.91C259.4,175.87,258.46,175.72,257.41,174.91Zm-6-5c-.43.11-.86-2.53-.45-3.08.71-1,3.07-.46,3.53.59C255.28,169.32,251.2,171.3,251.39,169.94Z"/><path class="cls-3" d="M269,167.24c0-1.19-1.11-2.06-2-2.69a7.18,7.18,0,0,0-4.92-1.18c-1.48.17-2,.78-2.28,2.24a15.53,15.53,0,0,0-.05,4c.21,2.78.64,5.53,1.05,8.28.48.05,1.37.31,1.83-.4.74-1.15-.33-3.09.46-4.13,1.51.87,2.37,4.26,4.5,2.38,1-.9.24-1.15-.54-2a15.12,15.12,0,0,0-1.48-1.62,7,7,0,0,1-.86-.61C266.62,170.84,269.07,169.57,269,167.24Zm-6.42,1.51c-.38,0-.39-2.26,0-2.67.73-.71,2.67,0,2.91,1C266,168.75,262.28,169.89,262.62,168.75Z"/><path class="cls-3" d="M276.93,172a11,11,0,0,0-1.37-1.08,4.82,4.82,0,0,1-.76-.36c1.39-.81,3.14-2.13,2.81-4-.17-.94-1.14-1.47-1.94-1.84a5.72,5.72,0,0,0-4-.27,1.8,1.8,0,0,0-1.5,2.06,13.18,13.18,0,0,0,.5,3.17c.54,2.14,1.24,4.24,1.93,6.35.38,0,1.12.05,1.38-.56.42-1-.67-2.38-.19-3.3,1.3.48,2.43,3,3.84,1.26C278.3,172.66,277.66,172.57,276.93,172Zm-4.15-3.35c-.29.08-.6-1.72-.33-2.1.48-.66,2.1-.34,2.42.38C275.44,168.22,272.66,169.6,272.78,168.67Z"/><path class="cls-3" d="M282.81,153.49c-.33.6.05,2,.13,2.63a34.11,34.11,0,0,0,1.14,4.77c.47,1.64.55,3.5,1.22,5.07,1.13,1.75,2-.67,2.27-1.61a70.38,70.38,0,0,0,1.69-13.63C287.88,150.64,283.46,152.3,282.81,153.49Z"/><path class="cls-3" d="M286.83,168.72l.15.12c-1.92-1.32-4.34,3.82-.17,3.82C289.65,172.65,289,168.74,286.83,168.72Z"/><path class="cls-3" d="M240.92,172.36c-1.37.34-3.25,1.19-2.54,3,.35.88,1.2.62,2.09.6a.83.83,0,0,1,.85.93,3.91,3.91,0,0,1-3.63,3.59c-3.58.23-4.58-5.66-4.17-8.25s2.51-5.82,5.42-4.61c1.28.54,2,1.08,3.47.26,1-.54,2-2.37,1.25-3.34a6.91,6.91,0,0,0-9.84-2.23c-2.46,1.55-3.77,4.44-4.3,7.21-.77,4-1.08,9.75,2.1,12.78,4.65,4.41,12.1,1,13.44-4.76.29-1.24.6-3.83-.38-4.92C243.87,171.75,242,172.1,240.92,172.36Z"/><path class="cls-12" d="M437.13,205c3.74-13.13,3-27.1,2-40.75a53.41,53.41,0,0,0-1.87-12.48c-1.68-5.28-4.92-9.87-8.12-14.37l-12.91-18.14a48.62,48.62,0,0,0-7.33-8.75c-1.47-1.28-3.21-2.56-3.58-4.5l3.46-3.25a106.21,106.21,0,0,1,22.73,24.46c3.63,5.42,6.9,11.31,12,15.28a4.32,4.32,0,0,0,2.08,1,4.25,4.25,0,0,0,2.51-.73c4.9-2.8,8.18-7.75,11.49-12.38a184.1,184.1,0,0,1,17-20.46,10.92,10.92,0,0,1,2.31-2c3.4-2,7.63,0,11,2l-23.45,33.08c-2.65,3.73-5.36,7.61-6.36,12.11-.86,3.92-.36,8,.15,12,1.7,13.23,3.41,26.55,7.25,39.31l-3.27-.4c.69.78,2.1.1,2.37-.92a4.58,4.58,0,0,0-.64-3,40.61,40.61,0,0,0,8.33,6.93c-7.89-.6-16-1.18-23.6.94a9,9,0,0,1-3.69.56,9.78,9.78,0,0,1-2.8-1.08,22.77,22.77,0,0,0-13.52-1.94,19.3,19.3,0,0,0,9.48-7.67"/><path class="cls-13" d="M404.62,75.19a2,2,0,0,1,1.19-.53c.88,0,1.44.94,1.79,1.78,2.61,6.4,2.42,13.62,2.19,20.59,1.41-4.39,4.07-8.2,6.82-11.83.7-.93,2-2.81,3.07-3.14l1.95-1.58c1.12-1.09,4.15-2,5.62-2.43a9.38,9.38,0,0,1,4.53-.51,4.35,4.35,0,0,1,3.43,2.82c.69,2.26-.93,4.54-2.56,6.2A45.57,45.57,0,0,1,413,98.4a42.27,42.27,0,0,1,19.31.09,16.68,16.68,0,0,1,6.36,2.68c2.08,1.58,3.63,4.44,2.68,7a5.53,5.53,0,0,1-4.35,3.24,15.54,15.54,0,0,1-5.55-.38l-3-.57c-.26,0-13.33-4.2-18.75-6.26a31.71,31.71,0,0,1-10.8,28,4.26,4.26,0,0,1-2.47,1c-2.4.12-3.23-2-3.47-3.88-.68-5.39,2.93-9.43,5.81-13.56,2.77-4,5.63-8.23,9.25-11.44-8.1,7.19-15.4,15.92-25.43,20.39-4.31,1.92-10.17.56-10.28-5.18-.1-5.06,6.22-9.34,10-11.47,6.51-3.64,16.89-6.2,23.56-7.4-7.3.29-13.55,1.79-20.45,2l-8.51.23c-1.82.05-3.82,0-5.23-1.17-1.88-1.62-1.8-4.87-.37-6.94s3.83-3.17,6.19-3.84a24,24,0,0,1,7.95-.88,43.73,43.73,0,0,1,5.26,1s5.74,2.32,7.23,2.77c.85.25,6.13,2.5,7.32,2.66,0,0-3.58-6.24-3.89-7.49C400.15,84.2,400.61,78.35,404.62,75.19Z"/><path class="cls-13" d="M480.85,100.72a46,46,0,0,1-4-14.42,12,12,0,0,1,.59-6.11c.84-1.89,2.79-3.4,4.8-3.08,2.63.42,3.92,3.46,4.56,6.1a58.4,58.4,0,0,1,1.53,17.33,21.56,21.56,0,0,1,18.89-11.28,5.13,5.13,0,0,1,3.42,1c1.42,1.29,1.28,3.64.53,5.43-1.57,3.77-5.19,6.34-9,7.48s-7.94,1-11.93.72a46.43,46.43,0,0,1,12.84,4.43,22.41,22.41,0,0,1,9.52,9.63c.91,1.9,1.4,4.39,0,6-1.19,1.36-3.25,1.42-5,1-4.17-1.07-7.44-4.36-10.19-7.74s-5.33-7.12-7.84-10.79c2.43,5.14,6.14,9.54,8.69,14.62,1.27,2.52,2.76,5.13,3.11,8,.24,1.91,0,4.31-1.26,5.83-2.19,2.64-6,.61-7.4-1.79a37.66,37.66,0,0,1-1.66-3.8c-.65-1.45-1.2-3-1.74-4.44a52.79,52.79,0,0,1-2.8-11.65,51.65,51.65,0,0,1-.38-5.28c-2.26,2.4-5.54,3.47-8.71,4.26a84.61,84.61,0,0,1-12.65,2.14,9.66,9.66,0,0,1-5.23-.53c-1.6-.79-2.78-2.76-2.13-4.45a5,5,0,0,1,2.49-2.33c6.77-3.62,15.06-2.15,23.79-.9-7.11-2.51-12.78-2.16-18-4.18-3.35-1.3-7-2.82-9.52-5.43s-3.78-5.34-2.83-8.87A5,5,0,0,1,454.87,85c1.55-1.34,3.86-1.11,5.83-.59,10,2.62,18.13,10.32,24.22,18.9"/><g class="cls-14"><path class="cls-15" d="M463.86,190.33a1.39,1.39,0,0,0-.81-.7,1.67,1.67,0,0,0-1.93.47c-.31.57-.49,1.08-.86,1.8s-.58,1.18-1.15,1.17a1.7,1.7,0,0,1-1.34-1c-.3-.32-1.38-2.22-2-3-.36-.57-.62-.84-.33-.42a3.46,3.46,0,0,0-.5-.61,1.48,1.48,0,0,0-.59-.36l.26.08a1.26,1.26,0,0,0-.89-.17,1.24,1.24,0,0,0-.37.17,2.32,2.32,0,0,0-.85.86,10.76,10.76,0,0,0-.63,1.08c.31-.57-.12.28-.07.22-.08.13-.32.69-.25.49-.33.78-.54,1.54-.75,2l-.09.3a10.55,10.55,0,0,1-.58,1.31l0,.07a5.53,5.53,0,0,1-.61,1,1.18,1.18,0,0,1-.5.41,1,1,0,0,1-.67,0,3,3,0,0,1-1.15-.78c-.28-.33-.34-.44-.41-.53a2,2,0,0,1-.3-.53,5.59,5.59,0,0,1-.38-1.64,6.17,6.17,0,0,0,.37,1.48c-.05-.13.06.16.18.39s.25.41.09.12c-.77-1.22-.55-3.07-.9-4.3a1.49,1.49,0,0,0-.27-.79,1.59,1.59,0,0,0-1.15-.62h0a2.39,2.39,0,0,0-1.57.35A6.72,6.72,0,0,0,441,190.4a6.57,6.57,0,0,0-1.14,2.77,7.23,7.23,0,0,1,1.67-3.31,6.07,6.07,0,0,0-.95,1.49l.2-.34-.15.29c.09-.14-.09.24-.05.2a8.25,8.25,0,0,1,.58-1c-.35.51-.15.16-.06,0s.23-.32.36-.48c-.1.11-.32.4-.07.05a7.56,7.56,0,0,1,.54-.63l-.29.38a4.49,4.49,0,0,1,1.51-1.24l.21,0a2.38,2.38,0,0,1,.63-.14l-.07,0a2.14,2.14,0,0,1,.76,0,3.11,3.11,0,0,1,.5.18,1.17,1.17,0,0,1,.43.58,1.23,1.23,0,0,0-.19-.31,1.59,1.59,0,0,1,.15.29c-.07-.21.12.26.14.36a5.56,5.56,0,0,1,.16,1.07c.07.53.1,1.2.13,1.23a4.87,4.87,0,0,0,1.06,2.85l.32.3a2.58,2.58,0,0,0,1.29.68,1,1,0,0,0,.72-.19,2.21,2.21,0,0,0,.52-.64l0,.08a6.12,6.12,0,0,0,.31-.56,15.32,15.32,0,0,0,.9-2.06c.39-1,.53-1.48.63-1.82a9.21,9.21,0,0,1,.76-1.47l-.15.27.22-.32a6.76,6.76,0,0,1,.41-.59,1.94,1.94,0,0,1,.62-.53,1.31,1.31,0,0,1,.92,0,1.41,1.41,0,0,1,.43.23,3.68,3.68,0,0,1,.67.93v0c.4.56.29.44,1.17,1.82l0-.07c.27.47.42.65.8,1.25a3.54,3.54,0,0,0,.54.74,1.38,1.38,0,0,0,1,.5,1.24,1.24,0,0,0,1.16-.88c.18-.4.34-.78.57-1.27l.35-.72a.64.64,0,0,1,.26-.32l-.08.08a2.12,2.12,0,0,1,.2-.12v0a1.51,1.51,0,0,1,1.19-.2,1.37,1.37,0,0,1,.79.36,1.34,1.34,0,0,0-.6-.36h0a1.87,1.87,0,0,0-1.05,0l.31-.08c-.37.06-.06,0,0,0a2,2,0,0,1,.63.05,1.16,1.16,0,0,1,.46.19c.11.07.28.27.21.21a2.72,2.72,0,0,1,.44,1.17v.07A1.75,1.75,0,0,0,463.86,190.33Z"/><path class="cls-15" d="M461.16,178.34a4.33,4.33,0,0,0-.31-.79,1.52,1.52,0,0,0-.67-.72.88.88,0,0,0-.9,0c-.49.4-.56.93-.8,1.56-.37,1.14-.48,2-.89,3a2.37,2.37,0,0,1-.59,1.15.49.49,0,0,1-.69,0,2,2,0,0,1-.39-.62c-.19-.52-.34-.81-.2-.39a7,7,0,0,0-.47-1.16l.13.19a5.9,5.9,0,0,0-.33-.68l-.2-.26a2.2,2.2,0,0,0-.74-.72,2.71,2.71,0,0,0-1-.41c.55.15-.25,0-.2,0-.12,0-.65,0-.47,0a2.91,2.91,0,0,0-1.65.68,1.81,1.81,0,0,0-.18.21,12.08,12.08,0,0,0-.69,1l0,.05a5.8,5.8,0,0,1-.58.83c-.21.29-.46.61-.73.92a1.4,1.4,0,0,1-.43.41.45.45,0,0,1-.52-.18c-.37-.64-.23-.35-.57-.93-.18-.38-.55-1-.65-1.26.28.52.36.57.64,1.13-.09-.22.51.92.27.42l-1.8-3.32a7,7,0,0,0-.91-1.6v0a1.39,1.39,0,0,0-1.2-.6,1.84,1.84,0,0,0-1,.51c-.29.24-.56.49-.79.72a6.73,6.73,0,0,0-1.41,2.14,7.88,7.88,0,0,1,1.94-2.52,5.63,5.63,0,0,0-1,1.14l.22-.25-.16.22c.1-.1-.11.19-.07.17.2-.26.4-.51.62-.75-.36.38-.14.11-.05,0l.35-.36c-.09.08-.31.3-.06,0a6,6,0,0,1,.52-.47l-.27.3a1.84,1.84,0,0,1,1.38-.68l.15.07a1.39,1.39,0,0,1,.44.25l-.06,0a2.2,2.2,0,0,1,.43.48,2.52,2.52,0,0,0,.3.39c.14.25.27.5.32.61l-.18-.29.14.28c-.09-.19.14.23.18.29.33.64.24.45.43.85s.46.92.5.92c.39.76.77,1.53,1.2,2.27a.75.75,0,0,0,.36.28.53.53,0,0,0,.49,0,1.28,1.28,0,0,0,.27-.22,4.4,4.4,0,0,0,.36-.41c.23-.27.45-.56.74-1l0,.07.29-.46c.45-.6.46-1,1.07-1.49a3.22,3.22,0,0,1,1.4-.63,2.42,2.42,0,0,1,1.32.27,1,1,0,0,0-.24-.08,1.92,1.92,0,0,1,.29.14,2.58,2.58,0,0,1,1,.86c.5.88.45.74.66,1.12s.22.62.31.94v0a3.32,3.32,0,0,0,.29.57,1.3,1.3,0,0,0,.29.34.64.64,0,0,0,.81,0l-.07,0c.41-.29.43-.54.67-1.08a11,11,0,0,0,.53-1.64c.3-1,.33-1.53.67-2.38.2-.51.54-.79.67-.75l-.1,0a.71.71,0,0,1,.2,0l0,0a1,1,0,0,1,.85.53,2.58,2.58,0,0,1,.35.66,3.25,3.25,0,0,0-.22-.56v0A1.51,1.51,0,0,0,460,177a1.15,1.15,0,0,1,.25.12c-.27-.17,0-.05,0,0a2.56,2.56,0,0,1,.36.41,1.79,1.79,0,0,1,.19.38c0,.1.09.3.06.23a3.46,3.46,0,0,0,.37,1l0,0C461.3,179,461.21,178.74,461.16,178.34Z"/><path class="cls-15" d="M459.39,166.05a2.46,2.46,0,0,1-.45.46,2.7,2.7,0,0,1-1.21.42c-.35,0-.65-.33-.92-.82a17.23,17.23,0,0,1-.94-2.58,3.39,3.39,0,0,0-.76-1,1.18,1.18,0,0,0-.85-.19,1.67,1.67,0,0,0-.67.27c-.43.29-.59.52-.29.28a4.91,4.91,0,0,0-.8.74l.11-.17a4.32,4.32,0,0,0-.45.48l-.15.23c-.45.52-.64.86-1.13,1.41.32-.35-.13.19-.07.16s-.38.41-.29.29a4.24,4.24,0,0,1-1.14,1l-.19.13a1.46,1.46,0,0,1-1,.17h-.05a1.66,1.66,0,0,1-.76-.41,5.72,5.72,0,0,1-1.19-1.65,7.24,7.24,0,0,0-.44-.84,8,8,0,0,0-.6-1.06,5.21,5.21,0,0,1,.6.94c-.07-.19.41.82.23.37a9.93,9.93,0,0,0-.85-1.45,2.49,2.49,0,0,0-1.3-.9,1.13,1.13,0,0,0-.62-.06,2.33,2.33,0,0,0-.92.34h0a3.23,3.23,0,0,0-.9.8,9.55,9.55,0,0,0-1.07,1.61,5.14,5.14,0,0,0-.57,1.63h0l.07-.52-.12.5.06,0a5.85,5.85,0,0,1,.87-2.08,5.09,5.09,0,0,0-.53,1.19l.12-.26-.08.22c.06-.1,0,.19,0,.17a6.81,6.81,0,0,1,.34-.78c-.21.4-.1.12-.06,0s.14-.25.21-.38c-.06.08-.19.32-.05,0a4.31,4.31,0,0,1,.32-.52l-.16.32a7.31,7.31,0,0,1,.88-1.17l.15-.09a2.74,2.74,0,0,1,.36-.32l0,0a2.46,2.46,0,0,1,.48-.31c.26-.15.31-.15.36-.19a1.53,1.53,0,0,1,.54-.07,1.26,1.26,0,0,0-.27,0,2.09,2.09,0,0,1,.25,0c-.17,0,.2,0,.26,0,.52.17.38.11.66.33a2.78,2.78,0,0,1,.62.57,13.44,13.44,0,0,1,1,1.92l.15.27a3.85,3.85,0,0,0,1.32,1.67l-.06,0a2.43,2.43,0,0,0,.46.22,1.85,1.85,0,0,0,1.71-.29,3.64,3.64,0,0,0,1-1c.24-.31.57-.67.8-.94l-.13.19.2-.22.73-.94a11,11,0,0,0,.7-.9,4.64,4.64,0,0,1,.68-.51h0a1.33,1.33,0,0,1,.45-.26,1.14,1.14,0,0,1,1,.06l0,0a1.77,1.77,0,0,1,.69.81c.12.22.32,1,.47,1.41a4.24,4.24,0,0,0,1,1.9,1,1,0,0,0,.79.36h-.09l.19,0v0a4,4,0,0,0,.9-.29,2.38,2.38,0,0,0,.51-.44,1.88,1.88,0,0,1-.41.32h0a2.92,2.92,0,0,1-.72.32l.22-.09c-.26.09-.05,0,0,0a1.85,1.85,0,0,0,.68-.42c.07-.06.2-.18.16-.13a2.22,2.22,0,0,0,.49-.76l0,0C459.79,165.59,459.64,165.83,459.39,166.05Z"/><path class="cls-15" d="M460,154.41a1.44,1.44,0,0,1-.61.19,1.61,1.61,0,0,1-1.15-.56,3.05,3.05,0,0,1-.68-1.26c-.15-.51-.23-1-.35-1.41a3.79,3.79,0,0,0-.57-1.38.93.93,0,0,0-.53-.17,1.57,1.57,0,0,0-.77.26A9,9,0,0,0,454,151c-.4.34-.59.55-.28.31-.54.46-.43.31-.87.72l.13-.16c-.15.13-.33.26-.51.44l-.19.22c-.55.46-.8.79-1.38,1.29.38-.32-.16.17-.1.15-.1.07-.45.38-.34.26a5.28,5.28,0,0,1-1.31.94.82.82,0,0,1-.2.12,2.45,2.45,0,0,1-1.06.29l-.05,0a1.74,1.74,0,0,1-.88-.18,3.1,3.1,0,0,1-1.4-1.54c-.25-.63-.19-.34-.41-.91a10.37,10.37,0,0,0-.49-1.18,5.46,5.46,0,0,1,.5,1.06c-.06-.21.35.89.2.41a13.79,13.79,0,0,0-.7-1.61,3.2,3.2,0,0,0-1.15-1.21,1,1,0,0,0-.59-.25,1.49,1.49,0,0,0-1,.23h0a3.31,3.31,0,0,0-.89.88c-.43.57-.85,1.14-1.24,1.6s-.73.94-1,1.33l0,0v-.67l-.06.66v.11l.06-.09c.51-.66,1-1.29,1.4-1.76a13.28,13.28,0,0,0-.82,1.12l.2-.23-.14.2c.09-.09-.1.18-.06.16L440,153c-.31.38-.13.11-.06,0l.28-.37c-.07.08-.25.31-.05,0s.26-.35.39-.5l-.19.31c.32-.47.64-.76,1-1.23l.14-.1q.18-.19.36-.36l0,0a2.11,2.11,0,0,1,.48-.32c.27-.11.32-.11.37-.14a1.16,1.16,0,0,1,.55.07,1.26,1.26,0,0,0-.27,0,2.1,2.1,0,0,1,.24.06c-.16-.05.2.05.26.09a1.94,1.94,0,0,1,.6.51,8.1,8.1,0,0,1,.55.73c.34.64.53,1.44.85,2.12l.16.29a3.16,3.16,0,0,0,.63.92,2.27,2.27,0,0,0,1,.59h-.08a1.88,1.88,0,0,0,.53.07,3,3,0,0,0,1.72-.46,4.2,4.2,0,0,0,1.2-.94c.29-.29.69-.62,1-.86l-.16.17.23-.2.9-.85a6.1,6.1,0,0,0,.84-.86l.72-.54h0a7.63,7.63,0,0,1,1.33-1h-.06a4.14,4.14,0,0,1,.46-.24.72.72,0,0,1,.58,0c.28.09.5.92.65,1.36a8.53,8.53,0,0,0,.67,2.14,4.54,4.54,0,0,0,.52.78l-.06-.07.1.17h0a1.87,1.87,0,0,0,.87.45,1.6,1.6,0,0,0,.69-.12,1.31,1.31,0,0,1-.53.07h0a1.39,1.39,0,0,1-.78-.23l.22.1c-.25-.13,0,0,0,0a1.19,1.19,0,0,0,.82,0c.09,0,.27-.06.21,0a1.28,1.28,0,0,0,.46-.29.58.58,0,0,0,.2-.31l0,0A1.48,1.48,0,0,1,460,154.41Z"/><path class="cls-15" d="M465.89,143.83v-.58c.08-.93,0-1.4.05-2.36,0-.2,0-.4,0-.59a3,3,0,0,0,0-.3.41.41,0,0,0-.21-.33.79.79,0,0,0-.65.08l-.5.3c-.18.22-1.37.81-1.86,1.18s-.51.37-.23.22c-.48.3-.38.19-.77.45l.11-.11a4.57,4.57,0,0,0-.45.26l-.18.14a2.21,2.21,0,0,1-.65.21.64.64,0,0,1-.6-.28c.22.3-.13-.12-.11-.09s-.14-.42-.1-.31a3.63,3.63,0,0,1-.09-1.26v-.18a5.81,5.81,0,0,1,.09-.87v0a5.05,5.05,0,0,1,.09-.72,10.51,10.51,0,0,0,.1-1.69,3,3,0,0,0-.08-.77,3.24,3.24,0,0,0-.22-1,2.16,2.16,0,0,1,.26.87c0-.18.08.74.08.35a3.24,3.24,0,0,0-.34-1.33.72.72,0,0,0-.58-.34,1.15,1.15,0,0,0-.6.18c0-.11-.83.53-1.07.77h0c-.22.19-.39.33-.73.66l-1.13,1.12c-.26.23-.49.58-.61.64l-.12-.68a5.74,5.74,0,0,0,.05.68c0,.42.2,0,.32-.13a5.54,5.54,0,0,1,.75-.77,4.18,4.18,0,0,0-.4.43l-.35.44.21-.22-.16.2c.11-.1-.15.22-.12.22.31-.36.42-.49.59-.66-.27.26-.12.07-.06,0l.26-.26c-.07.06-.23.21-.05,0s.23-.25.35-.35l-.17.23c.28-.34.58-.52.88-.84l.13-.07.31-.28,0,.05.39-.32a1.36,1.36,0,0,0,.25-.26,1.87,1.87,0,0,1,.39-.29l-.18.15.18-.12c-.12.08.14-.11.18-.14.41-.18.3-.13.55-.14s.43.26.45.26a4,4,0,0,1,.25,1.67v.24c-.05.66-.07,1-.15,1.67v-.06l0,.38c-.08.53-.07.74-.12,1.37a2.48,2.48,0,0,0,.16,1.19,1.13,1.13,0,0,0,.68.83.86.86,0,0,1-.21-.07,1.23,1.23,0,0,0,.26.12,1.41,1.41,0,0,0,1-.26,4.13,4.13,0,0,0,.77-.55l.62-.34h0a9.86,9.86,0,0,1,1.11-.7h-.05c.3-.15.4-.26.77-.48.18-.07.73-.52,1.07-.45.16.06.15.24.14.38v.43a7.82,7.82,0,0,1,0,.84,4,4,0,0,1,0,.74v-.07l-.05.14,0,0c0,.23,0,.57-.07.77l0,.54c0-.13,0-.28,0-.42h0c0-.14,0-.48,0-.65v.2c0-.23,0,0,0,0a5.19,5.19,0,0,0,0,.67c0,.08,0,.22,0,.17a7.39,7.39,0,0,0,0,.76v0A2.18,2.18,0,0,0,465.89,143.83Z"/><path class="cls-15" d="M473.43,133.15h0l0,.17h.05l.08,0a.27.27,0,0,0,.09-.11.34.34,0,0,0,0-.14v-.43c.07-.86,0-1.31,0-2.2a2.6,2.6,0,0,0-.13-1.12.77.77,0,0,0-.42-.43,1,1,0,0,0-.61,0,9.67,9.67,0,0,0-1.92.84c-.32.21-.48.35-.22.21-.45.28-.36.17-.72.42l.11-.11c-.13.07-.28.14-.44.24l-.16.14c-.47.23-.7.45-1.22.66.35-.12-.14.08-.1.08s-.41.09-.3.06a.83.83,0,0,1-1-.38.64.64,0,0,1-.08-.14,1.43,1.43,0,0,1-.07-.79l0,0a2.94,2.94,0,0,1,.12-.67c.12-.46.21-1.06.29-1.55a4.22,4.22,0,0,0,.11-.72c.08-.28.16-.77.22-.93-.08.39,0,.45-.14.85,0-.15-.14.7,0,.34s.16-.83.25-1.26a1.65,1.65,0,0,0-.07-1.21s-.07-.24-.37-.3a1.3,1.3,0,0,0-.74.15h0a6.25,6.25,0,0,0-.84.39c-.47.24-.9.52-1.29.75a5.9,5.9,0,0,0-1.28,1.14,8.12,8.12,0,0,1,1.7-1.29,4.59,4.59,0,0,0-.81.61l.19-.12-.14.12c.09,0-.09.11-.06.11s.35-.27.53-.39c-.3.19-.12,0-.05,0l.28-.18c-.07,0-.24.15,0,0a4.66,4.66,0,0,1,.4-.25l-.21.18a8.72,8.72,0,0,1,1-.54l.13,0,.35-.16,0,0,.43-.17c.21-.08.24-.09.27-.12a.44.44,0,0,1,.33.06.4.4,0,0,0-.15,0l.13,0c-.08,0,.1,0,.12.09a.69.69,0,0,1,.11.49,4.9,4.9,0,0,1-.07.65c-.14.55-.27,1.13-.38,1.66l0,.23c-.16.62-.2.9-.33,1.55v0c0,.12,0,.24,0,.37a2.28,2.28,0,0,0,0,.63,1.61,1.61,0,0,0,.22.71.92.92,0,0,0,1.13.35,4,4,0,0,0,.92-.34l-.15.1.21-.09c.34-.2.37-.19.8-.47a3.4,3.4,0,0,0,.71-.52l.59-.31h0a4.41,4.41,0,0,1,1.08-.57h-.05c.3-.08.41-.18.8-.28a1.38,1.38,0,0,1,.5,0,.66.66,0,0,1,.45.34,4.77,4.77,0,0,1,.14,1.62,3.92,3.92,0,0,1,0,.69v-.06l-.05.13,0,0c0,.22,0,.53-.06.72l0,.51c0-.13,0-.26,0-.4h0c0-.13,0-.45,0-.61v.19c0-.21,0,0,0,0a4.34,4.34,0,0,0,0,.63c0,.08,0,.22,0,.16s0,.16-.11.2,0,0,0,0l0,0h0l0,0,0,0,.08.1s0,.07,0,.14-.1,0-.13-.05a.37.37,0,0,0,0-.1v0a.46.46,0,0,0,0,.09s-.05.09.1.21a.14.14,0,0,0,.16,0,.17.17,0,0,0,.06-.11.25.25,0,0,0,0-.1.5.5,0,0,0-.05-.13l-.06-.1,0-.05v0h0l-.07.06C473.46,133.12,473.38,133.1,473.43,133.15Z"/><path class="cls-15" d="M480.15,123.44a2.9,2.9,0,0,0,0-.5,3.64,3.64,0,0,0,0-1l0-.47a1.43,1.43,0,0,0-.14-.58.58.58,0,0,0-.25-.24.35.35,0,0,0-.36,0L479,121c-.25.18-.49.35-.78.53-.12.21-1.1.75-1.48,1.09s-.4.34-.18.21a3.11,3.11,0,0,1-.64.34l.1-.08a1.82,1.82,0,0,1-.39.11l-.18,0a.94.94,0,0,1-.81-.72c.09.31-.08-.12-.08-.09s-.07-.37,0-.27a3.05,3.05,0,0,1-.06-1.05v-.16a3.19,3.19,0,0,1,.11-.71v0a3.63,3.63,0,0,1,.14-.59c.11-.41.22-.94.32-1.37a2.65,2.65,0,0,0,.12-.64c.07-.24.14-.67.17-.82a4.18,4.18,0,0,1-.1.76c.05-.13-.13.62,0,.3s.17-.74.2-1.13a1.08,1.08,0,0,0-.36-1s-.12-.16-.38-.17a1.36,1.36,0,0,0-.67.14h0a4.49,4.49,0,0,0-.72.39c-.41.23-.81.46-1.17.63a10,10,0,0,0-1.31.79c.65-.31,1.2-.7,1.7-.88a6.13,6.13,0,0,0-.78.47l.18-.09-.13.09c.08,0-.1.1-.07.1l.51-.29c-.28.14-.11,0,0,0l.27-.14c-.06,0-.23.11,0,0s.24-.14.37-.2l-.19.15c.31-.21.59-.28.9-.49l.12,0,.3-.16,0,0a1.89,1.89,0,0,1,.36-.16l.25-.1a.66.66,0,0,1,.33,0,.85.85,0,0,0-.16,0l.14,0c-.09,0,.11,0,.14,0,.23.21.16.16.23.36a3.29,3.29,0,0,1,.06.54,11.84,11.84,0,0,1-.33,1.43l0,.21c-.17.54-.22.79-.36,1.37v0l-.05.32a6.3,6.3,0,0,0-.15,1.15,2.14,2.14,0,0,0,.12,1,2.37,2.37,0,0,0,.31.83,1.71,1.71,0,0,1-.11-.14,2,2,0,0,0,.11.2,1,1,0,0,0,.32.27.82.82,0,0,0,.5.12,1,1,0,0,0,.55-.15,1.39,1.39,0,0,1,.21-.17c.19-.09.36-.2.53-.3h0a6.14,6.14,0,0,1,.89-.64h-.05c.24-.14.32-.24.61-.44a8.72,8.72,0,0,0,.85-.58,3.33,3.33,0,0,0,.34-.24c.1-.08.19-.13.28-.07a.74.74,0,0,1,.29.61c0,.33.05.56,0,.62V122l0,.12,0,0a3.31,3.31,0,0,1-.06.64l0,.45,0-.36v0l0-.54v.16c0-.19,0,0,0,0,0,.38,0,.28,0,.57,0,.06,0,.19,0,.14,0,.17-.1.61-.08.63v0A1,1,0,0,0,480.15,123.44Z"/><path class="cls-15" d="M438.06,136.75c-.18,0-.51-.11-.58,0a3.51,3.51,0,0,0,0,.92,5,5,0,0,1,.06.74c0,.53.07.9.07,1.42a1.83,1.83,0,0,1,.07.6,2.39,2.39,0,0,1,0,.7c-.1.17-.25.23-.07.17-.3.13-.24.06-.5.05l.1,0a1.18,1.18,0,0,1-.27-.11l-.14-.05c-.24-.23-.43-.33-.7-.59.17.18-.1-.06-.09,0s-.21-.2-.14-.16a4.4,4.4,0,0,1-.6-.53l-.1-.06a3.64,3.64,0,0,1-.4-.37h0a3.18,3.18,0,0,1-.33-.3,2.75,2.75,0,0,0-.88-.58c-.3-.12-.19,0-.46,0a.94.94,0,0,0-.52.25c.17-.17.19-.24.46-.3-.12,0,.47,0,.22-.05a.93.93,0,0,0-.77.36,1.49,1.49,0,0,0-.32.75c-.07-.05-.13.6-.09.82h0a2.17,2.17,0,0,0,.08.61,7.51,7.51,0,0,0,.27,1,1.86,1.86,0,0,0,.29.56l0,0,0,0a.38.38,0,0,0,.06-.49.38.38,0,0,1-.11.43h.05a2.32,2.32,0,0,1-.36-.84,2,2,0,0,0,.3.6l-.05-.14.06.1c0-.06.08.07.08,0a3.39,3.39,0,0,1-.18-.39c.07.22,0,.09,0,0l-.08-.2c0,.05.06.18,0,0a1.23,1.23,0,0,1-.09-.29l.09.15a3.59,3.59,0,0,1-.17-.72l0-.09,0-.25v-.27a.68.68,0,0,0,0-.22,1.75,1.75,0,0,1,0-.29v.14l0-.12c0,.08,0-.11,0-.15a1.1,1.1,0,0,1,.14-.36c.05-.18.21-.33.19-.35a.71.71,0,0,1,.81-.16l.13,0a9,9,0,0,1,.8.61h0l.19.14c.24.23.37.28.64.55a2.25,2.25,0,0,0,.59.44,3.94,3.94,0,0,1,.47.43l-.1-.07.11.11a3.46,3.46,0,0,0,.49.39c.44.27.43.13.63.12a.61.61,0,0,0,.46-.19h0c.12-.28.12-.24.09-.86l0,0a4.21,4.21,0,0,0,0-.57,5.31,5.31,0,0,0,0-.76c0-.47-.08-.7-.1-1.1,0-.25-.05-.42,0-.47v.05l0-.09h0a2.12,2.12,0,0,1,0-.45s-.06-.14,0-.13h.14l-.13,0h-.07s0,0,0,.06h0c0,.09,0,.29,0,.4l0-.12c0,.14,0,0,0,0a1.26,1.26,0,0,0,0-.26v-.09s.06,0,.12,0,.17,0,.13,0a2.93,2.93,0,0,1,.47.18l0,0A.61.61,0,0,0,438.06,136.75Z"/><path class="cls-15" d="M423.88,117.78c0,.07,0,.14,0,.2-.07.32,0,.5-.08.82a4,4,0,0,1-.24.77c.06.12-.23.51-.3.71s-.09.2,0,.12c-.12.16-.12.09-.23.2l0,0-.15.07-.06.06c-.18,0-.28.12-.49.1.14,0-.07,0-.05,0s-.16,0-.12,0c-.18,0-.36,0-.45-.08h-.07a1,1,0,0,1-.3-.09l0,0-.26-.06a1.26,1.26,0,0,0-.61,0c-.18,0-.1.05-.24.13s-.2.17-.25.21.06-.17.2-.25c-.07,0,.24-.12.1-.09a.81.81,0,0,0-.46.81c-.05,0-.05.35,0,.47h0a1.51,1.51,0,0,0,0,.36c0,.2,0,.4,0,.58a1.38,1.38,0,0,0,.14.64,3,3,0,0,1-.05-.82.91.91,0,0,0,.07.39V123l0,.07s0,0,.06,0l0-.25c0,.13,0,0,0,0v-.13s0,.11,0,0a1.21,1.21,0,0,1,0-.19l0,.11c0-.16,0-.28,0-.44l0,0v-.31c0-.1,0-.11,0-.13a.87.87,0,0,1,0-.18l0,.09v-.08c0,.06,0-.07,0-.08,0-.17,0-.13.05-.22s.07-.19.05-.21a.57.57,0,0,1,.39-.22l.08,0c.2,0,.31,0,.55,0h.11c.18.06.26,0,.48.12a.75.75,0,0,0,.45,0c.12,0,.27,0,.38,0l-.07,0h.1a1.12,1.12,0,0,0,.37-.12c.28-.12.2-.17.27-.26a1.81,1.81,0,0,0,.21-.18h0c0-.16.05-.11.21-.44h0c.08-.1.06-.16.12-.3a1.27,1.27,0,0,0,.16-.42,2.53,2.53,0,0,0,.11-.63c.05-.14,0-.24.06-.26v0l.05,0h0a1.91,1.91,0,0,1,.07-.28l-.05-.2a.45.45,0,0,1,0,.16h0a.91.91,0,0,1,0,.23v-.07c0,.08,0,0,0,0s0-.12,0-.24,0-.08,0-.06,0-.27,0-.27v0A.55.55,0,0,0,423.88,117.78Z"/><path class="cls-15" d="M418.59,112.28v.22a7.13,7.13,0,0,1-.24.84,2.75,2.75,0,0,1-.43.72.47.47,0,0,1-.22.28,1.43,1.43,0,0,1-.37.16c-.13,0-.23,0-.11.06-.21,0-.15-.07-.31-.11H417l-.16-.1-.09,0c-.15-.14-.28-.17-.43-.35.09.12-.06,0-.07,0s-.11-.14-.07-.11c-.14-.15-.31-.23-.38-.34l-.07,0a1.82,1.82,0,0,0-.31-.16h0a.48.48,0,0,0-.29.09.88.88,0,0,0-.11.65c0,.21,0,.12,0,.31a2.3,2.3,0,0,1,0,.39c0-.17-.05-.19,0-.36,0,.06,0-.29,0-.14,0,.33,0,.74,0,1-.05,0,0,.37,0,.51h0a2,2,0,0,0,0,.38,4.55,4.55,0,0,1,0,.61.76.76,0,0,0,.08.42c.07.13.22.17.26.09-.16.06-.23-.16-.25-.28a1.13,1.13,0,0,1,0-.41,1.45,1.45,0,0,0,.07.41V117l0,.07s0,0,.05,0l0-.26c0,.15,0,.06-.05,0v-.15s0,.12,0,0a1.11,1.11,0,0,1,0-.19l0,.11c0-.17,0-.31,0-.48l0,0v-.16l0,0v-.2a.28.28,0,0,0,0-.14,1.49,1.49,0,0,1,0-.19l0,.1v-.09c0,.06,0-.07,0-.09a.83.83,0,0,1,0-.26c0-.13,0-.28,0-.29,0-.49,0-.56,0-.69V114c0-.24,0-.38.12-.45h0s0,0,0,0a.62.62,0,0,1,.36.18,1,1,0,0,0,.36.25,3.7,3.7,0,0,1,.28.28l-.07,0,.06.08a1.66,1.66,0,0,0,.33.24c.26.17.26.07.38.1a.89.89,0,0,0,.29.08h0c.17-.07.16,0,.51-.19h0c.13-.07.14-.14.25-.27a1.27,1.27,0,0,0,.28-.39,2.55,2.55,0,0,0,.26-.63c.08-.14.06-.25.12-.27v0l.06,0,0,0a2.33,2.33,0,0,1,.11-.28l0-.22a.45.45,0,0,1,0,.16h0a1.05,1.05,0,0,1-.06.24v-.07c0,.08,0,0,0,0s0-.13,0-.26,0-.08,0-.06.06-.28,0-.29h0A.53.53,0,0,0,418.59,112.28Z"/><path class="cls-15" d="M485.27,116.6c0-.08,0-.16,0-.22a1.47,1.47,0,0,0,0-.44c-.05-.12,0-.3-.21-.53a.79.79,0,0,0-.52-.08l-.44.08c-.08.12-.58.15-.77.16s-.22,0-.12,0c-.19-.07-.12-.09-.25-.18h.06s-.05-.09-.09-.15l-.06-.05a2.74,2.74,0,0,1-.13-.53c0,.15,0-.06,0,0s0-.18,0-.13a1.52,1.52,0,0,1,0-.48V114a1.19,1.19,0,0,1,0-.33l0,0a1.18,1.18,0,0,1,0-.27,2.75,2.75,0,0,0,0-.64c0-.2,0-.12-.05-.29s0-.31,0-.38a2.84,2.84,0,0,1,.08.34c0-.07,0,.28,0,.13a2.66,2.66,0,0,0-.23-1c.06,0-.14-.35-.25-.44h0a.83.83,0,0,0-.29-.25,1.63,1.63,0,0,0-.57-.23.5.5,0,0,0-.41.08c-.12.09-.11.25,0,.26-.1-.12.09-.26.21-.26a.46.46,0,0,1,.37.06.47.47,0,0,0-.37,0h.08l-.06,0s-.05,0,0,.06a.75.75,0,0,1,.21,0c-.11,0,0,0,0,0l.12,0s-.1,0,0,0a1.15,1.15,0,0,1,.17.06h-.11c.16,0,.23.14.36.2v.06l.11.09h0a.64.64,0,0,1,.1.13c.07.06.09.07.11.07a.44.44,0,0,1,.08.15l-.06-.06,0,.07s0,0,.06.06a.66.66,0,0,1,.06.22c0,.11,0,.25.07.25,0,.21,0,.44,0,.65v.09c0,.25,0,.37,0,.63v.13c0,.2,0,.28,0,.52a.82.82,0,0,0,.06.46c0,.12,0,.28,0,.39l0-.07v.1a1.71,1.71,0,0,0,.13.38c.15.3.21.2.31.27a.74.74,0,0,0,.26.15h0a4.19,4.19,0,0,0,.52,0l0,0c.13,0,.17-.05.33-.09a3.33,3.33,0,0,0,.45-.08c.26,0,.48-.08.55.21s0,.25,0,.28v0l0,.06h0a1,1,0,0,1,0,.3l.07.2v-.16h0a1,1,0,0,1,0-.24v.07c0-.08,0,0,0,0a.82.82,0,0,0,0,.25s0,.09,0,.07,0,.28,0,.29h0A.48.48,0,0,0,485.27,116.6Z"/></g><g class="cls-16"><path class="cls-17" d="M404.32,78.91a7.87,7.87,0,0,0-.11,1.38c-.22,2.18.21,3.25.57,5.39.42,1.9.82,3.2,1.2,5,.38.53.82,3.5,1.3,4.8.25.89.46,1.35.33.66.31,1.23.13.94.42,2l-.16-.33a9.89,9.89,0,0,0,.24,1.18c.06.14.14.35.19.43s.06.35.1.52V100l-.05,0-.1,0-.22-.08-1.48-.55c.83.35-.41-.09-.33,0-.19-.1-1-.35-.71-.29-1.11-.35-2.2-.42-2.82-.66l-.43,0c-.73-.07-1.29-.22-1.95-.33l-.1,0a12.89,12.89,0,0,1-1.62-.23c-1.16-.16-2.62-.21-3.82-.27a10.59,10.59,0,0,0-1.76,0c-.68-.09-1.87-.12-2.28-.21.95.06,1.09,0,2.09.05-.38-.07,1.7.1.81,0-1.93-.07-4.31-.34-6.09-.35a17.15,17.15,0,0,0-3-.24l-.05,0c-.66-.06-1.16-.1-2.22-.12-1.27-.06-2.53-.07-3.6-.07a9.45,9.45,0,0,0-2.4.32,7.88,7.88,0,0,0-1.62.64,12.07,12.07,0,0,1,5.06-.73,8.69,8.69,0,0,0-2.41.25l.53,0-.43.08c.23,0-.33.13-.26.17.51-.08,1-.14,1.55-.17-.84,0-.29-.07,0-.13l.81,0c-.19,0-.69,0-.1-.06a10.72,10.72,0,0,1,1.13,0l-.65.09c1-.08,1.75.15,2.76.13l.3.11.95.05-.11,0,1.15.09a2.25,2.25,0,0,0,.82,0c.48,0,.94,0,1.13.07l-.56,0,.51.05c-.35,0,.43,0,.55,0a11.7,11.7,0,0,1,1.53.16,14.09,14.09,0,0,0,1.69.07l4.06.39h.57c1.52.21,2.21.21,3.78.39h-.12l.87,0c1.17.2,1.65.15,3,.46a17.31,17.31,0,0,0,2.6.45,12.14,12.14,0,0,1,2.13.75l-.41-.11.53.25c.65.28,1,.45,1.44.65l.17.07c.05,0,0-.1,0-.14s-.06-.27-.1-.42-.17-.65-.31-1.17a7.36,7.36,0,0,0-.69-2l-.28-1.58v0a17.15,17.15,0,0,1-.77-2.87l0,.12a18.33,18.33,0,0,0-.51-2c-.12-.46-.35-1.9-.64-2.69-.33-1.68-.73-2.43-1-3.88a6.61,6.61,0,0,1-.17-1.67v.16l.09-.33-.08,0a7,7,0,0,1,.06-1.73c0-.4,0-.81,0-1.22,0,.3-.08.62-.11,1l0,0c0,.32,0,1.09,0,1.46l0-.44c0,.51-.06.08-.07-.06,0-1,0-.75,0-1.54,0-.17.09-.51.09-.38,0-.47.43-1.63.38-1.69l0-.08A3.06,3.06,0,0,0,404.32,78.91Z"/><path class="cls-17" d="M436.71,105.86a11.87,11.87,0,0,0-1.16-.6,30.82,30.82,0,0,0-4.74-2.25c-1.74-.74-3-1.1-4.77-1.67-.62.06-3.42-.92-4.79-.94-.9-.11-1.39-.06-.72.06-1.23-.14-.9-.23-1.94-.28l.36-.05c-.34,0-.72-.12-1.17-.15l-.51,0a29.67,29.67,0,0,0-3.29,0c.88.06-.4,0-.3.12-.2,0-1,0-.74,0a13.67,13.67,0,0,0-1.57.14c-.2,0-.41.06-.58.07a1.61,1.61,0,0,1-.22,0s.09-.13.13-.18l.12-.26a6.88,6.88,0,0,1,.48-.78l.56-.76v-.1a8.11,8.11,0,0,1,.92-1.3c.57-.84,1.42-2.06,2.12-3.07a16.12,16.12,0,0,0,1-1.41c.44-.5,1.16-1.42,1.47-1.69-.6.72-.6.88-1.24,1.62.27-.26-1,1.31-.42.68,1.1-1.54,2.73-3.22,3.86-4.52a22.38,22.38,0,0,0,2.11-2h.05c.49-.44.84-.76,1.59-1.48a28,28,0,0,1,2.7-2.24c1.25-.9,2.65-2.09,3.14-2.54-1.61,1-2.88,2.25-4.1,3a23.81,23.81,0,0,0,1.84-1.56l-.45.29.33-.28c-.2.1.23-.28.15-.28-.42.32-.84.64-1.24,1,.68-.5.28-.11.12.08l-.64.5c.16-.1.56-.4.11,0-.26.2-.57.5-.87.71l.43-.49c-.7.7-1.4,1-2.08,1.76l-.29.13c-.24.21-.46.43-.69.64l.05-.09-.82.76a2,2,0,0,0-.51.63c-.33.33-.64.66-.79.78l.34-.43-.37.35c.26-.24-.27.32-.33.43-.79.8-.56.57-1.08,1s-1.12,1.18-1.09,1.26c-.91,1-1.83,2.06-2.61,3.06l-.31.47a33.23,33.23,0,0,0-2.19,3l.05-.12-.43.74c-.35.48-.56.82-.79,1.19l-.41.69-.84,1.28-.07.11s.06,0,.09,0l.22,0,.43,0,.78-.08.55-.06.32,0a6.59,6.59,0,0,0,.91-.18,15,15,0,0,1,2.22,0l-.41,0,.53,0c.91,0,.95,0,2.14,0a7.11,7.11,0,0,0,2.07,0l1.53.31,0,0a13.15,13.15,0,0,1,2.84.49l-.08-.09c.7.23,1,.21,1.94.46.45.1,1.77.64,2.57.82,1.54.62,2.36.74,3.65,1.34.76.4,1.37.57,1.46.75l-.14-.07.23.25.07-.06a9.16,9.16,0,0,1,1.45.89l1.11.47c-.26-.14-.54-.31-.82-.48l0,0-1.24-.71.39.18c-.43-.25,0-.09.09,0a12.5,12.5,0,0,0,1.32.69c.14.09.42.27.3.23a12.38,12.38,0,0,0,1.43.87l.07.06A3.75,3.75,0,0,0,436.71,105.86Z"/><path class="cls-17" d="M378.53,120.25c.36-.46.72-.86,1-1.22s.85-.82,1.21-1.18l1.05-1a25.38,25.38,0,0,1,2.41-2.16,52.92,52.92,0,0,1,5-3.64c.45-.64,3.72-2.27,5.09-3.21,1-.56,1.45-.94.68-.56,1.36-.75,1-.48,2.18-1.11l-.35.28c.39-.18.82-.36,1.31-.63l.52-.36c1.42-.61,2.12-1.14,3.66-1.81-1,.42.42-.26.28-.27.25-.08,1.17-.49.87-.32a34.38,34.38,0,0,1,3.19-1.47l.45-.25a20.56,20.56,0,0,1,2-.89l.14-.11.11-.06c-.09.43-.3,1.23-.45,1.67-.37,1.36-.71,3.1-1.05,4.52s-.13.82-.47,2.09c-.25.8-.62,2.2-.84,2.66.34-1.11.28-1.29.64-2.46-.16.44.53-2,.17-1-.53,2.29-1.5,5-2.17,7.09-.05-.19-1,2.46-1.43,3.33l-.05,0-1.15,2.45a26.71,26.71,0,0,1-2.22,3.75l-1.68,2.39c-.54.73-1,1.36-1.24,1.71a52.06,52.06,0,0,0,3.82-5c-.9,1.37-.92,1.49-1.6,2.55.14-.17.3-.34.43-.51-.09.15-.2.3-.3.45.2-.2-.19.4-.11.36.41-.52.76-1.07,1.12-1.62-.61.86-.27.25-.14,0s.39-.56.57-.85c-.14.2-.5.71-.12.07.21-.34.46-.82.72-1.2l-.33.75c.58-1.1,1.18-1.84,1.68-3l.26-.29.5-1.06,0,.13c.21-.42.39-.85.59-1.28a3.18,3.18,0,0,0,.31-1c.21-.54.4-1.07.51-1.28l-.19.65.25-.58c-.18.39.16-.49.18-.65.5-1.31.35-.93.7-1.74a18.28,18.28,0,0,0,.61-2c.54-1.56,1.05-3.26,1.46-4.77l.14-.68c.53-1.79.67-2.63,1.13-4.51v.15l.05-.26.09-.44L410,100l.17-.63-1.31.59-.88.42c-.45.22-.93.45-1.65.74a15.37,15.37,0,0,0-2.87,1.5c-.78.42-1.81.84-2.53,1.18l.45-.26-.61.25c-1,.51-1.09.52-2.4,1.22a10.38,10.38,0,0,0-2.22,1.36l-1.76.84h.05c-.94.67-.75.47-3.1,1.87h.14a23.54,23.54,0,0,0-2.1,1.35,25.82,25.82,0,0,0-2.8,1.88,38.2,38.2,0,0,0-3.75,3.09c-.87.63-1.32,1.27-1.56,1.31l.14-.13-.37.19,0,.09c-.5.4-1.14,1.08-1.58,1.41s-.64.77-.94,1.18c.23-.29.54-.56.82-.85h0c.27-.27.91-1,1.27-1.25-.13.13-.25.26-.37.4.45-.43.11,0,0,.1a16.79,16.79,0,0,0-1.26,1.35c-.16.14-.43.44-.35.31-.36.43-1.38,1.49-1.36,1.58l-.08.07A5.46,5.46,0,0,0,378.53,120.25Z"/><path class="cls-17" d="M480.39,81.32c.16.48.31.92.46,1.3.49,2.11,1,3.1,1.56,5.28.51,1.93.9,3.29,1.27,5.17.38.56.71,3.65,1.07,5,.18.93.35,1.43.28.71.19,1.3,0,1,.22,2.07l-.13-.36c0,.36,0,.76.09,1.23l.14.53c0,.44,0,.83.07,1.17s.06.47.09.76a4.73,4.73,0,0,1,0,.73l-.05-.09.05.11s0-.06,0,0a.65.65,0,0,1,0,.2c-.06-.1-.17-.26-.12-.12-.08-.17-.24-.49-.33-.65s-.09-.17,0-.11c-.13-.2-.25-.38-.38-.56l-.52-.64a9.61,9.61,0,0,1-.83-1l-.34-.29c-.56-.51-1-1-1.49-1.42l-.11,0c-.36-.29-1-.79-1.34-1a19.56,19.56,0,0,0-3.48-1.92,9.77,9.77,0,0,0-1.7-.67c-.63-.32-1.8-.72-2.18-.93a21,21,0,0,1,2.05.72c-.35-.21,1.62.69.8.24a61.52,61.52,0,0,0-5.94-2.17,17.74,17.74,0,0,0-2.92-1l0-.05c-.65-.24-1.13-.41-2.19-.74a26.89,26.89,0,0,1-3.45-1.39c-1.48-.72-3.24-1.54-3.89-1.83,1.68,1.13,3.48,1.75,4.78,2.49-1.27-.57-1.38-.57-2.38-1l.5.28-.43-.17c.19.14-.38-.09-.33,0,.5.25,1,.48,1.53.71-.81-.41-.25-.21,0-.14l.79.35c-.17-.1-.66-.32-.07-.1.32.14.76.28,1.11.45l-.68-.16c1,.33,1.69.77,2.71,1l.27.2.95.32h-.12l1.12.39a2.74,2.74,0,0,0,.84.18c.47.15.93.29,1.11.37l-.56-.12.5.18c-.34-.13.43.11.56.13a13.63,13.63,0,0,1,1.48.56c.74.22,1.59.62,1.66.56,1.29.53,2.65,1.12,3.82,1.72l.54.22c1.34.8,2,1.09,3.32,2l-.12,0,.75.48a17.3,17.3,0,0,1,2.28,2.1l1.11,1.32c.11.1.35.46.49.64a4.42,4.42,0,0,0,.38.46l.13.19a2.79,2.79,0,0,1,.54.49c.08-.18.17-.4.25-.56a2,2,0,0,1-.08.29,1.21,1.21,0,0,1,.16-.16V105c-.05-.81-.08-1.2-.11-1.67,0-.29,0-.63-.12-1.26a6.66,6.66,0,0,0-.44-2.18c0-.56-.08-1.11-.14-1.66v0a27,27,0,0,1-.59-3l-.05.12a17.29,17.29,0,0,0-.45-2.08,23.93,23.93,0,0,0-.62-2.81c-.36-1.74-.78-2.52-1.16-4a12,12,0,0,1-.42-1.69l0,.16v-.36H482a14.84,14.84,0,0,1-.41-1.77l-.5-1.18c.1.29.19.63.28,1v0c.1.31.33,1.08.41,1.46l-.15-.43c.12.51,0,.09-.09,0a12.27,12.27,0,0,0-.49-1.51c0-.18-.13-.51-.07-.39a12.29,12.29,0,0,0-.53-1.7v-.1A4,4,0,0,0,480.39,81.32Z"/><path class="cls-17" d="M508,119.9a9.81,9.81,0,0,0-.73-1,25.4,25.4,0,0,0-3.13-3.79,43.57,43.57,0,0,0-3.47-3.24c-.58-.15-2.63-2-3.85-2.5-.73-.42-1.2-.52-.64-.19-1-.54-.72-.5-1.61-.9l.33.07a6.8,6.8,0,0,0-1-.51l-.46-.13a23.81,23.81,0,0,0-2.89-1.08c.76.32-.37-.07-.3,0-.17-.1-.9-.3-.65-.26a14.35,14.35,0,0,0-1.45-.35,3.55,3.55,0,0,1-1-.24l-.18,0c-.05,0-.18,0-.11,0a9.23,9.23,0,0,1,1.24-1.08l0-.09a7.55,7.55,0,0,1,1.18-.92c.85-.63,1.88-1.48,2.78-2.12s.47-.4,1.29-1c.55-.31,1.45-.93,1.81-1.07-.74.46-.78.62-1.58,1.08.32-.15-1.29.86-.57.48,1.44-1,3.38-2,4.71-3a12,12,0,0,0,2.34-1.39h.06a16.65,16.65,0,0,0,1.68-1.15c.94-.69,1.84-1.4,2.62-2a11.5,11.5,0,0,0,1.6-1.51c.24-.25.42-.54.69-.54s.37.35.25.44c.2-.18,0-.53-.26-.54a.82.82,0,0,0-.6.32l-.87.87A9.33,9.33,0,0,1,503.65,94a9.75,9.75,0,0,0,1.62-1.53c-.12.1-.24.21-.38.31a3.85,3.85,0,0,0,.27-.3c-.17.12.17-.28.1-.27-.33.34-.7.66-1.06,1,.61-.48.26-.1.12.08s-.38.33-.58.48c.15-.09.51-.39.11,0-.24.18-.54.46-.82.64l.41-.45c-.66.64-1.34.89-2,1.49l-.28.07-.72.49.06-.08c-.28.19-.58.37-.87.55a2.15,2.15,0,0,0-.58.48,8.65,8.65,0,0,1-.87.54l.39-.31-.4.22c.28-.15-.31.24-.4.32a13,13,0,0,1-1.22.67,12.68,12.68,0,0,0-1.31.83c-1.09.6-2.23,1.29-3.23,1.94l-.41.33a26.67,26.67,0,0,0-2.85,2.07l.08-.09-.58.56a9,9,0,0,0-1,.92l-.8.76-.23.22L486,106s-.14.09,0,.09l.72.17,1.29.28.65.12a5.67,5.67,0,0,0,.86.1,14.67,14.67,0,0,1,2,.66l-.38-.09.45.2,1.86.73a8.51,8.51,0,0,0,1.82.67c.41.26.84.5,1.23.79l0,0a10.46,10.46,0,0,1,2.3,1.41l0-.11c.53.43.8.56,1.51,1.09.35.26,1.3,1.19,1.91,1.66s1,.92,1.38,1.3a10.31,10.31,0,0,1,1.23,1.24c.5.63.94,1,.94,1.21l-.09-.11.09.3.09,0a8.38,8.38,0,0,1,.86,1.34l.75.84c-.16-.22-.33-.47-.5-.73v0l-.76-1.1.27.31c-.27-.38,0-.1.09,0a9.54,9.54,0,0,0,.83,1.13c.08.13.24.4.16.32a11.67,11.67,0,0,0,.84,1.33l0,.07A3.2,3.2,0,0,0,508,119.9Z"/><path class="cls-17" d="M462.53,110.41l1.06-.59a23.6,23.6,0,0,1,4.66-1.55,18.18,18.18,0,0,1,4.75-.34c.57-.25,3.36.24,4.67.15.87,0,1.35-.07.69-.13a16.67,16.67,0,0,0,1.9.08l-.34.09a7.08,7.08,0,0,0,1.14,0l.49-.12a10.94,10.94,0,0,0,3.13-.65c-.83.21.35-.17.24-.21.19,0,.92-.35.68-.22a3.83,3.83,0,0,0,.7-.37l.26-.17c.05,0,.08,0,.11,0l.08.12a3.53,3.53,0,0,1,.54,1l.21.34a9.57,9.57,0,0,1,.7,1.72l.07.06a9.44,9.44,0,0,1,.51,1.46c.34,1,.9,2.3,1.33,3.36a10.83,10.83,0,0,0,.66,1.52c.19.62.63,1.65.7,2-.31-.84-.47-.92-.76-1.82.08.36-.58-1.49-.36-.68.71,1.69,1.38,3.84,2,5.39a15.53,15.53,0,0,0,.88,2.66v.06c.19.6.34,1,.72,2,.41,1.13.82,2.24,1.09,3.21a24.33,24.33,0,0,0,1.44,3.64c-.51-1.76-1.26-3.31-1.52-4.65a17.1,17.1,0,0,0,.85,2.16l-.13-.5.16.39c0-.22.19.29.22.21l-.51-1.42c.23.78,0,.29-.12.08l-.24-.74c0,.18.18.64,0,.11-.09-.3-.26-.68-.34-1l.3.55c-.4-.87-.46-1.61-.85-2.49v-.3L494,124l.07.08-.35-1a2.45,2.45,0,0,0-.35-.7c-.16-.42-.32-.82-.36-1l.23.47-.14-.46c.09.32-.17-.37-.23-.47a12.1,12.1,0,0,1-.43-1.38,12,12,0,0,0-.58-1.49c-.39-1.22-.84-2.51-1.25-3.66l-.22-.48c-.43-1.38-.72-2-1.24-3.39l.07.11-.34-.76a27.2,27.2,0,0,0-1.17-2.69q-.12-.24-.24-.45c-.09-.15-.13-.22-.28-.45l-.36-.53c0-.07-.07,0-.11,0l-.12.07-.23.14c-.13.09-.3.19-.36.24l-.18.14a2.42,2.42,0,0,1-.3.23,6.88,6.88,0,0,1-2,.67l.37-.12-.5.07a14.05,14.05,0,0,1-2,.33,8.5,8.5,0,0,0-2,.25c-.5-.05-1-.09-1.5-.16l0,0a15.75,15.75,0,0,1-2.79-.12l.09.07a15.9,15.9,0,0,0-1.94-.08,14.19,14.19,0,0,0-2.62,0,15.92,15.92,0,0,0-3.7.69c-.82.15-1.35.45-1.53.39l.14,0h-.33v.09c-.49.12-1.15.41-1.57.5s-.68.4-1,.61a8,8,0,0,1,.83-.38h0a12.85,12.85,0,0,1,1.29-.5l-.38.17c.45-.15.09,0,0,.09a6.55,6.55,0,0,0-1.29.61c-.15.06-.44.19-.34.12a7.62,7.62,0,0,0-1.4.79l-.08,0A3.93,3.93,0,0,0,462.53,110.41Z"/></g><g class="cls-14"><path class="cls-15" d="M430.88,126.06a1.11,1.11,0,0,0-.11.39c-.22.6.05.84,0,1.37a2.22,2.22,0,0,1-.12,1.16c.13.19-.32.77-.46,1s-.2.24-.05.18c-.25.14-.21.05-.42.08l.08-.05c-.07,0-.12-.06-.21-.09h-.12c-.19-.21-.39-.26-.61-.51.13.18-.1,0-.11,0s-.16-.19-.1-.16c-.2-.2-.45-.32-.5-.49l-.09-.05a1.76,1.76,0,0,1-.32-.36h0a1.19,1.19,0,0,1-.26-.3c-.17-.2-.43-.54-.73-.53s-.15.07-.33.2-.28.33-.38.38c.14-.18.1-.26.29-.42-.11,0,.33-.25.12-.17a3,3,0,0,0-.87,1.2c-.07-.07-.27.48-.3.67h0a1.67,1.67,0,0,0-.1.54c0,.31,0,.61-.06.88a1.55,1.55,0,0,0,.28,1,2.59,2.59,0,0,1-.12-1.23,1,1,0,0,0,.1.57v-.13l0,.1c0-.06.06.07.09.05s0-.24,0-.36c0,.2-.06.08-.09,0a1.21,1.21,0,0,1,0-.19s0,.16,0,0a.76.76,0,0,1,0-.26.94.94,0,0,0,.06.15c-.05-.24.09-.4.07-.63l.08-.06c0-.07,0-.14,0-.21l0,0a1.13,1.13,0,0,1,.08-.24.34.34,0,0,0,0-.2,1.08,1.08,0,0,1,.1-.23.57.57,0,0,0,0,.13l.05-.1c0,.07,0-.1,0-.13a.93.93,0,0,1,.19-.28c.07-.16.23-.29.19-.33.2-.22.47-.46.51-.42s0,0,0,0,.29.29.54.55h0l.18.13c.17.24.31.27.51.55a1.06,1.06,0,0,0,.55.38,3,3,0,0,1,.4.39l-.1,0,.09.11a2.6,2.6,0,0,0,.46.34.5.5,0,0,0,.42.11l.21-.1a.94.94,0,0,0,.42-.16h0c.12-.24.15-.15.42-.65h0c.13-.15.1-.25.18-.48a1.45,1.45,0,0,0,.17-.66c.09-.42-.09-.62-.08-1,0-.21-.06-.36,0-.4v0l.07-.08H431a.74.74,0,0,1,.1-.4,1.5,1.5,0,0,1,0-.3l-.08.22h0c0,.08-.05.26-.07.35v-.11c0,.12,0,0,0,0,.07-.25,0-.19.06-.38s.06-.12.06-.09c0-.12.26-.33.24-.37h0A.49.49,0,0,0,430.88,126.06Z"/></g><path class="cls-2" d="M56,212.75c-.87-.52-1.65-1.42-2.5-2.05a28.61,28.61,0,0,0-9.16-4.52c-5.09-1.45-10.2-2-15.36-3-2.43-.47-5.85-.47-8-1.52a91.61,91.61,0,0,1,11.4-2.62c6.5-.76,12.92.62,19.29,1.56a11.31,11.31,0,0,0-2.33-3.75,39.58,39.58,0,0,0-9.57-8.64c-4-2.54-10.8-6.69-15.69-9.21,6.38-.46,8.51-1.65,16.77.5a29.8,29.8,0,0,1,12.71,7c1.82,1.66,2.82,3.88,4.49,5.75a51.58,51.58,0,0,1,2.31-12.18c1.69-5.2,5-12.94,10-16-1.58,6.24-3.36,12.55-4.12,19-.3,2.6-.62,5.32-.75,7.93a4,4,0,0,0,0,1.53c1.12-5.32,7.34-10.32,11.3-13.24,2.74-2,9.35-6.7,13.23-4.68a7.24,7.24,0,0,1-2.15,1.55c-3.44,2.3-6.32,5.58-9.07,8.63a48.62,48.62,0,0,0-7.56,10.81,9.39,9.39,0,0,0-1,2.76c3.43-4.78,8.15-5.38,13.53-4.31,5,1,12.86,4.31,15,9.51-1.61-1.48-3.79-1.62-5.88-2-7.38-1.2-15.41,1-21.87,4.57-2.82,1.57-4.77,4-7,6.29-.55.56-.8,1-1.53,1.24C61.1,214.18,55.83,214.41,56,212.75Z"/><path class="cls-18" d="M491.7,210.4a36.68,36.68,0,0,0,11.17-17.58,2.58,2.58,0,0,0,.06-1.73c-.45-1-2-1.14-3.18-.62a7.15,7.15,0,0,0-2.62,2.47,57.09,57.09,0,0,0-9,18.92c1.33-8.31,4.76-16.77,3.32-24.83a5.75,5.75,0,0,0-1.18-2.87,3.19,3.19,0,0,0-3.15-.94,3.92,3.92,0,0,0-2.06,1.5c-1.45,2-1.63,6.19-1.56,9.14.17,7.26,1.38,11,3.78,17.91-3.05-6.47-4.06-10.58-7.87-16.42-1.81-2.79-4-5.51-7.15-7.11a2.53,2.53,0,0,0-2.56-.11,2,2,0,0,0-.54,2c1.25,9.71,9.33,16.76,17.53,23-6.53-4.67-11.67-8.68-19.21-10.29a3.72,3.72,0,0,0-2.95.25c-1.26.92-.62,2.62.31,3.63,4.22,4.61,11.55,6,18.37,7.06a21.47,21.47,0,0,0,4.59.34C489.52,214,490.38,211.58,491.7,210.4Z"/><path class="cls-18" d="M486.9,214a38.39,38.39,0,0,0,14.88-3.65,11.82,11.82,0,0,0,3.64-2.42c.71-.76,1.24-1.93.68-2.8s-2.09-.84-3.19-.46a32.07,32.07,0,0,0-5.57,2.76l-11.22,6.5c1.2-.31,1.4,0,2.59-.36"/><g class="cls-19"><path class="cls-20" d="M473.56,194.81l.07.1-.64-1a9.37,9.37,0,0,0,1.42,2.17,3.38,3.38,0,0,0,.43.85l.33.42L475,197l.22.3c.69.92,1.36,2,2.07,3l1.91,2.79.19.26-.2-.29.78,1c0-.06,0-.08-.12-.22l.11.16c.14.13.38.47.51.62,0,0,.06.1.14.21l0-.05,1,1.27.08.12.28.35s.21.31.07.15c.22.24.41.52.63.76.7.89,1.46,1.83,2.23,2.72v0c.27.31.53.57.84,1a6.94,6.94,0,0,0,.71.72l.66.72c-.05-.09.27.29.16.12s-.18-.22-.3-.41h0c-.76-1-1.38-1.76-2-2.51-.46-.55-.93-1.17-1.39-1.75L482,206.18a3.14,3.14,0,0,1-.24-.35l-1.3-1.71,0,0-.6-.84-.06-.06c0-.07-1.32-1.73-1.38-1.85l-.08-.09c-.43-.65-.85-1.35-1.23-1.9l-.28-.33a2.68,2.68,0,0,0-.17-.23c-.15-.34-.3-.5-.21-.33l-.49-.71-.21-.3a.67.67,0,0,1-.11-.19,3.89,3.89,0,0,1-.25-.4c0-.07-.42-.58-.46-.65l0,0c-.18-.28-.26-.48-.43-.75l-1.44-2.26s.1.15.08.17l-.74-1.26a1.77,1.77,0,0,1-.1-.22c-.08-.13-.06-.07-.12-.17v0c-.1-.14-.11-.22-.2-.35l-.07-.1s-.09-.15-.07-.15h0l-.05-.09-.44-.58,0,0c0-.08-.08-.1-.05-.05l-.06-.1h0l-.06-.1s0,0,0,0l-.11-.16.24.52c0-.06-.1-.18-.14-.25l-.2-.41s0,0-.08-.11-.05-.07-.07-.13l.12.19s-.09-.17-.11-.22-.09-.15-.14-.22,0-.07,0-.12-.06-.09,0-.06.11.21,0,.15l-.1-.18s0,0,0,0a1.84,1.84,0,0,1-.1-.16l0,0c0-.08.32.4.25.3s-.33-.42-.3-.37,0,0,0,0l0,0c0,.07,0,.11,0,.09s.27.29.2.19l0,.05a.82.82,0,0,1-.12-.2s-.05-.05-.08-.09v0s-.07-.11-.07-.08c.18.29-.21-.12-.05.16-.05-.13.05,0,.12.14a.51.51,0,0,0,.07.17c.05.07,0,0,.05,0s.06.13,0,.12.05.1.1.17,0,0,0,0l.17.3s0,.14,0,.08.06,0,0-.1c0,.07-.09-.13-.12-.15a1.29,1.29,0,0,0,.12.23v0a2.69,2.69,0,0,1,.16.29s0,0,0,0l.06.09h0a.42.42,0,0,1,.08.12s.35.49.33.48a.75.75,0,0,0,.09.15l-.2-.31a1.88,1.88,0,0,1-.17-.24c0,.07.52.76.53.81s.07.11.07.09,0,0,0,.06h0l0,.06c.1.13.2.34.31.47a1.26,1.26,0,0,1-.15-.16v0s-.06-.08-.07-.07a1.25,1.25,0,0,0,.16.24l0,.06h0s0,0,0,0h0a3.91,3.91,0,0,0,.31.49l0,.06.25.45c.05,0,.05,0,0,0l.07.13c-.1-.09.12.25,0,.15a.78.78,0,0,0,.11.18s0,0,.09.1l.1.2s0,0,0,0,.06.15.16.29.18.28.2.27S473.59,194.81,473.56,194.81Z"/></g><g class="cls-19"><path class="cls-20" d="M487.38,206.36v-.12c0,.35,0,.73,0,1.15a11.57,11.57,0,0,0,0-2.49,3,3,0,0,0,.13-.9c0-.2,0-.37,0-.51v0c0-1.11.08-2.3.15-3.55,0-.68.09-2.56.12-3.26v0c0-.45,0-.87-.06-1.2,0,.07,0,.08,0,.24v-.19c0-.18,0-.58-.05-.77,0,0,0-.11,0-.25v.06c0-.53,0-1.09,0-1.54a.54.54,0,0,1,0-.13l0-.43s0-.36,0-.16c0-.32,0-.64-.06-1,0-1.1-.11-2.26-.19-3.39v0c0-.4-.09-.75-.1-1.23s-.09-.83-.14-1l-.09-1c0,.1,0-.37,0-.18s0,.27,0,.49h0c0,1.2,0,2.17.07,3.09.05.69.06,1.44.09,2.16s.08,1.52.11,2.27a2.7,2.7,0,0,1,0,.41c0,.66,0,1.32.05,2.08v1a.32.32,0,0,0,0,.08c0,.06,0,2.1,0,2.23v.11c0,.63-.11,1.69-.14,2.18l0,.42a2.35,2.35,0,0,0,0,.28c-.08.34-.06.55,0,.37,0,.36,0,.58,0,.83V203a.55.55,0,0,1,0,.21,3.8,3.8,0,0,1,0,.46c0,.06,0,.68,0,.76v0c0,.32-.07.53-.08.84,0,.86,0,1.8,0,2.6,0,0,0-.17,0-.18,0,.47,0,.94,0,1.42v.23c0,.15,0,.09,0,.2l0,0c0,.16,0,.24,0,.39a.29.29,0,0,1,0,.12s0,.17,0,.16h0v.1c0,.07.15.61.17.7v0c0,.08,0,.12,0,.07v.1h0l0,.11s0,0,0,0,0,.13,0,.19a5.09,5.09,0,0,1,0-.56c0,.07,0,.2,0,.28s0,.29,0,.44a.24.24,0,0,1,0,.12s0,.09,0,.15a1.6,1.6,0,0,1-.05-.21,1.29,1.29,0,0,0,0,.24s0,.16.06.25,0,.07,0,.12,0,.1,0,.07,0-.23,0-.16,0,.14,0,.2,0,0,0,0,0,.14,0,.18,0,0,0-.06-.18-.46-.14-.35.18.49.16.43,0,0,0,0l0-.06c0-.08,0-.11,0-.09s-.16-.34-.12-.24v0a.71.71,0,0,1,0,.22s0,.06.05.11h0c0,.06,0,.13,0,.09-.07-.31.16.18.1-.12,0,.13,0,0-.07-.17a1.74,1.74,0,0,0,0-.18c0-.08,0,0,0-.06s0-.13,0-.12a1.06,1.06,0,0,1,0-.19c0-.06,0,0,0,0l-.05-.33s0-.13,0-.07,0-.05,0,.11c0-.07,0,.14.06.17a.84.84,0,0,0,0-.25v0a1.54,1.54,0,0,1-.05-.31s0,0,0,0V211s0,0,0,0a.78.78,0,0,1,0-.14s-.12-.56-.11-.55,0-.1,0-.17.13.73.11.63-.16-.87-.14-.92,0-.13,0-.11,0,0,0,0,0,0,0,0v-.07c0-.15,0-.37-.06-.53,0,0,0,.1.06.2v0s0,.1,0,.09a1.41,1.41,0,0,0,0-.28v-.05h0s0,0,0,0h0c0-.07,0-.38,0-.56s0,0,0-.07v-.49c0-.06,0-.07,0,0v-.15c0,.13,0-.26.07-.12a1.79,1.79,0,0,0,0-.21.24.24,0,0,1,0-.12l0-.22s0,0,0,0c0-.18,0-.16,0-.33a1.29,1.29,0,0,0,0-.32C487.35,206.34,487.37,206.34,487.38,206.36Z"/></g><g class="cls-19"><path class="cls-20" d="M491.87,207.56l.06-.08-.58.83a7,7,0,0,0,1.21-1.82c.1,0,.53-.58.52-.6l.22-.39-.16.27.16-.27c.48-.84,1.08-1.7,1.69-2.59l1.56-2.38.15-.22-.17.25c.18-.35.36-.67.49-.92a1.13,1.13,0,0,0-.14.15l.1-.14c0-.14.23-.45.3-.6,0,0,.07-.07.13-.17l0,0c.23-.38.47-.82.66-1.16l.07-.1.18-.33s.17-.26.09-.1c.11-.26.27-.5.37-.75.46-.84.91-1.75,1.32-2.65l0,0c.14-.31.23-.61.43-1a5.36,5.36,0,0,0,.27-.81c.13-.32.17-.45.3-.77-.06.07.11-.31,0-.16s-.1.21-.2.37h0l-1.21,2.39c-.25.55-.57,1.12-.86,1.67l-.91,1.76a1.64,1.64,0,0,1-.2.29l-.89,1.57v0c-.16.27-.3.46-.46.73l0,.07c-.05,0-.9,1.59-1,1.67l-.05.09c-.36.54-.78,1.08-1.09,1.56l-.16.33c-.06.07-.05.1-.12.2-.22.22-.3.39-.19.27l-.39.61-.16.26c-.05.08-.08.12-.12.14-.12.2-.1.13-.23.33,0,0-.3.51-.35.57l0,0c-.15.23-.29.36-.44.58l-1.27,1.86s.08-.13.11-.12l-.73,1a1.08,1.08,0,0,1-.13.15c-.08.1,0,.07-.09.15h0c-.07.12-.14.15-.21.27s0,0-.05.09-.08.12-.09.1h0l0,.07-.28.55,0,0c0,.06,0,.1,0,.07l-.05.07h0l-.06.08s0,0,0,0a.67.67,0,0,1-.09.14l.32-.36a2.43,2.43,0,0,1-.14.2c-.06.06-.16.19-.24.29s0,.06-.06.1,0,.06-.08.1l.1-.15s-.09.12-.13.15-.08.12-.12.19,0,0-.07.07,0,.08,0,.06.13-.16.1-.09a1,1,0,0,0-.1.14s0,0,0,0-.06.11-.09.13l0,0c0,.06.18-.4.12-.31s-.19.41-.16.37,0,0,0,0l0-.05c0-.06.07-.07.07,0s.11-.31.07-.22l0,0a.54.54,0,0,1-.1.16.29.29,0,0,1,0,.1h0s-.06.1,0,.08c.16-.23,0,.21.15,0-.08.08,0-.05.07-.15a.36.36,0,0,0,.1-.11c0-.06,0,0,0-.05s.08-.1.08-.08.06-.07.1-.13,0,0,0,0l.17-.24s.09-.07.07,0,0-.06-.07.06c.06,0-.07.11-.06.14l.13-.17h0a1.24,1.24,0,0,1,.17-.23s0,0,0,0l.06-.07s0,0,0,0a.36.36,0,0,1,.07-.1s.24-.44.24-.42.06-.06.09-.12-.34.55-.29.48.39-.67.43-.69.06-.09.05-.09,0,0,0,0,0,0,0,0l0,0c.06-.12.19-.26.25-.39,0,0,0,.09-.07.17h0s0,.07,0,.08a1.48,1.48,0,0,0,.13-.21l0,0h0s0,0,0,0h0c.05,0,.17-.28.27-.4s0,0,0-.06l.27-.34s0,0,0,0l.07-.1c0,.11.16-.17.12-.05a1.18,1.18,0,0,0,.11-.15s0,0,0-.1l.12-.15s0,0,0,0,.1-.1.18-.22.15-.23.13-.24S491.87,207.54,491.87,207.56Z"/></g><g class="cls-19"><path class="cls-20" d="M469.44,207l.09.05c-.29-.15-.58-.32-.87-.49a5.63,5.63,0,0,0,1.93,1,2.37,2.37,0,0,0,.68.39l.44.14-.3-.1.3.1c.91.31,1.85.74,2.84,1.18.53.27,2.06.81,2.62,1l.25.1-.28-.12,1,.31a1.27,1.27,0,0,0-.18-.11l.15.07c.16,0,.48.14.64.18,0,0,.08.05.19.09l0,0,1.25.45.11,0,.35.12s.28.12.11.08c.27.07.53.18.79.24.89.33,1.84.66,2.78,1l0,0a8.88,8.88,0,0,1,1,.32,7.71,7.71,0,0,0,.82.2l.78.24c-.07-.05.32.08.17,0s-.22-.08-.39-.18h0c-.82-.33-1.65-.66-2.49-1-.57-.18-1.17-.42-1.76-.63l-1.86-.64a2.52,2.52,0,0,1-.33-.14l-1.69-.6h0l-.81-.31-.07,0c0-.05-1.73-.56-1.83-.62l-.09,0c-.62-.22-1.2-.56-1.72-.77l-.35-.09c-.09,0-.12,0-.22-.09-.26-.17-.43-.21-.3-.13l-.66-.28-.29-.1a.37.37,0,0,1-.16-.09c-.21-.08-.15-.07-.36-.16,0,0-.56-.2-.62-.23h0c-.25-.11-.41-.21-.64-.33-.65-.34-1.37-.71-2-1.06,0,0,.14.07.13.1-.35-.21-.68-.44-1-.65l-.16-.13c-.1-.07-.07,0-.15-.08v0a2.61,2.61,0,0,1-.27-.19s-.06,0-.1,0-.12-.08-.1-.09h0l-.07,0-.56-.25,0,0c-.06,0-.1,0-.06,0l-.08,0h0l-.08-.05s0,0,0,0l-.15-.08.38.3a1.2,1.2,0,0,1-.21-.13l-.29-.23s-.06,0-.11-.05-.06,0-.1-.08l.16.1s-.12-.09-.16-.13a1.08,1.08,0,0,1-.18-.11s0,0-.08-.08-.07,0-.06,0,.16.12.09.1a.64.64,0,0,0-.14-.1s0,0,0,0a.48.48,0,0,1-.13-.09l0,0c-.06,0,.4.17.31.12s-.41-.18-.37-.15,0,0,0,0l.06,0c.05,0,.06.07,0,.07s.31.1.22.06l0,0a.86.86,0,0,1-.16-.1s-.05,0-.09,0h0s-.09-.06-.08,0c.24.15-.21,0,0,.15-.08-.08.05,0,.15.06a.36.36,0,0,0,.11.1c.06,0,0,0,.05,0s.1.07.08.08.07.06.13.09,0,0,0,0l.24.16s.08.09,0,.07.06,0-.06-.07c0,.06-.12-.06-.15-.06a.7.7,0,0,0,.18.13v0l.23.16s0,0,0,0l.08,0s0,0,0,0l.1.07s.44.23.43.22.06.06.12.09-.56-.32-.49-.27.68.36.71.4.09.06.09,0,0,0,0,0h0l.05,0c.12.05.27.17.4.23a.7.7,0,0,1-.17-.06h0s-.08,0-.08,0a.88.88,0,0,0,.21.12l0,0h0s0,0,0,0h0c0,.05.29.15.41.25s0,0,.06,0l.36.24c.05,0,.06,0,0,0l.1.06c-.11,0,.19.15.06.12l.16.09s0,0,.1,0l.16.11s0,0,0,0,.1.09.23.16.25.13.26.11S469.46,206.94,469.44,207Z"/></g><g class="cls-19"><path class="cls-20" d="M492.31,211.74l.08,0-.77.23a5,5,0,0,0,1.65-.53,1.38,1.38,0,0,0,.63-.09l.34-.13-.24.09.24-.09c.72-.28,1.52-.5,2.35-.75.46-.14,1.69-.61,2.15-.82l.2-.08-.23.09.73-.42a.5.5,0,0,0-.16,0l.12-.06c.1-.08.34-.22.45-.29s.08,0,.16-.06h0c.31-.17.65-.38.92-.54a.16.16,0,0,1,.09,0l.25-.17s.22-.12.1,0c.18-.14.38-.25.55-.39.63-.42,1.29-.9,1.9-1.4h0a8.24,8.24,0,0,1,.67-.55,4.34,4.34,0,0,0,.48-.47c.22-.17.29-.26.5-.43-.07,0,.19-.18.08-.12s-.16.11-.3.18h0l-1.76,1.21c-.38.3-.81.58-1.22.87l-1.3.89a1,1,0,0,1-.25.13c-.36.23-.83.49-1.24.72h0c-.22.12-.4.18-.62.3,0,0,0,0,0,0s-1.29.67-1.39.67l-.07,0c-.49.18-1,.3-1.44.45l-.26.13c-.08,0-.09,0-.18.07-.25,0-.38.07-.25.06l-.56.17-.23.09a.26.26,0,0,1-.14,0,2.81,2.81,0,0,1-.31.08,5,5,0,0,0-.5.18h0c-.21.06-.37.06-.57.12-.58.15-1.2.36-1.73.54,0,0,.12,0,.13,0-.31.1-.63.19-.94.3l-.16,0c-.1,0-.06,0-.13.06l0,0c-.1.06-.16,0-.26.09s0,0-.07,0-.11.05-.11,0h0l-.07,0s-.38.24-.42.27h0c-.05,0-.07.05,0,0l-.07,0h0l-.07,0s0,0,0,0l-.12.07.37-.12a1.3,1.3,0,0,1-.17.08l-.3.1s0,0-.07,0-.05,0-.1,0l.13-.07s-.11,0-.15.06l-.16.08s-.05,0-.09,0-.05,0,0,0,.15-.07.11,0l-.13.06s0,0,0,0a.34.34,0,0,1-.11,0l0,0c-.05,0,.27-.22.2-.18s-.28.23-.25.21,0,0,0,0l0,0c.05,0,.08,0,.07,0s.19-.19.13-.15h0l-.14.08-.06,0h0s-.08,0-.05,0c.2-.1-.07.17.12.08-.09,0,0,0,.1-.08a.38.38,0,0,0,.12,0s0,0,0,0,.09,0,.09,0,.07,0,.12-.06,0,0,0,0l.21-.1s.1,0,.06,0,0,0-.08,0c.06,0-.08,0-.09.08l.16-.07h0a.78.78,0,0,1,.21-.09s0,0,0,0l.07,0s0,0,0,0l.09,0,.34-.19s.07,0,.12,0l-.4.2c.05,0,.54-.29.58-.28l.07,0c.07,0,0,0,0,0s0,0,0,0h0a3.49,3.49,0,0,0,.34-.15.26.26,0,0,1-.11.09h0s-.07,0-.06,0a.67.67,0,0,0,.18-.07h.05c.05,0,.24-.11.36-.14l0,0,.34-.09s0,0,0,0l.09,0c-.07.06.19,0,.11,0l.14,0s0,0,.07-.05l.15,0s0,0,0,0,.11,0,.22,0,.21-.07.21-.09S492.32,211.72,492.31,211.74Z"/></g></svg>