<svg id="Fruits" xmlns="http://www.w3.org/2000/svg" viewBox="0 0 524.41 269.29"><defs><style>.cls-1{fill:#f2b7d5;}.cls-2{fill:#1c3258;}.cls-3{fill:#91c8a2;}.cls-4{fill:#a31958;}.cls-5{opacity:0.47;}.cls-6{fill:#fff;}.cls-7{fill:#fbde53;}.cls-8{fill:#008586;}.cls-9{fill:#f5b832;}.cls-10{fill:#b76daa;}.cls-11{fill:#00a87a;}.cls-12{fill:#eccc1f;}.cls-13{opacity:0.51;}.cls-14{fill:#f7c43f;}.cls-15{fill:none;}</style></defs><path class="cls-1" d="M189,242.06c1.14-6-1.77-11.72-6.1-15.74-4.75-4.43-10.53-6.15-16.58-8-2.64-.82-5.56-1.37-8.1-.3-4.43,1.86-5.65,7.67-4.89,12.41s2.88,9.3,2.69,14.09c-.21,5.3-3.15,10.9-.72,15.61a7.76,7.76,0,0,0,7.25,4.08c3.65-.24,6.55-3,9.48-5.22,3.27-2.48,6.93-4.42,10.14-7S188.18,246.09,189,242.06Z"/><path class="cls-2" d="M163,226.43a23.3,23.3,0,0,1-1.07,3.35c-.06.15.24.14.31.13s.35-.08.41-.23a23.3,23.3,0,0,0,1.07-3.35c.06-.24-.67-.13-.72.1Z"/><path class="cls-2" d="M172.09,229.78l-1.1,3.1c-.05.15.23.15.31.14s.36-.08.41-.23l1.1-3.11c.06-.15-.23-.15-.31-.14s-.36.09-.41.24Z"/><path class="cls-2" d="M165.37,234.62a34.59,34.59,0,0,0-1.19,3.74c0,.18.22.24.34.23a.43.43,0,0,0,.4-.29,32.85,32.85,0,0,1,1.14-3.61c.15-.38-.58-.36-.69-.07Z"/><path class="cls-2" d="M180.91,234l-1.38,3.13c-.07.15.23.16.31.15a.51.51,0,0,0,.41-.24l1.38-3.13c.07-.15-.24-.16-.31-.15a.51.51,0,0,0-.41.24Z"/><path class="cls-2" d="M174.35,238.84a12.12,12.12,0,0,0-.82,3.07c0,.27.7.14.73-.09a11.79,11.79,0,0,1,.82-3.08c.06-.15-.24-.15-.31-.14a.54.54,0,0,0-.42.24Z"/><path class="cls-2" d="M168.09,242.12a21.7,21.7,0,0,0-1,3c0,.17.67.07.71-.12a21.29,21.29,0,0,1,1-3c0-.13-.24-.09-.29-.08s-.37.07-.42.2Z"/><path class="cls-2" d="M178.49,244.78l-1.3,3.29c-.06.15.24.16.31.15a.51.51,0,0,0,.42-.25l1.29-3.29c.06-.15-.23-.16-.31-.15a.49.49,0,0,0-.41.25Z"/><path class="cls-2" d="M164.48,253.75l-.82,2.71c-.06.17.21.23.33.22a.43.43,0,0,0,.4-.28l.82-2.71c.06-.17-.21-.23-.33-.22a.42.42,0,0,0-.4.28Z"/><path class="cls-2" d="M171.56,249.78l-.82,2.7c-.05.18.66.09.72-.12l.82-2.7c.06-.18-.65-.09-.72.12Z"/><path class="cls-2" d="M161.79,246.7l-.83,2.7c0,.16.23.18.32.17s.36-.1.41-.26l.82-2.7c.05-.16-.22-.18-.31-.17s-.36.1-.41.26Z"/><path class="cls-2" d="M159.89,238.55l-.82,2.7c0,.17.22.21.32.19a.47.47,0,0,0,.41-.26l.82-2.71c0-.16-.22-.2-.32-.19a.46.46,0,0,0-.41.27Z"/><path class="cls-2" d="M172.4,223.88c6.94,4.46,16.46,3.74,23-1.12.9-.67,3.38-2.25,2.87-3.67-.31-.84-1.49-1.43-2.18-1.87a20.84,20.84,0,0,0-3.1-1.63,16.7,16.7,0,0,0-13.55-.26,23.72,23.72,0,0,0-6.1,4.48,6.49,6.49,0,0,0-1.82,2.25c-.32.85.24,1.35.9,1.82.27.18.9-.19.56-.42-2-1.36.88-3.36,2-4.34a20,20,0,0,1,4.8-3.36,15.66,15.66,0,0,1,12.22.07c1.67.66,4,1.63,5.2,3,1,1.08-.44,2.06-1.23,2.74a19.57,19.57,0,0,1-12.1,4.72A19.29,19.29,0,0,1,173,223.46C172.69,223.28,172.06,223.65,172.4,223.88Z"/><path class="cls-2" d="M172,222.71a44.67,44.67,0,0,1,6.61-1.09c1.86-.27,3.62-.89,5.46-1.23a59.61,59.61,0,0,1,13.47-.9c.18,0,.83-.32.46-.33a62.46,62.46,0,0,0-13.38.83c-2.14.38-4.18,1.09-6.34,1.38a38.06,38.06,0,0,0-6.36,1.07c-.41.13-.35.4.08.27Z"/><path class="cls-2" d="M184.83,220.26l3.41-2.46,1.68-1.22a8.06,8.06,0,0,1,1.61-1c.13,0,.29-.2.19-.34s-.36-.08-.49,0a7.3,7.3,0,0,0-1.57.93l-1.77,1.28L184.36,220c-.39.29.21.46.47.27Z"/><path class="cls-2" d="M184.63,220.39a63.32,63.32,0,0,0,7.82,3.9c.31.13.84-.32.42-.5a62.46,62.46,0,0,1-7.68-3.83c-.29-.16-.92.22-.56.43Z"/><path class="cls-2" d="M179.31,221.29l6.52-7c.3-.32-.4-.36-.59-.16l-6.52,7c-.3.32.41.35.59.15Z"/><path class="cls-2" d="M178.79,221.45a55.85,55.85,0,0,0,7.65,4.67c.2.11.87-.19.57-.34a56,56,0,0,1-7.55-4.61c-.2-.15-.86.14-.67.28Z"/><path class="cls-2" d="M192.75,219.54a5.09,5.09,0,0,1,1.51-.93,9.77,9.77,0,0,0,1.67-.86.24.24,0,0,0,0-.4.45.45,0,0,0-.52,0c-1,.69-2.28.92-3.18,1.79-.11.11-.18.28,0,.4a.45.45,0,0,0,.52,0Z"/><path class="cls-2" d="M192.64,219.64a35.08,35.08,0,0,0,3.61,2.11c.3.16.82-.29.41-.5a34.61,34.61,0,0,1-3.47-2,.47.47,0,0,0-.52,0,.23.23,0,0,0,0,.39Z"/><path class="cls-2" d="M174.44,222.08q2.26-3.08,4.64-6.08c.1-.13-.09-.15-.18-.15a.68.68,0,0,0-.48.18c-1.58,2-3.13,4-4.64,6.08-.16.21.54.12.66,0Z"/><path class="cls-2" d="M174.26,222.34c2.05,1.5,4.17,2.91,6.34,4.22.25.15.9-.19.57-.39-2.17-1.32-4.29-2.72-6.34-4.22-.24-.16-.89.16-.57.39Z"/><path class="cls-3" d="M177.33,225.31a19.62,19.62,0,0,0,.48-3.73A20,20,0,0,0,167.21,203c-1.25-.66-2-.83-2.53.64a20.06,20.06,0,0,0-.47,11.78,14,14,0,0,0,3.71,6.31,18.87,18.87,0,0,0,4,3c1.14.64,2.95,1.87,4.28,1.89C176.94,226.62,177.17,225.84,177.33,225.31Z"/><path class="cls-1" d="M323.31,67.74c-4.4-1.59-9.36-.91-13.69.88a28.85,28.85,0,0,0-14.1,12.58c-2.09,3.77-3.3,8.35-1.8,12.39,1.84,5,7.15,7.68,12.23,9.11s10.52,2.11,15,5c1.75,1.12,3.32,2.57,5.26,3.31a8.39,8.39,0,0,0,7.91-1.22,8.88,8.88,0,0,0,3.36-7.31,17.65,17.65,0,0,0-1.13-4.89,119.3,119.3,0,0,1-3.85-12.63C331,78.12,331,70.49,323.31,67.74Z"/><path class="cls-2" d="M300.49,85.27a24,24,0,0,1,2.2,2.72c.11.17.77-.13.72-.19A22.91,22.91,0,0,0,301.18,85s-.16,0-.19,0a.94.94,0,0,0-.28.06s-.3.1-.22.19Z"/><path class="cls-2" d="M307.93,79l2.41,3.19c.16.22.86,0,.67-.29l-2.41-3.2c-.16-.21-.86,0-.67.3Z"/><path class="cls-2" d="M308.75,87.87a33.75,33.75,0,0,0,2.44,3c.17.18.86-.08.68-.28a31.77,31.77,0,0,1-2.44-3c-.14-.2-.84,0-.68.28Z"/><path class="cls-2" d="M320.17,98.66a32.17,32.17,0,0,0,2.51,3c.15.16.83-.1.67-.27a30.79,30.79,0,0,1-2.5-3c-.13-.17-.83.07-.68.27Z"/><path class="cls-2" d="M315.92,72.9l1.86,2.89s.15,0,.19,0a.72.72,0,0,0,.29-.06c.1,0,.28-.14.2-.27l-1.86-2.89s-.15-.05-.19-.05a.72.72,0,0,0-.29.06c-.1,0-.28.14-.2.27Z"/><path class="cls-2" d="M326.51,94.09,328.37,97c.13.2.8-.08.73-.19l-1.86-2.89c-.13-.2-.8.08-.73.19Z"/><path class="cls-2" d="M318.25,83.55a24,24,0,0,0,3.1,3.65c.18.17.86-.1.68-.28a24.68,24.68,0,0,1-3.11-3.65c-.13-.18-.83,0-.67.28Z"/><path class="cls-2" d="M317.13,90.4a25.05,25.05,0,0,0,2,2.49c.17.18.86-.08.67-.29a22.94,22.94,0,0,1-2-2.49c-.15-.2-.85,0-.67.29Z"/><path class="cls-2" d="M325.12,81.81l2,2.91c.13.17.83-.06.68-.27l-2-2.91c-.13-.17-.83.06-.68.27Z"/><path class="cls-2" d="M309.58,97.52l1.81,2.19c.14.16.84-.09.68-.27l-1.81-2.19c-.14-.17-.83.08-.68.27Z"/><path class="cls-2" d="M327.83,101.44,330,104a.44.44,0,0,0,.49,0c.12,0,.29-.21.18-.35l-2.12-2.59a.44.44,0,0,0-.49,0c-.12.06-.29.22-.18.36Z"/><path class="cls-2" d="M304,76.11c7.67-3.38,12.35-11.88,11.69-20.12-.09-1.16-.06-3.76-1.63-4a4.77,4.77,0,0,0-2.29.6,22,22,0,0,0-3.09,1.59c-3.85,2.38-7.05,6.05-8,10.54a22.31,22.31,0,0,0,.23,8.5,5.45,5.45,0,0,0,1,2.81c.6.62,1.43.32,2.13,0,.46-.18.06-.56-.32-.41-2,.81-2.17-3.21-2.36-4.48a18,18,0,0,1,.1-6.7,16.34,16.34,0,0,1,7.1-9.57A20.48,20.48,0,0,1,311,53.51c.79-.38,2.44-1.38,3.21-.68.44.41.49,1.61.57,2.15a21,21,0,0,1,.19,2.85,20.38,20.38,0,0,1-2.7,9.91,19.38,19.38,0,0,1-8.65,8C303.18,75.9,303.58,76.28,304,76.11Z"/><path class="cls-2" d="M302.83,75.88a40.78,40.78,0,0,1,2.65-6c.89-1.86,1.39-3.85,2.2-5.74a60.58,60.58,0,0,1,6.67-11.68c.19-.27-.54-.22-.68,0a63.12,63.12,0,0,0-6.55,11.39c-.92,2.11-1.48,4.33-2.49,6.4A35.39,35.39,0,0,0,302.11,76c-.08.26.65.16.72-.09Z"/><path class="cls-2" d="M307.77,63.86l-.18-4.13-.08-2a9,9,0,0,1,.06-2.14c.05-.27-.67-.15-.72.09a17.79,17.79,0,0,0,0,4.06l.19,4.29c0,.23.73.08.72-.19Z"/><path class="cls-2" d="M307.79,63.94a63.92,63.92,0,0,0,7.6-4.41.24.24,0,0,0,0-.39.47.47,0,0,0-.52,0,64.08,64.08,0,0,1-7.45,4.31c-.44.22,0,.63.33.44Z"/><path class="cls-2" d="M305.6,69.14l-2.25-9.32c-.05-.2-.77,0-.72.19l2.25,9.32c0,.2.77,0,.72-.19Z"/><path class="cls-2" d="M305.51,69.32a56,56,0,0,0,8.18-3.85c.12-.06.19-.15.08-.24s-.41,0-.51.08a57.48,57.48,0,0,1-8,3.77c-.09,0-.28.13-.2.25s.39,0,.47,0Z"/><path class="cls-2" d="M311.51,56.8c-.23-1.22.26-2.43.25-3.66,0-.23-.73-.09-.72.2,0,1.23-.49,2.42-.26,3.65.05.25.78.08.73-.19Z"/><path class="cls-2" d="M311.55,56.68a35.7,35.7,0,0,0,3.78-1.85c.08,0,.23-.15.09-.21a.7.7,0,0,0-.51.09,34.68,34.68,0,0,1-3.62,1.78c-.07,0-.3.12-.21.22s.39,0,.47,0Z"/><path class="cls-2" d="M303.62,73.75q-1.32-3.61-2.53-7.26c-.09-.29-.82-.09-.72.2.81,2.43,1.65,4.84,2.53,7.25.11.29.83.08.72-.19Z"/><path class="cls-2" d="M303.69,73.65q3.58-1.35,7-3c.46-.22,0-.44-.28-.28q-3.45,1.64-7,3c-.11,0-.28.15-.2.28s.38,0,.48,0Z"/><path class="cls-3" d="M307.74,72.92a19.13,19.13,0,0,0-2.86-2.46,20.12,20.12,0,0,0-21.42-1.38c-1.25.69-1.82,1.25-.87,2.48a20.18,20.18,0,0,0,9.63,6.91,14.07,14.07,0,0,0,7.34.38,19.39,19.39,0,0,0,4.71-1.76c1.17-.6,3.19-1.44,4-2.55C308.62,74,308.1,73.35,307.74,72.92Z"/><path class="cls-1" d="M510.27,85.78c-4-2.44-9-2.76-13.59-1.88a28.87,28.87,0,0,0-16.33,9.51c-2.8,3.27-4.91,7.53-4.24,11.79.81,5.21,5.46,8.94,10.15,11.36s9.89,4.17,13.67,7.85c1.49,1.45,2.74,3.19,4.5,4.3a8.37,8.37,0,0,0,8,.38,8.9,8.9,0,0,0,4.76-6.48,18.06,18.06,0,0,0-.13-5,118.23,118.23,0,0,1-1.25-13.14C515.75,97.49,517.2,90,510.27,85.78Z"/><path class="cls-2" d="M484.43,98.5a22.31,22.31,0,0,1,1.59,3.07.35.35,0,0,0,.43.15c.12,0,.37-.18.3-.34a24.07,24.07,0,0,0-1.65-3.19c-.17-.27-.86,0-.67.31Z"/><path class="cls-2" d="M493,93.71l1.73,3.61c.09.2.79,0,.72-.19l-1.73-3.62c-.09-.2-.79,0-.72.2Z"/><path class="cls-2" d="M492,102.62a31.4,31.4,0,0,0,1.82,3.5c.17.29.86,0,.66-.32a32.82,32.82,0,0,1-1.76-3.38.36.36,0,0,0-.43-.16c-.12,0-.37.19-.29.36Z"/><path class="cls-2" d="M501,115.48A33.3,33.3,0,0,0,502.9,119c.18.28.87,0,.66-.33a32.62,32.62,0,0,1-1.83-3.33.35.35,0,0,0-.43-.16c-.12,0-.37.19-.29.35Z"/><path class="cls-2" d="M502,89.38l1.25,3.21c.06.16.27.18.42.14s.36-.17.3-.34l-1.24-3.2c-.07-.17-.28-.18-.43-.14s-.36.17-.3.33Z"/><path class="cls-2" d="M508.15,112.31l1.24,3.21c.08.19.79,0,.73-.2l-1.25-3.2c-.07-.19-.78,0-.72.19Z"/><path class="cls-2" d="M502.14,100.29a25.55,25.55,0,0,0,2.34,4.26c.19.28.88,0,.67-.32a24.46,24.46,0,0,1-2.28-4.13.35.35,0,0,0-.43-.16c-.13,0-.37.18-.3.35Z"/><path class="cls-2" d="M499.67,106.77a25.44,25.44,0,0,0,1.47,2.84c.11.18.79-.09.72-.2a23.66,23.66,0,0,1-1.46-2.83c-.08-.18-.79,0-.73.19Z"/><path class="cls-2" d="M509.22,100l1.42,3.25c.07.17.78-.08.73-.19L510,99.77c-.07-.16-.78.08-.73.19Z"/><path class="cls-2" d="M490.86,112.25l1.34,2.5c.09.18.78-.08.72-.19l-1.34-2.51c-.09-.18-.78.09-.72.2Z"/><path class="cls-2" d="M508,119.78l1.55,3c.09.16.37.12.5.06a.29.29,0,0,0,.17-.39l-1.56-3c-.09-.16-.37-.12-.5-.06a.28.28,0,0,0-.16.39Z"/><path class="cls-2" d="M489.56,90.08c8.1-1.74,14.4-9,15.5-17.13.15-1.1.75-3.83-.65-4.39a4.35,4.35,0,0,0-2.26.11,21.49,21.49,0,0,0-3.26.88c-4.41,1.56-8.47,4.6-10.35,9a22.61,22.61,0,0,0-1.4,8,5.88,5.88,0,0,0,.37,3c.43.71,1.24.61,2,.48.35-.07.58-.53.09-.44s-1.19.13-1.44-.49a4.37,4.37,0,0,1-.23-1.13,20.31,20.31,0,0,1,.07-3,19.12,19.12,0,0,1,1.16-6.18A15.94,15.94,0,0,1,498,70.33a20.15,20.15,0,0,1,2.93-1c.75-.19,2.63-.87,3.25-.18.49.54.31,1.68.27,2.33a17.45,17.45,0,0,1-.32,2.59,20.23,20.23,0,0,1-4.76,9.63,19.18,19.18,0,0,1-9.94,6C489,89.78,489.12,90.17,489.56,90.08Z"/><path class="cls-2" d="M488.55,89.67a37.4,37.4,0,0,1,3.67-5.16c1.25-1.64,2.14-3.47,3.3-5.17a61.1,61.1,0,0,1,9-10.28c.32-.3-.38-.4-.61-.19A63.13,63.13,0,0,0,495,79c-1.28,1.84-2.25,3.84-3.63,5.62a34.39,34.39,0,0,0-3.55,5c-.18.35.55.33.69.07Z"/><path class="cls-2" d="M495.81,78.85l.66-4.13.33-2.07a8.3,8.3,0,0,1,.45-1.91c.14-.35-.58-.29-.68,0a16.83,16.83,0,0,0-.8,3.93l-.69,4.3c-.05.32.68.2.73-.08Z"/><path class="cls-2" d="M495.76,78.92a64.31,64.31,0,0,0,8.34-2.8c.13-.06.27-.19.18-.34s-.36-.08-.48,0a62.06,62.06,0,0,1-8.16,2.74c-.44.12-.32.55.12.43Z"/><path class="cls-2" d="M492.62,83.54,492.28,74c0-.2-.73-.06-.72.19l.34,9.59c0,.2.73.06.72-.19Z"/><path class="cls-2" d="M492.38,83.91a57.74,57.74,0,0,0,8.79-2.13c.44-.15.3-.68-.14-.53a55.29,55.29,0,0,1-8.6,2.09c-.15,0-.39.11-.39.31s.18.28.34.26Z"/><path class="cls-2" d="M500.88,72.69c0-1.24.75-2.32,1-3.53.07-.36-.67-.27-.73.06-.23,1.2-1,2.28-1,3.53,0,.38.73.27.73-.06Z"/><path class="cls-2" d="M500.79,72.65a36.16,36.16,0,0,0,4.09-1.07c.08,0,.35-.11.32-.24s-.33-.09-.41-.06a32.23,32.23,0,0,1-3.89,1c-.12,0-.38.08-.41.23s.22.13.3.12Z"/><path class="cls-2" d="M489.77,87.65c-.39-2.53-.73-5.07-1-7.61,0-.16-.75,0-.72.19q.47,3.83,1,7.62c0,.16.76,0,.73-.2Z"/><path class="cls-2" d="M489.69,87.62c2.55-.4,5.08-.92,7.59-1.54.07,0,.37-.11.33-.22s-.32,0-.39,0q-3.68.9-7.4,1.5c-.09,0-.42.08-.43.2s.21.1.3.08Z"/><path class="cls-3" d="M494,87.74a18.4,18.4,0,0,0-2.31-3A20.12,20.12,0,0,0,471,79.13c-1.36.42-2,.85-1.34,2.25a20.18,20.18,0,0,0,8,8.7,14.1,14.1,0,0,0,7.12,1.83,19,19,0,0,0,5-.78c1.26-.35,3.42-.77,4.39-1.7C494.63,88.94,494.24,88.23,494,87.74Z"/><path class="cls-4" d="M11.66,119.35a23.8,23.8,0,0,1,6.12-.58c0-.93.12-1.85.22-2.77a17.81,17.81,0,0,1,.38-2.92c-.08.27.36.59.52.76a17.49,17.49,0,0,0,1.9,1.85,8.58,8.58,0,0,0,1.1.76c.16.09.37.27.55.18s.22-.32.26-.47c.64-2.07,1.83-4.39,3.76-5.53a12,12,0,0,1,.05,1.41,21.48,21.48,0,0,0,.35,4.67c.78,3.79,3.95,6.22,7.43,7.48a51.08,51.08,0,0,0,9.5,2c17,2.69,35.13,15.65,33.9,34.66a32.34,32.34,0,0,1-.38,3.25,22.17,22.17,0,0,1-2.72,7.61,16,16,0,0,1-3.31,3.66c-.69.61-1.39,1.21-2.05,1.85a11.22,11.22,0,0,0-1,1c-.22.24-.68.56-.67.92s.79.62,1.14.71a7.24,7.24,0,0,0,3.37,0c-.18,0-.43.3-.6.4s-.55.32-.83.46a8,8,0,0,1-1.76.68,12.54,12.54,0,0,1-2.27.32,4.69,4.69,0,0,1-1.76-.33,3.33,3.33,0,0,1,.17.42,4,4,0,0,0,.24.46,6.09,6.09,0,0,0,1.1,1.33c.33.31.69.58,1,.9.16.16.15.33-.08.42a2.43,2.43,0,0,1-1,.06,5.72,5.72,0,0,1-1.23-.19,6.66,6.66,0,0,1-2.21-1.07c-.09-.07-.57-.33-.57-.47a12.26,12.26,0,0,1-2.95,7,13.59,13.59,0,0,0-1-5.88c-5.18,3.41-11.84,4-17.9,2.75-13-2.74-24-9.84-26.79-23-1.69-8.1.39-18.32,2.28-26.31a22.94,22.94,0,0,0-1.94-15,10.46,10.46,0,0,0-2.72-3.3Z"/><path class="cls-4" d="M20.43,115c.33-.79.7-1.56,1.08-2.33l-.62.17,2.37,1.43c.2.12.87-.17.58-.35l-2.37-1.43a.57.57,0,0,0-.63.17q-.61,1.2-1.14,2.43c-.06.15.24.16.32.15a.52.52,0,0,0,.41-.24Z"/><path class="cls-4" d="M14.76,118.65a18.66,18.66,0,0,1,0-3l-.48.3c1.13.14,2.26.3,3.38.48a.44.44,0,0,0,.47-.23c.08-.17-.06-.3-.22-.33q-1.7-.27-3.39-.48c-.19,0-.48.08-.49.3a19.49,19.49,0,0,0,0,3.15c0,.18.31.2.43.17a.36.36,0,0,0,.3-.37Z"/><g class="cls-5"><path class="cls-6" d="M27.15,132.22a5.89,5.89,0,0,0,.16,1.82c2.07,9.94-2.91,20.94,1.8,30.59,3.48,7.12,11.71,12.53,20.14,11.15,7.56-1.24,13.82-7.38,14.25-15,.24-4.4-2.38-9.5-5.59-12.46-3.91-3.62-9-5.68-13.84-7.74a67.54,67.54,0,0,1-8-3.81c-2.58-1.53-4.17-3.56-6.32-5.4a1.71,1.71,0,0,0-2-.28A1.5,1.5,0,0,0,27.15,132.22Z"/></g><path class="cls-2" d="M48,161.66c-.41.22-.84.39-1.26.6l-.88.44a.67.67,0,0,0-.33.43c-.08.43.56.64.85.78l1.54.73a.88.88,0,0,0,.8.07,2.37,2.37,0,0,0,.85-1.26c.2-.51.5-1.51,0-1.95a1,1,0,0,0-.76-.17A2.67,2.67,0,0,0,48,161.66Z"/><path class="cls-2" d="M37.22,148.52c-.41.23-.84.4-1.26.61-.25.13-.63.3-.88.44a.69.69,0,0,0-.32.43c-.09.43.56.64.84.77l1.55.74a.88.88,0,0,0,.8.07,2.47,2.47,0,0,0,.85-1.26c.19-.51.49-1.51,0-1.95a1,1,0,0,0-.75-.17A2.61,2.61,0,0,0,37.22,148.52Z"/><path class="cls-2" d="M44.59,148c.33.33.61.7.92,1.05s.46.53.66.73a.64.64,0,0,0,.5.2c.43,0,.47-.71.52-1l.3-1.69a.89.89,0,0,0-.14-.79,2.44,2.44,0,0,0-1.44-.48c-.55,0-1.59-.08-1.89.51a.94.94,0,0,0,0,.77A2.63,2.63,0,0,0,44.59,148Z"/><path class="cls-2" d="M42.36,168.5c.08.47.1.93.17,1.39,0,.29.08.7.13,1a.7.7,0,0,0,.3.45c.38.21.79-.33,1-.56l1.19-1.23a.87.87,0,0,0,.33-.73,2.46,2.46,0,0,0-.93-1.21c-.42-.35-1.27-1-1.84-.64a1,1,0,0,0-.4.66A2.23,2.23,0,0,0,42.36,168.5Z"/><path class="cls-2" d="M56,157.86c.08.47.11.93.18,1.39,0,.29.08.7.13,1a.7.7,0,0,0,.3.45c.38.21.79-.33,1-.56l1.19-1.23a.84.84,0,0,0,.32-.73,2.38,2.38,0,0,0-.92-1.21c-.42-.35-1.27-.95-1.84-.64A1,1,0,0,0,56,157,2.66,2.66,0,0,0,56,157.86Z"/><path class="cls-2" d="M31.22,143.66c.08.46.11.92.17,1.38,0,.29.09.7.14,1a.67.67,0,0,0,.3.45c.37.21.78-.33,1-.56L34,144.68a.87.87,0,0,0,.33-.73,2.5,2.5,0,0,0-.92-1.21c-.43-.35-1.27-1-1.85-.64a1,1,0,0,0-.4.66A2.73,2.73,0,0,0,31.22,143.66Z"/><path class="cls-6" d="M48.85,153.82c.08.46.1.92.17,1.39,0,.28.08.69.14,1a.67.67,0,0,0,.3.45c.37.21.78-.33,1-.56.4-.41.79-.82,1.19-1.22a.9.9,0,0,0,.33-.74,2.54,2.54,0,0,0-.92-1.21c-.43-.35-1.28-1-1.85-.63a.94.94,0,0,0-.4.66A2.44,2.44,0,0,0,48.85,153.82Z"/><path class="cls-2" d="M48.56,153.9c.09.53.13,1.07.2,1.6s0,.91.36,1.19c.71.63,1.56-.55,2-1l.57-.58a3.16,3.16,0,0,0,.48-.56,1,1,0,0,0-.17-1.11,4.45,4.45,0,0,0-.86-.82,3.25,3.25,0,0,0-1.05-.57,1.25,1.25,0,0,0-1.29.3,1.81,1.81,0,0,0-.23,1.54c0,.21.62.07.58-.16a1.73,1.73,0,0,1,.07-1.17c.17-.29.42-.23.69-.11a4.06,4.06,0,0,1,1.47,1.12.88.88,0,0,1,.26.92,1.61,1.61,0,0,1-.33.41l-.48.49-.77.81a1.34,1.34,0,0,1-.31.27c-.06,0,0,0,0,0a.43.43,0,0,1-.21-.21,1.61,1.61,0,0,1-.11-.52c0-.19,0-.38-.07-.57-.07-.49-.1-1-.18-1.45C49.1,153.52,48.52,153.66,48.56,153.9Z"/><path class="cls-6" d="M39.17,143.5c.08.46.11.92.17,1.38,0,.29.09.7.14,1a.7.7,0,0,0,.3.45c.38.21.78-.33,1-.56L42,144.52a.82.82,0,0,0,.33-.73,2.44,2.44,0,0,0-.92-1.21c-.43-.35-1.27-1-1.85-.64a1,1,0,0,0-.4.66A2.73,2.73,0,0,0,39.17,143.5Z"/><path class="cls-2" d="M38.88,143.57c.09.54.13,1.07.2,1.61a1.92,1.92,0,0,0,.36,1.21c.71.68,1.57-.53,2-1l.57-.58a2.9,2.9,0,0,0,.48-.57,1,1,0,0,0-.18-1.14,4.5,4.5,0,0,0-.86-.83,3.41,3.41,0,0,0-1.05-.59,1.19,1.19,0,0,0-1.29.31,1.9,1.9,0,0,0-.23,1.56c0,.28.63.13.58-.15a1.74,1.74,0,0,1,.08-1.15c.16-.27.44-.2.69-.1a3.88,3.88,0,0,1,1.47,1.1c.2.24.42.57.25.88a1.9,1.9,0,0,1-.34.41c-.16.16-.32.32-.47.49l-.78.8a1.2,1.2,0,0,1-.29.26c-.1,0-.18,0-.24-.15a1.36,1.36,0,0,1-.11-.53c0-.19,0-.38-.08-.57-.06-.48-.1-1-.18-1.44C39.41,143.14,38.83,143.29,38.88,143.57Z"/><path class="cls-2" d="M37.43,156.58c-.45-.12-.88-.29-1.33-.43l-.94-.29a.73.73,0,0,0-.54.09c-.35.25,0,.85.09,1.15l.61,1.59a.9.9,0,0,0,.53.61,2.5,2.5,0,0,0,1.48-.33c.5-.24,1.41-.76,1.36-1.41a1,1,0,0,0-.43-.64A2.55,2.55,0,0,0,37.43,156.58Z"/><path class="cls-2" d="M55.28,149.63c-.45-.12-.88-.29-1.33-.43-.27-.08-.66-.21-.94-.28a.66.66,0,0,0-.53.08c-.36.25,0,.85.08,1.15.21.53.41,1.06.61,1.59a.89.89,0,0,0,.54.61,2.45,2.45,0,0,0,1.48-.33c.5-.24,1.4-.76,1.35-1.41a1,1,0,0,0-.43-.64A2.55,2.55,0,0,0,55.28,149.63Z"/><path class="cls-2" d="M43.14,155.77c.16.44.27.89.42,1.33.09.27.21.67.31.94a.69.69,0,0,0,.37.38c.41.14.72-.46.89-.73l.95-1.42a.86.86,0,0,0,.19-.78c-.15-.44-.75-.81-1.13-1s-1.42-.71-1.93-.3a1,1,0,0,0-.28.73A2.76,2.76,0,0,0,43.14,155.77Z"/><path class="cls-2" d="M54.56,166.24c.44.18.84.4,1.27.59.27.12.64.3.9.4a.68.68,0,0,0,.54,0c.38-.21.14-.84.06-1.15-.14-.55-.27-1.11-.41-1.66a.89.89,0,0,0-.45-.67,2.46,2.46,0,0,0-1.51.15c-.52.17-1.48.57-1.52,1.22a1,1,0,0,0,.35.7A2.42,2.42,0,0,0,54.56,166.24Z"/><path class="cls-6" d="M38.63,162.55c-.43.19-.87.32-1.31.5-.26.11-.65.25-.91.37a.65.65,0,0,0-.36.4c-.12.41.5.68.78.84l1.48.86a.87.87,0,0,0,.79.13c.43-.17.76-.79.95-1.18s.62-1.47.17-1.95a1,1,0,0,0-.74-.23A2.46,2.46,0,0,0,38.63,162.55Z"/><path class="cls-2" d="M38.46,162.51c-.5.22-1,.39-1.53.59s-.91.27-1.12.66.06.58.33.76.77.44,1.16.66a2.93,2.93,0,0,0,1.4.64,1.5,1.5,0,0,0,1.13-.58,4.11,4.11,0,0,0,.59-1,3.16,3.16,0,0,0,.3-1.12.82.82,0,0,0-.66-.9,2.62,2.62,0,0,0-1.6.3c-.07,0-.17.1-.07.15s.31,0,.4-.08a1,1,0,0,1,1.08,0,.86.86,0,0,1,.26.79,4,4,0,0,1-.67,1.73,2,2,0,0,1-.31.39.46.46,0,0,1-.17.14c.08,0,0,0,0,0l-.22-.08c-.4-.2-.77-.45-1.15-.67s-.56-.3-.84-.47-.49-.35-.37-.64a.72.72,0,0,1,.48-.37l.59-.23c.46-.18.92-.33,1.37-.53.08,0,.18-.09.08-.14S38.55,162.47,38.46,162.51Z"/><path class="cls-6" d="M31.89,153.43c-.19-.43-.31-.87-.48-1.31-.11-.27-.24-.66-.35-.92a.69.69,0,0,0-.4-.37c-.41-.12-.69.5-.85.77-.3.49-.59,1-.89,1.46a.9.9,0,0,0-.15.79,2.43,2.43,0,0,0,1.17,1c.5.25,1.46.65,1.94.21a1,1,0,0,0,.25-.74A3,3,0,0,0,31.89,153.43Z"/><path class="cls-2" d="M32.18,153.36c-.21-.5-.37-1-.56-1.52s-.24-.91-.64-1.1a.94.94,0,0,0-1.06.28,6,6,0,0,0-.63,1l-.42.7a3.21,3.21,0,0,0-.39.7,1,1,0,0,0,.45,1.06,4.07,4.07,0,0,0,2.15.89,1.28,1.28,0,0,0,1.2-.52,1.7,1.7,0,0,0-.1-1.49c-.08-.18-.65,0-.58.15a1.87,1.87,0,0,1,.21,1.13.61.61,0,0,1-.21.4.54.54,0,0,1-.33,0,4,4,0,0,1-1.7-.73c-.27-.2-.57-.46-.55-.82a1.23,1.23,0,0,1,.21-.53c.13-.21.26-.42.38-.63l.57-.94a2.39,2.39,0,0,1,.21-.34.8.8,0,0,0,.13-.13c.05-.09-.08.06-.09,0l.17.1a1.12,1.12,0,0,1,.28.51c.08.19.14.38.22.57.17.46.31.92.5,1.37C31.67,153.69,32.24,153.51,32.18,153.36Z"/><path class="cls-6" d="M51.89,170.32c-.19-.43-.32-.88-.48-1.32-.11-.26-.24-.66-.35-.92a.68.68,0,0,0-.4-.36c-.41-.13-.69.49-.85.76L48.92,170a.86.86,0,0,0-.15.79,2.48,2.48,0,0,0,1.17,1c.49.24,1.45.64,1.94.2a1,1,0,0,0,.25-.73A2.9,2.9,0,0,0,51.89,170.32Z"/><path class="cls-2" d="M52.18,170.24c-.21-.5-.37-1-.56-1.52s-.24-.92-.65-1.1a1,1,0,0,0-1,.29,5.67,5.67,0,0,0-.61,1l-.42.7a4,4,0,0,0-.41.73,1,1,0,0,0,.45,1.05,5.1,5.1,0,0,0,1,.57,3.28,3.28,0,0,0,1.15.31,1.37,1.37,0,0,0,1.21-.5,1.69,1.69,0,0,0-.1-1.5c-.07-.16-.64,0-.58.16a1.93,1.93,0,0,1,.21,1.13.63.63,0,0,1-.21.41.47.47,0,0,1-.33,0,3.87,3.87,0,0,1-1.7-.74,1,1,0,0,1-.55-.82,1.13,1.13,0,0,1,.19-.5c.12-.21.25-.42.38-.63s.4-.64.58-1a2.84,2.84,0,0,1,.22-.34l.13-.14c.09-.13-.09.07-.09,0s.16.1.17.1a1.19,1.19,0,0,1,.28.52c.08.19.14.38.21.57.18.45.32.92.51,1.37C51.66,170.55,52.23,170.37,52.18,170.24Z"/><path class="cls-4" d="M252,164.57a23.86,23.86,0,0,0-5.67,2.36q-.72-1.2-1.5-2.34a17.62,17.62,0,0,0-1.7-2.4c.19.2,0,.69-.1.91a20.13,20.13,0,0,1-.81,2.53,9,9,0,0,1-.62,1.19c-.1.15-.2.41-.4.41s-.34-.17-.45-.28c-1.54-1.53-3.68-3-5.91-3.12a10.15,10.15,0,0,0,.61,1.27,21.16,21.16,0,0,1,1.88,4.28c1.1,3.72-.56,7.35-3,10.1a50.92,50.92,0,0,1-7.45,6.21C213.14,196,203.19,216,213.21,232.21a31.34,31.34,0,0,0,1.86,2.69,22.21,22.21,0,0,0,6,5.45,16.1,16.1,0,0,0,4.64,1.67c.89.22,1.79.41,2.68.66.44.13.88.27,1.31.43s.87.18,1,.5-.4.92-.67,1.16a7.3,7.3,0,0,1-3,1.61,2.66,2.66,0,0,1,.73.07c.31,0,.63,0,.94,0a7.93,7.93,0,0,0,1.88-.23,11.76,11.76,0,0,0,2.15-.78,5,5,0,0,0,1.4-1.11,2.58,2.58,0,0,0,.05.44,4.51,4.51,0,0,1,0,.52,6.13,6.13,0,0,1-.35,1.69c-.14.43-.32.84-.46,1.27-.07.22,0,.36.26.34a2.43,2.43,0,0,0,1-.44,5.6,5.6,0,0,0,1-.75,6.58,6.58,0,0,0,1.45-2c.06-.1.36-.56.29-.68a12.34,12.34,0,0,0,5.9,4.8,13.57,13.57,0,0,1-1.86-5.67c6.17.58,12.34-2,17.09-6,10.18-8.52,16.59-20,12.83-32.91-2.31-7.94-8.95-16-14.37-22.15a22.92,22.92,0,0,1-5.35-14.17,10.4,10.4,0,0,1,.85-4.19Z"/><path class="cls-4" d="M242.91,164.6c-.68-.55-1.38-1.07-2.09-1.57-.15-.11-.61,0-.7.18l-1.42,2.38c-.07.11.26.07.29.06s.35-.07.42-.19l1.42-2.38-.7.19c.72.5,1.42,1,2.1,1.58.1.08.36,0,.47,0s.31-.12.21-.2Z"/><path class="cls-4" d="M249.68,165.22a18.44,18.44,0,0,0-1.43-2.71c-.12-.2-.5,0-.65.05-.93.66-1.85,1.33-2.76,2-.12.09-.08.19.06.22a.72.72,0,0,0,.51-.14c.91-.68,1.83-1.36,2.77-2l-.65.06a20.14,20.14,0,0,1,1.43,2.72c.09.22.8,0,.72-.2Z"/><g class="cls-5"><path class="cls-6" d="M244.39,183.21a6.24,6.24,0,0,1,.71,1.68c2.85,9.75,12.41,17.11,12.78,27.85.28,7.92-4.44,16.56-12.53,19.31-7.26,2.45-15.67,0-19.64-6.59-2.29-3.77-2.37-9.5-.93-13.62,1.76-5,5.27-9.25,8.58-13.33a66,66,0,0,0,5.23-7.11c1.57-2.56,2-5.1,3-7.74a1.72,1.72,0,0,1,1.63-1.18A1.53,1.53,0,0,1,244.39,183.21Z"/></g><path class="cls-2" d="M239.8,219c.47,0,.93-.05,1.39-.06.29,0,.71,0,1,0a.66.66,0,0,1,.49.22c.27.34-.2.83-.39,1.08l-1,1.38a.89.89,0,0,1-.68.44,2.43,2.43,0,0,1-1.34-.72c-.41-.36-1.14-1.1-.93-1.71a1,1,0,0,1,.59-.51A2.39,2.39,0,0,1,239.8,219Z"/><path class="cls-2" d="M243.16,202.33c.47,0,.93,0,1.39-.05l1,0a.67.67,0,0,1,.49.23c.27.33-.2.82-.39,1.08l-1,1.37a.88.88,0,0,1-.68.44,2.41,2.41,0,0,1-1.34-.71c-.41-.36-1.15-1.1-.93-1.72a1,1,0,0,1,.59-.5A2.62,2.62,0,0,1,243.16,202.33Z"/><path class="cls-2" d="M236.42,205.36c-.13.45-.2.91-.32,1.36-.07.28-.15.69-.23,1a.68.68,0,0,1-.35.41c-.4.18-.75-.41-.94-.66l-1.05-1.34a.86.86,0,0,1-.25-.77c.11-.44.68-.86,1-1.1s1.37-.81,1.91-.44a1,1,0,0,1,.33.7A2.42,2.42,0,0,1,236.42,205.36Z"/><path class="cls-2" d="M248,222.38c.15.45.34.87.5,1.31.1.27.26.65.34.92a.68.68,0,0,1,0,.54c-.23.36-.85.08-1.15,0l-1.63-.52a.87.87,0,0,1-.63-.5,2.39,2.39,0,0,1,.25-1.5c.21-.51.67-1.44,1.32-1.43a1,1,0,0,1,.67.39A2.41,2.41,0,0,1,248,222.38Z"/><path class="cls-2" d="M231,219.41c.15.44.34.86.5,1.3.1.27.25.66.34.93a.66.66,0,0,1-.06.53c-.23.37-.84.08-1.15,0l-1.62-.53a.9.9,0,0,1-.64-.49,2.45,2.45,0,0,1,.25-1.5c.21-.51.67-1.44,1.33-1.43a1,1,0,0,1,.67.39A2.74,2.74,0,0,1,231,219.41Z"/><path class="cls-2" d="M246.17,195.21c.14.45.34.87.5,1.31.09.27.25.65.34.92a.68.68,0,0,1-.06.54c-.23.37-.85.08-1.15,0l-1.62-.52a.89.89,0,0,1-.64-.5,2.48,2.48,0,0,1,.25-1.5c.21-.51.67-1.44,1.33-1.43a1,1,0,0,1,.66.4A2.48,2.48,0,0,1,246.17,195.21Z"/><path class="cls-6" d="M235.38,212.47c.15.44.34.86.5,1.3.1.27.26.66.34.93a.68.68,0,0,1-.05.54c-.23.36-.85.07-1.15,0l-1.63-.53a.88.88,0,0,1-.63-.49,2.45,2.45,0,0,1,.24-1.5c.21-.51.68-1.44,1.33-1.43a1,1,0,0,1,.67.39A2.51,2.51,0,0,1,235.38,212.47Z"/><path class="cls-2" d="M235.09,212.55c.14.41.32.82.48,1.23a9.37,9.37,0,0,1,.38,1.05c0,.1,0,.35-.07.39a.79.79,0,0,1-.28-.05c-.34-.1-.67-.22-1-.33a9.82,9.82,0,0,1-1.23-.4.69.69,0,0,1-.36-.79,4.07,4.07,0,0,1,.69-1.73c.13-.18.36-.5.61-.44.46.1.66.69.78,1.07s.66.08.58-.16a1.9,1.9,0,0,0-.82-1.2,1.12,1.12,0,0,0-1.18.12,3.58,3.58,0,0,0-1.15,1.94,1.52,1.52,0,0,0,0,1.22c.26.38.85.47,1.25.6l1.36.44a1.18,1.18,0,0,0,1.15-.1c.4-.37.16-.9,0-1.31-.21-.57-.45-1.13-.65-1.71C235.59,212.14,235,212.3,235.09,212.55Z"/><path class="cls-6" d="M239.07,198.81c.15.45.34.86.5,1.31.1.26.26.65.34.92a.68.68,0,0,1,0,.54c-.23.36-.85.08-1.15,0l-1.63-.53a.84.84,0,0,1-.63-.49,2.39,2.39,0,0,1,.25-1.5c.21-.51.67-1.44,1.32-1.43a1,1,0,0,1,.67.39A2.62,2.62,0,0,1,239.07,198.81Z"/><path class="cls-2" d="M238.78,198.89c.14.42.32.82.48,1.23a7.73,7.73,0,0,1,.38,1,.79.79,0,0,1-.09.5l0,0c-.06.05,0,0,.16,0h-.09l-.24,0c-.35-.1-.69-.23-1-.34a8.2,8.2,0,0,1-1.21-.41.77.77,0,0,1-.42-.81,4,4,0,0,1,.67-1.79,2.44,2.44,0,0,1,.32-.4,1.27,1.27,0,0,0,.19-.13h0c-.09,0-.11,0-.06,0l.15,0a1.62,1.62,0,0,1,.8,1.13c0,.11.62-.06.58-.16a1.69,1.69,0,0,0-.83-1.16,1.3,1.3,0,0,0-1.16.18,3.28,3.28,0,0,0-1.15,1.87,1.35,1.35,0,0,0,0,1.18,1,1,0,0,0,.45.29c.27.11.56.19.84.28s.85.29,1.28.42a1.41,1.41,0,0,0,1.17-.12c.43-.3.16-.86,0-1.23-.21-.57-.45-1.13-.65-1.71C239.32,198.62,238.75,198.79,238.78,198.89Z"/><path class="cls-2" d="M246.76,209.54c.34-.32.64-.67,1-1s.49-.51.7-.7a.64.64,0,0,1,.51-.17c.43.05.43.73.46,1.05l.21,1.69a.86.86,0,0,1-.18.79,2.49,2.49,0,0,1-1.47.4c-.55,0-1.59,0-1.85-.6a1,1,0,0,1,.08-.77A2.5,2.5,0,0,1,246.76,209.54Z"/><path class="cls-2" d="M227.73,211.8c.35-.32.65-.68,1-1s.49-.5.69-.69a.7.7,0,0,1,.51-.18c.43.06.43.74.47,1.05l.21,1.7a.87.87,0,0,1-.19.78,2.45,2.45,0,0,1-1.46.41c-.55,0-1.59,0-1.86-.61a1,1,0,0,1,.08-.77A2.65,2.65,0,0,1,227.73,211.8Z"/><path class="cls-2" d="M241.34,211.5c.06.47.18.92.26,1.38,0,.28.13.69.16,1a.7.7,0,0,1-.15.52c-.29.32-.85-.08-1.13-.23l-1.5-.81c-.26-.14-.49-.3-.53-.6a2.38,2.38,0,0,1,.51-1.43c.3-.46.92-1.3,1.57-1.17a1,1,0,0,1,.58.51A2.49,2.49,0,0,1,241.34,211.5Z"/><path class="cls-2" d="M236.18,226.12c-.31.36-.56.75-.85,1.12-.17.22-.42.56-.6.78a.71.71,0,0,1-.49.23c-.43,0-.51-.67-.59-1l-.42-1.66a.87.87,0,0,1,.09-.8,2.41,2.41,0,0,1,1.4-.58c.54-.1,1.58-.19,1.92.37a1,1,0,0,1,0,.77A2.59,2.59,0,0,1,236.18,226.12Z"/><path class="cls-6" d="M248.51,215.37c.46,0,.92-.12,1.38-.17.29,0,.7-.09,1-.11a.68.68,0,0,1,.51.19c.3.31-.13.84-.29,1.11-.31.48-.61,1-.91,1.45a.88.88,0,0,1-.63.5,2.53,2.53,0,0,1-1.4-.61c-.44-.32-1.23-1-1.06-1.63a.94.94,0,0,1,.54-.55A2.34,2.34,0,0,1,248.51,215.37Z"/><path class="cls-2" d="M248.48,215.57c.43,0,.87-.11,1.3-.16s.69-.11,1-.12c.86,0-.06,1.16-.23,1.44s-.46.77-.7,1.14c-.07.1-.16.23-.28.26a.75.75,0,0,1-.44-.08,4,4,0,0,1-1.48-1.12c-.2-.24-.43-.6-.27-.92s.7-.41,1.07-.44c.11,0,.31-.09.32-.23s-.16-.17-.26-.17a2.39,2.39,0,0,0-1.4.46.88.88,0,0,0-.31,1,2.31,2.31,0,0,0,.73,1,5.13,5.13,0,0,0,.94.66,1.59,1.59,0,0,0,1.25.22c.47-.14.69-.59.93-1s.53-.86.81-1.28.43-.7.19-1-.93-.28-1.37-.23c-.59.07-1.18.17-1.77.21-.12,0-.31.09-.33.23S248.37,215.58,248.48,215.57Z"/><path class="cls-6" d="M250.17,204.16c0-.47-.13-.92-.19-1.39,0-.28-.1-.69-.12-1a.66.66,0,0,1,.17-.51c.31-.31.85.11,1.12.27l1.46.88a.86.86,0,0,1,.51.63,2.45,2.45,0,0,1-.58,1.4c-.32.45-1,1.25-1.61,1.09a.94.94,0,0,1-.56-.53A2.57,2.57,0,0,1,250.17,204.16Z"/><path class="cls-2" d="M250.46,204.08c-.07-.79-.28-1.57-.31-2.36a.53.53,0,0,1,0-.28,1.17,1.17,0,0,1,.05-.11l0,0c.05-.05,0-.05-.1,0a.93.93,0,0,0,.2.07l.22.11.92.56a9,9,0,0,1,1,.64.77.77,0,0,1,.23.92,4,4,0,0,1-1.06,1.58,1.08,1.08,0,0,1-.43.31s-.11,0-.14,0a.79.79,0,0,1-.23-.14,1.83,1.83,0,0,1-.45-1.23c0-.09-.59,0-.58.16a1.83,1.83,0,0,0,.51,1.28,1.13,1.13,0,0,0,1.1.06,3.48,3.48,0,0,0,1.65-1.65,1.3,1.3,0,0,0,.2-1.17,1,1,0,0,0-.4-.38c-.23-.15-.48-.29-.71-.43-.4-.24-.79-.5-1.2-.72a1.15,1.15,0,0,0-1.11,0c-.47.25-.34.79-.29,1.22.09.6.2,1.2.25,1.81C249.89,204.32,250.48,204.22,250.46,204.08Z"/><path class="cls-6" d="M240.45,228.46c0-.47-.13-.92-.19-1.38,0-.29-.1-.7-.12-1a.66.66,0,0,1,.17-.51c.31-.31.85.11,1.12.27l1.46.88a.86.86,0,0,1,.51.63,2.42,2.42,0,0,1-.58,1.4c-.32.45-1,1.25-1.61,1.1a1,1,0,0,1-.56-.54A2.57,2.57,0,0,1,240.45,228.46Z"/><path class="cls-2" d="M240.74,228.38c0-.43-.12-.87-.18-1.3s-.12-.71-.13-1.06a.67.67,0,0,1,0-.24s.06-.08.06-.11,0,0,0,0a1,1,0,0,1,.4.17l.88.54a8.78,8.78,0,0,1,1.06.64.73.73,0,0,1,.2.86,3.92,3.92,0,0,1-1.08,1.56c-.25.22-.52.4-.81.13a1.78,1.78,0,0,1-.42-1.18c0-.21-.6-.08-.58.16a1.88,1.88,0,0,0,.51,1.3,1.08,1.08,0,0,0,1.12.12,3.63,3.63,0,0,0,1.65-1.72,1.35,1.35,0,0,0,.18-1.18c-.2-.4-.73-.61-1.09-.82s-.8-.5-1.21-.74a1.1,1.1,0,0,0-1.13-.06c-.45.3-.34.84-.27,1.29.08.6.19,1.2.24,1.81C240.18,228.75,240.77,228.62,240.74,228.38Z"/><path class="cls-4" d="M362.93,81.23a24.31,24.31,0,0,0-1.77,5.88q-1.38-.21-2.76-.33a17,17,0,0,0-2.93-.2c.28,0,.5.47.64.65a18.74,18.74,0,0,1,1.43,2.23,8.29,8.29,0,0,1,.53,1.23c.06.18.19.42.06.58s-.35.15-.5.16c-2.16.22-4.67.93-6.17,2.59a10.06,10.06,0,0,0,1.38.33,20.79,20.79,0,0,1,4.5,1.27c3.57,1.51,5.32,5.1,5.87,8.76a50.7,50.7,0,0,1,.06,9.7c-.72,17.16,8.4,37.53,27.28,40.08a29.64,29.64,0,0,0,3.26.27,22.37,22.37,0,0,0,8-1.15,16.32,16.32,0,0,0,4.24-2.53c.73-.55,1.46-1.12,2.21-1.65.38-.26.77-.51,1.17-.74s.68-.55,1-.47.46.89.47,1.25a7.3,7.3,0,0,1-.64,3.32c.07-.18.38-.37.51-.52s.42-.47.61-.72a7.82,7.82,0,0,0,1-1.59,12.89,12.89,0,0,0,.76-2.16,4.89,4.89,0,0,0,0-1.79s.32.21.37.24a3.19,3.19,0,0,1,.4.33,6.45,6.45,0,0,1,1.09,1.35c.23.38.44.78.68,1.16.13.19.3.21.43,0a2.53,2.53,0,0,0,.27-1,5.73,5.73,0,0,0,.05-1.24,6.59,6.59,0,0,0-.61-2.38c0-.11-.21-.63-.35-.65A12.4,12.4,0,0,0,423,142a13.84,13.84,0,0,1-5.56-2.16c4.37-4.4,6.29-10.81,6.24-17-.12-13.27-4.9-25.5-17.28-30.8-7.6-3.26-18-3.24-26.24-3a23,23,0,0,1-14.34-4.87,10.42,10.42,0,0,1-2.69-3.32Z"/><path class="cls-4" d="M357,88.43c-.85.17-1.7.38-2.55.62-.1,0-.36.14-.31.29l.93,2.6c.1.27.82.06.73-.19l-.93-2.61-.31.29c.84-.23,1.69-.44,2.55-.62.11,0,.34-.13.31-.29s-.31-.11-.42-.09Z"/><path class="cls-4" d="M362,83.59a18.07,18.07,0,0,0-3-.62.64.64,0,0,0-.36,0c-.07,0-.21.11-.22.2-.08,1.14-.15,2.28-.2,3.42,0,.3.72.15.73-.09,0-1.14.11-2.28.19-3.42l-.58.24a19.4,19.4,0,0,1,3,.63.6.6,0,0,0,.51-.14c.12-.11.07-.22-.07-.26Z"/><g class="cls-5"><path class="cls-6" d="M372.49,99a5.77,5.77,0,0,1,1.76.53c9.33,4,21.09,1.28,29.62,7.8,6.3,4.82,10,14,7,21.95-2.71,7.17-10,12.09-17.56,11-4.37-.63-8.84-4.2-11.11-7.93-2.77-4.56-3.8-9.95-4.85-15.1a67.75,67.75,0,0,0-2.17-8.55c-1-2.84-2.66-4.79-4-7.27a1.72,1.72,0,0,1,.11-2A1.54,1.54,0,0,1,372.49,99Z"/></g><path class="cls-2" d="M397.22,125.23c.3-.36.56-.75.85-1.11s.42-.56.6-.78a.72.72,0,0,1,.49-.24c.43,0,.51.68.59,1,.14.55.28,1.1.41,1.66a.87.87,0,0,1-.08.8,2.44,2.44,0,0,1-1.4.58c-.55.09-1.58.19-1.92-.37a1,1,0,0,1,0-.78A2.59,2.59,0,0,1,397.22,125.23Z"/><path class="cls-2" d="M386.48,112.05c.31-.36.56-.74.85-1.11s.42-.56.6-.78a.67.67,0,0,1,.49-.23c.43,0,.51.67.59,1l.42,1.66a.87.87,0,0,1-.09.8,2.44,2.44,0,0,1-1.4.58c-.55.09-1.58.19-1.92-.37a1,1,0,0,1,0-.77A2.78,2.78,0,0,1,386.48,112.05Z"/><path class="cls-2" d="M384.55,119.18c.27.39.57.73.85,1.11.17.23.43.56.59.79a.71.71,0,0,1,.1.53c-.12.42-.79.32-1.11.31l-1.71,0a.87.87,0,0,1-.75-.3,2.5,2.5,0,0,1-.19-1.51c.06-.54.24-1.57.87-1.74a.93.93,0,0,1,.75.19A2.37,2.37,0,0,1,384.55,119.18Z"/><path class="cls-2" d="M405.06,121c.43.17.88.29,1.32.45.27.09.67.22.93.32a.66.66,0,0,1,.38.39c.14.41-.48.7-.74.87l-1.44.92a.88.88,0,0,1-.79.18c-.43-.16-.79-.76-1-1.14s-.68-1.44-.26-1.94a1,1,0,0,1,.73-.26A2.46,2.46,0,0,1,405.06,121Z"/><path class="cls-2" d="M391.93,132.32c.44.17.88.29,1.32.44.27.1.67.22.93.33a.62.62,0,0,1,.38.38c.14.41-.47.71-.74.88l-1.44.92a.83.83,0,0,1-.78.17c-.44-.15-.8-.75-1-1.14s-.69-1.43-.27-1.93a1,1,0,0,1,.73-.27A2.72,2.72,0,0,1,391.93,132.32Z"/><path class="cls-2" d="M382.9,105.21c.44.17.88.28,1.32.44.27.09.67.22.93.32a.66.66,0,0,1,.38.39c.14.41-.47.7-.74.87l-1.44.93a.86.86,0,0,1-.78.17c-.44-.15-.8-.76-1-1.14s-.69-1.44-.27-1.93A1,1,0,0,1,382,105,2.72,2.72,0,0,1,382.9,105.21Z"/><path class="cls-6" d="M389.38,124.5c.43.17.88.28,1.32.44.27.09.67.22.93.32a.66.66,0,0,1,.38.39c.14.41-.47.7-.74.87l-1.44.93a.9.9,0,0,1-.79.17c-.43-.15-.79-.76-1-1.14s-.68-1.44-.26-1.94a1,1,0,0,1,.73-.26A2.72,2.72,0,0,1,389.38,124.5Z"/><path class="cls-2" d="M389.15,124.63c.42.16.85.29,1.28.43s.68.2,1,.35.41.47.15.7a4.7,4.7,0,0,1-.7.46l-1.13.73c-.13.08-.29.22-.46.19a.94.94,0,0,1-.4-.28,4.09,4.09,0,0,1-.9-1.63,1.14,1.14,0,0,1,0-1c.25-.33.83-.07,1.13,0a.5.5,0,0,0,.41,0c.06,0,.18-.17.05-.22a2.33,2.33,0,0,0-1.42-.19,1,1,0,0,0-.85.74,2,2,0,0,0,.19,1.17,5.23,5.23,0,0,0,.53,1,1.53,1.53,0,0,0,.95.74,2.14,2.14,0,0,0,1.41-.54l1.24-.8c.26-.16.64-.39.66-.73,0-.5-.58-.67-.95-.79-.59-.2-1.18-.37-1.76-.59a.49.49,0,0,0-.41,0C389.13,124.45,389,124.58,389.15,124.63Z"/><path class="cls-6" d="M381.17,113c.44.17.89.29,1.33.44.27.1.66.22.93.33a.68.68,0,0,1,.38.38c.13.41-.48.71-.75.88l-1.43.92a.85.85,0,0,1-.79.17,2.38,2.38,0,0,1-1-1.14c-.26-.48-.69-1.43-.26-1.93a1,1,0,0,1,.72-.27A2.65,2.65,0,0,1,381.17,113Z"/><path class="cls-2" d="M381,113.15c.42.16.86.28,1.29.43a5.82,5.82,0,0,1,1,.35c.74.42-.37.93-.68,1.13l-1.13.73a.52.52,0,0,1-.46.13,1.06,1.06,0,0,1-.37-.29,4.17,4.17,0,0,1-.88-1.63c-.07-.28-.16-.73.09-1s.85,0,1.15.1.68-.23.34-.36a2.32,2.32,0,0,0-1.42-.17,1,1,0,0,0-.8.81,2.22,2.22,0,0,0,.22,1.18,6.06,6.06,0,0,0,.55,1,1.5,1.5,0,0,0,1,.71,2.32,2.32,0,0,0,1.42-.6l1.22-.77c.26-.17.61-.42.61-.77,0-.51-.63-.67-1-.8-.58-.2-1.18-.37-1.76-.59C381.13,112.71,380.67,113,381,113.15Z"/><path class="cls-2" d="M394.34,113.85c0-.47-.11-.92-.16-1.39,0-.29-.08-.7-.09-1a.69.69,0,0,1,.19-.51c.31-.29.84.14,1.1.31l1.45.92a.87.87,0,0,1,.49.64,2.48,2.48,0,0,1-.62,1.39c-.33.44-1,1.22-1.65,1a1,1,0,0,1-.54-.55A2.64,2.64,0,0,1,394.34,113.85Z"/><path class="cls-2" d="M384,130c0-.47-.11-.93-.16-1.39,0-.29-.08-.7-.09-1a.68.68,0,0,1,.19-.51c.31-.3.84.14,1.1.31l1.45.92a.87.87,0,0,1,.49.64,2.45,2.45,0,0,1-.62,1.38c-.33.44-1,1.23-1.65,1.05a.94.94,0,0,1-.54-.55A2.54,2.54,0,0,1,384,130Z"/><path class="cls-2" d="M392.42,119.28c.4.25.81.44,1.22.68.25.14.62.33.86.48a.77.77,0,0,1,.3.45c.06.43-.6.61-.89.73l-1.58.64a.86.86,0,0,1-.81,0,2.41,2.41,0,0,1-.77-1.3c-.17-.53-.42-1.54.09-1.95a1,1,0,0,1,.76-.13A2.63,2.63,0,0,1,392.42,119.28Z"/><path class="cls-2" d="M400.43,132.55c.08.47.22.91.32,1.36.07.28.17.69.22,1a.69.69,0,0,1-.12.52c-.28.33-.85,0-1.14-.17l-1.55-.73a.86.86,0,0,1-.56-.57,2.43,2.43,0,0,1,.44-1.46c.27-.47.85-1.34,1.5-1.24a.92.92,0,0,1,.61.48A2.68,2.68,0,0,1,400.43,132.55Z"/><path class="cls-6" d="M400,116.2c.27-.38.5-.79.75-1.18.16-.24.38-.59.54-.82a.7.7,0,0,1,.47-.28c.43,0,.57.64.67.94.18.54.36,1.07.55,1.61a.89.89,0,0,1,0,.81,2.44,2.44,0,0,1-1.35.69c-.54.14-1.56.32-1.94-.21a.9.9,0,0,1-.08-.77A2.48,2.48,0,0,1,400,116.2Z"/><path class="cls-2" d="M400.22,116.2c.25-.36.47-.75.71-1.12l.31-.47a3.7,3.7,0,0,1,.31-.46.39.39,0,0,1,.1-.08c-.06,0,0,0,0,0a.28.28,0,0,1,.14.1,1.2,1.2,0,0,1,.2.37c.11.32.21.65.32,1a10.07,10.07,0,0,1,.42,1.28.72.72,0,0,1-.48.8,3.51,3.51,0,0,1-1.68.36.73.73,0,0,1-.74-.51,1.62,1.62,0,0,1,.41-1.25c.08-.11-.07-.15-.15-.15a.45.45,0,0,0-.38.15,1.93,1.93,0,0,0-.48,1.32.86.86,0,0,0,.74.7,4.22,4.22,0,0,0,2.32-.33,1.73,1.73,0,0,0,1-.71.94.94,0,0,0,0-.66c-.08-.29-.2-.57-.29-.86s-.27-.85-.43-1.27-.3-.62-.67-.62a1.14,1.14,0,0,0-.78.3,3.14,3.14,0,0,0-.42.59c-.33.51-.64,1-1,1.54-.08.11.06.15.15.15A.45.45,0,0,0,400.22,116.2Z"/><path class="cls-6" d="M392.35,107.79c-.39-.26-.8-.48-1.19-.73s-.6-.36-.83-.52a.7.7,0,0,1-.29-.46c0-.43.63-.58.93-.69l1.6-.57a.89.89,0,0,1,.81,0,2.48,2.48,0,0,1,.72,1.34c.14.53.34,1.55-.18,1.94a1,1,0,0,1-.77.1A2.53,2.53,0,0,1,392.35,107.79Z"/><path class="cls-2" d="M392.58,107.63c-.37-.25-.76-.46-1.13-.69l-.46-.28a3.23,3.23,0,0,1-.49-.33c-.23-.21-.21-.46.06-.58s.58-.21.86-.31.84-.32,1.27-.46a.52.52,0,0,1,.54.06,1.43,1.43,0,0,1,.28.38,4.09,4.09,0,0,1,.45,1.74c0,.25,0,.68-.25.83s-.87-.18-1.13-.36-.72.15-.45.33a2.19,2.19,0,0,0,1.39.48,1.07,1.07,0,0,0,.93-.67,3.3,3.3,0,0,0-.22-2.18,1.6,1.6,0,0,0-.75-1c-.5-.23-1.06.06-1.54.23s-.91.32-1.36.48-.71.28-.81.63c-.15.53.44.84.8,1.06.52.32,1.05.62,1.56,1C392.33,108.09,392.84,107.81,392.58,107.63Z"/><path class="cls-6" d="M405,130.73c-.39-.26-.8-.47-1.19-.73s-.6-.36-.83-.52a.7.7,0,0,1-.29-.46c0-.43.63-.58.92-.69l1.61-.57a.89.89,0,0,1,.81,0,2.55,2.55,0,0,1,.72,1.34c.14.53.34,1.55-.19,1.94a.92.92,0,0,1-.76.1A2.53,2.53,0,0,1,405,130.73Z"/><path class="cls-2" d="M405.22,130.63c-.36-.24-.75-.45-1.13-.69a7.12,7.12,0,0,1-.94-.6c-.24-.2-.31-.56,0-.73a4.69,4.69,0,0,1,.79-.29l1.28-.46a.51.51,0,0,1,.58.06,1.35,1.35,0,0,1,.31.4,4.5,4.5,0,0,1,.47,1.73,1.25,1.25,0,0,1-.22.94c-.12.12-.31,0-.46,0a2.5,2.5,0,0,1-.66-.36c-.09-.06-.27,0-.37,0s-.26.11-.17.17a2.13,2.13,0,0,0,1.34.47,1.16,1.16,0,0,0,1-.58,1.91,1.91,0,0,0,.09-1.11,5.18,5.18,0,0,0-.26-1,1.62,1.62,0,0,0-.7-1c-.48-.22-1.06.07-1.52.23l-1.42.5a1.36,1.36,0,0,0-.82.53c-.23.48.41.81.73,1,.52.32,1.05.62,1.56,1,.1.07.27,0,.37,0S405.31,130.69,405.22,130.63Z"/><path class="cls-7" d="M142.09,162.25a28.48,28.48,0,0,0,3.43-13c.18-4.68-.31-9.35-.39-14-.07-3.62,1.9-9.95-.77-12.91-2.07-2.3-5-1.23-7.08-.12-7.75,4.09-17.13,5.43-23.6,11.72-10,9.77-6.54,23.32-7.43,35.69-.17,2.26-1.66,6.88.84,8.4s5.33-.14,7.13-.94c6.74-3,14.71-3.41,21-7.48A21.07,21.07,0,0,0,142.09,162.25Z"/><path class="cls-2" d="M113.23,146.54c0-.41-.27-.32-.56-.3a3.56,3.56,0,0,0-1,.31,4.5,4.5,0,0,0-1.08.58,1.55,1.55,0,0,0-.45.47.64.64,0,0,0,0,.63c.2.36.73.33,1.14.22a3.72,3.72,0,0,0,1.31-.64A1.76,1.76,0,0,0,113.23,146.54Z"/><path class="cls-2" d="M121.19,142.49c0-.41-.27-.32-.56-.3a3.39,3.39,0,0,0-1,.31,4.57,4.57,0,0,0-1.09.58,1.68,1.68,0,0,0-.45.47.7.7,0,0,0,0,.63c.21.36.74.33,1.14.22a3.64,3.64,0,0,0,1.31-.64A1.76,1.76,0,0,0,121.19,142.49Z"/><path class="cls-2" d="M112.09,156c0-.4-.27-.31-.55-.3a3.46,3.46,0,0,0-1,.31,4.35,4.35,0,0,0-1.08.59,1.55,1.55,0,0,0-.46.46.7.7,0,0,0,0,.63c.21.36.74.33,1.14.22a3.34,3.34,0,0,0,1.31-.64A1.72,1.72,0,0,0,112.09,156Z"/><path class="cls-2" d="M118.75,150.8c0-.4-.27-.31-.55-.3a3.8,3.8,0,0,0-1,.31,4.35,4.35,0,0,0-1.08.59,1.55,1.55,0,0,0-.46.46.67.67,0,0,0,0,.63c.2.36.73.33,1.13.22a3.34,3.34,0,0,0,1.31-.64A1.7,1.7,0,0,0,118.75,150.8Z"/><path class="cls-2" d="M114.85,162.47c0-.41-.27-.32-.55-.3a3.78,3.78,0,0,0-1,.3,4.71,4.71,0,0,0-1.08.59,1.47,1.47,0,0,0-.46.47.68.68,0,0,0,0,.62c.21.37.74.34,1.14.22a3.34,3.34,0,0,0,1.31-.64A1.68,1.68,0,0,0,114.85,162.47Z"/><path class="cls-2" d="M121.73,158.92c0-.41-.27-.32-.55-.3a3.46,3.46,0,0,0-1,.31,4.32,4.32,0,0,0-1.08.58,1.58,1.58,0,0,0-.46.47.7.7,0,0,0,0,.63c.21.36.74.33,1.14.22a3.64,3.64,0,0,0,1.31-.64A1.72,1.72,0,0,0,121.73,158.92Z"/><path class="cls-2" d="M142.85,127.5c1.11,7.61,7.67,13.71,15.11,14.95,1,.17,2.92.62,3.68-.33.42-.53.25-1.36.18-2a18.93,18.93,0,0,0-.73-3.5c-1.29-4.18-4-8-8.16-9.68a22.09,22.09,0,0,0-6.93-1.4,5.3,5.3,0,0,0-2.47.24c-.73.32-.76,1-.68,1.68,0,.19.75,0,.73-.19-.06-.52-.15-.9.35-1.19a3,3,0,0,1,1.75-.2c.78.06,1.56.18,2.34.28a13.82,13.82,0,0,1,12.25,10.35,19,19,0,0,1,.65,2.57c.12.71.52,2.11.18,2.8s-1.65.35-2.29.26a17,17,0,0,1-2.63-.6,18.55,18.55,0,0,1-8-5,17.7,17.7,0,0,1-4.6-9.27C143.55,127.12,142.82,127.28,142.85,127.5Z"/><path class="cls-2" d="M143.24,126.44a31.86,31.86,0,0,1,4.33,3.54c1.44,1.27,3.08,2.21,4.58,3.39a54.45,54.45,0,0,1,8.75,8.75c.19.23.89,0,.67-.31a57,57,0,0,0-8.59-8.63c-1.62-1.3-3.41-2.32-5-3.7a29.56,29.56,0,0,0-4.22-3.43c-.25-.16-.9.19-.56.39Z"/><path class="cls-2" d="M152.5,133.59l3.68.85,1.8.41a7.57,7.57,0,0,1,1.77.54.59.59,0,0,0,.47,0s.34-.17.21-.23a15.84,15.84,0,0,0-3.52-1l-3.82-.87a.75.75,0,0,0-.51.08c-.06,0-.25.18-.08.22Z"/><path class="cls-2" d="M152.58,133.78a56,56,0,0,0,2,7.63c.06.17.77,0,.72-.2a57.32,57.32,0,0,1-2-7.62c0-.16-.76,0-.73.19Z"/><path class="cls-2" d="M148.55,130.46l8.69.28c.26,0,.78-.37.29-.38l-8.69-.28c-.25,0-.77.37-.29.38Z"/><path class="cls-2" d="M148.33,130.5a51.36,51.36,0,0,0,1.39,8c.07.3.8.1.72-.19a51.76,51.76,0,0,1-1.38-8c0-.29-.76-.12-.73.19Z"/><path class="cls-2" d="M157.93,138.63c1.09.09,2,.81,3,1.09a.59.59,0,0,0,.51-.14.16.16,0,0,0-.08-.29c-1.1-.29-2-1-3.21-1.12a.56.56,0,0,0-.48.21c-.08.15.08.24.21.25Z"/><path class="cls-2" d="M157.9,138.81a32.53,32.53,0,0,0,.7,3.67c.05.18.78,0,.73-.19a30.82,30.82,0,0,1-.7-3.67c0-.17-.75,0-.73.19Z"/><path class="cls-2" d="M145.1,127.64c2.31-.19,4.63-.34,7-.47.36,0,.59-.43.09-.41-2.32.13-4.63.28-6.95.47-.36,0-.59.46-.09.41Z"/><path class="cls-2" d="M145,127.87q.31,3.45.92,6.87c0,.31.78.13.72-.19q-.6-3.42-.92-6.88c0-.3-.75-.13-.72.2Z"/><path class="cls-2" d="M145.06,123.48c-.69.7-2.25,0-2.23-1a3.42,3.42,0,0,1,1-1.91c1.08-1.37,2.2-2.69,3.22-4.11.35-.48.71.36,1,.67a5.34,5.34,0,0,0,1.24,1.27c.26.18.13.43,0,.63C147.9,120.56,146.47,122,145.06,123.48Z"/><path class="cls-8" d="M142.11,126.06c.12-.42.24-.84.35-1.26s-.06-1.66.37-1.94c.24-.16.72,0,1,0a11.59,11.59,0,0,1,1.82.65,8.07,8.07,0,0,1,2.91,2c1.76,1.9,2.51,4.5,3,7a37.54,37.54,0,0,0,1.73,7.54,13,13,0,0,0,4.56,5.69,20.92,20.92,0,0,1-9.35-.31,11.44,11.44,0,0,1-7.13-5.75,12.76,12.76,0,0,1-.89-6.87,32.32,32.32,0,0,1,1.26-5.38C141.84,127,142,126.53,142.11,126.06Z"/><path class="cls-2" d="M145,126.16c1.06,1.14.85,2.81.63,4.22a17.92,17.92,0,0,0-.47,4.05,10.3,10.3,0,0,0,5,7.85c.28.16.91-.22.55-.43a9.66,9.66,0,0,1-4.78-8.26c.12-2.37,1.67-5.72-.22-7.75-.22-.24-.91,0-.66.32Z"/><path class="cls-7" d="M460.62,199.18a28.52,28.52,0,0,0-8.44-10.47c-3.65-2.93-7.7-5.3-11.52-8-3-2.09-6.88-7.44-10.84-7-3.08.3-3.94,3.29-4.3,5.63-1.3,8.67-5.79,17-4.57,26,1.91,13.88,14.89,19.1,24.32,27.16,1.72,1.47,4.55,5.41,7.26,4.31s3.05-4.38,3.47-6.3c1.59-7.2,6-13.87,6.43-21.32A21.11,21.11,0,0,0,460.62,199.18Z"/><path class="cls-2" d="M430.84,213.09c-.32-.25-.41,0-.57.27a3.67,3.67,0,0,0-.34,1,4.55,4.55,0,0,0-.17,1.22,1.57,1.57,0,0,0,.11.64.63.63,0,0,0,.49.39c.41,0,.7-.39.85-.78a3.57,3.57,0,0,0,.26-1.44A1.74,1.74,0,0,0,430.84,213.09Z"/><path class="cls-2" d="M432.31,204.28c-.33-.25-.42,0-.57.27a3.35,3.35,0,0,0-.34,1,4.11,4.11,0,0,0-.17,1.21,1.43,1.43,0,0,0,.1.65.67.67,0,0,0,.49.39c.41.05.7-.39.85-.78a3.58,3.58,0,0,0,.27-1.44A1.78,1.78,0,0,0,432.31,204.28Z"/><path class="cls-2" d="M437.78,219.61c-.33-.25-.42,0-.57.27a3.35,3.35,0,0,0-.34,1,4.6,4.6,0,0,0-.17,1.22,1.54,1.54,0,0,0,.1.64.66.66,0,0,0,.49.4c.41,0,.7-.4.85-.79a3.53,3.53,0,0,0,.27-1.43A1.8,1.8,0,0,0,437.78,219.61Z"/><path class="cls-2" d="M437.55,211.17c-.32-.25-.41,0-.57.27a4.06,4.06,0,0,0-.34,1,4.6,4.6,0,0,0-.17,1.22,1.54,1.54,0,0,0,.11.64.66.66,0,0,0,.49.4c.41,0,.7-.4.85-.79a3.52,3.52,0,0,0,.26-1.43A1.76,1.76,0,0,0,437.55,211.17Z"/><path class="cls-2" d="M444.63,221.23c-.33-.25-.42,0-.58.27a3.65,3.65,0,0,0-.33,1,4.62,4.62,0,0,0-.18,1.22,1.54,1.54,0,0,0,.11.64.66.66,0,0,0,.49.4c.41,0,.7-.4.85-.79a3.36,3.36,0,0,0,.26-1.43A1.75,1.75,0,0,0,444.63,221.23Z"/><path class="cls-2" d="M445.86,213.59c-.33-.25-.42,0-.58.27a4.06,4.06,0,0,0-.34,1,4.6,4.6,0,0,0-.17,1.22,1.54,1.54,0,0,0,.11.64.63.63,0,0,0,.49.39c.41.06.7-.39.85-.78a3.41,3.41,0,0,0,.26-1.44A1.73,1.73,0,0,0,445.86,213.59Z"/><path class="cls-2" d="M433,177.78c6.53,3.47,14.95,2.18,20.52-2.5.8-.68,3.07-2.35,2.71-3.63-.21-.74-1.24-1.16-1.83-1.48a18.46,18.46,0,0,0-2.91-1.3,15.52,15.52,0,0,0-12.54.57,20.69,20.69,0,0,0-5.11,4.31,7.17,7.17,0,0,0-1.75,2.38c-.28.85.21,1.25.91,1.65.22.13.88-.18.57-.36s-.88-.55-.84-1.09a2.62,2.62,0,0,1,.57-1.11,16.44,16.44,0,0,1,1.65-1.88,19,19,0,0,1,3.85-3.31,14.09,14.09,0,0,1,11.7-.93,19.45,19.45,0,0,1,2.64,1.07c.69.35,1.87.8,2.25,1.5.64,1.13-1.95,3.06-2.72,3.68a18,18,0,0,1-9,3.82,17.45,17.45,0,0,1-10.12-1.75C433.3,177.3,432.64,177.62,433,177.78Z"/><path class="cls-2" d="M432.63,176.85a39.94,39.94,0,0,1,5.91-1.49c1.73-.4,3.34-1.13,5-1.59a55.52,55.52,0,0,1,12-1.8c.38,0,.58-.49.08-.47a57.38,57.38,0,0,0-12.22,1.83c-1.84.5-3.58,1.28-5.45,1.69a35.71,35.71,0,0,0-5.69,1.46c-.47.19-.05.51.3.37Z"/><path class="cls-2" d="M444.1,173.44,447,171l1.39-1.19a7.05,7.05,0,0,1,1.42-1.07c.08,0,.21-.1.09-.17s-.41.05-.51.1a15.56,15.56,0,0,0-2.87,2.25l-3,2.61c-.13.11.11.11.16.11a.93.93,0,0,0,.49-.17Z"/><path class="cls-2" d="M443.85,173.75a58.52,58.52,0,0,0,7.33,2.91.49.49,0,0,0,.51-.14.23.23,0,0,0-.09-.37,56.46,56.46,0,0,1-7.33-2.91c-.32-.15-.84.31-.42.51Z"/><path class="cls-2" d="M439.09,175l5.38-6.83c.28-.35-.42-.39-.59-.17l-5.38,6.83c-.28.35.41.4.59.17Z"/><path class="cls-2" d="M438.62,175.17a51.6,51.6,0,0,0,7.32,3.67c.3.12.85-.31.42-.49a50.11,50.11,0,0,1-7.18-3.59c-.27-.16-.91.21-.56.41Z"/><path class="cls-2" d="M451.22,172.15c.73-.83,1.86-1.14,2.7-1.82.1-.09.1-.17-.05-.19a.82.82,0,0,0-.51.14c-.88.71-2,1-2.8,1.91-.1.12.1.15.18.14a.75.75,0,0,0,.48-.18Z"/><path class="cls-2" d="M451,172.39a32.5,32.5,0,0,0,3.37,1.61.54.54,0,0,0,.52-.06c.09-.06.22-.25.05-.32a30.65,30.65,0,0,1-3.37-1.62.55.55,0,0,0-.51.06c-.11.07-.21.24-.06.33Z"/><path class="cls-2" d="M434.74,176.06q1.83-3,3.75-5.87c.17-.26-.55-.18-.67,0q-1.92,2.91-3.75,5.88c-.16.26.56.18.67,0Z"/><path class="cls-2" d="M434.52,176.28q3,1.8,6.08,3.34a.51.51,0,0,0,.52-.06c.1-.07.21-.26.05-.34q-3.1-1.54-6.08-3.34c-.25-.15-.9.2-.57.4Z"/><path class="cls-2" d="M431.17,173.78A1.44,1.44,0,0,1,429,175a3.33,3.33,0,0,1-.94-1.95c-.46-1.68-.86-3.37-1.39-5-.19-.57.71-.36,1.1-.36a5.51,5.51,0,0,0,1.76-.25c.3-.11.42.15.48.4C430.51,169.77,430.81,171.77,431.17,173.78Z"/><path class="cls-8" d="M431.5,177.69l-.81-1c-.3-.37-1.38-.94-1.35-1.45,0-.29.41-.59.61-.76a11.5,11.5,0,0,1,1.6-1.08,8.07,8.07,0,0,1,3.31-1.17,13.87,13.87,0,0,1,7.45,1.77,36.75,36.75,0,0,0,7.09,3.08,13.11,13.11,0,0,0,7.29-.3,21,21,0,0,1-5.8,7.34,11.41,11.41,0,0,1-8.86,2.33,12.55,12.55,0,0,1-6-3.36,31.23,31.23,0,0,1-3.59-4.2Z"/><path class="cls-2" d="M433.21,175.21c1.48-.17,2.73,1,3.7,2a17.36,17.36,0,0,0,3,2.81,10.7,10.7,0,0,0,9.59.54c.43-.18-.25-.17-.42-.1a9.29,9.29,0,0,1-9.85-1.81c-1.55-1.52-3.25-4-5.71-3.75-.19,0-.78.36-.31.3Z"/><path class="cls-9" d="M127.59,40.22a18.16,18.16,0,0,1-10.84,12.26,5.41,5.41,0,0,1-2.43.47c-1.91-.2-3.18-2-3.94-3.79A21.8,21.8,0,0,1,108.89,37a16.11,16.11,0,0,0-2.29-.11l-2.38-.12-4.77-.25L89.91,36c-2.27-.12-4.55-.26-6.82-.46-1.68-.13-.62,2-.35,2.72q.67,2,1.17,4c.3,1.23.4,2.54.77,3.75.52,2.33,2.86,2.31,4.81,1.91a39.63,39.63,0,0,0,6.36-1.47l-7.22,2.93a3.39,3.39,0,0,0-1.59,1c-.61.86-.29,2.05.12,3a21.16,21.16,0,0,0,3.25,5.34c.92,1.09,1.67,2.37,3,1.86,1.9-.73,3-2.59,6.61-4.37-2,2.12-4.31,3.84-5.35,6.6C93.87,64.94,96,67,97.55,68.46a24.4,24.4,0,0,0,7.62,4.7c.47.18.5.18.81-.22l.79-1,1.53-2,3-4.05,2-2.59a32,32,0,0,0-.64,11.08c.1.92.38,1.65,1.36,1.82a9.58,9.58,0,0,0,2.27-.11q2-.15,4-.39c2.61-.33,5.2-.79,7.77-1.36a.9.9,0,0,0,.39-.16c.24-.23.11-1.12.11-1.43,0-.63,0-1.26-.07-1.88a25.7,25.7,0,0,0-.53-3.71,17.87,17.87,0,0,0-2.18-5.77,17.81,17.81,0,0,0,2.87,3.61q1.83,1.95,3.79,3.78c.21.19.88.64,1,.92.92.9,2.14,2.28,3.59,1.7a4,4,0,0,0,1.43-1.18c1.12-1.34,2.33-2.61,3.52-3.88.59-.64,1.18-1.29,1.76-2,.41-.47,1.21-1.22,1.1-1.92-.09-.55-1.62-1.52-2-1.88-2.25-1.91-4.53-3.78-6.75-5.72a20.07,20.07,0,0,1,4,1.37c1.13.43,2.25.86,3.37,1.32a13.41,13.41,0,0,0,3.06,1.3,3.78,3.78,0,0,0,3.75-.38,7.94,7.94,0,0,0,2.13-3.21,22.52,22.52,0,0,0,1.76-7.63,7.45,7.45,0,0,0,.12-1.76c-.16-.9-.84-.78-1.6-.8-2.42-.06-4.81-.11-7.21-.38a70.76,70.76,0,0,1-7.08-1.22A71.12,71.12,0,0,1,127.59,40.22Z"/><path class="cls-2" d="M135.46,63.2q-5.73-4.58-11.05-9.63c-.14-.13-.68.08-.54.22q5.31,5.06,11,9.63c.15.12.68-.1.54-.22Z"/><path class="cls-2" d="M122.18,68.69a19.71,19.71,0,0,1-1.37-5.6c0-.11-.59,0-.58.15a19.63,19.63,0,0,0,1.37,5.6c.05.14.62,0,.58-.15Z"/><path class="cls-2" d="M119.12,69c-.36-3.78-.79-7.55-1.32-11.31,0-.18-.61-.05-.58.16q.8,5.64,1.32,11.31c0,.18.6,0,.58-.16Z"/><path class="cls-2" d="M110.19,59.61c-1.66,1.86-3.39,3.66-5.19,5.38-.15.14.13.19.21.19a.9.9,0,0,0,.58-.22c1.81-1.72,3.54-3.52,5.2-5.38.13-.15-.12-.19-.22-.19a.87.87,0,0,0-.58.22Z"/><path class="cls-2" d="M109,54.18a35.85,35.85,0,0,1-7.76,8.22c-.16.12.14.12.2.12a1.14,1.14,0,0,0,.58-.21A36.32,36.32,0,0,0,109.89,54c.08-.12-.32-.07-.34-.07a.89.89,0,0,0-.52.23Z"/><path class="cls-2" d="M145.35,50.12q-8.11-1.51-16.09-3.58c-.25-.06-.69.3-.34.39Q137,49,145.15,50.54c.28.05.58-.35.2-.42Z"/><path class="cls-2" d="M106.29,48a74.24,74.24,0,0,1-13,5.9c-.48.17,0,.3.26.2a75.43,75.43,0,0,0,13.2-6c.42-.24-.24-.23-.42-.12Z"/><path class="cls-2" d="M104.21,39.18a112.35,112.35,0,0,0-16.61.9c-.4.06-.56.6-.07.54a112.51,112.51,0,0,1,16.61-.91c.42,0,.56-.52.07-.53Z"/><path class="cls-2" d="M100.3,41.83c-3,.1-6,.34-8.94.7-.39,0-.57.57-.07.51,3-.37,5.95-.6,8.94-.71.4,0,.56-.52.07-.5Z"/><path class="cls-2" d="M141.51,53.35q-3.8-1.35-7.67-2.48c-.13,0-.63.17-.48.21,2.56.75,5.09,1.57,7.61,2.46a.6.6,0,0,0,.37,0s.26-.12.17-.15Z"/><path class="cls-9" d="M462.24,54.46a18.16,18.16,0,0,1-7.15-14.73,5.27,5.27,0,0,1,.51-2.42c.91-1.68,3.1-2.15,5-2.17a21.71,21.71,0,0,1,11.83,3.31,15.33,15.33,0,0,0,1-2.06l1-2.16,2.06-4.3,4.12-8.62c1-2,2-4.1,3.05-6.12.76-1.5-1.56-1.32-2.38-1.37-1.38-.09-2.76-.24-4.13-.45s-2.5-.61-3.76-.74c-2.35-.41-3.23,1.75-3.61,3.71a40.2,40.2,0,0,0-1.1,6.43l.08-7.8a3.46,3.46,0,0,0-.34-1.86c-.56-.89-1.78-1-2.84-1a21.18,21.18,0,0,0-6.17.95c-1.36.42-2.83.62-2.87,2-.06,2,1.22,3.81,1.49,7.78-1.19-2.66-1.88-5.45-4-7.48-1.62-1.53-4.37-.37-6.29.52a24.25,24.25,0,0,0-7.28,5.22c-.34.36-.36.39-.11.83l.67,1.13,1.28,2.19,2.56,4.37,1.64,2.8a31.83,31.83,0,0,0-10-4.87c-.89-.26-1.67-.28-2.2.56a9.6,9.6,0,0,0-.77,2.14c-.43,1.27-.83,2.56-1.19,3.86-.7,2.53-1.28,5.1-1.74,7.69a.85.85,0,0,0,0,.42c.12.31,1,.53,1.28.65.58.24,1.16.47,1.76.67a26.46,26.46,0,0,0,3.63.93,18,18,0,0,0,6.16.22A18,18,0,0,0,439,45.93c-1.68.62-3.33,1.31-4.95,2-.26.11-.94.56-1.22.53-1.19.51-2.94,1.1-3,2.66a3.83,3.83,0,0,0,.53,1.78c.81,1.54,1.51,3.15,2.23,4.74.36.79.73,1.59,1.12,2.37.27.56.66,1.59,1.35,1.76s2-.91,2.52-1.17c2.63-1.34,5.24-2.72,7.88-4a20.12,20.12,0,0,1-2.8,3.13c-.82.88-1.66,1.75-2.51,2.6a13.37,13.37,0,0,0-2.37,2.32,3.81,3.81,0,0,0-1.1,3.62,7.9,7.9,0,0,0,2.14,3.19,22.4,22.4,0,0,0,6.37,4.57,7.7,7.7,0,0,0,1.57.79c.9.2,1.05-.48,1.36-1.17,1-2.21,1.95-4.4,3.13-6.51a69.68,69.68,0,0,1,3.84-6.07A71.5,71.5,0,0,1,462.24,54.46Z"/><path class="cls-2" d="M438.12,52.73q6.42-3.52,13.14-6.49c.37-.16,0-.42-.24-.29q-6.72,3-13.15,6.48c-.35.2,0,.45.25.3Z"/><path class="cls-2" d="M437.89,38.32a19.33,19.33,0,0,1,5.65.89c.13,0,.63-.17.48-.22a20,20,0,0,0-5.75-.9.67.67,0,0,0-.41.11c-.07.06-.09.12,0,.12Z"/><path class="cls-2" d="M438.71,35.37q5.44,1.7,11,3.14c.15,0,.66-.19.48-.24q-5.52-1.44-10.95-3.14c-.15,0-.66.18-.48.24Z"/><path class="cls-2" d="M451.33,31.19q-1.62-3.37-3-6.86c-.1-.25-.95,0-.87.23q1.33,3.5,3,6.86c.12.25,1,0,.87-.23Z"/><path class="cls-2" d="M456.84,32.27a36.08,36.08,0,0,1-4.62-10.38c0-.17-.91.06-.87.23A36.35,36.35,0,0,0,456,32.5c.13.2.92-.15.87-.23Z"/><path class="cls-2" d="M446.39,66.82q4.51-6.91,9.51-13.5c.13-.16-.43-.09-.53,0q-5,6.61-9.55,13.56c-.06.08.47.06.57-.09Z"/><path class="cls-2" d="M463.5,31.89a74.45,74.45,0,0,1-.43-14.39c0-.12-.71,0-.73.19a75.23,75.23,0,0,0,.43,14.39c0,.15.75,0,.73-.19Z"/><path class="cls-2" d="M472.32,33.09a111.8,111.8,0,0,0,5.56-15.67c.06-.21-.66-.11-.72.1A111.48,111.48,0,0,1,471.6,33.2c-.08.18.63.1.72-.11Z"/><path class="cls-2" d="M471.4,28.47q1.58-4.2,2.79-8.52c.06-.23-.66-.13-.72.1q-1.22,4.32-2.79,8.52c-.08.21.64.13.72-.1Z"/><path class="cls-2" d="M445,62c1.8-2,3.54-4,5.22-6.1.23-.28-.33-.32-.47-.14-1.69,2.09-3.43,4.12-5.23,6.11-.24.26.32.3.48.13Z"/><path class="cls-9" d="M324.38,213.58a18.15,18.15,0,0,1,1.67,16.28,5.25,5.25,0,0,1-1.3,2.1c-1.44,1.27-3.65,1-5.46.33a21.78,21.78,0,0,1-10-7.17,16.13,16.13,0,0,0-1.64,1.6l-1.7,1.67-3.42,3.35-6.82,6.68c-1.62,1.59-3.27,3.17-5,4.7-1.23,1.15,1,1.78,1.76,2.1,1.27.56,2.52,1.18,3.73,1.85s2.14,1.42,3.28,2c2.07,1.2,3.63-.53,4.66-2.24a40.28,40.28,0,0,0,3.24-5.67l-2.74,7.3a3.29,3.29,0,0,0-.32,1.86c.22,1,1.31,1.61,2.3,2a21.06,21.06,0,0,0,6.13,1.22c1.42.07,2.87.39,3.39-.93.75-1.89.16-4,1.26-7.82.22,2.91-.09,5.77,1.23,8.41,1,2,4,1.85,6.09,1.67a24.24,24.24,0,0,0,8.62-2.41c.45-.22.47-.25.39-.74l-.24-1.3-.45-2.49-.91-5-.59-3.19a32,32,0,0,0,7.71,8c.75.55,1.48.84,2.27.23a10.07,10.07,0,0,0,1.45-1.74c.84-1.06,1.66-2.13,2.44-3.23,1.53-2.13,2.95-4.35,4.26-6.62a.79.79,0,0,0,.15-.4c0-.34-.75-.84-1-1-.46-.43-.93-.83-1.42-1.23a26,26,0,0,0-3.09-2.12,17.92,17.92,0,0,0-5.72-2.31,17.72,17.72,0,0,0,4.6.34c1.78,0,3.57-.09,5.35-.23a4,4,0,0,1,1.33-.08c1.28-.07,3.13,0,3.68-1.49a3.85,3.85,0,0,0,.11-1.85c-.23-1.73-.34-3.48-.48-5.22-.06-.87-.13-1.74-.23-2.61-.07-.62-.08-1.72-.67-2.11s-2.22.15-2.77.22c-2.92.37-5.85.77-8.78,1.09a20.83,20.83,0,0,1,3.7-2c1.08-.54,2.16-1.07,3.25-1.58a13.63,13.63,0,0,0,3-1.37,3.8,3.8,0,0,0,2.27-3,8,8,0,0,0-.92-3.73,22.2,22.2,0,0,0-4.42-6.47,7.4,7.4,0,0,0-1.21-1.29c-.77-.49-1.15.1-1.67.64-1.69,1.73-3.34,3.46-5.17,5s-3.73,3-5.69,4.39A73.19,73.19,0,0,1,324.38,213.58Z"/><path class="cls-2" d="M346.55,223.47q-7.24,1.11-14.57,1.6c-.29,0-.48.36-.08.34q7.32-.49,14.58-1.6c.28,0,.47-.4.07-.34Z"/><path class="cls-2" d="M341.68,237a19.25,19.25,0,0,1-5-2.78c-.17-.13-.69.12-.45.31a19.64,19.64,0,0,0,5.09,2.81c.21.08.68-.22.35-.34Z"/><path class="cls-2" d="M339.91,239.44q-4.53-3.47-9.22-6.71c-.2-.13-.71.15-.45.33q4.69,3.24,9.22,6.7c.19.15.7-.13.45-.32Z"/><path class="cls-2" d="M326.67,239.33c.25,2.48.39,5,.44,7.46,0,.2.87.05.87-.23-.05-2.5-.19-5-.44-7.47,0-.21-.89,0-.87.24Z"/><path class="cls-2" d="M321.87,236.43a36.29,36.29,0,0,1,.78,11.33c0,.09.85,0,.87-.23a36.25,36.25,0,0,0-.78-11.33c0-.17-.92.05-.87.23Z"/><path class="cls-2" d="M343.55,207.4q-6.6,4.93-13.53,9.4c-.33.22.17.3.35.18q7-4.5,13.65-9.49c.26-.19-.32-.2-.47-.09Z"/><path class="cls-2" d="M315.48,234.44A74.75,74.75,0,0,1,311,248.11c-.08.17.63.1.72-.11a75.52,75.52,0,0,0,4.52-13.67c.05-.22-.67-.1-.72.11Z"/><path class="cls-2" d="M307.66,230.21A111,111,0,0,0,297,243.08c-.2.27.53.22.67,0a111.07,111.07,0,0,1,10.55-12.77c.29-.3-.41-.3-.58-.12Z"/><path class="cls-2" d="M306.9,234.94q-2.92,3.41-5.54,7.05c-.16.23.55.14.66,0q2.63-3.65,5.54-7.05c.11-.13-.1-.16-.18-.16a.68.68,0,0,0-.48.18Z"/><path class="cls-2" d="M343.19,212.45c-2.37,1.24-4.7,2.56-7,3.94-.33.2.19.22.35.12,2.29-1.38,4.62-2.7,7-3.94.09,0,.15-.12.06-.19s-.33,0-.41.07Z"/><path class="cls-10" d="M50.11,35.87c-2.37-2.35-4.69-4.49-8.22-4.66-1.11-.06-2.23.09-3.34,0s-2.06-.79-3.18-.88a26.53,26.53,0,0,0-5.49.17,23.06,23.06,0,0,0-10.13,3.91,19.61,19.61,0,0,0-8.41,15.88c.08,5,2.31,9.78,5.39,13.73a19.93,19.93,0,0,0,4.91,4.7c3.08,2,6.79,2.7,10.44,3.07,5.64.57,11.51.35,16.74-1.85s9.74-6.64,10.93-12.19a18.3,18.3,0,0,0-2-12.06A39.74,39.74,0,0,0,50.11,35.87Z"/><path class="cls-2" d="M43.07,33.51A2.75,2.75,0,0,0,42.55,32a1.83,1.83,0,0,0-1.1-.89c-.65-.1-1.32.17-2,.12a7.54,7.54,0,0,1-2.16-.43c-.24-.1-.54-.19-.78-.28a4.09,4.09,0,0,0-1-.24,10.43,10.43,0,0,0-2.09,0,2.05,2.05,0,0,0-.8.2.78.78,0,0,0-.44.65c0,.4.37.7.74.86a3.74,3.74,0,0,0,2.14.24,3.62,3.62,0,0,0-1.45.7,1.06,1.06,0,0,0-.48.78.77.77,0,0,0,.44.67,1.44,1.44,0,0,0,.82.15,4.64,4.64,0,0,0,2.95-1.64,4.39,4.39,0,0,0-.7,1.54,1.4,1.4,0,0,0,.15,1.2,1.06,1.06,0,0,0,1.32.15,2.37,2.37,0,0,0,.88-1.11,5.89,5.89,0,0,0,.45-1.52,6.5,6.5,0,0,0,.7,1,4.77,4.77,0,0,0,.89.66,1.45,1.45,0,0,0,1.37.11,1.23,1.23,0,0,0,.49-.63A2.28,2.28,0,0,0,43.07,33.51Z"/><path class="cls-3" d="M38.6,32.26c-.08,0-.12-.23-.15-.3a4.83,4.83,0,0,1-.16-.5,6.1,6.1,0,0,1-.21-1.05,9.92,9.92,0,0,1,0-2.11,8.84,8.84,0,0,1,.16-1.15A16.61,16.61,0,0,1,46.42,16c5-2.69,11-2.58,16.64-2.79a4,4,0,0,0,2.37-.85,30,30,0,0,1-2.82,6.18,15.91,15.91,0,0,1-3.69,4.58A20,20,0,0,1,53.21,26a75.23,75.23,0,0,1-7.63,2.3,25.15,25.15,0,0,0-3.5,1.05,6.66,6.66,0,0,0-2.81,2,4.27,4.27,0,0,0-.3.44,1.41,1.41,0,0,1-.27.44S38.63,32.28,38.6,32.26Z"/><path class="cls-2" d="M41.1,27.46c1-2.07,2.15-3.81,4.41-4.66A37.71,37.71,0,0,1,51,21.5,23.58,23.58,0,0,0,56,20a16.45,16.45,0,0,0,4.38-3.23c.29-.28-.42-.24-.58-.09a14.65,14.65,0,0,1-5.59,3.64,55.26,55.26,0,0,1-5.83,1.33,14.84,14.84,0,0,0-4.71,1.6,9.62,9.62,0,0,0-3.33,4.29c-.1.19.61.12.72-.1Z"/><path class="cls-3" d="M36.61,28.85a.92.92,0,0,0,.23-.09,2.36,2.36,0,0,0,.81-1.44A10.22,10.22,0,0,0,36,18.38C32.65,14.55,28.35,11.68,25.92,6c-.37,2.07-.56,3.48-.86,5.22A18.32,18.32,0,0,0,25.68,20,12.31,12.31,0,0,0,31,26.49,18.27,18.27,0,0,0,33.9,28.1C34.63,28.41,35.81,29.08,36.61,28.85Z"/><path class="cls-10" d="M235.69,117.08c-2.27-2.26-4.5-4.32-7.89-4.48-1.06,0-2.14.09-3.2,0s-2-.75-3-.84a24.43,24.43,0,0,0-5.27.17,22.19,22.19,0,0,0-9.72,3.74,18.82,18.82,0,0,0-8.07,15.24c.07,4.8,2.22,9.39,5.16,13.18a19.63,19.63,0,0,0,4.72,4.51c2.95,1.9,6.52,2.59,10,3,5.41.54,11,.33,16.06-1.78s9.35-6.37,10.49-11.7A17.59,17.59,0,0,0,243,126.47,38,38,0,0,0,235.69,117.08Z"/><path class="cls-2" d="M228.94,114.81a2.62,2.62,0,0,0-.51-1.44,1.69,1.69,0,0,0-1.05-.86c-.63-.1-1.26.16-1.9.11a6.86,6.86,0,0,1-2.07-.41c-.23-.1-.52-.18-.75-.27a3.65,3.65,0,0,0-.92-.23,11.24,11.24,0,0,0-2,0,2,2,0,0,0-.76.19.75.75,0,0,0-.43.63c0,.38.36.67.72.82a3.51,3.51,0,0,0,2.05.23,3.52,3.52,0,0,0-1.39.67,1,1,0,0,0-.47.76.76.76,0,0,0,.42.64,1.53,1.53,0,0,0,.79.14,4.44,4.44,0,0,0,2.84-1.58,4.13,4.13,0,0,0-.67,1.48,1.32,1.32,0,0,0,.13,1.15,1,1,0,0,0,1.27.15,2.21,2.21,0,0,0,.85-1.07,6.13,6.13,0,0,0,.43-1.46,6.21,6.21,0,0,0,.67,1,4.73,4.73,0,0,0,.85.64,1.41,1.41,0,0,0,1.32.1,1.15,1.15,0,0,0,.47-.61A2.25,2.25,0,0,0,228.94,114.81Z"/><path class="cls-3" d="M224.65,113.61c-.08,0-.12-.22-.15-.29s-.11-.31-.16-.47a8.59,8.59,0,0,1-.2-1,9.84,9.84,0,0,1,0-2,6.77,6.77,0,0,1,.15-1.1A15.89,15.89,0,0,1,232.15,98c4.79-2.59,10.52-2.48,16-2.68a3.78,3.78,0,0,0,2.27-.81,28.51,28.51,0,0,1-2.7,5.92,15.29,15.29,0,0,1-3.55,4.4,18.88,18.88,0,0,1-5.48,2.73,71.69,71.69,0,0,1-7.32,2.21,23.06,23.06,0,0,0-3.35,1,6.38,6.38,0,0,0-2.7,1.93c-.1.13-.2.28-.29.42a1.59,1.59,0,0,1-.26.43S224.67,113.63,224.65,113.61Z"/><path class="cls-2" d="M227,109.07c.95-1.9,1.95-3.57,4-4.4a29.77,29.77,0,0,1,5.36-1.32,22.48,22.48,0,0,0,5-1.46,15.4,15.4,0,0,0,4.2-3.1c.31-.29-.4-.3-.58-.13a14,14,0,0,1-5.12,3.4,47.78,47.78,0,0,1-5.68,1.33,14.91,14.91,0,0,0-4.56,1.5,9.11,9.11,0,0,0-3.29,4.15c-.16.32.56.25.67,0Z"/><path class="cls-3" d="M222.74,110.34a.78.78,0,0,0,.21-.09,2.21,2.21,0,0,0,.78-1.38,9.78,9.78,0,0,0-1.6-8.58c-3.19-3.68-7.32-6.42-9.66-11.87-.35,2-.53,3.35-.82,5a17.42,17.42,0,0,0,.6,8.41,11.78,11.78,0,0,0,5.09,6.23,16.71,16.71,0,0,0,2.8,1.54C220.84,109.92,222,110.56,222.74,110.34Z"/><path class="cls-10" d="M504.16,221.88c-2.14-2.12-4.24-4.06-7.43-4.21-1,0-2,.08-3,0s-1.87-.71-2.88-.79a24.19,24.19,0,0,0-5,.15,20.87,20.87,0,0,0-9.15,3.53,17.73,17.73,0,0,0-7.6,14.35c.07,4.52,2.09,8.84,4.86,12.41a18.66,18.66,0,0,0,4.44,4.25,21.31,21.31,0,0,0,9.44,2.77c5.1.52,10.4.32,15.12-1.67s8.8-6,9.88-11a16.61,16.61,0,0,0-1.8-10.9A36.41,36.41,0,0,0,504.16,221.88Z"/><path class="cls-2" d="M497.8,219.75a2.48,2.48,0,0,0-.47-1.36,1.61,1.61,0,0,0-1-.81c-.59-.09-1.19.15-1.78.11a6.38,6.38,0,0,1-1.95-.39c-.22-.09-.5-.17-.71-.25a3.37,3.37,0,0,0-.87-.22,9.84,9.84,0,0,0-1.88,0,1.83,1.83,0,0,0-.73.18.71.71,0,0,0-.4.59c0,.36.34.63.68.77a3.27,3.27,0,0,0,1.93.22,3.32,3.32,0,0,0-1.31.63,1,1,0,0,0-.44.71.72.72,0,0,0,.39.61,1.47,1.47,0,0,0,.75.13,4.2,4.2,0,0,0,2.67-1.49,3.85,3.85,0,0,0-.63,1.4,1.26,1.26,0,0,0,.12,1.08,1,1,0,0,0,1.2.14,2.09,2.09,0,0,0,.8-1,5.59,5.59,0,0,0,.4-1.38,5.28,5.28,0,0,0,.64.93,4.64,4.64,0,0,0,.8.6,1.29,1.29,0,0,0,1.23.1,1,1,0,0,0,.45-.57A2.06,2.06,0,0,0,497.8,219.75Z"/><path class="cls-3" d="M493.76,218.62c-.07,0-.11-.21-.13-.28a3.26,3.26,0,0,1-.15-.44,6.15,6.15,0,0,1-.19-1,9.39,9.39,0,0,1,0-1.91,9,9,0,0,1,.14-1A15,15,0,0,1,500.82,204c4.52-2.44,9.91-2.34,15-2.53a3.59,3.59,0,0,0,2.14-.76,27.51,27.51,0,0,1-2.54,5.58,14.57,14.57,0,0,1-3.34,4.14A18.06,18.06,0,0,1,507,213a68.51,68.51,0,0,1-6.9,2.08,21.56,21.56,0,0,0-3.15.95,6.09,6.09,0,0,0-2.54,1.81,3.62,3.62,0,0,0-.27.41,1.62,1.62,0,0,1-.25.39A.07.07,0,0,1,493.76,218.62Z"/><path class="cls-2" d="M496.05,214.27c.93-1.87,1.92-3.45,3.95-4.22a35.13,35.13,0,0,1,5.25-1.24,20.43,20.43,0,0,0,4.35-1.32,14.44,14.44,0,0,0,3.94-2.91c.16-.15-.52-.09-.66,0a13,13,0,0,1-5,3.26,54.7,54.7,0,0,1-5.5,1.26,13.39,13.39,0,0,0-3.95,1.35,8.59,8.59,0,0,0-3.08,3.9c-.06.12.62.07.72-.12Z"/><path class="cls-3" d="M492,215.54a.88.88,0,0,0,.2-.09,2.12,2.12,0,0,0,.73-1.29,9.22,9.22,0,0,0-1.51-8.08c-3-3.47-6.89-6.06-9.09-11.18-.33,1.87-.5,3.15-.78,4.72a16.44,16.44,0,0,0,.57,7.93,11.07,11.07,0,0,0,4.79,5.86,15.81,15.81,0,0,0,2.63,1.45C490.17,215.14,491.24,215.74,492,215.54Z"/><path class="cls-2" d="M189.58,94c-2.66,4.1-7,7.18-11.24,9.42-3.74,2-8,3.6-12.31,3.52-3.57-.06-8.14-.87-10.05-3.9-2.74-4.34-3.74-8.14-2.53-12.53,1.72-6.2,6-15.48,9.83-19.89Z"/><path class="cls-7" d="M190.6,84.83a17,17,0,0,0-6-9.88c-3.75-3.09-7.14-6.27-12.08-7.13-3.21-.55-6.8.21-9,2.59s-2.82,6.28-2,9.6,2.66,6.26,4.58,9.08c1.58,2.31,3.27,4.65,5.69,6.06a17.7,17.7,0,0,0,7.6,1.88c3.46.27,7.38.12,9.76-2.4S191.35,88.2,190.6,84.83Z"/><path class="cls-2" d="M165.14,69.11c1.26,1.54,2.6,3,3.93,4.49s2.4,2.94,3.58,4.42c.14.18.69,0,.53-.24-1.18-1.48-2.31-3-3.58-4.42s-2.67-2.94-3.92-4.49c-.14-.18-.7,0-.54.24Z"/><path class="cls-2" d="M173.69,68.2c.36,2.67.62,5.34.79,8,0,.13.59,0,.58-.16-.17-2.68-.43-5.36-.79-8,0-.14-.61,0-.58.15Z"/><path class="cls-2" d="M179.27,77.86l1.49-2.78a14.9,14.9,0,0,1,1.41-2.28c.08-.1-.07-.13-.15-.13a.61.61,0,0,0-.38.15,14.71,14.71,0,0,0-1.41,2.26L178.7,78c-.06.1.2.09.24.08a.47.47,0,0,0,.33-.17Z"/><path class="cls-2" d="M161.16,79q5.35.85,10.72,1.57c.28,0,.59-.36.2-.42-3.57-.47-7.15-1-10.71-1.57-.29,0-.6.35-.21.42Z"/><path class="cls-2" d="M166.34,88.85c2.12-1.5,4.2-3.06,6.46-4.35.11-.06,0-.11,0-.13a.69.69,0,0,0-.41.11c-2.26,1.29-4.34,2.85-6.46,4.35-.1.07-.06.1,0,.13a.77.77,0,0,0,.41-.11Z"/><path class="cls-2" d="M173.66,95.79a43.1,43.1,0,0,0,3.59-7.39c.06-.16-.51-.09-.57.08a42,42,0,0,1-3.56,7.32c-.12.2.45.13.54,0Z"/><path class="cls-2" d="M184.35,96.67a38.83,38.83,0,0,1-3.87-7.9c0-.15-.62,0-.58.15a38.33,38.33,0,0,0,3.87,7.9c.1.15.64-.07.58-.15Z"/><path class="cls-2" d="M190.93,91.1q-4.5-2.2-8.87-4.65c-.16-.09-.69.14-.47.27q4.38,2.44,8.88,4.65c.16.08.69-.16.46-.27Z"/><path class="cls-2" d="M182,81.84q3.18-1.17,6.44-2.14c.05,0,.29-.09.26-.18s-.26,0-.32,0c-2.22.66-4.41,1.39-6.59,2.18-.07,0-.23.1-.17.19s.32,0,.38,0Z"/><path class="cls-6" d="M155.84,94.58a14.21,14.21,0,0,1,1-2c.06-.11-.26-.07-.29-.06s-.36.07-.43.19a13.18,13.18,0,0,0-1,2c0,.12.24.08.29.07a1.22,1.22,0,0,0,.27-.09c.05,0,.13,0,.15-.11Z"/><path class="cls-6" d="M158.57,98.44l1.06-1.84c.08-.14-.07-.19-.2-.19a.63.63,0,0,0-.48.19l-1,1.84c-.08.14.07.2.19.2s.4,0,.48-.2Z"/><path class="cls-6" d="M158.25,87.21a7.22,7.22,0,0,1,.85-1.32c.1-.13-.09-.18-.19-.18a.71.71,0,0,0-.48.19,7.56,7.56,0,0,0-.9,1.42c0,.05,0,.09.07.11a.44.44,0,0,0,.23,0,.53.53,0,0,0,.42-.23Z"/><path class="cls-6" d="M162.54,96.53a16.44,16.44,0,0,1,.93-1.47c.09-.13-.09-.2-.2-.2a.62.62,0,0,0-.48.2,14,14,0,0,0-.93,1.47.12.12,0,0,0,0,.14.3.3,0,0,0,.2.06.71.71,0,0,0,.28-.06.41.41,0,0,0,.2-.14Z"/><path class="cls-6" d="M160.26,103.07a11.54,11.54,0,0,0,1.16-1.61s0-.07-.07-.08a.36.36,0,0,0-.23,0,.6.6,0,0,0-.42.2,11,11,0,0,1-1.1,1.53c-.1.12.09.14.18.14a1.4,1.4,0,0,0,.28-.06.51.51,0,0,0,.2-.12Z"/><path class="cls-6" d="M159.81,92.15A6.54,6.54,0,0,1,161,90.38c.12-.12-.1-.14-.18-.14a.79.79,0,0,0-.48.18,6.66,6.66,0,0,0-1.26,1.85c-.06.13.25.1.29.09a1.31,1.31,0,0,0,.28-.09c.05,0,.12-.06.14-.12Z"/><path class="cls-6" d="M169.2,100l1-1.82s0-.09,0-.13-.14,0-.19,0a.93.93,0,0,0-.29,0c-.06,0-.16.07-.19.14l-1,1.82s-.05.09,0,.13a.29.29,0,0,0,.2,0,.92.92,0,0,0,.28,0,.41.41,0,0,0,.2-.14Z"/><path class="cls-6" d="M175,102.34a4.28,4.28,0,0,1,.46-.76l.29-.33a.3.3,0,0,1,.08-.08s0,0,0,0l.05,0L176,101a.16.16,0,0,0,.08-.14s-.09-.07-.14-.08a.72.72,0,0,0-.51.14,4.6,4.6,0,0,0-1.2,1.56s0,.09.07.11a.49.49,0,0,0,.24,0,.55.55,0,0,0,.42-.23Z"/><path class="cls-6" d="M166,103.51l1-1.67a.22.22,0,0,0,0-.21.28.28,0,0,0-.21-.12.49.49,0,0,0-.47.23l-1,1.68a.23.23,0,0,0,0,.21.31.31,0,0,0,.21.11.47.47,0,0,0,.47-.23Z"/><path class="cls-6" d="M171.1,104.35l.89-1.46a.23.23,0,0,0,0-.21.36.36,0,0,0-.21-.11.47.47,0,0,0-.47.23l-.89,1.45a.25.25,0,0,0,0,.22.33.33,0,0,0,.21.11.47.47,0,0,0,.47-.23Z"/><path class="cls-6" d="M164.8,99l.9-1.52s.05-.09,0-.13a.32.32,0,0,0-.19,0,.72.72,0,0,0-.29.06c-.06,0-.16.06-.19.13L164.13,99s0,.08,0,.12.14,0,.19,0a.71.71,0,0,0,.28-.06.39.39,0,0,0,.2-.13Z"/><path class="cls-11" d="M182,86.61a7.9,7.9,0,0,0-.29-4.66,4,4,0,0,0-1.09-1.65c-.52-.5-.65-1.27-1.16-1.79a8.74,8.74,0,0,0-2.36-1.74,3.61,3.61,0,0,0-1.77-.5,3.07,3.07,0,0,0-2.46,1.66,6.63,6.63,0,0,0-.69,3,7.16,7.16,0,0,0,.56,3.55,13.39,13.39,0,0,0,5.15,4.5,3.1,3.1,0,0,0,2.77-.16A3.52,3.52,0,0,0,182,86.61Z"/><circle class="cls-6" cx="177.54" cy="75.36" r="0.58"/><circle class="cls-6" cx="181.82" cy="78.96" r="0.58"/><circle class="cls-6" cx="183.48" cy="84.49" r="0.58"/><circle class="cls-6" cx="182.71" cy="89.49" r="0.58"/><circle class="cls-6" cx="178.7" cy="90.98" r="0.58"/><circle class="cls-6" cx="173.15" cy="87.61" r="0.58"/><circle class="cls-6" cx="170.22" cy="82.77" r="0.58"/><circle class="cls-6" cx="170.23" cy="77.9" r="0.58"/><circle class="cls-6" cx="173.15" cy="75.36" r="0.58"/><path class="cls-2" d="M319.8,149.22c-2.66,4.1-7,7.17-11.23,9.42-3.74,2-8,3.6-12.31,3.52-3.58-.07-8.14-.87-10.06-3.91-2.73-4.33-3.74-8.13-2.52-12.53,1.71-6.2,6-15.48,9.82-19.89Z"/><path class="cls-7" d="M320.83,140.07a17.08,17.08,0,0,0-6-9.89c-3.75-3.09-7.14-6.27-12.08-7.12a10.09,10.09,0,0,0-9,2.58c-2.34,2.48-2.82,6.29-2,9.6s2.66,6.27,4.58,9.08c1.57,2.31,3.27,4.65,5.68,6.06a17.72,17.72,0,0,0,7.61,1.89c3.46.26,7.38.11,9.76-2.41S321.58,143.43,320.83,140.07Z"/><path class="cls-2" d="M295.37,124.34c1.25,1.55,2.59,3,3.92,4.49s2.4,2.94,3.58,4.42c.14.18.7,0,.54-.23-1.18-1.49-2.31-3-3.58-4.43s-2.67-2.94-3.93-4.49c-.14-.17-.69,0-.53.24Z"/><path class="cls-2" d="M303.91,123.44c.36,2.66.63,5.34.79,8,0,.13.59,0,.58-.16-.16-2.68-.43-5.35-.79-8,0-.14-.6,0-.58.16Z"/><path class="cls-2" d="M309.5,133.09l1.48-2.77a16.75,16.75,0,0,1,1.41-2.29c.09-.1-.07-.12-.14-.12a.55.55,0,0,0-.39.14,16.54,16.54,0,0,0-1.41,2.27l-1.53,2.86c-.05.11.21.09.24.08a.44.44,0,0,0,.34-.17Z"/><path class="cls-2" d="M291.39,134.23q5.34.86,10.72,1.57c.28,0,.59-.36.2-.41q-5.37-.72-10.72-1.57c-.28,0-.59.35-.2.41Z"/><path class="cls-2" d="M296.56,144.08c2.12-1.49,4.21-3.06,6.46-4.35.11-.06.06-.11,0-.13a.65.65,0,0,0-.41.11c-2.26,1.29-4.34,2.85-6.46,4.35-.1.07-.07.11,0,.13a.72.72,0,0,0,.41-.11Z"/><path class="cls-2" d="M303.88,151a42.42,42.42,0,0,0,3.6-7.39c0-.15-.52-.09-.58.08a42.35,42.35,0,0,1-3.55,7.33c-.12.2.45.12.53,0Z"/><path class="cls-2" d="M314.58,151.9a38.07,38.07,0,0,1-3.87-7.9c0-.15-.63,0-.58.16a38.83,38.83,0,0,0,3.87,7.9c.1.15.63-.07.58-.16Z"/><path class="cls-2" d="M321.16,146.33q-4.5-2.21-8.88-4.65c-.15-.09-.69.14-.46.27q4.37,2.45,8.87,4.65c.16.08.69-.16.47-.27Z"/><path class="cls-2" d="M312.17,137.07c2.13-.77,4.28-1.49,6.44-2.14.06,0,.3-.08.26-.18s-.25-.05-.31,0c-2.22.67-4.42,1.39-6.6,2.18-.06,0-.22.1-.16.19s.31,0,.37,0Z"/><path class="cls-6" d="M286.07,149.82a13.28,13.28,0,0,1,1-2.06c.07-.11-.25-.07-.29-.06s-.35.07-.42.19a14.33,14.33,0,0,0-1,2.06c0,.12.25.07.29.06a.92.92,0,0,0,.28-.09c.05,0,.13,0,.15-.1Z"/><path class="cls-6" d="M288.8,153.68l1.05-1.84c.08-.14-.07-.2-.19-.2s-.4.05-.48.19l-1.05,1.84c-.08.14.07.2.19.2s.4-.05.48-.19Z"/><path class="cls-6" d="M288.47,142.45a7.49,7.49,0,0,1,.85-1.33c.11-.13-.09-.18-.19-.18a.71.71,0,0,0-.48.19,8.1,8.1,0,0,0-.9,1.42s0,.1.07.11a.49.49,0,0,0,.24,0,.57.57,0,0,0,.41-.23Z"/><path class="cls-6" d="M292.76,151.77a14,14,0,0,1,.93-1.47c.1-.14-.08-.21-.19-.21a.62.62,0,0,0-.48.2,14,14,0,0,0-.93,1.47c0,.05,0,.1,0,.14a.27.27,0,0,0,.19.06.72.72,0,0,0,.29-.06c.06,0,.16-.07.19-.13Z"/><path class="cls-6" d="M290.49,158.3a11.16,11.16,0,0,0,1.15-1.6s0-.08-.06-.09a.59.59,0,0,0-.23,0,.57.57,0,0,0-.42.21,10.32,10.32,0,0,1-1.1,1.52c-.11.12.09.15.17.14a.94.94,0,0,0,.29-.06.51.51,0,0,0,.2-.12Z"/><path class="cls-6" d="M290,147.38a6.26,6.26,0,0,1,1.21-1.77c.11-.12-.1-.14-.18-.14a.81.81,0,0,0-.48.18,6.7,6.7,0,0,0-1.27,1.85c-.05.13.25.1.3.09a.86.86,0,0,0,.27-.09.3.3,0,0,0,.15-.12Z"/><path class="cls-6" d="M299.42,155.27l1-1.82s.05-.09,0-.14a.35.35,0,0,0-.2-.05.71.71,0,0,0-.28.06.46.46,0,0,0-.2.13l-1,1.82s0,.09,0,.13a.27.27,0,0,0,.19.06.94.94,0,0,0,.29-.06c.06,0,.16-.07.19-.13Z"/><path class="cls-6" d="M305.2,157.57a4.26,4.26,0,0,1,.47-.75c.09-.12.18-.23.28-.34l.09-.08h0l0-.05.17-.14s.09-.09.08-.14-.09-.08-.14-.09a.71.71,0,0,0-.51.14,4.7,4.7,0,0,0-1.2,1.56s0,.09.07.11a.37.37,0,0,0,.23,0,.53.53,0,0,0,.42-.23Z"/><path class="cls-6" d="M296.17,158.75l1-1.68a.22.22,0,0,0,0-.21.31.31,0,0,0-.21-.11.46.46,0,0,0-.47.22l-1,1.68a.2.2,0,0,0,0,.21.27.27,0,0,0,.2.11.46.46,0,0,0,.47-.22Z"/><path class="cls-6" d="M301.33,159.58l.88-1.45a.22.22,0,0,0,0-.22.31.31,0,0,0-.2-.11.47.47,0,0,0-.47.23l-.89,1.46a.2.2,0,0,0,0,.21.31.31,0,0,0,.21.11.48.48,0,0,0,.47-.23Z"/><path class="cls-6" d="M295,154.21l.9-1.53c0-.05.05-.09,0-.13a.3.3,0,0,0-.19-.05.94.94,0,0,0-.28.06.46.46,0,0,0-.2.13l-.9,1.53s-.05.08,0,.13a.27.27,0,0,0,.19,0,.72.72,0,0,0,.29-.06.41.41,0,0,0,.2-.12Z"/><path class="cls-11" d="M312.19,141.84a7.94,7.94,0,0,0-.29-4.65,4.17,4.17,0,0,0-1.1-1.66c-.51-.49-.65-1.27-1.15-1.79a9.19,9.19,0,0,0-2.36-1.74,3.84,3.84,0,0,0-1.77-.5,3.06,3.06,0,0,0-2.46,1.66,6.81,6.81,0,0,0-.7,3,7.43,7.43,0,0,0,.56,3.56,13.83,13.83,0,0,0,5.15,4.5,3.12,3.12,0,0,0,2.78-.16A3.62,3.62,0,0,0,312.19,141.84Z"/><circle class="cls-6" cx="307.77" cy="130.59" r="0.58"/><circle class="cls-6" cx="312.05" cy="134.19" r="0.58"/><circle class="cls-6" cx="313.71" cy="139.72" r="0.58"/><circle class="cls-6" cx="312.93" cy="144.72" r="0.58"/><circle class="cls-6" cx="308.92" cy="146.21" r="0.58"/><circle class="cls-6" cx="303.38" cy="142.84" r="0.58"/><circle class="cls-6" cx="300.44" cy="138" r="0.58"/><circle class="cls-6" cx="300.46" cy="133.13" r="0.58"/><circle class="cls-6" cx="303.38" cy="130.59" r="0.58"/><path class="cls-2" d="M55.55,250.66c-2.68,4.14-7,7.24-11.34,9.51-3.78,2-8.11,3.63-12.43,3.55-3.61-.06-8.22-.88-10.15-3.94-2.76-4.38-3.78-8.21-2.55-12.65,1.73-6.26,6.07-15.63,9.92-20.08Z"/><path class="cls-7" d="M56.58,241.42a17.16,17.16,0,0,0-6.08-10c-3.79-3.12-7.21-6.33-12.2-7.19-3.25-.56-6.87.21-9.13,2.61s-2.84,6.34-2.05,9.69,2.68,6.32,4.62,9.17c1.59,2.33,3.3,4.69,5.74,6.11a17.75,17.75,0,0,0,7.68,1.91c3.49.26,7.45.12,9.85-2.43S57.34,244.82,56.58,241.42Z"/><path class="cls-2" d="M30.88,225.54c1.27,1.56,2.62,3.05,4,4.54s2.42,3,3.61,4.46c.14.18.7,0,.54-.24-1.2-1.49-2.34-3-3.62-4.46s-2.69-3-4-4.54c-.14-.17-.7,0-.54.24Z"/><path class="cls-2" d="M39.51,224.63c.37,2.69.63,5.39.8,8.1,0,.13.59,0,.58-.15-.17-2.71-.43-5.41-.8-8.1,0-.14-.6,0-.58.15Z"/><path class="cls-2" d="M45.15,234.38l1.49-2.8a14.82,14.82,0,0,1,1.43-2.31c.13-.17-.43-.1-.53,0a15,15,0,0,0-1.42,2.29l-1.55,2.89c-.06.1.2.09.24.08a.45.45,0,0,0,.34-.17Z"/><path class="cls-2" d="M26.86,235.53q5.4.85,10.83,1.58c.28,0,.59-.36.2-.41q-5.41-.72-10.82-1.59c-.28,0-.59.35-.21.42Z"/><path class="cls-2" d="M32.08,245.47c2.15-1.51,4.25-3.09,6.53-4.39.11-.06,0-.11,0-.13a.69.69,0,0,0-.41.11c-2.28,1.3-4.38,2.88-6.52,4.39-.1.07-.06.11,0,.13a.6.6,0,0,0,.41-.11Z"/><path class="cls-2" d="M39.47,252.48A43.21,43.21,0,0,0,43.1,245c.06-.15-.51-.09-.57.08a42.47,42.47,0,0,1-3.59,7.4c-.12.2.45.12.53,0Z"/><path class="cls-2" d="M50.27,253.37a38.81,38.81,0,0,1-3.9-8c-.06-.15-.63,0-.58.16a38.73,38.73,0,0,0,3.9,8c.1.16.64-.06.58-.15Z"/><path class="cls-2" d="M56.91,247.75q-4.53-2.24-8.95-4.7c-.16-.09-.69.14-.47.27q4.42,2.48,9,4.7c.16.08.69-.16.46-.27Z"/><path class="cls-2" d="M47.85,238.39c2.14-.78,4.31-1.49,6.5-2.15.06,0,.29-.09.26-.19s-.26,0-.32,0c-2.24.68-4.45,1.41-6.65,2.21-.07,0-.23.09-.17.18s.32,0,.38,0Z"/><path class="cls-6" d="M21.49,251.26a13.89,13.89,0,0,1,1-2.07c.07-.11-.25-.07-.29-.06s-.35.07-.42.19a14.61,14.61,0,0,0-1,2.08c0,.11.25.07.29.06a1.31,1.31,0,0,0,.28-.09c.05,0,.13-.05.15-.11Z"/><path class="cls-6" d="M24.24,255.16l1.07-1.86c.08-.13-.07-.19-.19-.19a.6.6,0,0,0-.48.19l-1.07,1.86c-.08.14.07.2.19.2s.4-.06.48-.2Z"/><path class="cls-6" d="M23.92,243.83a7.22,7.22,0,0,1,.85-1.34c.11-.13-.09-.18-.18-.18a.65.65,0,0,0-.48.19,7.37,7.37,0,0,0-.91,1.43s0,.09.06.11a.39.39,0,0,0,.24,0,.57.57,0,0,0,.42-.22Z"/><path class="cls-6" d="M28.25,253.23a15.27,15.27,0,0,1,.93-1.48c.1-.14-.08-.2-.19-.2a.61.61,0,0,0-.48.19,16.27,16.27,0,0,0-.94,1.49.12.12,0,0,0,0,.14.3.3,0,0,0,.2.06.71.71,0,0,0,.28-.06.41.41,0,0,0,.2-.14Z"/><path class="cls-6" d="M26,259.83a10.43,10.43,0,0,0,1.17-1.62s0-.08-.07-.09a.59.59,0,0,0-.23,0,.65.65,0,0,0-.42.21,10.56,10.56,0,0,1-1.11,1.54c-.11.12.09.15.18.14a.94.94,0,0,0,.28-.06.51.51,0,0,0,.2-.12Z"/><path class="cls-6" d="M25.5,248.81A6.25,6.25,0,0,1,26.72,247c.11-.12-.1-.14-.18-.14a.75.75,0,0,0-.48.18,6.68,6.68,0,0,0-1.28,1.87c-.06.13.25.09.3.09a1.22,1.22,0,0,0,.27-.09.3.3,0,0,0,.15-.12Z"/><path class="cls-6" d="M35,256.77l1-1.84c0-.05,0-.09,0-.14a.3.3,0,0,0-.19,0,.71.71,0,0,0-.28.06.46.46,0,0,0-.2.13l-1,1.84c0,.05,0,.09,0,.13a.27.27,0,0,0,.19.06.64.64,0,0,0,.28-.06.46.46,0,0,0,.2-.13Z"/><path class="cls-6" d="M40.81,259.1a4.07,4.07,0,0,1,.47-.77c.09-.11.18-.23.28-.33l.09-.09h0l0,0,.17-.15s.1-.09.08-.14-.09-.08-.14-.09a.72.72,0,0,0-.51.14,4.9,4.9,0,0,0-1.21,1.57c0,.05,0,.1.07.11a.49.49,0,0,0,.24,0,.58.58,0,0,0,.42-.23Z"/><path class="cls-6" d="M31.69,260.28l1-1.69c.09-.16-.08-.31-.23-.33a.49.49,0,0,0-.47.23l-1,1.69c-.1.16.08.31.22.33a.47.47,0,0,0,.47-.23Z"/><path class="cls-6" d="M36.89,261.13l.9-1.48a.23.23,0,0,0,0-.21.31.31,0,0,0-.21-.11.47.47,0,0,0-.47.23L36.2,261a.22.22,0,0,0,0,.21.36.36,0,0,0,.21.11.48.48,0,0,0,.47-.22Z"/><path class="cls-6" d="M30.53,255.7l.91-1.55s0-.08,0-.12-.14-.05-.19-.05A.72.72,0,0,0,31,254a.41.41,0,0,0-.19.13l-.92,1.54a.1.1,0,0,0,0,.13.26.26,0,0,0,.19,0,.82.82,0,0,0,.28,0,.46.46,0,0,0,.2-.13Z"/><path class="cls-11" d="M47.86,243.22a8,8,0,0,0-.29-4.71,4.2,4.2,0,0,0-1.1-1.67c-.52-.5-.66-1.28-1.17-1.81a9.09,9.09,0,0,0-2.38-1.75,3.72,3.72,0,0,0-1.79-.5,3,3,0,0,0-2.48,1.67,6.78,6.78,0,0,0-.71,3,7.43,7.43,0,0,0,.57,3.59,9.27,9.27,0,0,0,2.75,3,9.21,9.21,0,0,0,2.45,1.57,3.16,3.16,0,0,0,2.8-.16A3.61,3.61,0,0,0,47.86,243.22Z"/><circle class="cls-6" cx="43.4" cy="231.85" r="0.58"/><circle class="cls-6" cx="47.72" cy="235.49" r="0.58"/><circle class="cls-6" cx="49.4" cy="241.07" r="0.58"/><circle class="cls-6" cx="48.61" cy="246.12" r="0.58"/><circle class="cls-6" cx="44.57" cy="247.62" r="0.58"/><circle class="cls-6" cx="38.97" cy="244.22" r="0.58"/><circle class="cls-6" cx="36" cy="239.33" r="0.58"/><circle class="cls-6" cx="36.02" cy="234.42" r="0.58"/><circle class="cls-6" cx="38.97" cy="231.85" r="0.58"/><path class="cls-2" d="M67.39,201.87c-2.6-.89-4.24-1.52-6.8-2.54l-.83,5.26L59.53,206c0,.11,0,.25.08.3a.29.29,0,0,0,.16,0c2.16-.29,4.79-.73,6.95-1a6.66,6.66,0,0,1,.45-3C67.23,202.17,67.39,201.87,67.39,201.87Z"/><path class="cls-12" d="M98.84,203.52A36.31,36.31,0,0,0,77.43,197l-.69,0c-4,.26-8.52,1.78-9.85,6a5.32,5.32,0,0,0,1.92,5.76c1.47,1.06,3.36,1.26,5.15,1.55a42.55,42.55,0,0,1,24.14,13.1,43.52,43.52,0,0,1,7.73,11.66c2,4.43,2.45,8.83,3.53,13.47a4.48,4.48,0,0,0,.41,1.3,1.47,1.47,0,0,0,1.23.8c.81,0,1.49.45,1.8-.3,1.65-4,2.06-9.6,2.23-13.94a39.74,39.74,0,0,0-1.26-12.33A37,37,0,0,0,98.84,203.52Z"/><path class="cls-7" d="M109.9,231a38.37,38.37,0,0,0-15.5-21.42,37.78,37.78,0,0,0-22.22-6.72l-.71,0a17.58,17.58,0,0,0-4.75.95,5.34,5.34,0,0,0,2.08,5.05c1.47,1.06,3.36,1.26,5.15,1.56a42.48,42.48,0,0,1,24.14,13.09,43.28,43.28,0,0,1,7.73,11.66c2,4.43,2.45,8.83,3.53,13.47a4.48,4.48,0,0,0,.41,1.3,1.6,1.6,0,0,0,.91.75c.31-2.39.45-4.8.53-6.93A40.85,40.85,0,0,0,109.9,231Z"/><path class="cls-2" d="M110.27,248.81l2-.39a.53.53,0,0,1,.33,0c.23.09.26.41.25.66l0,1.18a.83.83,0,0,1-.09.39.63.63,0,0,1-.28.23,4.26,4.26,0,0,1-1.13.41.36.36,0,0,1-.25,0c-.06,0-.08-.12-.13-.17-.35-.39-1.72-1.33-1.18-1.87Z"/><path class="cls-2" d="M70.87,203.45c7.45-1.41,14.82,1.94,20.54,6.51.14.11.67-.11.54-.21-5.85-4.68-13.37-8-21-6.57-.26,0-.5.35-.1.27Z"/><path class="cls-2" d="M111.61,240.68a31.56,31.56,0,0,0-6.08-18.91c-.14-.19-.69,0-.53.25a31.14,31.14,0,0,1,6,18.71c0,.28.59.18.59,0Z"/><path class="cls-2" d="M77.33,199h.26l.15,0,.09,0h0a1.72,1.72,0,0,1,.56.22.55.55,0,0,0,.47,0,.41.41,0,0,0,.2-.12s.06-.08,0-.11a2.55,2.55,0,0,0-1.48-.34,1.27,1.27,0,0,0-.28.06.67.67,0,0,0-.2.12c-.11.13.09.16.18.16Z"/><path class="cls-2" d="M80.26,198.58l1.56.65a.45.45,0,0,0,.23,0,.9.9,0,0,0,.28-.08c.08-.05.23-.15.08-.21l-1.56-.66a.45.45,0,0,0-.23,0,.66.66,0,0,0-.27.09c-.09,0-.24.14-.09.21Z"/><path class="cls-2" d="M224.44,50.6c-2.48-1.19-4-2-6.45-3.32l-1.44,5.12-.4,1.41c0,.11-.05.25,0,.31a.27.27,0,0,0,.16,0c2.18,0,4.84-.16,7-.19a6.53,6.53,0,0,1,.8-2.93A4,4,0,0,1,224.44,50.6Z"/><path class="cls-12" d="M255.47,56A36.35,36.35,0,0,0,235,47l-.69,0c-4-.22-8.68.75-10.5,4.79A5.33,5.33,0,0,0,225,57.69c1.34,1.22,3.19,1.66,4.93,2.16a43,43,0,0,1,28.71,28.36c1.45,4.63,1.39,9.06,1.92,13.79a4.74,4.74,0,0,0,.25,1.34,1.45,1.45,0,0,0,1.12.93c.81.08,1.43.63,1.83-.08,2.11-3.82,3.18-9.29,3.86-13.58a39,39,0,0,0,.21-12.38A36.94,36.94,0,0,0,255.47,56Z"/><path class="cls-7" d="M263.2,84.54a38.36,38.36,0,0,0-12.85-23.11,37.77,37.77,0,0,0-21.26-9.31l-.72,0a17.49,17.49,0,0,0-4.83.38A5.35,5.35,0,0,0,225,57.71c1.34,1.22,3.19,1.65,4.93,2.16a42.4,42.4,0,0,1,22.42,15.86,42.91,42.91,0,0,1,6.29,12.49c1.45,4.64,1.39,9.06,1.91,13.8a4.42,4.42,0,0,0,.26,1.34,1.6,1.6,0,0,0,.81.85c.59-2.34,1-4.72,1.35-6.82A40.73,40.73,0,0,0,263.2,84.54Z"/><path class="cls-2" d="M261.45,102.29l2-.15a.61.61,0,0,1,.33,0c.23.12.22.44.18.69l-.19,1.16a.72.72,0,0,1-.13.38.67.67,0,0,1-.31.2,4.17,4.17,0,0,1-1.16.27.42.42,0,0,1-.25,0c-.05,0-.06-.13-.11-.19-.31-.43-1.55-1.52-.95-2Z"/><path class="cls-2" d="M227.66,52.6c7.59-.52,14.53,3.68,19.68,8.91.12.13.67-.08.54-.21-5.23-5.32-12.29-9.52-20-9-.18,0-.62.32-.23.29Z"/><path class="cls-2" d="M263.75,94.34a31.47,31.47,0,0,0-3.81-19.49c-.11-.2-.67,0-.53.25a31.2,31.2,0,0,1,3.75,19.3c0,.27.56.18.59-.06Z"/><path class="cls-2" d="M234.59,48.9l.17,0h0l.08,0a1.81,1.81,0,0,1,.31.09,1.94,1.94,0,0,1,.54.3.31.31,0,0,0,.19,0,.71.71,0,0,0,.28-.06c.05,0,.32-.13.21-.22a2.54,2.54,0,0,0-1.35-.48.87.87,0,0,0-.52.14s-.09.07-.08.12.09,0,.13,0Z"/><path class="cls-2" d="M237.65,49l1.47.84a.47.47,0,0,0,.52,0,.28.28,0,0,0,.12-.2.21.21,0,0,0-.09-.19l-1.47-.84a.47.47,0,0,0-.52,0,.28.28,0,0,0-.12.2.19.19,0,0,0,.09.19Z"/><path class="cls-2" d="M498.81,150.2c2.7.49,4.42.88,7.09,1.51l.05-5.32v-1.47c0-.11,0-.25-.12-.29a.3.3,0,0,0-.16,0c-2.09.6-4.63,1.42-6.72,2a6.66,6.66,0,0,1,0,3C498.92,149.87,498.81,150.2,498.81,150.2Z"/><path class="cls-12" d="M467.46,153.19a36.31,36.31,0,0,0,22.12,3.26l.68-.13c3.94-.85,8.17-3,8.86-7.39a5.31,5.31,0,0,0-2.74-5.42c-1.61-.83-3.51-.75-5.32-.78a42.47,42.47,0,0,1-25.81-9.41,43.51,43.51,0,0,1-9.36-10.39c-2.61-4.1-3.72-8.38-5.47-12.81a4.62,4.62,0,0,0-.6-1.22,1.48,1.48,0,0,0-1.33-.61c-.8.13-1.55-.23-1.74.56-1,4.24-.62,9.8-.15,14.12a39.19,39.19,0,0,0,3,12A37,37,0,0,0,467.46,153.19Z"/><path class="cls-7" d="M452.48,127.66A38.33,38.33,0,0,0,471,146.57a37.69,37.69,0,0,0,23,3.38l.71-.14a17,17,0,0,0,4.55-1.63,5.34,5.34,0,0,0-2.8-4.69c-1.61-.83-3.51-.76-5.32-.78a42.5,42.5,0,0,1-25.81-9.41,43.11,43.11,0,0,1-9.35-10.4c-2.62-4.09-3.72-8.37-5.48-12.8a4.18,4.18,0,0,0-.59-1.22,1.59,1.59,0,0,0-1-.61c.05,2.41.26,4.82.49,6.93A41,41,0,0,0,452.48,127.66Z"/><path class="cls-2" d="M449.49,110.07l-1.9.68a.51.51,0,0,1-.32,0c-.25,0-.33-.36-.35-.61l-.13-1.18a.74.74,0,0,1,0-.39.75.75,0,0,1,.25-.28,3.79,3.79,0,0,1,1.05-.56.34.34,0,0,1,.24,0c.07,0,.1.11.16.15.41.33,1.9,1.06,1.44,1.68Z"/><path class="cls-2" d="M495,149.19c-7.1,2.47-14.85.22-21.11-3.43-.16-.09-.66.15-.54.22,6.54,3.8,14.48,6,21.87,3.4.38-.13,0-.27-.22-.19Z"/><path class="cls-2" d="M449.36,118.32a31.39,31.39,0,0,0,8.77,17.76c.17.17.72-.06.53-.24a31.29,31.29,0,0,1-8.72-17.68c0-.24-.62-.1-.58.16Z"/><path class="cls-2" d="M489.24,154.57c.11,0,0,0,0,0l-.08,0h-.07c.09,0,0,0,0,0h-.27l-.15,0h-.11l-.3-.1a.65.65,0,0,0-.24,0,.66.66,0,0,0-.27.09c-.08,0-.24.17-.08.23a2.76,2.76,0,0,0,1.66.09.58.58,0,0,0,.24-.11s.09-.08.08-.13-.33-.06-.4-.05Z"/><path class="cls-2" d="M486.58,155.39l-1.64-.42a.73.73,0,0,0-.5.09c-.07,0-.25.16-.09.2l1.64.43a.82.82,0,0,0,.51-.09c.06,0,.25-.17.08-.21Z"/><path class="cls-7" d="M396.79,221.49a2.85,2.85,0,0,0-1.48-1.06c-1.53-.35-2.57,1.35-3.14,2.5-3.3,6.73-5.39,13.92-3.29,21.34a25,25,0,0,0,10.71,14.31,23.82,23.82,0,0,0,13.34,3.54A25.26,25.26,0,0,0,428,256.28a3.94,3.94,0,0,0,1.57-3.4c-.1-.91-.94-3-2.15-2.74a2.5,2.5,0,0,0-.8.4c-3.36,2.29-6.65,4.18-10.7,5a21.23,21.23,0,0,1-5.95.33c-.59-.06-5.52-.71-5.52-1.39-8.77-3.84-11.92-13.47-9.52-22.33a25.29,25.29,0,0,1,2.33-5.71C398.42,224.35,398.4,223.39,396.79,221.49Z"/><g class="cls-13"><path class="cls-14" d="M406.09,229.69a22.13,22.13,0,0,0-4.06-2.88,2.84,2.84,0,0,0-2.84-.26,2.91,2.91,0,0,0-.73.83,18.14,18.14,0,0,0-2.7,6.63,1.55,1.55,0,0,0,.23,1.43,1.48,1.48,0,0,0,.7.31c4.66,1.14,9.59.34,14.16-1.09a1.12,1.12,0,0,0,.62-.36c.28-.4-.27-.74-.56-.93-.56-.36-1.15-.67-1.69-1.07C408.13,231.49,407.12,230.57,406.09,229.69Z"/><path class="cls-14" d="M409.77,240.17a10.94,10.94,0,0,0,2.14-2.42,2.88,2.88,0,0,0,.53-1.44c0-.29-.34-.28-.63-.29s-.55,0-.83,0a13.54,13.54,0,0,0-1.8.06,34,34,0,0,0-3.47.6,38.4,38.4,0,0,0-7.07,2,4.55,4.55,0,0,0-2.54,2.06,3.39,3.39,0,0,0,0,2.35,10,10,0,0,0,1.09,2.14l1.13,1.84c.29.47.68,1,1.23,1a1.61,1.61,0,0,0,.79-.3A59.77,59.77,0,0,0,409.77,240.17Z"/><path class="cls-14" d="M409.74,242.69c-2,2.18-4.24,4.16-6.45,6.14-.57.51-1.19,1.19-1,1.92a2,2,0,0,0,1.23,1.13,19.36,19.36,0,0,0,6.63,1.77,2.14,2.14,0,0,0,.62,0,1.58,1.58,0,0,0,.61-.3,4.55,4.55,0,0,0,1.33-3l1.24-6.76a8.67,8.67,0,0,0,0-4.35,1.22,1.22,0,0,0-.51-.73.63.63,0,0,0-.58,0,.46.46,0,0,0-.17.22,10.79,10.79,0,0,1-1.22,1.78c-.44.58-.89,1.15-1.37,1.7Z"/><path class="cls-14" d="M421.09,243.75c-.42-.48-.84-1-1.24-1.48-.68-.85-1.32-1.72-2-2.6-.35-.48-1.43-1.15-1.93-.52a1.8,1.8,0,0,0-.27,1c-.21,2.93-.2,5.87-.2,8.81a15.52,15.52,0,0,0,.25,3.34,1.29,1.29,0,0,0,.35.73,1.14,1.14,0,0,0,.57.22,5.2,5.2,0,0,0,2.62-.44,19.64,19.64,0,0,0,4-2A1.78,1.78,0,0,0,424,250a1.8,1.8,0,0,0,.05-1,8.14,8.14,0,0,0-1.49-3.59A21.72,21.72,0,0,0,421.09,243.75Z"/></g><path class="cls-2" d="M408.3,232.79a.64.64,0,0,1,.25.15c.26.27-.09.51-.36.58a3.09,3.09,0,0,1-2.23-.25.22.22,0,0,1-.13-.14c0-.07.08-.11.15-.15a3.44,3.44,0,0,1,2.26-.21Z"/><path class="cls-2" d="M409.37,237.62a.7.7,0,0,1,.29,0c.36.11.18.49,0,.69a3.14,3.14,0,0,1-2.07.88.23.23,0,0,1-.18-.06c0-.06,0-.14.06-.2a3.39,3.39,0,0,1,1.86-1.3Z"/><path class="cls-2" d="M412.72,240.71a.6.6,0,0,1,.22-.2c.33-.17.46.23.46.51a3.08,3.08,0,0,1-.87,2.07.17.17,0,0,1-.17.08c-.06,0-.09-.1-.1-.18a3.43,3.43,0,0,1,.43-2.23Z"/><path class="cls-2" d="M417.18,241.34a.56.56,0,0,1,.1-.28c.21-.3.51,0,.64.24a3.16,3.16,0,0,1,.17,2.24c0,.07,0,.14-.12.15s-.12-.05-.17-.11a3.43,3.43,0,0,1-.63-2.18A.13.13,0,0,1,417.18,241.34Z"/><path class="cls-7" d="M367.88,39.51a2.83,2.83,0,0,0-1.68-.7c-1.57,0-2.19,1.91-2.48,3.16-1.67,7.31-2.06,14.78,1.69,21.52A24.89,24.89,0,0,0,379.1,75a23.78,23.78,0,0,0,13.8.39,25.27,25.27,0,0,0,13.33-9.14,4,4,0,0,0,.76-3.66c-.31-.87-1.61-2.73-2.73-2.18a2.36,2.36,0,0,0-.68.58c-2.75,3-5.52,5.59-9.28,7.28a21.25,21.25,0,0,1-5.72,1.68c-.59.09-5.53.58-5.68-.08-9.43-1.73-14.7-10.39-14.39-19.56a25.19,25.19,0,0,1,1-6.09C370.13,41.92,369.89,41,367.88,39.51Z"/><g class="cls-13"><path class="cls-14" d="M378.82,45.36a22.62,22.62,0,0,0-4.62-1.88,2.89,2.89,0,0,0-2.82.4,3,3,0,0,0-.52,1,18.3,18.3,0,0,0-1.11,7.07,1.52,1.52,0,0,0,.55,1.34,1.5,1.5,0,0,0,.76.14c4.79,0,9.4-1.86,13.53-4.3a1.1,1.1,0,0,0,.52-.5c.18-.45-.43-.65-.76-.77-.63-.23-1.27-.39-1.89-.66C381.21,46.65,380,46,378.82,45.36Z"/><path class="cls-14" d="M384.8,54.72a11,11,0,0,0,1.53-2.85,3,3,0,0,0,.19-1.52c-.1-.28-.4-.2-.69-.13s-.52.16-.79.21a12.92,12.92,0,0,0-1.75.48,29.5,29.5,0,0,0-3.23,1.37,38.56,38.56,0,0,0-6.43,3.53,4.45,4.45,0,0,0-2,2.59,3.33,3.33,0,0,0,.51,2.29,10.43,10.43,0,0,0,1.55,1.83l1.52,1.53c.39.39.89.82,1.43.69a1.68,1.68,0,0,0,.7-.46A60.18,60.18,0,0,0,384.8,54.72Z"/><path class="cls-14" d="M385.35,57.18c-1.47,2.58-3.17,5-4.88,7.45-.43.63-.88,1.43-.53,2.1a2,2,0,0,0,1.46.82,19.06,19.06,0,0,0,6.86.2,2,2,0,0,0,.59-.15,1.48,1.48,0,0,0,.53-.43A4.58,4.58,0,0,0,390,64l-.34-6.86a8.61,8.61,0,0,0-1-4.24,1.23,1.23,0,0,0-.67-.6.59.59,0,0,0-.55.15.39.39,0,0,0-.12.25,11.45,11.45,0,0,1-.78,2c-.3.66-.6,1.32-.94,2Z"/><path class="cls-14" d="M396.64,55.61c-.53-.37-1-.76-1.54-1.15-.86-.67-1.69-1.38-2.52-2.09-.45-.38-1.66-.79-2-.06a1.89,1.89,0,0,0,0,1c.48,2.9,1.15,5.76,1.83,8.62a15.38,15.38,0,0,0,1,3.19,1.18,1.18,0,0,0,.51.63,1.1,1.1,0,0,0,.6.09,5.26,5.26,0,0,0,2.45-1A19.62,19.62,0,0,0,400.35,62a1.88,1.88,0,0,0,.56-.89,1.77,1.77,0,0,0-.17-1,8.15,8.15,0,0,0-2.28-3.16A21.75,21.75,0,0,0,396.64,55.61Z"/></g><path class="cls-2" d="M381.68,47.87A.66.66,0,0,1,382,48c.31.21,0,.52-.22.65a3.09,3.09,0,0,1-2.23.26c-.06,0-.14,0-.15-.1s0-.13.1-.18a3.4,3.4,0,0,1,2.15-.72Z"/><path class="cls-2" d="M383.82,52.33a.79.79,0,0,1,.29-.06c.38,0,.28.43.14.67a3.11,3.11,0,0,1-1.81,1.33c-.07,0-.15,0-.19,0s0-.14,0-.2a3.45,3.45,0,0,1,1.52-1.7Z"/><path class="cls-2" d="M387.8,54.57a.82.82,0,0,1,.16-.25c.29-.24.51.12.57.39a3.13,3.13,0,0,1-.37,2.22s-.08.12-.15.12-.11-.08-.14-.15a3.47,3.47,0,0,1-.1-2.27Z"/><path class="cls-2" d="M392.28,54.16a.57.57,0,0,1,0-.29c.14-.35.5-.13.68.09a3.11,3.11,0,0,1,.68,2.14c0,.06,0,.14-.08.17s-.13,0-.19-.07a3.47,3.47,0,0,1-1.12-2Z"/><path class="cls-7" d="M159.88,186.27a2.89,2.89,0,0,0-1,1.49c-.32,1.53,1.39,2.55,2.55,3.1,6.78,3.2,14,5.19,21.38,3a24.92,24.92,0,0,0,14.16-10.91,23.93,23.93,0,0,0,3.35-13.39,25.24,25.24,0,0,0-6.07-15A4,4,0,0,0,190.8,153c-.91.12-3,1-2.72,2.19a2.41,2.41,0,0,0,.42.79c2.34,3.33,4.27,6.6,5.12,10.63a21.23,21.23,0,0,1,.42,6c0,.59-.64,5.52-1.31,5.53C189,187,179.43,190.24,170.54,188a24.81,24.81,0,0,1-5.74-2.25C162.72,184.59,161.77,184.63,159.88,186.27Z"/><g class="cls-13"><path class="cls-14" d="M168,176.84a21.71,21.71,0,0,0-2.82,4.11,2.84,2.84,0,0,0-.22,2.84,2.79,2.79,0,0,0,.84.72,18,18,0,0,0,6.67,2.6,1.53,1.53,0,0,0,1.42-.25,1.48,1.48,0,0,0,.31-.71c1.06-4.67.2-9.58-1.3-14.14a1.13,1.13,0,0,0-.37-.61c-.4-.28-.74.28-.92.58-.36.56-.66,1.15-1.05,1.7C169.72,174.78,168.81,175.8,168,176.84Z"/><path class="cls-14" d="M178.37,173a10.91,10.91,0,0,0-2.45-2.1,3,3,0,0,0-1.44-.51c-.3,0-.28.35-.28.64s0,.55,0,.82a13.63,13.63,0,0,0,.08,1.81,33.8,33.8,0,0,0,.65,3.45,38,38,0,0,0,2.07,7,4.49,4.49,0,0,0,2.1,2.51,3.39,3.39,0,0,0,2.35,0,10.5,10.5,0,0,0,2.12-1.12l1.82-1.16c.47-.29,1-.69,1-1.24a1.61,1.61,0,0,0-.31-.78A59.46,59.46,0,0,0,178.37,173Z"/><path class="cls-14" d="M180.9,173c2.2,2,4.22,4.17,6.23,6.36.51.56,1.2,1.17,1.93,1a2,2,0,0,0,1.12-1.24,19.49,19.49,0,0,0,1.67-6.66,2.56,2.56,0,0,0,0-.62,1.61,1.61,0,0,0-.31-.61,4.69,4.69,0,0,0-3-1.29l-6.78-1.13a8.66,8.66,0,0,0-4.35,0,1.26,1.26,0,0,0-.72.53.6.6,0,0,0,0,.57.48.48,0,0,0,.22.18,10.71,10.71,0,0,1,1.79,1.19c.59.43,1.17.87,1.73,1.34Z"/><path class="cls-14" d="M181.79,161.64c-.48.44-1,.85-1.46,1.26-.84.69-1.71,1.35-2.57,2-.48.36-1.14,1.45-.49,1.94a1.75,1.75,0,0,0,1,.26c2.93.16,5.87.11,8.81.07a15.55,15.55,0,0,0,3.34-.3,1.24,1.24,0,0,0,.72-.36,1.16,1.16,0,0,0,.21-.57,5.19,5.19,0,0,0-.48-2.62,19.6,19.6,0,0,0-2.08-4,1.84,1.84,0,0,0-.75-.74,1.81,1.81,0,0,0-1,0,8.32,8.32,0,0,0-3.58,1.55A21.55,21.55,0,0,0,181.79,161.64Z"/></g><path class="cls-2" d="M171,174.59a.62.62,0,0,1,.14-.25c.27-.26.51.08.59.35a3.08,3.08,0,0,1-.22,2.23c0,.06-.08.13-.14.13s-.11-.07-.15-.14a3.38,3.38,0,0,1-.24-2.26A.14.14,0,0,1,171,174.59Z"/><path class="cls-2" d="M175.83,173.45a.7.7,0,0,1,0-.29c.1-.36.48-.18.68,0a3.08,3.08,0,0,1,.91,2.05c0,.07,0,.15-.05.18s-.14,0-.2,0a3.43,3.43,0,0,1-1.33-1.84S175.84,173.47,175.83,173.45Z"/><path class="cls-2" d="M178.87,170.05a.57.57,0,0,1-.2-.21c-.18-.33.22-.47.5-.47a3.1,3.1,0,0,1,2.08.84.21.21,0,0,1,.09.17c0,.06-.1.09-.18.1a3.45,3.45,0,0,1-2.24-.39Z"/><path class="cls-2" d="M179.43,165.59a.49.49,0,0,1-.27-.1c-.31-.21,0-.51.23-.64a3.08,3.08,0,0,1,2.23-.2c.07,0,.14,0,.16.11s-.05.13-.11.17a3.39,3.39,0,0,1-2.17.67Z"/><path class="cls-1" d="M65.44,105.25a12,12,0,0,1,.84-9.82,7.91,7.91,0,0,1,3.49-3.17c1.15-.6,1.12-2,1.61-3.09a17,17,0,0,1,2.2-3.59,13.88,13.88,0,0,1,6.73-4.7c4.92-1.49,10.94.67,13.07,5.34,1.16,2.54,1.12,5.43,1.72,8.15a17.84,17.84,0,0,0,5.81,9.67c3.2,2.72,7.71,4.85,8.29,9,.42,3.11-1.82,6.13-4.65,7.49s-6.11,1.4-9.24,1.16a47.59,47.59,0,0,1-20.1-5.9C71,113.33,67.06,109.87,65.44,105.25Z"/><path class="cls-2" d="M83.63,88.75a9.63,9.63,0,0,1,2.1,3c.1.22.81,0,.72-.19a9.59,9.59,0,0,0-2.15-3c-.16-.16-.84.11-.67.26Z"/><path class="cls-2" d="M83.84,96.53l1.61,2s.14,0,.19,0a.87.87,0,0,0,.28,0c.09,0,.3-.15.2-.27l-1.6-2a.34.34,0,0,0-.19-.05.72.72,0,0,0-.29.06c-.08,0-.3.14-.2.26Z"/><path class="cls-2" d="M76.7,97.7a17.87,17.87,0,0,0,2,2.62c.16.16.84-.1.68-.27a18.42,18.42,0,0,1-2-2.62s-.15-.05-.19-.05a.64.64,0,0,0-.28.06c-.11,0-.29.13-.21.26Z"/><path class="cls-2" d="M68.13,100.94a17.1,17.1,0,0,0,2.06,2.65c.14.16.82-.1.68-.26a17.4,17.4,0,0,1-2-2.58c-.13-.2-.81.06-.72.19Z"/><path class="cls-2" d="M76.25,105.26,77.81,107s.14,0,.19,0a.71.71,0,0,0,.28-.06c.07,0,.3-.14.2-.25L76.93,105s-.14,0-.19,0a.67.67,0,0,0-.28.06c-.08,0-.31.14-.21.25Z"/><path class="cls-2" d="M86.2,104.91l2.45,2.58c.16.17.85-.09.68-.27l-2.45-2.58c-.16-.17-.85.09-.68.27Z"/><path class="cls-2" d="M82.64,110.55l1.94,2a.44.44,0,0,0,.48,0c.1,0,.31-.2.19-.33l-2-2a.44.44,0,0,0-.48,0c-.1,0-.31.21-.18.33Z"/><path class="cls-2" d="M77.51,112.56a16.23,16.23,0,0,0,2,2.07.4.4,0,0,0,.19,0,1,1,0,0,0,.28-.07s.32-.13.21-.22a16.15,16.15,0,0,1-2-2.06s-.15,0-.19,0a.94.94,0,0,0-.28.06c-.07,0-.3.11-.21.22Z"/><path class="cls-2" d="M92.73,105.87a8.69,8.69,0,0,0,2.1,2.26c.11.09.35,0,.47,0s.31-.13.21-.2a8.34,8.34,0,0,1-2.05-2.22c-.12-.17-.79.11-.73.2Z"/><path class="cls-2" d="M87.24,115.55a8.41,8.41,0,0,0,2.1,2.27s.13,0,.18,0a1.4,1.4,0,0,0,.28-.06s.32-.13.22-.21A8.5,8.5,0,0,1,88,115.36c-.11-.18-.78.1-.72.19Z"/><path class="cls-2" d="M97.94,114.22a8.58,8.58,0,0,0,2.1,2.27c.12.09.35,0,.47,0s.32-.15.21-.24A8.5,8.5,0,0,1,98.66,114c-.12-.19-.8.07-.72.2Z"/><path class="cls-2" d="M98.93,108.75a6.83,6.83,0,0,1,1.78,2.18c.08.15.28.15.42.11s.38-.15.31-.3a7.16,7.16,0,0,0-1.84-2.29.46.46,0,0,0-.49,0c-.07,0-.32.21-.18.32Z"/><path class="cls-2" d="M92.05,113.33l1.62,1.8c.17.18.86-.08.68-.28l-1.63-1.8c-.16-.18-.85.08-.67.28Z"/><path class="cls-2" d="M90.78,98.81l1.85,2a.42.42,0,0,0,.49.06c.12-.06.3-.24.17-.39l-1.85-2a.42.42,0,0,0-.49-.06c-.12.06-.3.24-.17.38Z"/><path class="cls-2" d="M73.85,90.39a18.39,18.39,0,0,1-17.23,7.42,14.79,14.79,0,0,1-4.79-1.32c-1-.5-.74-1.18-.26-2A18.56,18.56,0,0,1,53.39,92a15.8,15.8,0,0,1,10-5.72,16,16,0,0,1,6.85,1c.75.26,1.51.5,2.25.81a6.25,6.25,0,0,1,1.14.61c.7.5.58,1.09.18,1.74-.22.34.52.36.69.08.44-.7.68-1.3.06-1.94a5.34,5.34,0,0,0-2-1.1,23.77,23.77,0,0,0-6.4-1.76,15.31,15.31,0,0,0-11.79,4.35A15.78,15.78,0,0,0,50.53,95c-.62,1.5.88,2,2,2.43a19.49,19.49,0,0,0,11.54.32,18.89,18.89,0,0,0,10.34-7.17C74.72,90.23,74,90.11,73.85,90.39Z"/><path class="cls-2" d="M74.46,89.11a37.4,37.4,0,0,0-5.9,1.37c-2,.53-4,.65-6,1.09a59.63,59.63,0,0,0-11.84,4.08c-.46.21,0,.39.27.25a58,58,0,0,1,11.65-4c1.85-.41,3.74-.51,5.57-1a41.52,41.52,0,0,1,6.12-1.44c.33,0,.61-.4.11-.35Z"/><path class="cls-2" d="M62.78,91.52,58.9,90.6a17,17,0,0,0-3.78-.73c-.15,0-.4,0-.48.21s.06.24.21.24a8.28,8.28,0,0,1,1.92.31l1.84.43,3.73.88a.56.56,0,0,0,.51-.14c.1-.11.09-.24-.07-.28Z"/><path class="cls-2" d="M62,91.88A61,61,0,0,1,56.7,98c-.3.29.41.29.58.12a59.82,59.82,0,0,0,5.37-6.2c.1-.14-.09-.21-.2-.21a.58.58,0,0,0-.48.2Z"/><path class="cls-2" d="M68,90.41l-8.16-3.69c-.32-.15-.84.31-.41.5l8.16,3.69c.31.15.83-.31.41-.5Z"/><path class="cls-2" d="M67.37,90.84a52.82,52.82,0,0,1-4.88,6.72c-.11.12.09.15.17.15a.75.75,0,0,0,.49-.19,52.35,52.35,0,0,0,4.93-6.8c.08-.12-.25-.1-.29-.09a.59.59,0,0,0-.42.21Z"/><path class="cls-2" d="M55.72,93.75c-1.11-.43-2.31-.19-3.46-.42a.67.67,0,0,0-.51.14c-.12.09-.09.2.06.23,1.1.22,2.27,0,3.33.39a.62.62,0,0,0,.51-.08c.09-.05.23-.2.07-.26Z"/><path class="cls-2" d="M54.76,94.09a33.39,33.39,0,0,1-2.27,3,.19.19,0,0,0,.08.33.55.55,0,0,0,.52-.14,36.24,36.24,0,0,0,2.36-3.14c.1-.15-.09-.27-.22-.28a.49.49,0,0,0-.47.22Z"/><path class="cls-2" d="M72.64,89.46q-3.09-1.84-6.21-3.59c-.25-.14-.9.2-.57.39Q69,88,72.07,89.85c.24.14.89-.2.57-.39Z"/><path class="cls-2" d="M71.64,89.92q-1.86,3-4,5.94c-.08.11.27.08.3.08a.68.68,0,0,0,.42-.21q2.12-2.88,4-5.94c.07-.11-.26-.08-.29-.07a.6.6,0,0,0-.42.2Z"/><path class="cls-3" d="M70.72,93.59a17.51,17.51,0,0,1-1.76-3,18.79,18.79,0,0,1,2.49-19.88c.84-1,1.46-1.45,2.42-.36a18.86,18.86,0,0,1,4.66,10,13.1,13.1,0,0,1-.94,6.8,18,18,0,0,1-2.44,4c-.75,1-1.88,2.67-3,3.18C71.53,94.59,71.05,94,70.72,93.59Z"/><path class="cls-1" d="M377.57,169.16a12,12,0,0,1,3.21,9.31,7.88,7.88,0,0,1-1.89,4.31c-.81,1-.21,2.3-.22,3.48a16.82,16.82,0,0,1-.56,4.17,13.87,13.87,0,0,1-4.24,7c-3.89,3.35-10.27,3.82-14.11.41-2.09-1.85-3.23-4.5-4.88-6.74a17.75,17.75,0,0,0-9.24-6.48c-4-1.19-9-1.3-11.22-4.87-1.66-2.67-.83-6.33,1.21-8.73s5-3.76,8-4.81a47.44,47.44,0,0,1,20.76-2.76C369.23,164,374.22,165.59,377.57,169.16Z"/><path class="cls-2" d="M367.68,191.71a9.52,9.52,0,0,1-3.11-1.84c-.17-.15-.84.12-.67.27a9.68,9.68,0,0,0,3.2,1.89.65.65,0,0,0,.51-.08c.08,0,.24-.18.07-.24Z"/><path class="cls-2" d="M364.33,184.68l-2.27-1.14a.62.62,0,0,0-.51.07c-.1.06-.22.18-.07.25l2.27,1.15a.62.62,0,0,0,.51-.07c.09-.06.22-.18.07-.26Z"/><path class="cls-2" d="M370.42,180.75a17.28,17.28,0,0,0-3-1.59.62.62,0,0,0-.51.07c-.09.05-.23.19-.07.25a17.31,17.31,0,0,1,2.88,1.54.52.52,0,0,0,.47,0c.06,0,.34-.18.2-.26Z"/><path class="cls-2" d="M376.91,174.28a17.61,17.61,0,0,0-3-1.58.66.66,0,0,0-.51.08c-.08,0-.23.16-.08.23a16.6,16.6,0,0,1,2.88,1.54.56.56,0,0,0,.47,0c.05,0,.33-.15.21-.24Z"/><path class="cls-2" d="M367.72,173.63l-2.11-.94a.7.7,0,0,0-.51.08c-.09,0-.23.17-.08.24l2.12.94a.66.66,0,0,0,.51-.08c.09-.05.23-.17.07-.24Z"/><path class="cls-2" d="M358.77,178l-3.28-1.37a.64.64,0,0,0-.52.08c-.08.05-.22.19-.07.25l3.29,1.37a.65.65,0,0,0,.51-.07c.09-.06.23-.2.07-.26Z"/><path class="cls-2" d="M359.68,171.34l-2.58-1a.53.53,0,0,0-.51.14c-.12.12-.07.24.08.29l2.57,1a.56.56,0,0,0,.52-.14c.12-.12.06-.24-.08-.3Z"/><path class="cls-2" d="M363.66,167.5a15.87,15.87,0,0,0-2.71-1.1.75.75,0,0,0-.51.08c-.07,0-.24.16-.08.21a16.4,16.4,0,0,1,2.61,1.06.64.64,0,0,0,.47,0s.34-.16.22-.22Z"/><path class="cls-2" d="M352.43,179.78a8.57,8.57,0,0,0-2.85-1.22.83.83,0,0,0-.51.09c-.06,0-.25.15-.09.19a8.29,8.29,0,0,1,2.77,1.18c.11.08.34,0,.46,0s.32-.13.22-.2Z"/><path class="cls-2" d="M353.52,168.7a8.57,8.57,0,0,0-2.85-1.22.82.82,0,0,0-.51.09c-.06,0-.25.15-.09.18a8.38,8.38,0,0,1,2.76,1.19c.12.08.35,0,.47,0s.32-.13.22-.2Z"/><path class="cls-2" d="M344.28,174.25a9,9,0,0,0-2.85-1.23.82.82,0,0,0-.51.09c-.07,0-.25.18-.08.22a8.45,8.45,0,0,1,2.76,1.18.55.55,0,0,0,.47,0c.05,0,.33-.16.21-.24Z"/><path class="cls-2" d="M345.52,179.61a6.71,6.71,0,0,1-2.45-1.25.46.46,0,0,0-.48,0c-.08,0-.33.21-.19.32a7.19,7.19,0,0,0,2.68,1.37.55.55,0,0,0,.51-.13c.12-.12.08-.25-.07-.29Z"/><path class="cls-2" d="M350,172.66l-2.22-1a.58.58,0,0,0-.51.07c-.09.05-.22.2-.06.27l2.22,1a.58.58,0,0,0,.51-.07c.09-.05.22-.2.06-.27Z"/><path class="cls-2" d="M357,185.35l-2.52-1.12a.5.5,0,0,0-.52.14.22.22,0,0,0,.1.36l2.52,1.12a.48.48,0,0,0,.52-.14.22.22,0,0,0-.1-.36Z"/><path class="cls-2" d="M376,186.14a18.49,18.49,0,0,1,13-13.89,11.85,11.85,0,0,1,4.86-.64c.88.15.82.87.73,1.61a17.7,17.7,0,0,1-.64,3.06,16.14,16.14,0,0,1-6.35,9.1,15.09,15.09,0,0,1-6.82,2.14c-.9.08-1.81.18-2.72.19a4,4,0,0,1-1.64-.18c-.61-.29-.53-.83-.45-1.39.06-.37-.68-.28-.73.05-.1.65-.16,1.35.48,1.72a4.53,4.53,0,0,0,2.28.35,24,24,0,0,0,6.73-1,17.08,17.08,0,0,0,10.65-14.92c-.08-1.5-1.69-1.37-2.81-1.29a19.52,19.52,0,0,0-10.82,4.39,18.77,18.77,0,0,0-6.51,10.72C375.16,186.56,375.9,186.47,376,186.14Z"/><path class="cls-2" d="M376.08,187.46a31.79,31.79,0,0,0,4.54-3.4c1.61-1.33,3.44-2.29,5.12-3.52a58.25,58.25,0,0,0,9.32-8.64c.18-.22-.53-.15-.67,0a57.91,57.91,0,0,1-9.22,8.55c-1.56,1.14-3.26,2-4.76,3.22a34.74,34.74,0,0,1-4.77,3.61c-.42.24.23.29.44.17Z"/><path class="cls-2" d="M385.65,180.56l4.06-.77a16.76,16.76,0,0,0,3.72-.86c.45-.21,0-.49-.3-.34a7.71,7.71,0,0,1-1.77.47l-1.85.35-3.77.71c-.13,0-.4.09-.41.26s.19.2.32.18Z"/><path class="cls-2" d="M386.22,180.05a58.51,58.51,0,0,1,2.37-7.77c.09-.24-.63-.15-.73.09a60,60,0,0,0-2.36,7.77c-.07.27.66.16.72-.09Z"/><path class="cls-2" d="M381.32,183.71l9,.07c.42,0,.55-.55.06-.56l-9-.06c-.42,0-.55.55-.06.55Z"/><path class="cls-2" d="M381.71,183.24a53.31,53.31,0,0,1,1.75-8.17c.05-.18-.66-.08-.72.12a51.64,51.64,0,0,0-1.74,8.17c0,.21.69.08.71-.12Z"/><path class="cls-2" d="M391.17,175.64a5.52,5.52,0,0,0,1.83-.45,11.74,11.74,0,0,1,1.63-.59c.1,0,.35-.12.32-.26s-.32-.09-.41-.07a9.45,9.45,0,0,0-1.62.57,4.36,4.36,0,0,1-1.46.41.63.63,0,0,0-.48.2c-.09.13.08.19.19.19Z"/><path class="cls-2" d="M391.9,175.1a34,34,0,0,1,.87-3.75c.05-.18-.22-.23-.33-.22a.43.43,0,0,0-.4.28,34,34,0,0,0-.87,3.75c-.06.34.68.24.73-.06Z"/><path class="cls-2" d="M377.45,186.45c2.38.29,4.75.54,7.14.76.32,0,.75-.43.26-.48-2.38-.21-4.76-.47-7.13-.76-.33,0-.76.42-.27.48Z"/><path class="cls-2" d="M378.19,185.82q.45-3.54,1.22-7c0-.17-.68-.06-.72.12q-.75,3.49-1.22,7c0,.19.69.06.72-.12Z"/><path class="cls-3" d="M377.47,182a17.68,17.68,0,0,1,2.85,2.07,18.8,18.8,0,0,1,5.8,19.19c-.36,1.28-.74,1.91-2.07,1.31a18.92,18.92,0,0,1-8.33-7.28,13.23,13.23,0,0,1-1.9-6.59,18,18,0,0,1,.6-4.67c.3-1.18.63-3.2,1.47-4.13C376.33,181.36,377,181.71,377.47,182Z"/><rect id="cadre" class="cls-15" width="524.41" height="269.29"/></svg>