<svg viewBox="0 0 300 300" xmlns="http://www.w3.org/2000/svg" xmlns:xlink="http://www.w3.org/1999/xlink"><clipPath id="a"><path d="m117.55 113.21h21.7c.52 0 .52.12.64-.27a5.31 5.31 0 0 0 0-1.38v-8.9a3.72 3.72 0 0 0 0-1.2c-.13-.29-.37-.17-.79-.17h-20.36c-.19 0-1.06-.12-1.19 0s0 .7 0 .82v11.09z"/></clipPath><clipPath id="b"><path d="m51.85 116h53.29c.62 0 .62.14.66-.42.21-2.86 0-5.82 0-8.69v-81a23 23 0 0 0 0-3c-.07-.54-.1-.38-.74-.38h-52.57a2.29 2.29 0 0 0 -.64 0c-.17.17 0 1.41 0 1.63z"/></clipPath><clipPath id="c"><path d="m92.87 216.61h15.76c.22 0 1.61.17 1.77 0s0-.57 0-.67v-52.68a3.81 3.81 0 0 0 0-1.26c-.12-.24-.11-.16-.51-.16h-13.33c-1.08 0-2.17-.05-3.25 0-.44 0-.32-.08-.44.18a4.11 4.11 0 0 0 0 1.31z"/></clipPath><clipPath id="d"><path d="m37.6 198.42h18.17a15.56 15.56 0 0 0 3.2 0c.42-.11.21.09.3-.31a7.49 7.49 0 0 0 0-1.64v-57.42a4.76 4.76 0 0 0 0-1.46c-.12-.29-.09-.19-.55-.19h-19.65c-.23 0-1.32-.16-1.47 0s0 .83 0 1v60z"/></clipPath><clipPath id="e"><path d="m152.18 87.9h19.43c.2 0 .78.11 1 0s.11-.13.13-.44c.08-1.55 0-3.14 0-4.7v-52.9a4.63 4.63 0 0 0 0-1.39c-.13-.27-.11-.18-.55-.18h-18.92c-.24 0-1-.11-1.09.05s0 .93 0 1.13z"/></clipPath><clipPath id="f"><path d="m158.33 85.28h11.17c.15 0 .93.11 1 0s0-.9 0-1.06v-5.47c0-.33.2-1.44 0-1.72s-2-.1-2.45-.1h-8.28c-.28 0-1.13-.15-1.38 0s-.1.5-.1.8v7.55z"/></clipPath><clipPath id="g"><path d="m159.54 84.08h8c.13 0 .78.1.9 0s0-2 0-2.34v-1.92c0-.21.14-1.16 0-1.33s-1.39-.08-1.75-.08h-5.79a4 4 0 0 0 -1.19 0c-.41.21-.17 1.73-.17 2.25z"/></clipPath><clipPath id="h"><path d="m161.49 83.35h4.25c.24 0 1.37.17 1.55 0s0-1.43 0-1.67c0-.42.25-1.87 0-2.2-.12-.16-.92 0-1.14 0h-2.74c-.34 0-1.57-.21-1.85 0s-.08 1.33-.08 1.67z"/></clipPath><clipPath id="i"><path d="m126.73 88.75h12.55a5.3 5.3 0 0 0 1.64 0c.47-.23.17-2.47.17-3v-3.32c0-.37.23-1.73 0-2s-2.15-.09-2.63-.09c-3.74 0-7.53-.16-11.27 0-.48 0-.35-.1-.46.28a12.22 12.22 0 0 0 0 2.77z"/></clipPath><clipPath id="j"><path d="m129.26 87.43h8.74a4.2 4.2 0 0 0 1.37 0c.4-.18.17-1.41.17-1.91v-2.3c0-.24.15-1.27 0-1.48s-1.49-.08-1.84-.08c-2.66 0-5.35-.1-8 0-.32 0-.35-.06-.46.14-.2.35 0 1.38 0 1.78z"/></clipPath><clipPath id="k"><path d="m130.48 86.68h4.57c.37 0 1.82.24 2.13 0s.09-1 .09-1.39v-1.54c0-.18.11-.83 0-1s-.94 0-1.18 0h-3a8.34 8.34 0 0 0 -2.34 0c-.26.09-.15-.07-.26.11s0 1 0 1.28z"/></clipPath><clipPath id="l"><path d="m156.7 78.94c.15 0 .81.11.93 0a1.53 1.53 0 0 0 0-.68 3.22 3.22 0 0 0 -.93 0c-.07.1 0 .5 0 .68z"/></clipPath><clipPath id="m"><path d="m147.09 82a3.31 3.31 0 0 0 .89 0 1.85 1.85 0 0 0 0-.67 2.48 2.48 0 0 0 -.86 0c-.12.05-.03.45-.03.67z"/></clipPath><clipPath id="n"><path d="m144.35 129.46h5.52c.27 0 1.1.13 1.25-.05s0-1.09 0-1.31v-15.64c0-.21.14-1.14 0-1.31s-1-.05-1.25-.05h-3.4c-.32 0-1.89-.23-2.12 0s0 .74 0 .85z"/></clipPath><clipPath id="o"><path d="m136.71 19.82c.27 0 1 .11 1.15-.05s0-1.12 0-1.33v-2c0-.18.12-1 0-1.11a3.17 3.17 0 0 0 -1.15 0c-.13.14 0 1.07 0 1.26z"/></clipPath><clipPath id="p"><path d="m107.93 24.1c.56 0 .47.07.51-.43a3.1 3.1 0 0 0 0-1c-.37-.32-.45.11-.51.26a4.66 4.66 0 0 0 0 1.17z"/></clipPath><clipPath id="q"><path d="m113.79 20.3c.55 0 .46.06.5-.44 0-.15.1-.93 0-1-.37-.33-.45.1-.5.26a4.24 4.24 0 0 0 0 1.18z"/></clipPath><clipPath id="r"><path d="m126.37 9.6c.48.06.36 0 .46-.28a3.72 3.72 0 0 0 0-1c-.63-.54-.46 1.1-.46 1.28z"/></clipPath><clipPath id="s"><path d="m144.31 8.69c.48.06.36 0 .46-.28a3.72 3.72 0 0 0 0-1c-.63-.54-.46 1.1-.46 1.28z"/></clipPath><clipPath id="t"><path d="m156.2 18.53c.51 0 .38.07.49-.28a3.8 3.8 0 0 0 0-1c-.69-.57-.49 1.09-.49 1.28z"/></clipPath><clipPath id="u"><path d="m161 21.26c.51 0 .38.07.5-.28a4.27 4.27 0 0 0 0-1c-.65-.57-.5 1.09-.5 1.28z"/></clipPath><clipPath id="v"><path d="m64.54 173.44h41.46c.51 0 2.17.24 2.38-.16s0-1.52 0-2v-28.62a10.11 10.11 0 0 0 0-2.2c-.1-.41.1-.18-.25-.3a6.38 6.38 0 0 0 -1.8 0h-40.63c-.17 0-1-.13-1.14 0s0 .75 0 .89v32.39z"/></clipPath><clipPath id="w"><path d="m168.38 162.93h36.93c.12 0 .74.08.83 0s0-.93 0-1.09v-29.65a7.18 7.18 0 0 0 0-1.91c-.12-.34.1-.12-.23-.24a6.12 6.12 0 0 0 -1.71 0h-34a5.18 5.18 0 0 0 -1.62 0c-.27.13-.1 0-.18.33a10.91 10.91 0 0 0 0 2v30.58z"/></clipPath><path d="m271.11 109.64c-3-.39-5.94.67-8.94.62s-5.67-1.26-8.59-1a16.3 16.3 0 0 1 3.14 1.67l1.43.94c.17.12.42.2.52.4s-.19.24-.13.35c.18.35 1.08.57 1.43.71a11.19 11.19 0 0 0 1.68.51 7.69 7.69 0 0 0 3.6-.08 19.28 19.28 0 0 0 2.42-.95 21.75 21.75 0 0 1 3.05-.9c.59-.14 2.1-.45 2.17-1.26s-1.28-.95-1.78-1.01z" fill="#cb9579"/><path d="m120.71 116.42c-2.29 0-5.69.34-7-2a5.47 5.47 0 0 1 .14-5c.84-1.37 2.49-1.74 4-2a8.33 8.33 0 0 0 4.66-2.33 11.76 11.76 0 0 0 3.06-5.93 11.59 11.59 0 0 0 -.87-6.69 14.83 14.83 0 0 0 -3.56-5.54c-1.64-1.44-3.72-2.34-5.17-4-.37-.43-.65-.93-1-1.35a6.19 6.19 0 0 1 -.92-1.44c-.08-.18-.27-.8-.45-.89a5.83 5.83 0 0 0 -1.09.06 6 6 0 0 1 -2.11-.37 11.14 11.14 0 0 0 1.43 5.66c1 1.47 2.63 2.23 3.83 3.47 2.33 2.41 2.6 5.82 1.6 8.89s-3.17 5.3-4.9 7.92-3.13 6-1.35 8.91c1.37 2.2 4.12 2.93 6.41 3.73a9.85 9.85 0 0 1 5.64 4.37c1.29 2.14 2.14 5.42-.51 6.94-1.71 1-3.78 1.25-5.53 2.22a4.13 4.13 0 0 0 -2.14 2.21 2.59 2.59 0 0 0 1.45 3.08c1.36.48 2.82-.19 4.21-.09a2.05 2.05 0 0 1 1.55 3.27 2.07 2.07 0 0 0 .89-3c-.51-.95-1.67-1-2.62-1.07-1.12-.09-2.32-.21-2.8-1.43a2.13 2.13 0 0 1 2.11-2.73c1.36 0 2.57.73 4 .49a4.37 4.37 0 0 0 2.72-1.68c1.67-2.14 1.93-5.49 1.53-8.09-.66-3.67-3.69-5.51-7.21-5.59z" fill="#001"/><path d="m139.64 113.92c.11-3.43 1.5-6.64 2-10 0-.18.23-1 .11-1.19s-1-.14-1.27-.18c-.9-.14-1.8-.3-2.7-.5a17.43 17.43 0 0 1 -4.57-1.58c-2.42-1.33-4.07-3.55-6.12-5.32a9.93 9.93 0 0 0 -6.87-2.4 45 45 0 0 0 -8.73 1c4 8.59 12.38 19.84 6.16 29.37-.22.33-.42.5-.37.89a2.39 2.39 0 0 0 .28.69 7.56 7.56 0 0 0 .87 1.44 9.58 9.58 0 0 0 2.33 2.16 15.46 15.46 0 0 0 5.79 2.24c4.29.8 8.67-.43 12.47-2.43a15.87 15.87 0 0 0 3.41-2.31 3.72 3.72 0 0 0 .6-.59c.27-.41.27-.42 0-.93-.3-.68-.64-1.34-1-2-1.35-2.72-2.48-5.28-2.39-8.36z" fill="#edc39b"/><g clip-path="url(#a)" opacity=".37"><path d="m129.36 107.52a71 71 0 0 1 -6.57-2.88c-1.82-1-3.3-2.63-5.24-3.35a82.22 82.22 0 0 0 6.36 6.44c1.69 1.54 4 1.49 5.9 2.79.88.62 1.84 1.65 3 1.71a16.25 16.25 0 0 0 1.69-.21 2.85 2.85 0 0 1 1.65.46c.83.47 1.86 1.15 2.7.33.55-.53.48-1.69 1.07-2.1a5.25 5.25 0 0 0 -2-.56c-.87-.15-1.73-.28-2.58-.49a46.62 46.62 0 0 1 -5.98-2.14z" fill="#d6ac83"/></g><path d="m77.17 37.38c-5-1.07-9.66 2.16-11.88 6.48-2.06 4-1.33 9.56-5.92 12a5.88 5.88 0 0 1 -3.21.85 3.32 3.32 0 0 1 -2-1.33 22.85 22.85 0 0 0 -5.16-4.77 18.57 18.57 0 0 0 -13.38-2.53 8 8 0 0 0 -2.57 1c-.14.08-.29.16-.42.25s-.31 0-.24.39c.13.54 1.05 1 1.48 1.24 3.22 1.67 7.21 1.76 10.73 2.34a23 23 0 0 1 7.11 2.43c2.2 1.2 3.76 3 5.79 4.43s4.41 1.06 6.72.17a21 21 0 0 0 6.48-4.15 61.4 61.4 0 0 0 5.3-5.64c1.38-1.6 3-3.67 5.05-1.86.2.18.46.6.7.7s.45 0 .76-.27a11.24 11.24 0 0 0 1.65-1.51c.34-.36 1.12-1 1.28-1.42s-.36-1.29-.57-1.75a13.92 13.92 0 0 0 -4.34-5.55 9 9 0 0 0 -3.36-1.5z" fill="#001"/><path d="m77.06 43.89a11.71 11.71 0 0 0 -4.46 1.34c-.22.11-.78.27-.93.47s0 .45.13.79a5.47 5.47 0 0 1 .2 2c-.24 2.79-2.21 5.26-4.18 7.11s-4.73 3.63-7.66 3.17c-2.6-.42-4.57-2.38-6.39-4.12a22.85 22.85 0 0 0 -9.35-5.4c-3.46-1.08-7.55-1.84-11.09-.68a6.62 6.62 0 0 0 -3.77 2.91 5 5 0 0 0 -.07 4.91c.77 1.65 1.81 3.21 1.84 5.09a6 6 0 0 1 -2.91 5.31c-1.68.81-3.67.36-5.4 0a18.18 18.18 0 0 0 -5.93-.87c-1.64.17-4.79 1.48-4.43 3.56.29 1.74 2.51 2.91 3.73 4 1.42 1.2 3.55 3.66 1.94 5.51s-4.51 1.22-6.51.89c-2.68-.44-10-1.88-9.34 3a7.38 7.38 0 0 0 1.18 2.87c-1-4.34 4.53-7.51 7.42-3.9 1.29 1.61 2.39 3.09 4.51 3.63a7.39 7.39 0 0 0 5.52-.92 7.09 7.09 0 0 0 3.33-4.15c.49-1.85-.22-3.29-1.17-4.83-.56-.91-1.73-2.64-1-3.75.94-1.53 4.12-.55 5.37 0 1.86.78 3.33 1.73 5.37.82a7.24 7.24 0 0 0 4.31-4.83c.46-2 .34-4.16 1.48-5.94a10.16 10.16 0 0 1 6.15-4c4.91-1.23 9.29 1.94 13.2 4.46 3.53 2.27 6.81 4.19 11.16 3.08s7.92-4.54 10.23-8.27c1.91-3.07 5-10 .81-12.47a5.76 5.76 0 0 0 -3.29-.79z" fill="#001"/><path d="m5.67 123.37c1-1.11.94-2.68.73-4.07-.17-1.13-.7-2.67-.15-3.77.71-1.44 3.24-1.15 4.46-.77 1.86.58 2.52 2.28 3.28 3.89a7.7 7.7 0 0 0 4.18 4.19 13.06 13.06 0 0 0 6.44.7 15.7 15.7 0 0 0 11-7.31 22.44 22.44 0 0 0 3.11-6.89 63.88 63.88 0 0 0 1.09-8.17c.59-5 2.36-9.56 7.21-11.7 4.13-1.83 8.46-1.25 12.82-1.58a10.15 10.15 0 0 0 5.58-1.78 7.47 7.47 0 0 0 2.77-5.83 7.62 7.62 0 0 0 -3.19-6.18c-2.25-1.59-5.36-1.95-8-1.87-5.81.17-11.58 2.58-16.33 5.84l4.41-.73c-6.59 2.07-10.08 8.42-11.08 14.88-.54 3.29-.25 6.62-.66 9.91a12.14 12.14 0 0 1 -4.84 8.37c-2.77 2.17-6.05 3.68-9.54 2.36s-5.87-4.46-9.21-6a8 8 0 0 0 -5.21-.69 12.71 12.71 0 0 0 -2.42.88c-.47.21-1.87.69-2.07 1.16a8.31 8.31 0 0 0 0 2.49v3.29c0 .51-.07.47.27.76.74.65 1.61.85 2 1.9.52 1.54-.47 3.57-1.65 4.56-.18.15-.49.29-.57.48a2.82 2.82 0 0 0 0 .82c0 .57-.14 1.07.25 1.43a4.55 4.55 0 0 0 2.55.87 3.8 3.8 0 0 0 2.77-1.44z" fill="#001"/><path d="m129.67 20c-1.76-1.17-4.56.15-6.29.8-2.24.83-4.39 1.87-6.63 2.68-4.68 1.7-9.72 2.07-14.66 2.28-8.3.37-17.9-.29-24.17 6.16a22.72 22.72 0 0 0 -5.79 10.08c-1 4.24-.53 8.64-.21 12.93s.51 9.12-1.77 13c-2 3.4-5.62 5.47-7.8 8.77a15.65 15.65 0 0 0 -.53 17.14c3.86 6 11.32 8.12 18.09 7.32 7.84-.94 14.61-5.69 20.23-11a126 126 0 0 0 16.32-19 96.93 96.93 0 0 0 12.78-24.1 63 63 0 0 0 3.16-13.39 41.2 41.2 0 0 0 .22-7.11 11.92 11.92 0 0 0 -1.26-5.45c-.36-.51-.97-1.28-1.69-1.11z" fill="#001"/><path d="m118.5 26.07a113.93 113.93 0 0 0 -17.91.15c-6.09.66-12.47 2.17-17.4 6a18.59 18.59 0 0 0 -5.57 7.07 31.24 31.24 0 0 0 -1.67 6 21.11 21.11 0 0 1 -2.38 6.13 30.09 30.09 0 0 1 -8.68 9.46 94.71 94.71 0 0 1 -10.13 5.92c-6.88 3.66-14.3 7.38-19.18 13.67a19.43 19.43 0 0 0 -4.16 11.84c0 4.11 1.84 7.59 3.51 11.22s2.3 7.16.75 10.9a13.31 13.31 0 0 1 -7.14 6.82c-3.13 1.43-6.51 2.21-9.73 3.41a32.55 32.55 0 0 0 -9.9 5.68c-5.45 4.66-9.37 12.48-5.61 19.33 1.56 2.85 3.7 5.35 4.64 8.51.78 2.63.08 6.69-2.65 8-1.46.71-2.9 0-3.9-1.16 1.91 7.25 13.5 2 15.13-3a6 6 0 0 1 .17 4.68 31.11 31.11 0 0 0 -1.69 5.61 13.06 13.06 0 0 0 2.9 10c-1.84-3.71 2-9.93 6.36-8.67a12 12 0 0 0 .86 10.19c1.57 2.86 3.37 5.69 1.12 8.76 3.39-1.46 6.33-5.57 6.16-9.33 1.66 3.41 2.14 7.23 3.66 10.69 1.63 3.73 4.73 5.63 8.75 6a7.21 7.21 0 0 1 -.3-5 6.18 6.18 0 0 1 1.1-2.13c.36-.44 1.4-1.57 2-1.53.42 0 1.25 1.63 1.56 2.06.55.77 1.13 1.52 1.75 2.23a17.93 17.93 0 0 0 3.6 3.25 18.65 18.65 0 0 0 9.66 2.79c1 0 1.08-.22 1.53-1.16a23 23 0 0 0 1.13-3.27 65.41 65.41 0 0 1 2.39-6.43 74.56 74.56 0 0 1 14.77-22.63 52.86 52.86 0 0 1 10.47-8.81 26.46 26.46 0 0 1 13.74-4.15c4.16-.27 8.5-.62 12.33-2.41a9.4 9.4 0 0 0 4.08-3.37 10 10 0 0 0 1.13-6c-.13-2.24-.57-4.45-.65-6.7a56.51 56.51 0 0 1 .24-7.24 70.9 70.9 0 0 1 3-14.11c5.6-18.08 15.82-34.84 18.06-53.9 1-8.32.34-17.7-4.66-24.75-4.18-5.9-10.93-8.94-17.9-10.08a48 48 0 0 0 -5.34-.54z" fill="#001"/><path d="m169.33 92.05c-.1.07-.05.16.14.27-.06-.13.04-.22-.14-.27z" fill="#001"/><path d="m168.44 112.92c-2.25-1-4.55-2.32-5.67-4.59-1.3-2.64-.63-5.81.64-8.32a24.35 24.35 0 0 1 2.88-4.31c.43-.54.84-1.1 1.26-1.66s1.15-1.17 1.55-1.8c.57-.89-.43-2.66-1.21-3.33a6 6 0 0 0 -3.13-1.3c-5.33-.77-10.83 2-15.07 5a43.67 43.67 0 0 0 -13.69 14.88c-2.77 5.12-5.26 12-2.07 17.49.51.87 1.1 1.65 1.53 2.58a29.56 29.56 0 0 1 1.1 2.94c.71 2.18 1.31 4.4 2.05 6.57a14.88 14.88 0 0 0 2.65 5.27c1.37 1.49 3.28 1.32 5.14 1a36.79 36.79 0 0 0 15.33-6.75 61 61 0 0 0 10-8.64c1.4-1.59 2.89-3.52 3.17-5.69.35-2.6-1.2-5.4-3-7.14a11.8 11.8 0 0 0 -3.46-2.2z" fill="#001"/><path d="m131.82 10.86c-5.81-1.37-12.46-2.2-18.17 0a12.92 12.92 0 0 0 -6.53 5.44 40.51 40.51 0 0 0 -3.39 8.43 32.74 32.74 0 0 1 -3.55 8.13 30.75 30.75 0 0 1 -7.3 7.58 29.8 29.8 0 0 1 -4.56 2.77c-.73.35-1.47.66-2.24.94a8 8 0 0 0 -1.2.39c-.33.2-.36.21-.36.64 0 1.85 1.79 3 3.28 3.63 3.73 1.65 8 2 12.06 2a104.48 104.48 0 0 0 17.92-1.71 137.66 137.66 0 0 0 18.79-4.59c5.31-1.71 11-3.66 15.69-6.8 1.9-1.27 3.14-3 2.58-5.31a26.9 26.9 0 0 0 -3.68-7.7 32.38 32.38 0 0 0 -14.77-12.38 29.39 29.39 0 0 0 -4.57-1.46z" fill="#001"/><path d="m126.82 159.89c-2.55-6.2-5.29-12.7-10-17.57-4.38-4.49-12.61-8.89-18.75-5.42-2.85 1.6-4.7 4.45-6.32 7.19-1.89 3.21-3.83 6.37-6 9.43-4.65 6.73-9.75 13.19-13.75 20.31-2.09 3.68-4.64 7.42-5.73 11.55-1.2 4.51.92 8.6 2.46 12.73-.43-2.34-.74-4.74-1.34-7 2.92 4.4 6.24 9.17 5.37 14.74-.23 1.48-1 3.69-2.48 4.33a2 2 0 0 1 -2.31-.83c-.78-1.11.44-1.82 1.48-1.69-.49-.84-1.67-.51-2.33-.09a2.31 2.31 0 0 0 -1.12 2.43c.44 1.86 3 2.45 4.6 2.49 5.28.14 8.14-4.16 9.68-8.62.74-2.13 1.77-5.32.46-7.44 1.71 1.83 4 3.61 4.44 6.21.53 3-1.11 6-1.32 9a7.47 7.47 0 0 0 3.28 7.12 8.85 8.85 0 0 0 8 1 6.38 6.38 0 0 0 4.12-6.88c-.21 1.82-2.28 3.47-4 2.35-1.49-1-.77-2.57.37-3.5 3.09-2.52 5.86.52 7 3.43.47 1.21.29 2.74 1 3.8a6.61 6.61 0 0 0 4 2.16 16.6 16.6 0 0 0 9.37-.87c12.29-4.52 17.08-19.59 17.14-31.53.08-9.94-3.59-19.72-7.32-28.83z" fill="#001"/><g clip-path="url(#b)" opacity=".87"><path d="m104.87 26.62c-.15 2.22-.11 4.64-1.59 6.46s-3.6 2.6-5.57 3.37c-3.88 1.52-8.24 2.6-11.54 5.27a9.18 9.18 0 0 0 -3.31 5.15c-.49 2.29.48 4.22 1.52 6.18 2.11 3.94 3.07 8.43 1 12.62-2 4-6.11 6.74-10.25 8.11-4.29 1.41-8.86 1.54-13.22 2.64-3.9 1-8.46 3.1-9.77 7.25-1.12 3.52.88 7 3.54 9.23a53 53 0 0 1 4.46 3.75 21.69 21.69 0 0 1 4.15 5.94c2.13 4.64 1.72 9.9-2.3 13.38v.06c8-6.4 2.45-17.12-4-22.27-2.5-2-5.17-4-5.44-7.54-.35-4.62 4.34-7.52 8.17-8.73 4.64-1.47 9.61-1.58 14.21-3.17 4.15-1.43 8.29-4.12 10.37-8.09s1.6-8.71-.37-12.74c-1-2-2.15-4-1.69-6.25a8.78 8.78 0 0 1 3.4-5.14c4.07-3.09 9.34-3.89 13.77-6.28 2.21-1.19 3.9-2.84 4.36-5.38s-.22-5.43.91-7.87h-.07a10.41 10.41 0 0 0 -.74 4.05z" fill="#625454"/></g><path d="m38.07 107.64c-.61-.71-1.33-1.32-1.87-2.09s-.9-1.65-1.42-2.44h-.07a23 23 0 0 0 2.23 3.89c1 1.12 1.91 2.26 2.77 3.47a32.24 32.24 0 0 1 4.42 8.39c.9 2.72 1.59 5.92-.67 8.16-2.11 2.09-5.38 2.83-8.15 3.58s-6 1.38-8.23 3.26c-2 1.66-4.17 4.2-3.92 7s3.25 4.91 5.42 6.38 4.71 2.85 6.6 4.86a6 6 0 0 1 2 3.87c0 1.67-1.26 2.95-2.53 3.86-2.82 2-6.4 3.07-9.74 3.84v.07a30.63 30.63 0 0 0 8.63-2.6c2.23-1.13 4.73-3.09 4.3-5.9s-3.15-4.9-5.31-6.4a56.29 56.29 0 0 1 -6.53-4.61 6.39 6.39 0 0 1 -2.13-3.23 5.5 5.5 0 0 1 1-4 12.07 12.07 0 0 1 6-4.83c2.7-1 5.55-1.57 8.28-2.47 2.57-.85 5.43-2.16 6.23-5s-.58-6.4-1.81-9a34.57 34.57 0 0 0 -5.5-8.06z" fill="#625454"/><path d="m89.73 84c-2.14-.61-5 1.46-6.63 2.57-1.86 1.25-3.79 2.6-4.83 4.65a5.25 5.25 0 0 0 .4 5.81c1.3 1.61 3.3 2.43 4.61 4a8.33 8.33 0 0 1 -.28 10.6 11.66 11.66 0 0 1 -5.5 3.37c-2 .7-4.36 1.42-5.54 3.4s0 3.85 1.72 5.14 3.67 2.32 4.64 4.35a6.83 6.83 0 0 1 .05 6.24 8.19 8.19 0 0 1 -5 3.62c-4.29 1.36-9.29 2.18-12.17 6.05-1.3 1.75-1.92 4.23-.71 6.19 1.12 1.8 3.31 2.61 5.17 3.39a14.52 14.52 0 0 1 9.34 11.32c1.06 5.65-.27 11.42-.93 17h.08c.81-5.17 2.12-10.36 1.64-15.63a15.83 15.83 0 0 0 -6.62-11.85c-3.16-2.15-10.26-3-8.19-8.5 1.68-4.43 7.32-5.85 11.36-7 2.19-.65 4.39-1.49 5.83-3.36a6.84 6.84 0 0 0 1.06-6.14c-.68-2.36-2.23-3.67-4.17-5-1.62-1.13-4.06-2.65-3.22-5 .73-2 2.9-3 4.79-3.59a16.5 16.5 0 0 0 5.53-2.51 9 9 0 0 0 2.69-10.91c-1.08-2.21-3-3.2-4.78-4.72a4.83 4.83 0 0 1 -1.07-6.42c1.25-2.27 3.7-3.84 5.84-5.19 1.54-1 5.57-3.43 5.83-.13h.08c-.05-.75-.2-1.56-1.02-1.75z" fill="#625454"/><g clip-path="url(#c)" opacity=".51"><path d="m109.82 194.35a4.87 4.87 0 0 0 -4-2.54c-1.91-.17-3.82.19-5.73.13a6.53 6.53 0 0 1 -4.46-1.53 7.53 7.53 0 0 1 -2-4.32c-.51-3.77 2.77-5.72 5.68-7.21s7-2.88 8.4-6.22c1.69-4-.6-7.59-2.86-10.82h-.06c1.4 2.3 3 4.84 3 7.64s-1.62 4.69-3.87 6.09c-3.71 2.29-10.79 3.88-11 9.24a7.65 7.65 0 0 0 3.06 6.41c2.32 1.51 5.28.9 7.86.78s4.76.23 5.81 2.75-.88 4.88-2.78 6.5c-2.17 1.86-4.83 3.35-5.59 6.32s.49 6.18 1.57 9h.07c-1.3-4.17-2.61-9 1.24-12.25 2.71-2.32 8.12-5.63 5.66-9.97z" fill="#d7cdb6"/></g><path d="m123.26 187.68c3.45 4.89 2.56 11.22-1.1 15.72a18.1 18.1 0 0 1 -7.16 5c-2.4 1.09-5.54 2.36-6.52 5.06a5.06 5.06 0 0 0 .37 4.06c.46 1 2.07 3.94 3.5 2.87-1.24.75-2.42-1.39-2.85-2.24a5.82 5.82 0 0 1 -.77-3.77c.6-2.77 3.74-4.08 6.06-5.11a43.31 43.31 0 0 0 4.14-1.93 13.36 13.36 0 0 0 3.13-2.68 15 15 0 0 0 3.67-7.12 11.84 11.84 0 0 0 -2.47-9.86z" fill="#d7cdb6"/><path d="m162.63 115.52a14.45 14.45 0 0 0 -4.95-2 12 12 0 0 1 -4.47-2.32c-2.8-2.37-3.7-5.86-1.38-8.94-2.54 2.6-2.08 6.22.27 8.77a11.55 11.55 0 0 0 4.42 2.89 34.37 34.37 0 0 1 5 1.73 4.08 4.08 0 0 1 2.26 3.84c-.13 1.67-1.28 3.31-2.22 4.62a30.43 30.43 0 0 1 -3.74 4.28c-1.21 1.16-2.86 2.77-4.63 3 1.7-.07 3.32-1.44 4.55-2.48a27.83 27.83 0 0 0 3.89-4c2.03-2.66 4.44-6.76 1-9.39z" fill="#625454"/><g clip-path="url(#d)" opacity=".87"><path d="m53.93 154.26c-2-1.23-4.14-2.11-5.94-3.57-1.51-1.21-3.33-3.32-2.35-5.36s3.23-2.73 5.06-3.43c2.25-.86 3.68-2 4-4.49h-.07a4.54 4.54 0 0 1 -2.1 3.3 32.43 32.43 0 0 1 -3.85 1.46c-2.46 1-4.94 3.18-3.66 6.07 1.14 2.57 3.68 4 6 5.33 2.53 1.39 4.9 2.74 6.32 5.36a11.84 11.84 0 0 1 -3.18 14.8c-2.45 1.79-5.44 2.7-8.28 3.65-2.6.86-5.24 1.88-6.89 4.18-4 5.62 1 12.94 5.12 16.86-2.57-2.83-4.94-6.19-5.72-10a8.14 8.14 0 0 1 4.61-9.32c3.58-1.9 7.69-2.68 11.08-5a12.05 12.05 0 0 0 5.18-9.33 11.32 11.32 0 0 0 -5.33-10.51z" fill="#625454"/></g><path d="m167 49.83c-.29-.24-.74 1.54-.78 1.7q-.37 1.47-.69 3c-.43 2.1-.65 4.42.84 6.18 1.23 1.45 3.14 2 4.83 2.72a17 17 0 0 1 5.47 4.1c2.47-3.56 2.16-8.81.46-12.62a10.3 10.3 0 0 0 -4.13-4.76c-1.69-1.01-4.38-1.95-6-.32z" fill="#001"/><path d="m173.09 57.74c-1.21-.6-4.33-.66-4 1.47-1.74-.06-2.62 2.66-3 3.95a9.68 9.68 0 0 0 -.32 5.46c1.27 4.88 5.79 7.89 7.83 12.36 1-2.13 1.86-4.33 2.76-6.51a19.13 19.13 0 0 0 1.85-6.73c.12-3.67-1.64-8.27-5.12-10z" fill="#001"/><path d="m173.31 73.41a2.57 2.57 0 0 1 .48 1.82l-2.7-2c.74 0 1.48.1 2.22.21-1.83-2.3-5.84 0-6 2.47-.1 2.08 1.28 4.09 2.13 5.9 1.12 2.41 1 4.65 1 7.23 1.17-1.37 2.79-2.21 4.11-3.42a11.91 11.91 0 0 0 3.09-5 5.37 5.37 0 0 0 -4.33-7.21z" fill="#001"/><path d="m173.79 75.23a2.37 2.37 0 0 0 -.41-1.72c-.4-.36-1.76-.27-2.29-.31z" fill="#001"/><path d="m169.82 40.71c-2.66 1.13-5.35 2.24-8 3.32-1.69.69.05 3.54.61 4.51a10.54 10.54 0 0 0 4.74 4.62c1.64.82 3.45 1.28 5.05 2.13s2.58 2.48 4 3.57a15.9 15.9 0 0 0 .07-11.86c-1.07-2.4-3.29-6.51-6.47-6.29z" fill="#001"/><path d="m159.72 28.32a23.37 23.37 0 0 0 -6.05.9c-.28.06-2.45.58-2.33.76a2.66 2.66 0 0 1 .75.06 1.67 1.67 0 0 1 .59.93 12.58 12.58 0 0 1 .51 3.35c.15 2.36-.09 4.72 1.09 6.88 1.6 2.91 4.87 4.45 7.93 5.34a32 32 0 0 0 7.09 1c1.63.1 3.69-.68 4.78.9-.46-4.48-.52-9.28-2.94-13.24a14.11 14.11 0 0 0 -11.42-6.88z" fill="#001"/><path d="m173.66 43.5h.23a3.15 3.15 0 0 0 -.29-.22z" fill="#402c2b"/><path d="m170.34 33.82c-.44-.52-1.43-1.78-2.25-1.46a13.18 13.18 0 0 1 .83 3.63c0 .85-1.12.83-.71 1.8.28.64 1.11 1 1.21 1.76.12.93-.86 1.06-1.5 1.32 1.49 1.56 4 1.08 5.68 2.39-.39-1.76-.86-3.49-1.37-5.22a10.89 10.89 0 0 0 -1.89-4.22z" fill="#402c2b"/><path d="m175.55 46.47c-.89-1-1.88-.34-3-.68-.12.64.43 1.16.4 1.76 0 .38 0 .4-.51.36a3.48 3.48 0 0 1 -.84-.29 18.41 18.41 0 0 0 1.85 2.81 2.2 2.2 0 0 1 .45 1.38c-.14.63-.73.59-1.24.76a6.19 6.19 0 0 0 2.19 1.43 14.35 14.35 0 0 1 2.4 1.71c-.02-2.98.52-6.83-1.7-9.24z" fill="#402c2b"/><path d="m178 66s0 0 0 0c.15.22.08.15 0 0z" fill="#402c2b"/><path d="m178.13 58.79c-.27-.68-1.51-2.81-2.58-2.23-.22.12-.28.62-.52.82-.4.31-.61.15-1.11 0a13.56 13.56 0 0 0 .56 1.85c-.51.14-1-.15-1.5-.23a5.92 5.92 0 0 1 1.4 2.17c.26 1.18-1 1-1.78 1.06a13.43 13.43 0 0 0 3 1.71 7.63 7.63 0 0 1 2.4 2.06c1.1-1.93.91-5.16.13-7.21z" fill="#402c2b"/><path d="m176.54 65.62c-.56-.08-.85.37-1.29.59-.62.31-1.08 0-1.71.08.17.78 1.06 2-.44 1.59.36.56 1.12 1.41 1 2.12-.1 1-1.35.37-1.94.26 1 1.69 3.45 2.39 3.43 4.62 1.77-.71 2.52-2.76 2.73-4.51.21-1.43.16-4.46-1.78-4.75z" fill="#402c2b"/><path d="m176.93 77.84c-.64-.25-1 1-1.58 1.19s-.9-.24-1.35-.56c-.15.61.1 1.59-.34 2.1-.63.74-1.36-.48-1.8-.86a12 12 0 0 1 0 2.54c-.35 1.27-1.1-.1-1.62-.45-.64 1.74 1.81 4.79-.16 6.12 1.36.2 2.5-.84 3.41-1.7a25.71 25.71 0 0 0 2.85-3 5.55 5.55 0 0 0 1.19-3c.04-.55.2-2.08-.6-2.38z" fill="#402c2b"/><g clip-path="url(#e)" fill="#402c2b" opacity=".42"><path d="m162.05 28.61c-1.26-.65-2.93-.22-4.27-.1a36.19 36.19 0 0 0 -4.28.5 3.83 3.83 0 0 0 -.93.28c-.37.19-.33.21-.35.65a11.33 11.33 0 0 0 .33 2.23c.26 1.53.58 3 .78 4.58.33 2.45.61 5.43 2.86 7a5.17 5.17 0 0 0 3.85.6c.83-.15 2.54-.35 3.07-1.1a5.09 5.09 0 0 1 -2.69-.63c.6-.29 1.69-.42 2-1.1-.42-.31-1.16-.16-1.54-.52-.56-.54.57-.66 1-.93.94-.64.26-1.21-.36-1.72-1.17-.95-.41-1.65.6-2.35.42-.29 1.88-.93 1.81-1.59 0-.47-.83-.68-1.17-.85s-.59-.22-.73-.43c-.25-.37.06-.36.44-.51.2-.07.83-.2.85-.48s-.91-.76-1.08-1c.65-.51 1.61-.42 2.24-1a7.25 7.25 0 0 0 -2.43-1.53z"/><path d="m167.16 51.16c-.1-.54.53-.57.58-1 .08-.76-1.24-.87-1.06-1.72.07-.34.43-.54.44-.91s-.32-.66-.55-1c-.56-.73-.22-1.46-.47-2.28-.48-1.6-3.34-.11-4.4.12s-3.72.93-4.63-.3c0 .67 1.91 1.2 2.38 1.47a7 7 0 0 1 2.82 3.27c1.22 2.34 4.33 4.76 7.16 3.9-.43-.77-2.09-.51-2.27-1.55z"/><path d="m170.17 61.45c-.49-1.09 2.49-.65 1.31-2.32-.37-.52-1.12-.88-1.38-1.48s.38-.72.53-1.3c.33-1.26-2.47-3-3.34-3.53a25.46 25.46 0 0 1 -2.65-1.5 4.53 4.53 0 0 1 -.89-1c-.08-.1-.17-.38-.33-.4a8.25 8.25 0 0 0 .73 2.41c.22.83.39 1.67.55 2.51.32 1.6.4 3.31.86 4.88.73 2.53 4.11 4.58 6.72 3.61-.22-.98-1.72-1-2.11-1.88z"/><path d="m170.63 71.16c-1.26-1.35.35-1.11.64-2.34.13-.56-.4-.8-.67-1.21-.4-.59-.22-1-.07-1.65.42-1.71-1-2.2-2.21-2.94a6.66 6.66 0 0 1 -1.8-1.4c-.25-.3-.43-.81-.75-1s-.28-.18-.34.27c-.11.8-.06 1.6-.13 2.41a12.87 12.87 0 0 0 .33 5.21 5.87 5.87 0 0 0 2.17 3.28 6 6 0 0 0 2.31.68c.67.11 1.8.51 2.45.23-.48-.7-1.36-.94-1.93-1.54z"/><path d="m169.94 73.09c-1.84-.76-4-1.63-4.4-3.86l-.2.88c-.23-.36-.14.29-.13.46 0 .34.08.69.11 1a10.72 10.72 0 0 0 .45 2.24 25.17 25.17 0 0 0 2.39 4.42 15.56 15.56 0 0 1 1.89 8.9c-.05 1.34.89.39 1.3-.18a4.55 4.55 0 0 0 .83-3.45 10.08 10.08 0 0 0 -.51-1.76c-.25-.75-.11-.72.45-1.12 1.27-.93-.4-2-.76-2.92-.47-1.16 1.63-1.06 1.29-2.45-.28-1.12-1.73-1.76-2.71-2.16z"/></g><path d="m170.58 42.26c-4.62-.78-8.35 2.67-12.9 2.35 3.1.89 5.85-.63 8.78-1.4 2.48-.65 6-.82 8 1.08a5.59 5.59 0 0 0 -3.88-2.03z" fill="#625454"/><path d="m176.62 55.34a11.84 11.84 0 0 0 -3.36-1.93 19.31 19.31 0 0 0 -4-.5c-2.58-.24-4.61-1-5.86-3.42 1 3.19 3.67 4 6.72 4.26a13.3 13.3 0 0 1 4.41.91c.49.22 3.77 1.62 3 2.47.7-.45-.53-1.52-.91-1.79z" fill="#625454"/><path d="m177.33 65.65c-1.6-2-4.13-2.43-6.53-2.41a4.86 4.86 0 0 1 -3.1-.7 5.67 5.67 0 0 1 -1.67-2.7 4.74 4.74 0 0 0 1.61 3.34c1.13.87 2.58.78 3.93.81a9.15 9.15 0 0 1 3.91.88 5.51 5.51 0 0 1 1.61 1.13c.21.21.91 1.46 1 1.45l-.05.06a.33.33 0 0 0 -.29-.22.49.49 0 0 0 .39.26 4.06 4.06 0 0 0 -.81-1.9z" fill="#625454"/><path d="m173.88 73.48c-2.54-1-7.54-.71-8-4.31-.38 2.63 2.33 3.69 4.4 4.17 1.66.39 5.33.38 5.31 2.77.48-1.29-.59-2.2-1.71-2.63z" fill="#625454"/><path d="m179.09 92.75a9.46 9.46 0 0 0 -2.09 2.84 4.83 4.83 0 0 1 -2.85 2.13c-1.89.56-3.82.3-4.85-1.5-1.4-2.45-.94-7.37 2.23-8.26-1.06-2.2-2.9-4.38-5.48-2.82a10 10 0 0 0 -3.89 5.37c-1.26 3.68-1.18 8.41 2 11.13 3 2.57 7.79 3.42 11.23 1.29a7.54 7.54 0 0 0 3.31-5.12c.51-2.43 1.64-4.28 4.21-4.92s4.22 1.37 4.82 3.58c.44 1.65.1 4.59-1.91 5.08 3 .87 2.94-5.45 2.28-7-1.5-3.55-6.24-3.75-9.01-1.8z" fill="#001"/><path d="m167.43 74.74c-1.39-3.91-1.21-8.17-1.23-12.25a38.5 38.5 0 0 0 -2.09-12.68c-.55-1.59-1-3.22-1.72-4.75a9.92 9.92 0 0 0 -1.16-2.06c-.18-.22-.44-.64-.71-.75s-.89 0-1.28-.07c-1.4-.41-2.39-1.74-3.75-2.3a29.85 29.85 0 0 0 -5.66-1.64c-8.47-1.7-17-3-25.59-1-6.8 1.53-12.45 6.18-16.24 11.92a41.76 41.76 0 0 0 -6.35 19.26 35.15 35.15 0 0 0 3.53 19.49c3.54 6.66 9.66 10.92 16.26 14.23 3.53 1.78 7.16 3.37 10.77 5a54.68 54.68 0 0 0 12.19 4 14.32 14.32 0 0 0 5.72.12 12.52 12.52 0 0 0 4.72-2.3 32.81 32.81 0 0 0 4-3.83c1.39-1.46 2.79-2.91 4.14-4.4 5-5.54 10.75-13.66 6.8-21.3a37.45 37.45 0 0 1 -2.35-4.69z" fill="#cb9579"/><path d="m141.87 102.55c-3.2-.41-6.68-.93-9.4-2.78-2.18-1.49-3.76-3.67-5.86-5.25-4-3-10.06-1.51-14.55-.67 2.64 5.54 6.11 10.77 7.65 16.77a16.38 16.38 0 0 1 .11 8.73 13.16 13.16 0 0 1 -.73 1.89c-.18.36-.37.71-.57 1.06s-.67.76-.69 1c0 .45.54 1.3.77 1.67a8.22 8.22 0 0 0 1.25 1.57c3.39 3.32 8.06 3.56 12.5 3.67a34 34 0 0 0 7.88-.34 7.89 7.89 0 0 0 3.2-1.34c.51-.4.79-.6.52-1.22l-.95-2.11c-1.45-3.39-2.94-7-3.11-10.73-.17-4.09 1.79-7.87 1.98-11.92z" fill="#cb9579"/><path d="m155.89 82.13a7.84 7.84 0 0 0 -4.77 1.1 4.73 4.73 0 0 0 -1.76 1.42 1.21 1.21 0 0 0 .9 1.71 6.69 6.69 0 0 0 5.29-.86c.65-.46 1.54-1.1 1.61-2a1.44 1.44 0 0 0 -1.27-1.37z" fill="#b57f64"/><path d="m152.41 91.55c-2.09.36-4.07 1.24-6.15 1.58-.9.14-3.9.4-4.44-.66.55 1.06 1.49 2 2.14 3a20.52 20.52 0 0 0 2.21 3.1 6.6 6.6 0 0 0 5.92 2.29 6.76 6.76 0 0 0 4.78-2.74c1.42-2.1 1.78-4.78 2.56-7.14-2.33.76-4.66.16-7.02.57z" fill="#f9f4e8"/><path d="m156.11 90.23a13.36 13.36 0 0 0 -7.93 1.39c-2.26 1-4.87 2-7.2.61a7.85 7.85 0 0 0 4.3 1.3 52.07 52.07 0 0 0 5.72.31 13.08 13.08 0 0 0 5.18-.94 15.82 15.82 0 0 0 2.4-1.37c.46-.31 1.28-1.21 1.84-1.27-1.42.59-2.89.19-4.31-.03z" fill="#741218"/><path d="m157.72 94.85c-1.43 3.06-4.32 4.12-7.53 3.48a9.43 9.43 0 0 1 -4.28-2.14 20.89 20.89 0 0 1 -1.64-1.62 6.46 6.46 0 0 0 -1.89-1.49c1.64 2 2.41 4.51 4.22 6.38a7.82 7.82 0 0 0 6 2.36c2.27-.11 4.67-1.23 5.38-3.53.32-1.05.33-2.15.55-3.22a18 18 0 0 0 .75-4 3.08 3.08 0 0 1 -.54 1.56c-.36.76-.69 1.49-1.02 2.22z" fill="#741218"/><path d="m129.76 107.34c-2.13-.86-4.28-1.66-6.32-2.72-1.85-1-3.36-2.63-5.33-3.35a84.83 84.83 0 0 0 6.28 6.3c1.68 1.5 4 1.45 5.82 2.72.87.6 1.82 1.61 2.93 1.67 1.26.06 2.07-.46 3.29.22.81.46 1.83 1.13 2.66.32.53-.53.46-1.68 1-2.08-1.16-.8-3.19-.68-4.53-1a45 45 0 0 1 -5.8-2.08z" fill="#b57f64"/><path d="m153 31.27s0 .02 0 0z" fill="#001"/><path d="m175.92 29.69c-4.56 1.16-4.66-4-5.56-7-1.36-4.56-6.53-4.89-10.36-3.69a15.34 15.34 0 0 0 -6.14 3.42 9.44 9.44 0 0 0 -2 2.52 7.14 7.14 0 0 1 -.47 1.23c-.1.13-.16.1-.34.19a14.17 14.17 0 0 1 -2.13.65l-2.81.85c-.72.22-1.48.4-2.18.66-.34.13-.65.14-.36.57s1.41.5 1.92.55c1.05.09 2.11.09 3.17.13a14.33 14.33 0 0 1 2.92.3 2 2 0 0 1 1.42 1.2c-1-1.67 1.36-3.58 2.48-4.46a15.32 15.32 0 0 1 6.45-3.08c2.29-.44 5.71-.51 6.91 2 .58 1.18.2 2.58 1 3.71a4.49 4.49 0 0 0 2.71 1.69c2.42.57 6-.37 6.18-3.34a4.56 4.56 0 0 1 -2.81 1.9z" fill="#001"/><path d="m178.14 24.43c0 1.14.64 2.18.56 3.33a3.76 3.76 0 0 0 .56-2.42c-.08-.79-.68-1.61-.47-2.42a1.92 1.92 0 0 0 -.65 1.51z" fill="#001"/><path d="m179 22.49a1.3 1.3 0 0 0 -.2.43 2.71 2.71 0 0 1 2.43-.29c.13-.33-.61-.54-.8-.58a1.31 1.31 0 0 0 -1.43.44z" fill="#001"/><path d="m162.57 57.66a9.91 9.91 0 0 0 -4.69 1.11c-.66.37-1.43.9-1.3 1.73s.32 1.18 1.17 1c1.81-.38 3.35-1.74 5.13-2.26 1.42-.41 3.48-.41 4.26 1.1-.49-1.91-2.81-2.67-4.57-2.68z" fill="#001"/><path d="m140.61 60.11c-2.73-1.54-6.76-1.21-9.74-.8-2.58.36-7.51 1.6-7.84 4.83.67-1.62 2.74-2.23 4.3-2.49a20 20 0 0 1 6.67.35 30.1 30.1 0 0 0 5.5.77 3.09 3.09 0 0 0 1.13-.15c.41-.16.39-.22.46-.55.18-.83.33-1.51-.48-1.96z" fill="#001"/><path d="m157.47 83a3.64 3.64 0 0 0 -2.39-1.61c.62.48 2 1.58 1.82 2.5a3.81 3.81 0 0 1 -2.62 2.11c1.43.57 4.1-1.45 3.19-3z" fill="#a36f55"/><g clip-path="url(#f)" fill="#c7788a" opacity=".13"><path d="m163.08 77.54.85-.11a4.82 4.82 0 0 0 -.85.11z"/><path d="m168.5 78.07a9.38 9.38 0 0 0 -3.4-1.07 4.23 4.23 0 0 0 -1.42.07c-.51.13-.92.49-1.42.62a13.64 13.64 0 0 1 1.67-.22 27.36 27.36 0 0 0 -2.82.64 2.93 2.93 0 0 0 -2.52 2.11 4.58 4.58 0 0 0 .16 3.58 3.25 3.25 0 0 0 3.11 1.42c1.28-.19 2.6.32 3.86 0a8.72 8.72 0 0 0 1.73-.86c.55-.27 1.16-.32 1.71-.58 1.12-.53 1.55-2.2 1.34-3.34a3.5 3.5 0 0 0 -2-2.37z"/></g><g clip-path="url(#g)" opacity=".2"><path d="m163.72 78.41c-1.59.38-4.06 1.18-4.17 3.15a1.3 1.3 0 0 0 .72 1.35c.24.14.53.16.77.3s.31.34.5.49c.83.66 2 .32 3 .16a12.51 12.51 0 0 0 3-.45c.94-.43 1-1.42.86-2.34a2.73 2.73 0 0 0 -1.6-2.27c-.99-.43-2.05-.17-3.08-.39z" fill="#c7788a"/></g><g clip-path="url(#h)" fill="#c7788a" opacity=".24"><path d="m165.52 79.44c-1.2 0-3.48 0-4 1.4-.56 1.62 1.06 2.51 2.39 2.51 1.17 0 2.68-.28 3.19-1.47a1.67 1.67 0 0 0 -1.58-2.44z"/><path d="m161.63 80.59.49-.5a.83.83 0 0 0 -.49.5z"/></g><g clip-path="url(#i)" fill="#c7788a" opacity=".13"><path d="m133.59 80.75 1-.08a5.55 5.55 0 0 0 -1 .08z"/><path d="m138.44 80.88a19.67 19.67 0 0 0 -4.85-.13c.63-.11 1.3-.1 1.95-.15a16.35 16.35 0 0 0 -2.31-.27 7.7 7.7 0 0 0 -2.36.67 9 9 0 0 0 -3.56 2.5 2.89 2.89 0 0 0 .17 3.57c1 1.34 2.35.91 3.76 1.25a7 7 0 0 0 2.35.41 11.75 11.75 0 0 0 2.18-.53c1.43-.41 2.77-.19 4-1.13a2.88 2.88 0 0 0 1.07-3.5c-.37-1.18-1.07-2.46-2.4-2.69z"/></g><g clip-path="url(#j)" opacity=".2"><path d="m134 81.66c-1.95.76-4.7.63-4.78 3.4 0 1 .3 2.09 1.43 2.32a15.2 15.2 0 0 0 3.55-.21c.94 0 2.36.09 3.16-.52.46-.35.61-.79 1.15-1.1s1.09-.67 1-1.44c-.21-2.27-3.8-2.42-5.51-2.45z" fill="#c7788a"/></g><g clip-path="url(#k)" fill="#c7788a" opacity=".24"><path d="m132.2 83.06c-1.32.28-2.33 1.43-1.32 2.72.85 1.08 2.44 1 3.65.82 1.41-.19 3.26-1 2.63-2.78s-3.69-1.03-4.96-.76z"/><path d="m136.23 83 .66.38a.91.91 0 0 0 -.66-.38z"/></g><path d="m133.19 81.15c-.1-.08-.26.07-.13.25a.84.84 0 0 0 .7.2c.23 0 .68-.14.74-.42.14-.65-1.06-.26-1.31-.03z" fill="#b57f64"/><path d="m135.33 84.26c-1 .24.39 1.12.92.23a1 1 0 0 0 -.92-.23z" fill="#b57f64"/><path d="m137.77 81.76c-.54.14-.43.33-.49.57.47 1.02 1.86-.5.49-.57z" fill="#b57f64"/><path d="m129.89 83.53c0 .2-.33.15-.36.41s.36.49.58.51c.94.1.66-1.07-.22-.92z" fill="#bf906b"/><path d="m161.09 77.59.09-.21a.18.18 0 0 1 -.09.21c.28.4 1.12.17.91-.25s-.8-.09-.91.25z" fill="#b57f64"/><path d="m160.3 80.43c-.83.47 1.36 1 1.56.17s-1.25-.53-1.56-.17z" fill="#b57f64"/><path d="m164 78.33.18-.11z" fill="#b57f64"/><path d="m164 78.33-.13.13a.8.8 0 0 0 1.09.08c.55-.65-.68-.45-.96-.21z" fill="#b57f64"/><path d="m164.82 80.51c-.33.5.51.82.93.58a.48.48 0 0 0 .25-.57c-.13-.27-.92-.17-1.18-.01z" fill="#b57f64"/><path d="m140 83.88c-.12.43.93.33 1-.07s-.93-.24-1 .07z" fill="#b57f64"/><path d="m142.93 81.34c-.41-.12-.47.35-.23.55a1 1 0 0 0 .87 0c.56-.44-.21-.95-.64-.55z" fill="#b57f64"/><g clip-path="url(#l)" opacity=".35"><path d="m157.32 78.3h.18c-.33-.12-1 .13-.72.55.53.7 1.28-.71.54-.55z" fill="#bf906b"/></g><g clip-path="url(#m)" opacity=".35"><path d="m147.1 81.81c.06.46 1.31-.1.86-.49-.25-.23-.91.17-.86.49z" fill="#bf906b"/></g><path d="m168.33 71.26c-1.15.57-2.42-.56-3.59-.59a5 5 0 0 0 -3.36 1.52 11.27 11.27 0 0 0 -2.31 3.24c-.24.44-.39.85.26.57.46-.19.81-.76 1.21-1a5.81 5.81 0 0 1 3.76-1.15 5.49 5.49 0 0 1 1.83.47c.53.24 1.06.79 1.65.84 1.15.1 1.71-1.59 2-2.45s1-2.47.53-3.22a8.08 8.08 0 0 1 -1.98 1.77z" fill="#001"/><path d="m159.7 40.68c-2.25-2.34-4.38-5.29-4.92-8.56a9.69 9.69 0 0 0 -.05 4.48c.2 1.51.26 2.94 1.3 4.12 1.56 1.79 5.45 4.26 7.67 2.25a8.34 8.34 0 0 0 -2-.76 5.75 5.75 0 0 1 -2-1.53z" fill="#402c2b"/><path d="m141.63 75.79c-3-2.41-7-5.59-10.88-2.94-1.5 1-2.55 2.64-4.56 2.52a5.24 5.24 0 0 1 -2.47-.84 7 7 0 0 1 -1.21-1c-.34-.35-.61-.89-1.05-1.12a6 6 0 0 0 1.27 2.69 27.31 27.31 0 0 0 1.57 2.58 4.69 4.69 0 0 0 5.41 2c2.07-.62 3.79-2.09 5.95-2.49a16 16 0 0 1 7.21.3c.06-.75-.74-1.29-1.24-1.7z" fill="#001"/><g clip-path="url(#n)" opacity=".44"><path d="m144.73 111.16c.26 1.67 1.48 2.54 2.81 3.4a6 6 0 0 1 3 3.9 11.3 11.3 0 0 1 -3.73 10.71" fill="none" stroke="#625454" stroke-miterlimit="10" stroke-width=".77"/></g><path d="m138.2 13.91a18.13 18.13 0 0 0 -1.44-1.91c-.75-.84-1-1-1.82-.12-1.66 1.74-3.13 5.49-1.92 7.82l-.54-.88c.66 1.11 1.28 2.4 2.5 3 1 .47 2.88.52 3.69-.34a5.24 5.24 0 0 0 .91-3.27 7 7 0 0 0 -1.38-4.3z" fill="#dea24e"/><path d="m108.59 21.89c-.27-.18-.3-.52-.65-.68a1.08 1.08 0 0 0 -1.11.1 2.82 2.82 0 0 0 -.79 2l.09-.49c-.34 1.32 1 4 2.57 2.95 1.17-.77 1.03-3.12-.11-3.88z" fill="#dea24e"/><path d="m114.79 18.84c-.3-.81-1.39-1.61-2.23-1.13s-.93 2.18-.7 3.08l-.16-.14c.44 1 1.16 2.44 2.52 1.67s.98-2.32.57-3.48z" fill="#dea24e"/><path d="m125.11 8.47a1.42 1.42 0 0 0 -.07.22z" fill="#dea24e"/><path d="m126.48 7.58a1.6 1.6 0 0 0 -1 .39c-.17.14-.43.72-.35.5 0 0-.09.38 0 .12-.46 1.15.72 3 1.9 1.83.52-.6.59-2.75-.55-2.84z" fill="#dea24e"/><path d="m144.53 6.59c-1.45-.72-2.11 2.5-1 3.15 1.76 1.07 2.62-2.35 1-3.15z" fill="#dea24e"/><path d="m154.47 16.47-.12.35z" fill="#dea24e"/><path d="m155.57 15c-.79.17-1.1 1.11-1.22 1.81 0-.06.11-.47.17-.48a3.6 3.6 0 0 0 -.12 2.67 1.45 1.45 0 0 0 2.29.76 3.14 3.14 0 0 0 .95-2.78c-.13-.89-.97-2.18-2.07-1.98z" fill="#dea24e"/><path d="m159.46 19.64.17-.27a.53.53 0 0 0 -.17.27z" fill="#dea24e"/><path d="m159.25 20c.12-.16.22-.47.38-.58a3.09 3.09 0 0 0 -.09 2.58c.51 1.3 1.88 1.13 2.47 0s.54-2.81-.58-3.45-1.85.58-2.18 1.45z" fill="#dea24e"/><path d="m112.65 18.27c-1.1.77-.52 3.48.93 3.49 1 0 1.06-1.58.92-2.21a2.15 2.15 0 0 0 -1.14-1.55c-.24-.06-1.08-.25-.71.27z" fill="#984662"/><path d="m107.11 21.66c-1.83 0 .62 5.69 1.66 2.75.4-1.15-1.12-4.1-1.66-2.75z" fill="#984662"/><path d="m156.34 15.82c.28-.64-.57-.2-.75 0a2.4 2.4 0 0 0 -.65 1.79c0 .51.22 1.93 1 1.81 1.31-.23 1.28-3.01.4-3.6z" fill="#984662"/><path d="m161.23 18.62c-.58-1.29-1.71 1.9-1.08 2.9 1.41 2.24 2.59-3.06 1.08-2.9z" fill="#984662"/><path d="m126.05 7.79.19.2c-.03-.15-.1-.2-.19-.2z" fill="#984662"/><path d="m126.49 8a4.52 4.52 0 0 1 -.5-.23c.1.1.22.1.25.27-.28-.49-.72.14-.84.44a1.71 1.71 0 0 0 .26 1.74c1.1 1 1.97-1.48.83-2.22z" fill="#984662"/><path d="m144.13 6.7c.08.12.17.13.17.31-.16-.69-.74.3-.82.55a1.73 1.73 0 0 0 .21 1.65c.54.49 1-.12 1.13-.65a1.72 1.72 0 0 0 0-1.05c-.18-.42-.48-.51-.69-.81z" fill="#984662"/><path d="m144.17 6.77.13.24c0-.16-.06-.22-.13-.24z" fill="#984662"/><path d="m137.65 14.46c-.31-.44-.62-.9-1-1.32a8.09 8.09 0 0 0 -.56-.61c-.29-.27-.26-.35-.6-.15-.71.4-1.32 2.1-1.58 2.82-.69 1.87-.85 4.29.42 5.94.43.56 1.24 1.45 2 1.37s1.49-1 1.87-1.72a6.25 6.25 0 0 0 -.55-6.33z" fill="#c9276e"/><path d="m134.54 16c-.23-.24-.2-1-.3-1.29.08.85.06 1.53-.87 1.63.27.18.72.11.94.35s.06.61.27.82c0-.78.13-.94.75-1.36-.19-.24-.61 0-.79-.15z" fill="#fff"/><path d="m106.12 32.12c.4.56 1.22 2.25 1.83 2.27a3.66 3.66 0 0 0 1-.35c.61-.22 1.23-.42 1.85-.61a86.73 86.73 0 0 1 14.72-3.08c1.73-.21 3.46-.38 5.2-.49.9-.07 1.79-.11 2.69-.15a14.18 14.18 0 0 0 3-.07c.78-.21.23.18.39-.21a1.88 1.88 0 0 0 0-.58 3.93 3.93 0 0 0 0-1.18c-.06-.06-.29 0-.37 0a14.68 14.68 0 0 0 -3 .08c-1.91.09-3.81.25-5.71.45a152.76 152.76 0 0 0 -21.6 3.92z" fill="#dea24e"/><path d="m130.8 20.38c1.54 2.35 4.33 4.09 6.7 5.52a22.1 22.1 0 0 0 4.21 2.1 8.82 8.82 0 0 0 3.76 0c-3.26-1.57-6.09-3.85-9.06-5.89a15 15 0 0 1 -3.14-2.5 7.33 7.33 0 0 1 -1.56-4.55 21.22 21.22 0 0 1 3.09-10.52 3.43 3.43 0 0 0 .62-1.31 8.26 8.26 0 0 0 -.07-1.23c0-.67-.07-1.35-.11-2a43.53 43.53 0 0 0 -5 10.08c-.93 3.29-1.42 7.27.56 10.3z" fill="#dea24e"/><path d="m127.67 25.86c-3.08-.81-6.28-1.36-8.31-4.05-1.54-2-2.7-5.55-1-7.83a2.37 2.37 0 0 1 4.33 1.6c0 .85-.57 1.58-1.49 1.08s-.36-2.1.2-1.54c-.6-.95-1.58 0-1.7.76-.22 1.36 1.42 2.19 2.59 1.88 3.09-.82 1.88-5.52-.75-6.08a4.66 4.66 0 0 0 -4 1.39 5.33 5.33 0 0 0 -1.28 4.51 10.54 10.54 0 0 0 5.65 8.47 22.06 22.06 0 0 0 5.9 1.76 6.51 6.51 0 0 0 2.86.28c.68-.18 1.75-.58 2-1.29a7 7 0 0 0 -2.25-.38c-.89-.15-1.83-.32-2.75-.56z" fill="#dea24e"/><path d="m124.37 25.14a.66.66 0 0 1 0-.14.33.33 0 0 0 0 .14z" fill="#dea24e"/><path d="m125.19 21.52c.6.81 2.32.86 2.08-.48-.23.75-1.12.29-1.22-.27a1.35 1.35 0 0 1 .93-1.39c1.62-.65 2.37 1.41 2.11 2.67a3.35 3.35 0 0 1 -2 2.48c-.31.13-2.46 1.16-2.68.61.06.65 1.56.66 2 .81a3.66 3.66 0 0 0 1.31.42 2.66 2.66 0 0 0 1.37-.75 5.45 5.45 0 0 0 1.41-5.42 2.83 2.83 0 0 0 -3.74-2.08c-1.5.47-2.62 1.95-1.57 3.4z" fill="#dea24e"/><path d="m125.88 6.65c-1.45 1.42-3.11 3.85-3.07 6 0 .94.79 2.34 1.92 1.74.28-.14 1-1.16.5-1.42-.37-.18-.59.88-1.06.12-.71-1.15.75-5.13 2.22-5 1 .1 2 1.38 2.47 2.14a2.17 2.17 0 0 1 .35 1.3c-.08.59-1 .94-.8.28-1.21-.17-.8 1.87.29 1.91s1.28-1.45 1.41-2.18c.5-2.91-2.04-3.84-4.23-4.89z" fill="#dea24e"/><path d="m112.42 16c-.69 1.76-1.83 3.31-2.51 5.09a12.14 12.14 0 0 0 -.91 5.61c.19 1.65 1.69 5.53 4 4-.21.08-1-1.42-1.09-1.62a7.69 7.69 0 0 1 -.74-3.69 15.28 15.28 0 0 1 2.14-7.26 25.86 25.86 0 0 1 5.36 5.24c1.31 1.92 1 4 .2 6.12.64-.08 1.29 0 1.65-.52a4.94 4.94 0 0 0 .33-3 8.91 8.91 0 0 0 -2.07-5 42.92 42.92 0 0 0 -3.57-3.3c-.21-.16-2.6-2.18-2.79-1.67z" fill="#dea24e"/><path d="m106.45 20.21c-1 2.6-2.09 5.24-1.82 8.09a7.41 7.41 0 0 0 .83 3c.21.35.63 1 1.05 1.07a4.37 4.37 0 0 0 1.16-.24c-.35-.65-.93-1.12-1.25-1.8a5.86 5.86 0 0 1 -.49-2.11 12.45 12.45 0 0 1 .47-4.16 4.71 4.71 0 0 1 .74-1.93c.28-.27.39-.11.77.06s.73.34 1.08.52a8.89 8.89 0 0 1 3.33 2.44 6.6 6.6 0 0 1 1 3.79c0 .49-.5 2.68.64 1.59.68-.66.46-2.24.39-3.09a6 6 0 0 0 -1.15-3.15c-1.65-2.12-4.42-2.97-6.75-4.08z" fill="#dea24e"/><path d="m135.24 0 .12 2.12a6.85 6.85 0 0 0 .06 1.2 4.38 4.38 0 0 0 .87 1.29 24.33 24.33 0 0 1 2.71 4.88 16 16 0 0 1 1.5 5.5 7.21 7.21 0 0 1 -1.13 4.43 16.77 16.77 0 0 1 -2.88 2.83c-2.68 2.33-5.22 4.87-8.24 6.77a7.93 7.93 0 0 0 4.25-.75 31.47 31.47 0 0 0 4.42-3.08c2.36-2 5.05-4.17 5.71-7.35s-.35-6.34-1.63-9.13a46.42 46.42 0 0 0 -5.76-8.71z" fill="#dea24e"/><path d="m146.7 12.26c-.47 1.54.57 5.06 2.76 3.81a1.72 1.72 0 0 0 .73-2.26c-.29-.59-1-1.08-1.35-.23.42-.65.75.78.61 1.13a.78.78 0 0 1 -1.43.18c-.7-1.23 0-3.8 1.67-3.71 2.18.12 2.58 3.41 2.49 5a9.1 9.1 0 0 1 -2.56 6c-1.85 1.73-4.79 2.78-7.16 3.53a5.24 5.24 0 0 0 -1.49.43c-.41.35.19.67.59.88a3.11 3.11 0 0 0 2.92-.09 14.77 14.77 0 0 0 6-3.33 10.88 10.88 0 0 0 2.79-6.47c.21-2.22.09-4.92-1.85-6.37s-4.03-.76-4.72 1.5z" fill="#dea24e"/><path d="m144.37 23.13c-1-.89-2.14-3.76-.51-4.68a1.22 1.22 0 0 1 1.63.67c.3.7-.52 1.89-.87.95 0 1 .9 1.29 1.54.59a2.15 2.15 0 0 0 .18-2.41 2.37 2.37 0 0 0 -3.85-.38c-1.21 1.64-.67 4.53.39 6.1.56.84 1.53 1.76 2.53 1.17.47-.28 2.08-.75 1.84-1.47-.74.71-2.25.03-2.88-.54z" fill="#dea24e"/><path d="m141.17 10.18c.12.73.38 2.47 1.24 2.72 1.23.37 1.36-2.21.33-1.91.21.56-.41.45-.6.08a2 2 0 0 1 0-1.31 5 5 0 0 1 1.51-2.43c1.47-1.14 2.6 2.6 2.72 3.6 0 .26.15 1-.14 1.15s-.82-.77-.8.12a1.11 1.11 0 0 0 .93 1.05c.57 0 .91-.6 1-1.07.51-2-1.18-4.34-2.35-5.76a2.83 2.83 0 0 0 -.51-.58c-.32-.21-.17-.21-.56 0a11.3 11.3 0 0 0 -1.36 1 3.58 3.58 0 0 0 -1.41 3.34z" fill="#dea24e"/><path d="m156.29 13.52c-.18-.41-1.93 1.76-2.06 1.92a39.57 39.57 0 0 0 -2.62 3.68 9.61 9.61 0 0 0 -1.2 4.67 6.25 6.25 0 0 0 .46 2.84c.33.68.87.73 1.54 1 .15-.69-.5-1.66-.72-2.29a4.81 4.81 0 0 1 0-3.07c.77-2.43 2.55-4.57 4.15-6.5a17.32 17.32 0 0 1 2.52 7.16 9 9 0 0 1 -.26 3.58c-.05.17-.57 1.78-.72 1.73 2.17 1.37 2.86-3.24 2.83-4.49a14.35 14.35 0 0 0 -1.21-5.25c-.79-1.74-1.94-3.26-2.71-4.98z" fill="#dea24e"/><path d="m161.63 17.11c-1.86 1.39-4 2.59-5.1 4.77-.47 1-1.55 6 .62 6 0-.93-.32-1.81-.3-2.75a6.07 6.07 0 0 1 .52-2.53c.77-1.58 2.37-2.67 3.76-3.65a12 12 0 0 1 1.6 4.77 10 10 0 0 1 .09 2.84 14.65 14.65 0 0 1 -1 2.59c.57.08.87.28 1.27-.19a3.27 3.27 0 0 0 .57-1.24 10.06 10.06 0 0 0 .24-3.19 21.73 21.73 0 0 0 -2.27-7.42z" fill="#dea24e"/><path d="m136.73 27.66.05 2a85.27 85.27 0 0 1 18.22-.2c1.78.19 3.56.44 5.32.8a17.14 17.14 0 0 0 2.7.66c.33 0 .13.14.33-.06a4.67 4.67 0 0 0 .48-1.36l.33-1c-8.55-1.16-17.57-2.17-26.2-1.07-.42.09-.83.15-1.23.23z" fill="#dea24e"/><g clip-path="url(#o)" opacity=".61"><path d="m136.71 15.32a5.4 5.4 0 0 1 .65 2.3 13.44 13.44 0 0 0 0 2.2c.53-.2.5-1.63.49-2.05a3.86 3.86 0 0 0 -1.14-2.45z" fill="#fff"/></g><g clip-path="url(#p)" opacity=".61"><path d="m107.94 22.66a12.24 12.24 0 0 1 .29 1.44.92.92 0 0 0 -.29-1.44z" fill="#fff"/></g><g clip-path="url(#q)" opacity=".61"><path d="m113.79 18.85a12.4 12.4 0 0 1 .29 1.45.93.93 0 0 0 -.29-1.45z" fill="#fff"/></g><g clip-path="url(#r)" opacity=".61"><path d="m126.37 8.32a7.91 7.91 0 0 1 .19 1.28.75.75 0 0 0 -.19-1.28z" fill="#fff"/></g><g clip-path="url(#s)" opacity=".61"><path d="m144.31 7.41a7.91 7.91 0 0 1 .19 1.28.76.76 0 0 0 -.19-1.28z" fill="#fff"/></g><g clip-path="url(#t)" opacity=".61"><path d="m156.34 18c-.05.18-.09.37-.14.55a.77.77 0 0 0 .18-1.29 3.64 3.64 0 0 1 -.04.74z" fill="#fff"/></g><g clip-path="url(#u)" opacity=".61"><path d="m161.15 20.71c-.05.18-.09.36-.14.55a.77.77 0 0 0 .18-1.29 3.64 3.64 0 0 1 -.04.74z" fill="#fff"/></g><path d="m117 19.22c-.23-.24-.2-1-.3-1.29.08.85.06 1.53-.87 1.63.27.18.72.11.94.35s.06.61.27.82c0-.78.13-.94.75-1.36-.18-.21-.61.03-.79-.15z" fill="#fff"/><path d="m113.41 18c-.17-.17-.14-.68-.21-.9.06.59 0 1.07-.61 1.14.16.11.51.07.64.21s0 .45.2.61c0-.57.07-.64.53-1-.13-.06-.43.11-.55-.06z" fill="#fff"/><path d="m125.92 8.37c-.17-.18-.14-.69-.21-.91.06.59 0 1.08-.61 1.15.16.1.52.06.65.21s0 .45.2.6c0-.57.06-.63.53-.94-.14-.15-.48.01-.56-.11z" fill="#fff"/><path d="m143.69 7.37c-.17-.18-.14-.68-.21-.9.06.59 0 1.07-.61 1.14.16.11.52.06.64.21s.05.45.21.61c0-.57.06-.64.52-.95-.13-.15-.43.01-.55-.11z" fill="#fff"/><path d="m159.81 21.13c-.17-.17-.14-.68-.21-.9.06.59 0 1.07-.61 1.14.16.11.52.07.64.21s.06.45.21.61c0-.57.06-.63.52-1-.13-.1-.43.07-.55-.06z" fill="#fff"/><path d="m109.52 25.82c-.17-.18-.14-.68-.21-.9 0 .59 0 1.07-.61 1.14.16.11.52.06.64.21s0 .45.2.61c0-.57.07-.64.53-.95-.13-.15-.43.07-.55-.11z" fill="#fff"/><path d="m155.06 16.91c-.17-.17-.14-.68-.21-.9.06.59 0 1.07-.61 1.14.16.11.52.06.64.21s.06.45.21.61c0-.57.07-.64.52-.95-.13-.15-.43-.02-.55-.11z" fill="#fff"/><path d="m153 29.09c-6.56-4.06-15.59-7.73-23.13-4.15-4.22 2-6.92 6-8.65 10.2-1.55 3.78-2.16 7.82-3.54 11.65a12.52 12.52 0 0 1 -3.12 5.15 7.72 7.72 0 0 1 -1.17.87c-.28.17-1.2.39-1.38.64s0 1.31 0 1.68c0 .66.09 1.32.07 2a12.64 12.64 0 0 1 4.09.56 14.56 14.56 0 0 0 4.56.28c2.23-.17 4.46-.41 6.68-.66a71.68 71.68 0 0 0 13.17-2.41 25.76 25.76 0 0 0 10.28-6.14 14.19 14.19 0 0 0 4.61-9.24 24.92 24.92 0 0 0 -.58-6.15c-.3-1.28-.67-3.57-1.89-4.28z" fill="#001"/><path d="m151.41 28.14c-1.33-2.21-4.22-3.36-6.61-3.94-3.38-.81-7-1.45-10.48-.75a20.6 20.6 0 0 0 -9.06 4.73c-2.33 2.08-3.54 5.32-4.55 8.21a42.13 42.13 0 0 0 -1.4 5.55 7.93 7.93 0 0 1 -.77 2.43 14.68 14.68 0 0 0 -1.39 2 7 7 0 0 0 2.75-2.81c.86-1.32 1.79-2.56 2.72-3.82 1.06-1.45 2.1-2.91 3.14-4.37a12.54 12.54 0 0 1 2.41-2.77 9.44 9.44 0 0 1 3.66-1.43 19.86 19.86 0 0 0 4-1.38 34.57 34.57 0 0 1 4-2 12.37 12.37 0 0 1 4.36-.55 12.94 12.94 0 0 1 4.81 1.16c1.09.51 2.51 1.86 3.8 1.19a4.94 4.94 0 0 0 -1.39-1.45z" fill="#402c2b"/><path d="m122.35 33.31a6.58 6.58 0 0 0 -1.89-.42z" fill="#001"/><path d="m122.21 33.24.14.07-1.89-.42c.58.13 1.17.23 1.75.35-4.21-2.69-10.15-1.24-13.91 1.53-4.42 3.24-5.32 8.72-4.75 13.86.38 3.34 1.5 6.58.68 9.95 3.15-.89 5.57-3.37 8.16-5.23a44.68 44.68 0 0 0 7.6-6.74c2-2.21 4-4.77 4.77-7.65a5.88 5.88 0 0 0 -.21-4.17 3 3 0 0 0 -2.34-1.55z" fill="#001"/><path d="m123.29 33.5c-1.18-2.23-5.35-1.86-7.39-1.59a16.73 16.73 0 0 0 -8.9 3.82 11.69 11.69 0 0 0 -4.24 7.65c-.2 2.35-.16 5.51 1.34 7.48a4.41 4.41 0 0 0 -.32-1.89 10 10 0 0 1 -.37-2.18 7.4 7.4 0 0 1 1.1-4.35 8.47 8.47 0 0 1 3.14-3c1.16-.61 2.44-.85 3.58-1.54s1.95-1.59 3.16-1.73a5.18 5.18 0 0 1 2.9.79c1.86 1 4 2.3 5.94.78.91-.71 2-2 1.74-3.29a1.58 1.58 0 0 0 -.89-1.06c-.08-.04-.81-.24-.79.11z" fill="#402c2b"/><path d="m105.42 50c-5.16-2.76-9 3.78-10.65 7.69a25.11 25.11 0 0 0 -2 8.4 17.28 17.28 0 0 0 2.59 9.84c1.4 2.38 3.49 4.87 6.35 5.44s5.57-1.37 7.48-3.37a26 26 0 0 0 6.73-16.77 11.76 11.76 0 0 0 -3.09-8.31c-1.38-1.52-5.29-5.2-7.41-2.92z" fill="#001"/><path d="m103.31 49.83c-1.1-1.41-4.39.27-5.56.87a12.38 12.38 0 0 0 -5.33 6 13.47 13.47 0 0 0 -1.16 9c.36 1.47 1 2.85 1.44 4.31.3 1 .51 2.62 1.45 3.28-.71-2.59-1.36-5.5.09-8 .63-1.09 1.9-1.8 2.27-3s.3-2.36 1.39-3.21c.47-.36 1-.6 1.53-.93s1.1-.87 1.65-1.31a10.12 10.12 0 0 1 1.71-1.13c.45-.23 1.29-.37 1.62-.76.56-.66.12-2.08-.06-2.81-.11-.44-.42-2.14-1.04-2.31z" fill="#402c2b"/><path d="m102.53 86.54a18.67 18.67 0 0 0 -3.53-11.1c-2-2.79-4.26-5.32-7.92-4.94l1.82.92c-3.07-1.71-5.75.88-7.1 3.5a11.94 11.94 0 0 0 -.14 10.54c1.85 4 5.88 6.43 7.75 10.39.48 1 .7 3.48 2.18 3.3a8.69 8.69 0 0 0 3.69-1.78 7.73 7.73 0 0 0 3.14-3.37c.86-2.4.03-5 .11-7.46z" fill="#001"/><path d="m91.85 93.64a1.84 1.84 0 0 0 -.17-.22c-.03.08-.01.14.17.22z" fill="#402c2b"/><path d="m92.84 70.47c-1.25-.75-3.3.42-4.32 1.09a9.18 9.18 0 0 0 -4 5.56 13.85 13.85 0 0 0 .94 8.56c1.44 3.06 4.22 5.06 6.19 7.74.78-2-.77-4.87-1.88-6.47-.68-1-1.34-1.91-1-3.15a7 7 0 0 0 .58-2.8c-.18-1.46-.83-3.36.44-4.53 1.9-1.75 4.58-.07 6.77-.47a17.47 17.47 0 0 1 -2.33-3.66 3.7 3.7 0 0 0 -1.39-1.87z" fill="#402c2b"/><path d="m93.17 92.61c-1.25-.63-2.27-1.71-3.72-1.88-1.26-.14-2.14.73-3.33.93l2.88-1.25c-1.61-.94-3.27.68-3.94 2a10.92 10.92 0 0 0 -1.14 6.59c.78 4.44 4.57 7.47 7.26 10.78 1.17 1.44 2.5 3.78 4.61 3.78 1.93 0 3.53-1.68 4.53-3.16a13.35 13.35 0 0 0 1.53-11.18 6.7 6.7 0 0 0 -3.27-4.38c-1.72-.94-3.66-1.36-5.41-2.23z" fill="#001"/><path d="m87.5 100.73a3.52 3.52 0 0 1 .75-1.64c.36-.63.33-1.35.65-2a3.22 3.22 0 0 1 1.4-1.26c.4-.23 1.57-.63 1.76-1.07.35-.82-1.89-2.45-2.4-3-.35-.41-.72-1.1-1.3-1.22a3.83 3.83 0 0 0 -1.84.35c-2.24 1-3.42 4.07-3.64 6.33a12.9 12.9 0 0 0 2.32 8.42c1 1.33 2.32 1.84 3.75 2.52a7.63 7.63 0 0 1 3.6 3.41 22.65 22.65 0 0 0 -2.68-5.93c-.95-1.47-2.45-3.06-2.37-4.91z" fill="#402c2b"/><path d="m92.76 111a11.14 11.14 0 0 1 2.32 1.16 3.85 3.85 0 0 0 -2.32-1.16z" fill="#001"/><path d="m95.08 112.15a5.39 5.39 0 0 0 -2.48-1.15z" fill="#001"/><path d="m95.08 112.15-1.33-.63c-.26-.13-.53-.24-.79-.38-.11-.06-.55-.18-.2-.15-2.18-.75-4.3-.16-5.05 2.2-.68 2.18.19 4.6 1.4 6.43a9.53 9.53 0 0 0 5.06 3.95c2.31.7 3.49-.7 3.75-2.91a10.32 10.32 0 0 0 -2.84-8.51z" fill="#001"/><path d="m118.94 55.37c.93-1.17-1.17-.84-1.71-.67-1.27.39-2.2 1.45-3.25 2.2a33.23 33.23 0 0 0 -3.51 2.49 14.07 14.07 0 0 0 -2.64 3.61 22.3 22.3 0 0 0 -1.83 4.13 6.49 6.49 0 0 1 -.91 2 5.48 5.48 0 0 0 -.94 2.12 4.37 4.37 0 0 0 .67 3.3c.46.72 1.21 1.92 2.11 2.14.24-.69-.16-1.34.25-2a3.34 3.34 0 0 1 1.16-1c1.15-.7 2.33-1.34 3.48-2.06 2.37-1.46 5.37-1.68 7.57-3.45 1.93-1.55 2.42-3.88 2.4-6.25a10 10 0 0 0 -.54-3.68c-.45-1.19-1.67-1.78-2.31-2.88z" fill="#001"/><path d="m109.54 93.35c-4.11-2-7.76 1.48-9.7 4.81-2.64 4.53-2.82 9.86-2.62 15 1.33-2.64 4.16-3.33 6.61-4.56a18.39 18.39 0 0 0 6-4.6c2.65-3.25 4.37-8.33-.29-10.65z" fill="#001"/><path d="m102.5 108.52a8.28 8.28 0 0 0 -5.62 4.79l.9-2.37a12 12 0 0 0 -1.32 6.38 12.58 12.58 0 0 0 1.6 6.36c2.64-3 6.54-5.06 8.42-8.71.75-1.47 1.17-3.44.31-5a3.83 3.83 0 0 0 -4.29-1.45z" fill="#001"/><path d="m97 124.73a12.35 12.35 0 0 0 -4-2.4c-1.43-.6-3.08-1.7-4.55-.59-2.08 1.57-1.14 5 .18 6.67a13.23 13.23 0 0 0 6.75 4.13c1.79.53 5.17 1.46 5.59-1.28a3.15 3.15 0 0 0 -.18-1.55 9.86 9.86 0 0 0 -1-1.63 7.79 7.79 0 0 0 -1-1.8c-.61-.56-1.25-1.01-1.79-1.55z" fill="#001"/><path d="m101.29 119.3a9.49 9.49 0 0 0 -3.29 5.43c1.85.24 1.74 2.73 1.88 4.11a17.23 17.23 0 0 0 2.54 6.8 13.24 13.24 0 0 1 .65-3.06 17 17 0 0 1 1.79-2.94 14.85 14.85 0 0 0 2.71-6 4.66 4.66 0 0 0 -1.57-4.64 4 4 0 0 0 -4.71.3z" fill="#001"/><path d="m110.43 94.48c-.22-.14-1.66-.51-1.67-.78.37 1.46 1.36 3 .52 4.52-.33.59-.72 1-.57 1.73a5.21 5.21 0 0 1 .33 1.79c-.3 2.89-3.06 5.31-5.53 6.46 1.32.27 2.78-.81 3.74-1.58a22.17 22.17 0 0 0 3.26-3.45 8.29 8.29 0 0 0 2.14-4.58 4.14 4.14 0 0 0 -2.22-4.11z" fill="#402c2b"/><path d="m105.84 108.92a3.91 3.91 0 0 0 -2.84-.33c-.08 0-1.81.58-1.74.72a8.51 8.51 0 0 1 1 .26 4.28 4.28 0 0 1 1.16.82 5.27 5.27 0 0 1 1.2 3.09 3.89 3.89 0 0 1 -.89 2.93c-.31.42-1.78 2.06-1.22 2.43 1.13.75 3.69-3.23 4.1-4 .89-1.54 1.22-5.03-.77-5.92z" fill="#402c2b"/><path d="m89.7 120.65c.22.4.51.46.91.56z" fill="#402c2b"/><path d="m97.28 132.14a11 11 0 0 1 -3.28-1.14 4.72 4.72 0 0 1 -2-2.68c-.51-1.23-1.69-2-1-3.48.45-.91 1.71-1.85.84-2.94a2.22 2.22 0 0 0 -3-.21 3.52 3.52 0 0 0 -1.3 3 7.18 7.18 0 0 0 3.16 6 11.31 11.31 0 0 0 4.17 1.79 24.23 24.23 0 0 0 2.68.34 3.8 3.8 0 0 0 2-.05c-.07-.64-1.81-.54-2.27-.63z" fill="#402c2b"/><path d="m95.88 111.16-.24-.19a.39.39 0 0 0 .24.19z" fill="#402c2b"/><path d="m98.76 99.6a4.12 4.12 0 0 0 -.43 1.54c0 .15-.14.6-.33.68s-.45-.34-.68-.22c-.76.41-.1 2.32-.7 3-.56-.38-1-1.34-1.77-1.38-.14.83 1.2 5.66-1.06 3.81a8.18 8.18 0 0 0 1.21 2.52 7.83 7.83 0 0 0 .81 1.34c.3.3.26.31.69 0s.9-.88 1.46-1.19 1.24-.49 1.63-1.08c.89-1.37.72-3.77.62-5.33-.11-1.1-.21-3.12-1.45-3.69z" fill="#402c2b"/><path d="m101.38 91.24a35.29 35.29 0 0 1 -3.38-5.24c-.56-.9-.64.22-.9.69-.15.26-.35.32-.45.62a3.59 3.59 0 0 0 .19 1.69c-.34.06-.66-.18-1-.25 0 .9.75 1.63.92 2.49.24 1.22-.64 1-1.46 1.05.41 2 2.76 2.86 3.18 4.85.08.36 0 1.31.37 1.48s1-.56 1.19-.85c.76-1 1.22-2.7 2.34-3.36.59-.35 1.64-.58 1.06-1.43s-1.44-1.07-2.06-1.74z" fill="#402c2b"/><path d="m97.51 116.84a7.29 7.29 0 0 0 -1.84-1.53c0 .42.55 2.48.12 2.78s-1.43-.89-1.82-1c.2 1.06 1.59 3-.53 2.68 0 .71.93 1.27 1.44 1.64a12.28 12.28 0 0 1 2.12 1.7l-1.21-.66c.56.28 1.13 1 1.77 1.07.88.1 1.17-1.12 1.22-1.78.15-1.42-.21-3.86-1.27-4.9z" fill="#402c2b"/><path d="m97.18 125.42c-.47.93.16 2.08.38 3-.67 0-1.3-.61-2-.38.14.67 1.12 1.28 1 2s-1.26.52-1.8.52c1.4 1.23 3 1.54 4.76 2 .3.08.84.4 1 0s-.33-1-.46-1.3a13 13 0 0 1 -1.17-2.9c-.13-.97-.51-2.76-1.71-2.94z" fill="#402c2b"/><path d="m106.85 67c-.94-.5-.66 1.14-.66 1.68a7.29 7.29 0 0 1 -.21 2.51c-.84 2.24-2.33-1.62-2.79-2.17-.46 1.21.46 2.73-.21 3.88-.85 1.45-2.12-.63-2.74-1.18a20.86 20.86 0 0 0 .12 2.95 1.47 1.47 0 0 1 -.45 1.15c-.56.4-1.06-.12-1.62-.21.35 1.45.9 3.38 2.48 3.88 1.86.59 4.09-.35 5.54-1.53 1.62-1.32 2-3.92 2-5.88.07-1.34 0-4.25-1.46-5.08z" fill="#402c2b"/><path d="m121.56 55.12a9.67 9.67 0 0 0 -7.41 1 18.6 18.6 0 0 0 -3.09 2.12 14.57 14.57 0 0 0 -2.85 2.76c-.52.81 0 2.37.22 3.28a22.91 22.91 0 0 1 .62 4.36 15.87 15.87 0 0 1 -2 8c-.37.64-.27.77.46.86a9.68 9.68 0 0 0 4-.27c1.21-.36 2.35-.93 3.52-1.41s2.34-.91 3.46-1.47a12 12 0 0 0 6.79-9.2c.62-3.57.33-8.78-3.72-10.03z" fill="#001"/><path d="m113.9 50.94a6.49 6.49 0 0 1 -.57-2.39c-1.25 1.27-1.82 3.1-2.67 4.63-.78-1.57-.51-3.42-1.11-5a6.6 6.6 0 0 0 -.9 3c-.06.48-.22 2.8-.87 2.94-1 .2-1.54-3.22-2-3.75-.93 1.35.09 3.62.53 5 .6 1.85 1.1 3.74 1.7 5.59a17.72 17.72 0 0 1 2.5-2.32 5.37 5.37 0 0 1 1.78-.83 4.05 4.05 0 0 0 1.95-.63 3.41 3.41 0 0 0 .65-1.58 21.83 21.83 0 0 1 .86-2.06 17.6 17.6 0 0 0 1.37-4.82c-.97.75-1.82 2.28-3.22 2.22z" fill="#402c2b"/><path d="m101.48 120.5c.1-.14.21-.28.34-.43a.57.57 0 0 0 -.34.43z" fill="#402c2b"/><path d="m105.15 118.53a3.57 3.57 0 0 0 -3.33 1.54 3.57 3.57 0 0 1 3 .63c1 1 .56 2.78.72 4.07a4.23 4.23 0 0 1 0 2.09 11.66 11.66 0 0 1 -.87 1.73 14.42 14.42 0 0 0 -1.37 4.35c.84-1.34 1.32-2.9 2.14-4.27a19.3 19.3 0 0 0 2.14-4.07c.73-2.33.31-5.45-2.43-6.07z" fill="#402c2b"/><path d="m126.27 57.21c-1.22.53-4-.81-4.68.77a6.62 6.62 0 0 0 -.19 2.35 17.85 17.85 0 0 0 .2 2.53 3.84 3.84 0 0 1 -.67 3.31 8.87 8.87 0 0 0 -1.22 1.15c-.43.64-.24 1.36-.46 2.06-.67 2.08-3.66 2.06-5.14 3.26-1 .82-1.47 2.12-2.57 2.86a20.92 20.92 0 0 1 -2.12 1.19 8.73 8.73 0 0 0 -2 1c3 .59 6.34-.65 9-1.87a17.33 17.33 0 0 0 6.78-5.26 13.47 13.47 0 0 0 2.37-7.89 10.9 10.9 0 0 1 .32-3c.11-.54.72-1.97.38-2.46z" fill="#402c2b"/><path d="m112.83 57.5 12.34-.27a113.78 113.78 0 0 0 -12.34.27z" fill="#e3d4bb"/><path d="m125.17 57.23c1.09 0 2.25 0 3.53-.08z" fill="#e3d4bb"/><path d="m151.91 42.43c-1.64 2-4 3.11-6.27 4.2a25.45 25.45 0 0 0 -6.45 4.24c-1.95 1.78-4 3.38-6.74 3.7a37.17 37.17 0 0 1 -4.95 0 28.4 28.4 0 0 0 -4.87.39 39.13 39.13 0 0 0 -5 1 17.73 17.73 0 0 0 -2.26.78 6.59 6.59 0 0 1 -2.18.72l14.23-.3a52.13 52.13 0 0 0 10.51-1 26.83 26.83 0 0 0 12-6.43c3.47-3.19 6.37-7.81 5.07-12.73a21.09 21.09 0 0 1 -3.09 5.43z" fill="#402c2b"/><path d="m92.73 109.46a3.21 3.21 0 0 0 -3.92-.51 5 5 0 0 0 -2.15 3.56 9.07 9.07 0 0 0 3.12 8.71c.21-1.46-1.82-3.15-.51-4.47.57-.58 1.55-.52 2.09-1.14s0-1.77.69-2.47 1.89.09 2.54-.62c1.23-1.34-.82-2.58-1.86-3.06z" fill="#402c2b"/><path d="m94.37 73a5.45 5.45 0 0 1 -1.07-2.45c-.37 1.8.9 3.52 2 4.78a58.84 58.84 0 0 0 4.34 4c-1.34-2.4-3.64-4.08-5.27-6.33z" fill="#625454"/><path d="m121.6 33.9a27.52 27.52 0 0 0 -1.12 6 29.07 29.07 0 0 1 -1.58 6.75 46.67 46.67 0 0 1 -2.9 6.17c-.54 1-1.1 2-1.72 3a7.05 7.05 0 0 1 -2.09 2.41 7.8 7.8 0 0 0 2.59-2.76c.73-1 1.4-2.13 2-3.23a38.18 38.18 0 0 0 3.33-7.09 27.36 27.36 0 0 0 .92-3.56c.23-1.32.22-2.66.38-4 .29-2.28.61-5.09 2.15-6.92a7.09 7.09 0 0 0 -1.96 3.23z" fill="#625454"/><path d="m98.42 96.47a9.28 9.28 0 0 0 -4.92-3.87c-1.78-.65-4.42-1.28-5.2-3.26.26 2 2.56 3 4.15 3.62a12.75 12.75 0 0 1 5.08 3.27 9.37 9.37 0 0 1 1.3 2.7 21.67 21.67 0 0 1 1 3.13 13 13 0 0 1 -.18 6.71 12.24 12.24 0 0 0 .63-6.23 33.12 33.12 0 0 0 -1.86-6.07z" fill="#625454"/><path d="m100.61 96a15.38 15.38 0 0 0 -1.43 3.08c1.72-1.43 2.39-3.74 4.18-5.13a4.15 4.15 0 0 0 -2.75 2.05z" fill="#625454"/><path d="m96.34 112.83a9.92 9.92 0 0 0 -3.52-3.67 9.48 9.48 0 0 0 -2.57-.63 15.65 15.65 0 0 1 -2.61-1.17 8.9 8.9 0 0 0 1.82 1.54 10.07 10.07 0 0 0 2.22.64c1.67.45 2.93 2 3.88 3.35a20.42 20.42 0 0 1 3.15 10.11 18.31 18.31 0 0 0 -2.37-10.17z" fill="#625454"/><path d="m101.31 108.37a7 7 0 0 0 -5 3.62c2.1-1.61 4.32-3.2 7-3.42a4.14 4.14 0 0 0 -2-.2z" fill="#625454"/><path d="m99.93 129.14a11.35 11.35 0 0 0 -3.06-6.14 6.46 6.46 0 0 0 -3.12-1.64c-1.32-.28-2.69-.1-4-.42 1.53.71 3.3.55 4.82 1.29a8.13 8.13 0 0 1 3.06 2.85c1.69 2.46 1.48 6.56 4.06 8.38a9.34 9.34 0 0 1 -1.76-4.32z" fill="#625454"/><path d="m101.87 118.93c-1.8.87-4.12 3.18-3.56 5.4.4-2.47 3.44-5.21 5.78-5.86a3.92 3.92 0 0 0 -2.22.46z" fill="#625454"/><path d="m107.14 58.49a39.89 39.89 0 0 1 -2.55-5 41.35 41.35 0 0 1 -1.46-5.4 21.13 21.13 0 0 0 1.52 7.21c1 2.33 2.44 4.44 3.21 6.9a19.61 19.61 0 0 1 -.86 14.49c3.35-5.47 3-12.58.14-18.2z" fill="#625454"/><path d="m122.71 57.41c-1.46 0-2.93 0-4.39 0a21.79 21.79 0 0 0 -4.35.14c-2 .38-5.53 1.66-6.06 3.94.58-1.41 2.3-2.14 3.64-2.64a13.64 13.64 0 0 1 5.45-.75c1.91.07 3.84.08 5.76 0a18.29 18.29 0 0 0 5.3-.89 26.29 26.29 0 0 1 -5.35.2z" fill="#625454"/><path d="m112.94 79.63c-3.46-2.17-8-3.37-11.82-1.28a7.07 7.07 0 0 0 -3.33 8.85 14.59 14.59 0 0 0 3.56 5c1.33 1.31 3 3 4.8 3.64a8 8 0 0 0 6-.59 4.7 4.7 0 0 0 2.57-4.5c0-1-.24-1.91-.31-2.87s0-2.09 0-3.13c.08-1.75.18-4.07-1.47-5.12z" fill="#cb9579"/><path d="m108.21 82.33a2.63 2.63 0 0 0 -3.46.11 9.41 9.41 0 0 0 -1.7 3.53c.82-1.23 1.84-3.79 3.59-3.51 1.25.21 2.44 1.44 3.3 2.28a7.16 7.16 0 0 1 2.36 3.41c.1-2.33-2.3-4.63-4.09-5.82z" fill="#bf906b"/><path d="m109 84.23c-1.14.31-2.13 2-2.35 3-.28 1.41.82 2.43 1.48 3.55-.12-1.39-1.11-2.46-.58-3.88.24-.63 1-2.79 2-2.6a.61.61 0 0 0 -.55-.07z" fill="#bf906b"/><path d="m119.09 86.47a50.69 50.69 0 0 1 -5.09-7.18c-.37-.57-.62-1.15-1-1.73s-.41-.61-.92-.58c-.81 0-1.66.89-2.49.52a10.44 10.44 0 0 0 3.46 7 11.47 11.47 0 0 0 3.14 2.13c1.16.45 2.53.43 3.73.77a4.25 4.25 0 0 0 -.83-.93z" fill="#001"/><path d="m166.25 30.22c-4.09-2.5-9.25-1.71-13.79-1.45a14.56 14.56 0 0 0 1.55 1.5 5.69 5.69 0 0 0 2.46.52c1.89.18 3.87.05 5.69.66 1.43.48 3.21 1.73 4.78 1.46a1.06 1.06 0 0 0 .89-1.44c-.26-.64-1.03-.92-1.58-1.25z" fill="#001"/><path d="m107.3 127.59c-3.31-.31-6.68-.86-10-.36a14.09 14.09 0 0 0 -8.74 5.27c-4.55 5.27-7 12.23-9.77 18.51a291.08 291.08 0 0 1 -19.65 37.06c-.21.33-4 6.39-4.26 6.24 2.74 1.73 5.22 4 8.28 5.16a13.66 13.66 0 0 0 2.27.64c.82.16 1.59-.59 2.25-1.07a30.47 30.47 0 0 0 3.93-3.43 66.44 66.44 0 0 0 6.5-8.08q3.47-4.86 7.13-9.58 7-9 14-18c4.07-5.26 8.4-10.79 10.23-17.3a33.94 33.94 0 0 0 .94-9.27c.03-2.25-.26-5.54-3.11-5.79z" fill="#cb9579"/><path d="m58.89 187.17c-4.54 4.43-9.52 8.39-13.91 13-2.29 2.38-4.3 5-6.45 7.51s-4.38 5-6.69 7.31-4.84 4.71-7.44 6.93c-1.16 1-2.29 2.06-3.52 3s-2.25 1.52-3.31 2.38a9.1 9.1 0 0 0 -1.3 1.26c-.32.4-.31.4.08.71s.66.54 1 .83a19.16 19.16 0 0 1 2.93 3.24 14.11 14.11 0 0 1 1.07 1.79c.27.52.45.55 1 .48a10.56 10.56 0 0 0 2.94-1c5.5-2.5 10-7 14.78-10.55 5.28-4 10.55-7.94 15.58-12.22 4.48-3.81 8.6-7.95 12.68-12.18 3.14-3.25 6.65-6.9 8-11.33 1.09-3.6-.46-8.66-4.93-8.54-4 .1-7.78 3.21-10.64 5.71-.65.5-1.27 1.09-1.87 1.67z" fill="#cb9579"/><path d="m196.9 140.42c-6.56-4-13.4-7.61-20-11.58-3.12-1.88-6.1-4.27-9.55-5.49a19.37 19.37 0 0 0 -8.49-.8c-3.56.36-7.05 1.14-10.62 1.38 3.07 7.19 8.36 13.18 14.33 18.12s12.73 8.68 19.48 12.52c7 4 13.63 8.78 21.37 11.15a25.75 25.75 0 0 0 5.58 1.09 5.72 5.72 0 0 0 2.44-.05 3.69 3.69 0 0 0 1.15-1.24c1.71-2.53 2.31-5.9 2.68-8.86a31.69 31.69 0 0 0 .27-5.59c0-.66-.07-.67-.71-.86s-1.2-.38-1.79-.6a35.12 35.12 0 0 1 -3.33-1.43c-4.5-2.18-8.57-5.18-12.81-7.76z" fill="#cb9579"/><path d="m246.79 111.09c-.41-.4-5.11 3.67-5.54 4-2.21 1.78-4.39 3.58-6.54 5.43q-14.15 12.18-27.72 25c-.73.69-1.46 1.37-2.12 2.12a8.65 8.65 0 0 1 -.87.94c-.47.4-.45.63-.46 1.29a22.59 22.59 0 0 0 1.66 7.88 29.45 29.45 0 0 0 3 6.53 12.8 12.8 0 0 0 .87 1.3 1.5 1.5 0 0 0 1.21.55 4.66 4.66 0 0 0 3.89-1.38c.81-.81 1.4-1.82 2.14-2.7 1-1.14 2-2.24 3-3.34q3-3.31 6-6.65c3.9-4.37 7.73-8.81 11.21-13.52 2-2.7 4.17-5.24 6.35-7.79a78.22 78.22 0 0 1 6.16-7c1.18-1.09 2.39-2.14 3.55-3.25.49-.48 1-1 1.44-1.47l.24-.25c.3-.18.3-.36 0-.54a6 6 0 0 0 -.94-1.15c-1-1.26-2-2.54-3.09-3.77a4.84 4.84 0 0 0 -1.72-1.32 5.31 5.31 0 0 1 -1.72-.91z" fill="#cb9579"/><path d="m155.42 124.29c-2.53-.51-5.13-.08-7.68-.38-2.36-.28-4.07-1.47-6.12-2.53-1.88-1-3.61-.73-5.62-.34a21.09 21.09 0 0 1 -6.52.6c-2.33-.25-4.71-1-7.07-.73a16.33 16.33 0 0 0 -5.63 2.24 18.8 18.8 0 0 1 -5.43 2.09c-1.37.25-2.75.41-4.13.57a75.8 75.8 0 0 0 -10 1.6c-2.78.71-5.86 1.8-7.68 4.15-2.62 3.4-3 8.31-2.8 12.43.26 4.79 1.34 9.48 1.73 14.25.16 2 .52 5.77 3 6.3a2.49 2.49 0 0 0 1.76-.38c.35-.2.62-.53 1-.72a11.7 11.7 0 0 1 1.41-.5c1.76-.73 3.32-2.09 5.29-2.24 3.81-.29 6.28 3.79 8.23 6.42a49.33 49.33 0 0 0 8.45 9 28.85 28.85 0 0 0 10.92 5.75 18.28 18.28 0 0 0 10.54-.27 44.29 44.29 0 0 0 10.43-5.11 45 45 0 0 0 8.4-6.72 39.26 39.26 0 0 0 10.65-21 23.73 23.73 0 0 0 -7.73-21.49 12 12 0 0 0 -5.4-2.99z" fill="#cb9579"/><path d="m9 246.43c.15 1.57 1.81.5 2.52 0a17.27 17.27 0 0 1 3.48-2.27 21.5 21.5 0 0 0 3.69-1.38c1.37-.89 2.27-2.58 3.07-4 .95-1.63 1.77-3.32 2.59-5 .69-1.46 1.78-3.1 1.68-4.78-.12-2.06-2.43-5.07-4.81-4.35a10.2 10.2 0 0 0 -1.47.88c-.8.44-1.61.85-2.42 1.25-2.11 1-4.25 2-6.4 2.95s-4 1.75-6.07 2.57c-.71.29-1.42.57-2.14.83l-.67.23c-.4.12-1.86.27-2.08.56s0 1.33 0 1.62v8c4.29-.25 9-.79 12.66-3.24-1.33 1.7-3.88 3.7-3.63 6.13z" fill="#cb9579"/><path d="m250.29 122.75a18.7 18.7 0 0 0 2.24-1.25z" fill="#cb9579"/><path d="m283.8 112.75c-.25-2.87-3.52-2.59-5.57-2.31-2.6.37-5 1.41-7.54 2a12.44 12.44 0 0 1 -9.29-1.11 27 27 0 0 0 -4.16-1.82c-2.46-.92-5.44-1.84-7.92-.49a22.78 22.78 0 0 0 -3.94 2.64 3.93 3.93 0 0 0 -1.67 3.56 8.84 8.84 0 0 1 -1.2 3.92 10.72 10.72 0 0 0 -1.11 4.33c0 3.56 3.39 1.94 5.39 1.08s3.82-1.94 5.74-3c-.28.18-2.3 1.14-2.3 1.39a10.27 10.27 0 0 1 1.89-1 13.27 13.27 0 0 1 2.42-.89 11.31 11.31 0 0 1 4.77-.24 36.85 36.85 0 0 1 5 1.74 8.14 8.14 0 0 0 4.93.15c3.21-.95 5.71-3.35 8.69-4.77 2.63-1.25 5.46-2 8.16-3.07.92-.36 2.19-1 .75-1.82a5.21 5.21 0 0 0 -3.04-.29z" fill="#cb9579"/><path d="m277.05 113c-2.46.81-4.91 2.07-7.58 1.7s-5-1.85-7.6-2.49c3.3 1.66 6.39 4.16 10.31 3.44 3.56-.65 6.57-3.21 10.3-3.14a9.52 9.52 0 0 0 -5.43.49z" fill="#b57f64"/><path d="m277.84 110.19c-2.45.2-4.69 1.48-7.07 2a23.67 23.67 0 0 1 -7.56 0 13.53 13.53 0 0 0 8.51.81c2.84-.75 5.41-2.17 8.31-2.82a17.78 17.78 0 0 0 -2.19.01z" fill="#b57f64"/><path d="m5.7 238.85c1.4-.57 3.06-1.15 4-2.43-2 .26-3.91 1.47-5.89 2a33.13 33.13 0 0 1 -3.25.73c-.7.13-.51.41-.51 1.08a23.77 23.77 0 0 0 5.65-1.38z" fill="#b57f64"/><g clip-path="url(#v)" opacity=".5"><path d="m106.33 152.36c0-.93.41-2.61-1-2.75-.41 0-.82.2-1.23.16-.56-.06-.94-.41-1.52-.5a38.12 38.12 0 0 1 -7.86-2.08c-2.24-.87-4.45-1.94-6.61-3-1.93-.94-4-2.11-5-4-4.45 3.73-7.33 8.62-9.94 13.71a57.14 57.14 0 0 1 -3.7 6.51c-1.22 1.76-2.8 3.73-4.94 4.37 1.85-.17 3.14 1.84 4.56 2.7 1.65 1 3.72.72 5.55.64s4-.09 5.69 1 2.55 3.26 4.73 3.91a12.33 12.33 0 0 0 6.35.17c2-.54 3.24-2.35 5.34-2.5.81-.05 1.59.13 2.38.12a3.58 3.58 0 0 0 2.52-1.07c1.57-1.42 2.92-3 4.49-4.45a8.55 8.55 0 0 0 1.92-2.06c.51-.92.13-1.58-.21-2.47a22 22 0 0 1 -1.52-8.41z" fill="#993969"/></g><g clip-path="url(#w)" opacity=".5"><path d="m182.67 130.09c-.34 0-.59 1-.74 1.29-.41.78-.79 1.58-1.22 2.35a31.87 31.87 0 0 1 -2.48 3.52 33.13 33.13 0 0 1 -5.44 6.19 8.54 8.54 0 0 1 -3.33 1.75c-.29.07-.58.07-.76.26s-.2.71-.24 1a11 11 0 0 0 0 2.5 24.8 24.8 0 0 0 .86 4.84c.43 1.53 1 3 1.39 4.59.28 1.32.48 5.19 2.69 4.49a14.48 14.48 0 0 0 2.72-1.75 12.85 12.85 0 0 1 4.9-2c2.75-.28 6.2 1.77 8.23-1 .69-.93 1.07-2 1.75-3a7.09 7.09 0 0 1 3.15-2.11 9.26 9.26 0 0 0 3.8-2.43 16.56 16.56 0 0 0 2.2-4.46 13.49 13.49 0 0 1 2.57-3.86 10.47 10.47 0 0 1 3.44-2.95c-4.13-1-8.24-2.09-11.87-4.36s-7.17-5.35-11.62-4.86z" fill="#993969"/></g><path d="m169.12 144.53a14.85 14.85 0 0 1 -3-.27 14.78 14.78 0 0 0 -3.81.23 33.14 33.14 0 0 0 -7.29 2.2 25.75 25.75 0 0 0 -5.8 3.29 20.61 20.61 0 0 0 -2 1.81c-.46.47-1.3 1.69-2 1.89s-2-1.07-2.56-1.51a21.33 21.33 0 0 0 -3-2.1 45.71 45.71 0 0 0 -6.66-3.17 35.17 35.17 0 0 0 -13.26-2.34 28.92 28.92 0 0 0 -12.88 3.35c-.6.33-2.26 1-2.37 1.63a5 5 0 0 0 .2 1.13c.07.59.12 1.17.18 1.76.28 2.5.7 5 1.17 7.47a93.77 93.77 0 0 0 4.23 15.17 100.84 100.84 0 0 0 6.06 12.78 92.14 92.14 0 0 1 6 12.49 32.64 32.64 0 0 1 1.69 6.6c.11.76-.06 2.52.42 3.07s1.86.88 2.59 1.33c4.36 2.71 8.55 5.67 13 8.31a63.73 63.73 0 0 0 6.64 3.51c1.05.46 2.1.9 3.19 1.26a4 4 0 0 0 1.93.33c1.22-.22 1.86-1.78 2.49-2.68.47-.67 1-1.3 1.52-1.93 1.74-2.15 3.51-4.27 5.18-6.47.68-.89 2.7-2.93 2.18-4.09a16 16 0 0 1 -1.3-3.87 32.86 32.86 0 0 1 -.49-5.61 30.64 30.64 0 0 1 .43-5.74c.44-2.44 1.2-4.82 1.78-7.23a31.72 31.72 0 0 0 1-7.25 20.83 20.83 0 0 1 .08-2.85 1.15 1.15 0 0 1 .62-1c.45-.32.88-.66 1.3-1a21.48 21.48 0 0 0 6.52-10.64c1.29-4.78.51-9.6-1.21-14.17-.73-2.02-2.01-3.74-2.77-5.69z" fill="#993969"/><path d="m143.76 145.94c-.38-.78-1-2-2-2.09 1.32.84 1.59 3.53 1.91 4.91a21.22 21.22 0 0 1 .77 5.7c1.33-2.46.48-6.14-.68-8.52z" fill="#b57f64"/><path d="m138.27 129.78c-2.39 1.23-4.84-2-7.35-1 2.21.08 3.8 2.13 6 2.32 2.43.21 3.7-2.45 5.5-3.58-1.64.23-2.7 1.6-4.15 2.26z" fill="#b57f64"/><path d="m162.66 144.72c.57.06 1.06 1 1.32 1.39a19.24 19.24 0 0 1 1.32 2.4 22.75 22.75 0 0 1 1.78 6.59 27.43 27.43 0 0 1 -1.6 14.43 68.46 68.46 0 0 1 -3.48 6.37 31.93 31.93 0 0 0 -2.69 6.74 50.79 50.79 0 0 0 -1.56 14.64 125.19 125.19 0 0 0 1.72 16.61" fill="none" stroke="#611e45" stroke-linecap="round" stroke-linejoin="round" stroke-width=".69"/><path d="m155.79 146.6c3.7 8.63 2.2 17.66-.09 26.44a78.4 78.4 0 0 0 -2.7 14c-.36 4.74-.18 9.48-.15 14.23 0 5.6-.1 11.22.44 16.81" fill="none" stroke="#611e45" stroke-linecap="round" stroke-linejoin="round" stroke-width=".69"/><path d="m146.55 152.92a9.32 9.32 0 0 1 1.29 4.07c.25 1.55.39 3.13.49 4.7a73.88 73.88 0 0 1 -.68 13.38c-.63 5.05-1.24 10.06-1.41 15.15s-.06 10.3.23 15.45c.31 5.81.84 11.6 1.4 17.39" fill="none" stroke="#611e45" stroke-linecap="round" stroke-linejoin="round" stroke-width=".69"/><path d="m134.37 147.91c-.52.74-.44 2.22-.47 3.09-.05 2.23 0 4.47 0 6.71a84.09 84.09 0 0 0 .91 13.91c1.38 9.63 3.62 19.12 4.64 28.81.55 5.27 1.73 10.66 1.37 16" fill="none" stroke="#611e45" stroke-linecap="round" stroke-linejoin="round" stroke-width=".69"/><path d="m122.74 145.39c-.81 10-.91 20 1.74 29.7 1.26 4.62 2.78 9.22 4.49 13.69s3.67 8.74 4.78 13.35c.51 2.11.76 4.28 1.12 6.43.3 1.82.83 4.09.18 5.9" fill="none" stroke="#611e45" stroke-linecap="round" stroke-linejoin="round" stroke-width=".69"/><path d="m109.8 147.5a2.43 2.43 0 0 0 -.08-.47c-.32 2.05.19 4.17.47 6.19s.5 4.26.77 6.38a43.9 43.9 0 0 0 3.62 12.59c3.56 7.75 8.66 15 11.23 23.15a60.5 60.5 0 0 1 1.62 7 33.47 33.47 0 0 1 .77 7.73" fill="none" stroke="#611e45" stroke-linecap="round" stroke-linejoin="round" stroke-width=".69"/><path d="m67.21 187.31a5.49 5.49 0 0 0 -4.58.35c1.88.57 3.93.08 5.78.73a2.16 2.16 0 0 0 -1.2-1.08z" fill="#b57f64"/><path d="m203.19 148.34a5.31 5.31 0 0 0 3.09-2.36 3.05 3.05 0 0 0 -3.09 2.36z" fill="#b57f64"/><path d="m94.75 149.85c-.41-.43-.38-1.26-.47-1.81a26.18 26.18 0 0 0 -.69-3.28 22.29 22.29 0 0 1 -.32 4.75c-.09.66-.2.89-.84 1.06a14.26 14.26 0 0 1 -2.31.6 7.2 7.2 0 0 0 2.17.72c.53.14 1.25.17 1.55.67.57.92.21 2.41 1 3.25a23.55 23.55 0 0 1 .16-2.91c.06-.62.33-.85.87-1.15s1.3-.84 2-1.27c-.74-.83-2.45.08-3.12-.63z" fill="#fff"/><path d="m86.42 164.71c-.26-.26-.24-.84-.3-1.19a12.86 12.86 0 0 0 -.37-1.72 8.92 8.92 0 0 1 -.18 2.73c-.17.7-1.11.87-1.8.94.57.39 1.73.22 2.13.79s.12 1.38.58 1.86a5.72 5.72 0 0 1 .12-1.8c.22-.56 1.09-.91 1.6-1.25-.42-.47-1.4.05-1.78-.36z" fill="#fff"/><path d="m73.45 152.29a19 19 0 0 0 .13 3c0 1 .06 2.09.12 3.13s.14 2 .27 3c.07.58.15 1.16.23 1.74a4.37 4.37 0 0 0 .23 1.4c-.1-.4-.08.25-.08.33a3.78 3.78 0 0 0 .2 1c.23-2.19-.29-4.45-.44-6.63-.17-2.26-.26-4.65-.66-6.97z" fill="#fff"/><path d="m76.52 158.89c-1 .05-2 .05-3 .14a8.17 8.17 0 0 0 -2.81.37 3.19 3.19 0 0 0 -.78.08 24.21 24.21 0 0 0 4-.27c1.34-.1 2.69-.15 4-.38a8.68 8.68 0 0 0 -1.41.06z" fill="#fff"/><path d="m74.18 158.34a12.26 12.26 0 0 1 -.44-1.2 4 4 0 0 1 -.78 2c.52.33.82.51.93 1.18v-.23a3 3 0 0 0 .17.63 2.5 2.5 0 0 1 .94-1.72c-.28-.29-.61-.27-.82-.66z" fill="#fff"/><path d="m182.62 152.18c-.31-.32-.29-1-.36-1.43a17.31 17.31 0 0 0 -.45-2.14 13.31 13.31 0 0 1 -.22 3.27c-.07.44-.08.62-.51.79a6.77 6.77 0 0 1 -1.69.43c.67.47 2.14.28 2.6 1s.14 1.69.72 2.28a9.94 9.94 0 0 1 .12-2c.15-.82 1.31-1.25 2-1.69-.54-.69-1.74-.02-2.21-.51z" fill="#fff"/><path d="m169.64 151.06c-.42-.43-.38-1.35-.49-1.91a24.61 24.61 0 0 0 -.62-3 21.17 21.17 0 0 1 -.31 4.56c-.08.64-.19.86-.81 1a15.41 15.41 0 0 1 -2.22.58c.89.61 3 .4 3.58 1.33s.2 2.31 1 3.12a13.85 13.85 0 0 1 .18-2.95c.14-.64.55-.78 1.07-1.08s1.09-.73 1.64-1.09c-.72-.75-2.37.12-3.02-.56z" fill="#fff"/><path d="m190.34 142.51a28 28 0 0 0 .18 4.57q.06 1.14.21 2.28a7.47 7.47 0 0 0 .34 2.33c-.09-.33-.06.26-.06.23a3.39 3.39 0 0 0 .15.77 29 29 0 0 0 -.34-5c-.12-1.69-.19-3.47-.48-5.18z" fill="#fff"/><path d="m190.7 147.51a6.72 6.72 0 0 0 -2.38.3 2.57 2.57 0 0 0 -.58.05 15.83 15.83 0 0 0 2.91-.2c1-.07 2-.11 3-.28a16.75 16.75 0 0 0 -2.95.13z" fill="#fff"/><path d="m190.88 147c-.16-.3-.2-.6-.33-.89a3 3 0 0 1 -.57 1.46c.37.24.61.39.68.88v-.18a2 2 0 0 0 .14.47 1.8 1.8 0 0 1 .64-1.26c-.14-.18-.44-.18-.56-.48z" fill="#fff"/><path d="m171.43 221.81c-2-4.15-4-8.9-7.67-11.89-1.75 3.15-4.65 5.84-7.4 8.1-2.29 1.88-5.56 4.54-8.74 4.13a21.05 21.05 0 0 1 -5.61-1.82c-2.08-.9-4.1-1.93-6.1-3a25.22 25.22 0 0 0 -5.78-2.6c-1.08-.27-2.19-.42-3.28-.69a10.46 10.46 0 0 1 -1.64-.53c-.51-.22-1-.68-1.45-.88s-.35-.09-.78.21l-.84.61-1.68 1.23c-1.11.83-2.21 1.67-3.3 2.53q-3.27 2.58-6.39 5.32a142.3 142.3 0 0 0 -11.57 11.47c-3.58 4-7.31 8.21-9.79 13a48.74 48.74 0 0 0 -4.41 14.42c-1 5.77-1.36 11.62-1.89 17.45-.64 7-1.26 14.09-2 21.13h105.34a4.64 4.64 0 0 0 1.44 0 .54.54 0 0 1 .18 0 293.91 293.91 0 0 0 -2.28-31.66 153.88 153.88 0 0 0 -7.61-30.3 158.57 158.57 0 0 0 -6.75-16.23z" fill="#e89a9c"/><path d="m160.54 212.29c-2.49 2.37-4.56 5.15-7.08 7.5-.4.38-1.34 1.45-1.83 1.31-.3-.08-.74-.58-1-.79-.44-.34-.89-.67-1.34-1q-2.35-1.71-4.84-3.22a70.35 70.35 0 0 0 -18.55-7.48c-1.36-.36-2.22-.44-3.29.53a16.28 16.28 0 0 0 -3.49 4.62 7.81 7.81 0 0 0 2.81.07 9.34 9.34 0 0 1 3 .36 43.88 43.88 0 0 1 5.71 1.89 62.32 62.32 0 0 1 10.55 5.45c1.68 1.09 3.33 2.23 5 3.32 1.53 1 3 2.13 4.52 3.11a4.55 4.55 0 0 0 1.16.64c.53.13.2.13.56-.13a4.26 4.26 0 0 0 .49-.54c.71-.8 1.39-1.61 2.07-2.42 1.32-1.6 2.6-3.22 3.93-4.81 2.39-2.84 5.2-6.08 8.78-7.38a16.32 16.32 0 0 0 -1.43-2.08l-.82-1.14c-.13-.19-.52-1.06-.72-1.13-.61-.22-1.81.92-2.19 1.26-.69.65-1.3 1.4-2 2.06z" fill="#bd7d36"/><path d="m107.53 264.89a6.47 6.47 0 0 1 -.5-1.69c-.21-.76-.37-1.51-.52-2.29a14.65 14.65 0 0 0 -1-4.09 38.12 38.12 0 0 0 -.31 4.66c-.08.91-.21 1.81-.26 2.72s.18 1.29-.9 1.78c-1.29.58-2.79.72-4.13 1.19a3.51 3.51 0 0 0 1.2.38c.54.14 1.07.32 1.6.48.8.23 2.37.38 2.66 1.19.42 1.17.8 2.38 1.13 3.58.16.6.33 1.21.48 1.82a4.1 4.1 0 0 0 .43 1.43 50.33 50.33 0 0 1 .88-7.55c.17-1 .2-1.15 1.17-1.47 1.17-.37 2.19-.95 3.32-1.42a13.15 13.15 0 0 0 -3.26-.27c-.52-.02-1.63.09-1.99-.45z" fill="#fff"/><path d="m118.64 242.54c-.41-.43-.38-1.26-.47-1.81a24.51 24.51 0 0 0 -.69-3.28 21.57 21.57 0 0 1 -.32 4.74c-.08.67-.19.9-.84 1.07a14.26 14.26 0 0 1 -2.31.6 7.15 7.15 0 0 0 2.18.71c.52.14 1.24.18 1.54.67.57.93.21 2.41 1 3.25a25.5 25.5 0 0 1 .17-2.9 1.37 1.37 0 0 1 .87-1.16c.68-.39 1.3-.83 2-1.26-.77-.84-2.46.07-3.13-.63z" fill="#fff"/><path d="m165.35 143.26a35.5 35.5 0 0 0 -15 5.74c-1.52 1.07-2.85 2.34-4.26 3.54-.53.46-.82.88-1.53.63a9.53 9.53 0 0 1 -2.44-1.48c-4-2.92-8.2-5.52-13.14-6.29a52.53 52.53 0 0 0 -13.59-.8 24.31 24.31 0 0 0 -7.06 1.76 15.25 15.25 0 0 0 -2.9 1.62c-.53.38-1 .6-1 1.23 0 .83.22 1.72.26 2.55a22.35 22.35 0 0 1 6.17-3.1 30.38 30.38 0 0 1 8-1.09 34.85 34.85 0 0 1 8.16.54 43.67 43.67 0 0 1 7.42 2.39c2.3.94 4.61 1.9 6.83 3a16.18 16.18 0 0 1 2.65 1.59c.57.43 1.15 1.51 1.94 1.4 1.22-.17 2.31-1.87 3.06-2.72a21.24 21.24 0 0 1 5.33-4.33c4.53-2.65 10.27-5.87 15.71-4.59a12.43 12.43 0 0 0 -.78-1.49c-.23-.4-.18-.45-.54-.47a14.32 14.32 0 0 0 -1.56.23c-.6.03-1.17.05-1.73.14z" fill="#bd7d36"/><path d="m258.75 55.56a5.82 5.82 0 0 0 -.75-1.56c-.39-.79-.77-1.59-1.15-2.39-.69-1.45-1.32-2.93-1.94-4.4-1.25-3-2.32-6-3.37-9.1a60.64 60.64 0 0 1 -2.19-9.15 22.09 22.09 0 0 0 -.76-4.05c-.63-1.63-1.79-.43-2.39.51a10.1 10.1 0 0 0 -1.37 4.52c-.11.91-.11 1.83-.14 2.74a7 7 0 0 1 0 2.15c-.24-.58-.7-1.87-1.51-1.31s-1 2.08-1.05 2.89a7.38 7.38 0 0 0 .28 2.88c.14.47.34.92.51 1.37a5.23 5.23 0 0 1 .49 1.31c-.28.09-.48-.1-.78.09a1.49 1.49 0 0 0 -.5.71 5.07 5.07 0 0 0 -.2 2.29 11.52 11.52 0 0 0 .46 2.25c.17.55.72 1.31.7 1.88 0 .27-.26.57-.34.82a3.06 3.06 0 0 0 -.13 1 6.58 6.58 0 0 0 .52 2.36 3.74 3.74 0 0 0 .47.91c.11.15.4.3.48.45.19.35.14 1 .31 1.48 1.08 2.84 3.69 4 5.92 5.73.71.56 2 1.8 3 1.5s1.2-1.58 2-2c.65-.36 1.4-.46 2-.87a3.32 3.32 0 0 0 1.35-1.73 7.45 7.45 0 0 0 0-4.89z" fill="#29bac9"/><path d="m231 66c-.28-.4-.69-.73-1.13-.55a11.69 11.69 0 0 0 -1.64 1.13 23 23 0 0 0 -3.23 2.42c.1.14 1-.08 1.21-.11a10 10 0 0 0 1.78-.51c.08 0 2-.78 2-.75a5.47 5.47 0 0 1 -1 .65c-.45.32-.89.66-1.33 1s-1.52.88-1.7 1.43a10.43 10.43 0 0 0 1.85-.4 21.49 21.49 0 0 0 2.28-1.07 2.67 2.67 0 0 0 1.31-1.07 2.56 2.56 0 0 0 -.4-2.17z" fill="#131717"/><path d="m277.15 73.52c-3.8-1.5-7.76-2.09-11.64-3.29a30.74 30.74 0 0 1 -11.34-6.29c-4.91-4.34-10.48-11.52-17.9-8.47-3.18 1.31-7.54 4.46-7.38 8.29v1.53a11 11 0 0 0 1.1 3.12 20.73 20.73 0 0 0 3.25 4.75c5.85 6.81 13.63 13.42 23.24 11.72 5.45-1 10.43-3.7 15.16-6.45 1.43-.83 2.91-1.6 4.27-2.55.52-.35 2.64-1.8 1.24-2.36z" fill="#6dc9d6"/><path d="m243.87 65.36a2.44 2.44 0 0 1 -.39-1c1.36 0 0-1.35-.27-1.71 1.19-.26.28-1-.4-1.31a5.4 5.4 0 0 0 -2.88-.5c.28-.06.65-.31.42-.59s-.7-.16-.89-.18a6.47 6.47 0 0 0 -3.26.38c.54-.66-.53-.45-.8-.3a4.51 4.51 0 0 0 -1.5 1.35 9.1 9.1 0 0 0 -1.51 3.78c-.24 1.48.22 3 .09 4.43 0 .48-.39 1.19-.38 1.6a3.62 3.62 0 0 0 .55 1.31 37.67 37.67 0 0 0 5.3 7.54 16.47 16.47 0 0 0 3.05 2.68 11.11 11.11 0 0 0 2 1.07c.53.23 1.07.61 1.26-.1a10.7 10.7 0 0 0 4.62 1.78 17.26 17.26 0 0 0 5.27.24l-7.41-16.94a6.93 6.93 0 0 0 -.52-1.18c-.16-.2-.33-.21-.59-.36a4.42 4.42 0 0 1 -1.76-1.99z" fill="#ece1ce"/><path d="m237.41 52.9c-1.11.65-2.52 1.33-3.19 2.5.13-.25 2.57-3.08 2.29-3.3-1.29.53-2.51 2-3.41 3a37.5 37.5 0 0 0 -2.7 3.69 8.14 8.14 0 0 0 -1.48 4.21 5.26 5.26 0 0 0 .55 2.88c.34.46.11.37.73.15a1.51 1.51 0 0 0 1.12-1.03c.59-1.34.93-2.76 1.53-4.1a13.45 13.45 0 0 1 2.22-3.59 19.65 19.65 0 0 1 1.84-1.81c.2-.18 1.34-.9 1.26-1.14a4.39 4.39 0 0 0 -1.66.86 20.53 20.53 0 0 1 1.74-2c.27-.26.54-.51.83-.75s.75-.42.86-.67a6.21 6.21 0 0 0 -2.53 1.1z" fill="#6dc9d6"/><path d="m234.44 55.12a1.13 1.13 0 0 0 -.22.28 1.93 1.93 0 0 1 .22-.28z" fill="#6dc9d6"/><path d="m251.31 62.67.14-.09c-.01-.11-.03-.12-.14.09z" fill="#6dc9d6"/><path d="m277.15 43.45a6.81 6.81 0 0 0 -.54.59c.25-.04.39-.41.54-.59z" fill="#6dc9d6"/><path d="m279 41.41a16 16 0 0 0 -1.5 1.59c-.19.23-.61.93-.89 1a17.5 17.5 0 0 0 2.44-4 12.72 12.72 0 0 0 .9-4.71c0-.87-.37-2.92-1.51-1.67a16.82 16.82 0 0 0 -1.39 1.74c-.29.41-1 1-1.08 1.48 0-.4.72-1 .94-1.36.37-.63.72-1.28 1-1.94a11.63 11.63 0 0 0 1.11-4.25c0-.43.19-2.07-.57-2-.56.05-1.19 1.4-1.52 1.83-3.65 4.67-6.61 9.82-9.94 14.72a50.67 50.67 0 0 1 -5.36 6.51 82 82 0 0 0 -5.75 7.14c-1 1.27-2 2.5-3.06 3.68-.36.4-.79.76-1.15 1.16a1.16 1.16 0 0 0 .07 1.49c.71 1.08 2.4 1.78 3.47 2.43a18.93 18.93 0 0 0 3.79 1.75c2.86 1 5.77 2.12 8.87 1.68a6.32 6.32 0 0 0 3.77-1.68c.52-.55.92-1.44.22-2a8.31 8.31 0 0 0 4.49-3.53c.84-1.5.92-3.8-1.38-3.29a11 11 0 0 0 4.32-6c.16-.7.35-2.44-.68-2.58-.69-.1-1.44.64-1.94 1a12.85 12.85 0 0 0 3.59-5.92c.12-.63.19-5.62-1.26-4.27z" fill="#6dc9d6"/><path d="m276 36.89c.06-.25.45-.57.59-.79-.19.2-.59.53-.59.79z" fill="#6dc9d6"/><path d="m290 73.63c-.23-.07-.78-.15-.9-.4s.22-.61-.15-1-1.26-1-1.77-.75c-.07-.18.14-.2 0-.41a3.84 3.84 0 0 0 -.32-.5 2.85 2.85 0 0 0 -1.21-.94c-.9-.17-2.28.86-3.06 1.24a19.75 19.75 0 0 1 -7 1.73c-1.17.09-2.3.07-3.48 0-.67 0-1.32 0-2 0-.31 0-.93-.19-1.22 0-.7.36-.28 1.93 0 2.44a5.84 5.84 0 0 0 1 1.19c.23.22 1.14.75.86 1 .26.29 1.73.06 2.08 0 1 0 2-.07 3-.15 2-.17 4-.47 6-.61a33.87 33.87 0 0 0 5.91-1 13 13 0 0 0 2.8-1c1-.47.02-.66-.54-.84z" fill="#6dc9d6"/><path d="m235.2 62.73a.35.35 0 0 0 -.44.14c.14-.05.3-.08.44-.14z" fill="#fff"/><path d="m237.3 62.76a1.76 1.76 0 0 0 -1.4-.51 1.51 1.51 0 0 0 -.65.24l-.21.16c-.28.14-.22.16.16.08-.08 0-.65.23-.33 0-1.63.68-.4 3.17 1 3.23a1.91 1.91 0 0 0 1.43-3.2z" fill="#fff"/><path d="m236.45 65.47a.87.87 0 0 0 .23-.16h-1.23a1 1 0 0 0 1 .16z" fill="#131717"/><path d="m237.28 63.43a1.43 1.43 0 1 0 -1.13 2.13 1.23 1.23 0 0 1 -.7-.21h1.23a.91.91 0 0 1 -.53.25c1.13-.02 1.54-1.23 1.13-2.17z" fill="#131717"/><path d="m236 63.06c-.21 0-.23.16-.09.25z" fill="#fff"/><path d="m236.14 62.91c-.18-.07-.53.15-.31.33a.17.17 0 0 1 .19-.18c-.07.13 0 .32-.19.18.06.28.65-.19.31-.33z" fill="#fff"/><path d="m260.34 82.5c-6.11-1.64-9-8.78-12.54-13.4a41.36 41.36 0 0 0 -3.69-4.24c-.67-.66-1.34-1.33-2.05-1.94-.29-.25-1.07-1.1-1.52-1a5.82 5.82 0 0 0 .85 1.3c.53.75 1.07 1.49 1.6 2.23s.88 1.16 1.26 1.76a8.06 8.06 0 0 1 .89 3.2 17.61 17.61 0 0 0 1.24 4.6c.6 1.48 1.11 3 1.83 4.45.32.63.77 1.18 1.09 1.81a18.51 18.51 0 0 0 1 2c.7 1.08 1.59 2.84 3.11 2.67.95-.1 1.9-.51 2.84-.7a20.85 20.85 0 0 0 2.57-.72q1.16-.39 2.28-.87a6.19 6.19 0 0 0 1.8-.84 4.34 4.34 0 0 1 -2.56-.31z" fill="#ece1ce"/><path d="m262.92 82.84a.48.48 0 0 0 .19-.09.56.56 0 0 0 -.19.09z" fill="#ece1ce"/><g fill="#d9cba4"><path d="m239 74.06c-.6-.37-.63 0-.59.45.14-.2-.12-.18.18.08s.19.43.49.52c.84.25.28-.82-.08-1.05z"/><path d="m238.37 70.65c-.68-.34-.27.54-.13.72.76.97.86-.37.13-.72z"/><path d="m240.85 71c-.38-.06-.53.4-.32.67 0-.09 0-.22.14-.24-.21.31.5.95.83.79.5-.22-.35-1.17-.65-1.22z"/><path d="m240.58 71.58.09-.15c-.1.02-.12.07-.09.15z"/><path d="m241.4 75.08c0 .11.07.17.15.16z"/><path d="m241.71 74.87c-.57-.51-.26.31-.34.37.1-.09.34.22 0-.16.31.12.47 1 1 .77a1.85 1.85 0 0 0 -.66-.98z"/><path d="m239.55 78.1c.09-.06.29.16 0-.14z"/><path d="m239.7 77.66c-.39 0 .29.94.51 1 .79.34-.06-.96-.51-1z"/><path d="m242.6 78.51v.1a.13.13 0 0 0 0-.1z"/><path d="m243.16 78.38c-.45-.39-.58-.16-.52.23-.06 0 0-.14-.12-.12-.07.63 1.87.94.64-.11z"/><path d="m245.28 75.27c-.53 0 .06.78.22.87.91.52.5-.95-.22-.87z"/><path d="m248.77 75.93c-.69-.23 0 .74.21.87.85.45.22-.73-.21-.87z"/><path d="m246.16 78.74a.59.59 0 0 0 -.35-.18c.06.08.08.19.14.28-.29-.4-.08.36 0 .43s.42.51.65.52c.76.03-.14-.91-.44-1.05z"/><path d="m246.07 82.32a.45.45 0 0 0 .13.11z"/><path d="m246.34 82a.23.23 0 0 0 -.27.33l.13.11c-.33-.08.18.19.31.27s.61.32.71.19c.31-.41-.67-.9-.88-.9z"/><path d="m249.64 80.14c-.36-.06-.21.36-.13.53s.56.79.83.5-.44-.98-.7-1.03z"/></g><path d="m257 65.18-.17-.09a9.45 9.45 0 0 0 4-.08 5.34 5.34 0 0 0 2.65-1 1.75 1.75 0 0 0 .09-2.6 3.06 3.06 0 0 0 -1.53-.8 6.43 6.43 0 0 1 -1.66-.32c1-.25 2.08-.16 3.08-.45a6.45 6.45 0 0 0 2.75-1.61c.71-.71 1-1.45.24-2.23s-2-1-3-1.57a7.39 7.39 0 0 0 5.31-1.73 1.3 1.3 0 0 0 0-1.84c-.61-.74-1.56-.7-2.41-.9.21-.23.78-.19 1.06-.26a7.31 7.31 0 0 0 1.3-.51 9 9 0 0 0 2.37-1.51c.59-.56 1-1.14.57-1.92a3.19 3.19 0 0 0 -2.22-1.24c.33-.16.8-.12 1.16-.25s.54-.23.81-.35a3.74 3.74 0 0 0 1.26-.85c1-1.15.49-2.22-1-2.34" fill="none" stroke="#00aac2" stroke-linecap="round" stroke-linejoin="round" stroke-width=".29"/><path d="m266 63.73h1.15a8.76 8.76 0 0 0 1.35-.29 5.73 5.73 0 0 0 2.25-1 1.31 1.31 0 0 0 .28-1.89 3.47 3.47 0 0 0 -2.57-.64c1.38-.14 4.22-1.22 4.59-2.78a2.45 2.45 0 0 0 -.62-2 2.77 2.77 0 0 0 -2.39-.78c1.94.16 3.88-1.32 5-2.78.41-.52 1.11-1.56.66-2.21a2.09 2.09 0 0 0 -2.19-.45c.55-.32 1.05-.36 1.53-.86a5.17 5.17 0 0 0 1.31-2 1.22 1.22 0 0 0 -.66-1.51c-.25-.12-1.92-.23-1.82.09" fill="none" stroke="#00aac2" stroke-linecap="round" stroke-linejoin="round" stroke-width=".29"/><path d="m276.07 75.54a52.57 52.57 0 0 0 6.72-.77 22.5 22.5 0 0 0 3.21-.77c.7-.21 2.45-.51 2.92-1.1" fill="none" stroke="#00aac2" stroke-linecap="round" stroke-linejoin="round" stroke-width=".29"/><path d="m274.74 73.85c1-.07 2 0 3-.14a29.92 29.92 0 0 0 3.24-.64c1-.21 2-.46 2.94-.76s1.94-.79 2.93-1.07" fill="none" stroke="#00aac2" stroke-linecap="round" stroke-linejoin="round" stroke-width=".29"/><path d="m0 0h300v300h-300z" fill="none"/></svg>