<svg viewBox="0 0 300 300" xmlns="http://www.w3.org/2000/svg"><path d="m8 95.81c-5.28-11.17-6-24.62-1-35.91s15.84-20 28.09-21.62c15.29-2 29.92 6.79 41.48 17 3.6 3.18 7.24 6.86 8.08 11.59a19.66 19.66 0 0 1 -.87 8.59 69.28 69.28 0 0 1 -16.45 28.67 57.38 57.38 0 0 1 -19.08 13.75c-9.48 4-15.12 3.93-23.35-2a52.73 52.73 0 0 1 -16.9-20.07" fill="#343332"/><path d="m290.28 108.32c6.53-10.83 8.63-24.45 4.73-36.47s-14-22.06-26.34-24.94c-15.36-3.59-31.16 3.8-44 13-4 2.86-8.09 6.23-9.43 10.95a20 20 0 0 0 0 8.85 70.83 70.83 0 0 0 13.76 30.86 58.57 58.57 0 0 0 18 16c9.23 5.08 15 5.58 24 .37a54 54 0 0 0 19.32-18.61" fill="#343332"/><path d="m269.38 93.57a15.78 15.78 0 0 0 -3.89-16.93 18.4 18.4 0 0 0 -13.81-4.33 21.21 21.21 0 0 0 -12.89 6.12c4.84 4 7.61 9.9 11.26 14.81 1.48 2 7.38 12.27 8.26 12.53 3.69 1.07 10.26-10 11.07-12.2" fill="#f7a5b6"/><path d="m32.69 88.62c-1.11-6.41 1-13.59 5.94-17.48a15.23 15.23 0 0 1 13.31-2.51 19.55 19.55 0 0 1 11 8.5c-5 3.5-8.38 9.41-12.43 14.09-1.64 1.91-8.5 12-9.34 12.11-3.55.59-8.07-12.19-8.5-14.71" fill="#f7a5b6"/><path d="m256.06 95.8c-8-9.57-23.54-35.13-89.33-40.1a6.23 6.23 0 0 0 .77-3.43 3.5 3.5 0 0 0 -.84-2.16 4.65 4.65 0 0 0 -3.65-1 30.72 30.72 0 0 0 -15.94 5.33l-1.07-.04c2-3.19 3.91-6.46 5.65-9.81-6.48 1.41-13.65 5.16-19.95 9.46-17.7-.05-39.63 1.25-51.19 7.41-25.9 13.8-41.24 32.38-51.52 74s-11.29 78.87 4.91 99.11c15.86 19.81 56.66 34.43 119.1 33.89l4.11-.06c64.76-1.28 90.74-4.38 112.94-36.52s-2.61-122.54-14-136.08" fill="#eaeae9"/><path d="m143 205.42a23.23 23.23 0 0 1 -9.25-4.21 5.28 5.28 0 0 1 -2.45-3.54c-.23-2.44 2.16-4 4.22-4.61a26.17 26.17 0 0 1 17.57.92c1.54.64 3.21 1.65 3.62 3.46a4.39 4.39 0 0 1 -1.76 4.29 13 13 0 0 1 -3.84 2.07 34.27 34.27 0 0 1 -6.49 1.54c-1.23.23-5.37-.46-5.51-1.87" fill="#343332"/><path d="m152.27 220.35a8.58 8.58 0 0 1 -5.68-2.32 11.68 11.68 0 0 1 -2.2-2.77 11.21 11.21 0 0 1 -2.29 2.74c-2 1.68-5.33 2.46-7.76.7a1.61 1.61 0 0 1 1.9-2.61c1 .75 2.74.3 3.79-.57a12.91 12.91 0 0 0 3-4.63 1.62 1.62 0 0 1 3 .13 11.25 11.25 0 0 0 2.78 4.63 5 5 0 0 0 4.28 1.38 1.62 1.62 0 1 1 .72 3.15 6.76 6.76 0 0 1 -1.54.17z" fill="#343332"/><path d="m45 165.29a135.12 135.12 0 0 1 21.66-25.92c4.84-4.51 10.41-8.84 17-9.61 5.71-.67 11.35 1.44 16.7 3.54 4.1 1.61 8.29 3.31 11.55 6.27 8.15 7.42 8 20.19 6 31a136.3 136.3 0 0 1 -7.65 26c-1.45 3.58-3.14 7.21-6 9.77-3.35 3-7.91 4.14-12.33 4.8a71.79 71.79 0 0 1 -34.54-3.42c-20.85-7.47-23.9-24.45-12.36-42.44" fill="#343332"/><path d="m61.4 185.24a2.05 2.05 0 0 1 -1.87-1.24c-1.07-2.46-.77-5.31.89-8.49a20.53 20.53 0 0 1 8.41-8.51 21.16 21.16 0 0 1 13.11-2.31 19.3 19.3 0 0 1 11.7 6.57 19.68 19.68 0 0 1 4.36 11 2 2 0 0 1 -4.07.35 15.59 15.59 0 0 0 -3.42-8.74 15.2 15.2 0 0 0 -9.21-5.15 17 17 0 0 0 -10.53 1.86 16.41 16.41 0 0 0 -6.77 6.84c-1.07 2-1.32 3.69-.77 5a2 2 0 0 1 -1.05 2.68 2 2 0 0 1 -.78.14z" fill="#fff"/><path d="m173.36 169.67c-.8-7.56-.47-16 4.57-21.64a42.21 42.21 0 0 1 12.95-10.42 55 55 0 0 1 17.24-5.08c9.15-1 16.87 6.5 22.59 13.75a201.82 201.82 0 0 1 13.36 19.11c4.44 7.22 8.52 15 9.24 23.47.38 4.35-.26 9-3 12.44-2.34 3-5.92 4.62-9.43 5.95-14.46 5.48-37 9.85-51.92 3.63-5.68-2.37-6.58-8.14-8.72-13.57a105.73 105.73 0 0 1 -6.91-27.64" fill="#343332"/><path d="m236.86 221a12.54 12.54 0 0 0 -8.38 4.87c-1.88 2.74-2 6.75.12 9.26 1.41 1.63 3.52 2.43 5.54 3.17 3.63 1.33 7.45 2.68 11.27 2.08a12.92 12.92 0 0 0 5.19-2.12 11.16 11.16 0 0 0 4.2-5 7.56 7.56 0 0 0 -.23-6.36c-3-5.48-12.26-6.86-17.71-6" fill="#f7a5b6"/><path d="m49 216.16a12.53 12.53 0 0 0 -8.4 4.84c-1.87 2.74-2.05 6.74.12 9.26 1.41 1.63 3.52 2.43 5.54 3.17 3.63 1.33 7.46 2.68 11.28 2.07a12.82 12.82 0 0 0 5.19-2.11 11.2 11.2 0 0 0 4.19-4.95 7.58 7.58 0 0 0 -.22-6.37c-3-5.48-12.26-6.86-17.71-5.94" fill="#f7a5b6"/><path d="m195.8 190.17a2 2 0 0 1 -1.87-1.23c-1.08-2.45-.78-5.31.89-8.49a20.51 20.51 0 0 1 8.4-8.51 21.23 21.23 0 0 1 13.11-2.31 19.32 19.32 0 0 1 11.67 6.57 19.71 19.71 0 0 1 4.36 11 2 2 0 0 1 -4.07.35 15.56 15.56 0 0 0 -3.43-8.74 15.14 15.14 0 0 0 -9.2-5.15 17 17 0 0 0 -10.53 1.87 16.47 16.47 0 0 0 -6.74 6.82c-1.06 2-1.32 3.69-.76 5a2 2 0 0 1 -1 2.69 2.19 2.19 0 0 1 -.83.13z" fill="#fff"/><path d="m144.74 213.25a1.61 1.61 0 0 1 -1.61-1.52c-.08-1.2-.08-2.36-.08-3.48a39 39 0 0 0 -.2-4.78 1.62 1.62 0 0 1 3.21-.36 44.37 44.37 0 0 1 .22 5.14c0 1.11 0 2.17.07 3.28a1.61 1.61 0 0 1 -1.51 1.71z" fill="#343332"/><g fill="#d2d1d1"><path d="m153.87 106.73a52.71 52.71 0 0 0 -1.14 11 9.45 9.45 0 0 0 2.09.48.6.6 0 0 0 .79-.5 25.49 25.49 0 0 0 1.85-8.92 2.21 2.21 0 0 0 -.22-1.11c-.25-.43-.77-.55-1.14-1a5.19 5.19 0 0 0 -2.23.07"/><path d="m173.87 91a34.45 34.45 0 0 0 1 8.8 12.76 12.76 0 0 0 2.14.07.87.87 0 0 0 .51-.14.57.57 0 0 0 .18-.37 16.46 16.46 0 0 0 .09-7.29 1.65 1.65 0 0 0 -.43-.84c-.33-.3-.87-.32-1.31-.61a6.2 6.2 0 0 0 -2.18.38"/><path d="m127.91 107.42a30.11 30.11 0 0 0 .55 9.35 2.8 2.8 0 0 0 2.91-.31 20.87 20.87 0 0 0 .51-6.35c-.07-.65-.12-2.24-.6-2.75s-2.24-.45-3.37.06"/><path d="m132.47 76.25a30.1 30.1 0 0 0 -1.95 9.16 2.81 2.81 0 0 0 2.89.47 21 21 0 0 0 2.17-6c.11-.65.48-2.19.16-2.82-.42-.79-2.05-1-3.27-.83"/><path d="m107.36 75.91a30.16 30.16 0 0 0 -2 9.16 2.78 2.78 0 0 0 2.89.47 21 21 0 0 0 2.17-6c.11-.64.48-2.19.16-2.81-.42-.8-2-1-3.27-.84"/><path d="m142.76 90.59a2 2 0 0 0 -.26.67 20 20 0 0 0 -.36 7.75 1.16 1.16 0 0 0 .35.79 1.27 1.27 0 0 0 .51.2 9.28 9.28 0 0 0 3.06.18 16.3 16.3 0 0 0 .21-8.15c-.2-.87-.35-1.63-1.28-1.93a2.19 2.19 0 0 0 -2.23.49"/><path d="m161.8 78.92a2.17 2.17 0 0 0 -.26.67 20.21 20.21 0 0 0 -.36 7.75 1.22 1.22 0 0 0 .35.79 1.33 1.33 0 0 0 .51.2 9.07 9.07 0 0 0 3.07.17 16.37 16.37 0 0 0 .21-8.14c-.2-.87-.36-1.63-1.28-1.93a2.19 2.19 0 0 0 -2.24.49"/><path d="m118.47 90a2.17 2.17 0 0 0 -.4.6 20.07 20.07 0 0 0 -1.95 7.51 1.16 1.16 0 0 0 .18.85 1.19 1.19 0 0 0 .45.3 9.64 9.64 0 0 0 3 .81 16.48 16.48 0 0 0 1.89-7.93c0-.9 0-1.67-.86-2.16a2.19 2.19 0 0 0 -2.28 0"/><path d="m185.63 79.43c.56 2 1.11 3.95 1.66 5.93a1.17 1.17 0 0 0 .33.63 3 3 0 0 1 .54.53c.45.56 2.75 1 2.92.21-.67-2.13-1.33-4.26-2-6.38a2 2 0 0 0 -.63-1.1 1.93 1.93 0 0 0 -1.48-.41c-.5.07-1.24.15-1.34.59"/></g><path d="m0 0h300v300h-300z" fill="none"/></svg>