<svg xmlns="http://www.w3.org/2000/svg" viewBox="0 0 300 300"><defs><style>.a{fill:#eff8f7;}.b,.d,.q{fill:none;}.b,.d{stroke:#474c64;}.b{stroke-linecap:round;stroke-linejoin:round;stroke-width:1.31px;}.c{fill:#474c64;}.d{stroke-miterlimit:10;stroke-width:1.89px;}.e{fill:#299270;}.f{fill:#fff;}.g{fill:#fbdb31;}.h{fill:#3d5148;}.i{fill:#f5bf38;}.j{fill:#f8d776;}.k{fill:#cd6352;}.l{fill:#219ca3;}.m{fill:#98d7e2;}.n{fill:#31725e;}.o{fill:#85bbad;}.p{fill:#dab24d;}</style></defs><title>sticker_perso_surf_thumb</title><path class="a" d="M42,245.32c8.53-4.54,20.71-4.88,30-5.9,26.4-2.91,53.39-3.07,79.94-3.56,23-.44,46.22-2.38,69.17-.09a47.59,47.59,0,0,1,21.06,6.7c4.46,2.56,8.07,2.89,12.49,3.43,16.27,2,7.64,16.66,7.64,16.66-13.24,4.33-22.61,8.26-113,8s-109.73-9.7-109.73-9.7c-7.43-10.9,2.59-16.51,2.59-16.51"/><path class="b" d="M189.45,234.19a3,3,0,0,1-2.32-.54,13.27,13.27,0,0,1-3.12-2.16,7.7,7.7,0,0,1-1.67-7.46,10.41,10.41,0,0,1,5-6c2.35-1.29,7.72-3.06,10.79-.06a11.68,11.68,0,0,1,3.13,6.2c.37,2.35,0,5-1.69,6.64"/><path class="c" d="M184.8,227.46a2.86,2.86,0,0,0,1.07,1.89,2.89,2.89,0,0,0,1.2.36,2,2,0,0,0,1.07-.05,1.7,1.7,0,0,0,.7-.55,3.77,3.77,0,0,0,0-4.63,2.31,2.31,0,0,0-3.12-.53c-1.18.83-1.21,2.24-.91,3.51"/><path class="c" d="M194.5,220.2c-.25.25-.65.27-1,.43a1.76,1.76,0,0,0-.77,1.41,3.89,3.89,0,0,0,1.06,3.08,2.43,2.43,0,0,0,.85.6,2.47,2.47,0,0,0,1.32.11,3.14,3.14,0,0,0,1.86-1,2.43,2.43,0,0,0,.61-2,2.85,2.85,0,0,0-.67-1.33,3.7,3.7,0,0,0-2.91-1.4,1.58,1.58,0,0,0-1.58,1.05Z"/><path class="c" d="M191.45,228.85a2.44,2.44,0,0,0-.32,1.54c0,.31.19.65.5.71s.63-.31.73-.65a2.16,2.16,0,0,0,0-1.1.71.71,0,0,0-.21-.41.48.48,0,0,0-.57,0Z"/><path class="c" d="M193.3,228.23a3.9,3.9,0,0,0,.53,1.36,1.22,1.22,0,0,0,.23.27.62.62,0,0,0,.87-.36.84.84,0,0,0-.43-.92,1.49,1.49,0,0,0-1.06-.08Z"/><path class="b" d="M188.76,232.94a4.45,4.45,0,0,1,1.92,2.13,7.78,7.78,0,0,0,.64,1.48,1.46,1.46,0,0,0,1.53.6,2.32,2.32,0,0,0,.76-.44"/><path class="b" d="M199.47,228.43c.11.1.05.28,0,.42a4.25,4.25,0,0,0-.57,1.63,4.36,4.36,0,0,0,.48,1.76,13.22,13.22,0,0,1,.55,1.72,1.6,1.6,0,0,1,0,1.32,2.32,2.32,0,0,1-1.56.75,1.2,1.2,0,0,1-.53,0,.29.29,0,0,1-.22-.36"/><path class="b" d="M192.83,233.83c.31,1,.63,1.94.94,2.9a.85.85,0,0,0,.28.46,1,1,0,0,0,.56.1,6.72,6.72,0,0,0,1.72-.28,1.26,1.26,0,0,0,.79-.49.94.94,0,0,0,.08-.52,8.17,8.17,0,0,0-.75-3.13"/><path class="c" d="M198.55,225.94c.17-.38.38-.63.5-.94s.22-.62.39-1a1.37,1.37,0,0,1,0,1.17,1.43,1.43,0,0,1-.89.76"/><path class="c" d="M186.09,231.14a3.85,3.85,0,0,1,.92.08,4.43,4.43,0,0,1,.87.29,1.38,1.38,0,0,1-1,.14,1.44,1.44,0,0,1-.82-.51"/><path class="b" d="M184.66,232.07l-2.09,2.3a1.07,1.07,0,0,1-.29.27c-.41.25-.93,0-1.41-.07a2.55,2.55,0,0,0-1.79.32,1.18,1.18,0,0,0-.67,1.24,1.13,1.13,0,0,0,1,.7c.41.06.83,0,1.25,0a1.3,1.3,0,0,1,1.07.55"/><path class="b" d="M182.08,226.82l-2,.65a1.42,1.42,0,0,1-.4.08c-.45,0-.73-.47-1.08-.76a1.67,1.67,0,0,0-1.45-.32,1.12,1.12,0,0,0-.65.44,1.1,1.1,0,0,0,.27,1.35c.33.29.83.51.82.94a.52.52,0,0,1-.14.33"/><path class="b" d="M176.9,228.29a1.12,1.12,0,0,0-.7.94,1.49,1.49,0,0,0,.41,1.13,1.67,1.67,0,0,0,1.72.49,1.38,1.38,0,0,0,.92-1.48l3-.49"/><path class="b" d="M180.78,237a1.94,1.94,0,0,0-.15,1.57,1.59,1.59,0,0,0,1.28.7,1.77,1.77,0,0,0,1.93-.91c.22-.64-.18-1.37,0-2a2.41,2.41,0,0,1,.39-.7q.92-1.28,2-2.49"/><path class="b" d="M201.92,226.42l3.09.29a1.78,1.78,0,0,0,.4,0c.47-.1.71-.61,1-1a2.57,2.57,0,0,1,1.54-1,1.19,1.19,0,0,1,1.33.47,1.12,1.12,0,0,1-.23,1.16c-.26.32-.61.56-.9.87a1.31,1.31,0,0,0-.42,1.12"/><path class="b" d="M200.27,220.82l1.94-.91a1.36,1.36,0,0,0,.35-.21c.33-.31.22-.84.28-1.29a1.65,1.65,0,0,1,.85-1.21,1.1,1.1,0,0,1,.77-.12,1.09,1.09,0,0,1,.72,1.18c-.05.43-.27.93,0,1.24a.43.43,0,0,0,.32.14"/><path class="b" d="M205.08,218.39a1.13,1.13,0,0,1,1.15.22,1.49,1.49,0,0,1,.46,1.11,1.68,1.68,0,0,1-.93,1.53,1.4,1.4,0,0,1-1.68-.47l-2.52,1.65"/><path class="b" d="M208.08,227.39c.49.24,1,.53,1.17,1.06a1.54,1.54,0,0,1-.47,1.38,1.78,1.78,0,0,1-2,.64c-.6-.33-.8-1.14-1.38-1.5a2.14,2.14,0,0,0-.75-.25q-1.55-.33-3.12-.51"/><path class="d" d="M110.4,218.24a2.38,2.38,0,0,0,1.74,2.82,2.26,2.26,0,0,0,2.73-1.76,2.39,2.39,0,0,0-1.74-2.82A2.27,2.27,0,0,0,110.4,218.24Z"/><path class="c" d="M112.5,221a33.52,33.52,0,0,0,4,2.49c.11.06.24.14.26.27a.49.49,0,0,1-.12.29l-.65.81a13.08,13.08,0,0,1-3.39-1.58c0-.14-.31-.27-.43-.22a.63.63,0,0,0-.28.3l-.83,1.52q-2.48,4.53-4.93,9.07a5.93,5.93,0,0,0,6.34-.28.29.29,0,0,0,.15-.24.28.28,0,0,0-.12-.17l-1.16-1,5.48-.93c-.61.83-1.17,1.66-1.77,2.49a7.48,7.48,0,0,1-1.19,1.38,5.87,5.87,0,0,1-1.82.91,6.51,6.51,0,0,1-3.86.4,15,15,0,0,0-1.68-.56c-1-.18-2.75.12-3.29,1,.06-.58.78-1.49.85-2.07l7.9-14Z"/><path class="c" d="M111.61,220.56a32.68,32.68,0,0,1-4.15-2.16.41.41,0,0,0-.36-.09.47.47,0,0,0-.17.27l-.32,1a13.61,13.61,0,0,0,3.09,2.13c.1-.1.39.12.42.26a.58.58,0,0,1-.11.4l-.8,1.54q-2.38,4.58-4.81,9.13a6.33,6.33,0,0,1-3.13-5.71c0-.09,0-.21.11-.25a.28.28,0,0,1,.2,0l1.44.49-2.15-5.29c-.36,1-.74,1.9-1.1,2.87a7.27,7.27,0,0,0-.49,1.77,6.64,6.64,0,0,0,.21,2.08,7.07,7.07,0,0,0,1.73,3.6,16.9,16.9,0,0,1,1.35,1.17,3.28,3.28,0,0,1,.62,3.2c.44-.36.67-.92,1.11-1.28L112,221Z"/><path class="e" d="M42.3,244.38s-5.11-67,3.14-106,17.3-56,17.3-56h176.9s14.94,25.2,16.51,54,2.36,80.69,0,109.61c0,0-110.46,16.45-213.85-1.6"/><path class="f" d="M44.67,136.38s-1.31,10.13,0,14.09c0,0,38.38,20,58.56,39.76s31.33,36.89,38.15,52,15.46,4.69,17,1,18.08-36.34,38.26-52.17,43-31.9,57.66-36.59a17.39,17.39,0,0,0,0-15.58L46,136.38Z"/><path class="g" d="M58.7,82.39s-3.15-2.19,2.61-4.91,6-14.61,38.91-17.06S189.91,60,213.39,63c24.39,3.09,23.84,14.21,27.68,15s4.12,3.1,2.61,4.39-185,0-185,0"/><path class="a" d="M79.58,89.34S130.1,87.47,136.42,88s8.33,2.67,8.61,7.2,1.73,30.7,0,33.37-27,5.34-71.77-1.34c0,0-4,0-2.87-7.47s4-30.24,9.19-30.43"/><path class="a" d="M69,91.48S62.59,123,60.75,124.57s-6.72-.8-5.81-4.27S61.67,99.22,63.5,96s4.59-6.94,5.5-4.54"/><path class="a" d="M219.17,89.34S168.36,87.47,162,88s-8.38,2.67-8.67,7.2-1.73,30.7,0,33.37,27.14,5.34,72.18-1.34c0,0,4,0,2.89-7.47s-4-30.24-9.24-30.43"/><path class="a" d="M231.63,91.48s6.42,31.49,8.26,33.09,6.72-.8,5.8-4.27S239,99.22,237.14,96s-4.59-6.94-5.51-4.54"/><path class="h" d="M49.49,263.67c-.73-.23-1.09,22.47,1.1,24.65s.73,8,14.6,8.26,17-3.64,18.74-9.47c0,0,1-7.78,1.22-18.22,0,0-30.27-3.54-35.66-5.22"/><path class="h" d="M250.91,266.17c.43-.64,1,21.14-1.22,23.33s-.73,8-14.6,8.26-17-3.65-18.74-9.48c0,0-1-7.77-1.21-18.22,0,0,33.82-1,35.77-3.89"/><path class="f" d="M94.25,206.79c0,7.94-6.82,14.37-15.22,14.37S63.8,214.73,63.8,206.79,70.62,192.43,79,192.43s15.22,6.43,15.22,14.36"/><path class="i" d="M91.65,206.79c0,6.58-5.65,11.92-12.62,11.92S66.4,213.37,66.4,206.79,72.05,194.88,79,194.88s12.62,5.33,12.62,11.91"/><path class="f" d="M209.87,207.84c0,7.93,6.81,14.36,15.22,14.36s15.23-6.43,15.23-14.36-6.82-14.37-15.23-14.37-15.22,6.43-15.22,14.37"/><path class="j" d="M232.82,177.26a6,6,0,1,0,6-5.65,5.84,5.84,0,0,0-6,5.65"/><path class="i" d="M212.47,207.84c0,6.57,5.65,11.91,12.62,11.91s12.63-5.34,12.63-11.91-5.66-11.92-12.63-11.92-12.62,5.34-12.62,11.92"/><path class="h" d="M127.16,257.49v14.18s23.06,1.83,41.6,0V257.49s-22.45.91-41.6,0"/><path class="f" d="M135.2,265.88a6.38,6.38,0,0,1,3.89-1.93,2,2,0,0,0-.62,2.84,3.42,3.42,0,0,0,2.9,1.3,2.43,2.43,0,0,0,1.85-.71,4.07,4.07,0,0,0,.62-1.83,6.55,6.55,0,0,1,9.46-4.41,2.66,2.66,0,0,1,1,.77c.55.84.2,2,.61,2.92.28-.94-.77-1.79-1.74-1.88a3.43,3.43,0,0,0-3.54,2.47,1.61,1.61,0,0,0,0,1,1.94,1.94,0,0,0,.63.71c1.55,1.18,3.82,1.8,5.42.68,1-.73,1.52-2,2.35-3s2.47-1.55,3.3-.59a2.31,2.31,0,0,0,1.51,4.31c-6.09,2.14-12.78.1-19.23.23-3,.06-5.88.58-8.83.55-1.18,0-2.28.11-1.87-.95a15.58,15.58,0,0,1,2.31-2.54"/><path class="k" d="M243,34.61a152.64,152.64,0,0,0-33.86-2.87c0-.33,0-.77,0-1.35A10.4,10.4,0,0,1,210.41,25c1.77-3,5.1-4.75,7.18-7.55a5.78,5.78,0,0,0-4-.65A23.88,23.88,0,0,0,195.7,28.61c-.53.93-1,1.91-1.62,2.79-11.78-.26-31.79-.29-57.77,1.24-43,2.54-88.84,12.92-89.14,15.86S72,45.44,111.35,41.77,236,38,236,38a37.91,37.91,0,0,0,6.88-.9c.79-.17,1.77-.65,1.64-1.44s-.88-.92-1.53-1"/><path class="l" d="M64.08,36.31c-1.66-4.15,4.89-7.45,9.16-9.45C92.41,17.9,113.38,13,134.3,9c30.08-5.74,61.27-9.82,91.12-3.9a49.77,49.77,0,0,1,14,4.51c.65.35,1.38.88,1.28,1.59-.08.56-.65.94-1.19,1.22a20.12,20.12,0,0,1-6.11,2s-120,18.73-137,21.34-30.78,4.13-32.23.52"/><path class="m" d="M222.2,54.13c3.38.67,6.73,1.44,10,2.39a2.3,2.3,0,0,1,2,2.11,1,1,0,0,1,0,.82.91.91,0,0,1-.47.3,9.54,9.54,0,0,1-6.13.22s-90.87-6.06-115.85-5.84S56,54,53.46,52.9s.54-2,4-2.35S171,44,222.2,54.13"/><path class="m" d="M220.71,38.53a2,2,0,0,1,1.08,0c.9.33.9,1.61.65,2.54-.81,2.92-2.47,5.82-1.83,8.78.44,2,1.89,3.65,3.29,5.18-.48-.52-4.81-.11-5.67-.17q-2.82-.18-5.63-.57c-2.64-.37-6.6-.36-5.75-4,1.22-5.28,8.91-10.66,13.86-11.73"/><path class="n" d="M279.08,136.38a8.93,8.93,0,1,1-8.93-8.93,8.92,8.92,0,0,1,8.93,8.93"/><path class="o" d="M256.59,147.41l-.07-3.43a12.61,12.61,0,0,1,5.5-4.22l1.36,2.42a24.12,24.12,0,0,0-6.79,5.23"/><path class="o" d="M264.58,138.48a4.53,4.53,0,0,0,2.18,2.77,5,5,0,0,0,1.66.56,6.5,6.5,0,0,0,1.89-.11,3.19,3.19,0,0,1-1.89.86,3.86,3.86,0,0,1-2.1-.46,3.52,3.52,0,0,1-1.52-1.56,2.91,2.91,0,0,1-.22-2.06"/><path class="n" d="M20.92,139a8.93,8.93,0,1,0,8.92-8.93A8.92,8.92,0,0,0,20.92,139"/><path class="o" d="M43.41,150.06l.07-3.43A12.63,12.63,0,0,0,38,142.4l-1.36,2.43a23.94,23.94,0,0,1,6.79,5.23"/><path class="o" d="M35.42,141.12a2.9,2.9,0,0,1-.22,2.06,3.47,3.47,0,0,1-1.52,1.56,3.86,3.86,0,0,1-2.1.46,3.07,3.07,0,0,1-1.89-.86,6.17,6.17,0,0,0,1.89.11,4.8,4.8,0,0,0,1.66-.56,4.5,4.5,0,0,0,2.18-2.77"/><path class="p" d="M70,205.11a11.33,11.33,0,0,0,.1,3.35,9.1,9.1,0,0,0,1.14,3,9,9,0,0,0,2.11,2.41,11.22,11.22,0,0,0,2.91,1.67,6.37,6.37,0,0,1-3.4-1A7.41,7.41,0,0,1,70.31,212a7.12,7.12,0,0,1-.28-6.92"/><path class="p" d="M215.84,208a26.5,26.5,0,0,0,2.64,5,10.16,10.16,0,0,0,1.89,1.93,9.17,9.17,0,0,0,2.45,1.34,5,5,0,0,1-2.92-.61,7.15,7.15,0,0,1-2.31-2,9.27,9.27,0,0,1-1.75-5.62"/><path class="f" d="M224.7,274.17c-.24.13-.53.39-.39.63a40.89,40.89,0,0,1,8.84,1.18l-4.39,1.52c-.5.17-1.11.51-1,1l3.84.7c.24,0,.53.15.55.39a.48.48,0,0,1-.24.39c-.74.51-2,.46-2.22,1.34l4.26.78-4.54,2.45L236,285a3.86,3.86,0,0,0,1.48-.09,1.3,1.3,0,0,0,.93-1.07,7.51,7.51,0,0,1-3.33-1,22.11,22.11,0,0,0,4.3-1.19c.37-.14.82-.54.57-.85l-5.68-.86a25.06,25.06,0,0,1,6.62-2.65,2.33,2.33,0,0,0-2.16-1.07,8.16,8.16,0,0,1-2.52-.13.87.87,0,0,1-.46-.28c-.42-.51.2-1.22.78-1.54,1-.54,4.79-.86,4.45-2.21-.43-1.7-2.3-.7-3.32-.44-4.17,1.06-9,.57-12.93,2.51"/><path class="f" d="M58.28,271.16l6.49,1.06a1.4,1.4,0,0,1,.56.17,1,1,0,0,1,0,1.46,2.67,2.67,0,0,1-1.53.61,3,3,0,0,0-1.55.57c-.2.18-.36.51-.18.73a.62.62,0,0,0,.32.17c1.63.47,3.51-.08,5,.75-1.78,2.29-5.91,1.26-7.76,3.49a7.57,7.57,0,0,0,2.28.12l7.95-.35a7.24,7.24,0,0,0,2-.28,2.37,2.37,0,0,0,1.48-1.3,26,26,0,0,0-5.63-.55c2-1,4.65-.67,6.5-2-1.73-1-3.88-.68-5.83-1.07-.52-.11-1.16-.46-1-1A22.75,22.75,0,0,1,72,272.58c1-.14,2.12-.3,2.67-1.13a11.35,11.35,0,0,0-4.17-.57c.23,0,.39-.19.64-.15-2.11.09-4.32-.45-6.46-.46a20.06,20.06,0,0,0-6.44.89"/><path class="j" d="M71.29,176.22a6,6,0,1,1-6-5.66,5.83,5.83,0,0,1,6,5.66"/><path class="h" d="M150.75,201.91c-.4,0-.8,0-1.18,0a18.22,18.22,0,0,1-13.09-6.82,17.45,17.45,0,0,1-1.13-1.62,17.91,17.91,0,0,1-1.53-15.17A18.7,18.7,0,0,1,145,166.91a21.4,21.4,0,0,1,15.83.31,13.61,13.61,0,0,1,7.34,7.61c3.2,8.6,1.46,17.11-4.65,22.76-2.66,2.46-7,4.07-11.71,4.29q-.53,0-1.05,0m1.9-33.33a18.68,18.68,0,0,0-6.58,1.18,15.65,15.65,0,0,0-9.38,9.49A14.88,14.88,0,0,0,138,191.86a14,14,0,0,0,.91,1.31,15.17,15.17,0,0,0,10.88,5.67c.61,0,1.25,0,1.9,0h0c3.91-.19,7.67-1.52,9.79-3.49,5.17-4.78,6.61-12,3.86-19.45a10.6,10.6,0,0,0-5.75-5.91,16.84,16.84,0,0,0-6.91-1.41"/><path class="h" d="M149.12,167.28c0,2.5-.35,5.54-.25,8.22.19,4.77.53,9.54.76,14.3.1,2,.15,4,.08,6,0,.84-.09,1.68-.16,2.52,0,.16-.25,1.15-.14,1.32.42.64,2.64.47,3.38.33a35.29,35.29,0,0,1-.07-6.26c0-5.05.45-10.17.19-15.2-.14-2.79.2-5.6.27-8.39,0-.69.36-3.18-.19-3.75s-3.35.27-3.87.87"/><path class="h" d="M139.58,195.21a9.57,9.57,0,0,0,1.87-1.49c1.64-1.46,3.21-3,4.81-4.51a32,32,0,0,0,4.3-4.8,11.25,11.25,0,0,0,.94.67,28,28,0,0,1,4.38,3.76c1.67,1.61,3.33,3.19,4.9,4.9a22.69,22.69,0,0,1,2.15,2.12c.64-.91,1.61-1.71,2.17-2.66-.68,0-1.33-.66-1.79-1.09-1.38-1.31-2.65-2.74-4-4.08-1.63-1.62-3.16-3.35-4.83-4.95a22.56,22.56,0,0,0-4-3.32c-3,3.06-5.87,6.17-8.77,9.3-.84.91-1.73,1.87-2.63,2.7-.39.36-1.71,1-1.82,1.58-.16.75,1.48,2.52,2.31,1.87"/><path class="f" d="M73.29,212.59c-1-1.43-.92-3.55-.66-5.18.22-1.39,1.19-2.76,1.27-4.14a1.74,1.74,0,0,0-.77-1.64c-.87-.39-1.71.68-2.17,1.26-2.41,3.05.14,7.35,2.33,9.7"/><path class="f" d="M220.68,213.56c-1-1.43-.93-3.55-.67-5.18.23-1.39,1.19-2.75,1.28-4.14a1.76,1.76,0,0,0-.78-1.64c-.87-.38-1.7.68-2.16,1.26-2.41,3,.13,7.36,2.33,9.7"/><rect class="q" width="300" height="300"/></svg>