<svg xmlns="http://www.w3.org/2000/svg" xmlns:xlink="http://www.w3.org/1999/xlink" viewBox="0 0 300 300"><defs><style>.a,.h,.u{fill:none;}.b{fill:#b3e1e6;}.c{opacity:0.4;}.d{clip-path:url(#a);}.e{fill:#fff;}.f{fill:#af3942;}.g{fill:#cbb996;}.h{stroke:#674834;stroke-width:0.93px;}.h,.u{stroke-linecap:round;stroke-linejoin:round;}.i{fill:#be855c;}.j{fill:#231f20;}.k{fill:#e9d5af;}.l{fill:#c3ad81;}.m{fill:#8b5427;}.n{fill:#8d715b;}.o{fill:#ae7248;}.p{fill:#e2d4b5;}.q{fill:#130f18;}.r{fill:#8c8886;}.s{fill:#756f6d;}.t{fill:#a41926;}.u{stroke:#9a643d;stroke-width:0.59px;}.v{fill:#c1c0c0;}.w{opacity:0.68;}.x{clip-path:url(#b);}.y{fill:#a8a7a7;}.z{clip-path:url(#c);}.aa{clip-path:url(#d);}.ab{clip-path:url(#e);}.ac{clip-path:url(#f);}.ad{fill:#d0bf9b;}.ae{fill:#b69d72;}.af{clip-path:url(#g);}.ag{clip-path:url(#h);}</style><clipPath id="a"><rect class="a" x="20.51" y="249.84" width="26.75" height="28.74"/></clipPath><clipPath id="b"><rect class="a" x="157.88" y="261.22" width="9.18" height="24.53"/></clipPath><clipPath id="c"><rect class="a" x="163.81" y="262" width="24.46" height="18.87"/></clipPath><clipPath id="d"><rect class="a" x="176.06" y="258.97" width="8.26" height="6.53"/></clipPath><clipPath id="e"><rect class="a" x="174.84" y="284.83" width="12.24" height="2.74"/></clipPath><clipPath id="f"><rect class="a" x="186.84" y="255.82" width="9.33" height="6.88"/></clipPath><clipPath id="g"><rect class="a" x="13.07" y="203.96" width="41.4" height="54.87"/></clipPath><clipPath id="h"><rect class="a" x="83.67" y="241.7" width="13.77" height="24.63"/></clipPath></defs><title>sticker_perso_pirates_thumb</title><path class="b" d="M39,271.63c-2.3.35,0,3.39.93,3.79,10.13,4.26,10.42,6.75,16.34,8.73,15.65,5.23,32.15,10.25,48.76,10.46a141.71,141.71,0,0,0,36.77-4.52,156,156,0,0,1,21.33-3.88c-5.31-2.49-11.55-3.11-17.28-4.07-9.18-1.54-18.32-3.47-27.58-4.5S99.87,276,90.67,275.52c-13.23-.7-26.47-1.14-39.69-1.9-3.69-.21-7.67-1.74-12-2"/><path class="b" d="M47.92,259.42a28.41,28.41,0,0,0-18.8-9.54c-3.56-.31-13.58,1.29-5.59,4.15,1.56.56,9,1.11,7.7,3.88-.69,1.5-5.05.58-5.62,3.55-1.18,6.18,14.66,2,13.9,8.08-.1.77-1.69,1.31-1.77,2.34-.11,1.29,1.73,3.1,2.56,3.77a17.62,17.62,0,0,0,7,2.94c6.52,1.51,13.47,3,20.19,2.42,5.56-.47,10.86-7.1,8.16-12.76-2.48-5.21-10.93-9.67-16.35-10.8-3.75-.78-4.68,5.43-11.34,2"/><g class="c"><g class="d"><path class="e" d="M47.26,278.59a17.62,17.62,0,0,1-7-2.94c-.83-.67-2.67-2.48-2.56-3.77.08-1,1.67-1.57,1.77-2.34.76-6.05-15.08-1.9-13.9-8.08.57-3,4.93-2,5.62-3.56,1.27-2.76-6.14-3.31-7.7-3.87-8-2.86,2-4.46,5.59-4.15a27.62,27.62,0,0,1,10.76,3.19c-1.22-.15-6.9-1.51-5.65.81,1.09,2,6.71,2.4,6.22,5.05-.33,1.8-2.65,1.89-3.49,3.25-1,1.66,1.76,2.4,2.87,3.17,2.14,1.47,3.09,3.08,2.2,5.57-.49,1.35-1,2.42-.16,3.76,1.09,1.73,3.68,3.23,5.39,3.91"/></g></g><path class="b" d="M60.32,233.07c7.81,8.9,30.84,8.09,41.21,8.86,11.75.87,23.57-.21,35.37.58,18.28,1.22,37.95,2.75,53.06,15.71,3.75,3.22,6.94,7.18,11.13,9.89,2.33,1.52,17.46,10.5,19.29,12.84,4.78,6.09,9.65,12.38,4.07,14.64-15.61,6.31-54.6-9.5-70.22-11.49C137.38,282,120,284,103,282.26s-34.47-.89-51-5.58c-7.33-2.09,13.58-16.65,4.51-23.43-6.3-4.7-14-15.3-6.41-20.41,9-6,5.5,6.16,10.19.23"/><path class="f" d="M187.34,259.05l.09,0"/><path class="g" d="M186.31,154.87l72.94,15.34c-.63-.38-1.36.32-1.79.94l-4,5.81a5.46,5.46,0,0,1-2.1,2.11,5.25,5.25,0,0,1-3.51-.17q-28.29-8.11-57.16-14l-3.75,16.36c-4.16-1.27-10.19.18-7.34-7.15,1.1-2.83,2.31-6.49,3.31-9.33.29-.84,3.26-9.94,3.42-9.91"/><path class="g" d="M240.32,185.57a34,34,0,0,1-2.56,6.13,1.12,1.12,0,0,1-.43.48,1.05,1.05,0,0,1-.61,0l-5.48-.92a.47.47,0,0,1-.3-.14c-.13-.17,0-.42.16-.59,3.2-3.8,4.44-8.77,5.78-13.47.26-.92.44-2.71,1-3.46.72-.92,1.91-.5,3-.21,1.83.48,2.63,1.29,2.24,3.28a66.91,66.91,0,0,1-2.84,8.88"/><path class="g" d="M222.92,187.29a.7.7,0,0,1-.31.49.6.6,0,0,1-.35,0L213.44,186q3.18-8.62,5.58-17.52c-.05.26,5.25,2.33,5.76,2.58,1.31.65,2,1.14,1.86,2.74-.49,4.43-2.53,9.19-3.72,13.5"/><path class="g" d="M197.83,176.31a16.66,16.66,0,0,1-1.88,4.11,52,52,0,0,0,7,3.64c.6-6.34,4.6-12,5-18.38,0,0-4-.54-4.42-.59-1.85-.24-1.76,0-2.38,1.8-1.09,3.15-2.19,6.28-3.3,9.42"/><path class="h" d="M214.2,180.42c-.12-1.67-1.5-3.14-2.37-4.48-15.29-23.44-26.79-48.8-36.12-75.14-2.49-7-4.58-16.09-6.66-24A112.28,112.28,0,0,1,166.72,64"/><path class="h" d="M208.28,184.3c-9-9.21-16.19-25.34-21.3-36.72-10.37-23.11-15.83-43.61-21.75-68.22a54.08,54.08,0,0,1-1.94-10.66"/><path class="h" d="M199.52,186.85c-2-1.49-6.13-7.48-7.1-9.4-4.79-9.57-9.2-18.43-13-28.43a313.8,313.8,0,0,1-18.8-80.44"/><path class="h" d="M211.67,173.33c.25-.07.33-.18.58-.09-4.19,0-8.42,2-12.52,2.82-2,.39-5.84,1.25-7.37.62"/><path class="h" d="M205.64,164c-4.62,2.07-11.87,3.75-17.44,3.37"/><path class="h" d="M201,155.08a11.94,11.94,0,0,0-2.66.83,39.59,39.59,0,0,1-8.69,1.72c-2.18.14-4.47,0-6.55.08"/><path class="h" d="M195.66,146.37c-2.94,3.08-13.7,4.16-17.59,3.12"/><path class="h" d="M191.14,136.8c-1.33,1.41-7.57,1.89-10.06,2.45-1.41.31-4.46,1.24-5.3,1"/><path class="h" d="M186.65,128.08c.54.46-1.38.49-2.11.67-2.14.54-4.21,1.17-6.38,1.58a43.43,43.43,0,0,1-5.15.92"/><path class="h" d="M183.7,119.91c-.72-.79-6.88,1.56-8.5,1.81s-3.52.41-5.21.73"/><path class="h" d="M179.49,110.83c-2.09,1.61-8.11,2.64-11.37,2.65a1.73,1.73,0,0,0,.78,0"/><path class="h" d="M176.19,102.37l.45-.49c-2,.36-9.48,3.72-10.71,2.55"/><path class="h" d="M174.8,95.6c1-.13-.67.2-.81.24-1.93.59-3.88,1.08-5.83,1.56-1,.25-2.93.62-3.51.7"/><path class="h" d="M172.24,89.39c.17-.17.37-.3.51-.47-2.75-.62-7.17,1-9.95,1.68"/><path class="h" d="M171.62,82c.59-1.15-6.33.21-7.32.21a14.6,14.6,0,0,1-3.68-.4"/><path class="h" d="M168.85,73c.2-.13.35.08.45-.23-2.32.16-4.54.94-6.93,1-.94,0-1.44-.34-2.28.14"/><path class="i" d="M93.8,71.92s-25.3,78-26.45,77.88-6.13.13-5.6-1.08S91.28,71.43,91.28,71.43Z"/><polygon class="i" points="229.39 186.37 263.84 98.16 261.47 96.1 224.41 185.07 229.39 186.37"/><path class="i" d="M183.57,6.68c-.16.84-60.78,198.89-61.62,198.72s-7.2,2.82-7.2,2.82-5.35-2.94-4.87-4.79S182.13,6.35,182.13,6.35Z"/><path class="i" d="M221,244.27c-1,1.39-1.91,4.61-2.86,6-5.4,8-10.75,15.24-18.57,20.92s-17.27,9.43-26.94,9.28C138.17,280,103.46,269.08,76,248.27c-7.21-5.48-11.81-13.67-15.72-21.85C52,209.08,48.79,190.79,44.72,172a119.69,119.69,0,0,1-2.51-18,22.31,22.31,0,0,1,.31-6.73,2.39,2.39,0,0,1,1-1.63,2.45,2.45,0,0,1,1.34-.16c3.75.34,7.16,2.21,10.62,3.69,6.08,2.59,12.82,4.68,19.42,4.92a100,100,0,0,0-2.13,10.44,34.55,34.55,0,0,0-.13,12.25c1.41,6.75,6.12,12.44,11.7,16.48,7.49,5.41,16.53,8.23,25.56,10.14,5.78,1.22,12.57,2.48,18.46,2s22.46.14,26.17-4.46c3.58-4.44,3-7.1,8.68-7.94"/><path class="j" d="M269,163.24c-.5-4.59.26-7.08,2.33-11.2.12-.25.24-.49.37-.73,0,0-5.06-4.19-4.67-4.91,0,0,6.69,1.18,7.14.4A97.35,97.35,0,0,1,299,118.63a130.65,130.65,0,0,0-39.3-17c-4.81-1.2-12.81-3-17.72-2.21-2.65.41-11.71,5.21-17.52,11.26-.36.37,1.4,3.89,1.4,3.89.4,0-4.11-1-4.38-.75A58.47,58.47,0,0,0,208.21,141c14.54-1.62,29,3,42.52,8.69A50.83,50.83,0,0,1,269,163.24"/><path class="j" d="M76.47,93c3.72-6.46,7.91-12.8,13.67-17.54-5.08-1.37-10.48-.82-15.65.15a102.72,102.72,0,0,0-26.33,9.2l3.15,3.35c-1.28.72-7.37-.89-8.6-.1-2.15,1.39-4.24,2.89-6.25,4.48a70.33,70.33,0,0,0-23.63,34,79.26,79.26,0,0,1,35.09,6.69,47.35,47.35,0,0,1,14.36,9.93c1.32-2.92.1-8.55.44-12a74.41,74.41,0,0,1,2.75-13.54A116.44,116.44,0,0,1,76.47,93"/><path class="j" d="M194.67,74.56c4.9-7.35,11.42-13.62,18.36-19.33C195.91,48,176.77,46.05,158.8,41.1c-.92-.26-1.43-1.09-2.38-1-1.31.12-2.72-3.15-3.74-2.38-4.15,3.12-6.56,7.15-9.87,11.06a7.86,7.86,0,0,0-2.14,3.9,11.17,11.17,0,0,0,2.26,3.55l-4.73.34a11.36,11.36,0,0,0-3,3.69l-9.39,15.64c11.38,1.45,22.35,5,32.81,9.53,10,4.32,19.39,10.84,29.49,14.73a18.49,18.49,0,0,1,0-11.4,49.35,49.35,0,0,1,6.62-14.21"/><path class="j" d="M152.68,37.73c1.87,10.72,18.47,11,28,15.33,5.2,2.36,10.64,4.48,16.34,5,4.06.4,16-2.87,16-2.87-2.63-4.71-14-11.8-18.82-13.91a67.5,67.5,0,0,0-41.53-3.59"/><path class="i" d="M204.25,139.33a7.08,7.08,0,0,0-.77,3.32,59.91,59.91,0,0,1,26.43,1,96.59,96.59,0,0,1,24.5,10.3,68.51,68.51,0,0,1,15.71,11.73l2.76-3.25c-5.2-3.11-11.1-6.33-16.3-9.45a134.94,134.94,0,0,0-12.3-6.78c-12.29-5.67-26.49-6.75-40-6.83"/><path class="i" d="M186,100.25c-18.42-11.93-39.06-21-60.85-23.56.13-1,.26-2.11.4-3.16,0,.08,26.43,7.13,28.81,8,9.69,3.52,19.23,8.55,28.55,13,1.47.69,6.51,2.18,7.12,3.7Z"/><path class="k" d="M57.1,233.38a36.68,36.68,0,0,0,3.62,3.4,85.16,85.16,0,0,0,17.33,13c-10.57-14.06-17.32-32.3-20.16-48.61Q54,178.55,51.35,155.73a7.48,7.48,0,0,0-.75-3,7.37,7.37,0,0,0-2.79-2.42c-7.33-4.4-15.93-8.14-24.21-6a6.13,6.13,0,0,0-2.93,1.44,6.74,6.74,0,0,0-1.47,3,42.79,42.79,0,0,0-1.51,15c.22,2.74.75,5.6,2.5,7.71a13.91,13.91,0,0,0,6.36,3.82c3.15,1.1,6.74,1.85,9.72.35,3.41-1.72,4.83-5.75,5.94-9.4,4.52,23.62,9.43,42.18,14.89,67.15"/><path class="l" d="M42.44,166.82a29,29,0,0,1,.19-4.06c.07-1.34.61-2.8,0-3.63a7,7,0,0,0-1.26-1.31,12.36,12.36,0,0,0-1.55-1.14,13.29,13.29,0,0,0-3.47-1.53,9.05,9.05,0,0,0-3.58-.37,1.9,1.9,0,0,0-1.19.68,5.89,5.89,0,0,0-.76,1.55,38.27,38.27,0,0,0-2,7.62l-.46-.79a24.15,24.15,0,0,1,5.91,3.77l-.67.08a12.26,12.26,0,0,0,2.9-5.66,11,11,0,0,1-2.15,6.27.47.47,0,0,1-.63.1l0,0a28.35,28.35,0,0,0-5.9-3.14.72.72,0,0,1-.47-.74v-.05a32.21,32.21,0,0,1,1.82-8,6.84,6.84,0,0,1,1-2.05,3.7,3.7,0,0,1,2.24-1.28,7.3,7.3,0,0,1,2.29,0,12.47,12.47,0,0,1,2.09.5,13.38,13.38,0,0,1,3.79,1.91,14.29,14.29,0,0,1,1.62,1.37,7,7,0,0,1,1.36,1.73,3.28,3.28,0,0,1,.16,2.31l-.52,2c-.33,1.3-.57,2.62-.81,3.95"/><path class="m" d="M181.61,4.16c1.24-.22,4.29.42,4.32,2.19s-3.72.7-4.48.32c-.59-.3-2-1-1.45-2s2.08-.59,2.74-.56"/><path class="n" d="M90.8,70.06c1.25-.21,4.29.42,4.32,2.2s-3.72.69-4.47.32-2-1-1.45-2S91.27,70,91.94,70"/><path class="n" d="M261.58,94.86c1.26-.15,4.26.65,4.2,2.43s-3.76.49-4.49.07-1.93-1.15-1.34-2.11,2.11-.47,2.77-.41"/><path class="g" d="M175.48,175.86c-1.81,1.2-4.6,1-6.35,2.45a8.73,8.73,0,0,0-1.63,2.6c-1.11,2-2.29,4-3.59,5.89-3,4.52-6.42,9.1-10.77,12.34a25.76,25.76,0,0,1-6.76,3.85c-1.79.63-4,1.06-9.7,1.83,10.57,3.41,25.68-.51,33.15-9.12,3.93-4.54,7.23-9.78,7.36-16,0-.69.39-3.29-1.71-3.86"/><path class="o" d="M195.79,181.15c0-.12-8.65-1.21-9.68-1.36-1.32-.21-4.91-1.49-5.92-.52a5.68,5.68,0,0,0-.72,1.41c-.53,1-1.15,1.95-1.74,2.92a73.92,73.92,0,0,1-4.35,7c-3.58,4.67-7.87,9.62-12.93,12.58-3.52,2.06-7.58,2.62-11.51,3-2.06.19-4.13.27-6.19.43-.52,0-1.87-.13-2.1.42a12.65,12.65,0,0,0,3.16,1.26,72.62,72.62,0,0,0,8.51,1.77c11.57,2,23.63-4,32.51-11.3,4-3.28,8.13-7.22,10.73-11.82.41-.74,2.34-3.92,1.84-5.06-.33-.77-1.45-.53-1.61-.7"/><path class="o" d="M260.39,231.83c-2.08.77-3.69,2.57-5.44,3.92-2.27,1.74-4.64,3.36-6.91,5.09-2.46,1.85-3.32.94-6.29.4-4.28-.78-8.84-1.17-13.13,0-2.46.68-5.14,1.56-7,3.4s-3.21,4.49-5.19,5.86c-.58-.8-.51-2.1-.55-3.1a40.59,40.59,0,0,1,2.63-16.62c3.73-9.25,17.45-15.6,26.61-13.63,7,1.51,16.22,7.66,15.3,14.66"/><path class="i" d="M274,202.68a9.56,9.56,0,0,1-1.05,2.47c-1.81,3.64-3.47,7.45-5.07,11.18-2.27,5.31-5.16,10.47-7.7,15.6-9.66.67-20.68-4.43-30.31-1.13-4.56,1.56-7.53,6.73-9.47,11-.65,1.45-2,7.93-3.37,8.7-2.35,1.34-9.53-2.72-11.39-3.63-10.57-5.16-20-12.21-29.29-19.38-4.47-3.44-10.06-6.69-13.7-10.91,7-1.08,12.84-4.9,19.52-7.81,5-2.18,11.93-4.55,15.52-8.72a56.63,56.63,0,0,0,9.05-13.68c9.22,1.65,18.61,3.15,27.83,5.63,13.14,3.54,26.3,7.21,39.43,10.65"/><path class="k" d="M226.69,159.42c24.31,5.11,47.45,9.89,71.76,15a4.07,4.07,0,0,1-.61,1.28l-4,5.81a5.5,5.5,0,0,1-2.1,2.1,5.19,5.19,0,0,1-3.51-.17q-28.29-8.1-57.16-14-1.87,8.18-3.74,16.36c-4.17-1.27-10.2.17-7.34-7.16,1.1-2.82,2.3-6.48,3.3-9.33.3-.84,3.26-9.94,3.42-9.9"/><path class="k" d="M280.71,190.12a35.14,35.14,0,0,1-2.57,6.13,1.12,1.12,0,0,1-.43.48,1.15,1.15,0,0,1-.61,0l-5.48-.93a.42.42,0,0,1-.3-.13c-.13-.17,0-.42.16-.59,3.2-3.8,4.44-8.77,5.78-13.47.26-.93.44-2.72,1-3.47.72-.92,1.91-.5,3-.2,1.84.48,2.63,1.29,2.24,3.27a68,68,0,0,1-2.83,8.89"/><path class="k" d="M263.3,191.83c-.05.2-.12.42-.31.49a.53.53,0,0,1-.35,0l-8.82-1.79c2.12-5.74,4-11.59,5.58-17.51,0,.25,5.26,2.32,5.76,2.57,1.31.66,2,1.14,1.87,2.75-.5,4.42-2.54,9.19-3.73,13.49"/><path class="p" d="M238.21,180.86a16.83,16.83,0,0,1-1.88,4.11,53.18,53.18,0,0,0,7,3.64c.6-6.34,4.6-12,5-18.39,0,0-4-.53-4.42-.58-1.85-.24-1.76,0-2.38,1.8q-1.63,4.71-3.3,9.42"/><path class="g" d="M203.75,178.32c-.38-.88-5.92,0-6.8.26-1.66.56-2.59,3.84-3.53,5.32a63.85,63.85,0,0,1-5.28,6.46,44.14,44.14,0,0,1-7,7,62.56,62.56,0,0,1-16.93,9.33,42.36,42.36,0,0,1-10.5,1.88,29,29,0,0,1-5.18.14c-4.72-.45-19.51-1.63-20.13-1.54,2,1.11,22,4.49,24.26,5,8.06,1.72,17.36-2,24.79-5.34A51.74,51.74,0,0,0,191.53,198a44.54,44.54,0,0,0,9-12c1-1.81,3.39-5,3.24-7.68"/><path class="k" d="M195.31,180.19a16.24,16.24,0,0,1-2.67-.46c-1.81-.33-3.6-.7-5.38-1.18-3.55-1-7.17-1.81-10.75-2.6-.55-.12-.84-.36-1.28,0-1,.67-1.56,3.34-2,4.4-2.8,6.48-6.64,13-11.93,17.67a32.05,32.05,0,0,1-9.8,6.06c-3,1.13-7.85,1-15.7.77a75.81,75.81,0,0,0,11.5,1.81,37.34,37.34,0,0,0,29.25-13.49c1.75-2.11,3.44-4.44,5-6.72a22.08,22.08,0,0,1,3-4c1.23-1.14,1-2.26,3.65-2a30,30,0,0,1,4.55.88c2.43.73,2.08-.07,2.62-1.13"/><path class="k" d="M278.58,205.49c1.71-3,5.15-6.39,6.3-9.74-8.57-1.82-18-5-26.78-6.74-13.13-2.57-26.21-5.42-39.31-8.1-3.53-.71-15.62-3.22-15.95-2.74-1.54,2.26-3.33,5.93-5.07,8.19a57.8,57.8,0,0,1-10.72,10.91,65,65,0,0,1-18.76,10.17c-6.46,2.12-12.71,2.56-19.38,2.86-3.62,0-35.74.44-36.33,1.55,42.53,12.3,52.91,4.91,61.29,2.53,11.18-3.17,20.06-9.45,27.74-18.13a47.93,47.93,0,0,0,4.5-6.35c.31-.49.52-1.3,1-1.65,1.61-1.09,5.26.37,7.07.72,12.3,2.43,24.23,5.85,36.32,9.09,8.85,2.38,19.48,4.82,28,7.43"/><path class="m" d="M155,232.89c.25-.87,1.47-1.69,2.22-2.16a10.59,10.59,0,0,1,8.39-1.26c9.11,2.93,11.81,14.76,5.23,20.61-2.22,2-5.47,3.58-8.74,2.95a11.86,11.86,0,0,1-6.5-3.91c-3-3.42-3.22-8.29-2.2-12.26a22.66,22.66,0,0,1,1-3.11,3,3,0,0,1,1.09-1.5"/><path class="q" d="M156.74,237.24c1-2.34,3.61-3.33,6.25-3.06,2.37.23,5.16,1.6,6.09,3.79a8.27,8.27,0,0,1-1,7.54c-2,2.59-6.65,4.13-9.55,1.53-2-1.81-2.35-4.11-2.4-6.53a6.27,6.27,0,0,1,.56-3.27"/><path class="r" d="M151,243.73a1.82,1.82,0,0,1,.77,0l3.35.32c3,.27,5.94.59,8.91.86a2.74,2.74,0,0,0,2.61-.77,4.09,4.09,0,0,0,.31-5.38c-1.25-1.54-3.11-1.52-5-1.51s-3.66.14-5.49.21c-1.29.05-2.59.1-3.89.1a10.9,10.9,0,0,0-2.14,0c-.31.07-.29.06-.34.36a14.31,14.31,0,0,0,.06,2.53c0,.75-.16,2.56.81,3.24"/><path class="s" d="M151.12,236.7c.52-.13,1,.85,1.14,1.19a5.79,5.79,0,0,1,.1,4.31,3,3,0,0,1-3.13,2.14c-1.06-.19-1.48-1.4-1.62-2.27-.27-1.68,0-4.49,1.76-5.44,1-.55,1.68-.08,2.38.6"/><path class="q" d="M151,238.32c.32.22.36,1.06.39,1.39a5,5,0,0,1-.55,2.67c-.68,1.33-1.84.15-2.08-.84s0-2.83,1.1-3.35a1.28,1.28,0,0,1,.88-.15c.37.12.44.48.64.73"/><path class="m" d="M117.07,228.36c.25-.87,1.47-1.69,2.22-2.17a10.58,10.58,0,0,1,8.39-1.25c9.11,2.93,11.81,14.76,5.24,20.61-2.23,2-5.47,3.58-8.74,2.95a11.91,11.91,0,0,1-6.51-3.92c-3-3.42-3.22-8.28-2.2-12.26a22.53,22.53,0,0,1,1-3.1,3,3,0,0,1,1.09-1.5"/><path class="q" d="M118.85,232.71c1-2.34,3.61-3.33,6.25-3.07,2.38.24,5.16,1.61,6.09,3.8a8.27,8.27,0,0,1-.95,7.54c-2,2.59-6.65,4.12-9.55,1.53-2-1.81-2.35-4.12-2.4-6.54a6.35,6.35,0,0,1,.56-3.26"/><path class="r" d="M113.07,239.19a1.63,1.63,0,0,1,.76,0l3.35.32c3,.27,5.94.58,8.92.86a2.75,2.75,0,0,0,2.6-.77,4.08,4.08,0,0,0,.31-5.38c-1.25-1.54-3.11-1.52-5-1.51s-3.66.14-5.48.21c-1.3,0-2.6.1-3.9.09a11.73,11.73,0,0,0-2.14.06c-.31.06-.28.05-.34.35a14.43,14.43,0,0,0,.07,2.54c0,.75-.17,2.56.81,3.23"/><path class="s" d="M113.23,232.17c.52-.13,1,.84,1.14,1.18a5.87,5.87,0,0,1,.11,4.32,3,3,0,0,1-3.14,2.13c-1.06-.18-1.48-1.39-1.62-2.27-.26-1.67.06-4.48,1.76-5.44,1-.55,1.69-.07,2.39.6"/><path class="q" d="M113.15,233.78c.32.22.36,1.07.39,1.39a5,5,0,0,1-.55,2.68c-.68,1.33-1.84.15-2.08-.85s0-2.82,1.1-3.34a1.32,1.32,0,0,1,.89-.15c.37.12.43.47.63.73"/><path class="m" d="M81.16,213.32c.26-.87,1.48-1.69,2.22-2.16a10.62,10.62,0,0,1,8.4-1.26c9.1,2.93,11.8,14.76,5.23,20.61-2.22,2-5.47,3.58-8.74,3a11.87,11.87,0,0,1-6.51-3.91c-3-3.42-3.21-8.29-2.19-12.26a21.38,21.38,0,0,1,1-3.11,3,3,0,0,1,1.08-1.5"/><path class="q" d="M83,217.67c1-2.34,3.6-3.33,6.25-3.06,2.37.23,5.15,1.6,6.08,3.79a8.26,8.26,0,0,1-.94,7.54c-2,2.59-6.66,4.13-9.55,1.53-2-1.81-2.36-4.11-2.4-6.53a6.27,6.27,0,0,1,.56-3.27"/><path class="r" d="M77.16,224.16a1.81,1.81,0,0,1,.77,0l3.35.32c3,.27,5.94.59,8.91.86a2.75,2.75,0,0,0,2.61-.77,4.08,4.08,0,0,0,.3-5.38c-1.25-1.54-3.1-1.52-4.95-1.51s-3.66.14-5.49.21c-1.3.05-2.6.1-3.9.1a10.82,10.82,0,0,0-2.13.05c-.31.07-.29.06-.34.36a13.42,13.42,0,0,0,.06,2.53c0,.75-.16,2.56.81,3.24"/><path class="s" d="M77.33,217.13c.52-.13,1,.85,1.13,1.19a5.79,5.79,0,0,1,.11,4.31,3,3,0,0,1-3.13,2.14c-1.06-.19-1.48-1.4-1.62-2.27-.27-1.68.05-4.49,1.76-5.44,1-.55,1.68-.08,2.38.6"/><path class="q" d="M77.25,218.75c.32.22.36,1.06.39,1.39a4.93,4.93,0,0,1-.55,2.67c-.68,1.33-1.85.15-2.09-.84s0-2.83,1.11-3.35a1.28,1.28,0,0,1,.88-.15c.37.12.44.48.64.73"/><path class="k" d="M125.81,212.53c-4.79.51-9.76.55-14.33-.94-11.36-3.7-23.22-8.86-30.58-17.43S70.44,176,68.26,164.91a41.44,41.44,0,0,1-.91-7.92c-5.32-1.65-11-3.23-16.44-4.62-10.06-2.59-20.35-4.26-30.41-6.88-6.05-1.58-12-3.76-18-5.67-.63-4.51-1.08-9-1.32-13.6L20.72,133c7.39,2.58,14.78,5.16,22.28,7.42,11.1,3.35,22.23,6.61,33.55,9.13a46.07,46.07,0,0,0,13,41.48,28.22,28.22,0,0,0,3.84,3.15,39,39,0,0,0,4.1,2.29c5.11,2.6,10.82,4.33,16.17,6.37,4.69,1.78,29.23,7.37,36.13,7.37"/><path class="t" d="M177.27,12.18c1.84-1.33,5.16-.88,7.33-.79,2.62.1,7.34.57,9.24,2.69,1.5,1.68.16,4,.27,6,.15,2.84,3.5,2.85,5.64,3.33,2.79.63,5.65,1.19,8,2.85,1.64,1.14,4,3.05,4.68,5a14.53,14.53,0,0,0-10.63-1.76,7.48,7.48,0,0,1,2.5,2.14c1.23,1.49,3,3.6,3.25,5.58-1.41-.66-2.64-1.72-4.11-2.37A31.5,31.5,0,0,0,196,32.3c-2.8-.45-5.8-.19-8.39-1.54A4.92,4.92,0,0,1,185.07,28c-.42-1.28-.46-2.05-1.75-2.8-3-1.73-6.32-1.48-9.55-.92,1.08-2,1.41-4.64,2.07-6.84.46-1.51.89-4,1.43-5.28"/><path class="j" d="M190.94,108.73A49,49,0,0,0,174.17,136a13.43,13.43,0,0,0-6.16.61,9.59,9.59,0,0,0,5.2,2.53,67.61,67.61,0,0,0-2.51,10.68L162.44,148c1.27,2.2,4.18,4.1,6.61,5.36-3.88,8.29-3.43,16.65.08,25.1-21.41-15.72-48.79-20.32-75.09-24-2.22-.31-4.44-.62-6.65-1-1.84-11.71,1.94-24.76,5.09-36.18l5,.68-2.76-4c-.14-1.47.44-1.69,1.12-3a51.9,51.9,0,0,1,25.75-23.34c24.16,3.27,47,11.41,69.37,21.16"/><path class="i" d="M82.22,148a21.33,21.33,0,0,0,1.44,5.77c4.93-.76,10.65.67,15.59,1.36a184.94,184.94,0,0,1,36.73,9c12.28,4.29,24.64,9.22,34.11,18.14a17.38,17.38,0,0,0,3.57-4.08,198,198,0,0,1-21-9.68C137,160.38,119.55,156.38,102.41,152c-7.35-1.9-15.27-4.64-20.19-3.92"/><path class="e" d="M121.6,133a1.73,1.73,0,0,1-1-2.05c.14-1.28.29-2.55.43-3.83l-3-1.21a7.26,7.26,0,0,0-.5,4.14,2.72,2.72,0,0,0-3.14,1.08c-.55,1.06.46,2.67,1.6,2.32a4.07,4.07,0,0,0,.67-.31c1.91-.88,3.92.88,5.33,2.44a111.58,111.58,0,0,0,15.26,14c-.46,3.94.14,5.36.95,5.3,1.58-.11.76-.29,2.29.11,1.08-.5-.4-2.39-.67-3.73,0-.19.21-.5.31-.67.22-.42,1.72.41,2.18.53a2.06,2.06,0,0,0,2.39-2.45,1.24,1.24,0,0,0-.57-.77,1.87,1.87,0,0,0-1.28,0,18,18,0,0,1-4.77.39c-1.73-1.6-4.68-4.16-6.47-5.69-3.53-3-6.23-6.9-10-9.61"/><path class="e" d="M121,140.34c-1.65.06-3.55.27-4.46,1.65-.46.7-.62,1.67-1.35,2.1a1.61,1.61,0,0,1-2.25-1.32,2.09,2.09,0,0,1,2-2,2.24,2.24,0,0,1,.58-4.45,1.72,1.72,0,0,1,.89,2.34c5.65,1.78,11.77-1,17.66-.4a11.35,11.35,0,0,0,4.18.14c1.75-.48,3-2,4.44-3s3.87-1.39,4.83.14l-3,2.63A2,2,0,0,1,145,142a5.12,5.12,0,0,1-1.64-1.73c-3.94-.35-7.5.08-10.53,0q-5.9-.12-11.79.08"/><path class="e" d="M153.4,108.06,132.65,100a1.72,1.72,0,0,0-1.54-.08,1.86,1.86,0,0,0-.63,1l-5.79,16.3a4.07,4.07,0,0,0-.33,1.71c.18,1.57,3,2.87,4.45,3.09-.08,1.26-1,5.34-1,5.34a5.15,5.15,0,0,0,2.14,1c.54-1.33.9-3.8,1.44-5.13.62,0,1.56.71,2.18.72-.54,1.45-1.1,3.81-1.64,5.27.81.51,1.28.15,2.08.67.49-.92,1.52-4.24,2-5.15,0,0,5.5,1.93,7.1,1.75,1.84-.21,2.42-3.19,3.16-4.77.57-1.21,6.52-13.86,7.08-13.64"/><path class="j" d="M141.32,112.75a.83.83,0,0,0-.43.15.93.93,0,0,0-.23.37,23.36,23.36,0,0,0-.83,2.44,3.36,3.36,0,0,0-.15,1.66,2.41,2.41,0,0,0,1.26,1.49,7.17,7.17,0,0,0,1.92.61,1.53,1.53,0,0,0,1,0,1.56,1.56,0,0,0,.63-.73c.9-1.65,2.43-4.12,2.07-6.11-.13-.66-.21-.48-.8-.32a8.5,8.5,0,0,1-1.41.25c-1,.09-2,0-3,.19"/><path class="j" d="M136.78,111.62a.36.36,0,0,1,.07.17.36.36,0,0,1-.11.25A8.81,8.81,0,0,0,135.2,115a.48.48,0,0,1-.17.3.44.44,0,0,1-.28,0l-3-.23a2,2,0,0,1-.72-.15,1.39,1.39,0,0,1-.66-.77,3,3,0,0,1,.06-2.22,8.87,8.87,0,0,1,1.12-2l.9-1.32c.63-.92,1.42-1.46,2.13-.4s1.47,2.24,2.2,3.36"/><path class="j" d="M134.66,120.62a3.26,3.26,0,0,1,1.56.95c.09.08.22.16.31.09a.14.14,0,0,0,.07-.1,3.88,3.88,0,0,0,.21-2,5.37,5.37,0,0,0-.33-2c-.8.45-1.39,2.27-1.82,3.05"/><path class="j" d="M134.13,120.25c-.06.12-.14.27-.28.3a.56.56,0,0,1-.25,0l-.68-.26c-.08,0-.18-.09-.19-.18s.07-.13.12-.17a23.88,23.88,0,0,0,2.68-2.64,20.33,20.33,0,0,1-1.4,3"/><path class="u" d="M270.84,209c-3.39-2-8.86-2.44-12.75-3.13-7.79-1.39-15.49-3.24-23.22-4.86-7.41-1.55-14.77-3.35-22.15-5-3.69-.85-4.9-1.83-8.66-2.21"/><path class="u" d="M265.88,218.54c-13.88-2.79-27.78-6.32-41.59-9.44-9.35-2.12-18.65-5.42-28-7.14"/><path class="u" d="M262.23,227.22c-4.74.88-11.59-2.2-16.16-3.24-9.53-2.18-19-4.9-28.53-6.94-10-2.14-22.27-5.47-32.36-7.31"/><path class="u" d="M230,230.49a440.22,440.22,0,0,1-58.93-14.22"/><path class="u" d="M67.43,164.34c-5.07-1.73-10.3-3-15.37-4.73"/><path class="u" d="M70.14,175.87c-5.29-2.06-10.92-3-16.35-4.53"/><path class="u" d="M74.43,186.8c-6.55-2.13-13.08-4.32-19.49-6.86"/><path class="u" d="M98.74,207.57C83.61,202.73,70.48,198,56.19,191"/><path class="u" d="M220.86,238.84c-33-.73-65-14.38-96.28-23.48"/><path class="u" d="M79.47,214.39a185.86,185.86,0,0,1-21-9.94"/><path class="u" d="M116.7,226.36c-5-1.38-10-2.8-15-4.31"/><path class="u" d="M152.49,236.63c-5.42-1.75-10.89-3.36-16.37-4.91"/><path class="u" d="M217.79,249.12c-12.8,1.9-30-3.57-42.46-6.51"/><path class="u" d="M79.69,227.62c-5.06-1.75-10.08-3.65-15-5.73"/><path class="u" d="M108.92,236.51c-4.65-1.28-9.29-2.59-13.92-4"/><path class="u" d="M156.66,250.26c-7.09-2.4-14.25-4.55-21.45-6.58"/><path class="u" d="M210.47,260.53c-13.47,1-29.58-4.51-42.58-7.56"/><path class="u" d="M198.68,271c-45.47-3.47-88.29-18-127.92-34.21"/><path class="u" d="M181.23,279.69c-36.12-2.48-71.13-13.86-103.13-30.51"/><path class="e" d="M76.51,214a15.42,15.42,0,0,1-1.4-1.4A9.59,9.59,0,0,1,74,211h.2c-.23.72-.25,1.49-.44,2.26a2.8,2.8,0,0,1-1.44,1.9,5.06,5.06,0,0,1-2.35.42c-.78,0-1.55-.09-2.29-.05l.11-.48a7.67,7.67,0,0,1,2.1,1.47,4.93,4.93,0,0,1,1,3.75,2.17,2.17,0,0,1-.7,1.21,9.08,9.08,0,0,1-2.27,1.17l-.06-.51a13.88,13.88,0,0,1,2.69.88q.64.28,1.26.63a1.72,1.72,0,0,1,1,1.21,7.22,7.22,0,0,1-.5,2.82,13.3,13.3,0,0,0-.7,2.65l-.27-.11a5.34,5.34,0,0,1,2.44-1.53,4.57,4.57,0,0,1,1.42-.21,2.29,2.29,0,0,1,1.34.42,2.19,2.19,0,0,0-1.34-.34,4.3,4.3,0,0,0-1.37.29,5.35,5.35,0,0,0-2.26,1.56.14.14,0,0,1-.21,0,.18.18,0,0,1-.06-.13,14.64,14.64,0,0,1,.63-2.73,7.26,7.26,0,0,0,.41-2.62,1.23,1.23,0,0,0-.73-.86q-.6-.33-1.23-.6a13,13,0,0,0-2.59-.82.26.26,0,0,1-.21-.31.31.31,0,0,1,.15-.2A9,9,0,0,0,69.79,221a2.19,2.19,0,0,0,.54-2.05,3.7,3.7,0,0,0-.82-2.13,7.11,7.11,0,0,0-2-1.37h0a.25.25,0,0,1-.09-.34.25.25,0,0,1,.21-.13c.8,0,1.57.07,2.32.1a4.76,4.76,0,0,0,2.17-.31,2.47,2.47,0,0,0,1.3-1.64A22,22,0,0,1,74,210.9h0a.11.11,0,0,1,.14-.06.1.1,0,0,1,.06,0,9.8,9.8,0,0,0,1,1.68A16.29,16.29,0,0,0,76.51,214"/><path class="v" d="M158.55,267.34c.58-1.81,8.72-7.34,9.07-5.9.08.34-.68,1.64-.8,2a23.36,23.36,0,0,0-.89,3.38,14.24,14.24,0,0,0,.22,6.43,9.56,9.56,0,0,1-2.66-2.38,5.79,5.79,0,0,1-1.13-2.24c-.07-.27,0-.94-.22-1.12-.87-.73-3.24.89-4,1.22a3.5,3.5,0,0,1,.45-1.4"/><path class="v" d="M163.12,267.18c-1.7.63-2.12,5.77-2,7.22a16.47,16.47,0,0,0,3.14,7.74,9.21,9.21,0,0,0-1.74,1.06,13.37,13.37,0,0,1-3.23-11.62c.4-1.71,1.39-6.38,3.74-6.6,2-.18.19,2.08.06,2.2"/><path class="v" d="M179.25,293.38c1.89-.2,8.95-7.05,7.61-7.69-.31-.15-1.74.34-2.13.38a23.94,23.94,0,0,1-3.49.18,14,14,0,0,1-6.25-1.51,9.38,9.38,0,0,0,1.8,3.09,5.74,5.74,0,0,0,2,1.56c.25.12.92.19,1.05.44.54,1-1.53,3-2,3.71a3.44,3.44,0,0,0,1.47-.16"/><path class="v" d="M179.38,287.78c-1,1.53-6.08.91-7.47.47a16.53,16.53,0,0,1-6.94-4.64,8.88,8.88,0,0,1-1.4,1.48,13.34,13.34,0,0,0,10.73,5.52c1.76-.05,6.54-.07,7.22-2.33.58-1.88-2-.61-2.14-.5"/><path class="v" d="M186.6,263a3.27,3.27,0,0,0-1.12.89c-.92.82-1.94,1.49-2.89,2.26l-4.71,3.83c-2.93,2.39-5.56,5.11-8.49,7.5-1.77,1.43-3.6,3.1-5.28,4.44-.62.49-1,0-1.63.2s-.41.95-.16,1.54c.51,1.17,1.87,2.37,3.2,1.82,1-.41,1-1.09,1.27-1.89a4.09,4.09,0,0,1,1.34-1.65c3-2.68,6.31-5,9.33-7.61,2.66-2.3,5.43-4.43,8-6.77a21.88,21.88,0,0,1,2.89-2.65c.78-.47,1.81-.35,2.28-1.45.6-1.41-.71-2.47-2.09-2.2a3.17,3.17,0,0,0-2,1.74"/><path class="v" d="M182,268.55c1.87,2.57,3.82,5.09,5.89,7.49,1,1.21,1.76.6,2.86-.44a40,40,0,0,0-5.32-9.2l-.3-.35"/><path class="v" d="M182.26,268.91c-2.14-2.35-4.21-4.77-6.14-7.28-1-1.27-.23-1.84,1-2.72a40.18,40.18,0,0,1,7.94,7.07c.1.12.19.25.28.37"/><path class="v" d="M188.77,262a3.33,3.33,0,0,1,0-2.18,2.35,2.35,0,0,1,1.78-1.7c1.54-.29,3.41.68,3.38,2.39a3.08,3.08,0,0,1-1.68,2.76,1.79,1.79,0,0,1-1.74-.05c-.62-.44-.56-.28-1.06.28-.3.33-.5.36-.29.76a2.1,2.1,0,0,0,1.41.77,4.44,4.44,0,0,0,2.29-.05,6.42,6.42,0,0,0,2-1.25,4.22,4.22,0,0,0,1.07-4.51,4.42,4.42,0,0,0-3.73-3.14c-1.49-.3-2.56-.31-3.69.83a5.45,5.45,0,0,0-1.66,4.08c0,.58.15,1.63.77,1.88s1.69-.48,1.16-.87"/><path class="v" d="M161,266.79c0-.06.08-.12-.09-.13-.7.41-1,1.87-1.3,2.57a18.55,18.55,0,0,0-1,3.19,14.12,14.12,0,0,0-.05,6.4c.45,1.73,1.09,3.41,1.68,5.09.31.87.46,1.91.85,2.72.83-.07,1.78-1.27,2.35-1.81,1.31-1.24,2.77-2.33,4-3.63-.71.28-1.46.36-2.2.58,2.12-1,4-3.41,5.5-5.18-1.39.45-2.64,2-3.91,2.84-.68.43-1.7,1.05-2.53.78-1-.31-1.47-1.58-1.83-2.45a11.88,11.88,0,0,1-.82-6.32,24,24,0,0,1,.65-3c.2-.68.82-1.67.7-2.39-.22-1.3-2.23-.36-2,.74"/><path class="v" d="M180.43,290.61c0,.05.14-.06.11.11-.55.6-2,.62-2.78.75a18.55,18.55,0,0,1-3.33.37,14.11,14.11,0,0,1-6.28-1.24c-1.6-.79-3.12-1.76-4.65-2.69a28.33,28.33,0,0,1-2.49-1.37c.23-.8,1.61-1.49,2.25-1.94,1.48-1,2.84-2.24,4.37-3.19-.42.65-.66,1.36-1,2,1.41-1.88,16.27-14,18.31-15.14-.73,1.27-14.66,13-15.69,14.05-.56.59-1.38,1.45-1.28,2.32s1.25,1.76,2,2.29a12,12,0,0,0,6,2.08,24.18,24.18,0,0,0,3.07,0c.71-.06,1.8-.47,2.48-.2,1.23.48-.09,2.25-1.12,1.78"/><g class="w"><g class="x"><path class="y" d="M160.59,285.75c-1-2.79-2.23-5.59-2.53-8.58-.33-3.24.75-6.36,2.11-9.22a.07.07,0,0,0,0-.06c-.76,0-1.47,1-2.23.9-.25-1,1-2.23,1.57-2.91a15.94,15.94,0,0,1,3-2.5c.71-.5,1.43-1,2.15-1.46a5.12,5.12,0,0,1,2.44-.7c-.14.42-1,.68-1.35.93a9.81,9.81,0,0,0-2.18,1.5,6.11,6.11,0,0,0-1.76,2.71,11.08,11.08,0,0,1-.72,2.1,16.9,16.9,0,0,0-.76,2.54c-.3,1.1-1,2.18-.86,3.35s.49,2.18.61,3.29a9.85,9.85,0,0,0,.6,3.32,8.83,8.83,0,0,1,1.08,3.13,2.61,2.61,0,0,0,.31,1.35c-.49-.27-1.35.19-1.44.31"/></g></g><g class="w"><g class="z"><path class="y" d="M164.68,280.37a2.81,2.81,0,0,0,2.24,0,6.86,6.86,0,0,0,2-1.51c1.27-1.1,2.81-1.73,4-3,.58-.63,1.06-1.33,1.69-1.91a19.13,19.13,0,0,1,1.85-1.36,49.18,49.18,0,0,0,4-3.32c.58-.51,1.21-1,1.76-1.57a9.7,9.7,0,0,1,2-1.67,12.14,12.14,0,0,0,2.36-1.73l1.44-1.38c.15-.15.29-.22.31-.42-.39,0-.66-.48-1-.51s-.56.43-.72.63a9.32,9.32,0,0,1-1.17,1.18c-1,.86-2.08,1.63-3.12,2.43-.74.57-1.39,1.22-2.1,1.83s-1.52,1.28-2.29,1.91-1.86,1.38-2.71,2.14c-1.8,1.59-3.56,3.24-5.28,4.91a26.1,26.1,0,0,1-2.95,2.18c-.67.48-2.33,2-3.16,1.61"/></g></g><g class="w"><g class="aa"><path class="y" d="M176.06,259.91c.41-.64.59-1,1.3-.92a6.12,6.12,0,0,1,2.48,1.54c1.61,1.35,2.86,3,4.49,4.3-.35.11-1.21.76-1.57.67-.19-.05-.69-.93-.84-1.1-.46-.53-.92-1.06-1.39-1.57-.77-.83-3.14-3.25-4.47-2.92"/></g></g><g class="w"><g class="ab"><path class="y" d="M176.45,287.32a4,4,0,0,1-1.61-2.48,2.62,2.62,0,0,1,.78.32,6.36,6.36,0,0,0,1.27.37,27.66,27.66,0,0,0,3.21.65c1.41.11,2.81,0,4.22,0a9.41,9.41,0,0,0,1.76-.12,3.54,3.54,0,0,1,1-.23c-.1.4-.89.65-1.24.78s-.87.24-1.3.37a14.18,14.18,0,0,1-1.61.59,3.7,3.7,0,0,1-1.65-.22,7.31,7.31,0,0,0-1.81-.09c-.54,0-1.09.16-1.64.16a11.11,11.11,0,0,0-1.38-.07"/></g></g><g class="w"><g class="ac"><path class="y" d="M188,262.59c.17-.23-.19-.88-.25-1.13a3.14,3.14,0,0,1,.06-1.94c.42-1.14,1-2.25,2.25-2.54.38-.08.75-.26,1.14-.31a3.77,3.77,0,0,1,1.42.12,4.13,4.13,0,0,1,2.63,1.92,9.14,9.14,0,0,1,.41,1.47,7.25,7.25,0,0,0,.26,1.16c.23-.15.24-.77.2-1s-.16-.79-.23-1.18a3.85,3.85,0,0,0-2.14-2.69,5.2,5.2,0,0,0-3.94-.41,5.15,5.15,0,0,0-3,4.11,5,5,0,0,0,.2,2,.64.64,0,0,0,.5.51c.19,0,.42.11.47-.06"/></g></g><path class="ad" d="M190.47,261.78c.17-1,2.3-1.25,3.14-1.38a12.36,12.36,0,0,1,10.15,3.09c3.22,3.11,5.41,7.09,5.2,11.7-.23,5-3.46,10.35-9.18,9.41-6.42-1.06-5.84-8.26-1.87-11.87,4.42-4,10.14-3.88,15.67-3.1,14,2,27.42-4.66,26.77-18.55a16.38,16.38,0,0,0-2.1-7.44c-1-1.63-2.06-2-3.47-3.12,2-.76,2.67-.75,4.29.8,2.86,2.73,3.67,7.29,3.94,11.11,1,13.23-13.43,20.5-24.87,20.33-4.83-.07-9-1.74-13.88-.73-3.8.78-7.8,4.12-6.46,8.53,1,3.25,3.82,2.34,5.87.81,2.66-2,3.64-5.64,3.19-8.87-.53-3.71-4-7-7.1-8.72-2.34-1.3-6.86-2.46-9-.45a1.61,1.61,0,0,0-.29-1.55"/><path class="ae" d="M212.19,272.11a7,7,0,0,0,1.62-.09,4.69,4.69,0,0,0,1.36-.76,12.64,12.64,0,0,1,1.29-1.09,2,2,0,0,1,1.71-.21,2.7,2.7,0,0,0-1.47.58c-.38.31-.7.8-1.18,1.17a3.54,3.54,0,0,1-1.62.74,3.48,3.48,0,0,1-1.71-.34"/><path class="ae" d="M218.12,272.71a3.3,3.3,0,0,0,2.23-1.52,3.73,3.73,0,0,1,1.11-1.05,4,4,0,0,1,1.44-.46c-.4.3-.85.52-1.19.82a6.9,6.9,0,0,0-.91,1.06,4.2,4.2,0,0,1-1.17,1,1.69,1.69,0,0,1-1.51.15"/><path class="ae" d="M224.29,272.08a2.13,2.13,0,0,0,.82-.78,7,7,0,0,0,.4-1.07,2.67,2.67,0,0,1,.65-1.11,1.25,1.25,0,0,1,1.18-.48,1.57,1.57,0,0,0-.83.75,4.13,4.13,0,0,0-.45,1,3.36,3.36,0,0,1-.59,1.14,1.52,1.52,0,0,1-1.18.52"/><path class="ae" d="M229.75,270.25c.53.05.79-.37,1-.77a10.31,10.31,0,0,0,.5-1.32,5.33,5.33,0,0,1,.54-1.42,2.35,2.35,0,0,1,1.28-.86,3.73,3.73,0,0,0-.9,1.08c-.16.38-.21.89-.38,1.38a4.86,4.86,0,0,1-.66,1.38,1.84,1.84,0,0,1-.6.54.76.76,0,0,1-.77,0"/><path class="ae" d="M235.5,267.25a1.23,1.23,0,0,0,.85-1.06,6.5,6.5,0,0,0,.09-1.47,6.24,6.24,0,0,1,.06-1.6,2.89,2.89,0,0,1,.8-1.4,5,5,0,0,0-.36,1.47c0,.47.07,1,.08,1.52a4.29,4.29,0,0,1-.24,1.61,1.75,1.75,0,0,1-.49.71,1.07,1.07,0,0,1-.79.22"/><path class="ae" d="M240.8,261.62c0-.48.2-.95.18-1.35a1.79,1.79,0,0,0-.5-1.08,3,3,0,0,1-.7-1.3,1.8,1.8,0,0,1,.22-1.44,2.45,2.45,0,0,0,.2,1.3,4.43,4.43,0,0,0,.73,1.09,1.83,1.83,0,0,1,.49,1.46,4,4,0,0,1-.62,1.32"/><path class="ae" d="M243,254.36c-.15-.38-.29-.78-.55-.91a5,5,0,0,0-1.07-.21,1.28,1.28,0,0,1-.63-.38,2.42,2.42,0,0,1-.36-.56,1.63,1.63,0,0,1-.12-1.24,2.57,2.57,0,0,0,.5,1c.25.29.46.55.75.6a2.48,2.48,0,0,1,1.2.42,1.32,1.32,0,0,1,.28,1.26"/><path class="ae" d="M242.61,249.18a4.13,4.13,0,0,0-.56-1,2,2,0,0,0-.77-.68,6.79,6.79,0,0,0-1.11-.26,1.07,1.07,0,0,1-.58-.42,1.44,1.44,0,0,1-.19-.62c.25.35.52.61.86.6a3.07,3.07,0,0,1,1.25.18,1.85,1.85,0,0,1,.93,1,2,2,0,0,1,.17,1.26"/><path class="ae" d="M241,244a4.15,4.15,0,0,0-1-.77,2.45,2.45,0,0,0-1.15-.18,3.12,3.12,0,0,1-1.4-.13.87.87,0,0,1-.55-.57,1.69,1.69,0,0,1,0-.71,3,3,0,0,0,.24.6.52.52,0,0,0,.42.26,5.29,5.29,0,0,0,1.25,0A2,2,0,0,1,241,244"/><path class="ae" d="M206.19,271.74a2.43,2.43,0,0,0,1.15-.59c.31-.29.59-.63.9-1a3.1,3.1,0,0,1,1.19-.86,3.15,3.15,0,0,1,1.43,0,8.78,8.78,0,0,0-1.26.45,4.55,4.55,0,0,0-.94.84,5.39,5.39,0,0,1-1.06.94,1.77,1.77,0,0,1-1.41.23"/><path class="ae" d="M200.71,273.42c.25-.36.69-.55.83-.86a4.48,4.48,0,0,0,.31-1.1,3,3,0,0,1,.51-1.22,1.57,1.57,0,0,1,.52-.47.9.9,0,0,1,.66-.06,1.18,1.18,0,0,0-.8.75,6,6,0,0,0-.33,1.12,2.67,2.67,0,0,1-.52,1.24,2.76,2.76,0,0,1-1.18.6"/><path class="ae" d="M197.79,277a2.66,2.66,0,0,0,.09-1,4.27,4.27,0,0,0-.3-.94,2.69,2.69,0,0,1-.33-1.11,1.39,1.39,0,0,1,.58-1,1.93,1.93,0,0,0-.13,1,6.14,6.14,0,0,0,.41.92,2.38,2.38,0,0,1,.21,1.16,1.57,1.57,0,0,1-.53,1"/><path class="ae" d="M197.71,280.74a1,1,0,0,0-.6-.76,5.27,5.27,0,0,0-1-.26,1.83,1.83,0,0,1-1.07-.64,1.47,1.47,0,0,1-.27-.58.7.7,0,0,1,.21-.57.8.8,0,0,0,.38.84,1.9,1.9,0,0,0,.86.38,2.64,2.64,0,0,1,1.1.46,1.21,1.21,0,0,1,.38.52,1,1,0,0,1,0,.61"/><path class="ae" d="M200.9,282.68a1.65,1.65,0,0,0-.89.38,1.87,1.87,0,0,0-.3.33,1.61,1.61,0,0,1-.44.42,1.91,1.91,0,0,1-1.13.32,1.58,1.58,0,0,1-.57-.13,1.06,1.06,0,0,1-.42-.39,1.88,1.88,0,0,0,1.81-.27,1.49,1.49,0,0,0,.32-.3,1.72,1.72,0,0,1,.48-.37,1.18,1.18,0,0,1,1.14,0"/><path class="ae" d="M191.48,262.54c.36,0,.55-.22.72-.45a6.36,6.36,0,0,0,.47-.81,2.51,2.51,0,0,1,.65-.86,1.28,1.28,0,0,1,1.06-.18,2.15,2.15,0,0,0-.77.51,6,6,0,0,0-.43.81,2.75,2.75,0,0,1-.66.83,1.44,1.44,0,0,1-.5.28.59.59,0,0,1-.54-.13"/><path class="ae" d="M195.2,262.23a1.23,1.23,0,0,0,1-.31c.21-.23.4-.57.71-.88a2,2,0,0,1,1.15-.53,2.22,2.22,0,0,1,1.2.14,5.79,5.79,0,0,0-1.09.29,2.3,2.3,0,0,0-.86.52,6.59,6.59,0,0,1-.84.81,1.21,1.21,0,0,1-.65.18,1.35,1.35,0,0,1-.58-.22"/><path class="ae" d="M198.59,263a.74.74,0,0,0,.88.06,7.37,7.37,0,0,0,.82-.58,1.78,1.78,0,0,1,1.11-.43,2.73,2.73,0,0,1,1.09.33c-.38.08-.76,0-1.05.11a2,2,0,0,0-.81.46,2.9,2.9,0,0,1-1,.53,1.13,1.13,0,0,1-.63,0,.81.81,0,0,1-.39-.45"/><path class="ae" d="M201.82,265a1.22,1.22,0,0,0,.93.2,9.85,9.85,0,0,0,.95-.36,3,3,0,0,1,.55-.17,1.23,1.23,0,0,1,.66.06,4.86,4.86,0,0,1,.92.67c-.4,0-.75-.22-1-.24a2,2,0,0,0-.89.21,2.93,2.93,0,0,1-1.12.27,1.24,1.24,0,0,1-.6-.18,1.12,1.12,0,0,1-.36-.46"/><path class="ae" d="M204.5,267.64a3.09,3.09,0,0,0,.77.62,2.66,2.66,0,0,0,.88.23,8.28,8.28,0,0,1,1,.09,1.27,1.27,0,0,1,.54.31,1.09,1.09,0,0,1,.24.51,1.1,1.1,0,0,0-.85-.33,7.31,7.31,0,0,1-1,0,1.93,1.93,0,0,1-1.06-.45,1.65,1.65,0,0,1-.53-1"/><path class="ae" d="M206.82,273.32c.3.25.36.7.56.86s.46.16.91.32a1.24,1.24,0,0,1,.66,1.1,3.39,3.39,0,0,1-.14,1.11,10.23,10.23,0,0,1-.29-1,1,1,0,0,0-.47-.65c-.2-.11-.75-.14-1-.58s-.12-.77-.21-1.13"/><path class="ae" d="M206.41,277.33c.1.35.05.71.12,1a1.36,1.36,0,0,0,.45.67,2.21,2.21,0,0,1,.66.86.91.91,0,0,1,0,.61.77.77,0,0,1-.4.38.7.7,0,0,0,0-.81,5.09,5.09,0,0,0-.66-.62,1.37,1.37,0,0,1-.48-1.05,2.72,2.72,0,0,1,.31-1"/><path class="ae" d="M204.67,280.35a5.43,5.43,0,0,0-.43,1c-.08.28.07.46.25.84a1.36,1.36,0,0,1,.13.67,2,2,0,0,1-.16.6,2.16,2.16,0,0,1-.34.51.82.82,0,0,1-.56.23,1.25,1.25,0,0,0,.47-.88,2,2,0,0,0,0-.48.88.88,0,0,0-.1-.41,4.27,4.27,0,0,1-.22-.54.89.89,0,0,1,.08-.7,2,2,0,0,1,.84-.82"/><path class="g" d="M144.07,204.15c-1.33.19-2.23-.18-3.55.12a61,61,0,0,1-8.19.95c-2.73.15-4.24.29-7,.23-1.45,0-1.4-.1-2.85-.22-.63,0-1.07-.45-1.7-.35a24.54,24.54,0,0,0,4,.88c3.58.46,7.19.48,10.78.62a39.34,39.34,0,0,0,9-.69c1.76-.35,4.58-.41,6-1.7-1.61.22-3.27-.35-4.9-.24a3,3,0,0,0-1.65.4"/><path class="b" d="M40.22,227.16a5.23,5.23,0,0,1,.39,1.72"/><path class="b" d="M89.59,262.66c-.9-2-4.18-4.3-5.59-6.51-2.91-4.53-5.09-9.44-8.08-14-4.19-6.35-9.83-12-15-17.5a72,72,0,0,0-24.63-17.58c-4.14-1.75-9.13-3.28-13.65-3.14-2.66.08-7.22.87-8.92,3.18s.28,3.9,2.45,4.72c3.23,1.22,7.66,1,10.32,3.54.69.67,1.93,2.36,1.46,3.47s-2.43.85-3.47,1.06c-4.11.84-10,3.45-5.83,7.81,2.14,2.24,4.89,2.27,7.83,2.47,4.2.28,8.16.75,11.9,2.89,1.67.95,9.55,6.77,5.2,8.14-1.87.59-4.81-1.77-7.13-1.48s-4.67,1.78-2.84,4.17c2.71,3.53,10.61,4,14.15,6.35,4.55,3.06,6.14,8.64,9.61,12.68a35.94,35.94,0,0,0,20.34,11.31c4,.76,11.87,1.06,13.37-4.13.66-2.28-.79-5.93-1.46-7.49"/><g class="c"><g class="af"><path class="e" d="M54.47,258.83c-1.89-3.16-3.62-6.44-6.74-8.54-3.54-2.38-11.44-2.82-14.15-6.35-1.83-2.39.67-3.9,2.84-4.17s5.26,2.07,7.13,1.48c4.35-1.37-3.53-7.19-5.2-8.14-3.74-2.14-7.7-2.61-11.9-2.89-2.94-.2-5.69-.23-7.83-2.47-4.15-4.36,1.72-7,5.83-7.81,1-.21,3,.11,3.47-1.06s-.77-2.8-1.46-3.47c-2.66-2.54-7.09-2.32-10.32-3.54-2.17-.82-4.09-2.48-2.45-4.72S20,204.06,22.61,204c4.52-.14,9.51,1.39,13.65,3.14,1.28.54,2.53,1.12,3.76,1.73-1,.32-2.68-.58-3.62-.81a33.36,33.36,0,0,0-5.42-.92c-1.3-.09-2.91-.49-3.87.61a1.84,1.84,0,0,0-.15,2.4,7.76,7.76,0,0,0,2.46,1.71,49.66,49.66,0,0,1,5.2,3.43c1.69,1.31,5.2,3.71,4.89,6.32a4.09,4.09,0,0,1-1.95,2.5c-1.18.9-1.7,1.53-.63,2.9,1.3,1.68,4.06,2.39,5.77,3.64,2.25,1.66,6.18,4,7.09,6.89.81,2.55-2,4.1-1.76,6.46.23,1.84,2.21,3.6,3,5.25a24.3,24.3,0,0,1,1.8,4.62c.4,1.58,1.59,3.38,1.63,5"/></g></g><path class="j" d="M32.59,211.17a7.41,7.41,0,0,1,2.81-3.94,6.53,6.53,0,0,1,2.25-1,4.84,4.84,0,0,1,2.45,0,7.84,7.84,0,0,0-4.32,1.55,12.73,12.73,0,0,0-3.19,3.42"/><path class="j" d="M42,206.08a1.09,1.09,0,0,1,.93-.23,1,1,0,0,1,.78.56,1.89,1.89,0,0,1-.89.07,1.61,1.61,0,0,1-.82-.4"/><path class="j" d="M43,209.37c-1.83-.22-4.31,1-5.83,2.59a9.87,9.87,0,0,0-2.7,6c-.06,5.77,6.2,7.42,9.65,7.34,2.11-.05,4.38-.71,5.46-3s2-5.3,1.29-7.72c-1.07-3.85-5.13-5.41-8.3-5.31-2.13.07-4.49.61-5.21,3.29"/><path class="e" d="M38.71,220.7a4,4,0,0,0,2.33,2,9.17,9.17,0,0,0,3.09.59,5.79,5.79,0,0,1-3.21-.29,4.6,4.6,0,0,1-1.4-.86,2.67,2.67,0,0,1-.81-1.4"/><path class="e" d="M46.26,223c.23-.23.46-.38.65-.59a3.59,3.59,0,0,1,.7-.56,1.8,1.8,0,0,1-.48.79,1.24,1.24,0,0,1-.87.36"/><path class="b" d="M112.92,270.34c-1,1.15-3.23-.58-4.2-1.24-3.55-2.43-5.06-5.78-5.79-9.9-1.12-6.41-2.92-12.69-9.28-15.74-2-.94-8.26-3.22-9.74-.39-.78,1.47.49,3,1.77,3.63s6.27.9,3.91,2.73c-1.24,1-4.33-.25-5,1.92-.55,1.93,1.69,2.42,3.14,2.74,2,.43,5.7.45,6.88,2.53,1.48,2.63-2.89,1.32-2.78,3.67s4.28,1.13,5.31,2.83c.45.75.08,2.37.09,3.21a9.07,9.07,0,0,0,4.76,8.08c4.59,2.51,12.12,1.75,10.89-4.07"/><g class="c"><g class="ag"><path class="e" d="M97.27,266.33c0-.84.36-2.46-.09-3.21-1-1.7-5.2-.55-5.31-2.83s4.26-1,2.78-3.67c-1.18-2.08-4.93-2.1-6.88-2.53-1.45-.32-3.69-.81-3.14-2.74.63-2.17,3.72-.94,5-1.92,2.36-1.83-2.53-2-3.91-2.73s-2.55-2.16-1.77-3.63c.93-1.79,3.8-1.53,6.27-.87.64,1.5-5.78,1.29-1.92,3.48,1.58.9,4.69,1.44,3.46,3.84-.64,1.27-1.78,1.5-2.8,2.28-1.51,1.15,1,1.78,2,1.95,2.39.39,4,.49,4.44,3.11a2.53,2.53,0,0,1-.75,2.64c-.36.36-1.24.67-.87,1.24s2.17.57,2.77,1a2.2,2.2,0,0,1,.88,1.8"/></g></g><rect class="a" width="300" height="300"/></svg>