<?xml version="1.0" encoding="utf-8"?>
<!-- Generator: Adobe Illustrator 25.2.0, SVG Export Plug-In . SVG Version: 6.00 Build 0)  -->
<svg version="1.1" id="coiffure_x5F_17" xmlns="http://www.w3.org/2000/svg" xmlns:xlink="http://www.w3.org/1999/xlink" x="0px"
	 y="0px" viewBox="0 0 553 574" style="enable-background:new 0 0 553 574;" xml:space="preserve">
<style type="text/css">
	.st0{fill:#06000A;}
	.st1{fill:#C4BBBB;}
	.st2{fill:#4C6AA0;}
	.st3{fill:#132747;}
</style>
<g>
	<g>
		<g>
			<path d="M261.7,129.6c3.6,0,5.3,5.2,1.1,5.8c-10.5-0.2-24-4.4-32.6,3.5C235.3,126.9,250.7,127.7,261.7,129.6z"/>
			<g>
				<path class="st0" d="M261.7,129.6c0.8,0,1.5,0.2,2.2,0.7c0.6,0.5,1.1,1.1,1.3,1.9c0.2,0.7,0.1,1.6-0.4,2.2s-1.3,0.9-2,1.1l0,0
					l0,0c-5.6-0.1-11.2-1.1-16.9-1.1c-2.8,0-5.6,0.2-8.3,0.9c-2.7,0.7-5.2,2-7.3,3.9l-0.8,0.7l0.4-1c1.2-2.8,3.1-5.3,5.6-6.9
					c2.5-1.7,5.4-2.6,8.4-3.1c2.9-0.5,5.9-0.5,8.9-0.4C255.9,128.7,258.8,129.1,261.7,129.6z M261.7,129.6c-5.8-1-11.9-1.6-17.7-0.5
					c-2.9,0.5-5.8,1.5-8.2,3.2c-2.4,1.7-4.3,4.1-5.4,6.8l-0.4-0.3c2.1-2,4.7-3.3,7.5-4c2.8-0.7,5.6-0.9,8.4-0.8
					c2.8,0.1,5.6,0.4,8.4,0.7c2.8,0.3,5.6,0.7,8.4,0.7l0,0c0.8-0.1,1.5-0.4,2-1c0.5-0.6,0.6-1.4,0.4-2.2c-0.2-0.7-0.7-1.4-1.3-1.9
					C263.3,129.9,262.5,129.6,261.7,129.6z"/>
			</g>
		</g>
		<g>
			<path d="M291.3,128.9c-3.6,0-5.3,5.2-1.1,5.8c10.5-0.2,24-4.4,32.6,3.5C317.7,126.2,302.3,127,291.3,128.9z"/>
			<g>
				<path class="st0" d="M291.3,128.9c-0.8,0-1.5,0.3-2.2,0.7c-0.6,0.5-1.1,1.1-1.3,1.9c-0.2,0.7-0.1,1.6,0.4,2.2s1.2,0.9,2,1l0,0
					c2.8-0.1,5.6-0.4,8.4-0.7c2.8-0.3,5.6-0.6,8.4-0.7s5.7,0.1,8.4,0.8c2.8,0.7,5.4,2.1,7.5,4l-0.4,0.3c-1.1-2.7-3-5.1-5.4-6.8
					c-2.4-1.7-5.3-2.7-8.2-3.2C303.1,127.4,297.1,128,291.3,128.9z M291.3,128.9c2.9-0.5,5.9-0.9,8.9-1.1s6-0.1,8.9,0.4
					c2.9,0.5,5.9,1.4,8.4,3.1s4.4,4.2,5.6,6.9l0.4,1l-0.8-0.7c-2-1.9-4.6-3.2-7.3-3.9c-2.7-0.7-5.5-0.9-8.3-0.9
					c-5.6,0-11.2,1-16.9,1.1l0,0l0,0c-0.8-0.1-1.5-0.4-2-1.1c-0.5-0.6-0.6-1.5-0.4-2.2c0.2-0.7,0.7-1.4,1.3-1.9
					C289.7,129.2,290.5,128.9,291.3,128.9z"/>
			</g>
		</g>
		<g>
			<path d="M258,142.2c-6-4.1-14-2-19.6,1.8c-0.6-0.9-1.9-1.3-2-2.6c-0.1,1.1,0.1,2.5,1.1,3.2c-0.1,0.1-0.3,0.2-0.4,0.2
				c-1.1-0.7-2.3-1.4-2.6-2.8c-0.1,1.3,0.1,2.7,1.2,3.5c-0.3,0.1-0.5,0.2-0.8,0.3c-1.1-0.6-2.2-1.4-2.5-2.7c-0.1,1.4,0.2,3,1.5,3.7
				c0.7,6.9,3.8,13.9,10.8,16.1c-22.5-14.6,7.8-33.2,18.3-13.4C262.4,146.7,260.3,143.7,258,142.2z"/>
			<path d="M320.9,142.9c-0.3,1.3-1.4,2.1-2.5,2.7c-0.3-0.1-0.5-0.2-0.8-0.3c1.1-0.8,1.3-2.3,1.2-3.5c-0.3,1.4-1.5,2.2-2.6,2.8
				c-0.1-0.1-0.3-0.2-0.4-0.2c1-0.7,1.2-2,1.1-3.2c-0.1,1.4-1.4,1.8-2,2.6c-7.6-5.9-21.8-6-24.5,5c10.8-19.5,40.6-0.5,18.2,13.9
				c7.1-2.2,10.2-9.3,10.9-16.2C320.7,146,321,144.3,320.9,142.9z"/>
		</g>
	</g>
	<g>
		<path d="M295.5,95.7c-0.9,9.8-13.1,7.5-20,8.5c-7.5,1.4-13.8,7.3-22.1,4.7c-0.7,2.5-3.7,3.3-5.9,4.6c-9.7,5.5-12.4,22.4-23.3,26.8
			c3.5,6.2,4.6,10.2,4.2,16.4c-0.4,7.5,4.9,14.2,0.7,21.7c-0.5-5.2-0.7-23.8-9.3-26.5c-6.5-2,0.9,29.3,3.2,35.7
			c6.2,17.4,8.6,12.3,10.2,20.6c1.7,8.6,1.3,17-5.2,22.8c-5.3,4.7-14,20.8-14.7,29c-4.2,13.8-18.7,7.6-23.8,20.8
			c23.5-40.7-4.4-52.3-2.7-89.5c-4.1,9-5.9,19-5.1,28.8c-9.8-27.1-14.9-34-5.8-62.7c-2.7-18-16.2-34.9-9-54.2
			c9-43,67.1-84.4,93.7-31.9c1.6-0.5,3.3-0.3,5.1,0.4c6.8-21.4,31-5.2,43.4,1.8c11.5,3,19.4,10.8,21.6,22.5
			c17.9,15.2,14.9,54.3,10.4,59.8c-3.5,4.3-7.4,4.5-8.5,6.5C332.2,127,291,129.4,295.5,95.7z"/>
		<g>
			<path class="st1" d="M295.5,95.7c-0.2,1.9-0.9,3.9-2.4,5.2c-1.5,1.3-3.4,2-5.3,2.3c-3.9,0.7-7.8,0.5-11.7,0.9
				c-3.9,0.6-7.4,2.5-11.1,3.8c-1.8,0.7-3.7,1.3-5.7,1.5s-4,0-5.8-0.6l0,0c-0.2,0.9-0.8,1.7-1.6,2.2c-0.7,0.6-1.5,1-2.4,1.4
				c-1.7,0.8-3.3,1.7-4.6,2.9c-2.7,2.4-4.7,5.5-6.6,8.7c-1.9,3.1-3.7,6.3-5.8,9.3c-1.1,1.5-2.3,2.9-3.6,4.1
				c-1.4,1.2-2.9,2.2-4.6,2.9v-0.1c1.6,2.9,3.1,5.9,3.8,9.1c0.4,1.6,0.5,3.3,0.5,4.9c0,0.8,0,1.6-0.1,2.5c0,0.8,0,1.6,0.1,2.5
				c0.3,3.3,1.4,6.4,2,9.7c0.3,1.6,0.4,3.3,0.2,4.9c-0.2,1.6-0.7,3.2-1.5,4.7l-0.1,0.2v-0.2c-0.4-6.1-0.8-12.4-2.7-18.2
				c-0.5-1.5-1.1-2.9-1.9-4.2c-0.8-1.3-1.8-2.5-3.1-3.3c-0.3-0.2-0.7-0.4-1-0.5c-0.4-0.1-0.7-0.3-1.1-0.3c-0.8,0-1.2,0.8-1.5,1.5
				c-0.5,1.5-0.5,3-0.5,4.6c0.1,3.1,0.5,6.1,1,9.2c0.5,3,1.1,6.1,1.8,9.1s1.4,6,2.3,9c0.4,1.5,0.9,2.9,1.5,4.4
				c0.5,1.4,1.1,2.9,1.7,4.3c1.3,2.8,2.7,5.6,4.7,7.9c1,1.1,2,2.5,2.4,3.9c0.5,1.5,0.7,3,1,4.5c0.5,3,0.7,6.2,0.3,9.2
				c-0.4,3.1-1.4,6.1-3.2,8.7c-0.9,1.3-2,2.4-3.1,3.4c-1.1,1.1-2.1,2.3-3,3.5c-1.8,2.5-3.4,5.1-4.9,7.8s-2.8,5.5-3.9,8.3
				c-1.1,2.9-2.1,5.8-2.4,8.9l0,0l0,0c-0.8,2.6-2.2,5.2-4.4,6.9c-2.1,1.8-4.7,2.8-7.3,3.8s-5.1,1.9-7.3,3.6
				c-2.2,1.6-3.8,3.9-4.8,6.5l-0.3-0.1c1.9-3.4,3.7-6.8,5.2-10.4s2.7-7.3,3.4-11.1c0.7-3.8,1-7.7,0.8-11.5c-0.2-3.9-1-7.7-2.1-11.4
				c-2.1-7.4-5.2-14.6-7.2-22.1c-2.1-7.5-3.1-15.3-2.7-23l0.4,0.1c-4.1,8.9-5.9,18.9-5.1,28.7l0.1,1.6l-0.6-1.5l-5.6-15.2
				c-1.8-5.1-3.5-10.3-4.4-15.6c-0.9-5.4-0.7-10.9,0.2-16.2c0.9-5.4,2.3-10.6,4-15.8v0.1c-0.7-4.6-2.1-9.1-3.6-13.5
				s-3.2-8.8-4.6-13.2c-1.4-4.5-2.5-9.1-2.8-13.7c-0.3-4.7,0.4-9.4,2.1-13.8l0,0c2.3-10.8,7.4-20.9,14.1-29.7
				c6.7-8.7,15.1-16.3,24.9-21.5c4.9-2.5,10.2-4.4,15.7-5.1c5.5-0.8,11.1-0.3,16.4,1.6c5.2,1.9,9.9,5.2,13.7,9.1
				c3.8,4,6.9,8.7,9.4,13.6l-0.2-0.1c1.7-0.5,3.6-0.2,5.2,0.4l-0.2,0.1c0.7-2,1.5-4,2.8-5.8c1.3-1.7,3-3.2,5-4s4.2-1.1,6.3-1
				c2.2,0.1,4.3,0.5,6.3,1.1c4.1,1.2,8,3,11.8,5s7.5,4.2,11.2,6.3l0,0c5.3,1.4,10.5,4,14.3,8c1.9,2,3.5,4.3,4.8,6.8
				c1.2,2.5,2.1,5.2,2.6,7.9l0,0c4.8,4.1,7.9,9.7,10,15.6s3.2,12.1,3.6,18.3c0.4,6.2,0.3,12.5-0.8,18.6c-0.3,1.5-0.6,3.1-1.1,4.5
				c-0.2,0.7-0.5,1.5-0.9,2.2s-0.9,1.3-1.5,1.8c-1.1,1.1-2.4,2-3.8,2.8c-0.7,0.4-1.4,0.7-2.1,1.1c-0.7,0.4-1.3,0.8-1.7,1.5l-0.1,0.1
				v-0.2c-0.1-3.3-0.4-6.7-1.4-9.9c-0.9-3.2-2.3-6.3-4.1-9.1c-3.6-5.6-8.8-10-14-14.2c-2.6-2.1-5.2-4.2-7.6-6.5s-4.7-4.8-6.4-7.7
				c-1.8-2.8-3-6-3.5-9.3C295,102.4,295.1,99,295.5,95.7z M295.5,95.7c-0.4,3.3-0.5,6.7,0.1,10s1.8,6.5,3.5,9.3
				c1.7,2.9,4,5.4,6.4,7.7c2.4,2.3,5,4.4,7.6,6.5c5.1,4.2,10.3,8.6,14,14.2c1.8,2.8,3.2,5.9,4.1,9.1c0.9,3.2,1.3,6.6,1.4,9.9h-0.1
				c0.4-0.7,1.1-1.2,1.7-1.6c0.7-0.4,1.4-0.7,2.1-1.1c1.4-0.7,2.6-1.6,3.7-2.8c0.5-0.6,1.1-1.1,1.5-1.8s0.7-1.4,0.9-2.1
				c0.5-1.5,0.8-3,1.1-4.5c1-6.1,1.2-12.4,0.7-18.6c-0.5-6.2-1.5-12.4-3.6-18.3c-2.1-5.8-5.2-11.4-10-15.5l0,0l0,0
				c-1-5.4-3.4-10.6-7.3-14.5c-3.8-4-8.9-6.6-14.3-7.9l0,0l0,0c-3.7-2.1-7.4-4.3-11.2-6.3c-3.8-2-7.7-3.8-11.8-5
				c-2-0.6-4.2-1-6.3-1.1c-2.1-0.1-4.3,0.2-6.2,1c-2,0.8-3.7,2.2-4.9,3.9c-1.3,1.7-2.1,3.7-2.8,5.7V72l-0.1-0.1
				c-1.6-0.6-3.4-0.9-5-0.4h-0.1l-0.1-0.1c-2.5-4.9-5.5-9.5-9.3-13.5s-8.4-7.2-13.6-9.1c-5.2-1.9-10.8-2.3-16.2-1.6
				s-10.7,2.6-15.6,5.1c-9.8,5.1-18.1,12.7-24.7,21.4c-6.6,8.7-11.7,18.8-14,29.5l0,0l0,0c-1.6,4.3-2.3,9-2,13.7
				c0.3,4.6,1.4,9.2,2.8,13.6c1.4,4.4,3.1,8.8,4.6,13.2s2.9,8.9,3.6,13.6v0.1v0.1c-1.6,5.2-3.1,10.4-3.9,15.7
				c-0.9,5.3-1.1,10.8-0.2,16.1c0.8,5.3,2.5,10.5,4.4,15.6l5.6,15.2l-0.4,0.1c-0.8-9.9,1-19.9,5.2-28.9l0.4-1v1.1
				c-0.4,7.7,0.6,15.5,2.7,22.9c2,7.5,5.1,14.6,7.2,22.1c1.1,3.7,1.8,7.6,2.1,11.4c0.2,3.9,0,7.8-0.8,11.6c-0.7,3.8-2,7.5-3.4,11.1
				c-1.5,3.6-3.3,7-5.2,10.4l-0.3-0.1c1-2.6,2.6-4.9,4.9-6.6c2.2-1.7,4.8-2.6,7.4-3.6c2.6-1,5.1-2,7.2-3.8c2.1-1.7,3.5-4.2,4.3-6.8
				l0,0c0.3-3.1,1.3-6.1,2.5-8.9c1.1-2.9,2.5-5.7,4-8.4s3.1-5.4,4.9-7.8c0.9-1.2,1.9-2.5,3-3.5c1.2-1,2.2-2.1,3.1-3.4
				c1.8-2.5,2.8-5.5,3.1-8.5c0.4-3.1,0.2-6.1-0.3-9.2c-0.2-1.5-0.5-3-1-4.5s-1.4-2.7-2.4-3.9c-2-2.4-3.5-5.1-4.7-7.9
				c-0.6-1.4-1.2-2.8-1.7-4.3c-0.6-1.4-1.1-2.9-1.5-4.4c-0.9-3-1.6-6-2.3-9s-1.3-6-1.8-9.1c-0.5-3-0.9-6.1-1-9.2
				c0-1.5,0-3.1,0.5-4.6c0.1-0.4,0.3-0.7,0.6-1s0.7-0.5,1.1-0.5c0.4,0,0.8,0.1,1.1,0.3c0.4,0.1,0.7,0.3,1,0.5c1.3,0.8,2.4,2,3.2,3.3
				s1.4,2.8,1.9,4.2c1.9,5.9,2.3,12.1,2.7,18.3h-0.1c0.8-1.4,1.3-3,1.5-4.6s0.1-3.3-0.2-4.9c-0.6-3.2-1.7-6.4-2-9.7
				c-0.1-0.8-0.1-1.6-0.1-2.5c0.1-0.8,0.1-1.6,0.1-2.5c0-1.6-0.1-3.3-0.5-4.9c-0.7-3.2-2.2-6.2-3.8-9.1l0,0h0.1
				c1.7-0.7,3.2-1.7,4.6-2.9c1.4-1.2,2.6-2.6,3.6-4.1c2.2-2.9,3.9-6.1,5.8-9.3c1.9-3.1,3.9-6.2,6.6-8.7c1.4-1.2,3-2.1,4.6-2.9
				c0.8-0.4,1.6-0.8,2.3-1.4s1.3-1.3,1.5-2.2l0,0l0,0c1.9,0.6,3.9,0.8,5.8,0.6c2-0.2,3.8-0.8,5.7-1.5c3.7-1.4,7.2-3.3,11.1-3.8
				c3.9-0.4,7.9-0.1,11.7-0.9c1.9-0.4,3.8-1,5.3-2.3C294.6,99.6,295.4,97.6,295.5,95.7z"/>
		</g>
	</g>
	<g>
		<path class="st1" d="M229.8,80.6l-3.9,3.3c-1.3,1.1-2.4,2.4-3.6,3.6c-0.6,0.6-1.2,1.3-1.7,1.9l-1.6,2c-0.3,0.3-0.6,0.6-0.8,1
			l-0.7,1.1l-1.4,2.1c-3.7,5.7-6.4,12.1-7.8,18.8c-1.5,6.7-1.8,13.6-1.1,20.4l0.7,5.1l1.1,5l1.4,5l1.7,4.9l-1.8-4.8l-1.5-4.9l-1.2-5
			l-0.8-5.1c-0.8-6.9-0.5-13.8,0.9-20.6c1.5-6.7,4.2-13.2,8.1-19l1.5-2.1l0.8-1.1c0.3-0.3,0.6-0.7,0.8-1l1.7-2
			c0.6-0.6,1.1-1.3,1.8-1.9c1.3-1.2,2.5-2.4,3.8-3.5L229.8,80.6z"/>
	</g>
	<g>
		<path class="st1" d="M269.4,93.2c-0.4,1.9-1.1,3.7-2,5.4c-0.9,1.7-2.1,3.2-3.5,4.6s-2.9,2.6-4.6,3.5s-3.5,1.6-5.4,2
			c1.8-0.7,3.5-1.5,5.1-2.5s3.1-2.2,4.4-3.5s2.5-2.8,3.5-4.4C267.9,96.8,268.7,95,269.4,93.2z"/>
	</g>
	<g>
		<path class="st1" d="M224.2,139.7c1.8-2.8,3-5.9,3.7-9.1c0.6-3.2,0.8-6.5,0.9-9.8c0.1-3.3,0.1-6.6,0.6-10c0.1-0.8,0.3-1.6,0.5-2.5
			c0.2-0.8,0.5-1.6,0.7-2.4c0.3-0.8,0.7-1.5,1-2.3c0.4-0.7,0.9-1.4,1.3-2.1c-1.7,2.9-2.5,6.1-2.9,9.4s-0.4,6.6-0.4,9.9
			c-0.1,3.3-0.3,6.7-1.1,9.9c-0.2,0.8-0.4,1.6-0.7,2.4c-0.3,0.8-0.5,1.6-0.9,2.3c-0.4,0.7-0.7,1.5-1.2,2.2L224.2,139.7z"/>
	</g>
	<g>
		<path class="st1" d="M218.7,147.5c-1.8-2.4-3.3-5-4.5-7.8s-1.9-5.7-2.4-8.7c-0.4-3-0.5-6-0.2-9s0.8-5.9,1.6-8.8
			c-0.5,2.9-0.9,5.9-1,8.9s-0.1,5.9,0.4,8.9c0.4,2.9,1.1,5.8,2.2,8.6C215.8,142.2,217.1,144.9,218.7,147.5z"/>
	</g>
	<g>
		<path class="st1" d="M265.2,71.7c1.5,0.4,3,1,4.4,1.8c1.4,0.7,2.7,1.6,4,2.6c1.2,1,2.4,2.1,3.5,3.2c1.1,1.2,2,2.4,2.8,3.8
			c-1-1.2-2.1-2.3-3.2-3.4c-1.1-1.1-2.3-2.1-3.5-3c-1.2-1-2.5-1.8-3.8-2.7C268,73.2,266.6,72.4,265.2,71.7z"/>
	</g>
	<g>
		<path class="st1" d="M174.7,116.2c-1.4,3.3-1.9,7-1.6,10.6c0.3,3.6,1.2,7.1,2.3,10.5c1.1,3.4,2.4,6.8,3.5,10.3
			c1.1,3.4,2.1,7,2.5,10.6c0.6,7.3-0.7,14.5-1.3,21.7c-0.3,3.6-0.5,7.2-0.1,10.8s1.3,7.1,3,10.3c-1.8-3.1-2.9-6.7-3.4-10.3
			s-0.4-7.3-0.1-10.9c0.5-7.2,1.8-14.4,1.1-21.6c-0.6-7.2-3.7-13.9-5.8-20.8c-1-3.5-1.9-7-2.1-10.7
			C172.5,123.1,173.1,119.4,174.7,116.2z"/>
	</g>
	<g>
		<path class="st1" d="M186.2,193.5c0.7-3.2,1.4-6.5,1.9-9.7c0.5-3.3,1-6.5,1.3-9.8c0.4-3.3,0.6-6.6,0.7-9.9
			c0.1-3.3,0.1-6.6,0.1-9.9c0.4,3.3,0.5,6.6,0.5,9.9c0,3.3-0.2,6.6-0.5,9.9c-0.4,3.3-0.8,6.6-1.5,9.8
			C188,187.2,187.2,190.4,186.2,193.5z"/>
	</g>
	<g>
		<path class="st1" d="M220.5,240.4c0.4-3.3,0.6-6.6,0.6-9.9c0-3.3-0.2-6.6-0.6-9.9c-0.4-3.3-1.1-6.5-1.9-9.7
			c-0.8-3.2-1.8-6.4-2.9-9.5c1.3,3,2.5,6.2,3.4,9.4c1,3.2,1.7,6.5,2.1,9.8c0.4,3.3,0.6,6.6,0.5,10
			C221.6,233.9,221.2,237.2,220.5,240.4z"/>
	</g>
	<g>
		<path class="st1" d="M305.5,103.2c1.5,5,4.4,9.3,7.7,13.3c3.3,4,6.9,7.7,10.4,11.5c3.4,3.9,6.8,7.9,9.1,12.6
			c1.1,2.3,2,4.8,2.4,7.4s0.4,5.2,0.1,7.8c0.5-5.2-0.6-10.4-3-14.9c-2.4-4.6-5.7-8.6-9.2-12.4c-3.4-3.9-7.1-7.6-10.3-11.7
			c-1.6-2.1-3.1-4.2-4.3-6.5C307.1,108.1,306.1,105.7,305.5,103.2z"/>
	</g>
	<g>
		<path d="M339.8,173.9c1.9,10.6-9.2,20.5-5.8,31.2c-4.6-9.1,0.5-25.2-3.3-34.7C333.7,171,337.4,175.1,339.8,173.9z"/>
		<g>
			<path class="st1" d="M339.8,173.9c0.5,2.7,0.2,5.4-0.5,8s-1.8,5.1-2.8,7.6s-2,5-2.5,7.6c-0.6,2.6-0.6,5.3,0.3,7.9l-0.4,0.2
				c-1.3-2.7-1.8-5.7-2-8.6c-0.2-2.9-0.1-5.9,0-8.8c0.1-2.9,0.2-5.9,0.2-8.8c-0.1-2.9-0.4-5.9-1.5-8.6l-0.1-0.2l0.2,0.1
				c0.8,0.2,1.6,0.6,2.3,1c0.7,0.4,1.4,0.9,2.1,1.3c0.7,0.4,1.4,0.9,2.2,1.2C338.1,174.1,339,174.3,339.8,173.9z M339.8,173.9
				c-0.8,0.4-1.7,0.3-2.4,0c-0.8-0.3-1.5-0.7-2.2-1.1c-0.7-0.4-1.4-0.9-2.2-1.3c-0.7-0.4-1.5-0.8-2.3-1l0.1-0.2
				c1.1,2.8,1.4,5.7,1.6,8.7c0.1,2.9,0,5.9-0.1,8.8c-0.1,2.9-0.2,5.9,0,8.8c0.2,2.9,0.7,5.8,1.9,8.4l-0.4,0.2
				c-0.8-2.6-0.8-5.4-0.2-8.1c0.6-2.7,1.6-5.2,2.6-7.7s2.1-5,2.9-7.5C339.9,179.2,340.3,176.5,339.8,173.9z"/>
		</g>
	</g>
	<g>
		<path class="st2" d="M257.4,65c7.6,1.3,3.8,9.4-2.8,7.3c-9.4-1.8-16.7,5.5-24.5,7.7C222.1,69.7,250.5,64.4,257.4,65z"/>
		<path class="st3" d="M257.4,65c1.2,0.3,2.5,0.7,3.4,1.6s1.1,2.4,0.5,3.5s-1.7,1.9-2.9,2.3c-1.2,0.4-2.5,0.3-3.8-0.1l0,0
			c-2.1-0.4-4.3-0.3-6.4,0.1c-2.1,0.5-4.1,1.3-6.1,2.2s-3.9,2-5.8,3c-1.9,1-3.9,1.9-6.1,2.5c-0.1,0-0.2,0-0.3-0.1
			c-1-1.2-1.7-2.8-1.4-4.4s1.4-2.9,2.6-3.8c2.5-1.9,5.4-3,8.3-4c2.9-0.9,5.9-1.6,8.9-2.1C251.3,65.2,254.4,64.8,257.4,65z M257.4,65
			c-3.1-0.2-6.1,0.3-9.1,0.8s-6,1.3-8.8,2.3c-2.9,1-5.7,2.2-8.1,4.1c-1.1,1-2.2,2.1-2.4,3.6c-0.2,1.4,0.4,2.9,1.3,4l-0.3-0.1
			c4.1-1.2,7.9-3.6,11.8-5.4c2-0.9,4-1.7,6.2-2.1c2.1-0.4,4.4-0.5,6.5,0l0,0c1.2,0.4,2.5,0.5,3.7,0.1c1.2-0.3,2.3-1.1,2.9-2.2
			c0.6-1.1,0.4-2.6-0.4-3.5C259.9,65.7,258.7,65.2,257.4,65z"/>
	</g>
</g>
</svg>
