<?xml version="1.0" encoding="utf-8"?>
<!-- Generator: Adobe Illustrator 25.2.0, SVG Export Plug-In . SVG Version: 6.00 Build 0)  -->
<svg version="1.1" id="coiffure_x5F_2" xmlns="http://www.w3.org/2000/svg" xmlns:xlink="http://www.w3.org/1999/xlink" x="0px"
	 y="0px" viewBox="0 0 553 574" style="enable-background:new 0 0 553 574;" xml:space="preserve">
<style type="text/css">
	.st0{fill:#C4BBBB;}
	.st1{stroke:#06000A;stroke-width:0.5;stroke-miterlimit:10;}
	.st2{fill:#1E1919;}
</style>
<g>
	<g>
		<path d="M217,129.4c1.4,15.2,2.8,30.3,4.2,45.5c4.7-11.2,1.6-24.8,7.1-35.6c2.9-5.6,7.9-9.9,13.4-12.7c5.5-2.8,11.6-4.3,17.7-5.5
			c11-2,22.2-2.9,33.3-2.6c10.6,0.3,22.3,2.3,29.2,10.7c4,4.9,5.7,11.2,7.3,17.4c2.4,9.2,4.8,18.7,2.9,28
			c2.8-10.8,5.1-21.8,6.9-32.8c1.1-7.2,2-14.7,0-21.7c-2.3-7.7-7.8-13.9-13.9-18.9c-22.4-18.6-54.6-24.5-81.5-13.6
			c-8.6,3.4-16.8,8.7-22.2,16.4S216.3,121.5,217,129.4z"/>
		<g>
			<path class="st0" d="M217,129.4l4.3,45.5h-0.1c1.5-3.6,2.2-7.5,2.6-11.3c0.4-3.9,0.6-7.8,1.1-11.6c0.5-3.9,1.2-7.7,2.8-11.3
				c1.5-3.6,4-6.7,6.9-9.3s6.3-4.6,9.9-6.1c3.6-1.5,7.4-2.6,11.2-3.4c7.6-1.6,15.4-2.7,23.1-3.1c3.9-0.2,7.8-0.3,11.7-0.3
				c3.9,0.1,7.8,0.2,11.7,0.8c1.9,0.3,3.8,0.7,5.7,1.2c1.9,0.5,3.7,1.2,5.5,2s3.5,1.8,5,3.1c1.6,1.2,2.9,2.6,4.2,4.2
				c2.4,3.1,3.9,6.8,5.1,10.5c1.2,3.7,2.1,7.5,3.1,11.3c0.9,3.8,1.7,7.6,2.1,11.5s0.3,7.8-0.5,11.7l-0.5-0.1
				c2.3-8.9,4.3-17.8,5.9-26.9c0.8-4.5,1.6-9,2-13.6c0.4-4.5,0.3-9.2-0.9-13.6c-1.2-4.4-3.6-8.4-6.5-11.9c-3-3.5-6.4-6.6-10-9.3
				c-7.2-5.6-15.5-9.8-24.2-12.7c-8.7-3-17.9-4.3-27-4.3c-1.1,0-2.3,0.1-3.4,0.1c-1.1,0.1-2.3,0.1-3.4,0.2l-3.4,0.4l-1.7,0.2
				l-1.7,0.3l-3.4,0.7c-1.1,0.3-2.2,0.6-3.3,0.9c-2.2,0.5-4.4,1.4-6.5,2.2c-4.3,1.6-8.4,3.7-12.2,6.3s-7.2,5.7-10,9.4
				c-2.8,3.6-4.5,8.1-5.1,12.6C216.4,120.2,216.6,124.8,217,129.4z M217,129.4c-0.4-4.6-0.6-9.2,0-13.7s2.2-9,5.1-12.6
				c2.8-3.7,6.2-6.8,10-9.4s7.9-4.7,12.2-6.4c2.2-0.8,4.3-1.6,6.5-2.2c1.1-0.3,2.2-0.6,3.3-0.9l3.4-0.7l1.7-0.3l1.7-0.2l3.4-0.5
				c1.1-0.1,2.3-0.2,3.4-0.2c1.1-0.1,2.3-0.2,3.4-0.1c9.2-0.1,18.4,1.3,27.1,4.2s17,7.1,24.3,12.7c3.7,2.7,7.1,5.8,10.1,9.3
				c2.9,3.5,5.4,7.6,6.6,12c1.3,4.5,1.3,9.2,1,13.7c-0.4,4.6-1.2,9.1-2,13.6c-1.6,9-3.5,18-5.9,26.9l-0.5-0.1
				c0.8-3.8,0.9-7.7,0.5-11.6c-0.4-3.9-1.2-7.7-2.1-11.4c-0.9-3.8-1.9-7.6-3-11.3c-1.2-3.7-2.7-7.3-5-10.4c-1.2-1.5-2.5-2.9-4.1-4.1
				c-1.5-1.2-3.2-2.2-4.9-3c-1.7-0.8-3.6-1.5-5.4-2c-1.9-0.5-3.8-0.9-5.7-1.2c-3.8-0.6-7.7-0.8-11.6-0.9s-7.8,0-11.7,0.2
				c-7.8,0.5-15.5,1.5-23.1,3.1c-3.8,0.8-7.6,1.9-11.1,3.4c-3.6,1.5-7,3.5-9.9,6.1c-2.9,2.5-5.4,5.7-6.9,9.2
				c-1.6,3.5-2.3,7.4-2.8,11.3c-0.5,3.9-0.7,7.8-1.1,11.6c-0.4,3.9-1.2,7.7-2.7,11.3l-0.1,0.2v-0.2L217,129.4z"/>
		</g>
	</g>
	<g>
		<path d="M297.7,104.8c-0.7-0.8-1.4-1.5-2-2.3c0.2,1.1-1.5,1.8-2.4,1.1c-0.9-0.7-1.2-1.9-1.4-3s-0.5-2.4-1.5-2.9
			c-1.1-0.7-2.5-0.2-3.8,0.2c-1.2,0.3-2.9,0.3-3.5-0.8c-0.9-1.7,1.6-3.9,0.7-5.6c-0.5-0.9-1.6-1.1-2.6-1.4s-2-1.1-1.8-2.1
			c0.3-1.1,1.9-1.2,3-0.9s2.7,0.3,3.1-0.8c0.6-1.7-2.7-2.7-2.6-4.5c0.1-1.2,1.5-1.7,2.7-1.6c1.2,0.1,2.4,0.5,3.4,0.1
			c1.5-0.5,2-2.7,1-3.8c-1-1.2-3.2-1-4,0.4c-1-0.6-1.1-2.2-0.2-3.1c0.8-0.9,2.2-1,3.4-0.6c1.1,0.4,2.1,1.1,3,1.9
			c0.8-0.2,0.9-1.4,0.4-2c-0.5-0.7-1.3-1-1.9-1.5s-1.1-1.4-0.7-2.1c0.6-1,2.2-0.4,3,0.5s1.5,2.1,2.6,2.2c1.6,0.1,2.4-2.1,1.9-3.6
			s-1.8-2.7-2.4-4.1c-0.6-1.5-0.1-3.7,1.4-3.9c1.2-0.2,2.2,0.9,2.8,2c0.6,1,1.2,2.3,2.3,2.7c1.1,0.4,2.7-0.9,2-1.8
			c0.8-0.2,1.5-0.5,2.3-0.7c-1.1-1.1-0.9-3.3,0.5-4s3.4,0.7,3.1,2.2c0.9-1.3,0.2-3-0.3-4.6c-0.4-1.5-0.2-3.7,1.4-3.9
			c1.2-0.2,2.2,1,2.6,2.1c0.4,1.2,0.3,2.4,0.9,3.5c0.5,1.1,2,1.9,3,1.1c1.5-1.2-0.2-4.5,1.6-5.2c0.9-0.4,1.8,0.4,2.3,1.2
			c0.4,0.8,0.6,1.8,1.1,2.6c0.6,0.8,1.8,1.2,2.4,0.5c0.8-0.9-0.2-2.6,0.8-3.3c0.7-0.6,1.9,0.1,2,1c0.2,0.9-0.3,1.8-0.6,3
			c1.3,0,2.2-1.4,2.8-2.6c0.7-1.2,2-2.4,3.2-1.7c1.8,1,0.2,4.7,2.2,5.4c0.9,0.3,1.9-0.4,2.5-1.2c0.6-0.8,1.2-1.7,2.2-1.9
			s2,1.2,1.1,1.8c0.7-0.7,1.4-1.3,2.3-1.7s2-0.2,2.6,0.6c0.5,0.7,0.5,1.6,0.4,2.4c0,0.8,0,1.8,0.7,2.3c0.6,0.6,1.9,0.2,1.8-0.6
			c0.2,0.7,0.5,1.4,0.7,2.1c0.7-0.7,1.5-1.4,2.4-1.5c1-0.2,2.1,0.5,2,1.5c-0.1,0.9-1,1.4-1.8,1.9c-0.7,0.5-1.5,1.4-1,2.2
			c1.1,1.6,4.1-2,5.1-0.4c0.5,0.8-0.3,1.8-1.1,2.3c-0.8,0.5-1.8,1.2-1.6,2.1c0.2,0.9,1.5,1.2,2.3,0.8s1.6-1.1,2.4-1.5
			c1.3-0.5,2.9-0.2,3.8,0.9s1,2.7,0.3,3.9c-0.3,0.5-0.8,1-1.1,1.6c-0.3,0.6-0.2,1.4,0.4,1.7c0.7,0.3,1.6-0.3,2.1,0.3
			c0.5,0.5-0.1,1.3-0.8,1.6s-1.4,0.6-1.5,1.3c-0.2,1.5,2.7,1.5,2.9,3c0.2,1.6-3.1,2-2.8,3.6c0.3,1.2,2.2,0.8,3.2,1.5
			c0.6,0.4,0.8,1.4,0.4,2c-0.4,0.7-1.3,0.9-2,0.6c-0.2,0.4-0.5,0.8-0.7,1.2c0.6,0.2,1.3,0.4,1.7,0.9c0.4,0.5,0.5,1.4-0.1,1.8
			c-0.2,0.1-0.5,0.2-0.6,0.4c-0.4,0.4-0.2,1.1,0.3,1.4c0.4,0.3,1,0.4,1.5,0.6c1.6,0.6,2.5,2.7,1.8,4.3c-0.6,1.6-2.7,2.5-4.3,1.8
			c-0.4-0.2-0.9-0.5-1.3-0.6s-1,0-1.3,0.4c-0.3,0.5,0.1,1.3,0.6,1.6c0.5,0.3,1.2,0.4,1.7,0.7c0.6,0.3,1,1,0.7,1.6s-1.2,0.5-1.8,0.4
			c-0.7-0.2-1.5-0.4-1.9,0.1c-0.6,0.6-0.1,1.7,0.5,2.4c0.5,0.7,1,1.9,0.2,2.4c-1,0.7-2.5-0.9-3.3-0.1c-0.4,0.3-0.3,1,0,1.4
			s0.7,0.7,1.1,1c1,0.7,1.8,1.7,1.9,2.8c0.1,1.2-1.1,2.4-2.2,2c-0.5-0.2-0.9-0.7-1.4-1c-0.5-0.4-1.2-0.5-1.6-0.1
			c-0.5,0.6,0.3,1.5,0.8,2.2c0.8,1.3,0,3.3-1.5,3.6c-1.5,0.3-3.1-1.2-2.8-2.7c0.1-0.6,0.5-1.1,0.6-1.7c0.2-0.6,0-1.3-0.5-1.6
			c-0.8-0.4-1.7,0.7-1.7,1.6s0.4,1.9,0.2,2.8c-0.8,0.3-1.4-0.6-1.6-1.4s-0.6-1.8-1.4-1.8c-0.6,0-1,0.7-1.4,1.2
			c-0.3,0.5-1,1.1-1.5,0.8c-0.9-0.5-0.1-2.2-1-2.7c-0.5-0.3-1.2,0.2-1.6,0.6c-0.4,0.5-1,1-1.6,0.9c-0.7-0.2-0.8-1.1-0.7-1.9
			c0.1-0.7,0.1-1.6-0.5-2c-0.8-0.4-1.8,0.6-2.7,0.3c-0.7-0.2-1-0.9-1.4-1.4s-1.4-0.8-1.7-0.2c-0.4-0.6-0.9-1.2-1.3-1.8
			c-0.6,0.2-1.2,0.4-1.9,0.3c-0.6-0.1-1.3-0.5-1.4-1.1c-0.1-0.7,0.4-1.6,0.1-2.2c-0.4-0.7-1.7-0.4-2,0.4s0,1.7,0.3,2.5
			c-1.1-0.1-2-0.9-2.4-1.9c-0.3-1-0.1-2.2,0.7-2.9c-0.6-1.1-2.5-1.1-3.1,0c-0.3,0.6-0.3,1.5-0.9,2c-0.8,0.5-1.9-0.3-2.1-1.2
			c-0.2-0.9,0.1-1.9,0.1-2.8s-0.6-2-1.5-2.1c-0.9,0-1.4,0.8-1.9,1.5s-1.3,1.5-2.1,1.1c-0.9-0.4-0.8-1.6-0.6-2.5
			c-0.4-0.5-1.2-0.2-1.7,0.2c-0.5,0.4-0.9,1-1.5,1.1c-1.1,0.1-1.5-1.4-1.2-2.4s0.9-2.1,0.4-3.1c-0.5-1.1-1.9-1.3-3-0.9
			c-1.1,0.5-1.8,1.4-2.5,2.4c-0.7,0.9-1.4,1.9-2.5,2.4S298.4,105.6,297.7,104.8z"/>
		<g>
			<path class="st0" d="M297.7,104.8l-2-2.3l0,0c0.1,0.6-0.4,1.2-1,1.3c-0.6,0.2-1.3,0-1.7-0.4c-0.9-0.9-1-2.2-1.3-3.3
				c-0.1-0.6-0.3-1.2-0.7-1.7c-0.3-0.5-0.9-0.9-1.5-1c-1.2-0.2-2.4,0.3-3.6,0.6c-0.6,0.1-1.2,0.1-1.8,0c-0.6-0.1-1.1-0.6-1.3-1.2
				c-0.2-0.6,0-1.2,0.2-1.8c0.2-0.6,0.5-1.1,0.7-1.7c0.2-0.6,0.3-1.2,0-1.7c-0.2-0.6-0.8-0.9-1.4-1.1s-1.2-0.3-1.7-0.6
				s-1.1-0.7-1.3-1.3c-0.2-0.6,0.2-1.3,0.8-1.5c0.6-0.2,1.2-0.2,1.8-0.1c0.6,0.1,1.2,0.2,1.8,0.2c0.6,0,1.2-0.2,1.5-0.7
				c0.2-0.3,0.2-0.6,0.1-0.8c-0.1-0.3-0.2-0.5-0.4-0.8c-0.4-0.5-0.9-0.8-1.3-1.3c-0.4-0.4-0.9-0.9-0.9-1.5c-0.1-0.6,0.3-1.3,0.9-1.5
				c0.5-0.3,1.2-0.4,1.8-0.4c0.6,0,1.2,0.2,1.8,0.2c0.6,0.1,1.2,0.1,1.8-0.1c0.5-0.2,1-0.7,1.2-1.2s0.3-1.2,0.1-1.7
				c-0.2-0.6-0.6-1-1.1-1.3c-1.1-0.5-2.5-0.1-3.1,0.9v0.1H286c-0.9-0.5-1-1.6-0.7-2.5s1.2-1.4,2.1-1.5s1.8,0.1,2.6,0.5
				c0.8,0.4,1.5,1,2.2,1.5h-0.1c0.4-0.1,0.6-0.5,0.6-0.8c0-0.4-0.1-0.8-0.3-1.1c-0.5-0.6-1.3-1-1.9-1.5c-0.3-0.3-0.6-0.6-0.7-1
				c-0.2-0.4-0.2-0.9,0.1-1.3c0.2-0.4,0.7-0.6,1.1-0.5c0.4,0,0.8,0.2,1.2,0.4c0.8,0.4,1.2,1.2,1.7,1.8c0.5,0.6,1.2,1.1,2,1
				c0.8-0.1,1.3-0.9,1.4-1.7c0.2-0.8,0.1-1.6-0.3-2.3c-0.7-1.4-2-2.6-2.4-4.3c-0.1-0.8-0.1-1.7,0.4-2.4c0.4-0.8,1.4-1.1,2.3-0.8
				c0.8,0.3,1.4,1,1.8,1.7c0.4,0.7,0.8,1.4,1.3,2s1.2,1.1,2,0.8c0.4-0.1,0.7-0.3,0.9-0.6c0.2-0.3,0.3-0.7,0-1l-0.1-0.1l0.2-0.1
				l2.3-0.7l-0.1,0.2c-0.6-0.6-0.8-1.4-0.7-2.2c0.1-0.8,0.5-1.6,1.3-2s1.7-0.2,2.3,0.3c0.7,0.4,1.2,1.3,1,2.1l-0.3-0.1
				c0.5-0.7,0.4-1.7,0.2-2.5c-0.2-0.9-0.6-1.7-0.7-2.7c-0.1-0.9,0-1.9,0.6-2.7c0.3-0.4,0.8-0.6,1.3-0.7c0.5,0,1,0.2,1.4,0.4
				c0.8,0.6,1.2,1.5,1.3,2.4c0.2,0.9,0.3,1.8,0.6,2.6c0.3,0.8,1.1,1.4,1.9,1.6c0.4,0.1,0.8-0.1,1.1-0.4c0.3-0.3,0.4-0.7,0.5-1.2
				c0.1-0.9-0.1-1.8,0.1-2.7c0.1-0.5,0.4-1,0.9-1.2c0.5-0.2,1-0.1,1.5,0.1c0.4,0.3,0.8,0.6,1,1s0.4,0.9,0.5,1.3
				c0.3,0.8,0.7,1.7,1.5,2c0.4,0.2,0.8,0.2,1.1,0c0.3-0.2,0.4-0.6,0.5-1.1c0-0.4,0-0.9,0-1.4s0.3-1.1,0.8-1.3c0.5-0.2,1.1,0,1.4,0.4
				c0.4,0.3,0.6,0.9,0.6,1.3c0,1-0.4,1.8-0.6,2.7l-0.2-0.2c0.9,0,1.6-0.7,2.1-1.5c0.3-0.4,0.5-0.8,0.7-1.2c0.3-0.4,0.6-0.8,1-1.1
				s0.8-0.6,1.4-0.7c0.5-0.1,1.1,0.2,1.4,0.6c0.7,0.9,0.6,1.9,0.7,2.9c0.1,0.9,0.2,2,1.1,2.2c0.8,0.2,1.6-0.5,2.2-1.2
				s1.1-1.7,2.2-1.9c0.6-0.1,1.1,0.2,1.5,0.6c0.2,0.2,0.3,0.5,0.3,0.8s-0.1,0.6-0.4,0.8l-1.6,1l1.4-1.3c0.8-0.7,1.6-1.6,2.8-1.8
				c0.6-0.1,1.2-0.1,1.7,0.2c0.6,0.2,1,0.8,1.1,1.4c0.3,1.2-0.1,2.3,0.3,3.2c0.2,0.5,0.5,0.8,1,0.9c0.5,0,1-0.3,0.9-0.6l0.4-0.1
				l0.7,2.1l-0.4-0.1c0.5-0.5,1-0.9,1.6-1.3c0.6-0.3,1.4-0.5,2.1-0.2c0.3,0.1,0.7,0.4,0.9,0.7c0.2,0.3,0.3,0.7,0.2,1.1
				c-0.2,0.8-0.9,1.2-1.4,1.6c-0.3,0.2-0.6,0.3-0.8,0.5c-0.2,0.2-0.4,0.4-0.5,0.7c-0.1,0.3-0.1,0.5,0,0.7s0.3,0.4,0.6,0.4
				c0.5,0,1.2-0.3,1.7-0.6c0.6-0.3,1.2-0.7,2-0.6c0.4,0,0.8,0.3,1,0.7c0.2,0.4,0.1,0.8-0.1,1.2c-0.3,0.7-1,1.1-1.5,1.4
				c-0.5,0.3-1.1,0.8-1.2,1.3s0.3,1,0.9,1.1c0.6,0.1,1.2-0.1,1.7-0.4c0.5-0.3,1.1-0.8,1.7-1.1c1.3-0.6,2.9-0.3,4,0.7
				c1,1,1.3,2.7,0.6,4c-0.3,0.7-0.8,1.1-1.2,1.6c-0.3,0.5-0.4,1.2,0,1.5c0.2,0.2,0.5,0.2,0.8,0.1c0.3,0,0.7-0.1,1.1,0s0.8,0.6,0.6,1
				c-0.1,0.4-0.3,0.7-0.6,0.9c-0.3,0.2-0.6,0.4-0.9,0.5s-0.6,0.3-0.7,0.5c-0.2,0.2-0.2,0.5-0.1,0.7c0.1,0.2,0.3,0.4,0.6,0.6
				c0.5,0.3,1.2,0.6,1.7,1c0.3,0.2,0.5,0.6,0.5,1c0,0.4-0.2,0.8-0.4,1c-0.5,0.5-1.1,0.8-1.6,1.2s-0.9,0.9-0.6,1.4s1,0.6,1.6,0.7
				c0.6,0.1,1.4,0.3,1.9,0.9c0.4,0.6,0.4,1.5-0.1,2.1c-0.5,0.5-1.3,0.8-2.1,0.5l0.2-0.1l-0.7,1.2l-0.1-0.3c0.7,0.2,1.6,0.5,2,1.3
				c0.2,0.4,0.3,0.8,0.1,1.3c-0.1,0.2-0.2,0.4-0.4,0.5c-0.2,0.1-0.4,0.2-0.5,0.3c-0.2,0.2-0.3,0.5-0.1,0.8c0.1,0.3,0.4,0.5,0.8,0.6
				c0.3,0.1,0.7,0.2,1.1,0.4c0.4,0.2,0.7,0.4,1,0.7c1.1,1.1,1.5,3.1,0.4,4.5c-1,1.3-2.9,1.8-4.3,1.1c-0.4-0.2-0.7-0.4-1-0.5
				s-0.7-0.1-1,0.1c-0.6,0.4-0.2,1.3,0.5,1.6c0.6,0.4,1.5,0.4,2.1,1c0.3,0.3,0.5,0.7,0.4,1.2s-0.6,0.8-1,0.8
				c-0.9,0.1-1.6-0.3-2.3-0.3c-0.4,0-0.7,0.2-0.8,0.5c-0.1,0.3-0.1,0.7,0.1,1c0.1,0.3,0.3,0.7,0.6,1c0.2,0.3,0.4,0.7,0.6,1.1
				c0.1,0.4,0.2,0.8,0,1.2c-0.2,0.4-0.7,0.6-1.1,0.5c-0.8-0.1-1.5-0.6-2.2-0.5c-0.3,0.1-0.5,0.4-0.5,0.7c0,0.3,0.2,0.7,0.4,0.9
				c0.5,0.5,1.2,0.9,1.8,1.5c0.5,0.6,1,1.3,1,2.1c0,0.8-0.4,1.6-1.1,2.1c-0.4,0.2-0.8,0.3-1.2,0.1c-0.4-0.1-0.7-0.4-1-0.7
				c-0.3-0.3-0.5-0.5-0.9-0.6c-0.3-0.1-0.7-0.1-0.9,0.1c-0.2,0.2-0.2,0.6,0,0.9s0.4,0.6,0.6,0.9c1,1.3,0.2,3.5-1.4,3.9
				s-3.3-1.2-3-2.9c0.1-0.8,0.7-1.4,0.7-2.2c0-0.4-0.1-0.7-0.4-1c-0.3-0.2-0.6-0.2-0.9,0c-0.6,0.4-0.9,1.2-0.7,1.9
				c0.1,0.7,0.4,1.5,0.2,2.3v0.1H350c-0.3,0.1-0.6,0.1-0.9-0.1c-0.2-0.2-0.4-0.4-0.6-0.7c-0.3-0.5-0.4-1.1-0.6-1.6s-0.6-1-1.1-0.9
				c-0.5,0-0.8,0.6-1.1,1c-0.3,0.5-0.7,1-1.3,1c-0.3,0-0.6-0.2-0.8-0.5c-0.1-0.3-0.2-0.6-0.2-0.8c0-0.5,0-1.2-0.4-1.5s-1,0-1.4,0.4
				s-0.7,0.9-1.3,1.1c-0.3,0.1-0.6,0.1-0.9-0.1s-0.4-0.5-0.5-0.7c-0.2-0.6,0-1.1,0-1.7c0-0.5-0.1-1.1-0.6-1.3
				c-0.5-0.2-1,0.1-1.5,0.3c-0.3,0.1-0.6,0.2-0.8,0.1c-0.3,0-0.6-0.2-0.8-0.4c-0.4-0.4-0.6-0.9-1-1.3c-0.2-0.2-0.5-0.3-0.7-0.3
				c-0.3,0-0.5,0.1-0.6,0.3l-0.1,0.1l-0.1-0.1l-1.3-1.8h0.1c-0.4,0.1-0.9,0.3-1.4,0.3c-0.5,0.1-1,0-1.4-0.3
				c-0.4-0.2-0.7-0.7-0.6-1.2c0-0.5,0.2-0.9,0.2-1.4s-0.3-0.8-0.8-0.8c-0.4,0-0.9,0.2-1.1,0.6c-0.5,0.8-0.1,1.8,0.2,2.6v0.1h-0.1
				c-1.1-0.1-2.1-0.9-2.4-1.9c-0.4-1-0.1-2.2,0.7-3v0.1c-0.5-0.8-1.6-1-2.4-0.6c-0.4,0.2-0.7,0.6-0.8,1c-0.1,0.4-0.2,0.9-0.5,1.3
				s-0.9,0.5-1.3,0.3s-0.8-0.6-1-1c-0.4-0.9-0.1-1.9-0.1-2.8c0-0.5,0-0.9-0.2-1.3s-0.5-0.8-0.9-1s-0.9,0-1.3,0.3s-0.6,0.7-0.9,1
				c-0.3,0.4-0.6,0.8-0.9,1c-0.4,0.3-0.9,0.4-1.3,0.2c-0.5-0.2-0.7-0.7-0.7-1.2s0-0.9,0.1-1.4l0,0c-0.3-0.4-0.9-0.3-1.3,0
				s-0.7,0.7-1.1,1s-1,0.5-1.4,0.1c-0.4-0.3-0.6-0.8-0.7-1.3c-0.1-1,0.5-1.9,0.6-2.9c0.1-0.5,0-1-0.3-1.4s-0.7-0.7-1.2-0.8
				c-1-0.2-2,0.2-2.7,0.9c-0.7,0.7-1.3,1.5-1.9,2.3s-1.3,1.5-2.3,1.8C299.4,106,298.3,105.6,297.7,104.8z M297.7,104.8
				c0.6,0.7,1.7,1.2,2.7,0.9c1-0.3,1.7-1,2.3-1.8c0.6-0.8,1.1-1.6,1.9-2.3c0.7-0.7,1.7-1.1,2.7-0.9c0.5,0.1,1,0.3,1.2,0.8
				c0.3,0.4,0.3,0.9,0.3,1.4c-0.1,1-0.8,1.9-0.6,2.9c0.1,0.5,0.2,1,0.6,1.3s1,0.2,1.3-0.2c0.4-0.3,0.7-0.7,1.1-1s1-0.4,1.4,0l0,0
				l0,0c-0.1,0.4-0.2,0.9-0.1,1.4c0,0.4,0.2,0.9,0.7,1.1c0.4,0.2,0.9,0,1.3-0.2c0.4-0.3,0.7-0.6,0.9-1c0.3-0.4,0.5-0.8,0.9-1.1
				c0.4-0.3,0.9-0.5,1.3-0.3c0.5,0.2,0.8,0.6,0.9,1c0.2,0.4,0.2,0.9,0.2,1.4c0,0.9-0.3,1.9,0.1,2.7c0.2,0.4,0.5,0.8,0.9,0.9
				c0.4,0.2,0.9,0.1,1.2-0.3c0.3-0.4,0.3-0.8,0.5-1.3c0.1-0.5,0.4-0.9,0.8-1.1c0.8-0.4,2-0.3,2.5,0.6l0,0l0,0
				c-0.7,0.7-1,1.9-0.7,2.9s1.3,1.7,2.3,1.8l-0.1,0.1c-0.3-0.8-0.7-1.8-0.2-2.7c0.3-0.4,0.7-0.7,1.2-0.7c0.2,0,0.5,0.1,0.7,0.3
				c0.2,0.2,0.2,0.4,0.3,0.7c0,0.5-0.2,0.9-0.2,1.4c0,0.4,0.2,0.9,0.6,1.1c0.8,0.5,1.8,0.2,2.6-0.1l0,0l0,0l1.3,1.8h-0.1
				c0.1-0.3,0.5-0.4,0.8-0.4s0.6,0.1,0.8,0.3c0.5,0.4,0.7,0.9,1.1,1.3s1,0.4,1.5,0.2c0.5-0.2,1.1-0.5,1.7-0.3
				c0.3,0.1,0.5,0.4,0.6,0.6c0.1,0.3,0.1,0.6,0.1,0.8c0,0.6-0.1,1.1,0,1.6c0.1,0.3,0.2,0.5,0.4,0.6c0.2,0.1,0.5,0.2,0.7,0.1
				c0.5-0.2,0.8-0.6,1.2-1.1c0.2-0.2,0.4-0.4,0.7-0.5c0.3-0.1,0.6-0.1,0.9,0.1s0.4,0.5,0.4,0.8s0,0.6,0.1,0.8c0,0.3,0,0.5,0.2,0.8
				c0.1,0.2,0.3,0.4,0.6,0.4c0.5,0,0.9-0.5,1.2-0.9c0.3-0.4,0.6-1,1.3-1.1c0.3,0,0.6,0.1,0.8,0.3c0.2,0.2,0.4,0.5,0.5,0.7
				c0.2,0.5,0.3,1.1,0.6,1.5c0.3,0.4,0.7,0.9,1.2,0.7l-0.1,0.1c0.2-0.7-0.1-1.5-0.2-2.2c-0.2-0.8,0.1-1.7,0.8-2.1
				c0.3-0.2,0.9-0.2,1.2,0.1c0.3,0.3,0.4,0.7,0.4,1.1c0,0.8-0.5,1.5-0.7,2.2c-0.3,1.5,1.3,2.9,2.7,2.6c1.4-0.4,2.2-2.4,1.2-3.5
				c-0.2-0.3-0.5-0.6-0.7-1c-0.1-0.2-0.2-0.4-0.2-0.6s0.1-0.5,0.2-0.6c0.3-0.4,0.8-0.3,1.2-0.2c0.4,0.1,0.7,0.4,1,0.7
				c0.3,0.3,0.6,0.5,0.9,0.6s0.7,0.1,1-0.1c0.6-0.4,1-1.1,1-1.8c-0.1-0.7-0.5-1.4-1-1.9c-0.5-0.6-1.2-0.9-1.8-1.5
				c-0.3-0.3-0.5-0.7-0.5-1.1s0.3-0.9,0.7-1c0.9-0.1,1.6,0.4,2.3,0.5c0.3,0,0.7-0.1,0.8-0.4c0.2-0.3,0.1-0.7,0-1
				c-0.2-0.7-0.8-1.2-1.1-2c-0.1-0.4-0.2-0.8,0-1.2c0.2-0.4,0.7-0.7,1.1-0.7c0.8,0,1.6,0.4,2.3,0.3c0.3,0,0.6-0.2,0.7-0.5
				s-0.1-0.6-0.3-0.9c-0.5-0.5-1.3-0.6-2-1c-0.4-0.2-0.7-0.5-0.8-0.9c-0.2-0.4-0.1-1,0.3-1.2c0.4-0.3,0.8-0.3,1.3-0.1
				c0.4,0.1,0.7,0.3,1.1,0.5c1.3,0.7,3.1,0.2,3.9-1c0.9-1.2,0.6-3-0.4-4c-0.5-0.6-1.2-0.7-2-1c-0.4-0.1-0.8-0.4-1-0.8
				c-0.1-0.2-0.2-0.4-0.1-0.7c0-0.2,0.2-0.5,0.4-0.6c0.4-0.2,0.7-0.3,0.8-0.6c0.1-0.3,0.1-0.7-0.1-1c-0.3-0.6-1.1-0.9-1.8-1.1
				l-0.2-0.1l0.1-0.2l0.7-1.2l0.1-0.1l0.2,0.1c0.5,0.2,1.2,0.1,1.6-0.4c0.4-0.4,0.4-1.1,0.1-1.6s-1-0.6-1.6-0.8
				c-0.3-0.1-0.7-0.1-1-0.2c-0.3-0.1-0.7-0.3-0.9-0.7c-0.2-0.3-0.2-0.8,0-1.1c0.2-0.3,0.5-0.6,0.7-0.8c0.6-0.4,1.1-0.7,1.6-1.2
				c0.4-0.4,0.4-1.1-0.1-1.5c-0.5-0.4-1.1-0.6-1.7-1c-0.3-0.2-0.6-0.4-0.8-0.8c-0.2-0.4-0.1-0.8,0.2-1.2c0.5-0.6,1.3-0.7,1.7-1.1
				c0.2-0.2,0.4-0.4,0.5-0.7c0-0.2-0.1-0.4-0.3-0.5c-0.5-0.2-1.3,0.3-2-0.2c-0.7-0.6-0.5-1.5-0.1-2.1c0.4-0.6,0.9-1,1.1-1.6
				c0.5-1.1,0.3-2.6-0.6-3.4c-0.9-0.9-2.3-1.1-3.4-0.6c-0.6,0.3-1.1,0.7-1.6,1.1c-0.6,0.4-1.3,0.7-2.1,0.5c-0.4-0.1-0.7-0.2-1-0.5
				c-0.3-0.3-0.4-0.7-0.3-1.1c0.2-0.8,0.9-1.2,1.4-1.6c0.6-0.3,1.1-0.7,1.4-1.2c0.1-0.3,0.2-0.5,0.1-0.7c-0.1-0.2-0.3-0.4-0.6-0.4
				c-0.5-0.1-1.2,0.3-1.7,0.6c-0.6,0.3-1.2,0.6-2,0.7c-0.1,0-0.2,0-0.3,0l-0.3-0.1c-0.2-0.1-0.3-0.3-0.4-0.5c-0.2-0.4-0.1-0.8,0-1.2
				c0.3-0.7,1-1.1,1.5-1.5c0.5-0.3,1.1-0.7,1.2-1.3c0.1-0.5-0.3-1.1-0.8-1.3s-1.2-0.1-1.7,0.2c-0.6,0.3-1,0.7-1.5,1.2l-0.3,0.3
				l-0.1-0.3l-0.7-2.1l0.4-0.1c0,0.4-0.2,0.7-0.5,0.9s-0.6,0.2-0.9,0.2s-0.7-0.1-0.9-0.4c-0.2-0.2-0.4-0.5-0.5-0.8
				c-0.4-1.1,0-2.3-0.3-3.3c-0.1-0.5-0.4-0.9-0.9-1.1c-0.4-0.2-1-0.2-1.5-0.1c-1,0.2-1.8,1-2.6,1.7l-0.3-0.3c0.3-0.2,0.2-0.6,0-0.9
				c-0.3-0.3-0.7-0.5-1-0.4c-0.8,0.2-1.4,1-2,1.8c-0.3,0.4-0.7,0.8-1.1,1c-0.4,0.3-1,0.5-1.5,0.3c-0.5-0.1-1-0.6-1.1-1.1
				c-0.2-0.5-0.2-1-0.3-1.5c-0.1-0.9,0-2-0.6-2.6c-0.3-0.3-0.7-0.5-1.1-0.5s-0.8,0.3-1.2,0.6c-0.3,0.3-0.6,0.7-0.9,1
				c-0.2,0.4-0.5,0.8-0.7,1.2c-0.3,0.4-0.6,0.8-1,1.1c-0.4,0.3-0.9,0.5-1.4,0.5h-0.2v-0.2c0.2-0.9,0.6-1.8,0.6-2.6
				c0.1-0.8-0.8-1.6-1.5-1.4c-0.3,0.1-0.5,0.5-0.6,0.9c0,0.4,0,0.9,0,1.4s-0.2,1-0.6,1.3c-0.5,0.3-1,0.2-1.5,0.1
				c-0.5-0.2-0.9-0.5-1.1-0.9c-0.3-0.4-0.4-0.9-0.6-1.3c-0.3-0.9-0.6-1.7-1.4-2.1c-0.4-0.2-0.8-0.3-1.1-0.1
				c-0.4,0.2-0.6,0.5-0.7,0.9c-0.2,0.8,0,1.8-0.1,2.7c-0.1,0.5-0.2,1-0.5,1.3c-0.3,0.4-0.9,0.6-1.4,0.5c-1-0.1-1.8-0.9-2.1-1.8
				c-0.4-0.9-0.4-1.8-0.6-2.7s-0.5-1.7-1.2-2.3c-0.6-0.6-1.7-0.5-2.2,0.2c-0.5,0.7-0.6,1.6-0.5,2.5c0.1,0.9,0.5,1.7,0.7,2.6
				s0.3,1.9-0.3,2.7l-0.4,0.6l0.1-0.7c0.1-0.7-0.3-1.4-0.9-1.8c-0.6-0.4-1.4-0.6-2-0.2c-0.7,0.3-1,1-1.1,1.8c-0.1,0.7,0.1,1.5,0.7,2
				l0.2,0.2l-0.2,0.1l-2.3,0.7l0.1-0.2c0.1,0.2,0.2,0.4,0.2,0.7c0,0.2-0.1,0.4-0.2,0.6c-0.3,0.4-0.6,0.6-1,0.7
				c-0.4,0.1-0.9,0.1-1.3-0.1s-0.7-0.5-1-0.8c-0.5-0.6-0.9-1.4-1.3-2.1c-0.4-0.7-1-1.3-1.7-1.6c-0.7-0.3-1.6,0-2,0.7
				c-0.4,0.7-0.5,1.5-0.4,2.3c0.3,1.6,1.6,2.7,2.3,4.2c0.4,0.7,0.5,1.6,0.3,2.4s-0.7,1.6-1.6,1.8c-0.4,0.1-0.9,0-1.2-0.2
				c-0.4-0.2-0.7-0.5-0.9-0.8c-0.6-0.6-0.9-1.4-1.6-1.7c-0.3-0.2-0.7-0.3-1.1-0.4c-0.4,0-0.8,0.1-1,0.5c-0.4,0.7,0.1,1.5,0.6,2
				c0.6,0.5,1.4,0.8,1.9,1.5c0.3,0.3,0.4,0.8,0.3,1.2c0,0.4-0.3,0.9-0.7,1l0,0l0,0c-0.7-0.6-1.4-1.1-2.2-1.5
				c-0.8-0.4-1.7-0.6-2.5-0.5c-0.9,0.1-1.7,0.6-2,1.4s-0.1,1.9,0.7,2.3h-0.1c0.7-1.1,2.2-1.5,3.3-1c0.6,0.2,1,0.8,1.2,1.4
				c0.2,0.6,0.1,1.3-0.1,1.8c-0.2,0.6-0.7,1.1-1.3,1.3c-0.6,0.2-1.2,0.2-1.8,0.2c-0.6-0.1-1.2-0.2-1.8-0.2c-0.6,0-1.2,0.1-1.7,0.4
				s-0.9,0.8-0.8,1.4c0.1,0.6,0.5,1.1,0.9,1.5c0.4,0.4,0.9,0.8,1.3,1.3c0.2,0.2,0.4,0.5,0.4,0.8c0,0.3,0,0.6-0.2,0.9
				c-0.3,0.6-1,0.7-1.6,0.7s-1.2-0.1-1.8-0.2c-0.6-0.1-1.2-0.1-1.8,0.1c-0.6,0.2-0.9,0.8-0.8,1.4c0.2,0.6,0.7,1,1.2,1.2
				c0.5,0.3,1.1,0.4,1.7,0.6c0.6,0.2,1.1,0.5,1.4,1.1s0.2,1.2,0,1.8c-0.2,0.6-0.5,1.1-0.7,1.7s-0.4,1.2-0.2,1.8
				c0.2,0.6,0.7,1,1.3,1.2c0.6,0.2,1.2,0.1,1.8,0c1.2-0.2,2.3-0.8,3.6-0.6c0.6,0.1,1.1,0.5,1.5,1c0.3,0.5,0.5,1.1,0.7,1.7
				c0.3,1.2,0.4,2.5,1.3,3.3c0.4,0.4,1.1,0.6,1.7,0.4c0.6-0.1,1.1-0.7,1-1.3l0,0l0,0L297.7,104.8z"/>
		</g>
	</g>
	<g>
		<path d="M251.2,86.6c1.1,0.3,1.7,1.9,1,2.8c-0.6,0.8-1.7,1-2.8,1.1c-1,0.1-2.1,0.1-2.9,0.8c-0.8,0.7-0.7,2.2,0.3,2.5
			c-1.6-0.6-3.9-1-4.7,0.5c-0.7,1.3-0.1,3.7-1.5,3.9c-1.9,0.2-1.3-3.8-3.1-4.2c-1.2-0.3-1.9,1.3-1.6,2.5c0.4,1.1,1.3,1.9,1.9,3
			s0.5,2.7-0.6,3c-1.2,0.4-2.2-0.9-2.9-1.9s-2.5-1.8-3.1-0.7c-0.5,0.9,0.5,1.9,1.3,2.7c0.8,0.8,1.1,2.5,0,2.6
			c-0.8,0.1-1.4-0.9-2.1-0.7c-0.5,0.1-0.7,0.7-0.8,1.3c-0.1,0.5-0.2,1.1-0.6,1.4c-0.4,0.3-1.2-0.4-0.8-0.7c-0.6-0.3-1.3,0.6-1.1,1.2
			s0.8,1.1,1.3,1.6s0.8,1.4,0.3,1.9c-0.7,0.7-1.9-0.2-2.3-1.1c-0.5-0.9-1.3-2-2.2-1.5c-0.7,0.3-0.7,1.4-0.4,2.1s0.7,1.5,0.5,2.3
			s-1.6,1-1.7,0.2c-0.2,2.4-2.1,4.3-2.5,6.6c-0.4,2,0.3,4.1,0.7,6.1c0.5,3.3-0.2,7.1-2.9,9.2c-2.6,2.1-7.3,1.5-8.5-1.6
			c-0.4-0.9-0.4-1.9-1-2.7c-0.5-0.8-1.8-1.2-2.4-0.5c-0.4,0.5-0.2,1.3-0.3,2c-0.1,1.6-2.1,2.7-3.5,2s-1.8-2.9-0.6-4
			c-0.7,0.2-1.4,0.3-2.1,0.5c-1.3-1-0.1-3.1,1.1-4.2c-1.4,0.4-3.1-0.1-4-1.3c-0.9-1.2-1.1-2.9-0.4-4.2c-0.3-0.2-0.8-0.2-1.1,0
			c-0.4-1.6,2.1-2.9,3.2-1.8c0.5-0.9,0.6-1.9,0.2-2.8c-0.4-0.9-1.4-1.5-2.4-1.3s-1.6,1.2-2.3,2s-2,1.3-2.7,0.6
			c-0.5-0.5-0.4-1.4-0.1-2.1c0.3-0.7,0.9-1.2,1.2-1.9s0.4-1.6-0.2-2s-1.7,0.1-1.4,0.8c-0.6-1.1,0.2-2.5,1-3.5
			c-2,1.1-4.9-0.1-5.5-2.3c-0.6-2.2,1.2-4.8,3.5-4.9c0.8,0.2,1.1-1,0.7-1.7c-0.4-0.7-1.1-1.3-1-2.1c0.2-0.9,1.5-1.1,2.2-0.6
			s1.1,1.4,1.5,2.2c0.6-0.1,0.9-0.9,0.7-1.4c-0.2-0.6-0.6-1-0.9-1.6c-0.3-0.5-0.4-1.3,0-1.7c0.5-0.4,1.2-0.3,1.8,0.1
			c0.5,0.4,1,0.8,1.6,1c1.2,0.3,2.3-1,2.1-2.2c-0.2-1.2-1.5-1.9-2.7-1.8c-0.7,0.1-1.4,0.5-2.2,0.5c-1.3,0-2.4-1.1-2.5-2.3
			c-0.1-1.2,0.7-2.5,1.8-3.1c1.1-0.6,2.5-0.5,3.7,0.1c0.7,0.3,1.3,0.8,2,0.9c0.7,0.1,1.6-0.3,1.6-1c0.1-1.2-2.2-1.9-1.7-3.1
			c0.3-0.7,1.2-0.7,1.9-0.4c0.7,0.3,1.4,0.7,2,0.4c0.8-0.3,1-1.5,0.6-2.3s-1.3-1.2-2.1-1.5s-1.7-0.6-2.3-1.3
			c-1.1-1.2-0.9-3.4,0.5-4.2s3.5-0.2,4,1.4c0.3,0.9,0.2,2,0.8,2.7c0.5,0.7,1.6,0.8,2.3,0.3s0.9-1.6,0.4-2.3
			c-0.3-0.4-0.7-0.7-1.1-1.1c-0.3-0.4-0.5-1-0.2-1.4c0.4-0.5,1.3-0.2,1.7,0.4c0.4,0.5,0.7,1.2,1.4,1.5c0.8,0.3,1.8-0.3,1.9-1.2
			c0.2-0.8-0.3-1.7-0.9-2.3c-0.9-0.7-2.1-0.9-3-1.6c-0.9-0.7-1.4-2.2-0.5-2.9c1.3-0.9,3.5,1.1,4.6,0c0.8-0.8,0-2.3,0.7-3.3
			c0.5-0.7,1.8-0.6,2.5,0s1,1.5,1.3,2.4s0.8,1.8,1.6,2.2c0.8,0.4,2.1,0,2.2-0.9c0.1-0.9-1-1.6-1.2-2.5c-0.3-1.3,1.4-2.2,2.6-1.8
			c1.2,0.5,1.8,1.8,2.9,3.3c0.2-0.7,0.4-1.5,0.9-2.1c0.5-0.6,1.5-0.7,2-0.2c0.3,0.3,0.4,0.7,0.7,0.9c0.6,0.4,1.5-0.3,1.5-1
			s-0.3-1.5-0.5-2.2s0-1.7,0.7-1.9c1.4-0.5,2.3,2.2,3.7,1.9c0.8-0.2,1-1.3,1.1-2.1c0.1-0.8,0.5-1.9,1.3-1.9c0.7,0,1.1,0.7,1.6,1.2
			s1.3,0.8,1.7,0.3c0.1-0.2,0.1-0.5,0.2-0.7c0.2-0.7,0.8-1.2,1.5-1.2s1.4,0.5,1.5,1.2c0.2,0.9-0.4,1.8-1,2.5s-1.3,1.4-1.3,2.3
			c0,0.9,1,1.9,1.7,1.4c0.8-0.5,0.6-2,1.5-2.2c0.8-0.2,1.2,0.8,1.3,1.6s0.3,1.8,1.1,1.8c0.6,0,1-0.5,1.1-1.1c0.1-0.5,0-1.1,0-1.7
			c0-1.5,1.3-3,2.8-3.1c1.5,0,2.9,1.7,2.4,3.1c-0.3,0.8-1,1.4-1.3,2.1c-0.3,0.8,0.1,2,0.9,1.9c0.9-0.1,1-1.5,1.8-1.8
			c0.7-0.3,1.5,0.5,1.5,1.2s-0.4,1.5-0.8,2.4c0.9,0.5,2-0.1,2.9-0.7c0.9-0.6,2.3-1,2.9-0.1c0.5,0.7,0.1,1.7-0.3,2.4
			c-0.4,0.7-0.8,1.8-0.1,2.4c0.6,0.6,1.6,0.3,2.3-0.2s1.2-1.2,2.1-1.4c0.8-0.2,1.6,0.2,2,0.9s0.2,1.6-0.4,2.2
			c-0.3,0.3-0.7,0.4-1,0.7s-0.5,0.7-0.3,1.1s0.7,0.4,1.1,0.3c0.4-0.1,0.8-0.4,1.2-0.4c0.7-0.1,1.5,0.3,1.8,0.9
			c0.3,0.6,0,1.5-0.5,1.9c-0.4,0.3-0.9,0.4-1.4,0.7s-0.6,1-0.2,1.3c0.3,0.2,0.7,0,1.1,0c0.9,0,1.3,1.3,0.8,2.1
			c-0.5,0.8-1.4,1.1-2.3,1.3C259.7,86.7,255.4,86.8,251.2,86.6z"/>
		<g>
			<path class="st0" d="M251.2,86.6c1,0.3,1.6,1.6,1.1,2.6c-0.2,0.5-0.7,0.8-1.1,1c-0.5,0.2-1,0.3-1.5,0.3c-1,0.1-2.1,0.1-3,0.7
				c-0.4,0.3-0.6,0.8-0.6,1.3s0.3,1.1,0.8,1.2v0.1c-0.9-0.3-1.8-0.6-2.8-0.6c-0.5,0-1,0.1-1.3,0.4c-0.4,0.3-0.6,0.7-0.7,1.2
				c-0.3,0.9-0.1,1.9-0.6,2.8c-0.3,0.4-0.9,0.6-1.3,0.4c-0.5-0.2-0.7-0.7-0.8-1.2c-0.3-0.9-0.5-1.9-1.1-2.6
				c-0.3-0.3-0.9-0.5-1.3-0.2c-0.4,0.2-0.7,0.6-0.8,1.1c-0.3,0.9,0.2,1.9,0.8,2.6c0.6,0.8,1.3,1.5,1.4,2.5c0.1,0.5,0,1-0.2,1.5
				s-0.7,0.8-1.2,0.8s-1-0.3-1.4-0.6c-0.4-0.3-0.7-0.7-1-1.1c-0.5-0.8-1.3-1.5-2.2-1.6c-0.5-0.1-0.9,0.2-1,0.6
				c-0.2,0.4,0,0.9,0.3,1.3s0.6,0.7,1,1.1c0.4,0.3,0.6,0.8,0.8,1.3c0.1,0.5,0.2,1.1-0.3,1.5c-0.5,0.3-1.1,0-1.5-0.2
				c-0.4-0.3-0.9-0.5-1.2-0.3c-0.4,0.2-0.5,0.7-0.5,1.2c-0.1,0.5-0.1,1-0.6,1.4c-0.3,0.2-0.6,0.1-0.8-0.1c-0.1-0.1-0.2-0.2-0.3-0.4
				c-0.1-0.2,0-0.4,0.1-0.5v0.2c-0.3-0.2-0.6,0.1-0.8,0.4s-0.2,0.7,0,1c0.4,0.7,1.1,1.1,1.5,1.9c0.2,0.4,0.3,0.9,0,1.3
				c-0.2,0.4-0.8,0.6-1.2,0.4c-0.8-0.3-1.4-1-1.7-1.7c-0.2-0.3-0.5-0.6-0.7-0.9c-0.3-0.2-0.6-0.4-1-0.3c-0.3,0.1-0.6,0.4-0.6,0.8
				c-0.1,0.4,0,0.8,0.1,1.1c0.2,0.7,0.7,1.5,0.6,2.4c-0.1,0.5-0.5,0.8-0.9,0.9c-0.2,0.1-0.4,0.1-0.7,0c-0.2-0.1-0.4-0.3-0.4-0.6h0.3
				c-0.2,2.2-1.7,3.9-2.3,5.9c-0.7,2-0.1,4.1,0.3,6.1c0.4,2.1,0.4,4.3-0.3,6.3s-2.1,3.9-4.1,4.6s-4.4,0.4-6.1-1
				c-0.8-0.7-1.2-1.8-1.4-2.8c-0.1-0.5-0.3-1-0.6-1.4c-0.3-0.4-0.7-0.7-1.2-0.7c-0.5-0.1-0.9,0.2-1.1,0.6c-0.1,0.4,0,1-0.1,1.5
				c-0.1,1.2-1,2.1-2.1,2.4c-0.5,0.1-1.1,0.1-1.7-0.1c-0.5-0.2-0.9-0.7-1.2-1.2c-0.5-1-0.4-2.3,0.5-3.1l0.2,0.3l-2.1,0.5h-0.1
				l-0.1-0.1c-0.4-0.3-0.6-0.7-0.6-1.2s0.1-0.9,0.3-1.3c0.3-0.8,0.9-1.5,1.5-2.1l0.2,0.3c-1.5,0.4-3.2-0.1-4.2-1.3
				c-1-1.2-1.1-3-0.4-4.4l0.1,0.3c-0.3-0.2-0.7-0.2-0.9,0l-0.2,0.2l-0.1-0.3c-0.1-0.4,0-0.9,0.2-1.3s0.6-0.7,0.9-0.9
				c0.4-0.2,0.8-0.3,1.2-0.3s0.9,0.2,1.2,0.5h-0.3c0.4-0.7,0.5-1.6,0.3-2.4s-0.9-1.4-1.7-1.5s-1.5,0.4-2,1.1c-0.3,0.3-0.5,0.7-0.9,1
				c-0.3,0.3-0.7,0.6-1.2,0.7c-0.4,0.2-1,0.2-1.4,0c-0.5-0.2-0.7-0.7-0.8-1.2c0-0.5,0.1-0.9,0.3-1.4c0.2-0.4,0.5-0.7,0.7-1.1
				c0.2-0.3,0.5-0.7,0.6-1.1s0.1-0.8,0-1.1c-0.2-0.3-0.5-0.5-0.8-0.4c-0.4,0.1-0.6,0.4-0.5,0.6l-0.4,0.2c-0.4-0.7-0.3-1.5,0-2.1
				s0.6-1.2,1-1.7l0.3,0.3c-1.1,0.6-2.4,0.5-3.5,0.1c-1.1-0.5-2-1.4-2.4-2.5c-0.3-1.2,0-2.5,0.7-3.4c0.7-1,1.8-1.7,3-1.8l0,0l0,0
				c0.3,0.1,0.5-0.2,0.5-0.5c0.1-0.4,0-0.7-0.2-1s-0.5-0.7-0.7-1.1s-0.3-1,0-1.4s0.8-0.6,1.2-0.7c0.5,0,1,0.1,1.3,0.4
				c0.7,0.6,1,1.5,1.4,2.2l-0.2-0.1c0.4,0,0.6-0.7,0.5-1.2c-0.2-0.5-0.6-0.9-0.9-1.5c-0.2-0.3-0.3-0.6-0.3-1c0-0.3,0.1-0.8,0.4-1
				c0.3-0.3,0.7-0.3,1-0.3s0.7,0.2,0.9,0.4c0.5,0.4,1,0.8,1.5,1s1,0,1.4-0.4s0.6-0.9,0.5-1.5c-0.1-0.5-0.5-1-0.9-1.3
				c-0.5-0.3-1-0.4-1.6-0.3s-1.1,0.4-1.8,0.5c-1.4,0.2-2.7-0.8-3-2.1s0.3-2.7,1.4-3.5c1.1-0.8,2.5-0.8,3.7-0.5
				c0.6,0.2,1.2,0.5,1.7,0.8c0.5,0.3,1.1,0.4,1.6,0.2c0.2-0.1,0.5-0.2,0.6-0.4s0.1-0.4,0-0.7c-0.2-0.5-0.7-0.8-1.2-1.3
				c-0.2-0.2-0.5-0.5-0.5-0.9s0.1-0.8,0.5-1c0.7-0.4,1.4-0.2,2,0.1c0.6,0.2,1.1,0.5,1.6,0.4s0.8-0.7,0.7-1.2c0-0.5-0.3-1-0.7-1.4
				c-0.4-0.4-1-0.6-1.5-0.8c-0.6-0.2-1.2-0.4-1.7-0.8c-0.5-0.3-1-0.9-1.2-1.5c-0.4-1.2,0-2.8,1.1-3.5c1.1-0.8,2.7-0.5,3.7,0.3
				c0.5,0.4,0.8,1.1,0.9,1.7c0.1,0.6,0.2,1.2,0.4,1.7c0.4,1,2.1,1.2,2.6,0.2c0.3-0.5,0.3-1.1,0.1-1.5c-0.2-0.5-0.8-0.8-1.2-1.3
				c-0.2-0.3-0.3-0.6-0.3-1s0.3-0.8,0.7-0.8c0.8-0.1,1.4,0.4,1.7,0.9c0.4,0.5,0.7,1,1.2,1.2s1.1-0.1,1.4-0.6c0.3-0.4,0.3-1,0.1-1.5
				s-0.6-0.9-1.1-1.2c-1-0.6-2.3-0.8-3.2-1.9c-0.4-0.5-0.6-1.2-0.5-1.9c0.1-0.7,0.9-1.2,1.6-1.1c0.7,0,1.2,0.3,1.8,0.4
				c0.6,0.2,1.2,0.3,1.6-0.1c0.4-0.3,0.4-0.9,0.4-1.5c0-0.6-0.1-1.3,0.4-1.9c0.5-0.6,1.3-0.6,1.9-0.4c0.6,0.2,1.1,0.7,1.4,1.3
				c0.6,1.1,0.8,2.4,1.6,3.2c0.4,0.4,0.9,0.7,1.5,0.6c0.5,0,1.1-0.4,1.1-0.9s-0.4-1-0.7-1.5c-0.2-0.3-0.3-0.6-0.4-0.9
				c-0.1-0.3,0-0.7,0.2-1c0.3-0.6,1-1,1.6-1.1c0.7-0.1,1.4,0.1,1.8,0.5c1,0.8,1.5,2,2.3,2.9l-0.3,0.1c0.2-0.7,0.4-1.5,0.9-2.1
				c0.5-0.6,1.5-0.9,2.3-0.3c0.3,0.3,0.4,0.7,0.7,0.9c0.2,0.2,0.5,0.2,0.8,0s0.5-0.5,0.5-0.8c0.1-0.3,0-0.7-0.1-1
				c-0.2-0.7-0.6-1.4-0.4-2.2c0.1-0.4,0.3-0.8,0.7-1s0.9-0.2,1.2,0c0.7,0.4,1.1,1,1.7,1.5c0.3,0.2,0.6,0.4,0.9,0.3
				c0.3,0,0.6-0.2,0.7-0.5c0.4-0.6,0.3-1.4,0.5-2.1c0.1-0.4,0.2-0.7,0.5-1.1c0.3-0.3,0.8-0.5,1.2-0.3c0.8,0.3,1.1,1.1,1.7,1.5
				c0.3,0.2,0.6,0.3,0.9,0.2c0.3-0.1,0.3-0.4,0.4-0.8c0.2-0.8,1-1.4,1.8-1.3s1.5,0.8,1.6,1.6c0.1,0.8-0.4,1.5-0.9,2.1
				c-0.5,0.6-1,1.1-1.3,1.8c-0.1,0.3-0.2,0.7-0.2,1c0.1,0.3,0.3,0.6,0.5,0.8c0.3,0.2,0.6,0.3,0.9,0.1c0.3-0.1,0.4-0.5,0.6-0.8
				c0.1-0.3,0.2-0.7,0.5-1.1c0.2-0.4,0.8-0.5,1.2-0.3c0.8,0.5,0.8,1.4,0.9,2.1c0.1,0.3,0.2,0.7,0.4,1c0.2,0.3,0.5,0.4,0.8,0.2
				c0.3-0.1,0.5-0.4,0.6-0.8c0.1-0.3,0.1-0.7,0-1.1c-0.3-1.5,0.6-3.2,2.1-3.8c0.7-0.3,1.6-0.2,2.2,0.3c0.6,0.4,1.1,1.1,1.2,1.9
				c0.2,1.7-1.9,2.5-1.5,4c0.1,0.3,0.3,0.7,0.6,0.7c0.3,0.1,0.6-0.1,0.8-0.4s0.4-0.6,0.6-0.9c0.2-0.3,0.6-0.6,1-0.6
				c0.9,0.1,1.4,1,1.2,1.8c-0.1,0.8-0.5,1.4-0.8,2.1v-0.1c0.4,0.3,1,0.2,1.5,0c0.5-0.2,1-0.5,1.4-0.8c0.5-0.3,1-0.5,1.6-0.5
				c0.3,0,0.6,0,0.9,0.2c0.3,0.1,0.5,0.4,0.6,0.7c0.2,0.6,0,1.2-0.2,1.7s-0.5,1-0.7,1.5s-0.2,1.1,0.2,1.4c0.4,0.4,1,0.3,1.5,0.1
				c1-0.4,1.6-1.5,2.8-1.7c0.6-0.1,1.2,0.1,1.6,0.4c0.4,0.4,0.7,1,0.6,1.5c0,0.6-0.3,1.1-0.8,1.4c-0.5,0.3-1,0.6-1.1,1.1
				c-0.1,0.2,0,0.5,0.2,0.7c0.2,0.2,0.5,0.2,0.7,0.2c0.5-0.1,1-0.5,1.6-0.5s1.1,0.3,1.5,0.7c0.3,0.5,0.3,1.1,0.1,1.6
				c-0.2,0.5-0.8,0.8-1.3,1c-0.2,0.1-0.5,0.2-0.7,0.4c-0.2,0.2-0.3,0.5-0.3,0.7c0,0.3,0.2,0.5,0.5,0.5s0.5-0.1,0.8-0.1
				c0.6,0,1,0.7,1,1.2c0,0.3,0,0.6-0.1,0.8c-0.1,0.3-0.3,0.5-0.5,0.6c-0.4,0.3-1,0.5-1.5,0.7C260.1,86.7,255.6,86.8,251.2,86.6z
				 M251.2,86.6c4.4,0.2,8.8,0,13.1-1.1c0.5-0.1,1-0.3,1.5-0.7c0.4-0.3,0.7-0.9,0.6-1.4c0-0.5-0.4-1.1-0.9-1.1
				c-0.3,0-0.5,0.1-0.8,0.1s-0.6-0.2-0.6-0.5c0-0.3,0.1-0.6,0.3-0.8c0.2-0.2,0.5-0.3,0.7-0.4c0.5-0.2,1-0.4,1.2-1
				c0.2-0.5,0.2-1.1-0.1-1.5c-0.3-0.4-0.8-0.7-1.4-0.7c-0.5,0-1,0.4-1.6,0.5c-0.3,0-0.6,0-0.8-0.2c-0.3-0.2-0.3-0.5-0.2-0.8
				c0.2-0.6,0.8-0.8,1.2-1.2c0.4-0.3,0.7-0.8,0.7-1.3c0.1-1.1-1-2-2.1-1.8s-1.7,1.3-2.8,1.7c-0.5,0.2-1.2,0.3-1.7-0.2
				c-0.5-0.4-0.4-1.1-0.3-1.6c0.1-0.6,0.5-1,0.7-1.5s0.4-1,0.2-1.5c-0.2-0.5-0.7-0.7-1.2-0.7s-1,0.2-1.5,0.5
				c-0.5,0.3-0.9,0.6-1.5,0.8c-0.5,0.2-1.2,0.3-1.7,0l-0.1-0.1V70c0.3-0.7,0.7-1.3,0.8-2s-0.4-1.4-1-1.5c-0.3,0-0.6,0.2-0.8,0.5
				s-0.4,0.6-0.6,0.9c-0.2,0.3-0.7,0.6-1.1,0.5c-0.4-0.1-0.7-0.5-0.8-0.9s-0.1-0.8,0.1-1.2c0.2-0.4,0.4-0.7,0.6-0.9
				c0.5-0.6,0.9-1.2,0.8-1.9c-0.2-1.4-1.8-2.5-3.1-2s-2.2,2-1.9,3.5c0,0.4,0.1,0.8,0,1.2s-0.3,0.8-0.7,0.9c-0.4,0.2-0.9,0-1.2-0.3
				c-0.3-0.3-0.4-0.7-0.4-1.1c-0.1-0.4-0.1-0.7-0.2-1.1c-0.1-0.3-0.3-0.7-0.6-0.8s-0.6,0-0.8,0.2c-0.2,0.3-0.3,0.6-0.4,1
				c-0.1,0.3-0.3,0.7-0.7,1c-0.4,0.2-0.9,0.1-1.2-0.2c-0.3-0.2-0.6-0.6-0.6-1c-0.1-0.4,0-0.8,0.2-1.2c0.3-0.7,0.9-1.3,1.3-1.8
				c0.4-0.6,0.9-1.2,0.8-1.9c0-0.7-0.6-1.3-1.3-1.3c-0.7-0.1-1.3,0.4-1.5,1.1c0,0.2-0.1,0.4-0.1,0.6c-0.1,0.2-0.2,0.4-0.4,0.5
				c-0.4,0.2-0.9,0-1.2-0.2c-0.4-0.2-0.6-0.5-0.8-0.8c-0.2-0.3-0.5-0.5-0.8-0.6c-0.7-0.2-1.2,0.5-1.3,1.2c-0.2,0.7-0.1,1.5-0.5,2.2
				c-0.2,0.3-0.6,0.7-1,0.7c-0.4,0.1-0.8-0.1-1.1-0.4c-0.6-0.5-1.1-1.1-1.7-1.4c-0.3-0.2-0.6-0.2-0.9,0c-0.3,0.1-0.4,0.5-0.5,0.8
				c-0.1,0.7,0.2,1.4,0.4,2.1c0.1,0.4,0.2,0.8,0.1,1.2c-0.1,0.4-0.3,0.8-0.7,1c-0.3,0.2-0.9,0.3-1.2-0.1c-0.3-0.3-0.4-0.7-0.6-0.9
				c-0.5-0.4-1.3-0.2-1.8,0.3s-0.7,1.2-0.8,1.9l-0.1,0.4l-0.2-0.3c-0.7-1-1.3-2.1-2.2-2.8c-0.5-0.4-1-0.6-1.6-0.5
				c-0.5,0.1-1.1,0.4-1.3,0.9c-0.3,0.5-0.1,1,0.2,1.5s0.8,1,0.8,1.7c0,0.4-0.2,0.7-0.5,0.9s-0.6,0.3-0.9,0.4
				c-0.7,0.1-1.4-0.3-1.8-0.7c-0.9-1-1-2.3-1.6-3.3c-0.3-0.5-0.7-0.9-1.2-1.1c-0.5-0.2-1.2-0.1-1.5,0.3c-0.3,0.4-0.3,1-0.3,1.6
				c0,0.3,0,0.6-0.1,1c-0.1,0.3-0.2,0.7-0.5,0.9c-0.3,0.2-0.6,0.3-1,0.3c-0.3,0-0.6-0.1-0.9-0.2c-0.6-0.2-1.2-0.4-1.7-0.4
				s-1.1,0.3-1.2,0.8c-0.1,0.5,0.1,1.1,0.4,1.5c0.7,0.9,2,1.1,3.1,1.8c0.5,0.3,1,0.8,1.3,1.4c0.3,0.6,0.3,1.4-0.1,1.9
				c-0.4,0.5-1.1,0.9-1.8,0.7s-1-0.9-1.4-1.3c-0.3-0.5-0.8-0.8-1.3-0.7c-0.2,0-0.4,0.2-0.4,0.5c0,0.2,0.1,0.5,0.2,0.7
				c0.3,0.4,0.9,0.7,1.3,1.4c0.3,0.6,0.3,1.4-0.1,2c-0.7,1.3-2.8,1.1-3.4-0.3c-0.3-0.6-0.3-1.3-0.4-1.8c-0.1-0.6-0.4-1.1-0.8-1.4
				c-0.8-0.7-2.2-0.9-3.1-0.3c-0.9,0.6-1.3,2-0.9,3c0.3,1.1,1.5,1.6,2.7,2c0.6,0.2,1.2,0.5,1.7,0.9s0.9,1,0.9,1.7
				c0,0.7-0.3,1.5-1.1,1.6c-0.7,0.2-1.4-0.2-1.9-0.4c-0.5-0.2-1.1-0.3-1.5-0.1c-0.2,0.1-0.3,0.3-0.3,0.6c0,0.2,0.2,0.4,0.4,0.6
				c0.4,0.4,0.9,0.8,1.2,1.4c0.1,0.3,0.2,0.7,0,1.1c-0.2,0.3-0.5,0.5-0.8,0.7c-0.7,0.3-1.4,0-1.9-0.3c-0.6-0.3-1.1-0.6-1.6-0.8
				c-1.1-0.3-2.4-0.3-3.3,0.4c-0.9,0.6-1.5,1.8-1.2,2.9c0.3,1.1,1.4,1.9,2.5,1.7c0.6-0.1,1.1-0.4,1.8-0.5c0.7-0.1,1.4,0,1.9,0.4
				c0.6,0.3,1,0.9,1.2,1.6c0.1,0.7-0.1,1.4-0.6,1.9s-1.2,0.8-1.9,0.5c-0.7-0.2-1.1-0.7-1.6-1c-0.4-0.3-1.1-0.4-1.4-0.1
				c-0.3,0.3-0.3,0.9,0,1.4s0.7,0.9,1,1.6c0.1,0.3,0.1,0.7,0,1.1c-0.1,0.3-0.4,0.7-0.8,0.7h-0.2l-0.1-0.1c-0.4-0.7-0.7-1.5-1.3-2
				c-0.5-0.5-1.5-0.4-1.9,0.1c-0.2,0.3-0.1,0.6,0,1c0.2,0.3,0.4,0.7,0.7,1c0.3,0.4,0.4,0.9,0.3,1.3c0,0.2-0.1,0.5-0.3,0.7
				s-0.5,0.3-0.8,0.2h0.1c-2.1,0.1-3.9,2.5-3.3,4.6c0.6,2.1,3.3,3.2,5.2,2.2l0.9-0.5l-0.6,0.8c-0.4,0.5-0.8,1-1,1.6s-0.3,1.2,0,1.7
				l-0.4,0.2c-0.3-1.4,1.8-1.6,2.1-0.5c0.4,1-0.1,1.9-0.6,2.6s-1.1,1.4-1,2.2c0,0.4,0.2,0.7,0.5,0.9c0.3,0.2,0.7,0.1,1.1,0
				c0.8-0.3,1.3-0.9,1.9-1.6c0.3-0.3,0.6-0.7,1-0.9c0.4-0.2,0.9-0.4,1.4-0.3c0.9,0.1,1.7,0.9,2,1.8s0.1,1.9-0.3,2.7l-0.1,0.2
				l-0.2-0.2c-0.5-0.5-1.3-0.5-2-0.1c-0.6,0.3-1.1,1-1,1.7l-0.3-0.1c0.4-0.3,0.9-0.3,1.4-0.1l0.2,0.1l-0.1,0.2
				c-0.7,1.2-0.5,2.9,0.4,4s2.4,1.6,3.8,1.2l0.7-0.2l-0.5,0.5c-0.6,0.6-1.1,1.2-1.4,1.9c-0.2,0.4-0.3,0.7-0.2,1.1
				c0,0.4,0.2,0.7,0.5,0.9h-0.2l2.1-0.5l0.6-0.1l-0.5,0.4c-0.7,0.7-0.8,1.8-0.4,2.7c0.2,0.4,0.6,0.8,1,1s0.9,0.2,1.4,0.1
				c0.9-0.2,1.8-1.1,1.8-2c0-0.5-0.1-1,0.1-1.6c0.1-0.3,0.3-0.5,0.6-0.7s0.6-0.2,0.9-0.2c0.6,0.1,1.1,0.4,1.4,0.9
				c0.3,0.5,0.5,1,0.6,1.5c0.2,1,0.6,2,1.4,2.7c1.5,1.4,3.8,1.6,5.8,1c1.9-0.7,3.3-2.5,4-4.4c0.7-2,0.7-4.1,0.3-6.1
				c-0.2-1-0.5-2-0.6-3.1c-0.1-1-0.1-2.2,0.3-3.2c0.7-2,2.1-3.7,2.3-5.8h0.3c0,0.3,0.4,0.4,0.8,0.4c0.3-0.1,0.7-0.3,0.7-0.7
				c0.1-0.7-0.3-1.5-0.6-2.2c-0.1-0.4-0.2-0.8-0.1-1.2c0.1-0.4,0.4-0.9,0.8-1c0.5-0.1,0.9,0.1,1.2,0.4s0.6,0.6,0.8,0.9
				c0.4,0.7,0.9,1.4,1.6,1.6c0.3,0.1,0.7,0,0.9-0.3s0.1-0.7,0-1c-0.3-0.7-1.1-1.1-1.5-1.8c-0.2-0.4-0.3-0.9,0-1.3
				c0.1-0.2,0.3-0.4,0.5-0.5s0.5-0.1,0.7,0l0.2,0.1l-0.1,0.1c-0.3,0.2,0.4,0.7,0.6,0.5c0.4-0.2,0.5-0.7,0.5-1.2
				c0.1-0.5,0.2-1,0.6-1.4c0.2-0.2,0.5-0.2,0.8-0.1s0.5,0.2,0.7,0.3c0.4,0.3,0.9,0.5,1.2,0.2c0.3-0.2,0.3-0.8,0.2-1.2
				c-0.2-1-1.1-1.4-1.7-2.3c-0.3-0.4-0.5-0.9-0.3-1.5c0.2-0.5,0.7-0.8,1.3-0.7c1,0.1,1.8,0.9,2.4,1.7c0.3,0.4,0.6,0.8,0.9,1.1
				c0.3,0.3,0.8,0.6,1.2,0.5c0.5,0,0.9-0.3,1.1-0.7c0.2-0.4,0.2-0.9,0.2-1.4c-0.1-1-0.8-1.7-1.4-2.5c-0.3-0.4-0.6-0.8-0.7-1.3
				c-0.2-0.5-0.2-1-0.1-1.5c0.1-0.5,0.4-0.9,0.9-1.2c0.5-0.2,1.1-0.1,1.4,0.3c0.7,0.7,0.8,1.8,1.1,2.7c0.2,0.4,0.4,0.9,0.8,1.1
				c0.4,0.2,1,0.1,1.2-0.3c0.5-0.8,0.3-1.9,0.6-2.8c0.1-0.5,0.4-0.9,0.8-1.2c0.4-0.3,0.9-0.4,1.4-0.4c1,0,1.9,0.2,2.8,0.6v0.1
				c-0.6-0.1-0.8-0.7-0.8-1.2s0.2-1.1,0.7-1.4c0.9-0.6,2-0.6,3-0.7c0.5,0,1-0.1,1.5-0.3c0.5-0.2,0.9-0.5,1.1-1
				C252.8,88.2,252.2,86.9,251.2,86.6z"/>
		</g>
	</g>
	<g>
		<path d="M272.7,118.4c-1.5-8.9-0.4-18.2,3.1-26.5"/>
		<path class="st0" d="M272.7,118.4c-0.5-2.2-0.7-4.5-0.8-6.7c-0.1-2.3,0-4.5,0.3-6.8c0.3-2.2,0.7-4.5,1.3-6.7
			c0.6-2.2,1.4-4.3,2.3-6.4c-0.8,2.1-1.4,4.3-2,6.5c-0.5,2.2-0.9,4.4-1.2,6.6c-0.3,2.2-0.4,4.5-0.4,6.7
			C272.3,113.9,272.4,116.1,272.7,118.4z"/>
	</g>
	<g>
		<path class="st1" d="M261.7,139.6c3.6,0,5.3,5.2,1.1,5.8c-10.5-0.2-24-4.4-32.6,3.5C235.3,136.9,250.7,137.7,261.7,139.6z"/>
		<path class="st1" d="M291.3,138.9c-3.6,0-5.3,5.2-1.1,5.8c10.5-0.2,24-4.4,32.6,3.5C317.7,136.2,302.3,137,291.3,138.9z"/>
	</g>
	<g>
		<path class="st2" d="M258,152.2c-6-4.1-14-2-19.6,1.8c-0.6-0.9-1.9-1.3-2-2.6c-0.1,1.1,0.1,2.5,1.1,3.2c-0.1,0.1-0.3,0.2-0.4,0.2
			c-1.1-0.7-2.3-1.4-2.6-2.8c-0.1,1.3,0.1,2.7,1.2,3.5c-0.3,0.1-0.5,0.2-0.8,0.3c-1.1-0.6-2.2-1.4-2.5-2.7c-0.1,1.4,0.2,3,1.5,3.7
			c0.7,6.9,3.8,13.9,10.8,16.1c-22.5-14.6,7.8-33.2,18.3-13.4C262.4,156.7,260.3,153.7,258,152.2z"/>
		<path class="st2" d="M320.9,152.9c-0.3,1.3-1.4,2.1-2.5,2.7c-0.3-0.1-0.5-0.2-0.8-0.3c1.1-0.8,1.3-2.3,1.2-3.5
			c-0.3,1.4-1.5,2.2-2.6,2.8c-0.1-0.1-0.3-0.2-0.4-0.2c1-0.7,1.2-2,1.1-3.2c-0.1,1.4-1.4,1.8-2,2.6c-7.6-5.9-21.8-6-24.5,5
			c10.8-19.5,40.6-0.5,18.2,13.9c7.1-2.2,10.2-9.3,10.9-16.2C320.7,156,321,154.3,320.9,152.9z"/>
	</g>
</g>
</svg>
