<svg xmlns="http://www.w3.org/2000/svg" xmlns:xlink="http://www.w3.org/1999/xlink" viewBox="0 0 136.81 20.89"><defs><style>.a{fill:url(#a);}.b,.f,.g{fill:#fff;}.c{opacity:0.54;}.d,.f{opacity:0.7;}.e,.g{opacity:0.5;}</style><linearGradient id="a" y1="10.44" x2="136.81" y2="10.44" gradientUnits="userSpaceOnUse"><stop offset="0" stop-color="#30354f"/><stop offset="0.19" stop-color="#104586"/><stop offset="0.69" stop-color="#5486c5"/><stop offset="1" stop-color="#bbc8e8"/></linearGradient></defs><title>espace</title><rect class="a" width="136.81" height="20.89" rx="10.44"/><path class="b" d="M126.49,6.3c-.28-.15-.62-.14-.9-.28.37-.19.87.12,1.23-.1a.83.83,0,0,0,.31-.54,8,8,0,0,0,.15-2l.22,2.1a.51.51,0,0,0,.1.29.44.44,0,0,0,.18.09c.34.13.67.16,1,.28-.39.06-.88,0-1.19.16s-.24.5-.27.78c0,.44-.07.9-.15,1.35C127.05,7.69,127.3,6.71,126.49,6.3Z"/><path class="b" d="M7.17,11.14c-.28-.14-.62-.14-.9-.27.37-.2.87.12,1.23-.11a.83.83,0,0,0,.31-.54A8,8,0,0,0,8,8.2l.22,2.1a.51.51,0,0,0,.1.29.52.52,0,0,0,.18.1c.34.12.67.15,1,.28-.39,0-.88-.05-1.19.15s-.24.5-.27.78c0,.45-.07.91-.15,1.35C7.73,12.53,8,11.55,7.17,11.14Z"/><path class="b" d="M20.52,5.08C20.26,5,20,5,19.69,4.87c.34-.15.81.09,1.13-.08a.65.65,0,0,0,.29-.42,5.41,5.41,0,0,0,.14-1.56l.2,1.62a.34.34,0,0,0,.09.22.53.53,0,0,0,.17.08c.31.09.62.12.93.22a3.15,3.15,0,0,0-1.09.12c-.22.12-.23.38-.25.6s-.07.7-.14,1C21,6.15,21.26,5.4,20.52,5.08Z"/><g class="c"><path class="b" d="M24.37,10.94c-.18-.07-.39-.07-.57-.14.23-.1.55.06.78-.06a.42.42,0,0,0,.19-.28,3.85,3.85,0,0,0,.1-1.07L25,10.5a.18.18,0,0,0,.06.15.22.22,0,0,0,.11,0c.21.07.43.09.64.15a2.5,2.5,0,0,0-.75.08c-.15.09-.15.27-.17.42s0,.48-.09.71C24.72,11.68,24.88,11.16,24.37,10.94Z"/></g><g class="d"><path class="b" d="M120.76,13.45c-.35-.18-.77-.17-1.13-.34.47-.25,1.1.15,1.54-.14a1,1,0,0,0,.39-.67,9.72,9.72,0,0,0,.19-2.53l.28,2.62a.61.61,0,0,0,.12.37.63.63,0,0,0,.23.12c.42.15.84.2,1.26.35-.48.07-1.1-.06-1.48.2s-.31.62-.34,1c-.06.56-.09,1.14-.19,1.69C121.46,15.19,121.77,14,120.76,13.45Z"/></g><g class="e"><path class="b" d="M109.58,7.86c-.35-.18-.77-.17-1.13-.34.47-.25,1.1.15,1.54-.14a1,1,0,0,0,.39-.67,9.72,9.72,0,0,0,.19-2.53l.28,2.62a.61.61,0,0,0,.12.37.63.63,0,0,0,.23.12c.42.15.84.2,1.26.35-.48.07-1.1-.06-1.48.19s-.31.63-.34,1c-.06.56-.09,1.14-.19,1.69C110.28,9.6,110.59,8.37,109.58,7.86Z"/></g><path class="b" d="M15.36,9.92a.25.25,0,0,0-.27.19.46.46,0,0,0,.08.34.39.39,0,0,0,.34.2.41.41,0,0,0,.24-.15A.52.52,0,0,0,15.8,10a.33.33,0,0,0-.5,0"/><path class="f" d="M20.58,15.3a.17.17,0,0,0-.19.13.29.29,0,0,0,.06.23.26.26,0,0,0,.22.13.25.25,0,0,0,.16-.1.34.34,0,0,0,0-.37.22.22,0,0,0-.34,0"/><path class="f" d="M28.78,16.05a.23.23,0,0,0-.27.18.44.44,0,0,0,.08.35.41.41,0,0,0,.33.2.34.34,0,0,0,.24-.16.49.49,0,0,0,.06-.54.33.33,0,0,0-.5-.06"/><path class="g" d="M28.15,1.36a.23.23,0,0,0-.27.18.44.44,0,0,0,.08.35.38.38,0,0,0,.33.19.33.33,0,0,0,.24-.15.49.49,0,0,0,.06-.54.32.32,0,0,0-.5-.06"/><path class="g" d="M36.76,2.44c-.06,0-.12.05-.13.13a.31.31,0,0,0,0,.23c0,.07.1.14.16.13a.19.19,0,0,0,.12-.1.44.44,0,0,0,0-.37.14.14,0,0,0-.25,0"/><path class="g" d="M30.59,7.66c-.07,0-.15,0-.17.12a.3.3,0,0,0,0,.22.25.25,0,0,0,.21.12.22.22,0,0,0,.15-.1.3.3,0,0,0,0-.34.2.2,0,0,0-.31,0"/><path class="g" d="M34,20.14a.19.19,0,0,0-.2.11.24.24,0,0,0,.06.21.3.3,0,0,0,.24.12.32.32,0,0,0,.18-.1.24.24,0,0,0,0-.32.25.25,0,0,0-.35,0"/><path class="g" d="M18.16,10.42a.26.26,0,0,0-.28.18A.45.45,0,0,0,18,11a.4.4,0,0,0,.33.2.36.36,0,0,0,.24-.16.47.47,0,0,0,.05-.54.32.32,0,0,0-.49-.06"/><path class="b" d="M15.39,16.27c-.12-.06-.26.07-.29.2a1.22,1.22,0,0,0,.09.65.34.34,0,0,0,.06.12.32.32,0,0,0,.16.09.81.81,0,0,0,.22.07.54.54,0,0,0,.33-.06.64.64,0,1,0-.6-1.12s0,0,0,0,0,0,0,0"/><path class="b" d="M25.11.52c-.12-.06-.25.08-.28.21a1.11,1.11,0,0,0,.09.64.43.43,0,0,0,0,.12.39.39,0,0,0,.16.1,1,1,0,0,0,.23.07.55.55,0,0,0,.33-.07A.66.66,0,0,0,26,.73a.66.66,0,0,0-.87-.26.05.05,0,0,0,0,0s0,0,0,0"/><path class="b" d="M12.36,4.31c-.12-.06-.25.07-.29.2a1.18,1.18,0,0,0,.09.64.31.31,0,0,0,.06.13.32.32,0,0,0,.16.09.81.81,0,0,0,.22.07.53.53,0,0,0,.33-.06.67.67,0,0,0,.27-.87.67.67,0,0,0-.87-.25s0,0,0,0h0"/><path class="b" d="M124.14,3.85a.18.18,0,0,0-.21.14.33.33,0,0,0,.06.27.31.31,0,0,0,.26.16.3.3,0,0,0,.19-.12.4.4,0,0,0,0-.43.25.25,0,0,0-.39,0"/><path class="b" d="M120.51,16.14a.16.16,0,0,0-.19.13.3.3,0,0,0,.06.24.27.27,0,0,0,.23.14.25.25,0,0,0,.17-.11.35.35,0,0,0,0-.38c-.08-.11-.27-.15-.35,0"/><path class="b" d="M115.24,3.3a.13.13,0,0,0-.14.09.28.28,0,0,0,0,.18.23.23,0,0,0,.17.1.2.2,0,0,0,.12-.08.25.25,0,0,0,0-.27.16.16,0,0,0-.25,0"/><path class="g" d="M110.6,14.15a.12.12,0,0,0-.14.09.25.25,0,0,0,0,.17.17.17,0,0,0,.29,0,.26.26,0,0,0,0-.28.16.16,0,0,0-.25,0"/><path class="g" d="M103.9,11.65a.15.15,0,0,0-.16.11.29.29,0,0,0,.05.2.23.23,0,0,0,.2.12.31.31,0,0,0,.14-.09.29.29,0,0,0,0-.32.19.19,0,0,0-.29,0"/><path class="g" d="M98.69,17.88a.19.19,0,0,0-.21.14.34.34,0,0,0,.06.26.29.29,0,0,0,.26.15.25.25,0,0,0,.18-.11.37.37,0,0,0,0-.41.25.25,0,0,0-.38-.05"/><path class="g" d="M101.32,5a.12.12,0,0,0-.14.09.3.3,0,0,0,0,.18.2.2,0,0,0,.17.09.15.15,0,0,0,.12-.07.25.25,0,0,0,0-.27.16.16,0,0,0-.25,0"/><path class="g" d="M105.49,3.06a.23.23,0,0,0-.27.18.44.44,0,0,0,.08.35.38.38,0,0,0,.33.19.32.32,0,0,0,.24-.15.47.47,0,0,0,0-.54.32.32,0,0,0-.49-.06"/><path class="b" d="M9.11,16.91a.22.22,0,0,0-.26.18.41.41,0,0,0,.07.32.38.38,0,0,0,.32.19.35.35,0,0,0,.23-.15.46.46,0,0,0,0-.51.3.3,0,0,0-.47-.05"/><path class="b" d="M126.69,16.33a.24.24,0,0,0-.27.18.44.44,0,0,0,.08.35.41.41,0,0,0,.34.2.38.38,0,0,0,.24-.16.51.51,0,0,0,0-.54.33.33,0,0,0-.5-.06"/><path class="b" d="M12.13,13.07c-.07,0-.15,0-.16.14a.34.34,0,0,0,0,.26.22.22,0,0,0,.2.14.19.19,0,0,0,.15-.11.43.43,0,0,0,0-.41.18.18,0,0,0-.3,0"/><path class="b" d="M18,3.46a.17.17,0,0,0-.19.13.3.3,0,0,0,.06.24.27.27,0,0,0,.23.14.28.28,0,0,0,.17-.11.35.35,0,0,0,0-.38.24.24,0,0,0-.35,0"/><path class="b" d="M121.14.73a.23.23,0,0,0-.27.18.44.44,0,0,0,.08.35.38.38,0,0,0,.33.19.33.33,0,0,0,.24-.15.49.49,0,0,0,.06-.54.32.32,0,0,0-.5-.06"/><path class="b" d="M5.59,6.5a.23.23,0,0,0-.27.18A.49.49,0,0,0,5.4,7a.38.38,0,0,0,.34.19A.37.37,0,0,0,6,7.07a.51.51,0,0,0,0-.54.32.32,0,0,0-.5-.06"/><path class="b" d="M115,17.32c-.12-.06-.25.08-.28.21a1,1,0,0,0,.09.64.43.43,0,0,0,.05.12.34.34,0,0,0,.16.1,1,1,0,0,0,.23.07.55.55,0,0,0,.33-.07.64.64,0,1,0-.6-1.12s0,0,0,0,0,0,0,0"/><path class="b" d="M119.33,6.2c-.12-.06-.25.07-.29.2a1.22,1.22,0,0,0,.09.65.45.45,0,0,0,.06.12.44.44,0,0,0,.16.1.9.9,0,0,0,.22.06.58.58,0,0,0,.34-.06.64.64,0,1,0-.61-1.12s0,0,0,0,0,0,0,0"/><path class="g" d="M112.33,13.26c-.1,0-.2.06-.23.17a.94.94,0,0,0,.07.52l0,.1a.21.21,0,0,0,.13.07.64.64,0,0,0,.18.06.5.5,0,0,0,.27,0,.52.52,0,0,0-.49-.91l0,0s0,0,0,0"/><path class="g" d="M107,16.42c-.08,0-.17,0-.2.14a.75.75,0,0,0,.06.44.2.2,0,0,0,0,.08.26.26,0,0,0,.11.07l.16.05a.36.36,0,0,0,.22-.05.44.44,0,0,0,.19-.59.47.47,0,0,0-.6-.18s0,0,0,0,0,0,0,0"/><path class="b" d="M23,17.58c-.09,0-.19.06-.22.16a.93.93,0,0,0,.07.49.16.16,0,0,0,.05.09.25.25,0,0,0,.12.08l.17.05a.47.47,0,0,0,.26-.05.49.49,0,1,0-.47-.86s0,0,0,0,0,0,0,0"/><path class="b" d="M130.59,11.1c-.12-.06-.25.08-.29.21a1.19,1.19,0,0,0,.09.64.27.27,0,0,0,.06.12.34.34,0,0,0,.16.1.81.81,0,0,0,.22.07.63.63,0,0,0,.33-.06.64.64,0,1,0-.6-1.13l0,0s0,0,0,0"/></svg>