<svg xmlns="http://www.w3.org/2000/svg" viewBox="0 0 136.81 20.89"><defs><style>.a{fill:#fff;}.b{fill:none;}.c{fill:#fffdf8;}.d{fill:#f7eca7;opacity:0.54;}</style></defs><title>Girafe2</title><rect class="a" width="136.81" height="20.89" rx="10.44" ry="10.44"/><path class="b" d="M105.83.11c-.34-.08-.3.37-.34.59C105.61.51,105.72.31,105.83.11Z"/><path class="c" d="M60.67,3.84c2.17.74,4.07-1.56,5.82-2.44C69.25,0,71.5,2,73.3,4a5.74,5.74,0,0,1,1.85,3.72,12.81,12.81,0,0,1-.3,2.39c-.12.69-.15,1.39-.31,2.08a36.65,36.65,0,0,1-1.26,3.93c-.53,1.54-.69,3.14-1.13,4.7h4.42a3.69,3.69,0,0,0,1.05,0c.61-.22,1.32-1.75,1.56-2.32a12.2,12.2,0,0,0,.74-3.2c.25-1.91.44-4,1.72-5.55C83.07,8,85.45,7.92,87.45,7.42s3.72-2,5.78-2.51a6,6,0,0,1,5.85,2.17c1.34,1.58,2,3.77,3.78,5s4.06,2.09,3.6,4.79c-.4,2.38-2.65,3.22-4.66,3.91h11.41a18.19,18.19,0,0,0-1.44-2.94c-.61-1-1.45-1.71-2.11-2.62-1.29-1.78-.48-4.23-1.61-6.06-.87-1.39-2.56-1.94-3.7-3.06-1.81-1.78.79-4.21,1.27-6H98.35a6.42,6.42,0,0,0-1.24,0,18.18,18.18,0,0,0-2.4,1.23C91.94,2.47,89,3.25,86.16,4.17c-1,.34-2.6,1.21-3.69.85-1.25-.41-2.11-2.28-2.81-3.28C79.35,1.29,78.88.3,78.39.11a3.83,3.83,0,0,0-1.07,0h-8.6c-1.23,0-2.51-.1-3.73,0a1.43,1.43,0,0,0-1,.38A14.12,14.12,0,0,0,60.67,3.84Z"/><path class="c" d="M30.35,9c-.89,1.42-1.92.89-2.88-.12a10.8,10.8,0,0,0-3.2-2.44c-1.53-.75-3.19-1-4.76-1.6a9,9,0,0,1-3.6-2.85c-.32-.38-1-1.64-1.4-1.83-.11,0-.33,0-.45,0-.8-.07-1.65,0-2.45,0A19.41,19.41,0,0,0,6.85.35,9.38,9.38,0,0,0,.66,6.49L2.88,5.42a4.4,4.4,0,0,1,2.36-.78c1.7.13,3.44,1,5.09,1.4a25.53,25.53,0,0,1,2.73,1.18c1,.36,2-.62,3.06-.69a10.14,10.14,0,0,1,4.05,1,4.25,4.25,0,0,1,1.66,1A11.15,11.15,0,0,1,23,11q1.13,2.54,2.33,5c.38.81.76,1.61,1.15,2.42.17.34.34.69.5,1,.07.14.33,1.17.42,1.24.33.25,1.78,0,2.19,0h2.19c-.32-1.78-.73-3.61-.9-5.42A4.56,4.56,0,0,1,32,12.63a60.93,60.93,0,0,1,6-7.8c.48-.53.89-1.15,1.67-1A10.7,10.7,0,0,1,42,5l4.83,2.47a8.3,8.3,0,0,1,2,1.13,3.73,3.73,0,0,1,.76,2.11l1.08,5.43L51.29,19c.1.51.1,1.56.51,1.74a7.35,7.35,0,0,0,2.34,0c-.72-3.66-.77-7.4-1.16-11.1-.2-1.84-.46-3-2.15-4S47.58,4,45.93,3.18c-1.13-.55-2.36-.82-3.48-1.37A2.79,2.79,0,0,1,41.28.86c-.21-.31-.19-.62-.46-.75a7.52,7.52,0,0,0-2.32,0A18.81,18.81,0,0,0,36,.11c-.54.09-.4.05-.76.69L33.7,3.51C32.63,5.35,31.48,7.14,30.35,9Z"/><path class="d" d="M106.1,18a3.62,3.62,0,0,0-.3-3.86c-.91-1.13-2.38-1.49-3.43-2.43a18.06,18.06,0,0,1-2.56-3.6,7.41,7.41,0,0,0-3.34-2.9C93.25,3.85,91,6.3,88.09,7.24s-6,.73-7.29,3.89a18.9,18.9,0,0,0-1,4.77,9.52,9.52,0,0,1-2.17,4.87h22.9C102.65,20.77,105.09,20,106.1,18Z"/><path class="d" d="M105.53,2.07c1.09,1.45,3,2,4,3.43,1.35,1.87.41,4.5,1.83,6.36.68.89,1.49,1.64,2.09,2.6a19.26,19.26,0,0,1,1.58,3.34c.18.48.35,1,.52,1.47.09.26.27,1.33.51,1.5s.48,0,.58,0h7.58c2,0,4.35.27,6.31-.42,8-2.8,8.26-15.73.92-19.42a11.31,11.31,0,0,0-5.33-.82H106.62a2.58,2.58,0,0,0-.68,0C105.32.34,105.35,1.53,105.53,2.07Z"/><path class="c" d="M110.71,10.45c-.42-2.07-.15-4.3-1.92-5.78-.63-.53-1.36-.93-2-1.42-1-.7-1.49-1.3-1.28-2.55-.74,1.25-1.65,2.41-1.73,3.92-.06,1.23,1,1.88,1.93,2.5A7.88,7.88,0,0,1,108,9.05a8.13,8.13,0,0,1,.87,3.64,5.62,5.62,0,0,0,1.65,3.45,14,14,0,0,1,2.23,3.49c.13.29.32,1,.55,1.14s.79,0,1,0h1.84a37.1,37.1,0,0,0-2.15-5.5,13.42,13.42,0,0,0-1.58-2.35A7.11,7.11,0,0,1,110.71,10.45Z"/><path class="d" d="M110.71,10.45c-.42-2.07-.15-4.3-1.92-5.78-.63-.53-1.36-.93-2-1.42-1-.7-1.49-1.3-1.28-2.55-.74,1.25-1.65,2.41-1.73,3.92-.06,1.23,1,1.88,1.93,2.5A7.88,7.88,0,0,1,108,9.05a8.13,8.13,0,0,1,.87,3.64,5.62,5.62,0,0,0,1.65,3.45,14,14,0,0,1,2.23,3.49c.13.29.32,1,.55,1.14s.79,0,1,0h1.84a37.1,37.1,0,0,0-2.15-5.5,13.42,13.42,0,0,0-1.58-2.35A7.11,7.11,0,0,1,110.71,10.45Z"/><path class="d" d="M45.27,2.86c1.65.81,3.3,1.62,4.92,2.5a6.73,6.73,0,0,1,1.93,1.27,4.33,4.33,0,0,1,.79,2.48c.44,3.7.48,7.44,1.13,11.11.11.66.05.55.6.55h16.6c.17,0,.71.1.87,0s.28-1,.33-1.25c.17-.88.31-1.77.57-2.64.45-1.49,1.08-2.92,1.46-4.44a19.84,19.84,0,0,0,.3-2,15.62,15.62,0,0,0,.38-2.72c-.07-1.9-1.35-3.25-2.62-4.53S69.89.72,68.12.88c-2.63.24-4.69,3.9-7.45,3A14.1,14.1,0,0,1,64.56.11H41C41.38,2,43.81,2.15,45.27,2.86Z"/><path class="d" d="M84,3.2a5.57,5.57,0,0,0,2.32-.56L89,1.75l5-1.64h-13C81.74,1.08,82.64,3,84,3.2Z"/><path class="c" d="M82.74,5.09c1.11.15,2.57-.64,3.6-1L90.2,2.86C92.5,2.12,95,1.53,97,.11a19.77,19.77,0,0,0-2.88,0,23.27,23.27,0,0,0-3.4,1.11L86.83,2.47c-1,.31-2.38,1.08-3.4.56A7.49,7.49,0,0,1,81.36.54C81,0,80.67.11,80,.11H78.52L80.69,3.2C81.2,3.92,81.77,5,82.74,5.09Z"/><path class="d" d="M82.74,5.09c1.11.15,2.57-.64,3.6-1L90.2,2.86C92.5,2.12,95,1.53,97,.11a19.77,19.77,0,0,0-2.88,0,23.27,23.27,0,0,0-3.4,1.11L86.83,2.47c-1,.31-2.38,1.08-3.4.56A7.49,7.49,0,0,1,81.36.54C81,0,80.67.11,80,.11H78.52L80.69,3.2C81.2,3.92,81.77,5,82.74,5.09Z"/><path class="d" d="M15.12.94a10.23,10.23,0,0,0,5.57,4.22c2.22.61,4.66,1.34,6.27,3.1.52.57,1.19,1.54,2,1.62,1.13.11,1.77-1.59,2.26-2.36,1.53-2.43,3-4.9,4.38-7.41H14.51Z"/><path class="d" d="M49.08,8.81a4.61,4.61,0,0,0-1.73-1.1L45.28,6.65,41.13,4.54a5.7,5.7,0,0,0-1.6-.75c-.7-.07-1.11.58-1.53,1q-1.43,1.59-2.76,3.29c-.8,1-1.57,2.09-2.31,3.17a16.67,16.67,0,0,0-1.85,3,5.65,5.65,0,0,0,.13,3l.39,2.33c0,.18.09,1.07.23,1.15.31.19,1.35,0,1.69,0H51.64q-.63-3.09-1.24-6.2l-.62-3.1A6.9,6.9,0,0,0,49.08,8.81Z"/><path class="d" d="M22.17,9.12C21.62,7.83,20,7.38,18.77,7a5.77,5.77,0,0,0-3.64-.27,5,5,0,0,1-1.66.58,3.51,3.51,0,0,1-1.25-.56A16.31,16.31,0,0,0,8.71,5.6c-1.5-.43-3.25-1.38-4.78-.71-.67.29-1.31.66-2,1a5.59,5.59,0,0,0-1.13.54A2.37,2.37,0,0,0,.32,7.69a11.9,11.9,0,0,0,1.17,8.53A8.85,8.85,0,0,0,7,20.56a11.51,11.51,0,0,0,2.87.21H27.43A8.42,8.42,0,0,0,26.26,18L24.86,15Q23.48,12.1,22.17,9.12Z"/></svg>