<svg viewBox="0 0 136.81 20.89" xmlns="http://www.w3.org/2000/svg"><rect fill="#fff" height="20.89" rx="10.44" width="136.81"/><path d="m8.7 0h114.62 4.74c9 .14 11.21 12.93 5.49 18.39-2.31 2.19-4.93 2.27-7.81 2.27h-116.53c-6.55 0-10.16-6.74-8.98-12.66.77-4.12 4.04-8 8.47-8z" fill="#fff" fill-rule="evenodd"/><g fill="none"><path d="m21.62 2.12a2.69 2.69 0 0 0 2.98-1.22 11.41 11.41 0 0 0 -1.17.19 4.55 4.55 0 0 0 1.71-1.09 7 7 0 0 0 -1.52 0 4.31 4.31 0 0 0 -2 2.12z"/><path d="m23.43 0c-.48-.1-.94.39-1.25.69.41-.25.82-.46 1.25-.69z"/><path d="m56.25 18.73a8.51 8.51 0 0 1 6.86-4.55c2.84-.29 5.69.33 8.5.67s5.72.44 8.18-1 3.84-4.23 5.14-6.69c.91-1.74 1.91-3.73 3.54-4.9s4-.51 5.37-2.26h-38.61c1.91 2.57 4.16 5.17 5.22 8.24-.25-.26-.57-.44-.8-.72 0 .12 0 .36-.07.46-.36-.5-.72-1-1.07-1.52a10.23 10.23 0 0 1 0 1.75 18.07 18.07 0 0 0 -4.83-4.15c.07 1.29.76 2.45.88 3.74-.3-.31-.74-.35-1.08-.6 0 .58-.09 1.15-.06 1.73a8.8 8.8 0 0 1 -2.47-2.47c0 .27-.17.51-.21.79-.16-.38-.53-.6-.74-1-.09.35-.41.61-.49 1-1-1.44-2.09-2.83-3-4.36a12.76 12.76 0 0 1 -1.06-2.25c-.11-.29-.1-.53-.33-.64a3.76 3.76 0 0 0 -1.12 0h-13.37a7.32 7.32 0 0 0 -1.48 0c-1 .21-1.93 1.5-2.76 2.1.41 0 .79.25 1.21.26-1.73 1.14-3.76 1.7-5.5 2.81a1.35 1.35 0 0 0 .33.19c-.38.46-.52 1.07-.93 1.51a24 24 0 0 0 3.13-.82 2.32 2.32 0 0 1 -.63.75c5-.77 10.13-.16 14.4 2.79a4.8 4.8 0 0 0 -.54.32c1.46 1.46 3.76 1.71 5.39 3s3.33 2.43 5.08 3.59a44.2 44.2 0 0 1 5.06 3.72c.6.53.83.46 1.62.46a2 2 0 0 0 .55 0 8.73 8.73 0 0 0 .26-1 6.64 6.64 0 0 1 .43-.95z"/></g><path d="m93 .77c-1.55 1-3.54.54-5 1.84a15.65 15.65 0 0 0 -3.11 4.55c-1.31 2.49-2.68 5.3-5.23 6.74-5.14 2.91-11.35-.35-16.82.3a8.31 8.31 0 0 0 -7.3 6.46h50.78a33.74 33.74 0 0 1 -1.93-3.79 5.86 5.86 0 0 0 -.36-.85c-.24-.38-.22-.38-.65-.49l-1.62-.43c-1.91-.53-4-1.25-4.79-3.24-.9-2.3.18-4.67 1.7-6.42 1.77-2 4.09-3.64 6.09-5.44h-9.6a5.06 5.06 0 0 0 -1.1 0c-.44.11-.61.49-1.06.77z" fill="#facfcc"/><path d="m110.24 20.05a11 11 0 0 0 -3.3-3.07 35.57 35.57 0 0 0 3.3 3.07z" fill="#facfcc"/><g fill="#f9f6f9"><path d="m97.22 12.32c1.19 2.33 4.47 2.71 6.72 3.35a28.7 28.7 0 0 1 -1.34-4.62 27.34 27.34 0 0 0 2.84 4.22 10.42 10.42 0 0 0 1.64 1.8 21.22 21.22 0 0 1 1.92 1.51c.61.6 1.24 1.88 2.12 2.08a5.92 5.92 0 0 0 1.19 0h13.55c-1.55-1.49-3.31-2.46-4.47-4.35a21.7 21.7 0 0 1 -2.14-5.74c-.64-2.38-1.49-4.69-2.33-7a26.57 26.57 0 0 0 -1.15-3.21c-.29-.56 0-.25-.49-.36a12.17 12.17 0 0 0 -2.56 0h-6.9c-1.07 0-1.07.06-2 .85-3.03 2.68-9.1 6.59-6.6 11.47z"/><path d="m129.86 20.2c-3.21-6.2-2.49-13.51-1.94-20.2h-9.92c2.2 4.05 3.1 8.66 5.32 12.72a30.75 30.75 0 0 0 3 4.54c.84 1.16 2.03 2.56 3.54 2.94z"/><path d="m134.42 17.4c4.06-5.1 2.87-14.49-3.74-16.94.76 2.85 1 5.79 1.74 8.64s1.77 5.45 2 8.3z"/></g><path d="m42.46 12.3c-1.45-.94-3.33-1.13-4.58-2.39a4.8 4.8 0 0 1 .54-.32 17.56 17.56 0 0 0 -8.56-3 24 24 0 0 0 -4.48.08 7.11 7.11 0 0 0 -1 .13 4 4 0 0 0 -1.07.55c-.59.35-1.24.61-1.85.94 0 .2.28.11.4.19 0 .12-.28.49-.23.62.73 0 2.12.18 1.67 1.22a4.34 4.34 0 0 1 -2.09 1.63 13.3 13.3 0 0 1 -3.09.94c-.74.16-1.49.29-2.24.39-.45.06-.9.11-1.36.15s-1-.15-1 .32c-.42-.46-1.5-.29-2.15-.4a4.68 4.68 0 0 1 -1.55-.49c-.51-.29-.75-.75-1.18-1.12a4.29 4.29 0 0 0 -1.49-.76 18.1 18.1 0 0 1 -3.76-1.4 6.64 6.64 0 0 1 -2.73-3.2c-2.09 6 1.14 14.21 8.23 14.28h7.94 37.08a39.34 39.34 0 0 0 -5.68-4.26c-.86-.56-1.73-1.1-2.58-1.66-1.12-.74-2.06-1.74-3.19-2.44z" fill="#e2eff6"/><path d="m13.49 13.43a19 19 0 0 0 7.79-1.58c.66-.33 1.74-.9 2-1.64.38-1-1-1.12-1.7-1.16-.05-.12.18-.49.23-.62-.12-.08-.37 0-.4-.19 1.06-.57 2.64-1 3.19-2.19a24 24 0 0 1 -3.13.82c.41-.44.55-1 .93-1.51a1.35 1.35 0 0 1 -.33-.19c1.74-1.11 3.77-1.67 5.5-2.81-.42 0-.8-.21-1.21-.26.94-.65 1.71-1.47 2.64-2.1h-2.62a5 5 0 0 0 -1.16 0c-.62.17-1.09.91-1.79 1.09a11.41 11.41 0 0 1 1.17-.19 2.69 2.69 0 0 1 -3 1.22 6.13 6.13 0 0 1 1.92-2.12 4.74 4.74 0 0 0 -1.34.69 6.61 6.61 0 0 1 .89-.69h-7.81a17.57 17.57 0 0 1 1.92 8.21 27.24 27.24 0 0 1 -2.4-4.53c-.38-.83-.78-1.68-1.21-2.48-.21-.4-.44-1-.84-1.2a8.6 8.6 0 0 0 -2.43 0 21 21 0 0 0 -2.38.05c2.74 4.04 5.62 8.28 5.57 13.38z" fill="#f7f0f6"/><path d="m3.22 9.44c1.61 1.07 3.79 1 5.3 2.18.63.5.93 1.09 1.73 1.4a8.17 8.17 0 0 0 3 .41 25.33 25.33 0 0 1 -3.07-5.71 30.77 30.77 0 0 0 -3.91-6 4.92 4.92 0 0 0 -.54-.72c-.33-.26-.16-.24-.6-.08a5 5 0 0 0 -1.3.85 9.75 9.75 0 0 0 -2.03 2.23c-.51.82-1.36 2-.91 2.9a6.7 6.7 0 0 0 2.33 2.54z" fill="#f7f0f6"/><path d="m8.58 4.76c2 2.78 2.61 6.38 4.91 8.94a17.37 17.37 0 0 0 -2.24-8.43 31.94 31.94 0 0 0 -2.25-3.71c-.26-.37-.7-1.33-1.08-1.51s-2.01.48-2.42.68q1.61 1.97 3.08 4.03z" fill="#facfcc"/><path d="m17.18 8.21a16.7 16.7 0 0 0 -1.5-7.21c-.38-.93-.31-1-1.22-1h-1.59c1.68 2.61 2.52 5.67 4.31 8.21z" fill="#facfcc"/><path d="m50 6.3c.21.35.58.57.74 1 0-.28.18-.52.21-.79a8.8 8.8 0 0 0 2.45 2.42c0-.58.09-1.15.06-1.73.34.25.78.29 1.08.6-.12-1.29-.81-2.45-.88-3.74a18.07 18.07 0 0 1 4.83 4.15 10.23 10.23 0 0 0 0-1.75c.35.52.71 1 1.07 1.52.1-.1 0-.34.07-.46.23.28.55.46.8.72-.9-2.67-2.76-5-4.43-7.24-.46-.61-.51-.93-1.16-1a12.92 12.92 0 0 0 -1.76 0h-7.84c.79 2.73 2.65 5 4.25 7.27.08-.36.4-.62.51-.97z" fill="#f7f0f6"/><path d="m103.94 15.67a32.57 32.57 0 0 0 2 4.19c.5.89.47.8 1.38.8h3.68a31.43 31.43 0 0 1 -8.39-9.61 28.7 28.7 0 0 0 1.33 4.62z" fill="#fff"/><path d="m122.66 18a15.57 15.57 0 0 0 2.08 1.72c.53.42.86.87 1.51.95a12 12 0 0 0 3.22-.13 8.36 8.36 0 0 0 4.53-2.65 1.09 1.09 0 0 0 .34-1.14c0-.45-.13-.9-.22-1.34-.2-1-.46-2-.75-3-.48-1.68-1-3.35-1.34-5.07-.38-2-.67-4-1.14-6-.14-.58-.09-.84-.68-1a7.28 7.28 0 0 0 -1.44-.34c-.19 0-.7-.15-.85 0a6.5 6.5 0 0 0 -.14 1.68c-.15 1.94-.28 3.88-.31 5.82-.07 4.33.36 8.81 2.39 12.7-1.86-.47-3.29-2.42-4.35-3.89a34.13 34.13 0 0 1 -3.08-5.21c-1.3-2.75-2.11-5.69-3.26-8.5-.27-.66-.56-1.32-.88-2s-.21-.57-.77-.64a14.59 14.59 0 0 0 -1.87 0c1.12 3.29 2.44 6.51 3.4 9.85.84 2.94 1.49 5.89 3.61 8.19z" fill="#fff"/></svg>