<?xml version="1.0" encoding="utf-8"?>
<!-- Generator: Adobe Illustrator 24.2.0, SVG Export Plug-In . SVG Version: 6.00 Build 0)  -->
<svg version="1.1" id="Calque_1" xmlns="http://www.w3.org/2000/svg" xmlns:xlink="http://www.w3.org/1999/xlink" x="0px" y="0px"
	 viewBox="0 0 130.4 17" style="enable-background:new 0 0 130.4 17;" xml:space="preserve">
<style type="text/css">
	.st0{fill:#A5D6E2;}
	.st1{fill:#FFFFFF;}
</style>
<path class="st0" d="M122.2,0L8.3,0C3.7,0,0.1,4.1,0.1,8.7c0,4.6,3.7,8.3,8.3,8.3l113.8,0c4.6,0,8.3-4.1,8.3-8.7
	C130.5,3.7,126.7,0,122.2,0z"/>
<g>
	<g>
		<g>
			<path class="st1" d="M122.6,11.2c0,0.3,0.1,0.5,0.1,0.8c0,0,0,0,0,0c0.1,0.1,0.4-0.1,0.5-0.2c0.1-0.1,0.1-0.2,0-0.3
				C123.1,11.3,122.8,11.2,122.6,11.2z"/>
		</g>
		<g>
			<path class="st1" d="M124.6,11.6c-0.2-0.1-0.3,0.8,0.1,0.9c0.3,0.1,0.3-0.4,0.3-0.6C124.9,11.7,124.8,11.6,124.6,11.6z"/>
		</g>
		<g>
			<path class="st1" d="M128.6,11.4c0.3-0.5,0.8-0.9,1.2-1.3c0.2-0.2,0.4-0.5,0.7-0.7c0-0.2,0-0.3,0.1-0.5c-0.4-0.1-1,0-1.2,0
				c-0.5,0-0.9,0.1-1.4,0.1c-0.2,0-0.5,0-0.6-0.1c-0.4-0.3-0.2-1.3-0.3-1.7c0-0.5-0.2-1-0.3-1.4c0-0.1-0.1-0.1-0.2,0
				c-0.2,0.2-0.3,0.6-0.5,0.9c-0.4,0.6-0.7,1.3-1.1,1.9c-0.3,0.6-0.4,1.1-0.9,0.5c-0.3-0.4-0.6-0.8-1.1-1.1
				c-0.1-0.1-0.5-0.3-0.6-0.2c-0.2,0.1,0,0.8,0,1c0.1,0.6,0.3,1.2,0.3,1.8c0,0.1,0,0.1-0.1,0.1c-0.4,0-0.8-0.2-1.1-0.4
				c-0.2-0.1-0.8-0.4-1.1-0.4c-0.1,0-0.1,0.1-0.1,0.1c0.2,0.5,0.7,1,1.1,1.4c0,0-0.1-0.1-0.1-0.1c-0.5,0.4-0.8,0.5-1.1,0.6
				c-0.4,0.2-0.9,0.5-1.3,0.6c-0.1,0-0.1,0.2,0,0.2c0.5,0.1,1.2,0.1,1.7,0.1c0.5,0,0.9,0.1,1.4,0.2c0.1,0,0.1,0.1,0.1,0.2
				c-0.2,0.4-0.4,0.8-0.6,1.2c-0.1,0.2-0.4,0.6-0.5,0.9c0,0.1,0.1,0.2,0.1,0.1c0.4-0.1,0.8-0.6,1.1-0.8c0.2-0.2,1-0.8,1.3-0.7
				c0.3,0.1,0.2,0.6,0.2,0.9c0,0.6,0,1.3,0.2,1.9c0,0.1,0.1,0.1,0.2,0c0.1-0.1,0.1-0.2,0.2-0.3c0.2-0.3,0.4-0.7,0.6-1
				c0.2-0.3,0.4-0.6,0.5-1c0.1,0,0.1,0.1,0.2,0.2c0.2,0.2,0.5,0.5,0.7,0.7c0.1,0.1,0.3,0.2,0.4,0.4c0.2-0.1,0.4-0.3,0.6-0.4
				c-0.1-0.5-0.2-0.9-0.2-1.3c0-0.1,0-0.1,0.1-0.1c0.4,0,0.9,0.2,1.3,0.4c0.4-0.5,0.8-1,1.1-1.5c-0.3-0.4-0.5-0.7-0.7-1.1
				C128.5,11.5,128.5,11.5,128.6,11.4z M123.5,12.2c-0.2,0.2-0.4,0.3-0.7,0.4c0,0.2,0.1,0.3,0.1,0.5c0,0.1,0.1,0.3,0,0.3
				c0,0-0.3,0.1-0.3,0.1c-0.1,0-0.1,0-0.2,0c0,0,0-0.1,0-0.2c-0.1-0.4-0.2-0.8-0.3-1.2c-0.1-0.4-0.2-0.7-0.2-1.1
				c0.1-0.1,0.3-0.2,0.4-0.2c0.4-0.1,0.9-0.1,1.1,0.2C123.9,11.3,123.9,11.8,123.5,12.2z M125.2,12.9c-0.2,0.3-0.5,0.3-0.7,0.1
				c-0.1-0.1-0.2-0.4-0.3-0.5c-0.1-0.4-0.2-0.9,0-1.3c0.1-0.2,0.3-0.4,0.5-0.5c0.3,0,0.5,0.2,0.6,0.4
				C125.5,11.7,125.5,12.5,125.2,12.9z M127.4,12.6c-0.1,0-0.3,0.1-0.4,0c-0.1-0.1-0.1-0.4-0.2-0.5c0-0.1-0.1-0.2-0.1-0.3
				c0,0.1,0,0.3,0,0.4c0,0.1,0,0.2,0,0.4c0,0,0,0.1,0,0.1c0,0-0.1,0-0.1,0c-0.1,0-0.4,0.1-0.5,0.1c0-0.1,0-0.2,0-0.3
				c-0.1-0.4-0.2-0.8-0.2-1.2c0-0.2-0.1-0.4-0.1-0.6c0,0,0-0.1,0-0.2c0,0,0.1-0.1,0.1-0.1c0.1,0,0.3-0.1,0.3-0.1
				c0.1,0,0.1,0.3,0.1,0.4c0.1,0.3,0.1,0.5,0.1,0.8c0,0.1,0,0.1,0.1,0.2c0-0.3,0.1-0.5,0.2-0.8c0.1,0,0.1,0,0.2,0
				c0.1,0,0.1,0.3,0.1,0.3c0,0.1,0.1,0.2,0.1,0.3c0-0.1,0-0.2,0-0.3c0-0.2,0-0.4,0-0.6c0,0,0-0.1,0-0.2c0-0.1,0.3-0.2,0.4-0.2
				c0,0.1,0.1,0.3,0.1,0.4c0,0.4,0,0.8,0,1.1c0,0.1,0,0.3,0,0.4C127.5,12.4,127.5,12.5,127.4,12.6C127.5,12.6,127.5,12.6,127.4,12.6
				z M128.2,12.6c-0.2-0.1-0.2-0.3-0.1-0.4c0,0,0.1,0,0.1,0l0,0c0,0,0,0,0,0c0,0,0,0,0.1,0C128.6,12.3,128.5,12.8,128.2,12.6z
				 M128.5,11.2c0,0.2,0,0.4,0,0.6c-0.1,0-0.3,0-0.4-0.1c0,0,0-0.5,0-0.5c0-0.3,0-0.5,0-0.8c0.2,0,0.3-0.1,0.5-0.1
				C128.4,10.6,128.5,10.9,128.5,11.2z"/>
		</g>
	</g>
	<g>
		<g>
			<path class="st1" d="M129.6,3.5c0.1,0,0.1-0.1,0.1-0.2c-0.1-0.2-0.2-0.6-0.2-0.7c0-0.1,0-0.1-0.1-0.1c0,0-0.1,0-0.1,0.1
				c0,0,0,0,0,0.1c0,0.2,0.2,0.6,0.2,0.8C129.5,3.5,129.6,3.6,129.6,3.5z"/>
		</g>
		<g>
			<path class="st1" d="M129,4.1L129,4.1c0-0.1-0.1-0.2-0.2-0.2c0,0-0.1,0-0.1,0c0,0,0,0.1,0,0.1l0,0.1c0,0.2,0.1,0.3,0.1,0.5
				c0,0.1,0.1,0.1,0.1,0.1c0.1,0,0.1-0.1,0.1-0.1C129.1,4.5,129.1,4.3,129,4.1z"/>
		</g>
		<g>
			<path class="st1" d="M127.8,3.2c0-0.1,0-0.1-0.1-0.1c0,0-0.1,0-0.1,0c0,0,0,0,0,0c0,0.1,0,0.3,0,0.5c0,0.1,0,0.2,0,0.2
				c0,0.1,0.1,0.1,0.1,0.1c0.1,0,0.1-0.1,0.1-0.1c0-0.1,0-0.2,0-0.3C127.9,3.4,127.8,3.2,127.8,3.2z"/>
		</g>
		<g>
			<path class="st1" d="M128.2,5.1c0-0.1-0.1-0.2,0-0.2c0-0.1,0-0.1-0.1-0.1c0,0-0.1,0-0.1,0.1c0,0,0,0,0,0.1c0,0.1,0,0.2,0.1,0.3
				c0,0.1,0.1,0.3,0.1,0.4c0,0.1,0.1,0.1,0.1,0.1c0.1,0,0.1-0.1,0.1-0.1C128.2,5.4,128.2,5.3,128.2,5.1z"/>
		</g>
		<g>
			<path class="st1" d="M130,5.6c0,0.1,0.1,0.1,0.1,0.1c0.1,0,0.1-0.1,0.1-0.1l0-0.1c0-0.2,0-0.4-0.1-0.6c0-0.1-0.1-0.1-0.2-0.1
				c0,0,0,0,0,0c0,0,0,0.1,0,0.1C130,5.2,130,5.4,130,5.6L130,5.6z"/>
		</g>
		<g>
			<path class="st1" d="M129.4,5.9C129.5,5.9,129.5,5.9,129.4,5.9c0-0.1,0-0.1,0-0.2c0,0,0,0,0,0c0-0.1-0.1-0.1-0.1-0.1
				c0,0-0.1,0-0.1,0.1c0,0,0,0,0,0.1c0,0,0,0,0,0c0,0.2,0,0.4,0,0.6c0,0.1,0.1,0.1,0.1,0.1c0.1,0,0.1-0.1,0.1-0.1
				C129.5,6.3,129.5,6.1,129.4,5.9z"/>
		</g>
		<g>
			<path class="st1" d="M127.1,4C127.1,4,127.1,4,127.1,4c0-0.1,0-0.1,0-0.2c-0.1,0-0.1,0-0.2,0c0,0,0,0,0,0c-0.1,0.1,0,0.3,0,0.5
				c0,0.1,0,0.3,0,0.3c0,0.1,0,0.1,0.1,0.1c0.1,0,0.1,0,0.1-0.1c0-0.1,0-0.3,0-0.4C127.1,4.2,127.1,4.1,127.1,4z"/>
		</g>
		<g>
			<path class="st1" d="M128.1,6.3c0-0.1,0-0.1-0.1-0.1c0,0-0.1,0-0.1,0.1c0,0,0,0,0,0.1c0,0.1,0,0.4,0,0.5c0,0.1,0.1,0.1,0.1,0.1
				c0.1,0,0.1-0.1,0.1-0.1C128.1,6.7,128.1,6.4,128.1,6.3z"/>
		</g>
	</g>
	<g>
		<g>
			<path class="st1" d="M0.7,5c0,0,0.1,0,0.2,0.1c0,0,0-0.1,0.1-0.1C0.9,4.9,0.8,4.9,0.7,5z"/>
			<path class="st1" d="M2.5,5.2C2.9,5.5,3,6,3,6.5C3,6.8,2.9,7,2.9,7.3c0,0.2,0,0.4,0,0.6C3,7.8,3.1,7.7,3.1,7.6
				c0.2-0.2,0.3-0.4,0.4-0.5C3.7,6.8,4,6.4,4.3,6.3c0.4-0.1,0.8,0.2,1,0.5C5.6,7,5.8,7.3,6.1,7.4c0-0.1,0-0.2,0-0.3
				c0-0.2-0.1-0.4-0.1-0.7C6,5.9,6,5.4,6.5,5.1C6.9,5,7.3,4.9,7.7,5c0.1,0,0.5,0.1,0.5,0C7.5,4.5,6.7,3.7,7.1,2.8
				c0.2-0.4,0.5-0.8,0.7-1.1c0-0.1-0.2,0-0.4,0.1C7.1,1.8,6.7,2,6.6,2C6.2,2.1,5.8,2.1,5.5,1.8C5.1,1.6,5,1.2,4.9,0.8
				C4.7,0.9,4.5,1,4.4,1.1C4.2,1.4,4,1.6,3.7,1.8C3.5,1.9,3.3,1.9,3.1,2C2.8,2.2,2.5,2.6,2.2,2.9c0.1,0.2,0.2,0.5,0.2,0.7
				c0,0.6-0.3,0.8-0.8,1C1.4,4.7,1.2,4.8,0.9,4.9c0,0,0,0.1-0.1,0.1C0.9,5,1,5,1.1,5C1.6,5,2,5,2.5,5.2z M2.9,2.9
				c0.3,0,0.6,0,0.8-0.1c0.2-0.1,0.4-0.3,0.5-0.5C4.3,2.2,4.3,2,4.4,2c0.1,0,0.1,0.1,0.2,0.2c0.2,0.2,0.3,0.4,0.6,0.5
				c0.4,0.2,0.8,0.1,1.2,0c-0.1,0.3-0.1,0.6,0,0.8c0,0.2,0.1,0.4,0.2,0.6c0.1,0.1,0.2,0.2,0.2,0.3c-0.1,0-0.3,0-0.4,0.1
				C6,4.5,5.8,4.7,5.6,4.9C5.5,5,5.4,5.2,5.3,5.4c0,0.1,0,0.3-0.1,0.2C5,5.4,4.7,5.2,4.5,5.2C4.2,5.1,4,5.3,3.7,5.4
				c0-0.2-0.1-0.4-0.3-0.6C3.3,4.7,3,4.7,2.8,4.6c0,0,0.1-0.1,0.1-0.1C3,4.4,3,4.1,3,4c0-0.4-0.2-0.8-0.4-1.1
				C2.7,2.8,2.8,2.9,2.9,2.9z"/>
		</g>
		<g>
			<path class="st1" d="M5.3,3.7C5.2,3.6,5.6,3.3,5.5,3.2c-0.2,0-0.4,0.1-0.6,0c-0.1,0-0.3-0.4-0.4-0.4C4.5,2.8,4.4,3,4.4,3
				C4.3,3.1,4.3,3.2,4.2,3.3c-0.1,0.1-0.3,0-0.4,0c0,0-0.3-0.1-0.3,0C3.3,3.4,3.8,3.7,3.8,3.7C4,3.9,3.8,4,3.6,4.2
				C3.4,4.4,3.8,4.2,4,4.3C4.4,4.5,4.1,5,4.2,5c0.2-0.1,0.2-0.4,0.4-0.3c0.1,0,0.2,0,0.3,0.1c0,0,0.1,0,0.1,0c0.1-0.1-0.1-0.4,0-0.5
				c0.1-0.2,0.4-0.1,0.6-0.1C6,4.2,5.4,3.9,5.3,3.7z"/>
		</g>
	</g>
	<g>
		<path class="st1" d="M12.7,15.5c0-0.2,0.1-0.3,0-0.5c-0.1-0.5-0.4-1-0.7-1.5c-0.4-0.7-1.1-1.2-1.9-1.2c-0.5,0-1,0.1-1.4,0.1
			c-0.4,0-0.7,0-1.1-0.1c-0.2,0-0.4-0.1-0.5-0.1l0,0c-0.3-0.1-0.6-0.2-0.8-0.5c-0.3-0.2-0.5-0.5-0.7-0.7c-0.3-0.3-0.5-0.8-0.9-1.1
			C4.2,9.3,3.4,9.1,2.6,9.2C2,9.3,1.5,9.4,1,9.7C0.8,9.8,0.7,9.9,0.6,10c-0.1,0.2-0.2,0.4-0.3,0.7c0.2,0.9,0.6,1.8,1.2,2.6
			c0.5,0.3,1.1,0.5,1.6,0.6c0.7,0.1,1.4,0,2.1-0.1c0.1,0,0.3,0,0.4,0c0.3,0,0.6,0.1,0.9,0.4c0.1,0.1,0.2,0.2,0.2,0.3
			c0.4,0.6,0.7,1.2,1.3,1.6c0.4,0.4,1,0.7,1.6,0.8l1.3,0c0.4-0.1,0.8-0.3,1.2-0.5C12.4,16.2,12.6,15.8,12.7,15.5z M4.7,12.3
			c-0.2,0.2-0.6,0.2-0.8,0.3c-0.7,0-1.4-0.3-1.6-0.9c-0.1-0.3-0.1-0.6,0.3-0.8c0.2,0,0.5-0.1,0.7-0.1c0.5,0,0.9,0.3,1.2,0.7
			C4.6,11.6,4.9,12.1,4.7,12.3z M10.4,15.3c-0.6,0.3-1.4-0.1-1.8-0.6c-0.1-0.2-0.4-0.5-0.3-0.8c0.1-0.3,0.6-0.4,0.8-0.4
			c0.5,0,1,0.1,1.3,0.4c0.1,0.1,0.3,0.4,0.4,0.5C11,15,10.7,15.2,10.4,15.3z"/>
	</g>
	<g>
		<path class="st1" d="M121.3,2.4c-0.6-0.3-1.2-0.8-1.9-1c0.7,1,1.8,1.6,2.6,2.5c-0.5-0.1-1-0.5-1.5-0.5c0.1,0.2,0.3,0.3,0.5,0.4
			c0.3,0.3,0.7,0.6,1,0.8c0.5,0.4,1.1,0.8,1.7,1c0.4,0.1,1.2,0,1.5-0.5c0.5-1.1,0-1.6-0.3-2c-0.3-0.4-0.7-0.7-1.1-1
			c-0.2-0.2-0.5-0.3-0.6-0.5c0,0.1,0.1,0.2,0.2,0.4c-0.4-0.2-0.8-0.6-1.2-0.9c-0.4-0.3-0.8-0.9-1.3-1c0.2,0.6,1.1,1,1.3,1.6
			c-0.6-0.6-1.4-1.1-2.1-1.6C120.1,0.1,120,0,120,0l-1,0c0.1,0.2,0.3,0.3,0.4,0.5C120.1,1.1,120.8,1.7,121.3,2.4z M123.1,4
			c0.1-0.2,0.2-0.5,0.5-0.5c0.7-0.7,1.8,0.2,1.4,1.2c-0.3,0.7-1,0.9-1.5,0.4C123.1,4.8,122.9,4.5,123.1,4z"/>
	</g>
	<g>
		<g>
			<path class="st1" d="M13.9,3.6c-0.4-0.2-1-0.2-1.4-0.3c-0.3-0.1-0.7-0.2-1-0.1c0,0.2-0.6,2.1-0.9,2.9c-0.2,0.4-0.3,0.9-0.4,1.3
				c0,0.1-0.1,0.1,0,0.2c0.3,0,0.6,0,0.9,0c0.2,0,0.4,0,0.6,0c0,0.1,0,0.1-0.1,0.2c-0.1,0.3-0.1,0.7-0.2,1C11.1,9,11,9.4,10.9,9.8
				c-0.1,0.2-0.1,0.3-0.1,0.5c0.1,0,0.1-0.1,0.2-0.2c0.3-0.3,0.5-0.7,0.8-1c0.4-0.5,0.7-1,1.1-1.5c0.2-0.2,0.4-0.5,0.5-0.7
				c0.1-0.1,0.3-0.3,0.4-0.5c0.1-0.2-1.3-0.5-1.4-0.6C12.7,5.5,13,5,13.2,4.7C13.4,4.3,13.7,4,13.9,3.6z"/>
		</g>
		<g>
			<path class="st1" d="M9.4,8.1c-0.1,0-0.2,0.1-0.3,0.2C8.9,8.4,8.8,8.6,8.7,8.6c-0.1,0-0.1,0.1-0.1,0.2c0,0,0,0,0,0
				c0,0,0.1,0,0.1,0c0.2-0.1,0.3-0.2,0.5-0.3c0.1-0.1,0.2-0.2,0.3-0.2c0.1,0,0.1-0.1,0.1-0.2C9.5,8.1,9.5,8.1,9.4,8.1z"/>
		</g>
		<g>
			<path class="st1" d="M9.4,7C9.3,7,9.2,7,9.2,7C9,7,8.7,7,8.5,7.1c-0.1,0-0.1,0.1-0.1,0.2c0,0,0,0,0,0c0,0,0.1,0,0.1,0
				C8.8,7.3,9,7.2,9.2,7.2c0.1,0,0.2,0,0.2,0c0.1,0,0.1-0.1,0.1-0.1C9.5,7,9.4,6.9,9.4,7z"/>
		</g>
		<g>
			<path class="st1" d="M9.3,6.1C9.2,6.1,9.2,6,9.1,6C8.9,5.9,8.8,5.9,8.7,5.9c-0.1,0-0.1,0-0.1,0.1c0,0,0,0.1,0,0.1c0,0,0,0,0.1,0
				c0.1,0,0.2,0.1,0.4,0.1c0.1,0,0.2,0.1,0.3,0.1c0.1,0,0.1,0,0.1-0.1C9.4,6.2,9.4,6.1,9.3,6.1z"/>
		</g>
	</g>
</g>
</svg>
