<?xml version="1.0" encoding="utf-8"?>
<!-- Generator: Adobe Illustrator 24.2.0, SVG Export Plug-In . SVG Version: 6.00 Build 0)  -->
<svg version="1.1" id="Calque_1" xmlns="http://www.w3.org/2000/svg" xmlns:xlink="http://www.w3.org/1999/xlink" x="0px" y="0px"
	 viewBox="0 0 130.4 17" style="enable-background:new 0 0 130.4 17;" xml:space="preserve">
<style type="text/css">
	.st0{fill:#FBDDD8;}
	.st1{fill:#F18C91;}
	.st2{fill:#FFFFFF;}
	.st3{fill:#EFBC47;}
	.st4{fill:#76AE9D;}
	.st5{fill:#2C2623;}
</style>
<path class="st0" d="M122.2,0L8.3,0C3.7,0,0.1,4.1,0.1,8.7c0,4.6,3.7,8.3,8.3,8.3l113.8,0c4.6,0,8.3-4.1,8.3-8.7
	C130.5,3.7,126.7,0,122.2,0z"/>
<g>
	<g>
		<path class="st1" d="M118.3,0.8c-0.3,0-0.5,0.2-0.6,0.4c-0.1,0.1-0.1,0.2-0.1,0.3c-0.1-0.2-0.2-0.4-0.4-0.6
			c-0.2-0.2-0.5-0.2-0.5,0.2c0,0.5,0.3,1,0.6,1.4c0.1,0.1,0.2,0.3,0.4,0.4c0.3-0.4,0.6-0.7,0.8-1.1C118.7,1.5,118.8,0.8,118.3,0.8z"
			/>
	</g>
	<g>
		<path class="st2" d="M9.2,12.6c-0.1,0-0.2,0-0.2,0.1C9,13,8.8,13.2,8.7,13.4c-0.1,0.2-0.3,0.4-0.4,0.7c0,0.1,0,0.2,0.1,0.2
			c0,0,0,0,0,0c0.1,0,0.1,0,0.1-0.1c0.1-0.2,0.2-0.4,0.3-0.6c0.2-0.2,0.3-0.5,0.4-0.8C9.3,12.7,9.3,12.7,9.2,12.6z"/>
	</g>
	<g>
		<path class="st2" d="M9.7,15.1c-0.1,0-0.2,0-0.2,0.1c-0.1,0.2-0.1,0.4-0.2,0.5c0,0,0,0.1,0,0.1c-0.1,0-0.1,0.1-0.1,0.2
			c0,0.1,0.1,0.1,0.2,0.1c0,0,0,0,0,0c0.1,0,0.2-0.1,0.2-0.2c0,0,0-0.1,0-0.1c0.1-0.2,0.2-0.5,0.3-0.6C9.9,15.2,9.8,15.1,9.7,15.1z"
			/>
	</g>
	<g>
		<path class="st2" d="M11.2,13.5c-0.1,0.1-0.1,0.2-0.2,0.3c-0.1,0.2-0.2,0.4-0.3,0.6c0,0.1,0,0.2,0.1,0.2c0,0,0,0,0,0
			c0.1,0,0.1,0,0.1-0.1c0.1-0.2,0.2-0.4,0.3-0.6c0.1-0.1,0.1-0.2,0.2-0.3c0-0.1,0-0.2-0.1-0.2C11.3,13.4,11.2,13.4,11.2,13.5z"/>
	</g>
	<g>
		<path class="st2" d="M11.8,14.9c-0.1,0-0.2,0-0.2,0.1c-0.1,0.2-0.2,0.3-0.3,0.5c0,0.1-0.1,0.2-0.1,0.2c0,0,0,0.1,0,0.1
			c0,0,0,0,0,0c-0.1,0.1-0.1,0.2,0,0.2c0,0,0.1,0,0.1,0c0,0,0,0,0,0c0.1,0,0.1-0.1,0.1-0.2c0,0,0-0.1,0-0.1c0-0.1,0.1-0.1,0.1-0.2
			c0.1-0.2,0.2-0.4,0.3-0.6C11.9,15,11.9,15,11.8,14.9z"/>
	</g>
	<g>
		<path class="st2" d="M13.3,15.2c0,0.1-0.1,0.2-0.2,0.3c-0.1,0.1-0.2,0.3-0.3,0.5c0,0.1,0,0.2,0.1,0.2c0,0,0,0,0,0
			c0.1,0,0.1,0,0.1-0.1c0-0.1,0.1-0.3,0.2-0.4c0.1-0.1,0.1-0.2,0.2-0.3c0-0.1,0-0.2-0.1-0.2C13.5,15.1,13.4,15.1,13.3,15.2z"/>
	</g>
	<g>
		<path class="st2" d="M13.2,12.8c-0.1,0.2-0.2,0.3-0.3,0.5c-0.1,0.1-0.2,0.3-0.3,0.4c0,0.1,0,0.2,0.1,0.2c0,0,0.1,0,0.1,0
			c0.1,0,0.1,0,0.1-0.1c0.1-0.1,0.2-0.3,0.3-0.4c0.1-0.2,0.2-0.4,0.3-0.5c0-0.1,0-0.2-0.1-0.2C13.3,12.7,13.2,12.7,13.2,12.8z"/>
	</g>
	<g>
		<path class="st2" d="M11.6,11.1c-0.1,0.1-0.2,0.2-0.3,0.4c-0.1,0.1-0.2,0.2-0.3,0.3c-0.1,0.1-0.1,0.1,0,0.2C11,12,11,12,11,12
			c0,0,0.1,0,0.1,0c0.1-0.1,0.2-0.2,0.3-0.4c0.1-0.1,0.2-0.2,0.3-0.3c0.1-0.1,0.1-0.1,0-0.2C11.7,11,11.6,11,11.6,11.1z"/>
	</g>
	<g>
		<path class="st2" d="M14.7,13.6c-0.1,0.1-0.2,0.4-0.2,0.4c0,0.1,0,0.2,0,0.2c0,0,0.1,0,0.1,0c0,0,0.1,0,0.1-0.1
			c0-0.1,0.2-0.3,0.3-0.5c0-0.1,0-0.2-0.1-0.2C14.8,13.5,14.7,13.5,14.7,13.6z"/>
	</g>
	<g>
		<path class="st2" d="M6.8,13.9c-0.1,0-0.2,0-0.2,0.1c0,0.1-0.1,0.2-0.2,0.3c-0.1,0.1-0.1,0.3-0.2,0.4c0,0.1,0,0.2,0.1,0.2
			c0,0,0,0,0.1,0c0.1,0,0.1,0,0.1-0.1c0-0.1,0.1-0.3,0.2-0.4c0.1-0.1,0.1-0.3,0.2-0.4C6.9,14,6.9,13.9,6.8,13.9z"/>
	</g>
	<g>
		<path class="st2" d="M8.8,10.8c-0.1,0.1-0.1,0.2-0.2,0.3c-0.1,0.2-0.3,0.3-0.4,0.5c0,0.1,0,0.2,0,0.2c0,0,0.1,0,0.1,0
			c0,0,0.1,0,0.1-0.1c0.1-0.2,0.2-0.3,0.4-0.5C8.9,11.2,8.9,11.1,9,11c0.1-0.1,0-0.2,0-0.2C8.9,10.7,8.8,10.8,8.8,10.8z"/>
	</g>
	<g>
		<path class="st3" d="M13.6,3.1c-0.1-0.3-0.1-0.6-0.3-0.9c-0.1,0.1-0.1,0.2-0.1,0.3c-0.1,0.2-0.1,0.4-0.2,0.6
			c-0.1,0.2-0.2,0.3-0.4,0.4c-0.1,0-0.2,0.1-0.2,0.1c0.1,0.1,0.2,0.1,0.3,0.1c0.1,0.1,0.3,0.1,0.4,0.2c0.2,0.2,0.2,0.5,0.2,0.8
			c0,0,0,0,0.1,0c0.1-0.2,0.1-0.5,0.2-0.7c0.2-0.2,0.4-0.4,0.6-0.6c0-0.1-0.2-0.1-0.3-0.1C13.8,3.3,13.7,3.3,13.6,3.1z"/>
	</g>
	<g>
		<g>
			<path class="st3" d="M9.3,5.7c-1.1-1.3-2.7-2-4.3-1.3C3.1,5.2,2,6.9,2,8.9c0,0.8,0.2,1.4,0.4,2.1c0.1,0.3,0.3,0.5,0.4,0.9
				c0.1,0.3,1.2-0.1,1.4-0.2c0,0-0.1-0.2-0.1-0.5C4,10.4,4,9.6,4,9C4.1,8,4.5,6.9,5.4,6.4C6.1,5.9,7,6.2,7.6,6.7
				c0.7,0.7,1,1.8,1.3,2.7c0.5-0.1,1.1-0.3,1.6-0.5c0-0.3-0.1-0.7-0.2-1C10.1,7.1,9.8,6.3,9.3,5.7z"/>
		</g>
		<g>
			<path class="st4" d="M10.7,7.2c-0.3-0.5-0.6-0.9-1-1.3C8.9,5,8,4.4,7.1,4C5.5,3.4,3.7,3.5,2.6,4.8c-1,1-1.4,2.5-1.6,3.9
				C0.8,9.9,1,11.4,2,12.2c0,0-0.1,0-0.1,0.1c0.4-0.2,0.9,0,1.3-0.2c0,0-0.2-1-0.3-1.4c-0.1-0.6-0.1-1.4,0-2.1
				c0.1-1.1,0.5-2.4,1.6-2.9c0.5-0.3,1.1-0.5,1.7-0.4c0.6,0,1.1,0.3,1.5,0.6c0.9,0.6,1.6,2.1,1.9,3.3c0,0,0.1,0,0.6-0.3
				C10.6,8.9,11,8.8,11,8.4c0-0.1,0.1-0.3,0.1-0.4C11,7.8,10.8,7.5,10.7,7.2z"/>
		</g>
		<g>
			<path class="st2" d="M11.9,8c0-0.1-0.1-0.4-0.1-0.4c-0.1-0.4-0.3-0.7-0.5-1.1c-0.6-1.2-1.5-2.5-2.8-3C6.9,3,4.9,2.9,3.5,3.7
				C1.4,4.8,0.6,7.1,0.8,9.4C0.8,10.2,1,11,1.2,11.8c0.1,0.3-0.1,0.5,0,0.7c0,0,0,0.2,0,0.1c0.3-0.1,1.2-0.2,1.2-0.4
				c0-0.1-0.1-0.3-0.1-0.4c-0.1-0.3-0.1-0.6-0.2-0.9C2,10.3,1.9,9.7,1.9,9.1c0-1.1,0.2-2,0.8-2.9c0.5-0.7,1.3-1.2,2.2-1.5
				c0.4-0.1,0.8-0.2,1.2-0.1c0.8,0.1,1.4,0.3,2,0.7c0.6,0.5,1.1,1,1.5,1.6c0.2,0.4,0.5,0.7,0.7,1.1c0.1,0.2,0.5,0.9,0.5,0.9
				c0.1,0,1.1-0.5,1.4-0.7C12.2,8.1,11.8,8.1,11.9,8z"/>
		</g>
		<g>
			<path class="st1" d="M1.2,7.1c0.6-1.6,2-2.8,3.6-3.3c1.9-0.6,4,0.2,5.2,1.7c0.7,0.9,1.2,1.8,1.6,2.8c0.4-0.1,0.8-0.3,1.1-0.5
				C12.1,5,9.2,2.4,6.2,2.4c-1.9,0-3.7,1-5,2.4C1,5,0.8,5.3,0.7,5.5c-0.4,1-0.6,2.1-0.6,3.2c0,1.4,0.4,2.8,1,4c0.1,0,0.3-0.1,0.4,0
				C0.8,11,0.6,8.8,1.2,7.1z"/>
		</g>
	</g>
	<g>
		<path class="st1" d="M113.6,0.3c-0.1,0.5,0.3,1.2,0.6,1.6c0.2,0.2,0.5,0.6,0.8,0.7c0,0,0,0,0,0c0.2-0.1,0.3-0.2,0.3-0.3
			c0.2-0.5,0.5-1,0.6-1.5c0-0.1,0-0.4,0-0.7L115,0c-0.1,0.2-0.1,0.4-0.2,0.6c-0.1,0-0.1-0.1-0.1-0.2c-0.1-0.1-0.2-0.3-0.4-0.4
			c0,0-0.1,0-0.1-0.1l-0.3,0C113.8,0,113.7,0.1,113.6,0.3z"/>
	</g>
	<path class="st3" d="M11.5,1.3c-0.1-0.2-0.2-0.5-0.3-0.7c0-0.1-0.1-0.2-0.1-0.3c-0.1,0.4-0.2,0.9-0.5,1.3C10.5,1.8,10.2,2,9.9,2
		c0,0.1,0.2,0.1,0.3,0.2c0.2,0.1,0.3,0.2,0.5,0.3C10.9,2.6,11,2.9,11,3.1c0,0.2,0,0.3,0.1,0.5c0,0,0,0.1,0,0.1c0,0,0,0.1,0.1,0.1
		c0.1-0.1,0.1-0.2,0.1-0.3c0.1-0.2,0.1-0.4,0.2-0.6c0.1-0.3,0.3-0.5,0.5-0.7c0.1-0.1,0.3-0.2,0.4-0.4c-0.1-0.1-0.3-0.1-0.4-0.1
		C11.8,1.6,11.6,1.5,11.5,1.3z"/>
	<g>
		<g>
			<path class="st2" d="M116.4,14.3c-0.2,0.2-0.5,0.5-0.7,0.6c-0.1,0-0.1,0.1-0.1,0.2c0,0.1,0.1,0.1,0.1,0.1c0,0,0,0,0,0
				c0.2-0.1,0.6-0.4,0.8-0.7c0-0.1,0-0.1,0-0.2C116.5,14.2,116.5,14.2,116.4,14.3z"/>
		</g>
		<g>
			<path class="st2" d="M118.2,14.3c-0.2,0.1-0.4,0.3-0.5,0.4l-0.1,0.1c-0.1,0-0.1,0.1,0,0.2c0,0,0.1,0,0.1,0c0,0,0.1,0,0.1,0
				l0.1-0.1c0.2-0.1,0.3-0.3,0.5-0.4c0.1,0,0.1-0.1,0.1-0.2C118.3,14.3,118.2,14.3,118.2,14.3z"/>
		</g>
		<g>
			<path class="st2" d="M119.6,14.8c-0.1,0.1-0.3,0.2-0.5,0.3c-0.1,0.1-0.2,0.2-0.2,0.2c-0.1,0-0.1,0.1-0.1,0.2
				c0,0.1,0.1,0.1,0.1,0.1c0,0,0,0,0,0c0.1,0,0.2-0.1,0.3-0.2c0.1-0.1,0.3-0.2,0.4-0.3c0.1,0,0.1-0.1,0.1-0.2
				C119.8,14.8,119.7,14.8,119.6,14.8z"/>
		</g>
		<g>
			<path class="st2" d="M118.6,12.6L118.6,12.6c-0.3,0.1-0.5,0.3-0.7,0.5c0,0.1,0,0.1,0,0.2c0,0,0.1,0,0.1,0c0,0,0.1,0,0.1,0
				c0.1-0.1,0.3-0.3,0.5-0.4l0.1,0c0.1,0,0.1-0.1,0.1-0.2C118.8,12.5,118.7,12.5,118.6,12.6z"/>
		</g>
		<g>
			<path class="st2" d="M120,13c-0.2,0.1-0.4,0.2-0.5,0.3c0,0-0.1,0-0.1,0c0,0,0,0-0.1,0.1c0,0,0,0,0,0c-0.1,0-0.1,0.1-0.1,0.2
				c0,0,0.1,0.1,0.1,0.1c0,0,0,0,0,0c0,0,0,0,0.1,0c0.2-0.1,0.4-0.2,0.7-0.3c0.1,0,0.1-0.1,0.1-0.2C120.1,13,120.1,13,120,13z"/>
		</g>
		<g>
			<path class="st2" d="M119.3,16.8c0.1,0,0.1-0.1,0.1-0.2c0-0.1-0.1-0.1-0.2-0.1c-0.1,0-0.3,0.1-0.4,0.2c-0.1,0.1-0.3,0.2-0.3,0.2
				c-0.1,0-0.2,0-0.2,0.1c0,0,0,0,0,0h0.6c0,0,0,0,0.1,0C119.1,16.9,119.2,16.8,119.3,16.8z"/>
		</g>
		<g>
			<path class="st2" d="M120.7,15.8c-0.1,0.1-0.2,0.2-0.4,0.3c-0.1,0-0.1,0.1-0.2,0.1c-0.1,0-0.1,0.1,0,0.2c0,0,0.1,0.1,0.1,0.1
				c0,0,0.1,0,0.1,0c0.1,0,0.1-0.1,0.2-0.1c0.1-0.1,0.3-0.2,0.4-0.3c0.1-0.1,0.1-0.1,0-0.2C120.8,15.7,120.7,15.7,120.7,15.8z"/>
		</g>
		<g>
			<path class="st2" d="M121.1,14.4c-0.1,0.1-0.6,0.4-0.6,0.4l0.2,0.2c0,0,0.4-0.3,0.6-0.4c0.1,0,0.1-0.1,0-0.2
				C121.2,14.4,121.1,14.4,121.1,14.4z"/>
		</g>
	</g>
	<g>
		<g>
			<path class="st4" d="M123.5,0C123.5,0,123.5,0.1,123.5,0C123.5,0.1,123.5,0.1,123.5,0C123.5,0.1,123.5,0,123.5,0z"/>
			<path class="st4" d="M119.7,0.9c0.3,1,0.9,1.9,1.4,2.9c0,0,0,0-0.1,0.1c-0.8,0-1.7-0.2-2.5-0.3c0.8,0.7,2.6,1.4,3,2.3
				c-0.7,0.1-1.4,0.1-2.1,0.1c1.1,0.6,2.6,0.6,3.7,1.2c0,0.1-0.1,0-0.1,0c1.2,0.3,1.5-0.3,1.9-1.5c0.3-0.9,0.6-1.7,0.5-2.6
				c-0.4,0.1-0.6,0.4-1,0.5c-0.3-0.6,0.4-1.5,0.2-2.1c-0.5,0.2-0.8,0.8-1.2,1.2c-0.3-0.8,0.3-1.8,0.1-2.6c0,0,0,0,0,0
				c-0.3,0.5-0.5,1.3-0.9,1.7c-0.2-0.5-0.5-1.2-0.8-1.8l-0.9,0c0.1,0.7,0.4,1.5,0.6,2.1C121,1.7,120.2,1,119.7,0.9z"/>
		</g>
		<g>
			<path class="st3" d="M122,7.3l2.1-1C123.3,5.9,122.5,6.6,122,7.3z"/>
			<path class="st3" d="M130.3,10.1c-0.6-2.8-2.6-5.6-5.8-4.8c-1,0.3-2,1.2-2.6,2l0.1-0.1c0.5-0.7,1.3-1.3,2.1-1l-2.1,1
				c-0.2,0.3-0.4,0.6-0.5,0.9c-0.9,2.2,0.1,4.2,1.4,6c0.7,1,1.9,1.7,3.2,1.8C128.2,14.7,129.7,12.6,130.3,10.1z"/>
		</g>
		<g>
			<path class="st2" d="M123.3,6.2c0,0.2-0.1,0.5-0.2,0.7c0,0.1,0,0.1,0,0.2c-0.3,0.9-0.5,1.8-0.7,2.8c-0.2,0.9-0.3,1.8-0.3,2.7
				l0,0.1c0,0.1,0,0.3,0,0.4c0,0,0,0.1,0.1,0.1c0,0,0,0,0,0c0,0,0.1-0.1,0.1-0.1c0,0,0-0.2,0-0.4l0-0.1c0.1-0.9,0.2-1.8,0.3-2.7
				c0.2-1,0.4-1.9,0.7-2.8c0,0,0-0.1,0-0.2c0.1-0.2,0.2-0.5,0.2-0.8C123.5,6.2,123.4,6.1,123.3,6.2C123.4,6.1,123.3,6.2,123.3,6.2z"
				/>
		</g>
		<g>
			<path class="st2" d="M128.5,12.7c0.2-1,0.4-1.9,0.7-2.8c0-0.1,0-0.1,0.1-0.2c0.1-0.2,0.2-0.5,0.2-0.8c0,0,0-0.1-0.1-0.1
				c0,0-0.1,0-0.1,0.1c0,0.2-0.1,0.5-0.2,0.7c0,0.1,0,0.1-0.1,0.2c-0.3,0.9-0.5,1.8-0.7,2.8c-0.1,0.5-0.2,1-0.2,1.5
				c0.1-0.1,0.1-0.1,0.2-0.2C128.4,13.6,128.4,13.2,128.5,12.7z"/>
		</g>
		<g>
			<path class="st2" d="M125.6,5.3C125.6,5.3,125.5,5.3,125.6,5.3c-0.2,0.5-0.3,1-0.3,1.4c-0.1,0.5-0.2,1-0.3,1.6
				c-0.1,0.3-0.1,0.5-0.2,0.8c-0.3,1.5-0.7,3-0.9,4.5c0,0,0,0.1,0,0.2c-0.2,1-0.2,1.1-0.1,1.1c0,0,0,0,0,0c0,0,0.1,0,0.1,0
				c0,0,0-0.1,0-0.1c0-0.1,0.1-0.8,0.1-1c0-0.1,0-0.1,0-0.2c0.2-1.5,0.6-3,0.9-4.5c0.1-0.3,0.1-0.5,0.2-0.8c0.1-0.5,0.2-1.1,0.3-1.6
				C125.5,6.2,125.6,5.8,125.6,5.3C125.7,5.3,125.7,5.3,125.6,5.3C125.6,5.3,125.6,5.3,125.6,5.3z"/>
		</g>
		<g>
			<path class="st2" d="M127.6,5.9C127.5,5.9,127.5,5.9,127.6,5.9c-0.1,0.3-0.1,0.5-0.1,0.7c0,0.1,0,0.1,0,0.2
				c-0.2,1.2-0.4,2.3-0.7,3.3c-0.1,0.5-0.3,1-0.4,1.5c-0.2,0.9-0.5,1.9-0.7,2.8c0,0.1-0.1,0.2-0.1,0.4c-0.1,0.3-0.2,0.6-0.2,0.9
				c0,0,0,0.1,0.1,0.1c0,0,0,0,0,0c0,0,0.1,0,0.1-0.1c0-0.3,0.1-0.6,0.1-0.8c0-0.1,0.1-0.3,0.1-0.4c0.2-0.9,0.4-1.9,0.7-2.8
				c0.1-0.5,0.3-1,0.4-1.5c0.3-1.1,0.5-2.2,0.7-3.4c0-0.1,0-0.1,0-0.2C127.6,6.4,127.7,6.2,127.6,5.9C127.7,5.9,127.6,5.9,127.6,5.9
				C127.6,5.9,127.6,5.9,127.6,5.9z"/>
		</g>
		<g>
			<path class="st2" d="M126.5,14.2L126.5,14.2c-0.4-0.1-0.7-0.2-1-0.3c-0.7-0.2-1.4-0.4-2.1-0.6c-0.6-0.2-1-0.3-1.4-0.3
				c0,0-0.1,0-0.1,0.1c0,0,0,0.1,0.1,0.1c0,0,0.1,0,0.1,0c0,0,0,0,0,0c0,0,0,0,0,0c0.4,0,0.8,0.1,1.2,0.3c0.7,0.3,1.4,0.5,2.1,0.6
				c0.3,0.1,0.6,0.2,1,0.3l0,0c0.4,0.1,0.8,0.2,1.2,0.3c0,0,0.1-0.1,0.1-0.1C127.4,14.4,127,14.3,126.5,14.2z"/>
		</g>
		<g>
			<path class="st2" d="M127.4,12.3c-0.9-0.3-1.8-0.5-2.7-0.7c-0.4-0.1-0.8-0.2-1.3-0.3c-0.1,0-0.4-0.1-0.6-0.2
				c-0.6-0.2-1.3-0.5-1.6-0.4c0,0-0.1,0.1,0,0.1s0.1,0.1,0.1,0c0.2-0.1,1,0.2,1.5,0.4c0.3,0.1,0.5,0.2,0.6,0.2
				c0.4,0.1,0.8,0.2,1.3,0.3c0.9,0.2,1.8,0.4,2.7,0.7c0.6,0.2,1.2,0.3,1.8,0.5c0,0,0.1-0.1,0.1-0.1C128.6,12.6,128,12.4,127.4,12.3z
				"/>
		</g>
		<g>
			<path class="st2" d="M128.3,10.1c-0.4-0.2-0.9-0.3-1.3-0.5c-0.3-0.1-1.5-0.5-2.9-0.9c-0.6-0.2-1.2-0.4-1.7-0.5
				c-0.8-0.3-0.8-0.2-0.8-0.2c0,0,0,0.1,0,0.1c0,0,0,0,0,0c0.2,0,4.7,1.4,5.3,1.6c0.4,0.1,0.9,0.3,1.3,0.5c0.6,0.2,1.2,0.5,1.8,0.6
				c0,0,0-0.1,0-0.1C129.5,10.6,128.9,10.3,128.3,10.1z"/>
		</g>
		<g>
			<path class="st2" d="M129.5,7.8c-1.1-0.5-2.3-0.8-3.4-1.1c-1-0.3-1.9-0.5-2.8-0.8c0,0-0.1,0-0.1,0c0,0,0,0.1,0,0.1
				c0.9,0.3,1.8,0.6,2.8,0.8c1.2,0.3,2.3,0.6,3.4,1.1c0,0,0,0,0,0c0,0,0.1,0,0.1,0C129.5,7.9,129.5,7.9,129.5,7.8z"/>
		</g>
		<g>
			<path class="st5" d="M124.7,12.3c-0.1,0.1-0.3,0.2-0.2,0.3c-0.3,0.2,0.2,0.7,0.4,0.7c0.4,0,0.4-0.5,0.2-0.7
				C125,12.3,124.9,12.2,124.7,12.3z"/>
		</g>
		<g>
			<path class="st5" d="M128.4,10.7c-0.1-0.2-0.3-0.3-0.5-0.2c-0.1,0.1-0.3,0.2-0.2,0.3c-0.3,0.2,0.2,0.7,0.4,0.7
				C128.5,11.4,128.5,11,128.4,10.7z"/>
		</g>
		<g>
			<path class="st5" d="M127.2,12.1C127.2,12.1,127.2,12.1,127.2,12.1c0,0.3-0.2,0.6-0.3,0.7c-0.3,0.2-0.6,0.1-0.7-0.1
				c0,0-0.1,0-0.1,0c0,0,0,0.1,0,0.1c0.1,0.1,0.3,0.2,0.4,0.2c0.2,0,0.3,0,0.5-0.1C127.2,12.8,127.4,12.4,127.2,12.1
				C127.3,12.1,127.3,12.1,127.2,12.1z"/>
		</g>
	</g>
</g>
</svg>
