<?xml version="1.0" encoding="utf-8"?>
<!-- Generator: Adobe Illustrator 25.4.1, SVG Export Plug-In . SVG Version: 6.00 Build 0)  -->
<svg version="1.1" id="Calque_1" xmlns="http://www.w3.org/2000/svg" xmlns:xlink="http://www.w3.org/1999/xlink" x="0px" y="0px"
	 viewBox="0 0 130.4 17" style="enable-background:new 0 0 130.4 17;" xml:space="preserve">
<style type="text/css">
	.st0{fill:#FFFFFF;stroke:#CCCECE;stroke-width:0.25;stroke-miterlimit:10;}
	.st1{fill:#EFC4C3;}
	.st2{fill:#3B68AF;}
	.st3{fill:#FAD3CF;}
	.st4{fill:#DEB319;}
	.st5{fill:#A46B5A;}
</style>
<path class="st0" d="M121.9,0L8.4,0.3C3.8,0.3,0.1,4,0.1,8.6s3.7,8.3,8.3,8.3L122.2,17c4.6,0,8.3-4.2,8.3-8.8S126.5,0,121.9,0"/>
<g>
	<path class="st1" d="M117.8,2.3c0.2,0.3,0.3,0.7,0.6,1c0.2,0.3,0.5,0.4,0.8,0.6c0.8,0.4,1.6,0.8,2.4,0.9s1.7-0.2,2.2-0.9
		c0,0-0.8-0.9-0.9-1c-0.3-0.3-0.5-0.5-0.8-0.7c-0.7-0.5-1.4-1.3-2-1.9c-0.1-0.1-0.2-0.2-0.3-0.3h-2.2C117.4,0.8,117.5,1.6,117.8,2.3
		z"/>
	<path class="st2" d="M116.7,2.4c0.1,1.1,0.8,2.2,1.8,2.8c0.9,0.6,2.1,0.8,3.1,0.6c0.8-0.2,1.6-0.6,1.8-1.5
		c-0.6,0.3-1.3,0.4-1.9,0.4c-0.8,0-1.7-0.3-2.5-0.8c-0.7-0.5-1.3-1.3-1.5-2.2c-0.2-0.6-0.1-1.2,0-1.8H117
		C116.7,0.8,116.6,1.8,116.7,2.4z"/>
	<path class="st2" d="M118.8,0.3L118.8,0.3L118.8,0.3L118.8,0.3z"/>
	<path class="st2" d="M118.4,0.3c-0.1,0-0.2,0.1-0.2,0.3c0.2,0,0.4-0.1,0.6-0.2C118.7,0.3,118.5,0.3,118.4,0.3z"/>
	<path class="st2" d="M118.7,1L118.7,1L118.7,1L118.7,1z"/>
	<path class="st2" d="M118.3,1c-0.1,0-0.2,0.1-0.2,0.3c0.2,0,0.4-0.1,0.6-0.2C118.6,1,118.4,0.9,118.3,1z"/>
	<path class="st2" d="M119.1,2.1c-0.1,0-0.2,0.1-0.2,0.3c0.2,0,0.4-0.1,0.6-0.2C119.3,2.1,119.2,2.1,119.1,2.1z"/>
	<path class="st2" d="M119.5,2.1L119.5,2.1L119.5,2.1L119.5,2.1z"/>
	<path class="st2" d="M119.4,0.7L119.4,0.7L119.4,0.7L119.4,0.7z"/>
	<path class="st2" d="M119,0.7c-0.1,0-0.2,0.1-0.2,0.3c0.2,0,0.4-0.1,0.6-0.2C119.3,0.7,119.1,0.6,119,0.7z"/>
	<path class="st2" d="M119.4,1.4L119.4,1.4C119.5,1.4,119.4,1.4,119.4,1.4L119.4,1.4z"/>
	<path class="st2" d="M119.1,1.4c-0.1,0-0.2,0.1-0.2,0.3c0.2,0,0.4-0.1,0.6-0.2C119.3,1.4,119.2,1.3,119.1,1.4z"/>
	<path class="st2" d="M120.2,1.5L120.2,1.5C120.3,1.5,120.2,1.5,120.2,1.5L120.2,1.5z"/>
	<path class="st2" d="M119.9,1.5c-0.1,0-0.2,0.1-0.2,0.3c0.2,0,0.4-0.1,0.6-0.2C120.1,1.5,120,1.4,119.9,1.5z"/>
	<path class="st2" d="M122,2.9L122,2.9L122,2.9L122,2.9z"/>
	<path class="st2" d="M121.6,2.9c-0.1,0-0.2,0.1-0.2,0.3c0.2,0,0.4-0.1,0.6-0.2C121.9,2.9,121.7,2.9,121.6,2.9z"/>
	<path class="st2" d="M121.2,2.9L121.2,2.9L121.2,2.9L121.2,2.9z"/>
	<path class="st2" d="M120.8,2.9c-0.1,0-0.2,0.1-0.2,0.3c0.2,0,0.4-0.1,0.6-0.2C121.1,2.9,120.9,2.9,120.8,2.9z"/>
	<path class="st2" d="M120,2.7L120,2.7C120.1,2.7,120,2.7,120,2.7L120,2.7z"/>
	<path class="st2" d="M119.7,2.7c-0.1,0-0.2,0.1-0.2,0.3c0.2,0,0.4-0.1,0.6-0.2C119.9,2.7,119.8,2.6,119.7,2.7z"/>
	<path class="st2" d="M121,2.2L121,2.2L121,2.2L121,2.2z"/>
	<path class="st2" d="M120.6,2.2c-0.1,0-0.2,0.1-0.2,0.3c0.2,0,0.4-0.1,0.6-0.2C120.9,2.2,120.7,2.2,120.6,2.2z"/>
	<path class="st2" d="M121.4,3.6L121.4,3.6L121.4,3.6L121.4,3.6z"/>
	<path class="st2" d="M121,3.6c-0.1,0-0.2,0.1-0.2,0.3c0.2,0,0.4-0.1,0.6-0.2C121.2,3.6,121.1,3.5,121,3.6z"/>
	<path class="st2" d="M122.5,3.5L122.5,3.5L122.5,3.5L122.5,3.5z"/>
	<path class="st2" d="M122.1,3.5c-0.1,0-0.2,0.1-0.2,0.3c0.2,0,0.4-0.1,0.6-0.2C122.4,3.5,122.2,3.4,122.1,3.5z"/>
</g>
<g>
	<g>
		<path class="st3" d="M4.7,6.1l0.1-0.2c0,0.1,0,0.2,0,0.4c0.5-0.3,0.7-1,0.5-1.5C4.8,5,4.6,5.6,4.7,6.1z"/>
		<path class="st1" d="M6,5.5l0.1-0.2c0,0.1,0,0.2,0,0.4c0.5-0.3,0.7-1,0.5-1.5C6.1,4.4,5.8,5,6,5.5z"/>
		<path class="st1" d="M5.3,7.3l0.1-0.2c0,0.1,0,0.2,0,0.4c0.5-0.3,0.7-1,0.5-1.5C5.4,6.3,5.2,6.8,5.3,7.3z"/>
		<path class="st1" d="M6.6,7.2L6.7,7c0,0.1,0,0.2,0,0.4c0.5-0.3,0.7-1,0.5-1.5C6.7,6.1,6.5,6.7,6.6,7.2z"/>
		<path class="st1" d="M7.8,5.7l0.1-0.2c0,0.1,0,0.2,0,0.4c0.5-0.3,0.7-1,0.5-1.5C8,4.6,7.7,5.2,7.8,5.7z"/>
		<path class="st1" d="M8,7.4l0.1-0.2c0,0.1,0,0.2,0,0.4c0.5-0.3,0.7-1,0.5-1.5C8.2,6.3,7.9,6.9,8,7.4z"/>
		<path class="st1" d="M9.4,7.9l0.1-0.2c0,0.1,0,0.2,0,0.4c0.5-0.3,0.7-1,0.5-1.5C9.5,6.9,9.2,7.4,9.4,7.9z"/>
		<path class="st1" d="M8.2,9.1l0.1-0.2c0,0.1,0,0.2,0,0.4C8.8,9,9,8.3,8.8,7.8C8.3,8,8,8.6,8.2,9.1z"/>
		<path class="st1" d="M6.8,8.9l0.1-0.2c0,0.1,0,0.2,0,0.4c0.5-0.3,0.7-1,0.5-1.5C7,7.8,6.7,8.4,6.8,8.9z"/>
		<path class="st1" d="M9.1,6.3l0.1-0.2c0,0.1,0,0.2,0,0.4C9.8,6.2,10,5.5,9.8,5C9.3,5.2,9,5.8,9.1,6.3z"/>
	</g>
	<g>
		<path class="st4" d="M3.6,13.8c0.2-0.1,0.4-0.3,0.5-0.5c0.8-1,1.2-2.1,1.3-3.3c0-1.2-0.1-2.5-0.7-3.6C4.3,5.8,3.6,5.6,2.9,6
			C2.7,6.1,2.6,6.2,2.4,6.4C1.5,7.1,0.7,7.9,0.1,8.9l0,0c0.1,1.9,0.8,3.6,1.9,5c0.2,0,0.4,0,0.6,0C3,14,3.3,14,3.6,13.8z"/>
	</g>
	<g>
		<path class="st2" d="M2.6,12.1L2.6,12.1C2.6,12.1,2.5,12.1,2.6,12.1c-0.1-0.2-0.1-0.3-0.1-0.4c-0.1,0.1-0.2,0.2-0.2,0.3H2.2v-0.1
			c0.1-0.1,0.2-0.3,0.3-0.4c0,0,0,0,0.1,0c0,0,0,0,0.1,0C2.6,11.7,2.7,11.9,2.6,12.1C2.7,12.1,2.6,12.1,2.6,12.1z"/>
	</g>
	<g>
		<path class="st2" d="M1.6,12.9C1.5,12.9,1.5,12.8,1.6,12.9c-0.1-0.2-0.1-0.3-0.1-0.4l-0.1,0.1l-0.1,0.1v-0.1l0.1-0.1
			c0.1-0.1,0.1-0.1,0.2-0.2c0,0,0,0,0.1,0c0,0,0,0,0.1,0C1.6,12.5,1.6,12.7,1.6,12.9L1.6,12.9z"/>
	</g>
	<g>
		<path class="st2" d="M2.6,13.2L2.6,13.2L2.6,13.2c-0.1-0.2-0.1-0.3-0.1-0.4c-0.1,0.1-0.2,0.2-0.2,0.3H2.2V13
			c0.1-0.1,0.2-0.3,0.3-0.4c0,0,0,0,0.1,0c0,0,0,0,0.1,0C2.7,12.8,2.7,13,2.6,13.2C2.7,13.2,2.7,13.2,2.6,13.2z"/>
	</g>
	<g>
		<path class="st2" d="M2.5,11.3L2.5,11.3C2.5,11.3,2.4,11.2,2.5,11.3c-0.1-0.2-0.1-0.3-0.1-0.4c-0.1,0.1-0.2,0.2-0.2,0.3H2.1v-0.1
			c0.1-0.1,0.2-0.3,0.3-0.4c0,0,0,0,0.1,0c0,0,0,0,0.1,0C2.5,10.9,2.6,11,2.5,11.3C2.6,11.2,2.5,11.3,2.5,11.3z"/>
	</g>
	<g>
		<path class="st2" d="M3.4,11.6L3.4,11.6C3.4,11.6,3.3,11.6,3.4,11.6c-0.1-0.2-0.1-0.3-0.1-0.4c-0.1,0.1-0.2,0.2-0.2,0.3H3v-0.1
			c0-0.1,0.1-0.2,0.2-0.4c0,0,0,0,0.1,0c0,0,0,0,0.1,0C3.4,11.2,3.5,11.4,3.4,11.6C3.5,11.6,3.4,11.6,3.4,11.6z"/>
	</g>
	<g>
		<path class="st2" d="M2.3,10.4L2.3,10.4C2.2,10.4,2.2,10.3,2.3,10.4c-0.1-0.2-0.1-0.3-0.1-0.4C2.1,10.1,2,10.2,2,10.3H1.9v-0.1
			c0-0.1,0.1-0.3,0.2-0.4c0,0,0,0,0.1,0c0,0,0,0,0.1,0C2.3,10,2.4,10.1,2.3,10.4C2.4,10.3,2.3,10.4,2.3,10.4z"/>
	</g>
	<g>
		<path class="st2" d="M2.3,8.4L2.3,8.4C2.3,8.4,2.3,8.3,2.3,8.4c0-0.2,0-0.3-0.1-0.4C2.1,8.1,2.1,8.2,2,8.3H1.9V8.2
			C2,8.1,2.1,7.9,2.2,7.8c0,0,0,0,0.1,0c0,0,0,0,0.1,0C2.4,8,2.4,8.1,2.3,8.4C2.4,8.3,2.4,8.4,2.3,8.4z"/>
	</g>
	<g>
		<path class="st2" d="M3.8,8.7L3.8,8.7C3.8,8.7,3.8,8.6,3.8,8.7c0-0.2-0.1-0.3-0.1-0.4C3.6,8.4,3.5,8.5,3.5,8.6H3.4V8.5
			c0.1-0.1,0.2-0.3,0.3-0.4c0,0,0,0,0.1,0c0,0,0,0,0.1,0C3.9,8.3,3.9,8.4,3.8,8.7C3.9,8.6,3.9,8.7,3.8,8.7z"/>
	</g>
	<g>
		<path class="st2" d="M1.4,9.2L1.4,9.2C1.4,9.2,1.3,9.1,1.4,9.2C1.3,9,1.3,8.9,1.3,8.8C1.2,8.9,1.1,9,1,9.1H0.9V9
			C1,8.9,1.1,8.7,1.2,8.6c0,0,0,0,0.1,0c0,0,0,0,0.1,0C1.4,8.8,1.5,8.9,1.4,9.2C1.5,9.2,1.4,9.2,1.4,9.2z"/>
	</g>
	<g>
		<path class="st2" d="M2.4,9.4L2.4,9.4C2.3,9.4,2.3,9.3,2.4,9.4C2.3,9.2,2.3,9.1,2.3,9C2.2,9.1,2.1,9.2,2,9.3H1.9V9.2
			C2,9.1,2.1,8.9,2.2,8.8c0,0,0,0,0.1,0c0,0,0,0,0.1,0C2.4,9,2.5,9.1,2.4,9.4C2.4,9.3,2.4,9.4,2.4,9.4z"/>
	</g>
	<g>
		<path class="st2" d="M3.3,9.6L3.3,9.6C3.2,9.6,3.2,9.5,3.3,9.6C3.2,9.4,3.2,9.3,3.1,9.2c0,0.1-0.1,0.2-0.2,0.3H2.8V9.4
			C2.9,9.3,3,9.1,3.1,9c0,0,0,0,0.1,0c0,0,0,0,0.1,0C3.3,9.2,3.3,9.3,3.3,9.6L3.3,9.6z"/>
	</g>
	<g>
		<path class="st2" d="M4.2,9.8L4.2,9.8C4.1,9.8,4.1,9.8,4.2,9.8C4.1,9.6,4.1,9.5,4,9.4c0,0.1-0.1,0.2-0.2,0.4H3.7V9.7
			C3.8,9.5,3.9,9.4,4,9.3c0,0,0,0,0.1,0c0,0,0,0,0.1,0C4.2,9.4,4.2,9.6,4.2,9.8L4.2,9.8z"/>
	</g>
	<g>
		<path class="st2" d="M3.3,10.5L3.3,10.5C3.2,10.5,3.2,10.5,3.3,10.5c-0.1-0.2-0.1-0.3-0.1-0.4C3.1,10.2,3,10.3,3,10.4H2.9v-0.1
			c0,0,0.1-0.2,0.2-0.3c0,0,0,0,0.1,0c0,0,0,0,0.1,0C3.3,10.1,3.4,10.3,3.3,10.5L3.3,10.5z"/>
	</g>
	<g>
		<path class="st2" d="M4.3,10.9L4.3,10.9C4.2,10.9,4.2,10.8,4.3,10.9c-0.1-0.2-0.1-0.3-0.1-0.4C4.1,10.6,4,10.7,4,10.8H3.9v-0.1
			c0.1-0.1,0.2-0.3,0.3-0.4c0,0,0,0,0.1,0c0,0,0,0,0.1,0C4.3,10.5,4.4,10.6,4.3,10.9C4.4,10.8,4.3,10.9,4.3,10.9z"/>
	</g>
	<g>
		<path class="st2" d="M1.5,11.1L1.5,11.1L1.5,11.1c-0.1-0.2-0.1-0.3-0.1-0.4c-0.1,0.1-0.2,0.2-0.2,0.3H1.1C1,11,1,11,1,11
			c0.1-0.1,0.2-0.3,0.3-0.4c0,0,0,0,0.1,0c0,0,0,0,0.1,0C1.6,10.7,1.6,10.9,1.5,11.1C1.6,11.1,1.6,11.1,1.5,11.1z"/>
	</g>
	<g>
		<path class="st2" d="M0.7,11.2c0,0.1,0.1,0.2,0.1,0.3c0,0,0,0.1,0.1,0.1c0,0,0.1,0,0.1-0.1c0-0.2,0-0.3-0.1-0.5c0,0,0,0-0.1,0
			c0,0,0,0-0.1,0c0,0-0.1,0-0.1,0.1C0.5,11.2,0.5,11.3,0.7,11.2C0.6,11.3,0.6,11.3,0.7,11.2z"/>
	</g>
	<g>
		<path class="st2" d="M1.2,10.2L1.2,10.2C1.2,10.2,1.2,10.1,1.2,10.2c0-0.2,0-0.3-0.1-0.4C1,9.9,0.9,10,0.9,10.1H0.8V10
			C0.9,9.9,1,9.7,1.1,9.6c0,0,0,0,0.1,0c0,0,0,0,0.1,0C1.3,9.7,1.3,9.9,1.2,10.2C1.3,10.1,1.3,10.2,1.2,10.2z"/>
	</g>
	<g>
		<path class="st2" d="M3.8,12.3L3.8,12.3C3.7,12.3,3.7,12.3,3.8,12.3c-0.1-0.2-0.1-0.3-0.1-0.4c-0.1,0.1-0.2,0.2-0.2,0.3H3.4v-0.1
			c0.1-0.1,0.2-0.3,0.3-0.4c0,0,0,0,0.1,0c0,0,0,0,0.1,0C3.8,11.9,3.8,12.1,3.8,12.3L3.8,12.3z"/>
	</g>
	<g>
		<path class="st2" d="M1.7,11.9L1.7,11.9C1.7,11.9,1.6,11.9,1.7,11.9c-0.1-0.2-0.1-0.3-0.1-0.4c-0.1,0.1-0.2,0.2-0.2,0.3H1.3v-0.1
			c0.1-0.1,0.2-0.3,0.3-0.4c0,0,0,0,0.1,0c0,0,0,0,0.1,0C1.7,11.5,1.8,11.7,1.7,11.9C1.8,11.9,1.8,11.9,1.7,11.9z"/>
	</g>
	<path class="st2" d="M3.3,5C3,4.7,2.8,4.3,2.6,3.9C2.5,3.8,2.3,3.6,2.2,3.8c-0.1,0.1,0.2,0.9,0.2,1c0.1,0.9,0,1.3,0.5,2.1
		C2.9,7,3,7,3,7.1c0.2,0.1,0.4-0.3,0.6-0.3C3.7,7,3.8,7.3,3.9,7.5c0.5-0.3,1-0.7,1.4-1c0.6-0.5,1.2-1,1.8-1.4C7.2,5,7.4,4.9,7.4,4.7
		c0-0.2,0-0.4-0.2-0.4C6.7,4.6,6.3,4.9,5.8,5.1c0.2-0.5,0.5-1,0.9-1.4c0.2-0.3,0.5-0.7,0.2-1C6.2,3.3,5.7,3.9,5.2,4.6
		c0.4-1.3,0.8-2.7,1-4C6,0.6,5.8,0.7,5.7,0.7C5,1.8,4.5,3,4.1,4.3c0,0.1-0.1,0.3-0.2,0.2c-0.1,0-0.1-0.1-0.1-0.2
		c-0.1-0.8,0-1.7-0.2-2.4C3.5,1.9,3.4,2,3.3,2.1C3.2,3,3.2,4,3.3,5z"/>
</g>
<g>
	<path class="st5" d="M9.2,10.8c-0.1,0-0.1-0.1-0.2-0.1c-0.2,0-0.3,0.2-0.4,0.3c-0.7,1.1-1.5,2-2.4,2.9c-0.4,0.4-1.2,0.7-1,1.3
		c0.2,0.5,1.4,0.6,1.8,0.5c0.8-0.1,1.5-0.5,2.1-1c0.5-0.5,0.9-1.2,1-2C10.2,12,9.9,11.2,9.2,10.8z"/>
	<path class="st1" d="M8.6,10.8c-0.1,0-0.1-0.1-0.2-0.1c-0.2,0-0.3,0.2-0.4,0.3c-0.6,0.9-1.3,1.8-2.1,2.5c-0.3,0.3-1,0.6-0.8,1.1
		C5.3,15,6.4,15.1,6.7,15c0.7,0,1.3-0.3,1.8-0.8s0.8-1.1,0.9-1.7C9.5,11.8,9.2,11.1,8.6,10.8z"/>
	<path class="st2" d="M6.7,13.6c-0.1,0.3,0,0.6,0.2,0.8C7,14.2,7,13.8,6.7,13.6L6.7,13.6z"/>
	<path class="st2" d="M7.5,12.8v0.1c0.2,0.2,0.6,0.1,0.8,0C8.1,12.7,7.7,12.7,7.5,12.8z"/>
</g>
<g>
	<path class="st2" d="M126.2,2.6c-0.6,0.2-1.1,0.8-1.2,1.4s0,1.3,0.1,1.9c0.1,0.5,0.6,2.7,1.4,2.6c0.8,0,0.8-2.1,0.8-2.6
		C127.3,4.8,126.8,3.7,126.2,2.6z"/>
	<path class="st2" d="M129.4,8.3c0.4-0.3,0.7-0.8,1-1.2c-0.1-0.6-0.3-1.3-0.5-1.8c-0.6,0.1-1.2,0.2-1.8,0.4
		C124.5,7,126.4,10.7,129.4,8.3z"/>
	<path class="st4" d="M126.6,6.5c0-0.1-0.1-0.2-0.2-0.3c-0.2-0.2-1.1,0.1-1.3,0.2c-0.8,0.2-1.6,0.5-2.4,0.8L122,7.5
		c-1.1,0.9-1.5,2.4-1.4,3.8c0.1,0.7,0.3,1.3,0.5,2c0.3,1,0.2,0.7,0,1.7c-0.1,0.3,0,0.7,0.3,0.8c0.6,0.3,1.1-0.4,1.6-0.6
		c0.5-0.1,1,0.1,1.5-0.2c1.2-0.5,2.1-1.5,2.8-2.6c0.4-0.6,0.7-1.3,0.8-2.1C128.2,8.8,127.2,7.8,126.6,6.5z"/>
	<path class="st2" d="M122.7,10.1c-0.1,0.2-0.2,0.4-0.3,0.5c0.2,0.3,0.6-0.1,0.8-0.4C123.1,10.1,122.9,10,122.7,10.1L122.7,10.1z"/>
	<path class="st2" d="M122.3,11.7c-0.1,0.2-0.2,0.4-0.3,0.5c0.2,0.3,0.6-0.1,0.8-0.4C122.7,11.7,122.5,11.6,122.3,11.7L122.3,11.7z"
		/>
	<path class="st2" d="M124,11.3c-0.1,0.2-0.2,0.4-0.3,0.5c0.2,0.3,0.6-0.1,0.8-0.4C124.3,11.3,124.1,11.2,124,11.3L124,11.3z"/>
</g>
</svg>
