<?xml version="1.0" encoding="utf-8"?>
<!-- Generator: Adobe Illustrator 24.2.0, SVG Export Plug-In . SVG Version: 6.00 Build 0)  -->
<svg version="1.1" id="Calque_1" xmlns="http://www.w3.org/2000/svg" xmlns:xlink="http://www.w3.org/1999/xlink" x="0px" y="0px"
	 viewBox="0 0 130.4 17" style="enable-background:new 0 0 130.4 17;" xml:space="preserve">
<style type="text/css">
	.st0{fill:#F6F6F6;}
	.st1{fill:#DEB319;}
	.st2{fill:#F18E60;}
	.st3{fill:#2E60A9;}
	.st4{fill:#3B68AF;}
</style>
<path class="st0" d="M122,0L8.2,0C3.7,0,0,4,0,8.6c0,4.6,3.7,8.3,8.3,8.3l113.6-0.1c4.6,0,8.4-4.1,8.4-8.7C130.3,3.6,126.6,0,122,0z
	"/>
<g>
	<path class="st1" d="M8.2,16c0-0.2,0-0.4,0.1-0.6c0.2-0.4,0.5-0.8,0.7-1.2c0.2-0.4,0.2-1-0.1-1.3c-0.8-0.9-5.1,1.2-4.5-1
		c0.3-1.2,1.3-2.1,1.7-3.2c1.1-2.6-0.7-3.1-2.7-2.8C2.4,6,1.1,6.4,0.4,6.7c0,0,0,0-0.1,0C0.2,7.4,0.1,8,0.1,8.7
		c0,4.6,3.7,8.3,8.3,8.3l1.5,0c-0.1,0-0.1-0.1-0.2-0.1C9.2,16.7,8.3,16.9,8.2,16z"/>
	<path class="st2" d="M130.4,8.3c0-2.6-1.2-4.9-3-6.4c-1.6,1.3-3,2.9-4,4.6c-0.9,1.6-0.7,3.6-0.7,5.4c0,1.5,0.3,3.7-1.5,4.2
		c-0.5,0.1-1,0.2-1.5,0.3c-0.4,0.1-0.7,0.1-1.1,0.3l3.6,0C126.7,16.6,130.4,12.9,130.4,8.3z"/>
	<path class="st3" d="M122.6,1.1C122.6,1.1,122.5,1.1,122.6,1.1C122.5,1.2,122.5,1.2,122.6,1.1z"/>
	<path class="st3" d="M125.8,0.9c0.5,0.6,1,1.5,1.2,1.8c0.4,0.7,0.9,1.3,0.8,2c0,0.4-0.3,0.7-0.4,1c0.8,0.4,1.3-0.7,1.7-1.9
		C128.3,2.6,127.2,1.6,125.8,0.9z"/>
	<path class="st3" d="M117.7,0.2c0.6,0.1,1.8,0.3,2.2,0.8c0.4,0.6-0.1,0.7-0.7,0.7c-0.4,0-0.9,0-1.3,0c-0.5-0.1-1-0.4-1.4-0.5
		c-1.9-0.2-1.1,3-1,4.2c1.3-0.3,2.8,0.9,4.2,0.6c1.2-0.2,0.7-1.4,0.8-2.2c0.2-1,0.7-0.8,1,0.2c0.1,0.5,0.2,1,0.2,1.6
		c0,0.2-0.2,0.6-0.1,0.7c0.2,0.3,1.1,0.3,1.4,0.2c2.1-0.7-1.4-3.9-0.3-4.9c1.4,0.3,1.8,2,2.1,3c0.3,0.8,0.2,1.7-0.1,2.4
		c1.2-0.1,2.1-0.7,2-2c-0.1-1.4-2.2-2.8-1.9-4.2c0-0.1,0.1-0.2,0.1-0.3C123.9,0.2,123,0,122.1,0l-6.8,0c0,0.1,0,0.3,0,0.5
		C116.1,0.4,116.8,0.1,117.7,0.2z"/>
	<path class="st4" d="M2.2,3.8l0.3-0.2C2.4,3.8,2.3,4,2.2,4.2c0.9,0,1.9-1,2-2C3.3,2.2,2.5,2.9,2.2,3.8z"/>
	<path class="st4" d="M5.1,2.5l0.3-0.2L5.1,2.9c0.9,0,1.9-1,2-2C6.3,0.9,5.4,1.6,5.1,2.5z"/>
	<path class="st4" d="M3.9,5.3l0.3-0.2C4.1,5.3,4,5.5,4,5.7c0.9,0,1.9-1,2-2C5.1,3.7,4.2,4.4,3.9,5.3z"/>
	<path class="st4" d="M5.2,7.2L5.5,7C5.4,7.2,5.3,7.4,5.2,7.6c0.9,0,1.9-1,2-2C6.4,5.6,5.5,6.3,5.2,7.2z"/>
	<path class="st4" d="M2.6,8l0.3-0.2C2.8,8,2.7,8.2,2.6,8.4c0.9,0,1.9-1,2-2C3.8,6.4,2.9,7.1,2.6,8z"/>
	<path class="st4" d="M1,6.7l0.3-0.2L1,7.1c0.9,0,1.9-1,2-2C2.1,5.1,1.3,5.8,1,6.7z"/>
	<path class="st4" d="M6.4,4.4l0.3-0.2C6.6,4.4,6.5,4.6,6.4,4.8c0.9,0,1.9-1,2-2C7.5,2.8,6.7,3.5,6.4,4.4z"/>
</g>
</svg>
