<svg xmlns="http://www.w3.org/2000/svg" viewBox="0 0 136.81 20.89"><defs><style>.a{fill:#fff;}.b{fill:#fffdf8;}.c{fill:#f7d9a1;opacity:0.41;}</style></defs><title>Zebre2</title><rect class="a" width="136.81" height="20.89" rx="10.44" ry="10.44"/><path class="b" d="M103.47,15.42a11.79,11.79,0,0,1,2.15-8.54c1.92-2.62,4.66-4.55,7-6.83h-1.9a9.41,9.41,0,0,0-2.25,0c-.47.15-1,.89-1.43,1.22l-1.68,1.45A30.39,30.39,0,0,0,103,5a27.5,27.5,0,0,0-4.31,6.12,29.72,29.72,0,0,0-2.64,9.63h3.64c0-.49-.15-5.33.68-5.09.34.1.16,1.44.17,1.7a13.71,13.71,0,0,0,.49,2.85c.18.65.09.45.58.54a6.64,6.64,0,0,0,1.18,0H105A21.67,21.67,0,0,1,103.47,15.42Z"/><path class="b" d="M113.42,16.36c1-6.73,6.92-10.58,9.93-16.31h-4.73a6.39,6.39,0,0,0-2,0c-.2.1-.39.53-.53.72-.55.75-1.13,1.48-1.73,2.19C112.62,5,110.49,6.79,109,9c-2,2.92-1.5,6.09-.47,9.29.14.43.5,2.21.88,2.39a3.41,3.41,0,0,0,1.15,0h2.75A18.62,18.62,0,0,1,113.42,16.36Z"/><path class="b" d="M119.61,15.42C121,9.38,126.5,5.65,129,.11a22.74,22.74,0,0,0-2.74-.06c-.15,0-.59-.08-.73,0s-.42,1.1-.53,1.34c-.18.44-.38.87-.6,1.3a66.72,66.72,0,0,1-4.6,7.06,14.7,14.7,0,0,0-2.84,7,15.4,15.4,0,0,0,0,2.63c0,.3,0,1.15.25,1.29.38.26,1.73,0,2.21,0A15.42,15.42,0,0,1,119.61,15.42Z"/><path class="b" d="M127.88,15.71A20.2,20.2,0,0,1,129,8.61a41.53,41.53,0,0,0,1.55-7.31,29.29,29.29,0,0,1-3,6.4c-1.48,2.45-3.54,4.94-3.82,7.88a12.31,12.31,0,0,0,.24,3.26c0,.26.16,1.73.37,1.87s.4,0,.48,0c1.31,0,2.64.08,4,0A30.88,30.88,0,0,1,127.88,15.71Z"/><path class="b" d="M135.48,4.92c-.14-.27-.3-.54-.46-.8-.41,2.92-2.07,5-3.08,7.73a18.72,18.72,0,0,0-.88,8.24C136.71,17.66,138.16,10,135.48,4.92Z"/><path class="b" d="M91.73,17.57A30.35,30.35,0,0,1,100.66.05H94.1a4.91,4.91,0,0,0-1.53,0c-.32.15-.69,1.13-.85,1.45-.42.81-.79,1.65-1.14,2.49-.7,1.68-1.3,3.4-1.93,5.11a53,53,0,0,1-2.73,6.28,35.5,35.5,0,0,1-3.42,5.33h1.66a6.87,6.87,0,0,0,2.17,0c.31-.15.53-.89.68-1.22a20.57,20.57,0,0,0,.85-2.31c.51-1.63,1-3.29,1.47-4.93a45.78,45.78,0,0,1,1.6-4.52,15.22,15.22,0,0,1,1-2c.13-.21,1.13-1.69,1.08-.7,0,.35-.64,1.18-.77,1.51a20.32,20.32,0,0,0-.82,2.54c-.41,1.56-.73,3.14-1,4.72a43.44,43.44,0,0,1-1.58,6.88,7.85,7.85,0,0,0,2.27,0c.35-.12.21,0,.31-.45C91.57,19.39,91.6,18.46,91.73,17.57Z"/><path class="b" d="M71.42,4.39A31.07,31.07,0,0,1,72.54.05H71.3C71.31,1.5,71.36,2.94,71.42,4.39Z"/><path class="b" d="M78.39,17.82a40.73,40.73,0,0,0,3.39-5.3C84,8.5,85.34,4.08,87.56.05A32.34,32.34,0,0,0,84,.05c-.11,0-.35,0-.45,0-.37.19-.77,1.65-.94,2.06-.41,1-.76,2-1.11,3-1.86,5.44-4.25,11.39-8.34,15.57a13.08,13.08,0,0,0,2.58,0c.56-.12.91-.74,1.29-1.19S78,18.4,78.39,17.82Z"/><path class="c" d="M96.94,15.9A23.83,23.83,0,0,1,101,7.36c2.1-2.84,4.76-5,7.37-7.31h-5.87a8.47,8.47,0,0,0-1.67,0c-.7.17-1.33,1.16-1.81,1.7a32.07,32.07,0,0,0-2.93,3.83,27.66,27.66,0,0,0-2.91,5.74,40,40,0,0,0-1.85,9.39H95a3.14,3.14,0,0,0,.81,0c.33-.1.12.09.29-.33a10.16,10.16,0,0,0,.32-2.06C96.59,17.51,96.75,16.7,96.94,15.9Z"/><path class="c" d="M117.06,20.31a14.11,14.11,0,0,1,2.42-10.1c2.17-3.35,4.66-6.35,6-10.16a8.22,8.22,0,0,0-1.92,0c-.5.15-.73.91-1,1.4A39.09,39.09,0,0,1,119,6.09a32.6,32.6,0,0,0-4,5.53A16.16,16.16,0,0,0,113.24,20c0,.65-.09.63.41.72a7.57,7.57,0,0,0,1.26,0h2.21Z"/><path class="c" d="M89.27,19.32c.52-1.78.79-3.66,1.13-5.49.29-1.52.59-3,1-4.54.19-.74.4-1.47.66-2.19a11.72,11.72,0,0,1,.56-1.31c.1-.19.41-.54.42-.72,0-.66-.46-.2-.69.11a11.27,11.27,0,0,0-1.12,1.93,34.46,34.46,0,0,0-1.61,4.28c-1,3.12-1.64,6.42-3.19,9.32H88a2.36,2.36,0,0,0,.75,0C89,20.58,89.18,19.62,89.27,19.32Z"/><path class="c" d="M83.18,19.8a38.4,38.4,0,0,0,3.62-6.16C88.87,9.19,90,4.29,92.52.05h-3.7c-.44,0-1-.11-1.33.14s-.7,1.32-.91,1.76c-.38.78-.73,1.57-1.08,2.36-1.72,3.93-3.29,7.89-5.68,11.48A42.31,42.31,0,0,1,76,20.71h3.94a13.47,13.47,0,0,0,2.2,0C82.7,20.61,82.81,20.31,83.18,19.8Z"/><path class="c" d="M75.67,17.6a49.52,49.52,0,0,0,4.71-9.37C81.45,5.5,82.26,2.69,83.56.05H82.08a5.24,5.24,0,0,0-1.63,0c-.28.15-.44,1.13-.54,1.46q-.36,1.11-.66,2.22c-.22.84-.44,1.67-.68,2.5-1.47,5-3.34,10.66-7,14.48a5.36,5.36,0,0,0,1.6,0c.4-.15.94-1,1.19-1.31Q75.05,18.53,75.67,17.6Z"/><path class="c" d="M69.25,6.44a26,26,0,0,1,.3,3.64V10c-.09.79-.26,1.91-.3,2.5a18.51,18.51,0,0,1-1.32,3.86,13.62,13.62,0,0,1-1,1.76,14.83,14.83,0,0,0-1.19,1.48c-.18.35-.2.59.31.4a5.1,5.1,0,0,0,1.42-1.15,14.72,14.72,0,0,0,2.46-3.25,21.61,21.61,0,0,0,2.56-7.13A32.65,32.65,0,0,1,75.1.05H73.92a4.49,4.49,0,0,0-1.37,0c-.22.13-.33,1-.41,1.29-.16.55-.3,1.11-.43,1.67s-.21.92-.29,1.38c0-1-.08-2.09-.1-3.14,0-.2.1-1.08,0-1.2s-.32,0-.37,0a17.38,17.38,0,0,0-2.5,0C68.62,2.19,68.93,4.32,69.25,6.44Z"/><path class="c" d="M107.58,12.84c.11-2.26,1.51-4.14,3-5.75a68.68,68.68,0,0,0,6-7h-2.1a5.58,5.58,0,0,0-2,.05A9.18,9.18,0,0,0,111,1.59c-.4.37-.81.72-1.21,1.08-.86.76-1.73,1.53-2.54,2.36a12.85,12.85,0,0,0-3.57,6.1,15.11,15.11,0,0,0,1,8.65c.07.19.24.83.4.93s.26,0,.34,0a7.52,7.52,0,0,0,1.5,0h2.47C108.46,18.22,107.36,15.53,107.58,12.84Z"/><path class="c" d="M100.74,18.76a12.08,12.08,0,0,1-.19-1.8c0-.26.17-1.05,0-1.25-.54-.53-.8,1.95-.83,2.27-.05.55-.29,2.48.14,2.73.27.16,1.07,0,1.39,0A15.83,15.83,0,0,1,100.74,18.76Z"/><path class="c" d="M130.93,16.83a15.51,15.51,0,0,1,.74-4.21,51.2,51.2,0,0,1,2.33-5A13.34,13.34,0,0,0,134.62,6,7.37,7.37,0,0,0,135,4.55c0-.59-.2-.84-.58-1.31A8.47,8.47,0,0,0,130,.3a2.2,2.2,0,0,0-.71-.15c-.44.05-.1-.22-.45.29s-.45.91-.69,1.33a32.1,32.1,0,0,1-1.93,3c-.94,1.3-2,2.49-3,3.75-2.52,3.17-4.13,6.74-3.92,10.86,0,.23,0,1.25.14,1.36s.25,0,.34,0a8.77,8.77,0,0,0,1.62,0h3a18.41,18.41,0,0,1-.62-5,11.76,11.76,0,0,1,2-5.22c1.82-3,3.71-5.87,4.75-9.24a36.38,36.38,0,0,1-1,5.57,49.83,49.83,0,0,0-1.45,5.62,18,18,0,0,0,.35,6.66c0,.21.19,1.43.37,1.52s1.34-.24,1.66-.34.53-.13.62-.42A2.79,2.79,0,0,0,131,19C131,18.29,130.92,17.56,130.93,16.83Z"/><path class="b" d="M33.16,15.42a11.7,11.7,0,0,1,2.15-8.54C37.23,4.26,40,2.32,42.26.05h-1.9a9.33,9.33,0,0,0-2.24,0c-.47.15-1,.89-1.43,1.22-.56.48-1.13,1-1.68,1.45A30.53,30.53,0,0,0,32.7,5a27.83,27.83,0,0,0-4.31,6.12,29.71,29.71,0,0,0-2.63,9.63H29.4c0-.49-.15-5.33.67-5.09.35.1.16,1.44.18,1.7a13.7,13.7,0,0,0,.48,2.85c.18.65.1.45.59.54a6.64,6.64,0,0,0,1.18,0h2.18A21.21,21.21,0,0,1,33.16,15.42Z"/><path class="b" d="M43.1,16.36C44.12,9.62,50,5.78,53,.05H48.3a6.32,6.32,0,0,0-2,0c-.2.1-.4.53-.54.72-.54.75-1.12,1.48-1.72,2.19C42.3,5,40.17,6.79,38.66,9c-2,2.92-1.5,6.09-.46,9.29.14.43.5,2.21.87,2.39a3.47,3.47,0,0,0,1.16,0H43A19.78,19.78,0,0,1,43.1,16.36Z"/><path class="b" d="M57.56,15.71a20.44,20.44,0,0,1,1.1-7.1A40.62,40.62,0,0,0,60.2,1.3,29.78,29.78,0,0,1,57.05,8c-1.48,2.4-3.46,4.87-3.65,7.79a13.6,13.6,0,0,0,.35,3.54c0,.31.09,1.24.34,1.37s.56,0,.7,0h3.67A27.31,27.31,0,0,1,57.56,15.71Z"/><path class="b" d="M75.1.05a32.47,32.47,0,0,0-2.63,8.26,22.12,22.12,0,0,1-2.58,7.26,15.21,15.21,0,0,1-2.34,3.13c-.23.24-2.14,2-2,1,.07-.41,1-1.23,1.31-1.61a13.62,13.62,0,0,0,1-1.76,18.51,18.51,0,0,0,1.32-3.86,20.93,20.93,0,0,1,.3-2.5v.11c0-3.17-.75-6.32-1.08-9.46-.07-.68,0-.51-.52-.57a14,14,0,0,0-1.45,0H64.61a12.35,12.35,0,0,1-.13,5.31,27.42,27.42,0,0,1-2.32,5.23,15.56,15.56,0,0,0-1.52,5.63,25.74,25.74,0,0,0,.08,3.4c.05.88-.17,1.09.65,1.09h6a37.25,37.25,0,0,0,3.81,0c.61-.06.8-.44,1.22-.95a20.5,20.5,0,0,0,2.29-3.6,52.12,52.12,0,0,0,3.38-8.35c.82-2.57,1.39-5.22,2.34-7.76Z"/><path class="b" d="M49.29,15.42c1.42-6.06,6.93-9.8,9.4-15.37H56.46a4,4,0,0,0-1.15,0c-.36.17-.6,1.24-.78,1.67a49,49,0,0,1-4.66,7.43c-1.56,2.27-2.9,4.52-3.21,7.3a14.12,14.12,0,0,0,0,2.68c0,.37,0,1.4.26,1.58s1.73,0,2.22,0A15.42,15.42,0,0,1,49.29,15.42Z"/><path class="b" d="M21.41,17.57A30.12,30.12,0,0,1,30.34.05H23.78a4.84,4.84,0,0,0-1.52,0c-.32.15-.69,1.13-.86,1.45C21,2.31,20.61,3.15,20.26,4c-.7,1.68-1.29,3.4-1.93,5.11a51.31,51.31,0,0,1-2.72,6.28,37.15,37.15,0,0,1-3.42,5.33h1.66a6.8,6.8,0,0,0,2.16,0c.32-.15.53-.89.68-1.22a20.62,20.62,0,0,0,.86-2.31c.51-1.63,1-3.29,1.46-4.93a43.41,43.41,0,0,1,1.61-4.52,14.06,14.06,0,0,1,1-2c.12-.21,1.13-1.69,1.08-.7a8.33,8.33,0,0,1-.78,1.51,22.12,22.12,0,0,0-.82,2.54c-.41,1.56-.73,3.14-1,4.72a43.47,43.47,0,0,1-1.59,6.88,7.85,7.85,0,0,0,2.27,0c.36-.12.22,0,.31-.45C21.26,19.39,21.29,18.46,21.41,17.57Z"/><path class="b" d="M8.07,17.82a40.8,40.8,0,0,0,3.4-5.3C13.67,8.5,15,4.08,17.24.05H13.9a2.08,2.08,0,0,0-.61,0c-.28.14-.5.94-.63,1.23-.49,1.1-.92,2.24-1.31,3.38C9.63,9.73,7.52,15,4.19,19.2a8.24,8.24,0,0,0,1.2.74c.15.07.55.34.72.31s.48-.56.59-.69C7.17,19,7.63,18.41,8.07,17.82Z"/><path class="b" d="M4.72,15.51A56.34,56.34,0,0,0,7.93,7.28C8.68,4.88,9.22,2.42,10.1.05a10.66,10.66,0,0,0-4.3.6,5.93,5.93,0,0,0-1.44.79,3.24,3.24,0,0,0-.77,1.48A30.84,30.84,0,0,0,2.51,6.55a40.75,40.75,0,0,1-1.6,6.26c-.22.55-.47.86-.27,1.44a10.61,10.61,0,0,0,.62,1.47,10.24,10.24,0,0,0,1.87,2.6A28.89,28.89,0,0,0,4.72,15.51Z"/><path class="c" d="M26.63,15.9a23.66,23.66,0,0,1,4.08-8.54c2.1-2.84,4.75-5,7.36-7.31H32.2a8.37,8.37,0,0,0-1.66,0c-.7.17-1.33,1.16-1.82,1.7A33.07,33.07,0,0,0,25.8,5.58a28.2,28.2,0,0,0-2.92,5.74A39.44,39.44,0,0,0,21,20.71H24.7a3.14,3.14,0,0,0,.81,0c.34-.1.12.09.3-.33a10.91,10.91,0,0,0,.32-2.06C26.27,17.51,26.43,16.7,26.63,15.9Z"/><path class="c" d="M46.74,20.31a14.12,14.12,0,0,1,2.42-10.1c2.18-3.35,4.66-6.35,6-10.16a8.13,8.13,0,0,0-1.91,0c-.5.15-.73.91-1,1.4a39,39,0,0,1-3.55,4.64,33.21,33.21,0,0,0-4,5.53A16.16,16.16,0,0,0,42.93,20c0,.65-.09.63.41.72a7.45,7.45,0,0,0,1.25,0H46.8Z"/><path class="c" d="M19,19.32c.53-1.78.79-3.66,1.14-5.49.28-1.52.59-3,1-4.54.19-.74.4-1.47.66-2.19a11.67,11.67,0,0,1,.55-1.31c.1-.19.42-.54.43-.72,0-.66-.46-.2-.7.11A11.92,11.92,0,0,0,20.9,7.11a36.18,36.18,0,0,0-1.62,4.28c-1,3.12-1.64,6.42-3.19,9.32h1.58a2.42,2.42,0,0,0,.76,0C18.69,20.58,18.87,19.62,19,19.32Z"/><path class="c" d="M12.86,19.8a37,37,0,0,0,3.62-6.16C18.55,9.19,19.67,4.29,22.2.05H18.5a3.81,3.81,0,0,0-1.26,0c-.34.19-.73,1.39-.9,1.73-.35.73-.68,1.46-1,2.19C13.57,8,12,12,9.59,15.67a44.16,44.16,0,0,1-3.48,4.58,11.88,11.88,0,0,0,4.24.46,6.84,6.84,0,0,0,1.63,0C12.39,20.6,12.59,20.17,12.86,19.8Z"/><path class="c" d="M6.93,15A60.92,60.92,0,0,0,10.6,6.81,68.55,68.55,0,0,1,13.24.05H11.57a5.24,5.24,0,0,0-1.12,0C10,.18,10.3-.17,10,.42A15.79,15.79,0,0,0,8.84,4.09c-.33,1.25-.68,2.49-1.07,3.72a53.06,53.06,0,0,1-3.38,8.35A16.53,16.53,0,0,0,3.32,18c-.16.47-.06.44.32.76.18.15.36.29.55.42l.2-.26a6.4,6.4,0,0,0,1.18-1.66C6.05,16.53,6.5,15.75,6.93,15Z"/><path class="c" d="M1.7,10.46c.39-1.4.55-2.85.9-4.27A31.83,31.83,0,0,1,4.09,1.64C.42,4.37-.76,9.52.49,13.78A21.59,21.59,0,0,0,1.7,10.46Z"/><path class="c" d="M37.26,12.84c.11-2.26,1.51-4.14,3-5.75a68.78,68.78,0,0,0,6.06-7H44.17a5.52,5.52,0,0,0-2,.05c-.56.27-1.11,1.07-1.58,1.49s-.8.72-1.2,1.08C38.57,3.43,37.7,4.2,36.9,5a13,13,0,0,0-3.58,6.1,15.11,15.11,0,0,0,1,8.65c.07.19.25.83.4.93s.27,0,.35,0a7.52,7.52,0,0,0,1.5,0H39C38.14,18.22,37.05,15.53,37.26,12.84Z"/><path class="c" d="M30.42,18.76a12.08,12.08,0,0,1-.19-1.8c0-.26.18-1.05,0-1.25-.54-.53-.81,1.95-.83,2.27-.05.55-.3,2.48.14,2.73.26.16,1.06,0,1.39,0A17.9,17.9,0,0,1,30.42,18.76Z"/><path class="c" d="M60.63,18a15.55,15.55,0,0,1,.9-5.85C62.17,10.31,63.28,8.75,64,7a12.77,12.77,0,0,0,.81-5.71c0-.5,0-1-.37-1.22a5.36,5.36,0,0,0-1.6,0h-2A7.65,7.65,0,0,0,59,.05c-.07,0-.21,0-.28,0-.24.13-.54,1.11-.69,1.38a29.49,29.49,0,0,1-2.12,3.31c-2.66,3.67-6,6.72-6.73,11.4-.2,1.18-.54,3.07-.11,4.24.22.58-.08.22.29.33a3.32,3.32,0,0,0,.89,0H54a18.82,18.82,0,0,1-.62-5,11.78,11.78,0,0,1,2.06-5.22c1.82-3,3.71-5.87,4.74-9.24a33.92,33.92,0,0,1-1.09,5.82,39.47,39.47,0,0,0-1.43,5.74,19,19,0,0,0,.53,6.8c.23,1,.09,1.05,1,1.05h1.55C60.73,19.8,60.65,18.88,60.63,18Z"/></svg>