<svg viewBox="0 0 88.48 88.64" xmlns="http://www.w3.org/2000/svg"><path d="m44.24.08c-25.24 0-44.24 7.55-44.24 17.56a131.82 131.82 0 0 0 7.45 38.36c7.86 21.31 20.55 32.56 36.79 32.56 16.87 0 29.83-11.56 37.47-33.56a133.57 133.57 0 0 0 6.77-37.34c0-10.03-19.02-17.58-44.24-17.58z" fill="#fff" fill-rule="evenodd"/><g opacity=".6"><path d="m82.46 50.94a10.92 10.92 0 0 1 -1.45.9c-.61.31-.74.45-.7 1.16a2.9 2.9 0 0 0 1.39 2.27c.59-1.68 1.12-3.38 1.62-5.09a7.79 7.79 0 0 1 -.86.76z" fill="#ddc0b2"/><path d="m68.72 78a52.26 52.26 0 0 0 8-11.33c-4.2 2.42-7.5 6.4-8 11.33z" fill="#ddc0b2"/><path d="m83 27.78c-2.71 1.55-4.4 4.52-3.09 7.57s4.14 4.8 5.3 7.78a139.12 139.12 0 0 0 2.52-14.76c-.85-.05-1.69-.14-2.53-.26-.43-.05-1.94-.51-2.2-.33z" fill="#ddc0b2"/><path d="m68.72 78c.52-5 3.78-9 8-11.33-4.2 2.42-7.5 6.4-8 11.33z" fill="#867763"/><path d="m46.26 74.17a28.54 28.54 0 0 0 3.7.12 30.43 30.43 0 0 1 -3.7-.12z" fill="#867763"/><path d="m80.39 52.13c-.29 0 .07 1.64.14 1.8a3 3 0 0 0 1.17 1.34 2.87 2.87 0 0 1 -1.31-3.14z" fill="#867763"/><path d="m67 6.71c-6.14-.82-12.14-2.71-18.35-2.85 6.21.14 12.21 2.03 18.35 2.85z" fill="#ad996e"/><path d="m72.62 7.06a29.29 29.29 0 0 1 -3.11-.06 29.29 29.29 0 0 0 3.11.06z" fill="#ad996e"/><path d="m53.12 27.49c-.23.08-.45.15-.68.21.23-.06.45-.13.68-.21z" fill="#ad996e"/><path d="m50.47 28.11a1.08 1.08 0 0 0 .19 0 9.59 9.59 0 0 1 -1.42.09 8.45 8.45 0 0 0 1.23-.09z" fill="#ad996e"/><g fill="#fffef7"><path d="m83.32 40.15q.53.66 1 1.35-.47-.69-1-1.35z"/><path d="m46.26 28.39c5.16.24 10 2.52 15.16 2.61-5.17-.09-10-2.35-15.16-2.61z"/><path d="m80.39 30.05a7.91 7.91 0 0 1 2.61-2.27 7.91 7.91 0 0 0 -2.61 2.27z"/><path d="m53.3 72c2.81-1.16 4.78-3.64 6.24-6.22.77-1.36 1.38-2.78 2.06-4.18a22.83 22.83 0 0 1 1.09-2.08c.22-.38.46-.75.71-1.1.1-.13.61-.64.61-.78-2.33 2.72-3.26 6.36-5.19 9.36s-4.67 5.58-8.3 5.55a7.12 7.12 0 0 0 2.78-.55z"/><path d="m85.16 43.13-.08-.2c.03.07.05.13.08.2z"/><path d="m49.6 40.89a5.22 5.22 0 0 1 1.45-.23 7.47 7.47 0 0 0 -4.79 2.34 9.16 9.16 0 0 1 3.34-2.11z"/><path d="m82.46 50.94a10.39 10.39 0 0 1 -2.07 1.19c.43 0 1.14-.57 1.5-.8a7.92 7.92 0 0 0 1.43-1.15 7.79 7.79 0 0 1 -.86.76z"/><path d="m82.23 38.84c.37.43.73.87 1.09 1.31-.32-.44-.72-.88-1.09-1.31z"/><path d="m80.09 30.52a5.42 5.42 0 0 0 -.6 1.53 5.42 5.42 0 0 1 .6-1.53z"/><path d="m79.45 34c.3 1.83 1.51 3.35 2.78 4.88-1.23-1.57-2.48-3.09-2.78-4.88z"/></g><path d="m59.29 25.09c4-1.24 8.28-.83 12.34 0a28.2 28.2 0 0 0 -9.77-.57c-3.25.48-6 2.15-9.12 3.11 2.26-.7 4.31-1.86 6.55-2.54z" fill="#ad996e"/><path d="m52.44 27.7.3-.08a11.78 11.78 0 0 1 -2.27.49 10.94 10.94 0 0 0 1.97-.41z" fill="#ad996e"/><path d="m83 27.75a35.28 35.28 0 0 0 4.68.62 35.28 35.28 0 0 1 -4.68-.62z" fill="#ad996e"/><path d="m15.2 5.85a6.66 6.66 0 0 1 .18-1.48 6.66 6.66 0 0 0 -.18 1.48z" fill="#ad996e"/><path d="m30.77 1.24.33-.19q-3.27.38-6.5 1a9.54 9.54 0 0 0 6.17-.81z" fill="#ad996e"/><g fill="#ddc0b2"><path d="m17.33 72.78c-.14.21-.7.79-.7 1s.57.76.69.91q.73.94 1.53 1.86a40.75 40.75 0 0 0 3.36 3.47 36.84 36.84 0 0 1 -4.88-7.24z"/><path d="m46.26.34a118 118 0 0 0 -13 .49 8.08 8.08 0 0 0 -2.77.55 10.15 10.15 0 0 1 -2.9.79 17.52 17.52 0 0 1 -2.81-.11 12.66 12.66 0 0 0 -3.25.6c-1 .23-2 .47-2.92.73a14.09 14.09 0 0 0 -2.9.87c-.39.21-.2-.07-.39.48a3.74 3.74 0 0 0 -.09.74 5.65 5.65 0 0 0 .08 1.42 3.86 3.86 0 0 0 1.32 2.27c3 2.41 7-.07 10.05-.89a7 7 0 0 1 6.11 1 6.73 6.73 0 0 1 2 2.36 10.65 10.65 0 0 0 .45 1.36c.2.24.29.11.67.1a4.69 4.69 0 0 1 .92.07 8.7 8.7 0 0 1 3.52-7.27 13.9 13.9 0 0 1 7.79-2c6.44 0 12.68 2.05 19 2.88a29.34 29.34 0 0 0 10.93-.41c-9.77-4.6-21.13-5.86-31.81-6.03z"/><path d="m14.62 20.44a19.75 19.75 0 0 0 -4.52 1.86 10 10 0 0 0 -2 1.24 10.1 10.1 0 0 1 -1.73 1.4 12.12 12.12 0 0 1 -2 .87c-.75.27-1.45.66-2.18 1a6 6 0 0 0 -1.13.48c-.34 0-.44.15-.29.45l.06.51c.12.88.24 1.77.37 2.65 3.05-1.09 6.54-.26 9.5-1.69 3.3-1.62 3.54-5.55 3.92-8.77z"/><path d="m59.29 25.09c-3.46 1.06-6.68 3.28-10.43 3.06a12.07 12.07 0 0 1 -8.83-5c-.22-.31-.44-.62-.64-.95a3.64 3.64 0 0 0 -.34-.56c-.43-.45 0-.19-.47-.12a8.21 8.21 0 0 0 -1.16.49 10.4 10.4 0 0 1 -1.58.38 54.84 54.84 0 0 0 -5.69.8c-2.69.77-5.39 3.44-3.75 6.36 1.82 3.26 6.71 3.62 7.62 7.57a11.23 11.23 0 0 1 4-6.49 12.27 12.27 0 0 1 8.46-2.26c6.3.37 12.69 4 19 2.07 2.68-.81 5.25-2.63 6.14-5.39-4.05-.8-8.31-1.2-12.33.04z"/><path d="m13.69 39c.14-.33.27-.66.4-1-3.45 1.79-6.42 5.12-10.53 5.3q.79 3.34 1.77 6.63a28.09 28.09 0 0 0 8.36-10.93z"/><path d="m24.94 82.33a31.76 31.76 0 0 0 2.92 2c.11-.52.26-.48-.17-.71s-.66-.21-1-.33a11 11 0 0 1 -1.75-.96z"/><path d="m48.51 84.25c-1.65-.84-4.66-1.13-6.25-.1-.8.52-1.64 1-2.44 1.52a6.25 6.25 0 0 0 -2 2.5 33.64 33.64 0 0 0 14.18-.26 9.39 9.39 0 0 0 -3.49-3.66z"/><path d="m60.6 63.72c-2.19 4.64-6.28 10.21-12.19 8.49-2.66-.77-4.67-3-4.17-5.94s3-5 5.33-6.61c4.2-2.92 9.24-7.2 8.12-13a7.74 7.74 0 0 0 -4.51-5.56c-2.81-1.14-5.23.36-7.26 2.23s-4.37 4.29-7.41 3.31c-2.68-.86-4.36-3.73-4.64-6.4a5.11 5.11 0 0 1 -5 3.55c-2.49 0-4.07-1.47-5.24-3.53a11.19 11.19 0 0 0 -3.16 3.74c-.72 1.77-.1 3.53.78 5.11a9.86 9.86 0 0 1 14 2c2.86 4 2.76 10.76-2.14 13.22-2.87 1.44-6.28.87-9.22 2.14a8.84 8.84 0 0 0 3.39 3.17c1.27.75 3.08 1.89 4.55 2 3.95.27 7.82 1.56 11.73 2.2 6.16 1 13.65.64 17.87-4.68 2.6-3.28 2.53-7.53 2.54-11.5a26.5 26.5 0 0 0 -3.37 6.06z"/></g><path d="m84.31 41.5c-1.58-2.42-4.26-4.42-4.83-7.38a5.26 5.26 0 0 1 .83-3.95 7 7 0 0 1 1.34-1.48c.25-.21 1-.94 1.35-.94-3.51-.68-6.94-1.7-10.43-2.47a4 4 0 0 0 -.94-.2c-.11.06-.24.64-.31.77a7.17 7.17 0 0 1 -1.11 1.71 9.51 9.51 0 0 1 -3 2.24c-6.2 3-12.94-.47-19.22-1.26-3.12-.38-6.45-.21-9.17 1.52a11.14 11.14 0 0 0 -4.64 6.38 7.68 7.68 0 0 0 0 2.09 11.58 11.58 0 0 0 -.18 2.34 8.2 8.2 0 0 0 1.63 3.6 5.3 5.3 0 0 0 6.75 1.76c2.6-1.35 4.16-4.2 7-5.24s5.48.47 7.06 2.65c3.65 5.13-.44 11.36-4.73 14.53-2.52 1.84-5.45 3.4-6.88 6.32a5.22 5.22 0 0 0 2.24 7.19c6.1 3.2 11-2.78 13.4-7.68.68-1.4 1.28-2.84 2.05-4.19a14.94 14.94 0 0 1 1.18-1.81c.51-.65.31-1.59.34-2.41.12-3.41.84-6.46 3.2-9 3.4-3.69 10.88-8 15.39-3.67a4.65 4.65 0 0 1 1.71 3.56c.24-.93.47-1.86.69-2.8a2.79 2.79 0 0 0 -.72-2.18z" fill="#fffef7"/><path d="m81.46 50.32a4.12 4.12 0 0 0 -1.07 1.81 8.42 8.42 0 0 0 2.61-1.65c.72-.75.88-2.27 1.14-3.28a11.12 11.12 0 0 1 -2.68 3.12z" fill="#fffef7"/><path d="m83.27 43.64c-3.15-4-8.84-2.36-12.49 0a15.88 15.88 0 0 0 -5.24 5.23c-1.28 2.24-1.47 5-1.52 7.49-.08 4.67.33 9.72-3.09 13.41-2.85 3.09-7.23 4.45-11.35 4.54a40.25 40.25 0 0 1 -9-1c-3-.63-6.13-1.57-9.24-1.66a11.64 11.64 0 0 1 4.45 3.29 5.4 5.4 0 0 1 1 2.54c0 .51-.1 1-.08 1.5s-.14.2.23.4a3.18 3.18 0 0 0 .53.14c1.43.41 7.08 2.14 4.95 4.51 2.43-.57 5-.68 7.09.92a10 10 0 0 1 2 2.24c.42.62.38.82 1.12.63s1.21-.33 1.81-.53a33.39 33.39 0 0 0 11.82-6.84c.42-.37.83-.76 1.24-1.15a6 6 0 0 0 1.22-1.3 7.8 7.8 0 0 0 .28-1.54 14.37 14.37 0 0 1 .57-1.83 14.58 14.58 0 0 1 4.1-5.79c.88-.75 1.91-1.27 2.8-2s1.34-2.19 1.82-3.2q1.67-3.51 3-7.16a3.73 3.73 0 0 0 .32-.88c.22-.26.18-.43-.11-.53a2.69 2.69 0 0 1 -.32-.27 2.93 2.93 0 0 1 -.78-1.42 3.61 3.61 0 0 1 1.24-3.23c.94-.94 2.17-1.85 2.6-3.16a3.61 3.61 0 0 0 -.97-3.35z" fill="#867763"/><path d="m75.75 6.8c-5.33.77-10.65-.31-15.86-1.36-4.81-1-10-2.16-14.87-1.32a10.75 10.75 0 0 0 -5.71 2.63 7.65 7.65 0 0 0 -1.74 2.57 8.34 8.34 0 0 0 -.51 1.68c-.09.4-.48 1.86-.23 2.14s1 .24 1.24.34a6.33 6.33 0 0 1 1.26.67 4.91 4.91 0 0 1 1.82 2.19 3.62 3.62 0 0 1 0 2.65 4.25 4.25 0 0 1 -.71 1.15c-.36.42-1 .69-1.28 1.09s-.24.18 0 .58c.14.24.28.47.43.7a12.76 12.76 0 0 0 1 1.31 12.17 12.17 0 0 0 2.7 2.42 11.2 11.2 0 0 0 6.71 1.91c2.43-.15 4.64-1.24 6.85-2.16a20.55 20.55 0 0 1 7.6-1.69c5.29-.09 10.42 1.58 15.51 2.79 1.27.3 2.54.58 3.82.81.64.11 1.29.21 1.95.29.39 0 .77.09 1.16.12h.39c.38.15.52 0 .44-.37a7.58 7.58 0 0 0 .2-1.86c0-.57.11-1.13.16-1.7.09-1.05.17-2.09.24-3.14.17-2.73.37-5.25-1.09-7.72a15.12 15.12 0 0 0 -4.23-4.38 26.67 26.67 0 0 0 -3.31-2 3.79 3.79 0 0 0 -1.84-.71c-.71.02-1.42.27-2.1.37z" fill="#ad996e"/><path d="m.63 26.43c0 .33.07.65.11 1a23.53 23.53 0 0 0 3.19-1.46 15.39 15.39 0 0 1 -3.3.46z" fill="#ad996e"/><path d="m8.25 23.37a29.48 29.48 0 0 1 4.39-2.28c.32-.13.65-.25 1-.36l.67-.2c.31 0 .44-.11.37-.41a13.8 13.8 0 0 0 .32-2.12c.68-2.82 2.61-4.82 5.62-4.89a7.5 7.5 0 0 1 3.8.95 14 14 0 0 0 3.58 1.69c2.63.6 4.82-2.24 7.33-2.61a6.61 6.61 0 0 0 -4.33-4.83c-2.44-.85-4.81.09-7.11.93-1.89.69-4 1.29-6 .61-2.37-.8-3-3.23-2.5-5.48-4.39 1.45-8.9 3.42-12.19 6.71 5.8-.47 8.2 8.39 5.05 12.29z" fill="#ad996e"/><path d="m29.15 81.08a5.93 5.93 0 0 1 4-2.12 8.34 8.34 0 0 1 2.34 0 5.85 5.85 0 0 0 1.2.25c.22-.12.19-1.27.18-1.48-.12-3.48-3.71-5.37-6.48-6.63a22 22 0 0 1 -4.29-2.34 8.08 8.08 0 0 1 -1.58-1.51c-.22-.29-.41-.74-.69-.76s-1 .51-1.24.68a15.32 15.32 0 0 0 -3.67 3.47c-.27.34-.53.69-.79 1s-.73.81-.76 1.07.57 1 .72 1.26l.81 1.4c2.1 3.63 4.94 7.23 9.1 8.31a6.74 6.74 0 0 1 1.15-2.6z" fill="#fffef7"/><path d="m16.5 52a9.08 9.08 0 0 0 3.29-1.6c.31-.27.61-.55.93-.81a4.48 4.48 0 0 0 .53-.41c0-.13-.34-.64-.41-.79a6 6 0 0 1 -.7-2.8c.07-1.83 1.3-3.23 2.57-4.42.19-.17.92-.65 1-.88s-.68-1.12-.83-1.33a5 5 0 0 0 -2-1.62 7.09 7.09 0 0 0 -4.83-.17c-.82.24-1.83.5-2.16 1.32a24.32 24.32 0 0 1 -1.2 2.51 29.17 29.17 0 0 1 -3.22 4.8c-.57.68-1.16 1.33-1.79 1.95-.31.32-.63.62-1 .92s-1 .7-1.26 1.07c-.33.58.64 2.59.88 3.29.37 1.13.76 2.25 1.18 3.37.83 2.23 1.74 4.43 2.76 6.58.57-4.32 1.44-9.49 6.26-10.98z" fill="#fffef7"/><path d="m23.93 66.46c2.27-1 4.77-.89 7.14-1.43a7.42 7.42 0 0 0 5.32-4.15 10.07 10.07 0 0 0 -2.88-11.72c-3.86-3.24-9.36-2.54-13 .61a9.26 9.26 0 0 1 -2 1.49c-.9.44-1.9.6-2.81 1a8.43 8.43 0 0 0 -4.36 5.23 23.46 23.46 0 0 0 -.9 4.47 3.82 3.82 0 0 0 -.16 1.04 4.91 4.91 0 0 0 .48 1c.37.77.75 1.52 1.15 2.27a58.44 58.44 0 0 0 4.72 7.51c1.92-2.78 4.04-5.91 7.3-7.32z" fill="#ad996e"/><path d="m41.51 84.72c4.65-2.92-4.23-5.52-6.35-5.77-2.46-.29-5.19.52-6.44 2.8a7.42 7.42 0 0 0 -.67 1.77c-.1.36-.22.62 0 .88a4.07 4.07 0 0 0 1.1.62 31.3 31.3 0 0 0 4.22 1.9c.78.28 1.57.54 2.37.75l1.21.31a2.5 2.5 0 0 0 .53.11c.41 0 .24.08.5-.21.56-.63.8-1.38 1.48-1.93a24.16 24.16 0 0 1 2.05-1.23z" fill="#ad996e"/><path d="m8 23.71c3-3.1 1.91-9.3-1.47-11.71a4.6 4.6 0 0 0 -2.86-.93c-1.29.1-2.52 2.59-3 3.71-1 2.39-.61 5.13-.41 7.64.09 1 .18 2 .29 3.07a3.55 3.55 0 0 0 .06.56c.17.53.19.39.79.33s1-.11 1.48-.2a9.32 9.32 0 0 0 5.12-2.47z" fill="#fffef7"/><path d="m14.09 38a8.06 8.06 0 0 1 6.53-.76c2.45 1 2.8 3.54 4.56 5.18a5.65 5.65 0 0 0 5.42 1.16 5.29 5.29 0 0 0 3.56-5.18c0-2.75-2-4.27-4.14-5.59-1.77-1.09-4-2.51-4.13-4.83-.11-2.12 1.73-3.76 3.55-4.47 2.61-1 5.53-.53 8.15-1.48 1.95-.7 4-2.32 3.79-4.61-.15-2.08-2.09-3.62-4-4.11-2.33-.61-4.17.61-6.13 1.68a5.28 5.28 0 0 1 -2.82.89 7.42 7.42 0 0 1 -3.07-1.28c-1.95-1.13-4-1.86-6.25-1.26s-3.54 2.43-4.11 4.66c-1 4.08-.15 9.84-5.08 11.54-2.28.78-4.76.54-7.1 1-.35.06-1.47.15-1.65.42s.24 1.64.29 2c.24 1.5.51 3 .79 4.49s.59 3 .92 4.41a6.18 6.18 0 0 0 .26 1.13c.23.49.19.4.77.32a9.75 9.75 0 0 0 2.32-.65c2.78-1.25 4.95-3.35 7.57-4.66z" fill="#867763"/></g></svg>