<svg viewBox="0 0 88.48 88.64" xmlns="http://www.w3.org/2000/svg" xmlns:xlink="http://www.w3.org/1999/xlink"><pattern id="a" height="19.4" patternTransform="translate(32.58 66.69)" patternUnits="userSpaceOnUse" viewBox="0 0 19.37 19.4" width="19.37"><path d="m0 0h19.37v19.4h-19.37z" fill="none"/><path d="m0 18.21v2.39l4.8 4.79 4.84-4.84 4.86 4.87v-2.34l-4.86-4.87-4.8 4.81z" fill="#ffdb16"/><path d="m19.37 20.55-4.87 4.87v-2.34l4.87-4.87z" fill="#ffdb16"/><path d="m0 13.38v2.38l4.8 4.8 4.84-4.84 4.86 4.86v-2.34l-4.86-4.86-4.8 4.8z" fill="#ffdb16"/><path d="m19.37 15.72-4.87 4.86v-2.34l4.87-4.86z" fill="#ffdb16"/><path d="m0 8.51v2.39l4.8 4.8 4.84-4.85 4.86 4.87v-2.34l-4.86-4.87-4.8 4.81z" fill="#ffdb16"/><path d="m19.37 10.85-4.87 4.87v-2.34l4.87-4.87z" fill="#ffdb16"/><path d="m0 3.68v2.39l4.8 4.79 4.84-4.84 4.86 4.86v-2.33l-4.86-4.87-4.8 4.81z" fill="#ffdb16"/><path d="m19.37 6.02-4.87 4.86v-2.33l4.87-4.87z" fill="#ffdb16"/><path d="m0-1.19v2.39l4.8 4.8 4.84-4.84 4.86 4.86v-2.34l-4.86-4.87-4.8 4.81z" fill="#ffdb16"/><path d="m19.37 1.16-4.87 4.86v-2.34l4.87-4.87z" fill="#ffdb16"/><path d="m0-6.02v2.39l4.8 4.79 4.84-4.84 4.86 4.87v-2.34l-4.86-4.87-4.8 4.81z" fill="#ffdb16"/><path d="m19.37-3.68-4.87 4.87v-2.34l4.87-4.87z" fill="#ffdb16"/></pattern><g fill-rule="evenodd"><path d="m44.24.08c-25.24 0-44.24 7.55-44.24 17.56a131.82 131.82 0 0 0 7.45 38.36c7.86 21.31 20.55 32.56 36.79 32.56 16.87 0 29.83-11.56 37.47-33.56a133.57 133.57 0 0 0 6.77-37.34c0-10.03-19.02-17.58-44.24-17.58z" fill="#fff"/><path d="m44.38.08c-11 0-22.73 1.14-32.94 5.59-3.3 1.44-6.66 3.33-9 6.15a9.84 9.84 0 0 0 -2.27 7.09 125.64 125.64 0 0 0 4.89 29.3c3 10.61 7.51 21.39 15.18 29.53a32.64 32.64 0 0 0 45.88 2.67c7.79-6.76 12.64-16.37 15.93-26a129.3 129.3 0 0 0 6.41-33.23 17 17 0 0 0 -.16-5.79c-.88-3-3.3-5.25-5.8-6.93a41.15 41.15 0 0 0 -12-5.18 87.36 87.36 0 0 0 -16.63-2.83q-4.74-.37-9.49-.37z" fill="#fff"/><path d="m44.1.08c-11 0-22.73 1.14-32.94 5.59-3.31 1.44-6.66 3.33-8.99 6.15a9.84 9.84 0 0 0 -2.28 7.09 125.64 125.64 0 0 0 4.89 29.3c3.01 10.61 7.51 21.39 15.22 29.53a32.64 32.64 0 0 0 45.88 2.67c7.79-6.76 12.64-16.37 15.93-26a129.3 129.3 0 0 0 6.41-33.23 17 17 0 0 0 -.22-5.78c-.88-3-3.3-5.25-5.8-6.93a41.15 41.15 0 0 0 -12-5.18 87.36 87.36 0 0 0 -16.61-2.84c-3.16-.25-6.33-.37-9.49-.37z" fill="url(#a)" opacity=".6"/></g></svg>