<svg viewBox="0 0 88.48 88.64" xmlns="http://www.w3.org/2000/svg"><path d="m44.24.08c-25.24 0-44.24 7.55-44.24 17.56a131.82 131.82 0 0 0 7.45 38.36c7.86 21.31 20.55 32.56 36.79 32.56 16.87 0 29.83-11.56 37.47-33.56a133.57 133.57 0 0 0 6.77-37.34c0-10.03-19.02-17.58-44.24-17.58z" fill="#fff" fill-rule="evenodd"/><g fill="#e6eadc"><path d="m86.58 14.66c.33.45 1.08.46 1.54.74a10.29 10.29 0 0 0 -2.05-3.61c.11.8.01 2.21.51 2.87z"/><path d="m85.25 18c-.1 1.23-.63 2.38-.78 3.61s.39 2.13 1 3.24.39 1.9.34 3c-.07 1.31.57 1.57 1.59 2.13q.55-4.29.86-8.59c0-.83.1-1.66.13-2.49 0-.63 0-.65-.67-.82a6.9 6.9 0 0 0 -2.47-.08z"/><path d="m84.75 36.9c-.77-.08-1.36 1-1.77 1.46l-1.77 2.18a7.49 7.49 0 0 0 -1.31 1.9 4.66 4.66 0 0 0 0 2.43c.18 1.35-.61 2.69.22 3.89a10.77 10.77 0 0 0 2.88 2.45c.79-2.58 1.48-5.2 2.09-7.83.28-1.19.54-2.39.78-3.58.11-.54.42-1.39.23-1.86a2.35 2.35 0 0 0 -1.35-1.04z"/><path d="m67.51 36.12a12.12 12.12 0 0 0 .31 2.49 2.61 2.61 0 0 0 1.35 1.18 13.72 13.72 0 0 0 4 1c1 .13 1.2-.43 1.61-1.24a8 8 0 0 1 1.74-2.28 18.45 18.45 0 0 0 2.08-1.63c.66-.82.3-1.77.5-2.71.38-1.76 2.65-2.36 2.6-4.24a20.92 20.92 0 0 0 -.42-3.26c-.12-.75-.13-2.14-.9-2.56s-1.64.38-2.31.73a17.53 17.53 0 0 1 -2.94 1.22c-1.82.57-3.69.64-5.54 1s-3.46 1.49-3.68 3.55c-.3 2.42 1.09 4.49 1.6 6.75z"/><path d="m54.73 34.08a3 3 0 0 0 -1.2 1.45 4.42 4.42 0 0 0 .54 2.65c.31.75.68 1.48.94 2.25a20.72 20.72 0 0 0 .6 2c.51 1.14 1.86 2.06 3 1.25.58-.41 1.25-.61 1.82-1s.8-1.15 1.33-1.63c.73-.69 2.41-.1 2.58-1.31a8.53 8.53 0 0 0 -.34-2.52c-.18-.9-.42-1.79-.69-2.68a9.07 9.07 0 0 1 .11-5.11 8.15 8.15 0 0 0 .38-1.88c0-1-.76-.46-1.37-.23a4.6 4.6 0 0 0 -2 1.11c-.54.59-.93 1.3-1.43 1.91a26.55 26.55 0 0 1 -4.27 3.74z"/><path d="m36.07 22c1.74 1.06 3.67-.63 5.06-1.51 1.69-1.07 3.54-1.09 5.43-1.48a6.19 6.19 0 0 0 2.44-1.01 14.77 14.77 0 0 1 2.49-1.83c1.4-.61 3.28-.85 3.68-2.61.49-2.19-1.83-2.51-2.92-3.79-1.31-1.54-1.89-3.6-4.18-3.94-1.91-.28-3.6 1.39-5.41 1.77-2.06.42-3.46 1-4 3.23-.23 1-.22 2.08-.52 3.08a8.59 8.59 0 0 1 -1.56 2.51 5.23 5.23 0 0 0 -.78 3c-.05.93-.67 2.02.27 2.58z"/><path d="m52.91 18.29c-1.54 1.31-3.18 3.26-5.32 3.46s-4.34-.15-6.43.75a5.51 5.51 0 0 0 -3.38 4.5 12.77 12.77 0 0 0 0 3.15c.06.65.16 1.3.23 1.95a4.61 4.61 0 0 0 .24 1.7c.41.77 1.65 1.33 2.38 1.73a8.35 8.35 0 0 0 3.16 1.07c2.21.21 4-1.15 5.75-2.28l2.89-1.88a15 15 0 0 0 2.77-1.95 12.73 12.73 0 0 0 1.65-2.49c.22-.4.4-.82.65-1.19.41-.58.73-.6 1.28-1 1.67-1.08-.13-4.89-.85-6.12a5.19 5.19 0 0 0 -2.16-2.33c-1.1-.43-2.05.23-2.86.93z"/><path d="m54.59 4.14c.83 1.11 2.41 1.43 2.89 2.86.27.87.13 1.84.46 2.7a13.06 13.06 0 0 0 1.56 2.09 12.31 12.31 0 0 1 1.14 2.37 11.27 11.27 0 0 0 1 2.73 6.6 6.6 0 0 0 1.69 1.37 2.65 2.65 0 0 1 1.25 2c.31 1.82.92 3.16 3 2.44 1.58-.54 3.07-1.81 4.83-1.62a3.46 3.46 0 0 0 2.45-.2c.74-.42 1.32-1.09 2.07-1.5s1.32 0 2.21.08a2.24 2.24 0 0 0 1.91-.7 6 6 0 0 0 1-3 5.7 5.7 0 0 0 -.34-3.19 17 17 0 0 1 -1.08-3 1.24 1.24 0 0 1 0-.83c.22-.4.77-.31 1.08-.57a43.87 43.87 0 0 0 -12.6-5.17 75.61 75.61 0 0 0 -8.11-1.63c-1.5-.23-3-.37-4.43-.57l-.75-.08-.18.28a4.41 4.41 0 0 0 -.56.94 2.75 2.75 0 0 0 -.49 2.2z"/><path d="m61 46.18c-.76 1 .53 2.53 1 3.46.64 1.36 1.35 2.65 2.09 4a3.53 3.53 0 0 0 3.32 1.92 22 22 0 0 1 4.78.73c1.64.45 2.18-1.07 2.93-2.29s2-2.8 1.72-4.28a5.67 5.67 0 0 0 -2-3.56c-1.31-.85-3.24-.92-4.74-1.22l-3.12-.62a5.13 5.13 0 0 0 -2.45-.2 11.33 11.33 0 0 0 -1.78 1 5.11 5.11 0 0 0 -1.75 1.06z"/><path d="m59.76 60.38c1.06-1.17 2.35-2.71 2-4.42a5.66 5.66 0 0 0 -1.12-2 8.68 8.68 0 0 1 -1.24-2.47c-.46-1.38-1.07-3.27-2.79-3.45s-2.9 1.43-3.61 2.75a16.37 16.37 0 0 1 -2.83 4 10.67 10.67 0 0 0 -2.58 3.46 5.26 5.26 0 0 0 -.33 3.49c.4 1 2 1.08 2.92 1.2a22.23 22.23 0 0 0 4.91.57c1.98-.22 3.41-1.74 4.67-3.13z"/><path d="m69.17 60a3.93 3.93 0 0 0 -4.5-.07c-1 .78-1.64 2.2-3 2.46-.82.16-1.6-.24-2.4.14a5.72 5.72 0 0 0 -1.61 1.53c-.75.83-2.38 1.7-1.79 3s2.46 2.67 3.72 3.45a6.85 6.85 0 0 0 5.26.85 27.23 27.23 0 0 1 5.54-.66c1.53 0 2-1 1.6-2.36s-1.24-2.46-1.71-3.75c-.49-1.44.19-3.45-1.11-4.59z"/><path d="m76.36 59.09c-.79.59-1 1.54-1.48 2.33s-1.58 1.36-.79 2.52c.51.77 1.84 1.35 1.72 2.44 0 .54-.55.69-.78 1.11s0 1.2.17 1.76a74.19 74.19 0 0 0 6-12.62 15.89 15.89 0 0 0 -4.84 2.46z"/><path d="m62.4 74.27a9.36 9.36 0 0 1 -3.4-1.66c-1.13-.75-2.25-1.5-3.32-2.33a21.14 21.14 0 0 1 -2.68-2.45c-.67-.73-1.18-1.83-2-2.37-2.29-1.46-4 3.87-4.48 5.22-.72 1.94-1.64 3.79-.34 5.71.76 1.15 1.66 2.22 2.49 3.32s1.54 2.52 2.6 3.26c1.67 1.15 3.63-2.1 5 .1.34.53.53 2.7 1.11 2.9.27.09 1.36-.63 1.62-.76.54-.28 1.07-.56 1.59-.86a39.68 39.68 0 0 0 12.13-11.35c-3.34-1.51-6.87 2-10.32 1.27z"/><path d="m44.7 62.33a5.45 5.45 0 0 1 -1.82-2.64 2.75 2.75 0 0 0 -1.81-1.93c-1.15-.33-2.3.62-3.37.19a8.34 8.34 0 0 1 -1.31-1 4.37 4.37 0 0 0 -1.75-.62 32.49 32.49 0 0 1 -4.15-.63c-1.38-.4-2.72-.94-4.09-1.35-1.83-.53-5.41-1.4-6 1.21-.22 1-.06 2-.21 3a37.77 37.77 0 0 1 -1 4c-.31 1.19-.69 2.71-.14 3.88a13.19 13.19 0 0 0 2.46 3c1.82 2 4.15 3.78 7 3.8s5.19-2 8-2.37c1.39-.2 2.67.52 4 .27a4.57 4.57 0 0 0 2.76-2.14c1.19-1.81 3.59-4.79 1.43-6.67z"/><path d="m32.27 46.3c-.4.7-.66 1.47-1 2.18a11.24 11.24 0 0 0 -1.16 2.52 2 2 0 0 0 1.81 2.57c1.27.23 2.49-.57 3.71-.25a22.47 22.47 0 0 1 3 1.35c.65.28 1.87.82 2.39 0 .71-1.08-.82-3.08-1.4-3.88a28 28 0 0 0 -3.68-4c-1.19-.99-2.61-2.34-3.67-.49z"/><path d="m48.67 49.25a29.77 29.77 0 0 0 1-5 9.38 9.38 0 0 0 -.34-4.85c-.7-1.46-2.61-1.09-3.92-1s-2.84.44-4.27.57a4.65 4.65 0 0 0 -2.89.83c-.93.91-.67 2.4-.3 3.5.95 2.83 3 5.25 4.67 7.69a3.19 3.19 0 0 0 1.64 1.43c.91.26 1.23-.17 1.77-.77.97-1.05 2.17-.85 2.64-2.4z"/><path d="m14.37 27.38c-1.25 2 0 4.19 1.74 5.36a13 13 0 0 0 5.57 1.79c1.14.16 2.3.18 3.45.27a16.36 16.36 0 0 1 3.53.77c1.63.5 3.74 1 5.15-.28s1.62-3.92 1.54-5.79a16.86 16.86 0 0 0 -1.22-6.08 3.87 3.87 0 0 0 -1.61-1.91 3 3 0 0 0 -2.7.29 6.6 6.6 0 0 1 -3.21.66c-1 0-1.95-.42-2.92-.37a1.82 1.82 0 0 0 -1.4.85 4.33 4.33 0 0 1 -2.2 1.69c-1 .27-2 .26-3 .53a4.72 4.72 0 0 0 -2.72 2.22z"/><path d="m20.13 6.44c1.52.85 1.37 2.53 1.49 4.09a51 51 0 0 0 .52 5.09c.29 1.61.51 3.09 2.38 3.23a16.14 16.14 0 0 0 4.95-.24c1.19-.28 2.69-.39 3.5-1.43s.82-2.79 1.26-4.11a29.45 29.45 0 0 0 1.11-4.32c.31-1.74-.43-2.84-1.64-4s-2.42-1.75-3.92-.92c-1 .58-2.16 1.87-3.46 1.43a9.2 9.2 0 0 1 1.74-1.84c.49-.39 1.33-.7 1.62-1.29.11-.21.23-.88 0-1.07s-1.3.18-1.51.21c-.92.13-1.84.28-2.76.44a71.13 71.13 0 0 0 -10 2.49 28.89 28.89 0 0 1 4.72 2.24z"/><path d="m41 4.86a7.13 7.13 0 0 0 2.67-.75l3-1a8.84 8.84 0 0 0 4.7-2.74 121.09 121.09 0 0 0 -14 0l1.81 2.57c.42.59.98 1.8 1.82 1.92z"/><path d="m23.55 78.19c-.63-2.38-3.38-3.47-4.81-5.29-.73-.92-1-2.1-1.68-3s-2.3-.61-3.27-.45a46.78 46.78 0 0 0 9.64 11.55 5.66 5.66 0 0 0 .12-2.81z"/><path d="m47.08 84.85c.37-1.85-1.22-3.85-2.08-5.35-.51-.86-1-1.71-1.57-2.55-.39-.62-.9-1.89-1.59-2.22s-2 .14-2.72.26c-1 .15-1.93.29-2.9.46-1.33.24-3 .62-3.74 1.86-.36.58-.29 1.49-.94 1.84s-1.54-.15-2.23-.35a1.78 1.78 0 0 0 -1.16-.11c-.42.22-.28.82-.31 1.28a26.56 26.56 0 0 1 -.39 3.03c-.13.69-.18.75.43 1.11.39.23.78.46 1.17.67.84.46 1.69.88 2.56 1.25a30.8 30.8 0 0 0 5.2 1.73 32.37 32.37 0 0 0 6 .81 5 5 0 0 0 1.77 0c.29-.14.68-1 .9-1.25a6.36 6.36 0 0 0 1.6-2.47z"/><path d="m14.42 66c.84-.19 1.26-.44 1.47-1.32s.21-1.83.35-2.74c.24-1.5 1.1-2.71 1.41-4.17.25-1.19.2-2.6-.92-3.33a4.68 4.68 0 0 0 -3.43-.35 7.91 7.91 0 0 0 -3.24 1.41c-.37.28-.73.58-1.11.85-.18.14-1.07.53-1.14.7-.15.35.83 2.09 1 2.43q.99 2.52 2.19 4.89a9.2 9.2 0 0 0 1.27 2.43c.06.35.21.4.46.16s.39-.22.58-.34a3.32 3.32 0 0 1 1.11-.62z"/><path d="m9.61 53.58c.72-.07.58-.8.23-1.16a10.74 10.74 0 0 0 -2-1.39 9.45 9.45 0 0 1 -1.76-1.39 18.83 18.83 0 0 1 -1.34-2c.67 2.41 1.41 4.8 2.25 7.16a3.61 3.61 0 0 1 2.62-1.22z"/><path d="m19.46 52.28c.9 1 2-.28 2.62-.93 1-1 2.28-1 3.49-1.71a15 15 0 0 0 3.93-3.64c1.15-1.38 2.32-3.11 4-3.79.46-.17 1.11-.19 1.19-.8s-.48-1-.82-1.24a4.91 4.91 0 0 0 -3.69-1.13c-2.06.18-4.06.82-6.14.86a3.12 3.12 0 0 0 -1.55.17c-.67.43-.25 1.43-.25 2.07a13.08 13.08 0 0 1 -1.68 5.71c-.73 1.45-2.02 2.73-1.1 4.43z"/><path d="m19.78 43.11c.18-.93.29-1.88.47-2.82a12 12 0 0 1 .33-1.29 8.66 8.66 0 0 0 .53-1.32c.12-1.44-2.71-1.29-3.61-1.32a3.45 3.45 0 0 1 -2.14-.6c-.55-.41-1-1.26-1.76-1.41s-1.21.79-1.6 1.3a26.43 26.43 0 0 0 -1.82 2.61 33.55 33.55 0 0 0 -2.44 5c-.35.87-1.15 2.17-1 3.14a5 5 0 0 0 1.74 2.6 8.6 8.6 0 0 0 4.91 1.77c.78 0 2.31.15 2.62-.78.13-.39 0-.82 0-1.22a2.4 2.4 0 0 1 .44-1.17c.55-.77 1.45-.8 2.1-1.4a5.64 5.64 0 0 0 1.23-3.09z"/><path d="m6.55 9.07c.6-.1 1-1.16 1.3-1.59a22.88 22.88 0 0 0 -2 1.3 1.06 1.06 0 0 0 .7.29z"/><path d="m9.19 21.26c.23 1.06 0 2.81 1.17 3.39s2.44 0 3.43-.33c1.2-.41 2.56-.75 3.7-1.27a4.09 4.09 0 0 0 1.69-1.73 23.47 23.47 0 0 0 1.55-2.53 4 4 0 0 0 0-2.57l-.68-3.22-.56-2.82c-.17-.89-.17-1.72-1-2.23s-1.76-.89-2.63-1.34a11.79 11.79 0 0 0 -2.77-1.39c-.74-.12-1.41 1-1.83 1.53-.67.79-1.3 1.6-1.91 2.45a15.63 15.63 0 0 0 -1.62 2.49 4.21 4.21 0 0 0 .1 2.43c.39 2.42.86 4.78 1.36 7.14z"/><path d="m5.24 16.44c.52-.61-.4-1.86-.66-2.42-.49-1-1-2-1.43-3a10 10 0 0 0 -3.15 6.1 11 11 0 0 1 2.75-.24c.79.03 1.92.21 2.49-.44z"/><path d="m8.26 36.18c.37-.47.86-1.15.66-1.79s-.82-.78-.67-1.6c.21-1.14 1.27-2.05.34-3.18s-2.65-1.72-3.86-2.31c-.44-.21-.62-.38-1-.1a4.36 4.36 0 0 0 -.76.89c-.5.62-1 1.26-1.42 1.92.43-.84 1.8-2.44 1.26-3.44a2.2 2.2 0 0 0 -.9-.69 11.63 11.63 0 0 1 -1.45-1.13 141.87 141.87 0 0 0 2.88 17.38 27.25 27.25 0 0 0 2.74-2.94c.75-.99 1.42-2.03 2.18-3.01z"/><path d="m1.06 23.21a25 25 0 0 0 3.29 1.79l1.8.86a6 6 0 0 0 1.72.8c1.48.07.38-2.08.2-2.74-.31-1.15-.51-2.32-.82-3.47-.23-.85-.54-2.25-1.63-2.28s-2.26.93-3.38 1.09c-1 .13-1.9 0-2.08 1.14a3.21 3.21 0 0 0 .9 2.81z"/></g><path d="m87.67 15.18c-1.32-.45-1.27-1-1.45-2.31a2.35 2.35 0 0 0 -.55-1.53 15.38 15.38 0 0 0 -1.37-1.34c-.43-.37-.87-.72-1.33-1-.25-.18-.89-.79-1.19-.8a1.49 1.49 0 0 0 -1.15.76 3 3 0 0 0 .26 1.42c.33 1.06.89 2 1.18 3.1a7.24 7.24 0 0 1 -.26 3.69 2.77 2.77 0 0 1 -1.6 2.18c-1 .38-2-.49-2.94-.11a22.46 22.46 0 0 0 -2.38 1.65c-1.08.61-1.93.11-3.06.21a9 9 0 0 0 -3.11 1.14c-.82.39-2.06 1.07-3 .57a2.92 2.92 0 0 1 -1.1-2.27 3.1 3.1 0 0 0 -1.62-2.54 4 4 0 0 1 -1.82-2.21 26 26 0 0 0 -1.18-3.2c-.54-1-1.61-1.83-2-2.9s-.08-2.51-.9-3.52c-.57-.71-1.49-1-2.14-1.67-1.09-1.09.38-2.78.92-3.78q-1.88-.18-3.75-.3c-.54 0-.58-.11-1 .2a7.67 7.67 0 0 0 -.56.58 5.91 5.91 0 0 1 -1.36 1 22.86 22.86 0 0 1 -3.5 1.27c-1.33.43-2.65.91-4 1.29-1.19.34-1.63-.46-2.26-1.36l-1.01-1.54c-.23-.32-.73-1.36-1.07-1.51a5.78 5.78 0 0 0 -1.88.12l-2 .17c-1.28.12-2.49.26-3.79.42.35 1.13-.46 1.51-1.26 2.07a9.12 9.12 0 0 0 -2.12 2.13c2.06.7 3.39-2.44 5.59-1.76a6.56 6.56 0 0 1 3 2.59c.82 1.21.43 2.52.25 3.86a26.23 26.23 0 0 1 -1.1 3.67c-.34 1.21-.31 2.68-1.18 3.67s-2 1-3.11 1.24a15.48 15.48 0 0 1 -4.4.36c-1.45-.05-2.42-.14-2.86-1.67a22.82 22.82 0 0 1 -.72-4.5 43.24 43.24 0 0 0 -.43-4.72c-.27-1.43-1.8-1.92-3-2.51-.63-.32-1.27-.66-1.92-.94a3.38 3.38 0 0 0 -.92-.33 3.06 3.06 0 0 0 -1.22.31 42.21 42.21 0 0 0 -4.06 1.67q-.88.4-1.74.87c-.77.42-.88 1-1.44 1.57a1 1 0 0 1 -.54.4c-.31 0-.53-.31-.75-.29-.49 0-1.44 1.08-1.81 1.4-.17.16-.79.57-.84.8s.44.95.55 1.18c.37.79.74 1.58 1.12 2.36.24.51.8 1.27.46 1.84s-.91.52-1.38.55c-1.07.06-2.56-.32-3.56.15-.36.17-.33.19-.34.66v.76c0 .8.07 1.6.12 2.4 0-1.34.74-1.47 1.85-1.58s2.18-.88 3.33-1.07c2.05-.34 2.31 3.9 2.63 5.21.18.71 1.22 2.61.4 3.13s-2.6-.87-3.3-1.2c-2-.96-4.67-1.75-4.86-4.34.07 1 .15 2 .25 3a1.53 1.53 0 0 0 .7 1.33 6 6 0 0 0 .88.61c.5.3.93.55.89 1.2-.06 1-.91 2-1.35 2.88.41-.62.85-1.22 1.31-1.8a7.51 7.51 0 0 1 .77-.92c.42-.38.64-.24 1.14 0 1.21.58 3.14 1.28 3.95 2.42s-.54 2.16-.47 3.41c0 .63.71.89.75 1.52s-.59 1.35-.96 1.9c-.9 1.19-1.7 2.45-2.66 3.57-.53.62-1.26 1.12-1.74 1.76-.29.38-.21.49-.09 1s.23 1 .35 1.47a15.05 15.05 0 0 0 1.63 4.56 9 9 0 0 0 2.85 2.45c.71.47 3 1.9 1 2.28a3.14 3.14 0 0 0 -2.09 1c-.27.4-.11.59.06 1s.35 1 .53 1.42c1.1-.52 1.92-1.43 3-2a8.09 8.09 0 0 1 2.53-.92c1.61-.32 3.92-.23 4.38 1.72.53 2.17-1.11 4.07-1.44 6.13-.16 1 0 2.66-.66 3.52-.38.49-.94.42-1.46.64s-1.08.74-1.69 1c.31.57.64 1.13 1 1.68.19.32.26.55.59.63a5.21 5.21 0 0 0 1-.1c.7 0 1.58-.07 2.06.52a20.45 20.45 0 0 1 1.14 2.24 10.46 10.46 0 0 0 2.15 2.4c1.33 1.11 3 2.21 3.32 4.06a5 5 0 0 1 -.05 1.73c-.05.34-.16.54 0 .82a3.44 3.44 0 0 0 .73.59 35.32 35.32 0 0 0 3 2.13 28.05 28.05 0 0 0 .45-2.87c.05-.45.09-.9.11-1.35s-.1-.72.43-.91c1.13-.4 2.82 1.58 3.68 0 .3-.55.28-1.16.72-1.68a3.69 3.69 0 0 1 1.44-1 17.93 17.93 0 0 1 4.23-.91c.87-.14 1.76-.33 2.64-.42s1.06.18 1.51.85c1 1.45 1.88 2.94 2.76 4.45.76 1.31 2 2.93 1.86 4.52s-1.68 2.87-2.51 4.12a32.73 32.73 0 0 0 12.62-2.65c-.76-1.09-.58-3.72-2.42-3.71-1.48 0-2.58 1.8-4 .44a20.38 20.38 0 0 1 -1.84-2.38l-2.08-2.76a7.48 7.48 0 0 1 -1.48-2.38 5 5 0 0 1 .44-3.11 24 24 0 0 1 2.51-5.61c.43-.61 1.07-1.38 1.91-1.26a1.79 1.79 0 0 1 1.06.7c.61.69 1.1 1.47 1.74 2.14a27.89 27.89 0 0 0 4.43 3.6c1.53 1 3.17 2.4 5.07 2.65s3.66-.54 5.39-1.07a10.42 10.42 0 0 1 2.65-.55 4.87 4.87 0 0 1 1.32.1c.12 0 .59.23.65.21s.44-.62.53-.75a16.67 16.67 0 0 0 1.74-2.68c.22-.54 0-.74-.1-1.31s.24-.82.61-1.28c1.4-1.73-2.32-2.55-1.69-4.26.24-.66 1-1.14 1.32-1.8a4.93 4.93 0 0 1 1.5-2 15.94 15.94 0 0 1 2.54-1.46c.41-.19.84-.37 1.26-.54.7-.26.74-.33 1-1 .39-1.07.75-2.15 1.1-3.24.12-.38.51-1.16.34-1.46s-.75-.54-1-.71a8 8 0 0 1 -1.8-1.68c-.62-.9-.33-1.53-.18-2.52s-.38-2.22-.14-3.34a6.77 6.77 0 0 1 1.68-2.65c.76-.94 1.47-2 2.32-2.84s1.7-.16 2.41.65q.66-3.5 1.14-7c.08-.58.27-.86-.19-1.18s-.78-.27-1.06-.71c-.47-.73-.12-1.74-.08-2.54a3.73 3.73 0 0 0 -.87-2.35 3.68 3.68 0 0 1 -.62-2.79 15.69 15.69 0 0 1 .71-3.12c.15-.38.08-.35.58-.38a6.76 6.76 0 0 1 .9 0 6.64 6.64 0 0 1 1.77.37c.04-.99.21-2.92-.78-3.26zm-26.15 12.45a7.83 7.83 0 0 1 1.8-.66c.81 0 .4 1.12.28 1.65-.34 1.51-.9 3.13-.63 4.69.3 1.75 1 3.41 1.24 5.19.08.58.36 1.5-.21 1.9s-1.14.15-1.65.32-.87.69-1.21 1.19a3.62 3.62 0 0 1 -1.67 1.26c-.55.28-1.1.91-1.73.92a2.57 2.57 0 0 1 -1.74-.94 3.54 3.54 0 0 1 -.67-1.49 17.41 17.41 0 0 0 -.86-2.52c-.56-1.34-1.6-3.14-.47-4.41s2.82-2.19 4.07-3.42c1.1-1.07 1.93-3.15 3.45-3.68zm-4.23-8.9a9.87 9.87 0 0 1 2.1 5.89c-.07 1.21-1 1.1-1.62 1.82a16.48 16.48 0 0 0 -1.54 2.56 6.82 6.82 0 0 1 -1.84 2.19c-.94.67-1.94 1.26-2.9 1.89-1.85 1.2-3.84 2.92-6 3.43s-4.25-.54-6-1.69a2.37 2.37 0 0 1 -1.39-2.13c-.1-1.24-.32-2.46-.38-3.71-.09-2.05.31-4.21 2-5.56s4-1.6 6.19-1.6a6.77 6.77 0 0 0 3.28-.47 16.24 16.24 0 0 0 2.78-2.19c.78-.67 1.67-1.68 2.73-1.87a2.9 2.9 0 0 1 2.59 1.44zm-21.5 1.11a7.54 7.54 0 0 1 .5-2.9c.45-.8 1.18-1.42 1.59-2.25.81-1.65.41-3.63 1.32-5.24 1.06-1.88 3.45-1.55 5.17-2.37s3.4-1.87 5.34-.52c1.56 1.08 1.94 3.15 3.61 4.13.74.44 1.53.84 1.8 1.72a2.44 2.44 0 0 1 -.73 2.47c-1.21 1.1-3 1.18-4.31 2.24a8.38 8.38 0 0 1 -2.18 1.52 13.16 13.16 0 0 1 -3 .65 9.51 9.51 0 0 0 -3 .8c-1 .5-1.78 1.23-2.74 1.73a3.34 3.34 0 0 1 -2.77.31c-1.2-.48-.72-1.36-.6-2.29zm2.26 29.16a13.09 13.09 0 0 1 2.84 4.08c.37 1 .28 2.16-1 2a10.36 10.36 0 0 1 -3-1.26 5.79 5.79 0 0 0 -1.34-.54 5.33 5.33 0 0 0 -1.93.26c-1.06.21-2.61.13-3.29-.86-.92-1.33.55-3.36 1.14-4.54.49-1 1.08-3.41 2.63-2.77s2.84 2.48 3.95 3.63zm-15.85-7.86c-.3-1.62 2-1.17 3-1.27 2-.21 4.16-1 6.2-.81a4.86 4.86 0 0 1 3 1.56c1.12 1.31-.66 1.44-1.48 2-1.64 1-2.72 2.74-4 4.17a12.06 12.06 0 0 1 -4.14 3.21 17.09 17.09 0 0 0 -2 .63 7.53 7.53 0 0 0 -1.26 1.2c-.89.87-2.09 1.23-2.4-.38s1-2.65 1.62-4c.91-1.83 1.84-4.19 1.46-6.31zm-.55-17.43a5.75 5.75 0 0 1 1.35-1.45 2.91 2.91 0 0 1 1.91 0 9.06 9.06 0 0 0 3.4.11c1-.21 1.93-.94 3-1.05 1.9-.21 2.87 1.84 3.28 3.37a18.94 18.94 0 0 1 .75 6.69c-.17 1.8-.74 4-2.7 4.59s-3.73-.43-5.51-.86c-4-1-9 .1-12.07-3.3a3.9 3.9 0 0 1 .72-6c1.69-1.3 4.42-.4 5.87-2.1zm-13.07-5.43c-.2-1-.39-2-.56-3a12.32 12.32 0 0 1 -.47-3 4 4 0 0 1 .78-1.51c.56-.91 1.16-1.77 1.78-2.57s1.22-1.52 1.89-2.2c.29-.32.52-.69 1-.71s1 .45 1.41.64l2.59 1.31c.67.34 1.76.65 2.11 1.37a11.84 11.84 0 0 1 .58 2.73l.63 3.19c.19.92.42 1.84.55 2.77a3.43 3.43 0 0 1 -.77 2.5 22.11 22.11 0 0 1 -1.54 2.39 4.36 4.36 0 0 1 -2.37 1.26c-1.1.32-2.14.82-3.25 1.13s-2.69.61-3.28-.67a8.42 8.42 0 0 1 -.44-2.34c-.16-1.1-.43-2.19-.64-3.29zm8.48 28.72a2.47 2.47 0 0 0 -1 2c0 .92 0 1.46-1 1.65a8.54 8.54 0 0 1 -5.25-.92 5.82 5.82 0 0 1 -2.81-2.86c-.5-1 .06-2 .45-3 1.3-3.19 2.83-6.73 5.31-9.22 1.1-1.1 2.37 1.21 3.44 1.54 1.39.41 3-.14 4.34.6 1 .58.24 1.49 0 2.35a22.06 22.06 0 0 0 -.58 3 11.41 11.41 0 0 1 -.88 3.26c-.49.95-1.22.99-2.02 1.6zm28.22 18.47a18.33 18.33 0 0 1 -1.88 3.31 5.52 5.52 0 0 1 -2.23 2.22c-1.2.55-2.17 0-3.37-.09a8.74 8.74 0 0 0 -4 .85c-2.65 1.08-5.07 2.17-7.9 1-2.5-1-4.42-3.2-6.09-5.26-1.83-2.25-.43-5.06.19-7.54a18 18 0 0 0 .38-3.51 2.67 2.67 0 0 1 .92-2.24c1-.66 2.66-.4 3.77-.19a31.09 31.09 0 0 1 4.09 1.25 17.28 17.28 0 0 0 3.89.95c1.4.13 2.65.12 3.79 1.06a2.2 2.2 0 0 0 1.76.75 12.37 12.37 0 0 1 1.79-.37 2.6 2.6 0 0 1 2.45 1.79 7.4 7.4 0 0 0 .6 1.52 7.33 7.33 0 0 0 1.31 1.36 2.53 2.53 0 0 1 .53 3.14zm0-13.07c-1.45.6-2.52-1-3.13-2.08-.84-1.4-1.94-2.61-2.78-4-1-1.63-3.13-5.29-.84-6.76a6.77 6.77 0 0 1 3-.62c1.6-.18 3.17-.48 4.78-.62s2.81.06 3.2 1.74a13.06 13.06 0 0 1 0 5.06c-.15.9-.34 1.8-.52 2.7a6.13 6.13 0 0 1 -.77 2.37 2.85 2.85 0 0 1 -1.13.74 3.58 3.58 0 0 0 -1 .64c-.24.27-.37.67-.76.83zm7 10.8c-1.19-.25-2.41-.23-3.59-.53s-1.65-1-1.59-2.26c.15-3.1 2.4-4.73 4.24-6.93 1.38-1.66 3.58-7.81 6.64-4.7 1.21 1.23 1.25 3.12 2.13 4.54s2.09 2.58 1.41 4.43a11.8 11.8 0 0 1 -3.62 4.44c-1.7 1.42-3.47 1.45-5.58 1.01zm19.52 7.15c-.46.53-1.37.36-2 .35a19.54 19.54 0 0 0 -3 .3c-1.93.29-3.75.94-5.69.29a11.7 11.7 0 0 1 -4.11-2.91c-.47-.46-1.17-1.13-1.2-1.83s.55-1.17 1-1.58c.93-.87 1.87-2.45 3.21-2.63.75-.1 1.45.22 2.18-.09a4.73 4.73 0 0 0 1.58-1.37 3.75 3.75 0 0 1 3.68-1.52c2.08.25 2.55 1.57 2.66 3.45a9 9 0 0 0 1.25 3.82c.45 1 1.36 2.68.48 3.72zm4.61-18.8a29.25 29.25 0 0 1 -2.53 4.2c-1 1.23-2.62.2-3.89 0s-3.19.06-4.49-.57-1.79-2.18-2.4-3.26c-.73-1.33-1.31-2.74-2-4.08-.25-.5-.52-.87-.26-1.41a3.14 3.14 0 0 1 1.38-1.14c1.11-.62 2.16-1.43 3.48-1.26 1.72.22 3.44.68 5.14 1s3.74.4 4.82 1.88c.93 1.33 1.56 3.16.79 4.64zm5.11-22c-.28.78-1.15 1.29-1.68 1.9a3.41 3.41 0 0 0 -.84 2.45 2.49 2.49 0 0 1 -1.08 2.28 12.85 12.85 0 0 0 -2.12 1.82 17.47 17.47 0 0 0 -1.42 2.33c-.46.72-1.08.53-1.8.4a10 10 0 0 1 -4-1.21c-1.38-1-.91-3-1.37-4.42-.6-1.84-1.57-3.65-1.36-5.65.43-4.15 5.59-3.59 8.55-4.39a17.72 17.72 0 0 0 3.29-1.26c.73-.36 1.78-1.36 2.63-.89s.86 2.26 1 3.11c.17.98.61 2.51.24 3.52z" fill="#fffdf8"/></svg>