<svg xmlns="http://www.w3.org/2000/svg" xmlns:xlink="http://www.w3.org/1999/xlink" viewBox="0 0 88.48 88.64"><defs><style>.a{fill-rule:evenodd;fill:url(#a);}.b,.f{fill:#fff;}.c,.f{opacity:0.5;}.d{opacity:0.6;}.e{opacity:0.7;}</style><linearGradient id="a" x1="-466.64" y1="4623.4" x2="-465.53" y2="4707.49" gradientTransform="matrix(-1, 0, 0, 1, -422.22, -4620.27)" gradientUnits="userSpaceOnUse"><stop offset="0" stop-color="#fff"/><stop offset="0.67" stop-color="#f478c4"/><stop offset="1" stop-color="#f478c4"/></linearGradient></defs><title>espace_rose</title><path class="a" d="M44.24.08C19,.08,0,7.63,0,17.64A131.72,131.72,0,0,0,7.45,56C15.3,77.3,28,88.56,44.24,88.56,61.11,88.56,74.07,77,81.71,55a133.63,133.63,0,0,0,6.77-37.34C88.48,7.63,69.46.08,44.24.08Z"/><path class="b" d="M15.08,10.3c-.28-.14-.61-.13-.89-.27.37-.2.87.12,1.23-.1a.9.9,0,0,0,.31-.54,8.52,8.52,0,0,0,.15-2l.22,2.09a.41.41,0,0,0,.1.29.4.4,0,0,0,.18.1c.33.12.67.16,1,.28-.39.06-.88-.05-1.19.16s-.24.49-.27.77c0,.45-.07.91-.15,1.35C15.65,11.7,15.89,10.72,15.08,10.3Z"/><g class="c"><path class="b" d="M33.47,12.83c-.28-.15-.61-.14-.9-.28.37-.19.88.12,1.23-.1a.83.83,0,0,0,.31-.54,8,8,0,0,0,.16-2l.22,2.1a.45.45,0,0,0,.1.29.35.35,0,0,0,.17.09c.34.13.68.16,1,.28-.38.06-.87,0-1.18.16s-.25.5-.27.78c0,.44-.07.9-.15,1.35C34,14.22,34.28,13.24,33.47,12.83Z"/></g><path class="b" d="M6.19,30.78c-.33-.14-.74-.14-1.07-.27.44-.2,1,.12,1.47-.11A.81.81,0,0,0,7,29.86a6.83,6.83,0,0,0,.19-2l.26,2.1a.42.42,0,0,0,.12.29.59.59,0,0,0,.21.1c.4.12.8.15,1.2.28a4.25,4.25,0,0,0-1.41.15c-.28.16-.29.5-.32.78-.06.45-.08.91-.18,1.35C6.86,32.17,7.15,31.19,6.19,30.78Z"/><path class="b" d="M29.77,73.16c-.2-.09-.44-.08-.65-.16.27-.12.63.07.88-.07a.48.48,0,0,0,.23-.32,4.08,4.08,0,0,0,.1-1.21l.16,1.26a.26.26,0,0,0,.07.17.75.75,0,0,0,.13.06c.24.07.48.09.72.17a2.58,2.58,0,0,0-.85.09c-.16.09-.17.3-.19.46s-.05.55-.1.81C30.17,74,30.35,73.41,29.77,73.16Z"/><path class="b" d="M42.2,83c-.24-.12-.52-.11-.76-.23.31-.16.74.11,1-.08a.76.76,0,0,0,.26-.46,6.94,6.94,0,0,0,.13-1.71l.18,1.77a.37.37,0,0,0,.09.25.36.36,0,0,0,.15.08c.28.11.57.14.85.24-.33,0-.74,0-1,.13s-.21.42-.23.66-.06.76-.12,1.14C42.67,84.21,42.88,83.38,42.2,83Z"/><g class="d"><path class="b" d="M17.57,20.29c-.16-.09-.37-.08-.53-.16.22-.12.52.07.73-.07a.46.46,0,0,0,.19-.32,4.87,4.87,0,0,0,.09-1.21l.13,1.26a.32.32,0,0,0,.06.17.39.39,0,0,0,.11.06c.2.07.4.09.6.17-.23,0-.52,0-.71.09s-.14.3-.16.46,0,.55-.09.81C17.91,21.12,18.06,20.54,17.57,20.29Z"/></g><path class="b" d="M55,4.26c-.17-.09-.37-.08-.54-.16.23-.12.53.07.74-.07a.46.46,0,0,0,.19-.32,5.4,5.4,0,0,0,.09-1.21l.13,1.26a.32.32,0,0,0,.06.17.39.39,0,0,0,.11.06c.2.07.4.09.6.17-.23,0-.53,0-.71.09s-.15.3-.16.46,0,.55-.09.81C55.35,5.09,55.5,4.51,55,4.26Z"/><path class="b" d="M11.81,56.77c-.16-.08-.37-.08-.54-.16.23-.12.53.07.74-.06a.51.51,0,0,0,.19-.32A5,5,0,0,0,12.29,55l.13,1.26a.32.32,0,0,0,.06.17.24.24,0,0,0,.11.06c.2.08.4.1.6.17-.23,0-.52,0-.71.09s-.14.3-.16.47,0,.54-.09.81C12.15,57.61,12.3,57,11.81,56.77Z"/><g class="e"><path class="b" d="M71.61,39.54c-.35-.18-.77-.17-1.12-.34.46-.25,1.09.15,1.54-.13a1.09,1.09,0,0,0,.39-.67,10.76,10.76,0,0,0,.19-2.53l.27,2.62a.63.63,0,0,0,.13.36.61.61,0,0,0,.22.13c.42.15.85.19,1.27.35-.49.06-1.1-.07-1.49.19s-.3.62-.34,1c-.06.56-.08,1.14-.18,1.69C72.32,41.28,72.63,40.06,71.61,39.54Z"/></g><path class="b" d="M7.1,46.42a.48.48,0,0,0-.71.37c.19,0,.27.25.2.43s-.17.42,0,.56.28.06.43.06.48.16.72.1c.4-.08.48-.61.42-1a1,1,0,0,0-.35-.7c-.22-.16-.61-.07-.65.2"/><path class="f" d="M76.74,18.93a.48.48,0,0,0,.41.69c-.07-.19.23-.28.42-.23s.42.16.55,0,0-.28,0-.43.13-.49.07-.73-.64-.45-1-.36a1,1,0,0,0-.69.38c-.14.23,0,.61.23.64"/><path class="b" d="M64.66,64a.25.25,0,0,0-.33,0,.48.48,0,0,0-.09.35.4.4,0,0,0,.21.33.34.34,0,0,0,.28,0,.48.48,0,0,0,.3-.46.32.32,0,0,0-.41-.28"/><path class="b" d="M84.56,20.16a.24.24,0,0,0-.27.18.44.44,0,0,0,.08.35.41.41,0,0,0,.33.2.36.36,0,0,0,.24-.16.47.47,0,0,0,0-.54.32.32,0,0,0-.49-.06"/><path class="b" d="M67,9.58a.24.24,0,0,0-.27.19.45.45,0,0,0,.08.35.38.38,0,0,0,.34.19.37.37,0,0,0,.24-.15.51.51,0,0,0,0-.54.32.32,0,0,0-.5-.06"/><path class="b" d="M77.48,52a.39.39,0,0,0-.49-.21.7.7,0,0,0-.4.41.62.62,0,0,0,0,.63A.55.55,0,0,0,77,53a.77.77,0,0,0,.78-.4.52.52,0,0,0-.35-.72"/><path class="b" d="M2.75,41a.23.23,0,0,0-.27.18.44.44,0,0,0,.08.35.37.37,0,0,0,.33.19.35.35,0,0,0,.24-.15A.47.47,0,0,0,3.18,41,.31.31,0,0,0,2.69,41"/><path class="b" d="M11.56,27.11a.24.24,0,0,0-.27.19.42.42,0,0,0,.08.34.38.38,0,0,0,.33.2.38.38,0,0,0,.24-.15.49.49,0,0,0,.05-.55.32.32,0,0,0-.49-.05"/><path class="b" d="M12.89,37.89c-.12-.06-.25.07-.29.2a1.18,1.18,0,0,0,.09.64.52.52,0,0,0,.06.13.42.42,0,0,0,.16.09.94.94,0,0,0,.22.07.58.58,0,0,0,.34-.06.67.67,0,0,0,.26-.87.66.66,0,0,0-.87-.25s0,0,0,0,0,0,0,0"/><path class="b" d="M11,14.35c-.12-.06-.25.08-.28.21a1.1,1.1,0,0,0,.08.64.45.45,0,0,0,.06.12.34.34,0,0,0,.16.1.88.88,0,0,0,.23.07.63.63,0,0,0,.33-.06.67.67,0,0,0,.26-.87.66.66,0,0,0-.87-.26s0,0,0,0,0,0,0,0"/><path class="b" d="M66.52,69.79c-.07-.1-.23-.05-.31,0a1,1,0,0,0-.21.54.48.48,0,0,0,0,.12.39.39,0,0,0,.08.14,1.06,1.06,0,0,0,.15.15.5.5,0,0,0,.29.09.59.59,0,0,0,.57-.57.58.58,0,0,0-.57-.56s0,0,0,0h0"/><path class="b" d="M48.14,79.35c-.07-.1-.23,0-.31,0a1,1,0,0,0-.2.54.49.49,0,0,0,0,.12.34.34,0,0,0,.09.14.54.54,0,0,0,.15.15.47.47,0,0,0,.28.09.57.57,0,1,0,0-1.13,0,0,0,0,0,0,0s0,0,0,0"/><path class="f" d="M41.8,70c-.07-.1-.23,0-.31,0a1,1,0,0,0-.2.54.48.48,0,0,0,0,.12.29.29,0,0,0,.08.14,1.06,1.06,0,0,0,.15.15.48.48,0,0,0,.29.09.6.6,0,0,0,.57-.57.58.58,0,0,0-.58-.56s0,0,0,0,0,0,0,0"/><path class="f" d="M50.25,13.29c-.07-.09-.23,0-.31,0a1,1,0,0,0-.2.55.25.25,0,0,0,0,.12.31.31,0,0,0,.09.14,1,1,0,0,0,.14.15.52.52,0,0,0,.29.09.59.59,0,0,0,.57-.57.6.6,0,0,0-.57-.57s0,0,0,0,0,0,0,0"/><path class="b" d="M79.29,27.07c-.12-.06-.26.07-.29.2a1.22,1.22,0,0,0,.09.65.27.27,0,0,0,.06.12.44.44,0,0,0,.16.1.79.79,0,0,0,.22.06.54.54,0,0,0,.33-.06.65.65,0,0,0,.27-.86.66.66,0,0,0-.87-.26s0,0,0,0,0,0,0,0"/><path class="f" d="M18.44,64.59c0-.09-.12-.13-.22-.11a1,1,0,0,0-.42.26.23.23,0,0,0-.07.07.28.28,0,0,0,0,.13.39.39,0,0,0,0,.15.34.34,0,0,0,.13.18.55.55,0,0,0,.67-.11.41.41,0,0,0-.05-.6,0,0,0,0,0,0,0s0,0,0,0"/><path class="b" d="M6.29,19.74a.24.24,0,0,0-.28.18.45.45,0,0,0,.09.35.36.36,0,0,0,.33.19.35.35,0,0,0,.24-.15.47.47,0,0,0,0-.54.31.31,0,0,0-.49-.06"/><path class="b" d="M70,9.16a.24.24,0,0,0-.27.19.43.43,0,0,0,.08.34.41.41,0,0,0,.33.2.38.38,0,0,0,.25-.16.51.51,0,0,0,.05-.54.33.33,0,0,0-.5,0"/><path class="b" d="M24.69,6.64a.23.23,0,0,0-.27.18.44.44,0,0,0,.08.35.41.41,0,0,0,.33.2.36.36,0,0,0,.24-.16.47.47,0,0,0,.05-.54.32.32,0,0,0-.49-.06"/><path class="b" d="M77.12,49.22a.25.25,0,0,0-.3-.15.47.47,0,0,0-.25.25.39.39,0,0,0,0,.39.36.36,0,0,0,.25.13.48.48,0,0,0,.49-.24.32.32,0,0,0-.2-.45"/><path class="b" d="M72,58.16a.24.24,0,0,0-.28.18.45.45,0,0,0,.09.35.36.36,0,0,0,.33.19.35.35,0,0,0,.24-.15.47.47,0,0,0,.05-.54.31.31,0,0,0-.49-.06"/><path class="b" d="M69.41,47.45c-.12-.06-.26.07-.29.2a1.18,1.18,0,0,0,.09.64.31.31,0,0,0,.06.13.42.42,0,0,0,.16.09.81.81,0,0,0,.22.07.54.54,0,0,0,.33-.06.64.64,0,1,0-.6-1.12l0,0s0,0,0,0"/><path class="f" d="M61.32,56c-.12-.06-.26.07-.29.2a1.23,1.23,0,0,0,.09.65.34.34,0,0,0,.06.12.32.32,0,0,0,.16.09.81.81,0,0,0,.22.07.54.54,0,0,0,.33-.06.64.64,0,1,0-.6-1.12s0,0,0,0,0,0,0,0"/><path class="b" d="M20.26,52.28a.23.23,0,0,0-.18-.27.44.44,0,0,0-.35.08.38.38,0,0,0-.19.34.37.37,0,0,0,.15.24.51.51,0,0,0,.54,0,.32.32,0,0,0,.06-.5"/><path class="f" d="M57.34,75a.24.24,0,0,0-.19-.27.42.42,0,0,0-.34.08.32.32,0,0,0-.05.57.51.51,0,0,0,.55.06.33.33,0,0,0,0-.5"/><path class="b" d="M77.75,13.93a.23.23,0,0,0-.27.18.44.44,0,0,0,.08.35.38.38,0,0,0,.33.19.35.35,0,0,0,.24-.15.47.47,0,0,0,.05-.54.31.31,0,0,0-.49-.06"/><path class="f" d="M64.13,15.19a.23.23,0,0,0-.27.18.48.48,0,0,0,.08.35.38.38,0,0,0,.34.19.37.37,0,0,0,.24-.15.49.49,0,0,0,0-.54.32.32,0,0,0-.5-.06"/><path class="f" d="M51.1,15.61a.24.24,0,0,0-.27.18.44.44,0,0,0,.08.35.41.41,0,0,0,.34.2.38.38,0,0,0,.24-.16.51.51,0,0,0,0-.54.33.33,0,0,0-.5-.06"/><path class="f" d="M30.66,24a.24.24,0,0,0-.28.18.45.45,0,0,0,.09.35.38.38,0,0,0,.33.2.36.36,0,0,0,.24-.16.47.47,0,0,0,.05-.54.33.33,0,0,0-.5-.06"/><path class="b" d="M34.07,4.31a.25.25,0,0,0-.28.19.42.42,0,0,0,.09.34.32.32,0,0,0,.57,0,.49.49,0,0,0,0-.55.32.32,0,0,0-.49,0"/><path class="f" d="M19.85,22.09a.24.24,0,0,0-.27.19.45.45,0,0,0,.08.35.38.38,0,0,0,.33.19.33.33,0,0,0,.24-.15.49.49,0,0,0,.06-.54.32.32,0,0,0-.5-.06"/><path class="b" d="M33.67,70.76a.24.24,0,0,0-.19-.27.42.42,0,0,0-.34.08.39.39,0,0,0-.2.34.41.41,0,0,0,.15.24.52.52,0,0,0,.55,0,.33.33,0,0,0,0-.5"/><path class="b" d="M56.91,72.89c.06-.12-.07-.25-.2-.28a1.05,1.05,0,0,0-.65.09l-.12,0a.54.54,0,0,0-.1.16,1,1,0,0,0-.06.23.54.54,0,0,0,.06.33.64.64,0,1,0,1.12-.6s0,0,0,0,0,0,0,0"/><path class="b" d="M26.33,4.32c.05-.12-.08-.26-.21-.29a1.19,1.19,0,0,0-.64.09.31.31,0,0,0-.13.06.42.42,0,0,0-.09.16.81.81,0,0,0-.07.22.63.63,0,0,0,.06.33.64.64,0,1,0,1.12-.6,0,0,0,0,0,0,0s0,0,0,0"/><path class="b" d="M21.73,67.57c.06-.13-.08-.26-.21-.29a1.11,1.11,0,0,0-.64.09.27.27,0,0,0-.12.06.36.36,0,0,0-.1.15,1,1,0,0,0-.07.23.55.55,0,0,0,.07.33.65.65,0,0,0,.86.27.66.66,0,0,0,.26-.87.05.05,0,0,0,0,0s0,0,0,0"/><path class="b" d="M18.62,42.72c-.12-.06-.25.08-.28.21a1,1,0,0,0,.09.64.43.43,0,0,0,.05.12.39.39,0,0,0,.16.1,1,1,0,0,0,.23.07.55.55,0,0,0,.33-.07.64.64,0,1,0-.6-1.12s0,0,0,0,0,0,0,0"/><path class="f" d="M20.29,38.52c-.13-.06-.26.07-.29.2a1.18,1.18,0,0,0,.09.64.31.31,0,0,0,.06.13.42.42,0,0,0,.16.09.81.81,0,0,0,.22.07.54.54,0,0,0,.33-.06.64.64,0,1,0-.6-1.12,0,0,0,0,0,0,0s0,0,0,0"/><path class="b" d="M78.68,37.25c-.12,0-.25.08-.29.21a1.18,1.18,0,0,0,.09.64.52.52,0,0,0,.06.13.42.42,0,0,0,.16.09.94.94,0,0,0,.22.07.53.53,0,0,0,.33-.06.67.67,0,0,0,.27-.87.66.66,0,0,0-.87-.25s0,0,0,0,0,0,0,0"/><path class="b" d="M44.22,4.72c-.13-.06-.26.07-.29.2a1.13,1.13,0,0,0,.09.65.34.34,0,0,0,.06.12.49.49,0,0,0,.15.1,2,2,0,0,0,.23.06.54.54,0,0,0,.33-.06.65.65,0,0,0,.27-.86.66.66,0,0,0-.87-.26s0,0,0,0,0,0,0,0"/></svg>