<svg viewBox="0 0 88.48 88.64" xmlns="http://www.w3.org/2000/svg"><path d="m44.24.08c-25.24 0-44.24 7.55-44.24 17.56a131.82 131.82 0 0 0 7.45 38.36c7.86 21.31 20.55 32.56 36.79 32.56 16.87 0 29.83-11.56 37.47-33.56a133.57 133.57 0 0 0 6.77-37.34c0-10.03-19.02-17.58-44.24-17.58z" fill="#fff" fill-rule="evenodd"/><path d="m79.45 23.87.34-.27" fill="none"/><g fill="#e8e5e4"><path d="m80.77 57.55c.27-.7.53-1.41.78-2.12a13.82 13.82 0 0 0 -2.11 3c.43-.32.88-.61 1.33-.88z"/><path d="m55.66.62a2.41 2.41 0 0 1 -.12.65c.31-.18.61-.37.9-.56z"/><path d="m88.42 19.32a10.65 10.65 0 0 0 -.57-4.75c-.59.4-1.18.82-1.74 1.27l.64-1.51a9.81 9.81 0 0 0 -3.29 2.6 8.35 8.35 0 0 1 1.13-2.53 75.74 75.74 0 0 1 -7.73 5.85 4.24 4.24 0 0 0 1.45-2.06l-5.06 3.21a6.21 6.21 0 0 0 1.6-2.29c-2.19 1.32-4.35 2.67-6.5 4.06l1.37-2a18.2 18.2 0 0 0 -7 6.24c.21-.84.52-1.63.78-2.45a21.54 21.54 0 0 1 -3.33 4.45 23.74 23.74 0 0 1 -5.17 4.42 29.78 29.78 0 0 1 2.36-2.94 19.29 19.29 0 0 0 3.08-5.65 26 26 0 0 0 -2.51 1.76 20.76 20.76 0 0 1 3.61-4.16 30.26 30.26 0 0 1 4.34-2.7 3 3 0 0 0 -1.12 0c1.05-1.14 2.85-1.67 4.24-2.14 1-.37 2.1-.71 3.17-1a6.78 6.78 0 0 0 -2.41.36c4.16-2.82 9.4-3.24 13.73-5.73l-2.37.28a20.59 20.59 0 0 1 3.34-1.79 23.22 23.22 0 0 0 -2.26-1.76c-.4-.26-.81-.52-1.22-.76-.63-.37-.78-.58-1.29 0 0-.1.3-.52.27-.61a2.2 2.2 0 0 0 -.63-.32c-.32 0-1 .71-1.21.89a15.12 15.12 0 0 0 -2 2 2.39 2.39 0 0 1 .63-1.56 21.47 21.47 0 0 0 -4.39 3.24c-1.36 1.45-2.75 2.86-4.14 4.28a28.17 28.17 0 0 1 6.83-9.7l-.42 1.32a21.87 21.87 0 0 0 1.36-2c-1.22-.49-2.47-.93-3.73-1.33a13.71 13.71 0 0 1 -2.39 5.06c-.67.93-1.42 1.8-2.15 2.69-.38.46-.74.94-1.11 1.42-.2.25-.63.62-.63 1a3 3 0 0 1 .29-1.29l-2.29 2c0-.26 0-.52 0-.78a12.67 12.67 0 0 1 -2.74 2.43l.25-.67a15.06 15.06 0 0 1 -5.16 2.61 4.9 4.9 0 0 0 1.21-1.43c-2 .58-3 2.74-4.35 4.12-.74.77-1.75 1.11-2.43 1.92a13.15 13.15 0 0 0 -1 1.32c-.21.3-.5 1.22-.8 1.43l2-1.4c-.76 1.93-1.6 3.83-2.52 5.68l1.37-1.18c-1.51 2.08-2.31 4.79-4.2 6.58a4.56 4.56 0 0 0 1.66-1.26c-1 2.38-3.16 4-5.27 5.44.41-.36.48-1 .76-1.42-1.87 2.36-4.49 3.8-7.11 5.19a3.58 3.58 0 0 0 1.43-1.89 14.27 14.27 0 0 0 -4.57 1.76 4.11 4.11 0 0 0 .94-1.86 8.27 8.27 0 0 0 -2.49.76l1.11-1.66-4.41.31a24.6 24.6 0 0 0 7.83-3l-1.55 2.51a12.24 12.24 0 0 0 4-2.24 16.19 16.19 0 0 0 -1.19 2.04 10 10 0 0 0 4.62-4.1 11.53 11.53 0 0 1 -1.43.86 27.12 27.12 0 0 0 6.39-11.11 8.08 8.08 0 0 0 -3.3 3 4.38 4.38 0 0 1 .5-2.06 15.73 15.73 0 0 0 -4.82 5.34 11.74 11.74 0 0 1 .82-2.93c-1.53.9-2.45 3-3.24 4.48a20.23 20.23 0 0 1 .57-2.42 20.06 20.06 0 0 0 -4.48 6.39 19.66 19.66 0 0 1 5.83-10l-.4 1.79a25.6 25.6 0 0 1 3.19-3.3 6.74 6.74 0 0 1 -.64 1.63l5-5c-.17.63-.35 1.26-.52 1.88a10.56 10.56 0 0 1 4.37-2.16l-1 1.77a15.46 15.46 0 0 1 2.93-1.73c1-.43 1.69-1.67 2.26-2.61a44.82 44.82 0 0 0 2.69-5.85l-1.26 1.13a14.17 14.17 0 0 1 2.76-4.16l-1.59.83a19.22 19.22 0 0 1 6.15-4.18l-.89 1.31 5.2-3.58-1.18 2.12c1.33-1.32 3-2.24 4.31-3.56a13.36 13.36 0 0 1 -.9 2.9 13.31 13.31 0 0 0 3.31-2.91c-2-.64-4.14-1.17-6.24-1.61-.56-.12-.5-.16-.68.29a4.44 4.44 0 0 0 -.17 1 5.75 5.75 0 0 0 -.05 1.94 3.32 3.32 0 0 1 -.41-1.39 12.13 12.13 0 0 0 -.06-1.82c-.13-.43-.13-.33-.67-.43l-1-.18a11.44 11.44 0 0 0 -2.16-.35c-.46 0-.39 0-.71.43a7.44 7.44 0 0 1 -.59.67 14.19 14.19 0 0 1 -1.38 1.19 34.19 34.19 0 0 0 -2.88 2.34l1.77-2.52a32.28 32.28 0 0 0 -4.85 4.49l1.41-1.16c-.59.92-1.18 1.84-1.76 2.76a3 3 0 0 1 .85-.53 22.12 22.12 0 0 1 -2.66 3.21l1.09-.71c-.88 2-2.85 3.29-4 5.12.15-.57.31-1.14.46-1.72-.37 1.39-2.07 2.57-3.22 3.27a11.17 11.17 0 0 1 -3.22 1.37 12.14 12.14 0 0 0 4-6.61 3.54 3.54 0 0 1 .08 1.74 15.85 15.85 0 0 0 1.37-4l.34 1.36a20.42 20.42 0 0 1 3.08-7.52 7.79 7.79 0 0 0 -.45 2.12 21.09 21.09 0 0 1 2.78-4 3.88 3.88 0 0 1 -.3 1.24c1.15-1 2.25-2 3.32-3.14q-3.87-.41-7.76-.5a10.59 10.59 0 0 0 -3.47.09 6.74 6.74 0 0 1 -3.3.71 6.39 6.39 0 0 0 2-.83c-.87 0-1.74 0-2.6.06a5.36 5.36 0 0 0 -2.22.23 21.17 21.17 0 0 0 -2.18 2.07 11.15 11.15 0 0 0 1.88-.7 20 20 0 0 1 -13.14 8.77 19.18 19.18 0 0 0 5.6-3.47 20.26 20.26 0 0 0 -3.9 1.69l1.7-1.81a31.54 31.54 0 0 1 -7 3.5 59.19 59.19 0 0 1 -8 2.57 4.53 4.53 0 0 0 2.3-2.77 13.42 13.42 0 0 0 -2.36 1.49l1.21-2.15-5.28 5.16a6.6 6.6 0 0 0 1-1.72l-2.49 1.91a4.64 4.64 0 0 0 .86-1.45 57.85 57.85 0 0 1 -6 4.67c2.06-2.14 4.35-4.9 5.39-7.75a4.1 4.1 0 0 1 -.25 1.9c.73-1 1.41-2.06 2-3.14a9.54 9.54 0 0 1 -.27 2.06c1.82-2.28 3.38-4.88 5.86-6.52a8.53 8.53 0 0 0 -1.09 2.92 28.27 28.27 0 0 1 4.77-4.21 23.85 23.85 0 0 1 -1.25 2.66 27.61 27.61 0 0 0 3.68-3.14 12 12 0 0 1 -3.41 5.82c4.75-1.37 9-4.58 12.65-7.8-.76.1-1.52.2-2.27.32a5.85 5.85 0 0 0 -2.33.5 14.53 14.53 0 0 0 -1.42 1.62c-.47.62-1 1.13-1.57 1.62a16 16 0 0 0 1.78-3.18c-5.72 1.18-11.54 2.76-16.6 5.72-3.24 1.89-6.61 4.66-7.44 8.54.35-.39.7-.79 1-1.2a4.77 4.77 0 0 0 -1.17 2.46v1.61c.07 1.68.2 3.36.36 5a24.48 24.48 0 0 1 5.48-4.45 3.23 3.23 0 0 0 -1.19 1.69l5.83-5.43-1 1.69a12.41 12.41 0 0 1 2.76-1.81 4.28 4.28 0 0 0 -.94 1.25 37.55 37.55 0 0 1 9.29-3.78l-1.2.89 3.88-1.23a5.6 5.6 0 0 1 -1.42 1.23c2-.61 4.11-1.27 6.11-2.06l-.68.69 3.72-1.78-.82.86c2.49-.49 4.8-1 6.72-2.81a9.79 9.79 0 0 1 -6 3.82l1.6-.13a24.68 24.68 0 0 1 -7.31 2.33 3.33 3.33 0 0 1 1.47.18c-3.89 1.22-8.41 1.11-11.66 3.9a4.22 4.22 0 0 1 2-.38c-3.3 1.37-6.7 2.78-9.41 5.19a7.38 7.38 0 0 1 1.6-.48l-6.64 3.87a4.62 4.62 0 0 0 1.45-.2 20.67 20.67 0 0 1 -1.89 1.46 6.93 6.93 0 0 0 -.85.56c-.37.35-.25.48-.18 1 .23 1.6.48 3.19.76 4.78.57-.39 1.16-.8 1.62-1.2-.31.62-1.48 1.84-1.36 2.47 2.48-1.82 4.8-3.83 7.3-5.61-.27.61-.53 1.23-.8 1.84 2.4-1.84 4.4-4.24 6.64-6.23-.35.86-.69 1.73-1 2.6 5.35-2.48 10.21-5.42 13.39-10.53a14.86 14.86 0 0 1 -5.37 8.24c-2.83 2.19-6.4 3.31-9 5.87a3.26 3.26 0 0 1 2.57-.31 62.55 62.55 0 0 0 -9.77 5.58l4-1.71c-1.67 1.19-3.36 2.45-5.06 3.66l-1.18.81c-.53.35-.78.36-.63 1 .22 1 .46 2 .71 3a21.3 21.3 0 0 1 3.88-3.28l-1.32.46c3.28-2.83 6.55-5 10.88-6-.28.49-1.17.55-1.45 1.05a15.38 15.38 0 0 1 3.27-.83l-.55.48c1.66-.57 3.28-1.22 4.88-1.93a8.49 8.49 0 0 1 -1.11.89l2-.71c-.26.29-.63.47-.88.77a12.38 12.38 0 0 0 6.33-4.46 5.93 5.93 0 0 1 -1.8 3 16.4 16.4 0 0 1 -2.81 2.09c-1.48 1-3 1.82-4.56 2.63l1.74-.25-1.21.81a5.25 5.25 0 0 0 1.68-.17 13.76 13.76 0 0 1 -3.07 1.92h.77a14 14 0 0 1 -2 1.41l.88-.14a9.73 9.73 0 0 1 -3.66 1.91l1.08-.28a18.44 18.44 0 0 1 -6.16 3.18l.83-.5-2.75 1 1-.83a7.64 7.64 0 0 0 -2.39.6 2 2 0 0 1 .7-.46q-1.18.39-2.31.87l-.65.28c-.36 0-.43.2-.22.5a5.22 5.22 0 0 0 .36 1.25q.8 2.6 1.72 5.18a24.05 24.05 0 0 0 1.52-1.94 12.16 12.16 0 0 1 -.61 1.55 16 16 0 0 0 2.17-2.55 3 3 0 0 0 .13.79 13.74 13.74 0 0 1 3.79-3.57 3 3 0 0 0 -.49 1.28 19.37 19.37 0 0 1 3.14-2.5c-.19.29-.37.58-.56.86a18.94 18.94 0 0 1 2.17-1.64l-.45 1c.67-.49 1.36-.95 2.08-1.38a3.2 3.2 0 0 1 -.61.89 11.34 11.34 0 0 0 2.88-2.07l-.75 1.37a19.9 19.9 0 0 1 2.81-1.59 4.47 4.47 0 0 1 -.91 1.12c2.24-1 4.61-2.12 6.16-4.11-.33 2-2 3.25-3.54 4.35l.89-.18a8.91 8.91 0 0 1 -4.29 2.45 5.72 5.72 0 0 1 1.6-.07 8.08 8.08 0 0 1 -2.83.8 14 14 0 0 0 -2.75.95c-1.86.89-2.89 2.3-4.18 3.82a1.63 1.63 0 0 1 .48-1.18 14.17 14.17 0 0 0 -3.19 3.83c.14-.44.27-.89.41-1.33a8.78 8.78 0 0 1 -1.43 1.72 16.57 16.57 0 0 0 -1.79 1.37c-.33.08-.38.26-.13.53l.15.35q.29.7.6 1.41.53 1.18 1.08 2.37l.4-.33a1.31 1.31 0 0 1 0 .85 19.11 19.11 0 0 0 2.38-2.38v.61c1.63-2.19 3.5-4.63 6.33-5.24-2.87 1.38-3.8 4.78-5.89 7l1.42-1a5.57 5.57 0 0 1 -1.92 2.07 10.77 10.77 0 0 0 -1.18.75c-.2.22-.27 0-.17.34s.26.23.49.25c-.45.31 0 .74.28 1.16s.49.87.75 1.29c.49.84 1 1.66 1.55 2.47a44.57 44.57 0 0 0 3.87-4c-.23.64-.47 1.28-.71 1.93a15.15 15.15 0 0 0 3-4.59 26.24 26.24 0 0 1 -2.91 7.08l1.48-1.42a16.34 16.34 0 0 1 -2.08 3.06c-.16.19-.49.43-.56.65s.13.44.34.71c.41.52.84 1 1.27 1.54.8.93 1.64 1.84 2.52 2.7.4.4.82.79 1.24 1.17s.33.47.78.2a5.1 5.1 0 0 0 .78-.76c0 .27-.53 1.64-.25 1.69s1.34-1.06 1.6-1.29a18 18 0 0 0 2.72-3.07 16.11 16.11 0 0 1 -1.94 4.51l2.79-2.53a24 24 0 0 1 -1.37 3.37c-.2.39-.73 1.07-.56 1.37.36.61 1.3-.51 1.6-.76l-.8 1.18c.46.28.49.11.88-.23l1-.9-.56 1c-.26.47-.45.51-.11.83.58.54 1.13-.18 1.58-.58a5.49 5.49 0 0 0 -.38.86c-.08.46.06.37.55.6a9.21 9.21 0 0 0 2.08.88c.49.08.44 0 .83-.4s.5-.52.75-.77q.78-.75 1.62-1.41a15.2 15.2 0 0 0 -1.83 3.12c.06 0 .92-1.12 1.07-1.27a9.69 9.69 0 0 1 1.52-1.26c-.14.52-.29 1-.44 1.56a18.14 18.14 0 0 1 7.86-5.77 17.65 17.65 0 0 0 -3.87 3.74 10.12 10.12 0 0 1 1.89-1c-1.42 1.42-3.24 2.65-4.06 4.55a7.79 7.79 0 0 1 3.34-2.16 14.93 14.93 0 0 0 -3.09 2.68 32.59 32.59 0 0 0 5 .5h1.19a4.82 4.82 0 0 0 1.57-.06c.58-.3 1.14-1.53 1.45-2.08l-.75.58c.89-1.86 1.72-3.9 3.34-5.25a6.1 6.1 0 0 0 -1.94.7 9.54 9.54 0 0 1 1.76-2l-1.3.17a19.07 19.07 0 0 1 6.63-4.21 6.25 6.25 0 0 0 -1.36.31c2.08-1.91 4.71-2.51 7.43-2.87a12.7 12.7 0 0 0 -4.93 2.38 3.24 3.24 0 0 1 2.06-.13 10 10 0 0 0 -5.07 3.86 4 4 0 0 1 1.82-.56 11.06 11.06 0 0 0 -3.33 2.73 6.27 6.27 0 0 1 2-.51 13.06 13.06 0 0 0 -4.74 4.88 7 7 0 0 1 1.37-1 17.05 17.05 0 0 1 -2.12 2.82 31.77 31.77 0 0 0 8.3-2.18 6.59 6.59 0 0 0 1.86-.92c.51-.46.92-1.06 1.42-1.54a23.83 23.83 0 0 1 3.42-2.69c-.28.27-.4.68-.67 1a42.3 42.3 0 0 0 4.89-3.3 1.86 1.86 0 0 0 -.39.57c6-5.7 10.08-13.11 13.08-20.72a22.62 22.62 0 0 0 -1.82 2.43 4.13 4.13 0 0 1 1.19-.98 27.44 27.44 0 0 0 -3.65 4.53c.37-.29.8-.46 1.17-.75a26.23 26.23 0 0 0 -3.53 4.73l1.53-1.82a20.7 20.7 0 0 1 -6.31 7.7c.45-.36.59-1 .93-1.39a30.45 30.45 0 0 1 -12.73 8.15 26 26 0 0 0 6.07-4.23c-.31.07-.64.11-1 .18a21.79 21.79 0 0 0 7-7.22 4.13 4.13 0 0 1 -.15 1.31 24.5 24.5 0 0 0 1.88-3c-.06.57-.11 1.15-.17 1.72q1.73-2.91 3.42-5.91l-.15 1.43c.78-1.94 1.61-3.86 2.51-5.75l-.24 1.74a16 16 0 0 1 4.16-5.8 10.12 10.12 0 0 0 1.35-1.17 7.48 7.48 0 0 0 .65-2c.44-1.36.85-2.72 1.23-4.1-4.61 2.7-9.12 6.42-10.56 11.79-.09-.31-.12-.62-.19-.94-2.6 5.26-5.53 10.52-10.7 13.65a8.93 8.93 0 0 0 2.86-3.86l-1.56 1.22a17.51 17.51 0 0 0 4.17-8.12c-.28.49-.57 1-.86 1.46a24.3 24.3 0 0 1 3.36-8.55 9.26 9.26 0 0 0 -2.28 1.92 17.42 17.42 0 0 1 3.62-5.21l-1.87.92a16.85 16.85 0 0 1 3.25-3.71 18.56 18.56 0 0 0 -8.81 8.49 10.25 10.25 0 0 1 1.14-2.88 41.23 41.23 0 0 1 -5.1 5q1.23-1.95 2.26-4a46.83 46.83 0 0 1 -9.61 10.31 36.86 36.86 0 0 0 6.33-12.43 3 3 0 0 1 -.1 1.82l2.35-4.83c-.09.86-.17 1.72-.26 2.59 2.47-6.52 6.8-12.9 13.63-15.33a6.88 6.88 0 0 0 -3 3.37c2.17-1.4 4.53-2.85 7.17-3.03a27.84 27.84 0 0 0 -12.16 11.39l1.57-1-1.26 2.33a74.67 74.67 0 0 1 9.93-8.35 44.26 44.26 0 0 1 6.59-3.93c.53-.25 1.08-.48 1.63-.7a3.6 3.6 0 0 0 .74-.26c.37-.25.34-.57.42-1 .29-1.63.55-3.26.78-4.9a23.44 23.44 0 0 1 -3.79.89 9.35 9.35 0 0 1 -3.65.06 19.56 19.56 0 0 0 6.75-4.12 3.59 3.59 0 0 0 1.29-1.64 16.07 16.07 0 0 0 .22-2.2c.11-1.27.21-2.55.29-3.83a48.61 48.61 0 0 1 -4.08 4c.18-.37.36-.74.55-1.11l-3.82 2.37c.28-.44.57-.87.86-1.3l-3.6 3 .92-1.18c-2.66 1.42-5.42 2.9-7.33 5.3a3.57 3.57 0 0 1 .62-1.82 9.22 9.22 0 0 0 -2.64 2.64l.37-2a25.53 25.53 0 0 1 -5.06 6.83 21.62 21.62 0 0 0 1.63-2.89 16.75 16.75 0 0 0 -3.46 3.67 5 5 0 0 1 .85-2.25 17 17 0 0 0 -4.76 6.15 14.66 14.66 0 0 1 0-2.65 8.83 8.83 0 0 0 -1.47 2.86 9.38 9.38 0 0 1 -.18-1.67 7.14 7.14 0 0 0 .14 5.88 6.59 6.59 0 0 1 -.73-8.08c0 .51 0 1-.07 1.53l1.76-2.71c-.08.47-.16.94-.23 1.4l1.45-2.19-.19 1.73q3.1-4.07 6.46-7.93a21.59 21.59 0 0 1 -1.17 2.87 16.07 16.07 0 0 1 1.37-1.9 4 4 0 0 0 -.14 1.38 61.81 61.81 0 0 1 4.3-6l-.42 1.83a8.14 8.14 0 0 1 2.33-2c-.24.53-.48 1.05-.73 1.57a8.37 8.37 0 0 1 2.8-2.25c-.14.29-.29.57-.44.86l2.64-1.45-1 1.11a35.83 35.83 0 0 0 3.57-2.52 1.11 1.11 0 0 0 -.26.52 28.49 28.49 0 0 0 4.34-3.55 12.91 12.91 0 0 0 -1.3 2.21q2.46-1.89 4.75-4l-1.19 2.13a19.85 19.85 0 0 0 2.63-1.81zm-55.26-3.16a13.75 13.75 0 0 0 -.67 1.64 8.85 8.85 0 0 1 3.4-2.65 3 3 0 0 0 -.69 1.2 13.37 13.37 0 0 0 6.31-5.19c-.63 3.44-4.1 6.63-7.42 7.45a2.07 2.07 0 0 0 .65-1.1 11.67 11.67 0 0 0 -2.94 3.35 6.32 6.32 0 0 1 .44-2.12 7.87 7.87 0 0 0 -2.66 2.63 11.73 11.73 0 0 1 3.58-5.21zm-7 15.76c.36-.57.75-1.12 1.08-1.71.21-.36.34-1.06.64-1.34l-1.56 1.48a7.76 7.76 0 0 0 .68-1.69 7.76 7.76 0 0 1 -.95.86c.34-.56.61-1.16.9-1.75a17.17 17.17 0 0 1 -6.14 3.71 48.51 48.51 0 0 0 3.82-3.19 11.83 11.83 0 0 0 1.47-1.76c.26-.36 1.05-1.26 1-1.75a3.71 3.71 0 0 1 -.5 2.22c1-1.31 2.17-2.56 3.23-3.87-.14.87-.37 1.73-.51 2.6a22.12 22.12 0 0 1 6-5.44 8.55 8.55 0 0 0 -2.21 2.71c1.06-1.17 2.77-1.5 4.26-1.74-2.93 1-5.21 4.64-6.34 7.33a12 12 0 0 1 1.17-4.39c-2.2 2.48-3.45 5.57-6.07 7.72zm20.54 8a12.32 12.32 0 0 0 .94-1.89 2.4 2.4 0 0 1 -.17 1.54c.62-.94 1.3-1.86 1.92-2.8 0 .59-.14 1.18-.17 1.78a14.87 14.87 0 0 1 3.66-4 5.81 5.81 0 0 0 -1.29 2 4.82 4.82 0 0 1 2.75-1.44c-1.9.88-3.21 3.45-3.79 5.33a8.11 8.11 0 0 1 .5-3 13.56 13.56 0 0 0 -2.61 4.56 5.06 5.06 0 0 1 0-2.59 17.73 17.73 0 0 1 -3.17 3.13c.45-.86.96-1.7 1.4-2.54zm-25.7 21.08a8.07 8.07 0 0 1 -2.25.27 11.71 11.71 0 0 0 5.16-5.32 3.43 3.43 0 0 1 -.3 1.64 15.12 15.12 0 0 0 2.14-3.44v1.34a19.81 19.81 0 0 1 4.57-6.34 7.75 7.75 0 0 0 -.84 1.85 20.63 20.63 0 0 1 3.52-3.17 3.42 3.42 0 0 1 -.54 1.1q2.27-1.22 4.42-2.61a2.89 2.89 0 0 1 -.37 1.14 17.76 17.76 0 0 0 7.81-4.87c-.6 2.4-2.58 4.12-4.39 5.66a6.09 6.09 0 0 0 1.48-.53c-1.55 2.09-4.33 2.59-6.44 3.89l2.19-2a31 31 0 0 0 -5.5 3.16l1.52-.77-2.24 2.2a2.67 2.67 0 0 1 .91-.32 20.68 20.68 0 0 1 -3.18 2.42l1.17-.42c-1.26 1.71-3.36 2.46-4.86 3.92l.81-1.5c-.79 1.57-3.24 2.22-4.79 2.7zm36 6.5a55.09 55.09 0 0 0 5.59-6.6c-.86 3.67-3.88 6.84-6.55 9.33-3.17 3-6.94 4.94-10.65 7.12l1.73-2.19a44.63 44.63 0 0 0 -4.43 2.47l1.33-2-4.02 2.53 1.54-1.9a22.79 22.79 0 0 1 -9.51 3 32.54 32.54 0 0 0 11.58-8l-1.85.35a28.56 28.56 0 0 0 6-4.75l-2.47 1a38.8 38.8 0 0 0 2.87-3.27c-.53.26-1 .59-1.54.84a38.35 38.35 0 0 0 6-9.64 23.68 23.68 0 0 1 -2.27 7.07 8.07 8.07 0 0 0 1.38-1 13.19 13.19 0 0 1 -2.2 3.79 6.67 6.67 0 0 0 1.85-1.28 11.89 11.89 0 0 1 -1.88 4c.37-.2.69-.47 1.06-.67a9.45 9.45 0 0 1 -3.08 3.75 10.37 10.37 0 0 0 4.2-1.64 28.35 28.35 0 0 1 -3.68 3.4 25.94 25.94 0 0 0 9-5.71zm-7.1-16.92a10.32 10.32 0 0 1 2.34-1.19 41.9 41.9 0 0 0 -4.77 6.38l2-1.43a16.18 16.18 0 0 1 -8.41 5.85l1.49-1.76a8.52 8.52 0 0 0 -4.94 3.89 4.3 4.3 0 0 1 1.39-.85 12 12 0 0 1 -3.83 3.9l1.16-.43a11.07 11.07 0 0 1 -2.63 4.18c3-1 5.25-3.43 7.36-5.63l-2.86 3.9 2.31-1.39a20.89 20.89 0 0 1 -11.51 8.39 18 18 0 0 0 5.75-3.89 9 9 0 0 1 -4.75 1.87c1.75-1.24 2.57-3.59 3.31-5.51-2.27 1.62-4.45 3.34-6.71 5l1.8-3.32a17.49 17.49 0 0 0 -4.19 4.22c.19-.66.37-1.32.55-2-1.34 1.46-3.23 3.47-5.32 3.86a22.78 22.78 0 0 0 3.7-6.62l-.14 1.73c.65-1 1.25-2 2-3l-.06 1.35c.87-1.67 2.28-3.15 2.9-5 .4.61.05 1.51-.14 2.13a12.21 12.21 0 0 1 3.6-4.44l-.72 1.85a36.2 36.2 0 0 0 3.67-4.33 4.79 4.79 0 0 1 -1.25 3.13 18.28 18.28 0 0 0 3.91-5l-.12 1.95a10.32 10.32 0 0 1 4.66-5c-.46.67-.92 1.35-1.39 2a32 32 0 0 0 4.6-3.37 7.68 7.68 0 0 1 -1.36 2.06 23.79 23.79 0 0 0 4-3.67c-.23.62-.46 1.24-.68 1.86 2.24-2.42 4.59-4.94 7.68-6.27a14.85 14.85 0 0 0 -4.4 4.6z"/><path d="m59.35 1.06-.15.2a3.65 3.65 0 0 0 .34-.18z"/><path d="m84.35 39.93a6.38 6.38 0 0 0 1.27-.59.41.41 0 0 0 .4-.52c0-.24.09-.48.14-.72-.55.49-1.51 1.13-1.81 1.83z"/><path d="m84.13 47v-.13c-.29.1-.58.21-.87.29.32-.01.59-.08.87-.16z"/><path d="m68 8.55c-.36.32-.81.53-1.17.85a3.27 3.27 0 0 1 .74-2 30.59 30.59 0 0 0 -4.12 3.24c.14-.39.27-.78.4-1.17a14.74 14.74 0 0 1 -3.31 2.19c.18-.45.37-.9.55-1.34a11.66 11.66 0 0 0 -3.93 5.54 22.73 22.73 0 0 1 4.17-3.13 2.62 2.62 0 0 0 -.44 1.13 18.69 18.69 0 0 0 2.29-2 2.92 2.92 0 0 1 -.52 1.26 11.09 11.09 0 0 0 3.08-2.91c-.18.48-.35 1-.52 1.45a7.61 7.61 0 0 0 2.78-3.11z"/><path d="m35.28.41c-.1.15-.2.29-.31.43l.77-.46z"/><path d="m30.78.84a6.39 6.39 0 0 1 -.43 1.51c1-.65 2.09-1.21 3.16-1.79z"/><path d="m16.54 73.45.12-.3q-.31.14-.12.3z"/><path d="m3.92 44.48.08.52c.41-.3.82-.61 1.21-.94z"/><path d="m36.09 87.53a4.33 4.33 0 0 0 .89.23c.14-.06.33-.65.4-.78a8.42 8.42 0 0 1 1.07-1.53 17.31 17.31 0 0 0 -2.36 2.08z"/><path d="m6 45.77a15.46 15.46 0 0 1 3.5-1.22 15.66 15.66 0 0 0 2.37-.55c-.4 0-.81 0-1.22 0 1.06-.24 2.08-.6 3.12-.91h-1.2a15.73 15.73 0 0 0 4.74-2 5.37 5.37 0 0 1 -1.37.33 24.24 24.24 0 0 0 2.61-1.75 6.4 6.4 0 0 1 -1.74.5 6.48 6.48 0 0 1 1.55-1l-1.63.49c1.6-1 3.25-1.89 4.93-2.72a54.54 54.54 0 0 0 -6.46 2.06 3.57 3.57 0 0 0 .78-.72 18 18 0 0 0 -2.49.9 3.07 3.07 0 0 1 1.19-1.07 20.55 20.55 0 0 0 -5.68 3.81l.91-.42a18.71 18.71 0 0 0 -2.17 2 5.23 5.23 0 0 1 2.26-.64c-.57 0-1.46.89-1.9 1.21a7.46 7.46 0 0 0 -2.1 1.7z"/></g><g fill="#fff" opacity=".45"><path d="m79.8 32.48a7.59 7.59 0 0 0 2.73 0 19.12 19.12 0 0 0 3-.51 6.36 6.36 0 0 0 1.36-.37c.37-.19.27-.1.39-.5a4.07 4.07 0 0 0 .11-.78c.14-1.08.28-2.17.4-3.26a19.46 19.46 0 0 1 -7.99 5.42z"/><path d="m68.41 48.38-1.57 1a27.84 27.84 0 0 1 12.16-11.38c-2.64.16-5 1.61-7.1 3.06a6.88 6.88 0 0 1 3-3.37c-6.9 2.45-11.19 8.83-13.66 15.31.09-.87.17-1.73.26-2.59l-2.35 4.83a3 3 0 0 0 .1-1.82 36.86 36.86 0 0 1 -6.33 12.43 46.83 46.83 0 0 0 9.61-10.31q-1 2.06-2.26 4a41.23 41.23 0 0 0 5.1-5 10.25 10.25 0 0 0 -1.14 2.88 18.56 18.56 0 0 1 8.77-8.5 16.85 16.85 0 0 0 -3.29 3.71l1.87-.92a17.42 17.42 0 0 0 -3.58 5.21 9.26 9.26 0 0 1 2.28-1.85 24.3 24.3 0 0 0 -3.36 8.55c.29-.49.58-1 .86-1.46a17.51 17.51 0 0 1 -4.17 8.12l1.56-1.22a8.93 8.93 0 0 1 -2.86 3.86c5.17-3.13 8.1-8.39 10.7-13.65.07.32.1.63.19.94a16.19 16.19 0 0 1 4.28-7.1 24.21 24.21 0 0 1 3.38-2.84c.64-.45 1.29-.88 2-1.29a3.44 3.44 0 0 0 .94-.56 4.74 4.74 0 0 0 .33-1.42c-.28 0-.55.12-.83.16.18 0 .73-.13.87-.29a4.57 4.57 0 0 0 .29-1.13c.19-.75.37-1.49.55-2.24.33-1.44.65-2.89.93-4.35-.52.26-1.06.51-1.59.75a3.58 3.58 0 0 1 .86-1c.6-.57.93-.76 1.08-1.59a39.25 39.25 0 0 0 -11.14 6.39 76.52 76.52 0 0 0 -8 6.94z"/><path d="m87 19q-2.3 2.07-4.75 4a12.91 12.91 0 0 1 1.3-2.13 28.49 28.49 0 0 1 -4.34 3.55 1.11 1.11 0 0 1 .26-.52 35.83 35.83 0 0 1 -3.57 2.52l1-1.11-2.64 1.45c.15-.29.3-.57.44-.86a8.37 8.37 0 0 0 -2.8 2.25c.25-.52.49-1 .73-1.57a8.14 8.14 0 0 0 -2.33 2l.42-1.83a61.81 61.81 0 0 0 -4.3 6 4 4 0 0 1 .14-1.38 16.07 16.07 0 0 0 -1.37 1.9 21.59 21.59 0 0 0 1.17-2.87q-3.36 3.8-6.48 7.86l.19-1.73-1.45 2.19c.07-.46.15-.93.23-1.4l-1.76 2.68c0-.51 0-1 .07-1.53a6.59 6.59 0 0 0 .73 8.08 7.14 7.14 0 0 1 -.14-5.88 9.38 9.38 0 0 0 .18 1.67 8.83 8.83 0 0 1 1.47-2.86 14.66 14.66 0 0 0 0 2.65 17 17 0 0 1 4.76-6.13 5 5 0 0 0 -.85 2.21 16.75 16.75 0 0 1 3.46-3.67 21.62 21.62 0 0 1 -1.63 2.89 25.53 25.53 0 0 0 5.06-6.83l-.37 2a9.22 9.22 0 0 1 2.64-2.6 3.57 3.57 0 0 0 -.64 1.83c1.91-2.4 4.67-3.88 7.33-5.3l-.92 1.18 3.6-3c-.29.43-.58.86-.86 1.3l3.84-2.42c-.19.37-.37.74-.55 1.11.9-.79 1.77-1.61 2.61-2.47.37-.38.74-.78 1.11-1.17s.4-1.06.43-1.77a19.85 19.85 0 0 1 -2.63 1.82z"/><path d="m76.37 61.46.24-1.74c-.9 1.89-1.73 3.81-2.51 5.75l.15-1.47q-1.69 3-3.37 5.86c.06-.57.11-1.15.17-1.72a24.5 24.5 0 0 1 -1.88 3 4.13 4.13 0 0 0 .15-1.31 21.79 21.79 0 0 1 -7 7.22c.32-.07.65-.11 1-.18a26 26 0 0 1 -6.07 4.23 30.45 30.45 0 0 0 12.75-8.1c-.34.43-.48 1-.93 1.39a20.7 20.7 0 0 0 6.29-7.74l-1.53 1.82a26.23 26.23 0 0 1 3.53-4.73c-.37.29-.8.46-1.17.75a27.44 27.44 0 0 1 3.6-4.49 4 4 0 0 0 -1.19.92 19.2 19.2 0 0 0 2.17-3.33c-.45.27-.9.56-1.33.87.7-1.41 1.94-2.45 2.44-3.93a17.38 17.38 0 0 0 -5.51 6.93z"/><path d="m63.51 81a20.63 20.63 0 0 0 -4.9 4.37 33.93 33.93 0 0 0 4.94-3c.76-.55 1.49-1.13 2.2-1.74.4-.34.8-.7 1.19-1.06s.49-.7.79-.94a42.3 42.3 0 0 1 -4.89 3.3c.27-.3.39-.71.67-.93z"/><path d="m69.76 17.32a6.78 6.78 0 0 1 2.41-.32c-1.07.3-2.13.64-3.17 1-1.39.5-3.18 1-4.24 2.12a3 3 0 0 1 1.12 0 30.26 30.26 0 0 0 -4.34 2.7 20.76 20.76 0 0 0 -3.61 4.18 26 26 0 0 1 2.55-1.73 19.52 19.52 0 0 1 -3.08 5.65 29.78 29.78 0 0 0 -2.4 2.91 23.74 23.74 0 0 0 5.11-4.43 21.54 21.54 0 0 0 3.37-4.4c-.26.82-.57 1.61-.78 2.45a18.2 18.2 0 0 1 7-6.24l-1.37 2c2.15-1.39 4.31-2.74 6.5-4.06a6.21 6.21 0 0 1 -1.6 2.29l5.06-3.21a4.24 4.24 0 0 1 -1.45 2.06 75.74 75.74 0 0 0 7.73-5.85 8.35 8.35 0 0 0 -1.13 2.53 9.81 9.81 0 0 1 3.29-2.6l-.64 1.51c.38-.3.76-.59 1.15-.86s.51-.28.53-.55-.2-.43-.26-.56a11.75 11.75 0 0 0 -1.51-2.32c-.31-.35-.64-.69-1-1s-.55-.5-1.14-.23a20.39 20.39 0 0 0 -2.74 1.53l2.37-.28c-4.33 2.47-9.57 2.89-13.73 5.71z"/><path d="m56 11.67 1.56-.87a14.17 14.17 0 0 0 -2.73 4.2l1.22-1.11c-1.2 2.9-2.31 6-4.48 8.29 2.55-1 3.24-4.5 6-5.29a4.9 4.9 0 0 1 -1.21 1.43 15.06 15.06 0 0 0 5.16-2.61l-.25.67a12.67 12.67 0 0 0 2.73-2.47v.78l2.29-2a3 3 0 0 0 -.29 1.31c0-.47.82-1.23 1.1-1.58.49-.63 1-1.25 1.52-1.87a21.19 21.19 0 0 0 2.78-4.15 12.68 12.68 0 0 0 .68-1.71c.13-.43.41-1.12-.24-.69a20.12 20.12 0 0 0 -1.48 1.45c-.53.44-1.08.86-1.65 1.25a13.36 13.36 0 0 0 .9-2.9c-1.32 1.32-3 2.24-4.31 3.56l1.18-2.12-5.22 3.56.92-1.31a19.22 19.22 0 0 0 -6.18 4.18zm7.8-2.16c-.13.39-.26.78-.4 1.17a30.59 30.59 0 0 1 4.12-3.24 3.27 3.27 0 0 0 -.74 2c.36-.32.81-.53 1.17-.85a7.61 7.61 0 0 1 -2.78 3.17c.17-.48.34-1 .52-1.45a11.09 11.09 0 0 1 -3.08 2.91 2.92 2.92 0 0 0 .52-1.26 18.69 18.69 0 0 1 -2.29 2 2.62 2.62 0 0 1 .44-1.13 22.73 22.73 0 0 0 -4.17 3.13 11.66 11.66 0 0 1 3.93-5.54c-.18.44-.37.89-.55 1.34a14.74 14.74 0 0 0 3.34-2.25z"/><path d="m54.31 35.08a4.82 4.82 0 0 0 -2.75 1.44 6 6 0 0 1 1.29-2 14.87 14.87 0 0 0 -3.66 4c0-.6.13-1.19.17-1.78-.62.94-1.3 1.86-1.92 2.8a2.41 2.41 0 0 0 .17-1.54 23.84 23.84 0 0 1 -2.38 4.45 17.73 17.73 0 0 0 3.17-3.05 5.06 5.06 0 0 0 0 2.59 13.56 13.56 0 0 1 2.6-4.63 8.11 8.11 0 0 0 -.5 3c.6-1.83 1.91-4.36 3.81-5.28z"/><path d="m54.29 71.8a35.17 35.17 0 0 0 4.8-4.73 15.47 15.47 0 0 0 3.54-6.17c-3.91 5.2-8.34 10.1-14.63 12.31a28.35 28.35 0 0 0 3.67-3.43 10.37 10.37 0 0 1 -4.2 1.64 9.45 9.45 0 0 0 3.08-3.75c-.37.2-.69.47-1.06.67a11.89 11.89 0 0 0 1.88-4 6.67 6.67 0 0 1 -1.85 1.28 13.19 13.19 0 0 0 2.2-3.79 8.07 8.07 0 0 1 -1.38 1 23.68 23.68 0 0 0 2.27-7.07 38.35 38.35 0 0 1 -6 9.64c.53-.25 1-.58 1.54-.84a38.8 38.8 0 0 1 -2.87 3.27l2.47-1a28.56 28.56 0 0 1 -6 4.75l1.85-.35a32.54 32.54 0 0 1 -11.58 8 22.79 22.79 0 0 0 9.51-3l-1.53 1.93 4.07-2.55-1.33 2a44.63 44.63 0 0 1 4.43-2.47l-1.73 2.19a71.11 71.11 0 0 0 8.85-5.53z"/><path d="m44.27 42.59a17.76 17.76 0 0 1 -7.81 4.87 2.89 2.89 0 0 0 .37-1.14q-2.16 1.4-4.42 2.61a3.42 3.42 0 0 0 .54-1.1 20.63 20.63 0 0 0 -3.47 3.17 7.75 7.75 0 0 1 .88-1.89 19.81 19.81 0 0 0 -4.57 6.34c0-.45 0-.9 0-1.34a15.12 15.12 0 0 1 -2.14 3.44 3.43 3.43 0 0 0 .3-1.64 11.71 11.71 0 0 1 -5.16 5.32 10.84 10.84 0 0 0 3.43-.63c1.17-.39 3-1.16 3.59-2.31l-.81 1.53c1.5-1.46 3.6-2.21 4.86-3.92l-1.17.42a20.68 20.68 0 0 0 3.18-2.42 2.67 2.67 0 0 0 -.91.32l2.22-2.22-1.57.78a31 31 0 0 1 5.5-3.16l-2.19 2c2.11-1.3 4.89-1.8 6.44-3.89a6.09 6.09 0 0 1 -1.48.53c1.81-1.55 3.79-3.26 4.39-5.67z"/><path d="m49.15 22.27a10.56 10.56 0 0 0 -4.37 2.16c.17-.62.35-1.25.52-1.88l-5 5a6.74 6.74 0 0 0 .7-1.61 25.6 25.6 0 0 0 -3.16 3.34l.4-1.79a19.66 19.66 0 0 0 -5.83 10 20.06 20.06 0 0 1 4.48-6.39 20.23 20.23 0 0 0 -.57 2.42c.76-1.52 1.68-3.61 3.21-4.52a11.74 11.74 0 0 0 -.82 2.92 15.73 15.73 0 0 1 4.82-5.34 4.38 4.38 0 0 0 -.5 2.06 8.08 8.08 0 0 1 3.3-3 27.12 27.12 0 0 1 -6.39 11.11 11.53 11.53 0 0 0 1.43-.86 10 10 0 0 1 -4.62 4.11 16.19 16.19 0 0 1 1.17-2 12.24 12.24 0 0 1 -4 2.24l1.53-2.51a24.6 24.6 0 0 1 -7.83 3l4.41-.31-1.09 1.58a8.27 8.27 0 0 1 2.49-.76 4.11 4.11 0 0 1 -.94 1.86 14.27 14.27 0 0 1 4.57-1.76 3.58 3.58 0 0 1 -1.43 1.89c2.62-1.39 5.24-2.83 7.11-5.19-.28.44-.35 1.06-.76 1.42 2.11-1.39 4.24-3.06 5.27-5.44a4.56 4.56 0 0 1 -1.66 1.26c1.89-1.79 2.69-4.5 4.2-6.58l-1.37 1.18c.92-1.85 1.76-3.75 2.52-5.68l-2 1.4c.17-.12.3-.61.4-.79a8.34 8.34 0 0 1 .66-1 5.71 5.71 0 0 1 1.58-1.7 12.65 12.65 0 0 0 -3.4 1.9z"/><path d="m43.05.58c.36-.15.72-.32 1.08-.5a4.73 4.73 0 0 0 -2 .24 8.43 8.43 0 0 1 -1.61.6 4.93 4.93 0 0 0 2.53-.34z"/><path d="m65.18 2-.77-.15a6.08 6.08 0 0 0 .44 3.53 7 7 0 0 1 .33-3.38z"/><path d="m80 7a6.65 6.65 0 0 0 -.27.61c.15-.17.31-.33.48-.49z"/><path d="m68.22 15.55c1.39-1.42 2.78-2.83 4.14-4.28a21.47 21.47 0 0 1 4.39-3.27 2.39 2.39 0 0 0 -.63 1.56 15 15 0 0 1 3.21-2.86c-.92-.47-1.86-.91-2.81-1.3-.31-.13-.38-.23-.62-.07s-.28.44-.38.59c-.28.42-.57.84-.89 1.25l.42-1.32a28.17 28.17 0 0 0 -6.83 9.7z"/><path d="m42 18.31c-.37.4-.79.75-1.2 1.12a11.17 11.17 0 0 0 3.2-1.37c1.15-.7 2.85-1.88 3.22-3.27-.15.58-.31 1.15-.46 1.72 1.17-1.83 3.14-3.09 4-5.12l-1.09.71a22.12 22.12 0 0 0 2.66-3.21 3 3 0 0 0 -.85.53c.58-.92 1.17-1.84 1.76-2.76l-1.37 1.16a32.28 32.28 0 0 1 4.85-4.49l-1.72 2.52c1.65-1.64 3.91-2.69 5.2-4.68a1.34 1.34 0 0 0 -.95.09c.22-.36-.25-.26-.61-.26l-1.09-.17a3.89 3.89 0 0 0 -1.11-.12 4.49 4.49 0 0 0 -.9.56 2.41 2.41 0 0 0 .12-.65c-.61-.06-.67.06-1.11.49l-.81.8c-.65.61-1.3 1.21-2 1.8a3.88 3.88 0 0 0 .3-1.24 21.09 21.09 0 0 0 -2.78 4 7.79 7.79 0 0 1 .45-2.12 20.42 20.42 0 0 0 -3.15 7.51l-.34-1.36a15.85 15.85 0 0 1 -1.37 4 3.54 3.54 0 0 0 -.08-1.74 11.85 11.85 0 0 1 -2.77 5.55z"/><path d="m55.35 79.36a4 4 0 0 0 -1.82.56 10 10 0 0 1 5.07-3.86 3.24 3.24 0 0 0 -2.06.13 12.7 12.7 0 0 1 4.93-2.38c-2.72.36-5.35 1-7.43 2.87a6.25 6.25 0 0 1 1.36-.31 19.07 19.07 0 0 0 -6.63 4.21l1.3-.17a9.54 9.54 0 0 0 -1.76 2 6.1 6.1 0 0 1 1.94-.7c-1.62 1.39-2.45 3.43-3.34 5.29l.75-.58a13.58 13.58 0 0 1 -1.45 2.08c.52 0 1-.07 1.57-.12a1.41 1.41 0 0 0 1.22-.62 16.23 16.23 0 0 0 1.65-2.29 7 7 0 0 0 -1.37 1 13.06 13.06 0 0 1 4.72-4.84 6.27 6.27 0 0 0 -2 .51 11.06 11.06 0 0 1 3.35-2.78z"/><path d="m2.55 27.2 6.69-3.92a7.38 7.38 0 0 0 -1.6.48c2.71-2.41 6.11-3.82 9.41-5.19a4.22 4.22 0 0 0 -2.05.43c3.24-2.74 7.76-2.63 11.62-3.85a3.33 3.33 0 0 0 -1.47-.18 24.68 24.68 0 0 0 7.31-2.33l-1.6.13a9.79 9.79 0 0 0 6-3.82c-1.92 1.83-4.23 2.32-6.72 2.81l.82-.86-3.71 1.78.68-.69c-2 .79-4.06 1.45-6.11 2.06a5.6 5.6 0 0 0 1.47-1.23l-3.85 1.18 1.2-.89a37.55 37.55 0 0 0 -9.29 3.78 4.28 4.28 0 0 1 .94-1.25 12.41 12.41 0 0 0 -2.76 1.81l1-1.69-5.88 5.43a3.23 3.23 0 0 1 1.19-1.69 23.62 23.62 0 0 0 -4.75 3.76c-.35.35-.63.56-.66 1a8.24 8.24 0 0 0 .15 1.47c.12 1.18.27 2.27.42 3.45a21.89 21.89 0 0 0 3-2.18 4.62 4.62 0 0 1 -1.45.2z"/><path d="m1.87 34.79.18 1a13.37 13.37 0 0 0 1.41-2.19c-.46.4-1.05.81-1.59 1.19z"/><path d="m10.09 35.81-4 1.71a62.55 62.55 0 0 1 9.77-5.58 3.26 3.26 0 0 0 -2.57.31c2.56-2.56 6.13-3.68 9-5.87a14.86 14.86 0 0 0 5.37-8.24c-3.18 5.11-8 8.05-13.39 10.53.35-.87.69-1.74 1-2.6-2.27 1.99-4.27 4.39-6.67 6.23.27-.61.53-1.23.8-1.84-1.9 1.35-3.7 2.84-5.54 4.27-.43.34-.87.68-1.32 1s-.38.2-.38.68a5.57 5.57 0 0 0 .14.71c.23 1.21.48 2.43.75 3.64 2.42-1.53 4.71-3.28 7.04-4.95z"/><path d="m11.66 57a14.17 14.17 0 0 1 3.19-3.78 1.63 1.63 0 0 0 -.48 1.18c1.28-1.52 2.32-2.93 4.18-3.82a13.05 13.05 0 0 1 2.59-.91 8.71 8.71 0 0 0 3-.84 5.73 5.73 0 0 0 -1.6.07 8.91 8.91 0 0 0 4.29-2.45l-.89.18c1.51-1.1 3.21-2.39 3.54-4.35-1.55 2-3.92 3.09-6.16 4.11a4.47 4.47 0 0 0 .91-1.12 19.9 19.9 0 0 0 -2.81 1.59l.75-1.37a11.34 11.34 0 0 1 -2.88 2.07 3.2 3.2 0 0 0 .61-.89c-.72.43-1.41.89-2.08 1.38l.45-1a18.94 18.94 0 0 0 -2.27 1.58c.19-.28.37-.57.56-.86a19.37 19.37 0 0 0 -3.14 2.5 3 3 0 0 1 .58-1.27 13.74 13.74 0 0 0 -3.75 3.58 3 3 0 0 1 -.13-.79 16 16 0 0 1 -2.22 2.54 12.16 12.16 0 0 0 .61-1.55c-.3.44-.63.86-1 1.27-.54.66-.57.66-.28 1.48.41 1.13.85 2.25 1.3 3.36a10.6 10.6 0 0 0 3.5-3.26c-.1.44-.23.89-.37 1.37z"/><path d="m.17 16.08-.07.37c.37-.52.75-1 1.1-1.57-.33.41-.68.81-1.03 1.2z"/><path d="m7.42 47.09a7.64 7.64 0 0 1 2.39-.6l-1 .83 2.75-1-.83.5a18.44 18.44 0 0 0 6.16-3.18l-1.08.28a9.73 9.73 0 0 0 3.63-1.92l-.88.14a14 14 0 0 0 2-1.41h-.76a13.76 13.76 0 0 0 3.07-1.92 5.25 5.25 0 0 1 -1.68.17l1.18-.78-1.74.25c1.55-.81 3.08-1.68 4.56-2.63a16.91 16.91 0 0 0 2.75-2 6.2 6.2 0 0 0 1.86-3 12.38 12.38 0 0 1 -6.33 4.46c.25-.3.62-.48.88-.77l-2 .71a8.49 8.49 0 0 0 1.11-.89c-1.6.71-3.22 1.36-4.88 1.93l.55-.48a15.38 15.38 0 0 0 -3.27.83c.28-.5 1.17-.56 1.45-1.05-4.33.91-7.6 3.12-10.88 6l1.35-.56a20.45 20.45 0 0 0 -2.18 1.65c-.37.35-1.8 1.35-1.68 1.83l1.33-.48c-.27.23-.66.46-.91.72s-.26.39-.11 1c.2.75.4 1.49.61 2.23a34.34 34.34 0 0 1 3.28-1.29 2 2 0 0 0 -.7.43zm-1.42-1.32a7.29 7.29 0 0 1 2-1.7c.45-.32 1.32-1.16 1.9-1.21a5.23 5.23 0 0 0 -2.22.64 18.71 18.71 0 0 1 2.17-2l-.85.42a20.55 20.55 0 0 1 5.69-3.85 3 3 0 0 0 -1.19 1.07 18 18 0 0 1 2.49-.9 3.57 3.57 0 0 1 -.78.72 54.54 54.54 0 0 1 6.46-2.07c-1.68.83-3.33 1.74-4.93 2.72l1.63-.49a6.48 6.48 0 0 0 -1.55 1 6.4 6.4 0 0 0 1.74-.5 24.24 24.24 0 0 1 -2.61 1.75 5.37 5.37 0 0 0 1.37-.33 15.73 15.73 0 0 1 -4.74 2h1.2c-1 .31-2.06.67-3.12.91h1.22a15.66 15.66 0 0 1 -2.36.59 15.46 15.46 0 0 0 -3.52 1.23z"/><path d="m18.25 71.63a26.24 26.24 0 0 0 2.91-7.08 15.15 15.15 0 0 1 -3 4.59c.24-.65.48-1.29.71-1.93a24.33 24.33 0 0 1 -2.88 3 3.72 3.72 0 0 0 -.75.73l-.24.26.41.62c.18.25.36.5.53.76s.4.93.73.53c-.18.43.05.54.32.89a17.88 17.88 0 0 0 2.75-3.83z"/><path d="m37.37 21.3c-1.49.24-3.2.57-4.26 1.74a8.55 8.55 0 0 1 2.18-2.71 22.12 22.12 0 0 0 -6 5.44c.14-.87.37-1.73.51-2.6-1.06 1.31-2.18 2.56-3.23 3.87a3.71 3.71 0 0 0 .47-2.26c.05.49-.74 1.39-1 1.75a11.83 11.83 0 0 1 -1.47 1.76 48.51 48.51 0 0 1 -3.82 3.19 17.17 17.17 0 0 0 6.14-3.71c-.29.59-.56 1.19-.9 1.75a7.76 7.76 0 0 0 .95-.86 7.76 7.76 0 0 1 -.68 1.69l1.56-1.48c-.31.29-.43 1-.64 1.34-.33.59-.72 1.14-1.08 1.71 2.62-2.15 3.88-5.24 6.07-7.72a12 12 0 0 0 -1.17 4.43c1.16-2.7 3.44-6.3 6.37-7.33z"/><path d="m24.74 70.74c-.18.66-.36 1.32-.55 2a17.49 17.49 0 0 1 4.19-4.22l-1.8 3.32c2.26-1.62 4.44-3.34 6.71-5-.74 1.92-1.56 4.27-3.31 5.51a9 9 0 0 0 4.75-1.87 18 18 0 0 1 -5.73 3.91 20.89 20.89 0 0 0 11.51-8.39l-2.35 1.4 2.84-3.91c-2.11 2.2-4.37 4.66-7.36 5.63a11.07 11.07 0 0 0 2.63-4.18l-1.16.43a12 12 0 0 0 3.89-3.9 4.3 4.3 0 0 0 -1.34.85 8.52 8.52 0 0 1 4.94-3.89l-1.49 1.76a16.18 16.18 0 0 0 8.41-5.85l-2 1.43a41.9 41.9 0 0 1 4.77-6.38 10.32 10.32 0 0 0 -2.34 1.19 15 15 0 0 1 4.38-4.58c-3.09 1.33-5.44 3.85-7.68 6.27.22-.62.45-1.24.68-1.86a23.79 23.79 0 0 1 -4 3.67 7.68 7.68 0 0 0 1.33-2.08 32 32 0 0 1 -4.56 3.38c.47-.67.93-1.35 1.39-2a10.32 10.32 0 0 0 -4.66 5l.17-1.96a18.28 18.28 0 0 1 -3.91 5 4.79 4.79 0 0 0 1.21-3.1 36.2 36.2 0 0 1 -3.67 4.33l.72-1.85a12.21 12.21 0 0 0 -3.6 4.44c.19-.63.54-1.51.14-2.13-.62 1.8-2 3.28-2.9 5l.01-1.4c-.73 1-1.33 2-2 3l.14-1.71a22.78 22.78 0 0 1 -3.72 6.62c2.08-.4 3.98-2.42 5.32-3.88z"/><path d="m35.89 15.15a8.85 8.85 0 0 0 -3.4 2.65 13.75 13.75 0 0 1 .67-1.64 11.73 11.73 0 0 0 -3.58 5.21 7.87 7.87 0 0 1 2.66-2.63 6.32 6.32 0 0 0 -.44 2.12 11.67 11.67 0 0 1 2.94-3.35 2.07 2.07 0 0 1 -.65 1.1c3.32-.82 6.79-4 7.42-7.45a13.37 13.37 0 0 1 -6.31 5.19 3 3 0 0 1 .69-1.2z"/><path d="m24.21 1.86a16 16 0 0 1 -1.78 3.14 31.37 31.37 0 0 0 3.1-3.42q-.66.15-1.32.28z"/><path d="m7.08 14.92 2.45-1.92a6.6 6.6 0 0 1 -1 1.72l5.25-5.16-1.21 2.15a13.42 13.42 0 0 1 2.43-1.48 4.53 4.53 0 0 1 -2.25 2.77 59.19 59.19 0 0 0 8-2.57 31.54 31.54 0 0 0 7-3.5l-1.75 1.81a20.26 20.26 0 0 1 3.88-1.69 19.18 19.18 0 0 1 -5.6 3.47 20 20 0 0 0 13.18-8.77 10.64 10.64 0 0 1 -1.88.7c.8-.69 1.57-1.44 2.31-2.2l-1.62.09a2.74 2.74 0 0 0 -1.3.5c.11-.14.21-.28.31-.43a5.77 5.77 0 0 0 -2.53.59c-.81.43-1.62.88-2.4 1.38a6.39 6.39 0 0 0 .43-1.54 3.2 3.2 0 0 0 -1.83 1c-.47.38-.93.76-1.41 1.13-1.09.86-2.22 1.68-3.39 2.44a25.67 25.67 0 0 1 -6.78 3.3 12 12 0 0 0 3.41-5.82 27.61 27.61 0 0 1 -3.68 3.17 23.85 23.85 0 0 0 1.25-2.66 28.27 28.27 0 0 0 -4.73 4.21 8.53 8.53 0 0 1 1.09-2.92c-2.48 1.64-4 4.24-5.86 6.52a9.54 9.54 0 0 0 .27-2.06c-.63 1.08-1.31 2.13-2 3.14a4.1 4.1 0 0 0 .25-1.9c-1.08 2.85-3.37 5.61-5.44 7.75a57.85 57.85 0 0 0 6-4.67 4.64 4.64 0 0 1 -.85 1.45z"/><path d="m12.14 66.49.27-.17a2.57 2.57 0 0 1 -.4-.07z"/><path d="m13.75 63.85c2.09-2.18 3-5.58 5.89-7-2.83.61-4.7 3-6.33 5.24v-.61a19.11 19.11 0 0 1 -2.41 2.42 1.31 1.31 0 0 0 0-.85c-.56.42-.21.71.07 1.28s.53 1 .8 1.56a7.38 7.38 0 0 0 3.35-3z"/><path d="m28.17 84.24.62.36.93-1.71z"/><path d="m26.15 81.32a16.11 16.11 0 0 0 1.94-4.51 18.25 18.25 0 0 1 -4.32 4.36 34.85 34.85 0 0 0 3.11 2.27 24.47 24.47 0 0 0 2.06-4.65z"/><path d="m23 80.49.62.53a4.17 4.17 0 0 0 .38-1.54c-.32.34-.68.67-1 1.01z"/><path d="m27.4 83.78c.4.25.27.29.6-.07a8.4 8.4 0 0 0 .61-.94z"/><path d="m30.12 85.31c.17-.38.36-.75.51-1.14-.34.3-.69.58-1 .86z"/><path d="m44.22 80.25a18.14 18.14 0 0 0 -7.86 5.75c.15-.52.3-1 .44-1.56a9.85 9.85 0 0 0 -2.58 2.56 6.14 6.14 0 0 0 1.5.44c.5 0 .47 0 .88-.41a15.35 15.35 0 0 1 1.85-1.57 9.15 9.15 0 0 0 -1.45 2.3c.32.07 1.15.4 1.45.29s.71-.74.94-1a13.75 13.75 0 0 1 2.15-1.72 7.79 7.79 0 0 0 -3.34 2.16c.82-1.9 2.64-3.13 4.06-4.55a10.12 10.12 0 0 0 -1.89 1 17.65 17.65 0 0 1 3.85-3.69z"/><path d="m33.23 86.64c.15 0 .81.41 1 .35s.47-.93.57-1.12a16 16 0 0 1 1.3-1.94 21.46 21.46 0 0 0 -2.87 2.71z"/></g></svg>