<svg viewBox="0 0 88.48 88.64" xmlns="http://www.w3.org/2000/svg"><path d="m44.24.08c-25.24 0-44.24 7.55-44.24 17.56a131.82 131.82 0 0 0 7.45 38.36c7.86 21.31 20.55 32.56 36.79 32.56 16.87 0 29.83-11.56 37.47-33.56a133.57 133.57 0 0 0 6.77-37.34c0-10.03-19.02-17.58-44.24-17.58z" fill="#fff" fill-rule="evenodd"/><path d="m44.25.08c-11 0-22.73 1.14-32.94 5.59-3.31 1.44-6.66 3.33-8.99 6.15a9.89 9.89 0 0 0 -2.32 7.09 126.52 126.52 0 0 0 4.89 29.3c3 10.61 7.51 21.39 15.18 29.53a32.66 32.66 0 0 0 45.93 2.67c7.79-6.76 12.65-16.37 15.93-26a128.88 128.88 0 0 0 6.41-33.23 17 17 0 0 0 -.16-5.78c-.87-3-3.3-5.26-5.79-6.94a41.33 41.33 0 0 0 -12-5.18 87.23 87.23 0 0 0 -16.65-2.83q-4.74-.37-9.49-.37z" fill="#fff" fill-rule="evenodd"/><path d="m22.12 9.69c.67-1 1.19-2.36 2.3-2.93s2.49-.06 3.53.37a11.68 11.68 0 0 1 6.1 5.35c1.05 2.18.7 5.19-1.35 6.68a4.89 4.89 0 0 1 -3.5.85c-1.33-.22-1.45-1.68-1.69-2.77-.44-1.94-1.63-2.58-3.16-3.64s-1.74-2.33-2.23-3.91z" fill="#e2eff6"/><path d="m62.82 64.1c-1.57-1.6-2-3.82-.45-5.58a6.36 6.36 0 0 1 1.5-1.18 6.47 6.47 0 0 1 .91-.46l.33-.13c.25 0 .36-.06.34-.26a12.42 12.42 0 0 1 1.67-.22 13.89 13.89 0 0 1 2.41-.1 10.89 10.89 0 0 0 -5-5.22c-2.17-1.25-4.49-2.3-6.77-3.34-1.65-.75-3.45-1.33-2.69-3.52a8.76 8.76 0 0 1 1.67-2.5c.47-.57 1.44-1.44 1.45-2.24 4.12 1.3 8.71 1 12.57 3.11a14.78 14.78 0 0 1 7 10.25 28.46 28.46 0 0 1 .5 3.07c0 .49-.07 1.09 0 1.56s-.23.23.28.53a3.91 3.91 0 0 0 1 .24c.13 0 .84.29.95.22a2.85 2.85 0 0 0 .25-.65c.24-.61.47-1.23.69-1.84.46-1.27.89-2.56 1.29-3.85a122.38 122.38 0 0 0 3.66-15 7.06 7.06 0 0 0 .29-1.64c0-.47-.08-.43-.48-.76l-.67-.52a25.77 25.77 0 0 0 -2.84-1.87 34.15 34.15 0 0 0 -6.24-2.61 29 29 0 0 1 -6.64-3c-.18-.12-.69-.58-.89-.59s-.46.19-.62.24c-.44.17-.89.32-1.34.46a22.25 22.25 0 0 1 -3.12.68 9.94 9.94 0 0 1 -5.69-.46 7.3 7.3 0 0 1 -3.51-4.3c-.83-2.21-1.14-4.42-2.65-6.31-.82-1-2-2.27-1.28-3.65a5.42 5.42 0 0 1 2.9-2.17 25.58 25.58 0 0 1 4.51-1.39c1.41-.32 2.83-.57 4.25-.84a10.32 10.32 0 0 1 1.43-.26c1 0 1.93 1.11 2.45 1.84a10.85 10.85 0 0 0 3-3.89 6.48 6.48 0 0 0 .34-1.95c0-.22.1-.8 0-1s-.91-.24-1.16-.31a84.64 84.64 0 0 0 -9.23-1.69 114.67 114.67 0 0 0 -21.52-.74 101.73 101.73 0 0 0 -11.67 1.28c1.16.22 2.76.71 3.36 1.83a6.54 6.54 0 0 1 .28 4.1 35.21 35.21 0 0 1 -3.64 9.75c-1.42 2.8-3 5.55-4.48 8.3a14 14 0 0 1 -2.3 3.34 5.25 5.25 0 0 1 -3.88 1.35 1.7 1.7 0 0 1 .17.65 3.41 3.41 0 0 1 -1.26-.49 3.68 3.68 0 0 0 -1.25-.27c-.81-.09-1.62-.21-2.42-.34-1.7-.28-3.38-.64-5.07-1a2.44 2.44 0 0 1 1.38 1.83 2.86 2.86 0 0 1 -1.55-.7c-.42-.36-.41-.66-.68-1.09.08-.17 0-.25-.14-.23l-.52-.05c-.29-.05-.58-.1-.88-.13-.75-.1-1.51-.14-2.27-.18.23 1.76.48 3.51.77 5.26.21-.45 1.19.35 1.44.57a2.09 2.09 0 0 1 .79 1.41 2.65 2.65 0 0 1 -2.15-1.59c.13.78.27 1.55.41 2.33.07.37.17 2.15.47 2.4a4.69 4.69 0 0 0 1.14.13l1.14.12q1.34.12 2.67.21c-.35-.44.78-.21.8-.21.41.19.34.25.83.32s.93.06 1.38.09c1.77.11 3.54.24 5.3.44-.44-.2-1.76-1.08-1.43-1.77.21-.42 1 .25 1.26.45a2.79 2.79 0 0 1 .5.47c.19.23.27.79.44.95a6.74 6.74 0 0 0 1.73.26q.94.15 1.89.36a29.32 29.32 0 0 1 3.89 1.13c1.92.7 4.54 1.58 5.58 3.5.83 1.53.69 3.41.54 5.08a31.42 31.42 0 0 0 -.3 5.73c.22 2.29 1.45 4.38 2.48 6.39 2.1 4.07 4.66 8.06 6 12.48s.42 9.85-4 12.31a32.5 32.5 0 0 0 30.75-5.9 36.48 36.48 0 0 0 3.83-3.66c.62-.66 1.21-1.34 1.79-2a5.27 5.27 0 0 0 .81-1c.22-.51.16-.11.07-.53a2.79 2.79 0 0 0 -.42-.8c-2.07-3.66-5.57-6.14-8.43-9.04zm-.97-13.1c.55.46 1.18 1.1 1 1.88-.4-.12-1.8-1.4-1-1.88zm-49.85-14.59c-.49.06-1.4-1-1.49-1.5a1.41 1.41 0 0 0 .41 0 3.15 3.15 0 0 0 -.09-.42 2.2 2.2 0 0 1 1.6 1.19c-.49-.08-.27.47-.43.73zm7.7.41a1.36 1.36 0 0 1 -.35-.07c0 .15.06.29.1.43-.65 0-1.28-1.12-1.62-1-.09-1.03 1.9-.18 1.86.64zm27.16 14.57c-.26-.2-.55-.32-.71-.63 0 .1 0 .32-.13.24l.07.08c-.29-.29-1.87-2.16-.63-2.34.29 0 1 .81 1.17 1.08a1.32 1.32 0 0 1 .23 1.57zm1.63 6.33c-.5-.06-1.11-1.35-1.08-1.82a2 2 0 0 0 .4.11 2.16 2.16 0 0 0 0-.44 2.17 2.17 0 0 1 1.26 1.56c-.44-.2-.36.38-.58.59zm3-10.1a2 2 0 0 1 -.33-.15v.44c-.63-.11-.95-1.41-1.3-1.41.14-1.02 1.88.35 1.64 1.12zm2 6.89c-.71-.24-2-1.36-1.72-2.27.21-.73.86.13 1.13.46a2.21 2.21 0 0 1 .6 1.81zm1.59 6.17c-.32-.56-1.13-1.3-.56-2 .15.17.33.28.41.51q0-.3.12-.12l-.05-.07c.29.4 1 1.56.09 1.68zm1.81-10c-.32-.55-1.13-1.3-.56-2 .15.18.33.28.41.51 0-.19.06-.24.12-.12v-.09c.24.41.95 1.57.04 1.68zm2.11 2.58c.61.73 2 1.61 1.29 2.71-.26-.21-.55-.33-.72-.64 0 .1 0 .32-.12.24l.06.09c-.51-.5-1.81-2.01-.51-2.4zm1.13 8.74c-.33-.55-1.13-1.3-.57-2 .16.17.34.28.42.51 0-.2.06-.24.12-.12l-.05-.09c.28.39.95 1.55.08 1.7z" fill="none"/><path d="m62.66 18.06a6.52 6.52 0 0 1 1.59-6.12c.4-.49 2-1.81 1.89-2.25a3.21 3.21 0 0 0 -2.35-1.69 23 23 0 0 0 -3.17.6c-1.48.28-3 .59-4.42 1-1.8.5-5.64 1.48-5.74 3.89-.08 1.84 2.12 3.29 2.78 4.91.88 2.13 1.13 4.5 2.45 6.44 2.86 4.16 9.24 2.83 13.19 1.16a15.17 15.17 0 0 1 -6.22-7.94z" fill="#fed991"/><path d="m67.3 8.78c-1.73 1.75-3.89 3.48-4.64 5.92s.42 5.09 1.84 7.09a19.17 19.17 0 0 0 6.19 5.34 53.37 53.37 0 0 0 7.92 3.21 27.26 27.26 0 0 1 8.08 4.66 115.68 115.68 0 0 0 1.77-17.12c.08-4.68-3.75-8.08-7.46-10.29a45.5 45.5 0 0 0 -11.45-4.52 7.08 7.08 0 0 1 -2.25 5.71z" fill="#f9f6f9"/><path d="m77.63 59.3c-1.24 1.71-4.12.81-5.61 0a5.08 5.08 0 0 1 -2.23-2.52c-.23-.49-.17-.48-.61-.6a4.11 4.11 0 0 0 -1.05 0 11.13 11.13 0 0 0 -2.29.35 2 2 0 0 1 .82 1.7 1.91 1.91 0 0 1 -1.23-1.58c-1.7.56-3.62 1.78-4 3.66s.9 3.33 2.14 4.52c3 2.86 6.52 5.49 8.25 9.34a64.46 64.46 0 0 0 8.66-15.83c-.76-.17-1.51-.35-2.26-.54a3.7 3.7 0 0 1 -.59 1.5zm-10.52 5.59c-.59-.74-1.91-1.65-1.23-2.73.25.21.54.34.7.65 0-.1 0-.32.13-.23l-.06-.09c.48.51 1.75 2.04.46 2.4z" fill="#fbdfe2"/><path d="m71.21 58.75c1.45 1.12 4.39 2.28 6.05.93 1.93-1.57.81-5.34.39-7.36a14.27 14.27 0 0 0 -10.37-11.17c-3-.77-6.17-.87-9.14-1.8 0 .87-1.11 1.83-1.62 2.44a6.51 6.51 0 0 0 -1.64 2.84c-.41 2.24 2.56 2.85 4.11 3.59a45.22 45.22 0 0 1 7.45 4 8.25 8.25 0 0 1 2.61 2.9c.64 1.25.95 2.74 2.16 3.63z" fill="#e2eff6"/><g fill="#fbdfe2"><path d="m52.05 51.87c-1.11.64.83 2.43 1.45 2.64.21-1.1-.68-2-1.45-2.64z"/><path d="m66.66 58.22c.11-.55-.93-2.3-1.22-1.65s.76 1.5 1.22 1.65z"/><path d="m62.88 52.9c.11-.57-1-2.33-1.23-1.62s.78 1.47 1.23 1.62z"/><path d="m49.89 46.36a.44.44 0 0 0 0 .14c.39 0 .64 1.3 1.3 1.41 0-.14 0-.29 0-.44a2 2 0 0 0 .33.15c.19-.68-1.35-2.08-1.63-1.26z"/><path d="m47.82 55.57a2.16 2.16 0 0 1 0 .44 2 2 0 0 1 -.4-.11 3 3 0 0 0 .64 1.49c.73.85.39-.54 1-.26a2.17 2.17 0 0 0 -1.24-1.56z"/><path d="m45.76 50.72a2.82 2.82 0 0 0 .33.36l-.09-.08c.12.08.08-.14.13-.24.16.31.45.43.71.63a1.25 1.25 0 0 0 -.06-1.39c-.18-.29-.82-1.16-1.12-1.25-1.25-.34-.18 1.65.1 1.97z"/><path d="m66.76 62.61-.11-.12.06.09c-.12-.09-.09.13-.13.23-.16-.31-.45-.44-.7-.65a1.27 1.27 0 0 0 .12 1.48c.13.2.84 1.2 1.1 1.25.45.09.58-.59.53-.87a2.83 2.83 0 0 0 -.87-1.41z"/><path d="m59.38 55.53.11.13-.06-.09c.12.08.08-.14.12-.24.17.31.46.43.72.64a1.29 1.29 0 0 0 -.16-1.47c-.14-.21-.86-1.19-1.13-1.24-.45-.08-.57.61-.51.88a2.78 2.78 0 0 0 .91 1.39z"/><path d="m55.13 59.18-.13-.18v.09q-.09-.18-.12.12c-.08-.23-.26-.34-.41-.51-.4.47.21 2.12.77 1.91s.08-1.14-.11-1.43z"/><path d="m56.94 49.16-.11-.16v.09c-.06-.12-.1-.07-.12.12-.08-.23-.26-.33-.41-.51-.4.47.21 2.13.77 1.92s.06-1.17-.13-1.46z"/><path d="m60.17 60.47-.12-.17.05.09c-.06-.12-.11-.08-.12.12-.08-.23-.26-.34-.42-.51-.39.47.22 2.12.78 1.92s.02-1.16-.17-1.45z"/></g><path d="m4.66 28.63c.19-.38.81.13 1.14.22s.65.13 1 .19l2.38.47a39.5 39.5 0 0 0 4.83.67c-.18-.14-1.18-1.31-.54-1.51.17-.05.86.47 1 .55.31.23.62.84.91 1 .48.26 1.91-.18 2.41-.36a4.07 4.07 0 0 0 1.47-1c1.85-1.83 2.78-4.4 4-6.64a81.67 81.67 0 0 0 5.09-10.16c.94-2.44 2.25-5.92 1.13-8.48-.49-1.13-1.85-1.66-3-1.94a6.32 6.32 0 0 0 -2.61.29c-1 .19-1.93.39-2.89.62a57.93 57.93 0 0 0 -9.36 3c-4.17 1.76-8.91 4.39-10.87 8.7-.91 2-.78 4-.65 6.15.11 1.85.28 3.69.49 5.53.05.5.11 1 .17 1.5a4.76 4.76 0 0 0 .1.78 3.35 3.35 0 0 0 .86.05 26.53 26.53 0 0 1 2.94.37zm7.34-4.63c.12-.82 1.88.17 1.85.85a1.36 1.36 0 0 1 -.35-.07c0 .15.07.29.1.44-.64 0-1.27-1.13-1.62-1-.04-.1-.05-.22.02-.22zm-6.91 0c.11-.82 1.88.17 1.84.85a1.45 1.45 0 0 1 -.35-.07c0 .15.07.29.1.44-.64 0-1.27-1.13-1.62-1 0-.1 0-.22.03-.22z" fill="#fde9ea"/><g fill="#fed991"><path d="m11.94 24.14c.39-.08 1 1.09 1.62 1 0-.15-.07-.29-.1-.44a1.36 1.36 0 0 0 .35.07c.04-.77-1.94-1.63-1.87-.63z"/><path d="m3.86 35.45a2.13 2.13 0 0 0 -.86-1.45c-.35-.28-1.18-1-1.32-.38-.26.94 1.47 1.78 2.18 1.83z"/><path d="m4.66 28.63c-.47 1 1.62 1.95 2.21 2-.04-.63-1.87-2.77-2.21-2z"/><path d="m13.44 28.67c-.91.89 1.41 2.15 2.06 2.19-.07-1.1-1.16-1.77-2.06-2.19z"/><path d="m14.57 37.72c-.33.32-.08.83.16 1.15a2.57 2.57 0 0 0 1.88.92c-.15-1.05-1.17-1.66-2.04-2.07z"/><path d="m5.06 24.14c.39-.08 1 1.09 1.62 1 0-.15-.07-.29-.1-.44a1.45 1.45 0 0 0 .35.07c.07-.77-1.93-1.63-1.87-.63z"/><path d="m8.77 39.13c-.26-.2-1-.72-1.2-.21-.11.28.97.2 1.2.21z"/><path d="m17.84 36s0 .16 0 .17c.39-.07.95 1.1 1.62 1 0-.14-.07-.28-.1-.43a1.36 1.36 0 0 0 .35.07c.01-.67-1.71-1.66-1.87-.81z"/><path d="m10.82 34.49a3.15 3.15 0 0 1 .09.42 1.41 1.41 0 0 1 -.41 0 3 3 0 0 0 1 1.29c.92.64.25-.63.94-.52a2.2 2.2 0 0 0 -1.62-1.19z"/></g><path d="m30.53 58.29c-.91-2.12-.66-4.52-.43-6.74.21-2 .61-4.32-.26-6.23-1.06-2.32-4.32-3.32-6.56-4.08a41.6 41.6 0 0 0 -9.39-1.75c-3.77-.33-7.56-.43-11.31-.9a119.63 119.63 0 0 0 4.5 16.41l.35-.39c-.35.54-.27.63 0 1.26a32 32 0 0 1 14.47-7 30.88 30.88 0 0 0 -9.9 8.52c-.67.85-1.31 1.74-1.92 2.64-.39.58-.7.79-.4 1.46l.78 1.69a69.33 69.33 0 0 0 3.43 6.35c2.62-3.23 7-4.09 10.87-4.88 2.15-.45 4.32-.76 6.47-1.23a17.5 17.5 0 0 1 -4.86 2.68 42.37 42.37 0 0 0 -6.07 2.41 26.33 26.33 0 0 0 -3.53 2.24l-1 .76c-.43.36-.38.37-.07.82s.45.63.67.94.4.7.91.69c.74 0 1.52-.28 2.26-.37s1.65-.16 2.48-.2c1.57-.06 3.13 0 4.69 0 3.48.19 6.93.64 10.4.85-2 1.74-4.85 2.35-7.4 2.83-2.87.54-5.71.94-8.53 1.75a35.58 35.58 0 0 0 8.1 6 30.65 30.65 0 0 0 4.59 2c1.26.43 2.82-1.71 3.46-2.65 3.44-5 .82-11-1.68-15.86-1.65-3.31-3.65-6.55-5.12-10.02z" fill="#f9f6f9"/><g fill="#fff" opacity=".45"><path d="m7.08 55c.07.21.28-.27.35-.39z"/><path d="m21.86 48.82a30.17 30.17 0 0 0 -10 3.87q-1.08.64-2.13 1.38a10.71 10.71 0 0 0 -2.11 1.59c-.33.41-.13.54.08 1.09s.37 1 .56 1.44q.58 1.41 1.19 2.81c3.16-4.92 7.18-9.45 12.41-12.18z"/><path d="m31.22 63.42c-2.33.51-4.7.83-7 1.35a34.94 34.94 0 0 0 -6.22 1.75 11 11 0 0 0 -3.2 2 3 3 0 0 0 -.69.74c-.21.43-.15.39.14.86s.75 1.16 1.14 1.73a28.22 28.22 0 0 1 9.3-5.19 22.53 22.53 0 0 0 6.53-3.24z"/><path d="m17 74q1 1.38 2.19 2.67c.39.44.79.88 1.2 1.3a4.48 4.48 0 0 0 .61.62c.32.23.21.19.62.14 1-.14 2.08-.58 3.12-.78.83-.16 1.66-.29 2.49-.43 3.32-.54 7.3-1 9.94-3.26-6.72-.37-13.57-1.74-20.17-.26z"/></g></svg>