<svg viewBox="0 0 88.48 88.64" xmlns="http://www.w3.org/2000/svg"><path d="m44.24.08c-25.24 0-44.24 7.55-44.24 17.56a131.82 131.82 0 0 0 7.45 38.36c7.86 21.31 20.55 32.56 36.79 32.56 16.87 0 29.83-11.56 37.47-33.56a133.57 133.57 0 0 0 6.77-37.34c0-10.03-19.02-17.58-44.24-17.58z" fill="#fff" fill-rule="evenodd"/><path d="m44.33 0c11 0 22.73 1.14 32.94 5.6a23.89 23.89 0 0 1 9 6.14 9.89 9.89 0 0 1 2.27 7.09 126 126 0 0 1 -4.88 29.3c-3 10.62-7.52 21.4-15.19 29.53a32.65 32.65 0 0 1 -45.88 2.68c-7.79-6.75-12.59-16.34-15.93-25.98a129.23 129.23 0 0 1 -6.41-33.22 17 17 0 0 1 .16-5.79c.88-3 3.3-5.25 5.8-6.94a41.13 41.13 0 0 1 12-5.17 87.36 87.36 0 0 1 16.63-2.84c3.16-.26 6.33-.4 9.49-.4z" fill="#fff" fill-rule="evenodd"/><path d="m44.17.31c11 0 22.73 1.14 32.94 5.6a23.89 23.89 0 0 1 9 6.14 9.88 9.88 0 0 1 2.27 7.09 126 126 0 0 1 -4.88 29.3c-3.02 10.62-7.5 21.4-15.19 29.56a32.65 32.65 0 0 1 -45.88 2.68c-7.79-6.77-12.64-16.38-15.93-26a129.23 129.23 0 0 1 -6.41-33.25 17 17 0 0 1 .16-5.79c.88-3 3.3-5.25 5.8-6.94a41.13 41.13 0 0 1 11.95-5.17 87.36 87.36 0 0 1 16.68-2.84c3.16-.26 6.32-.38 9.49-.38z" fill="none"/><path d="m88.55 17.12c0-4.28-3.45-7.51-6.81-9.63-5.39-3.39-11.81-5.13-18-6.28a110.53 110.53 0 0 0 -25.32-1.51 85.87 85.87 0 0 0 -22.94 3.88c-5.17 1.73-11.37 4.36-14.23 9.33 1.81-2.91 4.85-4.91 7.85-6.48a54.66 54.66 0 0 1 13.6-4.53 108.61 108.61 0 0 1 36.94-1 71.57 71.57 0 0 1 15.14 3.61 29.58 29.58 0 0 1 10 5.74 10.16 10.16 0 0 1 3.56 7.24 77.8 77.8 0 0 1 -.77 9.65c-1.42 12.06-4.23 24.22-9.38 35.26q-1 2.12-2.1 4.15c7.28-13.14 10.71-28.55 12.1-43.43.18-1.99.36-4 .36-6z" fill="#fff" fill-rule="evenodd"/><path d="m88.39 17.41c0-6.73-7.79-10.67-13.13-12.72-10.21-3.93-21.57-4.95-32.42-4.84-10.67.15-21.96 1.31-31.84 5.67a23.91 23.91 0 0 0 -8.7 5.93 8.85 8.85 0 0 0 -2.23 5.68c0 .65 0 1.3.07 1.94a132.35 132.35 0 0 0 4.8 29.38c2.87 10.1 7.11 20.28 14.26 28.14a33.89 33.89 0 0 0 21.17 11.23 32.57 32.57 0 0 0 24.93-7.61c8.72-7.43 13.83-18.32 17.22-29a131.69 131.69 0 0 0 5.73-30.42c.07-1.16.14-2.27.14-3.38z" fill="#fff" fill-rule="evenodd"/><g fill="#dfeddc" opacity=".5"><path d="m1.52 33.73c.1.66.18.74.77 1.05l1.32.69c.93.5 1.86 1 2.77 1.54q2.68 1.53 5.25 3.21a93.86 93.86 0 0 0 -10.11-6.49z"/><path d="m13.58 41a38.7 38.7 0 0 0 -4.45-3c-.26-.15-1-.6-1.1 0 0 .41.86.9 1.13 1.09 1.45 1.06 2.86 2.16 4.38 3.11 1.32.83 3 1.34 4 2.51a32.68 32.68 0 0 0 -3.96-3.71z"/><path d="m6.38 36.78c-1 .1 1.32 4.07 1.56 4.42a24.83 24.83 0 0 0 4.76 4.9 58.12 58.12 0 0 0 -3.5-5.81c-.51-.76-1.06-1.49-1.59-2.24-.23-.32-.74-1.31-1.23-1.27z"/><path d="m3.41 35.94a14.28 14.28 0 0 0 2.35 5.12 16.87 16.87 0 0 0 1.57 2.26c.47.54 1.23 1 1.45 1.76a32.29 32.29 0 0 0 -2.73-5.76c-.52-.96-1.38-3.19-2.64-3.38z"/><path d="m5.41 43.29a36.25 36.25 0 0 0 -3.64-8c.17 1 .29 2 .54 3a17.77 17.77 0 0 0 1.16 2.87 56.69 56.69 0 0 0 2.86 5.46c-.59-1.03-.57-2.26-.92-3.33z"/><path d="m11.45 35.57c-1.5.13-3.59-.06-4.85.91.58 1.18 3.67.24 4.55.08 1.82-.31 3.64-.67 5.46-1a31.74 31.74 0 0 0 -5.16.01z"/><path d="m4 35.16c1.43.78 3.4 0 4.81-.44a35.08 35.08 0 0 0 5.72-2.43 20.25 20.25 0 0 0 -5.51 1c-.84.27-1.67.56-2.5.87a13.68 13.68 0 0 0 -2.52 1z"/><path d="m8.07 31.2a45 45 0 0 0 -4.33 1.74c-.32.14-1.09.35-1.15.77s.47.42.79.35a25.23 25.23 0 0 0 4.26-1.81l5-2.18a9.1 9.1 0 0 1 -2 .42 21.75 21.75 0 0 0 -2.57.71z"/><path d="m10.52 27.14c-1.77.74-3.52 1.56-5.21 2.43-.83.42-1.65.86-2.47 1.32a6.59 6.59 0 0 0 -1.29.75c-.32.05-.41.21-.28.47s.05.37.08.56c3.32-1.38 6.09-3.67 9.17-5.53z"/><path d="m3.33 28.1c-.56.33-1.11.69-1.66 1a3.45 3.45 0 0 0 -.75.48c-.09.18.11.81.13 1 2.38-1.57 4.73-3.18 7-4.87a44.42 44.42 0 0 0 -4.72 2.39z"/><path d="m.54 26.38.12 1.1c1.6-1.24 3.23-2.44 4.91-3.56a18.51 18.51 0 0 0 -5.03 2.46z"/><path d="m.29 23.83v.17l.62-.41z"/></g><g fill="#c14f96" opacity=".5"><path d="m74.22 14.18a88.39 88.39 0 0 1 13.92 7.89c0-.52.1-.56-.23-.88a7.36 7.36 0 0 0 -.88-.57c-.58-.37-1.17-.73-1.76-1.09-1.14-.68-2.29-1.32-3.46-1.93a74.9 74.9 0 0 0 -7.59-3.42z"/><path d="m76.43 14.77a26.94 26.94 0 0 0 -7.89-2.71 10.66 10.66 0 0 1 3 1.42 29.25 29.25 0 0 0 3.35 1.46c.44.16 1.76.91 2.24.77.87-.23-.41-.79-.7-.94z"/><path d="m77.17 16a48.63 48.63 0 0 0 -7.44 0 16.38 16.38 0 0 0 7.52 1c.31 0 1.73-.14 1.64-.65s-1.36-.35-1.72-.35z"/><path d="m76.72 17.63a19.63 19.63 0 0 0 -4.58.59 4.15 4.15 0 0 1 1.67.2 13 13 0 0 0 2.49.12 11.3 11.3 0 0 0 4.44-.6c-.74-.89-3-.33-4.02-.31z"/><path d="m77.55 19.19a21.55 21.55 0 0 0 -2.85.6 10.65 10.65 0 0 1 -2.51.75 38.73 38.73 0 0 0 10.9-1.73 22.88 22.88 0 0 0 -5.54.38z"/><path d="m75.26 8.77c.58 1.46 1.15 2.91 1.76 4.36.27.65 1 3 2 2.87.11-1.15-.76-2.36-1.28-3.32a30.83 30.83 0 0 0 -2.48-3.91z"/><path d="m78.38 8.77a29.17 29.17 0 0 0 .89 5.16c.3 1.11.64 2.65 1.74 3.26a17.65 17.65 0 0 0 -1-4.28 16.22 16.22 0 0 0 -1.63-4.14z"/><path d="m82 12.72a37.43 37.43 0 0 1 -1.2-3.57c.22 1.41.43 2.82.65 4.23a19 19 0 0 0 .55 3.78c.11.26.25.63.59.38s.06-.84 0-1.08a36.73 36.73 0 0 0 -.59-3.74z"/><path d="m84.39 15.24q-.23-3-.72-5.94c.1 2.75-.26 5.51.15 8.25 0 .3.45 2.18.76 1.24a5 5 0 0 0 -.06-1.28c-.03-.76-.07-1.51-.13-2.27z"/><path d="m85.68 10.37c0 .37-.11.62.14.9-.05-.27-.09-.6-.14-.9z"/><path d="m85.89 19.78c.6.31.43-.41.38-.73a17 17 0 0 1 -.12-2.36c0-.94 0-1.88 0-2.82 0-.74 0-2.23-.46-2.78-.11 1.71-.18 3.41-.23 5.12-.05.79-.46 3.09.43 3.57z"/><path d="m87.88 14.61a9.37 9.37 0 0 1 .5 3.52c.06-.59.12-1.18.15-1.77"/><path d="m87.88 14.61c-.09 1.26-.22 2.52-.37 3.78-.11.92-.33 2.08.28 2.88.54-.22.44-1.85.49-2.32a9.4 9.4 0 0 0 -.4-4.34z"/><path d="m82.17 20.72a24.69 24.69 0 0 0 -7.08 2.2 9.73 9.73 0 0 1 2.71-.45c1.11-.18 2.21-.37 3.31-.59.92-.19 1.82-.43 2.73-.64.61-.14 1.61-.23 2-.77-1.14-.42-2.5.01-3.67.25z"/><path d="m83.27 22.52a24.51 24.51 0 0 0 -6.63 3c2.28-.46 4.54-1.07 6.78-1.69a21 21 0 0 0 2.88-.92c.43-.19 1.49-.57 1.54-1.15a15.9 15.9 0 0 0 -4.57.76z"/><path d="m87.73 23.72a19.15 19.15 0 0 0 -6.2 3.28l3.9-1.47 1.78-.67c.76-.29.72-.38.8-1.22z"/><path d="m84.7 28.67c.66-.22 1.32-.45 2-.69a3.58 3.58 0 0 0 .89-.33c.12-.15.09-.74.11-.92a21.65 21.65 0 0 0 -3 1.94z"/></g><g fill="#c14f96" opacity=".5"><path d="m31.43.53-.9.1a88.77 88.77 0 0 1 8.61 3.91 76.18 76.18 0 0 0 -7.71-4.01z"/><path d="m37.32 3.17c-.31-.14-1.5-.76-1.18 0 .2.48 1.74 1.12 2.15 1.37a27.7 27.7 0 0 0 3.27 1.74 9.47 9.47 0 0 1 2.75 1.42 27 27 0 0 0 -6.99-4.53z"/><path d="m34.62 2.18c-.81.15 1.41 3.18 1.64 3.45a20.34 20.34 0 0 0 4.23 3.56 50 50 0 0 0 -3.35-4.47c-.31-.35-1.91-2.66-2.52-2.54z"/><path d="m32.15 1.73a11.48 11.48 0 0 0 2.27 3.87 13.36 13.36 0 0 0 1.58 1.8c.41.39 1 .73 1.27 1.27a25.88 25.88 0 0 0 -2.7-4.45c-.57-.73-1.39-2.44-2.42-2.49z"/><path d="m30 .42c0 .22.06.3.21.25z"/><path d="m34.38 7.49a35.75 35.75 0 0 0 -1.93-3.68c-.29-.49-1.71-3.2-2.33-3.13a38.83 38.83 0 0 0 5.27 9.38 12.72 12.72 0 0 1 -1.01-2.57z"/><path d="m34.77 1.91c.56.91 2.94-.08 3.65-.27 1.45-.4 2.89-.83 4.34-1.25a32 32 0 0 0 -4.76.52c-1 .17-2.44.26-3.23 1z"/><path d="m32.58 1.06c1.42.58 3.21-.44 4.42-1.01-1.5.09-3.15.01-4.42 1.01z"/><path d="m29.07 4.34c.45.89.94 1.78 1.42 2.66a9 9 0 0 1 1.24 2.25 19.25 19.25 0 0 0 -1.63-4.85c-.35-.75-.71-1.48-1.08-2.21a4.15 4.15 0 0 0 -.49-1c-.34-.37-.48-.24-1-.16.47 1.11.98 2.23 1.54 3.31z"/><path d="m28.75 9.61a23.9 23.9 0 0 0 -1-5c-.25-.8-.55-1.58-.87-2.35-.1-.21-.28-.93-.45-1s-1 .18-1.23.22a83.69 83.69 0 0 0 3.55 8.13z"/><path d="m24.42 4.12a17.52 17.52 0 0 0 -.36-1.75c0-.12-.09-.64-.18-.7a5.26 5.26 0 0 0 -.83.16c.51 1.62 1 3.23 1.52 4.84a12.85 12.85 0 0 0 -.15-2.55z"/><path d="m21.05 2.27-.71.17c.29.94.6 1.87.93 2.8a21 21 0 0 0 -.22-2.97z"/><path d="m18.28 3c-.11 0 .11.45.13.52a3 3 0 0 1 -.13-.52z"/></g><g fill="#89c693" opacity=".5"><path d="m71.28 3.34a3.17 3.17 0 0 0 -1.51-.23c-.36.06-.75.2-1.1.29-.86.22-1.72.43-2.59.63-1.67.37-3.35.7-5 1a84.45 84.45 0 0 1 -10.4 1.07 72 72 0 0 0 20.6-2.76z"/><path d="m52.42 5.65a30.22 30.22 0 0 0 -4.36 0 11.38 11.38 0 0 1 -3.39.22 27.31 27.31 0 0 0 7.81.47c.28 0 1.55 0 1.58-.38s-1.34-.3-1.64-.31z"/><path d="m54.91 4.89c-2.25-1.55-5-2-7.7-2.15a49.56 49.56 0 0 0 6.44 2.66c.44.14 1.3.63 1.77.52.82-.21-.19-.81-.51-1.03z"/><path d="m52.25 2.11c-.63-.2-1.47-.12-2-.53a26.21 26.21 0 0 0 4.49 2.49c.78.38 2.36 1.42 3.26 1-1.41-1.51-3.86-2.36-5.75-2.96z"/><path d="m55.54 2.69a22 22 0 0 0 4.91 2.41 29.93 29.93 0 0 0 -4.08-2.91c-1.22-.75-2.88-2-4.32-2.08a23.83 23.83 0 0 0 3.49 2.58z"/><path d="m54.73 6.35a12.1 12.1 0 0 0 -2.47 2.27c-.9.93-1.79 1.87-2.68 2.81a30.22 30.22 0 0 0 3.68-2.7c.83-.68 2.07-1.48 2.4-2.57-.3-.16-.66.04-.93.19z"/><path d="m55.38 7.88a29.06 29.06 0 0 0 -3 4.71 16 16 0 0 0 3.12-3.18 18.39 18.39 0 0 0 2.5-3.59c-1.17.18-2 1.24-2.62 2.06z"/><path d="m58.71 6.5c-1.36 2.19-2.65 4.41-4 6.62a24.17 24.17 0 0 1 1.88-2.12 26.52 26.52 0 0 0 1.83-2.61 6.89 6.89 0 0 0 1.13-2c.07-.79-.55-.32-.84.11z"/><path d="m61.61 5.35c-.57.13-1 1.31-1.28 1.76a21.3 21.3 0 0 0 -1 2.17c-.65 1.58-1.18 3.22-1.88 4.79q1.55-2.46 2.79-5.07c.41-.84.8-1.69 1.18-2.54.08-.14.76-1.23.19-1.11z"/><path d="m63.37 5.25c-1.07.11-1.59 2.69-1.88 3.46q-.95 2.54-1.8 5.12a36.54 36.54 0 0 0 2.58-5.16 18.66 18.66 0 0 1 1.06-2.42c.16-.25.79-1.08.04-1z"/><path d="m64.3 7.26c-.6 2.23-1.3 4.44-2.12 6.6a16.56 16.56 0 0 0 2.66-5.51c.17-.55 1.3-3.28.81-3.77-.88.53-1.11 1.76-1.35 2.68z"/><path d="m63.61 4.61c-.27-.91-1.82-1.61-2.54-2.17s-1.32-.93-2-1.36a4.63 4.63 0 0 0 -2.17-.55c1.1.9 2.26 1.69 3.42 2.47.97.66 2.06 1.56 3.29 1.61z"/><path d="m65.87 4.19c.18-.6-.79-1.44-1.16-1.8a3 3 0 0 0 -1.32-.92 19.68 19.68 0 0 0 -2.15-.36 16.86 16.86 0 0 0 4.63 3.08z"/><path d="m67.42 5.58c-.71 2.11-1.18 4.3-2.07 6.34a20.48 20.48 0 0 0 2.83-6c.08-.27.54-1.85 0-1.71-.33.07-.66 1.07-.76 1.37z"/><path d="m67.77 3c.15-.85-1-.84-1.56-1 .2.22 1.44 1.6 1.56 1z"/><path d="m71.42 3.38.67.2"/><path d="m68.44 11.51a20.41 20.41 0 0 0 2.35-3.94c.31-.7.58-1.41.82-2.13.13-.39.25-.78.34-1.17s.31-.62-.19-.78-.87.87-1.09 1.4c-.31.75-.56 1.52-.8 2.3a43.68 43.68 0 0 1 -1.43 4.32z"/><path d="m72.49 8.5-.4.91a11.6 11.6 0 0 0 1.77-2.78 11.54 11.54 0 0 0 .53-1.38c0-.12.29-.68.22-.8s-.65-.24-.77-.28a21.15 21.15 0 0 1 -2.23 5.59 5 5 0 0 0 .88-1.26z"/></g><g fill="#dfeddc" opacity=".5"><path d="m67.65 35a72.22 72.22 0 0 0 10.08-.55c1.6-.2 3.21-.47 4.8-.79.83-.17 1.67-.35 2.5-.55l1.08-.26c.68-.17.72-.16.83-.85a86.23 86.23 0 0 1 -19.29 3z"/><path d="m69.43 34.59a31.72 31.72 0 0 0 -4.36 0 11.38 11.38 0 0 1 -3.39.22 27.31 27.31 0 0 0 7.81.48c.28 0 1.55 0 1.58-.39s-1.34-.3-1.64-.31z"/><path d="m71.92 33.83c-2.25-1.55-5-2-7.7-2.15a46.92 46.92 0 0 0 6.44 2.66c.44.15 1.3.64 1.77.52.82-.21-.19-.81-.51-1.03z"/><path d="m69.26 31.05c-.63-.2-1.47-.12-2-.53a25.55 25.55 0 0 0 4.48 2.48c.78.38 2.36 1.42 3.26 1-1.4-1.5-3.85-2.34-5.74-2.95z"/><path d="m70.28 30.12a25.1 25.1 0 0 0 7.18 3.88 38 38 0 0 0 -9.31-5.64 12.44 12.44 0 0 1 2.13 1.76z"/><path d="m71.74 35.29a11.87 11.87 0 0 0 -2.47 2.28c-.9.92-1.79 1.86-2.68 2.8a31.24 31.24 0 0 0 3.68-2.69c.83-.69 2.07-1.49 2.4-2.57-.3-.17-.67.04-.93.18z"/><path d="m72.39 36.82a29.06 29.06 0 0 0 -3 4.71 16 16 0 0 0 3.07-3.18 18.39 18.39 0 0 0 2.54-3.59c-1.16.14-2 1.24-2.61 2.06z"/><path d="m75.72 35.44c-1.36 2.19-2.65 4.42-4 6.62a22.67 22.67 0 0 1 1.88-2.06 29.14 29.14 0 0 0 1.83-2.61 6.94 6.94 0 0 0 1.13-2c.07-.85-.56-.39-.84.05z"/><path d="m78.62 34.29c-.57.13-1 1.31-1.28 1.76a21.3 21.3 0 0 0 -1 2.17c-.65 1.59-1.18 3.22-1.88 4.79q1.52-2.46 2.79-5c.41-.84.8-1.69 1.18-2.54.08-.2.76-1.3.19-1.18z"/><path d="m80.38 34.19c-1.07.11-1.59 2.69-1.88 3.46q-.94 2.54-1.8 5.12a36.54 36.54 0 0 0 2.58-5.16 18.66 18.66 0 0 1 1.06-2.42c.16-.27.79-1.07.04-1z"/><path d="m81.31 36.2a68.52 68.52 0 0 1 -2.12 6.6 16.56 16.56 0 0 0 2.66-5.51c.17-.55 1.3-3.28.81-3.77-.88.54-1.11 1.76-1.35 2.68z"/><path d="m78.64 31.8c-1.16-.88-2.38-1.68-3.61-2.45l-1.79-1.1a5.9 5.9 0 0 1 -1.56-1 20.16 20.16 0 0 0 4.26 3.75c1.32.91 3 2.48 4.68 2.54-.23-.78-1.37-1.28-1.98-1.74z"/><path d="m80.35 30.16c-2.07-1.6-4.13-3.2-6.31-4.65a24 24 0 0 0 4 4.4 17.14 17.14 0 0 0 4.83 3.22c.31-.96-1.96-2.53-2.52-2.97z"/><path d="m84.43 34.52c-.71 2.11-1.18 4.3-2.07 6.34a20.25 20.25 0 0 0 2.83-6c.08-.27.54-1.84 0-1.71-.33.07-.66 1.07-.76 1.37z"/><path d="m83.72 30.3-4.66-4.3a19.53 19.53 0 0 0 4.33 5.17c.23.21.91 1.11 1.26 1 .7-.3-.73-1.69-.93-1.87z"/><path d="m82.58 25.57a17.48 17.48 0 0 0 4.51 5.43 3.29 3.29 0 0 0 .13-.88c0-.32-.26-.48-.5-.72-.44-.44-.89-.89-1.34-1.32-.91-.85-1.84-1.69-2.8-2.51z"/><path d="m85.88 25.65a9.85 9.85 0 0 1 1.64 2.35c.08-.62.18-.8-.33-1.24z"/></g><g fill="#dfeddc" opacity=".5"><path d="m43.69 88.32c.48 0 .49.05.78-.32s.53-.85.8-1.26c.57-.89 1.16-1.78 1.77-2.65q1.76-2.53 3.7-4.93a71.24 71.24 0 0 0 -7.05 9.16z"/><path d="m49.06 80.65c-.19.27-1 1.3-.19 1.14.48-.09 1.32-1.34 1.63-1.67a29.12 29.12 0 0 0 2.3-2.77 10.5 10.5 0 0 1 2-2.58 26.25 26.25 0 0 0 -5.74 5.88z"/><path d="m47.58 83.07c0 .81 3.36-.74 3.67-.91a20.43 20.43 0 0 0 4.26-3.39 46.15 46.15 0 0 0 -5 2.36c-.38.22-2.92 1.32-2.93 1.94z"/><path d="m46.67 85.36a11.61 11.61 0 0 0 4.33-1.5 12 12 0 0 0 2-1.14 4 4 0 0 1 1.38-.91 26 26 0 0 0 -4.83 1.74c-.8.33-2.63.84-2.88 1.81z"/><path d="m50.05 85.06a22.39 22.39 0 0 0 -5 2.11 37.61 37.61 0 0 0 10.38-3.29 8.18 8.18 0 0 1 -2.31.41 19.66 19.66 0 0 0 -3.07.77z"/><path d="m47.41 74.82a31.77 31.77 0 0 0 -.41 4.67c0 1-.22 2.44.36 3.38 1-.37.48-2.87.43-3.6-.11-1.48-.25-2.96-.38-4.45z"/><path d="m44.65 76.21a16.3 16.3 0 0 0 .35 4.46 17.71 17.71 0 0 0 1.07 4.15c.73-1.07.28-2.69 0-3.84a27.47 27.47 0 0 0 -1.42-4.77z"/><path d="m42.73 77.59a13.6 13.6 0 0 1 .27 2.22c.14.87.33 1.74.55 2.59s.48 1.56.74 2.33c.08.26.2 1 .55 1.11.89.17-.35-2.88-.43-3.11-.56-1.73-1.13-3.43-1.68-5.14z"/><path d="m40.23 79q.83 2.67 1.88 5.24c.2.49 1.56 3.92 1.87 3.71.69-.45-1-3.67-1.29-4.19-.79-1.6-1.69-3.13-2.46-4.76z"/><path d="m38.93 80.84a38.14 38.14 0 0 0 1.64 4.28c.31.63.64 1.24 1 1.87a6.31 6.31 0 0 0 .44 1c0 .3.16.41.43.34h.59a24.76 24.76 0 0 0 -1.85-3.58c-.75-1.33-1.49-2.63-2.25-3.91z"/><path d="m39.11 87.41c.39.68.66.64 1.41.72-1.16-1.76-2.25-3.57-3.25-5.44a15.46 15.46 0 0 0 1.84 4.72z"/><path d="m52.22 87.32a25.24 25.24 0 0 0 -4.2.78 32.4 32.4 0 0 0 4.2-.78z"/><path d="m37 87.57.33.07c-.23-.42-.46-.84-.67-1.28.08.41.19.81.34 1.21z"/></g><g opacity=".87"><path d="m3.89 10.52c.84-.38 2.31-.12 1.48 1a13.61 13.61 0 0 1 -2.84 2.18c-.87.67-1.67 1.3-1.62 2.44a4.45 4.45 0 0 0 1.19 2.56 13.52 13.52 0 0 1 3.21-4.35c.31-.27 1.65-1 1.52 0 0 .33-.67.84-.88 1.09l-.95 1.05a17.51 17.51 0 0 0 -1.73 2 2.65 2.65 0 0 0 -.27 2.37 5.23 5.23 0 0 0 2.15 3.25c.08-2.31.39-4.47 2.2-6.1.46-.41 2.17-1.57 2.49-.48.28.94-1.17 2-1.69 2.63a6.6 6.6 0 0 0 -1.37 2.84 2.24 2.24 0 0 0 0 1.51 3.11 3.11 0 0 0 1.22.89c1.75.93 4.41.81 5.5 2.73a8.8 8.8 0 0 1 .87-2.51 7.89 7.89 0 0 0 1.22-2c.5-1.55-1.2-2.71-2.22-3.57-.39-.33-1.14-.92-.81-1.52s1.38-.15 1.82.18a7 7 0 0 1 2.16 4 23.25 23.25 0 0 0 1.3-2.47c.32-.72.87-1.68.46-2.45-.74-1.41-3.05-1.85-4.4-2.36-.57-.22-1.69-.57-1-1.37s1.72-.36 2.38 0a7 7 0 0 1 3.68 3.36c.22-1.38.65-3.46-.06-4.78s-3.42-1.64-4.71-1.76c-.59-.05-1.4 0-1.85-.49-.67-.71.53-.75 1-.71a24.6 24.6 0 0 1 5.37 1.48c-.8-1.78-1.45-4-3-5.32a3.91 3.91 0 0 0 -2.71-1.11 13.69 13.69 0 0 0 -3.12 1.32c-3.1 1.5-6.25 3.46-8.26 6.33a8 8 0 0 1 2.27-1.86z" fill="#bfddbc"/><path d="m10.85 17.73c.54 2.29 1.08 4.57 1.61 6.86a59.19 59.19 0 0 0 -4.37-17.59c-.51.28-.29.38-.09.9s.37.93.53 1.4c.32.89.61 1.8.87 2.72.6 1.87 1 3.79 1.45 5.71z" fill="#9dbf9a"/></g><path d="m28.13 83c1.4-.67 3.16-2.23 3.3-3.91-2.21.83-4.44 1.37-6.65.19-.51-.28-1.88-1.28-1.34-1.98s2.25.12 2.88.35a6.63 6.63 0 0 0 3.18.35 3 3 0 0 0 1.57-.48 2.12 2.12 0 0 0 .44-1.24c.32-2.06-.92-4.67.49-6.48a8.74 8.74 0 0 1 -2.65.14 6.71 6.71 0 0 0 -2.51-.36c-1.26.24-1.76 1.83-2.09 2.89-.17.52-.33 1.68-1 1.82-.92.18-.92-1-.78-1.6a6.72 6.72 0 0 1 2.87-3.64c-1.35-.21-4.52-1-5.37.46s-.34 3.61-.36 5.21c0 .74-.42 1.48-1.23.81a2.59 2.59 0 0 1 -.58-2.23 6.91 6.91 0 0 1 1.7-4.39c-1.36.32-4.34.86-4.69 2.46-.23 1 .84 2 1.43 2.74s1.3 1.62 2 2.4a39.4 39.4 0 0 0 4.14 4c1.5 1.32 3.12 2.65 5.25 2.49z" fill="#a0e2ba"/><path d="m29.11 72.12a54.06 54.06 0 0 0 -9 5.85c.44.45.45.31 1-.06l1.17-.85 2.13-1.53q2.32-1.69 4.7-3.41z" fill="#6fa983"/><path d="m82.65 50.73c-.6-.68-.51-1.76-.65-2.59a10.09 10.09 0 0 0 -1-2.82c-.22-.43-.36-.78-.81-1a4.51 4.51 0 0 0 -1.51-.25 14.45 14.45 0 0 0 -3.27.37 7 7 0 0 1 3.42 3.4c.36.66.78 1.76.21 2.44-.75.9-1.26-.32-1.51-.9-.56-1.34-1-3.45-2.4-4.24s-3.85 1.15-5 1.87a7.09 7.09 0 0 1 3.92 1.91c.38.42 1.11 1.47.35 1.92-.59.35-1.21-.38-1.56-.76-.84-.93-2.05-2.57-3.51-2.13a7.14 7.14 0 0 0 -2.06 1.33 8.65 8.65 0 0 1 -2.47 1c1.91 1 1.9 3.55 2.84 5.23a3.66 3.66 0 0 0 .94 1.26 1.71 1.71 0 0 0 1.47.05 6.46 6.46 0 0 0 2.95-1.54c.6-.54 1.48-1.86 2.41-1.81 1.27.08.26 1.92-.13 2.41-1.54 2-3.76 2.38-6.12 2.54a5.27 5.27 0 0 0 3.32 2 2.6 2.6 0 0 0 2.33-.33 16.84 16.84 0 0 0 2-1.8l1-1c.24-.22.73-.86 1.06-.92 1-.17.27 1.2 0 1.52a13.67 13.67 0 0 1 -4.25 3.37 4.48 4.48 0 0 0 2.61 1.09c.73 0 .94-.14 1.24-.8s.63-1.44.94-2.16c1.28-2.8 2.32-5.71 3.24-8.66z" fill="#a0e2ba" opacity=".91"/><path d="m81.66 44.39a44.32 44.32 0 0 1 1.51 4.61c.16-.54.32-1.08.47-1.62a6.18 6.18 0 0 0 .48-1.79c-.12-.5-1.9-.97-2.46-1.2z" fill="#a0e2ba" opacity=".91"/><path d="m78.6 52.63a51.8 51.8 0 0 0 -10.14-1.48l7.1 1.4c1.11.22 2.21.44 3.31.68.55.12 1.1.24 1.65.38.24 0 .49.15.73.18.49.05.36.11.51-.33-1.05-.29-2.11-.56-3.16-.83z" fill="#6fa983" opacity=".91"/><g fill="#d45b9c"><path d="m14.71 65.42a9.89 9.89 0 0 1 -2.84-3.8 4.63 4.63 0 0 0 -1.47-1.94 1.83 1.83 0 0 0 -1.86 0c.53 1.28 1.08 3.5 2.27 4.25a14.29 14.29 0 0 0 3.9 1.49z"/><path d="m10.73 60.51a8.94 8.94 0 0 1 .65-.84c.36-.31.68-.29 1-.7a3.06 3.06 0 0 0 .35-2.63c-.52-1.75-2.14-3.42-1.17-5.35-1.69 1.4-2.06 3.65-2.29 5.71a11.53 11.53 0 0 1 -.27 1.65c-.14.57-.48 1-.36 1.5s.36 1.15.73 1.25 1.1-.3 1.36-.59z"/><path d="m17.53 59.67a6 6 0 0 0 -1.22-1.81 3.88 3.88 0 0 0 -2.12-.79c-.63 0-1.51-.09-2 .4-.25.28-.87 1.45-.7 1.8s1.29.8 1.63 1a11.28 11.28 0 0 0 2.34.71c1.72.39 3.49 1.06 5.29.74-1.43-.42-2.37-.72-3.22-2.05z"/><path d="m16.94 54.43a6.38 6.38 0 0 1 -.36-1.43 12.53 12.53 0 0 1 -.43-1.31 5.5 5.5 0 0 1 .44-3.2c-.51 0-1.11 1.59-1.29 1.91-.51.9-1.08 1.79-1.51 2.72s-1 4.38.59 4.85c.82.24 1.74-.72 2.11-1.22a7.32 7.32 0 0 1 .51-.75c.21-.23.7-.51.63-.85s-.55-.45-.69-.72z"/><path d="m21.2 53.63c-.66-.33-1.14-1-1.92-1.06a3.39 3.39 0 0 0 -2.1.75c-.91.6-2.6 1.94-1.27 3.13.83.74 3.33-.13 4.27-.43a18.68 18.68 0 0 0 2.35-1 5.93 5.93 0 0 0 1.92-1.07 5 5 0 0 1 -3.25-.32z"/><path d="m18.84 51.18c-.71.65-1.65 1.79-.89 2.76.55.71 2 .7 2.76.4 1-.4 1.06-1.33.94-2.28a4.51 4.51 0 0 1 .48-3.34 19.72 19.72 0 0 0 -3.29 2.46z"/><path d="m22.61 50.63c-.59-.09-1.06-.22-1.56.2a2.39 2.39 0 0 0 -.75 1.3c-.15.68 0 1.84.86 2s2-1 2.57-1.52a10.35 10.35 0 0 0 1.94-2.88 4.81 4.81 0 0 1 -3.06.9z"/><path d="m21.52 50c-.41 1.15 1.19 2 2.13 1.47.56-.32.48-1 .54-1.51a3.1 3.1 0 0 1 1-2.11c-1.37.29-3.12.68-3.67 2.15z"/><path d="m24 48.86c-.55.43-.6 1.64.28 1.67.56 0 .8-.48 1-.88a17.63 17.63 0 0 0 1-1.87c-.7.46-1.63.55-2.28 1.08z"/></g><path d="m13.79 65a11.08 11.08 0 0 1 -2.21-4c-.33-.83-1.93-3-2.79-1.35 1.66-1.21 2.73 3.46 3.32 4.11.07.08.38.3.37.4s-.16.14-.18.22c-.06.3-.38 0 0 .41a7 7 0 0 0 2 .78c.01-.23-.42-.57-.51-.57z" fill="#fbd977"/><path d="m12.69 56.18a23.26 23.26 0 0 1 -1.18-2.53 7 7 0 0 1 -.15-2.7 6.12 6.12 0 0 0 -.61 1.39c.46-.29.38 1.08.4 1.2a5.23 5.23 0 0 0 .67 1.67c.21.42.33.89.55 1.33a2.64 2.64 0 0 1 .29 1.9 2.74 2.74 0 0 0 .03-2.26z" fill="#fbd977"/><path d="m20.37 61.21c-.37-.14-.67 0-1-.24a4 4 0 0 1 -.72-.64 10.15 10.15 0 0 1 -1.25-1.73c-.63-.94-2.14-2.51-3.4-1.8.93-.13 1.74.73 2.29 1.36a13.26 13.26 0 0 1 1.48 2 2.07 2.07 0 0 0 1.62 1.34 3.27 3.27 0 0 0 1 .15c.26-.13.37-.29-.02-.44z" fill="#fbd977"/><path d="m17.12 53.2c-.13-.33-.38-.55-.52-.86a5.52 5.52 0 0 1 -.28-1.06 3.85 3.85 0 0 1 0-2.51 3.94 3.94 0 0 0 -.64 2.09c0 .79.45 1.11.73 1.78.11.25.07.53.17.78s.33.46.42.89c0 .06.1 1.48.15 1.48.77.11.02-2.45-.03-2.59z" fill="#fbd977"/><path d="m22.5 54c-1.16-.05-3.07-1.94-4.2-1.1.12.21 1 .25 1.2.33a10.18 10.18 0 0 1 1.58.89c1.14.67 2.16.27 3.24-.33a9.23 9.23 0 0 1 -1.82.21z" fill="#fbd977"/><path d="m21.26 50.31a3.76 3.76 0 0 0 .11 1.77c0 .13-.16 1.12.06 1.22.37.18.19-1.84.2-1.82a3.34 3.34 0 0 1 .45-2.77 3.4 3.4 0 0 0 -.82 1.6z" fill="#fbd977"/><path d="m23.21 50.26c-.46 0-1.2-.26-1.63 0 .39.42.05.37.73.41a4.85 4.85 0 0 0 1.36.19 3 3 0 0 0 2-1.32 3.33 3.33 0 0 1 -2.46.72z" fill="#fbd977"/><path d="m24.32 48.56a2.72 2.72 0 0 0 -.49 1.08c0 .4.09.79.35.25.11-.24.12-.62.24-.89a3.48 3.48 0 0 1 .75-1.39 2.87 2.87 0 0 0 -.85.95z" fill="#fbd977"/><path d="m25 48.59c-.51 0-.34.41.07.34-.05 0 .45-.37.39-.33.36-.27.68-.39.89-.82a3.35 3.35 0 0 1 -1.35.81z" fill="#fbd977"/><g fill="#24a194"><path d="m22.42 53.76c-1-.22-2.72-1.8-3.8-1 .17.12.45 0 .64.1a3.54 3.54 0 0 1 .93.37 7.71 7.71 0 0 0 1.52.76 3.66 3.66 0 0 0 2.85-.36 4.71 4.71 0 0 1 -2.14.13z"/><path d="m17.38 53.42a6.21 6.21 0 0 1 -.66-5.29 4.32 4.32 0 0 0 -.27 4 12.27 12.27 0 0 1 .77 1.74 9.58 9.58 0 0 1 .11 1.85c.74-.27.28-1.91.05-2.3z"/><path d="m19.08 60.37c-.71-.67-1.12-1.52-1.76-2.25a4.61 4.61 0 0 0 -.85-.8c-.31-.22-.68-.23-1-.41 2.07 1.38 2.81 4.64 5.64 4.7-.55-.61-1.44-.67-2.03-1.24z"/><path d="m12.88 58.08a1 1 0 0 0 0-.71c.04.24.02.47 0 .71z"/><path d="m12.89 56.07c-.24-.92-.93-1.66-1.14-2.61a15.65 15.65 0 0 1 -.19-2.74c-.76.68-.17 2.51.07 3.29a26.23 26.23 0 0 1 1.3 3.36 4.36 4.36 0 0 0 -.04-1.3z"/><path d="m14.5 65.21a7.5 7.5 0 0 1 -2.17-3.06c-.24-.55-.47-1.09-.75-1.62 0-.05-.74-1.31-.92-.89a6.16 6.16 0 0 1 1.41 2.73 9.29 9.29 0 0 0 2 3 1.86 1.86 0 0 1 -.25.08 3.46 3.46 0 0 0 1.24.24 2.38 2.38 0 0 0 -.56-.48z"/><path d="m21.82 49a3.91 3.91 0 0 0 -.29 2.26 6.49 6.49 0 0 1 .19 1.17c0 .12-.18.51-.06.6.73-1.47-.33-3.26.6-4.71a1.19 1.19 0 0 0 -.44.68z"/><path d="m24 50.15c-.49 0-1-.19-1.46-.17-.3 0-.64 0-.37.25s1.66.17 2 .09a3 3 0 0 0 1.55-.87 3.24 3.24 0 0 1 -1.72.7z"/><path d="m25.24 47.6c-.41.24-.64.88-.84 1.27a3.64 3.64 0 0 0 -.32.66c-.07.25 0 .55-.12.77 0-.07.34-.13.42-.23s.09-.63.13-.85a3.44 3.44 0 0 1 .78-1.53c-.12.03-.14 0-.05-.09z"/><path d="m24.79 48.42-.07.13c.33.44 1.46-.68 1.62-.82-.49.27-1.07.41-1.55.69z"/></g><path d="m71.91 71a6.8 6.8 0 0 0 -2.2 2.42 3.06 3.06 0 0 0 -.13 1.89c.28.85.7 0 1-.48.82-1 1.6-2.08 2.34-3.16a6.8 6.8 0 0 0 1.17-1.67 4 4 0 0 0 -.58-2.08 3.88 3.88 0 0 1 -1.6 3.08z" fill="#d45b9c"/><path d="m70.35 75.36v-.21c-.18.23-.37.46-.56.68.32-.03.53-.09.56-.47z" fill="#d45b9c"/><path d="m70.18 73.5a3.8 3.8 0 0 0 -2.18-1.08 3.53 3.53 0 0 0 -2.74.54 8.06 8.06 0 0 1 -2.19 1.46 5.38 5.38 0 0 1 -2.58-.11c1.7 1.11 3.92 1.19 5.87 1.52a7.76 7.76 0 0 0 3.11 0 1.64 1.64 0 0 0 .71-2.33z" fill="#d45b9c"/><path d="m70 64.33c0-.19-.09-.75-.29-.86a5.83 5.83 0 0 1 -.81 3.16 8.85 8.85 0 0 1 -.9 1 13.73 13.73 0 0 1 -.83 1.17c-.26.25-.94.31-1.12.59s.27 1 .38 1.38a4.4 4.4 0 0 1 0 .57 4 4 0 0 0 .92 1.66c.85.8 1.75 0 2.21-.76 1.44-2.5.76-5.18.44-7.91z" fill="#d45b9c"/><path d="m67.22 67.83a2.73 2.73 0 0 0 -3.29-1.43 4.88 4.88 0 0 1 -3.85-.89 8.42 8.42 0 0 0 2 2.45 14.28 14.28 0 0 0 2.85 2.41c.86.55 2 1.53 2.85.46s.06-2.06-.56-3z" fill="#d45b9c"/><path d="m64.37 61.49c.38 1.66-.78 2.69-1.28 4.12s.91 2.39 2.14 2.61c1.77.3 1.91-1.55 1.41-2.78a17.84 17.84 0 0 0 -2.27-3.95z" fill="#d45b9c"/><path d="m64.18 63.43c-.57-.41-1.38-.37-2-.77a6.4 6.4 0 0 1 -1.58-1.66c.08 1.85.52 4.2 1.9 5.55 1.66 1.65 3.18-2.02 1.68-3.12z" fill="#d45b9c"/><path d="m61.8 59.46a3.13 3.13 0 0 1 .27 1.79c-.08.51-.4 1-.44 1.51-.07.85.71 1.24 1.47 1.27 1.13 0 1.51-.84 1.21-1.87a5.36 5.36 0 0 0 -2.51-2.7z" fill="#d45b9c"/><path d="m62.05 60.27a10.56 10.56 0 0 1 -1.25-1.34 17.5 17.5 0 0 0 .2 2.17c0 .5.13 1.21.77 1.3a.84.84 0 0 0 .86-.64c.2-.62-.18-1.07-.58-1.49z" fill="#d45b9c"/><path d="m65.08 80.54.14-.11c-.11.04-.22.06-.14.11z" fill="#fbd977"/><path d="m72.88 69.81c-.89 1.51-3.71 2.63-3.41 4.68a2.61 2.61 0 0 1 1-1.62c.38-.36.74-.78 1.13-1.11a6.21 6.21 0 0 0 1.19-1.16c.1-.14.67-1.57 1-1.14a5.82 5.82 0 0 0 0-1.56 8.25 8.25 0 0 1 -.91 1.91z" fill="#fbd977"/><path d="m67.29 71.86c-1.66.2-2.76 1.43-4.23 2a3.12 3.12 0 0 1 -1.31.37c-.28 0-.57-.33-.86-.21-.59.24.18.39.43.46a3 3 0 0 0 1.93.12c.35-.14.46-.39.73-.59a6 6 0 0 1 .83-.44c1.14-.56 2.72-2 4.07-1.2a1.74 1.74 0 0 0 -1.59-.51z" fill="#fbd977"/><path d="m69.35 65.51a6.74 6.74 0 0 1 -1.35 1.77 6.27 6.27 0 0 0 -1.22 1.09c-.21.29-.83 1.13-.63 1.57s.27 0 .42-.34a4.26 4.26 0 0 1 1-1.31 9.17 9.17 0 0 1 1.07-1.09 3.28 3.28 0 0 0 1.22-3.35 3.26 3.26 0 0 1 -.51 1.66z" fill="#fbd977"/><path d="m65.19 66.34c-.87-.09-1.72.24-2.59.12a6 6 0 0 1 -2.32-1.09c.73.92 1.5 1.76 2.76 1.63.63-.06 1.22-.24 1.85-.24.18 0 1.3.3 1.46.17a1.57 1.57 0 0 0 -1.16-.59z" fill="#fbd977"/><path d="m64.22 63.52c0 .11-1.51 2.62-1 2.59.11 0 .4-.59.45-.72s0-.39.11-.5.33-.3.45-.47a3.5 3.5 0 0 0 .21-2.93 3 3 0 0 1 -.22 2.03z" fill="#fbd977"/><path d="m62.72 62.52a3.47 3.47 0 0 1 -2-1.7 3.19 3.19 0 0 0 1.33 2 3.69 3.69 0 0 0 1.21.33c.8.25.37.23 1-.07-.26-.33-1.11-.37-1.54-.56z" fill="#fbd977"/><path d="m62.35 60.46a3 3 0 0 0 -.42-1.24 3.82 3.82 0 0 1 .16 1.61 3.25 3.25 0 0 1 0 .54c0 .18-.22.3-.17.51.11.47.33.17.44-.12a2.86 2.86 0 0 0 -.01-1.3z" fill="#fbd977"/><path d="m61.72 60.23a3.38 3.38 0 0 1 -.95-1.31 2.33 2.33 0 0 0 .51 1.13c0 .06.26.48.24.47.35.23.67-.04.2-.29z" fill="#fbd977"/><path d="m65.06 66.15c-.93-.17-1.86.15-2.79 0a4.36 4.36 0 0 1 -2.14-1 3.78 3.78 0 0 0 2.55 1.49 8.54 8.54 0 0 0 1.75-.12 3.56 3.56 0 0 1 1 0c.21 0 .42.21.64.16a1.54 1.54 0 0 0 -1.01-.53z" fill="#24a194"/><path d="m68.3 66.73c-.53.68-1.37 1-1.86 1.69-.21.29-.69 1.26-.3 1.59a11.5 11.5 0 0 1 .7-1.46c.35-.64 1-1 1.44-1.46a4.48 4.48 0 0 0 1.45-4 6.78 6.78 0 0 1 -1.43 3.64z" fill="#24a194"/><path d="m66.61 71.85a7.79 7.79 0 0 0 -3 1.45 5.16 5.16 0 0 1 -1.47.62 10.67 10.67 0 0 0 -2 .19c2.7 1.07 4.72-1.72 7.23-2.21-.23.04-.49-.08-.76-.05z" fill="#24a194"/><path d="m72.87 69.13c-.81 1.72-2.6 2.44-3.23 4.24a21.35 21.35 0 0 1 2.47-2.56c.57-.66 2-2.22 1.49-3.21z" fill="#24a194"/><path d="m69.64 73.37a1.11 1.11 0 0 0 -.24.69z" fill="#24a194"/><path d="m63.78 63.59a4.72 4.72 0 0 0 -.71 2.2c.13 0 .19-.57.25-.71a10.4 10.4 0 0 1 .77-1.18c.37-.61.79-2.17.3-2.82a4.21 4.21 0 0 1 -.61 2.51z" fill="#24a194"/><path d="m63.15 62.4a3.43 3.43 0 0 1 -2.49-1.66 3.41 3.41 0 0 0 2.41 2c1.15.34.93-.12.08-.34z" fill="#24a194"/><path d="m62.06 59.81a1.38 1.38 0 0 0 -.2-.63c0 .12 0 .14-.08.06a3.67 3.67 0 0 1 .09 1.89c0 .21-.23.51-.18.73s.29.29.3.39c0-.29.18-.66.2-1a8 8 0 0 0 -.13-1.44z" fill="#24a194"/><path d="m61.33 59.52a7 7 0 0 1 -.56-.66c.09.2.71 1.72 1.2 1.42.16-.09-.59-.7-.64-.76z" fill="#24a194"/></svg>