<svg xmlns="http://www.w3.org/2000/svg" viewBox="0 0 88.48 88.64"><defs><style>.a,.e{fill:#fff;}.a,.b{fill-rule:evenodd;}.b{fill:#263068;}.c{opacity:0.45;}.d{fill:none;}</style></defs><title>Vagues2</title><path class="a" d="M44.24.08C19,.08,0,7.63,0,17.64A131.82,131.82,0,0,0,7.45,56C15.31,77.31,28,88.56,44.24,88.56,61.11,88.56,74.07,77,81.71,55a133.57,133.57,0,0,0,6.77-37.34C88.48,7.63,69.46.08,44.24.08Z"/><path class="b" d="M44.26,0c-11,0-22.73,1.14-32.94,5.59a23.8,23.8,0,0,0-9,6.15A9.88,9.88,0,0,0,.05,18.83a126,126,0,0,0,4.88,29.3c3,10.61,7.52,21.39,15.19,29.53A32.64,32.64,0,0,0,66,80.33c7.79-6.76,12.64-16.37,15.93-26a129.3,129.3,0,0,0,6.41-33.23,16.73,16.73,0,0,0-.17-5.78c-.87-3-3.29-5.26-5.79-6.94A41.27,41.27,0,0,0,70.43,3.21,87.33,87.33,0,0,0,53.74.37C50.59.12,47.42,0,44.26,0Z"/><g class="c"><path class="d" d="M25.7,2.76a5.53,5.53,0,0,1,4.22-1.3A5.82,5.82,0,0,1,32.05,2c.68.35,1.17.93,1.83,1.29a5.61,5.61,0,0,0,4.38.31c1.44-.49,2.32-1.73,3.88-2.06a5.87,5.87,0,0,1,4.41.72,14,14,0,0,0,1.62,1.15,5.46,5.46,0,0,0,2.32.49,5.53,5.53,0,0,0,2.19-.44,15.54,15.54,0,0,0,1.85-1.27A6,6,0,0,1,59,1.6c1.64.39,2.62,1.8,4.25,2.18A5.49,5.49,0,0,0,68.1,2.6,106.22,106.22,0,0,0,29,1a82.73,82.73,0,0,0-9.75,1.91A5.26,5.26,0,0,0,25.7,2.76Z"/><path class="d" d="M45.1,88.46a32.47,32.47,0,0,0,15.42-4.21,5.31,5.31,0,0,0-6.46,0A5.93,5.93,0,0,1,47.5,85c-1-.55-1.65-1.35-2.8-1.65a5.76,5.76,0,0,0-3.53.2c-1.07.43-1.78,1.36-2.88,1.76a6.22,6.22,0,0,1-3.39.21c-1.4-.29-2.15-1.27-3.38-1.85a5.65,5.65,0,0,0-4.33-.14,31.51,31.51,0,0,0,8.59,3.82,30.84,30.84,0,0,0,4.56.88C42,88.44,43.51,88,45.1,88.46Z"/><path class="d" d="M11.7,51.63a5.79,5.79,0,0,1,7.38,0,5.12,5.12,0,0,0,3.61,1.18,6.22,6.22,0,0,0,3.56-1.57,5.77,5.77,0,0,1,3.73-.9A6.59,6.59,0,0,1,33.52,52a5.37,5.37,0,0,0,3.77.81c1.48-.21,2.22-1.11,3.45-1.78a6.05,6.05,0,0,1,4-.56c1.39.27,2.12,1.15,3.3,1.79a5.57,5.57,0,0,0,4,.42c1.34-.35,2.13-1.43,3.39-1.92a6.17,6.17,0,0,1,3.89-.16c1.32.37,2.12,1.45,3.38,1.92a5.71,5.71,0,0,0,3.91,0c1.25-.47,2.05-1.55,3.37-1.92a6.11,6.11,0,0,1,4.37.37c.64.33,1.1.87,1.72,1.23a5.19,5.19,0,0,0,2.11.64,5.82,5.82,0,0,0,4.24-1.45c.45-.32.66-.39.83-1s.33-1.11.48-1.66c.31-1.09.6-2.19.88-3.29-1.61.32-2.55,1.63-4.07,2.1a6.13,6.13,0,0,1-4.26-.22c-1.29-.58-2.06-1.64-3.53-1.91a5.39,5.39,0,0,0-4.13.85,6.17,6.17,0,0,1-3.84,1.55,5.67,5.67,0,0,1-3.82-1.32,5.21,5.21,0,0,0-4-1.13,4.94,4.94,0,0,0-1.87.56c-.66.36-1.15.94-1.83,1.29a6.13,6.13,0,0,1-4.11.44c-1.45-.35-2.29-1.49-3.63-2a5.64,5.64,0,0,0-4.27.14c-1.28.6-2.05,1.62-3.53,1.9A5.91,5.91,0,0,1,33.49,47c-.53-.33-.94-.8-1.5-1.1a5.29,5.29,0,0,0-2.27-.6,5.4,5.4,0,0,0-3.8,1.34,6,6,0,0,1-6.27.49c-.67-.36-1.16-.95-1.84-1.29a5.59,5.59,0,0,0-4.73-.06c-.7.33-1.18.91-1.84,1.29A5.54,5.54,0,0,1,9,47.78a5.94,5.94,0,0,1-4.55-1.44c.3,1.13.62,2.26,1,3.38l.5,1.61c.2.64.19,1.05.86,1.25A5.25,5.25,0,0,0,11.7,51.63Z"/><path class="d" d="M18.54,67.47a5.34,5.34,0,0,0,6.1.45,9.86,9.86,0,0,1,2.57-1.54,6.18,6.18,0,0,1,3.41,0,9.86,9.86,0,0,1,2.57,1.54,5.4,5.4,0,0,0,3.29.7c2.2-.2,3.42-2.09,5.57-2.41a6.25,6.25,0,0,1,3.12.33c1,.41,1.73,1.3,2.76,1.72a5.74,5.74,0,0,0,3.15.29A7.57,7.57,0,0,0,53.94,67a6,6,0,0,1,6-.14,11,11,0,0,0,2.56,1.56,5.86,5.86,0,0,0,3.42-.08c1.14-.39,1.88-1.37,3-1.81a6.28,6.28,0,0,1,3.64-.23,5.29,5.29,0,0,1,1.66.7c.32.21,1.19,1.21,1.6,1.12s1-1.86,1.2-2.19c.4-.76.79-1.52,1.16-2.3a5.94,5.94,0,0,1-2.32-.43A10.51,10.51,0,0,1,74,61.94,5.41,5.41,0,0,0,70,61.25c-1.43.26-2.18,1.25-3.42,1.85a6.15,6.15,0,0,1-4,.38c-1.34-.32-2.09-1.29-3.28-1.84a5.69,5.69,0,0,0-4-.24c-1.28.41-2.09,1.51-3.37,1.94a6.22,6.22,0,0,1-4-.05c-1.26-.45-2.07-1.55-3.38-1.92a5.67,5.67,0,0,0-3.89.27c-1.24.57-2,1.57-3.4,1.87a6.1,6.1,0,0,1-4-.47c-1.23-.63-2-1.58-3.43-1.82A5.41,5.41,0,0,0,26,62a6.67,6.67,0,0,1-3.4,1.6,5.79,5.79,0,0,1-3.87-.89c-1.34-.94-2.37-1.64-4.1-1.56a5.41,5.41,0,0,0-2.16.53,4.81,4.81,0,0,0-.91.64c-.2.16-1,.53-1,.69s.64,1.32.75,1.54c.22.45.45.89.68,1.33.1.19.19.53.35.65s.29.07.6,0a6.45,6.45,0,0,1,1.07-.27A5.58,5.58,0,0,1,18.54,67.47Z"/><path class="d" d="M32.6,78.48a5.17,5.17,0,0,0,4.15,1.12c1.52-.21,2.29-1.18,3.57-1.84a6.09,6.09,0,0,1,4.36-.37c1.36.39,2.19,1.52,3.5,2a5.58,5.58,0,0,0,4.37-.31c.59-.32,1-.83,1.61-1.17a5.47,5.47,0,0,1,2.08-.67,5.75,5.75,0,0,1,4.11,1,5.79,5.79,0,0,0,3.86,1.49c1.82,0,2.93-1.05,4.4-2a10.1,10.1,0,0,0,2.16-2.26c.79-1,1.54-1.94,2.26-3a5.83,5.83,0,0,0-3.23-.18,8.9,8.9,0,0,0-2.73,1.55A6,6,0,0,1,61.3,74a17.06,17.06,0,0,0-2.42-1.54,5.89,5.89,0,0,0-3.17-.14,6.28,6.28,0,0,0-2.39,1.34,5.44,5.44,0,0,1-2.91,1,6,6,0,0,1-2.83-.48c-.93-.42-1.57-1.23-2.53-1.62a5.49,5.49,0,0,0-5.6,1,5.88,5.88,0,0,1-5.7.76,21.59,21.59,0,0,1-2.3-1.5,5.52,5.52,0,0,0-3.07-.58,5.26,5.26,0,0,0-3,1.32,5.48,5.48,0,0,1-3.11,1.14A5.85,5.85,0,0,1,19,73.93c-1.14-.66-1.86-1.48-3.24-1.7a48.1,48.1,0,0,0,3.89,4.88q1,1.06,2,2.07a1.14,1.14,0,0,0,1.27.36,5.13,5.13,0,0,0,1.33-.41c.7-.34,1.2-.94,1.88-1.31a5.79,5.79,0,0,1,2.11-.63A5.52,5.52,0,0,1,32.6,78.48Z"/><path class="d" d="M12,13.78a5.77,5.77,0,0,1,7.28-.09A5.28,5.28,0,0,0,22.82,15a5.87,5.87,0,0,0,3.59-1.49,5.9,5.9,0,0,1,7.18.48,5.25,5.25,0,0,0,3.7,1c1.51-.14,2.29-.93,3.5-1.68a5.9,5.9,0,0,1,3.79-.75A7.41,7.41,0,0,1,48,14.16a5.43,5.43,0,0,0,3.92.7c1.39-.26,2.12-1.19,3.31-1.8a6.08,6.08,0,0,1,3.85-.5c1.39.27,2.13,1.15,3.3,1.79a5.6,5.6,0,0,0,4,.42c1.29-.34,2.06-1.37,3.26-1.87A6.13,6.13,0,0,1,74,12.81c1.4.51,2.26,1.71,3.77,2A5.36,5.36,0,0,0,82,14a6.15,6.15,0,0,1,4.79-1.49,13.15,13.15,0,0,0-1.77-2,14.24,14.24,0,0,0-1.17-1c-.22-.18-.93-.89-1.2-.86s-.67.53-.83.62a5.19,5.19,0,0,1-.93.42,6.26,6.26,0,0,1-2.35.29,5.74,5.74,0,0,1-2-.48,15.51,15.51,0,0,1-1.84-1.28,5.59,5.59,0,0,0-4.47-.47c-1.45.46-2.35,1.72-3.87,2.08A6,6,0,0,1,62,9.23c-.62-.36-1.08-.9-1.73-1.23A5.31,5.31,0,0,0,58,7.46a5.57,5.57,0,0,0-2.21.38A11.17,11.17,0,0,0,53.92,9.1a5.92,5.92,0,0,1-4.29.74c-1.62-.31-2.52-1.58-4-2.09a5.63,5.63,0,0,0-4.37.31c-.63.34-1.09.89-1.72,1.23a6,6,0,0,1-6.46-.66,5.33,5.33,0,0,0-4.15-1.12c-1.64.23-2.48,1.4-3.92,2a6.21,6.21,0,0,1-4.51.05,10.38,10.38,0,0,1-2-1.31,5,5,0,0,0-2.33-.77,5.68,5.68,0,0,0-2.61.36,12.75,12.75,0,0,0-2,1.34,6,6,0,0,1-5.08.39C6.22,9.46,5.64,9,5.36,9S4.25,9.83,4,10.08A14.08,14.08,0,0,0,1.8,12.47a5.55,5.55,0,0,1,3,.92A7.48,7.48,0,0,0,7,14.74,5.3,5.3,0,0,0,12,13.78Z"/><path class="d" d="M25.23,73a5.71,5.71,0,0,1,5.13-1.15c1.73.41,2.76,1.91,4.52,2.23a5.79,5.79,0,0,0,2.65-.12,8.29,8.29,0,0,0,2.35-1.42,6,6,0,0,1,5-.55,8.29,8.29,0,0,1,2.12,1.32,4.89,4.89,0,0,0,2.56.85,5.54,5.54,0,0,0,2.48-.37c.88-.35,1.46-1.08,2.29-1.5a6,6,0,0,1,5.09-.11c.79.35,1.32,1,2.07,1.4a5.31,5.31,0,0,0,2.8.59,5,5,0,0,0,2.7-.86,6.93,6.93,0,0,1,2.86-1.51,6.4,6.4,0,0,1,1.45-.1c.56,0,1.16.3,1.7.3s.32,0,.58-.36.49-.73.72-1.09c.42-.65.82-1.3,1.2-2-1.07-.53-1.79-1.41-3-1.72a5.75,5.75,0,0,0-3.41.15c-1,.38-1.67,1.23-2.64,1.67a6.17,6.17,0,0,1-3.37.42,5.69,5.69,0,0,1-2.85-1.33,5,5,0,0,0-3.11-1.09,5.07,5.07,0,0,0-3.1.86A7,7,0,0,1,51.2,69a6.23,6.23,0,0,1-3.26-.24c-1-.37-1.68-1.21-2.65-1.66a5.61,5.61,0,0,0-3.38-.39,6.71,6.71,0,0,0-2.76,1.47,5.9,5.9,0,0,1-6.3.07A7.4,7.4,0,0,0,30,66.75a5.68,5.68,0,0,0-3.26.34c-1.15.5-1.89,1.47-3.14,1.83a6.22,6.22,0,0,1-3.65-.08c-1.24-.41-2-1.48-3.26-1.89a5.69,5.69,0,0,0-4.08.19c.41.74.83,1.47,1.27,2.19a11.7,11.7,0,0,0,1.33,2.08c.31.3.37.28.84.37A5.79,5.79,0,0,1,17,72a6.07,6.07,0,0,1,1.76,1.1A5.3,5.3,0,0,0,25.23,73Z"/><path class="d" d="M12,8.27A5.78,5.78,0,0,1,19,8a6,6,0,0,0,3.19,1.47,5.21,5.21,0,0,0,3.6-.91A6.22,6.22,0,0,1,29.06,7a5.89,5.89,0,0,1,3.65.76c1.08.67,1.78,1.42,3.11,1.63a5.46,5.46,0,0,0,3.69-.65C40.62,8,41.36,7.27,42.73,7a6,6,0,0,1,3.72.52c1.09.55,1.79,1.44,3,1.74a5.58,5.58,0,0,0,3.75-.4c1.14-.57,1.86-1.48,3.16-1.78a6.06,6.06,0,0,1,3.76.28c1.16.48,1.91,1.48,3.14,1.83A5.74,5.74,0,0,0,67,9.06c1.29-.52,2.09-1.61,3.51-1.94a6,6,0,0,1,4.22.5c.59.32,1,.83,1.6,1.16a5.06,5.06,0,0,0,2,.63,5.15,5.15,0,0,0,4-1.12,36.82,36.82,0,0,0-8-3.86A27.78,27.78,0,0,0,69.1,2.85c-.5-.07-.54,0-.95.35a6.77,6.77,0,0,1-.71.52,5.45,5.45,0,0,1-1.83.63,6.11,6.11,0,0,1-3.72-.51C60.74,3.25,60,2.35,58.72,2.07A5.56,5.56,0,0,0,55,2.55C53.85,3.16,53.14,4,51.8,4.3A6.11,6.11,0,0,1,48.05,4c-1.19-.54-1.94-1.54-3.27-1.85A5.58,5.58,0,0,0,41,2.49c-1.14.57-1.86,1.48-3.16,1.79A6.2,6.2,0,0,1,34.11,4C33,3.51,32.21,2.51,31,2.16a5.68,5.68,0,0,0-3.77.22c-1.15.5-1.9,1.48-3.14,1.83a6.17,6.17,0,0,1-4.25-.32c-.31-.15-.56-.36-.86-.53s-.32-.29-.88-.13c-1,.29-2,.59-3,.93A36.75,36.75,0,0,0,5.79,8.65,5.31,5.31,0,0,0,12,8.27Z"/><path class="d" d="M11.43,35.11a5.78,5.78,0,0,1,7.38,0,5.17,5.17,0,0,0,3.61,1.17A6.2,6.2,0,0,0,26,34.72a5.79,5.79,0,0,1,3.74-.91,6.7,6.7,0,0,1,3.53,1.61,5.33,5.33,0,0,0,3.77.82c1.48-.21,2.22-1.11,3.45-1.78a6.06,6.06,0,0,1,4-.56c1.39.27,2.12,1.15,3.3,1.79a5.65,5.65,0,0,0,4,.42c1.33-.35,2.13-1.43,3.38-1.92A6.17,6.17,0,0,1,59,34c1.32.38,2.12,1.46,3.38,1.93a5.71,5.71,0,0,0,3.91,0c1.25-.47,2-1.55,3.37-1.93A6.12,6.12,0,0,1,74,34.4c.64.33,1.1.87,1.72,1.23a5.19,5.19,0,0,0,2.11.64,5.71,5.71,0,0,0,4.2-1.42A5.82,5.82,0,0,1,86.9,34c.18-1.11.34-2.23.5-3.35,0-.24.3-1.22.18-1.4s-1.08-.33-1.35-.37a5.82,5.82,0,0,0-2.52.2,7.85,7.85,0,0,0-2.1,1.3,5.85,5.85,0,0,1-4.52.79C75.46,30.81,74.51,29.46,73,29a5.48,5.48,0,0,0-4.55.65,6.45,6.45,0,0,1-4.2,1.63,6,6,0,0,1-2.3-.49,15.87,15.87,0,0,1-1.84-1.28,5.55,5.55,0,0,0-4.59-.43,6.81,6.81,0,0,0-1.89,1.2,5.16,5.16,0,0,1-2.25.91,5.81,5.81,0,0,1-4.47-1,5.61,5.61,0,0,0-4.43-1.36c-1.68.23-2.54,1.46-4,2a6.18,6.18,0,0,1-4.63-.1A13.17,13.17,0,0,1,32,29.59a4.89,4.89,0,0,0-2.32-.77,5.77,5.77,0,0,0-4.26,1.47,5.87,5.87,0,0,1-4.5.89c-1.81-.34-2.87-1.89-4.64-2.26a5.75,5.75,0,0,0-4.93,1.37,5.9,5.9,0,0,1-5,.77,6.28,6.28,0,0,1-2.21-1.28A5.09,5.09,0,0,0,1,28.8c.11.82.23,1.63.35,2.45a9,9,0,0,0,.35,2.22c-.07.34.06.48.37.42a4.29,4.29,0,0,1,.6.13,5.44,5.44,0,0,1,.86.29,8.55,8.55,0,0,1,1.5,1A5.28,5.28,0,0,0,11.43,35.11Z"/><path class="d" d="M19.08,57.14a5.29,5.29,0,0,0,6.5.16A6,6,0,0,1,32,56.37c1,.5,1.74,1.4,2.9,1.73A5.78,5.78,0,0,0,38.32,58c1.1-.38,1.82-1.31,2.88-1.76a6.29,6.29,0,0,1,3.51-.33,7,7,0,0,1,2.87,1.52,5.39,5.39,0,0,0,6.5-.48,5.48,5.48,0,0,1,3.23-1.15,5.87,5.87,0,0,1,3.26.79c1,.64,1.71,1.38,3,1.61a5.63,5.63,0,0,0,3.5-.45c1-.5,1.67-1.34,2.78-1.68a6.2,6.2,0,0,1,3.9.08c1.26.46,2.07,1.56,3.39,1.93a5.87,5.87,0,0,0,2.13.18,3.06,3.06,0,0,0,1.12-.22c.38-.21.42-.5.58-.93.69-1.8,1.31-3.63,1.88-5.47a7.15,7.15,0,0,1-3.61,1.64,5.78,5.78,0,0,1-3.84-1,5.85,5.85,0,0,0-3.59-1.5,5.42,5.42,0,0,0-3.67,1.34,5.86,5.86,0,0,1-7.37-.32,5.6,5.6,0,0,0-5.59-.48c-.64.33-1.1.87-1.72,1.23a5.94,5.94,0,0,1-3.81.66c-1.48-.22-2.24-1.06-3.46-1.77a5.53,5.53,0,0,0-4-.51c-1.37.32-2.15,1.38-3.39,1.9a6.17,6.17,0,0,1-4,.22c-1.32-.38-2.12-1.46-3.37-1.93a5.71,5.71,0,0,0-4,.05c-1.2.48-2,1.51-3.26,1.88a6.08,6.08,0,0,1-4.47-.44c-.63-.34-1.1-.89-1.72-1.23a5.28,5.28,0,0,0-2.27-.59,5.91,5.91,0,0,0-4.05,1.53A6,6,0,0,1,6.47,53c.29.85.58,1.71.89,2.55A10,10,0,0,0,8.28,58c0,.33.17.44.47.32s.44,0,.67-.08a6.37,6.37,0,0,0,.95-.26,8.87,8.87,0,0,0,1.82-1.21A5.78,5.78,0,0,1,19.08,57.14Z"/><path class="d" d="M11.43,40.62a5.47,5.47,0,0,1,4-1.32,6.62,6.62,0,0,1,3.8,1.63,5.39,5.39,0,0,0,4.16.74c1.47-.3,2.3-1.45,3.64-2a6.21,6.21,0,0,1,4.27,0c1.34.49,2.19,1.66,3.63,2A5.45,5.45,0,0,0,39.08,41c1.26-.85,2.16-1.59,3.77-1.69a5.68,5.68,0,0,1,4,1.23,5.35,5.35,0,0,0,4,1.23,5,5,0,0,0,2-.58c.59-.32,1-.83,1.61-1.17a6,6,0,0,1,4.33-.56c1.41.34,2.22,1.43,3.51,1.95a5.64,5.64,0,0,0,4.27,0c1.33-.58,2.13-1.66,3.65-2a5.93,5.93,0,0,1,4.18.68c.57.35,1,.86,1.61,1.16a5.42,5.42,0,0,0,2.16.54,5.71,5.71,0,0,0,3.94-1.45,5.23,5.23,0,0,1,2.17-.92c.41-.07.83,0,1.23-.1s.31.09.5-.18a3.91,3.91,0,0,0,.19-1c.18-1,.36-2,.53-3,.11-.63.21-.75-.47-.84a6.27,6.27,0,0,0-1.37,0,5,5,0,0,0-2.21.71,14.19,14.19,0,0,1-1.81,1.25,6.19,6.19,0,0,1-4.26.23c-1.37-.43-2.24-1.62-3.62-2a5.56,5.56,0,0,0-4.12.38c-.59.32-1,.83-1.61,1.17a5.64,5.64,0,0,1-2.22.69,5.73,5.73,0,0,1-4-1,5.78,5.78,0,0,0-4-1.49c-1.57.07-2.42.82-3.66,1.63a5.88,5.88,0,0,1-4.16.77A5.29,5.29,0,0,1,47.29,36a17.29,17.29,0,0,0-1.73-1.21,5.64,5.64,0,0,0-4.27-.15c-1.34.5-2.18,1.65-3.63,2a6.05,6.05,0,0,1-4.22-.5c-.59-.32-1-.83-1.61-1.17a5.19,5.19,0,0,0-2.11-.64,5.33,5.33,0,0,0-4,1.24,5.71,5.71,0,0,1-4,1.23,6.61,6.61,0,0,1-3.67-1.63,5.44,5.44,0,0,0-4.29-.71c-1.4.33-2.21,1.44-3.51,1.95a6.15,6.15,0,0,1-4.39,0,6,6,0,0,1-1.6-1,4.86,4.86,0,0,0-2.44-1c.26,1.49.54,3,.84,4.45.11.52.09.6.47.86s.58.24.85.4c.51.31.91.76,1.43,1.06A5.34,5.34,0,0,0,11.43,40.62Z"/><path class="d" d="M11.7,46.13a5.78,5.78,0,0,1,7.38,0A5.21,5.21,0,0,0,23,47.28c1.46-.13,2.24-.86,3.39-1.61a5.87,5.87,0,0,1,4-.79c1.48.21,2.25,1,3.46,1.76a5.54,5.54,0,0,0,4,.52c1.36-.32,2.15-1.39,3.39-1.9a6.16,6.16,0,0,1,4-.22c1.32.38,2.12,1.46,3.37,1.93a5.71,5.71,0,0,0,4,0c1.25-.5,2-1.56,3.39-1.91a6.18,6.18,0,0,1,4,.29c1.29.58,2.07,1.64,3.53,1.91a5.54,5.54,0,0,0,3.83-.63c.57-.36,1-.86,1.61-1.17a5.81,5.81,0,0,1,2-.57A5.75,5.75,0,0,1,75.15,46a5.39,5.39,0,0,0,4.2,1.31,4.91,4.91,0,0,0,2.19-.76,10.62,10.62,0,0,1,2-1.31c.41-.15,1-.19,1.23-.5a5.54,5.54,0,0,0,.39-1.64c.25-1.07.48-2.15.7-3.22a5.7,5.7,0,0,0-2.49.36,16.74,16.74,0,0,0-2.06,1.37,6,6,0,0,1-4.33.57c-1.45-.35-2.29-1.5-3.63-2a5.69,5.69,0,0,0-4.27.15,14,14,0,0,0-1.62,1.15,5.43,5.43,0,0,1-2.17.8A5.8,5.8,0,0,1,61,41.3a5.79,5.79,0,0,0-3.86-1.49,5.39,5.39,0,0,0-2.06.43,11.68,11.68,0,0,0-1.74,1.2,5.91,5.91,0,0,1-4.29.75c-1.55-.3-2.38-1.44-3.77-2a5.68,5.68,0,0,0-4.27.05,9.67,9.67,0,0,0-1.63,1.13,5.07,5.07,0,0,1-2.15.84,5.89,5.89,0,0,1-4.16-.77,13.07,13.07,0,0,0-1.61-1.15,5.46,5.46,0,0,0-2.32-.49,6.24,6.24,0,0,0-3.83,1.57,5.8,5.8,0,0,1-4.26.84,5.07,5.07,0,0,1-2.24-.91A6.72,6.72,0,0,0,17,40.1a5.44,5.44,0,0,0-4.79.57,6.49,6.49,0,0,1-4.47,1.62,5.87,5.87,0,0,1-2.26-.59A20.4,20.4,0,0,0,3,40.14c.3,1.38.62,2.77,1,4.15a4.68,4.68,0,0,0,.28,1.1,1.81,1.81,0,0,0,.56.54A7.36,7.36,0,0,0,6,46.82,5.36,5.36,0,0,0,11.7,46.13Z"/><path class="d" d="M18.54,62a5.31,5.31,0,0,0,6.2.38,7.9,7.9,0,0,1,2.86-1.56,6.23,6.23,0,0,1,3.26.17c1.09.36,1.77,1.23,2.77,1.7a5.58,5.58,0,0,0,3.25.41,6.7,6.7,0,0,0,2.9-1.49,5.65,5.65,0,0,1,3.07-.93,5.75,5.75,0,0,1,3.23.86A7.73,7.73,0,0,0,48.81,63a5.74,5.74,0,0,0,3.4-.32c1-.42,1.63-1.27,2.64-1.66a6.28,6.28,0,0,1,3.38-.29,7,7,0,0,1,2.88,1.52A5.37,5.37,0,0,0,67.33,62a5.9,5.9,0,0,1,6.88-.54c1.21.8,2,1.53,3.59,1.61.63,0,.67-.1.94-.67l.54-1.2q.57-1.34,1.11-2.67a6.17,6.17,0,0,1-4.13-.24c-1.2-.53-2-1.54-3.29-1.85a5.64,5.64,0,0,0-3.75.39c-1.13.57-1.86,1.48-3.16,1.79a6.28,6.28,0,0,1-3.64-.23C61.26,58,60.49,57,59.29,56.58a5.73,5.73,0,0,0-3.79.13c-1.15.47-1.9,1.46-3.13,1.84a6.15,6.15,0,0,1-3.77,0c-1.2-.4-2-1.41-3.13-1.84a5.73,5.73,0,0,0-3.79-.05c-1.14.39-1.88,1.37-3,1.81a6.15,6.15,0,0,1-3.77.19c-1.28-.33-2-1.27-3.15-1.81a5.66,5.66,0,0,0-3.76-.3c-1.27.33-2,1.3-3.15,1.82a6.17,6.17,0,0,1-4.13.26c-1.36-.39-2.19-1.52-3.5-2a5.67,5.67,0,0,0-4.26.25c-.65.33-1.13.89-1.77,1.25a5.67,5.67,0,0,1-2.58.68c.52,1.27,1.07,2.53,1.65,3.77.67-.34,1.16-.9,1.82-1.26a5.5,5.5,0,0,1,2.24-.64A5.52,5.52,0,0,1,18.54,62Z"/><path class="d" d="M5.28,19.28A5.09,5.09,0,0,0,9.43,20.4c1.61-.22,2.41-1.32,3.8-1.95a6.18,6.18,0,0,1,4.38-.18c1.4.47,2.28,1.69,3.75,2a5.4,5.4,0,0,0,4.29-.72A6.57,6.57,0,0,1,29.45,18a5.79,5.79,0,0,1,4.05,1.39,5.28,5.28,0,0,0,4.19,1c1.57-.25,2.39-1.39,3.78-2a6.15,6.15,0,0,1,4.27-.14c1.4.47,2.27,1.69,3.75,2a5.4,5.4,0,0,0,4.29-.72A6.53,6.53,0,0,1,57.72,18a5.94,5.94,0,0,1,4,1.48,5.31,5.31,0,0,0,4.23.92c1.54-.28,2.38-1.46,3.77-2a6.11,6.11,0,0,1,4.85.2c.68.35,1.17.94,1.84,1.3a5.26,5.26,0,0,0,2.4.59A5.45,5.45,0,0,0,81.26,20c.75-.35,1.27-1,2-1.37a6.05,6.05,0,0,1,5.24-.08,11.51,11.51,0,0,0-.09-2.27,8.07,8.07,0,0,0-.44-1.6c-.16-.4-.41-1.3-.77-1.54-.61-.41-2.13-.11-2.77.07a8.09,8.09,0,0,0-2.38,1.42,6,6,0,0,1-4.81.63c-1.6-.46-2.58-1.86-4.26-2.17a5.48,5.48,0,0,0-4.6,1.24,5.77,5.77,0,0,1-4.69,1C62,15,61,13.64,59.43,13.18a5.38,5.38,0,0,0-4.74.8,6,6,0,0,1-4.54,1.45,5.66,5.66,0,0,1-2.22-.7,16.93,16.93,0,0,0-2.07-1.38,5.54,5.54,0,0,0-4.83.34A14.77,14.77,0,0,1,39.18,15a5.94,5.94,0,0,1-2.56.5,5.87,5.87,0,0,1-2.3-.5c-.78-.35-1.32-1-2.06-1.4a5.58,5.58,0,0,0-4.85-.11c-.7.32-1.18.9-1.84,1.28a5.54,5.54,0,0,1-2.35.71,6.18,6.18,0,0,1-4.5-1.54,5.45,5.45,0,0,0-5.37-.45c-.81.38-1.37,1.07-2.18,1.46a5.89,5.89,0,0,1-2.68.55,5.77,5.77,0,0,1-2.75-.73,12.69,12.69,0,0,0-2.38-1.49A3.77,3.77,0,0,0,1.62,13c-.46.14-.8,1.13-1,1.59a9.07,9.07,0,0,0-.58,3.61A5.73,5.73,0,0,1,5.28,19.28Z"/><path class="d" d="M4.74,24.1a5.14,5.14,0,0,0,4.15,1.13c1.61-.22,2.41-1.33,3.8-1.95a6.13,6.13,0,0,1,4.38-.19c1.4.47,2.28,1.7,3.75,2a5.47,5.47,0,0,0,4.3-.71,6.51,6.51,0,0,1,3.93-1.64,6,6,0,0,1,4,1.49,5.31,5.31,0,0,0,4.22.91c1.54-.28,2.39-1.46,3.77-2a6.15,6.15,0,0,1,4.39,0c1.39.54,2.23,1.72,3.77,2a5.33,5.33,0,0,0,4.23-.91,5.88,5.88,0,0,1,3.87-1.49,6.17,6.17,0,0,1,4,1.56,5.36,5.36,0,0,0,4.26.82c1.5-.32,2.37-1.52,3.76-2a6.07,6.07,0,0,1,4.85.31c.7.38,1.22,1,1.95,1.34A5.67,5.67,0,0,0,81,24.68c.72-.39,1.25-1,2-1.38a6.07,6.07,0,0,1,5.23.15c.08-1,.16-2.06.22-3.08a3.71,3.71,0,0,0,0-1.1c-.14-.41-.64-.51-1.12-.63a5.42,5.42,0,0,0-4.89,1.17,5.84,5.84,0,0,1-4.7,1c-1.69-.32-2.65-1.71-4.25-2.17a5.44,5.44,0,0,0-4.84.88A5.9,5.9,0,0,1,64,20.9a5.62,5.62,0,0,1-2.17-.79,9.07,9.07,0,0,0-2.1-1.35,5.5,5.5,0,0,0-4.8.57,6.39,6.39,0,0,1-4.6,1.61,5.72,5.72,0,0,1-2.35-.7,15.92,15.92,0,0,0-2.07-1.39,5.54,5.54,0,0,0-4.83.34,14.84,14.84,0,0,1-1.85,1.28,5.93,5.93,0,0,1-2.56.49,5.74,5.74,0,0,1-2.41-.55c-.77-.36-1.31-1-2.06-1.4a5.57,5.57,0,0,0-5,.06c-.66.36-1.15.94-1.83,1.29a5.71,5.71,0,0,1-2.53.6,6,6,0,0,1-2.33-.39,12.94,12.94,0,0,1-2.08-1.38,5.48,5.48,0,0,0-5.51,0,11.81,11.81,0,0,1-2.2,1.42A6.08,6.08,0,0,1,8,20.93a5.33,5.33,0,0,1-2.64-1,6.12,6.12,0,0,0-2.63-1.38,6,6,0,0,0-1.47-.09,2.52,2.52,0,0,0-.87.13c-.33.17-.28.11-.26.57.05,1.22.14,2.43.25,3.65A5.59,5.59,0,0,1,4.74,24.1Z"/><path class="d" d="M4.74,29.61a5.14,5.14,0,0,0,4.15,1.12c1.61-.22,2.41-1.32,3.8-1.95A6.12,6.12,0,0,1,17,28.56c1.41.44,2.3,1.66,3.75,2a5.53,5.53,0,0,0,4.21-.54c.57-.36,1-.86,1.61-1.17a5.92,5.92,0,0,1,2.26-.59,5.66,5.66,0,0,1,4.09,1.31A5.33,5.33,0,0,0,37,30.73c1.57-.21,2.35-1.25,3.68-1.89A6.17,6.17,0,0,1,45,28.52c1.44.41,2.32,1.64,3.75,2.05A5.58,5.58,0,0,0,53,30.06c.57-.36,1-.86,1.61-1.17a5.92,5.92,0,0,1,2.26-.59,5.66,5.66,0,0,1,4,1.23A5.33,5.33,0,0,0,65,30.75a5.11,5.11,0,0,0,2-.63c.62-.36,1.08-.9,1.72-1.23a6.13,6.13,0,0,1,4.86-.21,10.46,10.46,0,0,1,2,1.31,4.89,4.89,0,0,0,2.32.77,5.79,5.79,0,0,0,2.37-.27,10.57,10.57,0,0,0,2.16-1.38,6,6,0,0,1,5.24-.4c.13-1.05.25-2.1.35-3.15a4.42,4.42,0,0,0,.14-1.42c-.16-.37-.78-.54-1.21-.66a5.37,5.37,0,0,0-4.63.82,6,6,0,0,1-4.42,1.47,5.89,5.89,0,0,1-2.13-.59c-.75-.38-1.29-1-2-1.4a5.62,5.62,0,0,0-4.63,0c-.69.32-1.18.9-1.83,1.28a5.7,5.7,0,0,1-2.49.72,6,6,0,0,1-4.27-1.47,5.4,5.4,0,0,0-4.61-.84c-1.57.41-2.53,1.77-4.13,2.15a5.89,5.89,0,0,1-4.65-.76,8.74,8.74,0,0,0-1.76-1.18,5.67,5.67,0,0,0-2.61-.37,5,5,0,0,0-2.22.71,16.69,16.69,0,0,1-1.84,1.27,6.15,6.15,0,0,1-4.87,0A12.82,12.82,0,0,1,32,24.09a4.89,4.89,0,0,0-2.32-.77,5.62,5.62,0,0,0-2.37.27,7.41,7.41,0,0,0-2,1.27,5.92,5.92,0,0,1-4.66.76c-1.77-.42-2.82-2-4.64-2.25a5.66,5.66,0,0,0-2.77.22,9,9,0,0,0-2.1,1.34,6,6,0,0,1-5.3.46A15.9,15.9,0,0,1,3.7,24a5.54,5.54,0,0,0-3.32-.61c.08.78.15,1.56.24,2.34A7.28,7.28,0,0,0,.91,28.1c.19.31.57.19,1,.25a6.17,6.17,0,0,1,1,.2A4.75,4.75,0,0,1,4.74,29.61Z"/><path class="d" d="M32.87,84a5.29,5.29,0,0,0,6.6.08A5.93,5.93,0,0,1,46,83.33c1,.57,1.72,1.4,2.93,1.69a5.69,5.69,0,0,0,3.64-.34c1-.49,1.74-1.38,2.89-1.74a6.29,6.29,0,0,1,3.52,0,9.6,9.6,0,0,1,1.7.84c.07,0,.2.23.28.24s.6-.37.74-.46c.34-.21.68-.44,1-.66a36.48,36.48,0,0,0,4.44-3.59,6,6,0,0,1-4.72.68c-1.56-.41-2.51-1.77-4.09-2.14A5.45,5.45,0,0,0,54,78.6a6.16,6.16,0,0,1-4.24,1.55,6,6,0,0,1-2.16-.48,15.87,15.87,0,0,1-1.84-1.28,5.57,5.57,0,0,0-4.6-.43c-1.48.51-2.38,1.78-4,2.09a5.91,5.91,0,0,1-4.4-.82,7.59,7.59,0,0,0-2.12-1.31A5.75,5.75,0,0,0,28,77.74a5,5,0,0,0-2.32,1,5.7,5.7,0,0,1-3,1.34c.83.73,1.68,1.43,2.57,2.08.32.24,1.08,1,1.47,1a6.77,6.77,0,0,0,1.23-.4A5.6,5.6,0,0,1,32.87,84Z"/><path class="e" d="M26.05,3.12A5.14,5.14,0,0,1,30.33,2c1.6.26,2.46,1.46,3.9,2a6.14,6.14,0,0,0,4.5,0c1.44-.61,2.28-1.78,3.92-2A5.29,5.29,0,0,1,46.8,3.12a5.74,5.74,0,0,0,4.35,1.29,5.81,5.81,0,0,0,2-.57c.68-.35,1.17-.93,1.83-1.29a5.62,5.62,0,0,1,4.49-.27,10.57,10.57,0,0,1,2,1.3,5.42,5.42,0,0,0,2.43.83,6.29,6.29,0,0,0,2.62-.28,9.49,9.49,0,0,0,2.23-1.37c-.66-.17-.72,0-1.22.31a4.29,4.29,0,0,1-1.13.57,5.82,5.82,0,0,1-2.9.2C61.72,3.51,60.69,2,59,1.6a5.85,5.85,0,0,0-4.95,1A5.47,5.47,0,0,1,48.9,3.72,5.19,5.19,0,0,1,47,2.59,5.31,5.31,0,0,0,44.38,1.5a6,6,0,0,0-4.8,1.42,5.43,5.43,0,0,1-5.23.63A11.2,11.2,0,0,1,32.49,2.3a5.51,5.51,0,0,0-2.7-.85A6.09,6.09,0,0,0,27,1.93c-.93.42-1.57,1.24-2.52,1.62a5.72,5.72,0,0,1-2.87.32,5.26,5.26,0,0,1-1.5-.43,3.75,3.75,0,0,1-.44-.24c-.45-.28-.49-.26-1-.12A5.78,5.78,0,0,0,26.05,3.12Z"/><path class="e" d="M82.29,19.28a5.08,5.08,0,0,1-4.15,1.12c-1.61-.22-2.41-1.32-3.8-1.95a6.16,6.16,0,0,0-4.25-.22c-1.38.43-2.24,1.61-3.63,2a5.58,5.58,0,0,1-4.34-.51,18.23,18.23,0,0,0-1.61-1.16,5.94,5.94,0,0,0-6.26.63,5.28,5.28,0,0,1-4,1.23,5.17,5.17,0,0,1-2-.57c-.67-.36-1.16-.95-1.83-1.3a6.17,6.17,0,0,0-4.37-.37c-1.39.4-2.25,1.58-3.62,2a5.54,5.54,0,0,1-4.35-.41c-.58-.34-1-.84-1.62-1.16a5.52,5.52,0,0,0-2.1-.64,5.73,5.73,0,0,0-4.17,1.12,5.39,5.39,0,0,1-3.94,1.33,5.29,5.29,0,0,1-2.13-.58c-.63-.34-1.09-.89-1.72-1.23a6.06,6.06,0,0,0-4.72-.36c-1.6.53-2.53,1.9-4.28,2.13S6.3,20,4.85,18.92A5.31,5.31,0,0,0,2.42,18,6.19,6.19,0,0,0,.93,18c-.63.07-.89,0-.86.68a5.39,5.39,0,0,1,4.87.95,5.74,5.74,0,0,0,4.35,1.29,5.79,5.79,0,0,0,2.11-.63c.7-.38,1.22-1,1.95-1.35A5.64,5.64,0,0,1,18,19a13.26,13.26,0,0,1,1.62,1.16,5.41,5.41,0,0,0,2.3.8,5.75,5.75,0,0,0,4.39-1.18,5.38,5.38,0,0,1,4.38-1.19c1.61.26,2.46,1.47,3.9,2a6.16,6.16,0,0,0,4.62-.1A14.84,14.84,0,0,0,41,19.19a5.08,5.08,0,0,1,2.22-.7A5.79,5.79,0,0,1,47.51,20a5.86,5.86,0,0,0,4.5.89c1.62-.31,2.52-1.58,4-2.09a5.63,5.63,0,0,1,4.49.37c.61.36,1.08.9,1.72,1.23a5.86,5.86,0,0,0,2.39.6,6.19,6.19,0,0,0,4.24-1.55,5.43,5.43,0,0,1,5-.6A12.4,12.4,0,0,1,76,20.17a5.5,5.5,0,0,0,2.46.77A6.25,6.25,0,0,0,81,20.61a10.41,10.41,0,0,0,2.11-1.36,5.51,5.51,0,0,1,5.34-.19c0-.52,0-.45-.35-.7a3.09,3.09,0,0,0-.8-.24A6.45,6.45,0,0,0,85.51,18,5.15,5.15,0,0,0,82.29,19.28Z"/><path class="e" d="M12.31,8.63c1.93-1.82,5-1.36,6.88.17a5.82,5.82,0,0,0,7,0A5.37,5.37,0,0,1,33,8.55,5.88,5.88,0,0,0,40,9a6.4,6.4,0,0,1,3.29-1.54,5.23,5.23,0,0,1,3.6.92,6.25,6.25,0,0,0,3.3,1.52,5.92,5.92,0,0,0,3.55-.69c1.13-.66,1.84-1.48,3.21-1.7a5.54,5.54,0,0,1,3.7.65c1.11.7,1.84,1.45,3.21,1.69a6,6,0,0,0,3.72-.52c1.29-.66,2-1.63,3.57-1.84a5.3,5.3,0,0,1,4,1,5.85,5.85,0,0,0,7.62.12c-.44-.31-.39-.29-.81,0a4.21,4.21,0,0,1-.89.47,5.59,5.59,0,0,1-2.07.38A5.82,5.82,0,0,1,75.22,8a5.73,5.73,0,0,0-3.84-1,6.7,6.7,0,0,0-3.53,1.61,5.38,5.38,0,0,1-4,.77c-1.46-.27-2.24-1.33-3.53-1.9a6.08,6.08,0,0,0-4-.3c-1.38.36-2.2,1.47-3.5,2a5.71,5.71,0,0,1-4,0c-1.29-.52-2.1-1.61-3.51-1.94a6,6,0,0,0-4.11.44c-1.23.63-2,1.58-3.43,1.81a5.34,5.34,0,0,1-4-.86A6.25,6.25,0,0,0,30.12,7a5.67,5.67,0,0,0-3.9,1.15,5.39,5.39,0,0,1-3.8,1.33,5.26,5.26,0,0,1-2.16-.54c-.67-.34-1.16-.92-1.83-1.28A6,6,0,0,0,14,7.18c-1.53.44-2.47,1.77-4,2.12a5.93,5.93,0,0,1-2.3,0A5.23,5.23,0,0,1,6.47,9c-.54-.23-.58-.44-1.11-.06A5.76,5.76,0,0,0,12.31,8.63Z"/><path class="e" d="M12.31,14.14A4.94,4.94,0,0,1,15.93,13a6.3,6.3,0,0,1,3.56,1.56,5.7,5.7,0,0,0,3.73.91,6.77,6.77,0,0,0,3.54-1.61A5.27,5.27,0,0,1,30.53,13c1.43.19,2.16,1,3.34,1.71a5.94,5.94,0,0,0,3.81.66c1.47-.21,2.25-1.06,3.46-1.76A5.45,5.45,0,0,1,45,13.09c1.36.28,2.1,1.25,3.29,1.82a6.09,6.09,0,0,0,4,.38C53.6,15,54.35,14,55.54,13.45a5.67,5.67,0,0,1,3.89-.27c1.27.36,2,1.41,3.26,1.88a6.16,6.16,0,0,0,4,.13c1.25-.39,2-1.44,3.25-1.89a5.65,5.65,0,0,1,4.38.21c.64.32,1.1.87,1.72,1.22a5.53,5.53,0,0,0,2.09.68,5.76,5.76,0,0,0,4.2-1,5.58,5.58,0,0,1,4.85-1.27c-.31-.5-.42-.62-1-.64a6.46,6.46,0,0,0-1.39.1,5.35,5.35,0,0,0-2.4,1.11,5.38,5.38,0,0,1-4.26,1.22c-1.61-.22-2.41-1.33-3.8-2a6.14,6.14,0,0,0-4.5-.14c-1.44.52-2.32,1.76-3.89,2a5.35,5.35,0,0,1-4.23-.92,5.93,5.93,0,0,0-4-1.49c-1.71,0-2.7.81-4,1.71a5.52,5.52,0,0,1-4.45.58c-1.42-.41-2.31-1.64-3.74-2.05a6.06,6.06,0,0,0-4.48.43c-.63.34-1.09.89-1.72,1.23A5.25,5.25,0,0,1,37,15a5.79,5.79,0,0,1-4-1.49,5.82,5.82,0,0,0-4.37-.92,5.49,5.49,0,0,0-2,.77,10.59,10.59,0,0,1-1.85,1.26,5.71,5.71,0,0,1-4.39-.1c-.77-.36-1.31-1-2.06-1.41a5.71,5.71,0,0,0-2.4-.6,6.26,6.26,0,0,0-2.46.39,12.51,12.51,0,0,0-2.08,1.38,5.54,5.54,0,0,1-4.83.34,26.18,26.18,0,0,1-2.27-1.5,5.82,5.82,0,0,0-1.51-.5c-.68-.12-.93-.2-1.32.4a5.18,5.18,0,0,1,3.26,1,6.33,6.33,0,0,0,2.34,1.32A5.73,5.73,0,0,0,12.31,14.14Z"/><path class="e" d="M81.75,29.61a5.44,5.44,0,0,1-6,.51c-.62-.36-1.08-.9-1.72-1.23a6.14,6.14,0,0,0-4.11-.44c-1.45.35-2.29,1.5-3.63,2A5.73,5.73,0,0,1,62,30.3a13.18,13.18,0,0,1-1.62-1.15,5.17,5.17,0,0,0-2-.77,5.88,5.88,0,0,0-4.16.77c-1.24.81-2.08,1.56-3.66,1.63a5.58,5.58,0,0,1-3.9-1.41,5.67,5.67,0,0,0-4.07-1.05c-1.54.16-2.37,1-3.61,1.74a5.53,5.53,0,0,1-4.21.54c-1.41-.37-2.27-1.55-3.63-2a6.18,6.18,0,0,0-4.26.13c-1.34.56-2.15,1.68-3.65,2a5.39,5.39,0,0,1-4-.77,6.47,6.47,0,0,0-4.34-1.63,6,6,0,0,0-2.28.55c-.73.35-1.24,1-1.94,1.34A5.61,5.61,0,0,1,6,30.4,19.83,19.83,0,0,1,3.87,29,5.76,5.76,0,0,0,.93,28.3c.09.64.24.47.87.55a4.87,4.87,0,0,1,1.35.34A15.64,15.64,0,0,1,5.2,30.57a6,6,0,0,0,4.46.52c1.5-.39,2.41-1.66,3.88-2.08a5.5,5.5,0,0,1,4.44.58c1.34.9,2.32,1.67,4,1.7a6.45,6.45,0,0,0,4.2-1.63A5.42,5.42,0,0,1,30.64,29c1.48.39,2.4,1.66,3.87,2.08A6.11,6.11,0,0,0,39,30.63c.63-.35,1.09-.89,1.72-1.23A5.25,5.25,0,0,1,43,28.8a5.79,5.79,0,0,1,2.22.33,10.41,10.41,0,0,1,2,1.3,5.86,5.86,0,0,0,4.29.75c1.62-.31,2.52-1.58,4-2.09a5.56,5.56,0,0,1,4.48.37c.61.36,1.08.9,1.72,1.23a5.95,5.95,0,0,0,6.53-.88,5.42,5.42,0,0,1,4.87-.76,6.67,6.67,0,0,1,2,1.24,5.37,5.37,0,0,0,2.38.94,6,6,0,0,0,4.81-1.43,5.41,5.41,0,0,1,5.29-.57c.06-.45.11-.41-.2-.62a2.66,2.66,0,0,0-.84-.21,6,6,0,0,0-1.74-.07A5.07,5.07,0,0,0,81.75,29.61Z"/><path class="e" d="M75.06,40.62A5.77,5.77,0,0,0,68,40.38a5.64,5.64,0,0,1-3.36,1.41A5.19,5.19,0,0,1,61,40.62a5.83,5.83,0,0,0-7.09-.24,5.64,5.64,0,0,1-3.36,1.41,5.16,5.16,0,0,1-3.61-1.17,5.86,5.86,0,0,0-7-.32,5.9,5.9,0,0,1-3.46,1.49A5.14,5.14,0,0,1,33,40.7a5.86,5.86,0,0,0-7.08-.4,5.86,5.86,0,0,1-3.46,1.49A5.12,5.12,0,0,1,18.9,40.7,5.82,5.82,0,0,0,15,39.3a6.25,6.25,0,0,0-3.84,1.55A5.35,5.35,0,0,1,7,41.7c-1.65-.31-2.6-1.65-4.17-2.13.13.59.23.56.74.84a6,6,0,0,1,1,.74,5.21,5.21,0,0,0,2.05,1A6,6,0,0,0,11,41.58c.58-.34,1-.86,1.61-1.18a5.43,5.43,0,0,1,2.27-.59,5.79,5.79,0,0,1,4,1.49,5.83,5.83,0,0,0,4.24.94,5.9,5.9,0,0,0,2-.66c.65-.38,1.14-1,1.83-1.29a5.67,5.67,0,0,1,4.39-.1c1.38.56,2.22,1.71,3.76,2a5.9,5.9,0,0,0,4.29-.75,14,14,0,0,1,1.62-1.15,5.71,5.71,0,0,1,4.39-.1,10.62,10.62,0,0,1,1.86,1.25,5.86,5.86,0,0,0,4.29.75c1.51-.29,2.32-1.37,3.65-1.95a5.67,5.67,0,0,1,4.39,0,12.13,12.13,0,0,1,1.73,1.2,5.23,5.23,0,0,0,2,.77,5.83,5.83,0,0,0,4.27-.84,7.93,7.93,0,0,1,2-1.27,5.93,5.93,0,0,1,2.51-.26,5,5,0,0,1,2.29.83,8.35,8.35,0,0,0,2,1.28,6.07,6.07,0,0,0,4.85-.31,20.39,20.39,0,0,1,2.17-1.44,5.08,5.08,0,0,1,1.53-.35c.19,0,.46,0,.64,0,.39-.08.32,0,.42-.48a6,6,0,0,0-3.25.61,20.12,20.12,0,0,1-2.33,1.5A5.29,5.29,0,0,1,75.06,40.62Z"/><path class="e" d="M81.75,35.11a5.49,5.49,0,0,1-5.88.58c-.67-.36-1.16-.95-1.83-1.29A6.08,6.08,0,0,0,69.93,34c-1.42.33-2.22,1.43-3.51,1.95a5.68,5.68,0,0,1-4.27-.06c-1.34-.58-2.13-1.66-3.65-2a6,6,0,0,0-4.07.62c-.58.33-1,.85-1.61,1.17a5.51,5.51,0,0,1-6-.66,5.68,5.68,0,0,0-4-1.23,6.64,6.64,0,0,0-3.67,1.62,5.4,5.4,0,0,1-4.16.75c-1.47-.31-2.3-1.46-3.64-2a6.22,6.22,0,0,0-4.15-.09c-1.31.44-2.15,1.59-3.49,2a5.58,5.58,0,0,1-4.24-.44,18.7,18.7,0,0,0-1.95-1.34,6.05,6.05,0,0,0-2.3-.5,6.56,6.56,0,0,0-4.2,1.63,5.41,5.41,0,0,1-4.55.65,6.17,6.17,0,0,1-2.09-1.24,5.38,5.38,0,0,0-2.65-1c.1.57.18.5.73.63A4.83,4.83,0,0,1,3.8,35a14.47,14.47,0,0,0,2,1.33,6.16,6.16,0,0,0,4.51,0c1.39-.54,2.24-1.72,3.77-2a5.34,5.34,0,0,1,4.23.91,5.87,5.87,0,0,0,4.14,1.48,5.76,5.76,0,0,0,2.16-.49A16.82,16.82,0,0,0,26.43,35a5.49,5.49,0,0,1,4.34-.51c1.42.4,2.31,1.64,3.74,2A6.11,6.11,0,0,0,39,36.13c.63-.34,1.09-.89,1.72-1.23A5.24,5.24,0,0,1,43,34.31a5.76,5.76,0,0,1,4,1.49,5.83,5.83,0,0,0,4.24.93A5.41,5.41,0,0,0,53.27,36a15.54,15.54,0,0,1,1.85-1.27,5.63,5.63,0,0,1,4.5.06,13.18,13.18,0,0,1,1.62,1.15,5.47,5.47,0,0,0,2.17.79,5.82,5.82,0,0,0,4.24-.93,5.75,5.75,0,0,1,4.66-1.43c1.76.29,2.74,1.72,4.4,2.2a6,6,0,0,0,4.8-.63,8.34,8.34,0,0,1,2.32-1.41,5.83,5.83,0,0,1,3-.05c.07-.45.16-.37-.21-.56a1.85,1.85,0,0,0-.58-.08,6.19,6.19,0,0,0-1.61,0A5,5,0,0,0,81.75,35.11Z"/><path class="e" d="M81.75,24.1a5.48,5.48,0,0,1-6,.52c-.62-.36-1.08-.9-1.72-1.23A6.09,6.09,0,0,0,69.8,23c-1.42.37-2.27,1.54-3.62,2a5.66,5.66,0,0,1-4.26-.25c-.61-.31-1.05-.81-1.62-1.16a5.41,5.41,0,0,0-2.06-.73,5.83,5.83,0,0,0-4.13.86,6.19,6.19,0,0,1-3.83,1.57,6.19,6.19,0,0,1-3.83-1.57,5.83,5.83,0,0,0-4.13-.86,5.48,5.48,0,0,0-2,.66c-.62.36-1.08.9-1.72,1.23a5.66,5.66,0,0,1-4.26.25c-1.31-.45-2.14-1.59-3.49-2a6.11,6.11,0,0,0-4.37.37c-1.29.66-2,1.63-3.56,1.84a5.29,5.29,0,0,1-4.15-1.13,5.77,5.77,0,0,0-4.36-1.28,5.35,5.35,0,0,0-2.32.76,16.82,16.82,0,0,1-1.85,1.27,5.63,5.63,0,0,1-4.73-.17c-.75-.4-1.29-1.06-2.08-1.4a6.1,6.1,0,0,0-3.13-.44c.06.66.2.46.84.47a5.56,5.56,0,0,1,1.4.19,6.26,6.26,0,0,1,2.2,1.29,5.86,5.86,0,0,0,4.5.89c1.62-.31,2.52-1.58,4-2.09a5.6,5.6,0,0,1,4.48.36c.61.36,1.08.9,1.72,1.23a5.71,5.71,0,0,0,2.4.6A5.88,5.88,0,0,0,26,24.31a5.36,5.36,0,0,1,4.49-.87c1.55.36,2.49,1.68,4,2.12a6.06,6.06,0,0,0,4.59-.5c.58-.33,1-.85,1.61-1.17a5.27,5.27,0,0,1,2.4-.6,5.55,5.55,0,0,1,2.21.39,12.32,12.32,0,0,1,2,1.32,6,6,0,0,0,4.44.62c1.56-.37,2.49-1.68,4-2.11a5.39,5.39,0,0,1,4.54.65,6.56,6.56,0,0,0,4.21,1.63c1.71,0,2.69-.8,4-1.7a5.5,5.5,0,0,1,5.06-.36c.79.34,1.32,1,2.06,1.39a5.79,5.79,0,0,0,2.51.66,6,6,0,0,0,2.58-.44,19.65,19.65,0,0,0,2.1-1.4,5.5,5.5,0,0,1,5.32,0c0-.53.06-.56-.44-.77a5.57,5.57,0,0,0-.79-.25,6.12,6.12,0,0,0-1.81-.17A5.29,5.29,0,0,0,81.75,24.1Z"/><path class="e" d="M75.33,57.14a5.8,5.8,0,0,0-6.57-.59c-1,.6-1.71,1.38-3,1.64a5.72,5.72,0,0,1-3.51-.36c-1.09-.51-1.81-1.44-3-1.78a6.24,6.24,0,0,0-3.53,0c-1.14.35-1.84,1.25-2.89,1.74a5.57,5.57,0,0,1-3.51.36c-1.25-.26-1.9-1-3-1.64A5.82,5.82,0,0,0,43,55.84c-2.47.21-3.85,2.41-6.36,2.47a5.07,5.07,0,0,1-3.3-1,5.86,5.86,0,0,0-3.07-1.43,6.06,6.06,0,0,0-3.46.55c-1.09.56-1.79,1.46-3,1.75a5.69,5.69,0,0,1-3.87-.45c-1.17-.64-1.91-1.52-3.3-1.79a6.12,6.12,0,0,0-4,.55c-.61.34-1.06.87-1.66,1.21a5.36,5.36,0,0,1-2.54.62c.18.44.2.51.68.45a6,6,0,0,0,1.1-.22,5.77,5.77,0,0,0,2-1.12,5.19,5.19,0,0,1,3.65-1.08,5.87,5.87,0,0,1,3.32,1.48,5.86,5.86,0,0,0,7-.32,5.19,5.19,0,0,1,3.61-1.17,5.56,5.56,0,0,1,3.36,1.41,5.86,5.86,0,0,0,7-.16,5.24,5.24,0,0,1,3.44-1.25,5.33,5.33,0,0,1,3.53,1.34,5.9,5.9,0,0,0,7,0,5.33,5.33,0,0,1,3.53-1.34A5.22,5.22,0,0,1,61,57.59a5.56,5.56,0,0,0,3.46,1.23,5.82,5.82,0,0,0,3.91-1.4,5.27,5.27,0,0,1,4.06-1c1.57.21,2.34,1.26,3.68,1.89a6,6,0,0,0,2.38.54,6.58,6.58,0,0,0,1.17-.08c.61-.1.72-.18.94-.76A5.29,5.29,0,0,1,75.33,57.14Z"/><path class="e" d="M75.33,46.13a5.78,5.78,0,0,0-7-.32A5.9,5.9,0,0,1,65,47.29a5.17,5.17,0,0,1-3.57-1,5.92,5.92,0,0,0-7-.62c-1.15.75-1.94,1.48-3.39,1.61a5.3,5.3,0,0,1-3.51-.84,6.75,6.75,0,0,0-3.4-1.6,5.92,5.92,0,0,0-3.66.76c-1.12.69-1.85,1.46-3.23,1.65a5.37,5.37,0,0,1-3.67-.74,7.43,7.43,0,0,0-3.24-1.63,5.92,5.92,0,0,0-3.7.6c-1.14.61-1.84,1.48-3.19,1.73a5.52,5.52,0,0,1-3.72-.57c-.58-.33-1-.84-1.61-1.17a5.72,5.72,0,0,0-2-.61,5.8,5.8,0,0,0-4.11,1,5.82,5.82,0,0,1-3.72,1.5,5.54,5.54,0,0,1-2.2-.44,17.57,17.57,0,0,1-1.89-1.3,2.15,2.15,0,0,0,1.2,1.52,5.64,5.64,0,0,0,2.22.69,5.75,5.75,0,0,0,4-1,5.83,5.83,0,0,1,4-1.49,5.35,5.35,0,0,1,2,.48A19.2,19.2,0,0,1,19.43,47a5.91,5.91,0,0,0,4.18.68c1.51-.29,2.32-1.37,3.65-2a5.68,5.68,0,0,1,4.27,0c1.38.56,2.22,1.71,3.76,2a6,6,0,0,0,4.08-.61c.58-.34,1-.85,1.61-1.17a5.25,5.25,0,0,1,2.27-.6,5.6,5.6,0,0,1,3.89,1.41,5.68,5.68,0,0,0,4.07,1.05,5.81,5.81,0,0,0,2-.57c.64-.33,1.11-.87,1.72-1.23a5.57,5.57,0,0,1,4.23-.45c1.43.41,2.32,1.64,3.75,2A6.17,6.17,0,0,0,67,47.32c.75-.34,1.26-.94,2-1.34a5.17,5.17,0,0,1,2.37-.66,5.7,5.7,0,0,1,2.35.38,13.18,13.18,0,0,1,2,1.32,6,6,0,0,0,4.7.56,5.34,5.34,0,0,0,2-1.09,5,5,0,0,1,1.29-.79c.64-.25.88-.1,1-.81-1.86.3-2.91,1.85-4.7,2.27A5.23,5.23,0,0,1,75.33,46.13Z"/><path class="e" d="M75.33,51.63a5.82,5.82,0,0,0-6.79-.46,7.25,7.25,0,0,1-3.12,1.59,5.45,5.45,0,0,1-3.56-.68,8.81,8.81,0,0,0-3.09-1.66,6.15,6.15,0,0,0-3.62.39C54,51.32,53.26,52.3,52,52.63a5.72,5.72,0,0,1-3.65-.25c-1.1-.48-1.83-1.43-3-1.8a6.3,6.3,0,0,0-3.65,0c-1.18.37-1.91,1.32-3,1.8a5.71,5.71,0,0,1-3.65.25c-1.23-.32-1.93-1.24-3-1.77a6.13,6.13,0,0,0-3.61-.46A7.49,7.49,0,0,0,25.28,52a5.32,5.32,0,0,1-3.53.75,5.1,5.1,0,0,1-2-.62c-.58-.34-1-.85-1.61-1.17a6,6,0,0,0-4-.56c-1.49.29-2.28,1.34-3.59,1.93a5.68,5.68,0,0,1-4.34,0c.18.56.19.65.78.77a5.19,5.19,0,0,0,1,.13,5.92,5.92,0,0,0,2.5-.4c1.33-.53,2.15-1.65,3.6-2a5.49,5.49,0,0,1,4,.61c1.25.77,2.07,1.57,3.61,1.73a5.79,5.79,0,0,0,3.87-.89,6.3,6.3,0,0,1,3.56-1.56,5.27,5.27,0,0,1,3.71,1.25,5.64,5.64,0,0,0,3.73,1.24,6,6,0,0,0,3.74-1.48,5.22,5.22,0,0,1,3.83-1c1.5.17,2.25,1,3.47,1.73a6,6,0,0,0,4.08.62c1.43-.28,2.19-1.23,3.41-1.85a5.67,5.67,0,0,1,4-.32c1.35.38,2.18,1.53,3.5,2a6.22,6.22,0,0,0,4,0c1.45-.53,2.32-1.76,3.9-2a5.3,5.3,0,0,1,4.32,1,5.82,5.82,0,0,0,4.18,1.39,5.75,5.75,0,0,0,2.26-.6,5.06,5.06,0,0,0,.84-.55A1.94,1.94,0,0,0,83,50.94c-.67.35-1.17.91-1.82,1.27a5.23,5.23,0,0,1-2,.58A5,5,0,0,1,75.33,51.63Z"/><path class="e" d="M67.42,67.47a5.36,5.36,0,0,1-5.66.69c-.76-.36-1.3-1-2.06-1.41a6,6,0,0,0-3.06-.59,5.54,5.54,0,0,0-2.7.85,8.77,8.77,0,0,1-2.35,1.42,5.74,5.74,0,0,1-2.91.06,7.12,7.12,0,0,1-2.5-1.41,6,6,0,0,0-5.63-.44c-.82.37-1.39,1.06-2.18,1.46a5.49,5.49,0,0,1-3,.52c-2-.18-3.14-1.85-5-2.31a6.41,6.41,0,0,0-2.89,0,7.15,7.15,0,0,0-2.62,1.47,5.41,5.41,0,0,1-6-.08,6.38,6.38,0,0,0-2.94-1.46,6.15,6.15,0,0,0-3.54.46c.21.38.14.35.5.33a4.8,4.8,0,0,0,.82-.24,6,6,0,0,1,2-.07,7,7,0,0,1,3.09,1.57,5.92,5.92,0,0,0,6.31-.07A6.51,6.51,0,0,1,28,66.73a5.56,5.56,0,0,1,3.36.47c1,.5,1.67,1.34,2.78,1.68a6.23,6.23,0,0,0,3.4.07,9.36,9.36,0,0,0,2.7-1.57,5.42,5.42,0,0,1,3.3-.7,5.26,5.26,0,0,1,3,1.32,5.45,5.45,0,0,0,3.1,1.14,5.88,5.88,0,0,0,3.29-.72c1-.57,1.63-1.34,2.81-1.62A5.85,5.85,0,0,1,59,67c1,.39,1.73,1.29,2.76,1.72a6.2,6.2,0,0,0,3.76.28c1.3-.31,2-1.22,3.16-1.79a5.64,5.64,0,0,1,3.75-.4,4.82,4.82,0,0,1,1.74.79c.27.21.51.45.8.64.48.32.55.39.84-.1-.72-.34-1.24-.94-1.93-1.32a5.66,5.66,0,0,0-2.24-.64A5.51,5.51,0,0,0,67.42,67.47Z"/><path class="e" d="M60.73,78.48a5.77,5.77,0,0,0-7.37,0,5.24,5.24,0,0,1-3.89,1.15C48,79.49,47.18,78.7,46,78a6,6,0,0,0-3.92-.73c-1.47.22-2.24,1.07-3.46,1.77a5.53,5.53,0,0,1-4,.51c-1.36-.32-2.15-1.38-3.39-1.9a6.21,6.21,0,0,0-4.51,0,10.14,10.14,0,0,0-1.95,1.29,5.06,5.06,0,0,1-2.62.79c.56.52.74.49,1.48.27a5.18,5.18,0,0,0,1.19-.5A12.72,12.72,0,0,1,27.08,78a5.49,5.49,0,0,1,4.69.5,11,11,0,0,0,1.86,1.25,5.89,5.89,0,0,0,2.45.45,6,6,0,0,0,2.3-.49c.78-.35,1.32-1,2.06-1.41a5.61,5.61,0,0,1,4.85-.11A17.38,17.38,0,0,1,47,79.37a5.62,5.62,0,0,0,2.33.76,6,6,0,0,0,4.53-1.45,5.42,5.42,0,0,1,4.75-.8,6.46,6.46,0,0,1,2.15,1.29,5.41,5.41,0,0,0,2.63,1,6.2,6.2,0,0,0,2.83-.37,7.66,7.66,0,0,0,2.64-2.17c-1.47.59-2.34,1.79-4,2A5.15,5.15,0,0,1,60.73,78.48Z"/><path class="e" d="M67.42,73a5.29,5.29,0,0,1-5.18.88A10.56,10.56,0,0,1,60,72.44a5.67,5.67,0,0,0-2.6-.78,6.12,6.12,0,0,0-2.71.44,22.9,22.9,0,0,0-2.18,1.45,5.54,5.54,0,0,1-5.3-.13A12,12,0,0,0,45.05,72a6.37,6.37,0,0,0-2.74-.32,5.47,5.47,0,0,0-2.53.9,7.18,7.18,0,0,1-2.25,1.35,5.58,5.58,0,0,1-5.21-1.2,5.93,5.93,0,0,0-5.23-.81,10.6,10.6,0,0,0-2.45,1.5,5.26,5.26,0,0,1-3,.72c-2.44-.11-3.8-2.24-6.22-2.45.44.66.86.58,1.56.87a5.71,5.71,0,0,1,1.43.94,5.4,5.4,0,0,0,2.84,1.12,6.19,6.19,0,0,0,2.86-.36c1-.38,1.6-1.18,2.52-1.61a5.47,5.47,0,0,1,5.84.85,5.89,5.89,0,0,0,5.7.76,19.74,19.74,0,0,0,2.3-1.5,5.51,5.51,0,0,1,3.34-.55c2,.28,3.24,2.08,5.3,2.38A6.25,6.25,0,0,0,52,74.35c1.09-.37,1.76-1.23,2.77-1.7a5.41,5.41,0,0,1,5.66.69,5.91,5.91,0,0,0,6.35.71c1-.53,1.74-1.41,2.92-1.71a5.79,5.79,0,0,1,2-.15,6.13,6.13,0,0,1,.84.14c.53.13.51.2.83-.26A5.8,5.8,0,0,0,67.42,73Z"/><path class="e" d="M67.42,62a5.35,5.35,0,0,1-5.88.58,21.59,21.59,0,0,0-2.3-1.5A6.25,6.25,0,0,0,56,60.73c-2.08.36-3.28,2.19-5.43,2.38a5.48,5.48,0,0,1-2.85-.46c-1-.47-1.68-1.33-2.77-1.7a5.91,5.91,0,0,0-5.64,1,5.41,5.41,0,0,1-5.88.58,20.62,20.62,0,0,0-2.3-1.5A6.25,6.25,0,0,0,28,60.71c-2.15.32-3.38,2.21-5.57,2.4a5.25,5.25,0,0,1-3.29-.7,9,9,0,0,0-2.83-1.6,6.24,6.24,0,0,0-3.4.14,4.79,4.79,0,0,0-1.55.85c-.21.16-.39.35-.61.5-.45.3-.52.21-.27.72,1.19-.6,1.93-1.52,3.31-1.77a5.62,5.62,0,0,1,3.5.44c1.09.55,1.79,1.44,3,1.76a6.2,6.2,0,0,0,3.52-.11c1.16-.39,1.9-1.36,3-1.81a5.74,5.74,0,0,1,3.66-.16c1.15.33,1.85,1.22,2.9,1.73a6.12,6.12,0,0,0,3.61.46A7,7,0,0,0,40,62a5.36,5.36,0,0,1,3.51-.84,5.89,5.89,0,0,1,3.18,1.47,5.93,5.93,0,0,0,6.72-.07,5.56,5.56,0,0,1,3.08-1.4A5.36,5.36,0,0,1,60,62a6.85,6.85,0,0,0,3,1.55A6,6,0,0,0,67,62.92c1.23-.71,2-1.56,3.47-1.73a5.29,5.29,0,0,1,3.84,1,6,6,0,0,0,2,1.21,6.48,6.48,0,0,0,1.08.23c.67.08.77.11,1-.48a5.23,5.23,0,0,1-3.18-.8,8.34,8.34,0,0,0-2.43-1.45A5.76,5.76,0,0,0,67.42,62Z"/><path class="e" d="M53.62,84a5.29,5.29,0,0,1-6.68,0,5.89,5.89,0,0,0-6.58-.59c-1,.6-1.71,1.38-3,1.64a5.72,5.72,0,0,1-3.51-.36c-1.17-.55-1.92-1.52-3.24-1.83a6.16,6.16,0,0,0-4,.37.89.89,0,0,0,.91.19c.28,0,.55-.14.84-.18a6,6,0,0,1,2.16.12c1.24.31,2,1.24,3.07,1.77a6.09,6.09,0,0,0,3.47.49A6.82,6.82,0,0,0,40.28,84c2.1-1.51,4.72-.9,6.59.55a5.87,5.87,0,0,0,6.72.08,5.76,5.76,0,0,1,3.49-1.48,5.61,5.61,0,0,1,2.11.31,4.11,4.11,0,0,1,.82.39c.5.3.45.4,1,.09A5.73,5.73,0,0,0,53.62,84Z"/><path class="e" d="M41.73,88.38c1.12.08,2.24.11,3.37.08A6.22,6.22,0,0,0,41.73,88.38Z"/></g></svg>