<svg viewBox="0 0 166.56 47.54" xmlns="http://www.w3.org/2000/svg"><rect fill="#fff" height="47.54" rx="23.77" width="166.56"/><path d="m140.65 2c.61 3.32 2.72 6 3 9.35a25.76 25.76 0 0 1 -1.21 6.63c-1.2 3.32-4.22 3.92-7.24 2.42a4.35 4.35 0 0 0 -1.81.6c-2.11 1.21-3.62 3.32-6 3.62-1.51.3-2.41-.6-3.92-.3-3.32.3-5.73 2.41-8.75 3.31-1.2.31-2.11.61-3 0-2.41-1.5-1.81-4.52-2.72-6.93-.3-.3-.3-.61-.6-.91-1.81-1.51-4.22-2.41-5.13-4.52-1.5-4.22-2.41-8.14-5.73-11.46a4.93 4.93 0 0 1 -1.2-2.11c-.14-.64-.21-1.17-.27-1.7h-12.28c.21.34.41.68.63 1a8.29 8.29 0 0 0 2.63 2.82c1.26.74 2.67 1.36 3.48 2.57a4.46 4.46 0 0 1 .15 4.43c-1.36 2.7-4.7 3-7.18 4.18-1.85.88-3.17 2.6-4.9 3.7-3.75 2.39-8.76 1.55-12.82 3.36-2.29 1-4.15 2.84-6.43 3.89-1.57.72-3.76 1-5.31.1-1.76-1.07-.77-2.48-.54-4.2.22-1.56 0-3.11.5-4.63.69-1.94 2.44-3.29 3.42-5.09 1.1-2 1.17-4.39 1.51-6.65.32-2.06 1-4.23 2.61-5.5h-8.85c-.09.53-.2 1.06-.32 1.58 0 2.46-1.43 5.58-2.15 7.93-.63 2-.68 4.55-1.73 6.47a5.38 5.38 0 0 1 -.64.94c-1.55 1.81-4.15 1.87-6.29 2.47-3.13.87-6.45.72-9.67.57a4.65 4.65 0 0 1 -3.07-.89 4.17 4.17 0 0 1 -1-2c-1.62-5.47-1.51-11.33-2.18-17.05h-1.87a24 24 0 0 0 -2.56.14 5.9 5.9 0 0 1 .23.85q1.51 7.65 3 15.31a6.28 6.28 0 0 1 .16 2.51 6.4 6.4 0 0 1 -.93 2c-.81 1.32-1.63 2.63-2.45 3.95a9.43 9.43 0 0 1 -2.18 2.71 9.82 9.82 0 0 1 -3.56 1.42c-2.74.69-10 4.61-12.31 1.58-.94-1.22-1-4.31-1.33-5.82q-.63-2.89-1.2-5.79c0-.13-.05-.26-.07-.39a23.33 23.33 0 0 0 -.57 5.3 23.76 23.76 0 0 0 13.21 21.29 9.19 9.19 0 0 1 -.74-.89 6.63 6.63 0 0 1 -.55-7.68 9.08 9.08 0 0 1 4.73-4.14c3.19-1 7.23-.42 9.41-3 2.51-2.93 2.26-3.65 6.29-2.86 2.88.57 5.82.76 8.47-.35 1.48-.62 2.91-1.54 4.52-1.51 3.14.05 5 3.53 5.78 6.58 1.31 5.07 2.26 11.13.86 16.3h6c-.17-2.68-.67-5.33-.8-8-.15-3.17.27-6.53 2.17-9.07a11.85 11.85 0 0 1 6.56-4.12 29.09 29.09 0 0 1 7.85-.71 13.57 13.57 0 0 0 4.54-.43 12.86 12.86 0 0 0 4.06-2.66l4.34-3.69c1.16-1 2.44-2 4-2.07 1.88-.06 3.44 1.42 4.55 2.94a21.41 21.41 0 0 1 4 10.18 5.11 5.11 0 0 1 -.16 2.46 2.24 2.24 0 0 1 -1.42 1.35 2.72 2.72 0 0 0 -1.09.54c-1.33 1.22-1.71 2.89-2.86 4.5-.72 1.07-1.28 2.27-2.11 3.27a14 14 0 0 1 -3.27 2.63l-4.46 2.89h8.9a32.85 32.85 0 0 0 6.52-6.32c1.18-1.63 2.24-3.56 4.13-4.24a11.84 11.84 0 0 0 1.46-.47c.77-.39 1.5-.51 2-.8a.61.61 0 0 1 .92.55c-.07 2.32-.83 3.88-1.29 6.67a18.3 18.3 0 0 0 -.45 4c0 .2 0 .39.07.58h6.9a1.34 1.34 0 0 0 -.07-.18c-1.24-3.48-2-7.66.21-10.62 2.44-3.28 7.16-3.43 11.2-4a34.67 34.67 0 0 0 13.41-4.93 2.11 2.11 0 0 1 3.21 1.36 77.06 77.06 0 0 1 1.47 9.33 5.22 5.22 0 0 1 -.13 2.23 4.87 4.87 0 0 1 -1.24 1.68c-1.48 1.45-3.22 2.87-3.63 4.89a2.89 2.89 0 0 0 0 .29h5.35a23.68 23.68 0 0 0 13.2-4 7.11 7.11 0 0 0 -2.6-2.1 7.78 7.78 0 0 1 -1.82-.92c-1.88-1.61-.19-4.71-.74-7.12-.36-1.64-1.77-2.85-2.43-4.39-1.45-3.34.8-7 1.1-10.67a13.53 13.53 0 0 1 6.31.64c.48.17 1.09.34 1.45 0a1.07 1.07 0 0 0 .25-.63 5.15 5.15 0 0 0 -3.31-5.49c-.76-.26-1.64-.38-2.12-1a3.05 3.05 0 0 1 -.42-1.36c-.36-2.7-.71-5.39-1.07-8.09-.05-.36-.09-.72-.13-1.09a23.73 23.73 0 0 0 -7.7-1.32h-1.79c-.84.6-.35 1.4-.35 2z" fill="#fffdf8"/><g fill="#f7eca7"><path d="m151.66 10.45a3.05 3.05 0 0 0 .42 1.36c.48.64 1.36.76 2.12 1a5.15 5.15 0 0 1 3.31 5.49 1.07 1.07 0 0 1 -.25.63c-.36.37-1 .2-1.45 0a13.53 13.53 0 0 0 -6.31-.64c-.3 3.71-2.5 7.38-1.1 10.71.66 1.54 2.07 2.75 2.43 4.39.55 2.41-1.14 5.51.74 7.12a7.78 7.78 0 0 0 1.82.92 7.11 7.11 0 0 1 2.6 2.1 23.77 23.77 0 0 0 10.57-19.77 23.79 23.79 0 0 0 -16.1-22.5c0 .37.08.73.13 1.09.41 2.71.71 5.4 1.07 8.1z" opacity=".54"/><path d="m141.11 42.36a4.87 4.87 0 0 0 1.24-1.68 5.22 5.22 0 0 0 .13-2.23 77.06 77.06 0 0 0 -1.48-9.33 2.11 2.11 0 0 0 -3.17-1.33 34.67 34.67 0 0 1 -13.41 4.93c-4 .59-8.76.74-11.2 4-2.21 3-1.45 7.14-.21 10.62a1.34 1.34 0 0 1 .07.18h24.35a2.89 2.89 0 0 1 0-.29c.46-2 2.2-3.42 3.68-4.87z" opacity=".54"/><path d="m106.57 42.93c.46-2.79 1.22-4.35 1.29-6.67a.61.61 0 0 0 -.92-.55c-.55.29-1.28.41-2 .8a11.84 11.84 0 0 1 -1.46.47c-1.89.68-3 2.61-4.13 4.24a32.85 32.85 0 0 1 -6.52 6.32h13.41c0-.19-.06-.38-.07-.58a18.3 18.3 0 0 1 .4-4.03z" opacity=".54"/><path d="m58.93 5.5c-.34 2.26-.41 4.64-1.51 6.65-1 1.8-2.73 3.15-3.42 5.09-.55 1.52-.28 3.07-.5 4.63-.23 1.72-1.22 3.13.54 4.2 1.55.94 3.74.62 5.31-.1 2.28-1 4.14-2.86 6.43-3.89 4.06-1.81 9.07-1 12.82-3.36 1.73-1.1 3.05-2.82 4.9-3.7 2.48-1.17 5.82-1.48 7.18-4.18a4.46 4.46 0 0 0 -.15-4.43c-.81-1.21-2.22-1.83-3.48-2.57a8.29 8.29 0 0 1 -2.63-2.84c-.22-.32-.42-.66-.63-1h-22.25c-1.54 1.27-2.29 3.44-2.61 5.5z" opacity=".54"/><path d="m91.61 42c.83-1 1.35-2.22 2.1-3.27 1.15-1.61 1.53-3.28 2.86-4.5a2.72 2.72 0 0 1 1.09-.54 2.24 2.24 0 0 0 1.42-1.35 5.11 5.11 0 0 0 .16-2.46 21.41 21.41 0 0 0 -4-10.18c-1.11-1.52-2.67-3-4.55-2.94-1.52 0-2.8 1.08-4 2.07l-4.34 3.69a12.86 12.86 0 0 1 -4.06 2.66 13.57 13.57 0 0 1 -4.54.43 29.09 29.09 0 0 0 -7.85.71 11.85 11.85 0 0 0 -6.56 4.12c-1.9 2.54-2.32 5.9-2.17 9.07.13 2.68.63 5.33.8 8h25.91l4.46-2.89a14 14 0 0 0 3.27-2.62z" opacity=".54"/><path d="m96.32 1.65a4.93 4.93 0 0 0 1.2 2.11c3.32 3.32 4.23 7.24 5.73 11.46.91 2.11 3.32 3 5.13 4.52.3.3.3.61.6.91.91 2.41.31 5.43 2.72 6.93.9.61 1.81.31 3 0 3-.9 5.43-3 8.75-3.31 1.51-.3 2.41.6 3.92.3 2.41-.3 3.92-2.41 6-3.62a4.35 4.35 0 0 1 1.81-.6c3 1.5 6 .9 7.24-2.42a25.76 25.76 0 0 0 1.21-6.63c-.3-3.32-2.41-6-3-9.35 0-.55-.49-1.35.35-1.95h-44.91c.06.53.13 1.06.25 1.65z" opacity=".54"/><path d="m51.12 31.24c-.79-3-2.64-6.53-5.78-6.58-1.61 0-3 .89-4.52 1.51-2.65 1.11-5.59.92-8.47.35-4-.79-3.78-.07-6.29 2.86-2.18 2.55-6.22 1.93-9.41 3a9.08 9.08 0 0 0 -4.73 4.14 6.63 6.63 0 0 0 .55 7.68 9.19 9.19 0 0 0 .74.89 23.66 23.66 0 0 0 10.56 2.48h28.23c1.38-5.2.43-11.26-.88-16.33z" opacity=".54"/><path d="m28.82 19.07a4.65 4.65 0 0 0 3.07.89c3.22.15 6.54.3 9.67-.57 2.14-.6 4.74-.66 6.29-2.47a5.38 5.38 0 0 0 .64-.94c1-1.92 1.1-4.45 1.73-6.47.72-2.35 2.15-5.47 2.15-7.93.12-.52.23-1 .32-1.58h-27c.67 5.72.56 11.58 2.18 17.11a4.17 4.17 0 0 0 .95 1.96z" opacity=".54"/><path d="m1.88 24.63c.32 1.51.39 4.6 1.33 5.82 2.31 3 9.57-.89 12.31-1.58a9.82 9.82 0 0 0 3.56-1.42 9.43 9.43 0 0 0 2.18-2.71c.82-1.32 1.64-2.63 2.45-3.95a6.4 6.4 0 0 0 .93-2 6.28 6.28 0 0 0 -.16-2.51q-1.48-7.63-3.04-15.28a5.9 5.9 0 0 0 -.23-.85 23.78 23.78 0 0 0 -20.6 18.3c0 .13 0 .26.07.39q.57 2.9 1.2 5.79z" opacity=".54"/></g></svg>