<svg viewBox="0 0 166.56 47.54" xmlns="http://www.w3.org/2000/svg"><rect fill="#fff" height="47.54" rx="23.77" width="166.56"/><rect fill="#fff" height="47.54" rx="23.77" width="166.56"/><g fill="none"><path d="m64.85 41.35c-1.61-1.62-6.3-4.19-6.66-6.36 1.64-.21 3.14 1.39 4.78 1.3-.16-.49-3.66-3.77-3.75-4.34 1.52 0 6 4 7.5 3.82-.3-1-1.62-1.6-.27-2 1-.31 2.71.88 3.54 1.39 1.77 1.1 3.32 2.55 5 3.76 2 1.44 3.35 3.36 4.95 5.14l-1.74-1.47c.9 1.22 3.23 2.59 3.5 4.13-.68 0-1.37-.09-2-.11a2 2 0 0 0 .21.93h8.88a13.63 13.63 0 0 1 3.21-1.18 25 25 0 0 1 7.18-.84c4.67 2.64 10.37-2.83 13.82-5.22a31.9 31.9 0 0 1 5.9-3.36c-4.08-5.59-4.74-17.54-7.25-23.68a26.79 26.79 0 0 0 -11.72-13.26h-20.64a14.67 14.67 0 0 0 -.05 5.57c.33 2.35 3.28 5.26 4.59 7a39.56 39.56 0 0 0 6.79 7.43c6 4.79 8.22 15 6.11 12-1.33-1.91-4.47-2.49-5.54-2.7s-1.94.35-3.35 0-2.09-1.42-3.46-1.39c-.51 0-.5 1.44-1.52 1.48-3 .11-7-6.37-8.64-8.08a30.57 30.57 0 0 0 -5.87-4.89c-4 3.71-11.07 6.78-15.87 7.78-6.23 1.3-11 1.41-16.79-2-7.23-4.29-11.8-11.23-19.57-14.87-1-.49-3.94-1.34-6.87-2.27a23.72 23.72 0 0 0 -9.25 18.71 23.77 23.77 0 0 0 23.77 23.77h46.93c-2.17-1.86-3.85-4.19-5.85-6.19z"/><path d="m163.56 12.22c1.48 3.69 2.12 7.57 3 11.55a23.62 23.62 0 0 0 -3-11.55z"/><path d="m149.7 30.34c4.4 2.53 8.24 4 16.52-2.59q.1-.63.18-1.26c-1.32-.8-2.56-2.54-3.66-3.51-3.3-2.89-5.22-7.3-8.36-10.15.57 1.93 1.71 4 2.1 5.88a5 5 0 0 1 -.85-1 6.88 6.88 0 0 1 -1.23-.54 4 4 0 0 0 .2 1c-1.72-1-2.95-4.54-4-6.23-1.64-2.65-3-6.23-4.93-8.71v.06a9.43 9.43 0 0 0 -.72-.92 10.23 10.23 0 0 1 .72.86 4.45 4.45 0 0 1 1.08-3 23.75 23.75 0 0 0 -4-.34h-15c2.59 3.8 4.32 8.4 6.25 12.35 3.44 7.12 8.84 14.16 15.7 18.1zm7.38-4.48-.3.75c.22-.27.8-.89.92-1.09a.59.59 0 0 0 -.09.31 2 2 0 0 1 .65.05c0 .64 0 2.93-1.1 3.14-2.05.4-.48-2.49-.08-3.16zm-3.6-3.43a2.4 2.4 0 0 1 .84-.83s0 .26 0 .29c1.37 0 2.41.59 1.47 2-1.39 2.06-3.07.27-2-1.61zm-4.11 3.77-.68 1.37a3.28 3.28 0 0 1 1.19-1.2v.51c.36-.23.88-.16 1.17-.29-.13.9.5 1.54-.26 2.26-.5 0-1.92.73-2.32.41-.66-.55.35-2.65.9-3.06z"/><path d="m72.1 47.54h.28l-.29-.21a1.41 1.41 0 0 1 .01.21z"/></g><path d="m35.69 22.1c5.8 3.45 10.56 3.34 16.79 2 4.8-1 11.82-4.07 15.87-7.78a33.65 33.65 0 0 0 -8.14-3.79c-2.42-.76-4.8-1.33-7.12-2a.09.09 0 0 1 0 0 2.48 2.48 0 0 1 -.38-.17 26.68 26.68 0 0 1 -8.21-3.85c-2.27-1.65-4.2-4.45-6.38-5.84 0-.26 0-.5 0-.74h-14.35a23.63 23.63 0 0 0 -14.52 5.07c2.93.93 5.84 1.78 6.87 2.27 7.77 3.6 12.34 10.54 19.57 14.83zm21.75-10.1c.64-.21 1.52.72 1.36 1.34-.1 0-.21 0-.32 0 0 .21-.08.34-.1.53a2.71 2.71 0 0 1 -1.05-.65c-.27-.13-.54-.31-.41-.63a1.9 1.9 0 0 1 -.12-.36 2.17 2.17 0 0 0 .67 0c-.02-.05-.01-.15-.03-.23zm-1.44 6.51c-.1 0-.21 0-.32 0 0 .21-.07.34-.1.53a2.65 2.65 0 0 1 -1-.64c-.28-.14-.55-.32-.42-.64a1.42 1.42 0 0 1 -.16-.36 2.93 2.93 0 0 0 .66 0 2.13 2.13 0 0 0 0-.25c.65-.15 1.53.74 1.34 1.36zm-2.81-5.31c0-.08 0-.17 0-.25.65-.21 1.52.72 1.37 1.34-.11 0-.22 0-.32 0 0 .22-.08.34-.11.53a2.65 2.65 0 0 1 -1-.64c-.28-.13-.54-.31-.41-.64a1.31 1.31 0 0 1 -.12-.35 2.52 2.52 0 0 0 .59.01zm-5.46-1.45a1.91 1.91 0 0 1 0-.58 2.21 2.21 0 0 1 1.78 1.83c-.09 0-.28.1-.38.09 0 .2-.07.34-.08.47a10.48 10.48 0 0 1 -.91-.64l.06.07c-.57 0-1-.7-1.19-1.18a1.11 1.11 0 0 0 .72-.06z" fill="#e2eff6"/><path d="m111.59 13.24c2.51 6.14 3.17 18.09 7.25 23.68 4.29-1.76 8.35-1.53 12.75 2.31 1.44 1.26 5.68 5.16 7.64 8.29h3.55a23.77 23.77 0 0 0 23.43-19.79c-8.28 6.57-12.12 5.12-16.52 2.59-6.86-3.94-12.26-11-15.7-18-1.92-3.92-3.65-8.52-6.24-12.32h-27.82a26.79 26.79 0 0 1 11.66 13.24zm43.95 25.13.05.36c.2-.29.44-.57.65-.83a3 3 0 0 0 0 .41 3.46 3.46 0 0 1 1-.44c1 1.59-1.84 4.5-1.86 1.88a.41.41 0 0 1 -.21 0 2.09 2.09 0 0 1 .27-.73c.02-.21.05-.42.1-.65zm-2.11-6.09a1.7 1.7 0 0 0 0 .22 1.43 1.43 0 0 1 .58 0c0 .49-.21 1-.21 1.47l.46-.1c.2.13.28.25.51.38-.71 1.2-2.4 2.93-4.06 2.58a1.69 1.69 0 0 1 .05-.92l-.35.69c-.07 0-.13.28-.14.15.59-1.04 1.96-4.19 3.16-4.47zm-5.43 9.38c-.51 1.84-2.83 1.75-2.28-.1a.59.59 0 0 1 -.26.06l.51-.68a3 3 0 0 0 -.25.62 4.28 4.28 0 0 0 1.09-.78c0 .1 0 .2.05.31a1.31 1.31 0 0 1 .8-.13c.07.16.22.51.34.7zm-.71-6.84a3.5 3.5 0 0 1 -.23.78 1.71 1.71 0 0 0 .43.25s0 0 0 0c-.56 1.22-3.91 4.13-3.77 1a1.31 1.31 0 0 0 -.45.13c-.15-1 .81-1.27 1.33-2l.13.87a5 5 0 0 1 1.59-1.21c0 .17-.12.32-.17.49.25-.13.85-.13 1.11-.31zm-3.89-6.05v.41a2 2 0 0 1 1.37-.91 3.39 3.39 0 0 1 -.15.61h.82c.06.15.33.71.34.74a2.68 2.68 0 0 1 -1.5 2.19c0-.1 0-.21 0-.31-1.81.29-2.05-1.82-.91-2.73zm-6.51 6.17v1.37a6.46 6.46 0 0 1 1.88-1.84c-.06.37.18.69.19.94.3-.23.84-.18 1.17-.41 1.34 2.88-6.62 3.25-3.27-.06z" fill="#f9f6f9"/><path d="m38.11.74c2.18 1.39 4.11 4.19 6.38 5.84a26.68 26.68 0 0 0 8.21 3.85 2.6 2.6 0 0 1 -.7-.43c-.27-.13-.54-.31-.41-.63a1.9 1.9 0 0 1 -.08-.37 2.52 2.52 0 0 0 .67 0c0-.08 0-.17 0-.25.65-.21 1.53.72 1.37 1.34-.11 0-.22 0-.32 0 0 .19-.06.32-.1.48 2.32.69 4.7 1.26 7.12 2a33.65 33.65 0 0 1 8.14 3.79 30.57 30.57 0 0 1 5.87 4.89c1.59 1.71 5.67 8.19 8.64 8.08 1 0 1-1.47 1.52-1.48 1.37 0 2.05 1 3.46 1.39s2.14-.21 3.35 0 4.21.79 5.54 2.7c2.11 3-.15-7.18-6.11-12a39.56 39.56 0 0 1 -6.79-7.41c-1.31-1.76-4.26-4.67-4.59-7a14.67 14.67 0 0 1 .01-5.53h-41.17c.01.24 0 .48-.01.74zm8.58 5.7a2.61 2.61 0 0 0 .64.16.93.93 0 0 0 0-.24c.68-.06 1.33 1 1 1.61-.1 0-.22 0-.31-.08 0 .21-.15.31-.22.49a2.67 2.67 0 0 1 -.8-.86c-.23-.19-.46-.43-.26-.71a2.22 2.22 0 0 1 -.05-.37z" fill="#f9f6f9"/><path d="m145.69 3.36v-.06a10.23 10.23 0 0 0 -.72-.86 9.43 9.43 0 0 1 .72.92z" fill="#fed991"/><path d="m150.62 12c1 1.69 2.26 5.24 4 6.23a4 4 0 0 1 -.2-1 6.88 6.88 0 0 0 1.23.54 5 5 0 0 0 .85 1c-.39-1.93-1.53-4-2.1-5.88 3.14 2.85 5.06 7.26 8.36 10.15 1.1 1 2.34 2.71 3.66 3.51a24.52 24.52 0 0 0 .16-2.72c-.88-4-1.52-7.86-3-11.55a23.77 23.77 0 0 0 -16.81-11.94 4.45 4.45 0 0 0 -1.08 3c1.94 2.44 3.31 6.02 4.93 8.66z" fill="#fed991"/><path d="m131.6 39.25c-4.4-3.84-8.46-4.07-12.75-2.31a31.9 31.9 0 0 0 -5.85 3.36c-3.45 2.39-9.15 7.86-13.82 5.22a25 25 0 0 0 -7.18.84 13.63 13.63 0 0 0 -3.17 1.18h50.46c-2.01-3.13-6.29-7.03-7.69-8.29z" fill="#e2eff6"/><g fill="#facfcc"><path d="m140.1 35c-.33.23-.87.18-1.17.41 0-.25-.25-.57-.19-.94a6.46 6.46 0 0 0 -1.88 1.84v-1.37c-3.35 3.31 4.61 2.94 3.24.06z"/><path d="m144.21 31.54v.31a2.68 2.68 0 0 0 1.5-2.19s-.28-.59-.34-.74c-.23 0-.6-.05-.82 0a3.39 3.39 0 0 0 .15-.61 2 2 0 0 0 -1.37.91v-.41c-1.1.87-.86 2.98.88 2.73z"/><path d="m147.47 35.83s.01.02 0 0z"/><path d="m144.7 35.81-.13-.87c-.52.77-1.48 1-1.33 2a1.31 1.31 0 0 1 .45-.13c-.14 3.13 3.21.22 3.77-1a1.71 1.71 0 0 1 -.43-.25 3.5 3.5 0 0 0 .23-.78c-.28.15-.86.15-1.14.27 0-.17.12-.32.17-.49a5 5 0 0 0 -1.59 1.25z"/><path d="m150.45 36.64.35-.69a1.69 1.69 0 0 0 -.05.92c1.66.35 3.35-1.38 4.06-2.58-.23-.13-.31-.25-.51-.38l-.46.1c0-.5.21-1 .21-1.47a1.43 1.43 0 0 0 -.58 0 1.7 1.7 0 0 1 0-.22c-1.2.28-2.57 3.43-3.12 4.51-.03.09.03-.14.1-.19z"/><path d="m150.82 28.85c.76-.72.13-1.36.26-2.26-.29.13-.81.06-1.17.29 0-.18 0-.34 0-.51a3.28 3.28 0 0 0 -1.19 1.2l.68-1.37c-.55.41-1.56 2.51-.87 3.06.37.32 1.79-.42 2.29-.41z"/><path d="m157.16 29c1.11-.21 1.07-2.5 1.1-3.14a2 2 0 0 0 -.65-.05.59.59 0 0 1 .09-.31c-.12.2-.7.82-.92 1.09l.3-.75c-.4.69-1.97 3.58.08 3.16z"/><path d="m155.79 23.87c.94-1.39-.1-2-1.47-2v-.29a2.4 2.4 0 0 0 -.84.83l.34-.17c-1.1 1.9.58 3.69 1.97 1.63z"/><path d="m155.37 39.75c0 2.62 2.89-.29 1.86-1.88a3.46 3.46 0 0 0 -1 .44 3 3 0 0 1 0-.41c-.21.26-.45.54-.65.83l-.05-.36c0 .23-.08.44-.11.63a2.09 2.09 0 0 0 -.27.73.41.41 0 0 0 .22.02z"/><path d="m145.43 41.62a.59.59 0 0 0 .26-.06 3 3 0 0 1 .25-.62z"/><path d="m146.83 41.09c0-.11 0-.21-.05-.31a4.28 4.28 0 0 1 -1.09.78c-.55 1.85 1.77 1.94 2.28.1-.09-.19-.24-.54-.34-.7a1.31 1.31 0 0 0 -.8.13z"/></g><g fill="#fed991"><path d="m81.72 46.72c-.27-1.54-2.6-2.91-3.5-4.13l1.78 1.47c-1.6-1.78-2.91-3.7-4.95-5.14-1.7-1.21-3.25-2.66-5-3.76-.83-.51-2.49-1.7-3.54-1.39-1.35.4 0 1 .27 2-1.55.22-6-3.8-7.5-3.82.09.57 3.59 3.85 3.75 4.34-1.64.09-3.14-1.51-4.78-1.3.36 2.17 5.05 4.74 6.66 6.36 2 2 3.68 4.33 5.85 6.19h1.4a1.41 1.41 0 0 0 0-.21l.29.21h7.45a2 2 0 0 1 -.21-.93c.66.02 1.31.15 2.03.11z"/><path d="m48.2 12.94-.06-.07a10.48 10.48 0 0 0 .91.64c0-.13.12-.27.08-.47.1 0 .29-.09.38-.09a2.21 2.21 0 0 0 -1.82-1.78 1.91 1.91 0 0 0 0 .58 1.11 1.11 0 0 1 -.72 0c.21.49.66 1.18 1.23 1.19z"/><path d="m47 7.52a2.67 2.67 0 0 0 .88.86c.07-.18.21-.28.22-.49.09 0 .21 0 .31.08.29-.57-.36-1.67-1-1.61a.93.93 0 0 1 0 .24 2.61 2.61 0 0 1 -.64-.16 2.22 2.22 0 0 0 0 .37c-.25.28-.02.52.23.71z"/><path d="m53.19 10.07h.32c.16-.62-.72-1.55-1.37-1.34v.25a2.52 2.52 0 0 1 -.67 0 1.9 1.9 0 0 0 .12.36c-.13.32.14.5.41.63a2.6 2.6 0 0 0 .66.48 2.48 2.48 0 0 0 .38.17.09.09 0 0 0 0 0c.09-.23.19-.36.15-.55z"/><path d="m53.05 14.17a2.65 2.65 0 0 0 1 .64c0-.19.15-.31.11-.53h.32c.15-.62-.72-1.55-1.37-1.34v.25a2.52 2.52 0 0 1 -.67 0 1.31 1.31 0 0 0 .12.35c-.05.32.21.46.49.63z"/><path d="m56.92 12.59c-.13.32.14.5.41.63a2.71 2.71 0 0 0 1.05.65c0-.19.14-.32.1-.53h.32c.16-.62-.72-1.55-1.36-1.34v.24a2.17 2.17 0 0 1 -.67 0 1.9 1.9 0 0 0 .15.35z"/><path d="m54 17.4a1.42 1.42 0 0 0 .11.35c-.13.32.14.5.42.64a2.65 2.65 0 0 0 1 .64c0-.19.14-.32.1-.53h.32c.16-.62-.72-1.55-1.36-1.34a2.13 2.13 0 0 1 0 .25 2.93 2.93 0 0 1 -.59-.01z"/></g></svg>