<svg viewBox="0 0 567 269" xmlns="http://www.w3.org/2000/svg"><path d="M204.75 124.31s16.73-7.08 16.23-22.42-15.26-11.67-19.76-3.22c-6.01 11.27-3.35 21.95-3.35 21.95z" fill="#95cebc"/><path d="M186.03 143.01s-7.07-5.37-4.24-19.34 17.68-15.05 24.39-10.03c6.72 5.02 8.13 17.91 2.12 29.37 0 0-16.61 1.79-22.27 0z" fill="#95cebc"/><path d="M189.27 116.74s.35-13.98-10.32-18.39-12.74 7.11-8.35 12.91c5.86 7.73 14.01 9.18 14.01 9.18zM213.68 94.21s9.92-9.72 5.37-20.44c-4.55-10.73-14-3.98-14.88 3.27-1.17 9.68 3.63 16.5 3.63 16.5z" fill="#95cebc"/><path d="M168.47 103.86s-7.42 1.65-11.43-5.98c-4.01-7.64 3.18-7.88 5.71-7.76 2.54.12 7.28 3.34 8.26 8.38s-2.54 5.36-2.54 5.36zM198.62 105.06s-4.93-.36-6.11-4.49.66-6.57 4.1-6.36 6.17 4.5 6.17 4.5zM213.98 69.62c-.15-.04-1-4.41 2.15-7.64 3.14-3.22 6.44-2.78 7.74-.74 1.3 2.05.35 4.68-.82 6.47-1.18 1.79-3.57 3.27-6.09 3.84-2.53.58-2.98-1.93-2.98-1.93zM205.57 85.55s-5.45 2.54-8.96-1.64-1.14-5.76.86-6.28 5.76 1.15 6.53 1.51 1.58 5.44 1.58 5.44M219.18 94.9s4.56-4.07 9.51-2.75c4.95 1.31 6.36 5.02 5.19 8.96-1.18 3.94-7.73 9.11-13.34 5.68-5.62-3.44-1.36-11.89-1.36-11.89zM177.62 97.87c-.54-.16-.71-5.34 2.73-10.25s7.21-2.76 7.8-1.33 2.2 8.02-5.5 14.28-5.03-2.7-5.03-2.7z" fill="#95cebc"/><path d="M221.68 99.2c.75-.89 1.89-1.42 3.04-1.41.18 0 .38.02.52.13.34.25.22.79.03 1.17-.68 1.34-1.9 2.39-3.32 2.84" fill="none" stroke="#fff" stroke-miterlimit="10" stroke-width=".42"/><path d="M221.52 97.04c1.51-.8 3.15-1.63 4.83-1.36 2.32.37 3.93 3.01 3.48 5.35-.46 2.34-2.68 4.11-5.02 4.3-.95.08-1.94-.08-2.77-.56M167.51 102.72a6.306 6.306 0 01-4.15-3c-.44-.76-.68-1.8-.11-2.46.23-.27.56-.42.9-.51.82-.2 1.7 0 2.45.39s1.41.94 2.05 1.5c.41.35.82.7 1.13 1.13-.2.03-.95.59-1.15.62-.55-.94-1.55-1.58-2.62-1.67-.16-.01-.36 0-.44.15-.05.1-.03.23.01.34.34 1.1 1.16 2.03 2.19 2.51" fill="none" stroke="#fff" stroke-miterlimit="10" stroke-width=".42"/><path d="M165.33 103.19a36.34 36.34 0 01-3.19-1.72c-.83-.5-1.65-1.05-2.22-1.83-.6-.82-.88-1.83-1.01-2.84-.12-.9-.13-1.85.24-2.67.62-1.39 2.24-2.13 3.75-2.03 1.5.1 2.88.92 4.01 1.93 1.38 1.23 2.47 2.79 3.16 4.51.04.11.12.24.23.23.12-.01.06-.26-.02-.17M179.31 98.02a6.469 6.469 0 012.22-3.36c.12-.09.26-.18.4-.15.83.18-.19 3.13.61 3.78 1.55-1.84 1.65-5.01.81-7.19-.08-.22-.19-.44-.38-.56-.35-.21-.79.03-1.11.28-1.99 1.59-3 4.1-3.93 6.49" fill="none" stroke="#fff" stroke-miterlimit="10" stroke-width=".42"/><path d="M177.44 94.54c.75-2.17 1.66-4.54 3.67-5.61.64-.34 1.35-.52 2.06-.58.74-.06 1.54.01 2.11.5.66.57.82 1.53.83 2.41.06 3.04-1.11 6.08-3.18 8.28a.43.43 0 01.13-.39M204.11 83.38c-1.05.07-2.12-.28-2.93-.95a.512.512 0 01-.2-.26c-.05-.21.17-.39.37-.48a2.46 2.46 0 012.18.1" fill="none" stroke="#fff" stroke-miterlimit="10" stroke-width=".42"/><path d="M203.73 84.92c-1.09.05-2.19-.02-3.27-.23-.73-.14-1.49-.35-2-.9-.58-.62-.72-1.52-.81-2.37-.03-.26-.05-.54.07-.77.17-.32.55-.46.89-.55 1.79-.46 3.69-.45 5.47.03M215.44 68.8c.25-.87.75-1.67 1.43-2.27.25-.22.59-.43.9-.3.46.19.38.88.18 1.34-.37.84-.9 1.61-1.55 2.25" fill="none" stroke="#fff" stroke-miterlimit="10" stroke-width=".42"/><path d="M213.99 67.8c.97-2.15 2.46-4.07 4.29-5.54.32-.25.66-.5 1.06-.55.5-.06 1.01.21 1.32.61s.46.91.51 1.42c.15 1.42-.34 2.84-1.12 4.03s-1.82 2.17-2.87 3.11c.06-.27.2-.51.4-.7M199.29 101.72c-.74.04-1.48-.4-1.81-1.07-.22-.45-.19-1.12.28-1.29.17-.06.36-.04.53 0 .69.15 1.32.57 1.74 1.14" fill="none" stroke="#fff" stroke-miterlimit="10" stroke-width=".42"/><path d="M198.57 103.51c-.74-.46-1.45-.97-2.11-1.53-.72-.61-1.44-1.42-1.34-2.36.11-1.06 1.29-1.73 2.34-1.66 1.05.08 1.98.69 2.85 1.29.05.04.11.08.1.15-.01.06-.13.07-.12.01" fill="none" stroke="#fff" stroke-miterlimit="10" stroke-width=".42"/><path d="M198 104.42c-2.2-.82-3.94-2.8-4.5-5.11-.19-.78-.24-1.66.17-2.35.3-.51.82-.86 1.36-1.08 2.02-.81 4.57.23 5.47 2.23-.05-.11-.1-.23-.15-.34M203.1 111.32a17.3 17.3 0 012.25-4.9c.7-1.04 1.76-2.11 2.99-1.89 1.19.22 1.85 1.65 1.68 2.86-.17 1.22-.92 2.25-1.65 3.23-.65.87-1.3 1.73-1.94 2.6" fill="none" stroke="#fff" stroke-miterlimit="10" stroke-width=".42"/><path d="M200.15 109.65c.52-2.97 1.87-5.78 3.86-8.02.61-.68 1.29-1.33 2.12-1.71 2.1-.98 4.76.02 6.14 1.9s1.66 4.42 1.25 6.73-1.42 4.46-2.42 6.57" fill="none" stroke="#fff" stroke-miterlimit="10" stroke-width=".42"/><path d="M198.14 109.1c1.25-3.77 2.92-7.56 5.85-10.21s7.39-3.9 10.89-2.09c.69.36 1.33.83 1.79 1.46 1.22 1.68.88 4.01.35 6.03a50.07 50.07 0 01-5.86 13.7M183.17 118.02c-.43-.27-.86-.54-1.29-.8-1.27-.79-2.57-1.61-3.53-2.77s-1.53-2.76-1.12-4.21c.13-.46.38-.92.81-1.12.64-.3 1.37.09 1.95.49a26.85 26.85 0 015.17 4.65c.08.09.16.2.14.31-.02.12-.21.18-.25.07" fill="none" stroke="#fff" stroke-miterlimit="10" stroke-width=".42"/><path d="M182.52 119.48c-3.44-.39-6.71-2.15-8.95-4.83-2.24-2.67-3.43-6.23-3.26-9.73.06-1.15.32-2.41 1.22-3.11.62-.48 1.44-.61 2.21-.61 3.08-.02 5.98 1.64 8.15 3.86 2.16 2.22 3.7 4.98 5.21 7.7.15.27-.28.62-.51.41s.06-.68.35-.56" fill="none" stroke="#fff" stroke-miterlimit="10" stroke-width=".42"/><path d="M182.05 118.48c-2.57-.56-4.92-2.11-6.47-4.27a11.155 11.155 0 01-1.98-7.56c.05-.45.13-.92.38-1.29.48-.72 1.44-.92 2.3-.88 2.24.1 4.29 1.44 5.77 3.16s2.47 3.79 3.44 5.85M209.06 90.5l-.54-4.33c-.18-1.47-.36-2.97-.05-4.41.32-1.44 1.25-2.84 2.63-3.29.2-.07.43-.11.62-.02.23.1.35.36.45.59 1.47 3.51 1.86 7.47 1.12 11.21-.03.13-.06.27-.18.33s-.29-.08-.21-.19" fill="none" stroke="#fff" stroke-miterlimit="10" stroke-width=".42"/><path d="M207.12 91.66c-1.34-2.8-1.95-5.95-1.76-9.05.13-2.07.65-4.19 1.92-5.82.56-.72 1.3-1.35 2.19-1.53.56-.11 1.15-.03 1.7.14 1.73.54 3.08 2 3.84 3.67.75 1.67.97 3.54.98 5.37.01 2.33-.3 4.66-.91 6.91" fill="none" stroke="#fff" stroke-miterlimit="10" stroke-width=".42"/><path d="M210.54 89.79c-.35-1.58-.36-3.24-.05-4.83.04-.18.11-.4.29-.44.1-.02.2.02.28.07.57.35.73 1.11.82 1.78.15 1.09.27 2.19.38 3.28M193.65 141.94c-.86-2.5-.95-5.26-.26-7.81.27-.98.66-1.95 1.33-2.71s1.65-1.28 2.65-1.2c1.07.08 2 .84 2.54 1.78s.73 2.03.82 3.11c.19 2.54-.19 5.13-1.11 7.5-.06-.12-.11-.25-.17-.37M191.19 141.92c-1.1-1.35-1.59-3.15-1.58-4.9.02-1.75.5-3.48 1.17-5.09.66-1.59 1.57-3.19 3.06-4.02" fill="none" stroke="#fff" stroke-miterlimit="10" stroke-width=".42"/><path d="M195.73 127.03c1.54-.63 3.36-.26 4.77.64.49.31.95.69 1.34 1.13.98 1.09 1.56 2.52 1.77 3.97.2 1.35.11 2.73.01 4.1l-.33 4.81" fill="none" stroke="#fff" stroke-miterlimit="10" stroke-width=".42"/><path d="M186.83 141.21c-.76-1.69-.96-3.59-1.09-5.44-.15-2.13-.21-4.28.16-6.38s1.19-4.16 2.62-5.73c1.07-1.17 2.44-2.01 3.86-2.71 1.18-.58 2.41-1.06 3.71-1.22 1.89-.22 3.86.3 5.4 1.44M203.32 122.31c.78.73 1.79 1.25 2.31 2.19.26.47.38 1.01.48 1.54.97 5.12 1.02 10.42.16 15.56.06-.13.12-.27.17-.4" fill="none" stroke="#fff" stroke-miterlimit="10" stroke-width=".42"/><path d="M498.32 132.55s-7.07-5.37-4.24-19.34 17.68-15.05 24.39-10.03c6.72 5.02 8.13 17.91 2.12 29.37 0 0-16.62 1.79-22.27 0z" fill="#95cebc"/><path d="M501.55 106.28s.35-13.98-10.32-18.39-12.74 7.11-8.35 12.91c5.86 7.73 14.01 9.18 14.01 9.18zM525.96 83.74s9.92-9.72 5.37-20.44c-4.55-10.73-14-3.98-14.88 3.27-1.17 9.68 3.63 16.5 3.63 16.5z" fill="#95cebc"/><path d="M517.03 113.85s16.73-7.08 16.23-22.42S518 79.76 513.5 88.21c-6.01 11.27-3.35 21.95-3.35 21.95zM480.75 93.39s-7.42 1.65-11.43-5.98c-4.01-7.64 3.18-7.88 5.71-7.76 2.54.12 7.28 3.34 8.26 8.38.99 5.04-2.54 5.36-2.54 5.36z" fill="#95cebc"/><path d="M510.91 94.6s-4.93-.36-6.11-4.49.66-6.57 4.1-6.36c3.44.2 6.17 4.5 6.17 4.5zM526.26 59.15c-.15-.04-1-4.41 2.15-7.64 3.14-3.22 6.44-2.78 7.74-.74 1.3 2.05.35 4.68-.82 6.47-1.18 1.79-3.57 3.27-6.09 3.84-2.52.59-2.98-1.93-2.98-1.93zM517.86 75.08s-5.45 2.54-8.96-1.64-1.14-5.76.86-6.28 5.76 1.15 6.53 1.51 1.58 5.44 1.58 5.44M531.46 84.43s4.56-4.07 9.51-2.75c4.95 1.31 6.36 5.02 5.19 8.96-1.18 3.94-7.73 9.11-13.34 5.68-5.62-3.44-1.36-11.89-1.36-11.89zM489.91 87.4c-.54-.16-.71-5.34 2.73-10.25s7.21-2.76 7.8-1.33 2.2 8.02-5.5 14.28c-7.7 6.27-5.03-2.7-5.03-2.7z" fill="#95cebc"/><path d="M533.97 88.73c.75-.89 1.89-1.42 3.04-1.41.18 0 .38.02.52.13.34.25.22.79.03 1.17-.68 1.34-1.9 2.39-3.32 2.84" fill="none" stroke="#fff" stroke-miterlimit="10" stroke-width=".42"/><path d="M533.8 86.57c1.51-.8 3.15-1.63 4.83-1.36 2.32.37 3.93 3.01 3.48 5.35-.46 2.34-2.68 4.11-5.02 4.3-.95.08-1.94-.08-2.77-.56M479.8 92.26a6.306 6.306 0 01-4.15-3c-.44-.76-.68-1.8-.11-2.46.23-.27.56-.42.9-.51.82-.2 1.7 0 2.45.39s1.41.94 2.05 1.5c.41.35.82.7 1.13 1.13-.2.03-.95.59-1.15.62-.55-.94-1.55-1.58-2.62-1.67-.16-.01-.36 0-.44.15-.05.1-.03.23.01.34.34 1.1 1.16 2.03 2.19 2.51" fill="none" stroke="#fff" stroke-miterlimit="10" stroke-width=".42"/><path d="M477.62 92.72a36.34 36.34 0 01-3.19-1.72c-.83-.5-1.65-1.05-2.22-1.83-.6-.82-.88-1.83-1.01-2.84-.12-.9-.13-1.85.24-2.67.62-1.39 2.24-2.13 3.75-2.03 1.5.1 2.88.92 4.01 1.93 1.38 1.23 2.47 2.79 3.16 4.51.04.11.12.24.23.23.12-.01.06-.26-.02-.17M491.6 87.55a6.469 6.469 0 012.22-3.36c.12-.09.26-.18.4-.15.83.18-.19 3.13.61 3.78 1.55-1.84 1.65-5.01.81-7.19-.08-.22-.19-.44-.38-.56-.35-.21-.79.03-1.11.28-1.99 1.59-3 4.1-3.93 6.49" fill="none" stroke="#fff" stroke-miterlimit="10" stroke-width=".42"/><path d="M489.73 84.07c.75-2.17 1.66-4.54 3.67-5.61.64-.34 1.35-.52 2.06-.58.74-.06 1.54.01 2.11.5.66.57.82 1.53.83 2.41.06 3.04-1.11 6.08-3.18 8.28a.43.43 0 01.13-.39M516.39 72.91c-1.05.07-2.12-.28-2.93-.95a.512.512 0 01-.2-.26c-.05-.21.17-.39.37-.48a2.46 2.46 0 012.18.1" fill="none" stroke="#fff" stroke-miterlimit="10" stroke-width=".42"/><path d="M516.02 74.45c-1.09.05-2.19-.02-3.27-.23-.73-.14-1.49-.35-2-.9-.58-.62-.72-1.52-.81-2.37-.03-.26-.05-.54.07-.77.17-.32.55-.46.89-.55 1.79-.46 3.69-.45 5.47.03M527.72 58.33c.25-.87.75-1.67 1.43-2.27.25-.22.59-.43.9-.3.46.19.38.88.18 1.34-.37.84-.9 1.61-1.55 2.25" fill="none" stroke="#fff" stroke-miterlimit="10" stroke-width=".42"/><path d="M526.27 57.33c.97-2.15 2.46-4.07 4.29-5.54.32-.25.66-.5 1.06-.55.5-.06 1.01.21 1.32.61s.46.91.51 1.42c.15 1.42-.34 2.84-1.12 4.03s-1.82 2.17-2.87 3.11c.06-.27.2-.51.4-.7M511.58 91.25c-.74.04-1.48-.4-1.81-1.07-.22-.45-.19-1.12.28-1.29.17-.06.36-.04.53 0 .69.15 1.32.57 1.74 1.14" fill="none" stroke="#fff" stroke-miterlimit="10" stroke-width=".42"/><path d="M510.86 93.04c-.74-.46-1.45-.97-2.11-1.53-.72-.61-1.44-1.42-1.34-2.36.11-1.06 1.29-1.73 2.34-1.66 1.05.08 1.98.69 2.85 1.29.05.04.11.08.1.15-.01.06-.13.07-.12.01" fill="none" stroke="#fff" stroke-miterlimit="10" stroke-width=".42"/><path d="M510.29 93.95c-2.2-.82-3.94-2.8-4.5-5.11-.19-.78-.24-1.66.17-2.35.3-.51.82-.86 1.36-1.08 2.02-.81 4.57.23 5.47 2.23-.05-.11-.1-.23-.15-.34M515.39 100.85a17.3 17.3 0 012.25-4.9c.7-1.04 1.76-2.11 2.99-1.89 1.19.22 1.85 1.65 1.68 2.86-.17 1.22-.92 2.25-1.65 3.23-.65.87-1.3 1.73-1.94 2.6" fill="none" stroke="#fff" stroke-miterlimit="10" stroke-width=".42"/><path d="M512.44 99.18c.52-2.97 1.87-5.78 3.86-8.02.61-.68 1.29-1.33 2.12-1.71 2.1-.98 4.76.02 6.14 1.9s1.66 4.42 1.25 6.73-1.42 4.46-2.42 6.57" fill="none" stroke="#fff" stroke-miterlimit="10" stroke-width=".42"/><path d="M510.43 98.63c1.25-3.77 2.92-7.56 5.85-10.21s7.39-3.9 10.89-2.09c.69.36 1.33.83 1.79 1.46 1.22 1.68.88 4.01.35 6.03a50.07 50.07 0 01-5.86 13.7M495.46 107.55c-.43-.27-.86-.54-1.29-.8-1.27-.79-2.57-1.61-3.53-2.77s-1.53-2.76-1.12-4.21c.13-.46.38-.92.81-1.12.64-.3 1.37.09 1.95.49a26.85 26.85 0 015.17 4.65c.08.09.16.2.14.31-.02.12-.21.18-.25.07" fill="none" stroke="#fff" stroke-miterlimit="10" stroke-width=".42"/><path d="M494.8 109.01c-3.44-.39-6.71-2.15-8.95-4.83-2.24-2.67-3.43-6.23-3.26-9.73.06-1.15.32-2.41 1.22-3.11.62-.48 1.44-.61 2.21-.61 3.08-.02 5.98 1.64 8.15 3.86s3.7 4.98 5.21 7.7c.15.27-.28.62-.51.41s.06-.68.35-.56" fill="none" stroke="#fff" stroke-miterlimit="10" stroke-width=".42"/><path d="M494.33 108.02c-2.57-.56-4.92-2.11-6.47-4.27s-2.26-4.91-1.98-7.56c.05-.45.13-.92.38-1.29.48-.72 1.44-.92 2.3-.88 2.24.1 4.29 1.44 5.77 3.16s2.47 3.79 3.44 5.85M521.35 80.03l-.54-4.33c-.18-1.47-.36-2.97-.05-4.41.32-1.44 1.25-2.84 2.63-3.29.2-.07.43-.11.62-.02.23.1.35.36.45.59 1.47 3.51 1.86 7.47 1.12 11.21-.03.13-.06.27-.18.33s-.29-.08-.21-.19" fill="none" stroke="#fff" stroke-miterlimit="10" stroke-width=".42"/><path d="M519.41 81.19c-1.34-2.8-1.95-5.95-1.76-9.05.13-2.07.65-4.19 1.92-5.82.56-.72 1.3-1.35 2.19-1.53.56-.11 1.15-.03 1.7.14 1.73.54 3.08 2 3.84 3.67.75 1.67.97 3.54.98 5.37.01 2.33-.3 4.66-.91 6.91" fill="none" stroke="#fff" stroke-miterlimit="10" stroke-width=".42"/><path d="M522.82 79.32c-.35-1.58-.36-3.24-.05-4.83.04-.18.11-.4.29-.44.1-.02.2.02.28.07.57.35.73 1.11.82 1.78.15 1.09.27 2.19.38 3.28M505.93 131.47c-.86-2.5-.95-5.26-.26-7.81.27-.98.66-1.95 1.33-2.71s1.65-1.28 2.65-1.2c1.07.08 2 .84 2.54 1.78s.73 2.03.82 3.11c.19 2.54-.19 5.13-1.11 7.5-.06-.12-.11-.25-.17-.37M503.48 131.45c-1.1-1.35-1.59-3.15-1.58-4.9.02-1.75.5-3.48 1.17-5.09.66-1.59 1.57-3.19 3.06-4.02" fill="none" stroke="#fff" stroke-miterlimit="10" stroke-width=".42"/><path d="M508.01 116.56c1.54-.63 3.36-.26 4.77.64.49.31.95.69 1.34 1.13.98 1.09 1.56 2.52 1.77 3.97.2 1.35.11 2.73.01 4.1l-.33 4.81" fill="none" stroke="#fff" stroke-miterlimit="10" stroke-width=".42"/><path d="M499.11 130.74c-.76-1.69-.96-3.59-1.09-5.44-.15-2.13-.21-4.28.16-6.38s1.19-4.16 2.62-5.73c1.07-1.17 2.44-2.01 3.86-2.71 1.18-.58 2.41-1.06 3.71-1.22 1.89-.22 3.86.3 5.4 1.44M515.6 111.84c.78.73 1.79 1.25 2.31 2.19.26.47.38 1.01.48 1.54.97 5.12 1.02 10.42.16 15.56.06-.13.12-.27.17-.4" fill="none" stroke="#fff" stroke-miterlimit="10" stroke-width=".42"/><path d="M108.89 252.02s11.48-1.24 15.46-3.05c3.98-1.8 8.5-7.42 8.55-17.81.05-10.4-6.91-20.16-21.86-18.21l-3.09-.05s-4.78-1.03-12.01.2c-7.23 1.24-13.18 6.91-13.98 14.16s1.09 17.57 9.26 21.73 17.67 3.03 17.67 3.03z" fill="#4d9b90"/><path d="M111.82 251.63c4.05-.84 7.34-4.06 9.09-7.86 1.75-3.79 2.14-8.09 2-12.27-.09-2.84-.42-5.7-1.33-8.39s-2.44-5.21-4.63-6.98c-1.93-1.56-4.28-2.47-6.59-3.37" fill="none" stroke="#fff" stroke-miterlimit="10" stroke-width=".363"/><path d="M108.51 252.15c3.75-4.72 5.48-10.89 5.46-16.95-.01-6.06-1.68-12.03-4.11-17.56-.73-1.66-1.52-3.28-2.39-4.87-.42-.15-.88.02-1.25.27-4.18 2.85-6.47 7.79-7.91 12.67-.52 1.77-.97 3.58-1.02 5.42-.11 3.34 1.05 6.59 2.32 9.67.95 2.33 1.98 4.63 3.08 6.9.41.86.85 1.72 1.53 2.39.94.92 2.24 1.34 3.5 1.74-.12-.18.89.48.79.32z" fill="none" stroke="#fff" stroke-miterlimit="10" stroke-width=".363"/><path d="M100.65 212.67c-3.51.31-6.33 3.04-8.46 5.89-2.58 3.45-4.67 7.51-4.66 11.83.01 2.5.72 4.93 1.48 7.31.59 1.84 1.23 3.68 2.12 5.38 1.32 2.51 3.19 4.68 5.04 6.83.32.37.64.74 1.06.97.46.25.99.32 1.5.4 1.35.22 2.67.59 3.92 1.12" fill="none" stroke="#fff" stroke-miterlimit="10" stroke-width=".363"/><path d="M115.06 207.35c-.27-2.09-1.89-3.92-3.91-4.42 1.02 1.75 1.9 3.23 1.56 5.82-.1-2.06-.68-4.1-1.68-5.9-1.07 1.7-1.07 3.94-1.37 5.78-.53-2.21.24-4.17.97-6.11-2.01 1.31-3.35 3.62-3.5 6.04-.39-1.58.94-4.09 2.05-5.83-.59-.11-1.09.43-1.45.92-1.39 1.89-2.83 4.08-2.48 6.41-.48-2.87.69-4.76 2.17-6.6-.54-.4-1.29-.42-1.91-.16s-1.1.77-1.47 1.34c-1.49 2.3-.95 5.63 1 7.54 4.13 3.99 10.78 1.18 10.02-4.83z" fill="#f8d2d5"/><path d="M126.59 222.88c-2-.27-4.07-.03-5.97.67.7-1.36 1.41-2.71 2.11-4.07M127.24 235.06c-1.51.56-2.98 1.25-4.38 2.05a23.2 23.2 0 011.92 3.45l-.46-.4M115.65 226.71a26.792 26.792 0 01-3.74 4.93M116.26 230.7c-1.43-1.28-3.16-2.2-5.01-2.67M98.05 219.2c.25 1.52.68 3.01 1.27 4.43-1.42-.13-2.87 0-4.25.39M95.13 235.02a8.33 8.33 0 013.41 1.92c.12.12.25.25.27.42.02.23-.18.41-.35.55l-2.66 2.15M87.96 221.84c.37 1.1.48 2.29.3 3.43-1-.18-2.06 0-2.95.51M89.49 233.95c-1.08 1.31-1.83 2.9-2.16 4.58M90.95 237.28c-1.54-.45-3-1.17-4.31-2.11M113.51 247.39l-2.66-4.07M114.62 244.23c-.39-.52-1.21-.2-1.75.16-1.21.79-2.41 1.59-3.62 2.38" fill="none" stroke="#fff" stroke-miterlimit="10" stroke-width=".363"/><path d="M365.89 126.6s11.48-1.24 15.46-3.05c3.98-1.8 8.5-7.42 8.55-17.81.05-10.4-6.91-20.16-21.86-18.21l-3.09-.05s-4.78-1.03-12.01.2c-7.23 1.24-13.18 6.91-13.98 14.16s1.09 17.57 9.26 21.73c8.18 4.17 17.67 3.03 17.67 3.03z" fill="#67a592"/><path d="M368.82 126.21c4.05-.84 7.34-4.06 9.09-7.86 1.75-3.79 2.14-8.09 2-12.27-.09-2.84-.42-5.7-1.33-8.39s-2.44-5.21-4.63-6.98c-1.93-1.56-4.28-2.47-6.59-3.37" fill="none" stroke="#fff" stroke-miterlimit="10" stroke-width=".363"/><path d="M365.52 126.73c3.75-4.72 5.48-10.89 5.46-16.95-.01-6.06-1.68-12.03-4.11-17.56-.73-1.66-1.52-3.28-2.39-4.87-.42-.15-.88.02-1.25.27-4.18 2.85-6.47 7.79-7.91 12.67-.52 1.77-.97 3.58-1.02 5.42-.11 3.34 1.05 6.59 2.32 9.67.95 2.33 1.98 4.63 3.08 6.9.41.86.85 1.72 1.53 2.39.94.92 2.24 1.34 3.5 1.74-.13-.17.89.48.79.32z" fill="none" stroke="#fff" stroke-miterlimit="10" stroke-width=".363"/><path d="M357.65 87.25c-3.51.31-6.33 3.04-8.46 5.89-2.58 3.45-4.67 7.51-4.66 11.83.01 2.5.72 4.93 1.48 7.31.59 1.84 1.23 3.68 2.12 5.38 1.32 2.51 3.19 4.68 5.04 6.83.32.37.64.74 1.06.97.46.25.99.32 1.5.4 1.35.22 2.67.59 3.92 1.12" fill="none" stroke="#fff" stroke-miterlimit="10" stroke-width=".363"/><path d="M372.06 81.93c-.27-2.09-1.89-3.92-3.91-4.42 1.02 1.75 1.9 3.23 1.56 5.82-.1-2.06-.68-4.1-1.68-5.9-1.07 1.7-1.07 3.94-1.37 5.78-.53-2.21.24-4.17.97-6.11-2.01 1.31-3.35 3.62-3.5 6.04-.39-1.58.94-4.09 2.05-5.83-.59-.11-1.09.43-1.45.92-1.39 1.89-2.83 4.08-2.48 6.41-.48-2.87.69-4.76 2.17-6.6-.54-.4-1.29-.42-1.91-.16s-1.1.77-1.47 1.34c-1.49 2.3-.95 5.63 1 7.54 4.14 3.99 10.79 1.18 10.02-4.83z" fill="#eb83a0"/><path d="M383.59 97.46c-2-.27-4.07-.03-5.97.67.7-1.36 1.41-2.71 2.11-4.07M384.25 109.64c-1.51.56-2.98 1.25-4.38 2.05a23.2 23.2 0 011.92 3.45l-.46-.4M372.65 101.29a26.792 26.792 0 01-3.74 4.93M373.26 105.28c-1.43-1.28-3.16-2.2-5.01-2.67M355.05 93.79c.25 1.52.68 3.01 1.27 4.43-1.42-.13-2.87 0-4.25.39M352.14 109.6a8.33 8.33 0 013.41 1.92c.12.12.25.25.27.42.02.23-.18.41-.35.55l-2.66 2.15M344.96 96.42c.37 1.1.48 2.29.3 3.43-1-.18-2.06 0-2.95.51M346.49 108.53c-1.08 1.31-1.83 2.9-2.16 4.58M347.95 111.86c-1.54-.45-3-1.17-4.31-2.11M370.51 121.98l-2.66-4.07M371.63 118.81c-.39-.52-1.21-.2-1.75.16-1.21.79-2.41 1.59-3.62 2.38" fill="none" stroke="#fff" stroke-miterlimit="10" stroke-width=".363"/><path d="M500.66 31.22c-1.44-.12-2.91-.16-4.32.14-1.42.3-1.89.57-2.83 1.69 1.9-2.2 2.36-2.61 4.79-6.19-1.69 1.08-3.84 1.19-5.5 2.31-1.25.85-2.12 2.26-2.33 3.77 1.39-1.62 2.73-3.63 2.32-5.73-.39-2-1.89-3.39-2-5.67-.32 1.99-1.2 3.36-1.65 4.99-.49 1.78-.3 3.75.54 5.4.03-1.33-1.22-2.29-2.38-2.92s-2.49-1.3-2.86-2.58c0 3.33 1.96 6.59 4.89 8.12-.36-1.32-1.86-1.93-3.19-2.18s-2.82-.42-3.72-1.44c.46 2.01 1.93 3.71 3.75 4.65 2.15 1.11 4.8 1.16 7.13.3 2.57-.97 4.52-3.83 7.36-4.66z" fill="#4d9b90"/><path d="M229.87 174.81c1.55-.13 3.13-.18 4.66.15s2.03.62 3.05 1.82c-2.04-2.37-2.55-2.81-5.16-6.67 1.82 1.16 4.14 1.29 5.93 2.49 1.35.91 2.29 2.43 2.51 4.06-1.49-1.74-2.95-3.91-2.5-6.17.43-2.16 2.04-3.65 2.16-6.11.34 2.15 1.3 3.62 1.78 5.38.53 1.92.32 4.04-.58 5.82-.03-1.43 1.32-2.47 2.57-3.14 1.25-.68 2.68-1.4 3.08-2.78 0 3.59-2.12 7.1-5.27 8.75.39-1.43 2.01-2.08 3.44-2.35 1.44-.27 3.04-.45 4.01-1.55-.5 2.17-2.08 4-4.04 5.01-2.32 1.2-5.18 1.25-7.68.32-2.79-1.06-4.9-4.14-7.96-5.03zM39.57 27.17c1.49-.13 3-.17 4.46.14s1.95.59 2.92 1.74c-1.96-2.27-2.44-2.69-4.94-6.39 1.74 1.11 3.97 1.23 5.68 2.39 1.29.88 2.19 2.33 2.4 3.9-1.43-1.67-2.82-3.75-2.4-5.92.41-2.07 1.95-3.5 2.07-5.86.33 2.06 1.24 3.47 1.7 5.16.51 1.84.31 3.88-.55 5.58-.03-1.38 1.26-2.37 2.46-3.01 1.2-.65 2.57-1.35 2.96-2.67 0 3.44-2.03 6.81-5.05 8.38.37-1.37 1.92-1.99 3.3-2.25s2.91-.43 3.85-1.49c-.48 2.08-1.99 3.83-3.87 4.8-2.22 1.15-4.96 1.2-7.36.31-2.68-1.01-4.7-3.95-7.63-4.81z" fill="#f8d2d5"/><path d="M162.9 52.58c1.49-.13 3-.17 4.46.14s1.95.59 2.92 1.74c-1.96-2.27-2.44-2.69-4.94-6.39 1.74 1.11 3.97 1.23 5.68 2.39 1.29.88 2.19 2.33 2.4 3.9-1.43-1.67-2.82-3.75-2.4-5.92.41-2.07 1.95-3.5 2.07-5.86.33 2.06 1.24 3.47 1.7 5.16.51 1.84.31 3.88-.55 5.58-.03-1.38 1.26-2.37 2.46-3.01 1.2-.65 2.57-1.35 2.96-2.67 0 3.44-2.03 6.81-5.05 8.38.37-1.37 1.92-1.99 3.3-2.25s2.91-.43 3.85-1.49c-.48 2.08-1.99 3.83-3.87 4.8-2.22 1.15-4.96 1.2-7.36.31-2.68-1.01-4.7-3.95-7.63-4.81zM139.39 46.76c-5.4-3.09-10.94-.07-10.78 11.23s-.05 28.27-1.33 32.81c-1.02 3.63-2.29 5.58-4.7 6.02.02-.49.03-.99.05-1.48.67-5.25 1.2-13.74 1.74-19.01 1.24-12.15 2.2-20.2 1.16-31.18-.33-3.5-.67-7.04-1.83-10.36s-3.25-6.43-6.3-8.1c-3.06-1.66-7.17-1.58-9.74.79-2.05 1.89-2.83 4.8-3.22 7.58-.42 2.99-.51 6.02-.53 9.04-.09 10.76.63 21.52 1.79 32.22.33 3.02.69 6.03.97 9.05-.12-.01-.23-.01-.36-.01-6.3.09-4.3-15.44-3.96-22.69.35-7.24-.42-14.47-2.68-16.02-2.25-1.55-10.53-2.79-11.05 8.07s-1.35 31.45 4.31 37.25c5.06 5.18 12.69 3.47 14.26 3.04.07 9.57-1.06 19.16-.14 28.69.26 2.73.41 9.36 2.62 12.66.15.88.3 1.41.46 1.51l1.09-.02c.55.3 1.17.46 1.89.43.4-.02.73-.22 1.04-.47l1.28-.02.37-.01 4.96-.07c.55-8.29 1.01-18.46 1.41-29.06 5.81.36 15.87-.65 17.92-11.48 2.91-15.41 4.7-47.32-.7-50.41z" fill="#4d9b90"/><path d="M111.68 137.4c-.51-4.76.48-9.56.23-14.33-.17-3.38-.96-6.7-1.13-10.08-.19-3.62.33-7.24.56-10.86.36-5.71 0-11.43-.35-17.14-.84-13.44-1.67-26.87-2.51-40.31-.14-2.25-.28-4.52-.09-6.77.35-4.27 1.91-8.44 4.45-11.87M116.59 137.05l.51-23.72c.13-6.15.26-12.3-.09-18.44-.22-3.86-.63-7.7-.81-11.56-.54-11.33.87-22.64 1.95-33.92.77-8.05 1.21-16.76-3.04-23.61M106.12 93.36c-2.61-.26-5.26-.52-7.69-1.52s-4.65-2.85-5.48-5.37c-.82-2.49-.19-5.25-.77-7.81-.3-1.34-.94-2.6-1.06-3.96-.12-1.35.26-2.69.36-4.03.14-1.73-.17-3.45-.36-5.17-.48-4.31-.23-8.68.02-13.01.15-2.64.76-5.91 3.28-6.64" fill="none" stroke="#fff" stroke-miterlimit="10" stroke-width=".371"/><path d="M106.28 89.47c-5.08-.8-9.13-5.91-8.8-11.11.09-1.45.48-2.93.15-4.35-.37-1.59-1.62-3.07-1.21-4.65.15-.6.54-1.12.81-1.67 1.3-2.67-.02-5.82-.08-8.79-.04-2.22.63-4.37.96-6.56.32-2.19.24-4.62-1.12-6.36M121.98 99.61c1.45-.75 2.9-1.49 4.35-2.24 1.08-.55 2.18-1.13 2.98-2.03 1.15-1.29 1.54-3.09 1.73-4.81.26-2.4.2-4.84-.18-7.23-.18-1.12-.43-2.23-.41-3.36.02-1.16.32-2.3.5-3.45.48-2.95.21-5.96-.12-8.93-.2-1.81-.42-3.63-.22-5.44.17-1.62.68-3.19.86-4.81.22-1.89-.01-3.8.09-5.69.1-1.9.6-3.89 1.95-5.2.23-.22.54-.42.83-.29.28.13.14.72-.14.58" fill="none" stroke="#fff" stroke-miterlimit="10" stroke-width=".371"/><path d="M121.75 104.29c4.21-.8 8.2-2.77 11.41-5.64.89-.79 1.72-1.66 2.3-2.71.69-1.26.98-2.7 1.13-4.14.45-4.11-.07-8.28.27-12.4.28-3.36 1.12-6.7.83-10.06-.13-1.55-.51-3.07-.61-4.62-.44-6.24 3.4-12.31 2.37-18.48M113.03 137.35c-.29-4.84-.58-9.68-.74-14.53-.3-9.23-.12-18.47.55-27.67.2-2.77.44-5.55.23-8.31-.44-5.77-2.84-11.27-3.08-17.05-.22-5.42 1.45-10.96.02-16.18-.38-1.38-.97-2.72-1.1-4.14-.21-2.2.69-4.33 1.05-6.5.81-4.79-.93-9.97.96-14.44M118.13 136.74c.65-3.01-.44-6.08-.83-9.13-.52-4.07.2-8.18.64-12.26.26-2.38.42-4.79.27-7.18-.13-2.18-.52-4.34-.68-6.52-.48-6.71 1.22-13.52.02-20.14-.65-3.6-2.15-7.25-1.25-10.79.54-2.11 1.22-4.18 1.88-6.26 3.7-11.7-2.54-24.55-.14-36.6M105.4 93.52c-2.61-.41-5.38-.89-7.34-2.68-1.05-.96-1.78-2.22-2.65-3.35-.9-1.16-1.97-2.21-2.55-3.56-1.25-2.86 0-6.15-.09-9.27-.07-2.35-.91-4.61-1.07-6.96-.23-3.39.98-6.77.61-10.14-.28-2.57-1.42-5.32-.25-7.61.67-1.29 2.06-2.51 1.61-3.9" fill="none" stroke="#fff" stroke-miterlimit="10" stroke-width=".371"/><path d="M107.25 89.64l-4.11-2.22c-1.49-.81-3.07-1.71-3.81-3.24-.67-1.38-.54-3.08-1.33-4.4-.29-.47-.69-.89-.83-1.43-.23-.84.23-1.7.58-2.49 1.01-2.29 1.19-4.94.49-7.35-.22-.75-.52-1.49-.55-2.27-.04-1.11.46-2.15.75-3.21.44-1.62.4-3.37-.13-4.96-.21-.62-.48-1.22-.57-1.86-.25-1.84 1.06-3.56 1.11-5.41.04-1.72-1-3.26-2-4.65M122.73 99.57c1.11.26 2.26-.29 3.12-1.04s1.54-1.7 2.39-2.46c.65-.58 1.4-1.05 1.99-1.7 1.34-1.47 1.64-3.59 1.88-5.57.08-.67.16-1.35.01-2.01-.13-.58-.44-1.11-.6-1.69-.48-1.82.64-3.7.51-5.58-.06-.91-.42-1.77-.61-2.67-.79-3.83 1.66-7.85.58-11.6-.45-1.57-1.5-3-1.46-4.63.04-1.45.94-2.7 1.47-4.05.53-1.33.69-2.81.47-4.23-.15-.96-.47-1.89-.51-2.86s.28-2.04 1.11-2.53" fill="none" stroke="#fff" stroke-miterlimit="10" stroke-width=".371"/><path d="M122.48 104.51c1.55-.27 3.09-.61 4.61-1.01 1.22-.32 2.52-.74 3.25-1.78.28-.4.46-.86.74-1.26 1.06-1.51 3.27-1.69 4.55-3.01.99-1.02 1.26-2.55 1.22-3.98s-.34-2.85-.28-4.27c.13-3.27 2.09-6.27 2.1-9.54.01-1.92-.66-3.77-.86-5.67-.43-4.02 1.22-8.06.77-12.08-.22-1.94-.92-3.92-.41-5.81.39-1.44 1.47-2.71 1.41-4.19-.04-.92-.51-1.75-.83-2.61s-.47-1.9.07-2.64M148.89 50.81h.12" fill="none" stroke="#fff" stroke-miterlimit="10" stroke-width=".371"/><path d="M455.93 161.27c-5.4-3.09-10.94-.07-10.78 11.23s-.05 28.27-1.33 32.81c-1.02 3.63-2.29 5.58-4.7 6.02.02-.49.03-.99.05-1.48.67-5.25 1.2-13.74 1.74-19.01 1.24-12.15 2.2-20.2 1.16-31.18-.33-3.5-.67-7.04-1.83-10.36s-3.25-6.43-6.3-8.1c-3.06-1.66-7.17-1.58-9.74.79-2.05 1.89-2.83 4.8-3.22 7.58-.42 2.99-.51 6.02-.53 9.04-.09 10.76.63 21.52 1.79 32.22.33 3.02.69 6.03.97 9.05-.12-.01-.23-.01-.36-.01-6.3.09-4.3-15.44-3.96-22.69.35-7.24-.42-14.47-2.68-16.02-2.25-1.55-10.53-2.79-11.05 8.07s-1.35 31.45 4.31 37.25c5.06 5.18 12.69 3.47 14.26 3.04.07 9.57-1.06 19.16-.14 28.69.26 2.73.41 9.36 2.62 12.66.15.88.3 1.41.46 1.51l1.09-.02c.55.3 1.17.46 1.89.43.4-.02.73-.22 1.04-.47l1.28-.02.37-.01 4.96-.07c.55-8.29 1.01-18.46 1.41-29.06 5.81.36 15.87-.65 17.92-11.48 2.91-15.41 4.7-47.32-.7-50.41z" fill="#4d9b90"/><path d="M428.22 251.91c-.51-4.76.48-9.56.23-14.33-.17-3.38-.96-6.7-1.13-10.08-.19-3.62.33-7.24.56-10.86.36-5.71 0-11.43-.35-17.14-.84-13.44-1.67-26.87-2.51-40.31-.14-2.25-.28-4.52-.09-6.77.35-4.27 1.91-8.44 4.45-11.87M433.13 251.56l.51-23.72c.13-6.15.26-12.3-.09-18.44-.22-3.86-.63-7.7-.81-11.56-.54-11.33.87-22.64 1.95-33.92.77-8.05 1.21-16.76-3.04-23.61M422.66 207.86c-2.61-.26-5.26-.52-7.69-1.52s-4.65-2.85-5.48-5.37c-.82-2.49-.19-5.25-.77-7.81-.3-1.34-.94-2.6-1.06-3.96-.12-1.35.26-2.69.36-4.03.14-1.73-.17-3.45-.36-5.17-.48-4.32-.23-8.68.02-13.01.15-2.64.76-5.91 3.28-6.64" fill="none" stroke="#fff" stroke-miterlimit="10" stroke-width=".371"/><path d="M422.82 203.98c-5.08-.8-9.13-5.91-8.8-11.11.09-1.45.48-2.93.15-4.35-.37-1.59-1.62-3.07-1.21-4.65.15-.6.54-1.12.81-1.67 1.3-2.67-.02-5.82-.08-8.79-.04-2.22.63-4.37.96-6.56.32-2.19.24-4.62-1.12-6.36M438.52 214.12c1.45-.75 2.9-1.49 4.35-2.24 1.08-.55 2.18-1.13 2.98-2.03 1.15-1.29 1.54-3.09 1.73-4.81.26-2.4.2-4.84-.18-7.23-.18-1.12-.43-2.23-.41-3.36.02-1.16.32-2.3.5-3.45.48-2.95.21-5.96-.12-8.93-.2-1.81-.42-3.63-.22-5.44.17-1.62.68-3.19.86-4.81.22-1.89-.01-3.8.09-5.69.1-1.9.6-3.89 1.95-5.2.23-.22.54-.42.83-.29.28.13.14.72-.14.58" fill="none" stroke="#fff" stroke-miterlimit="10" stroke-width=".371"/><path d="M438.29 218.8c4.21-.8 8.2-2.77 11.41-5.64.89-.79 1.72-1.66 2.3-2.71.69-1.26.98-2.7 1.13-4.14.45-4.11-.07-8.28.27-12.4.28-3.36 1.12-6.7.83-10.06-.13-1.55-.51-3.07-.61-4.62-.44-6.24 3.4-12.31 2.37-18.48M429.57 251.86c-.29-4.84-.58-9.68-.74-14.53-.3-9.23-.12-18.47.55-27.67.2-2.77.44-5.55.23-8.31-.44-5.77-2.84-11.27-3.08-17.05-.22-5.42 1.45-10.96.02-16.18-.38-1.38-.97-2.72-1.1-4.14-.21-2.2.69-4.33 1.05-6.5.81-4.79-.93-9.97.96-14.44M434.67 251.25c.65-3.01-.44-6.08-.83-9.13-.52-4.07.2-8.18.64-12.26.26-2.38.42-4.79.27-7.18-.13-2.18-.52-4.34-.68-6.52-.48-6.71 1.22-13.52.02-20.14-.65-3.6-2.15-7.25-1.25-10.79.54-2.11 1.22-4.18 1.88-6.26 3.7-11.7-2.54-24.55-.14-36.6M421.94 208.03c-2.61-.41-5.38-.89-7.34-2.68-1.05-.96-1.78-2.22-2.65-3.35-.9-1.16-1.97-2.21-2.55-3.56-1.25-2.86 0-6.15-.09-9.27-.07-2.35-.91-4.61-1.07-6.96-.23-3.39.98-6.77.61-10.14-.28-2.57-1.42-5.32-.25-7.61.67-1.29 2.06-2.51 1.61-3.9" fill="none" stroke="#fff" stroke-miterlimit="10" stroke-width=".371"/><path d="M423.8 204.15l-4.11-2.22c-1.49-.81-3.07-1.71-3.81-3.24-.67-1.38-.54-3.08-1.33-4.4-.29-.47-.69-.89-.83-1.43-.23-.84.23-1.7.58-2.49 1.01-2.29 1.19-4.94.49-7.35-.22-.75-.52-1.49-.55-2.27-.04-1.11.46-2.15.75-3.21.44-1.62.4-3.37-.13-4.96-.21-.62-.48-1.22-.57-1.86-.25-1.84 1.06-3.56 1.11-5.41.04-1.72-1-3.26-2-4.65M439.27 214.08c1.11.26 2.26-.29 3.12-1.04s1.54-1.7 2.39-2.46c.65-.58 1.4-1.05 1.99-1.7 1.34-1.47 1.64-3.59 1.88-5.57.08-.67.16-1.35.01-2.01-.13-.58-.44-1.11-.6-1.69-.48-1.82.64-3.7.51-5.58-.06-.91-.42-1.77-.61-2.67-.79-3.83 1.66-7.85.58-11.6-.45-1.57-1.5-3-1.46-4.63.04-1.45.94-2.7 1.47-4.05.53-1.33.69-2.81.47-4.23-.15-.96-.47-1.89-.51-2.86s.28-2.04 1.11-2.53" fill="none" stroke="#fff" stroke-miterlimit="10" stroke-width=".371"/><path d="M439.03 219.02c1.55-.27 3.09-.61 4.61-1.01 1.22-.32 2.52-.74 3.25-1.78.28-.4.46-.86.74-1.26 1.06-1.51 3.27-1.69 4.55-3.01.99-1.02 1.26-2.55 1.22-3.98s-.34-2.85-.28-4.27c.13-3.27 2.09-6.27 2.1-9.54.01-1.92-.66-3.77-.86-5.67-.43-4.02 1.22-8.06.77-12.08-.22-1.94-.92-3.92-.41-5.81.39-1.44 1.47-2.71 1.41-4.19-.04-.92-.51-1.75-.83-2.61s-.47-1.9.07-2.64M465.43 165.32h.12" fill="none" stroke="#fff" stroke-miterlimit="10" stroke-width=".371"/><path d="M286.05 241.83s7.06-11.08 15.84-20.75 13.87-10.59 18.47-5.65c5.02 5.4 2.04 10.72-.69 13.31-2.87 2.73-8.46 7.47-14.11 11.1s-13.35 8.63-13.35 8.63-4.96-3.85-6.16-6.64z" fill="#4d9b90"/><path d="M287.67 243c.12-.01-.02.22-.1.12-.08-.09-.02-.24.05-.34 4.91-7.01 10.31-13.65 16.15-19.86 1.31-1.39 2.64-2.76 4.12-3.96 2.54-2.06 5.49-3.59 8.65-4.48 1.04-.29 2.3-.47 3.13.27" fill="none" stroke="#fff" stroke-miterlimit="10" stroke-width=".371"/><path d="M288.69 244.75c6.1-9.11 14.44-16.36 22.68-23.51 2.69-2.33 5.4-4.68 8.52-6.39M320.27 215.26c-.34 2.78-2.19 5.05-3.99 7.12-5.96 6.88-12.3 13.51-19.74 18.7-.8.56-1.61 1.09-2.42 1.63-1.46.97-2.91 1.94-4.37 2.9" fill="none" stroke="#fff" stroke-miterlimit="10" stroke-width=".371"/><path d="M290.88 246.95c4.01-3.14 7.37-5.77 11.23-8.46 1.15-.8 2.25-1.66 3.35-2.52 4.11-3.22 8.17-6.54 11.75-10.37 1.23-1.31 2.41-2.7 3.15-4.35s1-3.61.35-5.35" fill="none" stroke="#fff" stroke-miterlimit="10" stroke-width=".371"/><path d="M318.76 213.03c.4-.01.81.18 1.07.5-.44-.87-.33-1.98.25-2.72.17.45.35.9.52 1.36.35-.96 1.19-1.71 2.18-1.93-.25.58-.47 1.17-.67 1.77.74-.61 1.65-1 2.6-1.13-.34.94-.88 1.8-1.59 2.49.83-.08 1.63-.32 2.35-.72.04.69-.37 1.33-.92 1.71-.55.39-1.21.57-1.87.7.72.06 1.45.13 2.17.19-.13.56-.66.94-1.22 1.05s-1.14-.01-1.69-.15c.23.3.46.6.69.91.05.06.07.19-.01.18-.84-.09-1.69-1.01-2.15-1.66-.59-.87-1.3-1.55-1.71-2.55z" fill="#eb83a0"/><path d="M311.54 214.03c.16.78.16 1.6-.02 2.36M303.77 220.27c.49.25.93.6 1.29 1.03M318.58 222.89l1.97.24M316.84 226.19c.54.28 1.08.57 1.61.85M312.25 225.15c.22.72.29 1.47.21 2.21M309.75 231.44c.65.47 1.51.61 2.24.36M305.78 231.09c.27.83.35 1.72.22 2.57M304.56 236.96c.41.1.81.2 1.22.29M297.75 238.17c.41.54.54 1.29.33 1.92M296.33 242.98a3.42 3.42 0 011.9-.21M299.89 225.11c.14.63.19 1.27.14 1.91M302.75 228.86c.91-.31 1.81-.62 2.72-.92M310.44 219.96c-.03-.08.09-.14.16-.1.07.05.09.14.11.23.09.57.18 1.14.28 1.71M294.72 233.21c.64-.14 1.24-.41 1.77-.79M292.4 238.58c.04-.15.09-.3.13-.45.09.62.07 1.26-.08 1.87M314.82 218.2l1.97-.18" fill="none" stroke="#fff" stroke-miterlimit="10" stroke-width=".5"/><path d="M284.3 257.61s-9.94-15.6-15.58-32.59-1.29-24.07 12.08-27.05c14.6-3.26 19.83 3.72 20.92 8.75 1.15 5.3 2.43 15.28 1.84 24.67s-1.31 22.24-1.31 22.24-12.02 4.09-17.95 3.98z" fill="#4d9b90"/><path d="M288.07 256.23c.13-.16.34.15.08.21-.25.05-.41-.12-.49-.27-5.77-10.44-10.38-21.3-13.77-32.47-.76-2.5-1.46-5.02-1.71-7.62-.43-4.47.48-9.17 2.67-13.75.72-1.51 1.88-3.23 4.05-3.86" fill="none" stroke="#fff" stroke-miterlimit="10" stroke-width=".371"/><path d="M292.11 255.95c-7.83-13.21-10.05-28.2-12.2-43.01-.7-4.83-1.4-9.7-.61-14.71M280.41 197.98c4.14 2.08 5.7 5.79 7.02 9.33 4.34 11.72 7.86 23.77 7.74 36.39-.01 1.35-.07 2.71-.12 4.07l-.3 7.32" fill="none" stroke="#fff" stroke-miterlimit="10" stroke-width=".371"/><path d="M298.21 254.43c-.51-7-.92-12.87-.86-19.41.02-1.95-.11-3.87-.24-5.8-.52-7.18-1.26-14.36-3.37-21.2-.72-2.35-1.63-4.69-3.47-6.61-1.84-1.93-4.73-3.42-8.32-3.61" fill="none" stroke="#fff" stroke-miterlimit="10" stroke-width=".371"/><path d="M275.04 198.6c.44-.52 1.22-.93 2.04-1.08-1.93.05-3.61-.74-4.14-1.93.94.04 1.87.09 2.81.13-1.17-1.01-1.42-2.54-.64-3.94.66.66 1.37 1.3 2.12 1.91-.14-1.31.26-2.71 1.15-4.01 1.15.99 1.91 2.19 2.22 3.51.83-1.11 1.35-2.28 1.54-3.44 1.17.36 1.73 1.26 1.74 2.19 0 .93-.47 1.89-1.01 2.82.94-.89 1.88-1.78 2.81-2.68.76.5.77 1.4.3 2.18-.46.78-1.32 1.46-2.2 2.08.76-.12 1.51-.23 2.27-.35.16-.02.39.03.29.12-1.11 1.03-3.6 1.57-5.19 1.77-2.08.27-4.02.78-6.11.72z" fill="#eb83a0"/><path d="M268.35 208.46c1.47.25 2.78.74 3.83 1.42M269.57 222.12c.97-.49 2.06-.85 3.16-1.04M290.91 204.66l2.66-2.39M294.28 208.84c1.08-.52 2.17-1.05 3.25-1.57M287.29 214.12c1.42.14 2.73.5 3.84 1.04M294.67 221.05c1.51-.56 2.72-1.58 3.18-2.66M289.53 225.93c1.67.15 3.21.57 4.45 1.24M297.7 230.97c.63-.46 1.26-.93 1.89-1.39M291.81 240.43c1.36-.21 2.73.07 3.52.71M298.03 245.09c.28-.9.93-1.8 1.85-2.56M272.99 229.97c1.18.19 2.29.51 3.27.94M282.4 228.51c.54-1.34 1.08-2.69 1.62-4.03M276.74 213.38c-.17 0-.13-.2.03-.27.16-.06.34-.03.5 0l3.11.66M280.24 241.39c.51-.9.76-1.84.76-2.74M286.32 247.54l-.58-.43c1.13.25 2.14.66 2.96 1.2M278.92 206.72l1.97-2.63" fill="none" stroke="#fff" stroke-miterlimit="10" stroke-width=".5"/><path d="M215.56 78.21c1.63-2.23 3.27-5.63 5.78-6.81-.29 1.17-1.18 2.09-1.53 3.25.24-.17.67-.27.92-.44-.43 1.13-1.34 2.38-2.1 3.32-1.5 1.87-4.48 1.8-3.07.68zM223.72 74.81c1.06-1.88 2.68-3.81 4.17-5.32-.06.15-.13.28-.2.42.38-.12.93-.12 1.33-.28.34 2.07-3.22 6.86-5.14 6.21-.02-.43.12-.97-.16-1.03zM218.68 92.06c1.06-1.88 2.68-3.81 4.17-5.32-.06.15-.13.28-.2.42.38-.12.93-.12 1.33-.28.34 2.07-3.22 6.86-5.14 6.21-.02-.43.12-.97-.16-1.03zM222.59 82.34c.04.01 2.6-3.29 3.38-3.7.01.16-.02.29.02.44.31-.19.81-.23 1.1-.43-.56 1.45-.63 2.27-1.78 3.77-.4.53-1.26 1.9-2.02 1.99-1.19.14-1.51-.83-.7-2.07zM213.96 87.15c.04.01 2.6-3.29 3.38-3.7.01.16-.02.29.02.44.31-.19.81-.23 1.1-.43-.56 1.45-.63 2.27-1.78 3.77-.4.53-1.26 1.9-2.02 1.99-1.19.14-1.51-.84-.7-2.07zM231.59 77.47c-.28-.77 1.97-3.35 2.68-3.69-.03.08-.15.19-.16.27.69-.66 1.43-1.29 2.25-1.74.1 1.93-.92 2.39-2.13 3.95-.73.93-2.12 4.2-3.63 3.27-.05-1.12.63-2.37.99-2.06zM228.25 84.61c-.08.18-.12.35-.24.51 1.46-1.26 2.34-3.44 4.03-4.35-.1.19-.18.52-.29.73.54-.12 1.05-.41 1.57-.58-.14.53-.05.52-.06.91-.79 1.16-4.47 6.82-6.23 5.27.2-.75.58-1.46 1.22-2.49z" fill="#eb83a0"/><path d="M82.42 169.55c-3.18-6-9.84-8.29-15.82-7.07.76-1.7 1.17-3.9 1.53-5.33 1.38-5.54 3.82-16.29-.94-20.74-5.77-5.39-17.27 2.97-18.21 9.71-.66 4.72 1.99 9.43 4.57 13.04 1.07 1.49 4.23 5.94 5.96 6.02l-.01-.01c.1.09.31.22.66.33-.74.6-1.43 1.26-2.05 2.03-5.69 7.08-3.78 18.01-3.72 26.64-4.49-1.75-9.55-1.64-13.95.1.33-1.75.51-3.44.59-4.82.37-5.85-.37-12.87-6.25-13.67.36-.56.68-1.1.95-1.55 2.38-4.01 4.8-11.16.83-15.02-5.08-4.95-14.41.64-15.49 7.03-.61 3.57 1.56 6.88 3.38 9.65.45.68.97 1.8 1.55 2.45-4.48 2.92-8.24 7.85-6.86 12.69 1.76 6.13 7.12 9.09 11.52 12.61-.24.57-.46 1.14-.64 1.75-2.04 6.91-.49 14.1 1.99 20.67.96 2.53 3.8 11.5 6.61 11.65 2.09.98 8.89.94 11.75-.05 3.46-1.2 4.85-6.07 6.54-9.14 3.13-5.69 7.08-16.15 5.81-24.19 2.3.24 5.12-2.73 6.82-3.97 9.38-6.8 19.48-18.37 12.88-30.81zm-56.89-1.12h-.07c-1.29-.07-1.67-1.98-1.91-3.23-.05-.27-.1-.5-.14-.66-.09-.3.07-.63.36-.72.29-.1.6.08.69.38.05.18.11.45.17.77.11.57.45 2.29.9 2.32h.01c.43 0 1.23-1.61 1.4-2.62.05-.31.34-.52.63-.47.3.05.5.35.45.67-.11.55-.96 3.56-2.49 3.56zm1.23 18.15c-1.29-.07-1.67-1.98-1.91-3.24-.05-.27-.1-.5-.14-.65-.09-.3.07-.63.36-.72s.6.08.69.38c.05.18.11.45.17.76.11.57.45 2.3.9 2.32h.01c.43 0 1.23-1.61 1.39-2.61.05-.31.33-.52.63-.47s.5.35.45.67c-.09.56-.94 3.57-2.48 3.57-.03-.01-.05-.01-.07-.01zm2.3 10.68h-.07c-1.29-.07-1.67-1.98-1.91-3.24-.05-.27-.1-.5-.14-.65-.09-.3.07-.63.36-.72s.6.08.69.38c.05.18.11.45.17.76.11.57.45 2.3.9 2.32h.01c.43 0 1.23-1.61 1.39-2.62.05-.31.34-.53.63-.47.3.05.5.35.45.67-.09.57-.94 3.57-2.48 3.57zm3.47-24.25c-1.29-.07-1.67-1.98-1.91-3.24-.05-.27-.1-.5-.14-.65-.09-.3.07-.63.36-.72.28-.09.6.08.69.38.05.18.11.45.17.76.11.57.45 2.29.9 2.32h.01c.43 0 1.23-1.61 1.39-2.62.05-.31.34-.53.63-.47.3.05.5.35.45.67-.09.56-.94 3.57-2.48 3.57h-.07zm5.33 36.45c-.39 1-1.13 2.4-2.05 3.32-.1.1-.24.16-.38.16-.06 0-.13-.01-.19-.04-.93-.36-1.38-1.59-1.78-2.68-.16-.44-.31-.85-.46-1.09a.6.6 0 01.17-.8c.25-.17.59-.09.76.18.2.34.37.8.55 1.29.23.62.52 1.42.86 1.81.56-.67 1.12-1.63 1.49-2.59.11-.29.43-.44.71-.32.29.13.43.47.32.76zm.32-22.85c-.39.92-1.13 2.19-2.05 3.03a.501.501 0 01-.51.1c-.92-.33-1.37-1.45-1.77-2.44-.16-.39-.31-.77-.45-.98a.567.567 0 01.13-.77c.24-.17.56-.11.73.14.21.31.37.73.56 1.18.24.61.54 1.33.9 1.67.57-.61 1.14-1.5 1.51-2.38.12-.28.42-.41.69-.28.26.13.38.45.26.73zm3.57 13.76c.29-.09.6.08.69.38.05.18.11.45.17.76.11.57.45 2.3.9 2.32h.01c.43 0 1.23-1.61 1.39-2.62.05-.31.34-.52.63-.47.3.05.5.35.45.67-.09.56-.94 3.57-2.48 3.57h-.07c-1.29-.07-1.67-1.98-1.91-3.24-.05-.27-.1-.5-.14-.65-.09-.3.07-.62.36-.72zm-.47 23.15c-.06 0-.13-.01-.19-.04-.93-.36-1.38-1.59-1.78-2.68-.16-.44-.31-.85-.46-1.09a.597.597 0 01.17-.8c.25-.17.59-.09.76.18.2.34.37.8.55 1.29.23.62.52 1.42.86 1.8.56-.67 1.12-1.63 1.49-2.59.12-.3.44-.44.71-.32.28.12.42.46.3.75-.39 1.01-1.13 2.41-2.05 3.32-.09.13-.23.18-.36.18zm4 10.33h-.07c-1.29-.07-1.67-1.98-1.91-3.24-.05-.27-.1-.5-.14-.65-.09-.3.07-.63.36-.72s.6.08.69.38c.05.18.11.45.17.76.11.57.45 2.29.9 2.32h.01c.43 0 1.23-1.61 1.39-2.62.05-.31.33-.53.63-.47.3.05.5.35.45.67-.1.56-.95 3.57-2.48 3.57zm2.19-18.46h-.07c-1.29-.07-1.67-1.98-1.91-3.24-.05-.27-.1-.5-.14-.66-.09-.3.07-.63.36-.72.3-.1.6.07.69.38.05.18.11.45.17.76.11.57.45 2.29.9 2.32h.01c.43 0 1.23-1.61 1.39-2.62.05-.31.33-.53.63-.47.3.05.5.35.45.67-.09.57-.94 3.58-2.48 3.58zm5.22 8.11h-.07c-1.29-.07-1.67-1.98-1.91-3.24-.05-.27-.1-.5-.14-.65-.09-.3.07-.63.36-.72s.6.08.69.38c.05.18.11.45.17.76.11.57.45 2.3.9 2.32h.01c.43 0 1.23-1.61 1.39-2.62.05-.31.34-.52.63-.47.3.05.5.35.45.67-.1.56-.94 3.57-2.48 3.57zm6.13-19.05c-.39.92-1.13 2.19-2.05 3.03a.501.501 0 01-.51.1c-.92-.33-1.37-1.45-1.77-2.44-.16-.39-.31-.77-.45-.98a.567.567 0 01.13-.77c.24-.17.56-.11.73.14.21.31.38.73.56 1.18.24.61.54 1.33.9 1.67.57-.61 1.14-1.5 1.51-2.38.12-.28.42-.4.69-.28.25.13.37.46.26.73zm-2.59-54.13h-.07c-1.29-.07-1.67-1.98-1.91-3.24-.05-.27-.1-.5-.14-.65-.09-.3.07-.63.36-.72s.6.08.69.38c.05.18.11.45.17.76.11.57.45 2.3.9 2.32h.01c.43 0 1.23-1.61 1.39-2.62.05-.31.34-.52.63-.47.3.05.5.35.45.67-.1.56-.94 3.57-2.48 3.57zm2.49 5.46c-.05-.27-.1-.5-.14-.65-.09-.3.07-.63.36-.72s.6.08.69.38c.05.18.11.45.17.76.11.57.45 2.3.9 2.32h.01c.43 0 1.23-1.61 1.39-2.62.05-.31.34-.52.63-.47.3.05.5.35.45.67-.09.56-.94 3.57-2.48 3.57h-.07c-1.29-.08-1.66-1.98-1.91-3.24zm5.67 34.18c-.39.92-1.13 2.19-2.05 3.03a.501.501 0 01-.51.1c-.92-.33-1.37-1.45-1.77-2.44-.16-.39-.31-.76-.45-.98a.567.567 0 01.13-.77c.24-.17.56-.11.73.14.21.31.37.73.56 1.18.24.61.54 1.34.9 1.67.57-.6 1.14-1.5 1.51-2.38.12-.28.43-.4.69-.28.26.13.38.45.26.73zm-2.41-9.09h-.07c-1.29-.07-1.67-1.98-1.91-3.24-.05-.27-.1-.5-.14-.66-.09-.3.07-.63.36-.72.29-.1.6.08.69.38.05.18.11.45.17.76.11.57.45 2.29.9 2.32h.01c.43 0 1.23-1.61 1.39-2.62.05-.31.34-.52.63-.47.3.05.5.35.45.67-.1.57-.95 3.58-2.48 3.58zm1.76-35.06h-.07c-1.29-.07-1.67-1.98-1.91-3.24-.05-.27-.1-.5-.14-.65-.09-.3.07-.63.36-.72s.6.08.69.38c.05.18.11.45.17.76.11.57.45 2.29.9 2.32h.01c.43 0 1.23-1.61 1.39-2.61.05-.31.33-.52.63-.47s.5.35.45.67c-.09.55-.94 3.56-2.48 3.56zm7.89 44.12h-.07c-1.29-.07-1.67-1.98-1.91-3.24-.05-.27-.1-.5-.14-.65-.09-.3.07-.63.36-.72s.6.08.69.38c.05.18.11.45.17.76.11.57.45 2.3.9 2.32h.01c.43 0 1.23-1.61 1.39-2.62.05-.31.34-.52.63-.47.3.05.5.35.45.67-.1.57-.95 3.57-2.48 3.57zm0-12.55h-.07c-1.29-.07-1.67-1.98-1.91-3.24-.05-.27-.1-.5-.14-.65-.09-.3.07-.63.36-.72s.6.08.69.38c.05.18.11.45.17.76.11.57.45 2.3.9 2.32h.01c.43 0 1.23-1.61 1.39-2.62.05-.31.34-.52.63-.47.3.05.5.35.45.67-.1.56-.95 3.57-2.48 3.57z" fill="#acd5c7"/><path d="M55.89 136.99c-.13.27.17.38-.21.47-1.1-.72-3.93-3.68-3.18-5.27.66-1.39 3.18.3 4.21.74.02-.87-.47-2.86.38-3.31 1.42-.74 2.48 1.94 2.91 2.88.47-.97.87-2.44 1.86-3.06.37.51.82.97.91 1.71.33-.54 2.01-2.23 2.83-1.56.99.8-1.49 4.33-2.11 5.17-1.32 1.79-6.97 6.33-7.6 2.23z" fill="#eb83a0"/><path d="M443.4 38.92c-1.02-1.46-1.72-6.63.9-7.38 2.45-.71 3.42 2.65 3.7 3.99 2.73-2.92 2.82-.07 2.87 1.82 2.71-.62 3.84.89 2.4 2.78-2.74 3.6-8.33 2.69-9.55-1M413.8 43.61c-3.68-.08-6.32-3.44-6.67-5.68-.49-3.15 2.57-2.38 4.57-2.61.3-.03.49-.32.55-.66.36-2.34 1.44-3.18 3.15-1.64 1.4 1.26 1.55.68 1.7-.39.17-1.23 1.47-1.7 2.3-.84.01.01.01.02.02.02.3.31.77.25.96-.15.66-1.33 1.49-2.34 2.78-1.38 1.43 1.07.26 4.61-.19 5.97-1.3 4.02-2.94 8.5-9.17 7.36z" fill="#f8d2d5"/><path d="M440.01 38.72c1.17 1.95 1.92 4.55 2.12 7.33.19 2.72-.22 5.39-1.14 7.34-.34.72-.76 1.36-1.17 1.97-.58.88-1.13 1.72-1.37 2.67-.44 1.77-.13 3.93.82 5.63.26.47.59.94.91 1.41 1.13 1.63 2.53 3.66 1.6 6.26-.35 1-1.05 1.63-1.66 2.19-.75.68-1.14 1.07-1.1 1.77.04.69.47 1.4.92 2.15.49.81 1 1.65 1.18 2.67.44 2.41-.49 5.03-1.39 7.3-.39.98-1.66 3.58-3.03 5.78.53-.05 1.02-.04 1.42.09.1.15.24.25.4.33 3-2.31 5-6.35 6.52-9.43.57-1.15 1.06-2.14 1.52-2.89.68-1.1 1.45-1.99 2.13-2.78 1.55-1.8 2.67-3.1 2.44-5.96-.12-1.47-.53-2.68-.92-3.84-.82-2.41-1.66-4.9.92-8.38 2.29-3.09 3.47-5.56 2.74-9.05-.2-.95-.65-2.2-1.09-3.42-.52-1.45-1.06-2.95-1.27-4.18v-.06c-.77-.81-1.62-1.59-2.57-2.35-3.1-2.49-6.73-4.14-10.54-4.99a34.44 34.44 0 011.61 2.44zM423.93 94.15c.1-1.61-.45-3.86-3.64-5.51-3.97-2.05-3.87-4.91-3.79-7.22.05-1.34.09-2.61-.57-3.75-.29-.5-.85-.86-1.44-1.24-.75-.49-1.61-1.04-2.1-2.02-.75-1.5-.25-3.11.2-4.53.22-.69.42-1.35.44-1.86.07-2-1.06-2.94-2.48-4.13-1.29-1.07-2.74-2.29-3.23-4.46-.68-3.01.85-6.53 2.2-9.63.39-.9.78-1.81 1.1-2.66-4.21 5.85-6.33 13.3-5.21 20.85 1.21 8.18 6.32 15.76 11.95 21.35 1.41 1.4 4.22 4 6.57 4.83.01-.01 0-.02 0-.02z" fill="#1e5085"/><path d="M437.92 86.6c.83-2.08 1.61-4.27 1.27-6.12-.11-.63-.5-1.27-.91-1.94-.54-.9-1.16-1.91-1.23-3.13-.1-1.76.94-2.7 1.77-3.46.5-.45.93-.84 1.11-1.34.52-1.47-.17-2.61-1.35-4.33-.35-.51-.71-1.03-1.02-1.58-1.22-2.19-1.6-4.88-1.02-7.2.33-1.3 1-2.33 1.66-3.32.38-.58.75-1.13 1.02-1.72.76-1.6 1.11-3.94.94-6.26-.17-2.45-.82-4.71-1.82-6.38-.5-.84-1.92-2.89-2.85-4.03-2.3-.25-4.63-.25-6.92.09-.83.12-1.64.29-2.44.49-2.56 4.5-4.45 13.6-1.66 18.25.5.83 1.14 1.6 1.82 2.41.87 1.04 1.78 2.12 2.41 3.4 1.29 2.62.62 4.71-.09 6.92l-.27.86c-.84 2.74-.23 3.59.8 4.99.66.9 1.47 2.02 2 3.79.61 2.05-.03 3.43-.55 4.53-.62 1.32-1.06 2.28.55 4.64 1.32 1.94 1.1 3.99.88 5.97-.03.32-.07.65-.1.98-.02.25-.13.47-.29.63.02 0 .05.01.07.01.7.1 1.49.02 2.29-.12 1.39-1.83 3.25-5.32 3.93-7.03zM455.21 48.78c.24.72.45 1.42.58 2.04.98 4.73-1.09 8.04-3.11 10.76-1.92 2.59-1.4 4.11-.62 6.42.42 1.23.89 2.63 1.03 4.36.3 3.75-1.35 5.67-2.95 7.52-.66.77-1.35 1.56-1.95 2.52-.41.65-.88 1.6-1.42 2.7-1.22 2.49-2.75 5.55-4.88 8.02 1.92-.79 3.98-2.13 4.74-2.99 5.54-6.23 11.84-20.24 11.65-27.2-.14-5.36-.94-10.04-3.07-14.15z" fill="#1e5085"/><path d="M429.96 92.92c.03-.35.07-.69.11-1.03.2-1.81.35-3.23-.53-4.53-2.29-3.36-1.42-5.24-.71-6.75.45-.97.81-1.74.43-3.01-.42-1.42-1.06-2.3-1.68-3.15-1.17-1.6-2.27-3.11-1.11-6.88l.28-.88c.65-2.01 1.11-3.47.21-5.31-.52-1.05-1.3-1.99-2.14-2.99-.7-.84-1.43-1.71-2.01-2.68-2.86-4.77-1.62-13.17.71-18.54-3.91 1.45-7.41 3.82-10.29 6.84.16 1.86-.79 4.09-1.9 6.64-1.22 2.8-2.6 5.98-2.08 8.3.33 1.47 1.36 2.33 2.54 3.32 1.56 1.3 3.32 2.77 3.22 5.82-.03.81-.29 1.63-.54 2.43-.35 1.13-.69 2.2-.33 2.92.24.48.77.82 1.39 1.22.73.47 1.55 1 2.09 1.93.97 1.67.91 3.39.86 4.9-.08 2.22-.13 3.83 2.69 5.29 4.38 2.26 4.85 5.67 4.74 7.49 0 .02-.01.04-.02.07.77-.22 1.27-.82 2.08-.98.72-.14 1.41-.06 2.11.07a.809.809 0 01-.12-.51z" fill="#1e5085"/><path d="M509.58 236.59c-3.07-2.68-5.08-7.14-5.98-11.02-1.41-6.07-1.33-11.88.71-17.76 2.13-6.16 3.88-12.15 4.84-18.66.41-2.82.9-5.9.75-8.77-.05-.95-.38-1.95-.15-2.81 1.53 1 2.75 4.54 3.33 6.31 1.26 3.88 1.84 8.01 2.49 12.04 1.06 6.5 1.45 12.78 1.27 19.35-.14 4.75-.78 9.76-1.62 14.42-.23 1.28-1.76 9.51-5.64 6.9z" fill="#a4b1d7"/><path d="M507.77 237.06c-1.39-.38-3.14.11-4.9-.82-4.32-2.29-7.02-6.56-9-11.03-1.43-3.24-1.92-7.37-2.51-10.88-.68-4.07-1.29-8.16-1.73-12.27-.55-5.18-1.48-10.8-3.36-15.63 1.11.01 2 1.76 2.74 2.55 1.99 2.11 4.11 4.24 5.82 6.61 3.15 4.35 6.2 9.07 9 13.68 3.09 5.09 4.44 12.4 5.14 18.31.37 3.07 1.65 8.38-1.2 9.48z" fill="#a4b1d7"/><path d="M504.24 236.58c-2.19 0-5.74-.24-8.33-.64-3.6-.56-6.54-3.31-9.48-5.44-3.96-2.87-6.68-5.49-9.22-9.88-1.62-2.8-3.61-5.07-5.66-7.44 2.06-1.15 6.95.71 9.13 1.12 5.19.99 9.08 3.05 13.43 6.2 1.52 1.1 13.7 12.19 10.13 16.08zM516.37 219.8c-.12.16-2.28 1.12-2.35 1.31.85-7.68 5.38-14.6 10.21-20.48 2-2.44 4.35-5.48 6.85-7.34 2.3-1.72 4.93-3.01 7.11-4.9-.67 2.56-2.17 5.02-2.92 7.62-1.1 3.83-1.86 7.74-2.72 11.63-1.48 6.68-4.99 12.51-7.91 18.55-2.21 4.56-9.55 9.69-12 10.57-3.79 1.36-1.75-7.89-1.03-10.76 1.37-5.46 2.86-11.31 6.62-15.55" fill="#a4b1d7"/><path d="M521.9 227.87c1.94-2.09 3.12-5.46 5.08-7.75 2.65-3.09 5.73-5.35 9.04-7.57 2.63-1.77 4.99-3 7.89-4.19 1.63-.67 2.81-1.79 4.23-2.73-.08.81-.67 1.51-1.08 2.22-1.18 2.06-2.21 4.1-3.2 6.28-2.44 5.38-4.78 10.62-8.61 15.12-3.84 4.5-12.69 8.51-18.6 6.13.6-4.22 5.3-7.63 7.54-11.05" fill="#a4b1d7"/><path d="M477.88 221.73c-1.02-1.7-1.48-2.97-.54-4.03.39-.44 1.19-.24 1.5-.68.34-.48 0-.98.21-1.49.86-2.1 3.08-.73 6.26.04-1.29.76-1.71.67-2.28 2.1-.23.56-.04.8-.42 1.33-.29.4-.93.41-1.21.8-.64.89-.23 1.37-.6 2.18-.43.93-1.51.97-1.18 2.32-.95-.98-1.19-1.82-1.74-2.57zM483.59 228.04c.12-.22-.07-.5-.02-.79 1.27.22 1.02-.09 1.08-1.14.3-.01.71.13.95-.11.38-.4-.02-.98.56-1.3.62-.34 1.15.04 1.29-.89.06-.39-.23-.97-.07-1.33.19-.43.19-.22.5-.37.8-.4.68-.35.7-1.44.02-.89.2-.4.53-.85.51-.71-.54-2.13-.11-2.56s2.39 1.67 2.71 1.98c.17.17.46.45.54.68.11.34-.04.37-.01.73.03.41.37.86.3 1.28-.04.26-.3.32-.37.57-.29 1.09.87 1.93-.58 1.92-.13.53.1 1.24-.21 1.73-.21.32-.61.34-.78.63-.26.46.13 1.22-.38 1.62-.27.21-.47-.02-.72.24-.41.44-.14.81-.85 1.06-.33.12-.43-.06-.65.18-.04.04-.16.54-.23.67-.12.2-.33.33-.45.52-1.25-.68-3.01-1.71-3.73-3.03zM497.39 235.72c-.35.3-1.07.1-1.52.05-.98-.11-2.47-.35-3.3-.98-.52-.4-.51-.51.17-.64 1.23-.25 1.26-.17 1.06-1.49-.17-1.12.34-.52.86-1.07.47-.5-.44-1.18-.05-1.76.19-.29.68-.27.9-.59.25-.37.16-.87.18-1.28.02-.39-.01-.92.25-1.23.54.29 1 1.03 1.48 1.44.71.61 1.34 1.3 2.04 1.92.35.32 1.19.71.9 1.17-.29.45-1.37-.02-1.4.81-.02.55.81.77.27 1.33-.34.36-.9.08-1.08.59-.12.34.21.7.06 1.07-.21.5-.98.74-.82.66zM488.44 193.82c.01-.02-.01-.61 0-.92.04-1.41.05-.67.82-.84.67-.14.18.12.67-.31.33-.29.16-.64.72-.75.5-.1 3.01 2.65 3.44 3.61-.34 0-1.04-.47-1.34-.29-.34.21-.1.76-.4 1.01-.26.13-.69-.38-1.09-.31-.46.08-.35.62-.72.82-.82.44-1.03-.27-1.56.99-.52-.7-.53-2.85-.54-3.01zM489.84 203.9c-.13-1.15.46-1.48.82-1.62 1.11-.44.46 1.06 1.59-.19.38-.42.22-.65.78-.71.34-.04.78.55 1.13.38.36-.18.21-1.13.6-1.31.36-.17.57.34.81.26 1-.33.82-2.49 2.09-1.28.74.7 1.24 2.19 2 3.21-.61-.1-.71.43-1.03.83-.17.21-.38 1.06-.6 1.25-.26.22-1.12.05-1.35.13-.75.24-.67.89-1.41 1.03-.41.08-.71-.31-1.06-.27-.33.04-.48.4-.77.48-.85.22-1.02-.41-1.72-.37-.65.04-.86.85-1.6.37 0-.01-.42-2.2-.28-2.19zM502.82 207.82c-.87-.04-.9.52-1.33 1.15-.56.82-1.27.17-1.8.71-.35.35-.27.7-.74.94-.37.19-.78.1-1.17.34-.75.46-.6 1.44-1.58 1.44-.33 0-.49-.15-.84.01-.37.17-.57.66-.89.9-.7.54-1.08.3-1.8.43-.41.08-.98.42-1.01.83-.5.71.29 2.59.5 3.33.09.3.2 1.19.6 1.26.53.09.59-.56 1.14-.42.38.09.7.75 1.24.52.46-.2.32-.92.76-1.1.48-.2 1.04.63 1.65.4.71-.27.63-1.21 1.06-1.69.65.06.89.76 1.59.04.27-.28.35-.89.7-1.09.21-.12.48-.03.69-.07 1.16-.22.63-1.92 1.21-2.4.2-.17.28-1.3.15-.64-.43 2.09.6-2.53.79-3.25.2-.73-.58-1.12-.92-1.64zM509.91 183.11c.1-.25.11-.77.41-.87.34-.11.6.42.81.6.33-.3.38-.82.92-.76.22.03.29.25.53.14.18.98.64 2.09.69 3.09-.25-.1-.55-.44-.83-.36-.18.05-.2.37-.39.43-.25.07-.35-.26-.55-.27-.35-.02-.38.45-.79.28-.29-.12-.35-.44-.73-.29-.24-.45-.21-1.96-.07-1.99zM508.9 190.46c.22-.28.36-.67.65-.93.52-.47.63.05.97.48.27.34.23.4.55.18.39-.27.39-.65.77-.23.21.22.21.68.56.59.16-.04.26-.4.46-.47.15-.05.25-.03.4.01.58.13.82.27 1.17-.3.34.2.31.9.37 1.25.11.65.29 1.35.28 2.01 0 .29-.01.81-.36.87-.55.1-.45-.55-.93 0-.19.22-.28.47-.6.47-.36 0-.56-.45-.88-.59-.65-.29-1.13.64-1.72.04-.49-.5-.3-.89-1.02-.74-.36.08-.53.12-.77-.24-.4-.6.07-1.95.1-2.4zM507.41 198.64c-.03.22.05.7.33.96.55.51.71.11 1.34.02.8-.12.9.51 1.42.81.79.45.68-.66 1.43-.64.53.02.63.86 1.15.99.68.17.7-.62 1.23-.66.4-.03.53.42 1.01.24.3-.11.52-.55.69-.76.27 1.89.73 4.21.09 6.14-.15.44-.84.54-1.15.16-.18-.22-.36-.45-.6-.62-.44.23-.5.98-1.2.82-.36-.08-.38-.47-.78-.49-.44-.02-.88.34-1.27.49-1.28.48-.67-.56-1.62-.86-.41-.13-.74.22-1.13.18-.66-.06-.51-.68-.83-1.06-.37-.43-.76-.07-1.18-.35-.5-.33-.43-1.35-.31-1.74.39-1.22.77-2.59 1.38-3.63zM533.8 191.54c.12-.07.42-.27.54-.24.48.14 0 .79.28 1.03.25.21.52-.22.76-.09.22.12.12.5.13.74.32.03.54-.26.81-.17-.29 1.18-.97 2.45-1.44 3.58-.33-.23-.17-.7-.39-.98-.36-.45-.8.16-1.23 0-.6-.23-.06-.92-.19-1.34-.15-.47-.67-.3-.89-.6-.69-.95 1.47-2.2 1.62-1.93zM528.6 195.93c-.01.22-.12.52-.06.73.18.57.41.21.87.16 1.06-.12.44.87.62 1.57.24.93.66.06 1.19.29.41.17.09.96.67 1.01.26.02.44-.34.69-.34.09 0 .11.22.2.23.57.06.99-.31 1.5-.45.09.59-.15 1.23-.31 1.79-.18.67-.33 1.79-.83 2.26-.4-.53-.7-.31-1.16.06-.19.15-.6.65-.86.61-.32-.05-.24-.37-.38-.63-.42-.79-.95-.17-1.61-.38-.7-.22-.21-1.14-.7-1.57-.22-.19-.52-.04-.75-.13-.35-.14-.37-.3-.53-.61-.27-.53-.28-.64-.78-.81-.38-.13-.52.06-.56-.55-.02-.36.07-.6.3-.89.43-.5 1.9-2.49 2.49-2.35zM522.36 202.98c-.07.45-.34.69.02 1.06.23.24.5.16.76.29.43.22.57.6.68 1.06s.06 1.12.37 1.5c.42.53.74.16 1.28.11.97-.09.57.61 1.12 1.16.59.58 1.33-.23 1.94.13.59.35.44 1.28 1.33 1.21.55-.04.9-.64 1.3-.22.24.26.07 1.19.7.93-.34.66-.34 1.36-.63 2.06-.36.85-.76 1.76-1.19 2.56-.5-.54-.85-.59-1.53-.26-.31.15-.76.55-1.13.38-.38-.18-.22-.79-.52-1.01-.6-.43-1.43.56-1.65-.5-.08-.4.12-.81-.24-1.12-.59-.5-.88.16-1.51.16-1.44-.01-.2-1.74-.9-2.22-.27-.18-.76.32-1.1-.02-.55-.57.39-1.47.12-2.01-.28-.55-1.49.32-1.25-.83.18-.85.72-.76-.09-1.14.14-.58.67-1.26.99-1.76.3-.47.69-.7 1.13-1.52zM503.64 210.81c-.04.81.21 1.97 1.13 1.9.92-.06 1.24-.55 1.82.5.21.37.18.83.64.87.43.04.77-.63 1.18-.68.79-.09 1.1 1.18 2.01.93.56-.16.77-1.07 1.37-.98.36.05.52.65.87.78.91.34.96-.87 1.64-.84.54.02.51.86 1.22.61.48-.17.69-.89 1.05-1.22.05 1.18.13 2.36.23 3.54.05.59.38 2.93-.16 3.34-.18.14-.38-.19-.55-.14-.51.16-.67.61-1.01 1.03-.71.86-.85-.24-1.71.63-.26.26-.88 1.28-1.3 1.24-.46-.04-.76-.84-1.31-.96-1.32-.28-2 1.6-2.82-.06-.74-1.48-.78-.04-1.95-.04-1.53 0-.43-2.09-1.32-2.56-.53-.28-.83.58-1.33.45-.57-.15-.62-1.77-.61-2.23.05-2.1.54-4.27.91-6.11zM503.46 225.6c-.02.52.46 1.62.99 1.78.45.13.7-.36 1.17-.26.77.16.99 1.39 1.85 1.38.66-.01.93-.89 1.62-.78.68.1.92 1.18 1.57 1.18.67 0 .88-1.09 1.6-.87.22.07.31.44.53.52.43.16.97-.21 1.3-.44.56-.39 1.05-.92 1.44-1.49-.02 1.97-.71 4.08-1.55 5.81-.29.59-.76 1.61-1.33 1.97-.73.47-.86-.38-1.5-.59-.28-.09-.33.06-.56.07-.61.04-.24.4-.85-.25-.82-.87-.58.06-1.33.33-.29.1-.73-.08-1.02-.23-1.04-.54-1.8-1.97-2.41-2.98-1.02-1.67-1.27-3.49-1.52-5.15z" fill="#1e5085"/><path d="M501.41 231.42c-.33.17-2.09-1.6-2.52-1.98-.87-.75-1.76-1.66-2.03-2.86.72-.52 1.2.81 1.37-.39.28-1.94.86.52 1.64-.16.34-.29.01-1.36.57-1.48.32-.07.57.37.91.37.71 0 .71-.99.96-1.48.85.56.84 2.68 1.06 3.6.18.77.58 1.33.81 2.05.1.29.2.7-.09.94-.34.29-.76-.11-1.08.06-.26.15-.16.55-.48.65-.26.08-.58-.31-.8-.09-.1.09.08.4-.02.5-.16.17-.62 0-.3.27zM516.46 214.39c.32.3.35 1.32.71 1.8.27.36.55.59.98.69.33.08.91-.13 1.2.06.56.38.13 1.5.8 1.87.66.36 1.66-.73 2.19-.11.47.55-.23 1.75.84 1.67.94-.07.97-.74 1.25.29.41 1.52 2.23.23 2.96-.38.06.79-.54 1.83-.93 2.46-.61.96-1.58 1.99-2.37 2.81-1.28 1.34-2.75 2.66-4.25 3.7-.47-.6.19-2.33-.39-2.58-.2-.09-.38.28-.64.05-.42-.36.22-1.24.01-1.67-.49.26-.74.82-1.19 1.09-.19-.64.06-1.29-.06-1.92-.45 0-.68.72-1.07.22-.4-.53-.12-2.11-.1-2.72.05-1.18.11-2.37.22-3.55.1-1 .39-2.18-.16-3.78zM543.25 208.84c-.15.01-.57.79-.51 1.11.11.54.61.36.8.74.26.51-.3.83.38 1.04.24.07.65-.12.91-.12.06.96-1.48 4.82-2.46 4.82-.11-.42.05-1.3-.3-1.58-.46-.38-1.3.55-1.6-.21-.24-.6.38-.79-.04-1.3-.22-.27-.65-.19-.73-.64-.05-.33.36-.52.37-.79.01-.29-.21-.27-.24-.54-.07-.57.46-1.11.87-1.44.61-.5 1.69-1.04 2.55-1.09zM535.66 212.71c-.38.61-1.39 1.77-1.04 2.57.23.54.75.32 1.16.54.56.3.18.58.29 1.19.21 1.1 1.12-.1 1.41.91.12.42-.17.99.29 1.25.32.18.99-.26 1.27-.39.26.58.01 1.37.74 1.53.46.1.89-.34 1.31-.36-.41 1.64-1.45 3.27-2.5 4.59-.45.57-1.23 1.07-1.55.19-.12-.33.03-.77-.27-1.01-.43-.34-1.18.18-1.57-.22-.34-.35.12-.97-.06-1.35-.28-.6-1.06-.29-1.52-.56-.66-.39-.07-.57-.16-1.16-.08-.47-.21-.37-.66-.54-1.42-.51.36-1.43.02-2.35-.12-.33-.53-.22-.65-.49-.18-.4.29-.66.41-.98.1-.28-.02-.43.05-.67.12-.44.49-.79.82-1.06.6-.49 1.39-.84 2.21-1.63z" fill="#1e5085"/><path d="M527.83 220.31c-.23.53-.57 1.43-.41 2.02.19.7 1.03.75 1.32 1.35.31.64-.27 1.5.27 2.12.43.49 1.09.11 1.44.57.47.63-.05 1.47 1.06 1.55.96.07.8-.23.88.85.06.75.33 1.18 1.11 1.23.4.03.78-.21 1.1.13-.43.89-1.65 1.68-2.45 2.2-.61.39-1.3.96-1.93 1.27-.36.18-1.3.38-1.7.32-.51-.07-.38-.24-.62-.66-.3-.53-.53-.53-1.11-.64-.54-.1-.91-.1-1.01-.74-.09-.55.24-.64-.24-.98-.32-.22-.83.01-.98-.48-.18-.58 1.02-1.29.74-1.77-.14-.24-.71.05-.93-.13-.39-.33.15-.72.11-1.2-.03-.33-.28-.38-.34-.64-.08-.34.14-.7.28-.98.47-.94 1.11-1.67 1.69-2.53.59-.85.97-2.08 1.72-2.86zM520.12 230.87c-.15.18-.19.45-.2.68-.03.7.28.92.84 1.18.32.15.69.2.77.57.08.36-.12.7.12 1.04.18.25.55.19.72.41.12.16.06.49.18.69.16.28.53.09.54.43.01.21-.73.39-.99.4-.77.03-1.95.17-2.7 0-1.05-.23-2.25-.19-2.73-.9-.44-.65 1.03-2.07 1.58-2.73.5-.59 1.03-1.19 1.87-1.77zM514.79 230.66c-.28.38-.36 1.27.06 1.59.2.15.65.09.8.26.14.15.04.43.11.62.24.68 1.56.05.94.94-.33.48-.81.68-1.3.93-.58.29-1.07.74-1.62 1.07-.29.18-.85.49-1.19.29-.41-.24-.1-.81.06-1.15.65-1.46 1.95-2.81 2.14-4.55zM508.54 236.08c.82.28-1.15.82-1.34.84-1.46.13-3.27.24-4.58-.5.1-.64 1.03-.34 1.31-.78.28-.45-.26-.65-.28-1.07.2-.11.52-.03.66-.25.09-.15-.03-.44 0-.62.45-.11.98.28 1.37.48.19.09.45.32.67.3.4-.04.22-.26.19-.58.51-.04.72.48 1.02.82.38.42 1.24.97.98 1.36z" fill="#1e5085"/><path d="M508.28 235.17c-.3-.06-.49-.34-.71-.54-.21-.22-.41-.45-.61-.67-.4-.46-.78-.93-1.15-1.4a12.72 12.72 0 01-1.85-3.17c-.92-2.29-1.32-4.71-1.62-7.11-.22-2.42-.23-4.88.12-7.29.34-2.41.98-4.76 1.89-7-.58 2.34-1.05 4.7-1.25 7.07-.21 2.37-.21 4.76.07 7.13.23 2.37.64 4.74 1.39 6.97.38 1.13.89 2.17 1.58 3.16.32.51.65 1.01.99 1.5.17.25.35.49.53.73.19.22.35.53.62.62zM513.08 235.77c1.02-.03 1.89-.58 2.64-1.21.76-.63 1.48-1.33 2.16-2.05 1.34-1.46 2.54-3.05 3.74-4.66 1.19-1.62 2.52-3.17 3.78-4.7.63-.77 1.22-1.57 1.72-2.43.52-.84.92-1.8 1.59-2.57-.5.88-.81 1.82-1.22 2.76-.45.92-1 1.78-1.57 2.62-1.17 1.67-2.45 3.19-3.63 4.82-1.22 1.6-2.46 3.22-3.96 4.61-.76.69-1.52 1.34-2.37 1.93-.85.54-1.86 1.05-2.88.88zM516.53 212.01c.08.99.27 1.95.45 2.93.17.99.18 2.01.18 2.99a35.04 35.04 0 01-.56 5.95c-.41 1.95-.78 3.88-1.38 5.8-.59 1.9-1.39 3.8-2.73 5.29 1.04-1.69 1.65-3.56 2.1-5.46.44-1.9.79-3.86 1.17-5.78.36-1.92.58-3.87.74-5.82.08-.98.13-1.95.05-2.92-.02-.99-.13-1.99-.02-2.98zM507.9 235.37c-.85-.5-1.76-.82-2.69-1.14-.92-.33-1.84-.73-2.72-1.21-1.75-.96-3.33-2.23-4.66-3.74-1.28-1.49-2.53-3.03-3.58-4.71-1.05-1.67-1.96-3.47-2.37-5.41.74 1.82 1.76 3.48 2.91 5.04s2.4 3.05 3.68 4.52c1.25 1.45 2.74 2.68 4.35 3.74 1.57 1.1 3.54 1.63 5.08 2.91z" fill="#3675a6"/><g fill="#1e5085"><path d="M84.43 30.25c.31-1.14 1.55-2.63 2.55-3.23-.09.34-.03.9-.13 1.24.15-.04.3-.11.46-.15-.04 2.21-3.76 5.66-2.37 1.24M90.95 26.47c.18-1.13 1.29-2.71 2.39-2.87-.03.25.02.66-.01.87 1.69.1-.56 4.07-2.37 3.09-.03-.65.15-1.28.51-1.82M89.92 34.57c.75-1.02 1.45-2.08 2.18-3.13.89.25 1.39-.3 1.59 1.12.21 1.44-1.61 3.37-2.96 2.83-.1-.36-.03-.7.22-1M97.8 28.99c-.13.01-.23.45-.22.01.65-.93 1.37-1.85 2.34-2.41-.01.24.19.78.14 1.12.07.02.42-.01.46.05.26 2.07-1.98 3.39-3.54 2.3.1-.49.26-.97.48-1.42M106.02 27.19c.07-1.01 1.37-2.62 2.38-2.91-.21.57-.61 1.2-.68 1.84.37-.22 1.01-.18 1.38-.36.45 2.77-3.57 3.09-3.08 1.43M99.86 36.72c.23-1.05 1.71-2.48 2.57-2.89-.13.39-.04 1.02-.15 1.4.29-.15.69-.16.95-.29.16 2.66-3.86 2.93-2.34.52M110.31 33.67c-.19-.14-.36.21-.33-.2.58-1.21 1.52-2.49 2.76-2.87-.07.35.11 1.01-.01 1.42 2.78 1.47-5.68 5.28-2.42.03M103.8 42.48c.2-.39 1.22-1.48 2.05-1.75.11.19.12.24.21.46.31-.13 1.02-.06 1.29-.19.16 4.33-6.03 4.52-3.37.58M94.66 41.39c.15-.04 2.05-2.57 2.01-1.24 2.52-.11-1.37 3.92-1.06 1.8-.6.52-1.45.16-.92-.75M99.13 20.5c.57-.38 1.23-.81 1.94-.78-.08.19-.06.56-.21.77 1.28-.33.45 1.41-.15 1.78-1.21.75-2.24-.4-1.57-1.67M87.11 19.92c.45-.62 1.28-1.2 2-1.41-.07.19-.05.47-.24.71 1.14-.07.87.28 1.04 1.2-.44.5-1.56 1.77-2.29 1.64-.97-.17-.74-1.32-.33-1.93M430.36 145.59c.31-1.14 1.55-2.63 2.55-3.23-.09.34-.03.9-.13 1.24.15-.04.3-.11.46-.15-.04 2.21-3.76 5.66-2.37 1.24M436.87 141.81c.18-1.13 1.29-2.71 2.39-2.87-.03.25.02.66-.01.87 1.69.1-.56 4.07-2.37 3.09-.03-.65.15-1.28.51-1.82M435.84 149.91c.75-1.02 1.45-2.08 2.18-3.13.89.25 1.39-.3 1.59 1.12.21 1.44-1.61 3.37-2.96 2.83-.1-.36-.03-.7.22-1M443.73 144.33c-.13.01-.23.45-.22.01.65-.93 1.37-1.85 2.34-2.41-.01.24.19.78.14 1.12.07.02.42-.01.46.05.26 2.07-1.98 3.39-3.54 2.3.1-.49.26-.97.48-1.42M451.95 142.53c.07-1.01 1.37-2.62 2.38-2.91-.21.57-.61 1.2-.68 1.84.37-.22 1.01-.18 1.38-.36.45 2.78-3.58 3.09-3.08 1.43M445.78 152.07c.23-1.05 1.71-2.48 2.57-2.89-.13.39-.04 1.02-.15 1.4.29-.15.69-.16.95-.29.16 2.66-3.86 2.93-2.34.52M456.23 149.01c-.19-.14-.36.21-.33-.2.58-1.21 1.52-2.49 2.76-2.87-.07.35.11 1.01-.01 1.42 2.78 1.47-5.68 5.28-2.42.03M449.72 157.83c.2-.39 1.22-1.48 2.05-1.75.11.19.12.24.21.46.31-.13 1.02-.06 1.29-.19.16 4.33-6.03 4.52-3.37.58M440.59 156.74c.15-.04 2.05-2.57 2.01-1.24 2.52-.11-1.37 3.92-1.06 1.8-.6.52-1.45.16-.92-.75M445.06 135.85c.57-.38 1.23-.81 1.94-.78-.08.19-.06.56-.21.77 1.28-.33.45 1.41-.15 1.78-1.21.75-2.24-.4-1.57-1.67M433.03 135.27c.45-.62 1.28-1.2 2-1.41-.07.19-.05.47-.24.71 1.14-.07.87.28 1.04 1.2-.44.5-1.56 1.77-2.29 1.64-.97-.17-.74-1.32-.33-1.93M387.84 241.99c-1.42-3.09-3.76-9.18-2.73-12.54 1.37 2.39 1.83 5.67 2.51 8.37.32 1.28 1.76 3.63 1.12 4.88-.49-.17-.41-.43-.9-.71zM391.46 241.47c-1.05-1.43-.7-5.08-.88-6.77-.3-2.93-.58-5.79-.54-8.73 1.45 4.55 2.63 11.33 2.09 16.26-.23-.06-.18-.24-.67-.76zM395.25 240.96c-.6-.46-.29-5.85-.26-6.9.07-2.3-.01-5.02.63-7.24 1.06 3.03.26 6.8.22 9.95-.02 1.65.23 3.54-.28 5.11-.34.17-.34-.1-.31-.92zM398.5 240.63c.1.2-.11.31.13.38.59-3.12 1.09-6.47 2.3-9.38.17 2.66.22 8.97-1.6 11.07-.93-.42-.84-1.69-.83-2.07zM307.8 77.04c-1.42-3.09-3.76-9.18-2.73-12.54 1.37 2.39 1.83 5.67 2.51 8.37.32 1.28 1.76 3.63 1.12 4.88-.49-.16-.41-.43-.9-.71zM311.42 76.53c-1.05-1.43-.7-5.08-.88-6.77-.3-2.93-.58-5.79-.54-8.73 1.45 4.55 2.63 11.33 2.09 16.26-.23-.07-.18-.24-.67-.76zM315.21 76.02c-.6-.46-.29-5.85-.26-6.9.07-2.3-.01-5.02.63-7.24 1.06 3.03.26 6.8.22 9.95-.02 1.65.23 3.54-.28 5.11-.34.16-.34-.1-.31-.92zM318.46 75.69c.1.2-.11.31.13.38.59-3.12 1.09-6.47 2.3-9.38.17 2.66.22 8.97-1.6 11.07-.93-.43-.84-1.69-.83-2.07zM137.06 177.39c1.42-3.09 3.76-9.18 2.73-12.54-1.37 2.39-1.83 5.67-2.51 8.37-.32 1.28-1.76 3.63-1.12 4.88.5-.17.41-.43.9-.71zM133.45 176.88c1.05-1.43.7-5.08.88-6.77.3-2.93.58-5.79.54-8.73-1.45 4.55-2.63 11.33-2.09 16.26.22-.07.18-.24.67-.76zM129.65 176.36c.6-.46.29-5.85.26-6.9-.07-2.3.01-5.02-.63-7.24-1.06 3.03-.26 6.8-.22 9.95.02 1.65-.23 3.54.28 5.11.34.17.35-.09.31-.92zM126.4 176.03c-.1.2.11.31-.13.38-.59-3.12-1.09-6.47-2.3-9.38-.17 2.66-.22 8.97 1.6 11.07.93-.42.85-1.68.83-2.07z"/></g><path d="M520.72 113.48c1.57-2.15 3.15-5.43 5.57-6.56-.28 1.13-1.14 2.01-1.48 3.14.23-.17.65-.26.89-.42-.41 1.09-1.29 2.3-2.02 3.2-1.46 1.8-4.33 1.72-2.96.64zM528.58 110.21c1.02-1.81 2.59-3.67 4.02-5.12-.05.14-.13.27-.19.41.37-.11.9-.12 1.29-.27.32 2-3.11 6.61-4.95 5.98-.03-.43.1-.94-.17-1zM523.72 126.84c1.02-1.81 2.59-3.67 4.02-5.12-.05.14-.13.27-.19.41.37-.11.9-.12 1.29-.27.32 2-3.11 6.61-4.95 5.98-.03-.43.1-.94-.17-1zM527.49 117.47c.04.01 2.51-3.17 3.26-3.57.01.15-.02.28.02.42.3-.18.78-.22 1.06-.41-.54 1.4-.61 2.19-1.71 3.64-.39.51-1.22 1.84-1.95 1.92-1.15.13-1.46-.81-.68-2zM519.17 122.1c.04.01 2.51-3.17 3.26-3.57.01.15-.02.28.02.42.3-.18.78-.22 1.06-.41-.54 1.4-.61 2.19-1.71 3.64-.39.51-1.22 1.84-1.95 1.92-1.15.14-1.46-.81-.68-2zM536.17 112.77c-.27-.75 1.9-3.23 2.58-3.56-.03.08-.14.18-.15.26.67-.63 1.38-1.24 2.17-1.67.1 1.86-.89 2.31-2.06 3.81-.7.9-2.05 4.05-3.5 3.15-.04-1.08.61-2.29.96-1.99zM532.95 119.65c-.07.17-.12.34-.23.5 1.4-1.22 2.25-3.31 3.88-4.19-.1.19-.17.5-.28.71.52-.12 1.01-.39 1.51-.56-.13.51-.05.5-.06.87-.76 1.12-4.31 6.58-6.01 5.08.2-.73.57-1.41 1.19-2.41z" fill="#eb83a0"/><path d="M172.08 224.13c-.04.18-.1.35-.19.5-.52.91-1.63 1.01-2.17 1.05-1.2.11-1.41.39-1.41.39 0 .01-.04.23.39.84.47.67.62 1.31.43 1.9-.3.96-1.25 1.26-2.1 1.54l-.34.11c-.47.16-.48.22-.49.34-.08.57.06 1.72.27 2.27.12.31.24.83.34 1.18 1.98 1.3 3.65 2.07 5.84 2.96-.48-.89-1-2.24-.51-3.31.19-.42.7-1.12 1.97-1.17.43-.02.83.05 1.15.09l.18.03c-.01-.04-.01-.09-.02-.15-.02-.18-.06-.34-.08-.5-.15-.78-.39-2.09 1.15-2.89.37-.19.75-.28 1.1-.36.14-.03.29-.07.43-.11-.17-.54-.52-1.36-.67-1.61a1.01 1.01 0 01-.14-.4c-1.66-.95-3.38-1.85-5.13-2.7zM184.15 214.14c-1.07-.36-1.36-.22-1.36-.22-.01.07.02.52.03.73.02.4.05.78-.09 1.14-.68 1.77-1.98 1.34-2.62 1.13-.03-.01-.07-.02-.09-.03.03.1.13.35.19.53.26.67.71 1.8-.13 2.72-1.16 1.28-2.47.33-3.03-.07-.18-.13-.45-.32-.55-.35-.12-.02-.23-.01-.26.02-.14.16-.4.83.19 3.58.04.21.01.42-.06.6.61.59 1.24 1.17 1.86 1.74.43.44 2.01 1.82 2.49 2.26-.02-.12-.04-.24-.05-.36-.31-2.21.3-3.22.86-3.7.49-.41 1.37-.78 2.81-.2.23.09.47.22.7.35.09.05.22.12.32.18.07-.25.05-.47 0-.81-.02-.13-.03-.26-.05-.39-.06-.63.2-1.25.7-1.62.49-.36 1.12-.42 1.65-.15l.21.11c.05.03.11.06.16.08.12-.61.37-1.56 1.23-1.97.1-.05.21-.07.32-.09a49.12 49.12 0 00-4.87-5.23c-.18.07-.37.09-.56.02zM191.69 214.8c.03-.19.06-.48.05-.72-.02-.58-.05-1.24.2-1.81.35-.81.83-1.25 1.43-1.33.97-.13 1.63.74 2.16 1.44.11.14.21.28.31.4.05.06.1.11.14.16.05-.11.09-.23.13-.32.22-.55.49-1.24.97-1.76a1.35 1.35 0 011.83-.16c.34.27.59.6.78.86.24.32.35.46.48.49.26-.07.7-.75.93-1.12.16-.25.4-.4.65-.44-.4-2.5-1.13-4.82-2.17-7.14-.21.44-.59.91-1.32.97-.5.04-1.04-.15-1.51-.57-.15-.13-.31-.31-.48-.5-.14-.16-.42-.46-.53-.51-.1.07-.41.62-.62.98-.18.31-.35.6-.53.82-.45.57-.92.87-1.45.89-.76.05-1.28-.53-1.65-.93-.17-.19-.3-.32-.4-.4-.16.31-.45.99-.89 2.38-.12.36-.4.6-.74.67.42 2.67 1.18 5.28 2.14 7.81.06-.03.05-.15.09-.16zM190.95 193.13c.83-.04 1.35.67 1.62 1.18.25-.6.65-1.33 1.47-1.51.23-.05.45-.04.67 0-.49-1.49-.9-3-1.24-4.55-.19-.84-.19-1.89-.41-2.65a48.293 48.293 0 00-2.63 7.68c.16-.09.34-.15.52-.15zM218.11 201.14c1.43.29 1.2 1.86 1.12 2.45-.03.23-.07.51-.07.72.46-.25 1.17-.57 2.01-.23.56.23.87.7 1.09 1.2.39-2.26 1.1-4.42 1.68-6.64.51-1.93 1.06-3.94 1.99-5.69-2.45 1.59-4.68 4.1-6.8 6.13-.7.67-1.37 1.36-2.03 2.07.39-.05.75-.07 1.01-.01zM218.35 217.03c-.44-.63-.4-1.47-.37-2.22.01-.24.03-.46.01-.63-.02-.11-.03-.19-.05-.25-.31.14-.81.51-1.11.73-.34.25-.67.49-.96.65-.31.17-1.25.7-2.07.16-.87-.57-.84-1.79-.8-2.86.01-.43.03-1.15-.06-1.35-.06-.09-.2-.24-.51-.26-.44-.03-2.56 1.06-3 1-.91 1.78-1.71 3.63-2.47 5.5.86-.51 1.81-.74 2.73-.02 1.23.96.94 2.5.75 3.52-.05.25-.12.64-.13.91.11-.08.22-.18.31-.25.6-.5 1.86-1.54 3.05-.48 1.01.9.72 2.28.51 3.29 0 .02-.01.05-.01.07 1.58-2.32 3.19-4.69 4.54-7.2a.978.978 0 01-.36-.31z" fill="#1e5085"/><path d="M221.72 208.76c-.2-.08-.39-.2-.51-.41-.27-.47-.41-1.01-.53-1.49-.08-.29-.2-.79-.3-.9-.01.01-.27.15-.44.24-.38.21-.96.52-1.6.26-.66-.27-.91-.95-1-1.18-.25-.71-.15-1.43-.07-2.01 0-.02.01-.05.01-.08-.63.1-1.66.41-2.19.78-.18.12-.38.16-.58.15a45.919 45.919 0 00-3.56 5.13c.52-.23 1.07-.35 1.6-.31.81.06 1.52.46 1.98 1.13.48.69.45 1.67.42 2.61-.01.23-.02.54-.01.8.22-.13.47-.32.74-.51.95-.7 2.02-1.5 3.08-1.02.63.28 1.02.93 1.16 1.93.04.28.03.58.02.9.42-.95.8-1.92 1.1-2.92.32-1.01.52-2.05.68-3.1zM190.51 202c1.19-.27 1.96.57 2.41 1.07.05.05.1.11.16.17v-.01c.13-.16.24-.37.37-.59.4-.7.91-1.57 1.82-1.88 1.17-.4 2 .56 2.46 1.07.08.09.15.17.22.24.02-.09.48-.55.63-.86-.94-1.84-1.85-3.46-2.69-5.37-.3-.15-.61-.25-.81-.45-.28-.29-.48-.43-.59-.5-.07.14-.15.34-.21.48-.24.59-.6 1.49-1.52 1.54-1.09.05-1.55-.89-1.82-1.42-.2.26-.52.57-.61.76-.18.16-.35.41-.69.81-.2 1.22-.35 2.46-.44 3.69-.07.96-.07 1.9-.04 2.85.49-1.16.88-1.5 1.35-1.6zM196.88 220.62c.58.31.89.85 1.12 1.25.02.04.05.09.08.14.14-.16.29-.4.4-.57.45-.73 1.5-2.42 3.02-1.46.58.36.77 1 .89 1.42.02.08.05.18.08.26.03.01.05.02.07.03 0-2.88-.17-5.76-.45-8.62-.58.75-1.25 1.27-2.34 1-.82-.2-1.26-.78-1.58-1.21-.08.18-.16.38-.23.56-.31.78-.66 1.66-1.56 1.81-.86.14-1.55-.55-2-1.09-.12-.15-.24-.31-.37-.47-.08-.11-.19-.25-.3-.38-.02.2-.01.51 0 .71.03.84.08 2.4-1.33 2.84.02.05.04.1.06.14.65 1.52 1.26 3.1 1.73 4.71.47-.69 1.38-1.78 2.71-1.07zM227.44 224.81c.05-.26.13-.54.2-.83.17-.66.43-1.67.15-1.8-.06 0-.55.11-.82.19-.78.22-1.86.51-2.51-.37-.66-.89-.2-1.94.13-2.71.1-.24.28-.64.32-.87-.5-.05-1.64.27-1.99.5-.2.13-.53.19-.79.29-1.61 1.82-2.95 3.61-4.5 5.46.27-.01.55.02.84.1.32.09.58.35.68.68.15.48.1.97.05 1.35l-.03.29c0 .03 0 .06-.01.1.09-.02.17-.05.26-.07.27-.07.54-.15.81-.19 1.27-.26 1.66.49 1.76.83.28.88-.28 1.76-.68 2.39-.03.04-.05.08-.08.12.15.01.31.01.46.01.32 0 .62-.02.93-.04l.43-.02c.02 0 .03.01.05.01 1.64-1.36 2.89-2.68 4.22-4.42-.09-.22.07-.75.12-1z" fill="#1e5085"/><path d="M219.39 232.06c-.22-.12-.52-.39-.55-.94-.04-.66.3-1.23.56-1.65l.09-.15c.02-.03.04-.07.06-.1-.1.03-.21.05-.32.07-.67.16-1.32.32-1.8-.17-.5-.52-.38-1.27-.26-1.94.02-.09.03-.16.03-.21s.01-.1.01-.16c-.35.1-.71.26-1.01.4-.29.13-.59.09-.85-.05-.47.47-.95.94-1.46 1.38-1.15 1-2.65 2.35-4.15 2.58.1-.56.59-1.12.92-1.59.7-.99 1.39-1.98 2.08-2.97-.33-.12-.59-.41-.65-.79-.1-.56.03-1.17.15-1.75.06-.31.19-.92.16-1.18-.17.1-.42.3-.58.44-.59.49-1.69 1.4-2.75.49-1.01-.87-.76-2.21-.58-3.18.17-.88.21-1.3.01-1.46-.27-.22-1.28.64-1.82 1.1-.19.17-.39.33-.58.48-.15.12-.31.17-.48.19-1.1 2.97-2.14 5.96-3.26 8.85-.26-1.08-.03-2.4.04-3.52.06-.87.08-1.73.1-2.6-.08.02-.15.05-.24.05h-.02c-1.25-.03-1.6-1.18-1.75-1.68 0-.01-.01-.02-.01-.04-.13.18-.28.41-.38.58-.31.5-.63 1.02-1.09 1.31-.4.25-.75.34-1.05.34-.94 0-1.46-.92-1.67-1.28-.07-.13-.18-.32-.26-.41-.13.13-.3.4-.41.56-.12.19-.24.37-.36.52a.99.99 0 01-.55.33c.21 1.05.37 2.1.42 3.17.04.85.34 2.02.24 2.76-.74-2.91-2.31-5.73-4.01-8.12a.92.92 0 01-.75-.11c-.43-.27-.63-.27-.62-.26.02.05-.06.46-.09.63-.07.36-.13.71-.42.99-.82.8-1.62.63-2.16.39.06.51.08 1.1-.2 1.74-.26.59-.63.98-1.1 1.14-.75.26-1.44-.13-1.94-.41-.15-.09-.31-.18-.46-.24-.54-.22-.81-.17-.87-.12-.14.12-.3.68-.15 1.73.13.98.14 1.3.15 1.43.06.44.07.82.09 1.24.58.53 1.19 1.06 1.81 1.53-.68-.44-1.37-.88-2.05-1.31-.59-.34-1.17-.63-1.62-1l-1.02-.63c.15.66.14 1.3-.23 1.69-.52.54-1.18.69-1.72.82-.25.06-.49.11-.64.19s-.19.13-.19.13c.01.03.06.31.1.51.04.19.07.4.1.62.08.61.12 1.48-.43 2.06-.57.6-1.34.49-1.96.39-.25-.04-.52-.08-.8-.07-.23.01-.31.06-.31.06-.02.17 1.31 3.19 1.31 3.31 1.23.43 2.48.84 3.76 1.22 4.89 1.48 9.81 1.89 14.89 1.9 2.11 0 4.51-.21 6.48-1.02 2.15-.29 4.53-1.35 7.04-2.07 2.32-.67 4.46-1.32 6.63-2.45 2.06-1.08 4.15-2.25 6.16-3.44-.27-.03-.53-.09-.76-.25zM220.24 230.2c.03.01.06.03.1.05-.03-.02-.06-.04-.1-.05zM233 216.12c.1-.65 0-.84 0-.84-.04-.02-.3-.05-.46-.07-.46-.06-1.16-.16-1.6-.8-.09-.14-.15-.3-.17-.47-.06-.54.13-1.04.29-1.48.03-.07.06-.15.09-.24-.35-.08-.85-.12-1.05-.08-.22.05-.41-.02-.74 0-1.67 1.3-3.13 2.69-4.6 4.22.23 0 .46.01.67.06.66.15 1 .52 1.17.8.61 1.02.13 2.12-.22 2.93-.04.08-.08.18-.12.28.08-.02.15-.04.22-.06.68-.19 1.44-.4 2.13-.07.89.42 1.21 1.15 1.26 1.94.99-1.52 1.92-3.05 2.8-4.55.16-.27.17-.26.34-.53.03-.43-.05-.76-.01-1.04zM237.62 207.56c-1.38.86-2.95 1.35-4.39 2.08-.42.21-.83.45-1.24.69.48.18.89.45 1.08.89.3.7.05 1.41-.15 1.95.5.07 1.19.21 1.66.87.07.09.12.2.17.31 1.04-1.63 2.08-3.25 3.1-4.89.63-1.03 1.18-2.17 1.87-3.13-.75.31-1.4.8-2.1 1.23zM165.69 203.3c.57-.23 1.05-.01 1.37.15.02-.5.1-1.23.71-1.74.19-.16.41-.26.64-.33-.2-.18-.41-.34-.61-.52-1.68-1.49-3.47-2.9-5.05-4.5-.46-.47-.85-1.09-1.39-1.47 1.42 2.92 2.41 6.22 3.41 9.38.18-.37.46-.78.92-.97zM165.95 207.81c.98 2.71 2.13 5.31 3.58 7.77-.19-1.12-.28-2.35.15-3.47.74-1.92 2.28-1.42 2.85-1.24.16.05.38.13.49.12-.01-.06-.02-.4-.02-.61-.01-.67-.04-2.06 1.38-2.57.38-.14.94-.22 1.54-.31l.21-.03c-1.84-1.36-3.67-2.74-5.46-4.19-.21.14-.46.2-.72.14-.52-.11-.79-.1-.91-.09-.01.09-.02.23-.02.32-.02.48-.06 1.76-1.33 1.98-.51.09-.94-.06-1.24-.21-.04.28-.06 1.06-.02 1.33.06.45-.14.86-.48 1.06z" fill="#1e5085"/><path d="M177.53 209.3c-.34.1-.81.18-1.32.25-.43.07-.98.15-1.19.22-.05.07-.05.37-.04.57.01.61.03 1.53-.67 2.19-.83.8-1.78.49-2.35.3a3.31 3.31 0 00-.39-.11c-.01.03-.03.08-.06.15-.35.89-.08 2.18.16 3.32.13.65.26 1.26.28 1.81.01.29-.1.55-.27.75.78 1.02 1.62 2 2.5 2.94-.14-1.35-.05-2.56.62-3.34.33-.38.94-.82 1.96-.68.56.07 1.02.4 1.42.69.1.08.25.18.38.26-.04-.14-.11-.3-.16-.42-.2-.51-.43-1.09-.32-1.72.08-.47.26-1.15.84-1.51.64-.4 1.36-.17 1.79-.03.07.02.13.04.18.06-.01-.04-.02-.13-.03-.23-.04-.68-.11-1.81.74-2.51.18-.15.38-.24.59-.31-.27-.21-.53-.43-.8-.63-1.11-.82-2.22-1.63-3.33-2.45-.14.21-.31.36-.53.43zM164.26 230.52c.19-1.46 1.34-1.85 1.83-2.02l.37-.12c.19-.06.46-.15.66-.24-1.1-1.55-.83-2.62-.42-3.24.64-.97 1.94-1.19 2.86-1.27.29-.03.47-.06.57-.09-.01-.04-.03-.09-.05-.15-.03-.08-.04-.17-.05-.25-1.66-.73-3.36-1.27-5.06-1.77-.05-.01-1.32.39-1.7.45-.19.03-.4.07-.57.17-.01.01-.06.03-.06.04-.04.1.03.49.07.7.11.6.35 1.99-.95 2.53-.68.28-1.31.08-1.72-.06-.07-.02-.15-.05-.23-.07-.01.01-.01.03-.02.05-.19.45.71 3.38.79 3.72.4.43.62.69 1.03 1.12.88.92 1.8 1.72 2.75 2.46-.13-.68-.17-1.41-.1-1.96zM157.98 224.36c.72-1.72 2.1-1.29 2.62-1.12.06.02.13.04.2.06-.01-.06-.02-.13-.03-.18-.11-.64-.28-1.6.36-2.4.1-.12.23-.22.36-.32-1.16-.33-2.31-.68-3.46-1.09-3.13-1.12-6.31-1.98-9.36-3.32 1.7 1.09 2.94 3.1 4.32 4.59 1.63 1.76 3.23 3.55 4.83 5.34-.07-.54-.04-1.08.16-1.56zM362.32 185.65c.41-1.09.77-2.2 1.02-3.33 1.16-5.2 1.42-9.64.78-13.2-.94-5.22-4.4-9.97-9.27-12.7-.04-.03-.07-.06-.11-.1-3.24-.68-6.43-.61-9.71 0-2.44 1.05-6 4.56-7.27 6.43-2.23 3.27-3.71 7.69-4.18 12.43-.57 5.71.74 12.19 3.59 17.78 1.48 2.9 5.73 8.55 8.61 10.76 1.97-.15 3.95-.18 5.91-.37.35-.03 1.73 0 1.8-.32 1.29.4 3.2-.65 4.71-1.82-2.67-8.7 2.11-13.86 4.12-15.56zm-2.09-19.67c.32-.14.69.02.82.36.21.55.2 1.32.18 2.01 0 .2-.01.4-.01.56.01.36-.27.66-.61.67h-.01c-.34 0-.62-.29-.63-.65 0-.18 0-.4.01-.62.01-.5.03-1.19-.09-1.48-.14-.33.02-.71.34-.85zm-1.73 10.1c.33-.07.67.17.73.52.14.77.3 1.9.05 2.78-.08.28-.33.47-.6.47-.06 0-.12-.01-.18-.03-.33-.1-.52-.47-.42-.82.19-.67-.01-1.79-.08-2.15-.06-.36.16-.71.5-.77zm-20.15 9.13c-.07.03-.14.04-.21.04a.63.63 0 01-.59-.43c-.32-.93-.48-1.91-.45-2.82.01-.36.25-.65.65-.64.35.01.62.32.6.68-.02.75.1 1.55.37 2.33.12.34-.05.71-.37.84zm1.07-15.2c-.04.19-.09.37-.15.57-.13.46-.25.9-.22 1.3.03.36-.23.68-.58.71h-.05c-.32 0-.6-.26-.62-.61-.05-.64.12-1.24.26-1.77.05-.17.09-.34.13-.5.08-.35.42-.57.76-.49s.55.43.47.79zm2.29 5.5c.11-.34.47-.52.8-.4s.5.5.38.84c-.17.5-.13 1.58.06 1.89s.1.71-.19.91c-.11.07-.22.1-.34.1-.21 0-.41-.11-.53-.3-.47-.78-.42-2.32-.18-3.04zm1.84 10.87l.09.43c.12.63.24 1.23.49 1.74.16.32.04.72-.27.89a.62.62 0 01-.85-.29c-.33-.67-.47-1.39-.61-2.08l-.08-.42c-.07-.36.14-.71.48-.78.33-.06.67.16.75.51zm.44 10.95a.6.6 0 01-.36.12c-.2 0-.39-.1-.52-.28-.36-.54-.8-1.53-.93-2.26-.06-.36.16-.7.51-.76.34-.06.67.17.73.53.09.5.45 1.33.72 1.74.21.3.14.71-.15.91zm1.14-33.18c-.08.3-.18.6-.28.89-.11.33-.22.63-.28.95-.06.31-.32.52-.61.52-.04 0-.09 0-.13-.01a.649.649 0 01-.48-.78c.08-.41.21-.77.33-1.13.09-.25.18-.51.24-.77.09-.35.43-.56.77-.47.33.09.53.45.44.8zm1.6 19.43h-.05c-.32 0-.6-.26-.62-.6-.06-.73-.07-1.45-.07-2.05 0-.36.28-.66.63-.66s.63.29.63.66c0 .58.01 1.26.06 1.95.03.35-.23.67-.58.7zm1.1-13.21c-.06.42-.12.81-.08 1.21.04.36-.21.69-.55.73h-.07a.63.63 0 01-.62-.59c-.06-.58.02-1.08.09-1.57.05-.32.09-.61.1-.91 0-.36.28-.65.63-.65h.01c.35 0 .62.3.62.66-.02.41-.07.77-.13 1.12zm1.81 25.84c-.07.03-.15.05-.23.05-.25 0-.49-.16-.58-.42-.29-.79-.6-1.73-.61-2.69-.01-.36.27-.66.61-.67.33.02.63.28.64.64.02.75.28 1.56.53 2.24.12.33-.04.72-.36.85zm.61-18.55c.05-.54.02-1.77 0-2.5v-.15c-.01-.36.26-.67.61-.68.34-.02.64.28.64.64v.15c.02.86.05 2.04-.01 2.67a.63.63 0 01-.62.59h-.06c-.34-.04-.59-.36-.56-.72zm1.95 11.77c-.01.36-.29.66-.63.66h-.02a.61.61 0 01-.6-.66v-.05c.02-.6.05-1.42-.1-1.93-.1-.35.08-.72.41-.83s.68.09.79.43c.21.74.18 1.65.15 2.38zm1.08-23.55c-.01.36-.29.64-.63.64h-.02c-.35-.01-.62-.32-.61-.68.03-.91-.03-1.64-.17-2.21-.09-.35.11-.71.45-.8.33-.1.68.12.76.47.18.69.25 1.53.22 2.58zm1.77 16.66c-.03.32-.07.69-.06.87.02.36-.24.68-.58.7h-.05c-.33 0-.6-.27-.62-.61-.02-.29.02-.68.06-1.1.03-.31.06-.63.07-.89 0-.36.28-.65.63-.65s.62.3.62.66c0 .31-.04.67-.07 1.02zm.14-9.63c-.35 0-.63-.3-.63-.66 0-.66-.03-1.32-.06-1.98l-.01-.12c-.02-.36.25-.67.6-.69.33-.01.64.26.66.63l.01.12c.03.68.06 1.36.06 2.04 0 .37-.28.66-.63.66z" fill="#1e5085"/><path d="M361.35 187.98c-.96 1.12-1.97 2.71-2.54 4.77.82-1.4 1.72-3.03 2.54-4.77z" fill="#1e5085"/><path d="M359.22 157.72c3.29 2.95 5.57 6.89 6.33 11.12.68 3.76.41 8.41-.8 13.82-.91 4.07-3 7.96-4.71 10.88-.14.23-.37.36-.62.36-.13 0-.26-.04-.38-.11a.76.76 0 01-.33-.68c-.49 2.03-.53 4.5.32 7.43.34-.3.64-.59.88-.85 2.29-2.43 4.13-5.17 5.76-8.09 3.37-6.03 5.47-12.88 5.28-19.89-.19-6.84-5.84-11.57-11.73-13.99zm7.78 12.74c-.09 0-.17-.02-.26-.06a.673.673 0 01-.32-.87c.12-.28.13-1.19-.23-2.81-.08-.35.13-.71.47-.79.33-.08.67.14.75.49.39 1.75.44 2.98.15 3.65-.1.24-.32.39-.56.39zm1.06 7.07c-.06 0-.13-.01-.19-.03-.33-.11-.51-.48-.41-.83.27-.88.45-1.82.55-2.8.04-.36.34-.62.69-.59.34.04.59.36.56.72-.11 1.07-.31 2.1-.6 3.06-.09.29-.34.47-.6.47z" fill="#1e5085"/><path d="M344.7 156.72c-1.05.44-3.49-3.38-3.2-4.43.63-2.3 3.69-.09 4.45 1.05.54-.57.36-2.09 1.43-2.37 1.21-.32 1.31 1.26 1.84 1.96.58-.57 1.06-1.77 1.96-2 1.08-.28.74 1 .77 1.77.53-.64 2.17-2.34 3.13-1.66.97.68 0 2.3-.47 3.04-.92 1.45-2.36 2.45-3.79 3.31-2.33 1.41-4.45.01-6.12-.67z" fill="#f8d2d5"/><path d="M376.43 188.32c-.88-1.31-2-2.53-3.41-3.33-1.36-.78-3.3-.98-4.84-1.12-3.59-.32-6.11.18-9.09 2.26-3.12 2.17-5.26 5.39-5.28 9.18-.02 3.74 1.26 7.21 3.16 10.41.7 1.18 1.8 2.33 3.1 2.98.68.34 1.35.48 2.02.5-.08-.24-.26-.48-.46-.74-.09-.11-.17-.23-.25-.34-.7-1.02-1.21-2.14-1.69-3.22-1.05-2.38-2.44-5.91-2.4-9.1.04-2.8.93-5.27 2.71-7.58.82-1.06 2.87-3.55 4.03-3.7.26-.04.5.16.54.44.03.28-.16.53-.42.56-.52.07-1.98 1.5-3.4 3.34-1.64 2.12-2.46 4.4-2.49 6.95-.04 2.98 1.3 6.37 2.31 8.66.45 1.03.95 2.11 1.6 3.05.07.1.15.2.22.3.22.3.48.63.61 1.03.03.1.03.19 0 .29.28-.04.55-.09.83-.15 1.07-.26 3.41.15 5.65.04-.06-.24.04-.49.26-.59.32-.16.76-1.41.95-1.95.08-.24.16-.46.22-.61.97-2.34 1.57-4.94 1.9-8.21.29-2.85-.02-5.42-.99-8.08-.41-1.13-.93-2.17-1.58-3.18l-.17-.26c-.53-.79-.68-1.03-.61-1.33.06-.27.31-.44.58-.38.19.05.33.21.36.4.07.15.33.53.46.72l.18.27a17.26 17.26 0 011.68 3.39c1.02 2.81 1.36 5.53 1.05 8.55-.34 3.37-.97 6.07-1.98 8.5-.06.14-.13.33-.2.56-.3.85-.58 1.6-.95 2.08.35-.05.7-.13 1.03-.22.49.56 1.52-.51 1.93-1 1.17-1.43 1.5-2.77 2.49-4.68 2.18-4.25 3.21-10.42.34-14.69z" fill="#4d9b90"/><path d="M363.86 185.26c-.65-1.25-2.62-2.27-1.89-4.1 1.43-.02 2.16 1.63 3.21 2.34.08-.78-.04-3.21 1.24-3.07 1.04.11 1.26 2.12 1.8 2.76.67-.52 1.17-1.74 2.07-1.87.36.59-.04 1.36.33 1.88.57-.29 1.92-1.62 2.53-.96.7.75-.79 2.58-1.25 3.01-.92.86-2.29 1.16-3.49 1.4-1.94.38-3.74-.67-4.55-1.39z" fill="#f8d2d5"/><path d="M335.9 193.68c-2.98-5.85-4.35-12.65-3.76-18.65.5-5 2.08-9.68 4.45-13.16.78-1.15 2.41-2.95 4.21-4.49-4.39 1.35-8.88 3.53-12.14 6.54-5.24 4.81-6.36 13.62-4.83 20.32 1.67 7.34 6.26 13.17 12.16 17.38 1.41 1 2.93 1.99 4.59 2.48 1.07.31 2.12.03 3.19-.14-2.97-2.79-6.52-7.64-7.87-10.28zm-9.33-9.48h-.03c-.35-.02-.61-.32-.6-.69.02-.4-.06-.88-.14-1.34-.09-.51-.18-1.03-.15-1.51.02-.36.33-.63.67-.61.35.02.61.34.58.7-.02.32.05.74.13 1.19.09.53.18 1.08.16 1.63-.01.36-.29.63-.62.63zm1.15-14.65h-.02c-.35-.01-.62-.32-.61-.68.03-.91.34-2.33.87-3.17.19-.3.58-.39.87-.19s.37.61.18.91c-.34.53-.64 1.67-.67 2.49 0 .36-.28.64-.62.64zm.82 7.22c0-.22-.01-.46-.02-.71-.03-.72-.07-1.54.16-2.24.11-.34.47-.53.8-.41s.5.49.39.84c-.15.45-.12 1.11-.09 1.74.01.27.03.53.03.77 0 .36-.28.66-.63.66s-.64-.29-.64-.65zm1.22 8.4c.31-.16.69-.03.84.3.4.86.82 1.8 1.18 2.79a.67.67 0 01-.37.85.57.57 0 01-.22.04c-.25 0-.49-.16-.59-.43-.34-.93-.74-1.84-1.13-2.67a.679.679 0 01.29-.88zm1.87 9.23a.615.615 0 01-.87-.18c-.3-.48-.84-1.41-1.05-2.34-.08-.35.13-.71.46-.79s.67.13.75.49c.12.53.44 1.22.88 1.91.2.3.12.71-.17.91zm4.32 5.01c-.08.03-.16.05-.24.05-.24 0-.48-.15-.58-.41-.13-.33-.35-.65-.59-.98-.15-.21-.3-.43-.42-.64a.69.69 0 01.2-.91c.29-.19.68-.1.86.21.11.19.24.37.37.56.27.39.55.78.73 1.26a.65.65 0 01-.33.86zM59.93 85.55c.41-1.09.77-2.2 1.02-3.33 1.16-5.2 1.42-9.64.78-13.2-.94-5.22-4.4-9.97-9.27-12.7-.04-.03-.07-.06-.11-.1-3.24-.68-6.43-.61-9.71 0-2.44 1.05-6 4.56-7.27 6.43-2.23 3.27-3.71 7.69-4.18 12.43-.57 5.71.74 12.19 3.59 17.78 1.48 2.9 5.73 8.55 8.61 10.76 1.97-.15 3.95-.18 5.91-.37.35-.03 1.73 0 1.8-.32 1.29.4 3.2-.65 4.71-1.82-2.66-8.7 2.12-13.86 4.12-15.56zm-2.09-19.67c.32-.14.69.02.82.36.21.55.2 1.32.18 2.01 0 .2-.01.4-.01.56.01.36-.27.66-.61.67h-.01c-.34 0-.62-.29-.63-.65 0-.18 0-.4.01-.62.01-.5.03-1.19-.09-1.48-.13-.33.02-.71.34-.85zm-1.72 10.1c.33-.07.67.17.73.52.14.77.3 1.9.05 2.78-.08.28-.33.47-.6.47-.06 0-.12-.01-.18-.03-.33-.1-.52-.47-.42-.82.19-.67-.01-1.79-.08-2.15s.16-.7.5-.77zm-20.16 9.13c-.07.03-.14.04-.21.04a.63.63 0 01-.59-.43c-.32-.93-.48-1.91-.45-2.82.01-.36.25-.65.65-.64.35.01.62.32.6.68-.02.75.1 1.55.37 2.33a.65.65 0 01-.37.84zm1.07-15.2c-.04.19-.09.37-.15.57-.13.46-.25.9-.22 1.3.03.36-.23.68-.58.71h-.05c-.32 0-.6-.26-.62-.61-.05-.64.12-1.24.26-1.77.05-.17.09-.34.13-.5.08-.35.42-.57.76-.49s.55.44.47.79zm2.29 5.5c.11-.34.47-.52.8-.4s.5.5.38.84c-.17.5-.13 1.58.06 1.89s.1.71-.19.91c-.11.07-.22.1-.34.1-.21 0-.41-.11-.53-.3-.46-.78-.42-2.32-.18-3.04zm1.84 10.87l.09.43c.12.63.24 1.23.49 1.74.16.32.04.72-.27.89a.62.62 0 01-.85-.29c-.33-.67-.47-1.39-.61-2.08l-.08-.42c-.07-.36.14-.71.48-.78.33-.06.68.16.75.51zm.45 10.95a.6.6 0 01-.36.12c-.2 0-.39-.1-.52-.28-.36-.54-.8-1.53-.93-2.26-.06-.36.16-.7.51-.76.34-.06.67.17.73.53.09.5.45 1.33.72 1.74.2.3.13.71-.15.91zm1.13-33.17c-.08.3-.18.6-.28.89-.11.33-.22.63-.28.95-.06.31-.32.52-.61.52-.04 0-.09 0-.13-.01a.649.649 0 01-.48-.78c.08-.41.21-.77.33-1.13.09-.25.18-.51.24-.77.09-.35.43-.56.77-.47.33.08.53.44.44.8zm1.61 19.42h-.05c-.32 0-.6-.26-.62-.6-.06-.73-.07-1.45-.07-2.05 0-.36.28-.66.63-.66s.63.29.63.66c0 .58.01 1.26.06 1.95.02.35-.24.67-.58.7zm1.1-13.21c-.06.42-.12.81-.08 1.21.04.36-.21.69-.55.73h-.07a.63.63 0 01-.62-.59c-.06-.58.02-1.08.09-1.57.05-.32.09-.61.1-.91 0-.36.28-.65.63-.65h.01c.35 0 .62.3.62.66-.03.41-.08.77-.13 1.12zm1.8 25.84c-.07.03-.15.05-.23.05-.25 0-.49-.16-.58-.42-.29-.79-.6-1.73-.61-2.69-.01-.36.27-.66.61-.67.33.02.63.28.64.64.02.75.28 1.56.53 2.24a.66.66 0 01-.36.85zm.61-18.55c.05-.54.02-1.77 0-2.5v-.15c-.01-.36.26-.67.61-.68.34-.02.64.28.64.64v.15c.02.86.05 2.04-.01 2.67a.63.63 0 01-.62.59h-.06c-.34-.04-.59-.36-.56-.72zm1.95 11.77c-.01.36-.29.66-.63.66h-.02a.61.61 0 01-.6-.66v-.05c.02-.6.05-1.42-.1-1.93-.1-.35.08-.72.41-.83s.68.09.79.43c.21.74.18 1.65.15 2.38zm1.08-23.55c-.01.36-.29.64-.63.64h-.02c-.35-.01-.62-.32-.61-.68.03-.91-.03-1.64-.17-2.21-.09-.35.11-.71.45-.8.33-.1.68.12.76.47.18.69.25 1.53.22 2.58zm1.77 16.66c-.03.32-.07.69-.06.87.02.36-.24.68-.58.7h-.05c-.33 0-.6-.27-.62-.61-.02-.29.02-.68.06-1.1.03-.31.06-.63.07-.89 0-.36.28-.65.63-.65s.62.3.62.66c0 .31-.03.67-.07 1.02zm.15-9.62c-.35 0-.63-.3-.63-.66 0-.66-.03-1.32-.06-1.98l-.01-.12c-.02-.36.25-.67.6-.69.33-.01.64.26.66.63l.01.12c.03.68.06 1.36.06 2.04-.01.36-.29.66-.63.66z" fill="#1e5085"/><path d="M58.96 87.88a12.36 12.36 0 00-2.54 4.77c.82-1.4 1.73-3.03 2.54-4.77z" fill="#1e5085"/><path d="M56.83 57.62c3.29 2.95 5.57 6.89 6.33 11.12.68 3.76.41 8.41-.8 13.82-.91 4.07-3 7.96-4.71 10.88-.14.23-.37.36-.62.36-.13 0-.26-.04-.38-.11a.76.76 0 01-.33-.68c-.49 2.03-.53 4.5.32 7.43.34-.3.64-.59.88-.85 2.29-2.43 4.13-5.17 5.76-8.09 3.37-6.03 5.47-12.88 5.28-19.89-.19-6.84-5.84-11.57-11.73-13.99zm7.78 12.74c-.09 0-.17-.02-.26-.06a.673.673 0 01-.32-.87c.12-.28.13-1.19-.23-2.81-.08-.35.13-.71.47-.79.33-.08.67.14.75.49.39 1.75.44 2.98.15 3.65-.09.24-.32.39-.56.39zm1.06 7.07c-.06 0-.13-.01-.19-.03-.33-.11-.51-.48-.41-.83.27-.88.45-1.82.55-2.8.04-.36.34-.62.69-.59.34.04.59.36.56.72-.11 1.07-.31 2.1-.6 3.06-.09.29-.34.47-.6.47z" fill="#1e5085"/><path d="M42.32 56.62c-1.05.44-3.49-3.38-3.2-4.43.63-2.3 3.69-.09 4.45 1.05.54-.57.36-2.09 1.43-2.37 1.21-.32 1.31 1.26 1.84 1.96.58-.57 1.06-1.77 1.96-2 1.08-.28.74 1 .77 1.77.53-.64 2.17-2.34 3.13-1.66.97.68 0 2.3-.47 3.04-.92 1.45-2.36 2.45-3.79 3.31-2.33 1.41-4.46.01-6.12-.67z" fill="#f8d2d5"/><path d="M74.04 88.22c-.88-1.31-2-2.53-3.41-3.33-1.36-.78-3.3-.98-4.84-1.12-3.59-.32-6.11.18-9.09 2.26-3.12 2.17-5.26 5.39-5.28 9.18-.02 3.74 1.26 7.21 3.16 10.41.7 1.18 1.8 2.33 3.1 2.98.68.34 1.35.48 2.02.5-.08-.24-.26-.48-.46-.74-.09-.11-.17-.23-.25-.34-.7-1.02-1.21-2.14-1.69-3.22-1.05-2.38-2.44-5.91-2.4-9.1.04-2.8.93-5.27 2.71-7.58.82-1.06 2.87-3.55 4.03-3.7.26-.04.5.16.54.44.03.28-.16.53-.42.56-.52.07-1.98 1.5-3.4 3.34-1.64 2.12-2.46 4.4-2.49 6.95-.04 2.98 1.3 6.37 2.31 8.66.45 1.03.95 2.11 1.6 3.05.07.1.15.2.22.3.22.3.48.63.61 1.03.03.1.03.19 0 .29.28-.04.55-.09.83-.15 1.07-.26 3.41.15 5.65.04-.06-.24.04-.49.26-.59.32-.16.76-1.41.95-1.95.08-.24.16-.46.22-.61.97-2.34 1.57-4.94 1.9-8.21.29-2.85-.02-5.42-.99-8.08-.41-1.13-.93-2.17-1.58-3.18l-.17-.26c-.53-.79-.68-1.03-.61-1.33.06-.27.31-.44.58-.38.19.05.33.21.36.4.07.15.33.53.46.72l.18.27a17.26 17.26 0 011.68 3.39c1.02 2.81 1.36 5.53 1.05 8.55-.34 3.37-.97 6.07-1.98 8.5-.06.14-.13.33-.2.56-.3.85-.58 1.6-.95 2.08.35-.05.7-.13 1.03-.22.49.56 1.52-.51 1.93-1 1.17-1.43 1.5-2.77 2.49-4.68 2.19-4.25 3.21-10.41.34-14.69z" fill="#4d9b90"/><path d="M61.47 85.17c-.65-1.25-2.62-2.27-1.89-4.1 1.43-.02 2.16 1.63 3.21 2.34.08-.78-.04-3.21 1.24-3.07 1.04.11 1.26 2.12 1.8 2.76.67-.52 1.17-1.74 2.07-1.87.36.59-.04 1.36.33 1.88.57-.29 1.92-1.62 2.53-.96.7.75-.79 2.58-1.25 3.01-.92.86-2.29 1.16-3.49 1.4-1.93.37-3.73-.68-4.55-1.39z" fill="#f8d2d5"/><path d="M33.51 93.58c-2.98-5.85-4.35-12.65-3.76-18.65.5-5 2.08-9.68 4.45-13.16.78-1.15 2.41-2.95 4.21-4.49-4.39 1.35-8.88 3.53-12.14 6.54-5.24 4.81-6.36 13.62-4.83 20.32 1.67 7.34 6.26 13.17 12.16 17.38 1.41 1 2.93 1.99 4.59 2.48 1.07.31 2.12.03 3.19-.14-2.97-2.79-6.52-7.63-7.87-10.28zm-9.33-9.48h-.03c-.35-.02-.61-.32-.6-.69.02-.4-.06-.88-.14-1.34-.09-.51-.18-1.03-.15-1.51.02-.36.33-.63.67-.61.35.02.61.34.58.7-.02.32.05.74.13 1.19.09.53.18 1.08.16 1.63-.01.36-.28.63-.62.63zm1.16-14.65h-.02c-.35-.01-.62-.32-.61-.68.03-.91.34-2.33.87-3.17.19-.3.58-.39.87-.19s.37.61.18.91c-.34.53-.64 1.67-.67 2.49-.01.36-.29.64-.62.64zm.81 7.22c0-.22-.01-.46-.02-.71-.03-.72-.07-1.54.16-2.24.11-.34.47-.53.8-.41s.5.49.39.84c-.15.45-.12 1.11-.09 1.74.01.27.03.53.03.77 0 .36-.28.66-.63.66s-.64-.28-.64-.65zm1.22 8.41c.31-.16.69-.03.84.3.4.86.82 1.8 1.18 2.79a.67.67 0 01-.37.85.57.57 0 01-.22.04c-.25 0-.49-.16-.59-.43-.34-.93-.74-1.84-1.13-2.67a.676.676 0 01.29-.88zm1.88 9.22a.615.615 0 01-.87-.18c-.3-.48-.84-1.41-1.05-2.34-.08-.35.13-.71.46-.79s.67.13.75.49c.12.53.44 1.22.88 1.91.19.3.11.71-.17.91zm4.32 5.01c-.08.03-.16.05-.24.05-.24 0-.48-.15-.58-.41-.13-.33-.35-.65-.59-.98-.15-.21-.3-.43-.42-.64a.69.69 0 01.2-.91c.29-.19.68-.1.86.21.11.19.24.37.37.56.27.39.55.78.73 1.26.14.34-.01.72-.33.86zM314.33 125.89c-3.11.58-6 1.8-8.93 3-2.09.86-4.12 1.8-6.08 2.92 1.24-1.47 2.27-3.1 2.97-4.88 1.72-4.33 2.09-9 2.87-13.57.38-2.26 1.09-4.56 1.36-6.81-.48.34-.84.91-1.27 1.33-1.37 1.36-2.98 2.48-4.47 3.69-3.79 3.09-6.54 6.62-9.18 10.79-.54.86-1.09 1.73-1.62 2.61-.75-6.07-2.27-11.91-4.42-17.61-1.14-3.01-2.45-5.94-3.58-8.96-.42-1.13-.71-2.39-1.24-3.45-.04 1.16-.51 2.28-.86 3.36-.85 2.59-1.5 5.19-2.14 7.84-1.21 5.08-2.34 10.43-2.94 15.74-2.28-2.72-4.74-5.27-7.29-7.71-2.84-2.72-6.34-6.73-10.27-7.53.22.85 1.24 1.82 1.69 2.66 1.5 2.79 2.43 6.03 3.38 9.06 1.06 3.38 2.28 6.54 3.98 9.63.48.87 1.12 1.59 1.72 2.34-.18-.16-.36-.32-.52-.47-1.8-1.69-3.85-3.11-6-4.27-2.33-1.26-4.71-2.33-7.07-3.55-1.14-.59-2.89-1.94-4.19-1.99 2.11 3.06 3.76 6.5 5.71 9.68 3.36 5.5 7.94 9.27 12.99 12.94 3.62 2.63 7.44 4.83 11.75 5.89.36.09.72.16 1.08.22.06.04.13.08.2.11.78.4 2.23.54 3.08.5.49-.02.91-.18 1.29-.39 1.46 1.07 4.4.52 5.78.26 4.91-.92 8.65-3.81 11.98-7.58 3.24-3.67 5.92-7.81 9.16-11.48 1.62-1.84 3.58-3.34 5.15-5.2-1.26.04-2.77.64-4.07.88zm-49.76-7.73c-.11.05-.22.08-.34.08-.29 0-.58-.17-.71-.47l-.13-.28c-.25-.56-.52-1.13-.69-1.73-.13-.44.11-.9.53-1.03s.85.12.98.55c.14.47.37.99.6 1.49l.13.28c.19.43.02.92-.37 1.11zm-4.99 12.03c-.15.23-.4.36-.65.36-.15 0-.31-.05-.44-.14-.29-.21-.61-.57-.91-.91-.12-.14-.24-.28-.35-.39a.852.852 0 010-1.17c.31-.32.8-.33 1.11 0 .12.13.25.28.4.44.21.24.49.56.64.67.35.25.45.76.2 1.14zm5.52 1.65a.74.74 0 01-.44.14c-.25 0-.5-.13-.65-.36-.22-.34-.56-.86-.91-1.21a.852.852 0 01-.04-1.17c.29-.33.79-.35 1.11-.04.45.43.81.97 1.14 1.49.25.38.15.9-.21 1.15zm4.69 6.59c-.16.19-.38.29-.6.29-.18 0-.36-.06-.51-.2-.26-.23-.48-.51-.67-.76-.17-.23-.34-.44-.49-.56-.35-.27-.42-.79-.16-1.16s.75-.44 1.1-.17c.31.24.54.54.77.84.15.19.3.39.47.54.34.31.38.83.09 1.18zm.19-16.33c-.03 0-.07.01-.1.01-.39 0-.72-.3-.78-.71-.06-.22-.5-.78-.69-1.01l.53-.63.61-.53c.6.76 1.04 1.36 1.11 1.95.05.45-.25.86-.68.92zm2.7 9.19c-.1.05-.21.07-.32.07-.3 0-.59-.18-.72-.49-.34-.79-.67-1.65-.82-2.52-.08-.45.2-.88.63-.97.43-.08.84.21.92.66.13.74.44 1.5.72 2.15.17.42-.01.91-.41 1.1zm12.43-13.67c.41-.15.86.08 1 .52.25.77.23 1.7.21 2.44-.01.45-.36.81-.79.81h-.02c-.44-.01-.78-.39-.77-.85.01-.58.03-1.38-.13-1.87-.13-.43.09-.9.5-1.05zm-6.95-2.58c-.03-.44-.07-.99.17-1.49.19-.41.66-.58 1.05-.38s.55.69.36 1.1c-.05.1-.03.43-.01.65.03.45.07.97-.17 1.44a.79.79 0 01-.7.44c-.12 0-.25-.03-.37-.1-.38-.21-.53-.71-.33-1.11.03-.08.01-.36 0-.55zm-.4 26.43c-.15.2-.38.31-.61.31-.17 0-.35-.06-.49-.18-.48-.41-.7-1.01-.87-1.49-.06-.17-.12-.33-.19-.48-.2-.41-.04-.9.34-1.11.39-.21.86-.05 1.06.36.09.2.18.42.26.65.11.31.24.67.39.79.33.27.39.79.11 1.15zm1.16-5.46c-.05.01-.1.01-.15.01-.37 0-.7-.28-.77-.67s-.21-.8-.36-1.22c-.11-.31-.22-.63-.31-.95-.12-.44.12-.9.54-1.02.42-.13.85.13.97.57.08.28.18.56.27.84.17.47.34.96.43 1.49.09.44-.19.87-.62.95zm1.52-8.37c-.07.02-.14.03-.21.03-.34 0-.66-.24-.76-.6-.18-.67-.19-1.43-.2-2.1-.01-.46.34-.88.77-.88h.01c.43 0 .78.32.78.77.01.66.02 1.3.14 1.77.14.43-.11.89-.53 1.01zm2.97-16.75c-.02.45-.37.8-.79.8h-.03c-.43-.02-.77-.4-.76-.86.02-.46-.01-1.51-.14-1.99-.12-.44.12-.9.54-1.02.42-.13.85.13.97.57.22.76.23 2.06.21 2.5zm2.62 30.28c-.09.34-.12.72-.15 1.13-.02.28-.04.57-.09.84-.06.41-.4.7-.78.7-.04 0-.08 0-.12-.01-.43-.07-.72-.49-.66-.94.03-.24.05-.48.07-.72.04-.47.07-.95.21-1.44.12-.44.55-.7.97-.57.43.12.67.57.55 1.01zm.63-8.11a.77.77 0 01-.7.45.73.73 0 01-.35-.09c-.39-.2-.55-.7-.36-1.11.08-.18.04-.81.03-1.15-.01-.23-.02-.44-.02-.63 0-.46.35-.83.79-.83.43 0 .79.37.79.83 0 .16.01.34.02.53.03.67.08 1.43-.2 2zm4.07 2.08c.26-.35.47-.96.65-1.5l.08-.24c.15-.43.59-.65 1.01-.5.41.15.62.63.47 1.06l-.08.23c-.22.66-.47 1.41-.9 1.98-.15.21-.39.31-.62.31-.17 0-.34-.06-.49-.18a.864.864 0 01-.12-1.16zm2.85 6.93c-.11.21-.21.44-.32.69-.28.64-.61 1.37-1.12 1.86-.15.14-.34.21-.53.21-.21 0-.43-.09-.58-.27a.853.853 0 01.06-1.17c.28-.26.53-.83.75-1.33.13-.28.25-.56.38-.8.21-.4.69-.54 1.07-.32.36.23.5.73.29 1.13zm1.93-18.26c-.23.65-.53 1.25-.73 1.64-.14.27-.41.42-.69.42a.67.67 0 01-.38-.11c-.38-.22-.51-.73-.3-1.12.25-.48.48-.98.63-1.41s.61-.64 1.01-.48c.41.16.61.64.46 1.06zm3.5-4.56c.07-.17.15-.34.23-.51.09-.2.19-.4.26-.6.14-.43.59-.65 1.01-.5.41.15.62.63.48 1.06-.09.27-.21.53-.34.79-.07.14-.14.28-.19.43-.13.31-.42.5-.72.5-.1 0-.21-.02-.31-.07a.865.865 0 01-.42-1.1zm-1.49 8.58c.39-.33.73-1.05 1-1.63l.08-.17c.19-.41.66-.57 1.06-.37.39.2.55.7.35 1.11l-.08.16c-.34.72-.76 1.62-1.41 2.17-.15.13-.32.19-.5.19-.23 0-.45-.1-.61-.3a.864.864 0 01.11-1.16zm2.88 8.98c-.24.4-.54.75-.82 1.09-.12.14-.24.29-.35.42-.15.2-.38.3-.61.3-.18 0-.35-.06-.5-.19a.843.843 0 01-.11-1.16l.38-.47c.24-.29.5-.6.68-.89.23-.38.72-.5 1.09-.25.36.26.47.77.24 1.15zm5.01.27c-.26.59-.67 1.03-1.04 1.42-.2.22-.41.44-.57.68-.15.23-.4.35-.65.35a.76.76 0 01-.45-.15c-.36-.26-.44-.78-.19-1.15.22-.33.48-.61.74-.88.3-.33.59-.63.74-.97.18-.41.65-.59 1.05-.4.38.19.55.68.37 1.1zm2.84-5.25c-.22.24-.49.43-.72.59-.13.09-.26.18-.37.28-.15.13-.33.19-.5.19-.23 0-.45-.1-.61-.3a.852.852 0 01.1-1.16c.15-.13.32-.25.49-.37.18-.13.37-.26.48-.38.3-.33.8-.33 1.11-.01.32.31.33.83.02 1.16z" fill="#1e5085"/><path d="M0 0h567v269H0z" fill="none"/></svg>