<svg viewBox="0 0 567 269" xmlns="http://www.w3.org/2000/svg"><path d="M534.86 127.82s-1.52 7.43-6 11.52c-.01 0 4.73 2.48 6 10.75 0-.16 2.33-8.74 5.75-10.73-.01-.01-5.08-4.62-5.75-11.54zM544.33 146.63s-.76 3.71-3 5.76c0 0 2.37 1.24 3 5.37 0-.08 1.17-4.37 2.87-5.37 0 .01-2.53-2.3-2.87-5.76zM528.06 155.42s-.61 2.98-2.4 4.62c0 0 1.9.99 2.4 4.31 0-.06.93-3.5 2.3-4.3 0 0-2.03-1.85-2.3-4.63zM181.38 77.92s-1.52 7.43-6 11.52c-.01 0 4.73 2.48 6 10.75 0-.16 2.33-8.74 5.75-10.73-.01-.01-5.07-4.62-5.75-11.54zM190.85 96.73s-.76 3.71-3 5.76c0 0 2.37 1.24 3 5.37 0-.08 1.17-4.37 2.87-5.37 0 .01-2.53-2.3-2.87-5.76zM174.58 105.52s-.61 2.98-2.4 4.62c0 0 1.9.99 2.4 4.31 0-.06.93-3.5 2.3-4.3 0 0-2.03-1.85-2.3-4.63z" fill="#f6b830"/><path d="M424.44 137.73c-.13.22-.5.36-.72.45-1.87.78-3.61 2.26-3.38 4.49.16 1.63 1.35 2.8 2.84 3.33 6.16 2.22 8.23-7.91 9-11.92.73-3.83 1.25-7.72 2.33-11.47.44-1.53.99-3.12 1.69-4.59.37-.77.78-1.52 1.25-2.23.35-.53 1.11-1.38-.01-1.54-2.3-.32-4.73.1-6.83 1.14-1.94.96-4.72 2.87-4.84 5.27-.11 2.11 1.86 3.66 3.86 3.46.39-.04 2.18-.63 2.33-.46.45.52-.35 1.73-.63 2.18-.57.92-1.32 1.66-2.25 2.22-1.63.98-3.71 1.42-5.56.89-2.35-.67-4.13-2.77-4.62-5.13-1.37-6.57 4.58-13.62 10.51-15.59 4.25-1.41 9.14-.94 13.31.52 1.03.36 1.73.3 2.71-.15 1.78-.82 4.23-1.63 6.13-.72 1.17.57 1.94 2.05 1.88 3.33-.01.13-.02.26-.08.38-.32.62-1.56-.12-1.99-.25-.96-.29-2.69-.62-3.41.32.31.28.68.5 1.03.73 2.54 1.64 4.96 3.5 6.46 6.18 2.75 4.92 3.04 11.76-.58 16.35-3 3.81-9.37 4.59-12.97 1.16-1.81-1.72-2.23-4.2-1.88-6.6.09-.64.62-4.06 1.77-3.54.75.34.94 1.44 1.34 2.08.36.59.85 1.14 1.42 1.53.65.44 1.47.57 2.23.38 2.21-.55 2.76-3.08 2.79-5.05.03-1.77-.33-3.57-1.19-5.13-.67-1.21-1.76-2.57-3.18-2.87-1.74-.36-2.83 1.23-3.67 2.59-3.06 4.94-4.03 10.43-4.56 16.11-.4 4.35-1.08 8.71-2.36 12.9-1.97 6.48-6.48 14.04-14.32 13.19-4.79-.52-8.47-3.98-9.83-8.52-.92-3.05-.85-6.51.28-9.5 1-2.64 3.12-4.72 5.68-5.86 1.71-.77 3.67-1.16 5.55-1.09.58.02 1.19.12 1.75.29.22.07.62.17.73.4.06.13.04.24-.01.34zM469.58 158.26c-.21-.43-.27-.98-.15-1.53.42-2.03 1.4-4.06 2.09-6.01.17-.48.34-.98.27-1.49-.14-.87-1.01-1.47-1.89-1.56-.87-.09-1.74.21-2.55.53l-.93.4c-2.85-1.66-6.59-1.69-9.46-.07s-4.78 4.84-4.82 8.14c-.02 1.43.32 2.92 1.23 4.02.5.6 1.16 1.07 1.87 1.4 2.7 1.26 6.22.44 8.08-1.89-.02 1.08 1.26 2.55 1.88 2.79 1.45.55 3.05.4 4.53-.14.75-.27 1.41-.75 1.94-1.33.39-.42.92-.97 1.12-1.52.39-1.12-.8-.78-1.61-.79-.78.01-1.32-.38-1.6-.95zm-5.42-4.96c-.02.17-.05.33-.08.47-.37 1.64-1.1 3.49-2.54 4.47-.52.35-1.19.58-1.77.36-1.35-.52-1.47-2.37-1.33-3.59.21-1.84 1.58-4.66 3.54-5.2 2.07-.57 2.38 1.92 2.18 3.49zM485.77 154.28c-.01-.01-.02-.01-.03-.02-1.27-.77-.48-1.7-.27-2.72.24-1.17-.53-2.27-1.79-1.82-2.86 1.03-4.21 5.06-3.75 7.83.37 2.18 2.51 3.47 4.61 3.56 1.97.08 3.56-.78 5.32-1.48.64.78-.99 1.99-1.54 2.37-2.45 1.69-5.59 2.54-8.56 2.07-1.56-.25-3.08-.96-4.09-2.17-2.53-3.02-1.31-7.28.84-10.13 2.48-3.29 6.75-5.37 10.85-4.08 2.23.7 3.12 4.23 1.58 5.97-.76.88-2.15 1.22-3.17.62z" fill="#82c7c5"/><path d="M450.18 156.99c-.25-.09-.74.22-1.05.34-1.63.66-3.17 1.23-4.96.96-1.49-.22-2.86-1.02-3.54-2.39.11.22 1.6.02 1.83-.01a7.12 7.12 0 001.57-.41c3.15-1.15 6.59-4.05 5.87-7.78-.56-2.95-3.82-3.41-6.32-2.96-2.69.49-5.1 2.16-6.73 4.32-2.15 2.85-3.37 7.11-.84 10.13 1.01 1.21 2.53 1.92 4.09 2.17 2.96.47 6.11-.38 8.56-2.07.58-.4 1.63-1.09 1.68-1.87.02-.26-.05-.39-.16-.43zm-6.15-9.97c.25-.08.51-.1.75-.02.63.19.91.91.89 1.52-.09 2.32-2.74 3.4-4.73 3.43-.25 0-.59-.04-.7-.3a.781.781 0 01-.03-.4c.21-1.54 1.4-2.78 2.66-3.59.33-.22.74-.51 1.16-.64zM505.68 160.75c-.25-.09-.74.22-1.05.34-1.63.66-3.17 1.23-4.96.96-1.49-.22-2.86-1.02-3.54-2.39.11.22 1.6.02 1.83-.01a7.12 7.12 0 001.57-.41c3.15-1.15 6.59-4.05 5.87-7.78-.56-2.95-3.82-3.41-6.32-2.96-2.69.49-5.1 2.16-6.73 4.32-2.15 2.85-3.37 7.11-.84 10.13 1.01 1.21 2.53 1.92 4.09 2.17 2.96.47 6.11-.38 8.56-2.07.58-.4 1.63-1.09 1.68-1.87.03-.26-.04-.39-.16-.43zm-6.14-9.97c.25-.08.51-.1.75-.02.63.19.91.91.89 1.52-.09 2.32-2.74 3.4-4.73 3.43-.25 0-.59-.04-.7-.3a.781.781 0 01-.03-.4c.21-1.54 1.4-2.78 2.66-3.59.32-.23.73-.51 1.16-.64z" fill="#82c7c5"/><path d="M423.65 136.36c-.13.22-.5.36-.72.45-1.87.78-3.61 2.26-3.38 4.49.16 1.63 1.35 2.8 2.84 3.33 6.16 2.22 8.23-7.91 9-11.92.73-3.83 1.25-7.72 2.33-11.47.44-1.53.99-3.12 1.69-4.59.37-.77.78-1.52 1.25-2.23.35-.53 1.11-1.38-.01-1.54-2.3-.32-4.73.1-6.83 1.14-1.94.96-4.72 2.87-4.84 5.27-.11 2.11 1.86 3.66 3.86 3.46.39-.04 2.18-.63 2.33-.46.45.52-.35 1.73-.63 2.18-.57.92-1.32 1.66-2.25 2.22-1.63.98-3.71 1.42-5.56.89-2.35-.67-4.13-2.77-4.62-5.13-1.37-6.57 4.58-13.62 10.51-15.59 4.25-1.41 9.14-.94 13.31.52 1.03.36 1.73.3 2.71-.15 1.78-.82 4.23-1.63 6.13-.72 1.17.57 1.94 2.05 1.88 3.33-.01.13-.02.26-.08.38-.32.62-1.56-.12-1.99-.25-.96-.29-2.69-.62-3.41.32.31.28.68.5 1.03.73 2.54 1.64 4.96 3.5 6.46 6.18 2.75 4.92 3.04 11.76-.58 16.35-3 3.81-9.37 4.59-12.97 1.16-1.81-1.72-2.23-4.2-1.88-6.6.09-.64.62-4.06 1.77-3.54.75.34.94 1.44 1.34 2.08.36.59.85 1.14 1.42 1.53.65.44 1.47.57 2.23.38 2.21-.55 2.76-3.08 2.79-5.05.03-1.77-.33-3.57-1.19-5.13-.67-1.21-1.76-2.57-3.18-2.87-1.74-.36-2.83 1.23-3.67 2.59-3.06 4.94-4.03 10.43-4.56 16.11-.4 4.35-1.08 8.71-2.36 12.9-1.97 6.48-6.48 14.04-14.32 13.19-4.79-.52-8.47-3.98-9.83-8.52-.92-3.05-.85-6.51.28-9.5 1-2.64 3.12-4.72 5.68-5.86 1.71-.77 3.67-1.16 5.55-1.09.58.02 1.19.12 1.75.29.22.07.62.17.73.4.06.13.04.24-.01.34zM468.79 156.89c-.21-.43-.27-.98-.15-1.53.42-2.03 1.4-4.06 2.09-6.01.17-.48.34-.98.27-1.49-.14-.87-1.01-1.47-1.89-1.56-.87-.09-1.74.21-2.55.53l-.93.4c-2.85-1.66-6.59-1.69-9.46-.07s-4.78 4.84-4.82 8.14c-.02 1.43.32 2.92 1.23 4.02.5.6 1.16 1.07 1.87 1.4 2.7 1.26 6.22.44 8.08-1.89-.02 1.08 1.26 2.55 1.88 2.79 1.45.55 3.05.4 4.53-.14.75-.27 1.41-.75 1.94-1.33.39-.42.92-.97 1.12-1.52.39-1.12-.8-.78-1.61-.79-.78 0-1.33-.38-1.6-.95zm-5.42-4.96c-.02.17-.05.33-.08.47-.37 1.64-1.1 3.49-2.54 4.47-.52.35-1.19.58-1.77.36-1.35-.52-1.47-2.37-1.33-3.59.21-1.84 1.58-4.66 3.54-5.2 2.07-.57 2.38 1.92 2.18 3.49zM484.97 152.91c-.01-.01-.02-.01-.03-.02-1.27-.77-.48-1.7-.27-2.72.24-1.17-.53-2.27-1.79-1.82-2.86 1.03-4.21 5.06-3.75 7.83.37 2.18 2.51 3.47 4.61 3.56 1.97.08 3.56-.78 5.32-1.48.64.78-.99 1.99-1.54 2.37-2.45 1.69-5.59 2.54-8.56 2.07-1.56-.25-3.08-.96-4.09-2.17-2.53-3.02-1.31-7.28.84-10.13 2.48-3.29 6.75-5.37 10.85-4.08 2.23.7 3.12 4.23 1.58 5.97-.75.88-2.14 1.22-3.17.62z" fill="#c14830"/><path d="M449.39 155.62c-.25-.09-.74.22-1.05.34-1.63.66-3.17 1.23-4.96.96-1.49-.22-2.86-1.02-3.54-2.39.11.22 1.6.02 1.83-.01a7.12 7.12 0 001.57-.41c3.15-1.15 6.59-4.05 5.87-7.78-.56-2.95-3.82-3.41-6.32-2.96-2.69.49-5.1 2.16-6.73 4.32-2.15 2.85-3.37 7.11-.84 10.13 1.01 1.21 2.53 1.92 4.09 2.17 2.96.47 6.11-.38 8.56-2.07.58-.4 1.63-1.09 1.68-1.87.02-.26-.05-.39-.16-.43zm-6.15-9.97c.25-.08.51-.1.75-.02.63.19.91.91.89 1.52-.09 2.32-2.74 3.4-4.73 3.43-.25 0-.59-.04-.7-.3a.781.781 0 01-.03-.4c.21-1.54 1.4-2.78 2.66-3.59.33-.22.74-.51 1.16-.64zM504.89 159.38c-.25-.09-.74.22-1.05.34-1.63.66-3.17 1.23-4.96.96-1.49-.22-2.86-1.02-3.54-2.39.11.22 1.6.02 1.83-.01a7.12 7.12 0 001.57-.41c3.15-1.15 6.59-4.05 5.87-7.78-.56-2.95-3.82-3.41-6.32-2.96-2.69.49-5.1 2.16-6.73 4.32-2.15 2.85-3.37 7.11-.84 10.13 1.01 1.21 2.53 1.92 4.09 2.17 2.96.47 6.11-.38 8.56-2.07.58-.4 1.63-1.09 1.68-1.87.03-.26-.04-.39-.16-.43zm-6.14-9.97c.25-.08.51-.1.75-.02.63.19.91.91.89 1.52-.09 2.32-2.74 3.4-4.73 3.43-.25 0-.59-.04-.7-.3a.781.781 0 01-.03-.4c.21-1.54 1.4-2.78 2.66-3.59.32-.23.73-.51 1.16-.64z" fill="#c14830"/><path d="M231.92 170.78c-.48-.63-1.06-1.26-1.09-2.04-.04-1 .85-1.97 1.84-2.08 1.87-.21 3.73-.17 5.61-.15 2.59.02 5.29-.31 7.84.28.39.09.79.21 1.08.49 1.04 1.04.37 3.03-.28 4.08-3.93 6.36-3.17 14.17-2.49 21.25.29 3.01.34 6.08 1.19 9 .54 1.88 2.26 3.33 3.23 4.99.6 1.03 1.01 2.16.42 3.29-.6 1.14-2.16 1.8-3.4 1.8-5.01 0-10.01.03-15.02-.03-.79-.01-1.51-.04-2.12-.59-.47-.43-.78-.98-.89-1.61-.21-1.28.34-2.63 1.13-3.61.63-.77 1.31-1.53 1.63-2.48.37-1.09.45-2.27.54-3.41.22-2.66-.06-5.27-.38-7.91-.15-1.22-.2-2.63-1.22-3.48-1.04-.87-2.63-.87-3.82-.32-1.61.75-2.36 2.48-2.81 4.1-.55 1.99-.77 4.14-.88 6.2-.09 1.72-.14 3.4.69 4.96.53.98 1.28 1.82 1.8 2.81.71 1.35.68 3.46-.49 4.52-1.1.99-2.53.86-3.92.87-1.88.02-4.07.01-5.95 0-1.97-.01-3.94-.01-5.91-.01-.9 0-1.81 0-2.71.01-.8.01-1.79.18-2.56-.07-.95-.3-1.22-1.36-1.3-2.26-.06-.73.24-1.44.62-2.07.97-1.64 2.42-2.95 3.34-4.62.97-1.74 1.46-3.86 1.66-5.83.27-2.61.57-5.29.68-7.9.12-2.71.44-5.41.68-8.11.27-3.09.77-5.83-1.42-8.35-.67-.77-1.44-1.48-1.83-2.43-.37-.9-.17-2.11.61-2.74.57-.46 1.34-.57 2.07-.63 4.18-.36 8.42-.29 12.6.05 1.27.1 2.61.46 2.89 1.9.44 2.22-1.68 3.9-2.23 5.9-.35 1.26-.22 2.73.65 3.71 2.35 2.61 8.83 1.68 10.71-1.07 1.44-2.1.63-4.54-.79-6.41zM278.05 210.62c.18-.12.34-.26.49-.41 1-1.06 1.08-2.69 1.07-4.06-.05-3.81-.43-7.61-1.14-11.35-.03-.17-.07-.34-.19-.46-.37-.36-.91.17-1.2.6-1.5 2.28-4.61 3.36-7.2 2.49s-4.42-3.6-4.25-6.32c.09-1.35.67-2.72 1.79-3.48s2.8-.73 3.7.27c.49.54.95 1.39 1.66 1.21.48-.12.69-.69.8-1.18.36-1.67.4-3.41.12-5.09-.12-.75-.61-1.69-1.34-1.5-.4.1-.62.5-.9.8-1.32 1.46-4.15.41-4.49-1.53s1.49-3.82 3.46-3.9c.83-.03 1.75.26 2.16.98.25.44.27.98.52 1.43.65 1.16 2.52.97 3.4-.02s1.04-2.41 1.17-3.72c.26-2.79.22-6.21-2.19-7.64-1-.59-2.13-1.18-3.31-1.22-1.4-.04-2.8-.03-4.21-.01-3.16 0-6.34.1-9.49.04-1.26-.02-2.52-.15-3.79-.11-1.83.06-4.29 1.29-3.62 3.54.41 1.39 1.43 2.18 2.57 3.07 1.34 1.04 1.77 2.77 1.84 4.46.2 5.28.16 10.57-.06 15.85-.11 2.53-.27 5.06-.44 7.59-.11 1.58-.22 3.16-.54 4.71-.3 1.43-1.07 2.71-1.35 4.12-.06.28-.07.58.03.85.62 1.68 4.21 1.11 5.53 1.11 4.6.01 9.2-.04 13.8-.06 1.85.01 4 .04 5.6-1.06zM296.49 196.53c-.78-3.24-.52-6.63-.51-9.94.01-3.69.03-7.38.04-11.07.01-2.53 1.31-2.93 2.53-4.84 3.41-5.37-10.41-4.29-12.68-3.8-1.44.31-2.97 1.09-2.7 2.79.18 1.1.94 2.07 1.53 2.99 3.76 5.93 2.14 17.48 1.15 24.26-.3 2.07-.88 2.72-1.72 4.64-.86 1.96-1.52 2.98-.98 5.2.71 2.87 3.1 4.28 5.71 4.58 4.87.55 10.13.02 15.04.28 1.2.06 2.42.12 3.58-.2 1.68-.48 2.35-1.92 2.95-3.41.86-2.18 1.55-4.51 1.58-6.87.03-2.33-.69-6.44-3.77-6.35-.86.02-1.68.37-2.4.84-1.21.8-2.25 1.9-3.39 2.81-.79.63-1.7 1.18-2.71 1.27-1.93.18-2.87-1.58-3.25-3.18zM328.79 196.62c-.78-3.24-.52-6.63-.51-9.94.01-3.69.03-7.38.04-11.07.01-2.53 1.31-2.93 2.53-4.84 3.41-5.37-10.41-4.29-12.68-3.8-1.44.31-2.97 1.09-2.7 2.79.18 1.1.94 2.07 1.53 2.99 3.76 5.93 2.14 17.48 1.15 24.26-.3 2.07-.88 2.72-1.72 4.64-.86 1.96-1.52 2.98-.98 5.2.71 2.87 3.1 4.28 5.71 4.58 4.87.55 10.13.02 15.04.28 1.2.06 2.42.12 3.58-.2 1.68-.48 2.35-1.92 2.95-3.41.86-2.18 1.55-4.51 1.58-6.87.03-2.33-.69-6.44-3.77-6.35-.86.02-1.68.37-2.4.84-1.21.8-2.25 1.9-3.39 2.81-.79.63-1.7 1.18-2.71 1.27-1.93.18-2.86-1.58-3.25-3.18zM380.39 176.21c-.12-.22-.25-.44-.39-.65-4.06-6.52-12.93-12.15-19.79-7.04-6.89 5.12-12.27 12.5-13.52 21.59-1.22 8.83 3.48 17.67 11.39 20.74 8.97 3.48 19.31-1.18 23.82-10.1 3.84-7.62 2.57-17.36-1.51-24.54zm-8.66 14.24c-1.76 3.72-5.25 5.45-8.01 3.73-2.44-1.52-3.65-5.44-2.96-9.19.71-3.87 2.7-6.9 5.09-8.92 2.38-2.02 5.04.63 6.13 3.53.04.1.07.19.1.29 1.07 3.18 1.15 7.39-.35 10.56z" fill="#82c7c5"/><path d="M310.26 224.24c-.29-.38-.65-.77-.67-1.25-.02-.61.52-1.2 1.12-1.27 1.14-.13 2.28-.1 3.42-.09 1.58.01 3.23-.19 4.78.17.24.06.48.13.66.3.64.64.22 1.84-.17 2.48-2.39 3.87-1.93 8.64-1.52 12.95.18 1.83.21 3.7.72 5.49.33 1.14 1.38 2.03 1.97 3.04.36.63.62 1.31.25 2s-1.32 1.1-2.07 1.1c-3.05 0-6.1.02-9.15-.02-.48-.01-.92-.03-1.29-.36-.29-.26-.48-.6-.54-.98-.13-.78.21-1.61.69-2.2.38-.47.8-.93.99-1.51.23-.67.27-1.38.33-2.08.14-1.62-.04-3.21-.23-4.82-.09-.74-.12-1.6-.74-2.12-.63-.53-1.61-.53-2.33-.2-.98.45-1.44 1.51-1.71 2.5-.34 1.21-.47 2.53-.54 3.78-.06 1.05-.09 2.07.42 3.03.32.6.78 1.11 1.1 1.71.43.82.42 2.11-.3 2.75-.67.61-1.54.52-2.39.53-1.15.01-2.48 0-3.63 0-1.2 0-2.4-.01-3.6 0-.55 0-1.1 0-1.65.01-.49 0-1.09.11-1.56-.04-.58-.18-.74-.83-.79-1.37-.04-.44.15-.88.37-1.26.59-1 1.47-1.8 2.04-2.81.59-1.06.89-2.35 1.01-3.55.17-1.59.35-3.23.42-4.81.07-1.65.27-3.29.41-4.94.17-1.88.47-3.55-.87-5.09-.41-.47-.88-.9-1.11-1.48-.22-.55-.11-1.29.37-1.67.35-.28.82-.35 1.26-.39 2.55-.22 5.13-.18 7.68.03.77.06 1.59.28 1.76 1.16.27 1.35-1.02 2.38-1.36 3.59-.21.77-.14 1.67.4 2.26 1.43 1.59 5.38 1.02 6.53-.65.88-1.29.39-2.78-.48-3.92zM334.79 241.16c.32 1.63.9 3.14 1.97 4.34.8.9 1.05 2.2.03 3.12-.67.61-1.54.52-2.39.53-1.9.02-3.8.02-5.7.02h-2.85c-.61 0-1.57.24-2.06-.23-.21-.21-.3-.51-.33-.81-.26-2.55 2.32-4.19 2.9-6.51.41-1.67.42-3.41.61-5.12.19-1.69.3-3.38.32-5.08.02-1.45.17-3.07-.33-4.45-.21-.6-.56-1.06-.88-1.6-.29-.5-.42-1.06-.64-1.6-.22-.55-.11-1.29.37-1.67.35-.28.82-.35 1.26-.39 2.55-.22 5.13-.18 7.68.03.77.06 1.59.28 1.76 1.16.23 1.14-.89 2.05-1.54 2.82-1.66 1.95-1.05 4.7-.81 7.02.27 2.53.08 5.64.63 8.42zM381.31 248.36c.11-.08.21-.16.3-.25.61-.64.66-1.64.65-2.48-.02-1.17-.02-2.34-.06-3.51-.04-1.09.09-2.51-.53-3.47-.31-.47-.69-.23-.94.15-.91 1.39-2.81 2.05-4.39 1.52s-2.7-2.19-2.59-3.85c.05-.82.41-1.66 1.09-2.12s1.7-.44 2.26.17c.3.33.58.85 1.01.74.3-.07.42-.42.49-.72.22-1.02.24-2.08.07-3.1-.08-.46-.37-1.03-.82-.91-.24.06-.38.3-.55.49-.8.89-2.53.25-2.74-.93s.91-2.33 2.11-2.38c.51-.02 1.07.16 1.32.6.15.27.16.6.32.87.39.7 1.53.59 2.07-.01s.64-1.47.71-2.27c.16-1.7.13-3.78-1.33-4.65-.61-.36-1.3-.72-2.02-.74-.85-.03-1.71-.02-2.56-.01-1.93 0-3.86.06-5.78.03-.77-.01-1.54-.09-2.31-.07-1.12.03-2.62.78-2.21 2.16.25.85.87 1.33 1.57 1.87.81.63 1.08 1.69 1.12 2.72.12 3.22.1 6.44-.04 9.66-.07 1.54-.16 3.09-.27 4.63-.07.96-.13 1.93-.33 2.87-.18.87-.65 1.65-.82 2.51-.03.17-.04.35.02.52.38 1.02 2.57.68 3.37.68 2.8.01 5.61-.02 8.41-.04 1.11-.03 2.42-.01 3.4-.68zM207.75 222.29c-.23.12-.45.26-.67.41-3.83 2.65-4.71 8.34-1.97 12.09.92 1.26 2.32 2.04 3.46 3.06.84.75 1.54 2.18.2 2.85-1.83.92-3.58-1.2-5.34-1.38-.22-.02-.46.02-.63.17-.54.46-.49 1.76-.43 2.38.07.86.34 1.69.74 2.46a8.866 8.866 0 003.53 3.65c5.86 3.31 13.67-.92 13.36-7.86-.14-3.09-1.97-5.87-4.73-7.25-1.78-.89-3.74-1.73-5.05-3.3-1.53-1.84-.84-4.65 2.1-3.83 1.41.39 1.58 2.12 3.13 2.1.75-.01 1.13-.58 1.27-1.24.25-1.11.55-2.45.03-3.53-.58-1.22-2-1.32-3.18-1.49-2.02-.31-4.02-.26-5.82.71zM278.44 222.41c-.23.12-.45.26-.67.41-3.83 2.65-4.71 8.34-1.97 12.09.92 1.26 2.32 2.04 3.46 3.06.84.75 1.54 2.18.2 2.85-1.83.92-3.58-1.2-5.34-1.38-.22-.02-.46.02-.63.17-.54.46-.49 1.76-.43 2.38.07.86.34 1.69.74 2.46a8.866 8.866 0 003.53 3.65c5.86 3.31 13.67-.92 13.36-7.86-.14-3.09-1.97-5.87-4.73-7.25-1.78-.89-3.74-1.73-5.05-3.3-1.53-1.84-.84-4.65 2.1-3.83 1.41.39 1.58 2.12 3.13 2.1.75-.01 1.13-.58 1.27-1.24.25-1.11.55-2.45.03-3.53-.58-1.22-2-1.32-3.18-1.49-2.03-.31-4.03-.26-5.82.71zM229.49 224.75c.12-.19.26-.36.41-.56.26-.35.37-.72.23-1.14-.3-.87-1.43-1.41-2.25-1.47-1.31-.09-2.7.02-4.02 0-.69-.01-1.45-.01-2.08.3-.42.2-.78.57-.86 1.02-.18.95.88 1.56 1.34 2.26.49.74.53 1.77.59 2.62.25 3.54.1 7.05-.01 10.59-.01.25-.02.5-.02.76-.06 2.04-.11 4.18.74 5.98 1.42 3.02 4.52 4.02 7.38 4.12 2.77.1 6.34.01 8.55-2.13 2.31-2.23 2.43-6.07 2.61-9.22.1-1.85.2-3.7.29-5.55.1-1.78.08-3.62.34-5.39.06-.44.15-.88.29-1.31.21-.6.63-1.12.8-1.73.26-.91-.02-2.03-1.14-2.2-1.71-.27-3.44-.11-5.16-.1-1.17.01-2.22.47-2 1.75.15.88.76 1.56 1.01 2.41.3 1.01.35 2.08.3 3.13-.1 2.28.26 6.38-2 7.81-1.51.95-4.18.63-5.34-.77-.75-.91-.82-2.21-.92-3.33-.21-2.33-.21-5.1.64-7.32.08-.2.17-.37.28-.53zM354.15 230.44c-1.12-1.57-1.92-3.38-2.79-5.07-.37-.72-.63-1.5-1.15-2.14-.72-.9-1.75-1.56-2.92-1.59-2.04-.05-3.34-.25-4.97.04-.63.11-1.56.15-2.03.61-.42.41-.62 1.08-.45 1.65.17.55.67.91 1.02 1.36.85 1.07.88 2.62 1.02 3.92.57 5.16.34 10.64-1.82 15.43-.36.8-2.15 2.59-1.42 3.45.24.28.6.41.95.51 1.91.53 3.91.65 5.89.64 1.26 0 2.53.1 3.78-.01 1.34-.12 3.22-.64 2.62-2.41-.23-.66-.74-1.18-1.22-1.69-1.43-1.49-1.81-3.59-1.83-5.59-.01-1.02.08-2.04.18-3.05.07-.74.1-2.02 1.02-1 1.79 2 2.94 4.42 4.16 6.78 1.03 1.99 2.18 3.77 3.66 5.44.45.5.95.97 1.56 1.25.84.38 1.99.28 2.67-.37.94-.89.64-2.46.64-3.62.02-5.71.03-11.42.03-17.12 0-.81.11-1.61.18-2.42.07-.79.87-1.45 1.02-2.23.08-.39-.22-1.17-.59-1.48-.19-.16-.46-.2-.69-.2-.39 0-.77.03-1.16.03-.51 0-1.03-.01-1.54-.01-1.34 0-2.67-.01-4.01-.05-.64-.02-1.31-.04-1.66.6-.52.97.16 1.95.74 2.7 1.31 1.72 3.13 4.07 2.37 6.4-.09.28-.23.55-.46.73-.69.56-1.49.08-1.98-.47-.29-.31-.56-.66-.82-1.02zM261.11 230.44c-1.12-1.57-1.92-3.38-2.79-5.07-.37-.72-.63-1.5-1.15-2.14-.72-.9-1.75-1.56-2.92-1.59-2.04-.05-3.34-.25-4.97.04-.63.11-1.56.15-2.03.61-.42.41-.62 1.08-.45 1.65.17.55.67.91 1.02 1.36.85 1.07.88 2.62 1.02 3.92.57 5.16.34 10.64-1.82 15.43-.36.8-2.15 2.59-1.42 3.45.24.28.6.41.95.51 1.91.53 3.91.65 5.89.64 1.26 0 2.53.1 3.78-.01 1.34-.12 3.22-.64 2.62-2.41-.23-.66-.74-1.18-1.22-1.69-1.43-1.49-1.81-3.59-1.83-5.59-.01-1.02.08-2.04.18-3.05.07-.74.1-2.02 1.02-1 1.79 2 2.94 4.42 4.16 6.78 1.03 1.99 2.18 3.77 3.66 5.44.45.5.95.97 1.56 1.25.84.38 1.99.28 2.67-.37.94-.89.64-2.46.64-3.62.02-5.71.03-11.42.03-17.12 0-.81.11-1.61.18-2.42.07-.79.87-1.45 1.02-2.23.08-.39-.22-1.17-.59-1.48-.19-.16-.46-.2-.69-.2-.39 0-.77.03-1.16.03-.51 0-1.03-.01-1.54-.01-1.34 0-2.67-.01-4.01-.05-.64-.02-1.31-.04-1.66.6-.52.97.16 1.95.74 2.7 1.31 1.72 3.13 4.07 2.37 6.4-.09.28-.23.55-.46.73-.69.56-1.49.08-1.98-.47-.29-.31-.56-.66-.82-1.02zM313.45 154.59c-5.47.15-10.94.01-16.41-.02-8.54-.04-17.09-.14-25.63-.16-1.71 0-3.43 0-5.14.01-.86 0-1.71.01-2.57.01-.85 0-1.95.25-1.91-.99.05-1.52.54-3.16.9-4.62 1.65-6.89 4.87-13.71 10.1-18.32 4.67-4.11 10.45-6.88 16.43-7.86 1.3-.21 2.61-.34 3.92-.36 11.24-.22 22.08 5.7 28.57 18.11.33.62.64 1.26.93 1.91.85 1.88 1.51 3.89 1.97 5.99.26 1.19 1.33 5.27.38 5.83-.71.43-2.03.24-2.82.29-.95.06-1.91.09-2.87.11-1.94.04-3.9.02-5.85.07z" fill="#f6b830"/><path d="M298.94 118.54c-.09.4-.57 1.37-.28 1.74.26.34 1.24.36 1.62.42 1.34.2 2.42.54 3.84 1.01.74.21 3.79-9.55 4.13-10.48 4.01-10.84 7.77-21.78 12.04-32.52.31-.79 4.36-10.11 3.88-10.29-3.33-1.22-6.62-1.28-10.1-1.89-1.01-.18-1.7-.19-3.01-.5-2.08-.5-2.89-.64-3.12 1.57-.21 1.97-.41 3.94-.62 5.91-1.61 15.22-5.07 30.12-8.38 45.03zM288.24 118.6c.09.4.56 1.38.27 1.75-.26.34-1.24.35-1.62.4-1.34.19-2.43.52-3.85.98-.74.21-3.72-9.58-4.06-10.51-3.93-10.87-7.61-21.83-11.8-32.6-.31-.79-4.29-10.14-3.8-10.32 3.33-1.19 6.62-1.23 10.12-1.82 1.01-.17 1.7-.18 3.01-.48 2.09-.48 2.89-.62 3.11 1.6.19 1.97.39 3.94.58 5.92 1.49 15.22 4.84 30.14 8.04 45.08zM321.49 132.09c-.33.24-1.38.56-1.44 1.02-.06.42.61 1.13.84 1.44.8 1.09 1.32 2.1 1.98 3.44.36.67 9.47-4 10.36-4.41 10.53-4.75 20.96-9.75 31.61-14.25.78-.33 10.27-3.99 10.05-4.46-1.47-3.22-3.73-5.61-5.74-8.53-.58-.84-1.06-1.35-1.75-2.49-1.11-1.83-1.86-3.57-3.6-2.18-4.81 3.83-9.55 7.76-14.52 11.39-5.04 3.68-10.25 7.13-15.44 10.59-2.23 1.49-4.46 2.97-6.68 4.47-1.92 1.3-3.79 2.63-5.67 3.97z" fill="#c14830"/><path d="M347.45 80.64c-1.26-.7-2.52-1.4-3.79-2.1-.05-.03-.1-.06-.15-.08-2.59-1.43-5.18-2.87-7.77-4.3-.86-.48-1.72-.95-2.57-1.43-.12-.07-.24-.15-.36-.2-.31-.13-.33-.11-.52.24-1.32 2.46-2.87 5.13-4.02 7.67-4.73 10.55-8.81 18.68-14.46 29.55-1.2 2.3-3.38 6.07-4.69 8.32-.43.73-.86 1.47-1.29 2.2-.21.36-.42.71-.62 1.07-.2.35-.4.49-.03.73 1.22.85 2.43 1.7 3.65 2.55l.9.63c.24.17.43.42.68.27.2-.12.32-.36.45-.55.62-.94 1.4-1.78 2.06-2.7l.01-.01.66-.84c5.74-7.48 11.3-15.12 17.16-22.52 2.74-3.47 5.19-6.28 7.78-9.23 1.9-2.17 3.84-4.32 5.61-6.6.55-.71 1.08-1.42 1.6-2.16.04-.06.08-.12.09-.18-.01-.18-.27-.26-.38-.33zM381.72 134.9c.24-2.96-1.72-6.14-2.52-8.88-.55-1.89-1.47-5.26-2.92-6.75-.39-.4-1.13.02-1.66.26-8.41 3.82-16.8 7.7-25.31 11.27-3.34 1.4-6.71 2.73-10.1 4-2.41.9-7.17 2.9-9.62 3.69-.8.26-1.73.51-2.53.76-.39.12-.79.25-1.18.38-.38.12-1.22.31-1.13.73.19.84.51 1.66.77 2.48.46 1.47.69 1.72.84 2.65.17 1.03.62 1.13 1.55.89 1.08-.28 1.56-.39 2.64-.63h.01c.35-.06.69-.12 1.04-.19 14.45-2.72 28.83-6.44 43.4-8.19 1.67-.2 3.34-.4 4.99-.78.35-.08.71-.17 1-.38.48-.34.69-.8.73-1.31z" fill="#82c7c5"/><path d="M362.92 96.25l-.03-.03c-.34-.43-.82-.8-1.21-1.19-3.65-3.63-6.13-5.91-9.59-9.73-.79-.87-1.78-1.61-2.72-.56-1.88 2.11-3.33 4.52-5.14 6.68-4.81 5.72-9.72 11.34-14.57 17.02-4.79 5.6-9.3 11.46-14.21 16.95-.28.32-1.05.88-1.13 1.3-.13.66.95 1.56 1.34 2.01.67.78 1.35 1.56 2.02 2.34.32.37.62.48 1.04.14 3.48-2.82 7.25-6.03 10.85-8.68 11.68-8.59 19.72-16.06 31.32-23.13.84-.51 2.65-1.72 2.12-2.94a.508.508 0 00-.09-.18zM384.69 153.32c.21-.8.06-1.86.05-2.55-.03-2.19-.07-4.39-.1-6.58-.01-.78-.04-1.6-.43-2.27-1.06-1.77-5.12-.53-6.68-.32-7.9 1.05-15.83 2-23.68 3.35-7.65 1.32-15.1 2.21-22.93 3.21-.87.11-3.53.24-3.52 1.4.01 1.05.02 3.48.59 4.43.52.86 1.95.42 2.75.42 15.86.03 31.74.42 47.59.03 1.03-.03 3.33.06 5.02 0 .81-.03 1.18-.5 1.34-1.12z" fill="#f6b830"/><path d="M264.82 132.09c.33.24 1.38.56 1.44 1.02.06.42-.61 1.13-.84 1.44-.8 1.09-1.32 2.1-1.98 3.44-.36.67-9.47-4-10.36-4.41-10.53-4.75-20.97-9.75-31.61-14.25-.78-.33-10.27-3.99-10.05-4.46 1.47-3.22 3.73-5.61 5.74-8.53.58-.84 1.06-1.35 1.75-2.49 1.11-1.83 1.86-3.57 3.6-2.18 4.81 3.83 9.55 7.76 14.52 11.39 5.04 3.68 10.25 7.13 15.44 10.59 2.23 1.49 4.46 2.97 6.68 4.47 1.92 1.3 3.79 2.63 5.67 3.97z" fill="#c14830"/><path d="M241 79.58c1.28-.66 2.57-1.32 3.85-1.98.05-.03.1-.05.15-.08 2.63-1.35 5.27-2.71 7.9-4.06.87-.45 1.74-.9 2.62-1.35.12-.06.24-.14.37-.19.31-.12.33-.1.51.26 1.24 2.5 2.71 5.21 3.78 7.79 4.4 10.69 8.23 18.95 13.55 29.98 1.13 2.34 3.19 6.17 4.43 8.46.41.75.81 1.49 1.22 2.24.2.36.39.72.59 1.09.19.35.39.5.01.73-1.24.81-2.48 1.62-3.73 2.43-.3.2-.61.4-.92.6-.25.16-.45.41-.68.25-.2-.13-.31-.37-.43-.56-.59-.96-1.34-1.83-1.97-2.76l-.01-.01c-.21-.29-.43-.57-.63-.86-5.51-7.66-10.83-15.46-16.45-23.04-2.63-3.55-4.99-6.43-7.49-9.47-1.83-2.23-3.71-4.44-5.41-6.77a48.21 48.21 0 01-1.53-2.21c-.04-.06-.08-.12-.08-.19-.03-.17.23-.24.35-.3zM204.82 134.62c-.24-2.96 1.72-6.14 2.52-8.88.55-1.89 1.47-5.26 2.92-6.75.39-.4 1.13.02 1.66.26 8.41 3.82 16.8 7.7 25.31 11.27 3.34 1.4 6.71 2.73 10.1 4 2.41.9 7.17 2.9 9.62 3.69.8.26 1.73.51 2.53.76.39.12.79.25 1.18.38.38.12 1.22.31 1.13.73-.19.84-.51 1.66-.77 2.48-.46 1.47-.69 1.72-.84 2.65-.17 1.03-.62 1.13-1.55.89-1.08-.28-1.56-.39-2.64-.63h-.01c-.35-.06-.69-.12-1.04-.19-14.45-2.72-28.83-6.44-43.4-8.19-1.67-.2-3.34-.4-4.99-.78-.35-.08-.71-.17-1-.38-.48-.34-.69-.79-.73-1.31z" fill="#82c7c5"/><path d="M223.75 96.25l.03-.03c.34-.43.82-.8 1.21-1.19 3.65-3.63 6.13-5.91 9.59-9.73.79-.87 1.78-1.61 2.72-.56 1.88 2.11 3.33 4.52 5.14 6.68 4.81 5.72 9.72 11.34 14.57 17.02 4.79 5.6 9.3 11.46 14.21 16.95.28.32 1.05.88 1.13 1.3.13.66-.95 1.56-1.34 2.01-.67.78-1.35 1.56-2.02 2.34-.32.37-.62.48-1.04.14-3.48-2.82-7.25-6.03-10.85-8.68-11.68-8.59-19.72-16.06-31.32-23.13-.84-.51-2.65-1.72-2.12-2.94.02-.07.06-.13.09-.18zM285.35 63.32h.04c.54-.04 1.14.04 1.69.06 5.15.16 8.51.39 13.66.27 1.18-.03 2.4.19 2.28 1.59-.24 2.81-1 5.52-1.31 8.32-.84 7.42-1.55 14.85-2.34 22.28-.78 7.33-1.93 14.63-2.53 21.97-.03.42.08 1.37-.16 1.71-.38.55-1.78.38-2.38.41-1.03.05-2.06.09-3.09.14-.49.02-.77-.12-.81-.66-.35-4.46-.61-9.41-1.16-13.85-1.79-14.39-1.9-25.36-4.74-38.65-.21-.97-.57-3.11.68-3.56.05 0 .11-.02.17-.03zM201.79 152.98c-.21-.8-.06-1.86-.05-2.55.03-2.19.07-4.39.1-6.58.01-.78.04-1.6.43-2.27 1.06-1.77 5.12-.53 6.68-.32 7.9 1.05 15.83 2 23.68 3.35 7.65 1.32 15.1 2.21 22.93 3.21.87.11 3.53.24 3.52 1.4-.01 1.05-.02 3.48-.59 4.43-.52.86-1.95.42-2.75.42-15.86.03-31.74.42-47.59.03-1.03-.03-3.33.06-5.02 0-.81-.03-1.18-.5-1.34-1.12z" fill="#f6b830"/><path d="M527.52 199.87c.76-.43 1.43-.71 2.31-.84s2.72-.93 3.22-.27c.77 1.01-.56 3.07-1.38 4.36-3.38 5.31-9.38 8.84-15.46 11.4-.74.31-1.56.62-2.35.44-1.05-.24-1.1-1.26-1.1-2.13 0-.54.41-.88.75-1.29.41-.5.83-.99 1.26-1.47 1.74-1.93 3.63-3.73 5.67-5.38 2.22-1.8 4.59-3.41 7.08-4.82zM504.85 208.14c-.16-3.6-1.96-7.03-2.36-10.62-.24-2.12-.84-4.15-2.03-5.98-.41-.63-.9-1.21-1.46-1.7-.38-.46-1.03-1.08-1.56-1.36-.33-.17-.7-.26-1.07-.34-.91-.19-1.82-.35-2.74-.46-.07-.01-.15-.02-.21.02-.07.04-.11.11-.14.19-.53 1.24-.98 2.52-.92 3.86.01.22.06.46.13.69l.06.36c.68 3.64 2.27 7.1 4.58 10 1.23 1.55 2.68 2.96 3.55 4.74.6 1.24.85 3.51 2.7 3.17 1.29-.24 1.52-1.44 1.47-2.57zM533.18 234.89c.51.44 1.08 1.04.85 1.52-.12.26-.46.39-.78.48-2.38.62-5.33-.19-7.71-1.58s-4.31-3.29-6.2-5.16c-1.51-1.5-3.02-3-4.54-4.49-.37-.37-.76-.76-.9-1.21-.17-.55-.68-.59-.56-1.09.15-.59-.1-.76-.25-1.28-.14-.51.49-.76.86-.88.17-.05.46-.18.63-.15.29.05.7.45.95.61 1.25.82 2.48 1.66 3.71 2.51 2.44 1.69 4.84 3.45 7.19 5.27 2.31 1.75 4.55 3.58 6.75 5.45z" fill="#ffce36"/><path d="M500.14 216.33c-1.12-1.54-2.84-2.51-4.53-3.4-4.18-2.21-8.53-4.23-13.16-5.14-1.14-.23-2.48-.33-3.32.47-.62.59-2.09 1.28-2.22 2.13-.18 1.1.96 2.52 1.51 3.5.34.59.9 1.02 1.44 1.43 1.39 1.03 2.84 2.05 4.49 2.6 1.98.65 4.11.58 6.2.59 2.42.01 4.83.15 7.23.41.73.08 1.5.16 2.16-.16s1.1-1.2.69-1.8" fill="#f6b830"/><path d="M502.75 218.94c-2.38-1.4-5.23-1.76-7.99-1.74-3.36.03-6.59.47-9.89-.01-.67-.1-1.43-.01-2.09.08-1.61.2-3.1.68-4.38 1.7-.77.61-1.45 1.32-2.08 2.06-.41.49-1.59 1.48-1.12 2.12.77 1.06 2.3 2.5 3.66 2.13 3.78-1.02 7.37-2.65 11.2-3.52 3.99-.91 8.18-.94 12.24-1.3.46-.04 1.04-.19 1.1-.65.04-.38-.32-.67-.65-.87z" fill="#ffce36"/><path d="M507.68 222.58c1.82 2.07 2.71 4.81 3.2 7.52.6 3.3.76 6.56 1.86 9.71.22.64.27 1.4.32 2.07.1 1.62-.09 3.17-.85 4.62-.46.87-1.03 1.67-1.64 2.43-.4.49-1.16 1.83-1.87 1.5-1.19-.56-2.89-1.8-2.78-3.2.3-3.9 1.23-7.74 1.37-11.66.15-4.09-.6-8.21-1-12.27-.05-.46-.01-1.06.43-1.2.35-.11.71.19.96.48zM501.46 209.16c-1.16-4.51-5.26-7.55-7.89-11.38-.68-1-1.28-2.07-2.12-2.93-.8-.83-1.63-1.74-2.77-1.73-.49-.2-1.25-.08-1.76-.19-.11-.02-.23-.04-.32.02-.05.03-.08.08-.1.13-.57 1.03-.7 2.29-.36 3.42.03.09.06.17.09.26.13.94.54 1.88.99 2.72 2.19 4.04 5.62 7.23 8.99 10.35 1.32 1.22 2.67 2.47 4.31 3.22l.64-.15c.68-1.1.62-2.49.3-3.74zM517.73 217.13c4.6.72 9.01-1.84 13.58-2.73 1.19-.23 2.4-.36 3.53-.78 1.07-.41 2.25-.8 2.68-1.86.38-.37.56-1.12.87-1.54.07-.09.13-.2.11-.31-.01-.06-.05-.1-.08-.15a4.465 4.465 0 00-3-1.68c-.09-.01-.18-.01-.27-.02-.92-.25-1.93-.25-2.89-.16-4.57.41-8.87 2.29-13.06 4.15-1.65.73-3.33 1.48-4.67 2.68l-.12.65c.75 1.04 2.06 1.55 3.32 1.75zM508.04 196.24c-.03-2.13-.11-4.38-.97-6.24-.25-.72-.56-1.43-1.05-1.97-.59-.65-1.48-1.03-2.28-.75-.24.08-.46.22-.7.27-.24.04-.48-.01-.72.01-.24.01-.5.11-.61.34-.07.15-.07.34-.06.51.08 1.33.15 2.65.23 3.98-.42 5.7 1.14 11.11 2.69 16.6l.25.47c.4.71 1.6.25 2.14-.35s.69-1.49.79-2.32c.4-3.5.35-7.03.29-10.55z" fill="#f6b830"/><path d="M516.9 193.3c-.04-.76-.17-1.51-.36-2.24-.08-.68-.18-1.35-.28-2.01-.06-.41-.13-.83-.35-1.18-.27-.43-.73-.7-1.18-.95-.65-.37-1.38-.76-2.12-.6-.11.02-.22.06-.32.09-.32.03-.65.08-.96.14-.27-.06-.53-.17-.8-.14-.44.05-.72.44-.91.87l-.01.01c-.26.33-.35.76-.42 1.17l-.12.71c-.2.85-.34 1.72-.42 2.59-.34 2.24-.63 4.5-.91 6.75-.26 2.09-.53 4.18-.66 6.28-.16 2.45-.14 4.91-.23 7.36l.94-.19c.6-.05 1.27-.13 1.66-.59.25-.3.32-.71.42-1.09.54-2.06 2.05-3.7 3.16-5.52.68-1.12 1.22-2.33 1.76-3.53 1.1-2.54 2.24-5.18 2.11-7.93z" fill="#f9d742"/><path d="M509.62 210.86c.66-2.46 1.63-4.83 2.9-7.04.82-1.43 1.76-2.8 2.58-4.24 1.08-1.91 1.93-3.95 3.13-5.79s2.83-3.5 4.92-4.18c.42-.13.96-.19 1.21.17.12.17.13.38.14.59.21 5.16-2.63 9.89-5.37 14.26-1.43 2.28-2.87 4.57-4.69 6.55-.51.55-1.08 1.09-1.8 1.3-1.25.35-2.69-.63-2.83-1.92" fill="#f6b830"/><path d="M482.06 197.87c-.74-.01-2.41-.13-2.99.33-.73.58-.07 1.83.02 2.76.16 1.78 1.23 3.33 2.38 4.7 3.32 3.93 7.6 7.04 12.37 8.98 2.12.86 4.36 1.49 6.65 1.57.12 0 .25 0 .35-.05.17-.09.23-.3.26-.49.18-1.36-.88-2.54-1.89-3.48a60.501 60.501 0 00-3.55-3.04c-1.11-.88-2.18-2-3.22-2.96-.96-.9-1.43-1.69-2.19-2.76-.53-.75-1.1-1.35-1.59-2.13-.21-.33-.8-.83-1.03-1.13-.24-.31-.64-.56-.96-.78a8.324 8.324 0 00-4.61-1.52zM540.6 224.35c.64-.36 2.15-1.11 2.41-1.8.34-.87-.87-1.61-1.41-2.37-1.03-1.46-2.75-2.26-4.43-2.85a31.966 31.966 0 00-15.21-1.5c-2.26.33-4.52.91-6.53 2-.11.06-.22.12-.28.22-.1.16-.05.38.02.55.54 1.26 2.04 1.75 3.38 2.05 1.52.34 3.06.61 4.6.83 1.4.2 2.89.62 4.27.93 1.29.29 2.08.74 3.28 1.28.84.38 1.63.62 2.45 1.04.34.18 1.11.32 1.46.46.36.14.84.16 1.23.19 1.65.12 3.33-.23 4.76-1.03z" fill="#f9d742"/><path d="M500.09 248.13c.4.62 1.25 2.07 1.96 2.28.89.28 1.55-.97 2.27-1.57 1.38-1.13 2.07-2.89 2.55-4.61a31.99 31.99 0 00.47-15.28c-.48-2.24-1.22-4.45-2.44-6.38-.06-.1-.14-.21-.24-.26-.17-.09-.38-.02-.55.06-1.22.62-1.61 2.16-1.81 3.52-.23 1.54-.4 3.09-.51 4.65-.1 1.41-.42 2.93-.64 4.33-.2 1.3-.59 2.13-1.05 3.36-.32.86-.5 1.67-.87 2.51-.15.35-.24 1.13-.36 1.49-.12.37-.1.85-.11 1.24-.03 1.64.43 3.28 1.33 4.66z" fill="#ffce36"/><path d="M485.47 241.58c.44.25 1.06.03 1.51-.09 1.05-.27 2.62-1.53 3.47-2.27 3.5-3.07 3.42-4.72 5.41-7.97.59-.96.86-2.22 1.58-3.08a33.88 33.88 0 005.07-8.18c.21-.47.22-1.25-.3-1.25-.13 0-.25.07-.37.13-5.5 3.07-10.2 7.37-14.83 11.65-1.06.98-1.99 2.12-2.22 3.58-.18 1.15-.16 2.37-.16 3.53 0 1.21.09 2.44.53 3.58.08.18.19.29.31.37z" fill="#f9d742"/><path d="M503.66 218.24c-4.61-.56-9.23.75-13.65 2.16-2.27.72-4.54 1.49-6.69 2.53-1.06.51-2.11 1.09-3.06 1.78-.84.61-1.87 1.15-2.28 2.16-.22.53-.29 1.1-.37 1.67-.07.49-.13.98-.2 1.46-.04.29-.08.59 0 .87.4 1.45 2.11 1.67 3.38 1.7 1.67.04 3.06-.12 4.5-1.01 1.27-.79 2.31-1.82 3.47-2.75s2.35-1.85 3.55-2.74c2.33-1.7 4.71-3.33 7.08-4.97 1.47-1.02 2.92-1.59 4.35-2.67M503.04 229.22c.12-1.43.44-2.8.6-4.22.09-.78.36-1.78.23-2.04-.18-.4-.05-1.2-.65-1.17-1.54.07-2.81 2.23-3.4 3.33-.83 1.54-2.29 3.21-3.28 4.93-1.61 2.81-2.85 5.2-4.95 7.66-.57.68-1.2 1.51-1.29 2.39-.08.7-.26.79-.22 1.49.06.98-.3 2.55-.25 3.52.05.98.69 1.48 1.67 1.55.63.05 2.14-.82 2.63-1.22 3.62-2.92 4.51-6.17 6.74-10.26.47-.86.67-1.53.95-2.47.29-.91 1.14-2.52 1.22-3.49z" fill="#f6b830"/><path d="M508.07 221.98c2.01 3.11 2.69 6.42 3.15 10.14.62 5 .66 10.47 3.76 14.77.48.67 2.37 1.42 3.01 1.94 1.69 1.38 1.77-3.43 1.65-5.09-.21-2.76-1.57-5.27-2.56-7.8-1.55-3.94-3.01-7.95-4.96-11.71-.71-1.36-1.99-2.58-3.53-2.6" fill="#f9d742"/><path d="M515.98 226.06c-1.22-1.37-2.38-2.81-3.82-3.97-.35-.28-.72-.55-1.1-.79-.36-.22-.6-.5-.78-.03-.2.55.29 1.39.46 1.9.29.82.66 1.6 1.07 2.36.81 1.51 1.78 2.92 2.59 4.43 1.15 2.13 2.15 4.34 3.02 6.6.79 2.05 1.28 3.32 2.64 5.1 1.12 1.47 2.64 3.09 4.44 3.46 1.25.26 3.31 1.69 4.17.76 1.15-1.24-.34-4.53-1.09-6.04-1.11-2.24-2.31-3.69-3.97-5.51-2.52-2.78-5.14-5.47-7.63-8.27zM536.3 225.98c.69.36 1.38.74 1.92 1.3s1.78 2.27 1.65 3.04c-.16.94-1.37 1.05-2.13 1.62-.57.44-1.67.53-2.39.6-.6.06-1.19-.15-1.75-.37-3.65-1.37-7.32-2.75-10.62-4.83-2.27-1.43-4.35-3.18-6.77-4.36-.8-.39-1.64-.74-2.34-1.3-.27-.22-.74-.6-.83-.96-.28-1.22 5.27-.57 5.94-.49 2.26.27 4.5.75 6.69 1.38 3.7 1.08 7.24 2.6 10.63 4.37z" fill="#f6b830"/><path d="M512.06 221.51l.13-.13c.01-.01.01-.01 0-.02s-.02-.01-.03 0c-.02 0-.03 0-.05.01-.01 0-.03.01-.04.02l-.13.13c-.01.01-.01.01 0 .02s.02.01.03 0c.02 0 .03 0 .05-.01.01 0 .03-.01.04-.02zM514.13 219.36c.17 0 .22-.22.02-.22-.16 0-.22.22-.02.22zM511.4 218.16c.08-.04.17-.09.25-.13.01-.01.03-.02.03-.03s.01-.02 0-.03c-.02-.02-.06-.02-.09-.01-.08.04-.17.09-.25.13-.01.01-.03.02-.03.03s-.01.02 0 .03c.03.03.07.02.09.01zM511.78 214.77c.07 0 .33-.12.19-.12-.07 0-.33.12-.19.12zM513.96 213.76c.09 0 .31-.13.12-.13-.09.01-.32.13-.12.13zM514.81 216.53c.06 0 .33-.12.19-.12-.07 0-.34.12-.19.12zM509.74 220.52c.1 0 .31-.15.12-.15-.11 0-.32.15-.12.15z" fill="#58594c"/><g fill="#82271d"><path d="M495.12 217.58c1.14.28 2.32.3 3.47.05.07-.01.05-.08-.02-.06-1.12.24-2.27.22-3.38-.06-.04 0-.14.06-.07.07zM494.55 206.14c2.08 2.01 4.22 3.95 6.42 5.84.03.02.13-.02.11-.04-2.19-1.88-4.34-3.83-6.42-5.84-.03-.03-.14.01-.11.04zM487.02 208.2c3.93 3.63 8.64 6.35 13.75 7.95.05.02.13-.06.07-.08-5.1-1.6-9.8-4.32-13.73-7.94-.04-.03-.14.03-.09.07zM488.8 214.55a27.85 27.85 0 0010.24 1.95c.06 0 .09-.08.01-.08-3.49-.01-6.94-.67-10.19-1.95-.04-.01-.13.06-.06.08zM491.93 222.02c2.52-.41 4.99-1.07 7.38-1.96.08-.03.01-.06-.04-.04-2.37.88-4.82 1.53-7.32 1.94-.05.01-.1.07-.02.06zM497.45 231.79c1.29-3.16 2.93-6.16 4.89-8.96.03-.04-.09-.02-.1 0-1.96 2.8-3.61 5.81-4.9 8.97-.01.04.1.02.11-.01zM509.33 223.18c2.03 3.05 3.26 6.57 3.55 10.22 0 .03.12.01.11-.03-.3-3.65-1.52-7.17-3.55-10.22-.02-.03-.12.01-.11.03zM508.15 223.93c.75 2.03 1.22 4.14 1.38 6.3 0 .05.12.02.11-.03-.16-2.16-.63-4.27-1.38-6.3-.02-.05-.13-.02-.11.03zM511.79 223.5c1.69 1.9 3.07 4.05 4.06 6.4.02.05.13.01.11-.03-.99-2.35-2.37-4.51-4.07-6.42-.02-.04-.13.01-.1.05zM512.99 220.63c2.45 3.04 5.14 5.87 8.05 8.46.03.03.14-.02.11-.04-2.91-2.6-5.6-5.43-8.05-8.46-.03-.04-.14 0-.11.04zM515.86 220.25c1.2.77 2.53 1.32 3.92 1.65.05.01.13-.06.07-.08-1.38-.32-2.7-.87-3.89-1.64-.05-.03-.15.03-.1.07zM516.88 219.08c1.38.38 2.81.52 4.24.42.06 0 .09-.09.01-.08-1.41.1-2.82-.04-4.19-.42-.05-.01-.13.06-.06.08zM515.56 217.01c3.49 1.31 7.26.91 10.88.48.03 0 .12-.05.05-.04-3.6.42-7.35.83-10.82-.48-.03-.01-.11.04-.11.04zM516.48 215.42a17.34 17.34 0 007.15-2.63c.05-.03-.07-.02-.09 0a17.02 17.02 0 01-7.01 2.59c-.03 0-.13.05-.05.04zM514.76 212.24c2.7-1.68 5.39-3.36 8.08-5.04.07-.04-.03-.08-.08-.05-2.7 1.68-5.39 3.36-8.08 5.04-.06.04.03.08.08.05zM512.46 212.16a62.46 62.46 0 019.01-14.39c.03-.04-.08-.03-.11 0a62.776 62.776 0 00-9.02 14.4c0 .03.11.02.12-.01zM511.87 209.92c.7-1.98 1.55-3.91 2.54-5.77.03-.06-.09-.06-.11-.01-.99 1.86-1.84 3.79-2.54 5.77-.03.06.09.06.11.01zM508.44 210.19a53.8 53.8 0 005.73-15.42c.01-.03-.11-.01-.11.02-1.1 5.4-3.04 10.61-5.73 15.42-.01.02.1.02.11-.02zM507.71 209.87c.39-1.9.78-3.8 1.16-5.69.01-.02-.11-.01-.11.02-.39 1.9-.78 3.8-1.16 5.69-.01.02.1 0 .11-.02zM515.36 212.71c1.8-.72 3.59-1.45 5.39-2.17.08-.03 0-.04-.04-.02-1.8.72-3.59 1.45-5.39 2.17-.08.03-.01.04.04.02zM504.8 209.03c.05-1.86-.07-3.72-.35-5.56-.01-.04-.12-.02-.11.03.28 1.83.39 3.69.35 5.54-.01.05.11.03.11-.01zM498.12 197.6c2.31 4.29 4.06 8.85 5.21 13.58.01.03.12 0 .11-.03-1.16-4.73-2.91-9.3-5.21-13.58-.01-.04-.12 0-.11.03zM498.28 205.75c1.16 2.09 2.16 4.27 3.01 6.5.01.03.12 0 .11-.03-.85-2.24-1.85-4.41-3.01-6.5-.01-.03-.12.01-.11.03zM490.81 206.1c3.34 3.27 6.83 6.38 10.46 9.33.03.02.13-.02.11-.04-3.63-2.94-7.12-6.06-10.46-9.33-.03-.03-.14.01-.11.04zM503.79 234.23c.56-3.99 1.13-7.98 1.69-11.97.01-.05-.11-.03-.11.01-.56 3.99-1.13 7.98-1.69 11.97-.01.06.1.04.11-.01zM494.34 226.86c2.59-2.02 4.95-4.32 7.03-6.87.03-.04-.08-.03-.11 0a43.328 43.328 0 01-7.02 6.85c-.04.04.08.04.1.02z"/><path d="M515.11 210.9c-.24-.24-.49-.47-.74-.68-2.61-2.16-5.41-1.9-8.6-1.63-1.68.15-3.39.55-4.72 1.59-2.02 1.58-2.44 4.23-2.44 6.65 0 2.03.7 3.36 1.61 5.17.38.75 1.91 1.44 2.52 2.01 1.94 1.82 5.12 1.19 7.4.4 2.49-.86 6.03-2.27 7.22-4.82.32-.69.46-1.45.49-2.21.11-2.42-1.04-4.76-2.74-6.48z"/></g><path d="M512.96 221.59l.13-.13c.02-.02.04-.05.05-.08s.02-.05.01-.08-.02-.05-.05-.07c-.02-.02-.05-.04-.08-.04-.02 0-.05-.01-.07-.01-.06 0-.11 0-.17.02-.03.01-.05.02-.08.03-.05.02-.09.05-.13.09l-.13.13c-.02.02-.04.05-.05.08s-.02.05-.01.08.02.05.05.07c.02.02.05.04.08.04.02 0 .05.01.07.01.06 0 .11 0 .17-.02.03-.01.05-.02.08-.03a.38.38 0 00.13-.09zM514.55 219.61c.49 0 1.56-.73.59-.73-.49 0-1.56.73-.59.73zM512.27 218.19c.08-.04.17-.09.25-.13.03-.01.06-.03.08-.06.02-.01.04-.03.05-.06.01-.02.01-.04-.01-.05-.01-.02-.03-.03-.05-.04-.02 0-.04-.01-.06-.01h-.15c-.08.01-.16.04-.24.08s-.17.09-.25.13c-.03.01-.06.03-.08.06-.02.01-.04.03-.05.06-.01.02-.01.04.01.05.01.02.03.03.05.04.02 0 .04.01.06.01h.15c.08-.01.16-.04.24-.08zM512.28 215.06c.46 0 1.56-.69.6-.69-.47-.01-1.57.69-.6.69zM512.75 211.93c.8 0 1.13-1 .15-1-.8 0-1.13 1-.15 1zM510.75 210.45c.83 0 1.11-1.06.13-1.06-.83 0-1.12 1.06-.13 1.06zM514.43 214.08c.5 0 1.55-.75.58-.75-.5 0-1.55.75-.58.75zM515.33 216.94c.61 0 1.51-.92.54-.92-.61-.01-1.51.92-.54.92zM510.19 220.76c.43 0 1.57-.63.61-.63-.42 0-1.57.63-.61.63zM509.4 223.27c.57 0 1.53-.86.55-.86-.57 0-1.53.86-.55.86z" fill="#f6b830"/><path d="M455.9 39.22c.75-.42 1.41-.7 2.28-.83s2.69-.92 3.18-.27c.77 1-.55 3.03-1.36 4.3-3.34 5.24-9.26 8.73-15.28 11.26-.73.31-1.55.61-2.32.44-1.04-.23-1.09-1.24-1.08-2.1 0-.54.4-.87.74-1.28.41-.49.82-.97 1.25-1.45 1.72-1.91 3.59-3.69 5.6-5.32 2.19-1.76 4.53-3.36 6.99-4.75zM433.51 47.39c-.16-3.56-1.93-6.94-2.34-10.49-.24-2.1-.83-4.1-2-5.91-.4-.62-.89-1.19-1.45-1.68-.37-.45-1.02-1.07-1.54-1.34-.33-.17-.69-.25-1.05-.33-.9-.19-1.8-.34-2.71-.46-.07-.01-.14-.02-.21.02s-.11.11-.14.19c-.52 1.22-.97 2.49-.9 3.82.01.22.06.45.13.69.02.12.04.24.06.35.68 3.59 2.24 7.02 4.52 9.88 1.22 1.53 2.65 2.92 3.51 4.68.6 1.22.84 3.46 2.67 3.13 1.26-.25 1.49-1.43 1.45-2.55zM461.49 73.82c.51.43 1.06 1.03.84 1.5-.12.26-.45.39-.77.47-2.35.61-5.26-.19-7.62-1.56s-4.26-3.25-6.12-5.1c-1.49-1.48-2.99-2.96-4.48-4.44-.37-.37-.75-.75-.89-1.19-.17-.54-.68-.58-.55-1.08.14-.58-.1-.75-.24-1.27-.14-.5.48-.75.85-.87.16-.05.45-.18.62-.15.29.05.69.44.94.61 1.23.81 2.45 1.64 3.67 2.48 2.41 1.67 4.78 3.41 7.11 5.2 2.25 1.75 4.47 3.55 6.64 5.4z" fill="#ffce36"/><path d="M428.85 55.48c-1.11-1.52-2.81-2.48-4.47-3.36-4.13-2.18-8.42-4.18-13.01-5.08-1.13-.22-2.45-.33-3.28.46-.61.58-2.06 1.27-2.19 2.1-.17 1.09.95 2.49 1.49 3.45.33.59.88 1.01 1.43 1.41 1.38 1.02 2.8 2.03 4.43 2.56 1.96.65 4.06.57 6.12.58 2.39.01 4.77.15 7.14.4.72.08 1.48.16 2.13-.15s1.09-1.19.68-1.78" fill="#f6b830"/><path d="M431.43 58.06c-2.35-1.38-5.17-1.74-7.89-1.72-3.32.02-6.51.47-9.77-.01-.66-.1-1.41-.01-2.07.08-1.59.2-3.06.67-4.33 1.68-.76.6-1.43 1.3-2.06 2.04-.41.48-1.57 1.46-1.11 2.09.76 1.05 2.28 2.47 3.62 2.11 3.73-1.01 7.28-2.62 11.06-3.48 3.94-.9 8.08-.93 12.09-1.29.45-.04 1.02-.19 1.08-.64.06-.37-.29-.67-.62-.86z" fill="#ffce36"/><path d="M436.3 61.65c1.8 2.05 2.67 4.75 3.16 7.43.59 3.26.75 6.48 1.84 9.6.22.63.27 1.38.31 2.05.1 1.6-.09 3.13-.84 4.57-.45.86-1.01 1.65-1.62 2.4-.4.49-1.14 1.81-1.85 1.48-1.18-.55-2.85-1.77-2.75-3.16.3-3.86 1.21-7.64 1.35-11.52.15-4.04-.59-8.11-.99-12.12-.05-.45-.01-1.04.43-1.18.36-.12.71.17.96.45zM430.16 48.4c-1.15-4.45-5.19-7.45-7.79-11.25-.67-.98-1.26-2.04-2.09-2.9-.79-.82-1.61-1.72-2.73-1.71-.48-.19-1.23-.07-1.74-.19-.11-.02-.23-.04-.32.02-.05.03-.07.08-.1.13a4.4 4.4 0 00-.35 3.37c.03.09.06.17.09.25.13.93.53 1.85.98 2.69 2.16 3.99 5.55 7.15 8.88 10.23 1.31 1.21 2.64 2.44 4.26 3.18l.63-.15c.65-1.06.59-2.44.28-3.67zM446.23 56.27c4.54.71 8.9-1.82 13.41-2.7 1.17-.23 2.37-.35 3.49-.77 1.06-.4 2.22-.8 2.65-1.84.37-.37.56-1.1.86-1.52.07-.09.13-.19.11-.3-.01-.05-.05-.1-.08-.15-.71-.92-1.8-1.53-2.96-1.66-.09-.01-.18-.01-.27-.02-.91-.25-1.91-.25-2.86-.16-4.52.4-8.76 2.27-12.91 4.1-1.63.72-3.29 1.46-4.61 2.65l-.11.64c.74 1.04 2.03 1.53 3.28 1.73zM436.66 35.64c-.03-2.1-.11-4.33-.96-6.17-.25-.71-.55-1.41-1.04-1.95-.58-.64-1.47-1.02-2.26-.74-.23.08-.45.22-.69.27-.23.04-.47-.01-.71.01-.24.01-.5.11-.61.34-.07.15-.06.33-.05.5.07 1.31.15 2.62.22 3.93-.41 5.63 1.13 10.98 2.66 16.4l.25.47c.39.7 1.58.24 2.12-.35.53-.59.68-1.47.78-2.29.4-3.46.34-6.95.29-10.42z" fill="#f6b830"/><path d="M445.41 32.73c-.04-.75-.17-1.49-.36-2.22-.08-.67-.18-1.33-.28-1.99-.06-.4-.13-.82-.35-1.17-.27-.43-.72-.69-1.16-.94-.65-.37-1.37-.75-2.1-.6-.11.02-.21.06-.32.09-.32.03-.64.08-.95.14-.27-.05-.52-.17-.79-.14-.44.05-.71.44-.9.86l-.01.01c-.26.32-.34.75-.42 1.15l-.12.7c-.2.84-.34 1.7-.42 2.56-.34 2.22-.62 4.44-.9 6.67-.26 2.06-.52 4.13-.65 6.2-.15 2.42-.14 4.85-.23 7.27l.93-.19c.59-.05 1.26-.12 1.64-.58.25-.3.32-.7.42-1.08.53-2.04 2.03-3.66 3.13-5.45.68-1.11 1.21-2.3 1.73-3.49 1.11-2.47 2.24-5.08 2.11-7.8z" fill="#f9d742"/><path d="M438.22 50.08c.65-2.43 1.61-4.77 2.86-6.95.81-1.42 1.74-2.76 2.55-4.19 1.07-1.89 1.91-3.9 3.09-5.72 1.19-1.81 2.8-3.46 4.86-4.13.41-.13.95-.19 1.19.17.12.16.13.38.14.58.21 5.1-2.6 9.77-5.31 14.09-1.41 2.25-2.83 4.52-4.63 6.47-.5.54-1.06 1.08-1.78 1.28-1.23.34-2.66-.62-2.8-1.9" fill="#f6b830"/><path d="M410.99 37.25c-.73-.01-2.38-.12-2.95.33-.72.58-.07 1.81.02 2.73.16 1.76 1.21 3.29 2.35 4.64 3.28 3.89 7.51 6.96 12.22 8.87 2.1.85 4.31 1.48 6.57 1.55.12 0 .24 0 .35-.05.17-.09.23-.3.25-.48.17-1.34-.87-2.51-1.86-3.43-1.13-1.05-2.3-2.05-3.51-3-1.1-.87-2.16-1.97-3.18-2.93-.95-.89-1.41-1.67-2.16-2.73-.53-.74-1.08-1.34-1.57-2.11-.2-.32-.79-.82-1.02-1.12-.24-.3-.64-.56-.95-.77a8.248 8.248 0 00-4.56-1.5zM468.82 63.4c.64-.36 2.12-1.1 2.38-1.78.33-.86-.86-1.59-1.39-2.35-1.02-1.44-2.71-2.23-4.37-2.82-4.79-1.7-10-2.21-15.03-1.49-2.24.32-4.46.9-6.45 1.98-.1.06-.21.12-.28.22-.1.16-.05.37.02.55.53 1.25 2.02 1.73 3.34 2.02 1.5.33 3.02.6 4.55.82 1.39.19 2.86.61 4.22.92 1.27.29 2.06.73 3.24 1.26.83.37 1.61.61 2.42 1.03.34.18 1.1.31 1.44.45.36.14.83.16 1.21.19 1.63.14 3.28-.21 4.7-1z" fill="#f9d742"/><path d="M428.8 86.9c.4.61 1.24 2.04 1.93 2.26.88.27 1.53-.96 2.25-1.55 1.36-1.12 2.04-2.86 2.52-4.56 1.37-4.9 1.53-10.12.46-15.09-.48-2.21-1.2-4.39-2.41-6.3-.06-.1-.13-.21-.24-.26-.17-.09-.37-.02-.54.06-1.21.61-1.59 2.13-1.79 3.47-.23 1.52-.4 3.05-.51 4.59-.1 1.4-.42 2.89-.63 4.27-.2 1.29-.59 2.1-1.04 3.32-.32.85-.5 1.65-.86 2.48-.15.35-.24 1.11-.35 1.47-.12.37-.1.84-.11 1.22-.03 1.63.44 3.26 1.32 4.62z" fill="#ffce36"/><path d="M414.36 80.42c.44.25 1.05.03 1.49-.09 1.03-.27 2.59-1.51 3.43-2.25 3.45-3.04 3.38-4.67 5.35-7.87.58-.95.85-2.19 1.56-3.04 2.04-2.44 3.74-5.17 5.01-8.08.2-.46.21-1.23-.29-1.23-.13 0-.25.06-.36.13-5.44 3.03-10.08 7.28-14.65 11.51-1.05.97-1.96 2.09-2.19 3.54-.18 1.14-.16 2.34-.16 3.49 0 1.2.09 2.41.52 3.54.06.17.17.28.29.35z" fill="#f9d742"/><path d="M432.33 57.37c-4.56-.56-9.12.74-13.49 2.13-2.24.71-4.49 1.47-6.61 2.5-1.05.51-2.08 1.08-3.02 1.76-.83.6-1.85 1.14-2.25 2.13-.21.52-.29 1.09-.37 1.65-.07.48-.13.96-.2 1.44-.04.29-.08.58 0 .86.39 1.43 2.08 1.65 3.34 1.68 1.65.04 3.03-.12 4.44-1 1.26-.78 2.29-1.8 3.43-2.72s2.32-1.83 3.5-2.7c2.3-1.68 4.65-3.29 6.99-4.91 1.45-1.01 2.88-1.57 4.3-2.64M431.72 68.22c.12-1.41.43-2.77.59-4.17.09-.77.35-1.76.23-2.02-.18-.4-.05-1.18-.64-1.16-1.52.07-2.77 2.2-3.36 3.29-.82 1.52-2.26 3.17-3.24 4.87-1.59 2.77-2.82 5.13-4.89 7.57-.57.67-1.18 1.49-1.28 2.36-.08.69-.26.79-.22 1.48.05.97-.29 2.51-.24 3.48s.68 1.46 1.65 1.53c.62.05 2.11-.81 2.6-1.2 3.58-2.88 4.46-6.1 6.66-10.13.46-.85.67-1.52.94-2.44.27-.91 1.12-2.5 1.2-3.46z" fill="#f6b830"/><path d="M436.68 61.06c1.99 3.07 2.66 6.34 3.11 10.02.61 4.94.66 10.34 3.71 14.59.47.66 2.34 1.41 2.97 1.92 1.67 1.37 1.75-3.39 1.63-5.02-.21-2.72-1.55-5.21-2.53-7.7-1.53-3.89-2.97-7.86-4.9-11.57-.7-1.35-1.97-2.55-3.49-2.57" fill="#f9d742"/><path d="M444.5 65.09c-1.2-1.35-2.35-2.78-3.77-3.92-.35-.28-.71-.54-1.09-.78-.36-.22-.6-.49-.77-.03-.2.54.28 1.37.46 1.87.28.81.65 1.58 1.06 2.34.8 1.49 1.75 2.89 2.56 4.38 1.14 2.1 2.12 4.29 2.98 6.52.78 2.03 1.26 3.28 2.6 5.04 1.11 1.45 2.6 3.05 4.39 3.42 1.23.26 3.27 1.67 4.12.75 1.14-1.23-.33-4.47-1.08-5.97-1.1-2.21-2.28-3.64-3.92-5.45-2.5-2.74-5.08-5.4-7.54-8.17zM464.58 65.01c.68.35 1.37.73 1.9 1.28s1.76 2.24 1.63 3c-.16.93-1.36 1.03-2.1 1.6-.57.43-1.65.52-2.36.59-.59.06-1.17-.15-1.73-.36-3.6-1.35-7.23-2.72-10.49-4.77-2.25-1.41-4.3-3.14-6.68-4.31-.79-.39-1.62-.73-2.31-1.28-.27-.21-.74-.6-.82-.95-.27-1.2 5.21-.56 5.87-.48 2.24.26 4.45.74 6.61 1.37 3.63 1.07 7.12 2.57 10.48 4.31z" fill="#f6b830"/><path d="M440.62 60.6l.12-.12c.01-.01.01-.01 0-.02s-.02 0-.03 0c-.02 0-.03 0-.05.01-.01 0-.03.01-.03.02l-.12.12c-.01.01-.01.01 0 .02s.02 0 .03 0c.02 0 .03 0 .05-.01.01 0 .03-.01.03-.02zM442.67 58.47c.17 0 .22-.22.02-.22-.16.01-.21.22-.02.22zM439.98 57.29c.08-.04.17-.08.25-.13.01-.01.03-.02.03-.03s.01-.02 0-.03c-.02-.02-.06-.02-.08-.01-.08.04-.17.08-.25.13-.01.01-.03.02-.03.03s-.01.02 0 .03c.01.03.06.02.08.01zM440.35 53.94c.07 0 .33-.12.19-.12-.07 0-.33.12-.19.12zM442.5 52.95c.09 0 .31-.13.12-.13-.08 0-.31.13-.12.13zM443.34 55.69c.06 0 .33-.12.19-.12-.07-.01-.33.12-.19.12zM438.33 59.62c.1 0 .31-.15.12-.15-.1 0-.31.15-.12.15z" fill="#58594c"/><path d="M423.89 56.72c1.12.28 2.29.29 3.43.05.07-.01.05-.08-.02-.06-1.1.23-2.25.21-3.34-.06-.04 0-.13.06-.07.07zM423.33 45.42c2.06 1.98 4.17 3.91 6.34 5.77.03.02.13-.02.11-.04a150.51 150.51 0 01-6.34-5.77c-.03-.03-.14.01-.11.04zM415.89 47.45c3.89 3.59 8.54 6.28 13.59 7.86.05.02.13-.06.06-.08a35.697 35.697 0 01-13.56-7.85c-.04-.03-.14.03-.09.07zM417.64 53.73c3.22 1.27 6.65 1.92 10.12 1.93.06 0 .09-.08.01-.08a27.76 27.76 0 01-10.07-1.92c-.04-.03-.12.04-.06.07zM420.74 61.1c2.49-.41 4.93-1.06 7.29-1.93.07-.03.01-.06-.04-.04-2.34.87-4.76 1.51-7.23 1.92-.05.01-.1.07-.02.05zM426.2 70.76c1.28-3.12 2.9-6.09 4.83-8.85.03-.04-.09-.02-.1 0a45.622 45.622 0 00-4.84 8.86c-.02.03.09.02.11-.01zM437.93 62.25c2.01 3.01 3.22 6.49 3.51 10.1 0 .03.12.01.11-.03-.29-3.61-1.5-7.09-3.51-10.1-.02-.03-.12.01-.11.03zM436.76 62.99c.74 2 1.2 4.09 1.36 6.22 0 .05.12.02.11-.03-.16-2.13-.62-4.22-1.36-6.22-.01-.05-.12-.01-.11.03zM440.36 62.56c1.67 1.88 3.04 4 4.01 6.32.02.05.13.01.11-.03-.98-2.32-2.34-4.46-4.02-6.34-.03-.03-.13.01-.1.05zM441.54 59.73c2.42 3 5.08 5.8 7.95 8.36.03.03.13-.02.1-.04a71.394 71.394 0 01-7.95-8.36c-.02-.04-.12 0-.1.04zM444.39 59.35c1.19.76 2.5 1.31 3.87 1.63.05.01.13-.06.07-.08-1.36-.32-2.66-.86-3.85-1.62-.05-.02-.15.04-.09.07zM445.39 58.2c1.36.37 2.78.52 4.19.42.06 0 .09-.09.01-.08-1.39.1-2.79-.04-4.14-.41-.05-.02-.13.05-.06.07zM444.09 56.16c3.45 1.3 7.18.9 10.75.47.03 0 .12-.05.05-.04-3.55.42-7.26.82-10.69-.47-.04-.01-.12.03-.11.04zM444.99 54.59c2.52-.33 4.93-1.22 7.06-2.6.05-.03-.07-.02-.09 0a16.918 16.918 0 01-6.93 2.56c-.02-.01-.11.05-.04.04zM443.29 51.44c2.66-1.66 5.32-3.32 7.99-4.98.06-.04-.03-.08-.07-.05-2.66 1.66-5.32 3.32-7.99 4.98-.07.04.02.08.07.05zM441.03 51.36a61.87 61.87 0 018.9-14.22c.03-.03-.08-.02-.1 0-3.6 4.31-6.6 9.11-8.91 14.23-.02.04.09.03.11-.01zM440.43 49.15c.69-1.96 1.53-3.87 2.51-5.7.03-.06-.08-.05-.11-.01-.98 1.84-1.81 3.74-2.51 5.7-.01.06.1.06.11.01zM437.06 49.42a52.95 52.95 0 005.66-15.24c.01-.03-.11-.01-.11.02a52.95 52.95 0 01-5.66 15.24c-.02.02.09.01.11-.02zM436.33 49.1c.38-1.87.77-3.75 1.15-5.62 0-.02-.11-.01-.11.02-.38 1.87-.77 3.75-1.15 5.62-.01.02.1.01.11-.02zM443.88 51.91c1.78-.72 3.55-1.43 5.33-2.15.07-.03 0-.04-.04-.02-1.78.72-3.55 1.43-5.33 2.15-.07.02 0 .04.04.02zM433.45 48.27c.05-1.84-.07-3.67-.34-5.49-.01-.04-.12-.02-.11.03.27 1.81.39 3.64.34 5.47 0 .05.11.03.11-.01zM426.86 36.97c2.28 4.24 4.01 8.75 5.15 13.42.01.03.12 0 .11-.03a56.757 56.757 0 00-5.15-13.42c-.02-.03-.13.01-.11.03zM427.02 45.03c1.14 2.07 2.14 4.22 2.97 6.43.01.03.12 0 .11-.03-.84-2.21-1.83-4.36-2.97-6.43-.02-.03-.13.01-.11.03zM419.63 45.37c3.3 3.23 6.75 6.3 10.33 9.21.03.02.13-.02.11-.04-3.59-2.91-7.03-5.98-10.33-9.21-.03-.03-.13.02-.11.04zM432.45 73.17c.56-3.94 1.11-7.88 1.67-11.82.01-.05-.11-.03-.11.01-.56 3.94-1.11 7.88-1.67 11.82-.01.05.11.03.11-.01zM423.12 65.88c2.56-1.99 4.89-4.27 6.95-6.79.03-.04-.08-.03-.1 0a43.09 43.09 0 01-6.93 6.77c-.06.05.06.04.08.02z" fill="#82271d"/><path d="M443.64 50.12c-.23-.24-.48-.46-.73-.67-2.58-2.14-5.34-1.88-8.49-1.61-1.66.14-3.35.55-4.66 1.57-2 1.56-2.41 4.18-2.41 6.57 0 2 .69 3.32 1.59 5.11.37.74 1.89 1.42 2.49 1.99 1.91 1.8 5.06 1.18 7.31.4 2.46-.85 5.96-2.24 7.13-4.76.32-.68.46-1.43.49-2.18.09-2.41-1.04-4.72-2.72-6.42z" fill="#82271d"/><path d="M441.52 60.68l.12-.12c.02-.02.04-.05.05-.08s.02-.05.01-.08-.02-.05-.05-.07c-.02-.02-.05-.04-.08-.04-.02 0-.05-.01-.07-.01-.06 0-.11 0-.16.02-.03.01-.05.02-.08.03-.05.02-.09.05-.13.09l-.12.12c-.02.02-.04.05-.05.08-.01.02-.02.05-.01.08s.02.05.05.07c.02.02.05.04.08.04.02 0 .05.01.07.01.06 0 .11 0 .16-.02.03-.01.05-.02.08-.03a.38.38 0 00.13-.09zM443.08 58.73c.49 0 1.56-.73.59-.73-.49 0-1.56.73-.59.73zM440.83 57.32c.08-.04.17-.08.25-.13.03-.01.06-.03.08-.06.02-.01.04-.03.04-.06.01-.02.01-.04-.01-.05-.01-.02-.03-.03-.05-.04-.02 0-.04-.01-.06-.01h-.15c-.08.01-.16.04-.24.08s-.17.08-.25.13c-.03.01-.06.03-.08.06-.02.01-.04.03-.04.06-.01.02-.01.04.01.05.01.02.03.03.05.04.02 0 .04.01.06.01h.15a.62.62 0 00.24-.08zM440.84 54.23c.46 0 1.56-.69.6-.69-.47-.01-1.57.69-.6.69zM441.31 51.14c.8 0 1.13-1 .15-1-.81.01-1.13 1-.15 1zM439.33 49.68c.83 0 1.11-1.06.13-1.06-.83 0-1.12 1.06-.13 1.06zM442.96 53.26c.5 0 1.55-.75.58-.75-.49 0-1.55.75-.58.75zM443.86 56.09c.61 0 1.51-.92.54-.92-.62-.01-1.52.92-.54.92zM438.77 59.86c.43 0 1.57-.63.61-.63-.42 0-1.57.63-.61.63zM437.99 62.34c.57 0 1.53-.86.55-.86-.56.01-1.52.86-.55.86z" fill="#f6b830"/><path d="M170.34 161.98c.77-.43 1.45-.72 2.34-.85s2.75-.94 3.26-.28c.78 1.02-.57 3.11-1.4 4.41-3.42 5.37-9.49 8.94-15.65 11.54-.75.32-1.58.62-2.38.45-1.06-.24-1.12-1.27-1.11-2.15 0-.55.41-.89.76-1.31.42-.5.84-1 1.28-1.48 1.76-1.96 3.68-3.78 5.73-5.44 2.25-1.83 4.65-3.46 7.17-4.89zM147.4 170.36c-.16-3.65-1.98-7.11-2.39-10.75-.24-2.15-.85-4.2-2.05-6.05-.41-.63-.91-1.22-1.48-1.72-.38-.46-1.04-1.09-1.58-1.37-.34-.17-.71-.26-1.08-.34-.92-.19-1.84-.35-2.77-.47-.07-.01-.15-.02-.21.02-.07.04-.11.12-.14.19-.54 1.25-.99 2.55-.93 3.91.01.23.06.46.13.7l.06.36c.69 3.68 2.3 7.19 4.63 10.12 1.25 1.57 2.72 2.99 3.59 4.79.61 1.25.86 3.55 2.73 3.21 1.3-.25 1.54-1.46 1.49-2.6zM176.07 197.43c.52.44 1.09 1.05.86 1.54-.13.27-.46.4-.79.48-2.41.63-5.39-.2-7.8-1.6s-4.36-3.33-6.27-5.22c-1.53-1.52-3.06-3.03-4.59-4.55-.38-.37-.77-.77-.91-1.22-.17-.55-.69-.59-.57-1.11.15-.59-.1-.77-.25-1.3-.14-.52.49-.76.87-.89.17-.06.46-.18.64-.15.3.05.71.45.96.62 1.26.83 2.51 1.68 3.76 2.54 2.47 1.72 4.9 3.49 7.28 5.33 2.31 1.79 4.58 3.63 6.81 5.53z" fill="#ffce36"/><path d="M142.63 178.64c-1.13-1.56-2.88-2.54-4.58-3.44-4.23-2.24-8.63-4.28-13.32-5.21-1.16-.23-2.51-.33-3.36.48-.63.6-2.11 1.3-2.25 2.15-.18 1.12.97 2.55 1.53 3.54.34.6.91 1.03 1.46 1.45 1.41 1.05 2.87 2.08 4.54 2.63 2 .66 4.16.59 6.27.6 2.44.01 4.89.15 7.32.41.74.08 1.52.16 2.18-.16s1.11-1.21.7-1.83" fill="#f6b830"/><path d="M145.27 181.29c-2.41-1.42-5.29-1.78-8.08-1.76-3.4.03-6.66.48-10.01-.01-.68-.1-1.44-.01-2.12.08-1.63.21-3.14.69-4.43 1.72-.77.62-1.47 1.33-2.11 2.09-.42.49-1.61 1.5-1.14 2.14.78 1.08 2.33 2.53 3.7 2.16 3.82-1.04 7.46-2.68 11.33-3.56 4.04-.92 8.28-.95 12.39-1.32.47-.04 1.05-.19 1.11-.66.06-.39-.3-.69-.64-.88z" fill="#ffce36"/><path d="M150.26 184.97c1.84 2.1 2.74 4.87 3.24 7.61.61 3.34.77 6.64 1.88 9.83.22.65.28 1.42.32 2.1.1 1.64-.09 3.21-.86 4.68-.46.88-1.04 1.69-1.66 2.46-.4.5-1.17 1.86-1.89 1.52-1.2-.56-2.92-1.82-2.81-3.24.3-3.95 1.24-7.83 1.39-11.8.15-4.14-.61-8.31-1.01-12.42-.05-.46-.01-1.07.44-1.21.35-.12.71.18.96.47zM143.97 171.39c-1.18-4.56-5.32-7.64-7.98-11.52-.69-1.01-1.29-2.09-2.14-2.97-.81-.84-1.65-1.76-2.8-1.75-.5-.2-1.26-.08-1.78-.19-.11-.02-.24-.04-.33.02-.05.03-.08.08-.1.14a4.532 4.532 0 00-.36 3.46c.03.09.06.17.09.26.14.95.54 1.9 1.01 2.75 2.21 4.09 5.68 7.32 9.09 10.48 1.34 1.24 2.71 2.5 4.36 3.26l.65-.15c.67-1.12.61-2.53.29-3.79zM160.44 179.45c4.65.72 9.12-1.86 13.74-2.77 1.2-.24 2.43-.36 3.58-.79 1.09-.41 2.27-.81 2.71-1.88.38-.38.57-1.13.89-1.56.07-.09.13-.2.11-.31-.01-.06-.05-.1-.08-.15a4.516 4.516 0 00-3.03-1.7c-.09-.01-.18-.01-.27-.02-.93-.25-1.96-.25-2.93-.17-4.63.41-8.97 2.32-13.22 4.2-1.67.74-3.37 1.5-4.72 2.71l-.12.66c.73 1.07 2.05 1.58 3.34 1.78zM150.63 158.32c-.03-2.15-.11-4.44-.98-6.32-.25-.73-.57-1.44-1.07-2-.59-.66-1.5-1.05-2.31-.76-.24.09-.46.23-.71.27-.24.04-.48-.01-.73.01-.24.01-.51.11-.62.34-.07.16-.07.34-.06.51.08 1.34.15 2.68.23 4.03-.42 5.77 1.16 11.24 2.72 16.8l.25.48c.4.72 1.62.25 2.17-.36s.7-1.51.8-2.35c.42-3.52.37-7.09.31-10.65z" fill="#f6b830"/><path d="M159.6 155.34c-.04-.77-.17-1.53-.37-2.27-.08-.68-.18-1.36-.28-2.03-.06-.41-.13-.84-.35-1.2-.27-.44-.74-.71-1.19-.97-.66-.38-1.4-.76-2.15-.61-.11.02-.22.06-.33.1-.33.03-.65.09-.97.14-.27-.06-.54-.17-.81-.14-.45.05-.73.45-.92.88l-.01.01c-.27.33-.35.77-.43 1.18l-.12.72c-.2.86-.34 1.74-.43 2.63-.34 2.27-.64 4.55-.92 6.83-.27 2.11-.53 4.23-.67 6.35-.16 2.48-.14 4.97-.24 7.45l.95-.2c.61-.05 1.29-.13 1.68-.6.25-.31.33-.72.43-1.11.55-2.09 2.08-3.75 3.2-5.59.69-1.14 1.24-2.36 1.78-3.57 1.12-2.55 2.28-5.22 2.15-8z" fill="#f9d742"/><path d="M152.23 173.11c.66-2.49 1.65-4.89 2.93-7.12.83-1.45 1.79-2.83 2.61-4.29 1.09-1.93 1.95-4 3.17-5.86s2.87-3.54 4.98-4.23c.42-.14.97-.19 1.22.17.12.17.14.39.14.59.21 5.22-2.66 10.01-5.44 14.43-1.44 2.31-2.9 4.63-4.75 6.63-.51.56-1.09 1.11-1.82 1.31-1.26.35-2.72-.64-2.86-1.94" fill="#f6b830"/><path d="M124.33 159.96c-.75-.01-2.44-.13-3.03.34-.74.59-.07 1.85.02 2.79.16 1.8 1.24 3.38 2.41 4.76 3.36 3.98 7.69 7.13 12.52 9.09 2.15.87 4.41 1.51 6.73 1.59.12 0 .25 0 .36-.05.17-.09.24-.3.26-.49.18-1.38-.89-2.57-1.91-3.52-1.16-1.07-2.36-2.1-3.6-3.07-1.12-.89-2.21-2.02-3.26-3-.97-.91-1.44-1.71-2.22-2.79-.54-.76-1.11-1.37-1.61-2.16-.21-.33-.81-.84-1.04-1.15-.24-.31-.65-.57-.97-.79-1.35-.97-3-1.51-4.66-1.55zM183.57 186.76c.65-.36 2.17-1.12 2.44-1.82.34-.88-.88-1.63-1.42-2.4-1.05-1.47-2.78-2.28-4.48-2.89a32.338 32.338 0 00-15.39-1.52c-2.29.33-4.57.92-6.61 2.03-.11.06-.22.12-.28.23-.1.17-.05.38.02.56.54 1.28 2.07 1.77 3.43 2.07 1.54.34 3.09.62 4.66.84 1.42.2 2.93.63 4.32.95 1.3.3 2.11.75 3.32 1.29.85.38 1.65.62 2.48 1.05.35.18 1.12.32 1.48.46.37.15.85.16 1.24.19 1.65.13 3.35-.23 4.79-1.04z" fill="#f9d742"/><path d="M142.58 210.82c.41.63 1.27 2.09 1.98 2.31.9.28 1.57-.99 2.3-1.58 1.4-1.14 2.09-2.93 2.58-4.67a32.35 32.35 0 00.47-15.46c-.49-2.26-1.23-4.5-2.47-6.45-.07-.1-.14-.21-.25-.27-.17-.09-.38-.02-.56.06-1.24.63-1.63 2.18-1.83 3.56-.23 1.56-.41 3.13-.52 4.7-.1 1.43-.43 2.96-.65 4.38-.21 1.32-.6 2.15-1.06 3.4-.32.87-.51 1.69-.88 2.54-.16.36-.25 1.14-.36 1.51-.12.38-.1.86-.11 1.25-.02 1.67.45 3.33 1.36 4.72z" fill="#ffce36"/><path d="M127.79 204.19c.45.25 1.07.03 1.53-.09 1.06-.27 2.66-1.55 3.51-2.3 3.54-3.11 3.46-4.78 5.48-8.06.59-.97.87-2.24 1.6-3.11 2.09-2.5 3.83-5.29 5.13-8.28.21-.47.22-1.26-.3-1.26-.13 0-.26.07-.37.13-5.57 3.11-10.32 7.46-15.01 11.79-1.08.99-2.01 2.14-2.25 3.63-.18 1.17-.16 2.4-.16 3.58 0 1.22.09 2.47.54 3.62.07.16.17.28.3.35z" fill="#f9d742"/><path d="M146.2 180.58c-4.67-.57-9.34.76-13.82 2.18-2.3.73-4.6 1.5-6.77 2.56-1.07.52-2.13 1.1-3.1 1.8-.85.62-1.89 1.17-2.31 2.18-.22.54-.3 1.12-.37 1.69-.07.49-.13.99-.2 1.48-.04.29-.08.6 0 .88.4 1.47 2.13 1.69 3.42 1.72 1.69.04 3.1-.12 4.55-1.02 1.29-.8 2.34-1.84 3.51-2.79a97.74 97.74 0 013.59-2.77c2.35-1.72 4.77-3.37 7.17-5.03 1.49-1.03 2.95-1.61 4.4-2.7M145.57 191.69c.12-1.44.44-2.83.61-4.28.09-.79.36-1.8.24-2.07-.19-.41-.05-1.21-.66-1.19-1.56.07-2.84 2.25-3.44 3.37-.84 1.56-2.32 3.24-3.32 4.98-1.63 2.84-2.89 5.26-5.01 7.75-.58.69-1.21 1.53-1.31 2.42-.08.7-.26.8-.22 1.51.06.99-.3 2.58-.25 3.57s.7 1.5 1.69 1.57c.64.05 2.17-.83 2.66-1.23 3.67-2.95 4.57-6.25 6.82-10.38.47-.87.68-1.55.97-2.5.27-.91 1.14-2.54 1.22-3.52z" fill="#f6b830"/><path d="M150.65 184.36c2.04 3.15 2.72 6.5 3.19 10.26.63 5.06.67 10.6 3.8 14.95.48.67 2.4 1.44 3.04 1.97 1.71 1.4 1.8-3.47 1.67-5.15-.21-2.79-1.59-5.33-2.59-7.89-1.56-3.98-3.04-8.05-5.02-11.85-.72-1.38-2.02-2.61-3.57-2.63" fill="#f9d742"/><path d="M158.66 188.49c-1.23-1.39-2.41-2.85-3.86-4.02-.36-.29-.73-.55-1.12-.8-.36-.23-.61-.51-.79-.03-.21.56.29 1.41.47 1.92.29.83.67 1.62 1.08 2.39.82 1.52 1.8 2.96 2.62 4.48 1.16 2.15 2.18 4.39 3.05 6.68.8 2.08 1.29 3.36 2.67 5.16 1.13 1.49 2.67 3.13 4.5 3.51 1.26.26 3.35 1.71 4.22.77 1.16-1.26-.34-4.58-1.1-6.12-1.12-2.26-2.33-3.73-4.02-5.58-2.55-2.8-5.2-5.52-7.72-8.36zM179.23 188.41c.7.36 1.4.74 1.94 1.31s1.8 2.3 1.67 3.07c-.16.95-1.39 1.06-2.15 1.64-.58.44-1.69.53-2.41.61-.61.06-1.2-.16-1.77-.37-3.69-1.39-7.41-2.79-10.75-4.88-2.3-1.45-4.41-3.22-6.85-4.42-.81-.4-1.66-.74-2.36-1.31-.27-.22-.75-.61-.84-.97-.28-1.23 5.33-.57 6.01-.49 2.29.27 4.55.75 6.77 1.4 3.72 1.08 7.3 2.62 10.74 4.41z" fill="#f6b830"/><path d="M154.69 183.89l.13-.13c.01-.01.01-.01 0-.02s-.02-.01-.03 0c-.02 0-.03.01-.05.01-.01 0-.03.01-.04.02l-.13.13c-.01.01-.01.01 0 .02s.02.01.03 0c.02 0 .03-.01.05-.01.02-.01.03-.01.04-.02zM156.79 181.71c.17 0 .22-.22.02-.22-.16 0-.22.22-.02.22zM154.03 180.5c.08-.04.17-.09.25-.13.01-.01.03-.02.03-.03.01-.01.01-.02 0-.03-.02-.02-.06-.02-.09-.01-.08.04-.17.09-.25.13-.01.01-.03.02-.03.03-.01.01-.01.02 0 .03.02.02.07.02.09.01zM154.41 177.07c.07 0 .33-.12.19-.12-.07-.01-.33.12-.19.12zM156.61 176.05c.09 0 .31-.13.12-.13-.08 0-.31.13-.12.13zM157.48 178.85c.06 0 .33-.12.19-.12-.07 0-.34.12-.19.12zM152.34 182.88c.1 0 .31-.15.12-.15-.1 0-.31.15-.12.15z" fill="#58594c"/><path d="M137.55 179.91c1.15.28 2.35.3 3.51.05.07-.02.05-.08-.02-.07-1.13.24-2.3.22-3.42-.06-.04.01-.13.07-.07.08zM136.97 168.33c2.11 2.03 4.27 4 6.5 5.91.03.02.13-.02.11-.04-2.22-1.91-4.39-3.88-6.5-5.91-.03-.03-.13.02-.11.04zM129.36 170.42c3.98 3.67 8.75 6.43 13.92 8.05.05.02.14-.06.07-.08a36.78 36.78 0 01-13.9-8.04c-.04-.04-.14.02-.09.07zM131.15 176.85c3.3 1.3 6.82 1.97 10.37 1.98.07 0 .09-.08.01-.08-3.53-.01-7.03-.68-10.31-1.97-.05-.03-.14.04-.07.07zM134.32 184.4c2.55-.42 5.05-1.08 7.47-1.98.08-.03.01-.06-.04-.04-2.4.89-4.88 1.55-7.41 1.96-.05.01-.1.08-.02.06zM139.91 194.29c1.31-3.2 2.97-6.24 4.95-9.07.03-.04-.09-.02-.11 0a46.238 46.238 0 00-4.96 9.08c0 .04.11.03.12-.01zM151.93 185.58c2.06 3.09 3.29 6.65 3.6 10.35 0 .03.12.01.12-.03-.3-3.7-1.54-7.26-3.6-10.35-.02-.04-.13.01-.12.03zM150.74 186.34a23.57 23.57 0 011.4 6.38c0 .05.12.02.12-.03-.17-2.18-.64-4.33-1.4-6.38-.03-.05-.14-.02-.12.03zM154.42 185.9a23.36 23.36 0 014.11 6.48c.02.05.13.02.12-.03-1-2.38-2.4-4.57-4.12-6.49-.03-.05-.14 0-.11.04zM155.63 182.99c2.48 3.07 5.2 5.94 8.15 8.57.03.03.14-.02.11-.05a72.579 72.579 0 01-8.15-8.57c-.02-.02-.13.02-.11.05zM158.54 182.61c1.22.78 2.56 1.34 3.96 1.67.05.01.14-.06.07-.08-1.4-.33-2.73-.89-3.94-1.66-.04-.03-.14.03-.09.07zM159.57 181.42c1.4.38 2.85.53 4.29.43.06 0 .09-.09.01-.08-1.43.1-2.86-.04-4.24-.42-.04-.02-.13.05-.06.07zM158.24 179.33c3.53 1.33 7.35.92 11.01.49.03 0 .13-.05.05-.04-3.64.43-7.44.84-10.95-.48-.03-.02-.12.03-.11.03zM159.17 177.73c2.58-.34 5.05-1.25 7.23-2.66.05-.03-.07-.02-.09 0a17.212 17.212 0 01-7.09 2.62c-.03-.01-.13.05-.05.04zM157.42 174.5c2.73-1.7 5.45-3.4 8.18-5.1.07-.04-.03-.08-.08-.05-2.73 1.7-5.45 3.4-8.18 5.1-.06.04.04.08.08.05zM155.1 174.42a63.053 63.053 0 019.12-14.56c.03-.04-.08-.03-.11 0a63.556 63.556 0 00-9.13 14.58c0 .03.11.02.12-.02zM154.5 172.16a42.76 42.76 0 012.57-5.84c.03-.06-.09-.06-.11-.01-1 1.88-1.86 3.83-2.57 5.84-.02.06.09.06.11.01zM151.04 172.44a54.416 54.416 0 005.8-15.61c.01-.03-.11-.01-.11.02a54.122 54.122 0 01-5.8 15.61c-.02.01.09.01.11-.02zM150.29 172.1c.39-1.92.79-3.84 1.18-5.76.01-.02-.11-.01-.11.02-.39 1.92-.79 3.84-1.18 5.76-.01.03.1.01.11-.02zM158.03 174.98c1.82-.73 3.64-1.47 5.45-2.2.08-.03 0-.04-.04-.03-1.82.73-3.64 1.47-5.45 2.2-.07.04 0 .05.04.03zM147.35 171.26c.05-1.88-.07-3.76-.35-5.63-.01-.04-.12-.02-.12.03.28 1.86.4 3.73.35 5.61 0 .05.12.03.12-.01zM140.59 159.68c2.33 4.34 4.11 8.96 5.28 13.75.01.03.12 0 .12-.03a57.922 57.922 0 00-5.28-13.75c-.02-.03-.13.01-.12.03zM140.75 167.94c1.17 2.12 2.19 4.32 3.05 6.58.01.03.13 0 .12-.03-.86-2.26-1.88-4.46-3.05-6.58-.02-.03-.13.01-.12.03zM133.19 168.29c3.38 3.31 6.91 6.46 10.58 9.44.03.02.13-.02.11-.04-3.67-2.98-7.2-6.13-10.58-9.44-.03-.03-.14.01-.11.04zM146.32 196.76l1.71-12.11c.01-.05-.11-.03-.12.01l-1.71 12.11c0 .06.12.04.12-.01zM136.76 189.3a44.16 44.16 0 007.12-6.95c.03-.04-.08-.03-.11 0-2.1 2.57-4.48 4.9-7.1 6.94-.05.03.07.03.09.01z" fill="#82271d"/><path d="M157.78 173.15c-.24-.24-.49-.47-.75-.69-2.64-2.19-5.47-1.93-8.7-1.64-1.7.15-3.43.56-4.77 1.61-2.05 1.6-2.47 4.28-2.47 6.73 0 2.05.7 3.4 1.63 5.23.38.76 1.93 1.46 2.56 2.04 1.96 1.84 5.18 1.21 7.49.41 2.52-.87 6.1-2.3 7.31-4.87.33-.7.47-1.47.5-2.23.08-2.49-1.08-4.85-2.8-6.59z" fill="#82271d"/><path d="M155.61 183.97l.13-.13c.02-.02.04-.05.05-.08s.02-.05.01-.08-.02-.05-.05-.07c-.02-.02-.05-.04-.08-.04-.02 0-.05-.01-.07-.01-.06 0-.11 0-.17.02-.03.01-.06.02-.08.03-.05.02-.09.05-.13.09l-.13.13c-.02.02-.04.05-.05.08s-.02.05-.01.08.02.05.05.07c.02.02.05.04.08.04.02 0 .05.01.07.01.06 0 .11 0 .17-.02.03-.01.06-.02.08-.03a.38.38 0 00.13-.09zM157.22 181.96c.49 0 1.56-.73.59-.73-.49 0-1.56.73-.59.73zM154.9 180.53c.08-.04.17-.09.25-.13.03-.01.06-.03.08-.06.02-.02.04-.03.05-.06.01-.02.01-.04-.01-.05-.01-.02-.03-.03-.05-.04-.02 0-.04-.01-.06-.01-.05 0-.1 0-.15.01a.68.68 0 00-.24.08c-.08.04-.17.09-.25.13-.03.01-.06.03-.08.06-.02.02-.04.03-.05.06-.01.02-.01.04.01.05.01.02.03.03.05.04.02 0 .04.01.06.01.05 0 .1 0 .15-.01.09-.02.17-.04.24-.08zM154.92 177.35c.46 0 1.56-.69.6-.69-.47 0-1.57.69-.6.69zM155.4 174.19c.8 0 1.13-1 .15-1-.81 0-1.14 1-.15 1zM153.37 172.69c.83 0 1.11-1.06.13-1.06-.83 0-1.12 1.06-.13 1.06zM157.09 176.36c.5 0 1.55-.75.58-.75-.49 0-1.55.75-.58.75zM158.01 179.25c.61 0 1.51-.92.54-.92-.61 0-1.52.92-.54.92zM152.8 183.13c.43 0 1.57-.63.61-.63-.42-.01-1.56.63-.61.63zM152 185.66c.57 0 1.53-.86.55-.86-.56 0-1.52.86-.55.86z" fill="#f6b830"/><path d="M69.4 33.4c.77-.43 1.45-.72 2.34-.85s2.75-.94 3.26-.28c.78 1.02-.57 3.11-1.4 4.41-3.42 5.37-9.49 8.94-15.65 11.54-.75.32-1.58.62-2.38.45-1.06-.24-1.12-1.27-1.11-2.15 0-.55.41-.89.76-1.31.42-.5.84-1 1.28-1.48 1.76-1.96 3.68-3.78 5.73-5.44 2.25-1.83 4.65-3.47 7.17-4.89zM46.46 41.77c-.16-3.65-1.98-7.11-2.39-10.75-.24-2.15-.85-4.2-2.05-6.05-.41-.63-.91-1.22-1.48-1.72-.38-.46-1.04-1.09-1.58-1.37-.34-.17-.71-.26-1.08-.34-.92-.19-1.84-.35-2.77-.47-.07-.01-.15-.02-.21.02-.07.04-.11.12-.14.19-.54 1.25-.99 2.55-.93 3.91.01.23.06.46.13.7l.06.36c.69 3.68 2.3 7.19 4.63 10.12 1.25 1.57 2.72 2.99 3.59 4.79.61 1.25.86 3.55 2.73 3.21 1.3-.24 1.54-1.46 1.49-2.6zM75.13 68.84c.52.44 1.09 1.05.86 1.54-.13.27-.46.4-.79.48-2.41.63-5.39-.2-7.8-1.6-2.41-1.41-4.36-3.33-6.27-5.22-1.53-1.52-3.06-3.03-4.59-4.55-.38-.37-.77-.77-.91-1.22-.17-.55-.69-.59-.57-1.11.15-.59-.1-.77-.25-1.3-.14-.52.49-.76.87-.89.17-.06.46-.18.64-.15.3.05.71.45.96.62 1.26.83 2.51 1.68 3.76 2.54 2.47 1.72 4.9 3.49 7.28 5.33 2.31 1.79 4.58 3.63 6.81 5.53z" fill="#ffce36"/><path d="M41.69 50.05c-1.13-1.56-2.88-2.54-4.58-3.44-4.23-2.24-8.63-4.28-13.32-5.21-1.16-.23-2.51-.33-3.36.48-.63.6-2.11 1.3-2.25 2.15-.18 1.12.97 2.55 1.53 3.54.34.6.91 1.03 1.46 1.45 1.41 1.05 2.87 2.08 4.54 2.63 2 .66 4.16.59 6.27.6 2.44.01 4.89.15 7.32.41.74.08 1.52.16 2.18-.16.67-.32 1.11-1.21.7-1.83" fill="#f6b830"/><path d="M44.33 52.7c-2.41-1.42-5.29-1.78-8.08-1.76-3.4.03-6.66.48-10.01-.01-.68-.1-1.44-.01-2.12.08-1.63.21-3.14.69-4.43 1.72-.77.62-1.47 1.33-2.11 2.09-.42.49-1.61 1.5-1.14 2.14.78 1.08 2.33 2.53 3.7 2.16 3.82-1.04 7.46-2.68 11.33-3.56 4.04-.92 8.28-.95 12.39-1.32.47-.04 1.05-.19 1.11-.66.06-.38-.3-.68-.64-.88z" fill="#ffce36"/><path d="M49.32 56.38c1.84 2.1 2.74 4.87 3.24 7.61.61 3.34.77 6.64 1.88 9.83.22.65.28 1.42.32 2.1.1 1.64-.09 3.21-.86 4.68-.46.88-1.04 1.69-1.66 2.46-.4.5-1.17 1.86-1.89 1.52-1.2-.56-2.92-1.82-2.81-3.24.3-3.95 1.24-7.83 1.39-11.8.15-4.14-.61-8.31-1.01-12.42-.05-.46-.01-1.07.44-1.21.34-.12.7.18.96.47zM43.03 42.8c-1.18-4.56-5.32-7.64-7.98-11.52-.69-1.01-1.29-2.09-2.14-2.97-.81-.84-1.65-1.76-2.8-1.75-.5-.2-1.26-.08-1.78-.19-.11-.02-.24-.04-.33.02-.05.03-.08.08-.1.14a4.532 4.532 0 00-.36 3.46c.03.09.06.17.09.26.14.95.54 1.9 1.01 2.75 2.21 4.09 5.68 7.32 9.09 10.48 1.34 1.24 2.71 2.5 4.36 3.26l.65-.15c.67-1.11.61-2.53.29-3.79zM59.5 50.86c4.65.72 9.12-1.86 13.74-2.77 1.2-.24 2.43-.36 3.58-.79 1.09-.41 2.27-.81 2.71-1.88.38-.38.57-1.13.89-1.56.07-.09.14-.2.11-.31-.01-.06-.05-.1-.08-.15a4.516 4.516 0 00-3.03-1.7c-.09-.01-.18-.01-.27-.02-.93-.25-1.96-.25-2.93-.17-4.63.41-8.97 2.32-13.22 4.2-1.67.74-3.37 1.5-4.72 2.71l-.12.66c.73 1.07 2.05 1.58 3.34 1.78zM49.69 29.73c-.03-2.15-.11-4.44-.98-6.32-.25-.73-.57-1.44-1.07-2-.59-.66-1.5-1.05-2.31-.76-.24.09-.46.23-.71.27-.24.04-.48-.01-.73.01-.24.01-.51.11-.62.34-.07.16-.07.34-.06.51.08 1.34.15 2.68.23 4.03-.42 5.77 1.16 11.24 2.72 16.8l.25.48c.4.72 1.62.25 2.17-.36s.7-1.51.8-2.35c.42-3.52.36-7.09.31-10.65z" fill="#f6b830"/><path d="M58.66 26.75c-.04-.77-.17-1.53-.37-2.27-.08-.68-.18-1.36-.28-2.03-.06-.41-.13-.84-.35-1.2-.27-.44-.74-.71-1.19-.97-.66-.38-1.4-.76-2.15-.61-.11.02-.22.06-.33.1-.33.03-.65.09-.97.14-.27-.06-.54-.17-.81-.14-.45.05-.73.45-.92.88l-.01.01c-.27.33-.35.77-.43 1.18l-.12.72c-.2.86-.34 1.74-.43 2.63-.34 2.27-.64 4.55-.92 6.83-.27 2.11-.53 4.23-.67 6.35-.16 2.48-.14 4.97-.24 7.45l.95-.2c.61-.05 1.29-.13 1.68-.6.25-.31.33-.72.43-1.11.55-2.09 2.08-3.75 3.2-5.59.69-1.14 1.24-2.36 1.78-3.57 1.12-2.55 2.28-5.21 2.15-8z" fill="#f9d742"/><path d="M51.29 44.52c.66-2.49 1.65-4.89 2.93-7.12.83-1.45 1.79-2.83 2.61-4.29 1.09-1.93 1.95-4 3.17-5.86s2.87-3.54 4.98-4.23c.42-.14.97-.19 1.22.17.12.17.14.39.14.59.21 5.22-2.66 10.01-5.44 14.43-1.44 2.31-2.9 4.63-4.75 6.63-.51.56-1.09 1.11-1.82 1.31-1.26.35-2.72-.64-2.86-1.94" fill="#f6b830"/><path d="M23.39 31.38c-.75-.01-2.44-.13-3.03.34-.74.59-.07 1.85.02 2.79.16 1.8 1.24 3.38 2.41 4.76 3.36 3.98 7.69 7.13 12.52 9.09 2.15.87 4.41 1.51 6.73 1.59.12 0 .25 0 .36-.05.17-.09.24-.3.26-.49.18-1.38-.89-2.57-1.91-3.52-1.16-1.07-2.36-2.1-3.6-3.07-1.12-.89-2.21-2.02-3.26-3-.97-.91-1.44-1.71-2.22-2.79-.54-.76-1.11-1.37-1.61-2.16-.21-.33-.81-.84-1.04-1.15-.24-.31-.65-.57-.97-.79-1.36-.98-3-1.52-4.66-1.55zM82.63 58.17c.65-.36 2.17-1.12 2.44-1.82.34-.88-.88-1.63-1.42-2.4-1.05-1.47-2.78-2.28-4.48-2.89a32.338 32.338 0 00-15.39-1.52c-2.29.33-4.57.92-6.61 2.03-.11.06-.22.12-.28.23-.1.17-.05.38.02.56.54 1.28 2.07 1.77 3.43 2.07 1.54.34 3.09.62 4.66.84 1.42.2 2.93.63 4.32.95 1.3.3 2.11.75 3.32 1.29.85.38 1.65.62 2.48 1.05.35.18 1.12.32 1.48.46.37.15.85.16 1.24.19 1.65.13 3.34-.23 4.79-1.04z" fill="#f9d742"/><path d="M41.64 82.24c.41.63 1.27 2.09 1.98 2.31.9.28 1.57-.99 2.3-1.58 1.4-1.14 2.09-2.93 2.58-4.67a32.35 32.35 0 00.47-15.46c-.49-2.26-1.23-4.5-2.47-6.45-.07-.1-.14-.21-.25-.27-.17-.09-.38-.02-.56.06-1.24.63-1.63 2.18-1.83 3.56-.23 1.56-.41 3.13-.52 4.7-.1 1.43-.43 2.96-.65 4.38-.21 1.32-.6 2.15-1.06 3.4-.32.87-.51 1.69-.88 2.54-.16.36-.25 1.14-.36 1.51-.12.38-.1.86-.11 1.25-.02 1.66.45 3.33 1.36 4.72z" fill="#ffce36"/><path d="M26.85 75.61c.45.25 1.07.03 1.53-.09 1.06-.27 2.66-1.55 3.51-2.3 3.54-3.11 3.46-4.78 5.48-8.06.59-.97.87-2.24 1.6-3.11 2.09-2.5 3.83-5.29 5.13-8.28.21-.47.22-1.26-.3-1.26-.13 0-.26.07-.37.13-5.57 3.11-10.32 7.46-15.01 11.79-1.08.99-2.01 2.14-2.25 3.63-.18 1.17-.16 2.4-.16 3.58 0 1.22.09 2.47.54 3.62.06.16.17.27.3.35z" fill="#f9d742"/><path d="M45.25 51.99c-4.67-.57-9.34.76-13.82 2.18-2.3.73-4.6 1.5-6.77 2.56-1.07.52-2.13 1.1-3.1 1.8-.85.62-1.89 1.17-2.31 2.18-.22.54-.3 1.12-.37 1.69-.07.49-.13.99-.2 1.48-.04.29-.08.6 0 .88.4 1.47 2.13 1.69 3.42 1.72 1.69.04 3.1-.12 4.55-1.02 1.29-.8 2.34-1.84 3.51-2.79a97.74 97.74 0 013.59-2.77c2.35-1.72 4.77-3.37 7.17-5.03 1.49-1.03 2.95-1.61 4.4-2.7M44.63 63.11c.12-1.44.44-2.83.61-4.28.09-.79.36-1.8.24-2.07-.19-.41-.05-1.21-.66-1.19-1.56.07-2.84 2.25-3.44 3.37-.84 1.56-2.32 3.24-3.32 4.98-1.63 2.84-2.89 5.26-5.01 7.75-.58.69-1.21 1.53-1.31 2.42-.08.7-.26.8-.22 1.51.06.99-.3 2.58-.25 3.57s.7 1.5 1.69 1.57c.64.05 2.17-.83 2.66-1.23 3.67-2.95 4.57-6.25 6.82-10.38.47-.87.68-1.55.97-2.5.27-.92 1.13-2.54 1.22-3.52z" fill="#f6b830"/><path d="M49.71 55.77c2.04 3.15 2.72 6.5 3.19 10.26.63 5.06.67 10.6 3.8 14.95.48.67 2.4 1.44 3.04 1.97 1.71 1.4 1.8-3.47 1.67-5.15-.21-2.79-1.59-5.33-2.59-7.89-1.56-3.98-3.04-8.05-5.02-11.85-.72-1.38-2.02-2.61-3.57-2.63" fill="#f9d742"/><path d="M57.72 59.9c-1.23-1.39-2.41-2.85-3.86-4.02-.36-.29-.73-.55-1.12-.8-.36-.23-.61-.51-.79-.03-.21.56.29 1.41.47 1.92.29.83.67 1.62 1.08 2.39.82 1.52 1.8 2.96 2.62 4.48 1.16 2.15 2.18 4.39 3.05 6.68.8 2.08 1.29 3.36 2.67 5.16 1.13 1.49 2.67 3.13 4.5 3.51 1.26.26 3.35 1.71 4.22.77 1.16-1.26-.34-4.58-1.1-6.12-1.12-2.26-2.33-3.73-4.02-5.58-2.55-2.8-5.2-5.52-7.72-8.36zM78.29 59.82c.7.36 1.4.74 1.94 1.31s1.8 2.3 1.67 3.07c-.16.95-1.39 1.06-2.15 1.64-.58.44-1.69.53-2.41.61-.61.06-1.2-.16-1.77-.37-3.69-1.39-7.41-2.79-10.75-4.88-2.3-1.45-4.41-3.22-6.85-4.42-.81-.4-1.66-.74-2.36-1.31-.27-.22-.75-.61-.84-.97-.28-1.23 5.33-.57 6.01-.49 2.29.27 4.55.75 6.77 1.4 3.72 1.08 7.3 2.62 10.74 4.41z" fill="#f6b830"/><path d="M53.75 55.3l.13-.13c.01-.01.01-.01 0-.02s-.02-.01-.03 0c-.02 0-.03.01-.05.01-.01 0-.03.01-.04.02l-.13.13c-.01.01-.01.01 0 .02s.02.01.03 0c.02 0 .03-.01.05-.01s.03-.01.04-.02zM55.85 53.12c.17 0 .22-.22.02-.22-.16 0-.22.22-.02.22zM53.09 51.91c.08-.04.17-.09.25-.13.01-.01.03-.02.03-.03.01-.01.01-.02 0-.03-.02-.02-.06-.02-.09-.01-.08.04-.17.09-.25.13-.01.01-.03.02-.03.03v.03c.02.03.07.02.09.01zM53.47 48.48c.07 0 .33-.12.19-.12-.07-.01-.33.12-.19.12zM55.67 47.46c.09 0 .31-.13.12-.13-.08 0-.31.13-.12.13zM56.53 50.26c.06 0 .33-.12.19-.12-.06 0-.33.12-.19.12zM51.4 54.29c.1 0 .31-.15.12-.15-.1.01-.31.15-.12.15z" fill="#58594c"/><path d="M36.61 51.33c1.15.28 2.35.3 3.51.05.07-.02.05-.08-.02-.07-1.13.24-2.3.22-3.42-.06-.04 0-.14.06-.07.08zM36.03 39.74c2.11 2.03 4.27 4 6.5 5.91.03.02.13-.02.11-.04-2.22-1.91-4.39-3.88-6.5-5.91-.03-.02-.14.02-.11.04zM28.42 41.83c3.98 3.67 8.75 6.43 13.92 8.05.05.02.14-.06.07-.08a36.78 36.78 0 01-13.9-8.04c-.05-.04-.14.02-.09.07zM30.21 48.26c3.3 1.3 6.82 1.97 10.37 1.98.07 0 .09-.08.01-.08-3.53-.01-7.03-.68-10.31-1.97-.05-.03-.14.04-.07.07zM33.38 55.82c2.55-.42 5.05-1.08 7.47-1.98.08-.03.01-.06-.04-.04-2.4.89-4.88 1.55-7.41 1.96-.05.01-.1.07-.02.06zM38.97 65.7c1.31-3.2 2.97-6.24 4.95-9.07.03-.04-.09-.02-.11 0a46.238 46.238 0 00-4.96 9.08c0 .04.11.03.12-.01zM50.99 56.99c2.06 3.09 3.29 6.65 3.6 10.35 0 .03.12.01.12-.03-.3-3.7-1.54-7.26-3.6-10.35-.02-.03-.13.01-.12.03zM49.8 57.75a23.57 23.57 0 011.4 6.38c0 .05.12.02.12-.03-.17-2.18-.64-4.33-1.4-6.38-.03-.05-.14-.02-.12.03zM53.48 57.31a23.36 23.36 0 014.11 6.48c.02.05.13.02.12-.03-1-2.38-2.4-4.57-4.12-6.49-.03-.05-.14 0-.11.04zM54.69 54.4c2.48 3.07 5.2 5.94 8.15 8.57.03.03.14-.02.11-.05a72.579 72.579 0 01-8.15-8.57c-.02-.02-.14.02-.11.05zM57.6 54.02c1.22.78 2.56 1.34 3.96 1.67.05.01.14-.06.07-.08-1.4-.33-2.73-.89-3.94-1.66-.04-.02-.14.04-.09.07zM58.63 52.84c1.4.38 2.85.53 4.29.43.06 0 .09-.09.01-.08-1.43.1-2.86-.04-4.24-.42-.04-.03-.13.05-.06.07zM57.3 50.75c3.53 1.33 7.35.92 11.01.49.03 0 .13-.05.05-.04-3.64.43-7.44.84-10.95-.48-.03-.02-.12.02-.11.03zM58.22 49.14c2.58-.34 5.05-1.25 7.23-2.66.05-.03-.07-.02-.09 0a17.212 17.212 0 01-7.09 2.62c-.03 0-.12.05-.05.04zM56.48 45.91c2.73-1.7 5.45-3.4 8.18-5.1.07-.04-.03-.08-.08-.05-2.73 1.7-5.45 3.4-8.18 5.1-.06.04.03.08.08.05zM54.16 45.83a63.053 63.053 0 019.12-14.56c.03-.04-.08-.03-.11 0a63.556 63.556 0 00-9.13 14.58c-.01.03.11.02.12-.02zM53.56 43.57a42.76 42.76 0 012.57-5.84c.03-.06-.09-.06-.11-.01-1 1.88-1.86 3.83-2.57 5.84-.03.06.09.06.11.01zM50.09 43.85a54.416 54.416 0 005.8-15.61c.01-.03-.11-.01-.11.02a54.122 54.122 0 01-5.8 15.61c-.01.02.1.01.11-.02zM49.35 43.52c.39-1.92.79-3.84 1.18-5.76.01-.02-.11-.01-.11.02-.39 1.92-.79 3.84-1.18 5.76-.01.02.1 0 .11-.02zM57.09 46.4c1.82-.73 3.64-1.47 5.45-2.2.08-.03 0-.04-.04-.03-1.82.73-3.64 1.47-5.45 2.2-.08.03 0 .04.04.03zM46.41 42.67c.05-1.88-.07-3.76-.35-5.63-.01-.04-.12-.02-.12.03.28 1.86.4 3.73.35 5.61 0 .05.11.03.12-.01zM39.65 31.1c2.33 4.34 4.11 8.96 5.28 13.75.01.03.12 0 .12-.03a57.922 57.922 0 00-5.28-13.75c-.03-.04-.14 0-.12.03zM39.81 39.35c1.17 2.12 2.19 4.32 3.05 6.58.01.03.13 0 .12-.03-.86-2.26-1.88-4.46-3.05-6.58-.02-.03-.13.01-.12.03zM32.25 39.7c3.38 3.31 6.91 6.46 10.58 9.44.03.02.13-.02.11-.04-3.67-2.98-7.2-6.13-10.58-9.44-.03-.03-.14.01-.11.04zM45.38 68.18l1.71-12.11c.01-.05-.11-.03-.12.01l-1.71 12.11c0 .05.11.03.12-.01zM35.82 60.71a44.16 44.16 0 007.12-6.95c.03-.04-.08-.03-.11 0-2.1 2.57-4.48 4.9-7.1 6.94-.05.03.07.03.09.01z" fill="#82271d"/><path d="M56.84 44.56c-.24-.24-.49-.47-.75-.69-2.64-2.19-5.47-1.93-8.7-1.64-1.7.15-3.43.56-4.77 1.61-2.05 1.6-2.47 4.28-2.47 6.73 0 2.05.7 3.4 1.63 5.23.38.76 1.93 1.46 2.56 2.04 1.96 1.84 5.18 1.21 7.49.41 2.52-.87 6.1-2.3 7.31-4.87.33-.7.47-1.47.5-2.23.08-2.48-1.08-4.85-2.8-6.59z" fill="#82271d"/><path d="M54.67 55.38l.13-.13c.02-.02.04-.05.05-.08s.02-.05.01-.08-.02-.05-.05-.07c-.02-.02-.05-.04-.08-.04-.02 0-.05-.01-.07-.01-.06 0-.11 0-.17.02-.03.01-.06.02-.08.03-.05.02-.09.05-.13.09l-.13.13c-.02.02-.04.05-.05.08s-.02.05-.01.08.02.05.05.07c.02.02.05.04.08.04.02 0 .05.01.07.01.06 0 .11 0 .17-.02.03-.01.06-.02.08-.03a.38.38 0 00.13-.09zM56.28 53.38c.49 0 1.56-.73.59-.73-.49-.01-1.56.73-.59.73zM53.96 51.94c.08-.04.17-.09.25-.13.03-.01.06-.03.08-.06.02-.02.04-.03.05-.06.01-.02.01-.04-.01-.05-.01-.02-.03-.03-.05-.04-.02 0-.04-.01-.06-.01-.05 0-.1 0-.15.01a.68.68 0 00-.24.08c-.08.04-.17.09-.25.13-.03.01-.06.03-.08.06-.02.02-.04.03-.05.06-.01.02-.01.04.01.05.01.02.03.03.05.04.02 0 .04.01.06.01.05 0 .1 0 .15-.01a.68.68 0 00.24-.08zM53.98 48.76c.46 0 1.56-.69.6-.69-.47 0-1.57.69-.6.69zM54.46 45.6c.8 0 1.13-1 .15-1-.81 0-1.14 1-.15 1zM52.42 44.1c.83 0 1.11-1.06.13-1.06-.82 0-1.11 1.06-.13 1.06zM56.15 47.77c.5 0 1.55-.75.58-.75-.49 0-1.55.75-.58.75zM57.07 50.66c.61 0 1.51-.92.54-.92-.62 0-1.52.92-.54.92zM51.86 54.54c.43 0 1.57-.63.61-.63-.42-.01-1.57.63-.61.63zM51.06 57.07c.57 0 1.53-.86.55-.86-.56.01-1.52.86-.55.86z" fill="#f6b830"/><path d="M519.21 53.46c-3.8 2.74-9.36 2.74-13.17.02-1.13-.81-2.19-2.04-2.03-3.42.17-1.42 1.57-2.39 2.96-2.73 1.75-.42 3.58-.14 5.36.14 1.65.26 3.31.52 4.96.79-2.83-.78-5.19-3.08-6.06-5.88-.19-.62-.31-1.29-.13-1.91.23-.78.94-1.35 1.72-1.57s1.62-.11 2.39.14c2.56.86 4.26 3.23 5.77 5.46-.43-1.93-.11-4.1 1.21-5.58 1.31-1.48 3.71-2.01 5.36-.92.99.66 1.6 1.79 1.9 2.94.36 1.38.3 2.98-.64 4.05 1.07-.82 2.17-1.64 3.43-2.12 1.26-.47 2.74-.55 3.91.11s1.9 2.19 1.38 3.43c-.43 1.02-1.5 1.59-2.53 1.99-1.34.51-2.74.85-4.16 1.01 2.83.9 5.08 3.44 5.64 6.36.1.52.15 1.06-.03 1.56-.3.82-1.15 1.32-2 1.53-2.58.63-5.17-.78-7.44-2.15-1.21-.73-2.49-1.56-2.98-2.89.79 1.3 1.01 2.93.59 4.39-.26.92-.96 1.88-1.92 1.83-.58-.03-1.07-.43-1.47-.84-1.5-1.56-1.89-3.34-1.9-5.5l-.02-.34z" fill="#c14830"/><path d="M522.67 46.07c-1.22.29-1.43.99-1.78 2.07-.11.33-.3.58-.29.96.01.84.32 1.7.93 2.28s1.53.85 2.34.61c.54-.16 1-.53 1.43-.9.23-.19.46-.39.61-.65.22-.37.27-.81.29-1.24.05-.87.01-1.83-.56-2.49-.7-.82-1.94-.89-2.97-.64z" fill="#f6b830"/><path d="M138.57 231.74c2.67-3.96 7.98-5.92 12.59-4.66 1.37.38 2.81 1.18 3.15 2.56.34 1.42-.66 2.84-1.87 3.65-1.52 1.02-3.38 1.4-5.18 1.76-1.68.33-3.35.67-5.03 1 2.98-.25 6.05 1.11 7.87 3.49.4.52.76 1.12.8 1.78.05.83-.42 1.63-1.09 2.11s-1.51.68-2.34.71c-2.75.08-5.21-1.58-7.45-3.19 1.09 1.69 1.55 3.88.81 5.76s-2.84 3.23-4.8 2.77c-1.18-.28-2.16-1.14-2.85-2.14-.83-1.19-1.34-2.74-.82-4.1-.74 1.16-1.49 2.33-2.53 3.23s-2.43 1.49-3.78 1.28-2.58-1.42-2.52-2.8c.05-1.12.87-2.05 1.72-2.79 1.1-.96 2.32-1.78 3.62-2.43-3.03.14-6.07-1.49-7.64-4.09-.28-.46-.51-.97-.52-1.5-.01-.89.63-1.67 1.37-2.17 2.24-1.51 5.22-1.08 7.87-.56 1.41.27 2.93.62 3.86 1.71a5.712 5.712 0 01-2.11-3.99c-.07-.97.26-2.13 1.19-2.42.56-.18 1.17.03 1.7.29 1.98.96 2.99 2.53 3.76 4.59l.14.32z" fill="#c14830"/><path d="M137.87 240.03c1.06-.7 1.02-1.45.98-2.61-.01-.35.08-.66-.06-1.02-.3-.8-.91-1.51-1.7-1.85s-1.76-.27-2.45.24c-.46.35-.77.86-1.05 1.37-.15.26-.3.54-.36.84-.08.43.03.87.15 1.29.26.85.64 1.75 1.42 2.19.95.52 2.16.15 3.07-.45z" fill="#f6b830"/><path d="M425.61 232.71c-.3-1.03-.41-1.89-.33-2.96.06-.77.3-1.61.97-2.01.49-.29 1.11-.27 1.67-.13 1.44.37 2.64 1.53 3.07 2.94.43 1.42.06 3.05-.94 4.15 1.01-.71 2.08-1.33 3.21-1.84.74-.34 1.52-.63 2.33-.65s1.67.27 2.16.92.54 1.56.23 2.31c-.3.75-.92 1.35-1.62 1.75-1.08.63-2.4.85-3.63.6 1.23.14 2.39.84 3.09 1.87s.92 2.36.59 3.56c-.37 1.36-1.59 2.56-3 2.51-.89-.03-1.7-.54-2.29-1.21-.59-.66-.99-1.47-1.39-2.26.67 1.04.33 2.54-.59 3.38-.91.84-2.26 1.08-3.49.89-.96-.15-1.92-.59-2.47-1.39-.6-.88-.59-2.06-.21-3.05-.39.8-1.49.88-2.37.75-.9-.13-1.88-.43-2.34-1.22-.54-.92-.08-2.2.79-2.81.87-.62 2.03-.7 3.09-.54-1.76-.18-3.47-.83-4.91-1.86-1.16-.83-2.18-1.97-2.49-3.37-.3-1.4.29-3.04 1.6-3.62.86-.38 1.84-.25 2.76-.06 2.26.47 5.6 1.79 6.51 3.91l.24.41z" fill="#82c7c5"/><path d="M428.3 239.92c.51.01 1.06-.22 1.37-.65.39-.54.29-1.26.29-1.88 0-.57-.3-1.14-.72-1.54s-1.03-.71-1.57-.91c-.57-.21-1.23-.3-1.79-.03-.54.26-.89.79-1.16 1.33-.16.32-.3.68-.26 1.03.04.38.27.71.53.99.47.49 1.05.86 1.65 1.17.53.27 1.08.49 1.66.49z" fill="#f6b830"/><path d="M120.05 47.82c-.58-.89-.93-1.66-1.17-2.7-.17-.74-.18-1.61.34-2.17.38-.42.97-.58 1.54-.6 1.46-.07 2.93.68 3.75 1.89s.94 2.86.31 4.19c.75-.96 1.58-1.85 2.5-2.66.6-.53 1.25-1.03 2.01-1.29s1.65-.23 2.3.24.96 1.32.89 2.11c-.07.8-.48 1.54-1.02 2.12-.84.91-2.02 1.49-3.25 1.61 1.2-.22 2.5.1 3.45.87s1.55 1.97 1.58 3.19c.04 1.39-.77 2.87-2.11 3.23-.85.23-1.76-.02-2.51-.48-.75-.45-1.36-1.1-1.96-1.74.93.79 1.04 2.3.42 3.35-.62 1.06-1.82 1.68-3.03 1.85-.95.13-1.98 0-2.73-.6-.82-.66-1.15-1.78-1.08-2.82-.14.87-1.16 1.26-2.02 1.39-.89.13-1.9.13-2.56-.48-.78-.72-.71-2.05-.06-2.88.65-.84 1.71-1.24 2.76-1.4-1.71.34-3.51.22-5.17-.34-1.34-.45-2.63-1.23-3.32-2.46s-.6-2.96.47-3.88c.7-.6 1.67-.77 2.58-.85 2.27-.21 5.8.07 7.27 1.81l.35.31z" fill="#82c7c5"/><path d="M124.66 53.84c.49-.14.94-.51 1.11-1.01.21-.62-.09-1.27-.27-1.86-.16-.54-.61-.99-1.12-1.25-.52-.26-1.18-.37-1.75-.4-.6-.04-1.25.07-1.7.49-.43.4-.62 1.01-.71 1.59-.06.35-.08.72.05 1.05.15.35.46.59.79.78.58.33 1.24.51 1.9.62.57.11 1.16.15 1.7-.01z" fill="#f6b830"/><path d="M78.11 103.25c-3.59-2.94-9.22-1.15-12.78.91-3.5 2.03-5.28 5.2-6.95 8.77-2.14 4.57-3.85 9.3-5.43 14.07-2.44-.17-4.83-.86-7.01-2.14-2.6-1.53-4.9-3.85-6.28-6.54-1.14-2.22-2.09-6.34.05-8.31 1.94-1.79 5.6-.36 6.39 1.96.17.51.95 4 .31 4.38 2.82-1.66 5.54-4.22 5.47-7.74-.08-3.91-3.4-8.76-7.25-9.78-7.61-2.01-16.15 3.5-15.68 11.72.39 6.91 6.01 14.7 12.62 16.93 3.38 1.14 6.96 1.83 10.57 2.03-.99 3.05-1.95 6.11-2.96 9.16-.3.91-.63 1.81-.99 2.7-5.23-2.16-11.52-1.57-16.9.49-3.69 1.41-7.32 3.64-9.05 7.18-2.37 4.84-.28 11.15 4.11 14.27 4.39 3.11 10.5 3.21 15.39.96 5.09-2.34 8.41-6.66 11.03-11.4 1.17 1.46 2.25 3.06 3.37 4.39 1.78 2.11 3.89 3.98 6.39 5.19 4.07 1.97 9.39 1.89 12.7-1.19 1.53-1.43 2.52-3.35 3.19-5.34.69-2.05 1.08-4.21 1.15-6.37-1.15.72-2.08 1.75-3.11 2.63-2.91 2.49-6.92 3.89-10.64 2.99-3.15-.77-5.7-3.04-7.89-5.42-.8-.87-1.57-1.77-2.36-2.65 1.21-2.93 2.17-5.97 2.93-9.05.74-2.98 1.25-6.01 2.05-8.97 4.07-.67 8-2.02 11.55-4.11 3.95-2.33 7.21-5.89 8.41-10.38.98-3.78.89-8.66-2.4-11.34zm-43.29 50.94c-.25-.07-.49-.15-.73-.24-.97-.38-1.92-1.07-2.19-2.08-.24-.88.09-1.83.65-2.55 1.64-2.07 4.5-2.74 7-3.01 2.4-.25 4.22.02 6.04.84-.29.6-.58 1.2-.87 1.79-1.74 3.54-5.93 6.31-9.9 5.25zm35.86-36.68c-2 3.66-5.36 6.47-9.2 8.06 1.11-4.11 2.38-8.41 4.86-11.76 1.38-1.86 4.27-2.59 4.99.28.28 1.16-.08 2.38-.65 3.42z" fill="#82c7c5"/><path d="M80.32 129.45c-.44-.09-.89-.11-1.34-.07-4.7.43-9.06 4.25-9.76 8.98-.41 2.71.74 5.62 2.63 7.56 1.63 1.68 3.97 2.69 6.3 2.58 2.96-.15 5.67-2.12 7.08-4.73 2.62-4.86 1.34-13.11-4.91-14.32zm1.12 12.34c-.21.5-.45 1-.84 1.37-1.85 1.77-3.64-1.31-4.1-2.85-.54-1.81-.37-3.87.39-5.56.31-.69.76-1.57 1.33-1.32.65.28.68 1.15 1.14 1.62 1.02 1.04 2.68-.69 3.08 1.38.33 1.72-.33 3.79-1 5.36z" fill="#82c7c5"/><path d="M93.69 129.22c.03.16.05.32.06.47.06.74.04 1.48.09 2.23v.05c0 .04.01.09.01.13.01.1.01.19.02.29.12 1.74.28 3.48.51 5.2a58 58 0 00.42 2.64c.11.61.29 1.3.85 1.59.47.24 1.07.07 1.47-.26.4-.34.66-.82.88-1.3 1.37-2.86 2.26-5.95 2.63-9.11.45-3.86.06-7.94-1.89-11.31-.59-1.01-1.34-1.98-2.37-2.55-1.76-.98-4.2-.49-5.45 1.08-.25.31-.45.65-.76.91-.3.25-.75.39-1.1.21-.32-.17-.46-.54-.56-.89-.71-2.62-.03-5.56 1.72-7.63s4.52-3.22 7.22-3.06 5.3 1.61 6.89 3.8c1.56 2.15 2.15 4.86 2.3 7.51.25 4.27-.5 8.54-1.43 12.72-.85 3.82-1.86 7.65-3.71 11.09-.72 1.35-1.59 2.65-2.8 3.59-1.2.94-2.79 1.48-4.28 1.15-1.67-.37-2.95-1.74-3.84-3.21-2.73-4.54-2.62-10.29-4.92-15.07-.14-.3-.3-.64-.17-.95.1-.24.35-.38.59-.49 1.27-.57 2.68-.82 4.06-.74.95.06 2.09.1 2.88.71.41.3.59.74.68 1.2z" fill="#82c7c5"/><path d="M122.84 137.45c-.07-.01-.67.8-.73.87-1.48 1.61-3.41 2.79-5.64 2.93-.96.06-3.03-.09-3.46-1.15-.06-.16 2.55-1.57 2.83-1.74.95-.62 1.74-1.38 2.41-2.29 1.28-1.75 1.99-3.92 1.52-6.08-.77-3.5-4.41-5.85-7.88-4.6-.55.2-1.08.47-1.56.8-5.58 3.85-6.97 14.13-.98 18.34.41.29.86.53 1.33.71 3.57 1.3 8.52-.44 10.73-3.41.47-.64 3.23-4.01 1.43-4.38zm-10.76-.9c-1.75-1.06-.44-7.25 1.6-7.4.75-.05 1.21.65 1.37 1.3.32 1.29-.08 2.59-.68 3.73-.28.51-1.48 2.86-2.29 2.37zM131.93 89.63c.79-2.16 2.41-3.8 4.45-4.75 2.4-1.13 5.52-1.27 7.87.13 1.23.73 2.1 1.99 2.58 3.31 1.96 5.37-.35 11.66-3.34 16.19-.06.09-.12.18-.18.26-2.95 4.35-7.49 8.12-12.58 9.62-.61.18-1.19.33-1.77.34-.46.01-.93-.08-1.41-.32.01.01 1.06-.72 1.17-.79 2-1.16 3.97-2.38 5.8-3.79 2.63-2.01 4.92-4.48 6.6-7.34 1.73-2.95 3.3-6.86 2.56-10.33-.79-3.66-4.98-5.89-8.33-3.85-1.77 1.08-2.57 3.11-2.94 5.12-.08.45-.14.9-.19 1.33-1.08-1.42-2.21-2.89-3.78-3.73-1.16-.62-2.6-.84-3.8-.3-1.58.72-2.37 2.61-2.25 4.34s.96 3.32 1.9 4.78 2 2.86 2.63 4.48.77 3.53-.12 5.02c-1.61-4.08-6.35-6.26-8.03-10.31-.68-1.64-.79-3.49-.35-5.21.43-1.72 1.41-3.28 2.72-4.47 1.06-.96 2.32-1.71 3.74-1.96 2.8-.5 4.88 1.35 6.35 3.47.04.06.35.58.35.66-.01-.63.14-1.33.35-1.9z" fill="#82c7c5"/><path d="M77.13 102.27c-3.59-2.94-9.22-1.15-12.78.91-3.5 2.03-5.28 5.2-6.95 8.77-2.14 4.57-3.85 9.3-5.43 14.07-2.44-.17-4.83-.86-7.01-2.14-2.6-1.53-4.9-3.85-6.28-6.54-1.14-2.22-2.09-6.34.05-8.31 1.94-1.79 5.6-.36 6.39 1.96.17.51.95 4 .31 4.38 2.82-1.66 5.54-4.22 5.47-7.74-.08-3.91-3.4-8.76-7.25-9.78-7.61-2.01-16.15 3.5-15.68 11.72.39 6.91 6.01 14.7 12.62 16.93 3.38 1.14 6.96 1.83 10.57 2.03-.99 3.05-1.95 6.11-2.96 9.16-.3.91-.63 1.81-.99 2.7-5.23-2.16-11.52-1.57-16.9.49-3.69 1.41-7.32 3.64-9.05 7.18-2.37 4.84-.28 11.15 4.11 14.27 4.39 3.11 10.5 3.21 15.39.96 5.09-2.34 8.41-6.66 11.03-11.4 1.17 1.46 2.25 3.06 3.37 4.39 1.78 2.11 3.89 3.98 6.39 5.19 4.07 1.97 9.39 1.89 12.7-1.19 1.53-1.43 2.52-3.35 3.19-5.34.69-2.05 1.08-4.21 1.15-6.37-1.15.72-2.08 1.75-3.11 2.63-2.91 2.49-6.92 3.89-10.64 2.99-3.15-.77-5.7-3.04-7.89-5.42-.8-.87-1.57-1.77-2.36-2.65 1.21-2.93 2.17-5.97 2.93-9.05.74-2.98 1.25-6.01 2.05-8.97 4.07-.67 8-2.02 11.55-4.11 3.95-2.33 7.21-5.89 8.41-10.38.98-3.79.89-8.66-2.4-11.34zm-43.3 50.94c-.25-.07-.49-.15-.73-.24-.97-.38-1.92-1.07-2.19-2.08-.24-.88.09-1.83.65-2.55 1.64-2.07 4.5-2.74 7-3.01 2.4-.25 4.22.02 6.04.84-.29.6-.58 1.2-.87 1.79-1.73 3.54-5.93 6.3-9.9 5.25zm35.87-36.68c-2 3.66-5.36 6.47-9.2 8.06 1.11-4.11 2.38-8.41 4.86-11.76 1.38-1.86 4.27-2.59 4.99.28.27 1.15-.08 2.38-.65 3.42z" fill="#c14830"/><path d="M79.34 128.47c-.44-.09-.89-.11-1.34-.07-4.7.43-9.06 4.25-9.76 8.98-.41 2.71.74 5.62 2.63 7.56 1.63 1.68 3.97 2.69 6.3 2.58 2.96-.15 5.67-2.12 7.08-4.73 2.62-4.86 1.34-13.11-4.91-14.32zm1.12 12.34c-.21.5-.45 1-.84 1.37-1.85 1.77-3.64-1.31-4.1-2.85-.54-1.81-.37-3.87.39-5.56.31-.69.76-1.57 1.33-1.32.65.28.68 1.15 1.14 1.62 1.02 1.04 2.68-.69 3.08 1.38.33 1.72-.33 3.78-1 5.36z" fill="#c14830"/><path d="M92.71 128.24c.03.16.05.32.06.47.06.74.04 1.48.09 2.23v.05c0 .04.01.09.01.13.01.1.01.19.02.29.12 1.74.28 3.48.51 5.2a58 58 0 00.42 2.64c.11.61.29 1.3.85 1.59.47.24 1.07.07 1.47-.26.4-.34.66-.82.88-1.3 1.37-2.86 2.26-5.95 2.63-9.11.45-3.86.06-7.94-1.89-11.31-.59-1.01-1.34-1.98-2.37-2.55-1.76-.98-4.2-.49-5.45 1.08-.25.31-.45.65-.76.91-.3.25-.75.39-1.1.21-.32-.17-.46-.54-.56-.89-.71-2.62-.03-5.56 1.72-7.63s4.52-3.22 7.22-3.06c2.71.16 5.3 1.61 6.89 3.8 1.56 2.15 2.15 4.86 2.3 7.51.25 4.27-.5 8.54-1.43 12.72-.85 3.82-1.86 7.65-3.71 11.09-.72 1.35-1.59 2.65-2.8 3.59-1.2.94-2.79 1.48-4.28 1.15-1.67-.37-2.95-1.74-3.84-3.21-2.73-4.54-2.62-10.29-4.92-15.07-.14-.3-.3-.64-.17-.95.1-.24.35-.38.59-.49 1.27-.57 2.68-.82 4.06-.74.95.06 2.09.1 2.88.71.41.29.59.74.68 1.2z" fill="#c14830"/><path d="M121.86 136.47c-.07-.01-.67.8-.73.87-1.48 1.61-3.41 2.79-5.64 2.93-.96.06-3.03-.09-3.46-1.15-.06-.16 2.55-1.57 2.83-1.74.95-.62 1.74-1.38 2.41-2.29 1.28-1.75 1.99-3.92 1.52-6.08-.77-3.5-4.41-5.85-7.88-4.6-.55.2-1.08.47-1.56.8-5.58 3.85-6.97 14.13-.98 18.34.41.29.86.53 1.33.71 3.57 1.3 8.52-.44 10.73-3.41.46-.64 3.23-4.01 1.43-4.38zm-10.77-.91c-1.75-1.06-.44-7.25 1.6-7.4.75-.05 1.21.65 1.37 1.3.32 1.29-.08 2.59-.68 3.73-.27.52-1.47 2.87-2.29 2.37zM130.94 88.65c.79-2.16 2.41-3.8 4.45-4.75 2.4-1.13 5.52-1.27 7.87.13 1.23.73 2.1 1.99 2.58 3.31 1.96 5.37-.35 11.66-3.34 16.19-.06.09-.12.18-.18.26-2.95 4.35-7.49 8.12-12.58 9.62-.61.18-1.19.33-1.77.34-.46.01-.93-.08-1.41-.32.01.01 1.06-.72 1.17-.79 2-1.16 3.97-2.38 5.8-3.79 2.63-2.01 4.92-4.48 6.6-7.34 1.73-2.95 3.3-6.86 2.56-10.33-.79-3.66-4.98-5.89-8.33-3.85-1.77 1.08-2.57 3.11-2.94 5.12-.08.45-.14.9-.19 1.33-1.08-1.42-2.21-2.89-3.78-3.73-1.16-.62-2.6-.84-3.8-.3-1.58.72-2.37 2.61-2.25 4.34s.96 3.32 1.9 4.78 2 2.86 2.63 4.48.77 3.53-.12 5.02c-1.61-4.08-6.35-6.26-8.03-10.31-.68-1.64-.79-3.49-.35-5.21s1.41-3.28 2.72-4.47c1.06-.96 2.32-1.71 3.74-1.96 2.8-.5 4.88 1.35 6.35 3.47.04.06.35.58.35.66 0-.63.15-1.33.35-1.9z" fill="#c14830"/><path d="M92.21 218.87c-.01-.02-.01-.05-.02-.07-1.7-6.8-9.32-14.2-16.23-8.61-9 7.28-10.07 29.88 5.39 29.65 10.92-.17 12.93-12.52 10.86-20.97zm-2.66 2.59c.17 1.19.23 2.43.14 3.64l-6.03-5.2-.45-8.41c.9.37 1.72.96 2.41 1.67 2.18 2.25 3.5 5.24 3.93 8.3zm-14.7-4.98c.89-2.04 2.3-4.28 4.47-5.1l.37 8.73-5.45 6.75c-.26-.86-.43-1.73-.52-2.57-.3-2.64.07-5.36 1.13-7.81zm2.74 15.46c-.51-.36-.97-.78-1.37-1.26l3.97-5.54.07 7.96c-.95-.21-1.85-.6-2.67-1.16zm8 .39c-.45.25-.91.44-1.39.59l-.44-7.98 4.76 4.43c-.16.3-.35.59-.55.87-.6.82-1.38 1.54-2.38 2.09zM513.58 88.61c-.01-.03-.01-.05-.02-.08-1.77-7.1-9.74-14.84-16.96-9-9.41 7.61-10.53 31.23 5.64 30.98 11.4-.16 13.5-13.06 11.34-21.9zm-2.78 2.71c.18 1.24.24 2.54.15 3.81l-6.3-5.43-.47-8.79c.94.39 1.8 1 2.52 1.75 2.27 2.34 3.65 5.46 4.1 8.66zm-15.36-5.2c.93-2.13 2.41-4.48 4.67-5.33l.39 9.13-5.69 7.05c-.27-.9-.45-1.81-.55-2.69-.31-2.76.07-5.61 1.18-8.16zm2.87 16.15c-.54-.37-1.01-.82-1.44-1.32l4.15-5.79.07 8.32c-.98-.22-1.93-.62-2.78-1.21zm8.35.41c-.47.26-.95.46-1.45.62l-.46-8.33 4.98 4.63c-.17.31-.36.62-.57.91-.63.85-1.45 1.59-2.5 2.17z" fill="#ef8529"/><path d="M26.21 200.13c-.62-.2-1.3-.04-1.91-.32-.69-.31-1.33-.72-1.79-1.34-.7-.95-.83-2.3-.33-3.37.78-1.67 2.59-2.09 4.27-1.85.61.09.96.38 1.49.62-.23-1.14-.44-2.13-.13-3.3.28-1.05.87-2.01 1.73-2.69 1.79-1.42 4.56-1.44 6.37-.03 1.83 1.42 2.39 3.97 1.59 6.09.58-.51 1.07-1.13 1.76-1.57.67-.43 1.4-.75 2.16-.95 1.51-.4 3.16-.33 4.58.27 1.14.48 2.2 1.31 2.64 2.47.55 1.46-.03 3.2-1.17 4.27s-2.75 1.54-4.31 1.58c2.27-.26 4.54 1.63 4.78 3.9.25 2.27-1.47 4.56-3.7 5.06s-4.7-.76-5.71-2.82c.09 1.79-.8 3.64-2.35 4.55-1.54.92-3.69.77-4.99-.46s-1.54-3.49-.4-4.87c-1.31 1.6-3.37 2.54-5.4 2.8-1.74.22-4.87-.04-5.51-2.08-.14-.46-.1-.97.03-1.43a4.3 4.3 0 011.24-2.02c.71-.65 1.61-1.04 2.5-1.38.44-.17.89-.33 1.33-.51.18-.06 1.13-.65 1.23-.62z" fill="#16716d"/><path d="M38.7 198.52c-.2-1.66-3.88-3.06-5.33-2.92-1.3.12-2.55 1.31-2.33 2.6.1.56.44 1.05.81 1.49.7.82 1.55 1.56 2.59 1.83 1.35.36 2.89-.18 3.72-1.29.38-.49.62-1.11.54-1.71z" fill="#f3ac37"/><path d="M436.61 199.45c-.52-.16-1.09-.02-1.61-.25-.58-.25-1.13-.59-1.52-1.1-.6-.79-.73-1.92-.32-2.82.64-1.41 2.15-1.78 3.56-1.6.51.07.81.31 1.26.5-.21-.95-.4-1.78-.15-2.76.22-.88.71-1.7 1.41-2.28 1.48-1.21 3.81-1.26 5.34-.11 1.55 1.17 2.06 3.3 1.41 5.08.48-.44.88-.96 1.45-1.34.55-.37 1.16-.64 1.8-.82 1.26-.35 2.64-.32 3.85.16.96.39 1.86 1.07 2.24 2.04.48 1.22.02 2.68-.93 3.6-.94.91-2.28 1.33-3.59 1.38 1.9-.25 3.83 1.31 4.06 3.21s-1.18 3.84-3.04 4.29c-1.87.45-3.95-.58-4.82-2.29.09 1.5-.63 3.06-1.91 3.85s-3.08.69-4.19-.32-1.33-2.9-.4-4.08c-1.08 1.36-2.8 2.18-4.49 2.42-1.46.21-4.09.03-4.65-1.68-.13-.39-.09-.81.01-1.2.17-.65.52-1.25 1.01-1.71.59-.56 1.34-.89 2.08-1.19.37-.15.74-.29 1.11-.45.16-.06.95-.56 1.03-.53z" fill="#16716d"/><path d="M447.07 197.93c-.19-1.39-3.29-2.51-4.51-2.38-1.09.12-2.12 1.13-1.92 2.21.09.47.38.88.7 1.24.59.68 1.32 1.28 2.2 1.5 1.13.28 2.42-.18 3.11-1.13.29-.42.49-.93.42-1.44z" fill="#f3ac37"/><path d="M0 0h567v269H0z" fill="none"/></svg>