<?xml version="1.0" encoding="utf-8"?>
<!-- Generator: Adobe Illustrator 24.2.3, SVG Export Plug-In . SVG Version: 6.00 Build 0)  -->
<svg version="1.1" id="corps_x5F_1" xmlns="http://www.w3.org/2000/svg" xmlns:xlink="http://www.w3.org/1999/xlink" x="0px"
	 y="0px" viewBox="0 0 553 574" style="enable-background:new 0 0 553 574;" xml:space="preserve">
<style type="text/css">
	.st0{fill:none;}
	.st1{fill:#DFB7A4;}
	.st2{fill:#BE8D70;}
	.st3{fill:#A97F66;}
	.st4{opacity:0.31;fill:#BE8D70;}
	.st5{opacity:0.52;fill:#BE8D70;}
	.st6{opacity:0.43;fill:#A77E66;}
	.st7{opacity:0.73;fill:#BE8D70;}
	.st8{fill:#AD8269;}
	.st9{opacity:0.71;}
	.st10{opacity:0.25;fill:#88584C;}
	.st11{opacity:0.31;fill:#88584C;}
	.st12{opacity:0.3;fill:#88584C;}
	.st13{fill:#856552;}
	.st14{fill:#9B6E54;}
	.st15{fill:#934940;}
	.st16{fill:#FFFFFF;}
	.st17{fill:#BB6B5D;stroke:#BB6B5D;stroke-width:0.5;stroke-miterlimit:10;}
</style>
<g id="cadre_8_">
	<rect x="0" class="st0" width="553" height="574"/>
</g>
<g id="corps_x5F_1_1_">
	<g>
		<g>
			<path class="st1" d="M298.9,520.8c0.2,4,2.4,9.2,2.4,9.2s3.5,5.4,5.4,6.4c1.9,0.9,1.4,3.1,1.4,3.1s-0.5,1-1.6,0.5
				c0,0,0,1.5-1.3,1.7c-1.3,0.2-1.6-0.4-1.6-0.4s0,1.1-0.8,1.2c-0.8,0.1-1.8-0.1-2.1-0.5c-0.4-0.4-0.2,0.7-1,0.8
				c-0.8,0.1-1.5,0.6-2.7-0.4c0,0-0.7,1-1.9,0.9c0,0-2.4,0.3-3.7-1.6c-1.4-1.9-1.5-4.8-2.2-5.4s-2.2-0.8-2.2-2.1
				c0-1.3-0.2-3.8,0.2-5c0.4-1.2,1.1-4.1,0.5-5c-0.6-0.9-1.1-3.5,0.2-4.1c0,0,0.2-0.9,0.2-3.4s0.4-12.2,0.4-12.2
				c-0.8-8.7-2.2-17.4-4-25.9c-6.7-32.1-4.5-83.4-7.4-116l-1.5,0.2c-2.8,32.6-0.9,84.1-7.6,116.2c-1.8,8.4-3.2,17.1-4,25.8
				c0,0,0.1,7.7,0.1,10.2c0,2.5,0.2,3.4,0.2,3.4c1.4,0.7,0.8,3.2,0.2,4.1c-0.6,0.9,0.1,3.8,0.5,5c0.4,1.2,0.2,3.7,0.2,5
				s-1.6,1.5-2.2,2.1c-0.6,0.7-0.8,3.5-2.2,5.4c-1.4,1.9-3.7,1.6-3.7,1.6c-1.2,0.1-1.9-0.9-1.9-0.9c-1.2,1-1.9,0.5-2.7,0.4
				c-0.8-0.1-0.6-1.1-1-0.8c-0.4,0.4-1.3,0.6-2.1,0.5s-0.8-1.2-0.8-1.2s-0.3,0.5-1.6,0.4c-1.3-0.2-1.3-1.7-1.3-1.7
				c-1.1,0.5-1.6-0.5-1.6-0.5s-0.5-2.2,1.4-3.1c1.9-0.9,5.4-6.4,5.4-6.4s2.1-5.2,2.4-9.2c0.2-4-1.1-15.2-1.1-15.2
				c-2.6-8.7-5.1-17.9-6.1-27.1c-1.6-14.9,2.6-36.1-1-53.5c-7.4-39.7-22.4-81.8-11.1-121.7c4.6-16.3,9.3-33.2,4.7-49.5
				c-1.9,13.7-10.6,20.6-13.1,32.5c-2.4,11.1-11.4,27.3-9.8,43.6c0,0,1.6,7.8,0.5,9.9c-0.9,1.7-0.5,2.3-0.4,4.1
				c0.3,3.2,1.5,6.4,0.6,9.7c-0.2,0.8-0.7,1.6-1.3,2.2c-0.2,0.2-0.4,0.4-0.7,0.4c-0.4,0-0.7-0.3-0.8-0.7c-0.1-0.4,0-0.7,0-1.1
				c0.3-3-1-6.1-3.4-7.9c-1,4.3-0.2,8.8,2,12.4c0.4,0.7,0.8,1.3,1,2c0.2,0.7,0.1,1.6-0.5,2.1c-0.6,0.5-1.6,0.4-1.9-0.3
				c0.1,0.8-0.1,1.6-0.2,2.4c-2.8,0.2-2.2-2-3.8-2.2c-1.1-0.1-1.3,0.3-2.1-0.2c-0.6-0.4-1-1-1.2-1.6c-2.4-7.1-1.8-14.7-1.2-22.2
				c0-0.5,0.1-1.4,0.1-2.3l-0.2-4.7c1.1-18.4-0.9-39.4,4.4-57.1c4.3-14.2,4.5-30.7,10.4-44l0.2-0.4c1.9-5.2,4-10.4,7.7-14.7
				c3.7-4.3,9.2-7.6,15.2-7.7c1.8,0,3.6,0.2,5.4,0.6c4.7,0.8,9.6,0.4,14-1.4c1.8-0.7,3.3-1.6,3.8-2.6c0.2-0.4,0.3-0.8,0.5-1.2
				c1.4-4.4-1.6-9.4-6-10.7c-8.7-2.6-13.7-7.3-19.9-13.3c-7.7-7.3-12.3-15.5-13-26c0,0-3.6-23-3.5-26.9c0.1-5.7-3.4-21.7-3.2-28.5
				c0.2-6.9,2.7-13.8,7.8-18.4c5.8-5.2,13.9-8.6,28.1-10.5c15-2,41.1-1.6,55.9,1.7c8.5,1.9,16.5,4.7,20.8,8.6
				c5.1,4.6,7.6,11.5,7.8,18.4c0.2,6.7-3.2,21.5-3.2,28.5l-2.6,25.1c-0.1,9-7.7,20-13.7,26.5c-8.3,9-21.2,13-24.5,14.3
				c-5.8,2.2-5.8,4-6,7.8c-0.3,3.8,4.6,8.2,9,8.3c3.3,0.4,6.7,0.3,10-0.3c1.4-0.2,2.8-0.4,4.5-0.4c6,0.1,11.5,3.4,15.2,7.7
				c3.7,4.3,5.9,9.5,7.7,14.7c11.6,32,13.7,63.6,15.6,97.2l-0.2,4.7c0,0.9,0.1,1.8,0.1,2.3c0.6,7.4,1.1,15.1-1.2,22.2
				c-0.2,0.7-0.6,1.2-1.2,1.6c-0.8,0.5-1,0.1-2.1,0.2c-1.6,0.2-1,2.4-3.8,2.2c-0.2-0.8-0.3-1.6-0.2-2.4c-0.3,0.7-1.4,0.8-1.9,0.3
				c-0.6-0.5-0.7-1.4-0.5-2.1c0.2-0.7,0.6-1.4,1-2c2.2-3.7,2.9-8.2,2-12.4c-2.4,1.8-3.7,4.9-3.4,7.9c0,0.4,0.1,0.7,0,1.1
				c-0.1,0.4-0.4,0.7-0.8,0.7c-0.3,0-0.5-0.2-0.7-0.4c-0.6-0.6-1.1-1.4-1.3-2.2c-1-3.4,0.3-6.5,0.6-9.8c0.2-1.8,0.5-2.5-0.4-4.1
				c-1.1-2.1,0.5-9.9,0.5-9.9c1.9-12.8-11.2-30.5-13.3-41.1c-3.3-16.4-7.9-16.2-10.2-30.6c-4.8,31.4,1.9,34.1,5.4,50.8
				c10.1,48.8-6.5,70.4-11.4,116.8c-0.2,2.2-0.6,4.4-0.9,6.6c-2.8,16.9,2.6,34.4-0.6,51.4c-1.8,9.5-4,18.3-6.3,27.5
				C299.9,504.8,298.6,516.8,298.9,520.8z"/>
			<g>
				<path class="st2" d="M298.9,520.8c0.1,1.6,0.4,3.2,0.9,4.7c0.4,1.5,0.9,3.1,1.5,4.5l0,0c1.1,1.7,2.3,3.3,3.7,4.8
					c0.3,0.4,0.7,0.7,1.1,1.1c0.4,0.4,0.9,0.5,1.3,0.9c0.8,0.7,1,1.8,0.9,2.8l0,0c-0.2,0.3-0.4,0.5-0.7,0.6c-0.3,0.1-0.6,0-0.9-0.1
					l0,0c0,0.3-0.1,0.7-0.2,1c-0.2,0.3-0.4,0.6-0.7,0.7c-0.3,0.1-0.7,0.1-1,0.1c-0.3,0-0.7-0.1-0.9-0.4l0,0c0,0.3-0.1,0.7-0.3,1
					c-0.2,0.3-0.6,0.3-0.9,0.3c-0.3,0-0.7,0-1-0.1c-0.2,0-0.3-0.1-0.5-0.2c-0.1,0-0.1-0.1-0.2-0.2c-0.1-0.1-0.1-0.1-0.2-0.1
					c-0.2,0.3-0.3,0.6-0.6,0.8c-0.3,0.1-0.7,0.2-1,0.2c-0.7,0.2-1.4-0.2-1.9-0.6l0,0c-0.5,0.6-1.2,1-2,0.9h0
					c-1.2,0.1-2.4-0.2-3.3-1.1c-0.8-0.8-1.3-2-1.6-3.1l-0.5-1.7c-0.2-0.5-0.3-1.2-0.9-1.5c-0.5-0.3-1.1-0.5-1.5-0.9
					c-0.2-0.2-0.4-0.5-0.4-0.8c0-0.3,0-0.6,0-0.9c0-1.2-0.1-2.3,0.1-3.5c0.1-0.6,0.3-1.1,0.4-1.7c0.2-0.6,0.3-1.1,0.4-1.7
					c0.1-0.6,0.2-1.2,0.1-1.7c0-0.3-0.1-0.6-0.3-0.8c-0.1-0.3-0.2-0.5-0.3-0.8c-0.2-0.6-0.3-1.2-0.2-1.7c0-0.6,0.3-1.2,0.8-1.5l0,0
					c0.2-1.3,0.2-2.6,0.2-3.9l0.1-3.9l0.3-7.8l0,0c-0.5-5.9-1.4-11.8-2.4-17.6c-0.5-2.9-1.1-5.8-1.7-8.7c-0.5-2.9-1.1-5.8-1.5-8.8
					c-1.7-11.8-2.5-23.6-3-35.5c-0.5-11.9-0.8-23.7-1.1-35.6c-0.3-11.9-0.7-23.8-1.6-35.6l0,0l-1.5,0.2l0,0
					c-1,11.8-1.3,23.7-1.7,35.6c-0.3,11.9-0.6,23.8-1.2,35.6c-0.6,11.9-1.3,23.8-3.1,35.5c-0.8,5.9-2.2,11.7-3.2,17.5
					c-1,5.8-1.9,11.7-2.4,17.7l0,0l0,6.8l0,3.4c0,1.1,0,2.3,0.2,3.4l0,0c0.6,0.3,0.8,0.9,0.9,1.5c0.1,0.6,0,1.2-0.2,1.8
					c-0.1,0.3-0.2,0.6-0.3,0.8c-0.2,0.3-0.2,0.5-0.3,0.8c-0.1,0.6,0,1.2,0.1,1.7c0.1,0.6,0.2,1.1,0.4,1.7c0.1,0.6,0.4,1.1,0.4,1.7
					c0.1,1.2,0.1,2.4,0.1,3.5c0,0.3,0,0.6,0,0.9c0,0.3-0.2,0.6-0.4,0.8c-0.4,0.4-1,0.6-1.5,0.9c-0.5,0.3-0.7,0.9-0.8,1.4l-0.5,1.7
					c-0.4,1.1-0.8,2.3-1.7,3.1c-0.9,0.8-2.1,1.2-3.3,1.1l0,0c-0.8,0.1-1.5-0.3-2-0.9l0.1,0c-0.5,0.4-1.2,0.8-1.9,0.6
					c-0.4-0.1-0.7-0.1-1-0.2c-0.4-0.1-0.5-0.6-0.7-0.8c0-0.1-0.2,0.2-0.3,0.2c-0.2,0.1-0.3,0.2-0.5,0.2c-0.3,0.1-0.7,0.1-1,0.1
					c-0.3,0-0.7,0-1-0.3c-0.2-0.3-0.3-0.6-0.3-1l0.1,0c-0.2,0.3-0.6,0.4-1,0.4c-0.3,0-0.7,0-1-0.1c-0.3-0.1-0.6-0.4-0.8-0.7
					c-0.2-0.3-0.2-0.7-0.3-1l0.1,0.1c-0.3,0.1-0.6,0.2-1,0.1c-0.3-0.1-0.6-0.3-0.7-0.6l0,0l0,0c-0.2-1,0.1-2.2,0.9-2.8
					c0.4-0.3,0.9-0.5,1.3-0.9c0.4-0.3,0.7-0.7,1.1-1.1c1.3-1.5,2.5-3.2,3.6-4.8l0,0c0.8-1.9,1.4-3.9,1.8-5.9c0.2-1,0.4-2,0.5-3
					c0.1-1,0-2.1,0-3.1c-0.2-4.1-0.6-8.2-1.1-12.3l0,0c-1.5-5.1-3-10.2-4.1-15.4c-1.1-5.2-2.1-10.5-2.3-15.8c-0.2-5.3,0-10.6,0.3-16
					c0.2-5.3,0.5-10.6,0.5-15.9c0-5.3-0.3-10.6-1.2-15.9c-0.9-5.2-2-10.4-3.2-15.6c-2.3-10.4-4.7-20.7-6.8-31.2
					c-2.1-10.4-3.9-20.9-4.8-31.5c-0.9-10.6-0.9-21.3,0.7-31.9c0.8-5.3,2-10.5,3.5-15.6c1.4-5.1,2.8-10.3,3.9-15.5
					c1.1-5.2,1.8-10.5,1.9-15.8c0.1-5.3-0.4-10.6-1.9-15.8l0.2,0c-0.5,3.3-1.4,6.6-2.7,9.7c-1.3,3.1-2.9,6-4.6,8.9
					c-1.6,2.9-3.2,5.9-4.4,9c-1.3,3.1-1.7,6.5-2.7,9.6c-2,6.4-4.5,12.6-6.3,19c-1.8,6.4-2.9,13.1-2.2,19.8l0,0
					c0.3,1.6,0.6,3.2,0.7,4.8c0.1,0.8,0.1,1.6,0.2,2.4c0,0.8,0,1.6-0.3,2.4c-0.4,0.8-0.7,1.4-0.7,2.2c0,0.8,0.2,1.6,0.2,2.4
					c0.2,1.6,0.5,3.2,0.8,4.8c0.2,1.6,0.2,3.3-0.2,4.8c-0.2,0.8-0.7,1.5-1.2,2.1c-0.1,0.1-0.3,0.3-0.5,0.4c-0.2,0.1-0.5,0.1-0.7,0
					c-0.4-0.2-0.6-0.7-0.6-1.1c0.5-3.2-0.8-6.5-3.3-8.5l0.2-0.1c-0.4,1.6-0.5,3.2-0.4,4.8c0.1,1.6,0.5,3.2,1,4.8
					c0.3,0.8,0.6,1.5,1,2.2c0.4,0.7,0.9,1.4,1.2,2.2c0.3,0.8,0.4,1.8-0.2,2.5c-0.6,0.7-1.9,0.8-2.3-0.2l0.3-0.1
					c0.1,0.8-0.1,1.6-0.2,2.4l0,0.1l-0.1,0c-0.7,0-1.5-0.1-2.1-0.6c-0.6-0.5-0.8-1.3-1.4-1.5c-0.3-0.1-0.6-0.1-1-0.1
					c-0.3,0-0.7,0.1-1.1,0c-0.7-0.3-1.2-0.8-1.6-1.5c-1-2.7-1.5-5.4-1.7-8.2c-0.2-2.8-0.2-5.6-0.1-8.4c0.1-2.8,0.4-5.6,0.5-8.4l0,0
					l-0.2-4.7l0,0l0,0c0.5-8.5,0.4-17.1,0.5-25.7c0.2-8.6,0.6-17.2,2.4-25.6c0.8-4.2,2.3-8.3,3.1-12.5c0.9-4.2,1.6-8.4,2.4-12.6
					c1.4-8.4,2.9-17,6.4-24.9l0,0l0,0l0.2-0.4l0,0c1.8-5,3.9-10,7.3-14.2c3.4-4.1,8.1-7.3,13.4-8.1c2.7-0.4,5.4-0.1,8,0.4
					c2.6,0.4,5.3,0.5,7.9,0.1c2.6-0.4,5.2-1.1,7.5-2.3c0.6-0.3,1.1-0.7,1.6-1.1c0.5-0.4,0.7-1,0.9-1.7c0.4-1.2,0.5-2.6,0.2-3.8
					c-0.5-2.6-2.2-4.8-4.5-6.1c-1.1-0.6-2.5-0.9-3.7-1.4c-1.3-0.4-2.5-1-3.7-1.6c-4.8-2.4-8.9-6-12.7-9.6
					c-3.9-3.6-7.5-7.6-10.1-12.3c-2.6-4.7-4.1-9.9-4.5-15.2l0,0c-0.7-4.8-1.5-9.7-2.1-14.5c-0.3-2.4-0.7-4.8-0.9-7.3
					c-0.1-1.2-0.3-2.4-0.4-3.7c-0.1-1.2,0-2.5-0.1-3.7c-0.4-4.9-1.3-9.7-2-14.5c-0.3-2.4-0.7-4.8-0.9-7.3c-0.2-2.4-0.3-4.9,0-7.4
					c0.6-4.9,2.4-9.7,5.6-13.5c3.2-3.8,7.5-6.4,12-8.3c4.6-1.8,9.4-3,14.2-3.8c4.8-0.8,9.7-1.3,14.6-1.5c9.8-0.5,19.6-0.4,29.3,0.4
					c4.9,0.4,9.7,1,14.6,1.9c4.8,1,9.5,2.3,14.1,4.1c2.3,0.9,4.5,2,6.5,3.4c2,1.4,3.7,3.3,5.1,5.3c2.8,4.1,4.1,9,4.4,13.9
					c0.1,2.5-0.2,4.9-0.5,7.3c-0.3,2.4-0.7,4.8-1,7.3c-0.4,2.4-0.7,4.8-1.1,7.3c-0.3,2.4-0.6,4.9-0.6,7.3l0,0l0,0l-2.6,25.1l0,0
					c-0.1,3.5-1.1,6.9-2.5,10.1c-1.4,3.2-3.2,6.2-5.2,9c-2,2.8-4.2,5.6-6.6,8.1c-2.4,2.5-5.2,4.6-8.1,6.5c-3,1.8-6.1,3.4-9.3,4.8
					c-1.6,0.7-3.2,1.3-4.8,1.9c-1.6,0.6-3.3,1.2-4.7,2.1c-0.7,0.4-1.4,1-1.9,1.7c-0.5,0.7-0.7,1.5-0.9,2.4c-0.1,0.8-0.2,1.7-0.2,2.6
					c0,0.8,0.3,1.7,0.7,2.4c0.8,1.5,2,2.8,3.4,3.7c1.4,0.9,3.1,1.6,4.8,1.6l0,0l0,0c3,0.4,6.1,0.3,9.2-0.1c1.5-0.2,3-0.5,4.6-0.5
					c1.5,0,3.1,0.1,4.6,0.5c3,0.7,5.8,2.2,8.2,4.1c2.4,1.9,4.4,4.4,6,7c3.2,5.3,5,11.2,7,17c1.9,5.9,3.5,11.8,4.9,17.8
					c1.4,6,2.5,12.1,3.5,18.1c0.9,6.1,1.7,12.2,2.4,18.3c1.3,12.2,2,24.5,2.7,36.8l0,0l0,0l-0.2,4.7l0,0c0.1,2.8,0.4,5.6,0.5,8.4
					c0.1,2.8,0.2,5.6-0.1,8.4c-0.3,2.8-0.7,5.6-1.7,8.2c-0.3,0.6-0.8,1.2-1.5,1.4c-0.4,0.1-0.7,0-1.1,0c-0.3,0-0.7,0-1,0.1
					c-0.6,0.3-0.8,1-1.4,1.5c-0.5,0.5-1.3,0.6-2,0.6l-0.1,0l0-0.1c-0.2-0.8-0.3-1.6-0.2-2.4l0.1,0c-0.4,0.9-1.7,0.8-2.2,0.1
					c-0.5-0.7-0.5-1.7-0.2-2.4c0.3-0.8,0.8-1.4,1.2-2.2c0.4-0.7,0.7-1.5,1-2.2c0.6-1.5,0.9-3.1,1-4.8c0.1-1.6,0-3.3-0.4-4.9l0.1,0
					c-1.9,1.4-3.1,3.7-3.4,6c-0.1,0.6-0.1,1.2,0,1.8c0,0.3,0.1,0.6,0,0.9c0,0.3-0.2,0.6-0.5,0.8c-0.3,0.2-0.7,0.1-0.9-0.1
					c-0.2-0.2-0.4-0.4-0.6-0.7c-0.4-0.5-0.7-1-0.9-1.6c-0.7-2.3-0.4-4.8,0.1-7.1c0.2-1.2,0.4-2.4,0.5-3.5c0.1-0.6,0.2-1.2,0.1-1.8
					c-0.1-0.6-0.3-1.1-0.6-1.7c-0.5-1.1-0.4-2.4-0.4-3.6c0.1-1.2,0.2-2.4,0.4-3.6c0.1-0.6,0.2-1.2,0.3-1.8c0.1-0.6,0.2-1.2,0.3-1.8
					c0.1-1.2,0.1-2.4,0-3.6c-0.4-4.8-2-9.3-3.8-13.7c-1.8-4.4-4-8.7-5.9-13.1c-1-2.2-1.9-4.4-2.7-6.6c-0.8-2.3-1.1-4.6-1.7-7
					c-0.6-2.3-1.3-4.6-2.1-6.8c-0.9-2.2-1.9-4.4-3-6.5c-1-2.1-2-4.4-2.7-6.6c-0.7-2.3-1.2-4.6-1.6-7l0.1,0
					c-0.8,5.3-1.4,10.6-1.6,15.9c-0.2,5.3,0.1,10.7,1.4,15.9c0.6,2.6,1.5,5.1,2.3,7.7c0.8,2.5,1.7,5.1,2.4,7.7
					c1.3,5.2,2.2,10.5,2.9,15.8c1.4,10.6,1.5,21.4,0.3,32c-1.2,10.6-3.7,21.1-6.1,31.5c-2.5,10.4-4.8,20.8-6.4,31.4
					c-0.4,2.6-0.7,5.3-1,8c-0.3,2.7-0.6,5.3-1.1,7.9c-0.9,5.3-1,10.6-0.8,16c0.4,10.7,2,21.4,0.7,32c-0.1,1.3-0.4,2.6-0.6,4
					l-0.8,3.9c-0.5,2.6-1.1,5.2-1.7,7.8c-1.2,5.2-2.5,10.4-3.8,15.6l0,0c-0.3,2.7-0.5,5.3-0.7,8c-0.1,1.3-0.2,2.7-0.3,4
					C298.9,518.1,298.8,519.5,298.9,520.8z M298.9,520.8c-0.1-1.3,0-2.7,0-4c0.1-1.3,0.2-2.7,0.2-4c0.2-2.7,0.4-5.3,0.7-8l0,0
					c1.3-5.2,2.6-10.4,3.8-15.6c0.6-2.6,1.2-5.2,1.7-7.8l0.8-3.9c0.2-1.3,0.4-2.6,0.6-4c1.2-10.7-0.3-21.4-0.7-32
					c-0.2-5.3-0.1-10.7,0.8-16c0.5-2.6,0.8-5.3,1.1-7.9c0.3-2.7,0.6-5.3,1-8c1.5-10.6,3.9-21,6.4-31.4c2.5-10.4,4.9-20.8,6.1-31.5
					c1.2-10.6,1.1-21.4-0.3-32c-0.7-5.3-1.6-10.6-2.9-15.8c-0.7-2.6-1.5-5.1-2.4-7.7c-0.9-2.5-1.7-5.1-2.3-7.7
					c-1.3-5.2-1.6-10.6-1.4-15.9c0.2-5.3,0.8-10.7,1.6-16l0-0.3l0,0.3c0.4,2.4,0.9,4.7,1.6,7c0.7,2.3,1.7,4.5,2.7,6.6
					c1,2.1,2.1,4.3,3,6.5c0.9,2.2,1.6,4.5,2.1,6.8c0.6,2.3,0.9,4.7,1.7,6.9c0.8,2.3,1.7,4.5,2.7,6.6c2,4.4,4.1,8.6,5.9,13.1
					c1.8,4.4,3.5,9,3.9,13.8c0.1,1.2,0.1,2.4,0,3.6c0,0.6-0.2,1.2-0.3,1.8c-0.1,0.6-0.2,1.2-0.3,1.8c-0.2,1.2-0.3,2.4-0.4,3.6
					c0,1.2-0.1,2.4,0.4,3.5c0.3,0.5,0.5,1.1,0.6,1.7c0.1,0.6,0,1.2-0.1,1.8c-0.1,1.2-0.3,2.4-0.5,3.6c-0.4,2.3-0.8,4.8-0.1,7.1
					c0.2,0.6,0.5,1.1,0.9,1.5c0.2,0.2,0.4,0.5,0.6,0.6c0.2,0.2,0.5,0.2,0.8,0.1c0.5-0.3,0.4-1,0.4-1.6c-0.1-0.6-0.1-1.2,0-1.8
					c0.3-2.4,1.5-4.7,3.4-6.1l0.1-0.1l0,0.1c0.4,1.6,0.5,3.3,0.4,4.9c-0.1,1.6-0.5,3.3-1,4.8c-0.3,0.8-0.6,1.5-1,2.2
					c-0.4,0.7-0.9,1.4-1.2,2.1c-0.3,0.7-0.3,1.6,0.2,2.3c0.5,0.6,1.6,0.6,2-0.1l0.2-0.4l-0.1,0.5c-0.1,0.8,0.1,1.6,0.2,2.4l-0.1-0.1
					c0.7,0,1.4-0.1,1.9-0.5c0.5-0.4,0.7-1.2,1.4-1.5c0.3-0.1,0.7-0.1,1.1-0.1c0.4,0,0.7,0.1,1,0c0.6-0.2,1.1-0.8,1.4-1.4
					c1-2.6,1.4-5.4,1.7-8.1c0.2-2.8,0.2-5.6,0.1-8.4c-0.1-2.8-0.4-5.6-0.5-8.4l0,0l0,0l0.2-4.7l0,0c-0.7-12.3-1.5-24.6-2.7-36.8
					c-0.6-6.1-1.4-12.2-2.4-18.3c-1-6.1-2.1-12.1-3.5-18.1c-1.4-6-3.1-11.9-4.9-17.8c-2-5.8-3.8-11.7-7-17c-1.6-2.6-3.6-5-6-6.9
					c-2.4-1.9-5.2-3.4-8.1-4.1c-1.5-0.4-3-0.5-4.5-0.5c-1.5,0-3,0.3-4.6,0.5c-3.1,0.5-6.2,0.5-9.2,0.1l0,0c-1.8,0-3.5-0.7-4.9-1.7
					c-1.4-1-2.7-2.3-3.5-3.8c-0.4-0.8-0.7-1.6-0.7-2.5c0-0.9,0.1-1.7,0.2-2.6c0.1-0.9,0.4-1.7,0.9-2.5c0.5-0.7,1.2-1.3,2-1.7
					c1.5-0.9,3.1-1.5,4.8-2.1c1.6-0.6,3.2-1.2,4.8-1.9c3.2-1.4,6.3-2.9,9.2-4.7c2.9-1.8,5.7-4,8.1-6.4c2.4-2.5,4.6-5.2,6.6-8
					c2-2.8,3.8-5.8,5.2-9c1.4-3.1,2.5-6.5,2.5-10l0,0l0,0l2.5-25.1l0,0c0-2.5,0.3-4.9,0.6-7.3c0.3-2.4,0.7-4.8,1.1-7.3
					c0.4-2.4,0.7-4.8,1-7.3c0.3-2.4,0.6-4.9,0.5-7.3c-0.2-4.9-1.6-9.7-4.3-13.8c-1.4-2-3-3.8-5-5.2c-2-1.4-4.2-2.5-6.5-3.4
					c-4.5-1.8-9.3-3.1-14-4.1c-4.8-1-9.7-1.5-14.5-1.9c-9.7-0.8-19.5-0.9-29.3-0.4c-4.9,0.3-9.8,0.7-14.6,1.5
					c-4.8,0.8-9.6,1.9-14.1,3.8c-4.5,1.8-8.8,4.5-11.9,8.2c-3.1,3.7-4.9,8.5-5.5,13.3c-0.3,2.4-0.2,4.9,0,7.3
					c0.2,2.4,0.6,4.9,0.9,7.3c0.7,4.8,1.6,9.7,2,14.6c0.1,1.2,0,2.5,0.1,3.7c0.1,1.2,0.2,2.4,0.4,3.6c0.3,2.4,0.6,4.9,0.9,7.3
					c0.7,4.8,1.4,9.7,2.1,14.5l0,0l0,0c0.4,5.3,1.9,10.5,4.4,15.1c2.6,4.6,6.1,8.6,10,12.2c3.8,3.7,7.8,7.2,12.6,9.6
					c1.2,0.6,2.4,1.1,3.7,1.5c1.2,0.5,2.6,0.7,3.8,1.4c2.4,1.3,4.2,3.7,4.7,6.3c0.3,1.3,0.2,2.7-0.2,4c-0.2,0.6-0.5,1.3-1,1.8
					c-0.5,0.5-1.1,0.9-1.7,1.2c-2.4,1.2-5,2-7.6,2.4c-2.7,0.4-5.4,0.3-8-0.1c-2.6-0.5-5.3-0.8-7.9-0.4c-5.2,0.8-9.9,3.9-13.2,8
					c-3.4,4.1-5.4,9.1-7.2,14.1l0,0l0,0l-0.2,0.4l0,0c-3.5,7.8-4.9,16.4-6.4,24.8c-0.7,4.2-1.4,8.4-2.4,12.6
					c-0.9,4.2-2.3,8.3-3.1,12.5c-1.7,8.4-2.2,17-2.4,25.5c-0.2,8.6-0.1,17.1-0.5,25.7l0,0l0.2,4.7l0,0l0,0c-0.1,2.8-0.4,5.6-0.5,8.4
					c-0.1,2.8-0.2,5.6,0.1,8.3c0.2,2.8,0.7,5.5,1.7,8.1c0.3,0.6,0.8,1.1,1.4,1.3c0.3,0.1,0.6,0,1,0c0.4,0,0.7,0,1.1,0.1
					c0.7,0.4,0.9,1.1,1.4,1.6c0.5,0.5,1.2,0.5,1.9,0.5l-0.1,0.1c0.2-0.8,0.3-1.6,0.2-2.3l-0.1-1.1l0.4,1c0.3,0.7,1.4,0.7,1.8,0.1
					c0.5-0.6,0.5-1.5,0.2-2.2c-0.3-0.7-0.8-1.4-1.2-2.1c-0.4-0.7-0.7-1.5-1-2.3c-0.6-1.6-0.9-3.2-1-4.8c-0.1-1.7,0-3.3,0.4-4.9
					l0-0.2l0.2,0.1c2.6,2,3.9,5.5,3.4,8.7c0,0.4,0.1,0.7,0.5,0.9c0.3,0.2,0.6-0.1,0.9-0.4c0.5-0.6,1-1.3,1.2-2
					c0.5-1.5,0.4-3.1,0.2-4.7c-0.2-1.6-0.6-3.2-0.8-4.8c-0.1-0.8-0.2-1.6-0.2-2.4c0-0.8,0.4-1.6,0.7-2.3c0.2-0.7,0.3-1.5,0.3-2.3
					c0-0.8-0.1-1.6-0.2-2.4c-0.2-1.6-0.4-3.2-0.7-4.8l0,0l0,0c-0.7-6.7,0.4-13.4,2.2-19.9c1.8-6.5,4.3-12.7,6.3-19.1
					c1.1-3.2,1.5-6.5,2.7-9.6c1.2-3.1,2.8-6.1,4.4-9c1.6-2.9,3.3-5.8,4.5-8.9c1.3-3.1,2.2-6.3,2.7-9.6l0.1-0.6l0.2,0.6
					c1.4,5.1,2,10.5,1.9,15.8c-0.1,5.3-0.9,10.6-2,15.8c-1.1,5.2-2.5,10.4-3.9,15.5c-1.5,5.1-2.7,10.3-3.5,15.5
					c-1.6,10.5-1.6,21.2-0.7,31.8c0.9,10.6,2.7,21.1,4.8,31.5c2.1,10.4,4.6,20.8,6.8,31.2c1.1,5.2,2.2,10.4,3.1,15.6
					c0.9,5.2,1.2,10.6,1.2,15.9c0,5.3-0.3,10.6-0.5,16c-0.2,5.3-0.5,10.6-0.3,15.9c0.2,5.3,1.2,10.6,2.3,15.8
					c1.2,5.2,2.6,10.3,4.1,15.4l0,0l0,0c0.5,4.1,0.9,8.2,1.1,12.4c0,1,0.1,2.1,0,3.1c-0.1,1-0.3,2.1-0.5,3.1c-0.5,2-1.1,4-1.9,5.9
					l0,0l0,0c-1.1,1.7-2.3,3.3-3.7,4.8c-0.3,0.4-0.7,0.7-1.1,1.1c-0.4,0.4-0.9,0.5-1.3,0.9c-0.8,0.6-1,1.7-0.8,2.7l0,0
					c0.1,0.2,0.4,0.5,0.7,0.5c0.3,0.1,0.6,0,0.8-0.1l0.1,0l0,0.1c0,0.6,0.3,1.4,0.9,1.6c0.3,0.1,0.6,0.1,1,0.1
					c0.3,0,0.7-0.1,0.8-0.3l0.1-0.2l0,0.2c0,0.3,0.1,0.7,0.3,0.9c0.2,0.3,0.5,0.3,0.9,0.3c0.3,0,0.7,0,1-0.1c0.2,0,0.3-0.1,0.5-0.2
					c0.1,0,0.1-0.1,0.2-0.1c0,0,0.2-0.2,0.3-0.1c0.2,0.3,0.3,0.6,0.6,0.8c0.3,0.1,0.7,0.2,1,0.2c0.7,0.1,1.3-0.2,1.8-0.6l0.1,0
					l0,0.1c0.4,0.6,1.2,0.9,1.9,0.9l0,0l0,0c1.1,0.1,2.4-0.2,3.2-1c0.8-0.8,1.3-1.9,1.6-3l0.5-1.7c0.1-0.3,0.2-0.6,0.3-0.8
					c0.1-0.3,0.3-0.5,0.6-0.7c0.5-0.3,1.1-0.5,1.5-0.9c0.2-0.2,0.3-0.4,0.4-0.7c0-0.3,0-0.6,0-0.9c0-1.2,0.1-2.3-0.1-3.5
					c-0.1-0.6-0.3-1.1-0.4-1.7c-0.2-0.6-0.3-1.1-0.4-1.7c-0.1-0.6-0.2-1.2-0.1-1.8c0-0.3,0.1-0.6,0.3-0.8c0.1-0.3,0.2-0.5,0.3-0.8
					c0.2-0.6,0.2-1.1,0.2-1.7c0-0.6-0.3-1.2-0.8-1.4l0,0l0,0c-0.2-1.1-0.2-2.3-0.2-3.4l0-3.4l0-6.8l0,0l0,0
					c0.5-5.9,1.4-11.8,2.4-17.7c1-5.9,2.4-11.6,3.2-17.5c1.7-11.8,2.5-23.6,3.1-35.5c0.6-11.9,0.8-23.8,1.2-35.6
					c0.3-11.9,0.7-23.8,1.7-35.6l0,0l0,0l1.5-0.2l0,0l0,0c1,11.8,1.3,23.7,1.6,35.6c0.3,11.9,0.6,23.8,1.1,35.6
					c0.5,11.9,1.3,23.7,3,35.5c0.4,2.9,1,5.9,1.5,8.8c0.6,2.9,1.2,5.8,1.7,8.7c1,5.8,1.9,11.7,2.4,17.7l0,0l-0.3,7.8l-0.1,3.9
					c0,1.3,0,2.6-0.2,3.9l0,0l0,0c-0.5,0.3-0.8,0.9-0.8,1.4c0,0.6,0,1.2,0.2,1.7c0.1,0.3,0.2,0.6,0.3,0.8c0.2,0.2,0.3,0.5,0.3,0.8
					c0.1,0.6,0,1.2-0.1,1.8c-0.1,0.6-0.2,1.2-0.4,1.7c-0.1,0.6-0.4,1.1-0.4,1.7c-0.1,1.2-0.1,2.3-0.1,3.5c0,0.3,0,0.6,0,0.9
					c0,0.3,0.2,0.6,0.4,0.8c0.4,0.4,1,0.6,1.5,0.9c0.6,0.3,0.7,0.9,0.9,1.5l0.5,1.7c0.4,1.1,0.8,2.2,1.6,3.1
					c0.9,0.8,2.1,1.1,3.2,1.1l0,0c0.7,0.1,1.5-0.3,1.9-0.9l0,0l0,0c0.5,0.4,1.2,0.7,1.9,0.6c0.3-0.1,0.7-0.1,1-0.2
					c0.3-0.1,0.4-0.5,0.6-0.8c0.1-0.1,0.2,0,0.2,0.1c0.1,0.1,0.1,0.1,0.2,0.1c0.1,0.1,0.3,0.1,0.5,0.2c0.3,0.1,0.7,0.1,1,0.1
					c0.3,0,0.7,0,0.9-0.3c0.2-0.3,0.3-0.6,0.3-1l0,0l0,0c0.2,0.3,0.6,0.4,0.9,0.4c0.3,0,0.7,0,1-0.1c0.3-0.1,0.6-0.4,0.7-0.7
					c0.2-0.3,0.2-0.6,0.2-1l0,0l0,0c0.3,0.1,0.6,0.2,0.9,0.1c0.3-0.1,0.5-0.3,0.7-0.6l0,0c0.2-1-0.1-2.1-0.9-2.8
					c-0.4-0.3-0.9-0.5-1.3-0.9c-0.4-0.3-0.7-0.7-1.1-1.1c-1.3-1.5-2.5-3.2-3.7-4.8l0,0c-0.6-1.5-1.1-3-1.5-4.5
					C299.3,524,299,522.4,298.9,520.8z"/>
			</g>
		</g>
		<g>
			<path class="st3" d="M341.9,357c0.4-1.2,1-2.4,1.8-3.4c0.8-1,1.8-1.9,2.6-2.8c0.4-0.5,0.8-1,1-1.6c0.3-0.6,0.4-1.2,0.5-1.8
				c0.2-1.2,0.1-2.5,0.1-3.8c0.2,1.3,0.3,2.5,0.2,3.8c-0.1,1.3-0.7,2.6-1.5,3.5c-0.9,1-1.8,1.8-2.6,2.8
				C343.1,354.7,342.4,355.8,341.9,357z"/>
			<path class="st3" d="M345.3,357c0.9-1.5,1.9-3,2.9-4.4l1.5-2.1c0.5-0.7,1-1.5,1-2.4c0.1,0.9-0.3,1.8-0.8,2.5
				c-0.5,0.7-1,1.5-1.5,2.2C347.5,354.3,346.4,355.7,345.3,357z"/>
		</g>
		<path class="st3" d="M211.2,361.4c-0.5-1.2-1.2-2.3-2-3.3c-0.8-1-1.8-1.8-2.6-2.8c-0.9-1-1.4-2.2-1.5-3.5c-0.1-1.3,0-2.6,0.2-3.8
			c0,1.3-0.1,2.6,0.1,3.8c0.1,0.6,0.3,1.2,0.5,1.8c0.3,0.6,0.6,1.1,1,1.6c0.8,1,1.8,1.8,2.6,2.8C210.2,359,210.8,360.1,211.2,361.4z
			"/>
		<path class="st3" d="M207.8,361.4c-1.1-1.4-2.1-2.8-3.2-4.2c-0.5-0.7-1-1.4-1.5-2.2c-0.5-0.7-0.9-1.6-0.8-2.5c0,0.9,0.5,1.7,1,2.4
			l1.5,2.1C205.9,358.4,206.9,359.9,207.8,361.4z"/>
		<path class="st3" d="M215.6,327.7c-0.2-0.4-0.5-0.7-0.7-1.1c-0.3-0.3-0.5-0.6-0.9-0.9c-0.3-0.3-0.7-0.5-1-0.7
			c-0.4-0.2-0.8-0.3-1.2-0.5c0.4,0,0.9,0,1.3,0.1c0.4,0.1,0.8,0.4,1.2,0.6C215.1,326,215.6,326.9,215.6,327.7z"/>
		<path class="st4" d="M297.9,447.6c0.3-0.1,0.7-0.1,1-0.3c0.6-0.4,0.7-1.3,0.5-2c-0.2-0.7-0.5-1.4-0.4-2.1c0.5-0.2,1,0.3,1.6,0.2
			c0.8-0.1,1-1.1,1-1.9c0-2.2-0.1-4.7-1.8-6.2c-0.5-0.5-1.4-0.9-2-0.5c-0.5,0.3-0.6,1-0.8,1.5c-0.2,0.6-0.6,1.2-1.2,1.2
			c-0.2,0-0.4-0.1-0.6-0.3c-0.5-0.3-1.1-0.7-1.6-1c-0.2-0.1-0.3-0.2-0.5-0.2c-0.3,0-0.4,0.4-0.4,0.7c0,0.3,0.1,0.6-0.1,0.9
			c-0.2,0.4-0.8,0.4-1.3,0.3c-0.4-0.1-0.9-0.3-1.3-0.1c-0.7,0.3-0.7,1.2-1.3,1.6c-0.3,0.2-0.7,0.2-1,0.3c-0.3,0.1-0.7,0.4-0.5,0.7
			c0.1,0.1,0.2,0.2,0.3,0.3c0.7,0.5,0.9,4.9,1.5,5.5c1.6,1.5,3.3-0.5,4.4,1.4c0.6,1.1,0.5,1.4,1.7,1.2
			C296,448.6,297,447.8,297.9,447.6z"/>
		<path class="st5" d="M298.1,445.5c0.2-0.4,0-0.8-0.1-1.2c-0.1-0.4,0.1-1,0.5-1c0.2,0,0.4,0,0.5-0.1c0.1-0.1,0.2-0.2,0.2-0.3
			c0.4-1.5,0.3-3.1-0.4-4.4c-0.2-0.4-0.5-0.8-0.9-1.1s-1.1-0.3-1.5,0c-0.7,0.5-0.7,1.6-1.6,1.7c-0.5,0.1-0.8-0.3-1.2-0.6
			s-0.9-0.5-1.3-0.1c-0.4,0.4,0,1-0.4,1.4c-0.1,0.1-0.4,0.2-0.6,0.2c-0.3,0-0.7,0.1-1,0.2c-0.3,0.1-0.1,0.1-0.1,0.4
			c0,0.3,0,4.3,0.2,4.5c1.6,1.4,2.4,0.2,3.7,1.8C295.1,447.7,297.5,446.6,298.1,445.5z"/>
		<path class="st6" d="M296.1,444.8c0.1,0,0.2-0.1,0.2-0.1c0.1-0.1,0.1-0.2,0.1-0.2c0-0.5-0.3-1,0-1.4c0.2-0.3,0.5-0.4,0.8-0.6
			c0.7-0.5,0.6-1.5,0.2-2.2c-0.2-0.3-0.4-0.6-0.8-0.8c-0.4-0.2-0.8-0.2-1.1,0.1c-0.5,0.4-0.5,1.2-1.1,1.4c-0.3,0.1-0.5,0-0.8,0
			c-0.3,0-0.6,0-0.7,0.2c-0.1,0.1-0.1,0.3-0.3,0.4c-0.1,0-0.2,0-0.2,0c-0.2,0.1-0.1,0.3,0,0.5c0.3,0.5-0.1,2,0.3,2.4
			c0.5,0.5,1.7,0,2,0.6c0.2,0.3,0.1,0.4,0.5,0.4C295.3,445.3,295.9,445,296.1,444.8z"/>
		<path class="st4" d="M264.6,200.5c1.9,0.5,3.1-0.7,5-0.5c1.1,0.1,2.5,0.7,3.3-0.1c0.3-0.3,0.5-0.7,0.8-1c0.6-0.6,1.5-0.5,2.3-0.4
			c2.2,0.2,4.5-0.1,6.3-1.3c1.7-1.2,2.7-3.2,4.2-4.8c-0.3,0.4-2.7,0.3-3.3,0.3c-1.2,0.1-2.3,0.2-3.5,0.3c-2.3,0.2-4.7,0.3-7,0.2
			c-1.2,0-2.3-0.1-3.5-0.2c-0.7-0.1-9.2-1.2-8.6-0.7C265.8,196,264.3,200.4,264.6,200.5z"/>
		<path class="st7" d="M264.4,197.5c0.1,0.2,0.2,0.5,0.2,0.7c0.1,0.2,0.2,0.3,0.4,0.3c0.7,0.4,1.3-0.6,2-0.3
			c0.4,0.2,0.9,0.3,1.3,0.1c0.5-0.3,0.7-1.2,1.2-1.2c0.3,0,0.6,0.3,0.9,0.5c0.5,0.2,1.1-0.1,1.4-0.4c0.4-0.4,0.7-0.8,1.2-1
			c0.7-0.3,1.6,0,2.4,0.1c1.4,0.2,2.9-0.2,4.1-0.9c1.2-0.7,2.2-1.5,3.2-2.5c-4,0.9-8.9,0.1-12.6,0.3c-1.1,0.1-9.7-0.9-9.7-0.9
			S263.1,193.9,264.4,197.5z"/>
		<path class="st8" d="M272.6,214.8c0.8-0.2,1.5,0.2,2.2,0.5c0.7,0.3,1.3,0.7,2.1,0.8c0.7,0.1,1.4-0.3,2-0.7c0.6-0.4,1.3-0.9,2-1.1
			c-0.7,0.3-1.3,0.8-1.9,1.3c-0.3,0.2-0.6,0.5-1,0.6c-0.4,0.2-0.8,0.3-1.2,0.2c-0.8-0.1-1.5-0.6-2.1-0.9
			C274,215.1,273.3,214.7,272.6,214.8z"/>
		<path class="st3" d="M225.6,284.5c0-0.4,0-0.9-0.1-1.3c-0.1-0.4-0.2-0.8-0.3-1.2c-0.1-0.4-0.3-0.8-0.6-1.1c-0.2-0.4-0.5-0.7-0.8-1
			c0.4,0.2,0.8,0.4,1.1,0.8c0.3,0.3,0.5,0.7,0.7,1.2C226,282.7,226,283.7,225.6,284.5z"/>
		<g class="st9">
			<path class="st10" d="M345.8,274.5c-0.2,0.3-0.6,0.2-0.9,0.2c-0.3-0.1-0.6-0.2-0.9-0.1c-0.5,0.2-0.5,0.8-0.9,1.1
				c-0.2,0.1-0.5,0.1-0.7,0.2c-0.2,0.1-0.5,0.3-0.4,0.5c0,0.1,0.1,0.2,0.2,0.2c0.5,0.4,0.5,3.4,1,3.8c1.1,1.1,2.3-0.3,3,1.1
				c0.4,0.7,0.3,1,1,0.9c0-2.9-0.6-5.5-1.3-8C345.9,274.3,345.9,274.4,345.8,274.5z"/>
			<path class="st11" d="M345.7,274.9c-0.3,0.2,0,0.7-0.3,1c-0.1,0.1-0.2,0.1-0.4,0.1c-0.2,0-0.5,0-0.7,0.1
				c-0.2,0.1-0.1,0.1-0.1,0.3c0,0.2-0.1,3,0.1,3.1c1.1,1,1.6,0.2,2.5,1.3c0.1,0.1,0.2,0.2,0.3,0.2c-0.1-2.2-0.6-4.2-1.1-6.2
				C345.9,274.8,345.8,274.9,345.7,274.9z"/>
			<path class="st12" d="M346.4,276.7c-0.2,0-0.4,0-0.5,0.1c-0.1,0.1-0.1,0.2-0.2,0.3c-0.1,0-0.1,0-0.2,0c-0.1,0.1-0.1,0.2,0,0.3
				c0.2,0.3-0.1,1.4,0.2,1.6c0.3,0.3,1,0.1,1.3,0.4c-0.1-0.9-0.3-1.8-0.5-2.7C346.5,276.8,346.4,276.8,346.4,276.7z"/>
		</g>
		<g class="st9">
			<path class="st10" d="M207,273.8c0.2,0.3,0.6,0.3,0.9,0.2c0.3-0.1,0.6-0.2,0.9-0.1c0.4,0.2,0.5,0.8,0.9,1.1
				c0.2,0.1,0.5,0.2,0.7,0.2c0.2,0.1,0.4,0.3,0.3,0.5c0,0.1-0.1,0.2-0.2,0.2c-0.5,0.3-0.7,3.3-1.2,3.7c-1.2,1-2.3-0.4-3.1,0.9
				c-0.4,0.7-0.4,0.9-1,0.8c0.2-2.8,1-5.4,1.8-7.9C206.9,273.7,206.9,273.7,207,273.8z"/>
			<path class="st11" d="M207.1,274.3c0.3,0.3,0,0.7,0.2,1c0.1,0.1,0.2,0.1,0.4,0.1c0.2,0,0.5,0.1,0.7,0.2c0.2,0.1,0.1,0.1,0,0.3
				c0,0.2-0.1,3-0.3,3.1c-1.1,0.9-1.6,0.1-2.6,1.1c-0.1,0.1-0.2,0.1-0.3,0.2c0.3-2.2,0.8-4.2,1.5-6.1
				C206.9,274.2,207,274.2,207.1,274.3z"/>
			<path class="st12" d="M206.3,276c0.2,0,0.4,0,0.5,0.1c0.1,0.1,0.1,0.2,0.2,0.3c0.1,0,0.1,0,0.2,0c0.1,0.1,0.1,0.2,0,0.3
				c-0.2,0.3,0,1.4-0.3,1.6c-0.3,0.3-1,0-1.4,0.3c0.2-0.9,0.4-1.8,0.6-2.7C206.2,276.1,206.2,276,206.3,276z"/>
		</g>
		<path class="st3" d="M337.1,323.7c0.1-0.9,0.5-1.8,1.2-2.3c0.4-0.3,0.8-0.5,1.2-0.6c0.4-0.1,0.9-0.2,1.3-0.1
			c-0.4,0.2-0.8,0.3-1.2,0.5c-0.4,0.2-0.7,0.4-1,0.7c-0.3,0.3-0.6,0.6-0.9,0.9C337.6,323,337.3,323.3,337.1,323.7z"/>
		<path class="st3" d="M296.9,542.6c0-0.7-0.3-1.4-0.8-1.9c-0.2-0.2-0.6-0.4-0.9-0.7c-0.3-0.3-0.5-0.6-0.4-1c0,0.4,0.3,0.6,0.6,0.8
			c0.3,0.2,0.6,0.4,0.9,0.7C297,541,297.2,541.9,296.9,542.6z"/>
		<path class="st3" d="M300.6,542.4c-0.3-0.5-0.6-0.9-0.9-1.2c-0.3-0.4-0.7-0.7-1.2-1.1c0.5,0.2,1,0.5,1.4,0.9
			C300.2,541.3,300.5,541.8,300.6,542.4z"/>
		<path class="st3" d="M303.6,541.6c-0.2-0.3-0.4-0.6-0.7-0.8c-0.2-0.3-0.5-0.5-0.8-0.8c0.4,0.1,0.7,0.3,1,0.6
			C303.4,540.8,303.6,541.2,303.6,541.6z"/>
		<path class="st3" d="M306.6,540.5c-0.3-0.2-0.6-0.5-0.9-0.8c-0.3-0.3-0.6-0.5-0.8-0.9c0.4,0.1,0.7,0.4,1,0.7
			C306.2,539.8,306.4,540.1,306.6,540.5z"/>
		<path class="st3" d="M323.9,282c-0.5-0.6-0.5-1.5-0.3-2.3c0.1-0.4,0.3-0.7,0.5-1c0.2-0.3,0.5-0.6,0.9-0.8c-0.2,0.3-0.4,0.7-0.5,1
			c-0.2,0.3-0.3,0.6-0.4,1C323.9,280.6,323.8,281.3,323.9,282z"/>
		<path class="st3" d="M279.6,311.9c0.3,0.8,0.5,1.7,0.5,2.5c0,0.4,0,0.9-0.1,1.3c-0.1,0.4-0.4,1-1,1.2c-0.6,0.2-1.1,0-1.5-0.2
			c-0.4-0.2-0.8-0.5-1.1-0.9c-0.2-0.4-0.4-0.9-0.2-1.4c0.2-0.5,0.6-0.8,1-0.9c-0.3,0.3-0.6,0.6-0.6,1c0,0.4,0.1,0.7,0.3,1
			c0.2,0.3,0.5,0.5,0.9,0.7c0.3,0.1,0.7,0.2,1,0.1c0.3-0.1,0.5-0.4,0.6-0.7c0.1-0.4,0.2-0.8,0.2-1.2
			C279.6,313.6,279.6,312.7,279.6,311.9z"/>
		<path class="st3" d="M255.2,540.9c-0.3-0.8,0-1.8,0.5-2.5c0.3-0.3,0.6-0.5,0.9-0.8c0.3-0.2,0.5-0.6,0.6-1c0.1,0.4-0.1,0.9-0.4,1.2
			c-0.3,0.3-0.6,0.5-0.8,0.8C255.4,539.2,255.1,540,255.2,540.9z"/>
		<path class="st3" d="M251.6,540.6c0.1-0.6,0.3-1.2,0.7-1.7c0.4-0.5,0.8-0.9,1.4-1.1c-0.4,0.4-0.8,0.8-1.1,1.3
			C252.2,539.6,251.9,540.1,251.6,540.6z"/>
		<path class="st3" d="M248.6,539.7c0-0.5,0.2-0.9,0.4-1.2c0.3-0.3,0.6-0.6,1-0.7c-0.3,0.3-0.5,0.6-0.8,0.9
			C249,539,248.8,539.3,248.6,539.7z"/>
		<path class="st3" d="M245.8,538.4c0.1-0.4,0.4-0.8,0.7-1.2c0.3-0.3,0.6-0.6,1-0.8c-0.2,0.4-0.5,0.7-0.8,1
			C246.4,537.8,246.1,538.1,245.8,538.4z"/>
		<path class="st13" d="M297.6,439.7c-0.7,1.1-1.9,1.8-3.2,2.1c-0.6,0.1-1.3,0.2-1.9,0.1c-0.6-0.1-1.3-0.3-1.8-0.6
			c0.6,0.2,1.2,0.3,1.8,0.3c0.6,0,1.2,0,1.8-0.2c0.6-0.1,1.2-0.3,1.7-0.6C296.6,440.5,297.1,440.1,297.6,439.7z"/>
		<path class="st4" d="M255.8,447.6c-0.3-0.1-0.7-0.1-1-0.3c-0.6-0.4-0.7-1.3-0.5-2s0.5-1.4,0.4-2.1c-0.5-0.2-1,0.3-1.6,0.2
			c-0.8-0.1-1-1.1-1-1.9c0-2.2,0.1-4.7,1.8-6.2c0.5-0.5,1.4-0.9,2-0.5c0.5,0.3,0.6,1,0.8,1.5c0.2,0.6,0.6,1.2,1.2,1.2
			c0.2,0,0.4-0.1,0.6-0.3c0.5-0.3,1.1-0.7,1.6-1c0.2-0.1,0.3-0.2,0.5-0.2c0.3,0,0.4,0.4,0.4,0.7c0,0.3-0.1,0.6,0.1,0.9
			c0.2,0.4,0.8,0.4,1.3,0.3c0.4-0.1,0.9-0.3,1.3-0.1c0.7,0.3,0.7,1.2,1.3,1.6c0.3,0.2,0.7,0.2,1,0.3c0.3,0.1,0.7,0.4,0.5,0.7
			c-0.1,0.1-0.2,0.2-0.3,0.3c-0.7,0.5-0.9,4.9-1.5,5.5c-1.6,1.5-3.3-0.5-4.4,1.4c-0.6,1.1-0.5,1.4-1.7,1.2
			C257.7,448.6,256.8,447.8,255.8,447.6z"/>
		<path class="st5" d="M255.6,445.5c-0.2-0.4,0-0.8,0.1-1.2c0.1-0.4-0.1-1-0.5-1c-0.2,0-0.4,0-0.5-0.1c-0.1-0.1-0.2-0.2-0.2-0.3
			c-0.4-1.5-0.3-3.1,0.4-4.4c0.2-0.4,0.5-0.8,0.9-1.1s1.1-0.3,1.5,0c0.7,0.5,0.7,1.6,1.6,1.7c0.5,0.1,0.8-0.3,1.2-0.6
			c0.4-0.3,0.9-0.5,1.3-0.1c0.4,0.4,0,1,0.4,1.4c0.1,0.1,0.4,0.2,0.6,0.2c0.3,0,0.7,0.1,1,0.2c0.3,0.1,0.1,0.1,0.1,0.4
			c0,0.3,0,4.3-0.2,4.5c-1.6,1.4-2.4,0.2-3.7,1.8C258.6,447.7,256.2,446.6,255.6,445.5z"/>
		<path class="st6" d="M257.6,444.8c-0.1,0-0.2-0.1-0.2-0.1c-0.1-0.1-0.1-0.2-0.1-0.2c0-0.5,0.3-1,0-1.4c-0.2-0.3-0.5-0.4-0.8-0.6
			c-0.7-0.5-0.6-1.5-0.2-2.2c0.2-0.3,0.4-0.6,0.8-0.8s0.8-0.2,1.1,0.1c0.5,0.4,0.5,1.2,1.1,1.4c0.3,0.1,0.5,0,0.8,0
			c0.3,0,0.6,0,0.7,0.2c0.1,0.1,0.1,0.3,0.3,0.4c0.1,0,0.2,0,0.2,0c0.2,0.1,0.1,0.3,0,0.5c-0.3,0.5,0.1,2-0.3,2.4
			c-0.5,0.5-1.7,0-2,0.6c-0.2,0.3-0.1,0.4-0.5,0.4C258.4,445.3,257.9,445,257.6,444.8z"/>
		<path class="st13" d="M256.1,439.7c0.7,1.1,1.9,1.8,3.2,2.1c0.6,0.1,1.3,0.2,1.9,0.1c0.6-0.1,1.3-0.3,1.8-0.6
			c-0.6,0.2-1.2,0.3-1.8,0.3c-0.6,0-1.2,0-1.8-0.2c-0.6-0.1-1.2-0.3-1.7-0.6C257.1,440.5,256.6,440.1,256.1,439.7z"/>
	</g>
	<g id="Nez_9_">
		<path class="st14" d="M273.7,158.5c-0.6-0.4-1.3-0.6-2-0.6c-0.3,0-0.7,0-1,0.1c-0.2,0-0.4,0.1-0.5,0.2c-0.2,0.1-0.3,0.1-0.5,0.1
			c-0.5-0.1-0.6-0.9-0.7-1.4c-0.1-0.5-0.2-1.2,0.3-1.6c0.3-0.3-0.2-0.7-0.5-0.5c-0.5,0.5-0.6,1.2-0.5,1.9c0.1,0.6,0.3,1.4,0.7,1.9
			c0.7,0.6,1.4,0.1,2.1,0c0.8-0.1,1.6,0.1,2.2,0.5C273.8,159.2,274.1,158.7,273.7,158.5"/>
		<path class="st14" d="M278.9,158.9c0.3-0.3,0.7-0.3,1-0.3c0.5,0,0.9,0.1,1.4,0.1c0.4,0,0.9,0,1.3-0.3c0.4-0.3,0.7-0.7,0.8-1.2
			c0.1-0.6,0-1.2-0.2-1.8c-0.1-0.4-0.7-0.2-0.6,0.2c0.1,0.5,0.3,1.2,0.1,1.7c-0.2,0.5-0.7,0.6-1.2,0.7c-1,0-2.3-0.4-3.1,0.4
			C278.1,158.8,278.6,159.2,278.9,158.9"/>
	</g>
	<path class="st15" d="M294.3,169c0,0-4.3,9.9-16.6,11.1c-12.3,1.2-19.4-10.8-19.4-10.8S284.3,167.3,294.3,169z"/>
	<path class="st16" d="M258.3,169.3c3.1,2,12.1,3.1,17.4,3.1c5.2,0,14.5-1.7,18.6-3.4c1.2-0.5,1.2-1.6,1.5-2.1
		c0.2-0.3,0.5-0.6,0.7-0.9c0.5-0.6,0.8-1.4,0.8-2.2c-3.3,1.1-6.7,2.1-10.2,2.5c-1.4,0.2-2.9,0.2-4.4,0.2c-6.1,0.1-12.2,0.2-18.3,0.1
		c-1.4,0-2.8-0.1-4.1-0.5c-0.5-0.2-1-0.4-1.5-0.6c-0.9-0.3-2.7-1-3.6-0.6C256.1,166.8,257.9,169.1,258.3,169.3z"/>
	<path class="st17" d="M297.8,162.9c0,0.1-0.1,0.2-0.1,0.3c0,0,0,0,0,0c-5.3,2.7-11.3,3.1-17.1,3.4c-3.2,0.2-6.3,0.2-9.5,0.2
		c-2.8,0-5.7-0.1-8.5-0.4c-2.8-0.3-5.6-1.1-7.7-3c0-0.1-0.1-0.2-0.1-0.2c-0.1-0.1-0.2-0.1-0.3-0.1c-0.2,0-0.4,0.2-0.2,0.4
		c0.1,0.1,0.2,0.1,0.2,0.2c3.6,6.5,7.8,13.5,15.3,15.9c7.6,2.4,15.9-0.4,21.5-5.9c3.1-3,5.4-6.7,7-10.7
		C298.4,162.8,298,162.6,297.8,162.9z M282.7,178.7c-3.7,1.4-7.9,1.7-11.7,0.7c-3.7-0.9-6.8-3.1-9.3-5.8c-2.4-2.7-4.3-5.8-6.1-9
		c3.8,2.7,9.1,2.6,13.6,2.7c6.4,0.1,12.9,0.1,19.2-0.9c3.1-0.5,6.2-1.2,9-2.6C294.5,170.4,289.5,176.2,282.7,178.7z"/>
	<g>
		<path class="st16" d="M316,128.3c-4-6.2-12.7-8.8-19.5-5.8c-6.7,3-10.6,11.2-7.6,19.5c5.1,3.5,12.1,4.1,17.7,1.5
			C312.3,140.8,316.4,135.1,316,128.3"/>
		<path class="st16" d="M236.3,128.3c4-6.2,12.7-8.8,19.5-5.8c6.7,3,10.6,11.2,7.6,19.5c-5.1,3.5-12.1,4.1-17.7,1.5
			C239.9,140.8,235.8,135.1,236.3,128.3"/>
	</g>
</g>
</svg>
