<svg viewBox="0 0 165.89 108.34" xmlns="http://www.w3.org/2000/svg"><rect fill="#fff" height="108.34" rx="17.91" width="165.89"/><path d="m158.83 27.03v2.32 12.42 2.81 10.89 5.76 13.51 2.09 2.36 1.19 2.42 15.46 4.03 2.37-2.37-4.03-15.46-2.42-1.19-2.36-2.09-13.51-5.76-10.89-2.81-12.42-2.32-19.81-3.53 3.53z" fill="none"/><g fill="#fffdf8"><path d="m165.89 21.74v-3a15.43 15.43 0 0 0 -1.89 2.77 29.78 29.78 0 0 1 -1.53 3.18 6 6 0 0 1 -1.36 1.6 3.6 3.6 0 0 1 -2.24.74v2.32c.65-.22 1.3-.42 1.95-.61 1.45-.42 1.62.48 2 1.8a25.07 25.07 0 0 1 .64 3 8.94 8.94 0 0 1 -.7 4.3c-.31.9-.7 4-1.81 4.57a.71.71 0 0 1 -.32.1 4.76 4.76 0 0 1 -1.77-.72v2.81l1.26.9a2.65 2.65 0 0 1 .95 1 2.73 2.73 0 0 1 .12 1.1l-.19 5.1a2.84 2.84 0 0 1 -.15 1 3.32 3.32 0 0 1 -1.41 1.39l-.58.42v5.76h.14c1.44 0 2-.23 2.32 1.36.33 1.77.53 3.57.95 5.32a3.76 3.76 0 0 1 .14.88 12.7 12.7 0 0 1 -.79 3.54c-.27.88-.33 2.06-1 2.76a.68.68 0 0 1 -.21.17c-.45.22-1-.13-1.59-.52v2.09a1.47 1.47 0 0 1 .82 1.34 2.49 2.49 0 0 0 .22 1 3.49 3.49 0 0 1 .4 1.53 5.53 5.53 0 0 0 -1.44-.34v2.41a2.82 2.82 0 0 1 2.18 1.45 5.25 5.25 0 0 1 .27 1.63 7.38 7.38 0 0 0 1.07 3.16 2.93 2.93 0 0 1 .63 1.5 3.68 3.68 0 0 1 -.48 1.29c-.74 1.6-.28 3.46 0 5.21a1.31 1.31 0 0 1 0 .76 1.34 1.34 0 0 1 -.51.52l-.98.67a1.12 1.12 0 0 1 -.72.28 1.16 1.16 0 0 1 -.54-.3l-.86-.73v4c.56.12 1.12.27 1.67.43a1.78 1.78 0 0 1 .36.14 17.93 17.93 0 0 0 4.11-6.8c.27-1.34.54-2.69.83-3.91 0-.56.09-1.14.09-1.72v-3.9a6 6 0 0 1 -.69-.65c-.67-.78-.45-2.16-1.28-2.72-.68-.44-1.29-.45-.82-1.44a19.74 19.74 0 0 1 1.42-2l.29-.48c.28-.5.7-1.22 1.08-1.79v-2.52c-.93.31-1.84.36-1.74-.87.08-.92.09-1.84.17-2.76.23-2.84.47-5.67.7-8.5a5.75 5.75 0 0 1 .87-3.07v-4.77a3.19 3.19 0 0 1 -2.06-3.31 16.51 16.51 0 0 1 1-5.7 21.57 21.57 0 0 1 1.08-2.28v-11.89c-.22.35-.61.4-1.22-.69-.33-.59-.7-1.12-.45-1.39a3.34 3.34 0 0 0 .83-1.14c.65-2.15-.23-4.87-.27-7.11-.04-.56.42-.28 1.04.33z"/><path d="m163.49 11.18c.43.46 1 1 1.62 1.5a17.89 17.89 0 0 0 -6.28-9v3.54a3.9 3.9 0 0 1 1.28.37c1.31.83 2.32 2.46 3.38 3.59z"/><path d="m155.78 2.24c-.28-.25-.53-.53-.79-.81a17.86 17.86 0 0 0 -6.99-1.43h-.64a4.38 4.38 0 0 1 -.16.82 14.36 14.36 0 0 1 -4.08 6.3c-2 1.84-5 2.83-5.7 5.42-.58 0-.93-.65-1-1.22a4.85 4.85 0 0 0 -.42-1.67c-.66-1.08-2.25-.83-3.46-1.19-1.46-.44-2.48-1.91-4-2.27s-3.24.54-4.69-.09a8.19 8.19 0 0 1 -1.93-1.61c-.42-.37-1.36-.51-1.67-.9s-.05-.95.09-1.59.29-1.34.49-2h-9.83c.5 1 1.08 1.94 2.1 2.19.4.1.82.07 1.21.16a1 1 0 0 1 .83.8 1.32 1.32 0 0 1 -.25.7c-1.91 3-5.38 4.53-8.66 5.88a.86.86 0 0 1 -.39.09.79.79 0 0 1 -.36-.19c-1-.78-3.1-2.05-3.23-3.47a12.8 12.8 0 0 1 .31-1.71c0-1-.37-1.93-.22-2.91a3.55 3.55 0 0 1 .66-1.54h-19a4.67 4.67 0 0 1 -.75 1c-.52.48-1.28.6-1.84 1a3.31 3.31 0 0 1 -.65.48 1.44 1.44 0 0 1 -1.14-.13 3 3 0 0 1 -1.73-2.35h-5.57a15.85 15.85 0 0 1 -.38 4.5c-.22 1.08-.37 2.18-.69 3.24a2 2 0 0 1 -1.25 1.53 5.53 5.53 0 0 0 -1.22.69c-.35.28-.42.74-.88.92a2 2 0 0 1 -2-.54 18.66 18.66 0 0 1 -1.78-2.6 34.05 34.05 0 0 1 -2.12-2.94c-.73-1.24-1.81-3.17-1.8-4.8h-2.9a.48.48 0 0 1 -.07.2.61.61 0 0 1 -.12.16c-.21.22-1 .34-1.34.52a6.21 6.21 0 0 0 -1.18.85 17.21 17.21 0 0 0 -2.12 2.32c-1.79 2.21-3.89 4.49-6.69 4.95-1.05.16-2.46 3.28-3.74 1.77-1.14-2.09.94-3.58 1.4-4.92.67-2 1.61-3.75 1.37-5.84h-2.19c-.09.55-.17 1.08-.27 1.6a8.5 8.5 0 0 1 -.86 2.59c-.48.84-1.11.72-1.85 1.25a2.41 2.41 0 0 0 -1 2.45 1 1 0 0 1 -.79 1.18 8.6 8.6 0 0 1 -7.27-2.08 13.88 13.88 0 0 1 -1.21-2.09c-.25-.56.81-2.88 1-3.46s.45-.97.63-1.45h-4.44c-5.43 5-4.48 8.67-9.31 8.23-.49-.04-3.25-1.13-3.74-1.23a11.41 11.41 0 0 1 -2.77-1c-.46-.21-2.07-.57-2.28-1s.59-2.21.79-2.74a17.89 17.89 0 0 0 -5.17 4.3c2.46.79 4.87 1.79 7.3 2.67a13.22 13.22 0 0 1 3 1.14 1.29 1.29 0 0 1 .46.5c.27.6-.06 1.49-.12 2.1-.11 1.05-.21 2.1-.33 3.15 0 .49-.12 1.39-.77 1.45-1.33.12-4.1 1.25-4.65-.48a23.62 23.62 0 0 0 -4.49-7.89c-.12-.14-.74-.77-1.32-1.44a18.36 18.36 0 0 0 -1.4 2.44c.28.35.56.68.84 1 1.34 1.43 4.29 3.26 3.65 5.37-.58 1.89-2.36 3.19-3.18 5a29.78 29.78 0 0 1 -1.53 3.18 6 6 0 0 1 -1.36 1.6 1.88 1.88 0 0 1 -.18.12v2.31c1.34-.34 1.52.53 1.9 1.82a25.07 25.07 0 0 1 .64 3 8.94 8.94 0 0 1 -.7 4.3c-.31.9-.7 4-1.81 4.57h-.03v3.83a1.82 1.82 0 0 1 .15.27 2.73 2.73 0 0 1 .12 1.1c-.07 1.63-.13 3.33-.19 5.03a3.83 3.83 0 0 1 -.08.68v8.17a2 2 0 0 1 .41 1c.33 1.77.53 3.57 1 5.32a3.76 3.76 0 0 1 .14.88 12.7 12.7 0 0 1 -.79 3.54 11.84 11.84 0 0 1 -.76 2.4v9.45a1.25 1.25 0 0 1 .08.12 5.25 5.25 0 0 1 .27 1.63 7.38 7.38 0 0 0 1.07 3.16 2.93 2.93 0 0 1 .63 1.5 3.68 3.68 0 0 1 -.48 1.29c-.74 1.6-.28 3.46 0 5.21a1.43 1.43 0 0 1 0 .65 17.75 17.75 0 0 0 1.53 2.77l.06-.25c.69-2.46 1.2-5.8 1.85-8.42a.49.49 0 0 1 .81-.24c1.34 1.24 2.81 3.08 4.18 4.11a1.44 1.44 0 0 1 .42.43 1.52 1.52 0 0 1 .13.82c-.07 3.11-.15 6.23-.22 9.34v.35a17.77 17.77 0 0 0 5.18 1.55 19.56 19.56 0 0 0 -2.51-1.58 2 2 0 0 1 -.84-.65 2 2 0 0 1 -.16-1.25c.28-3.13.67-6.26 1.16-9.37a17.38 17.38 0 0 1 3.69-1.39 2.35 2.35 0 0 1 1 .19l1.95.66a.76.76 0 0 1 .28.15.7.7 0 0 1 .15.34l.51 2.22c.59-.3.69-1.23 1.32-1.42a1.41 1.41 0 0 1 .83.1 17.48 17.48 0 0 0 3.46.93c.77.19 1.54.41 2.31.61s.91.24 1.26 1c.46 1 1.06 2 1.54 3 .37.78.48.94-.39 1.37a21 21 0 0 0 -2.47 1.23 19.73 19.73 0 0 0 -2.91 2.49c-.48.48-.93 1-1.38 1.48h3.32l.23-.28a2.61 2.61 0 0 1 .89-.8 2.52 2.52 0 0 1 1.16-.16l2.48.05a13.74 13.74 0 0 1 3.33.33 5.44 5.44 0 0 1 1.76.86h14.06a11 11 0 0 1 -1.85-4c-.57-2.66.8-2.9 3.14-3.28l8.72-1.38a25.56 25.56 0 0 1 3.89-.42 25.35 25.35 0 0 1 3.68.37l8.17 1.21a2.69 2.69 0 0 1 1.33.46 2.1 2.1 0 0 1 .6 1.15c.49 2-.4 3.7-1.83 5.09a6 6 0 0 0 -.73.84h6a22.53 22.53 0 0 0 1.37-2.68c.47-1.11.64-2.73 1.58-3.56a2.81 2.81 0 0 1 1.21-.53 11.62 11.62 0 0 1 2.76-.3h.34a1.64 1.64 0 0 1 .38.1 1.66 1.66 0 0 1 .49.38c1 1.1 1.06 2.54 1.69 3.82s1.18 0 1.6-.8a3.35 3.35 0 0 1 1.62-1.74 7.88 7.88 0 0 1 2.94-.41 2.06 2.06 0 0 1 1.13.19 1.9 1.9 0 0 1 .62.67 27.17 27.17 0 0 1 1.63 3.06c.3.62.59 1.24.89 1.85h3c-.2-.52-.42-1-.65-1.57-.65-1.51-.87-3.15-1.37-4.71a11 11 0 0 0 -1.66-2.94c-.29-.39-.59-.73-.79-1.07a1.39 1.39 0 0 1 .22-1.82c.83-1 1.87-2 3.15-1.91a3.17 3.17 0 0 0 1.33.08c1-.39 1-2.52 2.09-2.3a1 1 0 0 1 .48.26c1.39 1.13 1.75 3.16 3.06 4.37a12.37 12.37 0 0 0 3 1.66 3.65 3.65 0 0 1 2.24 2.47c.1.64-.06 1.37.33 1.89s1.34.54 2 .85a2.34 2.34 0 0 1 1.09 2.8 3.36 3.36 0 0 1 -1.85 1.94h3.21c.5-.84.88-1.76 1.31-2.64a1.22 1.22 0 0 1 .35-.48 1 1 0 0 1 .65-.13 5.26 5.26 0 0 1 3.38 1.89 14.43 14.43 0 0 1 1.12 1.36h7.55a16.38 16.38 0 0 1 2.2-4.6 1.18 1.18 0 0 1 .41-.42 1.24 1.24 0 0 1 1 .06 6.48 6.48 0 0 1 2.65 1.38 2.22 2.22 0 0 1 .45 2.73c.66-.41 1.48-.84 2.18-.49a2.21 2.21 0 0 1 .63.55c.24.26.47.52.69.79h1.64c.43 0 .85 0 1.26-.06a7.44 7.44 0 0 1 .55-1.34 15.26 15.26 0 0 1 3.08-4.26 3.39 3.39 0 0 1 1-.73 3.57 3.57 0 0 1 1.69-.15 24.26 24.26 0 0 1 3.28.49v-4l-2.19-1.84c.2.91.4 1.82.59 2.73a.6.6 0 0 1 0 .35.55.55 0 0 1 -.3.26 17.8 17.8 0 0 1 -5.21 1.75c-1.26.22-2.54.21-2.44-1.19a17.24 17.24 0 0 0 -.3-4.69c-.21-1.07-.33-2.17-.54-3.25a.65.65 0 0 1 0-.34.59.59 0 0 1 .26-.28 3.92 3.92 0 0 1 1.43-.56.77.77 0 0 1 1 .42 11.66 11.66 0 0 1 1.38 2.84 43.37 43.37 0 0 0 -.18-5c-.14-1.47.73-1.77 1.63-2.83s1.12-2.33 1.84-3.4a1.42 1.42 0 0 1 .58-.56 1.63 1.63 0 0 1 .76-.09 10.25 10.25 0 0 1 1.72.18v-2.43a6.81 6.81 0 0 0 -4.39 1.54c-.6.39-1 2-1.5 2.47-1.44 1.29-1.73 2.36-2.5 5-1.31-1.61-3-1.9-3.46-3.13s-.74-2.64-1.74-3.49c-.45-.39-1-.65-1.35-1.16a2.75 2.75 0 0 1 -.29-1.14c0-.35-.08-.8-.13-1.28 0-.32-.05-.64-.07-1a1.21 1.21 0 0 1 1.25-1.31 12.64 12.64 0 0 0 4.68-.36 30.37 30.37 0 0 1 3.07-1.11c2.18-.47 4.38.39 6.43 1.37v-2.04a10.6 10.6 0 0 0 -1-.72c-1.22-.65-2.92-2-4.35-1.75-1.8.35-3.6.71-5.41 1-.71.11-1.69.51-2-.15s0-2.09.08-2.75a2.5 2.5 0 0 1 .28-1 2.58 2.58 0 0 1 1.13-.87 17.35 17.35 0 0 1 3.5-1.24 3.11 3.11 0 0 0 1.25-.47 2.84 2.84 0 0 0 .73-1l1.71-3.41a1.91 1.91 0 0 1 .59-.78 1.75 1.75 0 0 1 .93-.21c.87 0 1.75-.06 2.62-.08v-5.84c-3.45 2.57-5.79 6.43-9.09 9.21a1.51 1.51 0 0 1 -.82.42 1.73 1.73 0 0 1 -.82-.24 6.31 6.31 0 0 0 -2.44-.31c-1.53-.07-.84-2.27-1-3.22a5.21 5.21 0 0 0 -2.51-3.65c-.89-.68-1.62-1.46-.88-2.52s2.06-1.55 3-2.26c1.17-.92 2.95-2.26 3.5-3.67a4.36 4.36 0 0 0 .22-1.61 22.26 22.26 0 0 0 -.27-3.25 2.39 2.39 0 0 1 0-1 2.15 2.15 0 0 1 .41-.66 15.34 15.34 0 0 1 2.66-2.71.73.73 0 0 1 .33-.16.77.77 0 0 1 .36.12 84.83 84.83 0 0 1 7.23 4.59v-2.78l-.32-.17c-1.38-.64-2.72-1.37-4.06-2.1-1-.55-2-1.08-3-1.73s-2.53-1.31-2.8-2.28a2.88 2.88 0 0 1 .76-2.43 3.46 3.46 0 0 1 1-.52c2.78-1.07 5.58-2.24 8.43-3.19v-2.35a14.75 14.75 0 0 0 -1.57.12 8.28 8.28 0 0 0 -2.86 1.4c-.9.55-2.47 1.37-3.18.34a11.6 11.6 0 0 1 -.87-1.93 6.26 6.26 0 0 1 -.72-1.63c0 1.19-.1 2.39-.23 3.57a2.24 2.24 0 0 1 -.56 1.5 2.2 2.2 0 0 1 -.89.41 18 18 0 0 1 -3.5.58 1.72 1.72 0 0 1 -1-.15c-.4-.24-.55-.74-.81-1.12-.68-1-2-1.23-3.2-1.67-1.7-.65-3.9-2-3.9-3.86v-3.72a2.66 2.66 0 0 1 .07-.75 2.36 2.36 0 0 1 .38-.65 18.24 18.24 0 0 1 2.08-3c1.31-1.19 2.52-.09 4 .19-.45-.94-1.7-1.91-1.71-3 0-.83 1.2-1.33 1.71-1.82a15.26 15.26 0 0 0 2-2.38 16.79 16.79 0 0 1 1.8-2.45c.65-.65 1.46-1.12 2.12-1.75.83-.78 1.06-2.85 2.4-2.94 1-.07 1.77 1.23 2.55 1.68a16 16 0 0 0 3.05 1.32 1.3 1.3 0 0 1 .83.52c.09.18.09.4.17.59.21.54 1 .68 1.79.82v-3.53c-.29-.23-.58-.45-.88-.66a3 3 0 0 1 -2.13-.79zm-22.49 9.1h-.08s.03-.04.08 0zm-21.67 1.33a1.85 1.85 0 0 1 .63-.58 18.23 18.23 0 0 1 4.84-2.19 3.86 3.86 0 0 0 1.39-.57 5.7 5.7 0 0 0 1-1.41 1.73 1.73 0 0 1 1.52-.92c1.27.09 1.33 2.12 2.43 2.75 1.34.78 3.17-1 4.5-.21a4.23 4.23 0 0 1 .67.6 4.81 4.81 0 0 0 2.63 1.31c.42.07 1.25-.15 1.59 0s.37.15.41.21 0 .22 0 .68a10.36 10.36 0 0 1 -.88 5.85c-1 1.63-3.13 2.09-4.62 3.29a37.15 37.15 0 0 0 -2.85 3.26 7.91 7.91 0 0 1 -2.46 1.7 1.36 1.36 0 0 1 -.92.15c-.59-.17-.73-.92-1-1.45-.75-1.32-2.82-1.51-3.38-2.92-.25-.64-.17-1.45-.68-1.89s-1.05-.3-1.54-.54c-.66-.31-.94-1.07-1.29-1.71-.57-1-1.72-1.1-2.13-2.36a4.08 4.08 0 0 1 .14-3.05zm18.8 37.25a11.1 11.1 0 0 0 .76 2.37c.17.4-.53.78-1 .91a5.64 5.64 0 0 1 -1.3.06c-1.29.07-2.29 1.22-3.56 1.48-1 .21-2.07-.16-3.05.12-.5.15-.94.45-1.43.59a2.84 2.84 0 0 1 -2.55-.64c-.7-.59-1.45-1.33-1.38-2.24a11 11 0 0 0 -.76-5 11.13 11.13 0 0 1 -1.15-3.63c0-1.3 1-2.76 2.29-2.54a2.21 2.21 0 0 1 .22-2.16 6.58 6.58 0 0 1 1.61-1.59l3-2.38a2.48 2.48 0 0 1 1.08-.58 2.4 2.4 0 0 1 1.3.3l3.45 1.51a2.89 2.89 0 0 1 1.31.9 2.77 2.77 0 0 1 .38 1.23c.33 2.27.67 4.54 1 6.8a4.58 4.58 0 0 1 .05 1.52c-.07.39-.24.76-.33 1.15a4.47 4.47 0 0 0 .06 1.82zm-18.93 18.59c-.43-1.27 0-2.88 2.28-2.4a1.88 1.88 0 0 0 2.09-1.46c.17-.51.17-1.11.53-1.5a3.2 3.2 0 0 1 .74-.47 8.32 8.32 0 0 0 2.39-2.48 3.89 3.89 0 0 1 1.14-1.11 4 4 0 0 1 1.07-.36 12 12 0 0 1 2-.23 1 1 0 0 1 .58.1 1 1 0 0 1 .28.36l1.55 2.76c.34.6 1.19 1.37 1.21 2.1 0 1.22-1.7 2-2.32 2.84a9 9 0 0 0 -1.49 4.59 1.46 1.46 0 0 1 -.2.79c-.15.21-.43.51-.68.4-1.49-.7-2 .68-3 1a3.32 3.32 0 0 1 -1.24.26 3.58 3.58 0 0 1 -2.15-1.25 1.41 1.41 0 0 0 -.54-.37c-.55-.18-1.07.31-1.63.42-1.92.43-2.1-2.37-2.61-3.99zm-.49-5.65c-3.3-1-6.62-2-9.85-3.27-2.77-1.06-3.63-3.69-5.12-6a2.6 2.6 0 0 1 -.63-1.59 2.52 2.52 0 0 1 .65-1.29q2.4-3.14 5-6.06a3.78 3.78 0 0 1 1-.9 3.82 3.82 0 0 1 1.72-.27h3.24a5.59 5.59 0 0 1 2.19.29 4.49 4.49 0 0 1 1.8 1.51c2.54 3.42 3.07 8.22 6.26 11 1.19 1 .3 3.48-.7 4.69a6.54 6.54 0 0 1 -2.56 1.89 4 4 0 0 1 -1.36.32 5.55 5.55 0 0 1 -1.64-.32zm-7.77-47.55a4.16 4.16 0 0 1 1.86-.37 3.78 3.78 0 0 1 1.81.79 15.9 15.9 0 0 1 4.65 6.4 41 41 0 0 0 3.61 7.12c.85 1.17 4.54 4.5 3.79 6.18-.15.32-.55.41-.89.49-2.68.59-4.85 2.72-7.55 3.18-1.74.29-3.61-.12-5.23.57-.62.26-1.17.67-1.81.87a1.66 1.66 0 0 1 -1.83-.42 2.15 2.15 0 0 1 -.29-.79c-.62-2.63-1-5.49-2-8a39.46 39.46 0 0 1 -1.77-4.24 1.47 1.47 0 0 1 0-1c.16-.34.55-.51.75-.83.42-.69-.22-1.53-.84-2s-1.33-1.26-1-2a3.11 3.11 0 0 1 .7-.84c.87-.91.79-2 1.85-2.8a17.12 17.12 0 0 1 4.14-2.31zm-19.65-10.64a11.05 11.05 0 0 1 2.57-1.67 3.75 3.75 0 0 1 1-.52 3.6 3.6 0 0 1 1.53.08l6.64 1.33a5.33 5.33 0 0 1 2.14.76 5.39 5.39 0 0 1 1.67 2.79 3.36 3.36 0 0 1 .28 1.39 3.24 3.24 0 0 1 -.41 1.17 41.32 41.32 0 0 1 -2.45 4.09 1.57 1.57 0 0 1 -.74.7 1.72 1.72 0 0 1 -1.09-.1 16.62 16.62 0 0 0 -4.29-.69 5.31 5.31 0 0 1 -2.43-.41 4.62 4.62 0 0 1 -1.62-2 52 52 0 0 1 -2.62-5.09c-.44-.87-.76-1.12-.18-1.83zm10.83 24.16c-.5.59-1.62.29-2.54.37a36.82 36.82 0 0 0 -3.65.5 15.67 15.67 0 0 1 -2.24.39 7.07 7.07 0 0 1 -4.68-1.72 11.16 11.16 0 0 1 -2.8-2.81c-.7-1.23 1.12-2.19 1.86-3.1a3.49 3.49 0 0 1 2.31-1.65c.47 0 .93.12 1.39.09 1.73-.12 2.44-2.48 4.1-3a4 4 0 0 1 1.5-.09 3.61 3.61 0 0 1 2.09.67c1 .92.78 2.58 1 4 .25 1.52 2.99 4.8 1.66 6.35zm-24.17-12.25c.84-2.17 3.05-3.49 4.33-5.44.66-1 1.07-2.16 1.79-3.13a3.16 3.16 0 0 1 3.08-1.44 3.35 3.35 0 0 1 2 2.12 23.85 23.85 0 0 0 1.08 2.85c.55 1 1.47 1.8 1.73 2.9.37 1.64-.84 3.18-2 4.42s-2.46 2.74-4.25 3.07a8.35 8.35 0 0 1 -3.14-.25c-1.1-.23-4-.29-4.79-1.05s-.25-3.23.17-4.05zm-1.55 13.68c.68-1.73 3-9.31 5.62-5.51 1.84 2.67 4.61 4.54 7.3 6.35a9.74 9.74 0 0 0 3.39 1.66c3 .59 5.91-1.75 9-1.57a3.32 3.32 0 0 1 1.71.51 3.87 3.87 0 0 1 1 1.11 14.65 14.65 0 0 1 2 7.89c0 1.78.32 3.33-1 4.73-1 1-2.35 1.66-3 3-.51 1.09-1 2.37-2.06 2.84-1.32.57-2.76-.35-3.9-1.21a28.89 28.89 0 0 1 -3-2.51c-1-1-1.88-2.12-3.21-2.32a6.51 6.51 0 0 1 -2-.25 3.08 3.08 0 0 1 -1.21-2.2c-.2-.84-.58-1.79-1.42-2-1.22-.31-2.35 1.24-3.57.91a2.48 2.48 0 0 1 -1.23-1l-3.94-5.22a5.55 5.55 0 0 1 -1-1.76 5.53 5.53 0 0 1 .52-3.45zm-3.61 40.39a.33.33 0 0 1 -.38.36c-1.84-.34-2.5-1.77-4.39-1a43.61 43.61 0 0 0 -5.82 3.15l-2.64 1.61a4.66 4.66 0 0 1 -1.41.66c-1.44.29-3.57-1-5.13-1.58a.34.34 0 0 1 -.15-.52 131.69 131.69 0 0 0 7.84-12.28.94.94 0 0 1 .26-.3.77.77 0 0 1 .52-.06c.9.1 1.49.84 2.25 1.25a5.07 5.07 0 0 0 2.54.52c.89 0 1.8-.72 2.62-.7a1.14 1.14 0 0 1 .47.16c1.2.63 2.38 1.3 3.53 2 1.33 1.08-.33 4.82-.11 6.73zm-31.6 4.94c-.81-.06-1.95-1.15-2.67-1.54s-1.82-1-2.61-1.5a.67.67 0 0 1 -.09-1 43.19 43.19 0 0 0 4.5-5.24c.84-1.15 2.22-2.55 2.54-4 .21-1-.71-2.49-.14-3.37.35-.55 1.85-.63 2.43-.71 1.72-.25 3.73-.12 5.31-.92a3.81 3.81 0 0 1 2.69-.44c1.1.25 3.9 1.11 4.51 2.12.51.84-.14 1.89-.43 2.64a20 20 0 0 1 -2.44 4.73c-1.14 1.49-2.28 3-3.45 4.43-.66.83-1.74 2.89-3.05 2.39-1.5-.57-1.16-1.53-2.88-.41-1.21.79-2.33 1.68-3.48 2.54a1.19 1.19 0 0 1 -.74.28zm-24.39-2.59a9.32 9.32 0 0 1 -2.75 1.37c-1 .44-3.24 1.58-3.08-.32.08-.92.09-1.84.17-2.76.23-2.84.47-5.67.7-8.5a5.73 5.73 0 0 1 .87-3.17c.91-1.13 2.52-1.38 4-1.38a10.44 10.44 0 0 0 4.29-.43c1-.43 1.79-1.24 2.83-1.39a3.75 3.75 0 0 1 1.52.16 4.22 4.22 0 0 1 2.11 1.18 2.37 2.37 0 0 1 .56 1.24 3.77 3.77 0 0 1 1.46-2.62 4.48 4.48 0 0 1 1.48-.51 45.33 45.33 0 0 1 4.48-.7 2.77 2.77 0 0 1 1.15.06 2.73 2.73 0 0 1 1.06.88c1.67 2 1.94 1.93 2.94 3.56a1.23 1.23 0 0 1 0 1.23c-2.12 4-4.32 8.21-8.28 9.91a8.16 8.16 0 0 1 -3 .83c-1.66 0-3.2-.85-4.85-1a12.46 12.46 0 0 0 -5.12 1.14.47.47 0 0 1 -.6-.28 13.67 13.67 0 0 0 -1-2.11c-.21.93-.27 2.82-.89 3.55zm55.25-18c-.25 2.14-2.14 4.1-4.28 4s-3.8-1.91-5.81-2.68a34.8 34.8 0 0 0 -3.38-.85c-1.12-.3-2.56-.74-3-1.82-1-2.54.24-5.36 1.13-8a27.24 27.24 0 0 0 1.48-8.29c.59-.36 1.34 0 2 .22s1.49.43 1.94-.1a3.08 3.08 0 0 0 .39-1c.51-1.66 2.55-2.19 4.26-2.47l4.53-.72a1.38 1.38 0 0 1 .83 0 1.28 1.28 0 0 1 .46.49c1.39 2.07 2.69 4.21 3.9 6.39a4.92 4.92 0 0 1 .89 3.23 5.88 5.88 0 0 1 -1.46 2.4 17.94 17.94 0 0 0 -3.88 9.13zm3.66 4a69 69 0 0 1 3-10.14 3.35 3.35 0 0 1 1.77-2.22 2.92 2.92 0 0 1 2.65.91 7.75 7.75 0 0 0 2.32 1.77c1.66.59 3.67-.49 5.19.39a4.37 4.37 0 0 1 1.07 1c1.5 1.76 3.34 2.75 4.92 4.06a4.93 4.93 0 0 1 1.34 5.78c-1 2.24-2.43 4.72-3.26 6.24a4.28 4.28 0 0 1 -2.56 2.43c-1.37.29-2.71-.67-4.11-.64-2.14 0-4 2.33-6 1.77a4.66 4.66 0 0 1 -1.74-1.11 18.86 18.86 0 0 1 -4.08-4.34 8.18 8.18 0 0 1 -.51-5.9zm-14-52.34c.25-.47.52-1.24.88-1.87.46-.82 1.08-1.39 2-.74a23.61 23.61 0 0 1 3.73 3.48 17.26 17.26 0 0 1 2.46 3.25c.32.57.87 1.81.47 2.45-.9 1.44-4.55-1.52-5.87-1.47-.63 0-1.23.27-1.86.36-1.36.2-3.39-.32-3.25-1.92a10 10 0 0 1 1.44-3.54zm-11.11 9.42c0-1.57-.15-3.43 1.87-3.7 2.66-.35 5.13.81 7.6 1.6a14 14 0 0 0 4 .77 5.12 5.12 0 0 1 2.65.69c.47.3 1 1 1.56 1.07s1.42-.32 2.13-.36a2.66 2.66 0 0 1 2.88 2.28 4.39 4.39 0 0 0 1.74 2.38c1.07.93 1.12 1.75.58 3.14a20.76 20.76 0 0 1 -2 3.52c-1 1.61-2.49 2.75-4.47 2.11a7.45 7.45 0 0 0 -5.05.66 15.24 15.24 0 0 1 -4.98 1.56 8.11 8.11 0 0 1 -5-1.74 24.4 24.4 0 0 1 -3.83-3.84 3.78 3.78 0 0 1 -1.12-2.09c-.22-2.75 1.38-5.3 1.44-8.05zm-.66 16.31c1.43 1.34 3.39 2.39 3.9 4.28a7.25 7.25 0 0 1 -.34 3.62 55.83 55.83 0 0 0 -1.23 6.26c-.2 1.48 0 3.64-.82 5a2.22 2.22 0 0 1 -.62.64c-.79.56-1.16 1.59-1.82 2.27-1.75 1.81-4.9 1.57-7 .1-3.25-2.33-4.17-6.67-6.4-10a21.76 21.76 0 0 0 -2.09-2.69c-.53-.56-1.22-.86-1.35-1.62a6.79 6.79 0 0 1 .84-2.88c.78-1.88 1.91-3.6 2.78-5.44a4.89 4.89 0 0 1 1.23-1.83 5 5 0 0 1 2-.8c2.21-.54 4.68-1.64 7-1.48 1.29.08 1.31.44 1.8 1.56a9.6 9.6 0 0 0 2.12 3.01zm-2.44-19.07c1 1.12.48 3.41-.14 4.5a10.67 10.67 0 0 0 -1 4.31 6.9 6.9 0 0 1 -.23 1.36 1.32 1.32 0 0 1 -.86.89c-.17.05-.35.05-.52.09a3.47 3.47 0 0 0 -1.12.63 4.56 4.56 0 0 1 -3.44.81c-.43-.09-.84-.25-1.26-.34-1.1-.25-2.53.14-3.46-.47-.73-.48-1.08-1.5-1.56-2.19a8.36 8.36 0 0 1 -1.53-3.07 2.87 2.87 0 0 1 1.15-3 15.11 15.11 0 0 1 3.68-1c1.47-.36 2.26-1.21 3.49-2.11 1.48-1.1 5.29-2.11 6.8-.41zm-17.21-4.14c.37-.58 1-1 1.36-1.54a3.17 3.17 0 0 0 .6-1.86.86.86 0 0 1 1.07-.78 3.75 3.75 0 0 1 2.32 2.18c.91 1.73 3 2.52 4.49 3.77l.12.1a.62.62 0 0 1 -.36 1.07 3.61 3.61 0 0 0 -2.15.77c-.58.5-.93 1.29-1.64 1.58a3 3 0 0 1 -.95.15l-3.11.13c-1.69.07-1.89-.11-2-1.72-.15-1.31-.47-2.71.25-3.85zm-6.2 2.17a.77.77 0 0 1 .12-.35.74.74 0 0 1 .39-.23q1.45-.51 2.94-.93c.14-.05.33-.08.42 0a.42.42 0 0 1 .06.19c.21 1.37 1 3.73 1.2 5.11a.29.29 0 0 1 0 .13c0 .06-.09.09-.15.12a37.77 37.77 0 0 1 -4.85 1.4c-1.63.38-.33-4.17-.13-5.44zm-2.83 9.47a19.32 19.32 0 0 0 6.21-1 1.89 1.89 0 0 1 1.41-.12 1.81 1.81 0 0 1 .65.64c1.06 1.49.77 3.35 2.38 4.89.28.27.06.8.29 1.11.44.56 1.41.49 1.8 1.08a1.75 1.75 0 0 1 .18 1c0 1.12 2.34.33.65 2.76a20.18 20.18 0 0 0 -1.12 2.66c-.59 1.32-2.17 2-2.65 3.38-.36 1 0 2.31-1.06 3a2 2 0 0 1 -.81.31 3 3 0 0 1 -2.42-.91 1.11 1.11 0 0 0 -.56-.37.93.93 0 0 0 -.54.1 8.23 8.23 0 0 1 -1.62.63 1.41 1.41 0 0 1 -1.52-.6 7.49 7.49 0 0 1 -.51-2c.14-1.56.7-2.2.84-3.76a10.4 10.4 0 0 0 -1.31 1.42.51.51 0 0 1 -.84-.04c-.75-1.49-2.78-2.74-2.86-4.35a2.88 2.88 0 0 1 .53-1.63c.45-.75-.08-1.25.52-1.89a.66.66 0 0 0 .19-.48c-.06-1.47-2-2.1-1.91-4s2.7-1.84 4.08-1.83zm-10.22 8.84a3.34 3.34 0 0 0 .83-1.14c.65-2.15-.23-4.87-.27-7.11.11-1.41 2.81 2.48 4.2 3.59a2.8 2.8 0 0 1 1.24 1.68 3.58 3.58 0 0 1 0 1.66 8.84 8.84 0 0 0 -.62 3.41c0 .43-1.2.15-1.63.19a9.34 9.34 0 0 0 -1.27.21c-.15 0-.37-.07-.33-.23a1.5 1.5 0 0 0 -.26-1.27c.11.44-.27 2.51-1.43.42-.34-.61-.71-1.14-.46-1.41zm.59 16.25c.46-1.22 1.16-2.32 1.67-3.51a24.5 24.5 0 0 0 1.51-6c1.48 0 2.57 1.37 3.35 2.63s1.64 2.67 3.06 3.06c1.21.33 2.51-.18 3.73.07 1.51.3 4.4 1.34 5.29 2.6 1.37 1.91 4.91 5.31 4.11 7.75a2.72 2.72 0 0 1 -1.19 1.42c-4.12 2.64-9.28-.72-13.48 1.79-1 .61-2.16 1.29-3.33 1a4.56 4.56 0 0 1 -1.42-.65c-2.34-1.43-4.22-1.39-4.28-4.46a16.51 16.51 0 0 1 .98-5.7zm14.75 44.18c-.62.66-1.13 1.53-2.11 1.71-.55.1-1.13 0-1.69.11s-1.41.35-2.12.47a2.37 2.37 0 0 1 -1.06 0 2.77 2.77 0 0 1 -1-.64q-2.38-2.1-4.65-4.32c-.55-.55-1.22-1-1.74-1.57-.67-.78-.45-2.16-1.28-2.72-.67-.44-1.29-.45-.82-1.44a19.74 19.74 0 0 1 1.42-2l.29-.48c.51-.9 1.48-2.61 1.84-2.63a18.57 18.57 0 0 0 5.31-1.12c1.12-.41 2.19-.93 3.33-1.26.44-.13 1-.35 1.4-.12s.54.72.84.94a2.75 2.75 0 0 0 1.23.52 6.29 6.29 0 0 0 2.2-.17 43.13 43.13 0 0 1 4.38-.62 4.92 4.92 0 0 1 1.58 0 5.37 5.37 0 0 1 1.47.7c.83.52 1.67 1 2.49 1.54s1.33.85.52 1.69l-.49.5c-1.21 1.23-2.46 2.43-3.68 3.65a1.33 1.33 0 0 1 -.56.38 1.25 1.25 0 0 1 -.63-.07l-2.22-.63a4.35 4.35 0 0 0 .7 2.74s-4.53 4.39-4.95 4.84zm12.94 6.07c-1.6-.62-3.21-1.25-4.84-1.8a38.36 38.36 0 0 0 -4.16-1.16.73.73 0 0 1 -.54-1.27 24.25 24.25 0 0 1 5-5.69l7.62-7 .82-.76a14.05 14.05 0 0 1 2.77-2.16c1-.55 2.39-.78 3.19 0 .28.29.48 2.23.88 2.31-.1-.36.21-2.24.56-2.37a2.32 2.32 0 0 1 1.08 0l1.83.29a3.17 3.17 0 0 1 1 .29c.81.45 1 1.47 1.31 2.37l.06.17c.8 2.3 2.9 3.86 4.89 5.27.59.42 1.14.76 1.73 1.18a25.3 25.3 0 0 1 -2.53 4.94 3.26 3.26 0 0 1 -.93 1 3.69 3.69 0 0 1 -.93.34l-6.96 1.79a3.85 3.85 0 0 0 -1.27.49 4.36 4.36 0 0 0 -1 1.07 18.61 18.61 0 0 1 -2.06 2.29 1.73 1.73 0 0 1 -.74.48 1.88 1.88 0 0 1 -1-.13c-1.91-.63-3.87-1.2-5.78-1.94zm16.67 5.56a5.34 5.34 0 0 1 -2.28 2.94 24.88 24.88 0 0 1 -3.7 1.73c-1.18.51-2.18 1.26-3.48.75a21.25 21.25 0 0 1 -4.18-2.42 1.74 1.74 0 0 1 -1-1.87c0-.83-.4-2.34.11-3.06 1-1.42 4 .64 5.32.24a4.22 4.22 0 0 0 1-.57c.72-.49 1.42-1 2.18-1.48 1.12-.65 2.58.43 3.55 1 .52.27 1.07.51 1.6.77 1.14.49 1.26.81.88 1.97zm19.77-7.82-1.78 2.25c-1.18.17-2.16.54-2.95-.5a6.87 6.87 0 0 0 -2.16-1.85c.18.72.93 2.29.49 3a6.73 6.73 0 0 1 -2.59 1.34 7.38 7.38 0 0 1 -1.76.22 40.52 40.52 0 0 0 -4.4.47c-1 .17-2.18.61-3.12 0a6.79 6.79 0 0 1 -1.58-1.67c-.54-.7-.72-.82.11-1.26.68-.35 1.52-.42 2.23-.73a4.58 4.58 0 0 0 1.25-.77 7.72 7.72 0 0 0 1.12-1.59 11.09 11.09 0 0 1 1.85-2.24 2.62 2.62 0 0 1 .67-.49 2.93 2.93 0 0 1 1.06-.19c3.12-.17 6.24-.33 9.36-.52 1.21-.07 1.36.23 1.75 1.33.26.73.41 1.49.62 2.23a1 1 0 0 1 .07.52 1 1 0 0 1 -.24.45zm1-6a1.15 1.15 0 0 0 -.35-.31 1.25 1.25 0 0 0 -.64-.08c-2.58.13-5.16.23-7.74.35-1.44.07-1.82-.75-2.76-1.8 0-.47-1.84-2.07-2.21-2.44a22.4 22.4 0 0 1 -2.15-2.1 24.47 24.47 0 0 1 -1.55-2.22v-.08c-.93-1.65 1-2.22 2.21-2.89 2.13-1.19 4.24-2.43 6.42-3.55a2.57 2.57 0 0 1 .85-.32 2.25 2.25 0 0 1 1.31.29 6.9 6.9 0 0 1 3.15 3.25c.22-1.15.44-2.29.65-3.43a1.1 1.1 0 0 1 .27-.62 1 1 0 0 1 .62-.19 14.74 14.74 0 0 1 5.42.21 24.79 24.79 0 0 1 4.38 2.17c1 .53 2.56.79 3.26 1.73a.56.56 0 0 1 .09.17c.32.74 0 2.28-.22 3.18v.26a32.89 32.89 0 0 1 -.9 4 1.75 1.75 0 0 1 -.38.8 2 2 0 0 1 -1.3.38 15.54 15.54 0 0 0 -3.58.63 5.05 5.05 0 0 0 -1.49.64c-1.12.75-1.19 2.31-2.19 3.09a7.19 7.19 0 0 1 -1.22-1.15zm32.5 4.47c-1.86 2.08-5 2.52-6.09 5.27-.53 1.32-.73 3.29-2 3.45-.83.11-1.47-.79-2.14-1.38-1.75-1.55-4.11-1.05-6.23-1-2.56.11-5.1-.89-7.54-1.54a20.28 20.28 0 0 0 -6.69-.28 2.34 2.34 0 0 1 -1.2-.15c-1.47-.76.47-3.19 1.16-3.8a34.29 34.29 0 0 1 2.94-2.06 23.11 23.11 0 0 0 2.86-2.88 6.85 6.85 0 0 1 1.66-1.32c2.31-1.25 4.36 0 6.79 0 1.92 0 3.81-1.06 5.71-.71 1.64.29 3 1.57 4.62 2.13s3.51.37 5.24.75a2 2 0 0 1 1.56 1.08 2.54 2.54 0 0 1 -.69 2.41zm8.28-6.44a.65.65 0 0 1 -.44.27.8.8 0 0 1 -.45-.2l-1.38-1a.75.75 0 0 0 -.59-.21.7.7 0 0 0 -.37.37 10.29 10.29 0 0 1 -.88 1.46 1.71 1.71 0 0 1 -1.47.69c-.76-.1-1.25-.88-2-1.12-1.15-.37-2.61.71-3.52-.09-.61-.54-.49-1.61-1.09-2.16a2 2 0 0 0 -1.56-.33c-1.81.22-3.73 1.16-5.36.34a6.33 6.33 0 0 0 -1.72-.95 3.69 3.69 0 0 0 -1.62.32 3.79 3.79 0 0 1 -2.83 0c-1.75-.85-1.08-2.5-.78-3.93 0-.08 0-.15 0-.23a15.66 15.66 0 0 1 1.33-5 26.87 26.87 0 0 1 1.9-2.36 10.83 10.83 0 0 0 1.6-3.14 7.51 7.51 0 0 1 .81-2.13 11.34 11.34 0 0 1 1.2-1.3c1.54-1.7 1.87-4.14 2.13-6.42 2.81.07 4.7 3.19 7.48 3.63 1.08.16 2.3-.07 3.19.57a2.56 2.56 0 0 1 .93 2.14c0 1.54-1.69 4 1.27 2.57 1-.49 2.77-1.77 3.62-.35.4.68-.09 1.78-.48 2.36a2.27 2.27 0 0 0 -.46.81c-.14.71.58 1.27 1.24 1.57s1.43.65 1.56 1.36c.16.87-.8 1.63-.69 2.51a3.66 3.66 0 0 0 .34.92 4 4 0 0 1 .07 2.29 20.43 20.43 0 0 0 -.48 2.55c-.11 1.43.39 3.08-.54 4.16zm29.12 13.2a13.19 13.19 0 0 0 -2.81 4.24 9.5 9.5 0 0 1 -.89 2.13 3.2 3.2 0 0 1 -4.42.7c-.36-.28-.66-.64-1-.94-1.28-1.11-4.92-1.39-4.54-3.54.27-1.53 3-3.91 4.32-4.57a15.52 15.52 0 0 0 3.53-2 4.28 4.28 0 0 0 1.21-1.67c.24-.62.16-1.81.7-2.26.7-.58 1.45.39 1.79.93 1 1.55 1.14 3.66 2.28 5.1a1.43 1.43 0 0 1 .4.78 1.57 1.57 0 0 1 -.61 1.07zm8.47-1a14.2 14.2 0 0 1 -.06 2.35c0 .89.47 2.56-.27 3.21-.57.5-1.73.41-2.44.57a.81.81 0 0 1 -.31 0 .72.72 0 0 1 -.36-.26c-.46-.5-.92-1-1.37-1.51-.61-.66-.94-.4-1.65-.63s-.62-.67-.34-1.29a10.47 10.47 0 0 1 .77-1.11c.38-.65.61-1.41.92-2.09a.6.6 0 0 1 .21-.28.52.52 0 0 1 .28 0h2.47c1.1-.09 1.88-.37 2.11.99zm-3.79-13.92a10.2 10.2 0 0 1 1.05 4.79c0 .8-.09 1.72.51 2.25.23.21.53.32.7.57a1.37 1.37 0 0 1 .19.47 9.75 9.75 0 0 1 .29 1.77c.1 1.43-.63 2.22-2 2.06-1-.11-2.26-.79-3.24-.59a.81.81 0 0 1 -.7-.07 1 1 0 0 1 -.23-.59c-.27-1.23-1.55-2-2.09-3.12-.25-.51-.34-1.09-.54-1.62a1.86 1.86 0 0 0 -1.11-1.21c-.42-.12-.91 0-1.28-.26s-.43-1-.39-1.51a15.74 15.74 0 0 0 -.12-3.43 16.16 16.16 0 0 0 -.35-1.68c-.08-.33-.51-1.11-.39-1.43.33-.93 5.28-.14 6.2-.09a1.56 1.56 0 0 1 .71.15c.58.35.45 1.25.87 1.79s.85.52 1.24.83a2.63 2.63 0 0 1 .64.87zm-10.82-.47a3.41 3.41 0 0 1 .43 1.23 3.63 3.63 0 0 1 -.31 1.54q-.98 2.49-1.93 5.07a7.11 7.11 0 0 1 -1.51 2.75 6.81 6.81 0 0 1 -2.77 1.37c-1.91.61-3 3.24-5 3.64-2.56.53-4.62-3.29-6.54-4.48-1.3-.8-4.23-1.87-4.5-3.45s1-2.18 1.75-3.21a6 6 0 0 0 .62-1.24c.88-2.37.42-5.26.62-7.77a8.46 8.46 0 0 1 .1-.88 2 2 0 0 1 .42-1.11 2.14 2.14 0 0 1 1.28-.5q5.31-.8 10.63-1.51a2 2 0 0 1 1.18.07 1.9 1.9 0 0 1 .7.68c.77 1.06 1.51 2.14 2.21 3.25q1.39 2.19 2.58 4.5zm9.19-23.25c.31 1.42.14 2.24-1.06 3.06-.71.49-1.6.78-2.06 1.51l2.86-.47a.19.19 0 0 1 .15 0c.06 0 .08.09.1.14.31.86.56 2.18 1.47 2.64a2.51 2.51 0 0 1 .77.59 1.62 1.62 0 0 1 .2.81c.07 1.06.14 2.13.22 3.2a1.41 1.41 0 0 1 -.09.73 1.5 1.5 0 0 1 -.8.58 12.47 12.47 0 0 0 -4 2.89 2.19 2.19 0 0 1 -1.23.86 2.93 2.93 0 0 1 -1-.16c-1-.23-2.11.05-3.07-.33a4.5 4.5 0 0 1 -1.16-.72l-4.11-3.16c-1-.78-2.1-1.69-2.24-3a3.82 3.82 0 0 1 .54-2.17c.62-1.2 2.94-3 2.42-4.37a5.56 5.56 0 0 0 -1.43-2.12c-.94-1.11-3.28-2.18-2.32-3.31.73-.85 1.52-1.93 2.46-1.7s2 2.49 2.5 3.3c-.08-1-.52-2.64-.6-3.63a.4.4 0 0 1 0-.24.37.37 0 0 1 .29-.12c1.29-.14 2.91.61 4.18.37 1.09-.21 2-.27 2.51.87.21.53.25 1.2.75 1.48s.88.06 1.33.05a2.8 2.8 0 0 1 2.42 2.42zm-.53-22.55a7 7 0 0 0 1.25-1 12.54 12.54 0 0 0 .84-2.11c0-.08.1-.17.19-.18s.17 0 .23.11a9 9 0 0 1 2.7 4.24 2.79 2.79 0 0 1 0 2c-.33.64-1 1-1.45 1.59-1.1 1.52.12 3.71-.43 5.51a4.15 4.15 0 0 1 -3.13 2.55 26.76 26.76 0 0 1 -4.21.33 1.68 1.68 0 0 0 -.93.26c-.81.63-.83 2-2.32 1.55-1.21-.38-1.21-2.57-1.21-3.56s.35-2 .42-3a14.09 14.09 0 0 0 -.25-3.17c-.07-.4-.06-.94.33-1.09a1.13 1.13 0 0 1 .65.07 4.5 4.5 0 0 0 3.2-.31 7.43 7.43 0 0 0 2.54-2 13.17 13.17 0 0 1 1.6-1.79zm-1.91-6.42a5.3 5.3 0 0 1 .21 2.66c-.15 1.59.11 3.66-1.88 3.73-1.51.05-3.29 1-4.76.57a6.75 6.75 0 0 1 -2.06-1.43c-1.66-1.33-3.81-1.89-5.57-3.08a1.93 1.93 0 0 1 -.74-.76c-.48-1.06.43-2.41.83-3.35.8-1.88 1.52-7 4.33-6.34 2 .49 3.79 2.59 4.94 4.17s3.87 1.96 4.72 3.83z"/></g><g fill="#e6eadc"><path d="m165.11 12.68c-.6-.54-1.19-1-1.62-1.5-1.06-1.13-2.07-2.76-3.38-3.59a3.9 3.9 0 0 0 -1.28-.37v19.78a3.6 3.6 0 0 0 2.24-.74 6 6 0 0 0 1.36-1.6 29.78 29.78 0 0 0 1.57-3.15 15.43 15.43 0 0 1 1.93-2.76v-.84a18 18 0 0 0 -.82-5.23z"/><path d="m160.82 53.66a2.84 2.84 0 0 0 .15-1l.19-5.1a2.73 2.73 0 0 0 -.12-1.1 2.65 2.65 0 0 0 -.95-1l-1.26-.9v10.91l.58-.42a3.32 3.32 0 0 0 1.41-1.39z"/><path d="m160.42 75.26a.68.68 0 0 0 .21-.17c.64-.7.7-1.88 1-2.76a12.7 12.7 0 0 0 .79-3.54 3.76 3.76 0 0 0 -.14-.88c-.42-1.75-.62-3.55-.95-5.32-.29-1.59-.88-1.37-2.32-1.36h-.15v13.51c.52.39 1.14.74 1.56.52z"/><path d="m160.92 42.39c1.11-.57 1.5-3.67 1.81-4.57a8.94 8.94 0 0 0 .7-4.3 25.07 25.07 0 0 0 -.64-3c-.39-1.32-.56-2.22-2-1.8-.65.19-1.3.39-1.95.61v12.44a4.76 4.76 0 0 0 1.77.72.71.71 0 0 0 .31-.1z"/><path d="m164.78 21.41c0 2.24.92 5 .27 7.11a3.34 3.34 0 0 1 -.83 1.14c-.25.27.12.8.45 1.39.61 1.09 1 1 1.22.69v-10c-.62-.61-1.08-.89-1.11-.33z"/><path d="m163.83 51.61a3.19 3.19 0 0 0 2.06 3.31v-11.29a21.57 21.57 0 0 0 -1.08 2.28 16.51 16.51 0 0 0 -.98 5.7z"/><path d="m164.32 71.26c-.08.92-.09 1.84-.17 2.76-.1 1.23.81 1.18 1.74.87v-15.2a5.75 5.75 0 0 0 -.87 3.07c-.23 2.83-.47 5.66-.7 8.5z"/><path d="m159.87 79.19a2.49 2.49 0 0 1 -.22-1 1.47 1.47 0 0 0 -.82-1.34v3.55a5.53 5.53 0 0 1 1.44.34 3.49 3.49 0 0 0 -.4-1.55z"/><path d="m158.83 102.29v2.37a18.26 18.26 0 0 0 2-1.8 1.78 1.78 0 0 0 -.36-.14c-.47-.16-1.08-.31-1.64-.43z"/><path d="m164.52 79.67a19.74 19.74 0 0 0 -1.42 2c-.47 1 .14 1 .82 1.44.83.56.61 1.94 1.28 2.72a6 6 0 0 0 .69.65v-9.08c-.38.57-.8 1.29-1.08 1.79z"/><path d="m165.8 92.15c-.29 1.22-.56 2.57-.83 3.91a17.55 17.55 0 0 0 .83-3.91z"/><path d="m105.45 9.63a.79.79 0 0 0 .36.19.86.86 0 0 0 .39-.09c3.28-1.35 6.75-2.89 8.66-5.88a1.32 1.32 0 0 0 .25-.7 1 1 0 0 0 -.83-.8c-.39-.09-.81-.06-1.21-.16-1-.25-1.6-1.21-2.1-2.19h-8a3.55 3.55 0 0 0 -.71 1.54c-.15 1 .27 1.93.22 2.91a12.8 12.8 0 0 0 -.31 1.71c.18 1.42 2.23 2.69 3.28 3.47z"/><path d="m79.6 2.38a1.44 1.44 0 0 0 1.14.13 3.31 3.31 0 0 0 .65-.51c.56-.43 1.32-.55 1.84-1a4.67 4.67 0 0 0 .77-1h-6.11a3 3 0 0 0 1.71 2.38z"/><path d="m133.29 11.34s-.07 0-.08 0z"/><path d="m111.62 12.67a4.08 4.08 0 0 0 -.18 3.05c.41 1.26 1.56 1.32 2.13 2.36.35.64.63 1.4 1.29 1.71.49.24 1.12.18 1.54.54s.43 1.25.68 1.89c.56 1.41 2.63 1.6 3.38 2.92.31.53.45 1.28 1 1.45a1.36 1.36 0 0 0 .92-.15 7.91 7.91 0 0 0 2.46-1.7 37.15 37.15 0 0 1 2.85-3.26c1.49-1.2 3.62-1.66 4.62-3.29a10.36 10.36 0 0 0 .88-5.85c0-.46 0-.6 0-.68s-.15-.1-.41-.21-1.17.08-1.59 0a4.81 4.81 0 0 1 -2.63-1.31 4.23 4.23 0 0 0 -.67-.6c-1.33-.79-3.16 1-4.5.21-1.11-.62-1.17-2.65-2.39-2.75a1.73 1.73 0 0 0 -1.42.91 5.7 5.7 0 0 1 -1 1.41 3.86 3.86 0 0 1 -1.39.57 18.23 18.23 0 0 0 -4.84 2.19 1.85 1.85 0 0 0 -.73.59z"/><path d="m83.58 4.67c-.55.71-.26 1 .16 1.79a52 52 0 0 0 2.62 5.09 4.62 4.62 0 0 0 1.62 2 5.31 5.31 0 0 0 2.45.42 16.62 16.62 0 0 1 4.31.72 1.72 1.72 0 0 0 1.09.1 1.57 1.57 0 0 0 .74-.7 41.32 41.32 0 0 0 2.43-4.09 3.24 3.24 0 0 0 .43-1.18 3.36 3.36 0 0 0 -.28-1.39 5.39 5.39 0 0 0 -1.65-2.75 5.33 5.33 0 0 0 -2.14-.76l-6.64-1.33a3.6 3.6 0 0 0 -1.53-.08 3.75 3.75 0 0 0 -1 .52 11.05 11.05 0 0 0 -2.61 1.64z"/><path d="m70.1 20.63c.81.76 3.69.82 4.79 1.05a8.35 8.35 0 0 0 3.14.25c1.76-.33 3.1-1.73 4.3-3.07s2.34-2.78 2-4.42c-.26-1.1-1.18-1.91-1.73-2.9a23.85 23.85 0 0 1 -1.08-2.85 3.35 3.35 0 0 0 -2-2.12 3.16 3.16 0 0 0 -3.16 1.43c-.72 1-1.13 2.13-1.79 3.13-1.28 1.95-3.49 3.27-4.33 5.44-.42.83-.88 3.36-.14 4.06z"/><path d="m81.3 28.37a7.07 7.07 0 0 0 4.7 1.72 15.67 15.67 0 0 0 2.24-.39 36.82 36.82 0 0 1 3.65-.5c.92-.08 2 .22 2.54-.37 1.31-1.55-1.43-4.83-1.71-6.39-.19-1.38.08-3-1-4a3.61 3.61 0 0 0 -2.09-.67 4 4 0 0 0 -1.5.09c-1.66.52-2.37 2.88-4.1 3-.46 0-.92-.12-1.39-.09a3.49 3.49 0 0 0 -2.31 1.65c-.74.91-2.56 1.87-1.86 3.1a11.16 11.16 0 0 0 2.83 2.85z"/><path d="m111.5 22.13a15.9 15.9 0 0 0 -4.65-6.4 3.78 3.78 0 0 0 -1.81-.79 4.16 4.16 0 0 0 -1.86.37 17.12 17.12 0 0 0 -4.24 2.26c-1.06.8-1 1.89-1.85 2.8a3.11 3.11 0 0 0 -.7.84c-.29.75.42 1.49 1 2s1.26 1.35.84 2c-.2.32-.59.49-.75.83a1.47 1.47 0 0 0 0 1 39.46 39.46 0 0 0 1.77 4.24c1 2.52 1.35 5.38 2 8a2.15 2.15 0 0 0 .29.79 1.66 1.66 0 0 0 1.83.42c.64-.2 1.19-.61 1.81-.87 1.62-.69 3.49-.28 5.23-.57 2.7-.46 4.87-2.59 7.55-3.18.34-.08.74-.17.89-.49.75-1.68-2.94-5-3.79-6.18a41 41 0 0 1 -3.56-7.07z"/><path d="m74.31 24.75c-2.62-3.8-4.94 3.78-5.62 5.51a5.53 5.53 0 0 0 -.55 3.41 5.55 5.55 0 0 0 1 1.76l3.94 5.22a2.48 2.48 0 0 0 1.23 1c1.22.33 2.35-1.22 3.57-.91.84.22 1.22 1.17 1.42 2a3.08 3.08 0 0 0 1.23 2.26 6.51 6.51 0 0 0 2 .25c1.33.2 2.26 1.36 3.21 2.32a28.89 28.89 0 0 0 3 2.51c1.14.86 2.58 1.78 3.9 1.21 1.1-.47 1.55-1.75 2.06-2.84.64-1.34 2-2 3-3 1.29-1.4 1-3 1-4.73a14.65 14.65 0 0 0 -2-7.89 3.87 3.87 0 0 0 -1-1.11 3.32 3.32 0 0 0 -1.7-.53c-3.07-.18-6 2.16-9 1.57a9.74 9.74 0 0 1 -3.37-1.66c-2.71-1.81-5.48-3.68-7.32-6.35z"/><path d="m67.27 20.81a4.39 4.39 0 0 1 -1.74-2.38 2.66 2.66 0 0 0 -2.88-2.28c-.71 0-1.42.51-2.13.36s-1.09-.77-1.56-1.07a5.12 5.12 0 0 0 -2.65-.69 14 14 0 0 1 -4-.77c-2.47-.79-4.94-2-7.6-1.6-2 .27-1.84 2.13-1.87 3.7-.06 2.75-1.66 5.3-1.48 8.05a3.78 3.78 0 0 0 1.12 2.09 24.4 24.4 0 0 0 3.83 3.84 8.11 8.11 0 0 0 5 1.74 15.24 15.24 0 0 0 4.93-1.56 7.45 7.45 0 0 1 5.05-.66c2 .64 3.45-.5 4.47-2.11a20.76 20.76 0 0 0 2-3.52c.63-1.39.58-2.21-.49-3.14z"/><path d="m54.85 4.79c-.36.63-.63 1.4-.88 1.87a10 10 0 0 0 -1.4 3.54c-.14 1.6 1.89 2.12 3.25 1.92.63-.09 1.23-.33 1.86-.36 1.32 0 5 2.91 5.87 1.47.4-.64-.15-1.88-.47-2.45a17.26 17.26 0 0 0 -2.46-3.25 23.61 23.61 0 0 0 -3.73-3.48c-.96-.65-1.58-.05-2.04.74z"/><path d="m64.1 7.74a18.66 18.66 0 0 0 1.78 2.6 2 2 0 0 0 2 .54c.46-.18.53-.64.88-.92a5.53 5.53 0 0 1 1.24-.69 2 2 0 0 0 1.24-1.53c.32-1.06.47-2.16.69-3.24a15.85 15.85 0 0 0 .39-4.5h-12.12c0 1.63 1.07 3.56 1.8 4.8a34.05 34.05 0 0 0 2.1 2.94z"/><path d="m121.93 4.49a8.19 8.19 0 0 0 1.93 1.61c1.45.63 3.15-.27 4.69.09s2.51 1.83 4 2.27c1.21.36 2.8.11 3.46 1.19a4.85 4.85 0 0 1 .38 1.67c.1.57.45 1.19 1 1.22.66-2.59 3.75-3.58 5.7-5.42a14.36 14.36 0 0 0 4.08-6.3 4.38 4.38 0 0 0 .16-.82h-26.49c-.2.66-.33 1.34-.49 2s-.45 1.14-.09 1.59 1.25.53 1.67.9z"/><path d="m38.29 27.8c-2.3-.16-4.77.94-7 1.48a5 5 0 0 0 -2 .8 4.89 4.89 0 0 0 -1.23 1.83c-.87 1.84-2 3.56-2.78 5.44a6.79 6.79 0 0 0 -.84 2.88c.13.76.82 1.06 1.35 1.62a21.76 21.76 0 0 1 2.09 2.69c2.23 3.31 3.15 7.65 6.4 10 2.06 1.47 5.21 1.71 7-.1.66-.68 1-1.71 1.82-2.27a2.22 2.22 0 0 0 .62-.64c.87-1.32.62-3.48.82-5a55.83 55.83 0 0 1 1.23-6.26 7.25 7.25 0 0 0 .34-3.62c-.51-1.89-2.47-2.94-3.9-4.28a9.6 9.6 0 0 1 -2.14-3c-.47-1.13-.49-1.49-1.78-1.57z"/><path d="m69.66 43.33a4.92 4.92 0 0 0 -.89-3.23c-1.21-2.18-2.51-4.32-3.9-6.39a1.28 1.28 0 0 0 -.46-.49 1.38 1.38 0 0 0 -.83 0l-4.53.72c-1.71.28-3.75.81-4.26 2.47a3.08 3.08 0 0 1 -.39 1c-.45.53-1.3.36-1.94.1s-1.4-.58-2-.22a27.24 27.24 0 0 1 -1.46 8.29c-.89 2.6-2.18 5.42-1.13 8 .45 1.08 1.89 1.52 3 1.82a34.8 34.8 0 0 1 3.38.85c2 .77 3.66 2.54 5.81 2.68s4-1.82 4.28-4a17.94 17.94 0 0 1 3.86-9.2 5.88 5.88 0 0 0 1.46-2.4z"/><path d="m33 13.74c-1.23.9-2 1.75-3.49 2.11a15.11 15.11 0 0 0 -3.68 1 2.87 2.87 0 0 0 -1.15 3 8.36 8.36 0 0 0 1.53 3.07c.48.69.83 1.71 1.56 2.19.93.61 2.36.22 3.46.47.42.09.83.25 1.26.34a4.56 4.56 0 0 0 3.44-.81 3.47 3.47 0 0 1 1.07-.64c.17 0 .35 0 .52-.09a1.32 1.32 0 0 0 .86-.89 6.9 6.9 0 0 0 .23-1.36 10.67 10.67 0 0 1 1-4.31c.62-1.09 1.14-3.38.14-4.5-1.47-1.7-5.28-.69-6.75.42z"/><path d="m9.49 22.67c-.1 1.91 1.85 2.54 1.91 4a.66.66 0 0 1 -.19.48c-.6.64-.07 1.14-.52 1.89a2.88 2.88 0 0 0 -.53 1.63c.08 1.61 2.11 2.86 2.86 4.35a.51.51 0 0 0 .83.1 10.4 10.4 0 0 1 1.31-1.42c-.14 1.56-.7 2.2-.84 3.76a7.49 7.49 0 0 0 .51 2 1.41 1.41 0 0 0 1.52.6 8.23 8.23 0 0 0 1.65-.67.93.93 0 0 1 .54-.1 1.11 1.11 0 0 1 .56.37 3 3 0 0 0 2.42.91 2 2 0 0 0 .81-.31c1-.73.7-2 1.06-3 .48-1.36 2.06-2.06 2.65-3.38a20.18 20.18 0 0 1 1.11-2.62c1.69-2.43-.69-1.64-.65-2.76a1.75 1.75 0 0 0 -.18-1c-.39-.59-1.36-.52-1.8-1.08-.23-.31 0-.84-.29-1.11-1.61-1.54-1.32-3.4-2.38-4.89a1.81 1.81 0 0 0 -.65-.64 1.89 1.89 0 0 0 -1.41.12 19.32 19.32 0 0 1 -6.21 1c-1.41-.09-3.98-.18-4.09 1.77z"/><path d="m24.54 5.78a3.17 3.17 0 0 1 -.6 1.86c-.41.55-1 1-1.36 1.54-.72 1.14-.4 2.54-.28 3.8.14 1.61.34 1.79 2 1.72l3.11-.13a3 3 0 0 0 .95-.15c.71-.29 1.06-1.08 1.64-1.58a3.61 3.61 0 0 1 2.15-.77.62.62 0 0 0 .39-1.07l-.12-.1c-1.5-1.25-3.58-2-4.49-3.77a3.75 3.75 0 0 0 -2.32-2.13.86.86 0 0 0 -1.07.78z"/><path d="m42 10.76c1.28 1.51 2.69-1.61 3.74-1.77 2.8-.45 4.9-2.73 6.69-4.94a17.21 17.21 0 0 1 2.12-2.32 6.21 6.21 0 0 1 1.22-.85c.31-.18 1.13-.3 1.34-.52a.61.61 0 0 0 .12-.16.48.48 0 0 0 .07-.2h-12.49c.24 2.09-.7 3.88-1.37 5.84-.44 1.34-2.54 2.83-1.44 4.92z"/><path d="m30.58 7a8.6 8.6 0 0 0 7.27 2.06 1 1 0 0 0 .79-1.18 2.41 2.41 0 0 1 1-2.45c.74-.52 1.36-.43 1.85-1.24a8.5 8.5 0 0 0 .86-2.59c.1-.52.18-1 .27-1.6h-11.62c-.22.48-.44 1-.63 1.46s-1.29 2.9-1 3.46a13.88 13.88 0 0 0 1.21 2.08z"/><path d="m72.59 69.23a4.66 4.66 0 0 0 1.74 1.11c2.06.56 3.89-1.74 6-1.77 1.4 0 2.74.93 4.11.64a4.28 4.28 0 0 0 2.56-2.43c.83-1.52 2.27-4 3.26-6.24a4.93 4.93 0 0 0 -1.26-5.78c-1.58-1.31-3.42-2.3-4.92-4.06a4.37 4.37 0 0 0 -1.07-1c-1.52-.88-3.53.2-5.19-.39a7.75 7.75 0 0 1 -2.32-1.77 2.92 2.92 0 0 0 -2.65-.91 3.35 3.35 0 0 0 -1.85 2.23 69 69 0 0 0 -3 10.14 8.18 8.18 0 0 0 .54 5.91 18.86 18.86 0 0 0 4.05 4.32z"/><path d="m114 62.86a6.54 6.54 0 0 0 2.57-1.86c1-1.21 1.89-3.65.7-4.69-3.19-2.82-3.72-7.62-6.26-11a4.49 4.49 0 0 0 -1.72-1.52 5.59 5.59 0 0 0 -2.19-.29h-3.24a3.82 3.82 0 0 0 -1.72.27 3.78 3.78 0 0 0 -1 .9q-2.64 2.93-5 6.06a2.52 2.52 0 0 0 -.74 1.27 2.6 2.6 0 0 0 .6 1.57c1.49 2.33 2.35 5 5.12 6 3.23 1.25 6.55 2.26 9.85 3.27a5.55 5.55 0 0 0 1.65.32 4 4 0 0 0 1.38-.3z"/><path d="m130.68 47a4.58 4.58 0 0 0 -.05-1.52c-.33-2.26-.67-4.53-1-6.8a2.77 2.77 0 0 0 -.38-1.23 2.89 2.89 0 0 0 -1.31-.9l-3.45-1.55a2.4 2.4 0 0 0 -1.3-.3 2.48 2.48 0 0 0 -1.08.58l-3 2.38a6.58 6.58 0 0 0 -1.61 1.59 2.21 2.21 0 0 0 -.22 2.16c-1.28-.22-2.33 1.24-2.29 2.54a11.13 11.13 0 0 0 1.24 3.68 11 11 0 0 1 .76 5c-.07.91.68 1.65 1.38 2.24a2.84 2.84 0 0 0 2.55.64c.49-.14.93-.44 1.43-.59 1-.28 2.05.09 3.05-.12 1.27-.26 2.27-1.41 3.56-1.48a5.64 5.64 0 0 0 1.3-.06c.42-.13 1.12-.51 1-.91a11.1 11.1 0 0 1 -.76-2.37 4.47 4.47 0 0 1 -.07-1.82c.01-.45.18-.82.25-1.16z"/><path d="m134.88 27.69c-1.15-1.58-3-3.68-4.94-4.17-2.81-.7-3.53 4.46-4.33 6.34-.4.94-1.31 2.29-.83 3.35a1.93 1.93 0 0 0 .74.76c1.76 1.19 3.91 1.75 5.57 3.08a6.75 6.75 0 0 0 2.06 1.43c1.47.45 3.25-.52 4.76-.57 2-.07 1.73-2.14 1.88-3.73a5.3 5.3 0 0 0 -.21-2.66c-.85-1.87-3.49-2.17-4.7-3.83z"/><path d="m155.78 2.24a3 3 0 0 0 2.22.76 18 18 0 0 0 -3-1.6c.25.31.5.6.78.84z"/><path d="m157 6.4c-.08-.19-.08-.41-.17-.59a1.3 1.3 0 0 0 -.83-.52 16 16 0 0 1 -3.1-1.39c-.78-.45-1.51-1.75-2.55-1.68-1.34.09-1.57 2.16-2.4 2.94-.66.63-1.47 1.1-2.12 1.75a16.79 16.79 0 0 0 -1.8 2.45 15.26 15.26 0 0 1 -2 2.38c-.51.49-1.71 1-1.71 1.82 0 1.14 1.26 2.11 1.71 3-1.5-.28-2.71-1.38-4-.19a18.24 18.24 0 0 0 -2.08 3 2.36 2.36 0 0 0 -.38.65 2.66 2.66 0 0 0 -.07.75v3.72c0 1.82 2.2 3.21 3.9 3.86 1.15.44 2.52.65 3.2 1.67.26.38.41.88.81 1.12a1.72 1.72 0 0 0 1 .15 18 18 0 0 0 3.5-.58 2.2 2.2 0 0 0 .89-.41 2.24 2.24 0 0 0 .56-1.5c.13-1.18.21-2.38.23-3.57a6.26 6.26 0 0 0 .72 1.63 11.6 11.6 0 0 0 .87 1.93c.71 1 2.28.21 3.18-.34a8.28 8.28 0 0 1 2.86-1.4 14.75 14.75 0 0 1 1.57-.12v-19.71c-.73-.14-1.54-.28-1.79-.82z"/><path d="m146.67 41a2.79 2.79 0 0 0 0-2 9 9 0 0 0 -2.67-4.29c-.06-.06-.14-.13-.23-.11s-.15.1-.19.18a12.54 12.54 0 0 1 -.84 2.11 7 7 0 0 1 -1.25 1 13.17 13.17 0 0 0 -1.56 1.77 7.43 7.43 0 0 1 -2.54 2 4.5 4.5 0 0 1 -3.2.31 1.13 1.13 0 0 0 -.65-.07c-.39.15-.4.69-.33 1.09a14.09 14.09 0 0 1 .25 3.17c-.07 1-.36 2-.42 3s0 3.18 1.16 3.56c1.49.49 1.51-.92 2.32-1.55a1.68 1.68 0 0 1 .93-.26 26.76 26.76 0 0 0 4.21-.33 4.15 4.15 0 0 0 3.13-2.55c.55-1.8-.67-4 .43-5.51.42-.52 1.12-.88 1.45-1.52z"/><path d="m114.12 72.52c.56-.11 1.08-.6 1.63-.42a1.41 1.41 0 0 1 .54.37 3.58 3.58 0 0 0 2.15 1.25 3.32 3.32 0 0 0 1.24-.26c1-.34 1.47-1.72 3-1 .25.11.53-.19.68-.4a1.46 1.46 0 0 0 .2-.79 9 9 0 0 1 1.44-4.61c.62-.85 2.35-1.62 2.32-2.84 0-.73-.87-1.5-1.21-2.1l-1.54-2.72a1 1 0 0 0 -.28-.36 1 1 0 0 0 -.58-.1 12 12 0 0 0 -2 .23 4 4 0 0 0 -1.07.36 3.89 3.89 0 0 0 -1.14 1.11 8.32 8.32 0 0 1 -2.39 2.48 3.2 3.2 0 0 0 -.74.47c-.36.39-.36 1-.53 1.5a1.88 1.88 0 0 1 -2.09 1.46c-2.3-.48-2.71 1.13-2.28 2.4.53 1.58.71 4.38 2.65 3.97z"/><path d="m141 63.55c1.2-.82 1.37-1.64 1.06-3.06a2.8 2.8 0 0 0 -2.43-2.36c-.45 0-.94.17-1.33-.05s-.54-.95-.75-1.48c-.53-1.14-1.42-1.08-2.51-.87-1.27.24-2.89-.51-4.18-.37a.37.37 0 0 0 -.29.12.4.4 0 0 0 0 .24c.08 1 .52 2.64.6 3.63-.46-.81-1.57-3.08-2.5-3.3s-1.73.85-2.46 1.7c-1 1.13 1.38 2.2 2.32 3.31a5.56 5.56 0 0 1 1.43 2.12c.52 1.34-1.8 3.17-2.42 4.37a3.82 3.82 0 0 0 -.54 2.17c.14 1.26 1.23 2.17 2.24 3l4.11 3.16a4.5 4.5 0 0 0 1.16.72c1 .38 2.06.1 3.07.33a2.93 2.93 0 0 0 1 .16 2.19 2.19 0 0 0 1.23-.86 12.47 12.47 0 0 1 4-2.89 1.5 1.5 0 0 0 .8-.58 1.41 1.41 0 0 0 .09-.73c-.08-1.07-.15-2.14-.22-3.2a1.62 1.62 0 0 0 -.2-.81 2.51 2.51 0 0 0 -.77-.59c-.91-.46-1.16-1.78-1.47-2.64 0 0 0-.12-.1-.14a.19.19 0 0 0 -.15 0l-2.86.47c.43-.79 1.32-1.12 2.07-1.57z"/><path d="m151.24 39.87a.73.73 0 0 0 -.33.16 15.34 15.34 0 0 0 -2.81 2.65 2.15 2.15 0 0 0 -.41.66 2.39 2.39 0 0 0 0 1 22.26 22.26 0 0 1 .27 3.25 4.36 4.36 0 0 1 -.22 1.61c-.55 1.41-2.33 2.75-3.5 3.67-.91.71-2.3 1.29-3 2.26s0 1.84.88 2.52a5.21 5.21 0 0 1 2.51 3.65c.15 1-.54 3.15 1 3.22a6.31 6.31 0 0 1 2.44.31 1.73 1.73 0 0 0 .82.24 1.51 1.51 0 0 0 .82-.42c3.3-2.78 5.64-6.64 9.09-9.21v-10.86a84.83 84.83 0 0 0 -7.2-4.58.77.77 0 0 0 -.36-.13z"/><path d="m155.28 61.52a1.91 1.91 0 0 0 -.59.78l-1.69 3.41a2.84 2.84 0 0 1 -.73 1 3.11 3.11 0 0 1 -1.25.47 17.35 17.35 0 0 0 -3.5 1.24 2.58 2.58 0 0 0 -1.13.87 2.5 2.5 0 0 0 -.28 1c-.08.66-.39 2.14-.08 2.75s1.32.26 2 .15c1.81-.26 3.61-.62 5.41-1 1.43-.28 3.13 1.1 4.35 1.75a10.6 10.6 0 0 1 1 .72v-13.43c-.87 0-1.75 0-2.62.08a1.75 1.75 0 0 0 -.89.21z"/><path d="m149.41 33.06a2.88 2.88 0 0 0 -.76 2.43c.27 1 2 1.72 2.8 2.28s2 1.18 3 1.73c1.34.73 2.68 1.46 4.06 2.1l.32.17v-12.42c-2.85.95-5.65 2.12-8.43 3.19a3.46 3.46 0 0 0 -.99.52z"/><path d="m1.54 24.69a29.78 29.78 0 0 0 1.53-3.18c.82-1.77 2.6-3.07 3.18-5 .64-2.11-2.31-3.94-3.65-5.37-.28-.3-.56-.63-.84-1a17.81 17.81 0 0 0 -1.76 7.77v8.5a1.88 1.88 0 0 0 .18-.12 6 6 0 0 0 1.36-1.6z"/><path d="m.27 47.6a2.73 2.73 0 0 0 -.12-1.1 1.82 1.82 0 0 0 -.15-.27v7.15a3.83 3.83 0 0 0 .08-.68c.06-1.7.12-3.4.19-5.1z"/><path d="m1.5 68.79a3.76 3.76 0 0 0 -.14-.88c-.42-1.75-.62-3.55-1-5.32a2 2 0 0 0 -.41-1v13.1a11.84 11.84 0 0 0 .71-2.36 12.7 12.7 0 0 0 .84-3.54z"/><path d="m1.84 37.82a8.94 8.94 0 0 0 .7-4.3 25.07 25.07 0 0 0 -.64-3c-.38-1.29-.56-2.16-1.9-1.82v13.7c1.14-.58 1.53-3.68 1.84-4.58z"/><path d="m111.06 73.47c-.13-.71-.91-1.06-1.56-1.36s-1.38-.86-1.24-1.57a2.27 2.27 0 0 1 .46-.81c.39-.58.88-1.68.48-2.36-.85-1.42-2.61-.14-3.62.35-3 1.45-1.29-1-1.27-2.57a2.56 2.56 0 0 0 -.93-2.14c-.89-.64-2.11-.41-3.19-.57-2.78-.44-4.67-3.56-7.48-3.63-.26 2.28-.59 4.72-2.13 6.42a11.34 11.34 0 0 0 -1.2 1.3 7.51 7.51 0 0 0 -.81 2.13 10.83 10.83 0 0 1 -1.57 3.14 26.87 26.87 0 0 0 -1.84 2.44 15.66 15.66 0 0 0 -1.33 5v.23c-.3 1.43-1 3.08.78 3.93a3.79 3.79 0 0 0 2.83 0 3.69 3.69 0 0 1 1.56-.4 6.33 6.33 0 0 1 1.72.87c1.63.82 3.55-.12 5.36-.34a2 2 0 0 1 1.56.33c.6.55.48 1.62 1.09 2.16.91.8 2.37-.28 3.52.09.73.24 1.22 1 2 1.12a1.71 1.71 0 0 0 1.47-.69 10.29 10.29 0 0 0 .88-1.46.7.7 0 0 1 .37-.37.75.75 0 0 1 .59.21l1.38 1a.8.8 0 0 0 .45.2.65.65 0 0 0 .44-.27c.93-1.08.43-2.73.51-4.16a20.43 20.43 0 0 1 .48-2.55 4 4 0 0 0 -.07-2.29 3.66 3.66 0 0 1 -.34-.92c-.15-.83.81-1.59.65-2.46z"/><path d="m152.4 75.46a30.37 30.37 0 0 0 -3.07 1.11 12.64 12.64 0 0 1 -4.68.36 1.21 1.21 0 0 0 -1.25 1.31c0 .31 0 .63.07 1 .05.48.09.93.13 1.28a2.75 2.75 0 0 0 .29 1.14c.31.51.9.77 1.35 1.16 1 .85 1.27 2.26 1.74 3.49s2.15 1.52 3.46 3.13c.77-2.64 1.06-3.71 2.5-5 .53-.48.9-2.08 1.5-2.47a6.81 6.81 0 0 1 4.39-1.54v-3.6c-2.05-.98-4.25-1.83-6.43-1.37z"/><path d="m3.33 29.66c-.25.27.12.8.45 1.39 1.16 2.09 1.54 0 1.43-.42a1.5 1.5 0 0 1 .26 1.27c0 .16.18.27.33.23a9.34 9.34 0 0 1 1.27-.21c.43 0 1.63.24 1.63-.19a8.84 8.84 0 0 1 .62-3.41 3.58 3.58 0 0 0 0-1.66 2.8 2.8 0 0 0 -1.23-1.66c-1.39-1.11-4.09-5-4.2-3.59 0 2.24.92 5 .27 7.11a3.34 3.34 0 0 1 -.83 1.14z"/><path d="m9 17.07c.55 1.73 3.32.6 4.65.48.65-.06.72-1 .77-1.45.12-1.05.22-2.1.33-3.15.06-.61.39-1.5.12-2.1a1.29 1.29 0 0 0 -.46-.5 13.22 13.22 0 0 0 -3-1.14c-2.41-.88-4.87-1.88-7.33-2.67-.33.39-.63.8-.92 1.22.58.67 1.2 1.3 1.32 1.44a23.62 23.62 0 0 1 4.52 7.87z"/><path d="m16.5 16.81a37.77 37.77 0 0 0 4.85-1.4c.06 0 .13-.06.15-.12a.29.29 0 0 0 0-.13c-.21-1.38-1-3.74-1.2-5.11a.42.42 0 0 0 -.06-.19c-.09-.12-.28-.09-.42 0q-1.48.42-2.94.93a.74.74 0 0 0 -.39.23.77.77 0 0 0 -.12.37c-.19 1.23-1.49 5.78.13 5.42z"/><path d="m10.74 6a11.41 11.41 0 0 0 2.77 1c.48.09 3.25 1.18 3.74 1.22 4.83.45 3.88-3.22 9.31-8.22h-8.65a17.86 17.86 0 0 0 -8.66 2.24c-.2.53-1.05 2.19-.79 2.76s1.82.77 2.28 1z"/><path d="m7.22 56.07a4.56 4.56 0 0 0 1.42.65c1.17.24 2.31-.44 3.33-1 4.2-2.51 9.36.85 13.48-1.79a2.72 2.72 0 0 0 1.19-1.42c.8-2.44-2.74-5.84-4.11-7.75-.89-1.26-3.78-2.3-5.29-2.6-1.22-.25-2.52.26-3.73-.07-1.42-.39-2.27-1.81-3.06-3.06s-1.87-2.64-3.35-2.68a24.5 24.5 0 0 1 -1.51 6c-.51 1.19-1.21 2.29-1.67 3.51a16.51 16.51 0 0 0 -1 5.7c.08 3.12 1.96 3.08 4.3 4.51z"/><path d="m9.11 73c.62-.73.68-2.62.89-3.55a13.67 13.67 0 0 1 1 2.11.47.47 0 0 0 .6.28 12.46 12.46 0 0 1 5.12-1.14c1.65.14 3.19 1 4.85 1a8.16 8.16 0 0 0 3-.83c4-1.7 6.16-5.86 8.28-9.91a1.23 1.23 0 0 0 0-1.23c-1-1.63-1.27-1.56-2.94-3.56a2.73 2.73 0 0 0 -1.06-.88 2.77 2.77 0 0 0 -1.15-.06 45.33 45.33 0 0 0 -4.48.7 4.48 4.48 0 0 0 -1.48.51 3.77 3.77 0 0 0 -1.43 2.56 2.37 2.37 0 0 0 -.57-1.23 4.22 4.22 0 0 0 -2.11-1.18 3.75 3.75 0 0 0 -1.52-.16c-1 .15-1.86 1-2.83 1.39a10.44 10.44 0 0 1 -4.28.42c-1.44 0-3 .25-4 1.38a5.73 5.73 0 0 0 -.9 3.14c-.23 2.83-.47 5.66-.7 8.5-.08.92-.09 1.84-.17 2.76-.16 1.9 2.08.76 3.08.32a9.32 9.32 0 0 0 2.78-1.34z"/><path d="m30.81 74.05c.72.39 1.86 1.48 2.67 1.54a1.19 1.19 0 0 0 .74-.31c1.15-.86 2.27-1.75 3.48-2.54 1.72-1.12 1.38-.16 2.88.41 1.31.5 2.39-1.56 3.05-2.39 1.17-1.46 2.31-2.94 3.45-4.43a20 20 0 0 0 2.44-4.73c.29-.75.94-1.8.43-2.64-.61-1-3.41-1.87-4.51-2.12a3.81 3.81 0 0 0 -2.69.44c-1.58.8-3.59.67-5.31.92-.58.08-2.08.16-2.43.71-.57.88.35 2.39.14 3.37-.32 1.44-1.7 2.84-2.54 4a43.19 43.19 0 0 1 -4.5 5.24.67.67 0 0 0 .09 1c.8.55 1.74 1.05 2.61 1.53z"/><path d="m65.28 64c-1.15-.72-2.33-1.39-3.53-2a1.14 1.14 0 0 0 -.47-.16c-.82 0-1.73.66-2.62.7a5.07 5.07 0 0 1 -2.54-.52c-.76-.41-1.35-1.15-2.25-1.25a.77.77 0 0 0 -.52.06.94.94 0 0 0 -.26.3 131.69 131.69 0 0 1 -7.88 12.29.34.34 0 0 0 .15.52c1.56.53 3.69 1.87 5.13 1.58a4.66 4.66 0 0 0 1.41-.66l2.64-1.61a43.61 43.61 0 0 1 5.77-3.25c1.89-.78 2.55.65 4.39 1a.33.33 0 0 0 .38-.36c-.22-1.9 1.44-5.64.2-6.64z"/><path d="m100.39 103.43a1.9 1.9 0 0 0 -.62-.67 2.06 2.06 0 0 0 -1.13-.19 7.88 7.88 0 0 0 -2.94.41 3.35 3.35 0 0 0 -1.58 1.81c-.42.81-.94 2.11-1.6.8s-.66-2.72-1.69-3.82a1.66 1.66 0 0 0 -.49-.38 1.64 1.64 0 0 0 -.38-.1h-.34a11.62 11.62 0 0 0 -2.76.3 2.81 2.81 0 0 0 -1.21.53c-.94.83-1.11 2.45-1.58 3.56a22.53 22.53 0 0 1 -1.37 2.68h20.21c-.3-.61-.59-1.23-.89-1.85a27.17 27.17 0 0 0 -1.63-3.08z"/><path d="m78.62 101.26a2.69 2.69 0 0 0 -1.33-.46l-8.17-1.21a25.35 25.35 0 0 0 -3.68-.37 25.56 25.56 0 0 0 -3.89.42l-8.72 1.36c-2.34.38-3.71.62-3.14 3.28a11 11 0 0 0 1.85 4h25.12a6 6 0 0 1 .73-.84c1.43-1.39 2.32-3 1.83-5.09a2.1 2.1 0 0 0 -.6-1.09z"/><path d="m119.43 103.6c-.67-.31-1.57-.26-2-.85s-.23-1.25-.33-1.89a3.65 3.65 0 0 0 -2.24-2.47 12.37 12.37 0 0 1 -3-1.66c-1.31-1.21-1.67-3.24-3.06-4.37a1 1 0 0 0 -.48-.26c-1.09-.22-1 1.91-2.09 2.3a3.17 3.17 0 0 1 -1.33-.08c-1.28-.13-2.32.93-3.15 1.91a1.39 1.39 0 0 0 -.22 1.82c.2.34.5.68.79 1.07a11 11 0 0 1 1.66 2.94c.5 1.56.72 3.2 1.37 4.71.23.52.45 1 .65 1.57h12.71a3.36 3.36 0 0 0 1.85-1.94 2.34 2.34 0 0 0 -1.13-2.8z"/><path d="m124.19 105.09a1 1 0 0 0 -.65.13 1.22 1.22 0 0 0 -.35.48c-.43.88-.81 1.8-1.31 2.64h6.81a14.43 14.43 0 0 0 -1.12-1.36 5.26 5.26 0 0 0 -3.38-1.89z"/><path d="m145.09 107c-.7-.35-1.52.08-2.18.49a2.22 2.22 0 0 0 -.45-2.73 6.48 6.48 0 0 0 -2.65-1.38 1.24 1.24 0 0 0 -1-.06 1.18 1.18 0 0 0 -.41.42 16.38 16.38 0 0 0 -2.2 4.6h10.17c-.22-.27-.45-.53-.69-.79a2.21 2.21 0 0 0 -.59-.55z"/><path d="m69.67 96.74a2.34 2.34 0 0 0 1.2.15 20.28 20.28 0 0 1 6.69.28c2.44.65 5 1.65 7.54 1.54 2.12-.08 4.48-.58 6.23 1 .67.59 1.31 1.49 2.14 1.38 1.22-.16 1.42-2.13 2-3.45 1.08-2.75 4.23-3.19 6.09-5.27a2.54 2.54 0 0 0 .69-2.49 2 2 0 0 0 -1.56-1.08c-1.73-.38-3.55-.15-5.24-.75s-3-1.84-4.62-2.13c-1.9-.35-3.79.69-5.71.71-2.43 0-4.48-1.21-6.79 0a6.85 6.85 0 0 0 -1.71 1.37 23.11 23.11 0 0 1 -2.85 2.92 34.29 34.29 0 0 0 -2.94 2.06c-.69.57-2.63 3.02-1.16 3.76z"/><path d="m126.73 95.7a6.81 6.81 0 0 0 2.77-1.37 7.11 7.11 0 0 0 1.5-2.75q.93-2.55 1.88-5.12a3.63 3.63 0 0 0 .31-1.54 3.41 3.41 0 0 0 -.43-1.23q-1.19-2.31-2.57-4.5c-.7-1.11-1.44-2.19-2.21-3.25a1.9 1.9 0 0 0 -.7-.68 2 2 0 0 0 -1.18-.07q-5.31.72-10.63 1.51a2.14 2.14 0 0 0 -1.28.5 2 2 0 0 0 -.42 1.11 8.46 8.46 0 0 0 -.1.88c-.2 2.51.26 5.4-.62 7.77a6 6 0 0 1 -.62 1.24c-.7 1-2 1.77-1.75 3.21s3.2 2.65 4.5 3.45c1.92 1.19 4 5 6.54 4.48 1.98-.4 3.1-3.03 5.01-3.64z"/><path d="m139.47 98a1.43 1.43 0 0 0 -.4-.78c-1.14-1.44-1.28-3.55-2.28-5.1-.34-.54-1.09-1.51-1.79-.93-.54.45-.46 1.64-.7 2.26a4.28 4.28 0 0 1 -1.21 1.67 15.52 15.52 0 0 1 -3.53 2c-1.33.66-4 3-4.32 4.57-.38 2.15 3.26 2.43 4.54 3.54.35.3.65.66 1 .94a3.2 3.2 0 0 0 4.42-.7 9.5 9.5 0 0 0 .89-2.13 13.19 13.19 0 0 1 2.81-4.24 1.57 1.57 0 0 0 .57-1.1z"/><path d="m143.59 84.16a2.63 2.63 0 0 0 -.65-.89c-.39-.31-.94-.44-1.24-.83s-.29-1.44-.87-1.79a1.56 1.56 0 0 0 -.71-.15c-.92 0-5.87-.84-6.2.09-.12.32.31 1.1.39 1.43a16.16 16.16 0 0 1 .35 1.68 15.74 15.74 0 0 1 .12 3.43c0 .54-.06 1.2.39 1.51s.86.14 1.28.26a1.86 1.86 0 0 1 1.11 1.21c.2.53.29 1.11.54 1.62.54 1.14 1.82 1.89 2.09 3.12a1 1 0 0 0 .23.59.81.81 0 0 0 .7.07c1-.2 2.26.48 3.24.59 1.38.16 2.11-.63 2-2.06a9.75 9.75 0 0 0 -.29-1.77 1.37 1.37 0 0 0 -.19-.47c-.17-.25-.47-.36-.7-.57-.6-.53-.53-1.45-.51-2.25a10.2 10.2 0 0 0 -1.08-4.82z"/><path d="m147.38 98.08c-.23-1.36-1-1.07-2.15-1.07h-2.47a.52.52 0 0 0 -.28 0 .6.6 0 0 0 -.21.28c-.31.68-.54 1.44-.92 2.09a10.47 10.47 0 0 0 -.77 1.11c-.28.62-.3 1.09.34 1.29s1 0 1.65.63c.45.51.91 1 1.37 1.51a.72.72 0 0 0 .36.26.81.81 0 0 0 .31 0c.71-.16 1.87-.07 2.44-.57.74-.65.26-2.32.27-3.21a14.2 14.2 0 0 0 .06-2.32z"/><path d="m153.86 102a3.39 3.39 0 0 0 -1 .73 15.26 15.26 0 0 0 -3.08 4.26 7.44 7.44 0 0 0 -.55 1.34 17.82 17.82 0 0 0 9.6-3.62v-2.37a24.26 24.26 0 0 0 -3.28-.49 3.57 3.57 0 0 0 -1.69.15z"/><path d="m162.94 90.55a2.93 2.93 0 0 0 -.63-1.5 7.38 7.38 0 0 1 -1.07-3.16 5.25 5.25 0 0 0 -.27-1.63 2.82 2.82 0 0 0 -2.14-1.47v15.47l.86.73a1.16 1.16 0 0 0 .54.3 1.12 1.12 0 0 0 .77-.29l1-.68a1.34 1.34 0 0 0 .51-.52 1.31 1.31 0 0 0 0-.76c-.27-1.75-.73-3.61 0-5.21a3.68 3.68 0 0 0 .43-1.28z"/><path d="m156.35 82.7a1.42 1.42 0 0 0 -.58.56c-.72 1.07-1 2.41-1.84 3.4s-1.77 1.36-1.63 2.83a43.37 43.37 0 0 1 .18 5 11.66 11.66 0 0 0 -1.38-2.84.77.77 0 0 0 -1-.42 3.92 3.92 0 0 0 -1.43.56.59.59 0 0 0 -.26.28.65.65 0 0 0 0 .34c.21 1.08.33 2.18.54 3.25a17.24 17.24 0 0 1 .3 4.69c-.1 1.4 1.18 1.41 2.44 1.19a17.8 17.8 0 0 0 5.21-1.75.55.55 0 0 0 .3-.26.6.6 0 0 0 0-.35c-.19-.91-.39-1.82-.59-2.73l2.19 1.84v-15.5a10.25 10.25 0 0 0 -1.72-.18 1.63 1.63 0 0 0 -.73.09z"/><path d="m2.05 90.55a2.93 2.93 0 0 0 -.63-1.5 7.38 7.38 0 0 1 -1.07-3.16 5.25 5.25 0 0 0 -.27-1.63 1.25 1.25 0 0 0 -.08-.12v6.29a17.81 17.81 0 0 0 1.55 7.27 1.43 1.43 0 0 0 0-.65c-.27-1.75-.73-3.61 0-5.21a3.68 3.68 0 0 0 .5-1.29z"/><path d="m22.07 91.93a.73.73 0 0 0 .54 1.27 38.36 38.36 0 0 1 4.16 1.16c1.63.55 3.24 1.18 4.84 1.8 1.91.74 3.87 1.31 5.81 1.94a1.88 1.88 0 0 0 1 .13 1.73 1.73 0 0 0 .74-.48 18.61 18.61 0 0 0 2.06-2.29 4.36 4.36 0 0 1 1-1.07 3.85 3.85 0 0 1 1.27-.49l6.94-1.79a3.69 3.69 0 0 0 .93-.34 3.26 3.26 0 0 0 .93-1 25.3 25.3 0 0 0 2.53-4.94c-.59-.42-1.14-.76-1.73-1.18-2-1.41-4.09-3-4.89-5.27l-.06-.17c-.29-.9-.5-1.92-1.31-2.37a3.17 3.17 0 0 0 -1-.29l-1.83-.31a2.32 2.32 0 0 0 -1.08 0c-.35.13-.66 2-.56 2.37-.4-.08-.6-2-.88-2.31-.8-.82-2.18-.59-3.19 0a14.05 14.05 0 0 0 -2.77 2.16l-.82.76-7.62 7a24.25 24.25 0 0 0 -5.01 5.71z"/><path d="m12.75 92.38c.71-.12 1.41-.34 2.12-.47s1.14 0 1.69-.11c1-.18 1.49-1 2.11-1.71.42-.45 5-4.8 5-4.83a4.35 4.35 0 0 1 -.7-2.74l2.22.63a1.25 1.25 0 0 0 .63.07 1.33 1.33 0 0 0 .56-.38c1.22-1.22 2.47-2.42 3.68-3.65l.49-.5c.81-.84.38-1.14-.52-1.69s-1.66-1-2.49-1.54a5.37 5.37 0 0 0 -1.47-.7 4.92 4.92 0 0 0 -1.58 0 43.13 43.13 0 0 0 -4.38.62 6.29 6.29 0 0 1 -2.2.17 2.75 2.75 0 0 1 -1.27-.55c-.3-.22-.56-.8-.84-.94s-1 0-1.4.12c-1.14.33-2.21.85-3.33 1.26a18.57 18.57 0 0 1 -5.31 1.12c-.36 0-1.33 1.73-1.84 2.63l-.29.48a19.74 19.74 0 0 0 -1.42 2c-.47 1 .15 1 .82 1.44.83.56.61 1.94 1.28 2.72.52.59 1.19 1 1.74 1.57q2.26 2.22 4.65 4.32a2.77 2.77 0 0 0 1 .64 2.37 2.37 0 0 0 1.05.02z"/><path d="m31.06 103.14c.87-.43.76-.59.39-1.37-.48-1-1.08-2-1.54-3-.35-.78-.42-.79-1.26-1s-1.54-.42-2.31-.61a17.48 17.48 0 0 1 -3.46-.93 1.41 1.41 0 0 0 -.83-.1c-.63.19-.73 1.12-1.32 1.42l-.51-2.22a.7.7 0 0 0 -.15-.34.76.76 0 0 0 -.28-.15l-1.95-.66a2.35 2.35 0 0 0 -1-.19 17.38 17.38 0 0 0 -3.69 1.39c-.49 3.11-.88 6.24-1.16 9.37a2 2 0 0 0 .16 1.25 2 2 0 0 0 .84.65 19.56 19.56 0 0 1 2.44 1.58 18.26 18.26 0 0 0 2.46.18h6.41c.45-.5.9-1 1.38-1.48a19.73 19.73 0 0 1 2.91-2.49 21 21 0 0 1 2.47-1.3z"/><path d="m32.38 107.15-2.48-.05a2.52 2.52 0 0 0 -1.16.16 2.61 2.61 0 0 0 -.89.8l-.23.28h9.85a5.44 5.44 0 0 0 -1.76-.86 13.74 13.74 0 0 0 -3.33-.33z"/><path d="m47.47 99.7c-.53-.26-1.08-.5-1.6-.77-1-.52-2.43-1.6-3.55-1-.76.44-1.46 1-2.18 1.48a4.22 4.22 0 0 1 -1 .57c-1.28.4-4.31-1.66-5.32-.24-.51.72-.08 2.23-.11 3.06a1.74 1.74 0 0 0 1 1.87 21.25 21.25 0 0 0 4.18 2.42c1.3.51 2.3-.24 3.48-.75a24.88 24.88 0 0 0 3.7-1.73 5.34 5.34 0 0 0 2.28-2.94c.31-1.11.19-1.43-.88-1.97z"/><path d="m52.9 98.82a40.52 40.52 0 0 1 4.4-.47 7.38 7.38 0 0 0 1.76-.22 6.73 6.73 0 0 0 2.59-1.34c.44-.7-.31-2.27-.49-3a6.87 6.87 0 0 1 2.16 1.85c.79 1 1.77.67 2.95.5l1.78-2.25a1 1 0 0 0 .24-.42 1 1 0 0 0 -.07-.52c-.21-.74-.36-1.5-.62-2.23-.39-1.1-.54-1.4-1.75-1.33-3.12.19-6.24.35-9.36.52a2.93 2.93 0 0 0 -1.06.19 2.62 2.62 0 0 0 -.67.49 11.09 11.09 0 0 0 -1.85 2.24 7.72 7.72 0 0 1 -1.12 1.59 4.58 4.58 0 0 1 -1.25.77c-.71.31-1.55.38-2.23.73-.83.44-.65.56-.11 1.26a6.79 6.79 0 0 0 1.58 1.67c.94.58 2.11.15 3.12-.03z"/><path d="m57.52 86c.94 1 1.32 1.87 2.76 1.8 2.58-.12 5.16-.22 7.74-.35a1.25 1.25 0 0 1 .64.08 1.15 1.15 0 0 1 .35.31 7.19 7.19 0 0 0 1.17 1.16c1-.78 1.07-2.34 2.19-3.09a5.05 5.05 0 0 1 1.49-.64 15.54 15.54 0 0 1 3.58-.63 2 2 0 0 0 1.3-.38 1.75 1.75 0 0 0 .38-.8 32.89 32.89 0 0 0 .9-4c0-.08 0-.17 0-.26.17-.9.54-2.44.22-3.18a.56.56 0 0 0 -.09-.17c-.7-.94-2.26-1.2-3.26-1.73a24.79 24.79 0 0 0 -4.38-2.17 14.74 14.74 0 0 0 -5.42-.21 1 1 0 0 0 -.62.19 1.1 1.1 0 0 0 -.27.62c-.21 1.14-.43 2.28-.65 3.43a6.9 6.9 0 0 0 -3.24-3.25 2.25 2.25 0 0 0 -1.31-.3 2.57 2.57 0 0 0 -.85.32c-2.15 1.12-4.25 2.36-6.38 3.55-1.19.67-3.14 1.24-2.21 2.89v.08a24.47 24.47 0 0 0 1.55 2.22 22.4 22.4 0 0 0 2.15 2.1c.42.41 2.26 1.97 2.26 2.41z"/><path d="m10 95.67c-1.32-1-2.79-2.87-4.15-4.11a.49.49 0 0 0 -.85.24c-.65 2.62-1.16 6-1.85 8.42l-.06.25a18 18 0 0 0 7.19 6.14c0-.11 0-.23 0-.35.07-3.11.15-6.23.22-9.34a1.52 1.52 0 0 0 -.13-.82 1.44 1.44 0 0 0 -.37-.43z"/></g></svg>