<svg xmlns="http://www.w3.org/2000/svg" xmlns:xlink="http://www.w3.org/1999/xlink" viewBox="0 0 165.89 108.34"><defs><style>.a{fill:url(#a);}.b{opacity:0.7;}.c,.e{fill:#fff;}.d,.e{opacity:0.5;}</style><linearGradient id="a" x1="0.25" y1="54.17" x2="166.14" y2="54.17" gradientUnits="userSpaceOnUse"><stop offset="0" stop-color="#30354f"/><stop offset="0.19" stop-color="#104586"/><stop offset="0.69" stop-color="#5486c5"/><stop offset="1" stop-color="#bbc8e8"/></linearGradient></defs><title>espace</title><rect class="a" x="0.25" width="165.89" height="108.34" rx="17.91"/><g class="b"><path class="c" d="M85.05,10.46c.35-.18.77-.17,1.13-.34-.47-.25-1.1.15-1.55-.13a1.06,1.06,0,0,1-.38-.67,9.83,9.83,0,0,1-.19-2.54l-.28,2.63a.56.56,0,0,1-.12.36.63.63,0,0,1-.23.12c-.42.16-.84.2-1.26.36.48.06,1.1-.07,1.48.19s.31.62.34,1c.06.56.09,1.14.19,1.69C84.35,12.2,84,11,85.05,10.46Z"/></g><path class="c" d="M39.48,8.15a.47.47,0,0,0-.7.37c.19,0,.27.25.2.43s-.18.42,0,.55.28.06.43.07.49.15.73.1.48-.61.41-1A1,1,0,0,0,40.16,8c-.22-.15-.61-.06-.65.21"/><path class="c" d="M31.87,28.82a.24.24,0,0,0-.27.19.43.43,0,0,0,.08.34.41.41,0,0,0,.34.2.38.38,0,0,0,.24-.16.51.51,0,0,0,.05-.54.33.33,0,0,0-.5-.05"/><path class="c" d="M102.54,6.71c-.12-.06-.25.08-.28.21a1,1,0,0,0,.09.64.43.43,0,0,0,.05.12.39.39,0,0,0,.16.1,1,1,0,0,0,.23.07.63.63,0,0,0,.33-.06.68.68,0,0,0,.27-.87.66.66,0,0,0-.87-.26.05.05,0,0,0,0,0s0,0,0,0"/><path class="c" d="M152.48,53.3c-.12,0-.25.08-.28.21a1.09,1.09,0,0,0,.08.64.52.52,0,0,0,.06.13.42.42,0,0,0,.16.09.88.88,0,0,0,.23.07.54.54,0,0,0,.33-.06.67.67,0,0,0,.26-.87.66.66,0,0,0-.87-.25s0,0,0,0,0,0,0,0"/><path class="c" d="M139.61,10.79a.24.24,0,0,0-.27.19.45.45,0,0,0,.08.35.38.38,0,0,0,.33.19.37.37,0,0,0,.25-.15.52.52,0,0,0,.05-.55.33.33,0,0,0-.5-.05"/><path class="c" d="M125.08,10.37a.25.25,0,0,1,.28.19.43.43,0,0,1-.09.34.38.38,0,0,1-.33.2.36.36,0,0,1-.24-.16.47.47,0,0,1,0-.54.33.33,0,0,1,.5-.05"/><path class="c" d="M99.13,2.16a.23.23,0,0,1,.27.18.44.44,0,0,1-.08.35.38.38,0,0,1-.34.19.37.37,0,0,1-.24-.15.51.51,0,0,1,0-.54.32.32,0,0,1,.5-.06"/><path class="c" d="M54.69,10.79A.24.24,0,0,1,55,11a.45.45,0,0,1-.08.35.37.37,0,0,1-.33.19.35.35,0,0,1-.24-.15.49.49,0,0,1-.05-.55.32.32,0,0,1,.49-.05"/><path class="c" d="M45.8,14.75a.23.23,0,0,1,.27.18.41.41,0,0,1-.08.35.37.37,0,0,1-.33.19.35.35,0,0,1-.24-.15.47.47,0,0,1-.05-.54.31.31,0,0,1,.49-.06"/><path class="c" d="M19.72,6.33a.25.25,0,0,1,.27.18.44.44,0,0,1-.08.35.41.41,0,0,1-.34.2.38.38,0,0,1-.24-.16.51.51,0,0,1,0-.54.33.33,0,0,1,.5-.06"/><path class="c" d="M130.33,15.52a.25.25,0,0,1,.28.19.47.47,0,0,1-.08.34.41.41,0,0,1-.34.2.36.36,0,0,1-.24-.16.49.49,0,0,1,0-.54.33.33,0,0,1,.5-.05"/><path class="c" d="M149.15,22c-.2-.09-.44-.08-.65-.17.27-.11.63.08.88-.06a.53.53,0,0,0,.23-.32,4.13,4.13,0,0,0,.1-1.21l.16,1.25a.29.29,0,0,0,.07.18.75.75,0,0,0,.13.06c.24.07.48.09.72.16-.27,0-.63,0-.85.1s-.17.29-.19.46-.05.55-.1.81C149.55,22.84,149.73,22.25,149.15,22Z"/><path class="c" d="M140,96.08c-.2-.09-.45-.09-.65-.17.27-.12.63.07.88-.06a.47.47,0,0,0,.22-.32,3.82,3.82,0,0,0,.11-1.21l.16,1.25a.31.31,0,0,0,.07.18.29.29,0,0,0,.13,0c.24.08.48.1.72.17a2.31,2.31,0,0,0-.85.1c-.16.09-.17.29-.19.46a7.5,7.5,0,0,1-.11.81C140.4,96.91,140.57,96.32,140,96.08Z"/><g class="d"><path class="c" d="M122.4,26.51c-.2-.09-.44-.08-.64-.16.27-.12.63.07.88-.07a.45.45,0,0,0,.22-.32,4.08,4.08,0,0,0,.11-1.21l.16,1.26a.26.26,0,0,0,.07.17.39.39,0,0,0,.13.06c.24.07.48.09.72.17a2.55,2.55,0,0,0-.85.09c-.17.09-.17.3-.19.46s-.05.55-.11.81C122.8,27.34,123,26.76,122.4,26.51Z"/></g><g class="d"><path class="c" d="M21.4,92.78c-.2-.08-.44-.08-.65-.16.27-.12.63.07.88-.06a.53.53,0,0,0,.23-.32A4.17,4.17,0,0,0,22,91l.16,1.26a.26.26,0,0,0,.07.17.31.31,0,0,0,.13.06c.24.08.48.1.72.17a2.58,2.58,0,0,0-.85.09c-.16.1-.17.3-.19.47s-.05.54-.1.81C21.8,93.62,22,93,21.4,92.78Z"/></g><g class="d"><path class="c" d="M20.25,27.14c-.2-.09-.44-.08-.64-.16.27-.12.63.07.88-.07a.46.46,0,0,0,.22-.32,4.08,4.08,0,0,0,.11-1.21L21,26.64a.26.26,0,0,0,.07.17.39.39,0,0,0,.13.06c.24.07.48.09.72.17a2.55,2.55,0,0,0-.85.09c-.17.09-.17.3-.19.46s-.05.55-.11.81C20.65,28,20.83,27.39,20.25,27.14Z"/></g><path class="c" d="M35.17,81.44c-.17-.09-.37-.08-.54-.16.22-.12.53.07.74-.07a.5.5,0,0,0,.19-.32,5.4,5.4,0,0,0,.09-1.21l.13,1.26c0,.06,0,.13.06.17a.39.39,0,0,0,.11.06c.2.07.4.09.6.17-.23,0-.53,0-.71.09s-.15.3-.16.46,0,.55-.09.81C35.51,82.27,35.66,81.69,35.17,81.44Z"/><g class="b"><path class="c" d="M37.43,51.24c.35-.18.77-.17,1.12-.34-.46-.25-1.09.15-1.54-.13a1.08,1.08,0,0,1-.38-.68,9.72,9.72,0,0,1-.19-2.53l-.28,2.62a.45.45,0,0,1-.35.49c-.42.15-.84.2-1.26.35.48.07,1.1-.06,1.48.2s.31.62.34,1c.06.56.09,1.14.19,1.69C36.73,53,36.41,51.75,37.43,51.24Z"/></g><g class="b"><path class="c" d="M58.87,6.45c.35-.18.77-.17,1.12-.34-.46-.25-1.09.15-1.54-.13a1.14,1.14,0,0,1-.39-.68,10.68,10.68,0,0,1-.19-2.53L57.6,5.4a.57.57,0,0,1-.13.36.59.59,0,0,1-.22.12c-.42.15-.84.2-1.27.35.49.07,1.1-.06,1.49.2s.3.62.34,1c.06.56.08,1.14.18,1.69C58.17,8.19,57.85,7,58.87,6.45Z"/></g><path class="e" d="M30.59,69.65a.47.47,0,0,0-.7.37c.18-.06.27.24.2.43s-.18.42,0,.55.28.06.43.06.49.16.73.11.48-.61.41-1a1,1,0,0,0-.35-.71c-.22-.15-.61-.06-.65.2"/><path class="c" d="M31.65,67.17a.25.25,0,0,0-.27.19.46.46,0,0,0,.08.34.39.39,0,0,0,.34.2.41.41,0,0,0,.24-.15.52.52,0,0,0,.05-.55.33.33,0,0,0-.5,0"/><path class="e" d="M21,47a.25.25,0,0,0-.27.18.48.48,0,0,0,.08.35.41.41,0,0,0,.34.2.38.38,0,0,0,.24-.16.51.51,0,0,0,0-.54A.33.33,0,0,0,21,47"/><path class="e" d="M17.52,29.24a.25.25,0,0,0-.27.19.42.42,0,0,0,.08.34.33.33,0,0,0,.58.05.52.52,0,0,0,.05-.55.33.33,0,0,0-.5-.05"/><path class="e" d="M14.49,12.11a.11.11,0,0,0-.13.09.18.18,0,0,0,0,.17.18.18,0,0,0,.16.1.22.22,0,0,0,.13-.08.26.26,0,0,0,0-.27.17.17,0,0,0-.25,0"/><path class="e" d="M16.37,8.05a.25.25,0,0,0-.27.19.42.42,0,0,0,.08.34.39.39,0,0,0,.34.2.41.41,0,0,0,.24-.15.52.52,0,0,0,0-.55.33.33,0,0,0-.5-.05"/><path class="e" d="M17.13,72.5a.23.23,0,0,0-.27.18.49.49,0,0,0,.08.35.38.38,0,0,0,.34.19.37.37,0,0,0,.24-.15.51.51,0,0,0,.05-.54.32.32,0,0,0-.5-.06"/><path class="e" d="M10.34,88.68a.24.24,0,0,0-.27.19.42.42,0,0,0,.08.34.39.39,0,0,0,.33.2.36.36,0,0,0,.24-.15.51.51,0,0,0,.06-.55.33.33,0,0,0-.5,0"/><path class="e" d="M8.65,89.69a.12.12,0,0,0-.15.1.2.2,0,0,0,0,.18.21.21,0,0,0,.19.11A.26.26,0,0,0,8.86,90a.3.3,0,0,0,0-.3.2.2,0,0,0-.28,0"/><path class="c" d="M137.29,26.38c-.12-.06-.25.08-.29.21a1.19,1.19,0,0,0,.09.64.45.45,0,0,0,.06.12.34.34,0,0,0,.16.1.94.94,0,0,0,.22.07.57.57,0,0,0,.34-.07.64.64,0,1,0-.61-1.12s0,0,0,0,0,0,0,0"/><g class="b"><path class="c" d="M34.71,19.12c.27-.18.6-.17.88-.34-.36-.25-.86.15-1.21-.13a1.22,1.22,0,0,1-.3-.68,13.29,13.29,0,0,1-.15-2.53l-.22,2.62a.75.75,0,0,1-.09.37.52.52,0,0,1-.18.12c-.33.15-.66.2-1,.35.38.07.86-.06,1.16.2s.24.62.27,1c0,.56.07,1.14.15,1.69C34.16,20.86,33.92,19.63,34.71,19.12Z"/></g><path class="c" d="M131.2,4.38a.38.38,0,0,1,.49-.21.72.72,0,0,1,.41.41.64.64,0,0,1,0,.63.57.57,0,0,1-.42.19.78.78,0,0,1-.78-.4.53.53,0,0,1,.35-.73"/><path class="c" d="M134.9,6a.23.23,0,0,1,.27.18.44.44,0,0,1-.08.35.38.38,0,0,1-.34.19.37.37,0,0,1-.24-.15.51.51,0,0,1,0-.54.32.32,0,0,1,.5-.06"/><path class="c" d="M63.31,4.89c.09,0,.19.07.22.19a.57.57,0,0,1-.07.34c-.06.12-.15.21-.26.2A.31.31,0,0,1,63,5.47a.63.63,0,0,1,0-.55.22.22,0,0,1,.39,0"/><path class="c" d="M35,36.22a.25.25,0,0,1,.3-.14.47.47,0,0,1,.25.25.39.39,0,0,1,0,.39.35.35,0,0,1-.25.12.47.47,0,0,1-.5-.23.33.33,0,0,1,.21-.45"/><path class="e" d="M45.92,33.56a.24.24,0,0,1,.3-.14.46.46,0,0,1,.26.25.39.39,0,0,1,0,.38.36.36,0,0,1-.26.13.47.47,0,0,1-.49-.23.31.31,0,0,1,.2-.45"/><path class="e" d="M70.07,15.2a.24.24,0,0,1,.3-.14.49.49,0,0,1,.26.25.41.41,0,0,1,0,.39.4.4,0,0,1-.26.12.46.46,0,0,1-.49-.23.32.32,0,0,1,.2-.45"/><path class="e" d="M56.21,26.65a.25.25,0,0,1,.3-.14.44.44,0,0,1,.25.25.37.37,0,0,1,0,.39.36.36,0,0,1-.25.13A.48.48,0,0,1,56,27a.32.32,0,0,1,.2-.45"/><path class="e" d="M111.37,13.25a.25.25,0,0,1,.3-.14.47.47,0,0,1,.25.25.39.39,0,0,1,0,.39.36.36,0,0,1-.25.13.5.5,0,0,1-.5-.24.33.33,0,0,1,.21-.45"/><path class="e" d="M42.27,77.66a.25.25,0,0,1,.3-.15.46.46,0,0,1,.26.25.39.39,0,0,1,0,.39.36.36,0,0,1-.26.13.5.5,0,0,1-.49-.23.32.32,0,0,1,.2-.46"/><path class="c" d="M98,13c.12-.06.25.08.28.21a1.1,1.1,0,0,1-.08.64.45.45,0,0,1-.06.12.34.34,0,0,1-.16.1.88.88,0,0,1-.23.07.55.55,0,0,1-.33-.07.64.64,0,1,1,.6-1.12s0,0,0,0,0,0,0,0"/><path class="c" d="M28.17,57.24a.24.24,0,0,1,.27.19.42.42,0,0,1-.08.34A.39.39,0,0,1,28,58a.36.36,0,0,1-.24-.15.51.51,0,0,1-.06-.55.33.33,0,0,1,.5-.05"/><path class="e" d="M29.49,37.35c-.09,0-.18,0-.2.14a.74.74,0,0,0,.06.44.36.36,0,0,0,0,.09.24.24,0,0,0,.11.06l.15.05a.37.37,0,0,0,.23-.05.43.43,0,1,0-.41-.76,0,0,0,0,0,0,0s0,0,0,0"/><path class="c" d="M27.86,36c-.12-.06-.25.08-.29.21a1.19,1.19,0,0,0,.09.64.27.27,0,0,0,.06.12.34.34,0,0,0,.16.1.81.81,0,0,0,.22.07.54.54,0,0,0,.33-.07.65.65,0,0,0,.27-.86.66.66,0,0,0-.87-.26s0,0,0,0,0,0,0,0"/><path class="c" d="M124.32,104.9c-.11-.06-.22.06-.25.18a1,1,0,0,0,.07.57.39.39,0,0,0,.06.11.34.34,0,0,0,.14.09,1.17,1.17,0,0,0,.2.06.49.49,0,0,0,.29-.06.59.59,0,0,0,.24-.77.59.59,0,0,0-.77-.23s0,0,0,0,0,0,0,0"/><path class="c" d="M67.3,101.06c-.12-.06-.26.07-.29.2a1.22,1.22,0,0,0,.09.65.34.34,0,0,0,.06.12.44.44,0,0,0,.16.1,1.41,1.41,0,0,0,.22.06.54.54,0,0,0,.33-.06.64.64,0,1,0-.6-1.12s0,0,0,0,0,0,0,0"/><path class="c" d="M112.51,104.2c-.28-.15-.62-.14-.9-.28.37-.19.88.12,1.23-.1a.83.83,0,0,0,.31-.54,7.59,7.59,0,0,0,.15-2l.22,2.09a.6.6,0,0,0,.1.3.61.61,0,0,0,.18.09c.34.13.68.16,1,.28-.38.06-.88,0-1.18.16s-.25.5-.28.77c0,.45-.06.91-.14,1.36C113.07,105.59,113.32,104.61,112.51,104.2Z"/><path class="c" d="M34.06,99.48c-.33-.14-.73-.13-1.07-.27.44-.2,1,.12,1.47-.11a.83.83,0,0,0,.37-.53,6.93,6.93,0,0,0,.18-2l.26,2.1a.45.45,0,0,0,.12.29.81.81,0,0,0,.21.1c.41.12.81.16,1.21.28a4.31,4.31,0,0,0-1.42.15c-.27.16-.29.5-.32.78-.06.45-.08.91-.18,1.35C34.73,100.87,35,99.89,34.06,99.48Z"/><g class="b"><path class="c" d="M89,100.16c-.36-.18-.78-.17-1.13-.34.46-.25,1.1.15,1.54-.13a1.07,1.07,0,0,0,.39-.68A10.18,10.18,0,0,0,90,96.48l.28,2.63a.56.56,0,0,0,.12.36.59.59,0,0,0,.22.12c.43.16.85.2,1.27.35-.49.07-1.1-.06-1.49.2s-.3.62-.34,1c-.06.56-.08,1.14-.18,1.69C89.71,101.9,90,100.67,89,100.16Z"/></g><path class="c" d="M25.77,94.73a.24.24,0,0,0-.27.19.43.43,0,0,0,.08.34.4.4,0,0,0,.33.2.36.36,0,0,0,.24-.16.47.47,0,0,0,.05-.54.32.32,0,0,0-.49-.05"/><path class="c" d="M53.67,101.92c-.12-.06-.25.08-.28.21a1,1,0,0,0,.09.64.43.43,0,0,0,.05.12.39.39,0,0,0,.16.1,1,1,0,0,0,.23.07.63.63,0,0,0,.33-.06.68.68,0,0,0,.27-.87.66.66,0,0,0-.87-.26.05.05,0,0,0,0,0s0,0,0,0"/><path class="c" d="M46.42,87.85c-.12-.06-.26.07-.29.2a1.22,1.22,0,0,0,.09.65.34.34,0,0,0,.06.12.44.44,0,0,0,.16.1,1.41,1.41,0,0,0,.22.06.54.54,0,0,0,.33-.06.65.65,0,0,0,.27-.86.66.66,0,0,0-.87-.26s0,0,0,0,0,0,0,0"/><path class="c" d="M93.5,94.69c-.12-.06-.26.07-.29.2a1.22,1.22,0,0,0,.09.65.34.34,0,0,0,.06.12.44.44,0,0,0,.16.1,1.41,1.41,0,0,0,.22.06.54.54,0,0,0,.33-.06.65.65,0,0,0,.27-.86.66.66,0,0,0-.87-.26s0,0,0,0,0,0,0,0"/><path class="c" d="M134.68,90.17a.23.23,0,0,0-.27.18.49.49,0,0,0,.08.35.38.38,0,0,0,.34.19.37.37,0,0,0,.24-.15.51.51,0,0,0,.05-.54.32.32,0,0,0-.5-.06"/><path class="c" d="M139,102.77c-.12-.06-.26.07-.29.2a1.22,1.22,0,0,0,.09.65.27.27,0,0,0,.06.12.44.44,0,0,0,.16.1.79.79,0,0,0,.22.06.48.48,0,0,0,.33-.06.65.65,0,0,0,.27-.86.66.66,0,0,0-.87-.26s0,0,0,0,0,0,0,0"/><path class="c" d="M42.36,97.68a.24.24,0,0,0-.28.18.45.45,0,0,0,.09.35.4.4,0,0,0,.33.2.36.36,0,0,0,.24-.16.47.47,0,0,0,0-.54.32.32,0,0,0-.49-.06"/><path class="c" d="M77.89,97a.25.25,0,0,0-.28.18.45.45,0,0,0,.09.35.38.38,0,0,0,.33.2.36.36,0,0,0,.24-.16.47.47,0,0,0,0-.54.32.32,0,0,0-.49-.06"/><path class="c" d="M131,103a.23.23,0,0,0-.27.18.44.44,0,0,0,.08.35.38.38,0,0,0,.33.19.3.3,0,0,0,.24-.15.49.49,0,0,0,.06-.54.33.33,0,0,0-.5-.06"/><path class="c" d="M96.57,95.75a.25.25,0,0,0-.27.19.42.42,0,0,0,.08.34.39.39,0,0,0,.34.2.41.41,0,0,0,.24-.15.52.52,0,0,0,.05-.55.33.33,0,0,0-.5,0"/><path class="e" d="M112.66,87.42a.25.25,0,0,0-.27.19.46.46,0,0,0,.08.34.39.39,0,0,0,.34.2.38.38,0,0,0,.24-.16.49.49,0,0,0,0-.54.33.33,0,0,0-.5,0"/><path class="e" d="M113.05,14.75a.23.23,0,0,0-.27.18.44.44,0,0,0,.08.35.38.38,0,0,0,.34.19.37.37,0,0,0,.24-.15.51.51,0,0,0,0-.54.32.32,0,0,0-.5-.06"/><path class="e" d="M59.89,82.4a.24.24,0,0,0-.28.18.45.45,0,0,0,.09.35.38.38,0,0,0,.33.2.36.36,0,0,0,.24-.16.47.47,0,0,0,0-.54.32.32,0,0,0-.49-.06"/><path class="e" d="M140,38a.24.24,0,0,0-.27.19.45.45,0,0,0,.08.35.38.38,0,0,0,.33.19.35.35,0,0,0,.24-.15.49.49,0,0,0,.05-.55.32.32,0,0,0-.49,0"/><path class="c" d="M64,95.33a.24.24,0,0,0-.28.18.45.45,0,0,0,.09.35.38.38,0,0,0,.33.2.36.36,0,0,0,.24-.16.47.47,0,0,0,0-.54A.32.32,0,0,0,64,95.3"/><path class="c" d="M130.2,92c-.12-.06-.26.07-.29.2a1.23,1.23,0,0,0,.09.65.34.34,0,0,0,.06.12.32.32,0,0,0,.16.09.81.81,0,0,0,.22.07.54.54,0,0,0,.33-.06.64.64,0,1,0-.6-1.12s0,0,0,0,0,0,0,0"/><path class="c" d="M150.12,89.11c-.12,0-.25.08-.28.21a1,1,0,0,0,.09.64.24.24,0,0,0,.21.22,1,1,0,0,0,.23.07.54.54,0,0,0,.33-.06.68.68,0,0,0,.27-.87.66.66,0,0,0-.87-.25,0,0,0,0,0,0,0s0,0,0,0"/><path class="c" d="M149.12,77.53c-.28-.14-.62-.14-.9-.27.37-.2.88.12,1.23-.11a.83.83,0,0,0,.31-.54,8,8,0,0,0,.15-2l.22,2.1a.51.51,0,0,0,.1.29.64.64,0,0,0,.18.1c.34.12.67.15,1,.28-.39,0-.88,0-1.19.15s-.24.5-.27.78c0,.45-.06.91-.14,1.35C149.68,78.92,149.93,77.94,149.12,77.53Z"/><path class="c" d="M138.42,55.59a.23.23,0,0,0,.18.27.44.44,0,0,0,.35-.08.4.4,0,0,0,.2-.33.36.36,0,0,0-.16-.24.47.47,0,0,0-.54-.05.32.32,0,0,0-.06.49"/><path class="c" d="M151,51.25c-.06.12.08.25.21.28a1.1,1.1,0,0,0,.64-.08.45.45,0,0,0,.12-.06.34.34,0,0,0,.1-.16.88.88,0,0,0,.07-.23.63.63,0,0,0-.06-.33.67.67,0,0,0-.87-.26.66.66,0,0,0-.26.87s0,0,0,0,0,0,0,0"/><path class="c" d="M151.24,59.27a.25.25,0,0,0,.18.28.45.45,0,0,0,.35-.09.38.38,0,0,0,.2-.33.36.36,0,0,0-.16-.24.47.47,0,0,0-.54,0,.33.33,0,0,0-.06.5"/><path class="c" d="M138.43,77.61a.24.24,0,0,0,.19.27.43.43,0,0,0,.34-.08.38.38,0,0,0,.2-.33.36.36,0,0,0-.16-.24.47.47,0,0,0-.54,0,.32.32,0,0,0-.05.49"/><path class="c" d="M146.79,70.58c-.06.12.07.25.2.29a1.22,1.22,0,0,0,.65-.09.67.67,0,0,0,.12-.06.32.32,0,0,0,.09-.16.94.94,0,0,0,.07-.22.58.58,0,0,0-.06-.34.64.64,0,1,0-1.12.61s0,0,0,0,0,0,0,0"/><path class="c" d="M151,30.46c-.06.12.07.25.2.29a1.18,1.18,0,0,0,.64-.09.52.52,0,0,0,.13-.06.32.32,0,0,0,.09-.16.94.94,0,0,0,.07-.22.58.58,0,0,0-.06-.34.64.64,0,1,0-1.12.61s0,0,0,0,0,0,0,0"/></svg>