<svg viewBox="0 0 165.89 108.34" xmlns="http://www.w3.org/2000/svg"><rect fill="#fff" height="108.34" rx="17.91" width="165.89"/><rect fill="#fff" height="108.34" rx="17.91" width="165.89" x="-.01"/><path d="m152.89 104.33c-8-4.51-10.07-15.2-13.08-23-2-5.22-8.26-7.41-12.7-10.1-2.86-1.73-3.15-4.5-.42-7a6.9 6.9 0 0 1 1.1-.83c0-.1-.05-.19.11-.34l.25.12a12.25 12.25 0 0 1 3.49-1.26 8 8 0 0 0 -2.39-2.3c-3-1.69-7.34-2.26-10.63-3-2.47-.52-4.2-.22-4-2.85.11-1.73 2.08-4.36 1.83-5.36 5.37.29 10.25-1.84 15.42.84a14.39 14.39 0 0 1 6.78 7 16.68 16.68 0 0 1 1.82 5c1.53 0 3 0 4.22-.15 7.34-.72 15.89-.51 21.22-6.47v-6.3a2.8 2.8 0 0 1 -.67.34c-1 .36-2.68-.13-3.72-.29-4.07-.64-8.54-1.32-12.21-3.32-5.72-3.11-10.64-8-16.66-10.49a31.05 31.05 0 0 0 -13.7-2.27 30.78 30.78 0 0 1 -10.85-1.52 2.82 2.82 0 0 1 -2.6 2.83c-4.22.9-11.87.56-15.2-2.06-2.47-2-3.19-4.44-3.45-7.48a54.75 54.75 0 0 0 -.42-6.52c-.36-1.75-1.9-3.9-1.91-5.6-.07-5.23 12.48-3.95 17.84-3.51-.51-3.06-3-5.51-5.78-8.23h-.52v3.06l-.49-3.06h-25.85a19.72 19.72 0 0 1 -1.23 5.68 64.15 64.15 0 0 1 -5.13 10.46c-1.21 2-3.12 7-5.57 8a7.39 7.39 0 0 1 -2.55.42 1.53 1.53 0 0 1 .18.65 3 3 0 0 1 -1.52-.69 70.24 70.24 0 0 1 -8.49-1.39 2.4 2.4 0 0 1 1.38 1.83 2.82 2.82 0 0 1 -2.07-1.34c0-.3-.25-.42-.14-.65-.67-.12-1.28-.22-1.8-.27-.68-.07-1.4-.12-2.16-.16a2.14 2.14 0 0 1 .13.22c-.52-.09-.24.42-.42.72a.61.61 0 0 1 -.59-.3 5.47 5.47 0 0 1 -.62-.71c-5.12-.23-11.12-.38-14.25-3.88-4.87-5.59-3.99-18.65-14.28-16.28a5.17 5.17 0 0 1 .79-1.07 18 18 0 0 0 -8.72 7.29 21.85 21.85 0 0 0 2.59 1.68c1.27 1.49 3.68 2.49 5.35 3.72a41.61 41.61 0 0 1 6.62 6.17 22.44 22.44 0 0 1 5.07 8.31 16 16 0 0 0 9.08 10.75c2.45 1.24 7.85 3.17 8.77 5.91-2.54 3.14-9 .62-12-.22-4.63-1.26-10 1.72-14.45-.28-4.07-1.84-3.82-8.1-5.08-11.86a14.87 14.87 0 0 0 -6.2-8 25.73 25.73 0 0 1 -2.41-1.36v43.75a8.62 8.62 0 0 1 5.33-.11c1.67-.57 10.67 10.39 13.02 12.28a45.52 45.52 0 0 0 16.73 8.82c7.28 2.16 12.68 7.73 18.11 13 3.12 3 4 3.74 1.6 7.24h20c1.3-.88 3-1.55 3.76-3.22 3.27 1.2 9.94-.63 12.56-2.87 2.23-1.92 2.06-4.65 1.09-7.26-1.77-4.74-3.85-5.07-.15-8.75 4.56-4.54 12.48-13.39 19.58-7.81 3.06 2.4 4.69 5.14 8.37 6.94a54.23 54.23 0 0 1 14.6 10.63c3 3 8.73 8 10 12.35h3.4a17.77 17.77 0 0 0 9.38-2.68 12.87 12.87 0 0 1 -4.49-1.54zm-111.19-75.7c-.07-.38-.37-.47 0-.85 1 .46 2 1.11 2.06 2.19a2.86 2.86 0 0 1 -2.06-1.34zm7.51 5.94c-.09 0-.24 0-.34-.1 0 .1 0 .33.05.44-.58 0-1.09-.85-1.43-1.29l-.06.07a.31.31 0 0 1 0-.11s0 0 0 0c.17-.88 1.57.32 1.78.65a2.48 2.48 0 0 1 0 .34zm2.7-3.64a.62.62 0 0 1 -.59-.3 4.44 4.44 0 0 1 -.9-1.19h.41s0-.3-.1-.43a2.18 2.18 0 0 1 1.61 1.2c-.52-.09-.24.42-.43.72zm2.56 2.17c-.06-.38-.37-.48 0-.85 1 .46 2 1.1 2.06 2.19a2.89 2.89 0 0 1 -2.06-1.34zm3.27-2.43c0-.05 0-.07 0-.1a.1.1 0 0 1 0-.06c.12-.81 1.58.17 1.83.46v.39s-.24 0-.36-.06c0 .09 0 .33.11.43-.58 0-1.18-.72-1.58-1.11zm31.55 47.14c-1.87 1.77-5.81 4.35-8.39 4.94-3.21.72-4.36-1.15-5.48-3.82-1.79-4.24-5.68-4.16-8.41-7.62-1.36-1.72-2.37-4.87-1.24-6.69-1.85-2.44-3.61-5-6.53-6.18 1.76-4.74 3.21-6.44 8.39-6.28 7.52.27 15.51 2.75 19.61 9.59-1.82 2.4-5.22 3.2-7.32 5.36a12.73 12.73 0 0 1 1.39 1.11c.9-.31 3.5 1.63 6.33 3.89 2.52 2.01 4.5 3.02 1.65 5.7zm20.91-20.58c.12-.81 1.58.17 1.83.46v.38s-.24 0-.35-.06c0 .09 0 .33.1.43-.58 0-1.18-.72-1.57-1.11v.07s0-.07 0-.1-.02-.07-.01-.07zm-1.7 5.65c-.29-.13-.58-.14-.85-.44a2.8 2.8 0 0 0 0 .29h-.07l.09.07-.15-.09a.68.68 0 0 1 -.26-.18c-.73-.51-1.61-1.35-.68-1.92.81.56 2.28 1.05 1.92 2.27zm3.14 5.72a.58.58 0 0 1 -.58-.3 4.29 4.29 0 0 1 -.91-1.19h.41a1.78 1.78 0 0 0 -.1-.43 2.16 2.16 0 0 1 1.61 1.2c-.52-.09-.24.43-.43.72zm2-5.7c-.07-.38-.38-.47 0-.85 1 .47 2 1.11 2.06 2.2a2.82 2.82 0 0 1 -2.07-1.35zm3.37-5c.18.12.38.16.53.39 0-.07 0-.11 0-.2h.06l-.07-.08.15.14.09.09c.44.43.95 1.1.25 1.38-.46-.43-1.4-.93-1.02-1.71zm1.78 11.92c-.49-.49-1.42-1-1-1.77.18.12.37.16.52.39 0-.07 0-.11 0-.19s0 0 .06 0l-.06-.07.15.13.09.09c.45.48.92 1.15.23 1.43zm3.83-5.82c-.29-.13-.58-.14-.85-.44a1.45 1.45 0 0 0 0 .29h-.07l.08.07-.14-.09a.91.91 0 0 1 -.27-.18c-.73-.51-1.61-1.36-.68-1.92.82.53 2.31 1.03 1.93 2.27zm1.38 5.83c-.49-.49-1.42-1-1-1.77.18.12.37.16.52.39 0-.07 0-.11 0-.19s0 0 .06 0l-.06-.07.15.13.09.09c.4.47.91 1.14.24 1.42zm-1.09-10.43c0-.27-.27-.34 0-.61.7.33 1.42.79 1.47 1.57a2 2 0 0 1 -1.47-.96z" fill="none"/><path d="m165.32 22.26a74.42 74.42 0 0 0 .56 15.53v-19.67a18 18 0 0 0 -.51-4.18 40.67 40.67 0 0 1 -.05 8.32z" fill="none"/><path d="m134.6 96.2a54.23 54.23 0 0 0 -14.6-10.62c-3.68-1.8-5.31-4.54-8.37-6.94-7.1-5.58-15 3.27-19.58 7.81-3.7 3.68-1.62 4 .15 8.75 1 2.61 1.14 5.34-1.09 7.26-2.62 2.24-9.29 4.07-12.56 2.87-.79 1.67-2.46 2.34-3.76 3.22h69.79c-1.25-4.32-6.99-9.36-9.98-12.35z" fill="#fbdfe2"/><path d="m67.16 63.5c3.45-1.3 9.43 1.25 12.76 3.61 2.1-2.16 5.5-3 7.32-5.36-4.1-6.84-12.09-9.32-19.61-9.59-5.18-.16-6.63 1.54-8.39 6.28 2.92 1.14 4.68 3.74 6.53 6.18a2.77 2.77 0 0 1 1.39-1.12z" fill="#e2eff6"/><path d="m87.64 72.11c-2.83-2.26-5.43-4.2-6.33-3.89a12.73 12.73 0 0 0 -1.39-1.11c-3.33-2.36-9.31-4.91-12.76-3.61a2.77 2.77 0 0 0 -1.39 1.12c-1.13 1.82-.12 5 1.24 6.69 2.73 3.46 6.62 3.38 8.41 7.62 1.12 2.67 2.27 4.54 5.48 3.82 2.58-.59 6.52-3.17 8.39-4.94 2.85-2.68.87-3.69-1.65-5.7z" fill="#fefbfb"/><path d="m24.87 18.8c3.13 3.5 9.13 3.65 14.25 3.85a1.85 1.85 0 0 1 -.29-.48h.41a2.36 2.36 0 0 0 -.09-.43 2.2 2.2 0 0 1 1.47 1c.76 0 1.48.09 2.16.16.52.05 1.13.15 1.8.27a.74.74 0 0 1 .15-.2c.23.11.46.23.68.36a70.24 70.24 0 0 0 8.49 1.37 1.56 1.56 0 0 1 -.55-.66c-.07-.38-.38-.47 0-.85a3.79 3.79 0 0 1 1.88 1.55 7.39 7.39 0 0 0 2.55-.42c2.45-1 4.36-5.92 5.57-8a64.15 64.15 0 0 0 5.14-10.43 19.72 19.72 0 0 0 1.23-5.68h-51.82a17.88 17.88 0 0 0 -6.52 1.24 5.17 5.17 0 0 0 -.79 1.07c10.29-2.37 9.41 10.69 14.28 16.28zm27-.32c.12-.81 1.58.17 1.83.46v.39s-.24 0-.35-.06c0 .09 0 .33.1.43-.58 0-1.18-.72-1.57-1.11v.07c0-.05 0-.07 0-.1a.1.1 0 0 1 0-.08zm-6.88 0c.12-.81 1.58.17 1.83.46v.39s-.24 0-.35-.06c0 .09 0 .33.1.43-.57 0-1.18-.72-1.57-1.11l-.05.07c0-.05 0-.07 0-.1a.1.1 0 0 1 .05-.08zm-5.53-2.38c1 .47 2 1.11 2.06 2.2a2.84 2.84 0 0 1 -2.07-1.3c-.07-.43-.38-.52.01-.9z" fill="#fbdfe2"/><path d="m8.56 32.92c1.26 3.76 1 10 5.08 11.86 4.41 2 9.82-1 14.45.28 3.09.84 9.51 3.36 12.05.22-.92-2.74-6.32-4.67-8.77-5.91a16 16 0 0 1 -9.08-10.75 22.44 22.44 0 0 0 -5.07-8.31 41.61 41.61 0 0 0 -6.62-6.17c-1.67-1.23-4.08-2.23-5.35-3.72a21.85 21.85 0 0 1 -2.59-1.68 17.85 17.85 0 0 0 -2.66 9.38v5.44a25.73 25.73 0 0 0 2.36 1.44 14.87 14.87 0 0 1 6.2 7.92z" fill="#f9f6f9"/><path d="m100 25.08c-2.83-4-.23-8 1.52-11.63a8.24 8.24 0 0 0 .87-5c-5.39-.45-17.94-1.73-17.9 3.55 0 1.7 1.55 3.85 1.91 5.6a54.75 54.75 0 0 1 .42 6.52c.26 3 1 5.52 3.45 7.48 3.33 2.62 11 3 15.2 2.06a2.82 2.82 0 0 0 2.6-2.83 16.19 16.19 0 0 1 -8.07-5.75z" fill="#fed991"/><path d="m102.36 8.44a8.24 8.24 0 0 1 -.87 5c-1.75 3.65-4.35 7.66-1.52 11.63a16.19 16.19 0 0 0 8.1 5.7 30.78 30.78 0 0 0 10.85 1.52 31.05 31.05 0 0 1 13.7 2.27c6 2.5 10.94 7.38 16.66 10.49 3.67 2 8.14 2.68 12.21 3.32 1 .16 2.68.65 3.72.29a2.8 2.8 0 0 0 .67-.34v-10.53a74.42 74.42 0 0 1 -.56-15.53 40.67 40.67 0 0 0 .05-8.32 17.9 17.9 0 0 0 -17.37-13.73h-51.42c2.78 2.72 5.27 5.17 5.78 8.23z" fill="#f9f6f9"/><path d="m96.06.21h-.49l.54 3.06c-.02-.73-.11-1.86-.05-3.06z" fill="#f9f6f9"/><path d="m41.52 18.3c-.07-1.09-1.08-1.73-2.06-2.2-.39.38-.08.47 0 .86a2.84 2.84 0 0 0 2.06 1.34z" fill="#fbdfe2"/><g fill="#fed991"><path d="m51.86 18.66v-.07c.39.39 1 1.15 1.57 1.11 0-.1 0-.34-.1-.43.11.06.26 0 .35.06s0-.32 0-.39c-.25-.29-1.71-1.27-1.83-.46a.1.1 0 0 0 0 .06s.01.07.01.12z"/><path d="m41.71 27.78c-.38.38-.08.47 0 .85a2.86 2.86 0 0 0 2.06 1.37c-.06-1.11-1.08-1.76-2.06-2.22z"/><path d="m44.58 23.15c-.11.23.09.35.14.65a2.82 2.82 0 0 0 2.07 1.34 2.4 2.4 0 0 0 -1.38-1.83c-.22-.13-.45-.25-.68-.36a.74.74 0 0 0 -.15.2z"/><path d="m53.36 23.19c-.39.38-.08.47 0 .85a1.56 1.56 0 0 0 .55.66 3 3 0 0 0 1.52.69 1.53 1.53 0 0 0 -.18-.65 3.79 3.79 0 0 0 -1.89-1.55z"/><path d="m54.49 32.25c-.39.37-.08.47 0 .85a2.89 2.89 0 0 0 2.08 1.34c-.09-1.09-1.1-1.73-2.08-2.19z"/><path d="m45 18.66.05-.07c.39.39 1 1.15 1.57 1.11-.05-.1-.05-.34-.1-.43.11.06.26 0 .35.06s0-.32 0-.39c-.25-.29-1.71-1.27-1.83-.46a.1.1 0 0 0 0 .06s-.04.07-.04.12z"/><path d="m47.45 33.54s0 0 0 0a.31.31 0 0 0 0 .11l.06-.07c.34.44.85 1.26 1.43 1.29 0-.11 0-.34-.05-.44.1.07.25.06.34.1a2.48 2.48 0 0 0 0-.38c-.23-.29-1.61-1.49-1.78-.61z"/><path d="m59.36 31.71c-.06-.1-.06-.34-.11-.43.12.06.26 0 .36.06s0-.33 0-.39c-.25-.29-1.71-1.27-1.83-.46a.1.1 0 0 0 0 .06s0 .05 0 .1v-.07c.4.42 1 1.17 1.58 1.13z"/><path d="m39.15 21.74a2.36 2.36 0 0 1 .09.43c-.1 0-.28 0-.41 0a1.85 1.85 0 0 0 .29.48 5.47 5.47 0 0 0 .62.71.61.61 0 0 0 .59.3c.18-.3-.1-.81.42-.72a2.14 2.14 0 0 0 -.13-.22 2.2 2.2 0 0 0 -1.47-.98z"/><path d="m50.73 29c.08.13.05.31.1.43s-.28 0-.41 0a4.44 4.44 0 0 0 .9 1.19.62.62 0 0 0 .59.3c.19-.3-.09-.81.43-.72a2.18 2.18 0 0 0 -1.61-1.2z"/></g><path d="m144.66 61.14c-1.25.12-2.69.14-4.22.15a3.52 3.52 0 0 1 -.18 1.6c-.77 2-4.29 2-6.36 1.07a6 6 0 0 1 -2.26-2.09 12.25 12.25 0 0 0 -3.49 1.26 1.9 1.9 0 0 1 1.22 1.44 2 2 0 0 1 -1.48-1 1.09 1.09 0 0 0 -.1-.26 6.9 6.9 0 0 0 -1.1.83c-2.73 2.54-2.44 5.31.42 7 4.44 2.69 10.69 4.88 12.7 10.1 3 7.81 5.06 18.5 13.08 23a12.87 12.87 0 0 0 4.46 1.54 17.88 17.88 0 0 0 8.53-15.23v-36c-5.33 6.08-13.88 5.87-21.22 6.59zm-13.2 9.78c-.8-.6-2.26-1.13-1.87-2.34.29.14.58.15.84.46a2.8 2.8 0 0 0 0-.29h.07l-.08-.07.14.09a.73.73 0 0 1 .26.19c.72.55 1.58 1.41.64 1.96z" fill="#e2eff6"/><path d="m133.9 64c2.07.88 5.59.89 6.36-1.07a3.52 3.52 0 0 0 .18-1.6 16.68 16.68 0 0 0 -1.82-5 14.39 14.39 0 0 0 -6.78-7c-5.17-2.68-10-.55-15.42-.84.25 1-1.72 3.63-1.83 5.36-.17 2.63 1.56 2.33 4 2.85 3.29.69 7.66 1.26 10.63 3a8 8 0 0 1 2.39 2.3 6 6 0 0 0 2.29 2z" fill="#fefbfb"/><g fill="#fbdfe2"><path d="m113.64 62.05c-.39.38-.08.47 0 .85a2.82 2.82 0 0 0 2.07 1.35c-.08-1.09-1.09-1.73-2.07-2.2z"/><path d="m129.37 64.57a1.9 1.9 0 0 0 -1.22-1.44l-.25-.13c-.16.15-.15.24-.11.34a1.09 1.09 0 0 1 .1.26 2 2 0 0 0 1.48.97z"/><path d="m122.92 58.79c-.28.27-.06.34 0 .61a2 2 0 0 0 1.48 1c-.06-.82-.78-1.28-1.48-1.61z"/><path d="m110.18 57.4v-.07c.39.39 1 1.15 1.57 1.11 0-.1 0-.34-.1-.43.11.06.26 0 .35.06s0-.32 0-.38c-.25-.29-1.71-1.27-1.83-.46v.05s.01.07.01.12z"/><path d="m110.46 66.68a1.78 1.78 0 0 1 .1.43c-.1 0-.28 0-.41 0a4.29 4.29 0 0 0 .91 1.19.58.58 0 0 0 .58.3c.19-.29-.09-.81.43-.72a2.16 2.16 0 0 0 -1.61-1.2z"/><path d="m106.58 60.58c-.93.57 0 1.41.68 1.92a.68.68 0 0 0 .26.18l.15.09-.09-.07h.07a2.8 2.8 0 0 1 0-.29c.27.3.56.31.85.44.36-1.19-1.11-1.68-1.92-2.27z"/><path d="m130.82 69a.73.73 0 0 0 -.26-.19l-.14-.09.08.07h-.07a2.8 2.8 0 0 1 0 .29c-.26-.31-.55-.32-.84-.46-.39 1.21 1.07 1.74 1.87 2.34.94-.59.08-1.45-.64-1.96z"/><path d="m120.7 61.68c-.93.56 0 1.41.68 1.92a.91.91 0 0 0 .27.18l.14.09-.08-.07h.07a1.45 1.45 0 0 1 0-.29c.27.3.56.31.85.44.37-1.19-1.12-1.69-1.93-2.27z"/><path d="m118.44 68.36-.15-.13.06.07s0 0-.06 0 0 .12 0 .19c-.15-.23-.34-.27-.52-.39-.38.78.55 1.28 1 1.77.69-.28.18-1-.25-1.38z"/><path d="m117.79 58.3-.09-.09-.15-.14.07.08h-.06v.2c-.15-.23-.35-.27-.53-.39-.38.78.56 1.28 1 1.77.71-.33.2-1-.24-1.43z"/><path d="m123.64 68.36-.15-.13.06.07s0 0-.06 0 0 .12 0 .19c-.15-.23-.34-.27-.52-.39-.38.78.55 1.28 1 1.77.69-.28.18-1-.25-1.38z"/></g><path d="m53.19 101.31c-5.43-5.31-10.83-10.85-18.11-13.01a45.52 45.52 0 0 1 -16.73-8.82c-2.35-1.89-11.35-12.85-13.03-12.28a8.62 8.62 0 0 0 -5.32.11v23.33a17.91 17.91 0 0 0 17.9 17.91h36.89c2.37-3.5 1.52-4.21-1.6-7.24z" fill="#e2eff6"/></svg>