<svg viewBox="0 0 165.89 108.34" xmlns="http://www.w3.org/2000/svg"><rect fill="#fff" height="108.34" rx="17.91" width="165.89"/><g fill="#fffdf8"><path d="m162.3 73c-.17.25-.32.52-.47.78l-.29.49-.47.85-.15.28s0 .1-.08.16l-.12.23c-.11.21-.23.42-.32.62a32.19 32.19 0 0 0 -1.47 3.5 38.75 38.75 0 0 0 -1.09 3.74c-.29 1.18-.56 2.47-.81 3.94s-.45 2.79-.64 4.12l-.45 3.29c0 .14 0 .29-.07.44v.25c0 .16-.05.32-.08.48a33.19 33.19 0 0 1 -3 9.13 28.43 28.43 0 0 1 -1.65 2.79 17.89 17.89 0 0 0 12.7-9.26l-.09-.31a47.39 47.39 0 0 1 -1.11-4.92l-.18-1.26c-.05-.43-.1-.85-.13-1.27a21.72 21.72 0 0 1 -.07-2.55 18.68 18.68 0 0 1 .75-5 .39.39 0 0 1 .48-.26.4.4 0 0 1 .27.39 21.16 21.16 0 0 0 0 2.39c0 .39.06.78.11 1.18 0 .19.05.39.08.58l.09.58c.14.78.31 1.54.51 2.3s.44 1.51.7 2.25c.1.3.22.59.33.89a17.72 17.72 0 0 0 .33-3.36v-22.46c-.49.59-1 1.18-1.4 1.78-.78 1.02-1.51 2.12-2.21 3.22z"/><path d="m156.48 50.68c-.45.39-.88.78-1.28 1.19l-.63.66-.61.69a31.6 31.6 0 0 0 -2.22 2.89 41.22 41.22 0 0 0 -3.6 6.58c-2.08 4.69-3.64 9.87-5.86 15.12-.28.66-.57 1.31-.87 2l-.46 1-.49 1-1 1.91c-.35.63-.72 1.25-1.08 1.87s-.76 1.23-1.14 1.84l-.14.23-.15.23-.3.45-.61.89c-.2.3-.42.59-.63.88l-.64.88c-.21.29-.43.58-.65.86l-.67.85a61 61 0 0 1 -12.62 11.81l-.89.62-.91.59-.91.59-.93.55-.93.55-1 .53c-.31.17-.62.32-.93.47h7.67c.5-.27 1-.54 1.5-.82a68 68 0 0 0 6.19-3.88c1-.71 2-1.43 2.85-2.2.46-.38.91-.77 1.34-1.18s.87-.81 1.28-1.24a33.26 33.26 0 0 0 4.44-5.59 30.81 30.81 0 0 0 3.06-6.5c.39-1.16.75-2.37 1.1-3.58s.7-2.44 1.07-3.66c.73-2.44 1.48-4.89 2.39-7.29a38.53 38.53 0 0 1 1.53-3.56 14.81 14.81 0 0 1 2.1-3.31.38.38 0 0 1 .54 0 .37.37 0 0 1 .06.5 11.3 11.3 0 0 0 -.89 1.6c-.26.56-.49 1.13-.71 1.71-.42 1.17-.76 2.37-1.08 3.58-.63 2.42-1.12 4.89-1.59 7.37l-.69 3.64c-.24 1.25-.48 2.51-.78 3.79-.07.32-.15.64-.24 1-.05.16-.09.32-.14.48s-.09.32-.14.48c-.19.64-.4 1.28-.63 1.9s-.49 1.25-.75 1.87-.56 1.22-.86 1.81a36.67 36.67 0 0 1 -4.43 6.72c-.43.52-.87 1-1.33 1.52s-.92 1-1.4 1.46-1 .93-1.47 1.38-1 .88-1.5 1.3c-.27.23-.56.43-.83.64h10.16a22.84 22.84 0 0 0 4.13-6.17 25.53 25.53 0 0 0 1.27-3.5 28.93 28.93 0 0 0 .77-3.72c0-.13 0-.25.05-.37v-.25c0-.11 0-.22 0-.33l.11-1 .22-2.15c.17-1.59.35-3 .54-4.39.24-1.67.5-3.14.79-4.49a46.75 46.75 0 0 1 1.21-4.53 37.64 37.64 0 0 1 1.75-4.46c.13-.28.27-.54.39-.8l.13-.25.09-.18.17-.35.55-1 .29-.53c.19-.33.38-.67.57-1a51.83 51.83 0 0 1 5.42-7.55c1-1.13 2-2.27 3.18-3.39l.23-.22.61-.58.84-.78.33-.29v-11.61c-1 .67-2.07 1.3-3.08 1.92a47.21 47.21 0 0 0 -6.23 4.3z"/><path d="m109.28 96.05a14.24 14.24 0 0 0 2.21-.81 16.51 16.51 0 0 0 3.87-2.6 22.62 22.62 0 0 0 3.13-3.49 35 35 0 0 0 2.54-4c.38-.7.74-1.4 1.09-2.12.18-.35.35-.71.52-1.08s.34-.72.5-1.09c.67-1.45 1.28-2.93 1.86-4.42 1.16-3 2.17-6 3.06-9.11.22-.77.43-1.54.64-2.32l.31-1.17c.1-.41.21-.81.33-1.22.46-1.61 1-3.22 1.57-4.81a50.89 50.89 0 0 1 4.49-9.21 42.39 42.39 0 0 1 3-4.24l.07-.09c.53-.65 1.06-1.28 1.67-1.92a25 25 0 0 1 2-1.88c.68-.6 1.4-1.15 2.13-1.68s1.47-1 2.22-1.47c1.5-.92 3-1.72 4.48-2.48l1.1-.57.55-.28.27-.14.24-.13c.64-.34 1.27-.71 1.88-1.1a26.4 26.4 0 0 0 3.44-2.62 27.52 27.52 0 0 0 3-3.12c.45-.55.88-1.12 1.29-1.7.21-.29.41-.59.6-.89s.37-.58.54-.88a28.42 28.42 0 0 0 2-4.41v-1.09a17.88 17.88 0 0 0 -3-9.85c-.1.59-.21 1.18-.34 1.76a34 34 0 0 1 -1.1 3.88 33.55 33.55 0 0 1 -3.6 7.31l-.57.85-.61.83c-.2.27-.41.54-.62.8l-.65.78a37.79 37.79 0 0 1 -2.75 2.9 61.61 61.61 0 0 1 -6 4.89c-2 1.48-4.08 2.87-6 4.3s-3.84 2.9-5.6 4.44c-.87.76-1.71 1.56-2.54 2.39-.36.36-.71.72-1.05 1.09s-.9 1-1.33 1.47-.75.89-1.13 1.34-.73.92-1.08 1.39q-1.07 1.4-2 2.88a52.4 52.4 0 0 0 -7.91 19.72c0 .3-.11.58-.15.92l-.18 1q-.19.95-.45 1.86a33.8 33.8 0 0 1 -1.21 3.6 33.34 33.34 0 0 1 -3.49 6.7 24 24 0 0 1 -2.39 2.94 17.1 17.1 0 0 1 -2.19 1.88v-1.51c.32-.4.63-.8.93-1.22a20.71 20.71 0 0 0 1.7-2.86 29.55 29.55 0 0 0 2.15-6.29v.1c.12-.72.25-1.43.37-2.12v-.25-.1-.07c0-.13 0-.28 0-.45a11.13 11.13 0 0 1 .07-1.19v.17c0-1 0-2-.11-3 0-.49-.1-1-.16-1.44l-.12-.74-.11-.78q-.45-3.06-.87-6.16c-.27-2.07-.5-4.16-.66-6.28s-.24-4.25-.2-6.42a49.51 49.51 0 0 1 .36-5.13c.06-.47.12-.94.2-1.41a40.72 40.72 0 0 1 1.58-6.52c.35-1.07.75-2.14 1.19-3.18.12-.27.23-.53.35-.79l.36-.77c.12-.26.25-.52.38-.77l.37-.72v-.09-.05-.06l.12-.21.24-.41c.16-.28.33-.55.5-.81.34-.52.7-1 1.05-1.48l.54-.68.13-.16.07-.08v-.05l.08-.1.07-.09.13-.16c.36-.41.66-.68.81-.83s.14-.16.07-.1l.38-.39c.6-.61 1.24-1.2 1.88-1.77s1.3-1.1 2-1.62a49.35 49.35 0 0 1 4.14-2.8c2.8-1.69 5.61-3.11 8.34-4.53a77.53 77.53 0 0 0 7.81-4.48 32.61 32.61 0 0 0 3.49-2.77l.82-.79.4-.39.18-.2.2-.22c.52-.6 1-1.18 1.5-1.81a.4.4 0 0 1 .55-.08.39.39 0 0 1 .16.37c-.06.42-.14.83-.24 1.24-.05.2-.11.4-.16.6l-.18.59-.09.29c0 .09-.07.22-.11.31s-.16.42-.24.6l-.12.3-.13.28-.11.55-.29.57c-.1.18-.2.37-.31.55-.21.37-.43.74-.66 1.1-.46.71-1 1.4-1.49 2.07a33.84 33.84 0 0 1 -3.52 3.71c-.61.56-1.24 1.1-1.87 1.63l-1 .77-1 .75c-2.56 2-5.16 3.76-7.62 5.52s-4.74 3.45-6.89 5.29a8.68 8.68 0 0 1 -.68.64c-.24.19-.33.26-.32.23l-.06.06-.17.18-.16.16-.13.13-.48.48c-.31.32-.6.63-.86.95-.14.15-.26.31-.39.46l-.17.24-.09.11v.07l-.42.62-.38.57c-.25.39-.49.79-.72 1.19-.12.2-.23.4-.34.61s-.22.41-.32.62q-.31.61-.6 1.26a30.51 30.51 0 0 0 -1.76 5.46c0 .1 0 .2-.07.29a46.19 46.19 0 0 0 -.87 5.45c-.2 2-.29 3.94-.32 6s0 4 .07 6.08c0 1.05.08 2.1.13 3.16l.13-.71.2-.93a54.63 54.63 0 0 1 14.43-26.8c1.82-1.84 3.72-3.51 5.59-5.18s3.7-3.29 5.46-4.92 3.46-3.26 5-4.9c.79-.82 1.56-1.64 2.29-2.48l.55-.63.53-.63.52-.63.5-.65a38 38 0 0 0 3.64-5.52c.52-1 1-2 1.44-3s.85-2.11 1.22-3.2c.17-.5.3-1 .45-1.52a17.79 17.79 0 0 0 -10.19-3.28h-2.71l-.32.27-.37.29-.23.18-.9.7c-1.21.89-2.47 1.76-3.78 2.56-2.56 1.64-5.17 3.08-7.61 4.4l-3.77 2c-1.41.76-2.58 1.42-3.68 2s-2.45 1.41-3.64 2.09l-3.8 2.18c-2.92 1.71-5.13 3.08-7.17 4.46-1.48 1-2.79 2-4 2.9-.93.75-1.79 1.48-2.59 2.22a34.8 34.8 0 0 0 -2.88 3c-.46.54-.89 1.08-1.28 1.62s-.75 1.09-1.13 1.71a19.89 19.89 0 0 0 -1.76 3.73 17.79 17.79 0 0 0 -.56 2l-.09.45a.5.5 0 0 1 -.49.41h-.07a.5.5 0 0 1 -.44-.52 17.05 17.05 0 0 1 .34-2.69 20 20 0 0 1 1.38-4.25c.29-.65.62-1.31 1-2s.76-1.27 1.18-1.9.82-1.18 1.31-1.81 1-1.19 1.43-1.72a50.76 50.76 0 0 1 4.63-4.52c.56-.49 1.14-1 1.75-1.48 2-1.63 4.19-3.29 7-5.25 1.54-1.08 3.11-2.14 4.62-3.17l2.49-1.69 1.84-1.17c.55-.36 1.13-.74 1.83-1.18 1.17-.75 2.35-1.49 3.5-2.21l.14-.09c1.83-1.2 3.57-2.34 5.29-3.52h-11.57c-1 .62-2 1.22-3 1.82-2.19 1.31-4.34 2.62-6.42 4s-4.07 2.75-6 4.19l-1.47 1.09c-1.38 1.1-2.7 2.22-4 3.38-.85.78-1.67 1.58-2.46 2.41s-1.54 1.69-2.27 2.58a47.13 47.13 0 0 0 -4 5.73 53.42 53.42 0 0 0 -3.18 6.38c-.47 1.11-.9 2.24-1.3 3.4-.21.57-.39 1.16-.59 1.74l-.2.88c-.09.3-.17.6-.26.89q-.52 1.78-1 3.63c-.18.71-.34 1.44-.5 2.16-.12.52-.23 1-.35 1.56a.39.39 0 0 1 -.47.29.37.37 0 0 1 -.29-.3c-.11-.52-.21-1-.29-1.56a39.3 39.3 0 0 1 -.5-6.24 41.07 41.07 0 0 1 .74-7.95 41.66 41.66 0 0 1 2.28-7.78 40.64 40.64 0 0 1 3.93-7.3 40 40 0 0 1 2.49-3.33 37.24 37.24 0 0 1 2.86-3 41.93 41.93 0 0 1 6.46-5c1-.62 2-1.2 2.94-1.76 1.2-.67 2.41-1.31 3.61-1.92h-9.65l-1.43.74a30.48 30.48 0 0 0 -3.19 2c-.51.37-1 .75-1.48 1.15l-.36.3-.34.32-.2.14-.17.17-.35.33a37.7 37.7 0 0 0 -2.63 2.86l-.32.38-.3.38-.3.38c-.11.13-.2.27-.3.4l-.3.39c-.1.13-.19.27-.28.4s-.39.53-.57.81c-.37.54-.73 1.1-1.07 1.67s-.67 1.14-1 1.73c-.63 1.17-1.21 2.39-1.74 3.63a.39.39 0 0 1 -.5.2.37.37 0 0 1 -.17-.37 30.17 30.17 0 0 1 .89-4.07c.09-.34.2-.67.31-1 0-.17.1-.33.16-.5l.18-.49c.11-.34.24-.66.37-1s.26-.65.4-1 .29-.64.44-1c.07-.16.14-.33.22-.48l.19-.46.24-.47.25-.47.26-.47.26-.46a36.81 36.81 0 0 1 2.37-3.57l.32-.43.14-.22.17-.21.36-.43c.11-.14.24-.28.36-.42s.54-.57.82-.85h-5.11c-.07.09-.13.19-.21.28a.41.41 0 0 1 -.57 0 .42.42 0 0 1 -.15-.3v.02h-6.83c.09 1.42.18 2.82.26 4.21l.25 4.3c.08 1.59.14 3 .19 4.36 0 1.73.07 3.14.06 4.44 0 1.67-.07 3.15-.17 4.52a53 53 0 0 1 -1.36 9.17l-.13.57-.16.57c-.07.3-.16.6-.24.89l-.07.24c-.12.4-.25.79-.36 1.13l-.28.84-.1.27c-.51 1.44-1.08 2.89-1.71 4.29s-1.43 3-2.25 4.5c-.68 1.23-1.4 2.43-2.17 3.6-.95 1.45-1.82 2.65-2.74 3.81s-2 2.33-3.17 3.52c-1.83 1.82-3.7 3.44-5.52 5l-1.08.93-1.57 1.37-.37.34-.37.33-.5.47-.22.21c-.9.87-1.82 1.83-2.71 2.84s-1.71 2-2.48 3.06-1.5 2.12-2.19 3.22c-.17.25-.32.52-.47.78l-.29.49-.48.85-.14.28-.08.16-.13.23c-.1.21-.22.42-.31.62a32.19 32.19 0 0 0 -1.47 3.5 38.75 38.75 0 0 0 -1.09 3.74c-.29 1.18-.56 2.47-.81 3.94s-.45 2.79-.64 4.12l-.45 3.29c0 .14 0 .29-.07.44v.25c0 .16-.05.32-.08.48a33.53 33.53 0 0 1 -3 9.13 29.19 29.19 0 0 1 -1.85 3.08h9.34l.42-3a.4.4 0 0 1 .44-.34.41.41 0 0 1 .32.26 28.18 28.18 0 0 1 .94 3.13h4.34l-.14-.5c-.44-1.52-.93-3.06-1.42-4.61s-1-3.14-1.43-4.75a47.39 47.39 0 0 1 -1.13-5.01q-.1-.63-.18-1.26c-.05-.43-.1-.85-.13-1.27a24.14 24.14 0 0 1 -.08-2.55 19.09 19.09 0 0 1 .76-5 .39.39 0 0 1 .48-.26.4.4 0 0 1 .27.39 21.16 21.16 0 0 0 0 2.39c0 .39.06.78.11 1.18 0 .19.05.39.08.58l.09.58c.14.78.31 1.54.51 2.3s.44 1.51.7 2.25a86.24 86.24 0 0 0 3.82 8.79c.7 1.48 1.4 3 2.06 4.51.3.7.59 1.42.87 2.14h5.74c-.62-2-1.29-3.88-2-5.8l-.36-.92c-.12-.31-.24-.62-.37-.92l-.76-1.84c-.24-.59-.51-1.18-.78-1.78l-.83-1.82a61.59 61.59 0 0 1 -3.13-7.88 28.55 28.55 0 0 1 -1-4.47c0-.2 0-.39-.07-.59v-.3-.29-.6-.61c0-.2 0-.4 0-.61s0-.4 0-.61c0-.41 0-.82.09-1.23s.1-.82.16-1.23c0-.21.08-.41.12-.61a6 6 0 0 1 .14-.61l.16-.61c0-.2.12-.4.18-.6.12-.4.28-.79.43-1.18l.12-.3c0-.09.08-.19.12-.28l.27-.56.13-.28.15-.28.3-.53a18.77 18.77 0 0 1 1.31-2c.46-.63 1-1.23 1.45-1.79a5.14 5.14 0 0 1 .38-.42l.38-.41c.12-.14.25-.27.38-.4l.39-.39c.52-.52 1-1 1.55-1.49l1.55-1.39 1.44-1.35c.49-.44 1-.87 1.46-1.32s1-.9 1.43-1.35l.71-.69.69-.69c.23-.24.47-.46.69-.7l.67-.71.66-.72c.23-.24.43-.49.65-.73.86-1 1.68-2 2.46-3a36.63 36.63 0 0 0 2.15-3.21c.33-.55.64-1.11.94-1.69s.56-1.15.81-1.75c.07-.16.13-.32.2-.49l.15-.41.17-.45.16-.44.15-.47.13-.47c.05-.15.09-.31.13-.47l.12-.47a25.6 25.6 0 0 0 .47-3.98.39.39 0 0 1 .41-.36.39.39 0 0 1 .35.3 19.59 19.59 0 0 1 .27 7.21c-.06.42-.13.85-.21 1.26-.14.71-.32 1.41-.52 2.11s-.43 1.37-.69 2a33 33 0 0 1 -1.8 3.92 42.22 42.22 0 0 1 -2.2 3.66c-.2.3-.4.6-.6.88l-.62.87c-.42.57-.85 1.14-1.28 1.69-.88 1.11-1.78 2.19-2.72 3.24l-.71.78-.68.8-1.42 1.5-1.38 1.44c-.44.47-.88.94-1.3 1.42s-.81 1-1.18 1.42l-.27.36-.14.18-.13.18-.25.36-.13.17-.11.19a13.48 13.48 0 0 0 -1.48 2.9c-.08.25-.18.49-.24.74s-.08.25-.11.38l-.08.38c0 .13-.05.26-.07.39s-.05.26-.07.39-.07.52-.08.79a20.08 20.08 0 0 0 .87 6.78c.65 2.37 1.57 4.83 2.47 7.42.46 1.29.9 2.62 1.3 4 .1.35.19.68.28 1l.27 1c.18.67.34 1.36.5 2 .57 2.44 1 4.9 1.39 7.38h3.63c-.09-2-.19-4.11-.33-6.17-.23-3.1-.5-5.83-.83-8.34l-.06-.55c0-.18 0-.38-.07-.58s0-.41-.06-.58 0-.4-.06-.58c-.06-.8-.1-1.59-.1-2.36a27.75 27.75 0 0 1 .32-4.75 24.12 24.12 0 0 1 1.18-4.68 22.06 22.06 0 0 1 .94-2.24l.13-.27.27-.54.15-.27.3-.52.15-.26.15-.24a61.49 61.49 0 0 1 5.35-7.14l.51-.61 2.24-2.59c.38-.48.84-1 1.29-1.64l.32-.41.3-.41c.16-.21.32-.43.47-.65l.17-.19c.16-.22.32-.46.47-.69l.1-.15.2-.31.34-.56.28-.44.25-.45c.13-.21.25-.44.37-.65s.09-.16.13-.24a38.75 38.75 0 0 0 1.76-3.73 39.22 39.22 0 0 0 2.65-10.2 40.24 40.24 0 0 0 .28-4.54.51.51 0 0 1 .48-.5.5.5 0 0 1 .53.43c.12.87.21 1.76.26 2.64 0 .65.06 1.31.07 2s0 1.61-.05 2.42a40.11 40.11 0 0 1 -.5 4.39c-.1.61-.25 1.4-.43 2.18s-.34 1.39-.56 2.15a39.55 39.55 0 0 1 -3.44 8.26l-.11.19c-.15.26-.3.53-.46.79l-.08.13-.21.35-.3.47c-.42.67-.85 1.31-1.21 1.85-.61.89-1.23 1.78-1.84 2.63l-.65.92a61.37 61.37 0 0 0 -4.47 6.96l-.11.22-.1.21a3.9 3.9 0 0 0 -.2.42l-.1.22-.19.43-.08.21a18.42 18.42 0 0 0 -.6 1.77 21.09 21.09 0 0 0 -.67 3.69 25.56 25.56 0 0 0 0 3.82c0 .62.12 1.27.21 1.92 0 .16 0 .32.07.48s0 .33.08.48l.09.49.09.52c.53 2.82 1 5.75 1.33 8.68.26 2.11.48 4.32.7 6.82h8.35l-.06-.24c-.18-.68-.37-1.36-.58-2-.43-1.35-.89-2.7-1.38-4.07l-.71-2.15-.37-1.06-.37-1.09a37.56 37.56 0 0 1 -1.26-4.59 25.75 25.75 0 0 1 -.48-5 24.57 24.57 0 0 1 .56-5.28c0-.22.1-.44.16-.66s.11-.44.17-.65c.13-.44.26-.88.41-1.3a22.83 22.83 0 0 1 1-2.47 29.55 29.55 0 0 1 2.63-4.32c1-1.31 1.95-2.52 2.92-3.69s1.92-2.31 2.8-3.45l.32-.43.32-.44.64-.91c.42-.61.84-1.22 1.23-1.83a30 30 0 0 0 3.78-7.79 21.33 21.33 0 0 0 .49-2.1 19.79 19.79 0 0 0 .27-2.17 20.15 20.15 0 0 0 0-2.2c0-.37 0-.74-.09-1.11s-.08-.74-.13-1.12a.37.37 0 0 1 .28-.41.34.34 0 0 1 .26.06l.5.23.25.13.24.14.47.31.44.34.22.18c.08.06.14.13.21.19l.41.39.38.42.19.21.18.22c.22.29.46.59.66.9l.31.47c.1.16.2.32.29.48l.14.24a2 2 0 0 1 .13.25l.26.49.24.5c.07.16.15.33.22.5.24.56.44 1.12.63 1.69v14.73c-.09.25-.18.49-.28.73l-.11.26-.11.25-.23.5c-.15.33-.32.66-.48 1l-.52 1c-.15.27-.31.53-.45.8-.3.54-.57 1.08-.84 1.62s-.49 1.09-.71 1.65c-.11.28-.21.55-.31.83s-.2.56-.29.84c-.19.56-.34 1.12-.49 1.69s-.27 1.13-.37 1.7c0 .15 0 .29-.08.43l-.06.43c0 .28-.08.56-.1.85v.44.44.89 1.83c0 1.24.12 2.52.22 3.83s.17 2.63.2 4a28.18 28.18 0 0 1 -.22 4.1 18 18 0 0 1 -1 4 4.89 4.89 0 0 1 -.2.48c-.07.15-.13.31-.21.47a7.9 7.9 0 0 1 -.48.91 11.47 11.47 0 0 1 -1.17 1.68.37.37 0 0 1 -.2.12.39.39 0 0 1 -.28-.09.37.37 0 0 1 -.1-.46 11.89 11.89 0 0 0 1.13-3.54c0-.31.09-.61.11-.92 0-.15 0-.3 0-.45v-.47c0-.15 0-.3 0-.46v-.46-.46c0-.15 0-.31 0-.46a41 41 0 0 0 -1.28-7.49 43.85 43.85 0 0 1 -1.44-8.07c0-.36 0-.73 0-1.09 0-.19 0-.37 0-.55s0-.36 0-.54v-.54c0-.18 0-.36 0-.54 0-.36.07-.72.11-1.08a32.74 32.74 0 0 1 .79-4.2l.12-.51.14-.51c.09-.34.19-.68.28-1q.28-1 .6-2c.1-.33.21-.66.31-1s.16-.56.24-.84c.15-.55.29-1.11.4-1.67.24-1.11.44-2.21.64-3.3s.37-2.19.52-3.3v-.41-.21-.19c0 .08 0 .16-.08.24v-.19a2.17 2.17 0 0 0 -.07.24 40.91 40.91 0 0 1 -1.56 4.39c-.33.72-.67 1.42-1 2.12l-.54 1-.28.53-.29.53c-.78 1.4-1.62 2.71-2.43 4s-1.61 2.53-2.31 3.76a23.23 23.23 0 0 0 -1.72 3.67 12.33 12.33 0 0 0 -.5 1.82c-.06.3-.1.6-.14.91v.46.46a19.15 19.15 0 0 0 .21 3.85c.21 1.29.48 2.62.76 4s.57 2.79.82 4.27l.19 1.12.23 1.16c.11.77.21 1.56.29 2.36a33.19 33.19 0 0 1 .14 4.9 23 23 0 0 1 -.33 2.86h10.9c1-.59 2-1.15 3-1.69l1-.55 1.89-1v-1c.75-.41 1.49-.82 2.21-1.25.55-.32 1.08-.66 1.61-1l.78-.51.79-.55.78-.55.76-.58.77-.57.75-.6a64.18 64.18 0 0 0 10.66-10.91l.57-.76c.2-.25.39-.5.57-.77l.56-.77c.18-.26.37-.52.54-.79l.54-.79.26-.39.14-.2.12-.2.51-.81.26-.41c.09-.13.17-.26.25-.4.33-.55.66-1.1 1-1.65l.93-1.67q.88-1.66 1.71-3.42c1.09-2.34 2.12-4.8 3.18-7.32s2.18-5.09 3.49-7.65a46.42 46.42 0 0 1 4.63-7.47 33.88 33.88 0 0 1 3-3.37l.81-.78.85-.74a22.69 22.69 0 0 1 1.84-1.43c.63-.44 1.27-.84 1.91-1.22l.5-.29c.48-.26.95-.52 1.43-.76 1.28-.65 2.55-1.23 3.8-1.79s2.45-1.09 3.62-1.66c.59-.28 1.15-.57 1.71-.88l.18-.11v-6.19a36.23 36.23 0 0 1 -3 2.56 34.48 34.48 0 0 1 -4.55 2.92c-.79.43-1.6.83-2.42 1.2l-2.26 1c-.73.31-1.45.64-2.15 1s-1.38.68-2 1a29.26 29.26 0 0 0 -2.81 1.72c-.3.21-.59.43-.88.66-.57.44-1.11.91-1.64 1.4l-.38.38-.39.4-.39.41c-.13.14-.26.27-.38.42a35.26 35.26 0 0 0 -2.85 3.56c-.45.62-.87 1.26-1.28 1.91s-.81 1.32-1.19 2q-1.14 2-2.1 4.17t-1.76 4.36c-.14.38-.27.75-.39 1.12l-.4 1.17c-.27.78-.54 1.56-.83 2.34-1.13 3.11-2.4 6.18-3.83 9.17-.71 1.5-1.46 3-2.26 4.43s-1.63 2.89-2.57 4.29a37.74 37.74 0 0 1 -3 4 24.34 24.34 0 0 1 -3.71 3.46 17.28 17.28 0 0 1 -4.49 2.43 14.66 14.66 0 0 1 -2.44.66 14.47 14.47 0 0 1 -1.58.19v-.86a12.56 12.56 0 0 0 1.3-.31z"/><path d="m.38 31.61c.12-.26.25-.52.38-.77l.37-.72.05-.12v-.05-.06l.12-.21c.08-.14.15-.28.24-.41.16-.28.33-.55.5-.81.34-.52.69-1 1.05-1.48l.54-.68.13-.16.07-.08v-.05l.09-.1.06-.09.14-.16c.36-.41.66-.68.81-.83s.14-.16.07-.1l.38-.39c.6-.61 1.23-1.2 1.87-1.77s1.31-1.1 2-1.62a49.35 49.35 0 0 1 4.14-2.8c2.8-1.69 5.61-3.11 8.34-4.53a77.53 77.53 0 0 0 7.81-4.48 32.61 32.61 0 0 0 3.49-2.77l.82-.79.4-.39.18-.2.2-.22c.52-.6 1-1.18 1.5-1.81a.4.4 0 0 1 .55-.08.42.42 0 0 1 .16.37c-.06.42-.14.83-.24 1.24 0 .2-.11.4-.16.6l-.18.59-.04.32c0 .09-.07.22-.11.31s-.16.42-.24.6l-.12.3-.13.28c-.09.19-.18.38-.28.57s-.18.38-.28.57-.2.37-.31.55c-.21.37-.43.74-.66 1.1a24.7 24.7 0 0 1 -1.5 2.07 32.82 32.82 0 0 1 -3.48 3.65c-.61.56-1.24 1.1-1.87 1.63l-.95.77-1 .75c-2.56 2-5.17 3.76-7.62 5.52s-4.67 3.46-6.85 5.33a8.68 8.68 0 0 1 -.68.64c-.24.19-.33.26-.32.23l-.06.06-.18.18-.15.16-.13.13-.48.48c-.31.32-.6.63-.86.95-.14.15-.26.31-.39.46l-.17.24-.09.11v.07l-.42.62-.38.57c-.25.39-.49.79-.72 1.19-.12.2-.23.4-.34.61s-.22.41-.32.62q-.32.61-.6 1.26a30.51 30.51 0 0 0 -1.85 5.42c0 .1-.05.2-.07.29a46.19 46.19 0 0 0 -.87 5.45c-.2 2-.29 3.94-.32 6s0 4 .07 6.08c0 1.05.08 2.1.13 3.16l.13-.71.2-.93a54.63 54.63 0 0 1 14.47-26.8c1.82-1.84 3.72-3.54 5.58-5.18s3.71-3.29 5.47-4.92 3.45-3.26 5-4.9c.79-.82 1.56-1.64 2.29-2.48l.55-.63.53-.63.52-.63.5-.65a38 38 0 0 0 3.6-5.52c.52-1 1-2 1.44-3s.85-2.11 1.22-3.2c.51-1.53.93-3.12 1.31-4.73h-13.79l-.34.22-.37.29-.23.18-.9.7c-1.16.87-2.41 1.74-3.73 2.54-2.56 1.64-5.17 3.08-7.61 4.4l-3.77 2c-1.41.76-2.58 1.42-3.68 2s-2.45 1.41-3.64 2.09l-3.8 2.31-2.57 1.53v14.09z"/><path d="m7.26 8.17c.61-.42 1.23-.83 1.82-1.17s1.13-.74 1.83-1.18c1.17-.75 2.35-1.49 3.5-2.21l.14-.09c1.81-1.2 3.57-2.34 5.28-3.52h-1.92a17.92 17.92 0 0 0 -17.1 12.57l4-2.71z"/><path d="m38.47 72.93c.13-.28.26-.54.39-.8l.13-.25.09-.18.17-.35.55-1 .29-.53c.19-.33.38-.67.57-1a51.83 51.83 0 0 1 5.42-7.55c1-1.13 2-2.27 3.18-3.39l.23-.22.61-.58.84-.78 1.65-1.46 1-.9c1.83-1.59 3.56-3.09 5.12-4.66a38.22 38.22 0 0 0 2.58-2.85c.5-.62 1-1.34 1.59-2.14.23-.32.46-.66.69-1a50.15 50.15 0 0 0 3.86-6.92c.55-1.19 1.06-2.42 1.51-3.66l.09-.23.24-.69.3-.91.1-.34c.06-.19.13-.39.18-.59l.13-.47.13-.47c.32-1.21.58-2.46.81-3.83s.38-2.58.5-3.95.19-2.55.24-4.06c0-1.22.07-2.53.07-4.14 0-1.3 0-2.63-.05-3.92v-.3l-.09-4.28c0-1.48-.07-3-.11-4.51h-3.13l.07.82.11 2.09a80 80 0 0 1 -.09 8.34 63.85 63.85 0 0 1 -1.07 8.27c-.07.34-.14.69-.22 1l-.25 1-.06.26-.07.25-.14.5-.15.51c0 .17-.1.34-.15.5-.41 1.35-.9 2.66-1.44 4s-1.16 2.56-1.82 3.81l-.51.93-.56.9c-.17.31-.37.6-.56.9s-.37.6-.58.89l-.6.88-.63.86c-.21.29-.44.57-.66.85s-.43.56-.67.83l-.7.82c-.25.27-.5.55-.76.81s-.53.53-.8.79-.55.5-.83.73c-.56.48-1.14.94-1.72 1.37s-1.18.84-1.78 1.23l-.18.12c-1.13.74-2.26 1.43-3.36 2.1a48 48 0 0 0 -6.34 4.3c-.44.39-.87.78-1.27 1.19l-.63.66-.61.69a31.6 31.6 0 0 0 -2.22 2.89 41.22 41.22 0 0 0 -3.6 6.58c-2.09 4.69-3.64 9.87-5.86 15.12-.28.66-.57 1.31-.87 2l-.46 1-.49 1-1 1.91c-.35.63-.72 1.25-1.08 1.87s-.76 1.23-1.14 1.84l-.14.23-.15.23-.31.45-.6.89c-.2.3-.42.59-.63.88l-.64.88c-.21.29-.43.58-.65.86l-.68.85a60.52 60.52 0 0 1 -12.32 11.6 18.08 18.08 0 0 0 3.85 2.42c1.62-1 3.2-1.94 4.71-3 1-.71 1.94-1.43 2.85-2.2.46-.38.91-.77 1.34-1.18s.87-.81 1.28-1.24a33.26 33.26 0 0 0 4.49-5.67 31.31 31.31 0 0 0 3-6.43c.39-1.16.74-2.37 1.1-3.58s.7-2.44 1.07-3.66c.73-2.44 1.48-4.89 2.39-7.29a38.45 38.45 0 0 1 1.52-3.56 15.21 15.21 0 0 1 2.11-3.31.38.38 0 0 1 .54 0 .37.37 0 0 1 .06.5 11.3 11.3 0 0 0 -.89 1.6c-.26.56-.49 1.13-.71 1.71-.42 1.17-.76 2.37-1.08 3.58-.63 2.42-1.12 4.89-1.59 7.37l-.66 3.64c-.23 1.25-.47 2.51-.77 3.79-.07.32-.15.64-.24 1-.05.16-.09.32-.14.48s-.09.32-.14.48c-.19.64-.41 1.28-.64 1.9s-.48 1.25-.74 1.87-.56 1.22-.86 1.81a36.67 36.67 0 0 1 -4.43 6.67c-.43.52-.87 1-1.33 1.52s-.92 1-1.4 1.46-1 .93-1.47 1.38-1 .88-1.5 1.3c-.26.22-.54.41-.8.62h.51 9.62a22.84 22.84 0 0 0 4.13-6.17 25.53 25.53 0 0 0 1.34-3.47 30.74 30.74 0 0 0 .77-3.72c0-.13 0-.25.05-.37v-.25c0-.11 0-.22 0-.33l.18-.97.22-2.15c.17-1.59.34-3 .54-4.39.24-1.67.5-3.14.79-4.49a46.75 46.75 0 0 1 1.21-4.53 37.64 37.64 0 0 1 1.71-4.51z"/><path d="m3.87 89.15a35 35 0 0 0 2.54-4c.38-.7.74-1.4 1.09-2.12.18-.35.35-.71.52-1.08s.34-.72.5-1.09c.66-1.45 1.28-2.93 1.86-4.42q1.74-4.49 3-9.11c.23-.77.44-1.54.65-2.32l.3-1.17c.11-.41.22-.81.34-1.22.46-1.61 1-3.22 1.57-4.81a50.89 50.89 0 0 1 4.49-9.21 42.39 42.39 0 0 1 3-4.24l.07-.09c.53-.65 1.06-1.28 1.67-1.92a25 25 0 0 1 2-1.88c.68-.6 1.4-1.15 2.12-1.68s1.48-1 2.23-1.47c1.5-.92 3-1.72 4.48-2.48l1.1-.57.6-.27.27-.14.24-.13c.64-.34 1.27-.71 1.88-1.1a26.4 26.4 0 0 0 3.44-2.63 27.52 27.52 0 0 0 3-3.12c.45-.55.88-1.12 1.29-1.7.21-.29.41-.59.6-.89s.36-.58.53-.88a30.51 30.51 0 0 0 3.08-7.8 41.58 41.58 0 0 0 1.2-8.75c.06-1.5 0-3 0-4.57 0-.75-.08-1.51-.14-2.27h-4.66a36.17 36.17 0 0 1 -.12 5.88 33.32 33.32 0 0 1 -.61 3.92 34 34 0 0 1 -1.1 3.88 33.55 33.55 0 0 1 -3.63 7.3l-.57.85-.61.83c-.2.27-.41.54-.62.8l-.65.78a37.79 37.79 0 0 1 -2.75 2.9 61.61 61.61 0 0 1 -6 4.89c-2 1.48-4.08 2.87-6 4.3s-3.84 2.9-5.6 4.44c-.87.76-1.72 1.56-2.54 2.39-.36.36-.71.72-1.06 1.09s-.89 1-1.32 1.47-.75.89-1.13 1.34-.73.92-1.08 1.39q-1.07 1.4-2 2.88a52.84 52.84 0 0 0 -6.23 12.78 50.1 50.1 0 0 0 -1.74 7c-.05.3-.11.58-.15.92l-.22.95q-.19.95-.45 1.86a36.21 36.21 0 0 1 -1.21 3.6q-.57 1.54-1.34 3.05v8.92a17.63 17.63 0 0 0 .22 2.64l.52-.43a22.62 22.62 0 0 0 3.13-3.49z"/><path d="m12.4 87.58.57-.76c.2-.25.39-.5.57-.77l.56-.77c.18-.26.37-.52.54-.79l.54-.79.26-.39.14-.2.12-.2.51-.81.26-.41c.09-.13.17-.26.25-.4l1-1.65.91-1.64q.89-1.66 1.71-3.42c1.09-2.34 2.11-4.8 3.18-7.32s2.18-5.12 3.48-7.68a46.42 46.42 0 0 1 4.63-7.47 33.88 33.88 0 0 1 3-3.37l.81-.78.85-.74a22.69 22.69 0 0 1 1.84-1.43c.63-.44 1.27-.84 1.91-1.22l.5-.29c.48-.26.95-.52 1.42-.76 1.29-.65 2.56-1.23 3.81-1.79s2.45-1.09 3.62-1.66c.58-.28 1.15-.57 1.71-.88s1.1-.63 1.62-1c.26-.16.51-.34.77-.52s.5-.36.74-.56l.71-.59.71-.65c.24-.22.46-.45.69-.68s.46-.45.68-.7l.66-.71.63-.75a30.06 30.06 0 0 0 2.32-3.15c.09-.13.18-.27.26-.41l.26-.42.25-.42.13-.21.12-.22.47-.86.44-.88a31.33 31.33 0 0 0 1.51-3.64 32.88 32.88 0 0 0 1.06-3.8c0-.16.07-.32.1-.48l.09-.49.16-1c.06-.33.12-.65.15-1l.12-1 .05-.5a4.07 4.07 0 0 0 0-.49l.07-1 .06-1c0-.33 0-.66 0-1a48 48 0 0 0 -.56-7.94c-.12-.98-.37-2.05-.56-3.12h-5.53v.19c.1.42.2.84.29 1.26a44 44 0 0 1 .81 5.16 40.59 40.59 0 0 1 .17 5.3 34 34 0 0 1 -.55 5.37 29.34 29.34 0 0 1 -1.55 5.29 27.66 27.66 0 0 1 -1.17 2.54 25.7 25.7 0 0 1 -1.44 2.42c-.26.39-.53.77-.81 1.15s-.55.73-.84 1.09c-.58.71-1.18 1.4-1.81 2.06a35 35 0 0 1 -4.08 3.62 35.15 35.15 0 0 1 -4.55 2.92c-.79.43-1.6.83-2.42 1.2l-2.26 1c-.73.31-1.45.64-2.15 1s-1.38.68-2 1a29.26 29.26 0 0 0 -2.81 1.72c-.3.21-.59.43-.88.66-.57.44-1.12.91-1.64 1.4l-.38.38-.39.4-.39.41c-.13.14-.26.27-.39.42a36.62 36.62 0 0 0 -2.84 3.56c-.45.62-.87 1.26-1.28 1.91s-.81 1.32-1.19 2q-1.14 2-2.1 4.17t-1.76 4.36c-.14.38-.27.75-.39 1.12l-.48 1.15c-.27.78-.54 1.56-.83 2.34-1.13 3.11-2.4 6.18-3.83 9.17-.71 1.5-1.46 3-2.26 4.43s-1.63 2.89-2.57 4.29a37.74 37.74 0 0 1 -3 4 24.82 24.82 0 0 1 -3.71 3.46c-.4.3-.81.58-1.24.85a17.83 17.83 0 0 0 1.33 3.6 64 64 0 0 0 10.51-10.79z"/></g><g fill="#f7d9a1"><path d="m119.39 9.86c-1.51 1-3.08 2.09-4.62 3.17-2.79 2-5 3.62-7 5.25-.61.5-1.19 1-1.75 1.48a50.76 50.76 0 0 0 -4.65 4.61c-.47.53-.93 1.09-1.43 1.72s-.94 1.22-1.29 1.81-.82 1.27-1.18 1.9-.71 1.35-1 2a20 20 0 0 0 -1.38 4.25 17.05 17.05 0 0 0 -.34 2.69.5.5 0 0 0 .44.52h.07a.5.5 0 0 0 .49-.41l.09-.45a17.79 17.79 0 0 1 .56-2 19.89 19.89 0 0 1 1.76-3.73c.38-.62.75-1.18 1.13-1.71s.82-1.08 1.28-1.62a34.8 34.8 0 0 1 2.88-3c.8-.74 1.66-1.47 2.59-2.22 1.19-.94 2.5-1.89 4-2.9 2-1.38 4.25-2.75 7.17-4.46l3.8-2.18c1.19-.68 2.43-1.38 3.64-2.09s2.27-1.29 3.68-2l3.77-2c2.44-1.32 5-2.76 7.61-4.4 1.32-.84 2.57-1.71 3.73-2.58l.9-.7.23-.18.37-.29.32-.27h-10.8c-1.72 1.18-3.48 2.32-5.29 3.47l-.14.09c-1.15.72-2.33 1.46-3.5 2.21-.7.44-1.28.82-1.83 1.18l-1.82 1.22z" opacity=".41"/><path d="m164 40.07c-1.17.57-2.38 1.11-3.62 1.66s-2.52 1.14-3.8 1.79c-.48.24-1 .5-1.43.76l-.5.29c-.64.38-1.28.78-1.91 1.22a22.69 22.69 0 0 0 -1.84 1.43l-.85.74-.81.78a33.88 33.88 0 0 0 -3 3.37 46.42 46.42 0 0 0 -4.63 7.47c-1.31 2.56-2.42 5.14-3.49 7.65s-2.09 5-3.18 7.32q-.83 1.76-1.71 3.42l-.93 1.67c-.32.55-.65 1.1-1 1.65-.08.14-.16.27-.25.4l-.26.41-.51.81-.12.2-.14.2-.26.39-.54.79c-.17.27-.36.53-.54.79l-.56.77c-.18.27-.37.52-.57.77l-.57.76a64.18 64.18 0 0 1 -10.64 10.9l-.75.6-.77.57-.76.58-.78.55-.79.55-.78.51c-.53.34-1.06.68-1.61 1-.72.43-1.46.84-2.21 1.25v1l-1.89 1v-1l-2.93 1.55c-1 .54-2 1.1-3 1.69h14.29c.31-.15.62-.3.93-.47l1-.53.93-.55.93-.55.91-.59.91-.59.89-.62a61 61 0 0 0 12.62-11.81l.67-.85c.22-.28.44-.57.65-.86l.64-.88c.21-.29.43-.58.63-.88l.61-.89.3-.45.15-.23.14-.23c.38-.61.77-1.22 1.14-1.84s.73-1.24 1.08-1.87l1-1.91.49-1 .46-1c.3-.66.59-1.31.87-2 2.22-5.25 3.78-10.43 5.86-15.12a41.22 41.22 0 0 1 3.6-6.58 31.6 31.6 0 0 1 2.23-2.81l.61-.69.63-.66c.4-.41.83-.8 1.28-1.19a47.21 47.21 0 0 1 6.33-4.3c1-.62 2-1.25 3.08-1.92v-5.38l-.18.11c-.6.31-1.16.6-1.75.88z" opacity=".41"/><path d="m163.87 23.39c-.17.3-.36.59-.54.88s-.39.6-.6.89c-.41.58-.84 1.15-1.29 1.7a27.52 27.52 0 0 1 -3 3.12 26.4 26.4 0 0 1 -3.44 2.65c-.61.39-1.24.76-1.88 1.1l-.24.13-.27.14-.55.28-1.1.57c-1.47.76-3 1.56-4.48 2.48-.75.46-1.5 1-2.22 1.47s-1.45 1.08-2.13 1.68a25 25 0 0 0 -2 1.88c-.61.64-1.14 1.27-1.67 1.92l-.07.09a42.39 42.39 0 0 0 -3 4.24 50.89 50.89 0 0 0 -4.49 9.21c-.59 1.59-1.11 3.2-1.57 4.81-.12.41-.23.81-.33 1.22l-.3 1.15c-.21.78-.42 1.55-.64 2.32-.89 3.08-1.9 6.12-3.06 9.11-.58 1.49-1.19 3-1.86 4.42-.16.37-.33.73-.5 1.09s-.34.73-.52 1.08c-.35.72-.71 1.42-1.09 2.12a35 35 0 0 1 -2.54 4 22.62 22.62 0 0 1 -3.13 3.49 16.51 16.51 0 0 1 -3.87 2.6 14.24 14.24 0 0 1 -2.21.81 12.56 12.56 0 0 1 -1.35.31v.86a14.47 14.47 0 0 0 1.58-.19 14.66 14.66 0 0 0 2.44-.66 17.28 17.28 0 0 0 4.46-2.44 24.34 24.34 0 0 0 3.71-3.46 37.74 37.74 0 0 0 3-4c.94-1.4 1.77-2.84 2.57-4.29s1.55-2.93 2.26-4.43c1.43-3 2.7-6.06 3.83-9.17.29-.78.56-1.56.83-2.34l.4-1.17c.12-.37.25-.74.39-1.12q.8-2.22 1.76-4.36t2.1-4.17c.38-.67.78-1.33 1.19-2s.83-1.29 1.28-1.91a35.26 35.26 0 0 1 2.89-3.5c.12-.15.25-.28.38-.42l.39-.41.39-.4.38-.38c.53-.49 1.07-1 1.64-1.4.29-.23.58-.45.88-.66a29.26 29.26 0 0 1 2.81-1.72c.66-.36 1.34-.7 2-1s1.42-.66 2.15-1l2.26-1c.82-.37 1.63-.77 2.42-1.2a34.48 34.48 0 0 0 4.55-2.92 36.23 36.23 0 0 0 3-2.56v-13.93a28.42 28.42 0 0 1 -2 4.39z" opacity=".41"/><path d="m136.4 13.64c-2.73 1.42-5.54 2.84-8.34 4.53a49.35 49.35 0 0 0 -4.14 2.8c-.67.52-1.33 1.06-2 1.62s-1.28 1.16-1.88 1.77l-.38.39c.07-.06.08 0-.07.1s-.45.42-.81.83l-.13.16-.07.09-.08.1v.05l-.07.08-.13.16-.54.68c-.35.47-.71 1-1.05 1.48-.17.26-.34.53-.5.81l-.24.41-.12.21v.06.05.09l-.37.72c-.13.25-.26.51-.38.77l-.36.77c-.12.26-.23.52-.35.79-.44 1-.84 2.11-1.19 3.18a40.72 40.72 0 0 0 -1.58 6.52c-.08.47-.14.94-.2 1.41a49.51 49.51 0 0 0 -.36 5.13q-.06 3.26.2 6.42c.16 2.12.39 4.21.66 6.28s.57 4.12.87 6.16l.11.78.12.74c.06.47.11.95.16 1.44.08 1 .11 2 .11 3v-.17a11.13 11.13 0 0 0 -.07 1.19v.45.07.1.25c-.12.69-.25 1.4-.37 2.12v-.1a29.55 29.55 0 0 1 -2.15 6.29 20.71 20.71 0 0 1 -1.7 2.86c-.3.42-.61.82-.93 1.22v1.47a17.1 17.1 0 0 0 2.19-1.88 24 24 0 0 0 2.39-2.94 33.34 33.34 0 0 0 3.49-6.7 33.8 33.8 0 0 0 1.21-3.6q.26-.91.45-1.86l.18-1c0-.34.1-.62.15-.92a52.4 52.4 0 0 1 7.9-19.72q1-1.48 2-2.88c.35-.47.72-.93 1.08-1.39s.75-.9 1.13-1.34.88-1 1.33-1.47.69-.73 1.05-1.09c.83-.83 1.67-1.63 2.54-2.39 1.76-1.54 3.64-3 5.6-4.44s4-2.82 6-4.3a61.61 61.61 0 0 0 6-4.89 37.79 37.79 0 0 0 2.75-2.9l.65-.78c.21-.26.42-.53.62-.8l.61-.83.57-.85a33.55 33.55 0 0 0 3.6-7.31 34 34 0 0 0 1.1-3.88c.13-.58.24-1.17.34-1.76a18.08 18.08 0 0 0 -4.74-4.85c-.15.51-.28 1-.45 1.52-.37 1.09-.77 2.16-1.22 3.2s-.92 2.05-1.44 3a38 38 0 0 1 -3.56 5.55l-.5.65-.52.63-.53.63-.55.63c-.73.84-1.5 1.66-2.29 2.48-1.58 1.64-3.27 3.27-5 4.9s-3.6 3.26-5.46 4.92-3.77 3.34-5.59 5.18a54.63 54.63 0 0 0 -14.47 26.74l-.2.93-.13.71c0-1.06-.09-2.11-.13-3.16-.06-2-.1-4.07-.07-6.08s.12-4 .32-6a46.19 46.19 0 0 1 .87-5.45c0-.09 0-.19.07-.29a30.51 30.51 0 0 1 1.76-5.38q.28-.64.6-1.26c.1-.21.22-.42.32-.62s.22-.41.34-.61c.23-.4.47-.8.72-1.19l.38-.57.42-.62v-.07l.09-.11.17-.24c.13-.15.25-.31.39-.46.26-.32.55-.63.86-.95l.48-.48.13-.13.16-.16.17-.18.06-.06s.08 0 .32-.23a8.68 8.68 0 0 0 .68-.64c2.15-1.84 4.45-3.54 6.89-5.29s5.06-3.54 7.62-5.52l1-.75 1-.77c.63-.53 1.26-1.07 1.87-1.63a33.84 33.84 0 0 0 3.49-3.68c.53-.67 1-1.36 1.49-2.07.23-.36.45-.73.66-1.1.11-.18.21-.37.31-.55l.21-.57.27-.57.13-.28.12-.3c.08-.18.16-.4.24-.6s.08-.22.11-.31l.09-.29.18-.59c0-.2.11-.4.16-.6.1-.41.18-.82.24-1.24a.39.39 0 0 0 -.16-.37.4.4 0 0 0 -.55.08c-.47.63-1 1.21-1.5 1.81l-.2.22-.18.2-.4.39-.82.79a32.61 32.61 0 0 1 -3.49 2.77 77.53 77.53 0 0 1 -7.84 4.53z" opacity=".41"/><path d="m164.72 57.07-.61.58-.23.22c-1.14 1.12-2.21 2.26-3.18 3.39a51.83 51.83 0 0 0 -5.42 7.55c-.19.32-.38.66-.57 1l-.29.53-.55 1-.17.35-.09.18-.13.25c-.12.26-.26.52-.39.8a37.64 37.64 0 0 0 -1.75 4.46 46.75 46.75 0 0 0 -1.21 4.53c-.29 1.35-.55 2.82-.79 4.49-.19 1.37-.37 2.8-.54 4.39l-.22 2.21-.11 1v.33.25c0 .12 0 .24-.05.37a28.93 28.93 0 0 1 -.77 3.72 25.53 25.53 0 0 1 -1.27 3.5 22.84 22.84 0 0 1 -4.13 6.17h5.75a18 18 0 0 0 3.14-.29 28.43 28.43 0 0 0 1.65-2.79 33.19 33.19 0 0 0 3-9.13c0-.16.06-.32.08-.48v-.25c0-.15 0-.3.07-.44l.45-3.22c.19-1.33.4-2.75.64-4.12s.52-2.76.81-3.94a38.75 38.75 0 0 1 1.09-3.74 32.19 32.19 0 0 1 1.47-3.5c.09-.2.21-.41.32-.62l.12-.23c0-.06 0-.11.08-.16l.15-.28.47-.85.29-.49c.15-.26.3-.53.47-.78.69-1.13 1.43-2.23 2.19-3.26.44-.6.91-1.19 1.4-1.78v-11.99l-.33.29z" opacity=".41"/><path d="m143.81 93.51c.26-.62.52-1.24.75-1.87s.44-1.26.63-1.9c.05-.16.1-.32.14-.48s.09-.32.14-.48c.09-.33.17-.65.24-1 .3-1.28.54-2.54.78-3.79l.69-3.74c.47-2.48 1-5 1.59-7.37.32-1.21.66-2.41 1.08-3.58.22-.58.45-1.15.71-1.71a11.3 11.3 0 0 1 .89-1.6.37.37 0 0 0 -.06-.5.38.38 0 0 0 -.54 0 14.81 14.81 0 0 0 -2.1 3.31 38.53 38.53 0 0 0 -1.53 3.56c-.91 2.4-1.66 4.85-2.39 7.29-.37 1.22-.72 2.45-1.07 3.66s-.71 2.42-1.1 3.58a30.81 30.81 0 0 1 -3.08 6.48 33.26 33.26 0 0 1 -4.44 5.63c-.41.43-.84.84-1.28 1.24s-.88.8-1.34 1.18c-.9.77-1.87 1.49-2.85 2.2a68 68 0 0 1 -6.19 3.88c-.49.28-1 .55-1.5.82h10c.27-.21.56-.41.83-.64.51-.42 1-.86 1.5-1.3s1-.91 1.47-1.38 1-1 1.4-1.46.9-1 1.33-1.52a36.67 36.67 0 0 0 4.49-6.7c.25-.59.54-1.2.81-1.81z" opacity=".41"/><path d="m164.53 90.65c-.2-.76-.37-1.52-.51-2.3l-.09-.58c0-.19-.05-.39-.08-.58 0-.4-.08-.79-.11-1.18a21.16 21.16 0 0 1 0-2.39.4.4 0 0 0 -.27-.39.39.39 0 0 0 -.48.26 18.68 18.68 0 0 0 -.75 5 21.72 21.72 0 0 0 .06 2.51c0 .42.08.84.13 1.27l.18 1.26a47.39 47.39 0 0 0 1.11 4.92l.09.31a17.89 17.89 0 0 0 1.75-5c-.11-.3-.23-.59-.33-.89-.23-.71-.49-1.46-.7-2.22z" opacity=".41"/><path d="m6.37 14.62c1.19-.68 2.43-1.38 3.64-2.09s2.27-1.29 3.68-2l3.77-2c2.44-1.41 5.05-2.85 7.61-4.53 1.32-.84 2.57-1.71 3.73-2.58l.9-.7.23-.18.37-.25.32-.29h-10.79c-1.71 1.18-3.47 2.32-5.28 3.47l-.14.09c-1.15.72-2.33 1.46-3.5 2.21-.7.44-1.28.82-1.83 1.18s-1.21.8-1.82 1.22l-2.49 1.69-4 2.71a17.8 17.8 0 0 0 -.77 5.34v.42l2.57-1.53z" opacity=".41"/><path d="m93.78 11.7a40 40 0 0 0 -2.49 3.3 40.64 40.64 0 0 0 -3.86 7.28 41.66 41.66 0 0 0 -2.28 7.78 41.07 41.07 0 0 0 -.74 8 39.3 39.3 0 0 0 .5 6.24c.08.52.18 1 .29 1.56a.37.37 0 0 0 .29.3.39.39 0 0 0 .47-.29c.12-.52.23-1 .35-1.56.16-.72.32-1.45.5-2.16q.43-1.84 1-3.63c.09-.29.17-.59.26-.89l.27-.88c.2-.58.38-1.17.59-1.74.4-1.16.83-2.29 1.3-3.4a53.42 53.42 0 0 1 3.18-6.38 47.13 47.13 0 0 1 4-5.73c.73-.89 1.49-1.75 2.27-2.58s1.61-1.63 2.46-2.41c1.26-1.16 2.58-2.28 4-3.38l1.34-1.13c1.9-1.44 3.9-2.84 6-4.19s4.23-2.67 6.42-4c1-.6 2-1.2 3-1.82h-13.25c-1.2.61-2.41 1.25-3.61 1.92-1 .56-2 1.14-2.94 1.76a41.93 41.93 0 0 0 -6.46 5 37.24 37.24 0 0 0 -2.86 3.03z" opacity=".41"/><path d="m83.18 18.37a.39.39 0 0 0 .5-.2c.53-1.24 1.11-2.46 1.74-3.63.32-.59.65-1.17 1-1.73s.7-1.13 1.07-1.67c.18-.28.37-.54.57-.81s.18-.27.28-.4l.3-.39c.1-.13.19-.27.3-.4l.3-.38.3-.38.31-.38a37.7 37.7 0 0 1 2.65-2.86l.35-.33.15-.17.18-.15.34-.32.36-.3c.48-.4 1-.78 1.48-1.15a30.48 30.48 0 0 1 3.19-2l1.45-.72h-8.26c-.28.28-.56.56-.82.85s-.25.28-.36.42l-.36.43-.2.21-.17.22-.32.43a36.81 36.81 0 0 0 -2.37 3.57l-.26.46-.26.47-.25.47-.21.47-.24.48c-.08.15-.15.32-.22.48-.15.32-.3.64-.44 1s-.28.65-.4 1-.26.65-.37 1l-.18.49c-.06.17-.11.33-.16.5-.11.34-.22.67-.31 1a30.17 30.17 0 0 0 -.84 4.05.37.37 0 0 0 .18.37z" opacity=".41"/><path d="m85.67 0a.42.42 0 0 0 .15.3.41.41 0 0 0 .57 0c.08-.09.14-.19.21-.28h-.93z" opacity=".41"/><path d="m46.09 75.82.13-.23.08-.16.14-.28.48-.85.29-.49c.15-.26.3-.53.47-.78.69-1.13 1.43-2.23 2.19-3.26s1.6-2.06 2.48-3.06 1.81-2 2.71-2.84l.22-.21.5-.47.37-.33.37-.34 1.57-1.37 1.08-.93c1.82-1.57 3.69-3.19 5.52-5 1.18-1.19 2.22-2.35 3.17-3.52s1.79-2.36 2.74-3.81c.77-1.17 1.49-2.37 2.17-3.6q1.23-2.21 2.23-4.51c.63-1.4 1.2-2.85 1.71-4.29l.1-.27.28-.84c.11-.34.24-.73.36-1.13l.07-.24c.08-.29.17-.59.24-.89l.16-.57.13-.57a53 53 0 0 0 1.36-9.15c.1-1.37.15-2.85.17-4.52 0-1.3 0-2.71-.06-4.44-.05-1.35-.11-2.77-.19-4.36l-.25-4.3c-.08-1.39-.15-2.79-.24-4.21h-7.34c0 1.52.07 3 .11 4.51l.09 4.28v.3c0 1.29 0 2.62.05 3.92 0 1.61 0 2.92-.07 4.14 0 1.51-.13 2.84-.24 4.06s-.29 2.7-.5 3.95-.49 2.62-.81 3.83l-.13.47-.13.47c0 .2-.12.4-.18.59l-.1.34-.3.91-.24.69-.09.23c-.45 1.24-1 2.47-1.51 3.66a50.15 50.15 0 0 1 -3.86 6.92c-.23.35-.46.69-.69 1-.56.8-1.09 1.52-1.59 2.14a38.22 38.22 0 0 1 -2.58 2.85c-1.56 1.57-3.29 3.07-5.12 4.66l-1 .9-1.65 1.46-.84.78-.61.58-.23.22c-1.14 1.12-2.21 2.26-3.18 3.39a51.83 51.83 0 0 0 -5.42 7.55c-.19.32-.38.66-.57 1l-.29.53-.55 1-.17.35-.09.18-.13.25c-.13.26-.26.52-.39.8a37.64 37.64 0 0 0 -1.75 4.46 46.75 46.75 0 0 0 -1.21 4.53c-.29 1.35-.55 2.82-.79 4.49-.2 1.37-.37 2.8-.54 4.39l-.2 2.22-.11 1v.33.25c0 .12 0 .24-.05.37a30.74 30.74 0 0 1 -.84 3.69 25.53 25.53 0 0 1 -1.27 3.5 22.84 22.84 0 0 1 -4.13 6.17h8.76a29.19 29.19 0 0 0 1.85-3.08 33.53 33.53 0 0 0 3-9.13c0-.16.06-.32.08-.48v-.25c0-.15 0-.3.07-.44l.45-3.22c.19-1.33.4-2.75.64-4.12s.52-2.76.81-3.94a38.75 38.75 0 0 1 1.09-3.74 32.19 32.19 0 0 1 1.47-3.5c.05-.17.18-.41.27-.59z" opacity=".41"/><path d="m76.34 92.84-.09-.52-.09-.49c0-.15 0-.31-.08-.48s0-.32-.07-.48c-.09-.65-.16-1.3-.21-1.92a25.56 25.56 0 0 1 0-3.82 21.09 21.09 0 0 1 .67-3.69 18.42 18.42 0 0 1 .6-1.77l.08-.21.19-.43.1-.22a3.9 3.9 0 0 1 .2-.42l.1-.21.11-.22a61.37 61.37 0 0 1 4.43-6.96l.65-.92c.61-.85 1.23-1.74 1.84-2.63.36-.54.79-1.18 1.21-1.85l.3-.47.21-.35.08-.13c.16-.26.31-.53.46-.79l.11-.19a39.55 39.55 0 0 0 3.44-8.26c.22-.76.41-1.47.56-2.15s.33-1.57.43-2.18a40.11 40.11 0 0 0 .5-4.39c0-.81.06-1.62.05-2.42s0-1.32-.07-2c0-.88-.14-1.77-.26-2.64a.5.5 0 0 0 -.53-.43.51.51 0 0 0 -.48.5 40.24 40.24 0 0 1 -.28 4.54 39.22 39.22 0 0 1 -2.65 10.2 38.75 38.75 0 0 1 -1.76 3.73c0 .08-.08.16-.13.24s-.24.44-.37.65l-.25.45-.28.44-.34.56-.2.31-.1.15c-.15.23-.31.47-.47.69l-.12.18c-.15.22-.31.44-.47.65l-.3.41-.32.41c-.45.59-.91 1.16-1.29 1.64l-2.23 2.66-.51.61a61.49 61.49 0 0 0 -5.35 7.14l-.15.24-.15.26-.3.52-.15.27-.27.54-.13.27a22.06 22.06 0 0 0 -.94 2.24 24.12 24.12 0 0 0 -1.18 4.68 27.75 27.75 0 0 0 -.32 4.75c0 .77 0 1.56.1 2.36 0 .18 0 .37.06.58s0 .36.06.58 0 .4.07.58l.06.55c.33 2.51.6 5.24.83 8.34.14 2.06.24 4.12.33 6.17h7.1c-.22-2.5-.44-4.71-.7-6.82-.37-2.88-.81-5.81-1.34-8.63z" opacity=".41"/><path d="m29.19 93.51c.26-.62.52-1.24.74-1.87s.45-1.26.64-1.9c.05-.16.1-.32.14-.48s.09-.32.14-.48c.09-.33.17-.65.24-1 .3-1.28.54-2.54.77-3.79l.7-3.74c.47-2.48 1-5 1.59-7.37.32-1.21.66-2.41 1.08-3.58.22-.58.45-1.15.71-1.71a11.3 11.3 0 0 1 .89-1.6.37.37 0 0 0 -.06-.5.38.38 0 0 0 -.54 0 15.21 15.21 0 0 0 -2.11 3.31 38.45 38.45 0 0 0 -1.52 3.56c-.91 2.4-1.66 4.85-2.39 7.29-.37 1.22-.72 2.45-1.07 3.66s-.71 2.48-1.14 3.69a31.31 31.31 0 0 1 -3 6.43 33.26 33.26 0 0 1 -4.48 5.57c-.41.43-.84.84-1.28 1.24s-.88.8-1.34 1.18c-.91.77-1.87 1.49-2.85 2.2-1.51 1.07-3.09 2.06-4.71 3a17.77 17.77 0 0 0 7.06 1.67c.26-.21.54-.4.8-.62.51-.42 1-.86 1.5-1.3s1-.91 1.47-1.38.94-1 1.4-1.46.9-1 1.33-1.52a36.67 36.67 0 0 0 4.43-6.72c.3-.56.59-1.17.86-1.78z" opacity=".41"/><path d="m18.81 92.63.68-.85c.22-.28.44-.57.65-.86l.64-.88c.21-.29.43-.58.63-.88l.6-.89.31-.45.15-.23.14-.23c.38-.61.77-1.22 1.14-1.84s.73-1.24 1.08-1.87l1-1.91.49-1 .46-1c.3-.66.59-1.31.87-2 2.22-5.25 3.77-10.43 5.86-15.12a41.22 41.22 0 0 1 3.6-6.58 31.6 31.6 0 0 1 2.22-2.89l.61-.69.63-.66c.4-.41.83-.8 1.27-1.19a48 48 0 0 1 6.34-4.3c1.1-.67 2.23-1.36 3.36-2.1l.18-.12c.6-.39 1.19-.8 1.78-1.23s1.16-.89 1.72-1.37c.28-.23.56-.49.83-.73s.54-.51.8-.79.51-.54.76-.81l.7-.82c.24-.27.45-.55.67-.83s.45-.56.66-.85l.63-.86.6-.88c.21-.29.39-.59.58-.89s.39-.59.56-.9l.54-.91.51-.93c.66-1.25 1.28-2.51 1.82-3.81s1-2.61 1.44-4c0-.16.11-.33.15-.5l.15-.51.14-.5.07-.25.06-.26.25-1c.08-.34.15-.69.22-1a63.85 63.85 0 0 0 1.07-8.27 80 80 0 0 0 .09-8.34l-.1-2.03-.07-.82h-3.54c.23 1.07.44 2.14.61 3.21a48 48 0 0 1 .58 7.94v1l-.06 1-.07 1a4.07 4.07 0 0 1 0 .49l-.05.5-.12 1c0 .33-.09.65-.15 1l-.16 1-.09.49c0 .16-.07.32-.1.48a32.88 32.88 0 0 1 -1.06 3.8 31.33 31.33 0 0 1 -1.51 3.64l-.44.88-.47.86-.12.22-.13.21-.25.42-.26.42c-.08.14-.17.28-.26.41a30.06 30.06 0 0 1 -2.32 3.15l-.63.75-.66.71c-.22.25-.45.47-.68.7s-.45.46-.69.68l-.71.65-.71.59c-.24.2-.49.38-.74.56s-.51.36-.77.52c-.52.34-1.06.66-1.62 1s-1.13.6-1.71.88c-1.17.57-2.38 1.11-3.62 1.66s-2.6 1.05-3.84 1.7c-.47.24-.94.5-1.42.76l-.5.29c-.64.38-1.28.78-1.91 1.22a22.69 22.69 0 0 0 -1.84 1.43l-.85.74-.81.78a33.88 33.88 0 0 0 -3 3.37 46.42 46.42 0 0 0 -4.67 7.47c-1.31 2.56-2.42 5.14-3.49 7.65s-2.09 5-3.18 7.32q-.82 1.76-1.71 3.42l-.94 1.67-1 1.65c-.08.14-.16.27-.25.4l-.26.41-.51.81-.12.2-.14.2-.26.39-.54.79c-.17.27-.36.53-.54.79l-.56.77c-.18.27-.37.52-.57.77l-.57.76a64 64 0 0 1 -10.48 10.8 17.92 17.92 0 0 0 4.61 5.85 60.52 60.52 0 0 0 12.32-11.6z" opacity=".41"/><path d="m5.5 90.47a37.74 37.74 0 0 0 3-4c.94-1.4 1.77-2.84 2.57-4.29s1.55-2.93 2.26-4.43c1.43-3 2.7-6.06 3.83-9.17.29-.78.56-1.56.83-2.34l.4-1.17c.12-.37.25-.74.39-1.12q.8-2.22 1.76-4.36t2.1-4.17c.38-.67.78-1.33 1.19-2s.83-1.29 1.28-1.91a36.62 36.62 0 0 1 2.89-3.51c.13-.15.26-.28.39-.42l.39-.41.39-.4.38-.38c.52-.49 1.07-1 1.64-1.4.29-.23.58-.45.88-.66a29.26 29.26 0 0 1 2.81-1.72c.66-.36 1.34-.7 2-1s1.42-.66 2.15-1l2.26-1c.82-.37 1.63-.77 2.42-1.2a35.15 35.15 0 0 0 4.55-2.92 35 35 0 0 0 4.08-3.62c.63-.66 1.23-1.35 1.81-2.06.29-.36.56-.73.84-1.09s.55-.76.81-1.15a25.7 25.7 0 0 0 1.44-2.42 27.66 27.66 0 0 0 1.17-2.54 29.34 29.34 0 0 0 1.59-5.33 34 34 0 0 0 .61-5.37 40.59 40.59 0 0 0 -.17-5.3 44 44 0 0 0 -.81-5.16c-.1-.45-.2-.84-.3-1.26 0-.06 0-.13 0-.19h-5.96c.06.76.1 1.52.14 2.27.06 1.54.07 3.07 0 4.57a41.58 41.58 0 0 1 -1.2 8.75 30.51 30.51 0 0 1 -3.08 7.8c-.17.3-.35.59-.53.88s-.39.6-.6.89c-.41.58-.84 1.15-1.29 1.7a27.52 27.52 0 0 1 -3 3.12 26.4 26.4 0 0 1 -3.46 2.65c-.61.39-1.24.76-1.88 1.1l-.24.13-.23.14-.55.28-1.1.57c-1.47.76-3 1.56-4.48 2.48-.75.46-1.5 1-2.23 1.47s-1.44 1.08-2.12 1.68a25 25 0 0 0 -2 1.88c-.61.64-1.14 1.27-1.67 1.92l-.07.09a42.39 42.39 0 0 0 -3 4.24 50.89 50.89 0 0 0 -4.49 9.21c-.59 1.59-1.11 3.2-1.57 4.81-.12.41-.23.81-.34 1.22l-.3 1.15c-.21.78-.42 1.55-.65 2.32q-1.32 4.62-3 9.11c-.58 1.49-1.2 3-1.86 4.42-.16.37-.33.73-.5 1.09s-.34.73-.52 1.08c-.35.72-.71 1.42-1.09 2.12a35 35 0 0 1 -2.54 4 22.62 22.62 0 0 1 -3.18 3.5l-.52.43a16.14 16.14 0 0 0 .33 1.71c.43-.27.84-.55 1.24-.85a24.82 24.82 0 0 0 3.71-3.46z" opacity=".41"/><path d="m2.59 74.82q.26-.91.41-1.82l.18-1c0-.34.1-.62.15-.92a50.1 50.1 0 0 1 1.74-7 52.84 52.84 0 0 1 6.16-12.77q1-1.48 2-2.88c.35-.47.72-.93 1.08-1.39s.74-.9 1.13-1.34.87-1 1.32-1.47.7-.73 1.06-1.09c.82-.83 1.67-1.63 2.54-2.39 1.76-1.54 3.64-3 5.6-4.44s4-2.82 6-4.3a61.61 61.61 0 0 0 6-4.89 37.79 37.79 0 0 0 2.75-2.9l.65-.78c.21-.26.42-.53.62-.8l.61-.83.57-.85a33.55 33.55 0 0 0 3.6-7.31 34 34 0 0 0 1.24-3.83 33.32 33.32 0 0 0 .64-3.94 36.17 36.17 0 0 0 .09-5.88h-4.3c-.38 1.61-.8 3.2-1.31 4.73-.37 1.09-.77 2.16-1.22 3.2s-.9 2.07-1.44 3.07a38 38 0 0 1 -3.56 5.55l-.5.65-.52.63-.53.63-.55.63c-.73.84-1.5 1.66-2.29 2.48q-2.38 2.46-5 4.9c-1.76 1.63-3.6 3.26-5.47 4.92s-3.76 3.34-5.58 5.18a54.63 54.63 0 0 0 -14.46 26.71l-.2.93-.13.71c-.05-1.06-.09-2.11-.13-3.16-.06-2-.1-4.07-.07-6.08s.12-4 .32-6a46.19 46.19 0 0 1 .87-5.45c0-.09 0-.19.07-.29a30.51 30.51 0 0 1 1.76-5.38q.28-.64.6-1.26c.1-.21.21-.42.32-.62s.22-.41.34-.61c.23-.4.47-.8.72-1.19l.38-.57.42-.62v-.07l.09-.11.17-.24c.13-.15.25-.31.39-.46.26-.32.55-.63.86-.95l.48-.48.13-.13.15-.16.18-.18.06-.06s.08 0 .32-.23a8.68 8.68 0 0 0 .68-.64c2.15-1.84 4.45-3.54 6.89-5.29s5.06-3.54 7.62-5.52l1-.75.95-.77c.63-.53 1.26-1.07 1.87-1.63a32.82 32.82 0 0 0 3.48-3.68 24.7 24.7 0 0 0 1.5-2.07c.23-.36.45-.73.66-1.1.11-.18.21-.37.31-.55s.19-.38.28-.57.19-.38.28-.57l.13-.28.12-.3c.08-.18.16-.4.24-.6s.08-.22.11-.31l.09-.29.18-.59c0-.2.11-.4.16-.6.1-.41.18-.82.24-1.24a.42.42 0 0 0 -.16-.37.4.4 0 0 0 -.55.08c-.47.63-1 1.21-1.5 1.81l-.2.22-.18.2-.4.39-.82.79a32.61 32.61 0 0 1 -3.49 2.77 77.53 77.53 0 0 1 -7.81 4.48c-2.73 1.42-5.54 2.84-8.34 4.53a49.35 49.35 0 0 0 -4.14 2.83q-1 .78-2 1.62c-.64.57-1.27 1.16-1.87 1.77l-.38.39c.07-.06.07 0-.07.1s-.45.42-.81.83l-.14.16-.03.07-.09.1v.05l-.07.08-.13.16-.57.67c-.36.47-.71 1-1.05 1.48-.17.26-.34.53-.5.81-.09.13-.16.27-.24.41l-.12.21v.06.05l-.05.09-.37.72c-.13.25-.26.51-.38.77l-.43.78v49.13q.77-1.51 1.38-3.09a36.21 36.21 0 0 0 1.21-3.6z" opacity=".41"/><path d="m73.15 60.71c.43-.55.86-1.12 1.28-1.69l.62-.87c.2-.28.4-.58.6-.88a42.22 42.22 0 0 0 2.2-3.66 33 33 0 0 0 1.8-3.92c.26-.67.48-1.36.69-2s.38-1.4.52-2.11c.08-.41.15-.84.21-1.26a19.59 19.59 0 0 0 -.27-7.21.39.39 0 0 0 -.35-.3.39.39 0 0 0 -.41.36 25.6 25.6 0 0 1 -.55 3.94l-.12.47c0 .16-.08.32-.13.47l-.13.47-.11.48-.15.46-.17.45-.15.41c-.07.17-.13.33-.2.49-.25.6-.53 1.18-.81 1.75s-.61 1.14-.94 1.69a36.63 36.63 0 0 1 -2.15 3.21c-.78 1-1.6 2-2.46 3-.22.24-.42.49-.65.73l-.66.72-.66.69c-.22.24-.46.46-.69.7l-.69.69-.71.69c-.47.45-.94.91-1.43 1.35s-1 .88-1.46 1.32l-1.52 1.34-1.6 1.39c-.52.48-1 1-1.55 1.49l-.35.43c-.13.13-.26.26-.38.4l-.38.41a5.14 5.14 0 0 0 -.38.42c-.5.56-1 1.16-1.45 1.79a18.77 18.77 0 0 0 -1.31 2l-.3.53-.15.28-.13.28-.27.56c0 .09-.09.19-.12.28l-.12.3c-.15.39-.31.78-.43 1.18-.06.2-.13.4-.18.6l-.16.61a6 6 0 0 0 -.14.61c0 .2-.09.4-.12.61-.06.41-.13.82-.16 1.23s-.07.82-.09 1.23v.61s0 .41 0 .61v.61.6.29.3c0 .2.05.39.07.59a28.55 28.55 0 0 0 1 4.47 61.59 61.59 0 0 0 3.2 7.85l.82 1.83c.27.6.54 1.19.78 1.78l.76 1.84c.13.3.25.61.37.92l.36.92c.74 1.92 1.41 3.85 2 5.8h4.54c-.37-2.48-.82-4.94-1.39-7.38-.16-.68-.32-1.37-.5-2l-.27-1c-.09-.34-.18-.67-.28-1-.4-1.38-.84-2.71-1.3-4-.9-2.59-1.82-5-2.47-7.42a20.08 20.08 0 0 1 -.87-6.78c0-.27 0-.53.08-.79s0-.26.07-.39 0-.26.07-.39l.08-.38c0-.13.07-.25.11-.38s.16-.49.24-.74a13.48 13.48 0 0 1 1.48-2.9l.11-.19.13-.17.25-.36.13-.18.14-.18.27-.36c.37-.47.77-1 1.18-1.42s.86-1 1.3-1.42l1.39-1.51 1.42-1.5.72-.77.71-.78c.94-1.05 1.84-2.13 2.72-3.24z" opacity=".41"/><path d="m54.43 101.69a86.24 86.24 0 0 1 -3.82-8.79c-.26-.74-.49-1.49-.7-2.25s-.37-1.52-.51-2.3l-.09-.58c0-.19-.06-.39-.08-.58 0-.4-.08-.79-.11-1.18a21.16 21.16 0 0 1 0-2.39.4.4 0 0 0 -.27-.39.39.39 0 0 0 -.48.26 19.09 19.09 0 0 0 -.76 5 24.14 24.14 0 0 0 .07 2.51c0 .42.08.84.13 1.27s.11.84.18 1.26a47.39 47.39 0 0 0 1.11 4.92c.44 1.61.94 3.19 1.43 4.75s1 3.09 1.42 4.61l.14.5h5.27c-.28-.72-.57-1.44-.87-2.14-.66-1.51-1.36-3-2.06-4.48z" opacity=".41"/><path d="m46.49 105a.4.4 0 0 0 -.44.34c-.14 1-.28 2-.42 3h2.12a28.18 28.18 0 0 0 -.94-3.13.41.41 0 0 0 -.32-.21z" opacity=".41"/><path d="m101 94.85c0-1.37-.11-2.7-.19-4s-.19-2.59-.22-3.83c0-.62 0-1.23 0-1.83 0-.3 0-.6 0-.89v-.44-.43c0-.29.07-.57.1-.86l.06-.43c0-.14 0-.28.08-.42.1-.57.23-1.14.37-1.71s.3-1.13.49-1.69c.09-.28.19-.56.28-.83l.32-.84c.21-.55.46-1.1.71-1.65s.54-1.08.84-1.62c.14-.26.3-.53.45-.79l.52-1c.16-.33.33-.66.48-1l.23-.5.11-.25.11-.26a21.42 21.42 0 0 0 1.29-4.24 19.5 19.5 0 0 0 .31-4.45v-.56-.23-.28c0-.37-.07-.74-.13-1.11l-.08-.55c0-.19-.07-.37-.1-.55s-.07-.37-.11-.55l-.12-.51a25.26 25.26 0 0 0 -1.34-4.08c-.07-.17-.15-.34-.23-.5s-.15-.33-.23-.5l-.26-.49-.13-.24-.14-.25c-.1-.16-.19-.32-.29-.47s-.2-.32-.31-.47c-.2-.31-.44-.61-.67-.91l-.17-.22-.19-.21c-.13-.14-.25-.28-.38-.41l-.41-.4a1.81 1.81 0 0 0 -.21-.18l-.22-.18-.44-.35-.47-.31-.24-.14-.25-.13-.5-.23a.37.37 0 0 0 -.27-.07.37.37 0 0 0 -.28.41c0 .38.1.74.13 1.12s.06.74.09 1.11a20.15 20.15 0 0 1 0 2.2 19.79 19.79 0 0 1 -.39 2.19 21.33 21.33 0 0 1 -.49 2.1 30 30 0 0 1 -3.78 7.79c-.39.61-.81 1.22-1.23 1.83l-.64.91-.32.44-.32.43c-.88 1.14-1.83 2.28-2.8 3.45s-2 2.38-2.92 3.69a29.55 29.55 0 0 0 -2.63 4.32 22.83 22.83 0 0 0 -1 2.47c-.15.42-.28.86-.41 1.3-.06.21-.11.43-.17.65s-.11.44-.16.66a24.57 24.57 0 0 0 -.56 5.28 25.75 25.75 0 0 0 .48 5 37.56 37.56 0 0 0 1.2 4.59l.37 1.09.38 1.08.7 2.08c.49 1.37 1 2.72 1.38 4.07.21.68.4 1.36.58 2l.06.24h4.41a23.36 23.36 0 0 0 .33-2.87 33.29 33.29 0 0 0 -.14-4.91c-.08-.8-.18-1.59-.29-2.36l-.18-1.15-.19-1.12c-.26-1.48-.54-2.91-.82-4.28s-.56-2.7-.76-4a19.15 19.15 0 0 1 -.29-3.81v-.46c0-.15 0-.31 0-.46 0-.3.08-.61.14-.91a12.68 12.68 0 0 1 .5-1.82 23.14 23.14 0 0 1 1.72-3.66c.7-1.24 1.49-2.49 2.31-3.77s1.65-2.6 2.43-4l.29-.53.28-.53c.18-.34.36-.69.53-1 .35-.7.7-1.4 1-2.12a41 41 0 0 0 1.72-4.4c0-.08 0-.16.08-.24v.19.21.41c-.15 1.11-.33 2.2-.52 3.3s-.4 2.19-.64 3.3c-.11.56-.25 1.12-.4 1.67-.08.28-.16.55-.24.84s-.21.66-.31 1q-.32 1-.6 2c-.09.34-.19.68-.28 1l-.14.51-.12.51a32.74 32.74 0 0 0 -.79 4.2c0 .36-.08.72-.11 1.08v.54.54.54s0 .36 0 .55v1.09a43.85 43.85 0 0 0 1.36 8.04 41 41 0 0 1 1.36 7.42v.46.46.46.46.47.45c0 .31-.07.61-.11.92a11.89 11.89 0 0 1 -1.13 3.54.37.37 0 0 0 .1.46.39.39 0 0 0 .28.09.38.38 0 0 0 .26-.14 11 11 0 0 0 1.17-1.68 9.84 9.84 0 0 0 .48-.91c.08-.15.14-.31.21-.47a4.89 4.89 0 0 0 .2-.48 17.41 17.41 0 0 0 1-4 26.91 26.91 0 0 0 .18-4.09z" opacity=".41"/></g></svg>