<svg id="gobo_aventure_v1" xmlns="http://www.w3.org/2000/svg" width="1500" height="800" viewBox="0 0 623.62 340.16"><defs><style>.cls-1{fill:#fff;}.cls-2{fill:none;}</style></defs><path class="cls-1" d="M398.53,157.75l-1.43,5.83c-3.37-2.2,1.09-4.89-1.73-6.9l-3.76,3-.89-.64,7.87-12.32,5.45,4.42C403.74,154.91,401.21,156.42,398.53,157.75Z"/><path class="cls-1" d="M236,140c4.75,1.27,4.43,4.84,4.6,8l3.6,4.22-.57.7c-1.73-1.12-3.47-2.23-6.13-4,.39,2.77.62,4.47.86,6.16l-1,.35-6.58-13.32Z"/><path class="cls-1" d="M410.65,173.54l9.23-10.38c.41.23.83.45,1.25.67-.52,2.2-1,4.4-1.83,7.8l5.57-4.51.75.83a61.18,61.18,0,0,1-9.79,10.73l-1.21-.71,2.36-6.24-.63-.64-4.68,3.26Z"/><path class="cls-1" d="M301,122.5l5.24-.24c.57,1.53,1.48,3,1.61,4.59.26,2.87-1.77,4.23-4.27,4.87-.42,1.88-.81,3.6-1.2,5.32l-1.18-.1A69.07,69.07,0,0,1,301,122.5Z"/><path class="cls-1" d="M352.58,142.6l4.29-14.42,6,3.26c-.06,5.53-.7,6.19-6.67,7-.81,1.41-1.7,3-2.6,4.54Z"/><path class="cls-1" d="M286.23,125a7.45,7.45,0,0,1,1.39-1.92,2.19,2.19,0,0,1,1-.64c2.56-.53,3.1,4,3.41,5.45.38,1.84,2.05,5.88,1.57,7.66-.75,2.72-2.52,3.54-4.85,3.19-2.49-.38-3.4-2.29-3.51-4.52C285.12,131.22,284.83,127.78,286.23,125ZM290.35,138c1.45-5.68.95-8.86-2.32-13.59-.58,1.89-1.64,3.48-1.22,4.32C288.23,131.47,286.1,135.61,290.35,138Z"/><path class="cls-1" d="M385,154c-4.09,1.15-4.1,1.15-7-2.25a89.21,89.21,0,0,1,4.87-9.73c.62-1,3-1.38,4.41-1.14a2.82,2.82,0,0,1,2,4.07C388.05,148.09,386.4,151.14,385,154Zm-3.44-.74c4.13-2.73,6.26-7.63,4.79-11C382.34,144.73,380.15,149.74,381.6,153.22Z"/><path class="cls-1" d="M431,182.87c0,3.13-1.23,4.77-3.43,5.14-1.31.21-3.32-.23-4-1.15s-1-3.33-.27-4.15a37.16,37.16,0,0,1,7.22-6.67c.88-.61,3.32-.19,4.17.65s.84,2.86,1.2,4.35l-1.26.32c-.27-1.31-.53-2.61-.8-3.93a13.28,13.28,0,0,0-9.3,8.35C427.78,188.19,428.52,184.42,431,182.87Z"/><path class="cls-1" d="M255.92,132c2-1.88,4-2.17,6.37,0l-5,.82-.17,1.15,9,7.66c-3.7,4.45-3.91,4.49-7.68,1.71l4.2.5c1.1-3.59-1.51-4.52-3.54-5.6C256.58,136.92,254.87,135.32,255.92,132Z"/><path class="cls-1" d="M193.32,169.49a9.69,9.69,0,0,1,3.34-3.24c.52-.33,1.29-.59,1.66-.11a1,1,0,0,1-.12,1.18c-.26.34-.63.58-.89.91a2.38,2.38,0,0,0-.17,2.54,3.39,3.39,0,0,0,2.07,1.61l1.07-1.52a1.55,1.55,0,0,1,.53-.55,1.11,1.11,0,0,1,1.39.52,3.11,3.11,0,0,1,.31,1.6c-.7-.39-1.59.36-1.65,1.16a3.47,3.47,0,0,0,.88,2.18c2.36,3.23,4.49-1.55,6.21.86-.36.39-4.07,4.23-4,4.26Q198.61,175.21,193.32,169.49Z"/><path class="cls-1" d="M216.3,149.81A9.55,9.55,0,0,1,220,147c.55-.27,1.35-.43,1.66.09a1,1,0,0,1-.26,1.15c-.3.31-.69.51-1,.81a2.38,2.38,0,0,0-.47,2.5,3.41,3.41,0,0,0,1.87,1.84l1.24-1.39a1.61,1.61,0,0,1,.59-.48,1.11,1.11,0,0,1,1.32.68,3.17,3.17,0,0,1,.12,1.62c-.65-.46-1.62.17-1.78,1a3.49,3.49,0,0,0,.62,2.27c2,3.48,4.64-1,6.06,1.59-.4.35-4.53,3.72-4.5,3.75Q220.88,156.1,216.3,149.81Z"/><path class="cls-1" d="M217.09,169.09c-5.43-1.34-8.67-5.18-12.2-8.67l.7-1,7.55,6,.88-.59-3.84-9,1-.43C214.14,159.43,215.61,164.16,217.09,169.09Z"/><path class="cls-1" d="M343.6,138.59c-.19-.69-.45-1.31-.83-1.48-1.31-.56-3.54,1.71-4.58,2.42l-.62-.39,4-6.15c-.29-1.85-.64-4-1.17-7.32l3.23,3.86c.14.17,3.58-3.15,4.44-2.83,2.64,1-1.39,4.35-2.2,5.25a3.89,3.89,0,0,0-1.26,3.76l.37,5.34-.92-.2C344,140.83,343.88,139.63,343.6,138.59Z"/><path class="cls-1" d="M326,123c2,.41,4,.41,6,.69a5,5,0,0,1-.4,2.94l-2.92-.34a2.12,2.12,0,0,0-1.61.23,1.36,1.36,0,0,0-.07,1.86,2.47,2.47,0,0,0,1.84.78,1.47,1.47,0,0,1,.51.08c.59.27.28,1.25-.32,1.51a11.87,11.87,0,0,1-1.91.27l-.57,3.7a.74.74,0,0,0,.05.53c.21.32.7.15,1.08.15,2,0,1.61,3.06-.46,3.11s-2.72-1.87-2.58-3.65C325,131.05,325.48,127.3,326,123Z"/><path class="cls-1" d="M275.59,140.31c-.14,0-2.62-8.32-2.94-9.05-1.29-2.91-2.72-1.9-5.44-1.67a4.65,4.65,0,0,1-.45-2.58c3.17-2.09,7.09-2.58,10.86-3l.3,2.42a.54.54,0,0,1-.05.4.56.56,0,0,1-.36.17c-1,.18-2,0-2.44.86s.34,3.31.42,4.13,1,8.1.82,8.15Z"/><path class="cls-1" d="M372.76,135.3c-.09,4.76-6,8.66-2.42,14.47l-4.15-2.21,5.26-13Z"/><path class="cls-1" d="M413.12,157.68l-8.32,10.9-1.09-.82a45.38,45.38,0,0,1,8.17-11Z"/><path class="cls-1" d="M420.92,203.73c-.43,2.07-3.44,1.53-5.87,1.46-5.44-.17-11-.06-16.5-.06H234c-9,0-17.85.59-26.83.2-7.14-.3-2.5-5.46-.59-9.48.22-.47.85-.89,1.16-1.31-2.49,1.31-4.88,2.78-7.27,4.25-1,.61-5.41,2.35-5.93,3.2a65,65,0,0,0-5.16,10.19c12.88-.87,25.86.09,38.75.09h184c8.14,0,16.27.12,24.41-.05l-4.49-8.2c-1.55-2.84-3.14-5.73-5.53-7.89a10,10,0,0,0-8.83-2.68c.14,0,2.63,7.05,2.86,7.71A5,5,0,0,1,420.92,203.73Z"/><path class="cls-1" d="M382.73,125.26c-.91-1.92-1.93-4-3-5.83,0-1.07-2.15-3.73-2.68-4.64,0-1.8-3.15-5.46-4.09-7.08l-5.23-9.07L352,71.38,320.62,17C318.27,13,316,8.09,313.13,4.19c-2,4.45-5.18,8.11-7.65,12.28Q301,24,296.57,31.61C286.4,49,276.18,66.31,266.33,83.84l-22.62,39.55c.66-1.14,4.45-2.33,5.72-3a31.49,31.49,0,0,0,6.18-4.11c4.06-3.7,6.21-9.81,8.88-14.52,6.88-12.17,14.17-24.1,21.16-36.21l13.94-24.13q3.48-6,7-12.07c1.79-3.1,3.18-8.13,6.15-10.33,6,9,10.94,18.63,16.45,27.92s10.68,18.46,16,27.7c0,1.24,2.21,3.83,2.85,4.94l3.49,6q3.32,5.77,6.65,11.54c3.15,4.91,5.87,10.17,8.78,15.22,1.77,3.07,2.88,6.22,5.84,8.34S379.4,123.8,382.73,125.26Z"/><path class="cls-1" d="M319.5,89.9c2.19,2.27,4.31,4.63,6.62,6.78,1.33,1.24,2.82,2.64,4.48,3.12a14.63,14.63,0,0,1,8.76,7,12.41,12.41,0,0,0,5.45,5.05,3,3,0,0,1,1.2,1.36,8,8,0,0,1-6.2-2.71c-2.26-2.31-4.69-4.47-7.21-6.84-.57,2.32-.57,2.32,1.81,6-3.52-1.81-5-4.74-7-7.18a94.56,94.56,0,0,0-6.76-6.84C319,100.36,318,105.34,314,109c.84-2.31,1.7-4.41,2.37-6.56s1.09-4.15,1.67-6.43c-2.09-.51-3.11.74-3.85,2.45s-1.22,3.78-3.66,5.18c.38-1.27.61-2,.83-2.75l-.39-.36-8,6,3.12,5.19c-1.39-.24-1.39-.23-4.3-3.52-1.36-1.54-2.69-3.1-4-4.64-3.61.71-4.2,4.58-5.91,5.46l-10.25,1.4a65.87,65.87,0,0,0,15.56-12.13l3.83,5.52c4.61-1.09,7.33-3.51,9.79-6.36,2.13-2.47,4-5.22,7-6.84A16.79,16.79,0,0,1,319.5,89.9Z"/><path class="cls-1" d="M336.86,75.09c0,1.52-.94,3.12-3.54,4.53-3.34,1.81-9.12-.69-9.12-4.81C324.2,66.94,336.63,67.07,336.86,75.09Z"/><path class="cls-1" d="M288.76,153a15.14,15.14,0,0,0-3.48,2c4-1.57,7.57-5.23,8.39-9.48a11,11,0,0,0,6.9,10.17,7.14,7.14,0,0,1-6.23-.92c-.35,1.6,1.13,3,2.67,3.6s3.25.55,4.76,1.18a11.36,11.36,0,0,1-7.61.08c-.63,2,1.15,3.88,2.89,5s3.81,2.3,4.22,4.33a21.93,21.93,0,0,1-6.95-2.14c-1,1.28-.31,3.26.95,4.3a16.53,16.53,0,0,0,4.39,2.07c1.51.63,3,1.67,3.39,3.26a61.81,61.81,0,0,1-10.19-1.64c.41,1.82,2,3.07,3.55,4.16l8,5.76-10.78-.2c2.75,6.09,11.77,7,14.88,13l-30.93.13a32.28,32.28,0,0,1,8.46-9c1.69-1.21,3.59-2.36,4.47-4.24a65.77,65.77,0,0,1-12.07-.1,51.29,51.29,0,0,0,9.43-5.34c1.56-1.12,3.19-2.55,3.33-4.47q-4.39.89-8.85,1.44c.19-1.74,2.29-2.41,3.91-3.09a11.2,11.2,0,0,0,5.16-4.51c.29-.5.5-1.24,0-1.58a1.26,1.26,0,0,0-1.06,0l-6.08,1.64c.33-2,2.52-2.93,4.3-3.86s3.61-2.92,2.65-4.68a18.25,18.25,0,0,1-7.6-.57,14.83,14.83,0,0,0,5.47-.9,5.05,5.05,0,0,0,3.25-4.17,10,10,0,0,1-6.94,1"/><path class="cls-1" d="M309.49,166.84a10,10,0,0,0-2.4,1.36,9.36,9.36,0,0,0,5.79-6.54,7.65,7.65,0,0,0,4.77,7,5,5,0,0,1-4.31-.64c-.23,1.1.79,2.11,1.85,2.49s2.24.38,3.29.81a7.85,7.85,0,0,1-5.26.06c-.44,1.37.79,2.68,2,3.46s2.64,1.59,2.92,3a15.23,15.23,0,0,1-4.8-1.49,2.29,2.29,0,0,0,.65,3,11.94,11.94,0,0,0,3,1.43,3.61,3.61,0,0,1,2.34,2.24,41.68,41.68,0,0,1-7-1.12,5.36,5.36,0,0,0,2.44,2.87l5.54,4-7.44-.15c1.9,4.21,8.13,4.88,10.27,9l-21.35.09a22.08,22.08,0,0,1,5.84-6.19c1.17-.84,2.48-1.63,3.08-2.93a45.45,45.45,0,0,1-8.33-.07,34.85,34.85,0,0,0,6.51-3.69c1.08-.77,2.2-1.76,2.3-3.09q-3,.62-6.11,1c.13-1.21,1.58-1.67,2.7-2.14a7.64,7.64,0,0,0,3.56-3.11c.2-.35.35-.85,0-1.09a.84.84,0,0,0-.73,0l-4.2,1.13c.23-1.36,1.74-2,3-2.66s2.49-2,1.83-3.24a12.54,12.54,0,0,1-5.24-.39,10.4,10.4,0,0,0,3.77-.62,3.52,3.52,0,0,0,2.25-2.88,7,7,0,0,1-4.8.66"/><path class="cls-1" d="M344.39,155.22a14.24,14.24,0,0,0-3.31,1.87c3.84-1.5,7.2-5,8-9a10.51,10.51,0,0,0,6.55,9.67,6.8,6.8,0,0,1-5.92-.88c-.33,1.52,1.08,2.9,2.54,3.42s3.09.53,4.53,1.12a10.78,10.78,0,0,1-7.24.08c-.6,1.89,1.09,3.69,2.74,4.77s3.63,2.19,4,4.13a21,21,0,0,1-6.61-2c-.95,1.22-.29,3.1.9,4.09a15.87,15.87,0,0,0,4.18,2c1.43.6,2.88,1.59,3.22,3.09A57.75,57.75,0,0,1,348.3,176c.38,1.73,1.93,2.92,3.37,4l7.63,5.48-10.26-.2c2.62,5.8,11.2,6.71,14.16,12.34l-29.42.13a30.57,30.57,0,0,1,8.05-8.53c1.61-1.15,3.41-2.24,4.25-4A61.15,61.15,0,0,1,334.6,185a48.25,48.25,0,0,0,9-5.07c1.49-1.07,3-2.43,3.17-4.26-2.78.57-5.59,1-8.42,1.37.19-1.66,2.19-2.29,3.72-2.94a10.56,10.56,0,0,0,4.91-4.29c.28-.47.48-1.17,0-1.5a1.22,1.22,0,0,0-1,0l-5.78,1.56c.31-1.88,2.4-2.78,4.09-3.67s3.43-2.78,2.52-4.45a17.27,17.27,0,0,1-7.22-.54,14.48,14.48,0,0,0,5.2-.85,4.85,4.85,0,0,0,3.09-4,9.54,9.54,0,0,1-6.61.9"/><path class="cls-1" d="M271.19,161a12.37,12.37,0,0,0-2.86,1.61,11.13,11.13,0,0,0,6.89-7.77,9.06,9.06,0,0,0,5.66,8.34,5.86,5.86,0,0,1-5.12-.76c-.28,1.32.93,2.51,2.2,3s2.66.45,3.9,1a9.35,9.35,0,0,1-6.24.07c-.52,1.62.94,3.18,2.37,4.11s3.13,1.89,3.46,3.56a17.82,17.82,0,0,1-5.7-1.76c-.82,1-.25,2.68.78,3.53a13.14,13.14,0,0,0,3.61,1.7,4.29,4.29,0,0,1,2.77,2.67,50.55,50.55,0,0,1-8.36-1.34c.33,1.5,1.67,2.53,2.91,3.42l6.59,4.73-8.85-.17c2.26,5,9.66,5.79,12.21,10.65l-25.38.11A26.31,26.31,0,0,1,269,190.3c1.39-1,2.95-1.94,3.67-3.48a53.78,53.78,0,0,1-9.91-.09,41.58,41.58,0,0,0,7.74-4.37c1.28-.92,2.62-2.1,2.74-3.68q-3.61.73-7.27,1.18c.16-1.43,1.88-2,3.21-2.53a9.14,9.14,0,0,0,4.23-3.71c.24-.4.42-1,0-1.29a1.05,1.05,0,0,0-.87,0l-5,1.34c.27-1.62,2.07-2.4,3.53-3.16s3-2.4,2.17-3.85a14.74,14.74,0,0,1-6.23-.47,12.17,12.17,0,0,0,4.49-.73,4.18,4.18,0,0,0,2.67-3.43,8.22,8.22,0,0,1-5.71.78"/><path class="cls-1" d="M328.8,161a12.37,12.37,0,0,0-2.86,1.61,11.13,11.13,0,0,0,6.89-7.77,9.06,9.06,0,0,0,5.66,8.34,5.86,5.86,0,0,1-5.12-.76c-.28,1.32.94,2.51,2.2,3s2.67.45,3.91,1a9.38,9.38,0,0,1-6.25.07c-.52,1.62.94,3.18,2.37,4.11s3.13,1.89,3.47,3.56a17.8,17.8,0,0,1-5.71-1.76c-.82,1-.25,2.68.78,3.53a13.14,13.14,0,0,0,3.61,1.7,4.33,4.33,0,0,1,2.78,2.67,50.21,50.21,0,0,1-8.36-1.34c.33,1.5,1.66,2.53,2.9,3.42l6.59,4.73-8.85-.17c2.26,5,9.66,5.79,12.22,10.65l-25.39.11a26.31,26.31,0,0,1,6.94-7.36c1.39-1,2.95-1.94,3.67-3.48a53.78,53.78,0,0,1-9.91-.09,41,41,0,0,0,7.74-4.37c1.28-.92,2.62-2.1,2.74-3.68q-3.61.73-7.27,1.18c.16-1.43,1.88-2,3.21-2.53a9.14,9.14,0,0,0,4.23-3.71c.24-.4.42-1,0-1.29a1.05,1.05,0,0,0-.87,0l-5,1.34c.27-1.62,2.07-2.4,3.53-3.16s3-2.4,2.17-3.85a14.74,14.74,0,0,1-6.23-.47,12.13,12.13,0,0,0,4.49-.73,4.18,4.18,0,0,0,2.67-3.43,8.21,8.21,0,0,1-5.71.78"/><path class="cls-1" d="M191.36,192.16l-9.94-10.87c.28-.42.55-.84.83-1.25l8,2.78-4.15-6.38,1-.69a64.42,64.42,0,0,1,10.25,11.5l-.87,1.2-6.34-3.17-.74.59,2.93,5.3Z"/><path class="cls-1" d="M398.53,157.73l-1.43,5.83c-3.37-2.2,1.09-4.89-1.73-6.9l-3.76,3-.89-.64,7.87-12.32,5.45,4.42C403.74,154.89,401.21,156.4,398.53,157.73Z"/><path class="cls-1" d="M236,140c4.75,1.27,4.43,4.84,4.6,7.95l3.6,4.22-.57.7c-1.73-1.12-3.47-2.23-6.13-4,.39,2.77.62,4.47.86,6.16l-1,.35-6.58-13.32Z"/><path class="cls-1" d="M410.65,173.52l9.23-10.38c.41.23.83.45,1.25.67-.52,2.2-1,4.4-1.83,7.8l5.57-4.51.75.83a61.18,61.18,0,0,1-9.79,10.73l-1.21-.7c.79-2.09,1.57-4.17,2.36-6.25l-.63-.64-4.68,3.26Z"/><path class="cls-1" d="M301,122.48l5.24-.24c.57,1.53,1.48,3,1.61,4.59.26,2.87-1.77,4.23-4.27,4.87-.42,1.89-.81,3.6-1.2,5.32l-1.18-.1A69.07,69.07,0,0,1,301,122.48Z"/><path class="cls-1" d="M352.58,142.58l4.29-14.42,6,3.26c-.06,5.54-.7,6.19-6.67,7-.81,1.41-1.7,3-2.6,4.54Z"/><path class="cls-1" d="M286.23,125a7.62,7.62,0,0,1,1.39-1.92,2.19,2.19,0,0,1,1-.64c2.56-.53,3.1,4,3.41,5.45.38,1.84,2.05,5.88,1.57,7.66-.75,2.72-2.52,3.54-4.85,3.19-2.49-.38-3.4-2.29-3.51-4.52C285.12,131.2,284.83,127.76,286.23,125Zm4.12,12.93c1.45-5.68.95-8.86-2.32-13.59-.58,1.89-1.64,3.48-1.22,4.32C288.23,131.45,286.1,135.59,290.35,137.93Z"/><path class="cls-1" d="M385,153.94c-4.09,1.15-4.1,1.15-7-2.25a89.21,89.21,0,0,1,4.87-9.73c.62-1,3-1.38,4.41-1.14a2.82,2.82,0,0,1,2,4.07C388.05,148.08,386.4,151.12,385,153.94Zm-3.44-.74c4.13-2.73,6.26-7.63,4.79-11C382.34,144.71,380.15,149.72,381.6,153.2Z"/><path class="cls-1" d="M431,182.85c0,3.13-1.23,4.77-3.43,5.14-1.31.21-3.32-.23-4-1.15s-1-3.33-.27-4.15a37.16,37.16,0,0,1,7.22-6.67c.88-.61,3.32-.19,4.17.65s.84,2.86,1.2,4.35l-1.26.32c-.27-1.31-.53-2.61-.8-3.93a13.28,13.28,0,0,0-9.3,8.35C427.78,188.17,428.52,184.4,431,182.85Z"/><path class="cls-1" d="M255.92,132c2-1.88,4-2.17,6.37,0l-5,.82-.17,1.16,9,7.65c-3.7,4.45-3.91,4.49-7.68,1.71l4.2.5c1.1-3.59-1.51-4.52-3.54-5.6C256.58,136.9,254.87,135.3,255.92,132Z"/><path class="cls-1" d="M193.32,169.47a9.69,9.69,0,0,1,3.34-3.24c.52-.33,1.29-.59,1.66-.11a1,1,0,0,1-.12,1.18c-.26.34-.63.58-.89.91a2.38,2.38,0,0,0-.17,2.54,3.39,3.39,0,0,0,2.07,1.61l1.07-1.52a1.55,1.55,0,0,1,.53-.55,1.11,1.11,0,0,1,1.39.52,3.11,3.11,0,0,1,.31,1.6c-.7-.39-1.59.36-1.65,1.16a3.47,3.47,0,0,0,.88,2.18c2.36,3.23,4.49-1.55,6.21.86-.36.39-4.07,4.23-4,4.26Q198.61,175.19,193.32,169.47Z"/><path class="cls-1" d="M216.3,149.79A9.55,9.55,0,0,1,220,147c.55-.27,1.35-.43,1.66.09a1,1,0,0,1-.26,1.15c-.3.31-.69.51-1,.81a2.38,2.38,0,0,0-.47,2.5,3.41,3.41,0,0,0,1.87,1.84l1.24-1.39a1.61,1.61,0,0,1,.59-.48,1.11,1.11,0,0,1,1.32.68,3.17,3.17,0,0,1,.12,1.62c-.65-.46-1.62.17-1.78,1a3.49,3.49,0,0,0,.62,2.27c2,3.49,4.64-1,6.06,1.59-.4.35-4.53,3.72-4.5,3.76Q220.88,156.07,216.3,149.79Z"/><path class="cls-1" d="M217.09,169.07c-5.43-1.34-8.67-5.18-12.2-8.67l.7-1,7.55,6,.88-.59-3.84-9,1-.43C214.14,159.41,215.61,164.14,217.09,169.07Z"/><path class="cls-1" d="M343.6,138.57c-.19-.69-.45-1.31-.83-1.48-1.31-.56-3.54,1.71-4.58,2.42l-.62-.39,4-6.15c-.29-1.85-.64-4-1.17-7.32l3.23,3.86c.14.17,3.58-3.15,4.44-2.82,2.64,1-1.39,4.34-2.2,5.24a3.89,3.89,0,0,0-1.26,3.76L345,141l-.92-.2C344,140.81,343.88,139.61,343.6,138.57Z"/><path class="cls-1" d="M326,122.93c2,.41,4,.41,6,.69a5.08,5.08,0,0,1-.4,2.95l-2.92-.35a2.12,2.12,0,0,0-1.61.23,1.36,1.36,0,0,0-.07,1.86,2.47,2.47,0,0,0,1.84.78,1.47,1.47,0,0,1,.51.08c.59.27.28,1.25-.32,1.51a11.87,11.87,0,0,1-1.91.27l-.57,3.7a.74.74,0,0,0,.05.53c.21.32.7.15,1.08.15,2,0,1.61,3.06-.46,3.11s-2.72-1.87-2.58-3.65C325,131,325.48,127.28,326,122.93Z"/><path class="cls-1" d="M275.59,140.29c-.14,0-2.62-8.32-2.94-9-1.29-2.91-2.72-1.9-5.44-1.67a4.65,4.65,0,0,1-.45-2.58c3.17-2.09,7.09-2.58,10.86-3l.3,2.42a.54.54,0,0,1-.05.4.56.56,0,0,1-.36.17c-1,.18-2,.05-2.44.86s.34,3.31.42,4.13,1,8.1.82,8.15Z"/><path class="cls-1" d="M372.76,135.28c-.09,4.76-6,8.66-2.42,14.47l-4.15-2.21,5.26-13Z"/><path class="cls-1" d="M413.12,157.66l-8.32,10.9-1.09-.82a45.38,45.38,0,0,1,8.17-11Z"/><path class="cls-1" d="M420.92,203.71c-.43,2.07-3.44,1.53-5.87,1.46-5.44-.17-11-.06-16.5-.06H234c-9,0-17.85.59-26.83.2-7.14-.3-2.5-5.46-.59-9.48.22-.47.85-.89,1.16-1.31-2.49,1.31-4.88,2.78-7.27,4.25-1,.61-5.41,2.35-5.93,3.2a65,65,0,0,0-5.16,10.19c12.88-.87,25.86.09,38.75.09h184c8.14,0,16.27.12,24.41-.05l-4.49-8.2c-1.55-2.84-3.14-5.73-5.53-7.89a10,10,0,0,0-8.83-2.68c.14,0,2.63,7,2.86,7.71A5,5,0,0,1,420.92,203.71Z"/><path class="cls-1" d="M382.73,125.24c-.91-1.92-1.93-4-3-5.83,0-1.07-2.15-3.73-2.68-4.64,0-1.8-3.15-5.46-4.09-7.08l-5.23-9.07L352,71.36,320.62,17c-2.35-4.07-4.67-8.94-7.49-12.84-2,4.45-5.18,8.11-7.65,12.28Q301,24,296.57,31.59c-10.17,17.35-20.39,34.7-30.24,52.23l-22.62,39.55c.66-1.14,4.45-2.33,5.72-3a31.49,31.49,0,0,0,6.18-4.11c4.06-3.7,6.21-9.81,8.88-14.52,6.88-12.17,14.17-24.1,21.16-36.21l13.94-24.13q3.48-6,7-12.07c1.79-3.1,3.18-8.13,6.15-10.33,6,9,10.94,18.63,16.45,27.92s10.68,18.46,16,27.7c0,1.24,2.21,3.83,2.85,4.94l3.49,6q3.32,5.78,6.65,11.54c3.15,4.91,5.87,10.17,8.78,15.22,1.77,3.07,2.88,6.22,5.84,8.34S379.4,123.78,382.73,125.24Z"/><path class="cls-1" d="M319.5,89.88c2.19,2.27,4.31,4.63,6.62,6.78,1.33,1.24,2.82,2.64,4.48,3.12a14.63,14.63,0,0,1,8.76,7,12.41,12.41,0,0,0,5.45,5,3,3,0,0,1,1.2,1.36,8,8,0,0,1-6.2-2.71c-2.26-2.31-4.69-4.47-7.21-6.84-.57,2.32-.57,2.32,1.81,6-3.52-1.81-5-4.74-7-7.18a94.56,94.56,0,0,0-6.76-6.84C319,100.34,318,105.32,314,109c.84-2.31,1.7-4.41,2.37-6.56s1.09-4.15,1.67-6.43c-2.09-.51-3.11.74-3.85,2.45s-1.22,3.78-3.66,5.18c.38-1.27.61-2,.83-2.75l-.39-.36-8,6.05,3.12,5.19c-1.39-.24-1.39-.23-4.3-3.52-1.36-1.54-2.69-3.1-4-4.64-3.61.71-4.2,4.58-5.91,5.46l-10.25,1.4A65.87,65.87,0,0,0,297.16,98.3l3.83,5.53c4.61-1.1,7.33-3.52,9.79-6.37,2.13-2.47,4-5.22,7-6.84C318.19,90.36,318.71,90.21,319.5,89.88Z"/><path class="cls-1" d="M336.86,75.07c0,1.52-.94,3.12-3.54,4.53-3.34,1.81-9.12-.69-9.12-4.81C324.2,66.92,336.63,67.05,336.86,75.07Z"/><path class="cls-1" d="M288.76,153a15.14,15.14,0,0,0-3.48,2c4-1.57,7.57-5.23,8.39-9.48a11,11,0,0,0,6.9,10.17,7.14,7.14,0,0,1-6.23-.92c-.35,1.6,1.13,3.05,2.67,3.6s3.25.55,4.76,1.18a11.36,11.36,0,0,1-7.61.08c-.63,2,1.15,3.88,2.89,5s3.81,2.3,4.22,4.33a21.93,21.93,0,0,1-6.95-2.14c-1,1.28-.31,3.26.95,4.3a16.53,16.53,0,0,0,4.39,2.07c1.51.63,3,1.67,3.39,3.26a61.81,61.81,0,0,1-10.19-1.64c.41,1.82,2,3.08,3.55,4.16l8,5.76-10.78-.2c2.75,6.09,11.77,7.05,14.88,13l-30.93.13a32.28,32.28,0,0,1,8.46-9c1.69-1.21,3.59-2.36,4.47-4.24a65.77,65.77,0,0,1-12.07-.1,51.29,51.29,0,0,0,9.43-5.34c1.56-1.12,3.19-2.55,3.33-4.47q-4.39.89-8.85,1.44c.19-1.74,2.29-2.41,3.91-3.09a11.2,11.2,0,0,0,5.16-4.51c.29-.5.5-1.24,0-1.58a1.26,1.26,0,0,0-1.06,0l-6.08,1.64c.33-2,2.52-2.93,4.3-3.86s3.61-2.92,2.65-4.68a18.25,18.25,0,0,1-7.6-.57,15,15,0,0,0,5.47-.89,5.08,5.08,0,0,0,3.25-4.18,10,10,0,0,1-6.94.95"/><path class="cls-1" d="M309.49,166.82a10,10,0,0,0-2.4,1.36,9.36,9.36,0,0,0,5.79-6.54,7.65,7.65,0,0,0,4.77,7,5,5,0,0,1-4.31-.64c-.23,1.1.79,2.11,1.85,2.49s2.24.38,3.29.81a7.85,7.85,0,0,1-5.26.06c-.44,1.37.79,2.68,2,3.46s2.64,1.59,2.92,3a15.23,15.23,0,0,1-4.8-1.49,2.29,2.29,0,0,0,.65,3,11.94,11.94,0,0,0,3,1.43,3.61,3.61,0,0,1,2.34,2.24,41.68,41.68,0,0,1-7-1.12,5.36,5.36,0,0,0,2.44,2.87l5.54,4-7.44-.15c1.9,4.22,8.13,4.88,10.27,9l-21.35.09a22.08,22.08,0,0,1,5.84-6.19c1.17-.84,2.48-1.63,3.08-2.93a45.45,45.45,0,0,1-8.33-.07,34.85,34.85,0,0,0,6.51-3.69c1.08-.77,2.2-1.76,2.3-3.09q-3,.62-6.11,1c.13-1.21,1.58-1.67,2.7-2.14a7.64,7.64,0,0,0,3.56-3.11c.2-.35.35-.85,0-1.09a.84.84,0,0,0-.73,0l-4.2,1.13c.23-1.36,1.74-2,3-2.66s2.49-2,1.83-3.24a12.54,12.54,0,0,1-5.24-.39,10.19,10.19,0,0,0,3.77-.62,3.52,3.52,0,0,0,2.25-2.88,7,7,0,0,1-4.8.66"/><path class="cls-1" d="M344.39,155.2a14.24,14.24,0,0,0-3.31,1.87,12.91,12.91,0,0,0,8-9,10.51,10.51,0,0,0,6.55,9.67,6.8,6.8,0,0,1-5.92-.88c-.33,1.52,1.08,2.9,2.54,3.42s3.09.53,4.53,1.12a10.78,10.78,0,0,1-7.24.08c-.6,1.89,1.09,3.69,2.74,4.77s3.63,2.19,4,4.13a21,21,0,0,1-6.61-2c-.95,1.22-.29,3.1.9,4.09a15.87,15.87,0,0,0,4.18,2c1.43.6,2.88,1.59,3.22,3.09a57.75,57.75,0,0,1-9.68-1.55c.38,1.73,1.93,2.92,3.37,4l7.63,5.48-10.26-.2c2.62,5.8,11.2,6.71,14.16,12.34l-29.42.13a30.57,30.57,0,0,1,8.05-8.53c1.61-1.15,3.41-2.24,4.25-4A61.15,61.15,0,0,1,334.6,185a48.25,48.25,0,0,0,9-5.07c1.49-1.07,3-2.43,3.17-4.26-2.78.57-5.59,1-8.42,1.37.19-1.66,2.19-2.29,3.72-2.94a10.56,10.56,0,0,0,4.91-4.29c.28-.47.48-1.17,0-1.5a1.22,1.22,0,0,0-1,0l-5.78,1.56c.31-1.88,2.4-2.78,4.09-3.67s3.43-2.78,2.52-4.45a17.27,17.27,0,0,1-7.22-.54,14.27,14.27,0,0,0,5.2-.85,4.85,4.85,0,0,0,3.09-4,9.54,9.54,0,0,1-6.61.9"/><path class="cls-1" d="M271.19,161a12.37,12.37,0,0,0-2.86,1.61,11.13,11.13,0,0,0,6.89-7.77,9.06,9.06,0,0,0,5.66,8.34,5.86,5.86,0,0,1-5.12-.76c-.28,1.32.93,2.51,2.2,3s2.66.45,3.9,1a9.35,9.35,0,0,1-6.24.07c-.52,1.62.94,3.18,2.37,4.11s3.13,1.89,3.46,3.56a17.82,17.82,0,0,1-5.7-1.76c-.82,1-.25,2.68.78,3.53a13.14,13.14,0,0,0,3.61,1.7,4.29,4.29,0,0,1,2.77,2.67,50.55,50.55,0,0,1-8.36-1.34c.33,1.5,1.67,2.53,2.91,3.42l6.59,4.73-8.85-.17c2.26,5,9.66,5.79,12.21,10.65l-25.38.11a26.31,26.31,0,0,1,6.94-7.36c1.39-1,2.95-1.94,3.67-3.48a54.67,54.67,0,0,1-9.91-.08,42.2,42.2,0,0,0,7.74-4.38c1.28-.92,2.62-2.1,2.74-3.68q-3.61.74-7.27,1.18c.16-1.43,1.88-2,3.21-2.53a9.14,9.14,0,0,0,4.23-3.71c.24-.4.42-1,0-1.29a1.05,1.05,0,0,0-.87,0l-5,1.34c.27-1.62,2.07-2.4,3.53-3.16s3-2.4,2.17-3.85a14.74,14.74,0,0,1-6.23-.47,12.17,12.17,0,0,0,4.49-.73,4.18,4.18,0,0,0,2.67-3.43,8.22,8.22,0,0,1-5.71.78"/><path class="cls-1" d="M328.8,161a12.37,12.37,0,0,0-2.86,1.61,11.13,11.13,0,0,0,6.89-7.77,9.06,9.06,0,0,0,5.66,8.34,5.86,5.86,0,0,1-5.12-.76c-.28,1.32.94,2.51,2.2,3s2.67.45,3.91,1a9.38,9.38,0,0,1-6.25.07c-.52,1.62.94,3.18,2.37,4.11s3.13,1.89,3.47,3.56a17.8,17.8,0,0,1-5.71-1.76c-.82,1-.25,2.68.78,3.53a13.14,13.14,0,0,0,3.61,1.7,4.33,4.33,0,0,1,2.78,2.67,50.21,50.21,0,0,1-8.36-1.34c.33,1.5,1.66,2.53,2.9,3.42l6.59,4.73-8.85-.17c2.26,5,9.66,5.79,12.22,10.65l-25.39.11a26.31,26.31,0,0,1,6.94-7.36c1.39-1,2.95-1.94,3.67-3.48a54.67,54.67,0,0,1-9.91-.08,41.55,41.55,0,0,0,7.74-4.38c1.28-.92,2.62-2.1,2.74-3.68q-3.61.74-7.27,1.18c.16-1.43,1.88-2,3.21-2.53A9.14,9.14,0,0,0,331,173.6c.24-.4.42-1,0-1.29a1.05,1.05,0,0,0-.87,0l-5,1.34c.27-1.62,2.07-2.4,3.53-3.16s3-2.4,2.17-3.85a14.74,14.74,0,0,1-6.23-.47,12.13,12.13,0,0,0,4.49-.73,4.18,4.18,0,0,0,2.67-3.43,8.21,8.21,0,0,1-5.71.78"/><path class="cls-1" d="M191.36,192.14l-9.94-10.87c.28-.42.55-.84.83-1.25l8,2.78-4.15-6.38,1-.69a64.42,64.42,0,0,1,10.25,11.5l-.87,1.2-6.34-3.17-.74.59,2.93,5.3Z"/><rect id="cadre" class="cls-2" x="-0.5" y="0.33" width="623.62" height="340.16"/></svg>