<svg id="Scene" xmlns="http://www.w3.org/2000/svg" width="1500" height="800" viewBox="0 0 623.62 340.16"><defs><style>.cls-1{fill:#e2ac22;}.cls-2{fill:#fff;}.cls-3,.cls-4{fill:none;}.cls-4{stroke:#535551;stroke-linecap:round;stroke-linejoin:round;stroke-width:0;}</style></defs><path class="cls-1" d="M313.84,218c0-.13,1.85-3,3-4.71,4.75-6.45,12.34-18.38,16.33-24.29.87-1.29,1.79-2.54,2.66-3.77l.68-1,0-.14q2.72-4.22,5.44-8.43l1.36-2.11c1.16-1.79,2.36-3.6,3.7-5.64.14-.23.27-.43.43-.66l-.38-.07-1-.15a3,3,0,0,0-.65-.06c-5.15.2-10.3.45-15.45.66h-.58c-.51,0-.82-.15-1-.42a3.42,3.42,0,0,1,.17-2.07c.36-1.37.69-2.73,1-4.1.55-2.18,1.11-4.36,1.64-6.54,1.45-5.89,2.85-11.79,4.32-17.68.81-3.21,1.65-6.41,2.48-9.62q.84-3.21,1.66-6.41h0c-.34.51-.63,1-.92,1.56s-.73,1.31-1.05,2c-.2.4-.41.8-.59,1.21-2.27,5.09-4.46,10.21-6.74,15.3-.06.15-.13.3-.2.44-2,4.55-4.11,9.07-6.16,13.61-.27.6-.55,1.2-.81,1.79q-4.5,10.05-8.93,20.11c-.6,1.36-1.1,2.75-1.83,4.6l14.88-.66c0,.09,0,.14-.06.22a24.16,24.16,0,0,1-.77,2.41q-1.78,3.9-3.65,7.77c-1.6,3.34-5.62,11.74-8.58,18.69l-.4.8c-.27.65-.53,1.29-.8,1.93h0c-2.19,4.75-7.06,15-9.25,19.77l.07,0,.19.1,4.05-6,5.68-8.46"/><path class="cls-1" d="M17,78.55a24.6,24.6,0,0,0,1.75,5.61c7.5,16.87,32.05,23,45,8.75-5.8,6.4-20.56,2.23-25.84-2.78C33.09,85.61,30.67,79,30.38,72.48,29.7,57.27,40.92,46.05,56.27,48.32A27.61,27.61,0,0,0,38.91,46C24.14,48.9,14.26,64.19,17,78.55Z"/><path class="cls-1" d="M229.21,48.34,235.5,47a18.69,18.69,0,0,1-5.34,4.56,26.87,26.87,0,0,0,4.74,6.28l-5.71-1.77A26.25,26.25,0,0,1,225,66l0-10.48a39.74,39.74,0,0,1-13.41,2.6l8.57-5c.65-.37,1.35-.82,1.52-1.55a2.77,2.77,0,0,0-.16-1.39l-2.17-7.48c.48,1.65,5.4,6.48,7,5.64,1-.52,1.46-8.08,1.79-9.13A43.57,43.57,0,0,1,229.21,48.34Z"/><path class="cls-1" d="M408.76,215.47l9-1.94a26.86,26.86,0,0,1-7.66,6.54,38.87,38.87,0,0,0,6.8,9l-8.2-2.55a37.39,37.39,0,0,1-6.06,14.21l0-15a57.15,57.15,0,0,1-19.25,3.73l12.31-7.2a4,4,0,0,0,2.17-2.23,3.93,3.93,0,0,0-.22-2l-3.12-10.74c.69,2.38,7.74,9.31,10.09,8.1,1.45-.75,2.09-11.59,2.57-13.11A62.85,62.85,0,0,1,408.76,215.47Z"/><path class="cls-1" d="M242.29,210.78l3.43-.73a10.19,10.19,0,0,1-2.91,2.48,14.91,14.91,0,0,0,2.58,3.43l-3.11-1a14.3,14.3,0,0,1-2.3,5.4v-5.71a21.58,21.58,0,0,1-7.32,1.41l4.68-2.73c.35-.21.73-.45.82-.85a1.53,1.53,0,0,0-.08-.76l-1.18-4.07c.26.9,2.94,3.53,3.83,3.07.55-.28.79-4.4,1-5A23.42,23.42,0,0,1,242.29,210.78Z"/><path class="cls-1" d="M595.82,43.8l2.17-.46a6.32,6.32,0,0,1-1.84,1.57,9.39,9.39,0,0,0,1.64,2.17l-2-.62a9.21,9.21,0,0,1-1.46,3.42V46.27a13.79,13.79,0,0,1-4.63.89l3-1.73c.22-.13.47-.28.53-.53a1,1,0,0,0-.06-.49l-.75-2.58c.17.57,1.86,2.24,2.43,2,.35-.18.5-2.79.62-3.15A15.34,15.34,0,0,1,595.82,43.8Z"/><path class="cls-2" d="M223,209.51l5.49-1.18a16.08,16.08,0,0,1-4.67,4,23.69,23.69,0,0,0,4.15,5.49l-5-1.55a22.92,22.92,0,0,1-3.7,8.66l0-9.16A34.52,34.52,0,0,1,207.49,218l7.5-4.38a2.47,2.47,0,0,0,1.32-1.36,2.34,2.34,0,0,0-.14-1.22l-1.89-6.54c.42,1.45,4.71,5.67,6.14,4.93.88-.45,1.27-7.06,1.57-8A38.75,38.75,0,0,1,223,209.51Z"/><path class="cls-2" d="M349,150.25l3-.64a8.89,8.89,0,0,1-2.53,2.16,13.08,13.08,0,0,0,2.24,3l-2.7-.84a12.4,12.4,0,0,1-2,4.69v-5a18.91,18.91,0,0,1-6.36,1.23l4.07-2.38c.31-.18.64-.39.72-.73a1.4,1.4,0,0,0-.07-.67l-1-3.54c.22.78,2.55,3.07,3.33,2.67.48-.25.69-3.83.85-4.33A21.29,21.29,0,0,1,349,150.25Z"/><path class="cls-2" d="M489.64,109.37l3-.64a8.89,8.89,0,0,1-2.53,2.16,13.3,13.3,0,0,0,2.24,3l-2.7-.85a12.51,12.51,0,0,1-2,4.7v-5a18.43,18.43,0,0,1-6.36,1.23l4.07-2.37c.3-.18.64-.4.72-.74a1.25,1.25,0,0,0-.08-.66l-1-3.55c.22.79,2.55,3.08,3.33,2.68.48-.25.69-3.83.85-4.33A21.21,21.21,0,0,1,489.64,109.37Z"/><path class="cls-2" d="M589.26,254.47l5.5-1.18a16.37,16.37,0,0,1-4.67,4,23.58,23.58,0,0,0,4.14,5.49l-5-1.55a23.06,23.06,0,0,1-3.69,8.66l0-9.16A34.62,34.62,0,0,1,573.8,263l7.5-4.39a1.84,1.84,0,0,0,1.19-2.57l-1.9-6.54c.42,1.45,4.71,5.67,6.14,4.93.88-.45,1.28-7.06,1.57-8A38.67,38.67,0,0,1,589.26,254.47Z"/><path class="cls-1" d="M103.74,205.63l2.76-.59a8.18,8.18,0,0,1-2.34,2,12.13,12.13,0,0,0,2.08,2.76l-2.51-.78a11.58,11.58,0,0,1-1.85,4.35v-4.6a17.76,17.76,0,0,1-5.9,1.14l3.77-2.21a1.24,1.24,0,0,0,.67-.68,1.28,1.28,0,0,0-.07-.61l-1-3.29c.21.73,2.37,2.85,3.09,2.48.44-.23.64-3.55.79-4A18.83,18.83,0,0,1,103.74,205.63Z"/><path class="cls-2" d="M53.59,69.09l4.34-.93a13.12,13.12,0,0,1-3.69,3.15,19,19,0,0,0,3.27,4.34l-3.94-1.23a18.24,18.24,0,0,1-2.92,6.84l0-7.23a27.64,27.64,0,0,1-9.26,1.79l5.92-3.47c.45-.26.93-.57,1.05-1.07a1.86,1.86,0,0,0-.11-1l-1.5-5.17c.34,1.14,3.73,4.48,4.86,3.9.69-.36,1-5.58,1.24-6.31A30.71,30.71,0,0,1,53.59,69.09Z"/><path class="cls-1" d="M275.4,108.6l4.43-2c1.05-.47,2,1.07.91,1.55l-4.43,2c-1,.48-1.95-1.07-.91-1.54Z"/><path class="cls-2" d="M256.2,163.14a27.75,27.75,0,1,1,20.91-33.22A27.78,27.78,0,0,1,256.2,163.14Z"/><path class="cls-1" d="M262.81,155.18a25.65,25.65,0,0,0-4.41.78,14.14,14.14,0,0,0,1.22-2.17,12.85,12.85,0,0,0-1.44,2,25,25,0,0,0-1.2-4.32,26.32,26.32,0,0,0,.79,4.41,14.17,14.17,0,0,0-2.17-1.22,12.62,12.62,0,0,0,2,1.44,25,25,0,0,0-4.31,1.19,23.2,23.2,0,0,0,4.41-.78,14.17,14.17,0,0,0-1.22,2.17,12.24,12.24,0,0,0,1.43-2,24.4,24.4,0,0,0,1.2,4.31,24.21,24.21,0,0,0-.78-4.41,14.14,14.14,0,0,0,2.17,1.22,13,13,0,0,0-2-1.43A26.09,26.09,0,0,0,262.81,155.18Z"/><path class="cls-1" d="M237.82,126.25a20.39,20.39,0,0,0-3.22.58,10,10,0,0,0,.89-1.59,10.92,10.92,0,0,0-1.05,1.49,18.22,18.22,0,0,0-.87-3.15,18.6,18.6,0,0,0,.57,3.22,9.55,9.55,0,0,0-1.59-.89,10.65,10.65,0,0,0,1.49,1,17.72,17.72,0,0,0-3.15.88,17.8,17.8,0,0,0,3.22-.57,10.22,10.22,0,0,0-.89,1.58,9.93,9.93,0,0,0,1.05-1.48,18.27,18.27,0,0,0,.87,3.15,17.8,17.8,0,0,0-.57-3.22,10,10,0,0,0,1.59.89,10.92,10.92,0,0,0-1.49-1.05A17.68,17.68,0,0,0,237.82,126.25Z"/><path class="cls-1" d="M270.06,142.44a1.51,1.51,0,0,0,.68,2.95A1.51,1.51,0,0,0,270.06,142.44Z"/><path class="cls-1" d="M265.62,142a.72.72,0,0,0,.32,1.4A.72.72,0,0,0,265.62,142Z"/><polygon class="cls-1" points="268.67 123.75 270 127.14 272.25 126.96 270.24 128 270.66 131.85 269.32 128.26 266.82 128.2 269.06 127.33 268.67 123.75"/><path class="cls-1" d="M245.6,143.55a30.6,30.6,0,0,0-5.31.95,17.26,17.26,0,0,0,1.47-2.62,15.7,15.7,0,0,0-1.72,2.46,30.69,30.69,0,0,0-1.45-5.19,30.74,30.74,0,0,0,.95,5.3,16.76,16.76,0,0,0-2.62-1.47,15.88,15.88,0,0,0,2.45,1.73,29.58,29.58,0,0,0-5.18,1.44,30.58,30.58,0,0,0,5.3-.94,17,17,0,0,0-1.47,2.61,15.88,15.88,0,0,0,1.73-2.45,29.54,29.54,0,0,0,1.44,5.19,30.76,30.76,0,0,0-.94-5.31,16.92,16.92,0,0,0,2.61,1.47,15.89,15.89,0,0,0-2.45-1.72A30.69,30.69,0,0,0,245.6,143.55Z"/><path class="cls-1" d="M248.44,118.8a12.62,12.62,0,0,0-2.29.41,7.48,7.48,0,0,0,.63-1.13,6.28,6.28,0,0,0-.74,1.06,12.84,12.84,0,0,0-.63-2.25,14,14,0,0,0,.41,2.3,6.65,6.65,0,0,0-1.13-.64,6.83,6.83,0,0,0,1.06.75,12.13,12.13,0,0,0-2.24.62,12.17,12.17,0,0,0,2.29-.41,6.16,6.16,0,0,0-.63,1.13,7.25,7.25,0,0,0,.74-1.06,13.15,13.15,0,0,0,.62,2.24,12.6,12.6,0,0,0-.4-2.29,9.24,9.24,0,0,0,1.12.64,6.83,6.83,0,0,0-1.05-.75A13.45,13.45,0,0,0,248.44,118.8Z"/><path class="cls-1" d="M259.26,118.84h-.07c-.22,0-.14.36.06.24l.06,0A.11.11,0,0,0,259.26,118.84Z"/><path class="cls-1" d="M240.75,124.72a.62.62,0,1,0,.74.46A.62.62,0,0,0,240.75,124.72Z"/><path class="cls-1" d="M237.11,131.15a.72.72,0,0,0-.53.85.7.7,0,0,0,1.37-.31A.72.72,0,0,0,237.11,131.15Z"/><path class="cls-1" d="M238.93,131.17a.27.27,0,0,0-.14.44l0,0a.25.25,0,0,0,.42-.1v0A.27.27,0,0,0,238.93,131.17Z"/><path class="cls-1" d="M253,113a.82.82,0,1,0,1,.61A.82.82,0,0,0,253,113Z"/><path class="cls-1" d="M255.14,123.46H255c-.17,0-.1.31.06.26l.17-.07A.11.11,0,0,0,255.14,123.46Z"/><path class="cls-1" d="M263.51,120.41a.38.38,0,0,0,.17.74A.38.38,0,0,0,263.51,120.41Z"/><path class="cls-1" d="M274.94,134l0,0a.21.21,0,0,0,.07.34h0a.23.23,0,0,0,.29-.26A.22.22,0,0,0,274.94,134Z"/><path class="cls-1" d="M275.53,137.37l0,0a.36.36,0,0,0-.36.08l0,0a.34.34,0,0,0,.13.57h0a.34.34,0,0,0,.36-.08l0,0A.34.34,0,0,0,275.53,137.37Z"/><path class="cls-1" d="M247.52,149.13a.29.29,0,0,0,.13.57A.29.29,0,0,0,247.52,149.13Z"/><path class="cls-1" d="M250.56,148.72a.78.78,0,1,0,.93.59A.79.79,0,0,0,250.56,148.72Z"/><path class="cls-1" d="M247.89,151l-.1.08a.26.26,0,0,0,.1.44l.13,0a.33.33,0,0,0,.42-.38A.34.34,0,0,0,247.89,151Z"/><path class="cls-1" d="M236.94,150a.2.2,0,0,0,.09.38A.2.2,0,0,0,236.94,150Z"/><path class="cls-1" d="M259.35,133.25a.35.35,0,0,0-.28.08.18.18,0,0,0,.07.29.29.29,0,0,0,.28-.05A.17.17,0,0,0,259.35,133.25Z"/><path class="cls-1" d="M258.17,135.2a.21.21,0,0,0,.1.41A.21.21,0,0,0,258.17,135.2Z"/><path class="cls-1" d="M257.12,133a.31.31,0,0,0,.14.61A.31.31,0,0,0,257.12,133Z"/><path class="cls-1" d="M236.88,138.49a.28.28,0,1,0,0,.43A.27.27,0,0,0,236.88,138.49Z"/><path class="cls-1" d="M234.31,136a.22.22,0,0,0,.1.43A.22.22,0,0,0,234.31,136Z"/><path class="cls-1" d="M269.42,134.37a.28.28,0,0,0,.13.54A.28.28,0,0,0,269.42,134.37Z"/><path class="cls-1" d="M276.63,142.45a.22.22,0,0,0-.22.05.43.43,0,0,0-.09.38c0,.35.66.21.54-.13C276.81,142.6,276.78,142.52,276.63,142.45Z"/><path class="cls-1" d="M259.11,148.25a.26.26,0,0,0,.11.51A.26.26,0,0,0,259.11,148.25Z"/><path class="cls-1" d="M258.91,175.08c6.59-1.42,14-3.36,19.34-8.3a42.17,42.17,0,0,0-5.9-3.82,4.8,4.8,0,0,0-2.83-.94l-.09,0a51.34,51.34,0,0,1-12.11,4.23c-2.74.62-5.44,1.07-8,1.44a9.41,9.41,0,0,1-1.9.14,7.19,7.19,0,0,0-3.81,2.9,16.73,16.73,0,0,0-2.6,4.67C246.81,177.41,253.28,176.3,258.91,175.08Zm-15.16.2a.94.94,0,0,1-.47,0,.46.46,0,0,1,.26-.88c.05,0,.26-.19.43-.64a14.25,14.25,0,0,1,3.35-5.25.46.46,0,0,1,.65.65,13.28,13.28,0,0,0-3.14,4.91A1.73,1.73,0,0,1,243.75,175.28Z"/><path class="cls-2" d="M271,158.24a1.3,1.3,0,0,0-1.38-.31.46.46,0,0,0-.27.59.46.46,0,0,0,.6.26.39.39,0,0,1,.42.13,1,1,0,0,1,.28.91,3,3,0,0,1-1.61,1.43c-6.41,3.3-13.6,4.68-19.79,5.59a4.72,4.72,0,0,1-3-.21,1.69,1.69,0,0,1-.79-1.26.89.89,0,0,1,.29-.79.46.46,0,0,0,.07-.65.45.45,0,0,0-.64-.07,1.75,1.75,0,0,0-.63,1.58,2.56,2.56,0,0,0,1.25,2,3.63,3.63,0,0,0,1.7.45,9.41,9.41,0,0,0,1.9-.14c2.52-.37,5.22-.82,8-1.44a51.34,51.34,0,0,0,12.11-4.23l.09,0a3.61,3.61,0,0,0,2-1.93A1.88,1.88,0,0,0,271,158.24Z"/><path class="cls-1" d="M241.67,176.6q-.45-.12-.9-.27c0,.15-.1.3-.14.45a1,1,0,0,0,0,.65,1,1,0,0,0,.59.38l.4.14A2.39,2.39,0,0,1,241.67,176.6Z"/><path class="cls-1" d="M279.44,167.83a1.39,1.39,0,0,0-.44-.49c-5,4.75-11.88,6.83-18.2,8.27l-1.7.37c-5.18,1.12-11.06,2.14-16.55.85a.13.13,0,0,1,0,.06,1.51,1.51,0,0,0,.15,1.4c4.55,1.23,9.45.51,14.11-.5l1.3-.29c2.83-.65,5.67-1.39,8.44-2.23,4.45-1.35,9-3.05,12.34-6.34C279.2,168.61,279.56,168.16,279.44,167.83Z"/><path class="cls-2" d="M279.31,166.41a.46.46,0,0,0-.65,0l-.41.38c-5.3,4.94-12.75,6.88-19.34,8.3-5.63,1.22-12.1,2.33-17.86.37l-.44-.15a.47.47,0,0,0-.59.28.46.46,0,0,0,.27.59l.48.16q.45.15.9.27a2.39,2.39,0,0,0-.09,1.35,2.36,2.36,0,0,0,.44,1,.45.45,0,0,0,.46.16.38.38,0,0,0,.18-.09.45.45,0,0,0,.08-.64l-.05-.09a1.51,1.51,0,0,1-.15-1.4.13.13,0,0,0,0-.06c5.49,1.29,11.37.27,16.55-.85l1.7-.37c6.32-1.44,13.16-3.52,18.2-8.27l.3-.28A.45.45,0,0,0,279.31,166.41Z"/><path class="cls-2" d="M248,168.49a.46.46,0,0,0-.65,0,14.25,14.25,0,0,0-3.35,5.25c-.17.45-.38.67-.43.64a.46.46,0,0,0-.26.88.94.94,0,0,0,.47,0,1.73,1.73,0,0,0,1.08-1.23,13.28,13.28,0,0,1,3.14-4.91A.46.46,0,0,0,248,168.49Z"/><path class="cls-1" d="M264.69,103a31.16,31.16,0,0,1,1.08-9,.9.9,0,0,1,1.73.48,29.24,29.24,0,0,0-1,8.53.9.9,0,0,1-1.79,0Z"/><path class="cls-1" d="M268.89,105.48l2.78-4.43c.62-1,2.16-.07,1.55.91l-2.78,4.42c-.62,1-2.16.07-1.55-.9Z"/><path class="cls-1" d="M227.37,144.67a26.68,26.68,0,0,0,20,15.52c.45.08.26.77-.19.69A27.36,27.36,0,0,1,226.75,145c-.19-.42.43-.78.62-.36Z"/><path class="cls-1" d="M262.08,140.65s-.07,0-.1.08a11,11,0,0,1-6.34,2.49,10.5,10.5,0,0,1-5.83-1.28,9.45,9.45,0,0,1-2.82-2.36,20.41,20.41,0,0,1-2.33.75l1.72-1.61a9.07,9.07,0,0,1-.22-9.22,11,11,0,0,1,12.62-5.11c.1,0,.21.08.33-.07-.11-.08-.2-.16-.3-.22a11.25,11.25,0,0,0-10.24-.74A11.52,11.52,0,1,0,262.09,141a1.77,1.77,0,0,0,.16-.22.47.47,0,0,0,0-.17A1,1,0,0,0,262.08,140.65Z"/><path class="cls-3" d="M247,139.58a20.25,20.25,0,0,0,4.23-2.14l1.23,5.35a13.7,13.7,0,0,0,1-5.55l3.13.24a14.64,14.64,0,0,1-3.16-2.66,9.81,9.81,0,0,0,2.21-2.95l-3.06,1.42a23.77,23.77,0,0,0-1.63-4.58c0,.29.12,1.38.22,2.46a1,1,0,0,1,.08,1.76c0,.33-.06.58-.16.66-.74.62-3.81-1.28-4.25-2.07l2,3.58a1.43,1.43,0,0,1,.24.69,1.48,1.48,0,0,1-.59,1l-2.09,2-1.72,1.61A20.41,20.41,0,0,0,247,139.58Z"/><path class="cls-1" d="M251.17,131.17a1,1,0,1,0-.08,1.84,1.19,1.19,0,0,0,.16-.08A1,1,0,0,0,251.17,131.17Z"/><path class="cls-1" d="M137.5,90.22c1.4-.32,4-1.86,5.21-1.45,1.08.35,1.93,1.18,3,1.62a4.3,4.3,0,0,0,4.38-7.31c-5.75-4.67,4.28-4.68-.18-10.12-2.73-3.33-8.32-2.73-11.76-1a4.22,4.22,0,0,1-1.86.66,3.33,3.33,0,0,1-1.91-.92c-4-3.21-7.53-6.92-11.47-10.14q-9.18-7.48-18.6-14.66C96.46,41,88,32.27,79.94,27.33c-1.88-1.15-5.2-.09-4.81,2.08A4,4,0,0,0,77,31.69a25.5,25.5,0,0,1,4.77,4c-.26.44-3.18,4.12-3.55,3.8l2.34,2c1.21-.67,1.84-2.05,2.9-2.94s3.17-.83,3.37.55l-1.41,4c-.34,1-.6,2.21.19,2.84a2.07,2.07,0,0,0,1.69.23,5.18,5.18,0,0,0,2.91-1.83c.56-.7,1-2.62,1.7-2,4.4,3.59,9.27,7.63,11.19,9.27,5.84,5,12.29,9.17,18.31,13.93,4.34,3.42,8,7.42,12.16,11.11-2.39,2.4-4.48,8.37-2.09,11.41A6.09,6.09,0,0,0,137.5,90.22Zm-3-4.57a4.63,4.63,0,0,1-.16-2.83,13.34,13.34,0,0,1,3.59-6.77l-.25,0,1-.75c-.27.23-.52.47-.77.72l5.7-.66a4,4,0,0,1,2.07.12,1.4,1.4,0,0,1,.86,1.69c-.46,1.06-2.32.78-2.81,1.83a1.9,1.9,0,0,0,.36,1.74,11.2,11.2,0,0,0,2,2.42c.59.54,1.3,1.13,1.29,1.93,0,1.08-1.39,1.67-2.43,1.38a9.26,9.26,0,0,1-2.72-1.7,2.91,2.91,0,0,0-3-.52c-1,.58-1.3,2.09-2.4,2.51A2,2,0,0,1,134.47,85.65Z"/><path class="cls-1" d="M137.65,76.08l.25,0c.25-.25.5-.49.77-.72Z"/><path class="cls-3" d="M133.43,267.22c-.09.33-.16.64-.23.94l.3-.77A.87.87,0,0,0,133.43,267.22Z"/><path class="cls-1" d="M160.64,224.61c-1,.12-6-2.2-6.54-3a16.87,16.87,0,0,0-1.6.91c-3.08,2.21-6.09,4.52-9.23,6.63a12.73,12.73,0,0,0-4.27,4.27,18.39,18.39,0,0,1-2,2.92,25,25,0,0,0-5.33,9.3,2.75,2.75,0,0,0,0,.86h1.2a40.31,40.31,0,0,0-.77,4.23c-.08,1.12.36,2.29.21,3.4-.38,3-.87,5.91-1.49,8.82a35,35,0,0,1-1.57,4.45l2.39-.61c-.81,2.82-1.53,5.32-2.31,8.05l1.58-.58c.61-1.44,1.26-2.86,1.81-4.32a1.59,1.59,0,0,0,.07-.2.42.42,0,0,1,0-.38c.14-.39.3-.78.45-1.17s.14-.61.23-.94a.87.87,0,0,1,.07.17,127.12,127.12,0,0,1,6.74-13.34,110.79,110.79,0,0,0,7.42-15.11.42.42,0,0,1,.53-.25.44.44,0,0,1,.25.56A110.85,110.85,0,0,1,141,254.48a112.16,112.16,0,0,0-7.31,14.83,9.51,9.51,0,0,1-2.5,5.34c-1,1.08-2,2.16-2.92,3.26-.26.29-.47.61-.71.92.45.22.93.68,1.33.62a10.14,10.14,0,0,0,5.54-2.34c2-1.87,3.81-3.92,5.71-5.89q.89-2.94,1.78-5.9l.69.21-1.44,5.14a9.88,9.88,0,0,0,1.3-.54c2.42-1.48,3.77-3.87,5.15-6.21a11.53,11.53,0,0,0,.77-2.37l.57-3.21c.46-3,.91-6,1.39-9.19.92,1.13.37,6.29-.83,9.72-.21.89-.42,1.78-.62,2.67,1.32.88,1.45-.58,1.77-1.09,1.48-2.31,2.79-4.73,4.16-7.11.29-3.06.57-6.11.85-9.17l.64,0c-.05,2.23-.11,4.47-.17,6.7.33-.25.86-.45.95-.77.91-3.27,2-6.52,2.55-9.84.51-2.87.27-5.86.75-8.74.38-2.34.94-4.63.56-7Zm-23.17,30.77a30.58,30.58,0,0,0-1.94,4l-2.89,6.84a.42.42,0,0,1-.37.25.29.29,0,0,1-.16,0,.4.4,0,0,1-.22-.53l2.89-6.83a30.92,30.92,0,0,1,2-4.15.41.41,0,1,1,.7.42Zm3.21-17.59a25.55,25.55,0,0,0-5.62,8.81.42.42,0,0,1-.39.26l-.14,0a.41.41,0,0,1-.24-.52,26.57,26.57,0,0,1,5.81-9.09.41.41,0,1,1,.58.57Z"/><path class="cls-1" d="M205.07,143.93c-1.88.53-3.73,1.14-5.61,1.66a5.58,5.58,0,0,0-3.31,2.1,67.64,67.64,0,0,0-7.09,12.3,15.83,15.83,0,0,1-2.47,4.1,35.73,35.73,0,0,0-5.63,8.82,34,34,0,0,1-3.7,6.36A109.43,109.43,0,0,0,171,189c-1.71,3-3.34,6-5,9-.91,1.69-2.79,4.05-2.94,6.24a3.26,3.26,0,0,0,.6,2.22c2.44,3.38,4.83-2.09,5.89-3.81a58.32,58.32,0,0,0,4.58-9.19,22.17,22.17,0,0,1,4.09-6.92,35.12,35.12,0,0,0,4-5.49c1.64-2.76,3-5.71,4.6-8.47,2.33-3.94,4.26-8.17,7.91-11.17a6.34,6.34,0,0,0,2.06-4.22,5.47,5.47,0,0,1,1-2.61c1.41-1.63,3.06-3.05,4.53-4.64s2.68-3,3.93-4.64c.25-.32.14-.93.2-1.41A6.06,6.06,0,0,0,205.07,143.93Z"/><path class="cls-1" d="M168.43,211.62l-1-1c-.38-.4-1.87-.34-2.45-.53-.23-.08-.44-.17-.66-.26-.57-.25-1.12-.55-1.69-.78a9.07,9.07,0,0,0-1.21-.42.44.44,0,0,1,.09.37,94.61,94.61,0,0,1-3.74,11.3.52.52,0,0,1,0,.21l-.23.46a.41.41,0,0,1-.37.22.32.32,0,0,1-.16,0,.4.4,0,0,1-.21-.52,93.46,93.46,0,0,0,4-11.84.4.4,0,0,1,.23-.26,2.22,2.22,0,0,0-2.51,1,29.25,29.25,0,0,0-3.72,11.65l6.3,2.79,4.72-6.27c-1.06-.55-.39-1.18,0-1.74C166.59,214.46,167.52,213.05,168.43,211.62ZM161,217.18a.34.34,0,0,1-.14,0,.41.41,0,0,1-.25-.52,61.66,61.66,0,0,0,1.94-6.65.41.41,0,0,1,.49-.31.41.41,0,0,1,.3.49,61.06,61.06,0,0,1-2,6.74A.41.41,0,0,1,161,217.18Zm1.14,3.64a.4.4,0,0,1-.56.11.41.41,0,0,1-.11-.57,28.65,28.65,0,0,0,4.1-9.41l.09-.36a.42.42,0,0,1,.48-.31.41.41,0,0,1,.31.49A29.33,29.33,0,0,1,162.18,220.82Z"/><path class="cls-2" d="M410.06,103.94l23.7,51.92c.42.93.86,1.87,1.28,2.84,3.3-1.95,6.53-3.89,8-4.85a.74.74,0,0,1,1,.21.06.06,0,0,1,0,0,33.37,33.37,0,0,0-3-7.79l-26.78-54c-.72-1.45-1.44-2.91-2.26-4.3l-7.36,4.33C406.55,96.22,408.35,100.17,410.06,103.94Z"/><path class="cls-2" d="M426.18,165.58h0l-.17.07a16.25,16.25,0,0,1-5.57.89H420a7.31,7.31,0,0,0,1.22,1.06c1.7,1.11,3.82,1.33,5.82,1.69a36.9,36.9,0,0,1,4.15,1A22.1,22.1,0,0,1,426.18,165.58Z"/><path class="cls-2" d="M432.44,156.46l-23.7-51.92c-1.7-3.73-3.47-7.63-5.38-11.5l-1.31.77c-.75.45-2.23,1.11-3.65,1.75-1,.45-2,.9-2.71,1.26,1.8,4,4.72,10.62,7.65,17.21,3.21,7.23,6.42,14.46,8.14,18.31l3,6.72q3.06,6.84,6.12,13.69a63,63,0,0,0,5.92,10.94c1.49-.87,4.31-2.51,7.24-4.24C433.33,158.43,432.88,157.44,432.44,156.46Z"/><path class="cls-2" d="M401.31,92.56l1.4-.82a97.07,97.07,0,0,0-10.62-17.22c.13,4.68,0,7.48-.1,9.36-.2,4-.21,4.21,3.1,11.61.73-.36,1.7-.8,2.71-1.26C399.19,93.61,400.62,93,401.31,92.56Z"/><path class="cls-2" d="M444.35,157.54a13.24,13.24,0,0,0-.21-3,.69.69,0,0,1-.31.55c-1.52,1-4.84,3-8.2,5a37.74,37.74,0,0,1,3.44,13.18.79.79,0,0,1-.15.46l.94.55C439.36,168.45,444,163.34,444.35,157.54Z"/><path class="cls-2" d="M420.39,165.1a14.65,14.65,0,0,0,4.87-.74,64.31,64.31,0,0,1-6-11q-3-6.85-6.12-13.69l-3-6.72c-1.72-3.85-4.93-11.08-8.14-18.3-2.93-6.6-5.85-13.18-7.65-17.21a4.79,4.79,0,0,1-1.22.16,13.75,13.75,0,0,1-4.73-1.15c1.33,6.41,6.81,12.94,9.28,18.83l19.43,46.32a22.82,22.82,0,0,0,1.85,3.7.71.71,0,0,1,.41-.16Z"/><path class="cls-2" d="M427.43,164.86a19.12,19.12,0,0,0,10.06,6.81,38.92,38.92,0,0,0-3.13-10.87C431.58,162.44,428.93,164,427.43,164.86Z"/><path class="cls-2" d="M393.76,96.07c-3.35-7.48-3.44-7.89-3.22-12.26.08-1.57.19-3.79.14-7.23-1.48,4.92-1.82,9.24-2.52,16a10.89,10.89,0,0,0,0,2.21C390.06,95.55,392.32,96.34,393.76,96.07Z"/><path class="cls-2" d="M411.21,86.74A20.36,20.36,0,0,0,409.12,84c-4-4.34-10-6.21-15-9.33A102.58,102.58,0,0,1,404,91Z"/><path class="cls-1" d="M435.63,160.05c3.36-2,6.68-4,8.2-5a.69.69,0,0,0,.31-.55.62.62,0,0,0-.09-.42.06.06,0,0,0,0,0,.74.74,0,0,0-1-.21c-1.46,1-4.69,2.9-8,4.85-.42-1-.86-1.91-1.28-2.84l-23.7-51.92c-1.71-3.77-3.51-7.72-5.44-11.64L412,88l.24-.14a.73.73,0,0,0-.74-1.25l-.27.16L404,91a102.58,102.58,0,0,0-9.89-16.3c-.64-.83-1.29-1.65-2-2.43a.72.72,0,0,0-1.19.8.74.74,0,0,0-.32.61c0,1.07.06,2,.07,2.9.05,3.44-.06,5.66-.14,7.23-.22,4.37-.13,4.78,3.22,12.26-1.44.27-3.7-.52-5.59-1.31l-.78-.33a.73.73,0,0,0-.59,1.33c.53.23,1.07.46,1.61.67a13.75,13.75,0,0,0,4.73,1.15,4.79,4.79,0,0,0,1.22-.16c1.8,4,4.72,10.61,7.65,17.21,3.21,7.22,6.42,14.45,8.14,18.3l3,6.72q3.06,6.84,6.12,13.69a64.31,64.31,0,0,0,6,11,14.65,14.65,0,0,1-4.87.74l-1,0a.76.76,0,0,0-.7.75.72.72,0,0,0,.72.71h0l.55,0h.46a16.25,16.25,0,0,0,5.57-.89l.17-.07h0a22.1,22.1,0,0,0,5,4.74,21.69,21.69,0,0,0,6.32,2.87l.13,0v.08a.74.74,0,0,0,.73.7h0a.73.73,0,0,0,.55-.3.79.79,0,0,0,.15-.46A37.74,37.74,0,0,0,435.63,160.05ZM392,83.88c.1-1.88.23-4.68.1-9.36a97.07,97.07,0,0,1,10.62,17.22l-1.4.82c-.69.4-2.12,1-3.51,1.67-1,.46-2,.9-2.71,1.26C391.78,88.09,391.79,87.88,392,83.88Zm28.63,68.87q-3-6.85-6.12-13.69l-3-6.72c-1.72-3.85-4.93-11.08-8.14-18.31-2.93-6.59-5.85-13.18-7.65-17.21.71-.36,1.72-.81,2.71-1.26,1.42-.64,2.9-1.3,3.65-1.75l1.31-.77c1.91,3.87,3.68,7.77,5.38,11.5l23.7,51.92c.44,1,.89,2,1.34,3-2.93,1.73-5.75,3.37-7.24,4.24A63,63,0,0,1,420.62,152.75Zm6.81,12.11c1.5-.87,4.15-2.42,6.93-4.06a38.92,38.92,0,0,1,3.13,10.87A19.12,19.12,0,0,1,427.43,164.86Z"/><path class="cls-2" d="M379.82,125.68a3.21,3.21,0,0,1,.85-.14l-1.42-19.15-.28-.53-.08-.17c-.13-.24-.26-.49-.41-.72a1,1,0,0,0-.82-.51h0a1,1,0,0,0-.8.5c-.6.89-1.18,1.78-1.77,2.67q-1.39,2.12-2.8,4.21l0,0a57.63,57.63,0,0,1,7.17,14A2.71,2.71,0,0,1,379.82,125.68Z"/><path class="cls-2" d="M380.37,135.18a53.83,53.83,0,0,0-1.69-6.93l-.05.06L374,133.14l.4.44,1,1.13,2.44,2.66q1.81,2,3.61,3.94c-.28-1.3-.49-2.62-.69-3.9C380.62,136.66,380.5,135.92,380.37,135.18Z"/><path class="cls-2" d="M378.18,126.71a56.33,56.33,0,0,0-6.37-12.9.76.76,0,0,0,0,.15,14.31,14.31,0,0,1,.09,1.63h0c0,.79,0,1.59,0,2.38v1l0,.35h0l0,1.09c0,1.07.06,2.13.11,3.2s.13,2.13.2,3.2c.09,1.26.17,2.52.23,3.79A2.67,2.67,0,0,0,373,132l4.59-4.75Z"/><path class="cls-2" d="M382.72,125.78l7.72,1.75a7.56,7.56,0,0,0-.38-.78L381,109.58l1.19,16.08Z"/><path class="cls-2" d="M380.26,127.07a1.84,1.84,0,0,0-.38.17,56.91,56.91,0,0,1,1.93,7.69c.13.75.25,1.5.36,2.26a47.66,47.66,0,0,0,1,5.12,1.91,1.91,0,0,0,.88-1l.2-.38c1.88-3.68,3.82-7.48,5.7-11.24l.23-.44.13-.26-7.9-1.79A4.49,4.49,0,0,0,380.26,127.07Z"/><path class="cls-1" d="M391.26,127.71l-.82-.18-7.72-1.75-.58-.12L381,109.58l-.27-3.58a.69.69,0,0,0-.77-.67.72.72,0,0,0-.68.78l0,.28,1.42,19.15a3.21,3.21,0,0,0-.85.14,2.71,2.71,0,0,0-.39.17,57.63,57.63,0,0,0-7.17-14l-.41-.61a.73.73,0,0,0-1.18.85c.4.55.76,1.12,1.14,1.68a56.33,56.33,0,0,1,6.37,12.9l-.6.58L373,132l-1,1a.74.74,0,0,0,0,1,.78.78,0,0,0,.51.2.7.7,0,0,0,.52-.22l.91-.93,4.68-4.83.05-.06a53.83,53.83,0,0,1,1.69,6.93c.13.74.25,1.48.36,2.23.2,1.28.41,2.6.69,3.9a24.37,24.37,0,0,0,.79,2.9.74.74,0,0,0,.69.49,1,1,0,0,0,.24,0,.74.74,0,0,0,.45-.93c-.17-.47-.3-.94-.43-1.42a47.66,47.66,0,0,1-1-5.12c-.11-.76-.23-1.51-.36-2.26a56.91,56.91,0,0,0-1.93-7.69,1.84,1.84,0,0,1,.38-.17,4.49,4.49,0,0,1,2.14.13l7.9,1.79.64.14a.71.71,0,0,0,.87-.55A.72.72,0,0,0,391.26,127.71Z"/><path class="cls-2" d="M444.06,122.35l0,.08.25.8C444.19,122.94,444.13,122.64,444.06,122.35Z"/><path class="cls-2" d="M443.38,120.38A2.09,2.09,0,0,0,443,119Z"/><path class="cls-2" d="M443.38,120.38c0,.42,0,.85,0,1.29l.27-.55Z"/><path class="cls-2" d="M445.8,118.58a4.18,4.18,0,0,1,1.77-.12l6.35.54a11.62,11.62,0,0,0-2.47-3L444.37,109a2.13,2.13,0,0,0-1.1-.7,1.46,1.46,0,0,0-1.45,1.08,4.11,4.11,0,0,0,0,1.94c.52,3.2,1.16,6.39,1.89,9.56v0A4.12,4.12,0,0,1,445.8,118.58Z"/><path class="cls-2" d="M446.12,119.47l-.11.07.06.08c.61,1.19,1.34,2.34,2,3.47l4.67,7.49a.47.47,0,0,1-.15.65.49.49,0,0,1-.25.08.48.48,0,0,1-.41-.23l-4.67-7.49c-.69-1.11-1.41-2.26-2-3.45a6.58,6.58,0,0,0-.7,1.17l-.52,1c.07.29.13.59.21.88l-.25-.8-.45.89a8.66,8.66,0,0,0,2.87,3.38l4.72,3.84a3.7,3.7,0,0,0,2.38,1.11l.81-8.06a10.17,10.17,0,0,0-.07-3.61l-6.79-.57A3.47,3.47,0,0,0,446.12,119.47Z"/><path class="cls-1" d="M456.46,119.21l-2.54-.21-6.35-.54a4.18,4.18,0,0,0-1.77.12,4.12,4.12,0,0,0-2.07,2.3v0l-.11.21-.27.55-1.2,2.37a.47.47,0,0,0,.21.63.42.42,0,0,0,.21.06.47.47,0,0,0,.43-.27l.58-1.14.45-.89,0-.08.52-1a6.58,6.58,0,0,1,.7-1.17c.61,1.19,1.33,2.34,2,3.45l4.67,7.49a.48.48,0,0,0,.41.23.49.49,0,0,0,.25-.08.47.47,0,0,0,.15-.65l-4.67-7.49c-.7-1.13-1.43-2.28-2-3.47l-.06-.08.11-.07a3.47,3.47,0,0,1,1.37-.06l6.79.57,2.1.17a.47.47,0,0,0,.08-.94Z"/><path class="cls-2" d="M296.56,70.91c0,.06,0,.12,0,.18.89,7.68,18.11,6.12,23.4,5.91,6.59-.27,14.14-1.2,18.18-6.17A27.89,27.89,0,0,0,296.56,70.91Zm23.21.43a4.91,4.91,0,0,1-4.66.56,3.42,3.42,0,0,1-1.41-1c-1.37-1.68-1.37-6.8.93-7.72s6.1,1.61,6.69,3.77A4.23,4.23,0,0,1,319.77,71.34Z"/><path class="cls-1" d="M293.77,69.83c-1.16,1.37.82,3.36,2,2,.27-.31.54-.6.81-.9a27.89,27.89,0,0,1,41.59-.08c.41.45.83.92,1.23,1.41,1.14,1.4,3.11-.6,2-2A30.72,30.72,0,0,0,293.77,69.83Z"/><path class="cls-1" d="M298.33,75.54a1.4,1.4,0,0,0,0,2.8A1.4,1.4,0,0,0,298.33,75.54Z"/><path class="cls-1" d="M308.36,78.67a1.4,1.4,0,0,0,0,2.8A1.4,1.4,0,0,0,308.36,78.67Z"/><path class="cls-1" d="M321.51,79.29a1.41,1.41,0,0,0,0,2.81A1.41,1.41,0,0,0,321.51,79.29Z"/><path class="cls-1" d="M335.29,75.54a1.4,1.4,0,0,0,0,2.8A1.4,1.4,0,0,0,335.29,75.54Z"/><path class="cls-1" d="M283.65,53.41c-1.2-1.34-3.18.64-2,2q4.15,4.63,8.3,9.26c1.2,1.35,3.18-.64,2-2Z"/><path class="cls-1" d="M301.74,57.5c.73,1.65,3.15.22,2.42-1.42l-4.08-9.25c-.72-1.65-3.14-.22-2.42,1.42Z"/><path class="cls-1" d="M319.75,54.39l.78-7.5c.19-1.79-2.61-1.78-2.8,0l-.79,7.5C316.76,56.18,319.56,56.17,319.75,54.39Z"/><path class="cls-1" d="M332.07,58.82l5.62-7.53c1.08-1.44-1.35-2.84-2.42-1.41l-5.62,7.53C328.57,58.86,331,60.26,332.07,58.82Z"/><path class="cls-1" d="M350.21,60.66l-7.46,5.08c-1.49,1-.09,3.44,1.41,2.42l7.47-5.08C353.11,62.07,351.71,59.64,350.21,60.66Z"/><path class="cls-1" d="M314.63,63.22c-2.3.92-2.3,6-.93,7.72a3.42,3.42,0,0,0,1.41,1,4.91,4.91,0,0,0,4.66-.56A4.23,4.23,0,0,0,321.32,67C320.73,64.83,316.92,62.31,314.63,63.22Z"/><path class="cls-1" d="M442.25,63.81c5.49-.56,9.65,1.57,13,5.65,1.56-2.68,3.88-2.85,6.59-2.2.55-4.61,2.11-8.59,6.51-10.68a13.37,13.37,0,0,1,12.45.07c2.29-3.46,4.49-6.86,6.79-10.19a7,7,0,0,1,2.12-1.9A2.73,2.73,0,0,1,494,46.27a29.23,29.23,0,0,1,.55,3.13l-.83.26a12.57,12.57,0,0,1-.9-1.7c-.88-2.38-2.28-2.75-3.74-.76-2.24,3-4.31,6.22-6.37,9.39a1.59,1.59,0,0,0,.32,1.52c5.73,4.51,5.37,13.3,1.34,18.46-2.58,3.31-6.19,4.46-10.3,4-6.13-.64-9.68-4.39-11.72-9.88a3.13,3.13,0,0,0-3.87-2.12c-1.63.48-2.29,1.84-1.85,3.75,1.15,5,.92,9.78-2.41,13.89-4.23,5.21-12.38,5.21-17.33.18-5.66-5.73-6.07-13.67-.95-19,3.91-4.12,7.88-8.18,11.83-12.26,1-1,2.09-2,3.57-1.37,1.65.67,2.33,2.24,2.73,3.88.06.27-.3.64-.47,1a3,3,0,0,1-.91-.52c-.38-.49-.6-1.09-.95-1.6A1.68,1.68,0,0,0,449,56.2c-2.14,2.09-4.15,4.31-6.19,6.49A5.07,5.07,0,0,0,442.25,63.81Zm42.84,3a10.55,10.55,0,0,0-21,1.92c.3,4.9,6.07,9.92,11.13,9.47C481.51,77.69,485,74.36,485.09,66.86Zm-30.47,9.72c-.29-5.19-2.9-8.38-7.76-10a9.42,9.42,0,0,0-10.13,3.49c-2.78,3.6-3.09,9.34,1.09,14.33a9.42,9.42,0,0,0,13.93.86C454.44,82.77,454.63,79.41,454.62,76.58Z"/><path class="cls-2" d="M67.11,264.23a.82.82,0,0,1-.32.52l-.91,1.1-5.37,4.08Q53.78,275,52.29,275a.69.69,0,0,1-.52-.19L43,267.08a14.75,14.75,0,0,1-1.49-4.4,2.5,2.5,0,0,1,1.42-2.2l5.83-1.55.06.45a6.65,6.65,0,0,1-1.55,1.17c-.18.08-.31.43-.39,1q.45,1.43,4.08,4.66a7.1,7.1,0,0,0,4.72,2.07,3.59,3.59,0,0,0,2.65-.9l-.32.06q.39-.39.84-.78l.13-.19a4.46,4.46,0,0,0,.91-2.27.8.8,0,0,1,.19-.45c.09-2.46.22-5.56.39-9.32a14.42,14.42,0,0,1-5,.84,21,21,0,0,1-7.89-1.74c-3.46-1.43-5.16-3.2-5.12-5.31,0-1.25,0-2.57-.06-3.95l-.13-2.85a1.59,1.59,0,0,1,.52-1.16l.64-.13-.06-.45q3.36-2.85,6.41-5.31,6.27-5.11,8.28-5.11c.22,0,.34,0,.39.13l7.31,9q.91,1.88,1.43,18.77Q67.24,259.64,67.11,264.23ZM60.7,248.31c-.13-2.5-.25-4.18-.38-5a10.73,10.73,0,0,0-1.42-4.53Q56,234.8,55,235.11a23.68,23.68,0,0,1-2.83,3.3l-3.8,4h.39a1,1,0,0,0-.39.89q0,5.91,7.12,5.91A16.38,16.38,0,0,0,60.7,248.31Z"/><path class="cls-2" d="M71,229.35l1.76-.09.44-.58-.26-5.17-2.51,1,0,.89a1.25,1.25,0,0,0,0,.35,2.09,2.09,0,0,0,.91,1.59,16,16,0,0,1-1.62-.34,4.51,4.51,0,0,1-1.65-.71v-1.57l2.47-1.23,2.8-1.11,2,2.38.11,4.15L74.14,230l1.2,1.28v5.6l-2.42,1.29h-.09L69.7,238l-1.63-2.11c.26-1,1.13-1.59,2.62-1.83a3.84,3.84,0,0,0-.75,1.16.83.83,0,0,0,.2.51l.64,1.18,2-.14.44-.57L73,230.48H70.69Z"/><path class="cls-2" d="M82.12,258.92a1.28,1.28,0,0,0,.6-1,24.41,24.41,0,0,0,.24-3.06c-1.64,0-3.47,0-5.51.11l2-3.6-1.29.53,2.06-4.55-1,.58,3-5.53-.6,3.3,1-1-1.18,4.13.78-.93.8-.82L81.49,253H83c0-.9-.06-1.87-.13-2.91h2c0,.81,0,1.76,0,2.84A4.21,4.21,0,0,0,87,251.79L86.94,255c-.61,0-1.31-.1-2.11-.13,0,1.13-.12,2.08-.23,2.83a1.09,1.09,0,0,0,.58,1.21Z"/><path class="cls-1" d="M72.9,245.38a42.45,42.45,0,0,0,4.93-5.29,41.76,41.76,0,0,0,4.07-6,47.34,47.34,0,0,0-9,11.25Z"/><path class="cls-2" d="M177.51,106.15c-.15,1.23-.3,2.44-.47,3.88l1.25-.68c.22-.14.43-.32.66-.45,1-.53,2.47-.5,2.62.1.27,1-.7,1.36-1.32,1.72-.85.47-1.84.69-2.73,1.09a1.59,1.59,0,0,0-.7.79c-.36.88,0,2-.81,2.76-.28.27-.08.93.63.84a1.91,1.91,0,0,0,1.82-1.46,1.66,1.66,0,0,1,1-1c.36-.09.85.26,1.28.42-.18.42-.23,1-.54,1.22-1.26.7-2.58,1.26-4,1.94l-.38,2.74a10.75,10.75,0,0,1,2.11-.65,3.75,3.75,0,0,1,1.36.45c-.29.35-.53.82-.9,1a5.1,5.1,0,0,1-1.65.44c-.93.13-1.44.56-1.43,1.56a9.09,9.09,0,0,1-.23,1.49,13.9,13.9,0,0,1,1.41-.24,9.14,9.14,0,0,1,1.15.06c-.2,1.37-1.17,1.41-2,1.49-.65.06-.91.28-1,.94-.15.9-.47,1.76-.68,2.64a3.5,3.5,0,0,0,0,.79l-.64-.33.89-4.24a10.37,10.37,0,0,1-1.87-1.29c-.33-.33-.32-1-.47-1.48a7.51,7.51,0,0,1,1.45.37,6.5,6.5,0,0,1,1.12.92,12.61,12.61,0,0,0,.38-2.06c0-.28-.34-.66-.62-.86-.75-.5-1.58-.89-2.32-1.41a.94.94,0,0,1-.18-1.55c.58-.7,1.09-.37,1.55,0a22,22,0,0,1,1.58,1.62,2.42,2.42,0,0,0-.31-3.46c-1-.94-1.85-2-2.76-3a.86.86,0,0,1,.22-1.44,1.74,1.74,0,0,1,1.39.39c.06,1.49,1.65,1.53,2.27,2.85.2-1.44.38-2.55.5-3.65.06-.56-.19-.8-.83-.73-1.56.19-3.57-1.88-3.33-3.41a.83.83,0,0,1,1.39-.57,9.5,9.5,0,0,1,1.73,1.74,15.51,15.51,0,0,1,1.11,1.6l.19-1.1c.13-.82.56-1.76.3-2.43s-1.29-.83-1.86-1.35a23.66,23.66,0,0,1-2.5-2.7c-.18-.22,0-.76,0-1.15.39.06.88,0,1.13.19,1.15,1,2.22,2,3.5,3.2.19-1.23.39-2.34.48-3.46,0-.2-.41-.48-.68-.66a7.08,7.08,0,0,1-3-3.45c-.23-.63-.36-1.3.39-1.7s1.24,0,1.63.58c.6.9,1.18,1.82,1.91,2.94.19-1.23.34-2.22.48-3.09a26.25,26.25,0,0,1-2.92-3.09,5.63,5.63,0,0,1-.52-2.54.91.91,0,0,1,.58-.67,1.18,1.18,0,0,1,.95.38c.58.93,1.06,1.92,1.56,2.89.14.28.23.58.35.87l.4-.06c0-.87,0-1.74,0-2.61-.09-1.47-.29-2.94-.32-4.4a3,3,0,0,1,.54-1.7,1.86,1.86,0,0,1,1.32-.66c.26,0,.64.56.8.94.73,1.76,0,3.33-.75,4.89-.59,1.22-1.26,2.43-.89,4,.68-.48,1.3-.94,1.94-1.36a4,4,0,0,1,1.31-.66,5.67,5.67,0,0,1,1.51.16c-.18.57-.18,1.44-.57,1.67a18.93,18.93,0,0,1-3.81,1.72c-.66.22-1,.47-1,1.14s-.2,1.62-.3,2.38c1.28-.61,2.43-1.2,3.63-1.7.53-.23,1.26-.27,1.36.5a1.49,1.49,0,0,1-.71,1.17c-1.24.66-2.56,1.15-3.82,1.77a1.61,1.61,0,0,0-.79.86,18.93,18.93,0,0,0-.26,2.49c.71-.52,1.25-.88,1.76-1.29a2.22,2.22,0,0,1,2.76,0,1,1,0,0,1-.11,1.93,32.88,32.88,0,0,1-3.81,1C178.13,106.08,177.87,106.1,177.51,106.15Z"/><path class="cls-2" d="M140.29,166.06l3.28-2.12-1.32-.52c-.25-.09-.52-.13-.77-.23-1-.42-2-1.57-1.6-2.07.62-.87,1.5-.34,2.17-.08.91.34,1.7,1,2.59,1.39a1.57,1.57,0,0,0,1.05,0c.91-.29,1.48-1.27,2.64-1.15.38.05.77-.53.24-1a1.92,1.92,0,0,0-2.29-.47,1.66,1.66,0,0,1-1.39-.15c-.31-.23-.34-.83-.5-1.26.44-.13,1-.49,1.29-.36,1.34.51,2.62,1.18,4.06,1.85l2.36-1.45a11.19,11.19,0,0,1-1.85-1.21,3.76,3.76,0,0,1-.53-1.34,4.07,4.07,0,0,1,1.36.05,5.28,5.28,0,0,1,1.39,1,1.4,1.4,0,0,0,2.11.1,9.67,9.67,0,0,1,1.29-.78,14.12,14.12,0,0,1-1.08-.92,8.63,8.63,0,0,1-.69-.93c1.18-.72,1.83,0,2.43.6a.94.94,0,0,0,1.37.17c.78-.46,1.65-.77,2.46-1.17a2.63,2.63,0,0,0,.59-.52l.16.7-3.83,2a10.78,10.78,0,0,1,.21,2.27c-.05.46-.55.87-.85,1.3a8.23,8.23,0,0,1-.63-1.35,6.28,6.28,0,0,1,0-1.45,11.93,11.93,0,0,0-1.83,1,1.37,1.37,0,0,0-.26,1c.09.89.32,1.78.4,2.68.05.69-.25,1.12-1.08,1.13s-1-.61-1-1.21a19.15,19.15,0,0,1,.24-2.24,2.43,2.43,0,0,0-2.47,2.45c-.1,1.35-.34,2.69-.54,4a.86.86,0,0,1-1.24.76c-.35-.18-.72-1.21-.59-1.32,1.11-1,.12-2.25.73-3.57-1.23.77-2.19,1.33-3.12,1.95-.47.31-.5.66,0,1.11,1.14,1.07.82,3.95-.51,4.73-.74.44-1.25-.06-1.32-.7a9.66,9.66,0,0,1,.23-2.44,17.3,17.3,0,0,1,.52-1.88l-1,.56c-.72.42-1.71.69-2.07,1.32s.2,1.52.16,2.3a24.85,24.85,0,0,1-.48,3.64c-.05.29-.6.47-.92.7-.2-.33-.58-.66-.58-1,0-1.5.13-3,.22-4.74-1.05.64-2,1.2-3,1.84-.17.12-.11.63-.07,1a7.18,7.18,0,0,1-.74,4.51c-.34.57-.77,1.1-1.56.78s-.79-.95-.59-1.62c.3-1,.64-2.08,1-3.35L132,172.05a26.6,26.6,0,0,1-.52,4.22,5.57,5.57,0,0,1-1.62,2,.89.89,0,0,1-.88,0,1.15,1.15,0,0,1-.32-1c.34-1,.79-2,1.22-3.05.12-.28.3-.55.45-.82l-.3-.27c-.66.56-1.36,1.1-2,1.69-1.08,1-2.07,2.1-3.18,3.06a3.08,3.08,0,0,1-1.65.67,1.89,1.89,0,0,1-1.35-.59c-.18-.2,0-.85.21-1.21.89-1.7,2.56-2.14,4.24-2.56,1.31-.33,2.67-.58,3.65-1.88-.8-.22-1.54-.4-2.27-.63a4,4,0,0,1-1.35-.58,5.33,5.33,0,0,1-.84-1.26c.55-.24,1.22-.78,1.64-.64a19.34,19.34,0,0,1,3.77,1.84,1.16,1.16,0,0,0,1.51,0c.66-.48,1.37-.89,2-1.3-1.28-.59-2.48-1.1-3.63-1.7-.51-.27-1-.8-.48-1.37a1.48,1.48,0,0,1,1.35-.2c1.3.53,2.52,1.23,3.8,1.8a1.54,1.54,0,0,0,1.17.06A19,19,0,0,0,138.7,167c-.85-.22-1.48-.4-2.12-.53a2.23,2.23,0,0,1-1.73-2.15c-.16-1,.65-1.65,1.55-1.15a29.78,29.78,0,0,1,3.22,2.28A7.66,7.66,0,0,1,140.29,166.06Z"/><path class="cls-2" d="M451.89,230.78c-.61-.22-1.33-.43-1.29-1.44-.05.26-.11.53-.15.8.48.51,1,1.1,1.72,1.82,0-.38,0-.73,0-1.07A1.17,1.17,0,0,0,451.89,230.78Z"/><path class="cls-2" d="M450.62,229.24a6,6,0,0,1,.9.16c.19.06.38.15.59.24,0-.16,0-.33,0-.49,0-.5.14-.92.61-1.07a1.16,1.16,0,0,0-.86-.92,5.46,5.46,0,0,1-.87-.44v0A12.17,12.17,0,0,1,450.62,229.24Z"/><path class="cls-2" d="M466.56,247.93a8.38,8.38,0,0,0,.65-1.71c.07-.36-.23-.79-.36-1.19a5.6,5.6,0,0,0-.79.91,5,5,0,0,0-.32,1.11,9,9,0,0,1-1.2-1.19,1.1,1.1,0,0,1,0-.85c.26-.68.64-1.31.89-2a.75.75,0,0,0-.58-1.11c-.7-.21-.9.25-1,.71a17.6,17.6,0,0,0-.31,1.79,1.94,1.94,0,0,1-1.37-2.43c.22-1.07.32-2.16.47-3.24a.7.7,0,0,0-.8-.86c-.31.06-.82.78-.74.89.63,1-.4,1.77-.22,2.92-.79-.86-1.41-1.51-2-2.19-.29-.35-.24-.62.23-.86a2.83,2.83,0,0,0,.65-3.78.67.67,0,0,0-1.18.26,7.74,7.74,0,0,0-.36,1.94c-.05.46,0,.94,0,1.56l-.62-.64c-.46-.49-1.17-.92-1.31-1.48s.49-1.13.63-1.74a19.22,19.22,0,0,0,.43-2.92c0-.24-.36-.5-.56-.74-.23.21-.59.38-.66.63-.32,1.16-.56,2.35-.87,3.72-.68-.73-1.32-1.38-1.89-2.08-.1-.13.05-.51.15-.75a7.34,7.34,0,0,0,.53-2.07,2.89,2.89,0,0,0,.69-.32c.32-.2.44-.7.64-1.07a6,6,0,0,0-1.2,0l-.2.07c0-.09,0-.18,0-.28-.11-.42-.29-.82-.72-.92v0c0-.23.4-.46.65-.55.68-.26,1.41-.4,2.08-.67a.76.76,0,0,0,.44-1.18c-.32-.66-.79-.49-1.22-.28a18,18,0,0,0-1.54,1,2,2,0,0,1,.9-2.65c.94-.55,1.82-1.2,2.72-1.82a.69.69,0,0,0,.1-1.16,1.38,1.38,0,0,0-1.16,0c-.33,1.15-1.58.88-2.31,1.79.11-1.16.18-2.06.3-2.94.06-.45.3-.59.79-.41a2.82,2.82,0,0,0,3.24-2,.66.66,0,0,0-1-.71,8,8,0,0,0-1.69,1c-.38.28-.71.63-1.17,1,0-.42,0-.65.06-.89.05-.67-.1-1.48.23-2s1.16-.4,1.71-.7a20.15,20.15,0,0,0,2.46-1.63c.18-.15.12-.6.18-.92-.31,0-.69-.18-.92-.06-1.08.54-2.12,1.15-3.34,1.83.09-1,.14-1.89.28-2.79,0-.16.41-.3.66-.38a5.85,5.85,0,0,0,3-2.13c.29-.45.52-1,0-1.41s-1-.23-1.38.15c-.64.59-1.27,1.2-2.05,1.93.08-1,.15-1.79.21-2.5a20.57,20.57,0,0,0,2.87-1.87,4.43,4.43,0,0,0,.88-1.88.69.69,0,0,0-.33-.63.91.91,0,0,0-.81.11c-.63.62-1.19,1.3-1.77,2a6.67,6.67,0,0,0-.43.61l-.3-.12c.17-.68.31-1.37.51-2,.35-1.13.78-2.24,1.08-3.38a2.42,2.42,0,0,0-.1-1.43,1.48,1.48,0,0,0-.9-.76c-.21-.06-.61.31-.8.58-.91,1.24-.63,2.61-.35,4a4.62,4.62,0,0,1-.06,3.31c-.44-.5-.84-1-1.26-1.42a3.07,3.07,0,0,0-.89-.77,4.79,4.79,0,0,0-1.22-.16c0,.49-.13,1.16.13,1.41a14.83,14.83,0,0,0,2.66,2.07c.47.3.65.55.56,1.08s-.15,1.3-.22,1.92c-.88-.72-1.67-1.4-2.51-2-.37-.28-.94-.45-1.16.14a1.22,1.22,0,0,0,.33,1.05c.85.74,1.79,1.38,2.65,2.1a1.25,1.25,0,0,1,.46.82,16.69,16.69,0,0,1-.26,2c-.46-.54-.82-.93-1.14-1.35a1.79,1.79,0,0,0-2.16-.49.82.82,0,0,0-.28,1.53,23.45,23.45,0,0,0,2.79,1.52c.18.1.39.16.65.27-.11,1-.22,2-.36,3.12l-.84-.77c-.16-.15-.28-.33-.44-.47-.68-.6-1.83-.86-2.07-.42-.4.75.29,1.2.71,1.59s1.31.89,1.93,1.37a1.41,1.41,0,0,1,.4.75c.11.76-.4,1.52.11,2.32.16.25-.12.74-.66.53a1.55,1.55,0,0,1-1.15-1.49,1.35,1.35,0,0,0-.6-.95c-.27-.14-.72.05-1.08.09.05.36,0,.86.19,1.05.84.79,1.78,1.48,2.78,2.28-.06.59-.13,1.33-.22,2.22a8.71,8.71,0,0,0-1.53-.91,1.38,1.38,0,0,0-.75,0l-.36-.64a.7.7,0,0,0-.69-.18.94.94,0,0,0-.46.68c0,.88.17,1.75.28,2.63a6.41,6.41,0,0,0,.17.73l-.29.14c-.4-.58-.82-1.14-1.18-1.74-.6-1-1.14-2.08-1.78-3.07a2.51,2.51,0,0,0-1.13-.88,1.53,1.53,0,0,0-1.18.16c-.18.12-.17.66-.1,1,.32,1.5,1.52,2.21,2.72,2.9a4.62,4.62,0,0,1,2.41,2.27c-.67,0-1.28,0-1.9,0a3,3,0,0,0-1.16.15,4.64,4.64,0,0,0-.94.79c.38.3.78.88,1.14.85a15,15,0,0,0,3.31-.59.93.93,0,0,1,1.18.31c.41.51.87,1,1.28,1.44-1.12.18-2.16.31-3.18.52-.46.09-1,.39-.68,1a1.23,1.23,0,0,0,1,.46c1.12-.13,2.22-.4,3.33-.56h.2v.14a2.4,2.4,0,0,1-.16.61l.56-.14,0-.54a.77.77,0,0,1,.3.15,15.31,15.31,0,0,1,1.31,1.53c-.71,0-1.24,0-1.76-.06a1.78,1.78,0,0,0-1.81,1.28c-.35.75.14,1.42.95,1.23a28,28,0,0,0,3-1.05c.2-.08.38-.19.64-.31l2.08,2.35c-.5.06-.82.1-1.14.12s-.43,0-.65,0c-.89.09-1.86.78-1.69,1.25.29.81,1.08.59,1.66.54.78-.07,1.53-.38,2.31-.51a1.22,1.22,0,0,1,.82.2c.64.42.87,1.31,1.79,1.47.3.05.48.58,0,.84a1.54,1.54,0,0,1-1.87-.14,1.33,1.33,0,0,0-1.11-.19c-.29.11-.45.56-.66.87.3.19.63.58.91.56,1.15-.11,2.28-.34,3.55-.54l1.5,1.64a8.68,8.68,0,0,0-1.69.53c-.31.17-.48.6-.7.92a3.23,3.23,0,0,0,1.06.26,4.16,4.16,0,0,0,1.29-.46,1.13,1.13,0,0,1,1.65.39,9,9,0,0,0,.83.88,10.41,10.41,0,0,0-1,.48,6.12,6.12,0,0,0-.74.57c.76.81,1.42.4,2,.07a.76.76,0,0,1,1.11.16c.5.53,1.1,1,1.64,1.45a2.86,2.86,0,0,1,.35.53l.27-.51Zm-14.71-20.77a1.16,1.16,0,0,1,.86.92c-.47.15-.61.57-.61,1.07,0,.16,0,.33,0,.49-.21-.09-.4-.18-.59-.24a6,6,0,0,0-.9-.16,12.17,12.17,0,0,0,.36-2.49v0A5.46,5.46,0,0,0,451.85,227.16Zm-1.4,3c0-.27.1-.54.15-.8,0,1,.68,1.22,1.29,1.44a1.17,1.17,0,0,1,.25.11c0,.34,0,.69,0,1.07C451.48,231.24,450.93,230.65,450.45,230.14Z"/><path class="cls-1" d="M532.16,216.78c-5.57-.91-11-.42-16.19,3.18a36.24,36.24,0,0,0-9.09,8.27l.09.89c2.75.2,5.49.76,8.24.51,7.26-.65,12.42-6,17.57-11.23C533.6,217.57,533.19,217,532.16,216.78ZM519.91,224c-.4-.12-.49-1.12-.72-1.72a8.86,8.86,0,0,1,2.33-.84c.26,0,.5,1,1,2.08C521.3,223.79,520.5,224.21,519.91,224Z"/><path class="cls-1" d="M547.87,244.51a81.18,81.18,0,0,1-4.5-10.82c-3.56-10.65-4.62-21.87-7.23-32.74-2.68-11.19-8-20-14.11-29.63-2,1.25-1.4,4.24-.58,6.43q2.77,7.38,5.54,14.74c.81,2.17-.57,8.4-3.07,4.44-3.62-5.73-5.23-12.36-7.14-18.79-1.42-4.83-3-14.79-9.4-14.93,1.53,11.41,5.17,22.94,7.77,34.18-2.61-1.69-3.92-4.76-5.08-7.64l-8.7-21.7a9.08,9.08,0,0,0-2.26-3.73,3.11,3.11,0,0,0-4-.19c-1.06.68,8.3,29.91,9.36,33.34.52,1.69,1,3.62.13,5.15-1.89,3.24-7.48-11.5-8.13-13.4-2-6-3.37-12.09-5.69-18-.31-.79-.81-1.71-1.65-1.72-1.14,0-1.51,1.54-1.41,2.68a121,121,0,0,0,14.29,48c.52,1,1,2.25.28,3.08-1.63,1.88-6.57-3.41-8.1-4.18a25.56,25.56,0,0,0-10.49-2.73A42.32,42.32,0,0,0,498,233.85c3.57,2.51,7.55,4.47,10.84,7.34a100.74,100.74,0,0,1,8.14,7.34,26.71,26.71,0,0,1,3.59,4.74A105,105,0,0,1,526.45,266a2.18,2.18,0,0,0,.75,1.07,1.75,1.75,0,0,0,.93.21c3.48.06,10.71-4.11,14.11-5.67,3-1.4,10.54-4.35,10.58-8.56C552.85,251.05,548.85,246.46,547.87,244.51Zm-13.18-25.34c-1.27,1.58-2.69,3-4.05,4.51-.39.43-.77.88-1.3,1.48l3.21,1.76c-2,1.72-3.29-2.19-5.22,0l1.93,2.66-.52.62-3.19-2-.32.3,1.59,3.94c-2.25,0-2.12-3.51-4.41-2.16-.75,1.54,2.66,2.28.4,3.91-1.61-.38-.71-4.28-3.56-2.6.24,1.49.46,2.8.67,4.1l-1,.45c-.37-.8-.72-1.61-1.12-2.39-.29-.56-.66-1.08-1-1.61-.25.59-.51,1.19-.76,1.79s-.5,1.22-.78,1.88c-.39-.25-.6-.33-.59-.38.57-2.73-.75-3.33-2.91-3.48a24.62,24.62,0,0,1-5.52-1.3c-1.68-.55-2-1.89-1-3.61a5.21,5.21,0,0,1,.81-1.1c1.78-1.75,2.14-3.57.81-5.56-.17-.25-.15-.67.09-1.25a10.63,10.63,0,0,0,.95,1.14c.57.54,1.19,1,1.79,1.52,0-.88,0-1.77,0-2.65,0-.48-.12-1-.26-2.06l2.51,2.95.55-.45c-.1-1.2-.19-2.4-.35-4.32l2.56,2.84.58-.27.08-3.85.44-.19,1.66,2.55.5-.13c.13-1,.27-2,.49-3.66l1.36,2.91.48-.07.33-3.72.46-.22c.33.73.6,1.5,1,2.18a5.42,5.42,0,0,0,1,1,9.22,9.22,0,0,0,.86-1.52,26.28,26.28,0,0,0,.54-2.81c.44.57.7.75.7.94-.06,3.14,2,3.23,4.11,3.39a20.05,20.05,0,0,1,4.77.85C536,216.1,536.15,217.34,534.69,219.17Z"/><path class="cls-3" d="M534,215.47a20.05,20.05,0,0,0-4.77-.85c-2.13-.16-4.17-.25-4.11-3.39,0-.19-.26-.37-.7-.94a26.28,26.28,0,0,1-.54,2.81,9.22,9.22,0,0,1-.86,1.52,5.42,5.42,0,0,1-1-1c-.39-.68-.66-1.45-1-2.18l-.46.22-.33,3.72-.48.07-1.36-2.91c-.22,1.65-.36,2.66-.49,3.66l-.5.13-1.66-2.55-.44.19-.08,3.85-.58.27-2.56-2.84c.16,1.92.25,3.12.35,4.32l-.55.45-2.51-2.95c.14,1.1.24,1.58.26,2.06,0,.88,0,1.77,0,2.65-.6-.5-1.22-1-1.79-1.52a10.63,10.63,0,0,1-.95-1.14c-.24.58-.26,1-.09,1.25,1.33,2,1,3.81-.81,5.56a5.21,5.21,0,0,0-.81,1.1c-1,1.72-.67,3.06,1,3.61a24.62,24.62,0,0,0,5.52,1.3c2.16.15,3.48.75,2.91,3.48,0,0,.2.13.59.38.28-.66.53-1.27.78-1.88s.51-1.2.76-1.79c.33.53.7,1,1,1.61.4.78.75,1.59,1.12,2.39l1-.45c-.21-1.3-.43-2.61-.67-4.1,2.85-1.68,2,2.22,3.56,2.6,2.26-1.63-1.15-2.37-.4-3.91,2.29-1.35,2.16,2.12,4.41,2.16l-1.59-3.94.32-.3,3.19,2,.52-.62-1.93-2.66c1.93-2.15,3.2,1.76,5.22,0l-3.21-1.76c.53-.6.91-1,1.3-1.48,1.36-1.5,2.78-2.93,4.05-4.51C536.15,217.34,536,216.1,534,215.47Zm-1.25,2.93c-5.15,5.2-10.31,10.58-17.57,11.23-2.75.25-5.49-.31-8.24-.51l-.09-.89A36.24,36.24,0,0,1,516,220c5.21-3.6,10.62-4.09,16.19-3.18C533.19,217,533.6,217.57,532.78,218.4Z"/><path class="cls-3" d="M521.52,221.45a8.86,8.86,0,0,0-2.33.84c.23.6.32,1.6.72,1.72.59.2,1.39-.22,2.6-.48C522,222.47,521.78,221.43,521.52,221.45Z"/><path class="cls-2" d="M109.32,150.38a34.52,34.52,0,0,0-1.23-9.68,7.66,7.66,0,0,1-.19-2.89,2.37,2.37,0,0,1,2.55-2.13,4.78,4.78,0,0,0,3,2.35c.12,0,.22.13.33.2a1.8,1.8,0,0,0,2.47-.37,2,2,0,0,1,.58-.5,19.19,19.19,0,0,0,5.29-4.27v-.74a20.71,20.71,0,0,0-4.73-3.92,10.87,10.87,0,0,1-1.57-.94,7.09,7.09,0,0,0-1.29-1.16c-1.48-.78-1.36.7-2.44,1a5.35,5.35,0,0,0-3.07,2.13,1.15,1.15,0,0,1-.58.44,8.37,8.37,0,0,0-5.67,4.26,8.67,8.67,0,0,0-1.12,3.92,4.73,4.73,0,0,0-.12.92c.14,2.27.3,4.55.46,6.83,0,.31,0,.62,0,.93a11.48,11.48,0,0,1-2.71,8c-.34.38-.73.72-1.1,1.08-.19.13-.38.28-.58.4a6.52,6.52,0,0,1-5.47.93c-.29-.2-.57-.41-.86-.59a3,3,0,0,1-1.38-2.4,11.37,11.37,0,0,1,0-1.65,22.13,22.13,0,0,1,1.26-6.19,22.57,22.57,0,0,0,1.11-3.73,23.36,23.36,0,0,0-.17-7.91c-.1-.51-.3-1-.45-1.5a9.42,9.42,0,0,0-2.27-4.82c-.6-.63-1.22-1.25-1.83-1.87a16.53,16.53,0,0,0-3.6-2.91,13,13,0,0,0-4.7-1.91,14.22,14.22,0,0,0-7.15.68,17.15,17.15,0,0,0-9.14,6.78c-.32.49-.68,1-1,1.48a22,22,0,0,0-2.33,5.1c-.28,1.05-.63,2.09-.83,3.16a14.54,14.54,0,0,0,0,5.54,22.71,22.71,0,0,0,2.09,5.72c1.85,3.74,4.52,6.93,7.12,10.17,1.21,1.56,2.41,3.13,3.62,4.7.34.51.71,1,1,1.53a11.15,11.15,0,0,1,.82,1.88,8.8,8.8,0,0,1,0,5.11c-.64,2.22-1.38,4.42-3.23,6a7.77,7.77,0,0,1-5.71,1.65.73.73,0,0,0-.29.07h0l-.12,0a6.65,6.65,0,0,0-.75-.26A8,8,0,0,1,59,178.32a27.06,27.06,0,0,1-5.75-9.83,6.43,6.43,0,0,0-.51-1,11.06,11.06,0,0,0-2.69-4.16,4,4,0,0,0-.37-.6,20.93,20.93,0,0,0-3.3-3.15,11,11,0,0,0-8.35-2c.4.2.82.34,1.23.51A23.39,23.39,0,0,1,44,161,18.81,18.81,0,0,1,46.57,163a22.22,22.22,0,0,1,4.29,6.32c.8,1.73,1.49,3.51,2.22,5.28a13.6,13.6,0,0,0,1.76,4c.24.39.57.74.85,1.12a3.61,3.61,0,0,0,.32.62,31.33,31.33,0,0,0,2.22,2.51,13,13,0,0,0,10.32,3.58c4.39-.36,7.31-2.88,9.14-6.72a16.43,16.43,0,0,0,1.49-5.2c.09-.64.08-1.29.12-1.93a4.25,4.25,0,0,0,.12-.6,12.89,12.89,0,0,0-.67-4.55,18.21,18.21,0,0,0-3.1-6.66c-1.4-1.73-2.93-3.37-4.45-5-.92-1-2-1.9-2.87-2.89-.57-.62-1-1.35-1.54-2A21.67,21.67,0,0,1,65.58,148a36.1,36.1,0,0,1-.65-3.88,2.47,2.47,0,0,0,0-.38,15.28,15.28,0,0,1,3.42-9.12c.77-1,1.72-1.86,2.58-2.78a1.2,1.2,0,0,0,.28-.13,10.52,10.52,0,0,1,4.86-2.17c.75-.13,1.5-.22,2.25-.33a1.27,1.27,0,0,0,.37.1,5.87,5.87,0,0,1,4.7,2.6,7.63,7.63,0,0,1,1.38,3.91c.08.62.14,1.24.21,1.86a1.7,1.7,0,0,0-.15.41,20.1,20.1,0,0,1-.89,4.88c-.23.8-.39,1.61-.58,2.41a19.19,19.19,0,0,0-.71,5.39,14.66,14.66,0,0,0,.18,1.85,1.45,1.45,0,0,0-.07.45A15.11,15.11,0,0,0,84,157.14,20.26,20.26,0,0,0,85.06,159a5.64,5.64,0,0,0,.4.67,11.52,11.52,0,0,0,3.39,2.9A10.84,10.84,0,0,0,96.34,164a33.89,33.89,0,0,0,4.24-1.12,7.41,7.41,0,0,0,3.34-2.22c.26-.25.55-.48.79-.74a24.4,24.4,0,0,0,3.52-5.2A8.81,8.81,0,0,0,109.32,150.38Z"/><path class="cls-1" d="M126.65,134.22a13.71,13.71,0,0,0,2,1.23,5.92,5.92,0,0,0-1.76-1.38,8.91,8.91,0,0,0,1.52-1c-.25-.21-.6,0-.87.14-1.23.69-2.45.26-3.71-.2-.57-.2-1.12-.45-1.68-.69v.74C123.62,133.62,125,134.47,126.65,134.22Z"/><path class="cls-4" d="M64,181.19l.12,0"/><path class="cls-4" d="M64.11,181.23h0"/><path class="cls-1" d="M114.69,128.19a8.32,8.32,0,0,0-.89.11l-.06,0,0,.07a1.33,1.33,0,0,0,1.38,1.65,1.56,1.56,0,0,1-.9-.61,1.32,1.32,0,0,1-.26-1l-.08.08A7.3,7.3,0,0,0,114.69,128.19Z"/><path class="cls-1" d="M115.24,135.36a6.57,6.57,0,0,0-.89.12h-.06l0,.07a1.32,1.32,0,0,0,1.38,1.65,1.55,1.55,0,0,1-.91-.61,1.31,1.31,0,0,1-.25-1l-.08.09A8.51,8.51,0,0,0,115.24,135.36Z"/><path class="cls-1" d="M64.52,144a.82.82,0,0,0,.15-1.62l-5.91-1.08a.82.82,0,0,0-.3,1.61L64.37,144Z"/><path class="cls-1" d="M69.83,133.43a.82.82,0,0,0,.57-1.4,23.23,23.23,0,0,1-4.35-5.89,1,1,0,0,0-1.12-.64,1,1,0,0,0-.73.76.94.94,0,0,0,.52,1l.08,0a24.51,24.51,0,0,0,4.45,5.93A.81.81,0,0,0,69.83,133.43Z"/><path class="cls-1" d="M79.48,130.45h0a.83.83,0,0,0,.77-.87,28.38,28.38,0,0,1,.44-7.19.82.82,0,0,0-.66-1,.83.83,0,0,0-1,.65,30.76,30.76,0,0,0-.46,7.6A.82.82,0,0,0,79.48,130.45Z"/><path class="cls-1" d="M84.85,136.18a.75.75,0,0,0,.43-.13,10.77,10.77,0,0,1,6.16-1.61.83.83,0,0,0,.85-.77.8.8,0,0,0-.77-.86,12.27,12.27,0,0,0-7.11,1.86.82.82,0,0,0-.26,1.13A.84.84,0,0,0,84.85,136.18Z"/><path class="cls-1" d="M83.33,154.33A.82.82,0,0,0,84,154,7.22,7.22,0,0,1,90,151.46a.82.82,0,0,0,.13-1.64A9,9,0,0,0,82.69,153a.82.82,0,0,0,.64,1.34Z"/><path class="cls-1" d="M101,163.23a.79.79,0,0,0,.59-.25.82.82,0,0,0,0-1.16,7.77,7.77,0,0,1-2.38-6,.82.82,0,0,0-1.63-.11,9.4,9.4,0,0,0,2.88,7.35A.83.83,0,0,0,101,163.23Z"/><path class="cls-1" d="M109.72,146.94a.85.85,0,0,0,.74-.45.82.82,0,0,0-.37-1.1,12.87,12.87,0,0,0-8.86-1,.83.83,0,0,0-.59,1,.81.81,0,0,0,1,.59,11.27,11.27,0,0,1,7.72.83A.8.8,0,0,0,109.72,146.94Z"/><path class="cls-1" d="M67.53,159.15a.77.77,0,0,0,.55-.22,5.12,5.12,0,0,1,4.3-1.26.82.82,0,0,0,.29-1.61,6.79,6.79,0,0,0-5.7,1.67.82.82,0,0,0,0,1.16A.79.79,0,0,0,67.53,159.15Z"/><path class="cls-1" d="M40.82,160.45a.83.83,0,0,0,.82-.78,3.26,3.26,0,0,1,.7-1.87.82.82,0,0,0-1.28-1A4.89,4.89,0,0,0,40,159.59a.83.83,0,0,0,.78.86Z"/><path class="cls-1" d="M42.69,161.4a.81.81,0,0,0,.79-.6l.75-2.8a.84.84,0,0,0-.58-1,.83.83,0,0,0-1,.58l-.74,2.8a.82.82,0,0,0,.58,1A.75.75,0,0,0,42.69,161.4Z"/><path class="cls-1" d="M44.84,162.51a.81.81,0,0,0,.73-.46,7.88,7.88,0,0,1,1.55-2.11.82.82,0,0,0,0-1.16.83.83,0,0,0-1.16,0,9.31,9.31,0,0,0-1.88,2.56.82.82,0,0,0,.37,1.1A.77.77,0,0,0,44.84,162.51Z"/><path class="cls-1" d="M48.34,165.89a.77.77,0,0,0,.51-.19l1.72-1.39a.82.82,0,1,0-1-1.27l-1.71,1.39a.81.81,0,0,0-.12,1.15A.82.82,0,0,0,48.34,165.89Z"/><path class="cls-1" d="M80,174.38a.82.82,0,0,0,.5-1.47,9.86,9.86,0,0,0-8.24-1.66.82.82,0,1,0,.4,1.59,8.32,8.32,0,0,1,6.85,1.38A.82.82,0,0,0,80,174.38Z"/><path class="cls-1" d="M67.15,188.27h0a.82.82,0,0,0,.81-.82c0-2.45-.08-4.93-.19-7.37a.82.82,0,0,0-1.64.08c.12,2.42.18,4.87.19,7.3A.82.82,0,0,0,67.15,188.27Z"/><path class="cls-1" d="M54.49,176.68a.81.81,0,0,0,.39-.1,4.44,4.44,0,0,0,1.7-1.66.82.82,0,0,0-1.42-.82,2.81,2.81,0,0,1-1.07,1,.82.82,0,0,0-.32,1.11A.83.83,0,0,0,54.49,176.68Z"/><path class="cls-3" d="M536.45,87a1.47,1.47,0,0,0,.15,1.14.9.9,0,0,0,.58.43l-.06.3.12.05a4.13,4.13,0,0,0,1.65-.15,12,12,0,0,0-1.55-3A2.72,2.72,0,0,0,536.45,87Z"/><path class="cls-3" d="M540.68,123.64c-.88,5.76-1.78,11.7-1.32,17.56a38.38,38.38,0,0,0,9.72,22.53,12.94,12.94,0,0,0,5.28,3.88,14.13,14.13,0,0,0,6.9,0l1.3-.27a26.43,26.43,0,0,1-8-1.1,10.79,10.79,0,0,1-3.6-1.72,13.28,13.28,0,0,1-3.15-4.17c-3.27-5.89-6.15-12.22-6.74-19a129.81,129.81,0,0,1,.26-19.83c.11-1.54.21-3.09.3-4.64,0,.29-.06.57-.1.84C541.28,119.67,541,121.69,540.68,123.64Z"/><path class="cls-2" d="M596.33,126.36a58,58,0,0,0-10.9-9.79c-8-5.84-16.49-10.94-24.24-17.11a68.55,68.55,0,0,1-9.79-9.09,19,19,0,0,1-2.09-2.79,21.39,21.39,0,0,1-6.5,3.18c-1,.34-1.86.66-2.73,1-.14.07-.29.12-.44.18.16,3,1.32,5.42,1.72,8.4.13,1,.23,2,.31,3a51.57,51.57,0,0,1,0,13.46c-.09,1.55-.19,3.1-.3,4.64a129.81,129.81,0,0,0-.26,19.83c.59,6.79,3.47,13.12,6.74,19a13.28,13.28,0,0,0,3.15,4.17,10.79,10.79,0,0,0,3.6,1.72,26.43,26.43,0,0,0,8,1.1,75.81,75.81,0,0,0,23.9-9.29c5.07-3.05,8.52-6,10.86-9.4,3-4.28,4-9.35,2.83-13.58l.6-.17c1.25,4.4.16,9.68-2.91,14.1a29.14,29.14,0,0,1-6.59,6.59c1.1-.78,2.19-1.56,3.27-2.36,2.91-2.12,6-4.46,7.2-7.83C604.11,138.92,600.34,131.27,596.33,126.36Zm-49.2-26.51,1.13-.87a.41.41,0,0,0,.2-.26.48.48,0,0,0,0-.24l-.28-1.29c.06.28.71,1.12.92,1a7.49,7.49,0,0,0,.24-1.57,10.31,10.31,0,0,1,.15,1.58l.83-.23a2.82,2.82,0,0,1-.71.78,4.85,4.85,0,0,0,.63,1.09l-.76-.31a5.14,5.14,0,0,1-.56,1.71V99.4A4.29,4.29,0,0,1,547.13,99.85Zm4.15,39.43-.76-.3a5.08,5.08,0,0,1-.56,1.7v-1.8a4.13,4.13,0,0,1-1.77.44l1.13-.86a.43.43,0,0,0,.2-.27.49.49,0,0,0,0-.24c-.09-.43-.19-.86-.28-1.29.06.29.71,1.12.92,1a7.39,7.39,0,0,0,.24-1.57,10.44,10.44,0,0,1,.15,1.59l.83-.24a2.87,2.87,0,0,1-.71.79A4.78,4.78,0,0,0,551.28,139.28Zm6.23,23-.75-.31a5.64,5.64,0,0,1-.56,1.71v-1.81a4,4,0,0,1-1.78.45l1.14-.86a.51.51,0,0,0,.2-.27,1,1,0,0,0,0-.24l-.29-1.29c.06.29.71,1.12.93,1a8.23,8.23,0,0,0,.23-1.57,9.29,9.29,0,0,1,.15,1.58l.83-.23a2.58,2.58,0,0,1-.71.79A5,5,0,0,0,557.51,162.24Zm10.66-10.08-.14,0c-.5,1.06-1,2.1-1.56,3.12a72.52,72.52,0,0,0,2.85-9.56,22.38,22.38,0,0,1-7.67-7.47v-.3a21.09,21.09,0,0,1,5.85,2.87,8.32,8.32,0,0,1,2.19,2.53c0-.11,0-.22,0-.33a18.07,18.07,0,0,0-2.56-11.12,22.35,22.35,0,0,1-10.81-1.67l-.18-.24a21.08,21.08,0,0,1,6.43-1,8.53,8.53,0,0,1,3.1.74,50.23,50.23,0,0,0-4.74-5.21A22.48,22.48,0,0,1,550,124l-.21-.22a21.17,21.17,0,0,1,6.28-1.71,8.56,8.56,0,0,1,2.76.27c-.16-.16-.32-.32-.47-.49a27,27,0,0,1-3.93-5.2,13.85,13.85,0,0,1-1.84-6.19,14.81,14.81,0,0,0,2.52,5.77,24.61,24.61,0,0,0,2.12,2.65,17.22,17.22,0,0,1,.39-5.07,7.16,7.16,0,0,1,3.91-4.94,22.36,22.36,0,0,1-3.6,10.76c.43.45.88.89,1.33,1.33,1.83,1.75,3.8,3.44,5.61,5.33a17.16,17.16,0,0,1,.38-5.16,7.12,7.12,0,0,1,3.91-4.94A22.32,22.32,0,0,1,565.55,127a24.61,24.61,0,0,1,2.63,3.4,20.6,20.6,0,0,1,2.43,5.56,14.23,14.23,0,0,1,.39-2.76,7.14,7.14,0,0,1,3.91-4.94,22.35,22.35,0,0,1-3.77,11,17.73,17.73,0,0,1-.16,3.86,21.67,21.67,0,0,1-.53,2.57c0,.21,0,.41,0,.62l-.17-.09a35.39,35.39,0,0,1-2,5.23,18.81,18.81,0,0,1,3.86-4.24,7.17,7.17,0,0,1,6.14-1.42A22.34,22.34,0,0,1,568.17,152.16ZM595,130.32l-.75-.3a5.57,5.57,0,0,1-.56,1.7v-1.8a4.34,4.34,0,0,1-1.78.45l1.14-.87a.48.48,0,0,0,.2-.26.93.93,0,0,0,0-.24c-.1-.43-.2-.86-.29-1.29.06.28.71,1.11.93,1a8.23,8.23,0,0,0,.23-1.57,9.19,9.19,0,0,1,.15,1.58l.83-.23a2.66,2.66,0,0,1-.71.78A4.57,4.57,0,0,0,595,130.32Z"/><path class="cls-3" d="M566.68,167a39.27,39.27,0,0,0,9.22-2.53,68.52,68.52,0,0,0,12.48-6.91l-1.6,1A76.64,76.64,0,0,1,566.68,167Z"/><path class="cls-2" d="M540.18,83.29c-.92,0-1.8-.07-2.53-.15-2.14-.23-4.58-.37-6.17,1.08-.16.15,4.37.88,5.35,1.14a7.55,7.55,0,0,1,.73-.59A16.14,16.14,0,0,1,540.18,83.29Z"/><path class="cls-2" d="M537.34,85.74a12,12,0,0,1,1.55,3l.6-.17a45.12,45.12,0,0,0,6.89-2.78,5.37,5.37,0,0,0,1.43-.94,1.87,1.87,0,0,0-.64-.53,16.17,16.17,0,0,0-5.47-.93,15.3,15.3,0,0,0-3.78,1.92A6,6,0,0,0,537.34,85.74Z"/><path class="cls-1" d="M543.25,78.69a12.44,12.44,0,0,0,4.16-3.25l2.7-2.85a4.38,4.38,0,0,0,1.41-2.28c.16-1.23-.72-2.33-1.64-3.17-1.69-1.56-6.76-5.53-9.28-4-2,1.24-2.1,7.51-2.53,9.69-.32,1.61-.6,3.44.36,4.77S541.6,79.33,543.25,78.69Zm-2.6-14.77a.31.31,0,0,1,.33.3c.09,1.23,1,2.36,2.86,3.53A31.83,31.83,0,0,0,548.05,70a.31.31,0,0,1-.13.6l-.12,0a33,33,0,0,1-4.29-2.25c-1.29-.81-3-2.11-3.16-4A.33.33,0,0,1,540.65,63.92Z"/><path class="cls-3" d="M542.6,90.17A20.55,20.55,0,0,0,549,87l.1-.08a4.35,4.35,0,0,0,.85-2.63l0-.15a1.59,1.59,0,0,0-.49-1.27,1,1,0,0,0-.64-.26h-.11l0,.09a2.13,2.13,0,0,1-.31,2.31c-.09.11-.2.21-.3.31a6.17,6.17,0,0,1-1.51,1,45.29,45.29,0,0,1-7,2.82l-.58.17a4.82,4.82,0,0,1-2,.17,2.31,2.31,0,0,1-.87-.42c-.27-.17-.64-.41-.81-.35a.82.82,0,0,0-.5.77,2.59,2.59,0,0,0,1,2.09c1,.61,2.35.25,3.64-.27l.25-.1C540.73,90.83,541.68,90.49,542.6,90.17Z"/><path class="cls-1" d="M542.81,90.76a21.39,21.39,0,0,0,6.5-3.18l.2-.15c.79-.69,1-2,1.06-3l0-.15a2.21,2.21,0,0,0-.69-1.8,1.5,1.5,0,0,0-1.35-.4.62.62,0,0,0-.39.22.68.68,0,0,0,.07.77,1.52,1.52,0,0,1-.25,1.62c-.05.07-.12.12-.17.18a5.37,5.37,0,0,1-1.43.94,45.12,45.12,0,0,1-6.89,2.78l-.6.17a4.13,4.13,0,0,1-1.65.15l-.12-.05.06-.3a.9.9,0,0,1-.58-.43,1.47,1.47,0,0,1-.15-1.14,2.72,2.72,0,0,1,.89-1.21,6,6,0,0,1,.58-.45,15.71,15.71,0,0,1,9.75-2.77l0-.63a16.32,16.32,0,0,0-7.52,1.4,16.14,16.14,0,0,0-2.62,1.48,7.55,7.55,0,0,0-.73.59,3.22,3.22,0,0,0-1,1.41,2.11,2.11,0,0,0,.1,1.4,1,1,0,0,0-.72,0,1.45,1.45,0,0,0-.89,1.31,3.23,3.23,0,0,0,1.29,2.67,3,3,0,0,0,1.57.41,6.92,6.92,0,0,0,2.44-.57c.15-.06.3-.11.44-.18C541,91.42,541.85,91.1,542.81,90.76Zm-3.22.55c-1.29.52-2.61.88-3.64.27a2.59,2.59,0,0,1-1-2.09.82.82,0,0,1,.5-.77c.17-.06.54.18.81.35a2.31,2.31,0,0,0,.87.42,4.82,4.82,0,0,0,2-.17l.58-.17a45.29,45.29,0,0,0,7-2.82,6.17,6.17,0,0,0,1.51-1c.1-.1.21-.2.3-.31a2.13,2.13,0,0,0,.31-2.31l0-.09h.11a1,1,0,0,1,.64.26,1.59,1.59,0,0,1,.49,1.27l0,.15A4.35,4.35,0,0,1,549.1,87L549,87a20.55,20.55,0,0,1-6.4,3.14c-.92.32-1.87.66-2.76,1Z"/><path class="cls-3" d="M543.51,68.28a33,33,0,0,0,4.29,2.25l.12,0a.31.31,0,0,0,.13-.6,31.83,31.83,0,0,1-4.21-2.21c-1.87-1.17-2.77-2.3-2.86-3.53a.31.31,0,0,0-.33-.3.33.33,0,0,0-.3.34C540.49,66.17,542.22,67.47,543.51,68.28Z"/><path class="cls-1" d="M597.84,149c3.07-4.42,4.16-9.7,2.91-14.1l-.6.17c1.2,4.23.14,9.3-2.83,13.58C595,152,591.53,155,586.46,158a75.81,75.81,0,0,1-23.9,9.29l-1.3.27a14.13,14.13,0,0,1-6.9,0,12.94,12.94,0,0,1-5.28-3.88,38.38,38.38,0,0,1-9.72-22.53c-.46-5.86.44-11.8,1.32-17.56.29-2,.6-4,.85-6,0-.27.07-.55.1-.84a51.57,51.57,0,0,0,0-13.46,27.19,27.19,0,0,0-2.91-9.07l-.55.3c4.07,7.47,3.49,16.7,2.7,23-.25,2-.56,4-.85,6-.88,5.79-1.79,11.77-1.32,17.7a38.88,38.88,0,0,0,9.88,22.9,13.52,13.52,0,0,0,5.55,4.06,10.08,10.08,0,0,0,3.12.46,22.24,22.24,0,0,0,4.08-.47c1.79-.33,3.56-.75,5.31-1.2a76.64,76.64,0,0,0,20.1-8.44l1.6-1c1-.67,2-1.33,2.87-2A29.14,29.14,0,0,0,597.84,149Z"/><path class="cls-2" d="M517.2,83.57a20.87,20.87,0,0,0-4.27,1,4.85,4.85,0,0,0-2.79,1.72,1.47,1.47,0,0,0-.22,1.23,1.82,1.82,0,0,0,1.43,1,10.44,10.44,0,0,0,6.09-.81c1.93-.78,3.73-1.84,5.65-2.64,1.38-.57,2.93-.8,4.26-1.39C524.1,83.62,520.47,83.22,517.2,83.57Z"/><path class="cls-2" d="M522.49,73.63a3.13,3.13,0,0,0-2.1-.18,1,1,0,0,0-.59.55,1.17,1.17,0,0,0,.37,1A6.7,6.7,0,0,0,523.61,77c1.29.34,2.63.49,3.93.81.92.24,1.81.72,2.72.92a55.74,55.74,0,0,0-5.19-3.94A14.12,14.12,0,0,0,522.49,73.63Z"/><path class="cls-1" d="M551.36,137.41l-.83.24a10.44,10.44,0,0,0-.15-1.59,7.39,7.39,0,0,1-.24,1.57c-.21.15-.86-.68-.92-1,.09.43.19.86.28,1.29a.49.49,0,0,1,0,.24.43.43,0,0,1-.2.27l-1.13.86a4.13,4.13,0,0,0,1.77-.44v1.8a5.08,5.08,0,0,0,.56-1.7l.76.3a4.78,4.78,0,0,1-.63-1.08A2.87,2.87,0,0,0,551.36,137.41Z"/><path class="cls-1" d="M595.07,128.46l-.83.23a9.19,9.19,0,0,0-.15-1.58,8.23,8.23,0,0,1-.23,1.57c-.22.14-.87-.69-.93-1,.09.43.19.86.29,1.29a.93.93,0,0,1,0,.24.48.48,0,0,1-.2.26l-1.14.87a4.34,4.34,0,0,0,1.78-.45v1.8a5.57,5.57,0,0,0,.56-1.7l.75.3a4.57,4.57,0,0,1-.63-1.08A2.66,2.66,0,0,0,595.07,128.46Z"/><path class="cls-1" d="M557.59,160.37l-.83.23a9.29,9.29,0,0,0-.15-1.58,8.23,8.23,0,0,1-.23,1.57c-.22.15-.87-.68-.93-1l.29,1.29a1,1,0,0,1,0,.24.51.51,0,0,1-.2.27l-1.14.86a4,4,0,0,0,1.78-.45v1.81a5.64,5.64,0,0,0,.56-1.71l.75.31a5,5,0,0,1-.63-1.08A2.58,2.58,0,0,0,557.59,160.37Z"/><path class="cls-1" d="M548.9,101.21a5.14,5.14,0,0,0,.56-1.71l.76.31a4.85,4.85,0,0,1-.63-1.09,2.82,2.82,0,0,0,.71-.78l-.83.23a10.31,10.31,0,0,0-.15-1.58,7.49,7.49,0,0,1-.24,1.57c-.21.15-.86-.69-.92-1l.28,1.29a.48.48,0,0,1,0,.24.41.41,0,0,1-.2.26l-1.13.87a4.29,4.29,0,0,0,1.77-.45Z"/><path class="cls-1" d="M572.19,147.22a18.81,18.81,0,0,0-3.86,4.24,35.39,35.39,0,0,0,2-5.23l.17.09c0-.21,0-.41,0-.62a21.67,21.67,0,0,0,.53-2.57,17.73,17.73,0,0,0,.16-3.86,22.35,22.35,0,0,0,3.77-11,7.14,7.14,0,0,0-3.91,4.94,14.23,14.23,0,0,0-.39,2.76,20.6,20.6,0,0,0-2.43-5.56,24.61,24.61,0,0,0-2.63-3.4,22.32,22.32,0,0,0,3.64-10.82,7.12,7.12,0,0,0-3.91,4.94,17.16,17.16,0,0,0-.38,5.16c-1.81-1.89-3.78-3.58-5.61-5.33-.45-.44-.9-.88-1.33-1.33a22.36,22.36,0,0,0,3.6-10.76,7.16,7.16,0,0,0-3.91,4.94,17.22,17.22,0,0,0-.39,5.07,24.61,24.61,0,0,1-2.12-2.65,14.81,14.81,0,0,1-2.52-5.77,13.85,13.85,0,0,0,1.84,6.19,27,27,0,0,0,3.93,5.2c.15.17.31.33.47.49a8.56,8.56,0,0,0-2.76-.27,21.17,21.17,0,0,0-6.28,1.71l.21.22a22.48,22.48,0,0,0,10.93.48,50.23,50.23,0,0,1,4.74,5.21,8.53,8.53,0,0,0-3.1-.74,21.08,21.08,0,0,0-6.43,1l.18.24a22.35,22.35,0,0,0,10.81,1.67A18.07,18.07,0,0,1,569.72,143c0,.11,0,.22,0,.33a8.32,8.32,0,0,0-2.19-2.53,21.09,21.09,0,0,0-5.85-2.87v.3a22.38,22.38,0,0,0,7.67,7.47,72.52,72.52,0,0,1-2.85,9.56c.53-1,1.06-2.06,1.56-3.12l.14,0a22.34,22.34,0,0,0,10.16-6.36A7.17,7.17,0,0,0,572.19,147.22Z"/><rect id="cadre" class="cls-3" x="0.17" y="0.4" width="623.62" height="340.16"/></svg>