<?xml version="1.0" encoding="utf-8"?>
<!-- Generator: Adobe Illustrator 25.4.1, SVG Export Plug-In . SVG Version: 6.00 Build 0)  -->
<svg version="1.1" id="Calque_1" xmlns="http://www.w3.org/2000/svg" xmlns:xlink="http://www.w3.org/1999/xlink" x="0px" y="0px"
	 width="1500" height="800" viewBox="0 0 623.6 340.2" style="enable-background:new 0 0 623.6 340.2;" xml:space="preserve">
<style type="text/css">
	.st0{fill:#FFFFFF;}
	.st1{fill:#FFFFFF;stroke:#FFFFFF;stroke-width:0.5;stroke-miterlimit:10;}
	.st2{fill:none;}
	.st3{fill:#DFF2FD;stroke:#FFFFFF;stroke-miterlimit:10;}
	.st4{fill:#020203;}
	.st5{fill:#5D5857;}
	.st6{fill:#A5A1A0;}
	.st7{fill:#DDDCDC;}
	.st8{fill:#F7F7F8;}
</style>
<g id="Scene">
	<g>
		<g>
			<g>
				<path class="st0" d="M296.6,136.4h-47.7c-0.8,0-1.4-0.6-1.4-1.4v-0.9c0-0.8,0.6-1.4,1.4-1.4h47.7c0.8,0,1.4,0.6,1.4,1.4v0.9
					C298,135.8,297.4,136.4,296.6,136.4z"/>
				<path class="st1" d="M318.4,137.7h-69.2c-1.8,0-3.2-1.4-3.2-3.2s1.4-3.2,3.2-3.2h69.2c1.8,0,3.2,1.4,3.2,3.2
					S320.2,137.7,318.4,137.7z M249.1,131.8c-1.5,0-2.8,1.2-2.8,2.8c0,1.5,1.2,2.8,2.8,2.8h69.2c1.5,0,2.8-1.2,2.8-2.8
					c0-1.5-1.2-2.8-2.8-2.8H249.1z"/>
			</g>
			<g>
				<path class="st0" d="M274.5,129.5h-1.3c-0.5,0-0.8-0.1-1-0.3s-0.3-0.5-0.3-0.9v-3.1h0.8v3.1c0,0.2,0,0.3,0.1,0.3
					c0.1,0.1,0.2,0.1,0.4,0.1h1.3V129.5z"/>
				<path class="st0" d="M278.3,127.2v0.3c0,0.7-0.1,1.2-0.4,1.6c-0.3,0.3-0.7,0.5-1.3,0.5c-0.6,0-1-0.2-1.3-0.5
					c-0.3-0.3-0.4-0.9-0.4-1.6v-0.3c0-0.7,0.1-1.2,0.4-1.5c0.3-0.3,0.7-0.5,1.3-0.5c0.6,0,1,0.2,1.3,0.5
					C278.1,126,278.3,126.5,278.3,127.2z M277.4,127.5v-0.2c0-0.4,0-0.7-0.1-0.9c-0.1-0.3-0.4-0.4-0.7-0.4c-0.4,0-0.6,0.1-0.7,0.4
					c-0.1,0.2-0.1,0.5-0.1,0.9v0.2c0,0.5,0.1,0.9,0.2,1c0.1,0.1,0.1,0.1,0.2,0.2c0.1,0.1,0.2,0.1,0.4,0.1c0.2,0,0.3,0,0.4-0.1
					c0.1-0.1,0.2-0.1,0.3-0.2s0.1-0.2,0.1-0.3C277.4,128,277.4,127.8,277.4,127.5z"/>
				<path class="st0" d="M282.2,129.5h-0.9l-0.2-0.7h-1.4l-0.2,0.7h-0.9l1.4-3.9c0.1-0.1,0.1-0.2,0.2-0.3c0.1-0.1,0.2-0.1,0.3-0.1
					s0.2,0,0.3,0.1c0.1,0,0.1,0.1,0.2,0.3L282.2,129.5z M280.9,128.1l-0.5-1.7l-0.5,1.7H280.9z"/>
				<path class="st0" d="M286.1,127.4v0.5c0,0.3-0.1,0.5-0.1,0.7c-0.1,0.2-0.2,0.4-0.3,0.5c-0.3,0.3-0.7,0.4-1.2,0.4
					c-0.6,0-1-0.1-1.3-0.2c-0.2-0.2-0.3-0.5-0.3-0.9v-3.2h1.7c0.5,0,0.9,0.1,1.1,0.4c0.2,0.2,0.4,0.5,0.4,0.8
					C286,126.7,286.1,127,286.1,127.4z M285.2,128.1c0-0.2,0-0.4,0-0.8s0-0.6,0-0.7c0-0.2-0.1-0.3-0.1-0.4c-0.1-0.2-0.4-0.3-0.6-0.3
					h-0.8v2.4c0,0.2,0.1,0.3,0.2,0.3c0.1,0.1,0.3,0.1,0.6,0.1c0.3,0,0.5-0.1,0.6-0.3C285.1,128.4,285.2,128.3,285.2,128.1z"/>
				<path class="st0" d="M287.6,129.5h-0.8v-4.3h0.8V129.5z"/>
				<path class="st0" d="M292,125.2v3.8c0,0.1,0,0.2-0.1,0.3c-0.1,0.1-0.2,0.1-0.3,0.1c-0.3,0-0.5-0.2-0.7-0.5l-1.5-2.3v2.7h-0.8
					V125h0.8l1.8,2.8V125h0.8V125.2z"/>
				<path class="st0" d="M292.6,127.5V127c0-0.6,0.1-1,0.4-1.3c0.3-0.3,0.7-0.5,1.2-0.5s0.9,0.2,1.2,0.5c0.2,0.2,0.3,0.6,0.3,1H295
					c0-0.5-0.3-0.7-0.8-0.7c-0.2,0-0.3,0-0.4,0.1c-0.1,0.1-0.2,0.1-0.2,0.2c-0.1,0.1-0.1,0.2-0.1,0.3c0,0.1,0,0.3,0,0.4
					c0,0.1,0,0.2,0,0.4c0,0.2,0,0.3,0,0.3c0,0.1,0,0.2,0,0.3c0,0.1,0,0.2,0,0.3c0,0.1,0.1,0.1,0.1,0.2c0,0.1,0.1,0.1,0.2,0.2
					c0.2,0.1,0.4,0.2,0.6,0.2c0.3,0,0.6-0.1,0.7-0.4v-0.3h-0.5v-0.7h1.2v1.3c-0.1,0.3-0.3,0.5-0.6,0.7c-0.3,0.1-0.6,0.2-0.9,0.2
					c-0.6,0-1-0.2-1.3-0.5C292.7,128.7,292.6,128.2,292.6,127.5z"/>
			</g>
		</g>
		<path class="st0" d="M237.4,16.3v220.2h42.4c0.7,0,0.7-2.6,0-2.6H240v-85.5h80.2v34.9l2.6,1.8v-39.3H240v-127h144.8v215h-61.9
			l0.1-23.7c0-0.7-2.7,3-2.6,3.1V234H307c-0.4,0-2.2,2.6-1.5,2.6h81.9V16.3H237.4z"/>
		<path class="st0" d="M324.4,190.7l-0.2-0.4c0-0.1-3.6-6.9-12.5-8.1l-0.6-0.1l0.4-0.5c0-0.1,1.2-1.4,4.9-0.2
			c3.5,1.2,7.4,4.3,7.5,4.5c0,0,1.4,0.8,1.6,2.2c0.1,0.8-0.1,1.5-0.8,2.2L324.4,190.7z M312.7,181.6c7.2,1.4,10.8,6.4,11.7,7.9
			c0.3-0.4,0.4-0.9,0.3-1.3c-0.2-1-1.3-1.8-1.3-1.8c-0.1-0.1-4-3.2-7.4-4.4C314.5,181.5,313.4,181.5,312.7,181.6z"/>
		<path class="st0" d="M290.1,168.5l-0.2-0.3c0,0-2.9-4.7-7.6-6.1l-0.5-0.1l0.3-0.4c0,0,0.5-0.6,1.5-0.7c1.2-0.1,2.7,0.6,4.2,2
			c2.6,2.3,3.5,3.3,3.4,4.2c-0.1,0.5-0.5,0.9-1,1.2L290.1,168.5z M283.2,161.7c3.9,1.4,6.4,4.8,7.1,5.9c0.3-0.2,0.4-0.3,0.4-0.5
			c0.1-0.6-1.2-1.8-3.2-3.6c-1.8-1.6-3-1.9-3.7-1.9C283.6,161.6,283.4,161.7,283.2,161.7z"/>
		<path class="st0" d="M289,246.9c-2.1,0-3.8-0.6-5.2-1.8c-4.2-3.7-3.8-11.5-3.8-11.8l1.5-13.4c-0.2-0.5-1.6-3.5-4.4-4
			c-1.2-0.2-2.3-0.9-3.3-2.1c-1-1.3-1.7-2.9-1.8-4.6l-0.2-2.2c-0.1-0.8-0.1-1.6-0.1-2.4c0-0.4-0.1-0.7-0.3-0.9
			c-0.4-0.3-1.2-0.6-3.1-0.3c-4.7,0.7-10.5-1.7-13.2-5.6c0,0-0.1-0.2-0.3-0.2c-0.3-0.1-1,0-2.2,1c-3.2,2.6-9.3,6.7-14,4.7l-0.2-0.1
			l-0.1-18.1v-0.1c2.4-4.4,5.5-8.3,9.3-11.8c4.6-4.2,11.3-9.5,17.1-11c10-2.6,13.2-1.8,18.4-0.1c5.2,1.7,7.5,6.2,7.6,6.4
			c0.5,1.6,2.1,5.7,3.5,6.4c1.8,0.9,8.1,4.9,8.4,5c0,0,3.5,1.8,8.6,1.9c0.1,0,8.4,1,13,7.9c4.6,6.9,1.6,15.5,1.6,15.6
			c-0.1,0.1-4,8.5-9.6,13.9l0,0c0,0-1.6,2-3.4,5.5l-0.3,0.7c-2.3,4.7-9.3,19-20.8,21.4C290.6,246.8,289.8,246.9,289,246.9z
			 M269.7,202.4c1,0,1.7,0.2,2.2,0.6c0.5,0.4,0.6,1,0.6,1.4c0,0.8,0,1.6,0.1,2.4l0.2,2.2c0.1,1.6,0.7,3.1,1.7,4.3
			c0.9,1,1.8,1.7,2.9,1.9c3.5,0.6,4.9,4.3,5,4.5v0.1l-1.5,13.6c0,0.1-0.4,7.8,3.6,11.3c1.8,1.5,4.2,2,7.1,1.4
			c11.2-2.3,18.1-16.4,20.4-21l0.3-0.7c1.8-3.6,3.5-5.6,3.5-5.7c5.5-5.4,9.5-13.7,9.5-13.7c0-0.1,2.9-8.4-1.5-15
			c-4.4-6.6-12.4-7.6-12.5-7.6c-5.3-0.1-8.8-1.9-8.9-2c-0.1-0.1-6.6-4.1-8.3-5c-1.9-1-3.7-6.5-3.8-6.7l0,0c0,0-2.3-4.4-7.2-6
			c-5.1-1.7-8.3-2.4-18,0.2c-5.7,1.5-12.3,6.7-16.8,10.9c-3.7,3.4-6.8,7.3-9.1,11.6l0.1,17.5c4.3,1.6,10.1-2.2,13.1-4.7
			c1.1-0.9,2.1-1.3,2.8-1.2c0.5,0.1,0.7,0.5,0.7,0.5c2.6,3.7,8.1,6,12.6,5.3C268.7,202.4,269.2,202.4,269.7,202.4z"/>
		<path class="st0" d="M268.9,189.5c-1.8,0-3.9-0.4-6.4-1.2c-2.8-1-4.5-2.5-5.2-4.4c-0.7-2,0-4,0.8-5.3c0.5-0.7,1.1-1.4,1.8-2
			c0.4-0.3,0.6-0.5,0.8-0.7c-1.9-0.9-3.1-2.7-3.3-4.8c-0.2-2.6,1.2-5.2,3.5-6.7c2.8-1.7,5.2-2.8,7.1-3.1c0.5-0.1,8.1-2.1,13.8,2.5
			l0.2,0.1c1.7,1.4,2.6,3.5,2.4,5.7c-0.1,2.2-1.3,4.2-3.2,5.4c-1.3,0.8-4.2,2-6.1,2.3c1.4,1,4.1,3.4,2.8,6.5
			C276.7,186.2,274.3,189.5,268.9,189.5z M272.4,161.3c-2.5,0-4.3,0.5-4.4,0.5l0,0c-1.8,0.3-4.2,1.3-6.9,3c-2.1,1.3-3.4,3.7-3.2,6.1
			c0.2,2,1.4,3.7,3.3,4.5c0.1,0,0.2,0.1,0.2,0.3c0,0.2,0,0.3-1.2,1.3c-0.7,0.6-1.2,1.2-1.7,1.9c-0.7,1.1-1.3,3-0.7,4.7
			c0.6,1.8,2.2,3.1,4.8,4c9.6,3.4,13.2-1.1,14.5-4.1c1.5-3.5-3.2-6.1-3.3-6.1c-0.1-0.1-0.2-0.2-0.2-0.4c0-0.1,0.2-0.2,0.3-0.3
			c1.6-0.1,5.3-1.4,6.7-2.4c1.7-1.1,2.8-2.9,2.9-4.9c0.1-2-0.7-3.9-2.2-5.2l-0.2-0.1C278.4,161.9,275.1,161.3,272.4,161.3z"/>
		<path class="st0" d="M268.2,179.1c-3.3,0-6-1.3-6-3c0-1.7,2.6-3,6-3c3.4,0,6,1.3,6,3C274.2,177.8,271.6,179.1,268.2,179.1z
			 M268.2,173.7c-2.9,0-5.3,1.1-5.3,2.4c0,1.3,2.4,2.4,5.3,2.4c2.9,0,5.3-1.1,5.3-2.4C273.6,174.7,271.1,173.7,268.2,173.7z"/>
		<path class="st0" d="M286.2,192.7c-3.9,0-6.9-1.4-6.9-3.3c0-1.9,3-3.3,6.9-3.3s6.9,1.4,6.9,3.3
			C293.1,191.2,290.1,192.7,286.2,192.7z M286.2,186.7c-3.7,0-6.3,1.3-6.3,2.6c0,1.3,2.5,2.6,6.3,2.6c3.7,0,6.3-1.3,6.3-2.6
			C292.5,188,290,186.7,286.2,186.7z"/>
		<path class="st0" d="M268.4,185.9c-2.2,0-4.3-0.3-5.2-0.7c-0.7-0.3-2.3-1.3-2.5-2.8c-0.1-1,0.4-2,1.6-3c0.1-0.1,0.2-0.1,0.3-0.1
			c0.1,0,0.2,0.1,0.2,0.1c0.1,0.1,1.5,2.2,5.1,1.9s5.1-1.7,5.1-1.7c0.1-0.1,0.3-0.1,0.5,0c0,0,2.2,2.2,0.9,4.5
			C273.7,185.4,271,185.9,268.4,185.9z M262.5,180.1c-0.8,0.8-1.2,1.5-1.1,2.2c0.2,1.2,1.7,2,2.2,2.3c2.1,1,9.4,1,10.2-0.6
			c0.8-1.6-0.2-3-0.6-3.6c-0.6,0.4-2.2,1.4-5.2,1.6C264.8,182.2,263.1,180.7,262.5,180.1z"/>
		<path class="st0" d="M309.7,206.6c-7.7,0-14.2-5.8-15.6-7.2c-4,5.3-10.8,4.5-10.9,4.5l0,0c-0.3,0-4.3-0.1-7.4-4.3
			c-0.8-1.1-1.1-2.2-0.8-3.4c0.6-2.9,4.1-5.1,4.2-5.2s0.2-0.1,0.3,0c0.1,0,0.2,0.1,0.2,0.3c0.3,2.5,1.1,2.9,1.2,3
			c3.3,1.2,7,2,11.3-0.7c0.3-0.2,0.9-0.8,1.6-1.5c1.9-2,5.1-5.3,9.2-7c4.6-1.8,10-1.7,14,0.1c2.5,1.2,4.3,2.9,5,5.1
			c2.5,7,0.2,12.2-6.5,15.1C313.7,206.2,311.6,206.6,309.7,206.6z M294.1,198.6c0.1,0,0.2,0,0.2,0.1c0.1,0.1,10.3,10.7,21,6.1
			c6.4-2.8,8.5-7.7,6.2-14.3c-0.7-2-2.3-3.7-4.7-4.8c-3.8-1.8-9.1-1.8-13.5-0.1c-4,1.6-7.1,4.8-9,6.8c-0.8,0.8-1.3,1.4-1.7,1.7
			c-4.6,2.8-8.4,2-11.9,0.7c-0.1-0.1-1.1-0.6-1.5-2.9c-0.9,0.7-3.1,2.4-3.5,4.5c-0.2,1,0.1,2,0.7,2.9c3,4,6.9,4,7,4
			s6.7,0.8,10.5-4.5C293.9,198.6,294,198.6,294.1,198.6L294.1,198.6z"/>
		<path class="st0" d="M282.1,219.8l-0.6-0.2c0.9-2.4,2.8-9,0.9-10.3c-2.5-1.8-6-4.7-8.7-7c-1.7-1.4-3.2-2.7-4.1-3.4
			c-0.5-0.4-1.2-0.5-1.8-0.4c-2.7,0.7-9.4,1.5-12.6-5.2c-2.2-0.6-7.4,3.3-11.7,7.2c-1.8,1.7-3.7,1.8-4.9,1.7l0.1-0.6
			c1.6,0.2,3.1-0.3,4.4-1.5c2.8-2.5,9.6-8.3,12.5-7.3c0.1,0,0.1,0.1,0.2,0.2c3,6.4,9.4,5.6,12,5c0.8-0.2,1.7,0,2.4,0.5
			c0.9,0.7,2.4,1.9,4.1,3.4c2.8,2.3,6.2,5.2,8.7,7C285.4,210.6,282.5,218.9,282.1,219.8z"/>
		<path class="st0" d="M283.1,216.6h-0.7c0-0.1,0.1-2.2-2.4-3.7c-0.9-0.5-1.9-0.9-2.9-1.3c-2.2-0.8-4.4-1.7-5.2-3.9l0.6-0.2
			c0.7,1.9,2.7,2.7,4.8,3.5c1,0.4,2.1,0.8,3.1,1.4C283.3,214,283.1,216.5,283.1,216.6z"/>
		<path class="st0" d="M270.4,172.4c-1.6,0-3.4-0.3-5-1.4c-1.1-0.7-1.6-1.9-1.4-3.1c0.2-1.1,0.9-2.6,3.5-3.6l0,0
			c0.3-0.1,6.8-1.9,9.7,1.2c0.8,0.8,1.1,1.7,0.9,2.6c-0.4,2-3,3.4-3.1,3.4C275,171.6,273,172.4,270.4,172.4z M267.8,164.9
			c-1.8,0.7-2.8,1.7-3.1,3.1c-0.1,0.9,0.3,1.9,1.1,2.5c3.7,2.6,9,0.5,9.1,0.5l0,0c0,0,2.4-1.3,2.7-3c0.1-0.7-0.1-1.4-0.8-2.1
			C274.3,163.1,268.1,164.8,267.8,164.9z"/>
		<path class="st0" d="M264.5,168.7l-0.1-0.6c4.3-1,13.3-0.3,13.6-0.2l-0.1,0.6C277.8,168.5,268.6,167.7,264.5,168.7z"/>
		<path class="st0" d="M270.2,172.1c-0.5-5.3,2.2-8.3,2.4-8.5l0.5,0.4c0,0-2.7,2.9-2.2,7.9L270.2,172.1z"/>
		<path class="st0" d="M289.2,177.6c-0.1,0-0.2,0-0.2-0.1l-3.1-2.7c-0.1-0.1-0.1-0.2-0.1-0.3c0-0.1,0.1-0.2,0.2-0.2l2.4-0.8
			c0.1,0,0.2,0,0.3,0.1l3.6,2.8c0.1,0.1,0.1,0.2,0.1,0.3c0,0.1-0.1,0.2-0.2,0.2L289.2,177.6C289.3,177.6,289.3,177.6,289.2,177.6z
			 M286.8,174.7l2.6,2.2l2.1-0.5l-3-2.3L286.8,174.7z"/>
		<path class="st0" d="M299.6,184.6c-0.1,0-0.1,0-0.2-0.1L296,182c-0.1-0.1-0.1-0.2-0.1-0.3s0-0.2,0.1-0.3l1.9-1.6
			c0.1-0.1,0.3-0.1,0.4,0l3.9,2.7c0.1,0.1,0.1,0.2,0.1,0.3c0,0.1-0.1,0.2-0.2,0.3l-2.4,1.4C299.8,184.5,299.7,184.6,299.6,184.6z
			 M296.8,181.7l2.9,2.1l1.8-1l-3.3-2.3L296.8,181.7z"/>
		<path class="st0" d="M302.9,191.5c-1.9,0-3.4-0.9-3.4-2.1c0-1.2,1.5-2.1,3.4-2.1c1.9,0,3.4,0.9,3.4,2.1
			C306.3,190.6,304.8,191.5,302.9,191.5z M302.9,188c-1.7,0-2.8,0.7-2.8,1.4s1.1,1.4,2.8,1.4c1.7,0,2.8-0.7,2.8-1.4
			S304.5,188,302.9,188z"/>
		<path class="st0" d="M303,194.2c-0.7,0-1.3-0.1-1.9-0.4c-0.1-0.1-0.2-0.1-0.4-0.2c-0.7-0.4-1.2-1.2-1.2-2v-1.9c0-0.1,0-0.2,0-0.2
			c0-0.2,0.2-0.3,0.3-0.3c0.2,0,0.3,0.2,0.3,0.3v0.2c0,0.2,0.1,0.4,0.3,0.7c0.4,0.4,1.1,0.7,2.2,0.7c2.7,0,3-1.3,3-1.3
			c0-0.2,0.2-0.3,0.4-0.3c0.2,0,0.3,0.2,0.3,0.3v1.6c0,1-0.6,2-1.5,2.4C304.3,194.1,303.6,194.2,303,194.2z M300.1,190.8v0.6
			c0,0.6,0.3,1.2,0.9,1.4c0.1,0.1,0.2,0.1,0.3,0.2c1.1,0.5,2.3,0.5,3.2,0c0.7-0.4,1.1-1.1,1.1-1.9v-0.6c-0.5,0.4-1.4,0.9-3,0.9
			C301.5,191.5,300.7,191.3,300.1,190.8z"/>
		<path class="st0" d="M314.3,191.7c-2,0-3.4-0.8-3.4-1.8c0-1,1.5-1.8,3.4-1.8c2,0,3.4,0.8,3.4,1.8
			C317.7,190.9,316.2,191.7,314.3,191.7z M314.3,188.8c-1.6,0-2.8,0.6-2.8,1.1s1.2,1.1,2.8,1.1s2.8-0.6,2.8-1.1
			S315.9,188.8,314.3,188.8z"/>
		<path class="st0" d="M314.4,194c-0.6,0-1.3-0.1-1.9-0.4c-0.2-0.1-0.5-0.2-0.7-0.3c-0.5-0.3-0.9-0.8-0.9-1.4v-1.7
			c0-0.1,0-0.1,0-0.1c0-0.2,0.1-0.3,0.3-0.3s0.3,0.2,0.3,0.3v0.1c0,0.1,0,0.2,0.2,0.4c0.3,0.3,0.9,0.6,2.4,0.6c2.7,0,3-1.1,3-1.2
			c0-0.2,0.2-0.3,0.4-0.2c0.2,0,0.3,0.2,0.3,0.3v1.4c0,0.8-0.5,1.6-1.2,1.9c-0.1,0.1-0.2,0.1-0.3,0.2C315.7,193.9,315,194,314.4,194
			z M311.4,191.2v0.6c0,0.3,0.2,0.7,0.5,0.8c0.2,0.1,0.5,0.2,0.7,0.3c1.1,0.4,2.3,0.4,3.3,0c0.1,0,0.2-0.1,0.3-0.1
			c0.5-0.3,0.8-0.8,0.8-1.4v-0.5c-0.5,0.4-1.4,0.8-3,0.8C312.9,191.7,312,191.5,311.4,191.2z"/>
		<path class="st0" d="M314.6,199.9c-1.9,0-3.9-0.6-3.9-1.8c0-1.2,2-1.8,3.9-1.8s3.9,0.6,3.9,1.8
			C318.5,199.2,316.5,199.9,314.6,199.9z M314.6,196.9c-2,0-3.3,0.7-3.3,1.1c0,0.5,1.3,1.1,3.3,1.1s3.2-0.7,3.2-1.1
			C317.9,197.6,316.6,196.9,314.6,196.9z"/>
		<path class="st0" d="M314.8,202c-0.7,0-1.5-0.1-2.2-0.4c-0.4-0.1-0.7-0.3-1.1-0.4c-0.5-0.2-0.8-0.7-0.7-1.2v-1.9
			c0-0.1,0-0.2,0-0.2c0-0.2,0.2-0.3,0.4-0.3s0.3,0.2,0.3,0.3v0.1c0,0.1,0,0.2,0.2,0.4c0.2,0.3,0.9,0.7,2.7,0.7
			c3.1,0,3.5-1.2,3.5-1.2c0-0.2,0.2-0.3,0.4-0.2c0.2,0,0.3,0.2,0.3,0.3v1.6c0,0.7-0.4,1.4-1.1,1.7c-0.2,0.1-0.4,0.2-0.7,0.3
			C316.2,201.9,315.5,202,314.8,202z M311.3,199.2v0.8c0,0.3,0.1,0.5,0.4,0.6c0.3,0.2,0.7,0.3,1,0.4c1.3,0.4,2.7,0.4,3.8,0
			c0.2-0.1,0.4-0.2,0.6-0.3c0.4-0.2,0.7-0.7,0.7-1.2v-0.6c-0.6,0.4-1.6,0.9-3.5,0.9C313,199.9,311.9,199.7,311.3,199.2z"/>
		<path class="st0" d="M303.2,199.1c-2.1,0-3.7-0.9-3.7-2s1.6-2,3.7-2s3.7,0.9,3.7,2S305.2,199.1,303.2,199.1z M303.2,195.8
			c-1.8,0-3,0.7-3,1.3c0,0.6,1.2,1.3,3,1.3s3-0.7,3-1.3C306.2,196.5,305,195.8,303.2,195.8z"/>
		<path class="st0" d="M303.3,201.5c-0.7,0-1.4-0.1-2.1-0.4c-0.2-0.1-0.4-0.2-0.6-0.3c-0.7-0.3-1.1-1-1.1-1.8v-1.7
			c0-0.1,0-0.2,0-0.2c0-0.2,0.1-0.3,0.3-0.3s0.3,0.1,0.3,0.3v0.1c0,0.1,0.1,0.3,0.2,0.5c0.3,0.3,1,0.7,2.5,0.7
			c2.9,0,3.3-1.3,3.3-1.3c0-0.2,0.2-0.3,0.4-0.2c0.2,0,0.3,0.2,0.3,0.3v1.8c0,0.6-0.3,1.2-0.8,1.6c-0.2,0.2-0.5,0.3-0.8,0.4
			C304.7,201.4,304,201.5,303.3,201.5z M300.1,198.5v0.6c0,0.5,0.3,1,0.7,1.2c0.2,0.1,0.4,0.2,0.6,0.3c1.2,0.5,2.5,0.5,3.5,0
			c0.2-0.1,0.5-0.2,0.7-0.4c0.3-0.2,0.5-0.6,0.5-1.1v-0.9c-0.5,0.4-1.5,0.9-3.3,0.9C301.7,199.1,300.7,198.9,300.1,198.5z"/>
		<path class="st0" d="M285.7,200.6c-3.1,0-5.4-1.2-5.5-1.2c-0.4-0.2-2-1.4-2.1-2.9c0-1,0.7-2,2.1-2.8c0.1-0.1,0.3-0.1,0.4,0
			c0,0,1.6,1.3,5,1.4c3,0.2,5.2-0.9,5.2-0.9c0.1-0.1,0.3,0,0.4,0.1c0.1,0.1,1.3,1.8,0.8,3.4c-0.3,1-1.2,1.8-2.7,2.2
			C287.9,200.5,286.8,200.6,285.7,200.6z M280.3,194.4c-1.1,0.6-1.6,1.3-1.6,2.1c0,1.2,1.5,2.2,1.7,2.3c0,0,4.1,2,8.5,0.7
			c1.3-0.4,2-1,2.3-1.8c0.3-1-0.2-2.2-0.5-2.6c-0.7,0.3-2.7,1-5.3,0.8C282.5,195.7,280.8,194.8,280.3,194.4z"/>
		<path class="st0" d="M286.1,195.7c-0.1,0-0.2,0-0.3,0c-2.1,0-4.8-0.4-5.7-1.5c-1.5-1.8-0.8-4.8-0.7-4.9c0-0.1,0.1-0.3,0.3-0.2
			c0.2,0,0.3,0.1,0.3,0.3c0,0.1,0.6,2.6,6.1,2.6c0.1,0,0.2,0,0.2,0c5.5-0.1,6.1-2.6,6.1-2.6c0-0.2,0.2-0.3,0.3-0.3
			c0.2,0,0.3,0.1,0.3,0.3c0.3,3.5-0.8,4.6-0.8,4.6C290.9,195.6,287.5,195.7,286.1,195.7z M279.8,190.4c-0.1,1-0.1,2.4,0.7,3.4
			c0.6,0.7,2.8,1.2,5.2,1.2c2.9,0,5.2-0.5,6-1.5c0,0,0.7-0.8,0.7-3c-0.8,0.9-2.4,2-6.2,2c-0.1,0-0.2,0-0.2,0
			C282.1,192.6,280.5,191.3,279.8,190.4z"/>
		<path class="st0" d="M280.2,197.5c-0.2,0-0.3,0-0.3,0c-0.2,0-0.3-0.2-0.3-0.4c0-0.2,0.2-0.3,0.4-0.3c0,0,1.1,0.1,1.7-0.5
			c0.3-0.3,0.4-0.7,0.4-1.3c0-0.2,0.1-0.3,0.3-0.3c0.2,0,0.3,0.1,0.3,0.3c0,0.7-0.2,1.3-0.6,1.8
			C281.5,197.4,280.7,197.5,280.2,197.5z"/>
		<path class="st0" d="M289.5,197.9c-0.3,0-0.9-0.1-1.4-0.5c-0.5-0.4-0.7-1.1-0.7-1.9c0-0.2,0.1-0.3,0.3-0.3c0.2,0,0.3,0.2,0.3,0.3
			c0,0.6,0.1,1.1,0.4,1.4c0.4,0.4,1.1,0.3,1.1,0.3c0.2,0,0.3,0.1,0.4,0.3c0,0.2-0.1,0.3-0.3,0.4
			C289.7,197.9,289.6,197.9,289.5,197.9z"/>
		<path class="st0" d="M267.6,182.1c-2,0-3.7-0.7-4.7-1.5c-1.7-1.3-0.7-4.5-0.6-4.7c0-0.1,0.2-0.2,0.3-0.2c0.2,0,0.3,0.1,0.3,0.3
			c0,0.1,0.3,2.8,5.3,2.4c5-0.4,5.3-2.4,5.3-2.4c0-0.2,0.2-0.3,0.3-0.3l0,0c0.2,0,0.3,0.1,0.3,0.3c0.4,3.2-0.6,4-0.8,4
			C271.5,181.6,269.4,182.1,267.6,182.1z M262.7,177.2c-0.1,0.9-0.2,2.3,0.6,2.9c1.2,1,5.3,2.8,9.8-0.6c0,0,0.6-0.5,0.6-2.3
			c-0.7,0.8-2.1,1.7-5.4,1.9C264.7,179.3,263.3,178.1,262.7,177.2z"/>
		<path class="st0" d="M275.2,166.8h-0.7l0.1-0.9l-1.5-0.1v-0.6l1.9,0.1c0.2,0,0.3,0.2,0.3,0.3L275.2,166.8z"/>
		<path class="st0" d="M268.8,170.6h-1.9c-0.2,0-0.3-0.1-0.3-0.3V169h0.7v0.9h1.5L268.8,170.6z"/>
		<path class="st0" d="M274,170.7L274,170.7h-1.6V170h1.2l-0.1-1l0.6-0.1l0.2,1.4c0,0.1,0,0.2-0.1,0.3
			C274.2,170.6,274.1,170.7,274,170.7z"/>
		<path class="st0" d="M267.5,166.9l-0.2-1.4c0-0.1,0-0.2,0.1-0.3c0.1-0.1,0.2-0.1,0.2-0.1l0,0h1.6v0.7H268l0.2,1L267.5,166.9z"/>
		<path class="st0" d="M262.8,182.8c-0.1,0-0.2,0-0.2,0c-0.2,0-0.3-0.2-0.3-0.4c0-0.2,0.2-0.3,0.4-0.3c0.2,0,1,0,1.3-0.3
			c0.2-0.1,0.2-0.4,0.2-0.6c0-0.2,0.1-0.3,0.3-0.3s0.3,0.1,0.3,0.3c0,0.5-0.1,0.8-0.4,1.1C264,182.8,263.2,182.8,262.8,182.8z"/>
		<path class="st0" d="M271.7,183.1c-0.3,0-0.8-0.1-1.2-0.4c-0.3-0.3-0.5-0.8-0.5-1.3c0-0.2,0.2-0.3,0.3-0.3c0.2,0,0.3,0.2,0.3,0.3
			c0,0.4,0.1,0.7,0.3,0.8c0.3,0.3,0.9,0.2,0.9,0.2c0.2,0,0.3,0.1,0.4,0.3c0,0.2-0.1,0.3-0.3,0.4
			C271.9,183.1,271.8,183.1,271.7,183.1z"/>
		<g>
			<path class="st0" d="M366.7,199.1v0.4c0,0.1,0,0.1,0,0.1s-0.1,0-0.2,0h-1.3c-0.1,0-0.2,0-0.2-0.1c0-0.1-0.1-0.1-0.1-0.2
				c0-0.1,0-0.2,0.1-0.2c0-0.1,0.1-0.1,0.2-0.1h1.5V199.1z"/>
			<path class="st0" d="M362.9,198.2v1.4c0,0.1,0,0.1,0,0.2c0,0-0.1,0-0.2,0h-1.2c-0.2,0-0.3-0.1-0.3-0.2v-1.1
				c0-0.2,0.1-0.2,0.3-0.2h0.3c0.2,0,0.4,0,0.6,0C362.6,198.2,362.7,198.2,362.9,198.2z"/>
			<path class="st0" d="M359.2,199.1v0.4c0,0.1,0,0.1,0,0.1s-0.1,0-0.2,0h-1.3c-0.1,0-0.2,0-0.2-0.1c-0.1-0.1-0.1-0.1-0.1-0.2
				c0-0.1,0-0.2,0.1-0.2c0-0.1,0.1-0.1,0.2-0.1h1.5V199.1z"/>
			<path class="st0" d="M350.7,199.1v0.4c0,0.1,0,0.1,0,0.1s-0.1,0-0.2,0h-1.3c-0.1,0-0.2,0-0.2-0.1c-0.1-0.1-0.1-0.1-0.1-0.2
				c0-0.1,0-0.2,0.1-0.2c0-0.1,0.1-0.1,0.2-0.1h1.5V199.1z"/>
			<path class="st0" d="M345.4,197.8v0.4c0,0.1,0,0.2-0.1,0.3c-0.1,0.1-0.2,0.1-0.4,0.1h-1.6v-1.2h1.6c0.2,0,0.3,0,0.4,0.1
				C345.4,197.6,345.4,197.7,345.4,197.8z"/>
			<path class="st0" d="M336.9,192.4v12.5h40.9v-12.5H336.9z M346.2,198.2c0,0.1,0,0.2,0,0.3c0,0.1-0.1,0.2-0.2,0.3
				c-0.1,0.1-0.2,0.2-0.3,0.3c-0.1,0.1-0.3,0.1-0.5,0.1h-0.6c-0.2,0-0.5,0-0.7,0c-0.2,0-0.4,0-0.5,0v1.1h-0.8v-2.9l-0.1-0.5h2.6
				c0.2,0,0.4,0,0.6,0.1c0.1,0.1,0.2,0.2,0.3,0.3s0.1,0.2,0.1,0.3c0,0.1,0,0.2,0,0.3v0.3H346.2z M347.7,200.2H347V197l-0.1-0.5h0.8
				L347.7,200.2L347.7,200.2z M351.4,200.2h-0.5l-0.2-0.1c-0.2,0-0.4,0.1-0.6,0.1c-0.2,0-0.5,0-0.8,0h-0.2c-0.3,0-0.5-0.1-0.6-0.2
				c-0.1-0.1-0.2-0.3-0.2-0.6s0.1-0.4,0.2-0.6c0.1-0.1,0.3-0.2,0.6-0.2h0.3c0.3,0,0.5,0,0.8,0c0.2,0,0.4,0,0.6,0.1v-0.4v-0.1
				c0,0,0-0.1-0.1-0.1c0,0-0.1,0-0.2,0h-0.3c-0.4,0-0.8,0-1,0c-0.3,0-0.5,0-0.6,0l-0.1-0.4c0-0.1,0.2-0.1,0.4-0.1c0.3,0,0.8,0,1.5,0
				h0.3c0.2,0,0.3,0,0.4,0.1c0.1,0.1,0.2,0.1,0.2,0.2c0.1,0.1,0.1,0.2,0.1,0.3c0,0.1,0,0.2,0,0.2L351.4,200.2L351.4,200.2z M355,198
				c-0.1,0.1-0.2,0.3-0.3,0.5c-0.1,0.2-0.2,0.4-0.3,0.6c-0.1,0.2-0.2,0.4-0.3,0.6c-0.1,0.2-0.2,0.4-0.3,0.5
				c-0.1,0.2-0.2,0.4-0.4,0.6c-0.1,0.2-0.3,0.3-0.5,0.4c-0.2,0.1-0.4,0.1-0.6,0.1h-0.2c-0.2,0-0.4,0-0.5-0.1c-0.2,0-0.3-0.1-0.3-0.1
				l0.2-0.5c0.1,0,0.2,0.1,0.3,0.1s0.3,0.1,0.4,0.1h0.1c0.2,0,0.3-0.1,0.5-0.2c0.1-0.1,0.2-0.3,0.3-0.4h-0.3l-1.1-2.6h0.8l0.7,1.6
				l0.2,0.4h0.1l0.2-0.4l0.7-1.6h0.8L355,198z M359.9,200.2h-0.5l-0.2-0.1c-0.2,0-0.4,0.1-0.6,0.1c-0.2,0-0.5,0-0.8,0h-0.3
				c-0.3,0-0.5-0.1-0.6-0.2c-0.1-0.1-0.2-0.3-0.2-0.6s0.1-0.4,0.2-0.6c0.1-0.1,0.3-0.2,0.6-0.2h0.3c0.3,0,0.5,0,0.8,0
				c0.2,0,0.4,0,0.6,0.1v-0.4v-0.1c0,0,0-0.1-0.1-0.1c0,0-0.1,0-0.2,0h-0.3c-0.4,0-0.8,0-1,0c-0.3,0-0.5,0-0.6,0l-0.1-0.4
				c0-0.1,0.2-0.1,0.4-0.1c0.3,0,0.8,0,1.5,0h0.3c0.2,0,0.3,0,0.4,0.1c0.1,0.1,0.2,0.1,0.2,0.2c0.1,0.1,0.1,0.2,0.1,0.3
				c0,0.1,0,0.2,0,0.2v1.8H359.9z M363.6,200.5c0,0.1,0,0.2,0,0.2c0,0.1-0.1,0.2-0.1,0.2c-0.1,0.1-0.2,0.1-0.3,0.2
				c-0.1,0.1-0.3,0.1-0.5,0.1h-0.3c-0.4,0-0.8,0-1,0c-0.3,0-0.5,0-0.6,0c-0.1,0-0.2,0-0.3-0.1c-0.1,0-0.1-0.1-0.1-0.1l0.2-0.4
				c0.1,0,0.2,0.1,0.3,0.1c0.2,0,0.4,0,0.6,0h1c0.1,0,0.2,0,0.3-0.1c0.1,0,0.1-0.1,0.1-0.2V200c-0.2,0-0.4,0.1-0.6,0.1s-0.5,0-0.8,0
				h-0.3c-0.2,0-0.3,0-0.4-0.1c-0.1-0.1-0.2-0.1-0.2-0.2s-0.1-0.2-0.1-0.2c0-0.1,0-0.2,0-0.2v-1.1c0-0.1,0-0.1,0-0.2
				c0-0.1,0-0.2,0.1-0.3c0-0.1,0.1-0.1,0.2-0.2c0.1-0.1,0.3-0.1,0.4-0.1h0.3c0.4,0,0.7,0,0.9,0c0.2,0,0.4,0,0.5,0.1l0.2-0.1h0.5
				L363.6,200.5L363.6,200.5z M367.4,200.2h-0.5l-0.2-0.1c-0.2,0-0.4,0.1-0.6,0.1c-0.2,0-0.5,0-0.8,0H365c-0.3,0-0.5-0.1-0.6-0.2
				c-0.1-0.1-0.2-0.3-0.2-0.6s0.1-0.4,0.2-0.6c0.1-0.1,0.3-0.2,0.6-0.2h0.3c0.3,0,0.6,0,0.8,0c0.2,0,0.4,0,0.6,0.1v-0.4v-0.1
				c0,0,0-0.1-0.1-0.1c0,0-0.1,0-0.2,0h-0.3c-0.4,0-0.8,0-1,0c-0.3,0-0.5,0-0.6,0l-0.1-0.4c0-0.1,0.1-0.1,0.4-0.1c0.3,0,0.8,0,1.5,0
				h0.3c0.2,0,0.3,0,0.4,0.1c0.1,0.1,0.2,0.1,0.2,0.2c0.1,0.1,0.1,0.2,0.1,0.3c0,0.1,0,0.2,0,0.2v1.8H367.4z M368.8,200.2h-0.7v-2.6
				h0.7V200.2z M368.8,197.2c-0.1,0.1-0.2,0.1-0.3,0.1c-0.1,0-0.3,0-0.3-0.1c-0.1-0.1-0.1-0.2-0.1-0.3c0-0.1,0-0.2,0.1-0.3
				c0.1-0.1,0.2-0.1,0.3-0.1c0.1,0,0.3,0,0.3,0.1c0.1,0.1,0.1,0.2,0.1,0.3C368.8,197,368.8,197.1,368.8,197.2z M372.7,200.2H372
				v-1.9c0-0.2-0.1-0.2-0.3-0.2h-1.3c-0.1,0-0.1,0-0.1,0v0.1v2h-0.7v-2.6h0.5l0.2,0.1c0.2,0,0.4-0.1,0.6-0.1c0.2,0,0.5,0,0.8,0h0.3
				c0.2,0,0.3,0,0.4,0.1c0.1,0.1,0.2,0.1,0.2,0.2c0,0.1,0.1,0.2,0.1,0.3c0,0.1,0,0.2,0,0.2V200.2z"/>
		</g>
		<g>
			<path class="st0" d="M369.8,161h-1.9c-0.7,0-1.1,0.4-1.1,1.1v3.5c0,0.7,0.4,1.1,1.1,1.1h1.9c0.7,0,1.1-0.4,1.1-1.1v-3.5
				C370.9,161.4,370.5,161,369.8,161z M370.1,165.5c0,0.2,0,0.2-0.2,0.2H368c-0.2,0-0.2,0-0.2-0.2V162c0-0.2,0-0.2,0.2-0.2h1.9
				c0.2,0,0.2,0,0.2,0.2V165.5z"/>
			<path class="st0" d="M369.8,170.3h-1.9c-0.7,0-1.1,0.4-1.1,1.1v3.5c0,0.7,0.4,1.1,1.1,1.1h1.9c0.7,0,1.1-0.4,1.1-1.1v-3.5
				C370.9,170.7,370.5,170.3,369.8,170.3z M370.1,174.9c0,0.2,0,0.2-0.2,0.2H368c-0.2,0-0.2,0-0.2-0.2v-3.5c0-0.2,0-0.2,0.2-0.2h1.9
				c0.2,0,0.2,0,0.2,0.2V174.9z"/>
			<path class="st0" d="M339.4,174.6h2.9l-1.5-4.3L339.4,174.6z M340.5,173.8l0.3-0.9l0.3,0.9H340.5z"/>
			<path class="st0" d="M339.4,165.3h2.9l-1.5-4.3L339.4,165.3z M340.5,164.4l0.3-0.9l0.3,0.9H340.5z"/>
			<path class="st0" d="M349.7,163.1l-1.9-3.6H345v7.3l-2.8-7.3h-2.8l-2.5,6.7v-3.4h-4.2v2.2h1.4v0.8c-0.6,0-1.2,0-1.9,0
				c-0.1,0-0.1,0-0.1,0v-0.1v-3.5c0-0.2,0-0.2,0.2-0.2h3.9v-2.4h-4.4c-0.9,0-1.5,0.2-2,0.6c-0.4,0.4-0.6,1.1-0.6,2v3.5
				c0,0.8,0.2,1.5,0.6,1.9c0.4,0.4,1,0.6,1.9,0.6c1.4,0,2.9-0.1,4.5-0.3l-0.1,0.1h3l0.5-1.4h2.2l0.5,1.4h2.6h0.5h2.3v-3.1l0.9,1.6h2
				l0.9-1.6v3.1h2.8v-8.5h-2.8L349.7,163.1z M336.1,167.1c-1.5,0.2-3,0.2-4.3,0.2c-0.6,0-1-0.1-1.3-0.4c-0.3-0.3-0.4-0.7-0.4-1.3
				v-3.5c0-0.7,0.1-1.1,0.4-1.4c0.3-0.3,0.7-0.4,1.4-0.4h3.5v0.7h-3.1c-0.7,0-1.1,0.4-1.1,1.1v3.5c0,0.4,0.1,0.6,0.3,0.7
				c0.1,0.1,0.3,0.3,0.7,0.3c0.9,0,1.6,0,2.3-0.1h0.4v-2.4h-1.4v-0.5h2.6V167.1z M343,167.2l-0.5-1.4h-3.3l-0.5,1.4h-1.2l2.6-6.8
				h1.6l2.6,6.8H343z M353.5,160.4v6.8h-1.1v-5.5l-2.2,3.9h-1l-2.2-3.9v5.5h-1.1v-6.8h1.4l2.4,4.5l2.4-4.5H353.5z"/>
			<path class="st0" d="M354.8,168.1h6.9v-2.4h-4.1v-0.8h3.2v-2.4h-3.2v-0.6h4.1v-2.4h-6.9V168.1z M355.7,160.4h5.3v0.7h-4.1v2.3
				h3.2v0.7h-3.2v2.4h4.1v0.7h-5.3V160.4z"/>
			<path class="st0" d="M385.6,161.9v-2.4h-4.7h-0.5h-2.6l-1.6,4.5l-1.6-4.5h-3l0.1,0.2c-0.4-0.2-0.9-0.3-1.5-0.3h-2.7
				c-0.9,0-1.5,0.2-2,0.6c-0.4,0.4-0.6,1.1-0.6,2v3.5c0,0.9,0.2,1.5,0.6,2c0.4,0.4,1.1,0.6,2,0.6h2.7c0.9,0,1.5-0.2,2-0.6
				c0.4-0.4,0.6-1.1,0.6-2v-2.8l2,5.3h2.8l2.8-7.3v7.3h5.2v-2.4h-2.4v-0.7h2.4v-2.4h-2.4v-0.6H385.6z M372,165.5
				c0,0.6-0.1,1.1-0.4,1.4c-0.3,0.3-0.7,0.4-1.4,0.4h-2.7c-0.7,0-1.1-0.1-1.4-0.4c-0.3-0.3-0.4-0.7-0.4-1.4V162
				c0-0.6,0.1-1.1,0.4-1.4c0.3-0.3,0.7-0.4,1.4-0.4h2.7c0.7,0,1.1,0.1,1.4,0.4c0.3,0.3,0.4,0.7,0.4,1.4V165.5z M377.1,167.2h-1.6
				l-2.6-6.8h1.2l2.2,6.2l2.2-6.2h1.2L377.1,167.2z M384.7,163.4v0.7h-2.4v2.4h2.4v0.7h-3.5v-6.8h3.5v0.7h-2.4v2.3L384.7,163.4
				L384.7,163.4z"/>
			<path class="st0" d="M349.7,172.5l-1.9-3.6H345v7.3l-2.8-7.3h-2.8l-2.5,6.7v-3.4h-4.2v2.2h1.4v0.8c-0.6,0-1.2,0-1.9,0
				c-0.1,0-0.1,0-0.1,0s0,0,0-0.1v-3.5c0-0.2,0-0.2,0.2-0.2h3.9v-2.5h-4.4c-0.9,0-1.5,0.2-2,0.6c-0.4,0.4-0.6,1.1-0.6,2v3.5
				c0,0.8,0.2,1.5,0.6,1.9c0.4,0.4,1,0.6,1.9,0.6c1.4,0,2.9-0.1,4.5-0.3l-0.1,0.1h3l0.5-1.4h2.2l0.5,1.4h2.6h0.5h2.3v-3.1l0.9,1.6h2
				l0.9-1.6v3.1h2.8v-8.4h-2.8L349.7,172.5z M336.1,176.5c-1.5,0.2-3,0.2-4.3,0.2c-0.6,0-1-0.1-1.3-0.4c-0.3-0.3-0.4-0.7-0.4-1.3
				v-3.5c0-0.7,0.1-1.1,0.4-1.4c0.3-0.3,0.7-0.4,1.4-0.4h3.5v0.7h-3.1c-0.7,0-1.1,0.4-1.1,1.1v3.5c0,0.4,0.1,0.6,0.3,0.7
				c0.1,0.1,0.3,0.3,0.7,0.3c0.9,0,1.6,0,2.3-0.1h0.4v-2.4h-1.4V173h2.6V176.5z M343,176.6l-0.5-1.4h-3.3l-0.5,1.4h-1.2l2.6-6.8h1.6
				l2.6,6.8H343z M353.5,169.7v6.8h-1.1V171l-2.2,3.9h-1L347,171v5.5h-1.1v-6.8h1.4l2.4,4.5l2.4-4.5H353.5z"/>
			<path class="st0" d="M354.8,177.4h6.9V175h-4.1v-0.8h3.2v-2.3h-3.2v-0.6h4.1v-2.4h-6.9V177.4z M355.7,169.7h5.3v0.7h-4.1v2.3h3.2
				v0.7h-3.2v2.4h4.1v0.7h-5.3V169.7z"/>
			<path class="st0" d="M380.4,168.9h-2.6l-1.6,4.5l-1.6-4.5h-3l0.1,0.2c-0.4-0.2-0.9-0.3-1.5-0.3h-2.7c-0.9,0-1.5,0.2-2,0.6
				c-0.4,0.4-0.6,1.1-0.6,2v3.5c0,0.9,0.2,1.5,0.6,2c0.4,0.4,1.1,0.6,2,0.6h2.7c0.9,0,1.5-0.2,2-0.6c0.4-0.4,0.6-1.1,0.6-2v-2.8
				l2,5.3h2.8l2.8-7.3v7.3h5.2V175h-2.4v-0.8h2.4v-2.3h-2.4v-0.6h2.4v-2.4h-4.7H380.4z M372,174.9c0,0.7-0.1,1.1-0.4,1.4
				c-0.3,0.3-0.7,0.4-1.4,0.4h-2.7c-0.7,0-1.1-0.1-1.4-0.4c-0.3-0.3-0.4-0.7-0.4-1.4v-3.5c0-0.6,0.1-1.1,0.4-1.4
				c0.3-0.3,0.7-0.4,1.4-0.4h2.7c0.7,0,1.1,0.1,1.4,0.4c0.3,0.3,0.4,0.7,0.4,1.4V174.9z M377.1,176.6h-1.6l-2.6-6.8h1.2l2.2,6.2
				l2.2-6.2h1.2L377.1,176.6z M381.2,169.7h3.5v0.7h-2.4v2.3h2.4v0.7h-2.4v2.4h2.4v0.7h-3.5V169.7z"/>
		</g>
		<g>
			<path class="st0" d="M369.8,132.9h-1.9c-0.7,0-1.1,0.4-1.1,1.1v3.5c0,0.7,0.4,1.1,1.1,1.1h1.9c0.7,0,1.1-0.4,1.1-1.1v-3.6
				C370.9,133.3,370.5,132.9,369.8,132.9z M370.1,137.5c0,0.2,0,0.2-0.2,0.2H368c-0.2,0-0.2,0-0.2-0.2v-3.6c0-0.2,0-0.2,0.2-0.2h1.9
				c0.2,0,0.2,0,0.2,0.2V137.5z"/>
			<path class="st0" d="M369.8,142.2h-1.9c-0.7,0-1.1,0.4-1.1,1.1v3.5c0,0.7,0.4,1.1,1.1,1.1h1.9c0.7,0,1.1-0.4,1.1-1.1v-3.5
				C370.9,142.6,370.5,142.2,369.8,142.2z M370.1,146.8c0,0.2,0,0.2-0.2,0.2H368c-0.2,0-0.2,0-0.2-0.2v-3.5c0-0.2,0-0.2,0.2-0.2h1.9
				c0.2,0,0.2,0,0.2,0.2V146.8z"/>
			<path class="st0" d="M339.4,146.5h2.9l-1.5-4.3L339.4,146.5z M340.5,145.7l0.3-0.9l0.3,0.9H340.5z"/>
			<path class="st0" d="M339.4,155.9h2.9l-1.5-4.3L339.4,155.9z M340.5,155l0.3-0.9l0.3,0.9H340.5z"/>
			<path class="st0" d="M369.8,151.6h-1.9c-0.7,0-1.1,0.4-1.1,1.1v3.5c0,0.7,0.4,1.1,1.1,1.1h1.9c0.7,0,1.1-0.4,1.1-1.1v-3.5
				C370.9,152,370.5,151.6,369.8,151.6z M370.1,156.2c0,0.2,0,0.2-0.2,0.2H368c-0.2,0-0.2,0-0.2-0.2v-3.5c0-0.2,0-0.2,0.2-0.2h1.9
				c0.2,0,0.2,0,0.2,0.2V156.2z"/>
			<path class="st0" d="M339.4,137.2h2.9l-1.5-4.3L339.4,137.2z M340.5,136.3l0.3-0.9l0.3,0.9H340.5z"/>
			<path class="st0" d="M349.7,135l-1.9-3.6H345v7.3l-2.8-7.3h-2.8l-2.5,6.7v-3.4h-4.2v2.2h1.4v0.8c-0.6,0-1.2,0-1.9,0
				c-0.1,0-0.1,0-0.1,0v-0.1v-3.5c0-0.2,0-0.2,0.2-0.2h3.9v-2.4h-4.4c-0.9,0-1.5,0.2-2,0.6c-0.4,0.4-0.6,1.1-0.6,2v3.5
				c0,0.8,0.2,1.5,0.6,1.9c0.4,0.4,1,0.6,1.9,0.6c1.4,0,2.9-0.1,4.5-0.3l-0.1,0.1h3l0.5-1.4h2.2l0.5,1.4h2.6h0.5h2.3v-3l0.9,1.6h2
				l0.9-1.6v3.1h2.8v-8.5h-2.8L349.7,135z M336.1,139c-1.5,0.2-3,0.2-4.3,0.2c-0.6,0-1-0.1-1.3-0.4c-0.3-0.3-0.4-0.7-0.4-1.3V134
				c0-0.7,0.1-1.1,0.4-1.4c0.3-0.3,0.7-0.4,1.4-0.4h3.5v0.7h-3.1c-0.7,0-1.1,0.4-1.1,1.1v3.5c0,0.4,0.1,0.6,0.3,0.7
				c0.1,0.1,0.3,0.3,0.7,0.3c0.9,0,1.6,0,2.3-0.1h0.4V136h-1.4v-0.5h2.6V139z M343,139.1l-0.5-1.4h-3.3l-0.5,1.4h-1.2l2.6-6.8h1.6
				l2.6,6.8H343z M353.5,132.3v6.8h-1.1v-5.5l-2.2,3.9h-1l-2.2-3.9v5.5h-1.1v-6.8h1.4l2.4,4.5l2.4-4.5H353.5z"/>
			<path class="st0" d="M354.8,140h6.9v-2.4h-4.1v-0.8h3.2v-2.4h-3.2v-0.6h4.1v-2.4h-6.9V140z M355.7,132.3h5.3v0.7h-4.1v2.3h3.2
				v0.7h-3.2v2.4h4.1v0.7h-5.3V132.3z"/>
			<path class="st0" d="M385.6,133.8v-2.4h-4.7h-0.5h-2.6l-1.6,4.5l-1.6-4.5h-3l0.1,0.2c-0.4-0.2-0.9-0.3-1.5-0.3h-2.7
				c-0.9,0-1.5,0.2-2,0.6c-0.4,0.4-0.6,1.1-0.6,2v3.5c0,0.9,0.2,1.5,0.6,2c0.4,0.4,1.1,0.6,2,0.6h2.7c0.9,0,1.5-0.2,2-0.6
				c0.4-0.4,0.6-1.1,0.6-2v-2.8l2,5.3h2.8l2.8-7.3v7.3h5.2v-2.4h-2.4v-0.8h2.4v-2.4h-2.4v-0.6h2.4V133.8z M372,137.5
				c0,0.6-0.1,1.1-0.4,1.4c-0.3,0.3-0.7,0.4-1.4,0.4h-2.7c-0.7,0-1.1-0.1-1.4-0.4c-0.3-0.3-0.4-0.7-0.4-1.4v-3.6
				c0-0.6,0.1-1.1,0.4-1.4c0.3-0.3,0.7-0.4,1.4-0.4h2.7c0.7,0,1.1,0.1,1.4,0.4c0.3,0.3,0.4,0.7,0.4,1.4V137.5z M377.1,139.1h-1.6
				l-2.6-6.8h1.2l2.2,6.2l2.2-6.2h1.2L377.1,139.1z M384.7,135.3v0.7h-2.4v2.4h2.4v0.7h-3.5v-6.8h3.5v0.7h-2.4v2.3L384.7,135.3
				L384.7,135.3z"/>
			<path class="st0" d="M349.7,144.4l-1.9-3.6H345v7.3l-2.8-7.3h-2.8l-2.5,6.7v-3.4h-4.2v2.2h1.4v0.8c-0.6,0-1.2,0-1.9,0
				c-0.1,0-0.1,0-0.1,0s0,0,0-0.1v-3.5c0-0.2,0-0.2,0.2-0.2h3.9v-2.4h-4.4c-0.9,0-1.5,0.2-2,0.6c-0.4,0.4-0.6,1.1-0.6,2v3.5
				c0,0.8,0.2,1.5,0.6,1.9c0.4,0.4,1,0.6,1.9,0.6c1.4,0,2.9-0.1,4.5-0.3l-0.1,0.1h3l0.5-1.4h2.2l0.5,1.4h2.6h0.5h2.3v-3.1l0.9,1.6h2
				l0.9-1.6v3.1h2.8v-8.5h-2.8L349.7,144.4z M336.1,148.4c-1.5,0.2-3,0.2-4.3,0.2c-0.6,0-1-0.1-1.3-0.4c-0.3-0.3-0.4-0.7-0.4-1.3
				v-3.5c0-0.7,0.1-1.1,0.4-1.4c0.3-0.3,0.7-0.4,1.4-0.4h3.5v0.7h-3.1c-0.7,0-1.1,0.4-1.1,1.1v3.5c0,0.4,0.1,0.6,0.3,0.7
				c0.1,0.1,0.3,0.3,0.7,0.3c0.9,0,1.6,0,2.3-0.1h0.4v-2.4h-1.4v-0.5h2.6V148.4z M343,148.5l-0.5-1.4h-3.3l-0.5,1.4h-1.2l2.6-6.8
				h1.6l2.6,6.8H343z M353.5,141.6v6.8h-1.1v-5.5l-2.2,3.9h-1l-2.2-3.9v5.5h-1.1v-6.8h1.4l2.4,4.5l2.4-4.5H353.5z"/>
			<path class="st0" d="M354.8,149.3h6.9v-2.4h-4.1v-0.8h3.2v-2.4h-3.2v-0.6h4.1v-2.4h-6.9V149.3z M355.7,141.6h5.3v0.7h-4.1v2.3
				h3.2v0.7h-3.2v2.4h4.1v0.7h-5.3V141.6z"/>
			<path class="st0" d="M380.4,140.8h-2.6l-1.6,4.5l-1.6-4.5h-3l0.1,0.2c-0.4-0.2-0.9-0.3-1.5-0.3h-2.7c-0.9,0-1.5,0.2-2,0.6
				c-0.4,0.4-0.6,1.1-0.6,2v3.5c0,0.9,0.2,1.5,0.6,2c0.4,0.4,1.1,0.6,2,0.6h2.7c0.9,0,1.5-0.2,2-0.6c0.4-0.4,0.6-1.1,0.6-2V144
				l2,5.3h2.8l2.8-7.3v7.3h5.2v-2.4h-2.4v-0.8h2.4v-2.4h-2.4v-0.6h2.4v-2.4h-4.7h-0.5V140.8z M372,146.8c0,0.7-0.1,1.1-0.4,1.4
				c-0.3,0.3-0.7,0.4-1.4,0.4h-2.7c-0.7,0-1.1-0.1-1.4-0.4c-0.3-0.3-0.4-0.7-0.4-1.4v-3.5c0-0.6,0.1-1.1,0.4-1.4
				c0.3-0.3,0.7-0.4,1.4-0.4h2.7c0.7,0,1.1,0.1,1.4,0.4c0.3,0.3,0.4,0.7,0.4,1.4V146.8z M377.1,148.5h-1.6l-2.6-6.8h1.2l2.2,6.2
				l2.2-6.2h1.2L377.1,148.5z M381.2,141.6h3.5v0.7h-2.4v2.3h2.4v0.7h-2.4v2.4h2.4v0.7h-3.5V141.6z"/>
			<path class="st0" d="M349.7,153.8l-1.9-3.6H345v7.3l-2.8-7.3h-2.8l-2.5,6.7v-3.4h-4.2v2.2h1.4v0.8c-0.6,0-1.2,0-1.9,0
				c-0.1,0-0.1,0-0.1,0v-0.1v-3.5c0-0.2,0-0.2,0.2-0.2h3.9v-2.4h-4.4c-0.9,0-1.5,0.2-2,0.6c-0.4,0.4-0.6,1.1-0.6,2v3.5
				c0,0.8,0.2,1.5,0.6,1.9c0.4,0.4,1,0.6,1.9,0.6c1.4,0,2.9-0.1,4.5-0.3l-0.1,0.1h3l0.5-1.4h2.2l0.5,1.4h2.6h0.5h2.3v-3.1l0.9,1.6h2
				l0.9-1.6v3.1h2.8v-8.5h-2.8L349.7,153.8z M336.1,157.7c-1.5,0.2-3,0.2-4.3,0.2c-0.6,0-1-0.1-1.3-0.4c-0.3-0.3-0.4-0.7-0.4-1.3
				v-3.5c0-0.6,0.1-1.1,0.4-1.4c0.3-0.3,0.7-0.4,1.4-0.4h3.5v0.7h-3.1c-0.7,0-1.1,0.4-1.1,1.1v3.5c0,0.4,0.1,0.6,0.3,0.7
				c0.1,0.1,0.3,0.3,0.7,0.3c0.9,0,1.6,0,2.3-0.1h0.4v-2.4h-1.4v-0.5h2.6V157.7z M343,157.8l-0.5-1.4h-3.3l-0.5,1.4h-1.2l2.6-6.8
				h1.6l2.6,6.8H343z M353.5,151v6.8h-1.1v-5.5l-2.2,3.9h-1l-2.2-3.9v5.5h-1.1V151h1.4l2.4,4.5l2.4-4.5H353.5z"/>
			<path class="st0" d="M354.8,158.7h6.9v-2.4h-4.1v-0.8h3.2v-2.4h-3.2v-0.6h4.1v-2.4h-6.9V158.7z M355.7,151h5.3v0.7h-4.1v2.3h3.2
				v0.7h-3.2v2.4h4.1v0.7h-5.3V151z"/>
			<path class="st0" d="M380.4,150.1h-2.6l-1.6,4.5l-1.6-4.5h-3l0.1,0.2c-0.4-0.2-0.9-0.3-1.5-0.3h-2.7c-0.9,0-1.5,0.2-2,0.6
				c-0.4,0.4-0.6,1.1-0.6,2v3.5c0,0.9,0.2,1.5,0.6,2c0.4,0.4,1.1,0.6,2,0.6h2.7c0.9,0,1.5-0.2,2-0.6c0.4-0.4,0.6-1.1,0.6-2v-2.8
				l2,5.3h2.8l2.8-7.3v7.3h5.2v-2.4h-2.4v-0.8h2.4V153h-2.4v-0.6h2.4V150h-4.7h-0.5V150.1z M372,156.2c0,0.6-0.1,1.1-0.4,1.4
				c-0.3,0.3-0.7,0.4-1.4,0.4h-2.7c-0.7,0-1.1-0.1-1.4-0.4c-0.3-0.3-0.4-0.7-0.4-1.4v-3.5c0-0.7,0.1-1.1,0.4-1.4
				c0.3-0.3,0.7-0.4,1.4-0.4h2.7c0.7,0,1.1,0.1,1.4,0.4c0.3,0.3,0.4,0.7,0.4,1.4V156.2z M377.1,157.8h-1.6l-2.6-6.8h1.2l2.2,6.2
				l2.2-6.2h1.2L377.1,157.8z M381.2,151h3.5v0.7h-2.4v2.3h2.4v0.7h-2.4v2.4h2.4v0.7h-3.5V151z"/>
		</g>
		<g>
			<path class="st0" d="M266.4,54c-8.5,0-15.5,6.9-15.5,15.5c0,8.5,6.9,15.5,15.5,15.5c8.5,0,15.5-6.9,15.5-15.5
				C281.8,60.9,274.9,54,266.4,54z M271.6,61.7c0.4,0,0.7,1.6,0.7,3.6c0,2-0.3,3.6-0.7,3.6c-0.4,0-0.7-1.6-0.7-3.6
				C270.9,63.3,271.2,61.7,271.6,61.7z M261.6,61.7c0.4,0,0.7,1.6,0.7,3.6c0,2-0.3,3.6-0.7,3.6c-0.4,0-0.7-1.6-0.7-3.6
				C260.9,63.3,261.2,61.7,261.6,61.7z M266.8,80.6c-7.1,0-12.8-5.8-12.8-12.8c0.2,0,0.5,0,0.7,0c0,6.7,5.4,12.1,12.1,12.1
				c6.7,0,12.1-5.4,12.1-12.1c0.2,0,0.5,0,0.7,0C279.6,74.8,273.8,80.6,266.8,80.6z"/>
		</g>
		<g>
			<rect x="263.5" y="39.2" class="st2" width="6.8" height="6.8"/>
			<rect x="255.6" y="39.2" class="st2" width="6.8" height="6.8"/>
			<rect x="247.7" y="39.2" class="st2" width="6.8" height="6.8"/>
			<rect x="239.7" y="55.1" class="st2" width="6.8" height="6.8"/>
			<rect x="271.4" y="39.2" class="st2" width="6.8" height="6.8"/>
			<rect x="239.7" y="39.2" class="st2" width="6.8" height="6.8"/>
			<rect x="247.7" y="47.2" class="st2" width="6.8" height="6.8"/>
			<rect x="255.6" y="94.7" class="st2" width="6.8" height="6.8"/>
			<rect x="255.6" y="86.8" class="st2" width="6.8" height="6.8"/>
			<rect x="255.6" y="102.6" class="st2" width="6.8" height="6.8"/>
			<rect x="247.7" y="102.6" class="st2" width="6.8" height="6.8"/>
			<rect x="247.7" y="94.7" class="st2" width="6.8" height="6.8"/>
			<rect x="263.5" y="102.6" class="st2" width="6.8" height="6.8"/>
			<rect x="247.7" y="86.8" class="st2" width="6.8" height="6.8"/>
			<rect x="239.7" y="78.9" class="st2" width="6.8" height="6.8"/>
			<rect x="239.7" y="70.9" class="st2" width="6.8" height="6.8"/>
			<rect x="239.7" y="86.8" class="st2" width="6.8" height="6.8"/>
			<rect x="239.7" y="102.6" class="st2" width="6.8" height="6.8"/>
			<rect x="239.7" y="63" class="st2" width="6.8" height="6.8"/>
			<rect x="239.7" y="94.7" class="st2" width="6.8" height="6.8"/>
			<rect x="239.7" y="47.2" class="st2" width="6.8" height="6.8"/>
			<rect x="287.2" y="63" class="st2" width="6.8" height="6.8"/>
			<rect x="287.2" y="70.9" class="st2" width="6.8" height="6.8"/>
			<rect x="287.2" y="78.9" class="st2" width="6.8" height="6.8"/>
			<rect x="287.2" y="86.8" class="st2" width="6.8" height="6.8"/>
			<rect x="287.2" y="94.7" class="st2" width="6.8" height="6.8"/>
			<rect x="287.2" y="102.6" class="st2" width="6.8" height="6.8"/>
			<rect x="287.2" y="39.2" class="st2" width="6.8" height="6.8"/>
			<rect x="287.2" y="55.1" class="st2" width="6.8" height="6.8"/>
			<rect x="287.2" y="47.2" class="st2" width="6.8" height="6.8"/>
			<rect x="279.3" y="47.2" class="st2" width="6.8" height="6.8"/>
			<rect x="271.4" y="94.7" class="st2" width="6.8" height="6.8"/>
			<rect x="271.4" y="86.8" class="st2" width="6.8" height="6.8"/>
			<rect x="279.3" y="102.6" class="st2" width="6.8" height="6.8"/>
			<rect x="279.3" y="39.2" class="st2" width="6.8" height="6.8"/>
			<rect x="271.4" y="102.6" class="st2" width="6.8" height="6.8"/>
			<rect x="263.5" y="94.7" class="st2" width="6.8" height="6.8"/>
			<rect x="279.3" y="94.7" class="st2" width="6.8" height="6.8"/>
			<rect x="279.3" y="86.8" class="st2" width="6.8" height="6.8"/>
			<path class="st0" d="M295.1,109.4v-6.8l0,0v-1.1l0,0v-6.8l0,0v-1.1l0,0v-6.8l0,0v-1.1l0,0v-6.8l0,0v-1.1l0,0v-6.9l0,0v-1.1l0,0
				V63l0,0v-1.1l0,0v-6.8l0,0V54l0,0v-6.8l0,0v-1.1l0,0v-6.8l0,0v-1.1l0,0v-7.6c0-0.3-0.2-0.5-0.5-0.5c-0.3,0-0.5,0.2-0.5,0.5v7.6
				h-6.8v-7.6c0-0.3-0.2-0.5-0.5-0.5c-0.3,0-0.5,0.2-0.5,0.5v7.6h-6.8v-7.6c0-0.3-0.2-0.5-0.5-0.5c-0.3,0-0.5,0.2-0.5,0.5v7.6h-6.8
				v-7.6c0-0.3-0.2-0.5-0.5-0.5c-0.3,0-0.5,0.2-0.5,0.5v7.6h-6.8v-7.6c0-0.3-0.2-0.5-0.5-0.5c-0.3,0-0.5,0.2-0.5,0.5v7.6h-6.8v-7.6
				c0-0.3-0.2-0.5-0.5-0.5s-0.5,0.2-0.5,0.5v7.6h-6.8v-7.6c0-0.3-0.2-0.5-0.5-0.5s-0.5,0.2-0.5,0.5v7.6h-6.8v-7.6
				c0-0.3-0.2-0.5-0.5-0.5s-0.5,0.2-0.5,0.5v7.6v0.1c-0.1,0.1-0.2,0.2-0.2,0.4s0.1,0.3,0.2,0.4v0.1V46v0.1c-0.1,0.1-0.2,0.2-0.2,0.4
				s0.1,0.3,0.2,0.4V47v6.8v0.1c-0.1,0.1-0.2,0.2-0.2,0.4s0.1,0.3,0.2,0.4v0.1v7.1V62c-0.1,0.1-0.2,0.2-0.2,0.4s0.1,0.3,0.2,0.4v0.1
				v6.8v0.1c-0.1,0.1-0.2,0.2-0.2,0.4s0.1,0.3,0.2,0.4v0.3v6.8v0.2c-0.1,0.1-0.2,0.2-0.2,0.4c0,0.2,0.1,0.3,0.2,0.4v0.2v6.8v0.1
				c-0.1,0.1-0.2,0.2-0.2,0.4c0,0.2,0.1,0.3,0.2,0.4v0.1v6.8v0.1c-0.1,0.1-0.2,0.2-0.2,0.4c0,0.2,0.1,0.3,0.2,0.4v0.1v6.8v0.1
				c-0.1,0.1-0.2,0.2-0.2,0.4s0.1,0.3,0.2,0.4v0.1v6.8v0.1c-0.1,0.1-0.2,0.2-0.2,0.4c0,0.2,0.1,0.3,0.2,0.4v0.1v7.6
				c0,0.3,0.2,0.5,0.5,0.5s0.5-0.2,0.5-0.5v-7.6h6.8v7.6c0,0.3,0.2,0.5,0.5,0.5s0.5-0.2,0.5-0.5v-7.6h6.8v7.6c0,0.3,0.2,0.5,0.5,0.5
				s0.5-0.2,0.5-0.5v-7.6h6.8v7.6c0,0.3,0.2,0.5,0.5,0.5c0.3,0,0.5-0.2,0.5-0.5v-7.6h6.8v7.6c0,0.3,0.2,0.5,0.5,0.5
				c0.3,0,0.5-0.2,0.5-0.5v-7.6h6.8v7.6c0,0.3,0.2,0.5,0.5,0.5c0.3,0,0.5-0.2,0.5-0.5v-7.6h6.8v7.6c0,0.3,0.2,0.5,0.5,0.5
				c0.3,0,0.5-0.2,0.5-0.5v-7.6h6.8v7.6c0,0.3,0.2,0.5,0.5,0.5c0.3,0,0.5-0.2,0.5-0.5v-7.6l0,0V109.4L295.1,109.4z M246.6,109.4
				h-6.8v-6.8h6.8V109.4z M246.6,101.5h-6.8v-6.8h6.8V101.5z M246.6,93.6h-6.8v-6.8h6.8V93.6z M246.6,85.7h-6.8v-6.8h6.8V85.7z
				 M246.6,77.8h-6.8v-6.9h6.8V77.8z M246.6,69.8h-6.8V63h6.8V69.8z M246.6,61.9h-6.8v-6.8h6.8V61.9z M246.6,54h-6.8v-6.8h6.8V54z
				 M246.6,46.1h-6.8v-6.8h6.8V46.1z M271.4,39.2h6.8v6.8h-6.8V39.2z M263.5,39.2h6.8v6.8h-6.8V39.2z M255.6,39.2h6.8v6.8h-6.8
				L255.6,39.2L255.6,39.2z M247.7,39.2h6.8v6.8h-6.8V39.2z M247.7,47.2h6.8V54h-6.8V47.2z M254.5,109.4h-6.8v-6.8h6.8V109.4z
				 M254.5,101.5h-6.8v-6.8h6.8V101.5z M254.5,93.6h-6.8v-6.8h6.8V93.6z M262.4,109.4h-6.8v-6.8h6.8V109.4z M262.4,101.5h-6.8v-6.8
				h6.8V101.5z M262.4,93.6h-6.8v-6.8h6.8V93.6z M270.3,109.4h-6.8v-6.8h6.8V109.4z M270.3,101.5h-6.8v-6.8h6.8V101.5z M278.2,109.4
				h-6.8v-6.8h6.8V109.4z M278.2,101.5h-6.8v-6.8h6.8V101.5z M278.2,93.6h-6.8v-6.8h6.8V93.6z M286.1,109.4h-6.8v-6.8h6.8V109.4z
				 M286.1,101.5h-6.8v-6.8h6.8V101.5z M286.1,93.6h-6.8v-6.8h6.8V93.6z M271.4,52.7v-5.5h6.8V54h-3.6l-0.1,0.9l0.3,0.2h3.4v2.7
				l0.1,0.1c0.1,0.1,0.1,0.1,0.2,0.2l0.8,0.9v-3.9h6.8v6.8h-4.9l0.5,1.1h4.4v6.8h-3.2l-0.1,1.1h3.2v6.8h-5.4l-0.6,1.2h6.1v6.8h-6.8
				v-5.8l-0.8,0.9c0,0.1-0.1,0.1-0.2,0.2l-0.1,0.1v4.6h-6.8v-0.5l-0.9,0.2c-0.3,0.1-0.7,0.2-1,0.2c-0.7,0.1-1.4,0.2-2.2,0.3v0.8h2.9
				v6.8h-6.8v-6.8h2v-0.8c-0.7,0-1.3-0.1-2-0.2l0,0h-0.3H263l0,0l-0.5-0.1l0,0h-0.3v0.1h-6.8v-3.8l-0.1-0.1
				c-0.1-0.1-0.2-0.2-0.3-0.2l-0.7-0.6v4.7h-6.8v-6.8h5.1l-0.7-1.1h-4.4v-6.9h2.3l-0.1-1.1h-2.2V63h3.4l0.5-1.1h-3.9v-6.8h6.8v2.8
				l1.1-1v-1.8h2.4l0.3-0.2c0.1,0,0.2-0.1,0.2-0.1l1.5-0.8h-4.4v-6.8h6.8v6.1l1.1-0.2v-5.9h6.8v6.1l0.7,0.2c0.1,0,0.3,0.1,0.4,0.1
				L271.4,52.7z M286.1,54h-6.8v-6.8h6.8V54z M286.1,46.1h-6.8v-6.8h6.8V46.1z M294,109.4h-6.8v-6.8h6.8V109.4z M294,101.5h-6.8
				v-6.8h6.8V101.5z M294,93.6h-6.8v-6.8h6.8V93.6z M294,85.7h-6.8v-6.8h6.8V85.7z M294,77.8h-6.8v-6.9h6.8V77.8z M294,69.8h-6.8V63
				h6.8V69.8z M294,61.9h-6.8v-6.8h6.8V61.9z M294,54h-6.8v-6.8h6.8V54z M294,46.1h-6.8v-6.8h6.8V46.1z"/>
		</g>
		<g>
			<path class="st1" d="M305.2,48.2l-0.3-0.1c-1.1-0.4-2.2-0.9-3.2-1.5l-0.1-0.1v-18l0.3,0.2c3.3,1.8,6.8,2.9,10.5,3.3
				c2,0.2,3.2,0.6,4,1.4c0.6,0.6,1,1.5,1.2,2.7v0.3l-0.3-0.1c-0.6-0.2-1.2-0.3-1.8-0.3c-3.7-0.4-7.1-1.4-10.4-3.2v15.4H305.2z
				 M302.1,46.3c0.9,0.5,1.8,0.9,2.7,1.3V31.9l0.3,0.2c3.3,1.8,6.8,2.9,10.5,3.3c0.5,0.1,1.1,0.1,1.6,0.3c-0.2-0.9-0.5-1.6-1-2.1
				c-0.7-0.7-1.9-1.1-3.7-1.3c-3.7-0.4-7.1-1.4-10.4-3.2V46.3z"/>
			<path class="st1" d="M327.4,48.5v-3.9h0.2c1.8-0.5,3.8-1,6-1.7l0.3-0.1v3.9h-0.1c-2.3,0.7-4.2,1.3-6.1,1.7L327.4,48.5z
				 M327.8,44.9V48c1.7-0.4,3.5-0.9,5.7-1.6v-3.1C331.3,43.9,329.5,44.4,327.8,44.9z"/>
			<path class="st1" d="M319.7,49.9v-3.2v-0.1c0.6-0.8,0.8-1.9,0.8-3.3v-2.5c0-1.4-0.3-2.5-0.8-3.3v-0.1v-5.5h0.2
				c1.4-0.2,2.9-0.4,4.5-0.7h0.2v4.5l-0.5,0.1c-0.3,0-0.6,0.1-0.9,0.1v13.6H323c-1.1,0.2-2.2,0.4-3.2,0.5L319.7,49.9z M320.1,46.9
				v2.6c0.9-0.1,1.8-0.2,2.7-0.4V35.3h0.2c0.4,0,0.7-0.1,1.1-0.1h0.1v-3.7c-1.5,0.3-2.8,0.5-4.1,0.7v5.2c0.6,0.8,0.9,2,0.9,3.5v2.5
				C321,44.8,320.7,46,320.1,46.9z"/>
			<path class="st1" d="M333.3,46.8l0.1-0.4c1.2-3.5,2.4-7.1,3.6-10.6c1-3,2.1-6.1,3.1-9.1v-0.1h0.1c2-0.6,3.6-1.1,5-1.5h0.2
				l0.1,0.2c0.6,1.3,1.1,2.7,1.7,4l0.1,0.2l-0.2,0.1c-1.2,0.4-2.4,0.7-3.5,1c-0.4,1.2-3.7,11-3.7,11l-0.4,1.1l-0.8,2.5h-0.1
				c0,0-3.2,1-4.9,1.5L333.3,46.8z M340.5,26.8c-1,3-2,6-3,9c-1.2,3.4-2.3,6.8-3.5,10.3c1.5-0.5,3.9-1.2,4.4-1.4l1.1-3.4
				c0,0,3.6-10.6,3.8-11.1v-0.1h0.1c1.1-0.3,2.2-0.7,3.4-1c-0.5-1.2-1-2.4-1.5-3.6C343.8,25.8,342.3,26.3,340.5,26.8z"/>
			<path class="st1" d="M361.3,35.7l-0.2-0.4c-0.7-1.4-1.7-3.4-2.5-5v-0.1v-0.1c1.3-2.6,2.4-4.9,3.5-7l0.1-0.1h0.1
				c1.6,0.2,3.3,0.5,4.8,1l0.2,0.1l-0.1,0.2c-0.5,0.8-1,1.7-1.5,2.6l-0.1,0.1h-0.1c-0.1,0.3-0.3,0.5-0.4,0.8l-0.3,0.5
				c-0.7,1.1-1.3,2.5-1.9,3.7c-0.5,1-1,2.1-1.5,3.1L361.3,35.7z M359.1,30.3c0.7,1.4,1.6,3.1,2.2,4.5c0.5-0.9,0.9-1.9,1.4-2.8
				c0.6-1.3,1.2-2.6,1.9-3.7l0.3-0.5c0.2-0.3,0.3-0.6,0.5-0.9l0.1-0.1h0.1c0.4-0.8,0.9-1.5,1.3-2.3c-1.4-0.4-2.9-0.7-4.4-0.9
				C361.4,25.6,360.3,27.8,359.1,30.3z"/>
			<path class="st1" d="M355.7,41.1v-4.8c-2.1-3.9-4.3-7.8-6.6-11.9l-0.1-0.2l0.3-0.1c1.7-0.4,3.3-0.6,4.8-0.8h0.1l0.1,0.1
				c0.6,1.2,1.3,2.5,1.9,3.8l0.1,0.2H356c-1.2,0.2-2.3,0.4-3.3,0.6c2.4,4.1,4.5,7.9,6.5,11.7v0.1V41H359c-1.2,0-2.2,0-3.1,0.1H355.7
				z M349.6,24.4c2.4,4.1,4.5,7.9,6.5,11.7v0.1v4.4c0.8-0.1,1.7-0.1,2.7-0.1v-0.7c-2.1-3.9-4.3-7.8-6.6-11.9l-0.1-0.2l0.3-0.1
				c1-0.2,2.1-0.4,3.3-0.6c-0.6-1.1-1.1-2.3-1.7-3.4C352.5,23.8,351.1,24.1,349.6,24.4z"/>
		</g>
		<g>
			<path class="st1" d="M304.1,78l-0.2-0.1c-1.3-0.6-2.6-1.3-3.9-2.1l-0.2-0.1l0.1-0.2c2.1-4.3,4.4-9.2,6.7-14.5l0.1-0.2l0.2,0.1
				c1.6,0.5,3.3,0.9,5,1.1h0.1v0.1c0.4,1.1,0.8,2.1,1.1,3.1l0.2,0.4l-0.3-0.1c-1-0.2-2-0.4-2.9-0.7c-2,4.6-3.9,8.9-5.9,12.8
				L304.1,78z M300.4,75.5c1.1,0.7,2.3,1.3,3.5,1.9c1.9-3.9,3.9-8.3,5.9-12.8l0.1-0.2l0.2,0.1c0.9,0.3,1.8,0.5,2.7,0.7
				c-0.3-0.9-0.7-1.9-1-2.8c-1.6-0.2-3.2-0.6-4.8-1.1C304.7,66.6,302.5,71.3,300.4,75.5z"/>
			<path class="st1" d="M327.4,78.7v-3.9h0.2c1.8-0.5,3.8-1,6-1.7l0.3-0.1v3.9h-0.1c-2.3,0.7-4.2,1.3-6.1,1.7L327.4,78.7z
				 M327.8,75.1v3.1c1.7-0.4,3.5-0.9,5.7-1.6v-3.1C331.3,74.1,329.5,74.7,327.8,75.1z"/>
			<path class="st1" d="M320.2,80.1l-0.5-1.3V62.1h0.2c1.4-0.2,2.9-0.4,4.5-0.7h0.2v4.5h-0.5c-0.3,0-0.6,0.1-0.9,0.1v13.6H323
				c-0.9,0.2-1.8,0.3-2.7,0.4L320.2,80.1z M320.1,78.7l0.4,1c0.8-0.1,1.6-0.2,2.4-0.4V65.7h0.2c0.4,0,0.7-0.1,1.1-0.1h0.2v-3.7
				c-1.4,0.3-2.8,0.5-4.1,0.7v16.1H320.1z"/>
			<path class="st1" d="M335.2,76.5V58.4l2-0.6c0.9-0.3,1.8-0.6,2.6-0.8l0.3-0.1v5l-1.4,0.4v13.1L335.2,76.5z M335.6,58.7v17.2
				l2.7-0.9V62l1.4-0.4v-4.2c-0.8,0.2-1.6,0.5-2.4,0.7L335.6,58.7z"/>
			<path class="st1" d="M342.9,74.1v-3.9h0.1c2.4-0.7,4.3-1.2,6.1-1.6l0.2-0.1v0.2c0,1.2,0,2.4,0,3.5v0.2h-0.2
				c-1.8,0.4-3.7,0.9-6,1.6L342.9,74.1z M343.3,70.4v3.1c2.2-0.6,4-1.1,5.7-1.5c0-1,0-2.1,0-3.1C347.2,69.3,345.4,69.8,343.3,70.4z"
				/>
		</g>
		<g>
			<path class="st0" d="M305,32.3c3.5,1.9,7.1,2.9,10.6,3.3c1.8,0.2,3,0.6,3.8,1.4c0.8,0.8,1.2,2,1.2,3.8c0,0.8,0,1.7,0,2.5
				c0,1.8-0.4,3.1-1.2,3.9c-0.8,0.8-2.1,1.2-3.8,1c-2-0.2-4-0.6-6-1.3c0,1.7,0,3.4,0,5c-1.5-0.5-3-1.2-4.5-2
				C305,44.1,305,38.1,305,32.3z M316.2,40.7c0-1-0.5-1.5-1.5-1.7c-1.7-0.2-3.4-0.6-5-1.2c0,1.8,0,3.7,0,5.5c1.7,0.6,3.4,1,5,1.2
				c1,0.1,1.5-0.3,1.5-1.3C316.2,42.4,316.2,41.5,316.2,40.7z"/>
			<path class="st0" d="M327.6,49c3.1-0.6,6.1-1.5,9.2-2.4c0,1.2,0,2.4,0,3.5c-4.6,1.4-9.2,2.7-13.7,3.2c0-5.9,0-11.8,0-17.6
				c1.5-0.2,3-0.4,4.5-0.7C327.6,39.5,327.6,44.3,327.6,49z"/>
			<path class="st0" d="M341.7,48.5c-1.6,0.5-3.3,1-4.9,1.5c2.2-6.6,4.5-13.2,6.7-19.7c1.7-0.5,3.4-1,5-1.5
				c2.2,5.3,4.5,10.6,6.7,16.1c-1.6,0.3-3.3,0.6-4.9,1c-0.4-1-0.8-1.9-1.1-2.9c-2.1,0.6-4.2,1.2-6.3,1.8
				C342.4,46.2,342,47.4,341.7,48.5z M343.9,41.3c1.3-0.4,2.7-0.8,4-1.2c-0.7-1.8-1.3-3.6-2-5.3C345.3,37,344.6,39.1,343.9,41.3z"/>
			<path class="st0" d="M352.4,27.8c1.6-0.3,3.2-0.6,4.8-0.8c1.4,2.7,2.8,5.4,4.2,8.3c1.4-2.9,2.8-5.7,4.2-8.3
				c1.6,0.2,3.2,0.5,4.8,1c-2.2,3.6-4.5,7.6-6.7,11.8c0,1.6,0,3.1,0,4.7c-1.5-0.1-3-0.1-4.5,0c0-1.6,0-3.1,0-4.7
				C356.8,35.6,354.6,31.7,352.4,27.8z"/>
			<path class="st0" d="M308.2,81.7c-1.6-0.7-3.3-1.5-4.9-2.5c2.2-4.5,4.5-9.3,6.7-14.5c1.7,0.5,3.4,0.9,5,1.1
				c2.2,6.2,4.5,12.1,6.7,17.8c-1.6,0.1-3.3,0.1-4.9,0c-0.4-1.1-0.8-2.2-1.1-3.2c-2.1-0.2-4.2-0.7-6.3-1.4
				C308.9,79.9,308.6,80.8,308.2,81.7z M310.4,76.1c1.3,0.4,2.7,0.7,4,0.9c-0.7-2.1-1.3-4.2-2-6.3C311.8,72.5,311.1,74.3,310.4,76.1
				z"/>
			<path class="st0" d="M327.6,79.2c3.1-0.6,6.1-1.5,9.2-2.4c0,1.2,0,2.4,0,3.5c-4.6,1.4-9.2,2.7-13.7,3.2c0-5.9,0-11.8,0-17.6
				c1.5-0.2,3-0.4,4.5-0.7C327.6,69.8,327.6,74.5,327.6,79.2z"/>
			<path class="st0" d="M343.1,74.8c3.1-1,6.1-1.9,9.2-2.5c0,1.2,0,2.4,0,3.5c-4.6,1-9.2,2.5-13.7,4c0-5.9,0-11.8,0-17.6
				c1.5-0.5,3-1,4.5-1.4C343.1,65.4,343.1,70.1,343.1,74.8z"/>
			<path class="st0" d="M318,96.3c1,3.8,2,7.6,3,11.3c0.9-3.8,1.8-7.7,2.6-11.6c1.6-0.2,3.3-0.5,4.9-0.9c-1.6,6.2-3.2,12.4-4.8,18.5
				c-1.6,0.2-3.2,0.3-4.8,0.3c-1-3.7-2-7.4-3-11.1c-1,3.6-2,7.1-3,10.5c-1.6-0.3-3.2-0.8-4.8-1.4c-1.6-6.5-3.2-13.2-4.8-20.1
				c1.6,1,3.3,1.9,4.9,2.5c0.9,4.1,1.8,8.2,2.6,12.2c1-3.5,2-7,3-10.7C315.3,96.1,316.6,96.2,318,96.3z"/>
			<path class="st0" d="M343.8,108.3c-4.7,1.4-9.3,3-14,4.1c0-5.9,0-11.8,0-17.6c4.7-1.1,9.3-2.7,14-4.1c0,1.2,0,2.4,0,3.5
				c-3.1,1-6.3,2-9.4,2.9c0,1.1,0,2.3,0,3.4c2.5-0.7,5-1.5,7.4-2.3c0,1.2,0,2.4,0,3.5c-2.5,0.8-5,1.6-7.4,2.3c0,1.2,0,2.4,0,3.7
				c3.1-0.9,6.3-2,9.4-2.9C343.8,106,343.8,107.2,343.8,108.3z"/>
			<path class="st0" d="M359.8,105c-4.7,0.3-9.3,1.4-14,2.8c0-5.9,0-11.8,0-17.6c4.7-1.4,9.3-2.5,14-2.8c0,1.2,0,2.4,0,3.5
				c-3.1,0.2-6.3,0.7-9.4,1.5c0,1.1,0,2.3,0,3.4c2.5-0.6,5-1.1,7.4-1.4c0,1.2,0,2.4,0,3.5c-2.5,0.3-5,0.7-7.4,1.4c0,1.2,0,2.4,0,3.7
				c3.1-0.8,6.3-1.4,9.4-1.5C359.8,102.6,359.8,103.8,359.8,105z"/>
			<path class="st0" d="M366.4,105.3c-1.5-0.2-3-0.3-4.5-0.3c0-5.9,0-11.8,0-17.6c1.5,0,3,0.1,4.5,0.3c0,2.3,0,4.6,0,6.9
				c0.8,0.1,1.5,0.3,2.3,0.4c1.3-2,2.6-3.9,3.9-5.7c1.6,0.6,3.2,1.5,4.8,2.5c-1.6,1.9-3.3,3.9-4.9,6.2c1.6,3.6,3.3,7.4,4.9,11.5
				c-1.6-1-3.2-1.8-4.8-2.5c-1.3-2.9-2.6-5.7-3.9-8.4c-0.8-0.2-1.5-0.3-2.3-0.4C366.4,100.5,366.4,102.9,366.4,105.3z"/>
		</g>
		<g>
			<path class="st1" d="M315.9,110.6L315.9,110.6h-0.2v-0.1c-0.3-1-0.6-2.1-0.8-3.1l-0.2-0.6l0.1-0.2c0.4-1.3,0.7-2.5,1.1-3.8
				l0.2-0.7l0.2,0.7c0.7,2.5,1.3,5,2,7.4l0.1,0.2h-0.2C317.2,110.5,316.5,110.6,315.9,110.6z M315.1,106.7l0.1,0.5
				c0.3,1,0.5,2,0.8,2.9c0.5,0,1.1,0,1.7-0.1c-0.6-2.2-1.2-4.3-1.8-6.5C315.7,104.6,315.4,105.6,315.1,106.7L315.1,106.7z"/>
			<path class="st1" d="M307.7,109.5l-0.3-0.1c-0.9-0.3-1.7-0.5-2.5-0.9h-0.1v-0.1c-1.6-6.6-3.2-13.4-4.8-20.1l-0.1-0.5l0.4,0.3
				c1.6,1,3.2,1.8,4.9,2.5h0.1l0.6,2.9l-0.4-0.2c-0.6-0.3-1.3-0.7-1.9-1.1c1.3,5.6,2.6,11.1,4,16.9L307.7,109.5z M305.1,108.2
				c0.7,0.3,1.3,0.5,2,0.7c-1.4-5.8-2.7-11.4-4-17.1l-0.1-0.5l0.4,0.3c0.6,0.4,1.2,0.8,1.9,1.1l-0.4-1.8c-1.5-0.6-3-1.4-4.4-2.2
				C302,95.2,303.5,101.7,305.1,108.2z"/>
			<path class="st1" d="M310.8,107.4l-0.2-0.8c-0.4-1.6-0.7-3.5-1.1-5.2c-0.2-1-0.4-2.1-0.7-3.1l0,0l0,0c0.6-2,1.1-3.9,1.7-5.9v-0.2
				h0.2c1.3,0.2,2.6,0.3,4,0.4h0.1v0.1c0.2,0.9,0.5,1.7,0.7,2.5l0.3,1.2h-0.3c-0.6-0.1-1.1-0.1-1.6-0.2c-0.4,1.3-1,3.5-1,3.5l0,0
				c0,0-1.3,4.7-2,7L310.8,107.4z M309.3,98.3c0.2,1,0.4,2,0.6,3c0.3,1.5,0.6,3,1,4.5c0.7-2.4,1.8-6.2,1.8-6.2s0.7-2.5,1-3.7v-0.2
				h0.2c0.5,0.1,0.9,0.1,1.5,0.2l-0.2-0.6c-0.2-0.8-0.4-1.6-0.6-2.4c-1.3,0-2.5-0.2-3.7-0.4C310.3,94.5,309.8,96.4,309.3,98.3z"/>
			<path class="st1" d="M321,108.4l-0.2-0.8c-0.7-2.6-1.4-5.3-2.1-8l0,0l0.2-1c0.5-2.1,0.9-4.1,1.4-6.2v-0.1h0.1
				c1.5-0.2,3.1-0.5,4.9-0.9l0.3-0.1l-0.1,0.3c-0.2,0.9-0.5,1.8-0.7,2.6l-0.5,1.8h-0.1c-0.1,0-0.2,0-0.3,0s-0.2,0-0.2,0
				c-0.9,3.8-1.7,7.7-2.6,11.4L321,108.4z M319.1,99.6c0.6,2.4,1.3,4.8,1.9,7.2c0.8-3.6,1.6-7.2,2.5-10.8v-0.1h0.1
				c0.1,0,0.2,0,0.4-0.1c0.1,0,0.1,0,0.2,0l0.4-1.6c0.2-0.8,0.4-1.6,0.6-2.3c-1.6,0.3-3.1,0.6-4.5,0.8c-0.5,2-0.9,4-1.4,6.1
				L319.1,99.6z"/>
			<path class="st1" d="M334.2,99.8V97h0.1c1.4-0.4,2.8-0.9,4.3-1.3l0.3-0.1v2.8l-0.8,0.2c-1.2,0.4-2.4,0.8-3.7,1.1L334.2,99.8z
				 M334.6,97.3v2c1.1-0.4,2.3-0.7,3.4-1.1l0.5-0.2v-1.9C337.2,96.5,335.9,96.9,334.6,97.3z"/>
			<path class="st1" d="M326.5,109.2v-6.8c0.6-2.3,1.2-4.7,1.8-7c-0.5,0.1-1,0.2-1.6,0.3h-0.2v-4.6h0.2c3.5-0.8,7.1-2,10.5-3.1
				c1.2-0.4,2.3-0.7,3.5-1.1l0.3-0.1v3.9h-0.1c-1.1,0.4-2.3,0.7-3.4,1.1c-1.9,0.6-3.9,1.2-5.9,1.8v0.9h-0.2c-0.2,0-0.3,0.1-0.5,0.1
				c-0.2,0.1-0.5,0.1-0.7,0.2V108h-0.1c-1.3,0.4-2.2,0.6-3.1,0.8L326.5,109.2z M326.9,102.5v6.2c0.8-0.2,1.7-0.4,2.7-0.7V94.7h0.2
				c0.3-0.1,0.6-0.1,0.9-0.2c0.1,0,0.2-0.1,0.4-0.1v-0.9h0.1c2-0.6,4-1.2,6-1.8c1.1-0.3,2.2-0.7,3.3-1v-3.1c-1.1,0.3-2.1,0.7-3.2,1
				c-3.4,1.1-6.9,2.2-10.4,3v3.8c0.5-0.1,1.1-0.2,1.6-0.3l0.3-0.1l-0.1,0.3C328.1,97.6,327.5,100.1,326.9,102.5z"/>
			<path class="st1" d="M334.2,107v-3.1h0.1c2-0.6,4-1.2,6-1.9l0.6-0.2v3h-0.1c-1.2,0.4-2.3,0.7-3.5,1.1c-0.9,0.3-1.9,0.6-2.8,0.9
				L334.2,107z M334.6,104.3v2.2c0.8-0.3,1.7-0.5,2.5-0.8c1.1-0.4,2.3-0.7,3.4-1.1v-2.2l0,0C338.5,103,336.5,103.7,334.6,104.3z"/>
			<path class="st1" d="M350.2,95.3v-3.1h0.2c1.4-0.4,2.9-0.7,4.3-0.9h0.2v3.1h-0.2c-1.2,0.2-2.4,0.5-3.5,0.7L350.2,95.3z
				 M350.6,92.5v2.2l0.5-0.1c1.1-0.3,2.2-0.5,3.4-0.7v-2.2C353.2,91.9,351.9,92.2,350.6,92.5z"/>
			<path class="st1" d="M350.2,102.5v-3.3h0.2c2.2-0.6,4.3-1,6.3-1.2h0.2v0.2c0,0.6,0,1,0,1.4s0,0.8,0,1.4v0.2h-0.2
				c-1.7,0.2-3.5,0.7-5.2,1.1c-0.4,0.1-0.7,0.2-1.1,0.3L350.2,102.5z M350.6,99.5v2.5c0.3-0.1,0.5-0.1,0.8-0.2
				c1.6-0.4,3.3-0.8,5-1.1c0-0.5,0-0.8,0-1.2c0-0.3,0-0.7,0-1.1C354.6,98.6,352.7,99,350.6,99.5z"/>
			<path class="st1" d="M342.5,104.4v-10l1.1-0.4v-3.1l-1.1,0.4v-5h0.1c4.1-1.2,9-2.5,14-2.8h0.2v3.4h-0.2c-2.6,0.3-5.3,0.9-7.8,1.6
				c-0.5,0.1-1,0.2-1.5,0.4v1h-0.1c-0.4,0.1-0.8,0.2-1.2,0.4v13.2h-0.1c-1,0.3-2.1,0.6-3.1,0.9H342.5z M342.9,94.7v9.1
				c0.9-0.3,1.8-0.5,2.7-0.8V90h0.1c0.4-0.1,0.8-0.2,1.2-0.4v-0.9h0.2c0.5-0.1,1.1-0.3,1.6-0.4c2.5-0.6,5.1-1.3,7.7-1.6V84
				c-4.9,0.3-9.6,1.5-13.6,2.7v4.1l1.1-0.4v3.9L342.9,94.7z"/>
			<path class="st1" d="M368.7,95.2h-0.1c-0.7-0.2-1.5-0.3-2.3-0.4h-0.2v-4.7V90c1.1-1.7,2.1-3.1,3.1-4.4l0.1-0.1l0.1,0.1
				c1.6,0.7,3.3,1.5,4.8,2.5l0.2,0.1l-0.2,0.2c-0.4,0.4-0.8,0.9-1.1,1.3l-0.1,0.1l-0.3-0.1c0,0-0.1,0-0.1-0.1
				c-1.2,1.7-2.5,3.6-3.8,5.5L368.7,95.2z M366.6,94.4c0.7,0.1,1.3,0.2,2,0.4c1.3-2,2.6-3.9,3.9-5.6l0.1-0.1l0.1,0.1
				c0.1,0,0.2,0.1,0.3,0.1h0.1c0.3-0.4,0.6-0.7,0.9-1c-1.4-0.9-2.9-1.7-4.4-2.3c-0.9,1.2-1.8,2.6-2.9,4.2v4.2H366.6z"/>
			<path class="st1" d="M371.7,104.7l-0.5-0.2c-0.7-0.3-1.3-0.6-1.9-0.9h-0.1v-0.1c-0.7-1.6-1.5-3.2-2.4-5.2l-0.2-0.3l0.4,0.1
				c0.6,0.1,1.1,0.2,1.6,0.3h0.1v0.1c0.8,1.7,1.7,3.5,2.7,5.7L371.7,104.7z M369.6,103.2c0.4,0.2,0.9,0.4,1.3,0.6
				c-0.9-1.9-1.7-3.6-2.4-5.1c-0.3-0.1-0.7-0.2-1.1-0.2C368.2,100.2,368.9,101.7,369.6,103.2z"/>
			<path class="st1" d="M358.7,101.8L358.7,101.8h-0.3v-0.2c0-1.7,0-3.5,0-5.3c0-1.8,0-3.6,0-5.3v-0.2l0.6-0.1c0.2,0,0.4,0,0.6,0
				v-3.1c-0.2,0-0.5,0-0.7,0.1h-0.5v-4.1h0.2c1.6,0,3.1,0.1,4.6,0.3h0.2v3.7h-0.5c-0.3,0-0.6,0-0.9,0v14.2h-0.2c-0.6,0-1.2,0-1.8,0
				C359.6,101.8,359.2,101.8,358.7,101.8z M358.9,91.1c0,1.7,0,3.4,0,5.1c0,1.7,0,3.5,0,5.1c0.4,0,0.8,0,1.2,0c0.5,0,1,0,1.6,0V87.1
				h0.2c0.4,0,0.7,0,1.1,0h0.1v-2.9c-1.3-0.2-2.7-0.3-4.1-0.3v3.3l0,0c0.3,0,0.6-0.1,0.9-0.1h0.2V91h-0.2c-0.2,0-0.5,0-0.7,0.1
				H358.9z"/>
		</g>
	</g>
	<rect x="370.4" y="220.8" class="st2" width="7.5" height="7.5"/>
	<g>
		<path class="st0" d="M305.2,48.1l-0.3-0.1c-1.1-0.4-2.2-0.9-3.2-1.5l-0.1-0.1V28.2l0.3,0.2c3.3,1.8,6.8,2.9,10.5,3.3
			c2,0.2,3.2,0.6,4,1.4c0.6,0.6,1,1.5,1.2,2.7v0.3l-0.3-0.1c-0.6-0.2-1.2-0.3-1.8-0.3c-3.7-0.4-7.1-1.4-10.4-3.2v15.5H305.2z
			 M302,46.2c0.9,0.5,1.8,0.9,2.7,1.3V31.8L305,32c3.3,1.8,6.8,2.9,10.5,3.3c0.5,0.1,1.1,0.1,1.6,0.3c-0.2-0.9-0.5-1.6-1-2.1
			c-0.7-0.7-1.9-1.1-3.7-1.3c-3.7-0.4-7.1-1.4-10.4-3.2V46.2z"/>
		<path class="st0" d="M327.3,48.4v-3.9h0.2c1.8-0.5,3.8-1,6-1.7l0.3-0.1v3.9h-0.1c-2.3,0.7-4.2,1.3-6.1,1.7L327.3,48.4z
			 M327.7,44.7v3.2c1.7-0.4,3.5-0.9,5.7-1.6v-3.1C331.3,43.8,329.4,44.3,327.7,44.7z"/>
		<path class="st0" d="M319.6,49.8v-3.2v-0.1c0.6-0.8,0.8-1.9,0.8-3.3v-2.5c0-1.4-0.3-2.5-0.8-3.3v-0.1v-5.7h0.2
			c1.4-0.2,2.9-0.4,4.5-0.7h0.2v4.5l-0.5,0.1c-0.3,0-0.6,0.1-0.9,0.1v13.6h-0.2c-1.1,0.2-2.2,0.4-3.2,0.5L319.6,49.8z M320,46.8v2.6
			c0.9-0.1,1.8-0.2,2.7-0.4V35.2h0.2c0.4,0,0.7-0.1,1.1-0.1h0.1v-3.7c-1.5,0.3-2.8,0.5-4.1,0.7v5.2c0.6,0.8,0.9,2,0.9,3.5v2.5
			C320.9,44.7,320.6,45.9,320,46.8z"/>
		<path class="st0" d="M333.2,46.7l0.1-0.4c1.2-3.5,2.4-7.1,3.6-10.6c1-3,2.1-6.1,3.1-9.1v-0.1h0.1c2-0.6,3.6-1.1,5-1.5h0.2l0.1,0.2
			c0.6,1.3,1.1,2.7,1.7,4l0.1,0.2l-0.2,0.1c-1.2,0.4-2.4,0.7-3.5,1c-0.4,1.2-3.7,11-3.7,11l-0.4,1.1l-0.8,2.5h-0.1
			c0,0-3.2,1-4.9,1.5L333.2,46.7z M340.4,26.7c-1,3-2,6-3,9c-1.2,3.4-2.3,6.8-3.5,10.3c1.5-0.5,3.9-1.2,4.4-1.4l1.1-3.4
			c0,0,3.6-10.6,3.8-11.1V30h0.1c1.1-0.3,2.2-0.7,3.4-1c-0.5-1.2-1-2.4-1.5-3.6C343.8,25.7,342.2,26.2,340.4,26.7z"/>
		<path class="st0" d="M361.2,35.6l-0.2-0.4c-0.7-1.4-1.7-3.4-2.5-5v-0.1V30c1.3-2.6,2.4-4.9,3.5-7l0.1-0.1h0.1
			c1.6,0.2,3.3,0.5,4.8,1l0.2,0.1l-0.1,0.2c-0.5,0.8-1,1.7-1.5,2.6l-0.1,0.1h-0.1c-0.1,0.3-0.3,0.5-0.4,0.8l-0.3,0.5
			c-0.7,1.1-1.3,2.5-1.9,3.7c-0.5,1-1,2.1-1.5,3.1L361.2,35.6z M359,30.2c0.7,1.4,1.6,3.1,2.2,4.5c0.5-0.9,0.9-1.9,1.4-2.8
			c0.6-1.3,1.2-2.6,1.9-3.7l0.3-0.5c0.2-0.3,0.3-0.6,0.5-0.9l0.1-0.1h0.1c0.4-0.8,0.9-1.5,1.3-2.3c-1.4-0.4-2.9-0.7-4.4-0.9
			C361.3,25.5,360.2,27.7,359,30.2z"/>
		<path class="st0" d="M355.6,41v-4.8c-2.1-3.9-4.3-7.8-6.6-11.9l-0.1-0.2l0.3-0.1c1.7-0.4,3.3-0.6,4.8-0.8h0.1l0.1,0.1
			c0.6,1.2,1.3,2.5,1.9,3.8l0.1,0.2h-0.3c-1.2,0.2-2.3,0.4-3.3,0.6c2.4,4.1,4.5,7.9,6.5,11.7v0.1v1.2h-0.2c-1.2,0-2.2,0-3.1,0.1
			H355.6z M349.5,24.3c2.4,4.1,4.5,7.9,6.5,11.7v0.1v4.4c0.8-0.1,1.7-0.1,2.7-0.1v-0.7c-2.1-3.9-4.3-7.8-6.6-11.9l-0.1-0.2l0.3-0.1
			c1-0.2,2.1-0.4,3.3-0.6c-0.6-1.1-1.1-2.3-1.7-3.4C352.5,23.7,351,23.9,349.5,24.3z"/>
	</g>
	<g>
		<path class="st3" d="M304,77.8l-0.2-0.1c-1.3-0.6-2.6-1.3-3.9-2.1l-0.2-0.1l0.1-0.2c2.1-4.3,4.4-9.2,6.7-14.5l0.1-0.2l0.2,0.1
			c1.6,0.5,3.3,0.9,5,1.1h0.1v0.1c0.4,1.1,0.8,2.1,1.1,3.1l0.2,0.4l-0.3-0.1c-1-0.2-2-0.4-2.9-0.7c-2,4.6-3.9,8.9-5.9,12.8L304,77.8
			z M300.3,75.4c1.1,0.7,2.3,1.3,3.5,1.9c1.9-3.9,3.9-8.3,5.9-12.8l0.1-0.2l0.2,0.1c0.9,0.3,1.8,0.5,2.7,0.7c-0.3-0.9-0.7-1.9-1-2.8
			c-1.6-0.2-3.2-0.6-4.8-1.1C304.6,66.5,302.4,71.2,300.3,75.4z"/>
		<path class="st3" d="M327.3,78.6v-3.9h0.2c1.8-0.5,3.8-1,6-1.7l0.3-0.1v3.9h-0.1c-2.3,0.7-4.2,1.3-6.1,1.7L327.3,78.6z M327.7,75
			v3.1c1.7-0.4,3.5-0.9,5.7-1.6v-3.1C331.3,74,329.4,74.5,327.7,75z"/>
		<path class="st3" d="M320.1,80l-0.5-1.3V62h0.2c1.4-0.2,2.9-0.4,4.5-0.7h0.2v4.5l-0.5,0.1c-0.3,0-0.6,0.1-0.9,0.1v13.6h-0.2
			c-0.9,0.2-1.8,0.3-2.7,0.4L320.1,80z M320,78.6l0.4,1c0.8-0.1,1.6-0.2,2.4-0.4V65.6h0.2c0.4,0,0.7-0.1,1.1-0.1h0.2v-3.7
			c-1.4,0.3-2.8,0.5-4.1,0.7v16.1H320z"/>
		<path class="st3" d="M335.1,76.4V58.3l2-0.6c0.9-0.3,1.8-0.6,2.6-0.8l0.3-0.1v5l-1.4,0.4v13.1L335.1,76.4z M335.5,58.6v17.2
			l2.7-0.9v-13l1.4-0.4v-4.2c-0.8,0.2-1.6,0.5-2.4,0.7L335.5,58.6z"/>
		<path class="st3" d="M342.8,74v-3.9h0.1c2.4-0.7,4.3-1.2,6.1-1.6l0.2-0.1v0.2c0,1.2,0,2.4,0,3.5v0.2H349c-1.8,0.4-3.7,0.9-6,1.6
			L342.8,74z M343.2,70.3v3.1c2.2-0.6,4-1.1,5.7-1.5c0-1,0-2.1,0-3.1C347.2,69.2,345.4,69.7,343.2,70.3z"/>
	</g>
	<g>
		<path class="st0" d="M315.8,110.4L315.8,110.4h-0.2v-0.1c-0.3-1-0.6-2.1-0.8-3.1l-0.2-0.6l0.1-0.2c0.4-1.3,0.7-2.5,1.1-3.8
			l0.2-0.7l0.2,0.7c0.7,2.5,1.3,5,2,7.4l0.1,0.2h-0.2C317.1,110.4,316.4,110.4,315.8,110.4z M315,106.6l0.1,0.5c0.3,1,0.5,2,0.8,2.9
			c0.5,0,1.1,0,1.7-0.1c-0.6-2.2-1.2-4.3-1.8-6.5C315.6,104.5,315.3,105.5,315,106.6L315,106.6z"/>
		<path class="st0" d="M307.6,109.4l-0.3-0.1c-0.9-0.3-1.7-0.5-2.5-0.9h-0.1v-0.1c-1.6-6.6-3.2-13.4-4.8-20.1l-0.1-0.5l0.4,0.3
			c1.6,1,3.2,1.8,4.9,2.5h0.1l0.6,2.9l-0.4-0.2c-0.6-0.3-1.3-0.7-1.9-1.1c1.3,5.6,2.6,11.1,4,16.9L307.6,109.4z M305,108.1
			c0.7,0.3,1.3,0.5,2,0.7c-1.4-5.8-2.7-11.4-4-17.1l-0.1-0.5l0.4,0.3c0.6,0.4,1.2,0.8,1.9,1.1l-0.4-1.8c-1.5-0.6-3-1.4-4.4-2.2
			C301.9,95.1,303.4,101.6,305,108.1z"/>
		<path class="st0" d="M310.7,107.3l-0.2-0.8c-0.4-1.6-0.7-3.5-1.1-5.2c-0.2-1-0.4-2.1-0.7-3.1l0,0l0,0c0.6-2,1.1-3.9,1.7-5.9v-0.2
			h0.2c1.3,0.2,2.6,0.3,4,0.4h0.1v0.1c0.2,0.9,0.5,1.7,0.7,2.5l0.3,1.2h-0.3c-0.6-0.1-1.1-0.1-1.6-0.2c-0.4,1.3-1,3.5-1,3.5l0,0
			c0,0-1.3,4.7-2,7L310.7,107.3z M309.2,98.2c0.2,1,0.4,2,0.6,3c0.3,1.5,0.6,3,1,4.5c0.7-2.4,1.8-6.2,1.8-6.2s0.7-2.5,1-3.7v-0.2
			h0.2c0.5,0.1,0.9,0.1,1.5,0.2l-0.2-0.6c-0.2-0.8-0.4-1.6-0.6-2.4c-1.3,0-2.5-0.2-3.7-0.4C310.3,94.4,309.7,96.3,309.2,98.2z"/>
		<path class="st0" d="M321,108.3l-0.2-0.8c-0.7-2.6-1.4-5.3-2.1-8l0,0l0.2-1c0.5-2.1,0.9-4.1,1.4-6.2v-0.1h0.1
			c1.5-0.2,3.1-0.5,4.9-0.9l0.3-0.1l-0.1,0.3c-0.2,0.9-0.5,1.8-0.7,2.6l-0.5,1.8h-0.1c-0.1,0-0.2,0-0.3,0s-0.2,0-0.2,0
			c-0.9,3.8-1.7,7.7-2.6,11.4L321,108.3z M319,99.5c0.6,2.4,1.3,4.8,1.9,7.2c0.8-3.6,1.6-7.2,2.5-10.8v-0.1h0.1c0.1,0,0.2,0,0.4-0.1
			c0.1,0,0.1,0,0.2,0l0.4-1.6c0.2-0.8,0.4-1.6,0.6-2.3c-1.6,0.3-3.1,0.6-4.5,0.8c-0.5,2-0.9,4-1.4,6.1L319,99.5z"/>
		<path class="st0" d="M334.1,99.7v-2.8h0.1c1.4-0.4,2.8-0.9,4.3-1.3l0.3-0.1v2.8l-0.8,0.2c-1.2,0.4-2.4,0.8-3.7,1.1L334.1,99.7z
			 M334.5,97.2v2c1.1-0.4,2.3-0.7,3.4-1.1l0.5-0.2V96C337.1,96.4,335.8,96.8,334.5,97.2z"/>
		<path class="st0" d="M326.4,109.1v-6.8c0.6-2.3,1.2-4.7,1.8-7c-0.5,0.1-1,0.2-1.6,0.3h-0.2V91h0.2c3.5-0.8,7.1-2,10.5-3.1
			c1.2-0.4,2.3-0.7,3.5-1.1l0.3-0.1v3.9h-0.1c-1.1,0.4-2.3,0.7-3.4,1.1c-1.9,0.6-3.9,1.2-5.9,1.8v0.9h-0.2c-0.2,0-0.3,0.1-0.5,0.1
			c-0.2,0.1-0.5,0.1-0.7,0.2v13.2H330c-1.3,0.4-2.2,0.6-3.1,0.8L326.4,109.1z M326.8,102.4v6.2c0.8-0.2,1.7-0.4,2.7-0.7V94.6h0.2
			c0.3-0.1,0.6-0.1,0.9-0.2c0.1,0,0.2-0.1,0.4-0.1v-0.9h0.1c2-0.6,4-1.2,6-1.8c1.1-0.3,2.2-0.7,3.3-1v-3.1c-1.1,0.3-2.1,0.7-3.2,1
			c-3.4,1.1-6.9,2.2-10.4,3v3.8c0.5-0.1,1.1-0.2,1.6-0.3l0.3-0.1l-0.1,0.3C328.1,97.5,327.4,100,326.8,102.4z"/>
		<path class="st0" d="M334.1,106.9v-3.1h0.1c2-0.6,4-1.2,6-1.9l0.6-0.2v3h-0.1c-1.2,0.4-2.3,0.7-3.5,1.1c-0.9,0.3-1.9,0.6-2.8,0.9
			L334.1,106.9z M334.5,104.1v2.2c0.8-0.3,1.7-0.5,2.5-0.8c1.1-0.4,2.3-0.7,3.4-1.1v-2.2l0,0C338.4,102.9,336.5,103.6,334.5,104.1z"
			/>
		<path class="st0" d="M350.1,95.2v-3.1h0.2c1.4-0.4,2.9-0.7,4.3-0.9h0.2v3.1h-0.2c-1.2,0.2-2.4,0.5-3.5,0.7L350.1,95.2z
			 M350.5,92.4v2.2l0.5-0.1c1.1-0.3,2.2-0.5,3.4-0.7v-2.2C353.1,91.8,351.8,92.1,350.5,92.4z"/>
		<path class="st0" d="M350.1,102.4v-3.3h0.2c2.2-0.6,4.3-1,6.3-1.2h0.2v0.2c0,0.6,0,1,0,1.4s0,0.8,0,1.4v0.2h-0.2
			c-1.7,0.2-3.5,0.7-5.2,1.1c-0.4,0.1-0.7,0.2-1.1,0.3L350.1,102.4z M350.5,99.4v2.5c0.3-0.1,0.5-0.1,0.8-0.2c1.6-0.4,3.3-0.8,5-1.1
			c0-0.5,0-0.8,0-1.2c0-0.3,0-0.7,0-1.1C354.5,98.5,352.6,98.8,350.5,99.4z"/>
		<path class="st0" d="M342.4,104.3v-10l1.1-0.4v-3l-1.1,0.4v-5h0.1c4.1-1.2,9-2.5,14-2.8h0.2v3.4h-0.2c-2.6,0.3-5.3,0.9-7.8,1.6
			c-0.5,0.1-1,0.2-1.5,0.4v0.9h-0.1c-0.4,0.1-0.8,0.2-1.2,0.4v13.2h-0.1c-1,0.3-2.1,0.6-3.1,0.9H342.4z M342.8,94.6v9.1
			c0.9-0.3,1.8-0.5,2.7-0.8V89.8h0.1c0.4-0.1,0.8-0.2,1.2-0.4v-0.9h0.2c0.5-0.1,1.1-0.3,1.6-0.4c2.5-0.6,5.1-1.3,7.7-1.6v-2.6
			c-4.9,0.3-9.6,1.5-13.6,2.7v4.1l1.1-0.4v3.9L342.8,94.6z"/>
		<path class="st0" d="M368.7,95.1h-0.1c-0.7-0.2-1.5-0.3-2.3-0.4h-0.2v-4.8v-0.1c1.1-1.7,2.1-3.1,3.1-4.4l0.1-0.1l0.1,0.1
			c1.6,0.7,3.3,1.5,4.8,2.5l0.2,0.1l-0.2,0.2c-0.4,0.4-0.8,0.9-1.1,1.3l-0.1,0.1l-0.3-0.1c0,0-0.1,0-0.1-0.1
			c-1.2,1.7-2.5,3.6-3.8,5.5L368.7,95.1z M366.5,94.3c0.7,0.1,1.3,0.2,2,0.4c1.3-2,2.6-3.9,3.9-5.6l0.1-0.1l0.1,0.1
			c0.1,0,0.2,0.1,0.3,0.1h0.1c0.3-0.4,0.6-0.7,0.9-1c-1.4-0.9-2.9-1.7-4.4-2.3c-0.9,1.2-1.8,2.6-2.9,4.2v4.2H366.5z"/>
		<path class="st0" d="M371.6,104.5l-0.5-0.2c-0.7-0.3-1.3-0.6-1.9-0.9h-0.1v-0.1c-0.7-1.6-1.5-3.2-2.4-5.2l-0.2-0.3l0.4,0.1
			c0.6,0.1,1.1,0.2,1.6,0.3h0.1v0.1c0.8,1.7,1.7,3.5,2.7,5.7L371.6,104.5z M369.5,103.1c0.4,0.2,0.9,0.4,1.3,0.6
			c-0.9-1.9-1.7-3.6-2.4-5.1c-0.3-0.1-0.7-0.2-1.1-0.2C368.1,100.1,368.8,101.6,369.5,103.1z"/>
		<path class="st0" d="M358.7,101.7C358.6,101.7,358.6,101.7,358.7,101.7h-0.3v-0.2c0-1.7,0-3.5,0-5.3c0-1.8,0-3.6,0-5.3v-0.2
			l0.6-0.1c0.2,0,0.4,0,0.6,0v-3.1c-0.2,0-0.5,0-0.7,0.1h-0.5v-4.1h0.2c1.6,0,3.1,0.1,4.6,0.3h0.2v3.7h-0.5c-0.3,0-0.6,0-0.9,0v14.2
			h-0.2c-0.6,0-1.2,0-1.8,0C359.6,101.7,359.1,101.7,358.7,101.7z M358.8,91c0,1.7,0,3.4,0,5.1c0,1.7,0,3.5,0,5.1c0.4,0,0.8,0,1.2,0
			c0.5,0,1,0,1.6,0V87h0.2c0.4,0,0.7,0,1.1,0h0.1v-2.9c-1.3-0.2-2.7-0.3-4.1-0.3v3.3l0,0c0.3,0,0.6-0.1,0.9-0.1h0.2v3.9h-0.2
			c-0.2,0-0.5,0-0.7,0.1H358.8z"/>
	</g>
	<g>
		<path class="st4" d="M317.1,35.7c-0.5-0.1-1-0.2-1.6-0.3c-3.7-0.4-7.2-1.5-10.5-3.3l-0.3-0.2v15.6c-0.9-0.4-1.9-0.8-2.7-1.3V29
			c3.3,1.7,6.7,2.8,10.4,3.2c1.8,0.2,3,0.6,3.7,1.3C316.6,34,317,34.7,317.1,35.7z"/>
		<path class="st4" d="M333.2,43.3v3.1c-2.1,0.7-4,1.2-5.7,1.6v-3.1C329.3,44.4,331.2,43.9,333.2,43.3z"/>
		<path class="st4" d="M324.1,31.5v3.7H324c-0.4,0.1-0.7,0.1-1.1,0.1h-0.2V49c-1,0.2-1.9,0.3-2.8,0.4v-2.6c0.6-0.9,0.9-2,0.9-3.5
			v-2.5c0-1.5-0.3-2.6-0.9-3.4v-5.2C321.2,32,322.6,31.8,324.1,31.5z"/>
		<path class="st4" d="M346.6,29.1c-1.2,0.4-2.3,0.7-3.4,1h-0.1v0.1c-0.1,0.5-3.8,11.1-3.8,11.1l-1.1,3.4c-0.5,0.2-2.9,0.9-4.4,1.4
			c1.2-3.4,2.3-6.8,3.5-10.3c1-3,2-6,3-9c1.8-0.6,3.4-1,4.8-1.4C345.6,26.7,346.1,27.9,346.6,29.1z"/>
		<path class="st4" d="M366.7,24.5c-0.5,0.7-0.9,1.5-1.3,2.3h-0.1l-0.1,0.1c-0.2,0.3-0.3,0.6-0.5,0.9l-0.3,0.5
			c-0.7,1.2-1.3,2.5-1.9,3.7c-0.4,0.9-0.9,1.9-1.4,2.8c-0.7-1.4-1.5-3.1-2.2-4.5c1.2-2.5,2.3-4.7,3.4-6.8
			C363.8,23.8,365.2,24.1,366.7,24.5z"/>
		<path class="st4" d="M358.7,39.9v0.7c-1,0-1.9,0-2.7,0.1v-4.5v-0.1c-2-3.8-4.2-7.7-6.5-11.7c1.5-0.3,3-0.6,4.4-0.7
			c0.6,1.1,1.1,2.2,1.7,3.4c-1.2,0.2-2.3,0.4-3.3,0.6H352l0.1,0.2C354.4,32.1,356.6,36,358.7,39.9z"/>
		<path class="st4" d="M303.7,77.5c1.9-3.9,3.9-8.3,5.9-12.8l0.1-0.2l0.2,0.1c0.9,0.3,1.8,0.5,2.7,0.7c-0.3-0.9-0.7-1.9-1-2.8
			c-1.6-0.2-3.2-0.6-4.8-1.1c-2.2,5.2-4.4,9.9-6.5,14.2C301.4,76.3,302.5,76.9,303.7,77.5z"/>
		<path class="st4" d="M333.2,73.5c-2.1,0.6-3.9,1.2-5.7,1.6v3.1c1.7-0.4,3.5-0.9,5.7-1.6V73.5z"/>
		<path class="st2" d="M333.4,73.1c-2.2,0.7-4.2,1.2-6,1.7h-0.2v4l0.2-0.1c1.8-0.4,3.7-1,6.1-1.7h0.1v-3.9H333.4z M333.2,76.6
			c-2.1,0.7-4,1.2-5.7,1.6v-3.1c1.7-0.4,3.6-1,5.7-1.6V76.6z"/>
		<path class="st4" d="M322.7,79.3V65.7h0.2c0.4,0,0.7-0.1,1.1-0.1h0.2v-3.7c-1.4,0.3-2.8,0.5-4.1,0.7v16.1l0.4,1
			C321.1,79.6,321.9,79.4,322.7,79.3z"/>
		<path class="st4" d="M335.4,58.7v17.2l2.7-0.9V62l1.4-0.4v-4.2c-0.8,0.2-1.6,0.5-2.4,0.7L335.4,58.7z"/>
		<path class="st4" d="M348.7,69c-1.7,0.4-3.5,0.8-5.7,1.5v3.1c2.2-0.6,4-1.1,5.7-1.5C348.7,71.1,348.7,70,348.7,69z"/>
		<path class="st2" d="M348.9,68.5c-1.8,0.4-3.7,0.9-6.1,1.6h-0.1V74l0.3-0.1c2.3-0.7,4.2-1.2,6-1.6h0.2v-3.9L348.9,68.5z
			 M348.7,72.1c-1.7,0.4-3.5,0.8-5.7,1.5v-3.1c2.2-0.6,4-1.1,5.7-1.5V72.1z"/>
		<path class="st4" d="M317.6,110.1l-1.7,0.1l-0.9-3.5c0.3-1,0.6-2,0.9-3.1C316.4,105.8,317.6,110.1,317.6,110.1z"/>
		<path class="st4" d="M307,108.9c-0.7-0.2-1.4-0.5-2-0.7c-1.6-6.4-3-13-4.5-19.5c1.4,0.9,2.8,1.6,4.3,2.2l0.4,1.8
			c-0.6-0.3-1.3-0.7-1.9-1.1l-0.4-0.3l0.1,0.5C304.2,97.5,305.5,103.1,307,108.9z"/>
		<path class="st4" d="M315.3,95.9c-0.6-0.1-1.7-0.2-1.7-0.2s-2.1,7.7-2.8,10.1c-0.3-1.4-1.4-6.5-1.6-7.5c0.5-1.9,1.1-3.8,1.6-5.7
			c1.2,0.2,2.5,0.3,3.7,0.4c0.2,0.8,0.4,1.6,0.6,2.4L315.3,95.9z"/>
		<path class="st4" d="M325,91.9c-0.2,0.8-0.4,1.6-0.6,2.3l-0.4,1.6l-0.7,0.1c0,0-1.6,7.3-2.5,10.9c-0.6-2.4-1.3-4.8-1.9-7.2
			l0.2-0.9c0.5-2,0.9-4,1.4-6.1C321.9,92.5,323.4,92.2,325,91.9z"/>
		<path class="st4" d="M338.3,96.2v1.9l-3.9,1.2v-2C335.7,97,337,96.6,338.3,96.2z"/>
		<path class="st4" d="M340.3,87.4v3.1c-1.1,0.3-9.4,2.8-9.4,2.8v0.9c-0.1,0-1.5,0.3-1.5,0.3v13.2c-1.1,0.3-1.9,0.5-2.7,0.7v-6.2
			c0.6-2.4,2-7.6,2-7.6s-1.4,0.3-1.9,0.4v-3.8C330.3,90.4,339.2,87.8,340.3,87.4z"/>
		<path class="st4" d="M340.3,102.4v2.2c-1.1,0.3-2.2,0.7-3.4,1.1c-0.8,0.3-1.7,0.5-2.5,0.8v-2.2
			C336.4,103.7,338.3,103.1,340.3,102.4L340.3,102.4z"/>
		<path class="st4" d="M354.3,91.7v2.2c-1.1,0.2-2.3,0.5-3.4,0.7l-0.5,0.1v-2.2C351.7,92.2,353,92,354.3,91.7z"/>
		<path class="st4" d="M356.3,98.3c0,0.4,0,0.8,0,1.1c0,0.4,0,0.7,0,1.2c-1.7,0.2-5.5,1.2-5.8,1.3v-2.5
			C352.5,99,354.4,98.6,356.3,98.3z"/>
		<path class="st4" d="M356.3,84v2.7c-2.6,0.3-9.4,2-9.4,2v0.9c-0.4,0.1-1.3,0.4-1.3,0.4v13.2l-2.8,0.8v-9.2l1.1-0.4v-3.9l-1.1,0.3
			v-4.1C346.7,85.5,351.4,84.3,356.3,84z"/>
		<path class="st4" d="M369.3,86c-0.9,1.2-1.8,2.6-2.9,4.2v4.2c0.7,0.1,1.3,0.2,2,0.4c1.3-2,4-5.7,4-5.7l0.5,0.2
			c0.3-0.4,0.6-0.7,0.9-1C372.3,87.4,370.8,86.6,369.3,86z"/>
		<path class="st4" d="M367.2,98.5c0,0,1.5,3.3,2.2,4.8c0.4,0.2,0.9,0.4,1.3,0.6c-0.9-1.9-2.4-5.1-2.4-5.1L367.2,98.5z"/>
		<path class="st4" d="M362.9,84.2v2.9h-1.4v14.2c-0.6,0-1.1,0-1.6,0c-0.4,0-0.8,0-1.2,0V91.2l1.1-0.1v-3.9l-1.1,0.1l0,0V84
			C360.1,83.9,361.5,84,362.9,84.2z"/>
	</g>
	<rect x="370.5" y="220.8" class="st5" width="7.5" height="7.5"/>
	<rect x="359.8" y="220.8" class="st6" width="7.5" height="7.5"/>
	<rect x="349.1" y="220.8" class="st7" width="7.5" height="7.5"/>
	<rect x="338.6" y="220.8" class="st8" width="7.5" height="7.5"/>
	<rect x="327.9" y="220.7" class="st0" width="7.5" height="7.5"/>
	<rect id="cadre_00000085244676344156165610000014942034742669285296_" class="st2" width="623.6" height="340.2"/>
</g>
</svg>
