<?xml version="1.0" encoding="utf-8"?>
<svg version="1.1" xmlns="http://www.w3.org/2000/svg" xmlns:xlink="http://www.w3.org/1999/xlink" x="0px" y="0px"
	 viewBox="0 0 32 32" style="enable-background:new 0 0 100 100;" xml:space="preserve">
    <path d="M3.35 28.45v-.3c-.21-.36-.7.06-1-.43a4.06 4.06 0 0 0 2.35-.6 4.4 4.4 0 0 0 2-2.69c.23-.88 0-1.86.54-2.66a.37.37 0 0 0 0-.29c-.4-.71-.22-1.52-.41-2.27-.49-2.15-1.25-4.21-1.71-6.43a10.41 10.41 0 0 0-.29-1.84 3.16 3.16 0 0 1-.24-1.87 8.35 8.35 0 0 1 .84-3.15 2.81 2.81 0 0 1 2.66-1.66h1.48a19.85 19.85 0 0 1 5.34 4.26c.05.43-.36.22-.54.38 0 .43.77.5.48 1a.33.33 0 0 1-.51 0c-.14-.16-.29-.27-.64-.08.35.49.89.83 1.21 1.33 0 .24-.12.37-.27.49l.26.41c0 .32-.18.39-.29.55.17.17.4.32.27.64s-.58 0-.9.28c.32.18.72.24.91.6l-.37.4c-.34-.14-.65-.4-1.17-.11.33.21.71.27 1 .68l-.78.35.36.41c0 .57-.57 1.06-.26 1.68-.22.2-.49 0-.86.16a4.14 4.14 0 0 0 .61.7v.94l-.56.2c.16.32.38.64.22 1-.11.19-.28.1-.54.14.14.82-.52 1.49-.31 2.38-.42-.07-.53-.38-.85-.61-.07.74.45 1.39.17 2.06-.2-.05 0 .25-.11.11l-.31-.29c-.29.22 0 .59-.2.84l-.74.09a1.65 1.65 0 0 1-.68 1.19 2.13 2.13 0 0 1-.27-.08 2.64 2.64 0 0 1-.32-.31l-.1 1.79c-.22.26-.2-.15-.29-.09-.31-.12-.37.34-.65.2s-.12-.43-.36-.57c-.44.16 0 .66-.27.83s-.5-.05-.66-.25l-.35.32-.24-.64c-.26.33-.26.84-.7.9-.21-.11 0-.42-.26-.51l-.6.56-.54-.48c-.15-.11-.22.72-.55.34zM29.07 27.71h1.29c-.1.48-.45.2-.66.29s-.07.48-.33.6l-.32-.29c-.31-.13-.41.2-.63.26l-.54-.57c-.35 0 0 .48-.35.54-.31-.18-.49-.5-.54-1.16l-.29.82c-.19.09-.21-.13-.34-.18s-.31.37-.6.25c-.44-.17 0-.68-.33-.89-.3.09 0 .48 0 .48-.6.19-.75 0-.91-.19l-.45.38v-1.9l-.57.32c-.68-.09-.65-.62-.7-1.11-.22-.21-.49-.05-.72-.11-.31-.21 0-.58-.22-.83s-.21.3-.5.1a2.56 2.56 0 0 1 .28-1.91c-.37.05-.55.33-.93.63.19-.91-.46-1.55-.29-2.32-.11-.27-.34-.21-.52-.26a.82.82 0 0 1 .21-1.07l-.58-.21v-1.09c0-.12.48-.19.5-.56-.23-.23-.61.09-.83-.22l.28-.31a2.75 2.75 0 0 1-.48-1.72l-.47-.27a1.68 1.68 0 0 1 1-.77.71.71 0 0 0-1.07.17l-.46-.44a.9.9 0 0 1 1-.52c-.29-.42-.66-.13-.9-.33s0-.45.18-.65c-.21-.3-.49-.63 0-.92l-.37-.54 1.31-1.32c-.49-.49-.69.42-1.12.1-.37-.58.4-.66.48-1.05-.1-.25-.55.06-.58-.33v-.15a23.85 23.85 0 0 1 4.2-3.59 4.92 4.92 0 0 1 3.32-.59C26.93 4.75 27.44 5.8 28 7c-.18.57.25 1.18.3 1.86a3.65 3.65 0 0 1 0 1.51c-.41 1.09-.33 2.26-.7 3.35-.65 1.87-1.11 3.8-1.65 5.7a20.49 20.49 0 0 0-.35 2.3c-.09.49.43.85.31 1.39s.23.89.24 1.24c0 1.22.82 1.86 1.55 2.58.3.34.96.31 1.37.78z" />
  </svg>