<?xml version="1.0" encoding="utf-8"?>
<svg version="1.1" xmlns="http://www.w3.org/2000/svg" xmlns:xlink="http://www.w3.org/1999/xlink" x="0px" y="0px"
	 viewBox="0 0 32 32" style="enable-background:new 0 0 100 100;" xml:space="preserve">
     <path
      d="M8.26 8.08a1.3 1.3 0 0 0 .08.17 2.18 2.18 0 0 0 .22.31l.08.11s.07.05.11.09l.16.13a1.34 1.34 0 0 0 .27.17.61.61 0 0 0 .18 0h.14A.37.37 0 0 0 9.69 9h.08c.48-.58-.25-1.27-.25-1.27-.32 0-1.06-1.31-1.07-1.32a12.36 12.36 0 0 0-.23 1.36.26.26 0 0 0 0 .08.77.77 0 0 0 .04.23zm1.2 1zM14.92 21.57a.64.64 0 0 0-.35-.3h-.08a.92.92 0 0 0-.25-.05h-.12a2.37 2.37 0 0 0-.48.11l-.05.06a.36.36 0 0 1-.09.08 6.19 6.19 0 0 1-1.48.38 10.37 10.37 0 0 0 1.17.72.76.76 0 0 0 .29 0 2 2 0 0 0 1.36-.58v-.05-.06a.4.4 0 0 0 0-.32s.09.02.08.01zm-.71-.35zM11.07 9.14H11s-.82.61-.41 1.24a.36.36 0 0 0 .27.14h.11a1 1 0 0 0 .32-.09 1.06 1.06 0 0 0 .2-.12l.14-.1a2.94 2.94 0 0 0 .36-.34l.07-.08a.93.93 0 0 0 .11-.19.85.85 0 0 0 .08-.17v-.11A13.5 13.5 0 0 0 12.29 8s-.89 1.13-1.22 1.14zM11 10.55zM11.46 11.07s-1 .31-.78 1c0 .06.06.08.09.12a.53.53 0 0 0 .06.1.52.52 0 0 0 .15.06.5.5 0 0 0 .13 0H11.4a2.15 2.15 0 0 0 .84-.32l.07-.05.18-.15a.65.65 0 0 0 .08-.09 1.06 1.06 0 0 1 .09-.11 12 12 0 0 0 .34-1.27 6.45 6.45 0 0 1-1.33.7c-.09 0-.17.03-.21.01zM12 13.13s-1 .32-.78 1c0 .05 0 .08.08.12a.61.61 0 0 0 .07.1.59.59 0 0 0 .14.06.58.58 0 0 0 .14 0 .24.24 0 0 0 .09 0h.2a2.17 2.17 0 0 0 .83-.32l.08-.05.18-.15a.24.24 0 0 0 .06-.08 1.06 1.06 0 0 0 .1-.12 10.2 10.2 0 0 0 .38-1.32 6.45 6.45 0 0 1-1.33.7.33.33 0 0 1-.24.06zM13.11 15.08s-1 .31-.77 1c0 .06.06.09.09.14s0 .06.06.08a.45.45 0 0 0 .14.06.58.58 0 0 0 .14 0H13.07a2.07 2.07 0 0 0 .82-.32l.07-.05a1.57 1.57 0 0 0 .19-.15l.07-.09a.87.87 0 0 0 .09-.11 12.29 12.29 0 0 0 .38-1.32 6.45 6.45 0 0 1-1.33.7.33.33 0 0 1-.25.06zM17.1 7.79a1.78 1.78 0 0 0 .17.4v.07l.06.06.06.07a.46.46 0 0 0 .31.18.29.29 0 0 0 .16 0c.48-.29.14-1 .14-1-.22 0-.44-1.19-.44-1.2a7.91 7.91 0 0 0-.5.91.81.81 0 0 0 0 .38zM18.9 8.94h-.13s-.72.23-.6.78a.33.33 0 0 0 .25.22h.16a1.59 1.59 0 0 0 .79-.27.73.73 0 0 0 .28-.27 9.13 9.13 0 0 0 .3-1 5.17 5.17 0 0 1-1.05.54zm-.35 1h-.05.26a.86.86 0 0 1-.21.06zM18.79 10.47c-.12 0-.2 0-.22-.06-.08 0-.75 0-.8.55a.31.31 0 0 0 .08.24l.09.05a1.07 1.07 0 0 0 .48.1 1.23 1.23 0 0 0 .8-.23c.26-.31.59-.84.6-.84a5.57 5.57 0 0 1-1.03.19zm-.95.7v-.05a.26.26 0 0 0 .09.09s-.08-.02-.09-.04zm.61.19z"
    />
    <path
      d="M16 1a15 15 0 1 0 15 15A15 15 0 0 0 16 1zm0 1.72a13.26 13.26 0 0 1 9.45 4L19.22 12a3.32 3.32 0 0 1-.59.08c-.12 0-.2 0-.22-.06-.08 0-.75 0-.8.54a.31.31 0 0 0 .08.24l.09.05a1 1 0 0 0 .28.08l-.5.43a10.73 10.73 0 0 1 .13-3.14l1-2.34a.24.24 0 0 0 .09 0 1.61 1.61 0 0 0 .8-.28.74.74 0 0 0 .28-.28 9.13 9.13 0 0 0 .3-1 4.59 4.59 0 0 1-1 .51h-.15s-.49.17-.57.55l-.94 2.18a1.59 1.59 0 0 0-.18-.25h-.06c-.27-.1-.8-1.1-.8-1.11a10.15 10.15 0 0 0-.24 1.13.19.19 0 0 0 0 .07.68.68 0 0 0 .05.23l.06.15c.06.09.12.18.2.28a.47.47 0 0 0 .06.09s.05 0 .07.06l.19.16a.87.87 0 0 0 .18.11h.2c-.05.3-.1.6-.12.89a1.18 1.18 0 0 0-.36-.33h-.11a4.13 4.13 0 0 1-.92-.71 7.68 7.68 0 0 0 .1 1 .67.67 0 0 0 .21.32 1.78 1.78 0 0 0 .38.28 1 1 0 0 0 .44.14.32.32 0 0 0 .23-.13 11.62 11.62 0 0 0 0 1.18 1.11 1.11 0 0 0-.51-.36h-.35a5.92 5.92 0 0 1-.79-.42 8.15 8.15 0 0 0 .32 1 .64.64 0 0 0 .29.27 1.59 1.59 0 0 0 .77.25.42.42 0 0 0 .12 0H17l-4.27 3.63a15.15 15.15 0 0 1-2.46-6.26l.24-3.39a1.25 1.25 0 0 0 .29-.1 1.06 1.06 0 0 0 .2-.14.71.71 0 0 0 .14-.1 1.94 1.94 0 0 0 .36-.34l.07-.08a.87.87 0 0 0 .11-.18.51.51 0 0 0 .07-.18s0-.07.05-.1a13.77 13.77 0 0 0-.06-1.38s-.88 1.16-1.2 1.17h-.04a1.21 1.21 0 0 0-.48.94l-.23 3.16a2.81 2.81 0 0 0-.32-.24h-.09c-.39 0-1.51-1.06-1.52-1.07A11.25 11.25 0 0 0 8 10.75s0 .08.06.11a.75.75 0 0 0 .1.17 2.32 2.32 0 0 0 .16.18l.09.08a3 3 0 0 0 .56.37H9l.29.11h.18a1.16 1.16 0 0 0 .18 0 .58.58 0 0 0 .19 0c.07.4.14.8.24 1.19a1.66 1.66 0 0 0-.59-.27.21.21 0 0 1-.15 0 6 6 0 0 1-1.49-.52 9.82 9.82 0 0 0 .57 1.25 1.83 1.83 0 0 0 1.35.55h.05a.71.71 0 0 0 .34-.08.21.21 0 0 0 .11-.07.27.27 0 0 0 .09-.12c.17.49.35 1 .55 1.43a1.32 1.32 0 0 0-.29-.15 1.83 1.83 0 0 0-.44-.07h-.08c0 .06-.16.1-.37.1a7.7 7.7 0 0 1-1.33-.19A10.24 10.24 0 0 0 9.22 16h.09a.93.93 0 0 0 .2.1l.22.07H10.58a1 1 0 0 0 .28-.08.69.69 0 0 0 .17-.1l.09-.05v-.05a.38.38 0 0 0 0-.15 16.48 16.48 0 0 0 1 1.7.87.87 0 0 0-.33-.17 2.55 2.55 0 0 0-.44-.07h-.07c0 .07-.16.1-.38.1a8.06 8.06 0 0 1-1.33-.19 12.86 12.86 0 0 0 .84 1.09.3.3 0 0 0 .08 0 .9.9 0 0 0 .22.11.55.55 0 0 0 .18.06 2.2 2.2 0 0 0 .37.05h.09l-.21.16a2.27 2.27 0 0 0 .25-.06l-6.1 5.3A13.15 13.15 0 0 1 2.72 16 13.3 13.3 0 0 1 16 2.72zm0 26.56a13.21 13.21 0 0 1-9.61-4.14l5.11-4.35a3.89 3.89 0 0 0 .44.24.72.72 0 0 0 .22 0h.33a1.53 1.53 0 0 0 .29-.07 1.57 1.57 0 0 0 .85-.54v-.06a.4.4 0 0 0 0-.32v-.05a.67.67 0 0 0-.35-.29.13.13 0 0 0-.08 0 .94.94 0 0 0-.24-.06h-.18l.53-.45A30.43 30.43 0 0 0 22 26.46l.3-.46a30.52 30.52 0 0 1-7.18-5.57 1.61 1.61 0 0 0 .38-.33c0-.05.05-.1.08-.14a2.33 2.33 0 0 0 .2-.34 2 2 0 0 0 .09-.22.92.92 0 0 0 .13-.4 11.7 11.7 0 0 0-.42-1.3 6.92 6.92 0 0 1-.76 1.3.32.32 0 0 1-.13.11h-.07a1.46 1.46 0 0 0-.25.49c-.21-.24-.4-.51-.6-.76l3.8-3.24a22.45 22.45 0 0 0 4.69 8.4l.31-.29a21.74 21.74 0 0 1-4.63-8.36l.83-.7a1 1 0 0 0 .65-.23 7.85 7.85 0 0 0 .59-.82L26.57 8A13.27 13.27 0 0 1 16 29.28zm-3-9.62h.06a.14.14 0 0 0-.06 0zm.67.76z"
    />
  </svg>