<?xml version="1.0" encoding="utf-8"?>
<svg version="1.1" xmlns="http://www.w3.org/2000/svg" xmlns:xlink="http://www.w3.org/1999/xlink" x="0px" y="0px"
	 viewBox="0 0 32 32" style="enable-background:new 0 0 100 100;" xml:space="preserve">
     <path
      d="M16 1a15 15 0 1 0 15 15A15 15 0 0 0 16 1zm0 1.72a13.26 13.26 0 0 1 9.45 4l-7.2 6.12c-.26-.35-.51-.7-.76-1.07a12.09 12.09 0 0 0-.79-1.13 8.43 8.43 0 0 0-1.06-1.17 7.67 7.67 0 0 0-3.74-1.88 5 5 0 0 0-1-.09 12 12 0 0 0-1.25.08h-.06a5.93 5.93 0 0 0-2.1.81h-.1a.48.48 0 0 0-.16.18h-.08v.12a.29.29 0 0 0 0 .16 6.85 6.85 0 0 1 0 2l-.07.62a5.07 5.07 0 0 0 .24 2.83 4.86 4.86 0 0 0 .38.7A5.58 5.58 0 0 0 9 16.35c.25.18.51.34.77.5s.51.3.75.47.52.36.78.53l.53.35h.05l-6.59 5.62A13.15 13.15 0 0 1 2.72 16 13.3 13.3 0 0 1 16 2.72zm-.42 12.35c-.11-.13-.22-.29-.3-.4l.78-.63.28.38zm-.4-.52l-.18-.23-.9-1.07.13-.24.56-.66a3 3 0 0 1 .48.52 10 10 0 0 0 .69 1zm-1.07-1.63l-.11.2L13 12l.57-.71c.4.35.78.69 1.08 1zm-.19.35l-.21.4-1.12.17-.06.09c-.54-.49-1.08-1-1.08-1l-.45-.3 1.54-.06.38-.47zm-1.24.73l1.13-.18.19-.42.85 1 .18.24-.4.32-.78.44a2.31 2.31 0 0 1-.16-.27c0-.05 0-.17-1.07-1.11zm2.07 1.12l.4-.33.3.41-1.08.92-.4-.56zm1.73 1.45l.34.47-1.26.7-.18-.24zm.43.6c.22.29.41.56.55.76l-.38.06-.65.92-.76-1zm.26 1l.38-.06a1.52 1.52 0 0 1 .18.3s0 .14.79.84h-.53l-.78.61-.68-.86zm.83 1.2h.64l.28.26.78.69-1.47.8-1-1.15zm1.83 1l.26.22.66.53-.4.32-.93.5-.63-.21-.46-.55zm.61 1.2l.44-.35 1.12.89-.35.27-.38.21-1.65-.58zm-.25-1.1l-.19-.15.77-.61 1.29.45-1.15.9zm-.34-.29c-.35-.3-.69-.61-1-.88h.81L20 19l.49.6h.16zm-.26-1.06h-.89a6.1 6.1 0 0 1-.85-.87 1.3 1.3 0 0 0-.17-.28l.62.03.3-.56 1.25 1.49zM18.2 17.8l-.57.09-.58-.82.78-.63.18.24.48.58zm-1.2-.86l-.35-.48.76-.65.37.5zm-.49-2.62c-.09-.13-.19-.27-.28-.38l.17-.14.42-.39.29.4zm-.21-.64l-.16.13a11.26 11.26 0 0 1-.66-1s0-.11-.51-.58l.72-.35a2.42 2.42 0 0 1 .42.46 7 7 0 0 0 .61.92zm-1.46-1.55c-.14-.13-.31-.3-.53-.49l-.55-.49.47-.57c.48.42 1 .86 1.33 1.2zM13.6 11l-.44-.38L12 9.7l.54-.47L14 10.45zm-.54-.26l.44.38-.56.69-.5-.6-1.65-.57 1-.84zm-.72.61l.5.59-.36.44-1.64.06-1.13-.9 1-.78zm-1.63 1.19l-1.09.86L8.3 13l-.07-.12.44-.4.91-.76zm.12.1l.52.41 1.09 1-.69 1-.89-1.13-1.07-.39zm1.73 1.48a8.24 8.24 0 0 1 1 1 1.9 1.9 0 0 0 .18.3l-.56.32-.48.44-.85-1.08zm.72 1.77l.56-.31.41.58-.95.84-.14-.19-.36-.46zm2 1.66l.16.22-1 .87-.18-.25zm.26.35l.78 1-.44.62-.49.42c-.22-.34-.53-.8-.85-1.26zm.46 1.86l.43-.61.65.78-.84.66-.29.32a1.17 1.17 0 0 1-.22-.28 3.35 3.35 0 0 0-.25-.43zm.35.95l.83-.66.94 1.12-.1.06-.92.77c-.41-.39-.78-.75-1-1zm1.76.65l.11-.06.51.6.53.18-.71.39-.5.44-.23-.19-.61-.58zm.53 1.24l.82-.45 1.65.58-1.26.68-.59.52-1.08-.93zm1.3.94l1.38-.74h.12l.43.73-1.07.58-.63.55-.78-.66zm1.61-.83l.27-.14.39-.31.72.57-.84.66zm-.51-1.55l1.19-.94.92.32.3.49-1.29 1zm2.22-.75l-.88-.31h.06l.77-.7h.06l.73 1.17-.34.31-.07.06zm-.92-.47l-.14.1-1.28-.44.9-.72 1.22.42zm-1.6-.41l-.21-.07-.48-.58.51-.63.22.26.86.3zm-.8-.77l-1.27-1.52.05-.09.47-.55 1.27 1.52zm-1.35-1.7v.05l-.43-.53-.16-.24.61-.5.52.63zm-.74-.85l-.38-.5.6-.51.38.51zm-.68-2.5l-.3-.41.27-.25.06.09c.08.12.18.21.26.32zm-.39-.54a6.65 6.65 0 0 1-.57-.85s0-.1-.43-.49l.5-.25.17.31c.19.34.39.68.6 1zm-1.12-1.46l-.53-.48-.87-.78.31-.37.31-.18.12.1a5 5 0 0 1 1.11 1.23l.15.27zM14.48 10l-.32.4-1.52-1.2.31-.27a6.54 6.54 0 0 1 1.82.94zM12.5 9l-.5-.4c.28.06.54.13.79.21zm-.12.1l-.55.48-1.48-1.16H11.01l.62.09zm-.67.58l-1.09.9-1-.36-.93-1.45.18-.07A4.15 4.15 0 0 1 10 8.44l.17.21.08-.07zm-2.24.68l1 .35-.89.74-1.31-1a3.4 3.4 0 0 0-.18-1.33 2.93 2.93 0 0 1 .46-.27zM8.13 11.5c0-.16 0-.32.08-.48a3.6 3.6 0 0 0 0-.36l.29.34.08-.06.87.69-.88.74-.42.38L8 12.4q0-.4.13-.9zM8 12.81v-.13zm.08.14l.08.13 1.28.48-.37.29-.6.66a3.18 3.18 0 0 1-.38-.64 2.37 2.37 0 0 1-.09-.78zm1.1 1l.44-.35 1.11.41.89 1.13-.25.36-.92.77-.34-.27a9 9 0 0 1-1.52-1.35zm2.3 1.65l.24-.33.83 1.05-.9.81a11 11 0 0 1-1-.69l-.08-.07zm1.17.85l.35.44.14.21-.67.57-.65-.43zm1.48 2.06l.18.26-.31.27c-.06-.09-.14-.15-.21-.24zm.27.39c.34.48.64.93.85 1.25l-.51.43a8.82 8.82 0 0 0-.61-1.33zm.94 1.38a3.2 3.2 0 0 1 .21.37s0 .08.28.36l-.65.72c-.1-.24-.19-.49-.28-.74a2.6 2.6 0 0 1-.1-.25zm.59.84l.73.72.29.28-1.06.92a2.07 2.07 0 0 1-.17-.24 6.07 6.07 0 0 1-.48-.91zm1.14 1.11l.63.58.21.18-1.15 1a6.74 6.74 0 0 1-.78-.82zm1 .86l1.09.92-1 .85a5.14 5.14 0 0 1-1.26-.77zm1.21 1l.79.66-.51.45a6.86 6.86 0 0 1-.68-.12l-.55-.08zm.91.77l.41.34H19.78zm.34-.05l-.08.06-.14-.12.6-.52 1.09-.52.45.75v.05a2.28 2.28 0 0 1-1.4.69h-.17zm1.58-1.23l.87-.69.42.33a5.05 5.05 0 0 1-.82 1l-.08.09zm1.13-.87l-.09.07.34-.26.37-.34a6.25 6.25 0 0 1-.34.87zm.15-.32l-.37.28-.72-.57 1.25-1 .41.7v.06zm.28-1.37l.09-.07.3-.27v.42a1.74 1.74 0 0 1-.06.51zm-.27-1.81l.27-.24a5.61 5.61 0 0 1 .33 1.3zm.13-.38l-.34.3-1.19-.37 1-.92c.06.08.11.17.16.25a7 7 0 0 1 .46.9zm-1.7-.19l-.91-.32-.22-.27 1.06-1.31.25-.14h.05a5.19 5.19 0 0 1 .88 1zm-.19-2L20.57 18l-1.27-1.52.06-.08 1.35-.65.07.05a12.3 12.3 0 0 1 1 .74zm-2.36-.42l-.07.09-.51-.61.77-.73c.39.22.76.43 1.11.65zm-.45-1.62l.49.27-.73.69-.38-.51.56-.48zM16 29.28a13.21 13.21 0 0 1-9.61-4.14l6.71-5.71c0 .06.09.1.13.17a9.51 9.51 0 0 1 .87 1.89 7.68 7.68 0 0 0 1.46 2.65 6.59 6.59 0 0 0 1.9 1.45 5.18 5.18 0 0 0 2.05.52h.57a4.38 4.38 0 0 0 1.4-.11 6.38 6.38 0 0 0 .66-.22 2 2 0 0 0 .32-.2l.1-.07h.06A5.61 5.61 0 0 0 24.53 23a.75.75 0 0 0 .07-.12 1.82 1.82 0 0 0 .12-.35v-.16a4.84 4.84 0 0 0 .28-1.51v-.06a3.89 3.89 0 0 0-.08-.85 3 3 0 0 0-.09-.41 6.14 6.14 0 0 0-1.7-3 7.68 7.68 0 0 0-1.05-.82l-.15-.1c-.37-.25-.76-.48-1.13-.7s-.88-.53-1.31-.84l7.1-6A13.27 13.27 0 0 1 16 29.28z"
    />
  </svg>