<?xml version="1.0" encoding="utf-8"?>
<svg version="1.1" xmlns="http://www.w3.org/2000/svg" xmlns:xlink="http://www.w3.org/1999/xlink" x="0px" y="0px"
	 viewBox="0 0 32 32" style="enable-background:new 0 0 100 100;" xml:space="preserve">
	 <path d="M22.47 17a2.84 2.84 0 0 0-1.88-2.13 2.73 2.73 0 0 0-2.75.71 3.47 3.47 0 0 0-.91 1.66 17.51 17.51 0 0 1 .23-4.24h.37l-.27-.71a2.44 2.44 0 0 0 .84-.34 7 7 0 0 0 2.2-2.3 4.75 4.75 0 0 0 .05-4.17 3.56 3.56 0 0 0-3-2 3.58 3.58 0 0 0-3.21 1.81 4.71 4.71 0 0 0-.22 4.16 7 7 0 0 0 2 2.46 3.1 3.1 0 0 0 .73.37l-.36.71h.59a4.54 4.54 0 0 0-.14.66 14.75 14.75 0 0 0-.18 2.84c0 1 .14 2.13.17 3.23.06 1.86 0 3.72 0 5.25l-.12 1.49-.27.46a10.32 10.32 0 0 0-.56-2.52v-.13c0-.09-.09-.18-.12-.28v-.07a8.58 8.58 0 0 0-.89-1.66l-.33-.47c-.1-.18-.21-.35-.31-.54a4.79 4.79 0 0 1-.68-2.59l.43-.06-.34-.57a2.43 2.43 0 0 0 .68-.42 6.29 6.29 0 0 0 1.56-2.32 4.12 4.12 0 0 0-.56-3.6 3.11 3.11 0 0 0-2.9-1.29 3.18 3.18 0 0 0-2.51 2 4.17 4.17 0 0 0 .3 3.6 6.17 6.17 0 0 0 2.12 1.81 2.29 2.29 0 0 0 .68.2l-.21.67h.35a5 5 0 0 0 .25 1.7 5.19 5.19 0 0 0 .49 1l.63 1a9.72 9.72 0 0 1 1 2 13.43 13.43 0 0 1 .58 1.83c.07.36.13.67.17.94a7 7 0 0 0-.55 1.33.08.08 0 0 0 .06.1.09.09 0 0 0 .08-.07 5.63 5.63 0 0 1 .4-1v.61s0 .08.08.08a.1.1 0 0 0 .16-.2c0-.26 0-.55-.06-.84 0-.05.06-.1.1-.16l.09-.14c0 .49-.09 1-.13 1.46a.07.07 0 0 0 .07.09.08.08 0 0 0 .08-.07c0-.46.09-.93.13-1.4v-.36a9.92 9.92 0 0 0 1.51-3 11.38 11.38 0 0 0 .31-1.35c0-.11.05-.2.07-.31l.27.09-.06-.59a1.73 1.73 0 0 0 .69-.08 5.52 5.52 0 0 0 2.1-1.28 3.71 3.71 0 0 0 .9-3.06zm-4.56 3.9a2 2 0 0 0 .48.42l-.41.46.37.12a12.63 12.63 0 0 1-.35 1.65 7.26 7.26 0 0 1-.3.82 18.45 18.45 0 0 1-.9 1.63v-.3a49 49 0 0 0 .2-6.04v-.45a6 6 0 0 0 .91 1.69z" />
  </svg>