<?xml version="1.0" encoding="utf-8"?>
<svg version="1.1" xmlns="http://www.w3.org/2000/svg" xmlns:xlink="http://www.w3.org/1999/xlink" x="0px" y="0px"
	 viewBox="0 0 32 32" style="enable-background:new 0 0 100 100;" xml:space="preserve">
	 <path d="M24.35 22.42c1.18-3.5.46-8.33-1-11.53a13.63 13.63 0 0 0-4.61-5.54c-.88-.56-2-.71-2.31.3s.92 1.58 2.36 2.65a3 3 0 0 1 1.07 3.55c-.65 1.76-3.86 1.48-3.86 1.48s-3.21.28-3.84-1.48a3 3 0 0 1 1.07-3.55c1.44-1.07 2.67-1.63 2.36-2.65s-1.43-.86-2.31-.3a13.63 13.63 0 0 0-4.61 5.54c-1.48 3.2-2.2 8-1 11.53s4.62 4.71 8.35 4.67 7.15-1.16 8.33-4.67zm-8.49.84s-4.12-2.65-2.92-5.59c.45-1.1 2.39-1 2.92 1 .61-1.87 2.31-2 2.92-1 1.71 2.67-2.92 5.59-2.92 5.59z" />
  </svg>