<?xml version="1.0" encoding="utf-8"?>
<svg version="1.1" xmlns="http://www.w3.org/2000/svg" xmlns:xlink="http://www.w3.org/1999/xlink" x="0px" y="0px"
	 viewBox="0 0 32 32" style="enable-background:new 0 0 100 100;" xml:space="preserve">
    <path
      fill="none"
      className="Bouquet_svg__a"
      d="M11.13 24.85a12.83 12.83 0 0 0 .6-1.88 13.22 13.22 0 0 1-.6 1.88zM11.86 20.8a3.87 3.87 0 0 1 .9-.79 3.87 3.87 0 0 0-.9.79z"
    />
    <path d="M10.08 10.49a2.61 2.61 0 0 0 4.46.14 1.82 1.82 0 0 0 .11-1.69 2.34 2.34 0 0 0-1.71-.79c-.34 0-.71.79-.95 1.28-.07.16.17.59.38.73s.64.08.72-.06 0-.52 0-.8a2.23 2.23 0 0 1 .05-.36l.4-.32 1.21 1.32a23.36 23.36 0 0 1-2.81.94c-.26 0-.91-.46-.88-.59A4.85 4.85 0 0 1 11.92 8a2.49 2.49 0 0 1 2-.27 3.33 3.33 0 0 1 1.55 1.08c.43.47 1.08 1.37.92 1.63a4.57 4.57 0 0 1-1.9 1.5 10.13 10.13 0 0 1-2 .34 2.84 2.84 0 0 0-.76.48c2.39.22 4.63.21 5.63-1.95l2.88.72a3.48 3.48 0 0 1 1.15.31 5 5 0 0 0 6.16-.26c1.54-1.31 1.29-3.15-.55-3.94a12.09 12.09 0 0 0-2-.5 3.64 3.64 0 0 0-4-3.36c-.74 0-1.65.27-2.18-.07C16.74 2.36 15 3.5 13 4.36c.16-1.32-.56-1.81-1.71-1.74-1.38.08-2.81.38-2.97 1.91-.13 1.31-.13 2.39-1.79 2.52-.12 0-.32.47-.28.67.21.93.21 2.23.82 2.67s1.87.1 3.01.1zm14.66-2.38a7.43 7.43 0 0 1 2.71 1c.18.11.08 1.13-.19 1.52-1 1.48-3.74 1.77-5.71.29l2.05-.45 2.51-.59c-1-1.57-1.71-1.39-2.23-.08a4.35 4.35 0 0 1-.39-.54c.4-.44.88-1.19 1.25-1.15zm-4.33-.59a8.08 8.08 0 0 1 1.7 1.87 8.7 8.7 0 0 1-2 1.33c-1 .34-1.69-.25-1.95-1.34a21.93 21.93 0 0 0 2.31.34.88.88 0 0 0 .66-.55 1 1 0 0 0-.42-.74 2.34 2.34 0 0 0-3.57.9c-.27-.34-.51-.64-.83-1.06 1.41-.64 2.69-1.57 4.1-.75zm-5.93-3.29l2.19 3.09a7.68 7.68 0 0 1-1.75 0 12.55 12.55 0 0 1-2-.89zm-4.76-.45c.18.69.18 1.66.51 1.79.54.21 1.3-.13 2.4-.3l-1.51 2.62c-.77-1.59-3.27-2.14-1.4-4.11zm-.56 5c.18-.44-.32-1.14-.52-1.73l.36-.3c.37.49 1.1 1 1 1.44A1.94 1.94 0 0 1 7.51 9.9c.66-.41 1.49-.64 1.65-1.11z" />
    <path d="M18.52 12.29a1.73 1.73 0 0 0-1.78.32 4.7 4.7 0 0 1-6.62-.61c-.49-.57-1.44-.74-2.18-1.08l-.6.9c2.26 2.09 4.61 4.09 6.74 6.32 1.44 1.5 3.08 1.48 4.84 1.27 1.24-.15 2.47-.44 3.71-.61a4.83 4.83 0 0 1 1.24.15v.57l-3.15.55 1.63.61-.56 1.66-2-1.46-.38.29c.67.84 1.19 2.13 2 2.4.66.21 1.77-.78 2.58-1.37.22-.16.1-.8.16-1.39a1.89 1.89 0 0 0 1.3-2.64c-.45-1.41-1.31-1.65-3.84-.95 1.55-1.43 3-2.74 4.14-3.79-2.35-.37-4.81-.64-7.23-1.14z" />
    <path d="M18.87 21.14c-.41-.54-1.86-.29-2.83-.41-.2 0-.4-.09-.79-.18-.58 1.44-1.16 2.74-1.61 4.09-.19.58-.31 1.7-.12 1.79.92.4 2.17 1 2.9.65a2.57 2.57 0 0 1 2.74.09 1.92 1.92 0 0 0 1.55-.17 1.31 1.31 0 0 0 .49-1.18 20.59 20.59 0 0 0-2.33-4.68zM15 19.89c-2 .42-3 1.42-3.27 3.09a12.83 12.83 0 0 1-.6 1.88L9 29.92l1.4.85a39.1 39.1 0 0 0 2.21-5.33c.43-1.66.7-3.3 2-4.55.21-.2.23-.6.39-1z" />
    <path d="M11.11 24.87a5 5 0 0 1 .75-4.07 3.87 3.87 0 0 1 .9-.79 6.21 6.21 0 0 1 1.46-.65c-3.56-.21-4.57.71-4.53 3.74 0 .67-.16 1.34-.17 2a10.8 10.8 0 0 0 .22 1.64c.68-.92 1-1.43 1.41-1.93z" />
    <path d="M11.11 24.87a5 5 0 0 1 .75-4.06 5 5 0 0 0-.75 4.06zM11.15 24.82z" />
  </svg>