<?xml version="1.0" encoding="utf-8"?>
<svg version="1.1" xmlns="http://www.w3.org/2000/svg" xmlns:xlink="http://www.w3.org/1999/xlink" x="0px" y="0px"
	 viewBox="0 0 32 32" style="enable-background:new 0 0 100 100;" xml:space="preserve">
	 <path d="M4.7 18.63C2.39 20.51 2 22.4 3.47 24.08a3.26 3.26 0 0 0 4.93 0c1.56-1.71 1-3.65-1.48-5.64.4-.34.82-.65 1.19-1 1.28-1.29 2.75-1.35 3.72.19a6.7 6.7 0 0 0 11.26.09 7 7 0 0 0 .44-1 8.35 8.35 0 0 0 .3-1c.08-.34.15-.69.2-1a16.15 16.15 0 0 0 .11-2c0-1.69-.2-3.4-.1-5.08 0-.23-.4-.62-.68-.69a22.37 22.37 0 0 0-12.53.18v7.61h-.45c-.11-.52-.22-1-.32-1.53H7c1.16 1.66.71 3.55-.79 4-1.66.49-2.68-.28-2.75-2 0-.74-.18-1.48-.28-2.22l-.55.1a15.81 15.81 0 0 0 .09 3.9c.17.73 1.28 1.13 1.98 1.64zM20.55 8.31h2.54c.67 4.52-.22 5.65-2.54 4.87zm-5.09-1.1h4v12h-4zM11.8 8.32h2.63v4.78c-1.83.52-2.56.05-2.63-1.69-.04-.99 0-1.99 0-3.09z" />
    <path d="M23.09 17.72a7 7 0 0 0 .44-1 7 7 0 0 1-.44 1zM22.45 19.44A4.56 4.56 0 1 0 30.24 18a4.63 4.63 0 0 0-5.77-1c-.45.25-.91.47-1.36.7-.22.59-.47 1.16-.66 1.74zm7.3 4.23c-.86-.87-1.5-1.51-2.37-2.37h3.24zm1-2.91h-3.33l2.27-2.42zm-3.65-3.69l2.38.9-2.38 1.81zm-.2 4.59l2.43 2.28L26.92 25zM26.49 25a14.08 14.08 0 0 1-2-1.08 6.34 6.34 0 0 1 .56-1.16l-1.43.67c-.29-.79-.53-1.45-.82-2.26h3l-.45 1.3c.49-.47.88-.63 1-.18 0 .06 0 .14.06.23a1.83 1.83 0 0 1 0 .35c.1.59.08 1.13.08 2.13zm-2.25-7.15L26.5 17v3l-1.31-.45.52.74.24.33h-3.17l.94-1.94 1.18.58zM23.11 17.71z" />
    <path d="M24.47 17c-.45.25-.91.47-1.36.7.45-.22.89-.44 1.36-.7zM23.12 17.68l-.05.05zM15.91 18.75h3.14V7.7h-3.14zm.76-10.47h1.78v5l-1.78.08z" />
  </svg>