<?xml version="1.0" encoding="utf-8"?>
<svg version="1.1" xmlns="http://www.w3.org/2000/svg" xmlns:xlink="http://www.w3.org/1999/xlink" x="0px" y="0px"
	 viewBox="0 0 32 32" style="enable-background:new 0 0 100 100;" xml:space="preserve">
	 <path d="M24.23 18.82v-.09l-.09.05-.14-.05.72-11.44a15.92 15.92 0 0 0-17.36 0l1.09 11.32c-3 .88-5 2.28-5 3.86 0 2.67 5.64 4.83 12.59 4.83s12.59-2.16 12.59-4.83c-.04-1.47-1.73-2.77-4.4-3.65zm-15.67.91c1.81.75 9 3.33 15.13 0 .07 1.06 0 2.5-.41 2.93-.57.58-7.59 2.4-14-.06-.12-.06-.75-.72-.72-2.87zm.35-11.82a3.86 3.86 0 0 0 .57.21l.67.18.88.17 1 .14c.38 0 .77.08 1.18.1.81 0 1.69.09 2.57.09H18.35q.62 0 1.17-.09l1-.13.87-.18.65-.19a3.74 3.74 0 0 0 .55-.24 1.39 1.39 0 0 1-.33.43 4.53 4.53 0 0 1-1.26.78 9.25 9.25 0 0 1-2.35.66c-.44.07-.91.13-1.4.16s-.89.05-1.42.05-1 0-1.43-.07c-.24 0-.47 0-.7-.07s-.46-.06-.68-.11a10.63 10.63 0 0 1-1.26-.29 8.31 8.31 0 0 1-1.07-.38 5.65 5.65 0 0 1-.82-.42 3.78 3.78 0 0 1-.56-.39 1.64 1.64 0 0 1-.4-.41z" />
  </svg>