<?xml version="1.0" encoding="utf-8"?>
<svg version="1.1" xmlns="http://www.w3.org/2000/svg" xmlns:xlink="http://www.w3.org/1999/xlink" x="0px" y="0px"
	 viewBox="0 0 32 32" style="enable-background:new 0 0 100 100;" xml:space="preserve">
	 <path d="M24 13.59a.3.3 0 0 0 0 .59.3.3 0 0 0 0-.59z" />
    <path d="M26.63 14.82a1.29 1.29 0 0 0-.35-.71 1.88 1.88 0 0 0-.25-.24l-.13-.1-.06-.16a1 1 0 0 0-.12-.29c-.06-.09-.11-.19-.16-.28l-.22-.25a1.64 1.64 0 0 0-.25-.21 1.17 1.17 0 0 0-.28-.17 2.57 2.57 0 0 0-.61-.2 2.5 2.5 0 0 0-.61 0 4 4 0 0 0-.59.08 3.69 3.69 0 0 0-.56.19 3.6 3.6 0 0 0-.52.26 4 4 0 0 0-.47.34l-.22.2a2.42 2.42 0 0 1 .24-.55 4.47 4.47 0 0 0 .24-.49 2 2 0 0 0 .08-.29 2.19 2.19 0 0 0 0-.3 3 3 0 0 0-.25-1.13c-.14-.34-.3-.66-.42-1s-.11-.32-.17-.48-.09-.32-.13-.49a8.19 8.19 0 0 1-.18-1c-.09-.68-.15-1.37-.18-2.08V4.41a5.43 5.43 0 0 0 0-.56.52.52 0 0 0-.14-.31.51.51 0 0 0-.33-.14.71.71 0 0 0-.54.29 3 3 0 0 0-.3.46 8 8 0 0 0-.46 1 8.08 8.08 0 0 0-.43 1.76.81.81 0 0 0-.11-.2l-.12-.09a.69.69 0 0 0-.52 0 1.21 1.21 0 0 0-.59.43l-.09.16-.06.11c0 .1-.08.19-.11.28a3 3 0 0 0-.17 1.11 3.74 3.74 0 0 0 .17 1.07 4.16 4.16 0 0 0 .23.62.6.6 0 0 0-.19-.06h-.11a.24.24 0 0 0-.12 0 .47.47 0 0 0-.26.28.57.57 0 0 0 0 .34 1 1 0 0 0 .1.28c.09.16.18.28.26.42l.43.65-.08-.07a4.15 4.15 0 0 0-1.88-.78 7.77 7.77 0 0 0-2-.06c-.65 0-1.28.09-1.89.07h-.46l-.69-.25a7.26 7.26 0 0 1-.9-.2 15.63 15.63 0 0 1-3.48-1.57.13.13 0 0 0-.14.09c0 .13-.05.26-.07.39a2.54 2.54 0 0 0 0 .39 3.21 3.21 0 0 0 .16.76 3.76 3.76 0 0 0 .8 1.31 5.47 5.47 0 0 0 .56.51c.2.15.41.29.62.42a10.55 10.55 0 0 0 .93.5 2.09 2.09 0 0 1-1.23.14.29.29 0 0 0-.3.26 1.35 1.35 0 0 0 .19.82 2.23 2.23 0 0 0 .52.58l.31.21.32.16.33.13.34.1a4.53 4.53 0 0 0 1.37.13l-.06.05a1.81 1.81 0 0 0-.25.3 1.07 1.07 0 0 0-.18.42.89.89 0 0 0 0 .51.39.39 0 0 0 .36.26 5.1 5.1 0 0 0 1.69-.3l.39-.16-.07.16a2 2 0 0 0-.11.32.83.83 0 0 0 0 .42.62.62 0 0 0 .31.43.8.8 0 0 0 .44.07 1.73 1.73 0 0 0 .31-.08 2.64 2.64 0 0 0 .57-.24 3.51 3.51 0 0 0 .4-.27v.24a1 1 0 0 0 0 .24.54.54 0 0 0 .28.44h.05a8.76 8.76 0 0 0-.82.9c-.3.35-.59.7-.89 1s-.32.3-.49.45-.34.29-.52.42l-1.09.81c-.19.13-.37.27-.55.42a4.69 4.69 0 0 0-.53.48A2.71 2.71 0 0 0 8.68 25a1.81 1.81 0 0 0 0 .4 1.49 1.49 0 0 0 0 .21.45.45 0 0 0 .11.27l.1.06a.5.5 0 0 0 .16 0 .68.68 0 0 0 .24-.07 2 2 0 0 0 .3-.23l.06-.05a2.86 2.86 0 0 0-.23 1 .54.54 0 0 0 0 .18.38.38 0 0 0 .11.22.52.52 0 0 0 .41.1h.18l.14-.06a1.59 1.59 0 0 0 .29-.15l.09-.07v.83a2.24 2.24 0 0 0 .14.36 1.5 1.5 0 0 0 .26.33.83.83 0 0 0 .49.19.82.82 0 0 0 .48-.17l.16-.15.06-.07.05-.06.18-.26a1.75 1.75 0 0 0 .32.35 1 1 0 0 0 .3.2.71.71 0 0 0 .49.06.82.82 0 0 0 .41-.27l.07-.09v-.05l.08-.14a1.9 1.9 0 0 0 .21-.62 6.21 6.21 0 0 0 0-1.13v-.51a4.24 4.24 0 0 1 0-.51 4.87 4.87 0 0 1 .17-1 4.5 4.5 0 0 1 .16-.48 3.68 3.68 0 0 1 .23-.44 2 2 0 0 1 .31-.4 2 2 0 0 1 .4-.3 6.43 6.43 0 0 0 .89.22 7.32 7.32 0 0 0 .94.12 6.07 6.07 0 0 0 .95 0 2.67 2.67 0 0 0 .48-.08 2.89 2.89 0 0 0 .47-.11 4.28 4.28 0 0 0 .66-.13 3.55 3.55 0 0 0 .44-.21 4.5 4.5 0 0 0 .81-.56 4.15 4.15 0 0 0 .66-.73 6 6 0 0 0 .5-.84 6.87 6.87 0 0 0 .38-.88c.11-.3.21-.6.3-.91.18-.6.33-1.22.48-1.82 0-.15.09-.3.13-.44s.05-.15.08-.21a.43.43 0 0 1 0-.07 1.5 1.5 0 0 1 .71-.36 6.08 6.08 0 0 1 .87-.15 8.62 8.62 0 0 1 .87-.05.33.33 0 0 0 .28-.37zM9.07 25.61zm0 0zm8.42-18.44zm0 0zm-1 4.2c-.06-.15-.13-.3-.18-.44a.49.49 0 0 1-.05-.19.24.24 0 0 1 0-.12.12.12 0 0 1 .07-.06l.15.14.18.17c.23.22.46.44.7.65a.27.27 0 0 0 .34 0 .31.31 0 0 0 .12-.41c-.16-.29-.3-.57-.43-.86a6 6 0 0 1-.3-.87 3.85 3.85 0 0 1-.11-.88 2.84 2.84 0 0 1 .14-.84 1.71 1.71 0 0 1 .07-.18l.06-.11v-.06a.44.44 0 0 1 .14-.13v.14l.08.24.61 1.88a.32.32 0 0 0 .62-.18 10 10 0 0 1-.27-2 6.45 6.45 0 0 1 .26-2 5.44 5.44 0 0 1 .41-1 3.4 3.4 0 0 1 .28-.42.47.47 0 0 1 .36-.19.3.3 0 0 1 .15.07.21.21 0 0 1 .05.16 4.77 4.77 0 0 1 0 .51c0 .36-.07.71-.1 1.07a11.35 11.35 0 0 0 0 2.18 7 7 0 0 0 .2 1.09 5.34 5.34 0 0 0 .16.53c.07.18.13.36.21.52a6.91 6.91 0 0 1 .79 1.86 1.91 1.91 0 0 1 0 .24 1.11 1.11 0 0 1 0 .23c0 .16-.09.32-.14.49a2.24 2.24 0 0 0-.17.86c-.06.06-.11.15-.17.22l-.08.13-.07.1a1.86 1.86 0 0 1-.29.41 1.93 1.93 0 0 1-.35.35 2.31 2.31 0 0 1-.42.27 2.07 2.07 0 0 1-.47.18 2.24 2.24 0 0 1-.51.07 1.3 1.3 0 0 1-.56-.53 2.4 2.4 0 0 1-.11-.23 2 2 0 0 1 .51.11.18.18 0 0 0 .16 0 .2.2 0 0 0 .09-.27l-.05-.1c-.1-.22-.19-.43-.27-.64l-.06-.17v-.16a1 1 0 0 1-.05-.25v-.06s.11 0 .24.06a.86.86 0 0 0 .26.05.56.56 0 0 0 .35-.08l.07-.05a.23.23 0 0 0 0-.32 2.47 2.47 0 0 1-.59-.89 1 1 0 0 1 0-.52 2.25 2.25 0 0 1 .08-.24 1 1 0 0 1 .12-.19v-.06l.06-.05a.56.56 0 0 1 .09.13c.08.16.18.32.28.48a3.73 3.73 0 0 0 .35.46 2.74 2.74 0 0 0 0-.58 5.59 5.59 0 0 0-.12-.56 1 1 0 0 0-.16-.34.63.63 0 0 0-.49-.24.65.65 0 0 0-.46.25 1 1 0 0 0-.1.17v.17a1 1 0 0 0 0 .34 3 3 0 0 0 0 .31 5.13 5.13 0 0 0 .12.59 5.44 5.44 0 0 0 .15.54.81.81 0 0 0-.26-.07H18a.77.77 0 0 0-.2.07.73.73 0 0 0-.26.23.85.85 0 0 0-.15.3v.16a.21.21 0 0 0 0 .11l-.08-.15a2.77 2.77 0 0 0-.44-.58 5.08 5.08 0 0 0-.34-1.02zm1.34 3c-.06-.16-.11-.33-.16-.51a.25.25 0 0 1 0 .07 2.48 2.48 0 0 0 .28.36.8.8 0 0 0-.08.05zm1-3.83s.01-.04.04-.03zm6.48 4.14a5 5 0 0 0-.93.28 3.19 3.19 0 0 0-.45.23 1.46 1.46 0 0 0-.21.16 1.14 1.14 0 0 0-.19.2v.05a.69.69 0 0 0 0 .13 1.29 1.29 0 0 0-.06.25c0 .16-.06.31-.09.47a11.4 11.4 0 0 1-.45 1.81 6.92 6.92 0 0 1-.93 1.67 6.36 6.36 0 0 1-.56.7l-.31.31-.33.28a5 5 0 0 1-.71.49l-.38.2a3.33 3.33 0 0 1-.4.16 3.45 3.45 0 0 1-.42.14 3.2 3.2 0 0 1-.42.1 6.67 6.67 0 0 1-.88.13h-1.82a1.57 1.57 0 0 0-.49.23 2.83 2.83 0 0 0-.4.37 3.29 3.29 0 0 0-.57 1A5.73 5.73 0 0 0 14 25.1a5 5 0 0 0-.08.54v.56a5 5 0 0 1-.09 1 1.51 1.51 0 0 1-.14.38 1.42 1.42 0 0 1-.11.16.36.36 0 0 1-.14-.1 1.48 1.48 0 0 1-.25-.31 1.34 1.34 0 0 1-.2-.78.39.39 0 0 0-.78 0 1.85 1.85 0 0 1-.2.95 1.37 1.37 0 0 1-.13.2v.06l-.06.06h-.06a.52.52 0 0 1-.11-.13 1.08 1.08 0 0 1-.08-.19v-.25a2.51 2.51 0 0 1 0-.27 3 3 0 0 1 .09-1.08.27.27 0 0 0-.16-.35.26.26 0 0 0-.34.16 1.64 1.64 0 0 1-.53.84 1.53 1.53 0 0 1-.21.14l-.12.06h-.1a.17.17 0 0 1-.13 0v-.15a2.5 2.5 0 0 1 .2-1.08 3.25 3.25 0 0 1 .25-.45 6 6 0 0 0 .42-.46.12.12 0 0 0 0-.16.12.12 0 0 0-.17 0 3.45 3.45 0 0 0-.26.28 4.94 4.94 0 0 1-.75.62l-.27.15h-.07v-.19a1.53 1.53 0 0 1 .07-.29 2.46 2.46 0 0 1 .72-1c.16-.14.32-.28.5-.42l.54-.41c.35-.28.72-.55 1.07-.86.18-.15.35-.31.52-.48a5.8 5.8 0 0 0 .48-.52 9.61 9.61 0 0 0 .79-1.17c.22-.36.44-.72.68-1.07h.1a1.05 1.05 0 0 0 .21-.06 1.93 1.93 0 0 0 .38-.19 2.1 2.1 0 0 0 .6-.55v-.05h-.38a2.09 2.09 0 0 1-.64.44 1.48 1.48 0 0 1-.35.13.43.43 0 0 1-.3 0 .27.27 0 0 1-.09-.23.86.86 0 0 1 0-.16.25.25 0 0 0 0-.07c0-.12.11-.23.17-.37a1 1 0 0 0 .09-.5.31.31 0 0 0-.06-.13.2.2 0 0 0-.29 0 2.45 2.45 0 0 1-.83.6 3 3 0 0 1-.47.17h-.34a.45.45 0 0 1 0-.14 1.65 1.65 0 0 1 .09-.21l.12-.25c.17-.32.35-.64.55-.94a.36.36 0 0 0 0-.41.34.34 0 0 0-.49-.08 4.64 4.64 0 0 1-1.31.67 3.91 3.91 0 0 1-1 .2l.08-.09.08-.07h.05a5.8 5.8 0 0 0 .52-.37 1.28 1.28 0 0 0 .47-.68.43.43 0 0 0 0-.25.37.37 0 0 0-.49-.2 3.86 3.86 0 0 1-2.35.22l-.29-.08-.28-.1-.27-.12-.07-.14a1.36 1.36 0 0 1-.47-.55A2.5 2.5 0 0 0 9.05 14a.23.23 0 0 0 .07-.1.21.21 0 0 0-.12-.31A14.24 14.24 0 0 1 7.68 13a6.34 6.34 0 0 1-.62-.37 4 4 0 0 1-.56-.46 3.48 3.48 0 0 1-.45-.55 3.15 3.15 0 0 1-.31-.62 2.29 2.29 0 0 1-.1-1.24c.5.31 1 .63 1.51.93a12.64 12.64 0 0 0 1.78.85 7.61 7.61 0 0 0 1 .29l.49.09h.5a14.1 14.1 0 0 0 2-.07 10.39 10.39 0 0 1 1.85 0 3.9 3.9 0 0 1 1.69.6 2.4 2.4 0 0 1 .62.61 4.19 4.19 0 0 1 .41.85 3.83 3.83 0 0 0 .46.9 1.24 1.24 0 0 0 .83.53h-.07a2 2 0 0 0 1.08 0 1.84 1.84 0 0 0 .52-.23 2.55 2.55 0 0 0 .47-.34 3.81 3.81 0 0 0 .39-.42l.17-.2a1.37 1.37 0 0 1 .16-.18l.18-.16.2-.14a3.54 3.54 0 0 1 .41-.26 2.49 2.49 0 0 1 .45-.18 3.47 3.47 0 0 1 .46-.13 2.4 2.4 0 0 1 .46-.05 3.29 3.29 0 0 1 .45 0 1.72 1.72 0 0 1 .4.14.64.64 0 0 1 .18.1c.05 0 .12.07.16.13l.14.15.12.18a1.24 1.24 0 0 1 .1.2l.08.21v.06a.25.25 0 0 0 .14.16l.1.07.1.07.17.14z" />
    <path d="M17.11 16.3a1.8 1.8 0 0 1-.61.5 1.12 1.12 0 0 1-.35.12h-.32a.19.19 0 0 1-.08 0v-.24a1.37 1.37 0 0 1 .33-.56.39.39 0 0 0 0-.51.37.37 0 0 0-.52 0 2.15 2.15 0 0 1-.63.39 2.3 2.3 0 0 1-.34.12h-.19l.06-.15a5.07 5.07 0 0 1 .34-.75.33.33 0 0 0 0-.33.3.3 0 0 0-.42-.06 2.74 2.74 0 0 1-.67.42.58.58 0 0 1-.16.05h-.15a.61.61 0 0 1-.32-.13A.49.49 0 0 1 13 15a.58.58 0 0 1-.06-.15.51.51 0 0 1 .11-.33c.16-.22.43-.35.64-.63a.12.12 0 0 0 0-.1.13.13 0 0 0-.15-.12 4.63 4.63 0 0 1-1.34 0l-.31-.05-.3-.08a1.8 1.8 0 0 1-.5-.25 1.13 1.13 0 0 1-.13-.1l.15-.08.3-.17 1.25-.62a5.48 5.48 0 0 0-1.4.24l-.34.12-.17.06a.85.85 0 0 0-.22.13.52.52 0 0 0-.2.28.57.57 0 0 0 0 .22.66.66 0 0 0 .07.2l.09.12.05.06.14.12A2.5 2.5 0 0 0 11 14a2.87 2.87 0 0 0 .37.15 2.63 2.63 0 0 0 .39.06 1.63 1.63 0 0 0 .38 0 4.28 4.28 0 0 0 .73-.11l.27-.08a2.83 2.83 0 0 0-.3.3.77.77 0 0 0-.18.48.73.73 0 0 0 .22.5 1 1 0 0 0 .43.27.91.91 0 0 0 .27.05 1.14 1.14 0 0 0 .26 0l-.09.21a1.05 1.05 0 0 0-.09.32.71.71 0 0 0 0 .14.2.2 0 0 0 0 .09.6.6 0 0 0 .18.26.74.74 0 0 0 .39.16.91.91 0 0 0 .33 0h.23l.33-.11v.05a.76.76 0 0 0 .06.34.17.17 0 0 0 0 .07.57.57 0 0 0 .08.09.61.61 0 0 0 .16.12.74.74 0 0 0 .31.06 1.1 1.1 0 0 0 .27 0h.11l.12-.05a2 2 0 0 0 .39-.26 1.64 1.64 0 0 0 .48-.75s.02-.08.01-.06zm-6.26-3.09s-.02.02 0 0z" />
  </svg>