<?xml version="1.0" encoding="utf-8"?>
<svg version="1.1" xmlns="http://www.w3.org/2000/svg" xmlns:xlink="http://www.w3.org/1999/xlink" x="0px" y="0px"
	 viewBox="0 0 32 32" style="enable-background:new 0 0 100 100;" xml:space="preserve">
	 <path d="M18.82 11.24a7.79 7.79 0 0 0-3.09 1c-.08 0-.08.14-.05.26A13.21 13.21 0 0 0 12 14.86a1.17 1.17 0 0 0-.47.49 1.16 1.16 0 0 0-.08.91v.06a1.51 1.51 0 0 0 .09.18.9.9 0 0 0 .28.27A1.28 1.28 0 0 0 12 17a1.18 1.18 0 0 0 .55.14 1.09 1.09 0 0 0 .26 0 6.59 6.59 0 0 0 1.86-.39l-.13-.32a7.66 7.66 0 0 1-1.06.29 1.2 1.2 0 0 0 .21-1.1 1.18 1.18 0 0 0-.59-.7 1.23 1.23 0 0 0-.49-.13 14.27 14.27 0 0 1 3.19-1.91c.09.17.2.33.23.4s.23.18.61.07a.64.64 0 0 1 .51 1.14c-.42.29-.38.26-.13.83-.17.1-.39.21-.62.32l.13.31.67-.34v-.06c.25.23.64 0 1.59-.5a3.1 3.1 0 0 0 1.77-1.94 1.62 1.62 0 0 0-1.74-1.87zM13 15.14a.82.82 0 0 1 .43.5.87.87 0 0 1-.56 1.08h-.06a1.38 1.38 0 0 1-.74-.17.81.81 0 0 1-.25-.35 1.21 1.21 0 0 1 .41-1.08l.12-.05a1.17 1.17 0 0 1 .26 0 .76.76 0 0 1 .39.07zm6.2-1.62l-.48-.18-.42.29v-.51l-.41-.31.49-.14.16-.48.29.42h.51L19 13z" />
    <path d="M28.52 11.12A5.9 5.9 0 0 0 26.43 7a25.57 25.57 0 0 0-5.24-.79l-5.35-.17c-1.79-.05-6.13.24-6.52.32A8.68 8.68 0 0 0 6 7.35a5.28 5.28 0 0 0-2.52 4.14 9.74 9.74 0 0 0 .46 4.29.13.13 0 0 0 .06.07.65.65 0 0 0 0 .49 10.29 10.29 0 0 0 .64 1.49 8.22 8.22 0 0 0 .58 1.37 15.35 15.35 0 0 0 2.1 2.8 9.13 9.13 0 0 0 1.84 1.73 4.65 4.65 0 0 0 1.61.62 2.33 2.33 0 0 0 1.06 1 5.34 5.34 0 0 0 1.7.44 21.22 21.22 0 0 0 2.53.15h.3a9.11 9.11 0 0 0 3.07-.48 4.54 4.54 0 0 0 2-1.45 2.82 2.82 0 0 0 1.12-.8 11.36 11.36 0 0 0 2.07-2 30.16 30.16 0 0 0 2.42-3.73c.12-.21.83-1.31.85-1.35a10.14 10.14 0 0 0 .63-5.01zm-1.58 4.61a2.16 2.16 0 0 0-.55.21 9.36 9.36 0 0 0-4.46 5.66c-.15.52-.25 1.11-.41 1.66a3.93 3.93 0 0 1-2.19 1.83 8.74 8.74 0 0 1-2.94.46 21.64 21.64 0 0 1-2.79-.15A5.14 5.14 0 0 1 12 25a1.83 1.83 0 0 1-1-1.12.18.18 0 0 0-.19-.12 1.93 1.93 0 0 0-.28-.6 7.93 7.93 0 0 0-.82-.92 6.33 6.33 0 0 1-1.37-2.33 10.06 10.06 0 0 0-.85-2.36 3.64 3.64 0 0 0-1.29-1.08 5.6 5.6 0 0 0-1.32-.61h-.11A7.46 7.46 0 0 1 5 9.41 5.17 5.17 0 0 1 6 8.2a2.43 2.43 0 0 0 1 .54 14.59 14.59 0 0 0 4.93.61c4.71 0 10.21.47 14-1.53a4.28 4.28 0 0 1 1.21 1.26c1.02 1.71.95 4.09-.2 6.65z" />
  </svg>