<?xml version="1.0" encoding="utf-8"?>
<svg version="1.1" xmlns="http://www.w3.org/2000/svg" xmlns:xlink="http://www.w3.org/1999/xlink" x="0px" y="0px"
	 viewBox="0 0 32 32" style="enable-background:new 0 0 100 100;" xml:space="preserve">
	 <path d="M19.7 6.61c.22-.2.16-.35-.13-.35H13a1.41 1.41 0 0 0-.89.38l-.81.83c-.2.21-.13.38.16.38h6.3a1.59 1.59 0 0 0 .93-.35zM10.86 17.69a.72.72 0 0 0-.52.66v6.86a.44.44 0 0 0 .53.44 44.06 44.06 0 0 0 4.64-1v-7.53a.4.4 0 0 0-.51-.41zM23.15 21.39c-.06.28 0 .53 0 .55h.06a.67.67 0 0 0 .2 0h.28c.08 0 .08-.27 0-.55l-.18-.59c-.09-.28-.2-.28-.26 0z" />
    <path d="M20.17 17.51a.58.58 0 0 0-.53.57v6.75a.49.49 0 0 0 .53.49l6.3-.54a.58.58 0 0 0 .53-.57v-6.7a.49.49 0 0 0-.53-.49zM25 23.57h-.34c-.1 0-.25-.21-.33-.45s-.25-.4-.37-.36h-.11a1.75 1.75 0 0 1-.32 0 1.53 1.53 0 0 1-.3 0h-.1c-.12 0-.26.15-.31.39s-.18.46-.28.48H21.87c-.13 0-.18-.25-.11-.53l.92-3.56c.07-.29.22-.53.34-.55h.74c.13 0 .31.23.41.51l1.22 3.5a.39.39 0 0 1-.26.57zM14.68 12a.43.43 0 0 0 .16-.38.48.48 0 0 0-.05-.22.47.47 0 0 0-.14-.14.48.48 0 0 0-.18-.07h-.32a1.1 1.1 0 0 0-.07.47c0 .26 0 .47.09.47h.41zM14.71 13h-.51c-.07 0-.13.23-.14.53a1.4 1.4 0 0 0 .06.54h.22a1 1 0 0 0 .24 0 .57.57 0 0 0 .23-.08.41.41 0 0 0 .19-.19.53.53 0 0 0 .07-.26.46.46 0 0 0-.2-.43z" />
    <path d="M18.25 16c0-.09.19 0 .41.17l.29.25a1.41 1.41 0 0 0 .93.28l6.25-.65c.29 0 .33-.18.09-.35l-1-.64a1.55 1.55 0 0 0-1-.24l-3.52.36c-.29 0-.39-.08-.23-.25a1.41 1.41 0 0 0 .29-.84v-6.5c0-.3-.17-.37-.38-.17l-.72.69a1.46 1.46 0 0 0-.38.9v6.68c0 .29 0 .5.06.46s0 0 0 .05-.28 0-.54-.11l-.07-.09a.94.94 0 0 1-.48-.76v-6a.53.53 0 0 0-.53-.53h-6.29a.53.53 0 0 0-.54.53v5.07c0 .29 0 .52-.11.51a3.28 3.28 0 0 0-.62.11l-3.66.84c-.29.07-.29.18 0 .25l3.07.77a2.38 2.38 0 0 0 1 0l1.77-.48a4.57 4.57 0 0 1 1-.14h2.59a.53.53 0 0 1 .53.53v6.51a1.36 1.36 0 0 0 .4.88l1.26 1.12c.22.19.4.11.4-.18v-6.84a1.42 1.42 0 0 0-.39-.89l-.78-.74c-.22-.2-.15-.37.14-.37H18c.14-.01.25-.08.25-.19zM16 14.28a1.24 1.24 0 0 1-.42.43 1.93 1.93 0 0 1-.64.21 4 4 0 0 1-.8.05 5.53 5.53 0 0 1-.61 0h-.18a.54.54 0 0 1-.4-.58v-3.46c0-.29.16-.55.34-.58H14.15a4.59 4.59 0 0 1 .67.07 1.45 1.45 0 0 1 .54.21 1.12 1.12 0 0 1 .37.38 1.21 1.21 0 0 1 .13.6 1.09 1.09 0 0 1-.14.54l-.09.17c-.14.11-.17.25-.06.3l.09.06a1 1 0 0 1 .24.23 1 1 0 0 1 .16.33 1.57 1.57 0 0 1-.1 1.12z" />
    <path d="M5 24.09a.7.7 0 0 0 .52.65l3.36.74a.41.41 0 0 0 .51-.42v-6.75a.7.7 0 0 0-.51-.65l-3.36-.79a.41.41 0 0 0-.52.41zm1-3.58a2.61 2.61 0 0 1 .3-.74 1.45 1.45 0 0 1 .46-.49 1.09 1.09 0 0 1 .62-.17 1.6 1.6 0 0 1 .39.05h.12a.55.55 0 0 1 .26.49v.16L8 20c0 .14-.13.23-.19.2l-.13-.05H7.39a.58.58 0 0 0-.54.34 2.21 2.21 0 0 0-.2 1q0 1.35.75 1.35a1 1 0 0 0 .25 0h.09c.11-.05.25 0 .29.21s0 .67-.06.72H7.9l-.21.07H7.3a1.14 1.14 0 0 1-.64-.18 1.42 1.42 0 0 1-.45-.49 2 2 0 0 1-.27-.74 4.47 4.47 0 0 1 0-1.88z" />
  </svg>