<?xml version="1.0" encoding="utf-8"?>
<svg version="1.1" xmlns="http://www.w3.org/2000/svg" xmlns:xlink="http://www.w3.org/1999/xlink" x="0px" y="0px"
	 viewBox="0 0 32 32" style="enable-background:new 0 0 100 100;" xml:space="preserve">
	 <path d="M9.78 23.23a1.13 1.13 0 0 0 1 .19c3-1.57 5.93-3.22 7.67-6.28a3.54 3.54 0 0 0-.33-4.14 3.68 3.68 0 0 0-4-1.42 34.65 34.65 0 0 0-3.35 1.19 32.06 32.06 0 0 0-3.17-1.44 4.54 4.54 0 0 0-5 1.59c-.9 1.26-.89 3 .62 4.53 2.02 2.09 4.34 3.89 6.56 5.78z" />
    <path d="M17.17 21c1.38 1.05 2.63 2 3.93 3a1.31 1.31 0 0 0 1.12.18c3.3-1.89 6.55-3.87 8.38-7.39a4.61 4.61 0 0 0-1-5.57 4.13 4.13 0 0 0-5-.61 2 2 0 0 1-2.6-.32c-2-1.55-4.23-1.57-5.88-.25 4.42 1.7 6.1 5.96 1.05 10.96z" />
  </svg>