<?xml version="1.0" encoding="utf-8"?>
<svg version="1.1" xmlns="http://www.w3.org/2000/svg" xmlns:xlink="http://www.w3.org/1999/xlink" x="0px" y="0px"
	 viewBox="0 0 32 32" style="enable-background:new 0 0 100 100;" xml:space="preserve">
	 <path d="M27.86 19.59a7.68 7.68 0 0 0-.59-.69q-4.47-5.08-8.92-10.18c-1.16-1.33-.9-2.63.65-3.27.27-.11.43-.27.39-.56a.53.53 0 0 0-.66-.47c-.94.12-1.1-.4-1-1.18 0-.32.09-.77-.45-.78s-.51.41-.49.75c0 .78-.12 1.3-1.06 1.21-.37 0-.74 0-.73.54s.39.54.75.5c1-.11 1 .44 1 1.2A3 3 0 0 1 15.86 9Q10.93 14.54 6 20.15c-.22.25-.66.48-.44.87s.7.29 1.08.15c.22-.08.37-.35.74-.16v3.75c.08 1.55-.71 3.66.35 4.48s3 .23 4.57.27a.75.75 0 0 1 .15 0c.81.11 1.05-.29 1-1.05 0-1.37.09-2.75 0-4.11-.19-2.23 1.33-3.22 2.84-4.26a1.47 1.47 0 0 1 1.84.17c1.24 1 2.42 2.12 2.25 4-.13 1.4 0 2.83 0 4.25 0 .72.25 1 1 1 1.42 0 2.84-.06 4.26 0 1 0 1.33-.25 1.3-1.27-.06-2.42 0-4.84 0-7.36.73 0 1.48.87 1.87.1.19-.51-.63-.91-.95-1.39zM8.92 27.14c-.2-.08-.39-.17-.38-.39 0-1.29-.4-2.63.36-3.85s1.38-1.28 2.24-.07c.47.67.51.86.51 2.45s-1.1 2.49-2.73 1.86zM18.9 16c-.07 1.81-1.06 2.55-2.74 1.9-.95-.37-.28-1.25-.51-1.75 0-1.78 1-3.76 1.64-3.45 1.34.61 1.71 1.86 1.61 3.3zm4.23 10.9a.68.68 0 0 1-.47-.69v-1.06c0-1.64.85-3.47 1.62-3.48S26 23.48 26 25.11s-1.23 2.42-2.87 1.79z" />
  </svg>