<?xml version="1.0" encoding="utf-8"?>
<svg version="1.1" xmlns="http://www.w3.org/2000/svg" xmlns:xlink="http://www.w3.org/1999/xlink" x="0px" y="0px"
	 viewBox="0 0 32 32" style="enable-background:new 0 0 100 100;" xml:space="preserve">
	 <path d="M26.73 10.85a2.28 2.28 0 0 0-1.12-1.56c-1.61-1.09-3.33-.78-5.14-.14.19-.81.37-1.44.49-2.07a5 5 0 0 0-1.43-4.73 3.39 3.39 0 0 0-5.69 1.51c-.47 1.49.21 2.84.25 4.28-.82-.4-1.56-.85-2.36-1.15A3.15 3.15 0 0 0 8 8.05a3.19 3.19 0 0 0 1.31 3.84 9.27 9.27 0 0 0 1.93.85c.52.19 1.08.3 1.77.49a7.58 7.58 0 0 0-3 2.52c-.45.79-.78 1.59-.14 2.4a2.64 2.64 0 0 0 2.48 1.19 4.45 4.45 0 0 0 2.37-1.27c.44-.4.64-1 1.28-1.23a1.58 1.58 0 0 1 .08.31 4.07 4.07 0 0 1-.06.6C15.32 22.8 12.66 26.69 9 30c-.51.45-1.23.78-1.18 1.65h.58l3.17-3.06c.28-.27.48-.7 1-.55 2.15.64 3.94-.36 5.74-1.3a5 5 0 0 1 2.36-.95c.37 0 .92.06.92-.52 0-.42-.45-.48-.78-.6a11.61 11.61 0 0 0-5.78-1 33 33 0 0 0 2-6.4c1.87 2.74 4.06 3.49 5.91 2.15 1.27-.92 1.13-3-.36-5.06 1.62-.89 4.57-.27 4.15-3.51zm-7.37 14.24c-1.92 1-3.72 2.06-6 1.72 1.12-2.67 3.29-3.31 6-1.72zM8.86 8.5a1 1 0 0 1 1-.9c-.06.61-.62.65-1 .9zm3.45 1.71c-.12-.55-.12-.86-.76-.65-.24.09-.3 0-.28-.26.05-.79 0-.79-1.07-.67.32-1.1.85-1.25 1.72-.77 1.82 1 3.31 2.27 3.77 4.44-1.69.17-3.06-.59-3.38-2.09zm3-2.22c0-.29.18-.32.4-.31s.26.12.14.4l-.37.32a1.43 1.43 0 0 1-.13-.4zm-2.75 10.15c-.5.29-1.06.5-1.49-.07s-.86-1.3-.25-1.91c1.51-1.51 3.16-2.8 5.7-2.77a10 10 0 0 1-3.96 4.75zm4.18-7.25c-.28-.65-.64-1.26-1-2 .93-.07 2-.49 1.06 1.15a7.92 7.92 0 0 0 2-1.59c-.39-.7-1-.11-1.31-.45.1-.59.79-.51 1.1-.9-.69-.61-1.42 0-2.09-.19.2-.56.88-.74 1-1.35-.55-.26-1.08.11-1.74 0 .56-1 1.82-1 2.43-2-1.18-.12-2 .6-3.07.55.76-.67 1.36-1.66 2.62-1.39a2.6 2.6 0 0 1 2.13 2.45c.26 2.23.06 4.31-1.89 5.89-.7.49-.93.56-1.24-.17zm5.9 5.59a1.72 1.72 0 0 1-.56 2 1.37 1.37 0 0 1-1.91.12c-1.55-1-1.89-2.52-2-4.16 0-.29 0-.66.46-.53a4.92 4.92 0 0 1 4.01 2.57zm1.3-3.48a6.6 6.6 0 0 1-2.69.22 8.15 8.15 0 0 1-1.21 0c-.53-.08-1.31.18-1.53-.3s.47-1 .89-1.41a18.25 18.25 0 0 1 2-1.55 3 3 0 0 1 1.87-.47 2.27 2.27 0 0 1 2.15 1.82c.32 1.06-.73 1.32-1.48 1.69z" />
  </svg>