<?xml version="1.0" encoding="utf-8"?>
<svg version="1.1" xmlns="http://www.w3.org/2000/svg" xmlns:xlink="http://www.w3.org/1999/xlink" x="0px" y="0px"
	 viewBox="0 0 32 32" style="enable-background:new 0 0 100 100;" xml:space="preserve">
	 <path d="M4.21 9.75c-.12-.64-.27-1.31.31-1.81.28-.24.91-.31.94 0 .14 1.3 2.67.91 2 2.08-1 1.58.26 1.53.89 1.9 3 1.76 6 3.42 9.66 3.11a3.07 3.07 0 0 1 1 .24c.35.1.71.23.67.68s-.36.43-.65.55a3.25 3.25 0 0 1-1.79.21 2.23 2.23 0 0 0-2.24.9c2.66.25 3.39.82 4 3.23a3.72 3.72 0 0 1 4-3.48 3.53 3.53 0 0 1-1.75-4.48 4.19 4.19 0 0 1-4.83.21c.76 1.89-.29 1.46-1.34 1.25a6.06 6.06 0 0 1-5.1-4.39c-.62-2.06.31-3.19 2.44-2.85.9.14 1.56.48 1.71-.94.12-1.1 1.52-1.31 2.59-.46 1.43 1.14 1.94 2.78 2.23 4.71.57-1.18 1-2.22 1.57-3.2a5.36 5.36 0 0 1 1.17-1.38c1.2-1 2.13-.74 2.36.79s.56 2 2.2 1.55 2.81.95 2.12 2.66-2 2.6-3.65 3.76h1.79a6.27 6.27 0 0 1 3.25.59 1.48 1.48 0 0 1 .94 1.43 1.61 1.61 0 0 1-1 1.41c-2.05 1.07-2 1.08-1.08 3.21a6.19 6.19 0 0 1 .32.85c.35 1.28-.18 1.84-1.49 1.56a10.73 10.73 0 0 1-3.31-1.49c-.59-.37-1.18-.76-2.1-1.36.53 1.67 1.19 3 1.05 4.45-.09.84-.16 1.69-1 2.07a1.79 1.79 0 0 1-2.15-.7c-.91-1.09-1.79-.86-2.74 0-.52.44-1.07 1.06-1.87.69s-1-1.21-1.06-2a12.75 12.75 0 0 1 .6-4 11.79 11.79 0 0 1-3.36 1.7 1.93 1.93 0 0 1-2.12-.35 1.81 1.81 0 0 1-.16-2c.57-1.27.32-2-1-2.6-1.13-.46-1.25-1.39-.46-2.33a5.13 5.13 0 0 1 1.17-1 10.42 10.42 0 0 1 1.32-.6L6 11.26a.73.73 0 0 1-.61.11A2.43 2.43 0 0 1 4.2 10z" />
    <path d="M5.65 10.87l.36.39c0 .67 0 1.42-.92 1.41s-.94-.73-.91-1.42c-.07-.29.09-.44.32-.55a3 3 0 0 1 1.15.17z" />
    <path d="M4.33 11l-.15.28c-.45.23-.89.44-1.33 0a.85.85 0 0 1-.17-1c.29-.76 1-.43 1.53-.53.08.37.79.69.12 1.25zM2.75 7.75c.43 0 .77.23.78.74a.71.71 0 0 1-.77.75.65.65 0 0 1-.69-.66.69.69 0 0 1 .68-.83z" />
  </svg>