<?xml version="1.0" encoding="utf-8"?>
<svg version="1.1" xmlns="http://www.w3.org/2000/svg" xmlns:xlink="http://www.w3.org/1999/xlink" x="0px" y="0px"
	 viewBox="0 0 32 32" style="enable-background:new 0 0 100 100;" xml:space="preserve">
	 <path d="M26.28 19.78c-.11-.53-.57-.16-.88-.19-.71-.06-1.65-.2-1.61-1s-.38-1-.72-1.36c-.84-.94-1.7-1.87-2.58-2.78-.48-.48-.71-.88-.14-1.51.77-.86.83-2.14 1.67-3A.9.9 0 0 0 22 8.7c-.8-.65-.62-1.58-.74-2.38-.29-1.88-.73-3.64-2.87-4.17a9.39 9.39 0 0 0-5.07 0c-2.23.72-3.28 3.14-3 5.79.1.95.63 2 .4 2.8-.42 1.52.13 2.06 1.46 2.34.67.14.86.48.26 1-.8.7-1.6 1.41-2.37 2.14-.22.21-.77.48-.31.81 1.19.85 0 1.07-.35 1.48-.49.58-1.3.28-1.93.48.47 1.76 1 1.94 2.31.88.44-.34.81-.76 1.22-1.14s.55-.65 1-.38.29.62.26 1c-.31 3.32-.52 6.66-1 10-.19 1.21 0 1.91 1 2.42h1.52a1.27 1.27 0 0 0-.1-1.15c-1.27-2.07-.57-3.45 1.75-3.53.65 0 1.31-.06 2-.14 1.11-.12 1.75.18 1.63 1.47a6.5 6.5 0 0 0 .2 1.8c.16.74.83.8 1.42.93.34.07.77.15 1-.21.25-.52-.17-.82-.51-1.14a1 1 0 0 1-.21-.55 50.54 50.54 0 0 1-.36-10c.44.37.82.82.94.76 1.5-.78 2.14.8 3.22 1.12.09 0 .18.09.28.12.4.13.87.2 1.09-.21a1.89 1.89 0 0 0 .14-1.26zm-14.8-9.3c-.49-1-.59-1.81.62-2.34.83-.36.83-1.16.91-2 .47 1.06 1.12 1.1 2.09.88 1.47-.33 3-.37 4.5-.59.86-.13 1.24.19 1.25 1s.07 1.52 0 2.27c-.12 1.82-.71 3.41-2.57 4.11a4.75 4.75 0 0 1-5.19-1 8.17 8.17 0 0 1-1.61-2.33zm11 8.11a.82.82 0 0 1-1.4 0c-.27-.29-.6-.53-1.23-1.09v4.88c0 .81-.22 1.22-1.05 1.32-1.81.2-3.61.43-5.42.68-.75.1-.86-.27-.8-.88a32.15 32.15 0 0 1 .42-3.96 1.68 1.68 0 0 0-1.28-2.27 5.58 5.58 0 0 1-1-.61c.42-.4.8-.71 1.12-1.08.88-1 1.7-1.48 2.93-.34s2.49.65 3.63-.17c.71-.52 1.19-.54 1.76.18s1.33 1.4 2 2.12c.32.33.93.63.34 1.22z" />
    <path d="M15.38 11.74c0 .75.38 1.29 1.16 1.29A1.4 1.4 0 0 0 18 11.72c.07-1-.81-.59-1.38-.7-.51.06-1.3-.37-1.24.72zM17.91 10a.76.76 0 0 0 .84-.82c0-.55-.29-.87-.82-.86a.74.74 0 0 0-.77.75.79.79 0 0 0 .75.93zM14.84 10.3a.77.77 0 0 0 .86-.79c0-.56-.3-.9-.81-.89a.76.76 0 0 0-.78.89.73.73 0 0 0 .73.79z" />
  </svg>