<?xml version="1.0" encoding="utf-8"?>
<svg version="1.1" xmlns="http://www.w3.org/2000/svg" xmlns:xlink="http://www.w3.org/1999/xlink" x="0px" y="0px"
	 viewBox="0 0 32 32" style="enable-background:new 0 0 100 100;" xml:space="preserve">
	 <path 
      d="M23.68 9.58a.92.92 0 0 0-.46-.31.89.89 0 0 0-.32 0 1.06 1.06 0 0 0-.31 0 1.32 1.32 0 0 0-.3.09 1.69 1.69 0 0 0-.27.11 2.14 2.14 0 0 0-.43.29 1.43 1.43 0 0 0-.25.27.29.29 0 0 0-.06.13h.08a1.5 1.5 0 0 1 .31-.15 4.41 4.41 0 0 1 .95-.31 1.27 1.27 0 0 1 .26 0h.23a1.2 1.2 0 0 1 .4.16 1.48 1.48 0 0 1 .35.31.5.5 0 0 0 0-.14.89.89 0 0 0-.18-.45zM9.66 21.62c-.18 0-.32.19-.32.43s.14.43.32.43.33-.2.33-.43a.39.39 0 0 0-.33-.43z"
    />
    <path 
      d="M27.05 10.25a.13.13 0 0 1 .13-.21 2.84 2.84 0 0 0 1.38.15.13.13 0 0 0 .09-.19 5 5 0 0 0-1.83-2.15.12.12 0 0 1 .06-.23 1.44 1.44 0 0 0 .93-.29.12.12 0 0 0 0-.15A4.33 4.33 0 0 0 26.4 5.7a.13.13 0 0 1 .06-.23 2.41 2.41 0 0 0 .71-.21.14.14 0 0 0 0-.21 6.48 6.48 0 0 0-2.78-1.79c1.12-.85 1.08-1.49 1.08-1.49a10.37 10.37 0 0 0-3.71.59l-.51-.08a1.14 1.14 0 0 0 .17-.28 1.72 1.72 0 0 0-.09-1.44 13.87 13.87 0 0 0-3.75 1.2 3.42 3.42 0 0 0-.11-1.5 7.85 7.85 0 0 0-4 2.42 3.08 3.08 0 0 0-.63.71A6.7 6.7 0 0 0 11 1.77a7.81 7.81 0 0 0-.45 5.44 6.93 6.93 0 0 0-.34 2.79v.48a6.68 6.68 0 0 1-.44 3.43 1.76 1.76 0 0 1-.31.43 1.62 1.62 0 0 0-1.21 1.56 1.64 1.64 0 0 0 .09.5c-.33.11-.7.26-1.09.43A4.82 4.82 0 0 0 4.72 19a1.23 1.23 0 0 0 0 1 1.4 1.4 0 0 0 1.37.69 3.87 3.87 0 0 0 .64-.06 6.1 6.1 0 0 0-.09 1.05A6.27 6.27 0 0 0 4.93 23a1.56 1.56 0 0 0-1.12-.66.73.73 0 0 0-.53.22 1.76 1.76 0 0 0-.28 1.3 4.05 4.05 0 0 0 1.89 3.28.79.79 0 0 0 .29.06.53.53 0 0 0 .46-.26v-.07l3.09-.29a4.92 4.92 0 0 0 1.49.89 2.64 2.64 0 0 0-.07.93 4.1 4.1 0 0 0 1.89 3.28.79.79 0 0 0 .29.06.52.52 0 0 0 .46-.25.47.47 0 0 0 .05-.1c1.4 0 6.69-.83 9.4-5.25a3.28 3.28 0 0 0 .83 1.13.13.13 0 0 0 .21-.05 6.76 6.76 0 0 0 .32-3 .13.13 0 0 1 .22-.1 2 2 0 0 0 1 .59.13.13 0 0 0 .15-.1 10.19 10.19 0 0 0 .33-3.17l.23-.31a4.45 4.45 0 0 1 .74.55.13.13 0 0 0 .21-.06 3.38 3.38 0 0 0-.24-2.41.13.13 0 0 1 .17-.17 3.25 3.25 0 0 0 1.11.31.13.13 0 0 0 .14-.15 7.07 7.07 0 0 0-.79-2.43.13.13 0 0 1 .19-.16 2.25 2.25 0 0 0 1.11.43.13.13 0 0 0 .12-.16 7.35 7.35 0 0 0-1.48-3v-.32h.05c.73.33 1.59.66 2 .8a.13.13 0 0 0 .18-.13 7.72 7.72 0 0 0-1.99-3.98zM5.34 26.75c-.07.1-.17.11-.33.05a3.77 3.77 0 0 1-1.66-3 1.42 1.42 0 0 1 .19-1.06.33.33 0 0 1 .27-.11 1.29 1.29 0 0 1 1 .74 4.68 4.68 0 0 1 .5 1.1 5.84 5.84 0 0 1 .29 1.73.58.58 0 0 1-.26.55zm17.74-21L23 6a3.16 3.16 0 0 1-.18.27 2.5 2.5 0 0 1-.22.24 1.85 1.85 0 0 1-.51.37 5.69 5.69 0 0 0 .33-.52l.14-.25v-.08h-.32l-.52-.07c-.36 0-.73-.06-1.1-.11a2.55 2.55 0 0 1 .54-.15 2.76 2.76 0 0 1 .57-.06 2.4 2.4 0 0 1 1.14.2zM20.8 3.57a1.86 1.86 0 0 1 .34-.06 1.45 1.45 0 0 1 .7.13l.18.08-.09.15-.12.13-.14.14a1.14 1.14 0 0 1-.34.19l.15-.33.06-.11h-.11l-.3-.05a4.15 4.15 0 0 1-.65-.13 1.3 1.3 0 0 1 .32-.14zm-3.74 0a3.06 3.06 0 0 1 .51-.26 2.69 2.69 0 0 1 1.14-.21h.19v.17a1.5 1.5 0 0 1-.08.32 1.82 1.82 0 0 1-.11.3 2.07 2.07 0 0 1-.36.53c.05-.21.1-.41.14-.6s0-.2 0-.3v-.07h-.32l-.52.12c-.35.09-.7.2-1.07.28a2.43 2.43 0 0 1 .48-.29zm-12 16.25a.85.85 0 0 1 0-.68 4.47 4.47 0 0 1 2.36-2 10.6 10.6 0 0 1 1.09-.43 1.52 1.52 0 0 0 .51.53 5.06 5.06 0 0 0-2.2 3c-.42.06-1.46.22-1.76-.43zm7.47 11.48c-.07.11-.17.11-.33.06a3.83 3.83 0 0 1-1.65-3c-.05-.65.07-.94.19-1.06a.36.36 0 0 1 .26-.1 1.3 1.3 0 0 1 1 .8c.3.66.87 2.76.53 3.29zm4.3-8a7.9 7.9 0 0 0-.12-1.5 8.42 8.42 0 0 0-.58-2 3.28 3.28 0 0 0-.33-.61 1.07 1.07 0 0 0-.18-.19l.08.24c.05.16.07.38.12.66.09.54.21 1.26.32 2 0 .21.07.4.11.6a8.51 8.51 0 0 0-4 5.19 1.6 1.6 0 0 0-1.25-.85.72.72 0 0 0-.53.23l-.05.07a3.89 3.89 0 0 1-1.13-.61 6.43 6.43 0 0 1-1.84-2.25A6.94 6.94 0 0 1 7 21.51a4.71 4.71 0 0 1 2.4-4.11 1.51 1.51 0 0 0 .48.08 1.6 1.6 0 0 0 1-.35 12.42 12.42 0 0 0 2.36.23 11 11 0 0 0 3.68-.61 11.94 11.94 0 0 0 2.28-1.13 4.24 4.24 0 0 1 .92 2.18s.55 3.85-1.16 6.62c-.96 1.66-1.72.36-2.13-1.15zm3.47 2.85a2 2 0 0 1-.43.88l-.13.15-.11-.18a1.24 1.24 0 0 1-.18-.22 1.76 1.76 0 0 1-.14-.23 1.52 1.52 0 0 1-.16-.51c.12.14.23.26.35.38l.18.17.09-.19c.07-.13.12-.26.18-.4s.23-.56.37-.84a1.87 1.87 0 0 1 0 .47 2.43 2.43 0 0 1-.02.49zm2.43-4.85a2.81 2.81 0 0 1-.46 1.07l-.12.15-.15-.15a2.5 2.5 0 0 1-.22-.24 2 2 0 0 1-.18-.26 1.81 1.81 0 0 1-.25-.59 6 6 0 0 0 .43.44 2.09 2.09 0 0 0 .22.2l.06.06v-.06a2.56 2.56 0 0 0 .11-.24c.07-.16.13-.33.19-.49.12-.34.22-.69.36-1.05a3.63 3.63 0 0 1 0 .57 3.43 3.43 0 0 1 .01.56zm.51-6.37a2.6 2.6 0 0 1-.46 1.07l-.11.15-.13-.15a1.73 1.73 0 0 1-.23-.24 2.4 2.4 0 0 1-.18-.26 1.79 1.79 0 0 1-.24-.59c.14.16.28.3.42.44l.22.2.07.06v-.06l.11-.24c.07-.16.13-.33.19-.49.12-.34.22-.69.35-1.05a2.18 2.18 0 0 1 0 .57 3.43 3.43 0 0 1-.01.56zm0-3.07a6.59 6.59 0 0 1-2 0 5 5 0 0 1-.75 2.4 11.69 11.69 0 0 1-3.68 2.18 11.16 11.16 0 0 1-5.61.41 1.12 1.12 0 0 0 .23-1 1.76 1.76 0 0 0-1.43-1.6 2.39 2.39 0 0 0 .13-.21 7 7 0 0 0 .48-3.61v-.48a7.28 7.28 0 0 1 .22-2.22v.09a7 7 0 0 0 2.49-2.09s1.44 1.27 3.84-.31a2 2 0 0 0 2.32 1.29 2.13 2.13 0 0 1 .26.26 1.71 1.71 0 0 0 .92 1.58v.06a3.06 3.06 0 0 1 3.21.31 1.63 1.63 0 0 1-.61 2.91zm1.36 7.07l-.08.18-.13-.11a2.29 2.29 0 0 1-.23-.16l-.2-.18a1.54 1.54 0 0 1-.3-.45c.15.1.3.18.44.26l.22.12v-.21l.06-.44c0-.29.06-.6.11-.91a1.83 1.83 0 0 1 .15.45 1.89 1.89 0 0 1 .06.47 2.07 2.07 0 0 1-.08.95zm1.18-5.52l-.08.18-.16-.09-.23-.16a1.57 1.57 0 0 1-.19-.18 1.43 1.43 0 0 1-.3-.44l.44.26.22.11v-.21l.06-.43c0-.3.05-.6.11-.92a1.9 1.9 0 0 1 .15.46 3.55 3.55 0 0 1 .06.47 2.14 2.14 0 0 1-.06.92z"
    />
    <path 
      d="M15.16 13.91c.06 0 .1-.07.13-.12a2 2 0 0 0 .27-1.06.92.92 0 0 0-.15-.54.82.82 0 0 0-.51-.32 1.48 1.48 0 0 0-.59.05 1 1 0 0 0-.52.32.83.83 0 0 0-.14.35 1.45 1.45 0 0 0 .16 1.06.39.39 0 0 0 .15.16.53.53 0 0 0 .25 0 1.53 1.53 0 0 1 .82.07.19.19 0 0 0 .13.03z"
    />
  </svg>