<?xml version="1.0" encoding="utf-8"?>
<svg version="1.1" xmlns="http://www.w3.org/2000/svg" xmlns:xlink="http://www.w3.org/1999/xlink" x="0px" y="0px"
	 viewBox="0 0 32 32" style="enable-background:new 0 0 100 100;" xml:space="preserve">
	 <path d="M27.23 12.83s.7-4.47-2.77-7.06-8.43-2.67-8.3-2c.06.34.86 4.51 1.38 7.38a1.81 1.81 0 0 0-.5.33 1.65 1.65 0 0 0-.48 1.17v.18H7.82C7.66 10.38 7 9.18 6.45 8.61a.41.41 0 0 0 0-.11.94.94 0 1 0-.93.94.81.81 0 0 0 .41-.11c.45.55 1 1.8 1.06 4.55a9.58 9.58 0 0 0 .75 4.72c.96 1.91 3.26 2.31 6.53 2.4l2 .9-1.27.58a3.19 3.19 0 0 0-1.4-.32 3.21 3.21 0 1 0 2.27.94 3.11 3.11 0 0 0-.33-.29l1.41-.63 1.78.8-.12.12a3.18 3.18 0 1 0 .61-.48l-1.63-.73 2-.91c3.68-.11 5.89-.64 7-2.73a8.52 8.52 0 0 0 .64-5.42zM13.55 23a2.35 2.35 0 0 1 1.46.52L13.55 25l-1.46-1.46a2.35 2.35 0 0 1 1.46-.54zm-1.84.89l1.47 1.46-1.47 1.46a2.34 2.34 0 0 1 0-2.9zm.38 3.3l1.46-1.46L15 27.21a2.34 2.34 0 0 1-2.91 0zm3.29-.38l-1.46-1.46 1.46-1.46a2.34 2.34 0 0 1 0 2.94zm4 .38l1.46-1.46 1.46 1.46a2.34 2.34 0 0 1-2.93.02zm3.29-.38l-1.47-1.44 1.46-1.46a2.34 2.34 0 0 1 0 2.92zM20.83 23a2.35 2.35 0 0 1 1.46.52L20.83 25l-1.46-1.46a2.35 2.35 0 0 1 1.46-.54zm-.37 2.35L19 26.83a2.34 2.34 0 0 1 0-2.92zM16.9 21.6l-1.3-.6h2.6zm2-7.54a1 1 0 1 1 1-1 1 1 0 0 1-1 1z" />
  </svg>