<?xml version="1.0" encoding="utf-8"?>
<svg version="1.1" xmlns="http://www.w3.org/2000/svg" xmlns:xlink="http://www.w3.org/1999/xlink" x="0px" y="0px"
	 viewBox="0 0 32 32" style="enable-background:new 0 0 100 100;" xml:space="preserve">
	 <path d="M26.75 23.38a.28.28 0 0 0-.15-.19.39.39 0 0 0-.2-.06 1.32 1.32 0 0 0-.58.2 8.35 8.35 0 0 1-1 .42 8.26 8.26 0 0 1-2.07.46 9.82 9.82 0 0 1-2.1 0 9.28 9.28 0 0 1-2-.47 9.88 9.88 0 0 1-1.86-.88 9.57 9.57 0 0 1-1.65-1.23 6 6 0 0 1-.7-.74 5.23 5.23 0 0 1-.54-.84 6.26 6.26 0 0 1-.38-.93 6.58 6.58 0 0 1-.17-.74 2.76 2.76 0 0 0 1-.59l.13-.13.12-.14a.75.75 0 0 0 .12-.27.45.45 0 0 0-.09-.34.68.68 0 0 0-.2-.18 1 1 0 0 0-.2-.08l-.28-.08a1.26 1.26 0 0 1-.65-.86 3.92 3.92 0 0 1-.12-1.19 1.42 1.42 0 0 0 .53.13 1.16 1.16 0 0 0 .91-.6 1.75 1.75 0 0 0-.23-2.25A6.46 6.46 0 0 1 16.4 9a6.74 6.74 0 0 1 1.46-1 4.55 4.55 0 0 1 1.26-.36V14c-.21-.21-.42-.42-.47-.41a6.1 6.1 0 0 0 .22 1.41l-.87.4 1.17.2.36.79.35-1.07 1.18.22-.9-.71.41-.79-1 .4a.28.28 0 0 0 0-.13V7.6a4.88 4.88 0 0 1 2.87.82 1.78 1.78 0 0 0-.78 1 1.48 1.48 0 0 0 0 .88 1.75 1.75 0 0 0 1.69 1.1v5.69l-.61-.56.26 1.38-1.45.59 1.54.16.31 1.34.6-1.45 1.52.35-1.08-1 .7-1.1-1.31.7v-6.17a1.66 1.66 0 0 0 1.32-1.5 1.77 1.77 0 0 0-1.28-1.6 6.73 6.73 0 0 0-3.35-3.4 10.79 10.79 0 0 0-5.31-.64 10.68 10.68 0 0 0-7.58 5.44 2.29 2.29 0 0 0-1.51.15 1.52 1.52 0 0 0 0 2.51 11.25 11.25 0 0 0-.76 5.78 10.93 10.93 0 0 0 .34 2.26 9.27 9.27 0 0 0 2 3.77c.23.28.51.51.76.77s.55.47.85.67a11.52 11.52 0 0 0 1.87 1.06 14.42 14.42 0 0 0 2 .71l1 .25 1 .17a12.72 12.72 0 0 0 4.22 0 12 12 0 0 0 3.95-1.41 12.63 12.63 0 0 0 1.72-1.16 10.38 10.38 0 0 0 1.48-1.41.21.21 0 0 0 .16-.13.29.29 0 0 0 .04-.24zm-3.7-14.51a.86.86 0 0 1 .28 0 .73.73 0 0 1 .65.28.38.38 0 0 0 .3.19.76.76 0 0 1 .19.52 1.06 1.06 0 0 1-.95.91 1.17 1.17 0 0 1-1.24-.61.8.8 0 0 1 0-.5 1.13 1.13 0 0 1 .77-.79zm-8.89 8.3s0 .01 0 0zm-7.71-6.82a1.16 1.16 0 0 1 .55-.12 9.57 9.57 0 0 1 3.15 1l.8.34a6.34 6.34 0 0 0 1.26.37 5.44 5.44 0 0 0 .58.05 2.13 2.13 0 0 1 1.08.24 1.07 1.07 0 0 1 .16 1.43c-.06.09-.21.29-.38.3a.94.94 0 0 1-.31-.09 21.74 21.74 0 0 0-3.08-.87 20.18 20.18 0 0 1-2.89-.78c-.65-.24-1.32-.68-1.27-1.19a.86.86 0 0 1 .35-.68zm18.44 14.52a10.15 10.15 0 0 1-1.74 1A11.91 11.91 0 0 1 19.33 27a13.66 13.66 0 0 1-3.94-.17l-1-.2-.94-.26a15.19 15.19 0 0 1-1.84-.71 11.59 11.59 0 0 1-1.68-1c-.27-.19-.52-.4-.77-.59s-.49-.43-.7-.67a9.7 9.7 0 0 1-1.16-1.54 10.13 10.13 0 0 1-.81-1.77 12 12 0 0 1-.42-1.93 13.23 13.23 0 0 1-.15-2v-.78a9.74 9.74 0 0 1 .69-2.75 5.06 5.06 0 0 0 .52.23 20.82 20.82 0 0 0 3 .8 22.9 22.9 0 0 1 2.92.79 3.5 3.5 0 0 0-.05 1.3 1.6 1.6 0 0 0 .74 1.2 2 2 0 0 0 .32.14.27.27 0 0 1 .11.06l-.1.09-.11.09a2.17 2.17 0 0 1-1 .46.33.33 0 0 0-.27.32 6 6 0 0 0 .13 1.07l-.15.08a2.77 2.77 0 0 1-.53.2l-.31.07h-.31a2.81 2.81 0 0 1-1.17-.22l-.39-.19c-.13-.06-.19 0-.18 0s.07 0 .12.06a2.16 2.16 0 0 0 .29.35 2 2 0 0 0 1.34.48 2.44 2.44 0 0 0 .39-.06 1.6 1.6 0 0 0 .37-.12 1.91 1.91 0 0 0 .55-.38v-.06a5.53 5.53 0 0 0 .33.94 6 6 0 0 0 .59 1 6.29 6.29 0 0 0 .76.85 9.47 9.47 0 0 0 1.8 1.38 9.15 9.15 0 0 0 2.08.9 10.23 10.23 0 0 0 1.1.23 10.61 10.61 0 0 0 1.12.11 11 11 0 0 0 2.22-.17 11.74 11.74 0 0 0 2.16-.56 9 9 0 0 0 1-.46.92.92 0 0 1 .42-.17h.05l-.07.08a8.23 8.23 0 0 1-1.51 1.35z" />
    <path d="M10.17 15.74h.33a1.78 1.78 0 0 0 1.16-.35.92.92 0 0 0 .27-.31A.55.55 0 0 0 12 15a.5.5 0 0 1-.12.08 1.69 1.69 0 0 1-.33.12 3.44 3.44 0 0 1-1 .11h-.27a1.53 1.53 0 0 1-.25-.06A1.69 1.69 0 0 1 9.6 15a1.21 1.21 0 0 1-.29-.2l-.11-.09a.92.92 0 0 0 .21.5 1.2 1.2 0 0 0 .45.37 1.05 1.05 0 0 0 .31.16z" />
  </svg>