<?xml version="1.0" encoding="utf-8"?>
<svg version="1.1" xmlns="http://www.w3.org/2000/svg" xmlns:xlink="http://www.w3.org/1999/xlink" x="0px" y="0px"
	 viewBox="0 0 32 32" style="enable-background:new 0 0 100 100;" xml:space="preserve">
	 <path d="M9.1 18.15c.71 1.34.14 3.42 0 5.15-.25 2.71-.89 5.4 0 8.27l2.33-.68c-.87-1.29-.8-2.31.4-4.63v5.13c2.2.11 4.38.76 6.11.16 2-.68 3.73-.25 5.57-.43s3.87-.6 5.94-.93a20.45 20.45 0 0 0-1.15-2.92c-1.08-1.76-.49-3.12 1.1-4.53l-8.09-9.29 1.74.38a20.74 20.74 0 0 0 .51-2.83c.05-.89.18-2.19-.31-2.6A5.44 5.44 0 0 1 21.9 6 3.54 3.54 0 0 0 20 4.47c-.29-.1-1.16.8-1.39 1.39A7 7 0 0 0 18.35 8c-1 2.22-1.85 4.28-2.9 6.69-.38-.94-.66-1.49-.85-2.07-.63-2-1.28-4-1.84-6.06a4.54 4.54 0 0 1 .16-1.48 9.78 9.78 0 0 0 .24-2.77c-.08-.45-.94-1-1.49-1-.4 0-1.26.74-1.21 1.07.24 1.73-.66 2.91-1.57 4.18a2.8 2.8 0 0 0-.44 1.81c.39 3.2-1.1 6.48.65 9.78zm5.53-.15c0-.33.81-.62 1.31-1 .53-1.23 1.15-2.66 1.84-4.24.95 2-.36 3.25-1 4.65s-1.44 3-1.13 4.76a8.09 8.09 0 0 1-.59 2.83l-.48-.11c0-2.26-.05-4.57.05-6.89z" />
  </svg>