<?xml version="1.0" encoding="utf-8"?>
<svg version="1.1" xmlns="http://www.w3.org/2000/svg" xmlns:xlink="http://www.w3.org/1999/xlink" x="0px" y="0px"
	 viewBox="0 0 32 32" style="enable-background:new 0 0 100 100;" xml:space="preserve">
	 <path d="M7.64 27.94c3.78.1 7.56.09 11.34.11.53 0 1.06-.16 1.58-.21 2-.18 4.05-.46 6.07-.48 2.25 0 2.8-.54 2.37-2.78-.34-1.77-.72-3.53-1-5.31a10 10 0 0 1-.29-2.36c.13-2.59.38-5.18.5-7.77a4.84 4.84 0 0 0-.46-1.83c-.41-1-.91-2.07-1.36-3.1A1.42 1.42 0 0 0 24 3.88 4.65 4.65 0 0 0 23.42 5a1.9 1.9 0 0 0-2.7.46c-.31.48.11 1.43.15 1.77-.23 1.59-.36 2.88-.61 4.15a11 11 0 0 1-1 3.47c-1.73 2.87-3.64 5.63-5.57 8.38A2.89 2.89 0 0 1 12 24.48c-2.41.27-4.84.31-7.26.46a9.2 9.2 0 0 0-1.32.29c.42 1.77 1.78 2.64 4.22 2.71zM23.12 7.65c.13-.41.81-.64 1.25-1l.34.36-.92 2.29h-.4c-.11-.52-.39-1.16-.27-1.65z" />
  </svg>