<?xml version="1.0" encoding="utf-8"?>
<svg version="1.1" xmlns="http://www.w3.org/2000/svg" xmlns:xlink="http://www.w3.org/1999/xlink" x="0px" y="0px"
	 viewBox="0 0 32 32" style="enable-background:new 0 0 100 100;" xml:space="preserve">
	 <path d="M25.56 25.57a2.42 2.42 0 0 1-.45.23 1 1 0 0 1-1.05-.31 1.3 1.3 0 0 1-.21-.5v-.34a1.43 1.43 0 0 0-.7-1.35v-9a.62.62 0 0 0 .48-.51.64.64 0 0 0-.45-.73 7 7 0 0 0-6-4.94 1.23 1.23 0 0 0-.68-1.23 1 1 0 0 0-.29-.09V3.41h-.45v3.38a1.19 1.19 0 0 0-.86.67 1.23 1.23 0 0 0-.11.65 7 7 0 0 0-6 4.93.64.64 0 0 0-.05 1.24v4.66L8 18.45c-.25-.19-.46-.22-.59-.11-.34.32 0 1.32 0 1.44a.84.84 0 0 1-.31.28l-.1.09a3 3 0 0 0-.64.65.31.31 0 0 0-.07.14c0 .19.21.29.37.32a2.85 2.85 0 0 0 1.2-.07 3.53 3.53 0 0 0 .37 1 .84.84 0 0 0 .41.38h.09a.25.25 0 0 0 .14 0 .52.52 0 0 0 .17-.22A3.61 3.61 0 0 0 9.42 21a2.51 2.51 0 0 0 1.32.16c.14 0 .37-.09.4-.29a.36.36 0 0 0-.07-.26 1.84 1.84 0 0 0-.88-.82c-.06 0-.13 0-.15-.11a.29.29 0 0 1 0-.13 2.49 2.49 0 0 1 .16-.33 1.33 1.33 0 0 0 .19-.58.4.4 0 0 0-.15-.36c-.17-.1-.36 0-.5.1l-.74.5v-4.6a.61.61 0 0 0 .45-.5.64.64 0 0 0-.28-.66 6.51 6.51 0 0 1 5.41-4.52 6.23 6.23 0 0 0-2.5 4.45.67.67 0 0 0-.45.51.65.65 0 0 0 .45.72v1.56a.54.54 0 0 0-.41.2c-.08.09-.16.41-.23.43s-.18-.07-.24-.08a.65.65 0 0 0-.24 0 .82.82 0 0 0-.41.26.59.59 0 0 0-.1.62.39.39 0 0 0 .38.15 2 2 0 0 0 .42-.05.44.44 0 0 0 .37.72 1 1 0 0 0 .43-.17v4.23a3.67 3.67 0 0 0-.84.53 3.62 3.62 0 0 0-.53 4.59 3.14 3.14 0 0 0 3 1.33c1.69-.1 2.12-.74 2-1s-.84.15-1.64-.57a2 2 0 0 1-.89-1.78 2 2 0 0 1 .77-1.69 2.41 2.41 0 0 1 1.3-.52c.51-.1.68-.67 0-1a4.53 4.53 0 0 0-2.77 0v-4.19a.56.56 0 0 0 .44.13.72.72 0 0 0 .49-.53 1.16 1.16 0 0 0 .45-.05.4.4 0 0 0 .22-.12.3.3 0 0 0 .05-.28.27.27 0 0 0-.22-.22.42.42 0 0 0-.41.13 1.11 1.11 0 0 0 0-.36.36.36 0 0 0-.14-.29.26.26 0 0 0-.19 0 .72.72 0 0 0-.55.4.85.85 0 0 0-.21-.63v-1.75a.61.61 0 0 0 .45-.5.64.64 0 0 0-.34-.68 5.6 5.6 0 0 1 2.56-4.25 1 1 0 0 0 .33.25 1.2 1.2 0 0 0 1.38-.25 5.6 5.6 0 0 1 2.56 4.25.63.63 0 0 0-.34.46.64.64 0 0 0 .48.73v3c-.12.11-.2.2-.2.2a1.86 1.86 0 0 1-.67-.31 3.28 3.28 0 0 0-1-.35.29.29 0 0 0-.16 0c-.19.06-.19.34-.13.53a3.58 3.58 0 0 0 .74 1.3 3.83 3.83 0 0 0-.91 1c-.17.26-.29.68 0 .84a.5.5 0 0 0 .3.07 4.1 4.1 0 0 0 1.64-.32 3.13 3.13 0 0 0 .53 1.57c.11.16.29.33.48.27a.53.53 0 0 0 .22-.2 2.21 2.21 0 0 0 .39-1.39.32.32 0 0 1 0-.25.24.24 0 0 1 .16-.07A3.66 3.66 0 0 0 22 20a.43.43 0 0 0 .27-.33c0-.21-.18-.36-.35-.46l-1.19-.72.2-1.18c0-.25.05-.58-.18-.67s-.69.13-1 .37v-2.72a.62.62 0 0 0 .48-.51.64.64 0 0 0-.44-.73A6.23 6.23 0 0 0 17.3 8.6a6.52 6.52 0 0 1 5.39 4.5.62.62 0 0 0-.33.46.64.64 0 0 0 .48.73v8.89a1.39 1.39 0 0 0-1.51.48l-.33-.23c-.1-.07-.15 0-.12.09L21 24l-.49.21c-.11.05-.11.12 0 .16l.52.17a1.6 1.6 0 0 0 .09.53 2.49 2.49 0 0 0 1.28 1.72v.08a1.1 1.1 0 0 0 0 .18L22 27a.14.14 0 0 0-.13.14.14.14 0 0 0 .14.14h.24a1.54 1.54 0 0 1-.17.19.14.14 0 0 0 0 .2.14.14 0 0 0 .1 0 .13.13 0 0 0 .1 0 2.15 2.15 0 0 0 .32-.41l.08-.05a.17.17 0 0 0 0-.12.46.46 0 0 1 0-.23 2.72 2.72 0 0 0 .74.13h.06v.11l-.5.2a.13.13 0 0 0-.09.17.14.14 0 0 0 .13.1l.36-.14-.06.23a.12.12 0 0 0 .09.17.14.14 0 0 0 .13-.1c.05-.17.09-.31.12-.45a.68.68 0 0 0 0-.32 2.06 2.06 0 0 0 1.95-1.34c.1-.07.05-.11-.05-.05zm-2.7.73a.63.63 0 0 1-.26-.25.77.77 0 0 1-.14-.39.87.87 0 0 1 0-.36.3.3 0 0 1 .24-.22.33.33 0 0 1 .26.19c.05.11.09.23.14.34a.76.76 0 0 0 .89.44 1 1 0 0 1-1.13.25z" />
  </svg>