<?xml version="1.0" encoding="utf-8"?>
<svg version="1.1" xmlns="http://www.w3.org/2000/svg" xmlns:xlink="http://www.w3.org/1999/xlink" x="0px" y="0px"
	 viewBox="0 0 32 32" style="enable-background:new 0 0 100 100;" xml:space="preserve">
	 <path 
      d="M16 12.55a1.49 1.49 0 1 0-1.49-1.48A1.48 1.48 0 0 0 16 12.55z"
    />
    <path 
      d="M30.55 12.34a.26.26 0 0 0-.18 0 2.44 2.44 0 0 0-1.73.7 5.13 5.13 0 0 0 .86-1.42c.08-.21.11-.52-.1-.6s-.34.09-.45.23a8 8 0 0 0-.87 1.28 2 2 0 0 0 .14-1.21.32.32 0 0 0-.1-.2c-.13-.09-.29 0-.38.16a2.38 2.38 0 0 0-.41 2 21.73 21.73 0 0 1-2.45 1.13 15.84 15.84 0 0 0-2-6.52c.12-.2.23-.4.33-.61a7.58 7.58 0 0 0 .28-.8 6.44 6.44 0 0 0 .23-1.69 4.06 4.06 0 0 0-.06-.85 4.92 4.92 0 0 0-.19-.94 4.71 4.71 0 0 0-.87-1.5A4.7 4.7 0 0 0 21.25.41a.28.28 0 0 0-.18 0 .26.26 0 0 0-.2.31c.1.44.2.87.26 1.29 0 .21.06.42.07.64v.63a2.52 2.52 0 0 1-.4 1.2 1.64 1.64 0 0 1-.44.47 1.61 1.61 0 0 1-.28.17 8.21 8.21 0 0 0-3.88-.89 8.58 8.58 0 0 0-4.09.93L12 5.08a1.61 1.61 0 0 1-.28-.17 1.93 1.93 0 0 1-.43-.47 2.6 2.6 0 0 1-.35-1.2v-.31-.31c0-.1.06-.42.06-.62.06-.42.17-.84.26-1.28a.33.33 0 0 0 0-.24.35.35 0 0 0-.47-.14 4.75 4.75 0 0 0-1.42 1.14A4.54 4.54 0 0 0 8.51 3a5 5 0 0 0-.25 1.71 6.17 6.17 0 0 0 .2 1.56v.13c.08.27.16.55.27.82a5.52 5.52 0 0 0 .41.78 15 15 0 0 0-1.9 6 20.54 20.54 0 0 1-2.57-1.18 2.4 2.4 0 0 0-.41-2c-.09-.12-.25-.24-.38-.16a.38.38 0 0 0-.1.2A2 2 0 0 0 3.92 12a8.49 8.49 0 0 0-.87-1.28c-.11-.13-.28-.28-.45-.22s-.18.39-.1.6a5.23 5.23 0 0 0 .86 1.41 2.53 2.53 0 0 0-1.73-.7.26.26 0 0 0-.18.05c-.09.08-.06.22 0 .33a1.7 1.7 0 0 0 1.26.91.93.93 0 0 0-.72.23.56.56 0 0 0 0 .71.64.64 0 0 0 .4.18 2 2 0 0 0 1.47-.4l3.25 2.08a36.78 36.78 0 0 0 .46 7.69 2.79 2.79 0 0 0 .11.35c.41 1.12 1.8 1.48 3 1.61l.48.06c0 1.84 0 3.61 1 5.15a3.2 3.2 0 0 0-4.16.42c0 .17.25.24.43.28a14.35 14.35 0 0 0 4.53.13.43.43 0 0 0 .33-.64c-.18-.33-.4-.65-.55-1a5.27 5.27 0 0 1 .41-4.11 41.07 41.07 0 0 0 5.19.15 5.15 5.15 0 0 1 .35 4c-.15.35-.37.67-.55 1a.43.43 0 0 0 .33.64 14.35 14.35 0 0 0 4.53-.17c.18 0 .39-.11.43-.28a3.2 3.2 0 0 0-4.16-.39c1-1.48 1-3.18 1-4.95.63-.06 1.26-.15 1.91-.26a2.77 2.77 0 0 0 2-1 12.19 12.19 0 0 0 .74-3.94 38.84 38.84 0 0 0 .08-4.31l3.16-2a1.92 1.92 0 0 0 1.47.4.64.64 0 0 0 .4-.18.55.55 0 0 0 0-.7.9.9 0 0 0-.72-.24 1.7 1.7 0 0 0 1.26-.91c.04-.13.07-.28-.02-.36zM22.26 1.83a5.91 5.91 0 0 1 .49.63c.09.12.16.25.24.38a2.25 2.25 0 0 0-1.34-.28 3.43 3.43 0 0 0 0-.64 5.84 5.84 0 0 0-.11-.73 4.54 4.54 0 0 1 .72.64zm-.71 1.48a1.36 1.36 0 0 0 0-.17v-.17a2.46 2.46 0 0 0 0-.26v.18a1.89 1.89 0 0 1 1.52.5 3.85 3.85 0 0 1 .2.57 3.71 3.71 0 0 1 .14.81 3.8 3.8 0 0 1-.06.95A3.22 3.22 0 0 0 21.29 4a3.38 3.38 0 0 0 .26-.69zM16 7.62a3.45 3.45 0 1 1-3.45 3.45A3.45 3.45 0 0 1 16 7.62zM8.93 3.18a5.11 5.11 0 0 1 .41-.68 5 5 0 0 1 .49-.62 3.92 3.92 0 0 1 .57-.51c0 .18-.06.36-.08.54a4.18 4.18 0 0 0 0 .71v.1a2.89 2.89 0 0 0-1.43.57zm-.44 1.55a4.34 4.34 0 0 1 .15-.8 1 1 0 0 0 .19-.17h.05a2.47 2.47 0 0 1 1.47-.67v.1a1.36 1.36 0 0 0 0 .17 3.06 3.06 0 0 0 .28.67 2.65 2.65 0 0 0 .31.46A3.53 3.53 0 0 0 8.61 6a4 4 0 0 1-.12-1.27zm.59 2.34a5 5 0 0 1-.33-.65 3.2 3.2 0 0 1 2.46-1.69v-.07a2.07 2.07 0 0 0 .44.34c.11.07.24.12.36.18a7.57 7.57 0 0 0-2.59 2.35 4.22 4.22 0 0 1-.34-.46zm9.42 14.72a8.51 8.51 0 0 1-5.28-.23l-.22-.08a9.48 9.48 0 0 1 6.35-.05 6.9 6.9 0 0 1-.85.36zm3.59-3.33a5.26 5.26 0 0 1-2.31 2.76 9.78 9.78 0 0 0-7.14.07A4.75 4.75 0 0 1 10.13 18a1.89 1.89 0 0 1 .87-2.15 1.87 1.87 0 0 1 1.17 0 7.78 7.78 0 0 0 1 2.39.65.65 0 0 0 .49.33.37.37 0 0 0 .21-.06.58.58 0 0 0 .15-.22 13.66 13.66 0 0 0 .66-1.75 9.68 9.68 0 0 0 2.83-.17 14.19 14.19 0 0 0 .7 1.92.58.58 0 0 0 .16.22.36.36 0 0 0 .2.06.64.64 0 0 0 .49-.33 7.94 7.94 0 0 0 1-2.43 2.18 2.18 0 0 1 1.05.07 1.69 1.69 0 0 1 1 1.12 2.59 2.59 0 0 1-.02 1.46zm-2-13.33a1.83 1.83 0 0 0 .3-.13 2.43 2.43 0 0 0 .52-.44 2.37 2.37 0 0 0 .23-.3 2.92 2.92 0 0 1 2.14 1.62l.06.1.12.02a3 3 0 0 1-.12.4 4.55 4.55 0 0 1-.65 1.16 7.29 7.29 0 0 0-2.58-2.43z"
    />
  </svg>