<?xml version="1.0" encoding="utf-8"?>
<svg version="1.1" xmlns="http://www.w3.org/2000/svg" xmlns:xlink="http://www.w3.org/1999/xlink" x="0px" y="0px"
	 viewBox="0 0 32 32" style="enable-background:new 0 0 100 100;" xml:space="preserve">
	 <path d="M26.53 13.26c-1.26 0-1.76 1-1.56 1.16s.57-.55 1.31-.32 1 1.86-.82 2.09-3.65-3.57-6-3.83A3.71 3.71 0 0 0 16 13.9a3.71 3.71 0 0 0-3.48-1.54c-2.33.26-4.2 4.07-6 3.83S5 14.33 5.72 14.1s1.12.44 1.31.32-.3-1.16-1.56-1.16-2.06 1.6-2.06 2.41.25 3.14 3.73 3.84A10.52 10.52 0 0 0 16 16.89a10.52 10.52 0 0 0 8.86 2.62c3.48-.7 3.73-3 3.73-3.84s-.8-2.41-2.06-2.41z" />
  </svg>