<?xml version="1.0" encoding="utf-8"?>
<svg version="1.1" xmlns="http://www.w3.org/2000/svg" xmlns:xlink="http://www.w3.org/1999/xlink" x="0px" y="0px"
	 viewBox="0 0 32 32" style="enable-background:new 0 0 100 100;" xml:space="preserve">
	<path d="M18.55 13.6c1.13-1.23 2.43-2 3.49-3.11a16.09 16.09 0 0 1 3-2.38 6.19 6.19 0 0 1 4.59-1 2.63 2.63 0 0 1 1.34 2 7.81 7.81 0 0 1-.12 3.11c-.36 1.19-.84 2.32-1.26 3.48a5.84 5.84 0 0 0-.49 2.2v1.73a5.4 5.4 0 0 1 .94 2.84c.22 1.48-1.46 2.85-3.42 2.37a14 14 0 0 1-5.28-2.71 5.64 5.64 0 0 1-1.64-1.34 4.21 4.21 0 0 0-1.77.45 3.84 3.84 0 0 1-3.72-.73 7 7 0 0 0-1.55 1.16A23 23 0 0 1 8.6 24.6a4.22 4.22 0 0 1-2.44.67H4.72c-1.58-.91-1.87-1.79-1.26-3.64a7 7 0 0 0-.32-5.49c-.42-.83-.49-1.84-1.22-2.53 0-.72-.49-1.33-.36-2.1a11.31 11.31 0 0 0 0-1.92 4.47 4.47 0 0 1 1.52-1.91 1.15 1.15 0 0 0 1-.31c.26-.06.38.23.54.25 1.87.2 3.32 1.3 4.81 2.29a23.71 23.71 0 0 1 4.53 3.89c1.5-.3 3.04-1.36 4.59-.2z" />
  </svg>