<?xml version="1.0" encoding="utf-8"?>
<svg version="1.1" xmlns="http://www.w3.org/2000/svg" xmlns:xlink="http://www.w3.org/1999/xlink" x="0px" y="0px"
	 viewBox="0 0 32 32" style="enable-background:new 0 0 100 100;" xml:space="preserve">
	 <path d="M28.28 21.13h-1.51c-.06-.87-.09-1.51-.12-2.07h-4.6l-.36 1.15h-.38c-.12-.46-.25-.92-.32-1.17H16c-.15.37-.33.78-.5 1.2l-.39-.07-.22-1.28-3.39-.15c-.1.49-.21 1-.31 1.45l-.38-.05c-.09-.52-.17-1-.23-1.38L5.8 19c-.06.66-.12 1.32-.18 2-3.48.42-3.54.49-3 3.08 1.41.14 2.71.3 4 .4.47 0 1-.16 1.41-.11a29.72 29.72 0 0 0 7.42 0c2.86-.4 5.85.08 8.78.18a25.43 25.43 0 0 1 3.39.13c2.21.39 2.39.25 2.42-1.91-.04-1.3-.55-1.77-1.76-1.64zM7 18.31c1-.06 2.07-.23 3.11-.36a4.54 4.54 0 0 1 1-.23 46.15 46.15 0 0 0 6.46.8 50.19 50.19 0 0 1 7.46 0c1.05.13 1.71-.4 1.63-1.72s-.67-1.5-1.73-1.48a4.19 4.19 0 0 1-1.94-.34 12.11 12.11 0 0 1-2-1.73l-.26 1.94h-.5c-.06-.53-.13-1.06-.16-1.32h-5.3c0 .38-.07.81-.11 1.25l-.45.06c-.12-.53-.23-1.07-.33-1.5H9.57c-.07.48-.13 1-.22 1.65H7.26c-1 0-1.48.33-1.55 1.36S5.9 18.37 7 18.31zM26.22 25.09L26 26.61h-.42l-.23-1.44H21c0 .48-.09 1-.13 1.45l-.45.06-.32-1.48h-4.68c-.1.41-.22.93-.34 1.45l-.45-.1v-1.26H9.11c0 .33 0 .82-.07 1.3l-.47.05c-.12-.54-.23-1.08-.32-1.49l-3.45-.3c-.08.63-.15 1.2-.23 1.77L4 26.5l.18-1.66c-1.12.06-1.87.33-1.76 1.75s1 1.23 1.93 1.23H28c2.09 0 2.26-.22 1.79-2.31z" />
    <path d="M11.57 13.08a14 14 0 0 1 5.58.33 2.15 2.15 0 0 0 .8 0l4.88-.52c.38-2.8.38-2.8-3.34-3.39L17 4.33c-.19.56-.31 1-.48 1.43s-.4.89-.76 1.68c-.28-1.33-.45-2.15-.62-3h-.74c-.18 1.65-.35 3.3-.55 5.19h-2.26c-1.18-.05-2.06.09-2.14 1.64s.99 1.92 2.12 1.81z" />
  </svg>