<?xml version="1.0" encoding="utf-8"?>
<svg version="1.1" xmlns="http://www.w3.org/2000/svg" xmlns:xlink="http://www.w3.org/1999/xlink" x="0px" y="0px"
	 viewBox="0 0 32 32" style="enable-background:new 0 0 100 100;" xml:space="preserve">
	 <path d="M25.5 20.13c-.27-.56-.53-.93-.09-1.68.66-1.12.82-2.32-.85-3.12-3.15-1.52-3.95-4.95-5.77-7.56-.45-.65-.23-1 .59-.87a5 5 0 0 0 1.27.1C22 6.8 22 5.66 22 4.76s-.76-1.13-1.53-.89-1-.15-1.35-.68a1.21 1.21 0 0 0-1.9-.36C15.61 4 15.46 6.43 17 7.18c-1.37 1-1.72 2.21-.6 3.66a.9.9 0 0 1-.4 1.53c-5.15 2.52-8 7.12-10.8 11.84a2.36 2.36 0 0 0 1 2.73 16.84 16.84 0 0 1 3.71 2.17 8 8 0 0 0 6.95 1.36 5.87 5.87 0 0 1 2.66-.36c3.18.91 5-1.44 7.12-2.87a1.89 1.89 0 0 0 .68-2.35 49.46 49.46 0 0 0-1.82-4.76zm-1.2-4.24c-.73 0-1.08-.41-1.46-.75.66-.08 1.03.28 1.46.75zm-.76.4c.28.15.69.29.77.53.17.5 1.08-1 .76.29-.22.93-.78.2-1.07.06-1.44-.74-3.14-1.1-3.89-2.81zm1.39 4.15c-2.75-1.56-5.13-3.25-6.28-6.23a15.36 15.36 0 0 0 5.75 3.68c.25.11.58.19.28.49-.74.73.15 1.24.25 2.06zM18.68 9.82L21 13.14c-1.45-.86-2.69-1.31-2.32-3.32zM25.86 27c-.65.53-.87 0-1.07-.58a20.78 20.78 0 0 0-4.14-6.95 26.14 26.14 0 0 1 3 6.62 2.46 2.46 0 0 1-2.15 3.41c-2.35 0-4.67.26-7 .51a5.44 5.44 0 0 1-3.74-1.12A30.71 30.71 0 0 0 7 26.59c-.8-.41-1.76-1.28-1.08-2.38 2.71-4.42 5.63-8.67 10.31-11.32 1.06-.6 1.65-.92 1.8.83.2 2.25 1.78 3.82 3.51 5.12s3.53 2.22 3.79 4.93c.47-1-.27-1.61.13-2.36a18.06 18.06 0 0 1 1.27 3.87 1.67 1.67 0 0 1-.87 1.72z" />
    <path d="M21.59 28.69c-2.15-4.91-4.19-9.85-4.12-15.36-1.62 5.91 1.08 10.67 4.12 15.36zM7 24.87l3.9-5.73A13 13 0 0 0 7 24.87z" />
  </svg>