<?xml version="1.0" encoding="utf-8"?>
<svg version="1.1" xmlns="http://www.w3.org/2000/svg" xmlns:xlink="http://www.w3.org/1999/xlink" x="0px" y="0px"
	 viewBox="0 0 32 32" style="enable-background:new 0 0 100 100;" xml:space="preserve">
	 <path d="M22.54 12.09a7.21 7.21 0 0 0 2 0 4.7 4.7 0 0 0 1-.18 5.47 5.47 0 0 0 .91-.33 6 6 0 0 0 .8-.42 3.79 3.79 0 0 0 .67-.47 5.12 5.12 0 0 0 .54-.44l.39-.38.32-.31a1.77 1.77 0 0 0 0-.23A9.43 9.43 0 0 0 27 3.39a6.76 6.76 0 0 0-2.13-1.92.94.94 0 0 0-.4-.89 1.3 1.3 0 0 0-.72-.14 1.21 1.21 0 0 0-.95.56 8.26 8.26 0 0 0-1.9.41l-.5.17c-.25.08-.48.17-.72.27A1.63 1.63 0 0 0 18.17.56a1.48 1.48 0 0 0-1.2.69 1.65 1.65 0 0 0-.91-.3 2.12 2.12 0 0 0-1.87 2.29 2.65 2.65 0 0 0 .45 1.48.23.23 0 0 1-.07.07c-.13.13-.76 1-1 1.22a6.08 6.08 0 0 0-.39.64 5.89 5.89 0 0 0-.24.58 4.11 4.11 0 0 0-.17.79v.34c0 .22.22 1.36.24 1.69 0 0 .14.67.24 1.05a6.78 6.78 0 0 0-2.12 1.9 1 1 0 0 0-.15.82 1 1 0 0 0 .55.62 17.75 17.75 0 0 0 2.3.81v.46a1.6 1.6 0 0 1 0 .23c0 .25-.07.5-.1.75a11 11 0 0 0-1.93 0 1 1 0 0 0-.79.45 1.11 1.11 0 0 0 0 1 10.15 10.15 0 0 0 1.32 2.37l.11.13-.09.08a.72.72 0 0 1-.11.15 2.73 2.73 0 0 1-.6.4.29.29 0 0 1-.1 0 5.22 5.22 0 0 1-1.12.44 7.73 7.73 0 0 0-1.82-2.16 1 1 0 0 0-1.49.45 5.18 5.18 0 0 0-.64 2c-1.21-.11-2.42-.26-3.61-.47l3.88 3.37a13.24 13.24 0 0 0 5.39 3.29 2.8 2.8 0 0 0 .28.06h-.06v2.62a.47.47 0 0 0 0 .23c.08.15.28.18.45.19l4.24.24a.53.53 0 0 0 .35-.06c.17-.12.15-.36.11-.57l-.48-2.57.76-.09.81 2a.66.66 0 0 0 .22.32.6.6 0 0 0 .4.06 11.08 11.08 0 0 0 3-.86c.43-.17.94-.46.9-.91a1 1 0 0 0-.32-.56c-.55-.65-1.11-1.3-1.67-1.94a5.74 5.74 0 0 0 .47-3.82 19.16 19.16 0 0 0-.83-3.4 1.62 1.62 0 0 1 .36.21c.54.44.65 1.28 1.24 1.63a2.73 2.73 0 0 0 .13-1.1 1.55 1.55 0 0 0 .57.4 1.35 1.35 0 0 0-1-1.77c-.36-.12-.73-.17-1.09-.28a4.61 4.61 0 0 0-.63-.2 17.43 17.43 0 0 0-1.14-2.34c2.29 0 4.73.06 6.68-1a6.44 6.44 0 0 0 3.19-5.08c-.05.07-.06 0 0 0l-.26.35-.34.44a4 4 0 0 1-.5.51l-.11.1a1.13 1.13 0 0 1 .06.41v1.08a.16.16 0 0 1 0 .1h-.18a7.2 7.2 0 0 1-1.16-.71l-.09.05a4.44 4.44 0 0 1-1 .37 2.71 2.71 0 0 1-.41.09 2.66 2.66 0 0 1-.08.33c-.13.41-.25.81-.38 1.21a.13.13 0 0 1-.06.1c-.06 0-.14 0-.2-.07a8.78 8.78 0 0 1-1.16-1.42c-.27 0-.55 0-.81-.08s-.22-.06-.34-.09a1.78 1.78 0 0 1-.17.27l-.81 1.15s-.06.07-.1.08-.15-.06-.19-.14a10 10 0 0 1-.81-2.11 5.74 5.74 0 0 1-.83-.52 10.58 10.58 0 0 0 1.6.62 10.09 10.09 0 0 0 1.8.37zm1.19-9.29a1 1 0 0 1 1.05.92 1.06 1.06 0 0 1-2.1 0 1 1 0 0 1 1.05-.92zM7 22.07a1.15 1.15 0 0 1-.26 0 5 5 0 0 1 .6-1.88.72.72 0 0 1 .6-.38.66.66 0 0 1 .4.15 6.85 6.85 0 0 1 1.69 2l-.43.1h-.07l-.31.07a2.75 2.75 0 0 1-.81 0c-.41-.01-.93-.03-1.41-.06zm2.64 1.87a.86.86 0 0 1-.85-.48.52.52 0 0 1-.05-.39c.1-.3.5-.42.83-.45a1 1 0 0 1 .42 0 .31.31 0 0 1 .17.17.47.47 0 0 1 .23.4.84.84 0 0 1-.73.75zm3.37-.4a1.09 1.09 0 0 1-.51.37 1 1 0 0 1-.63 0 1.26 1.26 0 0 1-.63-.54 1 1 0 0 1-.08-.82.91.91 0 0 1 .3-.37 1.92 1.92 0 0 1 .51-.27 1.87 1.87 0 0 1 .65-.19.69.69 0 0 1 .63.22.91.91 0 0 1 .13.3 1.62 1.62 0 0 1-.38 1.3zm.56-5.77a.81.81 0 0 1 0 .15c0 .1-.05.21-.08.31 0 .09 0 .18-.06.28a5.48 5.48 0 0 1-.75 1.82v.07a9.84 9.84 0 0 1-1.29-2.31.81.81 0 0 1 0-.76.66.66 0 0 1 .56-.31h1.88c-.18.29-.2.52-.24.75zm.86-14.61A1.79 1.79 0 0 1 16 1.21a1.42 1.42 0 0 1 1 .46l.06.07.07.1a2.21 2.21 0 0 1 .49 1.41.81.81 0 0 0-.73-.6.9.9 0 0 0-.78 1 .9.9 0 0 0 .78 1 .66.66 0 0 0 .15 0 1.39 1.39 0 0 1-1 .51 1.43 1.43 0 0 1-1.12-.59 1.51 1.51 0 0 1-.09-.18 2.26 2.26 0 0 1-.38-1.23zm-2.81 11a.63.63 0 0 1-.38-.43.68.68 0 0 1 .11-.57 6.18 6.18 0 0 1 2-1.68c0 .09.05.19.08.28a1.85 1.85 0 0 0 0 .23 4.63 4.63 0 0 1 .22 1.26 13.58 13.58 0 0 1 .12 1.69 19.51 19.51 0 0 1-2.13-.78zm2-3.92a2.48 2.48 0 0 1 .53-2 1.53 1.53 0 0 1 .56-.51.76.76 0 0 1 .76 0 .86.86 0 0 1 .27.47 6.79 6.79 0 0 1 .26 2.69.73.73 0 0 1-.17.44.71.71 0 0 1-.45.16 1.73 1.73 0 0 1-1.75-1.25zm1.47 4.07a.92.92 0 0 1-.23-.42 1.88 1.88 0 0 1-.06-.58 1.91 1.91 0 0 1 .06-.67.71.71 0 0 1 .44-.5.92.92 0 0 1 .33 0 1.61 1.61 0 0 1 1.11.84 1.11 1.11 0 0 1 .15.61 1 1 0 0 1-.27.57 1.41 1.41 0 0 1-.73.39 1 1 0 0 1-.79-.24zm5.8 6.93c0 .11.05.21.08.32a8.21 8.21 0 0 1 .18 2.66 3.44 3.44 0 0 1-.8 2.16 1.62 1.62 0 0 1-.72.36 3 3 0 0 1-1.22-.21 3.07 3.07 0 0 1-1.17-1 4.57 4.57 0 0 1-.72-1.34 3.51 3.51 0 0 1-.09-1.58 6.22 6.22 0 0 1 .84-2.44 1.64 1.64 0 0 0 .29.35c.47.4 1.15.46 1.64.83a3 3 0 0 1 .8 1.01 1.58 1.58 0 0 0 .21-1v-.2a.22.22 0 0 1 .16 0 2.36 2.36 0 0 1 .53.08zm-1.43-3.06c.08-.07.18-.15.27-.1a.23.23 0 0 1 .09.12 14.75 14.75 0 0 1 .94 2.5 2.65 2.65 0 0 0-1.24-.5 4.34 4.34 0 0 1-.72-.13 1.48 1.48 0 0 1-.77-.82 4 4 0 0 1 .45-.37 11.35 11.35 0 0 0 .99-.7zm-.57-16.76a.68.68 0 0 0-.6.74.79.79 0 0 0 .09.35l-.5.26a2.31 2.31 0 0 0-.72-1.37 1.26 1.26 0 0 1 1-.6 1.3 1.3 0 0 1 1.14.84.51.51 0 0 0-.41-.22z" />
  </svg>