<?xml version="1.0" encoding="utf-8"?>
<!-- Generator: Adobe Illustrator 25.1.0, SVG Export Plug-In . SVG Version: 6.00 Build 0)  -->
<svg version="1.1" xmlns="http://www.w3.org/2000/svg" xmlns:xlink="http://www.w3.org/1999/xlink" x="0px" y="0px"
	 width="1500" height="800" viewBox="0 0 623.6 340.2" style="enable-background:new 0 0 623.6 340.2;" xml:space="preserve">
<style type="text/css">
	.st0{fill:#FFFFFF;}
	.st1{fill:none;}
	.st2{fill:#D71716;}
	.st3{display:none;}
	.st4{display:inline;fill:#FDEEF6;}
	.st5{display:inline;}
	.st6{fill:#FDEEF6;}
	.st7{display:inline;fill:none;}
</style>
<g id="White">
	<polygon class="st0" points="270,37.8 359,37.8 359,37.5 359,17.3 270,17.3 	"/>
	<path class="st0" d="M292.7,17.4v20.4H336l0.2-20.5c0,0,0,0,0,0L292.7,17.4L292.7,17.4z"/>
	<g>
		<g>
			<polygon class="st1" points="241,101.2 226.2,117 226.2,145.3 258.2,145.3 258.2,135.2 276.4,135.2 276.4,153.3 248.8,153.6 
				248.8,166.9 248.8,180.1 276.4,180.4 276.4,198.5 258.2,198.5 258.2,188.4 226.2,188.4 226.2,216.7 241,232.5 293.5,232.5 
				308.3,216.7 308.3,172.6 303.1,167 303,166.9 303.1,166.8 308.3,161.1 308.3,117 293.5,101.2 			"/>
		</g>
		<g>
			<rect x="355.8" y="135.2" class="st1" width="18.8" height="63.3"/>
		</g>
		<g>
			<path class="st1" d="M338.6,101.4l-14.8,15.8v99.3l14.8,15.8h53.2l14.8-15.8v-99.3l-14.8-15.8H338.6z M377.5,201.3h-24.3v-69.2
				h24.3V201.3z"/>
		</g>
		<g>
			<path class="st0" d="M239.1,96.8L222,115v33.5h23.9l15.6-0.1v-10h11.9v12h0l0,0h-27.3l-0.1,7.8v8.6v8.6l0.1,7.8h27.3l0,0h0v12
				h-11.9v-10l-15.6-0.1H222v33.5l17.2,18.2h56.4l17-18.2v-48.1l-3.4-3.6l-0.1-0.1l0.1-0.1l3.4-3.6V115l-17-18.2H239.1z
				 M308.3,161.1l-5.3,5.7l-0.1,0.1l0.1,0.1l5.3,5.7v44.1l-14.8,15.8H241l-14.8-15.8v-28.3h32v10.1h18.2v-18.1l-27.6-0.3v-13.3
				v-13.3l27.6-0.3v-18.1h-18.2v10.1h-32V117l14.8-15.8h52.6l14.8,15.8V161.1z"/>
		</g>
		<g>
			<path class="st0" d="M393.6,97h-56.8l-17.2,18.2v103.3l17.2,18.2h56.8l17.2-18.2V115.2L393.6,97z M406.6,216.5l-14.8,15.8h-53.2
				l-14.8-15.8v-99.3l14.8-15.8h53.2l14.8,15.8V216.5z"/>
		</g>
		<g>
			<path class="st0" d="M353.2,201.3h24.3v-69.2h-24.3V201.3z M355.8,135.2h18.8v63.3h-18.8V135.2z"/>
		</g>
	</g>
	<g>
		<path class="st0" d="M292.5,230.1H242l-13.4-14.3v-24.9h27.2v10.1h23v-22.8l-27.6-0.3v-21.8l27.6-0.3v-22.8h-23v10.1h-27.2V118
			l13.4-14.3h50.5l13.4,14.3v42.2l-6.2,6.7l6.2,6.7v42.2L292.5,230.1z M242.6,228.8h49.4l12.7-13.5v-41.2l-6.7-7.2l6.7-7.2v-41.2
			l-12.7-13.5h-49.4l-12.7,13.5v23.1h24.6v-10.1H280v25.4l-27.6,0.3v19.3l27.6,0.3v25.4h-25.6v-10.1h-24.6v23.1L242.6,228.8z"/>
	</g>
	<g>
		<path class="st0" d="M390.6,230.1h-50.6L327,216v-98.2l13-14.1h50.6l13,14.1V216L390.6,230.1z M340.6,228.8h49.4l12.3-13.3v-97.2
			l-12.3-13.3h-49.4l-12.3,13.3v97.2L340.6,228.8z"/>
	</g>
	<g>
		<path class="st0" d="M371.6,195.4h-12.7v-57.2h12.7V195.4z M360.2,194.1h10.2v-54.6h-10.2V194.1z"/>
	</g>
	<rect id="cadre_2_" x="-0.5" y="0.3" class="st1" width="623.6" height="340.2"/>
</g>
<g id="Scene">
	<g>
		<rect x="292.7" y="37.8" class="st2" width="43.3" height="0"/>
		<g>
			<path class="st1" d="M336.2,17.3C336.3,17.3,336.2,17.3,336.2,17.3L336,37.8h23v-0.3V17.3h-89v20.5h22.8V17.4v0"/>
			<path class="st2" d="M336.2,17.3l-43.5,0.1v0v20.4H336L336.2,17.3C336.2,17.3,336.3,17.3,336.2,17.3z"/>
		</g>
	</g>
	<g>
		<g>
			<polygon class="st1" points="241,101.2 226.2,117 226.2,145.3 258.2,145.3 258.2,135.2 276.4,135.2 276.4,153.3 248.8,153.6 
				248.8,166.9 248.8,180.1 276.4,180.4 276.4,198.5 258.2,198.5 258.2,188.4 226.2,188.4 226.2,216.7 241,232.5 293.5,232.5 
				308.3,216.7 308.3,172.6 303.1,167 303,166.9 303.1,166.8 308.3,161.1 308.3,117 293.5,101.2 			"/>
		</g>
		<g>
			<rect x="355.8" y="135.2" class="st1" width="18.8" height="63.3"/>
		</g>
		<g>
			<path class="st1" d="M338.6,101.4l-14.8,15.8v99.3l14.8,15.8h53.2l14.8-15.8v-99.3l-14.8-15.8H338.6z M377.5,201.3h-24.3v-69.2
				h24.3V201.3z"/>
		</g>
		<g>
			<path class="st1" d="M239.1,96.8L222,115v33.5h23.9l15.6-0.1v-10h11.9v12h0l0,0h-27.3l-0.1,7.8v8.6v8.6l0.1,7.8h27.3l0,0h0v12
				h-11.9v-10l-15.6-0.1H222v33.5l17.2,18.2h56.4l17-18.2v-48.1l-3.4-3.6l-0.1-0.1l0.1-0.1l3.4-3.6V115l-17-18.2H239.1z
				 M308.3,161.1l-5.3,5.7l-0.1,0.1l0.1,0.1l5.3,5.7v44.1l-14.8,15.8H241l-14.8-15.8v-28.3h32v10.1h18.2v-18.1l-27.6-0.3v-13.3
				v-13.3l27.6-0.3v-18.1h-18.2v10.1h-32V117l14.8-15.8h52.6l14.8,15.8V161.1z"/>
		</g>
		<g>
			<path class="st1" d="M393.6,97h-56.8l-17.2,18.2v103.3l17.2,18.2h56.8l17.2-18.2V115.2L393.6,97z M406.6,216.5l-14.8,15.8h-53.2
				l-14.8-15.8v-99.3l14.8-15.8h53.2l14.8,15.8V216.5z"/>
		</g>
		<g>
			<path class="st1" d="M353.2,201.3h24.3v-69.2h-24.3V201.3z M355.8,135.2h18.8v63.3h-18.8V135.2z"/>
		</g>
	</g>
	<g>
		<path class="st1" d="M292.5,230.1H242l-13.4-14.3v-24.9h27.2v10.1h23v-22.8l-27.6-0.3v-21.8l27.6-0.3v-22.8h-23v10.1h-27.2V118
			l13.4-14.3h50.5l13.4,14.3v42.2l-6.2,6.7l6.2,6.7v42.2L292.5,230.1z M242.6,228.8h49.4l12.7-13.5v-41.2l-6.7-7.2l6.7-7.2v-41.2
			l-12.7-13.5h-49.4l-12.7,13.5v23.1h24.6v-10.1H280v25.4l-27.6,0.3v19.3l27.6,0.3v25.4h-25.6v-10.1h-24.6v23.1L242.6,228.8z"/>
	</g>
	<g>
		<path class="st1" d="M390.6,230.1h-50.6L327,216v-98.2l13-14.1h50.6l13,14.1V216L390.6,230.1z M340.6,228.8h49.4l12.3-13.3v-97.2
			l-12.3-13.3h-49.4l-12.3,13.3v97.2L340.6,228.8z"/>
	</g>
	<g>
		<path class="st1" d="M371.6,195.4h-12.7v-57.2h12.7V195.4z M360.2,194.1h10.2v-54.6h-10.2V194.1z"/>
	</g>
	<path id="cadre_1_" class="st1" d="M-0.3,337.5V3c0-1.5,1.3-2.8,2.8-2.8h618c1.5,0,2.8,1.3,2.8,2.8v334.6c0,1.5-1.3,2.8-2.8,2.8
		H2.5C1,340.3-0.3,339.1-0.3,337.5z"/>
</g>
<g id="Varnish" class="st3">
	<path class="st4" d="M270,40.6c-1.6,0-2.8-1.3-2.8-2.8V17.3c0-1.6,1.3-2.8,2.8-2.8h89c1.6,0,2.8,1.3,2.8,2.8v20.5
		c0,1.6-1.3,2.8-2.8,2.8H270z"/>
	<g class="st5">
		<g>
			<path class="st1" d="M241,235.3c-0.8,0-1.5-0.3-2.1-0.9l-14.8-15.8c-0.5-0.5-0.8-1.2-0.8-1.9v-28.3c0-1.6,1.3-2.8,2.8-2.8h32
				c1.6,0,2.8,1.3,2.8,2.8v7.2h12.5v-12.4l-24.8-0.3c-1.6,0-2.8-1.3-2.8-2.8v-26.6c0-1.6,1.3-2.8,2.8-2.8l24.8-0.3V138H261v7.2
				c0,1.6-1.3,2.8-2.8,2.8h-32c-1.6,0-2.8-1.3-2.8-2.8V117c0-0.7,0.3-1.4,0.8-1.9l14.8-15.8c0.5-0.6,1.3-0.9,2.1-0.9h52.6
				c0.8,0,1.5,0.3,2.1,0.9l14.8,15.8c0.5,0.5,0.8,1.2,0.8,1.9v44.1c0,0.7-0.3,1.4-0.8,1.9l-3.6,3.8l3.6,3.8c0.5,0.5,0.8,1.2,0.8,1.9
				v44.1c0,0.7-0.3,1.4-0.8,1.9l-14.8,15.8c-0.5,0.6-1.3,0.9-2.1,0.9H241z"/>
			<polygon class="st1" points="241,101.2 226.2,117 226.2,145.3 258.2,145.3 258.2,135.2 276.4,135.2 276.4,153.3 248.8,153.6 
				248.8,166.9 248.8,180.1 276.4,180.4 276.4,198.5 258.2,198.5 258.2,188.4 226.2,188.4 226.2,216.7 241,232.5 293.5,232.5 
				308.3,216.7 308.3,172.6 303.1,167 303,166.9 303.1,166.8 308.3,161.1 308.3,117 293.5,101.2 			"/>
		</g>
		<g>
			<path class="st1" d="M355.8,201.3c-1.6,0-2.8-1.3-2.8-2.8v-63.3c0-1.6,1.3-2.8,2.8-2.8h18.8c1.6,0,2.8,1.3,2.8,2.8v63.3
				c0,1.6-1.3,2.8-2.8,2.8H355.8z"/>
			<rect x="355.8" y="135.2" class="st1" width="18.8" height="63.3"/>
		</g>
		<g>
			<path class="st1" d="M338.6,235.1c-0.8,0-1.5-0.3-2.1-0.9l-14.8-15.8c-0.5-0.5-0.8-1.2-0.8-1.9v-99.3c0-0.7,0.3-1.4,0.8-1.9
				l14.8-15.8c0.5-0.6,1.3-0.9,2.1-0.9h53.2c0.8,0,1.5,0.3,2.1,0.9l14.8,15.8c0.5,0.5,0.8,1.2,0.8,1.9v99.3c0,0.7-0.3,1.4-0.8,1.9
				l-14.8,15.8c-0.5,0.6-1.3,0.9-2.1,0.9H338.6z M374.6,198.5V135H356v63.5H374.6z"/>
			<path class="st1" d="M338.6,101.4l-14.8,15.8v99.3l14.8,15.8h53.2l14.8-15.8v-99.3l-14.8-15.8H338.6z M377.5,201.3h-24.3v-69.2
				h24.3V201.3z"/>
		</g>
	</g>
	<g class="st5">
		<rect x="264.2" y="186.1" class="st1" width="6.2" height="6.4"/>
		<path class="st1" d="M301.8,158.5v-39l-11.1-11.8h-46.9l-11.1,11.8v19.2h18.9v-7.2c0-1.6,1.3-2.8,2.8-2.8H280
			c1.6,0,2.8,1.3,2.8,2.8v25.4c0,1.6-1.3,2.8-2.8,2.8l-24.8,0.3v13.7l24.8,0.3c1.6,0,2.8,1.3,2.8,2.8v25.4c0,1.6-1.3,2.8-2.8,2.8
			h-25.6c-1.6,0-2.8-1.3-2.8-2.8V195h-18.9v19.2l11.1,11.8h46.9l11.1-11.8v-39l-5.9-6.4c-1-1.1-1-2.8,0-3.9L301.8,158.5z"/>
		<rect x="264.2" y="141.2" class="st1" width="6.2" height="6.4"/>
		<rect x="363" y="142.3" class="st1" width="4.5" height="49"/>
		<path class="st1" d="M331.1,214.5l10.7,11.4h47l10.7-11.4v-93.6l-10.7-11.4h-47l-10.7,11.4V214.5z M350.4,132.2
			c0-1.6,1.3-2.8,2.8-2.8h24.3c1.6,0,2.8,1.3,2.8,2.8v69.2c0,1.6-1.3,2.8-2.8,2.8h-24.3c-1.6,0-2.8-1.3-2.8-2.8V132.2z"/>
		<path class="st6" d="M297.6,94.9c-0.5-0.6-1.3-0.9-2.1-0.9h-56.4c-0.8,0-1.5,0.3-2.1,0.9L219.9,113c-0.5,0.5-0.8,1.2-0.8,1.9v33.5
			c0,1.6,1.3,2.8,2.8,2.8H243l-0.1,6.9v17.3l0.1,6.9H222c-1.6,0-2.8,1.3-2.8,2.8v33.5c0,0.7,0.3,1.4,0.8,1.9l17.2,18.2
			c0.5,0.6,1.3,0.9,2.1,0.9h56.4c0.8,0,1.5-0.3,2.1-0.9l17-18.2c0.5-0.5,0.8-1.2,0.8-1.9v-48.1c0-0.7-0.3-1.4-0.8-1.9l-1.7-1.8
			l1.7-1.8c0.5-0.5,0.8-1.2,0.8-1.9V115c0-0.7-0.3-1.4-0.8-1.9L297.6,94.9z M270.4,141.2v6.4h-6.2v-6.4H270.4z M295.9,168.8l5.9,6.4
			v39L290.7,226h-46.9l-11.1-11.8V195h18.9v7.2c0,1.6,1.3,2.8,2.8,2.8H280c1.6,0,2.8-1.3,2.8-2.8v-25.4c0-1.6-1.3-2.8-2.8-2.8
			l-24.8-0.3V160l24.8-0.3c1.6,0,2.8-1.3,2.8-2.8v-25.4c0-1.6-1.3-2.8-2.8-2.8h-25.6c-1.6,0-2.8,1.3-2.8,2.8v7.2h-18.9v-19.2
			l11.1-11.8h46.9l11.1,11.8v39l-5.9,6.4C294.8,166,294.8,167.7,295.9,168.8z M264.2,186.1h6.2v6.4h-6.2V186.1z"/>
		<path class="st6" d="M412.9,113.2L395.7,95c-0.5-0.6-1.3-0.9-2.1-0.9h-56.8c-0.8,0-1.5,0.3-2.1,0.9l-17.2,18.2
			c-0.5,0.5-0.8,1.2-0.8,1.9v103.3c0,0.7,0.3,1.4,0.8,1.9l17.2,18.2c0.5,0.6,1.3,0.9,2.1,0.9h56.8c0.8,0,1.5-0.3,2.1-0.9l17.2-18.2
			c0.5-0.5,0.8-1.2,0.8-1.9V115.2C413.7,114.5,413.4,113.8,412.9,113.2z M388.8,109.5l10.7,11.4v93.6L388.8,226h-47l-10.7-11.4
			v-93.6l10.7-11.4H388.8z"/>
		<path class="st6" d="M353.2,204.2h24.3c1.6,0,2.8-1.3,2.8-2.8v-69.2c0-1.6-1.3-2.8-2.8-2.8h-24.3c-1.6,0-2.8,1.3-2.8,2.8v69.2
			C350.4,202.9,351.6,204.2,353.2,204.2z M367.5,142.3v49H363v-49H367.5z"/>
	</g>
	<path id="cadre" class="st7" d="M-0.3,337.5V3c0-1.5,1.3-2.8,2.8-2.8h618c1.5,0,2.8,1.3,2.8,2.8v334.6c0,1.5-1.3,2.8-2.8,2.8H2.5
		C1,340.3-0.3,339.1-0.3,337.5z"/>
</g>
</svg>
