<?xml version="1.0" encoding="utf-8"?>
<!-- Generator: Adobe Illustrator 24.2.3, SVG Export Plug-In . SVG Version: 6.00 Build 0)  -->
<svg version="1.1" xmlns="http://www.w3.org/2000/svg" xmlns:xlink="http://www.w3.org/1999/xlink" x="0px" y="0px"
	 viewBox="0 0 553 574" style="enable-background:new 0 0 553 574;" xml:space="preserve">
<style type="text/css">
	.st0{fill:#A38564;}
	.st1{fill:#AD8F6A;}
	.st2{fill:#E5C795;}
	.st3{fill:#4B6E6E;}
	.st4{fill:#425A5B;}
</style>
<g id="coiffure_x5F_8">
	<g>
		<path class="st0" d="M258,122.2c-6-4.1-14-2-19.6,1.8c-0.6-0.9-1.9-1.3-2-2.6c-0.1,1.1,0.1,2.5,1.1,3.2c-0.1,0.1-0.3,0.2-0.4,0.2
			c-1.1-0.7-2.3-1.4-2.6-2.8c-0.1,1.3,0.1,2.7,1.2,3.5c-0.3,0.1-0.5,0.2-0.8,0.3c-1.1-0.6-2.2-1.4-2.5-2.7c-0.1,1.4,0.2,3,1.5,3.7
			c0.7,6.9,3.8,13.9,10.8,16.1c-22.5-14.6,7.8-33.2,18.3-13.4C262.4,126.7,260.3,123.7,258,122.2z"/>
		<path class="st0" d="M320.9,122.9c-0.3,1.3-1.4,2.1-2.5,2.7c-0.3-0.1-0.5-0.2-0.8-0.3c1.1-0.8,1.3-2.3,1.2-3.5
			c-0.3,1.4-1.5,2.2-2.6,2.8c-0.1-0.1-0.3-0.2-0.4-0.2c1-0.7,1.2-2,1.1-3.2c-0.1,1.4-1.4,1.8-2,2.6c-7.6-5.9-21.8-6-24.5,5
			c10.8-19.5,40.6-0.5,18.2,13.9c7.1-2.2,10.2-9.3,10.9-16.2C320.7,126,321,124.3,320.9,122.9z"/>
	</g>
	<g>
		<g>
			<path class="st1" d="M261.7,109.6c3.6,0,5.3,5.2,1.1,5.8c-10.5-0.2-24-4.4-32.6,3.5C235.3,106.9,250.7,107.7,261.7,109.6z"/>
			<g>
				<path class="st1" d="M261.7,109.6c0.8,0,1.5,0.2,2.2,0.7c0.6,0.5,1.1,1.1,1.3,1.9c0.2,0.7,0.1,1.6-0.4,2.2
					c-0.5,0.6-1.3,0.9-2,1.1l0,0l0,0c-5.6-0.1-11.2-1.1-16.9-1.1c-2.8,0-5.6,0.2-8.3,0.9c-2.7,0.7-5.2,2-7.3,3.9l-0.8,0.7l0.4-1
					c1.2-2.8,3.1-5.3,5.6-6.9c2.5-1.7,5.4-2.6,8.4-3.1c2.9-0.5,5.9-0.5,8.9-0.4C255.9,108.7,258.8,109.1,261.7,109.6z M261.7,109.6
					c-5.8-1-11.9-1.6-17.7-0.5c-2.9,0.5-5.8,1.5-8.2,3.2c-2.4,1.7-4.3,4.1-5.4,6.8l-0.4-0.3c2.1-2,4.7-3.3,7.5-4
					c2.8-0.7,5.6-0.9,8.4-0.8c2.8,0.1,5.6,0.4,8.4,0.7c2.8,0.3,5.6,0.7,8.4,0.7l0,0c0.8-0.1,1.5-0.4,2-1c0.5-0.6,0.6-1.4,0.4-2.2
					c-0.2-0.7-0.7-1.4-1.3-1.9C263.3,109.9,262.5,109.6,261.7,109.6z"/>
			</g>
		</g>
		<g>
			<path class="st1" d="M291.3,108.9c-3.6,0-5.3,5.2-1.1,5.8c10.5-0.2,24-4.4,32.6,3.5C317.7,106.2,302.3,107,291.3,108.9z"/>
			<g>
				<path class="st1" d="M291.3,108.9c-0.8,0-1.5,0.3-2.2,0.7c-0.6,0.5-1.1,1.1-1.3,1.9c-0.2,0.7-0.1,1.6,0.4,2.2
					c0.5,0.6,1.2,0.9,2,1l0,0c2.8-0.1,5.6-0.4,8.4-0.7c2.8-0.3,5.6-0.6,8.4-0.7c2.8-0.1,5.7,0.1,8.4,0.8c2.8,0.7,5.4,2.1,7.5,4
					l-0.4,0.3c-1.1-2.7-3-5.1-5.4-6.8c-2.4-1.7-5.3-2.7-8.2-3.2C303.1,107.4,297.1,108,291.3,108.9z M291.3,108.9
					c2.9-0.5,5.9-0.9,8.9-1.1c3-0.2,6-0.1,8.9,0.4c2.9,0.5,5.9,1.4,8.4,3.1c2.5,1.7,4.4,4.2,5.6,6.9l0.4,1l-0.8-0.7
					c-2-1.9-4.6-3.2-7.3-3.9c-2.7-0.7-5.5-0.9-8.3-0.9c-5.6,0-11.2,1-16.9,1.1l0,0l0,0c-0.8-0.1-1.5-0.4-2-1.1
					c-0.5-0.6-0.6-1.5-0.4-2.2c0.2-0.7,0.7-1.4,1.3-1.9C289.7,109.2,290.5,108.9,291.3,108.9z"/>
			</g>
		</g>
	</g>
	<g>
		<g>
			<path class="st2" d="M225.9,151.6c1.8,17.8,12.4,29.5,28.7,38.6c2.3,1.3,6.6,0.8,8,4.2c1.4,3.5-2.3,2.6-4.2,3.1
				c-4.7,1.2-9.8,2.8-14.6,2.4c-2.4-0.2-4.8-0.8-7.2-0.8c-2.4,0-5,0.8-6.3,2.9c-1,1.7-0.9,3.8-1.6,5.7c-1,2.9-3.7,4.8-5.7,7.2
				c-5.5,6.7-4.8,16.4-8.1,24.4c-1.9,4.6-5.1,8.5-6.9,13.2c-1.8,4.6-1.6,10.6,2.3,13.7c-5.1-2.1-10.3-4.3-14.1-8.2
				c-3.8-4-5.8-10.2-3.2-15c1.7-3.1,5-5.4,5.5-8.9c0.6-3.9-2.6-7.2-3.6-11c-1.8-6.8,3.8-13.5,10-16.9c3.1-1.7,6.4-2.9,9.4-4.7
				s5.7-4.4,6.7-7.8c1.1-3.9-0.3-8.1-1.8-11.9c-4-10.4-10.9-28.1-9.7-38.9l-0.2-5.6c-0.5-16,0.5-35.1,6.4-49.6
				c5.3-13.1,14.1-23.6,26.9-29.6s24.2-9.3,38.3-8.2c11.8,0.9,23.6,3.8,34,9.6c10.4,5.8,19.2,14.6,24.1,25.4
				c6.3,14,5.2,36.2,4.4,51.5c-4.1,0.2-5.8-4.8-8.1-2.9c-0.4,0.3-4.9,2.2-5.4,5.2c-0.5,3.1-1.7,6.8-2.9,11.6c-0.8,3-2,7.8-0.5,10.6
				c-2.6-1.9-3.1-5.7-2.3-8.9c0.8-3.1,1.5-6.2,2.5-9.3c3.1-9.6-0.8-20-8.1-26.9s-16.6-11.3-25.1-16.8c-8.5-5.4-16.7-12.6-19.5-22.3
				c-1.1,8.2-6.4,15.2-12.8,20.2c-6.4,5-13.8,8.4-20.7,12.6c-4.6,2.8-9.2,6.2-11.2,11.2c-4.7,11.5,6.2,25.4,0.8,36.6
				c0,0,0.2-17.6-5.9-24C217.9,127.3,225.9,151.6,225.9,151.6z"/>
			<g>
				<path class="st1" d="M225.9,151.6c0.7,6.9,2.9,13.7,6.7,19.5c3.8,5.8,9,10.6,14.6,14.6c1.4,1,2.9,1.9,4.4,2.8
					c0.7,0.4,1.5,0.9,2.2,1.3c0.4,0.2,0.7,0.4,1.1,0.6c0.4,0.2,0.8,0.3,1.2,0.4c1.7,0.5,3.4,0.7,4.9,1.7c0.7,0.5,1.3,1.2,1.5,2.1
					c0.1,0.4,0.3,0.8,0.2,1.3c0,0.4-0.3,0.9-0.7,1.1c-0.8,0.4-1.7,0.4-2.6,0.5c-0.9,0-1.7,0.3-2.5,0.5c-1.7,0.5-3.3,0.9-5,1.3
					c-3.4,0.8-6.9,1.2-10.3,0.6c-1.7-0.3-3.4-0.6-5.2-0.6c-1.7,0-3.5,0.4-4.9,1.4c-0.7,0.5-1.3,1.2-1.6,2c-0.4,0.8-0.5,1.6-0.7,2.5
					c-0.2,0.8-0.3,1.7-0.6,2.5c-0.3,0.8-0.7,1.6-1.2,2.3c-1,1.4-2.3,2.6-3.5,3.9c-1.2,1.3-2.2,2.7-3,4.2c-1.6,3.1-2.4,6.5-3.1,9.9
					c-0.7,3.4-1.3,6.8-2.5,10.1c-1.1,3.3-3,6.2-4.8,9.2c-1.7,3-3.4,6.1-3.7,9.6c-0.2,1.7-0.1,3.5,0.4,5.1c0.5,1.6,1.4,3.2,2.8,4.2
					l0.5,0.4l-0.6-0.3c-2.9-1.2-5.8-2.4-8.5-3.9c-2.7-1.6-5.3-3.5-7.1-6.1c-1.8-2.5-3-5.6-2.9-8.8c0-1.6,0.4-3.1,1.1-4.6
					c0.7-1.4,1.8-2.6,2.7-3.8c1-1.2,1.9-2.5,2.5-3.9c0.5-1.5,0.4-3.1-0.1-4.5c-0.9-2.9-3-5.5-3.5-8.7c-0.5-3.2,0.6-6.4,2.4-8.9
					c1.8-2.6,4.2-4.7,6.8-6.4c2.7-1.6,5.6-2.8,8.4-4.2c2.8-1.4,5.4-3.2,7.2-5.8c0.9-1.3,1.5-2.7,1.8-4.2c0.3-1.5,0.2-3.1-0.1-4.6
					c-0.6-3-1.9-5.9-2.9-8.8c-2.2-5.8-4.4-11.7-6.1-17.7c-0.8-3-1.6-6-2.1-9.1c-0.5-3.1-0.8-6.2-0.4-9.4l0,0
					c-0.6-10.8-0.6-21.7,0.7-32.5c1.2-10.7,3.9-21.5,9.4-30.9c2.7-4.7,6.1-9.1,10-12.8c2-1.8,4.1-3.5,6.4-5.1c2.3-1.5,4.7-2.8,7.1-4
					c4.9-2.3,10-4.3,15.2-5.8c5.2-1.5,10.6-2.3,16.1-2.4c2.7-0.1,5.4,0.1,8.1,0.3c2.7,0.2,5.4,0.6,8.1,1.1
					c5.3,0.9,10.6,2.4,15.7,4.3c5.1,2,9.9,4.5,14.3,7.6c4.4,3.1,8.5,6.9,11.9,11.1c3.4,4.2,6.2,9,8,14.1c1.8,5.1,2.6,10.5,3.2,15.9
					c1,10.8,0.5,21.7-0.1,32.5l0,0.2l-0.2,0c-0.9,0-1.7-0.2-2.5-0.5c-0.8-0.4-1.4-0.9-2.1-1.4c-0.6-0.5-1.3-1.1-2-1.3
					c-0.4-0.1-0.7-0.1-1.1,0.1c-0.2,0.1-0.3,0.2-0.5,0.3l-0.6,0.3c-1.4,0.8-2.9,1.7-3.8,3c-0.5,0.7-0.8,1.4-0.8,2.2
					c-0.1,0.8-0.3,1.6-0.5,2.4c-0.8,3.2-1.8,6.4-2.6,9.6c-0.4,1.6-0.8,3.2-0.9,4.9c-0.2,1.6-0.2,3.3,0.6,4.8l0.3,0.6l-0.5-0.4
					c-0.9-0.7-1.7-1.7-2.1-2.8c-0.4-1.1-0.6-2.3-0.6-3.4c0-1.2,0.2-2.3,0.5-3.4l0.9-3.3c0.6-2.2,1.2-4.4,1.9-6.6
					c0.6-2.2,0.8-4.5,0.7-6.7c-0.2-4.5-1.7-9-4.2-12.8c-1.2-1.9-2.6-3.7-4.2-5.4c-1.6-1.6-3.3-3.1-5.1-4.5
					c-7.2-5.6-15.6-9.5-23.1-14.6c-3.8-2.6-7.3-5.5-10.4-8.9c-3-3.4-5.5-7.4-6.7-11.8l0.2,0c-0.6,4.3-2.3,8.3-4.7,11.8
					c-2.4,3.5-5.5,6.6-8.9,9.1c-6.8,5.2-14.7,8.6-21.9,13.2c-3.5,2.3-6.9,5.2-8.8,9c-0.9,1.9-1.5,4-1.6,6.1c-0.2,2.1,0,4.3,0.4,6.4
					c0.7,4.2,1.9,8.3,2.6,12.5c0.3,2.1,0.6,4.2,0.5,6.4c-0.1,2.1-0.6,4.2-1.5,6.2l-0.1,0.1l0-0.1c0-3.9-0.3-7.8-1-11.7
					c-0.3-1.9-0.8-3.8-1.4-5.7c-0.6-1.9-1.4-3.7-2.5-5.3c-0.6-0.8-1.2-1.6-2-2.1c-0.2-0.1-0.4-0.2-0.7-0.2c-0.3,0-0.4,0.2-0.5,0.5
					c-0.2,0.5-0.2,1-0.1,1.4c0.1,2,0.5,3.9,1,5.8C223.6,144.1,224.7,147.8,225.9,151.6z M225.9,151.6c-1.2-3.7-2.3-7.5-3.3-11.3
					c-0.4-1.9-0.9-3.8-1-5.8c0-0.5,0-1,0.1-1.5c0.1-0.2,0.2-0.5,0.5-0.5c0.3,0,0.5,0.1,0.7,0.2c0.8,0.6,1.4,1.3,2,2.1
					c1.1,1.6,1.9,3.4,2.5,5.3c0.6,1.9,1,3.8,1.4,5.7c0.7,3.9,1,7.8,1,11.7l-0.1,0c0.9-1.9,1.4-4,1.5-6.2c0.1-2.1-0.1-4.3-0.5-6.4
					c-0.7-4.2-2-8.3-2.6-12.5c-0.3-2.1-0.5-4.2-0.4-6.4c0.1-2.1,0.7-4.2,1.6-6.2c1.9-3.9,5.3-6.7,8.9-9c7.2-4.6,15-8.1,21.9-13.2
					c3.4-2.6,6.5-5.6,8.9-9.1c2.4-3.5,4.1-7.5,4.7-11.7l0.1-0.4l0.1,0.4c1.3,4.4,3.7,8.4,6.7,11.8c3,3.4,6.6,6.3,10.3,8.9
					c7.5,5.1,15.9,9,23.2,14.6c1.8,1.4,3.5,2.9,5.2,4.5c1.6,1.6,3,3.4,4.2,5.4c2.4,3.9,4,8.3,4.2,12.9c0.1,2.3-0.1,4.6-0.7,6.8
					c-0.7,2.2-1.3,4.4-1.9,6.6l-0.8,3.3c-0.3,1.1-0.5,2.2-0.5,3.3c0,2.2,0.7,4.6,2.6,5.9l-0.2,0.2c-0.8-1.5-0.8-3.3-0.6-4.9
					c0.2-1.7,0.5-3.3,0.9-4.9c0.8-3.2,1.8-6.4,2.6-9.6c0.2-0.8,0.4-1.6,0.5-2.4c0.1-0.8,0.4-1.7,0.9-2.4c1-1.4,2.5-2.3,3.9-3.1
					l0.5-0.3c0.1-0.1,0.3-0.2,0.5-0.3c0.4-0.2,0.9-0.2,1.3-0.1c0.9,0.3,1.5,0.9,2.1,1.4c0.6,0.5,1.3,1,2,1.3
					c0.7,0.3,1.5,0.5,2.3,0.5l-0.2,0.2c0.6-10.8,1-21.7,0-32.4c-0.5-5.4-1.4-10.7-3.2-15.8c-1.8-5.1-4.6-9.8-7.9-14
					c-3.4-4.2-7.4-7.9-11.8-11c-4.4-3.1-9.2-5.6-14.3-7.6c-5-2-10.3-3.4-15.6-4.3c-2.7-0.5-5.3-0.8-8-1.1c-2.7-0.3-5.4-0.4-8.1-0.3
					c-5.4,0.1-10.8,1-16,2.4c-5.2,1.4-10.2,3.5-15.1,5.7c-2.4,1.1-4.8,2.4-7.1,3.9c-2.2,1.5-4.4,3.2-6.3,5c-3.9,3.7-7.3,8-10,12.7
					c-5.5,9.4-8.1,20.1-9.4,30.8c-1.3,10.7-1.3,21.6-0.7,32.4l0,0l0,0c-0.3,3.1-0.1,6.2,0.4,9.3c0.5,3.1,1.2,6.1,2.1,9.1
					c1.7,6,3.8,11.9,6.1,17.7c1.1,2.9,2.4,5.8,3,8.9c0.3,1.5,0.4,3.1,0.1,4.7c-0.2,1.6-0.9,3.1-1.8,4.3c-1.8,2.6-4.5,4.4-7.3,5.8
					c-2.8,1.4-5.7,2.6-8.4,4.2c-2.6,1.6-5,3.7-6.8,6.3c-1.7,2.5-2.8,5.7-2.3,8.7c0.5,3.1,2.5,5.6,3.5,8.6c0.5,1.5,0.6,3.2,0,4.7
					c-0.5,1.5-1.5,2.8-2.5,4c-1,1.2-2,2.4-2.7,3.8c-0.7,1.4-1.1,2.9-1.1,4.5c-0.1,3.1,1.1,6.2,2.9,8.7c1.8,2.5,4.4,4.4,7,6
					c2.7,1.6,5.6,2.7,8.5,3.9l-0.1,0.2c-1.4-1.1-2.4-2.6-2.9-4.3c-0.5-1.7-0.6-3.5-0.4-5.2c0.3-3.5,2-6.7,3.7-9.7
					c1.7-3,3.6-5.9,4.8-9.2c1.2-3.3,1.8-6.7,2.5-10.1c0.7-3.4,1.5-6.8,3.1-9.9c0.8-1.5,1.8-3,3-4.2c1.2-1.3,2.5-2.4,3.5-3.9
					c0.5-0.7,0.9-1.5,1.2-2.3c0.3-0.8,0.4-1.7,0.6-2.5c0.2-0.9,0.3-1.7,0.7-2.5c0.4-0.8,0.9-1.5,1.7-2c1.4-1,3.2-1.4,4.9-1.4
					c1.7,0,3.5,0.3,5.2,0.6c3.4,0.6,6.9,0.2,10.3-0.5c1.7-0.4,3.4-0.8,5-1.3c0.8-0.2,1.7-0.5,2.5-0.5c0.9-0.1,1.8-0.1,2.5-0.5
					c0.4-0.2,0.6-0.6,0.6-1c0-0.4-0.1-0.9-0.2-1.3c-0.3-0.8-0.8-1.5-1.5-2c-1.4-1-3.2-1.3-4.9-1.7c-0.4-0.1-0.8-0.2-1.2-0.4
					c-0.4-0.2-0.8-0.4-1.1-0.6c-0.8-0.4-1.5-0.9-2.2-1.3c-1.5-0.9-2.9-1.8-4.4-2.8c-5.7-4-10.9-8.8-14.6-14.6
					C228.8,165.2,226.6,158.5,225.9,151.6z"/>
			</g>
		</g>
		<g>
			<path class="st2" d="M331.4,149.4c-0.9,9.2-8,20.8-14.6,28.2c-6.1,6.9-12.5,9.5-21,13c-1.6,0.7-4.9,1.2-6.4,4.1
				c-0.7,1.3,3.9,1.9,6,2.1c1.5,0.1,22.5,2.2,29.8,8.9c7.3,6.7,12,16.2,12.8,26.1c0.4,5.6,0,12.1,4.3,15.8c2.5,2.1,5.9,2.7,8.8,4.1
				c2.9,1.5,5.5,4.8,4.2,7.8c4.6-7.1,4.1-17-1.2-23.6c-2.4-3-5.9-5.7-6.2-9.6c-0.3-3.9,2.9-7.4,2.9-11.4c0-3.6-2.6-6.7-5.5-9
				c-2.9-2.2-6.1-4-8.4-6.9c-3.5-4.5-3.8-10.9-2.4-16.5c1.4-5.6,4.1-10.7,6.1-16.1c2-5.4,3.3-11.4,1.5-16.8
				C339.7,151.8,334.5,149.3,331.4,149.4z"/>
			<g>
				<path class="st1" d="M331.4,149.4c-0.4,3.5-1.5,6.9-2.9,10.1c-1.4,3.2-3.1,6.3-5,9.3c-1.9,3-4,5.8-6.3,8.5c-2.3,2.7-5,5.1-8,7
					c-3,1.9-6.2,3.4-9.4,4.8c-1.6,0.7-3.2,1.4-4.9,2c-1.7,0.5-3.4,1.2-4.5,2.5c-0.3,0.3-0.5,0.7-0.7,1c-0.1,0.2-0.2,0.3-0.1,0.5
					c0.1,0.1,0.2,0.3,0.4,0.4c0.7,0.4,1.6,0.6,2.5,0.7c1.7,0.3,3.5,0.3,5.3,0.6c3.5,0.4,7,1,10.5,1.7c3.5,0.7,6.9,1.7,10.2,2.9
					c1.6,0.7,3.3,1.4,4.8,2.3c0.8,0.5,1.5,1,2.2,1.6c0.6,0.6,1.3,1.2,1.9,1.9c4.9,5.1,8.5,11.5,10.1,18.5c0.4,1.7,0.7,3.5,0.9,5.2
					c0.2,1.8,0.2,3.5,0.4,5.3c0.1,1.8,0.3,3.5,0.7,5.2c0.4,1.7,1,3.3,2.1,4.7c1.1,1.4,2.5,2.3,4.1,3c1.6,0.7,3.3,1.2,4.9,1.9
					c1.7,0.7,3.2,1.8,4.2,3.3c0.5,0.7,1,1.6,1.1,2.5c0.2,0.9,0.1,1.9-0.3,2.7l-0.4-0.2c2.7-4.2,3.7-9.5,2.8-14.5
					c-0.4-2.5-1.3-4.9-2.7-7c-1.3-2.2-3.2-3.9-4.8-5.9c-0.8-1-1.6-2-2.1-3.2c-0.5-1.2-0.7-2.5-0.6-3.8c0.3-2.6,1.7-4.9,2.4-7.2
					c0.4-1.2,0.6-2.4,0.4-3.7c-0.1-1.2-0.6-2.4-1.2-3.5c-1.3-2.2-3.2-3.9-5.3-5.3c-2-1.5-4.2-2.9-6-4.7c-1.8-1.8-3.1-4.1-3.8-6.6
					c-1.3-5-0.4-10.3,1.3-15.1c1.7-4.8,4.1-9.3,5.7-14.2c0.8-2.4,1.4-4.9,1.6-7.4c0.2-2.5,0-5.1-0.7-7.5l0,0
					c-0.7,0.6-1.7,0.8-2.6,0.8c-0.9,0-1.8-0.1-2.7-0.3l-2.7-0.5C333.2,149.6,332.3,149.4,331.4,149.4z M331.4,149.4
					c0.9,0,1.8,0.1,2.7,0.3l2.7,0.5c0.9,0.2,1.8,0.3,2.7,0.3c0.9,0,1.8-0.2,2.5-0.8l0,0l0,0c0.8,2.4,1,5,0.8,7.6
					c-0.2,2.5-0.8,5-1.6,7.5c-1.6,4.8-3.9,9.4-5.6,14.2c-0.8,2.4-1.5,4.9-1.7,7.4c-0.3,2.5-0.1,5.1,0.5,7.5c0.6,2.4,1.9,4.7,3.7,6.5
					c1.8,1.8,3.9,3.2,6,4.7c2.1,1.5,4,3.2,5.4,5.4c0.7,1.1,1.2,2.3,1.3,3.6c0.2,1.3-0.1,2.6-0.4,3.8c-0.8,2.4-2.1,4.7-2.4,7.2
					c-0.1,1.2,0.1,2.5,0.6,3.6c0.5,1.1,1.2,2.2,2,3.1c1.6,1.9,3.5,3.7,4.9,5.9c1.4,2.2,2.3,4.6,2.7,7.2c0.9,5,0,10.5-2.8,14.8
					l-0.4-0.2c0.3-0.8,0.4-1.6,0.3-2.4c-0.2-0.8-0.6-1.6-1.1-2.3c-1-1.4-2.5-2.4-4.1-3.1c-1.6-0.7-3.3-1.2-4.9-1.9
					c-1.6-0.7-3.2-1.7-4.3-3.2c-1.1-1.4-1.8-3.2-2.2-4.9c-0.4-1.7-0.6-3.5-0.7-5.3c-0.2-3.5-0.3-7-1.2-10.5
					c-1.6-6.8-5.1-13.2-10-18.3c-0.6-0.6-1.3-1.2-1.9-1.8c-0.7-0.6-1.4-1.1-2.1-1.5c-1.5-0.9-3.1-1.7-4.7-2.3
					c-3.3-1.3-6.7-2.2-10.1-2.9c-3.4-0.7-6.9-1.3-10.4-1.7c-1.7-0.2-3.5-0.3-5.3-0.6c-0.9-0.2-1.8-0.3-2.6-0.8
					c-0.2-0.1-0.4-0.3-0.5-0.5c-0.1-0.3,0-0.6,0.1-0.8c0.2-0.4,0.5-0.8,0.8-1.1c1.2-1.4,3-2,4.6-2.6c1.6-0.6,3.3-1.3,4.9-2
					c3.2-1.4,6.4-2.9,9.4-4.8c3-1.9,5.6-4.2,8-6.9c2.3-2.6,4.5-5.5,6.4-8.4c1.9-3,3.7-6,5.1-9.3C329.9,156.3,331,153,331.4,149.4z"
					/>
			</g>
		</g>
		<g>
			<path class="st3" d="M233.5,201.9c-3.8-3-7.7-5.9-11.7-8.6c-0.6-0.4-1.2-0.8-1.8-0.8s-1.5,0.2-1.7,0.9c-0.3,0.8,0.4,1.6,1,2.1
				c3.3,3.2,6.7,6.3,10.8,8.4c0.6,0.3,1.3,0.6,1.9,0.6s1.4-0.3,1.7-0.9S233.8,202.1,233.5,201.9z"/>
			<path class="st4" d="M233.5,201.9c-2.7-2.1-5.4-4.2-8.2-6c-1.4-0.9-2.8-1.9-4.3-2.8c-0.7-0.4-1.6-0.6-2.2-0.1
				c-0.3,0.2-0.4,0.6-0.4,0.9c0,0.3,0.3,0.7,0.5,1c1.1,1.2,2.4,2.4,3.6,3.5c1.3,1.1,2.5,2.2,3.9,3.2c1.4,1,2.8,1.9,4.3,2.6
				c0.8,0.3,1.7,0.4,2.4-0.1C234,203.6,234,202.5,233.5,201.9z M233.5,201.9c0.5,0.6,0.6,1.8-0.2,2.3c-0.7,0.5-1.7,0.5-2.5,0.2
				c-1.6-0.7-3-1.5-4.5-2.5c-2.8-1.9-5.4-4.2-7.8-6.6c-0.3-0.3-0.5-0.7-0.6-1.2c-0.1-0.5,0.2-1.1,0.6-1.3c0.4-0.3,0.9-0.4,1.4-0.4
				c0.5,0,0.9,0.2,1.3,0.4c1.5,0.9,2.8,1.9,4.2,2.9C228.2,197.6,230.9,199.7,233.5,201.9z"/>
		</g>
		<g>
			<path class="st3" d="M334.2,193.8c0.6-0.8,1.2-1.6,1.2-2.5c0.1-0.9-0.7-2-1.6-1.9c-0.6,0.1-1.1,0.6-1.5,1
				c-3.3,3.9-6.3,8.1-8.7,12.6c-0.3,0.6-0.6,1.1-0.7,1.8s0.2,1.3,0.8,1.6c1,0.4,2-0.6,2.6-1.5C328.9,201.3,331.3,197.6,334.2,193.8z
				"/>
			<path class="st4" d="M334.2,193.8c0.5-0.7,1.1-1.5,1.2-2.4c0.1-0.9-0.5-1.9-1.4-2c-0.4,0-0.9,0.2-1.2,0.5c-0.3,0.3-0.6,0.7-0.9,1
				c-0.6,0.7-1.1,1.4-1.7,2.1c-2.2,2.9-4.2,5.9-5.9,9.1c-0.4,0.8-1,1.6-1.1,2.4c-0.2,0.8,0.3,1.7,1.1,1.7c0.8,0,1.5-0.8,2-1.4
				l1.6-2.2C330,199.7,332.1,196.7,334.2,193.8z M334.2,193.8c-2.1,3-4.1,6-6.1,9l-1.5,2.2c-0.3,0.4-0.6,0.7-0.9,1.1
				c-0.4,0.3-0.8,0.6-1.3,0.6c-0.5,0-1.1-0.3-1.3-0.8c-0.3-0.4-0.3-1-0.2-1.5c0.2-1,0.7-1.7,1.2-2.5c1.8-3.2,3.9-6.2,6.2-9
				c0.6-0.7,1.2-1.4,1.8-2.1c0.3-0.3,0.6-0.7,0.9-1c0.3-0.3,0.8-0.6,1.3-0.5c1,0.1,1.5,1.2,1.4,2
				C335.3,192.3,334.7,193.1,334.2,193.8z"/>
		</g>
		<g>
			<path class="st1" d="M334.5,153.8c0.7,2.2,1.1,4.5,1.2,6.8c0.1,2.3-0.1,4.6-0.4,6.9c-0.4,2.3-0.8,4.6-1.4,6.8
				c-0.6,2.2-1.3,4.4-2,6.6l1.5-6.7c0.5-2.2,1-4.5,1.2-6.7c0.4-2.3,0.5-4.5,0.6-6.8C335.1,158.3,334.9,156,334.5,153.8z"/>
		</g>
		<g>
			<path class="st1" d="M330.3,192.4c-0.9-1.3-1.7-2.7-2.3-4.1c-0.6-1.4-1.1-2.9-1.5-4.5c-0.4-1.5-0.6-3.1-0.7-4.7
				c-0.1-1.6-0.1-3.1,0.2-4.7c0.1,1.6,0.2,3.1,0.4,4.6c0.2,1.5,0.5,3,0.8,4.5c0.4,1.5,0.8,3,1.3,4.4
				C329,189.6,329.6,191,330.3,192.4z"/>
		</g>
		<g>
			<path class="st1" d="M327.6,195.8c-1.6-1.1-2.9-2.5-4-4.1c-1.1-1.6-2-3.3-2.6-5.1c1.1,1.6,2.1,3.2,3.2,4.7
				C325.3,192.8,326.4,194.2,327.6,195.8z"/>
		</g>
		<g>
			<path class="st1" d="M325.4,198.9c-1.5-1.3-3-2.6-4.6-3.8c-1.6-1.2-3.2-2.3-4.9-3.4c1.9,0.6,3.7,1.6,5.3,2.8
				C322.9,195.8,324.3,197.2,325.4,198.9z"/>
		</g>
		<g>
			<path class="st1" d="M331.3,204.3c4.3,2.8,7.7,7,9.7,11.7c1,2.4,1.7,4.9,1.9,7.5c0.1,1.3,0.2,2.6,0.1,3.9
				c-0.1,1.3-0.2,2.6-0.3,3.8c-0.3,2.5-0.4,5.1,0.4,7.5c0.4,1.2,0.9,2.3,1.8,3.2c0.8,0.9,1.9,1.6,2.9,2.3c1.1,0.7,2.2,1.3,3.2,2.1
				c1,0.8,1.9,1.7,2.7,2.8c1.5,2.1,2.4,4.7,2.4,7.2c-0.2-2.5-1.2-5-2.7-7c-0.8-1-1.7-1.9-2.7-2.6c-1-0.7-2.1-1.3-3.2-2
				c-1.1-0.6-2.2-1.4-3.1-2.3c-0.9-1-1.6-2.2-1.9-3.4c-0.8-2.5-0.7-5.2-0.5-7.7c0.1-1.3,0.3-2.5,0.3-3.8c0.1-1.3,0-2.5-0.1-3.8
				c-0.2-2.5-0.9-5-1.8-7.3c-0.9-2.4-2.2-4.6-3.7-6.6C335.2,207.6,333.3,205.8,331.3,204.3z"/>
		</g>
		<g>
			<path class="st1" d="M333.3,199.6c1.8,1,3.3,2.2,4.8,3.7c1.4,1.4,2.7,3,3.7,4.8c1,1.7,1.9,3.6,2.5,5.5c0.6,1.9,0.9,3.9,1,5.9
				c-0.3-2-0.8-3.9-1.5-5.8c-0.7-1.9-1.5-3.6-2.5-5.3c-1-1.7-2.2-3.3-3.5-4.8C336.3,202.2,334.9,200.8,333.3,199.6z"/>
		</g>
		<g>
			<path class="st1" d="M346.7,232.6c-0.1,1,0.1,2.1,0.6,3c0.4,0.9,1.1,1.7,1.8,2.4c1.5,1.4,3.2,2.6,4.7,4.3
				c1.4,1.7,2.4,3.6,2.9,5.7c0.5,2.1,0.6,4.3,0.1,6.3c0.2-2.1-0.1-4.2-0.7-6.2c-0.6-2-1.6-3.8-2.9-5.4c-1.3-1.6-3-2.8-4.5-4.4
				c-0.7-0.8-1.4-1.7-1.8-2.7C346.6,234.7,346.4,233.6,346.7,232.6z"/>
		</g>
		<g>
			<path class="st1" d="M214.8,156.2c0.9,3.2,2.6,6.1,4.4,8.9c1.8,2.8,3.6,5.6,4.9,8.8c1.2,3.2,1.8,6.5,1.7,9.9
				c-0.1,3.4-0.9,6.7-2.3,9.7c1.2-3.1,1.8-6.4,1.7-9.7c0-3.3-0.6-6.6-1.8-9.6c-1.2-3.1-3-5.9-4.7-8.7
				C217,162.5,215.4,159.5,214.8,156.2z"/>
		</g>
		<g>
			<path class="st1" d="M232.5,186.8c-0.8,1.7-1.7,3.3-2.7,4.8c-1,1.5-2.1,3-3.4,4.4c0.8-1.7,1.7-3.3,2.7-4.8
				C230.1,189.7,231.2,188.2,232.5,186.8z"/>
		</g>
		<g>
			<path class="st1" d="M240.7,186.5c-0.4,1.4-1,2.7-1.8,3.9c-0.7,1.2-1.6,2.4-2.6,3.4c-1,1-2.1,2-3.3,2.8c-1.2,0.8-2.5,1.5-3.8,2
				c1.2-0.8,2.4-1.5,3.5-2.4c1.1-0.9,2.1-1.8,3.1-2.8c1-1,1.8-2.1,2.7-3.2C239.3,189,240,187.8,240.7,186.5z"/>
		</g>
		<g>
			<path class="st1" d="M225.7,201.8c0.1,2.7-0.9,5.3-2.4,7.6c-1.5,2.2-3.4,4.2-5.2,6.1c-1.8,2-3.6,4-4.8,6.3
				c-0.6,1.2-1,2.4-1.2,3.7c-0.2,1.3-0.1,2.6,0,3.9c0.1,1.3,0.3,2.7,0.4,4c0,1.4-0.1,2.8-0.7,4.1c-0.6,1.3-1.5,2.4-2.5,3.3
				c-1,0.9-2.1,1.8-3.1,2.6c-1,0.9-2,1.8-2.7,2.9c-0.7,1.1-1.2,2.3-1.4,3.6c-0.5,2.6,0.2,5.4,1.8,7.5c-1.7-2.1-2.5-4.9-2.1-7.6
				c0.2-1.3,0.6-2.7,1.4-3.8c0.7-1.2,1.7-2.1,2.7-3c2-1.8,4.3-3.3,5.3-5.8c1-2.4,0.5-5.1,0.2-7.8c-0.1-1.3-0.2-2.7,0-4.1
				c0.2-1.4,0.7-2.7,1.3-3.9c1.3-2.4,3.1-4.5,5-6.4c1.9-1.9,3.8-3.8,5.3-5.9C224.5,207,225.6,204.5,225.7,201.8z"/>
		</g>
		<g>
			<path class="st1" d="M223.5,199.5c-1.1,2.7-3.3,4.9-5.6,6.7c-2.3,1.8-4.9,3.2-7.3,4.8c-2.4,1.6-4.7,3.3-6.5,5.6
				c-1.7,2.2-2.9,5-2.7,8c-0.3-1.4-0.1-2.9,0.3-4.3c0.4-1.4,1.1-2.7,2-3.9c1.7-2.4,4.1-4.2,6.5-5.9c2.5-1.6,5-3,7.3-4.7
				C219.9,204,222,202,223.5,199.5z"/>
		</g>
		<g>
			<path class="st1" d="M201.8,226.9c1.1,1.4,1.6,3.3,1.6,5.1c0,1.8-0.5,3.6-1.1,5.3c-1.3,3.4-3.4,6.4-4.1,9.9
				c-0.4,1.7-0.4,3.5,0.1,5.2c0.4,1.7,1.2,3.3,2.2,4.8c2,2.9,4.8,5.2,7.6,7.5c-2.9-2-5.9-4.2-8.1-7.2c-1.1-1.5-1.9-3.1-2.4-4.9
				c-0.5-1.8-0.5-3.7-0.1-5.5c0.8-3.6,2.9-6.7,4.3-10c0.7-1.6,1.2-3.4,1.3-5.1C203.2,230.3,202.9,228.4,201.8,226.9z"/>
		</g>
		<g>
			<path class="st1" d="M273.7,52c0.5,1.9,0.9,3.9,1.2,5.8c0.3,2,0.5,4,0.6,5.9c0.1,2,0.1,4-0.1,6c-0.1,2-0.4,4-0.7,5.9
				c0.1-2,0.1-4,0.2-5.9c0-2,0-3.9-0.1-5.9c-0.1-2-0.2-3.9-0.4-5.9C274.2,56,273.9,54,273.7,52z"/>
		</g>
		<g>
			<path class="st1" d="M223.9,135.8c-2.6-3.5-4.4-7.4-5.5-11.6c-1.1-4.2-1.4-8.6-0.9-12.9c0.5-4.3,1.9-8.5,3.9-12.3
				c2.1-3.8,4.8-7.2,8.1-10c-3.1,3-5.7,6.4-7.6,10.3c-1.9,3.8-3.2,7.9-3.7,12.1c-0.5,4.2-0.3,8.5,0.7,12.7
				C219.9,128.2,221.6,132.2,223.9,135.8z"/>
		</g>
		<g>
			<path class="st1" d="M333.7,131.7c0.4-4.5,0.2-9-0.4-13.5c-0.7-4.4-1.8-8.8-3.5-13c-1.6-4.2-3.8-8.2-6.3-11.9
				c-2.5-3.7-5.5-7.1-8.9-10.1c3.6,2.8,6.7,6.1,9.4,9.8c2.7,3.7,4.8,7.7,6.5,11.9c1.6,4.2,2.8,8.7,3.4,13.2
				C334.4,122.7,334.3,127.2,333.7,131.7z"/>
		</g>
	</g>
</g>
<g id="coiffure_x5F_17">
</g>
</svg>
