<?xml version="1.0" encoding="utf-8"?>
<!-- Generator: Adobe Illustrator 24.2.3, SVG Export Plug-In . SVG Version: 6.00 Build 0)  -->
<svg version="1.1" id="coiffure_x5F_6" xmlns="http://www.w3.org/2000/svg" xmlns:xlink="http://www.w3.org/1999/xlink" x="0px"
	 y="0px" viewBox="0 0 553 574" style="enable-background:new 0 0 553 574;" xml:space="preserve">
<style type="text/css">
	.st0{fill:#854721;}
	.st1{fill:#341810;}
	.st2{fill:#6D391B;}
	.st3{fill:#63331A;}
</style>
<g>
	<g>
		<g>
			<g>
				<path class="st0" d="M343.4,136.6c0.5-8.7,0.8-20-0.1-28.7c-0.9-8.7-2.7-18.6-7.5-25.9c-5.4-8.3-13.6-14.5-22.5-19.1
					c-10.7-5.6-23.6-9.3-33.8-6.1c-2.3,0.7-4.3,2.3-6.7,2.4c-2.2,0.2-4.4-0.7-6.5-1.3c-12.2-3.6-22.5,2.4-32.8,9.8
					s-17.2,18.7-20.6,30.8s-3.2,28.9-0.8,40.9c4.1,0.7,3.5-2.3,4.4,1.7c0.9,4,0.3,8.2,0,12.3s-0.3,8.4,1.8,12
					c1.3,2.4,3.5,4.2,5.1,6.4c3.8,4.9,5.2,11.6,3.6,17.5c3.3-6,3.9-13.4,1.6-19.8c-1.3-3.5-3.3-6.6-4.8-9.9
					c-1.5-3.3-2.6-7.1-1.7-10.7c0.9-3.6,0.3-6.7,1.2-10.3c1.4-5.3,2.1-10.7,2.2-16.1c0.1-7.3,5.3-13.8,11.5-17.9s13.4-6.4,20.3-9.3
					c6.8-3,13.6-6.9,16.9-13.3c5.9,7.1,14,12.2,22,16.9c8.1,4.6,16.5,9,23.6,14.9s13.2,13.7,14.3,22.8c0-2.1,1.7-3.9,3.6-4.8
					C339.7,130.7,341,136.3,343.4,136.6z"/>
				<path class="st1" d="M343.4,136.6c0.3-5.2,0.5-10.4,0.5-15.6c0-5.2-0.2-10.4-0.9-15.5c-0.6-5.1-1.6-10.3-3.3-15.2
					c-0.9-2.4-1.9-4.8-3.2-7.1c-1.3-2.2-2.9-4.3-4.6-6.3c-3.4-3.9-7.5-7.2-11.8-10c-4.4-2.8-9-5.3-13.8-7.2c-4.8-1.9-9.9-3.4-15-3.9
					c-5.1-0.5-10.5,0-15.1,2.5c-1.2,0.5-2.4,1-3.8,1c-1.3,0-2.6-0.3-3.9-0.6c-2.5-0.8-5-1.5-7.6-1.7c-5.2-0.4-10.4,0.9-15,3.2
					c-9.2,4.7-18,10.8-23.9,19.4c-6,8.5-9.7,18.5-10.8,28.8c-0.6,5.1-0.8,10.3-0.6,15.5c0.2,5.2,0.7,10.4,1.7,15.4l-0.2-0.2
					c0.6,0.1,1.2,0.1,1.7,0.1c0.3,0,0.6-0.1,0.8-0.2c0.3-0.1,0.5-0.2,0.9-0.3c0.1,0,0.3,0,0.4,0.1c0.1,0.1,0.2,0.2,0.2,0.3
					c0.1,0.2,0.1,0.3,0.2,0.5c0.1,0.3,0.2,0.6,0.2,0.9c0.1,0.6,0.3,1.2,0.4,1.8c0.4,2.4,0.3,4.8,0.1,7.2c-0.2,2.4-0.5,4.8-0.5,7.1
					c0,2.4,0.2,4.8,1.1,7c0.8,2.2,2.4,4,4,5.8c1.6,1.8,3.2,3.7,4.2,5.9c2.1,4.3,2.7,9.4,1.4,14.1l-0.4-0.2
					c2.7-4.9,3.6-10.8,2.5-16.3c-0.5-2.8-1.7-5.4-3-7.8c-1.3-2.5-2.7-5-3.7-7.6c-1-2.7-1.5-5.6-0.8-8.4c0.7-2.7,0.5-5.6,0.8-8.4
					c0.2-1.4,0.6-2.8,0.9-4.1c0.3-1.4,0.6-2.8,0.8-4.1c0.4-2.8,0.7-5.6,0.8-8.4c0-1.4,0.1-2.8,0.4-4.2c0.3-1.4,0.7-2.8,1.3-4
					c1.2-2.6,2.9-4.9,4.9-6.9c4-4.1,9.1-6.8,14.3-9c5.2-2.2,10.6-4.1,15.6-6.6c2.5-1.3,4.9-2.8,7.1-4.6c2.2-1.8,4-4,5.3-6.5l0.1-0.1
					l0.1,0.1c4.5,5.3,10.1,9.6,15.9,13.3c5.9,3.7,12.1,6.9,18,10.5c5.9,3.6,11.8,7.5,16.5,12.6c2.4,2.5,4.5,5.3,6.2,8.4
					c0.8,1.5,1.5,3.1,2.1,4.8c0.5,1.7,0.9,3.4,1.1,5.1l0,0c0-1.2,0.6-2.4,1.4-3.2c0.4-0.4,0.9-0.8,1.4-1.1c0.3-0.2,0.5-0.3,0.8-0.4
					c0.3-0.1,0.6-0.2,0.9-0.1c0.6,0.2,1,0.7,1.4,1.1c0.4,0.5,0.7,1,1,1.5c0.3,0.5,0.7,1,1.1,1.4
					C342.3,136.1,342.8,136.5,343.4,136.6z M343.4,136.6c-0.6-0.1-1.1-0.5-1.5-0.9c-0.4-0.4-0.8-0.9-1.1-1.4c-0.3-0.5-0.7-1-1-1.5
					c-0.4-0.5-0.8-1-1.4-1.1c-0.6-0.2-1.1,0.3-1.7,0.5c-0.5,0.3-1,0.7-1.4,1.1c-0.8,0.9-1.4,2-1.4,3.2l0,0c-0.2-1.7-0.6-3.4-1.2-5.1
					c-0.6-1.6-1.3-3.2-2.1-4.8c-1.7-3.1-3.8-5.8-6.2-8.4c-4.8-5.1-10.6-9-16.5-12.6c-6-3.6-12.1-6.8-18-10.5
					c-5.9-3.7-11.5-7.9-16-13.3l0.1,0c-1.3,2.5-3.2,4.7-5.3,6.5c-2.2,1.8-4.6,3.3-7.1,4.6c-5,2.6-10.4,4.4-15.6,6.7
					c-5.2,2.2-10.3,4.9-14.2,9c-2,2-3.7,4.3-4.8,6.9c-0.6,1.3-1,2.6-1.3,4c-0.3,1.4-0.3,2.8-0.3,4.2c-0.1,2.8-0.4,5.7-0.8,8.4
					c-0.2,1.4-0.5,2.8-0.8,4.2c-0.3,1.4-0.7,2.7-0.9,4.1c-0.4,2.8-0.1,5.7-0.8,8.4c-0.6,2.7-0.1,5.6,0.9,8.2c1,2.6,2.4,5.1,3.7,7.6
					c1.3,2.5,2.5,5.1,3,7.9c1.1,5.6,0.2,11.6-2.5,16.6l-0.9,1.6l0.5-1.7c1.2-4.6,0.6-9.6-1.4-13.8c-1-2.1-2.5-4-4.1-5.8
					c-1.6-1.8-3.2-3.6-4.1-6c-0.9-2.3-1.1-4.7-1.1-7.1c0-2.4,0.3-4.8,0.5-7.2c0.2-2.4,0.3-4.8-0.1-7.1c-0.1-0.6-0.2-1.2-0.4-1.7
					c-0.1-0.3-0.1-0.6-0.2-0.9c0-0.1-0.1-0.3-0.1-0.4c0-0.1-0.1-0.1-0.1-0.1c0,0,0,0,0,0c-0.2,0.1-0.5,0.2-0.8,0.3
					c-0.3,0.1-0.6,0.2-0.9,0.2c-0.6,0.1-1.2,0-1.8-0.1l-0.2,0l0-0.2c-1-5.1-1.5-10.3-1.7-15.5c-0.2-5.2,0-10.4,0.6-15.6
					C212,98,215.7,88,221.7,79.5c3.1-4.2,6.7-8.1,10.8-11.2c4.2-3.1,8.5-6,13.2-8.3c2.4-1.1,4.8-2,7.4-2.6c2.5-0.6,5.2-0.8,7.8-0.6
					c2.6,0.2,5.2,0.9,7.6,1.7c1.2,0.4,2.5,0.7,3.8,0.6c1.3,0,2.5-0.4,3.7-1c1.2-0.5,2.3-1.2,3.6-1.5c1.2-0.4,2.5-0.7,3.8-0.9
					c2.6-0.4,5.2-0.4,7.8-0.1c5.2,0.5,10.2,2,15.1,3.9c4.8,2,9.4,4.4,13.8,7.2c4.3,2.9,8.4,6.2,11.8,10.1c1.7,2,3.3,4,4.6,6.3
					c1.3,2.2,2.4,4.6,3.2,7.1c1.7,4.9,2.7,10.1,3.3,15.2c0.7,5.2,0.8,10.4,0.8,15.6C343.9,126.2,343.7,131.4,343.4,136.6z"/>
			</g>
			<g>
				<path class="st0" d="M343.2,146c-2.6,2.5-6.4,3.7-10,3.1c2.8,3.5,5.7,7.6,4.8,11.9c-0.6,2.9-2.9,5.4-3.2,8.4
					c-0.2,3,1.7,5.7,3.1,8.4c1.4,2.7,2.2,6.3,0.1,8.5c2.6-1.8,3.6-5.2,3.6-8.4c0-3.2-0.6-6.3-0.5-9.4c0.2-3.8,1.6-7.4,2.6-11.1
					S345.1,149.5,343.2,146z"/>
				<path class="st1" d="M343.2,146c-2.6,2.5-6.4,3.8-10,3.2l0.1-0.2c1.1,1.3,2.1,2.7,3,4.1c0.9,1.4,1.6,3,1.9,4.7
					c0.3,1.7,0.1,3.5-0.6,5c-0.6,1.6-1.6,3-2.1,4.6c-0.6,1.6-0.6,3.3-0.1,4.8c0.5,1.6,1.4,3,2.2,4.5c0.8,1.5,1.6,3.1,1.8,4.8
					c0.3,1.7,0,3.6-1.3,4.9l-0.3-0.4c1.4-1,2.3-2.5,2.9-4.1c0.5-1.6,0.7-3.4,0.7-5.1c-0.1-3.5-0.8-7-0.2-10.5
					c0.6-3.5,1.9-6.8,2.6-10.2C344.7,152.9,344.8,149.2,343.2,146z M343.2,146c1.6,3.1,1.6,6.9,0.9,10.3c-0.7,3.4-2,6.7-2.5,10.2
					c-0.6,3.4,0.1,6.9,0.3,10.4c0.1,1.8-0.1,3.6-0.6,5.2c-0.5,1.7-1.5,3.3-3,4.3l-0.3-0.4c1.1-1.2,1.4-2.9,1.1-4.5
					c-0.2-1.6-0.9-3.2-1.7-4.6c-0.8-1.5-1.7-2.9-2.2-4.6c-0.3-0.8-0.4-1.7-0.4-2.5c0-0.9,0.2-1.7,0.5-2.5c0.6-1.6,1.5-3,2.2-4.6
					c0.7-1.5,0.9-3.2,0.6-4.8c-0.6-3.3-2.7-6.1-4.8-8.7L333,149l0.3,0C336.8,149.6,340.6,148.5,343.2,146z"/>
			</g>
			<g>
				<path class="st0" d="M328.2,185.6c-1.5-4.2-0.5-8.8,1.2-12.8c1.7-4.1,4.2-7.8,5.9-11.9c0.6-1.4,1-2.9,1-4.4s-0.5-3.1-1.8-4.1
					c0.7,3.3-0.5,6.7-2.2,9.7s-3.8,5.7-5.1,8.8C325.5,175.6,325.7,181,328.2,185.6z"/>
				<path class="st1" d="M328.2,185.6c-1-2.8-0.9-5.9-0.3-8.8c0.7-2.9,2-5.6,3.3-8.2c1.4-2.6,2.8-5.2,3.9-7.9c0.5-1.4,1-2.8,0.9-4.2
					c0-1.4-0.6-2.8-1.7-3.7l0.4-0.2c0.6,3-0.3,6.1-1.7,8.7c-1.4,2.7-3.2,5-4.6,7.6c-0.7,1.3-1.3,2.6-1.7,4c-0.4,1.4-0.6,2.9-0.7,4.3
					C326.1,180.1,326.9,183,328.2,185.6z M328.2,185.6c-1.4-2.6-2.3-5.5-2.2-8.5c0-1.5,0.2-3,0.6-4.4c0.4-1.4,1-2.8,1.7-4.1
					c1.4-2.6,3.2-5,4.5-7.6c1.3-2.6,2.2-5.5,1.6-8.4l-0.2-0.7l0.6,0.5c1.2,1,1.8,2.6,1.8,4.1c0,1.5-0.4,3-1,4.4
					c-1.1,2.8-2.6,5.4-4,8c-1.4,2.6-2.7,5.3-3.4,8.1C327.5,179.7,327.3,182.8,328.2,185.6z"/>
			</g>
		</g>
		<g>
			<path class="st1" d="M273.4,82.9c0.2-1.8,0.5-3.5,0.6-5.2c0.1-1.7,0.3-3.5,0.3-5.2c0.1-1.7,0-3.5,0-5.2c-0.1-1.8-0.2-3.5-0.3-5.3
				c0.4,1.7,0.7,3.5,0.9,5.2c0.2,1.8,0.2,3.5,0.2,5.3c-0.1,1.8-0.2,3.5-0.5,5.3C274.3,79.5,273.9,81.2,273.4,82.9z"/>
		</g>
	</g>
	<g>
		<g>
			<path class="st2" d="M261.7,109.6c3.6,0,5.3,5.2,1.1,5.8c-10.5-0.2-24-4.4-32.6,3.5C235.3,106.9,250.7,107.7,261.7,109.6z"/>
			<g>
				<path class="st3" d="M261.7,109.6c0.8,0,1.5,0.2,2.2,0.7c0.6,0.5,1.1,1.1,1.3,1.9c0.2,0.7,0.1,1.6-0.4,2.2
					c-0.5,0.6-1.3,0.9-2,1.1l0,0l0,0c-5.6-0.1-11.2-1.1-16.9-1.1c-2.8,0-5.6,0.2-8.3,0.9c-2.7,0.7-5.2,2-7.3,3.9l-0.8,0.7l0.4-1
					c1.2-2.8,3.1-5.3,5.6-6.9c2.5-1.7,5.4-2.6,8.4-3.1c2.9-0.5,5.9-0.5,8.9-0.4C255.9,108.7,258.8,109.1,261.7,109.6z M261.7,109.6
					c-5.8-1-11.9-1.6-17.7-0.5c-2.9,0.5-5.8,1.5-8.2,3.2c-2.4,1.7-4.3,4.1-5.4,6.8l-0.4-0.3c2.1-2,4.7-3.3,7.5-4
					c2.8-0.7,5.6-0.9,8.4-0.8c2.8,0.1,5.6,0.4,8.4,0.7c2.8,0.3,5.6,0.7,8.4,0.7l0,0c0.8-0.1,1.5-0.4,2-1c0.5-0.6,0.6-1.4,0.4-2.2
					c-0.2-0.7-0.7-1.4-1.3-1.9C263.3,109.9,262.5,109.6,261.7,109.6z"/>
			</g>
		</g>
		<g>
			<path class="st2" d="M291.3,108.9c-3.6,0-5.3,5.2-1.1,5.8c10.5-0.2,24-4.4,32.6,3.5C317.7,106.2,302.3,107,291.3,108.9z"/>
			<g>
				<path class="st3" d="M291.3,108.9c-0.8,0-1.5,0.3-2.2,0.7c-0.6,0.5-1.1,1.1-1.3,1.9c-0.2,0.7-0.1,1.6,0.4,2.2
					c0.5,0.6,1.2,0.9,2,1l0,0c2.8-0.1,5.6-0.4,8.4-0.7c2.8-0.3,5.6-0.6,8.4-0.7c2.8-0.1,5.7,0.1,8.4,0.8c2.8,0.7,5.4,2.1,7.5,4
					l-0.4,0.3c-1.1-2.7-3-5.1-5.4-6.8c-2.4-1.7-5.3-2.7-8.2-3.2C303.1,107.4,297.1,108,291.3,108.9z M291.3,108.9
					c2.9-0.5,5.9-0.9,8.9-1.1c3-0.2,6-0.1,8.9,0.4c2.9,0.5,5.9,1.4,8.4,3.1c2.5,1.7,4.4,4.2,5.6,6.9l0.4,1l-0.8-0.7
					c-2-1.9-4.6-3.2-7.3-3.9c-2.7-0.7-5.5-0.9-8.3-0.9c-5.6,0-11.2,1-16.9,1.1l0,0l0,0c-0.8-0.1-1.5-0.4-2-1.1
					c-0.5-0.6-0.6-1.5-0.4-2.2c0.2-0.7,0.7-1.4,1.3-1.9C289.7,109.2,290.5,108.9,291.3,108.9z"/>
			</g>
		</g>
		<g>
			<path class="st2" d="M258,122.2c-6-4.1-14-2-19.6,1.8c-0.6-0.9-1.9-1.3-2-2.6c-0.1,1.1,0.1,2.5,1.1,3.2c-0.1,0.1-0.3,0.2-0.4,0.2
				c-1.1-0.7-2.3-1.4-2.6-2.8c-0.1,1.3,0.1,2.7,1.2,3.5c-0.3,0.1-0.5,0.2-0.8,0.3c-1.1-0.6-2.2-1.4-2.5-2.7c-0.1,1.4,0.2,3,1.5,3.7
				c0.7,6.9,3.8,13.9,10.8,16.1c-22.5-14.6,7.8-33.2,18.3-13.4C262.4,126.7,260.3,123.7,258,122.2z"/>
			<path class="st2" d="M320.9,122.9c-0.3,1.3-1.4,2.1-2.5,2.7c-0.3-0.1-0.5-0.2-0.8-0.3c1.1-0.8,1.3-2.3,1.2-3.5
				c-0.3,1.4-1.5,2.2-2.6,2.8c-0.1-0.1-0.3-0.2-0.4-0.2c1-0.7,1.2-2,1.1-3.2c-0.1,1.4-1.4,1.8-2,2.6c-7.6-5.9-21.8-6-24.5,5
				c10.8-19.5,40.6-0.5,18.2,13.9c7.1-2.2,10.2-9.3,10.9-16.2C320.7,126,321,124.3,320.9,122.9z"/>
		</g>
	</g>
</g>
</svg>
