<?xml version="1.0" encoding="utf-8"?>
<!-- Generator: Adobe Illustrator 24.2.3, SVG Export Plug-In . SVG Version: 6.00 Build 0)  -->
<svg version="1.1" id="coiffure_x5F_7" xmlns="http://www.w3.org/2000/svg" xmlns:xlink="http://www.w3.org/1999/xlink" x="0px"
	 y="0px" viewBox="0 0 553 574" style="enable-background:new 0 0 553 574;" xml:space="preserve">
<style type="text/css">
	.st0{fill:#854721;}
	.st1{fill:#341810;}
	.st2{fill:#FFFFFF;}
	.st3{fill:#6D391B;}
	.st4{fill:#63331A;}
	.st5{fill:none;stroke:#341810;stroke-width:0.75;stroke-miterlimit:10;}
</style>
<g>
	<g>
		<path class="st0" d="M212.1,139.4c2.7,2.2,9.3,11.6,12.5,9.9c0.4,8.7,4.3,19.7,10.3,26c6,6.2,11,11.8,19,14.9c4,1.6,8,2.4,9.3,6.6
			c1.9,6.1-0.9,7.6-4.2,9.1c-3.3,1.5-7.4,2-11,1.4s-6-1.1-9.7-0.8c-5.8,0.5-14.1,6.2-16.7,11.5c-1.4,2.9-1.7,3.3-4,5.3
			c-1.7,1.5-4.4,1.2-6.7,1.4c-6.7,0.8-13.6,0.1-19.5-2.2c8-10.2,10.6-23.7,12.9-36.7C206.5,174.3,210.1,151.2,212.1,139.4z"/>
		<g>
			<path class="st1" d="M212.1,139.4c1.1,0.9,2,1.9,2.9,3c0.9,1,1.8,2.1,2.8,3c1,1,2,2,3.1,2.8c0.6,0.4,1.1,0.8,1.8,1
				c0.6,0.3,1.4,0.4,2,0l0.1,0l0,0.1c0.2,3.1,0.7,6.3,1.6,9.3c0.9,3,2,6,3.4,8.8c1.4,2.8,3.2,5.5,5.3,7.7c2.2,2.3,4.4,4.6,6.7,6.7
				c2.3,2.1,4.8,4.2,7.5,5.8c1.3,0.8,2.8,1.5,4.2,2.1c1.4,0.6,3,1.1,4.4,1.7c1.5,0.6,2.9,1.3,4.1,2.5c0.6,0.6,1,1.3,1.3,2
				c0.3,0.8,0.5,1.5,0.7,2.3c0.3,1.5,0.4,3.3-0.5,4.7c-0.9,1.4-2.4,2.2-3.8,2.9c-2.9,1.4-6.1,2-9.3,1.9c-1.6-0.1-3.2-0.4-4.7-0.6
				c-1.6-0.2-3.1-0.4-4.7-0.4c-1.6,0-3.1,0.1-4.6,0.5c-1.5,0.4-2.9,1-4.3,1.8c-2.8,1.5-5.3,3.4-7.4,5.7c-1.1,1.2-2,2.4-2.6,3.8
				c-0.3,0.7-0.7,1.4-1.1,2.1c-0.4,0.7-1,1.3-1.6,1.8c-0.6,0.5-1.1,1.1-1.9,1.5c-0.7,0.4-1.5,0.6-2.3,0.7c-1.6,0.2-3.2,0.2-4.7,0.4
				c-6.3,0.6-12.8,0-18.7-2.3l-0.2-0.1l0.2-0.2c4.4-5.7,7.2-12.4,9.2-19.3c1.9-6.9,3.1-14,4.4-21.1L212.1,139.4z M212.1,139.4
				c-2.4,14.2-4.5,28.5-6.9,42.7c-1.2,7.1-2.4,14.2-4.3,21.2c-1.9,6.9-4.7,13.7-9.2,19.5l-0.1-0.3c5.9,2.3,12.3,2.9,18.5,2.3
				c1.6-0.2,3.2-0.2,4.7-0.4c0.8-0.1,1.5-0.3,2.2-0.7c0.6-0.4,1.2-1,1.8-1.5c0.6-0.5,1.1-1.1,1.5-1.8c0.4-0.7,0.7-1.4,1.1-2.1
				c0.7-1.4,1.6-2.8,2.7-4c2.2-2.4,4.7-4.3,7.6-5.8c1.4-0.7,2.9-1.4,4.4-1.8c1.6-0.4,3.2-0.5,4.8-0.5c1.6,0,3.2,0.2,4.7,0.5
				c1.6,0.2,3.1,0.6,4.7,0.6c3.1,0.1,6.3-0.5,9.1-1.8c1.4-0.6,2.9-1.4,3.6-2.7c0.8-1.3,0.7-3,0.4-4.5c-0.2-0.8-0.4-1.5-0.6-2.2
				c-0.3-0.7-0.7-1.4-1.2-1.9c-1-1.1-2.5-1.8-3.9-2.4c-1.5-0.6-3-1.1-4.4-1.7c-1.5-0.6-2.9-1.3-4.2-2.2c-2.7-1.6-5.2-3.7-7.5-5.8
				c-2.3-2.2-4.5-4.5-6.6-6.8c-2.2-2.3-3.9-5-5.3-7.8c-1.4-2.8-2.5-5.8-3.4-8.9c-0.8-3-1.4-6.2-1.5-9.3l0.1,0c-0.6,0.3-1.4,0.2-2,0
				c-0.6-0.3-1.2-0.6-1.8-1.1c-1.1-0.8-2.1-1.8-3.1-2.8c-1-1-1.9-2-2.8-3.1C214.1,141.3,213.2,140.3,212.1,139.4z"/>
		</g>
	</g>
	<g>
		<path class="st0" d="M343.9,139c-2.7,2.7-6.7,10.1-10.4,9.4c-0.6,9.5-7.7,19.6-13.4,26.6c-6.3,7.7-14.2,10.4-23.2,14.5
			c-3.5,1.6-7.4,3.3-8.1,7c-0.7,3.8,2.7,8.8,6.3,10c3.6,1.3,9.6,0.9,13.4,0.3c3.8-0.6,5.4-0.8,9.1,0.3c5,1.5,10,5.9,13.5,11
			c3.5,5.1,7.6,10.5,13.7,11.6c6.2,1.1,12.2-2.6,16.6-5.8c-8.8-9.8-11.8-23.3-12.8-36.4C347.6,174.6,345.7,152.2,343.9,139z"/>
		<g>
			<path class="st1" d="M343.9,139c-0.8,0.9-1.6,1.8-2.3,2.8c-0.7,1-1.5,1.9-2.2,2.9c-0.8,0.9-1.6,1.8-2.5,2.6
				c-0.9,0.7-2.1,1.4-3.3,1.2l0.1,0c-0.2,3.3-1.1,6.5-2.4,9.6c-1.3,3.1-2.9,6-4.7,8.7c-1.8,2.8-3.8,5.4-5.9,8
				c-2.1,2.6-4.5,4.9-7.2,6.8c-5.5,3.8-11.8,6-17.8,8.8c-1.5,0.7-3,1.5-4.2,2.5c-1.3,1-2.2,2.5-2.3,4.1c-0.2,1.6,0.3,3.2,1.1,4.6
				c0.8,1.4,1.8,2.7,3.1,3.7c0.6,0.5,1.4,0.9,2.1,1.1c0.8,0.3,1.6,0.4,2.4,0.5c1.6,0.2,3.3,0.3,4.9,0.2c1.6,0,3.3-0.2,4.9-0.4
				c1.6-0.2,3.3-0.5,4.9-0.6c1.7-0.1,3.4,0.2,5,0.7c1.6,0.4,3.2,1.2,4.6,2c2.9,1.7,5.3,4,7.5,6.6c1.1,1.3,2,2.7,2.9,4
				c1,1.3,1.9,2.7,3,3.9c2.1,2.5,4.7,4.7,7.8,5.7c3.1,1.1,6.5,0.7,9.6-0.4c3.1-1.1,5.9-2.9,8.6-4.8l0,0.3
				c-4.9-5.5-8.1-12.4-10.1-19.5c-1-3.6-1.6-7.2-2.1-10.8c-0.5-3.6-0.7-7.3-1-11c-0.6-7.3-1.2-14.6-1.9-21.9
				C345.5,153.6,344.8,146.3,343.9,139z M343.9,139c1,7.3,1.8,14.6,2.5,21.9c0.7,7.3,1.4,14.6,2,21.9c0.3,3.7,0.5,7.3,1,11
				c0.5,3.6,1.2,7.2,2.2,10.8c2,7,5.1,13.8,10,19.3l0.1,0.2l-0.2,0.1c-2.7,1.9-5.5,3.7-8.6,4.9c-3.1,1.2-6.6,1.5-9.8,0.5
				c-3.2-1.1-5.9-3.3-8-5.8c-1.1-1.2-2.1-2.6-3.1-3.9c-1-1.4-1.9-2.7-2.9-4c-2.1-2.5-4.5-4.8-7.3-6.5c-1.4-0.8-2.9-1.5-4.5-2
				c-1.6-0.5-3.2-0.8-4.8-0.7c-1.6,0.1-3.3,0.4-4.9,0.6c-1.6,0.2-3.3,0.3-5,0.4c-1.7,0-3.3,0-5-0.3c-0.8-0.1-1.6-0.3-2.4-0.6
				c-0.8-0.3-1.5-0.7-2.2-1.2c-1.3-1-2.4-2.4-3.2-3.8c-0.8-1.5-1.3-3.2-1.1-4.9c0.2-1.7,1.2-3.3,2.5-4.3c1.3-1.1,2.8-1.8,4.3-2.5
				c6-2.8,12.3-5,17.7-8.7c2.7-1.8,5.2-4.1,7.2-6.7c2.1-2.6,4.1-5.2,5.9-8c1.8-2.8,3.4-5.6,4.8-8.7c1.3-3,2.2-6.2,2.5-9.5l0,0l0,0
				c1.2,0.2,2.4-0.4,3.3-1.2c0.9-0.8,1.8-1.6,2.5-2.6c0.8-0.9,1.5-1.9,2.2-2.8C342.3,140.8,343,139.8,343.9,139z"/>
		</g>
	</g>
	<g>
		<path class="st0" d="M212.4,140.4c4.4-1.5,7.9-9.6,10.4-5.5c2.5,4.1,2.5,13.6,2.5,18.5s-0.6,9.8,0.1,14.6
			c0.7,4.8,2.8,9.7,7.2,11.4c-4.1-5.6-4-13.3-3.5-20.3c0.5-7,2.3-15.6-1.1-21.7c-4.4-8-0.8-10.9,0.4-12.5c1.6-2.3-0.3-5.4-0.5-8.3
			c-0.3-3.3,1.9-6.4,4.5-8.3c2.6-1.9,5.6-3.1,8.3-4.9c7.2-4.9,11.1-14.7,9.5-23.3c2.4-2.8,6.7-2.6,10-0.9s5.9,4.3,9.2,5.8
			c11.7,5.2,26.1-6.2,37.2,0.3c5.9,3.4,8.5,10.7,10.3,17.5c1.8,6.8,3.5,14.1,8.5,18.8c2,1.9,3.4,3.4,4.3,6.1c1.3,3.6-1,7.4-2.8,10.7
			c-5.6,10.9-4.4,24.8,1.7,35.5c-2.2-5.9-2.2-12.6-0.8-18.8c1.4-6.2,0.3-15,3.4-17.8c4.1-3.7,12.3,3.9,12.4,3.5
			c2.6-8.4,0.9-35.1-0.5-43c-1-6-6-38.4-47.9-38.3c-1.9,0.4-3.9,0.3-5.8-0.3c2.6-4.2,5.2-8.7,5.5-13.7s-2.3-10.6-7-11.7
			c1.7-2.7,4.8-4.3,7.8-4.2c3.1,0.1,6,1.9,7.6,4.7c-1.2-3.2-4-5.7-7.3-6.5c-3.2-0.7-6.8,0.4-8.9,2.8c-1.4-5.9-6.3-10.7-12-11.6
			c-5.7-1-11.8,1.9-14.9,7.5c-1.7,2.1-1.6,5.1-1.6,7.8s-0.1,5.8-2,7.7c-2-1.8-4.8-2.7-7.4-2.4c-2.6,0.3-5.1,1.8-6.7,4
			c2.3-0.8,4.6-1.3,7-1.5c1.4-0.1,2.9-0.1,4,0.9c1.3,1.3,1.1,3.5,0.9,5.4c-0.2,1.9,0,4.2,1.6,5.2c0.9,1.8,1.8,3.6,2.6,5.5
			c-9.2,1.8-18.3,4.6-26.2,9.7c-7.9,5.1-14.6,12.9-17.2,22.4c-1.9,6.9-1.5,14.4-3.5,21.3c-1,3.5-0.6,6.7-1.3,10.3
			C209.8,126.4,210.1,137.1,212.4,140.4z"/>
		<g>
			<path class="st1" d="M212.4,140.4c1.2-0.4,2.2-1.2,3.1-2.1c0.9-0.9,1.8-1.8,2.7-2.7c0.5-0.4,0.9-0.9,1.4-1.2
				c0.5-0.4,1.1-0.7,1.8-0.6c0.6,0.1,1.1,0.6,1.4,1.2c0.3,0.5,0.6,1.1,0.8,1.7c0.8,2.4,1.2,4.9,1.4,7.5c0.2,2.5,0.3,5.1,0.3,7.6
				c0.1,5.1-0.5,10.1,0,15.2c0.3,2.5,0.9,5,2,7.3c1.1,2.2,2.9,4.3,5.3,5.2l0,0.1c-1.4-1.9-2.3-4-2.9-6.3c-0.6-2.3-0.8-4.6-0.9-6.9
				c-0.1-4.6,0.4-9.3,0.8-13.9c0.2-2.3,0.4-4.6,0.3-6.9c-0.1-2.3-0.4-4.6-1.3-6.8c-0.4-1.1-1.1-2.1-1.5-3.1
				c-0.5-1.1-0.8-2.2-1.1-3.3c-0.2-1.1-0.2-2.3,0.1-3.5c0.3-1.1,0.9-2.2,1.6-3.1c0.4-0.5,0.7-0.9,1-1.4c0.2-0.5,0.3-1.1,0.3-1.7
				c0-1.1-0.3-2.3-0.6-3.4c-0.3-1.1-0.6-2.3-0.5-3.4c0-1.2,0.4-2.3,0.9-3.4c1.1-2.1,2.8-3.8,4.8-5c2-1.3,4.1-2.2,6.1-3.4
				c4-2.4,7-6.1,8.9-10.3c1.8-4.2,2.5-9,1.7-13.5l0-0.1l0,0c1.1-1.3,2.7-2,4.4-2.2c1.7-0.1,3.3,0.2,4.9,0.8c3.1,1.3,5.5,3.6,8.3,5.2
				c2.8,1.7,6.1,2.4,9.4,2.3c3.3-0.1,6.5-0.7,9.7-1.4c3.2-0.7,6.4-1.4,9.7-1.7c3.3-0.3,6.7,0.1,9.6,1.7c3,1.5,5.2,4.2,6.8,7
				c1.6,2.9,2.7,6,3.6,9.2c0.9,3.2,1.6,6.4,2.7,9.5c1,3.1,2.3,6.1,4.3,8.7c1,1.3,2.2,2.4,3.4,3.6c1.1,1.2,2.1,2.6,2.8,4.1
				c0.7,1.5,0.8,3.3,0.4,4.9c-0.4,1.6-1.1,3.1-1.8,4.6c-0.8,1.5-1.5,2.9-2.2,4.4c-0.6,1.5-1.1,3.1-1.5,4.6c-0.8,3.2-1.1,6.4-1,9.7
				c0.2,6.5,2.1,13,5.3,18.7l-0.4,0.2c-1.2-3.2-1.8-6.6-1.8-10c-0.1-3.4,0.5-6.8,1.2-10.1c0.5-3.3,0.5-6.7,0.9-10.1
				c0.2-1.7,0.4-3.4,1.1-5c0.4-0.8,0.9-1.6,1.7-2.1c0.7-0.5,1.7-0.7,2.5-0.7c1.8,0,3.4,0.7,4.9,1.5c1.5,0.8,2.9,1.8,4.3,2.8l0.3,0.2
				l0.1,0.1c0,0,0,0,0,0c0-0.1-0.2,0.2-0.2,0.2l0,0l0.2-0.6c0.1-0.4,0.2-0.8,0.3-1.2c0.2-0.8,0.3-1.7,0.4-2.5c0.2-1.7,0.3-3.4,0.4-5
				c0.3-6.7,0.1-13.5-0.4-20.2c-0.5-6.7-1-13.5-2.8-20c-1.8-6.5-5-12.6-9.6-17.6c-4.5-5-10.4-8.6-16.8-10.8
				c-3.2-1.1-6.5-1.8-9.8-2.3c-3.3-0.5-6.7-0.6-10.1-0.7l0,0c-2,0.4-4,0.3-5.9-0.3l-0.2-0.1l0.1-0.2c1.3-2.1,2.6-4.2,3.6-6.5
				c1-2.2,1.7-4.6,1.9-7.1c0.2-2.4-0.3-4.9-1.5-7.1c-1.1-2.2-3-4-5.4-4.6l-0.2,0l0.1-0.2c1.7-2.7,4.8-4.4,8-4.3
				c3.2,0.1,6.2,2.1,7.7,4.8l-0.3,0.1c-1.1-3.1-3.8-5.5-7-6.3c-3.2-0.8-6.8,0.2-8.9,2.7l-0.2,0.2l-0.1-0.3c-0.7-2.8-2.2-5.5-4.3-7.5
				c-2.1-2-4.7-3.5-7.6-4c-2.9-0.5-5.9,0-8.5,1.4c-2.6,1.3-4.8,3.5-6.2,6l0,0l0,0c-0.8,1-1.2,2.4-1.4,3.7c-0.2,1.3-0.2,2.7-0.2,4
				c0,1.4,0,2.7-0.3,4.1c-0.3,1.3-0.8,2.7-1.8,3.7l-0.1,0.1l-0.1-0.1c-2-1.8-4.7-2.7-7.3-2.4c-2.6,0.3-5.1,1.8-6.6,4l-0.1-0.1
				c1.8-0.6,3.7-1.1,5.5-1.3c0.9-0.1,1.9-0.3,2.8-0.2c0.9,0,2,0.3,2.7,1c0.7,0.7,1,1.7,1,2.6c0.1,1,0,1.9-0.1,2.9
				c-0.1,0.9-0.1,1.9,0.1,2.8c0.2,0.9,0.6,1.8,1.4,2.3l0,0l0,0l2.6,5.5l0,0.1l-0.1,0c-8.7,1.7-17.4,4.3-25,9
				c-7.6,4.6-14,11.4-17.3,19.8c-1.7,4.2-2.2,8.6-2.7,13c-0.2,2.2-0.5,4.4-0.8,6.6c-0.2,1.1-0.4,2.2-0.7,3.3
				c-0.3,1.1-0.6,2.1-0.8,3.2c-0.4,2.2-0.4,4.4-0.6,6.7c-0.1,1.1-0.4,2.2-0.5,3.3c-0.1,1.1-0.2,2.2-0.2,3.3c0,2.2,0.1,4.5,0.4,6.7
				c0.1,1.1,0.3,2.2,0.6,3.3C211.4,138.4,211.8,139.5,212.4,140.4z M212.4,140.4c-0.6-0.9-1-2-1.2-3.1c-0.3-1.1-0.5-2.2-0.6-3.3
				c-0.3-2.2-0.4-4.4-0.4-6.7c0-1.1,0-2.2,0.2-3.3c0.1-1.1,0.4-2.2,0.5-3.3c0.2-2.2,0.2-4.5,0.6-6.7c0.2-1.1,0.6-2.2,0.8-3.2
				c0.3-1.1,0.5-2.2,0.6-3.3c0.4-2.2,0.6-4.4,0.8-6.6c0.5-4.4,1-8.9,2.7-13.1c3.3-8.3,9.7-15.2,17.3-19.8c7.6-4.7,16.3-7.3,25.1-9
				l0,0.1l-2.6-5.4l0,0c-0.8-0.5-1.3-1.5-1.5-2.4c-0.2-0.9-0.2-1.9-0.1-2.9c0.1-0.9,0.2-1.9,0.1-2.8c-0.1-0.9-0.3-1.9-1-2.5
				c-0.7-0.7-1.6-0.9-2.6-0.9c-0.9,0-1.9,0.1-2.8,0.2c-1.9,0.3-3.7,0.7-5.5,1.3l-0.3,0.1l0.2-0.2c1.6-2.2,4.1-3.7,6.8-4.1
				c2.7-0.3,5.5,0.6,7.5,2.4l-0.1,0c0.9-1,1.4-2.3,1.7-3.6c0.3-1.3,0.3-2.7,0.3-4c0-1.4,0-2.7,0.2-4.1c0.2-1.3,0.6-2.7,1.5-3.8l0,0
				c1.4-2.6,3.7-4.8,6.3-6.1c2.6-1.4,5.7-1.9,8.7-1.4c2.9,0.5,5.7,2,7.8,4.1c2.1,2.1,3.7,4.8,4.3,7.7l-0.2-0.1
				c2.2-2.6,5.9-3.6,9.2-2.8c3.3,0.8,6,3.4,7.2,6.5l-0.3,0.1c-1.5-2.7-4.4-4.5-7.4-4.6c-3.1-0.1-6.1,1.6-7.7,4.2l-0.1-0.2
				c2.5,0.6,4.5,2.5,5.6,4.7c1.2,2.2,1.7,4.8,1.5,7.3c-0.2,2.5-0.9,4.9-1.9,7.2c-1,2.3-2.3,4.4-3.6,6.5l-0.1-0.3
				c1.8,0.6,3.8,0.7,5.7,0.3l0,0l0,0c3.4,0.1,6.8,0.2,10.1,0.7c3.4,0.5,6.7,1.2,9.9,2.3c6.4,2.2,12.4,5.9,16.9,10.9
				c4.6,5,7.8,11.2,9.7,17.7c1.9,6.5,2.4,13.4,2.9,20.1c0.4,6.8,0.7,13.5,0.4,20.3c-0.1,1.7-0.2,3.4-0.4,5.1
				c-0.1,0.8-0.2,1.7-0.4,2.5c-0.1,0.4-0.2,0.8-0.3,1.3l-0.2,0.6l0,0c0,0-0.2,0.3-0.3,0.2c-0.1,0-0.1,0-0.2,0
				c-0.1,0-0.1-0.1-0.2-0.1l-0.3-0.2c-1.4-1-2.7-2-4.2-2.8c-1.5-0.8-3-1.4-4.7-1.5c-0.8,0-1.6,0.2-2.3,0.6c-0.7,0.4-1.1,1.1-1.5,1.8
				c-0.7,1.5-0.9,3.2-1.1,4.8c-0.4,3.3-0.4,6.7-0.9,10.1c-0.7,3.3-1.2,6.6-1.2,10c0,3.4,0.6,6.7,1.8,9.9l-0.4,0.2
				c-3.3-5.7-5.1-12.3-5.3-18.9c-0.1-3.3,0.2-6.6,1-9.8c0.4-1.6,0.9-3.2,1.5-4.7c0.6-1.5,1.4-3,2.2-4.4c0.7-1.5,1.4-2.9,1.8-4.5
				c0.4-1.6,0.3-3.2-0.4-4.7c-0.6-1.5-1.6-2.8-2.7-4c-1.1-1.2-2.4-2.3-3.4-3.6c-2-2.6-3.3-5.7-4.3-8.9c-1-3.1-1.8-6.3-2.7-9.5
				c-0.9-3.1-2-6.3-3.6-9.1c-1.6-2.8-3.8-5.4-6.7-6.9c-2.9-1.5-6.2-1.9-9.5-1.7c-3.3,0.2-6.5,1-9.7,1.6c-3.2,0.7-6.4,1.3-9.8,1.4
				c-3.3,0.1-6.7-0.6-9.5-2.3c-2.8-1.7-5.3-3.9-8.3-5.2c-1.5-0.6-3.1-0.9-4.8-0.8c-1.6,0.1-3.2,0.8-4.2,2.1l0-0.1
				c0.8,4.6,0.1,9.4-1.7,13.7c-1.8,4.3-4.9,8-8.9,10.4c-2,1.2-4.1,2.2-6.1,3.4c-1.9,1.2-3.7,2.9-4.7,4.9c-0.5,1-0.9,2.1-0.9,3.3
				c-0.1,1.1,0.2,2.3,0.5,3.4c0.3,1.1,0.6,2.2,0.6,3.4c0,0.6-0.1,1.2-0.3,1.7c-0.2,0.5-0.6,1-1,1.4c-0.7,0.9-1.3,1.9-1.6,3
				c-0.3,1.1-0.3,2.3-0.1,3.4c0.2,1.1,0.6,2.2,1.1,3.3c0.5,1.1,1.1,2,1.5,3.1c0.9,2.2,1.2,4.5,1.3,6.8c0.1,2.3-0.1,4.6-0.3,7
				c-0.5,4.6-0.9,9.2-0.8,13.9c0.1,4.6,1,9.4,3.7,13.1l0.1,0.1l-0.1,0c-2.4-0.9-4.2-3-5.3-5.2c-1.1-2.3-1.7-4.8-2-7.3
				c-0.5-5.1,0.1-10.1,0-15.2c0-2.5-0.1-5.1-0.3-7.6c-0.2-2.5-0.5-5.1-1.4-7.5c-0.2-0.6-0.5-1.2-0.8-1.7c-0.3-0.5-0.8-1.1-1.4-1.2
				c-0.6-0.1-1.2,0.2-1.8,0.6c-0.5,0.4-1,0.8-1.4,1.2c-0.9,0.9-1.8,1.8-2.7,2.7C214.6,139.2,213.6,140,212.4,140.4z"/>
		</g>
	</g>
	<g>
		<g>
			<path class="st2" d="M297.3,54c0.3-2-1.8-3.5-3.7-3.6c-1.9-0.1-3.7,0.8-5.5,1.4c-3.1,1-6.4,1-9.5,0.1c-1.6-0.5-3.3-1.2-4.9-0.9
				c-1.7,0.3-3.1,1.7-4.8,2.1c-2.9,0.8-5.8-1.1-8.7-1.8c-2.2-0.6-4.6-0.5-6.6,0.5c-2,1-3.6,3.1-3.8,5.5c-0.2,2.4,1.2,4.9,3.3,5.6
				c2,0.7,4.2-0.2,6.2-0.9c2.7-0.9,5.7-1.6,8.4-0.6c2.4,0.9,4.4,3,6.9,3.3c3.3,0.3,6-2.7,9.2-3.5c1.7-0.4,3.5-0.2,5.2,0.1
				c1.7,0.3,3.5,0.6,5.2,0.3c1.7-0.3,3.5-1.2,4.3-2.8C299.2,57.2,298.8,54.9,297.3,54z"/>
			<path d="M297.3,54c0.2-1.2-0.6-2.4-1.7-3c-0.5-0.3-1.1-0.5-1.7-0.6c-0.6-0.1-1.2,0-1.8,0.1c-1.2,0.2-2.3,0.7-3.4,1.1
				c-1.1,0.4-2.3,0.7-3.5,0.9c-2.4,0.3-4.9,0.1-7.2-0.7c-1.1-0.4-2.3-0.8-3.4-0.8c-1.2-0.1-2.3,0.4-3.3,1c-1,0.6-2.1,1.2-3.4,1.4
				c-1.2,0.1-2.5-0.1-3.6-0.5c-2.3-0.8-4.5-1.9-6.8-1.8c-2.3-0.1-4.7,0.9-6.2,2.7c-0.7,0.9-1.2,2-1.4,3.1c-0.2,1.1,0,2.3,0.6,3.3
				c0.5,1,1.3,1.9,2.4,2.3c1.1,0.4,2.3,0.4,3.4,0.1c1.1-0.3,2.3-0.7,3.4-1.1c1.1-0.4,2.3-0.7,3.5-0.8c1.2-0.1,2.5-0.1,3.6,0.2
				c1.2,0.3,2.3,0.9,3.3,1.6c1,0.6,2,1.3,3.1,1.7c1.1,0.4,2.3,0.3,3.4,0c2.2-0.7,4.1-2.3,6.5-3.1c2.4-0.7,4.8-0.1,7.2,0.2
				c1.2,0.2,2.4,0.3,3.6,0.1c1.2-0.2,2.3-0.6,3.2-1.4c0.9-0.8,1.5-1.9,1.5-3.1C298.8,55.9,298.4,54.6,297.3,54z M297.3,54
				c1,0.7,1.5,1.9,1.5,3.1c0,1.2-0.6,2.4-1.5,3.2c-0.9,0.8-2.1,1.3-3.3,1.4c-1.2,0.2-2.4,0.1-3.6-0.1c-2.4-0.3-4.8-0.9-7.1-0.2
				c-2.3,0.7-4.1,2.3-6.5,3.1c-1.2,0.4-2.5,0.4-3.6,0c-1.2-0.4-2.2-1.1-3.2-1.7c-1-0.6-2-1.2-3.2-1.5c-1.1-0.3-2.3-0.3-3.5-0.2
				c-1.2,0.1-2.3,0.4-3.5,0.8c-1.1,0.4-2.2,0.8-3.4,1.1c-1.2,0.3-2.5,0.4-3.7-0.1c-1.2-0.5-2.1-1.4-2.7-2.5
				c-0.6-1.1-0.8-2.4-0.6-3.6c0.2-1.2,0.7-2.4,1.5-3.3c1.6-2,4.1-2.9,6.5-2.9c2.5,0,4.7,1.2,7,1.9c1.1,0.4,2.3,0.6,3.5,0.5
				c1.2-0.1,2.2-0.7,3.2-1.3c1-0.6,2.2-1.2,3.5-1.1c1.2,0.1,2.4,0.5,3.5,0.9c2.3,0.7,4.7,1,7,0.7c1.2-0.1,2.3-0.4,3.5-0.8
				c1.1-0.4,2.2-0.8,3.4-1.1c0.6-0.1,1.2-0.1,1.8-0.1c0.6,0.1,1.2,0.3,1.7,0.6C296.7,51.6,297.5,52.7,297.3,54z"/>
		</g>
		<g>
			<path class="st1" d="M287.8,34c-2.3-0.7-4.5-1.2-6.9-1.4c-2.3-0.2-4.6-0.3-7,0c-2.3,0.2-4.6,0.6-6.8,1.3
				c-2.2,0.7-4.4,1.5-6.5,2.6c1.9-1.3,4.1-2.4,6.3-3.1c2.2-0.8,4.6-1.3,6.9-1.5c2.4-0.2,4.8-0.1,7.1,0.2
				C283.4,32.4,285.7,33.1,287.8,34z"/>
		</g>
		<g>
			<path class="st1" d="M256.7,42.2c-0.4,0.6-0.7,1-1.1,1.5c-0.4,0.5-0.7,1-1.1,1.5c-0.1-0.7,0.1-1.4,0.5-1.9
				C255.5,42.7,256,42.3,256.7,42.2z"/>
		</g>
		<g>
			<path class="st1" d="M287.8,33.6c-0.3-0.6-0.4-1-0.5-1.5c-0.1-0.5-0.3-1-0.4-1.6c0.6,0.3,0.9,0.8,1.1,1.4
				C288.1,32.5,288.1,33.1,287.8,33.6z"/>
		</g>
		<g>
			<path class="st1" d="M250,79.7c-1.9-0.9-3.4-2.5-4.4-4.3c-1-1.8-1.5-4-1.3-6.1c0.4,2,1,3.9,2,5.7C247.2,76.8,248.5,78.4,250,79.7
				z"/>
		</g>
		<g>
			<path class="st1" d="M301.7,83.4c1.8-1.1,3.2-2.6,4.2-4.3c1.1-1.7,1.7-3.6,2-5.7c0.3,2.1-0.2,4.3-1.4,6.1
				C305.4,81.4,303.7,82.9,301.7,83.4z"/>
		</g>
		<g>
			<path class="st1" d="M274.7,86.4c-0.1-1.8-0.1-3.6-0.1-5.3c0-1.8,0-3.5,0.1-5.3c0.1-1.8,0.1-3.5,0.2-5.3c0.1-1.8,0.2-3.5,0.4-5.3
				c0.1,1.8,0.1,3.6,0.1,5.3c0,1.8,0,3.5-0.1,5.3c-0.1,1.8-0.1,3.5-0.2,5.3C275,82.9,274.9,84.6,274.7,86.4z"/>
		</g>
		<g>
			<path class="st3" d="M258,122.2c-6-4.1-14-2-19.6,1.8c-0.6-0.9-1.9-1.3-2-2.6c-0.1,1.1,0.1,2.5,1.1,3.2c-0.1,0.1-0.3,0.2-0.4,0.2
				c-1.1-0.7-2.3-1.4-2.6-2.8c-0.1,1.3,0.1,2.7,1.2,3.5c-0.3,0.1-0.5,0.2-0.8,0.3c-1.1-0.6-2.2-1.4-2.5-2.7c-0.1,1.4,0.2,3,1.5,3.7
				c0.7,6.9,3.8,13.9,10.8,16.1c-22.5-14.6,7.8-33.2,18.3-13.4C262.4,126.7,260.3,123.7,258,122.2z"/>
			<path class="st3" d="M320.9,122.9c-0.3,1.3-1.4,2.1-2.5,2.7c-0.3-0.1-0.5-0.2-0.8-0.3c1.1-0.8,1.3-2.3,1.2-3.5
				c-0.3,1.4-1.5,2.2-2.6,2.8c-0.1-0.1-0.3-0.2-0.4-0.2c1-0.7,1.2-2,1.1-3.2c-0.1,1.4-1.4,1.8-2,2.6c-7.6-5.9-21.8-6-24.5,5
				c10.8-19.5,40.6-0.5,18.2,13.9c7.1-2.2,10.2-9.3,10.9-16.2C320.7,126,321,124.3,320.9,122.9z"/>
		</g>
		<g>
			<g>
				<path class="st3" d="M261.7,109.6c3.6,0,5.3,5.2,1.1,5.8c-10.5-0.2-24-4.4-32.6,3.5C235.3,106.9,250.7,107.7,261.7,109.6z"/>
				<g>
					<path class="st4" d="M261.7,109.6c0.8,0,1.5,0.2,2.2,0.7c0.6,0.5,1.1,1.1,1.3,1.9c0.2,0.7,0.1,1.6-0.4,2.2
						c-0.5,0.6-1.3,0.9-2,1.1l0,0l0,0c-5.6-0.1-11.2-1.1-16.9-1.1c-2.8,0-5.6,0.2-8.3,0.9c-2.7,0.7-5.2,2-7.3,3.9l-0.8,0.7l0.4-1
						c1.2-2.8,3.1-5.3,5.6-6.9c2.5-1.7,5.4-2.6,8.4-3.1c2.9-0.5,5.9-0.5,8.9-0.4C255.9,108.7,258.8,109.1,261.7,109.6z M261.7,109.6
						c-5.8-1-11.9-1.6-17.7-0.5c-2.9,0.5-5.8,1.5-8.2,3.2c-2.4,1.7-4.3,4.1-5.4,6.8l-0.4-0.3c2.1-2,4.7-3.3,7.5-4
						c2.8-0.7,5.6-0.9,8.4-0.8c2.8,0.1,5.6,0.4,8.4,0.7c2.8,0.3,5.6,0.7,8.4,0.7l0,0c0.8-0.1,1.5-0.4,2-1c0.5-0.6,0.6-1.4,0.4-2.2
						c-0.2-0.7-0.7-1.4-1.3-1.9C263.3,109.9,262.5,109.6,261.7,109.6z"/>
				</g>
			</g>
			<g>
				<path class="st3" d="M291.3,108.9c-3.6,0-5.3,5.2-1.1,5.8c10.5-0.2,24-4.4,32.6,3.5C317.7,106.2,302.3,107,291.3,108.9z"/>
				<g>
					<path class="st4" d="M291.3,108.9c-0.8,0-1.5,0.3-2.2,0.7c-0.6,0.5-1.1,1.1-1.3,1.9c-0.2,0.7-0.1,1.6,0.4,2.2
						c0.5,0.6,1.2,0.9,2,1l0,0c2.8-0.1,5.6-0.4,8.4-0.7c2.8-0.3,5.6-0.6,8.4-0.7c2.8-0.1,5.7,0.1,8.4,0.8c2.8,0.7,5.4,2.1,7.5,4
						l-0.4,0.3c-1.1-2.7-3-5.1-5.4-6.8c-2.4-1.7-5.3-2.7-8.2-3.2C303.1,107.4,297.1,108,291.3,108.9z M291.3,108.9
						c2.9-0.5,5.9-0.9,8.9-1.1c3-0.2,6-0.1,8.9,0.4c2.9,0.5,5.9,1.4,8.4,3.1c2.5,1.7,4.4,4.2,5.6,6.9l0.4,1l-0.8-0.7
						c-2-1.9-4.6-3.2-7.3-3.9c-2.7-0.7-5.5-0.9-8.3-0.9c-5.6,0-11.2,1-16.9,1.1l0,0l0,0c-0.8-0.1-1.5-0.4-2-1.1
						c-0.5-0.6-0.6-1.5-0.4-2.2c0.2-0.7,0.7-1.4,1.3-1.9C289.7,109.2,290.5,108.9,291.3,108.9z"/>
				</g>
			</g>
		</g>
		<g>
			<path class="st1" d="M346.9,229.4c-2.3-3.5-4.2-7.2-5.7-11.2c-1.5-3.9-2.6-8-3.4-12.1c-0.7-4.1-1.1-8.3-1-12.5
				c0.1-4.2,0.5-8.4,1.5-12.5c-0.6,4.1-1,8.3-0.9,12.5c0,4.2,0.4,8.3,1.2,12.4c0.7,4.1,1.8,8.1,3.2,12
				C343.1,221.9,344.8,225.7,346.9,229.4z"/>
		</g>
		<path class="st5" d="M332.6,220c-4-13.1-4.4-27.3-1.1-40.6"/>
		<g>
			<path class="st1" d="M314.8,205c-0.9-1.9-1.5-4-1.7-6.1c-0.3-2.1-0.3-4.3,0.2-6.3c0.2,2.1,0.3,4.2,0.6,6.2
				C314,200.8,314.4,202.9,314.8,205z"/>
		</g>
		<path class="st5" d="M298.9,205.5c-1.5-3.4-2.3-7.1-2.3-10.8"/>
		<g>
			<path class="st1" d="M213.5,153.2c-0.4,3-0.5,6-0.4,9c0.1,3,0.4,6,0.8,9c0.8,5.9,2,11.8,3,17.8c0.9,5.9,1.5,12,1.1,18
				c-0.2,3-0.7,6-1.5,8.9c-0.9,2.9-2.1,5.7-3.7,8.2c1.5-2.6,2.6-5.4,3.3-8.3c0.8-2.9,1.2-5.9,1.3-8.9c0.3-6-0.3-12-1.3-17.9
				c-0.9-5.9-2.2-11.8-2.9-17.8c-0.3-3-0.6-6-0.6-9C212.7,159.2,212.9,156.2,213.5,153.2z"/>
		</g>
		<g>
			<path class="st1" d="M232.3,204.3c0.4-1.8,0.8-3.5,1-5.3c0.2-1.8,0.3-3.6,0.3-5.4c0-1.8-0.2-3.6-0.4-5.4
				c-0.3-1.8-0.6-3.5-1.1-5.3c0.8,1.7,1.3,3.4,1.7,5.2c0.4,1.8,0.6,3.6,0.6,5.5c0,1.8-0.1,3.7-0.5,5.5
				C233.5,200.9,233,202.6,232.3,204.3z"/>
		</g>
		<g>
			<path class="st1" d="M241.2,204.8c0.2-1.8,0.4-3.5,0.4-5.2c0.1-1.7,0-3.5,0-5.2c0.6,1.7,0.9,3.5,0.8,5.3
				C242.4,201.4,242,203.2,241.2,204.8z"/>
		</g>
	</g>
</g>
</svg>
