<?xml version="1.0" encoding="utf-8"?>
<!-- Generator: Adobe Illustrator 24.2.3, SVG Export Plug-In . SVG Version: 6.00 Build 0)  -->
<svg version="1.1" id="coiffure_x5F_3" xmlns="http://www.w3.org/2000/svg" xmlns:xlink="http://www.w3.org/1999/xlink" x="0px"
	 y="0px" viewBox="0 0 553 574" style="enable-background:new 0 0 553 574;" xml:space="preserve">
<style type="text/css">
	.st0{fill:#854721;}
	.st1{fill:#341810;}
	.st2{fill:#6D391B;stroke:#63331A;stroke-width:0.5;stroke-miterlimit:10;}
	.st3{fill:#6D391B;}
</style>
<g>
	<g>
		<g>
			<path class="st0" d="M353.4,121.3c2.5-2.7,2.2-7.6-1.8-9.1c2.1-2.3,1.9-7.3-1.8-7.9c2.3-2.6,0.5-7.5-3.5-6.5
				c2.2-2.4,0.4-6.5-3.3-5.5c1.9-1.5,0.5-7-2.1-5c0.8-2.7-1.6-6.7-4.7-5.4c1.6-3.8-1.5-9.3-6-7.7c0.4-2.4-0.9-5-3.3-5.1
				c-0.1-4.9-5.3-9.2-10.1-7.1c-7.5-14.6-23.6-19.5-39.1-18.8c-6.5-1.1-17.3-1.6-20.5,4.7c-5.1-2.2-10.5-4.7-16.9,2.3
				c-2.1,0.8-6.8,0.6-6.1,4.1c-3.6-1.5-4.5,3.8-5.9,6c-1.7,2.1-5.7,3.8-4.5,7.2c-3.4-0.5-6.5,3.1-5.1,6.4c-3.4,0.1-5.2,3.3-4.7,6.6
				c-0.9,0.2-1.8,0.5-2.6,0.7c-0.5,1.2-0.6,2.6,0.3,4.4c-3-0.8-5.5,2.8-3.2,5.4c-4.7,1-2.3,5-3,7.8c-5.1,1.8-3.6,7.2-2.1,11.3
				c-3.4,1.4-4.6,6-1.7,8.8c-3.4,1.5-4.7,6.7-1.9,9.3c-2.7,1.3-3.4,5-1.1,7.3c-2.2,1.3-2.8,4.6-0.9,7.1c-1.8,1.3-2.2,4.2-0.8,6.1
				c-1.9,1.3-2.4,4.3-0.8,6.5c-2.2,1.5-3,4.8-1.6,7.2c-2,1.8-2.4,5.2-1.1,7.1c-0.7,7-4,14.4-2.9,21.3c0.6,1.3,1.9,2.3,1.8,3.7
				c-0.1,1-0.9,1.9-0.5,2.8c2.9,1.9,2,5,2.6,8.2c2.4,5.3,8.8,1.5,7.8-3.7c0,3.2,4.4,2.4,4.4-0.2c-3,6.3,3.1,22.3,9.2,11.1
				c-1,6.2,8,6.7,8.6,0.9c1.4,4.9,5.5-0.6,6.3-3.1c6.1-6.4,17-1.3,25-3.5c14.3-1.3,7.4-14.9-2-17.7c-11.1-4-15.9-11-21.6-21.3
				c-0.9-1.6-3.4-11.6-4.6-13.1c-1.8-2.2-13.1-19-10.3-18.3c2.7,0.8,5.1,2.4,8.1,3.7c-4.3-24.6-1.3-51,28-55.3
				c4-0.5,9.1-1.3,10.4-5.8c4.1,2.2,9.7,0.8,12.5-3c3.5,1.7,7.5,2.3,11.6,1.7c3.8,3.3,9.3,4.5,14.2,3.5c5,8.2,12.3,14.9,20.7,19.2
				c-0.3,6,4.1,11.6,10.2,12.5c0.7,5.3-6.4,31.9,4.6,20.1c2.3-1.7-4.3,21.2-7.5,20.6c-5.5,20.9-21.6,33.4-39.3,39
				c-3.1,2.2-3.1,5.9-1.7,9.5c2.9,6.7,12.8,5.2,18.6,4.4c5.7-1.3,10.9,3,7.5,8.9c-3.3,2.5-3,6.4,0.2,9.1c-5.3,2.3-6.6,18.6,0.9,11
				c1.1-2.2,0.7-5.8,3.7-6.7c0,1.7,0.8,3.5,1.7,4.7c-7.9,13.5,12.1,11.1,5.1-1.8c2.2-1.8,3.3-5,2.8-7.6c1.6,1.8,4.6,3,6,0.3
				c0.2,1.8-0.8,3.5-1.8,5c-10.2,14.7,11,9.4,6.9-2.1c4.1,0,4-5.4,3.2-8.3c2.2-1.6,3.1-4.7,2.1-7.2c3.1,0.2,4.9-3.8,2.8-6.1
				c4.7-0.9,1.9-7.2,3.1-10.3c2-2.4,1.4-4.5,0.4-7.1c0-2.5,3.9-6.1,0.7-8.1c2.5-1.8,2.2-4.7-0.2-7c2.9-1,3.3-5.1,0.6-6.7
				c2.6-1.6,2.9-6.4,0.9-8.3c1.6-2.5,1.2-6-1-8.1c2.5-1.5,2.5-5.7-0.7-6.6c2.8-1.4,3.1-5.2,0.1-7c2.9-1.7,3.3-6,0.4-8.1
				c2.4-2,2.4-6-0.1-8"/>
			<path class="st1" d="M353.4,121.3c1.2-1.3,1.8-3.3,1.5-5.1c-0.1-0.9-0.5-1.8-1.1-2.5c-0.6-0.7-1.4-1.2-2.2-1.5l0,0l0,0
				c1.1-1.2,1.5-2.9,1.3-4.5c-0.1-0.8-0.4-1.6-1-2.2c-0.5-0.6-1.3-1-2.1-1.1l0,0l0,0c1.1-1.2,1.3-3.1,0.6-4.6
				c-0.3-0.7-0.9-1.4-1.7-1.7c-0.8-0.3-1.6-0.3-2.4-0.1l0,0l0,0c0.5-0.5,0.8-1.2,0.9-2c0.1-0.7-0.1-1.5-0.4-2.1
				c-0.4-0.6-1-1.1-1.7-1.4c-0.7-0.2-1.5-0.2-2.2,0l-0.1,0l0.1-0.1c0.5-0.4,0.7-1.1,0.8-1.7c0.1-0.6,0-1.3-0.1-1.9
				c-0.2-0.6-0.5-1.2-1-1.6c-0.5-0.4-1.3-0.2-1.8,0.2l-0.1,0l0-0.1c0.4-1.4,0-3-0.8-4.1c-0.4-0.6-1-1.1-1.7-1.3
				c-0.7-0.3-1.5-0.2-2.1,0.1l-0.1,0l0-0.1c0.8-1.9,0.4-4.2-0.7-5.8c-0.6-0.8-1.4-1.5-2.3-1.9c-1-0.4-2-0.3-3,0l0,0l0-0.1
				c0.2-1.1,0-2.3-0.6-3.3c-0.3-0.5-0.7-0.9-1.1-1.2c-0.5-0.3-1-0.5-1.6-0.5l0,0l0,0c0-2.4-1.3-4.7-3.2-6.1c-1-0.7-2.1-1.2-3.3-1.4
				c-1.2-0.2-2.4,0-3.5,0.5l0,0l0,0c-1.8-3.4-4.1-6.5-6.9-9c-2.8-2.6-6.1-4.6-9.6-6.1c-7-3-14.8-4-22.4-3.6l0,0l0,0
				c-3.7-0.6-7.4-0.9-11.1-0.4c-1.8,0.2-3.7,0.6-5.3,1.4c-1.7,0.8-3.1,2-4,3.7l0,0.1l-0.1,0c-1.4-0.6-2.8-1.3-4.3-1.7
				c-1.5-0.4-3-0.7-4.6-0.5c-1.5,0.1-3,0.7-4.3,1.5c-1.3,0.8-2.5,1.9-3.5,3l0,0l0,0c-1.3,0.4-2.7,0.5-4,1c-0.6,0.2-1.3,0.5-1.7,1.1
				c-0.4,0.5-0.5,1.2-0.3,1.9l0,0.2l-0.1-0.1c-0.7-0.3-1.5-0.4-2.2,0c-0.7,0.4-1.1,1-1.5,1.7c-0.4,0.7-0.7,1.4-1,2.1
				c-0.3,0.7-0.6,1.4-1,2.1l0,0l0,0c-1,1.2-2.3,2-3.3,3.1c-0.5,0.5-1,1.1-1.2,1.8c-0.2,0.7-0.2,1.5,0,2.2l0.1,0.1l-0.2,0
				c-1.6-0.3-3.3,0.5-4.3,1.7c-0.5,0.6-0.9,1.4-1,2.2c-0.1,0.8,0,1.6,0.3,2.4l0.1,0.1l-0.1,0c-0.8,0-1.5,0.2-2.2,0.6
				c-0.7,0.4-1.2,0.9-1.6,1.6c-0.8,1.3-1.1,2.9-0.9,4.4l0,0.1l-0.1,0l-2.6,0.7l0.1-0.1c-0.3,0.7-0.5,1.4-0.4,2.2
				c0.1,0.7,0.3,1.5,0.7,2.1l0.1,0.2l-0.2-0.1c-0.7-0.2-1.4-0.2-2,0.1c-0.6,0.3-1.2,0.7-1.5,1.3c-0.3,0.6-0.5,1.3-0.4,2
				c0.1,0.7,0.4,1.3,0.8,1.8l0.1,0.1l-0.2,0c-0.7,0.2-1.5,0.4-2.1,0.9c-0.6,0.5-0.8,1.3-0.8,2c0,0.8,0,1.5,0.1,2.3
				c0.1,0.8,0.1,1.6-0.1,2.4l0,0.1l-0.1,0c-1,0.4-2,0.9-2.6,1.8c-0.6,0.9-0.9,2-0.9,3c0,2.2,0.7,4.3,1.4,6.3l0,0.1l-0.1,0
				c-1.6,0.7-2.8,2.2-3.1,3.9c-0.2,0.8-0.1,1.7,0.1,2.6c0.3,0.8,0.7,1.6,1.4,2.2l0.1,0.1l-0.2,0.1c-1.6,0.7-2.8,2.4-3.2,4.1
				c-0.2,0.9-0.2,1.8,0,2.7c0.2,0.9,0.7,1.7,1.3,2.3l0.1,0.1l-0.2,0.1c-1.3,0.6-2.2,1.9-2.4,3.2c-0.2,1.4,0.3,2.8,1.3,3.8l0.1,0.1
				l-0.1,0.1c-1.1,0.7-1.8,1.9-1.9,3.2c-0.1,1.3,0.3,2.6,1.1,3.7l0.1,0.1l-0.1,0.1c-0.9,0.6-1.4,1.7-1.6,2.8
				c-0.1,1.1,0.1,2.2,0.8,3.1l0.1,0.1l-0.1,0.1c-1,0.7-1.5,1.8-1.7,3c-0.1,1.2,0.2,2.4,0.9,3.4l0.1,0.1l-0.1,0.1
				c-1.1,0.7-1.8,1.9-2.1,3.2c-0.3,1.3-0.1,2.7,0.6,3.8l0.1,0.1l-0.1,0.1c-0.9,0.8-1.5,2-1.7,3.3c-0.2,1.2-0.1,2.6,0.6,3.6l0,0
				l0,0.1c-0.4,3.6-1.3,7.1-2.1,10.6c-0.8,3.5-1.4,7.1-0.8,10.7l0,0c0.3,0.5,0.6,1,1,1.5c0.3,0.5,0.7,1,0.8,1.6
				c0.2,0.6,0,1.3-0.3,1.8c-0.2,0.6-0.4,1.1-0.2,1.6l-0.1-0.1c0.6,0.4,1.2,1,1.6,1.7c0.4,0.7,0.6,1.4,0.7,2.2c0.2,1.5,0.1,3,0.4,4.5
				l0,0c0.4,1,1.1,1.8,2.1,2.2c1,0.4,2.1,0.2,3-0.3c0.9-0.5,1.6-1.4,2-2.4c0.4-1,0.5-2.1,0.3-3.1l0.3,0c0,0.6,0.2,1.1,0.5,1.5
				c0.4,0.4,0.9,0.5,1.5,0.4c0.5-0.1,1.1-0.3,1.4-0.7c0.4-0.4,0.6-0.9,0.6-1.5l0.3,0.1c-0.8,1.8-0.9,3.8-0.7,5.7
				c0.2,1.9,0.7,3.8,1.5,5.6c0.4,0.9,0.9,1.7,1.6,2.4c0.7,0.7,1.5,1.2,2.5,1.1c0.9-0.1,1.7-0.7,2.4-1.4c0.6-0.7,1.2-1.5,1.6-2.4
				l0.5-0.9l-0.2,1c-0.2,1.1,0,2.3,0.7,3.2c0.7,0.9,1.8,1.4,2.9,1.5c1.1,0.1,2.3-0.2,3.2-1c0.9-0.7,1.4-1.8,1.5-2.9l0.1-0.9l0.3,0.9
				c0.2,0.7,0.6,1.6,1.3,1.8c0.7,0.2,1.5-0.3,2-0.9c0.6-0.6,1.1-1.2,1.5-1.9c0.4-0.7,0.8-1.4,1.1-2.2l0,0l0,0
				c1.5-1.6,3.6-2.6,5.7-3.1c2.1-0.4,4.3-0.4,6.5-0.3c2.2,0.1,4.3,0.3,6.5,0.4c2.1,0.1,4.3,0,6.4-0.6l0,0l0,0
				c2.1-0.2,4.3-0.7,5.9-1.9c0.8-0.6,1.5-1.5,1.8-2.5c0.3-1,0.3-2.1,0.1-3.1c-0.5-2.1-1.6-3.9-3.1-5.5c-1.4-1.6-3.2-2.8-5.1-3.7
				c-0.5-0.2-1-0.4-1.5-0.6c-0.5-0.2-1-0.4-1.5-0.6c-0.5-0.2-1-0.4-1.5-0.6c-0.5-0.2-1-0.4-1.5-0.7c-1.9-1-3.8-2.2-5.4-3.5
				c-3.4-2.7-6.1-6.2-8.4-9.8c-1.2-1.8-2.2-3.7-3.3-5.6c-0.6-0.9-0.9-2-1.2-3l-1-3.1c-0.6-2.1-1.2-4.1-2-6.1c-0.2-0.5-0.4-1-0.7-1.4
				c-0.3-0.4-0.6-0.9-1-1.3c-0.6-0.9-1.2-1.8-1.8-2.7c-2.4-3.6-4.7-7.2-6.8-11c-0.5-1-1-1.9-1.3-3.1c0-0.2,0-0.3,0.1-0.6
				c0.2-0.2,0.5-0.1,0.6-0.1c0.3,0.1,0.5,0.2,0.8,0.2c0.5,0.2,1,0.4,1.5,0.6c2,0.9,3.8,2,5.8,2.8l-0.3,0.3
				c-1.2-6.9-1.8-13.9-1.5-20.8c0.2-3.5,0.7-7,1.6-10.4c0.9-3.4,2.2-6.7,4-9.7c1.8-3,4.2-5.7,6.9-7.8c2.8-2.2,5.9-3.8,9.2-4.9
				c3.3-1.2,6.8-1.8,10.2-2.2c1.7-0.3,3.4-0.7,4.9-1.5c1.5-0.8,2.6-2.2,3.1-3.8l0.1-0.3l0.2,0.1c2,1.1,4.4,1.3,6.6,0.7
				c2.2-0.5,4.3-1.8,5.6-3.6l0.1-0.1l0.2,0.1c3.5,1.8,7.6,2.2,11.5,1.7l0.1,0l0.1,0.1c3.8,3.2,9.2,4.4,14,3.5l0.1,0l0.1,0.1
				c5,8.1,12.2,14.8,20.6,19.2l0.1,0.1l0,0.1c-0.2,2.9,0.8,5.8,2.7,8.1c1.8,2.3,4.5,3.8,7.4,4.3l0.1,0l0,0.1c0.1,1.3,0,2.5-0.1,3.7
				c-0.1,1.2-0.3,2.4-0.4,3.7c-0.3,2.4-0.6,4.9-0.9,7.3c-0.1,1.2-0.2,2.4-0.2,3.7c0,1.2,0.1,2.5,0.5,3.6c0.2,0.5,0.6,1,1.1,1.1
				c0.5,0,1.1-0.2,1.6-0.5c1-0.6,1.9-1.5,2.7-2.4l0,0l0,0c0.1,0,0.1-0.1,0.2-0.1c0.1,0,0.2,0,0.3,0.1c0.1,0.2,0.1,0.3,0.2,0.4
				c0,0.3,0,0.5,0,0.8c0,0.5-0.1,1-0.2,1.5c-0.2,1-0.4,1.9-0.6,2.8c-0.5,1.9-1,3.7-1.7,5.6c-0.6,1.8-1.3,3.6-2.1,5.4
				c-0.4,0.9-0.8,1.7-1.4,2.6c-0.3,0.4-0.5,0.8-0.9,1.2c-0.3,0.3-0.8,0.8-1.4,0.7l0.2-0.1c-1.2,4.7-3.1,9.2-5.5,13.4
				c-2.4,4.2-5.5,8-9,11.3c-7,6.7-15.7,11.4-24.9,14.3l0,0c-0.5,0.4-1,0.8-1.4,1.3c-0.4,0.5-0.7,1.1-0.9,1.7
				c-0.4,1.2-0.4,2.5-0.2,3.8c0.2,1.2,0.6,2.5,1.3,3.6c0.7,1.1,1.6,2,2.8,2.6c2.3,1.2,4.9,1.5,7.5,1.5c2.6,0,5.1-0.4,7.7-0.7l0,0
				c1.3-0.3,2.6-0.3,3.9-0.1c1.3,0.3,2.5,0.9,3.4,1.8c0.9,1,1.4,2.3,1.4,3.6c0,1.3-0.5,2.6-1.1,3.7l0,0l0,0c-0.7,0.5-1.3,1.2-1.7,2
				c-0.4,0.8-0.6,1.6-0.6,2.5c0.1,1.8,1.2,3.3,2.5,4.4l0.1,0.1l-0.2,0.1c-1.4,0.7-2.4,2.1-3,3.5c-0.7,1.5-1.1,3-1.2,4.6
				c-0.1,0.8-0.1,1.6,0,2.4c0.1,0.8,0.4,1.6,1,2c0.7,0.4,1.5,0.2,2.2-0.2c0.7-0.4,1.3-1,1.8-1.5l0,0c0.6-1.2,0.7-2.5,1.1-3.8
				c0.2-0.6,0.5-1.3,0.9-1.8c0.4-0.5,1-0.9,1.7-1.1l0.1,0l0,0.1c0,1.7,0.7,3.3,1.7,4.7l0,0l0,0.1c-1,1.8-2,3.8-1.9,5.9
				c0.1,1,0.6,2.1,1.5,2.6c0.9,0.5,2,0.6,3,0.3c2-0.6,3.5-2.5,3.7-4.6c0.2-2.1-0.5-4.2-1.5-6l0-0.1l0,0c1.1-0.9,1.9-2.1,2.4-3.4
				c0.5-1.3,0.7-2.7,0.4-4.1l0-0.3l0.2,0.2c0.8,0.9,1.8,1.6,3,1.8c0.6,0.1,1.2,0.1,1.7-0.2c0.5-0.3,0.9-0.7,1.2-1.3l0.1-0.2l0,0.2
				c0.1,1.4-0.4,2.7-1.1,3.8c-0.7,1.1-1.5,2.2-2.1,3.4c-0.6,1.2-1.2,2.4-1.4,3.7c-0.1,0.6-0.1,1.3,0.3,1.9c0.3,0.6,0.9,0.9,1.5,1.1
				c1.3,0.2,2.6-0.2,3.8-0.8c1.2-0.6,2.2-1.5,3-2.6c0.8-1.1,1.3-2.3,1.5-3.6c0.2-1.3,0-2.7-0.5-3.9l0-0.1l0.1,0
				c0.8,0,1.7-0.3,2.3-0.9c0.6-0.6,0.9-1.4,1.1-2.2c0.3-1.7,0.2-3.4-0.2-5.1l0,0l0,0c2.2-1.6,3-4.6,2.1-7.1l0-0.1l0.1,0
				c0.7,0,1.4-0.1,2-0.5c0.6-0.4,1-0.9,1.3-1.6c0.3-0.6,0.4-1.3,0.3-2c-0.1-0.7-0.4-1.4-0.8-1.9l-0.1-0.1l0.1,0
				c1-0.2,1.9-0.7,2.3-1.6c0.4-0.9,0.5-1.9,0.5-2.8c0-1-0.1-2-0.1-2.9c0-1,0-2,0.4-2.9l0,0l0,0c0.8-1,1.3-2.2,1.3-3.4
				c0-1.3-0.5-2.5-0.9-3.6l0,0l0,0c0-0.8,0.3-1.5,0.6-2.1c0.3-0.7,0.6-1.3,0.9-2c0.3-0.7,0.5-1.4,0.4-2.2c-0.1-0.7-0.6-1.3-1.3-1.7
				l0,0l0,0c0.5-0.4,1-0.9,1.3-1.5c0.3-0.6,0.4-1.3,0.4-2c-0.1-1.4-0.9-2.6-1.9-3.5l0,0l0,0c0.7-0.2,1.3-0.6,1.7-1.2
				c0.4-0.6,0.7-1.2,0.7-1.9c0.1-1.4-0.6-2.8-1.8-3.5l0,0l0,0c1.3-0.8,2-2.4,2.2-3.9c0.1-0.8,0-1.6-0.1-2.3c-0.2-0.8-0.5-1.5-1.1-2
				l0,0l0,0c1.6-2.5,1.1-6-1-8.1l0,0l0,0c1.2-0.7,1.9-2.2,1.8-3.5c0-0.7-0.3-1.4-0.7-1.9c-0.4-0.5-1.1-0.9-1.7-1.1l0,0l0,0
				c1.3-0.6,2.2-2,2.2-3.4c0-0.7-0.2-1.4-0.6-2c-0.4-0.6-0.9-1.1-1.6-1.5l0,0l0,0c1.4-0.8,2.3-2.3,2.4-3.9c0.1-1.6-0.6-3.2-2-4.1
				l0,0l0,0c1.2-1,1.8-2.5,1.8-4c0-1.5-0.7-3-1.8-4c1.2,0.9,1.8,2.5,1.9,4c0,1.5-0.6,3-1.8,4l0,0c1.3,0.9,2.1,2.5,2,4.1
				c-0.1,1.6-1,3.1-2.4,3.9l0,0c0.6,0.4,1.2,0.9,1.6,1.5c0.4,0.6,0.6,1.3,0.6,2.1c0,1.5-0.9,2.8-2.2,3.5l0,0
				c0.7,0.2,1.3,0.6,1.8,1.1c0.4,0.5,0.7,1.2,0.7,1.9c0.1,1.4-0.6,2.9-1.8,3.6l0,0c2.1,2,2.6,5.6,1,8.1l0,0c0.6,0.5,0.9,1.3,1.1,2
				c0.2,0.8,0.2,1.6,0.1,2.3c-0.2,1.5-0.9,3.1-2.2,4l0,0c1.2,0.7,1.9,2.2,1.8,3.6c-0.1,0.7-0.3,1.4-0.7,2c-0.4,0.6-1,1-1.7,1.2l0,0
				c1,1,1.8,2.2,1.9,3.5c0.1,0.7,0,1.4-0.4,2c-0.3,0.6-0.8,1.1-1.4,1.5l0-0.1c0.6,0.4,1.2,1,1.3,1.8c0.1,0.8-0.1,1.5-0.4,2.2
				c-0.3,0.7-0.6,1.4-0.9,2c-0.3,0.7-0.6,1.4-0.6,2.1l0,0c0.4,1.2,0.9,2.4,0.9,3.7c0,1.3-0.5,2.5-1.3,3.5l0,0
				c-0.4,0.9-0.4,1.9-0.4,2.9c0,1,0.1,2,0.1,2.9c0,1-0.1,2-0.5,2.9c-0.4,0.9-1.4,1.5-2.3,1.6l0-0.1c0.5,0.5,0.8,1.2,0.9,1.9
				c0.1,0.7,0,1.4-0.3,2.1c-0.3,0.6-0.8,1.2-1.4,1.6c-0.6,0.4-1.3,0.6-2,0.5l0-0.1c1,2.5,0.1,5.6-2.1,7.2l0-0.1
				c0.4,1.7,0.6,3.4,0.2,5.1c-0.2,0.8-0.5,1.7-1.1,2.3c-0.6,0.6-1.5,0.9-2.4,0.9l0.1-0.1c0.4,1.3,0.6,2.6,0.5,3.9
				c-0.2,1.3-0.7,2.6-1.5,3.7c-0.8,1.1-1.8,2-3,2.6c-1.2,0.6-2.5,1.1-3.9,0.8c-0.7-0.1-1.3-0.5-1.6-1.1c-0.3-0.6-0.4-1.3-0.3-2
				c0.2-1.3,0.8-2.6,1.4-3.7c0.6-1.2,1.5-2.2,2.1-3.4c0.7-1.1,1.2-2.4,1.1-3.7l0.1,0c-0.3,0.5-0.7,1-1.3,1.3
				c-0.6,0.3-1.2,0.3-1.8,0.2c-1.2-0.2-2.3-0.9-3.1-1.8l0.1-0.1c0.3,1.4,0.1,2.9-0.4,4.2c-0.5,1.3-1.3,2.6-2.4,3.5l0-0.1
				c1,1.9,1.7,4,1.5,6.1c-0.2,2.1-1.8,4.1-3.9,4.7c-1,0.3-2.2,0.3-3.1-0.3c-1-0.5-1.5-1.6-1.6-2.7c-0.1-2.2,0.8-4.2,1.9-6l0,0.1
				c-1-1.4-1.7-3-1.7-4.8l0.1,0.1c-0.6,0.2-1.2,0.6-1.6,1.1c-0.4,0.5-0.7,1.1-0.9,1.8c-0.4,1.3-0.5,2.6-1.2,3.8l0,0l0,0
				c-0.6,0.6-1.2,1.1-1.9,1.5c-0.4,0.2-0.7,0.4-1.1,0.5c-0.4,0.1-0.9,0-1.2-0.2c-0.7-0.5-1-1.4-1.1-2.2c-0.1-0.8-0.1-1.6,0-2.4
				c0.2-1.6,0.6-3.2,1.2-4.7c0.7-1.5,1.6-2.9,3.1-3.6l0,0.2c-1.4-1.1-2.5-2.7-2.6-4.6c-0.1-0.9,0.2-1.8,0.6-2.6
				c0.4-0.8,1.1-1.5,1.8-2l0,0c0.6-1.1,1.1-2.3,1.1-3.6c0-1.3-0.5-2.5-1.4-3.4c-0.9-0.9-2.1-1.5-3.3-1.8c-1.2-0.3-2.5-0.2-3.8,0.1
				l0,0l0,0c-2.6,0.4-5.1,0.7-7.7,0.7c-2.6,0-5.3-0.2-7.6-1.5c-1.1-0.6-2.2-1.5-2.9-2.7c-0.7-1.1-1-2.4-1.3-3.7
				c-0.2-1.3-0.2-2.6,0.2-3.9c0.2-0.6,0.5-1.2,0.9-1.8c0.4-0.5,0.9-1,1.4-1.4l0,0l0,0c9.2-2.9,17.9-7.6,24.8-14.3
				c3.5-3.3,6.5-7.1,8.9-11.3c2.4-4.2,4.3-8.7,5.5-13.3l0-0.1l0.1,0c0.4,0.1,0.8-0.3,1.1-0.6c0.3-0.3,0.6-0.7,0.8-1.1
				c0.5-0.8,0.9-1.7,1.3-2.5c0.8-1.7,1.5-3.6,2.1-5.4c0.6-1.8,1.2-3.7,1.6-5.5c0.2-0.9,0.5-1.9,0.6-2.8c0.1-0.5,0.2-0.9,0.2-1.4
				c0-0.2,0-0.5,0-0.7c0-0.1,0-0.2-0.1-0.2c0,0,0,0-0.1,0.1l0,0c-0.8,0.9-1.7,1.8-2.8,2.4c-0.5,0.3-1.1,0.6-1.8,0.6
				c-0.7-0.1-1.2-0.7-1.4-1.3c-0.5-1.2-0.5-2.5-0.5-3.7c0-1.2,0.1-2.5,0.2-3.7c0.2-2.5,0.5-4.9,0.9-7.3c0.2-1.2,0.3-2.4,0.4-3.6
				c0.1-1.2,0.2-2.4,0.1-3.6l0.1,0.2c-3-0.4-5.7-2.1-7.6-4.4c-1.9-2.3-2.9-5.3-2.8-8.3l0.1,0.2c-8.5-4.4-15.7-11.2-20.7-19.3
				l0.2,0.1c-5,0.9-10.5-0.3-14.4-3.6l0.2,0c-3.9,0.6-8.1,0.1-11.7-1.7l0.3-0.1c-1.4,1.9-3.6,3.2-5.9,3.8c-2.3,0.6-4.8,0.4-6.9-0.7
				L264,79c-0.5,1.7-1.7,3.2-3.3,4.1c-1.6,0.9-3.3,1.3-5,1.6c-3.5,0.4-6.9,1.1-10.1,2.2c-3.3,1.1-6.4,2.8-9.1,4.9
				c-2.7,2.1-5,4.8-6.8,7.7c-1.8,3-3.1,6.2-3.9,9.6c-0.9,3.4-1.3,6.8-1.5,10.3c-0.4,6.9,0.3,13.9,1.5,20.7l0.1,0.5l-0.4-0.2
				c-2-0.9-3.9-2-5.8-2.8c-0.5-0.2-1-0.4-1.5-0.6c-0.2-0.1-0.5-0.2-0.8-0.2c-0.1,0-0.2,0-0.1,0c0,0,0,0.1,0,0.2
				c0.2,1,0.7,1.9,1.2,2.9c2,3.8,4.4,7.4,6.8,11c0.6,0.9,1.2,1.8,1.8,2.7c0.3,0.4,0.6,0.9,1,1.3c0.3,0.5,0.5,1,0.7,1.5
				c0.8,2,1.4,4.1,2,6.1l1,3.1c0.3,1,0.6,2,1.2,2.9c1,1.9,2.1,3.7,3.3,5.6c2.3,3.6,4.9,7,8.3,9.7c1.7,1.3,3.5,2.5,5.4,3.5
				c1.9,1,3.9,1.7,5.9,2.5c2,0.9,3.8,2.2,5.3,3.8c1.5,1.6,2.7,3.5,3.2,5.7c0.2,1.1,0.2,2.2-0.1,3.3c-0.3,1.1-1.1,2-1.9,2.7
				c-1.8,1.3-4,1.8-6.2,2l0,0c-2.1,0.6-4.3,0.6-6.5,0.6c-2.2-0.1-4.3-0.3-6.5-0.4c-2.1-0.1-4.3-0.1-6.4,0.3c-2.1,0.4-4.1,1.4-5.5,3
				l0-0.1c-0.3,0.8-0.7,1.6-1.1,2.3c-0.5,0.7-1,1.4-1.6,2c-0.3,0.3-0.7,0.6-1.1,0.8c-0.4,0.2-0.9,0.3-1.3,0.2
				c-0.5-0.1-0.8-0.5-1.1-0.8c-0.2-0.4-0.4-0.8-0.5-1.2l0.4,0c-0.1,1.2-0.7,2.4-1.7,3.2c-1,0.8-2.2,1.1-3.4,1
				c-1.2-0.1-2.4-0.6-3.2-1.6c-0.8-1-0.9-2.3-0.7-3.5l0.3,0.1c-0.5,0.9-1,1.7-1.7,2.5c-0.7,0.7-1.5,1.4-2.6,1.5
				c-1.1,0.1-2.1-0.4-2.8-1.2c-0.7-0.7-1.2-1.6-1.7-2.5c-0.9-1.8-1.3-3.7-1.6-5.7c-0.2-2-0.1-4,0.7-5.9l0.3-0.7l0,0.8
				c0,0.6-0.2,1.3-0.7,1.7c-0.4,0.4-1,0.7-1.6,0.8c-0.6,0.1-1.3-0.1-1.8-0.5c-0.5-0.5-0.6-1.1-0.6-1.7l0.3,0
				c0.2,1.1,0.1,2.3-0.3,3.3c-0.4,1-1.2,1.9-2.2,2.5c-1,0.6-2.2,0.8-3.3,0.3c-1.1-0.4-1.8-1.4-2.3-2.4l0,0l0,0
				c-0.3-1.5-0.2-3-0.4-4.5c-0.1-0.7-0.3-1.5-0.6-2.1c-0.3-0.6-0.9-1.2-1.5-1.6l0,0l0,0c-0.3-0.7,0-1.3,0.2-1.8
				c0.2-0.6,0.4-1.1,0.2-1.7c-0.3-1.1-1.2-1.9-1.8-3.1l0,0l0,0c-0.5-3.6,0.1-7.3,0.9-10.8c0.8-3.5,1.7-7,2.1-10.6l0,0.1
				c-0.8-1.1-0.9-2.5-0.7-3.8c0.2-1.3,0.8-2.5,1.8-3.4l0,0.2c-0.7-1.2-0.9-2.7-0.6-4c0.3-1.3,1.1-2.6,2.2-3.4l0,0.2
				c-0.7-1-1-2.3-0.9-3.5c0.1-1.2,0.7-2.4,1.8-3.2l0,0.2c-0.7-0.9-1-2.1-0.8-3.3c0.1-1.1,0.7-2.3,1.7-2.9l0,0.2
				c-0.8-1.1-1.3-2.5-1.1-3.9c0.1-1.4,0.9-2.7,2.1-3.4l0,0.2c-1.1-1-1.6-2.6-1.3-4c0.2-1.5,1.2-2.8,2.5-3.4l0,0.2
				c-0.7-0.6-1.2-1.5-1.4-2.4c-0.2-0.9-0.2-1.9,0-2.8c0.4-1.8,1.6-3.5,3.3-4.3l0,0.2c-0.7-0.6-1.2-1.4-1.4-2.3
				c-0.3-0.9-0.3-1.8-0.1-2.7c0.4-1.8,1.6-3.3,3.3-4l-0.1,0.1c-0.7-2.1-1.4-4.2-1.4-6.4c0-1.1,0.3-2.2,0.9-3.2
				c0.6-0.9,1.6-1.5,2.7-1.9l-0.1,0.1c0.4-1.5-0.1-3.1,0-4.7c0-0.8,0.3-1.6,0.9-2.2c0.6-0.6,1.4-0.8,2.2-1l-0.1,0.2
				c-0.5-0.5-0.8-1.2-0.9-1.9c-0.1-0.7,0.1-1.5,0.5-2.1c0.4-0.6,0.9-1.1,1.6-1.4c0.7-0.3,1.4-0.3,2.1-0.1l-0.1,0.1
				c-0.4-0.7-0.6-1.4-0.7-2.2c-0.1-0.8,0.1-1.6,0.4-2.3l0,0l0,0l2.6-0.7l-0.1,0.1c-0.2-1.5,0-3.2,0.9-4.5c0.4-0.7,1-1.2,1.7-1.6
				c0.7-0.4,1.5-0.6,2.3-0.6l-0.1,0.1c-0.3-0.8-0.5-1.6-0.3-2.5c0.1-0.8,0.5-1.6,1-2.3c1-1.3,2.8-2.1,4.5-1.8l-0.1,0.1
				c-0.3-0.7-0.3-1.5,0-2.3c0.3-0.7,0.7-1.4,1.3-1.9c1.1-1.1,2.4-1.9,3.3-3.1l0,0c0.8-1.3,1.2-2.9,2-4.2c0.4-0.7,0.9-1.3,1.6-1.7
				c0.7-0.4,1.6-0.3,2.3,0l-0.1,0.1c-0.1-0.7-0.1-1.5,0.4-2c0.5-0.6,1.1-0.9,1.8-1.1c1.3-0.5,2.7-0.6,4-1l0,0c1.1-1.1,2.2-2.2,3.6-3
				c1.3-0.8,2.8-1.4,4.4-1.5c1.6-0.2,3.1,0.1,4.6,0.6c1.5,0.5,2.9,1.1,4.3,1.7l-0.1,0c0.8-1.7,2.4-3,4-3.8c1.7-0.8,3.5-1.2,5.4-1.4
				c3.7-0.4,7.5-0.1,11.1,0.5l0,0c7.6-0.3,15.4,0.7,22.5,3.7c3.5,1.5,6.8,3.5,9.7,6.1c2.8,2.6,5.2,5.7,7,9.1l-0.1,0
				c1.1-0.5,2.4-0.7,3.6-0.5c1.2,0.2,2.3,0.7,3.3,1.4c1.9,1.4,3.2,3.8,3.3,6.2l0,0c0.6,0,1.2,0.2,1.6,0.5c0.5,0.3,0.9,0.8,1.2,1.3
				c0.6,1,0.8,2.2,0.6,3.3l0,0c1-0.3,2.1-0.4,3,0c1,0.4,1.8,1.1,2.4,1.9c1.1,1.7,1.5,4,0.7,5.9l0,0c0.7-0.3,1.5-0.3,2.2-0.1
				c0.7,0.3,1.3,0.8,1.7,1.4c0.8,1.2,1.2,2.8,0.8,4.2l0,0c0.3-0.2,0.5-0.4,0.9-0.4c0.3-0.1,0.7,0,0.9,0.2c0.5,0.4,0.8,1,1,1.6
				c0.2,0.6,0.2,1.3,0.1,1.9c-0.1,0.6-0.3,1.3-0.9,1.7l0,0c0.7-0.2,1.5-0.2,2.2,0c0.7,0.2,1.3,0.7,1.7,1.4c0.4,0.6,0.5,1.4,0.4,2.1
				c-0.1,0.7-0.4,1.4-0.9,2l0,0c0.8-0.2,1.7-0.2,2.4,0.1c0.8,0.3,1.4,1,1.7,1.7c0.7,1.5,0.5,3.4-0.6,4.6l0,0
				c0.8,0.1,1.6,0.5,2.1,1.1c0.5,0.6,0.9,1.4,1,2.2c0.2,1.6-0.2,3.3-1.3,4.5l0,0c0.9,0.3,1.6,0.8,2.2,1.5c0.6,0.7,0.9,1.6,1.1,2.5
				C355.2,118,354.7,119.9,353.4,121.3z"/>
		</g>
		<g>
			<g>
				<path class="st1" d="M257.3,48.2c-6.2,3.6-12.3,7.3-18,11.6c-5.7,4.3-10.9,9.3-14.7,15.3c-3.9,5.9-6.7,12.6-8.7,19.4l-1.4,5.1
					l-1.3,5.2c-0.7,3.5-1.3,7-2,10.5c-2.9,14-6.1,27.9-8.1,42c-1,7.1-1.8,14.2-2,21.3c-0.3,7.1-0.1,14.3,0.9,21.4
					c-1.1-7.1-1.4-14.2-1.3-21.4c0.2-7.1,0.9-14.3,1.9-21.3c2-14.2,5.1-28.1,7.9-42.1c0.7-3.5,1.4-7,2.1-10.5l1.3-5.2l1.5-5.2
					c2.1-6.8,4.9-13.5,8.9-19.5c3.9-6,9.2-11,14.9-15.3C244.9,55.2,251.1,51.6,257.3,48.2z"/>
			</g>
			<g>
				<path class="st1" d="M211.9,152.9c-0.8,3.9-1.4,7.8-1.9,11.7c-0.5,3.9-0.9,7.8-1.2,11.8c-0.3,3.9-0.6,7.9-0.9,11.8
					c-0.3,3.9-0.6,7.9-1.1,11.8l0.6-11.8c0.2-3.9,0.4-7.9,0.7-11.8c0.4-3.9,0.7-7.9,1.3-11.8C210,160.6,210.8,156.7,211.9,152.9z"/>
			</g>
			<g>
				<path class="st1" d="M217.9,156.2c-0.5,4.5-0.9,9-1.3,13.6c-0.3,4.5-0.6,9.1-0.8,13.6c-0.2,4.5-0.3,9.1-0.3,13.6
					c0,4.5,0.1,9.1,0.2,13.6c-0.4-4.5-0.7-9.1-0.8-13.6c-0.1-4.6,0-9.1,0.1-13.7c0.2-4.5,0.5-9.1,1-13.6
					C216.6,165.2,217.2,160.6,217.9,156.2z"/>
			</g>
			<g>
				<path class="st1" d="M223.7,159.1c-0.1,4.4-0.3,8.8-0.4,13.1c-0.1,4.4-0.1,8.7,0,13.1c0,4.4,0.2,8.7,0.3,13.1
					c0.2,4.4,0.4,8.7,0.7,13.1c-0.6-4.3-1-8.7-1.2-13.1c-0.3-4.4-0.4-8.8-0.5-13.1c0-4.4,0-8.8,0.2-13.1
					C223,167.8,223.2,163.4,223.7,159.1z"/>
			</g>
			<g>
				<path class="st1" d="M232,171.8c-0.2,3-0.4,6.1-0.5,9.1c-0.1,3-0.2,6.1-0.2,9.1c0,3,0.1,6.1,0.2,9.1c0.1,3,0.3,6.1,0.6,9.1
					c-0.5-3-0.9-6-1.2-9.1c-0.3-3-0.4-6.1-0.4-9.1c0-3.1,0.1-6.1,0.3-9.2C231.1,177.8,231.4,174.8,232,171.8z"/>
			</g>
			<g>
				<path class="st1" d="M238.1,180.2c0.2,2.2,0.3,4.3,0.4,6.5c0.1,2.2,0.1,4.3,0.2,6.5c0,2.2,0,4.3,0,6.5c0,2.2-0.1,4.4-0.2,6.5
					c-0.2-2.2-0.3-4.3-0.4-6.5c-0.1-2.2-0.1-4.3-0.2-6.5c0-2.2,0-4.3,0-6.5C237.9,184.6,237.9,182.4,238.1,180.2z"/>
			</g>
			<g>
				<path class="st1" d="M243.2,185.1c0.2,1.8,0.2,3.6,0.3,5.4c0.1,1.8,0.1,3.6,0.1,5.4c0,1.8,0,3.6-0.1,5.4
					c-0.1,1.8-0.1,3.6-0.3,5.4c-0.2-1.8-0.2-3.6-0.3-5.4c-0.1-1.8-0.1-3.6-0.1-5.4c0-1.8,0-3.6,0.1-5.4
					C242.9,188.7,243,186.9,243.2,185.1z"/>
			</g>
			<g>
				<path class="st1" d="M251.2,189.4c0.3,1.4,0.5,2.8,0.7,4.2c0.2,1.4,0.2,2.8,0.2,4.3c0,1.4-0.1,2.9-0.2,4.3
					c-0.1,1.4-0.3,2.8-0.7,4.2l0.1-4.3c0-1.4,0-2.8,0-4.2c0-1.4,0-2.8,0-4.2L251.2,189.4z"/>
			</g>
			<g>
				<path class="st1" d="M259.9,193.2c0.4,1.9,0.5,3.7,0.5,5.6c0,1.9-0.2,3.8-0.7,5.6c-0.1-1.9-0.1-3.8,0-5.6
					C259.7,197,259.8,195.1,259.9,193.2z"/>
			</g>
			<g>
				<path class="st1" d="M213.5,135.8c0.3-3.7,0.3-7.5,0.3-11.2c0-3.7,0.1-7.5,0.8-11.2c0.7-3.7,1.9-7.5,4.6-10.3
					c1.3-1.4,2.9-2.5,4.7-3.2c1.7-0.7,3.6-1.2,5.4-1.4c-3.7,0.7-7.2,2.2-9.7,5c-2.5,2.7-3.7,6.4-4.3,10c-0.7,3.6-0.8,7.4-0.9,11.1
					C214.2,128.4,214.1,132.1,213.5,135.8z"/>
			</g>
			<g>
				<path class="st1" d="M223.2,122.6c0,2.5-0.5,5-1.2,7.3c-0.8,2.4-1.8,4.6-3.3,6.7c0.9-2.3,1.8-4.6,2.5-6.9
					C222,127.3,222.6,125,223.2,122.6z"/>
			</g>
			<g>
				<path class="st1" d="M235.5,92.9c-1.8-0.2-3.6-0.3-5.5-0.2c-1.8,0.1-3.6,0.4-5.3,0.9c-1.7,0.5-3.4,1.1-5.1,1.9
					c-1.6,0.8-3.2,1.8-4.7,2.9c1.3-1.3,2.8-2.4,4.4-3.4c1.6-0.9,3.4-1.6,5.2-2.1c1.8-0.5,3.7-0.7,5.5-0.7
					C231.9,92.2,233.8,92.4,235.5,92.9z"/>
			</g>
			<g>
				<path class="st1" d="M244.9,86.7c-2.8-0.5-5.7-0.7-8.5-0.6c-2.8,0.1-5.7,0.5-8.3,1.4c-2.7,0.8-5.3,2.1-7.5,3.8
					c-2.2,1.7-4.1,3.9-5.4,6.5c1.1-2.7,2.9-5,5.1-6.9c2.2-1.9,4.9-3.2,7.6-4.1c2.8-0.8,5.7-1.2,8.5-1.2
					C239.2,85.5,242.1,85.9,244.9,86.7z"/>
			</g>
			<g>
				<g>
					<path class="st1" d="M219.1,85.2c2.4-2.9,5.6-5.2,9-7c3.4-1.7,7.1-2.8,11-3.2c3.8-0.4,7.8,0,11.4,1.4c3.6,1.4,6.7,4.1,8.7,7.4
						l0.5,0.8l-0.9-0.3c-6.4-2.1-13.1-3-19.8-2.9C232.2,81.6,225.4,82.8,219.1,85.2z M219.1,85.2c6.2-2.6,12.9-4,19.7-4.3
						c6.8-0.3,13.6,0.7,20.1,2.8l-0.4,0.5c-1.9-3.2-4.8-5.8-8.3-7.2c-3.5-1.4-7.3-1.8-11-1.4c-3.7,0.3-7.4,1.4-10.9,3
						C224.9,80.2,221.7,82.4,219.1,85.2z"/>
				</g>
			</g>
			<g>
				<path class="st1" d="M264.5,78.9c-2.9-1.8-5.9-3.3-9.1-4.4c-3.2-1.1-6.4-2-9.8-2.4c-3.3-0.5-6.7-0.6-10-0.3
					c-3.4,0.3-6.7,0.9-9.9,1.8c3.1-1.3,6.5-2,9.9-2.4c3.4-0.4,6.8-0.3,10.2,0.1c3.4,0.5,6.7,1.3,9.9,2.6
					C258.8,75.2,261.8,76.8,264.5,78.9z"/>
			</g>
			<g>
				<path class="st1" d="M276.1,76.3c-3.4-3-7.3-5.5-11.5-7.2c-4.2-1.7-8.6-2.8-13.1-3c-4.5-0.3-9.1,0.1-13.4,1.3
					c-4.4,1.2-8.5,3.1-12.3,5.6c3.6-2.8,7.7-4.9,12.1-6.2c4.4-1.3,9-1.8,13.6-1.5c4.6,0.3,9.1,1.4,13.3,3.2
					C269.1,70.4,272.9,73,276.1,76.3z"/>
			</g>
			<g>
				<path class="st1" d="M288.2,77.6c-4.1-2.3-8.1-4.7-12.3-6.9c-4.1-2.2-8.4-4.2-12.8-5.8c-4.4-1.6-8.9-2.8-13.5-3.4
					c-4.6-0.6-9.3-0.4-13.9,0.5c4.5-1.2,9.3-1.6,14-1.1c4.7,0.4,9.3,1.7,13.7,3.3c4.4,1.7,8.7,3.7,12.8,6
					C280.3,72.5,284.3,75,288.2,77.6z"/>
			</g>
			<g>
				<path class="st1" d="M302.4,81.6l-2.9-2.9l-3.1-2.7l-3.2-2.6l-3.3-2.4c-4.5-3.1-9.2-5.8-14.2-7.9c-5-2.2-10.2-3.8-15.5-5l-4-0.8
					l-4-0.5l-4.1-0.4l-4.1-0.1l4.1,0l4.1,0.2l4.1,0.4l4.1,0.7c5.4,1,10.6,2.7,15.7,4.9c5,2.2,9.8,4.9,14.2,8.1l3.3,2.5l3.1,2.7
					l2.9,2.9L302.4,81.6z"/>
			</g>
			<g>
				<path class="st1" d="M253.3,51.8c3.2,0.1,6.4,0.3,9.5,0.9c3.2,0.5,6.3,1.3,9.3,2.5c3,1.2,5.8,2.8,8.2,5c0.6,0.6,1.1,1.1,1.7,1.7
					c0.5,0.6,1,1.3,1.5,1.9c0.4,0.7,0.8,1.4,1.2,2.1l1,2.2c-1.4-2.9-3.3-5.4-5.7-7.5c-2.4-2-5.2-3.6-8.1-4.7c-2.9-1.2-6-2-9.1-2.6
					C259.6,52.6,256.5,52.2,253.3,51.8z"/>
			</g>
			<g>
				<path class="st1" d="M302.2,81.2c-2.2-4.7-4.9-9.2-8.1-13.3c-3.2-4.1-6.7-7.9-10.9-11c-4.1-3.1-8.8-5.6-13.8-6.7
					c-5-1.2-10.4-0.8-15.3,0.8c2.4-1,5-1.6,7.6-1.8c2.6-0.2,5.3-0.1,7.9,0.4c5.2,1,10,3.5,14.2,6.7c4.2,3.2,7.8,7.1,10.9,11.3
					C297.6,71.8,300.2,76.4,302.2,81.2z"/>
			</g>
			<g>
				<path class="st1" d="M259.1,46.2c2.7-0.5,5.4-0.7,8.1-0.6c2.7,0.1,5.4,0.5,8.1,1.1c5.3,1.3,10.4,3.6,14.8,6.9
					c4.3,3.3,8,7.7,10.2,12.7c1.1,2.5,1.9,5.1,2.3,7.8c0.4,2.7,0.5,5.4,0.2,8.2c0.3-5.4-0.7-10.9-3.1-15.8
					c-2.3-4.9-5.9-9.1-10.2-12.3c-4.3-3.3-9.2-5.6-14.5-7c-2.6-0.7-5.3-1.1-8-1.3C264.5,45.8,261.8,45.8,259.1,46.2z"/>
			</g>
			<g>
				<path class="st1" d="M286.7,43.8c3.4,1.8,6.4,4.3,9,7c2.7,2.8,4.9,5.9,6.7,9.4c1.7,3.4,3,7.2,3.2,11c0.1,1.9,0,3.9-0.4,5.8
					c-0.4,1.9-1.1,3.7-2,5.4c1.6-3.5,2.2-7.3,1.8-11.1c-0.4-3.8-1.6-7.4-3.3-10.7c-1.7-3.4-3.9-6.5-6.4-9.3
					C292.8,48.4,289.9,45.9,286.7,43.8z"/>
			</g>
			<g>
				<path class="st1" d="M303.2,82.4c0.5,0.1,0.9,0.1,1.4,0.2c0.5,0,0.9,0,1.4-0.1c0.9-0.1,1.7-0.7,2.2-1.3c1.1-1.4,1.2-3.3,1.1-5.1
					c-0.2-3.6-1.1-7.2-2.2-10.7c-1.1-3.5-2.4-6.9-3.9-10.2c-0.7-1.7-1.5-3.3-2.4-5c-0.8-1.6-1.7-3.2-2.9-4.7
					c1.3,1.3,2.3,2.9,3.2,4.5c0.9,1.6,1.8,3.2,2.6,4.9c1.6,3.3,2.9,6.8,4.1,10.3c1.1,3.5,2,7.1,2.1,10.9c0,1.8-0.2,3.8-1.4,5.4
					c-0.6,0.7-1.5,1.2-2.5,1.3c-0.5,0.1-0.9,0-1.4,0C304.1,82.6,303.7,82.5,303.2,82.4z"/>
			</g>
			<g>
				<path class="st1" d="M312.3,55.5c1.4,2.5,2,5.4,2.4,8.2c0.4,2.8,0.3,5.7,0,8.6c-0.5,2.8-1.2,5.7-3,8c-0.9,1.1-2.1,2.1-3.5,2.6
					c-1.4,0.5-2.9,0.5-4.3,0.2c1.4,0.1,2.9,0,4.1-0.5c1.3-0.5,2.3-1.5,3.1-2.6c1.6-2.3,2.4-5,2.8-7.8c0.4-2.8,0.4-5.6,0.2-8.4
					c-0.1-1.4-0.3-2.8-0.6-4.2C313.2,58.2,312.9,56.8,312.3,55.5z"/>
			</g>
			<g>
				<path class="st1" d="M316.6,62.2c0.8,2.5,1.3,5.1,1.5,7.7c0.1,2.6-0.1,5.3-0.7,7.9c-0.7,2.5-1.9,5.1-4,6.8
					c-1,0.9-2.3,1.5-3.5,1.8c-1.3,0.3-2.6,0.4-3.9,0.3c2.6-0.1,5.2-0.8,7.1-2.6c1.9-1.7,3-4.1,3.6-6.6c0.7-2.5,0.9-5.1,0.9-7.7
					C317.5,67.3,317.2,64.8,316.6,62.2z"/>
			</g>
			<g>
				<path class="st1" d="M326.8,68.1c0.2,2.6-0.3,5.3-1.3,7.8c-1,2.5-2.7,4.7-4.6,6.5c-2,1.8-4.3,3.2-6.9,4c-2.5,0.8-5.3,1-7.9,0.5
					c2.6,0.2,5.2-0.2,7.7-1.1c2.4-0.9,4.7-2.3,6.5-4c1.9-1.7,3.5-3.8,4.6-6.2C326.1,73.3,326.7,70.8,326.8,68.1z"/>
			</g>
			<g>
				<path class="st1" d="M330.5,73.7c-0.4,2.3-1.2,4.5-2.3,6.6c-1.1,2.1-2.5,4-4,5.7c-1.6,1.7-3.4,3.2-5.5,4.4
					c-2,1.2-4.2,2.1-6.5,2.6c2.2-0.8,4.2-1.8,6.2-3.1c1.9-1.3,3.7-2.7,5.2-4.4c1.6-1.6,2.9-3.5,4.1-5.5
					C328.9,78.1,329.8,75.9,330.5,73.7z"/>
			</g>
			<g>
				<path class="st1" d="M336.7,81.6c-1.2,2-2.8,3.7-4.6,5.3c-1.8,1.5-3.7,2.8-5.8,3.9c-2.1,1-4.3,1.8-6.6,2.2
					c-2.3,0.4-4.6,0.5-7,0.3c2.3,0,4.6-0.3,6.8-0.8c2.2-0.5,4.4-1.3,6.4-2.3c2.1-1,4-2.2,5.8-3.6C333.5,85,335.2,83.4,336.7,81.6z"
					/>
			</g>
			<g>
				<path class="st1" d="M322.7,100.8c1.7-1.1,3.3-2.3,4.7-3.6c1.4-1.3,2.8-2.8,3.9-4.4c1.2-1.6,2.2-3.3,3-5
					c0.9-1.8,1.5-3.6,2.1-5.5c-0.2,2-0.8,3.9-1.6,5.8c-0.8,1.9-1.8,3.6-3,5.2c-1.2,1.6-2.6,3.1-4.1,4.4
					C326.2,99,324.5,100,322.7,100.8z"/>
			</g>
			<g>
				<path class="st1" d="M341.1,87.3c-0.7,1.9-1.6,3.7-2.8,5.3c-1.2,1.7-2.6,3.1-4.2,4.4c-1.6,1.3-3.3,2.4-5.2,3.2
					c-1.8,0.8-3.8,1.4-5.8,1.7c1.9-0.6,3.8-1.3,5.5-2.2c1.7-0.9,3.4-2,4.9-3.3c1.5-1.2,2.9-2.7,4.2-4.2
					C339.1,90.8,340.2,89.1,341.1,87.3z"/>
			</g>
			<g>
				<path class="st1" d="M338.6,92.7c4.3,7,7.2,14.9,8.8,23c1.6,8.1,2.1,16.4,1.9,24.6c-0.2,8.2-0.8,16.5-1.7,24.7
					c-0.9,8.2-1.9,16.4-2.6,24.5l0,0.1l0,0.1c-1.7,2.5-2.9,5.4-3.6,8.3c-0.8,3-1.2,6-1.6,9.1c-0.4,3.1-0.7,6.1-1.3,9.2
					c-0.6,3-1.5,6-3.1,8.7c1.5-2.7,2.3-5.7,2.9-8.7c0.5-3,0.8-6.1,1.1-9.2c0.3-3.1,0.7-6.1,1.5-9.1c0.7-3,1.9-5.9,3.6-8.6l-0.1,0.1
					c0.7-8.2,1.7-16.4,2.5-24.6c0.8-8.2,1.6-16.4,1.8-24.6c0.2-8.2-0.2-16.5-1.7-24.5C345.4,107.8,342.7,99.8,338.6,92.7z"/>
			</g>
			<g>
				<path class="st1" d="M330.1,224.3c-0.7-1-1.2-2.1-1.4-3.3c-0.2-1.2-0.2-2.4,0-3.6c0.4-2.4,1.5-4.6,2.6-6.7
					c1.1-2.2,2.2-4.3,2.9-6.5c0.7-2.2,0.9-4.7,0.2-6.9l0-0.1l0-0.1c0.4-3.9,2.7-7.1,3.8-10.6c1.1-3.5,0.6-7.3,0.3-11
					c-0.2-1.9-0.2-3.8,0-5.7c0.3-1.9,0.9-3.7,1.6-5.4c0.7-1.7,1.4-3.5,1.7-5.3c0.2-0.9,0.2-1.8,0.1-2.8c-0.1-0.9-0.5-1.8-0.9-2.6
					c0.5,0.8,0.8,1.7,1,2.6c0.1,0.9,0.2,1.9,0,2.8c-0.3,1.9-0.9,3.7-1.6,5.4c-0.6,1.8-1.3,3.5-1.5,5.3c-0.2,1.8-0.1,3.7,0.1,5.5
					c0.2,1.9,0.4,3.7,0.5,5.6c0.1,1.9-0.1,3.8-0.7,5.7c-1.1,3.7-3.4,6.8-3.8,10.4l0-0.1c0.8,2.4,0.5,5-0.2,7.3
					c-0.8,2.3-1.9,4.4-3,6.6c-1.1,2.1-2.2,4.3-2.7,6.6c-0.3,1.2-0.4,2.4-0.2,3.5C329,222.2,329.5,223.3,330.1,224.3z"/>
			</g>
			<g>
				<path class="st1" d="M336.1,156.1c0.2,2.9-0.1,5.8-0.7,8.7c-0.6,2.9-1.5,5.7-2.4,8.4c-0.9,2.8-1.8,5.5-2.6,8.3
					c-0.8,2.8-1.4,5.6-1.7,8.5l0,0l0,0c-1,3.1-1.8,6.3-2.4,9.6c-0.6,3.2-1.1,6.5-1.6,9.8c-0.5,3.3-1,6.5-1.7,9.8
					c-0.7,3.2-1.6,6.5-2.8,9.5c1.1-3.1,1.8-6.4,2.4-9.6c0.6-3.2,1-6.5,1.5-9.8c0.4-3.3,0.9-6.6,1.5-9.8c0.6-3.3,1.3-6.5,2.4-9.7
					l0,0.1c0.6-5.9,2.6-11.4,4.5-16.9c1-2.7,1.9-5.5,2.5-8.3C335.8,161.9,336.2,159,336.1,156.1z"/>
			</g>
			<g>
				<path class="st1" d="M315.5,209.3c0-3.3,0.9-6.5,1.9-9.6c1.1-3.1,2.4-6.1,3.7-9.1c1.3-3,2.5-6,3.2-9.2c0.7-3.1,0.9-6.4,0.2-9.6
					c0.2,0.8,0.4,1.6,0.6,2.4c0.1,0.8,0.2,1.6,0.2,2.5c0,0.8,0,1.6-0.1,2.5c-0.1,0.8-0.2,1.6-0.4,2.4c-0.6,3.2-1.8,6.3-3.1,9.3
					c-1.3,3-2.6,6-3.8,9C316.8,202.9,315.9,206,315.5,209.3z"/>
			</g>
			<g>
				<path class="st1" d="M314.7,181.9c0.6,1.2,0.8,2.6,0.6,3.9c-0.2,1.3-0.6,2.6-1,3.8c-0.5,1.2-1,2.4-1.2,3.7
					c-0.3,1.2-0.3,2.5,0.1,3.7l0,0.1l0,0.1c0,0.9-0.4,1.7-0.8,2.4c-0.5,0.7-1,1.3-1.5,1.9c-0.5,0.6-1,1.2-1.3,2
					c-0.3,0.7-0.3,1.5,0,2.3c-0.4-0.7-0.5-1.6-0.2-2.4c0.2-0.8,0.7-1.5,1.2-2.1c0.5-0.7,1-1.3,1.3-2c0.4-0.7,0.7-1.4,0.7-2.1l0,0.1
					c-0.5-1.3-0.5-2.8-0.2-4.1c0.3-1.3,0.8-2.6,1.3-3.8c0.5-1.2,1-2.4,1.2-3.7C315.2,184.5,315.1,183.1,314.7,181.9z"/>
			</g>
			<g>
				<path class="st1" d="M303.8,206.3c-0.4-0.8-0.6-1.7-0.6-2.7c0-0.9,0.2-1.9,0.4-2.8c0.5-1.8,1.4-3.4,1.8-5.1l0,0.2
					c-0.3-0.7-0.6-1.5-0.9-2.3c-0.3-0.8-0.5-1.6-0.5-2.5c0-0.9,0.3-1.7,0.8-2.4c0.5-0.7,1.2-1.1,1.9-1.5c-0.6,0.5-1.2,1.1-1.6,1.7
					c-0.4,0.7-0.6,1.4-0.5,2.2c0.1,0.8,0.3,1.5,0.6,2.2l0.9,2.2l0,0.1l0,0.1c-0.5,1.8-1.4,3.4-2,5.1c-0.3,0.8-0.5,1.7-0.6,2.6
					C303.4,204.6,303.5,205.5,303.8,206.3z"/>
			</g>
			<g>
				<path class="st1" d="M299.3,189.4c-1,1.2-1.6,2.5-1.7,4c-0.1,1.4,0.2,2.9,0.4,4.4c0.2,1.5,0.5,3,0.3,4.6
					c-0.1,0.4-0.1,0.8-0.2,1.1c-0.2,0.4-0.3,0.7-0.4,1.1c-0.2,0.3-0.4,0.7-0.7,0.9c-0.3,0.3-0.5,0.5-0.8,0.8c1-1.2,1.6-2.5,1.6-4
					c0-1.5-0.2-2.9-0.5-4.4c-0.2-1.5-0.5-3-0.3-4.6c0.1-0.4,0.1-0.8,0.3-1.1c0.2-0.4,0.3-0.7,0.5-1.1c0.2-0.3,0.4-0.7,0.7-0.9
					C298.7,189.9,299,189.6,299.3,189.4z"/>
			</g>
			<g>
				<path class="st1" d="M343.2,132.9c0-3.4-0.1-6.8-0.2-10.2c-0.2-3.4-0.4-6.8-0.9-10.1c-0.4-3.4-0.9-6.7-1.5-10
					c-0.6-3.3-1.4-6.6-2.2-9.9c1.1,3.2,2,6.5,2.7,9.8c0.7,3.3,1.3,6.7,1.7,10.1c0.4,3.4,0.6,6.8,0.7,10.2
					C343.6,126.2,343.5,129.6,343.2,132.9z"/>
			</g>
			<g>
				<path class="st1" d="M336.2,134c0.3-3.2,0.6-6.4,0.8-9.7c0.2-3.2,0.4-6.4,0.4-9.7c0.1-3.2,0-6.5-0.1-9.7
					c-0.1-3.2-0.3-6.5-0.6-9.7c0.6,3.2,0.9,6.4,1.2,9.7c0.2,3.2,0.3,6.5,0.3,9.7c-0.1,3.2-0.2,6.5-0.5,9.7
					C337.3,127.6,336.8,130.8,336.2,134z"/>
			</g>
			<g>
				<path class="st1" d="M332.8,114c0-1.4,0-2.8,0-4.2c0-1.4,0.1-2.8,0.2-4.2c0.1-1.4,0.2-2.8,0.3-4.2c0.1-1.4,0.2-2.8,0.4-4.2
					c0.1,1.4,0.2,2.8,0.2,4.2c0,1.4,0,2.8-0.1,4.2c-0.1,1.4-0.2,2.8-0.3,4.2C333.3,111.3,333.1,112.6,332.8,114z"/>
			</g>
			<g>
				<path class="st1" d="M202.2,204.9c-1.3-1.2-2.6-2.3-4-3.2c-1.4-0.9-2.9-1.7-4.5-2.4c1.8,0.1,3.5,0.8,5,1.8
					C200,202,201.3,203.3,202.2,204.9z"/>
			</g>
			<g>
				<path class="st1" d="M201.9,200c-1.7-1.3-3.3-2.6-5-3.9c-1.7-1.3-3.4-2.5-5.1-3.8c2,0.8,3.9,1.9,5.6,3.2
					C199,196.8,200.6,198.3,201.9,200z"/>
			</g>
			<g>
				<path class="st1" d="M200.3,191.9c-1.7-1.1-3.3-2.3-4.9-3.6c-1.6-1.3-3.1-2.6-4.4-4.1c1.7,1.1,3.3,2.3,4.9,3.6
					C197.4,189.1,198.9,190.4,200.3,191.9z"/>
			</g>
			<g>
				<path class="st1" d="M199.9,184.6c-1.2-1.3-2.4-2.6-3.7-3.8c-1.3-1.2-2.7-2.3-4.1-3.4c1.7,0.6,3.3,1.6,4.6,2.8
					C198,181.5,199.1,182.9,199.9,184.6z"/>
			</g>
			<g>
				<path class="st1" d="M201.3,177.5c-1.4-1.3-2.7-2.7-4-4c-1.3-1.3-2.7-2.6-4-4c1.7,0.9,3.2,2.2,4.5,3.5
					C199.2,174.3,200.4,175.8,201.3,177.5z"/>
			</g>
			<g>
				<path class="st1" d="M202,170.2c-1.3-1.2-2.4-2.5-3.6-3.7c-1.2-1.3-2.4-2.5-3.5-3.9c1.5,0.9,2.8,2.1,4.1,3.4
					C200.1,167.2,201.2,168.6,202,170.2z"/>
			</g>
			<g>
				<path class="st1" d="M203.2,163.3c-1.4-1.2-2.6-2.5-3.8-3.8c-1.2-1.4-2.3-2.8-3.2-4.3c1.4,1.2,2.6,2.5,3.8,3.8
					C201.1,160.4,202.2,161.8,203.2,163.3z"/>
			</g>
			<g>
				<path class="st1" d="M203.5,155.2c-1-1.2-1.9-2.4-3-3.5c-1.1-1.1-2.2-2-3.5-2.9c1.5,0.4,2.9,1.3,4,2.4
					C202.1,152.3,203,153.6,203.5,155.2z"/>
			</g>
			<g>
				<path class="st1" d="M205.2,149.4c-1.2-1.3-2.4-2.6-3.6-3.8c-1.3-1.2-2.6-2.3-4-3.3c1.7,0.6,3.2,1.6,4.6,2.8
					C203.3,146.3,204.5,147.8,205.2,149.4z"/>
			</g>
			<g>
				<path class="st1" d="M205.1,141.8c-1.1-1.1-2.1-2.2-3.2-3.2c-1.1-1-2.2-2-3.3-3.1c1.4,0.6,2.7,1.5,3.8,2.5
					C203.6,139.1,204.5,140.4,205.1,141.8z"/>
			</g>
			<g>
				<path class="st1" d="M199.9,128.4c1.5,0.6,2.7,1.5,3.9,2.6c1.1,1.1,2.1,2.3,2.8,3.7c-1.2-1.1-2.2-2.1-3.3-3.2
					C202.2,130.5,201,129.5,199.9,128.4z"/>
			</g>
			<g>
				<path class="st1" d="M202,119.1c1.3,0.6,2.5,1.5,3.5,2.6c1,1.1,1.7,2.4,2.2,3.8c-0.9-1.1-1.8-2.2-2.7-3.3
					C204,121.1,203,120.2,202,119.1z"/>
			</g>
			<g>
				<path class="st1" d="M203.9,110.8c1.3,0.8,2.5,1.9,3.4,3.2c0.9,1.3,1.6,2.7,1.9,4.2c-0.9-1.3-1.6-2.6-2.5-3.8
					C205.8,113.2,204.9,112,203.9,110.8z"/>
			</g>
			<g>
				<path class="st1" d="M205.6,98.9c1.5,0.9,2.7,2.2,3.7,3.5c1,1.4,1.8,3,2.2,4.7c-0.9-1.5-1.8-2.9-2.8-4.2
					C207.7,101.5,206.7,100.3,205.6,98.9z"/>
			</g>
			<g>
				<path class="st1" d="M208.9,91.5c1.4,1,2.6,2.3,3.5,3.7c1,1.4,1.8,2.9,2.2,4.6c-1-1.4-1.9-2.8-2.9-4.2
					C210.9,94.2,209.9,92.9,208.9,91.5z"/>
			</g>
			<g>
				<path class="st1" d="M211.8,86.3c1.1,0.5,2.1,1.3,2.8,2.3c0.8,1,1.4,2.1,1.6,3.3c-0.8-0.9-1.5-1.9-2.2-2.8
					C213.3,88.1,212.5,87.2,211.8,86.3z"/>
			</g>
			<g>
				<path class="st1" d="M214,81.4c1,0.4,1.8,1.1,2.5,2c0.6,0.9,1.1,1.9,1.3,2.9c-0.7-0.8-1.2-1.7-1.9-2.5
					C215.3,83,214.7,82.2,214,81.4z"/>
			</g>
			<g>
				<path class="st1" d="M218.8,74.1c0.8,0.6,1.3,1.3,1.9,2c0.5,0.8,1,1.5,1.2,2.5c-0.8-0.6-1.3-1.3-1.9-2
					C219.5,75.8,219,75.1,218.8,74.1z"/>
			</g>
			<g>
				<path class="st1" d="M224.1,67.8c0.7,0.5,1.1,1.2,1.5,1.9c0.4,0.7,0.7,1.4,0.9,2.2c-0.7-0.5-1.1-1.2-1.5-1.9
					C224.5,69.4,224.2,68.7,224.1,67.8z"/>
			</g>
			<g>
				<path class="st1" d="M229.3,67.7c-0.7-0.9-1.2-2.1-1.5-3.2c-0.2-1.2-0.3-2.4,0-3.6c0.3,1.2,0.5,2.3,0.8,3.4
					C228.8,65.5,229.1,66.5,229.3,67.7z"/>
			</g>
			<g>
				<path class="st1" d="M234.2,54.5c0.7,1.1,1,2.4,1.2,3.7c0.1,1.3,0.1,2.6-0.4,3.8c-0.2-1.3-0.2-2.5-0.4-3.7
					C234.5,57,234.4,55.8,234.2,54.5z"/>
			</g>
			<g>
				<path class="st1" d="M240.7,57.8c-0.5-1.3-0.6-2.8-0.5-4.2c0.1-1.4,0.5-2.8,1.3-4c-0.2,1.4-0.4,2.7-0.5,4.1
					C240.8,55,240.8,56.4,240.7,57.8z"/>
			</g>
			<g>
				<path class="st1" d="M248.2,46.1c-0.2,1.4-0.4,2.7-0.6,4.1c-0.2,1.3-0.4,2.7-0.7,4.1c-0.3-1.4-0.3-2.8-0.1-4.2
					C247.1,48.7,247.5,47.3,248.2,46.1z"/>
			</g>
			<g>
				<path class="st1" d="M206.8,200.9c-1.1-0.9-2.2-1.9-3.2-2.9c-1-1-2.1-2-3.1-3.1c1.3,0.6,2.5,1.5,3.6,2.5
					C205.2,198.5,206.2,199.6,206.8,200.9z"/>
			</g>
			<g>
				<path class="st1" d="M199.6,191.8c1.5,0.1,2.8,0.7,4.1,1.5c1.2,0.8,2.3,1.8,3,3.1c-1.2-0.9-2.3-1.7-3.4-2.5
					C202.1,193.1,200.9,192.5,199.6,191.8z"/>
			</g>
			<g>
				<path class="st1" d="M199.8,184.8c1.5,0.6,2.8,1.4,4.1,2.4c1.2,1,2.4,2,3.4,3.3c-1.4-0.8-2.6-1.8-3.8-2.7
					C202.2,186.8,201,185.9,199.8,184.8z"/>
			</g>
			<g>
				<path class="st1" d="M201.2,177.2c1.4,0.9,2.7,2.1,3.8,3.4c1.1,1.3,2.1,2.7,2.8,4.2c-1.2-1.2-2.3-2.5-3.4-3.7
					C203.4,179.8,202.3,178.6,201.2,177.2z"/>
			</g>
			<g>
				<path class="st1" d="M201.6,169.2c1.4,1.3,2.5,2.7,3.6,4.1c1.1,1.5,2.2,2.9,3.1,4.6c-1.4-1.3-2.5-2.7-3.6-4.1
					C203.5,172.3,202.5,170.8,201.6,169.2z"/>
			</g>
			<g>
				<path class="st1" d="M202.9,163c1.2,1,2.3,2.2,3.3,3.4c1,1.2,1.9,2.5,2.7,3.9c-1.2-1-2.3-2.2-3.3-3.4
					C204.6,165.6,203.7,164.4,202.9,163z"/>
			</g>
			<g>
				<path class="st1" d="M203.4,155.1c1.3,1.1,2.4,2.4,3.5,3.7c1,1.3,2.1,2.7,2.9,4.2c-1.3-1.1-2.4-2.4-3.5-3.7
					C205.2,157.9,204.2,156.6,203.4,155.1z"/>
			</g>
			<g>
				<path class="st1" d="M205,149.4c1.3,1,2.4,2.1,3.5,3.3c1.1,1.2,2.1,2.4,2.9,3.8c-1.3-1-2.4-2.1-3.5-3.3
					C206.9,152,205.8,150.7,205,149.4z"/>
			</g>
			<g>
				<path class="st1" d="M205,141.6c0.4,0.1,0.7,0.3,0.9,0.6c0.2,0.3,0.3,0.6,0.2,1c-0.4-0.1-0.7-0.3-0.9-0.6
					C205.1,142.3,205,142,205,141.6z"/>
			</g>
			<g>
				<path class="st1" d="M206.2,134.3c0.7,0.4,1.2,0.9,1.7,1.5c0.5,0.6,0.9,1.2,1.2,2c-0.7-0.4-1.2-0.9-1.7-1.5
					C206.9,135.7,206.4,135.1,206.2,134.3z"/>
			</g>
			<g>
				<path class="st1" d="M207.7,125.5c1.2,1.3,2.3,2.6,3.3,4.1c1,1.4,1.9,2.9,2.7,4.5c-1.2-1.3-2.3-2.6-3.3-4.1
					C209.3,128.5,208.4,127.1,207.7,125.5z"/>
			</g>
			<g>
				<path class="st1" d="M214.5,125.5c-1-1.1-1.8-2.2-2.7-3.4c-0.8-1.2-1.6-2.3-2.4-3.6c1.2,0.9,2.1,2,3,3.2
					C213.3,122.8,214,124.1,214.5,125.5z"/>
			</g>
			<g>
				<path class="st1" d="M214.2,115.9c-0.7-0.3-1.3-0.8-1.9-1.4c-0.5-0.5-1-1.1-1.3-1.9c0.7,0.3,1.3,0.8,1.9,1.4
					C213.5,114.6,213.9,115.1,214.2,115.9z"/>
			</g>
			<g>
				<path class="st1" d="M214.9,110.5c-0.8-0.2-1.4-0.6-1.9-1.2c-0.5-0.5-0.9-1.2-1.1-1.9c0.7,0.4,1.1,0.9,1.6,1.4
					C214,109.3,214.4,109.8,214.9,110.5z"/>
			</g>
			<g>
				<path class="st1" d="M214.5,99.4c0.9,0.6,1.7,1.5,2.4,2.3c0.6,0.9,1.2,1.9,1.4,3c-0.8-0.8-1.4-1.7-2.1-2.6
					C215.7,101.2,215,100.4,214.5,99.4z"/>
			</g>
			<g>
				<path class="st1" d="M217.2,107.2c1.4,0.7,2.7,1.6,3.8,2.8c1.1,1.2,2,2.6,2.2,4.2c-0.8-1.4-1.7-2.5-2.8-3.7
					C219.4,109.3,218.3,108.3,217.2,107.2z"/>
			</g>
			<g>
				<path class="st1" d="M222,102.4c1,0.1,1.9,0.7,2.5,1.5c0.6,0.8,1,1.8,0.9,2.8c-0.5-0.8-1-1.6-1.5-2.3
					C223.3,103.7,222.7,103.1,222,102.4z"/>
			</g>
			<g>
				<path class="st1" d="M222.9,123.9c-0.9-2.1-1.9-4-3.2-5.8c-1.3-1.8-2.8-3.4-4.5-4.9c2,1,3.8,2.6,5.1,4.5
					C221.6,119.5,222.6,121.7,222.9,123.9z"/>
			</g>
			<g>
				<path class="st1" d="M221.4,129.9c-0.8-2.3-1.7-4.5-2.8-6.5c-1.2-2.1-2.6-4-4.1-5.8c2,1.4,3.6,3.3,4.8,5.4
					C220.4,125.1,221.2,127.5,221.4,129.9z"/>
			</g>
			<g>
				<path class="st1" d="M219.5,134c-0.7-1.6-1.5-3.2-2.3-4.7c-0.8-1.5-1.8-3-2.8-4.5c1.4,1.1,2.6,2.5,3.5,4.1
					C218.6,130.5,219.3,132.2,219.5,134z"/>
			</g>
			<g>
				<path class="st1" d="M217.6,136.2c-0.7-0.7-1.2-1.5-1.7-2.2c-0.5-0.8-1-1.5-1.3-2.4c0.8,0.5,1.4,1.3,2,2
					C217.1,134.4,217.5,135.2,217.6,136.2z"/>
			</g>
			<g>
				<path class="st1" d="M216.9,163c-0.9-1-1.7-1.9-2.5-2.8c-0.9-0.9-1.8-1.7-2.7-2.7c1.2,0.4,2.3,1.2,3.2,2.1
					C215.8,160.6,216.5,161.7,216.9,163z"/>
			</g>
			<g>
				<path class="st1" d="M210.4,163c1.3,0.6,2.4,1.5,3.3,2.6c0.9,1.1,1.6,2.4,1.9,3.7c-0.9-1.1-1.6-2.2-2.5-3.3
					C212.3,165,211.3,164,210.4,163z"/>
			</g>
			<g>
				<path class="st1" d="M215.8,175.9c-1.3-0.9-2.5-2.1-3.6-3.2c-1.1-1.2-2.1-2.4-3-3.7c1.3,0.9,2.5,2.1,3.6,3.2
					C213.9,173.4,215,174.6,215.8,175.9z"/>
			</g>
			<g>
				<path class="st1" d="M215.1,183.3c-1-1.3-1.9-2.5-3-3.6c-1.1-1.1-2.2-2.1-3.4-3.1c1.5,0.5,2.9,1.5,4,2.6
					C213.8,180.3,214.7,181.7,215.1,183.3z"/>
			</g>
			<g>
				<path class="st1" d="M215.4,191.1c-1.2-1.6-2.4-3.1-3.7-4.6c-1.3-1.5-2.6-2.9-3.8-4.5c1.6,1.2,3.1,2.5,4.4,4.1
					C213.6,187.5,214.8,189.2,215.4,191.1z"/>
			</g>
			<g>
				<path class="st1" d="M215.4,199.6c-1-1.8-2-3.4-3.2-4.9c-1.2-1.5-2.6-2.9-4.1-4.2c1.8,0.8,3.4,2.2,4.7,3.7
					C214,195.8,215,197.6,215.4,199.6z"/>
			</g>
			<g>
				<path class="st1" d="M207.2,196.7c1.8,1.7,3.3,3.7,4.6,5.7c1.4,2,2.6,4.2,3.5,6.5c-1.4-2-2.8-4-4.1-6
					C209.9,200.8,208.5,198.8,207.2,196.7z"/>
			</g>
			<g>
				<path class="st1" d="M206.5,200.9c0.9,1,1.6,2.1,2.3,3.3c0.7,1.1,1.3,2.3,1.9,3.6c0.6,1.2,1.1,2.5,1.5,3.8
					c0.4,1.3,0.8,2.6,1,3.9c-0.5-1.2-1-2.5-1.5-3.7c-0.5-1.2-1-2.4-1.6-3.6c-0.5-1.2-1.1-2.4-1.7-3.6
					C207.8,203.2,207.2,202.1,206.5,200.9z"/>
			</g>
			<g>
				<path class="st1" d="M215.9,211c0.8,0,1.5,0.3,2.2,0.7c0.7,0.4,1.2,0.9,1.8,1.4c1.1,1,2.1,2.1,3.4,2.8c-0.8-0.1-1.5-0.4-2.2-0.8
					c-0.7-0.4-1.2-0.9-1.8-1.5C218.3,212.6,217.3,211.6,215.9,211z"/>
			</g>
			<g>
				<path class="st1" d="M215.5,203.8c1.6,0.9,3.1,2,4.5,3.1c1.4,1.1,2.8,2.3,4,3.7c-1.6-0.9-3.1-2-4.5-3.1
					C218.1,206.4,216.7,205.2,215.5,203.8z"/>
			</g>
			<g>
				<path class="st1" d="M223.9,206c-0.4-0.9-1.1-1.6-1.9-2.2c-0.8-0.5-1.7-1-2.6-1.4c-0.9-0.5-1.8-0.9-2.6-1.6
					c-0.8-0.6-1.5-1.5-1.7-2.5c1.1,1.7,2.9,2.5,4.6,3.4c0.9,0.5,1.8,0.9,2.6,1.6C223.2,204,223.8,205,223.9,206z"/>
			</g>
			<g>
				<path class="st1" d="M223.4,199.3c-1.1-1.7-2.7-2.7-4.3-3.9c-0.8-0.6-1.6-1.3-2.2-2c-0.7-0.8-1.2-1.7-1.3-2.7
					c0.9,1.8,2.4,3,4,4.2c0.8,0.6,1.6,1.2,2.3,2C222.5,197.5,223.1,198.4,223.4,199.3z"/>
			</g>
			<g>
				<path class="st1" d="M215.2,183.5c1.5,0.8,2.9,1.8,4.2,2.9c1.3,1.1,2.5,2.3,3.4,3.7c-1.4-1-2.6-2.1-3.9-3.2
					C217.6,185.8,216.3,184.7,215.2,183.5z"/>
			</g>
			<g>
				<path class="st1" d="M215.9,176.4c1.3,1.2,2.4,2.4,3.5,3.6c1.1,1.2,2.3,2.4,3.3,3.8c-1.5-0.9-2.7-2-3.9-3.2
					C217.7,179.3,216.7,177.9,215.9,176.4z"/>
			</g>
			<g>
				<path class="st1" d="M215.9,169.4c1.2,1,2.4,2.1,3.5,3.2c1.1,1.1,2.3,2.2,3.3,3.4c-1.4-0.7-2.7-1.7-3.8-2.8
					C217.7,172.1,216.7,170.8,215.9,169.4z"/>
			</g>
			<g>
				<path class="st1" d="M217,163.2c1.2,0.9,2.3,1.9,3.3,3c1,1.1,2,2.2,2.8,3.5c-1.2-0.9-2.3-1.9-3.3-3
					C218.7,165.7,217.8,164.5,217,163.2z"/>
			</g>
			<g>
				<path class="st1" d="M231.3,174.9c-0.3-1-0.8-1.9-1.4-2.6c-0.6-0.7-1.4-1.4-2.2-2c-0.8-0.6-1.6-1.2-2.4-1.9
					c-0.8-0.7-1.5-1.5-2-2.4c1.5,1.4,3.2,2.4,4.8,3.7c0.8,0.6,1.6,1.4,2.2,2.3C230.9,172.8,231.3,173.8,231.3,174.9z"/>
			</g>
			<g>
				<path class="st1" d="M223.2,174c1.8,0.1,3.5,0.8,4.9,1.9c1.4,1.1,2.5,2.6,2.9,4.3c-1-1.4-2.1-2.7-3.4-3.7
					C226.3,175.5,224.8,174.7,223.2,174z"/>
			</g>
			<g>
				<path class="st1" d="M230.8,187.5c-1.3-1.4-2.5-2.7-3.9-4c-1.3-1.3-2.8-2.4-4.2-3.6c1.8,0.7,3.3,1.8,4.7,3.1
					C228.8,184.3,230,185.8,230.8,187.5z"/>
			</g>
			<g>
				<path class="st1" d="M223,188c1.8,0.4,3.4,1.4,4.7,2.7c1.3,1.3,2.4,2.8,2.9,4.6c-1.1-1.5-2.1-2.8-3.4-4
					C225.9,190,224.5,189,223,188z"/>
			</g>
			<g>
				<path class="st1" d="M223.3,196.8c1.4,0.6,2.6,1.3,3.9,2c1.3,0.7,2.6,1.3,3.9,2.1c-1.5-0.2-2.9-0.7-4.2-1.4
					C225.6,198.7,224.3,197.9,223.3,196.8z"/>
			</g>
			<g>
				<path class="st1" d="M224.1,203.3c1.1,1.2,2.5,1.8,3.9,2.5c0.7,0.4,1.4,0.8,2.1,1.3c0.6,0.5,1.2,1.2,1.4,2
					c-1-1.3-2.4-1.9-3.8-2.6c-0.7-0.4-1.4-0.7-2.1-1.3C225,204.7,224.4,204,224.1,203.3z"/>
			</g>
			<g>
				<path class="st1" d="M224.3,209.5c1,0.1,1.9,0.6,2.7,1.2c0.8,0.6,1.4,1.4,1.8,2.3c-0.8-0.6-1.5-1.1-2.3-1.7
					C225.8,210.6,225,210.1,224.3,209.5z"/>
			</g>
			<g>
				<path class="st1" d="M224.7,137.5c-1-0.3-1.8-0.9-2.5-1.6c-0.7-0.7-1.3-1.5-1.7-2.5c0.8,0.6,1.5,1.3,2.2,1.9
					C223.3,136,224,136.7,224.7,137.5z"/>
			</g>
			<g>
				<path class="st1" d="M237.7,186c-0.8-1.5-2-2.4-3.3-3.4c-0.6-0.5-1.3-1-1.8-1.7c-0.6-0.6-1-1.4-1.2-2.2c0.9,1.4,2.2,2.2,3.5,3.2
					c0.6,0.5,1.3,1.1,1.8,1.7C237.3,184.4,237.7,185.2,237.7,186z"/>
			</g>
			<g>
				<path class="st1" d="M238,193c-0.9-1.4-2.2-2.2-3.4-3.2c-0.6-0.5-1.3-1-1.9-1.6c-0.6-0.6-1.1-1.3-1.3-2.1c1,1.3,2.3,2.1,3.6,3.1
					c0.6,0.5,1.3,1,1.9,1.6C237.4,191.5,237.9,192.2,238,193z"/>
			</g>
			<g>
				<path class="st1" d="M237.8,199.7c-0.3-0.7-0.9-1.3-1.5-1.7c-0.6-0.4-1.3-0.7-2-1c-0.7-0.3-1.4-0.7-2.1-1.1
					c-0.7-0.5-1.2-1.1-1.4-1.9c0.5,0.7,1.1,1.1,1.7,1.4c0.7,0.3,1.4,0.6,2.1,0.9c0.7,0.3,1.4,0.7,2.1,1.2
					C237.3,198.1,237.8,198.9,237.8,199.7z"/>
			</g>
			<g>
				<path class="st1" d="M238.1,206.4c-1.2-0.7-2.3-1.5-3.4-2.3c-1.1-0.8-2.3-1.5-3.4-2.4c1.4,0.3,2.6,1,3.8,1.8
					C236.3,204.3,237.4,205.2,238.1,206.4z"/>
			</g>
			<g>
				<path class="st1" d="M243,192.4c-0.8-0.7-1.5-1.4-2.2-2c-0.7-0.6-1.5-1.2-2.3-1.8c1,0.1,2,0.6,2.8,1.3
					C242,190.6,242.7,191.4,243,192.4z"/>
			</g>
			<g>
				<path class="st1" d="M242.9,200.3c-0.6-0.9-1.1-1.7-1.9-2.4c-0.7-0.7-1.5-1.2-2.5-1.7c1.1-0.1,2.2,0.4,3,1.2
					C242.4,198.1,242.9,199.2,242.9,200.3z"/>
			</g>
			<g>
				<path class="st1" d="M242.9,206.5c-0.7-0.6-1.3-1.1-2-1.7c-0.7-0.5-1.4-1-2.1-1.6c0.9,0,1.8,0.4,2.6,1
					C242.1,204.8,242.7,205.6,242.9,206.5z"/>
			</g>
			<g>
				<path class="st1" d="M251.4,203.6c-1.2-0.8-2.4-1.3-3.8-1.6c-1.3-0.3-2.7-0.2-4.1,0.1c1.2-0.9,2.8-1.1,4.2-0.8
					C249.2,201.5,250.6,202.3,251.4,203.6z"/>
			</g>
			<g>
				<path class="st1" d="M251.3,198.4c-1.1-0.9-2.3-1.7-3.5-2.2c-1.3-0.6-2.6-1-4-1.2c1.4-0.3,3-0.1,4.3,0.6
					C249.4,196.1,250.6,197.1,251.3,198.4z"/>
			</g>
			<g>
				<path class="st1" d="M251.3,193.9c-0.8-1.5-2.2-2.2-3.7-2.8c-1.5-0.6-3.1-1.1-4.4-2.1c1.6,0.5,3.2,0.8,4.7,1.4
					c0.8,0.3,1.5,0.7,2.2,1.3C250.7,192.3,251.2,193.1,251.3,193.9z"/>
			</g>
			<g>
				<path class="st1" d="M251.4,191.1c0.9,0.1,1.7,0.4,2.5,0.8c0.8,0.5,1.4,1,2.1,1.6c1.3,1.1,2.4,2.3,4,3c-0.9-0.1-1.7-0.4-2.5-0.9
					c-0.8-0.5-1.4-1-2.1-1.6C254.1,193,253,191.8,251.4,191.1z"/>
			</g>
			<g>
				<path class="st1" d="M251.6,197.3c0.8-0.2,1.7-0.1,2.5,0.2c0.8,0.3,1.5,0.8,2.1,1.4c1.2,1.1,2.2,2.3,3.6,3.1
					c-0.8-0.2-1.6-0.6-2.2-1c-0.7-0.5-1.3-1-1.9-1.5C254.5,198.4,253.3,197.4,251.6,197.3z"/>
			</g>
			<g>
				<path class="st1" d="M251.8,201.8c1-0.1,2,0.3,2.9,0.8c0.9,0.5,1.6,1.3,2.1,2.2c-0.9-0.5-1.6-1.1-2.5-1.6
					C253.6,202.7,252.7,202.3,251.8,201.8z"/>
			</g>
			<g>
				<path class="st1" d="M222.4,101c-0.5-0.9-0.9-1.6-1.3-2.4c-0.5-0.8-1-1.5-1.6-2.3c0.9,0.3,1.7,1,2.2,1.9
					C222.2,99,222.6,100,222.4,101z"/>
			</g>
			<g>
				<path class="st1" d="M227.8,98.5c-0.1-1-0.3-1.9-0.7-2.8c-0.3-0.9-0.8-1.6-1.4-2.5c1,0.3,1.7,1.2,2.1,2.2
					C228.2,96.4,228.2,97.5,227.8,98.5z"/>
			</g>
			<g>
				<path class="st1" d="M236.6,86.5c0.2,1.2-0.1,2.4-0.7,3.4c-0.6,1-1.5,1.9-2.6,2.3c0.8-0.9,1.4-1.7,2-2.6
					C235.9,88.6,236.3,87.6,236.6,86.5z"/>
			</g>
			<g>
				<path class="st1" d="M231.4,87c0.2,1,0,2.1-0.5,3.1c-0.5,0.9-1.2,1.8-2.2,2.2c0.6-0.9,1.1-1.7,1.5-2.6
					C230.7,88.9,231.1,88,231.4,87z"/>
			</g>
			<g>
				<path class="st1" d="M225,88.8c0.2,0.9,0,1.8-0.4,2.6c-0.4,0.8-1.1,1.5-1.9,1.8c0.5-0.8,0.9-1.5,1.3-2.2
					C224.3,90.3,224.6,89.6,225,88.8z"/>
			</g>
			<g>
				<path class="st1" d="M253.8,78.7c-0.6,0.6-1.2,1-1.8,1.5c-0.6,0.5-1.2,1-1.8,1.4c0.2-0.8,0.7-1.5,1.4-2
					C252.1,79.1,252.9,78.8,253.8,78.7z"/>
			</g>
			<g>
				<path class="st1" d="M250.1,77.1c-1,0.4-1.8,0.9-2.5,1.5c-0.7,0.6-1.3,1.4-1.8,2.3c0-1.1,0.5-2.1,1.3-2.9
					C247.9,77.4,249,76.9,250.1,77.1z"/>
			</g>
			<g>
				<path class="st1" d="M246,75.7c-0.8,0.7-1.6,1.4-2.2,2.2c-0.7,0.8-1.2,1.6-1.8,2.6c0-1.1,0.5-2.2,1.2-3
					C243.9,76.5,244.9,75.9,246,75.7z"/>
			</g>
			<g>
				<path class="st1" d="M240.8,75.8c-0.8,0.6-1.5,1.2-2,1.9c-0.5,0.7-0.9,1.6-1.1,2.5c-0.4-1-0.1-2.1,0.5-3
					C238.7,76.4,239.7,75.8,240.8,75.8z"/>
			</g>
			<g>
				<path class="st1" d="M235.6,75.8c-0.8,0.9-1.4,1.8-1.8,2.8c-0.4,1-0.7,2-0.9,3.2c-0.4-1.1-0.3-2.4,0.2-3.5
					C233.6,77.2,234.5,76.2,235.6,75.8z"/>
			</g>
			<g>
				<path class="st1" d="M230.1,77.8c-0.4,0.7-0.7,1.4-1,2.1c-0.2,0.7-0.4,1.4-0.5,2.3c-0.5-0.7-0.5-1.7-0.2-2.5
					C228.7,78.8,229.3,78.1,230.1,77.8z"/>
			</g>
			<g>
				<path class="st1" d="M273.1,74.5c-0.9,1.4-2.3,2.5-3.7,3.2c-1.5,0.7-3.2,1.2-4.8,1.1c1.6-0.5,3.1-1,4.5-1.7
					C270.5,76.3,271.8,75.4,273.1,74.5z"/>
			</g>
			<g>
				<path class="st1" d="M269.8,71.4c-0.6,1.6-2,3-3.5,3.8c-1.6,0.8-3.4,1.2-5.1,0.8c1.7-0.2,3.3-0.6,4.8-1.4
					C267.4,73.8,268.7,72.7,269.8,71.4z"/>
			</g>
			<g>
				<path class="st1" d="M265.4,69c-0.4,1.6-1.4,3.1-2.7,4.2c-1.3,1.1-2.9,1.8-4.6,1.9c1.5-0.7,2.9-1.5,4.1-2.5
					C263.4,71.5,264.5,70.3,265.4,69z"/>
			</g>
			<g>
				<path class="st1" d="M260.5,67.7c-0.3,1.3-1,2.6-1.9,3.6c-0.9,1-2.1,1.8-3.4,2.2c1-0.9,2-1.8,2.9-2.7
					C259,69.8,259.7,68.8,260.5,67.7z"/>
			</g>
			<g>
				<path class="st1" d="M256.1,66.5c0,1.2-0.6,2.4-1.4,3.4c-0.8,0.9-1.9,1.7-3.1,1.9c1-0.8,1.8-1.5,2.5-2.4
					C254.9,68.6,255.5,67.6,256.1,66.5z"/>
			</g>
			<g>
				<path class="st1" d="M252.2,65.9c0,1.3-0.6,2.6-1.4,3.6c-0.8,1-1.9,1.9-3.1,2.3c1-0.9,1.8-1.7,2.5-2.7
					C251,68.1,251.6,67,252.2,65.9z"/>
			</g>
			<g>
				<path class="st1" d="M247.6,65.5c0.2,1.2-0.1,2.4-0.7,3.5c-0.6,1.1-1.5,2-2.6,2.4c0.7-0.9,1.4-1.8,1.9-2.8
					C246.8,67.6,247.2,66.6,247.6,65.5z"/>
			</g>
			<g>
				<path class="st1" d="M243.2,66.1c0.1,1-0.2,1.9-0.7,2.7c-0.5,0.8-1.2,1.5-2.1,1.8c0.5-0.8,1-1.5,1.5-2.2
					C242.3,67.7,242.7,66.9,243.2,66.1z"/>
			</g>
			<g>
				<path class="st1" d="M239.3,67c-0.2,0.8-0.6,1.5-1,2.2c-0.5,0.7-1,1.3-1.7,1.8c0.2-0.8,0.6-1.5,1-2.2
					C238.1,68.2,238.6,67.5,239.3,67z"/>
			</g>
			<g>
				<path class="st1" d="M299.4,78.4c-0.9,0.4-1.9,0.6-2.9,0.5c-1-0.1-1.9-0.3-2.8-0.6c-1.8-0.5-3.6-1.1-5.5-0.9
					c0.9-0.4,1.9-0.5,2.9-0.4c1,0.1,1.9,0.3,2.8,0.6C295.8,78.1,297.5,78.7,299.4,78.4z"/>
			</g>
			<g>
				<path class="st1" d="M293.4,73.6c-1.4,0.4-2.9,0.5-4.3,0.7c-1.4,0.2-2.9,0.3-4.4,0.3c1.4-0.6,2.8-0.9,4.3-1
					C290.4,73.4,291.9,73.4,293.4,73.6z"/>
			</g>
			<g>
				<path class="st1" d="M289.4,70.6c-1.6,0.3-3.1,0.5-4.6,0.7c-1.5,0.2-3.1,0.5-4.6,0.7c1.4-0.7,3-1.2,4.5-1.4
					C286.2,70.4,287.8,70.3,289.4,70.6z"/>
			</g>
			<g>
				<path class="st1" d="M285.3,67.6c-1.8,0.2-3.5,0.4-5.2,0.8c-1.7,0.4-3.3,1-5,1.6c1.4-1.1,3.1-1.9,4.8-2.3
					C281.7,67.3,283.6,67.2,285.3,67.6z"/>
			</g>
			<g>
				<path class="st1" d="M281,65.6c-1.7-0.4-3.4-0.4-5-0.1c-1.6,0.4-3.1,1.1-4.5,2.3c0.9-1.5,2.6-2.6,4.3-3
					C277.5,64.4,279.5,64.6,281,65.6z"/>
			</g>
			<g>
				<path class="st1" d="M275.5,62.8c-1.5,0-2.9,0.2-4.2,0.7c-1.3,0.5-2.5,1.3-3.6,2.3c0.6-1.4,1.9-2.4,3.3-3
					C272.5,62.2,274.2,62.2,275.5,62.8z"/>
			</g>
			<g>
				<path class="st1" d="M270.9,60.9c-1.5-0.1-3,0.1-4.3,0.7c-1.3,0.6-2.5,1.5-3.5,2.7c0.4-1.5,1.7-2.7,3.2-3.4
					C267.7,60.3,269.5,60.2,270.9,60.9z"/>
			</g>
			<g>
				<path class="st1" d="M265.1,59c-1.5,0-2.8,0.4-4.1,1c-1.2,0.6-2.3,1.5-3.2,2.6c0.4-1.4,1.6-2.6,2.9-3.3
					C262,58.6,263.7,58.4,265.1,59z"/>
			</g>
			<g>
				<path class="st1" d="M259.6,58.1c-1.3,0.3-2.4,0.7-3.4,1.3c-1,0.6-1.9,1.4-2.7,2.4c0.3-1.3,1.2-2.4,2.3-3.1
					C257,58.1,258.4,57.8,259.6,58.1z"/>
			</g>
			<g>
				<path class="st1" d="M254.6,57.6c-1.2,0.2-2.2,0.6-3.1,1.2c-0.9,0.6-1.7,1.3-2.5,2.2c0.2-1.2,1.1-2.2,2.1-2.8
					C252.1,57.5,253.4,57.2,254.6,57.6z"/>
			</g>
			<g>
				<path class="st1" d="M249.8,57.1c-1,0.5-2,0.9-2.9,1.5c-0.9,0.6-1.7,1.2-2.6,1.9c0.4-1.1,1.3-1.9,2.2-2.5
					C247.5,57.4,248.6,57,249.8,57.1z"/>
			</g>
			<g>
				<path class="st1" d="M262.5,49.3c-0.4,0.6-0.8,1.1-1.3,1.6c-0.5,0.5-0.9,0.9-1.6,1.3c0.1-0.7,0.6-1.3,1-1.8
					C261.2,49.8,261.8,49.4,262.5,49.3z"/>
			</g>
			<g>
				<path class="st1" d="M267.2,49.7c-0.8,0.4-1.6,0.8-2.3,1.2c-0.7,0.4-1.4,0.9-2.2,1.5c0.3-0.9,1-1.6,1.8-2.1
					C265.3,49.8,266.2,49.5,267.2,49.7z"/>
			</g>
			<g>
				<path class="st1" d="M271.6,50.9c-0.9,0.3-1.7,0.6-2.4,1c-0.8,0.4-1.4,0.9-2.2,1.4c0.3-0.9,1-1.6,1.9-2
					C269.6,50.8,270.6,50.6,271.6,50.9z"/>
			</g>
			<g>
				<path class="st1" d="M276.9,52.9c-1.1-0.1-2.1,0-3.1,0.2c-1,0.2-1.9,0.7-2.8,1.3c0.5-1,1.5-1.7,2.6-2
					C274.8,52.1,276,52.3,276.9,52.9z"/>
			</g>
			<g>
				<path class="st1" d="M281.2,55.3c-1.1,0-2.2,0-3.2,0.1c-1,0.1-2,0.4-3.1,0.8c0.8-0.9,1.9-1.3,3-1.5
					C279,54.6,280.2,54.7,281.2,55.3z"/>
			</g>
			<g>
				<path class="st1" d="M286,58.6c-1.2-0.3-2.4-0.4-3.6-0.4c-1.2,0-2.3,0.3-3.5,0.7c0.9-0.9,2.2-1.4,3.5-1.5
					C283.7,57.4,285,57.8,286,58.6z"/>
			</g>
			<g>
				<path class="st1" d="M289.6,62.3c-1.2-0.4-2.4-0.6-3.6-0.7c-1.2-0.1-2.4,0.1-3.6,0.3c1-0.8,2.4-1.1,3.7-1.1
					C287.4,60.9,288.7,61.4,289.6,62.3z"/>
			</g>
			<g>
				<path class="st1" d="M292.9,65.9c-1.3-0.4-2.5-0.7-3.8-0.8c-1.3-0.1-2.5-0.1-3.9,0c1.2-0.7,2.6-0.8,3.9-0.7
					C290.5,64.5,291.9,65,292.9,65.9z"/>
			</g>
			<g>
				<path class="st1" d="M295.5,69.7c-1.7-0.7-3.3-1.4-5-1.8c-1.7-0.4-3.4-0.6-5.3-0.8c1.8-0.5,3.7-0.4,5.4,0
					C292.5,67.7,294.2,68.5,295.5,69.7z"/>
			</g>
			<g>
				<path class="st1" d="M305.6,73.3c-0.6,0.1-1.1,0-1.5-0.1c-0.5-0.2-0.9-0.4-1.3-0.9c0.6-0.1,1.1,0,1.5,0.1
					C304.7,72.6,305.2,72.8,305.6,73.3z"/>
			</g>
			<g>
				<path class="st1" d="M304.9,70.3c-0.7-0.4-1.3-0.8-2-1c-0.7-0.2-1.4-0.3-2.2-0.4c0.7-0.5,1.6-0.6,2.4-0.3
					C303.9,68.9,304.7,69.5,304.9,70.3z"/>
			</g>
			<g>
				<path class="st1" d="M303.5,66.5c-0.8-0.4-1.5-0.7-2.3-0.9c-0.8-0.2-1.6-0.3-2.5-0.3c0.7-0.6,1.8-0.7,2.7-0.4
					C302.3,65,303.1,65.6,303.5,66.5z"/>
			</g>
			<g>
				<path class="st1" d="M302.7,63.1c-0.8-0.6-1.6-1-2.5-1.2c-0.9-0.2-1.7-0.2-2.7-0.1c0.7-0.7,1.9-0.9,2.9-0.6
					C301.4,61.5,302.3,62.2,302.7,63.1z"/>
			</g>
			<g>
				<path class="st1" d="M301.6,60.4c-0.9-1-2-1.7-3.1-2.1c-1.2-0.4-2.4-0.5-3.8-0.3c1.1-0.8,2.7-0.9,4-0.4
					C300,58,301.2,59.1,301.6,60.4z"/>
			</g>
			<g>
				<path class="st1" d="M299.3,56.8c-0.9-1-2-1.7-3.2-2c-1.2-0.3-2.5-0.2-3.8,0.2c0.5-0.5,1.1-0.8,1.8-1c0.7-0.2,1.4-0.1,2.1,0
					C297.6,54.4,298.8,55.4,299.3,56.8z"/>
			</g>
			<g>
				<path class="st1" d="M296.1,52c-1.2-0.4-2.3-0.5-3.4-0.3c-1.1,0.2-2.2,0.6-3.1,1.4c0.5-1.1,1.8-1.9,3-2.1
					C293.9,50.7,295.3,51.1,296.1,52z"/>
			</g>
			<g>
				<path class="st1" d="M292.6,49c-1.1-0.5-2.2-0.6-3.2-0.3c-1,0.2-2,0.8-2.8,1.7c0.1-0.6,0.5-1.1,1-1.5c0.5-0.4,1.1-0.7,1.7-0.8
					c0.6-0.1,1.3-0.1,1.9,0.1C291.7,48.1,292.3,48.5,292.6,49z"/>
			</g>
			<g>
				<path class="st1" d="M289,46.1c-1.3,0.1-2.4,0.3-3.5,0.7c-1.1,0.4-2.1,1.1-3,1.9c0.5-1.2,1.5-2.1,2.7-2.6
					C286.4,45.7,287.9,45.6,289,46.1z"/>
			</g>
			<g>
				<path class="st1" d="M286,44.3c-1.3,0.1-2.5,0.4-3.6,0.9c-1.1,0.5-2.1,1.3-2.9,2.3c0.3-1.3,1.4-2.4,2.6-3
					C283.3,44,284.7,43.8,286,44.3z"/>
			</g>
			<g>
				<path class="st1" d="M280.9,43.7c-1,0.5-2,0.9-2.9,1.5c-0.9,0.5-1.8,1.2-2.7,1.8c0.5-1,1.3-1.9,2.3-2.5
					C278.6,44,279.8,43.6,280.9,43.7z"/>
			</g>
			<g>
				<path class="st1" d="M275.3,44c-1,0-1.8,0.2-2.5,0.6c-0.7,0.4-1.4,0.9-1.9,1.7c0-1,0.7-1.9,1.6-2.4
					C273.3,43.4,274.5,43.4,275.3,44z"/>
			</g>
			<g>
				<path class="st1" d="M269.5,42.7c-0.9,0.4-1.7,0.8-2.4,1.3c-0.7,0.5-1.4,1.1-2.1,1.8c0.2-1,0.9-1.8,1.7-2.4
					C267.5,42.8,268.5,42.5,269.5,42.7z"/>
			</g>
			<g>
				<path class="st1" d="M309.7,77.2c0.7,0,1.2-0.1,1.7-0.3c0.5-0.2,0.9-0.5,1.4-1c0.1,0.7-0.5,1.4-1.2,1.7
					C311,77.9,310.1,77.8,309.7,77.2z"/>
			</g>
			<g>
				<path class="st1" d="M308.9,72.5c0.4,0.3,0.8,0.5,1.2,0.5c0.4,0,0.8,0,1.2-0.2c0.8-0.3,1.6-0.8,2.4-1.3l0,0.1
					c0-0.1,0-0.3,0.1-0.4c0.1,0.1,0.1,0.3,0.1,0.4l0,0l0,0.1c-0.2,0.4-0.6,0.8-1,1.1c-0.4,0.3-0.8,0.6-1.3,0.7
					c-0.5,0.2-1.1,0.2-1.6,0C309.5,73.4,309.1,73,308.9,72.5z"/>
			</g>
			<g>
				<path class="st1" d="M308.3,68.8c1.2,0.6,2.4,0.3,3.4-0.3c0.5-0.3,1-0.7,1.4-1.1c0.4-0.4,0.8-0.9,1.1-1.5c0,0.7-0.3,1.3-0.7,1.9
					c-0.4,0.6-0.9,1-1.5,1.3c-0.6,0.3-1.3,0.5-2,0.5C309.4,69.6,308.7,69.3,308.3,68.8z"/>
			</g>
			<g>
				<path class="st1" d="M307.5,65.4c1.3-0.3,2.6-0.5,3.8-0.9c1.2-0.4,2.2-1.1,2.9-2.4c-0.1,0.7-0.3,1.4-0.8,1.9
					c-0.5,0.5-1.1,0.9-1.8,1.2C310.3,65.7,308.9,65.7,307.5,65.4z"/>
			</g>
			<g>
				<path class="st1" d="M306.3,61.5c1.3,0.3,2.6,0.2,3.8-0.1c1.2-0.3,2.4-0.9,3.4-1.7c-0.6,1.2-1.9,2.1-3.2,2.5
					C308.9,62.5,307.4,62.3,306.3,61.5z"/>
			</g>
			<g>
				<path class="st1" d="M305.3,58.7c1.3-0.1,2.5-0.3,3.6-0.8c1.1-0.5,2.1-1.2,3-2c-0.5,1.2-1.5,2.2-2.7,2.7
					C307.9,59.1,306.5,59.2,305.3,58.7z"/>
			</g>
			<g>
				<path class="st1" d="M303.7,55.6c1.1-0.1,2.1-0.3,3-0.7c0.9-0.4,1.7-1,2.5-1.7c-0.3,1.1-1.2,2-2.2,2.4
					C305.9,56.1,304.6,56.2,303.7,55.6z"/>
			</g>
			<g>
				<path class="st1" d="M302.7,53.1c0.8-0.3,1.4-0.5,2.1-0.8c0.7-0.3,1.2-0.7,1.9-1.1c-0.2,0.8-0.9,1.4-1.6,1.8
					C304.3,53.4,303.4,53.5,302.7,53.1z"/>
			</g>
			<g>
				<path class="st1" d="M301.3,50.4c0.5-0.3,0.8-0.4,1.2-0.6c0.4-0.2,0.7-0.4,1.2-0.7c0.1,0.6-0.3,1.1-0.8,1.4
					C302.4,50.7,301.8,50.8,301.3,50.4z"/>
			</g>
			<g>
				<path class="st1" d="M314.1,83.2c1.1-0.2,2.1-0.3,3.2-0.5c1-0.2,2-0.5,3.1-0.8c-0.8,0.8-1.9,1.3-3,1.5
					C316.4,83.6,315.2,83.6,314.1,83.2z"/>
			</g>
			<g>
				<path class="st1" d="M316.7,80.1c1.2,0,2.3,0,3.3-0.2c1.1-0.2,2.1-0.5,3.2-0.8c-0.8,0.9-2,1.4-3.1,1.6
					C318.9,80.9,317.7,80.7,316.7,80.1z"/>
			</g>
			<g>
				<path class="st1" d="M317.7,76.4c1.4,0.3,2.7,0.4,3.9,0.2c1.3-0.2,2.5-0.6,3.7-1.3c-0.8,1.1-2.2,1.8-3.6,2
					C320.3,77.6,318.8,77.3,317.7,76.4z"/>
			</g>
			<g>
				<path class="st1" d="M317.9,72.1c1.6,0.4,3.2,0.4,4.7,0c1.5-0.5,2.8-1.3,3.9-2.6c-0.6,1.6-2.1,2.8-3.7,3.3
					C321.1,73.3,319.2,73.1,317.9,72.1z"/>
			</g>
			<g>
				<path class="st1" d="M317.4,68.8c1.7,0.4,3.3,0.2,4.7-0.5c1.4-0.7,2.6-1.8,3.4-3.3c-0.1,0.8-0.5,1.7-1,2.4
					c-0.5,0.7-1.3,1.3-2.1,1.6c-0.8,0.4-1.7,0.6-2.6,0.5C319,69.5,318.2,69.3,317.4,68.8z"/>
			</g>
			<g>
				<path class="st1" d="M317.1,65.4c1.2,0,2.3-0.2,3.3-0.5c1.1-0.3,2-0.8,3-1.5c-0.6,1.1-1.6,1.8-2.8,2.2
					C319.5,66,318.2,66,317.1,65.4z"/>
			</g>
			<g>
				<path class="st1" d="M336.4,78.1c-1,0.4-2.2,0.3-3.2-0.1c-1-0.4-2-1-2.6-1.9c1,0.5,1.9,0.9,2.9,1.2
					C334.3,77.6,335.3,77.9,336.4,78.1z"/>
			</g>
			<g>
				<path class="st1" d="M336.2,79.5c-1,0.7-2.3,0.9-3.5,0.7c-1.2-0.2-2.4-0.8-3.1-1.8c1.1,0.5,2.1,0.9,3.2,1.1
					C333.9,79.6,335,79.6,336.2,79.5z"/>
			</g>
			<g>
				<path class="st1" d="M335.8,81.9c-1.2,0.8-2.7,1-4.1,0.7c-1.4-0.3-2.7-1.2-3.4-2.4c1.1,0.8,2.3,1.4,3.6,1.7
					C333.1,82.2,334.4,82.2,335.8,81.9z"/>
			</g>
			<g>
				<path class="st1" d="M333.7,84.7c-1,0.7-2.5,0.8-3.7,0.4c-1.2-0.4-2.3-1.3-2.8-2.5c0.9,0.9,1.9,1.5,3,1.8
					C331.3,84.8,332.4,84.9,333.7,84.7z"/>
			</g>
			<g>
				<path class="st1" d="M330.8,87.2c-1,0.6-2.3,0.6-3.4,0.3c-1.1-0.4-2.1-1.2-2.6-2.3c0.9,0.7,1.8,1.3,2.8,1.6
					C328.6,87.1,329.7,87.3,330.8,87.2z"/>
			</g>
			<g>
				<path class="st1" d="M327.4,90.2c-1,0.4-2.2,0.2-3.1-0.3c-0.9-0.5-1.7-1.4-1.9-2.5c0.7,0.8,1.4,1.4,2.2,1.8
					C325.5,89.8,326.4,90.1,327.4,90.2z"/>
			</g>
			<g>
				<path class="st1" d="M323.4,91.6c-0.7,0.3-1.5,0.1-2.1-0.2c-0.6-0.4-1.2-0.9-1.3-1.7c0.6,0.4,1.1,0.7,1.7,1
					C322.1,91,322.7,91.2,323.4,91.6z"/>
			</g>
			<g>
				<path class="st1" d="M319.5,92.5c-0.4,0.3-1,0.3-1.4,0.1c-0.4-0.2-0.8-0.6-0.8-1.1c0.5,0.1,0.8,0.3,1.2,0.4
					C318.8,92.1,319.1,92.2,319.5,92.5z"/>
			</g>
			<g>
				<path class="st1" d="M341.1,86.8c-0.9,0.5-2.1,0.6-3.1,0.3c-1-0.3-2-0.9-2.5-1.9c0.9,0.5,1.8,0.9,2.7,1.1
					C339.2,86.6,340.1,86.8,341.1,86.8z"/>
			</g>
			<g>
				<path class="st1" d="M340.2,83.8c-0.6,0.4-1.3,0.4-2,0.3c-0.7-0.1-1.3-0.5-1.7-1.1c0.7,0.1,1.3,0.2,1.8,0.3
					C338.9,83.5,339.5,83.6,340.2,83.8z"/>
			</g>
			<g>
				<path class="st1" d="M334.8,87.9c0.9,0.3,1.6,0.6,2.4,0.8c0.8,0.2,1.6,0.3,2.5,0.5c-0.8,0.4-1.8,0.5-2.7,0.2
					C336.2,89.1,335.4,88.7,334.8,87.9z"/>
			</g>
			<g>
				<path class="st1" d="M333.8,90.2c0.7,0.5,1.3,0.9,1.9,1.2c0.7,0.3,1.3,0.5,2.2,0.7c-0.7,0.4-1.7,0.4-2.5,0
					C334.6,91.7,333.9,91,333.8,90.2z"/>
			</g>
			<g>
				<path class="st1" d="M332,92.5c0.7,0.5,1.3,0.9,1.9,1.2c0.6,0.3,1.3,0.6,2.1,0.9c-0.8,0.3-1.7,0.2-2.4-0.2
					C332.8,94,332.2,93.3,332,92.5z"/>
			</g>
			<g>
				<path class="st1" d="M330.6,94.6c0.6,0.4,1.1,0.8,1.6,1.1c0.5,0.3,1.1,0.6,1.7,0.9c-0.7,0.3-1.5,0.1-2.1-0.3
					C331.2,96,330.7,95.4,330.6,94.6z"/>
			</g>
			<g>
				<path class="st1" d="M328.5,96.4c0.5,0.3,0.9,0.6,1.4,0.9c0.4,0.3,0.8,0.6,1.3,1c-0.6,0.2-1.2,0-1.7-0.4
					C329,97.6,328.6,97.1,328.5,96.4z"/>
			</g>
			<g>
				<path class="st1" d="M326.3,98.8c0.5,0.1,0.8,0.2,1.1,0.4c0.3,0.2,0.6,0.4,0.8,0.8c-0.4,0.2-0.9,0.1-1.2-0.1
					C326.6,99.6,326.3,99.3,326.3,98.8z"/>
			</g>
			<g>
				<path class="st1" d="M332.8,102.6c-0.4,1.6-1.6,3-3,3.9c-1.4,0.9-3.2,1.3-4.8,1c1.6-0.3,3.1-0.8,4.4-1.7
					C330.7,105,331.8,103.9,332.8,102.6z"/>
			</g>
			<g>
				<path class="st1" d="M333,107.2c-0.2,1-0.9,1.8-1.7,2.3c-0.8,0.5-1.8,0.8-2.8,0.7c0.9-0.4,1.7-0.8,2.4-1.3
					C331.7,108.4,332.3,107.8,333,107.2z"/>
			</g>
			<g>
				<path class="st1" d="M336.5,129.1c-0.3,0.9-1,1.6-1.7,2.1c-0.8,0.5-1.6,0.9-2.6,0.9c0.7-0.6,1.4-1,2.1-1.5
					C335,130.1,335.7,129.5,336.5,129.1z"/>
			</g>
			<g>
				<path class="st1" d="M337,123.4c-0.3,1-1,1.7-1.8,2.3c-0.8,0.6-1.8,1-2.8,0.9c0.8-0.5,1.6-1,2.3-1.5
					C335.6,124.6,336.3,124,337,123.4z"/>
			</g>
			<g>
				<path class="st1" d="M337.1,117.2c-0.2,1.1-0.9,2.1-1.7,2.9c-0.8,0.8-1.8,1.3-3,1.5c0.9-0.7,1.7-1.3,2.4-2
					C335.7,118.8,336.4,118,337.1,117.2z"/>
			</g>
			<g>
				<path class="st1" d="M337.6,111.9c-0.2,1-0.9,1.8-1.7,2.4c-0.8,0.6-1.8,0.9-2.8,0.8c0.9-0.5,1.7-0.9,2.4-1.4
					C336.2,113.1,336.9,112.5,337.6,111.9z"/>
			</g>
			<g>
				<path class="st1" d="M337.3,107.4c-0.1,0.8-0.7,1.5-1.4,1.9c-0.7,0.4-1.6,0.6-2.3,0.3c0.7-0.3,1.3-0.6,1.9-1
					C336.1,108.3,336.6,107.9,337.3,107.4z"/>
			</g>
			<g>
				<path class="st1" d="M337.3,102.9c-0.2,0.9-0.7,1.6-1.4,2.1c-0.7,0.5-1.6,0.8-2.4,0.6c0.7-0.4,1.4-0.8,2-1.2
					C336.1,104,336.6,103.5,337.3,102.9z"/>
			</g>
			<g>
				<path class="st1" d="M337.2,98.9c-0.3,0.8-0.8,1.3-1.4,1.8c-0.6,0.4-1.4,0.7-2.2,0.7c0.6-0.5,1.2-0.9,1.8-1.3
					C335.9,99.7,336.5,99.3,337.2,98.9z"/>
			</g>
			<g>
				<path class="st1" d="M342.6,126.4c-0.2,1.3-1,2.4-2.1,3.2c-1.1,0.8-2.4,1.2-3.7,0.9c1.2-0.3,2.3-0.8,3.2-1.5
					C341.1,128.3,341.9,127.5,342.6,126.4z"/>
			</g>
			<g>
				<path class="st1" d="M342.7,120.7c-0.3,1.2-1,2.2-1.9,3c-0.9,0.8-2.1,1.3-3.3,1.4c1-0.6,2-1.2,2.8-2
					C341.1,122.4,341.9,121.6,342.7,120.7z"/>
			</g>
			<g>
				<path class="st1" d="M342.7,116c-0.1,1.2-0.7,2.3-1.6,3.1c-0.9,0.8-2.1,1.3-3.3,1.2c1.1-0.5,2-1,2.8-1.7
					C341.4,117.8,342,116.9,342.7,116z"/>
			</g>
			<g>
				<path class="st1" d="M342.2,111.3c-0.3,0.8-0.9,1.4-1.6,1.9c-0.7,0.4-1.5,0.7-2.4,0.7c0.7-0.5,1.4-0.9,2-1.3
					C340.8,112.2,341.4,111.8,342.2,111.3z"/>
			</g>
			<g>
				<path class="st1" d="M341.1,106.2c-0.1,0.8-0.6,1.5-1.3,2.1c-0.6,0.5-1.4,0.9-2.3,0.9c0.6-0.6,1.2-1,1.8-1.5
					C339.9,107.2,340.4,106.7,341.1,106.2z"/>
			</g>
			<g>
				<path class="st1" d="M340.4,101.8c-0.1,0.6-0.5,1.2-0.9,1.6c-0.5,0.4-1,0.7-1.6,0.7c0.3-0.5,0.7-0.9,1.1-1.3
					C339.4,102.4,339.8,102.1,340.4,101.8z"/>
			</g>
			<g>
				<path class="st1" d="M339.5,98c0,0.5-0.3,1-0.6,1.3c-0.4,0.3-0.8,0.6-1.3,0.5c0.2-0.5,0.5-0.8,0.8-1.1
					C338.7,98.5,339,98.2,339.5,98z"/>
			</g>
			<g>
				<path class="st1" d="M343.3,101.8c0,0.6-0.2,1-0.5,1.4c-0.3,0.4-0.7,0.7-1.3,0.8c0.2-0.5,0.4-0.9,0.7-1.3
					C342.5,102.4,342.8,102.1,343.3,101.8z"/>
			</g>
			<g>
				<path class="st1" d="M344.6,106c0.2,0.7-0.1,1.4-0.5,2c-0.4,0.6-1.1,1-1.8,1c0.5-0.5,0.9-1,1.2-1.4
					C343.9,107,344.2,106.6,344.6,106z"/>
			</g>
			<g>
				<path class="st1" d="M345.8,110.3c0.1,0.8-0.3,1.7-0.9,2.3c-0.6,0.6-1.5,1-2.3,0.9c0.7-0.5,1.3-0.9,1.8-1.4
					C344.9,111.5,345.3,111,345.8,110.3z"/>
			</g>
			<g>
				<path class="st1" d="M346.7,114.5c0,0.9-0.5,1.7-1.1,2.4c-0.6,0.6-1.5,1.1-2.4,1.1c0.7-0.6,1.3-1.1,1.8-1.6
					C345.7,115.7,346.2,115.1,346.7,114.5z"/>
			</g>
			<g>
				<path class="st1" d="M347.7,118.9c0,1.1-0.6,2.1-1.4,2.9c-0.8,0.8-1.9,1.3-2.9,1.3c0.9-0.5,1.7-1.1,2.4-1.8
					C346.5,120.5,347.1,119.8,347.7,118.9z"/>
			</g>
			<g>
				<path class="st1" d="M348.2,122.8c0,1.2-0.6,2.4-1.5,3.2c-0.9,0.8-2.1,1.4-3.3,1.3c1.1-0.5,2-1.1,2.8-1.8
					C346.9,124.7,347.6,123.8,348.2,122.8z"/>
			</g>
			<g>
				<path class="st1" d="M348.3,127.9c-0.1,1-0.6,1.9-1.3,2.6c-0.7,0.7-1.6,1.2-2.6,1.2c0.8-0.6,1.5-1.1,2.1-1.7
					C347.1,129.3,347.6,128.6,348.3,127.9z"/>
			</g>
			<g>
				<path class="st1" d="M348.6,132.9c-0.2,0.6-0.6,1.1-1.1,1.4c-0.5,0.3-1.1,0.6-1.7,0.5c0.4-0.5,0.9-0.8,1.3-1.1
					C347.6,133.4,348,133.1,348.6,132.9z"/>
			</g>
			<g>
				<path class="st1" d="M343.1,92.5c-0.2,0.5-0.5,0.9-0.9,1.2c-0.4,0.3-0.8,0.6-1.3,0.6c0.2-0.5,0.5-0.9,0.9-1.2
					C342.1,92.8,342.5,92.6,343.1,92.5z"/>
			</g>
			<g>
				<path class="st1" d="M346.6,98c-0.4,0.6-0.9,1.1-1.5,1.5c-0.6,0.4-1.1,0.8-1.8,1.1c0.3-0.7,0.8-1.2,1.4-1.7
					C345.2,98.5,345.9,98.1,346.6,98z"/>
			</g>
			<g>
				<path class="st1" d="M349.6,104.1c-0.4,0.8-1,1.4-1.7,2c-0.6,0.6-1.3,1.1-2.2,1.5c0.4-0.8,1-1.4,1.7-2
					C348.1,105,348.8,104.4,349.6,104.1z"/>
			</g>
			<g>
				<path class="st1" d="M351.6,112.2c-0.5,0.6-1.2,1-1.9,1.3c-0.7,0.3-1.5,0.4-2.2,0.3c0.6-0.4,1.3-0.7,2-1
					C350.2,112.5,350.8,112.3,351.6,112.2z"/>
			</g>
			<g>
				<path class="st1" d="M353.4,120.2c-0.6,0.7-1.4,1.2-2.2,1.6c-0.8,0.4-1.7,0.6-2.7,0.6c0.8-0.5,1.6-0.9,2.4-1.3
					C351.7,120.8,352.5,120.4,353.4,120.2z"/>
			</g>
			<g>
				<path class="st1" d="M353.3,128.5c-0.6,0.6-1.3,1-2,1.3c-0.7,0.3-1.5,0.6-2.3,0.7c0.6-0.6,1.3-1,2-1.3
					C351.7,128.9,352.4,128.6,353.3,128.5z"/>
			</g>
			<g>
				<path class="st1" d="M353.3,136.6c-0.7,0.3-1.4,0.5-2,0.7c-0.7,0.2-1.3,0.4-2,0.6c0.4-0.7,1.1-1.1,1.8-1.3
					C351.7,136.4,352.5,136.4,353.3,136.6z"/>
			</g>
			<g>
				<path class="st1" d="M352.8,143.8c-0.8,0.3-1.4,0.5-2.1,0.8c-0.7,0.3-1.3,0.6-2,0.9c0.3-0.8,1-1.3,1.7-1.6
					C351.2,143.6,352.1,143.5,352.8,143.8z"/>
			</g>
			<g>
				<path class="st1" d="M353.1,150.2c-0.8,0.3-1.6,0.6-2.3,0.9c-0.8,0.3-1.5,0.7-2.3,1c0.4-0.8,1.2-1.3,2-1.7
					C351.3,150.1,352.3,150,353.1,150.2z"/>
			</g>
			<g>
				<path class="st1" d="M354.2,158.3c-1.2,0.1-2.4,0.2-3.5,0.4c-1.1,0.2-2.2,0.5-3.4,0.9c0.9-0.9,2.1-1.4,3.3-1.6
					C351.8,157.7,353.1,157.8,354.2,158.3z"/>
			</g>
			<g>
				<path class="st1" d="M353.3,166.8c-1.2,0.2-2.3,0.3-3.4,0.6c-1.1,0.2-2.2,0.5-3.3,0.8c0.9-0.8,2-1.3,3.2-1.6
					C350.9,166.4,352.1,166.4,353.3,166.8z"/>
			</g>
			<g>
				<path class="st1" d="M353,173.4c-1.1-0.1-2.1-0.2-3.1-0.1c-1,0.1-2,0.2-3.1,0.5c0.8-0.8,1.9-1.2,3.1-1.2
					C350.9,172.4,352.1,172.7,353,173.4z"/>
			</g>
			<g>
				<path class="st1" d="M352.9,180.6c-1.1,0.1-2.1,0-3.1,0.1c-1,0-2,0.1-3.1,0.1c0.9-0.6,2-0.8,3.1-0.8
					C350.8,179.9,351.9,180,352.9,180.6z"/>
			</g>
			<g>
				<path class="st1" d="M352,188.2c-1.2-0.3-2.3-0.5-3.4-0.6c-1.1-0.1-2.2,0-3.4,0.2c1-0.7,2.3-1,3.5-0.9
					C349.9,187,351.1,187.4,352,188.2z"/>
			</g>
			<g>
				<path class="st1" d="M351.4,195.6c-1.6-0.3-3.1-0.5-4.7-0.5c-1.5-0.1-3.1,0-4.7,0.2c1.4-0.7,3.1-1,4.7-0.9
					C348.4,194.4,350,194.8,351.4,195.6z"/>
			</g>
			<g>
				<path class="st1" d="M351.2,200.5c-1.6-0.6-3.2-1.1-4.9-1.3c-1.7-0.2-3.3-0.2-5.1,0c1.6-0.8,3.4-1,5.2-0.8
					C348.2,198.7,349.9,199.3,351.2,200.5z"/>
			</g>
			<g>
				<path class="st1" d="M348.8,205.6c-1.5-0.6-3-1-4.6-1.1c-1.6-0.1-3.1,0.1-4.7,0.6c1.3-1,3.1-1.4,4.7-1.3
					C345.9,203.9,347.6,204.5,348.8,205.6z"/>
			</g>
			<g>
				<path class="st1" d="M346,211.8c-1.3-0.2-2.4-0.3-3.6-0.3c-1.2,0-2.4,0.2-3.6,0.4c1-0.8,2.3-1.2,3.6-1.2
					C343.7,210.7,345,211,346,211.8z"/>
			</g>
			<g>
				<path class="st1" d="M344,219.2c-0.9-0.3-1.8-0.6-2.7-0.7c-0.9-0.2-1.8-0.2-2.8-0.2c0.8-0.6,1.9-0.7,2.9-0.5
					C342.4,217.9,343.4,218.3,344,219.2z"/>
			</g>
			<g>
				<path class="st1" d="M340.7,227.3c-0.9-0.2-1.8-0.4-2.7-0.4c-0.9,0-1.7,0-2.7,0.2c0.7-0.7,1.7-0.9,2.7-0.9
					C339,226.2,340,226.5,340.7,227.3z"/>
			</g>
			<g>
				<path class="st1" d="M337.2,218.7c-1.4,0.3-2.7,0.7-4,1.2c-1.3,0.6-2.4,1.3-3.6,2.1c0.7-1.3,1.9-2.2,3.3-2.8
					C334.3,218.7,335.8,218.4,337.2,218.7z"/>
			</g>
			<g>
				<path class="st1" d="M338.5,214c-1.6,0.2-3.2,0.4-4.7,0.9c-1.5,0.5-2.9,1.1-4.4,1.9c1.1-1.3,2.6-2.1,4.1-2.7
					C335.2,213.7,336.9,213.5,338.5,214z"/>
			</g>
			<g>
				<path class="st1" d="M338.6,209.1c-1,0-1.8,0.1-2.7,0.3c-0.9,0.2-1.7,0.5-2.5,0.9c0.5-0.9,1.4-1.4,2.4-1.7
					C336.7,208.4,337.8,208.5,338.6,209.1z"/>
			</g>
			<g>
				<path class="st1" d="M339.9,202.1c-0.8,0.3-1.5,0.5-2.3,0.7c-0.7,0.2-1.4,0.5-2.3,0.7c0.5-0.7,1.2-1.2,2-1.5
					C338.2,201.9,339.1,201.8,339.9,202.1z"/>
			</g>
			<g>
				<path class="st1" d="M341.5,196.9c-1.2-0.1-2.3-0.1-3.4-0.1c-1.1,0.1-2.2,0.2-3.4,0.4c0.9-0.7,2.2-1.1,3.4-1.2
					C339.3,196,340.5,196.2,341.5,196.9z"/>
			</g>
			<g>
				<path class="st1" d="M343.7,191.5c-1.2-0.2-2.4-0.3-3.5-0.3c-1.2,0-2.3,0.2-3.5,0.4c1-0.8,2.3-1.1,3.5-1.1
					C341.4,190.5,342.6,190.8,343.7,191.5z"/>
			</g>
			<g>
				<path class="st1" d="M345.3,185c-1.1-0.2-2.1-0.3-3.1-0.3c-1,0-2,0.1-3.1,0.2c0.9-0.7,2-1,3.1-1
					C343.3,184,344.5,184.3,345.3,185z"/>
			</g>
			<g>
				<path class="st1" d="M346,179.2c-1.2-0.1-2.3-0.1-3.4,0.1c-1.1,0.1-2.2,0.4-3.3,0.8c0.8-0.9,2-1.4,3.2-1.5
					C343.7,178.4,345,178.5,346,179.2z"/>
			</g>
			<g>
				<path class="st1" d="M346.1,175.1c-1.3-0.2-2.5-0.3-3.7-0.1c-1.2,0.2-2.3,0.6-3.5,1.2c0.8-1.1,2.1-1.7,3.4-1.9
					C343.6,174.1,345,174.3,346.1,175.1z"/>
			</g>
			<g>
				<path class="st1" d="M346,170.9c-1.2-0.5-2.5-0.7-3.7-0.6c-1.2,0.2-2.4,0.6-3.4,1.5c0.6-1.2,1.9-2,3.3-2.2
					C343.6,169.4,345.1,169.9,346,170.9z"/>
			</g>
			<g>
				<path class="st1" d="M346.7,166.9c-1.2-0.2-2.4-0.3-3.5-0.2c-1.2,0.1-2.3,0.4-3.4,0.9c0.8-1,2.1-1.5,3.4-1.6
					C344.4,165.9,345.7,166.2,346.7,166.9z"/>
			</g>
			<g>
				<path class="st1" d="M346.7,162.7c-0.8-0.4-1.6-0.6-2.4-0.7c-0.8-0.1-1.6,0-2.5,0.3c0.6-0.8,1.6-1.2,2.6-1.1
					C345.2,161.4,346.2,161.9,346.7,162.7z"/>
			</g>
			<g>
				<path class="st1" d="M347.1,157.9c-0.8-0.1-1.5-0.2-2.3-0.3c-0.7-0.1-1.5,0-2.3-0.1c0.6-0.6,1.5-0.7,2.3-0.7
					C345.7,157,346.6,157.3,347.1,157.9z"/>
			</g>
			<g>
				<path class="st1" d="M347.3,153.8c-1-0.3-1.9-0.5-2.9-0.4c-1,0-1.9,0.3-2.8,0.7c0.6-0.9,1.7-1.4,2.8-1.4
					C345.5,152.6,346.6,153,347.3,153.8z"/>
			</g>
			<g>
				<path class="st1" d="M348,149.2c-0.6,0-1.1,0-1.6,0c-0.5,0-1,0-1.6-0.1c0.4-0.5,1-0.7,1.6-0.7
					C347.1,148.4,347.7,148.7,348,149.2z"/>
			</g>
			<g>
				<path class="st1" d="M348,137.9c-0.1,0.3-0.3,0.4-0.4,0.5c-0.2,0-0.4,0-0.6-0.2c0.1-0.3,0.3-0.4,0.4-0.5
					C347.6,137.6,347.8,137.6,348,137.9z"/>
			</g>
			<g>
				<path class="st1" d="M341.3,159.5c-0.8-0.3-1.5-0.5-2.2-0.5c-0.7,0-1.4,0.1-2.2,0.4c0.4-0.8,1.4-1.2,2.2-1.1
					C340,158.3,340.9,158.7,341.3,159.5z"/>
			</g>
			<g>
				<path class="st1" d="M339.9,164.8c-0.6-0.3-1.1-0.5-1.7-0.6c-0.5-0.2-1.1-0.2-1.8-0.3c0.5-0.5,1.3-0.6,2-0.4
					C339.1,163.6,339.7,164.1,339.9,164.8z"/>
			</g>
			<g>
				<path class="st1" d="M338.3,169.9c-0.7-0.5-1.4-0.8-2.2-1c-0.8-0.2-1.5-0.2-2.4,0.1c0.6-0.7,1.6-1,2.6-0.8
					C337.2,168.4,338,169,338.3,169.9z"/>
			</g>
			<g>
				<path class="st1" d="M338.2,174.8c-1-0.6-1.9-0.9-2.9-0.9c-1-0.1-2,0.1-3,0.6c0.6-1,1.9-1.4,3-1.4
					C336.5,173.2,337.7,173.8,338.2,174.8z"/>
			</g>
			<g>
				<path class="st1" d="M338.9,179.5c-1.2-0.7-2.4-1.1-3.7-1.4c-1.3-0.3-2.5-0.3-3.9-0.2c1.2-0.7,2.7-0.8,4.1-0.5
					C336.7,177.6,338,178.4,338.9,179.5z"/>
			</g>
			<g>
				<path class="st1" d="M338.6,183c-1.4-0.4-2.8-0.7-4.1-0.8c-1.4-0.1-2.8,0-4.2,0.1c1.3-0.7,2.8-1,4.3-0.9
					C336,181.6,337.5,182.1,338.6,183z"/>
			</g>
			<g>
				<path class="st1" d="M338.2,187.4c-1.6-0.2-3.1-0.3-4.7-0.3c-1.5,0-3.1,0.2-4.7,0.4c1.4-0.8,3-1.1,4.7-1.2
					C335.1,186.4,336.8,186.7,338.2,187.4z"/>
			</g>
			<g>
				<path class="st1" d="M336,192.1c-1.3-0.2-2.6-0.4-3.9-0.4c-1.3,0-2.6,0.2-3.9,0.4c1.1-0.8,2.5-1.1,3.9-1.1
					C333.5,191,334.9,191.3,336,192.1z"/>
			</g>
			<g>
				<path class="st1" d="M334.6,196.6c-1.3-0.2-2.6-0.3-3.9-0.2c-1.3,0.1-2.5,0.4-3.8,0.9c1-1,2.3-1.5,3.7-1.7
					C332,195.6,333.5,195.8,334.6,196.6z"/>
			</g>
			<g>
				<path class="st1" d="M334.4,201.3c-1.4-0.6-2.8-0.9-4.2-0.8c-1.4,0-2.8,0.4-4.1,1.1c1-1.2,2.6-1.8,4.1-1.8
					C331.7,199.7,333.3,200.2,334.4,201.3z"/>
			</g>
			<g>
				<path class="st1" d="M334,205.1c-1.6-0.3-3.1-0.5-4.6-0.4c-1.5,0.1-3,0.4-4.5,0.9c1.2-1,2.8-1.5,4.4-1.6
					C331,203.9,332.7,204.3,334,205.1z"/>
			</g>
			<g>
				<path class="st1" d="M332.7,209c-1.5-0.1-2.9-0.2-4.3,0c-1.4,0.1-2.8,0.4-4.2,0.7c1.2-0.9,2.7-1.3,4.2-1.4
					C329.9,208.1,331.4,208.3,332.7,209z"/>
			</g>
			<g>
				<path class="st1" d="M330.4,213.5c-1.2-0.3-2.3-0.4-3.5-0.3c-1.1,0.1-2.2,0.4-3.4,0.9c0.8-1,2.1-1.5,3.3-1.6
					C328.1,212.4,329.4,212.7,330.4,213.5z"/>
			</g>
			<g>
				<path class="st1" d="M328.3,218c-0.9,0.2-1.6,0.3-2.4,0.6c-0.8,0.2-1.5,0.5-2.3,0.7c0.5-0.7,1.3-1.2,2.1-1.5
					C326.6,217.6,327.5,217.6,328.3,218z"/>
			</g>
			<g>
				<path class="st1" d="M328.8,223.1c-1.1-0.3-2-0.3-3-0.2c-1,0.1-1.9,0.5-2.8,1c0.5-1,1.6-1.6,2.7-1.7
					C326.8,222,328,222.3,328.8,223.1z"/>
			</g>
			<g>
				<path class="st1" d="M328.6,227.2c-1.3-0.2-2.5-0.2-3.7-0.1c-1.2,0.1-2.4,0.4-3.6,0.9c0.9-0.9,2.2-1.5,3.5-1.6
					C326.1,226.3,327.5,226.5,328.6,227.2z"/>
			</g>
			<g>
				<path class="st1" d="M326.9,231.6c-1.1-0.1-2-0.1-3,0.1c-1,0.2-1.8,0.5-2.8,0.9c0.6-0.9,1.6-1.5,2.7-1.7
					C324.8,230.8,326,231,326.9,231.6z"/>
			</g>
			<g>
				<path class="st1" d="M327.4,236.3c-1.2-0.4-2.4-0.5-3.5-0.3c-1.2,0.1-2.3,0.5-3.4,1.1c0.7-1.1,2-1.7,3.3-1.9
					C325.1,235,326.5,235.4,327.4,236.3z"/>
			</g>
			<g>
				<path class="st1" d="M318.5,229.4c-1.1,0.6-2.4,0.8-3.6,0.9c-1.2,0-2.5-0.3-3.6-0.9c1.2,0,2.4,0.1,3.6,0.1
					C316.1,229.5,317.2,229.4,318.5,229.4z"/>
			</g>
			<g>
				<path class="st1" d="M314.7,224.4c1.5-0.1,2.9-0.4,4.2-0.9c1.3-0.6,2.5-1.4,3.6-2.4c-0.6,1.4-1.9,2.4-3.3,3.1
					C317.7,224.7,316.1,224.9,314.7,224.4z"/>
			</g>
			<g>
				<path class="st1" d="M313.7,217c1.6-0.2,3.2-0.3,4.8-0.6c1.6-0.3,3-0.8,4.4-1.7c-0.5,0.7-1.1,1.3-1.9,1.7
					c-0.7,0.4-1.6,0.7-2.4,0.8C316.9,217.5,315.3,217.4,313.7,217z"/>
			</g>
			<g>
				<path class="st1" d="M316.2,211.7c1.5-0.2,2.9-0.4,4.2-0.8c1.3-0.4,2.6-1,3.9-1.8c-0.9,1.2-2.2,2-3.7,2.5
					C319.1,212,317.6,212.2,316.2,211.7z"/>
			</g>
			<g>
				<path class="st1" d="M316.8,205.8c0.3-0.7,1-1.4,1.7-1.7c0.8-0.4,1.6-0.5,2.4-0.6c0.8-0.1,1.6-0.1,2.3-0.2
					c0.7-0.1,1.5-0.3,2.1-0.8c-0.4,0.7-1.2,1.2-2,1.4c-0.8,0.2-1.6,0.3-2.4,0.4c-0.8,0.1-1.5,0.2-2.2,0.4
					C318,204.9,317.3,205.3,316.8,205.8z"/>
			</g>
			<g>
				<path class="st1" d="M318.4,198.8c0.4-0.7,1.1-1.3,1.9-1.6c0.8-0.3,1.6-0.5,2.4-0.6c1.6-0.3,3.2-0.4,4.6-1.4
					c-0.4,0.7-1.2,1.3-2,1.6c-0.8,0.3-1.6,0.5-2.4,0.6C321.2,197.6,319.6,197.7,318.4,198.8z"/>
			</g>
			<g>
				<path class="st1" d="M320,192.9c0.4-0.8,1.1-1.5,1.8-1.9c0.8-0.5,1.6-0.8,2.4-1.1c1.6-0.6,3.2-1.1,4.4-2.4c-0.3,0.8-1,1.5-1.8,2
					c-0.8,0.5-1.6,0.8-2.4,1.1C322.9,191.2,321.2,191.7,320,192.9z"/>
			</g>
			<g>
				<path class="st1" d="M330.5,180.5c-0.6,0.9-1.5,1.6-2.5,2c-1,0.4-2.1,0.6-3.2,0.4c1-0.4,2-0.7,2.9-1.1
					C328.6,181.4,329.5,180.9,330.5,180.5z"/>
			</g>
			<g>
				<path class="st1" d="M331.2,175.2c-0.5,0.8-1.4,1.3-2.3,1.6c-0.9,0.3-1.9,0.3-2.8-0.1c0.9-0.2,1.7-0.4,2.5-0.6
					C329.6,175.8,330.3,175.4,331.2,175.2z"/>
			</g>
			<g>
				<path class="st1" d="M324.8,172.6c1.9-0.4,3.7-1,5.3-1.9c1.6-0.9,3.1-2.1,4.4-3.5c-0.8,1.8-2.3,3.2-4,4.1
					C328.8,172.3,326.8,172.8,324.8,172.6z"/>
			</g>
			<g>
				<path class="st1" d="M327.3,167.3c1.8-0.6,3.5-1.4,5-2.5c1.5-1.1,2.8-2.5,3.9-4c-0.6,1.8-1.9,3.4-3.4,4.6
					C331.2,166.5,329.3,167.3,327.3,167.3z"/>
			</g>
			<g>
				<path class="st1" d="M331,160.1c0.8-0.6,1.7-1,2.5-1.4c0.9-0.4,1.7-0.8,2.7-1.2c-0.6,0.8-1.5,1.4-2.3,1.8
					C332.9,159.8,332,160.1,331,160.1z"/>
			</g>
			<g>
				<path class="st1" d="M325.2,177.6c-1,1.7-2.5,3-4.2,4c-1.7,0.9-3.7,1.5-5.6,1.4c1.9-0.5,3.6-1.1,5.2-2
					C322.3,180,323.8,178.9,325.2,177.6z"/>
			</g>
			<g>
				<path class="st1" d="M323.9,184c-0.9,1.4-2.3,2.4-3.9,3c-1.6,0.6-3.3,0.8-4.9,0.3c1.6-0.1,3.2-0.4,4.6-1
					C321.2,185.7,322.6,184.9,323.9,184z"/>
			</g>
			<g>
				<path class="st1" d="M321,190.2c-0.9,1.1-2.3,1.8-3.7,2c-1.4,0.2-3,0-4.2-0.7c1.4,0.2,2.7,0.2,4,0
					C318.5,191.3,319.7,190.9,321,190.2z"/>
			</g>
			<g>
				<path class="st1" d="M318.8,195.8c-0.6,0.9-1.7,1.4-2.7,1.6c-1.1,0.2-2.2,0-3.1-0.7l0,0l0,0l0-0.1l0.1,0.1l0,0
					c1.1,0.1,2,0.1,3,0C316.9,196.6,317.8,196.3,318.8,195.8z"/>
			</g>
			<g>
				<path class="st1" d="M316.9,200.2c-0.6,0.9-1.6,1.5-2.7,1.8c-1.1,0.2-2.3,0.1-3.2-0.5c1.1,0.1,2.1,0,3-0.2
					C315,201.1,315.9,200.7,316.9,200.2z"/>
			</g>
			<g>
				<path class="st1" d="M316.3,204.7c-0.6,0.8-1.6,1.2-2.5,1.4c-1,0.2-2,0.2-2.9-0.2c1-0.2,1.9-0.3,2.7-0.5
					C314.5,205.2,315.3,204.9,316.3,204.7z"/>
			</g>
			<g>
				<path class="st1" d="M303.3,203.3c0.8-0.9,2-1.5,3.2-1.7c1.2-0.2,2.5,0,3.5,0.7c-1.2-0.1-2.3-0.1-3.4,0
					C305.4,202.5,304.4,202.9,303.3,203.3z"/>
			</g>
			<g>
				<path class="st1" d="M305.4,198.1c0.9-0.8,2.2-1.2,3.4-1.3c1.2-0.1,2.5,0.1,3.5,0.7c-1.2-0.1-2.3-0.1-3.5,0
					C307.7,197.6,306.6,197.8,305.4,198.1z"/>
			</g>
			<g>
				<path class="st1" d="M304.8,193c0.4-0.7,1.1-1.2,1.8-1.5c0.7-0.4,1.5-0.6,2.2-0.7c1.5-0.3,3-0.4,4.5-0.9
					c-0.6,0.5-1.3,0.8-2.1,1.1c-0.7,0.2-1.5,0.4-2.2,0.5C307.5,191.8,306.1,192.1,304.8,193z"/>
			</g>
			<g>
				<path class="st1" d="M304.5,190.2c0.6-0.8,1.5-1.4,2.4-1.8c0.9-0.5,1.9-0.8,2.8-1.1c1-0.3,1.9-0.6,2.8-0.9
					c0.9-0.4,1.8-0.8,2.5-1.5c-0.5,0.9-1.4,1.5-2.3,2c-0.9,0.5-1.9,0.8-2.8,1.1C308,188.6,306.1,189.1,304.5,190.2z"/>
			</g>
			<g>
				<path class="st1" d="M304.5,192.4c-1.3,0.3-2.5,0.6-3.6,1.1c-1.1,0.5-2.2,1.2-3.2,2c0.6-1.2,1.7-2.1,2.9-2.7
					C301.8,192.3,303.2,192.1,304.5,192.4z"/>
			</g>
			<g>
				<path class="st1" d="M305.7,196.5c-1.4,0.2-2.7,0.5-3.9,0.9c-1.3,0.4-2.4,1-3.7,1.6c0.9-1.1,2.1-1.9,3.5-2.3
					C302.9,196.3,304.3,196.1,305.7,196.5z"/>
			</g>
			<g>
				<path class="st1" d="M303,201.6c-0.9,0-1.6,0-2.4,0c-0.8,0-1.5,0.1-2.4,0.2c0.6-0.6,1.5-0.9,2.3-1
					C301.5,200.9,302.4,201.1,303,201.6z"/>
			</g>
			<g>
				<path class="st1" d="M303.1,203.7c-1.1,0.5-2.2,0.9-3.3,1.4c-1.1,0.5-2.1,1-3.3,1.5c0.8-1,1.8-1.7,3-2.2
					C300.6,203.9,301.8,203.6,303.1,203.7z"/>
			</g>
			<g>
				<path class="st1" d="M298.2,200.3c-1.2,0.9-2.6,1.4-4,1.8c-1.4,0.4-2.9,0.6-4.4,0.5c1.4-0.5,2.8-0.9,4.2-1.3
					C295.3,201.1,296.7,200.6,298.2,200.3z"/>
			</g>
			<g>
				<path class="st1" d="M296.7,197.2c-1,0.8-2.3,1.3-3.5,1.5c-1.3,0.2-2.6,0.3-3.9-0.1c1.3-0.2,2.5-0.4,3.7-0.6
					C294.2,197.8,295.4,197.5,296.7,197.2z"/>
			</g>
			<g>
				<path class="st1" d="M296.8,193.6c-0.7,0.6-1.6,0.9-2.5,1c-0.9,0.1-1.8,0.1-2.6-0.3c0.9-0.2,1.7-0.3,2.5-0.4
					C295.1,193.8,295.9,193.6,296.8,193.6z"/>
			</g>
		</g>
	</g>
	<g>
		<path class="st2" d="M261.7,109.6c3.6,0,5.3,5.2,1.1,5.8c-10.5-0.2-24-4.4-32.6,3.5C235.3,106.9,250.7,107.7,261.7,109.6z"/>
		<path class="st2" d="M291.3,108.9c-3.6,0-5.3,5.2-1.1,5.8c10.5-0.2,24-4.4,32.6,3.5C317.7,106.2,302.3,107,291.3,108.9z"/>
	</g>
	<g>
		<path class="st3" d="M258,122.2c-6-4.1-14-2-19.6,1.8c-0.6-0.9-1.9-1.3-2-2.6c-0.1,1.1,0.1,2.5,1.1,3.2c-0.1,0.1-0.3,0.2-0.4,0.2
			c-1.1-0.7-2.3-1.4-2.6-2.8c-0.1,1.3,0.1,2.7,1.2,3.5c-0.3,0.1-0.5,0.2-0.8,0.3c-1.1-0.6-2.2-1.4-2.5-2.7c-0.1,1.4,0.2,3,1.5,3.7
			c0.7,6.9,3.8,13.9,10.8,16.1c-22.5-14.6,7.8-33.2,18.3-13.4C262.4,126.7,260.3,123.7,258,122.2z"/>
		<path class="st3" d="M320.9,122.9c-0.3,1.3-1.4,2.1-2.5,2.7c-0.3-0.1-0.5-0.2-0.8-0.3c1.1-0.8,1.3-2.3,1.2-3.5
			c-0.3,1.4-1.5,2.2-2.6,2.8c-0.1-0.1-0.3-0.2-0.4-0.2c1-0.7,1.2-2,1.1-3.2c-0.1,1.4-1.4,1.8-2,2.6c-7.6-5.9-21.8-6-24.5,5
			c10.8-19.5,40.6-0.5,18.2,13.9c7.1-2.2,10.2-9.3,10.9-16.2C320.7,126,321,124.3,320.9,122.9z"/>
	</g>
</g>
</svg>
