<?xml version="1.0" encoding="utf-8"?>
<!-- Generator: Adobe Illustrator 24.2.3, SVG Export Plug-In . SVG Version: 6.00 Build 0)  -->
<svg version="1.1" id="corps_x5F_3" xmlns="http://www.w3.org/2000/svg" xmlns:xlink="http://www.w3.org/1999/xlink" x="0px"
	 y="0px" viewBox="0 0 553 574" style="enable-background:new 0 0 553 574;" xml:space="preserve">
<style type="text/css">
	.st0{fill:#E0A17C;}
	.st1{fill:#BE8D70;}
	.st2{fill:#9B6E54;}
	.st3{fill:none;stroke:#BE8D70;stroke-width:0.35;stroke-miterlimit:10;}
</style>
<g>
	<g>
		<g>
			<path class="st0" d="M226,143.1c-3.7-8.8-13.7-10.9-16.1-0.1c-1.8,8,7,26.2,14.9,14.3"/>
			<path class="st1" d="M226,143.1c-0.9-2-2.2-3.9-3.9-5.2c-1.7-1.4-3.8-2.3-6-2c-2.2,0.3-4,1.9-4.9,3.8l-0.6,1.5l-0.4,1.6
				c-0.3,1-0.3,2.1-0.3,3.2c0.1,2.2,0.6,4.3,1.3,6.4c0.7,2,1.7,4,3.1,5.7c0.7,0.8,1.5,1.6,2.4,2.2c0.9,0.6,2,0.9,3.1,0.8
				c1.1-0.1,2.1-0.6,2.9-1.3c0.9-0.7,1.5-1.6,2.2-2.5c-0.6,0.9-1.3,1.8-2.1,2.5c-0.8,0.7-1.8,1.3-3,1.4c-1.1,0.2-2.3-0.2-3.2-0.8
				c-1-0.6-1.8-1.4-2.5-2.2c-1.4-1.7-2.4-3.7-3.2-5.8c-0.8-2.1-1.3-4.2-1.4-6.5c0-1.1,0-2.2,0.3-3.3l0.5-1.6l0.7-1.5
				c1-2,2.9-3.6,5.1-3.9c2.2-0.3,4.5,0.7,6.1,2.1C223.9,139.2,225.2,141.1,226,143.1z"/>
		</g>
	</g>
	<g>
		<path class="st2" d="M213.6,144.8c4.7-2.4,8.9,2,8.6,6.8C222,147,218.4,143,213.6,144.8z"/>
		<path class="st2" d="M218.7,149.8c-0.9-1.4-1.2-3.5,0.1-4.8C218,146.5,218.3,148.2,218.7,149.8z"/>
	</g>
	<path class="st3" d="M223.9,140c1.4,1.3,2.5,3.1,2.6,5.1C226,143.2,225,141.5,223.9,140z"/>
	<path class="st3" d="M224.7,157.6c0.3-0.8,0.5-1.7,0.6-2.5C225.7,155.9,225.4,157,224.7,157.6z"/>
	<g>
		<g>
			<path class="st0" d="M321.3,143.1c3.7-8.8,13.7-10.9,16.1-0.1c1.8,8-7,26.2-14.9,14.3"/>
			<path class="st1" d="M321.3,143.1c0.8-2,2.1-3.9,3.8-5.4c1.7-1.4,3.9-2.4,6.1-2.1c2.2,0.3,4.1,1.9,5.1,3.9l0.7,1.5l0.5,1.6
				c0.3,1.1,0.3,2.2,0.3,3.3c-0.1,2.2-0.6,4.4-1.4,6.5c-0.8,2.1-1.8,4.1-3.2,5.8c-0.7,0.9-1.5,1.6-2.5,2.2c-0.9,0.6-2.1,1-3.2,0.8
				c-1.1-0.1-2.1-0.7-3-1.4c-0.8-0.7-1.5-1.6-2.1-2.5c0.6,0.9,1.3,1.8,2.2,2.5c0.8,0.7,1.8,1.2,2.9,1.3c1.1,0.1,2.2-0.2,3.1-0.8
				c0.9-0.6,1.7-1.4,2.4-2.2c1.4-1.7,2.3-3.7,3.1-5.7c0.7-2.1,1.2-4.2,1.3-6.4c0.1-1.1,0-2.2-0.3-3.2l-0.4-1.6l-0.6-1.5
				c-0.9-2-2.7-3.5-4.9-3.8c-2.2-0.3-4.3,0.6-6,2C323.4,139.3,322.2,141.1,321.3,143.1z"/>
		</g>
	</g>
	<g>
		<path class="st2" d="M333.7,144.8c-4.7-2.4-8.9,2-8.6,6.8C325.3,147,328.9,143,333.7,144.8z"/>
		<path class="st2" d="M328.6,149.8c0.9-1.4,1.2-3.5-0.1-4.8C329.3,146.5,329,148.2,328.6,149.8z"/>
	</g>
	<path class="st3" d="M323.4,140c-1.4,1.3-2.5,3.1-2.6,5.1C321.3,143.2,322.2,141.5,323.4,140z"/>
	<path class="st3" d="M322.5,157.6c-0.3-0.8-0.5-1.7-0.6-2.5C321.6,155.9,321.9,157,322.5,157.6z"/>
</g>
</svg>
