<svg viewBox="0 0 553 574" xmlns="http://www.w3.org/2000/svg"><path d="m0 0h553v574h-553z" fill="none"/><path d="m255.76 183.93c-2.8 9.29-9.06 18.16-13.39 26.92-8.77 17.73-17.73 35.21-26.64 52.85q-12.73 25.13-25.39 50.3c-3.27 6.46-6.21 13.1-9.3 19.65-1.14 2.41-6.18 9.25-5.9 11.58.61 5.08 14.36 2.35 19.71 2.89 13.18 1.31 27.22 2.16 40.12 4.46-1.22 4.67-5.49 10-8 14.49-6.56 11.81-13.24 23.22-20.61 34.54-8.53 13.11-16.58 26.5-25.19 39.55-4 6.13-9.53 12.24-13.34 21.88 8-5.88 17.27-10.15 26.41-15 23.42-12.52 43.78-28.25 64.36-45 23.12-18.78 45.11-38.33 67-58.5 6.39-5.88 15.17-11.93 19.83-19-10 .41-20.11-3.29-30.16-4.73-11.5-1.66-25.32.75-36.24-3.44 8.65-5.15 13.76-14.61 20.64-21.67 10.94-11.24 20.29-23.88 31.07-35.26 12.14-12.81 23-26.71 35.11-39.49 7.29-7.68 12.93-12 19.29-20.39-21-3-42.15-8-63.3-10.39-16.17-1.86-32.17-4.94-48.29-7-5.55-.76-12.43-2.09-17.79.76z" fill="#d93335"/><path d="m174.55 346.51c18.29-32.74 38.47-65 61-95 9.52-12.69 16.88-26.55 25.9-39.52 5.56-8 15.73-18.57 18.21-28.14-7.76-2.24-20.93-4.5-27.21-6.1a116.17 116.17 0 0 1 -5.6 12.84c-6.54 11.43-12.23 22.74-17.81 34.7-13 27.82-27.82 54.89-41 82.57a194.21 194.21 0 0 0 -13.49 38.65z" fill="#a4d8e2"/><path d="m167.84 462.07c5.77-10.28 14.92-19.33 21.9-28.95 8.2-11.28 16.88-22.12 24.89-33.53 7.13-10.15 15-19.94 21.7-30.31 3.52-5.41 9.67-16.06 9.67-16.06a28 28 0 0 0 -7.63-1.18c-2.37.12-7.56-1.59-9.59-.65 0 0-4.09 7.2-5.09 9.36a174.56 174.56 0 0 1 -12.91 22.71c-9.2 14.09-17.6 28.55-26.59 42.78-6.44 10.19-9.92 21.94-16.35 35.83z" fill="#a4d8e2"/><g fill="#27315e"><path d="m176 343.79c1-5.75 5.73-11.64 8.34-16.87 5.72-11.45 37.3-63.47 47.22-78.5 10.36-15.7 36.74-61.61 40.68-66.63 0 0 8.12 1.85 12.18 2.75-7.61 6.92-13.84 16-20 24.24-9.46 12.71-17.37 25.86-25.24 39.64-13 22.69-30.47 45.71-45 67.3-4 5.91-7.11 9.7-10.5 15.93a113.53 113.53 0 0 1 -7.68 12.14z"/><path d="m168.08 461.38c1-.47 1.63-1.73 2.35-2.64 2.3-2.92 4.11-6.16 6.46-9 9.11-11.17 18.05-22.5 26.47-34.23 10.45-14.54 21.65-28.54 32.23-43 4.75-6.5 8.91-13.54 13.52-20.09a37.53 37.53 0 0 0 -6.89-.42c0 1.68-1.7 3.23-2.53 4.6-2.29 3.77-4.54 7.56-6.85 11.32-5.65 9.21-13.21 18.11-19.08 27.16-9.96 15.33-42.43 59.21-45.68 66.3z"/></g></svg>