<svg viewBox="0 0 553 574" xmlns="http://www.w3.org/2000/svg"><path d="m0 0h553v574h-553z" fill="none"/><path d="m265.73 339c-7.73-1.67-16.9 1.37-24.39-1.64-12.54-5.05-8.08-19.88-4.82-29.18 5.27 15.41 28.55 18.18 34.43 30-2.95.28-5.95.24-5.22.82z" fill="#e9bc31"/><path d="m282.59 336.56c-8.51-12.6-25.9-16.4-36.12-27.76-12.13-13.47-9-28.69-2.49-44.1 2.76 8 13.17 14.34 20.06 18.59 12.64 7.8 24.59 16.43 36.88 24.75 6 4.07 13.39 10.14 17.29 16.42 1.79 2.89 2.17 7.94 2.27 11.31a85.16 85.16 0 0 0 -15.29.34c-7.47.96-16.36 2.69-22.6.45z" fill="#fcdf54"/><path d="m314.53 310.09c-6.51-8-15.86-13-24.47-18.66-9.22-6.06-18.4-11.67-27.37-18-13.91-9.87-21-31.27-10.82-46.24 2 1.72 3 4.73 5.05 6.75 4.6 4.62 9.18 8.7 15.24 11.31 9.94 4.29 20.1 7.15 28.06 14.89 13.55 13.12 13.61 28.52 14.31 49.95z" fill="#fcdf54"/><path d="m307.08 260.05c1-2.64-12.12-12.49-15.75-14.14-7.65-3.49-16.08-5.23-22.79-10.47-10.83-8.47-18.28-27.16-10.3-39.87 1.88 5.68 9.3 11 14.38 14 7.54 4.36 17.25 6.07 23.43 12.57 4.6 4.84 7.36 12.77 8.59 19.21 1.11 5.74-.02 10.76 2.44 18.7z" fill="#fcdf54"/><path d="m299.66 219.74c.24-5.82-7.42-11-12.11-13.23-7.12-3.4-13.51-4.14-19.6-9.71-7.29-6.67-9.52-21.37-2.36-29.13.13-.14.12-.14 0 0-2.45 10 20.69 16.14 26.36 21.21 3.29 2.95 11.99 23.86 7.71 30.86z" fill="#fcdf54"/><path d="m291.23 182.11c.83-1.79-8.3-7-10.48-8.07-4.89-2.35-9-4.74-11.24-9.92-4.3-10.14.81-19 5-28-1.9 5.69 8.29 12 11.44 15.84 6.55 7.92 6.33 19.7 5.28 30.15z" fill="#fcdf54"/><path d="m284.84 145.93c.79-2.18-2.46-5.44-3.84-7.42-2.41-3.46-4.14-6.59-4.51-10.86-.49-5.62.66-11.69 4.6-15.91 3.77 3.65 3.67 11.75 4.12 16.65a61.79 61.79 0 0 1 -.37 17.54z" fill="#fcdf54"/><path d="m184 310.18c-2.73-5.5-3.45-12.65-6.86-18.46-7.93-13.51-18.85-25.08-29.3-36.61-14.47-16-33.6-31.35-54-39-13.22-4.94-16.52.39-20.44 14.23-9.35 33-10.48 66.36 2 98.56 4.79 12.39 11.73 22.1 20.6 31.7 4.55 4.92 8.64 11.32 13.65 15.54 26.7-14.24 60.95-33.7 74.35-65.96z" fill="#f9f6f6"/><path d="m124.68 353.77c11.25-5.7 21.73-10.11 30.55-19.65 6.54-7.08 13.3-11.79 7.5-21.46-7.39-12.34-21.86-22.36-34.93-27.94-4.35-1.85-11.55-5.11-15.56-.87s-3.74 14.93-3.7 20.44a84.37 84.37 0 0 0 16.14 49.48z" fill="#f7c1c0"/><path d="m365.12 316.21c2.73-5.5 3.45-12.65 6.86-18.46 7.93-13.51 18.85-25.08 29.3-36.61 14.47-16 33.6-31.35 54-38.95 13.22-4.94 16.52.39 20.45 14.23 9.35 33 10.48 66.36-2 98.56-4.77 12.34-11.7 22-20.62 31.65-4.54 4.92-8.63 11.32-13.64 15.54-26.69-14.24-60.94-33.7-74.35-65.96z" fill="#f9f6f6"/><path d="m424.45 359.8c-11.25-5.7-21.72-10.11-30.54-19.65-6.55-7.08-13.3-11.79-7.51-21.46 7.4-12.34 21.87-22.36 34.94-27.94 4.35-1.85 11.55-5.11 15.56-.87s3.74 14.93 3.7 20.44a84.38 84.38 0 0 1 -16.15 49.48z" fill="#f7c1c0"/><path d="m143 333.58c.34-.56-.4-5.38-.26-7.32a13.73 13.73 0 0 1 5.53-10.71c5.91-4.38 4.47-12 8.41-18 4.1-6.24 15-11.09 22.3-11.69 4.27-.35 8 .46 10.81 3.72 1.08 1.25 1.85 2.91 3.32 3.57s4.28-.09 5.49-.58c4.1-1.66 7-4.07 11.73-4.19 9.18-.23 24.7 5 27.42 14.88 1.07 3.88-1.35 6.39 1.07 9.37 2.61 3.21 6.67 4.77 9 8.33s3 8.93 2.38 13.23a17.84 17.84 0 0 1 -5.38 10.36 10.23 10.23 0 0 0 -3.44 6c-1.47 6.78-2.62 9.4-9.12 11.77.09 7.35-7 16.1-13.11 19.47-7.71 4.24-13.82 1.46-21.11-1.16-1.13 6.36-12.55 9.74-17.81 10.39-5.5.68-12.43-.73-17-4-3.45-2.48-3.88-5.4-5.39-8.95-3.11-7.33-13.56-7.61-18-14.8-6.04-9.7-3.23-25.88 3.16-29.69z" fill="#f8ebe6"/><g fill="#e9cbc0"><path d="m186.2 357.09c-.32.81-1 .51-1.87.42-4.31-.39-6.8-4-8.36-7.66a16.63 16.63 0 0 1 .81-14.16c.67-1.29 1.95-4.2 3.45-4.41.24 1.07-.18 2.71-.26 3.89a40.22 40.22 0 0 0 .8 10.55c.93 4.67 2.37 8.35 5.43 11.37z"/><path d="m185.83 348.48c-3.21-2.61-1-11.19 1.37-13.79 2.79-3.08 6.33-1.1 8.83 1.28a11.56 11.56 0 0 1 3.12 11.65c-1.14 3.72-5.78 7.67-9.39 4.6 3.35-1.8 8.17-9.24 4.69-12.92-3.94-4.15-8.54 4.34-8.62 9.18z"/><path d="m188.07 325.65c9-.25 13.24 9.7 15.18 17.44 4.72-2.48 1.25-12-1.18-15-3.38-4.02-8.17-3.4-14-2.44z"/><path d="m194.44 316.11c5.91-.11 14.17.94 16.84 7.11 2 4.54-.7 10-.78 14.74-3.12-4-4.22-7.49-5.48-12.29-1.21-4.57-5.17-6.32-10.58-9.56z"/><path d="m212.59 339.87c-.15-.18-.15-.3-.35-.36a11.53 11.53 0 0 1 -6 12.77c2.66 1.37 6.55.89 8.49-1.6 3.06-3.95 1.04-7.85-2.14-10.81z"/><path d="m178.15 362.33c.94-1.07 3.26.46 4.43.73a16.05 16.05 0 0 0 9.22-.71c4.12-1.53 7-4.14 9.72-7.29-1.54 3.91-1.18 8.37-5 11.23-5.3 4.06-13.35-.29-18.37-3.96z"/><path d="m176.47 364.39c-6.24-2.53-8-8.29-7.57-14.47.22-2.93.63-7.4-1.18-9.85a5 5 0 0 1 -1.32 1.87c-2.1 2.49-3.77 4.62-4.14 8-.79 7.15 4.22 16.16 14.21 14.45z"/><path d="m171.79 340.62c-.1-6.8 2.59-15.55 9.79-17.94 3.75-1.25 8.7-.09 12.6.18a10.93 10.93 0 0 0 -12.69-5.66c-8.27 2.32-11.78 14.88-9.7 23.42z"/><path d="m159.26 345.2c.41-.22.37-.57.53-1.39.73-3.63-1.06-7.21.09-11 2.05-6.74 6.72-8.15 12.5-10.3-1.8-3.42-10.1 0-12.09 1.54-3.45 2.66-4.53 6.47-4.14 10.68.44 4.91 1.48 6 3.11 10.48"/><path d="m156.07 363.64c-1.63-2.33-5-5.13-6.36-8.06a18.39 18.39 0 0 1 .75-16c1-1.73 2.1-3.21 2.62-5.16a13.3 13.3 0 0 1 .72-2.79c-.86.54-1.39 1.69-2.1 2.45-2.37 2.5-4.49 4.17-6 7.46-2.06 4.59-2.57 8.91-.9 13.74 1.84 5.25 5.92 10.22 11.27 8.36z"/><path d="m158.32 321.81c1.58-3 2.57-6.72 4.78-9.69 3.56-4.79 8-9.45 13.87-11.27 4.83-1.5 9 .53 13.66.2a15 15 0 0 0 -17.4-4.54c-11.07 4.63-16 14.31-14.91 25.3"/><path d="m162.62 365.7c-.23 1 3 4.11 3.68 4.86a14.62 14.62 0 0 0 9.8 5c5.24.59 14.61-.42 17.62-5.5-1.67 4.39-2.72 7.8-7.26 10.47a17 17 0 0 1 -8.94 2c-9-.24-13.82-7.03-14.9-16.83z"/><path d="m215.31 371.71c4.63-2.95 7.89-8.41 9.83-13.46-.36 6.06 1 11.42-3.75 16.29-3.76 3.83-8.34 4.45-13.41 3.36-2.09-.45-5.09-.81-6.92-2-.72-.45-2.89-3-2.3-4s3.75.86 4.69 1.14a14.24 14.24 0 0 0 11.86-1.33z"/><path d="m203.79 363.45c-.08 0 1.15-.18 1.4-.21 3.72-.55 6.34-1.48 9.13-4.26 3.66-3.66 7.44-9.47 6.87-14.45.95 3.19 3.21 8.26 2.16 11.63a16 16 0 0 1 -6 7.49c-3.58 1.88-8 .01-13.56-.2z"/><path d="m217.27 338.94c0 .17-.33 0-.17.34 1.51 0 2.36-3.35 2.64-4.44a18.85 18.85 0 0 0 -1-11.44c-1.47-3.66-6.35-8.66-4.77-13.08 4 2.11 9.17 6.17 11 10.44 2.91 6.94-1.19 16.48-7.7 18.18z"/><path d="m201 299.64c.25.27 3.35.22 4.26.38a40.93 40.93 0 0 1 12.47 4c5.8 3.26 8.57 8.65 10.7 14.7 0-2.47 1-5.41 1.22-8 .36-4.38-1.55-8-4.77-10.86-5.4-4.86-16.75-4.86-23.88-.22z"/><path d="m227.55 319.74c3.13-1.32 8.1 7.12 9.27 9.55a43 43 0 0 1 3.93 15.44c-1.53-5.06 3.56-9.59 2.14-15-.86-3.27-2.45-7.27-5.26-9.29-1.37-.99-7.3-3.18-10.08-.7z"/><path d="m228.63 331.56c-.09-.69.82 1.51 1 1.81a32.68 32.68 0 0 1 2.35 9.21c.49 4.85-2.83 8.71-5.57 12.43 5.43-.73 11.82-2 11.62-8.71-.09-3-.72-6.15-2.69-8.45-2.4-2.75-5.64-4.31-6.71-6.29z"/><path d="m179.87 316.05c1.59-1.47 2.62-3.36 4.37-4.7a11.53 11.53 0 0 1 8-2.15c3 .23 5.63 1.67 8.31 2.82 1.45.62 3.44 1.88 5.05 1.78-1.42-3.78-3.9-10.49-8.78-10.57a22.25 22.25 0 0 0 -9.4 2.48 16.08 16.08 0 0 0 -4.65 3.05 11.53 11.53 0 0 0 -2.9 7.29z"/></g><path d="m415.12 328.24c-.33-.53.39-5.19.26-7.06a13.29 13.29 0 0 0 -5.38-10.33c-5.7-4.22-4.32-11.56-8.11-17.33-4-6-14.49-10.69-21.51-11.27-4.12-.34-7.69.44-10.42 3.58-1.05 1.21-1.8 2.81-3.21 3.44s-4.13-.08-5.3-.56c-3.95-1.6-6.8-3.92-11.31-4-8.86-.22-23.82 4.8-26.45 14.35-1 3.74 1.3 6.16-1 9-2.51 3.11-6.43 4.61-8.68 8s-2.92 8.61-2.29 12.76a17.14 17.14 0 0 0 5.18 10 9.84 9.84 0 0 1 3.32 5.79c1.42 6.53 2.53 9.06 8.8 11.35-.09 7.09 6.74 15.53 12.64 18.77 7.44 4.1 13.34 1.42 20.36-1.11 1.1 6.14 12.11 9.4 17.18 10 5.31.66 12-.7 16.42-3.89 3.32-2.4 3.74-5.21 5.2-8.63 3-7.08 13.07-7.34 17.38-14.28 5.8-9.3 3.11-24.91-3.08-28.58z" fill="#f8ebe6"/><path d="m373.47 350.92c.31.78.94.49 1.81.41 4.16-.39 6.55-3.84 8.06-7.39a16.07 16.07 0 0 0 -.78-13.67c-.65-1.24-1.88-4-3.33-4.25a15.72 15.72 0 0 0 .25 3.76 38.61 38.61 0 0 1 -.76 10.17c-.91 4.5-2.3 8.05-5.25 10.97z" fill="#e9cbc0"/><path d="m373.83 342.61c3.09-2.51.94-10.79-1.32-13.3-2.69-3-6.11-1.06-8.52 1.24a11.14 11.14 0 0 0 -3 11.23c1.09 3.59 5.57 7.4 9.05 4.44-3.23-1.74-7.88-8.91-4.52-12.46 3.8-4 8.23 4.24 8.31 8.85z" fill="#e9cbc0"/><path d="m371.67 320.59c-8.67-.24-12.77 9.41-14.67 16.82-4.56-2.39-1.21-11.62 1.14-14.44 3.29-3.9 7.91-3.3 13.53-2.38z" fill="#e9cbc0"/><path d="m365.53 311.39c-5.7-.1-13.67.91-16.25 6.86-1.9 4.38.68 9.64.75 14.21 3-3.88 4.07-7.22 5.29-11.85 1.16-4.41 4.99-6.09 10.21-9.22z" fill="#e9cbc0"/><path d="m348 334.31c.15-.17.15-.29.33-.35a11.14 11.14 0 0 0 5.81 12.32c-2.57 1.32-6.32.86-8.19-1.54-2.95-3.82-.95-7.58 2.05-10.43z" fill="#e9cbc0"/><path d="m381.23 356c-.9-1-3.13.45-4.27.7a15.44 15.44 0 0 1 -8.89-.68c-4-1.48-6.73-4-9.37-7 1.48 3.77 1.13 8.07 4.77 10.83 5.16 3.86 12.93-.3 17.76-3.85z" fill="#e9cbc0"/><path d="m382.86 358c6-2.44 7.76-8 7.3-14-.22-2.83-.61-7.14 1.14-9.49a4.82 4.82 0 0 0 1.27 1.79c2 2.4 3.63 4.46 4 7.74.76 6.88-4.07 15.57-13.71 13.96z" fill="#e9cbc0"/><path d="m387.37 335c.1-6.56-2.5-15-9.44-17.3-3.62-1.2-8.39-.08-12.15.17a10.51 10.51 0 0 1 12.22-5.42c8 2.23 11.38 14.34 9.37 22.55z" fill="#e9cbc0"/><path d="m399.46 339.45c-.4-.21-.36-.55-.52-1.34-.7-3.51 1-6.95-.08-10.62-2-6.5-6.48-7.86-12.05-9.93 1.73-3.3 9.73 0 11.66 1.48 3.32 2.56 4.36 6.24 4 10.31-.43 4.73-1.44 5.75-3 10.1" fill="#e9cbc0"/><path d="m402.53 357.24c1.57-2.25 4.79-4.95 6.13-7.77a17.78 17.78 0 0 0 -.71-15.41 21.83 21.83 0 0 1 -2.53-5 13.12 13.12 0 0 0 -.69-2.69c.82.52 1.33 1.63 2 2.36 2.29 2.41 4.33 4 5.76 7.2 2 4.43 2.48 8.59.86 13.25-1.72 5.06-5.66 9.82-10.82 8.06z" fill="#e9cbc0"/><path d="m400.37 316.89c-1.53-2.9-2.48-6.48-4.62-9.35-3.43-4.62-7.7-9.11-13.37-10.87-4.67-1.44-8.66.52-13.18.19a14.51 14.51 0 0 1 16.8-4.37c10.67 4.46 15.39 13.8 14.38 24.4" fill="#e9cbc0"/><path d="m396.22 359.22c.22 1-2.9 4-3.55 4.69a14.1 14.1 0 0 1 -9.45 4.81c-5.05.57-14.1-.41-17-5.3 1.61 4.23 2.62 7.52 7 10.1a16.27 16.27 0 0 0 8.62 1.94c8.68-.24 13.33-6.79 14.38-16.24z" fill="#e9cbc0"/><path d="m345.4 365c-4.47-2.85-7.62-8.12-9.49-13 .35 5.85-1 11 3.62 15.71 3.63 3.71 8.05 4.3 12.93 3.25 2-.43 4.91-.78 6.68-1.9.7-.44 2.78-2.87 2.22-3.84s-3.61.83-4.53 1.1a13.74 13.74 0 0 1 -11.43-1.32z" fill="#e9cbc0"/><path d="m356.5 357.05c.09 0-1.1-.17-1.34-.2-3.59-.53-6.12-1.43-8.81-4.11-3.53-3.53-7.17-9.14-6.62-13.94-.92 3.08-3.1 8-2.09 11.22a15.47 15.47 0 0 0 5.84 7.23c3.4 1.8 7.66 0 13.02-.2z" fill="#e9cbc0"/><path d="m343.51 333.41c0 .17.32 0 .16.33-1.46 0-2.28-3.23-2.54-4.28a18.17 18.17 0 0 1 1-11c1.43-3.53 6.13-8.35 4.61-12.61-3.9 2-8.85 5.94-10.6 10.07-2.87 6.65 1.09 15.86 7.37 17.49z" fill="#e9cbc0"/><path d="m359.21 295.5c-.24.27-3.24.22-4.11.38a39.17 39.17 0 0 0 -12 3.87c-5.6 3.15-8.27 8.35-10.33 14.18 0-2.38-1-5.22-1.18-7.74-.34-4.22 1.5-7.69 4.6-10.47 5.19-4.66 16.13-4.72 23.02-.22z" fill="#e9cbc0"/><path d="m333.59 314.89c-3-1.27-7.81 6.87-8.94 9.21a41.69 41.69 0 0 0 -3.79 14.9c1.48-4.88-3.44-9.25-2.07-14.47.83-3.16 2.37-7 5.08-9 1.32-.92 7.04-3.03 9.72-.64z" fill="#e9cbc0"/><path d="m332.55 326.29c.09-.66-.79 1.46-.92 1.75a31.78 31.78 0 0 0 -2.27 8.89c-.47 4.67 2.74 8.4 5.38 12-5.24-.71-11.4-1.94-11.21-8.4.09-2.85.69-5.93 2.59-8.15 2.27-2.67 5.4-4.18 6.43-6.09z" fill="#e9cbc0"/><path d="m379.58 311.33c-1.54-1.41-2.53-3.24-4.22-4.53a11 11 0 0 0 -7.7-2.07c-2.86.22-5.43 1.61-8 2.72-1.4.6-3.32 1.81-4.87 1.71 1.38-3.64 3.76-10.12 8.47-10.19a21.51 21.51 0 0 1 9.07 2.39 15.46 15.46 0 0 1 4.48 2.94 11.13 11.13 0 0 1 2.77 7.03z" fill="#e9cbc0"/><path d="m288.37 305.73c12.76-6.27 32.26-5.68 42.76 5.42 8.62 9.11 8.64 20.87 5.61 32.27 1.91.51 3.27 2.75 4.64 4.12a30.22 30.22 0 0 1 8.32 14c3.19 11.66 4.81 23.61-3.38 33.58a21.94 21.94 0 0 1 -10.92 7.4c-1.47.37-4.17 0-5.17 1.21-.23.27-.16 1.88-.27 2.27-.71 2.39-2.4 4.23-4 6.05a40.16 40.16 0 0 1 -14 10.44c-5.68 2.46-13.84 4.78-20.07 3.65-4.34-.79-7.19-3.82-10.38-6.53-13 8.79-31.83 10.38-43.35-2.45a24.35 24.35 0 0 1 -6.66-16.5c-.07-1.77.61-4.07.26-5.73s.06-1-1.23-1.83c-3.13-2.11-6.72-3.1-9.75-5.66a26.9 26.9 0 0 1 -8.69-12.51c-3.43-10.65-2.42-27.93 5.74-36.28a21.45 21.45 0 0 1 8-5.29c2.05-.85 1.45-.3 2.37-1.89 2.46-4.24 3.3-9.14 6.14-13.37 3.36-5 6.76-9.59 11.84-13a37 37 0 0 1 28.82-5.53c4.1.95 9.37 2.72 13.37 6.16z" fill="#fdf5f3"/><path d="m294.16 388.44c.42 1.06 1.26.66 2.43.55 5.59-.51 8.81-5.16 10.84-9.93a21.56 21.56 0 0 0 -1.05-18.38c-.87-1.67-2.52-5.44-4.48-5.71-.31 1.39.24 3.51.34 5a51.89 51.89 0 0 1 -1 13.67c-1.24 6.11-3.11 10.89-7.08 14.8z" fill="#f1dcd3"/><path d="m294.65 377.28c4.15-3.39 1.26-14.52-1.79-17.89-3.61-4-8.2-1.43-11.45 1.66a15 15 0 0 0 -4 15.11c1.47 4.83 7.49 9.95 12.17 6-4.34-2.33-10.6-12-6.07-16.75 5.07-5.41 11.02 5.59 11.14 11.87z" fill="#f1dcd3"/><path d="m291.73 347.66c-11.63-.33-17.16 12.59-19.68 22.62-6.13-3.21-1.63-15.63 1.53-19.42 4.42-5.25 10.6-4.44 18.15-3.2z" fill="#f1dcd3"/><path d="m283.48 335.29c-7.67-.14-18.38 1.22-21.85 9.23-2.56 5.89.91 13 1 19.11 4.06-5.22 5.48-9.71 7.11-15.94 1.58-5.93 6.72-8.2 13.74-12.4z" fill="#f1dcd3"/><path d="m259.93 366.11c.2-.23.2-.39.45-.48a15 15 0 0 0 7.8 16.58c-3.44 1.77-8.49 1.15-11-2.08-3.99-5.13-1.36-10.19 2.75-14.02z" fill="#f1dcd3"/><path d="m304.6 395.24c-1.21-1.38-4.22.6-5.74.94a20.8 20.8 0 0 1 -12-.91c-5.34-2-9.06-5.38-12.61-9.46 2 5.07 1.53 10.85 6.42 14.56 6.98 5.27 17.43-.32 23.93-5.13z" fill="#f1dcd3"/><path d="m306.78 397.91c8.09-3.28 10.44-10.75 9.82-18.77-.29-3.8-.82-9.6 1.53-12.77a6.54 6.54 0 0 0 1.71 2.42c2.73 3.23 4.89 6 5.38 10.4 1.02 9.25-5.48 20.94-18.44 18.72z" fill="#f1dcd3"/><path d="m312.85 367.08c.13-8.82-3.36-20.16-12.7-23.27-4.86-1.62-11.28-.11-16.33.23a14.13 14.13 0 0 1 16.45-7.33c10.73 3 15.28 19.29 12.58 30.37z" fill="#f1dcd3"/><path d="m326 367.31c-.53-.28-.48-.74-.69-1.8-.94-4.72 1.38-9.35-.11-14.28-2.65-8.74-8.71-10.57-16.21-13.36 2.33-4.44 13.09 0 15.68 2 4.47 3.44 5.87 8.39 5.37 13.85-.58 6.37-1.93 7.74-4 13.59" fill="#f1dcd3"/><path d="m328.75 394.89c2.12-3 6.44-6.65 8.25-10.45 3-6.25 2.37-14.74-1-20.72-1.26-2.25-2.73-4.17-3.41-6.69a16.75 16.75 0 0 0 -.93-3.62c1.11.7 1.8 2.2 2.73 3.18 3.07 3.23 5.82 5.4 7.74 9.67 2.67 6 3.33 11.55 1.16 17.82-2.29 6.77-7.6 13.22-14.54 10.81z" fill="#f1dcd3"/><path d="m330.33 342.68c-2.05-3.9-3.34-8.71-6.21-12.57-4.62-6.21-10.36-12.25-18-14.61-6.28-1.94-11.65.69-17.72.25 5.17-6.82 14.91-9.08 22.57-5.88 14.35 6 20.69 18.56 19.34 32.81" fill="#f1dcd3"/><path d="m322.54 397.46c.3 1.32-3.89 5.33-4.77 6.29a18.93 18.93 0 0 1 -12.71 6.48c-6.8.77-18.95-.55-22.85-7.13 2.15 5.69 3.51 10.11 9.4 13.58a22 22 0 0 0 11.6 2.62c11.67-.3 17.93-9.13 19.33-21.84z" fill="#f1dcd3"/><path d="m256.41 407.4c-6-3.82-10.24-10.91-12.76-17.46.47 7.87-1.3 14.82 4.87 21.13 4.88 5 10.82 5.78 17.39 4.37 2.71-.59 6.6-1.06 9-2.56.94-.59 3.75-3.87 3-5.17s-4.87 1.12-6.1 1.49a18.45 18.45 0 0 1 -15.4-1.8z" fill="#f1dcd3"/><path d="m271.34 396.7c.11.05-1.49-.24-1.8-.28-4.83-.71-8.24-1.92-11.85-5.53-4.75-4.74-9.65-12.28-8.91-18.74-1.23 4.13-4.16 10.71-2.8 15.09 1 3.21 4.86 8.12 7.85 9.71 4.57 2.43 10.3.05 17.51-.25z" fill="#f1dcd3"/><path d="m253.87 364.9c0 .22.42 0 .21.45-2 0-3.06-4.35-3.41-5.76a24.47 24.47 0 0 1 1.33-14.85c1.91-4.75 8.24-11.22 6.19-17-5.23 2.74-11.89 8-14.25 13.54-3.84 9.05 1.49 21.42 9.93 23.62z" fill="#f1dcd3"/><path d="m275 313.93c-.32.35-4.35.28-5.52.5-5.46 1-11.32 2.47-16.18 5.2-7.52 4.24-11.12 11.23-13.88 19.07 0-3.2-1.31-7-1.59-10.41-.45-5.66 2-10.33 6.19-14.07 6.98-6.22 21.7-6.37 30.98-.29z" fill="#f1dcd3"/><path d="m240.54 340c-4.07-1.71-10.51 9.23-12 12.38a55.77 55.77 0 0 0 -5.1 20c2-6.57-4.62-12.44-2.78-19.47 1.12-4.24 3.18-9.42 6.82-12 1.76-1.29 9.45-4.13 13.06-.91z" fill="#f1dcd3"/><path d="m237.6 359.29c.11-.89-1.08 2-1.24 2.34a42.44 42.44 0 0 0 -3.05 12c-.64 6.29 3.68 11.3 7.23 16.11-7-.95-15.33-2.61-15.07-11.29.12-3.84.92-8 3.48-11 3.05-3.56 7.25-5.59 8.65-8.16z" fill="#f1dcd3"/><path d="m302.38 335.21c-2.07-1.9-3.41-4.36-5.68-6.1a14.92 14.92 0 0 0 -10.36-2.78c-3.84.3-7.3 2.16-10.78 3.66-1.88.81-4.46 2.43-6.55 2.3 1.85-4.9 5.06-13.6 11.39-13.71a29 29 0 0 1 12.19 3.22c2.09 1.08 4.43 2.19 6 4a15 15 0 0 1 3.79 9.41z" fill="#f1dcd3"/><path d="m238.26 495.81c-3.85 1-7.51 3.21-11.41 4.35a72.13 72.13 0 0 1 -20.66 2.7c-13.36-.12-25.94-5.92-35.39-15.34-7.29-7.26-10.87-22.18-22.51-24.08-6.33-1-12.37 1.94-18.59 2a26.62 26.62 0 0 1 -13.7-4.12c3.37 5.09 10.43 9.8 16 12.29a31.71 31.71 0 0 0 11.49 2.82c1.29.07 4.5-.69 5.64 0 2.53 1.5 1 3.9-1 5.44-6.59 5-15.19 2.43-22.48 2.66a45.35 45.35 0 0 0 19.66 8.86c6.18 1.11 11.61-1.16 17.19-1.75-3.41 9.59-18.3 12.24-27 12.29 5.38.65 10.65 2.79 16.22 3.28 4.26.37 8.91.35 13-1.14 2-.71 4.47-3 6.58-3.14 2.57-.15 3.35.48 3.44 3.7.21 6.73-8.49 13.11-13.51 16.3 5.12-1.85 10.37-3 15-6.36 1.49-1.11 5.49-6.1 7.59-6.22 7.43-.43 2 16.68.32 19.92 2.65-4.5 6.43-8.21 8.84-13 1.47-2.93 1.12-4 3.81-4.88 2.48-.83 7.6-.16 10.57-.6 11.51-1.79 20.43-6.79 30.9-15.98z" fill="#2c2623"/><path d="m329.37 495.81c3.85 1 7.51 3.21 11.41 4.35a72.2 72.2 0 0 0 20.67 2.7c13.35-.12 25.93-5.92 35.38-15.34 7.29-7.26 10.87-22.18 22.51-24.08 6.33-1 12.37 1.94 18.59 2a26.62 26.62 0 0 0 13.71-4.13c-3.37 5.09-10.43 9.8-16 12.29a31.66 31.66 0 0 1 -11.49 2.82c-1.29.07-4.5-.69-5.64 0-2.53 1.5-1 3.9 1 5.44 6.58 5 15.18 2.43 22.47 2.66a45.35 45.35 0 0 1 -19.66 8.86c-6.18 1.11-11.61-1.16-17.19-1.75 3.41 9.59 18.3 12.24 27 12.29-5.39.65-10.66 2.79-16.23 3.28-4.26.37-8.9.35-13-1.14-2-.71-4.47-3-6.58-3.14-2.57-.15-3.34.48-3.44 3.7-.21 6.73 8.49 13.11 13.51 16.3-5.12-1.85-10.37-3-15-6.36-1.49-1.11-5.49-6.1-7.59-6.22-7.43-.43-2 16.68-.32 19.92-2.65-4.5-6.42-8.21-8.84-13-1.47-2.93-1.12-4-3.81-4.88-2.48-.83-7.6-.16-10.57-.6-11.5-1.78-20.42-6.78-30.89-15.97z" fill="#2c2623"/><path d="m468.58 435.58c1.23-.26 1-2.95 1.09-3.92.25-2.38-.08-5.08.4-7.36 1.37 2.58 3.46 4.79 5 7.3.36.59 1.65 2.24 1.65 2.24a21 21 0 0 0 4.5-.58 18.89 18.89 0 0 1 5.55-.61c-.72 1-1.41 2-2.07 3-.85 1.32-1.81 2.57-2.65 3.9-.28.45-1.08 1.37-1.07 2 0 1.31 1.62 3.14 2.24 4.27 1 1.84 2.42 3.59 3.32 5.46-2.54.26-5.91-2.18-8.06-3.19-.94-.45-2.34-1.44-2.65-1.37s-3.12 2.88-4.49 4a26.93 26.93 0 0 0 -2.85 2.7c-.3.33-.57.72-1 .81a40.55 40.55 0 0 1 .58-7.37c.1-.92.42-3.54.42-3.54l-4.5-2.48c-1.53-.85-3.77-1.69-4.83-3.13 1.41-.42 3.11-.51 4.59-.88 1.69-.49 3.53-1.28 4.83-1.25z" fill="#fcdf54"/><path d="m458.78 405.4a45.45 45.45 0 0 1 2.76-7.22c.74 3.1 1.22 4.75 2 7.82a25.61 25.61 0 0 1 7.07 1.87 27.27 27.27 0 0 0 -5.63 2.88c-.76.56.22 3.2.29 4.09a30 30 0 0 1 .34 4.52c-2.44-1.21-3.45-4.56-5.5-6.25a7.51 7.51 0 0 1 -1.75 1.3c-1.38.89-2.86 2.43-4.35 3 0-2.2 2.65-6.73 2.56-6.95-.17-.46-4-3.59-5-5.2 1.73-.11 5.33-.46 7.21.14z" fill="#fcdf54"/></svg>