<svg id="goodvibes" xmlns="http://www.w3.org/2000/svg" viewBox="0 0 553 574"><defs><style>.cls-1{fill:none;}.cls-2{fill:#608ac4;}</style></defs><g id="cadre"><rect class="cls-1" width="553" height="574"/></g><path class="cls-2" d="M190.56,242.71a56,56,0,0,1-1.79,8.61,194.09,194.09,0,0,0-1.64,24.94q0,20.19-1.5,26-2.83,3.57-9.42,3.57c-.69,0-2.14-.08-4.33-.23s-3.59-.22-4.19-.22a50.26,50.26,0,0,0-7.69.89,50.49,50.49,0,0,1-7.7.89q-30.21,0-33.49-41.27-.75-9.19-.74-16.48,0-39.78,21.52-54.48,4.18-2.82,12.26-4.75a57,57,0,0,1,13-1.78q10.75,0,15.84,2.67,3.44,1.78,3.44,18.26a51.41,51.41,0,0,1-1.35,12c-1.89,2.48-3.94,3.72-6.13,3.72q-3.58,0-10.16-4.46t-9.57-4.45q-10.17,0-10.16,23.75c0,.59-.08,1.88-.23,3.86s-.22,3.27-.22,3.86c0,.4.07,1.21.22,2.45s.23,2,.23,2.15a75.46,75.46,0,0,0,1.49,10.25q1.65,5.79,6,7.86h1.5a5.15,5.15,0,0,0,4.33-1.92,35.36,35.36,0,0,0,.75-7q0-10.85-5.68-15.29a17.71,17.71,0,0,1-.3-2.68c0-2.86,1.19-4.7,3.59-5.49a42.67,42.67,0,0,1,13.3-1.78,73.73,73.73,0,0,1,15.1,1.48c1.69.4,2.74.87,3.14,1.42S190.56,240.83,190.56,242.71Z"/><path class="cls-2" d="M270.54,246.28q0,42.6-20.89,56.56-6.41,4.31-18.05,4.3-9.84,0-15.81-4.3-14.62-10.39-17.3-37.41-.75-7.57-.75-10.25,0-25.23,8.65-45.72,9-21.08,30.29-21.08,12.07,0,18.34,6.38a51,51,0,0,1,13.13,23.9Q270.54,228.46,270.54,246.28Zm-27.21,5.49v-11q0-16.92-9.41-16.92c-1.8,0-3.44.94-4.94,2.82q-3,3.85-3,20.93,0,8,1,11.73c1.29,4.75,3.89,7.12,7.77,7.12q5.53,0,7.33-5A29.89,29.89,0,0,0,243.33,251.77Z"/><path class="cls-2" d="M350.66,246.28q0,42.6-20.88,56.56-6.42,4.31-18,4.3-9.86,0-15.82-4.3-14.61-10.39-17.3-37.41c-.5-5.05-.74-8.47-.74-10.25q0-25.23,8.65-45.72,8.94-21.08,30.28-21.08,12.07,0,18.35,6.38a51.09,51.09,0,0,1,13.13,23.9Q350.67,228.46,350.66,246.28Zm-27.2,5.49v-11q0-16.92-9.42-16.92-2.69,0-4.94,2.82-3,3.85-3,20.93,0,8,1,11.73,1.95,7.13,7.78,7.12,5.52,0,7.32-5A29.56,29.56,0,0,0,323.46,251.77Z"/><path class="cls-2" d="M431.83,242.19a224.87,224.87,0,0,1-1.79,25c-.51,3.86-.9,6.54-1.2,8a47.24,47.24,0,0,1-2.39,7.87q-7.77,19-23.32,22.15a107.37,107.37,0,0,1-21.23,1.93,73.77,73.77,0,0,1-12.11-.74c-3.88-.69-6.23-3.17-7-7.43a58,58,0,0,1-.3-6.54q-.3-8.62-.3-15,0-9.81.3-24.22l.45-30.47V219.3c-.1-1.39-.15-2.23-.15-2.53,0-1.88-.78-4.61-2.32-8.18s-2.32-6.34-2.32-8.32q0-3.72,4-6.24c.2-.1,1.5-.6,3.89-1.49a68.19,68.19,0,0,1,23.62-4.16q21.21,0,30.19,10.7a52.25,52.25,0,0,1,3.29,4.9Q431.83,218.56,431.83,242.19Zm-27.21,5.27A53.81,53.81,0,0,0,401,228c-1.1-2.87-2.9-4.31-5.38-4.31a5.65,5.65,0,0,0-2.85.89q-2.24,1.34-2.24,24.65,0,11.56.3,14.25a4.6,4.6,0,0,0,1.5,2.08,20.82,20.82,0,0,0,4.18.74Q404.62,266.32,404.62,247.46Z"/><path class="cls-2" d="M156.63,333.93q0,11.83-10.79,61L131.5,459.84q-1.49,6.86-5.21,9.62-5.58,4.07-21.6,4.07-16.2,0-20.48-1.48-5.22-1.86-6.89-10.54t-10-66.2q-1.68-10.15-5.77-36.61a63.19,63.19,0,0,0-2.42-8.5q-4.09-7-4.1-11.09,0-7.39,11.73-10.54,3.72-1.11,17.87-2.41,5.6-.56,6.7-.55,7.45,0,9.13,6.28,1.13,4.44,2.23,22.38.75,12.75,3.54,45.67,1.3,11.46,3.72,11.46,2.79,0,3.54-4.62a22.19,22.19,0,0,0,.56-3.51l1.49-12.95q2.79-22.56,2.79-35.87a35.28,35.28,0,0,0-1.49-10.54,15.77,15.77,0,0,1-.74-4.62q0-6.29,6-8.88,9.31-4.07,24.77-4.06Q156.63,326.35,156.63,333.93Z"/><path class="cls-2" d="M207.65,462.43c0,2.47-.19,3.89-.56,4.25q-5.4,7.95-20.11,6.85l-14.52-1.11q-4.1-2.22-5-8.14v-10a7.12,7.12,0,0,0-.18-1.67V451q0-3.71.18-7l.38-6.84q0-3.33.74-58.61,0-3.89.19-13.68a24.11,24.11,0,0,1,.37-3.89q0-3.69-2.51-11.28t-2.52-11.46v-1.66a15.72,15.72,0,0,1,10.43-7l12.84-2.77a42.41,42.41,0,0,1,8.38-1.11q7.83,0,9.68,4.62,2.06,5.17,2.05,25,0,7.59-.65,22.84t-.65,22.83q0,10.35.74,30.79T207.65,462.43Z"/><path class="cls-2" d="M308.93,428.59q0,24-18.06,35.51-14.89,9.42-40.59,9.43-26.81,0-28.67-8.51-1.49-6.47-1.49-36.79,0-13.69.38-33.47l.55-33.47q0-3.33-2.51-10.35T216,340.21A9.74,9.74,0,0,1,221.8,331l3.91-1.29a84,84,0,0,1,26.62-4.07q25.14,0,36.68,5,17.69,7.39,17.68,28.47a34.46,34.46,0,0,1-3.16,15,38.77,38.77,0,0,1-6.7,9.06,101.17,101.17,0,0,0-7.26,8.51Q308.92,403.82,308.93,428.59Zm-41.15-56a17.09,17.09,0,0,0-2.23-8.32q-3.54-2-4.47-2-5.58,0-5.58,10.72,0,7.4,5.4,7.4Q267.77,380.34,267.78,372.57ZM271,422.49q0-3.69-1.14-5.36a41.19,41.19,0,0,0-4.2-3.7c-.26,0-1.08-.09-2.48-.27a25.62,25.62,0,0,0-2.86-.28,5,5,0,0,0-3.82,1.66q0,.93-.48,4.53a45.55,45.55,0,0,0-.47,4.72,9.4,9.4,0,0,0,2.29,6.47,10,10,0,0,0,3.43.55Q271,430.81,271,422.49Z"/><path class="cls-2" d="M401.64,355q0,13.88-8.87,13.87-3.33,0-10.81-3.88t-12.09-3.88q-7.2,0-8.13-.19-6.83,1.66-6.83,8.88a34.47,34.47,0,0,0,1.29,8.32,4.87,4.87,0,0,0,2.94,1.11q2.76,0,10.31-3.24t10.86-3.23q5,0,6.82,3.32,1.1,2,1.1,7.95,0,3-.37,9t-.37,9v2.77a16.11,16.11,0,0,1-2.23,5.92q-2.24,3.7-4.85,3.7-5.58,0-13.59-4.07-5-2.58-8.19-4.25-3.72,0-3.72,11.09,0,7,2.79,9.62,1.86,1.67,6.33,1.66,5.78,0,17.31-5t13.6-5q1.67,0,3.53,2.77a15.44,15.44,0,0,1,2.42,5.55,25.64,25.64,0,0,1,.56,5.17q0,1.49-.37,6.48t-.37,6.47q0,18.48-4.84,26.07a23.51,23.51,0,0,1-10.24,2.22h-38q-14.52,0-18.62-1.11-8-2.22-8-14.43,0-16.08.74-47.33L322.89,362q0-3.88-2.61-11.83-2.41-7.4-2.42-11.65a15.89,15.89,0,0,1,1.67-7.21q5.6-4.62,18.44-5.36c4.21-.25,5.83-.37,4.84-.37h18.43c.74,0,2.3.09,4.65.27s3.79.28,4.28.28q9.31,0,25.33,1.48,4.1,1.49,4.83,13.31a23.59,23.59,0,0,0,.56,3.89A59.35,59.35,0,0,1,401.64,355Z"/><path class="cls-2" d="M494.92,427.12a55.8,55.8,0,0,1-3.73,20q-4.1,10.92-11.36,16.83-11.71,9.61-41.32,9.62c.36,0,.33,0-.1-.1l-2.14-.27q-4.47-.37-13.22-.93-7.46-.56-10.61-6.65-.56-6.48-1.49-13.87A107.79,107.79,0,0,1,409.83,438a42.87,42.87,0,0,1,3.73-17.75,9.44,9.44,0,0,1,6.32-2.21q2.43,0,11.55,6.75t14.89,6.74a7.76,7.76,0,0,0,2.05-.18c1.86-1.11,2.79-3.2,2.79-6.29q0-5.55-10.05-14.05-15.09-12.76-18.8-17.38-10.06-12.39-10.06-26.81,0-13.5,6.33-22.19,10.25-13.86,29.23-17.93a43.8,43.8,0,0,1,6.7-1.11c.63,0,2,.06,4.19.18s3.51.19,4,.19q16,0,21,1.11,7.45,5,7.45,21.26a70,70,0,0,1-1.49,15.16q-1.68,7.39-6.89,7.4-4.28,0-12.47-5.37t-11.92-5.36a10.81,10.81,0,0,0-5.39,1.48,7.28,7.28,0,0,0-.75,3.33q0,5,11,14.61,17.31,15,20.66,19.23Q494.91,412.51,494.92,427.12Z"/><path class="cls-2" d="M67.29,228.11a235.46,235.46,0,0,1-38.27-40c-6.4-8.57-21-.2-14.52,8.49A252.68,252.68,0,0,0,55.4,240c8.26,6.87,20.22-5,11.89-11.89Z"/><path class="cls-2" d="M74.74,274.12a234.94,234.94,0,0,1-54.25,10.53c-10.73.77-10.82,17.59,0,16.82a254.67,254.67,0,0,0,58.72-11.13c10.28-3.26,5.89-19.5-4.47-16.22Z"/><path class="cls-2" d="M98.67,199.5a283.92,283.92,0,0,1-31.35-75.85c-2.66-10.49-18.88-6.05-16.22,4.47A300.51,300.51,0,0,0,84.15,208c5.53,9.29,20.07.84,14.52-8.49Z"/><path class="cls-2" d="M484.16,259.18A167.74,167.74,0,0,1,526,218.29c8.89-6.07.48-20.65-8.49-14.52a190.54,190.54,0,0,0-47.86,46.92c-6.3,8.82,8.28,17.23,14.52,8.49Z"/><path class="cls-2" d="M466.51,201.94,485.15,154c3.92-10.09-12.33-14.46-16.22-4.47l-18.64,47.92c-3.93,10.1,12.33,14.47,16.22,4.48Z"/><path class="cls-2" d="M479.66,293.62l50.41,10.17c10.56,2.13,15.08-14.07,4.47-16.22L484.13,277.4c-10.57-2.13-15.09,14.08-4.47,16.22Z"/></svg>