<svg id="queen" xmlns="http://www.w3.org/2000/svg" viewBox="0 0 553 574"><defs><style>.cls-1{fill:none;}.cls-2{fill:#5f8cc6;}.cls-3{fill:#add7c4;}.cls-4{fill:#41bcd3;}.cls-5{fill:#f3cbdf;}.cls-6{fill:#f6ae2f;}</style></defs><g id="cadre"><rect class="cls-1" width="553" height="574"/></g><path class="cls-2" d="M94.5,428.91c33.45-2.71,15.39-5.64,49-6.25,12.48-.23,21.65-.91,34.13-1.25-1.9-14.89-3.6-29.8-4.57-44.76-1.28-20-.79-40-.47-60,.33-19.72-.31-39.66,1.43-59.33A93.13,93.13,0,0,1,196,204.71c12-14,30.6-25,51.86-25,20.54,0,37.11,11.47,50.66,23.16,30.76,26.56,59.46,57.89,72.16,93.69,7.3,20.58,9.93,42,12.29,63.27q3.21,29,6.37,57.9,35.93-.66,71.83-1.91c9.87-.35-5.41,0,4.47-.36.06-.4,1.06.44,1.06,0,0-33.49,3.65-55-.09-85.49-1.78-14.5-1.45-30.55-4.29-44.95-2.74-13.92-10.57-27.9-18-40.56a765.29,765.29,0,0,0-52-76.72C375.63,146.1,361.45,128,333,116.62c-25.27-10.07-50.54-11.8-78.36-10.65-29.94,1.25-48.82,6.31-75.15,18.44-27.32,12.59-33.15,30.14-50.76,51.07-18.89,22.44-16.57,33.31-28.52,59-12.42,26.7-9.85,50.95-11.56,79.31-1.8,29.76-6.41,40.85-2,70.5C87.07,387.79,93.84,425.46,94.5,428.91Z"/><path class="cls-3" d="M234.77,420c.31-13.63.62-27.25.48-40.87a380.42,380.42,0,0,0-2.86-45c-1.93-14.88-2.79-28.76,1-43.51,1.84-7.15,4.18-14.2,6.42-21.27q1.68-5.28,3.35-10.56c.9-2.85,1.34-6.86,4.8-8.34,5.56-2.38,14.16-1,19.75.58A50.69,50.69,0,0,1,285.09,260C308.16,278,308.66,307.48,313,331.78a628.54,628.54,0,0,0,22.1,86.72l19.74-.21q12.45-.14,24.89-.33c-7-32.33-13.87-64.69-21.12-97-3.52-15.7-8.74-30.6-18.43-44.49-9.28-13.3-21.14-25.26-33.13-36.92-11.47-11.15-24.11-22.16-41.27-26.94-16.19-4.52-33.08-1.58-45.54,8.11-13.29,10.32-18.77,25.31-21.84,39.79-3.51,16.61-4.69,33.49-5.19,50.33-1.07,36.69-.72,73.43.43,110.12C207.36,420.61,221.06,420.24,234.77,420Z"/><path class="cls-4" d="M303.14,362.52c-4.87-18.51-9.22-37.59-18.59-55-3.47-6.46-9.39-13.71-18.3-15.3-9.91-1.77-14.06,7.17-16.72,13.37-7,16.43-4.87,34.42-3.14,51.45,2.13,20.85,2.38,41.72,2.22,62.62l13.07-.2a3.05,3.05,0,0,1-.22-1.08q0-4.67,0-9.33C260.36,398,258.37,387,258,375.85c-.1-3.15-.11-6.54.07-10-.2-2.31-.45-4.18-.74-6.84-.34-3.19-.62-6.39-.69-9.6-.13-5.66.22-12,3.2-17,3.57-6,13.25-9.18,18.38-3.27a21.54,21.54,0,0,1,3.42,6.33,136.18,136.18,0,0,1,9.05,34.72,146.82,146.82,0,0,1,4,16.3c2.26,10.61,1.49,21.6,3.08,32.32,3.7-.05,16.46-.1,20.17-.14Z"/><path class="cls-5" d="M123.9,428.48a1.93,1.93,0,0,1-1.32-.11c-1.44-.61-.43-2.33-.33-3.33.38-3.77.39-7.6.52-11.39q.39-11.59.92-23.19c1.67-36,4.47-72.2,11-107.74,6-32.48,15.07-65.07,31.48-93.94,8.83-15.51,17.59-26.46,27.59-34.43,10.31-8.23,23.28-14.19,38.55-17.71a133.47,133.47,0,0,1,77.81,5.71c44.2,17.24,81.31,59.37,101.81,115.58A328,328,0,0,1,425.61,308a488.33,488.33,0,0,1,7.36,58c.68,9.62,1.15,19.25,1.48,28.88q.26,7.14.4,14.29c0,1.38,1,10,0,10.61a1.41,1.41,0,0,1-.83.16c-4.48-.24-3.29-4.77-3.35-7.87q-.13-6.29-.31-12.57-.37-12.42-1.09-24.82c-2.3-39-7.83-78.2-21.27-115.06-20.05-54.95-56.23-96.1-99.27-112.9a129.53,129.53,0,0,0-75.51-5.54c-14.69,3.39-27.11,9.09-36.93,16.92-9.54,7.61-17.95,18.13-26.47,33.11a223.41,223.41,0,0,0-15.24,33.21c-12,32.53-18,67.09-21.78,101.44-2,18.1-3.33,36.26-4.3,54.44q-.72,13.55-1.21,27.11C127.19,409.57,128,427.2,123.9,428.48Z"/><path class="cls-6" d="M214.43,425.65h0c-.35,0-.63-.4-.62-.88l.07-3.79c.86-52.28,1.94-110.41,16.48-155.77,3.53-11,7-18.73,11-24.37a35.26,35.26,0,0,1,15.47-12.59c10.31-4.22,21.45-2.77,31.35,4.08,17.72,12.26,32.6,42.18,40.81,82.1,7.56,36.75,8.92,69.38,9.25,106.66,0,.47-.27.86-.62.86a.79.79,0,0,1-.64-.84c-.34-37.17-1.68-69.66-9.21-106.22-8.11-39.46-22.76-69-40.17-81-9.61-6.65-20.4-8.06-30.4-4A33.91,33.91,0,0,0,242.28,242c-3.88,5.49-7.3,13.07-10.77,23.87C217.06,310.94,216,368.88,215.13,421l-.06,3.79C215.06,425.28,214.78,425.65,214.43,425.65Z"/><path class="cls-2" d="M170.18,515.14q1.75,1.74,3.36,3.15t3.1,3a5.39,5.39,0,0,1,2.08,3.46,5.52,5.52,0,0,1-1.66,3.62,26.5,26.5,0,0,1-2.28,2.68c-.78.8-1.63,1.62-2.54,2.43-1.41,1.26-2.57,1.89-3.47,1.88s-2-.71-3.38-2.12c-.54-.57-1.08-1.11-1.62-1.6s-1.12-1.08-1.75-1.74c-.25.19-.46.34-.62.48a4.37,4.37,0,0,0-.5.47,20.88,20.88,0,0,1-9.83,5.77,27.38,27.38,0,0,1-11.61.16q-11.46-2.24-18.58-9T110.59,510A89.3,89.3,0,0,1,108,498.36a80,80,0,0,1-.9-12.09,52.85,52.85,0,0,1,3-18.91,46,46,0,0,1,10.23-16.24,29.37,29.37,0,0,1,5.36-4.61,21,21,0,0,1,6.46-2.86,15.71,15.71,0,0,1,3.47-.53,38.62,38.62,0,0,1,14.9,1.45,19.23,19.23,0,0,1,5.87,3,23.34,23.34,0,0,1,4.65,4.71,48.92,48.92,0,0,1,6.19,10.59,92.68,92.68,0,0,1,4,11.71,64.51,64.51,0,0,1-.7,38.76c-.08.26-.16.54-.23.85S170.25,514.8,170.18,515.14ZM159.45,521a7.51,7.51,0,0,1,.94.74,9.43,9.43,0,0,0,.93.73c1.07.91,2.17,1.85,3.28,2.83s2.26,1.94,3.41,2.83a6.13,6.13,0,0,1,.81.61,1.82,1.82,0,0,0,.92.48,1.69,1.69,0,0,0,.84,0,1.14,1.14,0,0,0,.69-.35,1.71,1.71,0,0,0-.19-1.67,5.13,5.13,0,0,0-.68-.74,6,6,0,0,0-.8-.62q-2-1.73-4-3.51c-1.3-1.19-2.61-2.37-3.95-3.52a21.7,21.7,0,0,0,2.1-5.44,43.34,43.34,0,0,0,.92-5.66q.67-5.7,1-11.92a62.4,62.4,0,0,0-.84-15.77,79.6,79.6,0,0,0-4.44-15.12,28.18,28.18,0,0,0-3.22-6,24.23,24.23,0,0,0-4.72-4.9,17.68,17.68,0,0,0-5.36-3,19.24,19.24,0,0,0-12.46-.13,16.29,16.29,0,0,0-5.8,3.34,36.34,36.34,0,0,0-8.18,9.76,45.49,45.49,0,0,0-4.6,11.81,49.06,49.06,0,0,0-1.53,11.43,68.21,68.21,0,0,0,.8,11.45,66.65,66.65,0,0,0,2,9.08,43.36,43.36,0,0,0,3.59,8.5,34.43,34.43,0,0,0,3.51,5.21,41.58,41.58,0,0,0,4.25,4.54,22.94,22.94,0,0,0,7.54,4.4,17.85,17.85,0,0,0,15.17-1.6,22.07,22.07,0,0,0,6.34-5.82,8.17,8.17,0,0,1,.74-.93A12.49,12.49,0,0,0,159.45,521Zm-.44-4.5q-1.89-1.72-3.49-3.28c-1.08-1-2.15-2-3.23-3-.45-.42-.89-.8-1.34-1.17a6.49,6.49,0,0,0-1.46-.91,1.65,1.65,0,0,0-1.94-.18.62.62,0,0,0-.29.85,2.53,2.53,0,0,0,.62.94c.46.59,1,1.17,1.5,1.75l1.62,1.74,4.83,4.44c.18.17.38.38.61.63s.42.45.6.62a27.32,27.32,0,0,1-5,6.15,12.22,12.22,0,0,1-7.11,3,15.28,15.28,0,0,1-6.8-.68,21.85,21.85,0,0,1-6-3.18,27.51,27.51,0,0,1-6.2-6.38,36.18,36.18,0,0,1-4.07-7.78,49,49,0,0,1-3.22-12.26,68.7,68.7,0,0,1-.4-12.63,61.92,61.92,0,0,1,1.64-10.33,34.71,34.71,0,0,1,4-9.52,35.42,35.42,0,0,1,6.88-8.3,13.82,13.82,0,0,1,4.92-2.91,15.69,15.69,0,0,1,10.86.32,14.89,14.89,0,0,1,4.63,2.91,27.76,27.76,0,0,1,6.3,8.64,49.16,49.16,0,0,1,2.93,8.34q1.08,4.28,1.78,8.64a67.24,67.24,0,0,1-2,30.16c-.15.52-.33,1-.52,1.57S159.24,515.81,159,516.51Zm-3.12-12.78a8.43,8.43,0,0,0,.26-1.62,4.57,4.57,0,0,1,.27-1.37,37.79,37.79,0,0,0,.3-8.21,67.81,67.81,0,0,0-1.11-8.15,49.28,49.28,0,0,0-2.43-8.62,34,34,0,0,0-4.33-7.88,13.23,13.23,0,0,0-4-3.83,14,14,0,0,0-3.56-1.86,6.67,6.67,0,0,0-4,0A15.07,15.07,0,0,0,133,464a10.68,10.68,0,0,0-3.29,3.36l-1.61,3.1a23.7,23.7,0,0,0-1.35,3.22,49.87,49.87,0,0,0-2.38,11.08,38.81,38.81,0,0,0,.6,11.33,79.33,79.33,0,0,0,2.36,8.49,29.38,29.38,0,0,0,4,7.77,20,20,0,0,0,2.39,3.13,11.91,11.91,0,0,0,3,2.32,15.71,15.71,0,0,0,5.12,1.92,7,7,0,0,0,5.36-1.45c-.19-.25-.37-.48-.55-.68a7.27,7.27,0,0,0-.54-.56L144,514.87c-.67-.7-1.33-1.42-2-2.17-1.73-2.25-1.78-4.45-.15-6.58.66-.71,1.32-1.41,2-2.08s1.37-1.37,2.11-2.09q2.24-2.16,5.4-.61c.7.4,1.4.78,2.11,1.13S155,503.25,155.89,503.73Z"/><path class="cls-2" d="M181.87,457.85c-1,0-1.79-.07-2.52-.08s-1.44,0-2.13,0a5.88,5.88,0,0,1-2.22-.68,2.61,2.61,0,0,1-1-2c-.24-1.45-.43-2.95-.58-4.49s-.25-3.09-.32-4.63a2.67,2.67,0,0,1,2.08-2.8,8.82,8.82,0,0,1,3.2-.78q5.79-.24,11.59-.55c3.87-.2,7.77-.39,11.73-.55a3.21,3.21,0,0,1,3.6,2.82,16.55,16.55,0,0,1,.52,4.81c-.06,1.61-.19,3.22-.38,4.86a2.81,2.81,0,0,1-1,1.92,5.61,5.61,0,0,1-2,.92,7.1,7.1,0,0,1-1.34.18l-1.48.07a10.82,10.82,0,0,1,0,1.16,8.69,8.69,0,0,0,0,1.16,115.65,115.65,0,0,0,.73,12.88q.72,6.3,1.37,12.72c.39,3.26.74,6.51,1,9.77s.7,6.51,1.18,9.76a26.16,26.16,0,0,0,1.73,7.29,9.93,9.93,0,0,0,1.82,3.41,6.13,6.13,0,0,0,3.18,2.06,7.18,7.18,0,0,0,6-.57,8.08,8.08,0,0,0,4-5,12.66,12.66,0,0,0,.69-4.93c0-3.62,0-7.25.07-10.91s-.09-7.33-.33-11q-.25-6.18-.71-12.23t-1-12.22a10.76,10.76,0,0,0-.2-1.74q-.16-.82-.33-1.86a9,9,0,0,1-1.17,0,7.09,7.09,0,0,0-1,0,4,4,0,0,1-3.6-2.7,19.49,19.49,0,0,1-.9-4.61,32.66,32.66,0,0,1,0-4.64,3.83,3.83,0,0,1,3-3.1,13.46,13.46,0,0,1,3.21-.52q5-.33,10-.54l9.86-.41a4.54,4.54,0,0,1,3.06.71,5.42,5.42,0,0,1,1.6,2.71,12.07,12.07,0,0,1,.69,4.17,40.12,40.12,0,0,1-.34,4.21,4.7,4.7,0,0,1-3.08,3.61,6.58,6.58,0,0,1-1.34.44c-.47.11-1,.26-1.59.46l.1,2.45,1,23.84q.38,8.88,0,17.75t-1.71,17.82q-1.48,11-12.31,14.45a32.57,32.57,0,0,1-7.17,1.53q-3.6.35-7.21.36c-2.42-.07-4.7-.23-6.86-.48a14.79,14.79,0,0,1-8.61-3.52,17.86,17.86,0,0,1-4.91-7.93,51.64,51.64,0,0,1-2.17-8.82l-1.41-9q-1.45-10.12-2.2-20.23t-1.43-20.41c0-1-.11-2-.19-3S181.92,459.06,181.87,457.85Zm5-6.66a4.29,4.29,0,0,1,.16.9c.32,3.51.61,7,.88,10.35s.57,6.84.89,10.36q.92,9.78,2.23,19.46t3.25,19.3q3,15.88,18.15,17.18a16.76,16.76,0,0,0,11-2.65,15.65,15.65,0,0,0,6.45-9.3,32.74,32.74,0,0,0,.88-3.91c.11-1.38.2-2.74.28-4.08s.12-2.69.15-4.07q.12-12.53-.26-24.78t-1.67-24.71a21.3,21.3,0,0,1-.19-2.9c0-1,0-2-.06-3.16,1.54-.07,3-.11,4.44-.12s2.82-.1,4.19-.24c2-.08,2.85-.68,2.64-1.79a1.35,1.35,0,0,0-1.15-1.11,9.88,9.88,0,0,0-1.61-.07c-3,0-6.05.13-9.09.25l-9.09.38a6.11,6.11,0,0,0-2.68.63,2.44,2.44,0,0,1-.63.35c-.17.05-.29.38-.35,1a.69.69,0,0,0,.48.69,2,2,0,0,0,.72.17,13.53,13.53,0,0,0,2.52.15,23.62,23.62,0,0,1,2.52,0c.6,0,1.2,0,1.81,0s1.2,0,1.8,0c.33,3.69.6,7.27.84,10.75s.42,7,.56,10.49q.67,10.19.84,20.24c.06,3.35.07,6.69,0,10s-.08,6.61-.11,9.88a22.62,22.62,0,0,1-2,8.22,9.36,9.36,0,0,1-4.08,4.43,12.14,12.14,0,0,1-5.22,1.76,20.57,20.57,0,0,1-5.56-.28q-10.8-2.13-12.81-13-.83-4.49-1.67-9.1T195,493.58q-1-8.47-1.93-16.89t-1.8-16.9c-.15-1.46-.23-2.92-.25-4.38s-.06-2.93-.12-4.39l1.16,0a6.1,6.1,0,0,0,1.16-.18c1.11-.13,2.18-.22,3.21-.26s2.1-.13,3.22-.27a4.42,4.42,0,0,0,1.14-.43,1.43,1.43,0,0,0,.6-1.19c0-.77-.74-1.22-2.12-1.33l-.52,0q-4.64.33-9.21.51l-9.21.39a10.24,10.24,0,0,0-2.95.51,2.42,2.42,0,0,0-1,1.46.72.72,0,0,0,.41.69l.66.29a2.11,2.11,0,0,0,1.11.15,3.67,3.67,0,0,1,1.09,0c1.21-.05,2.41-.07,3.62-.08S185.68,451.24,186.89,451.19Z"/><path class="cls-2" d="M275.71,476.15l4.9-.2,4.83-.2c1.59-.07,3.2-.09,4.84-.08a4.88,4.88,0,0,1,3.19.84,4.44,4.44,0,0,1,1,3.12c0,1.47,0,2.93.06,4.39s.07,2.92.05,4.39a3.27,3.27,0,0,1-3.32,3.88,20.62,20.62,0,0,1-3.22.39l-3.09.13c-1.37.14-2.76.22-4.18.24s-2.86.05-4.32.11a116.66,116.66,0,0,0,.55,11.73q.55,5.78.82,11.84c1.2,0,2.36,0,3.48,0s2.24,0,3.36.05l10.82-.45a20.13,20.13,0,0,1,2.33,0,20.73,20.73,0,0,1,2.34.28,4.36,4.36,0,0,1,1.57.72,1.81,1.81,0,0,1,.71,1.51c0,1.38,0,2.72,0,4s0,2.62-.16,4q-.36,3.76-4.35,3.93-7.35.43-14.75.74l-14.76.62q-5.91.49-11.73.49a4.67,4.67,0,0,1-2.93-.72,4.92,4.92,0,0,1-1.08-2.73,32.74,32.74,0,0,1-.39-4.63c0-1.55-.06-3.06-.12-4.52,0-1,.53-1.65,1.73-1.88A18.12,18.12,0,0,1,256,518a18.17,18.17,0,0,0,2.19-.23,3.76,3.76,0,0,0,1.78-.52c.25-.23.36-.81.32-1.76q-.75-14.81-1.48-29.37t-1.48-29.24l-.1-2.45c-.69,0-1.35,0-2,0s-1.32-.06-2-.11a4.23,4.23,0,0,1-2.47-.61,4,4,0,0,1-1-2.35q-.54-3.84-.69-7.46a4,4,0,0,1,.47-2.53,3.38,3.38,0,0,1,2.35-.94c1.8-.16,3.6-.26,5.41-.29s3.61-.08,5.42-.16q4.25-.3,8.5-.48l8.5-.36q3.73-.15,7.34-.37c2.41-.14,4.81-.22,7.22-.23s3.66,1.05,3.76,3.45c0,1.21.1,2.43.15,3.68a28.71,28.71,0,0,1-.09,3.81,3.23,3.23,0,0,1-.69,2.16,3.7,3.7,0,0,1-2.16.8c-1.63.16-3.24.29-4.82.39s-3.2.29-4.82.53c-.95,0-1.91.1-2.9.18s-1.95.15-2.9.19-1.67.22-2.44.29-1.63.18-2.57.3ZM263,448.8q.54,19.08,2,37.61t2,37.35l-4.51.19a20.41,20.41,0,0,1-2.38.23,12.16,12.16,0,0,0-2.5.36c-1.37.23-2,.82-2,1.77,0,1.11.76,1.69,2.14,1.71l1.16,0a24.39,24.39,0,0,1,2.44-.23l2.32-.09q7.35-.43,14.68-.81t14.82-.68a9.35,9.35,0,0,0,1.16-.11c.34-.06.72-.14,1.15-.24.85-.12,1.26-.7,1.22-1.73a1.48,1.48,0,0,0-1.48-1.49,4.62,4.62,0,0,0-1-.09l-1,0-9.86.41q-5,.19-9.85.53l-2.58.11q-.51-9.27-1-18.35t-1-18.35a17.69,17.69,0,0,1,2.18-.22,15.82,15.82,0,0,0,2.06-.22l6.83-.28c2.32-.1,4.59-.23,6.82-.42l1,0a4,4,0,0,0,1-.17,1.65,1.65,0,0,0,1.47-1.87,1.48,1.48,0,0,0-1.61-1.35c-.6-.06-1.16-.1-1.68-.13a7.68,7.68,0,0,0-1.67.14q-4.12.17-8.31.47l-8.55.62q-.5-8.76-1-17.26t-1-17.39a12.09,12.09,0,0,0,1.35-.12,11.21,11.21,0,0,1,1.22-.12l11-.71,11-.72a1.51,1.51,0,0,1,.71-.09,1.51,1.51,0,0,0,.71-.09,1.67,1.67,0,0,0,1.48-1.62c0-.94-.62-1.47-1.75-1.6l-3,.12-24.34,1.4-4.51.19a40.33,40.33,0,0,0-4.5.45c-1.81.07-2.6.71-2.37,1.9,0,1.12,1,1.55,2.76,1.31Z"/><path class="cls-2" d="M331.38,473.83l4.9-.2,4.83-.2c1.59-.07,3.2-.09,4.84-.07a4.94,4.94,0,0,1,3.2.83,4.55,4.55,0,0,1,1,3.13c0,1.46,0,2.92.05,4.38s.08,2.93.05,4.39a4.46,4.46,0,0,1-.72,2.74,4.32,4.32,0,0,1-2.6,1.14,20.64,20.64,0,0,1-3.21.39l-3.1.13c-1.37.15-2.76.22-4.18.24s-2.86,0-4.32.11a116.52,116.52,0,0,0,.55,11.73q.56,5.79.82,11.84c1.2,0,2.36.06,3.48.05s2.24,0,3.36.06l10.83-.45a20,20,0,0,1,2.32,0,20.77,20.77,0,0,1,2.34.29,4.39,4.39,0,0,1,1.58.71,1.83,1.83,0,0,1,.7,1.51c0,1.38,0,2.72,0,4s0,2.62-.16,4q-.36,3.75-4.35,3.92-7.34.44-14.75.75l-14.76.61q-5.91.51-11.72.49a4.68,4.68,0,0,1-2.94-.72,4.88,4.88,0,0,1-1.08-2.73,32.74,32.74,0,0,1-.39-4.63c0-1.55-.06-3.05-.12-4.51,0-1,.53-1.66,1.73-1.88a16.24,16.24,0,0,1,2.18-.22,20.8,20.8,0,0,0,2.19-.22,3.69,3.69,0,0,0,1.78-.53c.25-.22.36-.81.32-1.76q-.75-14.81-1.48-29.37T313,454.59l-.1-2.45c-.69,0-1.35,0-2,0s-1.32-.05-2-.11a4.16,4.16,0,0,1-2.47-.61,4,4,0,0,1-1-2.34,74,74,0,0,1-.7-7.46,4.06,4.06,0,0,1,.47-2.54,3.38,3.38,0,0,1,2.35-.94c1.8-.15,3.61-.25,5.41-.29s3.61-.08,5.42-.16q4.25-.3,8.5-.48l8.5-.35q3.74-.17,7.35-.37c2.4-.15,4.81-.22,7.21-.24s3.66,1.05,3.76,3.46c.05,1.2.1,2.42.16,3.67a30.5,30.5,0,0,1-.1,3.81,3.16,3.16,0,0,1-.69,2.16,3.7,3.7,0,0,1-2.16.8c-1.63.16-3.24.29-4.82.4s-3.2.28-4.82.52c-.95,0-1.92.1-2.9.18s-1.95.15-2.9.19-1.67.22-2.44.29-1.63.18-2.57.3Zm-12.76-27.35q.54,19.09,2,37.61t2,37.35l-4.51.19a20.41,20.41,0,0,1-2.38.23,13.83,13.83,0,0,0-2.5.36c-1.37.24-2,.82-2,1.77.05,1.11.76,1.69,2.14,1.71l1.16,0a24.39,24.39,0,0,1,2.44-.23l2.32-.1q7.35-.44,14.69-.81t14.81-.68a9.35,9.35,0,0,0,1.16-.11c.34-.05.73-.14,1.15-.24.86-.12,1.26-.7,1.22-1.73a1.49,1.49,0,0,0-1.48-1.49,4.57,4.57,0,0,0-1-.09l-1,.05-9.86.41c-3.3.14-6.59.32-9.85.54l-2.58.1c-.34-6.17-.68-12.3-1-18.35s-.68-12.17-1-18.35a19.8,19.8,0,0,1,2.19-.22,17.8,17.8,0,0,0,2-.21l6.83-.29c2.32-.1,4.59-.23,6.82-.41l1-.05a4,4,0,0,0,1-.17,1.65,1.65,0,0,0,1.47-1.87,1.48,1.48,0,0,0-1.6-1.35c-.61-.06-1.17-.1-1.69-.13a8.36,8.36,0,0,0-1.67.14c-2.75.11-5.52.28-8.3.48l-8.56.61q-.49-8.76-1-17.26t-1-17.38a11.91,11.91,0,0,0,1.35-.13c.38,0,.79-.09,1.22-.11l11-.72,11-.71a1.41,1.41,0,0,1,.71-.1,1.3,1.3,0,0,0,.71-.09,1.66,1.66,0,0,0,1.48-1.61c0-.95-.62-1.48-1.74-1.61l-3,.13-24.34,1.4-4.51.18a40.33,40.33,0,0,0-4.5.45c-1.8.08-2.6.71-2.37,1.91,0,1.11,1,1.55,2.76,1.3Z"/><path class="cls-2" d="M370.56,512.61q-1.41-15.44-1.85-30.52t-2.36-30.24l-1.56-.32a5.58,5.58,0,0,1-3-1.17,4.68,4.68,0,0,1-1.16-3.05c0-.77-.06-1.56-.1-2.38a23.71,23.71,0,0,1,0-2.39,14.68,14.68,0,0,1,0-2,14.74,14.74,0,0,0,0-2,2.63,2.63,0,0,1,2-2.67c.85-.2,1.66-.41,2.43-.61a19,19,0,0,1,2.43-.49,91.48,91.48,0,0,1,9.79-.41c3.27,0,6.55.16,9.83.36a5.13,5.13,0,0,1,4.26,3q1.71,3.94,3.42,7.8c1.14,2.58,2.36,5.18,3.68,7.79q5.07,10.25,10.27,20.29t10.4,20.29a1.12,1.12,0,0,1,.34.57,2.24,2.24,0,0,0,.35.69,28.2,28.2,0,0,0,0-3.81c-.05-2.19-.18-4.86-.4-8s-.44-6.54-.68-10.23-.49-7.17-.76-10.43-.53-6.09-.8-8.48-.47-3.94-.58-4.63l-1.37-.2-1.49-.2a4,4,0,0,1-4.27-3.3,21,21,0,0,1-.86-5.07,26.87,26.87,0,0,1,.31-5.11,2.86,2.86,0,0,1,2.61-2.3c.95-.12,1.84-.25,2.7-.37s1.75-.2,2.7-.24q5-.21,10.06-.36t10.18-.36c2.58-.1,3.95,1,4.13,3.19a38.79,38.79,0,0,1,.15,5c-.06,1.63-.15,3.27-.25,4.91a2.41,2.41,0,0,1-1,2,5.27,5.27,0,0,1-2.23.81,21.72,21.72,0,0,1-2.63.43c-.81.08-1.69.18-2.63.3l.16,3.87q.66,9.53,1.17,18.86t1.18,18.87q.13,3.35.4,6.5t.4,6.5c.11,2.84.21,5.67.29,8.51s.12,5.72.16,8.64c-.07,2.5-1.3,3.85-3.7,4l-12.36.9a5.55,5.55,0,0,1-4.87-2.38l-.55-.75a7.51,7.51,0,0,1-.55-.88q-7-13.26-13.95-26.34T386.42,468.7a11.35,11.35,0,0,0-.63-1.2,8.5,8.5,0,0,1-.63-1.2l-.39,0-.12.13a4.08,4.08,0,0,1,0,.78,3.9,3.9,0,0,0,0,.65q.71,10.94,1.35,21.76t1.88,21.74a5.21,5.21,0,0,1,.9,0,4.08,4.08,0,0,0,.78,0,12.83,12.83,0,0,0,1.74.05,6.34,6.34,0,0,1,1.75.19,3,3,0,0,1,2.82,2.46c.23,1.46.44,2.91.63,4.36s.36,2.92.51,4.37,0,2.44-.46,2.93a5,5,0,0,1-2.73,1.08c-.86.12-1.7.22-2.51.3s-1.65.13-2.51.16c-3.26.14-6.53.25-9.8.35s-6.53.16-9.8.21c-1.55,0-2.53-.24-2.93-.65a5.8,5.8,0,0,1-1-2.93c-.15-1.37-.29-2.74-.43-4.11s-.29-2.74-.43-4.11a4.47,4.47,0,0,1,.4-2.67c.33-.4,1.18-.63,2.56-.68ZM384.14,445c.39,1.11.76,2.19,1.11,3.25a27.61,27.61,0,0,0,1.22,3.12q4.45,10.79,9.41,21.29t10.8,20.72q3.06,5.29,6.12,10.4T419,514.08a27.64,27.64,0,0,0,1.86,2.7c.68.87,1.38,1.73,2.1,2.56,1,1,1.91,1.38,2.77,1.17s1.46-1,1.84-2.27a8.51,8.51,0,0,0,.33-1.24q.1-.59.21-1.23a25.08,25.08,0,0,0,.19-3.11c0-1,0-2.07.07-3.1l-.62-33.28q-.06-7.87-.33-15.74t-.33-15.74a6.94,6.94,0,0,1,.21-1.29l6.16-.65a7.15,7.15,0,0,1,1.29-.18l1.29-.05c1.71-.34,2.41-.92,2.12-1.77-.12-.68-.39-1.06-.82-1.13l-1.43-.2-.9,0c-3.26.31-6.5.59-9.71.86s-6.46.54-9.72.85a5,5,0,0,1-.77,0,1.69,1.69,0,0,0-.77.09,3.42,3.42,0,0,0-.76.43.84.84,0,0,0-.35.78,1,1,0,0,0,.42.89,3,3,0,0,0,.79.35,3.08,3.08,0,0,0,1,.29,6.15,6.15,0,0,0,1,0c1.2,0,2.37,0,3.48,0s2.28-.06,3.49,0a5.93,5.93,0,0,1,.17,1.15c0,.35,0,.69.05,1q.18,4.51.44,9t.31,9l1.14,46c0,.69,0,1.33,0,1.93s-.06,1.25-.12,1.94a7.88,7.88,0,0,1-.54,2.35L422.77,514c-.55-.8-1-1.57-1.51-2.33q-7.47-12-14-24.2t-12.34-25.18q-2-4.42-3.78-8.68t-3.79-8.69a6.81,6.81,0,0,0-1.11-2,2.58,2.58,0,0,0-2.22-.75c-2.58.11-5.18.19-7.81.26s-5.22.15-7.79.26a8.84,8.84,0,0,1-1.17,0,4.82,4.82,0,0,0-1.28.12c-.26.1-.53.2-.83.29s-.43.5-.4,1.18a.59.59,0,0,0,.47.63c.31.07.59.15.85.22a11.21,11.21,0,0,0,2,.24c.65,0,1.32.05,2,.11l1,0a5.52,5.52,0,0,1,1.17.08q1.41,18.4,2.8,36.41t2.8,36.29c-1.2.14-2.31.25-3.34.34s-2.1.19-3.21.33a9.9,9.9,0,0,1-1,.23,2.09,2.09,0,0,0-.89.36,1.14,1.14,0,0,0-.59,1.44c0,.43.33.72.94.87a6.93,6.93,0,0,0,1.55.06l8.19-.34q4.05-.16,8.19-.21l1.93-.08a8.73,8.73,0,0,0,1.34-.38c.38-.14.6-.56.65-1.25.05-.86-.61-1.31-2-1.34l-1.41.06c-1.21,0-2.35-.05-3.43-.05s-2.21,0-3.42,0q-1.41-18.41-2.62-36.49t-2.61-36.36Z"/></svg>