<svg viewBox="0 0 553 574" xmlns="http://www.w3.org/2000/svg"><path d="m0 0h553v574h-553z" fill="none"/><path d="m355.64 377.43a4.51 4.51 0 0 0 -4.94 4c-1 9.52-4.92 21.7-13 27.3-11.45 7.95-30.91 6.32-43.11.15-9-4.58-12.17-15.21-13.16-26.13 0-1.45 0-2.4 0-2.71 2.82-.73 5.38-2.38 8.27-4.21 9.74-6.16 19.87-20.1 13.63-32.21-2.75-5.33-7.72-7.47-13.76-7.55-3.82-.05-9.32 2.48-12.57 4.69-3.88-2.71-6.65-4.65-11.46-5.34-9-1.3-15.74 6-16.68 14.89a25.68 25.68 0 0 0 12.31 24 76.23 76.23 0 0 0 10.53 5 4.92 4.92 0 0 0 -.12 1.34 40.82 40.82 0 0 1 -3.36 17.35 38.12 38.12 0 0 1 -13.51 13 36.21 36.21 0 0 1 -13.08 2.19c-30.44 0-35.1-16.69-35.65-33a4.91 4.91 0 0 0 -5.09-4.76h-.09a4.48 4.48 0 0 0 -5.69 2.26c-1.44 3.07-.73 7-.15 10.15.11.58.21 1.13.28 1.6a39 39 0 0 0 6.78 17 43.07 43.07 0 0 0 24.56 17.25 39.72 39.72 0 0 0 10.21 1.31 44.47 44.47 0 0 0 16.21-3.23 34.31 34.31 0 0 0 17.8-10 36 36 0 0 0 6.2-9.25 29.3 29.3 0 0 0 13.51 14.42c14.35 7.26 37.56 9.45 52.31-.79 13.3-9.23 16.22-28.17 16.8-33.76a4.49 4.49 0 0 0 -3.98-4.96z" fill="#1d1d1b"/><circle cx="106.09" cy="266.4" fill="none" r="20.71" transform="matrix(.92906802 -.36990892 .36990892 .92906802 -91.02 58.14)"/><path d="m71.14 282.84a5.09 5.09 0 1 0 7.17.69 5.09 5.09 0 0 0 -7.17-.69z" fill="none"/><path d="m133.84 258c-1.36-1.62-2.21-3.92-3.62-5.63a30.11 30.11 0 0 0 -6.91-6.47c-4.47-2.88-8.72-6-14-7.43a64.34 64.34 0 0 0 -13.31-1.76 36.94 36.94 0 0 0 -22.8 6.29 25 25 0 0 1 -8.83-15.92 4 4 0 0 0 -7.86 1 33.06 33.06 0 0 0 10.57 20.09 54.75 54.75 0 0 0 -9 11.88h-.24a25 25 0 0 1 -19.48-11.47 4 4 0 0 0 -6.71 4.22 33.12 33.12 0 0 0 23.07 14.88 36.45 36.45 0 0 0 -2 11.32 25 25 0 0 1 -22.08-1.62 4 4 0 1 0 -4.07 6.79 33 33 0 0 0 26.81 3 40.86 40.86 0 0 0 13.68 24.77c5.34 4.54 12.94 9.62 19.94 10.63 6.74 1 12.26 1.5 19.07.48 8.59-1.28 19.29-7.38 24.89-13.76 7-8 8.54-17.74 9.29-27.88.6-7.75-2.31-15.01-6.41-23.41z" fill="#1d1d1b"/><path d="m86.29 272.2c-1.76-2-1.56-6.32-1.06-8.78a20.66 20.66 0 0 1 7.35-12.13c5.87-4.73 13.83-5.56 20.77-3.23 7.75 2.6 12.52 11.53 12.89 19.36.42 9.06-7.62 15.72-15.28 18.68a16.58 16.58 0 0 1 -15.51-1.75c-4.28-2.77-9.4-9-10-14.27" fill="#fff"/><path d="m73.33 282.12c-.93-2.6-4.22 3.13-4.39 4.11-.71 3.91 2.12 8 6.34 6.42 6.38-2.33 5.19-12.23-1.95-10.53z" fill="#fff"/><circle cx="450.39" cy="266.4" fill="none" r="20.71" transform="matrix(.36990892 -.92906802 .92906802 .36990892 36.28 586.29)"/><path d="m485.33 282.84a5.09 5.09 0 1 1 -7.16.69 5.08 5.08 0 0 1 7.16-.69z" fill="none"/><path d="m531.22 278.69a4 4 0 0 0 -5.44-1.36 25 25 0 0 1 -22.07 1.67 36.75 36.75 0 0 0 -2-11.32 33.1 33.1 0 0 0 23.06-14.88 4 4 0 1 0 -6.7-4.22 25 25 0 0 1 -19.45 11.42h-.25a54.71 54.71 0 0 0 -9-11.88 33 33 0 0 0 10.63-20.05 4 4 0 1 0 -7.85-1 25.07 25.07 0 0 1 -8.87 15.93 37 37 0 0 0 -22.83-6.28 64.33 64.33 0 0 0 -13.32 1.75c-5.24 1.38-9.49 4.55-14 7.43a30.07 30.07 0 0 0 -6.9 6.47c-1.41 1.71-2.26 4-3.62 5.63-4.11 8.41-7 15.67-6.43 23.42.75 10.14 2.32 19.92 9.29 27.88 5.59 6.38 14.17 12.35 22.83 13 6.79.53 8.33 1.76 21.12.25 7.1-.84 14.63-6.09 19.91-10.66a40.87 40.87 0 0 0 13.69-24.77 33.14 33.14 0 0 0 26.81-3 4 4 0 0 0 1.39-5.43z" fill="#1d1d1b"/><path d="m470.19 272.2c1.75-2 1.55-6.32 1.06-8.78a20.71 20.71 0 0 0 -7.35-12.13c-5.87-4.73-13.83-5.56-20.77-3.23-7.75 2.6-12.53 11.53-12.89 19.36-.43 9.06 7.61 15.72 15.28 18.68a16.55 16.55 0 0 0 15.5-1.75c4.28-2.77 9.41-9 10-14.27" fill="#fff"/><path d="m483.15 282.12c.93-2.6 4.21 3.13 4.39 4.11.71 3.91-2.13 8-6.35 6.42-6.37-2.33-5.19-12.23 1.96-10.53z" fill="#fff"/><g fill="#f5b8cf"><path d="m76.35 341.11c-3.46-2.19-10.64-2.69-14.78-2.92a45.09 45.09 0 0 0 -26 6.17c-9.39 5.46-17.24 16.17-15.22 27.54 1.5 8.4 8 16.3 15.26 20.49 11.76 6.74 29.52 8.15 42.2 2.81 13-5.5 20.79-19.37 18-33.13-2.32-11.14-10.4-17.21-19.46-20.96z"/><path d="m476.65 339.71c3.46-2.19 10.64-2.69 14.78-2.92a45.09 45.09 0 0 1 26 6.17c9.39 5.46 17.24 16.17 15.22 27.54-1.5 8.4-7.95 16.29-15.26 20.48-11.76 6.75-29.52 8.16-42.2 2.82-13-5.5-20.79-19.37-18-33.14 2.32-11.13 10.4-17.21 19.46-20.95z"/></g></svg>