<svg xmlns="http://www.w3.org/2000/svg" viewBox="0 0 553 574"><defs><style>.a,.f,.h,.i{fill:none;}.b{fill:#d89436;}.c{fill:#f0ab44;}.d{fill:#f3dcbe;}.e{fill:#050203;}.f,.h,.i{stroke:#050203;stroke-linecap:round;stroke-linejoin:round;}.f{stroke-width:0.25px;}.g{fill:#f0e3cd;}.h{stroke-width:0.4px;}.i{stroke-width:0.29px;}.j{fill:#fff;}.k{fill:#3a5a51;}.l{fill:#4c8c7a;}</style></defs><title>sac2_jungle</title><rect class="a" width="553" height="574"/><path class="b" d="M210,377.81c.73.28-5.12,21.19-5.92,23.48-4.54,13-8.71,25.48-9.12,39.29-.25,8.28-.41,18.38,5.18,25.36,1.49,1.86,8.43,5.62,8.18,8.2-.32,3.22-10.67,2.05-12.93,1.59-6.45-1.32-7.14-4.15-9.26-10.26A144.3,144.3,0,0,1,178,424c-.37-8,.53-15.65-.75-23.62a32.73,32.73,0,0,0-2.71-9.31c-.74-1.53-2.76-3.52-2.87-5.25-.26-4,6.76-7.87,9.76-9.75,6.08-3.82,17-10.55,24.39-6.46,5.15,2.83,4.41,7.95,2.82,12.49"/><path class="b" d="M124.59,383.33c-.15,3.09,0,7.82-.14,11.38a196.3,196.3,0,0,1-3,23.4c-1.12,6.62-2.93,13.23-4.5,19.77-1,4-3.27,8.69-3.24,12.85,0,3,1.54,6.47,2.56,9.3.94,2.63,1.83,5.63,4.24,7.4,2.7,2,7.46,1.51,9.51,4.21,3.71,4.89-9.88,3.93-11.91,3.08-2.76-1.14-4.9-4.86-6.76-7.09-5.19-6.2-14.68-11.48-15.7-20.07-.75-6.38,2.32-12.87,3.53-19,2.31-11.76.66-23.81,3.33-35.47,1.47-6.38,11.16-25,20.94-17.33C126.11,377.85,125.58,382,124.59,383.33Z"/><path class="c" d="M253.77,310.05c-3.23-2.08-11.41-.47-14.93.65-6.39,2.05-10.71,5.47-15.79,9.77-7,5.94-14.58,13.13-23.45,16.62-12.91,5.09-31.87,2.68-45.4,3.32-13.38.62-24.79,1.34-38,3.08a81.63,81.63,0,0,0-19.12,4.82c-7.28,2.87-16.26,8.58-19.42,15.89-2.61,6-2.13,14.35-1.93,20.7.27,8.64.71,18.2,5,26,3.34,6,7.27,12.15,8.47,19,1.33,7.59.09,15.39-.39,23-.28,4.52-3.5,11.71-.37,15.31,1.8,2.06,4.58,3.72,6.62,5.61,2.62,2.43,4.8,5.15,7.2,7.77,3.13,3.44,4.45,3.1,9.09,2.29,2.07-.36,7.14-.65,6.52-3.77-.52-2.59-5.6-2.9-7.57-4-4.15-2.32-9-9.19-9.65-13.74-.48-3.25.91-6.55,2-9.55,2.71-7.39,6-14.61,8.45-22.09a100.89,100.89,0,0,0,5.4-30.55,26.72,26.72,0,0,1,0-3.36c1.32.38-.18-2.28,1.31-2.3,4-.06,8.93-1,12.74,0s6.3,1.65,9.39,4c2.51,1.9,11.91,4.87,8.84,3.87-1.34-.44,7.78,5,16.86,6.85,4.8,1,23.41,1.09,31.89-.3,14.36-2.37,26.81-9.64,32.32-23,3.13-7.61,4-14.86,4.38-23a34.42,34.42,0,0,1,2.56-12.12c1.92-4.43,5.71-7.28,7.91-11.35a13.23,13.23,0,0,0,.85-2.86,109.17,109.17,0,0,1,7.55-17.8C256.06,313.21,257.15,311.1,253.77,310.05Z"/><path class="c" d="M201.25,437.51a284.08,284.08,0,0,1,.93-32.4c.69-8.93,1.69-16.93,5.58-25.09,5-10.41,12.2-19.7,20.49-27.85,1.95-1.91,10.75-8.95,12-5.57.13-.28,0-.48.28-.72a180.76,180.76,0,0,1-4,40c-.93,4.2-2.81,7.43-4.92,11.15a110.55,110.55,0,0,0-7.12,16.29c-5,13.36-5.85,28.61-5.83,42.72,0,6.64-1.65,16.63,6.1,19.51,2.18.81,5.36,1.3,4.27,4.21-2.14,5.68-13.87,3.41-17.54,1.43a5.08,5.08,0,0,1-2.69-2.41c-.75-1.31-.91-3.34-1.35-4.81a137.07,137.07,0,0,1-3.82-14.34c-1.72-9.28-1.52-18.34-2.19-27.61-.72-9.89-3.68-19.51-6.75-28.92-2-6.08-2.51-9.85,1.12-15.71,3.3-5.36,10.51-11.25,17.06-6.9,10.31,6.84.84,27.95-1.75,36.45-2.63,8.66-7.25,17.28-9,26.1"/><path class="c" d="M96.8,349.69c-2.76-1.86-13,5.84-15.67,7.57a55.34,55.34,0,0,0-20.45,23.88c-8.48,18.27-9.59,39.27-14.88,58.53-2.46,8.93-7,22.84-16.89,26.85-7,2.85-11.86-4.89-18.25-2.84-5.23,1.69-2.22,7.8.42,10.59,3.79,4,10,5.9,15.49,5.28,12.66-1.44,21.37-13.66,25.55-24.26,6-15.21,8.84-31.41,13.81-47,3.4-10.67,7.16-21.15,14.11-30.22,4.08-5.32,9.88-8.65,16.12-11.13,1.88-.75,7.7-1.51,8.92-3.44,2-3.1-1.57-11.08-4.77-12.64C99.05,350.29,96.34,350,96.8,349.69Z"/><path class="c" d="M257.17,350.82c-4.05,3.22-10.49,12.88-12.67,17.39-3.21,6.64-3.71,11.54-7.62,17.8-2.54,4.05-5.5,12.14-10.58,13.73-1.36-1.93-1.38-4.87-1.55-7.14-.68-9.22.39-19.12,1.84-28.24,1.19-7.39,4.35-29,16.25-24.52C246.23,341.11,259.28,345.33,257.17,350.82Z"/><path class="c" d="M271.09,348.35c-8.76-4.65-17.57,7.43-20.76,9.43-4.89,3-3.37-8.28-8.37-10.73-5.27-2.58-12.89-4.27-16.13-9.67-4-6.63,2-16.29,7.43-20.49,5.86-4.52,21.86-8.82,28.61-4.46,5.58,3.6,6.72,15.57,7,21.56C269.07,338.38,267.93,342.94,271.09,348.35Z"/><path class="c" d="M244.68,311.64c3.33-.93,11.65-1.91,14.29-1.6A41.59,41.59,0,0,1,271,313.62c2.91,1.31,6.82,2.53,7.94,5.94.62,1.9.27,4,.81,5.92,1,3.35,4.33,5.4,5.75,8.57a9.69,9.69,0,0,1-.79,8.76,14.55,14.55,0,0,1-6.89,5.64,13.51,13.51,0,0,1-7.86,1c-1.66-.35-3.21-1.1-4.83-1.6a7.33,7.33,0,0,0-5-.12c-.91.38-1.84,1.06-2.77.73a2.91,2.91,0,0,1-1.4-1.61c-5-10.15-8.89-21.31-8.23-32.67a.88.88,0,0,0-.11-.6.86.86,0,0,0-.43-.26l-2-.7a7.61,7.61,0,0,1,2.86-.66l-4.1-.19c3.46-1.44,7.05-3.07,10.79-3s7.56.15,10.83,1.61c3,1.34,8.31,2.88,10.35,5.56"/><path class="d" d="M282.74,335.72c-.62.24-1.45-.33-2-.6a5.24,5.24,0,0,0-3.39-.66c-2.86.59-1.37,3.38-3.18,4.81-1.19.94-3.33.78-4.7,1.59-2,1.15-4,2.64-3,5.13,1.52,3.69,7.28,3.85,10.51,3a12,12,0,0,0,9.14-10.14c.06-.55.38-2.54-.14-3-.37-.33-.93-.08-1.4-.1C283.8,335.69,282.14,335.85,282.74,335.72Z"/><path class="e" d="M285.64,336c-1.19-.11-2.5.3-3.77.18s-3.11-.72-4.46-.39c-1,.26-1,.53-.27,1.45a18.81,18.81,0,0,0,2.92,2.93c1.95,1.47,4.5-.31,5.47-2.09C285.86,337.48,286.9,335.48,285.64,336Z"/><path class="f" d="M281.84,340.75c.38.67-.35,2.48-.7,3.73"/><path class="g" d="M263.05,324.29a4.1,4.1,0,0,0,3.81,3.32c1.23.18,4,.26,4.25-1.31.41-2.18-2-3.5-3.76-3.2C266.35,323.28,263.71,324.76,263.05,324.29Z"/><path class="c" d="M265.85,324.52c-.14,0-.2.12-.22.35"/><path d="M265.51,323.72c-.49-.45-2-.65-2.48,0-.78.95.92,3.22,2,3.34,2.52.29,3.43-5.59-.28-3.19"/><path class="g" d="M280.7,321.76c-2.59,0-2.66,5.28-.88,4.34,1.27-.68.57-2.73,1.35-3.63.4-.47-.3-.24.21-.7C280.45,321.42,281.43,321.66,280.7,321.76Z"/><path d="M278.63,323.54c0-2.61,2.4-2.13,3.64-2C281.55,322.86,279.56,323.9,278.63,323.54Z"/><path d="M281.39,322.08a1.61,1.61,0,0,1,0-.31c-.22.85-1.51,4.63-2.62,3.94C276.89,324.54,280.06,322,281.39,322.08Z"/><path class="d" d="M251.2,316.3c.09,1.38-1,2.76-1.43,4a23.13,23.13,0,0,1-3,6.2c-1.09,1.49-1.69,4.6-3.88,4.63-3,0-5.22-5.42-6.12-7.76s-1.55-6.47.44-8.46a8.38,8.38,0,0,1,8.11-1.55C247,314.12,249.94,315.74,251.2,316.3Z"/><path d="M267.19,316.18a1.69,1.69,0,0,0,.18,2.07c.39.26.89-.08,1.32,0s.86.36,1.32.48c.78-1,0-2.6-1-3.21s-2.84-.46-2.08,1"/><path d="M260.93,311.61c-.88.59,1,3.4,1.78,1.94,1,.89,2,0,1.46-1.15-.42-.86-2.67-1.87-3-.45"/><path d="M251.53,311.61a2.23,2.23,0,0,0,.44,1c1.05,1.52,1.35.89,2.8.88,1,0,2.75.79,2.82-1.19C257.71,308.83,251,310,251.53,311.61Z"/><path d="M261,341.63c-.14,0-.18-.13-.28.06.5,1.79,3.26.63,3-.55a1.85,1.85,0,0,0-1.9-1c-.79.23-.84.85-.89,1.61"/><path d="M264.09,336c-.12,0-.15-.1-.24,0,.46,1.54,2.84.59,2.61-.42a1.65,1.65,0,0,0-1.66-.9c-.68.18-.72.71-.75,1.36"/><path d="M257.05,335.87a.91.91,0,0,0-.21,1.11c.53,1.1,2,.5,2.85.47s1.95.1,1.79-1.49C261.14,332.66,255.46,334.42,257.05,335.87Z"/><path d="M253.62,342.83c-1.57-.13-.7,1.84.88,1.66.76-.09,2.58-1.46,2.7-2.31.17-1.27-1.13-1.92-2.1-1.9a3.54,3.54,0,0,0-2.78,1.09c-.68.89-.63,2.37.53,2.7"/><path d="M271.33,326.58c-.16-1.52-1.12-3.21-2.68-3.43-1.25-.18-2.74.26-4,.23a10,10,0,0,1-3.9-.75c1.94,2.4,4.91,2.48,7.65,2.23a2.76,2.76,0,0,1,2.57,1.1C271.17,326.18,272.08,327.16,271.33,326.58Z"/><path class="f" d="M273.71,349.48c.39.28,2.67-1.08,3-1.36,1.44-1.1,3.36-2.28,4.34-3.87a3.76,3.76,0,0,0,.8,2.41"/><path d="M251.76,314.24c-.26-1.1-2.09-1.73-3-2.15a17.79,17.79,0,0,0-5.63-1.5c-4.66-.64-10,.6-11.24,5.91-.73,3.1,0,6.92,1.06,9.88.8,2.25,4.11,6.18,6.8,5.89.81-1.75-.19-2.64-1.11-4.38s-2.21-4-2.34-6c-.11-1.66,1.28-6,3.6-5,.48-1.08,1-.8,1.93-.76a10.68,10.68,0,0,0,2.81-.48c2.7-.61,4,1.64,6.46,1.7C253.38,317.38,253.2,315.17,251.76,314.24Z"/><path class="c" d="M277,317c0-.06-.13-.06-.07-.2a4.45,4.45,0,0,1,2.44,2.54c.3,1-.13,1.68-.36,2.63-.58,2.5,1.25,4.41,2,6.65-1.05.12-2.7-1.31-3.25-2.16-1.14-1.75-1.19-4-1.05-6.07A17.25,17.25,0,0,0,277,317Z"/><path d="M267.06,311.28c-1.83.85,2.69,2.87,2.65,1.47,0-.61-2.53-2.36-2.89-1.23"/><path d="M273.44,316.81a1.06,1.06,0,0,0-1.32-.77c-.2,1.81.91,2.24,2.17,2.61.69-1.24-.29-2.27-1.45-2.45"/><path d="M274.16,322.71a1.4,1.4,0,0,0-.85-1c-.15.72,1,3.21,1.52,1.84.25-.61-.77-2.1-1.39-1.84"/><path d="M255.32,347.47a2.73,2.73,0,0,0-2.73,2.22c.31.18.75.05,1.06.24s0,.47.16.55c.9.39,1.91-.51,2.39-1.14s1.07-1.21.29-1.75C256,347.22,255.21,347.36,255.32,347.47Z"/><path d="M264.32,347.66a3.78,3.78,0,0,0-2.47.88c-.76.49-1.47,1.06-2.24,1.6A7.7,7.7,0,0,1,257,351.5a8.86,8.86,0,0,1-2.94.24,12.44,12.44,0,0,1-5.44-1.83,13.36,13.36,0,0,1-4.12-3.83,23.46,23.46,0,0,0,4.61,2.91,14.85,14.85,0,0,0,5,1.44,8.15,8.15,0,0,0,2.56-.14,7.77,7.77,0,0,0,2.35-1,26.38,26.38,0,0,1,2.48-1.3,7.2,7.2,0,0,1,1.36-.44A2.07,2.07,0,0,1,264.32,347.66Z"/><path d="M197.27,412a24.64,24.64,0,0,1-2.75-4.61A14.82,14.82,0,0,1,193.1,402a10.81,10.81,0,0,1,1.15-5.51,12.13,12.13,0,0,1,3.5-4.17,33.42,33.42,0,0,0-2.06,4.76,13.41,13.41,0,0,0-.61,4.81,24,24,0,0,0,.89,4.93C196.41,408.53,196.94,410.22,197.27,412Z"/><path class="c" d="M117.8,399c7-1,15.76.94,17,1.07,8.35,1,13.79,5.21,23.92,6.76,12.49,1.92,15.81,1.7,17.23.06s4.6-1.35,3.39-3.45c-.94-1.63-3.87-2.78-5.42-3.81-4-2.67-8-5.26-12.09-7.86-12.24-7.84-29.62-14.83-44-8.07-3,1.42-4.37,2.6-4.63,5.82C112.82,393.52,113.13,399.12,117.8,399Z"/><path d="M37,459.52c-2.25,3.64-7.77,5.82-12,5.3-6-.73-15-7.4-18.92.35-1.43,2.8,0,6,2.12,8.07,3.52,3.46,6.79,6.56,12,6.84,6.09.32,17.47-1,20.45-7.26-.6-.31-2-.16-2.36-.66-1.12-1.37,1.73-2.87,1.65-4.14-.07-1.08-.9-1.06-.9-2.11,0-.65.9-1.49,1-2.21,0-.27-.33-.4-.3-.63.18-1.14,1.07-4-.47-4.7C38,457.79,37,459.35,37,459.52Z"/><path d="M147.9,340.65c-1.9.32-5.31,1.2-6.19,3-1.82,3.66,4.33,5.14,7,4.13a8.65,8.65,0,0,0-.42-1c1.66-.47,3.53,0,5.08-.77-.22-.31-.26-1.26-.45-1.56,3.95-1.11,2.36-4-1-4.28-2.61-.21-5.46.45-7.18,2.27"/><path d="M170.24,348.49c-2.06-.35-4.89-.71-6.45-2.09,1.17-1,2.81-1.12,3.81-2.28-.37-.36-.57-1.13-.95-1.46,1.2-.59,9.24-1.4,9.79.81.88,3.63-6.75,4.86-8.81,5.27"/><path d="M188.86,339.63c-1.7.59-4.4,2.34-2.39,4.42,1.6,1.65,6.76.94,8.62-.11-.78-1-.29-2,.87-2.54-1.18-1.9-6.12-2-8.14-1.26"/><path d="M122.85,342.92c-5.07,1.63,3,8.09,4,4.58,1.64-.06,3.25.45,4.84,0-.1-.27,0-1-.16-1.3,1.13-.46,2.3-.44,3.14-1.25C132,341.37,125.56,342.05,122.85,342.92Z"/><path d="M143.46,358.59a7.67,7.67,0,0,1-5.16-1.72c.62-1,1.95-1.23,3-1.53-.79-.44-.89-1.26-1.42-1.78,1.24-.67,9-.19,9.27,1.93,0-.1-1.46,2.06-1.48,2.08-1.31,1.35-2.67,1.83-5.22,1.27"/><path d="M175.17,360.23c-1.68-.53-3.42-.66-5-1.78a23.1,23.1,0,0,1,2.16-1.43c-.24-.3-.32-.76-.61-1.08,1-1.5,7.67-1.58,9.07.11,2.82,3.4-3.67,4.88-5.86,4.69"/><path d="M200.09,351.51c-1.4.55-6.73,2.62-6.35,4.51.34,1.72,4.59,2.49,5,.85,1.53-.09,3.32-.33,4.22-1.6-.32.45.75-3.93.83-3.44-.49-3-4.24-1-5.58.44"/><path d="M218.61,338.12c-1.67.11-6.43,2.08-4.92,4.33.59.88,5.34,1.08,6.39.36.49-.33,1.37-4.22,1-4.57-1.28-1.15-3.67.25-4.8,1.14"/><path class="a" d="M217.83,323.2c-2.94,2.18-.46,5.9,3.11,4.06,1.37-.71,3.58-3.77,3.4-5.32-.44-3.69-7,.47-7.82,2.78"/><path d="M101.19,347.22c-3.44.82.7,5.69,2.64,6.2,2.15.55,6.25-.36,8.21-1.28a11,11,0,0,1-.42-2.44c4-.18,3.45-4,.17-4.45A18.52,18.52,0,0,0,101.19,347.22Z"/><path d="M123.11,362.89a2.52,2.52,0,0,0-1.59.23c2.14,2.46,11.14-.62,6.31-3.65-1.83-1.14-6.81-.7-8.36.68-2,1.81-.07,3.69,2.33,3.5"/><path d="M88.14,360.63c2.2,2.29,8.51.08,10.16-2.05-1.34-2.9-3.59-2.63-6.18-1.86-1.34.39-4.49,1-4.63,2.74s1.88,2.7,3.52,2.43"/><path d="M215.65,327.28c.46,2.36,2.82.88,4.41-.44a.54.54,0,0,1,0,.22c.9-1.1,2.93-4.11-.25-3.8C218.25,323.42,215.62,326.76,215.65,327.28Z"/><path d="M43.45,448.11c-.11-.05-.09-.42-.19-.19,2.16,5.31,3.78,1,5.08-2.4-.09.05-.29.26-.36.31-.13-1.54.62-2.94-.51-4.2-1-1.11-1.52-1.06-2.37.06C43.89,443.29,43.6,446.85,43.45,448.11Z"/><path d="M52.09,429.27c-.23,0-.23.34-.36,0-.33-2.59,2-6.22,3.05-2.08.37-.41,1.1-.48,1.48-.73,1.81,1.5,0,6.21-2.46,6.29-2.66.08-1.51-2.34-2.07-4"/><path d="M51.19,411.48c-.37.77,1.14,3.8,2.08,4.18,2.18.89,2.76-4.18,3.16-5.55,0,.13.13.45.15.52.54-.88,1.33-3.36,1.08-4.39-.19-.8-.61-.9-.8-1.21-.43-.71-.81-1.93-1.91-1.82C52.25,403.48,51.47,412,51.19,411.48Z"/><path d="M58.22,387.05a3,3,0,0,0,1.23,1.45c2.32,1.23,2.6-1.12,3.84-2.49s4.59-3.49,3.32-6.25C64,374.12,58.41,385.88,58.22,387.05Z"/><path d="M64.52,393.86c0-.39.06-.66-.16-.93a4.37,4.37,0,0,0-1.3,4.24c.87-.41,1.45,0,1.65.86,1.32-.65,3.47-4.24,2.25-5.72-.95-1.16-2.92.49-2.8.85"/><path d="M74.79,372.92c-.15-.18.17-.33-.17-.33-1.31,1-2.24,3.65-.2,3.83.77.06,2.57-1.1,3.12-1.64.74-.73,2-2.7,1.1-3.77-1.41-1.74-4.45.85-5.12,2.09"/><path d="M72.32,364.2a2.89,2.89,0,0,0,.78,2.26c1.73,1.48,3-.54,4.48-1.26,2-1,5.34-1.31,4.11-4.52-2.36-6.13-11.9,6.13-12.44,7.53"/><path d="M108.27,364.16c-1.63-.92-4.08-.07-4.22,1.93,1.32.74,2.48.06,3.15,1.29,1.46.06,5.22-1.12,4.47-3.24s-3.85-.31-5.08-.26"/><path d="M94.52,373.4c-2.71.18-6.42,1.59-4.71,4.64.9,1.61,3.48,2.17,5.07,1.88,5.8-1,4.34-8.59-1.48-5.71"/><path d="M89.75,389.71a2.94,2.94,0,0,0-3,2.21,10.24,10.24,0,0,0,2.17,1c-1,3.75,3.75,2.37,4.51-.29.7-2.42-.73-5.14-3.65-3.46"/><path d="M101.54,394.87c-1.41-.24-1.31,3.79-.31,4.9.45-.34,1.59-.64,2-1.07,1.39,1.69,2.56-1.12,2.5-2.44-.09-2.4-3.29-4.44-4.47-1.66"/><path d="M95.08,407.65c-1.7,0-1.17,8,2.87,4.88a5.13,5.13,0,0,0,1.71-5.06c-.58-2.27-3.9-3.31-4-.36"/><path d="M101,419.07c-.63,2.06,1,4.81,2.84,2.11.17.16.32.46.51.61,3.79-3.19-1.76-6.25-3.35-2.45"/><path d="M104.85,410.88c-.29-.1-.09-.67-.51-.24,0,2.53,3,1.51,2.51-.44s-2.74-.35-2.28.68"/><path d="M108.23,432.58c-.37,1.21-1,2.6,0,3.6,3.19-1.58.84-6.28-.54-3.33"/><path d="M98.27,448.72c0-.16.5-.21.21-.39-.93,1.83.6,2.55,2,2.27a3.55,3.55,0,0,0,.76-3.21,2.18,2.18,0,0,0-2.44,1.33"/><path d="M123.19,377.89c-.47,0-.61-.74-.81-.12,2.35,1,4.79,1.48,6.53-.16.89-.84,1.15-4.49.31-5.46-3.17-3.67-12,3.37-6,4.94"/><path d="M142.89,372.32c-1.87-.08,1.85.21,2.16.18,2.23-.2,5.59-.26,3.33-3.25.36-.11.68-.07,1.07-.18-.42-2-4.93-3.53-6.86-1.91-2.37,2-.18,5.36,2.78,4.76"/><path d="M145.56,382.51c-2.09,2.84,6.31,3.58,7.69,1.38,2.55-4.05-7.41-6.35-6.87-1.38"/><path d="M165.82,369.68c-.56.11-.58-.5-1.21.07,1,2.05,4.68,1.88,5.39-.4,3.09-.62.64-3.58-1.47-4-3.28-.7-6.19,3.11-3.95,5.55"/><path d="M170.75,380.69c.16,2.07,5.25,1.14,7.41.37.05-2.09-1.63-3.41-3.67-3.5a.31.31,0,0,0,.22.35c-5.13-.55-6.36,5.51-1.49,4.37"/><path d="M182.62,367.91c.83,3,6.25.92,6.08-.81-.35-3.73-8.16-1.19-5.06,1.6"/><path d="M218.89,391.21c-3.21,2.66-.56,5.72,1.93,7.09,1.72-1.18,4-4.19,4.08-6.48.1-4.75-5.9-4.59-6.42-.21"/><path d="M211.16,420.49c-3.79,2.19,5.1,9,4.51-1-.4-6.75-7.56-3.75-6.57,1.76"/><path d="M206.21,436.07c-1.26,1.61,1.33,7.4,4.3,3.43,5.12-6.88-6.79-8.43-3.89-2.23"/><path d="M209.92,454c.1-.47,0-.73.43-1.05,0,1.64.78,2.12,1.63,3.05a5.75,5.75,0,0,0,.42-7.57,2.33,2.33,0,0,0-1.66,3.58"/><path d="M98.81,432.91c-.57-.43.25-2.37.41-2.81s.73-2,1.46-1.83.53,1.39.76,1.91c.24-.13.87-.74,1.15-.66.58.15.28,1.64.25,2.08-.06,1.22-.15,2.15-1.33,2.91C99.93,435.53,98.34,434.57,98.81,432.91Z"/><path d="M94.09,444.07c-.54-1.33,1.13-5.57,1.62-2.62,1,0,1.31-.19,1.48,1a4.24,4.24,0,0,1-.46,2.55C95.5,446.52,94.41,445.19,94.09,444.07Z"/><path d="M94.55,457.86c-.06-1.06.14-2.84.91-3.61.42.2.52.69.77,1.06,2-1.55.86,2.21,1.27,3.08a2.64,2.64,0,0,1-1.69.9C94.52,459.22,94.61,457.92,94.55,457.86Z"/><path d="M197.36,411.24c-.11.09.69-.86,1-.9,1.49-.2,1.71,3,2.34,3.79,1.36-.83.54,6.48-1.5,3.76A12.52,12.52,0,0,1,197.36,411.24Z"/><path d="M202.19,443.59c1.69-3,2.5,1.84,2.85,3,.08-.2.17-.4.24-.6a5.59,5.59,0,0,1-2.11,3.72C201.58,448.76,201.56,444.75,202.19,443.59Z"/><path d="M216,350.41c-1,1.18-3.19,2-2.84,3.88a12.41,12.41,0,0,0,2.36-.61c.07.13.15.31.21.44,4.48-.16,3.34-7.06-.53-3.4"/><path d="M232,340.48c-1.12.44-2.58,2.07-1.52,3.11s3.77.24,4.7-.62c3.12-2.86-1.62-4.82-3.82-1.71"/><path d="M208.33,363.74c-1.12-.52-3.07,1.68-3.23,2.76.5.37,1,.2,1.56.42.38.16.16.64.7.79a3.93,3.93,0,0,0,4.1-2.08c1.31-2.82-2.2-3-3.93-1.73"/><path d="M207.43,398.88c-1,.55,0,5.38.64,6.36,1.31,2.08,2.37-.21,3.1-1.46,1.55.41,1.4-3.57,1.1-4.34-.65-1.64-2.53-1.86-3,0-.06-.55-.1-1.68-.73-1.94S207.14,397.93,207.43,398.88Z"/><path d="M229.28,374.57c-.38.66-1.22,3.15-.18,3.91-.07,0,1.43-.2,1.46-.21,1.14-.24,1.12.28,1.91-1.32,2-4-1.66-6.29-3.7-1.73"/><path d="M227.93,361.78a2.59,2.59,0,0,0-.71,2.4,6.92,6.92,0,0,0,.85-.28c-.15,3.27,2.08.81,2.66-.71,1-2.74-2.21-4.5-2.8-1.57"/><path d="M237.57,358.67c-.38,0-.59.87-.35,1.52.19.12.33,0,.53,0a1.3,1.3,0,0,0,.48.58c.83-.32,2.05-2.21,1.54-3.1s-1.85.12-2,1"/><path class="h" d="M263.38,346.13c.75-.51,1.33-1.31,2.12-1.84a9.16,9.16,0,0,1,4.11-1.66"/><path class="h" d="M270.43,344c-2.18,1-5.25,4-5.45,6.33"/><path class="h" d="M271.59,344.82a4,4,0,0,0-1.12,1.66,20.27,20.27,0,0,0-1.74,4.35"/><path class="i" d="M383,354a8,8,0,0,1,5.16,4.94"/><path class="i" d="M381.72,355.31c.73-.11,2,2,2.42,2.59a6.83,6.83,0,0,1,1.42,2.36"/><path class="i" d="M380.79,356.27c.28.55.8,1,1.06,1.55a8.73,8.73,0,0,1,.92,3.33"/><path class="i" d="M366.38,352.83c-2.3-.09-6.13,1.6-6.49,4"/><path class="i" d="M367.4,354.75c-.63-.34-2.21.92-2.65,1.22-1.17.78-2.89,2.11-3.42,3.44"/><path class="i" d="M368.84,356.32a7,7,0,0,0-1.16.9c-1,1-2.38,2.91-2.5,4.34"/><path class="a" d="M395.83,341.84c-3.15,7.92-8,16.17-7.17,24.93.48,5.27,2.11,10.3,2.41,15.63.26,4.78.53,9.36-.3,14.11-.75,4.28-2.86,8-5.54,11.46-4.14,5.41-7.06,11.21-7.9,18-.53,4.24-.06,8.52-.06,12.78,0,5.75.07,11.32,1.38,17,1.39,6,3.53,15.1,9.2,18.78,4.76,3.1,11.64,3,17.15,3,5.28.06,10.69.16,16,0,4.66-.13,8.86-1.26,13.33-2.46,4.86-1.3,9.35-2.21,12.83-6,9.23-10.07,7.08-25.4,8.27-38,.91-9.68,2.2-20.11-2.71-29.07-2.81-5.13-6.26-8.84-6.74-14.93-.54-6.79,2.36-14.77,4-21.31,1.94-7.71,2.07-13.88-2-21-2.14-3.68-4.82-7-7-10.59a21.07,21.07,0,0,0-2.27-3.51c-.27.08-.17.24-.43.43"/><path class="c" d="M403.2,478.56c-1.27,1.17-5.11.83-7.21.9a70,70,0,0,1-18-1.68c-17-3.95-29.25-16.32-35.18-32-6.4-17-7.33-36.69,2.73-52.45,3.24-5.09,13.76-13.61,20-8.27,3.53,3,12.19,11.24,6.69,15s-13-6.57-18.47-3.31c-7.12,4.21-7.16,23.62-6.38,30a60.46,60.46,0,0,0,13.32,30.42c7.62,9.33,19.87,10.71,31.22,11.07,3.67.12,7.34.12,9.51,3.39C402.58,473.35,402.84,475.54,403.2,478.56Z"/><path class="c" d="M376.89,306.16c-1.42.4-2.25,1.4-3.38,2.35-2.05,1.72-5.55,2.9-7.46,4.76-3.29,3.23-5.15,7-7.46,11C356.42,328,357,331.88,357,336a55.71,55.71,0,0,0,.7,9c.25,1.56.53,3.35,1.72,4.51,1.72,1.67,3.86,2.84,5.68,4.39,1.5,1.28,2.11,3.42,3.71,4.4,3.61,2.23,9.95,1.51,13.39-.66,2.85-1.81,3.35-4.82,5.42-7.23,1.25-1.46,3-2.14,4.58-3.17,3.63-2.37,6.09-6.53,7.58-10.42a18.87,18.87,0,0,0-2-17.95c-2.51-3.62-5.34-8-9-10.64A14.47,14.47,0,0,0,376,305.75"/><path class="d" d="M356,396.39a3.14,3.14,0,0,1-1.94-.89c-.79-1.34,1.47-1.64,1.47-2.85s-1.61-1.1-1.73-2,2.1-1.29,2.71-1.8c1.88-1.6-.27-4.68,3.14-5.47a9.83,9.83,0,0,1,3.6.39,14.46,14.46,0,0,1,6.8,3.25c3.93,3.13,6.49,12.59-.35,14.39-1.68.44-3.48-.75-4.85-1.53-1.78-1-3.58-1.93-5.45-2.79C358.08,396.53,357.27,395.91,356,396.39Z"/><path class="j" d="M379.28,343.33a3.59,3.59,0,0,0,3.85,1.53,7.63,7.63,0,0,0,4.87-2.49c.7-.8,1.23-2,.18-2.61-1.23-.77-3.14-.33-4.39.14A7.79,7.79,0,0,0,379.28,343.33Z"/><path d="M378.26,344.29a8.81,8.81,0,0,1,4.53-4.36c1.77-.77,5.27-1.27,6.95-.11a11.54,11.54,0,0,0-2.6.18,14.66,14.66,0,0,0-3.67.93,12.63,12.63,0,0,0-5.29,3.53C378.21,344.35,378.25,344.22,378.26,344.29Z"/><path d="M381.8,341c-1.15.39.26,2.09.93,2.3a2.19,2.19,0,0,0,2.66-2.32C385,339.28,382,339.92,381.8,341Z"/><path class="j" d="M365.09,343.69a4.7,4.7,0,0,1-3.16,1.58A5,5,0,0,1,357.8,343c-.61-.75-1.08-1.88-.21-2.58s2.62-.48,3.69-.07A6.55,6.55,0,0,1,365.09,343.69Z"/><path d="M365.82,344.45a7.74,7.74,0,0,0-3.89-4.1c-1.5-.67-4.45-1-5.84.24a8.49,8.49,0,0,1,2.19.05,11.11,11.11,0,0,1,3.1.73,10.26,10.26,0,0,1,4.52,3.25C365.87,344.51,365.83,344.38,365.82,344.45Z"/><path d="M362.79,341.33c1,.32-.18,2.08-.73,2.32-1.11.49-2.52-.86-2.29-2.16C360.07,339.82,362.57,340.31,362.79,341.33Z"/><path class="d" d="M358.24,326.62c.46-.16,1.18-1.59,1.63-2.05a36.77,36.77,0,0,0,2.92-3.82c.5-.66,1.09-.93,1-1.82-.07-1.36-1.3-2.14-2.41-2.66-2.16-1-5.15-.22-6.89,1.38-2.5,2.29-1.07,5.12,1,7.07A7.76,7.76,0,0,0,358.24,326.62Z"/><path d="M366.21,316.5c-.16-.48-1.87-1.15-2.38-1.43a9.53,9.53,0,0,0-4.55-1.26c-3.22.08-7.12,1.91-7.94,4.61-.71,2.33-1,5.71,1.57,7.21,1.13.65,2,1.56,3.1,2.24.2.12.84.51,1.07.45.5-.12,1.47-2,1.38-2.25-.23-.73-1.48-.42-2-1.05-.2-.26.09-.38,0-.54a3.18,3.18,0,0,0-.71-.71c-.64-.53-.64-.34-.41-1a3,3,0,0,0,.22-2c-.11-.63-.07-.44.17-.94a9.27,9.27,0,0,1,1.09-1.94c.65-.63,2.76-.87,3.69-.81a3,3,0,0,1,2.34,1.11c.3.33.54.81,1.1.72C364.7,318.85,367,316.64,366.21,316.5Z"/><path class="c" d="M396.93,341.59c-1.31,3.4-3.83,6.59-5.23,10.13A27.49,27.49,0,0,0,389.35,363c.47,9.44,1.89,18.73,1.92,28.22,0,4.15-.49,8.38-3.37,11.65-3.71,4.2-8,8.41-9.52,13.88-4.16,14.93.08,30.6,4.38,45.12,1.66,5.62,4.57,14,10.81,16.27,5.09,1.87,10.8,1.54,16.07.81a184.58,184.58,0,0,0,20.05-4.11c3.92-1,8.29-1.66,12-3.32,4.69-2.12,8.51-4.34,11.05-9,1.39-2.53,1.62-5.67,2.43-8.45a57.71,57.71,0,0,0,1.68-9.05c1-8.24,3.88-18.46,3.26-26.74-.57-7.66-5.85-13.51-8.71-20.63-1.74-4.32-4.69-8.85-4.53-13.6.22-6.56,2.43-12.72,3.39-19.19,1.06-7.22.05-17.52-4-23.87-2.73-4.26-3.63-5-6.78-8.91-1.85-2.27-2.69-5.16-3.58-8a53.4,53.4,0,0,0-4.54-10.41c-5.87-10.39-17.92-14-29.71-13.9-9.86.07-22.77,2.34-30,9.26-1.19,1.12-5.31,3.81-5.48,5.4-.31,3,8,4,10,5.93,5.81,5.53,12.21,11,17.51,17C394.67,338.51,396.05,340.86,396.93,341.59Z"/><path d="M396.93,388.9a9.78,9.78,0,0,1-.42,4.32,15,15,0,0,1-1.91,3.94,10,10,0,0,1-3.2,3.1,16.11,16.11,0,0,0-3.62,2.15c.59-1.37,2-2.21,3.05-3a8.89,8.89,0,0,0,1.44-1.37,16.29,16.29,0,0,0,1.23-1.61,23.61,23.61,0,0,0,2-3.56A20.09,20.09,0,0,0,396.93,388.9Z"/><path class="d" d="M388,322.22c1.91,1.25,4.14,2,6,3.38a2.67,2.67,0,0,0,2.17.79c1.49-.29,2.34-2,2.45-3.29.17-1.85.1-4.12-1.31-5.5a5.46,5.46,0,0,0-5.56-1.31,6.12,6.12,0,0,0-3.62,2.9C387.75,319.9,387,321.49,388,322.22Z"/><path d="M388,323.12c-.47-1.07-3.34-.69-3-2.43.44-2.15,3.18-4.69,5-5.6a8.49,8.49,0,0,1,7.44.12c3.06,1.8,3.83,6,3.63,9.18a5.67,5.67,0,0,1-1.89,3.82c-.85.91-1.1.36-2-.44-.37-.35-1.61-1.1-1.68-1.7s.93-1.51,1.18-2.11c.13-.3.34-.58.26-.93-.05-.19-.48-.19-.51-.3-.17-.71.78-1.63.36-2.41-.24-.43-1.15-1-1.51-1.36a2.61,2.61,0,0,0-1.14-.94c-.58-.14-.69.19-1.13.27-.85.16-1.42-.34-2.07.42-.28.32-.26.64-.6,1s-.93.4-1.18,1C388.63,322.06,390.09,323.22,388,323.12Z"/><path class="a" d="M359.93,322.76c-2,3.26-4.21,7-4.15,10.94,0,3,3.1,5.66,2.5,8.48-5.3-6.53-.69-17.18,4-22.85"/><path class="a" d="M358.05,343.8c-7.21-9.52.47-20.9,7.08-28.36"/><path d="M351,454l-.14-.14a7.39,7.39,0,0,1,4.42.83c.13.1.68.52.64.75s-.49.3-.54.55c-.17.74,1.84.71,1.9,1.62s-2,1.23-2.58,1.18a5.19,5.19,0,0,1-3.9-1.88c-.42-.59.05-.65,0-1.19S349.87,453.67,351,454Z"/><path d="M348.45,434.16c-.42-1.37-2.58-1.08-3.47-.31-2,1.72.06,2.92.9,4.43s.77,3.27,2.4,4.28c.43.26,2.41.95,2.9.69C352.34,442.62,349.26,434.74,348.45,434.16Z"/><path d="M338,428.06c.57.37,1.64,1.28,2.36,1.07,1.7-.51.58-3.47.27-4.48,1.81-.76.16-5.72-2.32-4.16C336.5,421.63,337.52,427.66,338,428.06Z"/><path d="M342.92,414.22c-.13,0,0,.3-.29,0,0-1.61-.05-4.51,1.46-5.52a3.5,3.5,0,0,1,.66,1.45c.45-.54.85-1.15,1.53-1.33.74,1.18.56,5.77-.8,6.63S342.56,414.59,342.92,414.22Z"/><path d="M342.46,398.89c-.53.2-.51,3.08,1.87.77.89,1,2.91-3.39.56-3.87-1.58-.32-2.68,3.65-2.89,4.73"/><path d="M356.9,390.4a1.7,1.7,0,0,0,.6-.71c-1.75-1.28-5.28,1.05-5.82,2.67.26,0,.8.25,1,.25a13.38,13.38,0,0,1-.88,1.37c1.12.7,6.67-.37,7.4-1.79S358,389.58,356.9,390.4Z"/><path d="M362.28,383.85c-.24-.59-.86-.31-1.44,0-1.76.91-.62,1.34.22,2.28,1,1.16.82,1.21,2.21,1.62a9.2,9.2,0,0,0,2.55.59c1.82-.1,1.63-1.52.61-2.63A7,7,0,0,0,362.28,383.85Z"/><path d="M364,399c-.51.25-1.29-.4-1.53-1-.67-1.74,1.2-1.71,2.3-2.54-.11-.17-.16-.56-.3-.72,2.12-.58,4.54,3.66,3.37,5.19-1.32,1.72-4.15-.51-5.53-1.34"/><path d="M364.58,461.1c-1.59-.67-4.2-1.3-2.74,1.07,1,1.6,2.58,3.57,4.36,3s2.08-1,1.08-2.24a9.22,9.22,0,0,0-3.77-2.74"/><path d="M363.51,471.67c-1-3.3,1.67-1.9,4.13-1.21a2.34,2.34,0,0,1,0-.26c1.82.14,1.5,1,1.83,2,.24.68,1.11,1.63.3,2.29C368.49,475.55,363.73,472,363.51,471.67Z"/><path d="M380.25,474.05c-1.8-.74-5.64-1.94-2.33-3.42-.14-.22-.14-.8-.29-1,.68.17,1.24.11,1.4-.46,1.24.13,4.93,1.47,4.33,3.26a14.52,14.52,0,0,1-2.15-.58c.33.33,1.62,1.68,1.37,2.23-.43,1-3.15.13-3.71-.45"/><path class="a" d="M392.55,479.26c-.18.66-4.15-.87-4.73-1.83a7.18,7.18,0,0,1,2.12-.92c-.13-.24-.07-.56-.28-.83a2.86,2.86,0,0,1,1.95-.47,1,1,0,0,0,0-.25c1.68-.11,4.31.87,3.75,2.88-.37,1.36-3.48,2.63-4.37,1.42"/><path class="d" d="M375.16,353.21a1.72,1.72,0,0,1,1.7,0c.5.45.4,1.57.79,2.17.54.79,2.82,2.87,1.48,3.83a7.12,7.12,0,0,1-3.65.75,17.29,17.29,0,0,1-4.87-.45,7,7,0,0,1-3.83-3.23c-.65-1-1.14-2.63.4-3a6.86,6.86,0,0,1,3.58.45c1,.26,2.23.83,3.26.47s1.67-1.32,2.82-1.16a1.68,1.68,0,0,1,1.47,1.52,2.2,2.2,0,0,0,.53,1.55,4.67,4.67,0,0,0,1.48.74c.41.18,1.43.66,1.05,1.25-.07.12-.14.14-.26.21a7,7,0,0,1-1.06.53c-.36.13-.72.21-1.08.32a4.28,4.28,0,0,1-1.49.32c-.66-.07-1.07-.69-1.39-1.19a8.09,8.09,0,0,1-.93-2.57,7.41,7.41,0,0,1-.13-1.88,1.63,1.63,0,0,1,.33-1"/><path class="e" d="M372,356.24a2,2,0,0,1-.86-.25,25.46,25.46,0,0,1-2.34-1.31c-.31-.22-2.48-1.66-1-1.69s2.72,0,4.08-.1a26.69,26.69,0,0,1,3.1-.08c.21,0,1.46,0,1.56.37s-1.18,1.29-1.45,1.52a11,11,0,0,1-2.39,1.67c-.61.25-1.56-.3-2.08-.61s-1.1-.74-1.64-1.11-1.33-1-.52-1.38c1.18-.56,2.89-.32,4.14-.2,1,.09,2.7-.2,3.58.33.42.25.34.33-.06.68a14.43,14.43,0,0,1-2.13,1.39A3.94,3.94,0,0,1,372,356.24Z"/><path class="i" d="M372.2,356.09c0-.1,0,0,0,0,0,.24,0,.49.06.74a3.75,3.75,0,0,0,.11.67"/><path class="i" d="M370.38,359.28a8.68,8.68,0,0,1,2.09-1.83c.45.5,1.08.83,1.57,1.33A10,10,0,0,1,375,360"/><path d="M457.84,419.91a7.31,7.31,0,0,0-4.3-3.06c-3-.51-2.24,2.95-2.14,4.85.17,0,.36,0,.54,0,.34,1.41.3,6.42,2.61,4.15a1.38,1.38,0,0,0,2.29.48c.83-.69.65-1.74.8-2.78A12.9,12.9,0,0,0,457.84,419.91Z"/><path d="M379.42,419.35a7,7,0,0,1,1.67-4c1.59-1.53,2.17-.17,2.6,1.29,2.11-1.65,2.33.36,1.92,2.21-.36,1.64-2,4.66-3.84,5.11C378.39,424.78,378.7,419.23,379.42,419.35Z"/><path d="M396.34,435.6c-.58-1.48-.14-6.33,1.43-7,1.19,1,1,2.2,2.64,2s1.15-1,2.1.47c1.16,1.81.94,5.21-.87,6.67-1.56,1.26-1.93-.38-3.13-.48-.62-.06-1.26.95-2,.47C395.46,437.08,395.87,434.71,396.34,435.6Z"/><path d="M414.11,417.69c-.1-1.5.28-3.8,1.51-4.76,2.43-1.87,3.35.91,3.63,2.65,1.72-1.1,1,2.62.89,3.29-.67.95-2.45,3.31-3.81,2.86C414.38,421.07,414.55,417.78,414.11,417.69Z"/><path d="M428.74,435.6c-.1-1.67-.67-7.39,2-5.58,1,.69.76,1.52,2.12,1.48s1.81-1.19,2.35.56a5.31,5.31,0,0,1-2.95,6.29C429.2,439.49,428.24,436.8,428.74,435.6Z"/><path d="M415,452a4.36,4.36,0,0,1,.33-3.56c1-1.79,1.75-1,2.78.2.57-.43,1.91-1.56,2.67-1.41,1.35.26,1,1.69.94,2.74,0,1.68,0,2.9-1.46,4.18C417.67,456.47,414,454.71,415,452Z"/><path d="M385.73,454.21c-.76-1.57-.92-11.49,2.08-6.82,1.77-1.42,2.22,3.4,2.24,4.52C390.1,454,387,457.77,385.73,454.21Z"/><path d="M399.92,463.65c1.05-1.28,1.18-3.64,2.59-4.73.74.91,1.54-.32,2.39.3s-.1,2.11,1.14,1.92C407,465,399.69,466.86,399.92,463.65Z"/><path d="M415.69,473.1c-.18-1,2-3.2,2.75-4.15,1.29.39,2.2-.25,3.24.53a5.23,5.23,0,0,0,.41.87c.36.36,1,.14,1.16.7.46,1.37-2.77,3.83-3.93,4.08S414.83,474.85,415.69,473.1Z"/><path d="M437.19,468.79c.51-.17,2.21-2.67,3.6-3.07.32.46.15,1.4.4,1.7.54.64.64.12,1.37.41.56.23.8-.23,1.07.42s-.72,1.48-1.18,1.82c-1.32,1-3.65,2-5.4,1.76C434.4,471.43,436.31,469,437.19,468.79Z"/><path d="M436.33,454.49c.2-1,.88-4.28,2-5.15,1.91-1.51,1.75.56,2,2.12,2.61-2.18,2.41,2,1.45,3.5a3.18,3.18,0,0,1-3.12,1.48C437,456,437.15,454,436.33,454.49Z"/><path d="M454.83,453.1a1.49,1.49,0,0,1-1,.95c-1.7.35-1.6-1.64-1.7-2.62-.13-1.29-.75-6.54,1.66-4.31a6.06,6.06,0,0,1,.76-1.11,1.14,1.14,0,0,1,.53.37C456.68,446.19,455.28,452.94,454.83,453.1Z"/><path d="M435.9,409.91c-.33-1.9-1-5.12.73-6.51a6.42,6.42,0,0,1,1.14,1.54c1.46-1,1-2,2.32-.82,1.8,1.54,1.48,4.53.73,6.51C439.47,414.23,435.27,411.4,435.9,409.91Z"/><path d="M401.64,400.05c.33-1.55,1.4-4.48,2.76-5.36,2-1.28,1.43,1,1.39,2.47,3.45-3.62,3.06,1.88,1.48,3.55-2.23,2.34-7,1-4.77-2.6"/><path d="M439.35,385.47c1-1.08,1-3.26,1.58-4.64,1-2.7,1.07-1.06,2.27.15.55-.25,1.05-.67,1.56-.89.74,2-.26,6-2.12,7,.22-.13-.78-.1-.77-.1-.44.09-.53.47-1,.43C439.23,387.29,439.8,385.29,439.35,385.47Z"/><path d="M421.28,384.78c0-1.4-.2-3.44.67-4.6,1.5-2,1.27.39,2.29,1.43.64-.42,1.09-1.23,1.88-1.17a8.24,8.24,0,0,1,.33,2.74c0,1-.26,3.11-1.45,3.71C422.51,388.14,421.78,384.94,421.28,384.78Z"/><path d="M402.79,375.61c.63-1.73.23-4.88,2.12-6,.68.68.76,1.71,1.24,2.51,1.34-1.7,1.1.83,1.11,1.53,0,1.42.25,2.13-.82,3.55C404.54,379.74,402.27,375.8,402.79,375.61Z"/><path d="M390.46,374c1.72,3.5,4-1.48,3.53-3.56-.16-.75-.92-2.86-1.92-1.73-.35-1.17-.8-2.75-1.89-1.2S389.65,373.36,390.46,374Z"/><path d="M430.31,368.67c.13.13-.11.23.12.26,0-1.13.17-4.63,1.81-4.69.07.28.39.5.48.72,2.94-1.71,3.52,2.4,2.69,4.31-.5,1.15-2.43,2.84-3.81,2.9A1.93,1.93,0,0,1,430.31,368.67Z"/><path d="M450.39,359.33c-.18-.67-.82-.73-1.5-.56-1.67.43-2.06,3.12-2.21,4.49l.39.12c-.12.92-.46,3.41,1.05,3.45.89,0,1.61-1.56,1.95-2.16C451,363.12,451.42,360.93,450.39,359.33Z"/><path d="M443.07,350.34c0-1.71-1.15-4-.79-5.75a3.12,3.12,0,0,1,2,.66c.56-.55.62-1.53,1-2.27,1.57-.07,2.55,4.93,2.14,6.25-.26.85-1.05,1.9-2,1.26C444.61,351.89,442.61,351.2,443.07,350.34Z"/><path d="M416.27,360.89c-.11-2.28,1.39-9.33,3.33-4.19,2.39-1.8,2.93,2.29,2.27,3.77C420.6,363.35,416.54,362.58,416.27,360.89Z"/><path d="M400.21,355.75c-1.1.06-.67,3.35-.07,4a3.3,3.3,0,0,0,3.22.17c2.79-2-.95-8.72-3.87-4.31"/><path d="M390.32,358.39c-.12-.25,0-.53-.24-.81,2.34.14,4.49-3.42,3.46-5.45C391.92,349,389.39,355.9,390.32,358.39Z"/><path d="M437.19,329.37c-.74-.32-1.37,1.84-1.59,2.5-.52,1.54-.44,2.05.91,2.91,1.11.7,2.21.94,3.18-.15.83-.93.47-1.26-.31-2.56A7.12,7.12,0,0,0,437.19,329.37Z"/><path d="M428,341.59c0-.15,0-.27,0-.42-.78.82-.61,2.51-.55,3.62.11,1.85.17,1.87,1.47,2.64,1.46.85,2.62,1.57,3.48-.4C433.34,344.88,431.25,338.2,428,341.59Z"/><path d="M415,338.67c-1.22.91-2.44,4.78-1.85,6.16.4.95,2.28,1.15,3.14.57,1.16-.77,1.28-3.69,1.15-4.92S415.41,337,415,338.67Z"/><path d="M424.44,330.76a.51.51,0,0,0-.33-.26c-1,.95-.42,6.13,1.33,4.07.05.16.38.45.45.61,2.68-1.58-1-7.12-2.17-4.14"/><path d="M430.89,314.23c.11-2.05-4.85-.06-2.79,3.14.5.79,1.37,2.35,2.1,2.69-.09,0,2,.17,2.13.15C435.23,319.76,431.94,313.7,430.89,314.23Z"/><path d="M416.12,302.29c-.15-.11,0-.27-.25-.26-1.44,2.41,4.42,4,3.69,1.72-.45-1.45-3.35-1.83-4.58-1.74"/><path d="M418.85,315.34a2.22,2.22,0,0,0-.59-1c-.75,2,1,3.29,2.07,4.43.79.81,1.19,2.3,2.39,1.24a2.3,2.3,0,0,0,.44-2.13c-.17-1.37-1-3.54-2.45-4.2C419.85,313.29,417.45,313.56,418.85,315.34Z"/><path d="M410.53,310.21c0,.05-2.46-.79-2.57-1.56-.09-.59,1.14-2,1.83-2.18,1.44-.42,3.86,1.9,3.76,3.26-.13,1.84-2.62,1.09-3.45.2"/><path d="M396.05,301c-.15-.14,0-.27-.28-.3-2.74,1.95,4.8,5.65,5.51,1.95.49-2.57-4.55-2.56-6.09-1.65"/><path d="M409.1,320.34c-.94-1.29-2.55-.77-1.78.84.11.23,1.16,1.32,1.37,1.56.62.73.93,1.33,2,1.18,2.92-.41.37-6.58-2.76-4.69"/><path d="M386.3,305.48c-1.55.27-4.06,2.53-1.87,3.32a6.51,6.51,0,0,0,5.19,0c1.31-.64,2.36-1.71.85-2.89s-3.54-.31-5.17.12"/><path d="M378.28,316.45c.09-.06.27-.07.38-.13-.84-.3-2,1.12-2.42,1.8,2-.05,3.53,1.33,4.9-1,.54-.9.81-1.65-.23-2-1.42-.5-3.05,1.3-3.78,2.17"/><path d="M373.12,309.1c-1.1.38-3.61,2.66-3,3.76,0,0,1.74.94,1.78.95.85.1,1.53-.69,2.18-1.09,1-.62,2.74-1.57,2.14-3s-2.52-1-3.27,0"/><path d="M402.93,336.87c.41-.35-.29-2.38,0-3.29,1.25.72,1.24-1.11,2.38-.82.77.19,1.16,1.61,1.21,2.2.2,2.94-2.65,3.91-4.28,1.35"/><path d="M391.45,342.26a2.82,2.82,0,0,0,0-.41c-.45.58-2.53,4.28-.24,3.3.31.74.25,1.72,1.25,1.51s2.14-3,2.14-3.86c0-2.12-1.8-2.39-3.27-1.1"/><path d="M383.44,350.89c.62-.89,1.74-2.81,3-2.62.06.63-.06,1.28,0,1.89.18,0,.38.06.57.06a4.57,4.57,0,0,1-2.59,3c-1.85.37-2-2.23-1.12-3.35"/><path d="M364.51,335.2c-.09.14.1.23-.11.27a2.35,2.35,0,0,1,.26-1.77c.53.58.91-.23,1.38.11a1.81,1.81,0,0,1,.25,2.08c-1,1.36-2.27-.26-2.35-1.52"/><path d="M365.52,329.65c-.4-.57-.68-2.66.4-2.55a1.59,1.59,0,0,1,1.16-.8c1.74,2.34-1.28,6.26-2,2.79"/><path d="M372.26,334.09c-.07.12.05.39-.15.2-.24-1.34-.28-2.67.65-3.47.62-.53,1.6-1,1.52.34,2.41,0-1.41,6.69-2.17,2"/><path d="M370.39,323.26a3.09,3.09,0,0,1,.9-2.19c1.56-1.29,1.76,0,1.85,1.13.08,1,.31,1.8-.57,2.51-1.38,1.1-3-.74-2.46-2.14"/><path d="M378.71,325.76c-.33-.28.28-1.45.76-1.92.53.23,1.41-.29,1.81,0s-.07,2.23-.41,2.69c-.86,1.19-3.28,1.42-2.59-.67"/><path d="M381.43,333.12c-.27-.43.62-2.21,1.22-2.51,1.16-.59.91,0,1.13.72s.49,1-.37,1.83c-.72.72-1.65,1.07-1.84-.32"/><path d="M374.84,339.23c-.15.12-.1.21-.26.27a2.79,2.79,0,0,1,.69-1.8c2,.77-.19,3.44-.86,1.81"/><path d="M357.35,332.7c-.07.18-.28-.18-.27.13.76,1.47,1.71-1.74,1.35-2.61-1.1-2.7-2.34,1.4-1.51,2.62"/><path d="M360.21,350.48a1.43,1.43,0,0,1-.39-1.56c2.31-.93,3.19,1.07,2.51,2.79a7.23,7.23,0,0,1-2.83-1.93"/><path d="M399.6,337.62a6.42,6.42,0,0,1-.19,2.15,8.67,8.67,0,0,1-.76,2,6.64,6.64,0,0,1-1.3,1.75,3.25,3.25,0,0,1-2,1,9,9,0,0,0,1.16-1.65c.32-.56.64-1.13.94-1.72A27.63,27.63,0,0,1,399.6,337.62Z"/><path d="M398,401.3a10,10,0,0,1-2.42-1.54,5.46,5.46,0,0,1-1-1.12,1.86,1.86,0,0,1-.3-1.46,2.75,2.75,0,0,0,.74,1.13c.31.32.64.62,1,.93A10.65,10.65,0,0,1,398,401.3Z"/><path class="e" d="M372.08,356.43c-.09.05-.28,0-.4,0a6.2,6.2,0,0,1-1.2-.23,6.62,6.62,0,0,1-2.7-1.8c-.5-.59-.95-1.75,0-2.17a4,4,0,0,1,2.61-.1,8.65,8.65,0,0,0,2.08.37,20.81,20.81,0,0,0,2.35-.35c.57-.07,1.45,0,1.8.49s0,1.08-.32,1.53a7.47,7.47,0,0,1-2.2,1.86C373.65,356.27,372.46,356.83,372.08,356.43Z"/><path class="k" d="M521,280.48l.36-.71-.8.84Z"/><path class="k" d="M543.78,242.7c-2.92,1.21-6.17,1.14-9.33,1.18-16.4.22-33.07,4.09-46.64,13.47,10.23-2.36,20.9-1.69,31.34-2.78s21.38-4.43,28-12.79l-3.33,2.95,4.56-4.3a188.93,188.93,0,0,1-18,25.69,4,4,0,0,1-1.86,1.49,3.89,3.89,0,0,1-2-.17c-6.18-1.7-12.07-4.47-18.3-6A47.77,47.77,0,0,0,474,266a76.93,76.93,0,0,1,21.88,2.41c6.89,1.64,14.28,2.92,21.33,2,4-.53,6.79,0,10.48-1q-4.18,5-8.6,9.82c-.59.64-1.19,1.27-1.79,1.91a33,33,0,0,1-8.39-1.45c-10.74-2.75-22-4.12-32.81-1.81-7,1.5-13.71,4.51-20.85,4.67,12.08,2.88,24.15,4.86,36.53,4.75,8.2-.08,15.23-.61,23-3.5A144.15,144.15,0,0,1,501,296.25c-.84.66-1.7,1.31-2.56,1.94-8.3.92-16.6-2.26-24.79-3.17a45.26,45.26,0,0,0-23,2.88c-1.24.42-2.48.82-3.75,1.16-.89.23-2.72,1-3.63.75a135.3,135.3,0,0,0,18.9,4.32,67.76,67.76,0,0,0,34.2-4.44c-1.73,1.21-3.5,2.38-5.32,3.47-.93.55-2.71,1.21-4.38,2a22.19,22.19,0,0,0-2.52.65,9.14,9.14,0,0,1-2.08.14c-1.78.1-3.79,1.15-5.42,1.84-5.7,2.41-10.87,6-15.91,9.67a168.47,168.47,0,0,0-14.8,12c-3.41,3.1-6.81,6.42-11.07,8.08a90.45,90.45,0,0,0,22.18-6.83,85.09,85.09,0,0,0,30.27-22.94c2-2.44,5.68-3.71,8.32-5.47,1.85-1.23,3.65-2.54,5.42-3.9A174.11,174.11,0,0,0,486,317.27c-6.92,9.77-10.41,21.09-17.32,30.87a74.86,74.86,0,0,0,10.75-9.7c11-11.91,17.91-28.67,25.41-43a199.83,199.83,0,0,0,14.78-13.89l.47-.48.83-.5c-2.33,4.37-5.36,8.27-7.62,12.68a140.25,140.25,0,0,0-5.56,13.17c-2.48,6.4-4.75,12.89-6.71,19.48a99.71,99.71,0,0,0-2.56,10.53c-.61,3.28-.63,6.54-2.32,9.52,7.16-9,12.22-19.68,16-30.69,2.2-6.41,4-13,5.59-19.55,1.29-5.32,2-11.1,3.89-16.23,2.3-2.41,4.5-4.91,6.72-7.4.37-.41,1-1.38,1.64-.77s0,1.7-.13,2.26q-.58,3-1.22,6.07-1.27,6-2.74,12.06c-1.9,7.94-4,15.83-6.06,23.73-1.65,6.27-3.41,12.75-7.44,17.72a81.7,81.7,0,0,0,22.36-56.09c0-3.52-.27-7.17-1.87-10.28A195.17,195.17,0,0,0,553,237.22v-5.81C551.07,236.29,548.38,240.79,543.78,242.7ZM521,280.48l-.44.13.8-.84Z"/><path class="k" d="M542.28,223.7a53.5,53.5,0,0,0-40.37,14.58c8-4.61,17.56-4.78,26.72-5.15,8.42-.33,17.31-1.11,24.37-5.63v-4a11.2,11.2,0,0,1-1.23.33C548.66,224.45,545.45,223.94,542.28,223.7Z"/><path class="k" d="M544.74,262.13c-3.67,8.6-6.15,21.23-4.43,30.5a57.52,57.52,0,0,1,0,18.47c5-10.4,7.44-22,8.4-33.6.87-10.5,1.66-22.45.06-32.9C547.84,252,547.62,255.4,544.74,262.13Z"/><path class="k" d="M29.11,93.5A122.62,122.62,0,0,0,0,111.66v8.73C10.05,111.88,18.64,101.6,29.11,93.5Z"/><path class="k" d="M0,166.07V175c.32.77.63,1.55,1,2.33C.8,173.56.47,169.81,0,166.07Z"/><path class="k" d="M4.81,135.61c-1.22,3.06.68,8,1.6,10.55l12.93,35.9a76.39,76.39,0,0,0-1.4-15,144,144,0,0,0-7.67-25.35c-.38-1-1-3.34-1.74-5.21q5.49,1.32,10.93,2.76c-.55,3.19,1.22,8.74,1.91,11a78.31,78.31,0,0,0,4.12,10c6.64,14.21,13.28,28.44,21,42.16A139,139,0,0,0,43.52,187a143.29,143.29,0,0,0-9.17-25.88c-3.26-7-7-14.8-11.89-21.09q5.68,1.53,11.34,3.18c.41,4,4.34,10.18,5.79,13.21,2.4,5,5,10,7.82,14.84s5.68,9.7,8.62,14.5c1.46,2.4,2.94,4.79,4.41,7.19,1.17,1.92,3.64,4.58,4.08,6.72-2.94-14.35-10.2-27.48-17.37-40.36-2.6-4.67-5.64-11-9.91-15.08q7.47,2.24,14.85,4.67c8.22,19.4,20.46,37.83,33.82,54.21-3-3.74-4.46-10.61-6.65-15q-3.66-7.35-8-14.36c-5.16-8.37-11-17.19-17.89-24.42,3.63,1.21,7.26,2.45,10.86,3.74,2.45,7.18,8.75,14.64,13.47,20.45a123.24,123.24,0,0,0,9,10c2.36,2.34,8.06,5.59,9.44,8.43A115.78,115.78,0,0,0,81.05,169c-2.32-2.81-7.13-10-11.7-14.09q6.11,2.24,12.14,4.63c-1.18,1.49,1.46,5.26,2.23,6.69A64,64,0,0,0,95.91,181.9c7,6.72,15.22,12.17,23.58,17.24a280.47,280.47,0,0,0-29-33.62c-.64-.64-2.08-2.3-3.62-3.79l4.42,1.82h0c-.23,1.8,6.68,4.8,8.19,5.67,7,4,14.23,7.59,21.56,10.95,6.27,2.88,16.16,5.06,21.42,9.33a162,162,0,0,0-22-15.05,164.2,164.2,0,0,0-21.38-10.19c-1.09-.43-5.74-3-7.27-1.67-2-.93-3.93-1.86-5.9-2.76H87a32.73,32.73,0,0,0,8.57-1.69c11.45-3.36,22.79-7.06,34.14-10.75a157.06,157.06,0,0,0-25.2,3.4c-6.19,1.35-18.12,2.93-22.85,7.14q-5.88-2.62-11.78-5.07c6.13,2.24,14.37-1.27,19.9-3.7a175.24,175.24,0,0,0,29.63-16.63c-15.26,2.38-29.2,9.56-42.82,16.63-2.2,1.14-4.9,2.15-6.77,3.68-2.57-1.07-5.15-2.1-7.73-3.11a13.89,13.89,0,0,0,3.17-1.4C79,140.53,92.44,132.38,106,124.42c-3,1.78-7.52,2.46-10.86,3.74q-5.35,2.07-10.54,4.49a161.43,161.43,0,0,0-18.57,10.19c-1.47.94-6.64,3.28-6.57,5.18a2.92,2.92,0,0,0,.12.73q-4.91-1.87-9.87-3.64c1.87-.26,4.25-1.74,5.51-2.45,15.22-8.56,27.26-21.46,41.1-32q-15.77,9-30.61,19.46Q58.25,135.39,51.05,141c-1.15.89-3.86,2.31-3.66,3.3q-3.12-1.08-6.27-2.13a24.77,24.77,0,0,0,4.64-3.25q18.15-15.09,35.39-31.18a222.42,222.42,0,0,0-21.63,14.12c-6.64,5.09-12.69,10.92-19.72,15.53-1,.68-3.53,1.74-4.61,2.87q-4.47-1.41-9-2.71c5.25-1.3,9.8-6.48,13.19-10A410.64,410.64,0,0,1,70,98.57c-9.57,4.13-18,10.25-25.68,17.15-3.8,3.43-7.4,7.06-10.89,10.78-1.67,1.78-8.41,7.58-9.13,10.49q-7.68-2.19-15.58-4.14c1.59.45,7.59-4.11,8.79-5.22,10-9.15,18.84-19.42,29.58-27.68a110,110,0,0,0-27.25,18.8C16.41,122,10.52,126.66,8.68,131c-.47,1.12-.39,1.66,0,1.8Q4.4,131.77,0,130.78v3.74Z"/><path class="k" d="M2.44,94.63l.67-.27c-1,.4-2.08.83-3.11,1.27V98a63.24,63.24,0,0,1,6.72-4.16A5.35,5.35,0,0,0,2.44,94.63Z"/><path class="l" d="M339.47,555.12a85.58,85.58,0,0,0,7.6-14.54,113.13,113.13,0,0,0,8.87-34C350.3,522,340.21,535.76,336,551.61a13.82,13.82,0,0,0-.41,2.35q-5.28-8.49-10.72-16.48c.27.34.81.24,1.73-.54,3.6-3.06,6.16-9.85,8.16-14A101.93,101.93,0,0,0,344,492.48C339.55,504.77,332.59,516,327,527.9c-.67,1.43-3.11,8.28-2.17,9.56q-4.39-6.47-9-12.63c2.55-1.59,5.93-9.5,7.09-11.57,2.44-4.32,4.75-8.72,6.81-13.22C334,491,337.07,481.4,338,471.49a386.44,386.44,0,0,1-17.82,36.76c-2.31,4.19-5.8,9.93-5.35,15.06q-6.43-8.64-13.26-16.83c1-.14,1.5-3,2-4.34q3-8.26,5.65-16.65,5.21-16.65,8.77-33.72c-5.61,15.8-14.08,30.74-17.36,47.14-.28,1.37-.92,4-.55,5.76q-6.7-7.95-13.86-15.59c.86-2.17,1-4.91,1.34-7.24,2.38-14.49,4.76-29.3,2.13-43.75A160.24,160.24,0,0,0,283.25,470c-.55,5.75-1.26,14.26,2.86,19q-7.86-8.37-16.34-16.49c.76-1.8-3.17-5.15-3.93-6a158.37,158.37,0,0,0-38.08-30.83c5.78,3.35,11,11.51,15.8,16.21,5.57,5.5,11.32,10.84,17.4,15.82,1.31,1.07,6.38,6.29,8,5.53,1.06,1.11,2.1,2.24,3.14,3.36-1.91-.9-3.94-1.64-4.75-2a286.26,286.26,0,0,0-41.45-15.19c7.54,5.87,15.38,11.47,24.06,15.6A65.53,65.53,0,0,0,268.85,481c1.61.23,6,1.38,7.11-.13q12.57,13.86,24.09,28.57c-5-1.92-11.13-2.56-15.86-3.3-14.62-2.29-29.5-4.59-44.16-2.61,2.18-.3,5.53,1.06,7.73,1.5l8.3,1.64c5.52,1.09,11.06,2.15,16.62,3.08s11.11,1.7,16.7,2.24c3.1.3,9.43,1.63,13.5,1.12q5.4,7,10.56,14.24c-8.06-2.95-17.7-3.91-26.16-4.65a151.44,151.44,0,0,0-27.68.08A149.08,149.08,0,0,0,244,525.05c15.57,2.47,31.3,3.86,47,5.24a84.37,84.37,0,0,0,10.89.49c2.7-.12,10.06-.36,12.16-2.6q13.13,18.45,24.55,38a15.33,15.33,0,0,0-2.71-.49,37.74,37.74,0,0,0-7.88-.09,99.33,99.33,0,0,0-15.76,3c-4.66,1.13-10.49,3.38-15.34,3.1,8.43.49,16.86,1,25.3.82,4.81-.09,12.56-.22,16.23-3.86a4.08,4.08,0,0,0,.91-1.17q1.89,3.25,3.73,6.54h4.34q-4.87-8.67-9.84-16.81A7.91,7.91,0,0,0,339.47,555.12Z"/><path class="l" d="M261.31,482.69a120.79,120.79,0,0,0-26.75-6.22c3.15.32,8.09,4.39,11.09,5.76a124.14,124.14,0,0,0,12.42,4.9c7.41,2.48,17.13,5.95,25,5.48C281.19,487.69,266.19,484.36,261.31,482.69Z"/><path class="l" d="M246.29,490.29c-4.89-.55-11.91.39-16.47-1.14,20.49,6.9,42.67,12.06,64.41,13-9.74-4.56-21.08-7.19-31.64-9.31Q254.51,491.22,246.29,490.29Z"/><path class="l" d="M272.22,431.67c.11,11.35.23,22.71.69,34.06a29.21,29.21,0,0,0,1.14,8.23c.6,1.81,1.37,4,3.39,4.53,2.75-5.48.34-17-.37-23.14A139.74,139.74,0,0,0,272.22,431.67Z"/><path class="l" d="M292.27,489.2c-.31,1.51-1.24,6.1,2.15,5.11,1.84-.55,2.42-5.94,2.84-7.56A148.47,148.47,0,0,0,301,466.83c.44-3.63.74-7.26.9-10.91.16-3.4-.63-7.64.09-10.93C298.77,459.72,295.31,474.43,292.27,489.2Z"/><path class="l" d="M307.77,513.17c3.23,3.55,3.46-2.81,4-4.84,2.14-7.78,5.77-15.08,8.51-22.67a206.6,206.6,0,0,0,6.54-23.94q-9.84,20.61-18.43,41.76C307.36,506.07,305.49,510.66,307.77,513.17Z"/><path class="l" d="M309.55,538.27a154.73,154.73,0,0,0-26.7,1.26,83.25,83.25,0,0,0-14.79,3.57l38.46.06c3.1,0,9.45.16,11.41-2.82S311.75,538.32,309.55,538.27Z"/><path class="l" d="M329.2,554.49c-4.77-1.46-9.9-1.46-14.84-1.2A142.31,142.31,0,0,0,282,558.85a389.51,389.51,0,0,0,42.95-.33C328.61,558.29,336.69,556.79,329.2,554.49Z"/><path class="l" d="M362.79,526.74c-2.6,14.76-11.29,27.73-17.31,41.52a2.2,2.2,0,0,0-.26,1.29,1.59,1.59,0,0,0,2.08.89,4.26,4.26,0,0,0,1.9-1.62,67.46,67.46,0,0,0,14.26-38.68l-2,5.46A28.3,28.3,0,0,0,362.79,526.74Z"/><path class="l" d="M75,498.61c7.49.32,16.67-3.15,23.68-5.63a122.72,122.72,0,0,0,11.73-4.87c2.82-1.35,7.45-5.31,10.45-5.67a114.38,114.38,0,0,0-25.34,6.37C90.91,490.48,76.69,493.9,75,498.61Z"/><path class="l" d="M94.48,498.49c-10,2.19-20.75,4.89-29.93,9.38,20.67-1.25,41.67-6.54,61-13.45-4.31,1.54-11,.76-15.65,1.37Q102.16,496.81,94.48,498.49Z"/><path class="l" d="M80,463.06c-.57,5.83-2.66,16.85.06,22,1.91-.52,2.6-2.63,3.15-4.37a28.25,28.25,0,0,0,.93-7.84c.24-10.81.15-21.62,0-32.42A132.77,132.77,0,0,0,80,463.06Z"/><path class="l" d="M56.11,453.62c.75,3.12.08,7.16.28,10.4.23,3.46.58,6.92,1,10.36a143.38,143.38,0,0,0,4,18.89c.43,1.53,1.08,6.65,2.84,7.14,3.24.89,2.27-3.46,2-4.89C63,481.52,59.47,467.58,56.11,453.62Z"/><path class="l" d="M32.8,470a196.18,196.18,0,0,0,6.65,22.67c2.74,7.17,6.32,14.05,8.5,21.43.57,1.92.91,8,3.91,4.53,2.12-2.43.27-6.76-.78-9.21Q42.53,489.41,32.8,470Z"/><path class="l" d="M23.66,569.64C27.21,573,34.6,573,39.17,573c8,0,16-.6,24-1.2-4.6.34-10.19-1.7-14.64-2.7a94.7,94.7,0,0,0-15-2.58,35.41,35.41,0,0,0-7.49.22L24.9,567q2.42-4.26,4.93-8.47c1.26.78,4.54,1.22,6.5,1.31a371.32,371.32,0,0,0,40.86-.4,135.37,135.37,0,0,0-30.88-4.75c-4.71-.17-9.59-.07-14.1,1.39-.46.15-.86.3-1.2.44q7.22-12,15.13-23.5c2,2.09,9,2.2,11.62,2.26a79.67,79.67,0,0,0,10.35-.64C83,533,98,531.43,112.75,528.82a140.71,140.71,0,0,0-14.89-2,145.75,145.75,0,0,0-26.34.38c-8,.85-17.19,1.93-24.8,4.86q3.44-5,7-9.94c3.36,1.55,11.34-.36,14.89-.76,5.31-.6,10.59-1.45,15.85-2.41s10.52-2.08,15.76-3.21l7.86-1.7c2.09-.45,5.24-1.8,7.33-1.56-14-1.63-28.1.8-42,3.22-5.93,1-14.14,1.93-19.18,5.66q12.84-17.65,27.28-34.14c1,1.42,5.24.25,6.76,0a62.63,62.63,0,0,0,17.85-5.94c8.18-4.07,15.54-9.53,22.6-15.25A272.79,272.79,0,0,0,89.6,481.24c-.76.37-2.68,1.11-4.48,2Q86.58,481.6,88,480c1.59.7,6.32-4.35,7.55-5.39,5.69-4.84,11.06-10,16.27-15.34,4.45-4.55,9.3-12.41,14.74-15.69a150.53,150.53,0,0,0-35.68,30c-.71.82-4.39,4.07-3.63,5.77-5.3,5.26-10.37,10.56-15.25,16,3.83-4.61,3-12.7,2.38-18.16a152.46,152.46,0,0,0-6.63-30.25c-2.24,13.79.29,27.84,2.81,41.58.41,2.21.55,4.82,1.4,6.87q-6.68,7.41-12.91,15.07c.33-1.69-.34-4.18-.62-5.48-3.42-15.55-11.73-29.62-17.36-44.55q3.69,16.16,8.94,31.93,2.66,7.94,5.68,15.74c.48,1.24,1,4,2,4.1Q51.33,520,45.37,528.35c.34-4.89-3.09-10.29-5.36-14.24a371,371,0,0,1-17.6-34.67c1,9.41,4.15,18.46,8.25,27,2,4.26,4.32,8.4,6.71,12.47,1.15,2,4.5,9.42,7,10.88q-4.23,6-8.3,12.17c.87-1.23-1.56-7.7-2.23-9.06C28.3,521.72,21.48,511.12,17,499.5a97,97,0,0,0,9.3,28.84c2,3.9,4.54,10.32,8,13.17.89.73,1.4.81,1.66.48q-4.15,6.33-8.17,13c-.05-.21-.1-.42-.16-.63-4.27-15-14.12-28-19.75-42.53A107.82,107.82,0,0,0,17,544a82,82,0,0,0,7.49,13.7,10.94,10.94,0,0,0,1,1.22q-3.37,5.68-6.67,11.64c-6-12.88-14.31-25-17-38.82a27.06,27.06,0,0,0,1.4,8.41l-2-5.16a64.3,64.3,0,0,0,14.25,36.56,4.27,4.27,0,0,0,1.84,1.51l.1,0-.48.9H21c.82-1.51,1.64-3,2.48-4.53Z"/><path class="l" d="M50.62,542.49c-2.09.08-9.92-.79-7.94,2.1s8,2.56,10.9,2.5l36.59-.7A79.2,79.2,0,0,0,76,543.24,147.7,147.7,0,0,0,50.62,542.49Z"/><path class="l" d="M463.31,240.9c-.58,5.21.54,12.68-1.16,17.53,7.64-21.79,13.31-45.37,14.19-68.51-5.07,10.35-8,22.4-10.27,33.64Q464.3,232.15,463.31,240.9Z"/><path class="l" d="M423.51,208a165.12,165.12,0,0,0-26.78,5.06c12.86-.07,25.72-.15,38.56-.59a35.3,35.3,0,0,0,9.3-1.18c2.05-.63,4.54-1.45,5.1-3.58C443.46,204.73,430.41,207.26,423.51,208Z"/><path class="l" d="M458.88,186.63a180.11,180.11,0,0,0-22.59-4.11q-6.15-.71-12.34-1c-3.86-.18-8.65.65-12.38-.14,16.7,3.52,33.38,7.27,50.13,10.57,1.7.33,6.91,1.34,5.76-2.26C466.83,187.72,460.72,187.09,458.88,186.63Z"/><path class="l" d="M483.19,171.25c-8.83-2.31-17.12-6.2-25.74-9.16-8.84-3-18-5.05-27.15-7.06q23.42,10.56,47.42,19.8c2.95,1.13,8.15,3.14,11,.72C492.69,172.14,485.49,171.86,483.19,171.25Z"/><path class="l" d="M519.37,164.85c-3.51-2.17-2.23,6.58-2.27,8.92a154.54,154.54,0,0,0,1.65,28.42A84.51,84.51,0,0,0,522.9,218L522.66,177C522.64,173.72,522.76,167,519.37,164.85Z"/><path class="l" d="M535.3,152.92c-1.61,5.07-1.58,10.53-1.24,15.8a144.13,144.13,0,0,0,6.56,34.47,392.06,392.06,0,0,0-.73-45.73C539.6,153.56,537.83,145,535.3,152.92Z"/><path class="l" d="M551.23,143.13a9.7,9.7,0,0,1,1.77,2.32v-5l-3.14,1.67A5.17,5.17,0,0,1,551.23,143.13Z"/><path class="l" d="M551.23,143.13a5.17,5.17,0,0,0-1.37-1l3.14-1.67v-4.63q-7.53,4-14.72,8.15a8.91,8.91,0,0,0-2.36-2,101,101,0,0,0-16.52-8.16,135.78,135.78,0,0,0-38.59-9.58c17.51,6.06,33.19,16.87,51.17,21.4a16.62,16.62,0,0,0,2.66.45q-9.55,5.58-18.56,11.34c.38-.29.26-.87-.63-1.85-3.49-3.84-11.2-6.6-15.9-8.75A121.92,121.92,0,0,0,465,136.91c13.95,4.78,26.76,12.24,40.23,18.2,1.63.72,9.41,3.34,10.84,2.34q-7.26,4.67-14.21,9.48c-1.84-2.72-10.81-6.34-13.16-7.59-4.92-2.61-9.91-5.09-15-7.3-10.29-4.45-21.15-7.81-32.38-8.79A457.3,457.3,0,0,1,483,162.37c4.76,2.48,11.29,6.22,17.09,5.76q-9.74,6.83-18.95,14.05c-.16-1.08-3.44-1.61-4.92-2.12q-9.37-3.27-18.9-6.1-18.89-5.61-38.24-9.47c17.93,6,34.91,15.11,53.51,18.68,1.55.3,4.53,1,6.53.61q-9,7.09-17.54,14.69c-2.46-.93-5.57-1-8.21-1.46-16.42-2.6-33.21-5.19-49.54-2.46A192.78,192.78,0,0,0,440,201.47c6.51.61,16.15,1.4,21.52-3q-9.4,8.33-18.53,17.33c-2-.83-5.8,3.34-6.75,4.15a168.67,168.67,0,0,0-17.85,17.61,166.77,166.77,0,0,0-16.73,22.79c3.75-6.13,12.94-11.69,18.22-16.75,6.18-5.91,12.18-12,17.76-18.45,1.21-1.39,7.1-6.79,6.19-8.54h0c1.26-1.13,2.53-2.24,3.8-3.35-1,2-1.84,4.22-2.26,5.09a290.2,290.2,0,0,0-16.86,44.05c6.59-8,12.86-16.32,17.47-25.54a66.21,66.21,0,0,0,6.53-20.06c.25-1.71,1.52-6.44-.22-7.57q5.81-5,11.75-9.78c-4,5.09-6.72,16.57-8.23,20.82A121.33,121.33,0,0,0,449,248.76c.34-3.35,4.9-8.6,6.43-11.78a127.18,127.18,0,0,0,5.44-13.2c2.75-7.87,6.59-18.18,6-26.55q12.33-9.85,25.24-19c-4.29,5.7-5.11,14.9-6.16,21.56-2.47,15.55-5,31.37-2.59,47-.35-2.33,1.16-5.88,1.63-8.22l1.8-8.83c1.18-5.88,2.34-11.76,3.34-17.68s1.84-11.81,2.4-17.77c.37-4,2.41-12.94.47-16.67q5.73-4.06,11.59-8c-3.27,8.56-4.25,18.83-5,27.82a151.56,151.56,0,0,0,3.07,46.1c2.67-16.57,4.11-33.31,5.55-50a84.78,84.78,0,0,0,.46-11.59c-.16-2.88-.49-10.74-3.06-13q20.8-13.9,42.83-26a14.81,14.81,0,0,0-.56,2.93,38.58,38.58,0,0,0,0,8.39A101.76,101.76,0,0,0,551.37,171c.45,1.69,1,3.53,1.63,5.42v-31A9.7,9.7,0,0,0,551.23,143.13Z"/><path class="l" d="M551.36,131.69a80.27,80.27,0,0,0-43.91-15.35l6.2,2.13a34.47,34.47,0,0,0-10-1.43c16.73,2.83,31.47,12.14,47.14,18.6a2.52,2.52,0,0,0,1.46.29,1.27,1.27,0,0,0,.79-.54v-2.06A5.69,5.69,0,0,0,551.36,131.69Z"/><path class="k" d="M520.52,399.29a15.6,15.6,0,0,0-.61,2.87C520.11,401.2,520.32,400.24,520.52,399.29Z"/><path class="k" d="M521,460.36c4.94,1.08,12.2,1.85,17.74,4.71A104,104,0,0,1,553,473.41V433.94A173.57,173.57,0,0,1,521,460.36Z"/><path class="k" d="M529.13,447.64c3.3-3.21,7.57-5.31,11.63-7.58A125.7,125.7,0,0,0,553,432.24v-10A220,220,0,0,1,529.13,447.64Z"/><path class="k" d="M538.78,465.07c-5.54-2.86-12.8-3.63-17.74-4.71a173.57,173.57,0,0,0,32-26.42v-1.7a125.7,125.7,0,0,1-12.24,7.82c-4.06,2.27-8.33,4.37-11.63,7.58A220,220,0,0,0,553,422.28V420.1a146,146,0,0,0-11.27,10.7l-11,11.24A71.85,71.85,0,0,0,540.48,427c3-6.31,5.15-13.06,8.68-19.13A85.89,85.89,0,0,0,538,421.78c-2.49,4-4.49,8.27-6.94,12.29a92.7,92.7,0,0,1-5.43,7.79c2.07-3.62,3.21-7.85,4.27-11.92q3.33-12.78,6.65-25.56c-.88,3-2.91,5.55-4.6,8.2-6.13,9.63-8,21.24-12.44,31.72,2.57-11.79.94-24.07.34-36.16a34.11,34.11,0,0,1,.09-6c-1.65,7.72-3.14,15.49-3.21,23.39-.05,5.12.47,10.44-1.43,15.19,1.07-9.89-.5-18.14-1-28.1-.21-4.11-.68-9,1.11-13.66-4.54,10.16-5,15.15-4.69,25,.11,3.77,2.05,12.09.42,15.49a258.15,258.15,0,0,0-4.52-34.86,43.46,43.46,0,0,1-1.21-9.12c-2.95,18.08,5.09,36.78,2.19,54.87-1.19-19.08-9.77-37.06-14.08-55.77.78,17.8,8,34.85,10.65,52.5q-10.29-24.67-20.56-49.34c1.73,11.31,5.86,22.21,10.74,32.69A116.5,116.5,0,0,1,501.47,449c-8.72-18.7-23.15-34.34-37.35-49.64q9.38,16.94,20.32,33c2.51,3.69,5.09,7.35,7.88,10.85A443.94,443.94,0,0,0,456,408.93a193.75,193.75,0,0,0,28.87,34.59q-11.42-9.67-23.78-18.21c-3.71-2.55-7.66-5.09-12.14-5.63,8,7.83,16.09,15.72,25.5,21.92,3.37,2.22,6.91,4.22,10,6.74,2.34,1.89,4.46,4.07,6.86,5.88C475.15,443.7,460,437,438.45,428.66a81.85,81.85,0,0,0,21,15.1c3.21,1.61,6.53,3,9.84,4.4l19.29,8.14q-29.5-6.53-58.58-14.81a74.22,74.22,0,0,0,15.27,7.59c3.23,1.17,6.54,2.11,9.84,3L472,456.91c3.62,1,7.26,2.43,11,3.42-17.2-3.13-34.59-5.69-52-6.36,13,5.15,25.14,7.34,38.91,10,7.26,1.43,14.26,1.62,22,1.72-20.1-.53-38.72,1.33-58.8,2,21.13,4.52,43.05,3.34,64.28.14-8.57,3.5-17.18,7-26.15,9.45-8.17,2.22-16.62,3.53-24.69,6.05a145.06,145.06,0,0,0,51-8.38c-3.11,3.39-7.77,4.95-11.89,7.12-10.33,5.46-17.61,15-27.21,21.61,8.53-1.78,16-6.55,22.68-11.94s13.25-11.14,20.16-16.23c-10.05,13.64-20.15,20.47-31.46,40,13.06-13.06,25.43-26.75,37.79-40.44-8.54,14.17-17.13,28.46-22.4,44.09,4.28-5.14,7.43-11.08,10.55-17l15.53-29.3c-2.59,6-5.18,12-6.71,18.3-2.12,8.72-2.18,17.81-2.23,26.8,4.07-12.27,6.45-25,8.64-37.79-.16,7.63-.29,15.41,2,22.77,1.2,3.89,3.08,7.72,2.92,11.75,3.22-11.58-2.76-23.84-2.42-35.87,3.28,12.43,11,23.33,18.57,33.93q-7.2-16.8-14.41-33.61c.11.18.22.36.34.54,6.49,10.06,13.81,19.6,21.13,29.13-4.46-10.3-10.22-24.34-15.7-34.18,6.31,10.69,14.55,22.13,25.66,30.1-9.15-12.43-15.66-26.28-27.46-41.44a110,110,0,0,1,18.73,6.31A43.28,43.28,0,0,1,553,478.38v-5A104,104,0,0,0,538.78,465.07Z"/><path class="l" d="M54.36,168.85c-.5.86-1,1.73-1.51,2.59A15.62,15.62,0,0,0,54.36,168.85Z"/><path class="l" d="M11,230.8C8.88,237,6.71,243.28,3.54,249.08c-1.08,2-2.27,3.89-3.54,5.75v19.44c.71-3.72,1.65-7.4,2.61-11.07Z"/><path class="l" d="M0,243.53v3q3.08-5,6.26-10C4.22,238.9,2.16,241.27,0,243.53Z"/><path class="l" d="M0,212.27V219c3.16-.8,6.43-1.57,9.86-2.25C6.62,215.2,3.34,213.65,0,212.27Z"/><path class="l" d="M0,224.47v0l.78-.29Z"/><path class="l" d="M5.33,233.89A59.62,59.62,0,0,1,0,237v2.11A48.17,48.17,0,0,0,5.33,233.89Z"/><path class="l" d="M1.39,231.6c-.46.14-.93.26-1.39.39v.39l2-1Z"/><path class="l" d="M12.87,290.28c4.87-22.2,2-34,3.82-50.92,1.68,8.38,2.67,17.06,3.95,25.5s3.62,17,8.77,23.91c-2.66-11.28-1.56-23.3-5.55-34.21-1.59-4.34-4-8.57-4-13.18a139.53,139.53,0,0,0,32.34,39.74c-4.3-7.2-9.7-13.72-14.28-20.75-5-7.72-9.06-16-13.06-24.28C38.51,252.4,54.05,267.64,72.9,278c-13.49-12.65-25.34-25.26-39.25-37.21A97.77,97.77,0,0,0,48,251.14c12.11,6.95,22.63,13.2,35.88,17.83-13.44-10.89-28.17-20.32-43.14-29.2,3.43,1.67,7.11,3,10.5,4.57l15.86,7.41c3.11,1.45,6.22,2.9,9.42,4.13a73.92,73.92,0,0,0,16.58,4.22Q65.73,247.38,39.25,233l19.94,6.44c3.43,1.1,6.85,2.21,10.35,3.09a83,83,0,0,0,26,2.29c-21.78-7.79-37.64-12.58-56.9-15.19,3,.2,6.09-.07,9.13,0,4.06.14,8.06.93,12.09,1.45,11.25,1.45,22.66.75,34,0-3.71-2.52-8.39-3.18-12.9-3.67q-15-1.62-30.17-1.73a199.9,199.9,0,0,0,45.15-7.38,452.54,452.54,0,0,0-50.48,2.24c4.46-.83,8.89-1.93,13.28-3.08q19.13-5.06,37.7-11.79c-21,2.34-42.48,4.78-61.75,13.28a122.12,122.12,0,0,1,17.95-9.33C63.41,204.94,73.94,199.37,83,191.9l-49,24C48,204.27,65,196,77.71,183c-16,11.39-34.67,19.43-48.58,33.14,10.19-15.63,29-24.57,39.09-40.23a45,45,0,0,1-7.12,6.13,273.28,273.28,0,0,0-27.17,23.51c1.1-3.64,8.23-8.7,10.89-11.48,7-7.32,10-11.41,13.6-22.09-1.84,4.69-5.53,8.11-8.5,11.1-7.19,7.23-14,12.46-19.94,20.67,1.82-4.85,5.84-8.55,9.3-12.47,5.34-6.05,9.53-12.93,13.57-19.86a37,37,0,0,1-4,4.59c-8.71,8.79-18.3,17.05-24.44,27.69,3.85-10.87,10.38-20.9,12.38-32.23.55-3.12.77-6.37,2.17-9.23L26.46,186c-2,3.81-4.05,7.79-5,11.92a95.63,95.63,0,0,1,1.28-9.53c.92-4.66,2.34-9.21,3.21-13.87a86.71,86.71,0,0,0,1.19-17.92c-1.52,6.91-4.55,13.42-6.6,20.2a73.12,73.12,0,0,0-3,17.84q-.27-7.86-.55-15.74c-.24-6.92-.49-13.88-2-20.64a218.2,218.2,0,0,0,0,41.68c-.27-4.61-2-9-3.51-13.37a121.85,121.85,0,0,1-4.95-20.14,170.23,170.23,0,0,0,5.81,48.46C8.87,213,4.57,210.15,0,208.26v4c3.34,1.38,6.62,2.93,9.86,4.51-3.43.68-6.7,1.45-9.86,2.25v5.44l.78-.25-.78.29V232c.46-.13.93-.25,1.39-.39l.61-.18-2,1V237a59.62,59.62,0,0,0,5.33-3.15A48.17,48.17,0,0,1,0,239.15v4.38c2.16-2.26,4.22-4.63,6.26-7q-3.18,5-6.26,10v8.27c1.27-1.86,2.46-3.77,3.54-5.75C6.71,243.28,8.88,237,11,230.8L2.61,263.2c-1,3.67-1.9,7.35-2.61,11.07v6.13c6-14.58,9.17-30.13,12.29-45.55C12.17,253.33,12.05,271.82,12.87,290.28Z"/><path class="k" d="M51,451.44A219.88,219.88,0,0,0,0,482.9v3.82Q26,469.62,51,451.44Z"/><path class="k" d="M43.18,441.69A269.47,269.47,0,0,0,0,477.32v5.07Z"/><path class="k" d="M54.8,462.6c-15.51,4.28-29.26,11.54-42.88,18.75L0,487.65v4.55A322.44,322.44,0,0,0,54.8,462.6Z"/><path class="k" d="M32.45,432.88A310.1,310.1,0,0,0,0,467.86v9A359.69,359.69,0,0,0,32.45,432.88Z"/><path class="k" d="M9,423.66c-3,4.59-6,9.2-8.95,13.89v10.79Q4.76,436.12,9,423.66Z"/><path class="k" d="M18.94,426.05C11.87,435.68,5.64,444.77,0,454.21V466C8.24,453.72,15.19,441.26,18.94,426.05Z"/><path class="k" d="M55.84,475.1c-16.91,1.44-32.05,7.55-46.5,14.1-3.07,1.39-6.15,2.81-9.34,4v3.36Z"/><path class="k" d="M40.79,526.17A360.2,360.2,0,0,0,.62,509c14.16,2.47,27.45,10.76,41.63,12A220.75,220.75,0,0,0,0,506.77v5.58c7.34,2.88,14.54,5.73,20.49,8.07C27.09,523,33.87,525.66,40.79,526.17Z"/><path class="k" d="M44.1,516C30.56,508.92,14.56,509.2,0,504.62v2.09Q22.14,510.55,44.1,516Z"/><path class="k" d="M53.39,487.33A216.87,216.87,0,0,0,0,496.87v1.61C17,493.24,36.61,493.1,53.39,487.33Z"/><path class="k" d="M50,508.78c-16.17-5.72-33.25-3.43-50-5.6v.56Q25,506.8,50,508.78Z"/><path class="k" d="M53.05,499.51A86,86,0,0,0,35,497.9,284.68,284.68,0,0,0,0,499.8v2.4Q26.28,499.88,53.05,499.51Z"/><path class="k" d="M81.63,318.23l-2.11.73C80.23,318.74,80.94,318.51,81.63,318.23Z"/><path class="k" d="M75.85,394.86c-.11-.79-.27-1.56-.45-2.33Z"/><path class="k" d="M6,314.12q-3-2.44-6-4.9v27.43c.75-3.79,1.54-7.56,2.5-11.27C2.9,323.82,4.42,315.44,6,314.12Z"/><path class="k" d="M30.65,258.48c-4.77,2.4-10.67,3.43-15.64,5.58a127.74,127.74,0,0,0-15,7.68v7.52C10.23,272.43,19.6,264,30.65,258.48Z"/><path class="k" d="M10.13,252.73A48.16,48.16,0,0,0,0,254.25v2.92A73,73,0,0,1,10.13,252.73Z"/><path class="k" d="M7.92,323.75c.08-1.07.7-5.31.24-7.87l6.12,4.92c-1.52,3-1.23,8.67-1.72,11.92-2.49,16.66-5,33.69-1.79,50.24-.51-3.14,1.4-8,1.93-11.18q1-5.61,1.82-11.21c1.17-7.6,2.17-15.22,2.84-22.87.29-3.26,1.65-9.38.77-13.84,1.69,1.33,3.37,2.65,5.07,4-5.78,19.39-5.55,42.3-3.71,62.13-.45-4.84,2.5-11.67,3.33-16.55q1.41-8.32,2.32-16.71c.86-8,3.7-19.39.33-27.12q2.64,2,5.31,4c-3.33,9.32-1.15,20.69,1.06,30,2.43,10.22,5.78,20.33,6.28,30.8-.52-10.92,1-21.77,0-32.79q-.81-8.35-2.43-16.61c-.4-2.06-.49-5.91-1.45-8.79,2,1.52,4.1,3,6.17,4.5a198.57,198.57,0,0,0,9.27,53c-2-6.4-1.5-13.26-1.53-20a116,116,0,0,0-1.72-19.5c-.44-2.54-.71-7.08-1.95-10.66q2.58,1.81,5.21,3.6c.71,8.63,3.26,17.6,5,26q1.5,7.06,3.15,14.12c.95,4.06,3,8.78,3.17,12.92-.43-10-.88-20-2.53-29.9A99,99,0,0,0,55.07,356c-.63-1.92-1.12-4.43-2-6.59,1.45,1,2.92,1.92,4.39,2.87,1.66,15.19,8.86,30.9,14.08,45.08Q68.1,381.71,64.72,366c-.48-2.26-1.28-7.2-2.91-10.94,1.16.73,2.32,1.46,3.5,2.17-1.28,7.07,3.45,18.18,6,24.41,1.47,3.58,3.19,7.12,4.08,10.86q-2.15-11.4-4.44-22.77c-.6-2.95-1.27-7.86-3.25-11.06L70,360.09l1.65,1C72.8,372.52,78.3,386,83.45,396.22c-2.88-5.74-3.34-13.94-5.27-20.14-1.26-4.05-2.29-10.31-5.05-14.17q2,1.21,4.11,2.41a3.31,3.31,0,0,0,.2.78c0,3.95,1.3,7.78,2.77,11.46a159.1,159.1,0,0,0,10.08,20.67c-3-11.12-4.72-21.71-10.63-31.52,1.62.91,3.26,1.8,4.92,2.65.35,3.53,4.48,9.82,6.23,12.27,2.31,3.23,7.56,6.89,9,10.41-1.61-4-5.17-14.77-10-20.22.49.21,1,.4,1.49.6h0a48.59,48.59,0,0,0,8.56,8.2c2.15,1.51,6.63,3.19,8.16,5.23-2.3-3.07-10.9-15-16.07-13.67-.35-.28-.68-.56-1-.84a38.11,38.11,0,0,0,11.73,1.5c5.61,0,11.33-.4,16.71,1.13a43.61,43.61,0,0,0-16.06-5.22,44.83,44.83,0,0,0-8.51-.21c-.75.06-4.27.79-6.48.93-.9-.61-1.82-1.2-2.75-1.78,4.67-.42,12.41-4,15.56-5a69.37,69.37,0,0,1,10-2.48,27.14,27.14,0,0,0-13.94.35c-2.27.59-11.43,3.17-13.37,6-2.46-1.49-4.94-2.92-7.22-4.41l-.34-.22a14.56,14.56,0,0,0,5-.55c3.27-1,6.25-2.7,9.34-4.13a57.88,57.88,0,0,1,22.38-5.23c-6.92-1.45-14.17-.73-21,1.05a79.79,79.79,0,0,0-15,5.34c-1.77.87-2.64,1.58-2.89,2.13l-6.23-4.06c4.69-.41,15.45-3.91,17.61-4.69,3.2-1.16,6.31-2.5,9.37-4,2.18-1,6-4.09,8.38-4.32-3.49.34-35.42,6.79-37.6,11.51l-6-3.88c6.56-.81,15.54-4.1,21.25-5.33,6.14-1.32,13-4.74,19.13-5.29-6.85.61-13.64,1.67-20.42,2.73a91.79,91.79,0,0,0-12.69,2.6,37.1,37.1,0,0,0-8.6,4.42l-5.49-3.57c2.64-.27,6.14-1.93,8-2.54a201.15,201.15,0,0,1,33.64-7.85c-3.37.49-7.48-.62-11-.35a72.89,72.89,0,0,0-11.28,1.85c-3.52.84-18.13,4.11-21,7.77l-6.2-4.07c.73-.22,1.53-.5,2.27-.74,3.76-1.16,7.31-2.89,11-4.33a81.21,81.21,0,0,1,32.4-5.55c-8.76-2.4-18.16-1.83-27,.24-5,1.17-18.37,3.32-20.79,8.56,0,.11-.08.2-.12.29-2.08-1.39-4.15-2.8-6.2-4.25l-1.1-.8.53-.15C50.54,329.66,65,324,79.52,319c-6.25,1.88-13.11,1.37-19.66,2.2-7,.89-13.67,3.33-20,6.2-2.3,1-6.24,2.07-7.21,4.69-2.22-1.63-4.41-3.28-6.57-5a37,37,0,0,0,7.79-2.45c7-3.61,13.7-7.9,20.83-11.36s14.87-6.09,22.84-6.06c-11.58-2.3-23.23,2.74-33.91,7.65-5.7,2.62-14.78,4.92-19.2,9.37a10.16,10.16,0,0,0-.82.91q-4.35-3.45-8.6-7a14.61,14.61,0,0,0,2.65.19c10.43-.41,19.91-5.63,29.17-10.31q10.56-5.34,21.48-10c-11.69,2.63-23.4,5.28-34.73,9.14-5.68,1.93-11,4.39-16.48,6.78-.8.35-3.88,1.15-4.69,2l-6-5.09a19.53,19.53,0,0,0,3.68-.53c17.22-4.21,34.43-10.12,49.75-19.56-8.62,3.53-17.8,4.57-26.8,6a105,105,0,0,0-13.14,2.88A17.73,17.73,0,0,0,18.17,297l1.48,2.72a51.19,51.19,0,0,0-9.25,3.74c-1.28.68-5.94,2.86-7.21,4.58L0,305.32v3.9q3,2.46,6,4.9c-1.57,1.32-3.09,9.7-3.49,11.26-1,3.71-1.75,7.48-2.5,11.27v14.74c.67-1.47,1.32-2.95,1.93-4.45A79,79,0,0,0,7.92,323.75Z"/><path class="k" d="M44.8,270.33a156.07,156.07,0,0,0-44.8,15v5.89C14.65,283.63,29.08,275.52,44.8,270.33Z"/><path class="k" d="M13.49,298l38.73-17.56c-9.94,2.35-20.06,3.65-30,6.14-5.59,1.4-16,3.92-22.25,8.25v7.34A68.24,68.24,0,0,0,13.49,298Z"/><path class="k" d="M228.87,511.28a27.91,27.91,0,0,0-2.73.68Z"/><path class="k" d="M163.68,563.24c7.38-1.17,14.66-2.17,21.95-4,14.55-3.71,28.69-9.12,42.78-14.53q-14.61,2.54-29.36,3.94c-12.93,1.23-26.45,2-37.73,9.11a17.46,17.46,0,0,0-2.65,2.14q2.07-7.26,4.32-14.47a12.89,12.89,0,0,0,1.47.47c7.67,2,18.8-1.9,26.58-3,14.58-2,30.26-4.56,40.91-15.68-8.37,5.83-18.32,8.37-28.17,9.5s-19.77.93-29.63,1.81a42.14,42.14,0,0,0-9.87,2.79q1.71-5.33,3.56-10.61c2.8,2.37,7.65.73,10.77.27,8.66-1.27,17.33-3.25,25.32-7.31,7.47-3.79,14.36-9.37,22.21-11.71-18.66,4.67-37.78,8.51-56.14,14.36l-.66.21.62-1.74c1.18-3.18,2.41-6.34,3.66-9.49l.32.25c6.09,4.39,21.61-2.79,27.7-5.07,10.73-4,21-10.18,28.64-19.37a95,95,0,0,1-37.9,17.05c-4.82,1-9.73,1.52-14.48,2.89-1,.27-2,.51-2.9.79,1.36-3.38,2.74-6.74,4.13-10.11.21-.52.43-1,.64-1.57,6.33,1.39,22.58-4.45,26.68-5.86a85.82,85.82,0,0,0,13.28-5.73c4-2.16,7.63-6.37,11.55-8.17a208.56,208.56,0,0,1-41.11,14.33c-2.08.52-6,1-9,2.1.69-1.68,1.37-3.35,2.06-5a42.22,42.22,0,0,0,12-1.07,108,108,0,0,0,15.13-6.18c7.87-3.69,15.75-7.38,23.38-11.64-6.87,3.83-16.37,4.78-23.74,7.7-6.85,2.7-18.53,5.38-26,9.2l3.66-8.89c5.49,3.95,43.51-11.7,47.41-13.84-2.65,1.45-8.75.66-11.75,1a118.8,118.8,0,0,0-12.55,2.16c-2.8.66-16.52,4.37-21.74,7.32l3.83-9.3c.63.46,2,.65,4.49.39a90.6,90.6,0,0,0,19.37-4.62c8.41-2.87,16.54-7.31,22.85-14a66.87,66.87,0,0,1-27.12,10.13c-4.22.58-8.52.74-12.64,1.95a17.14,17.14,0,0,0-5.64,3l.21-.52c1.4-3.39,3-6.88,4.63-10.41,4,1.94,15.37-1.7,18.17-2.65a32.83,32.83,0,0,0,14.93-9.74A78.88,78.88,0,0,1,220,446.13c-4,1.07-14.54,2.54-19.76,5.43.59-1.36,1.16-2.72,1.7-4.09,2.43-1.44,6.62-3.13,7.44-3.6a54.38,54.38,0,0,0,8.82-6.44,57.82,57.82,0,0,0,13.4-17.8c-4.63,5.7-10.94,9.39-16.84,13.48a47.81,47.81,0,0,0-11.35,10.27c.19-.58.37-1.16.54-1.73,6.32-2.26,7.33-22.46,7.68-27.72-.23,3.51-3.82,8.73-5.06,12.07-1.36,3.65-3.32,12-3.48,15.85h0c-.39.6-.79,1.18-1.17,1.79,1.39-9.9-2.12-25.1-3.15-31,.9,5.16-2.16,13.27-2.41,18.74-.19,4.14-.29,14.53,1.72,18.93-1.17,2.2-2.3,4.44-3.39,6.69-.4-15.81-5.73-29.51-10.11-44.72a240,240,0,0,0,3.35,31.58c.94,5.39,2.11,10.87,4.82,15.47a5.93,5.93,0,0,0,.32,1.06q-1.37,2.91-2.7,5.81c.31-6.53-2.84-14.62-4.25-20.29-2.16-8.69-7.22-18.64-8.06-27.47,1.5,15.75,4.8,35.55,11.36,49.82l-1.09,2.34c-.51,1.1-1,2.21-1.5,3.31-.08-5.19-2.69-11.44-4.06-15.34q-5.25-15-10.7-29.95c1.59,5,2.17,10.44,3,15.71,1.51,9.17,4,25.67,10.15,33-.75,1.68-1.48,3.37-2.22,5.07-.8-5.58-3.3-11.95-4.32-15l-14.05-41.71c4.08,20.44,7.11,44.11,15.62,63.15-.9,2.18-1.8,4.36-2.68,6.55-.48-3.21-1.66-6.52-2.3-9.21A146.88,146.88,0,0,0,169.25,467C164.31,454.17,158,442.08,151.7,430c2.61,5,3.66,12,5.4,17.47q3,9.47,6.22,18.87c3.81,11.17,7.2,23.55,12.27,34.19q-1.54,4-3.05,8c-1.1-5.1-3.9-10.62-5.15-13.91A169.55,169.55,0,0,0,156,470.52c-4.5-7.88-9.7-15.54-11.88-24.53a294.89,294.89,0,0,0,26.06,69q-1.75,4.86-3.46,9.76c-.93-4.07-3.45-8.66-4.42-11.37-2.57-7.23-5.47-14.33-8.66-21.25-6.33-13.71-15.3-25.31-22.13-38.51,6.55,12.65,9.85,27,14.19,40.71,3.94,12.48,9.34,27.42,19.14,35.93q-1.46,4.29-2.87,8.6c-1.66-11.52-12.38-22.85-18.68-31.57q-6.62-9.18-13.74-17.93c-4.17-5.12-11.9-11-14.69-17,11.46,24.6,26.71,51.66,45.9,70.21-.9,2.78-1.78,5.55-2.66,8.34C156,545,150.46,538.79,148,535.17c-5.88-8.49-12.1-16.7-18.46-24.77q-4.69-6-9.49-11.83c-2.7-3.32-8-7.67-9.6-11.71,7.82,21.74,22,39.91,35.85,57.65,2.71,3.45,6.26,10.36,9.87,12.73q-1.57,5.12-3.12,10.23c-1.25-3.34-4.77-7.86-5.58-9.06a106.08,106.08,0,0,0-22-22.85c-9.27-7.36-19.28-13.51-29.25-19.68,17.77,11,29.89,29.46,44.43,44.57,1.47,1.53,8.73,10.25,11.29,10.67-.29,1-.57,1.92-.86,2.88h3.68c.88-3.23,1.76-6.46,2.67-9.68C158.81,564.72,162.6,563.41,163.68,563.24Z"/><path class="k" d="M116.85,546.19c-8.51-6.87-18-12.84-24.28-22.1a239.09,239.09,0,0,0,27.69,36.18c4.27,4.69,8.66,9.24,13.11,13.73h10c-1.72-2.18-3.4-4.13-4.57-5.6A141,141,0,0,0,116.85,546.19Z"/><path class="k" d="M108.55,561.69c-7.52-5-15.5-9.53-21.44-16.59,8.28,9.85,15.67,19.79,24.18,28.9h13.88A195.37,195.37,0,0,0,108.55,561.69Z"/><path class="k" d="M224.45,559.36c-22.53.06-44.66,5.64-65.66,13.22a24.58,24.58,0,0,0-3.15,1.42h31.42c1.7-.73,3.39-1.48,5.05-2.24C202.6,566.94,213,561.48,224.45,559.36Z"/><path class="k" d="M172.07,428.62c-.33-1-.68-2.06-1.1-3.05C171.34,426.58,171.7,427.6,172.07,428.62Z"/><path class="l" d="M447.16,364.18a26.12,26.12,0,0,0-2.79-.44Z"/><path class="l" d="M517,416.47l-.62.21a26.11,26.11,0,0,1,7.82,1.52q-2.06-2.34-4.09-4.71A6.2,6.2,0,0,1,517,416.47Z"/><path class="l" d="M474.3,348l.17.2-.17-.56C474.31,347.78,474.3,347.9,474.3,348Z"/><path class="l" d="M550.73,442.47l2.27,2.31V439.7A10.91,10.91,0,0,1,550.73,442.47Z"/><path class="l" d="M544.56,470.09a136.7,136.7,0,0,1-34.27,9.71c7.52-1.11,15.5-.23,23.15-1.36A129.19,129.19,0,0,0,553,474V466.4C550.06,467.59,547.22,469,544.56,470.09Z"/><path class="l" d="M515.83,468.68c-7.27,3.66-14.44,7.85-22.51,9.42,16.45-3.21,32.11-4.87,47.87-11,1.44-.56,6.95-2.45,11.81-4.54v-7.39a63.5,63.5,0,0,0-8.62,2A184.23,184.23,0,0,0,515.83,468.68Z"/><path class="l" d="M537.94,426.67a15.35,15.35,0,0,0,.33,2.93q-4.21-4.46-8.33-9c.53-1.28.93-3,1.17-3.61,2.33-5.69,4.74-11.23,6.53-17.14,3.56-11.8,5.68-24,7.78-36.24Q541,375,535.61,385.93c-4.67,9.58-9.94,19.38-9.6,30.28q-2.35-2.68-4.65-5.41c.35-.89.67-1.75,1-2.46,3.17-7.16,5.82-14.62,6.6-22.43.81-8.14,2.18-16,2.64-24.28-4.87,14.91-9.49,29.9-13.64,45l-.36-.43q-2.7-3.36-5.31-6.79l.34-.14c6.15-2.81,8.19-17.7,9.39-23.31,2.11-9.89,2.42-20.35-.79-30a84.22,84.22,0,0,1-5.33,36.15c-1.57,4.09-3.49,8.08-4.74,12.28-.24.84-.55,1.73-.78,2.55q-2.57-3.39-5.1-6.8c4.25-3.33,7.57-19.65,8.43-23.59A75.18,75.18,0,0,0,515.45,354c.18-3.93-1.3-8.47-.86-12.23a207.75,207.75,0,0,1-8,37.57c-.65,2.07-2.49,6-2.71,8.93l-4.47-6a39.36,39.36,0,0,0,4.92-9.66,95.51,95.51,0,0,0,2.6-14.17c1-7.57,2-15.14,2.46-22.76-.42,6.85-4.22,14.52-5.56,21.38-1.24,6.37-4.8,16.43-5.51,23.75l-4.87-6.54c5.54-2.53,12-38.18,12.24-42.06-.18,2.63-3.67,7-4.82,9.41a111.75,111.75,0,0,0-4.35,10.51c-.84,2.42-4.6,14.46-4.89,19.69-1.7-2.27-3.39-4.55-5.09-6.83.64-.29,1.45-1.28,2.43-3.27a82.92,82.92,0,0,0,5.76-16.75c1.86-7.64,2.43-15.72.43-23.37a60.06,60.06,0,0,1-5.36,25c-1.57,3.47-3.49,6.82-4.55,10.48a14.91,14.91,0,0,0-.45,5.58c-.1-.13-.19-.26-.29-.38-1.86-2.5-3.67-5.22-5.54-7.92,3.34-2.22,6.05-12.47,6.67-15a28.32,28.32,0,0,0-.14-15.52,72,72,0,0,1-2.57,11.14c-1.11,3.53-5,12.21-5.34,17.42-.51-.73-1-1.45-1.57-2.16.14-1.75.38-3.56.66-5.37.34-2.19,1-4.37.47-6.56-.95-4.1-3.55-8-5.66-12.22v0c.74,6.71.09,10,1.68,16.65.16.68.39,1.82.68,3.06-2.52-6-14-14.07-17.21-16.19,2.49,1.65,4.67,6.6,6.56,8.95A81.63,81.63,0,0,0,473,348.71c.39.76.79,1.53,1.21,2.28-6-6-20.85-10.21-26.15-12.05,4.26,1.48,8.83,7.23,12.77,9.72,3.23,2,11.91,7.06,15.83,6.64,0-.06,0-.12,0-.18.76,1.24,1.53,2.47,2.33,3.69-11.94-6.34-24.64-8-38-11.07A198.42,198.42,0,0,0,466,358.46c4.45,1.55,9.07,3,13.77,2.81a5.14,5.14,0,0,0,.94.21c1,1.51,2,3,3,4.5-4.7-3-12.21-4-17.09-5.27-7.48-2-17.27-2.32-24.23-5.39,12.41,5.48,28.68,11.28,42.4,12.26l1.22,1.81c.57.85,1.16,1.69,1.74,2.54-3.89-2.12-9.77-2.75-13.32-3.35q-13.64-2.29-27.32-4.4c4.49.9,8.78,2.72,13.11,4.28,7.53,2.7,21,7.7,29.34,6.11.9,1.29,1.82,2.56,2.73,3.84-4.52-1.73-10.44-2.5-13.16-3l-37.65-6.78c17.12,5.47,36.14,13.1,54.31,14.6q1.79,2.42,3.6,4.8c-2.62-1-5.63-1.47-7.94-2.12a127.33,127.33,0,0,0-17.19-3.47c-11.86-1.6-23.83-1.86-35.77-2.1,4.94.1,10.66,2.25,15.54,3.22q8.46,1.67,17,3.17c10.11,1.78,20.92,4.43,31.24,5q2.22,2.85,4.48,5.68c-4.31-1.31-9.75-1.49-12.79-1.92a148.15,148.15,0,0,0-23.33-1.46c-8,.13-16.14.89-23.86-1.22a254.64,254.64,0,0,0,63.59,9.05c1.85,2.26,3.72,4.52,5.61,6.75-3.47-1-8.07-1-10.55-1.4q-9.88-1.61-19.9-2.31c-13.18-.92-26.06,1.05-39.1.73,12.5.31,24.7,3.8,37,6.26,10.13,2,22.33,4,32.71,1.42-.46,1.54-1.27,2.75-1.26,3.29-7.76-.13-16.35,1.78-23,2.58s-13.26,1.8-19.84,3c-5.78,1-13.81,4.48-19.6,4.09,23.71,1.58,51.05,1.3,73.94-5.58q2.46,2.78,4.93,5.53c-5.35-.87-12.61.79-16.47,1.18-9.1.93-18.15,2.23-27.17,3.7-4.43.72-8.86,1.49-13.29,2.28-3.75.67-9.5,2.91-13.26,2.42,19.87,3.16,40.07,0,59.84-3.18,3.85-.61,10.67-.42,14.15-2.19q3,3.36,6.11,6.69c-3.07-.45-8.1.34-9.38.46a98.33,98.33,0,0,0-27.41,7.2c-9.87,4-19.19,9.06-28.51,14.09,16.61-9,36.08-10.46,54.2-15.23,1.84-.48,11.76-2.37,13.29-4.15q3.3,3.57,6.61,7.12c-5.11-.3-11.34,1.19-14.86,1.77a130.86,130.86,0,0,0-26.91,7.44c-9.15,3.62-18.07,8.33-27.94,9.27a217.36,217.36,0,0,0,40-6c6.51-1.53,13-3.26,19.4-5.09,3.55-1,9.19-1.8,13.27-3.45v-5.81l-2.27-2.31A10.91,10.91,0,0,0,553,439.7V415.29c-2,6.47-3.75,13-5.23,19.56a20.38,20.38,0,0,0-.48,4.1q-3.16-3.24-6.31-6.51c1-.91,1.79-4.36,2.18-5.26,2.63-6.13,5.34-12.12,7.43-18.47.86-2.65,1.66-5.33,2.41-8V385.92q-1.9,4.06-3.91,8.07C543.87,404.4,538,415.06,537.94,426.67ZM474.3,348c0-.12,0-.24,0-.36l.17.56Zm42.09,68.66.62-.21a6.2,6.2,0,0,0,3.11-3q2,2.37,4.09,4.71A26.11,26.11,0,0,0,516.39,416.68Z"/><path class="l" d="M4.05,66.73c-.06.79,2.2,1.63,3.17,2.21q6.18,3.66,12.51,7Q32.32,82.65,45.5,88.16C33.67,81.3,23,72.44,10.31,67.25a14.11,14.11,0,0,0-4.56-1.37Q9.44,64,13.08,62.09a2.17,2.17,0,0,0,0,.58c.14,1.49,4.39,2.81,5.63,3.4a128.16,128.16,0,0,0,15.46,6.14c2.85.93,5.74,1.75,8.65,2.48,2.72.68,6.27.77,8.81,1.87C40.25,71.67,29,66.63,17.53,61.89a10.76,10.76,0,0,0-2.6-.79q2.85-1.55,5.69-3.15a31.83,31.83,0,0,0,5.63,2.21c11.3,4.19,22.86,8.43,35,8.82A137.76,137.76,0,0,0,36.49,58.9c-4.54-1.36-11.3-3.3-15.83-1q4.34-2.46,8.63-5.07c4.11,2.82,13.53,2.91,18.48,3.37a123.69,123.69,0,0,0,19.91.23c-9.18-1.79-18.37-3.57-27.6-5.09a25.74,25.74,0,0,0-6.83-.49l-.89.1q2.16-1.33,4.3-2.71c1.33.88,4.68-1.55,5.48-2a126.83,126.83,0,0,0,15.56-10A126.32,126.32,0,0,0,73.29,22.53C69.64,26.35,62.18,29,57.61,31.81,52.25,35.13,47,38.6,42,42.39c-1.09.81-6.13,3.79-5.79,5.17-1.07.62-2.15,1.22-3.23,1.82,1-1.29,2-2.71,2.41-3.26A216,216,0,0,0,54.46,17.23C48.48,22,42.67,27,37.9,32.88A49.52,49.52,0,0,0,30,46.19c-.45,1.18-2.11,4.35-1.06,5.41Q24.53,54,20,56.35c3.13-3.6,6.13-9.65,7.64-12.05a89.76,89.76,0,0,0,9.42-19.23c-.77,2.33-4.87,5.4-6.47,7.44a96,96,0,0,0-6,8.61c-3.07,5-7.2,11.33-8.37,17.14q-4,2-8,3.94c4.62-6.28,8.23-13.66,11.38-20.65q2.65-5.85,4.75-11.92C25.59,26,26,20.54,28,17.34c-8.71,14-16.34,29.47-20.74,45.32C4.84,63.8,2.42,64.91,0,66v2.68C1.35,68,2.71,67.39,4.05,66.73Z"/><path class="l" d="M0,95.67v2.17a86,86,0,0,0,8.35,3.35C5.46,99.5,2.7,97.62,0,95.67Z"/><path class="l" d="M2.33,55.07c4.25-10.69,8.56-21.58,9.38-33-.13,1.71-1.77,4-2.49,5.61-.89,2-1.8,4-2.69,6-1.79,4-3.56,8-5.22,12.08C.87,46.85.43,48,0,49v11.9C.87,58.9,1.62,56.85,2.33,55.07Z"/><path class="l" d="M15.75,83A178.69,178.69,0,0,0,34,91.9Q19,81.06,3.33,71.06A22.94,22.94,0,0,0,0,69.23v4.18C5.47,76.25,10.45,79.89,15.75,83Z"/><path class="l" d="M4.59,89.21a75.1,75.1,0,0,0,21.69,10.87A324.13,324.13,0,0,1,0,80.89v5C1.5,87,3,88.13,4.59,89.21Z"/><path class="l" d="M549.44,23c-.71-1.59-2.36-3.9-2.49-5.61.61,8.4,3.09,16.5,6,24.44V31l-.87-2Q550.8,26,549.44,23Z"/><path class="l" d="M530.69,12.68c2,3.19,2.38,8.67,3.63,12.28q2.1,6.06,4.75,11.92c3.15,7,6.76,14.38,11.38,20.65-2.69-1.28-5.37-2.6-8-3.94-1.18-5.81-5.31-12.19-8.38-17.14a95.87,95.87,0,0,0-6-8.6c-1.6-2.05-5.69-5.12-6.47-7.45A89.53,89.53,0,0,0,531,39.63c1.51,2.4,4.51,8.45,7.64,12-3-1.54-6-3.13-8.94-4.75,1-1.06-.61-4.23-1.06-5.4a49.57,49.57,0,0,0-7.87-13.32C516,22.32,510.18,17.3,504.2,12.56a215.41,215.41,0,0,0,19.09,28.89c.43.55,1.37,2,2.41,3.27-1.08-.61-2.16-1.21-3.23-1.83.35-1.37-4.7-4.35-5.78-5.17-5-3.78-10.28-7.26-15.63-10.57-4.58-2.84-12-5.47-15.69-9.29A125.5,125.5,0,0,0,501,31.65a127.6,127.6,0,0,0,15.56,10c.8.44,4.15,2.87,5.48,2,1.43.92,2.87,1.82,4.3,2.71l-.89-.1a25.67,25.67,0,0,0-6.82.49c-9.24,1.52-18.43,3.3-27.61,5.09a123.69,123.69,0,0,0,19.91-.23c5-.46,14.37-.54,18.48-3.37q4.3,2.61,8.63,5.07c-4.53-2.33-11.29-.39-15.83,1a138.36,138.36,0,0,0-24.71,10.08c12.09-.39,23.66-4.63,35-8.82A31.27,31.27,0,0,0,538,53.28c1.89,1.08,3.79,2.12,5.69,3.15a11.38,11.38,0,0,0-2.6.79C529.71,62,518.41,67,507.05,71.89c2.54-1.09,6.09-1.19,8.81-1.87q4.38-1.08,8.65-2.48A126.54,126.54,0,0,0,540,61.4c1.24-.58,5.5-1.91,5.63-3.39a2.16,2.16,0,0,0,0-.58q3.64,1.93,7.33,3.79a14.26,14.26,0,0,0-4.56,1.36c-12.7,5.19-23.36,14.06-35.19,20.91Q526.35,78,538.93,71.3q6.35-3.37,12.51-7c.39-.23,1-.51,1.56-.8V58.73L551.42,58C547,42.14,539.39,26.67,530.69,12.68Z"/><path class="l" d="M550.31,96.53c.9-.31,1.8-.64,2.69-1v-.69C552.11,95.43,551.22,96,550.31,96.53Z"/><path class="l" d="M553,85.27V80.7q-10,7.74-20.62,14.71A73.74,73.74,0,0,0,553,85.27Z"/><path class="l" d="M542.91,78.34c3.43-2,6.72-4.25,10.09-6.35V67.91q-14.43,9.28-28.33,19.32A177.61,177.61,0,0,0,542.91,78.34Z"/><path class="k" d="M450.08,107.05c-9.29-9.72-18.82-19.62-30.87-25.87a150.56,150.56,0,0,0,19.84,22.18c3.92,3.59,9.79,8.86,15.6,8.66C453.54,110.21,451.58,108.61,450.08,107.05Z"/><path class="k" d="M545.85,116.41a1.43,1.43,0,0,1,.73-.14,1.44,1.44,0,0,0,1.81-.93,3.84,3.84,0,0,0-.12-2.22,62,62,0,0,0-20.4-31.38s-.65.21-2.87-1.43c9.07,9.7,11.57,24,17.85,35.65q-4.94-.73-9.76-1.35a5.09,5.09,0,0,0-.3-2.44,78.23,78.23,0,0,0-6.41-13.34,105.44,105.44,0,0,0-20-25.07c8,12.16,10.49,28.28,19.2,39.94q-5.13-.57-10.19-1h0c-.15-2.5-2.57-6.12-4.9-9.43-1.31-2.48-2.84-4.91-4.32-7.26q-1.5-2.42-3.11-4.75l-.11-.16a94.25,94.25,0,0,0-13.55-17,94.37,94.37,0,0,1,7.05,13.55A85.58,85.58,0,0,0,500,96.05c2,4.68,3.94,9.23,6.06,13.17a13.5,13.5,0,0,0,3.21,3c-3.66-.27-7.29-.49-10.91-.66a5.18,5.18,0,0,0,.79-4.72,85.42,85.42,0,0,0-6.28-9.9,136.84,136.84,0,0,0-7.49-11.68,78.64,78.64,0,0,0-14.76-18.66q5.82,9.92,11,20.16Q484.27,92.39,487,98c.2.45.41.89.62,1.34,1.54,3.4,2.48,8.79,5.13,12-2.14-.07-4.27-.11-6.4-.15,2.2-1.18.66-4.66-.34-5.94-2.79-3.61-6.28-7.54-9.49-11.46q-2.65-3.65-5.42-7.22a190.56,190.56,0,0,0-13.85-17.78q5.47,10.39,11.31,20.59,1.29,2.37,2.68,4.66,3.12,5.38,6.34,10.72c1.05,1.74,3,5.17,5.36,6.39q-3.51,0-7,0c.47-.78-1.38-2.73-2.08-3.79q-4.35-6.69-9.05-13.18c-6.19-8.57-7.19-11.1-14.19-19.07,8.44,12.67,9,23.14,19.17,34.55a6.07,6.07,0,0,0,3.1,1.54c-2.82.06-5.65.14-8.47.27h0c.63-1.57-2.76-8-3.71-9.19-3.85-4.83-9.63-8.62-14.1-12.91q-3.61-3.48-7.49-6.7c-2.41-2-6-3.83-8-6.16,9,10.45,18.29,24.93,27.42,35.26h0c-5.3.31-10.61.73-16,1.26h0c-2.48-5-12.93-10.66-17.8-13.58a135.88,135.88,0,0,0-20.07-9.88c8.39,6.26,16.48,14,25,20a26.7,26.7,0,0,0,6.65,3.15,16.7,16.7,0,0,0,2.47.67l-5.49.63c-.63-2.11-5-3.08-6-3-7,.36-11.57,2.13-18.47,3.48-7.8,1.52-13,4.2-20.43,7,5.67-2.1,17.08.33,23.19-.33,7.13-.77,5-.22,12-1.63,1.52-.31,9.39-2.93,9.73-4.5h0c1.32-.1,2.64-.17,4-.25a34.69,34.69,0,0,0-3.88,2.12c-8.7,5.72-23.41,12.49-34.26,20,8.51-1.91,17-4.18,24.86-7.84A58.28,58.28,0,0,0,439,119.37c1.07-1,4.39-3.39,3.86-5,3.33-.18,6.67-.31,10-.42-5.88,2.92-13.89,9.77-16.79,11.55a105.11,105.11,0,0,0-19.48,14.93c2-2,7.73-3.12,10.4-4.42,3.62-1.75,10.61-4,14-6.17,5.57-3.48,12.12-10.46,16.25-16q4.35-.09,8.7-.12c-5.59,1.74-15.5,11.48-21.72,16.56q-5.7,4.65-11,9.79c-3.13,3.05-6.36,8.41-10,10.68,16.49-10.24,50.74-30.21,45.46-37h0q8,0,15.95.27c-5.05.92-7.26,1.28-11.32,4.9-9.83,8.78-23.37,23.6-30.1,34.79,1-1.67,3.87-3.21,5.42-4.49l5.83-4.78c3.88-3.2,7.74-6.41,11.52-9.72s7.45-6.69,11-10.24c2.33-2.35,8.34-7.07,9.11-10.42q3.66.14,7.32.32c-3.77,1.58-6.33,6-10.24,10a111.24,111.24,0,0,0-8.13,9.74c-1.71,2.11-3.31,4.31-4.82,6.56-2.19,3.07-4.18,6-5.72,8.32a125.65,125.65,0,0,0-7,12c10.5-9.33,20.29-19.38,30.07-29.42a69.7,69.7,0,0,0,6.43-7.22c1.42-1.91,5.31-7.07,4.89-9.77,4.47.27,8.93.63,13.39,1-1.2.76-2.85,1.82-5.2,3.18-5.17,3-12.2,11.43-16.15,18.24-2.25,3.88-9.19,16.91-10.64,21.13,7.16-8.8,21.82-22.89,29-31.69,1.72-2.13,8-7.49,7-10.5q6.54.63,13,1.45a13.54,13.54,0,0,0-2.68,1.39,43.08,43.08,0,0,0-10.6,9.6c-5.68,7.87-11.85,15.49-15.45,24.44,8.48-9.46,26.18-22.16,33.5-32.49a2.13,2.13,0,0,0,.29-2.29c2.1.28,4.2.59,6.3.9a9.66,9.66,0,0,0-2.11,1.46,32.21,32.21,0,0,0-4.46,5.37,83,83,0,0,0-6.6,12.51c-1.76,3.83-3.37,9.1-6.28,12.28,5-5.53,10.12-11.06,14.71-16.95,2.62-3.35,9.84-9.45,9.22-14q3.95.63,7.88,1.32v-3.47C550.6,117.16,548.22,116.77,545.85,116.41Z"/></svg>