<svg id="panda2" xmlns="http://www.w3.org/2000/svg" viewBox="0 0 553 574"><defs><style>.cls-1{fill:none;}.cls-2{fill:#fef6ec;}.cls-3{fill:#1d171d;}.cls-4{fill:#f5c3d1;}.cls-5{fill:#fff;}.cls-6{fill:#e2d9cf;}.cls-7{fill:#f5ebde;}.cls-8{fill:#1d1d1b;}.cls-9{fill:#f6d69f;}.cls-10{fill:#6a8c6c;}.cls-11{fill:#3c3c3b;}.cls-12{fill:#9d8e80;}</style></defs><g id="cadre"><rect class="cls-1" width="553" height="574"/></g><path class="cls-1" d="M273.54,126.38a13.61,13.61,0,0,0-3.88,1.18c.11,0,.21-.08.32-.12a20.71,20.71,0,0,1,10.88-.42A17.86,17.86,0,0,0,273.54,126.38Z"/><path class="cls-1" d="M389.14,362.76l.32-.27Z"/><path class="cls-1" d="M391.11,361.09c.71-.6,1.4-1.23,2.08-1.87C392.51,359.86,391.81,360.48,391.11,361.09Z"/><path class="cls-1" d="M395.32,357.13l-1.18,1.17C394.54,357.91,394.94,357.53,395.32,357.13Z"/><path class="cls-1" d="M163.84,372.19h.2c1.29-1.64,2.66-3.27,4.14-4.87Q165.91,369.67,163.84,372.19Z"/><path class="cls-1" d="M182.44,167.52c1.12-.81,2.26-1.61,3.4-2.38-1.1.63-2.21,1.29-3.36,2C182.47,167.26,182.46,167.39,182.44,167.52Z"/><path class="cls-1" d="M292.12,134c.24.32.48.63.7,1,0-.17,0-.32,0-.48l-.19-.12Z"/><path class="cls-1" d="M316.84,147.88c0,.09,0,.18.05.26l.36.12A5,5,0,0,1,316.84,147.88Z"/><path class="cls-2" d="M171.53,437.31a60.19,60.19,0,0,1,12.15,6.25l6.23-5.71c-6.14-2.57-12-5.63-18.07-8.58-7.49-3.66-16.59-5-22.58-11.37-.08,1.9-.15,3.81-.17,5.71-.07,3.46,0,6.92.14,10.38s.32,6.93.49,10.41c-.56-3.44-1-6.89-1.34-10.35-.09-1-.15-1.94-.22-2.91.15,4.72.48,9.49.91,14.3,1.82-1.47,3.58-3,5.22-4.6A16.37,16.37,0,0,1,171.53,437.31Z"/><path class="cls-2" d="M389.69,440.62c-.17-3.11-.18-6.24-.19-9.36l.23-9.36c.09-3.06.21-6.11.3-9.16-6.37,8.2-18.3,12.82-27,17.07-16.42,8-38.16,4.59-54.57-1.55-13.65-5.12-26.12-12.8-38.13-20.95a51.65,51.65,0,0,1-9.61-8.13l-10.22,10.13.39.25c-.27.08-.54.12-.82.18-4.79,4.75-8.28,8.22-9.4,9.42q-4.25,4.54-8.5,9.07c1.49,2.8,2.3,5.77,1,8.93-2.67,6.65-9.57,8.19-16.9,7.72q-6.19,6.38-12.5,12.64a67.37,67.37,0,0,1-.51,13.16c3.2,8.91,6.64,20.63,5.27,28.94a296.25,296.25,0,0,0,30.65,3.82c10.33.71,20.69.63,31.07.56s20.75-.2,31.12-.43l15.57-.32,7.22-.11c2.87-.19,5.75-.43,8.61-.73-3.31-9.48,2.25-25.79,6.07-35.81,6.92-18.11,18.76-27.19,38.55-32a99.35,99.35,0,0,1,12.89,7.85c-.1-2.42-.2-4.88-.27-7.36L390,436C389.91,437.51,389.81,439.07,389.69,440.62ZM240,467.76a83.52,83.52,0,0,1-13-8.51c-1.86-1.49-10.65-7.66-9.88-10.34,1.57-5.51,19.42,7,21.5,9.11a34.37,34.37,0,0,1,4.55,5.71c.45.7,2.79,6.28,3.12,6.32A18.15,18.15,0,0,1,240,467.76Zm35.64-8.94a2.29,2.29,0,0,0-1.39-1.52,3,3,0,0,0-1.78-.19,2.54,2.54,0,0,0-1.77,2.28,4.36,4.36,0,0,0,.07,1.76,5.56,5.56,0,0,0,.79,1.71,16.66,16.66,0,0,0,3.14,3.24,7.64,7.64,0,0,1-4.66-1.89,6.1,6.1,0,0,1-1.6-2.31,5.82,5.82,0,0,1-.3-2.9,5,5,0,0,1,1.33-2.74,3.93,3.93,0,0,1,1.33-.91,3.49,3.49,0,0,1,1.6-.27,3.87,3.87,0,0,1,2.62,1.21,3,3,0,0,1,.7,1.23A2.11,2.11,0,0,1,275.68,458.82Z"/><path class="cls-2" d="M208.52,500c1.77.29,3.53.6,5.3.86-1.75-.38-3.51-.75-5.25-1.17C208.55,499.74,208.54,499.85,208.52,500Z"/><path class="cls-2" d="M168.18,367.32c-1.48,1.6-2.85,3.23-4.14,4.87,6.38.18,13.65,1.77,18.7,4.94.47.29.92.6,1.36.93,5.57,4.19,9.18,11.21,14.91,15.37,8.94,6.5,16.49,8.51,27.18,11.22l3.54-3.24c1.61-1.48,3.19-3,4.78-4.49a8.46,8.46,0,0,1,.11-1.51l.66.78c2-1.88,4-3.77,5.95-5.68-1.95-.28-3.9-.6-5.85-.93-1.41.43-3.83-.16-6.49-1.19-4.75-.94-9.48-2-14.16-3.25A179.72,179.72,0,0,1,190,376.7a114.19,114.19,0,0,1-19.76-10.77,94,94,0,0,1-10.68-5.55l1.22.83q4,2.6,8.44,5l-.69.71.17-.14Z"/><path class="cls-3" d="M137.67,191.16a23.13,23.13,0,0,1-2.46-8.57c-.19-6.08,3.89-11.5,8.37-15.91,5.36-5.29,12-10,19.73-11s16.73,2.79,18.9,9.8a5.2,5.2,0,0,1,.27,1.69c1.15-.7,2.26-1.36,3.36-2a132.42,132.42,0,0,1,18.07-10.38c-1.83-10.71-5.86-21.07-13.09-29.07-13.76-15.24-37.9-19.08-56.62-10.64s-31.51,27.72-34.12,48.09c-1.83,14.34,1.2,29.59,9.91,41.13,9.5,12.59,23.77,16.45,23.77,16.45a109.38,109.38,0,0,1,10.41-18.22l-.07,0C141.24,199.46,139.37,194.9,137.67,191.16Z"/><path class="cls-3" d="M433.85,144.51c-16.92-11.64-41.35-12.17-57.61.36-8.41,6.47-14.17,15.74-17.89,25.75a187.39,187.39,0,0,1,22.9,20.76c-.37-2.84,1.1-5.66,5.84-8.85,6.75-4.54,16-2.48,23.18,1.32a27.91,27.91,0,0,1,9.27,7.22c4.23,5.47,5,13.19,2.77,19.73s-7.26,11.93-13.2,15.48a8.5,8.5,0,0,1-2.74,1.13,133.78,133.78,0,0,1,8.36,21.27c4.51-.69,17.55-3.34,27-12.05,10.63-9.8,16.34-24.26,17.09-38.7C459.9,177.42,450.76,156.16,433.85,144.51Z"/><path class="cls-4" d="M182.44,167.52c0-.13,0-.26,0-.39a5.2,5.2,0,0,0-.27-1.69c-2.17-7-11.13-10.83-18.9-9.8s-14.37,5.75-19.73,11c-4.48,4.41-8.56,9.83-8.37,15.91a23.13,23.13,0,0,0,2.46,8.57c1.7,3.74,3.57,8.3,6.43,11.38l.07,0a22,22,0,0,0,4.66-3.05A178.67,178.67,0,0,1,182.44,167.52Z"/><path class="cls-4" d="M409.11,226.28c5.94-3.55,10.95-8.93,13.2-15.48s1.46-14.26-2.77-19.73a27.91,27.91,0,0,0-9.27-7.22c-7.2-3.8-16.43-5.86-23.18-1.32-4.74,3.19-6.21,6-5.84,8.85a150.69,150.69,0,0,1,25.12,36A8.5,8.5,0,0,0,409.11,226.28Z"/><path class="cls-2" d="M136.09,340a91.93,91.93,0,0,1-14.65-25.7A80.89,80.89,0,0,0,136.09,340Z"/><path class="cls-2" d="M117,261c.37-2,.81-4,1.29-5.94-2.61,9.07-3.8,17.66-3.27,25.29.16,2.21.35,4.36.57,6.47A102.47,102.47,0,0,1,117,261Z"/><path class="cls-2" d="M121,313.06c0-.15-.09-.3-.15-.44Z"/><path class="cls-2" d="M381.25,191.38a187.39,187.39,0,0,0-22.9-20.76c-.4-.31-.8-.63-1.22-.94a146.81,146.81,0,0,0-13.35-9.05c-1.33-.73-2.66-1.44-4-2.11-6.57-3.3-13.32-6.08-20.2-8.82a8.75,8.75,0,0,1-2.31-1.44l-.36-.12c0-.08,0-.17-.05-.26a7.93,7.93,0,0,1-1.58-2.11,29.21,29.21,0,0,1-1.73-5.38c-.89-3.52-2-7-4.11-9.82a9.73,9.73,0,0,0-4-3.13,8.58,8.58,0,0,0-5-.44,8.47,8.47,0,0,0-6.55,6.82l-.2,1.24-.88-.55c0,.16,0,.31,0,.48-.22-.34-.46-.65-.7-1-3-2-5.29-4.67-8.29-5.94a23.83,23.83,0,0,0-3-1.06,20.71,20.71,0,0,0-10.88.42c-.11,0-.21.09-.32.12a14.71,14.71,0,0,0-5,3.87,10.52,10.52,0,0,0-2.44,9.57l.26.9-.93,0a188.21,188.21,0,0,0-29.14,3.8,198.5,198.5,0,0,0-20.46,5.5c-2.28.9-3.5,1.47-3.5,1.47q-2.29,1-4.56,2a132.42,132.42,0,0,0-18.07,10.38c-1.14.77-2.28,1.57-3.4,2.38a178.67,178.67,0,0,0-33.61,31.93,182.7,182.7,0,0,0-21.55,33,108.92,108.92,0,0,0-9,28.83,104.11,104.11,0,0,0,1.57,42.15A93.59,93.59,0,0,0,138.61,341a96.37,96.37,0,0,0,31.13,24.52c-.64-.45-1.27-.9-1.91-1.37a157,157,0,0,0,23.43,9.1c7.43,2.27,15,4.14,22.55,5.7-.51-.57-1-1.13-1.48-1.73s-3-5.35-3.27-5.35a15.88,15.88,0,0,1,5.78,1.52A73.44,73.44,0,0,1,227,379.94c.55.36,1.72,1.07,3.07,1.95,1.71.26,3.42.51,5.14.75-3.78-8.32-6-24-5.87-27a49.82,49.82,0,0,1,1.45-10.52c.3-1.18,3.84-9.24,3.54-9.63a26.16,26.16,0,0,1,3.93,9,120.65,120.65,0,0,1,4,22.22c.21,2.54,1.51,11.56.77,16.9,1.55.18,3.11.36,4.67.51,1.69-1.67,3.36-3.34,5-5a3,3,0,0,1,.42-1.41,6.71,6.71,0,0,1,1.61-1.43c1.42-1.12,2.37-2.72,3.61-4a4.81,4.81,0,0,1,2.91-1.68l4.65-4.67c.1,0,.16.05.26.05a7.53,7.53,0,0,0,7.42-5.05,8.51,8.51,0,0,0,3.4.69,7.37,7.37,0,0,0,6.92-4c-.39-.5-.77-1-1.13-1.5a35.42,35.42,0,0,1-4.44-8.92,31.62,31.62,0,0,1,.23-19.71,29,29,0,0,1,4.68-8.7,23.83,23.83,0,0,1,7.45-6.27A29.22,29.22,0,0,0,280.57,328a33.47,33.47,0,0,0-1.17,9.22,30.15,30.15,0,0,0,1.48,9.1,33.73,33.73,0,0,0,4,8.3,9.73,9.73,0,0,0-.07-2.9,8.54,8.54,0,0,0,3.27.76,24.13,24.13,0,0,0,10.1-1.79,27.12,27.12,0,0,0,5.71,4c-2.14,2.57-5.42,6.14-9.36,10.29a51.33,51.33,0,0,0,12.4,7,39.89,39.89,0,0,1-13.58-5.79c-2.1,2.19-4.35,4.53-6.72,6.95,5.78-2.74,6.08-1.78,10.3,2.76a52,52,0,0,0,12.63,9.42c2.76-.15,5.51-.28,8.26-.48,4.24-.32,8.48-.71,12.71-1.22s8.44-1.15,12.64-1.9,8.38-1.67,12.55-2.66c2.08-.53,4.17-1,6.23-1.64s4.14-1.19,6.23-1.76q-5.78,2.94-11.84,5.35c-4,1.59-8.16,3-12.33,4.25s-8.42,2.27-12.69,3.16c-3.56.75-7.16,1.35-10.76,1.89.84.3,1.67.58,2.47.84,4.68,1.47,9.69,2.37,14.49,1.37a41.9,41.9,0,0,0,8.38-3.12l.31-.14c10.82-4.81,32.72-11.62,42.89-3.56,0-.32-.07-.64-.12-1A76.43,76.43,0,0,0,384,366.84q1.06,2.09,2.08,4.21l1.73,4.37,1.35,4.51,1,4.35a53.7,53.7,0,0,0-6-17.73c1.09-.77,2.16-1.56,3.21-2.38-.46.29-.9.61-1.37.88,1.06-.73,2.1-1.5,3.11-2.29l.32-.27c.57-.45,1.11-.93,1.65-1.4.7-.61,1.4-1.23,2.08-1.87l.95-.92,1.18-1.17c.83-.87,1.64-1.75,2.41-2.67a74.24,74.24,0,0,0,8.94-12.95A107.24,107.24,0,0,0,417.43,312c.79-3.54,1.4-7.12,1.88-10.72a131.17,131.17,0,0,0-4.58-52.59,133.78,133.78,0,0,0-8.36-21.27A150.69,150.69,0,0,0,381.25,191.38ZM339,253.32c24.63,6.64,30.07,24.62,30.07,24.62,2.92,6.61,4.16,15.33,2.7,22.43-2,9.55-12.41,3.81-19.56,1.61a72.11,72.11,0,0,0-7.86-2.18c-8.54-1.59-17.06.92-24.75,4.52-8.93,4.18-11,6.48-16.89-3-5.8-9.27-8.44-23.4-3.19-33.55C303.94,259.18,314.34,246.69,339,253.32ZM169.3,266.62s7.34-17.3,32.55-21.25,34.2,9.58,37.7,18.61,2.16,33.73-22.1,44.81-43.36.32-49.92-9.32S165.34,273.48,169.3,266.62Zm-3.41,58.69c.4-7.5,8.79-13.14,18.74-12.61s17.68,7.05,17.28,14.54-8.8,13.14-18.74,12.61S165.48,332.8,165.89,325.31Zm102.49,8.52a89.43,89.43,0,0,1-9,.83l-2.27.06c-.77,0-1.48,0-2.34,0A9.39,9.39,0,0,1,250,333a7,7,0,0,1-1.82-1.93,7.91,7.91,0,0,1-.82-2.41c-.26-1.54-.26-2.89-1.11-4.22A4.08,4.08,0,0,1,248,326.1a19.36,19.36,0,0,1,1.06,2.07,6.36,6.36,0,0,0,1,1.68,5.18,5.18,0,0,0,1.33,1.22,7.58,7.58,0,0,0,3.63,1.05c.63,0,1.41,0,2.14,0l2.22,0c2.95-.05,5.93-.14,8.92-.15s6,0,9,.26C274.31,332.91,271.36,333.41,268.38,333.83Zm12.47-26.3c-1,.52-2.5.31-3.17,1.22-1.26,1.68-1.68,3.75-3.15,5.3a10.26,10.26,0,0,1-5.06,2.9,4.53,4.53,0,0,1-1.1.19,8.28,8.28,0,0,1-1.11.18,9.64,9.64,0,0,1-8.08-6.16,5.92,5.92,0,0,0-.93-.72,16.87,16.87,0,0,0-3.31-1.08,5.21,5.21,0,0,1-2.92-1.77c-1.25-1.74.4-4.29,2.14-5a7.61,7.61,0,0,1,2.93-.42,162.89,162.89,0,0,1,22.09,1.12c1.51.2,3.45,1,3.26,2.48A2.57,2.57,0,0,1,280.85,307.53ZM349.6,348.8c-10-.53-17.68-7-17.28-14.54s8.8-13.14,18.74-12.6,17.69,7,17.28,14.54S359.55,349.34,349.6,348.8Z"/><path class="cls-4" d="M368.34,336.2c.41-7.5-7.33-14-17.28-14.54s-18.34,5.1-18.74,12.6,7.33,14,17.28,14.54S367.94,343.69,368.34,336.2Z"/><path class="cls-4" d="M201.91,327.24c.4-7.49-7.34-14-17.28-14.54s-18.34,5.11-18.74,12.61,7.33,14,17.28,14.54S201.5,334.74,201.91,327.24Z"/><path class="cls-3" d="M279.18,303.28a162.89,162.89,0,0,0-22.09-1.12,7.61,7.61,0,0,0-2.93.42c-1.74.72-3.39,3.27-2.14,5a5.21,5.21,0,0,0,2.92,1.77,16.87,16.87,0,0,1,3.31,1.08,5.92,5.92,0,0,1,.93.72,9.64,9.64,0,0,0,8.08,6.16,8.28,8.28,0,0,0,1.11-.18,4.53,4.53,0,0,0,1.1-.19,10.26,10.26,0,0,0,5.06-2.9c1.47-1.55,1.89-3.62,3.15-5.3.67-.91,2.13-.7,3.17-1.22a2.57,2.57,0,0,0,1.59-1.77C282.63,304.24,280.69,303.48,279.18,303.28Z"/><path class="cls-3" d="M217.45,308.79C241.71,297.71,243,273,239.55,264s-12.5-22.56-37.7-18.61-32.55,21.25-32.55,21.25c-4,6.86-8.32,23.21-1.77,32.85S193.19,319.87,217.45,308.79Zm.05-51.21a9.68,9.68,0,0,1,8.26,5.68,6.66,6.66,0,0,1,.3,4.27c-.5,1.66-1.84,2.42-3.95.08-1.12-1.24-1.73-3.17-3.35-3.56a3.59,3.59,0,0,0-3.3,1.41A21.05,21.05,0,0,1,213,268.3a4.82,4.82,0,0,1-3.84.93,1.52,1.52,0,0,1-.89-.42,1.75,1.75,0,0,1-.34-.91A9.1,9.1,0,0,1,217.5,257.58Z"/><path class="cls-5" d="M208.26,268.81a1.52,1.52,0,0,0,.89.42,4.82,4.82,0,0,0,3.84-.93,21.05,21.05,0,0,0,2.47-2.84,3.59,3.59,0,0,1,3.3-1.41c1.62.39,2.23,2.32,3.35,3.56,2.11,2.34,3.45,1.58,3.95-.08a6.66,6.66,0,0,0-.3-4.27,9.68,9.68,0,0,0-8.26-5.68,9.1,9.1,0,0,0-9.58,10.32A1.75,1.75,0,0,0,208.26,268.81Z"/><path class="cls-3" d="M299.5,267.79c-5.25,10.15-2.61,24.28,3.19,33.55,5.91,9.46,8,7.16,16.89,3,7.69-3.6,16.21-6.11,24.75-4.52a72.11,72.11,0,0,1,7.86,2.18c7.15,2.2,17.59,7.94,19.56-1.61,1.46-7.1.22-15.82-2.7-22.43,0,0-5.44-18-30.07-24.62S303.94,259.18,299.5,267.79Zm12.65,5,.06-.47c.75-5.1,4.56-9.36,10.21-9.06a9.68,9.68,0,0,1,8,5.18c1.49,2.88,1.43,7.09-3.09,5.29a9.34,9.34,0,0,1-3.45-2.8,1.49,1.49,0,0,0-.91-.64,1.39,1.39,0,0,0-1,.42c-1.27,1-2.36,2.28-3.7,3.23a5.73,5.73,0,0,1-4.6,1.16,2.06,2.06,0,0,1-1.53-1.27A2.79,2.79,0,0,1,312.15,272.75Z"/><path class="cls-5" d="M313.71,275.06a5.73,5.73,0,0,0,4.6-1.16c1.34-.95,2.43-2.19,3.7-3.23a1.39,1.39,0,0,1,1-.42,1.49,1.49,0,0,1,.91.64,9.34,9.34,0,0,0,3.45,2.8c4.52,1.8,4.58-2.41,3.09-5.29a9.68,9.68,0,0,0-8-5.18c-5.65-.3-9.46,4-10.21,9.06l-.06.47a2.79,2.79,0,0,0,0,1A2.06,2.06,0,0,0,313.71,275.06Z"/><path class="cls-6" d="M320.54,390.32c3.6-.54,7.2-1.14,10.76-1.89,4.27-.89,8.51-1.95,12.69-3.16s8.3-2.66,12.33-4.25,24.52-10.58,28.37-12.55c-2.09.57-20.66,8.44-22.76,9s-4.15,1.11-6.23,1.64c-4.17,1-8.34,1.93-12.55,2.66s-8.41,1.37-12.64,1.9-8.47.9-12.71,1.22c-2.75.2-5.5.33-8.26.48A76.56,76.56,0,0,0,320.54,390.32Z"/><path class="cls-7" d="M236.6,388.31a1.57,1.57,0,0,1-1.22,1.27c2,.33,3.9.65,5.85.93q3.28-3.18,6.53-6.4c-1.56-.15-3.12-.33-4.67-.51-.28,1.93-.8,3.4-1.76,3.9-2.32,1.21-4.38-1.05-6.1-4.86-1.72-.24-3.43-.49-5.14-.75C233.08,383.84,236.92,386.63,236.6,388.31Z"/><path class="cls-6" d="M172.15,366.78c-.65-.27-1.27-.58-1.91-.85A114.19,114.19,0,0,0,190,376.7a179.72,179.72,0,0,0,24.73,8.44c4.68,1.24,9.41,2.31,14.16,3.25A62,62,0,0,1,216.81,382a31.14,31.14,0,0,1-3-3c-7.59-1.56-15.12-3.43-22.55-5.7a157,157,0,0,1-23.43-9.1c.64.47,1.27.92,1.91,1.37C170.54,366,171.33,366.39,172.15,366.78Z"/><path class="cls-8" d="M280.88,346.31a30.15,30.15,0,0,1-1.48-9.1,33.47,33.47,0,0,1,1.17-9.22,29.22,29.22,0,0,1,10.21-15.56,23.83,23.83,0,0,0-7.45,6.27,29,29,0,0,0-4.68,8.7,31.62,31.62,0,0,0-.23,19.71,35.42,35.42,0,0,0,4.44,8.92c.36.51.74,1,1.13,1.5a9.22,9.22,0,0,0,.87-2.92A33.73,33.73,0,0,1,280.88,346.31Z"/><path class="cls-8" d="M306.91,372a51.33,51.33,0,0,1-12.4-7l-1.18,1.25A39.89,39.89,0,0,0,306.91,372Z"/><path class="cls-3" d="M338.88,466.6c-3.82,10-9.38,26.33-6.07,35.81a12.73,12.73,0,0,0,.51,1.31c2.6,3.66,9.11,6.43,13.41,8.42a85.63,85.63,0,0,0,39.86,7.9c21.39-1.13,35-20.63,41.9-37,2.85-6.75,10.46-27.7,1-33.37-8.67-5.18-16.85,2.21-24.55.24-5.3-1.35-9.91-4.27-14.6-7.43a99.35,99.35,0,0,0-12.89-7.85C357.64,439.41,345.8,448.49,338.88,466.6Z"/><path class="cls-3" d="M208.37,499.59l.2,0c1.37-8.31-2.07-20-5.27-28.94a85.9,85.9,0,0,1-2.64,14,50.53,50.53,0,0,1-4.78,9.49c-.65,1-6.61,7.51-6.45,8a26.13,26.13,0,0,1-.83-9.74,120.43,120.43,0,0,1,3.34-22.33c.09-.35.2-.85.33-1.43-1.66,1.56-3.31,3.12-5,4.66a9.63,9.63,0,0,0-3.94-2.67l-1.34-.45c.14.09.26.19.4.29,1.45,1,3,2,4.77,3.07a10.73,10.73,0,0,1-6.15-.08,14.65,14.65,0,0,1-5.46-3c-3.27-2.85-6.49-6.87-6.68-11.37l-.21-.12c0-.13,0-.26.11-.39,1.15-2.45,3.19-4.35,5.19-6.17l9.7-8.88a60.19,60.19,0,0,0-12.15-6.25,16.37,16.37,0,0,0-17.24,3.53c-1.64,1.58-3.4,3.13-5.22,4.6-4.51,3.62-9.46,6.68-14.38,7.94-7.71,2-14.82-8.87-23.48-3.69-9.48,5.67-1.88,26.62,1,33.37,6.91,16.35,20.51,35.85,41.91,37a85.59,85.59,0,0,0,39.85-7.9c4.31-2,10.81-4.76,13.42-8.42a14.82,14.82,0,0,0,1.16-3.77c0-.1,0-.21,0-.31Z"/><path class="cls-9" d="M244.75,409.48a14.61,14.61,0,0,1-5.45-3,14.76,14.76,0,0,1-3.74-5,11.47,11.47,0,0,1-1.05-4.56c-1.59,1.5-3.17,3-4.78,4.49l-3.54,3.24.61.16a4.68,4.68,0,0,1,2.11.92c1.81,1.69,0,4.64-1.73,6.37-4.76,4.67,1.75,10,5,16.13q4.26-4.53,8.5-9.07c1.12-1.2,4.61-4.67,9.4-9.42A11.19,11.19,0,0,1,244.75,409.48Z"/><path class="cls-9" d="M189.91,437.85l-6.23,5.71-9.7,8.88c-2,1.82-4,3.72-5.19,6.17-.06.13-.06.26-.11.39l.21.12c0-.18,0-.35,0-.53a2,2,0,0,1,2.14.78,18.83,18.83,0,0,1,1.24,2c1.32,2.09,4.22,4.32,6.1,5.94,1.17,1,2.39,2,3.69,2.89l1.34.45a9.63,9.63,0,0,1,3.94,2.67c1.67-1.54,3.32-3.1,5-4.66,1.1-5,3.71-17.38,7.31-17.94,2.63-.41,3.84,2.5,4.23,6.78q6.31-6.25,12.5-12.64c-6.9-.45-14.18-2.67-18.7-4.14C195,439.89,192.43,438.91,189.91,437.85Z"/><path class="cls-9" d="M267.27,373.56a7,7,0,0,1-.08-4.78,39.84,39.84,0,0,0,3,3.41,24.64,24.64,0,0,0,2.94,2.53c.73.54,1.5,1,2.32,1.55a27.3,27.3,0,0,0,10.1-2.59l1.08-.53c2.37-2.42,4.62-4.76,6.72-6.95l1.18-1.25c3.94-4.15,7.22-7.72,9.36-10.29a27.12,27.12,0,0,1-5.71-4,24.13,24.13,0,0,1-10.1,1.79,8.54,8.54,0,0,1-3.27-.76,9.73,9.73,0,0,1,.07,2.9,9.22,9.22,0,0,1-.87,2.92,7.37,7.37,0,0,1-6.92,4,8.51,8.51,0,0,1-3.4-.69,7.53,7.53,0,0,1-7.42,5.05c-.1,0-.16-.05-.26-.05l-4.65,4.67C263.43,370.27,265.33,372,267.27,373.56Z"/><path class="cls-9" d="M241.23,390.51c-2,1.91-4,3.8-5.95,5.68,1.05,1.27,2,2.45,3,3.52a47.92,47.92,0,0,0,7.81,6.78c1.34.94,2.78,1.83,4.38,2.82l10.22-10.13a30,30,0,0,1-7.94-18.92,7.62,7.62,0,0,1,0-1.17c-1.67,1.68-3.34,3.35-5,5Q244.52,387.34,241.23,390.51Z"/><path class="cls-10" d="M172.22,461.39a18.83,18.83,0,0,0-1.24-2,2,2,0,0,0-2.14-.78c0,.18,0,.35,0,.53.19,4.5,3.41,8.52,6.68,11.37a14.65,14.65,0,0,0,5.46,3,10.73,10.73,0,0,0,6.15.08c-1.78-1.11-3.32-2.05-4.77-3.07-.14-.1-.26-.2-.4-.29-1.3-.92-2.52-1.88-3.69-2.89C176.44,465.71,173.54,463.48,172.22,461.39Z"/><path class="cls-10" d="M242,403.31a48.38,48.38,0,0,1-3.72-3.6c-1-1.07-2-2.25-3-3.52l-.66-.78a8.46,8.46,0,0,0-.11,1.51,11.47,11.47,0,0,0,1.05,4.56,14.76,14.76,0,0,0,3.74,5,14.61,14.61,0,0,0,5.45,3,11.19,11.19,0,0,0,5.33.26c.28-.06.55-.1.82-.18l-.39-.25c-1.6-1-3-1.88-4.38-2.82A48.38,48.38,0,0,1,242,403.31Z"/><path class="cls-10" d="M270.17,372.19a39.84,39.84,0,0,1-3-3.41,7,7,0,0,0,.08,4.78,12.76,12.76,0,0,0,3.12,2,12.25,12.25,0,0,0,5,.67c-.82-.5-1.59-1-2.32-1.55A24.64,24.64,0,0,1,270.17,372.19Z"/><path class="cls-10" d="M241.33,387.5c1-.5,1.48-2,1.76-3.9.74-5.34-.56-14.36-.77-16.9a120.65,120.65,0,0,0-4-22.22,26.16,26.16,0,0,0-3.93-9c.3.39-3.24,8.45-3.54,9.63a49.82,49.82,0,0,0-1.45,10.52c-.1,3,2.09,18.64,5.87,27C237,386.45,239,388.71,241.33,387.5Z"/><path class="cls-10" d="M216.81,382a62,62,0,0,0,12.08,6.43c2.66,1,5.08,1.62,6.49,1.19a1.57,1.57,0,0,0,1.22-1.27c.32-1.68-3.52-4.47-6.51-6.42-1.35-.88-2.52-1.59-3.07-1.95a73.44,73.44,0,0,0-12.18-6.51,15.88,15.88,0,0,0-5.78-1.52c.3,0,2.82,4.76,3.27,5.35s1,1.16,1.48,1.73A31.14,31.14,0,0,0,216.81,382Z"/><path class="cls-10" d="M199.58,450.74c-3.6.56-6.21,12.95-7.31,17.94-.13.58-.24,1.08-.33,1.43a120.43,120.43,0,0,0-3.34,22.33,26.13,26.13,0,0,0,.83,9.74c-.16-.46,5.8-6.95,6.45-8a50.53,50.53,0,0,0,4.78-9.49,85.9,85.9,0,0,0,2.64-14,67.37,67.37,0,0,0,.51-13.16C203.42,453.24,202.21,450.33,199.58,450.74Z"/><path class="cls-10" d="M517.1,455.54c-3.28-2.38-16.08,6.58-19.05,8.39A120,120,0,0,0,480,477.45a26.36,26.36,0,0,0-6.27,7.5c.22-.43,9-.86,10.2-1.12A50.35,50.35,0,0,0,494,480.44C497.88,478.65,523.86,460.43,517.1,455.54Z"/><path class="cls-10" d="M526.41,486.75c-1.24-2.8-13-1.81-15.63-1.75a90.45,90.45,0,0,0-17,2,20,20,0,0,0-6.94,2.53c.31-.21,6.22,2.85,7.09,3.13a37.8,37.8,0,0,0,7.87,1.61C505.08,494.56,529,492.5,526.41,486.75Z"/><path class="cls-10" d="M73,477.45A120,120,0,0,0,55,463.93c-3-1.81-15.77-10.77-19.05-8.39-6.76,4.89,19.22,23.11,23.14,24.9a50.35,50.35,0,0,0,10.07,3.39c1.18.26,10,.69,10.2,1.12A26.36,26.36,0,0,0,73,477.45Z"/><path class="cls-10" d="M42.22,485c-2.62-.06-14.39-1.05-15.63,1.75-2.57,5.75,21.33,7.81,24.57,7.49A37.8,37.8,0,0,0,59,492.63c.87-.28,6.78-3.34,7.09-3.13A20,20,0,0,0,59.18,487,90.45,90.45,0,0,0,42.22,485Z"/><path class="cls-10" d="M243.24,463.73a34.37,34.37,0,0,0-4.55-5.71c-2.08-2.12-19.93-14.62-21.5-9.11-.77,2.68,8,8.85,9.88,10.34a83.52,83.52,0,0,0,13,8.51,18.15,18.15,0,0,0,6.32,2.29C246,470,243.69,464.43,243.24,463.73Z"/><path class="cls-8" d="M268.25,332c-3,0-6,.1-8.92.15l-2.22,0c-.73,0-1.51,0-2.14,0a7.58,7.58,0,0,1-3.63-1.05,5.18,5.18,0,0,1-1.33-1.22,6.36,6.36,0,0,1-1-1.68A19.36,19.36,0,0,0,248,326.1a4.08,4.08,0,0,0-1.74-1.63c.85,1.33.85,2.68,1.11,4.22a7.91,7.91,0,0,0,.82,2.41A7,7,0,0,0,250,333a9.39,9.39,0,0,0,4.81,1.65c.86.06,1.57,0,2.34,0l2.27-.06a89.43,89.43,0,0,0,9-.83c3-.42,5.93-.92,8.88-1.61C274.24,332,271.24,331.94,268.25,332Z"/><path class="cls-11" d="M275.06,456.29a3.87,3.87,0,0,0-2.62-1.21,3.49,3.49,0,0,0-1.6.27,3.93,3.93,0,0,0-1.33.91,5,5,0,0,0-1.33,2.74,5.82,5.82,0,0,0,.3,2.9,6.1,6.1,0,0,0,1.6,2.31,7.64,7.64,0,0,0,4.66,1.89,16.66,16.66,0,0,1-3.14-3.24,5.56,5.56,0,0,1-.79-1.71,4.36,4.36,0,0,1-.07-1.76,2.54,2.54,0,0,1,1.77-2.28,3,3,0,0,1,1.78.19,2.29,2.29,0,0,1,1.39,1.52,2.11,2.11,0,0,0,.08-1.3A3,3,0,0,0,275.06,456.29Z"/><path class="cls-12" d="M170.24,365.93c.64.27,1.26.58,1.91.85-.82-.39-1.61-.81-2.41-1.22A96.37,96.37,0,0,1,138.61,341a93.59,93.59,0,0,1-18.78-37.65,104.11,104.11,0,0,1-1.57-42.15,111.05,111.05,0,0,1,14.88-39.68A101.26,101.26,0,0,0,123,240.4a105.78,105.78,0,0,0-4.72,14.67c-.48,2-.92,3.95-1.29,5.94a104.06,104.06,0,0,0,1.2,42.79c.75,3,1.66,5.92,2.68,8.82.06.14.1.29.15.44.16.42.29.85.45,1.27A91.93,91.93,0,0,0,136.09,340c.5.62,1,1.26,1.5,1.87a91.9,91.9,0,0,0,15.83,14.51c2,1.41,4.05,2.72,6.14,4A94,94,0,0,0,170.24,365.93Z"/><path class="cls-12" d="M261.57,142l.93,0-.26-.9a10.52,10.52,0,0,1,2.44-9.57,14.71,14.71,0,0,1,5-3.87,13.61,13.61,0,0,1,3.88-1.18,17.86,17.86,0,0,1,7.32.64,23.83,23.83,0,0,1,3,1.06c3,1.27,5.3,3.91,8.29,5.94l.55.37.19.12.88.55.2-1.24a8.47,8.47,0,0,1,6.55-6.82,8.58,8.58,0,0,1,5,.44,9.73,9.73,0,0,1,4,3.13c2.15,2.77,3.22,6.3,4.11,9.82a29.21,29.21,0,0,0,1.73,5.38,7.93,7.93,0,0,0,1.58,2.11,5,5,0,0,0,.41.38,8.75,8.75,0,0,0,2.31,1.44c6.88,2.74,13.63,5.52,20.2,8.82,1.36.67,2.69,1.38,4,2.11a112.26,112.26,0,0,1,14.65,9.51,105.91,105.91,0,0,0-18.32-12.3c-6.48-3.5-13.32-6.41-20-9.25a7.05,7.05,0,0,1-3.61-3.42,26.66,26.66,0,0,1-1.52-5.13c-.88-3.58-1.95-7.3-4.32-10.4a11.31,11.31,0,0,0-4.57-3.65,10.27,10.27,0,0,0-5.87-.56,10.07,10.07,0,0,0-7.58,6.9c-2.54-1.85-4.81-4.43-8.09-5.81a21.24,21.24,0,0,0-11.2-1.76,16,16,0,0,0-9.84,5.67,12.32,12.32,0,0,0-2.86,10.1,180.18,180.18,0,0,0-28.39,4.28A172,172,0,0,0,204.16,154c2.58-1,5.19-1.87,7.81-2.73a198.5,198.5,0,0,1,20.46-5.5A188.21,188.21,0,0,1,261.57,142Z"/><path class="cls-12" d="M406.67,341.51a74.24,74.24,0,0,1-8.94,12.95c-.77.92-1.58,1.8-2.41,2.67-.38.4-.78.78-1.18,1.17l-.95.92c-.68.64-1.37,1.27-2.08,1.87-.54.47-1.08,1-1.65,1.4l-.32.27c-1,.79-2.05,1.56-3.11,2.29.47-.27.91-.59,1.37-.88a57.73,57.73,0,0,0,11-9.14,74.55,74.55,0,0,0,9.46-12.87,103.94,103.94,0,0,0,11.29-29.8,124.75,124.75,0,0,0,2.61-31.77,97.63,97.63,0,0,0-6.37-31.1A97.44,97.44,0,0,1,419,264.9a115.37,115.37,0,0,1,1.42,15.73,133,133,0,0,1-1.09,20.64c-.48,3.6-1.09,7.18-1.88,10.72A107.24,107.24,0,0,1,406.67,341.51Z"/><path class="cls-12" d="M390,412.74c-.09,3.05-.21,6.1-.3,9.16l-.23,9.36c0,3.12,0,6.25.19,9.36.12-1.55.22-3.11.3-4.66l.06-.82.3-3.84.71-9.32q.46-5.89.7-11.81A22.21,22.21,0,0,1,390,412.74Z"/><path class="cls-12" d="M387.85,375.42l-1.73-4.37q-1-2.13-2.08-4.21A76.43,76.43,0,0,1,389,384.75c.05.32.08.64.12,1a12.57,12.57,0,0,1,1.63,1.55c-.14-.91-.27-1.83-.45-2.74l-.05-.24-1-4.35Z"/><path class="cls-3" d="M389.08,385.71c-10.17-8.06-32.07-1.25-42.89,3.56l-.31.14a41.9,41.9,0,0,1-8.38,3.12c-4.8,1-9.81.1-14.49-1.37-.8-.26-1.63-.54-2.47-.84a76.56,76.56,0,0,1-11-5,52,52,0,0,1-12.63-9.42c-4.22-4.54-4.52-5.5-10.3-2.76l-1.08.53a27.3,27.3,0,0,1-10.1,2.59,12.25,12.25,0,0,1-5-.67,12.76,12.76,0,0,1-3.12-2c-1.94-1.58-3.84-3.29-5.93-3a4.81,4.81,0,0,0-2.91,1.68c-1.24,1.32-2.19,2.92-3.61,4a6.71,6.71,0,0,0-1.61,1.43,3,3,0,0,0-.42,1.41,7.62,7.62,0,0,0,0,1.17,30,30,0,0,0,7.94,18.92,51.65,51.65,0,0,0,9.61,8.13c12,8.15,24.48,15.83,38.13,20.95,16.41,6.14,38.15,9.59,54.57,1.55,8.69-4.25,20.62-8.87,27-17.07a22.21,22.21,0,0,0,1.73-2.57,19.76,19.76,0,0,0,2.63-8.38c.55-6.78-.92-11.43-3.68-14.53A12.57,12.57,0,0,0,389.08,385.71Z"/><path class="cls-12" d="M168.18,367.32l.52-.54-.17.14a62.65,62.65,0,0,0-5.45,5.24l.76,0Q165.91,369.67,168.18,367.32Z"/><path class="cls-12" d="M149.72,444.4c-.17-3.48-.41-6.94-.49-10.41s-.21-6.92-.14-10.38c0-1.9.09-3.81.17-5.71v0a19.66,19.66,0,0,1-1.42-1.7c-.09,2.48-.13,5-.07,7.44s.21,5,.4,7.52c.07,1,.13,1.94.22,2.91C148.75,437.51,149.16,441,149.72,444.4Z"/><path class="cls-3" d="M149.25,417.88v0c6,6.39,15.09,7.71,22.58,11.37,6,3,11.93,6,18.07,8.58,2.52,1.06,5.07,2,7.7,2.89,4.52,1.47,11.8,3.69,18.7,4.14,7.33.47,14.23-1.07,16.9-7.72,1.27-3.16.46-6.13-1-8.93-3.25-6.13-9.76-11.46-5-16.13,1.77-1.73,3.54-4.68,1.73-6.37a4.68,4.68,0,0,0-2.11-.92l-.61-.16C215.5,401.94,208,399.93,199,393.43c-5.73-4.16-9.34-11.18-14.91-15.37-.44-.33-.89-.64-1.36-.93-5.05-3.17-12.32-4.76-18.7-4.94h-.2l-.76,0c-1,0-2,0-2.88.08a20.28,20.28,0,0,0-5.46,1,17,17,0,0,0-9.47,9.59c-4.05,9.68-4,24.52,2.56,33.32A19.66,19.66,0,0,0,149.25,417.88Z"/><path class="cls-12" d="M301.41,503.57c-10.37.23-20.74.41-31.12.43s-20.74.15-31.07-.56a296.25,296.25,0,0,1-30.65-3.82l-.2,0,.2.05c1.74.42,3.5.79,5.25,1.17a224.61,224.61,0,0,0,25.3,3.89c5.18.5,10.39.79,15.59.85s10.39.14,15.59.15c10.39-.05,20.78-.33,31.16-.77l15.56-.81c5.18-.35,10.36-.66,15.54-1.08-2.79,0-5.58,0-8.36.1l-7.22.11Z"/></svg>