<?xml version="1.0" encoding="utf-8"?>
<!-- Generator: Adobe Illustrator 24.2.0, SVG Export Plug-In . SVG Version: 6.00 Build 0)  -->
<svg version="1.1" id="lapin" xmlns="http://www.w3.org/2000/svg" xmlns:xlink="http://www.w3.org/1999/xlink" x="0px" y="0px"
	 viewBox="0 0 553 574" style="enable-background:new 0 0 553 574;" xml:space="preserve">
<style type="text/css">
	.st0{fill:#C3864B;}
	.st1{fill:#EFEAE0;}
	.st2{fill:#F4DBCB;}
	.st3{fill:#2E2821;}
	.st4{fill:#FAF3F7;}
	.st5{fill:#AF8E5F;}
	.st6{fill:#F08D1A;}
	.st7{fill:#7C9673;}
	.st8{fill:#C38649;}
	.st9{fill:#FFFFFF;}
	.st10{fill:#8D6139;}
	.st11{fill:none;}
</style>
<g>
	<path class="st0" d="M262.1,416.6c-3.7,0.7-7.7,1.4-11.1,3.2c-4.2,2.3-3.6,3.8-3.5,8.3c0.2,8.2,0.6,16.7-1.9,24.6
		c-3.2,9.7-7.1,19.2-7.7,29.6c-0.8,13.2,1.2,26.8,7.3,38.6c4.6,9,11.3,16.8,17.9,24.4c1.5,1.7,3,3.4,5,4.4c1.8,0.9,3.8,1.1,5.8,1.2
		c6,0.5,12.1,1.1,18.1,1.6c2.9,0.3,5.8,0.5,8.7,0.1c4.3-0.6,8.3-2.8,11.8-5.5c11-8.5,16.9-21.8,21.7-34.8c2.2-6.1,4.3-12.4,5.2-18.9
		c2.3-18.4-5.7-36.6-15.5-52.4c-3.2-5.2-6.7-10.4-8.7-16.3c-0.9-2.6-1.5-5.4-3.3-7.5c-2.5-3-6.6-3.9-10.4-4.3
		C288.4,411.6,275.1,414.1,262.1,416.6z"/>
	<path class="st1" d="M256.6,469c-4.9,11.1-5.1,23.6-5,35.8c0.1,12.4,1,26,9.1,35.2c1.5,1.7,3.3,3.3,5.4,4.1c1.8,0.7,3.7,1,5.7,1.2
		c10.3,1.2,21.5,2.1,30.5-3.2c9.1-5.3,13.9-15.8,17.3-25.8c2.9-8.4,5.2-17.7,2.4-26.2c-1.7-5-5-9.3-8.3-13.4
		c-6.4-8.1-12.9-16.2-19.3-24.4c-5-6.3-12.6-12.2-20.1-6.5C267,451.3,260.2,460.7,256.6,469z"/>
	<g>
		<g>
			<g>
				<path class="st0" d="M369.5,225.3c17.8-29.3,30.6-48.8,34.9-80.5c0.8-5.9,1.5-11.9,0.8-17.9c-0.7-5.9-3-11.9-7.3-16
					c-3.1-2.9-7-4.8-10.9-6.5c-2.1-0.9-4.2-1.9-6.4-2.1c-3.2-0.3-6.3,0.8-9.2,2.1c-10.6,4.6-20.5,11.2-27.5,20.4
					c-5.2,6.9-8.6,14.9-11.4,23.1c-3.9,11.3-6.6,22.9-8.8,34.6c-3.8,20.7-5.8,41.7-9,62.5c-0.7,4.4-0.9,9.4-3,13.4
					c-0.3,0.6-0.8,1.2-1.4,1.9c-1.7,0-3.4-0.1-5.1-0.1c-8.9-3.6-18.5-5.3-28.1-5.1c-8.6,0.2-17.1,2-25.1,5.2c-1.2,0.5-3.1,1.2-5.1,2
					c-0.4,0-0.7,0.1-1.1,0.1c-7-18.5-12.2-37.8-15.4-57.5c-2.1-12.9-3.3-26-5.8-38.9c-2.6-12.8-6.6-25.6-13.8-36.1
					c-7.1-10.5-17.7-18.8-29.5-20.4c-3.8-0.5-7.8-0.4-11.3,1.2c-4.3,1.8-7.8,5.5-10.9,9.2c-3.3,3.9-6.5,8.2-8.1,13.3
					c-1.5,4.8-1.7,10-1.4,15c1,20.7,7.7,40.7,16.9,58.8c9.2,18.1,20.9,34.5,32.9,50.6c3.9,5.3,7.9,10.6,10.8,16.6
					c1.1,2.3,1.9,4.6,2.7,7c-2.3,27-14.8,52.7-18.2,79.8c-0.4,3.3-0.7,6.7-0.6,10c3.4,0.7,6.8,1.4,10.2,2c0.1-0.2,0.3-0.3,0.5-0.4
					c0.5-0.1,1,0.2,1.1,0.6c0.1,0.4,0,0.8-0.3,1.1c-0.3,0.4-0.8,0.5-1.3,0.5c-0.1,0-0.3,0-0.4,0c-3.3-0.6-6.6-1.3-9.8-1.9
					c0.1,1.8,0.3,3.5,0.6,5.2c0.3,1.6,0.7,3.2,1.2,4.8c2.4-0.4,4.9-0.7,7.3-1.1c0.5-0.1,1,0.3,1.1,0.8c0.1,0.5-0.3,1-0.8,1.1
					c-2.3,0.4-4.6,0.7-6.9,1c0.9,2.5,2,4.8,3.3,7.1c0.4-0.3,0.8-0.6,1.2-0.9c0.4-0.3,1-0.2,1.3,0.2c0.3,0.4,0.2,1-0.2,1.3
					c-0.4,0.3-0.9,0.6-1.3,1c0.7,1.1,1.4,2.2,2.2,3.3c10.3,14.1,28.2,21.6,45.4,25.4c0.4,0.1,0.9,0.2,1.3,0.3
					c19.4,4,45.3,3.2,64.4-2.4c0.3-0.1,0.5-0.2,0.8-0.2c17-5,35-13.4,44.5-28.4c0.6-0.9,1.1-1.9,1.7-2.9c-1.4-0.8-2.7-1.7-4.1-2.6
					c-0.4-0.3-0.6-0.9-0.3-1.3c0.3-0.4,0.9-0.6,1.3-0.3c1.3,0.8,2.6,1.7,3.9,2.5c1.3-2.6,2.3-5.3,3.1-8c-1.9-0.2-3.7-0.3-5.6-0.5
					c-0.5,0-0.9-0.5-0.8-1c0-0.5,0.5-0.9,1-0.8c2,0.2,3.9,0.3,5.9,0.5c0.4-1.5,0.6-3.1,0.8-4.7c0.2-1.6,0.2-3.3,0.2-4.9
					c-2.7,0.7-5.5,1.5-8.2,2.2c-0.2,0-0.3,0.1-0.5,0.1c-0.4,0-0.9-0.1-1.2-0.4c-0.3-0.3-0.4-0.7-0.4-1.1c0.1-0.5,0.6-0.8,1.1-0.7
					c0.2,0,0.4,0.2,0.5,0.3c2.9-0.7,5.7-1.5,8.6-2.3c-0.2-3.4-0.7-6.9-1.3-10.3c-6.2-31.7-34.2-68.9-14.3-100.4
					C356,246.6,364.4,233.7,369.5,225.3z M206.7,254.5c-7.2-11.9-14.3-23.7-21.5-35.6c-4.8-8-9.7-16-12.5-25
					c-2.8-8.9-3.4-18.9,0.3-27.5c0.6-1.5,1.5-3,2.7-4c2.3-1.9,5.7-1.6,8.5-0.5c8.7,3.2,14,12.2,17.9,20.8
					c11.6,25.6,17.1,54,15.9,82.2l-1.5,5.3C214.8,264.5,209.7,259.5,206.7,254.5z M218.4,387.1c-0.2,0.6-0.6,1.1-1.1,1.5
					c-1.5,1.1-4.1,0.6-5.1-0.9c-1-1.5-0.5-3.4,0.8-4.7l-0.9,0.9c0.6-1.6,3.2-2.2,4.8-1.2C218.6,383.6,219,385.5,218.4,387.1z
					 M218.6,373.1c-0.2,0.6-0.6,1.1-1.1,1.5c-1.5,1.1-4.1,0.6-5.1-0.9c-1-1.5-0.5-3.4,0.8-4.7l-0.9,0.9c0.6-1.6,3.2-2.2,4.8-1.2
					C218.7,369.6,219.2,371.6,218.6,373.1z M229.6,383.2c-0.2,0.6-0.6,1.1-1.1,1.5c-1.5,1.1-4.1,0.6-5.1-0.9c-1-1.5-0.5-3.4,0.8-4.7
					l-0.9,0.9c0.6-1.6,3.2-2.2,4.8-1.2C229.8,379.7,230.2,381.6,229.6,383.2z M247.4,353.6c-0.7,0.1-1.4-0.4-1.5-1.2
					c-0.6-4.2-3.5-8.2-7.4-10c-3.9-1.8-8.7-1.6-12.4,0.7c-3.7,2.2-6.1,6.4-6.2,10.7c0,0.4-0.2,0.9-0.6,1.1c-0.2,0.1-0.5,0.2-0.7,0.2
					c-0.2,0-0.4,0-0.5-0.1c-0.5-0.2-0.9-0.6-1.1-1.1c-0.1-0.2-0.1-0.3-0.1-0.5c-0.1,0-0.3,0.1-0.4,0.1c-0.2,0-0.4,0-0.6-0.2
					l-6.1-3.2c-0.7-0.3-0.9-1.2-0.6-1.8c0.3-0.7,1.2-0.9,1.8-0.6l6.1,3.2c0.2,0.1,0.3,0.2,0.4,0.3c0.5-2.7,1.8-5.2,3.5-7.3
					c-0.1,0-0.2,0-0.3,0c-0.4,0-0.8-0.2-1.1-0.5l-4.2-5.5c-0.5-0.6-0.4-1.5,0.2-1.9c0.6-0.5,1.5-0.4,1.9,0.2l4.2,5.5
					c0.2,0.3,0.3,0.7,0.3,1c0.8-0.8,1.7-1.5,2.7-2.1c0.9-0.5,1.8-1,2.8-1.3c0-0.1-0.1-0.2-0.1-0.3l-0.5-4.8
					c-0.1-0.8,0.5-1.4,1.2-1.5c0.7-0.1,1.4,0.5,1.5,1.2l0.5,4.7c3.2-0.6,6.6-0.2,9.6,1.2c4.8,2.2,8.2,6.9,8.9,12.1
					C248.7,352.8,248.2,353.5,247.4,353.6z M266.2,300.2c0,0.1,0,0.3-0.1,0.4c-0.1,0.1-0.2,0.1-0.4,0.2c-0.6,0.2-1.2,0.3-1.8,0.3
					c0.3-0.3,0.6-0.5,0.9-0.8l-0.8,0.3c0-1.5,0-3,0-4.5c0-0.1,0-0.2,0.3-0.3c0.6-0.1,1.2-0.1,1.8-0.2
					C266.2,297.1,266.2,298.7,266.2,300.2z M269.1,289.5c-0.2,0.7-1.1,1-1.8,1.2c-0.2,0.1-0.4,0.1-0.6,0c-0.1-0.1-0.1-0.3-0.2-0.4
					c-0.1-0.7-0.2-1.5-0.2-2.2l-0.1,0.9c0-1.6-0.1-3.1-0.1-4.7c1,0,2-0.1,3.1-0.3c0,1.6,0,3.2,0,4.8
					C269.2,289.1,269.2,289.3,269.1,289.5z M275.5,305c-0.9,0-1.7,0-2.6,0.1c-0.1,0-0.2,0-0.3-0.1c0,0,0,0.1,0,0.1V305c0,0,0,0,0,0
					c-0.1-0.1-0.1-0.2,0-0.2l0,0.3c0,0,0,0,0,0c0.4-1.2,0.5-2.5,0.3-3.8c0.9,0.1,1.8-0.1,2.5-0.4C275.7,302.2,275.7,303.6,275.5,305
					z M275.5,296.5c0,0.1,0,0.2-0.1,0.3c-0.1,0.1-0.2,0.1-0.4,0.1c-0.8,0-1.6,0-2.4,0l0.6-0.7c0.3-1,0.4-2.1,0.3-3.2
					c0.7,0.1,1.4,0.1,2.1,0.2C275.6,294.2,275.6,295.3,275.5,296.5z M278.3,286.1c-0.8-0.6-0.6-2.1-0.6-2.9c0-0.6-0.2-1.8,0.3-2.2
					c0.2-0.2,2.6-0.7,2.6-0.8C280.7,281.2,281.5,288.4,278.3,286.1z M283,308.9c-0.9,0-1.7,0-2.6,0.1c-0.1,0-0.2,0-0.3-0.1
					c0,0,0,0.1,0,0.1v-0.1c0,0,0,0,0,0c-0.1-0.1-0.1-0.2,0-0.2l0,0.3c0,0,0,0,0,0c0.4-1.2,0.5-2.5,0.3-3.8c0.9,0.1,1.8-0.1,2.5-0.4
					C283.2,306.1,283.2,307.5,283,308.9z M283.1,296.2c0,0.1,0,0.2-0.1,0.3c-0.1,0.1-0.2,0.1-0.4,0.1c-0.8,0-1.6,0-2.4,0l0.6-0.7
					c0.3-1,0.4-2.1,0.3-3.1c0.7,0.1,1.4,0.1,2,0.1C283.3,294,283.2,295.1,283.1,296.2z M287.1,289.7c-0.1-0.4,0.8-4.9,0.8-4.9
					c0.8-0.2,1.8-0.3,2.2,0.3c0.1,0.2,0.2,0.4,0.2,0.7c0.1,1.3,0.2,2.6,0.2,4C290.5,290.9,287.5,291,287.1,289.7z M290.9,298
					c-0.9,0-1.7,0-2.6,0.1c-0.1,0-0.2,0-0.3-0.1c0,0,0,0.1,0,0.1V298c0,0,0,0,0,0c-0.1-0.1-0.1-0.2,0-0.2v0.2c0,0,0,0,0,0
					c0.3-1.2,0.5-2.5,0.3-3.7c0.9,0.1,1.7-0.1,2.5-0.4C291.1,295.3,291.1,296.6,290.9,298z M340.9,379.8c-0.9,1.5-3.4,2.3-5,1.3
					c-0.6-0.4-1-0.9-1.2-1.5c-0.7-1.5-0.4-3.5,1.2-4.6c1.5-1,4.2-0.6,4.9,0.9l-1-0.8C341.1,376.4,341.7,378.3,340.9,379.8z
					 M352.1,379.1l-1-0.8c1.4,1.2,2,3.1,1.2,4.6c-0.9,1.5-3.4,2.3-5,1.3c-0.6-0.4-1-0.9-1.2-1.5c-0.7-1.5-0.4-3.5,1.2-4.6
					C348.7,377.2,351.4,377.6,352.1,379.1z M351,365.2l-1-0.8c1.4,1.2,2,3.1,1.2,4.6c-0.9,1.5-3.4,2.3-5,1.3c-0.6-0.4-1-0.9-1.2-1.5
					c-0.7-1.5-0.4-3.5,1.2-4.6C347.6,363.2,350.3,363.6,351,365.2z M346.5,344.7c0.6-0.4,1.5-0.2,1.9,0.5c0.4,0.6,0.2,1.5-0.5,1.9
					l-5.8,3.6c-0.2,0.1-0.5,0.2-0.7,0.2c-0.1,0-0.2-0.1-0.3-0.1c0,0.2,0,0.3,0,0.5c-0.2,0.5-0.5,0.9-1,1.2c-0.4,0.2-0.9,0.2-1.3,0
					c-0.4-0.2-0.7-0.6-0.7-1.1c-0.4-4.3-3.2-8.3-7-10.3c-3.8-2-8.7-1.9-12.4,0.2s-6.3,6.2-6.7,10.5c-0.1,0.7-0.7,1.3-1.4,1.3
					c0,0-0.1,0-0.1,0c-0.8-0.1-1.3-0.7-1.3-1.5c0.4-5.2,3.5-10.1,8.1-12.7c2.9-1.6,6.2-2.2,9.5-1.9l0.1-4.7c0-0.8,0.7-1.3,1.4-1.3
					c0.8,0,1.3,0.7,1.3,1.4l-0.1,4.8c0,0.1,0,0.2-0.1,0.3c1,0.3,1.9,0.6,2.9,1.1c1,0.5,1.9,1.2,2.8,1.9c-0.1-0.3,0-0.7,0.2-1
					l3.8-5.7c0.4-0.6,1.3-0.8,1.9-0.4c0.6,0.4,0.8,1.3,0.4,1.9l-3.8,5.7c-0.3,0.4-0.7,0.6-1.1,0.6c-0.1,0-0.1,0-0.2,0
					c1.9,2,3.3,4.4,4,7.1c0.1-0.1,0.2-0.2,0.4-0.3L346.5,344.7z M338.3,272.1c-0.4-8.1-1.5-22.3-0.2-31.7
					c-0.1-27.3,6.1-54.8,22.6-76.2c3.1-4,7.2-8.1,12.3-8.2c5.9-0.1,10.7,5.6,11.6,11.5c0.9,5.9-1.2,11.8-3.6,17.2
					c-9.4,21.3-23.6,40.1-34.8,60.6C341.7,253.6,337.6,262.7,338.3,272.1z"/>
				<path class="st2" d="M218,264.9c1.2-28.2-4.3-56.6-15.9-82.2c-3.9-8.6-9.2-17.6-17.9-20.8c-2.8-1-6.1-1.3-8.5,0.5
					c-1.3,1-2.1,2.5-2.7,4c-3.7,8.6-3.1,18.6-0.3,27.5c2.8,8.9,7.7,17,12.5,25c7.2,11.9,14.3,23.7,21.5,35.6c3,5,8.1,10.1,9.8,15.7
					L218,264.9z"/>
				<path class="st2" d="M384.6,167.5c-0.9-5.9-5.7-11.6-11.6-11.5c-5.1,0.1-9.2,4.2-12.3,8.2c-16.6,21.4-22.8,48.8-22.6,76.2
					c-1.4,9.4-0.2,23.6,0.2,31.7c-0.7-9.4,3.4-18.5,8-26.8c11.1-20.5,25.4-39.3,34.8-60.6C383.4,179.3,385.5,173.4,384.6,167.5z"/>
				<path class="st1" d="M266.1,284.3c0.1,1.6,0.1,3.1,0.1,4.7l0.1-0.9c0.1,0.7,0.1,1.5,0.2,2.2c0,0.2,0,0.3,0.2,0.4
					c0.2,0.1,0.4,0.1,0.6,0c0.7-0.2,1.6-0.5,1.8-1.2c0.1-0.2,0.1-0.5,0.1-0.7c0-1.6,0-3.2,0-4.8
					C268.2,284.2,267.1,284.3,266.1,284.3z"/>
				<path class="st1" d="M264.1,296.1c0,1.5,0,3,0,4.5l0.8-0.3c-0.3,0.3-0.6,0.5-0.9,0.8c0.6-0.1,1.2-0.2,1.8-0.3
					c0.1,0,0.3-0.1,0.4-0.2c0.1-0.1,0.1-0.3,0.1-0.4c0-1.5,0-3.1,0-4.6c-0.6,0.1-1.2,0.1-1.8,0.2C264.1,295.9,264.1,296,264.1,296.1
					z"/>
				<path class="st1" d="M280.5,280.2c0,0.1-2.4,0.6-2.6,0.8c-0.5,0.5-0.3,1.6-0.3,2.2c0,0.8-0.2,2.3,0.6,2.9
					C281.5,288.4,280.7,281.2,280.5,280.2z"/>
				<path class="st1" d="M290.5,289.8c0-1.3-0.1-2.6-0.2-4c0-0.2,0-0.5-0.2-0.7c-0.4-0.6-1.4-0.5-2.2-0.3c0,0-0.9,4.5-0.8,4.9
					C287.5,291,290.5,290.9,290.5,289.8z"/>
				<path class="st1" d="M280.9,295.9l-0.6,0.7c0.8,0,1.6,0,2.4,0c0.1,0,0.3,0,0.4-0.1c0.1-0.1,0.1-0.2,0.1-0.3
					c0.1-1.1,0.1-2.2,0.2-3.3c-0.7,0-1.4-0.1-2-0.1C281.3,293.8,281.2,294.8,280.9,295.9z"/>
				<path class="st1" d="M273.2,296.1l-0.6,0.7c0.8,0,1.6,0,2.4,0c0.1,0,0.3,0,0.4-0.1c0.1-0.1,0.1-0.2,0.1-0.3
					c0.1-1.1,0.1-2.2,0.2-3.4c-0.7-0.1-1.4-0.1-2.1-0.2C273.6,294,273.5,295.1,273.2,296.1z"/>
				<path class="st1" d="M272.5,305C272.5,305,272.5,305,272.5,305l0-0.2C272.4,304.8,272.4,304.9,272.5,305z"/>
				<path class="st1" d="M272.5,305.1C272.6,305.1,272.6,305,272.5,305.1C272.6,305,272.5,305,272.5,305.1L272.5,305.1z"/>
				<path class="st1" d="M272.9,301.2c0.1,1.3,0,2.5-0.3,3.8c0.1,0,0.2,0.1,0.3,0.1c0.9,0,1.7,0,2.6-0.1c0.2-1.4,0.2-2.8-0.1-4.2
					C274.7,301.2,273.7,301.3,272.9,301.2z"/>
				<path class="st1" d="M280,308.9C280.1,308.9,280.1,308.9,280,308.9l0-0.2C280,308.7,279.9,308.9,280,308.9z"/>
				<path class="st1" d="M280.1,309C280.1,309,280.1,309,280.1,309C280.1,308.9,280.1,308.9,280.1,309L280.1,309z"/>
				<path class="st1" d="M280.4,305.1c0.1,1.3,0,2.5-0.3,3.8c0.1,0,0.2,0.1,0.3,0.1c0.9,0,1.7,0,2.6-0.1c0.2-1.4,0.2-2.8-0.1-4.2
					C282.2,305.1,281.3,305.2,280.4,305.1z"/>
				<path class="st1" d="M288.3,294.3c0.1,1.2,0,2.5-0.3,3.7c0.1,0,0.2,0.1,0.3,0.1c0.9,0,1.7,0,2.6-0.1c0.2-1.4,0.2-2.7-0.1-4.1
					C290.1,294.2,289.2,294.4,288.3,294.3z"/>
				<path class="st1" d="M288,298C288,298,288,298,288,298l0-0.2C287.9,297.8,287.9,297.9,288,298z"/>
				<path class="st1" d="M288,298.1C288,298.1,288,298,288,298.1C288,298,288,298,288,298.1L288,298.1z"/>
				<path class="st1" d="M271.7,404.8c0-1.5-0.1-3.1-0.1-4.6l-0.1-0.9c-0.6,0.1-1.1,0.2-1.7,0.2c-0.4,0-0.7,0-1.1-0.1
					c-0.6-0.1-1.1-0.6-1-1.3c0.1-0.6,0.7-1.1,1.3-1c2.6,0.3,5.4-1,6.8-3.3c-0.4-0.8-0.8-1.5-0.9-2.4c-0.9-4.1-0.2-9.2,0.5-14.1
					c0.2-1.8,0.4-3.4,0.6-4.9c-0.1,0-0.1,0-0.2,0c-2.6,0-4.9-1.1-7.2-2.1c-1.7-0.8-3.4-1.5-5.1-1.8c0.1,0.1,0.1,0.2,0.2,0.2
					c0.4,0.5,0.4,1.2-0.1,1.6c-0.5,0.4-1.2,0.4-1.6-0.1c-0.3-0.4-0.8-0.9-1-1.7c-0.1-0.6,0.1-1.3,0.4-1.8c0.3-0.4,0.7-0.6,1.2-0.7
					c2.6,0.2,4.7,1.2,6.8,2.1c2.3,1.1,4.5,2,6.8,1.9c3.4-0.3,6.2-3.2,8.7-6.1c0.4-0.5,1.1-0.5,1.6-0.1c0.5,0.4,0.5,1.1,0.1,1.6
					c-2.5,2.8-5.1,5.6-8.5,6.5c-0.1,1.7-0.4,3.6-0.6,5.6c-0.6,4.7-1.3,9.6-0.5,13.3c0.1,0.5,0.3,1,0.5,1.5c0,0,0.1,0,0.1,0
					c0.5,0.2,0.7,0.7,0.6,1.2c2.2,2.7,6.4,4.1,9.9,4.8c0.9,0.2,1.9,0.3,2.8,0.1c2-0.6,3.3-2.9,4.2-5.1c0.3-0.6,0.9-0.8,1.5-0.6
					c0.6,0.3,0.8,0.9,0.6,1.5c-0.9,1.9-2.4,5.5-5.7,6.4c-0.6,0.2-1.1,0.2-1.7,0.2c-0.7,0-1.4-0.1-2-0.2c0.6,0.7,1,1.5,1.3,2.5
					c0.7,2.2,0.7,4.8,0.8,7.2c1.6-0.4,3.1-0.9,4.6-1.5c6.4-2.9,11.7-8.5,13.4-15.3c1.1-4.3,0.7-8.8,0.1-13.2
					c-1-8.2-2.9-16.8-8.7-22.7c-4.2-4.3-10.1-6.7-16.1-7.6c-6.2-1-12.8-0.6-18.7,1.7c-5.9,2.3-11.1,6.5-14.2,12
					c-2.4,4.3-3.5,9.3-3.9,14.2c-0.6,7.6,0.6,15.7,5.5,21.5c4.6,5.5,12.1,9.3,20,11.1c0-0.4,0.1-0.8,0.1-1.2
					C271.8,408,271.7,406.3,271.7,404.8z"/>
				<path class="st1" d="M277.2,395.8c-0.2,0.2-0.4,0.5-0.6,0.7c0.1,0.6,0.1,1.3,0.2,1.9c0.4-0.3,0.8-0.6,1.2-0.8c0-0.3,0-0.6,0-0.9
					C277.8,396.3,277.5,396.1,277.2,395.8z"/>
				<path class="st3" d="M340.3,348.6c-0.7-2.7-2.1-5.1-4-7.1c0.1,0,0.1,0,0.2,0c0.4,0,0.9-0.2,1.1-0.6l3.8-5.7
					c0.4-0.6,0.3-1.5-0.4-1.9c-0.6-0.4-1.5-0.3-1.9,0.4l-3.8,5.7c-0.2,0.3-0.3,0.7-0.2,1c-0.9-0.7-1.8-1.4-2.8-1.9
					c-0.9-0.5-1.9-0.8-2.9-1.1c0-0.1,0.1-0.2,0.1-0.3l0.1-4.8c0-0.8-0.6-1.4-1.3-1.4c-0.7,0-1.4,0.6-1.4,1.3l-0.1,4.7
					c-3.2-0.4-6.6,0.3-9.5,1.9c-4.6,2.6-7.7,7.4-8.1,12.7c-0.1,0.8,0.5,1.4,1.3,1.5c0,0,0.1,0,0.1,0c0.7,0,1.3-0.5,1.4-1.3
					c0.3-4.3,2.9-8.4,6.7-10.5s8.6-2.2,12.4-0.2c3.8,2,6.5,6,7,10.3c0,0.4,0.3,0.8,0.7,1.1c0.4,0.2,0.9,0.2,1.3,0
					c0.5-0.2,0.8-0.7,1-1.2c0-0.2,0-0.3,0-0.5c0.1,0,0.2,0.1,0.3,0.1c0.2,0,0.5-0.1,0.7-0.2l5.8-3.6c0.6-0.4,0.8-1.2,0.5-1.9
					c-0.4-0.6-1.2-0.8-1.9-0.5l-5.8,3.6C340.5,348.3,340.4,348.4,340.3,348.6z"/>
				<path class="st3" d="M239.7,340c-3-1.4-6.4-1.8-9.6-1.2l-0.5-4.7c-0.1-0.8-0.8-1.3-1.5-1.2c-0.8,0.1-1.3,0.7-1.2,1.5l0.5,4.8
					c0,0.1,0.1,0.2,0.1,0.3c-1,0.3-1.9,0.8-2.8,1.3c-1,0.6-1.9,1.3-2.7,2.1c0-0.4,0-0.7-0.3-1l-4.2-5.5c-0.5-0.6-1.3-0.7-1.9-0.2
					c-0.6,0.5-0.7,1.3-0.2,1.9l4.2,5.5c0.3,0.3,0.7,0.5,1.1,0.5c0.1,0,0.2,0,0.3,0c-1.8,2.1-3,4.6-3.5,7.3c-0.1-0.1-0.2-0.2-0.4-0.3
					l-6.1-3.2c-0.7-0.3-1.5-0.1-1.8,0.6c-0.3,0.7-0.1,1.5,0.6,1.8l6.1,3.2c0.2,0.1,0.4,0.2,0.6,0.2c0.1,0,0.3-0.1,0.4-0.1
					c0,0.2,0,0.3,0.1,0.5c0.2,0.5,0.6,0.9,1.1,1.1c0.2,0.1,0.3,0.1,0.5,0.1c0.3,0,0.5-0.1,0.7-0.2c0.4-0.2,0.6-0.7,0.6-1.1
					c0.1-4.3,2.6-8.5,6.2-10.7c3.6-2.2,8.5-2.5,12.4-0.7c3.9,1.8,6.8,5.7,7.4,10c0.1,0.7,0.8,1.3,1.5,1.2c0.7-0.1,1.3-0.8,1.2-1.5
					C247.9,346.9,244.5,342.3,239.7,340z"/>
				<path class="st4" d="M228.2,378.8c-1.6-0.9-4.3-0.3-4.8,1.2l0.9-0.9c-1.3,1.3-1.8,3.3-0.8,4.7c1,1.5,3.6,2,5.1,0.9
					c0.5-0.4,0.9-1,1.1-1.5C230.2,381.6,229.8,379.7,228.2,378.8z"/>
				<path class="st4" d="M217.1,368.7c-1.6-0.9-4.2-0.3-4.8,1.2l0.9-0.9c-1.3,1.3-1.8,3.3-0.8,4.7c1,1.5,3.6,2,5.1,0.9
					c0.5-0.4,0.9-1,1.1-1.5C219.2,371.6,218.7,369.6,217.1,368.7z"/>
				<path class="st4" d="M217,382.7c-1.6-0.9-4.3-0.3-4.8,1.2l0.9-0.9c-1.3,1.3-1.8,3.3-0.8,4.7c1,1.5,3.6,2,5.1,0.9
					c0.5-0.4,0.9-1,1.1-1.5C219,385.5,218.6,383.6,217,382.7z"/>
				<path class="st2" d="M204.1,374.9c0.5,0,1-0.1,1.3-0.5c0.3-0.3,0.4-0.7,0.3-1.1c-0.1-0.5-0.7-0.8-1.1-0.6
					c-0.2,0.1-0.4,0.2-0.5,0.4c-3.4-0.6-6.8-1.3-10.2-2c-5.4-1.1-10.8-2.2-16.2-3.4c-0.5-0.1-1,0.2-1.1,0.7c-0.1,0.5,0.2,1,0.7,1.1
					c5.5,1.2,11.1,2.4,16.7,3.5c3.3,0.7,6.6,1.3,9.8,1.9C203.9,374.9,204,374.9,204.1,374.9z"/>
				<path class="st2" d="M204,382.6c-0.1-0.5-0.6-0.8-1.1-0.8c-2.4,0.4-4.8,0.7-7.3,1.1c-6.9,1-13.9,2-20.8,2.8
					c-0.5,0.1-0.9,0.5-0.8,1c0.1,0.5,0.5,0.8,0.9,0.8c0,0,0.1,0,0.1,0c7.1-0.8,14.1-1.7,21.2-2.8c2.3-0.3,4.6-0.7,6.9-1
					C203.8,383.6,204.1,383.1,204,382.6z"/>
				<path class="st2" d="M202.1,391.2c-0.3-0.4-0.9-0.5-1.3-0.2c-0.4,0.3-0.8,0.6-1.2,0.9c-6.2,4.6-12.8,8.9-19.6,12.7
					c-0.4,0.3-0.6,0.8-0.4,1.3c0.2,0.3,0.5,0.5,0.8,0.5c0.2,0,0.3,0,0.5-0.1c6.8-3.8,13.4-8.1,19.7-12.8c0.4-0.3,0.9-0.6,1.3-1
					C202.3,392.2,202.4,391.6,202.1,391.2z"/>
				<path class="st4" d="M339.7,375.2l1,0.8c-0.7-1.6-3.4-1.9-4.9-0.9c-1.5,1-1.9,3-1.2,4.6c0.3,0.6,0.7,1.1,1.2,1.5
					c1.6,1,4.1,0.3,5-1.3C341.7,378.3,341.1,376.4,339.7,375.2z"/>
				<path class="st4" d="M346.1,364.3c-1.5,1-1.9,3-1.2,4.6c0.3,0.6,0.7,1.1,1.2,1.5c1.6,1,4.1,0.3,5-1.3c0.9-1.5,0.3-3.5-1.2-4.6
					l1,0.8C350.3,363.6,347.6,363.2,346.1,364.3z"/>
				<path class="st4" d="M347.2,378.2c-1.5,1-1.9,3-1.2,4.6c0.3,0.6,0.7,1.1,1.2,1.5c1.6,1,4.1,0.3,5-1.3c0.9-1.5,0.3-3.5-1.2-4.6
					l1,0.8C351.4,377.6,348.7,377.2,347.2,378.2z"/>
				<path class="st2" d="M357.3,367.4c-0.5-0.1-1,0.2-1.1,0.7c-0.1,0.4,0,0.8,0.4,1.1c0.3,0.3,0.7,0.4,1.2,0.4c0.2,0,0.4,0,0.5-0.1
					c2.7-0.7,5.5-1.5,8.2-2.2c6-1.6,11.9-3.3,17.8-5c0.5-0.1,0.8-0.7,0.6-1.2c-0.1-0.5-0.7-0.8-1.2-0.6c-5.7,1.7-11.5,3.3-17.3,4.9
					c-2.9,0.8-5.7,1.6-8.6,2.3C357.7,367.6,357.5,367.5,357.3,367.4z"/>
				<path class="st2" d="M358.5,377.4c0,0.5,0.3,1,0.8,1c1.9,0.2,3.7,0.3,5.6,0.5c7.6,0.6,15.2,1.2,22.7,1.5c0,0,0,0,0,0
					c0.5,0,0.9-0.4,0.9-0.9c0-0.5-0.4-0.9-0.9-1c-7.4-0.3-14.9-0.8-22.3-1.4c-2-0.2-3.9-0.3-5.9-0.5
					C359,376.5,358.5,376.9,358.5,377.4z"/>
				<path class="st2" d="M356.5,384.7c-0.3,0.4-0.2,1,0.3,1.3c1.3,0.9,2.7,1.7,4.1,2.6c5.8,3.5,11.7,6.8,17.8,9.7
					c0.1,0.1,0.3,0.1,0.4,0.1c0.3,0,0.7-0.2,0.8-0.5c0.2-0.5,0-1-0.4-1.2c-6.1-2.9-12-6.1-17.7-9.7c-1.3-0.8-2.6-1.6-3.9-2.5
					C357.4,384.1,356.8,384.2,356.5,384.7z"/>
				<path class="st5" d="M296.2,473c0.2,0.1,0.4,0.1,0.6,0.1c1.3,0.2,2.6,0.3,3.8,0.5c0-0.8,0-1.7,0.1-2.5c-1.3-0.1-2.5-0.3-3.8-0.4
					l0.7,0.2c-0.6,0-1.2,0-1.8-0.1c-0.1,0-0.3,0-0.4,0.1c-0.1,0.1-0.1,0.3-0.1,0.5C295.5,472,295.7,472.7,296.2,473z"/>
				<path class="st5" d="M298,480.7c-2.2,2.4,3.7,2.5,4.5,2.4c-0.1,0-0.2-2-0.4-2.1c-0.3-0.4-1.3-0.4-1.8-0.5
					C299.8,480.4,298.6,480.1,298,480.7z"/>
				<path class="st5" d="M297.5,490.4c0.5-0.3,0.6-1.1,0.5-1.8c0,0-0.7-0.2-1.4-0.5c0,0.8,0.1,1.5,0.1,2.3c0.1,0,0.2,0,0.3,0
					C297.1,490.5,297.3,490.5,297.5,490.4z"/>
				<path class="st6" d="M269.4,433.9c-3.8,20.3-7.5,40.7-11.3,61c-0.5,2.8-1.7,6.1-1.7,9c1.5,5.6,3,11.3,4.3,17
					c0.1,0.1,0.3,0.1,0.4,0.2c2.8,1,5.8,1.9,8.7,2.5c0.1-0.2,0.3-0.3,0.4-0.5l-1.1-0.1c2.5-1.8,6.3-0.8,8.5,1.5
					c0.1,0.1,0.3,0.3,0.4,0.5c1.9,0.2,3.9,0.3,5.9,0.3c2.4,0,4.9-0.1,6.9-1.5c2.8-1.9,3.8-5.6,4.5-9.1c1.5-7.9,1.7-16,1.4-24.1
					c0-0.8,0-1.5-0.1-2.3c-0.2-5.1-0.7-10.3-1.1-15.4l-1.9-22.3l-0.6-7.3c-2-1.3-4.1-2.6-6.1-4c-6.2-4.2-12.6-8.8-15.8-15.5
					c0,0.2-0.1,0.4-0.1,0.7c-0.1,1-0.3,2.1-0.5,3.1C270.5,427.5,269.4,433.9,269.4,433.9z M276.5,468.4c2.1,0.8,4.3,1.3,6.6,1.7
					c2.2,0.4,4.5,0.6,6.9,0.6c-2.3,0.5-4.6,0.6-7,0.3c-2.3-0.2-4.6-0.7-6.9-1.5c-2.2-0.8-4.3-1.8-6.3-3.1c-1.9-1.3-3.7-2.9-5.2-4.6
					c1.8,1.4,3.7,2.7,5.7,3.8C272.3,466.7,274.3,467.7,276.5,468.4z"/>
				<path class="st6" d="M290.6,415.9c-0.1-0.9-0.2-1.9-0.2-2.8c-0.1-0.8-0.1-1.7-0.1-2.6c-0.1-2.4-0.1-5.1-0.8-7.2
					c-0.3-1-0.8-1.8-1.3-2.5c-0.1,0-0.1,0-0.2,0c-2.4-0.5-4.4-1.1-6.2-1.9c0.1,0.1,0.2,0.1,0.2,0.2l0,1.2c0.1,1.5,0.1,3.1,0.2,4.6
					c0.1,1.6,0.1,3.3-0.4,4.8c-0.5,1.4-1.9,2.4-2.9,1.6c-0.6-4.5-0.9-9.2-0.8-13.8c-0.4,0.3-0.8,0.6-1.2,0.8
					c0.4,4.2,0.3,8.3-0.1,12.5c-1.4,0.9-3.3,0.1-4.2-1.3c0-0.1-0.1-0.1-0.1-0.2c0,0.4-0.1,0.8-0.1,1.2c-0.3,2.3-0.5,4.6-0.7,6.9
					c0.6-0.5,1.3-0.8,2-1.1C278.8,414.2,284.6,414.5,290.6,415.9z"/>
				<path class="st7" d="M274.6,537.1c1.3,3.1,2.6,6.2,4,9.3c0.1,0.3,0.2,0.5,0.3,0.8c0.2,0.6,0.6,1.2,1.2,1.4
					c0.7,0.1,1.3-0.5,1.7-1.1c0.2-0.3,0.3-0.6,0.4-0.9c2.1-4.2,0.8-9.4-0.5-13.9c-0.8-2.8-1.8-5.7-3.6-7.9c-0.1-0.2-0.3-0.3-0.4-0.5
					c-2.2-2.3-5.9-3.3-8.5-1.5l1.1,0.1c-0.1,0.2-0.3,0.3-0.4,0.5c-2.3,2.6-4.6,5.2-6.9,7.8c0.5,2.2,0.9,4.5,1.3,6.7
					c1.2-0.9,2.5-1.8,3.7-2.7c-1,3-1.5,6.1-1.5,9.3c0,2.2,0.3,4.4,0.9,6.5c0.1,0.6,0.3,1.1,0.5,1.6c0.5-0.5,0.9-0.9,1.3-1.4
					c1.4-1.7,2.6-3.6,3.5-5.6C273.9,543,274.6,540.1,274.6,537.1z"/>
				<path class="st4" d="M268.1,481.5c1.9,1.4,4.1,2.6,6.4,3.4c2.3,0.8,4.7,1.3,7.1,1.4c2.4,0.1,4.8-0.2,7.1-1.1
					c-2.4-0.4-4.6-0.8-6.8-1.3c-2.2-0.5-4.3-1.1-6.4-1.9c-2.1-0.7-4.1-1.6-6.1-2.6c-1.7-0.8-3.3-1.7-5-2.6c0,0.4,0.1,0.8,0.1,1.1
					C265.5,479.3,266.7,480.4,268.1,481.5z"/>
				<path class="st4" d="M264.6,461.8c1.5,1.8,3.3,3.3,5.2,4.6c1.9,1.3,4.1,2.4,6.3,3.1c2.2,0.8,4.5,1.3,6.9,1.5
					c2.3,0.2,4.7,0.1,7-0.3c-2.3,0-4.6-0.2-6.9-0.6c-2.2-0.4-4.4-0.9-6.6-1.7c-2.1-0.7-4.2-1.7-6.2-2.8
					C268.3,464.5,266.4,463.2,264.6,461.8z"/>
				<path class="st8" d="M256.1,492.8c6.1,6.8,12.7,10.6,16.5,1.8c1-2.4,1.2-5.1,1.2-7.7c0-3.2-0.2-6.4-0.8-9.6
					c-0.1-0.4-0.1-0.7-0.2-1.1c-0.5-2.6-1.2-5.2-2.2-7.7c-0.7-1.8-1.5-3.4-2.5-5c0,0-0.1-0.1-0.1-0.1c-3.5-5.4-11.8-9.7-13.9-15.6
					c-2-5.6,1.7-10.9,2.1-16.4c0.3-4-1.7-6.5-4.4-7.6c-2.3-1-5.1-0.9-7.7,0.2c-9.4,4.1-6.9,22.6-7.1,30.4c-0.1,3.4,0.9,7.3,2.5,11.5
					c0.6,1.7,1.8,4.3,3.3,7.4C244.6,476.4,250.1,486.1,256.1,492.8z"/>
				<path class="st8" d="M307.3,421.5c-5.3-2.1-11-4.3-16.7-5.6c-6-1.4-11.8-1.7-16.9,0.4c-0.7,0.3-1.4,0.7-2,1.1
					c-0.8,0.6-1.4,1.4-1.6,2.3c-0.2,1.1,0.1,2.3,0.6,3.3c0.1,0.2,0.3,0.5,0.4,0.7c3.2,6.7,9.6,11.3,15.8,15.5c2,1.3,4,2.7,6.1,4
					c9.5,6.2,19.3,12.1,29.2,17.6c4.4,2.4,10.1,8,15.5,8.3c0.3,0,0.6,0,0.8,0c7.4-0.5,7-11,6.1-16.2c-1.4-7.8-7.8-17.9-14.5-22.3
					c-4.1-2.7-8.9-4.3-13.6-5.8c-0.1,0-0.3-0.1-0.4-0.1C313.3,423.9,310.4,422.7,307.3,421.5z"/>
				<path class="st9" d="M271.5,399.3l0.1,0.9c0,1.5,0.1,3.1,0.1,4.6c0,1.6,0.1,3.2,0.9,4.5c0,0.1,0.1,0.1,0.1,0.2
					c0.9,1.4,2.8,2.2,4.2,1.3c0.4-4.1,0.4-8.3,0.1-12.5c-0.1-0.6-0.1-1.3-0.2-1.9C275.3,397.9,273.4,398.9,271.5,399.3z"/>
				<path class="st9" d="M278.1,397.5c-0.1,4.6,0.2,9.2,0.8,13.8c1,0.8,2.4-0.1,2.9-1.6c0.5-1.4,0.5-3.1,0.4-4.8
					c-0.1-1.5-0.1-3.1-0.2-4.6l0-1.2c-0.1-0.1-0.2-0.1-0.2-0.2c-1.4-0.6-2.7-1.4-3.7-2.3C278.1,396.9,278.1,397.2,278.1,397.5z"/>
				<path class="st3" d="M291.8,400.8c3.3-0.9,4.9-4.5,5.7-6.4c0.3-0.6,0-1.2-0.6-1.5c-0.6-0.3-1.2,0-1.5,0.6
					c-1,2.2-2.2,4.6-4.2,5.1c-0.9,0.2-1.9,0.1-2.8-0.1c-3.6-0.7-7.8-2-9.9-4.8c0.1-0.5-0.2-1-0.6-1.2c0,0-0.1,0-0.1,0
					c-0.2-0.5-0.4-1-0.5-1.5c-0.8-3.7-0.1-8.6,0.5-13.3c0.3-2,0.5-3.9,0.6-5.6c3.4-0.9,6.1-3.7,8.5-6.5c0.4-0.5,0.4-1.2-0.1-1.6
					c-0.5-0.4-1.2-0.4-1.6,0.1c-2.5,2.9-5.3,5.8-8.7,6.1c-2.3,0.2-4.5-0.8-6.8-1.9c-2.1-0.9-4.3-1.9-6.8-2.1c-0.5,0-0.9,0.3-1.2,0.7
					c-0.4,0.5-0.5,1.2-0.4,1.8c0.1,0.8,0.6,1.3,1,1.7c0.4,0.5,1.1,0.5,1.6,0.1c0.5-0.4,0.5-1.1,0.1-1.6c-0.1-0.1-0.1-0.1-0.2-0.2
					c1.7,0.3,3.3,1,5.1,1.8c2.3,1,4.6,2.1,7.2,2.1c0.1,0,0.1,0,0.2,0c-0.1,1.5-0.3,3.2-0.6,4.9c-0.7,4.9-1.4,10-0.5,14.1
					c0.2,0.9,0.5,1.6,0.9,2.4c-1.4,2.2-4.2,3.6-6.8,3.3c-0.6-0.1-1.2,0.4-1.3,1c-0.1,0.6,0.4,1.2,1,1.3c0.4,0,0.7,0.1,1.1,0.1
					c0.6,0,1.1-0.1,1.7-0.2c2-0.4,3.8-1.4,5.2-2.8c0.2-0.2,0.4-0.4,0.6-0.7c0.3,0.3,0.6,0.5,0.8,0.8c1,0.9,2.2,1.6,3.7,2.3
					c1.8,0.8,3.8,1.4,6.2,1.9c0.1,0,0.1,0,0.2,0c0.6,0.1,1.3,0.2,2,0.2C290.7,401,291.2,400.9,291.8,400.8z"/>
				<path class="st8" d="M265,541.4c-0.2-1.2-0.5-2.4-0.7-3.5c-0.4-2.2-0.8-4.5-1.3-6.7c-0.7-3.5-1.5-7-2.3-10.4
					c-1.3-5.7-2.8-11.3-4.3-17c-0.2-0.8-0.4-1.6-0.6-2.4c-0.2-0.7-0.4-1.4-0.6-2.1c-1.1-3.9-2.5-7.7-4.8-10.8
					c-2.5-3.5-6.5-6-10.2-5.4c-0.2,0-0.5,0-0.7,0.1c-1,0.3-2,0.8-3.1,0.7c-1.9,0-3.5-1.6-5.2-2.9c-0.3-0.2-0.7-0.5-1-0.7
					c-3.9-2.2-8.7-0.1-11.1,3.8c-2.4,3.9-2.7,9.1-2.2,14c-4.2-1.5-7.8,4-7.3,9c0.6,5,3.7,9.1,6.4,13.1c2.1,3,4,6.1,5.9,9.2
					c1.6,2.8,2.9,5.6,4.9,8c2.3,2.8,4.2,6.4,6.2,9.5c1.8,2.8,3.6,5.5,5.4,8.3c0.3,0.5,0.7,1,1,1.5c1,1.6,2.1,3.2,3.3,4.7
					c0.9,1.1,2.1,2.5,3.3,3.3c0.8,0.5,1.9,0.7,2.9,1c2.1,0.7,4.3,1.1,6.5,0.9c4.7-0.5,8-4.1,9.6-9c0.7-2.2,1-4.5,1-6.9
					c0-2.2-0.3-4.4-0.6-6.6C265.3,543.3,265.1,542.4,265,541.4z M242.6,495.1c0.3-0.3,0.7-0.4,1.1-0.6c0.9-0.3,1.9-0.6,2.9-0.2
					c0.5,0.2,0.9,0.6,1.3,1.1c1.9,2.2,2.9,5.5,2.5,8.5c-0.3,2.4-2.8,2.5-4.5,1.6c-1.2-0.6-2.2-1.8-2.9-3.1c-0.8-1.5-1.2-3.1-1.2-4.8
					C241.8,496.7,242,495.7,242.6,495.1z M227.3,515.9c-0.4,2.8-3.4,2.9-5.3,1.9c-1.4-0.7-2.6-2.1-3.4-3.6c-0.9-1.7-1.4-3.7-1.4-5.6
					c0-1.1,0.2-2.3,1-3c0.4-0.3,0.8-0.5,1.3-0.7c1.1-0.4,2.3-0.7,3.4-0.3c0.6,0.3,1.1,0.7,1.6,1.3
					C226.7,508.6,227.8,512.4,227.3,515.9z M227.2,500.7c-1-2.4-1.7-5-1.8-7.6c-0.1-1.5,0-3.1,0.7-4c0.3-0.4,0.8-0.6,1.2-0.8
					c1.1-0.4,2.3-0.8,3.4-0.1c0.6,0.4,1.2,1.1,1.7,1.8c2.5,3.7,4,8.9,3.7,13.6c-0.2,3.7-3.2,3.7-5.3,2.2
					C229.4,504.7,228.1,502.8,227.2,500.7z M256.9,556.7c-1.1,0.6-2.4,0.4-3.6,0.1c-3.7-1.2-5.5-4.2-8.2-7
					c-2.9-3.1-5.7-6.5-7.8-10.3c-1.3-2.4-2.3-5-3.3-7.6c-0.9-2.4-1.8-4.8-2.1-7.3c-0.4-3.2,0.1-6.6,1.6-9.2c1.5-2.6,4.1-4.3,7-4.4
					c3.7-0.1,7.1,2.6,9.7,5.8c1.4,1.8,2.6,3.7,3.6,5.8c1.3,2.7,2.2,5.7,3,8.6c1.3,4.7,2.3,9.4,3.2,14.2
					C260.9,549.4,260.6,554.7,256.9,556.7z"/>
				<path class="st2" d="M222.8,504.7c-1.1-0.5-2.3-0.1-3.4,0.3c-0.5,0.2-0.9,0.3-1.3,0.7c-0.7,0.7-1,1.9-1,3c0,1.9,0.5,3.9,1.4,5.6
					c0.8,1.5,2,2.9,3.4,3.6c2,1,5,0.8,5.3-1.9c0.5-3.5-0.6-7.4-2.9-10C223.9,505.4,223.4,505,222.8,504.7z"/>
				<path class="st2" d="M236.2,503.6c0.2-4.7-1.2-9.9-3.7-13.6c-0.5-0.7-1.1-1.4-1.7-1.8c-1.2-0.7-2.3-0.3-3.4,0.1
					c-0.4,0.2-0.9,0.4-1.2,0.8c-0.7,0.9-0.8,2.5-0.7,4c0.1,2.6,0.8,5.3,1.8,7.6c0.9,2.1,2.2,4,3.7,5.1
					C233,507.3,236,507.2,236.2,503.6z"/>
				<path class="st2" d="M245.9,505.6c1.7,0.9,4.2,0.7,4.5-1.6c0.4-3-0.6-6.3-2.5-8.5c-0.4-0.4-0.8-0.9-1.3-1.1
					c-0.9-0.4-1.9-0.1-2.9,0.2c-0.4,0.1-0.8,0.3-1.1,0.6c-0.6,0.6-0.8,1.6-0.8,2.6c0,1.6,0.4,3.3,1.2,4.8
					C243.7,503.8,244.7,504.9,245.9,505.6z"/>
				<path class="st2" d="M257,531.1c-0.8-3-1.7-5.9-3-8.6c-1-2.1-2.2-4.1-3.6-5.8c-2.6-3.2-6-5.9-9.7-5.8c-2.8,0.1-5.4,1.8-7,4.4
					c-1.5,2.6-2.1,5.9-1.6,9.2c0.3,2.5,1.2,5,2.1,7.3c1,2.6,2,5.2,3.3,7.6c2.1,3.9,4.9,7.2,7.8,10.3c2.7,2.9,4.5,5.9,8.2,7
					c1.2,0.4,2.5,0.5,3.6-0.1c3.6-2,4-7.3,3.2-11.4C259.3,540.5,258.3,535.8,257,531.1z"/>
				<path class="st8" d="M334.9,483c-2.1,1.2-3.9,3.4-6.2,3.4c-1.1,0-2.1-0.5-3.1-0.7c-2.2-0.6-4.5,0-6.5,1.2
					c-1.6,1-3.1,2.3-4.3,3.9c-2.7,3.6-4,8.1-5.2,12.6c-3.6,12.8-6.5,25.9-8.9,39c-0.1,0.7-0.3,1.5-0.4,2.2c-0.4,2.6-0.7,5.1-0.7,7.7
					c0,2.1,0.3,4.2,1,6.1c1.7,4.7,5,8.2,9.7,8.8c2.2,0.2,4.4-0.1,6.5-0.8c0.9-0.3,2-0.5,2.9-1c1.2-0.7,2.3-2.1,3.2-3.2
					c1.2-1.4,2.2-3,3.3-4.5c0.3-0.5,0.7-1,1-1.5c1.8-2.7,3.6-5.4,5.3-8.1c2-3,3.8-6.5,6.1-9.2c2-2.3,3.3-5.1,4.8-7.8
					c1.8-3.1,3.8-6.1,5.8-9c2.7-3.9,5.8-8,6.3-12.8c0.5-4.8-3.1-10.2-7.3-8.8c0.5-4.8,0.1-9.9-2.3-13.7c-1.6-2.5-4.2-4.3-6.9-4.6
					C337.7,482,336.3,482.2,334.9,483z M317.5,497.5c0.4-0.4,0.8-0.8,1.3-1c0.9-0.4,1.9-0.1,2.8,0.2c0.4,0.1,0.8,0.3,1.1,0.6
					c0.6,0.6,0.8,1.6,0.8,2.5c0,1.6-0.4,3.2-1.1,4.7c-0.7,1.3-1.6,2.4-2.8,3c-1.7,0.8-4.2,0.7-4.5-1.6
					C314.6,502.9,315.5,499.7,317.5,497.5z M333.5,525.9c-0.3,2.5-1.2,4.8-2,7.2c-1,2.5-2,5.1-3.2,7.4c-2.1,3.8-4.8,7-7.7,10.1
					c-2.6,2.8-4.5,5.7-8.1,6.8c-1.2,0.4-2.5,0.5-3.6-0.1c-3.6-2-4-7.1-3.3-11.2c0.8-4.7,1.8-9.3,3.1-13.8c0.8-2.9,1.7-5.7,3-8.4
					c1-2,2.2-4,3.6-5.7c2.5-3.1,6-5.7,9.6-5.6c2.8,0.1,5.4,1.8,7,4.3C333.4,519.5,333.9,522.8,333.5,525.9z M342.6,506.7
					c1.1-0.5,2.3-0.1,3.4,0.3c0.5,0.2,0.9,0.3,1.3,0.7c0.7,0.7,1,1.8,1,2.9c0,1.9-0.4,3.8-1.3,5.5c-0.8,1.5-1.9,2.8-3.3,3.5
					c-2,1-4.9,0.8-5.4-1.9c-0.5-3.4,0.6-7.2,2.9-9.7C341.5,507.4,342,507,342.6,506.7z M339.2,491.4c0.7,0.8,0.8,2.4,0.8,3.9
					c-0.1,2.5-0.7,5.1-1.7,7.4c-0.9,2.1-2.2,3.9-3.7,5c-2.1,1.5-5.1,1.4-5.3-2.2c-0.3-4.5,1.1-9.7,3.6-13.3c0.5-0.7,1-1.4,1.7-1.7
					c1.1-0.7,2.3-0.3,3.4,0.1C338.4,490.8,338.8,491,339.2,491.4z"/>
				<path class="st2" d="M338.2,517.7c0.4,2.7,3.4,2.9,5.4,1.9c1.4-0.7,2.6-2,3.3-3.5c0.9-1.7,1.3-3.6,1.3-5.5c0-1.1-0.2-2.3-1-2.9
					c-0.4-0.3-0.8-0.5-1.3-0.7c-1.1-0.4-2.3-0.7-3.4-0.3c-0.6,0.2-1.1,0.7-1.5,1.2C338.8,510.5,337.6,514.2,338.2,517.7z"/>
				<path class="st2" d="M334.5,490.5c-0.6,0.4-1.2,1-1.7,1.7c-2.5,3.6-3.9,8.7-3.6,13.3c0.2,3.6,3.2,3.6,5.3,2.2
					c1.5-1,2.7-2.9,3.7-5c1-2.3,1.6-4.9,1.7-7.4c0.1-1.5-0.1-3-0.8-3.9c-0.3-0.4-0.8-0.6-1.3-0.8
					C336.8,490.2,335.7,489.8,334.5,490.5z"/>
				<path class="st2" d="M319.6,507.5c1.2-0.6,2.2-1.7,2.8-3c0.7-1.4,1.1-3.1,1.1-4.7c0-0.9-0.2-1.9-0.8-2.5
					c-0.3-0.3-0.7-0.4-1.1-0.6c-0.9-0.3-1.9-0.6-2.8-0.2c-0.5,0.2-0.9,0.6-1.3,1c-1.9,2.2-2.9,5.4-2.4,8.3
					C315.4,508.1,317.9,508.3,319.6,507.5z"/>
				<path class="st2" d="M324.8,512.7c-3.7-0.1-7.1,2.5-9.6,5.6c-1.4,1.7-2.6,3.6-3.6,5.7c-1.3,2.7-2.2,5.5-3,8.4
					c-1.3,4.5-2.3,9.2-3.1,13.8c-0.7,4-0.3,9.2,3.3,11.2c1.1,0.6,2.4,0.4,3.6,0.1c3.7-1.1,5.5-4.1,8.1-6.8c2.9-3,5.6-6.3,7.7-10.1
					c1.3-2.4,2.3-4.9,3.2-7.4c0.9-2.3,1.7-4.7,2-7.2c0.4-3.1-0.1-6.4-1.7-8.9C330.2,514.4,327.6,512.7,324.8,512.7z"/>
			</g>
		</g>
		<path class="st10" d="M257.5,507.5c-1-2.9-1.7-5.8-2.6-8.7c-0.9-2.9-1.9-5.6-3.3-8.2c-1.4-2.6-3.2-5-5.7-6.3
			c-1.3-0.7-2.7-1.1-4.1-1.1c-0.7,0-1.4,0.1-2.2,0.3c-0.7,0.2-1.5,0.3-2.3,0.2c0.8-0.1,1.5-0.2,2.2-0.5c0.7-0.3,1.5-0.6,2.2-0.7
			c1.6-0.2,3.2,0.2,4.6,0.8c3,1.3,5,4,6.5,6.6c1.5,2.7,2.5,5.6,3.2,8.6C256.6,501.5,257,504.5,257.5,507.5z"/>
		<path class="st10" d="M241.3,468.7c1.8,4.8,4.9,8.8,8.1,12.7c1.6,2,3.3,3.9,4.8,5.9c1.6,2,3.1,4,4.6,6.2
			c-3.7-3.5-7.1-7.3-10.4-11.2c-1.6-2-3.2-4.1-4.4-6.3C242.6,473.7,241.7,471.2,241.3,468.7z"/>
		<path class="st10" d="M260.4,455.9c-1.3-0.5-2.5-1.5-3.3-2.7c-0.9-1.2-1.5-2.5-2-3.9c-0.8-2.8-0.9-5.6-0.5-8.4
			c0.7,2.7,1,5.5,1.8,8C257.1,451.6,258.3,454,260.4,455.9z"/>
		<path class="st10" d="M247.2,422c3.9,0.2,7.8,0.5,11.7,0.5c3.9,0.1,7.8-0.1,11.7-0.3c-3.8,0.7-7.8,1-11.7,1
			C254.9,423.1,251,422.8,247.2,422z"/>
		<path class="st10" d="M291.5,416.2c4.3,1.2,8.4,2.6,12.5,4.1c4.1,1.5,8.2,3,12.2,4.9c-4.3-0.8-8.6-2.1-12.7-3.6
			C299.4,420,295.3,418.3,291.5,416.2z"/>
		<path class="st10" d="M292.7,443.3c1.9,0.7,3.7,1.7,5.5,2.7c1.8,1,3.5,2.2,5.2,3.3c3.4,2.3,6.6,4.9,9.8,7.4
			c3.2,2.5,6.6,4.8,10.1,6.7c3.6,1.9,7.4,3.4,11.4,4.2c-2.1-0.1-4.1-0.5-6.1-1c-2-0.6-3.9-1.3-5.8-2.2c-3.7-1.8-7.2-4.1-10.5-6.6
			c-3.3-2.5-6.4-5.1-9.6-7.6C299.6,447.7,296.3,445.3,292.7,443.3z"/>
		<path class="st10" d="M319,486.6c1.3-1.4,3.4-2.3,5.4-2.2c1,0,2.1,0.3,3,0.7c0.9,0.4,1.7,0.8,2.5,0.8c1.6,0.1,3.3-0.9,5-1.9
			c0.8-0.5,1.7-0.9,2.7-1.2c1-0.3,2-0.4,2.9-0.1c-2-0.1-3.5,1.2-5.1,2.2c-0.8,0.6-1.6,1.1-2.5,1.6c-0.9,0.5-2,0.8-3.1,0.7
			c-1.1,0-2.1-0.6-3-1c-0.8-0.4-1.7-0.7-2.6-0.8C322.5,485.2,320.6,485.6,319,486.6z"/>
		<path class="st10" d="M304,420.6l5.4-0.4l2.7-0.1c0.9-0.1,1.8-0.1,2.7-0.2c-0.8,0.4-1.7,0.6-2.6,0.7c-0.9,0.2-1.8,0.2-2.7,0.3
			c-0.9,0-1.8,0.1-2.7,0C305.8,420.9,304.9,420.9,304,420.6z"/>
	</g>
</g>
<g id="cadre_8_">
	<rect y="0" class="st11" width="553" height="574"/>
</g>
</svg>
