<?xml version="1.0" encoding="utf-8"?>
<!-- Generator: Adobe Illustrator 24.2.0, SVG Export Plug-In . SVG Version: 6.00 Build 0)  -->
<svg version="1.1" id="Calque_1" xmlns="http://www.w3.org/2000/svg" xmlns:xlink="http://www.w3.org/1999/xlink" x="0px" y="0px"
	 viewBox="0 0 110.6 141.7" style="enable-background:new 0 0 110.6 141.7;" xml:space="preserve">
<style type="text/css">
	.st0{fill:#F9F5EF;}
	.st1{fill:#D8E1D6;}
	.st2{fill:#ECA420;}
	.st3{fill:#E2F2FA;}
	.st4{fill:#638274;}
	.st5{fill:#FFFFFF;}
</style>
<g>
	<path class="st0" d="M108.5,113.6c-1.6-3.4-4.4-6-8-7.2c-3.5-1.2-7.3-1-10.7,0.6c-4.6,2.2-9.7,3.6-14.8,4c-0.1,0-0.1,0-0.2,0
		c-1.7,0.1-3.4,0.2-5.2,0.1c-2.7-0.1-5.4-0.5-8-1.2C46.2,106,33.9,93.3,31.2,77.3c0,0,0-0.1,0-0.1c-0.1-0.6-0.2-1.2-0.3-1.8
		c0-0.1,0-0.3,0-0.4c-0.1-0.5-0.1-1-0.1-1.6c0-0.2,0-0.4,0-0.6c0-0.4,0-0.9-0.1-1.3c0-0.3,0-0.6,0-0.9c0-0.3,0-0.6,0-0.9
		c0-0.4,0-0.9,0.1-1.3c0-0.2,0-0.4,0-0.6c0-0.5,0.1-1.1,0.1-1.6c0-0.1,0-0.3,0-0.4c0.1-0.6,0.2-1.2,0.3-1.8c0,0,0-0.1,0-0.1
		c2.7-16,15-28.7,30.5-32.6c2.6-0.6,5.3-1,8-1.2c1.7-0.1,3.4-0.1,5.2,0.1c0.1,0,0.1,0,0.2,0c5.1,0.4,10.2,1.8,14.8,4
		c3.4,1.6,7.1,1.8,10.7,0.6c3.6-1.3,6.4-3.8,8-7.2c0.4-0.9,0.8-1.8,1.1-2.8c0.6-1.7,0.9-3.4,0.8-5.1c-0.1-5.6-3.4-11-8.8-13.4
		C98.2,4.5,94.6,3.2,91,2.2c0,0-0.1,0-0.1,0c-0.1,0-0.1,0-0.2-0.1c-4.9-1.3-9.9-2.1-15-2.4c-0.1,0-0.2,0-0.3,0c-0.2,0-0.4,0-0.6,0
		c-0.5,0-1,0-1.5-0.1c-0.1,0-0.2,0-0.3,0c-0.3,0-0.5,0-0.8,0c-0.8,0-1.5,0-2.3,0c-0.6,0-1.3,0-1.9,0.1c-0.4,0-0.8,0-1.2,0.1
		C65.8-0.1,65,0,64.1,0c0,0-0.1,0-0.1,0c-2.7,0.3-5.4,0.7-8.1,1.3c-0.7,0.1-1.4,0.3-2,0.5c-0.1,0-0.2,0.1-0.3,0.1
		c-0.8,0.2-1.6,0.4-2.4,0.6C38.3,6.1,26.9,13.2,18,23C9.1,32.8,3.2,44.8,1,57.8C0.3,62-0.1,66.3-0.1,70.5c0,4.2,0.3,8.5,1.1,12.7
		c2.2,12.9,8.1,24.9,17,34.7c8.9,9.8,20.3,16.9,33.1,20.5c0.8,0.2,1.6,0.4,2.4,0.6c0.1,0,0.2,0.1,0.3,0.1c0.7,0.2,1.3,0.3,2,0.5
		c2.7,0.6,5.4,1,8.1,1.3c0,0,0.1,0,0.1,0c0.9,0.1,1.7,0.2,2.6,0.2c0.4,0,0.8,0.1,1.2,0.1c0.6,0,1.3,0.1,1.9,0.1c0.8,0,1.5,0,2.3,0
		c0.3,0,0.5,0,0.8,0c0.1,0,0.2,0,0.3,0c0.5,0,1,0,1.5-0.1c0.2,0,0.4,0,0.6,0c0.1,0,0.2,0,0.3,0c5.1-0.3,10.1-1.1,15-2.4
		c0.1,0,0.1,0,0.2-0.1c0,0,0.1,0,0.1,0c3.6-1,7.2-2.3,10.7-3.9c5.4-2.4,8.7-7.8,8.8-13.4c0-1.7-0.2-3.4-0.8-5.1
		C109.3,115.5,108.9,114.5,108.5,113.6z"/>
</g>
<path class="st1" d="M104.2,21c-0.2,0.9-0.2,1.8-0.4,2.7c-0.6,1.9-1.7,3.5-3.5,4.2S95.9,29,94.2,30c-1.9,1.1-3.1,2.6-3.9,4.2
	c3.2,1.4,6.8,1.6,10.2,0.4c3.6-1.3,6.4-3.8,8-7.2c0.4-0.9,0.8-1.8,1.1-2.8c0.6-1.7,0.9-3.4,0.8-5.1c0-0.2,0-0.5,0-0.7
	c-0.3-0.1-0.7-0.2-1-0.3C107.3,18,104.8,19,104.2,21z"/>
<path class="st2" d="M102.9,29.8c-0.4,0.1-1.2,0.6-1.5,0.9c-0.4,0.4-0.7,1.2-0.9,1.7c-0.3,0.8-0.7,1.7-1.1,2.5
	c0.4-0.1,0.7-0.2,1.1-0.3c0.4-0.1,0.8-0.3,1.2-0.5c0.4-0.8,0.8-1.6,1-2.4C102.8,31.2,103.1,30.3,102.9,29.8z"/>
<path class="st2" d="M103.7,32.9c0,0.1-0.1,0.1-0.1,0.2c0.4-0.3,0.8-0.5,1.1-0.8c0,0,0,0,0,0C104.3,32.2,103.9,32.7,103.7,32.9z"/>
<path class="st2" d="M96.3,35.3c0.1-0.1,0.1-0.1,0.2-0.2c0.6-0.9,0.8-2.2,0.9-3.3c0.1-1.1,0.1-2.4,0-3.5c0-0.4-0.1-1.3-0.4-1.6
	c-0.5,0.8-0.9,2-1.1,2.9c-0.2,1-0.2,2.1-0.2,3.2c0,0.6,0.4,1.6,0.4,2.2c-0.4-1.1-1.2-2.2-2-3.1c-0.7-0.8-1.4-1.4-2.3-2
	c-0.5-0.3-1.2-1-1.8-1.1c-1.5-0.1,0.7,2.8,0.9,3.1c0.6,0.8,1.4,1.6,2.3,2c0.1,0.1,0.3,0.1,0.4,0.2c-0.2,0-0.4,0-0.5,0
	c-1.2-0.1-2.4-0.2-3.6-0.2c0.1,0,0.2,0.1,0.3,0.1c1.5,0.7,3.1,1.1,4.7,1.3c0.2,0,0.4,0,0.6,0c0,0,0.1,0.1,0.1,0.1
	C95.6,35.4,96,35.4,96.3,35.3C96.4,35.4,96.4,35.4,96.3,35.3z"/>
<path class="st2" d="M99.3,33.6c0.4-1.2,0.7-2.4,0.9-3.6c0.1-0.4,0.3-1.5,0-1.8c-0.8,0.9-1.2,2.2-1.6,3.3c-0.4,1.1-0.7,2.2-1,3.3
	c0,0.2-0.1,0.3-0.1,0.5c0.3,0,0.7-0.1,1-0.2C98.9,34.6,99.1,34.1,99.3,33.6z"/>
<path class="st2" d="M81.9,125c-0.9,0.4-0.3,0.6-0.7,1.1c0.4,0.2,1,0.1,1.5-0.1c0.6-0.4,1.5-0.9,1.2-1.3
	C83.6,124.4,82.3,124.8,81.9,125z"/>
<path class="st2" d="M86.1,120.6c0.3-0.3,0-0.4-0.4-0.4c-0.5,0.1-1,0.3-1.3,0.6c-0.6,0.6-0.3,1.2,0.3,1c0,0,0.1-0.1,0.2-0.1
	c0.6-0.3,1.1-0.4,1.5-0.8C87.1,120.5,86.6,120.5,86.1,120.6z"/>
<path class="st2" d="M78.4,123.7c0.1,0,0.2,0,0.3-0.1c0,0,0.1,0,0.1,0L78.4,123.7z"/>
<path class="st2" d="M79.7,122.2c-0.3-0.1-0.9,0.2-1.3,0.3c-0.3,0.1-0.6,0.2-0.7,0.4c-0.1,0.2-0.1,0.3,0.2,0.3
	c-0.2,0.1-0.3,0.2-0.2,0.4c0.2,0.3,0.7,0.1,1,0c-0.1,0-0.2,0.1-0.3,0.1l0.4-0.1c0,0-0.1,0-0.1,0c0.4-0.1,0.8-0.2,1.1-0.4
	c0.5-0.3,0-0.2-0.2-0.3C79.5,122.7,80.2,122.3,79.7,122.2z"/>
<path class="st2" d="M82.2,116.2c1-1-1.9,0-1.5,0.2c-0.2,0.2-0.6,0.4-0.6,0.8c0.1,0.3,0.5,0.5,0.7,0.4c0.5-0.1,1.2-0.4,1.6-0.7
	C82.9,116.3,82.7,116.2,82.2,116.2z"/>
<path class="st2" d="M75.5,119.9c-0.1-0.1-0.2-0.1-0.3-0.1c-0.3,0-0.6,0.2-0.9,0.3c-0.5,0.2-0.6,0.4-0.6,0.7c0,0.5,0.3,0.7,0.7,0.6
	c0.5-0.1,1.1-0.5,1.4-0.9c0.2-0.4-0.2-0.2-0.3-0.4C75.5,120.1,75.6,119.9,75.5,119.9z"/>
<path class="st2" d="M90.7,121.1c-0.1-0.1-0.2-0.1-0.3-0.1c-0.3,0-0.6,0.2-0.9,0.3c-0.5,0.2-0.6,0.4-0.6,0.7c0,0.5,0.3,0.7,0.7,0.6
	c0.5-0.1,1.1-0.5,1.4-0.9c0.2-0.4-0.2-0.2-0.3-0.4C90.7,121.3,90.8,121.1,90.7,121.1z"/>
<path class="st2" d="M88.2,115.5c-0.1-0.1-0.2-0.1-0.3-0.1c-0.3,0-0.6,0.2-0.9,0.3c-0.5,0.2-0.6,0.4-0.6,0.7c0,0.5,0.3,0.7,0.7,0.6
	c0.5-0.1,1.1-0.5,1.4-0.9c0.2-0.4-0.2-0.2-0.3-0.4C88.2,115.7,88.3,115.5,88.2,115.5z"/>
<path class="st2" d="M73.7,124.2c-0.4-0.2-1,0-1.5,0.2c-0.2,0.1-1.1,0.7-0.7,0.8c-0.2,0.1-0.2,0.3-0.1,0.4c0.2,0.4,1,0.3,1.4,0
	l-0.5,0.2c0.4-0.2,0.8-0.3,1.2-0.5c0.5-0.3,0.4-0.3,0.1-0.5C74.1,124.5,74.1,124.3,73.7,124.2z"/>
<path class="st2" d="M77.9,126.9c0.5-0.4-0.9-0.2-1-0.1c-0.5,0.2-0.9,0.5-0.3,0.7c-0.4,0.5,1,0,0.9,0.1
	C78,127.4,78.8,126.8,77.9,126.9z"/>
<path class="st2" d="M93.2,117.8c0.5-0.4-0.9-0.2-1-0.1c-0.5,0.2-0.9,0.5-0.3,0.7c-0.4,0.5,1,0,0.9,0.1
	C93.3,118.2,94.1,117.7,93.2,117.8z"/>
<path class="st2" d="M26.5,93c-0.2,0.1-0.3,0.2-0.4,0.3L26.5,93z"/>
<path class="st2" d="M25.6,92c-0.9,0.4-0.3,0.6-0.7,1.1c0.4,0.2,1,0.1,1.5-0.1c0.6-0.4,1.5-0.9,1.2-1.3C27.4,91.3,26,91.8,25.6,92z"
	/>
<path class="st2" d="M29.4,87.1c-0.5,0.1-1,0.3-1.3,0.6c-0.6,0.6-0.3,1.2,0.3,1c0,0,0.1-0.1,0.2-0.1c0.6-0.3,1.1-0.4,1.5-0.8
	c0.7-0.3,0.2-0.3-0.3-0.3C30.1,87.2,29.8,87.1,29.4,87.1z"/>
<path class="st2" d="M23.4,89.2c-0.3-0.1-0.9,0.2-1.3,0.3c-0.3,0.1-0.6,0.2-0.7,0.4c-0.1,0.2-0.1,0.3,0.2,0.3
	c-0.2,0.1-0.3,0.2-0.2,0.4c0.2,0.3,0.8,0.1,1.1,0L22,90.7c0.4-0.1,1-0.2,1.4-0.5c0.5-0.3,0-0.2-0.2-0.3
	C23.3,89.6,23.9,89.3,23.4,89.2z"/>
<path class="st2" d="M25.9,83.2c1-1-1.9,0-1.5,0.2c-0.2,0.2-0.6,0.4-0.6,0.8c0.1,0.3,0.5,0.5,0.7,0.4c0.5-0.1,1.2-0.4,1.6-0.7
	C26.7,83.3,26.5,83.2,25.9,83.2z"/>
<path class="st2" d="M19.2,87.1c0,0,0.1-0.2,0-0.2c-0.1-0.1-0.2-0.1-0.3-0.1c-0.3,0-0.6,0.2-0.9,0.3c-0.5,0.2-0.6,0.4-0.6,0.7
	c0,0.5,0.3,0.7,0.7,0.6c0.5-0.1,1.1-0.5,1.4-0.9C19.8,87.1,19.4,87.3,19.2,87.1z"/>
<path class="st2" d="M34.4,88.3c0,0,0.1-0.2,0-0.2C34.3,88,34.2,88,34.1,88c-0.3,0-0.6,0.2-0.9,0.3c-0.5,0.2-0.6,0.4-0.6,0.7
	c0,0.5,0.3,0.7,0.7,0.6c0.5-0.1,1.1-0.5,1.4-0.9C35,88.3,34.6,88.5,34.4,88.3z"/>
<path class="st2" d="M31.9,82.5c-0.1-0.1-0.2-0.1-0.3-0.1c-0.3,0-0.6,0.2-0.9,0.3c-0.5,0.2-0.6,0.4-0.6,0.7c0,0.5,0.3,0.7,0.7,0.6
	c0.5-0.1,1.1-0.5,1.4-0.9c0.2-0.4-0.2-0.2-0.3-0.4C31.9,82.7,32,82.5,31.9,82.5z"/>
<path class="st2" d="M17.5,91.1c-0.4-0.2-1,0-1.5,0.2c-0.2,0.1-1.1,0.7-0.7,0.8c-0.2,0.1-0.2,0.3-0.1,0.4c0.2,0.4,1,0.3,1.4,0
	l-0.5,0.2c0.4-0.2,0.8-0.3,1.2-0.5c0.5-0.3,0.4-0.3,0.1-0.5C17.9,91.4,17.8,91.3,17.5,91.1z"/>
<path class="st2" d="M21.6,93.9c0.5-0.4-0.9-0.2-1-0.1c-0.5,0.2-0.9,0.6-0.3,0.7c-0.4,0.5,1,0,0.9,0.1
	C21.7,94.3,22.6,93.8,21.6,93.9z"/>
<path class="st3" d="M78.9,132.3c-4.9-1.3-5.4-2.6-6.7-8c-0.5-2.1-1.2-4-3.3-4.9c-1.3-0.5-2.8-1.1-3.8-2.2c-1.4-1.5-0.9-4-1.7-5.9
	c-0.2-0.4-0.4-0.8-0.7-1.2c-0.4-0.1-0.7-0.1-1.1-0.2c-4.2-1-8.1-2.7-11.6-4.9c-7.6-2-16.8-4.2-24.2,3.5c-2.9,3.1-5.1,7-6.3,11.1
	c8.7,9,19.5,15.5,31.6,18.9c0.8,0.2,1.6,0.4,2.4,0.6c0.1,0,0.2,0.1,0.3,0.1c0.7,0.2,1.3,0.3,2,0.5c2.7,0.6,5.4,1,8.1,1.3
	c0,0,0.1,0,0.1,0c0.9,0.1,1.7,0.2,2.6,0.2c0.4,0,0.8,0.1,1.2,0.1c0.6,0,1.3,0.1,1.9,0.1c0.8,0,1.5,0,2.3,0c0.3,0,0.5,0,0.8,0
	c0.1,0,0.2,0,0.3,0c0.5,0,1,0,1.5-0.1c0.2,0,0.4,0,0.6,0c0.1,0,0.2,0,0.3,0c5.1-0.3,10.1-1.1,15-2.4c0.1,0,0.1,0,0.2-0.1
	c0,0,0.1,0,0.1,0c0.9-0.2,1.7-0.5,2.6-0.8C89.9,133.7,83.5,133.5,78.9,132.3z"/>
<path class="st1" d="M44.8,134.1c1.2-3.5,4.4-5.7,7.9-6.6c2.8-0.7,7.7,0.1,9.7-2.4c2.3-2.9,0.7-6.7-1.3-9.2
	c-2.2-2.8-4.4-5.4-6.3-8.4c-3.6-1.6-6.9-3.7-9.8-6.2c-2.6-0.5-5.3-0.6-7.9-0.5c-5.3,0-8.2,1.8-12.8,4.4c-3.1,1.8-5.7,2.8-7.8,5.8
	c-0.7,1-1.3,2.1-1.7,3.2c1,1.3,2.1,2.5,3.2,3.7c7.2,7.9,16.1,14.1,26,18.1C44.5,135.5,44.9,134.8,44.8,134.1z"/>
<path class="st4" d="M41,133.2c-1.1-2.2-1.1-6.3-4.2-7.1c-0.3,1.3,0.4,3.3,1,4.5c0.6,1.2,1.7,3.2,3.3,3.3c0.1-0.3,0.1-0.7-0.1-1
	C41,133,41.1,133,41,133.2z"/>
<path class="st4" d="M38.2,138.5c0.1-0.1,0.2-0.2,0.2-0.2C38.3,138.4,38.2,138.4,38.2,138.5z"/>
<path class="st4" d="M48.5,126c2-1.9,4-3.6,6.3-5.3c1-0.7,3.6-1.4,3.9-2.5c0.6-1.9-1.9-0.3-2.6,0c-1.7,0.9-3.1,2-4.5,3.3
	c-2.8,2.7-5.5,5.5-8.3,8.2c-1.3,1.3-2.4,2.9-3.4,4.5c0.4,0.2,0.8,0.4,1.2,0.5c0.8-1,1.5-1.9,2.3-2.9C44.9,129.8,46.6,127.9,48.5,126
	z"/>
<path class="st4" d="M69.1,112.8c-1-0.3-2.5,0.3-3.5,0.5c-1.7,0.4-3.2,0.7-4.8,1.5c-2,1.1-4.3,2.4-5.6,4.3c0.7,0.2,1.9-0.1,1.7-0.1
	c0.2-0.3,0.4-0.2,0.8-0.3c1-0.1,2.1-0.1,3.1-0.2c1.7-0.1,3.3-0.8,4.8-1.6C66.4,116.6,71.4,113.5,69.1,112.8z"/>
<path class="st4" d="M55.2,118.2c0.1,0.5,0.5,1.1,0.5,0.4c0.3-1,1.6-2.3,2.1-3.3c0.8-1.6,1.4-3.2,1.7-5c0.1-0.3,0.1-0.7,0.2-1
	c-0.7-0.2-1.4-0.4-2.1-0.7c-0.6,1.3-1.1,2.7-1.6,4.1C55.4,114.4,54.8,116.4,55.2,118.2z"/>
<path class="st4" d="M51.9,114.2c0,1.7,0.2,3.3,0.4,5c0,0.2,0.2,2.7,0.5,1.2c0.6-0.9,0.8-2.3,1-3.3c0.4-1.8,0.6-3.7,0.6-5.6
	c0-1.3,0.1-2.8,0-4.2c-0.4-0.2-0.8-0.4-1.2-0.5c-0.2,0.6-0.3,1.1-0.4,1.5C52.3,110.2,52,112.1,51.9,114.2z"/>
<path class="st4" d="M50.4,108.4c-0.3-0.6-1.1-1.9-1.7-2.3c-0.6,0.6-0.8,2.1-0.9,3c-0.2,1.9-0.1,4.1,0.2,6c0.5,2.7,0.9,5.7,2.2,7.5
	c0.1,0,0.1-0.1,0.2-0.1c0.9-3.4,0.4-7.5,0.4-11C50.8,110.6,50.8,109.3,50.4,108.4z"/>
<path class="st4" d="M47,115.4c-0.4-1.7-0.8-3.4-1.4-5c-0.2-0.5-0.5-1.6-1.1-1.7c-1.9,3.8,0.7,8.4,2,12c0.6,1.5,1,3.5,1.8,4.1
	c0.2-0.7-0.1-1.5-0.2-2.2C47.9,120.2,47.6,117.7,47,115.4z"/>
<path class="st4" d="M46.1,126.3c0.4-0.4-0.3-1.7-0.4-2.2c-0.5-1.9-1.3-3.8-2-5.6c-0.4-1-1-2.6-1.9-3.2c-1.2,4.4,1.8,8.6,4.1,12.2
	C46.9,127.4,46.3,126.3,46.1,126.3z"/>
<path class="st4" d="M39.1,120c0.3,3.1,1,6,2.7,8.8c0.3,0.4,1.1,2,1.7,2.1c0.5,0.1,0.7-0.8,0.4-1.2C43,126.2,41.9,122.6,39.1,120z"
	/>
<path class="st4" d="M66.7,120.8c-1.9-0.7-3.8-1.3-5.7-1.9c-0.9-0.3-2.8-1.2-3.8-0.5c-0.3,0.2-0.5,0.7-0.1,0.9c1.7,0.9,3.9,1.7,6,2
	c1.2,0.2,2.3,0.3,3.5,0.4c0.8,0.1,1.8,0.4,2.6,0.1C68.9,121.2,67.3,121.1,66.7,120.8z"/>
<path class="st4" d="M65.6,123.9c-2.1-0.9-4.2-1.7-6.3-2.4c-1.3-0.5-4.5-1.7-5.9-0.7c0.1,0.2,0.3,0.4,0.3,0.3
	c0.1,0.1,0.9,0.4,1.2,0.6c1.7,0.9,3.6,1.5,5.3,2.4c2.7,1.3,5.2,1.6,8.1,1.2C68.2,124.5,66.3,124.1,65.6,123.9z"/>
<path class="st4" d="M59.7,125.3c-1.8-0.9-3.7-1.9-5.6-2.5c-0.8-0.2-2.5-1-3.2-0.5c-0.5,0.3-0.5,1,0,0.9c2.4,1.3,5.2,1.9,7.6,3.2
	c1.9,1.1,5,2.8,7.3,2.1c-0.4-0.4-1.1-0.6-1.5-0.8C62.7,127,61.3,126.1,59.7,125.3z"/>
<path class="st4" d="M61.3,129.8c-1.1-0.6-2.1-1.4-3.3-1.9c-1.6-0.7-3.3-1.3-4.9-2c-1.1-0.4-2.3-0.9-3.5-1.1
	c-0.6-0.1-1.8,0.6-0.9,0.8c2.6,1.2,4.8,3.4,7.5,4.6c1.4,0.6,2.9,0.9,4.5,1c0.7,0.1,2,0.3,2.6,0C63.2,130.6,61.8,130.1,61.3,129.8z"
	/>
<path class="st4" d="M49.5,128c-1.2-0.3-3-0.8-3.7,0.4c1,0.4,1.8,1.3,2.7,1.9c1.5,0.9,3.1,1.7,4.9,2.1c2,0.5,5.2,1.5,7.2,0.9
	c-1-1-3.2-1.4-4.5-2C53.9,130.2,51.8,128.7,49.5,128z"/>
<path class="st4" d="M50.4,132.7c-1.2-0.7-2.5-1.4-3.9-1.8c-0.3-0.1-3.3-0.5-2.8,0.6c0.5-0.1,1.2,1,1.6,1.3c1.1,1.1,2.1,1.7,3.7,2.1
	s5,1.6,6.5,0.5c-0.4-0.4-1.1-0.6-1.7-0.9C52.6,134,51.5,133.3,50.4,132.7z"/>
<path class="st4" d="M46.8,135.4c-1.1-0.6-2.2-1-3.3-1.3c-1.2-0.3-1.8-0.2-2.4,0.4c1,0.3,2,0.9,2.9,1.6c1.7,0.7,3.4,1.3,5.1,1.8
	c0.7,0,1.4-0.2,2-0.5C49.9,136.5,48.1,136.1,46.8,135.4z"/>
<path class="st2" d="M26.1,115.8c2.3-3.5,3.8-8.4,4.7-12.4c1-4.2,1.3-8.8-0.1-12.9c-1,3.8-2.9,7.7-4.2,11.6
	c-1.6,4.8-1.5,9.3-1.9,14.3c-3.1-0.4-3.1-8.3-3.6-10.5c-1.1-4.9-4.1-9.9-8.9-12c2.7,1.7,3.2,5.1,4.1,7.9c1.3,3.9,4.6,7.7,5.2,11.8
	c-4.2-3.8-8.6-8.5-13.9-10.9c1,2,2.1,3.9,3.3,5.8c3.7,2.1,8.3,3.3,9.9,7.7c-1.2,0-2.4-0.8-3.4-1.4c-1.2-0.6-2.3-1.3-3.4-1.9
	c0.8,1.1,1.6,2.1,2.5,3.2c0.7,0.2,1.3,0.5,2,0.8C20.9,118.2,23.8,118.5,26.1,115.8z"/>
<path class="st3" d="M104.2,7.6c-0.5,0.6-0.8,1.3-1,2c-0.6,2.7,1.5,5.9,4.4,6.3c0.8,0.2,1.6,0,2.2-0.4C108.9,12.4,107,9.5,104.2,7.6
	z"/>
<path class="st5" d="M82.7,126c-0.2,0.1-0.3,0.2-0.4,0.3L82.7,126z"/>
<g id="EAOC_1_">
</g>
<g id="EAOC_2_">
</g>
</svg>
