<?xml version="1.0" encoding="utf-8"?>
<!-- Generator: Adobe Illustrator 24.2.0, SVG Export Plug-In . SVG Version: 6.00 Build 0)  -->
<svg version="1.1" id="Calque_1" xmlns="http://www.w3.org/2000/svg" xmlns:xlink="http://www.w3.org/1999/xlink" x="0px" y="0px"
	 viewBox="0 0 110.6 141.7" style="enable-background:new 0 0 110.6 141.7;" xml:space="preserve">
<style type="text/css">
	.st0{fill:#FEFCF9;}
	.st1{fill:#FFFFFF;}
	.st2{fill:#FBDDD8;}
	.st3{fill:#2C2623;}
	.st4{fill:#F18C91;}
	.st5{fill:#76AE9D;}
	.st6{fill:#4F917D;}
	.st7{fill:#EFBC47;}
</style>
<g>
	<path class="st0" d="M108.6,114.1c-1.6-3.4-4.4-6-8-7.2c-3.5-1.2-7.3-1-10.7,0.6c-4.6,2.2-9.7,3.6-14.8,4c-0.1,0-0.1,0-0.2,0
		c-1.7,0.1-3.4,0.2-5.2,0.1c-2.7-0.1-5.4-0.5-8-1.2c-15.5-3.9-27.8-16.6-30.5-32.6c0,0,0-0.1,0-0.1c-0.1-0.6-0.2-1.2-0.3-1.8
		c0-0.1,0-0.3,0-0.4c-0.1-0.5-0.1-1-0.1-1.6c0-0.2,0-0.4,0-0.6c0-0.4,0-0.9-0.1-1.3c0-0.3,0-0.6,0-0.9c0-0.3,0-0.6,0-0.9
		c0-0.4,0-0.9,0.1-1.3c0-0.2,0-0.4,0-0.6c0-0.5,0.1-1.1,0.1-1.6c0-0.1,0-0.3,0-0.4c0.1-0.6,0.2-1.2,0.3-1.8c0,0,0-0.1,0-0.1
		c2.7-16,15-28.7,30.5-32.6c2.6-0.6,5.3-1,8-1.2c1.7-0.1,3.4-0.1,5.2,0.1c0.1,0,0.1,0,0.2,0c5.1,0.4,10.2,1.8,14.8,4
		c3.4,1.6,7.1,1.8,10.7,0.6c3.6-1.3,6.4-3.8,8-7.2c0.4-0.9,0.8-1.8,1.1-2.8c0.6-1.7,0.9-3.4,0.8-5.1c-0.1-5.6-3.4-11-8.8-13.4
		C98.3,5,94.7,3.7,91,2.7c0,0-0.1,0-0.1,0c-0.1,0-0.1,0-0.2-0.1c-4.9-1.3-9.9-2.1-15-2.4c-0.1,0-0.2,0-0.3,0c-0.2,0-0.4,0-0.6,0
		c-0.5,0-1,0-1.5-0.1c-0.1,0-0.2,0-0.3,0c-0.3,0-0.5,0-0.8,0c-0.8,0-1.5,0-2.3,0c-0.6,0-1.3,0-1.9,0.1c-0.4,0-0.8,0-1.2,0.1
		c-0.9,0.1-1.7,0.1-2.6,0.2c0,0-0.1,0-0.1,0c-2.7,0.3-5.4,0.7-8.1,1.3c-0.7,0.1-1.4,0.3-2,0.5c-0.1,0-0.2,0.1-0.3,0.1
		C52.8,2.6,52,2.8,51.2,3C38.4,6.6,26.9,13.7,18.1,23.5c-8.9,9.8-14.8,21.8-17,34.7C0.3,62.5,0,66.7,0,70.9c0,4.2,0.3,8.5,1.1,12.7
		c2.2,12.9,8.1,24.9,17,34.7c8.9,9.8,20.3,16.9,33.1,20.5c0.8,0.2,1.6,0.4,2.4,0.6c0.1,0,0.2,0.1,0.3,0.1c0.7,0.2,1.3,0.3,2,0.5
		c2.7,0.6,5.4,1,8.1,1.3c0,0,0.1,0,0.1,0c0.9,0.1,1.7,0.2,2.6,0.2c0.4,0,0.8,0.1,1.2,0.1c0.6,0,1.3,0.1,1.9,0.1c0.8,0,1.5,0,2.3,0
		c0.3,0,0.5,0,0.8,0c0.1,0,0.2,0,0.3,0c0.5,0,1,0,1.5-0.1c0.2,0,0.4,0,0.6,0c0.1,0,0.2,0,0.3,0c5.1-0.3,10.1-1.1,15-2.4
		c0.1,0,0.1,0,0.2-0.1c0,0,0.1,0,0.1,0c3.6-1,7.2-2.3,10.7-3.9c5.4-2.4,8.7-7.8,8.8-13.4c0-1.7-0.2-3.4-0.8-5.1
		C109.4,115.9,109,115,108.6,114.1z"/>
</g>
<path class="st1" d="M22.5,52.9c-1.3-1.8-2.7-3.4-4.7-4.6c-1.2-0.6-4.1-1.4-4.5,0.6c-0.2,1,0.6,1.9,0.4,2.8
	c-0.1,0.7-0.9,0.4-1.4,0.4C10.7,52,9.1,53,10,54.7c0.6,1.1,1.9,1.9,2.8,2.8c0.6,0.6,1.4,1.3,1.1,2.2c-0.2,0.7-0.5,1-0.4,1.8
	c0.2,1.1,0.9,2.1,1.6,2.9c1.2,1.3,2.7,2.4,4.2,3.4c0.4,0.3,0.9,0.6,1.4,0.8c1.3,0.4,1.9,0.4,3-0.1c0.8-0.2,1.4-0.6,2.1-1.1
	c1.1-0.7,2-1.6,2.5-2.8c0.9-2.3-0.7-4.8-2-6.7C25.1,56.2,23.7,54.6,22.5,52.9z"/>
<g>
	<g>
		<path class="st2" d="M20.3,59.6c-0.5-0.7-1.1-1.3-1.7-1.8c-0.4-0.4-1.1-0.9-1.8-0.7c-0.5,0.2-0.9,0.6-1,1.1
			c-0.2,0.4,0.1,0.9,0.3,1.3c-0.5-0.2-0.9,0.1-1.1,0.6c-0.2,0.7,0.2,1.3,0.7,1.8c0.7,0.8,1.5,1.3,2.2,2c0.4,0.2,1.4,0.1,2-0.1
			c0.4-0.1,0.9-0.3,1.2-0.6c0.5-0.3,0.5-0.8,0.4-1.3C21.3,61.1,20.8,60.3,20.3,59.6z"/>
	</g>
	<g>
		<path class="st2" d="M19.3,52.7c-0.4-0.6-0.9-1.1-1.4-1.6c-0.3-0.3-0.6-0.7-0.9-0.9c-0.5-0.2-1,0.2-1.1,0.7
			c-0.1,0.8,0.5,1.6,0.9,2.2c0.8,1.3,1.4,2.3,2.1,3.6c-0.7-0.2-1.2-0.5-1.8-0.9c-1-0.6-2-1.2-3-1.8c-0.6-0.3-1.6-1-2.2-0.4
			c-0.6,0.6,0.1,1.1,0.6,1.6c0.6,0.5,1.2,1,1.8,1.4c0.5,0.4,1.4,0.9,1.9,1.4c1.6,1.6,0.7,0.4,0.7,0.4c0.3-0.3,0.7,0.2,1.2,0.1
			c1.5-0.3,3-0.7,4.4-1.1c-0.4-0.8-0.9-1.4-1.4-2.1C20.5,54.4,19.9,53.5,19.3,52.7z"/>
	</g>
	<g>
		<path class="st2" d="M24.5,58.1c-0.7-0.8-1.9-1.8-3-1.4c-0.4,0.2-0.8,0.4-1.2,0.7c-0.3,0.2-0.5,0.4-0.8,0.5s-0.5,0.3-0.8,0.5
			c-0.7,0.5-1.3,1.6-1.4,2.4c-0.1,1.3,0.6,2.7,1.5,3.6c1.1,1.1,2.9,2.5,4.6,2.6c0.6,0.1,1-0.5,1.7-0.8c0.5-0.5,0.9-1,1.3-1.5
			c0.3-0.3,0.6-0.6,0.8-0.9c0.2-0.4-0.1-1.1-0.3-1.5C26.3,60.8,25.6,59.3,24.5,58.1z"/>
	</g>
	<g>
		<path class="st3" d="M22.3,62.3c-0.3-0.5-0.6-1.1-0.7-1.8C21.6,61.3,21.8,61.9,22.3,62.3z"/>
		<path class="st3" d="M18.1,57.5c0-0.1,0-0.2,0.1-0.3C18.2,57.3,18.1,57.4,18.1,57.5z"/>
		<path class="st3" d="M20.4,58.6c-0.1,0-0.1,0-0.2,0c-0.8,0.1-1.7,0-2-0.8c0-0.1-0.1-0.2-0.1-0.3c0,0.1,0,0.2,0.1,0.4
			c0.3,0.9,1.2,0.9,2.1,0.8C20.3,58.7,20.4,58.7,20.4,58.6c0.5,0,1.4-0.1,1.6,0.2C21.8,58.4,20.9,58.5,20.4,58.6z"/>
		<path class="st3" d="M21.9,59.2c0.1-0.1,0.2-0.3,0.1-0.4C22,58.9,22,59,21.9,59.2c-0.1,0-0.1,0.1-0.1,0.1
			c-0.1,0.5-0.2,0.8-0.2,1.2c0-0.3,0.1-0.7,0.2-1.1C21.8,59.3,21.9,59.3,21.9,59.2z"/>
		<path class="st3" d="M19.7,56.6c0.8-0.1,1.6-0.3,2.3-0.1c0.1,0,0.1,0,0.1,0c0-0.1,0-0.1,0-0.1c-0.8-0.2-1.5,0-2.3,0.1h-0.2
			c-0.4,0.1-1.1,0.3-1.4,0.7c0.3-0.4,0.9-0.5,1.3-0.6H19.7z"/>
	</g>
	<g>
		<path class="st3" d="M16.3,59.8c-0.1-0.2-0.2-0.3-0.3-0.4c-0.1,0-0.1,0-0.1,0c0,0.1,0,0.1,0,0.1S16.1,59.6,16.3,59.8
			c0.6,0.7,1.8,1.9,2.7,2.1c0.2,0,0.3,0.1,0.2,0.3c0.2,0,0.4-0.2,0.6-0.4c0-0.1,0.1-0.1,0.1-0.2c-0.2,0.2-0.4,0.3-0.6,0.3
			C18.4,62,17,60.5,16.3,59.8z"/>
		<path class="st3" d="M18.6,58.8c-0.3-0.3-0.6-0.6-0.9-0.8C18,58.2,18.2,58.5,18.6,58.8c0,0.1,0.1,0.2,0.2,0.3
			c0.5,0.5,1.5,1.6,1.1,2.5c0,0,0,0,0,0c0.6-0.8-0.2-1.7-1-2.5C18.8,59,18.7,58.9,18.6,58.8z"/>
		<path class="st3" d="M16,57.8c0,0.1-0.1,0.1-0.1,0.1V58H16c0-0.1,0.1-0.1,0.1-0.1c0.4-0.2,0.7-0.3,1.2-0.1
			c0.1,0.1,0.3,0.1,0.4,0.2c-0.1-0.1-0.3-0.2-0.5-0.3C16.7,57.5,16.4,57.6,16,57.8z"/>
	</g>
	<g>
		<path class="st3" d="M18.5,64.1C18.5,64,18.4,64.1,18.5,64.1L18.5,64.1z"/>
		<path class="st3" d="M18.7,61.9C18.7,62,18.7,62,18.7,61.9c0.4,0.4,0.6,1,0.5,1.5c-0.1,0.2-0.4,0.5-0.7,0.7
			c0.4-0.1,0.7-0.4,0.8-0.7C19.4,62.9,19.2,62.2,18.7,61.9C18.7,61.9,18.7,61.9,18.7,61.9z"/>
	</g>
	<g>
		<path class="st4" d="M18.1,62.1c-0.4-0.3-0.8-0.2-0.9,0.3c-0.2,0.6,0.3,0.7,0.7,1.1c0.5,0.2,0.9,0.3,0.9-0.3
			C18.8,62.8,18.4,62.3,18.1,62.1z"/>
	</g>
	<g>
		<path class="st4" d="M18.9,59.8c-0.3-0.2-0.7-0.1-0.8,0.4c-0.1,0.6,0.3,0.7,0.8,1.1c0.4,0.2,0.9,0.2,0.8-0.4
			C19.7,60.5,19.2,60,18.9,59.8z"/>
	</g>
</g>
<g>
	<g>
		<path class="st1" d="M14.2,71.8c-0.8,0-1.7,0.4-2.5,0.6c-1,0.3-2.1,0.6-3.1,0.8c-2.4,0.5-4.7,1.5-6.1,3.5c-1.3,1.9-2.3,4.3-1,6.4
			C2,83.9,3,84.5,3.9,84.6c0.8,2.6,3.8,3.6,6.1,3.3c4.2-0.7,6.3-5.6,6.5-9.4c0.1-1.5-0.1-3.2-0.5-4.6C15.7,72.9,15.4,71.9,14.2,71.8
			z"/>
	</g>
	<g>
		<path class="st5" d="M14.4,77.1c-0.1,0.1-0.1,0.2-0.1,0.3c0,0.2-0.2,0.3-0.3,0.5c-0.4,0.5-1.2,0.9-1.8,0.8
			c-0.4-0.1-0.4-0.4-0.1-0.7c0.5-0.5,1.2-0.5,1.8-0.8c0.8-0.5,0.5-1.2,0.1-1.9c-0.2-0.5-0.5-0.8-0.4-1.4c-0.2-0.1-0.5,0.1-0.8,0.1
			c-0.5,0.1-1.1,0.2-1.6,0.2c-0.4,0.1-0.9,0.1-1.2,0.4c-0.2,0.3-0.2,0.7-0.2,1c0,0.3-0.2,1.1-0.6,1.2c-0.2,0.1-0.3-0.1-0.4-0.3
			c-0.1-0.4,0-1.1,0.2-1.5c0.1-0.3,0.3-0.5,0.5-0.7c-0.4-0.1-1.9,0.1-2.1,0.6c-0.1,0.2,0,0.5,0.1,0.7c0.1,0.4,0.2,0.9,0.2,1.3
			c0,0.3,0,1.3-0.4,1.4c-0.3,0.1-0.5-0.6-0.6-0.8c-0.2-0.9-0.2-1.8,0.3-2.6c-0.7,0.4-1.5,0.9-1.9,1.7c-0.4,0.8,0.7,1.2,0.9,1.8
			c0.4,1-0.7,1.1-1.3,0.6c-0.3-0.3-0.3-0.8-0.6-1.2c-0.3,0.1-0.5,0.6-0.6,0.9c-0.3,0.5-0.4,1-0.5,1.5c-0.1,1.1-0.1,2.2,1.1,2.6
			c0.4,0.1,1,0.1,1.4,0c0.2-0.1,0.6-0.3,0.8-0.2c0.3,0,0.2,0.4,0,0.5c-0.8,1.4,0.5,3,2.1,3.2c1.8,0.3,2.8-0.6,4-1.8
			c-0.7,0.6-1.2,0.5-2,0.2c-0.3-0.1-1-0.5-1.1-0.9c0-0.4,0.6-0.3,0.9-0.2c0.9,0.2,2.1,0.9,2.9,0.1c0.4-0.4,0.6-1,0.8-1.6
			c0.1-0.3,0.3-0.7,0.3-1.1c-0.3,0.9-1.4,1.3-2.4,1.1c-0.4-0.1-1.3-0.2-1.5-0.6c-0.4-0.9,1.6-0.8,2-0.8c0.6,0.1,1.6,0.2,2.1-0.2
			c0.3-0.3,0.4-0.8,0.4-1.2c0-0.5-0.1-0.9-0.2-1.4C14.5,77.7,14.5,77.3,14.4,77.1z"/>
	</g>
	<g>
		<path class="st6" d="M12.2,75.3c-0.1,0.1-0.1,0.3-0.2,0.4c-0.4,0.8-0.9,1.4-1.4,2.1C9.8,79,8.8,80.1,7.9,81
			c-0.1,0.1-0.2,0.3-0.3,0.4c-0.4,0.4-0.8,0.9-1.2,1.1c-0.1,0-0.1,0,0,0.1c0.5-0.3,0.9-0.7,1.3-1.1c0.1-0.2,0.2-0.3,0.3-0.4
			c0.8-1,1.8-2.1,2.7-3.2c0.5-0.7,1-1.4,1.4-2.1C12.2,75.7,12.2,75.5,12.2,75.3c0.2-0.1,0.3-0.3,0.4-0.5v-0.1h-0.1
			C12.4,74.8,12.3,75.1,12.2,75.3z"/>
	</g>
</g>
<g>
	<g>
		<path class="st1" d="M55,116.4c-1.2,0.6-2.3,2-3.7,2.1c-0.8,0-1.7-0.1-2.6-0.1c-0.7,0-1.6,0.1-2-0.5c-0.3-0.5,0.1-1.3,0-1.9
			c-0.2-1-0.9-1.7-2.1-1.7c-1.5,0-3,1-4.1,1.9c-1,0.8-2.4,1.8-2.9,3c-0.7,1.4-0.4,3.4,0,4.8c0.3,1.3,0.9,2.5,2,3.3
			c1.1,0.8,2.5,1.5,3.7,0.5c0.5-0.4,0.8-0.8,1.1-1.3c0.1-0.3,0.4-0.9,0.7-1.2c0.8-0.6,1.3,0.7,1.6,1.1c0.5,0.9,1,1.6,2.2,1.7
			c1.3,0.1,2.3-0.6,3.2-1.3c0.8-0.6,1.5-1.2,2-2.1c0.4-0.6,0.5-1.5,1-2.1c2.1-0.7,6.2-3.4,4.2-5.8C58.3,115.5,56.5,115.8,55,116.4z"
			/>
	</g>
	<g>
		<path class="st2" d="M43.2,120.2c-0.7,0.2-1.1,1-1.8,1.3c-0.2-0.3-0.4-0.7-0.8-0.9c-0.3-0.2-0.9-0.6-1.3-0.4
			c-0.3,0.1-0.4,0.7-0.5,0.9c-0.1,0.6,0,1.2,0.2,1.7c0.4,1.3,1,2.7,2.1,3.5v-0.1c0.3,0.2,0.6-0.2,1-0.6c0.5-0.5,1-1.2,1.5-1.8
			c0.4-0.6,0.7-1.1,1-1.8c0.1-0.4,0.3-0.8,0.1-1.3S43.7,120.1,43.2,120.2z"/>
	</g>
	<g>
		<path class="st2" d="M51.8,120.8c-0.8,0.1-1.2,1-1.9,1.2c-0.2-0.3-0.4-0.7-0.8-0.9c-0.3-0.1-0.9-0.6-1.3-0.4
			c-0.2,0.1-0.4,0.7-0.5,0.9c-0.2,0.5,0,1.2,0.1,1.7c0.4,1.2,0.9,2.6,2,3.5v-0.1c0.3,0.3,0.7-0.1,0.9-0.5c0.6-0.6,1.1-1.2,1.6-1.8
			c0.5-0.5,0.8-1,1.1-1.7c0.2-0.4,0.3-0.8,0.2-1.3C53.1,120.8,52.3,120.7,51.8,120.8z"/>
	</g>
	<g>
		<path class="st4" d="M49.1,127c-0.1-0.1-0.1-0.1-0.2-0.2c-0.1-0.1-0.1-0.1-0.1-0.1L49.1,127z"/>
		<path class="st4" d="M52.7,120.3c-1-0.1-2.2,0.6-2.8,1.3c-0.2-0.5-0.5-1-0.9-1.3c-0.6-0.5-1.6-0.6-2,0.2c-0.7,1.3,0,3.1,0.5,4.3
			c0.4,0.7,0.9,1.5,1.4,2c0.1,0.1,0.3,0.3,0.6,0.3c0-0.3-0.2-0.5-0.1-0.7c0-0.1,0-0.1,0-0.1c-0.7-0.7-1.5-1.9-1.7-2.9
			c-0.2-0.6-0.6-2.8,0.8-2.4c0.6,0.2,1,1,1.2,1.6c0.8-0.5,1.4-1.5,2.4-1.4c1.7,0.1-0.1,2.5-0.5,3.1c-0.5,0.7-1.4,1.4-2.1,2
			c0,0-0.1,0.1-0.1,0.1c0,0.1,0.1,0.4,0.1,0.7l0,0v0c0.2-0.1,0.3-0.3,0.5-0.4c0.6-0.4,1.1-0.9,1.5-1.4c0.5-0.5,1-1.1,1.4-1.8
			C53.4,122.7,54.2,120.6,52.7,120.3z"/>
		<path class="st4" d="M49.4,126.3c-0.1,0.2,0.1,0.4,0.1,0.7l0,0C49.5,126.7,49.5,126.5,49.4,126.3z"/>
	</g>
	<g>
		<path class="st4" d="M41.5,125.9L41.5,125.9c-0.2,0.2,0,0.4,0.1,0.8c0,0,0.1,0,0.1-0.1c0-0.4-0.1-0.6-0.1-0.6
			C41.6,125.9,41.5,125.9,41.5,125.9z"/>
		<path class="st4" d="M44.4,119.8c-1-0.1-2.1,0.6-2.7,1.4c-0.3-0.5-0.6-0.9-1-1.2c-0.7-0.4-1.6-0.5-2,0.3c-0.7,1.2,0,3,0.6,4.2
			c0.4,0.8,1.1,1.6,1.7,2.2l-0.1-0.3c0.2,0.2,0.5,0.4,0.8,0.4c0-0.1,0-0.1,0-0.2c0,0-0.1,0.1-0.1,0.1c-0.1-0.4-0.3-0.6-0.1-0.8l0,0
			c-0.8-0.7-1.5-1.7-1.8-2.7c-0.2-0.6-0.7-2.9,0.7-2.5c0.6,0.1,1,0.9,1.2,1.5c0.7-0.5,1.3-1.5,2.3-1.5c1.7,0,0,2.5-0.4,3.1
			c-0.5,0.7-1.3,1.5-2,2.1c0,0,0.1,0.1,0.1,0.1c0,0,0.1,0.2,0.1,0.6c0.1-0.1,0.2-0.2,0.4-0.3c0.5-0.3,1-0.9,1.4-1.4
			c0.5-0.6,1-1.2,1.3-1.9C45.2,122.2,46,120,44.4,119.8z"/>
	</g>
	<g>
		<path class="st4" d="M57.4,117.7c-0.9,0.3-1.8,1.1-2.4,1.7c-0.5,0.5-1.1,1.1-1.6,1.7c0,0.1-0.3,0.1-0.4,0.3c0,0.2,0.1,0.5,0.2,0.7
			c0.3-0.2,0.5-0.5,0.7-0.7c0.7-0.6,1.4-1.2,2-1.8c0.2-0.3,1.5-1.8,1.9-1.3c0.2,0.2-0.2,1.2,0.4,0.8c0.2-0.2,0.4-0.6,0.3-0.9
			C58.4,117.7,57.9,117.6,57.4,117.7z"/>
	</g>
	<g>
		<path class="st4" d="M43.7,115.8c-0.8,0.3-1.7,1.2-2.3,1.8c-0.5,0.6-1,1.2-1.5,1.8c-0.4,0.4-0.8,0.5-0.7,0.7
			c0,0.2,0.6,0.1,0.7,0.3c0.2-0.3,0.4-0.6,0.6-0.8c0.7-0.6,1.3-1.3,1.9-1.9c0.2-0.2,1.4-1.8,1.8-1.3c0.1,0.2-0.2,1.3,0.4,0.8
			c0.3-0.2,0.4-0.6,0.3-0.9C44.7,115.7,44.1,115.7,43.7,115.8z"/>
	</g>
	<g>
		<path class="st4" d="M44.8,120.9c-0.1,0.4-0.1,0.5,0,0.7c0.2,0.1,0.3-0.2,0.5-0.3c0.2-0.2,0.5-0.3,0.8-0.3c0.4,0,1,0.6,1.1,1
			c0-0.3,0.1-0.8-0.1-1.1C46.6,120.1,45.5,120.3,44.8,120.9z"/>
	</g>
	<g>
		<path class="st1" d="M40,121.9c0-0.4-0.3,0.2-0.3,0.4c0,0.2,0.1,0.8,0.4,0.9c0.1,0,0.2,0.1,0.3,0.2c-0.1-0.2-0.2-0.3-0.2-0.5
			C40.1,122.6,40,122.2,40,121.9z"/>
	</g>
	<g>
		<path class="st1" d="M48.2,121.9c0-0.4-0.3,0.2-0.3,0.4c0,0.2,0.1,0.8,0.4,0.9c0.1,0,0.2,0.1,0.3,0.2c-0.1-0.2-0.2-0.3-0.2-0.5
			C48.3,122.6,48.2,122.2,48.2,121.9z"/>
	</g>
	<g>
		<path class="st5" d="M35.4,120.7c-0.5,0-1,0-1.5,0.1c-0.5,0.1-1,0.2-1.5,0.1c-0.1-0.1-0.2,0-0.2,0.1c-0.1,0.1,0,0.2,0.1,0.2
			c0.6,0,1.1,0,1.6-0.1c0.4-0.1,0.9-0.1,1.4-0.1c0.1,0,0.1,0,0.2-0.1S35.5,120.7,35.4,120.7z"/>
	</g>
	<g>
		<path class="st5" d="M35.2,118.2c-0.2-0.1-0.5-0.2-0.7-0.3c-0.4-0.3-0.9-0.5-1.4-0.6c-0.1-0.1-0.2,0-0.2,0.1
			c-0.1,0.1,0,0.2,0.1,0.2c0.4,0,0.9,0.3,1.3,0.5c0.2,0.1,0.5,0.2,0.7,0.3h0.1c0.1,0,0.1,0,0.2,0C35.3,118.3,35.3,118.2,35.2,118.2z
			"/>
	</g>
	<g>
		<path class="st5" d="M36.2,115.4l-0.4-0.3c-0.4-0.3-0.9-0.5-1.3-0.8c0-0.1-0.2-0.1-0.2,0c-0.1,0-0.1,0.1,0,0.2
			c0.4,0.3,0.9,0.5,1.3,0.8l0.4,0.3h0.1c0,0,0.1-0.1,0.2,0C36.3,115.6,36.3,115.4,36.2,115.4z"/>
	</g>
</g>
<g>
	<g>
		<path class="st5" d="M23.7,84.6c-0.4-0.1-0.9-0.3-1.2-0.5c-0.1-0.1-0.2-0.1-0.3,0c-0.1,0.1-0.1,0.2,0,0.3c0.3,0.3,0.8,0.4,1.3,0.6
			c0.4,0.2,0.7,0.3,0.9,0.4h0.1c0.1,0,0.1-0.1,0.2-0.1c0.1-0.1,0.1-0.2,0-0.3C24.5,84.8,24.1,84.7,23.7,84.6z"/>
	</g>
	<g>
		<path class="st5" d="M26.9,82.6c-0.4-0.4-0.8-0.9-1.2-1.2c-0.1-0.1-0.2-0.1-0.3,0c-0.1,0.1-0.1,0.2,0,0.3c0.4,0.3,0.7,0.8,1.1,1.2
			c0.1,0.2,0.3,0.3,0.4,0.5c0,0.1,0,0.1,0.1,0.1c0,0,0.1,0,0.3-0.1c0.1-0.1,0.1-0.2,0-0.3C27.2,82.9,27,82.8,26.9,82.6z"/>
	</g>
	<g>
		<path class="st5" d="M28.8,81.8c-0.1-0.2-0.1-0.4-0.2-0.7c-0.1-0.4-0.2-0.8-0.3-1.1c0-0.1-0.1-0.1-0.2-0.1C28,79.9,28,80,28,80.1
			c0.1,0.3,0.2,0.6,0.3,1c0.1,0.2,0.1,0.5,0.2,0.7C28.5,81.8,28.6,81.9,28.8,81.8C28.9,81.9,29,81.8,28.8,81.8z"/>
	</g>
	<g>
		<path class="st1" d="M30,83.6c-2.1,1.1-3,3.6-3.6,5.7c-0.3,1.2-0.5,2.4,0.2,3.5c0.4,0.7,1.2,1.1,1.6,1.8c0.3,0.7-0.1,1.3-0.3,2
			c-0.4,1.4-0.4,2.9,0.1,4.2c0.9,2.7,3.3,4.1,5.9,5c0.8,0.3,2.1,0.9,2.9,0.5c1,0.4,2.3-0.5,2.9-1.5c1.3-1.9,1.8-4.2,1.7-6.5
			c-4-4.3-7-9.4-8.8-15C31.7,83,30.9,83.1,30,83.6z"/>
	</g>
	<g>
		<path class="st5" d="M32,94C32,94,32,94,32,94C32,94,32,94,32,94z"/>
		<path class="st5" d="M32,94.1C32,94.1,32,94.1,32,94.1C32,94.1,32,94.1,32,94.1z"/>
		<path class="st5" d="M32,94C32,94,32,94,32,94C31.9,94,31.9,94,32,94C31.9,94.1,32,94.1,32,94C32,94.1,32,94.1,32,94z"/>
		<path class="st5" d="M34.3,88c-0.5,0.2-1,0.8-1.4,1.2c-0.2-1,0.6-2,0.4-2.9c-0.4,0.5-0.8,1.3-1.3,1.8c-0.4-1.1-0.8-3.1-1.7-3.8
			c-0.2,1.2,0.1,2.8,0.4,3.9c-0.5-0.4-1.2-1.4-1.8-1.5c0.2,1.2,0.8,2.3,1.2,3.4c0,0.1-0.1,0.1-0.1,0.1c-0.9,0-1.8-0.4-2.7-0.6
			c0.8,0.9,2.8,1.8,3.1,2.9c-0.8,0.1-1.7-0.1-2.4-0.1c1.2,0.7,2.8,0.9,4,1.7c0,0,0,0,0,0c0,0,0,0,0,0c0,0,0,0,0,0
			c1.3,0.4,1.6-0.3,2.2-1.4c0.5-0.9,0.9-1.8,0.9-2.8c-0.4,0.1-0.7,0.4-1.2,0.5C33.7,89.6,34.5,88.8,34.3,88z"/>
	</g>
	<g>
		<path class="st7" d="M33.9,92.2c-1.1,0.2-2.3,1.1-3.1,1.9l0.1,0c0.6-0.7,1.5-1.3,2.4-0.9L30.9,94c-0.3,0.3-0.5,0.6-0.7,0.9
			c-1.2,2.4-0.4,4.7,0.9,6.8c1.6,2.8,6.3,3.9,8.1,0.3c0.8-1.6,0.8-4.3-0.1-6.5c-0.7-0.8-1.3-1.7-1.9-2.6
			C36.4,92.3,35.3,91.9,33.9,92.2z"/>
		<path class="st7" d="M30.9,94l2.4-0.9C32.4,92.7,31.5,93.3,30.9,94z"/>
	</g>
	<g>
		<path class="st1" d="M32.5,93.1c-0.1,0.3-0.2,0.5-0.3,0.8c-0.1,0.1-0.1,0.1-0.1,0.2c-0.4,0.9-0.8,1.9-1.1,3
			c-0.3,0.9-0.5,1.9-0.7,2.9v0.1c0,0-0.1,0.4,0,0.5c0.1-0.1,0.1-0.3,0.1-0.4v-0.1c0.2-0.9,0.4-1.9,0.7-2.9c0.4-1.1,0.7-2.1,1.1-3
			c0-0.1,0.1-0.1,0.1-0.2C32.4,93.8,32.6,93.5,32.5,93.1C32.6,93.1,32.6,93.1,32.5,93.1C32.5,93,32.5,93.1,32.5,93.1z"/>
	</g>
	<g>
		<path class="st1" d="M31.9,102.7C32,102.7,32,102.6,31.9,102.7L31.9,102.7z"/>
		<path class="st1" d="M34.6,93.8c-0.1,0.6-0.3,1.1-0.5,1.7c-0.1,0.3-0.2,0.6-0.3,0.9c-0.6,1.6-1.2,3.2-1.6,4.9
			c-0.1,0-0.1,0.1-0.1,0.2c-0.3,1-0.3,1.1-0.2,1.2c0.1-0.2,0.3-0.9,0.4-1.1c0.1-0.1,0.1-0.2,0.1-0.2c0.4-1.7,0.9-3.3,1.5-4.9
			c0.1-0.3,0.2-0.6,0.3-0.9c0.2-0.5,0.3-1.1,0.5-1.7c0.1-0.5,0.2-1,0.4-1.5c0-0.1,0-0.1,0-0.1c-0.1,0-0.1,0-0.1,0
			C34.9,92.8,34.7,93.3,34.6,93.8z"/>
	</g>
	<g>
		<path class="st1" d="M33.8,103.2c-0.1,0.2-0.1,0.5-0.1,0.7C33.8,103.6,33.9,103.3,33.8,103.2z"/>
		<path class="st1" d="M33.7,104C33.8,104,33.8,103.9,33.7,104L33.7,104z"/>
		<path class="st1" d="M37.2,93.5C37.2,93.4,37.2,93.4,37.2,93.5C37.2,93.4,37.2,93.4,37.2,93.5C37.2,93.5,37.2,93.5,37.2,93.5z"/>
		<path class="st1" d="M33.8,103.2c0-0.1,0-0.1,0-0.2C33.9,103.1,33.8,103.1,33.8,103.2C33.8,103.2,33.8,103.2,33.8,103.2z"/>
		<path class="st1" d="M36.9,94.4c-0.3,1.3-0.8,2.6-1.2,3.7c-0.2,0.6-0.4,1.1-0.6,1.7c-0.4,1-0.8,2-1.1,3c0-0.1,0-0.1,0.1-0.2
			c0.3-1,0.7-2,1.1-3c0.2-0.5,0.4-1.1,0.6-1.7C36.2,96.8,36.6,95.5,36.9,94.4c0.1-0.2,0.1-0.2,0.2-0.3c0.1-0.2,0.1-0.4,0.1-0.6
			c0,0.2-0.1,0.5-0.2,0.7C37,94.3,37,94.3,36.9,94.4z"/>
		<path class="st1" d="M33.9,103.1c0.1-0.1,0.1-0.2,0.1-0.3C34,102.8,34,102.9,33.9,103.1C33.9,103,33.9,103,33.9,103.1z"/>
	</g>
	<g>
		<path class="st1" d="M38.7,97.7c-0.1,0.2-0.1,0.3-0.2,0.5c-0.5,1.4-1.1,2.8-1.7,4.2c-0.2,0.6-0.5,1.1-0.7,1.8
			c0.3-0.6,0.5-1.2,0.8-1.7c0.6-1.3,1.2-2.8,1.7-4.2C38.7,98.1,38.7,98,38.7,97.7c0.3-0.4,0.5-0.9,0.6-1.4c0-0.1,0-0.1,0-0.1
			c-0.1,0-0.1,0-0.1,0C39.1,96.7,38.9,97.2,38.7,97.7z"/>
	</g>
	<g>
		<path class="st1" d="M36.9,102.9c-0.7-0.1-1.2-0.4-1.8-0.6c-0.4-0.1-0.7-0.3-1.1-0.4c-0.7-0.2-1.5-0.5-2.2-0.9
			c-0.6-0.3-1.1-0.4-1.6-0.5c0,0.1,0,0.1,0,0.1h0.1c0.1,0,0.1,0,0.1,0c0.5,0.1,0.9,0.2,1.4,0.5c0.7,0.4,1.5,0.7,2.2,1
			c0.4,0.1,0.7,0.2,1.1,0.4c0.6,0.2,1.2,0.5,1.8,0.6c0,0,0.1,0,0.2,0c0.2,0.1,0.4,0.1,0.6,0.2c-0.2-0.2-0.4-0.2-0.6-0.4
			C37.1,102.9,37,102.9,36.9,102.9z"/>
	</g>
	<g>
		<path class="st1" d="M39.3,101.5c-0.1-0.1-0.3-0.1-0.4-0.2C39,101.4,39.2,101.4,39.3,101.5z"/>
		<path class="st1" d="M36.3,100.2c-1-0.4-1.9-0.8-2.9-1.1c-0.5-0.2-0.9-0.3-1.4-0.5c-0.2,0-0.4-0.2-0.7-0.3
			c-0.7-0.3-1.5-0.7-1.8-0.6v0.1h0.1c0.3-0.1,1.1,0.3,1.7,0.6c0.3,0.1,0.5,0.2,0.7,0.3c0.5,0.2,0.9,0.3,1.4,0.5
			C34.4,99.6,35.4,99.9,36.3,100.2c0.7,0.5,1.5,0.7,2.3,1c0.1,0,0.2,0.1,0.3,0.1c-0.1-0.1-0.2-0.1-0.3-0.2
			C37.8,100.8,37,100.5,36.3,100.2z"/>
	</g>
	<g>
		<path class="st1" d="M36.2,97.4c-0.3-0.1-1.8-0.8-3.1-1.3c-0.6-0.3-1.3-0.6-1.8-0.8C30.4,95,30.4,95,30.4,95c0,0.1,0,0.1,0,0.1
			c0.1,0,5.1,2.1,5.7,2.4c0.5,0.2,0.9,0.5,1.4,0.7c0.7,0.3,1.4,0.6,2.1,0.9c-0.7-0.4-1.4-0.7-2-1C37.1,97.9,36.7,97.6,36.2,97.4z"/>
	</g>
	<g>
		<path class="st1" d="M32.5,92.7C32.4,92.7,32.4,92.7,32.5,92.7C32.4,92.8,32.4,92.8,32.5,92.7c0.8,0.6,1.8,1,2.9,1.4
			c1.2,0.5,2.5,1,3.7,1.6c-1.2-0.7-2.5-1.2-3.6-1.7S33.4,93.2,32.5,92.7z"/>
	</g>
	<g>
		<path class="st3" d="M33.2,100c-0.1,0-0.3,0.2-0.2,0.3c-0.3,0.2,0.1,0.8,0.4,0.8c0.4,0,0.5-0.5,0.3-0.8
			C33.6,100.1,33.4,99.9,33.2,100z"/>
	</g>
	<g>
		<path class="st3" d="M37,98.4c-0.1,0-0.3,0.2-0.2,0.3c-0.3,0.2,0.1,0.8,0.4,0.8c0.4,0,0.5-0.5,0.3-0.8
			C37.4,98.5,37.2,98.3,37,98.4z"/>
	</g>
	<g>
		<path class="st3" d="M34.9,100.7h-0.1v0.1c0.2,0.2,0.4,0.3,0.6,0.3c0.1,0,0.2-0.1,0.4-0.2C35.4,101.1,35.1,100.9,34.9,100.7z"/>
		<path class="st3" d="M36.2,100.2c0,0.3-0.2,0.6-0.4,0.7C36.1,100.8,36.3,100.4,36.2,100.2L36.2,100.2L36.2,100.2z"/>
	</g>
	<g>
		<path class="st4" d="M21,106.2c-0.1-0.1-0.2,0-0.2,0.1c-0.1,0.6-0.4,1.5-0.6,1.7c-0.1,0-0.1,0.1,0,0.2h0.1c0,0,0.1-0.1,0.1,0.1
			c0.3-0.4,0.6-1.3,0.7-1.9C21.2,106.3,21.1,106.2,21,106.2z"/>
	</g>
	<g>
		<path class="st4" d="M23.9,104.4c0,0-0.2,0-0.2,0.1c-0.2,0.4-0.4,0.8-0.5,1.2l-0.1,0.2c0,0.1,0.1,0.2,0.2,0.2
			c0.1,0,0.2-0.1,0.2-0.1v-0.3c0.1-0.4,0.3-0.8,0.5-1.1C24,104.6,24,104.4,23.9,104.4z"/>
	</g>
	<g>
		<path class="st4" d="M25.2,107.6c0,0-0.2,0-0.2,0.1c-0.1,0.2-0.2,0.4-0.3,0.6c-0.2,0.4-0.4,0.8-0.6,1c-0.1,0-0.1,0.1,0,0.2
			c0,0.1,0.1,0.1,0.1,0.1s0.1,0,0.1-0.1c0.3-0.2,0.5-0.7,0.7-1.1c0.1-0.2,0.2-0.4,0.3-0.6C25.3,107.8,25.3,107.6,25.2,107.6z"/>
	</g>
	<g>
		<path class="st4" d="M26.9,104c-0.2,0.2-0.4,0.6-0.5,0.9c-0.1,0.3-0.2,0.5-0.3,0.6c-0.1,0-0.1,0.1,0,0.2h0.1c0.1,0,0.1,0,0.2,0.1
			c0.1-0.2,0.2-0.4,0.3-0.7c0.1-0.4,0.2-0.7,0.4-0.9c0.1,0,0.1-0.1,0-0.2C27.1,103.9,27,103.9,26.9,104z"/>
	</g>
	<g>
		<path class="st4" d="M23,100.9c0,0-0.2,0-0.2,0.1l-0.1,0.2c-0.2,0.4-0.5,0.8-0.6,1.3c0,0.1,0.1,0.2,0.2,0.2c0.1,0,0.1-0.1,0.1-0.2
			c0.1-0.4,0.4-0.8,0.6-1.2l0.1-0.2C23.1,101.1,23.1,100.9,23,100.9z"/>
	</g>
	<g>
		<path class="st4" d="M25.7,100.5c-0.3,0.3-0.5,0.6-0.7,1c0,0-0.1,0-0.1,0.1v0.1c0,0.1,0,0.1,0,0.1c-0.1,0.1-0.1,0.2,0.1,0.3
			c0.1,0,0.1-0.1,0.1-0.1c0.2-0.4,0.5-0.9,0.8-1.3c0.1,0,0.1-0.1,0-0.2C25.9,100.4,25.8,100.4,25.7,100.5z"/>
	</g>
	<g>
		<path class="st4" d="M27.8,107.2c-0.2,0.2-0.3,0.5-0.5,0.8c-0.2,0.3-0.4,0.7-0.5,0.7c-0.1,0-0.1,0.1-0.1,0.2
			c0.1,0.1,0.1,0.1,0.2,0.1c0.3-0.1,0.5-0.5,0.6-0.9c0.2-0.3,0.3-0.5,0.5-0.7c0.1,0,0.1-0.1,0-0.2C28,107.1,27.9,107.1,27.8,107.2z"
			/>
	</g>
	<g>
		<path class="st4" d="M29.2,101.9c-0.1,0-0.2,0-0.2,0.1c-0.1,0.1-0.5,0.6-0.7,0.9c-0.1,0-0.1,0.1,0,0.2h0.1c0,0,0.1-0.1,0.2,0
			c0,0,0.6-0.7,0.7-1C29.3,102,29.3,101.9,29.2,101.9z"/>
	</g>
</g>
<g>
	<path class="st1" d="M74,126.3c-1.1-0.7-2.1-1-3.4-1.1c-1.3,0-2.6,0.1-3.8,0.5c-1.2,0.4-2.2,1-3.1,1.8c-0.6,0.4-1.9,1.6-2,2.4
		c-0.3,1-1.1,2.9-1.1,4.2c0.3,2,0.2,3.7,0.9,5.6c0.2,0.4,2.1,0,2.6,0c0.9,0,2.1-0.4,2.9-0.8c0.7-0.3,1.4-0.8,1.6-1.6
		c0.3-0.7,0-1.5-0.1-2.2s0.1-1.7,1-1.6c0.7,0.1,1.2,0.8,1.5,1.3c0.3,0.4,0.5,1.1,1,1.3c0.6,0.1,1.3-0.1,1.8-0.2c1.5-0.3,2.7-1.2,4-2
		c0.6-0.4,1-0.7,0.8-1.5C77.9,129.9,76.2,127.7,74,126.3z"/>
	<path class="st7" d="M73.1,130.1c-1.3-1.4-3.2-2.2-5-1.3c-2.1,1-3.3,3-3.2,5.3c0,0.9,0.2,1.6,0.6,2.4c-0.1,0.3,0.1,0.6,0.3,1
		c0.1,0.4,1.4-0.1,1.6-0.3c0,0-0.1-0.2-0.1-0.6c-0.2-0.8-0.2-1.7-0.2-2.5c0-1.1,0.5-2.4,1.5-3c0.9-0.5,1.9-0.3,2.6,0.3
		c0.9,0.7,1.2,2,1.5,3.1c0.6-0.1,1.3-0.4,1.9-0.7c0-0.4-0.1-0.8-0.2-1.1C74.1,131.8,73.7,130.9,73.1,130.1z"/>
	<path class="st5" d="M73.6,130.2c-0.9-0.9-1.9-1.6-3.1-2c-1.8-0.6-3.9-0.4-5.1,1.1c-1.1,1.2-1.6,2.9-1.7,4.5
		c-0.4,1.5,0,3.2,1.2,4.1l-0.1,0.1c0.5-0.2,1,0,1.4-0.3c0,0-0.3-1.2-0.3-1.5c-0.2-0.7-0.2-1.6-0.1-2.4c0.1-1.3,0.5-2.8,1.8-3.4
		c0.6-0.3,1.3-0.6,2-0.6c0.6,0,1.2,0.3,1.8,0.6c1,0.7,1.9,2.4,2.3,3.7c0,0,0.1,0,0.7-0.3c0.3-0.1,0.8-0.4,0.8-0.7
		c0-0.1,0.1-0.3,0.1-0.4c-0.2-0.3-0.3-0.7-0.5-1C74.5,131.1,74.1,130.6,73.6,130.2z"/>
	<path class="st2" d="M76.1,132.6c0-0.1-0.1-0.4-0.2-0.5c-0.2-0.4-0.4-0.8-0.6-1.2c-0.8-1.4-1.8-2.8-3.3-3.3c-1.8-0.6-4-0.6-5.7,0.4
		c-2.3,1.4-3.2,4.1-2.9,6.6c0.1,0.9,0.3,1.9,0.5,2.8c0,0.4-0.2,0.6,0,0.9c0,0,0,0.1,0,0.1c0.3-0.1,1.3-0.3,1.4-0.5
		c0-0.1-0.1-0.4-0.1-0.5c-0.1-0.3-0.2-0.7-0.3-1c-0.2-0.7-0.2-1.4-0.3-2.1c0-1.2,0.1-2.3,0.8-3.4c0.5-0.8,1.5-1.5,2.4-1.8
		c0.4-0.1,0.9-0.2,1.4-0.2c0.9,0.1,1.6,0.3,2.4,0.8c0.7,0.5,1.3,1.1,1.8,1.8c0.3,0.4,0.6,0.8,0.8,1.2c0.1,0.2,0.6,1,0.6,1
		c0.1,0,1.3-0.7,1.6-0.9C76.5,132.7,76.1,132.8,76.1,132.6z"/>
	<path class="st4" d="M69.3,126.5c-2.2,0.1-4.2,1.3-5.6,3c-1.7,1.9-1.7,4.8-1.3,7.2c0.1,0.6,0.2,1.1,0.4,1.6c0,0.1,0.1,0.3,0.2,0.4
		c0.2,0,0.8-0.3,1.2-0.3c-0.8-1.9-1.2-4.4-0.5-6.3c0.7-1.9,2.2-3.3,4.1-3.9c2.2-0.7,4.6,0,6.1,1.8c0.8,1,1.5,2,2,3.2
		c0.4-0.1,0.9-0.4,1.3-0.6C76.2,129.4,72.8,126.4,69.3,126.5z"/>
</g>
<g>
	<g>
		<path class="st4" d="M77.5,113.5c-0.1,0-0.2,0-0.2,0.1c-0.1,0.3-0.2,0.5-0.4,0.8c-0.1,0.2-0.3,0.5-0.4,0.8c0,0.1,0.1,0.2,0.2,0.2
			c0.1,0,0.2,0,0.1-0.1c0.1-0.2,0.2-0.5,0.4-0.7c0.1-0.3,0.3-0.6,0.4-0.9C77.7,113.6,77.6,113.5,77.5,113.5z"/>
	</g>
	<g>
		<path class="st4" d="M78.3,116.4c-0.1,0-0.2,0-0.2,0.1c-0.1,0.3-0.2,0.5-0.3,0.7v0.1c-0.1,0-0.1,0.1-0.1,0.2
			c0.1,0.2,0.1,0.2,0.2,0.2c0.1,0,0.2-0.1,0.2-0.2v-0.1c0.1-0.3,0.2-0.5,0.3-0.8C78.4,116.5,78.4,116.4,78.3,116.4z"/>
	</g>
	<g>
		<path class="st4" d="M80.4,114.3c-0.1,0-0.2,0-0.2,0.1c-0.1,0.1-0.1,0.3-0.2,0.4c-0.2,0.3-0.3,0.5-0.4,0.8c0,0.1,0.1,0.2,0.2,0.2
			c0,0,0.1,0,0.2-0.2c0-0.2,0.2-0.5,0.3-0.7c0.1-0.1,0.1-0.3,0.2-0.4C80.5,114.4,80.5,114.3,80.4,114.3z"/>
	</g>
	<g>
		<path class="st4" d="M81,116.2c-0.1,0-0.2,0-0.2,0.1c-0.1,0.3-0.2,0.5-0.3,0.7c-0.1,0.1-0.2,0.2-0.2,0.3c-0.1,0.1-0.1,0.1-0.1,0.2
			c-0.1,0-0.1,0.1,0,0.2c0,0,0,0,0.1,0c0.1,0,0.2-0.1,0.4-0.2v-0.1c0-0.1,0-0.2,0.1-0.3c0.1-0.2,0.2-0.5,0.3-0.7
			C81.1,116.3,81.1,116.2,81,116.2z"/>
	</g>
	<g>
		<path class="st4" d="M81.4,118.8c-0.1,0-0.2,0-0.2,0.1c0,0.1-0.1,0.2-0.1,0.3c-0.1,0.3-0.2,0.5-0.3,0.7c-0.1,0-0.1,0.1,0,0.2h0.1
			c0.1,0,0.1,0,0.1,0c0.2-0.2,0.3-0.5,0.4-0.8c0-0.1,0.1-0.2,0.1-0.3C81.5,118.9,81.5,118.8,81.4,118.8z"/>
	</g>
	<g>
		<path class="st4" d="M83,116.4c-0.1,0-0.2,0-0.2,0.1c-0.1,0.1-0.1,0.2-0.2,0.3c-0.1,0.2-0.2,0.4-0.3,0.6c0,0.1,0.1,0.2,0.2,0.2
			s0.1,0,0.1-0.1c0.1-0.2,0.2-0.3,0.3-0.5c0.1-0.2,0.1-0.3,0.2-0.4C83.1,116.5,83.1,116.4,83,116.4z"/>
	</g>
	<g>
		<path class="st4" d="M84,118.1c0,0-0.2,0-0.2,0.1c-0.5,0.8-0.5,1-0.4,1.1c0,0.1,0.1,0.1,0.1,0.1c0.1,0,0.1,0,0.2-0.1
			c0-0.1,0-0.1,0-0.2c0,0,0.1-0.2,0.4-0.8C84.1,118.2,84.1,118.1,84,118.1z"/>
	</g>
	<g>
		<path class="st4" d="M82.8,113.4c-0.1,0-0.2,0-0.2,0.1c-0.1,0.2-0.3,0.4-0.4,0.6c-0.1,0.2-0.2,0.3-0.3,0.5
			c-0.1,0.1-0.1,0.2,0.1,0.3c0.1,0,0.1,0,0.2-0.1c0.1-0.2,0.2-0.3,0.3-0.5c0.1-0.2,0.3-0.5,0.4-0.7
			C82.9,113.5,82.9,113.4,82.8,113.4z"/>
	</g>
	<g>
		<path class="st4" d="M80.5,111.4c-0.2,0.2-0.3,0.3-0.4,0.5c-0.1,0.2-0.2,0.3-0.3,0.4c0,0-0.1,0.1,0,0.2c0,0.1,0.1,0.1,0.1,0.1
			s0.1,0,0.1-0.1c0.2-0.2,0.3-0.3,0.4-0.5c0.1-0.2,0.2-0.3,0.3-0.4c0,0,0.1-0.1,0-0.2C80.7,111.4,80.6,111.3,80.5,111.4z"/>
	</g>
	<g>
		<path class="st4" d="M84.7,114.4c-0.1,0-0.2,0-0.2,0.1c-0.1,0.1-0.2,0.4-0.3,0.5c-0.1,0.1-0.1,0.2,0.1,0.3c0.1,0,0.1-0.1,0.2-0.1
			c0-0.1,0.2-0.4,0.3-0.6C84.8,114.5,84.8,114.4,84.7,114.4z"/>
	</g>
	<g>
		<path class="st4" d="M76,117.7c-0.1,0-0.2,0-0.2,0.1c0,0.1-0.1,0.2-0.1,0.3c-0.1,0.1-0.1,0.3-0.2,0.4c-0.1,0.1-0.1,0.2,0.1,0.3
			c0.1,0,0.1,0,0.2-0.1c0.1-0.1,0.1-0.3,0.2-0.5c0-0.1,0.1-0.2,0.1-0.3C76.1,117.8,76.1,117.7,76,117.7z"/>
	</g>
	<g>
		<path class="st4" d="M78.7,119.7c-0.1,0-0.2,0-0.2,0.1v0.1c-0.1,0.2-0.2,0.5-0.3,0.7c0,0.1,0,0.2,0.2,0.3c0.1,0,0.1,0,0.1-0.2
			c0.1-0.2,0.2-0.5,0.3-0.7v-0.1C78.8,119.8,78.8,119.7,78.7,119.7z"/>
	</g>
	<g>
		<path class="st4" d="M74.5,115.1c-0.1,0-0.2,0-0.2,0.1c-0.1,0.1-0.1,0.2-0.2,0.4c0,0.1-0.1,0.3-0.2,0.5c0,0.1,0.1,0.2,0.2,0.2
			c0,0,0.1,0,0.1,0c0-0.2,0.1-0.3,0.2-0.5c0.1-0.2,0.1-0.3,0.2-0.5C74.6,115.2,74.6,115.1,74.5,115.1z"/>
	</g>
	<g>
		<path class="st4" d="M76.4,112.1c-0.1,0.1-0.1,0.2,0.1,0.3c0,0,0.1,0,0.2-0.1c0.1-0.2,0.2-0.4,0.4-0.6c0.1-0.2,0.2-0.3,0.3-0.4
			c0.1,0,0.1,0,0.1-0.1c-0.1,0-0.2,0-0.3,0.1c-0.1,0.1-0.1,0.2-0.2,0.3C76.7,111.7,76.5,111.9,76.4,112.1z"/>
	</g>
	<g>
		<path class="st1" d="M99.9,122.8c-0.7-0.3-1.3-0.8-1.8-1.3c-0.9-1.2-1.6-2.5-2.5-3.7c-0.9-1.2-1.9-2.3-3.4-3
			c-1.6-0.7-3.4-0.7-5-0.3c-4.4,0.9-6.9,5.4-5.3,9.2c0.7,1.7,2.4,3.4,4.1,4.4c1.5,0.8,3.2,1.1,4.9,1.3c4,0.6,8,0.2,10.8-2.6
			c0.3-0.3,0-1.9-0.2-2.4C101.1,123.5,100.8,123.2,99.9,122.8z"/>
	</g>
	<g>
		<path class="st2" d="M97.6,123.6c-0.8-1.1-1.4-2.4-2.1-3.5c-1-1.5-2.2-2.8-3.8-3.7c-1.9-1-4.4-1.2-6.2,0.2c-2,1.7-2.9,4.5-2,6.9
			c0.8,2,2.7,3.1,4.6,3.8c1.9,0.6,3.9,0.6,5.9,0.4c1.8-0.2,3.6-0.5,5.3-1.3c0.5-0.3,1-0.5,1.5-0.9c0.1,0.1,0.3,0,0.3-0.1
			c-0.3-0.1-0.8,0-1.2-0.1C99.1,125.1,98.1,124.3,97.6,123.6z"/>
	</g>
	<g>
		<path class="st3" d="M87.7,120c-0.5,0-1.1,1-1.3,1.4c-0.1-0.3-0.3-0.7-0.4-1c0-0.1-0.3-0.8-0.5-0.8c-0.6,0,0.3,2.1,0.4,2.4
			c-0.1,0.5-0.2,1.1-0.2,1.7c0,0.3,0.2,1.1,0.5,0.5c0.2-0.5,0.1-1.1,0.4-1.6c0.3-0.5,0.8-0.9,1.1-1.4
			C87.9,120.9,88.4,119.9,87.7,120z"/>
	</g>
	<g>
		<path class="st3" d="M93.1,121.1c-0.3,0.3-0.8,0.8-0.9,1.3c-0.2-0.4-0.2-1.1-0.5-1.5c-0.4-0.6-0.4,0.3-0.4,0.6
			c0,0.4,0.3,0.9,0.3,1.3c0.1,0.5-0.2,1-0.2,1.5c0,0.2,0,0.5,0,0.7c0,0.1,0.3,0.5,0.5,0.1c0.2-0.3,0.2-0.7,0.2-1
			c0.1-0.6,0.3-0.9,0.7-1.4c0.2-0.2,1.4-1.8,0.9-2C93.4,120.6,93.2,121,93.1,121.1z"/>
	</g>
	<g>
		<path class="st3" d="M94.2,121.7c-0.1,0.7-0.1,1.4-0.2,2c0,0.1,0,0.2,0,0.2c0,0.2,0,0.3,0,0.3c0.3,0,0.5-0.7,0.7-1.1
			c0.1-0.4,0.2-0.8,0.3-1.2c0-0.3,0.1-0.9,0-1.1C94.7,120.3,94.3,121.4,94.2,121.7z"/>
	</g>
	<g>
		<path class="st3" d="M94.1,124.9c-0.4-0.1-0.6,0.5-0.3,0.7c0.2,0.1,0.5,0,0.6-0.3C94.4,125,94.3,124.9,94.1,124.9z"/>
		<path class="st3" d="M94.1,124.9c-0.1,0-0.1-0.1-0.2-0.1L94.1,124.9z"/>
		<polygon class="st3" points="94.1,124.9 94.1,124.9 94.1,124.9 		"/>
	</g>
	<g>
		<path class="st3" d="M89.9,121.3c-0.1-0.2-0.1-0.8-0.4-1c-0.5-0.2-1.2,1.5-1.3,1.7c-0.4,0.8-0.9,1.9-0.8,2.2
			c0.4,0.4,0.6,0.1,0.7-0.1c0.1-0.2,0.3-0.6,0.5-0.7c0.2-0.1,0.7,0,0.8,0.2c0.3,0.3,0.1,0.8,0.5,1.1c0.6-0.3,0.3-1.3,0.2-1.8
			C90,122.3,90,121.8,89.9,121.3z M89.5,122.8c-0.1,0.2-0.8,0.1-0.9,0c0.1-0.3,0.2-0.5,0.3-0.8c0.1-0.2,0.2-0.4,0.3-0.5
			c0.2,0.1,0.2,0.5,0.2,0.7C89.5,122.3,89.6,122.7,89.5,122.8z"/>
	</g>
</g>
</svg>
