<svg xmlns="http://www.w3.org/2000/svg" viewBox="0 0 567 269"><defs><style>.a{fill:#219da4;}.b{fill:#c4e2d2;}.c{fill:#d9a6c0;}.d{fill:#c4ddd0;}.e{fill:#fff;}.f{fill:#96dce6;}</style></defs><title>azteque</title><path class="a" d="M255.29,77.93a3.47,3.47,0,1,1,3.46-3.46A3.46,3.46,0,0,1,255.29,77.93Z"/><path class="b" d="M230.91,77.93a3.47,3.47,0,1,1,3.47-3.46A3.46,3.46,0,0,1,230.91,77.93Z"/><path class="a" d="M218.73,77.93a3.47,3.47,0,1,1,3.47-3.46A3.46,3.46,0,0,1,218.73,77.93Z"/><path class="b" d="M194.36,77.93a3.47,3.47,0,1,1,3.47-3.46A3.46,3.46,0,0,1,194.36,77.93Z"/><path class="a" d="M182.17,77.93a3.47,3.47,0,1,1,3.47-3.46A3.46,3.46,0,0,1,182.17,77.93Z"/><path class="b" d="M157.8,77.93a3.47,3.47,0,1,1,3.47-3.46A3.46,3.46,0,0,1,157.8,77.93Z"/><path class="a" d="M145.61,77.93a3.47,3.47,0,1,1,3.47-3.46A3.47,3.47,0,0,1,145.61,77.93Z"/><path class="b" d="M121.24,77.93a3.47,3.47,0,1,1,3.47-3.46A3.47,3.47,0,0,1,121.24,77.93Z"/><path class="a" d="M109.06,77.93a3.47,3.47,0,1,1,3.46-3.46A3.46,3.46,0,0,1,109.06,77.93Z"/><path class="b" d="M84.68,77.93a3.47,3.47,0,1,1,3.47-3.46A3.47,3.47,0,0,1,84.68,77.93Z"/><path class="a" d="M72.5,77.93A3.47,3.47,0,1,1,76,74.47,3.46,3.46,0,0,1,72.5,77.93Z"/><path class="b" d="M48.13,77.93a3.47,3.47,0,1,1,3.46-3.46A3.46,3.46,0,0,1,48.13,77.93Z"/><path class="b" d="M11.36,78a3.47,3.47,0,1,1,3.47-3.47A3.47,3.47,0,0,1,11.36,78Z"/><path class="a" d="M35.94,77.93a3.47,3.47,0,1,1,3.47-3.46A3.46,3.46,0,0,1,35.94,77.93Z"/><path class="a" d="M510.9,77.93a3.47,3.47,0,1,1,3.47-3.46A3.46,3.46,0,0,1,510.9,77.93Z"/><path class="b" d="M486.53,77.93A3.47,3.47,0,1,1,490,74.47,3.46,3.46,0,0,1,486.53,77.93Z"/><path class="a" d="M474.34,77.93a3.47,3.47,0,1,1,3.47-3.46A3.46,3.46,0,0,1,474.34,77.93Z"/><path class="b" d="M450,77.93a3.47,3.47,0,1,1,3.47-3.46A3.46,3.46,0,0,1,450,77.93Z"/><path class="b" d="M559.64,77.93a3.47,3.47,0,1,1,3.47-3.46A3.47,3.47,0,0,1,559.64,77.93Z"/><path class="a" d="M547.46,77.93a3.47,3.47,0,1,1,3.46-3.46A3.46,3.46,0,0,1,547.46,77.93Z"/><path class="b" d="M523.08,77.93a3.47,3.47,0,1,1,3.47-3.46A3.46,3.46,0,0,1,523.08,77.93Z"/><path class="a" d="M437.78,77.93a3.47,3.47,0,1,1,3.47-3.46A3.47,3.47,0,0,1,437.78,77.93Z"/><path class="b" d="M413.41,77.93a3.47,3.47,0,1,1,3.47-3.46A3.47,3.47,0,0,1,413.41,77.93Z"/><path class="a" d="M401.23,77.93a3.47,3.47,0,1,1,3.46-3.46A3.46,3.46,0,0,1,401.23,77.93Z"/><path class="b" d="M376.85,77.93a3.47,3.47,0,1,1,3.47-3.46A3.47,3.47,0,0,1,376.85,77.93Z"/><path class="a" d="M364.67,77.93a3.47,3.47,0,1,1,3.47-3.46A3.46,3.46,0,0,1,364.67,77.93Z"/><path class="b" d="M340.3,77.93a3.47,3.47,0,1,1,3.46-3.46A3.46,3.46,0,0,1,340.3,77.93Z"/><path class="a" d="M328.11,77.93a3.47,3.47,0,1,1,3.47-3.46A3.46,3.46,0,0,1,328.11,77.93Z"/><path class="b" d="M303.74,77.93a3.47,3.47,0,1,1,3.47-3.46A3.46,3.46,0,0,1,303.74,77.93Z"/><path class="a" d="M291.55,77.93A3.47,3.47,0,1,1,295,74.47,3.47,3.47,0,0,1,291.55,77.93Z"/><path class="c" d="M243.1,77.93a3.47,3.47,0,1,1,3.47-3.46A3.46,3.46,0,0,1,243.1,77.93Z"/><path class="c" d="M206.54,77.93A3.47,3.47,0,1,1,210,74.47,3.47,3.47,0,0,1,206.54,77.93Z"/><path class="c" d="M170,77.93a3.47,3.47,0,1,1,3.47-3.46A3.46,3.46,0,0,1,170,77.93Z"/><path class="c" d="M133.43,77.93a3.47,3.47,0,1,1,3.47-3.46A3.46,3.46,0,0,1,133.43,77.93Z"/><path class="c" d="M96.87,77.93a3.47,3.47,0,1,1,3.47-3.46A3.46,3.46,0,0,1,96.87,77.93Z"/><path class="c" d="M60.31,77.93a3.47,3.47,0,1,1,3.47-3.46A3.47,3.47,0,0,1,60.31,77.93Z"/><path class="c" d="M23.75,77.93a3.47,3.47,0,1,1,3.47-3.46A3.47,3.47,0,0,1,23.75,77.93Z"/><path class="c" d="M498.71,77.93a3.47,3.47,0,1,1,3.47-3.46A3.47,3.47,0,0,1,498.71,77.93Z"/><path class="c" d="M462.15,77.93a3.47,3.47,0,1,1,3.47-3.46A3.46,3.46,0,0,1,462.15,77.93Z"/><path class="c" d="M535.27,77.93a3.47,3.47,0,1,1,3.47-3.46A3.46,3.46,0,0,1,535.27,77.93Z"/><path class="c" d="M425.6,77.93a3.47,3.47,0,1,1,3.47-3.46A3.46,3.46,0,0,1,425.6,77.93Z"/><path class="c" d="M389,77.93a3.47,3.47,0,1,1,3.47-3.46A3.46,3.46,0,0,1,389,77.93Z"/><path class="c" d="M352.48,77.93A3.47,3.47,0,1,1,356,74.47,3.47,3.47,0,0,1,352.48,77.93Z"/><path class="c" d="M315.92,77.93a3.47,3.47,0,1,1,3.47-3.46A3.46,3.46,0,0,1,315.92,77.93Z"/><path class="c" d="M279.37,77.93a3.47,3.47,0,1,1,3.47-3.46A3.46,3.46,0,0,1,279.37,77.93Z"/><path class="b" d="M267.18,77.93a3.47,3.47,0,1,1,3.47-3.46A3.46,3.46,0,0,1,267.18,77.93Z"/><path class="a" d="M477.44,88.08l6-2.79L479.21,88s5.14.13,8.45-1.59a59.34,59.34,0,0,1-6.92,4s6.32,1.69,8.89,6.09a77.26,77.26,0,0,1,2.29,9.71s-7.73-6.89-7.06-4.07c.19.79,6.1,4.11,7.21,8.24l.68,18.28s-9.81-5.82-7.07-4.4c.93.48,7.1,5.36,7.21,8.41s-2.25,8.59-4.67,12.53-8.42,6.9-8.42,6.9l-10.65-10.21s2.61-7.48,6.37-10.19c0,0-5.93,4.72-7.31,6.54,0,0-3.17-7.59-3.53-13S465,104,465,104a84.89,84.89,0,0,1,7.3-6.85l-7.39,4.45s3.24-8,8.76-10.76L469,88.87l4.2.65a8,8,0,0,1-2.07-3.78S474.66,88.8,477.44,88.08Z"/><path class="d" d="M479.51,119.58c0-9.2,1-18.4.4-27.58-.38-5.53-1.35-11.15-.14-16.56l-2.3.41q.13,32.25,2,64.45c.22,3.66.27,7.29.28,10.95C481.1,140.79,479.49,130.08,479.51,119.58Z"/><path class="c" d="M479.85,120.5a1.39,1.39,0,0,1-.51-.45,1.31,1.31,0,0,1-.09-.71l.37-5a62.59,62.59,0,0,0,11.78,6.89,2.68,2.68,0,0,1,1.17.79,2.61,2.61,0,0,1,.32,1.44,21.53,21.53,0,0,1,.05,4.81C488.66,125.54,484.22,123.06,479.85,120.5Z"/><path class="b" d="M480.89,108.39c-.3-.14-.63-.31-.73-.62a1.28,1.28,0,0,1,0-.55,16.58,16.58,0,0,0,.09-5.26q4.73,2.54,9.53,4.94a5.26,5.26,0,0,1,1.43.93,4.2,4.2,0,0,1,.88,2.83,25.57,25.57,0,0,1,0,2.9C488.35,112.59,484.48,110,480.89,108.39Z"/><path class="b" d="M480.27,132.23l0,3.23a2.25,2.25,0,0,0,1.2,2.46l5.29,3.6c1.71,1.17,3.21,1.77,3.62-.71a2.81,2.81,0,0,0-1-3.08c-1.27-1.09-3.17-1.69-4.64-2.48C484,134.89,480.26,133.12,480.27,132.23Z"/><path class="c" d="M465.28,127.63a56.85,56.85,0,0,1-.16-6.12.92.92,0,0,1,.1-.44.85.85,0,0,1,.45-.28,55,55,0,0,0,12.78-6.35c-.42.28.33,4.4,0,5.19-.5,1.24-1.71,1.6-2.88,2.25Z"/><path class="b" d="M477.79,107.45a1.06,1.06,0,0,1-.11.56,1,1,0,0,1-.49.35,137.47,137.47,0,0,1-12.8,5.17,19.92,19.92,0,0,0,.55-4.62l6.65-3.3c1.65-.82,4.42-2.9,6.21-2.81A31.39,31.39,0,0,1,477.79,107.45Z"/><path class="b" d="M471.09,143.29c0-.42-.48-.63-.9-.69s-.94-.19-1-.61a1,1,0,0,1,.17-.56c.62-1.09,1.23-2.18,1.84-3.28a4.27,4.27,0,0,1,.71-1,4.2,4.2,0,0,1,1.1-.7,42,42,0,0,0,5.94-4.09c.36,1.94.31,3.93-1.09,5.42a28.18,28.18,0,0,1-3.2,2.55C474.07,140.79,471.16,142.58,471.09,143.29Z"/><path class="e" d="M490.69,135.44v-.16c0-.95-1.52-1-1.48,0v.16c0,.95,1.53,1,1.49,0Z"/><path class="e" d="M487,134.09a.81.81,0,0,0,0-1.42c-.85-.42-1.61.86-.75,1.29l.06,0-.37-.64v.07l.37-.64,0,0c-.78.54,0,1.83.75,1.29Z"/><path class="e" d="M483.87,132.55a.74.74,0,0,0,0-1.48.74.74,0,0,0,0,1.48Z"/><path class="e" d="M477.75,132a.75.75,0,0,0,0-1.49.75.75,0,0,0,0,1.49Z"/><path class="e" d="M475.07,133.2a.75.75,0,0,0,0-1.49.75.75,0,0,0,0,1.49Z"/><path class="e" d="M477.09,112.69h-.16c-.95,0-1,1.52,0,1.48h.16c1,0,1-1.52,0-1.49Z"/><path class="e" d="M474.41,115.56a.74.74,0,0,0,0-1.48.74.74,0,0,0,0,1.48Z"/><path class="e" d="M470.88,115.37l-.16.16c-.65.7.4,1.76,1,1l.16-.16c.65-.7-.4-1.76-1.05-1Z"/><path class="e" d="M469.26,117.07l-.16-.15c-.7-.65-1.76.4-1.05,1l.16.15c.7.65,1.75-.4,1.05-1.05Z"/><path class="e" d="M466.52,119.22a.74.74,0,0,0,0-1.48.74.74,0,0,0,0,1.48Z"/><path class="e" d="M491.27,119.92a.75.75,0,0,0,0-1.49.75.75,0,0,0,0,1.49Z"/><path class="e" d="M489.18,117.14,489,117c-.7-.65-1.75.4-1.05,1.06l.16.15c.7.65,1.76-.4,1.06-1Z"/><path class="e" d="M486.44,116v-.16c0-1-1.53-1-1.49,0V116c0,.95,1.52,1,1.48,0Z"/><path class="e" d="M484.09,114.12l-.17-.16c-.7-.65-1.75.4-1.05,1.05l.17.16c.7.65,1.75-.4,1-1Z"/><path class="e" d="M482.49,113.26v-.16c0-.95-1.52-1-1.49,0v.16c0,1,1.52,1,1.49,0Z"/><path class="e" d="M471.92,134.92a.74.74,0,0,0,0-1.48.74.74,0,0,0,0,1.48Z"/><path class="e" d="M476.58,99.81l-.47.35a.77.77,0,0,0-.26,1,.74.74,0,0,0,1,.26l.47-.34a.77.77,0,0,0,.26-1,.75.75,0,0,0-1-.27Z"/><path class="e" d="M474.74,101.06h-.16c-1,0-1,1.52,0,1.49h.16c.95,0,.95-1.52,0-1.48Z"/><path class="e" d="M471.57,103.78a.74.74,0,0,0,0-1.48.74.74,0,0,0,0,1.48Z"/><path class="e" d="M468.43,105.67a.75.75,0,0,0,0-1.49.75.75,0,0,0,0,1.49Z"/><path class="e" d="M466.85,106.37a.75.75,0,0,0,0-1.49.75.75,0,0,0,0,1.49Z"/><path class="e" d="M486.59,103.74v.16c0,1,1.52,1,1.48,0v-.16c0-.95-1.53-.95-1.49,0Z"/><path class="e" d="M484.07,103a.74.74,0,0,0,0-1.48.74.74,0,0,0,0,1.48Z"/><path class="e" d="M481.76,101.48a.75.75,0,0,0,0-1.49.75.75,0,0,0,0,1.49Z"/><path class="e" d="M469.83,135.73v-.16c0-1-1.52-1-1.48,0v.16c0,1,1.52,1,1.49,0Z"/><path class="c" d="M535.6,84.82s2.93-4.27,7.15-5c0,0-4.44,3.24-5.49,5.74,0,0,6.62-.8,9.81.27,0,0-7.3.22-8.48,2.29a54.13,54.13,0,0,1,11.13,13.21s-2.62-1.62-4-1.37c0,0,3.64,5.29,4.67,8.82,0,0-4.22-4.75-4.91-5.05s3.37,4.73,3.52,9.36-2.2,28.82-2.65,29.79c0,0-1.55-4.95-4.43-7,0,0,3.05,6,3.39,8.93l-3,10.85s-1.42-4.39-2.77-6c0,0,1.94,5.67,1.19,7.61s-6.78,6.68-8.49,7.47c0,0-6.15-5.64-6.9-8.74s-.72-14.47-.38-16.56,5.21-5.74,5.21-5.74l-5.23,2.79.29-10.5s-.62-4.09,3.58-8.88c0,0-3.43,2.29-4.6,4.08,0,0,.41-9.94.33-11.91s5.12-7.71,5.12-7.71-5,3.93-5.75,5a58.43,58.43,0,0,1,1.36-8.38c.76-2.22,5-7.71,7-8.64A8.17,8.17,0,0,0,527,90.89s.75-1.66,4.55-2.4c0,0-5-1.12-7.84-.36,0,0,6.24-2.63,8.61-1.86Z"/><path class="a" d="M536.09,145.11a2.12,2.12,0,0,1-.61-.88,2,2,0,0,1,.1-1A43.12,43.12,0,0,0,537,134a21.13,21.13,0,0,0,3.57,4.83c.75.75,1.55,1.43,2.3,2.18a7,7,0,0,1,2.39,4.61,8.43,8.43,0,0,1-.54,2.56,50,50,0,0,1-2.08,6.38c-1.08-.47-2.14-3.78-2.86-4.88C538.9,148.35,537.52,145.88,536.09,145.11Z"/><path class="a" d="M534.73,140.61a5.65,5.65,0,0,1-.6,2.77,5.52,5.52,0,0,1-1.41,1.4q-4,3.16-8,6.31l-.53-7.88a1.2,1.2,0,0,1,.07-.65,1.36,1.36,0,0,1,.43-.43c2.57-1.8,5.21-3.52,7.71-5.41C538,132.46,534.79,138.51,534.73,140.61Z"/><path class="e" d="M537.51,130.54A1.33,1.33,0,0,1,537,130a1.26,1.26,0,0,1-.06-.55c.05-1,.13-2.06.24-3.08a47.72,47.72,0,0,1,9.14,7.25,4.79,4.79,0,0,1,1.07,1.43,4.35,4.35,0,0,1,.26,1.61c0,.83.31,3.56-1.1,3-.8-.29-1.92-2.72-2.5-3.44A26.85,26.85,0,0,0,537.51,130.54Z"/><path class="e" d="M535.34,129.23a1,1,0,0,1-.11.48,1,1,0,0,1-.43.34l-5.4,2.84c-1.61.85-3.31,1.79-4.14,3.4a7.46,7.46,0,0,1-.36-2.53,2.05,2.05,0,0,1,.2-1,2.75,2.75,0,0,1,.44-.53,23.33,23.33,0,0,1,6.08-4.29c.63-.31,2.72-1.58,3.39-1.34S535.37,128.51,535.34,129.23Z"/><path class="a" d="M546,130.3l-.91-3.54-2,1.14a.3.3,0,0,1-.25.06.31.31,0,0,1-.14-.19,17,17,0,0,1-.76-2.45c0-.18-.1-.39-.27-.46a.55.55,0,0,0-.38,0,7.44,7.44,0,0,0-1.8.8c-.1.07-.24.13-.33,0a.67.67,0,0,1-.06-.12c-.35-1.17-.7-2.33-1.06-3.49a1.49,1.49,0,0,0-.91,0,6.14,6.14,0,0,1,.1-1.42,1.39,1.39,0,0,1,2,.82l1,2.29a12.07,12.07,0,0,1,2.82-.79,13.7,13.7,0,0,1,.78,2.58,10.67,10.67,0,0,0,2.56-.64l.57,3.18a3.1,3.1,0,0,0,1-.93,6,6,0,0,0-.06,1.22,3,3,0,0,1-.12.79C547.53,129.81,546.6,130.15,546,130.3Z"/><path class="a" d="M525.21,127.65a2.73,2.73,0,0,0,.15-.56c0-.19.23-.37.41-.32s.2.18.27.3a4,4,0,0,0,1.27,1.44c.5-1.35,1-2.69,1.51-4l1.73,2.1a17.74,17.74,0,0,0,2-4.15c.67.28.8,1.15,1.27,1.7a.23.23,0,0,0,.1.07c.07,0,.11-.06.15-.12.54-.89,1-1.8,1.52-2.73,0-.53.08-1.08,0-1.6-.56.59-1.12,1.17-1.67,1.76L532,120c-.67,1.19-1.32,2.4-2,3.61l-1.57-1.37c-.47,1.07-.94,2.14-1.4,3.21a5.36,5.36,0,0,1-1-1.63A4,4,0,0,0,525.21,127.65Z"/><path class="e" d="M531.79,74.31a2.06,2.06,0,0,1,0-1.32c.2-.41.83-.61,1.1-.25,3.6,11.64,4,24,4.31,36.18.1,3.55.2,7.1.17,10.65a196.71,196.71,0,0,1-1.47,21.29c-.78,6.6-.94,14.54-3.11,20.8-1.17-.91.14-6.08.31-7.66q.46-4.37.89-8.73c.56-5.83,1-11.66,1.37-17.5a220.84,220.84,0,0,0-.45-34.6A143.45,143.45,0,0,0,531.79,74.31Z"/><path class="f" d="M422.48,87.18s4.22,3.73,5.36,6.17l-2.68-1.79s3.65,5.36,4.62,9.74c0,0-2.43-3.89-3.65-4.54,0,0,3.17,5.35,3.65,7.62s1,8.77,1,8.77a13.69,13.69,0,0,0,.81,3.89l1.3,12.82s-2.28-1.62-5.2-3.41c0,0,4.55,3.9,5.2,5.52S435,140.9,435,140.9a70.12,70.12,0,0,0-8-3.25s5.68,3.74,8,5.36,2.59,11.68-1,22.72c0,0-9.09-1.95-13.63-7.47a15.91,15.91,0,0,1,1.79-6,16.9,16.9,0,0,0-2.93,3.57,20.45,20.45,0,0,1-2.75-7.47,20.85,20.85,0,0,1,3.89-5.68s-3.73,1.95-4.87,3.57,1.27-5.35-.34-3.08c0,0-2.42-7.46-2.58-13.14V128.4a29.14,29.14,0,0,1,0-8.92,17.27,17.27,0,0,1,3.9-2.76,20,20,0,0,0-4.26.65s0-11.2.85-14.12l.81-2.92a5.64,5.64,0,0,1,3.57-4.06l2.11-.81a11.35,11.35,0,0,0-4.38.32,7.43,7.43,0,0,1,4.05-3.73l2.11-1.3-5.35.81Z"/><path class="b" d="M422.9,136.4a51.21,51.21,0,0,0-7.25,9c-4.43,6.72.05.47.59,0a14.44,14.44,0,0,1,4.13-2.76l-3.89,5.68a23.16,23.16,0,0,0,2.75,7.47,30.85,30.85,0,0,1,3.9-4.55s-2.11,1.63-2.76,7c0,0,5.36,6.33,13.63,7.47a70,70,0,0,0,3.57-14.2c.81-6.9-2.59-8.52-2.59-8.52s-5.52-4.22-8-5.36c0,0,7,2.27,8,3.25s-1.31-1-6.18-2.65S422.9,136.4,422.9,136.4Z"/><path class="e" d="M433.2,131.8a6.24,6.24,0,0,0,.43,3.62q-5.17-3.53-10.24-7.2a34.36,34.36,0,0,1-9.25,10.85c-.18-1.27-.35-2.54-.53-3.8a29.78,29.78,0,0,0,9.84-11,29.91,29.91,0,0,0,6.17,4.67,12.41,12.41,0,0,1,3.1,2.14,3.26,3.26,0,0,1,.75,3.49"/><path class="e" d="M433,126.08a2.6,2.6,0,0,0-1.87-.92c-.47,0-.47.71,0,.74a1.93,1.93,0,0,1,1.35.7c.31.36.84-.16.52-.52Z"/><path class="e" d="M429.26,124.05a6.51,6.51,0,0,1-1.38-.73c-.39-.27-.76.37-.37.64a6.51,6.51,0,0,0,1.55.8c.45.17.65-.55.2-.71Z"/><path class="e" d="M425.83,122l-1.48-.74c-.43-.21-.8.43-.38.64l1.48.74c.43.21.8-.43.38-.64Z"/><path class="e" d="M420.86,122.86l-1.6,1.93c-.3.37.23.9.53.53l1.59-1.94c.31-.36-.22-.89-.52-.52Z"/><path class="e" d="M417.77,126.63a2.55,2.55,0,0,1-1,1,.37.37,0,0,0,.37.65,3.18,3.18,0,0,0,1.26-1.26c.23-.42-.41-.79-.64-.38Z"/><path class="e" d="M414.94,129.45l-1.13,1.12a.38.38,0,0,0,.53.53l1.12-1.13c.34-.33-.19-.86-.52-.52Z"/><path class="e" d="M413,131.53l-.26.22c-.05.05-.28.2-.19.18l.45.46c0,.09,0,.09,0,0,.32-.36-.2-.88-.52-.53-.08.1-.21.21-.23.34a.38.38,0,0,0,.46.46,2.73,2.73,0,0,0,.78-.59c.36-.31-.16-.83-.53-.53Z"/><path class="e" d="M431.71,116.57a33.11,33.11,0,0,1-8.7-5.11c-.36-.3-.89.23-.52.53a33.94,33.94,0,0,0,9,5.29c.44.18.64-.54.2-.71Z"/><path class="e" d="M420.2,112l-7.9,4.63.45.58.61-.56c.36-.32-.17-.84-.52-.52l-.61.56c-.32.29.09.79.45.58l7.89-4.63c.41-.25,0-.89-.37-.64Z"/><path class="e" d="M430.93,112.52c-1.56.13-3.3-1.15-4.61-1.92s-2.5-1.56-3.69-2.42c-.39-.28-.76.37-.38.64a45.9,45.9,0,0,0,4.72,3c1.22.67,2.52,1.55,4,1.43.47,0,.48-.78,0-.74Z"/><path class="e" d="M420.36,108.28l-8.56,6.35c-.38.28,0,.93.38.64l8.56-6.35c.37-.28,0-.92-.38-.64Z"/><path class="d" d="M432.9,163.4c-2.48-2.14-3.63-5.41-4.61-8.53a105.53,105.53,0,0,1-4.16-17.39c-.46-3.38-.66-6.78-.86-10.18-.79-13.53-1.58-27.18.59-40.56.72-4.42,1.76-8.87,1.28-13.32l-2.31-.21,0,3.39c-.11,11.9-2.87,23.71-2.59,35.61.11,5.05.54,10.09,1.09,15.11,1.16,10.56,2.93,21.26,7.78,30.7C430.13,160.07,430.94,162.18,432.9,163.4Z"/><path class="a" d="M307.87,88.74l6-2.79-4.23,2.73s5.14.13,8.45-1.6a59.34,59.34,0,0,1-6.92,4s6.33,1.69,8.9,6.09a78.85,78.85,0,0,1,2.28,9.71s-7.72-6.89-7-4.07c.19.79,6.09,4.11,7.21,8.24l.67,18.28s-9.81-5.81-7.07-4.39c.93.48,7.11,5.35,7.22,8.4s-2.25,8.59-4.68,12.54-8.41,6.89-8.41,6.89l-10.66-10.2s2.62-7.49,6.37-10.19c0,0-5.93,4.71-7.3,6.53,0,0-3.17-7.59-3.54-13s.35-21.21.35-21.21a84.32,84.32,0,0,1,7.29-6.85l-7.38,4.45s3.23-8,8.75-10.76l-4.72-1.91,4.19.64a7.94,7.94,0,0,1-2.06-3.77S305.08,89.46,307.87,88.74Z"/><path class="d" d="M309.93,120.24c0-9.2,1-18.4.41-27.58-.38-5.53-1.36-11.15-.14-16.55l-2.3.41q.14,32.24,2,64.44c.21,3.66.26,7.29.27,10.95C311.53,141.45,309.92,130.74,309.93,120.24Z"/><path class="c" d="M310.28,121.16a1.27,1.27,0,0,1-.52-.45,1.31,1.31,0,0,1-.08-.71l.36-5a62.94,62.94,0,0,0,11.79,6.9,2.62,2.62,0,0,1,1.16.79,2.57,2.57,0,0,1,.33,1.43,22.8,22.8,0,0,1,.05,4.81C319.09,126.21,314.64,123.72,310.28,121.16Z"/><path class="b" d="M311.31,109.05c-.3-.14-.63-.31-.72-.62a1.28,1.28,0,0,1,0-.55,16.28,16.28,0,0,0,.1-5.26q4.73,2.55,9.53,4.94a5.06,5.06,0,0,1,1.42.93,4.17,4.17,0,0,1,.89,2.84,28.07,28.07,0,0,1,0,2.9C318.77,113.26,314.91,110.66,311.31,109.05Z"/><path class="b" d="M310.69,132.9l0,3.22a3,3,0,0,0,.29,1.63,2.89,2.89,0,0,0,.91.83l5.29,3.61c1.71,1.16,3.21,1.76,3.63-.72a2.84,2.84,0,0,0-1-3.08c-1.27-1.09-3.17-1.69-4.64-2.47C314.46,135.55,310.68,133.78,310.69,132.9Z"/><path class="c" d="M295.7,128.29a56.78,56.78,0,0,1-.15-6.12.75.75,0,0,1,.1-.44.78.78,0,0,1,.45-.27,55.39,55.39,0,0,0,12.77-6.36c-.42.29.33,4.41,0,5.19-.5,1.24-1.72,1.6-2.88,2.25Z"/><path class="b" d="M308.22,108.11a1.15,1.15,0,0,1-.11.56,1.1,1.1,0,0,1-.49.36,137.58,137.58,0,0,1-12.81,5.16,19.4,19.4,0,0,0,.55-4.62l6.65-3.3c1.65-.82,4.42-2.89,6.21-2.8A32.66,32.66,0,0,1,308.22,108.11Z"/><path class="b" d="M301.52,144c0-.42-.49-.64-.91-.7s-.94-.19-1-.61a.87.87,0,0,1,.17-.55c.61-1.1,1.22-2.19,1.84-3.28a4.05,4.05,0,0,1,.71-1,4.42,4.42,0,0,1,1.09-.7,42.68,42.68,0,0,0,5.95-4.09c.36,2,.31,3.93-1.09,5.43a29.25,29.25,0,0,1-3.2,2.54C304.49,141.45,301.58,143.24,301.52,144Z"/><path class="e" d="M321.11,136.1v-.16c0-.95-1.52-1-1.49,0v.16c0,1,1.52,1,1.48,0Z"/><path class="e" d="M317.47,134.75a.81.81,0,0,0,0-1.41c-.86-.42-1.61.86-.75,1.28l.05,0-.37-.64v.07l.37-.64,0,0c-.79.53,0,1.82.75,1.28Z"/><path class="e" d="M314.3,133.22a.75.75,0,0,0,0-1.49.75.75,0,0,0,0,1.49Z"/><path class="e" d="M308.17,132.64a.75.75,0,0,0,0-1.49.75.75,0,0,0,0,1.49Z"/><path class="e" d="M305.49,133.86a.74.74,0,0,0,0-1.48.74.74,0,0,0,0,1.48Z"/><path class="e" d="M307.52,113.35h-.16c-1,0-1,1.52,0,1.49h.16c1,0,1-1.52,0-1.49Z"/><path class="e" d="M304.84,116.22a.74.74,0,0,0,0-1.48.74.74,0,0,0,0,1.48Z"/><path class="e" d="M301.3,116l-.15.17c-.65.7.4,1.75,1.05,1l.15-.17c.65-.7-.4-1.75-1.05-1Z"/><path class="e" d="M299.69,117.73l-.17-.15c-.7-.65-1.75.4-1,1l.17.15c.7.65,1.75-.39,1.05-1Z"/><path class="e" d="M297,119.89a.75.75,0,0,0,0-1.49.75.75,0,0,0,0,1.49Z"/><path class="e" d="M321.7,120.58a.75.75,0,0,0,0-1.49.75.75,0,0,0,0,1.49Z"/><path class="e" d="M319.6,117.8l-.17-.15c-.7-.65-1.75.4-1.05,1l.17.15c.7.65,1.75-.4,1.05-1Z"/><path class="e" d="M316.87,116.67v-.16c0-1-1.52-1-1.49,0v.16c0,1,1.52,1,1.49,0Z"/><path class="e" d="M314.51,114.78l-.17-.16c-.7-.65-1.75.4-1,1l.17.16c.7.65,1.75-.4,1.05-1Z"/><path class="e" d="M312.91,113.93v-.16c0-1-1.52-1-1.48,0v.16c0,.95,1.52.95,1.49,0Z"/><path class="e" d="M302.34,135.58a.74.74,0,0,0,0-1.48.74.74,0,0,0,0,1.48Z"/><path class="e" d="M307,100.48l-.46.34a.75.75,0,1,0,.75,1.29l.46-.35a.78.78,0,0,0,.27-1,.75.75,0,0,0-1-.26Z"/><path class="e" d="M305.16,101.72H305c-.95,0-1,1.52,0,1.48h.16c.95,0,1-1.53,0-1.49Z"/><path class="e" d="M302,104.45a.75.75,0,0,0,0-1.49.75.75,0,0,0,0,1.49Z"/><path class="e" d="M298.85,106.33a.75.75,0,0,0,0-1.49.75.75,0,0,0,0,1.49Z"/><path class="e" d="M297.27,107a.75.75,0,0,0,0-1.49.75.75,0,0,0,0,1.49Z"/><path class="e" d="M317,104.41v.16c0,1,1.52,1,1.49,0v-.16c0-1-1.52-1-1.49,0Z"/><path class="e" d="M314.49,103.66a.74.74,0,0,0,0-1.48.74.74,0,0,0,0,1.48Z"/><path class="e" d="M312.19,102.14a.74.74,0,0,0,0-1.48.74.74,0,0,0,0,1.48Z"/><path class="e" d="M300.25,136.39v-.16c0-.95-1.53-1-1.49,0v.16c0,1,1.52,1,1.48,0Z"/><path class="c" d="M366,85.48s2.92-4.26,7.15-5c0,0-4.44,3.24-5.49,5.74,0,0,6.61-.8,9.81.27,0,0-7.3.22-8.48,2.29A54.13,54.13,0,0,1,380.15,102s-2.62-1.61-4-1.37c0,0,3.64,5.29,4.66,8.82,0,0-4.21-4.74-4.91-5s3.38,4.72,3.53,9.35-2.21,28.83-2.66,29.79c0,0-1.54-5-4.43-7,0,0,3.06,6,3.4,8.93l-3,10.85s-1.42-4.38-2.78-6c0,0,1.94,5.66,1.19,7.6s-6.78,6.68-8.48,7.48c0,0-6.16-5.64-6.91-8.75s-.72-14.46-.38-16.56,5.21-5.74,5.21-5.74l-5.23,2.8.29-10.51s-.62-4.09,3.58-8.88c0,0-3.43,2.29-4.6,4.08,0,0,.42-9.94.33-11.91s5.13-7.71,5.13-7.71-5,3.93-5.75,5a58.22,58.22,0,0,1,1.35-8.38c.77-2.22,5-7.71,7-8.63a8.15,8.15,0,0,0-5.23,1.25s.75-1.66,4.56-2.39c0,0-5-1.13-7.85-.36,0,0,6.25-2.63,8.61-1.87Z"/><path class="a" d="M366.51,145.77a2.06,2.06,0,0,1-.61-.88,2,2,0,0,1,.1-1,43.12,43.12,0,0,0,1.41-9.24,21.43,21.43,0,0,0,3.57,4.83c.75.75,1.56,1.44,2.31,2.19a6.9,6.9,0,0,1,2.38,4.6,8.07,8.07,0,0,1-.53,2.56,53.41,53.41,0,0,1-2.08,6.38c-1.08-.47-2.15-3.78-2.86-4.88C369.33,149,368,146.54,366.51,145.77Z"/><path class="a" d="M365.15,141.27a5.61,5.61,0,0,1-.6,2.78,5.82,5.82,0,0,1-1.4,1.4l-8,6.3-.54-7.88a1,1,0,0,1,.51-1.08c2.57-1.8,5.2-3.51,7.7-5.41C368.41,133.12,365.21,139.18,365.15,141.27Z"/><path class="e" d="M367.94,131.2a.94.94,0,0,1-.62-1.09c.05-1,.12-2.05.23-3.08a47.42,47.42,0,0,1,9.14,7.25,5,5,0,0,1,1.08,1.43,4.44,4.44,0,0,1,.26,1.62c0,.83.31,3.55-1.11,3-.8-.29-1.91-2.72-2.5-3.43A26.85,26.85,0,0,0,367.94,131.2Z"/><path class="e" d="M365.76,129.89a1.09,1.09,0,0,1-.1.48,1,1,0,0,1-.44.34l-5.4,2.85c-1.6.84-3.31,1.78-4.13,3.4a7.56,7.56,0,0,1-.37-2.54,2,2,0,0,1,.21-1,2.22,2.22,0,0,1,.43-.53,23.41,23.41,0,0,1,6.09-4.3c.62-.31,2.72-1.57,3.39-1.34S365.8,129.17,365.76,129.89Z"/><path class="a" d="M376.46,131l-.92-3.53-2,1.14a.3.3,0,0,1-.24.05c-.08,0-.11-.11-.14-.18a17.54,17.54,0,0,1-.77-2.46.63.63,0,0,0-.26-.46.59.59,0,0,0-.39,0,7.4,7.4,0,0,0-1.79.81c-.1.06-.25.12-.33,0a.27.27,0,0,1-.06-.12c-.36-1.16-.71-2.33-1.06-3.49a1.52,1.52,0,0,0-.92,0,5.67,5.67,0,0,1,.11-1.42,1.39,1.39,0,0,1,2,.82c.33.76.66,1.53,1,2.29a12.43,12.43,0,0,1,2.82-.79,14.73,14.73,0,0,1,.78,2.58,11.41,11.41,0,0,0,2.56-.63c.18,1.06.37,2.12.56,3.17a2.9,2.9,0,0,0,1-.93,6,6,0,0,0-.06,1.22,2.61,2.61,0,0,1-.12.79C378,130.47,377,130.81,376.46,131Z"/><path class="a" d="M355.64,128.31a2.7,2.7,0,0,0,.14-.56c.06-.18.23-.37.41-.32s.21.18.27.3a4.09,4.09,0,0,0,1.27,1.44l1.51-4,1.73,2.11a18.46,18.46,0,0,0,2-4.16c.66.28.79,1.16,1.26,1.7a.26.26,0,0,0,.11.07c.06,0,.11-.06.14-.11.54-.9,1.05-1.81,1.52-2.74-.05-.53.08-1.08,0-1.6l-1.67,1.77-1.92-1.5c-.67,1.19-1.31,2.4-1.94,3.61l-1.58-1.37-1.4,3.21a5.53,5.53,0,0,1-1-1.63A4,4,0,0,0,355.64,128.31Z"/><path class="e" d="M362.22,75a1.93,1.93,0,0,1,0-1.32c.19-.41.82-.61,1.09-.25,3.61,11.64,4,24,4.31,36.18.1,3.55.2,7.1.17,10.66a194.55,194.55,0,0,1-1.47,21.29c-.78,6.6-.94,14.53-3.11,20.79-1.17-.91.14-6.08.31-7.66q.47-4.36.89-8.73c.56-5.82,1.05-11.66,1.38-17.5a221.91,221.91,0,0,0-.45-34.59A146.72,146.72,0,0,0,362.22,75Z"/><path class="f" d="M252.9,87.84s4.22,3.74,5.36,6.17l-2.68-1.78s3.65,5.35,4.63,9.73c0,0-2.44-3.89-3.65-4.54,0,0,3.16,5.35,3.65,7.63s1,8.76,1,8.76a13.69,13.69,0,0,0,.81,3.89l1.3,12.83s-2.27-1.63-5.19-3.41c0,0,4.54,3.89,5.19,5.52s2.11,8.92,2.11,8.92a69.22,69.22,0,0,0-7.95-3.24s5.68,3.73,7.95,5.35,2.6,11.69-1,22.72c0,0-9.09-1.95-13.64-7.46a15.94,15.94,0,0,1,1.79-6,17,17,0,0,0-2.92,3.57A20.3,20.3,0,0,1,246.9,149a20.85,20.85,0,0,1,3.89-5.68s-3.73,1.94-4.86,3.57,1.26-5.36-.34-3.09c0,0-2.42-7.46-2.59-13.14v-1.63a29.12,29.12,0,0,1,0-8.92,17.53,17.53,0,0,1,3.9-2.76,20.07,20.07,0,0,0-4.26.65s0-11.2.85-14.12l.81-2.92a5.64,5.64,0,0,1,3.57-4.06l2.11-.81a11.45,11.45,0,0,0-4.38.33,7.43,7.43,0,0,1,4.06-3.74l2.11-1.3-5.36.82Z"/><path class="b" d="M253.32,137.06a51.39,51.39,0,0,0-7.24,9.05c-4.44,6.72,0,.46.59,0a14.1,14.1,0,0,1,4.12-2.76L246.9,149a22.94,22.94,0,0,0,2.76,7.46,30.78,30.78,0,0,1,3.89-4.54s-2.11,1.62-2.76,7c0,0,5.36,6.32,13.64,7.46a70,70,0,0,0,3.57-14.2c.81-6.9-2.6-8.52-2.6-8.52s-5.52-4.22-7.95-5.35c0,0,7,2.27,7.95,3.24s-1.31-1-6.17-2.64S253.32,137.06,253.32,137.06Z"/><path class="e" d="M263.63,132.47a6.29,6.29,0,0,0,.42,3.61c-3.45-2.34-6.86-4.75-10.24-7.2a34.36,34.36,0,0,1-9.25,10.85l-.53-3.8a29.78,29.78,0,0,0,9.84-11,30.1,30.1,0,0,0,6.17,4.67,12.07,12.07,0,0,1,3.11,2.15,3.24,3.24,0,0,1,.74,3.48"/><path class="e" d="M263.38,126.74a2.69,2.69,0,0,0-1.87-.92c-.48,0-.48.71,0,.74a2,2,0,0,1,1.34.7c.32.37.84-.16.53-.52Z"/><path class="e" d="M259.68,124.71a6,6,0,0,1-1.37-.73c-.4-.27-.77.37-.38.64a7,7,0,0,0,1.56.81c.45.16.64-.55.19-.72Z"/><path class="e" d="M256.25,122.65l-1.48-.74c-.42-.21-.8.43-.37.65l1.47.73c.43.22.81-.42.38-.64Z"/><path class="e" d="M251.28,123.52l-1.59,1.93c-.3.37.22.9.52.53l1.6-1.93c.3-.37-.22-.9-.53-.53Z"/><path class="e" d="M248.19,127.3a2.48,2.48,0,0,1-1,1c-.42.23,0,.87.37.64a3.18,3.18,0,0,0,1.26-1.26.37.37,0,0,0-.64-.37Z"/><path class="e" d="M245.36,130.11l-1.12,1.12c-.34.34.18.87.52.53l1.13-1.12c.33-.34-.19-.87-.53-.53Z"/><path class="e" d="M243.43,132.2l-.25.22c-.06,0-.28.2-.2.17l.46.46c-.05.1,0,.09,0,0,.32-.35-.21-.88-.53-.52-.08.09-.21.2-.23.33a.38.38,0,0,0,.46.46c.29-.08.55-.4.78-.59s-.16-.83-.53-.52Z"/><path class="e" d="M262.13,117.23a32.9,32.9,0,0,1-8.69-5.11c-.37-.29-.9.23-.53.53a34.09,34.09,0,0,0,9,5.29c.45.18.64-.54.2-.71Z"/><path class="e" d="M250.62,112.65l-7.9,4.63.45.59.62-.56c.35-.33-.17-.85-.53-.53l-.61.56a.37.37,0,0,0,.45.58l7.89-4.63a.37.37,0,0,0-.37-.64Z"/><path class="e" d="M261.35,113.18c-1.56.13-3.29-1.15-4.6-1.91s-2.5-1.56-3.7-2.43c-.39-.28-.76.37-.38.65a46.58,46.58,0,0,0,4.73,3c1.21.67,2.52,1.55,4,1.43.48,0,.48-.78,0-.74Z"/><path class="e" d="M250.78,109l-8.55,6.34c-.38.29,0,.93.37.64l8.56-6.34c.38-.29,0-.93-.38-.64Z"/><path class="a" d="M263.32,164.06c-2.48-2.14-3.63-5.4-4.61-8.53a106.06,106.06,0,0,1-4.16-17.39c-.46-3.37-.66-6.78-.86-10.18-.79-13.53-1.58-27.18.59-40.55C255,83,256,78.53,255.56,74.08l-2.31-.21,0,3.39c-.12,11.9-2.87,23.71-2.6,35.61.12,5,.55,10.09,1.1,15.12,1.16,10.55,2.92,21.25,7.78,30.69C260.55,160.73,261.37,162.84,263.32,164.06Z"/><path class="a" d="M138.29,89.4l6-2.79-4.24,2.73s5.15.13,8.45-1.6a58.9,58.9,0,0,1-6.91,4s6.32,1.69,8.89,6.1a77.26,77.26,0,0,1,2.29,9.71s-7.73-6.89-7.06-4.08c.19.8,6.09,4.11,7.21,8.24l.67,18.28s-9.8-5.81-7.06-4.39c.92.48,7.1,5.36,7.21,8.4s-2.25,8.6-4.67,12.54-8.42,6.89-8.42,6.89L130,143.18s2.61-7.48,6.37-10.19c0,0-5.93,4.71-7.31,6.53,0,0-3.17-7.59-3.53-13s.34-21.2.34-21.2a87.22,87.22,0,0,1,7.29-6.86l-7.38,4.45s3.24-8,8.76-10.76l-4.73-1.91,4.2.65a7.92,7.92,0,0,1-2.07-3.78S135.51,90.12,138.29,89.4Z"/><path class="d" d="M140.36,120.9c0-9.19,1-18.4.4-27.57-.38-5.53-1.35-11.15-.14-16.56l-2.3.41q.13,32.23,2,64.44c.22,3.67.26,7.29.28,11C142,142.12,140.34,131.4,140.36,120.9Z"/><path class="c" d="M140.7,121.82a1.29,1.29,0,0,1-.51-.44,1.26,1.26,0,0,1-.09-.72l.36-5a63.54,63.54,0,0,0,11.79,6.89,2.71,2.71,0,0,1,1.17.79,2.6,2.6,0,0,1,.32,1.43,22.15,22.15,0,0,1,0,4.81C149.51,126.87,145.06,124.39,140.7,121.82Z"/><path class="b" d="M141.74,109.71c-.3-.13-.64-.3-.73-.62a1.23,1.23,0,0,1,0-.54,16.64,16.64,0,0,0,.09-5.27q4.73,2.55,9.53,5a4.66,4.66,0,0,1,1.42.93A4.14,4.14,0,0,1,153,112a28.13,28.13,0,0,1,0,2.9C149.2,113.92,145.33,111.33,141.74,109.71Z"/><path class="b" d="M141.12,133.56l-.05,3.22a3.09,3.09,0,0,0,.29,1.63,3,3,0,0,0,.92.84l5.28,3.6c1.72,1.17,3.21,1.76,3.63-.71a2.8,2.8,0,0,0-1-3.08c-1.26-1.1-3.17-1.69-4.63-2.48C144.89,136.21,141.1,134.44,141.12,133.56Z"/><path class="c" d="M126.13,129a56.6,56.6,0,0,1-.16-6.11.85.85,0,0,1,.1-.45.83.83,0,0,1,.45-.27,55,55,0,0,0,12.78-6.35c-.42.28.33,4.4,0,5.18-.5,1.25-1.72,1.6-2.88,2.25Z"/><path class="b" d="M138.64,108.77a.8.8,0,0,1-.6.92,137.4,137.4,0,0,1-12.8,5.16,19.9,19.9,0,0,0,.55-4.61l6.65-3.31c1.65-.81,4.42-2.89,6.2-2.8A31.25,31.25,0,0,1,138.64,108.77Z"/><path class="b" d="M131.94,144.62c0-.42-.48-.64-.9-.69s-.95-.2-1-.62a1,1,0,0,1,.17-.55l1.84-3.28a4.24,4.24,0,0,1,.71-1,4.61,4.61,0,0,1,1.09-.7,40,40,0,0,0,6-4.09c.36,2,.31,3.93-1.09,5.43a27,27,0,0,1-3.2,2.54C134.92,142.12,132,143.91,131.94,144.62Z"/><path class="e" d="M151.54,136.76v-.16c0-.95-1.52-.95-1.48,0v.16c0,1,1.52,1,1.49,0Z"/><path class="e" d="M147.89,135.41a.81.81,0,0,0,0-1.41c-.85-.42-1.61.86-.75,1.28l.06,0-.37-.64v.07l.37-.65-.05,0c-.78.54,0,1.82.75,1.28Z"/><path class="e" d="M144.72,133.88a.75.75,0,0,0,0-1.49.75.75,0,0,0,0,1.49Z"/><path class="e" d="M138.6,133.3a.74.74,0,0,0,0-1.48.74.74,0,0,0,0,1.48Z"/><path class="e" d="M135.91,134.52a.74.74,0,0,0,0-1.48.74.74,0,0,0,0,1.48Z"/><path class="e" d="M137.94,114h-.16c-.95,0-1,1.52,0,1.49h.16c.95,0,1-1.52,0-1.48Z"/><path class="e" d="M135.26,116.89a.75.75,0,0,0,0-1.49.75.75,0,0,0,0,1.49Z"/><path class="e" d="M131.73,116.69l-.16.17c-.65.7.4,1.75,1.05,1l.16-.17c.65-.7-.4-1.75-1.05-1Z"/><path class="e" d="M130.11,118.4l-.17-.16c-.7-.65-1.75.4-1.05,1.05l.17.16c.7.65,1.75-.4,1.05-1Z"/><path class="e" d="M127.37,120.55a.75.75,0,0,0,0-1.49.75.75,0,0,0,0,1.49Z"/><path class="e" d="M152.12,121.24a.74.74,0,0,0,0-1.48.74.74,0,0,0,0,1.48Z"/><path class="e" d="M150,118.46l-.16-.15c-.7-.65-1.76.4-1.05,1l.16.16c.7.64,1.76-.4,1.05-1.06Z"/><path class="e" d="M147.29,117.33v-.16c0-1-1.52-1-1.48,0v.16c0,1,1.52,1,1.49,0Z"/><path class="e" d="M144.93,115.44l-.16-.15c-.7-.65-1.76.39-1.05,1l.16.15c.7.65,1.76-.4,1.05-1Z"/><path class="e" d="M143.33,114.59v-.16c0-1-1.52-1-1.49,0v.16c0,1,1.52,1,1.48,0Z"/><path class="e" d="M132.77,136.25a.75.75,0,0,0,0-1.49.75.75,0,0,0,0,1.49Z"/><path class="e" d="M137.42,101.14l-.46.34a.79.79,0,0,0-.27,1,.75.75,0,0,0,1,.27l.46-.35a.76.76,0,0,0,.27-1,.75.75,0,0,0-1-.27Z"/><path class="e" d="M135.58,102.38h-.16c-.95,0-.95,1.52,0,1.48h.16c1,0,1-1.52,0-1.49Z"/><path class="e" d="M132.42,105.11a.75.75,0,0,0,0-1.49.75.75,0,0,0,0,1.49Z"/><path class="e" d="M129.28,107a.74.74,0,0,0,0-1.48.74.74,0,0,0,0,1.48Z"/><path class="e" d="M127.7,107.69a.74.74,0,0,0,0-1.48.74.74,0,0,0,0,1.48Z"/><path class="e" d="M147.44,105.07v.16c0,1,1.52,1,1.49,0v-.16c0-.95-1.52-1-1.48,0Z"/><path class="e" d="M144.91,104.33a.75.75,0,0,0,0-1.49.75.75,0,0,0,0,1.49Z"/><path class="e" d="M142.61,102.81a.75.75,0,0,0,0-1.49.75.75,0,0,0,0,1.49Z"/><path class="e" d="M130.68,137.05v-.16c0-.95-1.52-1-1.49,0v.16c0,1,1.52,1,1.49,0Z"/><path class="c" d="M196.45,86.14s2.92-4.26,7.15-5c0,0-4.44,3.24-5.49,5.73,0,0,6.61-.79,9.81.28,0,0-7.3.21-8.48,2.28a54.36,54.36,0,0,1,11.13,13.21s-2.62-1.61-4-1.37c0,0,3.64,5.29,4.66,8.82,0,0-4.21-4.74-4.9-5s3.37,4.72,3.52,9.35-2.21,28.83-2.66,29.8c0,0-1.54-4.95-4.43-7,0,0,3.06,6,3.4,8.93l-3,10.86s-1.42-4.39-2.78-6c0,0,2,5.66,1.19,7.6s-6.77,6.69-8.48,7.48c0,0-6.15-5.64-6.91-8.75s-.71-14.46-.37-16.56,5.2-5.74,5.2-5.74l-5.23,2.8.3-10.51s-.63-4.08,3.58-8.87c0,0-3.43,2.28-4.61,4.07,0,0,.42-9.94.34-11.91s5.12-7.7,5.12-7.7-5,3.92-5.75,5c0,0,.59-6.15,1.36-8.37s5-7.72,7-8.64a8.12,8.12,0,0,0-5.22,1.25s.74-1.66,4.55-2.39c0,0-5-1.12-7.84-.36,0,0,6.24-2.63,8.6-1.86Z"/><path class="a" d="M196.94,146.44a1.93,1.93,0,0,1-.61-.89,2.11,2.11,0,0,1,.09-1,43,43,0,0,0,1.42-9.24,21.19,21.19,0,0,0,3.57,4.84c.74.74,1.55,1.43,2.3,2.18a6.92,6.92,0,0,1,2.38,4.6,8.18,8.18,0,0,1-.53,2.57,49.39,49.39,0,0,1-2.08,6.37c-1.08-.46-2.14-3.78-2.86-4.88C199.75,149.67,198.37,147.21,196.94,146.44Z"/><path class="a" d="M195.58,141.94a4.25,4.25,0,0,1-2,4.17l-8,6.3-.53-7.88a1.15,1.15,0,0,1,.07-.64,1.18,1.18,0,0,1,.43-.43c2.57-1.81,5.21-3.52,7.71-5.42C198.83,133.78,195.64,139.84,195.58,141.94Z"/><path class="e" d="M198.36,131.86a1.31,1.31,0,0,1-.56-.53,1.17,1.17,0,0,1-.06-.56c0-1,.13-2.05.23-3.07a47.79,47.79,0,0,1,9.15,7.25,4.63,4.63,0,0,1,1.07,1.42,4.44,4.44,0,0,1,.26,1.62c0,.83.31,3.55-1.11,3-.8-.29-1.91-2.72-2.49-3.43A27.08,27.08,0,0,0,198.36,131.86Z"/><path class="e" d="M196.19,130.55a1,1,0,0,1-.11.49,1.1,1.1,0,0,1-.43.34l-5.4,2.84c-1.61.84-3.31,1.78-4.14,3.4a7.56,7.56,0,0,1-.37-2.54,2.15,2.15,0,0,1,.21-1,2.22,2.22,0,0,1,.44-.53,23.36,23.36,0,0,1,6.08-4.3c.62-.3,2.72-1.57,3.39-1.33S196.22,129.83,196.19,130.55Z"/><path class="a" d="M206.88,131.63l-.91-3.54-2,1.14a.33.33,0,0,1-.25.05.32.32,0,0,1-.14-.18,17.5,17.5,0,0,1-.76-2.46c0-.18-.1-.38-.27-.45a.55.55,0,0,0-.38,0,7.47,7.47,0,0,0-1.8.81c-.1.06-.24.12-.33,0a.34.34,0,0,1-.06-.12c-.35-1.16-.71-2.32-1.06-3.49a1.49,1.49,0,0,0-.91,0,5.67,5.67,0,0,1,.1-1.42,1.85,1.85,0,0,1,1.65.26,1.66,1.66,0,0,1,.33.56l1,2.29a11.92,11.92,0,0,1,2.82-.78,14.38,14.38,0,0,1,.78,2.57,10.66,10.66,0,0,0,2.56-.63l.57,3.18a3.1,3.1,0,0,0,1-.93c-.12.16,0,1-.06,1.22a2.89,2.89,0,0,1-.13.78C208.37,131.14,207.45,131.47,206.88,131.63Z"/><path class="a" d="M186.06,129a2.55,2.55,0,0,0,.14-.56c.06-.18.23-.37.42-.31s.2.17.26.29a4.09,4.09,0,0,0,1.27,1.44c.51-1.34,1-2.68,1.52-4,.57.71,1.15,1.41,1.73,2.11a18.42,18.42,0,0,0,2-4.16c.66.29.8,1.16,1.27,1.7,0,0,.06.07.1.07s.11-.06.15-.11c.53-.89,1-1.81,1.52-2.74,0-.52.08-1.07,0-1.6l-1.68,1.77-1.92-1.5c-.66,1.2-1.31,2.4-1.94,3.62l-1.58-1.37c-.46,1.07-.93,2.13-1.4,3.2a5.48,5.48,0,0,1-1-1.62A4,4,0,0,0,186.06,129Z"/><path class="e" d="M192.64,75.63a2,2,0,0,1,0-1.32c.19-.4.82-.6,1.09-.24,3.61,11.63,4,24,4.32,36.17.1,3.55.2,7.11.17,10.66a196.89,196.89,0,0,1-1.47,21.29c-.78,6.6-1,14.54-3.11,20.8-1.18-.91.14-6.09.3-7.67q.48-4.35.9-8.73c.56-5.82,1-11.65,1.37-17.5a220.69,220.69,0,0,0-.45-34.59A145,145,0,0,0,192.64,75.63Z"/><path class="c" d="M26.7,86.18s2.93-4.27,7.15-5c0,0-4.43,3.24-5.49,5.74,0,0,6.62-.8,9.81.27,0,0-7.3.22-8.47,2.29A54.21,54.21,0,0,1,40.82,102.7s-2.61-1.62-4-1.37c0,0,3.63,5.29,4.66,8.82,0,0-4.22-4.75-4.91-5.05s3.37,4.73,3.52,9.36-2.2,28.82-2.65,29.79c0,0-1.55-4.95-4.43-7,0,0,3.06,6,3.39,8.93l-3,10.85s-1.42-4.39-2.78-6c0,0,1.94,5.67,1.19,7.61s-6.78,6.68-8.49,7.47c0,0-6.15-5.64-6.9-8.74s-.72-14.47-.38-16.56,5.21-5.74,5.21-5.74L16,137.9l.29-10.5s-.62-4.09,3.58-8.88c0,0-3.43,2.29-4.6,4.08,0,0,.42-9.94.33-11.91S20.76,103,20.76,103s-5,3.93-5.75,5a58.43,58.43,0,0,1,1.36-8.38c.76-2.22,5-7.71,7-8.64a8.17,8.17,0,0,0-5.22,1.26s.75-1.66,4.55-2.4c0,0-5-1.12-7.84-.36,0,0,6.24-2.63,8.61-1.86Z"/><path class="a" d="M27.19,146.47a2.12,2.12,0,0,1-.61-.88,2,2,0,0,1,.1-1,43.12,43.12,0,0,0,1.41-9.24,21.13,21.13,0,0,0,3.57,4.83c.75.75,1.56,1.43,2.3,2.18A6.91,6.91,0,0,1,36.35,147a8.72,8.72,0,0,1-.53,2.56,51.71,51.71,0,0,1-2.09,6.38c-1.07-.47-2.14-3.78-2.86-4.88C30,149.71,28.63,147.24,27.19,146.47Z"/><path class="a" d="M25.83,142a5.65,5.65,0,0,1-.6,2.77,5.52,5.52,0,0,1-1.41,1.4q-4,3.17-8,6.31l-.53-7.88a1.2,1.2,0,0,1,.07-.65,1.29,1.29,0,0,1,.44-.43c2.56-1.8,5.2-3.52,7.7-5.41C29.09,133.82,25.89,139.87,25.83,142Z"/><path class="e" d="M28.61,131.9a1,1,0,0,1-.62-1.09c.05-1,.13-2.06.24-3.08A47.42,47.42,0,0,1,37.37,135a4.79,4.79,0,0,1,1.07,1.43A4,4,0,0,1,38.7,138c0,.83.32,3.56-1.1,3-.8-.29-1.91-2.72-2.5-3.44A26.85,26.85,0,0,0,28.61,131.9Z"/><path class="e" d="M26.44,130.59a1,1,0,0,1-.11.48,1,1,0,0,1-.43.34l-5.4,2.84c-1.61.85-3.31,1.79-4.14,3.4a7.46,7.46,0,0,1-.36-2.53,2.18,2.18,0,0,1,.2-1,2.75,2.75,0,0,1,.44-.53,23.38,23.38,0,0,1,6.09-4.29c.62-.31,2.71-1.58,3.39-1.34S26.48,129.87,26.44,130.59Z"/><path class="a" d="M37.13,131.66l-.91-3.54-2,1.14a.28.28,0,0,1-.24.06c-.08,0-.11-.11-.14-.18a16.31,16.31,0,0,1-.77-2.46.61.61,0,0,0-.27-.46.56.56,0,0,0-.38,0,7.59,7.59,0,0,0-1.79.8c-.11.07-.25.13-.34,0a.31.31,0,0,1-.05-.12c-.36-1.17-.71-2.33-1.07-3.49a1.49,1.49,0,0,0-.91,0,6.14,6.14,0,0,1,.1-1.42,1.87,1.87,0,0,1,1.66.25,2,2,0,0,1,.33.57l1,2.29a12.21,12.21,0,0,1,2.82-.79A13.73,13.73,0,0,1,35,127a10.71,10.71,0,0,0,2.55-.64l.57,3.18a3.1,3.1,0,0,0,1-.93,6,6,0,0,0-.06,1.22,3,3,0,0,1-.12.79C38.63,131.17,37.7,131.51,37.13,131.66Z"/><path class="a" d="M16.32,129a3.53,3.53,0,0,0,.14-.56c.05-.19.23-.37.41-.32a.53.53,0,0,1,.27.3,4.09,4.09,0,0,0,1.27,1.44c.5-1.35,1-2.69,1.51-4l1.73,2.1a18.19,18.19,0,0,0,2-4.15c.66.28.79,1.15,1.26,1.7a.23.23,0,0,0,.1.07.18.18,0,0,0,.15-.12c.54-.89,1.05-1.8,1.52-2.73-.05-.53.08-1.08,0-1.6L25,122.87l-1.92-1.49c-.67,1.19-1.32,2.4-1.94,3.61l-1.58-1.37c-.47,1.07-.94,2.14-1.4,3.21a5.36,5.36,0,0,1-1-1.63A4,4,0,0,0,16.32,129Z"/><path class="e" d="M22.89,75.67a2.06,2.06,0,0,1,0-1.32c.2-.41.83-.61,1.1-.25,3.61,11.64,4,24,4.31,36.18.1,3.55.2,7.1.17,10.65A194.21,194.21,0,0,1,27,142.22c-.78,6.6-.94,14.54-3.11,20.8-1.17-.91.14-6.08.31-7.66q.46-4.37.89-8.73c.56-5.82,1-11.66,1.37-17.5A222.06,222.06,0,0,0,26,94.53,145.16,145.16,0,0,0,22.89,75.67Z"/><path class="f" d="M83.33,88.51s4.22,3.73,5.35,6.16L86,92.89s3.65,5.35,4.62,9.74c0,0-2.43-3.9-3.65-4.55,0,0,3.16,5.36,3.65,7.63s1,8.76,1,8.76a13.63,13.63,0,0,0,.82,3.9l1.29,12.82s-2.27-1.62-5.19-3.41c0,0,4.55,3.89,5.19,5.52s2.11,8.92,2.11,8.92A68.39,68.39,0,0,0,87.87,139s5.68,3.73,7.95,5.35,2.6,11.69-1,22.72c0,0-9.09-1.94-13.63-7.46a15.89,15.89,0,0,1,1.78-6,17.3,17.3,0,0,0-2.92,3.57,20.49,20.49,0,0,1-2.76-7.46,21,21,0,0,1,3.9-5.68s-3.73,2-4.87,3.57,1.27-5.36-.34-3.08c0,0-2.42-7.47-2.58-13.15v-1.62a29.19,29.19,0,0,1,0-8.93A17.38,17.38,0,0,1,77.32,118a20.61,20.61,0,0,0-4.25.65s0-11.2.85-14.12l.81-2.92A5.59,5.59,0,0,1,78.3,97.6l2.11-.82a11.45,11.45,0,0,0-4.38.33,7.43,7.43,0,0,1,4-3.73l2.11-1.3-5.35.81Z"/><path class="b" d="M83.75,137.72a51.09,51.09,0,0,0-7.25,9.05c-4.43,6.72,0,.46.59,0A14.22,14.22,0,0,1,81.22,144l-3.9,5.68a22.94,22.94,0,0,0,2.76,7.46,30.46,30.46,0,0,1,3.9-4.54s-2.11,1.62-2.76,7c0,0,5.35,6.33,13.63,7.46a70,70,0,0,0,3.57-14.2c.81-6.89-2.6-8.52-2.6-8.52s-5.51-4.22-7.95-5.35c0,0,7,2.27,7.95,3.24s-1.3-1-6.17-2.64S83.75,137.72,83.75,137.72Z"/><path class="e" d="M94.05,133.13a6.25,6.25,0,0,0,.43,3.62q-5.17-3.52-10.24-7.21A34.38,34.38,0,0,1,75,140.39c-.18-1.26-.36-2.53-.53-3.8a29.92,29.92,0,0,0,9.84-11,30.48,30.48,0,0,0,6.16,4.67,11.8,11.8,0,0,1,3.11,2.14,3.24,3.24,0,0,1,.75,3.48"/><path class="e" d="M93.8,127.4a2.69,2.69,0,0,0-1.87-.92c-.48,0-.47.71,0,.75a1.93,1.93,0,0,1,1.35.7c.31.36.83-.17.52-.53Z"/><path class="e" d="M90.11,125.37a6.08,6.08,0,0,1-1.38-.73c-.39-.27-.77.37-.37.65a7.34,7.34,0,0,0,1.55.8c.45.17.64-.55.2-.72Z"/><path class="e" d="M86.67,123.31l-1.47-.73c-.43-.22-.81.42-.38.64l1.48.74c.42.21.8-.43.37-.65Z"/><path class="e" d="M81.71,124.18l-1.6,1.94c-.3.36.22.89.53.52l1.59-1.93c.3-.37-.22-.9-.52-.53Z"/><path class="e" d="M78.61,128a2.48,2.48,0,0,1-1,1c-.41.23,0,.87.38.64a3.29,3.29,0,0,0,1.26-1.25c.23-.42-.41-.8-.65-.38Z"/><path class="e" d="M75.78,130.77l-1.12,1.13c-.34.34.19.86.53.52s.74-.75,1.12-1.12a.38.38,0,0,0-.53-.53Z"/><path class="e" d="M73.86,132.86l-.26.22c-.06,0-.28.2-.19.18l.45.45c0,.1,0,.1,0,0,.32-.36-.2-.89-.52-.53-.09.09-.22.21-.23.34s.15.54.45.45a2.48,2.48,0,0,0,.78-.59c.37-.3-.16-.82-.52-.52Z"/><path class="e" d="M92.55,117.89a32.75,32.75,0,0,1-8.69-5.1c-.37-.3-.89.22-.52.52a34,34,0,0,0,9,5.3c.44.17.63-.54.19-.72Z"/><path class="e" d="M81,113.31,73.15,118l.45.58.61-.56c.36-.32-.17-.85-.52-.53l-.62.56a.38.38,0,0,0,.45.59l7.9-4.64a.37.37,0,0,0-.38-.64Z"/><path class="e" d="M91.78,113.84c-1.57.13-3.3-1.14-4.61-1.91s-2.5-1.56-3.7-2.42c-.38-.28-.76.36-.37.64a46.44,46.44,0,0,0,4.72,3c1.22.67,2.52,1.55,4,1.43.47,0,.47-.78,0-.74Z"/><path class="e" d="M81.21,109.61,72.65,116c-.38.28,0,.92.38.64l8.55-6.35c.38-.28,0-.93-.37-.64Z"/><path class="a" d="M93.74,164.73c-2.47-2.15-3.62-5.41-4.6-8.54A105.2,105.2,0,0,1,85,138.81c-.45-3.38-.65-6.79-.85-10.19-.8-13.52-1.59-27.18.59-40.55.71-4.42,1.76-8.88,1.27-13.33l-2.31-.21,0,3.39c-.11,11.91-2.87,23.71-2.6,35.61.12,5.06.55,10.1,1.1,15.12,1.16,10.55,2.93,21.25,7.78,30.69C91,161.39,91.79,163.5,93.74,164.73Z"/><polygon class="c" points="92.15 30.83 74.42 9.88 48.66 9.84 64.92 30.79 48.61 51.68 74.36 51.73 92.15 30.83"/><polygon class="c" points="306.93 30.83 324.66 9.88 350.42 9.84 334.16 30.79 350.47 51.69 324.72 51.73 306.93 30.83"/><path class="a" d="M23.75,18.85l11.52,12L23.68,42.72l-11.51-12,11.58-11.9m0-9L3.41,30.72,23.66,51.77,44,30.84,23.78,9.8Z"/><path class="a" d="M480.17,18.78l11.52,12L480.1,42.65l-11.51-12,11.58-11.9m0-9L459.83,30.65,480.08,51.7l20.36-20.93-20.24-21Z"/><path class="a" d="M375.7,18.8l11.52,12-11.59,11.9-11.52-12L375.7,18.8m0-9L355.36,30.68l20.24,21L396,30.8l-20.25-21Z"/><polygon class="c" points="442.91 30.81 425.17 9.86 399.42 9.81 415.67 30.77 399.36 51.66 425.12 51.71 442.91 30.81"/><polygon class="b" points="80.77 9.8 88.12 9.8 105.7 30.79 88.11 51.76 80.77 51.76 97.91 30.78 80.77 9.8"/><polygon class="b" points="33.14 9.8 40.49 9.8 58.08 30.79 40.48 51.77 33.14 51.76 50.28 30.79 33.14 9.8"/><polygon class="b" points="318.31 9.8 310.96 9.8 293.38 30.79 310.97 51.76 318.31 51.76 301.17 30.79 318.31 9.8"/><polygon class="b" points="431.53 9.78 438.88 9.78 456.46 30.76 438.87 51.74 431.52 51.74 448.67 30.76 431.53 9.78"/><polygon class="b" points="385.13 9.76 392.48 9.76 410.06 30.74 392.47 51.72 385.13 51.72 402.27 30.74 385.13 9.76"/><polygon class="b" points="365.13 51.77 357.78 51.76 340.19 30.78 357.79 9.8 365.13 9.8 347.99 30.78 365.13 51.77"/><polygon class="b" points="194.49 199.64 201.25 193.33 194.46 187.06 187.67 180.78 180.91 187.09 174.15 193.4 180.94 199.67 187.73 205.95 194.49 199.64"/><path class="a" d="M215.2,187.18l3.59,3.32,3.08,2.85-3.07,2.86-3.58,3.34-3.59-3.32-3.08-2.85,3.07-2.86,3.58-3.34m0-6.4-6.76,6.31-6.76,6.31,6.79,6.27,6.79,6.28,6.76-6.31,6.76-6.31L222,187.06l-6.79-6.28Z"/><polygon class="b" points="112.92 199.64 119.67 193.33 112.89 187.06 106.1 180.78 99.34 187.09 92.58 193.4 99.37 199.67 106.16 205.95 112.92 199.64"/><path class="a" d="M133.62,187.18l3.59,3.32,3.08,2.85-3.06,2.86-3.58,3.34-3.59-3.32L127,193.38l3.07-2.86,3.57-3.34m0-6.4-6.76,6.31-6.76,6.31,6.79,6.27,6.78,6.28,6.76-6.31,6.76-6.31-6.79-6.27-6.78-6.28Z"/><polygon class="b" points="31.34 199.64 38.1 193.33 31.31 187.06 24.52 180.78 17.76 187.09 11 193.4 17.79 199.67 24.58 205.95 31.34 199.64"/><path class="a" d="M52.05,187.18l3.59,3.32,3.08,2.85-3.07,2.86-3.57,3.34-3.6-3.32-3.08-2.85,3.07-2.86,3.58-3.34m0-6.4-6.76,6.31-6.76,6.31,6.79,6.27L52.09,206l6.76-6.31,6.76-6.31-6.79-6.27L52,180.78Z"/><polygon class="b" points="439.62 199.64 446.38 193.33 439.59 187.06 432.81 180.78 426.05 187.09 419.29 193.4 426.07 199.67 432.86 205.95 439.62 199.64"/><path class="a" d="M460.33,187.18l3.59,3.32,3.08,2.85-3.07,2.86-3.57,3.34-3.59-3.32-3.09-2.85,3.07-2.86,3.58-3.34m0-6.4-6.76,6.31-6.75,6.31,6.78,6.27,6.79,6.28,6.76-6.31,6.76-6.31-6.79-6.27-6.79-6.28Z"/><polygon class="b" points="358.05 199.64 364.81 193.33 358.02 187.06 351.23 180.78 344.47 187.09 337.71 193.4 344.5 199.67 351.29 205.95 358.05 199.64"/><path class="a" d="M378.76,187.18l3.59,3.32,3.08,2.85-3.07,2.86-3.58,3.34-3.59-3.32-3.08-2.85,3.07-2.86,3.58-3.34m0-6.4L372,187.09l-6.76,6.31,6.79,6.27L378.8,206l6.76-6.31,6.76-6.31-6.79-6.27-6.79-6.28Z"/><polygon class="b" points="276.48 199.64 283.24 193.33 276.45 187.06 269.66 180.78 262.9 187.09 256.14 193.4 262.93 199.67 269.72 205.95 276.48 199.64"/><path class="a" d="M297.18,187.18l3.59,3.32,3.08,2.85-3.06,2.86-3.58,3.34-3.59-3.32-3.08-2.85,3.07-2.86,3.57-3.34m0-6.4-6.76,6.31-6.76,6.31,6.79,6.27,6.78,6.28,6.76-6.31,6.76-6.31L304,187.06l-6.79-6.28Z"/><polygon class="b" points="521.74 199.64 528.5 193.33 521.71 187.06 514.92 180.78 508.16 187.09 501.4 193.4 508.19 199.67 514.98 205.95 521.74 199.64"/><path class="a" d="M542.44,187.18l3.6,3.32,3.08,2.85-3.07,2.86-3.58,3.34-3.59-3.32-3.08-2.85,3.07-2.86,3.57-3.34m0-6.4-6.76,6.31-6.76,6.31,6.79,6.27,6.79,6.28,6.76-6.31,6.76-6.31-6.79-6.27-6.79-6.28Z"/><polygon class="c" points="249.1 199.64 255.85 193.33 249.07 187.06 242.28 180.78 235.52 187.09 228.76 193.4 235.55 199.67 242.34 205.95 249.1 199.64"/><polygon class="c" points="167.52 199.64 174.28 193.33 167.49 187.06 160.7 180.78 153.94 187.09 147.18 193.4 153.97 199.67 160.76 205.95 167.52 199.64"/><polygon class="c" points="85.95 199.64 92.71 193.33 85.92 187.06 79.13 180.78 72.37 187.09 65.61 193.4 72.4 199.67 79.19 205.95 85.95 199.64"/><polygon class="c" points="494.23 199.64 500.99 193.33 494.2 187.06 487.41 180.78 480.65 187.09 473.89 193.4 480.68 199.67 487.47 205.95 494.23 199.64"/><polygon class="c" points="412.66 199.64 419.42 193.33 412.63 187.06 405.84 180.78 399.08 187.09 392.32 193.4 399.11 199.67 405.9 205.95 412.66 199.64"/><polygon class="c" points="331.08 199.64 337.84 193.33 331.05 187.06 324.26 180.78 317.5 187.09 310.74 193.4 317.53 199.67 324.32 205.95 331.08 199.64"/><polygon class="f" points="42.47 246.7 42.47 226.13 57.53 236.41 72.59 246.7 57.53 256.98 42.47 267.27 42.47 246.7"/><polygon class="b" points="72.36 246.7 72.36 226.13 87.42 236.41 102.48 246.7 87.42 256.98 72.36 267.27 72.36 246.7"/><polygon class="a" points="102.25 246.7 102.25 226.13 117.31 236.41 132.37 246.7 117.31 256.98 102.25 267.27 102.25 246.7"/><polygon class="f" points="162.04 246.7 162.04 226.13 177.1 236.41 192.16 246.7 177.1 256.98 162.04 267.27 162.04 246.7"/><polygon class="b" points="191.93 246.7 191.93 226.13 206.99 236.41 222.05 246.7 206.99 256.98 191.93 267.27 191.93 246.7"/><polygon class="a" points="221.82 246.7 221.82 226.13 236.88 236.41 251.94 246.7 236.88 256.98 221.82 267.27 221.82 246.7"/><polygon class="f" points="283.92 246.7 283.92 226.13 298.98 236.41 314.04 246.7 298.98 256.98 283.92 267.27 283.92 246.7"/><polygon class="f" points="524.31 246.7 524.31 226.13 539.37 236.41 554.43 246.7 539.37 256.98 524.31 267.27 524.31 246.7"/><polygon class="b" points="313.81 246.7 313.81 226.13 328.87 236.41 343.93 246.7 328.87 256.98 313.81 267.27 313.81 246.7"/><polygon class="a" points="343.7 246.7 343.7 226.13 358.76 236.41 373.82 246.7 358.76 256.98 343.7 267.27 343.7 246.7"/><polygon class="c" points="12.58 246.7 12.58 226.13 27.64 236.41 42.7 246.7 27.64 256.98 12.58 267.27 12.58 246.7"/><polygon class="c" points="132.15 246.7 132.15 226.13 147.21 236.41 162.27 246.7 147.21 256.98 132.15 267.27 132.15 246.7"/><polygon class="c" points="251.92 246.7 251.92 226.13 266.98 236.41 282.04 246.7 266.98 256.98 251.92 267.27 251.92 246.7"/><polygon class="c" points="373.59 246.7 373.59 226.13 388.65 236.41 403.71 246.7 388.65 256.98 373.59 267.27 373.59 246.7"/><polygon class="c" points="493.36 246.7 493.36 226.13 508.42 236.41 523.49 246.7 508.42 256.98 493.36 267.27 493.36 246.7"/><polygon class="f" points="403.48 246.7 403.48 226.13 418.54 236.41 433.61 246.7 418.54 256.98 403.48 267.27 403.48 246.7"/><polygon class="b" points="433.38 246.7 433.38 226.13 448.44 236.41 463.5 246.7 448.44 256.98 433.38 267.27 433.38 246.7"/><polygon class="a" points="463.27 246.7 463.27 226.13 478.33 236.41 493.39 246.7 478.33 256.98 463.27 267.27 463.27 246.7"/><polygon class="c" points="516.8 30.85 534.54 9.89 560.3 9.85 544.04 30.8 560.35 51.7 534.59 51.74 516.8 30.85"/><polygon class="b" points="528.18 9.82 520.84 9.82 503.25 30.8 520.84 51.78 528.19 51.78 511.05 30.8 528.18 9.82"/></svg>