<svg viewBox="0 0 567 269" xmlns="http://www.w3.org/2000/svg"><path d="m46.82 50.64c-2.08.56-4.11 2.32-5.54 3.9-1.52 1.69-2.8 3.7-3.02 5.9-.95 9.1.62 17.59 3.2 26.3.84 2.86 1.89 5.7 3.68 8.1 1.8 2.4 4.44 4.32 7.5 4.77 2.56.38 5.73.53 8.25-.13 3-.78 3.51-.03 7.57-1.97 1.91-.91 4.59-2.8 5.92-4.4 1.07-1.28 1.92-2.5 2.11-4.11a45.93 45.93 0 0 0 -10.56-35.11c-5.4-6.35-11.44-5.34-19.11-3.25z" fill="#faee81"/><path d="m37.3 62.1 11.27 6.49c9.17 5.26 17.95 10.57 28.1 13.53m-38.33-6.46a100.65 100.65 0 0 0 25.56 12.84c3.77 1.26 7.73 2.31 11.69 1.9m-34.43-4.3c.73.89 1.7 1.52 2.68 2.13a77.95 77.95 0 0 0 24.35 9.84l-.84-.3m-24.53-44.62a305 305 0 0 1 15.87 7.91c4.85 2.6 9.74 5.37 15.14 6.46m-17.95-18.65c-.1.22.19.4.41.49l7.99 2.8m-26.32 17.72a77.8 77.8 0 0 0 12.74-20.03m-10.04 33.15a184.85 184.85 0 0 0 23.09-31.18" fill="none" stroke="#ffdc10" stroke-miterlimit="10" stroke-width=".79"/><path d="m45.04 95.05a164.77 164.77 0 0 0 21.52-26.45c1.5-2.3 2.95-4.63 4.06-7.14.04-.1.12-.24.24-.22s.03.26-.04.16m-15.46 38.43a74.09 74.09 0 0 0 4.49-4.83c1.4-1.64 2.73-3.35 4.06-5.06 4.2-5.4 8.4-10.8 12-16.63" fill="none" stroke="#ffdc10" stroke-miterlimit="10" stroke-width=".79"/><path d="m58.47 71.01c.21-1.93.2-3.8-.14-5.63a.4.4 0 0 1 .75-.2 31.76 31.76 0 0 0 2.32 4.82 11.45 11.45 0 0 1 -3.07-4.55l.76-.21c.38 1.94.2 4-.63 5.77zm-6.83 8.96c.19-.46.33-.9.4-1.38.1-.47.14-.94.16-1.4.03-.95-.02-1.9-.07-2.86a.4.4 0 0 1 .76-.17c.63 1.6 1.39 3.15 2.2 4.72l-.1.03c.02-.1-.03-.2-.11-.27.1.04.2.13.23.26 0 .03-.01.06-.04.07-.02 0-.04 0-.05-.02l-.01-.01a13.86 13.86 0 0 1 -2.85-4.49l.76-.16c.04.97.06 1.97-.1 2.96a5.32 5.32 0 0 1 -1.18 2.72zm-3.29-14.71c.5-1.6.25-3.15.1-4.78v-.01a.4.4 0 0 1 .77-.16c.46 1.4 1.1 2.7 1.83 4.05a8.47 8.47 0 0 1 -2.57-3.8l.76-.16c.08.82.14 1.66.03 2.51-.05.43-.14.85-.29 1.25-.16.4-.35.8-.63 1.1zm5.44-8.96c.5-1.55.75-3.08.63-4.6a.4.4 0 0 1 .73-.23c.7 1.27 1.3 2.5 2.28 3.6a5.04 5.04 0 0 1 -1.73-1.39 12.2 12.2 0 0 1 -1.23-1.82l.73-.23a6.28 6.28 0 0 1 -1.41 4.67zm10.06 5.47c.6-1.64.84-3.31.6-4.94a.4.4 0 0 1 .76-.2 12.45 12.45 0 0 0 2.6 3.99 6.98 6.98 0 0 1 -3.33-3.7l.75-.2c.13.9.09 1.83-.15 2.7-.22.87-.65 1.69-1.23 2.35zm-23 12.03c.22.08.39-.1.41-.27.04-.17.01-.39 0-.6l-.05-1.27c-.04-.84-.08-1.67-.16-2.5a.4.4 0 0 1 .73-.24 38.98 38.98 0 0 1 1.8 3.51c.1.2.16.42.27.56.1.13.36.2.49 0-.02.25-.42.33-.62.16-.22-.16-.33-.36-.47-.52a31.73 31.73 0 0 1 -2.15-3.31l.73-.24a15.02 15.02 0 0 1 -.19 3.88c-.05.2-.07.42-.19.65-.1.23-.43.36-.6.2zm27.01 2.13c0 .1.1.16.17.14l-.04.03c.35-1.93.58-3.82.6-5.73a.39.39 0 0 1 .76-.08c.29 1.6 1 3.12 2.06 4.48a6.77 6.77 0 0 1 -2.82-4.33l.77-.08c.02 2-.38 4.01-1.28 5.78h-.01c0 .02-.02.03-.04.03-.13-.01-.2-.14-.17-.24zm-6.55 9.07c.39-.3.47-.75.49-1.19s0-.92.01-1.37c.02-.93.08-1.86.15-2.78a.4.4 0 0 1 .77-.09c.56 1.7 1.3 3.33 2.07 5.01-1.3-1.33-2.21-3-2.82-4.76l.77-.1a46.6 46.6 0 0 1 -.32 2.77c-.07.46-.13.9-.25 1.39-.07.23-.16.46-.3.67a1 1 0 0 1 -.57.44zm10.09 3.23c.12-.87.3-1.7.41-2.53.12-.82.11-1.62-.09-2.37v-.02a.38.38 0 0 1 .69-.3c.7 1.1 1.34 2.24 1.83 3.48a21.62 21.62 0 0 1 -2.47-3.06l.69-.32c.3.9.22 1.86 0 2.72a8.92 8.92 0 0 1 -1.07 2.4zm-5.15 7.32c.4-1.27.46-2.5.13-3.65a.4.4 0 0 1 .74-.27 29.14 29.14 0 0 0 1.72 3.31 6.7 6.7 0 0 1 -2.45-3l.74-.27c.2.69.23 1.41.07 2.1a3.54 3.54 0 0 1 -.95 1.78zm-11.05-3.19c.18-1.5.15-2.92-.2-4.3a.4.4 0 0 1 .7-.33 21 21 0 0 1 2.32 3.55 20.94 20.94 0 0 1 -2.94-3.06l.69-.35a5.9 5.9 0 0 1 -.58 4.5zm-9.64-5.21c.28-1.5.1-2.9.01-4.4a.4.4 0 0 1 .76-.16c.52 1.41 1.13 2.77 1.74 4.2a10.34 10.34 0 0 1 -2.48-3.93l.77-.16c.03.75.06 1.52-.04 2.28-.1.77-.33 1.54-.76 2.17zm4.6 9.8c.06.06.1-.02.13-.07.03-.06.03-.1.02-.17l-.04-.43-.07-.86-.15-1.68a.4.4 0 0 1 .76-.17c.2.56.45 1.1.7 1.66l.4.82.22.42.1.2c.02.02.03.03.05.03.01.02 0-.07-.03-.03.01-.06.1 0 .08.07-.05.07-.13.04-.17.02-.1-.06-.13-.1-.2-.16l-.36-.32a6.76 6.76 0 0 1 -1.52-2.45l.75-.16a8.5 8.5 0 0 1 -.2 2.64l-.12.42a.41.41 0 0 1 -.13.22c-.05.06-.2.1-.22 0zm-9.63-36.6c.23-.2.23-.47.26-.76l.08-.86c.05-.57.09-1.13.1-1.69l.01-.01a.39.39 0 0 1 .77-.06c.18.96.44 1.9.67 2.92a5.7 5.7 0 0 1 -1.42-2.76l.77-.07a6.63 6.63 0 0 1 -.58 2.64 2.5 2.5 0 0 1 -.25.4c-.1.14-.24.25-.4.25z" fill="#fdfae9"/><path d="m33.79 49.84a25.04 25.04 0 0 1 10.81-2.14 24.49 24.49 0 0 0 -16.42-6.24c2.57-1.2 5.19-2.43 8-2.8s5.9.22 7.89 2.24a23.42 23.42 0 0 0 -16.13-8.82c4.18-2.93 9.9-.81 14.52 1.38a55.83 55.83 0 0 0 -16.52-9.98c5.82-.5 11.8.94 16.74 4.04a106.13 106.13 0 0 1 -5.57-19.68 39.74 39.74 0 0 1 11.69 19.46 27.6 27.6 0 0 1 9.37-12.93c-1.3 6.29-3 12.5-5.07 18.57 1.23-1.47 2.5-2.96 4.15-3.93 1.66-.97 3.8-1.31 5.48-.4a32.73 32.73 0 0 0 -6.24 13.58 13.55 13.55 0 0 1 11.84-2.57 17.11 17.11 0 0 0 -11.22 8.56 14.02 14.02 0 0 1 12-3.2c-6.1-1.28-11.66 6.58-17.35 7.2-5.77.63-12-2.47-17.98-2.33z" fill="#70c4a8"/><path d="m185.34 149.28c-2.13.4-4.29 1.99-5.84 3.44-1.65 1.55-3.09 3.47-3.5 5.63-1.69 8.98-.82 17.58 1.03 26.48.6 2.91 1.42 5.83 3.01 8.37s4.07 4.67 7.08 5.37c2.52.59 5.66 1 8.23.55 3.05-.53 3.51.25 7.7-1.34 2-.76 4.81-2.41 6.27-3.9 1.17-1.2 2.11-2.34 2.45-3.93a45.93 45.93 0 0 0 -7.65-35.86c-4.87-6.77-10.97-6.25-18.78-4.8z" fill="#faee81"/><path d="m174.9 159.94 10.71 7.37c8.7 6 17.02 12.02 26.9 15.8m-37.68-9.59a100.63 100.63 0 0 0 24.43 14.91c3.65 1.57 7.51 2.94 11.49 2.85m-33.96-7.11c.66.94 1.58 1.65 2.5 2.33a77.96 77.96 0 0 0 23.46 11.82l-.82-.38m-20.78-46.48a305.3 305.3 0 0 1 15.16 9.19c4.62 2.99 9.27 6.15 14.56 7.67m-16.37-20.06c-.1.22.17.42.39.52l7.72 3.45m-27.68 15.5a77.8 77.8 0 0 0 14.33-18.92m-12.71 32.22c9.51-8.8 18.1-18.59 25.56-29.18" fill="none" stroke="#ffdc10" stroke-miterlimit="10" stroke-width=".79"/><path d="m179.92 193.4c8.7-7.35 16.62-15.6 23.62-24.6a50.55 50.55 0 0 0 4.63-6.78c.05-.1.14-.22.26-.2.11.03.01.26-.05.16m-18.57 37.02a74.06 74.06 0 0 0 4.87-4.43c1.53-1.53 3-3.12 4.46-4.72 4.63-5.03 9.27-10.08 13.33-15.58" fill="none" stroke="#ffdc10" stroke-miterlimit="10" stroke-width=".79"/><path d="m195.27 170.54c.38-1.9.53-3.76.32-5.61a.4.4 0 0 1 .77-.15c.47 1.7 1.16 3.33 1.93 5-1.28-1.33-2.16-3.01-2.68-4.79l.77-.15a9.4 9.4 0 0 1 -1.1 5.7zm-7.53 8.37c.22-.44.4-.87.51-1.34.13-.46.21-.92.27-1.39.11-.93.14-1.89.17-2.85a.4.4 0 0 1 .77-.1 47.4 47.4 0 0 0 1.81 4.88l-.1.02a.32.32 0 0 0 -.1-.28c.1.05.19.15.2.28a.05.05 0 0 1 -.09.05v-.02c-1.13-1.37-1.95-3-2.47-4.7l.77-.1c-.04.97-.1 1.96-.35 2.94a5.32 5.32 0 0 1 -1.4 2.61zm-2.08-14.92c.63-1.56.51-3.13.5-4.77a.4.4 0 0 1 .78-.1c.34 1.43.87 2.79 1.49 4.2a8.46 8.46 0 0 1 -2.25-4l.77-.1c.01.81 0 1.66-.17 2.5-.09.42-.21.83-.4 1.22-.19.38-.41.76-.72 1.05zm6.16-8.49c.63-1.5 1-3 1.01-4.54 0-.22.18-.4.4-.4.15.01.29.1.35.24.6 1.32 1.08 2.6 1.97 3.77a5.05 5.05 0 0 1 -1.61-1.53c-.43-.6-.77-1.26-1.07-1.91l.74-.17c.02 1.68-.6 3.4-1.8 4.54zm9.58 6.28c.74-1.6 1.1-3.23 1-4.88a.4.4 0 0 1 .77-.14c.45 1.51 1.24 2.9 2.28 4.2a6.98 6.98 0 0 1 -3.03-3.97l.77-.14c.06.91-.07 1.83-.37 2.68-.3.86-.79 1.63-1.42 2.25zm-23.91 10.1c.2.1.4-.07.43-.23.06-.18.04-.4.05-.6l.06-1.27c.02-.84.05-1.68.04-2.52a.4.4 0 0 1 .75-.17 39.07 39.07 0 0 1 1.5 3.65c.08.21.13.43.23.57.09.15.34.23.48.04-.04.25-.44.3-.63.12-.2-.17-.3-.39-.43-.56a31 31 0 0 1 -1.86-3.48l.74-.17a15.15 15.15 0 0 1 -.5 3.84c-.07.2-.11.42-.24.64-.12.22-.46.32-.62.14zm26.74 4.34c0 .1.1.17.16.15l-.05.03c.51-1.9.9-3.76 1.07-5.67a.39.39 0 0 1 .77 0c.15 1.61.74 3.18 1.68 4.62a6.77 6.77 0 0 1 -2.45-4.55h.77c-.13 1.98-.7 3.96-1.75 5.64v.01l-.04.02c-.14-.02-.2-.16-.16-.25zm-7.27 8.49c.41-.25.53-.7.58-1.14.06-.43.08-.9.13-1.37.1-.92.23-1.83.38-2.75a.4.4 0 0 1 .77-.03 46.44 46.44 0 0 0 1.65 5.17 12.66 12.66 0 0 1 -2.41-4.98l.77-.03c-.16.92-.33 1.83-.55 2.73-.1.45-.2.9-.36 1.36-.09.23-.2.46-.35.65a.99.99 0 0 1 -.6.4zm9.78 4.05c.2-.85.46-1.67.63-2.48.18-.8.24-1.6.1-2.37v-.02a.38.38 0 0 1 .72-.25c.6 1.16 1.15 2.35 1.54 3.62a21.54 21.54 0 0 1 -2.22-3.25l.72-.26c.22.92.07 1.87-.22 2.71-.3.85-.75 1.6-1.27 2.3zm-5.72 6.87c.5-1.22.66-2.45.42-3.62a.4.4 0 0 1 .3-.47c.2-.04.4.08.46.27.38 1.16.9 2.26 1.45 3.44a6.7 6.7 0 0 1 -2.2-3.2l.77-.2c.14.7.1 1.42-.1 2.08-.2.67-.59 1.28-1.1 1.7zm-10.76-4.07c.3-1.49.4-2.9.16-4.3a.4.4 0 0 1 .72-.28c.77 1.18 1.5 2.39 2.03 3.73-1.04-1-1.89-2.13-2.69-3.3l.72-.28a5.88 5.88 0 0 1 -.94 4.43zm-9.17-5.99c.4-1.47.34-2.89.37-4.38a.4.4 0 0 1 .77-.1c.4 1.45.9 2.85 1.39 4.33a10.34 10.34 0 0 1 -2.15-4.12l.78-.1c-.03.75-.06 1.52-.23 2.27-.15.75-.45 1.5-.93 2.1zm3.78 10.14c.06.07.1 0 .13-.05.03-.06.04-.1.04-.17v-1.3l-.02-1.68a.4.4 0 0 1 .77-.11c.16.58.36 1.14.57 1.7l.33.86.18.44.09.2c.01.03.02.04.04.04.01.02 0-.07-.03-.04.02-.05.1.01.07.08-.05.07-.13.04-.17.01-.08-.06-.12-.11-.18-.17l-.34-.35a6.78 6.78 0 0 1 -1.32-2.56l.78-.11a8.45 8.45 0 0 1 -.41 2.61l-.16.42a.42.42 0 0 1 -.16.2c-.05.06-.2.08-.21-.02zm-6.6-37.26c.25-.18.27-.45.32-.74l.15-.85c.1-.56.18-1.11.25-1.67v-.02a.39.39 0 0 1 .78.01c.1.97.28 1.93.43 2.97a5.7 5.7 0 0 1 -1.2-2.87l.77-.01a6.6 6.6 0 0 1 -.8 2.58c-.07.12-.16.27-.27.39-.1.12-.27.22-.43.21z" fill="#fdfae9"/><path d="m172.42 147.42a25.06 25.06 0 0 1 10.95-1.26 24.5 24.5 0 0 0 -15.85-7.56c2.66-1 5.36-2 8.2-2.14 2.83-.15 5.85.7 7.68 2.88a23.41 23.41 0 0 0 -15.35-10.1c4.4-2.6 9.93 0 14.36 2.55a55.8 55.8 0 0 0 -15.65-11.3 27.4 27.4 0 0 1 16.36 5.4 106.28 106.28 0 0 1 -3.95-20.06 39.74 39.74 0 0 1 10.06 20.34 27.6 27.6 0 0 1 10.4-12.11 155.3 155.3 0 0 1 -6.57 18.09c1.35-1.36 2.74-2.75 4.46-3.57 1.73-.83 3.9-1 5.5.05a32.73 32.73 0 0 0 -7.34 13.02 13.55 13.55 0 0 1 12-1.59c-4.8.67-9.25 3.52-11.87 7.6a14.02 14.02 0 0 1 12.21-2.2c-5.97-1.77-12.15 5.61-17.87 5.76-5.8.16-11.76-3.44-17.73-3.8z" fill="#70c4a8"/><path d="m359.15 208.88c-2.13-.35-4.7.42-6.66 1.27-2.08.9-4.07 2.22-5.19 4.12-4.62 7.89-6.69 16.27-7.95 25.28-.4 2.94-.63 5.97.02 8.9.64 2.92 2.25 5.76 4.85 7.44 2.18 1.4 5 2.84 7.57 3.28 3.05.53 3.22 1.42 7.7 1.33 2.13-.04 5.34-.65 7.22-1.56 1.5-.72 2.78-1.49 3.63-2.87a45.93 45.93 0 0 0 4.87-36.34c-2.3-8.01-8.22-9.58-16.06-10.85z" fill="#faee81"/><path d="m345.74 215.4 7.6 10.55c6.17 8.57 11.97 17.04 20 23.92m-32.24-21.71a100.67 100.67 0 0 0 17.97 22.27c2.91 2.7 6.08 5.3 9.86 6.55m-29.58-18.14c.3 1.1.93 2.1 1.57 3.04a77.94 77.94 0 0 0 18.1 19.03l-.63-.63m-3.92-50.76c3.86 4.47 7.59 9.06 11.18 13.75 3.35 4.37 6.66 8.91 11.13 12.13m-8.65-24.4c-.18.17 0 .45.18.62l6.1 5.85m-31.28 5.27a77.83 77.83 0 0 0 19.87-12.98m-22.82 26.05a184.88 184.88 0 0 0 33.9-18.86" fill="none" stroke="#ffdc10" stroke-miterlimit="10" stroke-width=".79"/><path d="m339.19 248.59c10.66-4 20.9-9.1 30.52-15.2 2.31-1.47 4.6-3 6.64-4.83.09-.08.21-.16.31-.1.1.07-.07.25-.1.14m-29.94 28.6a74.2 74.2 0 0 0 6.07-2.53c1.96-.93 3.88-1.93 5.8-2.94 6.04-3.18 12.1-6.37 17.78-10.19" fill="none" stroke="#ffdc10" stroke-miterlimit="10" stroke-width=".79"/><path d="m361.34 232.24c1-1.67 1.76-3.37 2.2-5.18a.4.4 0 0 1 .47-.3c.19.05.31.23.3.42-.13 1.77-.04 3.53.13 5.35a11.45 11.45 0 0 1 -.91-5.4l.77.11a9.4 9.4 0 0 1 -2.96 5zm-9.91 5.35c.36-.35.67-.7.94-1.1.27-.38.5-.8.71-1.21.43-.85.77-1.73 1.13-2.64a.4.4 0 0 1 .75.17c-.09 1.72-.03 3.44.07 5.2h-.11a.32.32 0 0 0 0-.3c.08.07.13.2.1.33 0 .03-.03.05-.06.04a.05.05 0 0 1 -.04-.03v-.02c-.6-1.67-.82-3.48-.74-5.26l.76.17c-.37.9-.76 1.81-1.32 2.65a5.32 5.32 0 0 1 -2.2 2zm3.07-14.76c1.12-1.25 1.54-2.77 2.08-4.32a.4.4 0 0 1 .76.17 24.73 24.73 0 0 0 0 4.45 8.46 8.46 0 0 1 -.78-4.53l.76.17c-.26.78-.56 1.57-1 2.3a5.5 5.5 0 0 1 -.78 1.02c-.32.3-.65.57-1.04.74zm8.66-5.92c1.1-1.2 1.95-2.49 2.48-3.93a.39.39 0 0 1 .75.1c.12 1.44.15 2.81.6 4.21a5.04 5.04 0 0 1 -1-1.97c-.21-.72-.3-1.45-.37-2.17l.75.1a6.29 6.29 0 0 1 -3.21 3.66zm6.9 9.14a10.13 10.13 0 0 0 2.59-4.25.4.4 0 0 1 .77.13c-.08 1.57.2 3.13.73 4.7a6.97 6.97 0 0 1 -1.51-4.74l.77.13c-.25.87-.68 1.7-1.26 2.4a5.79 5.79 0 0 1 -2.09 1.63zm-25.91 1.46c.16.16.4.06.49-.07.1-.15.16-.36.25-.56l.47-1.17c.3-.78.61-1.56.89-2.35a.4.4 0 0 1 .76.09c.08.87.15 1.75.18 2.62.02.44.02.88.02 1.32 0 .22-.04.45.01.62.04.16.24.32.44.2-.12.22-.52.13-.63-.11-.14-.23-.16-.46-.22-.67a30.46 30.46 0 0 1 -.59-3.9l.77.1a15.12 15.12 0 0 1 -1.77 3.44c-.14.16-.25.36-.44.52s-.55.15-.63-.08zm23.71 13.09c-.04.1.03.2.1.2l-.05.01a32.8 32.8 0 0 0 2.91-4.98.39.39 0 0 1 .73.25c-.4 1.58-.37 3.25.03 4.93a6.77 6.77 0 0 1 -.78-5.11l.73.25c-.8 1.83-2 3.5-3.55 4.73h-.01a.04.04 0 0 1 -.04.01c-.12-.07-.13-.21-.07-.29zm-9.7 5.55c.47-.1.74-.48.93-.87.2-.4.38-.84.58-1.25a46 46 0 0 1 1.29-2.47.4.4 0 0 1 .73.24c-.19 1.78-.2 3.57-.18 5.42a12.65 12.65 0 0 1 -.6-5.5l.74.23c-.46.8-.93 1.6-1.44 2.38-.25.4-.5.77-.8 1.16a2.5 2.5 0 0 1 -.55.5c-.2.13-.47.2-.7.16zm7.84 7.11c.48-.74 1-1.42 1.43-2.13a6 6 0 0 0 .9-2.2v-.02a.38.38 0 0 1 .76.01c.18 1.3.3 2.6.23 3.93a21.55 21.55 0 0 1 -1-3.8l.77-.01a4.9 4.9 0 0 1 -1.12 2.48 8.95 8.95 0 0 1 -1.97 1.74zm-7.7 4.54a6.15 6.15 0 0 0 1.62-3.27.4.4 0 0 1 .44-.34c.2.03.35.2.35.4-.04 1.23.07 2.43.2 3.73a6.7 6.7 0 0 1 -1-3.74l.8.06c-.1.7-.38 1.37-.8 1.93-.41.56-.98 1-1.61 1.23zm-8.76-7.46c.8-1.3 1.35-2.6 1.6-4a.4.4 0 0 1 .77-.02c.33 1.37.6 2.76.66 4.2a20.87 20.87 0 0 1 -1.42-4l.77-.03a5.9 5.9 0 0 1 -2.38 3.85zm-6.62-8.73c.88-1.24 1.3-2.6 1.83-4 .08-.2.3-.3.5-.23a.4.4 0 0 1 .26.4c-.12 1.5-.11 2.99-.15 4.55a10.33 10.33 0 0 1 -.63-4.6l.76.16c-.28.7-.57 1.4-.98 2.06a4.9 4.9 0 0 1 -1.59 1.66zm.15 10.83c.03.08.1.03.14-.01a.27.27 0 0 0 .1-.15l.13-.41.3-.8.55-1.6a.4.4 0 0 1 .77.16c-.05.6-.06 1.2-.05 1.8l.03.91.02.47.01.22c0 .03.02.05.03.06 0 .02.03-.07-.01-.05.03-.04.1.05.04.1-.07.04-.13-.01-.16-.05l-.12-.22-.2-.45a6.8 6.8 0 0 1 -.38-2.86l.77.16a8.42 8.42 0 0 1 -1.27 2.33l-.3.33a.4.4 0 0 1 -.2.15c-.07.03-.23 0-.2-.1zm6.33-37.31c.3-.08.41-.33.56-.6l.43-.74c.28-.5.54-.99.8-1.49v-.01a.39.39 0 0 1 .73.26c-.23.95-.39 1.91-.6 2.94a5.7 5.7 0 0 1 -.17-3.1l.74.25a6.6 6.6 0 0 1 -1.62 2.16c-.11.1-.25.2-.4.27-.13.08-.32.12-.46.06z" fill="#fdfae9"/><path d="m347.6 202.77c3.71.02 7.41.89 10.75 2.5a24.49 24.49 0 0 0 -12.38-12.46c2.83-.04 5.72-.07 8.44.75 2.71.82 5.27 2.64 6.26 5.3a23.42 23.42 0 0 0 -11.05-14.69c5.02-.94 9.36 3.35 12.66 7.25a55.8 55.8 0 0 0 -10.93-15.9 27.39 27.39 0 0 1 13.58 10.59 106.2 106.2 0 0 1 3.05-20.23c3.04 7.05 3.96 15 2.62 22.55a27.6 27.6 0 0 1 13.87-7.9 155.25 155.25 0 0 1 -12.28 14.82c1.73-.83 3.5-1.67 5.4-1.86 1.91-.2 4 .37 5.16 1.9a32.74 32.74 0 0 0 -11.3 9.78c4.05-1.08 8.6-.1 11.85 2.55-4.75-.99-9.9.2-13.75 3.16 4.1-1.27 8.78-.5 12.24 2.04-5.03-3.68-13.33 1.19-18.77-.6-5.51-1.8-9.91-7.2-15.41-9.55z" fill="#70c4a8"/><path d="m446.93 57.11c-2.1-.54-4.73-.02-6.75.64-2.15.71-4.27 1.83-5.55 3.62-5.34 7.42-8.19 15.58-10.28 24.42-.7 2.9-1.2 5.89-.82 8.86.37 2.97 1.7 5.96 4.14 7.87 2.03 1.6 4.7 3.3 7.22 3.98 2.99.8 3.07 1.71 7.55 2.04 2.12.16 5.37-.15 7.33-.88 1.56-.58 2.9-1.22 3.87-2.52a45.93 45.93 0 0 0 8.26-35.72c-1.54-8.2-7.28-10.31-14.97-12.31z" fill="#faee81"/><path d="m432.96 62.34 6.58 11.22c5.34 9.12 10.33 18.1 17.67 25.7m-30.07-24.64c4.1 8.65 9.44 16.7 15.82 23.85 2.64 2.97 5.56 5.84 9.2 7.44m-27.76-20.81c.2 1.12.74 2.16 1.28 3.16a77.97 77.97 0 0 0 16.25 20.64l-.58-.69m.85-50.91c3.43 4.83 6.71 9.74 9.85 14.75 2.92 4.67 5.8 9.5 9.94 13.12m-6.33-25.1c-.18.15-.03.45.13.63l5.53 6.4m-31.64 2.32a77.82 77.82 0 0 0 21-11.07m-25.17 23.8a184.93 184.93 0 0 0 35.52-15.6" fill="none" stroke="#ffdc10" stroke-miterlimit="10" stroke-width=".79"/><path d="m423.33 94.78a164.75 164.75 0 0 0 31.81-12.28 50.49 50.49 0 0 0 7.07-4.18c.1-.07.23-.14.32-.07.1.07-.1.24-.11.12m-32.5 25.68a73.9 73.9 0 0 0 6.29-1.96c2.04-.73 4.04-1.56 6.04-2.38 6.32-2.6 12.66-5.21 18.67-8.47" fill="none" stroke="#ffdc10" stroke-miterlimit="10" stroke-width=".79"/><path d="m446.92 80.58a18.6 18.6 0 0 0 2.67-4.96.4.4 0 0 1 .76.2c-.3 1.74-.37 3.5-.37 5.34-.6-1.74-.69-3.64-.4-5.47l.76.19a9.4 9.4 0 0 1 -3.42 4.7zm-10.37 4.39c.39-.31.74-.63 1.04-1 .3-.36.57-.75.83-1.14.5-.8.92-1.66 1.36-2.52a.4.4 0 0 1 .74.24c-.25 1.7-.36 3.42-.43 5.18l-.1-.01c.05-.08.07-.2.03-.3.07.08.1.22.07.34 0 .03-.04.05-.07.04a.05.05 0 0 1 -.03-.04v-.02a13.85 13.85 0 0 1 -.25-5.3l.74.23c-.45.86-.92 1.74-1.56 2.52a5.35 5.35 0 0 1 -2.37 1.78zm4.45-14.4c1.22-1.14 1.78-2.62 2.46-4.1v-.01a.4.4 0 0 1 .75.24c-.3 1.44-.4 2.9-.43 4.43a8.45 8.45 0 0 1 -.35-4.58l.75.24c-.34.75-.7 1.51-1.22 2.2-.25.34-.54.66-.87.94-.34.26-.7.5-1.1.64zm9.16-5.08c1.21-1.1 2.18-2.3 2.84-3.68v-.01a.39.39 0 0 1 .75.17c-.02 1.45-.12 2.82.18 4.25a5.04 5.04 0 0 1 -.8-2.06c-.14-.73-.16-1.47-.17-2.2l.75.17a6.28 6.28 0 0 1 -3.55 3.36zm6.02 9.74a10.13 10.13 0 0 0 2.98-3.99.4.4 0 0 1 .75.2c-.23 1.55-.1 3.14.29 4.76a6.97 6.97 0 0 1 -1.07-4.87l.76.2a6.67 6.67 0 0 1 -1.47 2.27 5.78 5.78 0 0 1 -2.24 1.43zm-25.94-.97c.15.17.4.1.5-.03.12-.13.2-.34.3-.53l.58-1.12c.38-.75.76-1.5 1.1-2.26a.4.4 0 0 1 .75.16 39.07 39.07 0 0 1 -.17 3.95c-.03.22-.08.43-.04.61.02.17.2.35.42.24-.15.2-.53.08-.62-.17-.12-.24-.11-.47-.15-.68-.05-.44-.1-.88-.13-1.32-.06-.87-.09-1.75-.1-2.62l.76.16a15.17 15.17 0 0 1 -2.09 3.27c-.15.15-.27.33-.49.47-.2.15-.55.1-.62-.13zm22.39 15.25c-.05.09.01.2.08.2l-.05.01a32.7 32.7 0 0 0 3.36-4.68.39.39 0 0 1 .7.32c-.54 1.53-.67 3.2-.43 4.9a6.77 6.77 0 0 1 -.3-5.16l.7.32a12.28 12.28 0 0 1 -3.97 4.38h-.05c-.11-.07-.11-.22-.04-.29zm-10.18 4.62c.48-.06.78-.41 1-.79.24-.37.46-.8.7-1.18.48-.8 1-1.57 1.51-2.33a.4.4 0 0 1 .71.3 46.63 46.63 0 0 0 -.69 5.37c-.46-1.8-.43-3.7-.08-5.53l.71.3c-.53.76-1.07 1.51-1.65 2.24-.29.36-.56.72-.9 1.08-.18.17-.37.33-.6.44a1 1 0 0 1 -.7.1zm7.15 7.81c.54-.69 1.12-1.32 1.61-1.98a6 6 0 0 0 1.1-2.11v-.02a.38.38 0 0 1 .76.08c.06 1.3.05 2.62-.13 3.93a21.5 21.5 0 0 1 -.64-3.88l.76.07c-.19.92-.73 1.72-1.34 2.36a8.97 8.97 0 0 1 -2.12 1.55zm-8.1 3.8a6.15 6.15 0 0 0 1.92-3.1.4.4 0 0 1 .47-.3c.2.04.33.24.3.43a29.16 29.16 0 0 0 -.14 3.73 6.7 6.7 0 0 1 -.64-3.82l.78.14a4.2 4.2 0 0 1 -.97 1.84c-.47.53-1.07.9-1.72 1.08zm-8.02-8.25c.9-1.21 1.59-2.46 1.97-3.82a.4.4 0 0 1 .77.04c.2 1.4.34 2.8.25 4.24a20.9 20.9 0 0 1 -1.03-4.12l.77.05a5.89 5.89 0 0 1 -2.73 3.6zm-5.78-9.31c1-1.16 1.54-2.47 2.2-3.81a.4.4 0 0 1 .74.24c-.26 1.48-.4 2.96-.58 4.51-.44-1.5-.45-3.1-.2-4.64l.74.24c-.33.66-.69 1.34-1.16 1.96a4.87 4.87 0 0 1 -1.73 1.5zm-.87 10.79c.03.09.1.04.15 0a.28.28 0 0 0 .1-.13l.18-.4.37-.77.7-1.54a.4.4 0 0 1 .75.23c-.1.6-.17 1.19-.21 1.8l-.06.9-.03.47v.23c0 .03 0 .04.02.05 0 .02.03-.06-.01-.04.04-.04.1.05.03.1-.07.03-.13-.03-.16-.07l-.1-.23-.15-.46a6.21 6.21 0 0 1 -.1-2.88l.74.23a8.49 8.49 0 0 1 -1.48 2.2l-.32.3a.4.4 0 0 1 -.23.13c-.07.02-.22-.02-.19-.12zm9.81-36.55c.3-.05.44-.3.6-.53l.5-.7c.33-.47.64-.94.94-1.42a.39.39 0 0 1 .7.32c-.32.93-.56 1.87-.87 2.88a5.7 5.7 0 0 1 .13-3.12l.7.33a6.6 6.6 0 0 1 -1.81 2c-.12.08-.26.17-.42.23-.14.07-.33.09-.47.02z" fill="#fdfae9"/><path d="m436 49.95c3.7.37 7.3 1.58 10.47 3.5a24.49 24.49 0 0 0 -11.16-13.56c2.82.22 5.7.46 8.33 1.53 2.62 1.07 5 3.12 5.74 5.86a23.42 23.42 0 0 0 -9.63-15.66c5.09-.47 9 4.21 11.93 8.4a55.82 55.82 0 0 0 -9.4-16.85 27.39 27.39 0 0 1 12.54 11.81c1-6.75 2.64-13.41 4.92-19.85 2.37 7.3 2.54 15.3.5 22.7a27.6 27.6 0 0 1 14.55-6.57c-4.25 4.8-8.8 9.35-13.61 13.6 1.8-.66 3.64-1.33 5.55-1.35 1.92-.01 3.95.75 4.95 2.38a32.74 32.74 0 0 0 -12.16 8.68c4.14-.7 8.57.7 11.56 3.65a17.11 17.11 0 0 0 -13.99 1.86c4.2-.88 8.79.33 12 3.18-4.66-4.14-13.38-.07-18.63-2.36-5.32-2.31-9.2-8.1-14.45-10.95z" fill="#70c4a8"/><path d="m526.08 212.95c-2.04.72-3.92 2.63-5.23 4.32-1.38 1.79-2.5 3.9-2.56 6.1-.27 9.14 1.94 17.5 5.17 26 1.05 2.77 2.31 5.53 4.28 7.79 1.98 2.25 4.75 3.97 7.84 4.2 2.58.17 5.75.08 8.21-.76 2.93-1 3.5-.3 7.4-2.54a20.36 20.36 0 0 0 5.58-4.83c.96-1.36 1.72-2.64 1.8-4.27a45.93 45.93 0 0 0 -13.19-34.2c-5.87-5.93-11.81-4.46-19.3-1.8z" fill="#faee81"/><path d="m517.45 225.11 11.73 5.6c9.54 4.56 18.7 9.2 29.04 11.38m-38.71-3.55a100.64 100.64 0 0 0 26.46 10.89c3.86.97 7.88 1.72 11.8 1m-34.66-1.68c.8.82 1.82 1.38 2.84 1.9a77.96 77.96 0 0 0 25.02 8l-.86-.25m-27.83-42.64c5.54 2.07 11.01 4.3 16.42 6.7 5.04 2.22 10.12 4.61 15.58 5.29m-19.3-17.25c-.07.24.22.4.45.46l8.17 2.2m-24.9 19.64a77.8 77.8 0 0 0 11.18-20.93m-7.5 33.82a184.86 184.86 0 0 0 20.67-32.83" fill="none" stroke="#ffdc10" stroke-miterlimit="10" stroke-width=".79"/><path d="m527.65 257.37a164.79 164.79 0 0 0 19.47-28c1.32-2.4 2.59-4.84 3.5-7.42.04-.11.11-.24.23-.24.12.01.05.26-.02.17m-12.53 39.48a74.19 74.19 0 0 0 4.12-5.15c1.27-1.75 2.47-3.55 3.66-5.36 3.78-5.7 7.57-11.4 10.71-17.48" fill="none" stroke="#ffdc10" stroke-miterlimit="10" stroke-width=".79"/><path d="m539.23 232.4c.07-1.95-.08-3.81-.56-5.6a.4.4 0 0 1 .73-.28 31.78 31.78 0 0 0 2.69 4.64 11.45 11.45 0 0 1 -3.4-4.3l.73-.28a9.4 9.4 0 0 1 -.2 5.81zm-6.13 9.44c.15-.47.26-.93.3-1.4.05-.48.06-.95.05-1.42-.04-.94-.17-1.89-.29-2.85a.4.4 0 0 1 .75-.22 47.68 47.68 0 0 0 2.55 4.54l-.1.04c0-.1-.04-.2-.13-.26.1.03.2.12.25.24a.05.05 0 0 1 -.09.06l-.01-.01a13.84 13.84 0 0 1 -3.18-4.26l.75-.22c.11.96.2 1.96.12 2.96s-.37 2.01-.97 2.8zm-4.39-14.42c.38-1.63.01-3.16-.25-4.78a.4.4 0 0 1 .74-.22c.56 1.35 1.3 2.61 2.13 3.9a8.47 8.47 0 0 1 -2.85-3.6l.75-.22c.14.81.26 1.65.22 2.5-.01.43-.07.86-.19 1.28-.13.4-.3.81-.55 1.14zm4.75-9.35c.38-1.58.51-3.12.28-4.63v-.01a.39.39 0 0 1 .71-.27c.8 1.2 1.48 2.4 2.54 3.41a5.04 5.04 0 0 1 -1.83-1.25c-.52-.53-.95-1.13-1.36-1.73l.71-.28a6.28 6.28 0 0 1 -1.05 4.76zm10.44 4.7c.48-1.69.59-3.36.23-4.97a.4.4 0 0 1 .3-.47.4.4 0 0 1 .44.2 12.45 12.45 0 0 0 2.9 3.8 6.97 6.97 0 0 1 -3.61-3.45l.74-.25c.2.89.22 1.81.05 2.7a5.8 5.8 0 0 1 -1.04 2.44zm-22.02 13.73c.22.06.37-.13.39-.3s-.03-.39-.05-.6l-.14-1.26c-.11-.84-.22-1.66-.36-2.49a.4.4 0 0 1 .71-.28 39 39 0 0 1 2.07 3.36c.1.2.18.4.3.53s.38.17.5-.04c-.01.26-.4.37-.61.21-.23-.13-.36-.33-.51-.48a38.62 38.62 0 0 1 -2.39-3.14l.71-.28a15.1 15.1 0 0 1 .1 3.87c-.03.2-.04.43-.13.66-.09.24-.4.4-.6.25zm27.08.09c.01.1.12.15.19.12l-.05.04c.21-1.95.3-3.86.17-5.76v-.01a.39.39 0 0 1 .76-.13c.4 1.58 1.23 3.03 2.39 4.31a6.77 6.77 0 0 1 -3.14-4.1l.76-.14c.18 1.99-.07 4.03-.84 5.85v.02l-.04.02c-.13 0-.22-.12-.2-.22zm-5.84 9.53c.37-.32.42-.78.4-1.22-.02-.43-.07-.91-.1-1.37-.04-.93-.05-1.85-.05-2.78a.4.4 0 0 1 .76-.15 46.18 46.18 0 0 0 2.44 4.84 12.65 12.65 0 0 1 -3.17-4.53l.76-.15a46 46 0 0 1 -.11 2.78c-.04.46-.07.91-.15 1.4a2.5 2.5 0 0 1 -.24.7.98.98 0 0 1 -.54.48zm10.3 2.46c.06-.87.19-1.72.23-2.55a6.02 6.02 0 0 0 -.27-2.36l-.01-.02a.38.38 0 0 1 .67-.35c.78 1.05 1.5 2.13 2.1 3.33a21.5 21.5 0 0 1 -2.7-2.86l.66-.37c.36.87.36 1.84.2 2.71-.15.88-.48 1.7-.88 2.47zm-4.58 7.69c.31-1.3.28-2.53-.15-3.65a.4.4 0 0 1 .23-.51.4.4 0 0 1 .5.19c.55 1.09 1.23 2.1 1.96 3.17a6.7 6.7 0 0 1 -2.67-2.8l.72-.33c.25.66.33 1.38.23 2.07-.09.7-.38 1.35-.82 1.86zm-11.26-2.34c.07-1.51-.07-2.93-.52-4.27a.4.4 0 0 1 .67-.4 20.9 20.9 0 0 1 2.58 3.37c-1.18-.82-2.2-1.8-3.16-2.83l.66-.39c.5 1.47.47 3.16-.23 4.52zm-10-4.47c.17-1.52-.11-2.9-.32-4.39a.4.4 0 0 1 .75-.21c.61 1.36 1.33 2.67 2.05 4.05-1.22-.99-2.12-2.3-2.77-3.73l.75-.22c.1.75.18 1.5.13 2.28a4.87 4.87 0 0 1 -.6 2.22zm5.32 9.42c.07.06.11-.02.13-.08a.27.27 0 0 0 0-.17l-.07-.43-.13-.85-.27-1.66a.4.4 0 0 1 .74-.23c.25.54.53 1.07.83 1.6l.46.79.24.4.12.19.05.04c.02.01 0-.08-.03-.04.01-.05.1 0 .08.07-.04.07-.12.05-.16.03-.1-.05-.14-.1-.22-.14l-.38-.3a6.8 6.8 0 0 1 -1.7-2.33l.74-.21a8.5 8.5 0 0 1 0 2.64l-.09.44a.41.41 0 0 1 -.12.23c-.04.06-.19.1-.22.01zm-12.36-35.76c.22-.22.2-.5.2-.79l.02-.86c0-.57 0-1.13-.02-1.69v-.01a.39.39 0 0 1 .76-.12c.26.95.59 1.86.9 2.87a5.7 5.7 0 0 1 -1.64-2.65l.76-.13a6.6 6.6 0 0 1 -.38 2.67 2.4 2.4 0 0 1 -.21.43c-.09.14-.23.26-.39.28z" fill="#fdfae9"/><path d="m513.02 213.15a25.04 25.04 0 0 1 10.63-2.97 24.5 24.5 0 0 0 -16.85-4.98c2.47-1.4 4.99-2.82 7.76-3.4 2.78-.59 5.9-.22 8.04 1.64a23.42 23.42 0 0 0 -16.75-7.58c3.95-3.24 9.82-1.56 14.59.28a55.8 55.8 0 0 0 -17.23-8.7 27.4 27.4 0 0 1 17 2.76 106.22 106.22 0 0 1 -7.05-19.2 39.75 39.75 0 0 1 13.14 18.52 27.6 27.6 0 0 1 8.37-13.6 155.19 155.19 0 0 1 -3.65 18.9c1.11-1.56 2.26-3.14 3.84-4.23s3.7-1.6 5.43-.8a32.74 32.74 0 0 0 -5.2 14c3.04-2.9 7.5-4.22 11.61-3.45a17.11 17.11 0 0 0 -10.53 9.37 14.02 14.02 0 0 1 11.71-4.09c-6.18-.81-11.12 7.44-16.75 8.5-5.7 1.06-12.15-1.56-18.1-.97z" fill="#70c4a8"/><path d="m326.61 66.86c-2.04.71-3.93 2.61-5.25 4.3-1.39 1.77-2.52 3.88-2.6 6.09-.3 9.13 1.87 17.5 5.05 26 1.05 2.8 2.3 5.56 4.25 7.82 1.97 2.27 4.73 4 7.82 4.24 2.58.2 5.75.11 8.22-.72 2.93-.99 3.5-.28 7.41-2.5a20.36 20.36 0 0 0 5.6-4.8c.97-1.36 1.73-2.64 1.81-4.26a45.93 45.93 0 0 0 -13.01-34.28c-5.85-5.94-11.8-4.5-19.3-1.89z" fill="#faee81"/><path d="m317.92 78.98 11.71 5.66c9.51 4.6 18.65 9.28 28.98 11.51m-38.69-3.73c8.22 4.9 17.14 8.62 26.41 11.01 3.85 1 7.87 1.76 11.79 1.07m-34.65-1.86c.8.83 1.81 1.4 2.83 1.93a77.96 77.96 0 0 0 24.99 8.1l-.87-.25m-27.62-42.77c5.53 2.1 11 4.36 16.39 6.77 5.02 2.25 10.1 4.67 15.56 5.37m-19.23-17.33c-.07.23.22.39.45.45l8.16 2.24m-25 19.53a77.83 77.83 0 0 0 11.29-20.88m-7.66 33.78a184.87 184.87 0 0 0 20.82-32.73" fill="none" stroke="#ffdc10" stroke-miterlimit="10" stroke-width=".79"/><path d="m327.97 111.28a164.8 164.8 0 0 0 19.6-27.9 50.65 50.65 0 0 0 3.54-7.4c.04-.12.11-.25.23-.24s.05.26-.02.17m-12.72 39.42a73.72 73.72 0 0 0 4.14-5.13 147.2 147.2 0 0 0 3.7-5.34c3.8-5.68 7.61-11.38 10.79-17.43" fill="none" stroke="#ffdc10" stroke-miterlimit="10" stroke-width=".79"/><path d="m339.67 86.36c.08-1.94-.06-3.8-.54-5.6a.4.4 0 0 1 .74-.27 31.76 31.76 0 0 0 2.67 4.65 11.45 11.45 0 0 1 -3.39-4.32l.74-.26a9.4 9.4 0 0 1 -.22 5.8zm-6.17 9.42c.15-.47.26-.93.3-1.4.06-.48.07-.95.05-1.42-.03-.94-.15-1.88-.26-2.84a.4.4 0 0 1 .74-.22c.74 1.55 1.6 3.04 2.54 4.54l-.1.05c0-.1-.05-.2-.14-.27.1.03.2.13.25.25a.05.05 0 0 1 -.09.06l-.01-.02a13.86 13.86 0 0 1 -3.16-4.27l.75-.22c.1.97.2 1.96.1 2.96-.07 1-.37 2.02-.97 2.8zm-4.33-14.44c.39-1.63.03-3.16-.23-4.78a.4.4 0 0 1 .75-.22 24.8 24.8 0 0 0 2.11 3.91 8.46 8.46 0 0 1 -2.83-3.6l.74-.22c.15.8.26 1.65.22 2.5a5.5 5.5 0 0 1 -.2 1.27c-.14.4-.3.81-.56 1.14zm4.79-9.32c.4-1.59.54-3.12.31-4.64a.4.4 0 0 1 .72-.28c.78 1.22 1.46 2.4 2.52 3.43-.7-.26-1.31-.72-1.82-1.26-.52-.53-.95-1.14-1.36-1.73l.72-.28a6.29 6.29 0 0 1 -1.09 4.76zm10.44 4.75c.48-1.69.59-3.37.24-4.98a.4.4 0 0 1 .74-.25 12.43 12.43 0 0 0 2.88 3.8 6.98 6.98 0 0 1 -3.6-3.46l.75-.26c.2.9.21 1.82.04 2.71a5.78 5.78 0 0 1 -1.06 2.44zm-22.1 13.63c.22.05.37-.14.39-.3.02-.18-.02-.4-.04-.61l-.14-1.26c-.1-.83-.21-1.67-.35-2.49a.4.4 0 0 1 .72-.28 38.12 38.12 0 0 1 2.05 3.37c.1.2.18.4.3.54.11.12.37.17.48-.04 0 .26-.39.36-.6.2-.23-.13-.36-.32-.5-.48a38.12 38.12 0 0 1 -2.38-3.15l.71-.28a15 15 0 0 1 .09 3.87c-.04.21-.05.43-.15.67-.08.23-.4.39-.58.23zm27.08.2c.01.1.12.16.19.13l-.05.04c.22-1.95.32-3.86.2-5.76v-.01a.39.39 0 0 1 .76-.12c.4 1.58 1.22 3.03 2.36 4.32a6.77 6.77 0 0 1 -3.12-4.12l.77-.13a12.3 12.3 0 0 1 -.87 5.85l-.04.03c-.14 0-.22-.13-.2-.22zm-5.88 9.5c.36-.3.41-.77.4-1.2-.02-.44-.07-.92-.08-1.38a46.8 46.8 0 0 1 -.05-2.78.4.4 0 0 1 .76-.14 46.52 46.52 0 0 0 2.42 4.85 12.68 12.68 0 0 1 -3.15-4.55l.76-.15c-.02.93-.05 1.86-.13 2.78-.04.47-.07.92-.15 1.4a2.5 2.5 0 0 1 -.25.7.98.98 0 0 1 -.53.48zm10.28 2.52c.07-.87.2-1.72.24-2.55a6 6 0 0 0 -.26-2.36v-.02a.38.38 0 0 1 .67-.35c.77 1.05 1.5 2.14 2.07 3.34-1-.87-1.87-1.85-2.68-2.87l.66-.37c.36.88.36 1.84.2 2.71-.17.88-.5 1.7-.9 2.47zm-4.61 7.67c.31-1.3.28-2.53-.13-3.65a.4.4 0 0 1 .22-.51.4.4 0 0 1 .5.19c.55 1.1 1.22 2.1 1.95 3.18a6.7 6.7 0 0 1 -2.65-2.82l.72-.32c.24.67.32 1.39.22 2.08s-.4 1.34-.83 1.85zm-11.26-2.39c.08-1.52-.05-2.94-.49-4.28a.4.4 0 0 1 .66-.39 20.9 20.9 0 0 1 2.57 3.38 20.85 20.85 0 0 1 -3.15-2.85l.67-.39c.5 1.48.45 3.16-.26 4.52zm-9.97-4.53c.17-1.5-.1-2.9-.3-4.38a.4.4 0 0 1 .75-.22c.6 1.37 1.32 2.68 2.03 4.07-1.21-1-2.11-2.32-2.75-3.75l.75-.2c.09.73.17 1.5.12 2.27a4.86 4.86 0 0 1 -.6 2.21zm5.28 9.45c.06.06.1-.02.12-.07.03-.07.03-.11.01-.18l-.07-.43-.13-.84-.26-1.67a.4.4 0 0 1 .74-.22c.25.54.52 1.07.82 1.6l.46.8.24.4.12.18c.01.03.03.04.04.04.02.02 0-.08-.03-.04.01-.05.1 0 .09.07-.05.07-.13.05-.17.03-.1-.05-.14-.1-.21-.14l-.38-.3a6.78 6.78 0 0 1 -1.7-2.33l.75-.22a8.43 8.43 0 0 1 0 2.65l-.1.43a.4.4 0 0 1 -.12.23c-.05.06-.2.11-.22.01zm-12.19-35.82c.22-.22.2-.49.2-.78l.02-.86c.01-.57 0-1.13-.01-1.7v-.01c0-.21.16-.4.38-.4.18 0 .34.12.39.29.25.95.57 1.86.87 2.87a5.7 5.7 0 0 1 -1.62-2.66l.76-.12a6.6 6.6 0 0 1 -.4 2.67c-.05.13-.12.3-.2.43-.1.13-.24.26-.4.27z" fill="#fdfae9"/><path d="m313.56 67a25.05 25.05 0 0 1 10.63-2.93 24.49 24.49 0 0 0 -16.82-5.05c2.48-1.4 5-2.8 7.78-3.37s5.9-.19 8.03 1.68a23.42 23.42 0 0 0 -16.71-7.65c3.96-3.23 9.82-1.51 14.58.34a55.8 55.8 0 0 0 -17.18-8.78c5.77-.9 11.82.1 16.98 2.84a106.21 106.21 0 0 1 -6.95-19.23 39.75 39.75 0 0 1 13.04 18.58 27.6 27.6 0 0 1 8.44-13.56c-.86 6.36-2.1 12.67-3.74 18.88 1.12-1.55 2.28-3.13 3.86-4.2 1.58-1.09 3.7-1.59 5.44-.8-2.8 4.18-4.63 9-5.27 14a13.55 13.55 0 0 1 11.63-3.4 17.11 17.11 0 0 0 -10.58 9.32c2.99-3.07 7.48-4.62 11.73-4.04-6.18-.84-11.15 7.4-16.79 8.42-5.7 1.03-12.15-1.62-18.1-1.06z" fill="#70c4a8"/><path d="m50.91 213.56c-2.03-.74-4.7-.47-6.77 0-2.22.5-4.42 1.4-5.88 3.07-6.02 6.87-9.64 14.72-12.57 23.32-.96 2.82-1.75 5.75-1.66 8.74.08 3 1.12 6.09 3.36 8.23 1.88 1.78 4.38 3.73 6.82 4.65 2.9 1.09 2.89 2 7.31 2.76 2.1.36 5.37.36 7.38-.18 1.61-.43 3.01-.94 4.1-2.14a45.93 45.93 0 0 0 11.64-34.76c-.75-8.3-6.26-10.96-13.73-13.69z" fill="#faee81"/><path d="m36.51 217.43 5.48 11.8c4.44 9.59 8.55 19 15.13 27.27m-27.57-27.4c3.25 9 7.8 17.53 13.45 25.25 2.35 3.2 4.98 6.35 8.45 8.3m-25.63-23.39c.09 1.14.52 2.22.96 3.28a77.96 77.96 0 0 0 14.2 22.1l-.5-.75m5.72-50.59a305.69 305.69 0 0 1 8.38 15.62c2.47 4.93 4.86 10 8.64 14.01m-3.89-25.59c-.2.14-.08.45.06.64l4.9 6.9m-31.72-.72a77.81 77.81 0 0 0 21.96-9m-27.33 21.28a184.93 184.93 0 0 0 36.85-12.14" fill="none" stroke="#ffdc10" stroke-miterlimit="10" stroke-width=".79"/><path d="m23.82 248.8c11.23-1.92 22.25-5 32.84-9.18 2.55-1 5.09-2.08 7.44-3.49.1-.06.24-.12.32-.03.09.08-.12.23-.12.1m-34.8 22.46c2.16-.35 4.31-.8 6.44-1.35 2.1-.54 4.17-1.16 6.24-1.8 6.54-1.98 13.1-3.97 19.4-6.64" fill="none" stroke="#ffdc10" stroke-miterlimit="10" stroke-width=".79"/><path d="m48.66 236.92a18.58 18.58 0 0 0 3.13-4.67.4.4 0 0 1 .52-.2.4.4 0 0 1 .22.46c-.46 1.7-.7 3.46-.88 5.28-.43-1.79-.33-3.7.12-5.48l.74.26a9.39 9.39 0 0 1 -3.85 4.35zm-10.74 3.38c.41-.27.8-.55 1.13-.9.34-.32.64-.68.93-1.05.57-.75 1.08-1.56 1.6-2.38a.4.4 0 0 1 .71.3 47.55 47.55 0 0 0 -.92 5.13l-.1-.03c.06-.07.09-.18.06-.3.06.1.08.23.04.36a.05.05 0 0 1 -.1-.01v-.02c-.28-1.76-.16-3.57.26-5.3l.71.3a14.2 14.2 0 0 1 -1.79 2.35 5.34 5.34 0 0 1 -2.53 1.55zm5.8-13.91c1.33-1.02 2.03-2.43 2.85-3.85a.4.4 0 0 1 .72.3c-.43 1.4-.67 2.85-.85 4.37a8.47 8.47 0 0 1 .1-4.59l.71.3c-.4.73-.84 1.45-1.42 2.08-.28.32-.6.61-.96.86-.36.22-.74.44-1.15.53zm9.61-4.19c1.31-.97 2.4-2.07 3.18-3.38v-.01a.4.4 0 0 1 .73.24c-.16 1.44-.39 2.8-.22 4.25a5.05 5.05 0 0 1 -.61-2.13c-.07-.74-.02-1.48.05-2.2l.73.24a6.3 6.3 0 0 1 -3.86 3zm5.07 10.29c1.44-1 2.59-2.23 3.34-3.7a.4.4 0 0 1 .73.28c-.38 1.52-.4 3.11-.17 4.76a6.98 6.98 0 0 1 -.6-4.95l.74.27a6.7 6.7 0 0 1 -1.68 2.12c-.7.59-1.51 1-2.36 1.22zm-25.73-3.46c.13.19.37.14.5.02.12-.12.22-.32.34-.5l.69-1.06c.45-.7.9-1.42 1.31-2.14a.4.4 0 0 1 .73.23 38.21 38.21 0 0 1 -.55 3.91c-.04.22-.11.43-.1.6 0 .18.18.37.4.28-.17.2-.54.04-.6-.22-.1-.25-.07-.48-.09-.7v-1.31c.02-.88.08-1.76.16-2.63l.73.24a15.19 15.19 0 0 1 -2.39 3.05c-.16.13-.3.3-.53.42-.21.13-.56.05-.6-.19zm20.82 17.33c-.06.08 0 .2.06.21h-.05a32.76 32.76 0 0 0 3.8-4.34.39.39 0 0 1 .66.39c-.69 1.47-.97 3.12-.9 4.84a6.77 6.77 0 0 1 .2-5.17l.67.39a12.3 12.3 0 0 1 -4.38 3.97v.01h-.05c-.1-.1-.09-.24-.01-.3zm-10.57 3.62c.48-.01.8-.33 1.07-.68s.53-.75.81-1.12c.55-.75 1.13-1.46 1.72-2.18a.4.4 0 0 1 .68.37 46.34 46.34 0 0 0 -1.2 5.29c-.29-1.84-.08-3.73.45-5.51l.68.36c-.6.7-1.21 1.4-1.86 2.07-.32.34-.63.67-1 .99-.2.15-.4.3-.63.38a1 1 0 0 1 -.72.03zm6.36 8.46c.6-.63 1.24-1.2 1.8-1.82a6.02 6.02 0 0 0 1.3-2v-.01a.38.38 0 0 1 .75.15c-.07 1.3-.2 2.6-.51 3.9a21.63 21.63 0 0 1 -.26-3.92l.75.14c-.28.9-.9 1.65-1.57 2.22-.69.58-1.46 1-2.26 1.34zm-8.42 3.01a6.15 6.15 0 0 0 2.2-2.9.4.4 0 0 1 .5-.26c.2.06.3.27.27.46a29 29 0 0 0 -.51 3.7 6.7 6.7 0 0 1 -.27-3.86l.76.2a4.2 4.2 0 0 1 -1.14 1.75c-.51.48-1.15.8-1.81.9zm-7.2-8.98a11.56 11.56 0 0 0 2.33-3.62.4.4 0 0 1 .76.12c.07 1.4.07 2.82-.15 4.24a20.9 20.9 0 0 1 -.64-4.2l.76.12a5.88 5.88 0 0 1 -3.05 3.34zm-4.86-9.82c1.1-1.06 1.77-2.3 2.55-3.58a.4.4 0 0 1 .72.3c-.4 1.45-.67 2.92-1 4.44-.3-1.54-.16-3.13.24-4.64l.71.31c-.4.63-.82 1.27-1.34 1.84a4.87 4.87 0 0 1 -1.87 1.33zm-1.9 10.65c.03.1.1.06.15.03a.27.27 0 0 0 .12-.13l.22-.38.43-.74.85-1.46a.4.4 0 0 1 .72.3 21.3 21.3 0 0 0 -.38 1.76l-.15.9-.07.47-.02.22v.06c.01.02.05-.06 0-.05.05-.03.1.06.03.1-.08.03-.13-.03-.15-.07-.04-.1-.05-.16-.07-.25l-.11-.47a6.19 6.19 0 0 1 .17-2.87l.71.3a8.46 8.46 0 0 1 -1.68 2.04l-.35.27a.4.4 0 0 1 -.23.1c-.08.02-.22-.03-.18-.12zm13.27-35.43c.3-.03.46-.26.65-.48l.56-.65c.37-.44.72-.87 1.07-1.32v-.01a.39.39 0 0 1 .67.4c-.4.89-.74 1.8-1.14 2.77a5.7 5.7 0 0 1 .42-3.08l.67.39a6.59 6.59 0 0 1 -2 1.81c-.12.07-.27.15-.43.2-.15.05-.34.05-.47-.03z" fill="#fdfae9"/><path d="m40.73 205.4c3.64.71 7.1 2.25 10.08 4.47a24.49 24.49 0 0 0 -9.81-14.57c2.79.5 5.63 1 8.14 2.32s4.69 3.6 5.16 6.39a23.42 23.42 0 0 0 -8.09-16.5c5.11 0 8.56 5.04 11.07 9.5a55.81 55.81 0 0 0 -7.74-17.68 27.4 27.4 0 0 1 11.35 12.96c1.64-6.63 3.92-13.1 6.8-19.29a39.75 39.75 0 0 1 -1.69 22.64 27.6 27.6 0 0 1 15.12-5.15c-4.7 4.38-9.66 8.47-14.85 12.24 1.85-.49 3.75-.98 5.65-.81 1.91.17 3.86 1.12 4.7 2.84a32.74 32.74 0 0 0 -12.93 7.48c4.18-.3 8.46 1.52 11.15 4.74a17.11 17.11 0 0 0 -14.1.51 14.02 14.02 0 0 1 11.64 4.31c-4.25-4.56-13.31-1.35-18.32-4.13-5.08-2.81-8.38-8.94-13.34-12.28z" fill="#70c4a8"/><path d="m93.89 120.96 45.56 33.51-1.15 3.06s-7.7 4.64-7.73 5.3c-.02.67-18.6 3.68-18.6 3.68s-18.05-9.9-17.6-10.36c.47-.45-5.74-18.27-5.74-18.27l1.6-14.4z" fill="#ea7894"/><path d="m91.43 118.92 2.46 2.04s-5.79 7.54-3.63 18.08c2.15 10.53 6.73 17.13 13.37 20.7 6.64 3.55 9.78 4.64 17.36 3.83s11.5-2.21 18.46-9.1l3.87 2.75-4 4.16-7.18 4.92-14.91 2.77-13.96-3.57-10.07-7.54-6.22-12.13-1.62-11.39 3.43-13.06z" fill="#dcfcb4"/><path d="m89.95 117.7s-8.83 10.73-4.64 26.52c4.2 15.79 17.26 24.36 28.14 25.82 10.89 1.45 17.76-1.31 24.9-6.05 0 0 3.23-2.38 5.93-6.02l-1.76-1.39s-1.3.73-1.54 1.55-1.4 1.28-1.95 1.66-1.68 1.5-2.33 1.92c-1 .68-2.6 1.5-3.2 1.77-.49.22-2.09 1.05-2.9 1.28s-2.52.78-3.35 1.27c-.81.49-2.65 1.23-4.54 1.28-1.14.03-2.38-.37-3.8-.37s-4.74.55-6.75-.02c-2.28-.65-3.79-1.19-5.52-1.46-1.73-.28-4.53-2.25-5.34-2.83s-1.66-.81-2.34-1.48-1.97-2.55-3.12-3.6c-.9-.81-2.3-1.72-2.66-2.31s-.82-1.41-1.43-2.45c-.6-1.05-.96-2.15-1.4-3.22-.35-.87-.78-1.78-1.2-3.07-.33-.96-.76-1.64-1.4-3.63-.65-1.99-.25-3.69-.46-4.56-.22-.9-.88-3.29-.51-4.35.36-1.06.65-4.02.78-5.57s1.47-4.58 1.68-5.21c.21-.64 2.19-4.26 2.19-4.26z" fill="#70c4a8"/><path d="m98.05 130.52s.45-.13.3.42-.23 1.1-1.02 1.84-1.65.2-1.7-.6c-.06-.8 1.27-1.45 2.42-1.66zm.75 9.14s.45-.12.3.43-.23 1.09-1.02 1.83-1.64.2-1.7-.6c-.06-.79 1.27-1.45 2.43-1.66zm7.28-2.66s.44-.13.3.42c-.16.55-.23 1.09-1.02 1.83-.8.74-1.65.2-1.7-.6-.07-.79 1.26-1.45 2.42-1.66zm-2.96 10.93s.44-.12.29.43-.23 1.09-1.02 1.83-1.64.2-1.7-.59c-.06-.8 1.27-1.46 2.43-1.67zm8.16 6.56s.41-.21.38.35c-.04.57 0 1.12-.63 2s-1.57.53-1.79-.23c-.22-.77.95-1.69 2.04-2.12zm.61-8.15s.4-.22.37.35 0 1.12-.63 2-1.57.53-1.79-.23c-.22-.77.95-1.69 2.05-2.13zm8.92 9.22s.45-.13.3.42-.23 1.09-1.02 1.83-1.65.2-1.7-.59c-.06-.8 1.27-1.46 2.42-1.66zm.6-7.58s.44-.12.3.43c-.16.55-.23 1.09-1.02 1.83-.79.75-1.65.2-1.7-.59-.07-.8 1.27-1.46 2.42-1.67zm9.51 4.34s.41-.2.38.36 0 1.11-.63 2c-.62.89-1.57.53-1.79-.24-.22-.76.95-1.68 2.04-2.12z" fill="#3e3e3d"/><path d="m235.54 186.57 53.45-18.5 1.87 2.69s-.56 8.96-.02 9.37c.53.4-7.53 17.4-7.53 17.4s-18.4 9.25-18.52 8.61c-.1-.64-18.3-5.64-18.3-5.64l-10.96-9.5z" fill="#ea7894"/><path d="m232.46 187.43 3.08-.86s2.93 9.04 12.83 13.24 17.92 4.19 24.62.74 9.38-5.41 13.01-12.12 4.71-10.71 3-20.35l4.45-1.64 1.15 5.66-.01 8.7-6.2 13.85-10.85 9.47-11.93 4.01-13.51-1.76-10.3-5.13-8.8-10.24-.53-3.57z" fill="#dcfcb4"/><path d="m230.63 187.96s3.81 13.36 19.2 18.86 29.84-.37 37.22-8.51 9-15.36 9.15-23.93c0 0-.12-4.01-1.58-8.3l-2.15.67s-.13 1.47.4 2.14.26 1.87.26 2.54.27 2.24.26 3.02c-.01 1.2-.25 2.99-.36 3.63-.1.53-.32 2.32-.59 3.12s-.79 2.52-.85 3.48c-.07.94-.5 2.88-1.53 4.46-.62.96-1.66 1.75-2.46 2.92-.8 1.18-2.24 4.21-3.85 5.54-1.83 1.52-3.13 2.45-4.34 3.72-1.2 1.27-4.42 2.45-5.36 2.8-.93.33-1.6.9-2.54 1.08s-3.22.17-4.73.53c-1.2.28-2.73.91-3.42.88-.69-.04-1.63-.13-2.83-.22-1.2-.1-2.31-.43-3.44-.68-.92-.2-1.92-.36-3.21-.74-.98-.28-1.78-.31-3.79-.91-2-.6-3.18-1.9-4-2.21-.88-.34-3.22-1.15-3.88-2.05-.67-.9-2.94-2.82-4.15-3.81-1.2-.99-2.93-3.8-3.33-4.34-.4-.53-2.27-4.22-2.27-4.22z" fill="#70c4a8"/><path d="m245.78 188.56s.14-.44.51 0 .77.8.93 1.88c.17 1.07-.76 1.47-1.45 1.06-.69-.4-.48-1.87 0-2.94zm7.95 4.57s.15-.43.52 0 .76.8.93 1.88c.16 1.07-.77 1.47-1.46 1.07s-.48-1.88 0-2.95zm1.93-7.5s.15-.44.52 0c.36.43.76.8.93 1.87s-.77 1.47-1.46 1.07c-.68-.4-.47-1.88.01-2.94zm7.33 8.65s.15-.44.51 0c.37.43.77.8.94 1.87s-.77 1.47-1.46 1.07-.48-1.88 0-2.94zm10.03-3.01s.06-.46.5-.1.92.63 1.3 1.65c.37 1.01-.46 1.6-1.22 1.34-.75-.26-.84-1.74-.58-2.89zm-6.37-5.12s.06-.46.5-.1.92.63 1.3 1.64c.37 1.02-.46 1.6-1.22 1.34-.75-.25-.84-1.74-.58-2.88zm12.65-2.12s.15-.43.52 0c.37.44.77.8.94 1.88s-.77 1.47-1.46 1.07-.48-1.88 0-2.95zm-5.89-4.79s.15-.43.52 0c.36.44.77.8.93 1.88s-.77 1.47-1.46 1.07c-.68-.4-.47-1.88.01-2.95zm8.97-5.37s.06-.45.5-.1c.45.35.92.63 1.3 1.65s-.46 1.6-1.21 1.34c-.76-.26-.85-1.74-.59-2.89z" fill="#3e3e3d"/><path d="m407.38 55.24-50.32-25.8.64-3.2s6.86-5.81 6.78-6.48 17.77-6.6 17.77-6.6 19.41 6.9 19.03 7.41c-.38.52 8.59 17.13 8.59 17.13l.73 14.47z" fill="#ea7894"/><path d="m410.14 56.86-2.75-1.62s4.5-8.37.69-18.43c-3.81-10.05-9.38-15.84-16.5-18.29-7.13-2.45-10.4-3.03-17.75-1.01-7.36 2.02-11 4.01-16.77 11.93l-4.27-2.1 3.3-4.74 6.29-6 14.28-5.13 14.35 1.3 11.15 5.83 8.07 10.98 3.42 10.99-1.3 13.44z" fill="#dcfcb4"/><path d="m411.79 57.83s7.01-12 .34-26.92c-6.66-14.91-20.92-21.29-31.9-20.99s-17.32 4.13-23.61 9.94c0 0-2.81 2.87-4.9 6.9l1.97 1.08s1.16-.92 1.27-1.77c.11-.84 1.17-1.48 1.65-1.94.49-.47 1.43-1.75 2-2.28.89-.82 2.33-1.89 2.88-2.25.44-.3 1.89-1.38 2.66-1.74.76-.36 2.36-1.17 3.1-1.78.73-.61 2.42-1.63 4.28-2 1.12-.2 2.4 0 3.8-.23 1.41-.23 4.6-1.3 6.67-1.06 2.36.28 3.93.57 5.68.56s4.83 1.5 5.73 1.94 1.76.54 2.54 1.09c.79.55 2.36 2.2 3.66 3.04 1.03.67 2.55 1.35 3 1.87s1.03 1.26 1.8 2.2 1.29 1.96 1.89 2.95c.49.8 1.06 1.63 1.69 2.82.47.9 1 1.5 1.96 3.37.95 1.86.83 3.6 1.17 4.42.37.87 1.4 3.11 1.2 4.22-.18 1.1 0 4.08.12 5.63s-.71 4.75-.82 5.4a75.8 75.8 0 0 1 -1.48 4.56z" fill="#70c4a8"/><path d="m401.75 46.47s-.42.2-.36-.37.05-1.11.7-1.97c.67-.86 1.6-.47 1.79.3.18.78-1.03 1.65-2.13 2.04zm-2.21-8.91s-.41.2-.35-.37.05-1.11.7-1.97c.67-.86 1.6-.46 1.78.31.19.78-1.02 1.64-2.13 2.03zm-6.75 3.8s-.42.2-.36-.37.05-1.11.71-1.97 1.6-.47 1.78.3c.18.78-1.02 1.65-2.13 2.04zm1.17-11.27s-.41.19-.35-.38c.06-.56.05-1.1.7-1.97.67-.86 1.6-.46 1.79.32.18.77-1.03 1.64-2.14 2.03zm-9.1-5.17s-.37.27-.43-.3c-.05-.56-.17-1.1.3-2.07s1.47-.77 1.8-.05c.34.73-.67 1.82-1.67 2.42zm.7 8.15s-.37.27-.42-.3c-.05-.56-.17-1.1.3-2.07.47-.98 1.47-.78 1.8-.05s-.67 1.81-1.68 2.42zm-10.28-7.67s-.42.18-.36-.38c.06-.57.05-1.11.71-1.97s1.6-.47 1.78.3-1.02 1.65-2.13 2.04zm.62 7.56s-.42.2-.36-.37.05-1.11.71-1.97 1.6-.47 1.78.3c.18.78-1.02 1.65-2.13 2.04zm-10.09-2.76s-.37.27-.42-.3c-.05-.56-.17-1.1.3-2.07s1.47-.77 1.8-.05c.34.72-.67 1.81-1.68 2.42z" fill="#3e3e3d"/><path d="m504.96 42.14 55-13.18 1.6 2.85s-1.43 8.87-.94 9.32c.5.46-9.2 16.58-9.2 16.58s-19.21 7.41-19.26 6.77-17.67-7.4-17.67-7.4l-9.98-10.52z" fill="#ea7894"/><path d="m501.8 42.7 3.16-.56s2.03 9.29 11.46 14.44 17.44 5.91 24.44 3.14c7-2.78 9.87-4.47 14.13-10.8s5.74-10.2 4.97-19.96l4.6-1.2.59 5.75-.87 8.66-7.5 13.18-11.74 8.36-12.26 2.83-13.28-3.07-9.74-6.12-7.78-11.05-.17-3.6z" fill="#dcfcb4"/><path d="m499.93 43.05s2.5 13.67 17.26 20.65c14.77 6.98 29.75 2.54 37.88-4.84 8.14-7.38 10.46-14.4 11.45-22.92 0 0 .27-4-.77-8.42l-2.2.46s-.28 1.45.19 2.17c.46.72.08 1.89.01 2.55-.07.67.05 2.25-.03 3.03-.14 1.2-.54 2.95-.72 3.58-.15.51-.54 2.28-.89 3.05s-1.03 2.43-1.2 3.38c-.15.93-.77 2.81-1.95 4.29-.7.89-1.81 1.58-2.73 2.67-.92 1.08-2.64 3.97-4.37 5.13-1.97 1.33-3.35 2.13-4.68 3.28-1.32 1.14-4.64 2-5.6 2.25-.97.25-1.7.75-2.65.84s-3.21-.14-4.76.07c-1.2.16-2.8.63-3.48.53s-1.6-.28-2.8-.49-2.25-.65-3.36-1.01c-.89-.3-1.87-.55-3.12-1.05-.94-.38-1.74-.48-3.68-1.28-1.93-.79-2.98-2.2-3.77-2.6-.84-.41-3.09-1.44-3.66-2.4-.58-.97-2.65-3.1-3.75-4.2s-2.55-4.08-2.9-4.65a75.92 75.92 0 0 1 -1.84-4.42l-1.88.34z" fill="#70c4a8"/><path d="m514.95 45.13s.19-.42.51.05.69.87.74 1.95-.9 1.4-1.55.92c-.64-.46-.3-1.9.3-2.92zm7.47 5.32s.19-.42.51.05.69.88.75 1.96-.91 1.39-1.56.92c-.64-.47-.3-1.91.3-2.93zm2.65-7.28s.2-.42.51.05c.33.47.7.88.75 1.96.06 1.08-.9 1.39-1.55.92s-.3-1.91.3-2.93zm6.45 9.33s.19-.42.51.05c.33.47.69.87.75 1.95s-.91 1.4-1.56.92c-.64-.46-.29-1.9.3-2.93zm10.28-2.02s.1-.44.5-.05c.42.4.86.72 1.13 1.77.28 1.05-.6 1.54-1.33 1.21-.73-.32-.68-1.81-.3-2.92zm-5.84-5.72s.1-.44.5-.05c.42.4.86.72 1.13 1.77.28 1.05-.6 1.54-1.33 1.21-.73-.32-.68-1.81-.3-2.93zm12.8-.86s.19-.42.51.05c.33.46.69.87.75 1.95.06 1.09-.91 1.4-1.55.92-.65-.47-.3-1.91.29-2.93zm-5.4-5.35s.2-.42.51.05c.33.47.69.88.75 1.96s-.9 1.39-1.55.92-.3-1.91.29-2.93zm9.45-4.47s.1-.44.52-.05c.4.4.84.72 1.12 1.77s-.61 1.54-1.34 1.21-.67-1.81-.3-2.93z" fill="#3e3e3d"/><path d="m117.25 85.38c-1.18.31-1.58 1.4-.9 2.4l14.38 21.28c.69 1.01 1.34.85 1.46-.37l2.6-25.85c.11-1.21-.75-1.95-1.93-1.63z" fill="#ecd271"/><g style="fill:none;stroke:#fbf39e;stroke-width:.38;stroke-linecap:round;stroke-linejoin:round;stroke-miterlimit:10"><path d="m118.3 90.82a213.9 213.9 0 0 1 3.47-6.76m-1.61 9.4 5.53-9.15m-3.47 12.29 8.78-13.72m-6.78 16.72a314.6 314.6 0 0 0 10.34-15.05m-8.21 17.88a607 607 0 0 0 7.67-10.52m-5.64 13.75 4.54-6.15c.03-.03.06-.08.04-.12s-.1 0-.07.03m-2.74 8.99a35.8 35.8 0 0 0 2.47-3.01m-16.14-16.88a616.2 616.2 0 0 0 17.15 5.5m-13.64-.39c4.53 1.37 9.08 2.68 13.65 3.93m-9.58 1.68 8.8 1.78m-5.78 2.88c1.94.24 3.88.58 5.79 1.02"/><path d="m122.7 87.15c3.91.69 7.8 1.57 11.64 2.65l-.45-.13m-6.63-5.84c2.44.63 4.88 1.28 7.31 1.94"/></g><path d="m112.46 83a9.98 9.98 0 0 1 -1.62-2.77c-2.51-6.35.9-13.59 7.6-16.16 6.7-2.58 14.18.49 16.69 6.84.7 1.8.87 3.49.58 5.04 1 .35 1.84 1.08 2.24 2.1a3.77 3.77 0 0 1 -2.28 4.85c-1.31.5-2.72.29-3.75-.45a3.86 3.86 0 0 1 -2.52 3.49c-1.4.54-2.92.25-3.96-.62a3.93 3.93 0 0 1 -2.34 2.4c-1.5.58-3.11.22-4.16-.78a3.98 3.98 0 0 1 -1.88 1.5 3.85 3.85 0 0 1 -5-2.06 3.6 3.6 0 0 1 .4-3.38z" fill="#dcfcb4"/><g fill="none" stroke-linecap="round" stroke-linejoin="round" stroke-miterlimit="10" stroke-width=".76"><path d="m128.19 67.94-2.28.33" stroke="#e08295"/><path d="m122.57 66.89-2.1.92" stroke="#8bbdae"/><path d="m118.45 72.84 1.3-1.89m-6.77 7.03.32-2.27" stroke="#e08295"/><path d="m121.43 76.85-.1-2.3m9.52.99-1.67-1.57" stroke="#8bbdae"/></g><path d="m125.64 76.29-1.42.73" fill="#dcfcb4"/><path d="m115.51 71.59.02-1.6" style="fill:none;stroke:#8bbdae;stroke-width:.76;stroke-linecap:round;stroke-linejoin:round;stroke-miterlimit:10"/><path d="m126.06 72.12-1.42-.72m7.41.49-1.55-.4" style="fill:none;stroke:#e08295;stroke-width:.76;stroke-linecap:round;stroke-linejoin:round;stroke-miterlimit:10"/><path d="m116.09 78.71.24-1.58" style="fill:none;stroke:#8bbdae;stroke-width:.76;stroke-linecap:round;stroke-linejoin:round;stroke-miterlimit:10"/><path d="m377.15 130.7c-1.21-.14-1.99.72-1.72 1.9l5.6 25.08c.28 1.18.95 1.27 1.5.19l11.86-23.12c.56-1.09.03-2.09-1.18-2.22z" fill="#ecd271"/><g style="fill:none;stroke:#fbf39e;stroke-width:.38;stroke-linecap:round;stroke-linejoin:round;stroke-miterlimit:10"><path d="m376.14 136.15c1.87-1.7 3.77-3.38 5.7-5.03m-4.94 8.16 8.5-6.48m-7.73 10.16 13.19-9.56m-12.42 13.08a314.86 314.86 0 0 0 15.12-10.22m-14.18 13.64c3.69-2.29 7.35-4.62 10.99-6.99m-10.28 10.74 6.48-4.06c.04-.03.08-.06.08-.1-.01-.05-.1-.04-.08 0m-5.84 7.36c1.17-.57 2.3-1.2 3.4-1.9m-8.85-21.61c4.6 3.87 9.25 7.67 13.95 11.4m-12.55-5.36c3.72 2.94 7.48 5.82 11.27 8.65m-9.53-1.93 7.54 4.87m-6.44.57c1.73.93 3.4 1.96 5.02 3.06"/><path d="m381.57 134.34c3.4 2.07 6.7 4.32 9.86 6.72l-.36-.28m-4.04-7.86a662.3 662.3 0 0 1 6.1 4.48"/></g><path d="m373.56 126.74c-.32-.95-.5-2.01-.5-3.18-.01-6.83 5.8-12.32 12.99-12.26 7.18.06 13.01 5.64 13.03 12.47 0 1.93-.47 3.57-1.3 4.9.8.7 1.31 1.68 1.31 2.78 0 2.05-1.74 3.7-3.9 3.68a3.99 3.99 0 0 1 -3.32-1.79 3.86 3.86 0 0 1 -3.62 2.32 3.97 3.97 0 0 1 -3.46-2.02 3.93 3.93 0 0 1 -3.05 1.39 3.96 3.96 0 0 1 -3.58-2.26c-.65.45-1.45.71-2.3.7a3.85 3.85 0 0 1 -3.92-3.74 3.6 3.6 0 0 1 1.62-2.99z" fill="#dcfcb4"/><path d="m393.71 118.47-2.24-.53" style="fill:none;stroke:#e08295;stroke-width:.76;stroke-linecap:round;stroke-linejoin:round;stroke-miterlimit:10"/><path d="m388.86 115.44-2.3.09" style="fill:none;stroke:#8bbdae;stroke-width:.76;stroke-linecap:round;stroke-linejoin:round;stroke-miterlimit:10"/><path d="m382.85 119.47 1.9-1.29m-8.87 4.08 1.13-2.01" style="fill:none;stroke:#e08295;stroke-width:.76;stroke-linecap:round;stroke-linejoin:round;stroke-miterlimit:10"/><path d="m384.16 124.29.74-2.18m8.51 4.41-.99-2.08" style="fill:none;stroke:#8bbdae;stroke-width:.76;stroke-linecap:round;stroke-linejoin:round;stroke-miterlimit:10"/><path d="m388.28 125.31-1.59.16" fill="#dcfcb4"/><path d="m380.57 117.23.6-1.48" style="fill:none;stroke:#8bbdae;stroke-width:.76;stroke-linecap:round;stroke-linejoin:round;stroke-miterlimit:10"/><path d="m390.2 121.58-1.07-1.19m6.72 3.17-1.29-.94" style="fill:none;stroke:#e08295;stroke-width:.76;stroke-linecap:round;stroke-linejoin:round;stroke-miterlimit:10"/><path d="m378.51 124.07.8-1.38" style="fill:none;stroke:#8bbdae;stroke-width:.76;stroke-linecap:round;stroke-linejoin:round;stroke-miterlimit:10"/><path d="m290.83 229.19c-1.09-.56-2.11-.03-2.28 1.18l-3.6 25.43c-.17 1.2.43 1.53 1.33.7l19.26-17.44c.9-.82.75-1.94-.33-2.5z" fill="#ecd271"/><g style="fill:none;stroke:#fbf39e;stroke-width:.38;stroke-linecap:round;stroke-linejoin:round;stroke-miterlimit:10"><path d="m287.96 233.93c2.35-.94 4.72-1.83 7.1-2.69m-7.5 5.89 10.24-3.07m-10.81 6.78 15.71-4.28m-16.23 7.86a315 315 0 0 0 17.75-4.24m-18.08 7.76c4.26-.84 8.5-1.72 12.74-2.65m-13.4 6.41 7.5-1.51c.04-.01.1-.03.1-.07.01-.04-.07-.07-.07-.02m-8.06 4.83c1.3-.13 2.58-.32 3.85-.58m-.65-23.35a617.54 617.54 0 0 0 9.03 15.59m-9.85-9.44c2.44 4.06 4.94 8.08 7.5 12.07m-8.25-5.18 5.34 7.23m-6.22-1.75a56.07 56.07 0 0 1 3.6 4.64"/><path d="m293.68 234.16a118.3 118.3 0 0 1 6.86 9.77l-.25-.4m-.99-8.78c1.38 2.11 2.75 4.23 4.11 6.35"/></g><path d="m288.87 224.22a10 10 0 0 1 .65-3.15c2.4-6.4 9.78-9.48 16.48-6.89s10.2 9.87 7.8 16.26a9.08 9.08 0 0 1 -2.96 4.14c.51.92.64 2.03.25 3.06a3.77 3.77 0 0 1 -4.94 2.07 4 4 0 0 1 -2.48-2.85 3.86 3.86 0 0 1 -4.2.9 3.98 3.98 0 0 1 -2.53-3.12c-.97.55-2.2.66-3.35.22a3.96 3.96 0 0 1 -2.55-3.38c-.76.2-1.6.16-2.4-.15a3.85 3.85 0 0 1 -2.34-4.88 3.61 3.61 0 0 1 2.57-2.23z" fill="#dcfcb4"/><path d="m310.64 223.59-1.91-1.28" style="fill:none;stroke:#e08295;stroke-width:.76;stroke-linecap:round;stroke-linejoin:round;stroke-miterlimit:10"/><path d="m307.18 219.04-2.19-.72" style="fill:none;stroke:#8bbdae;stroke-width:.76;stroke-linecap:round;stroke-linejoin:round;stroke-miterlimit:10"/><path d="m300.13 220.7 2.23-.54m-9.74.68 1.76-1.47" style="fill:none;stroke:#e08295;stroke-width:.76;stroke-linecap:round;stroke-linejoin:round;stroke-miterlimit:10"/><path d="m299.65 225.67 1.46-1.78m6.41 7.13-.19-2.3" style="fill:none;stroke:#8bbdae;stroke-width:.76;stroke-linecap:round;stroke-linejoin:round;stroke-miterlimit:10"/><path d="m303.15 228.08-1.54-.42" fill="#dcfcb4"/><path d="m298.78 217.8 1.09-1.18" style="fill:none;stroke:#8bbdae;stroke-width:.76;stroke-linecap:round;stroke-linejoin:round;stroke-miterlimit:10"/><path d="m306.26 225.26-.58-1.49m5.17 5.34-.88-1.33" style="fill:none;stroke:#e08295;stroke-width:.76;stroke-linecap:round;stroke-linejoin:round;stroke-miterlimit:10"/><path d="m294.44 223.47 1.24-1.01" style="fill:none;stroke:#8bbdae;stroke-width:.76;stroke-linecap:round;stroke-linejoin:round;stroke-miterlimit:10"/><path d="m214.82 261.52c.78 1.22.51 2.8-.6 3.5-1.1.71-2.65.29-3.42-.93l-9.23-14.46c-.78-1.22-.51-2.8.6-3.5 1.1-.71 2.65-.29 3.42.93z" fill="#faee81"/><path d="m212.44 246.36-14.68 9.36s-2.44 1.46-3.95-1.05c-1.5-2.52-11.78-23.76-11.78-23.76s-3.08-7.17 2.85-10.95 10.37.23 10.37.23l17.07 20.69s3.97 3.42.12 5.48z" fill="#ea7894"/><path d="m198.12 244.22c.47.73.37 1.64-.21 2-.58.38-1.44.08-1.9-.65l-9.33-14.61c-.47-.74-.38-1.64.2-2.01.59-.37 1.45-.08 1.92.66l9.32 14.6z" fill="#e9b2bd"/><path d="m203.55 240.75c.47.73.38 1.64-.2 2-.59.38-1.45.08-1.92-.65l-9.32-14.61c-.47-.74-.37-1.64.21-2.01s1.44-.07 1.91.66z" fill="#e9b2bd"/><path d="m323.92 175.8c-.74 1.26-2.27 1.73-3.4 1.06s-1.44-2.24-.7-3.49l8.76-14.74c.74-1.25 2.27-1.72 3.4-1.05s1.44 2.24.7 3.49l-8.76 14.74z" fill="#faee81"/><path d="m336.4 166.87-14.98-8.9s-2.4-1.52-.83-4 15.91-21.22 15.91-21.22 5.02-5.98 11.06-2.38c6.05 3.59 4.46 9.37 4.46 9.37l-10.79 24.55s-1.27 5.09-4.84 2.58z" fill="#ea7894"/><path d="m331.86 153.1c-.45.76-1.3 1.08-1.89.73s-.72-1.26-.27-2l8.85-14.9c.45-.75 1.3-1.07 1.9-.72.58.35.7 1.25.26 2l-8.85 14.9z" fill="#e9b2bd"/><path d="m337.4 156.4c-.44.75-1.3 1.07-1.89.72s-.71-1.25-.27-2l8.85-14.9c.45-.75 1.3-1.07 1.9-.72.59.35.7 1.25.26 2z" fill="#e9b2bd"/><path d="m543.94 158.54c-.34 1.41-1.66 2.31-2.93 2.01-1.28-.3-2.05-1.7-1.71-3.12l3.98-16.68c.33-1.4 1.65-2.31 2.93-2.01 1.27.3 2.04 1.7 1.7 3.12z" fill="#faee81"/><path d="m553.19 146.29-16.94-4.04s-2.75-.74-1.99-3.57 8.88-25 8.88-25 3.01-7.2 9.85-5.56 7.05 7.62 7.05 7.62l-3 26.65s.3 5.24-3.85 3.9z" fill="#ea7894"/><path d="m544.76 134.5c-.2.85-.91 1.41-1.58 1.25-.68-.16-1.06-.98-.86-1.83l4.02-16.86c.2-.84.92-1.4 1.59-1.25.67.16 1.05.99.85 1.83z" fill="#e9b2bd"/><path d="m551.03 136c-.2.85-.91 1.4-1.58 1.25-.68-.16-1.06-.99-.86-1.83l4.02-16.86c.2-.85.92-1.41 1.59-1.25s1.05.98.85 1.83l-4.01 16.86z" fill="#e9b2bd"/><path d="m178.46 62.37 55.53 10.73.27 3.26s-4.96 7.48-4.7 8.1-15.23 11.3-15.23 11.3-20.56-1.2-20.34-1.81-13.02-14.05-13.02-14.05l-4.74-13.7 2.23-3.84z" fill="#ea7894"/><path d="m175.36 61.57 3.1.8s-2 9.29 4.47 17.88c6.47 8.6 13.43 12.6 20.96 12.96 7.52.37 10.83 0 17.32-3.98s9.44-6.92 12.78-16.13l4.67.82-1.83 5.47-4.37 7.53-12.29 8.9-14.14 2.75-12.33-2.48-10.82-8.3-6.34-9.6-2.51-13.26z" fill="#dcfcb4"/><path d="m173.5 61.1s-3.38 13.48 7.19 25.95c10.56 12.46 26.03 14.6 36.49 11.26s15.48-8.8 19.9-16.14c0 0 1.9-3.54 2.78-7.98l-2.2-.5s-.85 1.2-.72 2.05-.71 1.76-1.05 2.34c-.33.58-.88 2.07-1.28 2.74a28.48 28.48 0 0 1 -2.13 2.96c-.35.41-1.44 1.85-2.07 2.41a18.2 18.2 0 0 0 -2.48 2.58c-.53.79-1.87 2.24-3.56 3.1-1.01.52-2.3.7-3.59 1.3s-4.04 2.53-6.1 2.87c-2.35.4-3.94.56-5.62 1.05-1.68.5-5.05-.09-6.04-.26-.98-.18-1.84-.02-2.74-.34-.9-.3-2.88-1.45-4.37-1.9-1.16-.35-2.81-.58-3.4-.95s-1.34-.93-2.33-1.6c-1-.7-1.79-1.54-2.64-2.32-.7-.63-1.48-1.27-2.41-2.24-.7-.74-1.39-1.16-2.82-2.69-1.44-1.52-1.8-3.23-2.37-3.92-.59-.73-2.2-2.6-2.33-3.71-.13-1.12-1.13-3.92-1.68-5.37-.55-1.46-.64-4.77-.72-5.43s.15-4.79.15-4.79l-1.85-.46z" fill="#70c4a8"/><path d="m186.32 69.2s.35-.3.45.27c.1.56.26 1.08-.14 2.09-.39 1-1.4.89-1.79.2s.53-1.87 1.48-2.55zm4.6 7.95s.35-.3.45.25.26 1.09-.14 2.1c-.39 1-1.4.88-1.79.2s.53-1.87 1.48-2.55zm5.43-5.53s.34-.3.44.25c.1.57.27 1.09-.13 2.1s-1.4.88-1.8.2c-.39-.7.53-1.87 1.49-2.55zm2.01 11.15s.35-.3.45.26.26 1.08-.13 2.1c-.4 1-1.4.88-1.8.19-.39-.7.53-1.86 1.48-2.55zm10.19 2.42s.28-.37.49.16.47 1 .3 2.08-1.2 1.15-1.73.55.14-1.93.94-2.8zm-2.95-7.62s.28-.37.49.16.47 1 .3 2.08-1.2 1.15-1.73.55c-.52-.6.14-1.93.94-2.8zm12.02 4.5s.34-.3.44.26.27 1.08-.13 2.09c-.39 1-1.4.89-1.8.2s.53-1.87 1.49-2.55zm-2.71-7.1s.35-.3.45.26.26 1.08-.13 2.1c-.4 1-1.4.88-1.8.19-.4-.7.53-1.87 1.48-2.55zm10.45-.16s.28-.36.5.17c.2.52.47 1 .29 2.07-.19 1.07-1.2 1.15-1.72.55-.53-.6.14-1.93.93-2.79z" fill="#3e3e3d"/><path d="m211.8 65.16a4.3 4.3 0 0 0 -3.68 1.71 6.96 6.96 0 0 0 -13.06-3.48 4.3 4.3 0 1 0 -.85 3.22 6.96 6.96 0 0 0 13.09 3.42 4.3 4.3 0 1 0 4.5-4.87z" fill="#fff"/><path d="m470.54 145.73-36.4 43.3-2.97-1.35s-4.13-7.98-4.8-8.05c-.66-.07-2.45-18.8-2.45-18.8s11.04-17.38 11.47-16.9c.42.5 18.6-4.54 18.6-4.54l14.28 2.53 2.27 3.8z" fill="#ea7894"/><path d="m472.74 143.4-2.2 2.33s-7.15-6.26-17.8-4.8c-10.66 1.48-17.54 5.61-21.52 12.01s-5.28 9.46-4.95 17.07 1.45 11.62 7.88 19.01l-3 3.7-3.89-4.28-4.45-7.47-1.8-15.07 4.48-13.7 8.17-9.56 12.5-5.42 11.48-.87 12.81 4.26 2.29 2.8z" fill="#dcfcb4"/><path d="m474.05 142.01s-10.14-9.51-26.16-6.34c-16.03 3.16-25.43 15.64-27.59 26.4-2.16 10.78.15 17.8 4.42 25.24 0 0 2.17 3.38 5.62 6.31l1.5-1.67s-.64-1.33-1.44-1.63-1.19-1.48-1.53-2.05c-.34-.58-1.38-1.78-1.77-2.46-.6-1.04-1.32-2.7-1.55-3.3-.19-.5-.92-2.16-1.1-2.98-.18-.83-.61-2.57-1.05-3.43a10.45 10.45 0 0 1 -.98-4.61c.04-1.14.52-2.35.61-3.77s-.23-4.76.47-6.73c.8-2.24 1.43-3.7 1.81-5.41.39-1.71 2.54-4.38 3.17-5.15s.91-1.6 1.62-2.24c.72-.64 2.68-1.8 3.8-2.88.87-.85 1.87-2.18 2.48-2.5.6-.33 1.46-.73 2.54-1.27s2.2-.82 3.3-1.19c.89-.3 1.83-.67 3.14-1 .98-.26 1.68-.65 3.71-1.17 2.03-.51 3.7 0 4.58-.16.92-.15 3.34-.66 4.38-.23 1.04.44 3.97.92 5.5 1.15 1.55.23 4.48 1.76 5.1 2 .62.26 4.1 2.47 4.1 2.47l1.31-1.4z" fill="#70c4a8"/><path d="m460.73 149.27s.1.45-.44.26c-.54-.18-1.07-.3-1.76-1.13s-.1-1.66.7-1.66c.8-.01 1.37 1.36 1.5 2.53zm-9.17.16s.1.45-.44.26-1.08-.3-1.77-1.13c-.69-.84-.1-1.66.7-1.67.8 0 1.38 1.37 1.51 2.54zm2.19 7.43s.1.45-.44.26c-.54-.18-1.07-.3-1.76-1.13-.7-.83-.1-1.66.7-1.66.8-.01 1.37 1.36 1.5 2.53zm-10.72-3.66s.1.44-.45.26-1.07-.3-1.76-1.14c-.7-.83-.1-1.65.7-1.66.8 0 1.37 1.37 1.5 2.53zm-7.07 7.72s.18.42-.38.35c-.57-.08-1.11-.08-1.96-.76-.84-.68-.43-1.6.35-1.77s1.62 1.06 1.99 2.18zm8.09 1.13s.19.42-.38.34-1.1-.07-1.95-.75-.43-1.6.35-1.77 1.62 1.06 1.98 2.18zm-9.78 8.31s.1.45-.44.26-1.07-.3-1.76-1.13c-.7-.83-.1-1.65.7-1.66s1.37 1.36 1.5 2.53zm7.53 1.08s.09.45-.45.27c-.54-.19-1.08-.3-1.77-1.13s-.1-1.66.7-1.67c.8 0 1.38 1.37 1.51 2.53zm-4.95 9.22s.18.42-.39.34c-.56-.07-1.1-.07-1.95-.75-.84-.68-.43-1.6.35-1.77s1.62 1.06 1.99 2.18z" fill="#3e3e3d"/><path d="m454.52 169.18a4.3 4.3 0 0 0 1.78-3.65 6.96 6.96 0 0 0 12.33-5.53 4.3 4.3 0 1 0 -1.37-3.04 6.96 6.96 0 0 0 -12.31 5.6 4.3 4.3 0 1 0 -.43 6.62z" fill="#fff"/><g fill="#3e3e3d"><path d="m144.6 121.23s.44-.12.29.43-.23 1.09-1.02 1.83c-.79.75-1.65.2-1.7-.59s1.27-1.46 2.42-1.67zm3.55-3.89s.46.05.11.5c-.34.46-.61.93-1.62 1.33-1 .4-1.6-.42-1.36-1.18s1.72-.88 2.87-.65zm.61 4.7s.4-.23.4.34.06 1.1-.52 2.03c-.57.92-1.54.62-1.8-.14-.25-.75.86-1.73 1.92-2.23z"/><path d="m89.55 60.37s.39-.25.4.32c.02.57.1 1.1-.43 2.05-.54.94-1.52.67-1.8-.07-.3-.75.79-1.77 1.83-2.3zm2.27-4.76s.45-.09.26.45c-.2.53-.32 1.06-1.17 1.74s-1.66.06-1.65-.74 1.4-1.34 2.56-1.45zm1.96 4.31s.3-.34.47.21.38 1.05.1 2.1c-.28 1.04-1.3 1.03-1.76.39-.47-.65.31-1.91 1.19-2.7z"/><path d="m21.44 203.34s.44-.12.29.43-.23 1.08-1.02 1.83c-.78.74-1.64.2-1.7-.6-.06-.79 1.27-1.45 2.43-1.66zm3.56-3.89s.45.05.1.5c-.34.46-.61.93-1.62 1.33-1 .4-1.6-.42-1.36-1.18s1.72-.88 2.87-.65zm.6 4.7s.4-.24.4.33.06 1.11-.51 2.04-1.54.61-1.8-.14.85-1.73 1.92-2.23z"/><path d="m380.96 81.92s.45-.13.3.42-.23 1.09-1.02 1.83-1.65.2-1.7-.59 1.27-1.46 2.42-1.66zm3.56-3.89s.46.04.11.5c-.34.46-.61.93-1.62 1.32-1 .4-1.6-.42-1.36-1.18s1.72-.88 2.87-.64zm.61 4.69s.4-.23.4.34.06 1.1-.51 2.03c-.58.92-1.54.62-1.8-.14-.27-.75.85-1.73 1.91-2.23z"/><path d="m288.56 143.77s-.42.2-.36-.38c.06-.56.05-1.1.7-1.97.66-.86 1.6-.47 1.78.3.19.78-1.01 1.65-2.12 2.05zm-2.86 4.42s-.47.02-.2-.48c.26-.5.45-1.02 1.38-1.58.93-.55 1.65.16 1.54.95s-1.56 1.15-2.73 1.1zm-1.39-4.53s-.35.29-.44-.27-.24-1.09.17-2.1c.41-1 1.42-.85 1.8-.15s-.56 1.85-1.53 2.52z"/><path d="m498.68 152.4s.44-.12.3.43-.23 1.1-1.02 1.84-1.65.2-1.7-.6c-.06-.79 1.26-1.45 2.42-1.66zm3.56-3.88s.45.05.11.5c-.34.46-.61.93-1.62 1.33s-1.6-.42-1.37-1.18 1.73-.88 2.88-.65zm.61 4.7s.4-.24.4.33c-.01.57.05 1.11-.52 2.03-.57.93-1.54.62-1.8-.13s.86-1.74 1.92-2.23z"/><path d="m395.2 180.86s.46.03.14.5-.56.96-1.54 1.41c-.99.46-1.63-.33-1.43-1.1s1.67-.98 2.83-.8zm4.6-2.56s.43.2-.05.52-.87.68-1.96.74-1.38-.91-.91-1.55c.47-.65 1.91-.3 2.93.3zm-.9 4.66s.45-.1.26.44c-.18.54-.3 1.07-1.13 1.76-.83.7-1.66.1-1.66-.7-.01-.8 1.36-1.37 2.53-1.5z"/><path d="m409.64 232.25s.46.02.14.5-.56.95-1.54 1.4c-.99.46-1.63-.32-1.43-1.1.2-.77 1.67-.97 2.83-.8zm4.61-2.55s.42.18-.05.5c-.47.33-.88.69-1.96.75s-1.39-.92-.92-1.56 1.91-.29 2.93.3zm-.91 4.64s.45-.1.26.44c-.18.54-.3 1.07-1.13 1.77-.83.69-1.65.1-1.66-.7 0-.8 1.36-1.38 2.53-1.51z"/><path d="m242.36 241.38s-.31-.35.25-.45 1.08-.28 2.1.1c1 .38.9 1.39.21 1.79-.68.4-1.87-.5-2.56-1.44zm-5.06-1.48s-.16-.43.4-.32c.56.1 1.1.14 1.9.87s.33 1.63-.45 1.75c-.8.12-1.56-1.16-1.85-2.3zm3.94-2.62s-.39-.25.13-.5c.51-.25.97-.55 2.05-.44 1.08.1 1.23 1.1.67 1.67s-1.94 0-2.85-.73z"/></g><path d="m233.77 120.41c1.1-1.91 2.82-3.38 4.5-4.81a8.28 8.28 0 0 1 1.82-1.29c.56-.26 1.16-.39 1.73-.62.85-.34 1.6-.91 2.47-1.2.81-.26 1.68-.26 2.53-.35 3.02-.32 5.86-1.8 8.9-1.95 1.71-.1 3.42.24 5.09.68 1.18.3 2.36.68 3.4 1.34a4.9 4.9 0 0 1 2.19 2.82c.29 1.16 0 2.39-.33 3.53a37.67 37.67 0 0 1 -1.98 5.27c-1.87 4.04-4.76 7.98-9 9.35-3.77 1.23-7.85.2-11.79-.3-1.57-.21-3.17-.34-4.67-.84a6.7 6.7 0 0 1 -3.07-1.96c-.84-1-1.04-2.33-1.78-3.39-1.42-2.04-1.29-4.08-.01-6.28z" fill="#f6f3ea"/><path d="m232.54 122.03a7.44 7.44 0 0 0 6.13 3.42c.35 0 .71-.02 1.03.12.32.15.56.52.43.84 1.91-1.03 4.21-.98 6.38-.77 2.16.21 4.37.55 6.48.02 2.47-.62 4.48-2.36 6.57-3.83 1.52-1.07 3.15-2.03 4.39-3.41s2.04-3.33 1.52-5.12c.98.33 1.55 1.33 1.92 2.29a13.86 13.86 0 0 1 -5.1 16.37c-2.06 1.4-4.45 2.24-6.83 2.96a30.8 30.8 0 0 1 -7.38 1.47c-2.46.11-4.91-.26-7.35-.64a10.04 10.04 0 0 1 -3.14-.84 10.05 10.05 0 0 1 -2.72-2.38c-2.66-2.98-3.6-6.61-2.33-10.5z" fill="#f0e6c1"/><path d="m232.4 127.69c-.24-.2-.04 3.27 1.67 7.05s3.39 7.07 6.38 9.32 9.76 5.24 15.23 3.45c5.48-1.78 9.43-3.78 11.97-8.31s4.42-8.36 3.48-12.68c-.93-4.31-1.32-7-3.26-9.33 0 0-.23 7.02-5.16 9.41s-9.35 1.18-10.71 2.1c-1.36.91-4.5 2.9-7.29 2.2-2.78-.7-3.28-2.45-4.01-1.76-.74.7-3.93 2.1-8.3-1.45z" fill="#c9e0ac"/><path d="m233.26 125.29a3.96 3.96 0 0 1 -.61-2.97c.38-2.35 2.27-4.12 4.05-5.7a19.07 19.07 0 0 1 3.52-2.36c1.67-.95 5.45-2.11 7.34-2.5 3.34-.68 4.87-.78 8.28-1 1.99-.14 4.05-.19 5.92.5 1.15.42 2.18 1.1 3.18 1.8.44.3.89.62 1.18 1.07.58.9.42 2.06.23 3.11-.15.8-.33 1.69-.97 2.2" fill="none" stroke="#f3e8cd" stroke-miterlimit="10" stroke-width=".66"/><path d="m238.57 118.87a8.49 8.49 0 0 1 3-1.64 72.52 72.52 0 0 1 14.76-3.79 6.6 6.6 0 0 1 1.99-.08c1.12.18 2.14.95 2.6 1.99.13.28.22.58.23.88.03 1.12-.96 1.96-1.89 2.58a29.72 29.72 0 0 1 -15.86 4.83c-2.52.03-8.33-1.42-4.83-4.77z" fill="#d0c59e"/><path d="m256.18 120.63c.15-7.19.78-14 1.58-20.96.01-.1-.06-.28-.08-.37.23-.15.16-.48.06-.73s-.18-.57.03-.74c.07-.06.17-.08.25-.14.23-.16.15-.51.06-.78-.1-.26-.16-.62.07-.77.17-.11.4-.05.57-.16.37-.23.05-.98.45-1.16.24-.11.54.1.77-.03.14-.08.18-.27.25-.41.17-.34.6-.53.97-.42.1.03.2.09.3.1.28.02.5-.2.73-.33.24-.13.65-.06.63.21.12-.01 5.45-.2 7.37 0 .2.01.42.05.53.2.09.14.08.3.07.46l-.13 1.66c-1.6.14-6.22.51-6.85.23-.16.36-.86.34-1.18.11-.08-.06-.15-.14-.25-.14s-.17.08-.22.15c-.15.17-.31.35-.52.45-.2.1-.47.1-.64-.04-.05.16.12.3.16.46.05.17-.07.36-.22.45-.16.08-.35.1-.53.12l.54.45c-.2.34-.55.6-.93.72.13.07.23.2.25.34l-1.77 19.84s-2.33 1.9-2.32 1.23z" fill="#70c4a8"/><path d="m246.28 123.46c.52-.09 1.11-.13 1.63-.22-1.11-.97-6.27-9.19-6.75-9.16-.38.02-.87 1.37-.82 1.04.03-.16 5.8 8.37 5.94 8.34zm-17.21-5.41c-.16.4-.24.82-.23 1.25l.78.27.31-1.68-.73-.18-.1.76m20.72-11.82.93.26c.07.02.16.04.22 0 .04-.03.06-.08.08-.13.1-.27.17-.57.17-.87l-1.02-.06c-.1 0-.2-.01-.28.04-.18.1-.16.36-.12.57m-13.74 11.6c.1.41.2.82.28 1.24-.16-.03-.25.2-.42.24-.18.03-.3-.2-.35-.38l-.28-1.07c.24-.02.53-.33.77-.34.02.07-.01.24 0 .31zm10.49-6.05.27.26c.18.15.36.32.59.37s.5-.07.55-.3c.05-.25-.2-.46-.43-.57s-.5-.2-.61-.44c-.19.21-.33.46-.43.72m-12.59-6.49-1.22-2.13c.34-.42.84-.7 1.38-.79.36.6.7 1.2 1.04 1.8.1.16.18.38.07.54-.06.08-.16.11-.26.14-.33.1-.68.2-1.02.26" fill="#b2a264"/><path d="m233.74 105.61a167.3 167.3 0 0 0 -4.74 12.8c.97-.46 2.09-.12 2.81.67a2.7 2.7 0 0 1 3.72-.54 2.47 2.47 0 0 1 3.26-.53 3.39 3.39 0 0 1 3.1-1.34 2.91 2.91 0 0 1 2.92-2.56 3.38 3.38 0 0 1 2.54-2.41 2.68 2.68 0 0 1 2.07-2.89 3.65 3.65 0 0 1 1.5-3.16c-2.01.02-13.53-1.12-15.25-1.4-.53-.1-.43.38-.96.5-.52.13-.76.36-.97.86z" fill="#ea7894"/><path d="m235.44 117.47c-.69-3.79-1.25-7.92-1.55-11.76l-2.2 12.38m7.47-1.49.15.35-4.84-11.54c2.26 3.37 4.98 6.88 7.24 10.25l-.48-.7m6.01-5.87-2.42-1-9.33-3.84c3.63 2.46 6.97 5.22 10.73 7.45m-2.1 1.69-9.06-8" style="fill:none;stroke:#e9b2bd;stroke-width:.22;stroke-linecap:round;stroke-linejoin:round;stroke-miterlimit:10"/><path d="m233.84 130.61c2.07 3.56 4.17 7.16 7.02 10.13.63-1.56.93-3.27.87-4.96a6.79 6.79 0 0 1 3.76 2.44c.57.75 1 1.62 1.73 2.2.73.59 1.93.76 2.53.05.39-.47.42-1.16.82-1.61.53-.6 1.54-.52 2.19-.05a4.94 4.94 0 0 1 1.37 1.93l2.8-3.52c.56.67 1.26 1.36 2.14 1.38 1.15.01 1.93-1.1 2.85-1.8.92-.68 2.74-.52 2.67.62a22.97 22.97 0 0 0 6.83-8.29c.14 4.86-2.1 8.83-5.07 12.2a17.38 17.38 0 0 1 -3.73 3.14c-1.54 1-3.52 2.06-5.3 2.55-6.13 1.7-9.56 2.1-15.1-1.66-4.84-3.28-8.23-8.85-8.38-14.75z" fill="#a8c288"/><path d="m448.4 220.6c1.84-1.24 4.02-1.82 6.16-2.37a8.22 8.22 0 0 1 2.2-.36c.61.01 1.22.16 1.82.2.92.06 1.85-.12 2.76 0 .84.12 1.62.5 2.42.79 2.86 1.03 6.05.94 8.86 2.13a16.7 16.7 0 0 1 4.28 2.83c.93.8 1.83 1.65 2.47 2.7.64 1.03 1 2.3.74 3.5-.25 1.16-1.03 2.14-1.84 3.03a37.85 37.85 0 0 1 -4.08 3.88c-3.45 2.81-7.77 5.09-12.17 4.47-3.94-.54-7.16-3.25-10.48-5.43-1.32-.87-2.7-1.68-3.84-2.79a6.7 6.7 0 0 1 -1.9-3.1c-.32-1.27.08-2.55-.12-3.83-.38-2.46.62-4.23 2.73-5.66z" fill="#f6f3ea"/><path d="m446.6 221.5a7.44 7.44 0 0 0 4.02 5.77c.31.15.65.3.87.56.22.27.28.71.02.94 2.17-.09 4.22.96 6.07 2.1 1.85 1.13 3.7 2.4 5.82 2.84 2.5.52 5.07-.17 7.58-.57 1.84-.3 3.73-.45 5.45-1.15s3.3-2.1 3.6-3.94c.74.72.82 1.87.73 2.9a13.88 13.88 0 0 1 -11.74 12.49c-2.47.37-4.98.08-7.44-.32-2.48-.4-4.97-.91-7.28-1.9a37.15 37.15 0 0 1 -6.33-3.78c-.9-.62-1.81-1.26-2.46-2.13a10.05 10.05 0 0 1 -1.4-3.33c-1.1-3.85-.35-7.52 2.49-10.47z" fill="#f0e6c1"/><path d="m444 226.54c-.13-.29-1.47 2.93-1.58 7.08s-.04 7.84 1.66 11.17c1.71 3.32 6.5 8.97 12.2 9.76s10.14.72 14.4-2.25 7.63-5.6 8.67-9.88c1.04-4.3 1.87-6.88 1.14-9.83 0 0-3.27 6.22-8.75 6.22-5.47 0-8.93-3.03-10.55-2.8s-5.31.64-7.51-1.2-1.89-3.64-2.85-3.34c-.97.3-4.46.18-6.82-4.93z" fill="#c9e0ac"/><path d="m445.82 224.76a3.97 3.97 0 0 1 .75-2.93c1.37-1.95 3.84-2.72 6.14-3.37 1.43-.4 2.7-.5 4.19-.58 1.92-.12 5.83.48 7.7.96 3.3.85 4.71 1.43 7.88 2.7 1.85.76 3.72 1.61 5.11 3.05.85.88 1.48 1.94 2.08 3.01.26.47.52.95.58 1.48.14 1.06-.52 2.03-1.15 2.9-.48.66-1.03 1.37-1.83 1.54" fill="none" stroke="#f3e8cd" stroke-miterlimit="10" stroke-width=".66"/><path d="m453.4 221.3a8.49 8.49 0 0 1 3.41-.16 72.57 72.57 0 0 1 14.94 3.05c.63.2 1.28.41 1.82.8.94.64 1.5 1.78 1.48 2.92 0 .3-.06.61-.18.9-.46 1-1.72 1.33-2.83 1.48-5.56.72-11.31-.2-16.38-2.59-2.28-1.07-6.87-4.91-2.26-6.4z" fill="#d0c59e"/><path d="m468.48 230.58c3.27-6.4 6.81-12.25 10.58-18.16.05-.08.06-.27.09-.37.26-.03.35-.36.37-.63.01-.26.08-.6.34-.65.1-.02.2 0 .3-.01.27-.05.35-.4.38-.68s.13-.63.41-.67c.2-.02.38.13.58.11.43-.05.47-.86.91-.85.26 0 .44.33.7.31.17-.01.28-.16.41-.26.3-.23.77-.21 1.05.05.08.07.14.16.24.22.23.14.52.03.8.02s.6.23.47.47c.11.04 5 2.2 6.63 3.21.17.1.35.23.38.43.03.15-.05.3-.13.43l-.85 1.44c-1.5-.58-5.81-2.25-6.25-2.78-.3.25-.93-.07-1.11-.42-.05-.09-.08-.2-.17-.24s-.18 0-.27.04c-.2.09-.42.18-.65.18s-.48-.1-.57-.32c-.11.12-.02.32-.05.49s-.22.29-.4.3-.36-.05-.52-.12l.28.65c-.34.21-.75.3-1.15.23a.5.5 0 0 1 .08.42l-10.26 17.07s-2.93.7-2.62.1z" fill="#70c4a8"/><path d="m458.33 228.8c.5.15 1.06.37 1.56.51-.57-1.35-1.62-11-2.07-11.18-.34-.15-1.38.85-1.19.58.1-.13 1.56 10.05 1.7 10.1zm-13.12-12.38c-.31.29-.57.63-.74 1.02l.57.59 1.02-1.38-.58-.48-.42.64m23.81-1.58.71.64c.06.05.13.1.2.09.05 0 .09-.04.13-.07.22-.2.4-.45.54-.71l-.9-.5c-.08-.05-.17-.1-.27-.1-.2.02-.3.26-.35.47m-17.43 4.43-.28 1.24c-.14-.1-.33.07-.5.03-.17-.05-.18-.3-.14-.49l.21-1.1c.22.1.62-.05.84.04 0 .07-.11.21-.13.28zm12.07-.86.14.35c.09.22.18.45.36.59s.5.16.63-.02c.16-.2.03-.5-.13-.7s-.37-.41-.37-.67c-.25.11-.5.27-.7.47m-8.49-11.35-.16-2.44a2.25 2.25 0 0 1 1.58-.11c.07.69.12 1.37.16 2.06 0 .2 0 .44-.18.52-.09.05-.2.04-.3.02-.34-.05-.68-.12-1.02-.21" fill="#b2a264"/><path d="m454.85 207.27c-3.4 3.01-6.7 6.16-9.85 9.44 1.07.01 1.92.8 2.23 1.83a2.7 2.7 0 0 1 3.58 1.14 2.47 2.47 0 0 1 3.17.95 3.39 3.39 0 0 1 3.38.15 2.91 2.91 0 0 1 3.73-1.03 3.39 3.39 0 0 1 3.35-1.06 2.68 2.68 0 0 1 3.11-1.7 3.65 3.65 0 0 1 2.74-2.18c-1.83-.86-11.68-6.92-13.1-7.93-.45-.3-.56.16-1.09.04-.53-.11-.84 0-1.25.35z" fill="#ea7894"/><path d="m451.2 218.68c1.03-3.7 2.33-7.67 3.74-11.25l-7.39 10.17m7.37 1.91v.39l.67-12.5c.56 4.03 1.48 8.37 2.03 12.39l-.12-.84m7.97-2.65-1.74-1.96-6.71-7.53c2.2 3.8 3.99 7.74 6.4 11.4m-2.63.59-4.66-11.15" style="fill:none;stroke:#e9b2bd;stroke-width:.22;stroke-linecap:round;stroke-linejoin:round;stroke-miterlimit:10"/><path d="m444.02 229.8c.3 4.1.62 8.26 1.88 12.18a12.13 12.13 0 0 0 2.95-4.08 6.8 6.8 0 0 1 2.32 3.84c.2.91.2 1.88.6 2.73s1.4 1.53 2.25 1.15c.56-.25.88-.86 1.45-1.1.73-.3 1.6.21 1.98.92s.4 1.54.4 2.33l4.04-1.94c.22.85.55 1.78 1.33 2.18 1.03.51 2.22-.15 3.35-.37s2.7.72 2.13 1.72c3.55-.69 6.93-2.24 9.77-4.47-2 4.43-5.75 7.02-9.9 8.76-1.54.65-3.06 1-4.72 1.2-1.82.22-4.07.3-5.88-.03-6.25-1.15-9.52-2.29-12.86-8.1-2.92-5.06-3.54-11.55-1.09-16.92z" fill="#a8c288"/><path d="m148.82 222.04c-1.11-1.9-2.82-3.38-4.5-4.81a8.28 8.28 0 0 0 -1.83-1.29c-.55-.25-1.16-.38-1.72-.62-.86-.34-1.6-.91-2.48-1.2-.81-.26-1.68-.26-2.53-.35-3.02-.32-5.85-1.8-8.89-1.95a16.7 16.7 0 0 0 -5.1.68 11.8 11.8 0 0 0 -3.39 1.34 4.9 4.9 0 0 0 -2.2 2.82c-.29 1.16 0 2.39.33 3.54.53 1.8 1.19 3.56 1.98 5.27 1.87 4.04 4.76 7.97 9 9.34 3.77 1.23 7.85.2 11.79-.3 1.57-.21 3.17-.34 4.67-.84a6.7 6.7 0 0 0 3.07-1.96c.84-1 1.04-2.33 1.78-3.39 1.42-2.04 1.3-4.08.02-6.28z" fill="#f6f3ea"/><path d="m150.05 223.66a7.44 7.44 0 0 1 -6.14 3.42c-.35 0-.71-.02-1.03.12-.31.15-.56.52-.43.85-1.91-1.04-4.21-.99-6.37-.78-2.17.21-4.38.55-6.48.02-2.48-.62-4.48-2.36-6.57-3.83-1.52-1.06-3.16-2.02-4.4-3.4s-2.04-3.34-1.52-5.12c-.98.32-1.55 1.32-1.92 2.28a13.86 13.86 0 0 0 5.1 16.37c2.06 1.4 4.45 2.24 6.83 2.96a30.8 30.8 0 0 0 7.39 1.47 37.2 37.2 0 0 0 7.34-.64c1.08-.16 2.18-.33 3.15-.83 1.07-.56 1.9-1.49 2.71-2.4 2.67-2.97 3.6-6.6 2.34-10.5z" fill="#f0e6c1"/><path d="m150.18 229.32c.24-.2.04 3.27-1.67 7.05-1.7 3.78-3.39 7.08-6.37 9.32-3 2.25-9.76 5.24-15.24 3.45s-9.43-3.78-11.97-8.31-4.42-8.36-3.48-12.68 1.32-7 3.27-9.33c0 0 .22 7.02 5.15 9.41s9.36 1.18 10.71 2.1c1.36.91 4.5 2.9 7.29 2.2 2.78-.7 3.28-2.45 4.02-1.76.73.7 3.93 2.1 8.29-1.45z" fill="#c9e0ac"/><path d="m149.32 226.92c.61-.84.78-1.94.61-2.96-.38-2.36-2.27-4.13-4.05-5.71a19.07 19.07 0 0 0 -3.51-2.36c-1.68-.95-5.46-2.11-7.34-2.5-3.35-.68-4.88-.78-8.28-1-2-.14-4.05-.19-5.93.5-1.15.42-2.18 1.1-3.18 1.8-.44.3-.89.62-1.18 1.07-.58.9-.41 2.06-.23 3.11.15.8.33 1.69.98 2.2" fill="none" stroke="#f3e8cd" stroke-miterlimit="10" stroke-width=".66"/><path d="m144.01 220.5a8.49 8.49 0 0 0 -3-1.64 72.5 72.5 0 0 0 -14.76-3.79 6.6 6.6 0 0 0 -1.99-.08 3.52 3.52 0 0 0 -2.6 2c-.13.27-.22.57-.23.87-.03 1.12.96 1.96 1.9 2.58a29.72 29.72 0 0 0 15.86 4.83c2.52.03 8.33-1.42 4.82-4.77z" fill="#d0c59e"/><path d="m126.4 222.26c-.15-7.19-.78-14-1.58-20.96-.01-.1.06-.28.08-.37-.22-.14-.16-.48-.06-.73.1-.24.19-.57-.02-.74-.08-.06-.18-.08-.26-.14-.23-.16-.15-.51-.06-.78.1-.26.16-.62-.07-.77-.17-.11-.4-.05-.57-.16-.37-.23-.05-.98-.45-1.16-.23-.1-.54.1-.76-.03-.15-.08-.19-.26-.26-.41a.84.84 0 0 0 -.96-.42c-.1.03-.2.09-.31.1-.27.03-.49-.2-.73-.33s-.65-.06-.62.21c-.13 0-5.46-.2-7.38 0-.2.01-.42.05-.53.21-.09.13-.08.3-.07.45.05.55.1 1.1.13 1.66 1.6.14 6.22.52 6.85.24.16.35.87.33 1.18.1.08-.06.16-.14.26-.14.09 0 .16.08.22.15.15.17.3.35.5.45.21.1.48.1.66-.04.05.16-.13.3-.17.46-.05.17.07.36.23.45.15.09.34.1.52.12l-.53.46c.2.34.54.6.92.7a.5.5 0 0 0 -.25.35l1.77 19.84s2.33 1.9 2.32 1.23z" fill="#70c4a8"/><path d="m136.3 225.1c-.52-.1-1.1-.14-1.62-.23 1.1-.97 6.26-9.19 6.75-9.16.37.02.87 1.37.81 1.04-.02-.16-5.79 8.37-5.94 8.34zm17.21-5.41c.16.39.24.81.23 1.24l-.78.28-.3-1.7.72-.17.1.76m-20.72-11.82-.93.26c-.07.02-.15.04-.22 0-.04-.03-.06-.08-.08-.12a2.53 2.53 0 0 1 -.17-.88l1.03-.06c.1 0 .2-.01.28.04.18.1.16.36.11.57m13.74 11.61-.28 1.23c.16-.03.26.2.42.24.19.03.3-.2.35-.38l.28-1.07c-.23-.02-.53-.32-.77-.34-.02.07.01.24 0 .31zm-10.48-6.06-.28.26c-.17.15-.36.32-.58.37-.23.05-.51-.07-.56-.3-.05-.25.2-.46.43-.57s.5-.2.62-.44c.18.21.32.46.42.72m12.61-6.49 1.2-2.13c-.34-.42-.84-.7-1.37-.78-.36.59-.71 1.18-1.05 1.79-.1.16-.18.39-.06.54.06.08.16.11.25.14.34.1.68.2 1.02.26" fill="#b2a264"/><path d="m148.84 207.24a167.3 167.3 0 0 1 4.74 12.8c-.97-.46-2.09-.12-2.8.67a2.7 2.7 0 0 0 -3.72-.54 2.47 2.47 0 0 0 -3.27-.53 3.39 3.39 0 0 0 -3.1-1.34 2.91 2.91 0 0 0 -2.92-2.56 3.38 3.38 0 0 0 -2.54-2.41 2.68 2.68 0 0 0 -2.06-2.89 3.65 3.65 0 0 0 -1.51-3.16c2.02.02 13.53-1.12 15.25-1.4.54-.1.44.38.96.5.53.13.76.37.97.86z" fill="#ea7894"/><path d="m147.14 219.1c.69-3.79 1.25-7.92 1.55-11.76l2.2 12.38m-7.46-1.5-.16.36 4.84-11.54c-2.26 3.37-4.97 6.88-7.23 10.25l.48-.7m-6.01-5.87 2.41-1 9.33-3.84c-3.63 2.46-6.96 5.22-10.73 7.45m2.11 1.69 9.05-8" style="fill:none;stroke:#e9b2bd;stroke-width:.22;stroke-linecap:round;stroke-linejoin:round;stroke-miterlimit:10"/><path d="m148.74 232.24c-2.07 3.56-4.16 7.16-7.01 10.13a12.12 12.12 0 0 1 -.88-4.96 6.79 6.79 0 0 0 -3.76 2.44c-.57.75-1 1.62-1.72 2.2-.73.59-1.93.76-2.54.05-.39-.47-.42-1.16-.82-1.61-.53-.6-1.54-.52-2.18-.05a4.94 4.94 0 0 0 -1.38 1.93l-2.79-3.52c-.57.67-1.27 1.36-2.15 1.38-1.15.01-1.93-1.1-2.85-1.8-.92-.68-2.74-.52-2.66.62a22.97 22.97 0 0 1 -6.84-8.29c-.14 4.86 2.1 8.83 5.08 12.2a17.38 17.38 0 0 0 3.72 3.14c1.54 1 3.53 2.06 5.3 2.55 6.13 1.7 9.56 2.1 15.11-1.66 4.84-3.28 8.22-8.85 8.37-14.75z" fill="#a8c288"/><path d="m522.29 94.2c-1.68-1.44-3.78-2.26-5.84-3.06-.7-.27-1.4-.54-2.15-.62-.6-.05-1.22.02-1.83 0-.91-.06-1.81-.35-2.73-.32-.85.01-1.67.3-2.5.5-2.96.69-6.12.23-9.04 1.08a16.68 16.68 0 0 0 -4.59 2.33c-1.01.68-2 1.42-2.76 2.38a4.9 4.9 0 0 0 -1.14 3.4c.1 1.19.78 2.25 1.47 3.22a37.7 37.7 0 0 0 3.6 4.32c3.1 3.2 7.13 5.96 11.58 5.86 3.97-.09 7.49-2.4 11.03-4.18 1.42-.72 2.89-1.36 4.15-2.33a6.7 6.7 0 0 0 2.25-2.87c.45-1.22.2-2.53.56-3.78.66-2.4-.13-4.28-2.06-5.93z" fill="#f6f3ea"/><path d="m523.98 95.31a7.44 7.44 0 0 1 -4.66 5.26c-.33.12-.68.22-.93.46s-.36.67-.13.93c-2.15-.34-4.3.47-6.27 1.38s-3.95 1.96-6.11 2.15c-2.55.23-5.01-.75-7.47-1.44-1.79-.5-3.64-.88-5.27-1.77-1.63-.9-3.03-2.48-3.13-4.33-.81.62-1.02 1.76-1.06 2.79a13.87 13.87 0 0 0 10.23 13.76c2.4.66 4.93.66 7.42.55 2.51-.11 5.04-.33 7.45-1.05 2.36-.7 4.55-1.87 6.73-3.02.96-.51 1.94-1.04 2.69-1.83.83-.88 1.31-2.03 1.78-3.15 1.52-3.7 1.2-7.43-1.27-10.69z" fill="#f0e6c1"/><path d="m525.97 100.61c.17-.27 1.13 3.08.76 7.22-.37 4.13-.87 7.8-2.95 10.9s-7.48 8.16-13.24 8.28-10.15-.46-14.04-3.9c-3.9-3.44-6.93-6.43-7.47-10.81s-1.06-7.06 0-9.9c0 0 2.54 6.56 7.97 7.19 5.44.63 9.23-1.97 10.8-1.56 1.6.42 5.2 1.26 7.6-.33s2.3-3.39 3.23-2.97c.92.4 4.4.68 7.34-4.12z" fill="#c9e0ac"/><path d="m524.37 98.64c.3-1 .1-2.1-.4-3-1.13-2.1-3.5-3.15-5.7-4.06-1.38-.56-2.64-.8-4.1-1.06-1.9-.34-5.84-.2-7.75.06-3.39.46-4.86.87-8.15 1.78-1.93.53-3.89 1.16-5.43 2.43-.94.78-1.7 1.76-2.4 2.75-.32.43-.64.88-.76 1.4-.26 1.04.28 2.08.8 3.01.4.71.87 1.48 1.64 1.75" fill="none" stroke="#f3e8cd" stroke-miterlimit="10" stroke-width=".66"/><path d="m517.25 94.32a8.49 8.49 0 0 0 -3.37-.55c-5.1-.1-10.2.33-15.2 1.3-.65.12-1.3.26-1.9.57-1 .54-1.7 1.6-1.8 2.74-.03.3-.01.62.08.9.33 1.07 1.55 1.54 2.63 1.81a29.7 29.7 0 0 0 16.57-.67c2.39-.8 7.4-4.09 2.99-6.1z" fill="#d0c59e"/><path d="m501.2 101.8a221.29 221.29 0 0 0 -8.4-19.27c-.05-.09-.04-.28-.05-.38-.26-.06-.31-.4-.3-.66.01-.27-.02-.6-.27-.7-.09-.02-.2 0-.29-.04-.26-.08-.3-.44-.3-.72s-.06-.64-.33-.7c-.2-.05-.4.08-.6.04-.42-.1-.36-.91-.8-.95-.26-.03-.47.28-.73.23-.16-.04-.26-.2-.38-.31a.84.84 0 0 0 -1.04-.07c-.1.06-.17.14-.26.19-.25.11-.53-.03-.8-.08-.27-.04-.63.17-.52.41-.12.03-5.22 1.61-6.97 2.43-.17.08-.37.19-.42.38-.05.15.02.3.08.45l.67 1.52c1.56-.4 6.04-1.57 6.54-2.04.27.28.93.04 1.15-.29.05-.08.1-.18.2-.21.08-.03.18.02.25.06.2.12.4.23.64.26.22.03.48-.05.6-.25.1.13-.02.32-.01.49.01.18.18.31.36.34.18.04.36 0 .54-.06l-.36.61c.31.26.71.4 1.11.37a.5.5 0 0 0 -.12.4l8.22 18.15s2.82 1.03 2.59.4z" fill="#70c4a8"/><path d="m511.48 101.2c-.52.09-1.1.24-1.61.33.73-1.28 2.89-10.74 3.35-10.87.36-.1 1.27 1 1.12.71-.08-.14-2.71 9.81-2.86 9.83zm14.46-10.78c.28.32.5.7.63 1.1l-.65.52-.85-1.49.63-.41.35.69m-23.46-4.33-.79.55c-.06.05-.13.09-.2.07a.25.25 0 0 1 -.12-.09c-.2-.22-.35-.48-.46-.76l.96-.4c.08-.04.18-.08.27-.06.2.04.27.3.3.5m16.79 6.42.15 1.26c.14-.08.31.12.48.1.18-.04.22-.29.2-.48l-.09-1.1c-.23.06-.6-.14-.83-.07 0 .07.09.22.1.3zm-11.89-2.25-.17.33c-.11.21-.23.42-.43.55-.2.12-.5.1-.63-.1-.13-.22.03-.5.22-.68.18-.18.41-.36.44-.62.24.14.46.33.64.55m9.75-10.3.44-2.4a2.24 2.24 0 0 0 -1.56-.29l-.4 2.03c-.02.2-.04.43.12.54.09.05.2.05.3.05.34-.01.7-.04 1.04-.1" fill="#b2a264"/><path d="m517.43 80.22c3.04 3.38 5.94 6.9 8.7 10.51-1.07-.1-2.01.58-2.43 1.57a2.7 2.7 0 0 0 -3.69.7 2.47 2.47 0 0 0 -3.26.58 3.39 3.39 0 0 0 -3.37-.24 2.91 2.91 0 0 0 -3.6-1.45 3.38 3.38 0 0 0 -3.2-1.44 2.68 2.68 0 0 0 -2.9-2.04 3.65 3.65 0 0 0 -2.46-2.49c1.92-.64 12.4-5.52 13.94-6.36.47-.26.54.22 1.07.17.54-.06.84.09 1.2.49z" fill="#ea7894"/><path d="m519.73 91.97c-.6-3.8-1.42-7.89-2.4-11.61l6.15 10.96m-7.54 1.05-.03.39.77-12.5c-1.02 3.94-2.43 8.14-3.45 12.07l.22-.82m-7.61-3.56 1.95-1.74 7.54-6.7c-2.62 3.51-4.86 7.22-7.67 10.57m2.54.9 5.91-10.53" style="fill:none;stroke:#e9b2bd;stroke-width:.22;stroke-linecap:round;stroke-linejoin:round;stroke-miterlimit:10"/><path d="m525.58 103.85c-.78 4.04-1.57 8.13-3.28 11.88a12.1 12.1 0 0 1 -2.46-4.4 6.8 6.8 0 0 0 -2.74 3.55c-.3.89-.41 1.85-.9 2.65-.5.79-1.58 1.35-2.38.87-.53-.3-.78-.95-1.31-1.25-.7-.38-1.62.02-2.08.68a4.94 4.94 0 0 0 -.66 2.27l-3.8-2.4c-.31.82-.74 1.7-1.57 2.01-1.08.4-2.18-.4-3.28-.75-1.1-.34-2.76.4-2.31 1.46a22.97 22.97 0 0 1 -9.19-5.57c1.46 4.63 4.9 7.64 8.81 9.85 1.46.82 2.93 1.34 4.55 1.73 1.79.44 4.01.77 5.84.65 6.35-.41 9.73-1.17 13.72-6.55 3.49-4.69 4.85-11.06 3.04-16.68z" fill="#a8c288"/><path d="m45.85 127.55c-1.67-1.43-3.77-2.26-5.83-3.05-.7-.27-1.4-.55-2.15-.62-.6-.06-1.22.02-1.83-.01-.92-.05-1.82-.34-2.73-.32-.86.02-1.68.3-2.5.5-2.97.7-6.13.24-9.05 1.1a16.68 16.68 0 0 0 -4.58 2.32c-1.02.68-2.01 1.42-2.77 2.38a4.9 4.9 0 0 0 -1.14 3.4c.11 1.18.78 2.24 1.48 3.22a37.7 37.7 0 0 0 3.6 4.32c3.1 3.2 7.13 5.96 11.58 5.86 3.97-.09 7.48-2.4 11.03-4.18 1.42-.72 2.88-1.36 4.14-2.33a6.7 6.7 0 0 0 2.25-2.87c.46-1.22.21-2.53.56-3.78.67-2.4-.13-4.28-2.06-5.94z" fill="#f6f3ea"/><path d="m47.55 128.67a7.44 7.44 0 0 1 -4.66 5.26c-.33.11-.68.22-.93.46-.26.24-.37.67-.13.93-2.15-.34-4.3.46-6.28 1.38-1.97.9-3.94 1.96-6.1 2.15-2.55.23-5.02-.75-7.47-1.45-1.8-.5-3.65-.87-5.27-1.77s-3.04-2.47-3.13-4.32c-.82.62-1.03 1.76-1.06 2.79a13.87 13.87 0 0 0 10.22 13.76c2.4.66 4.93.66 7.42.55 2.52-.11 5.04-.33 7.46-1.05 2.36-.7 4.55-1.87 6.72-3.02.97-.51 1.95-1.04 2.7-1.83.83-.88 1.3-2.03 1.77-3.15 1.53-3.7 1.21-7.43-1.26-10.69z" fill="#f0e6c1"/><path d="m49.54 133.97c.17-.27 1.12 3.08.76 7.22-.37 4.13-.87 7.79-2.95 10.9-2.08 3.1-7.49 8.16-13.25 8.28s-10.15-.46-14.04-3.9-6.93-6.43-7.47-10.82c-.54-4.38-1.06-7.05 0-9.89 0 0 2.54 6.56 7.98 7.19s9.22-1.97 10.8-1.56c1.59.42 5.2 1.25 7.6-.33s2.3-3.39 3.22-2.98c.93.42 4.4.7 7.35-4.1z" fill="#c9e0ac"/><path d="m47.94 132c.3-1 .1-2.1-.4-3-1.13-2.1-3.5-3.15-5.71-4.06-1.37-.56-2.63-.8-4.1-1.07-1.89-.34-5.84-.19-7.75.07-3.38.46-4.85.87-8.15 1.78-1.92.53-3.88 1.16-5.42 2.43-.95.78-1.7 1.76-2.41 2.75-.32.43-.63.88-.76 1.4-.25 1.03.29 2.08.81 3.01.4.71.87 1.48 1.64 1.75" fill="none" stroke="#f3e8cd" stroke-miterlimit="10" stroke-width=".66"/><path d="m40.81 127.68a8.49 8.49 0 0 0 -3.37-.55c-5.09-.1-10.19.33-15.19 1.3-.65.12-1.31.26-1.9.57-1 .54-1.7 1.6-1.8 2.74-.03.3-.02.62.07.9.34 1.07 1.56 1.54 2.64 1.81a29.7 29.7 0 0 0 16.57-.67c2.39-.8 7.4-4.1 2.98-6.1z" fill="#d0c59e"/><path d="m24.76 135.16a221.29 221.29 0 0 0 -8.4-19.27c-.05-.09-.03-.28-.05-.38-.26-.06-.3-.4-.3-.66s-.01-.6-.26-.7c-.1-.02-.2-.01-.29-.04-.27-.08-.31-.44-.31-.72s-.06-.64-.33-.7c-.2-.05-.4.08-.59.04-.42-.1-.37-.91-.8-.95-.26-.03-.48.28-.73.23-.17-.04-.27-.2-.39-.31a.84.84 0 0 0 -1.04-.08c-.09.07-.16.15-.26.2-.25.11-.53-.03-.8-.08-.26-.04-.63.17-.52.41-.12.03-5.21 1.6-6.96 2.43-.18.08-.38.19-.43.38-.04.15.02.3.09.45l.67 1.52c1.56-.4 6.03-1.57 6.53-2.04.27.28.94.04 1.15-.29.06-.08.1-.19.2-.21.09-.03.18.02.26.06.2.12.4.23.63.26s.48-.05.6-.25c.1.13-.02.32 0 .49 0 .18.18.31.36.34.18.04.36-.01.53-.06l-.35.61c.3.26.7.4 1.1.37a.5.5 0 0 0 -.12.4l8.22 18.15s2.83 1.03 2.6.4z" fill="#70c4a8"/><path d="m35.05 134.56c-.52.09-1.1.24-1.61.33.72-1.28 2.88-10.74 3.35-10.87.36-.1 1.27 1 1.11.71-.07-.14-2.7 9.8-2.85 9.83zm14.45-10.78c.29.32.5.7.64 1.1l-.65.52-.85-1.5.63-.4.35.68m-23.46-4.32-.8.55c-.05.04-.13.09-.2.07a.25.25 0 0 1 -.11-.09c-.2-.22-.35-.48-.46-.76l.95-.4c.09-.04.18-.08.28-.06.2.04.27.3.3.5m16.78 6.43c.06.41.1.83.15 1.25.15-.08.32.12.48.1.19-.04.22-.29.2-.48l-.08-1.1c-.23.05-.61-.14-.84-.07 0 .07.1.22.1.3zm-11.88-2.26-.18.33c-.11.2-.23.42-.43.55s-.5.1-.62-.1c-.13-.22.03-.5.21-.68.19-.18.42-.36.44-.62.25.14.46.33.64.54m9.76-10.29.43-2.4a2.24 2.24 0 0 0 -1.55-.3c-.15.68-.28 1.36-.4 2.04-.03.2-.04.43.12.54.08.05.19.05.29.05.35-.01.7-.04 1.05-.1" fill="#b2a264"/><path d="m41 113.58c3.03 3.38 5.94 6.9 8.69 10.51-1.06-.1-2 .58-2.43 1.56a2.7 2.7 0 0 0 -3.69.72 2.47 2.47 0 0 0 -3.25.57 3.39 3.39 0 0 0 -3.37-.24 2.91 2.91 0 0 0 -3.6-1.45 3.38 3.38 0 0 0 -3.2-1.44 2.68 2.68 0 0 0 -2.9-2.04 3.65 3.65 0 0 0 -2.46-2.49c1.91-.64 12.4-5.52 13.94-6.36.47-.26.53.22 1.07.16.53-.05.83.1 1.2.5z" fill="#ea7894"/><path d="m43.3 125.33c-.6-3.8-1.43-7.89-2.41-11.61l6.16 10.96m-7.55 1.05a52294.46 52294.46 0 0 0 .74-12.1c-1.02 3.92-2.43 8.13-3.45 12.06l.22-.82m-7.61-3.57 1.96-1.73 7.53-6.7c-2.61 3.51-4.85 7.22-7.67 10.57m2.55.9 5.9-10.54" style="fill:none;stroke:#e9b2bd;stroke-width:.22;stroke-linecap:round;stroke-linejoin:round;stroke-miterlimit:10"/><path d="m49.15 137.2c-.78 4.05-1.57 8.14-3.28 11.89a12.1 12.1 0 0 1 -2.46-4.4 6.8 6.8 0 0 0 -2.75 3.55c-.3.89-.4 1.85-.9 2.64-.5.8-1.57 1.36-2.38.88-.52-.3-.78-.95-1.3-1.25-.7-.38-1.63.02-2.09.68s-.56 1.48-.66 2.27l-3.8-2.4c-.3.82-.74 1.7-1.56 2-1.08.4-2.19-.4-3.29-.74s-2.76.4-2.31 1.46a22.97 22.97 0 0 1 -9.19-5.57c1.47 4.63 4.9 7.63 8.82 9.85 1.46.82 2.92 1.34 4.55 1.73 1.79.44 4 .77 5.84.65 6.35-.41 9.72-1.17 13.72-6.55 3.48-4.69 4.84-11.06 3.04-16.68z" fill="#a8c288"/></svg>