<?xml version="1.0" encoding="iso-8859-1"?><svg xmlns="http://www.w3.org/2000/svg" viewBox="0 0 567 269"><path d="M517.68 163.04c.08.33.18.69.43.92.3.27.7.34 1.1.39 3.73.46 7.51.6 11.27.42.25 0 .52-.03.71-.2.22-.18.27-.5.3-.78l1.02-8.64c.03-.25.06-.5-.02-.74-.08-.22-.24-.4-.4-.56a10.08 10.08 0 0 0-6.62-2.94c-2.34-.11-6.21.73-7.4 3.05-1.3 2.51-1.02 6.45-.39 9.08z" fill="#bfe8da"/><path d="M534.17 167.13a8.97 8.97 0 0 0-4.08 2.28l4.37.26" fill="none" stroke="#3c3c3b" stroke-width=".32" stroke-linecap="round" stroke-linejoin="round" stroke-miterlimit="10"/><path d="M517.04 167.3c1.19.2 2.33.65 3.35 1.34.4.27.8.6.96 1.09-1.49-.04-2.98.09-4.44.38l.2-.03" fill="none" stroke="#3c3c3b" stroke-width=".34" stroke-linecap="round" stroke-linejoin="round" stroke-miterlimit="10"/><path d="M523.06 171.66c-.35.09-.55.5-.48.85s.36.63.7.77c.32.14.7.16 1.05.14.55-.03 1.21-.26 1.27-.8.4.75 1.46.92 2.27.63.34-.11.67-.3.84-.62s.12-.76-.18-.95" fill="none" stroke="#3c3c3b" stroke-width=".35" stroke-linecap="round" stroke-linejoin="round" stroke-miterlimit="10"/><ellipse cx="517.26" cy="171.84" rx="1.87" ry="1.2" fill="#edcac7"/><ellipse cx="533.92" cy="171.53" rx="1.87" ry="1.26" fill="#edcac7"/><path d="M515.76 155.32c-2.62 2.86-4.22 6.53-5.17 10.28-.57 2.27-.88 4.84.39 6.8.93 1.45 2.55 2.3 4.09 3.07a18.15 18.15 0 0 0 6.98 1.91c2.3.14 4.61.29 6.9-.02 2.48-.33 4.54-.75 6.88-1.66a13.51 13.51 0 0 0 3.66-2.22c1.9-1.68 2.05-4.39 1.52-6.87s-1.6-4.81-3.08-6.88a31.5 31.5 0 0 0-5.05-5.85c-2.4-2.05-5.57-3.7-8.8-3.2-3.2.5-6.14 2.27-8.32 4.64z" fill="none" stroke="#3c3c3b" stroke-width=".46" stroke-miterlimit="10"/><path d="M525.46 189.88c-.38.27-.03 2.32.03 2.73.15.97.4 1.92.7 2.85.65 1.99 1.5 3.9 1.96 5.95.13.6.24 1.22.56 1.73.28.44.7.78 1.14 1.06a14.27 14.27 0 0 0 6.64 2.06c2.7.24 5.47.02 8.06-.81 2.58-.84 4.98-2.31 6.75-4.37.28-.32.55-.66.7-1.06.21-.51.23-1.08.23-1.63.04-4.64-.51-9.29-1.62-13.8" fill="#bfe8da" stroke="#3c3c3b" stroke-width=".41" stroke-miterlimit="10"/><path d="M541.28 180.95c.83-.1 1.67-.18 2.5-.24 1.24-.08 2.5-.12 3.68.2s2.32 1.1 2.82 2.22c.66 1.48.09 3.3-1.03 4.49-1.11 1.18-2.67 1.85-4.21 2.37-2.7.9-5.49 1.44-8.28 1.93-1.2.2-2.42.4-3.64.42a17.5 17.5 0 0 1-6.14-1.29 2.84 2.84 0 0 1-1.27-.76c-.32-.38-.39-1.02-.02-1.35" fill="#fff" stroke="#3c3c3b" stroke-width=".46" stroke-miterlimit="10"/><path d="M525.38 190.75c-.46-1.98.55-4.09 2.08-5.43 1.53-1.35 3.5-2.07 5.45-2.65 2.74-.8 5.54-1.38 8.37-1.72" fill="none" stroke="#3c3c3b" stroke-width=".46" stroke-miterlimit="10"/><path d="M534.08 183.31a15.23 15.23 0 0 1 5.68-1.12c.86-.03 1.76 0 2.5.44.36.22.67.54 1.06.7.45.2 1.03.23 1.3.65.27.4.05.95-.17 1.4-.32.65-.7 1.35-1.37 1.63-.35.15-.74.16-1.12.2a9.9 9.9 0 0 0-2.48.54c-1.14.4-2.24 1.01-3.45 1.13a7.05 7.05 0 0 1-2.21-.21c-.83-.19-1.65-.44-2.45-.75-.82-.32-1.57-.52-1.05-1.48.77-1.41 2.32-2.5 3.76-3.13z" fill="#f37f82"/><path d="M537.1 185.48a9.02 9.02 0 0 1 4.96-.37c.28.06.57.14.76.34.26.28.28.73.11 1.08-.16.34-.48.59-.81.78-.53.3-1.12.45-1.7.6-.97.27-1.94.53-2.92.71-.56.11-2.39.63-2.86.23-.44-.36.2-1.41.42-1.78a3.68 3.68 0 0 1 2.04-1.59z" fill="#bfe8da"/><path d="M538.48 200.63c-.1.35.06.74.33.98.28.24.65.35 1.01.4a2.6 2.6 0 0 0 1.6-.26c.48-.27.85-.77.87-1.32 0-.16-.03-.35-.18-.42" fill="none" stroke="#3c3c3b" stroke-width=".3" stroke-linecap="round" stroke-linejoin="round" stroke-miterlimit="10"/><circle cx="533.62" cy="199.52" r="1.84" fill="#3c3c3b"/><circle cx="533.92" cy="198.95" r=".77" fill="#fff"/><circle cx="546.3" cy="197.47" r="1.84" fill="#3c3c3b"/><circle cx="546.6" cy="196.9" r=".77" fill="#fff"/><ellipse transform="rotate(-6.66 533.97 202.4)" cx="534.09" cy="202.44" rx="1.3" ry=".82" fill="#edcac7"/><ellipse transform="rotate(-19.04 547.58 200)" cx="547.59" cy="200.01" rx="1.3" ry=".82" fill="#edcac7"/><path d="M498.02 197.65c.2-.19.4-.36.66-.42.33-.08.67.06.98.19 4.61 1.91 9.4 3.38 14.3 4.36a29.15 29.15 0 0 1-1.51 3.31c-.17.31-.32.63-.59.85-.12.1-1.7-.35-2.66-.5-6.7-1.1-9.05-2.28-13.16-4.7.62.36.7-.93.8-1.22.25-.7.66-1.34 1.18-1.87z" fill="#bfe8da"/><path d="M491.4 193.8c.24-1.95 1.26-3.72 2.45-5.29a23.95 23.95 0 0 1 12.28-8.42c2.4-.7 5.33-1.27 7.26.31 5.74 4.73 7 13.54 7.25 14.85.17.93.34 2.4.36 3.33.03 2.03.27 2.98-.58 4.82a4.85 4.85 0 0 1-3.66 2.77c-1.71.36-3.49.06-5.22-.21-3.36-.53-6.74-1.07-9.95-2.2-2.89-1-5.09-2.6-7.53-4.37-1.9-1.37-2.95-3.12-2.65-5.6z" fill="none" stroke="#3c3c3b" stroke-width=".46" stroke-miterlimit="10"/><circle cx="500.93" cy="190.43" r="1.51" fill="#1d1d1b"/><circle cx="513.85" cy="194.62" r="1.51" fill="#1d1d1b"/><circle cx="501.3" cy="190.1" r=".71" fill="#fff"/><circle cx="514.19" cy="194.29" r=".71" fill="#fff"/><ellipse transform="rotate(-72.01 499.23 192.84)" cx="499.24" cy="192.84" rx="1.17" ry="1.81" fill="#edcac7"/><ellipse transform="rotate(-72.01 514.7 197.54)" cx="514.7" cy="197.54" rx="1.23" ry="1.81" fill="#edcac7"/><path d="M504.82 193.63c-.03.52.3 1.04.78 1.24.47.2 1.02.03 1.37-.35 0 .25.05.53.23.71.25.25.56.44.91.46.35 0 .73-.24.92-.53" fill="none" stroke="#3c3c3b" stroke-width=".34" stroke-linecap="round" stroke-linejoin="round" stroke-miterlimit="10"/><path d="M40.13 163.6c.47-.48.89-1.02 1.07-1.66.32-1.11-.17-2.31-.98-3.1a7.66 7.66 0 0 0-2.96-1.59c.7-1.37.83-3 .34-4.43a4.35 4.35 0 0 0-2.97-2.79c-.69-.21-2.01-.2-3 .18-.09-.93.05-1.74-.7-2.93a3.92 3.92 0 0 0-2.78-1.68c-1.63-.27-3.09.53-4.26 1.82-1.27 1.41-1.88 3.8-2.08 5.48a7.76 7.76 0 0 0 1.15 5.68c.95 1.69 2.48 2.9 3.97 4.08.78.62 1.57 1.23 2.3 1.92.57.53 1.06 1.4 1.78 1.73 2.78 1.27 7.13-.65 9.12-2.71z" fill="#ddaecd"/><path d="M25.53 147.03c.07-.33.16-.68.37-.96.47-.59 1.36-.59 2.11-.53.32.02.64.08.96.1.1.01.18.06.24.13.08.09.07.15.04.27a47.43 47.43 0 0 0-1.5 7.96c-.82-.12-1.64-.3-2.44-.54-.87-.26-.37-2.27-.31-2.96.11-1.16.29-2.32.53-3.47zM33.05 149.78c.88.06 1.53.33 2.4.48.13.03.4.13.44.26.02.06.13-.09.11-.03a31.82 31.82 0 0 1-1.29 4.58c-.64 1.77-1.46 3.54-1.49 5.43a5.3 5.3 0 0 0-1.16-2.51c-.34-.5-.85-1-.87-1.62-.03-.64.2-1.4.33-2.01.16-.79.37-1.57.63-2.33.08-.24.71-2.26.9-2.25zM37.52 157.74c.05-.08.1-.16.18-.19a.39.39 0 0 1 .2 0c1.03.15 1.99.74 2.6 1.6.09.12.17.26.18.42 0 .11-.04.22-.09.32l-1.57 3.98c-.06.15-.11.3-.21.41-.09.1-.2.18-.32.26l-1.46.98c-.59.4-1.21.8-1.9.97-.27.07-.8.2-1.05.05-.35-.19-.14-.22 0-.57.7-1.78 1.13-3.62 1.94-5.37.46-.98.96-1.93 1.5-2.86z" fill="#ebcee1"/><path d="M35.29 158.6a5.9 5.9 0 0 0-.3-4.89c-.87-1.45-2.7-2.35-4.3-1.83-.35-1.6-1.49-3-2.98-3.68a5.35 5.35 0 0 0-4.72.18 6.63 6.63 0 0 1 3.15-2.58c.92-.36 1.58-.6 2.47-.2a5.22 5.22 0 0 1 3.2 4.74c1.68-.95 4-.37 5.16 1.16a5.04 5.04 0 0 1 .28 5.53c.17 1.09 1.95.74 2.83 1.48a3.65 3.65 0 0 1 1.21 3.07c-.09.94-.84 2.37-1.9 2.42-.26-2.48-1.4-4.85-4.1-5.4z" fill="#ebcee1"/><path d="M40.13 163.6c.47-.48.89-1.02 1.07-1.66.32-1.11-.17-2.31-.98-3.1a7.66 7.66 0 0 0-2.96-1.59c.7-1.37.83-3 .34-4.43a4.35 4.35 0 0 0-2.97-2.79c-.69-.21-2.01-.2-3 .18-.09-.93.05-1.74-.7-2.93a3.92 3.92 0 0 0-2.78-1.68c-1.63-.27-3.09.53-4.26 1.82-1.27 1.41-1.88 3.8-2.08 5.48a7.76 7.76 0 0 0 1.15 5.68c.95 1.69 2.48 2.9 3.97 4.08.78.62 1.57 1.23 2.3 1.92.57.53 1.06 1.4 1.78 1.73 2.78 1.27 7.13-.65 9.12-2.71z" fill="none" stroke="#3c3c3b" stroke-width=".55" stroke-miterlimit="10"/><path d="M9.13 165.81a5.66 5.66 0 0 0-3.1 2.66c-.6 1.26-.5 2.88.43 3.91.83.92 2.13 1.22 3.35 1.44-.29 1.81.23 3.8 1.62 5 1.38 1.2 3.66 1.38 5.02.16a6.05 6.05 0 0 0 2.9 3.41c1.4.64 3.26.38 4.15-.87a5 5 0 0 0 .65-1.46 30.6 30.6 0 0 0 1.33-7.48c-2.85-.97-5.1-3.13-7.6-4.8-1.37-.92-3-1.92-4.57-2.45-1.3-.45-2.9-.02-4.19.48z" fill="#ddaecd"/><path d="M11.65 176.53c-.47-3.74-.83-7.57 0-11.25-.81.2-1.64.37-2.46.52-.77 2.1-.85 4.37-.92 6.6-.01.24-.02.5.09.71.23.51.89.61 1.45.65-.01 1 .05 2.02.38 2.96.18.52.74 1.83 1.41 1.88.48.04.33-.32.27-.65-.1-.47-.16-.95-.22-1.42zM15.66 179.35a35.99 35.99 0 0 1-1.13-9.29 16.4 16.4 0 0 0 3.48 3.26c.06.04.13.09.17.16.05.07.06.16.06.24l.2 2.16c.18 2.11.39 4.3 1.36 6.18l-.34-.05.23.2c-.09-.03-.05-.05-.03.04.03.08.1.14.17.2s.14.14.12.22a5.83 5.83 0 0 1-3.68-3.7c-.16.22-.34.37-.61.38zM24.23 179.85a18.2 18.2 0 0 1-1.11-5.12c.7.13 1.32-.05 1.98-.32.16.42.01.88-.1 1.3-.32 1.39-.28 2.76-.69 4.12.04-.15-.02.16-.07.02z" fill="#ebcee1"/><path d="M8.21 171.52a5.15 5.15 0 0 0 3.98 1.27c-.13.83-.27 1.67-.16 2.5s.51 1.66 1.23 2.09c1.35.81 3.06-.08 4.38-.96.8 2.86 2.78 4.9 5.73 5.28-1.37 1.67-4.09 1.23-5.01.2-.75-.82-.97-2.02-1.74-2.81-.14-.14-.12.05-.3 0-.5-.1-.96.45-1.24.6-1.01.56-3.46-.07-4.37-1.5-.92-1.45-1.1-2.98-1.07-4.69-1.99.16-3.8-1.11-4.05-3.09-.1-.73.33-2.75.93-2.1.31.33.3 1.19.52 1.63.28.6.68 1.14 1.17 1.58z" fill="#ebcee1"/><path d="M9.13 165.81a5.66 5.66 0 0 0-3.1 2.66c-.6 1.26-.5 2.88.43 3.91.83.92 2.13 1.22 3.35 1.44-.29 1.81.23 3.8 1.62 5 1.38 1.2 3.66 1.38 5.02.16a6.05 6.05 0 0 0 2.9 3.41c1.4.64 3.26.38 4.15-.87a5 5 0 0 0 .65-1.46 30.6 30.6 0 0 0 1.33-7.48c-2.85-.97-5.1-3.13-7.6-4.8-1.37-.92-3-1.92-4.57-2.45-1.3-.45-2.9-.02-4.19.48z" fill="none" stroke="#3c3c3b" stroke-width=".55" stroke-miterlimit="10"/><circle cx="23.52" cy="163.92" r="10.72" fill="#ddaecd"/><path d="M18.86 154.3c-.05-.03.05-.1.06-.04l.08 1.08a47.47 47.47 0 0 0 6.05 19.24c-1.42.01-2.94-.05-4.3-.47a2.4 2.4 0 0 1-.98-.5c-.23-.22-.37-.51-.5-.8a37.14 37.14 0 0 1-3.34-14.28 4.69 4.69 0 0 1 .43-2.53c.53-.91 1.52-1.28 2.5-1.7zM22.93 153.13c0-.04 0-.1.04-.12.03-.02.07-.03.1-.03 1.04 0 2.09.15 3.09.44.15.05.33.11.4.26.06.12.03.27 0 .4-.35 1.68-.12 3.42.12 5.12.63 4.5 1.44 9.15 3.97 12.92.04.05-2 1.26-2.23 1.34-.83.32-.97-.37-1.29-1.04a43.75 43.75 0 0 1-3.93-13.87c-.2-1.8-.29-3.61-.27-5.42zM31.06 156.63c.69.16 1.06.87 1.35 1.5.35.78.69 1.56 1.01 2.33.33.77.64 1.55.78 2.37.3 1.84-.29 3.7-.87 5.46-.04.13-.1.22-.21.28-.6-.63-.9-2-1.17-2.83a22 22 0 0 1-1.02-6.04c0-.26.1-3.08.13-3.07zM12.9 161.47c-.07 1.6-.08 3.21.22 4.79.16.88.42 2.3 1.06 2.98.14.15.55.46.7.22.12-.17-.39-1.25-.45-1.46-.32-1.08-.6-2.17-.84-3.27-.22-.97-.73-2.27-.68-3.26z" fill="#ebcee1"/><path d="M23.43 167.43c.5.27 1.09.28 1.46.03.37-.26.6-.79.45-1.3l-.22-.67s.44.02.78-.01c.54-.05 1.06-.26 1.26-.68.2-.43.08-1.04-.3-1.5" fill="none" stroke="#1d1d1b" stroke-width=".55" stroke-linecap="round" stroke-linejoin="round" stroke-miterlimit="10"/><circle cx="19.25" cy="169.49" r="1.56" fill="#1d1d1b"/><circle cx="19.1" cy="169.01" r=".74" fill="#fff"/><circle cx="28.56" cy="159.04" r="1.56" fill="#1d1d1b"/><circle cx="28.39" cy="158.59" r=".74" fill="#fff"/><circle cx="23.52" cy="163.92" r="10.72" fill="none" stroke="#3c3c3b" stroke-width=".55" stroke-miterlimit="10"/><path d="M262.9 251.18a4.42 4.42 0 0 0 1.9-.8c.93-.76 1.22-2.06.99-3.18a7.64 7.64 0 0 0-1.6-3.03 5.96 5.96 0 0 0 2.9-3.56 4.33 4.33 0 0 0-.9-4.05 5.41 5.41 0 0 0-2.68-1.56c.48-.83 1.09-1.44 1.14-2.87a3.9 3.9 0 0 0-1.39-3c-1.24-1.17-2.96-1.31-4.73-.88-1.93.47-3.88 2.15-5.04 3.45a7.93 7.93 0 0 0-2.38 5.46c-.18 1.97.41 3.87 1 5.71.3.97.62 1.94.84 2.94.17.77.09 1.78.5 2.47 1.63 2.66 6.51 3.51 9.44 2.9z" fill="#f7f0c6"/><path d="M260.16 228.85c.27-.24.54-.5.9-.6.75-.24 1.5.27 2.12.74.26.2.5.44.76.64.08.06.12.15.13.24.02.12-.02.17-.12.25a49.71 49.71 0 0 0-6 5.9 18.08 18.08 0 0 1-1.78-1.85c-.6-.72 1.02-2.14 1.48-2.69.79-.92 1.63-1.8 2.51-2.63zM265 235.46c.72.55 1.11 1.14 1.77 1.76.1.1.27.34.23.48-.02.06.16-.01.11.03a33.61 33.61 0 0 1-3.81 3.14c-1.61 1.14-3.36 2.17-4.5 3.75.48-.83.5-1.83.49-2.78 0-.6-.14-1.33.2-1.87.36-.55 1-1.06 1.48-1.51.6-.58 1.25-1.12 1.92-1.62.2-.15 1.95-1.5 2.1-1.38zM264.12 244.73c.08-.03.17-.07.26-.05.07 0 .12.06.17.1.8.72 1.28 1.77 1.3 2.83a.8.8 0 0 1-.1.47.92.92 0 0 1-.27.22l-3.7 2.48c-.14.09-.28.18-.43.22-.14.04-.28.04-.42.04h-1.85c-.73 0-1.5-.01-2.2-.26-.27-.09-.8-.28-.94-.55-.18-.36.02-.27.35-.49 1.65-1.1 3.12-2.42 4.85-3.44a35 35 0 0 1 2.98-1.57z" fill="#faee81"/><path d="M261.7 244.2a6.1 6.1 0 0 0 2.63-4.32c.12-1.71-.93-3.52-2.61-4a5.33 5.33 0 0 0-.37-4.8 5.51 5.51 0 0 0-4.17-2.53 7.1 7.1 0 0 1 4.24-.4c1 .22 1.7.4 2.23 1.24a5.23 5.23 0 0 1-.05 5.83c2 .16 3.65 1.96 3.75 3.92s-1.19 4.05-3.04 4.84c-.5 1.01 1.24 1.73 1.56 2.86a3.69 3.69 0 0 1-.79 3.29c-.63.74-2.13 1.53-3.06.97 1.24-2.25 1.67-4.9-.32-6.9z" fill="#faee81"/><path d="M262.9 251.18a4.42 4.42 0 0 0 1.9-.8c.93-.76 1.22-2.06.99-3.18a7.64 7.64 0 0 0-1.6-3.03 5.96 5.96 0 0 0 2.9-3.56 4.33 4.33 0 0 0-.9-4.05 5.41 5.41 0 0 0-2.68-1.56c.48-.83 1.09-1.44 1.14-2.87a3.9 3.9 0 0 0-1.39-3c-1.24-1.17-2.96-1.31-4.73-.88-1.93.47-3.88 2.15-5.04 3.45a7.93 7.93 0 0 0-2.38 5.46c-.18 1.97.41 3.87 1 5.71.3.97.62 1.94.84 2.94.17.77.09 1.78.5 2.47 1.63 2.66 6.51 3.51 9.44 2.9z" fill="none" stroke="#3c3c3b" stroke-width=".57" stroke-miterlimit="10"/><path d="M234.94 235.42a6.05 6.05 0 0 0-4.22.5c-1.26.71-2.15 2.14-1.96 3.54.18 1.25 1.12 2.25 2.03 3.13-1.32 1.36-2.05 3.35-1.58 5.16.48 1.8 2.33 3.24 4.23 2.98-.37 1.53-.35 3.21.47 4.54s2.58 2.17 4.08 1.63c.52-.2.98-.53 1.42-.87a32.14 32.14 0 0 0 5.58-5.58c-1.87-2.44-2.52-5.55-3.68-8.38a20.9 20.9 0 0 0-2.48-4.68c-.86-1.12-2.49-1.67-3.89-1.97z" fill="#f7f0c6"/><path d="M230.77 245.93c1.8-3.44 3.77-6.89 6.66-9.53-.82-.3-1.63-.61-2.43-.96-1.9 1.34-3.31 3.22-4.7 5.06-.15.2-.3.42-.34.66-.1.56.4 1.02.86 1.37a8.9 8.9 0 0 0-1.43 2.72c-.15.55-.44 1.98.1 2.4.4.3.48-.08.62-.4.2-.45.43-.89.66-1.32zM232.53 250.6c1.13-3.01 2.66-5.88 4.54-8.51a16.3 16.3 0 0 0 1.06 4.74c.03.07.06.15.05.23 0 .09-.05.17-.09.24l-1.11 1.93c-1.1 1.9-2.2 3.86-2.5 6.02l-.25-.24.07.3c-.05-.08 0-.07-.04.02-.03.08 0 .18.03.26.02.1.03.2-.03.26a5.8 5.8 0 0 1-.98-5.22c-.26.08-.5.1-.75-.03zM239.6 255.9a18.58 18.58 0 0 1 2.08-4.98c.53.5 1.17.72 1.9.87-.11.44-.51.74-.86 1.05-1.1.98-1.88 2.16-3.03 3.08.12-.1-.12.13-.08-.03z" fill="#faee81"/><path d="M230.78 239.73a5.19 5.19 0 0 0 2.67 3.34 8.8 8.8 0 0 0-1.62 2.02c-.4.77-.55 1.7-.19 2.47.69 1.46 2.68 1.68 4.34 1.68-1 2.88-.52 5.72 1.79 7.73-2.17.64-4.24-1.29-4.43-2.68-.15-1.12.37-2.26.17-3.37-.03-.2-.13-.02-.26-.16-.36-.38-1.08-.17-1.42-.2-1.2-.1-2.93-2.03-2.86-3.77.07-1.74.83-3.14 1.86-4.57-1.8-1-2.6-3.1-1.65-4.92.35-.67 1.92-2.15 2.05-1.25.07.46-.44 1.18-.52 1.67-.11.67-.1 1.36.07 2.01z" fill="#faee81"/><path d="M234.94 235.42a6.05 6.05 0 0 0-4.22.5c-1.26.71-2.15 2.14-1.96 3.54.18 1.25 1.12 2.25 2.03 3.13-1.32 1.36-2.05 3.35-1.58 5.16.48 1.8 2.33 3.24 4.23 2.98-.37 1.53-.35 3.21.47 4.54s2.58 2.17 4.08 1.63c.52-.2.98-.53 1.42-.87a32.14 32.14 0 0 0 5.58-5.58c-1.87-2.44-2.52-5.55-3.68-8.38a20.9 20.9 0 0 0-2.48-4.68c-.86-1.12-2.49-1.67-3.89-1.97z" fill="none" stroke="#3c3c3b" stroke-width=".57" stroke-miterlimit="10"/><ellipse transform="rotate(-14.07 248.44 242.02)" cx="248.43" cy="242" rx="11.21" ry="10.92" fill="#f7f0c6"/><path d="M250.12 231.2c-.02-.04.1-.04.08 0l-.57.97a48.12 48.12 0 0 0-6.2 19.73c-1.22-.8-2.5-1.72-3.4-2.85a2.4 2.4 0 0 1-.56-.98c-.06-.31 0-.64.05-.95a37.81 37.81 0 0 1 5.59-14 4.92 4.92 0 0 1 1.86-1.9c1-.47 2.07-.22 3.15-.01zM254.32 232.53c.03-.03.06-.07.1-.08a11.24 11.24 0 0 1 2.5 2.17c.1.12.21.27.19.44-.02.14-.13.24-.24.34-1.3 1.22-2.13 2.83-2.93 4.4-2.12 4.17-4.18 8.56-4.24 13.2 0 .06-2.47-.08-2.71-.13-.9-.2-.62-.87-.49-1.62a45.18 45.18 0 0 1 7.82-18.71zM259.23 240.12c.49.52.4 1.34.27 2.04l-.51 2.55c-.18.83-.37 1.67-.74 2.44-.83 1.74-2.43 2.97-3.98 4.13-.11.08-.22.13-.35.12-.15-.88.41-2.21.68-3.06a22.5 22.5 0 0 1 2.7-5.7c.15-.22 1.91-2.54 1.93-2.52zM240.76 233.9a20.96 20.96 0 0 0-2.65 4.16c-.38.85-1 2.2-.85 3.14.03.2.2.7.47.58.2-.08.4-1.28.47-1.5.37-1.1.78-2.17 1.22-3.24.39-.95.72-2.34 1.34-3.15z" fill="#faee81"/><g><path d="M246.27 244.93c.27.51.77.85 1.24.84.47 0 .99-.31 1.15-.84.08-.24.21-.72.22-.68 0 0 .36.26.67.43.5.26 1.07.38 1.5.13.41-.24.67-.83.6-1.43" fill="none" stroke="#1d1d1b" stroke-width=".57" stroke-linecap="round" stroke-linejoin="round" stroke-miterlimit="10"/><ellipse transform="rotate(-14.07 241.48 244.3)" cx="241.46" cy="244.29" rx="1.63" ry="1.59" fill="#1d1d1b"/><ellipse transform="rotate(-14.07 241.63 243.81)" cx="241.62" cy="243.8" rx=".77" ry=".75" fill="#fff"/><ellipse transform="rotate(-14.07 255.66 240.75)" cx="255.65" cy="240.74" rx="1.63" ry="1.59" fill="#1d1d1b"/><ellipse transform="rotate(-14.07 255.78 240.27)" cx="255.77" cy="240.26" rx=".77" ry=".75" fill="#fff"/></g><ellipse transform="rotate(-14.07 248.44 242.02)" cx="248.43" cy="242" rx="11.21" ry="10.92" fill="none" stroke="#3c3c3b" stroke-width=".57" stroke-miterlimit="10"/><g><g stroke="#1d1d1b" stroke-width=".28" stroke-linecap="round" stroke-linejoin="round" stroke-miterlimit="10"><path d="M144.69 203.57c-.12.5-.23 1.03-.12 1.53.22 1 1.26 1.58 2.24 1.86.45.12.93.2 1.38.08.57-.17.99-.67 1.31-1.17 2.24-3.44 2.1-7.9 3.68-11.67-.07.16-3.67-.63-4.05-.7-.42-.07-1.48-.46-1.84-.17-.24.2-.33 1.34-.41 1.64-.77 2.85-1.52 5.72-2.2 8.6z" fill="#eeceb8"/><path d="M139.45 188.54c-.13.6-.25 1.23-.01 1.8.19.45.6.79 1.01 1.07 2.03 1.37 4.47 1.94 6.87 2.42 3.51.71 7.06 1.27 10.62 1.68 1.26.15 2.72.2 3.55-.76a4 4 0 0 0 .74-1.94l2.08-10.98c.7-3.67 1.4-7.37 1.41-11.1 0-.91-.04-1.85-.41-2.68a5.3 5.3 0 0 0-1.83-2.05c-2.57-1.84-5.87-2.36-9.04-2.3-1.94.02-3.9.25-5.7.93-1.62.6-4.07 1.9-4.69 3.64-.22.64-.05 1.35-.16 2.02-.19 1.2-.65 2.42-.96 3.6a314.12 314.12 0 0 0-3.48 14.66z" fill="#c5bcdc"/><path d="M144.54 165.27c.5-.9 1.03-1.78 1.6-2.64.69-1.08 1.44-2.14 2.47-2.92a11.8 11.8 0 0 1 3.05-1.5c1.63-.62 3.35-1.2 5.09-1.05 1.15.1 2.26.5 3.33.93 2.54 1.02 5.15 2.27 6.72 4.5 1.16 1.65 1.64 3.72 1.54 5.73s-.73 3.98-1.64 5.77c-.1.21-.22.42-.4.57-.55.47-1.47.1-1.8-.55-.32-.64-.2-1.42-.01-2.11.14-.53.33-1.12.08-1.62-.4-.8-1.64-.72-2.28-.11-.65.6-.88 1.51-1.2 2.34-.3.78-.7 1.53-1.2 2.21-.48.7-1.35 1.38-2.1.98-.35-.19-.54-.57-.67-.94-.45-1.39-.13-2.9.34-4.28.34-1.01.74-2.21.11-3.07-.43-.6-1.27-.81-2-.65a3.7 3.7 0 0 0-1.84 1.18c-.55.59-1.1 1.34-1.9 1.33-1.1-.02-1.6-1.38-2.49-2.03a2.22 2.22 0 0 0-3.03.53c-.56.83-1.02 4.75-2.62 2.7-1.2-1.55.06-3.89.85-5.3z" fill="#c2498e"/></g><path d="M162.38 182.79c-.63-.21-1.29-.34-1.95-.3s-1.3.3-1.78.76a3.2 3.2 0 0 1 2.89 1.48M144.78 178.53c.93.29 1.62 1.06 2.23 1.83.2.26.4.53.47.85-.4-.32-.91-.48-1.42-.54a8.06 8.06 0 0 0-1.54.03" fill="none" stroke="#3c3c3b" stroke-width=".28" stroke-linecap="round" stroke-linejoin="round" stroke-miterlimit="10"/><path d="M154.18 183.7c-.22.8-.56 1.57-1.02 2.27-.17.24-.35.49-.6.66-.24.17-.55.27-.84.19-.47-.12-.72-.64-.84-1.1a5.31 5.31 0 0 1 .11-3.02 20.23 20.23 0 0 0 3.24.8c0 .07 0 .17-.05.2z" fill="#edcac7" stroke="#3c3c3b" stroke-width=".18" stroke-linecap="round" stroke-linejoin="round" stroke-miterlimit="10"/><path d="M153.93 184.33c.18-.25.24-.54.32-.83-.47.06-.9-.13-1.37-.26-.2-.06-.42-.04-.62-.12-.41-.16-.85-.26-1.26-.42.21.08-1.04 2.27.32 1.7.39-.16.82-.21 1.25-.23.44-.02.94.05 1.36.16z" fill="#3c3c3b"/><path d="M150.26 161.42c.69-.19 1.35-.42 2-.7.47-.2.06-.88-.4-.68-.6.24-1.2.45-1.8.62-.5.13-.3.9.2.76zM153.46 163.8l.14-.02-.31-.04c.28.13.5.46.7.68l.67.72c.35.38.91-.19.56-.56-.35-.39-.7-.78-1.06-1.15-.29-.3-.49-.46-.91-.4-.5.07-.29.84.21.77zM157.59 162.4c.7-.04 1.4-.11 2.08-.2.51-.08.3-.85-.2-.78-.63.1-1.25.15-1.88.18-.51.02-.51.82 0 .8zM161.81 164.78c.62.28 1.24.58 1.85.88.15.07.36.07.48-.06a.77.77 0 0 0 .22-.4c.12-.5-.65-.7-.77-.21l-.01.04.48-.06c-.61-.3-1.23-.6-1.85-.88-.46-.21-.87.47-.4.69zM162.79 161.36c.63.06 1.23.2 1.82.43.48.2.68-.58.21-.76a7.32 7.32 0 0 0-2.03-.47c-.51-.04-.51.75 0 .8zM157.45 157.7l1.04 1.15c.35.38.9-.18.56-.56l-1.03-1.15c-.35-.38-.9.18-.57.56z" fill="#f7e486"/><g><path d="M147.86 164.43l1.15.78c.42.28.82-.4.4-.7l-1.15-.77c-.42-.29-.82.4-.4.69z" fill="#ddaecd"/></g><g><path d="M154.83 160.28l.43.81c.24.46.92.05.68-.4l-.42-.8c-.24-.46-.93-.06-.69.4z" fill="#ddaecd"/></g><g><path d="M158.5 165.36c.33-.19.68-.34 1.04-.46.49-.15.28-.92-.2-.76a7 7 0 0 0-1.24.53c-.45.25-.05.94.4.69z" fill="#ddaecd"/></g><g><path d="M165.28 163.62l.39.7c.24.44.93.04.68-.41l-.38-.7c-.25-.44-.94-.04-.69.4z" fill="#ddaecd"/></g><g><path d="M165.01 167.85c.3-.04.58-.12.86-.23.47-.19.26-.96-.21-.77-.28.11-.56.19-.86.23-.5.08-.29.85.21.77z" fill="#ddaecd"/></g><g><path d="M160.4 159.22l.24.58c.19.46.96.26.77-.22l-.24-.57c-.2-.47-.96-.26-.77.21z" fill="#ddaecd"/></g></g><g><path d="M461.4 47.08c-2.27-.26-4.6-.5-6.91-.55l-.08.01a76.36 76.36 0 0 0-6.18 3.17c-1.39.78-1.17 1.02-.55 2.43a312.62 312.62 0 0 0 9.07 18.84c.31.6.64 1.22 1.15 1.67.5.45 1.22.71 1.85.5.67-.05 1.23-.57 1.52-1.17.3-.61.36-1.31.43-1.99a302.73 302.73 0 0 0 1.15-20.87c.03-1.54.14-1.85-1.44-2.04z" fill="#faee81"/><path d="M449.9 57.34l11.36-7.71M451.83 61.18a450.6 450.6 0 0 0 10.81-7.48M453.64 64.72c3-1.82 5.96-3.73 8.86-5.73M455.5 68.45c2.25-1.36 4.46-2.8 6.62-4.3M457.53 72.3a59.96 59.96 0 0 0 4.18-2.66" fill="none" stroke="#f7f0c6" stroke-width=".37" stroke-linecap="round" stroke-linejoin="round" stroke-miterlimit="10"/><path d="M448.26 53.15c.97-.7 1.97-1.34 3-1.93" fill="none" stroke="#f7e486" stroke-width=".37" stroke-linecap="round" stroke-linejoin="round" stroke-miterlimit="10"/><path d="M455.47 68.33c1.95 1 3.87 2.06 5.75 3.18M453.1 63.44c2.71 1.53 5.77 2.38 8.44 3.99M450.44 57.99c4.03.9 7.95 2.31 11.64 4.16l-.36-.12M448.33 53.13c4.69 1.8 9.6 2.96 14.26 4.8l-.49-.33M456.38 51.5c.32.02.63.1.94.18 1.77.48 3.53 1.04 5.26 1.66" fill="none" stroke="#f7f0c6" stroke-width=".37" stroke-linecap="round" stroke-linejoin="round" stroke-miterlimit="10"/><path d="M462.16 48.97c.29.08.57.18.84.3" fill="none" stroke="#f7e486" stroke-width=".37" stroke-linecap="round" stroke-linejoin="round" stroke-miterlimit="10"/><path d="M461.4 47.08c-2.27-.26-4.6-.5-6.91-.55l-.08.01a76.36 76.36 0 0 0-6.18 3.17c-1.39.78-1.17 1.02-.55 2.43a312.62 312.62 0 0 0 9.07 18.84c.31.6.64 1.22 1.15 1.67.5.45 1.22.71 1.85.5.67-.05 1.23-.57 1.52-1.17.3-.61.36-1.31.43-1.99a302.73 302.73 0 0 0 1.15-20.87c.03-1.54.14-1.85-1.44-2.04z" fill="none" stroke="#1d1d1b" stroke-width=".41" stroke-linecap="round" stroke-linejoin="round" stroke-miterlimit="10"/><path d="M464.41 43.26c-.14-.12-.3-.23-.46-.32.08-.64.25-1.31.2-1.95a11.77 11.77 0 0 0-8.39-10.3 11.27 11.27 0 0 0-12.26 4.88c-2.43 4.05-1.8 9.82 1.63 13.07.09.1-.06.14-.27.4-.78.94-.57 2.77.42 3.57 1 .8 2.22.78 3.3.08a6.35 6.35 0 0 0 2.25-3.02c-.24 1.85 1.83 3.46 3.65 3.08 1.82-.37 3.07-2.28 3.09-4.14a2.5 2.5 0 0 0 3.2 1.8c.98-.37 1.57-1.47 1.5-2.5 1.13.38 2.42.28 3.07-.81.23-.4.31-.85.3-1.3a3.42 3.42 0 0 0-1.23-2.54z" fill="#bfe8da" stroke="#3c3c3b" stroke-width=".41" stroke-linecap="round" stroke-linejoin="round" stroke-miterlimit="10"/><path d="M446.32 43.67c.18-.85.9-1.54 1.75-1.68s1.76.3 2.2 1.05M456.36 42.04c.22-.84.96-1.52 1.81-1.67s1.78.22 2.28.93M452.14 43.5c-.08.14-.03.33.08.45.1.11.27.17.43.2.2.03.43.02.62-.07.2-.08.35-.26.39-.47.03.2.28.3.49.29.26 0 .54-.1.71-.29s.24-.5.1-.73" fill="none" stroke="#3c3c3b" stroke-width=".34" stroke-linecap="round" stroke-linejoin="round" stroke-miterlimit="10"/><ellipse transform="rotate(-11.28 446.2 45.33)" cx="446.29" cy="45.37" rx="1.19" ry=".75" fill="#edcac7"/><ellipse transform="rotate(-11.28 460.54 42.16)" cx="460.63" cy="42.19" rx="1.19" ry=".75" fill="#edcac7"/><g><path d="M443.9 37.52l1.04-1.14c.33-.36-.2-.9-.54-.54l-1.04 1.13c-.33.37.21.9.54.55zM449.74 34.59c.46.31.93.58 1.44.8.44.2.83-.45.38-.66-.5-.22-.98-.49-1.43-.8-.4-.28-.79.38-.39.66zM453.61 32.87l.77-.35c.44-.2.05-.87-.39-.66l-.77.35c-.44.2-.05.87.4.66zM457 36l.87-.26c.47-.14.27-.88-.2-.74l-.87.27c-.47.14-.27.88.2.74zM448.02 38.92l1.39.26c.48.09.69-.65.2-.74l-1.38-.25c-.49-.1-.7.64-.2.73z" fill="#c2498e"/><path d="M446.09 33.74a4 4 0 0 0 1.58.46c.49.04.49-.73 0-.77a3 3 0 0 1-1.2-.35c-.43-.23-.82.43-.38.66z" fill="#f7e486"/><g><path d="M449.98 32c.57-.4 1.14-.8 1.71-1.18.4-.28.02-.95-.39-.67l-1.7 1.18c-.4.28-.03.94.38.66z" fill="#f7e486"/></g><g><path d="M453.27 36.1c.35.13.65.3.95.52.4.29.78-.38.39-.66a4.55 4.55 0 0 0-1.13-.59c-.47-.17-.66.57-.2.74z" fill="#f7e486"/></g><g><path d="M443.85 40.57l1.24-1c.39-.3-.16-.84-.54-.53l-1.24.99c-.4.3.15.84.54.54z" fill="#f7e486"/></g><g><path d="M459.5 36.95a3 3 0 0 0 .92.69c.45.2.84-.45.4-.66-.31-.15-.56-.32-.79-.57-.33-.36-.87.18-.54.54z" fill="#f7e486"/></g></g></g><g><path d="M37.15 220.93c-2.28-.26-4.6-.5-6.92-.55l-.08.02a76.36 76.36 0 0 0-6.17 3.16c-1.4.78-1.18 1.02-.56 2.43a312.62 312.62 0 0 0 9.07 18.84c.32.6.65 1.22 1.16 1.67.5.45 1.22.71 1.85.51.66-.06 1.23-.57 1.52-1.18.3-.61.36-1.3.42-1.99a302.73 302.73 0 0 0 1.15-20.87c.03-1.54.14-1.85-1.44-2.04z" fill="#faee81"/><path d="M25.64 231.2l11.37-7.72M27.57 235.03a450.6 450.6 0 0 0 10.82-7.48M29.38 238.57c3.01-1.82 5.97-3.73 8.86-5.73M31.24 242.3c2.26-1.35 4.47-2.8 6.63-4.3M33.27 246.16a59.96 59.96 0 0 0 4.18-2.67" fill="none" stroke="#f7f0c6" stroke-width=".37" stroke-linecap="round" stroke-linejoin="round" stroke-miterlimit="10"/><path d="M24 227c.97-.7 1.97-1.34 3-1.93" fill="none" stroke="#f7e486" stroke-width=".37" stroke-linecap="round" stroke-linejoin="round" stroke-miterlimit="10"/><path d="M31.22 242.18c1.95 1 3.87 2.06 5.75 3.18M28.84 237.3c2.72 1.52 5.78 2.37 8.44 3.98M26.19 231.84c4.03.91 7.95 2.31 11.64 4.17l-.37-.13M24.08 226.99c4.68 1.79 9.59 2.96 14.26 4.8l-.5-.33M32.12 225.36c.32.01.63.1.94.18 1.78.48 3.53 1.03 5.26 1.66" fill="none" stroke="#f7f0c6" stroke-width=".37" stroke-linecap="round" stroke-linejoin="round" stroke-miterlimit="10"/><path d="M37.9 222.82c.3.08.57.18.85.3" fill="none" stroke="#f7e486" stroke-width=".37" stroke-linecap="round" stroke-linejoin="round" stroke-miterlimit="10"/><path d="M37.15 220.93c-2.28-.26-4.6-.5-6.92-.55l-.08.02a76.36 76.36 0 0 0-6.17 3.16c-1.4.78-1.18 1.02-.56 2.43a312.62 312.62 0 0 0 9.07 18.84c.32.6.65 1.22 1.16 1.67.5.45 1.22.71 1.85.51.66-.06 1.23-.57 1.52-1.18.3-.61.36-1.3.42-1.99a302.73 302.73 0 0 0 1.15-20.87c.03-1.54.14-1.85-1.44-2.04z" fill="none" stroke="#1d1d1b" stroke-width=".41" stroke-linecap="round" stroke-linejoin="round" stroke-miterlimit="10"/><path d="M40.16 217.11c-.15-.12-.3-.23-.47-.32.08-.64.26-1.3.21-1.95a11.77 11.77 0 0 0-8.4-10.3c-4.55-1.22-9.83.84-12.26 4.89s-1.8 9.81 1.63 13.06c.1.1-.06.14-.27.4-.78.94-.57 2.77.43 3.57 1 .8 2.21.78 3.29.09a6.35 6.35 0 0 0 2.25-3.03c-.24 1.85 1.83 3.46 3.66 3.09 1.82-.38 3.07-2.28 3.08-4.15a2.5 2.5 0 0 0 3.2 1.8c.99-.36 1.58-1.47 1.5-2.5 1.14.38 2.43.29 3.07-.8.23-.4.32-.86.31-1.32a3.42 3.42 0 0 0-1.23-2.53z" fill="#bfe8da" stroke="#3c3c3b" stroke-width=".41" stroke-linecap="round" stroke-linejoin="round" stroke-miterlimit="10"/><path d="M22.07 217.52c.17-.84.9-1.54 1.75-1.68.85-.13 1.76.3 2.19 1.05M32.1 215.9c.23-.85.96-1.53 1.82-1.68.85-.16 1.78.22 2.27.93M27.88 217.36c-.08.14-.03.32.08.44s.27.17.43.2c.21.03.43.02.62-.06.2-.1.35-.27.39-.47.04.2.29.29.5.28.26 0 .53-.1.7-.29s.25-.5.11-.73" fill="none" stroke="#3c3c3b" stroke-width=".34" stroke-linecap="round" stroke-linejoin="round" stroke-miterlimit="10"/><ellipse transform="rotate(-11.28 22.05 219.17)" cx="22.04" cy="219.22" rx="1.19" ry=".75" fill="#edcac7"/><ellipse transform="rotate(-11.28 36.38 216)" cx="36.37" cy="216.04" rx="1.19" ry=".75" fill="#edcac7"/><g><path d="M19.65 211.37l1.04-1.14c.33-.36-.21-.9-.54-.54l-1.04 1.14c-.33.36.2.9.54.54zM25.49 208.44c.45.31.93.58 1.44.8.44.2.83-.45.38-.65-.5-.23-.98-.5-1.43-.81-.41-.28-.8.38-.4.66zM29.36 206.72l.76-.35c.45-.2.06-.86-.38-.66l-.77.35c-.45.21-.06.87.39.66zM32.75 209.86l.87-.27c.47-.14.27-.88-.2-.73l-.88.26c-.47.14-.27.88.2.74zM23.77 212.78l1.38.25c.49.1.7-.65.2-.74l-1.38-.25c-.48-.1-.69.65-.2.74z" fill="#c2498e"/><path d="M21.83 207.6a4 4 0 0 0 1.58.45c.5.04.5-.72 0-.77a3 3 0 0 1-1.19-.35c-.43-.23-.82.43-.39.66z" fill="#f7e486"/><g><path d="M25.73 205.84l1.7-1.17c.4-.28.03-.94-.38-.66l-1.71 1.17c-.4.28-.02.94.39.66z" fill="#f7e486"/></g><g><path d="M29.02 209.96c.34.13.65.3.95.51.4.3.78-.37.38-.66a4.55 4.55 0 0 0-1.13-.59c-.46-.17-.66.57-.2.74z" fill="#f7e486"/></g><g><path d="M19.6 214.42l1.23-1c.39-.3-.15-.84-.54-.53l-1.24.99c-.39.3.16.84.54.54z" fill="#f7e486"/></g><g><path d="M35.24 210.8a3 3 0 0 0 .93.7c.44.2.83-.46.39-.67-.3-.14-.55-.32-.78-.57-.34-.36-.88.18-.54.54z" fill="#f7e486"/></g></g></g><g><path d="M520.12 242.5c-1.14-2-2.33-4-3.66-5.9l-.06-.06a76.26 76.26 0 0 0-6.21-3.1c-1.46-.65-1.52-.33-2.29 1a305.49 305.49 0 0 0-9.78 18.48c-.3.61-.6 1.24-.66 1.92-.06.67.15 1.4.69 1.8.44.5 1.19.64 1.85.52a5.72 5.72 0 0 0 1.85-.84 306.2 306.2 0 0 0 17.49-11.46c1.25-.89 1.57-.98.78-2.37z" fill="#faee81"/><path d="M505.03 239.32l12.95 4.57M503.09 243.15c4.12 1.48 8.27 2.9 12.44 4.27M501.31 246.7c3.25 1.35 6.54 2.6 9.87 3.74M499.4 250.42c2.44 1 4.9 1.93 7.4 2.77M497.51 254.34c1.52.66 3.06 1.25 4.63 1.78" fill="none" stroke="#f7f0c6" stroke-width=".37" stroke-linecap="round" stroke-linejoin="round" stroke-miterlimit="10"/><path d="M507.44 235.51c1.13.37 2.24.8 3.33 1.27" fill="none" stroke="#f7e486" stroke-width=".37" stroke-linecap="round" stroke-linejoin="round" stroke-miterlimit="10"/><path d="M499.5 250.32c.34 2.17.63 4.34.85 6.52M502.02 245.51c.38 3.1 1.5 6.06 1.8 9.16M504.83 240.14a50.9 50.9 0 0 1 3.56 11.84l-.12-.37M507.49 235.56c1.34 4.83 3.3 9.48 4.6 14.32 0-.2-.02-.39-.03-.58M513.57 241.07c.18.27.3.56.42.86a66.99 66.99 0 0 1 1.78 5.22" fill="none" stroke="#f7f0c6" stroke-width=".37" stroke-linecap="round" stroke-linejoin="round" stroke-miterlimit="10"/><path d="M519.05 244.22c.1.28.19.56.26.85" fill="none" stroke="#f7e486" stroke-width=".37" stroke-linecap="round" stroke-linejoin="round" stroke-miterlimit="10"/><path d="M520.12 242.5c-1.14-2-2.33-4-3.66-5.9l-.06-.06a76.26 76.26 0 0 0-6.21-3.1c-1.46-.65-1.52-.33-2.29 1a305.49 305.49 0 0 0-9.78 18.48c-.3.61-.6 1.24-.66 1.92-.06.67.15 1.4.69 1.8.44.5 1.19.64 1.85.52a5.72 5.72 0 0 0 1.85-.84 306.2 306.2 0 0 0 17.49-11.46c1.25-.89 1.57-.98.78-2.37z" fill="none" stroke="#1d1d1b" stroke-width=".41" stroke-linecap="round" stroke-linejoin="round" stroke-miterlimit="10"/><g><path d="M523.26 242.17c2.48.16 4.6-1.73 6.11-3.69.81-1.04 1.55-2.16 2.02-3.4 1.41-3.72.05-8.19-2.92-10.84-2.97-2.65-7.28-3.54-11.18-2.73a11.26 11.26 0 0 0-6.17 3.34 8.98 8.98 0 0 0-2.25 5.64c-1.37-.14-2.81 1.13-2.94 2.5a3.3 3.3 0 0 0 2.1 3.24c1.3.5 2.81.2 3.93-.6a2.45 2.45 0 0 0 .04 3.6c1.06.86 2.86.51 3.53-.68-.9.97-.72 2.73.36 3.49 1.08.76 2.8.34 3.4-.83-.2 1.27-.3 2.82.74 3.58.74.55 1.87.4 2.55-.24.67-.64.82-1.47.68-2.38z" fill="#c2498e" stroke="#3c3c3b" stroke-width=".41" stroke-linecap="round" stroke-linejoin="round" stroke-miterlimit="10"/><circle cx="514.97" cy="228.96" r="1.32" fill="#1d1d1b"/><circle cx="523.75" cy="236.96" r="1.32" fill="#1d1d1b"/><circle cx="515.38" cy="228.84" r=".62" fill="#fff"/><circle cx="524.14" cy="236.82" r=".62" fill="#fff"/><path d="M517.36 233.35c-.41.3-.56.89-.38 1.42.19.52.7.96 1.24 1.08.55.12 1.1-.08 1.4-.48" fill="none" stroke="#3c3c3b" stroke-width=".34" stroke-linecap="round" stroke-linejoin="round" stroke-miterlimit="10"/><path d="M519.23 223.42l1.53.16c.49.05.48-.71 0-.76l-1.53-.16c-.5-.06-.49.71 0 .76zM524.99 226.34c.02.59.09 1.16.22 1.74.1.48.84.27.73-.2a8.42 8.42 0 0 1-.19-1.54c-.01-.5-.78-.5-.76 0zM528.63 228.46l.73.4c.44.24.82-.42.39-.66l-.74-.4c-.43-.24-.82.42-.38.66zM528.2 233.1l.73.54c.4.3.78-.37.39-.66l-.74-.55c-.39-.3-.77.37-.38.66zM520.5 227.62l.62 1.27c.22.45.88.06.66-.38l-.61-1.27c-.22-.45-.88-.06-.66.38z" fill="#edcac7"/><path d="M523.52 223c.08.52.26 1 .53 1.44.26.42.92.04.66-.38-.24-.4-.39-.8-.46-1.27-.07-.48-.8-.28-.73.2z" fill="#f7e486"/><g><path d="M527.27 225.05l1.96.68c.47.16.67-.58.2-.74l-1.96-.68c-.46-.16-.66.58-.2.74z" fill="#f7e486"/></g><g><path d="M525.85 230.1c.1.34.16.69.16 1.05 0 .5.77.5.77 0 0-.43-.07-.85-.19-1.26-.14-.47-.88-.27-.74.2z" fill="#f7e486"/></g><g><path d="M516.63 225.17l1.54.42c.48.12.68-.61.2-.74l-1.53-.42c-.48-.12-.68.61-.2.74z" fill="#f7e486"/></g><g><path d="M528.88 235.59c-.08.43-.08.83 0 1.26.1.48.83.28.74-.2-.05-.3-.05-.57 0-.86.1-.48-.65-.69-.74-.2z" fill="#f7e486"/></g></g></g><g stroke="#3c3c3b" stroke-width=".55" stroke-linecap="round" stroke-linejoin="round" stroke-miterlimit="10"><path d="M360.33 148.12c-.15.9-.02 8.49 4.33 12.69 4.03 3.88 10.68 9.28 29.7 8.17s27.18-9.2 29.4-12.82c2.2-3.6 3.77-11.35 1.14-16.02s-35.48-10.35-50.59-3.8c-15.1 6.56-13.98 11.78-13.98 11.78z" fill="#eeceb8"/><path d="M366.1 134.35c3.97-2.87 8.74-4.39 13.1-6.62 2.53-1.3 4.96-2.84 7.69-3.61 5.5-1.55 11.3.27 16.97.98 4.1.52 8.36.47 12.17 2.07a15.2 15.2 0 0 1 8.42 9.06 8 8 0 0 1 .45 3.9 4.18 4.18 0 0 1-2.22 3.12c-.42.2-.9.3-1.26.6-.44.38-.62.98-.72 1.55-.17 1.08-.1 2.2-.29 3.27-.18 1.09-.69 2.2-1.65 2.71-1.57.84-3.45-.21-5.22-.26-2.7-.06-4.8 2.15-7 3.7a16.45 16.45 0 0 1-11.34 2.9c-1.6-.2-3.16-.62-4.75-.76-2.8-.24-5.6.4-8.4.61-2.8.22-5.85-.1-7.99-1.92-2.2-1.87-3.24-5.16-5.95-6.14-1.54-.56-3.25-.2-4.89-.32-6.43-.49-2.74-8.98-.33-11.86a17.79 17.79 0 0 1 3.2-2.98z" fill="#c5bcdc"/><path d="M385.39 146.41c.95.31 1.95.5 2.94.67 2.27.42 4.59.84 6.87.5a21.27 21.27 0 0 0 9.6-4.58c.33-.28.68-.69.52-1.08a.92.92 0 0 0-.4-.42c-1.58-.96-3.7-.29-5.4-1.01-1.47-.62-2.43-2.2-3.97-2.59a4.22 4.22 0 0 0-1.6-.05c-1.22.16-2.4.6-3.43 1.29-1.16.78-2.18 1.89-3.56 2.13-1.46.27-2.94-.53-4.42-.4-1.36.12-3.58 1.44-2.12 2.83a13.83 13.83 0 0 0 4.97 2.71z" fill="#eeceb8"/><path d="M400.85 145.39c.35-.27-.04-.91-.38-1.2-.25-.22-.6-.32-.92-.41a23.71 23.71 0 0 0-13.35.34c-.94.3-1.92.72-2.42 1.57 0 0 10.59 4.7 17.07-.3z" fill="#fff"/><path d="M369.74 143.93c0-.08 0-.17.06-.23.05-.06.12-.07.2-.1 1.15-.25 2.32-.5 3.5-.56.27 0 .54 0 .79.08.24.1.46.3.5.56.05.28-.11.56-.34.73-.23.16-.51.23-.8.29-1.2.25-2.45.3-3.7.32-.4.01-.2-.81-.2-1.09z" fill="#ddaecd"/><path d="M378.6 150.08c.32-.37.68-.76 1.16-.84.63-.1 1.21.34 1.7.76-.57.4-.76 1.19-1.34 1.57-.36.24-.83.28-1.26.2-1.46-.26-1.03-.83-.26-1.7zM392.95 127.44c.06-.03.12-.07.18-.07s.12.03.18.05c.4.22.79.44 1.18.68.12.07.27.2.21.34-.02.06-.08.1-.14.15-.49.34-.73.93-1.08 1.4-.39.53-.92.92-1.45 1.31-.17.13-.36.27-.57.31-.23.05-.46 0-.68-.07a4.9 4.9 0 0 1-1.04-.46c-.8-.47.49-1.35.9-1.76.7-.7 1.48-1.33 2.31-1.88zM410.76 132.16c.05-.09.11-.19.21-.21.08-.03.16 0 .24.03a9.93 9.93 0 0 1 3.37 1.97c.23.2.45.44.57.74s.12.65-.1.9c-.34.4-1 .25-1.5.03a9.33 9.33 0 0 1-2.34-1.42c-.93-.8-1-1.01-.45-2.04z" fill="#bfe8da"/><path d="M411.4 143.3c-.27.06-.54.13-.76.3s-.34.47-.23.72c.16.4.71.38 1.14.36 1.31-.05 2.6.42 3.92.37.15-.01.33-.04.42-.16a.47.47 0 0 0 .07-.29c-.03-2.31-3.23-1.57-4.57-1.3z" fill="#ddaecd"/><path d="M400.83 149.89c-.2.09-.4.2-.51.37-.24.36-.07.84.1 1.24a18.55 18.55 0 0 0 5.78-.53c.09-.02.18-.04.23-.11.06-.08.06-.19.06-.28-.11-3.47-3.99-1.48-5.66-.7z" fill="#c2498e"/><path d="M387.61 151.61a9.58 9.58 0 0 0 2.03 1.38c1.06.49 2.26.58 3.42.66.09 0 .18.01.26-.03.1-.05.14-.16.18-.26.1-.25.2-.56.04-.79-.1-.15-.28-.21-.45-.27l-3.43-1.2c-.37-.12-1.05-.43-1.46-.32-.26.07-.9.57-.59.83z" fill="#ddaecd"/><path d="M382.41 132.65c.08 0 .16 0 .22.04.09.06.11.17.13.27.07.38.11.83-.16 1.1-.18.19-.45.24-.7.28-1.12.17-4.33 1.22-4.75-.22-.4-1.3.88-1.15 1.82-1.26 1.14-.13 2.3-.2 3.44-.21z" fill="#c2498e"/><path d="M403.7 132c.02-.4.13-.77.33-1.11.57 0 1.14.09 1.68.26.09.02.18.06.25.13.08.08.1.21.1.33.05.32.07.7-.18.93-.16.15-.4.18-.62.17a2.36 2.36 0 0 1-1.69-.8M376 139.36c-.08.12-.24-.06-.27-.2l-.14-.7c0-.06-.02-.12 0-.17.04-.05.1-.08.14-.1l.7-.32c.26-.13.55-.26.85-.25.3.02.62.23.65.53.03.35-.31.6-.63.76-.36.19-.75.34-1.15.45M407.83 139.21l.34-.8a4.2 4.2 0 0 1 2.13.52c.08.04.16.1.2.17.07.1.07.21.07.32v.63c-.01.07-.01.15-.06.2-.06.1-.19.1-.3.09a5.91 5.91 0 0 1-2.35-.72M395.32 154.4c-.03-.4-.01-.81.04-1.21.01-.08.02-.16.07-.21.06-.07.17-.09.26-.1.42-.04.85-.01 1.27.07.1.02.2.05.27.12.08.09.09.22.1.33l.06.9c0 .08 0 .16-.04.23-.05.06-.12.08-.2.1-.52.13-1.1.06-1.58-.18" fill="#f7e486"/></g><g stroke="#3c3c3b" stroke-width=".55" stroke-linecap="round" stroke-linejoin="round" stroke-miterlimit="10"><path d="M124.97 88.07c-.15.9-.02 8.48 4.33 12.68 4.03 3.89 10.68 9.29 29.7 8.18 19-1.1 27.18-9.21 29.4-12.82s3.77-11.35 1.14-16.03-35.48-10.35-50.59-3.79c-15.1 6.56-13.98 11.78-13.98 11.78z" fill="#eeceb8"/><path d="M130.74 74.3c3.97-2.88 8.74-4.4 13.1-6.63 2.53-1.29 4.96-2.84 7.69-3.6 5.5-1.56 11.3.26 16.97.98 4.1.51 8.36.47 12.17 2.07a15.2 15.2 0 0 1 8.42 9.05 8 8 0 0 1 .45 3.91 4.18 4.18 0 0 1-2.22 3.11c-.42.2-.9.3-1.26.6-.44.38-.63.98-.72 1.56-.17 1.08-.1 2.19-.29 3.27-.18 1.08-.69 2.2-1.66 2.71-1.56.84-3.44-.22-5.21-.26-2.7-.07-4.8 2.15-7 3.7a16.45 16.45 0 0 1-11.35 2.89c-1.59-.2-3.15-.62-4.74-.75-2.8-.25-5.6.4-8.4.61-2.8.21-5.85-.1-7.99-1.92-2.2-1.87-3.24-5.16-5.95-6.14-1.55-.56-3.25-.2-4.89-.33-6.43-.48-2.74-8.97-.33-11.86a17.79 17.79 0 0 1 3.2-2.97z" fill="#ddaecd"/><path d="M150.03 86.36c.95.3 1.95.49 2.94.67 2.27.42 4.59.83 6.87.5 1.03-.16 2.03-.47 3-.83 2.4-.87 4.68-2.1 6.6-3.76.33-.28.67-.68.52-1.08a.92.92 0 0 0-.4-.41c-1.59-.96-3.7-.3-5.4-1.01-1.47-.62-2.43-2.2-3.97-2.6a4.22 4.22 0 0 0-1.6-.04c-1.22.16-2.4.6-3.43 1.29-1.16.77-2.18 1.88-3.56 2.13-1.46.26-2.94-.53-4.42-.4-1.37.12-3.58 1.44-2.12 2.83a13.84 13.84 0 0 0 4.97 2.7z" fill="#eeceb8"/><path d="M165.49 85.33c.35-.27-.04-.9-.38-1.2-.26-.22-.6-.32-.92-.4a23.71 23.71 0 0 0-13.36.34c-.93.3-1.91.71-2.4 1.56 0 0 10.57 4.7 17.06-.3z" fill="#fff"/><path d="M134.38 83.88c0-.08 0-.17.06-.23.05-.06.12-.08.2-.1 1.15-.25 2.32-.51 3.5-.56.27-.01.54-.01.79.08.24.1.46.3.5.56.05.28-.11.56-.34.72-.23.17-.51.24-.8.3-1.2.24-2.45.3-3.7.32-.4 0-.2-.82-.2-1.1z" fill="#7b5f95"/><path d="M143.23 90.02c.33-.36.69-.75 1.17-.83.63-.11 1.21.33 1.7.75-.57.4-.76 1.2-1.34 1.58-.36.24-.83.28-1.26.2-1.47-.26-1.03-.84-.27-1.7zM157.6 67.39c.05-.04.1-.07.17-.08.06 0 .12.03.18.06.4.22.79.44 1.18.68.12.07.27.2.21.34-.02.06-.08.1-.14.14-.49.35-.73.93-1.08 1.4-.39.53-.92.93-1.45 1.32-.17.13-.36.26-.57.3-.23.06-.46 0-.68-.06a4.9 4.9 0 0 1-1.04-.47c-.8-.47.49-1.34.9-1.75.7-.7 1.47-1.34 2.31-1.88zM175.4 72.1c.05-.08.11-.18.21-.2.08-.03.16 0 .24.02a9.93 9.93 0 0 1 3.36 1.97c.24.21.46.45.58.74.12.3.11.66-.1.9-.34.4-1 .25-1.5.04a9.33 9.33 0 0 1-2.34-1.43c-.93-.79-1-1-.45-2.03z" fill="#bfe8da"/><path d="M176.03 83.25c-.26.06-.54.12-.75.3-.2.16-.34.46-.23.71.16.4.71.39 1.14.37 1.31-.06 2.6.42 3.92.36.15 0 .33-.03.42-.16a.47.47 0 0 0 .07-.28c-.03-2.32-3.23-1.58-4.57-1.3z" fill="#7b5f95"/><path d="M165.47 89.83c-.2.1-.4.2-.51.38-.24.36-.07.84.1 1.23a18.55 18.55 0 0 0 5.78-.52c.08-.02.18-.05.23-.12.06-.07.06-.18.06-.28-.11-3.46-3.99-1.48-5.66-.69z" fill="#c2498e"/><path d="M152.25 91.56a9.58 9.58 0 0 0 2.03 1.38c1.06.48 2.25.57 3.42.65.09.01.18.02.26-.03.1-.05.14-.15.18-.25.1-.26.2-.57.04-.8-.1-.14-.28-.2-.45-.27l-3.43-1.19c-.37-.13-1.05-.43-1.46-.32-.26.07-.9.57-.59.83z" fill="#7b5f95"/><path d="M147.05 72.6c.08 0 .16 0 .22.04.09.06.11.17.13.27.07.38.11.83-.16 1.1-.18.18-.45.23-.7.27-1.12.18-4.33 1.23-4.75-.21-.4-1.31.88-1.16 1.82-1.26 1.14-.13 2.3-.2 3.44-.22z" fill="#c2498e"/><path d="M168.33 71.94c.03-.39.14-.77.34-1.1.57 0 1.14.08 1.68.25.09.03.18.06.24.13.08.09.1.22.12.33.03.33.05.7-.19.93-.16.15-.4.19-.62.18a2.36 2.36 0 0 1-1.69-.8M140.64 79.3c-.08.12-.24-.05-.27-.2l-.14-.7c-.01-.05-.02-.11 0-.17.03-.05.09-.07.14-.1l.69-.32c.27-.12.56-.25.86-.24s.62.22.65.52c.03.35-.31.61-.63.77-.36.19-.75.34-1.15.45M172.47 79.16c.1-.27.22-.54.34-.8a4.2 4.2 0 0 1 2.13.51c.08.05.16.1.2.18.07.09.07.2.07.32V80c-.01.07-.01.14-.06.2-.06.09-.19.09-.3.08a5.91 5.91 0 0 1-2.35-.71M159.96 94.34c-.03-.4-.01-.8.04-1.2 0-.08.02-.16.07-.22.06-.07.17-.08.26-.09.42-.04.85-.02 1.27.07.1.02.2.05.27.12.08.08.09.21.1.33l.06.9c0 .07 0 .16-.04.23-.05.06-.12.08-.2.1-.52.12-1.1.06-1.58-.18" fill="#f7e486"/></g><g stroke="#3c3c3b" stroke-width=".53" stroke-linecap="round" stroke-linejoin="round" stroke-miterlimit="10"><path d="M561.78 131.84c-.11.55-.25 1.1-.5 1.6-.81 1.62-2.67 2.38-4.4 2.89-7.86 2.32-16.28 2.21-24.38.92a5.4 5.4 0 0 1-2.26-.72c-.85-.59-1.3-1.59-1.7-2.53-.92-2.12-1.85-4.43-1.31-6.67.21-.9.66-1.74 1.1-2.55.72-1.27 1.47-2.54 2.49-3.57 2.6-2.63 6.53-3.34 10.2-3.72 4.82-.5 9.84-.62 14.34 1.18 1.29.51 2.52 1.18 3.65 1.99 1.58 1.12 3.3 2.94 3.5 4.98.2 1.95-.34 4.3-.73 6.2z" fill="#eeceb8"/><path d="M541.2 90.33c-.37-1.04-.92-2.16-1.96-2.53-.82-.3-1.72-.04-2.56.2a20 20 0 0 1 4.02 13.22c-.01.2 1.25.27 1.4.18.39-.21.28-.3.4-.69.32-.88.12-2.37.08-3.3a23.3 23.3 0 0 0-1.37-7.08z" fill="#bfe8da"/><path d="M546.4 113.8a9.41 9.41 0 0 0-3.27-1.22c-.82-.2-1.67-.4-2.5-.29-1.26.18-2.3 1.02-3.27 1.83l-.1-.3" fill="none"/><path d="M554.93 106.73c1.17.36 2.36.72 3.4 1.35 2.26 1.34 3.67 3.8 4.32 6.33.65 2.54.63 5.2.6 7.82 0 1.02-.08 2.18-.86 2.84-.6.5-1.47.56-2.21.34a7.16 7.16 0 0 1-2.04-1.11l-2.23-1.56c-.63-.44-1.33-.9-2.1-.82-.8.1-1.42.79-1.83 1.5-.4.71-.7 1.5-1.28 2.08a3.47 3.47 0 0 1-3.21.78 5.88 5.88 0 0 1-2.88-1.81c-.56-.61-1.05-1.3-1.71-1.8-.66-.5-1.58-.77-2.33-.42-.72.34-1.08 1.14-1.52 1.82-.43.68-1.18 1.33-1.95 1.1-.29-.1-.52-.3-.78-.46-1-.65-2.3-.72-3.42-.35a6.3 6.3 0 0 0-2.84 2.08c-.45.55-.83 1.16-1.37 1.62-.53.47-1.28.77-1.96.56-.34-.1-.64-.33-.9-.57-1.6-1.51-2.15-3.83-2.27-6.03-.18-3.36.5-6.82 2.23-9.7s4.58-5.16 7.86-5.91l.18.48c-.28-.76 9.89-2.27 10.8-2.3 3.75-.1 6.75 1.06 10.3 2.14z" fill="#c5bcdc"/><path d="M556.82 111.6a5.74 5.74 0 0 1 2.54 2.7c-.8-.03-2.92-1.67-3.05-1.92-.04-.08-.08-.18-.03-.26.03-.06.1-.08.18-.1.3-.07.61-.09.92-.04" fill="#bfe8da"/><path d="M553.3 108.87c-.55.51-1.29.81-2.04.83-.33 0-.7-.08-.84-.37-.1-.23-.02-.51.16-.7.17-.17.42-.26.67-.32.42-.1.86-.12 1.29-.06.19.03.4.09.5.25.14.22.01.53-.2.67s-.5.15-.77.13M550.7 113.65a7.1 7.1 0 0 1 1.62.99c.47.42.84 1.01.85 1.65 0 .09 0 .2-.06.26-.1.1-.25.09-.39.06a4.54 4.54 0 0 1-2.65-1.72c-.24-.32-.45-.72-.34-1.11s.67-.63.93-.31" fill="#faee81"/><path d="M543.42 116.49c.63.71 1 .82 1 2.63-.42.11-.88-.02-1.23-.28s-.62-.6-.86-.97a1.93 1.93 0 0 1-.36-.91c-.02-.33.17-.7.49-.79.32-.08.7.25.59.56" fill="#bfe8da"/><path d="M530 119.84c-.1.01-.19.03-.26-.02-.07-.04-.1-.13-.13-.2-.17-.66.12-1.38.6-1.86.55-.54 2.34-1.69 2.23-.2-.07.97-1.59 2.1-2.45 2.28zM530.36 111.1c.7.06 1.42.13 2.07.42.64.28 1.21.83 1.33 1.53a9.64 9.64 0 0 1-4.03-1c-.22-.12-.46-.26-.55-.5-.12-.29.1-.66.4-.72.32-.05.64.22.64.54" fill="#faee81"/><path d="M528.5 114.5c.18.49-.38 1.07-.87.9-.5-.16-.58-.97-.12-1.23.45-.26 1.1.23.98.74" fill="#bfe8da"/><path d="M534.26 103.38a6.5 6.5 0 0 0 .25 5.54c.84 1.71 2.25 3.09 3.78 4.23a6.43 6.43 0 0 1 5.44-.64c.38.12.75.29 1.14.24a2 2 0 0 0 1.03-.55 11.04 11.04 0 0 0 3.75-7.85 4.3 4.3 0 0 0-.35-2.1c-.7-1.41-2.46-1.91-3.92-1.78-1.15.1-2.05.81-3.16.98-1.58.24-2.95-.93-4.54-.69a4.68 4.68 0 0 0-3.41 2.62z" fill="#c2498e"/></g><g stroke="#3c3c3b" stroke-width=".53" stroke-linecap="round" stroke-linejoin="round" stroke-miterlimit="10"><path d="M293.95 250.2c.11.55.25 1.1.5 1.6.81 1.62 2.67 2.38 4.4 2.89 7.86 2.32 16.28 2.21 24.38.92a5.4 5.4 0 0 0 2.26-.73c.85-.58 1.3-1.58 1.7-2.52.92-2.12 1.85-4.43 1.31-6.67-.21-.9-.66-1.74-1.1-2.55a15.98 15.98 0 0 0-2.49-3.57c-2.6-2.63-6.53-3.34-10.2-3.72-4.82-.5-9.84-.62-14.33 1.17-1.3.52-2.52 1.19-3.66 2-1.58 1.12-3.3 2.94-3.5 4.98-.2 1.95.34 4.3.73 6.2z" fill="#eeceb8"/><path d="M314.52 208.68c.38-1.04.93-2.15 1.97-2.52.82-.3 1.72-.05 2.56.2a20 20 0 0 0-4.02 13.22c.01.2-1.25.26-1.4.18-.39-.21-.27-.31-.4-.69-.32-.89-.12-2.37-.08-3.3.09-2.42.55-4.82 1.37-7.09z" fill="#bfe8da"/><path d="M309.34 232.16a9.41 9.41 0 0 1 3.26-1.23c.82-.2 1.67-.4 2.5-.28 1.26.17 2.3 1.01 3.27 1.82l.1-.29" fill="none"/><path d="M300.8 225.09c-1.17.35-2.35.72-3.4 1.34-2.26 1.35-3.67 3.8-4.32 6.34-.65 2.54-.63 5.2-.6 7.81 0 1.03.08 2.19.86 2.85.6.5 1.47.56 2.21.34.75-.22 1.4-.67 2.04-1.12l2.23-1.55c.63-.44 1.33-.9 2.1-.82.8.1 1.42.79 1.83 1.5s.7 1.5 1.28 2.08c.82.81 2.1 1.05 3.21.78s2.1-.97 2.88-1.82c.56-.6 1.05-1.3 1.71-1.8s1.58-.77 2.33-.41c.72.34 1.08 1.14 1.52 1.82.43.67 1.18 1.33 1.95 1.1.29-.1.52-.3.78-.46 1-.65 2.3-.72 3.42-.35a6.3 6.3 0 0 1 2.84 2.08c.45.55.83 1.16 1.37 1.62.53.46 1.28.77 1.96.56.34-.1.64-.33.9-.57 1.6-1.51 2.15-3.84 2.27-6.03.18-3.37-.5-6.82-2.23-9.7s-4.58-5.17-7.86-5.91l-.18.48c.28-.77-9.89-2.27-10.8-2.3-3.75-.1-6.75 1.06-10.3 2.14z" fill="#ddaecd"/><path d="M298.9 229.96a5.74 5.74 0 0 0-2.53 2.69c.8-.02 2.92-1.66 3.05-1.91.04-.08.08-.18.03-.26-.03-.06-.1-.09-.18-.1-.3-.07-.61-.09-.92-.05" fill="#bfe8da"/><path d="M302.42 227.23c.56.51 1.3.81 2.05.83.33 0 .7-.08.84-.37.1-.23.02-.51-.16-.7s-.42-.27-.67-.32c-.42-.1-.86-.13-1.29-.06-.19.03-.4.09-.5.25-.14.22-.01.53.2.67s.5.15.77.13M305.04 232a7.1 7.1 0 0 0-1.63 1 2.38 2.38 0 0 0-.85 1.64c0 .1 0 .2.06.27.1.1.25.08.39.05a4.54 4.54 0 0 0 2.65-1.7c.24-.33.45-.74.34-1.12-.1-.4-.68-.63-.93-.32" fill="#faee81"/><path d="M312.31 234.85c-.63.7-1 .82-1 2.63.42.11.88-.03 1.23-.28.36-.25.62-.6.86-.97.18-.28.35-.58.36-.91.02-.34-.17-.7-.49-.79-.32-.08-.7.25-.59.56" fill="#bfe8da"/><path d="M325.74 238.2c.08.01.18.02.25-.02s.1-.13.13-.2c.17-.66-.12-1.38-.6-1.86-.55-.54-2.34-1.69-2.23-.2.07.96 1.59 2.1 2.45 2.28zM325.37 229.46c-.7.06-1.42.13-2.07.41s-1.21.84-1.33 1.54a9.64 9.64 0 0 0 4.03-1c.23-.12.46-.26.55-.5.12-.29-.1-.66-.4-.72s-.64.22-.64.54" fill="#faee81"/><path d="M327.24 232.86c-.19.48.37 1.07.86.9.5-.17.58-.98.12-1.23s-1.1.23-.98.74" fill="#bfe8da"/><path d="M321.47 221.74a6.5 6.5 0 0 1-.25 5.53 12.17 12.17 0 0 1-3.78 4.24 6.43 6.43 0 0 0-5.44-.65c-.37.13-.75.3-1.14.25a2 2 0 0 1-1.03-.56 11.04 11.04 0 0 1-3.75-7.85 4.3 4.3 0 0 1 .35-2.1c.7-1.4 2.46-1.9 3.93-1.77 1.14.1 2.04.8 3.15.98 1.58.23 2.95-.93 4.54-.69a4.68 4.68 0 0 1 3.42 2.62z" fill="#c2498e"/></g><g stroke="#3c3c3b" stroke-width=".53" stroke-linecap="round" stroke-linejoin="round" stroke-miterlimit="10"><path d="M317.33 131.31c-2.73.33-5.49.36-8.22.1a20.34 20.34 0 0 0 4.48-7.89 50.9 50.9 0 0 1-36.54 2.54c1.36 2.72 3.15 4.98 6 6.04-2.84 1.18-6.01 1.53-9.03.99 6.28 4.9 14.6 6.76 22.55 6.2 7.95-.57 13.68-4.31 20.76-7.97z" fill="#faee81"/><path d="M285.03 131.47a3.8 3.8 0 0 0-.33 2.95c.2.64.8 1.32 1.42 1.06.32-.13.5-.46.62-.78.34-.88.45-1.85.32-2.8.12-.05.28.12.21.24M289.34 135.88a18.12 18.12 0 0 1-.03-3.97c.75 1.2 1.39 2.46 1.9 3.78l.28-3.55M293.55 132.14l.03 4.3.4-.35M295.67 131.88c.1-.03 0-.2-.09-.17-.1.02-.15.12-.18.22a5.9 5.9 0 0 0-.31 2.15c.02.65.2 1.36.73 1.74.53.37 1.47.13 1.53-.52M298.86 131.56a1.11 1.11 0 0 0-.84-.06c-.4 1.2-.23 2.56.45 3.62.23.36.66.71 1.03.5.19-.1.28-.3.35-.51.22-.66.3-1.4.08-2.06a1.97 1.97 0 0 0-1.45-1.36M305.17 134.29a6.33 6.33 0 0 1-.58-3.28l2.3 2.54c0-1.52.03-3.04.04-4.56M301.58 135.46c.08-1.34.07-2.68-.04-4.01 0-.11-.01-.23.02-.33.13-.34.63-.33.92-.12.4.28.58.83.43 1.3-.15.46-.62.8-1.1.8l1.2 1.73c.03.04.07.07.1.06s.02-.09-.01-.06" fill="none"/></g><g stroke="#3c3c3b" stroke-linecap="round" stroke-linejoin="round" stroke-miterlimit="10"><path d="M53.64 38.19a38.77 38.77 0 0 1-7.96 2.04 20.35 20.35 0 0 0 2.47-8.72 50.9 50.9 0 0 1-34.88 11.17c1.96 2.31 4.25 4.08 7.26 4.44a16.19 16.19 0 0 1-8.53 3.1c7.27 3.28 15.79 3.1 23.38.65s12.26-7.43 18.26-12.68z" fill="#c5bcdc" stroke-width=".55"/><path d="M22.3 46.04a3.8 3.8 0 0 0 .4 2.94c.33.57 1.09 1.08 1.63.69.27-.2.37-.57.41-.9.12-.95 0-1.92-.36-2.8.1-.09.3.04.27.18M27.54 49.29c-.46-1.24-.79-2.54-.97-3.85 1.02.99 1.93 2.07 2.74 3.22l-.56-3.52M30.74 44.65l1.06 4.18.3-.44M32.74 43.9c.08-.05-.04-.2-.13-.15s-.11.16-.12.26c-.07.72 0 1.46.2 2.17.19.62.53 1.27 1.13 1.5.6.24 1.46-.22 1.36-.86M35.76 42.83a1.1 1.1 0 0 0-.82.14 4.28 4.28 0 0 0 1.29 3.4c.3.3.82.54 1.13.25.15-.14.19-.37.2-.58.06-.7-.03-1.42-.4-2.02a1.97 1.97 0 0 0-1.74-.97M42.54 43.97a6.32 6.32 0 0 1-1.34-3.05l2.83 1.92-1.04-4.43M39.33 45.96a29.71 29.71 0 0 0-.99-3.88c-.03-.1-.07-.21-.06-.32.04-.36.53-.48.87-.34.45.18.75.67.72 1.16-.04.48-.4.93-.88 1.04l1.59 1.4c.03.02.07.05.1.03s0-.1-.02-.06" fill="none" stroke-width=".53"/></g><g stroke="#3c3c3b" stroke-width=".53" stroke-linecap="round" stroke-linejoin="round" stroke-miterlimit="10"><path d="M203.55 235.2a38.77 38.77 0 0 1-7.42-3.52 20.34 20.34 0 0 0 7.49-5.12 50.9 50.9 0 0 1-33.94-13.78c.03 3.03.64 5.86 2.73 8.06a16.2 16.2 0 0 1-8.54-3.08c3.48 7.17 10.13 12.5 17.53 15.48s14.18 2.15 22.15 1.97z" fill="#ddaecd"/><path d="M174.47 221.15a3.8 3.8 0 0 0-1.6 2.5c-.1.66.15 1.54.82 1.58.34.02.65-.2.9-.43a5.57 5.57 0 0 0 1.51-2.37c.14 0 .2.22.1.3M176.4 227a18.16 18.16 0 0 1 1.72-3.57c.15 1.4.16 2.82.04 4.22l1.82-3.06M181.83 225.49l-1.86 3.89.5-.15M183.85 226.2c.1 0 .09-.18 0-.2-.1-.03-.2.05-.26.12a5.9 5.9 0 0 0-1.23 1.8c-.27.59-.42 1.3-.1 1.87.3.57 1.25.77 1.6.21M186.85 227.3a1.11 1.11 0 0 0-.72-.42c-.89.9-1.34 2.2-1.2 3.45.06.43.29.94.71.91.21-.01.39-.16.54-.31.49-.5.88-1.12.98-1.81.1-.7-.14-1.46-.7-1.87M191.33 232.53c0-1.12.33-2.24.91-3.2l.95 3.29 2.05-4.07M187.58 232a29.67 29.67 0 0 0 1.73-3.61c.04-.1.09-.21.17-.29.25-.25.7-.02.88.3.22.42.14 1-.2 1.35-.33.35-.9.45-1.34.24l.33 2.08c0 .05.02.1.06.1.04.01.05-.07.01-.06" fill="none"/></g><path d="M293.04 63.76v.1" fill="none"/><g stroke="#3c3c3b" stroke-linecap="round" stroke-linejoin="round" stroke-miterlimit="10"><path d="M279.52 188.44c-.22-1.72.75-13.52-3.76-19.96-4.5-6.44-21.23-5.48-27.36-5.26-14.8.54-24.26-6.79-28.97-15.34l-5.26-9.55s3.33-3.97 1.18-9.23c0 0-4.61.32-6.87 5.37 0 0-4.76-2.04-8.33-.75 0 0-2.07-5.37-6.69-6.23 0 0-2.79 5.58-.53 8.9 0 0-7.43 6.08-10.47 11.27-3 5.16-3.05 12.45 3.6 13.63 6.65 1.18 15.88-3.75 15.88-3.75s1.93 13.94 6.12 19.74c0 0-12.09 8.84-17.69 18.53 0 0 .39 2.07 2.17 2.4 0 0 14.44-9.77 19.16-11.6 0 0 2.58-.42 1.83 1.61 0 0-9.27 8.91-13.38 15.89 0 0-.25 3.21 2.54 2.57 0 0 11.59-9.87 18.35-13.2 0 0 25.64 7.73 41.74 6.23 0 0 17.92 12.66 22.96 14.8 0 0 2.15-.1 2.36-2.14 0 0-16.41-14.88-16.1-16.56.33-1.68 3.12-1.47 5.8.46 2.69 1.93 16.1 13.3 16.1 13.3s1.93.12 2.04-1.92c0 0-16.2-17.5-16.42-19.21z" fill="#f9eff7" stroke-width=".55"/><path d="M186.24 143.93a3.65 3.65 0 0 0 4.56 1.58c.63-.28 1.2-.81 1.3-1.5M197.9 144.28a4.01 4.01 0 0 0 3.12 1.97c1.28.08 2.6-.63 3.15-1.8M183.04 155.93c.02-.46.4-.89.87-.96.46-.07.95.23 1.1.66M190.52 156.28c.02.07-.11.08-.14.02-.03-.07.02-.14.07-.2.3-.33.78-.47 1.22-.36.43.12.78.48.87.92" fill="none" stroke-width=".39"/><path d="M281.26 169.76c1.25-.44 1.94-1.8 2.46-3.02s.84-2.5 1.39-3.7a10.7 10.7 0 0 1 6.56-5.73c2.3-.69 4.81-.57 7.12.14 1.03.32 2.04.76 2.86 1.47.85.73 1.45 1.7 2.18 2.55 2.44 2.9 6.44 4.41 10.2 3.86s7.14-3.15 8.65-6.63c-.18 3.72-1.87 7.76-4.96 9.84-2.8 1.87-5.46 2.08-5.46 2.08a14.05 14.05 0 0 0 6.58 2.4c-1.66 3.46-3.91 5.82-6.87 6.5.69.67 1.6 1.1 2.55 1.18-.7 1.96-2.1 3.75-4.04 4.5a8.05 8.05 0 0 1-3.2.4 14.7 14.7 0 0 1-11.81-7.09c-.86-1.45-1.47-3.07-2.62-4.3-2.14-2.29-5.82-2.68-8.7-1.46-1.08.45-2.08 1.1-3.2 1.41-1.13.32-2.09.3-2.87-.57 0 0-.88-2.5-1.7-4.13-.03-.06 2.57 1.11 4.88.3z" fill="#c5bcdc" stroke-width=".6"/><path d="M247.61 163.05c1.73-2.86 1.56-6.44 1.34-9.78-.25 1.25-1.36 2.2-2.58 2.56a7.87 7.87 0 0 1-3.77-.02 13.76 13.76 0 0 0 2.03-7.1 7.8 7.8 0 0 1-9.3 2.47c1.43-.24 2.56-1.4 3.1-2.73.54-1.34.57-2.82.45-4.26a11.14 11.14 0 0 1-9.47.9c-.1-.04 1.94-.84 2.85-2.21a9.18 9.18 0 0 0 1.5-5.48c-.23.86-1.16 1.34-2.02 1.57a8.4 8.4 0 0 1-5.84-.6c-1.66-.83-2.99-2.18-4.5-3.26-1.5-1.08-3.38-1.9-5.18-1.46 0 0-.44 2.96-2.05 4.68l5.5 9.96s3.3 7.64 12.85 11.93c9.55 4.3 15.1 2.83 15.1 2.83zM198.6 131.01l.55-16.93s.5-.97 1 0 8.81 19.45 8.81 19.45l-.48.94s-5.08-2.25-8.33-.75c0 0-.47-1.45-1.55-2.7z" fill="#faee81" stroke-width=".6"/><path d="M219.56 141.43c1.01.03 2.04.05 3.02.3.88.2 1.7.58 2.54.89 1.5.53 3.07.85 4.66.94.63.03 1.29.02 1.85-.25 1.14-.56 1.54-1.95 1.8-3.19.13-.56.25-1.13.16-1.69a18.9 18.9 0 0 1-3.14.59 7.7 7.7 0 0 1-1.65.02c-.66-.07-1.3-.28-1.93-.5a7.53 7.53 0 0 1-2.45-1.15c-.55-.44-.95-1.02-1.45-1.5-1.59-1.56-3.9-2.05-6.1-2.46-.13-.03-.27-.05-.4 0-.12.07-.19.21-.25.34l-1.84 4.13c-.06.12-.11.25-.09.38.01.09.06.16.1.24l1.09 1.8c.24.39.52 1.18.95 1.4.42.23.93-.11 1.36-.2.58-.1 1.18-.09 1.77-.09z" fill="#e27fb8" stroke-width=".6"/><path d="M224.87 148.74c1.52.52 2.9 1.38 4.35 2.07.47.22.94.43 1.44.55 1.21.3 2.48.1 3.7-.12.62-.1 1.24-.22 1.8-.49a4.63 4.63 0 0 0 2.24-2.87c.37-1.2.4-2.46.43-3.71-.37.66-1.2.88-1.93 1.03-1.3.27-2.6.53-3.92.56a7.72 7.72 0 0 1-3.83-.81c.63-.59 1.78-.6 2.1-1.4-1.4.2-2.86.05-4.2-.45-.73-.27-1.43-.65-2.16-.95a11.8 11.8 0 0 0-8.36-.24c-.11.05-.24.1-.3.21-.05.1-.02.23.02.35.6 1.95 2.1 3.76 3.24 5.44.56.83 1.08.67 1.98.51a6.82 6.82 0 0 1 3.4.32z" fill="#c5bcdc" stroke-width=".6"/><path d="M228.02 157.69c1.43-.84 3.1-.46 4.74-.2 1.84.3 3.72.5 5.55.18a7.42 7.42 0 0 0 4.74-2.65c1.38-1.83 1.53-4.29 1.63-6.58-.87 1.6-2.52 2.7-4.3 3.09s-3.39.4-5.04-.35c-2.46.76-5.38.21-7.7-.9-.7-.33-1.35-.73-2.05-1.03a6.97 6.97 0 0 0-5.49-.21c1.8 3.08 2.88 4.56 5.07 6.49 1.01.88 1.99 1.58 2.85 2.16z" fill="#bfe8da" stroke-width=".6"/></g><path d="M418.86 86.17a9.15 9.15 0 0 0-1.9-2.12 85.21 85.21 0 0 0-10.54-8.08c3.03-12.9.72-27.98-6.35-39.19l-6.5-8.93s.88-6.34-4.57-11.35c0 0-5.45 5.16-5 11.35 0 0-12.24 3.83-17.4 13.4-5.15 9.59 3.69 11.65 7.67 11.5 1.75-.06 5.3-.5 9.32-1.49.15.65.87 4.4-3.58 5.62-4.86 1.32-29.32 2.2-36.83 7.37l-2.14 2.21c-1.55 2.02-2.1 6.04-1.72 9.21.33 2.83 1.38 5.55 1.52 8.4.03.78-.02 1.63-.51 2.25-.47.59-1.24.84-1.98 1-1.75.38-3.58.43-5.35.15-1.96-.3-4.08-1-5.83-.05-1.84.99-2.39 3.32-2.92 5.35a37.56 37.56 0 0 1-5.68 12.18c.32.92 1.51 1.29 2.45 1.03a5.9 5.9 0 0 0 2.4-1.63c1.03-1 2.07-2 2.9-3.17.88-1.25 1.5-2.67 2.41-3.9.9-1.23 2.2-2.31 3.73-2.42.72-.06 1.43.1 2.14.28 3.54.85 7.12 1.81 10.77 1.65 3.64-.16 7.43-1.65 9.4-4.7a162.8 162.8 0 0 0 46.35-.41c1.72-.27 3.95-.31 4.67 1.27.32.7.21 1.53.06 2.29a33.74 33.74 0 0 1-3.08 8.96c.06.74.87 1.1 1.57.86.7-.24 1.19-.87 1.61-1.47 1.21-1.7 2.35-3.46 3.42-5.25 1.45-2.42 2.8-5.39 1.63-7.95-.56-1.25-1.65-2.19-2.75-3A31.06 31.06 0 0 0 399.9 83c3.39-.17 6.7.93 9.9 2.03 2.2.74 4.6 1.67 5.62 3.75.58 1.2.6 2.57.56 3.9-.1 2.91-.4 5.82-.91 8.69.57.37 1.49.16 2.03-.25.54-.42.86-1.05 1.12-1.68.98-2.4 1.18-5.05 1.36-7.65.14-1.91.25-3.96-.72-5.62z" fill="#f9eff7" stroke="#3c3c3b" stroke-width=".55" stroke-linecap="round" stroke-linejoin="round" stroke-miterlimit="10"/><path d="M376.78 31.23l-5.46-19s.02-2.24 1.33-1.03c1.08 1 11.36 15 11.36 15" fill="#faee81" stroke="#3c3c3b" stroke-width=".55" stroke-linecap="round" stroke-linejoin="round" stroke-miterlimit="10"/><path d="M376.96 36.02c-.2 1.2.48 2.5 1.58 3.04 1.1.53 2.54.26 3.37-.65.44-.48.7-1.1.89-1.73.1-.36.18-.75.02-1.09" fill="none" stroke="#3c3c3b" stroke-width=".39" stroke-linecap="round" stroke-linejoin="round" stroke-miterlimit="10"/><path d="M369.2 47.12l.02-.18c0-.2.02-.41.2-.57.27-.24.9-.23 1.16.02.2.2.16.46.18.7" fill="none" stroke="#3c3c3b" stroke-width=".48" stroke-linecap="round" stroke-linejoin="round" stroke-miterlimit="10"/><path d="M343.55 64c-2.2-.02-4.2-2.26-4.77-4.4-.57-2.12-.4-4.39-.86-6.55a12.67 12.67 0 0 0-8.35-9.16 14.36 14.36 0 0 0-12.4 1.88c-2.1 1.44-3.8 3.37-5.56 5.2-1.76 1.84-3.66 3.63-6 4.65-2.32 1.03-5.18 1.18-7.32-.2 1.09 2.04 2.19 4.09 3.69 5.84s3.44 3.22 5.7 3.71a12 12 0 0 0 5.35-.24c2.48-.6 5-1.7 6.42-3.81.44.99.14 2.18-.49 3.07a9.52 9.52 0 0 1-2.41 2.16c3.33.68 7-.66 9.09-3.34.78-.99 1.36-2.15 2.35-2.93a4.46 4.46 0 0 1 6.34 1.2c.4.69.6 1.49 1 2.2 1.05 1.84 3.26 3.81 5.23 3.8 0 0 .77-1.47 2.99-3.08z" fill="#c2498e" stroke="#3c3c3b" stroke-width=".55" stroke-linecap="round" stroke-linejoin="round" stroke-miterlimit="10"/><path d="M334.46 78.73c-2.08-.62-3.51-2.51-5.4-3.58a2.26 2.26 0 0 0-1.03-.34c-.57-.01-1.07.33-1.55.62-4.46 2.76-10.04 2.74-15.29 2.62-.68.93-.22 2.35.7 3.05.92.7 2.13.84 3.28.9 2.63.1 5.26-.2 7.85-.7.9-.17 1.9-.35 2.68.15 1.14.74 1.07 2.48 1.97 3.5.73.84 1.95 1.02 3.05 1.14l4.7.54c1.13.12 2.28.25 3.4.03 1.1-.23 1.46-.3 1.94-1.33.56-1.18-1.15-7.86-1.15-7.86-1.5.7-3.4 1.78-5.15 1.26z" fill="#f9eff7" stroke="#3c3c3b" stroke-width=".55" stroke-linecap="round" stroke-linejoin="round" stroke-miterlimit="10"/><path d="M385.17 22c-1.03-.88-2.83-1.34-4.08-.82a10.18 10.18 0 0 0-3.2 2.44c-.95.97-1.9 1.97-3.08 2.62a6.46 6.46 0 0 1-6.01.05 7.36 7.36 0 0 0 5.74 5.02c.4.06.8.09 1.19.03a7.63 7.63 0 0 0 1.79-.54 52.4 52.4 0 0 1 6.47-2.95s-.33-2.59 1.18-5.86z" fill="#c2498e" stroke="#3c3c3b" stroke-width=".55" stroke-linecap="round" stroke-linejoin="round" stroke-miterlimit="10"/><g stroke="#3c3c3b" stroke-width=".43" stroke-linecap="round" stroke-linejoin="round" stroke-miterlimit="10"><path d="M422.59 242.83c4.7 1.44 9.77 2.4 14.62 1.6 16.7-2.8 30.66-20.32 24.03-16.25-2.33 1.44-4.44 3.2-6.77 4.65a29 29 0 0 1-25.26 2.36c-2.31-.9-4.53-2.1-6.29-3.84-2.04-2.02-3.35-4.65-4.94-7.04-1.9-2.87-4.27-5.5-7.3-7.14s-6.74-2.2-9.93-.93c-5.27 2.09-7.72 8.98-12.75 11.58-4.3-.8-6.69-5.33-8.45-9.33l-12.79-29.03c-1.74-3.96-3.65-8.11-7.2-10.58-2.35-1.64-5.23-2.36-8.08-2.65-5.43-.54-11.49.73-14.87 5.02-4.01 5.06-2.62 13.25 2.42 17.27 5.05 4.03 12.75 3.87 18.1.24a3.8 3.8 0 0 1 2.28 1.67c5.6 8.07 8.2 17.76 11.42 27.04s7.42 18.71 15.14 24.78a30.78 30.78 0 0 1 1.17 12.04c1.14.8 2.84.2 3.68-.92.85-1.11 1.07-2.57 1.26-3.95l.7-5.05c.05-.35.1-.72.32-1 .3-.37.8-.5 1.28-.59 5.83-1.18 11.68-2.3 17.54-3.36.47-.08 1.02-.14 1.36.19.23.22.3.55.35.87.47 2.85.75 5.73.83 8.62 1.93.06 4.26-.09 5.2-1.78.3-.55.4-1.2.5-1.84.6-4.22 1.82-8.43 2.43-12.65z" fill="#bfe8da"/><path d="M386.95 258.75c-.28.81-.34 1.7-1.12 2.05s-1.68.27-2.53.2c.43-4.26.01-8.6-1.22-12.7 0 0 1.15 1.93 3.9 3.96 0 0 1.54 4.8.97 6.5zM414 253.6c.1.98-.21 1.92-1.05 2.44-.83.52-1.97.52-2.8-.01a17.9 17.9 0 0 0-.22-6.24s2.6-.83 3.35-.18c.4.35.72 4 .72 4z" fill="#bfe8da"/><path d="M347.47 185.71c.1-1.56 1.34-2.98 2.87-3.29s3.22.5 3.93 1.9M339.5 198.5c4.5.15 9.03-.7 13.17-2.47" fill="none"/><path d="M409.5 224.11c.51-.28 1.02-.6 1.33-1.08.28-.42.39-.93.47-1.42.23-1.45.2-3.1-.82-4.16a5.3 5.3 0 0 0-2.73-1.37c-2.2-.52-4.8-1.12-7.04.03-3.09 1.57-7.84 5.12-4.9 8.24 3.2 3.4 10.27 1.67 13.7-.24zM407.64 230.02c-2.02.67-2.23 1.67-3.4 3-.41.49-.86 1.01-.95 1.65-.15 1.04.73 2.01 1.74 2.3 1.01.3 2.1.1 3.11-.18 1.83-.48 3.88-1.42 4.27-3.28a3.14 3.14 0 0 0-1.33-3.12 3.85 3.85 0 0 0-3.44-.37M387.5 227.74c-.35.3-.04.87.3 1.2 1.03 1 2.27 1.8 3.6 2.33 1.11.44 2.54.63 3.36-.24.61-.66.61-1.72.23-2.54a6.9 6.9 0 0 0-1.72-2.07l-1.14-1.05c-.16-.14-.4-.5-.54-.35-.87 1.01-3.17 2.57-4.09 2.72M416.77 222.87c-1.5.78-1.86 2.99-.94 4.4.92 1.42 3.3 1.75 4.97 1.48-1.1-2.42-2.33-4.5-4.29-6.08" fill="#faee81"/></g><g stroke="#3c3c3b" stroke-width=".41" stroke-linecap="round" stroke-linejoin="round" stroke-miterlimit="10"><path d="M44.79 121.78c-3.52 3.05-7.56 5.83-12.07 6.99-15.55 3.98-34.38-5.87-27.07-4.88 2.57.35 5.08 1.07 7.66 1.43a27.5 27.5 0 0 0 22.8-7.63 17.08 17.08 0 0 0 3.99-5.74c1-2.54 1.13-5.31 1.59-8 .54-3.21 1.6-6.4 3.58-8.99 2-2.58 5.01-4.49 8.27-4.61 5.37-.2 10.13 4.83 15.5 5.16 3.42-2.35 3.75-7.18 3.75-11.33l-.04-30.08c0-4.1.06-8.43 2.2-11.93 1.4-2.32 3.62-4.06 5.99-5.4 4.5-2.54 10.24-3.76 14.82-1.35 5.42 2.86 7.35 10.49 4.52 15.92s-9.58 8.24-15.6 7.13a3.6 3.6 0 0 0-1.35 2.33c-1.76 9.14-.3 18.55.46 27.83s.74 19.07-3.63 27.3a29.18 29.18 0 0 0 3.6 10.88c-.69 1.14-2.39 1.26-3.55.62-1.16-.65-1.9-1.82-2.6-2.95l-2.54-4.11a1.94 1.94 0 0 0-.67-.74c-.4-.22-.88-.12-1.32-.03a811.47 811.47 0 0 0-16.51 3.81c-.44.11-.94.27-1.1.68-.12.28-.05.6.03.89a61.14 61.14 0 0 0 2.57 7.8c-1.64.8-3.72 1.55-5.18.45-.48-.37-.81-.9-1.14-1.4-2.15-3.43-4.81-6.62-6.96-10.05z" fill="#bfe8da"/><path d="M81.8 121.93c.55.6.95 1.35 1.76 1.35.8 0 1.56-.4 2.27-.8-2-3.53-3.31-7.45-3.81-11.48 0 0-.27 2.12-1.86 4.92 0 0 .5 4.77 1.64 6.01zM56.37 127.83c.28.9.92 1.59 1.84 1.72.93.13 1.91-.31 2.43-1.09a16.98 16.98 0 0 1-2.2-5.5s-2.58.28-2.98 1.14c-.22.46.91 3.73.91 3.73z" fill="#bfe8da"/><path d="M88.05 43.46c-.69-1.32-2.3-2.07-3.75-1.76s-2.6 1.68-2.68 3.16M99.86 51.5a29.39 29.39 0 0 1-12.36 2.9" fill="none"/><path d="M48.96 100.53a3.45 3.45 0 0 1-1.56-.43c-.4-.26-.7-.65-.95-1.05-.76-1.17-1.37-2.62-.89-3.92a5.03 5.03 0 0 1 1.85-2.24c1.7-1.29 3.72-2.8 6.12-2.67 3.27.18 8.76 1.44 7.4 5.27-1.48 4.18-8.27 5.39-11.97 5.05zM52.85 104.94c2-.2 2.57.6 4.09 1.3.55.27 1.13.55 1.46 1.07.53.84.14 2.02-.63 2.67-.76.64-1.78.87-2.76 1.03-1.78.28-3.92.25-4.96-1.2-.66-.93-.64-2.26-.04-3.23s1.7-1.56 2.84-1.64M69.44 95.25c.42.12.37.74.2 1.15a10.65 10.65 0 0 1-2.24 3.4c-.79.81-1.95 1.53-3 1.08-.78-.33-1.19-1.26-1.17-2.11.01-.86.36-1.67.7-2.46l.59-1.34c.08-.19.14-.6.33-.5 1.14.53 3.73 1 4.59.78M42.18 102.24c1.6.1 2.77 1.88 2.5 3.46-.25 1.58-2.18 2.78-3.74 3.18.03-2.51.3-4.8 1.39-6.91" fill="#faee81"/></g><g><path d="M92.66 244.63c.42-.07 0-.84 0-1.27 0 0-.13-13.26 14.45-15.15s16.28 12.36 16.28 12.36 2.69-.12 4.71 1.9c0 0 2.9-4 8.11-5.02 0 0-4.12-25.46-30.04-22.88-26.69 2.67-26.15 28.86-26.15 28.86s6.01-2.5 8.88 3.38c0 0 1.18-1.76 3.76-2.18z" fill="#faee81" stroke="#3c3c3b" stroke-width=".58" stroke-linecap="round" stroke-linejoin="round" stroke-miterlimit="10"/><path d="M82.83 242.54s1.37-21.5 23.91-24.41c21.4-2.77 26.54 19.78 26.54 19.78l-3.09 2.45s-4.74-21.46-23.05-18.5c-18.31 2.97-20.5 21.38-20.5 21.38l-3.8-.7z" fill="#e27fb8"/><path d="M89.22 246.43s-.22-6.21 2.7-11.65c2.92-5.43 9.02-8.85 16.28-9.6 7.27-.76 12.65 2.49 15.06 7.59s3.16 8.68 3.16 8.68l1.68 1.02 2.1-2.1s-1.8-9.86-10.62-16.22-20.33-.27-20.33-.27-10.59 3.2-12.61 19.36c0 0 1.74.5 2.58 3.19z" fill="#c5bcdc"/><path d="M92.8 244.9s-1.24-14.34 13.9-16.63 16.7 12.3 16.7 12.3l3.46 1s-.86-8.51-6.8-13.56c-4.66-3.96-12.6-4.46-19.3-1.26-6.69 3.19-10.96 8.32-11.42 19.99 0 0 1.4-1.66 3.45-1.84z" fill="#bfe8da" stroke="#3c3c3b" stroke-width=".58" stroke-linecap="round" stroke-linejoin="round" stroke-miterlimit="10"/><path d="M78.05 244.97a7.23 7.23 0 0 1 6.13-2.38 6.46 6.46 0 0 1 5.16 4.15c1.8-2 5.02-2.56 7.26-1.04 2.23 1.53 3 5.1 1.38 7.28 1.32.05 2.45 1.26 2.68 2.62s-.35 2.76-1.29 3.7c-.93.96-2.2 1.5-3.48 1.8-1.76.4-3.83.25-5.07-1.14a6.5 6.5 0 0 1-6.36 3.85 6.85 6.85 0 0 1-5.75-4.93c-1.66 1.32-3.75 2.15-5.84 1.89s-4.09-1.78-4.64-3.9c-.56-2.17.52-4.54 2.25-5.85a7.59 7.59 0 0 1 2.87-1.3c.65-.15 2.82-.3 2.82-.3s.32-1.42.5-2.06c.25-.9.77-1.72 1.38-2.39z" fill="#f5f5f5" stroke="#3c3c3b" stroke-width=".57" stroke-linecap="round" stroke-linejoin="round" stroke-miterlimit="10"/><path d="M123.4 240.57a8.61 8.61 0 0 0-8.22 5.8c-.55 1.73-.5 3.72.52 5.2a6.15 6.15 0 0 0 4.16 2.38c1.63.26 3.28.07 4.91-.15.23 1.03 1.08 1.8 1.97 2.37 1.61 1.03 3.58 1.63 5.45 1.23 1.86-.41 3.52-2.02 3.58-3.93.47.92 1.53 1.43 2.56 1.48a6.94 6.94 0 0 0 3-.68 7.97 7.97 0 0 0 2.86-1.81c.77-.84 1.24-2.01 1-3.12-.23-1.12-1.3-2.06-2.43-1.93 1.23-.5 1.68-2.03 1.6-3.35a7.22 7.22 0 0 0-4.5-6.18 8.64 8.64 0 0 0-6.82.5c-1.04.52-1.99 1.2-2.84 1.98-.51.46-2.1 2.1-2.1 2.1s-1.16-.67-1.68-1.01c-.9-.6-1.96-.84-3.03-.88z" fill="#f5f5f5" stroke="#3c3c3b" stroke-width=".58" stroke-linecap="round" stroke-linejoin="round" stroke-miterlimit="10"/><path d="M86.58 242.88s-.06-17.23 17.93-20.9 24.15 11.35 25.69 18.38" fill="none" stroke="#3c3c3b" stroke-width=".57" stroke-linecap="round" stroke-linejoin="round" stroke-miterlimit="10"/><path d="M83.21 242.54s1.1-21.47 22.89-24.33 26.94 20.18 26.94 20.18" fill="none" stroke="#3c3c3b" stroke-width=".57" stroke-linecap="round" stroke-linejoin="round" stroke-miterlimit="10"/><path d="M76.33 253.52c.08-.54.44-1.01.9-1.3s1.02-.42 1.57-.45c.5-.02 1.02.04 1.47.26.46.23.83.64.94 1.13" fill="#f5f5f5" stroke="#3c3c3b" stroke-width=".57" stroke-linecap="round" stroke-linejoin="round" stroke-miterlimit="10"/><path d="M87.33 252.54c.46-.9 1.43-1.5 2.44-1.51s2 .55 2.48 1.43M83.13 254.6c-.02.5.1 1.04.43 1.41.34.38.93.54 1.36.28.5-.3.6-.98.6-1.56M123.68 246.41c1.16-.1 2.35.35 3.16 1.19l-2.2 1 .21-.2M136.34 244.03c.07-.06-.09-.11-.17-.06a6.62 6.62 0 0 0-2.06 2.11 5.46 5.46 0 0 1 3.1-.19M129.46 248.36c-.25-.06-.45.24-.46.5 0 .48.42.93.9.95.48.01.94-.4.96-.89.26.59 1.1.81 1.61.44s.57-1.23.1-1.67" fill="none" stroke="#3c3c3b" stroke-width=".57" stroke-linecap="round" stroke-linejoin="round" stroke-miterlimit="10"/><ellipse transform="rotate(-.67 76.7 254.47)" cx="76.76" cy="254.68" rx="1.48" ry="1.06" fill="#edcac7"/><ellipse transform="rotate(-.67 92.57 253.94)" cx="92.64" cy="254.15" rx="1.48" ry="1.06" fill="#edcac7"/><ellipse transform="rotate(-9.24 124.74 250.32)" cx="124.72" cy="250.29" rx="1.48" ry="1.06" fill="#edcac7"/><ellipse transform="rotate(-9.24 137.52 247.66)" cx="137.51" cy="247.64" rx="1.48" ry="1.06" fill="#edcac7"/></g><g><path d="M509.06 38.17c.41.12.36-.76.54-1.15 0 0 5.53-12.05 19.53-7.57 14 4.49 9.47 18.12 9.47 18.12s2.49 1.03 3.46 3.71c0 0 4.31-2.37 9.47-1.08 0 0 7.1-24.8-17.46-33.48-25.28-8.94-35.93 14.99-35.93 14.99s6.5.29 6.6 6.83c0 0 1.81-1.09 4.32-.37z" fill="#faee81" stroke="#3c3c3b" stroke-width=".58" stroke-linecap="round" stroke-linejoin="round" stroke-miterlimit="10"/><path d="M501.06 32.1s10.38-18.88 32.02-11.93c20.54 6.6 15.6 29.2 15.6 29.2l-3.83.9s4.83-21.44-13-26.55c-17.83-5.1-27.64 10.63-27.64 10.63l-3.15-2.25z" fill="#e27fb8"/><path d="M505.18 38.33s2.45-5.71 7.4-9.39c4.95-3.68 11.93-4.17 18.82-1.77s10.4 7.64 10.4 13.28-.83 9.2-.83 9.2l1.1 1.63 2.78-1s2.57-9.68-2.71-19.2-18.29-8.89-18.29-8.89-10.94-1.6-19.64 12.16c0 0 1.36 1.2.97 3.98z" fill="#c5bcdc"/><path d="M509.07 38.47s4.98-13.5 19.66-9.14 9.87 18.24 9.87 18.24l2.71 2.38s2.85-8.07-.38-15.16c-2.54-5.58-9.5-9.4-16.94-9.36-7.4.04-13.45 2.87-18.83 13.23 0 0 1.97-.9 3.9-.19z" fill="#bfe8da" stroke="#3c3c3b" stroke-width=".58" stroke-linecap="round" stroke-linejoin="round" stroke-miterlimit="10"/><path d="M495.7 32.26a7.22 7.22 0 0 1 6.55.46 6.46 6.46 0 0 1 2.91 5.95c2.49-1.05 5.63-.18 7 2.15s.56 5.89-1.83 7.17c1.17.6 1.68 2.19 1.3 3.5a4.4 4.4 0 0 1-2.73 2.82 6.98 6.98 0 0 1-3.91.14c-1.77-.4-3.58-1.4-4.11-3.19a6.5 6.5 0 0 1-7.4.78 6.85 6.85 0 0 1-3.1-6.9c-2.06.48-4.31.34-6.09-.78a5.53 5.53 0 0 1-2.54-5.5c.41-2.2 2.4-3.9 4.52-4.34a7.59 7.59 0 0 1 3.15.04c.65.14 2.68.94 2.68.94s.9-1.15 1.33-1.67c.6-.7 1.43-1.22 2.26-1.57z" fill="#f5f5f5" stroke="#3c3c3b" stroke-width=".57" stroke-linecap="round" stroke-linejoin="round" stroke-miterlimit="10"/><path d="M538.6 47.57a8.61 8.61 0 0 0-9.9 1.76c-1.23 1.32-2.02 3.15-1.73 4.93.26 1.62 1.39 3 2.75 3.92s2.94 1.45 4.5 1.95c-.23 1.03.22 2.09.78 2.98 1.02 1.61 2.55 3 4.4 3.43 1.87.42 4.06-.33 4.92-2.04.04 1.04.78 1.95 1.7 2.44.9.49 1.96.62 3 .66 1.13.05 2.3 0 3.35-.43a3.64 3.64 0 0 0 2.24-2.4c.26-1.1-.3-2.41-1.38-2.77 1.32.06 2.38-1.13 2.87-2.35 1.01-2.5.42-5.57-1.45-7.51a8.64 8.64 0 0 0-6.38-2.44c-1.17.02-2.31.23-3.42.57-.66.2-2.8 1.01-2.8 1.01s-.76-1.1-1.08-1.63a5.74 5.74 0 0 0-2.37-2.08z" fill="#f5f5f5" stroke="#3c3c3b" stroke-width=".58" stroke-linecap="round" stroke-linejoin="round" stroke-miterlimit="10"/><path d="M504.3 34s7.28-15.62 25.12-11.3c17.85 4.33 17.04 20.55 15.43 27.57" fill="none" stroke="#3c3c3b" stroke-width=".57" stroke-linecap="round" stroke-linejoin="round" stroke-miterlimit="10"/><path d="M501.4 32.26s10.13-18.97 31.06-12.28c20.93 6.68 15.8 29.72 15.8 29.72" fill="none" stroke="#3c3c3b" stroke-width=".57" stroke-linecap="round" stroke-linejoin="round" stroke-miterlimit="10"/><path d="M490.5 39.27c.3-.46.84-.73 1.38-.8s1.1.06 1.6.27c.46.2.91.46 1.22.86.32.4.48.93.37 1.42" fill="#f5f5f5" stroke="#3c3c3b" stroke-width=".57" stroke-linecap="round" stroke-linejoin="round" stroke-miterlimit="10"/><path d="M500.88 43.06c.8-.61 1.93-.75 2.85-.33a2.85 2.85 0 0 1 1.64 2.36M496.2 43.14c-.23.45-.36.98-.22 1.46.15.48.62.88 1.12.83.58-.06.95-.63 1.2-1.16M536.38 52.98c1.1.4 1.99 1.31 2.36 2.41l-2.43-.04.29-.09M548.85 56.2c.1-.02-.03-.14-.12-.12-.99.13-1.94.49-2.77 1.03 1.04.1 2.06.5 2.88 1.15M540.78 57.2c-.2-.16-.5.02-.62.25-.22.44-.02 1.02.4 1.24s1.03.04 1.25-.39c-.01.64.65 1.2 1.27 1.09.63-.12 1.04-.88.8-1.47" fill="none" stroke="#3c3c3b" stroke-width=".57" stroke-linecap="round" stroke-linejoin="round" stroke-miterlimit="10"/><ellipse transform="rotate(-65.5 490.37 40.5)" cx="490.4" cy="40.5" rx="1.06" ry="1.48" fill="#edcac7"/><ellipse transform="rotate(-65.5 504.97 46.78)" cx="505" cy="46.77" rx="1.06" ry="1.48" fill="#edcac7"/><ellipse transform="rotate(-74.07 535.66 56.93)" cx="535.68" cy="56.93" rx="1.06" ry="1.48" fill="#edcac7"/><ellipse transform="rotate(-74.07 548.36 59.97)" cx="548.38" cy="59.97" rx="1.06" ry="1.48" fill="#edcac7"/></g><path d="M440.73 176.4s14.28-2.86 24 8.35c9.74 11.2 7.28 22.36 3.09 28.2-4.2 5.82-12.58 6.53-21.34 4.78-8.75-1.76-16.97-5.58-21.15-9.8-4.18-4.22-5.65-8.23-4.68-14.67.97-6.43 10.47-15.31 20.08-16.86z" fill="#fef6f3" stroke="#3c3c3b" stroke-width=".46" stroke-miterlimit="10"/><path d="M458.57 179.55s10.17-1.75 20.95.67c0 0 1.17 10.28-8.02 21.33 0 0 .9-13.01-12.93-22zM445.37 176.07s-7.65-7.09-18.1-10.7c0 0-5.73 7.54-3.72 21.77 0 0 8.21-11.48 21.82-11.06z" fill="#fef6f3" stroke="#3c3c3b" stroke-width=".39" stroke-miterlimit="10"/><ellipse transform="rotate(-74.13 429.96 201.55)" cx="429.97" cy="201.55" rx="1.74" ry="2.14" fill="#ffd0c7"/><ellipse transform="rotate(-74.13 457.9 209.97)" cx="457.9" cy="209.97" rx="1.74" ry="2.14" fill="#ffd0c7"/><g><circle cx="433.96" cy="197.61" r="2.78" fill="#1d1d1b"/><circle cx="434.71" cy="196.85" r="1.15" fill="#fff"/><circle cx="432.12" cy="198.22" r=".46" fill="#fff"/><g><circle cx="457.9" cy="204.41" r="2.78" fill="#1d1d1b"/><circle cx="456.05" cy="204.79" r=".46" fill="#fff"/><circle cx="458.7" cy="203.67" r="1.15" fill="#fff"/></g></g><path d="M440.68 203.66c-.33.78.14 1.72.86 2.16 1.08.65 2.66.27 3.33-.8-.26.82.42 1.67 1.19 2.07.59.3 1.28.46 1.93.3.64-.16 1.22-.67 1.33-1.32" fill="none" stroke="#3c3c3b" stroke-width=".49" stroke-linecap="round" stroke-linejoin="round" stroke-miterlimit="10"/><path d="M469.6 191.5c-.1-.2-.19-.42-.18-.64 0-.24.11-.46.22-.66a23.16 23.16 0 0 1 9.97-9.6c-.16.08-.14 2.69-.17 3.01a30.77 30.77 0 0 1-2.4 9.1 31.11 31.11 0 0 1-3.03 5.44c-.29.42-1.38 2.37-1.89 2.42-.67.07-.51-1.66-.59-2.23a25.07 25.07 0 0 0-1.93-6.84zM429.87 180.9c.19-.14.38-.27.5-.46.12-.2.14-.44.15-.68.26-4.67-.95-9.42-3.42-13.4.1.15-1.3 2.36-1.45 2.65-.45.94-.85 1.9-1.2 2.88-.72 1.98-.8 3.92-1.1 6-.3 2.06.05 9.42.42 8.97 1.5-1.84 4.14-4.63 6.1-5.97z" fill="#ffd0c7"/><path d="M463.55 208.2l4.57 1.08M462.74 210.67l3.76 1.92M422.07 197.99c.01.08.12.11.21.12l4.08.51M422.96 202.42l.5-.06c.4-.06.82-.1 1.23-.15.77-.07 1.56-.1 2.26-.4" fill="none" stroke="#3c3c3b" stroke-width=".39" stroke-linecap="round" stroke-linejoin="round" stroke-miterlimit="10"/><path d="M445.37 176.07s-7.65-7.09-18.1-10.7c0 0-5.73 7.54-3.72 21.77 0 0 8.21-11.48 21.82-11.06zM458.57 179.55s10.17-1.75 20.95.67c0 0 1.17 10.28-8.02 21.33 0 0 .9-13.01-12.93-22z" fill="none" stroke="#3c3c3b" stroke-width=".39" stroke-miterlimit="10"/><path d="M237.6 77.87s10.52-10.08 24.74-5.83c14.23 4.24 18.13 14.97 17.72 22.14s-7.1 12.27-15.44 15.48c-8.33 3.22-17.31 4.4-23.1 3.08-5.8-1.32-9.18-3.92-11.82-9.87-2.63-5.95.62-18.54 7.9-25z" fill="#fef6f3" stroke="#3c3c3b" stroke-width=".46" stroke-miterlimit="10"/><path d="M254.35 70.96s7.64-6.93 18.04-10.67c0 0 6.5 8.04 4.67 22.3 0 0-6.22-11.47-22.7-11.63zM241.34 75.1s-10.26-1.88-21 .67c0 0-.8 9.45 8.52 20.38 0 0 .78-14.1 12.48-21.05z" fill="#fef6f3" stroke="#3c3c3b" stroke-width=".39" stroke-miterlimit="10"/><ellipse transform="rotate(-16.56 242.63 104.83)" cx="242.6" cy="104.83" rx="2.25" ry="1.83" fill="#ffd0c7"/><ellipse transform="rotate(-16.56 271.19 96.16)" cx="271.15" cy="96.15" rx="2.25" ry="1.83" fill="#ffd0c7"/><g><circle cx="243.26" cy="99.4" r="2.78" fill="#1d1d1b"/><circle cx="243.49" cy="98.36" r="1.15" fill="#fff"/><circle cx="242.04" cy="100.9" r=".46" fill="#fff"/><g><circle cx="267.12" cy="92.3" r="2.78" fill="#1d1d1b"/><circle cx="265.76" cy="93.61" r=".46" fill="#fff"/><circle cx="267.39" cy="91.25" r="1.15" fill="#fff"/></g></g><path d="M252.18 100.9c.14.84 1.04 1.38 1.88 1.36a2.53 2.53 0 0 0 2.38-2.46c.22.84 1.25 1.19 2.12 1.11a2.8 2.8 0 0 0 1.79-.78c.46-.48.67-1.22.42-1.83" fill="none" stroke="#3c3c3b" stroke-width=".49" stroke-linecap="round" stroke-linejoin="round" stroke-miterlimit="10"/><path d="M270.06 75.13c-.18-.13-.38-.26-.5-.45-.12-.2-.14-.44-.16-.67-.31-4.68.84-9.44 3.26-13.45-.09.15 1.33 2.34 1.48 2.63a30.91 30.91 0 0 1 2.86 8.97c.32 2.06.45 4.14.36 6.22-.02.51.1 2.74-.3 3.06-.53.42-1.32-1.13-1.7-1.58a25.02 25.02 0 0 0-5.3-4.73zM230.85 87.48c.09-.2.18-.42.17-.64 0-.24-.12-.45-.23-.66a23.16 23.16 0 0 0-10.08-9.48c.16.08.17 2.7.2 3.02.13 1.03.3 2.06.53 3.07.45 2.06 1.43 3.74 2.3 5.66.84 1.9 5.08 7.91 5.15 7.34.29-2.36 1.02-6.13 1.96-8.3z" fill="#ffd0c7"/><path d="M273.91 92.46l4.44-1.53M274.56 94.99l4.2-.4M233.43 106.1c.06.06.16.03.25-.01l3.71-1.76M236.55 109.36l.4-.32c.31-.27.63-.53.96-.78.6-.48 1.25-.93 1.69-1.56" fill="none" stroke="#3c3c3b" stroke-width=".39" stroke-linecap="round" stroke-linejoin="round" stroke-miterlimit="10"/><path d="M241.34 75.1s-10.26-1.88-21 .67c0 0-.8 9.45 8.52 20.38 0 0 .78-14.1 12.48-21.05zM254.35 70.96s7.64-6.93 18.04-10.67c0 0 6.5 8.04 4.67 22.3 0 0-6.22-11.47-22.7-11.63z" fill="none" stroke="#3c3c3b" stroke-width=".39" stroke-miterlimit="10"/><path d="M415.72 52.92c-.7.86-1 1.97-1.16 3.06a7.14 7.14 0 0 0 .22 3.32 3.8 3.8 0 0 0 2.2 2.37c1.06.37 2.37.06 3-.87.55 1.02.5 2.3.02 3.34a6.02 6.02 0 0 1-2.31 2.52 8.64 8.64 0 0 1-7.87.64c-.63-.26-1.25-.64-1.53-1.26-.62-1.4-.61-3.39-.67-4.92-.08-2.6-.5-4.78-.98-7.57-.02-.13.2-1.46.3-1.54.07-.07.98 2.16 1.07 2.15 2.42-.3 5.28-.93 7.7-1.24z" fill="#c2498e" stroke="#3c3c3b" stroke-width=".48" stroke-linecap="round" stroke-linejoin="round" stroke-miterlimit="10"/><path d="M399.26 35.6c.14.2 5.6 3.18 10 1.2 4.42-1.99 4.07-6.2 4.07-6.2s-5.21 2.06-7.89-1.11c-2.67-3.17-4.8-8.36-12.33-6.33 0 0 .99 1.95.46 4.69 0 0 3.01 3.81 5.7 7.74z" fill="#c5bcdc" stroke="#3c3c3b" stroke-width=".55" stroke-linecap="round" stroke-linejoin="round" stroke-miterlimit="10"/><path d="M404.25 45.25s5.98 4.3 9.8 2.08 4.38-7.34 4.38-7.34-4.91 2.5-10.06-2.53c0 0-5.25.63-9.1-1.87 0 0 3.75 5.94 4.98 9.66z" fill="#bfe8da" stroke="#3c3c3b" stroke-width=".55" stroke-linecap="round" stroke-linejoin="round" stroke-miterlimit="10"/><path d="M410.32 54.81c1.72.78 3.03 2.4 4.8 3.02 1.6.57 3.44.23 4.8-.81a6.4 6.4 0 0 0 2.38-4.54c-.27.19-.59.26-.9.32-.82.16-1.66.33-2.47.15-1.6-.36-2.66-1.92-3.56-3.35l-1.18-1.9c-.05-.07-.1-.15-.18-.19-.13-.06-.28.01-.4.08-1.84.9-3.99.15-5.88-.6-1.18-.48-2.4-.99-3.24-1.99.24.3.26 1.38.34 1.76.13.65.3 1.01.45 1.66.29 1.25.7 2.57 1.04 3.8.23.87.18 1.79 1.06 2.04.98.27 1.96.1 2.94.55z" fill="#faee81" stroke="#3c3c3b" stroke-width=".56" stroke-linecap="round" stroke-linejoin="round" stroke-miterlimit="10"/><g><path d="M66.5 172.5s-2.9-.16-5.24-2.2a11.16 11.16 0 0 1-3.57-7.52c-.32-4.03 1.36-8.26 4.62-10.64 3.26-2.38 8.06-2.61 11.33-.23a11.43 11.43 0 0 1 3.81 5.36s-8.76 5.19-10.95 15.23zM121.4 166.64s3.22-.99 5.02-3.52a11.15 11.15 0 0 0 1.73-8.14c-.62-3.99-3.24-7.7-6.97-9.27-3.73-1.56-8.45-.67-11.07 2.4a11.43 11.43 0 0 0-2.47 6.1s9.3 3.17 13.77 12.43z" fill="#575756" stroke="#3c3c3b" stroke-width=".46" stroke-miterlimit="10"/><path d="M66.01 166.66a4.75 4.75 0 0 1-.77-1.55c-.28-1.17.23-2.37.86-3.39.74-1.22 1.73-2.38 3.07-2.88 1.35-.5 3.1-.1 3.76 1.17.08.15.14.32.12.49a1 1 0 0 1-.23.44c-.92 1.27-1.82 2.57-2.7 3.88-.73 1.1-1.48 2.98-2.51 3.79-.63-.49-1.15-1.3-1.6-1.95zM113.98 154.52c1.11-1.15 2.98-1.13 4.51-.69.75.22 1.49.52 2.08 1.02a4.2 4.2 0 0 1 1.33 3.69 5.87 5.87 0 0 1-1.92 3.5c-.24.23-.55.46-.88.38-.25-.07-.42-.3-.57-.5a18.73 18.73 0 0 0-3.68-3.77c-1.45-1.12-2.53-1.93-.87-3.63z" fill="#ffd0c7"/><path d="M78.13 156.4s13.6-10.19 29.3-2.75c15.7 7.44 18.57 20.85 17.02 29.29-1.55 8.44-10.02 13.36-20.07 15.76s-20.55 2.3-27-.25c-6.46-2.54-9.96-6.2-12.09-13.71-2.13-7.51 3.5-21.9 12.84-28.34z" fill="#fff" stroke="#3c3c3b" stroke-width=".46" stroke-miterlimit="10"/><ellipse transform="rotate(-8.77 112.82 185.82)" cx="112.81" cy="185.8" rx="3.55" ry="2.67" fill="#ffd0c7"/><ellipse transform="rotate(-8.77 80.42 190.82)" cx="80.41" cy="190.8" rx="3.55" ry="2.67" fill="#ffd0c7"/><path d="M91.14 187.6c.03.98.97 1.75 1.95 1.86 1.45.17 2.93-1 3.1-2.45.13 1 1.26 1.56 2.26 1.6.77.05 1.57-.13 2.18-.6s.96-1.3.77-2.04" fill="none" stroke="#3c3c3b" stroke-width=".57" stroke-linecap="round" stroke-linejoin="round" stroke-miterlimit="10"/><path d="M97.6 183.82c.12.7-.53 1.73-1.5 1.88s-1.9-.64-2.01-1.34c-.11-.7.6-1.39 1.56-1.54s1.85.3 1.96 1zM75.2 179.9s.7-3.62 5.4-5.4 6.97.46 8 2.06c1.05 1.6 1.79 6.4-2.43 9.51-4.23 3.12-8.34 1.82-9.99.23s-1.47-4.92-.99-6.4z" fill="#575756"/><circle cx="84.39" cy="178.08" r="1.89" fill="#fff"/><path d="M114.1 174.01s-1.77-3.24-6.78-3.52c-5.01-.28-6.51 2.54-7.02 4.38-.5 1.83.23 6.64 5.2 8.34 4.96 1.7 8.5-.79 9.59-2.8 1.1-2.02-.08-5.13-.99-6.4z" fill="#575756"/><circle cx="104.82" cy="174.93" r="1.89" fill="#fff"/><path d="M78.13 156.4s13.6-10.19 29.3-2.75c15.7 7.44 18.57 20.85 17.02 29.29-1.55 8.44-10.02 13.36-20.07 15.76s-20.55 2.3-27-.25c-6.46-2.54-9.96-6.2-12.09-13.71-2.13-7.51 3.5-21.9 12.84-28.34z" fill="none" stroke="#3c3c3b" stroke-width=".46" stroke-miterlimit="10"/><path d="M98.85 151.2a8.65 8.65 0 0 0-1.63-2.67c-.42-.46-.92-.9-1.52-1.02-1.13-.23-2.29.94-2.05 2.06a4 4 0 0 0-4.7-.53c-.43.25-.82.58-1.05 1.01-.3.58-.3 1.31.04 1.87s.97.92 1.62.93c-.49-.15-1.04.07-1.4.44a2.6 2.6 0 0 0-.62 1.38c-.12.72-.03 1.52.46 2.06.48.53 1.24.7 1.95.67a4.84 4.84 0 0 0 2.2-.6" fill="#fff" stroke="#3c3c3b" stroke-width=".46" stroke-linecap="round" stroke-linejoin="round" stroke-miterlimit="10"/></g><g><path d="M448.16 121.13s-2.9.13-5.44-1.65a11.16 11.16 0 0 1-4.33-7.11c-.74-3.97.5-8.36 3.5-11.06s7.75-3.44 11.24-1.4a11.44 11.44 0 0 1 4.35 4.93s-8.18 6.07-9.32 16.29zM502.17 109.62s3.09-1.32 4.62-4.01c1.4-2.48 1.6-5.53.88-8.28-1.03-3.9-4.02-7.34-7.89-8.5-3.87-1.17-8.47.2-10.77 3.53a11.44 11.44 0 0 0-1.82 6.32s9.58 2.2 14.98 10.94z" fill="#575756" stroke="#3c3c3b" stroke-width=".46" stroke-miterlimit="10"/><path d="M447.07 115.37a4.78 4.78 0 0 1-.93-1.47c-.4-1.13-.01-2.38.5-3.46.62-1.29 1.48-2.55 2.77-3.18 1.28-.63 3.06-.42 3.85.77.1.15.18.31.17.48 0 .17-.09.32-.17.46-.8 1.37-1.56 2.74-2.29 4.14-.62 1.18-1.17 3.12-2.1 4.03-.69-.42-1.28-1.17-1.8-1.77zM493.53 98.33c.99-1.25 2.84-1.42 4.42-1.15.76.14 1.53.36 2.17.8a4.2 4.2 0 0 1 1.7 3.53 5.88 5.88 0 0 1-1.54 3.7c-.22.24-.51.5-.84.45-.26-.04-.45-.25-.62-.44a18.67 18.67 0 0 0-4.05-3.37c-1.56-.96-2.72-1.65-1.24-3.52z" fill="#ffd0c7"/><path d="M458.06 103.9s12.48-11.53 28.86-5.75c16.39 5.78 20.63 18.81 19.96 27.37s-8.58 14.32-18.34 17.75c-9.75 3.44-20.2 4.4-26.88 2.54-6.69-1.85-10.54-5.13-13.44-12.39-2.9-7.25 1.22-22.14 9.84-29.52z" fill="#fff" stroke="#3c3c3b" stroke-width=".46" stroke-miterlimit="10"/><ellipse transform="rotate(-14.7 495.67 129.58)" cx="495.6" cy="129.56" rx="3.55" ry="2.67" fill="#ffd0c7"/><ellipse transform="rotate(-14.7 463.95 137.9)" cx="463.89" cy="137.88" rx="3.55" ry="2.67" fill="#ffd0c7"/><path d="M474.22 133.6c.13.97 1.16 1.64 2.14 1.65a2.93 2.93 0 0 0 2.84-2.76c.23.98 1.4 1.42 2.4 1.36.78-.04 1.56-.3 2.1-.83s.83-1.39.56-2.11" fill="none" stroke="#3c3c3b" stroke-width=".57" stroke-linecap="round" stroke-linejoin="round" stroke-miterlimit="10"/><path d="M480.27 129.17c.18.68-.36 1.78-1.3 2.03s-1.97-.44-2.14-1.13c-.18-.68.44-1.44 1.4-1.69.94-.25 1.86.1 2.04.79zM457.57 127.59s.34-3.68 4.82-5.94c4.48-2.25 6.98-.26 8.18 1.22 1.2 1.49 2.43 6.2-1.45 9.72-3.88 3.53-8.1 2.67-9.9 1.26s-1.98-4.74-1.65-6.26z" fill="#575756"/><circle cx="466.53" cy="124.83" r="1.89" fill="#fff"/><path d="M495.66 117.7s-2.1-3.03-7.11-2.8c-5.01.24-6.21 3.2-6.53 5.08-.31 1.88.92 6.59 6.04 7.76 5.1 1.18 8.36-1.65 9.24-3.77.88-2.12-.6-5.1-1.64-6.26z" fill="#575756"/><circle cx="486.52" cy="119.58" r="1.89" fill="#fff"/><path d="M458.06 103.9s12.48-11.53 28.86-5.75c16.39 5.78 20.63 18.81 19.96 27.37s-8.58 14.32-18.34 17.75c-9.75 3.44-20.2 4.4-26.88 2.54-6.69-1.85-10.54-5.13-13.44-12.39-2.9-7.25 1.22-22.14 9.84-29.52z" fill="none" stroke="#3c3c3b" stroke-width=".46" stroke-miterlimit="10"/><path d="M478.13 96.6a8.66 8.66 0 0 0-1.9-2.5c-.46-.41-1-.8-1.61-.85-1.14-.1-2.17 1.17-1.82 2.27a4.01 4.01 0 0 0-4.74-.05c-.4.3-.75.66-.94 1.12-.24.6-.15 1.33.24 1.85s1.06.82 1.7.75c-.5-.09-1.02.18-1.34.59-.3.4-.44.92-.47 1.44-.05.72.12 1.52.66 2 .53.47 1.3.56 2 .47.77-.1 1.51-.4 2.14-.83" fill="#fff" stroke="#3c3c3b" stroke-width=".46" stroke-linecap="round" stroke-linejoin="round" stroke-miterlimit="10"/></g></svg>