<svg viewBox="0 0 567 269" xmlns="http://www.w3.org/2000/svg"><path d="m281.23 263.93c-.23-.05-.06.18-.07.17 0-.04.05-.13.06-.17zm10.93-.38c.1.05.12.01.2-.05.03 0-.06-.24-.2.05z" fill="#d74c83"/><path d="m566 234.32c-12.8-7.55-126.92-4.33-149.78.85-22.05 5-7.85 7.57-9.13 14.18-1.28 6.6-73.54 4.96-78.02 11.1-4.48 6.13 44.11 7.88 44.11 7.88l192.4.65z" fill="#d7ecef"/><path d="m474.24 231.91c45.33-1.67 84.2.7 91.18 4.8m-197.1 31.62s-40.31-2.83-35.84-8.96c4.48-6.14 79.36-1.9 80.64-8.5s-23.81-10.7-1.76-15.7c9.26-2.1 34.21-3.48 61.47-3.88" style="fill:none;stroke:#1d1d1b;stroke-width:.5;stroke-linecap:round;stroke-linejoin:round;stroke-miterlimit:10"/><path d="m12.91 144.25s-4.45 3.5-.66 3.44 2.47-4.35.88-2.76c-1.58 1.6.73 6.05 2.5 3.7 1.78-2.33-2.48-7.47-4.66-3.65-3.29 5.74 8.55 6.92 6.81 1.92s-4.87-2.65-4.87-2.65zm52.01 28.17s45.18 50.04 48.44 96.58l102.93-2.06s-71.48-76.34-123.19-98.75l-6.51-.47s-3.03-4.42-4.43-4.89l-14.2.47s2.34 6.05-.46 7.68c-2.79 1.63-2.58 1.45-2.58 1.45z" fill="#f7d3e5"/><path d="m65.13 130.27 21.94-.33.54 32.85-24.55.33zm-16-23.53.12-41.34s4.41-3.03 7.52-.28c0 0 .52 32.42.78 33.72s-2.28 65.52-2.28 65.52c-1.89-.04-4.55.54-6.2-.78-1.16-.93-1.52-4.73-1.39-6.04.46-4.43.38-6.41.54-10.87.4-10.8.43-21.6.73-32.4.07-2.5.17-5.02.17-7.53zm29-13.59s.99-37.73 2.68-39.47c0 0 5.8-1.49 7.16.82 1.37 2.3-.38 53.1-1.52 54.72 0 0-8.39-.52-8.33-16.07zm6.65 28.69 2.43-2.1s8.03-.13 8.64.27l2.47 2.96-.17 2.48-13.33.04zm13.72-14.26 2.44-2.1s8.02-.13 8.63.28l2.47 2.96-.16 2.47-13.33.04-.04-3.65z" fill="#cacaca"/><path d="m52.89 126-.58-3.65 2.72-2.44s8.36-.62 8.9.47l2.46 2.15v2.46s-1.33 1.85-1.45 2.4c0 0-11.91-2.17-12.05-1.39zm-16.88-14.78-.74-3.31 3.5-2.62s6.73-.47 8.48.67a10.28 10.28 0 0 1 2.69 2.51l-.1 2.5s-12.02-1.94-13.83.25z" fill="#cacaca"/><path d="m54.12 164.36-.15-36.48s2.5-1.7 6.22-1.5 5.01 1.3 5.01 1.3-2.18 35.82-1.2 36.6c0 0-7.73-.31-9.88.08zm32.43-7.19-.4-30s2.5-1.7 6.21-1.51c3.72.2 5.02 1.3 5.02 1.3s-1.28 28.68-.3 29.46c0 0-8.39.36-10.53.75zm11.65-44.75s2.13 50.75.65 51.57c0 0 12.44 1.31 13.92-2.3 0 0-5.9-14.07-.82-48.78 0 0-6.22-2.7-13.18-.6m-61.22-9.11.17 2.88s5.11-1.96 9.53-.12l.18-4.08s-8.45-1.66-9.88 1.33zm62.33.2.17 2.87s5.11-1.95 9.54-.11l.17-4.08s-8.44-1.67-9.88 1.32zm-13.7 14.3.18 2.87s4.54-1.8 8.96.05l.17-4.08s-8.44-1.67-9.3 1.16zm-31.63.36.17 2.87s5.11-1.96 9.53-.12l.18-4.08s-8.45-1.66-9.88 1.33z" fill="#cacaca"/><path d="m35.53 111.68s7.27-4.44 14.3-.71l-1.89 1.77s-4.73-2.72-11.11.18zm62.53-.39s7.27-4.44 14.3-.71l-1.89 1.77s-4.39-1.88-11.11.18z" fill="#6f6f6e"/><path d="m78.55 49.1 1.87-2.1s4.99-.95 6.65.28l1.6 2.77-.13 2.48-9.96.22z" fill="#cacaca"/><path d="m80.1 44.83.13 2.87s3.44-1.86 6.51-.08l.13-4.08s-6.16-1.6-6.77 1.29z" fill="#cacaca"/><path d="m78.72 52.56s5.08-4.19 9.54-.5l-1.46 1.77s-2.15-2.75-6.4.15z" fill="#6f6f6e"/><path d="m48.14 60.47 1.87-2.1s6.18-.13 6.65.28l1.19 2.37-.03 2.66-9.65.44z" fill="#cacaca"/><path d="m49.56 56.29.13 2.87s3.86-1.65 6.68-.12l.14-4.07s-6.2-1.67-6.95 1.32z" fill="#cacaca"/><path d="m48.67 63.74s3.92-3.97 9-.17l-.65 1.74s-3.3-2.8-7.34-.32l-1-1.24zm35.32 62.59s7.27-4.43 14.3-.7l-1.89 1.77s-4.73-2.72-11.11.17zm-31.46 0s7.27-4.43 14.3-.7l-1.89 1.77s-4.73-2.72-11.11.17z" fill="#6f6f6e"/><path d="m35.82 166.46s2-35.68.8-53.5c0 0 7.43-4.21 10.69-.05 0 0-2.44 28.57.55 51.14 0 0-6.32 3.15-12.04 2.41z" fill="#cacaca"/><path d="m72.22 157.47s-.46-13.2 3.82-15.14c0 0 4.63 1.3 4.47 15.28z" fill="#8b5123"/><path d="m441.45 158.28s60.3-34.04 123.52-24.32" style="fill:none;stroke:#1d1d1b;stroke-width:.5;stroke-linecap:round;stroke-linejoin:round;stroke-miterlimit:10"/><path d="m55.16 42.9s-31.73 2.34-34.23-1.09 4.9-13.62 13.32-8.88c0 0 .65-8.53 11.43-6.18 0 0 6.19 2.64 5.61 8.95 0 0 4.57 2.03 1.2 7.57" fill="#d7ecef"/><path d="m54 43.16s-31.73 2.34-34.23-1.1c-2.5-3.43 4.9-13.62 13.32-8.88 0 0 2.16-9.3 12.69-6.25 0 0 5.44 2.32 4.86 8.63 0 0 5.15 3.02 1.1 7.74" style="fill:none;stroke:#1d1d1b;stroke-width:.5;stroke-linecap:round;stroke-linejoin:round;stroke-miterlimit:10"/><path d="m66.5 111.51s6.4-5.64 3.8-16.65l11.37-.23s-1.89 14.72 3.78 16.68l-18.94.2z" fill="#f7d3e5"/><path d="m84.38 111.31.57 18.47-17.59.49.19-18.45" fill="#cacaca"/><path d="m73.24 116.52s1.75-2.15 4.45-1.62c2.69.54 3.76 2.7 3.36 4.71-.4 2.02-2.42 3.5-3.77 3.5-1.34 0-6.73-1.34-4.04-6.59z" fill="#d7ecef"/><path d="m73.22 116.78s1.63-2 4.15-1.5 3.52 2.5 3.14 4.4c-.38 1.88-2.26 3.26-3.52 3.26s-6.28-1.26-3.77-6.16z" fill="none" stroke="#fff" stroke-miterlimit="10" stroke-width="1.3"/><path d="m48.47 52.87s5.16-13.22 4.6-24.33c0 0 1.88 21.7 5.74 24.64 0 0-6.33-1.85-10.34-.3zm30.56-11.67s5.03-12.91 4.62-23.77c0 0 .71 21.23 4.57 24.16 0 0-5.18-1.94-9.2-.4z" fill="#70247e"/><path d="m98.06 100.77s5.21-3.65 6.61-24.4c0 0 3.63 22 7.6 24.7 0 0-4.96-3.93-14.2-.3zm-14.01 14.78s5.4-2.64 6.09-23.65c0 0 5.22 19.93 8.05 24.09 0 0-4.89-4.07-14.14-.44zm-30.89-.41s1.57-2.93 6.76-23.85c0 0 2.47 21.81 6.45 24.5 0 0-3.96-4.28-13.2-.65zm-18.26-14.18s4.26-4.17 7.9-26.83c0 0 2.74 24.19 6.72 26.88 0 0-5.37-3.68-14.62-.05z" fill="#e446a4"/><path d="m82.76 17.88s-1.6-3.4-5-2.6c-3.42.8-3.42 3.2-5.02 3.4s-3.8-2-6.2-1.2c-2.41.8-3.4 4.7-6.2 4.7 0 0 5.07 1.4 6.47 0s.83-2.62 4.44-1.01c3.6 1.6 4.9-.09 7.7-.89s3.2.6 4.2 2" fill="#1ca8e0"/><g stroke-miterlimit="10" stroke-width=".5"><path d="m-.58 192.48c36.48-14.49 75.36-23.67 114.83-27.85 0 0 107.4-11.48 170.61 21.59" fill="none" stroke="#1d1d1b" stroke-linecap="round" stroke-linejoin="round"/><path d="m269.54 199.4c60.04-50.73 121.31-45.8 134.5-44.86 43.97 3.1 87.96 19.97 125.4 42.77 9.98 6.08 20.08 13.31 27.75 22.24" fill="none" stroke="#000"/><g stroke="#1d1d1b"><path d="m86.25 156.43-.2-29.27s5.4-2.12 10.4-.2v28.1m-12.2-29.51s10.13-2.36 13.5 0l.17-2.53s-5.56-3.98-13.67-.51l.34 3.71m2.19-5.57s4.33-1.7 8.44 0l.17-3.88c0-.25-1.66-.52-1.82-.55-.66-.11-7.24-.5-7.13.72z" fill="none" stroke-linecap="round" stroke-linejoin="round"/><path d="m85.91 116.85s-2.74.05-.53-1c2.22-1.07 12.78-.82 12.52.71-.1.58-2.26.73-2.26.73" fill="none" stroke-linecap="round" stroke-linejoin="round"/><path d="m84.9 115.4s4.53-2.88 5.88-23.58c0 0 3.08 19.26 7.03 23.88m-7.32-27.53-.58-.77s1.64-5.49 1.16-8.47c0 0-.1 7.6.77 8.28l-.49.96zm-3.7 28.19-.76-.44m2.15.13.02-.71m2.1.94v-1.09m2.02 1.01.14-.79m1.52.87 1.01-.65m.4 1.14 2.43-.32m-13.3 6.42s1.81-2.26 2.5-2.5m7.6-.91s2.98 2.66 3.23 3.34m-11.9-.12.13 1.06h1m2.56-1.76.01 1.19 1.12-.06m2.57-.81v1l1 .13m1.8-.53-.07.9.76.04m-6.15 7.08.53.07.04 1.78-.61.03zm.84 16.92h.58v1.66l-.65.07zm-6.14 9.85.49-16.28c-.4-5.78-2.32-6.16-2.32-6.16-1.73 2.12-1.73 6.74-1.73 6.74l.2 15.7-2.05.19c1.06-13.87-3.74-15.02-3.74-15.02-5.97 4.14-3.56 14.63-3.56 14.63" fill="none" stroke-linecap="round" stroke-linejoin="round"/><path d="m81.34 158.07s.29-17.33-.96-19.93c-1.26-2.6-3.95-4.24-3.95-4.24s-3.57 2.31-4.34 5.58c-.77 3.28-.38 17.82-.38 17.82m16.66 5.01v-4.34l15.44.2.03-1.9-16.92.07v-1.39m-.64 2.22 2.64 2.55" fill="none" stroke-linecap="round" stroke-linejoin="round"/><path d="m86.25 156.43v2.89l-18.34.08-.08.44m20.73-3.41s.22.73.07 1.16m1.16-1.16s.21.73.07 1.16m1.15-1.16s.22.73.08 1.16m1.15-1.16s.22.73.07 1.16m1.16-1.16s.21.73.07 1.16m1.16-1.16s.2.73.06 1.16m1.16-1.16s.21.73.07 1.16m1.15-1.16s.22.73.08 1.16m1.23-1.16s.22.73.07 1.16m1.16-1.16s.21.73.07 1.16m1.15-1.16s.22.73.07 1.16m1.16-1.16s.22.73.07 1.16m-17.6-32.03 1.8 1.46m11.35-1.47-1.46 1.44m-5.47-38.81v3.57" fill="none" stroke-linecap="round" stroke-linejoin="round"/><path d="m91.45 90.23a.63.63 0 1 1 -1.25 0 .63.63 0 0 1 1.25 0zm.04-1.25c0 .23-.28.41-.63.41-.34 0-.62-.18-.62-.4s.28-.42.62-.42c.35 0 .63.19.63.41z" fill="#fff" stroke-linecap="round" stroke-linejoin="round"/><path d="m66.51 129.76 19.45-.39m-15.12 27.64s1.16-11.17-1.15-13.2c0 0-2.8 3.38-1.55 13.2m16.9 1.16s.99-12.15-.99-14.35c0 0-2.38 3.66-1.31 14.35" fill="none" stroke-linecap="round" stroke-linejoin="round"/><path d="m67.69 157.81 18.08.07 3.66 3.27v1.45m-24.8-.36v-4.34l-12.74.19-.04-1.89 15.29.06" fill="none" stroke-linecap="round" stroke-linejoin="round"/><path d="m65.31 162.33v-3.85l2.74-2.64.05 1.53-2.4 2.61m-.2-3.62s-.21.72-.07 1.16m-1.15-1.16s-.22.72-.07 1.16m-1.16-1.16s-.21.72-.07 1.16m-1.15-1.16s-.22.72-.08 1.16m-1.15-1.16s-.22.72-.07 1.16m-1.15-1.16s-.22.72-.08 1.16m-1.15-1.16s-.22.72-.07 1.16m-1.16-1.16s-.21.72-.07 1.16m-1.19-1.16s-.21.72-.07 1.16m-1.15-1.16s-.22.72-.07 1.16m-1.16-1.16s-.21.72-.07 1.16m32.39 1.8.07-.94h-17.19v.93m-1.25.66 20.39.22-.07.72m.58.15-21.35-.15m19.54-1.59-.07.87m-18.99-.16.03.9" fill="none" stroke-linecap="round" stroke-linejoin="round"/><path d="m80.67 141.03h1.34l-.29 1.01h-.77zm4.88 0h.99l-.21 1.01h-.57z" fill="#fff" stroke-linecap="round" stroke-linejoin="round"/><path d="m66.94 153.69s-2.49-13.5 2.56-17.77c0 0 2.1 1.74 2.02 8.45" fill="none" stroke-linecap="round" stroke-linejoin="round"/><path d="m71.03 141.03h1.14l-.25 1.01h-.64z" fill="#fff" stroke-linecap="round" stroke-linejoin="round"/><path d="m80.78 118.78c0 .36-.03.7-.1.98-.4 1.5-2.55 3.26-4.16 3.26a4.24 4.24 0 0 1 -4.23-4.24c0-3.83 5.98-5.5 7.95-2.26.34.56.53 1.46.54 2.26z" fill="none" stroke-linecap="round" stroke-linejoin="round"/><path d="m79.75 118.6c0 .29-.03.55-.08.77-.31 1.18-1.98 2.54-3.24 2.54a3.3 3.3 0 0 1 -3.3-3.3c0-2.99 4.66-4.29 6.2-1.77.26.44.41 1.14.42 1.77zm-9.39-2.72s-.5-2.35 2.02-2.5m7.59-.35s2.34.75 2.27 2.3m.18 5.71s-.9 2.6-2.1 2.71m-9.89-2.71s.15 2.53 1.88 2.78m-1.59-.93s-1.44.68-.72 1.3c.72.6.72-1.3.72-1.3zm11.08-.19s1.81.9 1.06 1.27c-.76.36-1.05-1.27-1.05-1.27zm-.17-8.99s.47-1.55 1.08-.97c.62.57-1.08.97-1.08.97zm-6.31 15.28s-1.5-2.03.39-2.84c0 0 .96-.77.04-1.16" fill="none" stroke-linecap="round" stroke-linejoin="round"/><path d="m77.03 128.99s1.5-2.03-.39-2.84c0 0-.96-.77-.04-1.16" fill="none" stroke-linecap="round" stroke-linejoin="round"/><path d="m76.19 128.75s-1.5-.58-.34-1.93c0 0 1.88-.14.34 1.93z" fill="none" stroke-linecap="round" stroke-linejoin="round"/><path d="m76.19 128.75s.33-.97 2.02-.63c1.68.34 4 1.88 3.7 1.06m-6.01-.38s-.15-.87-1.74-.63c-1.58.24-2.74 2.26-4 1.15m-.88-18.02s7.44-5.57 7.15-7.95c0 0 2.67 6.35 5.85 7.73l.21-1.6.37 1.89m8.2 6.05 1.01.03-.21 1.39-.78.09zm-6.9-.86s.23-1.07 2.21-1.88c2.4-.97 11.3-.57 11.94 1.81m-31.86 9.06s-4.55-3.63-13.5 0l-.18-2.53s3.86-3.89 13.68-.51l-.05 2.48m-2.49-4.34s-5.5-1.79-8.44 0l-.17-3.88c0-.25 1.66-.52 1.83-.55.66-.11 7.23-.5 7.12.72z" fill="none" stroke-linecap="round" stroke-linejoin="round"/><path d="m64.81 117.4s1.57-.73.12-1.58c-2.1-1.25-12.4-.8-12.14.75.1.57 2.27 1.07 2.27 1.07" fill="none" stroke-linecap="round" stroke-linejoin="round"/><path d="m65.8 115.4s-4.53-2.88-5.88-23.58c0 0-3.08 19.26-7.03 23.88m7.31-27.53.58-.77s-1.63-5.49-1.15-8.47c0 0 .1 7.6-.77 8.28l.48.96h.87zm2.24 27.9.05-.73m-2.09.94v-1.09m-2.09.86-.08-.64m-1.51.87-1.02-.65m-.4 1.14-2.37-.35m2.98 3.82s-2.81 1.87-3.06 2.56m11.89-.12-.13 1.06h-1m-2.5-1.38-.06 1.01-1.13-.07m-2.57-1v1l-1 .13m-2.56-.5.12.75h-.62m3.92 11.24-.53.08-.04 1.77.6.04zm1.96 12.92h-.58v1.66l.65.07zm-6.23-22.29 1.47 1.44m5.47-38.81v3.57" fill="none" stroke-linecap="round" stroke-linejoin="round"/><path d="m59.24 90.23a.63.63 0 1 0 1.26 0 .63.63 0 0 0 -1.26 0zm-.04-1.25c0 .23.29.41.63.41s.63-.18.63-.4-.28-.42-.63-.42-.62.19-.62.41z" fill="#fff" stroke-linecap="round" stroke-linejoin="round"/><path d="m59.46 117.5-.6.03-.16 1.49h.61zm7.08-.94s.15-1.37-1.94-1.8c-2.1-.43-11.5-1.25-12.16 1.14m11.45 16.96 22.36.15m-.44-1.52s-1.52-.38-1.7 1c0 0-1.21-2.14-2.6.07 0 0-1.59-2.28-2.73.2 0 0-1.58-2.22-2.97-.2 0 0-2.28-1.9-2.97-.06 0 0-1.9-1.96-2.92 0 0 0-1.64-1.96-2.72-.07m3.24-18.6s-1.2-.8-.5-.96.5.96.5.96zm-.7-2.31v-1.3" fill="none" stroke-linecap="round" stroke-linejoin="round"/><path d="m76.37 103.8-1.26-2.93.66-.19.83-1.95.28 1.91.84.09z" fill="#fff" stroke-linecap="round" stroke-linejoin="round"/><path d="m68.44 110.42s5-10.11 2.8-15.72l9.92-.1s-1.7 12.01 2 14.72m-11.62-15.63-.1-5.1m9.31 5.21v-5.01m-10.01.9 1.3.1-.8 1 .8.1m8.21-.9 1.21.1-1.11.8 1.21.2m-15.61 34.43-1.25 1.33m-.79-6.2 2.54 1.86m-17.1-11.38s-4.55-3.63-13.5 0l-.17-2.54s3.8-3.93 13.67-.5l-.05 2.48m-2.48-4.34s-4.76-2.02-8.44 0l-.17-3.88c0-.25 1.66-.52 1.82-.55.66-.12 7.24-.5 7.13.72z" fill="none" stroke-linecap="round" stroke-linejoin="round"/><path d="m47.69 102.43s2.74.05.53-1.01c-2.22-1.06-12.78-.82-12.52.72.1.58 2.26.72 2.26.72" fill="none" stroke-linecap="round" stroke-linejoin="round"/><path d="m48.7 100.99s-4.53-2.9-5.88-23.6c0 0-3.08 19.26-7.02 23.89m12.01-29.41.6-.8s-1.68-5.64-1.19-8.7c0 0 .1 7.81-.8 8.5l.5 1h.9zm-2.4 29.75-.01-.7m2.6-.04.01-1.23m-2.13.93-.1-.71m-1.55.9-1.04-.67m-.42 1.17-2.04-.28m2.67 3.85s-2.9 1.93-3.15 2.64m7.4.77-.13 1.07h-1m2.22-2.29-.06 1.03-1.16-.07m-2.64-1.03v1.03l-1.03.13m-2.64-.52.13.78h-.64m4.03 11.56-.54.08-.04 1.82.62.04zm.15 9.67h-.58v1.66l.65.07zm-3.03-17.83-1.51-1.48m7.13-38.42v3.67" fill="none" stroke-linecap="round" stroke-linejoin="round"/><path d="m46.83 73.98a.64.64 0 1 0 1.28 0 .64.64 0 0 0 -1.28 0zm-.04-1.28c0 .23.28.42.64.42s.64-.19.64-.42-.28-.42-.64-.42-.64.19-.64.42z" fill="#fff" stroke-linecap="round" stroke-linejoin="round"/><path d="m47.04 102.03-.61.02.03 1.51.64-.1zm2.41.11s.15-1.37-1.95-1.8c-2.09-.44-11.5-1.25-12.15 1.13m13.5 9.63-1.25 1.33m-.78-6.2 2.53 1.86m48.94 3.04s6.6-3.85 13.5 0l.17-2.54s-4.98-3.76-13.67-.5l.05 2.48m2.48-4.34s4.42-2.1 8.44 0l.17-3.88c0-.25-1.72-.34-1.88-.37-.66-.12-7.58-.26-7.07 1.42z" fill="none" stroke-linecap="round" stroke-linejoin="round"/><path d="m99.95 102.43s-2.74.05-.53-1.01c2.22-1.06 12.78-.82 12.52.72-.1.58-2.26.72-2.26.72" fill="none" stroke-linecap="round" stroke-linejoin="round"/><path d="m98.94 100.99s4.53-2.9 5.88-23.6c0 0 3.08 19.26 7.03 23.89m-7.32-27.53-.58-.77s1.64-5.49 1.15-8.48c0 0-.1 7.61.78 8.29l-.49.96zm-2.29 28.03v-.86m2.09.93v-1.08m2.03 1.01.14-.79m1.52.86 1.01-.65m.4 1.15 1.98-.28m-2.59 3.74s2.82 1.88 3.07 2.57m-11.89-.13.12 1.07h1m2.48-1.71.07 1 1.16-.03m2.55-.84v1.01l1 .12m2.57-.36-.13.75h.63m-3.92 11.24.53.08.03 1.77-.6.04zm-3.97 7.31h.58v1.66l-.65.07zm8.23-16.68-1.46 1.44m-5.47-38.81v3.57" fill="none" stroke-linecap="round" stroke-linejoin="round"/><path d="m105.49 75.8a.63.63 0 1 1 -1.25 0 .63.63 0 0 1 1.25 0zm.04-1.24c0 .23-.28.4-.63.4-.34 0-.62-.17-.62-.4s.28-.41.62-.41c.35 0 .63.18.63.4z" fill="#fff" stroke-linecap="round" stroke-linejoin="round"/><path d="m98.2 102.14s-.16-1.37 1.94-1.8c2.1-.44 11.5-1.25 12.15 1.13m-13.5 9.63 1.25 1.33m.78-6.2-2.53 1.86m-19.43-55.82s6.08-3.44 9.3 0l.1-2.53s-2.75-3.45-9.4-.5l.03 2.48m1.71-4.34s3.27-1.83 5.81 0l.12-3.89c0-.24-1.18-.33-1.3-.36-.45-.12-5.22-.26-4.86 1.42z" fill="none" stroke-linecap="round" stroke-linejoin="round"/><path d="m80 43.58s-1.88.05-.36-1.01 8.8-.82 8.62.72c-.07.58-1.56.72-1.56.72" fill="none" stroke-linecap="round" stroke-linejoin="round"/><path d="m79.3 42.14s3.12-2.9 4.05-23.6c0 0 2.12 19.26 4.84 23.89m-5.04-27.53-.4-.77s1.13-5.5.8-8.48c0 0-.07 7.61.53 8.28l-.33.97zm-1.57 28.03v-.87m1.44.94v-1.08m1.39 1.01.1-.79m1.05.86.69-.65m.28 1.15 1.36-.28m-1.79 3.74s1.94 1.88 2.12 2.57m-8.19-.13.09 1.07h.69m1.72-1.38.05 1 .77-.06m1.77-1v1l.69.13m1.76-.5-.09.75h.44m-2.7 11.24.36.08.03 1.77-.42.04zm-2.73 7.31h.39v1.66l-.44.07zm5.66-16.69-1.01 1.45m-3.76-38.81v3.56" fill="none" stroke-linecap="round" stroke-linejoin="round"/><path d="m83.81 16.95c0 .35-.19.63-.43.63-.23 0-.43-.28-.43-.63 0-.34.2-.62.43-.62.24 0 .44.28.44.62zm.03-1.25c0 .23-.2.42-.43.42s-.43-.19-.43-.41c0-.23.2-.41.43-.41s.43.18.43.4z" fill="#fff" stroke-linecap="round" stroke-linejoin="round"/><path d="m78.8 43.3s-.1-1.38 1.33-1.81c1.44-.44 7.92-1.25 8.36 1.13m-9.29 9.63 1.53 1.51m-.13-6.38-1.74 1.86m-29 58.72-.13-42.68s3.97-2.51 7.16-.19m-8.4-1.42s6.08-3.44 9.29 0l.12-2.53s-3.22-3.78-9.41-.5l.03 2.48m1.71-4.34s3.82-1.69 5.8 0l.12-3.89c0-.25-1.18-.34-1.29-.36-.46-.12-5.22-.26-4.86 1.42z" fill="none" stroke-linecap="round" stroke-linejoin="round"/><path d="m49.63 54.98s-1.89.05-.36-1.01c1.52-1.06 8.79-.82 8.61.72-.06.58-1.56.72-1.56.72" fill="none" stroke-linecap="round" stroke-linejoin="round"/><path d="m48.94 53.53s3.11-2.89 4.04-23.59c0 0 2.12 19.26 4.84 23.88m-5.04-27.52-.4-.77s1.13-5.5.8-8.48c0 0-.07 7.6.53 8.28l-.33.97zm-1.57 28.03v-.87m1.44.94v-1.08m1.39 1.01.1-.8m1.04.87.7-.65m.27 1.14 1.37-.27m-1.79 3.74s1.94 1.88 2.11 2.57m-8.18-.13.09 1.07h.69m1.72-1.38.04 1 .78-.06m1.76-1v1l.69.12m1.77-.5-.09.75h.43m-4.49 29.99.36.08.02 1.77-.41.04zm1.77-22.74.36.07.03 1.78-.42.03zm-2.71 11.31h.4v1.66l-.45.07zm5.67-16.69-1.01 1.45s-.69 26.36.43 31.78m-4.19-70.59v3.56" fill="none" stroke-linecap="round" stroke-linejoin="round"/><path d="m53.44 28.35c0 .35-.2.63-.43.63-.24 0-.43-.28-.43-.63s.2-.63.43-.63c.24 0 .43.29.43.63zm.03-1.25c0 .23-.2.42-.43.42a.42.42 0 0 1 -.43-.41c0-.23.19-.41.43-.41.23 0 .43.18.43.4z" fill="#fff" stroke-linecap="round" stroke-linejoin="round"/><path d="m48.42 54.69s-.1-1.37 1.34-1.8c1.44-.44 7.91-1.25 8.36 1.13m-9.29 9.63.86 1.32m.54-6.19-1.74 1.85m34.67-42.15s-1.6-3.4-5-2.6c-3.41.8-3.41 3.2-5.02 3.4-1.6.2-3.8-2-6.2-1.2-2.41.8-1.8 3.6-4.61 3.6 0 0 3.2 1.2 4.6-.2s1.4-2 5.01-.4c3.6 1.6 4.6.6 7.41-.2 2.8-.8 3.2.6 4.21 2m16.44 75.82s6.95-2.96 11.92-1.1m-76.04 1.2s11.02-5 12.22-.6m-30.4 73.23s34.98-10.46 77.09-7.54m-41.53-111.71s1.9-1.78 3.55-2.03m-6.47 2.28s4.31-3.68 5.7-3.8m-5.19.5s4.06-2.66 5.07-2.66m-4.69-.37s2.92 4.68 3.17 5.7m-2.66-8.63s3.42 3.05 3.8 4.44m-3.17-7.99s1.53 1.02 2.03 2.03m27.13-.63s3.3-3.93 4.7-3.68m-5.2 0s3.17-3.8 4.3-3.55m-3.16-.76s2.79 5.96 3.04 7.6m-2.41-11.15s4.31 9.13 4.31 11.29m-47.92 53.85s3.82-2.3 5.6-1.78m-.49-2.79s3.93 6.29 4.46 8.39m-7.79-10.7s4.46 7.77 4.59 9.55m55.94-.65s4.85-3.97 7.02-2.83m-5.77-1.23s3.44 4.46 2.8 7.13m-1.78-11.46s4.46 5.73 4.34 11.2" fill="none" stroke-linecap="round" stroke-linejoin="round"/><path d="m66.84 153.58s-.81-2.6.16-4.06c0 0 .08-3 1.62-1.78 0 0 .65.4.4 1.86 0 0 .9-.32.57 1.38 0 0 .49 2.19-.56 2.92m16.37.4s-.81-2.59.16-4.05c0 0-.01-3.18 1.53-1.97 0 0 .91-.4.67 1.05 0 0 .72.68.4 2.38 0 0 .48 2.19-.57 2.92" fill="#96c01d"/><path d="m69.61 152.42-.33 1.92h-2.31l-.54-2.06zm15.33.67 3.4-.06-.57 1.74-2.17.04z" fill="#fff" stroke-linecap="round" stroke-linejoin="round"/><path d="m308.73 91.67s-1.9-.17-.82 1.3c1.02 1.38 2.93 1.18 2.93 1.18s.67-4.52-1.08-3.65c-1.74.86-.44 1.69-.44 1.69" fill="#e446a4"/></g></g><path d="m274.3 87.52s48.98 1.91 52.64-3.5c3.66-5.42-8.28-20.71-20.98-12.97 0 0-1.44-13.1-17.91-8.9 0 0-9.4 4.4-8.18 14.08 0 0-6.91 3.36-1.44 11.72" fill="#d7ecef"/><path d="m276.1 87.85s48.98 1.91 52.64-3.5c3.67-5.42-8.27-20.72-20.97-12.98 0 0-3.84-14.2-19.88-8.95 0 0-8.24 3.87-7.03 13.56 0 0-7.76 4.91-1.28 11.97m8.21-3.51v35m7.2-42.9v33.52m18.43-23.51v31.47" style="fill:none;stroke:#1d1d1b;stroke-width:.5;stroke-linecap:round;stroke-linejoin:round;stroke-miterlimit:10"/><path d="m286.96 117.43s2.9 4.1 1.13 4.95c-1.76.85-1.88-3.05.34-3.93" style="fill:#f19eb3;stroke:#1d1d1b;stroke-width:.5;stroke-linecap:round;stroke-linejoin:round;stroke-miterlimit:10"/><path d="m294.08 109s2.9 4.1 1.13 4.95c-1.76.85-1.88-3.04.34-3.93" style="fill:#e446a4;stroke:#1d1d1b;stroke-width:.5;stroke-linecap:round;stroke-linejoin:round;stroke-miterlimit:10"/><path d="m313.15 117.26s3.24 3.21 1.41 5.27-2.65-1.5-.82-5.61" style="fill:#f19eb3;stroke:#1d1d1b;stroke-width:.5;stroke-linecap:round;stroke-linejoin:round;stroke-miterlimit:10"/><path d="m295.74 107.93c0 .38-.38.7-.84.7s-.83-.32-.83-.7.37-.7.83-.7.84.31.84.7z" style="fill:#fff;stroke:#1d1d1b;stroke-width:.5;stroke-linecap:round;stroke-linejoin:round;stroke-miterlimit:10"/><path d="m303.58 86.3v35.75" style="fill:none;stroke:#1d1d1b;stroke-width:.5;stroke-linecap:round;stroke-linejoin:round;stroke-miterlimit:10"/><path d="m304.34 115.75c0 .38-.38.7-.84.7s-.83-.32-.83-.7c0-.4.37-.7.83-.7s.84.3.84.7z" style="fill:#f19eb3;stroke:#1d1d1b;stroke-width:.5;stroke-linecap:round;stroke-linejoin:round;stroke-miterlimit:10"/><path d="m314.34 115.13c0 .39-.37.7-.83.7s-.83-.32-.83-.7.37-.7.83-.7.83.31.83.7z" style="fill:#fff;stroke:#1d1d1b;stroke-width:.5;stroke-linecap:round;stroke-linejoin:round;stroke-miterlimit:10"/><path d="m313.83 110.86c0 .31-.22.56-.5.56-.27 0-.49-.25-.49-.56 0-.3.22-.55.5-.55.27 0 .5.25.5.55z" style="fill:#f19eb3;stroke:#1d1d1b;stroke-width:.5;stroke-linecap:round;stroke-linejoin:round;stroke-miterlimit:10"/><path d="m288.56 101.6c0 .46-.33.84-.74.84-.42 0-.75-.38-.75-.84s.33-.85.74-.85c.42 0 .75.38.75.85z" style="fill:#e446a4;stroke:#1d1d1b;stroke-width:.5;stroke-linecap:round;stroke-linejoin:round;stroke-miterlimit:10"/><path d="m86.76 112.3s6.8-4.14 9.75-.89m-42.37 1.77s9.3-3.54 10.92-1.33m-2.66 1.04s-4.27-2.8-7.52-2.36m123.94 6.33s-1.59-1.84-1.9.46c-.3 2.16 1.63 3.66 1.63 3.66s4.6-3.53 2.25-4.28c-2.36-.74-1.9 1.15-1.9 1.15m-102.66 25.4v14.59m-.43-11.52a.21.21 0 1 1 -.43 0 .21.21 0 0 1 .43 0zm0 3.11a.21.21 0 1 1 -.43 0 .21.21 0 0 1 .43 0zm0 3.11c0 .12-.1.22-.21.22a.21.21 0 1 1 0-.43c.12 0 .21.1.21.21zm0 3.12a.21.21 0 1 1 -.43 0 .21.21 0 0 1 .43 0z" style="fill:none;stroke:#1d1d1b;stroke-width:.5;stroke-linecap:round;stroke-linejoin:round;stroke-miterlimit:10"/><path d="m162.2 80.03s-2.38-5.12-5.62-3.93c0 0-.47.5.3 1.6 0 0-.7 1.77.06 3.04.76 1.26 4.48-.27 5.26-.7" fill="#e446a4"/><path d="m163.12 79.29c.08-.2.3-1.93.28-2.48a20.2 20.2 0 0 0 -.18-2c-.05-.4-.16-.78-.29-1.15-.19-.52-.56-1.5-1.3-1.22-.18.06-.41.23-.51.39-.2.29-.28.6-.34.95l-.04.4c0 .06.04.4 0 .43 0 0-1.11 1.1-.71 2.35 0 0 1.86 2.15 2.09 3.04z" fill="#e446a4"/><path d="m162.85 79.64c.34-.58.39-1.17.44-1.82.07-.78.02-1.59-.12-2.36-.13-.75-.26-1.71-.74-2.32-.5-.63-1.28-.7-1.34.29-.09 1.46-1.22 1.57-1.1 2.73m2.14 3.87s-2.67-5.37-5.55-3.93c0 0-.54.05.19 1.57 0 0-.1 1.34.61 2.05" style="fill:none;stroke:#1d1d1b;stroke-width:.5;stroke-linecap:round;stroke-linejoin:round;stroke-miterlimit:10"/><path d="m161.8 80.19s-3.24-2.81-5.48-.09c0 0 .05.54.62.64 0 0-.2 1.58 3.75.54" style="fill:none;stroke:#1d1d1b;stroke-width:.5;stroke-linecap:round;stroke-linejoin:round;stroke-miterlimit:10"/><path d="m163.4 79.43s-2.39.9-2.58 1.98c-.2 1.09 2.4-1.05 2.58-1.98zm0 .04s2.3-.44 2.71-.12m-2.91.15s2.04-1.8 2.52-1.58m-10.14-3.02s-1.1 1.1-.5 2.15" style="fill:none;stroke:#1d1d1b;stroke-width:.5;stroke-linecap:round;stroke-linejoin:round;stroke-miterlimit:10"/><path d="m414.84 44.91s6.1-6.04 10.1-2.62c0 0 .39.97-1.27 2.12 0 0 .04 2.89-1.7 4.3-1.76 1.4-6.25-2.76-7.13-3.8" fill="#70247e"/><path d="m413.93 43.37c-.02-.32.58-2.92.9-3.7.4-.93.84-1.86 1.32-2.75.29-.53.64-1.02 1.03-1.48.55-.64 1.6-1.85 2.5-1.05.22.19.46.55.53.82a4.98 4.98 0 0 1 -.18 2.12c-.03.1-.27.56-.23.64 0 0 1 2.13-.23 3.72 0 0-3.8 2.07-4.6 3.23z" fill="#70247e"/><path d="m414.12 44c-.17-.99.07-1.87.33-2.83.32-1.14.83-2.27 1.43-3.3.58-1 1.28-2.3 2.3-2.9 1.05-.64 2.18-.32 1.75 1.11-.65 2.13.9 2.9.12 4.48m-5.11 4.39s6.66-6.24 10-2.66c0 0 .75.36-1.1 2.13 0 0-.56 1.97-1.97 2.6" style="fill:none;stroke:#1d1d1b;stroke-width:.5;stroke-linecap:round;stroke-linejoin:round;stroke-miterlimit:10"/><path d="m415.32 45.34s6.1-2.28 7.86 2.79c0 0-.36.74-1.22.57 0 0-.55 2.38-5.64-1.2" style="fill:none;stroke:#1d1d1b;stroke-width:.5;stroke-linecap:round;stroke-linejoin:round;stroke-miterlimit:10"/><path d="m413.45 43.42s2.92 2.54 2.63 4.2c-.3 1.65-2.87-2.78-2.63-4.2zm-.03.06s-3.04-1.85-3.8-1.61m4.08 1.76s-1.97-3.65-2.76-3.6m14.2 7.8s1 2.17-.44 3.34" style="fill:none;stroke:#1d1d1b;stroke-width:.5;stroke-linecap:round;stroke-linejoin:round;stroke-miterlimit:10"/><path d="m21.52 144.99s-4.73-.52-5.22-4.01c0 0 2.87-.44 5.22 4zm-6.52 12.45s-4.72-.51-5.22-4c0 0 2.87-.44 5.23 4zm17.14-4.44s-1.98 4.32-5.45 3.69c0 0 .49-2.87 5.45-3.7zm-1.14-3.46s-2 4.33-5.46 3.7c0 0 .49-2.87 5.45-3.7zm-21.14 7.56s4.69.87 4.92 4.38c0 0-2.9.23-4.92-4.38z" fill="#96c01d" stroke="#1d1d1b" stroke-miterlimit="10" stroke-width=".5"/><path d="m13.64 170.44s-7.33-12.6 6.76-30.4c0 0 15.33 11.62 6.24 31.76" fill="#96c01d" stroke="#1d1d1b" stroke-miterlimit="10" stroke-width=".5"/><path d="m29.09 148.64s-.37 6.13-4.84 6.99c0 0-.75-3.68 4.84-6.99z" fill="#96c01d" stroke="#1d1d1b" stroke-miterlimit="10" stroke-width=".5"/><path d="m24.89 155.9s-6.08.85-7.8-3.36c0 0 3.45-1.46 7.8 3.36zm-9.65 7.8s-6.07.85-7.8-3.35c0 0 3.45-1.46 7.8 3.35zm11.1-6.81s-.37 6.13-4.84 6.98c0 0-.75-3.67 4.84-6.98z" fill="#96c01d" stroke="#1d1d1b" stroke-miterlimit="10" stroke-width=".5"/><path d="m33.14 161.06s-6.13-.06-7.21-4.48c0 0 3.63-.93 7.21 4.48zm-3.44-13.22s-6.14-.07-7.22-4.48c0 0 3.63-.93 7.21 4.48zm-5.53 7.29s-5.45-2.84-4.41-7.26c0 0 3.66.81 4.4 7.26zm-6.57-.35s-5.47-2.77-4.48-7.2c0 0 3.67.76 4.48 7.2zm8.74 9.03s-6.14-.06-7.21-4.48c0 0 3.63-.93 7.21 4.48z" fill="#96c01d" stroke="#1d1d1b" stroke-miterlimit="10" stroke-width=".5"/><path d="m13.22 157.24s1-3.69 3.84-3.64c0 0-.02 2.34-3.84 3.64zm11.86-10.14s2 4.32-.72 6.55c0 0-1.87-2.23.72-6.55zm-10.12-2.52s3.9 2.72 2.67 6.02c0 0-2.73-.99-2.67-6.02zm10.76-3.2s-.37 4.75-3.85 5.35c0 0-.52-2.86 3.85-5.34zm-10.27 23.07s.63-4.71 4.13-5.12c0 0 .37 2.88-4.13 5.12z" fill="#96c01d" stroke="#1d1d1b" stroke-miterlimit="10" stroke-width=".5"/><path d="m16.71 153.57s-4.93.48-6.18-2.98c0 0 2.84-1.06 6.19 2.98z" fill="#96c01d" stroke="#1d1d1b" stroke-miterlimit="10" stroke-width=".5"/><path d="m29.16 165.5s-2.37 4.29-17.2 1.53l.17 2.62.42 6.67.5 8.1.48 7.62c.1 1.48-.09 2.4.32 3.83.04.13.03.53.04.66.01.25 3.84 1.06 6.26 1.03 4.42-.06 6.72-1.09 7.1-1.33l.43-3.93.81-7.56c.31-2.86.67-13.31.93-15.75.12-1.14-.27-3.45-.26-3.5z" fill="#e446a4"/><path d="m15.33 195.95-2.72-29.95s1.7 4.1 16.42 1.37l-1.36 28.18" style="fill:none;stroke:#1d1d1b;stroke-width:.5;stroke-linecap:round;stroke-linejoin:round;stroke-miterlimit:10"/><path d="m13.9 194.1s-3.72 2.13 7.08 2.94c8.44.64 7.56-3.17 7.56-3.17" style="fill:none;stroke:#1e1e1e;stroke-width:.5;stroke-linecap:round;stroke-linejoin:round;stroke-miterlimit:10"/><path d="m12.14 165.22s-3.03 3.46 1.84 4.74c4.88 1.29 20-1.16 16.15-3.72" style="fill:none;stroke:#1d1d1b;stroke-width:.5;stroke-linecap:round;stroke-linejoin:round;stroke-miterlimit:10"/><path d="m20.22 161.1s-4.82-3.8-2.97-7.95c0 0 3.44 1.48 2.97 7.95zm-.25 2.86s2.3 4.17-.27 6.58c0 0-2.02-2.1.27-6.58zm2.76 1.11s4.72 2.6 3.72 6.46c0 0-3.2-.78-3.72-6.46zm-8.18-.17s-3.15 4.38-6.87 2.91c0 0 1.18-3.07 6.87-2.9z" fill="#96c01d" stroke="#1d1d1b" stroke-miterlimit="10" stroke-width=".5"/><path d="m30.32 168.98s-6.14-.07-7.22-4.48c0 0 3.63-.94 7.22 4.48zm-8.3-22.14s-6.14-.07-7.22-4.48c0 0 3.63-.94 7.21 4.48z" fill="#96c01d" stroke="#1d1d1b" stroke-miterlimit="10" stroke-width=".5"/><path d="m11.04 168.6s1.93 19.88 6.07 19.6c2.76-.18 5.24-17.66 5.24-17.66s2.76 18.76 4.69 17.1c1.93-1.65 3.31-19.3 3.31-19.3m45.85-53.33s.04 7.77.32 8m-3.76-3.57s8.02-1.08 8.02-.66" style="fill:none;stroke:#1d1d1b;stroke-width:.5;stroke-linecap:round;stroke-linejoin:round;stroke-miterlimit:10"/><path d="m71.97 96.22h8.81m-8.94 1.83 8.75-.26m-8.62 2.09 4.5-.46h4.12m-6.86-4.57-1.89 5.35m3.33-5.28-3.79 8.29m5.09-8.29-2.93 6.98m5.8-6.98-1.89 4.83m2.94-4.83-1.31 5.02m-1.04-5.02-1.18 3" style="fill:#fff;stroke:#1d1d1b;stroke-width:.5;stroke-linecap:round;stroke-linejoin:round;stroke-miterlimit:10"/><path d="m77.85 108.74a1.7 1.7 0 1 1 -3.41 0 1.7 1.7 0 0 1 3.41 0z" style="fill:#1ca8e0;stroke:#000;stroke-width:.5;stroke-linecap:round;stroke-linejoin:round;stroke-miterlimit:10"/><path d="m72.76 141.25s1.07-4.92 4.62-6.29m-10.34 12.99s.08-9.22 2.65-11.3m12.93 10.93s-.53-8.36 1.34-11.95m-7.27-26.92c0 .28-.38.63-.66.63-.64 0-.52-1.14.15-1.14.28 0 .5.23.5.51zm-8.06 45.82.18 3.23m-16.9-1.86 2.14-.83m49.75 1.1-2.6-1.62" style="fill:none;stroke:#1d1d1b;stroke-width:.5;stroke-linecap:round;stroke-linejoin:round;stroke-miterlimit:10"/><path d="m301.86 123.04 1.68-.98 1.69.98v1.95l-1.69.97-1.69-.98z" fill="#f19eb3" stroke="#1d1d1b" stroke-miterlimit="10" stroke-width=".5"/><path d="m130.2 131.23s3.82 2.03 2.97 4.33c0 0-2.5-.78-2.97-4.33z" fill="#96c01d"/><path d="m130.82 131.54s2.94 1.53 2.39 3.91c0 0-1.98-.43-2.39-3.9z" fill="none" stroke="#1d1d1b" stroke-miterlimit="10" stroke-width=".5"/><path d="m142.86 153.46s-4.91-.05-5.78-3.58c0 0 2.91-.75 5.78 3.58zm-4.03-19.46s-3.62 3.32-6.66 1.33c0 0 1.6-2.53 6.66-1.33z" fill="#96c01d" stroke="#1d1d1b" stroke-miterlimit="10" stroke-width=".5"/><path d="m125.58 147.13s-3.16 2.48-.47 2.44c2.7-.04 1.76-3.1.63-1.96s.52 4.3 1.78 2.64c1.26-1.67-1.77-5.32-3.32-2.6-2.34 4.08 6.08 4.92 4.84 1.36-1.23-3.55-3.46-1.88-3.46-1.88zm12.27-11s-3.16 2.49-.47 2.45c2.7-.04 1.76-3.1.63-1.97-1.13 1.14.52 4.3 1.78 2.64s-1.77-5.31-3.32-2.6c-2.34 4.08 6.08 4.92 4.84 1.37-1.23-3.56-3.46-1.89-3.46-1.89z" fill="#f7d3e5"/><path d="m125.08 145.66s3.75.7 3.94 3.5c0 0-2.32.19-3.94-3.5z" fill="#96c01d" stroke="#1d1d1b" stroke-miterlimit="10" stroke-width=".5"/><path d="m128.1 156.33s-5.86-10.08 5.41-24.32c0 0 12.27 9.3 5 25.41" fill="#96c01d" stroke="#1d1d1b" stroke-miterlimit="10" stroke-width=".5"/><path d="m140.46 138.89s-.3 4.9-3.87 5.59c0 0-.6-2.94 3.87-5.59zm-2.2 6.6s-.3 4.9-3.86 5.59c0 0-.6-2.94 3.86-5.6z" fill="#96c01d" stroke="#1d1d1b" stroke-miterlimit="10" stroke-width=".5"/><path d="m141.39 150.88s-4.91-.06-5.77-3.59c0 0 2.9-.74 5.77 3.59z" fill="#96c01d" stroke="#1d1d1b" stroke-miterlimit="10" stroke-width=".5"/><path d="m143.7 142.96s-3.35 4.4-6.71 3c0 0 1.51-3.25 6.7-3z" fill="#96c01d"/><path d="m131.28 143.8s-4.38-2.22-3.6-5.77c0 0 2.94.62 3.6 5.77zm6.99 7.23s-4.91-.05-5.78-3.59c0 0 2.91-.74 5.78 3.59z" fill="#96c01d" stroke="#1d1d1b" stroke-miterlimit="10" stroke-width=".5"/><path d="m127.77 145.77s.8-2.95 3.07-2.91c0 0-.01 1.87-3.08 2.9zm4.45-1.61s-.69-2.98 1.32-4.02c0 0 .88 1.65-1.31 4.02zm5.04-6.5s1.6 3.46-.58 5.24c0 0-1.5-1.79.58-5.24zm-8.1-2.02s3.13 2.18 2.14 4.82c0 0-2.2-.8-2.14-4.82zm3.29-1.82s3.58 1.29 3.31 4.1c0 0-2.32-.2-3.31-4.1z" fill="#96c01d" stroke="#1d1d1b" stroke-miterlimit="10" stroke-width=".5"/><path d="m129.47 135.61s3.6-1.28 5.16 1.06c0 0-1.91 1.32-5.16-1.06zm-3.55 8.07s3.58 1.3 3.31 4.1c0 0-2.32-.2-3.31-4.1z" fill="#96c01d" stroke="#1d1d1b" stroke-miterlimit="10" stroke-width=".5"/><path d="m125 150.69s1.62-3.45 4.39-2.93c0 0-.4 2.3-4.38 2.93zm4.55.85s.5-3.77 3.3-4.1c0 0 .3 2.3-3.3 4.1z" fill="#96c01d" stroke="#1d1d1b" stroke-miterlimit="10" stroke-width=".5"/><path d="m133.57 145.16s-3.16 2.48-.47 2.45c2.69-.04 1.75-3.1.62-1.97-1.12 1.14.53 4.3 1.78 2.64 1.26-1.66-1.76-5.32-3.32-2.6-2.33 4.08 6.09 4.92 4.85 1.36-1.24-3.55-3.46-1.88-3.46-1.88z" fill="#f7d3e5"/><path d="m132.55 138.92s-2.16 1.7-.32 1.67c1.84-.02 1.2-2.1.43-1.34-.77.78.35 2.94 1.21 1.8.86-1.13-1.2-3.63-2.27-1.77-1.59 2.79 4.16 3.36 3.31.93-.84-2.43-2.36-1.29-2.36-1.29z" fill="#e446a4"/><path d="m140.52 152.37s-1.9 3.44-13.76 1.23c.05.7.1 1.4.13 2.1l.34 5.34a4586.92 4586.92 0 0 0 .79 12.57c.07 1.19-.08 1.92.25 3.06.03.1.02.43.03.54.01.19 3.07.85 5.01.82 3.54-.05 5.38-.87 5.68-1.07l.34-3.14.65-6.05c.25-2.29.54-10.65.75-12.6.1-.9-.21-2.76-.2-2.8z" fill="#70247e"/><path d="m128.3 175.26s-1.7 1.64 6.93 2.3c6.76.5 5.2-2.5 5.2-2.5" style="fill:none;stroke:#1e1e1e;stroke-width:.5;stroke-linecap:round;stroke-linejoin:round;stroke-miterlimit:10"/><path d="m136.86 146.58s-1.46-4.69 1.64-6.59c0 0 1.6 2.54-1.64 6.6zm-4.21 1.21s-3.83.46-4.86-2.2c0 0 2.18-.87 4.86 2.2z" fill="#96c01d" stroke="#1d1d1b" stroke-miterlimit="10" stroke-width=".5"/><path d="m136.8 142.92s-2.95-.8-2.9-3.07c0 0 1.86 0 2.9 3.07z" fill="#96c01d" stroke="#1d1d1b" stroke-miterlimit="10" stroke-width=".5"/><path d="m143.42 142.71s-2.44 4.27-5.94 3.3c0 0 .76-2.9 5.94-3.3z" fill="none" stroke="#1d1d1b" stroke-miterlimit="10" stroke-width=".5"/><path d="m144.7 147.43s-5.1 2.08-6.77-.94c0 0 2.53-1.84 6.76.94z" fill="#96c01d"/><path d="m144.4 147.69s-4.35 1.73-6.4-1.06c.01 0 2.3-1.71 6.4 1.06z" fill="none" stroke="#1d1d1b" stroke-miterlimit="10" stroke-width=".5"/><path d="m122.18 153.09s4.32-3.4 6.77-.95c0 0-1.94 2.46-6.77.95z" fill="#96c01d"/><path d="m122.4 152.76s3.7-2.86 6.43-.73c0 0-1.73 2.27-6.43.73z" fill="none" stroke="#1d1d1b" stroke-miterlimit="10" stroke-width=".5"/><path d="m125.14 140.95s5.48-.5 6.2 2.88c0 0-2.96 1.01-6.2-2.88z" fill="#96c01d"/><path d="m125.5 140.8s4.67-.4 5.8 2.87c0 0-2.69.97-5.8-2.88z" fill="none" stroke="#1d1d1b" stroke-miterlimit="10" stroke-width=".5"/><path d="m138.09 132.12s-.13 3.82-2.53 4.02c0 0-.44-2.13 2.53-4.02z" fill="#96c01d"/><path d="m138.16 132.39s-.13 3.24-2.48 3.74c0 0-.44-1.94 2.48-3.74z" fill="none" stroke="#1d1d1b" stroke-miterlimit="10" stroke-width=".5"/><path d="m126.9 152.15s-2.15 1.75 1.75 2.77c3.9 1.03 14.37-.1 11.3-2.15" style="fill:none;stroke:#1d1d1b;stroke-width:.5;stroke-linecap:round;stroke-linejoin:round;stroke-miterlimit:10"/><path d="m129.46 176.74-2.18-23.97s1.37 3.28 13.13 1.1l-1.08 22.54" style="fill:none;stroke:#1d1d1b;stroke-width:.5;stroke-linecap:round;stroke-linejoin:round;stroke-miterlimit:10"/><path d="m128.22 157.22s-1.34-3.5.93-5.12c0 0 1.35 1.86-.93 5.13z" fill="#96c01d" stroke="#1d1d1b" stroke-miterlimit="10" stroke-width=".5"/><path d="m133.27 153.63s-3.56-3.56-3.11-.22c.45 3.33 4.1 1.71 2.53.48-1.58-1.23-5.27 1.3-3 2.6 2.25 1.32 6.88-3.23 3.27-4.75-5.42-2.28-5.13 7.17-.83 5.85 4.5-1.4 1.14-3.96 1.14-3.96z" fill="#f19eb3"/><path d="m134.81 156.46s-.23-3.75 2.42-4.6c0 0 .73 2.17-2.42 4.6z" fill="#96c01d" stroke="#1d1d1b" stroke-miterlimit="10" stroke-width=".5"/><path d="m133.52 153.88s-2.8-2.8-2.45-.17c.36 2.63 3.24 1.35 2 .38-1.25-.97-4.16 1.02-2.38 2.05 1.78 1.04 5-2.36 2.16-3.56-4.28-1.8-3.27 5.97.07 4.34 3.33-1.63.6-3.04.6-3.04z" fill="none"/><path d="m141.42 157.3s-5.1-2.05-4.2-5.4c0 0 3.09.46 4.2 5.4z" fill="#96c01d"/><path d="m141.02 157.27s-4.32-1.78-3.84-5.2c0 0 2.83.36 3.84 5.2z" fill="none" stroke="#1d1d1b" stroke-miterlimit="10" stroke-width=".5"/><path d="m374.98 157.25c-4.8-16.94-2.15-37.71 14.96-46.08 16.37-8 41.84-5 52.45 10.65 9.12 13.45 8.26 33.52-4.2 45.08-11.46 10.6-29.05 11.66-42.73 5.38" fill="#f7d3e5"/><path d="m398.5 149.61s12.99 1.15 13.58-31.55c0 0 .3-4.03.31.2.1 35.22 8.3 30.58 11.02 32.65.53.4.04 1.52-1.4 1.94-6.48 1.88-11.7 15.47-8.78 23.3l-3.76-.1s1.88-13.48-10.98-26.44z" fill="#fff"/><path d="m351.18 160.44c-2.56 1.98-6.33-1.97-3.62-4.22 5.23-4.33 13.77 2.9 17.64 5.7 9.15 6.59 18.54 13.26 28.85 17.88 4.21 1.88 9.37 3.98 14.08 2.74 19.85-5.26 43.54-29.61 63.84-14.54 3.51 2.6 8.37 5.83 12.83 6.3 3.95.43 6.46-2.44 6.34-6.21-.17-5.16-4.4-11.28-10.34-9.5-1.16.35-2.67 1.72-2.8 3.01-.2 2.16 1.7 3.54 3.55 4.06 1.22.34 5.33.63 4.36-1.83" style="fill:none;stroke:#1d1d1b;stroke-width:.5;stroke-linecap:round;stroke-linejoin:round;stroke-miterlimit:10"/><path d="m402.94 182.26s18.64-9.13 21.31-3.65c1.7 3.5-8.58 8.6-21.31 3.65z" fill="#f19eb3"/><path d="m413.74 95.87 3.58-3.11.39 4.05-2.87 1.77zm-9.9-.07 1.32-3.85 2.89 3.57-.28 4.89z" fill="#f9ba05"/><path d="m387.23 98.92s-2.74-.26-1.18 1.86c1.46 2 4.21 1.7 4.21 1.7s.96-6.5-1.54-5.26c-2.5 1.25-.64 2.44-.64 2.44" fill="#e446a4" stroke="#1d1d1b" stroke-miterlimit="10" stroke-width=".5"/><path d="m414.33 117.9s-2.77 26.17 9.08 33c0 0-12.5 14.37-9.54 24.17 0 0 7.75.9 9.8-1.37 0 0 9.56-57.86-9.34-55.8zm-17.16 56.49s-8.8-44.88 6.45-54.9c0 0 7.3-4.56 7.98-.91.68 3.64-5.6 29.94-14.04 30.85 0 0 12.14 13.61 11.65 27.13 0 0-6.32.59-12.04-2.17z" fill="#f19eb3"/><path d="m398.06 174.19s-10.95-47.16 7-56.43c0 0 11.56-4.22 15.98 1.97 11.84 16.58 1.98 56.04 1.98 56.04" fill="none" stroke="#e446a4" stroke-miterlimit="10" stroke-width="2"/><path d="m393.36 183.19a24.54 24.54 0 0 1 -24.54 24.54c-20.84 0-35.42-28.8-17.33-42.3 3.94-2.95 11.14-7.39 16.15-7.39 13.56 0 25.72 11.6 25.72 25.15zm85.56-2.5c0 9.93-8.05 17.98-17.98 17.98-15.26 0-25.13-21.4-11.88-31.3 2.89-2.15 8.2-4.66 11.88-4.66 9.93 0 17.98 8.05 17.98 17.98z" fill="none" stroke="#1ca8e0" stroke-miterlimit="10" stroke-width="2"/><path d="m401.28 107.78s5.04-10.42-.84-13.55c0 0 7.06.62 7.46 4.88 0 0-1.57-4.27.43-6.67 0 0 2.08 2.5 2 5.15 0 0 1.68-5.07 2.73-5.8 0 0 2.3 2.44 2.75 5.87 0 0 2.15-4.64 6.12-4.3 0 0-5.74 7.55-2.03 14.14" fill="#f9ba05"/><path d="m400.12 108.03s-.66-2.76 3.94-3.1c4.6-.35 16.26-1.56 18.57 3.05 0 0-16.36-2.92-22.51.05zm25.08-5.43a1.18 1.18 0 1 1 -1.76-1.6 1.18 1.18 0 0 1 1.76 1.6z" fill="#70247e"/><g stroke-width=".5"><path d="m431.49 85.05-.65 1.01.46 1.11-1.16-.31-.91.79-.07-1.2-1.03-.62 1.12-.44.28-1.17.76.93z" fill="#e446a4" stroke="#1d1d1b" stroke-linecap="round" stroke-linejoin="round" stroke-miterlimit="10"/><path d="m387.39 168.79a63.22 63.22 0 0 1 -7.48-5.75" fill="none" stroke="#1d1d1b" stroke-linecap="round" stroke-linejoin="round" stroke-miterlimit="10"/><path d="m376.34 156.5c-4.81-16.93-1.27-37.17 15.84-45.53 16.38-8 37.82-4.8 48.43 10.86 9.13 13.44 9.5 33.97-2.96 45.52-11.45 10.6-30.28 11.21-43.97 4.93" fill="none" stroke="#000" stroke-linecap="round" stroke-linejoin="round" stroke-miterlimit="10"/><path d="m398.63 174.16c-1.68-5.25-1.8-14.17-2.14-19.63-.67-10.57-2.58-27.95 7.51-35.12 2.93-2.07 9.04-2.61 12.36-1.33 4.6 1.78 7.48 7.05 8.32 11.65 1.02 5.59.86 12.1.36 17.72-1.92 21.84-2.77 27.77-3.15 28.73" fill="none" stroke="#1d1d1b" stroke-linecap="round" stroke-linejoin="round" stroke-miterlimit="10"/><path d="m397.38 172.96c-1.85-5.3-1.98-14.32-2.36-19.83-.73-10.68-2.84-28.24 8.3-35.47 3.22-2.1 9.97-2.64 13.63-1.35 5.08 1.8 8.26 7.13 9.19 11.77 1.12 5.64.94 12.22.4 17.9-2.12 22.05-3.06 28.04-3.48 29.01" fill="none" stroke="#1d1d1b" stroke-linecap="round" stroke-linejoin="round" stroke-miterlimit="10"/><path d="m400.87 108.35s7.58-7.1-.42-14.78c0 0 6.31 1.4 6.7 5.67 0 0-.68-4.72 1.32-7.13 0 0 1.99 3.51 1.9 6.17 0 0 2.12-5.42 3.18-6.14 0 0 1.41 2.86 1.87 6.3 0 0 1.66-5.09 5.63-4.75 0 0-5.05 7.12-1.34 13.7" fill="none" stroke="#000" stroke-linecap="round" stroke-linejoin="round" stroke-miterlimit="10"/><path d="m394.53 183.17a25.7 25.7 0 0 1 -25.71 25.71c-21.83 0-35.94-30.6-16.99-44.75 4.13-3.08 11.73-6.67 16.99-6.67a25.71 25.71 0 0 1 25.71 25.71z" fill="none" stroke="#1d1d1b" stroke-linecap="round" stroke-linejoin="round" stroke-miterlimit="10"/><path d="m391.79 187.39a23.5 23.5 0 0 1 -27.62 18.46c-19.57-3.9-26.76-33.83-7.26-43.13 4.25-2.03 11.7-3.89 16.42-2.95a23.5 23.5 0 0 1 18.46 27.62zm87.46-6.74c.07 9.81-8.73 18.49-18.54 18.49a18.49 18.49 0 0 1 0-36.97c9.6 0 17.7 8 18.48 17.24.03.41.05.83.06 1.24z" fill="none" stroke="#1d1d1b" stroke-linecap="round" stroke-linejoin="round" stroke-miterlimit="10"/><path d="m475.95 188.14c-3.73 8.18-14.39 11.98-22.54 8.19a16.93 16.93 0 1 1 14.29-30.7c7.97 3.7 11.6 13.49 8.68 21.45-.13.36-.27.71-.43 1.06z" fill="none" stroke="#1d1d1b" stroke-linecap="round" stroke-linejoin="round" stroke-miterlimit="10"/><path d="m409.54 91.58c-.02.74-.32 1.25-1.06 1.22-.74-.02-1.63-.65-1.6-1.39.02-.74.6-1.47 1.34-1.5 1.21-.03 1.34.93 1.32 1.67z" fill="#e446a4" stroke="#1d1d1b" stroke-linecap="round" stroke-linejoin="round" stroke-miterlimit="10"/><path d="m406.04 92.02c-.02.48-.2.8-.68.79-.47-.02-1.04-.42-1.02-.9.01-.47.38-.93.86-.95.77-.03.86.59.84 1.06zm11.6.42c-.02.48-.2.8-.68.79-.47-.02-1.04-.42-1.03-.9.02-.47.39-.93.86-.95.78-.02.86.6.85 1.06z" fill="none" stroke="#1d1d1b" stroke-linecap="round" stroke-linejoin="round" stroke-miterlimit="10"/><path d="m414.85 91.59a1.34 1.34 0 0 1 -1.39 1.3c-.74-.03-1.6-.74-1.57-1.48s1.01-1.58 1.75-1.56 1.23 1 1.2 1.74zm7.99 1.63c-.03.74-.92 1.31-1.66 1.29a1.34 1.34 0 0 1 -1.3-1.39c.03-.74.66-1.67 1.4-1.65.73.03 1.58 1.01 1.56 1.75zm-21.23-.2a1.34 1.34 0 0 1 -2.68-.08c.06-1.7 2.74-1.67 2.68.08z" fill="#e446a4" stroke="#1d1d1b" stroke-linecap="round" stroke-linejoin="round" stroke-miterlimit="10"/><path d="m410.46 117.9s-2.74 27.78-13.67 32.34c0 0 8.88 8.43 11.16 21.64m5.92-54.21s-.7 29.77 10.23 34.32c0 0-12.96 6.45-10.23 23.99" fill="none" stroke="#1d1d1b" stroke-linecap="round" stroke-linejoin="round" stroke-miterlimit="10"/><path d="m396.08 148.84 3.16.19-.49 2.96-2.37-.19zm28.71 1.18-2.63.66.28 2.46 2.15.14z" fill="#1ca8e0" stroke="#000" stroke-linecap="round" stroke-linejoin="round" stroke-miterlimit="10"/><path d="m397.17 148.64s-.5-6.21.79-6.61c1.28-.4-.2 3.25-.2 3.25m25.25 4.94-1.28-2.57m2.17 1.98s-1.58-5.33-.69-5.03c.9.29.6 2.56.6 2.56m-26.54 4.93-.1 2.86m26.04-1.57s-4.24 4.14-3.45 5.12c.79 1 1.28-1.48 1.28-1.48" fill="none" stroke="#1d1d1b" stroke-linecap="round" stroke-linejoin="round" stroke-miterlimit="10"/><path d="m411.77 117.56s-2.37 57.22-1.97 58.4c0 0 4.73-56.03 1.97-58.4z" fill="#e446a4" stroke="#1d1d1b" stroke-linecap="round" stroke-linejoin="round" stroke-miterlimit="10"/><path d="m415.22 148.69s-2.86-.89-2.76.3c.1 1.18.79.1.79.1z" fill="none" stroke="#1d1d1b" stroke-linecap="round" stroke-linejoin="round" stroke-miterlimit="10"/><path d="m369 177.87.41 2.06 2.09.66-1.76.88.11 1.97-1.66-.93-2.55.49 1.24-1.97-.84-1.97 1.61.21zm92.42-.71.38 1.22 1.46.25-1.2.71.01 1.44-1.14-.74-1.58.3 1.01-1.26-.77-1.19 1.32.42z" fill="#1ca8e0" stroke="#000" stroke-linecap="round" stroke-linejoin="round" stroke-miterlimit="10"/><path d="m369.15 176.16.4-17.75m3.75 22.09 20.52.99m-23.77 4.26 6.01 20.4m-11.84-21.9-19.14 3.75m19.47-9.83-13.35-12.07m16.42 10.27-7.15-14.61m11.64 16.57 12.04-13.41m-11.66 18.93 17.77 11.06m-23.28-9.08-8.68 18.15m4.9-22.5-17.13-4.73m19.38 8.37-14.05 12.75m16.96-12.04-.79 19.53m3.36-20.52 11.84 15.39m-10.26-17.75 19.13 4.93m-18.15-8.48 15.59-8.69m-18.15 5.33 6.31-15.19m-11.24 16.77-9.87-13.61m8.09 16.96-16.38-9.66m16.18 12.03-19.14-.39m116.42-7.19 2.07-11.84m-3.25 18.64-3.26 15.99m7.1-17.76 13.62 5.33m-19.54-7.4-12.72-5.62m7.69-7.7 6.22 10.95m3.09 5.75 9.34 12.89m-7.7-16.86 10.66-6.22m-17.46 9.18-14.08 4.98m1.05-6.17 12.14-.29m-7.7-11.25 8.29 7.99m3.26-1.78-1.78-10.06m5.03 11.25 6.22-9.47m-4.15 13.02h11.84m-15.68 4.73 3.25 13.32m-7.4-14.5-8.28 10.65m-48.9-85.28c-1-2.7 11.2-2.86 12.53-2.71 6.36.7 9.3 1.28 9.24 2.92m-19.64 73.33s19.53-6.2 21-2.66c1.49 3.56-14.5 6.81-21 2.67z" fill="none" stroke="#1d1d1b" stroke-linecap="round" stroke-linejoin="round" stroke-miterlimit="10"/><path d="m410.64 104.46s-2.11-3.7-.54-5.18c1.58-1.47 4.13 2.95.54 5.18z" fill="#1ca8e0" stroke="#000" stroke-linecap="round" stroke-linejoin="round" stroke-miterlimit="10"/><path d="m411.67 117.42s-2.05-3.35-.65-4.76c1.41-1.4 3.9 2.6.65 4.76z" fill="#e446a4" stroke="#1d1d1b" stroke-linecap="round" stroke-linejoin="round" stroke-miterlimit="10"/><path d="m412.51 117.1s1.12-2.65 2.55-2.2c1.43.44.12 3.62-2.55 2.2zm-1.44.06s-2.84.4-3.2-1.05c-.36-1.46 3.04-1.97 3.2 1.05z" fill="#e446a4" stroke="#1d1d1b" stroke-linecap="round" stroke-linejoin="round" stroke-miterlimit="10"/><path d="m409.38 104.65s-2.53-1.37-1.1-2.14c1.43-.78 1.58 2.04 1.58 2.04m1.91.06s.57-3.26 1.84-2.52c1.27.75-1.84 2.52-1.84 2.52z" fill="#1ca8e0" stroke="#000" stroke-linecap="round" stroke-linejoin="round" stroke-miterlimit="10"/><path d="m412.8 116.08a.98.98 0 1 1 -1.96 0 .98.98 0 0 1 1.96 0z" fill="#f7d3e5" stroke="#1d1d1b" stroke-miterlimit="10"/></g><path d="m382.09 146.81s-1.85-1.45-1.71.79c.13 2.1 2.23 3.15 2.23 3.15s3.68-4.2 1.32-4.47c-2.37-.26-1.58 1.45-1.58 1.45m48.33 13.35s-1.82.05-.64 1.32c1.11 1.2 2.9.79 2.9.79s.13-4.33-1.42-3.33c-1.54 1.01-.23 1.65-.23 1.65m-2.62-44.64s-.93-1.56-1.45.1c-.5 1.56.74 2.9.74 2.9s3.83-2.02 2.2-2.87c-1.65-.85-1.55.6-1.55.6m9.09 16.53s-3.38-1.24-3.16 2.2c.2 3.22 3.92 4.58 3.92 4.58s6.2-6.6 2.55-7-3.72 1.56-3.72 1.56" fill="#fff"/><path d="m435.92 91.27s-.13-2.06-1.52-.66c-1.3 1.31-.77 3.31-.77 3.31s4.93-.03 3.72-1.74c-1.22-1.72-1.88-.2-1.88-.2m1.61 42.97s-3.06-2.4-2.83 1.3c.22 3.49 3.7 5.23 3.7 5.23s6.09-6.96 2.17-7.4c-3.91-.43-2.6 2.4-2.6 2.4" style="fill:none;stroke:#1d1d1b;stroke-width:.5;stroke-linecap:round;stroke-linejoin:round;stroke-miterlimit:10"/><path d="m377.13 138.38s.64-15.5 7.18-18.32c6.53-2.82 9.6 12.69 4.1 20.37 0 0-5.64 1.8-11.28-2.05z" fill="none" stroke="#e446a4" stroke-miterlimit="10" stroke-width="2"/><path d="m384.94 120.13s2.56.6 3.75 2.56c1.18 1.98 2.17 18.16-1.38 18.16-3.56 0-8.88-1.38-9.67-2.77-.8-1.38.4-13.41 7.3-17.95z" fill="#fff" stroke="#1d1d1b" stroke-miterlimit="10" stroke-width=".5"/><path d="m384.11 119.33s-10.44 10.69-7.2 19.64c0 0 9.69 5.47 12.43.75 2.73-4.73 5.24-20.68-5.23-20.4zm-10.79 61.59a5.07 5.07 0 1 1 -10.13 0 5.07 5.07 0 0 1 10.13 0z" style="fill:none;stroke:#1d1d1b;stroke-width:.5;stroke-linecap:round;stroke-linejoin:round;stroke-miterlimit:10"/><circle cx="461.24" cy="179.14" r="3.7" style="fill:none;stroke:#1d1d1b;stroke-width:.5;stroke-linecap:round;stroke-linejoin:round;stroke-miterlimit:10"/><path d="m385.92 121.12s-4.53 17.56-3.94 18.54c.59.99 5.13-15.78 3.94-18.54z" fill="#e446a4" stroke="#1d1d1b" stroke-miterlimit="10" stroke-width=".5"/><path d="m379.21 128.61s9.87.99 10.66 2.17c.79 1.19-4.34.8-10.66-2.17z" style="fill:#e446a4;stroke:#1d1d1b;stroke-width:.5;stroke-linecap:round;stroke-linejoin:round;stroke-miterlimit:10"/><path d="m404.93 95.51.38-3.16 1.77 2.84m7.87-.08 1.72-2.13.25 2.58m-12.86 63.48s4.66-.65 5.05.59c.4 1.23.2 13.29.2 13.29" style="fill:none;stroke:#1d1d1b;stroke-width:.5;stroke-linecap:round;stroke-linejoin:round;stroke-miterlimit:10"/><path d="m69.2 163.82s2.2 4.03-1.01 8.05m12.06-8.65s3.42 0 5.64 5.03m4.31-.24c8.49 3.55 27.38 10.92 41.48 25.99" style="fill:none;stroke:#1d1d1b;stroke-width:.5;stroke-linecap:round;stroke-linejoin:round;stroke-miterlimit:10"/><path d="m505.06 105.75s-2.36-.58-1.28 1.47c1.01 1.94 3.45 2.04 3.45 2.04s1.7-5.54-.65-4.79c-2.35.76-.88 2.04-.88 2.04" style="fill:none;stroke:#1d1d1b;stroke-width:.5;stroke-linecap:round;stroke-linejoin:round;stroke-miterlimit:10"/><path d="m525.2 59.64 1.68-1.36 2.02.78.33 2.14-1.69 1.36-2.01-.78z" fill="#f19eb3" stroke="#1d1d1b" stroke-miterlimit="10" stroke-width=".5"/><path d="m470.4 100.92a.64.64 0 1 1 -.06 1.27.64.64 0 0 1 .06-1.27z" fill="#e446a4"/><path d="m470.41 94.7a.82.82 0 1 1 -.82-1.42.82.82 0 0 1 .82 1.43z" fill="#70247e"/><path d="m496.33 99.75a1.07 1.07 0 1 1 -2.13 0 1.07 1.07 0 0 1 2.13 0zm-4.59-7.1a.85.85 0 1 1 -1.7 0 .85.85 0 0 1 1.7 0z" fill="#f7d3e5"/><path d="m492.62 57.56s-2.7-.25-1.17 1.84c1.45 1.97 4.16 1.67 4.16 1.67s.94-6.4-1.53-5.18c-2.47 1.23-.63 2.4-.63 2.4" fill="#e446a4" stroke="#1d1d1b" stroke-miterlimit="10" stroke-width=".5"/><path d="m519.82 48.7s-65.6 2.42-70.8-5.26c-5.2-7.69 11.74-29.38 29.76-18.4 0 0 .57-21.08 26.02-11.31 0 0 12.72 4.92 10.99 18.66 0 0 15.8 5.92 3.91 16.53" fill="#f7d3e5"/><path d="m521.13 48.87s-69.47 2.71-74.67-4.97 11.74-29.38 29.76-18.4c0 0 4.65-20.66 28.19-12.7 0 0 11.7 5.49 9.97 19.23 0 0 19.13 7.42 1.53 18.65" style="fill:none;stroke:#1d1d1b;stroke-width:.5;stroke-linecap:round;stroke-linejoin:round;stroke-miterlimit:10"/><path d="m462.92 47.3v49.65m10.2-50.3v37m26.15-45.54v48.13" style="fill:none;stroke:#000;stroke-width:.5;stroke-linecap:round;stroke-linejoin:round;stroke-miterlimit:10"/><path d="m462.7 93.25c-3.18 3.88-2.01 8.9.57 7.66s-.73-7.7-.73-7.7l.12-.56" style="fill:#f19eb3;stroke:#1d1d1b;stroke-width:.5;stroke-linecap:round;stroke-linejoin:round;stroke-miterlimit:10"/><path d="m498.97 86.05s4.77 4.73 2.08 7.75c-2.7 3.03-3.9-2.2-1.2-8.26" style="fill:#70247e;stroke:#1d1d1b;stroke-width:.5;stroke-linecap:round;stroke-linejoin:round;stroke-miterlimit:10"/><path d="m474.19 80.62c0 .54-.53.99-1.18.99s-1.18-.45-1.18-1c0-.54.52-.98 1.18-.98s1.18.44 1.18.99z" style="fill:#fff;stroke:#1d1d1b;stroke-width:.5;stroke-linecap:round;stroke-linejoin:round;stroke-miterlimit:10"/><path d="m485.32 49.94v50.71" style="fill:none;stroke:#000;stroke-width:.5;stroke-linecap:round;stroke-linejoin:round;stroke-miterlimit:10"/><path d="m485.22 99.2s2.92 5.77.42 6.97-2.66-4.32.48-5.58" style="fill:#1ca8e0;stroke:#000;stroke-width:.5;stroke-linecap:round;stroke-linejoin:round;stroke-miterlimit:10"/><path d="m486.38 91.7c0 .55-.52 1-1.18 1-.65 0-1.18-.45-1.18-1 0-.54.53-.98 1.18-.98.66 0 1.19.44 1.19.99z" style="fill:#f19eb3;stroke:#1d1d1b;stroke-width:.5;stroke-linecap:round;stroke-linejoin:round;stroke-miterlimit:10"/><path d="m500.58 82.14c0 .55-.53 1-1.18 1s-1.18-.45-1.18-1c0-.54.52-.99 1.18-.99s1.18.45 1.18 1z" style="fill:#fff;stroke:#1d1d1b;stroke-width:.5;stroke-linecap:round;stroke-linejoin:round;stroke-miterlimit:10"/><path d="m499.86 76.1c0 .43-.32.78-.7.78-.4 0-.7-.35-.7-.79 0-.43.3-.79.7-.79.38 0 .7.36.7.8z" style="fill:#f19eb3;stroke:#1d1d1b;stroke-width:.5;stroke-linecap:round;stroke-linejoin:round;stroke-miterlimit:10"/><ellipse cx="462.95" cy="71.64" rx="1.06" ry="1.2" style="fill:#1ca8e0;stroke:#000;stroke-width:.5;stroke-linecap:round;stroke-linejoin:round;stroke-miterlimit:10"/><path d="m515.3 73.79a1.1 1.1 0 1 1 -2.22 0 1.1 1.1 0 0 1 2.21 0z" style="fill:#1ca8e0;stroke:#000;stroke-width:.5;stroke-linecap:round;stroke-linejoin:round;stroke-miterlimit:10"/><path d="m488.97 78.45.92-.74 1.1.42.18 1.17-.92.74-1.1-.43z" fill="#f19eb3" stroke="#1d1d1b" stroke-miterlimit="10" stroke-width=".5"/><path d="m471.51 84.61 1.69-.97 1.69.97v1.95l-1.69.97-1.69-.97z" fill="#e446a4" stroke="#1d1d1b" stroke-miterlimit="10" stroke-width=".5"/><path d="m99.26 155.26c1.78-7.46-.49-42.96-.49-42.96s9.4-1.78 12.48.33c0 0-5.35 36.8.33 48.95m-75.47 4.02s2.67-22.1 1.14-52.2c0 0 5.83-3.63 9.65-.61 0 0-2.81 37.01.2 50.69" style="fill:none;stroke:#1d1d1b;stroke-width:.5;stroke-linecap:round;stroke-linejoin:round;stroke-miterlimit:10"/><path d="m35.02 164.5s-1.1 1.8 2.82 1.73c9.4-.16 10.03-4.23 9.4-4.23m20.69-32.92s-1.1-17.09 1.1-17.24c0 0 14.58-.63 15.2.15.63.79 0 16.15-.3 17.25" style="fill:none;stroke:#1d1d1b;stroke-width:.5;stroke-linecap:round;stroke-linejoin:round;stroke-miterlimit:10"/><path d="m68.72 129.4s-2.2-17.1 2.35-17.1c0 0 11.75-.93 12.07.8 0 0 .62 17.08-.94 17.24m-19.1 34.59c-.95-2.46 1.5-36.97 1.5-36.97 0-.68-.82-1.64-5.32-1.5-3.96.12-5.04 1.36-5.04 1.36s1.22 34.52.68 36.84m23.85-71.55s1.48-37.91 2.04-39.43c0 0 3.6-2.09 6.57.48 0 0 1.32 44.66-.8 53.75m-34.18 50.69s1.61 3.53 0 5.88m50.02-5.88s-2.8 4.26.73 7.35m-38.58 7.14s43.2 37.1 50.45 95.15" style="fill:none;stroke:#1d1d1b;stroke-width:.5;stroke-linecap:round;stroke-linejoin:round;stroke-miterlimit:10"/><path d="m546.54 196.36s6.45 10.73.07 15.9c0 0-6.14-5.87-.07-15.9z" fill="#96c01d"/><path d="m547.26 196.89s4.63 10.07-1.75 15.24c0 0-4.32-5.21 1.75-15.24z" fill="none" stroke="#1d1d1b" stroke-miterlimit="10" stroke-width=".5"/><path d="m538.25 195.98s11 6 8.1 13.69c0 0-8.27-1.97-8.1-13.7z" fill="#96c01d"/><path d="m539.15 196.07s9.08 6.35 6.19 14.04c0 0-6.37-2.32-6.2-14.04z" fill="none" stroke="#1d1d1b" stroke-miterlimit="10" stroke-width=".5"/><g stroke="#1d1d1b" stroke-miterlimit="10" stroke-width=".5"><path d="m540.3 204.6s-2.57 5.6-7.06 4.78c0 0 .63-3.71 7.06-4.78z" fill="#96c01d"/><path d="m537.7 207.05s1.69 5.12 2.86 1.7c1.18-3.4-3.1-3.62-2.19-1.68.92 1.94 5.7 3.37 4.18 1.03-1.53-2.35-7.55-2.26-4.84.93 4.1 4.8 8.97-5.43 3.93-5.49-5.04-.05-3.95 3.5-3.95 3.5z" fill="#e446a4"/></g><path d="m520.87 194.75s1.7 5.12 2.87 1.7c1.17-3.4-3.1-3.61-2.19-1.68.92 1.94 5.7 3.37 4.18 1.03-1.53-2.35-7.55-2.26-4.84.93 4.1 4.8 8.97-5.43 3.93-5.49s-3.95 3.5-3.95 3.5z" fill="#e446a4" stroke="#1d1d1b" stroke-miterlimit="10" stroke-width=".5"/><path d="m534.47 204.78s-5.66-2.45-4.94-6.96c0 0 3.73.56 4.94 6.96z" fill="#96c01d" stroke="#1d1d1b" stroke-miterlimit="10" stroke-width=".5"/><path d="m534.07 205.51s-1.08-6.07 3.07-7.96c0 0 1.6 3.41-3.07 7.96zm-3.63-9.2s-6.16.16-7.4-4.23c0 0 3.6-1.07 7.4 4.23z" fill="#96c01d" stroke="#1d1d1b" stroke-miterlimit="10" stroke-width=".5"/><path d="m532.83 205.1s1.7 5.12 2.87 1.71-3.1-3.62-2.2-1.68c.92 1.93 4.46 3.8 4.18 1.02-.53-5.42-7.54-2.25-4.83.93 4.1 4.8 8.97-5.43 3.93-5.48-5.04-.06-3.95 3.5-3.95 3.5z" fill="#f19eb3" stroke="#1d1d1b" stroke-miterlimit="10" stroke-width=".5"/><path d="m530.63 198.25s.76 6.12-3.5 7.79c0 0-1.4-3.5 3.5-7.79z" fill="#96c01d" stroke="#1d1d1b" stroke-miterlimit="10" stroke-width=".5"/><path d="m531.46 198.22s-4.68 4.02-8.42 1.4c0 0 2.12-3.11 8.42-1.4z" fill="#96c01d" stroke="#1d1d1b" stroke-miterlimit="10" stroke-width=".5"/><path d="m531.74 199.5s3.54-4.06 0-3.34c-3.53.72-1.53 4.51-.33 2.74s-1.75-5.53-3-3.03c-1.24 2.5 3.65 6.56 5.02 2.6 2.06-5.96-9.23-4.96-6.72-.6 2.51 4.38 5.02 1.63 5.02 1.63zm10.28 9.15s3.04 9.21 5.16 3.07c2.1-6.13-5.59-6.5-3.94-3.02 1.64 3.48 10.25 6.06 7.51 1.84s-13.58-4.06-8.7 1.68c7.36 8.63 16.14-9.77 7.07-9.87s-7.1 6.3-7.1 6.3z" fill="#f19eb3" stroke="#1d1d1b" stroke-miterlimit="10" stroke-width=".5"/><path d="m509.83 190.6s5.71-4.23 8.97-.91c0 0-2.98 3.78-8.96.9z" fill="#96c01d"/><path d="m510.1 190.16s5.43-3.16 8.69.15c0 0-2.7 2.73-8.7-.15z" fill="none" stroke="#1d1d1b" stroke-miterlimit="10" stroke-width=".5"/><path d="m516.68 191.34s-5.69-2.37-5.03-6.89c0 0 3.73.5 5.03 6.9z" fill="#96c01d" stroke="#1d1d1b" stroke-miterlimit="10" stroke-width=".5"/><path d="m518.8 189.56s-4.7 5.6-3.3 1.36c1.39-4.25 4.77-3.54 2.78-1.48-2 2.06-6.57 2.67-3.85.27 2.73-2.4 7.22-.96 3.04 2.16-6.31 4.7-4.75-6.48-.9-5.43s2.24 3.12 2.24 3.12z" fill="#e446a4" stroke="#1d1d1b" stroke-miterlimit="10" stroke-width=".5"/><path d="m556.34 212.55s-10.84 6.28-15.91-.18c0 0 5.97-6.05 15.9.18z" fill="#96c01d"/><path d="m555.8 213.27s-10.15 4.47-15.22-2c0 0 5.28-4.23 15.21 2z" fill="none" stroke="#1d1d1b" stroke-miterlimit="10" stroke-width=".5"/><path d="m540.05 219.78s7.73-10.33 16.56-6.68c0 0-2.93 7.32-16.56 6.68z" fill="#96c01d" stroke="#1d1d1b" stroke-miterlimit="10" stroke-width=".5"/><path d="m554.76 211.97s-10.77 2.2-4.14 5.4c6.62 3.2 8.07-5.41 3.93-4.02s-4 11.15 1.12 8.62 2.4-16.45-4.7-11.72c-10.7 7.13 5.7 19 9.64 8.57 3.64-9.62-5.85-6.85-5.85-6.85z" fill="#e446a4"/><path d="m554.25 211.64s-10.77 2.2-4.14 5.4c6.62 3.2 8.07-5.42 3.93-4.03s-4 11.15 1.12 8.62 2.18-15.16-4.92-10.42c-10.7 7.13 8.79 16.66 10.11 6.46 1.33-10.2-6.1-6.03-6.1-6.03z" fill="none" stroke="#1d1d1b" stroke-miterlimit="10" stroke-width=".5"/><path d="m119.34 231.74s.48 14.82-9.1 16.49c0 0-2.96-9.62 9.1-16.49z" fill="#96c01d"/><path d="m119.78 232.7s-1.02 13.09-10.6 14.76c0 0-1.46-7.89 10.6-14.75z" fill="none" stroke="#1d1d1b" stroke-miterlimit="10" stroke-width=".5"/><path d="m111 226.57s7.9 12.55.48 18.82c0 0-7.42-6.8-.49-18.82z" fill="#96c01d"/><path d="m111.86 227.18s5.73 11.8-1.69 18.08c0 0-5.24-6.06 1.7-18.08z" fill="none" stroke="#1d1d1b" stroke-miterlimit="10" stroke-width=".5"/><g stroke="#1d1d1b" stroke-miterlimit="10" stroke-width=".5"><path d="m108.14 236.67s-5.89 4.3-10.05.87c0 0 2.8-3.48 10.05-.87z" fill="#96c01d"/><path d="m104.03 237.7s-1.2 6.26 1.98 3.41-1.12-5.53-1.29-3 3.95 6.77 3.73 3.46c-.23-3.3-6.5-6.68-5.54-1.82 1.46 7.32 12.4-.44 7.22-3.4-5.18-2.97-6.1 1.34-6.1 1.34z" fill="#e446a4"/></g><path d="m93.73 215.28s-1.2 6.27 1.98 3.42-1.12-5.53-1.29-3 3.95 6.77 3.73 3.47c-.23-3.3-6.5-6.68-5.54-1.82 1.46 7.31 12.4-.45 7.22-3.41-5.18-2.97-6.1 1.34-6.1 1.34z" fill="#e446a4" stroke="#1d1d1b" stroke-miterlimit="10" stroke-width=".5"/><path d="m102 233.5s-4.43-5.8-1.09-10.04c0 0 3.53 2.72 1.1 10.03z" fill="#96c01d" stroke="#1d1d1b" stroke-miterlimit="10" stroke-width=".5"/><path d="m101.18 234.02s2.37-6.9 7.76-6.46c0 0-.31 4.45-7.76 6.46zm1.55-11.6s-6.46-3.39-5.22-8.64c0 0 4.35.97 5.22 8.64z" fill="#96c01d" stroke="#1d1d1b" stroke-miterlimit="10" stroke-width=".5"/><path d="m100.13 232.88s-1.2 6.27 1.98 3.42-1.13-5.53-1.3-3c-.17 2.52 2.41 6.5 3.73 3.46 2.58-5.91-6.5-6.68-5.53-1.82 1.46 7.32 12.4-.45 7.22-3.4-5.18-2.97-6.1 1.34-6.1 1.34z" fill="#f19eb3" stroke="#1d1d1b" stroke-miterlimit="10" stroke-width=".5"/><path d="m101.8 224.53s-2.74 6.76-8.1 6.03c0 0 .55-4.42 8.1-6.03z" fill="#96c01d" stroke="#1d1d1b" stroke-miterlimit="10" stroke-width=".5"/><path d="m102.67 224.97s-7.14 1.46-9.5-3.4c0 0 3.99-1.99 9.5 3.4z" fill="#96c01d" stroke="#1d1d1b" stroke-miterlimit="10" stroke-width=".5"/><path d="m102.22 226.46s6.01-2.15 1.94-3.44c-4.07-1.3-4.2 3.77-1.93 2.63s1.38-6.73-1.35-4.86 0 8.89 3.69 5.59c5.56-4.98-6.68-10.46-6.6-4.5.07 5.97 4.25 4.58 4.25 4.58zm5.36 15.38s-2.16 11.28 3.56 6.15c5.72-5.12-2.02-9.94-2.32-5.4-.31 4.55 7.1 12.17 6.7 6.23s-11.7-12.01-9.96-3.27c2.63 13.16 22.3-.8 13-6.13-9.33-5.33-10.98 2.42-10.98 2.42z" fill="#f19eb3" stroke="#1d1d1b" stroke-miterlimit="10" stroke-width=".5"/><path d="m84.72 204.64s8.33-1.08 9.8 4.22c0 0-5.27 2.2-9.8-4.22z" fill="#96c01d"/><path d="m85.24 204.33s7.43-.14 8.9 5.17c0 0-4.37 1.26-8.9-5.17z" fill="none" stroke="#1d1d1b" stroke-miterlimit="10" stroke-width=".5"/><path d="m91.37 209.35s-4.52-5.73-1.23-10.02c0 0 3.57 2.67 1.23 10.02z" fill="#96c01d" stroke="#1d1d1b" stroke-miterlimit="10" stroke-width=".5"/><path d="m94.6 208.74s-8.1 3.08-4.22-.5c3.9-3.6 6.97-.92 3.73.06-3.24.99-8.32-1.02-4.12-1.93 4.2-.92 8 3.17 1.88 3.98-9.23 1.23-1.17-9.43 2.2-6.13 3.38 3.31.52 4.52.52 4.52z" fill="#e446a4" stroke="#1d1d1b" stroke-miterlimit="10" stroke-width=".5"/><path d="m120.13 254.12s-14.82.25-16.34-9.34c0 0 9.66-2.82 16.34 9.34z" fill="#96c01d"/><path d="m119.16 254.55s-13.07-1.22-14.58-10.82c0 0 7.9-1.34 14.58 10.82z" fill="none" stroke="#1d1d1b" stroke-miterlimit="10" stroke-width=".5"/><path d="m99.13 252.22s13.94-6.23 20.96 2.63c0 0-7.24 5.88-20.96-2.63z" fill="#96c01d" stroke="#1d1d1b" stroke-miterlimit="10" stroke-width=".5"/><path d="m118.84 252.62s-12.4-3.93-7.4 3.2c5 7.12 11.47-.95 6.39-1.9s-10.55 9.22-3.81 9.56c6.74.33 11.96-15.62 1.89-14.82-15.18 1.2-5.06 22.91 5.03 14.4 9.3-7.84-2.1-10.44-2.1-10.44z" fill="#e446a4"/><path d="m118.5 251.98s-12.4-3.93-7.4 3.2c5.01 7.12 11.48-.95 6.4-1.9-5.08-.96-10.55 9.22-3.81 9.55 6.74.34 10.99-14.4.91-13.61-15.17 1.2-.51 22.3 6.73 12.51 7.24-9.77-2.82-9.75-2.82-9.75z" fill="none" stroke="#1d1d1b" stroke-miterlimit="10" stroke-width=".5"/><path d="m189.55 242.63s18.48 14.1 25.77 26.26" style="fill:none;stroke:#1d1d1b;stroke-width:.5;stroke-linecap:round;stroke-linejoin:round;stroke-miterlimit:10"/><path d="m524.04 143.83s30.6-8.26 32.89-3.07c2.28 5.2-26.42 7.74-32.89 3.07z" fill="#1ca8e0"/><path d="m524.41 144.3s30.6-8.25 32.88-3.06c2.29 5.2-26.41 7.74-32.88 3.07z" style="fill:none;stroke:#1d1d1b;stroke-width:.5;stroke-linecap:round;stroke-linejoin:round;stroke-miterlimit:10"/><path d="m551.3 142.19s-.65-1.86 1.3-1.93 3.75 1.23 3.01 2.43-4.23 1.84-4.3-.5z" fill="#96c01d" stroke="#1d1d1b" stroke-miterlimit="10" stroke-width=".5"/><path d="m552.66 141.95s-.28-.64.37-.67c.64-.02 1.45.6 1.13.94-.31.34-1.42.3-1.5-.27z" style="fill:#70247e;stroke:#1d1d1b;stroke-width:.5;stroke-linecap:round;stroke-linejoin:round;stroke-miterlimit:10"/><path d="m528.85 145s22.13-22.68 26.74-19.38-18.8 20.12-26.74 19.39z" fill="#1ca8e0"/><path d="m529.42 145.23s22.12-22.69 26.73-19.38c4.61 3.3-18.8 20.11-26.73 19.38z" style="fill:none;stroke:#1d1d1b;stroke-width:.5;stroke-linecap:round;stroke-linejoin:round;stroke-miterlimit:10"/><path d="m551.48 129.72s-1.51-1.28.13-2.33 3.86-.84 3.83.56-2.7 3.74-3.96 1.77z" fill="#96c01d" stroke="#1d1d1b" stroke-miterlimit="10" stroke-width=".5"/><path d="m552.52 128.81s-.57-.4-.02-.75 1.55-.23 1.46.22c-.1.45-1.07 1-1.44.53z" style="fill:#70247e;stroke:#1d1d1b;stroke-width:.5;stroke-linecap:round;stroke-linejoin:round;stroke-miterlimit:10"/><path d="m524.43 146.05s-31.55 3.04-32.94-2.46 27.34-3.23 32.94 2.46z" fill="#1ca8e0"/><path d="m524.14 145.51s-31.54 3.05-32.93-2.45 27.34-3.23 32.93 2.45z" style="fill:none;stroke:#1d1d1b;stroke-width:.5;stroke-linecap:round;stroke-linejoin:round;stroke-miterlimit:10"/><path d="m497.28 143.12s.33 1.95-1.6 1.69c-1.94-.26-3.5-1.84-2.57-2.9s4.48-1.1 4.17 1.21z" fill="#96c01d" stroke="#1d1d1b" stroke-miterlimit="10" stroke-width=".5"/><path d="m495.9 143.13s.17.68-.47.6c-.65-.09-1.34-.84-.97-1.12.37-.27 1.45-.06 1.44.52z" style="fill:#70247e;stroke:#1d1d1b;stroke-width:.5;stroke-linecap:round;stroke-linejoin:round;stroke-miterlimit:10"/><path d="m536.42 140.76s20.72-17.45 15.07-25.7c-4.3-6.3-16.67 16.9-16.67 16.9s13.85-17.61 5.46-21.48c-8.4-3.87-9.47 19.93-9.47 19.93s6.9-20.83.05-23.16c-9.85-3.36-5.6 30.58-5.6 30.58s4.31-29.97-3.32-30.57c-11.84-.92-.7 31.65-.7 31.65s-3.2-29.3-12.65-28.28 10.16 28.86 10.16 28.86-10.62-24.35-19.97-22.37c-9.35 1.97 17.9 26.58 17.9 26.58s7.85 7.16 19.75-2.94z" fill="#1ca8e0"/><path d="m535.56 141.42s18.69-15.75 15.74-25.31c-2.96-9.56-18.5 19.58-18.5 19.58s15.84-20.57 7.45-24.43c-8.4-3.87-11.43 22.5-11.43 22.5s7.33-22.06 1.18-25.85c-6.16-3.8-5.17 25.24-5.17 25.24s3.52-22.83-3.76-25.23-.7 31.64-.7 31.64-3.19-29.3-12.64-28.27 10.16 28.86 10.16 28.86-10.63-24.35-19.98-22.37c-1.43.3-2.21 1.4-1.82 2.8.54 1.95 1.96 3.73 3.22 5.27 1.8 2.2 3.83 4.22 5.88 6.19 2.04 1.96 4.13 3.86 6.29 5.7 1.58 1.35 3.19 2.67 4.75 4.05 1.48 1.29 2.7 2.57 4.56 3.33a11.24 11.24 0 0 0 8.43.2c2.23-.9 4.5-2.36 6.34-3.9z" style="fill:none;stroke:#1d1d1b;stroke-width:.5;stroke-linecap:round;stroke-linejoin:round;stroke-miterlimit:10"/><path d="m497.16 119.6s1.77-2.08 3.7-.72 2.72 4.74.84 4.84c-1.87.1-5.7-1.27-4.54-4.13zm8.79-5.05c.1-.75 1.8-2.82 4.01-1.7 2.22 1.12 3.56 3.81 2.42 4.88s-7.12 2.03-6.43-3.18zm13.37-4.4s.86-1.66 1.93-.52 2.77 4.2 1.73 5.27c-1.04 1.05-5.93-.51-3.66-4.75zm8.42-.7s1.7-1.66 2.5-.07c.81 1.6 2.02 5.03-.91 5.03-2.94 0-2.7-3.58-1.6-4.96zm8.81 3.86s1.69-1.86 3.56-1.01c1.88.84 2.44 3.09 1.39 4.04s-6.14 1.4-4.95-3.03zm10.65 3.35s.82-2.08 2.54-.7c1.73 1.4 2.3 3.85.79 4.33-1.52.48-5-1.56-3.33-3.63z" fill="#96c01d" stroke="#1d1d1b" stroke-miterlimit="10" stroke-width=".5"/><path d="m498.7 121.03s.38-1.56 1.39-1.12c1 .44 1.19 2.07-1.4 1.12zm8.95-6.25s-.1-.93 1.08-.74c1.17.18 2.22 1.12 1.24 1.75s-2.39-.69-2.32-1zm11.87-3.7s.65-.8 1.43-.37c.78.44.83 1.8-.1 1.9-.94.1-1.9-1.05-1.33-1.53zm8.65-.53s.66-.7 1.2-.55 1.38 1.11.5 1.63c-.9.51-2.24-.28-1.7-1.08zm10.03 3.53s.16-.55 1.2-.55c1.05-.01 2.16.5 1.4 1.31-.74.82-2.82 0-2.6-.76zm10.34 3.38s.23-.76.8-.3c.58.47.81 1.6.3 1.65-.52.06-1.46-.78-1.1-1.35z" style="fill:#70247e;stroke:#1d1d1b;stroke-width:.5;stroke-linecap:round;stroke-linejoin:round;stroke-miterlimit:10"/><path d="m520.49 119.04-.83-2.43m1.7 2.07-.44-2.3m1.27 2.34.29-2.38" style="fill:none;stroke:#1d1d1b;stroke-width:.5;stroke-linecap:round;stroke-linejoin:round;stroke-miterlimit:10"/><path d="m520.1 116.17a.53.53 0 1 1 -1.05.11.53.53 0 0 1 1.04-.11zm1.29-.39a.53.53 0 1 1 -1.05.1.53.53 0 0 1 1.05-.1zm1.71.04a.53.53 0 1 1 0 0zm1.01 4.62 2.51.98-2.31.2" fill="#1d1d1b"/><path d="m522 144.78s1.1 7.84.78 9.19c0 0 .9.62 1.24 1.54m-1.66-1.01s.09.82.27 1.4" style="fill:none;stroke:#1d1d1b;stroke-width:.5;stroke-linecap:round;stroke-linejoin:round;stroke-miterlimit:10"/><path d="m523.35 143.86s2.72 5.2 2.77 5.68c.05.47-3.65 1.6-4.64 2.42-.98.82-.16 1.8-.16 1.8m-.33-1.59s-1.09.68-1.5 1.32" style="fill:none;stroke:#1d1d1b;stroke-width:.5;stroke-linecap:round;stroke-linejoin:round;stroke-miterlimit:10"/><path d="m520.6 146.17s-29.38-11.88-28.07-17.4 25.74 9.77 28.07 17.4z" fill="#1ca8e0"/><path d="m520.6 145.56s-29.38-11.87-28.07-17.4c1.3-5.51 25.74 9.78 28.07 17.4z" style="fill:none;stroke:#1d1d1b;stroke-width:.5;stroke-linecap:round;stroke-linejoin:round;stroke-miterlimit:10"/><path d="m497.88 131.03s-.6 1.87-2.2.75-2.25-3.24-.94-3.75 4.48 1.08 3.14 3z" fill="#96c01d" stroke="#1d1d1b" stroke-miterlimit="10" stroke-width=".5"/><path d="m496.65 130.4s-.16.68-.7.3c-.52-.37-.79-1.35-.34-1.43.46-.08 1.32.61 1.04 1.13zm22.13 13.33s-.45-25.15 2.32-24.97 4.05 2.07 2.65 3.54c-1.4 1.46-1.8 18.47 5.4 23.1 0 0-6.9 4.21-10.37-1.67z" style="fill:#70247e;stroke:#1d1d1b;stroke-width:.5;stroke-linecap:round;stroke-linejoin:round;stroke-miterlimit:10"/><path d="m520.97 120.37.46-.23m-.52-.28.47.7m-12.15-4.2s8.54 14.4 8.13 19.05m10.97-23.22s-2.37 20.45-3.5 23.98m12.77-20.52s-7.73 18.92-9.3 20.66m19.68-18.08s-17.47 22.26-19.09 22.84m22.27-12.93s-9.1 8.92-11.07 9.19m10.23 3.74s-13.65 3.21-16.65 2.72m-38.77-2.49s17.73 1.47 19.52 1.04m-18.6-13.77s18.02 10.62 19.44 11.64m-14.92-20.07s11.33 13.93 11.83 14.07m-2.73-12.96s4.06.33 4.7-2m-11.65 6.75s3.16-.07 3.04-2.25m-5.86 8.73s1.6-.74 1.11-1.59m-2.28 12.47s.8-1.57.43-2.2m36.2-23.81s1.8 1.22 3 1.04m6.63 1.39s.97 1.8 2.39 1.73m-20.2-5.91s.9.61 1.97.23m20.17 13.33s.65 1.83 1.52 1.78m-2.12 9.29s-.11 2.08 1.1 2.34" style="fill:none;stroke:#1d1d1b;stroke-width:.5;stroke-linecap:round;stroke-linejoin:round;stroke-miterlimit:10"/><path d="m191 130.15-2.75-.25 1.19-.98-.84-1.29h1.67l-.05-1.4 1.6 2" style="fill:#f9ba05;stroke:#1e1e1e;stroke-width:.5;stroke-linecap:round;stroke-linejoin:round;stroke-miterlimit:10"/><path d="m209.08 154.34s3.5-3.64 8.94-2.9c4.57.62 8.36 3.11 13 3.4 2.13.13 4.25-.32 5.55-2.11 3.23-4.45 1.53-10.33-3.16-12.31 2.88.24 7.38.8 8.09-.58 2.25 2.47 4.52 7.87 3.51 11.06-1.1 3.5-4.55 6.1-7.96 7.04-1.8.5-4.25.9-6.12.73a21.03 21.03 0 0 1 -8.01-2.9c-3.02-2.04-4.96-2.72-8.66-2.24" fill="#f19eb3"/><path d="m209.08 154.71s3.5-3.64 8.94-2.9c2.85.39 5.54 1.65 8.21 2.62 2.89 1.04 6.39 1.73 9.12-.05 3.76-2.45 4.62-8.05 1.56-11.29a17.9 17.9 0 0 0 -3.52-2.77c1.21.26 8.02 1.63 8.72.25 2.26 2.46 3.55 7.1 2.55 10.28-1.11 3.5-4.35 5.85-7.77 6.8-1.8.5-4.02.88-5.89.72-2.3-.2-5.38-1.1-7.31-2.4-3.02-2.03-5.8-2.91-9.5-2.43" style="fill:none;stroke:#1d1d1b;stroke-width:.5;stroke-linecap:round;stroke-linejoin:round;stroke-miterlimit:10"/><path d="m215.62 145.87s1.69-2.81 5.45-1.79c3.77 1.03 6.36 8.64 15.09 14.63l-.17 3.93s-7.68-6.16-9.73-6.97c-5.15-2.05-5.7-4.87-7.59-5.9-1.88-1.02-3.05-3.9-3.05-3.9z" fill="#fff"/><path d="m193.92 138.66 4.2-4.57s-.99 5.56 3.46 7.04 15.36 2.07 18.57-.4l1.22 2.83s-5.37-.1-6.62 2.9c0 0-6.32 3.59-4.6 7.91 0 0-9.5.84-9.74-1.5 0 0 0-5.08-1.5-5.1-1.96-.02-2.7-.63-2.98-3.15-.05-.36-.08-1.04.2-1.16 1.29-.57 1.03-3.88-2.2-4.8z" fill="#f7d3e5"/><path d="m210.3 133.2s7.54 4.13 10.32 9.07c2.79 4.94 3.8 6.86 3.8 6.86s8.7 7.24 10.55 9.07c1.84 1.84 4.41 1.23 6.13.25 1.71-.98 1.93-1.14 2.7-1.03.98.15 2.72-.05 3.35-.31 0 0 .68.48-.96 1.2-1.65.73-3.65-.1-3.95 1.4" style="fill:none;stroke:#1d1d1b;stroke-width:.5;stroke-linecap:round;stroke-linejoin:round;stroke-miterlimit:10"/><path d="m238.8 160.04s4.73.45 4.92 1.23c.2.78-.32.54-2.52.44s-2.7.54-3.36.56c-.66.03-9.25-4.97-10.77-6.17-1.51-1.2-4.55-1.87-6.39-4.92-2.46-4.07-5.07-4.4-6.18-4.82" style="fill:none;stroke:#1d1d1b;stroke-width:.5;stroke-linecap:round;stroke-linejoin:round;stroke-miterlimit:10"/><path d="m198.82 154.2s-40.1 16.3-48.75 73.58c-.1.61.97 2.78 1.2 3.31a19.15 19.15 0 0 0 2.48 4.1 21.67 21.67 0 0 0 6.26 5.57c3.99 2.34 7.88 4.37 12.4 5.14 6.83 1.15 12.41 1.88 19.46 1.19.66-.07 8.65-1.22 9.47-1.28 2.84-.23 5.72-.11 8.56.06 12.1.74 20.05 5.8 23.26 5.05 3.21-.74 3.84-10.08 23.63-11.1 0 0 5.44 0 8.9-1.73s4.94-2.96 8.15-3.2c3.21-.25-.25-4.7 2.47-6.43s-16.4-65.55-65.3-72.55c0 0-5.51 2.48-12.19-1.72z" fill="#e446a4"/><path d="m213.95 156.34c-4-1.34-5.34 1.16-9.85 0-4.5-1.17-5.59-1.9-5.59-1.9s-41.27 23.87-35.26 62.65c0 0 13.46-5.12 39.48-57.6 0 0 5.15 50.97 27.14 58.6 0 0 14.01-17.96-14.9-56.13 0 0 41.48 46.7 52.7 47.6 0 0-21.34-51.85-54.08-53.2" fill="#f7d3e5"/><path d="m269.93 210.6s-3-.85-4.15 1.15c0 0 1.63.97 4.15-1.15z" fill="#96c01d" stroke="#1d1d1b" stroke-miterlimit="10" stroke-width=".5"/><path d="m270.1 210.18s-2.37 2.03-1.35 4.1c0 0 1.71-.83 1.34-4.1z" fill="#96c01d" stroke="#1d1d1b" stroke-miterlimit="10" stroke-width=".5"/><path d="m210.02 127.36s-.98 4.04.72 5.84c0 0-3.68 6.56-5.66 4.22-1.97-2.33-.27-5.03-.27-5.03m39.96 26.26s2.87.22 3.02.56-.64.93-2.52.98c0 0-2.71.03-3.31.32m5.68-1.08s-3.84-.03-4.68.17m2.31.59s-.78.7-2 .7" style="fill:none;stroke:#1d1d1b;stroke-width:.5;stroke-linecap:round;stroke-linejoin:round;stroke-miterlimit:10"/><path d="m204.8 133.65s-3.7.9-4.9.7c-1.2-.17-2.85 1.3-3.77 2.4s-6.6 9.42-7.72 9.47c-1.13.05-1.98-.17-6.1 1-5.4 1.54-7.33 1.94-8.15 1.76-.83-.19-2.95-2.03-3.13-2.85-.18-.83-1.75-1.93-2.57-2.12-.83-.18-1.17-1-1.48-1-.3 0-.12.73.43 1.46.56.74 2.33.62 2.09 3.19" style="fill:none;stroke:#1d1d1b;stroke-width:.5;stroke-linecap:round;stroke-linejoin:round;stroke-miterlimit:10"/><path d="m167.67 144.77s-2.13-.86-2.2-.5c0 .04 0 .13-.03.16-.13.15.86 1.27 1.85 1.82 1.1.61 1.84.61 2.09 1.04m-2.15-1.03s.65 1.19 1.35 1.45" style="fill:none;stroke:#1d1d1b;stroke-width:.5;stroke-linecap:round;stroke-linejoin:round;stroke-miterlimit:10"/><path d="m172.13 148.64s-3.49-1.29-4.22-.86c0 0-.4.25.58.73 1.2.6 1.8.27 2.73 1.11.83.75 1.04 1.47 2.5 1.41 1.48-.06 9.53-.71 11.29-.67 4.94.1 4.84-.13 6.31-1.84 1.47-1.72 5.4-5.4 5.4-5.4m-31.25 1.22s.94.79 2.14 1.3c1.32.55 1.44.85 1.44.85m27.15-2.68s-.1 4.19 3.28 3.35m-2.16-11.7s-2.11 10.76 22.99 6.62" style="fill:none;stroke:#1d1d1b;stroke-width:.5;stroke-linecap:round;stroke-linejoin:round;stroke-miterlimit:10"/><path d="m198.98 147.24s3.54 4.58.82 6.53c-2.73 1.94-45.22 29.95-48.23 74.03" style="fill:none;stroke:#1d1d1b;stroke-width:.5;stroke-linecap:round;stroke-linejoin:round;stroke-miterlimit:10"/><path d="m150.24 222.45s0 12.7 13.02 18.04c0 0 17.36 9.01 32.4 5.34 15.02-3.68 34.07 7.36 39.4.67 10.59-13.33 26.7-3.68 28.38-8.68 1.67-5.01 12.69-2.68 10.68-5.68-2-3 3-5.01 3-5.01s-22.09-62.79-65.5-71.14c0 0-6.46-3.6 2.89-9.62" style="fill:none;stroke:#1d1d1b;stroke-width:.5;stroke-linecap:round;stroke-linejoin:round;stroke-miterlimit:10"/><path d="m212.61 156.24c-4-1.33-5.11 1.26-9.62.1-4.5-1.17-3-2.34-3-2.34s-39.2 19.57-37.85 63.09c0 0 15.03-7.3 41.05-59.78 0 0 6.06 54.4 28.04 62.02 0 0 8.27-24.6-20.63-62.76 0 0 48 52 59.2 52.89 0 0-21.03-51.14-53.78-52.49m19.03 89.53s-1.47-14.83-2.81-18.87" style="fill:none;stroke:#1d1d1b;stroke-width:.5;stroke-linecap:round;stroke-linejoin:round;stroke-miterlimit:10"/><path d="m268.1 209.66s2.85-2.05 2.17.2c-.68 2.24-3.02.71-1.8.04 1.23-.67 4.3.41 2.6 1.06s-4.84-1.7-2.2-2.34c4-.96 3.62 5.62.94 3.73-2.67-1.9-1.7-2.7-1.7-2.7z" fill="#f19eb3" stroke="#1d1d1b" stroke-miterlimit="10" stroke-width=".5"/><path d="m205.1 138.54s-.26-1.47-1.03-.7c-.78.78.17 3.19.17 3.19s4.04-2.32 2.84-2.84c-1.2-.51-1.98.35-1.98.35z" style="fill:#1ca8e0;stroke:#000;stroke-width:.5;stroke-linecap:round;stroke-linejoin:round;stroke-miterlimit:10"/><path d="m161.68 216.24s4.3 2.2 6.68-.5c0 0-2.2-1.97-6.68.5z" fill="#96c01d" stroke="#1d1d1b" stroke-miterlimit="10" stroke-width=".5"/><path d="m161.58 216.7s4.13-2.52 3.08-5.95c0 0-2.84.84-3.08 5.95z" fill="#96c01d" stroke="#1d1d1b" stroke-miterlimit="10" stroke-width=".5"/><path d="m159.7 218.22s.52-4.2 1.95-1.76c1.42 2.45-1.84 3.26-1.43 1.63.4-1.63 3.87-3.46 3.06-1.42-.82 2.03-5.47 2.89-3.87.02 2.42-4.33 7.94 1.4 4.07 2.22-3.87.81-3.78-.7-3.78-.7z" fill="#f19eb3" stroke="#1d1d1b" stroke-miterlimit="10" stroke-width=".5"/><path d="m230.4 218.86s-2.71-4-6.09-2.8c0 0 .97 2.8 6.1 2.8z" fill="#96c01d" stroke="#1d1d1b" stroke-miterlimit="10" stroke-width=".5"/><path d="m230.9 218.45s-4.83.05-5.69 3.53c0 0 2.87.74 5.7-3.53z" fill="#96c01d" stroke="#1d1d1b" stroke-miterlimit="10" stroke-width=".5"/><path d="m230.41 217.55s4.2.56 1.74 1.96c-2.47 1.4-3.25-1.86-1.62-1.44 1.62.43 3.43 3.9 1.4 3.07-2.04-.83-2.84-5.5.01-3.86 4.3 2.45-2.88 7.7-3.66 3.83-.78-3.89 2.13-3.56 2.13-3.56z" fill="#f19eb3" stroke="#1d1d1b" stroke-miterlimit="10" stroke-width=".5"/><path d="m194.3 138.32s2.96 1.3 2.4 5m24.92 0s-8.52.74-7.04 3.52h.93m-64.57 76.8s2.4 15.75 27.05 20.75c24.64 5 16.67-4.26 32.42 0s18.16 3.7 22.8 1.48c4.62-2.22 5.4-6.74 10.96-6.37s14.04.82 16.64-1.4c2.6-2.23 2.22-4.27 5.37-4.45 3.15-.19 7.41.74 6.86-1.67-.56-2.41 3.33-7.04 4.63-6.3" style="fill:none;stroke:#1d1d1b;stroke-width:.5;stroke-linecap:round;stroke-linejoin:round;stroke-miterlimit:10"/><path d="m200.39 152.63-1.86 2.32s1.5 2.58 6.39 2.85 5.04-2.67 6.09-2.24c0 0 .06-.67-.86-1.1-1.38-.65-5.96 2.24-9.76-1.83z" style="fill:#f19eb3;stroke:#1d1d1b;stroke-width:.5;stroke-linecap:round;stroke-linejoin:round;stroke-miterlimit:10"/><path d="m244.38 111.03a.85.85 0 1 1 -.72-1.53.85.85 0 0 1 .72 1.53z" fill="#f19eb3" stroke="#1d1d1b" stroke-miterlimit="10" stroke-width=".5"/><path d="m251.27 121.51a.64.64 0 1 1 -.54-1.15.64.64 0 0 1 .54 1.15z" fill="#70247e"/><path d="m247.7 115.6a1.3 1.3 0 1 1 -2.59 0 1.3 1.3 0 0 1 2.6 0z" fill="#1ca8e0"/><path d="m244 121.6a1.03 1.03 0 1 1 -2.06-.01 1.03 1.03 0 0 1 2.07 0z" fill="#e446a4"/><path d="m205.67 139.06a.64.64 0 1 1 -1.28 0 .64.64 0 0 1 1.28 0z" style="fill:#1ca8e0;stroke:#000;stroke-width:.5;stroke-linecap:round;stroke-linejoin:round;stroke-miterlimit:10"/><path d="m164.38 214.75s1.54 1.43 1.5-1.2c0 0 2.98 1.83 1.74-1.28 0 0 2.49 1.2 1.42-1.43 0 0 2.4.95 1.39-1.21 0 0 2.68 1.44 1.3-1.45 0 0 2.47 1.3 1.3-1.33m.25-.06s1.8 1.09 1.23-1.48c0 0 3.3 1.19 1.45-1.6 0 0 2.68.66 1.1-1.7 0 0 2.54.46 1.12-1.46 0 0 2.92.87.98-1.68 0 0 2.69.78 1-1.57m.24.04s1.86.97 1.12-1.55c0 0 3.36.96 1.34-1.7 0 0 2.71.5.99-1.76 0 0 2.56.29 1.02-1.53 0 0 2.97.68.87-1.74 0 0 2.73.6.9-1.63m-.36-.31s1.86.99 1.14-1.54c0 0 3.36 1 1.36-1.69 0 0 2.7.52 1-1.75 0 0 2.56.3 1.03-1.52 0 0 2.96.7.89-1.74 0 0 2.72.63.9-1.62m.23.02s1.98.73.93-1.68c0 0 3.46.55 1.12-1.85 0 0 2.76.16.76-1.86 0 0 2.59-.04.83-1.65 0 0 3.03.3.65-1.84 0 0 2.78.26.68-1.73m.52.37c1.28.42 1.4-.86.82-1.74 1.52.18 2.63-.7 1-1.92 1.4.09 1.88-1.04.63-1.91 1.08 0 2.02-.94.72-1.7.9.08 2.15-.43 1.08-1.38" style="fill:none;stroke:#1d1d1b;stroke-width:.5;stroke-linecap:round;stroke-linejoin:round;stroke-miterlimit:10"/><path d="m161.75 212.96s-2.05-.48.14-1.92c0 0-3.18-1.45.09-2.16 0 0-2.38-1.39.39-1.98 0 0-2.14-1.45.22-1.83 0 0-2.7-1.4.46-1.89 0 0-2.47-1.31.38-1.82m-.09-.25s-1.92-.88.52-1.84c0 0-2.82-2.06.52-2.1 0 0-2.05-1.84.78-1.86 0 0-1.8-1.85.59-1.75 0 0-2.37-1.93.83-1.76 0 0-2.15-1.78.74-1.7m-.16-.17s-1.85-1 .65-1.81c0 0-1.5-1.83.65-2.07 0 0-.63-1.71.9-1.8 0 0-.56-1.78 1.31-1.69 0 0-.53-2.13.89-1.95 0 0-.45-1.6 1.77-2.05" style="fill:none;stroke:#1d1d1b;stroke-width:.5;stroke-linecap:round;stroke-linejoin:round;stroke-miterlimit:10"/><path d="m225.87 217.57s-1.8 1.1-1.25-1.46c0 0-3.27 1.2-1.46-1.6 0 0-2.66.7-1.11-1.68 0 0-2.54.48-1.13-1.45 0 0-2.91.9-1-1.67 0 0-2.68.8-1.01-1.56m-.23.03s-1.92.86-1.04-1.61c0 0-3.41.77-1.24-1.77 0 0-2.74.33-.89-1.81 0 0-2.57.14-.93-1.6 0 0-3 .52-.77-1.78 0 0-2.76.45-.8-1.68m15.86-8.75s2.08-.31.57 1.83c0 0 3.5.17.72 2.04 0 0 2.73.41.37 1.98 0 0 2.52.56.47 1.79 0 0 3.03.3.27 1.93 0 0 2.78.3.32 1.82" style="fill:none;stroke:#1d1d1b;stroke-width:.5;stroke-linecap:round;stroke-linejoin:round;stroke-miterlimit:10"/><path d="m224.58 178.42s2.02-.59.81 1.74c0 0 3.48-.3.99 1.93 0 0 2.75.04.62 1.91 0 0 2.58.22.7 1.7 0 0 3.06-.09.53 1.88 0 0 2.8-.06.56 1.77" style="fill:none;stroke:#1d1d1b;stroke-width:.5;stroke-linecap:round;stroke-linejoin:round;stroke-miterlimit:10"/><path d="m218.75 168.85s1.9-.89 1.07 1.6c0 0 3.4-.83 1.27 1.75 0 0 2.73-.38.9 1.8 0 0 2.58-.18.97 1.57 0 0 3-.56.8 1.78 0 0 2.75-.5.82 1.66" style="fill:none;stroke:#1d1d1b;stroke-width:.5;stroke-linecap:round;stroke-linejoin:round;stroke-miterlimit:10"/><path d="m215.91 163.99c.56-.7 2.2.82 1.03 1.76 1.54-.37 2.57.21 1.31 1.31 1.36-.36 2 .67.83 1.67m12.35 31.87s2.11.01.3 1.9c0 0 3.42.7.4 2.13 0 0 2.63.82.06 2.02 0 0 2.4.93.2 1.83 0 0 2.95.77-.03 1.95 0 0 2.7.72.03 1.85m35.33-3.02s-1.42 1.56-1.6-1.06c0 0-2.82 2.07-1.85-1.13 0 0-2.37 1.4-1.53-1.3 0 0-2.3 1.16-1.5-1.09 0 0-2.54 1.67-1.42-1.33 0 0-2.35 1.52-1.4-1.21m-17.57-15.06s-1.56 1.4-1.49-1.22c0 0-3 1.8-1.72-1.3 0 0-2.5 1.17-1.4-1.45 0 0-2.41.93-1.38-1.22 0 0-2.7 1.41-1.29-1.46 0 0-2.48 1.27-1.27-1.35" style="fill:none;stroke:#1d1d1b;stroke-width:.5;stroke-linecap:round;stroke-linejoin:round;stroke-miterlimit:10"/><path d="m232.18 179.4s-1.67 1.28-1.38-1.33c0 0-3.14 1.54-1.62-1.44 0 0-2.58.96-1.28-1.56 0 0-2.47.73-1.27-1.33 0 0-2.8 1.19-1.17-1.56 0 0-2.58 1.07-1.16-1.45m17.41 1.04s1.69-1.26 1.37 1.35c0 0 3.16-1.5 1.6 1.46 0 0 2.6-.93 1.26 1.57 0 0 2.48-.7 1.25 1.35 0 0 2.82-1.16 1.15 1.57 0 0 2.6-1.04 1.14 1.47" style="fill:none;stroke:#1d1d1b;stroke-width:.5;stroke-linecap:round;stroke-linejoin:round;stroke-miterlimit:10"/><path d="m249.34 180.52s1.7-1.26 1.37 1.35c0 0 3.16-1.5 1.6 1.46 0 0 2.6-.93 1.26 1.57 0 0 2.49-.7 1.26 1.35 0 0 2.82-1.15 1.14 1.58 0 0 2.6-1.04 1.15 1.46m1.06 13.36s-1.5 1.49-1.55-1.14c0 0-2.91 1.93-1.79-1.21 0 0-2.44 1.28-1.47-1.38 0 0-2.36 1.04-1.43-1.16 0 0-2.63 1.54-1.36-1.4 0 0-2.42 1.4-1.34-1.28" style="fill:none;stroke:#1d1d1b;stroke-width:.5;stroke-linecap:round;stroke-linejoin:round;stroke-miterlimit:10"/><path d="m249.63 195.22s-1.5 1.49-1.55-1.14c0 0-2.91 1.93-1.79-1.22 0 0-2.44 1.3-1.47-1.38 0 0-2.36 1.05-1.43-1.15 0 0-2.63 1.54-1.36-1.4 0 0-2.42 1.4-1.34-1.28m16.2 1.93s1.38-.86 1.07 1.36c0 0 2.56-.87 1.26 1.5 0 0 2.1-.46.98 1.54 0 0 2-.27.98 1.35 0 0 2.28-.62.89 1.53 0 0 2.1-.55.89 1.43m.19.05s1.03-.6.96 1.67c0 0 1.97-.35 1.1 1.85 0 0 1.65-.02.9 1.83 0 0 1.59.16.9 1.64 0 0 1.77-.15.82 1.8 0 0 1.63-.11.82 1.7m-36.19 4.11c-.2.15-.42.27-.66.36 1.58.29 1.54 1.49-.03 1.95 1.4.26 1.51 1.42.04 1.86m-21.94-28.54s-2.08.38-.63-1.81c0 0-3.49-.07-.77-2.02 0 0-2.74-.33-.43-1.97 0 0-2.53-.49-.52-1.77 0 0-3.04-.22-.32-1.92 0 0-2.79-.23-.37-1.82m.13-.03s-2.09.28-.54-1.85c0 0-3.49-.22-.69-2.05 0 0-2.72-.45-.33-1.99 0 0-2.51-.6-.44-1.78 0 0-3.03-.37-.24-1.94 0 0-2.77-.35-.29-1.83" style="fill:none;stroke:#1d1d1b;stroke-width:.5;stroke-linecap:round;stroke-linejoin:round;stroke-miterlimit:10"/><path d="m204.65 165.92c-2.05.01-1.6-1.28-.55-1.84-1.51-.07-2.05-.77-.21-1.72 0 0-2.68-.53-.31-2.11m9.68 37.41c-1.32.31-1.32-.98-.66-1.8-1.54.03-2.56-.94-.82-2-1.4-.04-1.78-1.2-.47-1.97-1.07-.1-1.92-1.11-.55-1.75-.92 0-2.1-.62-.96-1.48" style="fill:none;stroke:#1d1d1b;stroke-width:.5;stroke-linecap:round;stroke-linejoin:round;stroke-miterlimit:10"/><path d="m209.7 154.64.94.86c6.3-4.5 4.55 5.03 17.33 12.53 12.79 7.5 26.77 1.47 26.77 1.47-7.24 0-11.58-6.26-11.58-6.26-7.78 5-23.87-7.97-27.02-9.73s-6.38.79-6.38.79" fill="#f19eb3"/><path d="m209.75 154.47s2.87-2.47 6.01-.71c3.15 1.76 19.8 14.3 27.58 9.3 0 0 2.58 6.7 11 6.7 0 0-12.54 5.86-25.33-1.64-12.78-7.5-12.56-16.79-18.5-12.62m-10.97.65s-9.44 5.45-7.37 5.9c2.06.44 5.3-3.54 5.3-3.54m7.45-.71s1.92 10.85 3.1 11.3c1.18.43-1.99-9.41-1.99-9.41m2.07-1.63 1.62 2.95m-35.56-12.03s1.22-1.27 1.36-.29c.14.99.28 4.5-.7 4.08-.99-.42-1.1-1.74-1.1-1.74m26.7 91.77s2.25-10.69 1.69-14.06m-19.55-38.83s.84 42.2 11.81 42.2c8.44 0 17.75-39.47 17.75-39.47m34.58 1.91s10.13 27.01 4.22 27.01c-11.4 0-16.5-13.64-16.5-13.64" style="fill:none;stroke:#1d1d1b;stroke-width:.5;stroke-linecap:round;stroke-linejoin:round;stroke-miterlimit:10"/><path d="m179.18 201.3s4.72 33.07 22.52-31.87c0 0 .13 36.8 13.91 37.36m18.57-3.09s7.77-3.13-6.46-25.38c0 0 14.06 24.53 25.31 22" style="fill:none;stroke:#fff;stroke-width:.5;stroke-linecap:round;stroke-linejoin:round;stroke-miterlimit:10"/><path d="m242.56 138.14s3.4 1.92 3.84 4m-3.78-5.14s2.54 1.22 2.96 2.7m-70.35 35.6c-10.55 0-.59-22.89-.59-22.89s-2.75 17.22 4.44 18.65" style="fill:none;stroke:#1d1d1b;stroke-width:.5;stroke-linecap:round;stroke-linejoin:round;stroke-miterlimit:10"/><path d="m200.9 168.09 1.54 2.44m-1.93-.77s1.03-1.16 1.8-1.03m25.62 8.99-.6.96m-.53-.71s1.29.26 1.73.53" style="fill:none;stroke:#fff;stroke-width:.5;stroke-linecap:round;stroke-linejoin:round;stroke-miterlimit:10"/><path d="m167.09 205.03a.38.38 0 1 1 -.75 0 .38.38 0 0 1 .75 0zm56.73 4.11a.38.38 0 1 1 -.75 0 .38.38 0 0 1 .75 0zm34.09-14.73a.38.38 0 1 1 -.75 0 .38.38 0 0 1 .75 0zm-87.27 6.42a.38.38 0 1 1 -.75 0 .38.38 0 0 1 .75 0z" style="fill:none;stroke:#1d1d1b;stroke-width:.5;stroke-linecap:round;stroke-linejoin:round;stroke-miterlimit:10"/><circle cx="227" cy="212.26" r=".38" style="fill:none;stroke:#1d1d1b;stroke-width:.5;stroke-linecap:round;stroke-linejoin:round;stroke-miterlimit:10"/><circle cx="209.78" cy="145.62" r=".38" style="fill:none;stroke:#1d1d1b;stroke-width:.5;stroke-linecap:round;stroke-linejoin:round;stroke-miterlimit:10"/><path d="m212.14 146.71a.38.38 0 1 1 -.75 0 .38.38 0 0 1 .75 0zm-41.07 57.89a.16.16 0 0 1 -.32 0 .16.16 0 0 1 .32 0zm58.82 4.23c0 .1-.07.16-.16.16-.1 0-.16-.07-.16-.16s.07-.16.16-.16.16.07.16.16zm-2.02-6.99a.16.16 0 1 1 -.32 0c0-.1.07-.17.16-.17s.16.08.16.17zm-20.4-56.53a.16.16 0 1 1 -.32 0 .16.16 0 0 1 .32 0zm4.73-.92c0 .09-.06.16-.15.16a.16.16 0 1 1 0-.32c.08 0 .16.07.16.16zm2.16-.47a.16.16 0 1 1 -.33 0 .16.16 0 0 1 .33 0z" style="fill:none;stroke:#1d1d1b;stroke-width:.5;stroke-linecap:round;stroke-linejoin:round;stroke-miterlimit:10"/><circle cx="264.01" cy="203.54" r=".16" style="fill:none;stroke:#1d1d1b;stroke-width:.5;stroke-linecap:round;stroke-linejoin:round;stroke-miterlimit:10"/><path d="m257.86 198.91c0 .1-.07.16-.16.16a.16.16 0 1 1 0-.32c.09 0 .16.08.16.16zm-47.82-51.49c0 .09-.08.16-.17.16a.16.16 0 1 1 0-.32c.1 0 .17.07.17.16zm-41.23 48.08c0 .12-.1.22-.21.22a.21.21 0 0 1 -.22-.21c0-.12.1-.22.22-.22s.21.1.21.22zm33.84-47.87s1.57 2.49 4.46.91" style="fill:none;stroke:#1d1d1b;stroke-width:.5;stroke-linecap:round;stroke-linejoin:round;stroke-miterlimit:10"/><path d="m206.6 153.73s4.93-3.55 3.75.34c-1.19 3.89-5.23 1.25-3.11.08 2.11-1.16 7.43.7 4.48 1.83-2.94 1.13-8.38-2.94-3.79-4.05 6.91-1.67 6.26 9.74 1.63 6.46-4.64-3.29-2.96-4.66-2.96-4.66zm.43-27.78a.61.61 0 1 1 -1.22.05.61.61 0 0 1 1.22-.05z" fill="#e446a4" stroke="#1d1d1b" stroke-miterlimit="10" stroke-width=".5"/><path d="m240.61 114.86c-3.25-4.93-13.97-2.09-18.03.87a34.27 34.27 0 0 1 -7.58 3.87c-4.62-.47-4.8-3.49-4.8-3.49-2.67-4-5.58-3.04-8.53-1.9-2.94 1.13-2.84 3.8-2.84 3.8a16.38 16.38 0 0 0 15.12 9.36c4.14 1.7 13.56-6.06 16.64-8.4 3.17-2.41 10.02-4.1 10.02-4.1z" fill="#ffd905"/><path d="m206.39 126.61.08 2.06m.34.29c0 .19-.14.35-.33.36a.35.35 0 1 1 .33-.36z" fill="#e446a4" stroke="#1d1d1b" stroke-miterlimit="10" stroke-width=".5"/><path d="m210.5 117.78c-2.65-8.6-12.4-2.79-11.37.15 0 0 4.48 9.9 14.8 7.08" style="fill:none;stroke:#1d1d1b;stroke-width:.5;stroke-linecap:round;stroke-linejoin:round;stroke-miterlimit:10"/><path d="m199.52 118.12c-.2 1.83.17 3.3.42 5.12.17 1.18-.07 2.54-1.2 3.17 3.33 2.13 2.94 3.53 5.23 5.15 1.06.75 4.8-1.44 6.55-4.37m-8.78 2.3s.62 0 .6-.7" style="fill:none;stroke:#1d1d1b;stroke-width:.5;stroke-linecap:round;stroke-linejoin:round;stroke-miterlimit:10"/><path d="m200.7 123.6s-.89 1.33-1.66-.28c-.76-1.6.5.68 1.65.28z" fill="#1d1d1b"/><path d="m213.77 110.52a.64.64 0 1 1 -1.15.55.64.64 0 0 1 1.15-.55z" fill="#1ca8e0"/><path d="m226.92 106.16a.64.64 0 1 1 -1.15.55.64.64 0 0 1 1.15-.55z" fill="#e446a4"/><path d="m218.76 106.03.38.76.85.13-.61.59.14.85-.76-.4-.75.4.14-.84-.62-.6.85-.12zm12.08 9.02.31-.63.7-.06.4.58-.31.64-.7.05z" style="fill:#e446a4;stroke:#1d1d1b;stroke-width:.5;stroke-linecap:round;stroke-linejoin:round;stroke-miterlimit:10"/><path d="m209.31 127.06s9.35-.28 18.43-7c9.08-6.71 12.75-4.62 12.75-4.62s-4.72-7.07-18.36.64c-13.64 7.72-9.35.39-13.02-1.24" style="fill:none;stroke:#1d1d1b;stroke-width:.5;stroke-linecap:round;stroke-linejoin:round;stroke-miterlimit:10"/><path d="m210 121.06s6.97.63 13.75-4.81c6.77-5.44 11.16-4.92 11.16-4.92m-22.99 13.43s5.41-.06 11.07-5.43c3.26-3.1 4.8-3.66 4.8-3.66m-16.51 2.7c.63.56 2.22.65 4.18-.28 2.4-1.14 4.7-3.92 6.87-5.42 2.28-1.6 4.77-3 7.46-3.78m8.07 6.61c1.91-1.04 3.6 2.62 1.4 3.14-.38.08-1.9.16-2.13-.83-.15-.63.77-1.28 1.27-.8" style="fill:none;stroke:#1d1d1b;stroke-width:.5;stroke-linecap:round;stroke-linejoin:round;stroke-miterlimit:10"/><path d="m187.7 146.76s.48-.43.84-.18m-5.89.73.48.72" style="fill:#f19eb3;stroke:#1d1d1b;stroke-width:.5;stroke-linecap:round;stroke-linejoin:round;stroke-miterlimit:10"/><path d="m207.09 126.03s5.62 3.59 11.08 1.72c5.46-1.88 6.86-14.05 15.6-10" style="fill:none;stroke:#1d1d1b;stroke-width:.5;stroke-linecap:round;stroke-linejoin:round;stroke-miterlimit:10"/><path d="m182.06 140.54s-1.68 5.76-.73 6.72l1.94.9s-1.06-4.04.28-4.8" fill="#cacaca"/><path d="m191.8 125.22s.27 3.97 5.02 3.53c0 0 .28 1.96-2.81 5.23 0 0 .37.84 1.93.47s4.57-2.04 2.95 1.4c0 0-4.9.91-7.45 2.44-3.1 1.87-5.64 5.49-3.62 6.57 3.15 1.7-.45 3.2-1.13 3.26 0 0-2.32-5.7-4.7-8.57-.85-1.04-9.14-6.71-12.13.87 0 0-3.53-10.39 4.17-10.89 4.39-.29 7.03 4.89 7.03 4.89s5.85 1.62 8.57-1.2c1.19-1.22 2.18-8 2.18-8z" fill="#6f6f6e"/><g stroke-linecap="round" stroke-linejoin="round" stroke-miterlimit="10" stroke-width=".5"><g stroke="#1d1d1b"><path d="m182.48 140.96s-1.69 5.76-.74 6.72l1.94.9s-1.05-4.05.29-4.8" fill="#cacaca"/><path d="m192.22 125.64s.26 3.97 5.01 3.53c0 0-1.42 2.05-4.51 5.32 0 0 2.07.74 3.64.37 1.56-.37 3.9-1.83 2.32 1.02 0 0-4.97.5-7.51 2.03-3.1 1.86-5.63 6.41-3.62 7.5 3.16 1.7-.36 2.6-1.05 2.66 0 0-2.24-4.89-4.61-7.76-.86-1.03-8.28-8.28-11.27-.7 0 0-3.88-9.16 3.83-9.67 4.39-.28 6.54 5.74 6.54 5.74s6.04.4 8.76-2.41c1.2-1.23 2.47-7.63 2.47-7.63z" fill="none"/><path d="m192.22 129.52.29-.26m3.7.39.53-.26" fill="#ec7409"/></g><path d="m188.94 134.03 4.1.68-.03-.77-3.15-.63z" fill="#1ca8e0" stroke="#000"/></g><path d="m201.18 116.21-2.87-4.74 2.86.72 1.05-2.76 1.9 2.58 2.12-1.68-1.24 5.11" style="fill:#f9ba05;stroke:#1e1e1e;stroke-width:.5;stroke-linecap:round;stroke-linejoin:round;stroke-miterlimit:10"/><path d="m200.67 115.54s-.94 1.2 2.04.68c2.97-.51 3.23-1.58 3.23-1.58" style="fill:none;stroke:#1e1e1e;stroke-width:.5;stroke-linecap:round;stroke-linejoin:round;stroke-miterlimit:10"/><path d="m198.76 111.23a.63.63 0 1 1 -1.26 0 .63.63 0 0 1 1.26 0zm4.01-2.11a.57.57 0 1 1 -1.15 0 .57.57 0 0 1 1.15 0z" style="fill:#1ca8e0;stroke:#000;stroke-width:.5;stroke-linecap:round;stroke-linejoin:round;stroke-miterlimit:10"/><circle cx="206.44" cy="110.22" r=".43" style="fill:#1ca8e0;stroke:#000;stroke-width:.5;stroke-linecap:round;stroke-linejoin:round;stroke-miterlimit:10"/><path d="m200.95 115.47s2.1.06 4.29-1.08" style="fill:none;stroke:#1d1d1b;stroke-width:.5;stroke-linecap:round;stroke-linejoin:round;stroke-miterlimit:10"/><path d="m202.84 114.84s-1.5-1.71-.54-2.16c.95-.44.7 2.16.7 2.16" style="fill:#1ca8e0;stroke:#000;stroke-width:.5;stroke-linecap:round;stroke-linejoin:round;stroke-miterlimit:10"/><path d="m204.59 113.03-.54.83m-.32-.86.99.8m-3.66-.51-.44.63m-.32-.79.92.82" style="fill:none;stroke:#1d1d1b;stroke-width:.5;stroke-linecap:round;stroke-linejoin:round;stroke-miterlimit:10"/><path d="m146.33 192s1.08 8.89-4.74 11.45c0 0-1.84-5.19 4.74-11.44z" fill="#96c01d"/><path d="m146.31 192.66s1.4 8.47-4.41 11.03c0 0-2.17-4.78 4.41-11.03z" fill="none" stroke="#1d1d1b" stroke-miterlimit="10" stroke-width=".5"/><path d="m152.28 202.91s-8.76 4.15-12.26-1.16c0 0 5-4.28 12.26 1.16z" fill="#96c01d"/><path d="m151.82 203.43s-8.12 2.8-11.6-2.52c0 0 4.34-2.93 11.6 2.52z" fill="none" stroke="#1d1d1b" stroke-miterlimit="10" stroke-width=".5"/><path d="m135.74 204.37s-1.72-7.4 3.28-10c0 0 2.18 4.1-3.28 10z" fill="#96c01d" stroke="#1d1d1b" stroke-miterlimit="10" stroke-width=".5"/><path d="m143.93 198.85s-6.1.31-7.44-4.01c0 0 3.55-1.15 7.44 4z" fill="#96c01d" stroke="#1d1d1b" stroke-miterlimit="10" stroke-width=".5"/><path d="m134.5 194.5s-3.39 4.81.36 3.63c3.75-1.19 1.15-5.07.05-3-1.1 2.05 2.54 5.79 3.6 2.93s-4.71-6.69-5.74-2.25c-1.55 6.7 10.57 4.33 7.35-.12s-5.63-1.18-5.63-1.18z" fill="#f19eb3" stroke="#1d1d1b" stroke-miterlimit="10" stroke-width=".5"/><path d="m134.15 192.81s-3.27-4.6-.57-7.78c0 0 2.66 2.2.57 7.78z" fill="#96c01d" stroke="#1d1d1b" stroke-miterlimit="10" stroke-width=".5"/><path d="m132.94 194.54s1-5.56 5.17-5.85c0 0 .29 3.43-5.17 5.85z" fill="#96c01d" stroke="#1d1d1b" stroke-miterlimit="10" stroke-width=".5"/><path d="m135.84 193.93s-7.42 2.4-3.76-.65 6.31-.5 3.35.23c-2.96.74-7.44-1.3-3.62-1.92 3.82-.64 7.07 3.2 1.51 3.67-8.36.69-.62-8.55 2.27-5.42 2.88 3.13.25 4.09.25 4.09zm4.53 9.47s1.8-10.2 3.1-4.01c1.3 6.2-3.34 7.73-2.36 3.79.97-3.94 6.15-7.93 4.52-3.06-1.64 4.88-8.17 6.3-5.25-.5 4.4-10.24 10.41 4.59 4.94 6.03s-4.95-2.24-4.95-2.24z" fill="#e446a4" stroke="#1d1d1b" stroke-miterlimit="10" stroke-width=".5"/><path d="m127.5 157.68s1.22 14.26 3.68 12.11c2.45-2.15 2.6-12.57 2.6-12.57s1.56 14.76 4.9 11.8c2.61-2.3 1.39-11.8 1.39-11.8" style="fill:none;stroke:#1d1d1b;stroke-width:.5;stroke-linecap:round;stroke-linejoin:round;stroke-miterlimit:10"/><path d="m24.56 153.1s-2.6 2.05-.39 2.01c2.21-.03 1.44-2.54.52-1.6-.93.92.43 3.52 1.46 2.16 1.03-1.37-1.45-4.37-2.73-2.14-1.91 3.35 5 4.04 3.98 1.12-1.01-2.92-2.84-1.55-2.84-1.55z" fill="#e446a4"/><path d="m16.75 161.13s-4.28-4.27-3.74-.26 4.94 2.06 3.04.58-6.33 1.56-3.62 3.14c2.72 1.58 8.29-3.9 3.95-5.72-6.52-2.75-6.17 8.62-1 7.03 5.4-1.67 1.37-4.77 1.37-4.77z" fill="#f19eb3"/><path d="m13.98 169.96c.07 2.19.2 4.37.4 6.54.26 2.79.34 6.3 1.8 8.78 1.45 2.49 2.94-4.03 3.2-4.91.78-2.67 1.62-5.32 2.41-7.98l.56-1.85s3.5 18.95 4.9 15.34c1.38-3.62.92-16.61.92-16.61" style="fill:none;stroke:#1d1d1b;stroke-width:.5;stroke-linecap:round;stroke-linejoin:round;stroke-miterlimit:10"/><path d="m194.82 129.74-.36 3.31m.77-3.31.71 2.8m-.92-3.72.26-1.12m.3 1.27.51-1.17" style="fill:#1ca8e0;stroke:#000;stroke-width:.5;stroke-linecap:round;stroke-linejoin:round;stroke-miterlimit:10"/><path d="m34.67 240.74s-8.5 7.08-8.05 9.53l2.04 3.38s2.55-7.29 5.39-7.06" fill="#ddd"/><path d="m63.66 225.36s-2 7.19 4.86 11.83c0 0-2.92.25-11 2.08 0 0 1.17 3.83 3.95 4.88 2.77 1.04 6.75 2.29 2.78 5.01 0 0-8.79-4.04-14.26-4.32-6.67-.34-15.26 2.92-13.3 6.66 3.08 5.86-3.23 3.61-4.34 3 0 0 2.04-10.21 1.37-17.04-.25-2.48-5.09-7.51-17.48 1.02 0 0 1.93-19.85 14.73-13.6 4.28 2.08 2.81 7.36 5.42 8.94 2.56 1.55 6.48 3.84 10.86 3.28 1.75-.22 3.58-1.55 5.32-1.92.14-.03.3-.07.46-.13 3.4-1.28 10.63-9.7 10.63-9.7z" fill="#ddd"/><path d="m60.2 232 .72-.11m4.13 4.23 2.21.32" fill="#cacaca"/><g stroke="#1d1d1b" stroke-linecap="round" stroke-linejoin="round" stroke-miterlimit="10" stroke-width=".5"><path d="m33.23 242.71s-6.7 6.14-6.23 8.59l2.03 3.38s2.2-10.23 5.06-7.3" fill="none"/><path d="m63.85 226.51s-1.44 2.48-.63 5.37c.48 1.74 1.77 3.62 4.67 5.2 0 0-2.23.21-10.33 2.04 0 0 .34 4.73 3.12 5.77 2.76 1.05 7.85 1.22 2.51 3.95 0 0-8.12-4.35-13.6-4.63-6.66-.34-15.22 4.02-13.25 7.75 3.08 5.87-3.24 3.62-4.34 3 0 0 1.59-9.8.91-16.62-.24-2.48-4.64-7.93-17.03.6.36-.24.52-1.96.63-2.33.54-1.9 1.26-3.75 2.15-5.52 1.7-3.33 4.73-7.49 9.05-7.18 7.21.5 7.4 9.11 7.4 9.11s5.17 3.89 11.85 3.25c1.75-.16 3.51-.25 5.25-.62.14-.03.3-.08.46-.14 3.4-1.28 11.18-9 11.18-9z" fill="none"/><path d="m59.85 232.46.71-.11m4.13 4.23 2.21.32" fill="#ec7409"/></g><path d="m53.58 235.37s2.17 3.5 4.14 4.08" style="fill:none;stroke:#1d1d1b;stroke-width:.5;stroke-linecap:round;stroke-linejoin:round;stroke-miterlimit:10"/><path d="m49.6 244.21s1.18 8.96 3.4 9.06 3.22-1.2 3.22-1.2-1.96-.13-2.64-1.34c-.68-1.22-.5-5.8-.5-5.8" style="fill:#ddd;stroke:#1d1d1b;stroke-width:.5;stroke-linecap:round;stroke-linejoin:round;stroke-miterlimit:10"/><path d="m56.62 235.85s-6.14 6.7-4.18 1.5c1.96-5.19 6.1-4.13 3.53-1.68-2.58 2.45-8.29 2.96-4.78.13 3.5-2.84 10.1 2.34 3.64 2.84-9.6.75-4.7-8.1-.08-6.83 4.78 1.31 1.87 4.04 1.87 4.04z" fill="#e446a4" stroke="#1d1d1b" stroke-miterlimit="10" stroke-width=".5"/><path d="m74.5 247.47s4.09-7 8.3-2.1c3.83 4.47-5.48 10.65-7.7 2.7" style="fill:#1ca8e0;stroke:#000;stroke-width:.5;stroke-linecap:round;stroke-linejoin:round;stroke-miterlimit:10"/><path d="m78.36 251.6s-1.93-5.64 2.75-7.44m-5.45 1.96s5.46-.84 7.67 2.92m-.82-3.74s-6.78-.11-6.47 4.29m9.86.46s-1.24 1.5-2.52 1.88m3.65-2.27s-.79 1.78-1.9 2.51m-20.75-5.3s.65-.41.94-.12m-10.6 5.45s.47-.02.74.31m-20.83 2.19s.95.54 1 .93m.32-1.47s.68-.13.85.55m-8.1-2.66s0 1.07-.46 1.2" style="fill:none;stroke:#1d1d1b;stroke-width:.5;stroke-linecap:round;stroke-linejoin:round;stroke-miterlimit:10"/><path d="m63.44 235.62s-1.12 2.73-.81 3.46m1.52-3.34s-.25 2.4.04 3m.44-4.18s.18-1 .5-.98m-.03 1.48s.37-.96.68-.87" style="fill:#ec7409;stroke:#1d1d1b;stroke-width:.5;stroke-linecap:round;stroke-linejoin:round;stroke-miterlimit:10"/><path d="m124 148.27s.06-1.8 1.89-1.58c1.82.22 2.75.52 2.57 1.96-.17 1.44-.4 2.83-2.44 2.4-2.02-.44-2.68-2.37-2.02-2.78zm8.14-1.88s.07-1.8 1.9-1.58c1.81.22 2.74.52 2.57 1.96s-.41 2.83-2.44 2.4c-2.03-.44-2.68-2.38-2.03-2.78zm-.72-6.8s.05-1.33 1.47-1.17 2.15.39 2.01 1.45c-.13 1.07-.32 2.1-1.9 1.77-1.58-.32-2.1-1.75-1.58-2.05zm-2.05 14.18s.07-2.58 2.08-2.27c2.01.32 3.04.75 2.85 2.82-.2 2.07-.46 4.06-2.7 3.44-2.23-.63-2.95-3.4-2.23-3.99zm-117.51 7.5s.1-3.05 2.47-2.68 3.58.88 3.36 3.33c-.23 2.45-.54 4.8-3.18 4.06-2.65-.73-3.5-4.01-2.65-4.7zm-.96-15.11s.08-2.55 2.42-2.24c2.33.3 3.52.73 3.3 2.78s-.53 4.02-3.13 3.4-3.43-3.36-2.6-3.94zm12.17 7.78s.06-1.76 1.67-1.54c1.61.2 2.44.5 2.28 1.92-.15 1.41-.36 2.77-2.16 2.35-1.79-.43-2.37-2.33-1.79-2.73zm113.59-17.6c.3-.5.8-.9 1.66-.76 2.01.31 3.04.74 2.85 2.81-.12 1.3-.27 2.55-.9 3.17" style="fill:none;stroke:#1d1d1b;stroke-width:.5;stroke-linecap:round;stroke-linejoin:round;stroke-miterlimit:10"/><path d="m430.53 211.63a.96.96 0 0 1 -1.9-.27l1.87-13.04a.96.96 0 1 1 1.9.27zm4.13 6.56a.96.96 0 1 1 -1.87-.42l2.92-12.85a.96.96 0 0 1 1.87.42z"/><path d="m430.12 236.5s-1.85-34.2 2.05-39.95m.59 38.45s.77-27.02 5-31.36" style="fill:none;stroke:#000;stroke-width:.5;stroke-linecap:round;stroke-linejoin:round;stroke-miterlimit:10"/><path d="m421.52 215.35a.96.96 0 1 1 -1.9-.27l1.88-13.04a.96.96 0 1 1 1.9.27zm2.77 5.43c0 .53.4.94.86.92.48-.02.85-.46.85-.99l-.16-13.15c-.01-.53-.4-.94-.87-.92s-.85.46-.84 1z"/><path d="m420.71 236.66s-1.44-30.64 2.45-36.4m-.33 37.38s4.33-26.67 1.44-31.71" style="fill:none;stroke:#000;stroke-width:.5;stroke-linecap:round;stroke-linejoin:round;stroke-miterlimit:10"/><path d="m430.58 236.08c.45.12.75.4.72.68-.03.35-.54.59-1.13.53s-1.04-.4-1-.74c.02-.24.26-.42.6-.5m3.38-1.44c.45.12.75.4.72.69-.03.35-.54.58-1.13.52s-1.04-.39-1-.73c.02-.24.26-.42.6-.5m2.26.7c.18.16.27.35.25.54-.05.46-.73.78-1.53.7a2.32 2.32 0 0 1 -.51-.1m-8.06 1.09c.2.1.34.26.38.45.09.46-.48.96-1.27 1.1-.18.04-.35.05-.52.04m-.54-2.38c.7.22 1.15.57 1.12.91-.05.5-1.12.8-2.4.68-1.26-.13-2.25-.63-2.2-1.13.03-.37.62-.63 1.44-.7" style="fill:none;stroke:#1d1d1b;stroke-width:.5;stroke-linecap:round;stroke-linejoin:round;stroke-miterlimit:10"/><path d="m436.85 237.53s-7.15-16.4-3.76-27.58m7.22 26.4s1.33-18.67 4.97-24.7m-1.98 25.31s1.8-13.81-2.07-20.89" style="fill:none;stroke:#000;stroke-width:.5;stroke-linecap:round;stroke-linejoin:round;stroke-miterlimit:10"/><path d="m353.37 220.96c-.03.79-.6 1.4-1.28 1.37-.68-.04-1.2-.7-1.18-1.5l.74-19.75c.03-.8.6-1.4 1.28-1.37s1.2.7 1.18 1.5zm6.12 9.18c-.09.78-.7 1.34-1.38 1.24-.67-.1-1.15-.81-1.07-1.6l2.1-19.61c.1-.79.7-1.35 1.38-1.25s1.15.82 1.07 1.6z"/><path d="m356 258.14s-6.7-50.78-2.44-59.95m5.63 60.44s-2.44-43.11 2.43-50.68" style="fill:none;stroke:#000;stroke-width:.5;stroke-linecap:round;stroke-linejoin:round;stroke-miterlimit:10"/><path d="m341.75 227.97c.1.78-.35 1.52-1.02 1.64-.67.13-1.3-.4-1.4-1.19l-2.7-19.52c-.1-.78.35-1.51 1.02-1.64s1.3.4 1.4 1.19zm4.79 7.58c.08.78.62 1.34 1.22 1.24s1.03-.81.96-1.6l-1.88-19.61c-.07-.8-.62-1.35-1.22-1.25s-1.03.81-.95 1.6z"/><path d="m345 263.55s-4.5-46.78-8.09-58.24m9.89 55.63s2.18-40.48-2.16-47.58" style="fill:none;stroke:#000;stroke-width:.5;stroke-linecap:round;stroke-linejoin:round;stroke-miterlimit:10"/><path d="m347.62 260.09c.58.1 1.01.48 1.01.91 0 .53-.62.95-1.38.95s-1.38-.42-1.38-.95c0-.35.28-.66.7-.83m-1.32 2.52c.58.11 1 .48 1 .92 0 .52-.61.95-1.37.95-.77 0-1.39-.43-1.39-.95 0-.36.29-.67.71-.83m14.43-5.33c1.29.14 2.23.6 2.23 1.14 0 .65-1.36 1.17-3.04 1.17s-3.04-.52-3.04-1.17c0-.44.63-.83 1.55-1.03" style="fill:none;stroke:#1d1d1b;stroke-width:.5;stroke-linecap:round;stroke-linejoin:round;stroke-miterlimit:10"/><path d="m361.44 258.35c.23.21.37.48.37.77 0 .7-.84 1.28-1.86 1.28-.24 0-.47-.03-.67-.09m-10.03.15c.28.13.47.34.54.62.17.68-.49 1.5-1.48 1.84-.22.08-.45.12-.66.14" style="fill:none;stroke:#1d1d1b;stroke-width:.5;stroke-linecap:round;stroke-linejoin:round;stroke-miterlimit:10"/><path d="m364.75 258.7s-1.56-35.9 3.9-41.81m.38 39.54s-1.96-24.77 1.94-34.31m1.96 34.76s.55-20.88-5.3-30.88" style="fill:none;stroke:#000;stroke-width:.5;stroke-linecap:round;stroke-linejoin:round;stroke-miterlimit:10"/><path d="m375.45 256.82s-4.73-22.25-.28-23.92" style="fill:none;stroke:#1d1d1b;stroke-width:.5;stroke-linecap:round;stroke-linejoin:round;stroke-miterlimit:10"/><path d="m464.95 257.1s-8.5-7.97-8.36-12.02c0 0 7.97-1.18 9.54-.79 0 0 2.09-5.87 5.1-6.27 0 0 .78-3.13 1.95-3.13 0 0-2.35-5.62 3.27-4.97 5.62.66 6.92 1.05 6.92 1.05s-3.07-1.9 1.44-1.3c16.13 2.15 25.74 24.95 26.4 21.29.65-3.66-14.12-37.37.9-39.33 0 0 7.32-.13 10.2 7.71 0 0-2.75.79-6.54 2.48-3.78 1.7-3.92 2.1.14 14.5 4.05 12.42 9.14 23.13 1.82 23.26-7.31.13-47.03 1.3-52.78-2.48z" fill="#fff"/><path d="m516.74 216.32s-1.97 3.77 1.02 4.48c3 .7 5.27 1.2 5.27 1.2l-2.86-5.24z" fill="#ec7409"/><path d="m466.5 256.42c-3.54-.23-8.72-10.84-8.72-10.84s2.83-.7 5.9 0c0 0 1.88-.7 3.3-.7s-4.02-6.84 10.12-6.6m-7.05.72s-.25-3.79 4-3.31m-1.5-.33s-1.97-5.72 2.28-5m.15-.1s7.54 1.42 8.96 1.65m-18.14 26.64s50.19 3.3 53.02 1.4" style="fill:none;stroke:#1d1d1b;stroke-width:.5;stroke-linecap:round;stroke-linejoin:round;stroke-miterlimit:10"/><path d="m481.11 230.74s-.94-3.54 10.37 2.82c11.31 6.37 18.15 22.63 20.03 17.91 1.89-4.71-14.61-39.12 1.65-39.12 0 0 4.87-.77 7.54 5.66 1.7 4.06 4.72 4.95 4.72 4.95s-7.3-3.07-9.9-2.12c-2.6.94-5.19 1.65-2.36 8.95s10.6 26.63 5.19 28.75" style="fill:none;stroke:#1d1d1b;stroke-width:.5;stroke-linecap:round;stroke-linejoin:round;stroke-miterlimit:10"/><path d="m515.36 215.36s.83.12 1.07.65-.06 3.57.65 4.17m-.06-3.98s1.49.88 2.56.77" style="fill:none;stroke:#1d1d1b;stroke-width:.5;stroke-linecap:round;stroke-linejoin:round;stroke-miterlimit:10"/><path d="m515.43 215.5a.62.62 0 1 1 -1.23 0 .62.62 0 0 1 1.23 0z" fill="#1d1d1b"/><path d="m478.62 237.59s14.97 6.15 22.6 12.8m-40.26 4.75s-7.84 2.16-2.35 3.53m-2.35-4.9s-15.48 2.35-6.07 5.49m-2.16-6.08s-18.62.78-10 4.5m.01-6.4s-22.26.5-16.75 4m66.08-.7s13.8 1 16.48-1.68" style="fill:none;stroke:#1d1d1b;stroke-width:.5;stroke-linecap:round;stroke-linejoin:round;stroke-miterlimit:10"/><g stroke-linecap="round" stroke-linejoin="round" stroke-miterlimit="10" stroke-width=".5"><path d="m394.69 246.95s3.18-1.46-1.46-6.23c0 0-1.99 5.04 1.46 6.23z" fill="#95bf1e" stroke="#1d1d1b"/><g stroke="#000003"><path d="m384.29 250.72s2.25-6.84-2.25-8.43c0 0-3.18 6.05 2.25 8.43z" fill="#95bf1e"/><path d="m392.83 257.41s3.18-11.13.67-13.9m-9.74 14.81s1.28-10.02-.44-10.95" fill="none"/><path d="m385.47 257.27c1 .2 1.7.6 1.7 1.05 0 .65-1.4 1.18-3.1 1.18s-3.08-.53-3.08-1.18c0-.38.46-.71 1.2-.93m12.58-.61c1 .2 1.69.59 1.69 1.05 0 .64-1.38 1.17-3.09 1.17-1.7 0-3.09-.53-3.09-1.17 0-.38.47-.72 1.2-.93" fill="none"/><path d="m383.7 254.1s-4.76 2.12-5.69-2c-.93-4.1-.8-3.04-1.59-3.83 0 0 7.02-1.46 7.29 5.82zm2.16-1s-2.25-6.85 2.26-8.44c0 0 3.18 6.05-2.26 8.44z" fill="#95bf1e"/></g></g><path d="m396.88 256.18c1.56-2.42 0-14.44 0-14.44 1.82 1.21 2.98 12.33 2.98 12.33 0-3.33 2.34-10.6 2.34-10.6-.78 1.51-.52 11.5-.52 11.5 0-2.41 2.6-14.83 2.6-14.83-.26 1.21-1.04 15.75-1.04 15.75s1.09-6.14 2.1-6.81c0 0-1.01 5.64 0 6.43" style="fill:#95bf1e;stroke:#000;stroke-width:.5;stroke-linecap:round;stroke-linejoin:round;stroke-miterlimit:10"/><path d="m522.86 257s5.2 3.42-1.95 4.07m-4.07-42.01s5.35 2.66 6.42 2.81" style="fill:none;stroke:#1d1d1b;stroke-width:.5;stroke-linecap:round;stroke-linejoin:round;stroke-miterlimit:10"/><path d="m510.8 212.43-1.61-4.07 2.16.94 1.18-2.04 1.17 2.28 1.88-1.05-1.61 3.6" style="fill:#f9ba05;stroke:#1e1e1e;stroke-width:.5;stroke-linecap:round;stroke-linejoin:round;stroke-miterlimit:10"/><path d="m513.45 206.8a.83.83 0 1 1 -1.67.03.83.83 0 0 1 1.67-.04zm3.4.99a.83.83 0 1 1 -1.67.05.83.83 0 0 1 1.67-.05zm-7.45-.05a.83.83 0 1 1 -1.66.04.83.83 0 0 1 1.66-.04z" style="fill:#f9ba05;stroke:#1e1e1e;stroke-width:.5;stroke-linecap:round;stroke-linejoin:round;stroke-miterlimit:10"/></svg>