<svg viewBox="0 0 567 269" xmlns="http://www.w3.org/2000/svg"><path d="m473.08 226.46 4.38-3.75 41.33-.78 1.49 2.65zm.54 13.57 3.41-4.06 45.06 2.03 1.18 3.13z" fill="#aed092"/><g fill="none"><path d="m207.75 233.65s-10.45 9.4 11.85 16.68c22.3 7.3 51.52-8.06 32.15-20.1-19.38-12.03-44.79-4.67-42.8 5.83" stroke="#67c0ea" stroke-linecap="round" stroke-linejoin="round" stroke-miterlimit="10" stroke-width=".98"/><path d="m207.35 234.63s-10.67 9.6 12.01 16.95 52.48-8.39 32.8-20.59c-19.69-12.2-45.58-4.6-43.6 6.09 0 0 1.78.43 1.54-.7-2.16-10 22.44-17.1 41-5.58 18.56 11.54-9.43 26.24-30.8 19.26-21.35-6.98-11.34-15.98-11.34-15.98" stroke="#000" stroke-linecap="round" stroke-linejoin="round" stroke-miterlimit="10" stroke-width=".49"/><path d="m279.87 228.65s8.05-9.33-14.4-14.37-47.05 11.09-26.44 20.67c20.6 9.59 43.15 1.03 39.26-8.41" stroke="#aed092" stroke-miterlimit="10" stroke-width=".98"/><path d="m280.06 227.74s8.21-9.55-14.6-14.61c-22.83-5.07-47.9 11.45-26.97 21.16s43.9.9 39.96-8.7c0 0-1.77-.28-1.32.74 3.97 8.97-17.86 17.24-37.6 8.05-19.74-9.18 3.82-24.62 25.32-19.8 21.51 4.83 13.8 13.77 13.8 13.77m195.44 9.92 8.99-2.04 36.14.79 3.62 2.78m-49.62-14.77 11.81-2.37 20.15-.98" stroke="#000" stroke-linecap="round" stroke-linejoin="round" stroke-miterlimit="10" stroke-width=".49"/></g><path d="m507.55 106.75 10.7 2.78-7.09 11.69z" fill="#aed092"/><path d="m507.53 107.15 2.57 13.25 7.13-11.11z" fill="none" stroke="#1d1d1b" stroke-linejoin="round" stroke-miterlimit="10" stroke-width=".49"/><path d="m478.1 96.33 10.45 4.21-6.83 10.26z" fill="#67c0ea"/><path d="m478.1 96.33 2.33 13.65 7.25-9.74zm7.69 3.37-6 5.83" fill="none" stroke="#1d1d1b" stroke-linejoin="round" stroke-miterlimit="10" stroke-width=".49"/><path d="m30.57 132.1-.21-.4a6.9 6.9 0 0 1 -1.5.43c2.06 4.76 5 12.65 3.57 15.99-2.12 4.92-3.89 6.31.57 14.7 0 0-1.22-2.78-1.46-6.14s7-8.4-.97-24.58" fill="#ee9fb4"/><path d="m30.57 132.1-.21-.4a6.9 6.9 0 0 1 -1.5.43c2.06 4.76 5 12.65 3.57 15.99-2.12 4.92-3.89 6.31.57 14.7 0 0-1.22-2.78-1.46-6.14s7-8.4-.97-24.58z" fill="none" stroke="#1d1d1b" stroke-miterlimit="10" stroke-width=".49"/><path d="m34.36 141.51-2.2-.2m.28 11.81-1.62-.45m2.77-2.83-1.61-.46m2.35-3.83-1.45-.42m.05-7.21-1.65.07m.15-4.34-1.54.35" style="fill:none;stroke:#1d1d1b;stroke-width:.49;stroke-linecap:round;stroke-linejoin:round;stroke-miterlimit:10"/><path d="m15.34 128.4-.06 11.76 3.61-.31-1.22-12.52z" fill="#a076b1"/><path d="m15.34 128.4-.06 11.76 3.61-.31-1.22-12.52z" fill="none" stroke="#1d1d1b" stroke-miterlimit="10" stroke-width=".49"/><path d="m15.38 103.79c-5.32-4.02-8.29 4.68-1.72 4.33" fill="#ee9fb4"/><path d="m15.38 103.79c-5.32-4.02-8.29 4.68-1.72 4.33" fill="none" stroke="#1d1d1b" stroke-miterlimit="10" stroke-width=".49"/><path d="m37.27 46.68.92 3.76-4.53-.08.62-2.99" fill="#a076b1"/><path d="m37.27 46.68.92 3.76-4.53-.08.62-2.99" fill="none" stroke="#1d1d1b" stroke-miterlimit="10" stroke-width=".49"/><path d="m21.56 103.24s1.51-5.68 5.1-2.84c3.46 2.72-1.32 5.11-1.32 5.11" fill="#ee9fb4"/><path d="m21.56 103.24s1.51-5.68 5.1-2.84c3.46 2.72-1.32 5.11-1.32 5.11" fill="none" stroke="#1d1d1b" stroke-miterlimit="10" stroke-width=".49"/><path d="m30.05 110.72s-4.58-5.8-7.28-6.66c-10.42-3.34-8.5 9.15-8.5 9.15l-.14-.26c.58 3 1 6.28 1.06 9.4 2.5 10.7 3.92 22.52 3.92 22.52 3.13.54 6.7-2.6 6.4-11.66-.25-7.38 5.67 1.06 7.25 4.55 1.88 4.2 11.24.46 8.1.25-3.13-.22-5-19.53-4.72-27.86.9-26.1-6.09.57-6.09.57" fill="#6f6f6e"/><path d="m17.14 103.17c5.75-.82 10.12 3.56 12.86 7.94.67-2.15 2.77-11.97 5.18-12.62.88-.23.93 8.69.83 9.98-.18 2.3.25 4.48.56 6.75 1.1 7.93 1.1 22.44 4.93 23.26 0 0-6.02 2.74-7.94.28-1.92-2.47-4.38-7.94-6.3-6.85-1.91 1.1-2.34 4.12-2.73 6.85-.38 2.65-4.25 7.2-4.8 6.11 0 0-1.73-6.46-2.05-10.22-.22-2.7-.53-6.23-1.23-8.71-1.14-4.03-5.06-21.95.69-22.77z" fill="none" stroke="#1d1d1b" stroke-miterlimit="10" stroke-width=".49"/><path d="m16.59 108.51c.02.55 1.41-.1.74-.27.1.01-.26-.12-.6-.14" style="fill:none;stroke:#1d1d1b;stroke-width:.49;stroke-linecap:round;stroke-linejoin:round;stroke-miterlimit:10"/><path d="m22.18 106.88s.35-.5-.25-.56" fill="none" stroke="#1d1d1b" stroke-miterlimit="10" stroke-width=".49"/><path d="m18.98 112.37s2.94-.68 3.85-1.81c.91-1.14-.45 5.55-3.85 1.81" fill="#ee9fb4"/><path d="m18.98 112.37s2.94-.68 3.85-1.81c.91-1.14-.45 5.55-3.85 1.81zm16.88-10.58-.32-54.82" fill="none" stroke="#1d1d1b" stroke-miterlimit="10" stroke-width=".49"/><path d="m21.86 26.4c-.8-9.55 2.11-19.92 12.45-20.27 7.38-.26 13.67 8.41 14.04 19.36.22 6.42-1.78 15.08-7.57 18.7-6.57 4.11-12.57-.3-15.7-6.03-1.64-3-2.83-7.3-3.21-11.76" fill="#a076b1"/><path d="m42.83 44.05s13.15-25.3-.98-34.79c-14.12-9.49-24.28 10.18-14.83 31.72 0 0 7.87 12.9 15.55 1.6" fill="none" stroke="#1d1d1b" stroke-linecap="round" stroke-miterlimit="10" stroke-width=".49"/><path d="m15.09 114.02s-2.28 11.58-.32 14.85c1.96 3.28 3.35-7.86 3.35-7.86" fill="#6f6f6e"/><path d="m14.33 114.66s-1.37 11.31.2 13.36c1.58 2.05 2.72-4.46 2.72-4.46m-3.42 21.34s3.27 2.87 6.14 2.46" fill="none" stroke="#1d1d1b" stroke-miterlimit="10" stroke-width=".49"/><path d="m48.19 43.34s2.01-2.57 1.6-4.7m-1.38 7.32s3.08-2.29 3.27-4.84" fill="none" stroke="#1d1d1b" stroke-linecap="round" stroke-miterlimit="10" stroke-width=".49"/><path d="m28.77 109.67s-1.15 14.27-14.27 6.77m8.94 2.02s-1.01-2.88-1.73-1.87c-.72 1 1.73 1.87 1.73 1.87z" fill="none" stroke="#1d1d1b" stroke-miterlimit="10" stroke-width=".49"/><path d="m23.65 118.27s3.62-3.23 1.74-3.82-1.74 3.82-1.74 3.82zm-.17.07s.45 3.27-.63 3.62m.59-3.5s4.66 4.78 6.02 4.12" fill="none" stroke="#1d1d1b" stroke-miterlimit="10" stroke-width=".49"/><path d="m36.28 113.19 9.71 20.88-6.96.8-1.34-.06z" fill="#a076b1"/><path d="m36.28 113.19 9.71 20.88-6.96.8-1.34-.06z" fill="none" stroke="#1d1d1b" stroke-miterlimit="10" stroke-width=".49"/><path d="m19.6 109.03c-.2 1.81 2.09.7 1.4-.35-.47.05-.98.27-1.4.35" fill="#ee9fb4"/><path d="m36 103.39 2.43 3.89" fill="none" stroke="#1d1d1b" stroke-miterlimit="10" stroke-width=".49"/><path d="m7.23 183.06s127.39-40.9 550.43-10.6m-552.46 7s96.94-32.05 556.6-2.67" fill="none" stroke="#1d1d1b" stroke-linejoin="round" stroke-miterlimit="10" stroke-width=".49"/><path d="m162.66 135.78 10.12-4.26-1.45 14.65z" fill="#67c0ea"/><path d="m161.91 135.14 10.87-3.62-2.03 16.03zm60.46-35.1s-74.97 70.8-151.96 27.25" fill="none" stroke="#1d1d1b" stroke-linejoin="round" stroke-miterlimit="10" stroke-width=".49"/><path d="m306.74 216.6 4.77.8-9.49 27.07-1.51-.77zm5.59 1.85 19.22-.79-12.15 28.25zm21.73-.72 14.29-.24-4.68 27.98zm15.49-.72 5.97-.54 10.96 27.79z" fill="#67c0ea"/><path d="m262.81 110.5 11.3 1.7-4.43 9.77z" fill="#a076b1"/><path d="m262.81 110.82 6.68 11.97 2.94-11.1z" fill="none" stroke="#1d1d1b" stroke-linejoin="round" stroke-miterlimit="10" stroke-width=".49"/><path d="m436.54 250.3s-11.1 6.48-15.97 3.01-21.89-4.25-23.05-3.1c-1.17 1.14-6.26 2.6-6.38-1.35-.12-3.42 4.3-2.76 5.56-2.29 1.06.4 14.69.54 16.63-.63 1.94-1.16 2.8-2.89 5.63-3.73 2.82-.85 17.62 3.3 17.62 3.3l-.04 4.78z" fill="#c6c6c5"/><path d="m423.67 253.48-1.68-10.84 3.69.55 1.16 10.11zm4.56-.37-1.6-9.99 1.31.57 1.08 9.24zm-7.58-.31-1.6-9.99 1.32-.16 1.07 9.97z" fill="#67c0ea"/><path d="m435.84 250.49s-11.71 5.37-16.58 1.9c-4.87-3.46-21.33-3.66-22.38-2.4-1.42 1.7-3.57 1.46-4.68-.7-1.37-2.62 1.36-3.05 3.86-2.08 1.05.4 15.94.56 17.88-.6 1.95-1.17 2.81-2.9 5.63-3.74 2.82-.85 16.32 2.84 16.32 2.84z" fill="none" stroke="#1d1d1b" stroke-linejoin="round" stroke-miterlimit="10" stroke-width=".49"/><path d="m271.44 243.91s-32.76-1.03-32.93-.1c-.16.92-.96 4.1.37 3.98s31.18-.79 31.92-.9c.73-.1 1.27-2.5.64-2.98" fill="#f5cecf"/><path d="m221.9 100.29s121.3 45.78 218.08-27.69c0 0 45.97 39.05 104.79 39.54" fill="none" stroke="#1d1d1b" stroke-linejoin="round" stroke-miterlimit="10" stroke-width=".49"/><path d="m315.4 187.71-7.38 1.8s-42.84-79.45-11.35-98.06c31.5-18.61 68.94-1.2 72.76 5.97 3.82 7.16 13.87 43.61-29.99 86.6l-8.17-2.85s1.14-6.2-.06-6.92c-1.19-.71-15.02.27-15.74 2.9l-.06 10.56z" fill="#dddcdc"/><path d="m316.86 196.37-.59 12.57 7.28-.97z" fill="#db232e"/><path d="m316.86 196.37-.59 12.57 7.28-.97z" fill="none" stroke="#1d1d1b" stroke-linejoin="round" stroke-miterlimit="10" stroke-width=".49"/><path d="m337.08 197.69 7.21 3.3s-2.55 2.28-6.38 3.68" fill="#db232e"/><path d="m337.08 197.69 7.21 3.3s-2.55 2.28-6.38 3.68" fill="none" stroke="#1d1d1b" stroke-linejoin="round" stroke-miterlimit="10" stroke-width=".49"/><path d="m338.3 207.94s13.87-2.4 17.34.52c3.46 2.92 4.16 4.69 12.01 3.12 0 0-2.54.32-5.31-.3-2.77-.63-5.09-7.71-20.1-5.22l-4.86.53" fill="#ee9fb4"/><path d="m338.3 207.94s13.87-2.4 17.34.52c3.46 2.92 4.16 4.69 12.01 3.12 0 0-2.54.32-5.31-.3-2.77-.63-5.09-7.71-20.1-5.22l-4.86.53" fill="none" stroke="#1d1d1b" stroke-miterlimit="10" stroke-width=".49"/><path d="m324.1 185.06s1.21-4.57 4.11-2.28c2.78 2.19-1.06 4.12-1.06 4.12" fill="#ee9fb4"/><path d="m324.1 185.06s1.21-4.57 4.11-2.28c2.78 2.19-1.06 4.12-1.06 4.12" fill="none" stroke="#1d1d1b" stroke-miterlimit="10" stroke-width=".49"/><path d="m318.84 185.47c-3.96-3-6.18 3.48-1.28 3.23" fill="#ee9fb4"/><path d="m318.84 185.47c-3.96-3-6.18 3.48-1.28 3.23" fill="none" stroke="#1d1d1b" stroke-miterlimit="10" stroke-width=".49"/><path d="m318.31 193.47s-1.61-10.55 7.18-7.73c2.28.73 6.15 5.63 6.15 5.63s.64-8.31 6.85-8.58c6.2-.28 4.16 1.7 3.06 2.52s-4.7-.3-4.62 6.15c.09 7.04 1.2 22.76 3.84 22.94 2.65.18-4.56 2.26-6.48-.2-1.92-2.47-4.57-9.78-6.48-3.84-1.92 5.93-5.9 5.21-8.54 4.75 0 0 5.12-9.34-5.44-23.1 0 0-4.37-.53-6.1-.07 0 0 6.47-6.92 10.58 1.53" fill="#6f6f6e"/><path d="m343.65 245.9 23.03-2.18s-14.68-25.4-16.48-26.36zm-23.95.22s11.6-27.42 12.67-27.69c1.08-.27 11.24 26.52 11.24 26.52s-14.32 2.13-23.91 1.17m-17.97-2.19s8.58-23 9.73-24.68 7.95 26.66 7.95 26.66-10.55.03-17.68-1.98" fill="#aed092"/><g fill="none" stroke="#1d1d1b" stroke-miterlimit="10" stroke-width=".49"><path d="m306.44 216.47s-6.74 24-5.93 27.23c0 0 7.82 6.47 65.8.27l-10.8-27.5s-39.36 2.7-49.07 0z"/><path d="m312.18 214.26c-5.03 0-9.33 2.5-6.7 3.81 2.62 1.3 32.35-.82 36.64-1.13 3.48-.25 7.24-.6 10.68-1.12 2.29-.36 3.6-.62 4.9-1.05"/><path d="m311.7 217.34-9.68 27.27 17.11 1.93z" stroke-linejoin="round"/><path d="m319.13 246.54 12.42-28.88 12.1 28.24z" stroke-linecap="round" stroke-linejoin="round"/><path d="m343.65 245.9 5.65-28.72 17 26.79m-48.83-51.59s-1.59-6.7 3.27-7.39c4.85-.7 8.55 3 10.86 6.7a16.6 16.6 0 0 1 2.44-5.23c1.3-1.7 3.29-2.6 5.33-3.15.74-.2 3.43-.43 2.14 1.17-.9 1.11-2.65 1.19-3.73 2.05-.9.72-1.02 1.84-1.1 2.93-.16 1.94.2 3.79.46 5.7.93 6.7.93 18.95 4.17 19.65 0 0-5.09 2.3-6.7.23-1.62-2.08-3.7-6.7-5.32-5.78s0 5.55-2.31 5.78c-2.32.23-7.63.92-8.1 0 0 0 1.63-.7 2.32-3.47.55-2.21-.45-5.25-1.05-7.36a47.9 47.9 0 0 0 -3.83-9.61c-1.4-2.66-4.73-4.12-7.63-2.96-1.15.46-1.1-.66 2.34-2.03 1.83-.72 4.82-1.39 6.44 2.77z"/><path d="m320.46 189.58c0 .25.63-.04.33-.12.05 0-.12-.05-.27-.06" stroke-linecap="round" stroke-linejoin="round"/><path d="m325 188.12s.3-.42-.22-.47m-1.86 5.68s3.02-2.57 3.59-1.85c1.07 1.35 1.38-.46 1.38-.81"/></g><path d="m319.6 191.24s-1.9 1.98-.66 3.03c1.25 1.05 1.4-1.89.66-3.03" fill="#fff"/><path d="m319.6 191.24s-1.9 1.98-.66 3.03c1.25 1.05 1.4-1.89.66-3.03z" fill="none" stroke="#1d1d1b" stroke-miterlimit="10" stroke-width=".49"/><path d="m339.25 107.3s.54 4.4 3.11 3.9c2.57-.49-.94-3.64-3.1-3.9" fill="#fff"/><path d="m339.25 107.3s.54 4.4 3.11 3.9c2.57-.49-.94-3.64-3.1-3.9zm1.84 98.72-.14 1.32m2.74-1.59-.09 1.32m3.92-1.5-.35 1.36m3.6-1.64-.71 1.74m3.95-.57-.66 1.03m4.01.49-.66 1.03m-2.67-2.71-.7 1.07" style="fill:none;stroke:#1d1d1b;stroke-width:.49;stroke-linecap:round;stroke-linejoin:round;stroke-miterlimit:10"/><path d="m338.9 198.9c-2.52-1.2-4.83-2.76-7.36-4.05-.68-.34-1.13-.48-1.85-.71l14.49 4.47s.38 2.25-.1 2.57c-.98-.13-4.35-1.88-5.18-2.27" fill="#db232e"/><path d="m338.9 198.9c-2.52-1.2-4.83-2.76-7.36-4.05-.68-.34-1.13-.48-1.85-.71l14.49 4.47s.38 2.25-.1 2.57c-.98-.13-4.35-1.88-5.18-2.27z" fill="none" stroke="#1d1d1b" stroke-linejoin="round" stroke-miterlimit="10" stroke-width=".49"/><path d="m330.48 190.16a6 6 0 0 1 -4.44 6.5c-1.41.43-2.9.5-4.37.62-1.41.12-2.65.02-4.03-.41-.99-.31-1.39-1.91-1.32-2.27" fill="none" stroke="#1d1d1b" stroke-miterlimit="10" stroke-width=".49"/><path d="m314.97 209.84 1.63-13.78c.34.45 1.67 1.34 1.67 1.34l2.96 11.75-6.26.7z" fill="#db232e"/><path d="m314.97 209.84 1.63-13.78c.34.45 1.67 1.34 1.67 1.34l2.96 11.75-6.26.7zm11.07-13.18s-3.01 1.54-1.24 1.61c1.78.08 1.24-1.61 1.24-1.61zm.64.01s2.16 1.34 3.01.65c.85-.7-3.01-.65-3.01-.65zm-.1.13-.15 2.55.15-2.54zm3.4 2.28-3.25-1.96m-17.47-7.13s-50.62-81.24-10.2-97.56c40.4-16.32 76.93-6.22 73.83 29.53-3.11 35.75-34.92 60.88-34.92 60.88l-5.69-.15.47-10.04s-12.62.91-16.93 4.57l-.97 10.97z" fill="none" stroke="#1d1d1b" stroke-linejoin="round" stroke-miterlimit="10" stroke-width=".49"/><path d="m332.38 182.7s-.14-3.9 1.26-3.81c2.33.16 1.16 3.5 1.16 3.5s.4-4.09 2.34-3.5c1.94.58-.1 3.4-.1 3.4s2.04-3.99 3.2-3.2c1.17.77-2.22 3.61-2.22 3.61" fill="#6f6f6e"/><path d="m332.38 182.7s-.14-3.9 1.26-3.81c2.33.16 1.16 3.5 1.16 3.5s.4-4.09 2.34-3.5c1.94.58-.1 3.4-.1 3.4s2.04-3.99 3.2-3.2c1.17.77-2.22 3.61-2.22 3.61" style="fill:none;stroke:#1d1d1b;stroke-width:.49;stroke-linecap:round;stroke-linejoin:round;stroke-miterlimit:10"/><path d="m309.26 189.99s-3.17-5.52-1.04-5.33c2.14.2 3.04 4.36 3.04 4.36s-2.26-4.94-.12-5.13c2.13-.2 1.99 4.79 1.99 4.79s-.44-5.77 1.31-5.38c1.75.4-.14 4.96-.14 4.96" fill="#6f6f6e"/><path d="m309.26 189.99s-3.17-5.52-1.04-5.33c2.14.2 3.04 4.36 3.04 4.36s-2.26-4.94-.12-5.13c2.13-.2 1.99 4.79 1.99 4.79s-.44-5.77 1.31-5.38c1.75.4-.14 4.96-.14 4.96m-1.65-95.06s-12.04-5.44-19.04 15.55c-7 20.98-13.6 15.15 3.5 27.98 17.1 12.82 20.6-2.72 22.15-11.66m24.48-31.47s13.22-8.94 24.87 1.16c11.66 10.1 15.55 43.13 1.56 45.85-14 2.72-20.99-17.48-28.76-23.7" style="fill:none;stroke:#1d1d1b;stroke-width:.49;stroke-linecap:round;stroke-linejoin:round;stroke-miterlimit:10"/><path d="m323.54 114c0 1.29-2.78.47-1.76-.46.42-.38 1.76-.27 1.76.45zm13.22-.59c-.01.58-.34 1.51-1.04 1.51-.65 0-1.3-.87-1.3-1.51 0-.91.96-1.33 1.74-.96a1 1 0 0 1 .6.96z" fill="none" stroke="#1d1d1b" stroke-linejoin="round" stroke-miterlimit="10" stroke-width=".49"/><path d="m326.25 122.35s7 17.1-4.27 23.7c0 0 .39 2.33 3.89 1.94 3.5-.38 11.15-14.5 7.26-24.2" style="fill:none;stroke:#1d1d1b;stroke-width:.49;stroke-linecap:round;stroke-linejoin:round;stroke-miterlimit:10"/><path d="m322.35 145.98s5.4-3.4 4.84 1.33m-.16-6.7s3.02-3.56 4.57.9m-3.27-8.76s2.99-3.73 5.7.16m-6.41-6.68s3.23-3.23 5.95-1.1" fill="none" stroke="#1d1d1b" stroke-linejoin="round" stroke-miterlimit="10" stroke-width=".49"/><path d="m321.27 87.23-3.02-10.57s22.91-5.67 23.42-3.28c.5 2.4-4.03 12.85-4.03 12.85z" fill="#67c0ea"/><path d="m320.1 83.92s-7.9 1.42-5.38 2.93c2.52 1.52 26.7.26 27.45-1.26.76-1.5-6.88-2.01-6.88-2.01l-15.2.34z" fill="#67c0ea"/><path d="m320.39 84.84s-6.17.76-5.16 1.89c1 1.13 20.9.63 26.44-.88s-5.54-3.28-7.18-2.9" fill="#67c0ea"/><path d="m320.39 84.84s-6.17.76-5.16 1.89c1 1.13 20.9.63 26.44-.88s-5.54-3.28-7.18-2.9" fill="none" stroke="#1d1d1b" stroke-linejoin="round" stroke-miterlimit="10" stroke-width=".49"/><path d="m320.9 85.47-2.65-8.82s17.88-6.8 23.41-3.77c0 0-1.88 11.08-4.65 12.09-2.77 1-12.6 1.76-16.12.5z" fill="none" stroke="#1d1d1b" stroke-linejoin="round" stroke-miterlimit="10" stroke-width=".49"/><path d="m318.48 76.7c3.6.13 7.45.25 11.04.07 3.02-.16 6.44-.38 9.28-1.5.79-.32 2.26-1.21 2-2.33-.23-.96-2.06-.83-2.74-.77" fill="none" stroke="#1d1d1b" stroke-linejoin="round" stroke-miterlimit="10" stroke-width=".49"/><path d="m361.02 242.4c-.53-5.34 3.75-10.15 9.57-10.73 5.82-.59 10.97 3.27 11.51 8.62.54 5.34-3.75 10.15-9.57 10.74-5.82.58-10.97-3.28-11.5-8.62" fill="#67c0ea"/><path d="m366.8 250.4c-.19-.24-1.9-.53-3.08-2-1.37-1.7-2.36-5.47-2.03-7.68a10.18 10.18 0 0 1 20.13 2.94c-.99 6.78-11.24 9.5-16.83 6.47" fill="none" stroke="#1d1d1b" stroke-linejoin="round" stroke-miterlimit="10" stroke-width=".49"/><path d="m375.48 244.69-.3 2.61-1.33-2.27-3.01-.03 1.81-1.79-.9-2.84 2.73 1.73 2.15-2.52-.47 3.65 2.44 1.14zm-9.9-2.89.42 1.39-1.17-.86-1.53.64.52-1.3-1.08-1.24 1.76.28.54-1.75.57 1.95 1.49.04zm6.32 7.43.84.74-1.11-.09-.74 1.04-.19-1.06-1.21-.38 1.27-.53-.35-1.36 1.15 1.05.99-.57zm-2.96-13.89-.29 1.07-.42-1.03-1.26-.2.87-.64-.19-1.25 1.03.9 1.07-.92-.43 1.5.95.63zm8.88-1.03c-.33-.2-.64-.42-.94-.66l-.24-.17-.42-.18-.08.26-1.76-.28 1.08 1.25-.52 1.3 1.53-.64 1.17.85-.42-1.39z" fill="#db232e"/><path d="m46.73 242.57c3.71 5.44 1.92 13.13-4.01 17.18-5.93 4.04-13.75 2.9-17.46-2.54-3.72-5.44-1.92-13.14 4.01-17.18s13.75-2.9 17.46 2.54" fill="#f5cecf"/><path d="m35.82 237.34c.34.15 2.35-.54 4.48.34 2.48 1.04 5.75 4.52 6.7 7.09a12.48 12.48 0 0 1 -23.42 8.64c-2.9-7.88 6.54-16.84 14.34-16.84" fill="none" stroke="#1d1d1b" stroke-linejoin="round" stroke-miterlimit="10" stroke-width=".49"/><path d="m29.82 248.59-1.21-2.99 2.76 1.65 3.26-1.71-.9 2.97 2.64 2.55-3.96-.28-.84 3.99-1.64-4.21-3.3.2zm12.36-2.69-1.27-1.25 1.76.23 1.28-1.59.19 1.71 1.9.7-2.07.74.46 2.2-1.76-1.77-1.63.83zm-11.18-4.31-1.33-.3 1.24-.56.2-1.55.82 1.03 1.52-.3-1.05 1.31 1.18 1.27-1.87-.46-.73 1.2zm11.34 13.23-.32-1.32 1.06.87 1.48-.52-.57 1.19.95 1.24-1.65-.37-.6 1.62-.42-1.87-1.4-.12zm-8.97 6.32c.47.02.95.08 1.41.16l.35.05.56-.06-.07-.32 2.07-.74-1.9-.7-.2-1.71-1.27 1.59-1.77-.24 1.27 1.25z" fill="#db232e"/><path d="m337.16 124.96s1.33 5.19-.67 6.38c0 0 3.72.13 3.06-6.11" fill="#fff"/><path d="m337.16 124.96s1.33 5.19-.67 6.38c0 0 3.72.13 3.06-6.11" style="fill:none;stroke:#1d1d1b;stroke-width:.49;stroke-linecap:round;stroke-linejoin:round;stroke-miterlimit:10"/><path d="m323.87 125.76s1.33 5.18-.66 6.38c0 0 3.48-.6 2.81-6.85" fill="#fff"/><path d="m323.87 125.76s1.33 5.18-.66 6.38c0 0 3.48-.6 2.81-6.85" style="fill:none;stroke:#1d1d1b;stroke-width:.49;stroke-linecap:round;stroke-linejoin:round;stroke-miterlimit:10"/><path d="m378.01 248.93s6.84-10.93 12.81-10.71c5.98.22 18.15-8.74 18.49-10.34s3.8-5.62 6.07-2.39c1.98 2.8-2.07 4.67-3.4 4.98-1.1.25-12.55 7.63-13.54 9.67-.98 2.03-.75 3.95-2.64 6.2-1.9 2.26-15.2 6.6-15.2 6.6z" fill="#ee9fb4"/><path d="m385.67 239.52 7.36 8.13-3.39 1.57-6.53-7.81zm-3.61 2.82 6.83 7.46-1.41.25-5.98-7.13z" fill="#db232e"/><path d="m377.14 248.71s6.83-10.93 12.8-10.7c5.98.21 19.84-8.67 20.02-10.3.25-2.2 2.18-3.18 4.3-2 2.58 1.45.53 3.3-2.08 3.87-1.1.24-13.63 8.3-14.61 10.34s-.75 3.96-2.65 6.21c-1.89 2.26-15.2 6.6-15.2 6.6z" fill="none" stroke="#1d1d1b" stroke-linejoin="round" stroke-miterlimit="10" stroke-width=".49"/><path d="m333.98 110.05 3.33.96" fill="#ee9fb4"/><path d="m333.98 110.05 3.33.96" style="fill:none;stroke:#1d1d1b;stroke-width:.49;stroke-linecap:round;stroke-linejoin:round;stroke-miterlimit:10"/><path d="m319.96 112.27 3.23-1.25" fill="#ee9fb4"/><path d="m319.96 112.27 3.23-1.25" fill="none" stroke="#1d1d1b" stroke-miterlimit="10" stroke-width=".49"/><path d="m335.88 136.15s4.72-.75 6-1.92 1.36 2.13-.88 2.88c0 0-3.06-.03-5.11-2.25" fill="#ee9fb4"/><path d="m335.88 136.15s4.72-.75 6-1.92 1.36 2.13-.88 2.88c0 0-3.06-.03-5.11-2.25" fill="none" stroke="#1d1d1b" stroke-miterlimit="10" stroke-width=".49"/><path d="m341.1 63.8c0 6.5-5.73 11.78-12.8 11.78-7.09 0-12.82-5.27-12.82-11.77s5.73-11.77 12.81-11.77 12.82 5.27 12.82 11.77" fill="#aed092"/><path d="m335.12 53.49c.2.31 2.22.86 3.46 2.76 1.45 2.23 2.18 6.88 1.53 9.5a12.31 12.31 0 1 1 -23.89-5.97c2.01-8.04 14.69-10.09 21.05-5.76" fill="none" stroke="#1d1d1b" stroke-linejoin="round" stroke-miterlimit="10" stroke-width=".49"/><path d="m323.98 59.31.67-3.1 1.34 2.88 3.61.42-2.39 1.92.74 3.54-3.08-2.43-2.89 2.79 1-4.35-2.8-1.67z" fill="#fff"/><path d="m335.55 63.99-.34-1.72 1.31 1.17 1.92-.59-.79 1.5 1.16 1.63-2.1-.55-.86 2.05-.44-2.42-1.79-.23z" fill="#ee9fb4"/><path d="m319.9 71.52c.37.28.73.59 1.06.91l.26.24.48.26.13-.3 2.1.55-1.16-1.63.79-1.5-1.92.58-1.31-1.17.34 1.73z" fill="#a076b1"/><path d="m326.82 51.14s-4.87-10.32-1.84-14.66c3.02-4.34 2.18-17.69 1.15-18.7-1.02-1.03-2.36-5.52 1.14-5.67 3.03-.13 2.48 3.78 2.07 4.9-.34.95-.33 13 .71 14.72 1.05 1.7 2.6 2.45 3.36 4.94.77 2.49-2.37 14.46-2.37 14.46h-4.22z" fill="#ee9fb4"/><path d="m323.48 40.94 9.58-1.59-.46 3.28-8.93 1.12zm.37 4.04 8.82-1.51-.49 1.16-8.17 1.04z" fill="#db232e"/><path d="m326.24 51.69s-4.87-10.32-1.84-14.66c3.02-4.34 3.04-18.91 1.92-19.82-1.52-1.24-1.58-4.08.57-4.16 2.76-.1 2.72 1.18 1.89 3.4-.35.94-.35 14.12.7 15.83 1.04 1.7 2.58 2.45 3.35 4.94s-2.37 14.46-2.37 14.46h-4.22z" fill="none" stroke="#1d1d1b" stroke-linejoin="round" stroke-miterlimit="10" stroke-width=".49"/><path d="m327.57 40.71.42-1.17.36 1.19 1.38.35-1.03.62.1 1.4-1.06-1.1-1.26.93.61-1.63-.99-.79z" fill="#fff"/><path d="m237.96 105.59 11.2 2.27-4.6 10.56z" fill="#f5cecf"/><path d="m381.97 102.87 8.84-2.52-2.76 11.07z" fill="#ee9fb4"/><path d="m410.31 91.17 9.46-4.77-1.92 11.92z" fill="#aed092"/><path d="m448.9 80 10.89 6.06-6.85 9.02z" fill="#f5cecf"/><path d="m326.96 260.42c.95-9.6-27.91 2.35-32.49 2.45-5.3.12-9.69-1.8-9.2-7.88.98-12.28-12.56-10.25-12.56-10.25h-.6l-34.34-.25s-1.2 1.91.12 2.14c1.32.24 34.25-1.16 34.25-1.16" fill="none" stroke="#1d1d1b" stroke-linejoin="round" stroke-miterlimit="10" stroke-width=".49"/><path d="m439.5 67.97 1.89 118.01 6.95.63-7.58-123.06zm-215.18 12.66-13.21 120.06 6.27-1.29 8.52-116.76zm-155.77 10.98 4.39 114.8 7.37-3.87-9.87-109.21zm479.23-14.9-9.9 121.86 7.8-2.91 3.76-117z" fill="#aed092"/><path d="m449.22 79.81 10.57 6.25-5.85 11.01zm-39.06 11.51 9.61-4.92-1.92 11.92zm-28.04 11.72 8.66-2.91-1.03 12.54zm-144.62 2.15 10.51 2.37-4.62 12.32zm29.24 6.24-1.41 4.05m2.62 4.62 2.24-8.57" fill="none" stroke="#1d1d1b" stroke-linejoin="round" stroke-miterlimit="10" stroke-width=".49"/><path d="m194.64 120.12 10.13-5.23 1.34 12.09z" fill="#a076b1"/><path d="m194.79 120.4 11.54 7.4-3.23-12.63zm3.52-2.17.91 5.09m4.48 2.84-2.27-9.88" fill="none" stroke="#1d1d1b" stroke-linejoin="round" stroke-miterlimit="10" stroke-width=".49"/><path d="m78.09 131.18 10.24 4.99-8.89 8.31z" fill="#67c0ea"/><path d="m77.95 131.47.97 13.67 8.19-10.14zm3.85 1.52-3.54 3.77m.41 5.29 6.55-7.72m327.62-44.43-.22 3.31m4.05-5.59-.77 8.6m-2.83-6.35 5.85 1.02m-6.72 2.16 6.21 2.15m63.32 2.73-3 2.83" fill="none" stroke="#1d1d1b" stroke-linejoin="round" stroke-miterlimit="10" stroke-width=".49"/><path d="m335.57 113.5c0 .29-.22.53-.5.53-.26 0-.48-.24-.48-.54 0-.29.22-.53.49-.53s.49.24.49.53" fill="#1d1d1b"/><path d="m323.9 189.68c-.89 1.26 1.26 1.34 1.16.29-.36-.14-.83-.2-1.17-.3m174.9-5.37c-2.12-5.37-8.25-.29-3.23 2.43" fill="#ee9fb4"/><path d="m498.79 184.3c-2.12-5.37-8.25-.29-3.23 2.43" fill="none" stroke="#1d1d1b" stroke-miterlimit="10" stroke-width=".49"/><path d="m503.29 183.93s1.34-5.04 4.54-2.52c3.06 2.42-1.18 4.54-1.18 4.54" fill="#ee9fb4"/><path d="m503.29 183.93s1.34-5.04 4.54-2.52c3.06 2.42-1.18 4.54-1.18 4.54" fill="none" stroke="#1d1d1b" stroke-miterlimit="10" stroke-width=".49"/><path d="m503.21 213.28s16.07 5.53 18.04 10.63 1.68 7.38 10.9 10.3c0 0-2.87-1.15-5.44-3.42-2.57-2.28-.9-11.11-18.25-17.2l-5.7-1.8" fill="#ee9fb4"/><path d="m503.21 213.28s16.07 5.53 18.04 10.63 1.68 7.38 10.9 10.3c0 0-2.87-1.15-5.44-3.42-2.57-2.28-.9-11.11-18.25-17.2l-5.7-1.8" fill="none" stroke="#1d1d1b" stroke-miterlimit="10" stroke-width=".49"/><path d="m507.28 212.87-.92 1.32m3.83-.1-.87 1.35m5.02.69-1.15 1.23m4.75.37-1.75 1.42m8.64 8.41-1.5.82m-.01-4.04-1.5.82m-1.02-4.47-1.35.73" style="fill:none;stroke:#1d1d1b;stroke-width:.49;stroke-linecap:round;stroke-linejoin:round;stroke-miterlimit:10"/><path d="m510.28 202.25a86.51 86.51 0 0 0 2.96 21.66c-3.13.23-9.02.54-10.76-8.53-1.42-7.4-5.01 2.83-6.61 6.25-1.6 3.41-10.65 2.9-7.58 1.98s-.16-20.22-2.06-29.1c-5.56-26.1 6.64-.47 6.64-.47s1.7-6.39 3.95-8.2c10.44-8.47 12.31 7.11 12.31 7.11l.08-.29c.04 1.2.16-.9.52-1.73 0 0 1.2-6.12 3.2-5.15 2.02.97-1.99 15.27-2.65 16.47" fill="#6f6f6e"/><path d="m493.07 195.08s-2.4 9.83-5.31 8.07l.77 4.05 8.56-.66 2.5-8.08z" fill="#67c0ea"/><path d="m493.07 195.08s-2.4 9.83-5.31 8.07l.77 4.05 8.56-.66 2.5-8.08z" fill="none" stroke="#1d1d1b" stroke-miterlimit="10" stroke-width=".49"/><path d="m508.81 193.6s-3.22 12.15 1.03 9.72l.31 5.82-7.17-1.57-1.52-8.96z" fill="#67c0ea"/><path d="m508.81 193.6s-3.22 12.15 1.03 9.72l.31 5.82-7.17-1.57-1.52-8.96z" fill="none" stroke="#1d1d1b" stroke-miterlimit="10" stroke-width=".49"/><path d="m509.9 203.66c.08 2.42.3 8.65.68 11.38.53 3.81 2.66 8.4 2.66 8.4-.3 1.22-7.56-.22-8.54-2.78-1-2.61-2.11-5.53-4.27-6.18-2.15-.66-3.36 5.34-4.7 8.23-1.35 2.88-7.96 1.52-7.96 1.52 3.62-1.68.34-16.1-.36-24.25-.2-2.32-.27-4.59-.97-6.83-.4-1.26-2.36-10.14-1.43-10.1 2.55.1 6.85 9.37 8 11.37 1.73-4.98 2.5-10.24 8.4-10.72 3.4-.28 6.48 3.19 7.52 9.22 0 0 3.12-8.87 5.27-7.97 2.14.9-4.3 18.71-4.3 18.71z" fill="none" stroke="#1d1d1b" stroke-miterlimit="10" stroke-width=".49"/><path d="m504.53 187.97c.1.55-1.42.22-.8-.1-.1.04.24-.18.58-.28" style="fill:none;stroke:#1d1d1b;stroke-width:.49;stroke-linecap:round;stroke-linejoin:round;stroke-miterlimit:10"/><path d="m499.29 188.34s-.46-.41.13-.61" fill="none" stroke="#1d1d1b" stroke-miterlimit="10" stroke-width=".49"/><path d="m504.27 192s-3.66 1.72-4.82.8c-1.16-.93 2.28 3.7 4.82-.8" fill="#ee9fb4"/><path d="m504.27 192s-3.66 1.72-4.82.8c-1.16-.93 2.28 3.7 4.82-.8z" fill="none" stroke="#1d1d1b" stroke-miterlimit="10" stroke-width=".49"/><path d="m502.37 189.59c.63 1.75-1.9 1.16-1.45-.04.47-.05 1.03.04 1.45.03" fill="#ee9fb4"/><path d="m497.05 157.73a2.79 2.79 0 1 1 -5.57 0 2.79 2.79 0 0 1 5.57 0" fill="#db232e"/><path d="m493.26 155.3s-3.44 1.77-.83 4.5c.76.8 1.93 1.28 2.91.6a5.14 5.14 0 0 0 1.43-1.37c.93-1.46-1.04-3.5-2.48-3.57-.44-.02-.98.23-1.27.55" fill="none" stroke="#1d1d1b" stroke-miterlimit="10" stroke-width=".49"/><path d="m506.13 231.38a5.94 5.94 0 1 1 -11.86.77 5.94 5.94 0 0 1 11.86-.77" fill="#a076b1"/><path d="m497.72 226.73s-7.07 4.26-1.14 9.7c1.74 1.61 4.29 2.46 6.29.89a10.91 10.91 0 0 0 2.84-3.13c1.77-3.22-2.69-7.3-5.78-7.25-.92.02-2.04.62-2.61 1.34" style="fill:none;stroke:#1d1d1b;stroke-width:.49;stroke-linecap:round;stroke-linejoin:round;stroke-miterlimit:10"/><path d="m517.7 177.46a2.79 2.79 0 1 1 -3.2-4.54 2.79 2.79 0 0 1 3.2 4.54" fill="#67c0ea"/><path d="m518.35 172.98s-4.29-1.8-5 1.9c-.22 1.1.07 2.32 1.19 2.73.6.23 1.3.4 1.94.37 1.72-.08 2.26-2.86 1.48-4.08a1.77 1.77 0 0 0 -1.18-.72" fill="none" stroke="#1d1d1b" stroke-miterlimit="10" stroke-width=".49"/><path d="m482.05 188.36a2.78 2.78 0 1 1 4.73-2.94 2.78 2.78 0 0 1 -4.73 2.94" fill="#db232e"/><path d="m486.48 189.27s2.06-4.17-1.6-5.11c-1.07-.28-2.31-.07-2.8 1.03a5.12 5.12 0 0 0 -.47 1.92c-.02 1.72 2.72 2.42 3.99 1.72.37-.21.7-.7.78-1.14" fill="none" stroke="#1d1d1b" stroke-miterlimit="10" stroke-width=".49"/><path d="m514.13 162.78a2.79 2.79 0 1 1 -5.24-1.88 2.79 2.79 0 0 1 5.24 1.88" fill="#aed092"/><path d="m511.38 159.21s-3.83.51-2.3 3.96c.45 1.02 1.39 1.86 2.54 1.55a5.1 5.1 0 0 0 1.8-.81c1.37-1.06.21-3.64-1.13-4.2-.4-.16-1.95.7-2.33.9" fill="none" stroke="#1d1d1b" stroke-miterlimit="10" stroke-width=".49"/><path d="m484.23 174.27a2.79 2.79 0 0 1 -3.2-4.56c1.26-.89 3.3-.78 4.18.48s.28 3.2-.98 4.08" fill="#ee9fb4"/><path d="m484.04 169.77s-3.43-1.8-4.17 1.9c-.21 1.1.07 2.32 1.19 2.74.6.22 1.3.4 1.94.37 1.73-.07 2.27-2.85 1.5-4.08-.23-.36-1.66-.57-2.1-.62" fill="none" stroke="#1d1d1b" stroke-miterlimit="10" stroke-width=".49"/><path d="m504.63 201.69a.85.85 0 1 1 -1.7 0 .85.85 0 0 1 1.7 0" fill="#db232e"/><path d="m504.63 201.69a.85.85 0 1 1 -1.7 0 .85.85 0 0 1 1.7 0z" fill="none" stroke="#1d1d1b" stroke-miterlimit="10" stroke-width=".49"/><path d="m498.03 201.03a.86.86 0 1 1 -1.71 0 .86.86 0 0 1 1.7 0" fill="#db232e"/><path d="m498.03 201.03a.86.86 0 1 1 -1.71 0 .86.86 0 0 1 1.7 0z" fill="none" stroke="#1d1d1b" stroke-miterlimit="10" stroke-width=".49"/><path d="m503.02 201.14s-2.79-1.1-5.01-.45" style="fill:none;stroke:#1d1d1b;stroke-width:.49;stroke-linecap:round;stroke-linejoin:round;stroke-miterlimit:10"/><path d="m504.63 204.8a.85.85 0 1 1 -1.7 0 .85.85 0 0 1 1.7 0" fill="#db232e"/><path d="m504.63 204.8a.85.85 0 1 1 -1.7 0 .85.85 0 0 1 1.7 0z" fill="none" stroke="#1d1d1b" stroke-miterlimit="10" stroke-width=".49"/><path d="m497.13 204a.85.85 0 1 1 -1.7 0 .85.85 0 0 1 1.7 0" fill="#db232e"/><path d="m497.13 204a.85.85 0 1 1 -1.7 0 .85.85 0 0 1 1.7 0z" fill="none" stroke="#1d1d1b" stroke-miterlimit="10" stroke-width=".49"/><path d="m503.02 204.24s-3.22-1.1-5.8-.45m1.97-44.64s-.76 2.31-2.07 2.4m22.43 17.3s-1.83 1.6-3 1" style="fill:none;stroke:#1d1d1b;stroke-width:.49;stroke-linecap:round;stroke-linejoin:round;stroke-miterlimit:10"/><path d="m501.31 232.2c0 .57-.5 1.03-1.1 1.03-.61 0-1.1-.46-1.1-1.04s.49-1.04 1.1-1.04c.6 0 1.1.47 1.1 1.04" fill="#db232e"/><path d="m501.31 232.2c0 .57-.5 1.03-1.1 1.03-.61 0-1.1-.46-1.1-1.04s.49-1.04 1.1-1.04c.6 0 1.1.47 1.1 1.04z" style="fill:none;stroke:#1d1d1b;stroke-width:.49;stroke-linecap:round;stroke-linejoin:round;stroke-miterlimit:10"/><path d="m504.92 246.53a5.94 5.94 0 1 1 -11.86.77 5.94 5.94 0 0 1 11.86-.77" fill="#6f6f6e"/><path d="m496.51 241.88s-7.07 4.26-1.14 9.7c1.74 1.6 4.29 2.46 6.29.89a10.94 10.94 0 0 0 2.83-3.13c1.78-3.22-2.68-7.3-5.77-7.25-.92.01-2.05.62-2.62 1.34" style="fill:none;stroke:#1d1d1b;stroke-width:.49;stroke-linecap:round;stroke-linejoin:round;stroke-miterlimit:10"/><path d="m500.1 247.34c0 .58-.5 1.04-1.1 1.04-.61 0-1.1-.46-1.1-1.04 0-.57.49-1.04 1.1-1.04.6 0 1.1.46 1.1 1.04" fill="#db232e"/><path d="m500.1 247.34c0 .58-.5 1.04-1.1 1.04-.61 0-1.1-.46-1.1-1.04 0-.57.49-1.04 1.1-1.04.6 0 1.1.46 1.1 1.04zm5.47 3.67s-.91 1.43-1.73 1.53m2.86-1.12s-.41 1.12-.82 1.42m-13.2-21.53s.17-1.68.85-2.14m-2.03 2.28s-.15-1.18.08-1.64" style="fill:none;stroke:#1d1d1b;stroke-width:.49;stroke-linecap:round;stroke-linejoin:round;stroke-miterlimit:10"/><path d="m114.45 221.92-.7 16.16 2.46.95-.35-19.48z" fill="#f5cecf"/><path d="m114.45 221.92-.7 16.16 2.46.95-.35-19.48z" fill="none" stroke="#1d1d1b" stroke-miterlimit="10" stroke-width=".49"/><path d="m117.35 244.46c.05 1.89 0 3.77-.19 5.64-.13 1.28-.28 6.72-1.91 7.03-1.37.27-1.87-3.25-2.06-4.23-.7-3.76-1.41-7.53-1.49-11.38-.03-1.82.22-9.73 3.25-9.73 2 0 2.13 7.58 2.2 8.68.1 1.33.17 2.66.2 4" fill="#fff"/><path d="m117.35 244.46c.05 1.89 0 3.77-.19 5.64-.13 1.28-.28 6.72-1.91 7.03-1.37.27-1.87-3.25-2.06-4.23-.7-3.76-1.41-7.53-1.49-11.38-.03-1.82.22-9.73 3.25-9.73 2 0 2.13 7.58 2.2 8.68.1 1.33.17 2.66.2 4z" fill="none" stroke="#1d1d1b" stroke-miterlimit="10" stroke-width=".49"/><path d="m114.51 233.21s-1.35 1.4-1.55 3.77c-.19 2.37.2 18.42 1.8 19.34 1.59.92 2.99-20.98.77-22.91 0 0-.49-.73-1.02-.2" fill="#fff"/><path d="m114.51 233.21s-1.35 1.4-1.55 3.77c-.19 2.37.2 18.42 1.8 19.34 1.59.92 2.99-20.98.77-22.91 0 0-.49-.73-1.02-.2z" fill="none" stroke="#1d1d1b" stroke-miterlimit="10" stroke-width=".49"/><path d="m115.06 243.36-.05-9.77" fill="#fff"/><path d="m115.06 243.36-.05-9.77" style="fill:none;stroke:#1d1d1b;stroke-width:.49;stroke-linecap:round;stroke-linejoin:round;stroke-miterlimit:10"/><path d="m116.87 245.88-3.67-3" fill="#fff"/><path d="m116.87 245.88-3.67-3" style="fill:none;stroke:#1d1d1b;stroke-width:.49;stroke-linecap:round;stroke-linejoin:round;stroke-miterlimit:10"/><path d="m114.95 243.27-.15 12.91" fill="#fff"/><path d="m114.95 243.27-.15 12.91" style="fill:none;stroke:#1d1d1b;stroke-width:.49;stroke-linecap:round;stroke-linejoin:round;stroke-miterlimit:10"/><path d="m114.66 243.03 1.59 6.86" fill="#fff"/><path d="m114.66 243.03 1.59 6.86" style="fill:none;stroke:#1d1d1b;stroke-width:.49;stroke-linecap:round;stroke-linejoin:round;stroke-miterlimit:10"/><path d="m114.66 242.75-1.52-6.64" fill="#fff"/><path d="m114.66 242.75-1.52-6.64" style="fill:none;stroke:#1d1d1b;stroke-width:.49;stroke-linecap:round;stroke-linejoin:round;stroke-miterlimit:10"/><path d="m116.63 238.27-3.14 13.95" fill="#fff"/><path d="m116.63 238.27-3.14 13.95" style="fill:none;stroke:#1d1d1b;stroke-width:.49;stroke-linecap:round;stroke-linejoin:round;stroke-miterlimit:10"/><path d="m111.72 237.72s-11.05-3.26-13.7-1.05c-2.66 2.2 9.92 3.22 13.77 2.41m5.41 6.45s19.44-3.67 16.47 1.8c-1.6 2.96-19.23 1.17-16.46-1.8z" fill="none" stroke="#1d1d1b" stroke-miterlimit="10" stroke-width=".49"/><path d="m161.02 171.2s39.37-13.27 37.5-22.94c-1.24-6.34-33.04-.75-33.56 1.38 0 0-7.06 15.17-7.02 22.92m37.5-21.62 3.5-.21" fill="#6f6f6e"/><path d="m195.44 150.94 3.5-.21" style="fill:none;stroke:#1d1d1b;stroke-width:.49;stroke-linecap:round;stroke-linejoin:round;stroke-miterlimit:10"/><path d="m196.77 147.42 3.22.75" fill="#6f6f6e"/><path d="m196.77 147.42 3.22.75" style="fill:none;stroke:#1d1d1b;stroke-width:.49;stroke-linecap:round;stroke-linejoin:round;stroke-miterlimit:10"/><path d="m196.23 149.04 3.47.36" fill="#6f6f6e"/><path d="m196.23 149.04 3.47.36" style="fill:none;stroke:#1d1d1b;stroke-width:.49;stroke-linecap:round;stroke-linejoin:round;stroke-miterlimit:10"/><path d="m84.63 207.56s-7.91 4.7 11.72 8.96l3.78-.32-5.03-11z" fill="#f5cecf"/><path d="m84.63 207.56s-7.91 4.7 11.72 8.96l3.78-.32-5.03-11z" fill="none" stroke="#1d1d1b" stroke-miterlimit="10" stroke-width=".49"/><path d="m164.2 209.4s5.16 1.25 1.64 5.07c-2.22 2.42-14.02.54-14.02.54l-2.77.35 3.04-6.3 12.12.33z" fill="#f5cecf"/><path d="m164.2 209.4s5.16 1.25 1.64 5.07c-2.22 2.42-14.02.54-14.02.54l-2.77.35 3.04-6.3 12.12.33z" fill="none" stroke="#1d1d1b" stroke-miterlimit="10" stroke-width=".49"/><path d="m85.82 164.71s-19.8 9.52-15.8 15.43c3.99 5.92 16.9-2.37 16.9-2.37" fill="#6f6f6e"/><path d="m85.82 164.71s-19.8 9.52-15.8 15.43c3.99 5.92 16.9-2.37 16.9-2.37" style="fill:none;stroke:#1d1d1b;stroke-width:.49;stroke-linecap:round;stroke-linejoin:round;stroke-miterlimit:10"/><path d="m101.97 236.2s-40.76-72-7.8-93.88c34.98-23.2 71.01-8.6 76.75 12.97 5.35 20.1-24.8 78.74-38.9 89.69l-4.61-.44s-13.88-30.7-17.23-18.49a119.78 119.78 0 0 0 -2.46 10.8l-5.75-.66z" fill="#6f6f6e"/><path d="m82.99 177.38c-1.78-17.56 1.55-25.88 9.48-33.36 32.75-30.87 72.78-11.13 78.26 10.5 5.02 19.82-23.87 81.79-39.37 90.23l-3.18-.43s-13.02-29.95-18.16-18.86c-2.51 5.43-2.9 11.3-2.9 11.3l-4.79-.43s-2.54-5.66-5.67-14.4c-.43-1.18-.86-2.41-1.3-3.7-3.23-9.47-6.79-21.65-8.74-34" style="fill:none;stroke:#1d1d1b;stroke-width:.49;stroke-linecap:round;stroke-linejoin:round;stroke-miterlimit:10"/><path d="m95.02 217.65s14-.19 16.12 5.89c0 0 1.85-2.85 6.6 1.11 0 0 22.98-12.68 34.7-7.86l3.3-5.88-63.1-.85 2.38 7.6z" fill="#ee9fb4"/><path d="m95.02 217.65s14-.19 16.12 5.89c0 0 1.85-2.85 6.6 1.11 0 0 22.98-12.68 34.7-7.86l3.3-5.88-63.1-.85 2.38 7.6z" style="fill:none;stroke:#1d1d1b;stroke-width:.49;stroke-linecap:round;stroke-linejoin:round;stroke-miterlimit:10"/><path d="m76.66 169.88 1.8-1.2s33.73 28.85 49.23 22.69c15.5-6.17 42.07-43.6 42.07-43.6l4.28-1.01s-5.89 20.52-1.02 20.16l-14.67 37.32s-49.52 11.52-68.09 2.2c0 0-13.08-28.28-13.6-36.56" fill="#ee9fb4"/><path d="m76.66 169.88 1.8-1.2s33.73 28.85 49.23 22.69c15.5-6.17 42.07-43.6 42.07-43.6l4.28-1.01s-5.89 20.52-1.02 20.16l-14.67 37.32s-49.52 11.52-68.09 2.2c0 0-13.08-28.28-13.6-36.56z" style="fill:none;stroke:#1d1d1b;stroke-width:.49;stroke-linecap:round;stroke-linejoin:round;stroke-miterlimit:10"/><path d="m90.11 203.04-4.16 5.17s3.14 1.14 3.62 4.01 3.8-1.27 8.06.67c2.5 1.13 4.87 2.72 7.72 1.9 1.86-.55 3.65-1.31 5.52-.38 1.07.53 1.92 1.03 3.17 1.09 1.41.05 3.05-.4 4.32-.87 1.8-.66 3.4.33 5.26.25 1.22-.05 3.18-.06 4.38-.3 5.53-1.1 9.87.1 15.33-.04 1.47-.05 2.94-.16 4.41-.26 1.76-.1 2.9-.91 6.2-.84 1.59.04 8.86-5.43 12.25-3.1a13.45 13.45 0 0 1 -3.18-2.6c-3.35-3.62-3.76-6.03-3.95-6 0 0-27.18 4.94-68.95 1.3" fill="#f5cecf"/><path d="m91.62 203.3-3.94 4.91s3.14 1.14 3.63 4.01c.47 2.87 3.79-1.27 8.06.67 2.5 1.13 4.86 2.72 7.71 1.9 1.86-.55 3.65-1.31 5.52-.38 1.07.53 1.91.66 3.17.72a10.4 10.4 0 0 0 4.01-.7c1.8-.65 3.62-.2 5.48-.28 1.22-.05 2.42-.3 3.62-.54 5.53-1.1 10.72 1.08 16.18.93 1.47-.05 2.95-.16 4.41-.26 1.77-.1 2.9-.91 6.2-.84 1.6.04 7.44-5.11 10.83-2.79a26.6 26.6 0 0 1 -3.33-2.23c-3.94-2.96-4.42-5.59-4.62-5.55 0 0-25.16 4.06-66.93.42z" fill="none" stroke="#1d1d1b" stroke-miterlimit="10" stroke-width=".49"/><path d="m100.66 203.81s-2.75 7.95-2.22 11.47c0 0-3.67-1.53-7.26-.77-3.6.77-4.28-3.36-5.35-4.89s-1.91-1.37-1.91-1.37l4.16-5.5c0-.01 8.45 1.14 12.58 1.06" fill="#f5cecf"/><path d="m100.66 203.81s-2.75 7.95-2.22 11.47c0 0-3.67-1.53-7.26-.77-3.6.77-4.28-3.36-5.35-4.89s-1.91-1.37-1.91-1.37l4.16-5.5c0-.01 8.45 1.14 12.58 1.06z" fill="none" stroke="#1d1d1b" stroke-miterlimit="10" stroke-width=".49"/><path d="m100.66 203.81s-5-2.44-3.67-3.5c2.8-2.2 3.67 3.5 3.67 3.5" fill="#ee9fb4"/><path d="m100.66 203.81s-5-2.44-3.67-3.5c2.8-2.2 3.67 3.5 3.67 3.5z" fill="none" stroke="#1d1d1b" stroke-miterlimit="10" stroke-width=".49"/><path d="m100.92 203.84s.76-3.83 1.6-2.7c.83 1.14-1.6 2.7-1.6 2.7" fill="#ee9fb4"/><path d="m100.92 203.84s.76-3.83 1.6-2.7c.83 1.14-1.6 2.7-1.6 2.7z" fill="none" stroke="#1d1d1b" stroke-miterlimit="10" stroke-width=".49"/><path d="m101 203.77s.61 2.94 1.82 3.1m-5.15.89s2.76-2.53 3.04-3.8" style="fill:none;stroke:#1d1d1b;stroke-width:.49;stroke-linecap:round;stroke-linejoin:round;stroke-miterlimit:10"/><path d="m102.52 234.92.48 2.16" fill="#6f6f6e"/><path d="m102.52 234.92.48 2.16" style="fill:none;stroke:#1d1d1b;stroke-width:.49;stroke-linecap:round;stroke-linejoin:round;stroke-miterlimit:10"/><path d="m106.36 235.26-.47 2.14" fill="#6f6f6e"/><path d="m106.36 235.26-.47 2.14" style="fill:none;stroke:#1d1d1b;stroke-width:.49;stroke-linecap:round;stroke-linejoin:round;stroke-miterlimit:10"/><path d="m104.31 235.03-.12 2.26" fill="#6f6f6e"/><path d="m104.31 235.03-.12 2.26" style="fill:none;stroke:#1d1d1b;stroke-width:.49;stroke-linecap:round;stroke-linejoin:round;stroke-miterlimit:10"/><path d="m71.68 176.92-2.85 2.05" fill="#6f6f6e"/><path d="m71.68 176.92-2.85 2.05" style="fill:none;stroke:#1d1d1b;stroke-width:.49;stroke-linecap:round;stroke-linejoin:round;stroke-miterlimit:10"/><path d="m72.44 180.6-3.12 1.1" fill="#6f6f6e"/><path d="m72.44 180.6-3.12 1.1" style="fill:none;stroke:#1d1d1b;stroke-width:.49;stroke-linecap:round;stroke-linejoin:round;stroke-miterlimit:10"/><path d="m72.03 178.95-3.12 1.56" fill="#6f6f6e"/><path d="m72.03 178.95-3.12 1.56" style="fill:none;stroke:#1d1d1b;stroke-width:.49;stroke-linecap:round;stroke-linejoin:round;stroke-miterlimit:10"/><path d="m128.43 241.77.26 3.19" fill="#6f6f6e"/><path d="m128.43 241.77.26 3.19" style="fill:none;stroke:#1d1d1b;stroke-width:.49;stroke-linecap:round;stroke-linejoin:round;stroke-miterlimit:10"/><path d="m131.9 242.93-.77 2.32" fill="#6f6f6e"/><path d="m131.9 242.93-.77 2.32" style="fill:none;stroke:#1d1d1b;stroke-width:.49;stroke-linecap:round;stroke-linejoin:round;stroke-miterlimit:10"/><path d="m130.3 242.44-.35 2.58" fill="#6f6f6e"/><path d="m130.3 242.44-.35 2.58m-32.9-66.68s32.76-12.68 50.01-3.53" style="fill:none;stroke:#1d1d1b;stroke-width:.49;stroke-linecap:round;stroke-linejoin:round;stroke-miterlimit:10"/><path d="m111.07 224.06c-.33.43 3.47 3.63 5.45 2.67s1.62-1.48 1.62-1.48-3.72-5.6-7.07-1.2" fill="#aed092"/><path d="m111.07 224.06c-.33.43 3.47 3.63 5.45 2.67s1.62-1.48 1.62-1.48-3.72-5.6-7.07-1.2z" fill="none" stroke="#1d1d1b" stroke-miterlimit="10" stroke-width=".49"/><path d="m102.83 184.4s4.27 2.48 6.75-.07m28.93-2.1s1.41.81 3.08 1.03m27.56-15.32c9.51-3.46 32.01-12.28 30-20.14-1.59-6.25-23.13-2.28-30.94.35" style="fill:none;stroke:#1d1d1b;stroke-width:.49;stroke-linecap:round;stroke-linejoin:round;stroke-miterlimit:10"/><path d="m100.25 227.6s3.6 2.97 6.09.22" fill="none" stroke="#1d1d1b" stroke-miterlimit="10" stroke-width=".49"/><path d="m104.6 124.37c.05-.09-.31-1.12-.33-1.24-.2-1-.36-2.02-.43-3.04-.08-1.37-.02-3.08.92-4.17 1.13-1.33 3.07-1.17 4.5-.47.7.36 1.4.8 1.98 1.35.13.13 1.03 1.34 1.06 1.33 0 0 19.53-6.15 33.37 1 0 0 7.43-4.87 7.74 1.35 0 0-.4 3.66-3.7 4.24 0 0 2.92 30.43-18.69 34-21.6 3.58-33.11-3.57-31.87-18.96 0 0-.15-7.3 5.44-15.4" fill="#6f6f6e"/><path d="m105.17 123.84c-.84-.64-1.35-2.2-1.68-3.16a3.39 3.39 0 0 1 2.49-4.5c2.06-.44 3.86 1.54 5.34 2.68 0 0 21.7-4.1 33.7 1.76 0 0 3.53-4.4 6.16-2.35 2.64 2.05.59 6.16-1.46 6.45 0 0 .9 35.44-30.78 34 0 0-32.53-6.37-13.72-34.2" style="fill:none;stroke:#1d1d1b;stroke-width:.49;stroke-linecap:round;stroke-linejoin:round;stroke-miterlimit:10"/><path d="m119.34 148.74s5.53-1.33 6.42.67c.88 1.99-3.77 4.42-5.32 3.54-1.55-.89-1.1-4.2-1.1-4.2" fill="#1d1d1b"/><path d="m115.78 130.85-1.23.32c-.07 1.32 2.79 1.24 2.79 1.24m17.22-2.05s-2.66.07-2.3.37c.38.3 1.26.74 1.26.74" style="fill:none;stroke:#1d1d1b;stroke-width:.49;stroke-linecap:round;stroke-linejoin:round;stroke-miterlimit:10"/><path d="m119.98 155.3s.71-2.12 1.76-.36c.73 1.22.9-.33.9-.33" fill="#ee9fb4"/><path d="m119.98 155.3s.71-2.12 1.76-.36c.73 1.22.9-.33.9-.33" style="fill:none;stroke:#1d1d1b;stroke-width:.49;stroke-linecap:round;stroke-linejoin:round;stroke-miterlimit:10"/><path d="m144.61 113.6c-1.96-1.59-8.78.1-8.78.1l-.06.13a4.07 4.07 0 0 0 -1.24-.51l-1.84-.4a4.06 4.06 0 0 0 -1.73 0c-.07-.08-5.08-5.27-7.82-4.04-5.85 2.64-4.89 11.24-2.93 12.82s7.77-2.14 7.77-2.14l-.37-.24c.56.98 2.08 1.88 3.27 2.14l1.9.25c.5.11 1.22-.35 1.7-.42 2.5 1.88 7.41 5.54 8.93 3.86 2.03-2.24 3.16-9.98 1.2-11.56" fill="#f5cecf"/><path d="m143.73 113.78c-.1-.08-.2-.17-.31-.24-1.2-.81-2.68-.74-4.05-.6-1.26.13-2.56.22-3.78.6-.67.2-.66.15-1.38-.14a6.8 6.8 0 0 0 -2.13-.43c-.3-.01-1.58.17-1.8-.06-.08-.08-5.64-5.83-7.65-3.6-2.03 2.25-5.06 10.8-3.1 12.38s7.76-2.14 7.76-2.14l.26-.57c-.29.65 1.67 1.87 2.1 2.12.8.46 1.7.67 2.63.62.45-.03 2.06-.71 2.4-.45 2.5 1.88 6.53 5.55 8.04 3.87.65-.71 1.07-2.04 1.4-2.93.44-1.18.74-2.42.84-3.68.13-1.58.02-3.62-1.23-4.75z" style="fill:none;stroke:#1d1d1b;stroke-width:.49;stroke-linecap:round;stroke-linejoin:round;stroke-miterlimit:10"/><path d="m135.58 115.7s-.3 4.85-1.93 5.6m-3.59-8.41s-2.07 1.61-2.09 3.29m7.81 1.12s6.2-1.37 6.1-.54c-.11.84-4.54 1.08-4.69 1.05m-9.03-2.77s-1.8-2.7-2.86-2.54c-1.05.17 1.07 1.18 1.07 1.18m.54 2.54s-2.68 1.01-3 1.06" fill="none" stroke="#1d1d1b" stroke-linecap="round" stroke-miterlimit="10" stroke-width=".49"/><path d="m473.22 225.03.93 1.64s42.67-1.11 48.48-1.22l-1-2.3s-45.1 1.88-48.41 1.88zm.88 13.24v1.85s40.7 1.24 46.5 1.5l2.24-1.82s-45.44-1.32-48.75-1.53z" style="fill:none;stroke:#000;stroke-width:.49;stroke-linecap:round;stroke-linejoin:round;stroke-miterlimit:10"/><path d="m320.2 82.52s15.44.8 19.02-1.06l-.8 2.03s-15.17 2.08-17.92.84z"/><path d="m512.4 221.07 9.22 2.08" style="fill:none;stroke:#000;stroke-width:.49;stroke-linecap:round;stroke-linejoin:round;stroke-miterlimit:10"/></svg>