<svg viewBox="0 0 567 269" xmlns="http://www.w3.org/2000/svg"><path d="m353.19 212.28a14 14 0 0 1 -2.33-7c-.55-11.13-4.81-22.15-5.51-33.31-.92-14.57-2.62-29 6.15-41.4 8.38-11.89 22-18.93 36.63-14.56 13.68 4.09 16 24.46 16.81 36.3 1.09 15.59-3.58 30.67-7.16 45.69-2.26 9.46-4.54 20.86-13.51 26.44-5.27 3.27-12.62 1.83-18.11-.36-6.96-2.81-10.41-7.94-12.97-11.8z" fill="#fbb1af"/><path d="m322.72 258.94c-7.11-8.46-16.71-23.13-10-34.06 11.76-19 36-8 53.31-9 14.64-.85 19.47-7.65 26.34-19.26 2.6-4.4 6.13-9.88 10.47-12.34 3.48-2 8.5-1.2 12.07-3.28 4.88-2.85 4.79-8.51 8.28-12.56 7.56-8.77 26.13-7.83 36.7-8.43 23.57-1.34 61.56-7.62 79.13 14.41 17 21.36 9 56.24-15.82 69.6-11.6 6.25-28.74 5.35-41.55 6.75-14.4 1.59-28.4 5.66-42.78 7.65-23.36 3.23-47 3.87-70.65 3.66-15.8-.16-41.8.47-45.5-3.14z" fill="#f7edf5"/><path d="m122.68 232.13c2.94-3.83 5.85-8.21 9.53-11.39-.4.8-.6 1.78-.94 2.64.65-.21 1.95-.21 2.65-.35a15 15 0 0 1 -1.06 2.75 1.25 1.25 0 0 0 .85.06c-2.22 3.79-5.84 9.09-11 8.55a5.72 5.72 0 0 0 -1.77-5.22" fill="#3c3c3b"/><path d="m147.65 213.78c.92-5.87 8.35-10.57 12-14.95-.86 1.35-.75 2.6-1.12 3.91a1.69 1.69 0 0 0 1-.27c.23.68.06 1.43.57 2-2.55 3.73-7.29 7.93-11.71 8.72-.51-1.49.17-2.1.54-2.88" fill="#3c3c3b"/><path d="m152.17 226.16c2.32-.95 5.53-6.8 8.73-8.72a22.27 22.27 0 0 0 -.93 2.31c.8-.14 2-.31 2.82-.4-2 4.29-7.65 9.17-11.75 11.43a6.52 6.52 0 0 1 1.75-6.37" fill="#3c3c3b"/><path d="m171.72 213.6a24.49 24.49 0 0 1 6.7-9.66c.28.21 0 .08 1.56.48.67.63-.48 1.05-.43 1.58l1.62-.37c-2.95 3.5-5.89 8-9.5 11a11.26 11.26 0 0 1 -1.65-1.39 10.12 10.12 0 0 1 2.98-5.14" fill="#3c3c3b"/><path d="m166 240c2.68-2.79 4.65-6.12 7.76-8.53.1.18-.51 1.29-.55 1.54.26-.09 2-.87 2.25-.87-.9 4.34-8.43 10.65-12.95 11.27.95-2.82 3-5 4.73-7.49" fill="#3c3c3b"/><path d="m188.28 215.94c3.76-2.66 6.54-3.83 9.57-7.28.27.24-.51 1.28-.61 1.46.3-.05 2.07-.66 2.23-.64-.18-.08-.55.56-.43 1.28 0 0 1.24-.8 1.14-.84-3.63 4.46-8.09 6.78-12.56 10.17-.43-.38-.82-.88-1.21-1.25a12.59 12.59 0 0 1 1.87-2.9" fill="#3c3c3b"/><path d="m190.12 190.3a44.12 44.12 0 0 0 5.4-5.59 35.89 35.89 0 0 1 4 0c0 .14-.67 2.39-.64 2.33a18.76 18.76 0 0 1 1.93-1c-3.11 3.45-8.65 10.74-13.67 8.23a53.63 53.63 0 0 1 3.58-6.28" fill="#3c3c3b"/><path d="m211.07 211.92a5.93 5.93 0 0 1 -1.59.63 77.42 77.42 0 0 0 7.07-7.41 14.64 14.64 0 0 1 -.63 1.54 14.5 14.5 0 0 1 3.44-1.44c.34.72-.49.79-.5 1.4l1 .28c-3.22 4-6.21 9.12-11.13 11.33a11.06 11.06 0 0 1 -1.8-1.82 24 24 0 0 1 4.74-6.85" fill="#3c3c3b"/><path d="m217.55 186.17c-.38.25-.52 1-.82.47a44.14 44.14 0 0 0 5.87-5 5.23 5.23 0 0 0 -.21 1c1.16-.59 2.84-1 4-1.55a26.57 26.57 0 0 1 -2.18 3.07c.13.16 1 0 .92.18-3.49 2.93-7.55 8.32-12.33 8.11.53-2.3 2.06-4.26 3.56-6.31" fill="#3c3c3b"/><path d="m186.59 234.29c1.12-.33 2.27-1.43 3.3-2a80.24 80.24 0 0 1 7.74-3.78c-.84.69-2.85 2.31-.78 2.7-2 1.7-6.42 6.55-9.37 6.22s-1-3.08-.89-3.14z" fill="#3c3c3b"/><path d="m19 192.41a58 58 0 0 1 8 4.77 167.78 167.78 0 0 0 23.76 13.68c16.93 7.79 35.44 11.2 53.93 7.95 22.31-3.93 43.08-2.45 62.23 11-.76.5-1.43.67-2.2 1.26 5 5.11 12.71 6 18.51 9.79 6.85 4.48 11.81 11.25 19.44 14.22 3 1.17 17.89 5 16.16 10.27-33.3 1.23-66.66-1.07-100-1.34-21.25-.18-42.64-1.25-63.86-2.69-11.28-.77-23.92-1.5-34.61-5.77-4.84-1.93-6.36-3.59-5.53-8.68.91-5.56 1.82-4.27-2.1-8.16s-2.65-5.64-.94-10.78c2.51-7.54 2-9.18-3.33-15-4-4.32-10.39-14.95-3.89-20.18 4.43-3.53 9.69-2.55 14.43-.34z" fill="#ceeaf9"/><path d="m32.42 158.07a36.8 36.8 0 0 0 -7.63 6c-13.22 13.82-19.24 36.47-.14 49.14 8.35 5.54 18.63 4.71 23.24 10.56 6.37 10.36 37.58 3.82 46.48.7 8.13-2.86 19.74-12 4.78-12.83a20.92 20.92 0 0 1 .93-2.53c-.65-.45-1.48.14-1.62-.77 4.31-2.31 10.89-4.54 12.92-8.88a101.24 101.24 0 0 1 -12.68 3.33c1.6-1.7 2.3-4.34 3.77-6.1-.2-.23-1-.31-1.36-.78 7-4.48 15.28-6.78 22.28-11.4-1.82 0-3.19-.85-4.89-1 3.38-2.41 6.81-6 10.48-8.47s10-3.1 12-7.77c-4.12 0-7.9 1.29-11.85 2.43 3.13-1.81 7.39-3.58 7.15-6.91 1.06-1.22 1.67-1.63 2.13-3.29-9.62-5.28-22.86 17.52-31.88 19.93a37.18 37.18 0 0 1 4.74-.79c-2.93 4.1-7 6.5-12.1 4.94 1.76-3.93 5.32-6.56 8.59-9.32-1.73 1.14-4.34 2.33-6.3 3.53 6.09-5.87 18-9 22.87-15.77a1.36 1.36 0 0 0 -1.15 0 6.68 6.68 0 0 0 1.64-4.34c-3.21.25-7.19 1.15-9.4.09-9.24 5.84-20 13.57-31 16.54 1.71-3.21 5.08-5.67 7.16-8.67-2.66 2.33-5.39 4-8.1 3.34 7.06-5.69 23.83-7.64 27.13-17.31 3.13-2.4-7-4-7.92-4.14a124.1 124.1 0 0 0 -27-.57c-19.8 1.39-38.74 7.41-56.3 16.52-3.25 1.69-14.53 7-12.26 12.28 1.91 4.42 5.63.4 5.07 6.92-.76 8.7-1.3 10.71 5.3 17.64 1.52 1.6 4.28 3.5 5 5.5 1.24 3.3-.8 5.53 2.34 8.52 2.87 2.74 6.47 4.73 9.29 7.46 5.6 5.45 17.08 5.35 24.21 4" fill="#565d97"/><path d="m6.75 154.67c.37-1.73 7.84 5.94 10.06 8.43a277.68 277.68 0 0 1 18.89 23.9c7.67 10.85 11.25 26.59 19.92 36.22.62-18.89-9.84-37.86-20.58-52.48-6-8.16-10.8-18.34-18.53-24.72-.42 4.19-3.44 6.98-9.76 8.65z" fill="#fbb1af"/><path d="m38.16 153.56c8.77 11.43 12.06 25.72 20.13 37.13.8-13.15-4.7-27.61-10.42-38.79-.85-1.46-13.28-24.65-17.08-27.48-5.65-4.22-3 12-2.24 13.5 6.07 11.02 7.3 12.62 9.61 15.64z" fill="#fbb1af"/><path d="m309.22 13.62a11 11 0 0 0 -4.56 15.56c4.89 8.4 3.5 22.77 8.61 31.53 6 10.32 23.65 11.89 34.28 15.15 7.19 2.21 22 10.17 29.5 8.76 5.29-1 11-10.16 14.27-13.8a131.89 131.89 0 0 0 14.35-18.94c2.06-3.44 5.39-10.07 4.95-14.19-.3-2.68-.85-3-2.93-4.67-2.38-1.94-6.59-2.84-9.4-4a277.78 277.78 0 0 0 -30.73-10.52c-17.58-4.77-40.37-14-57.82-5.14z" fill="#ceeaf9"/><path d="m474.35 150.88c.85-.85 4.53-2.34 3.76-3.59-.55-.88-3.71.12-4.71.59-2.06 1-.74 1.31-1.78 2.61 1.05.52 2.54.13 3.72-.25" fill="#fbb1af"/><path d="m480.3 140.64a2.06 2.06 0 0 1 .56-.27 15.36 15.36 0 0 0 3.64-1.84c1.16-.93 0-1-1.06-.91.7-.7 0-1-.85-.88a5.39 5.39 0 0 0 -3 1.44c-1.38 1.4-.71 2.82.71 2.46z" fill="#fbb1af"/><path d="m465.08 144.74a10.14 10.14 0 0 0 3.16-1.09c1.09-.7.06-.53-.48-.77.23-.58 1.72-1.37.58-1.65-.78-.2-2.21.39-3 .64a3.25 3.25 0 0 0 -1.75.91c-.28.38-.34.79.35.73-.43.23-.73.51-.55.85.34.67 1.87.28 2.62.13" fill="#fbb1af"/><path d="m471.21 130.32a9.32 9.32 0 0 0 3.78-1.68c1.18-1 .77-1.26-.49-1.34 2.44-2.35-4.36-.18-3.55.37-.48.55-1.48 1-1.38 1.73a1.26 1.26 0 0 0 1.64.92z" fill="#fbb1af"/><path d="m455.91 139a6.85 6.85 0 0 0 3.35-2c.67-.86-.27-.4-.59-.82-.09-.12.14-.4.06-.55s-.45-.32-.8-.33a5.63 5.63 0 0 0 -2.06.61c-1.15.51-1.4.85-1.46 1.72-.07 1.15.59 1.69 1.5 1.37z" fill="#fbb1af"/><path d="m491.37 142.45a6.85 6.85 0 0 0 3.34-2c.67-.86-.27-.41-.58-.82-.09-.12.13-.4.05-.56s-.44-.31-.8-.32a5.82 5.82 0 0 0 -2.05.6c-1.16.52-1.4.86-1.46 1.73-.07 1.11.59 1.65 1.5 1.37z" fill="#fbb1af"/><path d="m485.7 129.22a6.94 6.94 0 0 0 3.34-2c.67-.86-.27-.41-.58-.82-.09-.12.13-.4.05-.56s-.45-.31-.8-.32a5.33 5.33 0 0 0 -2 .6c-1.16.52-1.41.86-1.46 1.73-.13 1.15.54 1.64 1.45 1.37z" fill="#fbb1af"/><path d="m451.39 149.42c1-.39 1.95-.7 2.89-1.18 1.12-.57.89-.73.31-1.24.74-.72.7-1.11-.13-1.44a5.43 5.43 0 0 0 -3.5.36c-.5.18-2.58 1.61-1.59 1.85a.75.75 0 0 0 -.2 1c.51.84 2.28.75 3.33.11" fill="#fbb1af"/><path d="m463.12 153.57c1.16-.34 3.1-1.63.94-1.43 1.13-.82-2-.45-2.31-.32-1.07.4-2.15 1.25-.76 1.56-.86 1.14 2.44.09 2.13.19z" fill="#fbb1af"/><path d="m499.12 132.8c1.16-.34 3.1-1.63.94-1.43 1.13-.81-2-.44-2.31-.32-1.07.4-2.15 1.25-.76 1.56-.86 1.14 2.44.09 2.13.19z" fill="#fbb1af"/><path d="m565.84 28.7a24.63 24.63 0 0 0 -24.9-23.43c-22.78.09-41.15 1.51-68.32-.87-11.93-1.05-19.76-.51-31.72-1.06-4.31-.2-7.64 5.24-7.29 10.09.89 12.19 11.5 15.65 21.3 22.68 7.86 5.65 16.16 10.54 21.93 18.08 4.41 5.75 5.68 12.2 8.51 18.51 9.87 22.08 43.35 14.44 61.36 6.19 5.9-2.7 12.54-1.41 16.87-9.16 1.2-2.13 1.36-7.8 1.62-10.8.62-7.13.79-14.2.8-21.4 0-3.16 0-6.06-.16-8.83z" fill="#565d97"/><path d="m559.13 43.08a13.24 13.24 0 0 0 -12.42-14.86c-11-.73-22.12-1.5-31.79 4.69-9.5 6.1-10.57 18-15 27.33-6.45 13.66-20.75 16.22-33.52 22.16-13.26 6.17-28.06 13.76-35.37 26.88-2.86 5.13-6.85 11.16-2.39 14.33 7.42 5.29 27.29.26 34.93-2 5-1.46 10.4-3 15.63-1.17 6.66 2.34 11.25 9.73 17.67 13.07 9.66 5 21.9 3.22 31.6-.81 7.61-3.16 19.86-8.94 24.55-15.83 9.76-14.32 1.39-37.39 3.06-54.6.51-5.14 2.12-12.36 3.05-19.19z" fill="#ffcd81"/><path d="m217.32 94.26a12.12 12.12 0 0 0 -2.74 19.83c10.24 9.24 15 25.28 31.46 26.08 8.55.41 10.82-2 15.93-7.47 4.8-5.15 12.36-7.4 17.52-12.08a3.92 3.92 0 0 0 .63-5.14c-11.38-16.31-31.64-22.35-50.75-23-5.26-.2-9.08.35-12.05 1.78z" fill="#565d97"/><path d="m266 135.41c-7.27-6.81-27.15-16.66-37.86-12.61-8.15 3.08-5 15.06-.4 20.87 7.3 9.25 17.7 9 22.49 20.4 3 7.12 6.09 12.12 14.66 10.2 6.91-1.56 17.44-8.47 22.45-13.2 7.62-7.18 2.34-9.86-4.42-15.25-7.61-6.03-14.57-11.25-16.92-10.41z" fill="#ceeaf9"/><path d="m388 104c1.86-.34 7.26 1.54 8-1.23.55-2-3.74-4-5.29-4.4-3.19-.84-2.33 1.16-4.93 2 .39 2 2.3 3 3.91 3.79" fill="#3c3c3b"/><path d="m404.54 98.69c.21 0 .46.1.86.22 2 .58 3.64 1.41 5.81 1.29s1.24-1.45.07-2.57c1.54-.28 1.27-1.49.26-2.31a5.91 5.91 0 0 0 -4.72-1.2c-3.01.6-4.1 3.51-2.28 4.57z" fill="#3c3c3b"/><path d="m384.72 87.81a10.38 10.38 0 0 0 4.42 1.89c1.9.17.69-.73.47-1.71.94-.61 3.34-.14 2.59-1.85-.51-1.18-2.63-1.89-3.7-2.41a3.59 3.59 0 0 0 -2.81-.56c-.75.25-1.31.81-.56 1.48-.7-.12-1.34 0-1.58.69-.48 1.4 1.48 2.52 2.39 3.13" fill="#3c3c3b"/><path d="m401.07 81.25a9.75 9.75 0 0 0 5.74 1.7c2.32-.12 2.29-1 1.16-2.57 5.26-.84-4-5.18-3.9-3.45-1.13.3-2.65-.14-3.46 1.09s-.36 2.98.46 3.23z" fill="#3c3c3b"/><path d="m382.81 68.86a7.81 7.81 0 0 0 5.66.75c1.71-.55.24-.91.44-1.9.06-.28.62-.45.74-.78a1.4 1.4 0 0 0 -.39-1.39 5.61 5.61 0 0 0 -2.73-1.39c-1.75-.52-2.41-.28-3.53 1-1.4 1.54-1.41 3.1-.19 3.71z" fill="#3c3c3b"/><path d="m365.7 79.54a38 38 0 0 0 4.3 1.46c1.79.39 1.76-.1 1.82-1.53 1.6-.25 2.05-.9 1.64-2.33-.49-1.67-2.21-2.74-3.84-3.4-.71-.28-4.48-.44-3.81 1a1.71 1.71 0 0 0 -1.48 1.35c-.53 1.84 1.3 3.7 3.1 3.91" fill="#3c3c3b"/><path d="m373.5 96.07c1.55.77 5 1 2.67-1.11 2.1 0-1.37-2.92-1.85-3.1-1.53-.59-3.61-.52-2.65 1.53-2.23.77 2.26 2.87 1.83 2.68z" fill="#3c3c3b"/><g fill="#fff"><path d="m385.48 218.78a4.87 4.87 0 0 1 3.29-.69c.57 1.91-1.72 3.18-3.34 2.68a2 2 0 0 1 .82-2.09"/><path d="m382 259.37a4.8 4.8 0 0 1 3.28-.69c.58 1.9-1.71 3.17-3.33 2.67a2 2 0 0 1 .82-2.09"/><path d="m398.57 218.54c.3-1.88 4.27-1.18 2.24 1.07-1.45 1.63-4.06.24-2.46-1.24"/><path d="m371.94 258.28c.31-1.88 4.27-1.18 2.25 1.08-1.46 1.62-4.07.23-2.47-1.25"/><path d="m400.46 255.8c.31-1.87 4.27-1.18 2.25 1.08-1.46 1.62-4.07.24-2.47-1.24"/><path d="m365 252c.31-1.87 4.27-1.18 2.25 1.08-1.45 1.62-4.06.24-2.47-1.24"/><path d="m379.08 228.41c.3-1.87 4.26-1.18 2.24 1.08-1.45 1.62-4.06.24-2.46-1.24"/><path d="m374.44 221.25c.31-1.88 4.27-1.18 2.25 1.07-1.45 1.63-4.06.24-2.47-1.24"/><path d="m369.2 242.1c-.68 1.78-4.42.3-2-1.5 1.76-1.3 4 .59 2.17 1.71"/><path d="m389.36 226.66c1.42-.4 4.05-.61 2.09 1.83-2.15 2.67-6-.17-1.94-2"/><path d="m376.87 237.66c1.42-.4 4.05-.61 2.09 1.83-2.15 2.67-6-.18-1.94-2"/><path d="m368.49 231.14c1.11-.43 3.36-.85 2.56 1.07-.88 2.12-5.42.5-2.5-1.23"/><path d="m399 228.72c1.1-.89 4.52.26 3 2.26-2 2.68-6.59.23-2.42-2.7"/><path d="m407.9 225.49c1.17-2 4.61.47 2.46 1.75-1.05.62-3.78-.18-2.61-1.54"/><path d="m411.05 236.8c-1.67 2.21-5 1.16-2.85-1.3 1.57-1.76 5 0 3 1.41"/><path d="m387.46 237.3c1.81-2 5-.65 2.62 1.52-1.68 1.55-4.8-.48-2.79-1.65"/><path d="m396.06 241.87a2.27 2.27 0 0 1 2.11-1.06 10.78 10.78 0 0 1 -.46 1.22 5.68 5.68 0 0 1 .93.45c-.37 3.45-6.48 1.67-2.63-1"/><path d="m404.37 245.57c3.09-2.24 3.36 1.75.86 2.91-3.41 1.59-3.73-2.91.15-3.43"/><path d="m387.72 246.9c1.38-1.39 3.6-.05 2.61 1.7-1.36 2.43-5.34.19-2-2.46"/><path d="m392.06 255.48c1.37-1.39 3.58 0 2.6 1.69-1.36 2.42-5.32.19-2-2.45"/><path d="m377.08 248.7a2.41 2.41 0 0 1 2.46-.67c3.22 4.59-6 3.36-1.55.22"/></g><path d="m354.89 264.79c-2.56-.72-4.73-2.44-7-3.76-3.5-2.07-7.25-3.79-10.64-6a66.53 66.53 0 0 1 -16-14.8c-4.63-6.15-7.95-13.25-11.71-19.8a83.26 83.26 0 0 0 -7-10.09c-1.53-1.92-4.18-3.74-5.4-5.56 6.42 3 12.71 7.6 18.35 11.74 7.17 5.26 12.32 12.08 18.3 18.28 9.1 9.46 14.78 20.89 25.19 29.42a9.39 9.39 0 0 1 -4.09.57z" fill="#565d97"/><path d="m360.25 261.71c-5.13-3.13-10.16-9.28-13.67-13.78a84.53 84.53 0 0 1 -12.69-24.12c-3.11-8.77-3.81-18.42-8.05-26.85a84.36 84.36 0 0 0 -10-14.88 17.85 17.85 0 0 1 4.34 4c2.48 2.84 5.41 5.42 7.57 8.43 5.52 7.7 10.45 15.43 13.67 24a189.71 189.71 0 0 0 11.49 25.91c2 3.63 4.26 7.18 6.56 10.7 1.17 1.78 3.23 3.45 4.17 5.22-.84.42-2.03.66-3.39 1.37z" fill="#565d97"/><path d="m364.68 254.76c-11.18-11.73-14.59-26.26-15.52-41a141.23 141.23 0 0 0 -3.33-24.27c-.62-2.58-1.18-5.41-2.73-7.77-.76-1.15-1.94-2.12-2.46-3.35 2.11 1 3 3 4.07 4.74 1.84 3 4.1 5.85 5.85 8.9 4.9 8.55 7.22 17.81 9.46 27 1.94 8 3.44 16 5.24 24 .94 4.13 1.93 8.58 4.35 12.3a3.67 3.67 0 0 1 -4.93-.55z" fill="#565d97"/><g fill="#ffcd81"><path d="m320.75 97.75c-.59-1.45 1.12-4.25 2.51-2.27 1.82 2.61-3.4 5.15-3.05.29"/><path d="m316.4 115.63c-.59-1.45 1.13-4.25 2.51-2.27 1.82 2.61-3.4 5.15-3.05.3"/><path d="m325.61 94c-2.39.39-3.13-5.73.2-4.41 3.92 1.54.05 6-1.28 3.69"/><path d="m347.64 125.8c-2.39.4-3.13-5.72.2-4.41 3.92 1.55.05 6-1.28 3.69"/><path d="m326.87 102.25c-.11.23-.29.46-.4.69-1.82-3.76 3.09-5.94 3.54-1.7.4 3.79-3.62 3.39-4.22.11"/><path d="m325.25 114c-2.3 1.78-2-5.82 1.43-2.71 2.76 2.52-2 6-3.59 1.27"/><path d="m319 107.11c-.18.15-.1.36-.45.37-1.44-2.94 3.35-3.29 3.53-.28.19 3.38-5.56 1.7-3.44-1.89"/><path d="m331 111.83c-.11.24.11.31-.18.48a5.69 5.69 0 0 1 -.61-4.36c.55-1.62 2.4-2.68 3.59-1.13 1.82 2.37-1.68 10-4.56 2.9"/><path d="m332.09 95.23c-2.22.28-1.24 4.57.9 3.81 3.33-1.18-.41-6.61-2.16-3.27"/><path d="m343.78 134.35c-2.22.27-1.24 4.56.9 3.8 3.33-1.17-.42-6.61-2.16-3.26"/><path d="m348.18 147.37c-2.22.27-1.24 4.56.9 3.8 3.33-1.17-.42-6.61-2.16-3.26"/><path d="m331.73 87.68c-2.05 1.16-.3 5.51 1.74 3.12 1.77-2.09-1.63-4.92-3-2.58"/><path d="m337.31 89.84c-2.37.13-1.36 5.61 1.4 4.64 3.08-1.08 0-6.52-2.84-4.28"/><path d="m338.57 98.47c-2.18-2.17-4.42 2.76-1.9 4.15 3 1.69 3.23-4.67.1-4"/><path d="m343.56 99.69c-1.89 1.24.59 5.54 2.91 4.07 3.63-2.31-3.18-8.07-3.63-2.81"/><path d="m340.18 108.37c-1.73-1.84-3 5.21.61 4.6 3.37-.57 1.24-6.17-1.68-4.78"/><path d="m348.26 108.05c-2-.55-.32 4.68 2.29 3.68 2.83-1.08-.07-5.94-2.83-4.4"/><path d="m343.6 114.49c-.52 1.18 2.26 3.63 3.43 2 1.49-2-3.51-4.8-4-1.84"/><path d="m336.41 116.11c-2.6.08-1.07 4.86.9 4.78 2.32-.09 1.72-5.89-1.62-4.24"/><path d="m330.65 116.83c-2.44-2.55-3.28 3.74-.59 3.77s1.39-6.44-1.21-3.59"/><path d="m323.81 119.34c-3.15-2.08-3.22 3.06-.61 3.51 3 .52 2-6.11-1.19-3.87"/><path d="m318.77 124.92c-2.37-1.44-.9 5.23 1.57 4.38 2.8-1-.32-6.07-2.11-4.38"/><path d="m326.87 126.72c-1.86-.88-2 4.36.32 4.67 3.23.42 1.35-4.89-1.76-4.49"/><path d="m341.43 125.92c-1.87-.88-2.05 4.36.32 4.67 3.22.42 1.34-4.89-1.76-4.49"/><path d="m332.27 125.82a1.16 1.16 0 0 0 -1-.7c-1.31 2.21 1.34 7.54 3.45 4.13 1.45-2.35-1.56-6.13-3.75-3.61"/><path d="m335.93 134.67c-2.49-1.74-3.18 2.84-.63 3.77 3.71 1.37 3.05-6.1-.62-4.85"/><path d="m328 135.54c-2.32-.22-1.57 4.33.6 4 2.8-.44.4-5.84-1.86-3.45"/><path d="m350.87 128.69c-2.32-.22-1.57 4.33.6 4 2.8-.44.4-5.84-1.86-3.45"/><path d="m360.17 130.73c-2.32-.22-1.57 4.33.6 4 2.8-.44.4-5.84-1.86-3.45"/><path d="m320 133.88c-2.33-.22-1.58 4.34.59 4 2.8-.44.4-5.84-1.85-3.45"/><path d="m321.29 142.91c-1.3-.73-.92 6.86 2.75 4.14 3.25-2.4-3-6.79-3.11-3.6"/><path d="m325.43 153c-2.37-3.1-2.58 5.21 1.41 3.53 3.6-1.52-1.91-7.44-2.67-3.71"/><path d="m327.59 160.73c-.6-.49-1-.36-1.28.3-.69 1.63 2.46 4.38 4 3.84 4.37-1.54-3.39-8.69-3.62-3.6"/><path d="m332.81 153.17a1.1 1.1 0 0 0 -.72-.51c-.12 2.76 3.63 6.09 4.16 1.87s-4.21-5.37-4-1.18"/><path d="m329.57 145.43c-1.9-1.42-1.95 3.85.68 3.61 3.12-.28.28-5.73-1-3.43"/><path d="m350.73 137.93c-1.9-1.42-2 3.85.68 3.61 3.11-.28.28-5.73-1-3.43"/><path d="m339.83 148.67c-1.87-1.2-1.09 5 1.71 4.42 3.48-.74-.4-9.16-3.33-3.34"/><path d="m341.44 155.87c-3.07-.59-1.91 4.39.72 4.15 3.87-.37-.08-7.38-1.62-4.15"/><path d="m357.35 163c-3.08-.59-1.91 4.4.72 4.15 3.87-.36-.08-7.38-1.62-4.15"/><path d="m356.25 148.77c-3.07-.59-1.91 4.39.72 4.15 3.87-.36-.08-7.38-1.62-4.15"/><path d="m336.41 160.19c-2.4-1-1.22 4.69.68 4.49 2.54-.27.24-6-2.12-3.41"/><path d="m335 166.66c-3.09 1-.1 5 2 4.33 2.32-.75-.82-6-2.58-2.71"/><path d="m342.52 164.69q.21 0 .18-.18c-.87-.28.5 4.57 2.71 2 3.22-3.78-4.41-6.97-2.89-1.82z"/><path d="m351.94 171.94q.19 0 .18-.18c-.88-.28.49 4.57 2.71 2 3.17-3.76-4.42-6.96-2.89-1.82z"/><path d="m344 171.16c-.38-.12-.57-.26-.89.08 0 1.25 1.69 3.6 3 2.2 1.08-1.18-.89-4.52-2.43-4.15a1.27 1.27 0 0 0 -.18 1"/><path d="m361.21 156.51c-1.63-2.1-2.15 5.2 1 4 2.46-1 .43-7.13-2.05-4.15"/><path d="m351.66 156.51c-1.63-2.1-2.16 5.2 1 4 2.47-1 .43-7.13-2-4.15"/><path d="m359.8 139c-2.43-1.25-2.46 5.69.94 4.18 3-1.34.14-6.94-2.2-4"/><path d="m357.29 124.88a1.56 1.56 0 0 0 -.64-1.19c-.29 1.31 1.13 5.85 2.72 2.88.66-1.25-.75-4.92-2.62-3"/><path d="m353.5 118.09a1.13 1.13 0 0 0 -1.45-.57c0 2.56 3.34 3.93 3.26.38-.07-3-3.34-3.16-2.89-.71"/><path d="m362.15 148.35c-1-1.68-2.44 3.51.43 3.65 2.41.11.69-6.19-2.23-3.83"/><path d="m340.67 140.86c-1-1.68-2.43 3.51.44 3.65 2.41.11.68-6.19-2.24-3.83"/></g><path d="m468.48 248.87c-1.4-9.21-8.88-16-18-19.84-7.31-3.11-21-3.37-25.14-10.57-4.73-8.3 1.6-16.73 8.38-22 8.05-6.2 15.64-11.72 23-18.55 13.17-12.24 33.47-10.08 50.71-6.9 14.32 2.64 21.5 8.23 32.53 17 7.47 5.91 14 9.66 18 17.95 4.24 8.67 4.45 17.56 1.39 26.68-8.73 26-51.27 33.54-77.22 28.36-6.65-1.32-15.07-6.58-13.65-12.13z" fill="#ceeaf9"/><path d="m475.11 236.24c-10.6-9.43-19.88-22.8-23-36.87 7.67 12.57 20.41 21.92 34.16 29.2 10.51 5.57 18.24 2.44 28.16-3.37-1.49-4.67-7.83-7-11.36-10.32-4.63-4.38-6.63-9.68-8.29-15.37-3.47-11.87-10-23.67-13-35.32 12.62 9.87 13.9 22.29 20.48 34.79 2.95 5.62 11.68 19.18 19.12 20.85-9.82-16.61-5-37.89-4.07-55.68 7 6.91 8 20.82 10.27 29.69 2.2 8.45 9.18 21.93 3 30-10.41 13.78-49.3 20.05-63.16 8" fill="#fff"/><path d="m184.6 254.08c18.38-2 34.35-21.85 48.63-32.08 12.19-8.75 26.81-8.82 40.31-2.9 13.13 5.76 26 31.57 8 39.19-10.62 4.52-22.76 4.36-33.29 1.63-15.47-4-30.61 4-46.08 3.8-3.91-.06-12.71.08-15.14-4-4.16-6.95 8.11-10.27 12-11.7" fill="#fbb1af"/><path d="m264.45 227.11c.13.9-7.33 2.06-8.57 2.23a27.23 27.23 0 0 1 -13.34-1.62c-1.31-.5-3.23-1.3-3.38-2.93-.1-1.21.94-1.83.29-3.15s-2.33-1.94-2.52-3.74c-.12-1.21.52-2.22.12-3.45-.59-1.88-2.17-3.63-.47-5.5 1.08-1.21 3-1.59 4.46-2.27a49.33 49.33 0 0 1 18.84-4.82c2-.09 5.32-.7 7.12.17.76.36.68.89 1.25 1.15 2.08.92 6.9-.91 7.12 2.83.09 1.43-.95 1.94-1.38 3.11-.64 1.7.21.41.57 1.5.4 1.25-1.3 2.5-2.21 3.31-1.73 1.53-2 1.5-1.3 3.34 2 5.56-4.62 9.62-9.14 10.8" fill="#ffcd81"/><path d="m164.73 28.41c14.22 0 30-2.82 43.7 1.78 8.43 2.84 12.94 10.15 22.31 12 5.5 1.1 21.7.75 23.07 8.19 1 5.58-8.09 9.8-12.18 11-10.71 3.29-24.11 2.62-35.23 2.62-8.35 0-19.85.67-27-4.33-10.14-7.19-10.35-17.03-14.67-31.26z" fill="#fbb1af"/><path d="m148.76 25.93c-26.4 7.46-55.14 21.91-79.76 23.43-25 1.54-35.39-16.36-58.24-3.91-14.77 8-11.32 43.49.66 57.2 10.53 12 36.34 8.56 50.61 4.87 23.66-6.13 34.64-34.45 59.37-40 14-3.14 28.71-2.23 43.31-1.24" fill="#fbb1af"/><path d="m35.17 35.61c20.12 5.16 50 38.1 61.38 51.06 9 10.19 28.91 8.11 41.45 9.44 8.49.89 26.66 6.54 34.74 3.34 5.68-2.25 10.09-13.71 12.9-18.47a149 149 0 0 0 11.86-24.2c1.56-4.28 3.83-12.38 2.43-16.86-.91-2.93-1.58-3.13-4.27-4.57-3.07-1.65-8-1.73-11.32-2.38-12.11-2.31-15.85-10.56-28.15-11.45-20.61-1.52-55.66-7.52-84.25-7.93-6.61-.09-50.38 2.78-36.77 22.02z" fill="#f7edf5"/><path d="m35.62 54.09c2.94 3.45 8.53 5.77 12.38 8.61a95.65 95.65 0 0 1 15.33 14.3c5.26 6 9.4 11.63 11.73 19.23 3.77 12.25 9.67 19.18 21 24.89 5.69 2.86 18.18 7.33 20.3 13.66-5.88 7.27-20.74 1.45-27.89-.5-10.71-2.93-23.24 4-33.46-.65-9.39-4.27-8.82-18.74-11.74-27.46a34.56 34.56 0 0 0 -14.33-18.46c-2.19-1.43-5.56-2.44-6.72-4.69-1.43-2.79-.11-10.88 0-14.08.25-6 .1-16.47 6.43-19.58 1.26 1.19 2.83 2.27 6.97 4.73z" fill="#ffcd81"/><path d="m130.28 82.39c.22.92 2.63 3 4.8 3.11-.16-2.51-2.5-4-4.77-5.07-.9.87-.18 1.08 0 2" fill="#fad1d2"/><path d="m135.5 109.42c.22.92 2.63 2.94 4.8 3.1-.16-2.51-2.5-4-4.77-5.07-.9.87-.19 1.09 0 2" fill="#fad1d2"/><path d="m142.48 98.24c.22.92 2.63 3 4.8 3.11-.16-2.51-2.5-4-4.77-5.07-.9.87-.18 1.08 0 2" fill="#fad1d2"/><path d="m159.85 98.8c.22.92 2.63 3 4.8 3.11-.16-2.51-2.5-4-4.77-5.08-.9.88-.19 1.09 0 2" fill="#fad1d2"/><path d="m165.06 119.76c.22.91 2.63 2.94 4.8 3.1-.16-2.51-2.49-4-4.77-5.07-.89.87-.18 1.08 0 2" fill="#fad1d2"/><path d="m143.37 85.92c-.16.1-.23-.13-.3.13.91.86 2.38 2.8 3.76 2.69-.11-.23-.12-.77-.23-1 .26.15.6.08.81.16a6.41 6.41 0 0 0 0-.9c-.62-.72-4.5-3.33-4.28-.67" fill="#fad1d2"/><path d="m149.09 120.74c-.17.08-.22-.15-.31.1.8 1 2 3 3.42 3.1-.09-.24 0-.78-.11-1 .24.17.58.15.79.24a7.12 7.12 0 0 0 .06-.89c-.54-.79-4.08-3.83-4.18-1.16" fill="#fad1d2"/><path d="m169.08 110.53c-.17.11-.23-.12-.3.14.91.86 2.38 2.79 3.76 2.69-.12-.23-.12-.78-.23-1 .26.14.6.08.81.16a5.14 5.14 0 0 0 -.05-.9c-.61-.72-4.49-3.33-4.27-.67" fill="#fad1d2"/><path d="m159.29 85.92c-.16.1-.23-.13-.3.13.91.86 2.38 2.8 3.77 2.69-.12-.23-.13-.77-.24-1 .27.15.6.08.82.16a8.27 8.27 0 0 0 -.05-.9c-.62-.72-4.49-3.33-4.28-.67" fill="#fad1d2"/><path d="m131.22 97.37c-.19.16-2.25-2.29-2.37-2.92.3.11.73 0 1 0-.11-.27-.05-.69-.23-1a5 5 0 0 1 3.72 2.77c-1.21-.2-.56 1-1 1.67a1.44 1.44 0 0 1 -1.51-1" fill="#fad1d2"/><path d="m156.51 111.46c-.19.15-2.24-2.29-2.36-2.92.3.11.72 0 .95 0-.11-.27 0-.7-.23-1a5 5 0 0 1 3.72 2.77c-1.2-.2-.55 1-1 1.67a1.43 1.43 0 0 1 -1.52-.95" fill="#fad1d2"/><path d="m122.14 8.58c5.15-1.08 11.5 5.67 14.07 9.33a174.46 174.46 0 0 1 11.09 19c-2.55-2-4.76-4.14-7.73-5.6-6.23-3.07-13.29-5.13-19-9.06-3.36-2.25-11.57-7.25-11.57-11.79 0-6.96 13-2.39 13.14-1.88z" fill="#fff"/><path d="m100.11 12.54c2 1.12 5 5.52 6.43 7.79 3.59 5.57 4.62 11.63 5.79 18 1 5.67-.46 10.59-.61 16.25-.12 4.25.94 8.49.93 12.64-2.92-1.48-5.52-6-7-8.83a151.63 151.63 0 0 1 -9.09-22.44 55.94 55.94 0 0 1 -2.51-19.11c.18-4.36 2.95-9.07 6.06-4.3z" fill="#fff"/><path d="m82.65 11.3c2.45 1.18.09 8-.28 10-.93 5-1.18 10-3 14.83-1.67 4.27-4.66 8.59-7.37 12.16a27.9 27.9 0 0 0 -4.13 6.4c1-6.81-2.71-13.23-2.15-20.07.83-10.8 4.79-20.09 16.93-23.32z" fill="#fff"/></svg>