<?xml version="1.0" encoding="utf-8"?>
<!-- Generator: Adobe Illustrator 24.2.0, SVG Export Plug-In . SVG Version: 6.00 Build 0)  -->
<svg version="1.1" id="Calque_1" xmlns="http://www.w3.org/2000/svg" xmlns:xlink="http://www.w3.org/1999/xlink" x="0px" y="0px"
	 viewBox="0 0 184.3 99.2" style="enable-background:new 0 0 184.3 99.2;" xml:space="preserve">
<style type="text/css">
	.st0{fill-rule:evenodd;clip-rule:evenodd;fill:#A5D6E2;}
	.st1{fill:#FFFFFF;}
	.st2{fill:none;}
	.st3{fill:#A5D6E2;}
</style>
<rect id="fond_1_" x="-0.1" y="-0.2" class="st0" width="184.3" height="99.2"/>
<g>
	<g>
		<path class="st1" d="M39.9,20.7c-0.4,0.5-0.7,0.9-1.1,1.4c-0.1,0.1-0.1,0.2-0.1,0.3c0.4,0.1,0.7,0.2,1.1,0.4
			c0.2,0.1,0.6,0.1,0.8,0.3c0,0.1-0.1,0.1-0.1,0.2c-0.2,0.4-0.4,0.7-0.7,1.1s-0.6,0.9-0.9,1.3c-0.1,0.2-0.3,0.4-0.4,0.6
			c0.1,0,0.2-0.1,0.3-0.2c0.5-0.3,1-0.6,1.4-0.9c0.7-0.4,1.3-0.9,2-1.3c0.3-0.2,0.6-0.4,1-0.7c0.2-0.1,0.5-0.3,0.6-0.5
			s-1.4-1.3-1.4-1.4c0.5-0.3,1-0.7,1.4-1s0.9-0.6,1.3-1c-0.5-0.5-1.1-0.7-1.6-1c-0.3-0.2-0.8-0.6-1.2-0.6
			C42,17.7,40.5,19.8,39.9,20.7"/>
	</g>
	<g>
		<path class="st1" d="M38.6,18.9L38.6,18.9c-0.2-0.1-0.5-0.1-0.7-0.2c-0.4-0.1-0.8-0.2-1-0.4c-0.1-0.1-0.2-0.2-0.1-0.3
			c0.1-0.1,0.2-0.2,0.3-0.1c0.2,0.1,0.6,0.2,0.9,0.3c0.3,0.1,0.6,0.1,0.8,0.2c0.1,0.1,0.2,0.2,0.1,0.3
			C38.8,18.9,38.7,18.9,38.6,18.9z"/>
	</g>
	<g>
		<path class="st1" d="M40.3,17.5c-0.1,0-0.1,0-0.2-0.1c-0.1-0.1-0.2-0.2-0.3-0.3c-0.3-0.3-0.6-0.6-0.9-0.8
			c-0.1-0.1-0.1-0.2-0.1-0.3c0.1-0.1,0.2-0.1,0.4-0.1c0.4,0.2,0.7,0.5,1,0.9c0.1,0.1,0.2,0.2,0.3,0.3c0.1,0.1,0.1,0.3,0,0.4
			C40.4,17.4,40.3,17.5,40.3,17.5z"/>
	</g>
	<g>
		<path class="st1" d="M41.5,16.2c-0.1,0-0.2-0.1-0.2-0.2c-0.1-0.2-0.1-0.4-0.2-0.5c-0.1-0.3-0.2-0.5-0.2-0.7
			c-0.1-0.1,0-0.3,0.1-0.3s0.3,0,0.3,0.1c0.1,0.2,0.2,0.5,0.3,0.8c0.1,0.2,0.1,0.4,0.2,0.5C41.8,16,41.7,16.1,41.5,16.2L41.5,16.2z"
			/>
	</g>
</g>
<g>
	<g>
		<path class="st1" d="M8.9,84.5C8.8,84.5,8.8,84.5,8.9,84.5c-0.2-0.1-0.3-0.2-0.3-0.4c0.1-0.3,0.3-0.5,0.4-0.8
			c0.2-0.2,0.3-0.5,0.4-0.7c0-0.2,0.2-0.3,0.3-0.2c0.2,0,0.3,0.2,0.2,0.3c-0.1,0.3-0.3,0.6-0.4,0.9c-0.1,0.2-0.3,0.4-0.3,0.6
			C9.1,84.4,9,84.5,8.9,84.5z"/>
	</g>
	<g>
		<path class="st1" d="M9.9,86.6L9.9,86.6c-0.1,0-0.3-0.1-0.3-0.2s0-0.3,0.1-0.3V86c0.1-0.2,0.2-0.4,0.3-0.6c0-0.2,0.2-0.2,0.4-0.2
			c0.2,0,0.2,0.2,0.2,0.4c-0.1,0.3-0.2,0.5-0.3,0.7C10.2,86.4,10.1,86.6,9.9,86.6z"/>
	</g>
	<g>
		<path class="st1" d="M11.6,84.9L11.6,84.9c-0.2-0.1-0.3-0.2-0.3-0.4c0.1-0.3,0.2-0.5,0.3-0.7c0.1-0.1,0.1-0.2,0.2-0.4
			c0.1-0.1,0.3-0.1,0.5-0.1c0.1,0.1,0.2,0.2,0.1,0.4c-0.1,0.1-0.1,0.3-0.2,0.4c-0.1,0.2-0.2,0.4-0.3,0.6
			C11.9,84.8,11.7,84.9,11.6,84.9z"/>
	</g>
	<g>
		<path class="st1" d="M12.1,86.7c-0.1,0-0.2,0-0.2-0.1c-0.1-0.1-0.1-0.3,0-0.4l0,0c0,0,0-0.1,0.1-0.1c0-0.1,0.1-0.2,0.1-0.3
			c0.1-0.2,0.2-0.4,0.3-0.6c0.1-0.2,0.2-0.2,0.4-0.2c0.2,0.1,0.2,0.2,0.2,0.4c-0.1,0.2-0.2,0.5-0.3,0.7c0,0.1-0.1,0.2-0.1,0.2
			s0,0,0,0.1C12.3,86.5,12.2,86.6,12.1,86.7L12.1,86.7z"/>
	</g>
	<g>
		<path class="st1" d="M12.6,88.9c-0.1,0-0.1,0-0.2-0.1s-0.1-0.3,0-0.4s0.2-0.4,0.3-0.6c0-0.1,0.1-0.2,0.1-0.3
			c0.1-0.1,0.2-0.2,0.4-0.1c0.1,0.1,0.2,0.2,0.1,0.4c0,0.1-0.1,0.2-0.1,0.3c-0.1,0.3-0.2,0.6-0.4,0.8C12.7,88.9,12.7,88.9,12.6,88.9
			z"/>
	</g>
	<g>
		<path class="st1" d="M14.1,86.6C14.1,86.6,14,86.6,14.1,86.6c-0.2-0.1-0.3-0.2-0.3-0.4c0.1-0.2,0.2-0.4,0.3-0.5
			c0.1-0.1,0.1-0.2,0.2-0.3c0.1-0.1,0.2-0.2,0.4-0.1c0.1,0.1,0.2,0.2,0.1,0.4c-0.1,0.1-0.1,0.2-0.2,0.3c-0.1,0.1-0.2,0.3-0.2,0.4
			C14.3,86.5,14.2,86.6,14.1,86.6z"/>
	</g>
	<g>
		<path class="st1" d="M15,88.3c-0.1,0-0.2,0-0.2-0.1c-0.2-0.2-0.1-0.4,0.3-1.2c0.1-0.1,0.3-0.2,0.4-0.1s0.2,0.2,0.1,0.4
			c-0.3,0.4-0.3,0.6-0.4,0.7C15.2,88.1,15.2,88.2,15,88.3C15.1,88.3,15.1,88.3,15,88.3z"/>
	</g>
	<g>
		<path class="st1" d="M13.7,84.1c-0.1,0-0.1,0-0.1,0c-0.1-0.1-0.2-0.3-0.1-0.4c0.1-0.2,0.2-0.3,0.3-0.5c0.1-0.2,0.3-0.4,0.4-0.6
			c0.1-0.1,0.3-0.2,0.4-0.1s0.2,0.2,0.1,0.4c-0.1,0.2-0.3,0.4-0.4,0.6c-0.1,0.1-0.2,0.3-0.3,0.4C13.9,84.1,13.8,84.1,13.7,84.1z"/>
	</g>
	<g>
		<path class="st1" d="M11.8,82c-0.1,0-0.2,0-0.2-0.1c-0.1-0.1-0.1-0.3,0.1-0.4c0.1-0.1,0.2-0.2,0.3-0.3c0.1-0.2,0.2-0.3,0.4-0.5
			c0.1-0.1,0.3-0.1,0.4,0.1c0.1,0.1,0.1,0.3-0.1,0.4c-0.1,0.1-0.2,0.2-0.3,0.3c-0.1,0.2-0.2,0.3-0.4,0.5C11.9,82,11.9,82,11.8,82z"
			/>
	</g>
	<g>
		<path class="st1" d="M15.8,84.5c-0.1,0-0.1,0-0.2,0c-0.1-0.1-0.2-0.3-0.1-0.4s0.2-0.3,0.3-0.5c0.1-0.1,0.2-0.2,0.4-0.2
			c0.1,0.1,0.2,0.2,0.2,0.4c-0.1,0.2-0.3,0.5-0.3,0.6C16,84.5,15.9,84.5,15.8,84.5z"/>
	</g>
	<g>
		<path class="st1" d="M7.8,87.6c-0.1,0-0.1,0-0.2,0c-0.1-0.1-0.2-0.3-0.1-0.4c0.1-0.1,0.1-0.2,0.2-0.4c0-0.1,0.1-0.2,0.1-0.3
			c0.1-0.1,0.2-0.2,0.4-0.1c0.1,0.1,0.2,0.2,0.1,0.4c0,0.1-0.1,0.2-0.1,0.2c-0.1,0.2-0.1,0.3-0.2,0.5C8,87.5,7.9,87.6,7.8,87.6z"/>
	</g>
	<g>
		<path class="st1" d="M10.3,89.6h-0.1c-0.1-0.1-0.2-0.3-0.1-0.4c0.1-0.1,0.2-0.4,0.2-0.6v-0.1c0.1-0.1,0.2-0.2,0.4-0.2
			c0.1,0.1,0.2,0.2,0.2,0.4v0.1c-0.1,0.2-0.2,0.5-0.3,0.7C10.5,89.5,10.4,89.6,10.3,89.6z"/>
	</g>
	<g>
		<path class="st1" d="M6.5,85.3C6.4,85.3,6.4,85.3,6.5,85.3c-0.2-0.1-0.3-0.2-0.3-0.4c0.1-0.2,0.1-0.3,0.2-0.5
			c0.1-0.1,0.1-0.3,0.2-0.4c0.1-0.1,0.2-0.2,0.4-0.2c0.1,0.1,0.2,0.2,0.2,0.4c-0.1,0.2-0.1,0.3-0.2,0.4c-0.1,0.1-0.1,0.3-0.2,0.4
			C6.7,85.2,6.6,85.3,6.5,85.3z"/>
	</g>
	<g>
		<path class="st1" d="M8.7,81.8c-0.1,0-0.1,0-0.2,0c-0.1-0.1-0.2-0.3-0.1-0.4c0.1-0.2,0.3-0.4,0.4-0.6c0.1-0.1,0.2-0.2,0.3-0.3
			c0.1-0.1,0.3-0.2,0.4-0.1c0.1,0.1,0.2,0.3,0.1,0.4c-0.1,0.1-0.2,0.2-0.3,0.3c-0.1,0.2-0.3,0.3-0.4,0.5C8.9,81.7,8.8,81.8,8.7,81.8
			z"/>
	</g>
</g>
<g>
	<g>
		<path class="st1" d="M169.1,82.4C169.1,82.4,169,82.4,169.1,82.4c-0.2-0.1-0.3-0.2-0.3-0.4c0.1-0.3,0.3-0.5,0.4-0.8
			s0.3-0.5,0.4-0.7c0-0.2,0.2-0.3,0.3-0.2c0.2,0,0.3,0.2,0.2,0.3c-0.1,0.3-0.3,0.6-0.4,0.9c-0.1,0.2-0.3,0.4-0.3,0.6
			C169.3,82.3,169.2,82.4,169.1,82.4z"/>
	</g>
	<g>
		<path class="st1" d="M170.1,84.5L170.1,84.5c-0.1,0-0.3-0.1-0.3-0.2s0-0.3,0.1-0.3v-0.1c0.1-0.2,0.2-0.4,0.3-0.6
			c0-0.2,0.2-0.2,0.4-0.2s0.2,0.2,0.2,0.4c-0.1,0.2-0.2,0.5-0.3,0.7C170.4,84.3,170.3,84.5,170.1,84.5z"/>
	</g>
	<g>
		<path class="st1" d="M171.8,82.8L171.8,82.8c-0.2-0.1-0.3-0.2-0.3-0.4c0.1-0.3,0.2-0.5,0.3-0.7c0.1-0.1,0.1-0.2,0.2-0.3
			c0.1-0.1,0.2-0.2,0.4-0.1c0.1,0.1,0.2,0.2,0.1,0.4c-0.1,0.1-0.1,0.3-0.2,0.4c-0.1,0.2-0.2,0.4-0.3,0.6
			C172.1,82.7,172,82.8,171.8,82.8z"/>
	</g>
	<g>
		<path class="st1" d="M172.3,84.6c-0.1,0-0.2,0-0.2-0.1c-0.1-0.1-0.1-0.3,0-0.4l0,0c0,0,0-0.1,0.1-0.1c0-0.1,0.1-0.2,0.1-0.3
			c0.1-0.2,0.2-0.4,0.3-0.6s0.2-0.2,0.4-0.2c0.2,0.1,0.2,0.2,0.2,0.4c-0.1,0.2-0.2,0.5-0.3,0.7c0,0.1-0.1,0.2-0.1,0.2s0,0,0,0.1
			C172.6,84.4,172.5,84.5,172.3,84.6C172.3,84.5,172.3,84.6,172.3,84.6z"/>
	</g>
	<g>
		<path class="st1" d="M172.8,86.8c-0.1,0-0.1,0-0.2-0.1c-0.1-0.1-0.1-0.3,0-0.4s0.2-0.4,0.3-0.6c0-0.1,0.1-0.2,0.1-0.3
			c0.1-0.1,0.2-0.2,0.4-0.1c0.1,0.1,0.2,0.2,0.1,0.4c0,0.1-0.1,0.2-0.1,0.3c-0.1,0.3-0.2,0.6-0.4,0.8
			C173,86.7,172.9,86.8,172.8,86.8z"/>
	</g>
	<g>
		<path class="st1" d="M174.3,84.5C174.3,84.5,174.2,84.5,174.3,84.5c-0.2-0.1-0.3-0.2-0.3-0.4c0.1-0.2,0.2-0.4,0.3-0.5
			s0.1-0.2,0.2-0.3c0.1-0.1,0.2-0.2,0.4-0.1c0.1,0.1,0.2,0.2,0.1,0.4c-0.1,0.1-0.1,0.2-0.2,0.3c-0.1,0.1-0.2,0.3-0.2,0.4
			C174.5,84.4,174.4,84.5,174.3,84.5z"/>
	</g>
	<g>
		<path class="st1" d="M175.2,86.2c-0.1,0-0.2,0-0.2-0.1c-0.2-0.2-0.1-0.4,0.4-1.2c0.1-0.1,0.3-0.2,0.4-0.1c0.1,0.1,0.2,0.3,0.1,0.4
			c-0.3,0.4-0.3,0.6-0.4,0.7c0,0.1,0,0.2-0.1,0.2C175.4,86.1,175.3,86.2,175.2,86.2z"/>
	</g>
	<g>
		<path class="st1" d="M173.9,82c-0.1,0-0.1,0-0.1,0c-0.1-0.1-0.2-0.3-0.1-0.4c0.1-0.2,0.2-0.3,0.3-0.5s0.3-0.4,0.4-0.6
			c0.1-0.1,0.2-0.2,0.4-0.1c0.1,0.1,0.2,0.2,0.1,0.4c-0.1,0.2-0.3,0.4-0.4,0.6c-0.1,0.1-0.2,0.3-0.3,0.4C174.1,82,174,82,173.9,82z"
			/>
	</g>
	<g>
		<path class="st1" d="M172,79.9c-0.1,0-0.2,0-0.2-0.1c-0.1-0.1-0.1-0.3,0.1-0.4c0.1-0.1,0.2-0.2,0.3-0.3c0.1-0.2,0.2-0.3,0.4-0.5
			c0.1-0.1,0.3-0.1,0.4,0.1c0.1,0.1,0.1,0.3-0.1,0.4c-0.1,0.1-0.2,0.2-0.3,0.3c-0.1,0.2-0.2,0.3-0.4,0.4
			C172.2,79.8,172.1,79.9,172,79.9z"/>
	</g>
	<g>
		<path class="st1" d="M176,82.4c-0.1,0-0.1,0-0.2,0c-0.1-0.1-0.2-0.3-0.1-0.4c0.1-0.1,0.2-0.3,0.3-0.5c0.1-0.1,0.2-0.2,0.4-0.1
			c0.1,0.1,0.2,0.2,0.1,0.4c-0.1,0.2-0.3,0.5-0.3,0.6C176.2,82.3,176.1,82.4,176,82.4z"/>
	</g>
	<g>
		<path class="st1" d="M168,85.5c-0.1,0-0.1,0-0.2,0c-0.1-0.1-0.2-0.3-0.1-0.4c0.1-0.1,0.1-0.2,0.2-0.4c0-0.1,0.1-0.2,0.1-0.3
			c0.1-0.1,0.2-0.2,0.4-0.1c0.1,0.1,0.2,0.2,0.1,0.4c0,0.1-0.1,0.2-0.1,0.2c-0.1,0.2-0.1,0.3-0.2,0.5
			C168.2,85.4,168.1,85.5,168,85.5z"/>
	</g>
	<g>
		<path class="st1" d="M170.5,87.4h-0.1c-0.1-0.1-0.2-0.3-0.1-0.4c0.1-0.2,0.2-0.4,0.2-0.6v-0.1c0.1-0.1,0.2-0.2,0.4-0.2
			c0.1,0.1,0.2,0.2,0.2,0.4c-0.1,0.3-0.2,0.6-0.3,0.8C170.7,87.4,170.6,87.4,170.5,87.4z"/>
	</g>
	<g>
		<path class="st1" d="M166.7,83.1C166.7,83.1,166.6,83.1,166.7,83.1c-0.2-0.1-0.3-0.2-0.3-0.4c0.1-0.2,0.2-0.3,0.2-0.5
			c0.1-0.1,0.1-0.2,0.2-0.4c0.1-0.1,0.2-0.2,0.4-0.2c0.1,0.1,0.2,0.2,0.2,0.4c-0.1,0.2-0.1,0.3-0.2,0.4c-0.1,0.1-0.2,0.3-0.2,0.4
			C166.9,83.1,166.8,83.1,166.7,83.1z"/>
	</g>
	<g>
		<path class="st1" d="M168.9,79.6c-0.1,0-0.1,0-0.2,0c-0.1-0.1-0.2-0.3-0.1-0.4c0.1-0.2,0.3-0.4,0.4-0.6c0.1-0.1,0.2-0.2,0.3-0.3
			c0.1-0.1,0.3-0.2,0.4-0.1c0.1,0.1,0.2,0.3,0.1,0.4c-0.1,0.1-0.2,0.2-0.3,0.3c-0.1,0.2-0.3,0.3-0.4,0.5
			C169.1,79.6,169,79.6,168.9,79.6z"/>
	</g>
</g>
<g>
	<g>
		<path class="st1" d="M120,24.9c-0.1,0-0.2,0-0.2-0.1c-0.1-0.1,0-0.3,0.1-0.3c0.2-0.1,0.6-0.7,0.9-1.1c0.1-0.1,0.2-0.2,0.3-0.1
			c0.1,0.1,0.2,0.2,0.1,0.3c-0.2,0.3-0.7,1.1-1.1,1.3C120.1,24.9,120.1,24.9,120,24.9z"/>
	</g>
	<g>
		<path class="st1" d="M122.9,24.2c-0.1,0-0.1,0-0.2-0.1c-0.1-0.1-0.1-0.3,0-0.4l0.1-0.1c0.2-0.3,0.5-0.5,0.7-0.8
			c0.1-0.1,0.3-0.1,0.4,0s0.1,0.3,0,0.4c-0.2,0.2-0.5,0.5-0.7,0.7l-0.1,0.1C123,24.1,123,24.2,122.9,24.2z"/>
	</g>
	<g>
		<path class="st1" d="M122.6,27c-0.1,0-0.2-0.1-0.2-0.2c0-0.1,0-0.3,0.1-0.3c0.2-0.1,0.4-0.3,0.7-0.5c0.1-0.1,0.3-0.3,0.4-0.4
			c0.1-0.1,0.3-0.1,0.4,0c0.1,0.1,0.1,0.3,0,0.4s-0.2,0.2-0.4,0.3C123.2,26.6,122.9,26.9,122.6,27C122.7,27,122.6,27,122.6,27z"/>
	</g>
	<g>
		<path class="st1" d="M125.2,24.7c-0.1,0-0.2,0-0.2-0.1c-0.1-0.1,0-0.3,0.1-0.3s0.2-0.2,0.3-0.3c0.2-0.2,0.4-0.5,0.6-0.6
			c0.1-0.1,0.3,0,0.3,0.1c0.1,0.1,0,0.3-0.1,0.3c-0.2,0.1-0.4,0.3-0.5,0.5C125.5,24.5,125.4,24.7,125.2,24.7
			C125.3,24.7,125.2,24.7,125.2,24.7z"/>
	</g>
	<g>
		<path class="st1" d="M123,21.3h-0.1c-0.1-0.1-0.2-0.2-0.1-0.3c0.2-0.3,0.5-0.6,0.8-0.8l0.1-0.1c0.1-0.1,0.3-0.1,0.4,0
			c0.1,0.1,0.1,0.3,0,0.4l-0.1,0.1c-0.3,0.2-0.6,0.4-0.7,0.7C123.2,21.3,123.1,21.3,123,21.3z"/>
	</g>
	<g>
		<path class="st1" d="M125.2,21.6c-0.1,0-0.2,0-0.2-0.1c-0.1-0.1-0.1-0.3,0-0.3l0,0c0,0,0-0.1,0.1-0.1c0-0.1,0.1-0.1,0.2-0.1
			c0.2-0.2,0.5-0.4,0.8-0.6c0.1-0.1,0.3,0,0.4,0.1c0.1,0.1,0,0.3-0.1,0.4c-0.3,0.2-0.7,0.5-0.9,0.7c0,0,0,0-0.1,0.1
			C125.3,21.6,125.3,21.6,125.2,21.6z"/>
	</g>
	<g>
		<path class="st1" d="M124.8,27.3L124.8,27.3c-0.2,0-0.3-0.1-0.3-0.3c0-0.1,0.1-0.2,0.3-0.2l0,0c0.1,0,0.3-0.2,0.5-0.4
			s0.4-0.4,0.6-0.5c0.1-0.1,0.3,0,0.3,0.1c0.1,0.1,0,0.3-0.1,0.3c-0.1,0.1-0.3,0.2-0.5,0.4C125.3,27.1,125.1,27.3,124.8,27.3z"/>
	</g>
	<g>
		<path class="st1" d="M127.5,23.2c-0.1,0-0.2,0-0.2-0.1c-0.1-0.1,0-0.3,0.1-0.3c0.3-0.2,0.7-0.4,0.7-0.5c0.1-0.1,0.3-0.1,0.4,0
			c0.1,0.1,0.1,0.3,0,0.4c-0.2,0.2-0.8,0.5-0.9,0.6C127.6,23.2,127.6,23.2,127.5,23.2z"/>
	</g>
</g>
<g>
	<g>
		<path class="st1" d="M51.1,39.3c-0.1,0-0.2,0-0.2-0.1c-0.1-0.1-0.1-0.3,0.1-0.4c0.2-0.1,0.6-0.7,0.8-1.2c0.1-0.1,0.2-0.2,0.3-0.1
			s0.2,0.2,0.1,0.3c-0.2,0.3-0.6,1.1-0.9,1.4C51.2,39.2,51.2,39.3,51.1,39.3z"/>
	</g>
	<g>
		<path class="st1" d="M53.9,38.2L53.9,38.2c-0.2-0.1-0.2-0.2-0.2-0.4l0.1-0.1c0.2-0.3,0.4-0.6,0.6-0.8c0.1-0.1,0.3-0.1,0.4,0
			c0.1,0.1,0.1,0.3,0,0.4c-0.2,0.2-0.4,0.5-0.6,0.8l-0.1,0.1C54,38.2,54,38.2,53.9,38.2z"/>
	</g>
	<g>
		<path class="st1" d="M53.9,41.1c-0.1,0-0.2,0-0.2-0.1c-0.1-0.1,0-0.3,0.1-0.3c0.2-0.1,0.4-0.4,0.6-0.6c0.1-0.1,0.2-0.3,0.4-0.4
			c0.1-0.1,0.3-0.1,0.4,0c0.1,0.1,0.1,0.3,0,0.4c-0.1,0.1-0.2,0.2-0.3,0.4c-0.2,0.3-0.5,0.6-0.7,0.7C54,41.1,53.9,41.1,53.9,41.1z"
			/>
	</g>
	<g>
		<path class="st1" d="M56.2,38.5c-0.1,0-0.2,0-0.2-0.1c-0.1-0.1-0.1-0.3,0.1-0.4c0.1,0,0.2-0.2,0.3-0.4c0.2-0.2,0.4-0.5,0.6-0.7
			c0.1-0.1,0.3-0.1,0.4,0c0.1,0.1,0.1,0.3,0,0.4c-0.1,0.1-0.3,0.4-0.5,0.6c-0.2,0.2-0.3,0.4-0.4,0.5C56.3,38.4,56.3,38.5,56.2,38.5z
			"/>
	</g>
	<g>
		<path class="st1" d="M53.7,35.3L53.7,35.3c-0.2-0.1-0.3-0.2-0.2-0.3c0.2-0.4,0.5-0.7,0.7-0.9l0.1-0.1c0.1-0.1,0.3-0.1,0.4,0
			c0.1,0.1,0.1,0.3,0,0.4l-0.1,0.1c-0.2,0.2-0.5,0.5-0.6,0.8C53.9,35.3,53.8,35.3,53.7,35.3z"/>
	</g>
	<g>
		<path class="st1" d="M55.9,35.4c-0.1,0-0.1,0-0.2-0.1c-0.1-0.1-0.1-0.3,0-0.3l0,0v-0.1c0-0.1,0.1-0.1,0.2-0.1
			c0.2-0.2,0.5-0.5,0.7-0.7c0.1-0.1,0.3-0.1,0.4,0c0.1,0.1,0.1,0.3,0,0.4c-0.3,0.3-0.6,0.5-0.9,0.8c0,0,0,0-0.1,0.1
			C56,35.4,55.9,35.4,55.9,35.4z"/>
	</g>
	<g>
		<path class="st1" d="M56.1,41.1c-0.1,0-0.2-0.1-0.3-0.2c0-0.1,0.1-0.3,0.2-0.3c0.1,0,0.3-0.3,0.4-0.4c0.2-0.2,0.4-0.4,0.6-0.5
			c0.1-0.1,0.3,0,0.3,0.1s0,0.3-0.1,0.3c-0.1,0.1-0.3,0.3-0.5,0.5C56.6,40.8,56.4,41.1,56.1,41.1L56.1,41.1z"/>
	</g>
	<g>
		<path class="st1" d="M58.4,36.8c-0.1,0-0.2,0-0.2-0.1c-0.1-0.1-0.1-0.3,0.1-0.4c0.3-0.2,0.6-0.5,0.7-0.6s0.2-0.1,0.4-0.1
			c0.1,0.1,0.1,0.2,0.1,0.4c-0.1,0.2-0.7,0.6-0.8,0.7C58.5,36.7,58.4,36.8,58.4,36.8z"/>
	</g>
</g>
<g>
	<g>
		<path class="st1" d="M24.6,37.1c-0.4-0.2-1.3-0.5-1.6-0.6c-0.8-0.4-1.4-0.8-1.6-1.7c-0.3-0.9-0.1-1.7,0.3-2.6
			c0-0.1,0.4-0.7,0.3-0.8c-0.1-0.2-1,0.6-1.1,0.6c-0.8,0.4-1.6,0.6-2.5,0.4c-1.1-0.2-1.9-0.7-2.5-1.5c-0.3-0.4-0.7-0.9-1.1-1.3
			c-0.3,0.3-0.2,1.2-0.2,1.6c-0.1,0.9-0.1,1.8-0.7,2.6c-0.8,0.9-1.7,1-2.8,0.7c-0.7-0.2-1.3-0.4-2-0.6c0,0.2,0.4,0.5,0.5,0.6
			c0.8,0.7,1.8,1.1,2.2,2.1c0.4,1-0.2,2-0.8,2.7c-0.4,0.4-0.8,0.8-1.2,1.3c-0.2,0.3-0.6,0.6-0.7,0.9c0.2-0.1,0.5-0.1,0.7-0.1
			c0.5-0.1,0.9-0.2,1.4-0.4c0.7-0.2,1.7-0.7,2.4-0.4c0.8,0.3,1,1.4,1.2,2.1c0.1,0.6,0,1.5,0.3,2.1c0.2-0.1,0.3-0.3,0.4-0.5
			c0.3-0.4,0.5-0.8,0.7-1.2c0.6-1,1.4-1.8,2.6-1.6c0.8,0.1,1.6,0.6,2.2,1.1c0.2,0.2,0.7,0.7,0.9,0.7c-0.7-1.6-1-4,0.8-5
			c0.8-0.5,1.8-0.7,2.7-1C25.5,37.4,25.1,37.2,24.6,37.1 M20.6,38.7c-0.2,0.4-0.4,0.9-0.4,1.3c0,0.2,0,0.5,0,0.6
			c-0.3-0.1-0.6-0.3-0.9-0.4c-0.5-0.2-1.1-0.3-1.7-0.1c-0.4,0.1-0.8,0.3-1.1,0.5c-0.1,0.1-0.4,0.4-0.6,0.2c0-0.6-0.2-1.3-0.7-1.7
			s-1-0.4-1.6-0.5c0.2-0.4,0.3-0.8,0.3-1.3c-0.1-0.6-0.5-0.9-0.8-1.3c0.1,0,0.2,0,0.3-0.1c0.4-0.1,0.7-0.4,1-0.7
			c0.6-0.7,0.7-1.6,0.8-2.4c0.2,0.1,0.3,0.3,0.4,0.5c0.4,0.4,1,0.7,1.6,0.8c0.5,0.1,1,0,1.5-0.2c0.1-0.1,0.5-0.4,0.7-0.3
			c0.1,0.1,0.1,0.4,0,0.5c0,0.6,0.1,1.1,0.4,1.5c0.5,0.7,1.2,1.1,2,1.6C21.2,37.6,20.9,38.2,20.6,38.7"/>
	</g>
	<g>
		<path class="st1" d="M16.6,39c0-0.2-0.2-0.4-0.4-0.6c-0.4-0.3-0.8,0-1.2,0c-0.2-0.1,1-0.6,0.7-1.3c-0.2-0.5-1.1-0.7-0.6-0.8
			s1,0.1,1-0.5c0-0.2-0.4-1.2-0.1-1.2c0.1,0,0.4,0.4,0.5,0.5c0.2,0.2,0.4,0.4,0.7,0.4c0.3,0.1,0.6-0.1,0.8-0.2
			c0.1,0,0.4-0.3,0.5-0.2c0.2,0.1-0.1,0.9,0.1,1.2c0.2,0.4,0.8,0.5,1.1,0.8c0,0.3-0.9,0.2-1,0.6c0,0.3,0.4,1.6-0.2,1
			c-0.3-0.2-0.7-0.8-1.1-0.5c-0.3,0.1-0.3,0.7-0.6,0.9C16.7,39.2,16.6,39.1,16.6,39"/>
	</g>
</g>
<g>
	<g>
		<path class="st1" d="M137.8,9c0.7-1,1.1-2.3,1.7-3.3c0.3-0.4,0.5-0.9,0.8-1.3c0.4,0.7,0.5,1.6,0.6,2.4c0.1,0.7,0.2,1.3,0.3,2
			c0,0.2,0,0.5,0.1,0.6c0.2,0.3,0.8,0.4,1.1,0.5c0.8,0.2,1.7,0.5,2.6,0.6c0.5,0.1,0.8,0.2,0.3,0.6c-1,0.8-2.2,1.2-3.3,1.8
			c-0.2,0.1-0.6,0.2-0.6,0.4c0,0.2,0.2,0.6,0.2,0.8c0.2,0.7,0.4,1.3,0.5,2c0.1,0.3,0.2,0.7,0.2,1c-0.7-0.1-1.5-0.9-1.9-1.4
			c-0.3-0.4-0.7-0.8-1-1.1c-0.1-0.1-0.2-0.2-0.3-0.2c-0.2,0-0.4,0.2-0.6,0.2c-0.6,0.3-1.1,0.7-1.7,0.9c-0.6,0.3-1.2,0.6-1.8,0.8
			c-0.2,0.1-0.6,0.2-0.7,0.1c0-0.3,0.3-0.7,0.5-1c0.3-0.4,0.5-0.9,0.8-1.3c0.2-0.4,0.6-0.8,0.7-1.2c0.1-0.3-0.1-0.4-0.3-0.6
			c-0.5-0.7-1.2-1.4-1.7-2.1c-0.1-0.2-0.8-0.9-0.6-1.2c0.1-0.1,0.3-0.1,0.4-0.1c0.4-0.1,0.7-0.2,1.1-0.1C135.9,8.8,136.9,9,137.8,9"
			/>
	</g>
	<g>
		<path class="st1" d="M132.3,11.5L132.3,11.5c-0.2,0-0.5-0.1-0.7-0.2c-0.1,0-0.2-0.1-0.3-0.1s-0.2-0.1-0.1-0.2
			c0-0.1,0.1-0.2,0.2-0.1c0.1,0,0.2,0.1,0.4,0.1c0.2,0.1,0.4,0.1,0.6,0.1c0.1,0,0.2,0.1,0.2,0.2C132.5,11.4,132.4,11.5,132.3,11.5z"
			/>
	</g>
	<g>
		<path class="st1" d="M134.6,6.7c0,0-0.1,0-0.1-0.1c-0.1-0.1-0.2-0.2-0.3-0.3c-0.1-0.2-0.3-0.4-0.5-0.5c-0.1-0.1-0.1-0.2-0.1-0.3
			c0.1-0.1,0.2-0.1,0.3-0.1c0.2,0.1,0.4,0.4,0.6,0.6c0.1,0.1,0.2,0.2,0.3,0.3s0.1,0.2,0,0.3S134.7,6.7,134.6,6.7z"/>
	</g>
	<g>
		<path class="st1" d="M137.1,4.9c-0.1,0-0.1,0-0.2-0.1c-0.1-0.1-0.1-0.2-0.2-0.4c-0.1-0.1-0.2-0.4-0.2-0.4c-0.1,0-0.1-0.1-0.1-0.2
			c0-0.1,0.1-0.2,0.2-0.2c0.2,0,0.4,0.2,0.5,0.7c0.1,0.1,0.1,0.3,0.1,0.3c0.1,0.1,0,0.2,0,0.3C137.1,4.9,137.1,4.9,137.1,4.9z
			 M136.6,4L136.6,4L136.6,4z"/>
	</g>
	<g>
		<path class="st1" d="M142.5,5.9h-0.1c-0.1-0.1-0.1-0.2,0-0.3c0.1-0.2,0.2-0.3,0.4-0.4c0.1-0.1,0.2-0.2,0.3-0.3s0.2-0.1,0.3,0
			s0.1,0.2,0,0.3s-0.2,0.3-0.4,0.4c-0.1,0.1-0.2,0.2-0.3,0.3C142.6,5.9,142.5,5.9,142.5,5.9z"/>
	</g>
	<g>
		<path class="st1" d="M144.2,8c-0.1,0-0.2,0-0.3-0.2c-0.1-0.1,0-0.2,0.1-0.3c0.1,0,0.2,0,0.2,0c0.1,0,0.3-0.1,0.5-0.1
			c0.1,0,0.2-0.1,0.3-0.1s0.2,0.1,0.2,0.2c0,0.1-0.1,0.2-0.2,0.2c-0.1,0-0.2,0-0.3,0.1C144.5,8,144.3,8,144.2,8z"/>
	</g>
	<g>
		<path class="st1" d="M144.3,16.3L144.3,16.3c-0.2,0-0.3-0.2-0.4-0.3l-0.1-0.1c-0.2-0.2-0.3-0.3-0.5-0.4c-0.1-0.1-0.1-0.2-0.1-0.3
			c0.1-0.1,0.2-0.1,0.3-0.1c0.3,0.1,0.5,0.3,0.6,0.5c0,0,0.1,0.1,0.1,0.2s0.1,0.2,0.1,0.2c0.1,0,0.2,0.1,0.2,0.2
			C144.5,16.2,144.4,16.3,144.3,16.3z"/>
	</g>
	<g>
		<path class="st1" d="M146,14.1c-0.1,0-0.1,0-0.2-0.1c-0.1-0.1-0.7-0.3-0.8-0.3s-0.2-0.1-0.2-0.2s0.1-0.2,0.2-0.2
			c0.2,0,1,0.2,1.2,0.5C146.2,13.9,146.1,14,146,14.1L146,14.1z"/>
	</g>
	<g>
		<path class="st1" d="M131.7,14.7c-0.1,0-0.1,0-0.2,0c-0.1,0-0.2-0.1-0.1-0.2c0-0.1,0.1-0.2,0.2-0.1c0.2,0.1,0.5-0.1,0.8-0.3
			c0.1,0,0.2-0.1,0.2-0.1c0.1,0,0.2,0,0.3,0.1s0,0.2-0.1,0.3c-0.1,0-0.1,0.1-0.2,0.1C132.3,14.5,132,14.7,131.7,14.7z"/>
	</g>
	<g>
		<path class="st1" d="M136.5,18.9C136.4,18.9,136.4,18.8,136.5,18.9c-0.2-0.1-0.2-0.2-0.2-0.3c0.1-0.1,0.1-0.3,0.2-0.4
			c0.1-0.2,0.2-0.4,0.3-0.6c0-0.1,0.1-0.2,0.2-0.1c0.1,0,0.2,0.1,0.1,0.2c-0.1,0.2-0.2,0.5-0.3,0.7c-0.1,0.1-0.2,0.3-0.2,0.4
			C136.6,18.8,136.5,18.9,136.5,18.9z"/>
	</g>
	<g>
		<path class="st1" d="M140.1,18.4C140,18.4,140,18.4,140.1,18.4c-0.1,0-0.2-0.1-0.2-0.2s-0.2-0.5-0.3-0.6c0-0.1-0.1-0.1-0.1-0.2
			s0-0.2,0.1-0.3c0.1,0,0.2,0,0.3,0.1c0,0,0,0.1,0.1,0.2c0.2,0.3,0.3,0.6,0.3,0.8C140.2,18.4,140.1,18.4,140.1,18.4z"/>
	</g>
</g>
<g>
	<g>
		<path class="st1" d="M141.3,30.2c-0.1,0-0.4-0.1-0.5,0l-0.1,0.1c0,0.1-0.1,0.3-0.1,0.4c0,0.1-0.1,0.3-0.1,0.4
			c0,0.1,0.2,0.2,0.3,0.2c0.2,0,0.4,0,0.6,0c0.2-0.1,0.3-0.1,0.4-0.3c0.1-0.2,0.1-0.3,0-0.5C141.8,30.3,141.5,30.2,141.3,30.2"/>
	</g>
	<g>
		<path class="st1" d="M140.9,32.8c-0.1,0-0.4-0.1-0.5,0l-0.1,0.1c0,0.1-0.1,0.3-0.1,0.4c0,0.1-0.1,0.3-0.1,0.4
			c0,0.1,0.2,0.2,0.3,0.2c0.2,0,0.4,0,0.6,0c0.2-0.1,0.3-0.2,0.4-0.3c0.1-0.2,0.1-0.3,0-0.5C141.4,32.9,141.1,32.8,140.9,32.8"/>
	</g>
	<g>
		<path class="st1" d="M145.8,31.9c0-0.1,0-0.2-0.1-0.3c-0.1,0.1-0.2,0.3-0.3,0.4c-0.1,0.2-0.2,0.5-0.4,0.7l0,0
			c0,0.1,0.1,0.1,0.2,0.2c0.1,0,0.6,0.2,0.6,0.1c0.1-0.1,0-0.4,0-0.5C145.9,32.3,145.8,32.1,145.8,31.9"/>
	</g>
	<g>
		<path class="st1" d="M160.8,39.2c0.4-0.4,1.7-0.2,2.2-0.5c-0.5-1-1.8-1.3-2.3-2.2c-0.1-0.2-0.2-0.1-0.2-0.4c0-0.4,0.8-1.1,1-1.3
			c0.5-0.7,1.3-1.4,0.4-1.9c-0.7-0.4-2-0.8-2.8-0.9c0.2-1.3,0.6-2.5,0.7-3.8c-1.3,0.3-2.7,0.9-3.9,0.9c-0.1-1.1-0.6-2.5-0.6-3.4
			c-0.9,0.1-3.3,2.1-3.8,1.5c-0.2-0.2-0.1-0.7-0.1-1c0-0.4-0.2-0.8-0.3-1.3s-0.3-1.1-0.5-1.5c-1.3,0.7-2.2,2.1-3.5,2.8
			c-0.3-1.1-0.6-2.3-1.2-3.3c-1.1,1-1.7,2.4-2.8,3.3c-0.1,0-0.9-0.6-1.1-0.9c-0.5-0.6-1.1-1.2-1.7-1.8c-0.3,0.9-0.4,1.9-0.5,2.9
			c-0.1,0.4-0.1,1.9-0.5,2.2s-1.8-0.3-2.2-0.4c-0.7-0.2-1.5-0.5-2.2-0.6c0.2,0.9,1,1.6,1.5,2.3c0.3,0.4,0.9,0.8,1.1,1.3
			c-1.2,0.3-2.2,1-3.3,1.3c0.9,1,2.8,1.4,4.1,2.1c-0.3,0.8-1.8,1.9-1.7,2.7c0.1,0.7,2.5,0.3,3,0.2c0.8-0.1,1.4-0.5,1.5,0.4
			c0.1,1-0.6,2.2-0.6,3.3c0.7,0.1,1.5-0.1,2.1-0.3s1.2-0.4,1.9-0.5c0.1,0,0.4-0.2,0.5-0.2c0.4,0.1,0.4,1.2,0.4,1.6
			c0.1,0.6-0.1,1.9,0.3,2.4c1.2-0.6,2.4-1.7,3.3-2.8c0.2,0.6,0.4,1.1,0.7,1.6c0.2,0.3,1.1,2,1.5,2c0.3,0,0.9-1,1.1-1.2
			c0.4-0.5,0.8-1.3,1.4-1.7c0.6,0.9,1.5,1.7,2.2,2.4c0.7-1.1,1.4-2.4,2-3.6c0.8,0.6,1.7,1.1,2.7,1.5c0.7,0.3,1,0.2,0.9-0.5
			C161.4,41.1,160.3,39.7,160.8,39.2 M142.6,33.2c0.2,0.8-0.4,1.4-1.1,1.6c-0.6,0.2-1.2,0-1.8-0.1c-0.2,0-0.4-0.1-0.5-0.2
			c0-0.5,0.1-1,0.2-1.5c0.2-0.9,0.3-1.7,0.5-2.6c0.1-0.2,0.1-0.5,0.2-0.7c0,0,0-0.2,0.1-0.2c0.1-0.1,0.2,0,0.3-0.1
			c0.5,0,0.9,0,1.4,0.1s1.1,0.4,1.3,1c0.2,0.5-0.2,1-0.5,1.3c-0.3,0.2-0.6,0.3-0.9,0.5C142.1,32.3,142.4,32.8,142.6,33.2
			 M146.8,36.1c-0.1,0-0.7,0.1-0.8,0s0-0.2,0-0.3c0-0.3,0-0.7,0-1s0-0.5-0.1-0.7c0-0.1-0.1-0.1-0.2-0.1c-0.2-0.1-0.4,0-0.5-0.1
			c-0.1,0-0.2,0-0.3-0.1c-0.1,0-0.2,0-0.2,0.1c-0.1,0.1-0.1,0.2-0.2,0.4c-0.1,0.4-0.3,0.9-0.6,1.2c-0.2,0.2-0.4,0.2-0.6,0.1
			c-0.1,0-0.2,0-0.3-0.1c-0.1,0-0.2-0.2-0.1-0.3c0.1-0.1,0.1-0.2,0.2-0.4c0.4-0.7,0.8-1.4,1.2-2.1c0.4-0.7,1-2.1,1.3-2.5
			c0,0,0.1-0.1,0.2-0.1c0.3,0,0.5,0,0.7,0.1c0.1,0,0.1,0.1,0.2,0.2c0.2,0.6,0.2,1.2,0.2,1.8c0,0.8,0,1.5,0.1,2.3
			c0.1,0.5,0.2,1,0.2,1.4C147,36.1,146.9,36.1,146.8,36.1 M151.6,37.1c0,0.1,0,0.1-0.1,0.2c-0.3-0.1-0.6,0-0.9-0.2
			c-0.1-0.1-0.1-0.3-0.2-0.5c-0.1-0.4-0.2-0.8-0.3-1.3s-0.2-1.1-0.4-1.6c-0.1-0.2-0.1-0.6-0.3-0.7c0,0.5-0.1,0.9-0.1,1.4
			c-0.1,0.4-0.1,0.8-0.2,1.2c0,0.2,0,0.4-0.1,0.6c-0.1,0.2-0.1,0.2-0.3,0.2c-0.1,0-0.7-0.1-0.8-0.1c0.1-0.3,0.1-0.6,0.2-0.9
			c0.2-1,0.4-1.9,0.7-2.9c0.1-0.3,0.2-0.6,0.3-0.8c0-0.1,0.1-0.4,0.2-0.5c0.1-0.1,0.3,0,0.4,0c0.2,0,0.3,0,0.4,0.2
			c0.1,0.3,0.2,0.7,0.3,1.1c0.2,0.7,0.3,1.4,0.5,2.1c0.1,0.4,0.1,0.7,0.3,1.1c0,0.1,0.1,0.2,0.1,0.3c0-0.2,0.1-0.5,0.1-0.7
			c0.1-0.7,0.2-1.3,0.3-2c0-0.3,0.1-0.6,0.2-0.9c0-0.1,0-0.2,0.1-0.3s0.2,0,0.3,0c0.2,0,0.5,0.1,0.7,0.2c0.3,0.1,0.2,0.3,0.1,0.5
			c-0.1,0.6-0.3,1.2-0.5,1.8C152.2,35.2,151.9,36.2,151.6,37.1 M156.6,37c0,0.1,0,0.2-0.1,0.3s-0.6,0.5-1.5,0.4
			c-0.9,0-1.7-0.5-1.9-1.3c-0.3-1,0-2.2,0.8-2.9c0.3-0.3,0.8-0.5,1.2-0.6c0.1,0,1.1-0.1,1.2,0v0.3c0,0.1-0.1,0.4-0.1,0.5
			c-0.3,0-0.7,0-0.9,0.1c-0.6,0.2-0.7,0.4-1,0.9s-0.3,1.3,0.1,1.7c0.4,0.4,0.7,0.6,1.2,0.5c0.1,0,0.2,0,0.3-0.1s0.1-0.3,0.1-0.5
			c0-0.1,0.1-0.4,0-0.5c-0.1,0-0.2,0-0.3,0c-0.2,0-0.4,0-0.5,0c0-0.1,0.1-0.5,0.2-0.6c0.1-0.1,0.4-0.1,0.5-0.1c0.2,0,0.5-0.1,0.6,0
			c0.2,0.1,0.1,0.3,0.1,0.5C156.7,36.1,156.7,36.6,156.6,37 M158,38.8c-0.3-0.2-0.2-0.8,0.1-0.9l0,0l0,0l0,0h0.1
			c0.1,0,0.2,0,0.2,0.1c0.1,0.1,0.1,0.2,0.1,0.4C158.6,38.6,158.3,39,158,38.8 M159.5,33.9c-0.1,0.8-0.4,1.6-0.6,2.4
			c0,0.2,0,0.4-0.1,0.6c0,0,0,0.1-0.1,0.1c-0.1,0.1-0.5,0-0.6,0c0,0,0,0,0-0.1l0,0c0.1-0.3,0-0.6,0.1-0.9c0-0.6,0.1-1.3,0.2-1.9
			c0.1-0.3,0-0.9,0.3-1.1c0.1-0.1,0.6-0.1,0.8,0c0.1,0,0.1,0.1,0.1,0.1C159.6,33.3,159.5,33.6,159.5,33.9"/>
	</g>
</g>
<g>
	<g>
		<path class="st1" d="M162.8,65.5c0.6-0.6,2.3-2,2.5-2c1.5,1.5,4.2,2.8,6.3,1.5c1-0.6,1.5-1.7,1.6-2.8c0-0.3-0.1-1.4-0.3-1.6
			c0.6-0.2,1.1-0.3,1.6-0.7c0.8-0.7,1-1.9,0.7-2.9c-0.3-0.9-1.1-2.1-2-2.4c-0.4-0.1-0.9-0.2-2.1-0.3c0.3-1-0.4-2.4-1.1-3.1
			c-1-1-2.5-1-3.8-0.7c-0.6,0.2-1.3,0.4-1.7,0.9c-0.1,0.1-0.1,0.3-0.2,0.3c-1-0.8-2.2-1.2-3.4-0.3c-0.8,0.6-1.1,1.6-1.1,2.6
			c0,0.2-0.1,1,0.1,1c-0.4,0.2-0.8,0.3-1.1,0.6c-0.7,0.7-0.7,1.8-0.5,2.7c0.3,1,1.2,1.9,2.3,2.3c0.4,0.2,0.9,0,1.2,0
			c-1.1,2.8-2.6,5.2-3.2,8.2C160,67.8,161.5,66.8,162.8,65.5z M171.2,59c0.2-0.1,0.1-1.1-0.2-1.8c-0.4-1.1-1.6-2.1-2.8-1.9l-0.1-0.7
			c1.6-0.3,3.1,1,3.6,2.3c0,0,0.7,2,0,2.6L171.2,59z"/>
	</g>
</g>
<g>
	<g>
		<path class="st1" d="M10.7,14.7c-0.3-0.1-0.3,0.6-0.3,0.8c0,0.5,0.2,0.9,0.5,1.2c0.4,0.5,1.3,0.7,1.5-0.1c0.1-0.6-0.2-1.3-0.7-1.7
			C11.4,14.6,10.9,14.4,10.7,14.7"/>
	</g>
	<g>
		<path class="st1" d="M20.1,11.4c-0.2-0.1-0.4,0.4-0.4,0.5c-0.1,0.4,0,0.7,0.1,1.1c0.2,0.5,0.9,0.8,1.2,0.3
			c0.2-0.4,0.2-1.1-0.1-1.5C20.7,11.5,20.3,11.2,20.1,11.4"/>
	</g>
	<g>
		<path class="st1" d="M29.7,6.3c-0.7-0.2-1.5-0.1-2.3,0c-0.2-0.9-0.5-2-1.4-2.5c-1.7-1-4.1,0-4.9,1.9c0-0.4-0.7-1.1-1-1.5
			c-0.8-0.9-1.9-1.4-3.2-1.3c-1.3,0.1-2.8,0.7-3.8,1.5C11.3,6,11,8.3,10.9,8.5c-1.4-1.1-3.3-1-4.7,0c-1,0.7-1.6,1.9-1.6,3.2
			c0,0.4-0.1,1.1,0.3,1.4c-2.1,0.9-3.9,4-2.8,6.3c0.8,1.6,2.3,2.4,4,2.6c0.4,0,1.3,0.1,2-0.2c0.5,3,5,4.7,7.6,3.8
			c1.7-0.6,3.6-2,4.4-3.6c0.3-0.6,0.7-1.6,0.4-2.3c1.2,0.9,3.2,1.1,4.6,0.7c1.9-0.6,2.4-2.8,2.1-4.6c3.9-0.3,5.1-3.4,4.9-5.9
			C32.1,8.4,31.1,6.7,29.7,6.3 M9.1,19.4c-0.7,1.2-1.8,1.7-3.3,1.8c0.1-0.1-0.2-0.5-0.3-0.6c-0.5-1.1-1-2.2-1.4-3.2
			c-0.1-0.3-0.3-0.7-0.4-1c0-0.1-0.1-0.2-0.1-0.3c0-0.1,0.3-0.3,0.4-0.4c0.5-0.5,1.1-0.9,1.7-1.1c0.6-0.2,1.3-0.2,1.7,0.2
			c0.7,0.7,0.2,1.5,0,2.3c0.5-0.1,1-0.1,1.4,0.2C9.6,17.6,9.5,18.7,9.1,19.4 M13.7,17.9c-0.5,0.9-1.7,1.1-2.6,0.8
			C9.9,18.3,9.2,17.2,9,16c-0.2-1.2-0.2-3.1,1.6-3.4c0,0,0,0-0.1,0h0.1l0,0c0.8,0.1,1.4,0.4,1.9,1C13.5,14.7,14.5,16.5,13.7,17.9
			 M17.7,16.2c-0.6,0.7-1.7,0.7-2.5,0.2c-1-0.6-1.4-1.6-1.4-2.8c0-1.1,0.4-2.8,2.1-2.7c0,0,0,0-0.1,0h0.1l0,0
			c0.7,0.3,1.1,0.6,1.5,1.3C18.1,13.3,18.6,15.1,17.7,16.2 M21.8,14.6c-0.6,0.6-1.6,0.5-2.3,0C18.6,14,18.4,13,18.4,12
			c0.1-1,0.5-2.5,2.1-2.3c0,0,0,0-0.1,0h0.1l0,0c0.6,0.3,1,0.7,1.3,1.3C22.3,12,22.7,13.7,21.8,14.6 M27,10.9c0,0.4,0,0.9-0.1,1.3
			c0,0.1,0,0.4-0.1,0.5c0,0-0.6,0.1-0.7,0.1c0,0,0-0.7,0-0.9c0-0.3,0-0.8-0.1-1.1c-0.1,0.1-0.2,0.5-0.3,0.6c-0.1,0.3-0.3,0.7-0.4,1
			c-0.2,0-0.5,0.2-0.7,0.1c0,0-0.5-0.7-0.7-0.9c-0.1-0.2-0.3-0.4-0.4-0.5c0.1,0.6,0.5,1.4,0.5,2c-0.1,0.1-0.8,0.3-0.9,0.3
			c0-0.3-0.1-0.8-0.2-1.2c-0.2-0.8-0.3-1.6-0.3-2.4c0.4-0.2,0.7-0.4,1.1-0.3c0.3,0,0.5,0.7,0.7,0.9c0.2,0.3,0.4,0.6,0.5,1
			c0.3-0.7,0.4-1.4,0.6-2.1c0.2-0.1,0.6-0.1,0.8-0.1c0.2,0,0.4-0.1,0.5,0.1C27,9.7,27,10.5,27,10.9 M29.6,12.6
			c-0.2,0.1-0.7,0-0.8-0.2c-0.1-0.3,0.3-0.6,0.6-0.5L29.2,12C29.6,11.8,29.9,12.4,29.6,12.6 M30.5,8.2c0,0.2-0.2,0.8-0.2,1
			c-0.1,0.5-0.2,0.9-0.3,1.4c0,0.1-0.1,0.5-0.2,0.6c-0.1,0.1-0.5,0-0.7-0.1c0.1-0.9,0.1-2,0.4-3C29.5,8,29.6,8,29.6,8
			c0.3,0,0.8-0.1,0.9,0.1C30.5,8.2,30.5,8.2,30.5,8.2"/>
	</g>
	<g>
		<path class="st1" d="M15.6,12.8c-0.2-0.1-0.4,0.5-0.4,0.6c-0.1,0.4,0,0.8,0.2,1.1c0.3,0.5,1,0.8,1.3,0.2c0.2-0.5,0.1-1.2-0.3-1.6
			C16.2,12.9,15.9,12.6,15.6,12.8"/>
	</g>
	<g>
		<path class="st1" d="M6.1,15.7c-0.3-0.2-0.6-0.2-0.9,0c-0.1,0.1-0.4,0.2-0.4,0.4c0,0.1,0.1,0.3,0.2,0.4c0.1,0.2,0.2,0.5,0.4,0.7
			c0.1,0.1,0.2,0.2,0.2,0.2c0.2,0.1,0.3-0.2,0.4-0.3C6.3,16.7,6.6,16,6.1,15.7"/>
	</g>
	<g>
		<path class="st1" d="M6.7,18.2c-0.1,0.1-0.4,0.2-0.4,0.4c0,0.1,0.1,0.3,0.2,0.4c0.1,0.2,0.2,0.5,0.4,0.7c0.1,0.1,0.2,0.2,0.2,0.2
			c0.2,0.1,0.3-0.2,0.4-0.3c0.3-0.4,0.6-1,0.1-1.4C7.4,18,7,18,6.7,18.2"/>
	</g>
</g>
<g>
	<g>
		<path class="st1" d="M30.3,64.5c-0.3,0.2-0.8,0.8-1.1,1.1c-0.6,0.5-1.3,1-2.2,1.1c-1,0.1-1.9,0.3-2.8,0.7
			c-0.6,0.3-0.8,0.5-1.2,0.9c-0.2,0.2-0.7,0.8-1.3,1.3c-0.3,0.2-0.7,0.3-1,0.4l0,0c-0.3,0.1-0.5,0.1-0.8,0.1
			c-0.8-0.1-1.5-0.5-1.8-0.6c-0.5-0.1-0.8-0.2-1.4-0.2c-1,0-1.9,0.3-2.8,0.6c-0.8,0.3-1.7,0.1-2.4,0c-0.4-0.1-1.1-0.4-1.4-0.5
			c-0.2,0.7-0.1,1.5,0.1,2.2s0.6,1.7,1.1,2.3c0.3,0.4,0.9,1.1,1.5,1.3c0.7,0.4,1.5,0.8,2.2,0.9c1.1,0.1,2.4-0.2,3.4-0.8
			c0.9-0.5,1.6-1.2,2.4-2c0.1-0.1,0.3-0.3,0.4-0.4c0.2-0.1,0.4-0.2,0.6-0.3c0.1,0,0.3,0,0.4,0c0.2,0,0.4,0.1,0.5,0.1
			c1,0.3,1.9,0.6,3,0.7c1.1,0,2.4-0.2,3.4-0.8c0.5-0.4,1.1-1.1,1.5-1.8c0.4-0.5,0.6-1.4,0.7-1.9c0.2-0.7,0.1-1.8-0.1-2.5
			C31.1,65.8,30.8,65.1,30.3,64.5 M18.4,72.2c0,0.4-0.4,0.8-0.7,1c-0.7,0.6-1.9,1-2.7,0.4c-0.4-0.2-0.7-0.5-0.4-1.1
			c0.2-0.3,0.4-0.5,0.7-0.6c0.6-0.4,1.4-0.5,2.1-0.3C17.7,71.6,18.4,71.8,18.4,72.2 M27.8,70.4c-0.5,0.9-1.7,1.1-2.6,0.9
			c-0.3-0.1-0.9-0.2-1.1-0.5c-0.1-0.4,0.4-0.9,0.6-1.1c0.5-0.4,1.3-0.7,2-0.6c0.3,0,0.6,0.1,0.9,0.3C28.2,69.6,28.1,70,27.8,70.4"/>
	</g>
</g>
<g>
	<path class="st1" d="M43.4,41.9c-0.4,0.1-0.5,1-0.6,1.3c-0.2,0.5-0.4,1-0.7,1.5C42,44.8,42,44.9,41.9,45c-0.7-0.8-1.7-1.5-2.7-1.9
		c-1.4-0.5-2.8-0.3-4.1,0.3c0-0.1,0-0.3,0-0.4c-0.1-0.5-0.1-1.1,0-1.6c0-0.3,0.3-1.2,0-1.5c-0.6-0.6-2.6,3.5-2.8,4
		c-0.6,1.5-1,3-1.3,4.5c-0.1,0.6-0.3,1.3-0.3,1.9v0.1l0,0c0,0.5,0.4,1.2,0.7,1.6c0.1,0.2,0.4,0.3,0.6,0.4l0,0
		c0.2,0.1,0.6,0.4,0.8,0.4c0.4,0.1,0.7,0.2,1.1,0.3c0.3,0.1,0.7,0.3,0.9,0.5s0.7,0.6,1,0.8c0.5,0.2,0.8,0.1,1.3,0
		c0.3-0.1,0.6-0.2,1-0.2c0.3,0,0.6,0,0.9,0.1c0.2,0.1,0.5,0,0.9,0c0.2,0,0.3,0,0.5,0l0,0l0,0c0.7,0,1.3-0.2,1.8-0.7
		c0.7-0.7,1-1.7,1.1-2.6c0.4-1.4,0.7-2.8,0.8-4.3C44.1,46.2,44.2,41.6,43.4,41.9 M34.7,50.8c-1.1,0.2-2-0.5-2.1-1.6
		c0-0.4,0-0.7,0.1-1.1c0-0.1,0-0.3,0.1-0.4c0.2-0.1,0.3,0.2,0.4,0.3c0.5,0.5,1,1.1,1.5,1.6c0.2,0.2,0.7,0.6,0.9,0.7
		C35.3,50.7,35,50.7,34.7,50.8 M38.1,50.9c0.3,0,0.8-0.2,1.1-0.2c0.7-0.2,1.4-0.5,2.1-0.7c0.1,0,0.4-0.2,0.5-0.1
		c0.1,0.1,0,0.3-0.1,0.4c-0.1,0.4-0.2,0.7-0.4,1c-0.6,0.9-1.8,1.1-2.6,0.4C38.5,51.4,38.3,51.3,38.1,50.9"/>
</g>
<g>
	<g>
		<path class="st1" d="M10.6,59.8c0.2-0.6,0.2-1.2,0.3-1.8c0.1-0.2,0.1-0.5,0.2-0.7c0.3,0.3,0.5,0.7,0.6,1.1
			c0.1,0.3,0.3,0.6,0.4,0.9c0,0.1,0.1,0.2,0.1,0.3c0.1,0.1,0.4,0.1,0.6,0.1c0.4,0,0.9,0,1.3-0.1c0.3,0,0.4,0,0.2,0.3
			c-0.3,0.5-0.9,0.9-1.3,1.3c-0.1,0.1-0.2,0.2-0.2,0.3c0,0.1,0.2,0.3,0.2,0.3c0.2,0.3,0.4,0.6,0.5,0.9c0.1,0.1,0.2,0.3,0.2,0.5
			c-0.3,0.1-0.9-0.2-1.1-0.4c-0.2-0.1-0.4-0.3-0.7-0.4c-0.1,0-0.1-0.1-0.2,0c-0.1,0-0.2,0.1-0.2,0.2c-0.2,0.2-0.4,0.5-0.7,0.7
			c-0.2,0.2-0.5,0.5-0.7,0.6C10,64,9.9,64.1,9.8,64.1c0-0.2,0-0.4,0.1-0.5c0.1-0.2,0.1-0.5,0.2-0.7c0-0.2,0.2-0.5,0.2-0.7
			c0-0.1-0.1-0.2-0.2-0.2c-0.4-0.3-0.8-0.5-1.1-0.7c-0.1-0.1-0.5-0.3-0.5-0.5c0,0,0.1-0.1,0.2-0.1c0.2-0.1,0.3-0.2,0.5-0.2
			C9.7,60,10.2,60,10.6,59.8"/>
	</g>
	<g>
		<path class="st1" d="M12.8,58C12.8,58,12.7,58,12.8,58c-0.2,0-0.3-0.2-0.2-0.3c0.3-1,0.6-1.9,1.1-2.7c0.8-1.2,1.7-2.3,2.9-3.3
			c0.3-0.2,0.6-0.4,0.8-0.6c0.3-0.2,0.6-0.4,0.8-0.6c0.1-0.1,0.2-0.1,0.3,0c0.1,0.1,0.1,0.2,0,0.3c-0.3,0.2-0.6,0.4-0.9,0.6
			c-0.3,0.2-0.6,0.4-0.8,0.6c-1.1,0.9-2.1,2-2.8,3.1c-0.5,0.7-0.8,1.6-1.1,2.6C13,57.9,12.9,58,12.8,58z"/>
	</g>
	<g>
		<path class="st1" d="M13.5,58.5C13.5,58.5,13.4,58.5,13.5,58.5c-0.2,0-0.3-0.2-0.2-0.3c0.1-0.2,0.2-0.4,0.3-0.5c0.6-1,1.6-2,3-3.1
			c1.2-1,2.5-1.7,4-2.3c0.2-0.1,0.6-0.3,0.7-0.3c0.1-0.1,0.2,0,0.3,0.1c0.1,0.1,0,0.2-0.1,0.3s-0.7,0.3-0.7,0.3
			c-1.4,0.6-2.7,1.3-3.9,2.3c-1.4,1.1-2.3,2.1-2.9,3c-0.1,0.1-0.2,0.3-0.2,0.4C13.7,58.5,13.6,58.5,13.5,58.5z"/>
	</g>
</g>
<g>
	<g>
		<path class="st1" d="M59.2,6.6c0-0.1,0-0.2,0.1-0.2c0.9-0.7,1.9-1.3,2.9-0.5c0.2,0.2,0.3,0.4,0.5,0.6C62.9,6.8,63,7,63.3,7.1
			c0.4,0.2,0.7,0.1,1.1,0c0.2,0,0.4-0.1,0.7-0.1c1.2,0,1.3,0.6,1.4,1.1C66.6,8.4,66.6,8.7,67,9c0.2,0.1,0.4,0.1,0.7,0.1
			c0.4,0,1,0,1.3,0.6c0.3,0.5-0.1,1.5-0.5,1.8c-0.1,0.1-0.2,0-0.3,0c-0.1-0.1,0-0.2,0-0.3c0.3-0.2,0.5-1,0.4-1.3
			c-0.2-0.3-0.5-0.3-1-0.4c-0.3,0-0.6,0-0.9-0.2C66.2,9,66.1,8.5,66,8.2c-0.1-0.5-0.2-0.8-1-0.7c-0.2,0-0.4,0-0.6,0.1
			c-0.4,0.1-0.9,0.2-1.3-0.1c-0.4-0.2-0.6-0.5-0.8-0.8c-0.1-0.2-0.2-0.4-0.4-0.5c-0.7-0.6-1.6-0.1-2.4,0.5
			C59.4,6.7,59.3,6.7,59.2,6.6L59.2,6.6z"/>
	</g>
	<g>
		<path class="st1" d="M61.2,3.6c0-0.1,0-0.1,0-0.2c0.3-0.5,1.4-0.6,1.8-0.5c0.7,0.2,1,0.7,1.1,1.2c0.1,0.4,0.3,0.7,0.6,0.8
			c0.3,0.2,0.7,0.1,1.1,0c0.6-0.1,1.3-0.3,1.9,0.3c0.4,0.3,0.5,0.8,0.6,1.1c0,0.2,0.1,0.3,0.1,0.5c0.1,0.1,0,0.2-0.1,0.3
			c-0.1,0-0.2,0-0.3-0.1c-0.1-0.2-0.1-0.4-0.2-0.5c-0.1-0.3-0.2-0.7-0.4-1c-0.5-0.4-1-0.3-1.6-0.2c-0.5,0.1-0.9,0.2-1.4,0
			s-0.6-0.7-0.8-1.1c-0.2-0.5-0.3-0.8-0.9-1C62.3,3.1,61.5,3.2,61.2,3.6C61.5,3.8,61.3,3.8,61.2,3.6C61.2,3.7,61.2,3.7,61.2,3.6z"/>
	</g>
	<g>
		<path class="st1" d="M64.1,18.8c1.1-1.5,1.4-3.8,0.7-5.5c-1.2-2.8-5-4.8-7.9-3.4c-0.7,0.3-1.3,0.6-1.9,1.2
			c-0.2,0.1-0.5,0.5-0.5,0.6c-0.2,0.3-0.5,0.6-0.6,0.9c-0.8,1.2-1.2,3.3-0.4,4.9c1,2.2,3.4,4,6.4,3.7C61.5,20.9,63.3,20.1,64.1,18.8
			 M54.8,14.1c-0.1,0-0.2,0-0.3,0c-0.3-0.2-0.2-0.7-0.2-1c0-0.6,0.2-1.2,0.8-1.3c0.2-0.1,0.5,0,0.6,0.1c0,0.1,0.1,0.2,0.1,0.2
			c0.2,0.5,0.1,1.2-0.3,1.6c-0.2,0.2-0.3,0.3-0.5,0.4C54.9,14.1,54.8,14.1,54.8,14.1 M60.5,10.9c0.9,0,0.2,1.3-0.5,0.9
			C59.4,11.4,60.3,10.6,60.5,10.9 M58.6,10.4c0.5,0.1,0.5,0.8,0.4,1.2c-0.2,0.6-0.9,1.3-1.6,1.3c-0.4,0-0.6-0.2-0.7-0.5
			c-0.1-0.4,0.1-0.8,0.3-1.1C57.4,10.8,58.1,10.2,58.6,10.4 M55.8,16.5c-0.1-0.3-0.1-0.9,0.4-0.8c0.4,0.1,0.6,0.4,0.6,0.8
			c0.2,0,0.1,0.5-0.2,0.7C56.2,17.3,55.9,16.7,55.8,16.5 M61.3,14.8c0-0.6,0.3-1.4,0.9-1.8c0.6-0.3,1.3-0.2,1.9,0.2
			c1,0.8,1,2.2,0.5,3.2c-0.2,0-0.3,0.3-0.6,0.5c-0.3,0.2-0.8,0.3-1.2,0.2C61.6,17.2,61.3,15.8,61.3,14.8 M59,20.1
			c-0.6,0.2-1.7-0.4-1.7-1.2c0.2-1.8,4.1-1.1,3,0.6C60.3,19.7,59.2,20.1,59,20.1 M61.8,19.5c-0.1-0.5,0.6-1,1.1-1
			c0.2,0,0.7,0.2,0.4,0.4c-0.1,0.3-0.2,0.7-0.6,0.9C62.3,20,61.9,19.9,61.8,19.5"/>
	</g>
</g>
<g>
	<path class="st1" d="M173.8,14.6c-0.5,0.2-0.9,0.4-1.3,0.7c-0.7,0.4-1.4,0.9-1.8,1.6c-0.2,0.3-0.3,0.7-0.4,1.1
		c-0.4,0.8-1.1,1.5-0.9,2.4c0.1,0.5,0.5,0.8,0.7,1.2c0.5,0.7,0.3,1.4,0.6,2.1s1.2,1.3,1.8,1.5c0.8,0.2,1.7,0.1,2.4-0.4
		c0.2-0.1,0.4-0.2,0.6-0.3c0.3,0,0.5,0.1,0.8,0.1c0.2,0,0.4-0.1,0.6-0.1c0.8-0.3,1.7-0.6,2.1-1.3c0.1-0.3,0.2-0.6,0.4-0.8
		c0.2-0.3,0.5-0.6,0.7-0.9c0.3-0.5,0.3-1.3,0-1.8c-0.1-0.2-0.3-0.3-0.3-0.5c0-0.1,0-0.3,0.1-0.4c0.4-1.3-0.5-2.7-1.6-3.4
		C177,14.2,175.3,14.1,173.8,14.6 M174.4,23.2c0.1,0.2,0,0.5,0,0.7s0,0.3-0.1,0.4c-0.4,0.2-1.7-0.1-1.9-0.5s-0.4-0.9,0.2-1.1
		C173.1,22.6,174.1,22.6,174.4,23.2 M170.7,20.5c-0.1-0.2-0.4-0.9,0-1.3c0.3-0.3,0.9-0.1,1,0.4c0,0.1-0.1,0.2-0.1,0.3
		c0,0.2,0.1,0.4,0,0.6C171.4,20.8,170.7,20.9,170.7,20.5 M176.2,20.3c0,0.4-0.3,0.3-0.6,0.5s-0.4,0.5-0.8,0.5
		c-0.3,0-0.9-0.3-1.1-0.6c-0.1-0.2-0.1-0.4,0.2-0.4c-0.5-0.6,0.2-1.5,1-1.6C175.6,18.7,176.2,19.5,176.2,20.3 M178.2,18.8
		c-0.3,0.4-1-0.2-0.7-0.4l-0.2,0.1C177,17.6,178.6,18.1,178.2,18.8 M173.8,16c0.5,0.6-0.3,0.8-0.6,1.3c-0.2,0.3-0.3,0.4-0.7,0.3
		c-0.2-0.1-0.4-0.2-0.5-0.3c0-0.1,0,0,0.1,0C171,16.6,172.9,15,173.8,16 M177.5,15.8c0.2,0.1,0.9,0.6,0.8,0.8
		c-0.2,0.5-1.4,0.3-1.7,0.1c-0.2-0.2-0.6-0.8-0.1-0.8C176.3,15.3,177.1,15.5,177.5,15.8"/>
</g>
<g>
	<path class="st1" d="M172.9,13.5c0.1,0,0.1-0.1,0.2-0.1c0.2-0.1,0.4-0.1,0.6-0.2c0.1,0,0.3-0.2,0.2-0.3c-0.1-0.2-0.3-0.2-0.5-0.3
		c-0.2-0.1-0.5-0.2-0.7-0.2s-0.5,0.1-0.7,0.2c-0.4,0.1-0.8,0.2-1.2,0.1c-0.2,0-0.4-0.1-0.6-0.3c-0.2-0.3-0.2-0.6-0.3-0.9
		c-0.3-0.7-1.3-0.7-2-0.6s-1.6,0.4-2.2,0c-0.2-0.1-0.4-0.3-0.6-0.4c-1.1-0.8-2.7-0.4-4-0.5c-0.9-0.1-2.6-0.7-2.8-0.4
		c1.3,0,2.3,1.2,3.5,1.5c1.1,0.4,2.5,0.1,3.3,1c0.4,0.4,0.7,1.1,1.3,1.2c0.3,0,0.5-0.2,0.8-0.3c0.3-0.1,0.6-0.2,0.8,0.1
		c0.5,0.6,0.8,1.5,0.5,2.2c-0.3,0.7-1.3,1.2-1.9,0.8c-0.5-0.4-0.6-1.2-1.2-1.6c-0.7-0.5-1.8-0.1-2.3-0.7c-0.1-0.2-0.2-0.4-0.3-0.6
		c-0.2-0.5-0.7-0.9-1.3-1.1c-0.5-0.2-1.7-0.5-1.7-0.2c0.6,0.1,1,0.5,1.4,1c0.3,0.5,0.6,1,1.1,1.4c0.9,0.7,2.2,0.8,2.9,1.7
		c0.2,0.3,0.3,0.7,0.5,1.1c0.4,1.2,1.1,2.3,2.2,3h0.1l0,0l0,0l0,0l0,0l0,0l0,0l0,0l0,0l0,0l0,0l0,0V20c0-0.1,0-0.1,0-0.2
		c0,0,0,0,0-0.1c0,0.1,0,0,0,0l0,0c-0.1-0.3,0-0.7,0.1-1c0.2-0.4,0.5-0.7,0.6-1.2c0.1-0.4,0.1-0.8,0.3-1.1c0.2-0.3,0.5-0.6,0.8-0.8
		c0.2-0.1,0.3-0.2,0.5-0.3c0.1-0.1,0.3-0.2,0.4-0.3l0.1-0.1h0.1c0.3-0.2,0.5-0.3,0.8-0.5s0.6-0.4,0.9-0.5
		C172.6,13.6,172.7,13.5,172.9,13.5"/>
</g>
<g>
	<g>
		<path class="st1" d="M132.2,50.3c-0.1-0.4-0.3-0.8-0.4-1.2c0-0.2-0.1-0.3-0.1-0.5c0.3,0.1,0.5,0.2,0.7,0.4
			c0.2,0.1,0.4,0.2,0.6,0.4c0,0,0.1,0.1,0.2,0.1c0.1,0,0.3-0.1,0.4-0.2c0.2-0.2,0.5-0.3,0.7-0.5c0.1-0.1,0.2-0.1,0.2,0.1
			c0,0.4-0.2,0.8-0.3,1.2c0,0.1-0.1,0.2,0,0.3c0,0.1,0.2,0.1,0.2,0.1c0.2,0.1,0.4,0.2,0.6,0.3c0.1,0.1,0.2,0.1,0.3,0.2
			c-0.2,0.2-0.6,0.2-0.8,0.1c-0.2,0-0.3,0-0.5,0h-0.1c-0.1,0-0.1,0.1-0.1,0.2c-0.1,0.2-0.1,0.4-0.2,0.6c-0.1,0.2-0.1,0.4-0.2,0.6
			c0,0.1-0.1,0.2-0.1,0.2c-0.1-0.1-0.1-0.2-0.1-0.3c0-0.2-0.1-0.3-0.1-0.5c0-0.1-0.1-0.3-0.1-0.5c0-0.1-0.1-0.1-0.2-0.1
			c-0.3,0-0.6,0-0.9-0.1c-0.1,0-0.4,0-0.4-0.1l0.1-0.1c0.1-0.1,0.1-0.2,0.2-0.3C131.7,50.7,132,50.5,132.2,50.3"/>
	</g>
	<g>
		<path class="st1" d="M139.5,53.2c0.3-0.6,0.5-1.2,0.9-1.8c0.1-0.2,0.3-0.5,0.4-0.7c0.2,0.4,0.3,0.8,0.4,1.3
			c0.1,0.4,0.2,0.7,0.2,1.1c0,0.1,0,0.2,0,0.3c0.1,0.1,0.4,0.2,0.6,0.2c0.5,0.1,0.9,0.2,1.4,0.3c0.3,0,0.4,0.1,0.2,0.3
			c-0.5,0.4-1.1,0.7-1.7,1c-0.1,0-0.3,0.1-0.3,0.2c0,0.1,0.1,0.3,0.1,0.4c0.1,0.4,0.2,0.7,0.3,1.1c0,0.2,0.1,0.4,0.1,0.5
			c-0.4,0-0.8-0.5-1.1-0.7c-0.2-0.2-0.4-0.4-0.6-0.6c0,0-0.1-0.1-0.2-0.1c-0.1,0-0.2,0.1-0.3,0.1c-0.3,0.2-0.6,0.4-0.9,0.5
			c-0.3,0.2-0.6,0.3-1,0.5c-0.1,0-0.3,0.1-0.4,0.1c0-0.2,0.2-0.4,0.2-0.5c0.1-0.2,0.3-0.5,0.4-0.7c0.1-0.2,0.3-0.4,0.4-0.7
			c0-0.1-0.1-0.2-0.1-0.3c-0.3-0.4-0.6-0.7-0.9-1.1c-0.1-0.1-0.5-0.5-0.4-0.6l0.2-0.1c0.2-0.1,0.4-0.1,0.6-0.1
			C138.5,53.1,139,53.2,139.5,53.2"/>
	</g>
	<g>
		<path class="st1" d="M127.9,64.2c0.1-0.3,0.1-0.7,0.3-1c0-0.1,0.1-0.3,0.1-0.4c0.2,0.2,0.2,0.4,0.3,0.6s0.1,0.3,0.2,0.5
			c0,0,0,0.1,0.1,0.2s0.2,0.1,0.3,0.1c0.2,0,0.5,0,0.7,0c0.1,0,0.2,0,0.1,0.1c-0.2,0.3-0.5,0.5-0.8,0.7c0,0-0.1,0.1-0.1,0.2
			s0.1,0.2,0.1,0.2c0.1,0.2,0.2,0.3,0.3,0.5c0,0.1,0.1,0.2,0.1,0.3c-0.2,0-0.5-0.2-0.6-0.3c-0.1-0.1-0.2-0.2-0.3-0.2h-0.1
			c-0.1,0-0.1,0.1-0.1,0.1c-0.1,0.1-0.3,0.2-0.4,0.4c-0.1,0.1-0.3,0.2-0.4,0.3c0,0-0.1,0.1-0.2,0.1c0-0.1,0-0.2,0.1-0.3
			c0-0.1,0.1-0.3,0.1-0.4s0.1-0.3,0.1-0.4s-0.1-0.1-0.1-0.1c-0.2-0.2-0.4-0.3-0.6-0.5c-0.1,0-0.3-0.2-0.2-0.3c0,0,0.1,0,0.1-0.1
			c0.1,0,0.2-0.1,0.3-0.1C127.4,64.3,127.7,64.3,127.9,64.2"/>
	</g>
</g>
<g>
	<g>
		<path class="st1" d="M59.3,31.9c0,0,0-0.1,0-0.2c0-0.2,0-0.4-0.1-0.7c0-0.3-0.2-0.6-0.4-0.8c-0.2-0.2-0.4-0.3-0.7-0.4
			c-0.1,0-0.4-0.1-0.4-0.2c0.4-0.1,0.7-0.3,0.9-0.6c0.3-0.5,0.5-1.1,0.6-1.7c0.1,0,0.2,0.2,0.2,0.3c0.1,0.3,0.2,0.7,0.4,1
			c0.2,0.3,0.4,0.5,0.6,0.6s0.3,0.1,0.5,0.2c-0.2,0.2-0.4,0.4-0.5,0.5c-0.3,0.3-0.6,0.5-0.7,0.9c-0.1,0.3-0.1,0.5-0.2,0.8
			c0,0.1-0.1,0.3-0.1,0.4C59.3,32,59.3,31.9,59.3,31.9"/>
	</g>
	<g>
		<path class="st1" d="M62.3,33.3c0-0.3,0-0.8-0.3-1c-0.1-0.1-0.3-0.2-0.5-0.3c-0.1-0.1-0.3-0.1-0.4-0.2c0.1-0.1,0.2-0.1,0.3-0.2
			c0.2-0.1,0.4-0.2,0.5-0.5c0.1-0.2,0.2-0.5,0.2-0.8c0-0.1,0-0.3,0.1-0.4c0.2,0.4,0.2,0.8,0.3,1.1c0.1,0.2,0.3,0.3,0.4,0.3
			s0.4,0.1,0.4,0.1c-0.3,0.3-0.6,0.4-0.8,0.7C62.5,32.7,62.5,33,62.3,33.3L62.3,33.3"/>
	</g>
</g>
<g>
	<g>
		<path class="st1" d="M79.9,72.8c0-0.1,0-0.2,0-0.3c0-0.4,0-0.7-0.1-1.1c-0.1-0.5-0.3-0.9-0.6-1.2c-0.3-0.3-0.7-0.5-1.1-0.6
			c-0.2-0.1-0.6-0.1-0.7-0.3c0.6-0.2,1.2-0.5,1.5-1c0.5-0.8,0.8-1.9,1-2.9c0.2,0.1,0.3,0.4,0.3,0.6c0.2,0.5,0.3,1.1,0.6,1.6
			c0.3,0.4,0.6,0.8,1,1c0.3,0.1,0.6,0.1,0.8,0.3c-0.3,0.3-0.6,0.6-0.9,0.8c-0.5,0.4-0.9,0.8-1.2,1.5c-0.2,0.4-0.2,0.9-0.3,1.3
			c-0.1,0.2-0.1,0.5-0.2,0.6C79.9,72.9,79.9,72.7,79.9,72.8"/>
	</g>
	<g>
		<path class="st1" d="M84.8,75c0-0.6,0-1.3-0.4-1.7c-0.2-0.2-0.5-0.4-0.8-0.5c-0.2-0.1-0.4-0.1-0.6-0.3c0.1-0.1,0.4-0.2,0.5-0.3
			c0.4-0.2,0.6-0.4,0.8-0.8c0.2-0.4,0.3-0.8,0.4-1.2c0-0.2,0.1-0.4,0.2-0.6c0.3,0.6,0.3,1.3,0.6,1.9c0.2,0.3,0.4,0.4,0.7,0.6
			c0.2,0.1,0.6,0.1,0.7,0.2c-0.4,0.4-1,0.7-1.4,1.2c-0.3,0.5-0.4,1-0.5,1.5C84.9,75,84.9,74.9,84.8,75"/>
	</g>
</g>
<g>
	<path class="st1" d="M86,57.6c0.4,0.7,0.7,1.4,1.1,2c0.1,0.1,0.1,0.2,0.2,0.3c0.3-0.4,0.7-0.7,1-1.1c0.2-0.2,0.5-0.6,0.7-0.8
		c0.1,0.1,0.1,0.2,0.2,0.3c0.3,0.5,0.6,0.9,0.9,1.4c0.3,0.6,0.7,1.2,1,1.8c0.1,0.3,0.3,0.5,0.5,0.7c0-0.1,0-0.3,0-0.5
		c-0.1-0.7-0.2-1.5-0.3-2.2c-0.2-1-0.4-2-0.5-3c-0.1-0.5-0.2-1-0.3-1.5c0-0.3-0.1-0.8-0.2-1c-0.2-0.3-2.2,0.9-2.4,1
		c0-0.7-0.3-1.5-0.5-2.2s-0.3-1.4-0.5-2c-0.8,0.3-1.4,0.9-2.1,1.3c-0.4,0.3-1.1,0.6-1.4,1C83.7,53.5,85.4,56.4,86,57.6"/>
</g>
<g>
	<path class="st1" d="M92.5,31.9c-0.1,0-0.1,0-0.2-0.1s-0.1-0.2,0-0.4c0.4-0.5,0.7-1,0.5-1.6c-0.1-0.2-0.2-0.4-0.4-0.5
		c-0.1-0.2-0.3-0.3-0.4-0.5c0-0.1,0-0.1,0-0.2s0.1-0.1,0.1-0.2c0.6-0.3,0.7-0.8,0.8-1.2c0-0.5-0.2-1.1-0.6-1.3
		c-0.3-0.1-0.6-0.1-0.9,0.1c-0.1,0.1-0.2,0.1-0.3,0c-0.1-0.1-0.1-0.2,0-0.3c0.3-0.5,0.1-1.3-0.4-1.7c-0.3-0.2-0.9-0.2-1-0.1
		c0,0.1-0.1,0.2-0.3,0.2c-0.1,0-0.2-0.1-0.2-0.3c0-0.2,0.1-0.3,0.3-0.4c0.4-0.2,1.2-0.1,1.5,0.2c0.5,0.4,0.8,1.1,0.7,1.8
		c0.3-0.1,0.6,0,0.8,0.1c0.5,0.3,0.9,1,0.9,1.7c0,0.6-0.3,1.1-0.8,1.5c0.1,0.1,0.1,0.1,0.2,0.2c0.2,0.2,0.4,0.4,0.5,0.7
		c0.4,0.8-0.1,1.6-0.5,2.1C92.6,31.9,92.6,31.9,92.5,31.9z"/>
</g>
<g>
	<g>
		<path class="st1" d="M50.4,64.3c0.1,0.5,0.3,1,0.5,1.4l0,0c0.2,0.1,0.7-0.2,0.8-0.5c0.1-0.2,0.1-0.4,0-0.6
			C51.5,64.2,50.8,64.2,50.4,64.3"/>
	</g>
	<g>
		<path class="st1" d="M54.5,64.2c-0.3-0.1-0.3,1.6,0.5,1.6c0.5,0,0.5-0.8,0.3-1.1C55.2,64.3,54.9,64.2,54.5,64.2"/>
	</g>
	<g>
		<path class="st1" d="M66.7,67.3C66,66.5,65,65.8,64.2,65c-0.7-0.7-1.4-1.4-2.1-2.1c-0.1-0.1-0.1-0.2,0-0.2c0.5-1,1.2-1.9,1.8-2.8
			c0.4-0.7,1.1-1.4,1.4-2.1c0.1-0.1,0-0.2-0.1-0.3c-0.7-0.3-2.2,0.2-2.7,0.4c-0.9,0.2-1.7,0.4-2.6,0.6c-0.3,0-0.9,0.2-1.3,0.1
			c-0.8-0.4-0.9-2.4-1.1-3.1c-0.2-0.9-0.7-1.7-1.1-2.6c-0.1-0.2-0.3-0.2-0.4,0c-0.3,0.5-0.5,1.2-0.7,1.8c-0.5,1.3-1,2.6-1.5,4
			c-0.4,1.2-0.3,2.2-1.6,1.1c-0.8-0.6-1.5-1.4-2.5-1.8c-0.2-0.1-1-0.4-1.2-0.2c-0.3,0.3,0.2,1.6,0.3,1.8c0.3,1.1,1,2.2,1.1,3.3
			c0,0.1-0.1,0.2-0.2,0.2c-0.7,0.2-1.5-0.2-2.2-0.4c-0.5-0.1-1.6-0.5-2.3-0.4c-0.1,0-0.2,0.2-0.1,0.3c0.6,1,1.7,1.6,2.5,2.3
			c-0.1,0-0.1-0.1-0.2-0.1c-0.9,0.9-1.5,1.2-2,1.5c-0.7,0.5-1.5,1.1-2.4,1.5c-0.2,0.1-0.1,0.4,0.1,0.4c1.1,0,2.2-0.3,3.2-0.4
			c0.9-0.1,1.9-0.1,2.8-0.2c0.1,0,0.3,0.1,0.2,0.3c-0.3,0.8-0.5,1.7-0.7,2.5c-0.2,0.5-0.5,1.3-0.6,1.9c0,0.2,0.2,0.3,0.3,0.2
			c0.7-0.4,1.3-1.3,1.9-1.8c0.4-0.4,1.7-1.7,2.3-1.7c0.6,0.1,0.5,1.1,0.6,1.6c0.3,1.1,0.5,2.5,1.1,3.6c0.1,0.1,0.3,0.1,0.4,0
			c0.1-0.2,0.2-0.5,0.3-0.7c0.3-0.7,0.6-1.4,0.8-2.1c0.2-0.6,0.6-1.3,0.7-2c0.2,0,0.3,0.1,0.4,0.2c0.6,0.4,1.1,0.8,1.6,1.1
			c0.5,0.3,1.1,0.8,1.7,0.9c0.1,0,0.3-0.1,0.3-0.2c0.1-1.2-0.8-2.5-1-3.6c0-0.1,0-0.2,0.1-0.2c0.9-0.3,2.3,0.4,3.2,0.4
			c1,0,1.9-0.1,2.9-0.2c0.2,0,0.5,0,0.8-0.1C66.8,67.6,66.8,67.5,66.7,67.3 M52.6,65.8c-0.3,0.4-0.7,0.8-1.2,0.9
			c0.1,0.3,0.2,0.6,0.4,0.9c0,0.1,0.3,0.4,0.2,0.6c0,0.1-0.5,0.2-0.6,0.2s-0.3,0-0.4,0c0-0.1-0.1-0.2-0.1-0.3
			c-0.3-0.7-0.7-1.4-0.9-2.1s-0.5-1.3-0.8-2c0.3-0.2,0.4-0.4,0.7-0.6c0.7-0.3,1.6-0.5,2.3,0C53,64,53.2,65,52.6,65.8 M56,66.7
			c-0.3,0.7-0.9,0.7-1.4,0.5c-0.3-0.1-0.6-0.6-0.7-0.9c-0.4-0.6-0.7-1.6-0.4-2.4c0.1-0.3,0.4-0.9,0.8-1c0.5-0.2,1.1,0.3,1.4,0.6
			C56.3,64.3,56.4,65.7,56,66.7 M60.3,65.3c-0.2,0.1-0.6,0.3-0.7,0.2c-0.2-0.2-0.4-0.7-0.5-0.9c-0.1-0.2-0.2-0.4-0.3-0.5
			c0,0.2,0.1,0.5,0.1,0.7s0,0.5,0,0.7c0,0.1,0.1,0.2,0,0.3c0,0.1-0.1,0.1-0.2,0.1c-0.2,0-0.7,0.2-0.9,0.3c0-0.1-0.1-0.4-0.2-0.5
			c-0.3-0.7-0.6-1.5-0.9-2.2c-0.1-0.3-0.2-0.7-0.3-1c0-0.1-0.1-0.2-0.1-0.3c0-0.1,0.2-0.1,0.3-0.2c0.1,0,0.5-0.3,0.5-0.3
			c0.1,0,0.2,0.5,0.3,0.7c0.2,0.5,0.3,1,0.5,1.5c0,0.1,0.1,0.2,0.2,0.3c0-0.5,0-1,0-1.5c0.1,0,0.3-0.1,0.4-0.1s0.3,0.5,0.4,0.5
			c0.1,0.2,0.2,0.3,0.3,0.5c0-0.2-0.1-0.4-0.1-0.6c-0.1-0.4-0.2-0.7-0.3-1.1c0-0.1-0.1-0.3-0.1-0.3c0-0.2,0.6-0.4,0.7-0.5
			c0.1,0.2,0.2,0.5,0.3,0.7c0.2,0.7,0.3,1.4,0.5,2.1c0.1,0.3,0.1,0.5,0.2,0.8c0,0.1,0.1,0.3,0.1,0.4C60.4,65.3,60.4,65.2,60.3,65.3
			 M60.9,62.4c-0.1-0.5-0.2-1-0.3-1.5c0.3-0.1,0.6-0.3,0.9-0.3c0,0.6,0.1,1.2,0.2,1.8c0.1,0.4,0.1,0.7,0.2,1.1
			c-0.2,0.1-0.5,0.1-0.8-0.1C61.1,63.4,60.9,62.6,60.9,62.4 M61.8,65c-0.3-0.1-0.6-0.5-0.3-0.7c0,0,0.1-0.1,0.2-0.1l0,0l0,0h0.1
			C62.4,64.3,62.4,65.2,61.8,65"/>
	</g>
</g>
<g>
	<path class="st1" d="M80.2,10.1L80.2,10.1C80,10,79.9,9.9,79.9,9.7c0.1-0.3,0.3-0.5,0.4-0.8c0.2-0.2,0.3-0.5,0.4-0.7
		C80.7,8,80.9,7.9,81,8c0.2,0,0.3,0.2,0.2,0.3c-0.1,0.3-0.3,0.6-0.4,0.9c-0.1,0.2-0.3,0.4-0.3,0.6C80.4,10,80.3,10.1,80.2,10.1z"/>
</g>
<g>
	<path class="st1" d="M81.2,12.2L81.2,12.2c-0.1,0-0.3-0.1-0.3-0.2s0-0.3,0.1-0.3v-0.1c0.1-0.2,0.2-0.4,0.3-0.6
		c0-0.2,0.2-0.2,0.4-0.2c0.2,0,0.2,0.2,0.2,0.4c-0.1,0.3-0.2,0.5-0.3,0.7C81.5,12,81.4,12.2,81.2,12.2z"/>
</g>
<g>
	<path class="st1" d="M82.9,10.5L82.9,10.5c-0.2-0.1-0.3-0.2-0.3-0.4c0.1-0.3,0.2-0.5,0.3-0.7C83,9.3,83,9.2,83.1,9
		c0.1-0.1,0.2-0.2,0.4-0.1c0.1,0.1,0.2,0.2,0.1,0.4c-0.1,0.1-0.1,0.3-0.2,0.4c-0.1,0.2-0.2,0.4-0.3,0.6
		C83.2,10.4,83.1,10.5,82.9,10.5z"/>
</g>
<g>
	<path class="st1" d="M83.4,12.3c-0.1,0-0.2,0-0.2-0.1c-0.1-0.1-0.1-0.3,0-0.4l0,0c0,0,0-0.1,0.1-0.1c0-0.1,0.1-0.2,0.1-0.3
		c0.1-0.2,0.2-0.4,0.3-0.6c0.1-0.2,0.2-0.2,0.4-0.2c0.2,0.1,0.2,0.2,0.2,0.4c-0.1,0.2-0.2,0.5-0.3,0.7c0,0.1-0.1,0.2-0.1,0.2
		s0,0,0,0.1C83.7,12.1,83.6,12.2,83.4,12.3C83.5,12.3,83.4,12.3,83.4,12.3z"/>
</g>
<g>
	<path class="st1" d="M83.9,14.5c-0.1,0-0.1,0-0.2-0.1s-0.1-0.3,0-0.4s0.2-0.4,0.3-0.6c0-0.1,0.1-0.2,0.1-0.3
		c0.1-0.1,0.2-0.2,0.4-0.1c0.1,0.1,0.2,0.2,0.1,0.4c0,0.1-0.1,0.2-0.1,0.3c-0.1,0.3-0.2,0.6-0.4,0.8C84.1,14.4,84,14.5,83.9,14.5z"
		/>
</g>
<g>
	<path class="st1" d="M85.4,12.2L85.4,12.2c-0.2-0.1-0.3-0.2-0.3-0.4c0.1-0.2,0.2-0.4,0.3-0.5c0.1-0.1,0.1-0.2,0.2-0.3
		c0.1-0.1,0.2-0.2,0.4-0.1c0.1,0.1,0.2,0.2,0.1,0.4c-0.1,0.1-0.1,0.2-0.2,0.3c-0.1,0.1-0.2,0.3-0.2,0.4S85.5,12.2,85.4,12.2z"/>
</g>
<g>
	<path class="st1" d="M86.3,13.9c-0.1,0-0.2,0-0.2-0.1c-0.2-0.2-0.1-0.4,0.3-1.2c0.1-0.1,0.3-0.2,0.4-0.1s0.2,0.2,0.1,0.4
		c-0.3,0.4-0.3,0.6-0.4,0.7c0,0.1,0,0.2-0.1,0.2C86.5,13.9,86.4,13.9,86.3,13.9z"/>
</g>
<g>
	<path class="st1" d="M85,9.7C84.9,9.7,84.9,9.7,85,9.7c-0.2-0.1-0.3-0.3-0.2-0.4C84.9,9.1,85,9,85.1,8.8c0.1-0.2,0.3-0.4,0.4-0.6
		c0.1-0.1,0.2-0.2,0.4-0.1C86,8.2,86.1,8.3,86,8.5s-0.3,0.4-0.4,0.6c-0.1,0.1-0.2,0.3-0.3,0.4C85.2,9.7,85.1,9.7,85,9.7z"/>
</g>
<g>
	<path class="st1" d="M83.1,7.6c-0.1,0-0.2,0-0.2-0.1c-0.1-0.1-0.1-0.3,0.1-0.4c0.1-0.1,0.2-0.2,0.3-0.3c0.1-0.2,0.2-0.3,0.4-0.5
		c0.1-0.1,0.3-0.1,0.4,0.1c0.1,0.1,0.1,0.3-0.1,0.4c-0.1,0.1-0.2,0.2-0.3,0.3c-0.1,0.2-0.2,0.3-0.4,0.5C83.3,7.5,83.2,7.6,83.1,7.6z
		"/>
</g>
<g>
	<path class="st1" d="M87.1,10.1c-0.1,0-0.1,0-0.2,0c-0.1-0.1-0.2-0.3-0.1-0.4c0.1-0.1,0.2-0.3,0.3-0.5c0.1-0.1,0.2-0.2,0.4-0.1
		c0.1,0.1,0.2,0.2,0.1,0.4s-0.3,0.5-0.3,0.6C87.3,10,87.2,10.1,87.1,10.1z"/>
</g>
<g>
	<path class="st1" d="M79.1,13.2c-0.1,0-0.1,0-0.2,0c-0.1-0.1-0.2-0.3-0.1-0.4s0.1-0.2,0.2-0.4c0-0.1,0.1-0.2,0.1-0.3
		c0.1-0.1,0.2-0.2,0.4-0.1c0.1,0.1,0.2,0.2,0.1,0.4c0,0.1-0.1,0.2-0.1,0.2c-0.1,0.2-0.1,0.3-0.2,0.5C79.3,13.1,79.2,13.2,79.1,13.2z
		"/>
</g>
<g>
	<path class="st1" d="M81.6,15.1L81.6,15.1c-0.2-0.1-0.3-0.3-0.2-0.4s0.2-0.4,0.2-0.6V14c0.1-0.1,0.2-0.2,0.4-0.2
		c0.1,0.1,0.2,0.2,0.2,0.4v0.1c-0.1,0.2-0.2,0.5-0.3,0.7C81.8,15.1,81.7,15.1,81.6,15.1z"/>
</g>
<g>
	<path class="st1" d="M77.8,10.9C77.8,10.9,77.7,10.8,77.8,10.9c-0.2-0.1-0.3-0.2-0.3-0.4c0.1-0.2,0.1-0.3,0.2-0.5
		c0.1-0.1,0.1-0.3,0.2-0.4c0.1-0.1,0.2-0.2,0.4-0.2c0.1,0.1,0.2,0.2,0.2,0.4c-0.1,0.2-0.1,0.3-0.2,0.4s-0.1,0.3-0.2,0.4
		C78,10.8,77.9,10.9,77.8,10.9z"/>
</g>
<g>
	<path class="st1" d="M80,7.3c-0.1,0-0.1,0-0.2,0c-0.1-0.1-0.2-0.3-0.1-0.4c0.1-0.2,0.3-0.4,0.4-0.6c0.1-0.1,0.2-0.2,0.3-0.3
		c0.1-0.1,0.3-0.2,0.4-0.1C80.9,6,81,6.2,80.9,6.3c-0.1,0.1-0.2,0.2-0.3,0.3c-0.1,0.2-0.3,0.4-0.4,0.5C80.2,7.3,80.1,7.3,80,7.3z"/>
</g>
<g>
	<path class="st1" d="M101.1,17.4c-0.2-0.7-0.8-1.4-1.1-2c-0.6-1.1-1.3-2.2-1.7-3.4c-0.3-1,0.9-2,1.5-2.8c0.8-1.1,1.7-2.1,2.6-3.1
		c0.3-0.4,0.6-0.8,0.9-1.1c0.2,0.2,0.3,0.5,0.4,0.7c0.4,1.1,0.7,2.4,1,3.5c0.4,1.5,0.8,2.9,1.2,4.4c0.1,0.4,0.3,1.1,0.6,1.5
		c0.3-0.9,1.6-1.5,2.4-1.8c0.8,1.7,1.2,3.7,1.7,5.5c0.3,1,0.5,2.1,0.8,3.1c0.1,0.4,0.3,0.9,0.2,1.3c-0.8-0.6-1.3-1.7-1.9-2.5
		c-0.4-0.6-0.9-1.5-1.6-1.8c-0.3,0.3-0.6,0.6-0.9,0.9c-0.5,0.4-1,1-1.5,1.4c-0.5-0.9-0.7-2-1-3s-0.6-2-1.1-2.9
		C103.2,15.4,101.7,18.2,101.1,17.4"/>
</g>
<g>
	<path class="st1" d="M118.8,59.9c-0.1-0.2-0.2-0.4-0.4-0.6c-0.6-0.5-1.3-0.9-2.1-1.2c-1.1-0.4-2.3-0.4-3.3,0.3
		c-0.6,0.4-1,0.9-1.6,1.3c-0.4,0.3-0.8,0.6-1.3,0.8c-0.2,0.1-0.5,0.2-0.7,0.3l0,0c-0.4,0.1-0.9,0.2-1.3,0.2c-0.5,0-1-0.1-1.5-0.2
		c-0.7-0.1-1.3-0.4-2-0.6c-1.2-0.2-2.3,0.3-3.1,1.1c-0.6,0.6-1.1,1.2-1.5,1.9c-0.1,0.2-0.1,0.4-0.1,0.7c0,0.5,0.2,1.1,0.7,1.6
		c0.6,0.7,1.5,1.3,2.4,1.4c1.1,0.2,2.4-0.1,3.3-0.7c0.9-0.5,1.6-1.2,2.4-1.9c0.1-0.1,0.3-0.3,0.4-0.4c0.4-0.3,0.9-0.4,1.3-0.3
		c0.2,0,0.4,0.1,0.6,0.2c1,0.4,1.9,0.7,3,0.8c1.1,0.1,2.4-0.1,3.3-0.8c0.7-0.5,1.4-1.4,1.6-2.3C119,61,118.9,60.4,118.8,59.9
		 M105.9,64.1c-0.7,0.6-1.9,0.9-2.7,0.3c-0.3-0.3-0.7-0.6-0.4-1.2c0.2-0.1,0.5-0.5,0.7-0.6c0.6-0.4,1.4-0.4,2-0.2
		c0.3,0.1,1,0.4,1,0.8C106.6,63.5,106.1,63.9,105.9,64.1 M115.9,61.7c-0.5,0.9-1.7,1.1-2.6,0.9c-0.3-0.1-0.9-0.2-1.1-0.6
		c-0.1-0.4,0.4-0.9,0.6-1.1c0.5-0.4,1.3-0.7,2-0.6c0.3,0,0.7,0.2,0.9,0.3C116.3,60.8,116.1,61.3,115.9,61.7"/>
</g>
<g>
	<g>
		<path class="st1" d="M140.1,70.2c-0.2-1-0.6-1.9-1.2-2.7c-0.3-0.5-0.7-0.9-0.8-1.4c0,0.3,0.1,0.5,0.1,0.8c-0.6-0.7-1-1.8-1.5-2.6
			c-0.6-0.9-0.9-2.2-1.7-3c0,1.3,1.3,2.6,1.3,3.9c-0.7-1.6-1.8-3.1-2.7-4.7c-0.8-1.3-1.6-2.6-2.5-3.9c-0.5-0.7-0.9-1.6-1.4-2.2
			c0.7,2,1.5,4.1,2.3,6.1c0.7,1.7,1.5,3.4,2.1,5.1c-0.9-1.1-1.7-2.4-2.7-3.4c0.6,2.3,2.2,4.4,2.9,6.7c-0.8-0.6-1.5-1.7-2.4-2.1
			c0,0.4,0.4,0.9,0.6,1.2c0.4,0.8,0.8,1.6,1.3,2.3c0.7,1.1,1.5,2.4,2.4,3.3c0.7,0.6,2.3,0.9,3.1,0.3
			C141.1,72.5,140.4,71.2,140.1,70.2z M139,72.7c-1,1-2.6,0.8-3.2-0.5c-0.4-0.8-0.4-1.6,0.2-2.3c0.3-0.3,0.8-0.7,1.2-0.6
			C139.1,68.7,140.5,71.2,139,72.7z"/>
	</g>
</g>
<g>
	<g>
		<path class="st2" d="M76.4,40.4c-0.5,0.1-1,0.2-1.4,0.6c-0.1,0.1-0.2,0.3-0.4,0.4c0.5,0.8,1.3,1.6,2.4,1.3c0.7-0.2,1.6-1.3,1.9-2
			C78.9,40.1,76.7,40.4,76.4,40.4z"/>
	</g>
	<g>
		<path class="st2" d="M85.4,35.6c-0.5,0.1-0.9,0.5-1.3,0.9c-0.2,0.3-1.6,1.9-1.1,2.2c0.7,0.1,2.1,0,2.7-0.5
			c0.8-0.7,0.6-1.8,0.2-2.7C85.7,35.6,85.6,35.6,85.4,35.6z"/>
	</g>
	<g>
		<path class="st1" d="M75,38c1.4-0.4,3-0.8,4.5,0c0.3-0.2,0.9-0.6,1.3-0.7c0.1-0.1,0.2-0.1,0.3-0.1c0.2-1.3,1.2-2.4,2-3.3l0.2-0.2
			c0.5-0.6,1-1.2,1.4-1.8c-0.5-0.8-1.1-1.6-2-2c-1.2-0.6-2.4-0.9-3.8-0.8c-1.8,0.2-3.3,1-4.6,2.3c-0.9,0.9-1.7,1.9-2.1,3.1
			c-0.4,1-0.4,2.2-0.2,3.2c0,0.2,0.1,0.4,0.2,0.7C73,38.4,74,38.3,75,38L75,38z"/>
	</g>
	<g>
		<path class="st1" d="M75.2,38.5L75,38.6c-1,0.3-2,0.4-3,0.4h-0.1v-0.2c-0.3-0.1-0.7-0.1-1-0.3c-1.6-0.6-2.9-1.6-4.1-2.6
			c0-0.1-0.1-0.1-0.1-0.2v0.1l-0.1-0.1c0,0.3,0.3,0.7,0.5,1.1c0.1,0.2,0.2,0.5,0.3,0.7c0.6,1.2,1.3,2.5,2.1,3.6
			c1.4,1.8,3,3.4,5.4,3.5c1.1,0.1,2.1-0.1,3.1-0.4c0.8-0.3,1.5-0.6,2.3-0.9c0.3-0.2,0.6-0.3,0.9-0.4c-0.8-1.3-1.7-2.9-1.8-4.3
			C78,37.7,76.6,38.1,75.2,38.5z M77,42.6c-1.1,0.3-1.8-0.4-2.4-1.3c0.2-0.1,0.2-0.2,0.4-0.4c0.4-0.4,0.9-0.5,1.4-0.6
			c0.3,0,2.5-0.3,2.4,0.3C78.6,41.3,77.6,42.4,77,42.6z"/>
	</g>
	<g>
		<path class="st1" d="M81.8,38.5l-0.2-0.4c-0.1-0.1-0.3-0.3-0.4-0.3v0.1h-0.1c-0.2,0-0.7,0.3-1.2,0.6c0.1,1.3,1.1,2.9,1.8,4.1
			c0.4,0,0.7,0.1,1,0.2c0.3-0.4,0.6-1,0.3-1.7C82.6,40.2,82.2,39.3,81.8,38.5z"/>
	</g>
	<g>
		<path class="st1" d="M88.3,30.8c-0.5-1.3-1.2-2.5-1.9-3.7c-0.1-0.2-0.3-0.4-0.4-0.6c-0.2-0.4-0.4-0.8-0.6-1c0,0.1,0,0.1,0,0.2
			l-0.1-0.1c0,0.1,0,0.1,0.1,0.2c0.2,1.6,0.4,3.3,0,4.9c-0.1,0.3-0.1,0.6-0.2,0.8l0.2,0.1c-0.4,0.9-1,1.7-1.7,2.5l-0.2,0.2
			c-0.9,0.9-1.7,1.9-1.9,3.1c0.2,0.1,0.4,0.3,0.4,0.4l0.2,0.4c0.4,0.8,0.9,1.7,1.2,2.5c0.1,0.3,0.1,0.5,0.1,0.8
			c0.3-0.2,0.6-0.3,0.9-0.5c0.7-0.4,1.4-0.9,2-1.4c0.9-0.7,1.5-1.4,2.1-2.4C89.6,35.2,89.1,32.9,88.3,30.8z M85.7,38.1
			c-0.5,0.5-2,0.7-2.7,0.5c-0.5-0.2,0.9-1.9,1.1-2.2c0.3-0.4,0.7-0.8,1.3-0.9c0.2,0,0.4,0,0.5-0.1C86.3,36.3,86.5,37.4,85.7,38.1z"
			/>
	</g>
</g>
<g>
	<g>
		<path class="st1" d="M112,34.8c-0.2-0.1-0.4-0.1-0.6-0.1c-0.8,0-1.5,0-2.2,0.4c-1.6,0.8-2.7,2.4-3.3,4c-1.3,3.3,0.5,6.9,3.8,8
			c1.5,0.5,2.9,0.3,4.3-0.4c1.3-0.7,2.6-1.8,3.2-3.2c1-2.4,0.2-5.7-1.8-7.4c-1.1-0.9-2.5-1.3-3.8-1.5c-0.5-0.1-0.9,0-1.4,0.1
			c-0.6,0.1-1,0.4-1.5,0.7"/>
	</g>
	<g>
		<g>
			<path class="st1" d="M105.1,40.4c0,0.2,0,1,0,1.2c-0.6,0.2-1,0.6-1.5,0.8c-0.7,0.5-1.4,0.9-1.8,1.7c-0.3,0.6,0,1,0.7,1.2
				c1.3,0.3,3,0.1,3.9,0c3.5-0.5,5.7-1.3,8.9-2.8c1.4-0.6,2.8-1.3,4.1-2.1c1-0.6,2-1.1,2.5-2.2c0.4-0.9-0.4-1.2-1.1-1.3
				c-1.3-0.2-2.3,0.2-3.6,0.5c-0.1-0.2-0.5-0.6-0.6-0.8c0.7-0.5,2.2-0.7,3.1-0.8c1.1-0.1,1.7-0.1,2.8,0.1c1,0.1,1.8,0.8,1.5,1.9
				c-0.4,1.2-0.9,1.5-1.8,2.2c-0.8,0.6-1.6,1.1-2.5,1.6c-1,0.5-2.5,1.3-3.5,1.8c-1.6,0.7-2.1,0.9-3.9,1.6c-1.5,0.6-3.7,1.1-5.3,1.5
				c-1.7,0.4-3.6,0.6-5.3,0.2c-0.7-0.2-1.6-0.4-1.8-1.3c-0.2-0.9,0.5-1.7,1.1-2.3C102.2,42,103.8,41,105.1,40.4z"/>
			<path class="st3" d="M103.8,47.2c-0.8,0-1.5-0.1-2.2-0.2c-0.6-0.1-1.7-0.4-1.9-1.3c-0.2-1,0.5-1.8,1.1-2.4
				c1.2-1.2,2.7-2.3,4.2-2.9l0.2-0.1v0.2c0,0.1,0,0.2,0,0.3c0,0.3,0,0.7,0,0.9v0.1h-0.1c-0.4,0.2-0.8,0.4-1.1,0.6
				c-0.1,0.1-0.2,0.1-0.3,0.2c-0.7,0.4-1.3,0.9-1.8,1.6c-0.1,0.2-0.1,0.4-0.1,0.5c0.1,0.2,0.3,0.4,0.7,0.5c1.3,0.3,3,0.1,3.9,0
				c3.3-0.5,5.5-1.3,8.9-2.7c1.3-0.6,2.7-1.3,4.1-2.1l0.1-0.1c1-0.5,1.9-1.1,2.4-2.1c0.1-0.3,0.1-0.5,0-0.6
				c-0.1-0.2-0.5-0.4-1.1-0.5c-1.1-0.1-2,0.1-3,0.4c-0.2,0-0.3,0.1-0.5,0.1h-0.1v-0.1c0-0.1-0.1-0.2-0.6-0.7l-0.1-0.1l0.1-0.1
				c0.6-0.4,1.6-0.7,3.1-0.9c1.2-0.1,1.7-0.1,2.9,0.1c0.6,0.1,1.2,0.4,1.4,0.8c0.2,0.4,0.3,0.8,0.1,1.3c-0.4,1.2-0.9,1.6-1.8,2.2
				h-0.1c-0.8,0.6-1.6,1.1-2.6,1.6s-2.5,1.3-3.5,1.8s-1.6,0.7-2.3,1c-0.4,0.2-0.9,0.4-1.6,0.6c-1.6,0.7-3.8,1.2-5.3,1.5
				C105.8,47,104.7,47.2,103.8,47.2z M104.9,40.6c-1.4,0.6-2.8,1.6-3.9,2.8c-0.5,0.5-1.2,1.3-1,2.1c0.2,0.7,0.9,1,1.7,1.2
				c1.5,0.4,3.2,0.3,5.3-0.2c1.5-0.3,3.7-0.8,5.3-1.5c0.7-0.3,1.2-0.5,1.6-0.6c0.7-0.3,1.3-0.5,2.3-1s2.5-1.2,3.5-1.8
				c0.9-0.5,1.7-1,2.5-1.6h0.1c0.8-0.6,1.4-1,1.7-2.1c0.1-0.4,0.1-0.8-0.1-1.1c-0.2-0.4-0.7-0.6-1.3-0.7c-1.1-0.2-1.7-0.2-2.8-0.1
				c-1.4,0.2-2.3,0.4-2.9,0.7c0.2,0.3,0.4,0.5,0.5,0.6c0.1,0,0.3-0.1,0.4-0.1c1-0.3,2-0.6,3.1-0.4c0.4,0.1,1,0.2,1.2,0.6
				c0.1,0.2,0.1,0.5,0,0.8c-0.5,1.1-1.5,1.7-2.5,2.2l-0.1,0.1c-1.4,0.8-2.8,1.5-4.1,2.1c-3.4,1.5-5.6,2.3-9,2.8
				c-0.9,0.1-2.6,0.4-4,0c-0.4-0.1-0.7-0.3-0.8-0.6c-0.1-0.2-0.1-0.5,0.1-0.8c0.5-0.8,1.2-1.3,1.9-1.7c0.1-0.1,0.2-0.1,0.3-0.2
				c0.3-0.2,0.7-0.4,1.1-0.6c0-0.2,0-0.6,0-0.8C104.9,40.7,104.9,40.6,104.9,40.6z"/>
		</g>
	</g>
</g>
</svg>
