<?xml version="1.0" encoding="utf-8"?>
<!-- Generator: Adobe Illustrator 24.2.0, SVG Export Plug-In . SVG Version: 6.00 Build 0)  -->
<svg version="1.1" id="Calque_1" xmlns="http://www.w3.org/2000/svg" xmlns:xlink="http://www.w3.org/1999/xlink" x="0px" y="0px"
	 viewBox="0 0 184.3 99.2" style="enable-background:new 0 0 184.3 99.2;" xml:space="preserve">
<style type="text/css">
	.st0{fill-rule:evenodd;clip-rule:evenodd;fill:#E1EFE6;}
	.st1{fill:#FFFFFF;}
	.st2{fill:#F4DDDC;}
	.st3{fill:#A46C5B;}
	.st4{fill:#F9D2CE;}
	.st5{clip-path:url(#SVGID_2_);fill:#F9D2CE;}
	.st6{fill:none;stroke:#3B68AF;stroke-width:0.3552;stroke-miterlimit:10;}
	.st7{fill:#3B68AF;}
	.st8{fill:none;stroke:#F9D2CE;stroke-width:0.3552;stroke-miterlimit:10;}
	.st9{fill:#DDB118;}
	.st10{fill:none;stroke:#3B68AF;stroke-width:1.0655;stroke-linecap:round;stroke-linejoin:round;stroke-miterlimit:10;}
	.st11{fill:#EFC4C3;}
	.st12{fill:none;stroke:#3B68AF;stroke-width:0.5333;stroke-linecap:round;stroke-linejoin:round;stroke-miterlimit:10;}
	.st13{fill:none;stroke:#3B68AF;stroke-width:0.7104;stroke-linecap:round;stroke-linejoin:round;stroke-miterlimit:10;}
	.st14{clip-path:url(#SVGID_4_);fill:#3B68AF;}
	.st15{fill:none;stroke:#A46C5B;stroke-width:0.3552;stroke-miterlimit:10;}
	.st16{fill:none;stroke:#3B68AF;stroke-width:0.3552;stroke-linecap:round;stroke-linejoin:round;stroke-miterlimit:10;}
	.st17{fill:none;stroke:#F9D2CE;stroke-width:0.2666;stroke-linecap:round;stroke-linejoin:round;stroke-miterlimit:10;}
</style>
<g>
	<path class="st0" d="M184.1,99.3H-0.2V0.1h184.3V99.3z"/>
	<rect x="-0.2" y="0.1" class="st0" width="184.3" height="99.2"/>
</g>
<g>
	<path class="st1" d="M47.6,71.6c-4.2,0.2-8.7,1.1-12.3-1.7c-4.2-3.2-5.1-8.9-7.9-13.1c-5.5-8.1-18-9.8-27.6-7.6v50.2h82.3
		c-2.7-5.4-6.5-11.8-9-15.1C66.3,75.1,58.7,71,47.6,71.6z"/>
	<path class="st2" d="M93.6,36.9c2.7-0.7,6.2-2,8.7-0.3c2.8,1.9,4.8,7.9,7,10.5c9.9,11.5,20.9,2.9,31.3-2.2c9.8-4.8,15.9-3.9,26.3-3
		c4.6,0.4,9.1,1,13.5-0.5c1.2-0.4,2.4-1.1,3.7-1.9V0.1H65.6c0.1,9.1,0.7,20.3,4.2,27.4C75.5,39.3,82.9,39.5,93.6,36.9z"/>
	<path class="st3" d="M97.7,32.6c-0.5-1-1-2-1.3-3.1c-0.3-1.1-0.3-2.2,0.1-3.3c0.1-0.3,0.4-1.5-0.4-1.2c-0.3,0.1-0.3,1-0.4,1.2
		c-0.3,1.2-1.3,2.2-2.2,3.1c-1.3,1.1-2.7,2.1-4.2,3c-0.5,0.3-1.1,0.6-1.5,1c-0.5,0.6-0.7,1.5-0.8,2.3c-0.1,0.9-0.1,1.7-0.1,2.6
		c0,0.3,0.1,0.7,0.2,1c0.3,0.5,0.9,0.6,1.5,0.7c0.6,0.1,1.1,0.1,1.6,0.3c0.3,0.2,0.6,0.5,0.8,0.8c0.8,1,1.8,1.9,3,1.9
		c0.6,0,1.1-0.2,1.6-0.4c1-0.4,2.1-0.9,2.6-1.8c0.5-0.8,0.5-1.8,0.6-2.8c0-0.9,0.1-1.8-0.1-2.7C98.5,34.3,98.1,33.4,97.7,32.6z"/>
	<path class="st4" d="M97.3,33.6c-0.7-1.1-1.1-2.4-1.2-3.7c0-0.5-0.2-1.2-0.7-1.1c-0.1,0-0.3,0.1-0.4,0.2c-1.2,0.8-2.3,1.6-3.5,2.4
		c-1,0.7-2.1,1.3-2.9,2.1c-0.5,0.5-0.6,1-0.7,1.7c-0.3,0.9-0.7,2.5-0.2,3.3c0.3,0.5,0.8,0.7,1.4,0.8c0.5,0.1,1.1,0.1,1.6,0.4
		c1,0.5,1.4,1.9,2.4,2.4s2.3,0,3.3-0.5c0.7-0.4,1.3-0.8,1.6-1.5c0.3-0.6,0.3-1.3,0.3-1.9c0-0.6,0-1.3,0-1.9c0-0.5,0-0.9-0.2-1.3
		C97.9,34.5,97.6,34.1,97.3,33.6z"/>
	<g>
		<g>
			<g>
				<defs>
					
						<rect id="SVGID_1_" x="88.3" y="32.4" transform="matrix(1.023255e-03 -1 1 1.023255e-03 55.9997 128.0427)" width="7.6" height="7.1"/>
				</defs>
				<clipPath id="SVGID_2_">
					<use xlink:href="#SVGID_1_"  style="overflow:visible;"/>
				</clipPath>
				<path class="st5" d="M93.7,32.5c-1.2-0.5-3.3,0.2-4.3,1.1c-0.8,0.9-1.4,3.3-0.2,4.4c0.3,0.2,0.6,0.3,0.9,0.5
					c1,0.4,2,0.7,2.9,1.1c0.5,0.2,1.1,0.4,1.6,0.2c0.4-0.2,0.7-0.6,0.9-1c0.1-0.5,0.1-0.9,0.1-1.4c-0.1-0.9-0.2-1.9-0.5-2.8
					C94.9,33.8,94.5,32.8,93.7,32.5z"/>
			</g>
		</g>
	</g>
	<path class="st6" d="M90.7,34.9c-0.2-0.1-0.5-0.1-0.8-0.1"/>
	<path class="st6" d="M90.3,35.8c-0.3-0.1-0.7,0-0.9,0.3"/>
	<path class="st6" d="M90.9,36.7c-0.1,0.3-0.2,0.6-0.3,0.9"/>
	<path class="st6" d="M91.4,36c-0.1-0.2-0.1-0.5-0.2-0.7"/>
	<path class="st6" d="M91.5,34.1c0-0.3,0-0.5-0.1-0.8"/>
	<path class="st6" d="M92.4,33.9c0-0.3,0.1-0.5,0.3-0.7"/>
	<line class="st6" x1="92.4" y1="35.6" x2="92.4" y2="36.1"/>
	<line class="st6" x1="91.8" y1="37.2" x2="91.8" y2="37.9"/>
	<path class="st6" d="M92.8,37.7c0,0.2,0,0.5,0.2,0.6"/>
	<path class="st6" d="M94.1,37.9c0.1,0.1,0.1,0.3,0.2,0.4"/>
	<path class="st6" d="M94.3,37.2c0.2,0,0.4,0,0.6-0.1"/>
	<path class="st6" d="M93.2,36.1c0.2,0.1,0.5,0.1,0.7,0.1"/>
	<path class="st6" d="M93.5,35c0-0.2,0.1-0.5,0.2-0.7"/>
	<path class="st6" d="M94.3,35.7c0.2-0.1,0.4-0.3,0.6-0.4"/>
	<path class="st7" d="M143.7,22.1l0.3-0.3c0,0.3,0,0.6,0,0.9c1.3-0.6,2.1-2.2,1.6-3.6C144.4,19.5,143.6,20.8,143.7,22.1z"/>
	<path class="st7" d="M146.9,21.1l0.3-0.3v0.9c1.3-0.6,2.1-2.2,1.6-3.6C147.6,18.5,146.8,19.8,146.9,21.1z"/>
	<path class="st7" d="M144.7,25.3L145,25c0,0.3,0,0.6,0,0.9c1.3-0.6,2.1-2.2,1.6-3.6C145.4,22.7,144.6,24,144.7,25.3z"/>
	<path class="st7" d="M147.9,25.3l0.3-0.3c0,0.3,0,0.6,0,0.9c1.3-0.6,2.1-2.2,1.6-3.6C148.6,22.7,147.8,24,147.9,25.3z"/>
	<path class="st7" d="M151.3,22.1l0.3-0.3c0,0.3,0,0.6,0,0.9c1.3-0.6,2.1-2.2,1.6-3.6C152,19.5,151.2,20.8,151.3,22.1z"/>
	<path class="st7" d="M151.3,26.3l0.3-0.3c0,0.3,0,0.6,0,0.9c1.3-0.6,2.1-2.2,1.6-3.6C152,23.7,151.2,25,151.3,26.3z"/>
	<path class="st7" d="M154.4,28.1l0.3-0.3c0,0.3,0,0.6,0,0.9c1.3-0.6,2.1-2.2,1.6-3.6C155.1,25.5,154.3,26.8,154.4,28.1z"/>
	<path class="st7" d="M151.1,30.4l0.3-0.3c0,0.3,0,0.6,0,0.9c1.3-0.6,2.1-2.2,1.6-3.6C151.8,27.8,151,29.1,151.1,30.4z"/>
	<path class="st7" d="M147.9,29.6l0.3-0.3c0,0.3,0,0.6,0,0.9c1.3-0.6,2.1-2.2,1.6-3.6C148.6,27,147.8,28.3,147.9,29.6z"/>
	<path class="st7" d="M154.4,23.9l0.3-0.3c0,0.3,0,0.6,0,0.9c1.3-0.6,2.1-2.2,1.6-3.6C155.1,21.3,154.3,22.6,154.4,23.9z"/>
	<path class="st3" d="M123.2,15.8c-0.1-0.3-0.2-0.6-0.4-0.9c-0.4-0.6-1.2-0.8-1.9-1.1c-2.4-0.9-4.7-2-6.9-3.4
		c-0.4-0.3-0.9-0.6-1.2-1c-0.6-0.8-0.7-1.7-0.9-2.6c-1.5-0.1-1.3,0.8-1.1,1.8c0.4,1.5,0.1,2.6-0.6,3.9c-0.9,1.6-1.7,3.3-2.2,5.1
		s-0.6,3.7,0,5.5c0.2,0.7,0.6,1.4,1.1,1.9c0.6,0.5,1.3,0.8,2.1,1.1c0.9,0.3,1.8,0.7,2.7,0.7c0.9,0,1.9-0.3,2.5-1.1
		c0.2-0.3,0.3-0.7,0.5-1c0.5-0.6,1.2-0.9,1.9-1.1c0.8-0.3,1.7-0.7,2.5-1.1c0.8-0.4,1.7-0.9,2.1-1.8c0.4-0.8,0.4-1.8,0.3-2.7
		C123.6,17.2,123.4,16.5,123.2,15.8z"/>
	<path class="st8" d="M110.8,11.7c-0.4,1.8-0.8,3.7-1.2,5.5c-0.1,0.5-0.2,0.9-0.2,1.4c0,1.7,1,3.1,2.3,4.2c1.3,1,2.8,1.8,4.1,2.7"/>
	<path class="st8" d="M111.5,10.7c0.2,1.4,0.4,2.8,0.6,4.3c0.2,1.5,0.4,3.1,1.1,4.4c0.9,1.7,2.5,3,3.5,4.6c0.1,0.2,0.2,0.4,0,0.5"/>
	<path class="st8" d="M111.4,11.2c1.2,0.7,2.3,1.3,3.5,2c0.4,0.2,0.7,0.4,1.1,0.7c0.5,0.4,0.8,0.8,1.2,1.2c0.6,0.7,1.3,1.4,1.9,2.2
		c0.4,0.4,0.7,0.8,0.9,1.3c0.3,0.6,0.3,1.2,0.3,1.9c0,1,0.1,2,0.1,2.9"/>
	<path class="st8" d="M114.6,11.1c0.8,0.9,2.1,1.1,3.1,1.7c0.9,0.6,1.5,1.5,2,2.4c1.3,2.1,2.5,4.3,2.9,6.8"/>
	<path class="st9" d="M163.7,17.6c-2.3-2.2-2.5-6.1-4.7-8.1c-2.9-2.6-5.2,0-5.9,3.2c-0.4,1.7-0.2,3.4-0.5,5.1
		c-0.4,2.5-1,3.4-0.7,4.3c0.2,0.6,0.9,1.2,2.4,2.4c3.8,2.9,9.5,0.6,10.2-4.8c0.1-0.4,0.1-0.8-0.1-1.2
		C164.3,18.1,164,17.9,163.7,17.6z"/>
	<path class="st10" d="M156.2,10.9c-0.6-1.5,0.3-3.4,1.8-4"/>
	<path class="st7" d="M156.8,23.9C156.9,23.9,156.9,23.9,156.8,23.9C156.9,23.9,156.9,23.8,156.8,23.9L156.8,23.9z"/>
	<path class="st7" d="M156.9,23.9c0.5,0.4,0.9,0.7,1.5,0.7c0.6,0,1.2-0.7,0.9-1.2C158.6,23.5,157.7,23.7,156.9,23.9z"/>
	<path class="st9" d="M41,49.9c-0.2-0.9-0.3-1.9-0.6-2.8c-0.3-0.7-0.7-1.2-1.2-1.8c-2.3-3-4.9-4.9-7.7-6.2
		c-3.4-1.6-7.3-2.1-11.8-2.2c-1.9,0-4.1,0.1-5.2,1.7c-1.3,1.9,0.1,4.5,1.5,6.4c2.7,3.4,5.9,6.9,9.8,8.9c2.6,1.4,7.3,3,10.1,1.7
		c1-0.4,1.8-1.2,2.9-1.3c1.4-0.1,2.9,1,4.1,0.3c0.1-0.1,0.3-0.2,0.3-0.3c0.1-0.2-0.1-0.4-0.2-0.6C42.2,52.5,41.3,51.3,41,49.9z"/>
	<path class="st4" d="M28.9,42.2c-2.8-1.7-5.9-2.7-8.8-2.5c-0.7,0.1-1.5,0.3-1.8,1c-0.4,1.1,0.5,2.4,1.3,3.3c2.4,2.6,5.1,4.8,8,6
		c1.8,0.7,8.1,2.2,9-0.5C37.4,47,30.5,43.1,28.9,42.2z"/>
	<path class="st7" d="M20.9,40.8c-0.3,0-0.6,0.1-1,0.1c-0.1,0.5,0.7,0.7,1.2,0.6C21.2,41.2,21.1,40.9,20.9,40.8z"/>
	<path class="st7" d="M19.1,41.6c-0.3,0-0.6,0.1-1,0.1c-0.1,0.5,0.7,0.7,1.2,0.6C19.5,42.1,19.4,41.8,19.1,41.6z"/>
	<path class="st7" d="M20.5,42.5c-0.3,0-0.6,0.1-1,0.1c-0.1,0.5,0.7,0.7,1.2,0.6C20.8,43,20.7,42.6,20.5,42.5z"/>
	<path class="st7" d="M22.2,41.9c-0.3,0-0.6,0.1-1,0.1c-0.1,0.5,0.7,0.7,1.2,0.6C22.6,42.4,22.5,42,22.2,41.9z"/>
	<path class="st7" d="M23.3,40.7c-0.3,0-0.6,0.1-1,0.1c-0.1,0.5,0.7,0.7,1.2,0.6C23.7,41.2,23.6,40.8,23.3,40.7z"/>
	<path class="st7" d="M21.8,43.6c-0.3,0-0.6,0.1-1,0.1c-0.1,0.5,0.7,0.7,1.2,0.6C22.2,44.1,22.1,43.7,21.8,43.6z"/>
	<path class="st7" d="M23.7,43.8c-0.3,0-0.6,0.1-1,0.1c-0.1,0.5,0.7,0.7,1.2,0.6C24,44.3,23.9,43.9,23.7,43.8z"/>
	<path class="st7" d="M23.8,42.9c-0.1,0.5,0.7,0.7,1.2,0.6c0.1-0.2,0-0.5-0.2-0.7C24.5,42.8,24.2,42.9,23.8,42.9z"/>
	<path class="st7" d="M22.5,42.3c-0.1,0.5,0.7,0.7,1.2,0.6c0.1-0.2,0-0.5-0.2-0.7C23.2,42.2,22.9,42.3,22.5,42.3z"/>
	<path class="st7" d="M24.6,41.6c-0.3,0-0.6,0.1-1,0.1c-0.1,0.5,0.7,0.7,1.2,0.6C25,42.1,24.9,41.7,24.6,41.6z"/>
	<path class="st7" d="M26,43c-0.1,0.5,0.7,0.7,1.2,0.6c0.1-0.2,0-0.5-0.2-0.7C26.7,42.9,26.4,43,26,43z"/>
	<path class="st7" d="M26.6,45.2c-0.3,0-0.6,0.1-1,0.1c-0.1,0.5,0.7,0.7,1.2,0.6C27,45.7,26.9,45.4,26.6,45.2z"/>
	<path class="st7" d="M30.5,43.9c-0.3,0-0.6,0.1-1,0.1c-0.1,0.5,0.7,0.7,1.2,0.6C30.9,44.4,30.8,44,30.5,43.9z"/>
	<path class="st7" d="M27.1,44c-0.3,0-0.6,0.1-1,0.1c-0.1,0.5,0.7,0.7,1.2,0.6C27.5,44.5,27.4,44.2,27.1,44z"/>
	<path class="st7" d="M28.5,42.4c-0.3,0-0.6,0.1-1,0.1c-0.1,0.5,0.7,0.7,1.2,0.6C28.8,42.8,28.7,42.5,28.5,42.4z"/>
	<path class="st7" d="M27.7,46.2c-0.3,0-0.6,0.1-1,0.1c-0.1,0.5,0.7,0.7,1.2,0.6C28.1,46.7,28,46.4,27.7,46.2z"/>
	<path class="st7" d="M28.1,47.2c-0.1,0.5,0.7,0.7,1.2,0.6c0.1-0.2,0-0.5-0.2-0.7C28.8,47.1,28.5,47.2,28.1,47.2z"/>
	<path class="st7" d="M31.9,47.2c-0.3,0-0.6,0.1-1,0.1c-0.1,0.5,0.7,0.7,1.2,0.6C32.3,47.7,32.2,47.4,31.9,47.2z"/>
	<path class="st7" d="M31.2,49.6c-0.1,0.5,0.7,0.7,1.2,0.6c0.1-0.2,0-0.5-0.2-0.7C31.9,49.5,31.6,49.6,31.2,49.6z"/>
	<path class="st7" d="M34.9,48.4c-0.3,0-0.6,0.1-1,0.1c-0.1,0.5,0.7,0.7,1.2,0.6C35.2,48.9,35.1,48.5,34.9,48.4z"/>
	<path class="st7" d="M35.4,47.5c-0.3,0-0.6,0.1-1,0.1c-0.1,0.5,0.7,0.7,1.2,0.6C35.7,48,35.6,47.6,35.4,47.5z"/>
	<path class="st7" d="M28.7,44.5c-0.3,0-0.6,0.1-1,0.1c-0.1,0.5,0.7,0.7,1.2,0.6C29.1,45,29,44.7,28.7,44.5z"/>
	<path class="st7" d="M26.2,41.5c-0.3,0-0.6,0.1-1,0.1c-0.1,0.5,0.7,0.7,1.2,0.6C26.5,42,26.4,41.6,26.2,41.5z"/>
	<path class="st7" d="M26.9,47.4c-0.1,0.5,0.7,0.7,1.2,0.6c0.1-0.2,0-0.5-0.2-0.7C27.6,47.3,27.3,47.4,26.9,47.4z"/>
	<path class="st7" d="M25.9,46.8c-0.3,0-0.6,0.1-1,0.1c-0.1,0.5,0.7,0.7,1.2,0.6C26.2,47.2,26.1,46.9,25.9,46.8z"/>
	<path class="st7" d="M28.7,49.5c-0.3,0-0.6,0.1-1,0.1c-0.1,0.5,0.7,0.7,1.2,0.6C29.1,50,29,49.7,28.7,49.5z"/>
	<path class="st7" d="M21.4,40.1c-0.3,0-0.6,0.1-1,0.1c-0.1,0.5,0.7,0.7,1.2,0.6C21.7,40.6,21.6,40.2,21.4,40.1z"/>
	<path class="st7" d="M25,44.8c-0.3,0-0.6,0.1-1,0.1c-0.1,0.5,0.7,0.7,1.2,0.6C25.4,45.3,25.3,45,25,44.8z"/>
	<path class="st7" d="M23.9,46.4c-0.3,0-0.6,0.1-1,0.1c-0.1,0.5,0.7,0.7,1.2,0.6C24.3,46.9,24.2,46.5,23.9,46.4z"/>
	<path class="st7" d="M28.2,45.4c-0.3,0-0.6,0.1-1,0.1c-0.1,0.5,0.7,0.7,1.2,0.6C28.6,45.9,28.5,45.6,28.2,45.4z"/>
	<path class="st7" d="M33,48.2c-0.3,0-0.6,0.1-1,0.1c-0.1,0.5,0.7,0.7,1.2,0.6C33.4,48.7,33.3,48.3,33,48.2z"/>
	<path class="st7" d="M29.5,46c-0.3,0-0.6,0.1-1,0.1c-0.1,0.5,0.7,0.7,1.2,0.6C29.9,46.5,29.8,46.2,29.5,46z"/>
	<path class="st7" d="M29.2,48.2c-0.3,0-0.6,0.1-1,0.1c-0.1,0.5,0.7,0.7,1.2,0.6C29.5,48.7,29.4,48.3,29.2,48.2z"/>
	<path class="st7" d="M29.2,43.1c-0.3,0-0.6,0.1-1,0.1c-0.1,0.5,0.7,0.7,1.2,0.6C29.5,43.6,29.4,43.2,29.2,43.1z"/>
	<path class="st7" d="M29.4,47.7c-0.1,0.5,0.7,0.7,1.2,0.6c0.1-0.2,0-0.5-0.2-0.7C30.1,47.6,29.8,47.7,29.4,47.7z"/>
	<path class="st7" d="M34.5,50c-0.3,0-0.6,0.1-1,0.1c-0.1,0.5,0.7,0.7,1.2,0.6C34.8,50.4,34.7,50.1,34.5,50z"/>
	<path class="st7" d="M35.2,49.4c-0.1,0.5,0.7,0.7,1.2,0.6c0.1-0.2,0-0.5-0.2-0.7C35.9,49.3,35.6,49.4,35.2,49.4z"/>
	<path class="st7" d="M32.1,46.1c-0.3,0-0.6,0.1-1,0.1c-0.1,0.5,0.7,0.7,1.2,0.6C32.5,46.6,32.4,46.3,32.1,46.1z"/>
	<path class="st7" d="M33.9,45.8c-0.3,0-0.6,0.1-1,0.1c-0.1,0.5,0.7,0.7,1.2,0.6C34.3,46.2,34.2,45.9,33.9,45.8z"/>
	<path class="st7" d="M33.5,47.2c-0.3,0-0.6,0.1-1,0.1c-0.1,0.5,0.7,0.7,1.2,0.6C33.9,47.7,33.8,47.4,33.5,47.2z"/>
	<path class="st7" d="M30.6,49.3c-0.3,0-0.6,0.1-1,0.1c-0.1,0.5,0.7,0.7,1.2,0.6C30.9,49.8,30.8,49.4,30.6,49.3z"/>
	<path class="st7" d="M33.3,50.8c-0.3,0-0.6,0.1-1,0.1c-0.1,0.5,0.7,0.7,1.2,0.6C33.7,51.3,33.6,51,33.3,50.8z"/>
	<path class="st7" d="M31,45.1c-0.3,0-0.6,0.1-1,0.1c-0.1,0.5,0.7,0.7,1.2,0.6C31.4,45.6,31.3,45.2,31,45.1z"/>
	<path class="st7" d="M32.6,44.9c-0.3,0-0.6,0.1-1,0.1c-0.1,0.5,0.7,0.7,1.2,0.6C33,45.4,32.9,45,32.6,44.9z"/>
	<path class="st7" d="M24.6,45.4c-0.3,0-0.6,0.1-1,0.1c-0.1,0.5,0.7,0.7,1.2,0.6C25,45.9,24.9,45.6,24.6,45.4z"/>
	<path class="st7" d="M27,48.4c-0.3,0-0.6,0.1-1,0.1c-0.1,0.5,0.7,0.7,1.2,0.6C27.4,48.9,27.3,48.6,27,48.4z"/>
	<path class="st7" d="M21.6,45.1c-0.1,0.5,0.7,0.7,1.2,0.6c0.1-0.2,0-0.5-0.2-0.7C22.3,45,22,45.1,21.6,45.1z"/>
	<path class="st7" d="M24.6,44.1c-0.1,0.5,0.7,0.7,1.2,0.6c0.1-0.2,0-0.5-0.2-0.7C25.3,44,25,44.1,24.6,44.1z"/>
	<path class="st11" d="M54.1,62.4l0.5-0.1c-0.1,0.3-0.3,0.5-0.4,0.8c1.4,0,2.8-1.2,2.9-2.6C55.8,60.3,54.5,61.2,54.1,62.4z"/>
	<path class="st11" d="M57.5,62.8l0.5-0.1c-0.1,0.3-0.3,0.5-0.4,0.8c1.4,0,2.8-1.2,2.9-2.6C59.2,60.7,57.9,61.6,57.5,62.8z"/>
	<path class="st11" d="M53.7,65.7l0.5-0.1c-0.1,0.3-0.3,0.5-0.4,0.8c1.4,0,2.8-1.2,2.9-2.6C55.4,63.6,54.1,64.5,53.7,65.7z"/>
	<path class="st11" d="M56.6,67.1l0.5-0.1c-0.1,0.3-0.3,0.5-0.4,0.8c1.4,0,2.8-1.2,2.9-2.6C58.3,65,57,65.9,56.6,67.1z"/>
	<path class="st4" d="M61.1,65.6l0.5-0.1c-0.1,0.3-0.3,0.5-0.4,0.8c1.4,0,2.8-1.2,2.9-2.6C62.8,63.5,61.5,64.4,61.1,65.6z"/>
	<path class="st11" d="M59.4,69.4l0.5-0.1c-0.1,0.3-0.3,0.5-0.4,0.8c1.4,0,2.8-1.2,2.9-2.6C61.1,67.3,59.8,68.2,59.4,69.4z"/>
	<path class="st11" d="M61.4,72.3l0.5-0.1c-0.1,0.3-0.3,0.5-0.4,0.8c1.4,0,2.8-1.2,2.9-2.6C63.1,70.2,61.8,71.1,61.4,72.3z"/>
	<path class="st11" d="M57.5,73.1L58,73c-0.1,0.3-0.3,0.5-0.4,0.8c1.4,0,2.8-1.2,2.9-2.6C59.2,71,57.9,71.9,57.5,73.1z"/>
	<path class="st11" d="M54.9,71l0.5-0.1c-0.1,0.3-0.3,0.5-0.4,0.8c1.4,0,2.8-1.2,2.9-2.6C56.6,68.9,55.3,69.8,54.9,71z"/>
	<path class="st11" d="M63.1,68.5l0.5-0.1c-0.1,0.3-0.3,0.5-0.4,0.8c1.4,0,2.8-1.2,2.9-2.6C64.8,66.4,63.5,67.3,63.1,68.5z"/>
	<path class="st3" d="M74.9,56.8c-1.9-2.7-5.9-3.1-8.7-4.3c-0.4-0.2-0.8-0.3-1.2-0.3c-0.5,0-0.9,0.2-1.4,0.4
		c-1.3,0.7-2.6,1.5-3.7,2.5c-1.5,1.5-2.1,3.5-1.8,5.6c0.1,1.1,0.5,2.1,1,3.1c0.4,0.3,0.9,0.9,0.9,1.3c0,0,0,0,0,0c0,0,0,0,0,0
		c0,0.5-0.5,0.8-0.3,1.4c0.1,0.3,0.3,0.5,0.5,0.7c0.4,0.4,1,0.9,1.6,0.8c0.4,0,0.9-0.3,1.3-0.1c0.2,0.1,0.3,0.4,0.4,0.6
		c0.3,0.5,0.6,1,1.1,1.4c0.2,0.1,0.4,0.3,0.6,0.3c0.2,0,0.4-0.1,0.6-0.2c0.9-0.5,1.4-0.9,2.4-1c1-0.1,1.8-0.2,2.7-0.6
		c1.8-0.9,3.2-2.5,4.1-4.2c0.7-1.2,1.7-3.5,1.1-4.9C75.8,58.4,75.4,57.6,74.9,56.8z"/>
	<path class="st8" d="M70.5,59c-0.2,0.4-0.6,0.8-1,0.9"/>
	<path class="st8" d="M72.2,58.4c-0.2,0.4-0.5,0.8-0.9,1"/>
	<line class="st8" x1="71.9" y1="60.1" x2="70.6" y2="60.7"/>
	<path class="st8" d="M73.1,60.8c-0.4,0.1-0.7,0.3-1.1,0.4"/>
	<path class="st8" d="M72.8,62.2c-0.4,0.2-0.7,0.4-1.1,0.6"/>
	<path class="st8" d="M74.8,61.5c-0.3,0.2-0.6,0.3-0.9,0.5"/>
	<path class="st8" d="M73.9,59.2c-0.3,0.2-0.5,0.3-0.8,0.5"/>
	<path class="st8" d="M74.8,60.4c-0.4,0-0.7,0.2-1.1,0.3"/>
	<path class="st10" d="M70.2,57.7c0.9-1.2,1.3-2.9,1-4.4c-0.1-0.3-0.3-0.6-0.5-0.4"/>
	<g>
		<path class="st7" d="M75.3,8.4c-1.1,0.3-1.9,1.4-2.2,2.6c-0.3,1.2-0.1,2.4,0.2,3.6c0.2,1,1,4.9,2.4,4.9c1.4,0,1.6-3.8,1.5-4.8
			C77.1,12.5,76.2,10.4,75.3,8.4z"/>
		<path class="st7" d="M80.8,19c1.8-1.4,2.9-3.6,3.5-5.8c-1.9,0-3.9,0.4-5.7,1C72,16.4,75.3,23.3,80.8,19z"/>
		<path class="st9" d="M75.4,14.8C75,14.5,73.5,15,73,15.1c-1.5,0.3-2.9,0.9-4.3,1.5l-1.2,0.7c-2,1.5-2.9,4.3-2.7,6.9
			c0.1,1.3,0.5,2.4,0.8,3.6c0.5,1.8,0.3,1.3-0.1,3c-0.1,0.6,0,1.2,0.5,1.5c1.1,0.7,1.9-0.8,2.9-1c0.9-0.2,1.7,0.1,2.7-0.3
			c2.2-0.8,3.9-2.7,5.1-4.6c0.7-1.2,1.4-2.4,1.5-3.8c0.4-2.9-1.4-4.8-2.5-7.3C75.6,15.1,75.6,14.9,75.4,14.8z"/>
		<path class="st7" d="M68.6,22c-0.2,0.3-0.4,0.7-0.6,1c0.4,0.5,1.1-0.1,1.4-0.7C69.3,22,69,21.9,68.6,22z"/>
		<path class="st7" d="M67.9,25c-0.2,0.3-0.4,0.7-0.6,1c0.4,0.5,1.1-0.1,1.4-0.7C68.6,25,68.2,24.9,67.9,25z"/>
		<path class="st7" d="M70.8,24.2c-0.2,0.3-0.4,0.7-0.6,1c0.4,0.5,1.1-0.1,1.4-0.7C71.5,24.3,71.2,24.1,70.8,24.2z"/>
	</g>
	<g>
		<path class="st9" d="M174.7,72.2c-3.3-1.2-6.6-3.5-9.3-5.7c-3.3-2.6-6.2-5.9-8.6-9.6c-0.5-0.7-1.5-1.5-2-0.9
			c-0.1,0.2-0.2,0.4-0.2,0.6c-1.5,7.9,1.7,13.3,7.9,18c1.3,1,2.6,1.9,4.1,2.4c1.2,0.4,2.5,0.5,3.7,0.6c1.7,0.1,11.5-0.3,10.8-3.7
			C180.9,72.8,175.6,72.6,174.7,72.2z"/>
		<path class="st7" d="M155.5,54c-0.2-0.2-0.5-0.3-0.7-0.1l0.4,3.5c0.3,0.1,0.6-0.1,0.8-0.3l0.2,0.4c-0.1-0.9-0.2-1.8-0.4-2.7
			C155.8,54.5,155.7,54.2,155.5,54z"/>
		<path class="st12" d="M155.5,60.7c1.6,5.4,5.4,10.2,10.4,12.8c5,2.6,11,3.1,16.3,1.3"/>
	</g>
	<path class="st13" d="M170.6,46.6c-0.3-0.7,0-1.6,0.5-2.2c0.5-0.6,1.1-1.1,1.6-1.6c1.8-1.9,1.9-4.5,3.4-6.5
		c0.8,3.2,1.6,6.3,3.1,9.3"/>
	<path class="st11" d="M172.9,44.9c-0.8-0.2-1.6,0.2-2.4-0.1c-0.8-0.2-1.6-0.7-2.4,0.2c-0.6,0.7-0.6,1.6-0.6,2.5
		c0,0.5,0,1.1,0.4,1.5c0.2,0.3,0.5,0.5,0.8,0.6c0.4,0.2,0.7,0.5,1.1,0.5c0.6,0.1,1.3-0.1,1.8-0.5c0.5-0.4,0.9-0.9,1.3-1.5
		c0.4-0.5,0.7-1,0.8-1.7C173.8,45.8,173.5,45.1,172.9,44.9z"/>
	<path class="st11" d="M180.9,44.8c-0.8-0.2-1.6,0.2-2.4-0.1c-0.8-0.2-1.6-0.6-2.4,0.2c-0.6,0.7-0.6,1.6-0.6,2.5
		c0,0.5,0,1.1,0.4,1.5c0.2,0.3,0.5,0.5,0.8,0.6c0.4,0.2,0.7,0.5,1.1,0.5c0.6,0.1,1.3-0.1,1.8-0.5c0.5-0.4,0.9-0.9,1.3-1.5
		c0.4-0.5,0.7-1,0.8-1.7C181.8,45.7,181.5,45,180.9,44.8z"/>
	<path class="st7" d="M172.7,32.8c-0.3,0.9,0.2,1.8,0.8,2.5c0.4,0.5,2.1,2.3,2.7,1.9c0.9-0.5-0.2-2.6-0.6-3
		C174.9,33.4,173.8,33,172.7,32.8z"/>
	<g>
		<g>
			<g>
				<defs>
					
						<rect id="SVGID_3_" x="175.9" y="34" transform="matrix(1.023255e-03 -1 1 1.023255e-03 141.0413 213.0297)" width="2.4" height="3.8"/>
				</defs>
				<clipPath id="SVGID_4_">
					<use xlink:href="#SVGID_3_"  style="overflow:visible;"/>
				</clipPath>
				<path class="st14" d="M176.8,35c-0.8,0.4-1.3,1.1-1.6,1.9c0.6,0.4,1.4,0.2,2-0.1c0.4-0.1,2-1,1.8-1.7
					C178.9,34.3,177.2,34.8,176.8,35z"/>
			</g>
		</g>
	</g>
	<path class="st7" d="M171.5,46c0,0.3,0,0.5,0,0.8c0.4,0.1,0.6-0.5,0.6-0.9C171.9,45.7,171.7,45.8,171.5,46z"/>
	<path class="st11" d="M28.5,7.4c-1.1,0.5-1.8,1-2.6,1.8c-1.9,1.7-4.7,2.8-6.9,4c-1.2,0.7-2.4,1.3-3.6,2c-1,0.6-2.5,1.1-3.3,1.9
		c2.7,2.7,6.2,5.3,10.1,4.9c1.1-0.1,2.1-0.3,3.1-0.7c0.9-0.4,1.7-1.1,2.4-1.8c1.8-1.8,3.6-3.8,4.6-6.2c1-2.4,1.1-5.3-0.3-7.5
		C32.1,5.9,28.9,7.3,28.5,7.4z"/>
	<path class="st7" d="M32.9,7.6c0.2,2.1,0,4.3-0.7,6.3c-0.8,2.5-2.3,4.9-4.4,6.5s-4.7,2.5-7.3,2.2c-2.9-0.3-4.7-2.3-7.2-3.4
		c0.5,3.1,5.7,5.6,8.3,6.3c3.1,0.8,6.6-0.2,9-2.4c2.5-2.1,4-5.3,4.5-8.6C35.5,11.9,35,9,32.9,7.6z"/>
	<path class="st7" d="M16.1,16c0,0.1,0,0.2,0,0.2c0,0,0-0.1,0.1-0.1L16.1,16z"/>
	<path class="st7" d="M15.7,17.2c0,0.4,0.1,0.8,0.5,1c0.1-0.6,0-1.3-0.1-2C16,16.5,15.8,16.9,15.7,17.2z"/>
	<path class="st7" d="M17.5,18c0,0.4,0.1,0.8,0.5,1c0.1-0.6,0-1.3-0.1-2C17.8,17.3,17.6,17.7,17.5,18z"/>
	<path class="st7" d="M17.9,16.8c0,0.1,0,0.2,0,0.2c0,0,0-0.1,0.1-0.1L17.9,16.8z"/>
	<path class="st7" d="M19.7,18c-0.2,0.3-0.4,0.7-0.4,1.1c0,0.4,0.1,0.8,0.5,1C19.9,19.4,19.8,18.6,19.7,18L19.7,18z"/>
	<path class="st7" d="M22.9,18c0,0.4,0.1,0.8,0.5,1c0.1-0.6,0-1.3-0.1-2C23.2,17.3,23,17.7,22.9,18z"/>
	<path class="st7" d="M23.3,16.8c0,0.1,0,0.2,0,0.2C23.4,17,23.4,16.9,23.3,16.8L23.3,16.8z"/>
	<path class="st7" d="M19.1,16.6c0,0.4,0.1,0.8,0.5,1c0.1-0.6,0-1.3-0.1-2C19.4,15.9,19.2,16.3,19.1,16.6z"/>
	<path class="st7" d="M19.5,15.4c0,0.1,0,0.2,0,0.2C19.6,15.6,19.6,15.5,19.5,15.4L19.5,15.4z"/>
	<path class="st7" d="M21.4,16.1c0,0.1,0,0.2,0,0.2c0,0,0-0.1,0.1-0.1L21.4,16.1z"/>
	<path class="st7" d="M21,17.3c0,0.4,0.1,0.8,0.5,1c0.1-0.6,0-1.3-0.1-2C21.3,16.6,21.1,17,21,17.3z"/>
	<path class="st7" d="M22,15c0,0.4,0.1,0.8,0.5,1c0.1-0.6,0-1.3-0.1-2C22.3,14.3,22.1,14.7,22,15z"/>
	<path class="st7" d="M22.4,13.8c0,0.1,0,0.2,0,0.2c0,0,0-0.1,0.1-0.1L22.4,13.8z"/>
	<path class="st7" d="M27.4,11.2c0,0.4,0.1,0.8,0.5,1c0.1-0.6,0-1.3-0.1-2C27.7,10.5,27.5,10.9,27.4,11.2z"/>
	<path class="st7" d="M27.8,10c0,0.1,0,0.2,0,0.2c0,0,0-0.1,0.1-0.1L27.8,10z"/>
	<path class="st7" d="M26.7,13.6c0,0.4,0.1,0.8,0.5,1c0.1-0.6,0-1.3-0.1-2C27,12.9,26.8,13.3,26.7,13.6z"/>
	<path class="st7" d="M27.1,12.4c0,0.1,0,0.2,0,0.2c0,0,0-0.1,0.1-0.1L27.1,12.4z"/>
	<path class="st7" d="M25,16.9c0,0.4,0.1,0.8,0.5,1c0.1-0.6,0-1.3-0.1-2C25.3,16.2,25.1,16.6,25,16.9z"/>
	<path class="st7" d="M25.4,15.7c0,0.1,0,0.2,0,0.2c0,0,0-0.1,0.1-0.1L25.4,15.7z"/>
	<path class="st7" d="M24.7,13.5c0,0.4,0.1,0.8,0.5,1c0.1-0.6,0-1.3-0.1-2C25,12.8,24.8,13.2,24.7,13.5z"/>
	<path class="st7" d="M25.1,12.3c0,0.1,0,0.2,0,0.2c0,0,0-0.1,0.1-0.1L25.1,12.3z"/>
	<path class="st7" d="M28.7,13.8c0,0.4,0.1,0.8,0.5,1c0.1-0.6,0-1.3-0.1-2C29,13.1,28.8,13.5,28.7,13.8z"/>
	<path class="st7" d="M29.1,12.6c0,0.1,0,0.2,0,0.2c0,0,0-0.1,0.1-0.1L29.1,12.6z"/>
	<path class="st7" d="M29.4,10.3c0,0.4,0.1,0.8,0.5,1c0.1-0.6,0-1.3-0.1-2C29.7,9.6,29.5,10,29.4,10.3z"/>
	<path class="st7" d="M29.8,9.1c0,0.1,0,0.2,0,0.2C29.9,9.3,29.9,9.2,29.8,9.1L29.8,9.1z"/>
	<path class="st11" d="M134.4,66.5c-1.3,0.4-2-0.2-3.2-0.4c-4.3-0.5-4.1,4.3-1.8,7.2c1,1.3,2.1,2.4,3.3,3.2c1.3,0.8,2.8,1.2,4.1,0.7
		c0.2-0.1,0.3-0.2,0.5-0.3s0.3-0.3,0.4-0.5c1.5-2.6,1.9-6.2,0.8-9.2C137.5,64.4,136,66.1,134.4,66.5z"/>
	<path class="st7" d="M136.1,65.1c-0.2-0.3-0.5-0.6-0.8-0.8c-0.8-0.4-1.6-0.8-2.5-0.5c-1.1,0.4-1.8,1.1-2.7,1.8
		c-0.9,0.7-1.3,1.8-1.2,3c0.6-0.2,1.1-0.6,1.4-1.1c0.1-0.1,0.1-0.1,0.2-0.2c0.1,0,0.2,0,0.3,0.1c0.3,0.2,0.6,0.5,0.8,0.9
		c0.1,0.1,0.1,0.2,0.2,0.2c0.2,0,0.3-0.1,0.3-0.3l0.8-1.3c0.2,0.4,0.5,0.9,0.9,1.2c0.1,0.1,0.2,0.2,0.3,0.1c0.1,0,0.1-0.2,0.2-0.3
		c0.1-0.3,0.2-0.7,0.2-1c0-0.1,0-0.2,0.1-0.3c0.2-0.1,0.4,0.1,0.6,0.3c0.4,0.4,1,0.4,1.6,0.5c0.1,0,0.2,0,0.3-0.1
		c0.1-0.1,0.1-0.3,0-0.4C136.9,66.2,136.6,65.6,136.1,65.1z"/>
	<path class="st13" d="M133.1,64.7c-0.6-1.5,0.2-3.4,1.7-4"/>
	<path class="st7" d="M132,70.5c-0.3,0.7,0,1.5,0.6,2c0.3-0.6,0.1-1.4-0.3-2H132z"/>
	<path class="st7" d="M134.8,69.5c-0.3,0.7,0,1.5,0.6,2c0.3-0.6,0.1-1.4-0.3-2H134.8z"/>
	<path class="st7" d="M133.7,72c-0.3,0.7,0,1.5,0.6,2c0.3-0.6,0.1-1.4-0.3-2H133.7z"/>
	<path class="st7" d="M132.7,73.4c-0.3,0.7,0,1.5,0.6,2c0.3-0.6,0.1-1.4-0.3-2H132.7z"/>
	<path class="st7" d="M130.4,70.5c-0.3,0.7,0,1.5,0.6,2c0.3-0.6,0.1-1.4-0.3-2H130.4z"/>
	<path class="st3" d="M55.1,10.3c-0.4,0-0.7,0.3-1,0.2l0.6,0.1c-0.7-0.2-1.6,0.1-2,0.7c-0.4,0.6-0.2,1.6,0.4,2
		c0.5,0.3,1.2,0.3,1.8,0c0.7-0.3,1.3-0.8,1.4-1.5C56.4,11.1,55.8,10.3,55.1,10.3z"/>
	<path class="st4" d="M55.4,10.5c-0.1,0-0.1,0.1-0.2,0v0.1c-0.2,0-0.3,0-0.4,0.1c-0.1,0.1,0,0.3,0.1,0.4c0.1,0.1,0.3,0.1,0.4,0
		c0.1-0.1,0.3-0.2,0.3-0.3C55.6,10.6,55.5,10.5,55.4,10.5z"/>
	<path class="st3" d="M55.9,13.7c-0.4,0-0.7,0.3-1,0.2l0.6,0.1c-0.7-0.2-1.6,0.1-2,0.7c-0.4,0.6-0.2,1.6,0.4,2
		c0.5,0.3,1.2,0.3,1.8,0c0.7-0.3,1.3-0.8,1.4-1.5C57.2,14.5,56.6,13.7,55.9,13.7z"/>
	<path class="st4" d="M56.1,13.9c-0.1,0-0.1,0.1-0.2,0V14c-0.2,0-0.3,0-0.4,0.1c-0.1,0.1,0,0.3,0.1,0.4c0.1,0.1,0.3,0.1,0.4,0
		c0.1-0.1,0.3-0.2,0.3-0.3C56.3,14,56.2,13.9,56.1,13.9z"/>
	<path class="st3" d="M50.7,13c-0.4,0-0.7,0.3-1,0.2l0.6,0.1c-0.7-0.2-1.6,0.1-2,0.7c-0.4,0.6-0.2,1.6,0.4,2c0.5,0.3,1.2,0.3,1.8,0
		c0.7-0.3,1.3-0.8,1.4-1.5C52,13.8,51.4,13,50.7,13z"/>
	<path class="st4" d="M50.9,13.2c-0.1,0-0.1,0.1-0.2,0v0.1c-0.2,0-0.3,0-0.4,0.1s0,0.3,0.1,0.4c0.1,0.1,0.3,0.1,0.4,0
		c0.1-0.1,0.3-0.2,0.3-0.3C51.1,13.3,51,13.2,50.9,13.2z"/>
	<path class="st3" d="M59.8,11.3c-0.4,0-0.7,0.3-1,0.2l0.6,0.1c-0.7-0.2-1.6,0.1-2,0.7c-0.4,0.6-0.2,1.6,0.4,2
		c0.5,0.3,1.2,0.3,1.8,0c0.7-0.3,1.3-0.8,1.4-1.5C61.1,12.1,60.5,11.3,59.8,11.3z"/>
	<path class="st4" d="M60,11.5c-0.1,0-0.1,0.1-0.2,0v0.1c-0.2,0-0.3,0-0.4,0.1c-0.1,0.1,0,0.3,0.1,0.4c0.1,0.1,0.3,0.1,0.4,0
		c0.1-0.1,0.3-0.2,0.3-0.3C60.2,11.6,60.1,11.5,60,11.5z"/>
	<path class="st3" d="M13.9,65.5c0.7,4.6,9.6-1.5,8.7-2.4C21,61.4,13.4,61.9,13.9,65.5z"/>
	<path class="st3" d="M13.9,65.5c0.7,4.6,9.6-1.5,8.7-2.4C21,61.4,13.4,61.9,13.9,65.5z"/>
	<path class="st9" d="M19.5,68.3C16.7,65,8.2,62.6,5.6,67.4c-2.8,5.3,1.2,12.3,6.7,13.4c0.9,0.2,1.9,0.2,2.8,0
		c1-0.3,1.8-0.8,2.6-1.5c0.9-0.8,1.7-1.7,2.2-2.8c0.7-1.6,0.7-3.3,0.7-5c0-0.6,0-1.2-0.2-1.7C20.2,69.2,19.9,68.7,19.5,68.3z"/>
	<path class="st15" d="M7.2,69c0,0.4-0.2,0.9-0.5,1.2"/>
	<path class="st15" d="M8.4,67.8c0,0.4-0.1,0.9-0.4,1.2"/>
	<path class="st15" d="M8.8,69.4c-0.3,0.3-0.6,0.7-0.9,1"/>
	<path class="st15" d="M10.1,69.5c-0.2,0.2-0.5,0.5-0.7,0.7"/>
	<path class="st15" d="M10.3,70.7c-0.2,0.3-0.5,0.6-0.7,0.9"/>
	<line class="st15" x1="11.8" y1="69.4" x2="11.2" y2="70.2"/>
	<path class="st15" d="M10.2,67.8C10,68,9.9,68.3,9.7,68.5"/>
	<path class="st15" d="M11.4,68.5c-0.3,0.2-0.6,0.4-0.8,0.7"/>
	<path class="st10" d="M12.8,66.7c1.1-1.5,1.6-3.3,1.5-5.1"/>
	<path class="st9" d="M108.9,52c-0.4,0.2-0.9,0.3-1.3,0.5c-2.5,1-4.8,2.5-6.7,4.4c-0.2,0.2-0.4,0.5-0.6,0.8c-0.6,1.1-1,2.6-1.6,3.6
		c-0.6,1.1-1.2,2.3-1.2,3.6c0.1,1.5,1,2.7,2.1,3.6c1.1,0.8,2.4,1.3,3.8,1.7c0.7,0.2,1.5,0.4,2.2,0.2c0.5-0.2,1-0.5,1.4-0.8
		c2.3-1.8,4.1-4,4.9-6.8c0.9-2.8,1.4-5.7,0.7-8.6C112.2,52.4,110.8,51.4,108.9,52z"/>
	<path class="st16" d="M103.5,67.4c0.3-0.3,0.6-0.5,1-0.7c0.1,0.4,0.1,0.7,0,1.1"/>
	<path class="st16" d="M100.7,66.3c0.3-0.3,0.6-0.5,1-0.7c0.1,0.4,0.1,0.7,0,1.1"/>
	<path class="st16" d="M102.7,65.1c0.3-0.3,0.6-0.5,1-0.7c0.1,0.4,0.1,0.7,0,1.1"/>
	<path class="st16" d="M104.9,64.1c0.3-0.3,0.6-0.5,1-0.7c0.1,0.4,0.1,0.7,0,1.1"/>
	<path class="st16" d="M104.7,61.9c0.3-0.3,0.6-0.5,1-0.7c0.1,0.4,0.1,0.7,0,1.1"/>
	<path class="st16" d="M104.6,56.7c0.3-0.3,0.6-0.5,1-0.7c0.1,0.4,0.1,0.7,0,1.1"/>
	<path class="st16" d="M108.6,58.5c0.3-0.3,0.6-0.5,1-0.7c0.1,0.4,0.1,0.7,0,1.1"/>
	<path class="st16" d="M106.8,57.4c0.3-0.3,0.6-0.5,1-0.7c0.1,0.4,0.1,0.7,0,1.1"/>
	<path class="st16" d="M102.7,58.4c0.3-0.3,0.6-0.5,1-0.7c0.1,0.4,0.1,0.7,0,1.1"/>
	<path class="st16" d="M104.8,59.3c0.3-0.3,0.6-0.5,1-0.7c0.1,0.4,0.1,0.7,0,1.1"/>
	<path class="st16" d="M106.7,60.1c0.3-0.3,0.6-0.5,1-0.7c0.1,0.4,0.1,0.7,0,1.1"/>
	<path class="st16" d="M108.8,61.3c0.3-0.3,0.6-0.5,1-0.7c0.1,0.4,0.1,0.7,0,1.1"/>
	<path class="st16" d="M107.2,63.3c0.3-0.3,0.6-0.5,1-0.7c0.1,0.4,0.1,0.7,0,1.1"/>
	<path class="st16" d="M102.2,63.1c0.3-0.3,0.6-0.5,1-0.7c0.1,0.4,0.1,0.7,0,1.1"/>
	<path class="st16" d="M101.8,61c0.3-0.3,0.6-0.5,1-0.7c0.1,0.4,0.1,0.7,0,1.1"/>
	<path class="st16" d="M106,66c0.3-0.3,0.6-0.5,1-0.7c0.1,0.4,0.1,0.7,0,1.1"/>
	<path class="st16" d="M100.3,63.9c0.3-0.3,0.6-0.5,1-0.7c0.1,0.4,0.1,0.7,0,1.1"/>
	<path class="st7" d="M112.6,48.6c-0.1,0.3-0.4,0.6-0.6,0.4c-0.1-0.1-0.1-0.3-0.1-0.5c0.3-2.4,1.5-4.9,0.7-7.2
		c-0.9,2.9-1.6,5.7-2.3,8.6c-0.2-1-0.5-1.9-0.8-2.9c-0.2-0.4-0.6-0.9-0.9-0.6c-0.2,0.2-0.1,2.2-0.2,2.7c-0.2,2.1-0.9,3.1-0.1,5.2
		c0.1,0.1,0.1,0.2,0.2,0.3c0.4,0.4,0.9-0.5,1.5-0.4c0,0.6,0.1,1.3,0.2,1.9c1.3-0.5,2.7-0.9,3.9-1.5c1.6-0.7,3.2-1.4,4.8-2.1
		c0.3-0.2,0.7-0.4,0.9-0.7c0.2-0.3,0.2-0.9-0.2-1c-1.2,0.3-2.4,0.7-3.6,1c0.7-1.1,1.7-2.1,2.8-2.9c0.6-0.5,1.5-1.3,1.1-2
		c-1.9,0.8-3.6,1.9-5.1,3.2c2.1-3.2,4.2-6.5,5.2-10.2C117.1,42.3,114.5,45.3,112.6,48.6z"/>
	<g>
		<path class="st3" d="M139.8,39.5c-0.2-0.1-0.4-0.2-0.5-0.2c-0.1,0-0.2,0-0.4,0L139.8,39.5z"/>
		<path class="st3" d="M139.3,39.3c0.2,0.1,0.4,0.1,0.5,0.2l-0.9-0.2C139,39.3,139.2,39.3,139.3,39.3c-1.5-0.5-3.3,0.7-4.3,2
			c-0.8,1.1-1.4,2.4-0.9,3.7c0.5,1.3,1.9,1.8,3.2,2.1s2.8,0.4,4-0.2c1.7-0.8,2.7-3.1,2.1-4.9C142.9,40.3,141,39.1,139.3,39.3z"/>
		<path class="st3" d="M147.4,45.2c-0.2-0.1-0.4-0.2-0.5-0.2c-0.1,0-0.2,0-0.4,0L147.4,45.2z"/>
		<path class="st3" d="M146.9,45c0.2,0.1,0.4,0.1,0.5,0.2l-0.9-0.2C146.6,45,146.8,45,146.9,45c-1.5-0.5-3.3,0.7-4.3,2
			c-0.8,1.1-1.4,2.4-0.9,3.7s1.9,1.8,3.2,2.1c1.3,0.3,2.8,0.4,4-0.2c1.7-0.8,2.7-3.1,2.1-4.9C150.5,46,148.6,44.8,146.9,45z"/>
		<path class="st9" d="M147.2,46c-0.2-0.1-0.4-0.2-0.5-0.2c-0.1,0-0.2,0-0.3,0L147.2,46z"/>
		<path class="st9" d="M146.7,45.8c0.2,0,0.4,0.1,0.5,0.2l-0.8-0.2C146.5,45.8,146.6,45.8,146.7,45.8c-1.2-0.3-2.5,0.6-3.3,1.6
			c-0.6,0.8-1.1,1.9-0.7,2.9c0.4,1,1.5,1.5,2.5,1.7c1.1,0.2,2.2,0.3,3.2-0.2c1.4-0.7,2.1-2.4,1.6-3.9
			C149.6,46.5,148.1,45.6,146.7,45.8z"/>
		<path class="st17" d="M137.1,40.5c-0.1,0.1-0.3,0-0.4-0.1l-0.7-0.8"/>
		<path class="st17" d="M139.1,39.7c-0.1,0.1-0.3,0-0.4-0.1c-0.2-0.3-0.5-0.5-0.7-0.8"/>
		<path class="st17" d="M136.1,40.8c-0.1,0.1-0.3,0-0.4-0.1c-0.2-0.3-0.5-0.5-0.7-0.8"/>
		<path class="st17" d="M137.7,39.6c0.3,0.3,0.6,0.6,0.9,1"/>
		<path class="st17" d="M137.4,41.2c0.3,0.3,0.6,0.7,0.9,1"/>
		<path class="st17" d="M138.2,41.2c0.2,0.2,0.4,0.4,0.6,0.5"/>
		<path class="st17" d="M139.3,40.7c0.2,0.2,0.4,0.5,0.5,0.7"/>
		<path class="st17" d="M139.8,39.4c0.2,0.3,0.5,0.5,0.7,0.8"/>
		<path class="st17" d="M140.1,40.6c0.2,0.3,0.3,0.5,0.5,0.8"/>
		<path class="st17" d="M141.3,40.9c0.2,0.3,0.5,0.6,0.7,0.9"/>
		<path class="st17" d="M135.9,41.9c0.3,0.3,0.5,0.7,0.8,1"/>
		<path class="st17" d="M136.8,41.9c0.2,0.4,0.4,0.7,0.7,1"/>
		<path class="st17" d="M135.1,42.5c0.3,0.2,0.7,0.5,1,0.8"/>
		<path class="st17" d="M133.8,43.3c0.3,0.3,0.5,0.5,0.8,0.8"/>
		<path class="st17" d="M134.6,41.3c0.3,0.3,0.6,0.6,0.8,0.9"/>
		<path class="st17" d="M133.9,41.9c0.3,0.3,0.6,0.7,0.9,1"/>
		<path class="st17" d="M141,43.8c0.1,0.4,0.3,0.7,0.6,1"/>
		<path class="st17" d="M140.1,44.5c0.2,0.3,0.5,0.6,0.6,0.9"/>
		<path class="st17" d="M142.3,44.3c0.4,0.3,0.8,0.6,1.3,0.8"/>
		<path class="st17" d="M143.3,43c0.3,0,0.6-0.1,0.8-0.1"/>
		<path class="st17" d="M142.9,41.5c0.3-0.1,0.7-0.2,1-0.4"/>
		<path class="st17" d="M141.8,39.9c0.1-0.1,0.3-0.2,0.4-0.2"/>
		<path class="st17" d="M134.4,45.2c-0.4,0.1-0.7,0.3-1.1,0.4"/>
		<path class="st17" d="M135.6,45.9c-0.3,0.4-0.6,0.7-0.9,1.2l0.2-0.1"/>
		<path class="st17" d="M137.3,46.5c-0.1,0.2-0.3,0.5-0.5,0.7"/>
		<path class="st17" d="M136.6,43.9c-0.3,0.2-0.6,0.5-1,0.7"/>
		<path class="st17" d="M137.4,44.6c-0.2,0.3-0.4,0.6-0.4,0.9"/>
		<path class="st17" d="M138.3,44.2c0,0.4-0.1,0.7-0.1,1.1"/>
		<path class="st17" d="M138.9,43.5c0.1,0.4,0.2,0.8,0.3,1.1"/>
		<path class="st17" d="M139.1,45.9c-0.2,0.3-0.2,0.7,0,1"/>
		<path class="st17" d="M137.9,46.5c-0.1,0.3-0.1,0.7-0.2,1.1"/>
		<path class="st17" d="M140,46.7c0,0.3,0,0.5,0,0.8c0,0,0,0.1,0.1,0.1c0,0,0.1,0,0.1-0.1"/>
		<path class="st17" d="M141,46.2c0.2,0.3,0.4,0.5,0.6,0.7"/>
		<path class="st17" d="M141.7,45.6c0.3,0.2,0.6,0.4,0.9,0.5"/>
		<line class="st17" x1="140" y1="42.9" x2="140.4" y2="42.4"/>
		<path class="st17" d="M141.2,42.9c0.3,0,0.6,0,0.9,0"/>
		<path class="st17" d="M142.1,42.3c0.2-0.1,0.4-0.2,0.7-0.3"/>
		<path class="st17" d="M142.3,43.3c0.2,0.1,0.5,0.3,0.7,0.4"/>
		<path class="st17" d="M138.7,43.1c-0.2-0.1-0.5-0.1-0.7,0"/>
		<path class="st17" d="M137.7,43.6c-0.1,0.2-0.2,0.3-0.4,0.4"/>
		<path class="st17" d="M136.3,45c-0.3,0.1-0.5,0.2-0.8,0.3"/>
		<path class="st17" d="M136.4,46c-0.1,0.2-0.3,0.4-0.4,0.6"/>
		<path class="st17" d="M139.1,45.3c0.2,0,0.5,0.1,0.7,0.2"/>
		<path class="st1" d="M146.1,48.6c-0.2,0.1-0.3,0.3-0.4,0.4c-0.1,0.2-0.2,0.4-0.2,0.6c0,0.1,0.1,0.2,0.2,0.3
			c0.4,0.3,1.2,0.1,1.3-0.4c0.1-0.4-0.2-1-0.7-1.2l0.3,0.3C146.4,48.6,146.3,48.6,146.1,48.6z"/>
		<path class="st1" d="M146.8,48.4c-0.2-0.1-0.4-0.1-0.5-0.1l0,0c0.4,0.2,0.8,0.8,0.7,1.2c-0.1,0.5-0.9,0.7-1.3,0.4
			c-0.1-0.1-0.2-0.2-0.2-0.3c0-0.2,0.1-0.4,0.2-0.6c0.1-0.1,0.2-0.3,0.4-0.4c0.2,0,0.3,0,0.5,0l-0.3-0.3c-0.2-0.1-0.5-0.1-0.6,0.2
			c-0.1,0.1-0.1,0.3-0.2,0.4c-0.1,0.2-0.1,0.3-0.2,0.5c0,0.1-0.1,0.2-0.1,0.3c0,0.1,0.1,0.3,0.2,0.4c0.1,0.1,0.2,0.2,0.3,0.2
			c0.1,0,0.1,0,0.2,0c0.3-0.1,0.6-0.1,0.8-0.3c0.3-0.2,0.5-0.7,0.4-1.1C147,48.7,146.9,48.5,146.8,48.4z"/>
		<path class="st7" d="M147.1,47.6c0.2,0,0.4-0.2,0.4-0.5C147.3,47.2,147.1,47.4,147.1,47.6z"/>
		<path class="st7" d="M144.6,50.7c0.2-0.1,0.4-0.3,0.4-0.5C144.8,50.3,144.6,50.5,144.6,50.7z"/>
		<path class="st7" d="M144.3,49.5c0.2,0.2,0.4,0.1,0.7,0C144.8,49.4,144.5,49.4,144.3,49.5z"/>
		<path class="st7" d="M146.6,47.7c0.2-0.1,0.2-0.4,0.1-0.6C146.6,47.2,146.5,47.5,146.6,47.7z"/>
		<path class="st7" d="M146.1,47.7c0.1-0.2,0-0.4-0.1-0.6C145.9,47.3,145.9,47.5,146.1,47.7z"/>
		<path class="st7" d="M147.8,49.2c0.1,0.3,0.4,0.4,0.6,0.3C148.3,49.3,148,49.2,147.8,49.2z"/>
		<path class="st7" d="M146.4,51.4c0.2-0.2,0.2-0.4,0.2-0.6C146.4,50.9,146.3,51.2,146.4,51.4z"/>
		<path class="st7" d="M147.1,51c0.1-0.2,0.1-0.4-0.1-0.6C146.9,50.6,146.9,50.8,147.1,51z"/>
		<path class="st7" d="M145,47.7c0.1,0.3,0.3,0.5,0.5,0.5C145.5,48,145.3,47.8,145,47.7z"/>
		<path class="st7" d="M147.7,48.3c0.3,0.1,0.6,0,0.8-0.2C148.1,48,147.8,48,147.7,48.3z"/>
		<path class="st7" d="M144.4,48.5c0.2,0.3,0.4,0.4,0.7,0.4C145,48.5,144.7,48.4,144.4,48.5z"/>
		<path class="st7" d="M147.5,50.1c0,0.3,0.3,0.6,0.6,0.6C148,50.3,147.8,50.1,147.5,50.1z"/>
	</g>
</g>
</svg>
