<?xml version="1.0" encoding="utf-8"?>
<!-- Generator: Adobe Illustrator 24.2.0, SVG Export Plug-In . SVG Version: 6.00 Build 0)  -->
<svg version="1.1" id="Calque_1" xmlns="http://www.w3.org/2000/svg" xmlns:xlink="http://www.w3.org/1999/xlink" x="0px" y="0px"
	 viewBox="0 0 184.3 99.2" style="enable-background:new 0 0 184.3 99.2;" xml:space="preserve">
<style type="text/css">
	.st0{fill-rule:evenodd;clip-rule:evenodd;fill:#FEFCF9;}
	.st1{fill:#76AE9D;}
	.st2{fill-rule:evenodd;clip-rule:evenodd;fill:#FFFFFF;}
	.st3{fill:#FCDC08;}
	.st4{fill:#FFFFFF;}
	.st5{fill:#EFBC47;}
	.st6{fill:#2C2623;}
	.st7{fill:#FBDDD8;}
	.st8{fill:#F18C91;}
	.st9{fill:none;stroke:#76AE9D;stroke-width:0.7737;stroke-linecap:round;stroke-linejoin:round;stroke-miterlimit:10;}
	.st10{fill:none;stroke:#76AE9D;stroke-width:0.6872;stroke-linecap:round;stroke-linejoin:round;stroke-miterlimit:10;}
	.st11{fill:none;stroke:#FFFFFF;stroke-width:0.2083;stroke-linecap:round;stroke-linejoin:round;stroke-miterlimit:10;}
	.st12{fill:none;stroke:#2C2623;stroke-width:0.2043;stroke-linecap:round;stroke-linejoin:round;stroke-miterlimit:10;}
	.st13{fill:none;stroke:#F18C91;stroke-width:0.6872;stroke-linecap:round;stroke-linejoin:round;stroke-miterlimit:10;}
	.st14{fill:none;stroke:#4F917D;stroke-width:0.2888;stroke-linecap:round;stroke-linejoin:round;stroke-miterlimit:10;}
	.st15{fill:none;stroke:#76AE9D;stroke-width:0.6047;stroke-linecap:round;stroke-linejoin:round;stroke-miterlimit:10;}
	.st16{fill:none;stroke:#EFBC47;stroke-width:0.6409;stroke-linecap:round;stroke-linejoin:round;stroke-miterlimit:10;}
	.st17{fill:none;stroke:#FBDDD8;stroke-width:0.8955;stroke-linecap:round;stroke-linejoin:round;stroke-miterlimit:10;}
	.st18{fill:none;stroke:#FBDDD8;stroke-width:0.75;stroke-linecap:round;stroke-linejoin:round;stroke-miterlimit:10;}
	.st19{fill:none;stroke:#FFFFFF;stroke-width:0.2415;stroke-linecap:round;stroke-linejoin:round;stroke-miterlimit:10;}
	.st20{fill:none;stroke:#2C2623;stroke-width:0.1992;stroke-linecap:round;stroke-linejoin:round;stroke-miterlimit:10;}
	.st21{fill:#D6EADD;}
	.st22{fill:#DAA331;}
	.st23{fill:none;stroke:#2C2623;stroke-width:0.1865;stroke-linecap:round;stroke-linejoin:round;stroke-miterlimit:10;}
	.st24{fill:none;stroke:#76AE9D;stroke-width:0.8955;stroke-linecap:round;stroke-linejoin:round;stroke-miterlimit:10;}
	.st25{fill:none;stroke:#FFFFFF;stroke-width:0.2022;stroke-linecap:round;stroke-linejoin:round;stroke-miterlimit:10;}
	.st26{fill:none;stroke:#2C2623;stroke-width:0.1982;stroke-linecap:round;stroke-linejoin:round;stroke-miterlimit:10;}
	.st27{fill:none;stroke:#FFFFFF;stroke-width:0.1147;stroke-linecap:round;stroke-linejoin:round;stroke-miterlimit:10;}
	.st28{fill:none;stroke:#FFFFFF;stroke-width:0.1348;stroke-linecap:round;stroke-linejoin:round;stroke-miterlimit:10;}
	.st29{fill:#E84723;}
	.st30{fill:none;stroke:#EFBC47;stroke-width:0.815;stroke-linecap:round;stroke-linejoin:round;stroke-miterlimit:10;}
	.st31{fill:#ECDABB;}
</style>
<path class="st0" d="M184.1,39.6v59.8h-102H-0.2V49.2V0.1h65.7h118.5V39.6z"/>
<g>
	<g>
		<path class="st1" d="M161.6,68.5c-0.1,0-0.2-0.1-0.2-0.2s0-0.2,0.1-0.2c0.3-0.1,0.8-0.3,0.8-0.3c0.1,0,0.2,0,0.3,0.1
			c0,0.1,0,0.2-0.1,0.3C162.5,68.2,162,68.4,161.6,68.5L161.6,68.5z"/>
	</g>
	<g>
		<path class="st1" d="M160.8,67.1h-0.1c-0.1-0.1-0.1-0.2,0-0.3c0.4-0.5,0.5-0.5,0.6-0.5s0.1,0,0.1,0.1c0.1,0.1,0.1,0.2,0,0.3l0,0
			c0,0-0.1,0.1-0.4,0.4C161,67.1,160.9,67.1,160.8,67.1z"/>
	</g>
	<g>
		<path class="st1" d="M159.2,66.4L159.2,66.4c-0.2-0.1-0.2-0.2-0.2-0.3c0.1-0.1,0.1-0.3,0.1-0.4c0-0.2,0.1-0.4,0.2-0.5
			c0-0.1,0.2-0.1,0.3-0.1s0.1,0.2,0.1,0.3c-0.1,0.1-0.1,0.3-0.1,0.4s-0.1,0.3-0.1,0.5C159.4,66.3,159.3,66.4,159.2,66.4z"/>
	</g>
	<g>
		<path class="st2" d="M153.7,68.4c0.2-0.2,0.7-0.4,1-0.8c0.5-0.6,0.7-1.5,1-2.2c0.1-0.3,0.4-0.7,0.7-0.5c0.2,0.1,0.3,0.3,0.3,0.5
			c0.1,0.3,0.2,0.6,0.4,0.9c0.3,0.5,0.7,1,1.2,1.3c0.4,0.2,0.7,0.2,1.1,0.3c0.2,0,0.5,0.1,0.7,0.3c0.3,0.4,0.2,1,0.4,1.4
			c0.1,0.3,0.4,0.6,0.8,0.8c0.3,0.1,0.7,0.1,0.7,0.6c0,0.7-1,1-1.3,1.6c-0.2,0.3-0.3,0.7-0.5,1c-0.4,0.4-0.9,0.4-1.1-0.1
			c-0.2-0.5-0.3-1-0.9-1.3c-0.4-0.2-0.9-0.4-1.3-0.1c-0.3,0.2-0.4,0.6-0.8,0.4c-0.5-0.3-0.4-1.1-0.6-1.5c-0.3-0.6-0.8-0.8-1.3-1.1
			C153.7,69.4,153.1,69,153.7,68.4"/>
	</g>
	<g>
		<path class="st3" d="M156.3,71.2c0-0.1,0-0.1,0-0.2c0-0.3,0-0.5-0.1-0.8s-0.2-0.6-0.4-0.9c-0.2-0.2-0.5-0.4-0.8-0.5
			c-0.1,0-0.4-0.1-0.5-0.2c0.4-0.1,0.8-0.3,1.1-0.7c0.4-0.6,0.6-1.3,0.7-2c0.1,0,0.2,0.3,0.2,0.4c0.1,0.4,0.2,0.8,0.4,1.1
			c0.2,0.3,0.4,0.5,0.7,0.7c0.2,0.1,0.4,0.1,0.6,0.2c-0.2,0.2-0.4,0.4-0.6,0.6c-0.3,0.3-0.6,0.6-0.8,1c-0.1,0.3-0.2,0.6-0.2,0.9
			C156.6,70.9,156.5,71.1,156.3,71.2C156.3,71.3,156.3,71.2,156.3,71.2"/>
	</g>
	<g>
		<path class="st3" d="M159.7,72.8c0-0.4,0-0.9-0.3-1.2c-0.2-0.2-0.4-0.3-0.6-0.4c-0.1-0.1-0.3-0.1-0.4-0.2c0.1-0.1,0.3-0.1,0.4-0.2
			c0.3-0.1,0.4-0.3,0.5-0.5c0.1-0.3,0.2-0.6,0.3-0.9c0-0.1,0.1-0.3,0.1-0.4c0.2,0.4,0.2,0.9,0.4,1.3c0.1,0.2,0.3,0.3,0.5,0.4
			c0.1,0,0.4,0.1,0.5,0.2c-0.3,0.3-0.7,0.5-1,0.9C159.9,72.1,159.9,72.5,159.7,72.8L159.7,72.8"/>
	</g>
	<g>
		<path class="st4" d="M119.1,33.4c-0.7,0.3-1.5,0.4-2.2,0.3c-1.5-0.2-2.8-0.7-4.3-0.9c-1.4-0.2-2.9-0.3-4.4,0.2
			c-1.6,0.6-2.9,1.9-3.8,3.2c-2.4,3.7-1.1,8.6,2.5,10.2c1.7,0.7,4,0.8,5.9,0.3c1.6-0.4,3-1.4,4.3-2.4c3.2-2.4,5.7-5.4,5.9-9.3
			c0-0.5-1.3-1.4-1.8-1.6C120.4,33,120,33,119.1,33.4"/>
		<path class="st5" d="M121.7,34.4c-0.3,0.2-0.6,0.6-0.9,0.8c-0.7,0.4-1.9,0.5-2.7,0.4c-1.3-0.2-2.6-0.8-3.9-1.1
			c-1.7-0.4-3.5-0.5-5.2,0c-2,0.6-4,2.2-4.2,4.4c-0.3,2.6,1,5.2,3.4,6.3c1.9,0.9,4.1,0.3,5.8-0.5c1.8-0.9,3.2-2.3,4.5-3.8
			c1.2-1.4,2.2-2.9,2.8-4.6c0.2-0.6,0.4-1.1,0.5-1.7C121.7,34.6,121.8,34.4,121.7,34.4"/>
		<path class="st6" d="M108.6,42.4C108.6,42.4,108.7,42.5,108.6,42.4c-0.2-0.1-2.4-1-2-1.4c0.2-0.2,0.8,0.2,1,0.2
			c0.3,0.1,0.7,0.3,1,0.5c-0.2-0.4-0.4-1.5-0.1-1.9c0.4-0.5,0.8,0.5,0.8,0.8c0.1,0.6,0.1,1.2,0.2,1.7s0.6,0.9,0.8,1.4
			c0.2,0.6-0.4,0.2-0.7,0C109.3,43.4,108.9,42.9,108.6,42.4"/>
		<path class="st6" d="M114.6,40.8c-0.1-0.2-0.3-0.4-0.5-0.6c-0.3-0.4-0.5-0.9-0.9-1.2c-0.3-0.3-0.8-0.4-1.2-0.7
			c-0.2-0.2-0.8-0.9-0.2-0.7c0.5,0.1,0.9,0.6,1.4,0.7c-0.2-0.4-0.3-1.1-0.3-1.5c0-0.2-0.1-0.6,0.1-0.7c0.5-0.2,0.7,1.8,0.7,2.1
			c0,0.7,0.1,1,0.5,1.5c0.2,0.2,0.5,0.6,0.6,0.9C115.1,40.9,114.7,40.8,114.6,40.8"/>
		<path class="st6" d="M115.7,38.3c0,0-0.1-0.1-0.1-0.2c-0.4-0.5-0.8-1-1.2-1.6c-0.1-0.2-0.6-1.3,0-1.2c0.3,0.1,0.6,0.6,0.7,0.8
			c0.2,0.3,0.4,0.7,0.6,1.1c0.2,0.4,0.5,1,0.3,1.2C115.9,38.4,115.8,38.3,115.7,38.3"/>
		<path class="st6" d="M116.4,38.8c-0.3,0.2-0.1,0.7,0.3,0.7c0.2,0,0.3-0.4,0.2-0.6c-0.2-0.2-0.5-0.1-0.7,0"/>
		<path class="st6" d="M112.3,40.2c-0.4-0.4-0.8-0.7-1.3-1c-0.2-0.1-0.6-0.5-0.9-0.4c-0.5,0.2,0.2,1.9,0.3,2.1
			c0.2,0.8,0.7,1.9,1,2.2c0.5,0,0.5-0.3,0.4-0.6c0-0.2-0.2-0.6-0.1-0.8s0.5-0.4,0.7-0.4c0.4,0,0.7,0.5,1.1,0.4
			C113.6,41,112.7,40.5,112.3,40.2 M111.8,40.5c0,0.2-0.5,0.6-0.6,0.6c-0.1-0.2-0.2-0.5-0.3-0.8c-0.1-0.2-0.2-0.4-0.2-0.6
			c0.2-0.1,0.5,0.2,0.6,0.3C111.4,40.2,111.8,40.4,111.8,40.5"/>
		<path class="st4" d="M120.7,62.7c-0.5,0.6-0.6,1.6-1.1,2.3c-0.6,0.9-1.3,1.6-2.2,2.3c-1,0.7-2.1,1.5-3.4,1.4s-1.8-0.9-2.4-1.9
			c-0.3-0.5-0.9-1.9-1.7-1.3c-0.4,0.3-0.6,0.9-0.8,1.3c-0.3,0.5-0.6,1-1.1,1.5c-1.3,1.1-2.8,0.4-4-0.5c-1.1-0.9-1.8-2.2-2.2-3.6
			c-0.4-1.5-0.7-3.7-0.1-5.3c0.6-1.3,2-2.4,3.2-3.3c1.2-1,2.8-2,4.4-2.1c1.3,0,2.1,0.8,2.3,1.9c0.1,0.6-0.3,1.5,0,2
			c0.4,0.6,1.5,0.6,2.2,0.6c0.9,0,1.9,0.1,2.9,0.1c1.5-0.1,2.7-1.7,4-2.2c1.6-0.7,3.6-1,4.7,0.4C127.4,59,122.9,61.9,120.7,62.7"/>
		<path class="st7" d="M105.5,66.6L105.5,66.6c-1.2-0.8-1.9-2.3-2.3-3.7c-0.2-0.6-0.3-1.3-0.2-1.9c0.1-0.3,0.2-0.8,0.5-1
			c0.4-0.2,1.1,0.2,1.4,0.4c0.4,0.2,0.6,0.6,0.9,1c0.7-0.3,1.2-1.2,2-1.4c0.6-0.1,1.4,0,1.6,0.6c0.2,0.5,0,1-0.2,1.5
			c-0.3,0.7-0.6,1.3-1.1,2c-0.5,0.7-1,1.4-1.6,2C106.2,66.4,105.8,66.9,105.5,66.6"/>
		<path class="st7" d="M114.5,67.2L114.5,67.2c-1.2-0.8-1.8-2.4-2.2-3.8c-0.2-0.6-0.3-1.3-0.1-1.9c0.1-0.3,0.3-0.8,0.5-1
			c0.4-0.2,1.1,0.3,1.4,0.5c0.4,0.3,0.6,0.6,0.8,1c0.7-0.3,1.2-1.2,2-1.4c0.6-0.1,1.4,0,1.6,0.7c0.2,0.5,0,1-0.2,1.4
			c-0.3,0.7-0.7,1.3-1.2,1.9c-0.6,0.7-1.1,1.3-1.7,1.9C115.2,67.1,114.9,67.5,114.5,67.2"/>
		<path class="st8" d="M114.2,67.5c-0.7-0.7-1.3-1.6-1.7-2.4c-0.6-1.3-1.3-3.3-0.5-4.7c0.5-0.8,1.5-0.8,2.2-0.2
			c0.5,0.4,0.8,0.8,1,1.4c0.6-0.8,1.9-1.6,3-1.4c1.7,0.3,0.7,2.7,0.3,3.6c-0.4,0.7-0.9,1.4-1.5,2c-0.5,0.5-1,1.1-1.6,1.5
			c-0.2,0.1-0.4,0.4-0.6,0.4c0-0.4-0.3-0.6-0.1-0.9c0.7-0.6,1.7-1.4,2.3-2.2c0.4-0.6,2.4-3.3,0.5-3.4c-1.1-0.1-1.8,1-2.6,1.5
			c-0.2-0.6-0.6-1.6-1.3-1.8c-1.5-0.5-1,2-0.9,2.7c0.2,1.1,1.1,2.4,1.9,3.2c0,0,0.1,0.4,0.1,0.9c-0.3,0-0.7-0.3-0.8-0.5"/>
		<path class="st8" d="M105.3,67.2c-0.7-0.7-1.4-1.5-1.8-2.4c-0.6-1.3-1.4-3.3-0.7-4.7c0.4-0.9,1.4-0.8,2.2-0.3
			c0.5,0.4,0.8,0.8,1.1,1.4c0.6-0.8,1.9-1.6,2.9-1.5c1.7,0.2,0.8,2.6,0.4,3.5c-0.4,0.7-0.9,1.4-1.4,2c-0.4,0.5-1,1.2-1.5,1.6
			c-0.2,0.1-0.4,0.4-0.6,0.5c-0.1-0.4-0.4-0.6-0.1-0.9c0.7-0.7,1.7-1.5,2.2-2.3c0.4-0.6,2.2-3.3,0.4-3.4c-1.1,0-1.7,1.1-2.5,1.6
			c-0.2-0.6-0.7-1.5-1.3-1.7c-1.6-0.4-0.9,2-0.8,2.7c0.3,1.1,1.2,2.4,2,3.1c0,0,0.2,0.4,0.1,0.9c-0.3,0-0.7-0.3-0.8-0.4"/>
		<path class="st8" d="M118.8,61.1c0.5-0.6,1.1-1.3,1.7-1.9c0.7-0.7,1.6-1.6,2.6-1.9c0.5-0.1,1.1,0,1.2,0.6c0.1,0.3-0.1,0.8-0.3,0.9
			c-0.7,0.5-0.3-0.7-0.4-0.9c-0.5-0.5-1.8,1.1-2.1,1.4c-0.7,0.7-1.4,1.4-2.1,2c-0.3,0.2-0.5,0.6-0.7,0.8c-0.1-0.2-0.2-0.6-0.2-0.8
			C118.5,61.2,118.8,61.1,118.8,61.1"/>
		<path class="st8" d="M104.1,59.2c0.5-0.6,1.1-1.3,1.7-1.9c0.7-0.7,1.6-1.7,2.5-2c0.5-0.2,1.1-0.1,1.3,0.5c0.1,0.3,0,0.8-0.3,1
			c-0.7,0.5-0.3-0.7-0.5-0.9c-0.5-0.5-1.8,1.2-2,1.5c-0.7,0.7-1.3,1.4-2,2.1c-0.3,0.3-0.4,0.6-0.7,0.8c-0.1-0.2-0.7-0.1-0.7-0.3
			C103.3,59.7,103.7,59.6,104.1,59.2"/>
		<path class="st8" d="M109.5,60.9c0.8-0.6,2-0.9,2.5,0c0.2,0.3,0.1,0.9,0.1,1.3c-0.1-0.5-0.7-1.1-1.2-1.1c-0.3,0-0.6,0.1-0.9,0.3
			c-0.2,0.1-0.4,0.4-0.6,0.4C109.4,61.4,109.4,61.3,109.5,60.9"/>
		<path class="st4" d="M104.4,63.3c-0.3-0.1-0.4-0.7-0.4-1c0-0.2,0.3-0.9,0.4-0.4c0,0.4,0.1,0.8,0.2,1.1c0.1,0.2,0.2,0.3,0.2,0.5
			C104.6,63.4,104.5,63.3,104.4,63.3"/>
		<path class="st4" d="M113.3,63.3c-0.3-0.1-0.4-0.7-0.4-1c0-0.2,0.3-0.9,0.4-0.4c0,0.4,0.1,0.8,0.2,1.1c0.1,0.2,0.2,0.3,0.2,0.5
			C113.5,63.5,113.4,63.3,113.3,63.3"/>
		<path class="st9" d="M65.9,7.8c-0.5-0.4-1.8-0.6-2.4-1.1"/>
		<path class="st9" d="M68.7,5.8c-0.5-0.6-1-1.4-1.7-1.9"/>
		<path class="st9" d="M70.7,4c-0.2-0.6-0.3-1.4-0.5-2"/>
		<path class="st10" d="M99.2,60.8c-1-0.1-2.1,0.3-3.2,0.2"/>
		<path class="st10" d="M98.9,57.9c-0.7-0.3-1.5-0.9-2.2-1"/>
		<path class="st10" d="M99.9,54.8c-0.6-0.4-1.3-0.8-1.9-1.2"/>
		<path class="st4" d="M67.9,29.3c-1-0.7-1.6-1.3-2.1-2c-1.4-2.5-2-5.4-0.9-8.3c0.5-1.4,1.6-2.6,2.8-3.5c0.6-0.4,1.4-0.7,1.6-1.4
			c0.2-0.8-0.1-1.7,0-2.5c0.2-1.3,1.7-3.1,2.8-3.8c1.9-1.3,3.4-2.1,5.8-1.6c2.3,0.5,3.1,2.6,3.1,4.9c0,1.2-0.3,2.8-1,3.8
			c-0.5,0.9-1.1,1.7-1.3,2.7c-0.2,0.9,0.3,1.7,0.5,2.6c0.2,1.3-0.2,2.6-0.9,3.7c-1.6,2.8-3.1,5.1-6.2,6C70.8,30.1,68.9,30,67.9,29.3
			"/>
		<path class="st1" d="M72.3,16c0.1,0,0.1,0.2,0.1,0.1c-0.4-1.5-1.6-2.8-2.1-4.3c0.6,0.5,1.2,1.3,1.9,1.8c0.5-1.1-0.4-3.4-0.5-4.7
			c0.6,0.8,1.1,1.8,1.9,2.5h0.1c0.4-1.2,0.7-2.6,1.4-3.7c0.4,0.5,0.4,1.9,0.4,2.5C76,9,76.9,7.4,77.9,6.5c0.2,1.3-0.8,3.3-1.3,4.4
			c0.8,0,1.7-0.4,2.4-0.6c-0.5,1-1.9,1.2-2.4,2.2c0.6-0.1,1.5-0.2,2.1,0c-0.4,0.8-1.7,0.9-2,1.7c0.4,0.3,0.9,0.2,1.4,0.5
			c-0.7,0.8-1.7,1.3-2.8,1.8C73.9,17.1,73.1,17.4,72.3,16"/>
		<path class="st3" d="M74.1,16.3c-0.7-1.5-2.8-1.1-3.9-0.7c-2.8,1.1-3.7,3.7-4.1,6.4c-0.6,3.5,2.5,7.9,6.6,6.2
			c3.6-1.6,7.6-9.2,2.6-12.3c-1.1-0.7-2.8-0.7-4-0.7"/>
		<path class="st11" d="M66.4,20.4c0-0.1,0.3-0.3,0.4-0.3c0.9-0.7,1.8-1.4,2.7-2.1c1-0.7,2-1.3,3.1-1.8c0.3-0.2,0.7-0.3,1-0.6"/>
		<path class="st11" d="M66.2,23.3c0-0.1,1.1-0.8,1.2-0.9c1.8-1.3,3.8-2.4,5.7-3.6c1-0.6,2.1-1.4,3.1-2"/>
		<path class="st11" d="M66.8,25.7c0.3-0.4,0.9-0.6,1.3-0.8c1.6-1,3.2-1.9,4.8-2.8c1.2-0.7,2.4-1.4,3.6-2.3c0.3-0.2,0.6-0.4,0.8-0.6
			"/>
		<path class="st11" d="M68.6,27.7c2.1-1.1,4.3-2.1,6.3-3.3c0.6-0.4,1.4-0.8,2-1.3"/>
		<path class="st11" d="M66.4,20.4l-0.1-0.1c0.4,0.5,0.7,1,0.9,1.6c0.5,1.2,1.2,2.4,1.8,3.6c0.3,0.6,0.6,1.3,1.1,1.9
			c0.2,0.2,0.5,0.5,0.6,0.8"/>
		<path class="st11" d="M67.6,17.5c0.5,0.2,1.1,2,1.4,2.6c0.8,1.5,1.7,2.9,2.5,4.4c0.5,1.1,1.2,2.1,1.7,3.1"/>
		<path class="st11" d="M70.4,15.7c0,0,2.8,5.6,3.1,6.2c0.6,1.3,1,2.7,1.7,3.9"/>
		<path class="st11" d="M73.6,15.2c1,2.4,2.7,4.8,3.6,7.3"/>
		<path class="st6" d="M68.8,22.1c-0.4-0.1-0.5,0.7-0.2,1c0.4,0.3,0.8-0.1,0.9-0.4c0.1-0.2,0-0.5-0.2-0.6C69,21.9,68.8,22,68.8,22.1
			"/>
		<path class="st6" d="M73.1,23.5c-0.4-0.1-0.5,0.7-0.2,1c0.4,0.3,0.8-0.1,0.9-0.4c0.1-0.2,0-0.5-0.2-0.6
			C73.4,23.3,73.1,23.4,73.1,23.5"/>
		<path class="st12" d="M70,23.8c0,0.4,0.2,0.8,0.6,0.8c0.3,0.1,0.7-0.1,0.9-0.3"/>
		<path class="st13" d="M77.3,62.6c0.2-0.6,0.8-1.2,0.9-1.8"/>
		<path class="st13" d="M78.5,65.1c0.1,0.1,0.1-0.1,0.2-0.2c0.1-0.2,0.3-0.5,0.3-0.8"/>
		<path class="st13" d="M80.6,63.1c0.1-0.5,0.4-0.8,0.6-1.3"/>
		<path class="st13" d="M81.1,65.2c0.1,0.1,0-0.1,0.1-0.2c0.2-0.3,0.4-0.7,0.5-1.1"/>
		<path class="st13" d="M81.7,67.8c0.2-0.3,0.4-0.8,0.5-1.1"/>
		<path class="st13" d="M83.5,65.1c0.1-0.3,0.4-0.6,0.5-0.9"/>
		<path class="st13" d="M84.6,67.1c-0.1-0.1,0.4-0.8,0.5-1"/>
		<path class="st13" d="M83,62.1c0.3-0.4,0.6-0.8,0.8-1.3"/>
		<path class="st13" d="M80.8,59.5c0.3-0.2,0.5-0.7,0.8-0.9"/>
		<path class="st13" d="M85.5,62.6c0.1-0.1,0.3-0.4,0.3-0.6"/>
		<path class="st13" d="M76,66.3c0.2-0.3,0.2-0.6,0.3-0.8"/>
		<path class="st13" d="M79,68.7c0.1-0.2,0.2-0.6,0.3-0.9"/>
		<path class="st13" d="M74.5,63.5c0.1-0.4,0.4-0.7,0.5-1.1"/>
		<path class="st13" d="M77.1,59.3c0.2-0.4,0.5-0.7,0.8-1.1"/>
		<path class="st13" d="M4.2,28.7c0.2-0.6,0.8-1.2,0.9-1.8"/>
		<path class="st13" d="M5.3,31.2c0.1,0.1,0.1-0.1,0.2-0.2c0.1-0.2,0.3-0.5,0.3-0.8"/>
		<path class="st13" d="M7.4,29.2c0.1-0.5,0.4-0.8,0.6-1.3"/>
		<path class="st13" d="M7.9,31.3c0.1,0.1,0-0.1,0.1-0.2c0.2-0.3,0.4-0.7,0.5-1.1"/>
		<path class="st13" d="M8.6,34c0.2-0.3,0.4-0.8,0.5-1.1"/>
		<path class="st13" d="M10.4,31.2c0.1-0.3,0.4-0.6,0.5-0.9"/>
		<path class="st13" d="M11.5,33.3c-0.1-0.1,0.4-0.8,0.5-1"/>
		<path class="st13" d="M9.9,28.3c0.3-0.4,0.6-0.8,0.8-1.3"/>
		<path class="st13" d="M7.7,25.7C8,25.5,8.2,25,8.5,24.8"/>
		<path class="st13" d="M12.4,28.7c0.1-0.1,0.3-0.4,0.3-0.6"/>
		<path class="st13" d="M2.9,32.4c0.2-0.3,0.2-0.6,0.3-0.8"/>
		<path class="st13" d="M5.9,34.8c0.1-0.2,0.2-0.6,0.3-0.9"/>
		<path class="st13" d="M1.3,29.6c0.1-0.4,0.4-0.7,0.5-1.1"/>
		<path class="st13" d="M4,25.4c0.2-0.4,0.5-0.7,0.8-1.1"/>
		<path class="st4" d="M115.4,22.8c-0.2,1.1-1.1,2.1-2.1,2.5c-2.7,1.2-5.3-0.4-7.2-2.3c-2.1-2-2.8-4.8-3-7.7
			c-0.1-1.3-0.2-2.5-0.4-3.8c-0.1-1-0.4-2.1-0.2-3.1c0.3-1.4,1.5-1.6,2.7-1.7c1.7-0.2,3.7-0.1,5.4,0.2c4.4,0.9,9.6,4.2,9.6,9.2
			C120.3,19,118.7,22.3,115.4,22.8"/>
		<path class="st1" d="M114.1,19.8c-0.1-0.2-0.5-0.4-0.6-0.1c-0.1,0.2,0.1,0.7,0.1,0.9c0,0.5-0.1,1.2-0.3,1.6
			c-0.6,1.3-1.9,1.2-3.1,0.8c-0.6-0.2-1.2-0.5-1.7-0.8c-0.3-0.2-0.9-0.5-1-0.9c0.5-0.2,1.1-0.2,1.5-0.5c0.7-0.6,0.7-1.9-0.4-1.7
			c-0.7,0.1-1.4,1.3-2.2,0.7c-0.8-0.6-1.3-1.6-1.6-2.5c0.8,0.7,1.9,0.9,2.9,0.8c0.3,0,1-0.2,1-0.6c-0.1-0.5-1.2-0.6-1.5-0.7
			c-0.5-0.1-1,0-1.5,0.1c-0.2,0-0.6,0.2-0.8,0c-0.5-0.3-0.5-2.1-0.3-2.5c0.3,0.2,0.4,0.5,0.7,0.7c0.4,0.3,1.2,0.6,1.7,0.5
			c0.3,0,0.5-0.1,0.5-0.4c0-0.5-1-0.8-1.3-0.9c-0.4-0.1-0.8-0.1-1.1-0.4c-0.3-0.4-0.2-1-0.2-1.4c0-0.6,0.1-1.2,0.1-1.9
			c0-0.3-0.1-0.7,0-1c0.6,0.2,1.1,0,1.7-0.3c0.8-0.3,1.7-0.6,2.1,0.5c0.3,0.7,0.1,1.6,0.6,2.2c0.3,0.4,0.6,0.5,0.8,0
			c0.3-0.7-0.2-1.7-0.6-2.2c-0.2-0.2-0.3-0.4-0.6-0.5c-0.1-0.1-0.2,0-0.3-0.1c0.2-0.1,0.7,0,0.9,0c0.5,0,1.1,0,1.6,0.1
			s1,0.3,1.3,0.7c0.4,0.6,0.1,1.8-0.1,2.4c-0.1,0.5-0.5,2.8,0.6,2.4c0.5-0.2,0.8-1.1,0.9-1.6c0.4-1.1,0.2-2.5-0.9-3
			c0.4,0.1,0.9,0.3,1.3,0.5c0.6,0.3,1.3,0.6,1.7,1.2c0.8,1.1-0.3,2.4-0.7,3.4c-0.1,0.3-0.4,1,0.1,1s1-0.8,1.2-1.1
			c0.5-0.8,0.7-1.5,0.1-2.4c1.2,1.6,2.1,2.9,1.4,5C117.7,19.7,115.6,20.9,114.1,19.8"/>
		<path class="st14" d="M113.5,19.6c-0.2-0.7-1-1.5-1.5-2.1c-1-1.3-2.1-2.6-3.2-3.7c-0.7-0.7-1.4-1.4-2.1-2
			c-0.3-0.3-0.8-0.4-1.1-0.8"/>
		<path class="st4" d="M61.3,51.8c0.6-1.2,1.8-2.4,2.5-3c1.2-1.1,2.6-2,4.1-2.5c1.6-0.5,3.4-0.8,5.1-0.8s3.1,0.5,4.6,1.4
			c3,1.8,5.3,4.8,6.4,8.2c0.3,1.1-0.3,1.5-1.1,2c-1.7,1.2-3.3,2.4-5.3,2.9c-0.7,0.2-1.7,0.5-2.4,0.3c-0.7-0.2-1-1.1-1.4-1.7
			c-0.5-0.7-1.1-1.6-2.1-1.7c-1.2-0.1-1.5,1.3-1.4,2.3s0.5,2,0.3,3c-0.3,1-1.1,1.7-2.1,2.2c-1.1,0.5-2.7,1.1-4,1.2
			c-0.7,0-2.9,0.2-3.1-0.4c-1-2.6-1.7-5.8-1.6-8.3C60,55,60.8,52.6,61.3,51.8"/>
		<path class="st5" d="M66.9,62.7c0.2,0.5,1.8-0.2,2.1-0.5c0,0-0.1-0.3-0.2-0.8c-0.2-1.1-0.4-2.3-0.3-3.4c0-1.5,0.6-3.3,1.9-4.2
			c1.1-0.7,2.5-0.5,3.5,0.3c1.2,1,1.7,2.7,2.2,4.1c0.8-0.1,1.7-0.6,2.5-1c0-0.5-0.2-1-0.3-1.5c-0.4-1.3-1-2.5-1.9-3.4
			c-1.8-1.9-4.4-2.9-6.8-1.7c-2.8,1.4-4.3,4.2-4.1,7.3c0.1,1.2,0.4,2.2,0.8,3.3C66.3,61.8,66.6,62.2,66.9,62.7"/>
		<path class="st1" d="M65.7,63.3C65.7,63.4,65.6,63.4,65.7,63.3c0.5-0.2,1.2,0.1,1.8-0.3c0,0-0.4-1.6-0.5-2.1
			c-0.3-1-0.3-2.1-0.2-3.2c0.1-1.7,0.6-3.8,2.3-4.7c0.8-0.4,1.7-0.8,2.6-0.8s1.7,0.4,2.4,0.8c1.4,0.9,2.7,3.2,3.2,5.1
			c0,0,0.2,0,0.9-0.4c0.4-0.2,1.1-0.5,1.1-1c0-0.2,0.2-0.5,0.1-0.6c-0.3-0.4-0.5-0.9-0.8-1.3c-0.5-0.7-1-1.4-1.7-2
			c-1.2-1.2-2.6-2.1-4.2-2.7c-2.4-0.8-5.2-0.4-6.9,1.6c-1.4,1.7-2,4.1-2.2,6.2C63.5,59.8,64,62.1,65.7,63.3"/>
		<path class="st7" d="M64.3,63.9c0,0,0,0.3,0,0.2c0.4-0.1,1.8-0.4,1.8-0.8c0-0.2-0.1-0.5-0.2-0.6c-0.1-0.5-0.3-0.9-0.4-1.4
			c-0.2-0.9-0.3-1.9-0.4-2.8c-0.1-1.7,0.1-3.2,1-4.6c0.7-1.1,2-2.1,3.2-2.5c0.6-0.2,1.2-0.4,1.9-0.3c1.2,0.1,2.2,0.3,3.2,1
			s1.8,1.5,2.4,2.5c0.4,0.6,0.8,1,1.1,1.6c0.1,0.3,0.8,1.3,0.8,1.3c0.2,0,1.7-0.9,2.1-1.3c0.1-0.1-0.4,0-0.4-0.2s-0.2-0.6-0.3-0.7
			c-0.2-0.6-0.5-1.1-0.8-1.6c-1.1-1.8-2.5-3.8-4.6-4.4c-2.5-0.7-5.5-0.7-7.7,0.7c-3.1,2-4.1,5.6-3.7,9.1c0.2,1.3,0.5,2.5,0.8,3.8
			C64.4,63.2,64.1,63.5,64.3,63.9"/>
		<path class="st8" d="M64.8,64c-1.2-2.5-1.7-5.9-0.8-8.6c0.8-2.6,2.8-4.6,5.4-5.5c3-1.1,6.2-0.1,8.2,2.3c1.1,1.3,2.1,2.7,2.8,4.3
			c0.6-0.2,1.3-0.5,1.7-0.8c-1.4-4.4-6.1-8.4-10.8-8.1c-3,0.2-5.6,1.9-7.5,4.2c-2.2,2.7-2.2,6.6-1.5,9.9c0.2,0.7,0.3,1.5,0.6,2.2
			c0,0.1,0.1,0.4,0.3,0.5C63.4,64.5,64.2,64,64.8,64"/>
		<path class="st15" d="M99.7,39c-0.3-0.7-0.6-1.6,0-2.3c0.3-0.4,0.9-0.6,1.2-1c-1.8-1.5,0.4-4.7,1.9-2.9c-0.3-0.8,0.3-1.9,1.1-2.2
			c0.5-0.2,1.7,0,1.6,0.5"/>
		<g>
			<g>
				<path class="st1" d="M9.4,95.4c-0.1,0-0.1,0-0.2,0C9,95.3,8.9,95.1,9,94.9c0.1-0.3,0.5-0.8,0.9-1.3c0.1-0.2,0.3-0.3,0.3-0.4
					c0.1-0.2,0.3-0.2,0.5-0.1s0.2,0.3,0.2,0.5c0,0.1-0.1,0.2-0.4,0.5c-0.3,0.3-0.7,0.9-0.8,1.1C9.7,95.3,9.6,95.4,9.4,95.4z"/>
			</g>
			<g>
				<path class="st1" d="M13.6,94.1c-0.1,0-0.1,0-0.2-0.1c-0.2-0.1-0.2-0.4-0.1-0.5l0.1-0.2c0.3-0.4,0.6-0.9,1-1.3
					c0.1-0.2,0.4-0.2,0.5,0c0.2,0.1,0.2,0.4,0,0.5c-0.3,0.3-0.6,0.8-0.9,1.2l-0.1,0.2C13.9,94,13.7,94.1,13.6,94.1z"/>
			</g>
			<g>
				<path class="st1" d="M13.7,98.5c-0.1,0-0.3-0.1-0.3-0.2c-0.1-0.2,0-0.4,0.2-0.5s0.6-0.6,0.9-0.9c0.2-0.2,0.4-0.5,0.5-0.6
					c0.1-0.2,0.4-0.2,0.5,0c0.2,0.1,0.2,0.4,0,0.5c-0.2,0.2-0.3,0.4-0.5,0.6c-0.4,0.5-0.8,0.9-1.1,1.1
					C13.8,98.5,13.8,98.5,13.7,98.5z"/>
			</g>
			<g>
				<path class="st1" d="M17.2,94.5c-0.1,0-0.2-0.1-0.3-0.2c-0.1-0.2-0.1-0.4,0.1-0.5c0.1-0.1,0.3-0.3,0.4-0.6
					c0.3-0.4,0.5-0.8,0.8-1c0.2-0.1,0.4-0.1,0.5,0.1s0.1,0.4-0.1,0.5c-0.2,0.2-0.5,0.6-0.7,0.9S17.5,94.3,17.2,94.5
					C17.3,94.4,17.3,94.5,17.2,94.5z"/>
			</g>
			<g>
				<path class="st1" d="M13.3,89.7c-0.1,0-0.1,0-0.2,0c-0.2-0.1-0.3-0.3-0.2-0.5c0.2-0.6,0.7-1,1.1-1.5l0.1-0.1
					c0.1-0.2,0.4-0.2,0.5,0c0.2,0.1,0.2,0.4,0,0.5v0.2c-0.4,0.4-0.8,0.8-1,1.2C13.6,89.6,13.4,89.7,13.3,89.7z"/>
			</g>
			<g>
				<path class="st1" d="M16.6,89.7c-0.1,0-0.2,0-0.3-0.1c-0.1-0.1-0.1-0.4,0-0.5l0,0c0-0.1,0.1-0.1,0.1-0.2
					c0.1-0.1,0.1-0.2,0.3-0.2c0.3-0.4,0.7-0.7,1-1c0.2-0.1,0.4-0.1,0.5,0c0.1,0.2,0.1,0.4,0,0.5c-0.4,0.4-0.8,0.8-1.3,1.3l-0.1,0.1
					C16.8,89.7,16.7,89.7,16.6,89.7z"/>
			</g>
			<g>
				<path class="st1" d="M17.5,98.3c-0.1,0-0.2,0-0.3-0.1c-0.1-0.2-0.1-0.4,0-0.5c0.2-0.1,0.3-0.3,0.5-0.5c0.3-0.3,0.6-0.7,0.9-0.8
					c0.2-0.1,0.4-0.1,0.5,0.1s0.1,0.4-0.1,0.5s-0.5,0.4-0.7,0.7c-0.2,0.2-0.4,0.4-0.6,0.6C17.6,98.3,17.5,98.3,17.5,98.3z"/>
			</g>
			<g>
				<path class="st1" d="M20.6,91.6c-0.1,0-0.2-0.1-0.3-0.1c-0.1-0.2-0.1-0.4,0.1-0.5c0.5-0.4,1.1-0.9,1.2-1
					c0.1-0.2,0.4-0.2,0.5-0.1c0.2,0.1,0.2,0.4,0.1,0.5c-0.2,0.3-1.1,1-1.3,1.2C20.8,91.6,20.7,91.6,20.6,91.6z"/>
			</g>
			<g>
				<path class="st1" d="M20.5,95c-0.1,0-0.2,0-0.2-0.1c-0.2-0.1-0.2-0.4-0.1-0.5s0.2-0.2,0.2-0.3c0.2-0.3,0.4-0.5,0.6-0.7
					c0.1-0.2,0.4-0.2,0.5,0c0.2,0.1,0.2,0.4,0,0.5c-0.2,0.2-0.3,0.4-0.5,0.7c-0.1,0.1-0.2,0.2-0.3,0.4C20.8,94.9,20.7,95,20.5,95z"
					/>
			</g>
		</g>
		<path class="st16" d="M175,39c0.8,0.2,1.7,0.6,1.8,1.6c0.1,0.6-0.1,1.2-0.1,1.7c2.5-0.4,3.4,3.6,1,3.6c0.8,0.3,1.3,1.6,1,2.4
			c-0.2,0.5-1.2,1.4-1.5,0.9"/>
		<path class="st17" d="M169.6,85.4c-0.3,0.5-0.4,1.9-0.3,2.7"/>
		<path class="st18" d="M86.5,10.7c0.3-0.4,0.8-1.6,0.9-2.3"/>
		<path class="st18" d="M90.6,8.1c0.2-0.6,0.5-1.2,0.8-1.7"/>
		<path class="st18" d="M91.5,12.5c0.4-0.3,0.9-1.4,1.3-2"/>
		<path class="st18" d="M94.4,7.7c0.3-0.3,0.6-1.4,1-1.9"/>
		<path class="st18" d="M89.4,3.7c0.1-0.6,0.6-1.2,1-1.7"/>
		<path class="st18" d="M93,2.7c0,0.1,0,0.2-0.1,0.3c0.4-0.6,0.8-1.2,1.2-1.7"/>
		<path class="st18" d="M95.1,11.8c0.4-0.1,0.9-1.4,1.5-1.9"/>
		<path class="st18" d="M97.3,4.3c0,0,0.8-0.9,1-1.2"/>
		<path class="st4" d="M43,8c0.7-1,1.6-0.8,2.4-0.1c0.8,0.7,1.3,1.4,2.4,1.7c1,0.3,1.8-0.1,2.7-0.5c0.7-0.3,1.6-0.5,2.2,0.1
			c0.9,1,0.1,1.8,0,2.8c-0.1,0.9,0.4,1.8,1,2.4c0.7,0.7,2.2,0.9,2.6,1.8c0.4,0.9-0.3,1.8-1,2.2c-1.1,0.8-1.8,1.1-2,2.6
			c-0.1,1,0,2-0.9,2.6C52,23.9,51.5,24.1,51,24c-0.6-0.1-1-0.6-1.5-0.7c-2.3-0.5-4.9,5.6-6.7,1.4c-0.3-0.6-0.3-1.6-0.8-2.2
			c-0.6-0.6-2.1-0.3-2.8-0.3c-0.8,0.1-1.6,0.3-2.1-0.5s-0.3-1.8,0.1-2.5c0.3-0.6,0.9-0.9,0.9-1.7c0-0.7-0.3-1.7-0.7-2.2
			c-0.5-0.7-1-1.1-0.9-2.1c0.1-0.9,0.7-1.5,1.5-1.8c1.1-0.4,2.3,0.2,3.3-0.1C43.1,11,42.2,9.2,43,8z"/>
		<path class="st8" d="M53.9,16.1c-0.4-0.2-1.4-0.5-1.6-0.6c-0.8-0.4-1.4-0.8-1.7-1.7c-0.3-1-0.1-1.8,0.3-2.7c0-0.1,0.4-0.7,0.3-0.9
			c-0.1-0.2-1.1,0.6-1.2,0.6c-0.8,0.4-1.7,0.6-2.6,0.5c-1.1-0.2-1.9-0.7-2.6-1.6c-0.4-0.4-0.7-0.9-1.1-1.3c-0.3,0.3-0.2,1.3-0.3,1.7
			c-0.1,1-0.1,1.9-0.8,2.7c-0.8,1-1.7,1-2.9,0.7c-0.7-0.2-1.4-0.4-2-0.7c0,0.2,0.4,0.5,0.5,0.6c0.9,0.7,1.8,1.2,2.3,2.3
			c0.4,1-0.2,2.1-0.8,2.9c-0.4,0.5-0.8,0.9-1.3,1.3c-0.3,0.3-0.6,0.6-0.8,1c0.2-0.1,0.5-0.1,0.7-0.1c0.5-0.1,1-0.3,1.4-0.4
			c0.7-0.2,1.7-0.7,2.5-0.4c0.8,0.4,1.1,1.4,1.2,2.2c0.1,0.6,0,1.6,0.4,2.2c0.2-0.1,0.3-0.3,0.4-0.5c0.3-0.4,0.5-0.9,0.8-1.3
			c0.6-1,1.4-1.9,2.7-1.7c0.8,0.2,1.6,0.7,2.2,1.2c0.2,0.2,0.7,0.8,1,0.7c-0.8-1.7-1-4.1,0.9-5.2c0.9-0.5,1.8-0.7,2.7-1.1
			C54.9,16.3,54.4,16.2,53.9,16.1"/>
		<path class="st4" d="M44.9,19.9c0-0.6-0.2-1.4-0.7-1.8s-1.1-0.4-1.7-0.5c0.2-0.4,0.3-0.9,0.3-1.3c-0.1-0.6-0.5-0.9-0.9-1.3
			c0.1,0,0.2,0,0.3-0.1c0.4-0.1,0.8-0.4,1-0.7c0.6-0.7,0.7-1.6,0.9-2.5c0.2,0.1,0.3,0.3,0.4,0.5c0.5,0.4,1,0.8,1.6,0.9
			c0.5,0.1,1.1,0,1.5-0.2c0.1-0.1,0.5-0.5,0.7-0.4c0.1,0.1,0.1,0.4,0,0.5c0,0.6,0.1,1.1,0.4,1.6c0.5,0.8,1.3,1.2,2,1.6
			c-0.6,0.3-0.9,0.9-1.2,1.4c-0.2,0.4-0.4,0.9-0.4,1.4c0,0.2,0,0.5,0,0.7c-0.3-0.1-0.6-0.3-0.9-0.5C47.6,19,47,18.9,46.4,19
			c-0.4,0.1-0.8,0.3-1.1,0.5C45.4,19.7,45.1,20.1,44.9,19.9"/>
		<path class="st7" d="M46.2,18.1c-0.1-0.2-0.2-0.4-0.4-0.6c-0.4-0.3-0.8,0-1.3,0c-0.2-0.1,1-0.6,0.7-1.4c-0.2-0.5-1.2-0.7-0.6-0.8
			c0.5-0.1,1,0.1,1-0.5c0-0.2-0.4-1.3-0.1-1.3c0.1,0,0.4,0.4,0.5,0.5c0.2,0.2,0.4,0.4,0.7,0.4c0.3,0.1,0.6-0.1,0.8-0.2
			c0.1,0,0.4-0.3,0.5-0.2c0.2,0.1-0.1,1,0.1,1.2c0.2,0.4,0.8,0.5,1.1,0.8c0,0.3-1,0.2-1,0.7c0,0.3,0.4,1.6-0.2,1.1
			c-0.3-0.3-0.7-0.8-1.2-0.5c-0.3,0.1-0.3,0.8-0.6,0.9C46.3,18.2,46.2,18.2,46.2,18.1"/>
		<path class="st4" d="M47.9,39.6c0.5-0.1,0.9-0.5,1.3-0.8c0.4-0.3,0.9-0.4,1.3-0.8c0.9-0.8,1.5-1.7,2.3-2.5
			c1.5-1.7,1.8-3.5,2.2-5.7c0.3-1.7,0.3-4.2,2.6-3.4c1.5,0.5,2.2,3.2,2.4,4.6c0.2,1.6,0.2,3.5-0.2,5c-0.2,0.9-0.6,1.7-1,2.6
			c-0.4,0.7-0.8,1.1-1.4,1.7c-2.5,2.5-6.5,3.3-9.9,3.3c-0.8,0-1.8-0.1-2.3-0.7c-0.6-0.7-0.5-1.5,0.1-2.1c0.9-0.8,2.6-1.1,3.6-1.8"/>
		<path class="st5" d="M56.5,28.5c0.3,0.1-0.1,2.1-0.2,2.5c-0.5,2.1-1.7,3.8-3,5.5c-1.2,1.6-2.8,2.8-4.5,3.8
			c-0.8,0.5-2.1,0.7-2.7,1.4c0.2,0.2,0.2,0.4,0.2,0.6c0.4-0.2,0.8,0,1.2,0.1c1,0.2,2,0.1,3,0c3.3-0.6,6.7-3,7.8-6.3
			c0.7-2.1,0.5-4.5-0.2-6.6C58,29.1,57.3,27.3,56.5,28.5"/>
		<path class="st19" d="M47.1,41.4c2.5,0.2,4.5-1.5,6-3.3c2.2-2.5,3.6-5.4,3.8-8.7"/>
		<path class="st19" d="M47.5,42c0.2,0.2,0.7,0.2,1,0.2c0.8,0,1.7-0.1,2.4-0.4c2-0.6,4-1.9,5.2-3.6c1.8-2.6,2.9-6.1,1.7-9.1"/>
		<path class="st6" d="M56.6,29.5c0.1-0.5-0.3-1.1-0.2-1.6c0-0.3,0.4-0.5,0.7-0.6c0.5,0.6,0.9,1.1,1,1.9C58,29,57.7,28.9,57.5,29
			C57.2,29,56.8,29.2,56.6,29.5"/>
		<path class="st6" d="M47.5,42.5c-0.5,0-1.4,0.1-1.8-0.2c-0.1-0.1-0.4-0.6-0.3-0.8c0.1-0.2,0.9-0.2,1.1-0.2
			c0.3-0.1,0.6-0.2,0.9-0.3c-0.2,0.2-0.5,0.4-0.4,0.7c0,0.1,0.2,0.2,0.2,0.4C47.3,42.2,47.3,42.4,47.5,42.5"/>
		<path class="st4" d="M94.7,23c-0.5-0.4-0.6-0.9-1.3-1.2c-0.7-0.2-1.7,0.1-2.2,0.7c-0.4,0.6-0.5,2.9-1.3,2.8
			c-0.4,0-0.6-0.6-0.8-0.9c-0.3-0.5-0.5-0.9-1-1.3c-0.9-0.8-2.5-0.8-3.2,0.2c-0.8,1.2-0.4,3.1-0.1,4.4c0.3,1.1,0.7,2.1-0.2,3.1
			c-0.4,0.4-0.8,0.6-1.1,1.1c-0.4,0.5-0.5,1.3-0.6,1.9c-0.1,1.5,0.2,3,0.4,4.4c0.2,1.1,0.6,2.2,0.9,3.3c0.1,0.5,0.4,1,0.4,1.5
			c0,1.2,1,2.1,2,2.7c2.1,1.2,4.9,0.4,6.9-0.6c1.3-0.6,2.3-1.4,2.7-2.7c0.5-1.4,0.4-3.1,0.4-4.6c0-1.6-0.6-2.9-0.9-4.4
			c-0.3-1.4-0.2-2.9-0.2-4.3c0-1.3,0-2.7-0.2-4c-0.1-0.5-0.2-1-0.3-1.4c-0.2-0.5-0.7-0.9-1-1.4"/>
		<path class="st7" d="M85,37.9c-0.2-1.1-0.6-2.2-0.7-3.3c-0.1-0.8-0.1-1.6,0.6-2.1c0.5-0.4,1-0.3,1.4,0.2c0.1-0.5,0.2-1.1,0.6-1.4
			c0.5-0.4,1.1-0.5,1.7-0.3c0.7,0.3,1,1.2,1.2,1.9c0.2,0.9,0.3,1.9,0.3,2.8c0,1-0.1,2-0.5,2.9c-0.3,0.5-0.6,1-1.2,1
			c-0.5,0-1-0.1-1.5-0.3C86.2,38.9,85.3,38.4,85,37.9"/>
		<path class="st7" d="M87.4,31.3c-0.1-0.7-0.5-1.9-0.8-2.6c-0.3-0.8-0.5-1.7-0.7-2.5c-0.1-0.8-0.5-1.7,0.6-1.8
			c1-0.1,1.4,1.2,1.7,1.9c0.6,1.2,1,2.4,1.5,3.7c0.3,0.7,0.5,1.4,1,2c0.2-1.7,0.4-3,0.6-4.7c0.1-0.9,0-2,0.7-2.6
			c0.4-0.4,1.2-0.5,1.5,0.2c0.2,0.4,0.1,1,0.2,1.4c0.1,0.8,0.2,1.6,0.2,2.4c0,1.2-0.1,2.4-0.1,3.6c0,1,0,1.9-0.1,2.9
			c-1.6-0.6-3.2-1.2-4.7-2c-0.5-0.2-0.5-1-1.1-0.9C87.8,32.1,87.8,33.9,87.4,31.3"/>
		<path class="st7" d="M87.9,44.4c-1.4-1.3-2.2-3.7-2.4-5.6c-0.2-1.5,0.1-3.2,1.1-4.3c0.6-0.7,1.9-1.2,2.9-1.3c0.4,0,0.7,0,1,0.1
			c0.4,0.1,0.7,0.1,1.1,0.1c0.5,0,1.1,0,1.5,0.2c1.3,0.4,1.7,2.2,1.7,3.3c0.1,1.9-0.2,3.7-0.7,5.5c-0.1,0.5-0.3,1.4-0.8,1.6
			c-0.4,0.2-0.9,0.2-1.3,0.3c-0.7,0.2-1.5,0.3-2.2,0.5C89.2,44.8,88.3,44.9,87.9,44.4"/>
		<path class="st20" d="M90.1,39.4c-0.1-0.8,0.2-1.5,0.6-2.1c0.3-0.4,0.6-0.7,1-0.9c0.1-0.1,0.5-0.2,0.5-0.4
			c0.1-0.6-1.2-1.1-1.5-1.3c-0.8-0.5-1.7-1.1-1.4-2.2c0.3-1,1.4-0.7,2.1-0.3c0.8,0.4,1.7,0.9,2.3,1.6"/>
		<path class="st20" d="M86.3,32.5c0.1,0.9,0.3,5.3,2.1,4.7c1.2-0.4,1-2.1,0.8-3.1c-0.1-0.8-0.2-1.6-0.6-2.3
			c-0.3-0.6-0.8-0.7-1.3-0.8"/>
		<path class="st20" d="M85.4,38.4c0.4,0.1,0.8,0.1,1.1-0.1c0.4-0.4,0.7-1.1,0.6-1.7"/>
		<path class="st8" d="M85.3,37.5c-0.1-0.6-0.4-1.1,0.1-1.5c0.4-0.3,0.9-0.1,1,0.3c0.1,0.4,0.2,1.2-0.1,1.5
			C85.9,38.4,85.6,38,85.3,37.5"/>
		<path class="st8" d="M87.7,36.2c-0.2-0.6-0.5-1.1,0-1.6c0.4-0.4,0.9-0.2,1,0.2s0.2,1.1,0,1.5C88.3,37,87.9,36.6,87.7,36.2"/>
		<path class="st2" d="M39.3,64.6c0.9-1.5,2-2.5,3.7-2.9c1.6-0.4,2.8-1.7,4.4-2.3c0.8-0.3,1.6-0.4,2.5-0.4c0.8,0,1.6,0,2.3,0.3
			s1.4,0.8,1.9,1.3c0.7,0.7,0.8,1.5,0.6,2.4c-0.1,0.8-0.5,1.5-0.7,2.3c-0.3,0.8-0.8,1.4-1.2,2.1c-0.7,1.3-0.9,2.8-1.3,4.2
			c-0.4,1.4-1.1,2.5-2.5,2.9s-2.9,0.7-4.4,0.1c-1.9-0.7-3.7-2.5-4.5-4.4c-0.4-0.9-0.8-1.8-1-2.8c-0.2-1.1,0-2.5,0.4-3.5"/>
		<path class="st1" d="M52.1,60.7c0.9,0.7,1.3,1.7,1.1,2.8c-0.1,0.3-0.1,0.7-0.2,1c-0.1,0.4-0.4,0.8-0.6,1.1
			c-0.5,0.9-0.9,1.9-1.2,2.9c-0.4,1.1-0.5,2.2-1.3,3.1s-1.7,1.5-2.8,1.6c-1,0.2-2.6-0.1-3.5-0.6c-1.1-0.6-1.8-1.6-2.4-2.7
			c-0.6-1.1-0.8-2.3-0.3-3.5c0.9-2,2.9-2.7,4.8-3.3c1.7-0.5,3.2-1.4,4.9-2C51,61,51.5,60.8,52.1,60.7"/>
		<path class="st21" d="M43.6,62.8c-1.4,0.4-2.9,1.3-3.3,2.8c-0.5,1.6,0.2,3.5,1.2,4.8c0.9,1.1,2,1.7,3.4,1.9
			c1.7,0.2,3.2-0.5,4.1-1.9c0.9-1.2,1.3-2.7,2-4c0.5-1,1.2-2,1.6-3.1c0.3-0.8,0.4-1.8-0.2-2.5c-0.8-0.9-2.2-0.9-3.3-0.6
			c-1.2,0.3-2.3,1.1-3.4,1.8c-0.5,0.3-1,0.5-1.5,0.7C44,62.7,43.7,62.7,43.6,62.8"/>
		<path class="st5" d="M46.9,65.9c0-0.4-0.9-0.7-1.2-0.8c-1.1-0.3-2.5,0.2-3,1.2c-0.8,1.5,0.3,3.5,2,3.7c1.5,0.2,3-0.7,3.2-2.3
			c0.2-1.4-0.8-2.4-2-2.8c-1-0.3-1.9,0.2-2.6,1"/>
		<path class="st22" d="M46.6,65.2c0.1,0,0.2,0.2,0.2,0.3c0.3,0.4,0.4,0.8,0.3,1.3c-0.2,1-0.8,1.8-1.6,2.3c-0.2,0.1-0.5,0.2-0.7,0.2
			c-0.1,0-0.2,0-0.3,0s-0.2,0-0.4,0c-0.5-0.1-0.9-0.3-1.4-0.6c0.2,0.7,0.9,1.2,1.5,1.3c0.5,0.1,0.9,0.1,1.3,0
			c0.6-0.1,1.1-0.4,1.6-0.8c0.7-0.6,0.9-1.5,0.6-2.4c-0.1-0.3-0.2-0.7-0.4-1c-0.1-0.1-0.2-0.3-0.4-0.4
			C46.8,65.4,46.7,65.3,46.6,65.2"/>
		<path class="st23" d="M47.3,62c-0.2,0.1-0.2,0.6-0.1,0.7c0.2,0.2,0.6,0.1,0.8,0"/>
		<path class="st23" d="M47.8,63.6c-0.3,0.5,0.4,1.2,0.9,0.8"/>
		<path class="st23" d="M49.6,64.1c-0.1,0.2-0.3,0.5-0.1,0.7s0.6,0.1,0.8,0"/>
		<path class="st2" d="M26.7,51.1c-0.5,0.4-1.5-1.9-1.6-2.2c-0.9-2.1-1-4.7-0.9-6.9c0.1-2.1,0.6-4.6,2.9-5.2
			c1.4-0.3,2.8,0.1,3.3,1.6c0.1,0.4,0.1,1.1,0.4,1.4c0.3,0.3,1-0.5,1.3-0.7c1.2-0.9,3.2-1.8,4.1,0c1.5,3-0.9,6.1-1.9,8.8
			c0.5-0.7,1.6-1.5,2.4-1c0.5,0.3,0.7,1,0.9,1.6c0.1,0.3,0.1,0.5,0.4,0.4c0.3-0.1,0.5-0.5,0.8-0.7c0.3-0.3,0.8-0.5,1.2-0.7
			c0.7-0.2,1.5-0.3,2.1,0.1c1.3,0.8,1.4,2.9,1.1,4.3c-0.5,1.9-1.8,3.5-3.3,4.7c-0.7,0.6-1.3,1.1-2,1.6c-0.4,0.3-1,0.7-1.5,0.5
			c-0.6-0.2-1-1.1-1.3-1.6c-0.5-1.1-0.9-2.3-1.3-3.5c-0.5-1.8-0.6-3.5-0.8-5.3c-0.4,0.5-0.6,1.1-0.9,1.6c-0.4,0.7-1,1.3-1.8,1.7
			c-0.5,0.2-1.1,0.3-1.6,0.3c-1.1,0-1.8-0.4-2.6-1.1"/>
		<path class="st7" d="M27.9,49.8L27.9,49.8c-1-0.6-1.3-2.6-1.5-3.7c-0.3-1.9-0.7-5.1,0.6-6.7c0.8-1.1,2.1-0.7,2.8,0.3
			c0.4,0.6,0.5,1.2,0.6,1.9c0,0.2,0,0.6,0.2,0.8c1-1,1.9-2.5,3.6-2.4c2.3,0.2,0.6,3.5,0,4.5c-1.2,1.8-2.8,3.2-4.5,4.5
			C29.2,49.4,28.6,49.9,27.9,49.8"/>
		<path class="st7" d="M36.8,56.6c-0.6-0.3-0.9-1.1-1.1-1.7c-0.7-1.8-1.6-4.1-1-6c0.4-1.3,1.4-1.3,2.1-0.2c0.5,0.8,0.6,1.7,1,2.5
			c0.3-0.4,0.4-0.8,0.7-1.2c0.6-0.7,1.6-1.4,2.5-1.1c1.9,0.6,0.8,3.1-0.1,4.1C39.7,54.5,38.1,55.5,36.8,56.6"/>
		<path class="st24" d="M23.7,34.6c-0.2-0.7-1.3-1.8-1.5-2.7"/>
		<path class="st24" d="M27.6,34.7c0-1,0-2-0.2-3"/>
		<path class="st24" d="M30.7,34.5c0.3-0.7,0.8-1.5,1-2.2"/>
		<path class="st2" d="M11.8,69.4c0.3-1.1,0.9-2.1,1.8-2.8c1-0.8,2.2-1.2,3.4-1.5c1.3-0.3,2.5-0.3,3.7,0.3c0.4,0.2,0.7,0.4,1.2,0.3
			s0.9-0.5,1.2-0.9c0.8-0.9,1.8-2,3.1-1.6c0.6,0.2,1,0.7,1.1,1.3c0.2,0.6-0.3,1.4,0,2c0.3,0.5,1.2,0.4,1.7,0.7
			c0.6,0.3,0.6,1,0.4,1.6c-0.2,0.3-0.7,0.7-0.8,1c-0.1,0.4,0.6,0.9,0.8,1.3c0.3,0.6,0.2,1.3-0.4,1.7c-0.5,0.3-1.2,0.4-1.8,0.5
			c-1,0.2-2,0.4-3,0.2c-0.2,0.3-0.2,0.9-0.3,1.3c-0.2,0.6-0.7,1.3-1.2,1.8c-1.1,1.1-2.6,1.8-4.1,2c-0.8,0.1-1.5,0.1-2.3-0.2
			c-0.8-0.3-1.3-0.9-2-1.4c-0.3-0.2-0.4-0.2-0.6,0.1c-0.3,0.6-0.6,1.3-1.1,1.7c-0.9,0.7-2.8,1.8-4,1.1c-0.6-0.3-0.8-1-0.6-1.6
			c0.1-0.4,0.7-0.9,0.6-1.4c-0.1-0.4-1-0.5-1.3-0.7c-0.5-0.3-1-0.8-0.9-1.5c0.2-1,1.7-0.9,1.1-2c-0.4-0.7-0.7-1.1-0.2-1.8
			c0.5-0.6,1.2-0.8,1.9-0.9c0.6-0.1,1.1,0.1,1.6,0.2C11.4,70.2,11.7,69.9,11.8,69.4"/>
		<path class="st8" d="M21.6,68.4c-0.3-1-1.5-1.5-2.3-1.7c-1.8-0.3-4.3,0.2-5.6,1.6c-1.7,1.9-1.7,4.5-0.2,6.4
			c1.2,1.6,2.9,2.6,4.9,2.4c3-0.4,5.3-3.4,4.9-6.4c-0.2-2-2-3.7-3.9-4.2c-2-0.6-4.5,0.1-5.5,2.1"/>
		<path class="st8" d="M13.5,74.7c0.1,0.2-0.3,0.8-0.3,1c-0.5,1.1-1.2,2.4-2.3,2.9c-0.7,0.3-2.1,0.3-1.9-0.8c0.2-0.9,1-1.4,1.4-2.2
			c-0.7,0-1.9,0.1-2.4-0.6c-0.7-0.9,1-1.1,1.6-1.2c-0.1-0.2-0.4-0.3-0.5-0.5c-0.4-0.4-1-1-1-1.6c0-1.3,2.2-0.7,2.8-0.4
			c1.1,0.5,2,1.3,2.8,2.3c0.3,0.4,0.6,1,0.2,1.5"/>
		<path class="st8" d="M22.1,69c-0.2-0.1,0.3-1.2,0.4-1.3c0.4-0.8,0.8-1.5,1.4-2.1c0.3-0.3,0.8-0.9,1.4-0.9c1.3-0.1-0.6,2.5-0.7,2.9
			c0.7,0,2.2-0.1,2.5,0.5c0.3,0.7-1,1.3-1.6,1.6c0.5,0.1,1,0.4,1.4,0.7c0.6,0.4,1,1.5,0,2s-2.7,0.4-3.5,0c-1.5-0.7-1.6-2.6-1.6-4"/>
		<path class="st25" d="M13.6,74.9c-0.3-0.4-0.6-0.9-0.7-1.3c-0.2-0.5-0.4-0.9-0.4-1.4"/>
		<path class="st25" d="M23.4,72.3c0-0.8-0.1-1.5-0.3-2.3c-0.2-0.6-0.5-1.1-0.8-1.6"/>
		<path class="st26" d="M15.6,74.2c-0.1-0.3-0.1-1,0.3-1.1s0.6,0.3,0.7,0.5"/>
		<path class="st26" d="M19.9,72c-0.2-0.3-0.1-1,0.4-1.1c0.4,0,0.5,0.4,0.6,0.7"/>
		<path class="st26" d="M18,73.3c0.1,0.2,0.4,0.4,0.6,0.2c0.2-0.1,0.3-0.5,0.2-0.6"/>
		<path class="st2" d="M5.5,52c0.5-0.3,0.8-1.1,1.1-1.6c0.9-1.4,1.9-2.8,3-4.1c0.5-0.7,1.1-1.6,2-1.9c0.7-0.2,1.5,0,2.1,0.4
			c0.8,0.5,1.6,1,2.4,1.5c0.5,0.3,1.2,0.8,1.4,1.5c0.2,1.3-1.5,2.1-2.3,2.6c-0.1,0.1-0.5,0.2-0.5,0.4s0.4,0.5,0.6,0.6
			c0.2,0.3,0.6,0.6,0.5,1c-0.1,0.5-0.7,0.9-1.1,1.2c-0.5,0.4-1,0.7-1.4,1c-0.9,0.7-1.8,1.4-2.8,2.1c-1.2,0.6-2.2,1.3-3.2,1.9
			c-0.5,0.3-1.5,1-2,0.5c-0.8-0.8,0.6-2.5,1-3.1s0.8-1.1,1.2-1.7c0.1-0.2,0.2-0.3,0.1-0.4c-0.1-0.1-0.7-0.2-0.8-0.2
			c-0.4-0.1-0.8-0.1-1.1-0.3c-0.8-0.5-0.2-1.4,0.2-2"/>
		<path class="st3" d="M8.5,49.7c-0.5,0.7-1,1.4-1.5,2.1c-0.1,0.1-0.2,0.2-0.2,0.4c0.5,0.1,1,0.3,1.5,0.5c0.4,0.1,0.8,0.2,1.1,0.4
			c0,0.1-0.1,0.2-0.2,0.3c-0.4,0.5-0.6,1.1-1,1.6c-0.4,0.6-0.9,1.3-1.3,1.9c-0.2,0.3-0.4,0.5-0.5,0.9c0.1,0,0.3-0.1,0.4-0.2
			c0.7-0.4,1.4-0.9,2-1.4c0.9-0.6,1.9-1.3,2.8-1.9c0.5-0.3,0.9-0.6,1.4-1c0.2-0.2,0.8-0.4,0.9-0.7c0.2-0.3-2-1.8-2.1-2
			c0.7-0.4,1.4-1,2-1.5s1.3-0.9,1.8-1.5c-0.6-0.7-1.5-1-2.3-1.5c-0.5-0.3-1.1-0.9-1.7-0.9C11.5,45.4,9.4,48.5,8.5,49.7"/>
		<path class="st2" d="M7.8,27.4c-0.1-0.3-0.1-0.7-0.1-1c0-1.2-0.1-2.3,0-3.5c0.1-1.1,0.4-2.1,0.5-3.1c0.1-0.9-0.5-1.2-1.1-1.7
			c-1-0.8-1.4-2.4-1.5-3.6C5.5,12.7,6,10.7,6.9,9.1c0.5-0.9,1.2-1.9,2.4-2.2c0.8-0.1,1.2,0.2,1.9,0.4c1,0.3,1.8-0.8,2.5-1.3
			c0.8-0.6,1.7-0.6,2.6-0.1c1,0.6,1.5,1.3,1.6,2.4c0.1,0.7-0.5,2.4,0.2,3c0.6,0.5,1.7,0.2,2.4,0.6c0.7,0.5,1.1,1.8,1.2,2.7
			c0.2,1.5-0.3,2.8-0.9,4.1c-1,2.3-2.7,4.6-5.5,4.8c-1.1,0.1-1.4,0.3-1.7,1.4c-0.3,0.9-0.6,1.7-1.1,2.5c-0.5,0.7-1.1,1.4-2.1,1.5
			C9.1,29.3,8.2,28.2,7.8,27.4"/>
		<path class="st1" d="M9.1,27.1c0.4-1.5,0.3-3.3,0.5-4.8c0.5-2.9,1.1-5.9,2-8.7c0.5-1.7,1.3-4.2,2.9-5.3c1.4-0.9,1.8,0.2,1.8,1.5
			c0,3.6-1.3,7.1-2.4,10.5c-0.6,2-1,2.7-1.6,4.7c-0.1,0.3-0.9,2.4-1.1,2.5s-0.8-0.2-1-0.3C9.7,27.2,9.3,27.1,9.1,27.1"/>
		<path class="st1" d="M10.4,18.3c-0.1,0.2-0.7-0.2-1-0.4C8.1,17,7.3,15.6,7.1,14s0.3-3.6,1.2-4.8C8.9,8.5,9.9,7.6,10.1,9
			c0.3,2.1-2.6,8,0.9,8.5C10.9,17.8,10.7,18.3,10.4,18.3"/>
		<path class="st1" d="M13.7,20.4c1.9,0.7,3.3-2.4,3.7-3.6c0.3-0.8,0.9-2.7,2.1-2.6c0.9,0,0.9,1.1,0.8,1.8c-0.3,2.1-1.3,4.4-3,5.6
			c-0.6,0.4-1.3,0.7-2.1,0.6c-0.6,0-1.6-0.3-2.2-0.8C13,20.8,13.5,20.9,13.7,20.4"/>
		<path class="st27" d="M10.1,17.9C8.3,17,7.4,15.1,7.5,13c0.1-1.6,0.7-3,1.4-4.3"/>
		<path class="st27" d="M9.7,8.3c0.2,0.6-0.1,1.4-0.2,2c-0.3,1.3-0.8,2.4-0.8,3.8s0.5,2.8,1.6,3.6"/>
		<path class="st27" d="M19.6,14.4c-0.5-0.3-1.2,1-1.4,1.4c-0.5,1-0.6,2.2-1.1,3.2c-0.3,0.7-1,1.6-1.9,1.7c-0.4,0.1-0.8-0.1-1.2,0"
			/>
		<path class="st27" d="M19.9,14.4c0,0,0,0.3,0,0.4c0,0.6-0.3,1.2-0.5,1.8c-0.5,1.3-1.1,2.6-2,3.6c-0.6,0.7-1.3,1.1-2.2,1.2
			c-0.5,0.1-0.9-0.1-1.4-0.3"/>
		<path class="st27" d="M10.5,27c0.1-0.3,0.2-0.7,0.3-1c0.3-1.2,0.6-2.3,1-3.5c0.8-2.8,1.5-5.6,2.2-8.4c0.4-1.5,0.7-3,1-4.6
			c0.1-0.4,0.2-1,0.2-1.4"/>
		<path class="st27" d="M9.5,27c0.4-1.3,0.5-2.7,0.7-4.1c0.4-2.3,0.9-4.5,1.5-6.8c0.5-2,1.1-3.9,1.7-5.9c0.2-0.6,0.4-1.1,0.7-1.6"/>
		<path class="st27" d="M15.7,8.1c0.1,0.1,0.1,0.2,0.1,0.3c0.1,0.6,0.1,1.1,0.1,1.7c-0.2,2.2-0.6,4.4-1.2,6.5
			c-0.8,2.6-1.4,5.2-2.5,7.6c-0.4,1-1.1,2-1.3,3.1"/>
		<path class="st2" d="M137.2,35.2c-0.7-0.6-1.1-1.9-1.5-2.7c-0.7-1.3-1.4-2.5-2-3.8c-0.5-1-1.1-2-1.7-3c-0.6-0.9-1.3-1.9-1.7-2.9
			c-0.6-1.3-0.8-2.7-1.1-4.1c-0.5-1.8-0.9-3.5-0.4-5.4c0.3-1.2,0.7-2.4,0.9-3.6c0.3-1.5,0.4-3,1.3-4.2c0.6-0.8,2-1.9,2.9-0.7
			c0.5,0.7,0.2,1.6,0.9,2.3s1.8,1,2.7,1.5c1,0.7,1.3,1.9,1.8,3c0.6,1.6,0.7,3.2,1.3,4.8c0.7,2,1.6,4.1,1.4,6.3c-0.1,1-0.6,1.9-0.7,3
			c-0.1,1.3,0,2.6,0.2,3.8c0.2,1.5,0.2,3.3-0.3,4.7C140.5,36.1,138.6,36.2,137.2,35.2"/>
		<path class="st5" d="M134.3,24.8c0.1,0.4,0.4,0.7,0.6,1c0.8,1.2,1.4,2.6,2,3.9c0.6,1.2,1.2,2.5,2,3.6c0.2,0.2,0.3,0.6,0.6,0.6
			c0.3-0.5,0.1-1.5,0.1-2c0-1.5-0.1-2.9-0.1-4.4c0-1.4,0.3-2.9-0.1-4.3C137.7,23.6,135.7,23.7,134.3,24.8"/>
		<path class="st28" d="M135.8,27.2c0,0,0.9-1.9,1.2-2.8"/>
		<path class="st28" d="M136.6,28.9c0,0,0.3-0.7,0.5-1c0.3-0.6,0.6-1.2,0.9-1.8c0.2-0.3,0.9-2,0.9-1.8"/>
		<path class="st28" d="M137.3,30.5c0.6-1.1,1.1-2.2,1.7-3.3"/>
		<path class="st28" d="M138.2,32c0.1,0,0.2-0.4,0.3-0.5c0.3-0.6,0.7-1.1,0.9-1.7"/>
		<path class="st28" d="M136.7,29.3c0.8,0.6,1.9,1.1,2.7,1.6"/>
		<path class="st28" d="M135.2,25.4c0.8,0.9,2.1,1.5,3.1,2.3c0.3,0.2,0.8,0.5,1,0.7"/>
		<path class="st28" d="M136.3,24.3c0.8,0.5,1.5,1.1,2.3,1.5c0.2,0.1,0.6,0.4,0.7,0.5"/>
		<path class="st21" d="M133.8,19.3c-0.7,0.4-1.2,1.5-1.3,2.3c-0.1,1.3,0.5,2.6,1.5,3.4c0.7,0.5,1.4,0.6,2,0
			c0.1-0.1,0.3-0.4,0.5-0.4s0.3,0.2,0.5,0.2c0.4,0,0.5-0.5,1-0.4c0.6,0.1,1,0.1,1.3-0.5c1-1.6,0.7-3.8-0.8-4.9
			C137.3,17.9,135.1,18.2,133.8,19.3"/>
		<path class="st8" d="M132.8,21.4c-1.5-0.6-1.8-2.7-1.5-4.1c0.3-1.8,2.1-3,3.9-3.3c2.4-0.4,3.8,2.7,3.8,4.7c-0.3,0.3-0.5,0.3-1,0.3
			c-0.7,0-0.6,0.2-1,0.8c-0.5,0.9-1.1,0.3-1.9,0.6c-0.4,0.2-0.6,0.6-0.9,0.9C133.5,21.8,133.1,21.8,132.8,21.4"/>
		<path class="st7" d="M131.8,16.8c-0.6,0.1-1.1-1.3-1.3-1.7c-0.4-1.3-0.1-2.4,0.8-3.5c0.7-0.9,1.6-1.6,2.7-1.8
			c1.1-0.2,2.1,0.3,2.8,1c1,1,1.4,2.8,0.6,4.1c-0.2,0.3-0.4,0.8-0.7,1c-0.3,0.2-0.7,0-1.1,0c-0.8,0-1,0.6-1.6,1
			C133.4,17.2,131.9,17.2,131.8,16.8"/>
		<path class="st1" d="M132.5,9.1c-0.3-0.7-0.4-3.1,0.7-3c0,0.1-0.1,0.2-0.2,0.3c-0.2,0.4-0.3,0.7-0.4,1.2c0,0.5,0,1,0.2,1.5
			C132.7,9.1,132.5,9,132.5,9.1"/>
		<path class="st29" d="M132.5,9.4c-0.8-0.4-1.5,2.1,0,2.4c1.3,0.3,2.4-1.1,1.7-2.2c-0.9-1.5-3-0.2-2.5,1.2"/>
		<path class="st4" d="M164.3,5.2c2.2-0.4,5,0.1,7.1,0.8c3.2,1.1,5.5,3,6.8,5.9s2.1,6.1,1.3,9.3c-0.6,2.3-1.7,4.6-3.5,6.3
			c-2,1.9-4.9,3.8-7.7,4.2c-2.7,0.4-6.1,0.4-8.5-1c-0.8-0.5-1.7-0.9-2.5-1.6c-1.1-1-1.7-2.2-2.4-3.4c-1.2-2-1.9-4.2-1.8-6.5
			c0.2-4.2,1.4-7.1,4.2-10.1C159,7.2,162.2,5.4,164.3,5.2"/>
		<path class="st5" d="M167.5,11.8c-0.5-0.2-1.2,0-1.8,0.1c-1.9,0.3-2.9,0.9-3.9,1.8c-1.4,1.3-2.1,3.7-1.9,5.6c0.2,2,1.1,4,2.8,5.1
			c2.4,1.5,5.7,1.6,8-0.1c2.5-1.8,3.6-5.6,2.1-8.4C171.9,14,169.5,11.9,167.5,11.8"/>
		<path class="st20" d="M165.8,18.7c-0.3,1,1.4,1.3,1.3,0"/>
		<path class="st6" d="M164,17.6c-0.4,0.1-0.2,0.8,0.1,1c0.4,0.2,0.7-0.3,0.7-0.7c0-0.2-0.1-0.5-0.4-0.5
			C164.2,17.4,164,17.5,164,17.6"/>
		<path class="st6" d="M168.5,17.6c-0.4,0.1-0.2,0.8,0.1,1c0.4,0.2,0.7-0.3,0.7-0.7c0-0.2-0.1-0.5-0.4-0.5
			C168.7,17.4,168.5,17.5,168.5,17.6"/>
		<path class="st30" d="M166.8,9.6c0-0.1,0-0.2,0-0.4c-0.1-0.8-0.1-1.7-0.1-2.5"/>
		<path class="st30" d="M162.6,10.8c-0.5-0.2-1-1.4-1.3-1.9"/>
		<path class="st30" d="M171.2,11.1c0.1-0.1,0.2-0.1,0.2-0.2c0.4-0.4,0.7-0.8,1.1-1.2"/>
		<path class="st30" d="M174.2,14.1c0.9-0.4,1.9-0.7,2.9-1.1"/>
		<path class="st30" d="M175.7,18.7c0.6,0.2,1.4,0.1,2.1,0.2"/>
		<path class="st30" d="M174.6,22.5c0.6,0.5,1.4,0.9,2,1.4"/>
		<path class="st30" d="M172.1,25.8c0.2,0.4,0.5,0.9,0.7,1.3"/>
		<path class="st30" d="M168.3,27.2c0.1,0.9,0.4,1.9,0.3,2.8"/>
		<path class="st30" d="M164,27.4c-0.1,0.5-0.3,1-0.5,1.4"/>
		<path class="st30" d="M161.4,25.4c0,0-0.6,0.3-0.7,0.5c-0.6,0.6-1.3,1.2-2,1.6"/>
		<line class="st30" x1="157.4" y1="23" x2="158.7" y2="22.1"/>
		<path class="st30" d="M154.8,18c0,0,2.6,0,3-0.2"/>
		<path class="st30" d="M157.3,13.9c0,0,1.5,0.6,1.9,0.7"/>
		<path class="st2" d="M179.4,76.7c1,1.4,2.2,2.7,2.4,4.5c0.1,1.7-2.1,2.5-3.3,3.1c-2.3,1.4-4.7,2.7-7.2,3.8
			c-0.9,0.4-1.9,0.9-2.9,1.2c-0.7,0.2-1.4,0.5-2-0.1s-0.7-1.5-0.8-2.3c-0.1-1-0.1-2.1-0.1-3.1c0.1-2,0.4-3.9,0.5-5.8
			c0.1-1.5,0.3-3.1,1.2-4.4c0.9-1.2,2.4-1.2,3.8-1.1c1.8,0.1,3.4,0.7,4.9,1.6c1.2,0.7,2.7,1.4,3.4,2.6"/>
		<path class="st21" d="M175.1,84.5c0.3-0.1,4.3-1.8,4.8-2.5c-0.9-1.4-1.6-3.5-2.8-4.7c-1.6-1.5-3.8-2.6-6-2.7
			c-0.8,0-2.2-0.3-2.6,0.5c-0.3,0.8-0.4,3.6-0.4,4.4c-0.1,1,0,0.4,0.6,1.4C170.3,83.6,172.2,85.1,175.1,84.5"/>
		<path class="st8" d="M177.7,83.3c-0.3,0.3-0.7,0.5-1,0.7c-1.5,0.8-3.1,1.3-4.6,2c-1.3,0.6-2.5,1.3-3.7,1.9
			c-0.3,0.1-0.6,0.2-0.9,0.3c-0.2-0.4-0.2-1.2-0.2-1.6c0-1.4,0.2-2.9,0.3-4.3c0.1-1.3,0.3-2.7,0.4-4c0-0.5,0-1.1,0.1-1.5
			c1.5,0,2.8,0.3,4.2,1s2.7,1.6,3.8,2.8C176.8,81.3,177.8,82.5,177.7,83.3"/>
		<path class="st1" d="M179,82.3c-0.2-0.3-0.3-0.5-0.5-0.9c-0.4-0.7-0.8-1.3-1.3-1.9c-1-1.1-2.1-2.1-3.5-2.7
			c-1.5-0.7-3.7-1.2-5.4-0.9l0.2-1.5c0.7-0.4,2.3,0.1,3,0.2c2.8,0.5,5.4,1.8,7,4.2c0.7,1,1.3,2.1,1.6,3.3c0,0.2-0.8,0.4-1.2,0.6
			C179.1,82.6,179,82.5,179,82.3"/>
		<path class="st6" d="M175.6,82.9c-0.4,0.3-0.8,0.9-1.3,1c-0.1-0.3,0.5-0.9,0.7-1.1C175.3,82.6,175.7,82.6,175.6,82.9"/>
		<path class="st6" d="M172.3,83.7c0,0.1-0.1,0.2-0.2,0.4c-0.2,0.3-0.6,0.9-1,0.9C170.9,84.6,171.7,83.6,172.3,83.7
			c-0.1,0-0.1,0.2-0.2,0.3"/>
		<path class="st6" d="M172.4,80.7c0,0,0-0.1,0.1-0.1c0,0.4-0.6,1.4-1,1.2c0-0.4,0.3-0.9,0.5-1.2c0.1-0.1,0.2-0.2,0.3-0.3
			C172.6,80.3,172.4,80.7,172.4,80.7"/>
		<path class="st6" d="M169.8,84.8c0,0,0-0.1,0.1-0.1c0,0.3-0.5,1.2-0.9,1.1c0-0.4,0.2-0.8,0.4-1.1c0.1-0.1,0.1-0.2,0.2-0.2
			C170,84.4,169.9,84.7,169.8,84.8"/>
		<path class="st6" d="M169.9,82.2c0.4-0.1-0.8,2-0.8,1c0-0.4,0.2-0.8,0.4-1.1C169.8,81.8,170.1,81.9,169.9,82.2"/>
		<path class="st6" d="M169.9,79.3c0.3-0.2-0.4,2.1-0.6,1.2c-0.1-0.4,0-0.8,0.2-1.2C169.7,78.9,170,79,169.9,79.3"/>
		<path class="st2" d="M162.9,42.4c0.3-0.8,0.4-1,0.8-1.7c0.3-0.6,0.7-1.2,1.2-1.5c1.1-0.6,2,1.2,2.3,2c0.2,0.5,0.3,1,0.7,1.3
			c0.5,0.5,1.1,0.6,1.8,0.5c1.6-0.2,3.5-0.9,4.5,0.8c0.7,1.3-0.3,2.2-1,3.2c-0.3,0.4-0.8,1-0.6,1.6c0.1,0.5,0.6,0.9,1,1.2
			c0.5,0.4,1,0.6,1.4,1.2c0.3,0.5,0.4,1.2,0.4,1.8c-0.2,1.3-1.7,1.4-2.7,1.4c-0.5,0-1.1,0-1.5,0.4c-0.3,0.4-0.1,0.9-0.1,1.4
			c-0.1,1.2-1.8,1.3-2.7,1c-0.4-0.1-0.8-0.3-1.2-0.1c-0.5,0.3-0.6,1-0.9,1.4c-0.8,0.8-2.4,1.1-3.3,0.4c-0.3-0.2-0.5-0.5-0.7-0.9
			c-0.1-0.2-0.2-0.5-0.4-0.7c-0.4-0.3-1,0.3-1.4,0.5c-1.1,0.7-3,1-3.1-0.9c0-0.7,0.1-1.1-0.7-1.3c-0.9-0.2-1.8-0.2-2.6-0.7
			c-0.7-0.5-1.1-1.3-0.6-2.1c0.5-0.7,1.3-1.1,1.8-1.7c0.6-0.6,0.8-1.3,0.4-2.1c-0.3-0.6-0.7-1.3,0.1-1.7c0.6-0.3,1.4,0,2-0.5
			c0.7-0.5,0.4-1.7,0.6-2.4c0.2-0.8,0.7-1.6,1.7-1.6c0.5,0,1,0.3,1.4,0.5C162.3,43.7,162.7,43.2,162.9,42.4"/>
		<path class="st8" d="M158.7,50.5c0.1,0,0.1,0.1,0.2,0.1c-0.6-0.6-1.5-1.1-2-1.8c-0.1-0.1,0-0.2,0.1-0.2c0.5-0.1,1.4,0.2,1.8,0.3
			c0.5,0.1,1.2,0.4,1.7,0.3c0.1,0,0.1-0.1,0.1-0.2c-0.1-0.9-0.7-1.8-0.9-2.6c-0.1-0.2-0.4-1.2-0.2-1.4s0.8,0.1,1,0.2
			c0.7,0.3,1.3,0.9,1.9,1.4c1,0.8,0.9,0,1.2-0.9c0.4-1,0.7-2.1,1.2-3.1c0.2-0.4,0.3-1,0.5-1.4c0.1-0.1,0.2-0.1,0.3,0
			c0.3,0.7,0.6,1.3,0.8,2c0.2,0.6,0.2,2.2,0.9,2.5c0.3,0.1,0.7,0,1,0c0.7-0.1,1.4-0.3,2-0.4c0.4-0.1,1.6-0.5,2.1-0.3
			c0.1,0,0.1,0.1,0.1,0.2c-0.3,0.6-0.8,1.1-1.1,1.7c-0.5,0.7-1,1.5-1.4,2.2c0,0.1,0,0.1,0,0.2c0.6,0.5,1.1,1.1,1.7,1.6
			c0.6,0.6,1.4,1.1,1.9,1.8c0.1,0.1,0,0.2-0.1,0.3c-0.2,0.1-0.4,0.1-0.6,0.1c-0.7,0.1-1.5,0.2-2.2,0.2s-1.8-0.5-2.5-0.3
			c-0.1,0-0.1,0.1-0.1,0.2c0.2,0.9,0.9,1.9,0.8,2.8c0,0.1-0.1,0.2-0.2,0.1c-0.5-0.1-1-0.5-1.3-0.7c-0.4-0.3-0.8-0.6-1.3-0.9
			c-0.1-0.1-0.2-0.2-0.3-0.2c0,0.5-0.4,1.1-0.5,1.6c-0.2,0.6-0.4,1.1-0.6,1.7c-0.1,0.2-0.1,0.4-0.2,0.5c-0.1,0.1-0.2,0.1-0.3,0
			c-0.4-0.8-0.6-1.9-0.8-2.8c-0.1-0.4,0-1.2-0.5-1.3c-0.5,0-1.5,1-1.8,1.3c-0.4,0.4-0.9,1.1-1.4,1.4c-0.1,0.1-0.2,0-0.2-0.2
			c0.1-0.5,0.3-1.1,0.5-1.5c0.2-0.6,0.4-1.3,0.6-1.9c0-0.1,0-0.2-0.2-0.2c-0.7,0-1.4,0-2.2,0.1s-1.7,0.3-2.5,0.3
			c-0.2,0-0.2-0.2-0.1-0.3c0.7-0.3,1.3-0.8,1.9-1.2C157.5,51.4,158,51.1,158.7,50.5"/>
		<path class="st21" d="M161.5,48.9c-0.6-0.4-1.5-0.3-2.1,0c-0.3,0.1-0.4,0.4-0.7,0.6c0.2,0.6,0.5,1.3,0.7,1.9
			c0.2,0.7,0.5,1.3,0.9,2c0,0.1,0.1,0.2,0.1,0.3c0.1,0,0.3,0,0.4,0c0.1,0,0.5-0.1,0.6-0.2c0.1-0.1-0.1-0.4-0.2-0.5
			c-0.1-0.3-0.3-0.6-0.3-0.8c0.4-0.1,0.8-0.5,1.1-0.9C162.4,50.4,162.3,49.5,161.5,48.9 M161.1,50.6c-0.1,0.2-0.5,0.6-0.8,0.5l0,0
			c-0.2-0.4-0.4-0.9-0.5-1.3c0.4-0.2,1-0.1,1.2,0.2C161.2,50.2,161.2,50.4,161.1,50.6"/>
		<path class="st21" d="M164.7,49c-0.3-0.3-0.8-0.7-1.3-0.6c-0.4,0.1-0.6,0.6-0.8,1c-0.2,0.7,0,1.6,0.4,2.2c0.2,0.3,0.4,0.7,0.7,0.8
			c0.4,0.2,1,0.2,1.3-0.4C165.4,51.1,165.3,49.8,164.7,49 M164.1,51.2c-0.7,0-0.7-1.6-0.4-1.5c0.4,0,0.6,0.1,0.7,0.5
			C164.5,50.5,164.6,51.3,164.1,51.2"/>
		<path class="st21" d="M166.7,51.5c0-0.1-0.1-0.4-0.1-0.5c-0.3-0.7-0.6-1.4-0.8-2.1c-0.1-0.3-0.2-0.6-0.3-1c0-0.1-0.1-0.2-0.1-0.3
			s0.1-0.1,0.2-0.2c0.1,0,0.4-0.3,0.5-0.2c0.1,0,0.2,0.5,0.3,0.6c0.2,0.5,0.3,0.9,0.5,1.4c0,0.1,0.1,0.2,0.1,0.3c0-0.4,0-1,0-1.4
			c0.1,0,0.3-0.1,0.3,0c0.1,0,0.3,0.4,0.3,0.5c0.1,0.2,0.2,0.3,0.2,0.5c0-0.2-0.1-0.4-0.1-0.5c-0.1-0.3-0.2-0.7-0.2-1
			c0-0.1-0.1-0.2-0.1-0.3c0-0.2,0.5-0.4,0.7-0.5c0.1,0.2,0.2,0.4,0.2,0.7c0.2,0.7,0.3,1.3,0.4,2c0.1,0.2,0.1,0.5,0.2,0.7
			c0,0.1,0.1,0.3,0.1,0.4c0,0.2,0,0.1-0.1,0.2c-0.2,0.1-0.5,0.3-0.7,0.2c-0.2-0.2-0.3-0.6-0.5-0.9c-0.1-0.2-0.2-0.3-0.3-0.5
			c0,0.2,0,0.4,0.1,0.7c0,0.2,0,0.4,0,0.7c0,0.1,0,0.2,0,0.3s-0.1,0.1-0.2,0.1C167.3,51.3,166.8,51.4,166.7,51.5"/>
		<path class="st21" d="M169.8,48.9c0,0-0.2-0.8-0.2-0.9c-0.1-0.4-0.2-0.9-0.2-1.4c0.3-0.1,0.5-0.3,0.8-0.3c0,0.5,0.1,1.1,0.2,1.6
			c0,0.3,0.1,0.7,0.2,1C170.3,49.1,170.1,49.2,169.8,48.9"/>
		<path class="st21" d="M170.5,49.8c-0.1-0.1-0.3-0.1-0.4,0c-0.3,0.3-0.1,0.6,0.2,0.7c0.7,0.2,0.6-0.9-0.1-0.8"/>
	</g>
	<g>
		<g>
			<path class="st8" d="M135.2,64h-0.1c-0.2-0.1-0.3-0.2-0.2-0.4c0.1-0.3,0.3-0.6,0.5-0.9s0.4-0.6,0.4-0.8c0-0.2,0.2-0.3,0.4-0.3
				s0.3,0.2,0.3,0.4c-0.1,0.4-0.3,0.7-0.5,1.1c-0.2,0.3-0.3,0.5-0.4,0.8C135.4,63.9,135.3,64,135.2,64z"/>
		</g>
		<g>
			<path class="st8" d="M136.4,66.6L136.4,66.6c-0.2,0-0.3-0.1-0.4-0.3c-0.1-0.2,0-0.3,0.1-0.4v-0.1c0.1-0.2,0.2-0.4,0.3-0.7
				c0.1-0.2,0.2-0.3,0.4-0.2c0.2,0.1,0.3,0.2,0.2,0.4c-0.1,0.3-0.2,0.6-0.4,0.9C136.7,66.3,136.6,66.6,136.4,66.6z"/>
		</g>
		<g>
			<path class="st8" d="M138.4,64.5C138.4,64.5,138.3,64.5,138.4,64.5c-0.3-0.1-0.4-0.3-0.3-0.4c0.1-0.3,0.3-0.6,0.4-0.9
				c0.1-0.1,0.2-0.3,0.2-0.4c0.1-0.2,0.3-0.2,0.5-0.2c0.2,0.1,0.2,0.3,0.2,0.5c-0.1,0.2-0.2,0.3-0.3,0.5s-0.3,0.5-0.3,0.7
				C138.7,64.4,138.6,64.5,138.4,64.5z"/>
		</g>
		<g>
			<path class="st8" d="M138.9,66.7c-0.1,0-0.2,0-0.3-0.1s-0.2-0.3,0-0.5l0,0c0,0,0-0.1,0.1-0.2s0.1-0.2,0.2-0.3
				c0.1-0.2,0.3-0.5,0.3-0.7c0.1-0.2,0.3-0.3,0.4-0.2s0.3,0.3,0.2,0.4c-0.1,0.3-0.3,0.6-0.4,0.8c-0.1,0.1-0.1,0.2-0.2,0.3v0.1
				C139.3,66.4,139.2,66.6,138.9,66.7C139,66.7,139,66.7,138.9,66.7z"/>
		</g>
		<g>
			<path class="st8" d="M139.6,69.3c-0.1,0-0.2,0-0.2-0.1c-0.1-0.1-0.1-0.3,0-0.5c0.1-0.1,0.2-0.4,0.3-0.7c0-0.1,0.1-0.2,0.1-0.3
				c0.1-0.2,0.3-0.3,0.5-0.2c0.2,0.1,0.3,0.3,0.2,0.5c0,0.1-0.1,0.2-0.1,0.3c-0.1,0.3-0.3,0.7-0.5,0.9
				C139.8,69.3,139.7,69.3,139.6,69.3z"/>
		</g>
		<g>
			<path class="st8" d="M141.3,66.6h-0.1c-0.2-0.1-0.3-0.3-0.2-0.4c0.1-0.3,0.2-0.5,0.4-0.7c0.1-0.1,0.1-0.2,0.2-0.3
				c0.1-0.2,0.3-0.2,0.5-0.2c0.2,0.1,0.2,0.3,0.2,0.5c-0.1,0.1-0.2,0.3-0.2,0.4c-0.1,0.2-0.2,0.3-0.3,0.5
				C141.6,66.5,141.5,66.6,141.3,66.6z"/>
		</g>
		<g>
			<path class="st8" d="M142.4,68.6c-0.1,0-0.2,0-0.3-0.1c-0.2-0.2-0.1-0.5,0.4-1.4c0.1-0.2,0.3-0.2,0.5-0.1s0.2,0.3,0.1,0.5
				c-0.3,0.5-0.4,0.7-0.4,0.8c0,0.1,0,0.2-0.1,0.3C142.6,68.6,142.5,68.6,142.4,68.6z"/>
		</g>
		<g>
			<path class="st8" d="M140.9,63.6c-0.1,0-0.1,0-0.2,0c-0.2-0.1-0.2-0.3-0.1-0.5c0.1-0.2,0.2-0.4,0.4-0.6s0.3-0.4,0.4-0.7
				c0.1-0.2,0.3-0.2,0.5-0.1s0.2,0.3,0.1,0.5c-0.1,0.3-0.3,0.5-0.5,0.7c-0.1,0.2-0.2,0.3-0.3,0.5C141.1,63.5,141,63.6,140.9,63.6z"
				/>
		</g>
		<g>
			<path class="st8" d="M138.6,61c-0.1,0-0.2,0-0.3-0.1s-0.1-0.4,0.1-0.5c0.1-0.1,0.2-0.2,0.3-0.4c0.1-0.2,0.3-0.4,0.5-0.5
				s0.4-0.1,0.5,0.1s0.1,0.4-0.1,0.5c-0.1,0.1-0.2,0.2-0.3,0.4c-0.1,0.2-0.3,0.4-0.5,0.5C138.8,61,138.7,61,138.6,61z"/>
		</g>
		<g>
			<path class="st8" d="M143.4,64c-0.1,0-0.1,0-0.2-0.1c-0.2-0.1-0.2-0.3-0.1-0.5c0.1-0.1,0.2-0.4,0.3-0.6s0.3-0.3,0.5-0.2
				c0.2,0.1,0.3,0.3,0.2,0.5s-0.3,0.6-0.4,0.7C143.6,64,143.5,64,143.4,64z"/>
		</g>
		<g>
			<path class="st8" d="M133.8,67.7c-0.1,0-0.1,0-0.2-0.1c-0.2-0.1-0.2-0.3-0.1-0.5c0.1-0.1,0.1-0.3,0.2-0.4c0-0.1,0.1-0.2,0.1-0.3
				c0.1-0.2,0.3-0.2,0.5-0.2c0.2,0.1,0.3,0.3,0.2,0.5c0,0.1-0.1,0.2-0.1,0.3c-0.1,0.2-0.1,0.4-0.3,0.6
				C134.1,67.7,134,67.7,133.8,67.7z"/>
		</g>
		<g>
			<path class="st8" d="M136.9,70.1c-0.1,0-0.1,0-0.2,0c-0.2-0.1-0.2-0.3-0.1-0.5c0.1-0.2,0.2-0.5,0.3-0.7v-0.1
				c0.1-0.2,0.3-0.3,0.4-0.2c0.2,0.1,0.3,0.3,0.2,0.4v0.1c-0.1,0.3-0.2,0.6-0.3,0.8C137.1,70.1,137,70.1,136.9,70.1z"/>
		</g>
		<g>
			<path class="st8" d="M132.3,65h-0.1c-0.2-0.1-0.3-0.3-0.2-0.4c0.1-0.2,0.2-0.4,0.3-0.6c0.1-0.2,0.2-0.3,0.2-0.5
				c0.1-0.2,0.3-0.3,0.4-0.2c0.2,0.1,0.3,0.3,0.2,0.4c-0.1,0.2-0.2,0.4-0.3,0.5c-0.1,0.2-0.2,0.3-0.2,0.5
				C132.6,64.9,132.4,65,132.3,65z"/>
		</g>
		<g>
			<path class="st8" d="M134.9,60.7c-0.1,0-0.1,0-0.2-0.1c-0.2-0.1-0.2-0.3-0.1-0.5c0.2-0.2,0.3-0.5,0.5-0.7
				c0.1-0.1,0.2-0.2,0.3-0.4c0.1-0.2,0.3-0.2,0.5-0.1s0.2,0.3,0.1,0.5c-0.1,0.1-0.2,0.3-0.3,0.4c-0.2,0.2-0.3,0.4-0.5,0.6
				C135.2,60.7,135,60.7,134.9,60.7z"/>
		</g>
		<g>
			<path class="st2" d="M141.1,43c1-0.4,2.9-0.5,3.4,0.6c0.4,0.8,0.4,1.2,1.2,1.7c1.2,0.7,3,1.7,3.3,3.3c0.1,0.6,0.1,1.3-0.1,1.9
				c-0.2,0.5-0.4,0.8-0.3,1.3c0.2,1.1,0.3,2.3-0.3,3.4c-0.3,0.4-0.7,0.7-1.1,0.9c-0.3,0.2-0.9,0.1-1.2,0.4c-0.9,0.9,0.3,3.2,0.6,4.1
				c0.4,1.2,0.8,2.6,0.7,3.8c-0.1,1.6-1.6,2.4-3,2.6c-2.3,0.4-3.2-1.4-3.4-3.4c-0.1-1.2-0.4-6.1-2.3-3.5c-0.4,0.6-0.9,2.1-1.7,2.2
				c-0.7,0.2-1.6-0.5-2-0.9c-0.3-0.4-0.6-0.8-0.8-1.3c-0.1-0.2-0.1-0.8-0.4-0.9c-0.5-0.4-1.7,0.7-2.3,0.7c-1.1,0-2-1.3-2.2-2.2
				c-0.3-1.2,0.2-1.9,0.5-3c0.2-0.8-0.3-1.5-0.6-2.3c-0.5-1.4-0.1-2.8,0.7-3.9c1.3-1.8,3.9-2.8,6-2.2c0.9,0.2,1.4,0.2,2.1-0.4
				c0.5-0.4,0.7-1,1.1-1.5C139.5,44,140.1,43.4,141.1,43"/>
		</g>
		<g>
			<path class="st31" d="M138.6,51.6c0.7,0.4,1.1,1.3,1.5,2c1.2,2.2,2.1,4.6,2.6,7c0.2,0.9,0.4,1.9,0.4,2.9c0,0.4,0,0.8,0,1.3
				c0,0.1-0.1,0.4,0,0.5c0.3,0.4,1.1,0.2,1.4,0c0.7-0.4,0.6-0.7,0.5-1.4c-0.2-1.2-0.4-2.4-0.7-3.6c-0.7-2.5-2-4.7-3.4-7
				c-0.5-0.8-1.1-1.6-1.9-2.1C138.7,50.9,138.3,51,138.6,51.6"/>
		</g>
		<g>
			<path class="st1" d="M139,52.3c0,0.1-0.1,0.2-0.1,0.3c-0.3,0.8-0.6,1.5-0.8,2.3c-0.5,1.6-0.8,3.4-0.4,5c-0.6,0.2-1.5-1-1.7-1.3
				c-0.9-0.9-0.8-1.8-0.3-3c0.5-1.3,1.2-2.5,2.1-3.6c0.2-0.2,0.3-0.5,0.6-0.5c-0.5,0-1.5,0.9-1.8,1.1c-1.3,1-2.5,2.3-3.3,3.6
				c-0.1,0.2-0.7,1.5-1,1.4c-0.5,0-0.8-1.5-0.8-1.8c-0.1-1.1,0.2-2,1.1-2.9c0.8-0.8,1.9-1.4,3-1.9c0.6-0.3,1.6-0.9,2.4-0.8
				c-0.9-0.3-1.9-0.2-2.9-0.1c-1.3,0.2-2.8,0.6-3.9,1.3c-0.1-0.7,0.5-1.9,1-2.5c0.5-0.7,1.4-1.2,2.3-1.1c1.3,0.2,2.4,1,3.5,1.5
				c0.3,0.1,0.9,0.4,1,0.7c-0.1,0,0-0.5,0-0.7c-0.1-1.1,0.1-2.5,0.7-3.5c0.7-1.1,2.3-1.8,3.7-1.6c-1.6,1.7-3.1,3.5-3.7,5.6
				c0.4-0.5,1-0.9,1.6-1.2c0.9-0.5,2.1-1.3,3.2-1.2c1.1,0.1,2.5,1,2.8,1.9l0,0c-0.2,0-0.5,0-0.7,0.1c-0.8,0.1-1.6,0.1-2.4,0.1
				c-1.2,0-2.7,0.1-3.8,0.6c1.6,0.2,3.3,0.4,4.7,1s1.7,2.2,1.5,3.5c-0.9-1.1-2.6-2-4.1-2.4c-0.7-0.2-1.5-0.5-2.3-0.5
				C139.7,51.9,139.4,52.3,139,52.3"/>
		</g>
	</g>
</g>
</svg>
