<svg viewBox="0 0 567 269" xmlns="http://www.w3.org/2000/svg"><path d="m262.697 75.008a3.42 3.42 0 1 1 0-6.841 3.42 3.42 0 0 1 0 6.841z" fill="#219da4"/><path d="m238.665 75.008a3.42 3.42 0 1 1 0-6.84 3.42 3.42 0 0 1 0 6.84z" fill="#c4e2d2"/><path d="m226.649 75.008a3.42 3.42 0 1 1 0-6.84 3.42 3.42 0 0 1 0 6.84z" fill="#219da4"/><path d="m202.617 75.008a3.42 3.42 0 1 1 0-6.84 3.42 3.42 0 0 1 0 6.84z" fill="#c4e2d2"/><path d="m190.601 75.008a3.42 3.42 0 1 1 0-6.84 3.42 3.42 0 0 1 0 6.84z" fill="#219da4"/><path d="m166.569 75.008a3.42 3.42 0 1 1 0-6.84 3.42 3.42 0 0 1 0 6.84z" fill="#c4e2d2"/><path d="m154.553 75.008a3.42 3.42 0 1 1 0-6.84 3.42 3.42 0 0 1 0 6.84z" fill="#219da4"/><path d="m130.521 75.008a3.42 3.42 0 1 1 0-6.84 3.42 3.42 0 0 1 0 6.84z" fill="#c4e2d2"/><path d="m118.505 75.008a3.42 3.42 0 1 1 0-6.84 3.42 3.42 0 0 1 0 6.84z" fill="#219da4"/><path d="m94.473 75.008a3.42 3.42 0 1 1 0-6.84 3.42 3.42 0 0 1 0 6.84z" fill="#c4e2d2"/><path d="m82.456 75.008a3.42 3.42 0 1 1 0-6.84 3.42 3.42 0 0 1 0 6.84z" fill="#219da4"/><path d="m58.424 75.008a3.42 3.42 0 1 1 0-6.84 3.42 3.42 0 0 1 0 6.84z" fill="#c4e2d2"/><path d="m46.408 75.008a3.42 3.42 0 1 1 0-6.84 3.42 3.42 0 0 1 0 6.84z" fill="#219da4"/><path d="m22.376 75.008a3.42 3.42 0 1 1 0-6.84 3.42 3.42 0 0 1 0 6.84z" fill="#c4e2d2"/><path d="m514.747 75.008a3.42 3.42 0 1 1 0-6.841 3.42 3.42 0 0 1 0 6.841z" fill="#219da4"/><path d="m490.715 75.008a3.42 3.42 0 1 1 0-6.841 3.42 3.42 0 0 1 0 6.841z" fill="#c4e2d2"/><path d="m478.699 75.008a3.42 3.42 0 1 1 0-6.84 3.42 3.42 0 0 1 0 6.84z" fill="#219da4"/><path d="m454.667 75.008a3.42 3.42 0 1 1 0-6.841 3.42 3.42 0 0 1 0 6.841zm108.145 0a3.42 3.42 0 1 1 0-6.841 3.42 3.42 0 0 1 0 6.841z" fill="#c4e2d2"/><path d="m550.795 75.008a3.42 3.42 0 1 1 0-6.84 3.42 3.42 0 0 1 0 6.84z" fill="#219da4"/><path d="m526.763 75.008a3.42 3.42 0 1 1 0-6.84 3.42 3.42 0 0 1 0 6.84z" fill="#c4e2d2"/><path d="m442.651 75.008a3.42 3.42 0 1 1 0-6.84 3.42 3.42 0 0 1 0 6.84z" fill="#219da4"/><path d="m418.619 75.008a3.42 3.42 0 1 1 0-6.84 3.42 3.42 0 0 1 0 6.84z" fill="#c4e2d2"/><path d="m406.603 75.008a3.42 3.42 0 1 1 0-6.841 3.42 3.42 0 0 1 0 6.841z" fill="#219da4"/><path d="m382.571 75.008a3.42 3.42 0 1 1 0-6.84 3.42 3.42 0 0 1 0 6.84z" fill="#c4e2d2"/><path d="m370.555 75.008a3.42 3.42 0 1 1 0-6.84 3.42 3.42 0 0 1 0 6.84z" fill="#219da4"/><path d="m346.522 75.008a3.42 3.42 0 1 1 0-6.84 3.42 3.42 0 0 1 0 6.84z" fill="#c4e2d2"/><path d="m334.506 75.008a3.42 3.42 0 1 1 0-6.84 3.42 3.42 0 0 1 0 6.84z" fill="#219da4"/><path d="m310.474 75.008a3.42 3.42 0 1 1 0-6.84 3.42 3.42 0 0 1 0 6.84z" fill="#c4e2d2"/><path d="m298.458 75.008a3.42 3.42 0 1 1 0-6.84 3.42 3.42 0 0 1 0 6.84z" fill="#219da4"/><path d="m250.681 75.008a3.42 3.42 0 1 1 0-6.84 3.42 3.42 0 0 1 0 6.84zm-36.048 0a3.42 3.42 0 1 1 0-6.84 3.42 3.42 0 0 1 0 6.84zm-36.048 0a3.42 3.42 0 1 1 0-6.84 3.42 3.42 0 0 1 0 6.84zm-36.048 0a3.42 3.42 0 1 1 0-6.84 3.42 3.42 0 0 1 0 6.84zm-36.048 0a3.42 3.42 0 1 1 0-6.84 3.42 3.42 0 0 1 0 6.84zm-36.049 0a3.42 3.42 0 1 1 0-6.84 3.42 3.42 0 0 1 0 6.84zm-36.048 0a3.42 3.42 0 1 1 0-6.84 3.42 3.42 0 0 1 0 6.84zm468.339 0a3.42 3.42 0 1 1 0-6.841 3.42 3.42 0 0 1 0 6.841zm-36.048 0a3.42 3.42 0 1 1 0-6.84 3.42 3.42 0 0 1 0 6.84zm72.096 0a3.42 3.42 0 1 1 0-6.84 3.42 3.42 0 0 1 0 6.84zm-108.144 0a3.42 3.42 0 1 1 0-6.84 3.42 3.42 0 0 1 0 6.84zm-36.048 0a3.42 3.42 0 1 1 0-6.84 3.42 3.42 0 0 1 0 6.84zm-36.048 0a3.42 3.42 0 1 1 0-6.841 3.42 3.42 0 0 1 0 6.841zm-36.049 0a3.42 3.42 0 1 1 0-6.841 3.42 3.42 0 0 1 0 6.841zm-36.048 0a3.42 3.42 0 1 1 0-6.84 3.42 3.42 0 0 1 0 6.84z" fill="#d9a6c0"/><path d="m274.426 75.008a3.42 3.42 0 1 1 0-6.841 3.42 3.42 0 0 1 0 6.841z" fill="#c4e2d2"/><path d="m10.36 75.008a3.42 3.42 0 1 1 0-6.84 3.42 3.42 0 0 1 0 6.84zm471.397 10.003 5.915-2.752-4.176 2.687s5.071.13 8.334-1.574c0 0-4.328 2.851-6.823 3.893 0 0 6.237 1.67 8.772 6.01 0 0 1.434 4.539 2.253 9.575 0 0-7.619-6.793-6.956-4.018.187.785 6.008 4.053 7.108 8.129l.665 18.025s-9.671-5.734-6.968-4.334c.912.472 7.003 5.283 7.114 8.287s-2.221 8.474-4.61 12.362c-2.39 3.888-8.299 6.798-8.299 6.798l-10.504-10.062s2.578-7.378 6.279-10.048c0 0-5.845 4.649-7.204 6.441 0 0-3.126-7.485-3.483-12.855-.356-5.37.337-20.912.337-20.912s4.879-5.088 7.192-6.757l-7.28 4.385s3.193-7.876 8.633-10.61l-4.661-1.886 4.14.639s-1.809-1.833-2.037-3.725c-.001-.001 3.515 3.012 6.259 2.302z" fill="#219da4"/><path d="m483.794 116.072c.013-9.07 1.024-18.146.401-27.194-.376-5.453-1.338-10.995-.139-16.327l-2.268.405a1163.22 1163.22 0 0 0 2.001 63.547c.213 3.611.259 7.188.273 10.801 1.305-10.315-.282-20.881-.268-31.232z" fill="#c4ddd0"/><path d="m484.136 116.977c-.196-.115-.401-.24-.509-.439-.114-.21-.1-.464-.083-.702l.357-4.967a62.16 62.16 0 0 0 11.622 6.794c.428.191.88.395 1.148.78.281.403.306.925.321 1.416.045 1.493.348 3.311.05 4.74-4.22-2.645-8.605-5.092-12.906-7.622z" fill="#d9a6c0"/><path d="m485.157 105.035c-.296-.133-.624-.301-.716-.612-.051-.173-.016-.358.016-.535.309-1.71.339-3.47.09-5.19a356.932 356.932 0 0 0 9.397 4.874c.503.251 1.018.51 1.404.918.687.725.855 1.794.874 2.792.018.944.103 1.95.015 2.86-3.724-.959-7.536-3.515-11.08-5.107zm-.614 23.515-.04 3.18c-.007.552-.005 1.139.285 1.609.215.349.564.59.902.82a16054.7 16054.7 0 0 1 5.213 3.553c1.688 1.15 3.165 1.737 3.574-.703.224-1.339.078-2.13-.973-3.037-1.249-1.078-3.125-1.667-4.572-2.445-.67-.36-4.399-2.106-4.389-2.977z" fill="#c4e2d2"/><path d="m469.766 124.01a55.71 55.71 0 0 1 -.156-6.033c.004-.152.012-.313.097-.439.099-.146.277-.211.444-.269a54.353 54.353 0 0 0 12.601-6.264c-.414.278.325 4.343.014 5.114-.495 1.228-1.694 1.577-2.843 2.218z" fill="#d9a6c0"/><path d="m482.103 104.112c-.003.19-.009.392-.11.553-.107.171-.3.265-.483.349a135.614 135.614 0 0 1 -12.626 5.093c.36-1.489.543-3.021.545-4.553l6.556-3.256c1.627-.808 4.36-2.855 6.122-2.768.2 1.476.02 3.083-.004 4.582zm-6.604 35.344c.037-.414-.481-.626-.892-.684s-.931-.19-.984-.603c-.025-.193.074-.379.169-.548l1.813-3.234c.2-.357.404-.72.699-1.003.309-.297.699-.491 1.079-.689 2.142-1.119 3.966-2.58 5.866-4.034.352 1.923.303 3.876-1.075 5.353-.898.962-2.13 1.693-3.156 2.508-.587.466-3.458 2.233-3.519 2.934z" fill="#c4e2d2"/><path d="m494.88 131.712-.006-.158c-.037-1.015-1.619-1.02-1.582 0l.006.158c.037 1.015 1.619 1.02 1.582 0zm-3.626-1.284c.516-.354.639-1.177-.009-1.495-.911-.447-1.713.917-.799 1.366l.053.026-.392-.683.005.069.392-.683-.049.033c-.835.573-.044 1.945.799 1.367zm-3.155-1.504c1.018 0 1.02-1.582 0-1.582-1.019 0-1.02 1.582 0 1.582zm-6.038-.569c1.018 0 1.02-1.582 0-1.582-1.018 0-1.02 1.582 0 1.582zm-2.647 1.206c1.018 0 1.02-1.582 0-1.582-1.018 0-1.02 1.582 0 1.582zm1.999-20.339-.158.006c-1.015.037-1.02 1.619 0 1.582l.158-.006c1.015-.037 1.02-1.619 0-1.582zm-2.641 2.946c1.018 0 1.02-1.582 0-1.582-1.018 0-1.02 1.582 0 1.582zm-3.529-.291-.152.164c-.692.745.424 1.867 1.119 1.119l.152-.164c.693-.745-.424-1.866-1.119-1.119zm-1.51 1.681-.164-.152c-.745-.692-1.867.424-1.119 1.119l.164.152c.745.692 1.867-.425 1.119-1.119zm-2.744 2.223c1.018 0 1.02-1.582 0-1.582-1.018-.001-1.02 1.582 0 1.582zm24.408.682c1.018 0 1.02-1.582 0-1.582-1.018 0-1.02 1.582 0 1.582zm-2.029-2.838-.164-.152c-.745-.692-1.867.424-1.119 1.119l.164.152c.746.692 1.867-.425 1.119-1.119zm-2.678-1.075-.006-.158c-.038-1.015-1.62-1.02-1.582 0l.006.158c.037 1.015 1.619 1.02 1.582 0zm-2.34-1.907-.164-.152c-.745-.692-1.867.424-1.119 1.119l.164.152c.746.692 1.867-.424 1.119-1.119zm-1.56-.799-.006-.158c-.037-1.015-1.619-1.02-1.582 0l.006.158c.037 1.015 1.619 1.02 1.582 0zm-10.48 21.415c1.018 0 1.02-1.582 0-1.582-1.018 0-1.02 1.582 0 1.582zm4.564-34.727-.458.341c-.342.255-.516.685-.284 1.082.197.337.738.54 1.082.284l.458-.341c.342-.255.516-.685.284-1.082-.197-.337-.738-.54-1.082-.284zm-1.784 1.218-.158.006c-1.015.037-1.02 1.619 0 1.582l.158-.006c1.015-.037 1.02-1.619 0-1.582zm-3.121 2.805c1.018 0 1.02-1.582 0-1.582-1.019 0-1.02 1.582 0 1.582zm-3.099 1.856c1.018 0 1.02-1.582 0-1.582-1.018 0-1.019 1.582 0 1.582z" fill="#fff"/><path d="m471.313 103.102c1.018 0 1.02-1.582 0-1.582-1.018 0-1.02 1.582 0 1.582zm19.406-2.645.006.158c.038 1.015 1.62 1.02 1.582 0l-.006-.158c-.037-1.015-1.619-1.02-1.582 0zm-2.429-.673c1.018 0 1.02-1.582 0-1.582-1.018 0-1.02 1.582 0 1.582zm-2.272-1.499c1.018 0 1.02-1.582 0-1.582-1.018-.001-1.02 1.582 0 1.582zm-11.711 33.711-.006-.158c-.038-1.015-1.62-1.02-1.582 0l.006.158c.038 1.015 1.62 1.02 1.582 0z" fill="#fff"/><path d="m539.106 81.797s2.883-4.206 7.051-4.919c0 0-4.376 3.196-5.412 5.656 0 0 6.521-.786 9.671.27 0 0-7.196.214-8.359 2.255 0 0 6.892 5.724 10.974 13.028 0 0-2.583-1.593-3.972-1.355 0 0 3.587 5.216 4.596 8.701 0 0-4.156-4.679-4.839-4.975s3.327 4.656 3.475 9.223c.149 4.567-2.177 28.423-2.619 29.379 0 0-1.523-4.882-4.37-6.897 0 0 3.016 5.892 3.349 8.805l-2.926 10.703s-1.4-4.326-2.739-5.884c0 0 1.918 5.585 1.173 7.499-.745 1.915-6.683 6.588-8.364 7.371 0 0-6.067-5.562-6.811-8.625s-.707-14.262-.373-16.326c.334-2.065 5.136-5.664 5.136-5.664l-5.159 2.759.29-10.362s-.613-4.027 3.529-8.751c0 0-3.382 2.256-4.537 4.021 0 0 .412-9.806.328-11.744s5.052-7.602 5.052-7.602-4.948 3.871-5.669 4.957c0 0 .584-6.068 1.337-8.259s4.914-7.606 6.875-8.519c0 0-3.032-.361-5.151 1.239 0 0 .737-1.639 4.491-2.363 0 0-4.947-1.106-7.733-.355 0 0 6.157-2.593 8.486-1.837z" fill="#d9a6c0"/><path d="m539.588 141.249c-.251-.255-.518-.523-.603-.87-.079-.322.01-.658.096-.978a42.405 42.405 0 0 0 1.395-9.11c.95 1.739 2.12 3.363 3.52 4.765.736.738 1.534 1.413 2.27 2.151 1.235 1.239 2.343 2.79 2.352 4.54.005.865-.261 1.705-.525 2.528-.656 2.051-1.131 4.35-2.053 6.288-1.063-.46-2.114-3.729-2.821-4.811-.859-1.311-2.216-3.745-3.631-4.503zm-1.341-4.439c-.042.943-.098 1.932-.593 2.735-.344.559-.871.976-1.387 1.381l-7.918 6.216-.527-7.772c-.015-.215-.027-.441.068-.634.09-.183.264-.308.431-.426 2.531-1.779 5.132-3.469 7.597-5.339 5.539-4.2 2.387 1.772 2.329 3.839z" fill="#219da4"/><path d="m540.991 126.877c-.219-.138-.454-.287-.555-.526-.072-.17-.066-.363-.057-.548.048-1.013.125-2.025.231-3.034a46.92 46.92 0 0 1 9.015 7.148c.414.421.829.863 1.058 1.407.21.499.249 1.053.258 1.594.014.817.306 3.503-1.091 2.993-.79-.289-1.885-2.685-2.462-3.388a26.664 26.664 0 0 0 -6.397-5.646zm-2.145-1.292c-.008.165-.019.337-.104.478-.095.157-.265.25-.427.336l-5.326 2.803c-1.583.833-3.261 1.76-4.077 3.352a7.407 7.407 0 0 1 -.363-2.499c.009-.331.044-.672.203-.963.109-.199.27-.363.432-.521a23.003 23.003 0 0 1 6-4.239c.614-.3 2.679-1.549 3.343-1.316.762.267.355 1.859.319 2.569z" fill="#fff"/><path d="m549.391 126.646-.898-3.489-1.975 1.123c-.074.042-.16.085-.239.054-.073-.028-.109-.108-.138-.18a16.689 16.689 0 0 1 -.755-2.422c-.04-.176-.097-.378-.263-.451-.118-.052-.254-.019-.377.017a7.295 7.295 0 0 0 -1.771.793c-.101.063-.242.125-.326.042a.27.27 0 0 1 -.058-.116l-1.047-3.442a1.478 1.478 0 0 0 -.902.019 5.79 5.79 0 0 1 .101-1.397c.565-.095 1.229-.16 1.629.249.151.155.24.358.327.556l.983 2.261c.891-.37 1.827-.632 2.781-.777.338.82.596 1.673.771 2.542a10.793 10.793 0 0 0 2.522-.626l.559 3.133c.396-.226.74-.542.998-.917-.113.164-.029.965-.059 1.203-.028.226-.024.565-.122.774-.267.568-1.179.899-1.741 1.051zm-20.527-2.619c.091-.167.085-.369.14-.551s.225-.364.408-.312c.13.037.2.172.262.292a3.991 3.991 0 0 0 1.25 1.42l1.493-3.971 1.705 2.075a17.813 17.813 0 0 0 1.949-4.101c.651.281.784 1.141 1.248 1.678.027.032.06.064.102.068.063.005.109-.056.142-.11a42.798 42.798 0 0 0 1.499-2.7c-.05-.517.079-1.06.029-1.576l-1.65 1.742-1.892-1.477a125.774 125.774 0 0 0 -1.914 3.566l-1.556-1.351-1.382 3.162a5.386 5.386 0 0 1 -1.009-1.605c-.875.826-1.249 2.623-.824 3.751z" fill="#219da4"/><path d="m535.35 71.431c-.102-.431-.202-.903-.011-1.302.191-.4.815-.598 1.079-.242 3.558 11.476 3.92 23.663 4.255 35.674.097 3.501.195 7.003.166 10.506-.058 7.019-.626 14.025-1.449 20.993-.77 6.509-.929 14.334-3.068 20.508-1.154-.898.139-5.999.305-7.554.306-2.868.602-5.737.879-8.609.553-5.743 1.03-11.495 1.354-17.256.64-11.361.698-22.781-.441-34.113-.629-6.259-1.624-12.483-3.069-18.605z" fill="#fff"/><path d="m427.562 84.126s4.161 3.681 5.281 6.081l-2.64-1.76s3.601 5.281 4.561 9.601c0 0-2.4-3.841-3.601-4.481 0 0 3.12 5.281 3.601 7.521.48 2.24.96 8.641.96 8.641s0 1.44.8 3.841l1.28 12.642s-2.24-1.6-5.121-3.36c0 0 4.481 3.841 5.121 5.441s2.08 8.801 2.08 8.801-4.641-2.24-7.841-3.2c0 0 5.601 3.68 7.841 5.281 2.24 1.6 2.56 11.522-.96 22.403 0 0-8.961-1.92-13.442-7.361 0 0 .32-3.681 1.76-5.921 0 0-1.92 1.76-2.88 3.521 0 0-2.4-3.841-2.72-7.361 0 0 1.6-3.521 3.841-5.601 0 0-3.681 1.92-4.801 3.52s1.249-5.281-.335-3.04c0 0-2.385-7.361-2.545-12.962v-1.6s-.8-4.801 0-8.801c0 0 2.24-2.08 3.841-2.72 0 0-2.952.16-4.196.64 0 0 .036-11.042.836-13.922l.8-2.88s.48-2.88 3.52-4.001l2.08-.8s-2.4-.32-4.321.32c0 0 .8-2.24 4.001-3.68l2.08-1.28-5.281.8z" fill="#96dce6"/><path d="m427.976 132.656s-3.135 2.838-7.147 8.919c-4.372 6.627.05.457.582 0s1.475-1.499 4.07-2.721l-3.841 5.601s.6 3.875 2.72 7.361c0 0 1.92-2.772 3.841-4.481 0 0-2.08 1.6-2.72 6.881 0 0 5.281 6.241 13.442 7.361 0 0 2.72-7.201 3.521-14.002.8-6.801-2.56-8.401-2.56-8.401s-5.441-4.161-7.841-5.281c0 0 6.881 2.24 7.841 3.2s-1.288-1.007-6.089-2.607c-4.801-1.599-5.819-1.83-5.819-1.83z" fill="#c4e2d2"/><path d="m438.136 128.126a6.152 6.152 0 0 0 .42 3.568 393.275 393.275 0 0 1 -10.101-7.105 33.806 33.806 0 0 1 -9.121 10.699l-.521-3.746a29.448 29.448 0 0 0 9.704-10.824 29.688 29.688 0 0 0 6.081 4.605c1.081.618 2.227 1.187 3.062 2.111.836.924 1.294 2.324.735 3.437m-.485-8.414c-.487-.561-1.129-.857-1.865-.913-.508-.039-.505.753 0 .791.529.04.961.285 1.305.681.335.386.893-.176.56-.559zm-3.655-2.007a6.096 6.096 0 0 1 -1.352-.715c-.419-.291-.815.394-.399.683.481.334.992.592 1.541.795.477.177.684-.587.21-.763zm-3.38-2.027-1.456-.727c-.454-.227-.855.455-.399.683l1.456.727c.454.227.855-.455.399-.683zm-4.933.861-1.571 1.908c-.321.39.235.953.559.559l1.571-1.908c.321-.389-.235-.952-.559-.559zm-3.054 3.731a2.43 2.43 0 0 1 -.966.965c-.444.249-.046.933.399.683.533-.3.95-.716 1.25-1.249.25-.444-.433-.843-.683-.399zm-2.786 2.768-1.107 1.108c-.36.361.199.92.559.559l1.107-1.108c.36-.36-.199-.92-.559-.559zm-1.899 2.057c-.086.071-.17.144-.255.216-.053.045-.286.198-.178.168l.487.487c-.057.106-.047.108.031.005.339-.378-.219-.939-.559-.559-.084.094-.216.211-.234.344-.04.286.167.576.487.487.29-.082.555-.4.782-.587.391-.326-.171-.883-.561-.561zm18.464-14.768a32.312 32.312 0 0 1 -8.558-5.024c-.391-.319-.954.237-.559.559a33.615 33.615 0 0 0 8.907 5.228c.473.188.678-.577.21-.763zm-11.373-4.513-7.785 4.571.479.621.605-.553c.377-.344-.184-.902-.559-.559a303.4 303.4 0 0 0 -.605.553c-.335.306.095.847.479.621l7.785-4.571c.439-.258.041-.942-.399-.683zm10.599.52c-1.536.127-3.242-1.129-4.527-1.882a46.157 46.157 0 0 1 -3.646-2.389c-.414-.298-.809.388-.399.683a45.405 45.405 0 0 0 4.657 2.963c1.202.661 2.494 1.534 3.915 1.416.504-.042.508-.833 0-.791zm-10.437-4.171-8.437 6.26c-.404.3-.01.987.399.683l8.437-6.26c.405-.3.011-.987-.399-.683z" fill="#fff"/><path d="m437.832 159.284c-2.443-2.115-3.576-5.333-4.544-8.417-1.762-5.613-3.316-11.313-4.104-17.144-.45-3.329-.647-6.687-.844-10.041-.784-13.337-1.562-26.803.579-39.99.708-4.359 1.736-8.751 1.262-13.141l-2.28-.204-.032 3.342c-.111 11.737-2.832 23.378-2.562 35.113.115 4.982.539 9.952 1.083 14.905 1.144 10.405 2.886 20.957 7.673 30.266 1.04 2.023 1.843 4.105 3.769 5.311z" fill="#c4ddd0"/><path d="m314.545 85.664 5.915-2.751-4.176 2.687s5.071.13 8.333-1.574c0 0-4.328 2.851-6.823 3.893 0 0 6.236 1.67 8.772 6.01 0 0 1.434 4.539 2.253 9.575 0 0-7.619-6.793-6.957-4.018.187.785 6.008 4.053 7.108 8.129l.665 18.025s-9.671-5.734-6.968-4.334c.912.472 7.003 5.283 7.114 8.287s-2.221 8.473-4.61 12.362c-2.39 3.888-8.299 6.798-8.299 6.798l-10.504-10.062s2.578-7.378 6.279-10.048c0 0-5.845 4.649-7.204 6.441 0 0-3.126-7.485-3.483-12.855-.356-5.37.337-20.912.337-20.912s4.879-5.088 7.192-6.757l-7.28 4.385s3.193-7.876 8.633-10.61l-4.661-1.886 4.14.639s-1.809-1.833-2.037-3.725c.001-.001 3.517 3.012 6.261 2.301z" fill="#219da4"/><path d="m316.582 116.726c.013-9.07 1.025-18.146.401-27.194-.376-5.453-1.337-10.995-.139-16.327l-2.268.405a1163.22 1163.22 0 0 0 2.001 63.547c.213 3.611.259 7.188.273 10.801 1.304-10.316-.283-20.881-.268-31.232z" fill="#c4ddd0"/><path d="m316.923 117.63c-.196-.115-.401-.24-.509-.439-.114-.21-.1-.464-.083-.702l.357-4.967a62.165 62.165 0 0 0 11.622 6.795c.428.191.88.395 1.148.78.281.403.306.925.321 1.416.045 1.493.348 3.311.05 4.74-4.22-2.645-8.605-5.093-12.906-7.623z" fill="#d9a6c0"/><path d="m317.945 105.688c-.296-.133-.624-.301-.716-.612-.051-.173-.016-.358.016-.535.309-1.71.339-3.47.09-5.19a356.932 356.932 0 0 0 9.397 4.874c.503.251 1.017.51 1.404.918.687.725.855 1.793.874 2.792.018.944.103 1.95.015 2.86-3.725-.958-7.537-3.515-11.08-5.107zm-.614 23.515-.04 3.18c-.007.552-.005 1.139.285 1.609.215.349.564.59.902.82l5.213 3.553c1.688 1.15 3.165 1.737 3.574-.703.224-1.339.078-2.13-.973-3.037-1.249-1.078-3.125-1.667-4.572-2.445-.67-.36-4.4-2.106-4.389-2.977z" fill="#c4e2d2"/><path d="m302.553 124.663a55.71 55.71 0 0 1 -.156-6.033c.004-.152.012-.313.097-.439.099-.146.277-.211.444-.269a54.353 54.353 0 0 0 12.601-6.264c-.414.278.325 4.343.014 5.114-.495 1.227-1.694 1.576-2.843 2.218-3.386 1.891-6.771 3.783-10.157 5.673z" fill="#d9a6c0"/><path d="m314.891 104.765c-.003.19-.009.392-.11.553-.107.171-.3.265-.483.349a135.614 135.614 0 0 1 -12.626 5.093c.36-1.489.543-3.021.545-4.553l6.556-3.256c1.627-.808 4.36-2.855 6.122-2.768.199 1.476.019 3.083-.004 4.582zm-6.605 35.345c.036-.414-.481-.626-.892-.684s-.931-.19-.984-.603c-.025-.193.074-.378.169-.548l1.813-3.234c.2-.357.404-.72.699-1.003.309-.297.699-.491 1.079-.689 2.142-1.119 3.966-2.58 5.866-4.034.352 1.922.303 3.876-1.075 5.353-.898.962-2.13 1.693-3.156 2.508-.587.465-3.457 2.232-3.519 2.934z" fill="#c4e2d2"/><path d="m327.667 132.365-.006-.158c-.038-1.015-1.62-1.02-1.582 0l.006.158c.038 1.015 1.62 1.02 1.582 0zm-3.626-1.284c.516-.354.64-1.177-.009-1.495-.911-.447-1.714.918-.799 1.366l.053.026-.392-.683.005.069.392-.683-.049.034c-.834.573-.043 1.945.799 1.366zm-3.155-1.504c1.018 0 1.02-1.582 0-1.582-1.018 0-1.02 1.582 0 1.582zm-6.038-.569c1.018 0 1.02-1.582 0-1.582-1.018 0-1.02 1.582 0 1.582zm-2.647 1.207c1.018 0 1.02-1.582 0-1.582-1.018-.001-1.02 1.582 0 1.582zm2-20.34-.158.006c-1.015.038-1.02 1.62 0 1.582l.158-.006c1.015-.037 1.02-1.619 0-1.582zm-2.642 2.947c1.018 0 1.02-1.582 0-1.582-1.018 0-1.019 1.582 0 1.582zm-3.528-.291-.152.164c-.693.745.424 1.867 1.119 1.119l.152-.164c.692-.746-.425-1.867-1.119-1.119zm-1.511 1.68-.164-.152c-.745-.692-1.867.424-1.119 1.119l.164.152c.746.692 1.867-.424 1.119-1.119zm-2.744 2.223c1.018 0 1.02-1.582 0-1.582-1.018 0-1.02 1.582 0 1.582zm24.408.683c1.018 0 1.02-1.582 0-1.582-1.018-.001-1.02 1.582 0 1.582zm-2.029-2.839-.164-.152c-.746-.692-1.867.424-1.119 1.119l.164.152c.746.692 1.867-.424 1.119-1.119zm-2.678-1.075-.006-.158c-.038-1.015-1.62-1.02-1.582 0l.006.158c.037 1.015 1.62 1.02 1.582 0zm-2.34-1.906-.164-.152c-.745-.692-1.867.424-1.119 1.119l.164.152c.746.692 1.867-.424 1.119-1.119zm-1.56-.8-.006-.158c-.037-1.015-1.619-1.02-1.582 0l.006.158c.037 1.015 1.619 1.02 1.582 0zm-10.48 21.415c1.018 0 1.02-1.582 0-1.582-1.018 0-1.02 1.582 0 1.582zm4.564-34.726-.458.34c-.342.255-.516.685-.284 1.082.197.338.738.54 1.082.284l.458-.34c.342-.255.516-.685.284-1.082-.197-.338-.737-.541-1.082-.284zm-1.784 1.217-.158.006c-1.015.038-1.02 1.62 0 1.582l.158-.006c1.015-.037 1.02-1.62 0-1.582zm-3.121 2.806c1.018 0 1.02-1.582 0-1.582-1.018-.001-1.02 1.582 0 1.582zm-3.098 1.856c1.018 0 1.02-1.582 0-1.582-1.018 0-1.02 1.582 0 1.582z" fill="#fff"/><path d="m304.1 103.756c1.018 0 1.02-1.582 0-1.582-1.018-.001-1.02 1.582 0 1.582zm19.407-2.645.006.158c.038 1.015 1.62 1.02 1.582 0l-.006-.158c-.038-1.015-1.62-1.02-1.582 0zm-2.43-.674c1.018 0 1.02-1.582 0-1.582-1.018 0-1.02 1.582 0 1.582zm-2.272-1.499c1.018 0 1.02-1.582 0-1.582-1.018 0-1.02 1.582 0 1.582zm-11.71 33.711-.006-.158c-.037-1.015-1.619-1.02-1.582 0l.006.158c.036 1.015 1.619 1.02 1.582 0z" fill="#fff"/><path d="m371.893 82.45s2.883-4.206 7.051-4.919c0 0-4.376 3.196-5.412 5.656 0 0 6.521-.786 9.671.27 0 0-7.196.214-8.359 2.255 0 0 6.892 5.724 10.974 13.028 0 0-2.583-1.593-3.972-1.356 0 0 3.587 5.216 4.596 8.701 0 0-4.156-4.679-4.839-4.975s3.327 4.656 3.475 9.223c.149 4.567-2.177 28.423-2.619 29.379 0 0-1.523-4.882-4.37-6.897 0 0 3.015 5.892 3.349 8.805l-2.926 10.703s-1.4-4.326-2.739-5.884c0 0 1.918 5.584 1.173 7.499s-6.683 6.588-8.364 7.371c0 0-6.067-5.562-6.811-8.625s-.707-14.262-.373-16.326c.334-2.065 5.136-5.664 5.136-5.664l-5.159 2.759.29-10.362s-.613-4.027 3.529-8.751c0 0-3.382 2.256-4.537 4.021 0 0 .412-9.806.328-11.744s5.052-7.602 5.052-7.602-4.948 3.872-5.669 4.958c0 0 .584-6.068 1.337-8.259s4.914-7.606 6.875-8.519c0 0-3.032-.361-5.151 1.239 0 0 .737-1.639 4.491-2.363 0 0-4.947-1.106-7.733-.355 0 0 6.156-2.593 8.486-1.837z" fill="#d9a6c0"/><path d="m372.375 141.902c-.251-.255-.518-.523-.603-.87-.079-.322.01-.658.096-.978a42.395 42.395 0 0 0 1.395-9.11c.95 1.739 2.12 3.363 3.52 4.765.736.738 1.534 1.413 2.27 2.151 1.235 1.239 2.343 2.79 2.352 4.54.005.865-.261 1.705-.525 2.528-.656 2.051-1.131 4.35-2.053 6.288-1.063-.46-2.114-3.729-2.821-4.811-.859-1.311-2.216-3.745-3.631-4.503zm-1.341-4.438c-.042.943-.098 1.932-.593 2.735-.344.559-.871.976-1.387 1.381l-7.918 6.216-.527-7.772c-.014-.215-.027-.441.068-.634.09-.183.264-.308.431-.426 2.531-1.779 5.132-3.469 7.597-5.339 5.539-4.201 2.387 1.771 2.329 3.839z" fill="#219da4"/><path d="m373.779 127.53c-.219-.138-.454-.287-.555-.526-.072-.17-.066-.363-.057-.547.048-1.013.125-2.025.231-3.034a46.92 46.92 0 0 1 9.015 7.148c.414.421.829.863 1.058 1.407.21.499.249 1.053.258 1.594.014.817.306 3.503-1.091 2.992-.79-.289-1.885-2.685-2.462-3.388a26.723 26.723 0 0 0 -6.397-5.646zm-2.146-1.291c-.008.165-.019.337-.104.478-.095.157-.265.25-.427.336l-5.326 2.803c-1.583.833-3.261 1.76-4.077 3.352a7.407 7.407 0 0 1 -.363-2.499c.009-.331.044-.672.203-.963.109-.198.27-.362.432-.521a23.003 23.003 0 0 1 6-4.239c.614-.3 2.679-1.549 3.343-1.316.762.266.355 1.858.319 2.569z" fill="#fff"/><path d="m382.178 127.299-.898-3.489-1.975 1.123c-.074.042-.16.085-.239.054-.073-.028-.109-.108-.138-.18a16.563 16.563 0 0 1 -.754-2.422c-.04-.176-.097-.378-.263-.451-.118-.052-.254-.019-.377.017a7.295 7.295 0 0 0 -1.771.793c-.101.063-.242.125-.326.042a.27.27 0 0 1 -.058-.116l-1.047-3.442a1.478 1.478 0 0 0 -.902.019 5.79 5.79 0 0 1 .101-1.397c.565-.095 1.229-.16 1.629.249.151.155.241.358.327.556l.983 2.261a11.89 11.89 0 0 1 2.781-.777c.338.82.596 1.673.771 2.542a10.793 10.793 0 0 0 2.522-.626l.559 3.133c.396-.226.74-.542.998-.917-.113.165-.029.965-.059 1.203-.028.226-.024.565-.122.774-.268.568-1.18.899-1.742 1.051zm-20.526-2.619c.091-.167.085-.369.14-.551s.225-.364.408-.312c.13.037.2.172.262.292a3.991 3.991 0 0 0 1.25 1.42l1.493-3.971 1.705 2.075a17.813 17.813 0 0 0 1.949-4.101c.651.281.784 1.141 1.248 1.678.027.032.06.064.102.068.063.005.109-.056.142-.11a42.798 42.798 0 0 0 1.499-2.7c-.05-.516.079-1.06.03-1.576l-1.65 1.742-1.892-1.477a125.774 125.774 0 0 0 -1.914 3.566l-1.556-1.351-1.382 3.162a5.386 5.386 0 0 1 -1.009-1.605c-.876.826-1.25 2.624-.825 3.751z" fill="#219da4"/><path d="m368.137 72.084c-.102-.431-.202-.903-.011-1.302.191-.4.815-.598 1.079-.242 3.558 11.477 3.92 23.664 4.255 35.674.097 3.501.195 7.003.166 10.506-.058 7.019-.626 14.025-1.449 20.993-.77 6.509-.929 14.334-3.068 20.508-1.154-.898.139-5.999.305-7.554.306-2.868.603-5.737.879-8.609.553-5.743 1.03-11.495 1.354-17.256.64-11.361.698-22.781-.441-34.113-.629-6.258-1.623-12.482-3.069-18.605z" fill="#fff"/><path d="m260.349 84.78s4.161 3.68 5.281 6.081l-2.64-1.76s3.601 5.281 4.561 9.601c0 0-2.4-3.841-3.601-4.481 0 0 3.12 5.281 3.601 7.521.48 2.24.96 8.641.96 8.641s0 1.44.8 3.841l1.28 12.642s-2.24-1.6-5.121-3.361c0 0 4.481 3.841 5.121 5.441s2.08 8.801 2.08 8.801-4.641-2.24-7.841-3.2c0 0 5.601 3.681 7.841 5.281s2.56 11.522-.96 22.403c0 0-8.961-1.92-13.442-7.361 0 0 .32-3.681 1.76-5.921 0 0-1.92 1.76-2.88 3.521 0 0-2.4-3.841-2.72-7.361 0 0 1.6-3.521 3.841-5.601 0 0-3.681 1.92-4.801 3.52s1.249-5.281-.335-3.04c0 0-2.385-7.361-2.545-12.962v-1.6s-.8-4.801 0-8.801c0 0 2.24-2.08 3.841-2.72 0 0-2.952.16-4.196.64 0 0 .036-11.042.836-13.922l.8-2.88s.48-2.88 3.52-4.001l2.08-.8s-2.4-.32-4.321.32c0 0 .8-2.24 4.001-3.681l2.08-1.28-5.281.8z" fill="#96dce6"/><path d="m260.764 133.309s-3.135 2.838-7.147 8.919c-4.372 6.627.05.457.582 0s1.475-1.499 4.07-2.721l-3.841 5.601s.6 3.875 2.72 7.361c0 0 1.92-2.772 3.841-4.481 0 0-2.08 1.6-2.72 6.881 0 0 5.281 6.241 13.442 7.361 0 0 2.72-7.201 3.52-14.002s-2.56-8.401-2.56-8.401-5.441-4.161-7.841-5.281c0 0 6.881 2.24 7.841 3.2s-1.288-1.007-6.089-2.607c-4.801-1.599-5.818-1.83-5.818-1.83z" fill="#c4e2d2"/><path d="m270.924 128.779a6.152 6.152 0 0 0 .42 3.568 395.742 395.742 0 0 1 -10.101-7.104 33.806 33.806 0 0 1 -9.121 10.699l-.521-3.746a29.448 29.448 0 0 0 9.704-10.824 29.688 29.688 0 0 0 6.081 4.605c1.081.618 2.227 1.187 3.062 2.111.836.924 1.294 2.324.735 3.437m-.486-8.414c-.487-.561-1.129-.857-1.865-.913-.508-.039-.505.753 0 .791.529.04.961.285 1.305.681.335.385.893-.176.56-.559zm-3.655-2.007a6.096 6.096 0 0 1 -1.352-.715c-.419-.291-.815.394-.399.683.481.334.992.592 1.541.795.478.177.684-.587.21-.763zm-3.38-2.028-1.456-.727c-.454-.227-.855.455-.399.683l1.456.727c.454.227.855-.455.399-.683zm-4.933.862-1.571 1.908c-.321.39.235.953.559.559l1.571-1.908c.322-.39-.235-.953-.559-.559zm-3.054 3.73a2.43 2.43 0 0 1 -.966.965c-.444.249-.046.933.399.683.533-.3.95-.716 1.25-1.249.25-.443-.433-.843-.683-.399zm-2.786 2.769-1.107 1.108c-.36.361.199.92.559.559l1.107-1.108c.361-.361-.198-.92-.559-.559zm-1.899 2.056c-.086.071-.17.144-.255.216-.053.045-.286.198-.178.168l.487.487c-.057.106-.047.108.031.005.339-.378-.219-.939-.559-.559-.084.094-.216.211-.234.344-.04.286.167.576.487.487.29-.081.555-.4.782-.587.391-.326-.171-.883-.561-.561zm18.464-14.767a32.288 32.288 0 0 1 -8.558-5.025c-.391-.319-.954.237-.559.559a33.615 33.615 0 0 0 8.907 5.228c.473.188.679-.577.21-.762zm-11.373-4.514-7.785 4.571.479.621.605-.553c.377-.344-.184-.902-.559-.559a303.4 303.4 0 0 0 -.605.553c-.335.306.095.847.479.621l7.785-4.571c.439-.257.042-.941-.399-.683zm10.599.52c-1.536.127-3.242-1.129-4.527-1.882a46.157 46.157 0 0 1 -3.646-2.389c-.414-.298-.809.388-.399.683a45.405 45.405 0 0 0 4.657 2.963c1.202.661 2.494 1.534 3.915 1.416.504-.041.509-.833 0-.791zm-10.436-4.171-8.437 6.26c-.404.3-.01.987.399.683l8.437-6.26c.404-.3.01-.987-.399-.683z" fill="#fff"/><path d="m270.619 159.938c-2.443-2.115-3.576-5.333-4.544-8.417-1.762-5.613-3.316-11.313-4.103-17.144-.45-3.329-.647-6.687-.844-10.041-.784-13.337-1.562-26.803.579-39.99.708-4.359 1.736-8.751 1.262-13.141l-2.28-.204-.032 3.342c-.111 11.738-2.832 23.378-2.562 35.113.115 4.982.539 9.952 1.083 14.905 1.144 10.405 2.886 20.956 7.673 30.266 1.04 2.023 1.842 4.104 3.768 5.311z" fill="#219da4"/><path d="m147.332 86.317 5.915-2.752-4.176 2.687s5.071.13 8.333-1.574c0 0-4.328 2.851-6.823 3.893 0 0 6.237 1.67 8.772 6.01 0 0 1.434 4.539 2.253 9.575 0 0-7.619-6.793-6.957-4.018.187.785 6.008 4.053 7.108 8.129l.665 18.025s-9.671-5.734-6.968-4.334c.912.472 7.003 5.283 7.114 8.287s-2.221 8.473-4.61 12.362c-2.39 3.888-8.299 6.798-8.299 6.798l-10.505-10.062s2.578-7.378 6.279-10.048c0 0-5.845 4.649-7.204 6.441 0 0-3.126-7.484-3.483-12.855-.356-5.37.337-20.912.337-20.912s4.879-5.088 7.192-6.757l-7.28 4.385s3.193-7.876 8.633-10.61l-4.661-1.886 4.14.639s-1.809-1.833-2.037-3.725c.002 0 3.518 3.013 6.262 2.302z" fill="#219da4"/><path d="m149.369 117.379c.013-9.07 1.025-18.146.401-27.194-.376-5.453-1.338-10.995-.139-16.327l-2.268.405a1163.22 1163.22 0 0 0 2.001 63.547c.213 3.611.259 7.188.273 10.801 1.305-10.315-.283-20.881-.268-31.232z" fill="#c4ddd0"/><path d="m149.71 118.284c-.196-.115-.401-.24-.509-.439-.114-.21-.1-.464-.083-.702l.357-4.967a62.128 62.128 0 0 0 11.622 6.794c.428.191.88.395 1.148.78.281.403.306.925.321 1.416.045 1.493.348 3.311.05 4.74-4.219-2.645-8.604-5.093-12.906-7.622z" fill="#d9a6c0"/><path d="m150.732 106.342c-.296-.133-.624-.301-.716-.612-.051-.173-.016-.358.016-.535.309-1.71.339-3.471.09-5.19a356.932 356.932 0 0 0 9.397 4.874c.503.251 1.017.51 1.404.918.687.725.855 1.794.874 2.792.018.944.103 1.95.016 2.86-3.725-.959-7.538-3.515-11.081-5.107zm-.614 23.515-.04 3.18c-.007.552-.005 1.139.285 1.609.215.349.564.59.902.82l5.213 3.553c1.688 1.15 3.166 1.737 3.574-.703.224-1.339.078-2.13-.973-3.037-1.249-1.078-3.125-1.667-4.572-2.445-.67-.36-4.4-2.106-4.389-2.977z" fill="#c4e2d2"/><path d="m135.34 125.317a55.71 55.71 0 0 1 -.156-6.033c.004-.152.012-.313.097-.439.099-.146.277-.211.444-.269a54.353 54.353 0 0 0 12.601-6.264c-.414.278.325 4.343.014 5.114-.495 1.227-1.694 1.576-2.843 2.218z" fill="#d9a6c0"/><path d="m147.678 105.418c-.003.19-.009.392-.11.553-.107.171-.3.265-.483.349a135.614 135.614 0 0 1 -12.626 5.093c.36-1.489.543-3.021.545-4.553l6.556-3.256c1.627-.808 4.36-2.855 6.122-2.768.199 1.477.019 3.084-.004 4.582zm-6.605 35.345c.037-.414-.481-.626-.892-.684s-.931-.191-.984-.603c-.025-.193.074-.378.169-.548l1.813-3.234c.2-.357.404-.72.699-1.003.309-.297.699-.491 1.079-.689 2.142-1.119 3.966-2.58 5.866-4.034.352 1.922.303 3.876-1.075 5.353-.898.962-2.13 1.693-3.156 2.508-.587.465-3.457 2.233-3.519 2.934z" fill="#c4e2d2"/><path d="m160.455 133.018-.006-.158c-.038-1.015-1.62-1.02-1.582 0l.006.158c.037 1.016 1.619 1.02 1.582 0zm-3.627-1.283c.516-.354.64-1.177-.009-1.495-.911-.446-1.714.918-.799 1.366l.053.026-.392-.683.005.069.392-.683-.049.034c-.834.572-.043 1.944.799 1.366zm-3.155-1.504c1.018 0 1.02-1.582 0-1.582-1.018-.001-1.02 1.582 0 1.582zm-6.037-.569c1.018 0 1.02-1.582 0-1.582-1.019 0-1.02 1.582 0 1.582zm-2.648 1.206c1.018 0 1.02-1.582 0-1.582-1.018 0-1.019 1.582 0 1.582zm2-20.339-.158.006c-1.015.038-1.02 1.62 0 1.582l.158-.006c1.015-.038 1.02-1.62 0-1.582zm-2.641 2.946c1.018 0 1.02-1.582 0-1.582-1.018 0-1.02 1.582 0 1.582zm-3.529-.291-.152.164c-.692.745.424 1.867 1.119 1.119l.152-.164c.692-.745-.424-1.867-1.119-1.119zm-1.511 1.681-.164-.152c-.746-.692-1.867.424-1.119 1.119l.164.152c.745.692 1.867-.424 1.119-1.119zm-2.744 2.222c1.018 0 1.02-1.582 0-1.582-1.018 0-1.019 1.582 0 1.582zm24.409.683c1.018 0 1.02-1.582 0-1.582-1.019 0-1.02 1.582 0 1.582zm-2.029-2.838-.164-.152c-.745-.692-1.867.424-1.119 1.119l.164.152c.745.692 1.867-.425 1.119-1.119zm-2.679-1.075-.006-.158c-.038-1.015-1.62-1.02-1.582 0l.006.158c.038 1.015 1.62 1.02 1.582 0zm-2.34-1.907-.164-.152c-.746-.692-1.867.424-1.119 1.119l.164.152c.746.692 1.867-.424 1.119-1.119zm-1.56-.799-.006-.158c-.038-1.015-1.62-1.02-1.582 0l.006.158c.038 1.015 1.62 1.02 1.582 0zm-10.48 21.415c1.018 0 1.02-1.582 0-1.582-1.018-.001-1.019 1.582 0 1.582zm4.564-34.727-.458.34c-.342.255-.516.685-.284 1.082.197.337.738.54 1.082.284l.458-.34c.342-.255.516-.685.284-1.082-.197-.338-.737-.54-1.082-.284zm-1.783 1.217-.158.006c-1.015.038-1.02 1.62 0 1.582l.158-.006c1.015-.037 1.02-1.619 0-1.582zm-3.122 2.806c1.018 0 1.02-1.582 0-1.582-1.018 0-1.02 1.582 0 1.582zm-3.098 1.856c1.018 0 1.02-1.582 0-1.582-1.018 0-1.02 1.582 0 1.582z" fill="#fff"/><path d="m136.887 104.409c1.018 0 1.02-1.582 0-1.582-1.018 0-1.02 1.582 0 1.582zm19.407-2.645.006.158c.037 1.015 1.619 1.02 1.582 0l-.006-.158c-.037-1.015-1.619-1.02-1.582 0zm-2.43-.673c1.018 0 1.02-1.582 0-1.582-1.018-.001-1.019 1.582 0 1.582zm-2.272-1.5c1.018 0 1.02-1.582 0-1.582-1.018 0-1.019 1.582 0 1.582zm-11.71 33.712-.006-.158c-.037-1.015-1.619-1.02-1.582 0l.006.158c.037 1.015 1.619 1.02 1.582 0z" fill="#fff"/><path d="m204.681 83.103s2.883-4.206 7.051-4.919c0 0-4.376 3.196-5.412 5.656 0 0 6.521-.786 9.671.27 0 0-7.196.214-8.359 2.255 0 0 6.892 5.723 10.974 13.028 0 0-2.583-1.593-3.972-1.355 0 0 3.587 5.216 4.596 8.701 0 0-4.156-4.679-4.839-4.975s3.327 4.656 3.475 9.223c.149 4.567-2.177 28.423-2.619 29.379 0 0-1.523-4.882-4.37-6.898 0 0 3.016 5.892 3.349 8.805l-2.926 10.703s-1.4-4.326-2.739-5.884c0 0 1.918 5.584 1.173 7.499s-6.683 6.588-8.364 7.371c0 0-6.067-5.562-6.811-8.625s-.707-14.262-.373-16.326c.334-2.065 5.136-5.664 5.136-5.664l-5.159 2.759.29-10.362s-.613-4.027 3.529-8.751c0 0-3.382 2.256-4.537 4.021 0 0 .412-9.806.328-11.744s5.052-7.602 5.052-7.602-4.948 3.872-5.669 4.958c0 0 .584-6.068 1.337-8.259s4.914-7.606 6.875-8.519c0 0-3.032-.361-5.151 1.239 0 0 .737-1.639 4.491-2.363 0 0-4.947-1.106-7.733-.354 0 0 6.156-2.593 8.486-1.837z" fill="#d9a6c0"/><path d="m205.162 142.556c-.251-.255-.518-.523-.603-.87-.079-.322.01-.658.096-.978a42.405 42.405 0 0 0 1.395-9.11c.95 1.739 2.12 3.363 3.52 4.765.736.738 1.534 1.413 2.27 2.151 1.235 1.239 2.343 2.79 2.352 4.54.005.865-.261 1.705-.524 2.528-.656 2.051-1.131 4.35-2.053 6.288-1.063-.46-2.114-3.729-2.821-4.811-.859-1.311-2.217-3.746-3.632-4.503zm-1.34-4.439c-.042.943-.098 1.932-.593 2.735-.344.559-.871.976-1.387 1.381l-7.918 6.216-.527-7.772c-.015-.215-.027-.441.068-.634.09-.183.264-.308.431-.425 2.531-1.779 5.132-3.469 7.597-5.339 5.538-4.202 2.387 1.771 2.329 3.838z" fill="#219da4"/><path d="m206.566 128.184c-.219-.138-.454-.287-.555-.526-.072-.17-.066-.363-.057-.548a54.02 54.02 0 0 1 .23-3.034 46.92 46.92 0 0 1 9.015 7.148c.414.421.829.863 1.058 1.407.21.5.249 1.053.258 1.594.014.817.306 3.503-1.091 2.993-.79-.289-1.885-2.685-2.462-3.388a26.656 26.656 0 0 0 -6.396-5.646zm-2.146-1.292c-.008.165-.019.337-.104.478-.095.157-.265.25-.427.336l-5.326 2.803c-1.583.833-3.261 1.76-4.077 3.352a7.407 7.407 0 0 1 -.363-2.499c.009-.331.044-.672.203-.963.109-.199.27-.363.432-.521a23.003 23.003 0 0 1 6-4.239c.614-.301 2.679-1.549 3.343-1.316.763.267.356 1.858.319 2.569z" fill="#fff"/><path d="m214.966 127.952-.898-3.489-1.975 1.123c-.074.042-.16.085-.239.054-.073-.028-.109-.108-.138-.18a16.689 16.689 0 0 1 -.755-2.422c-.04-.176-.097-.378-.263-.451-.118-.052-.254-.019-.377.017a7.295 7.295 0 0 0 -1.771.793c-.101.063-.242.125-.326.042a.27.27 0 0 1 -.058-.116l-1.047-3.442a1.478 1.478 0 0 0 -.902.019 5.79 5.79 0 0 1 .101-1.397c.565-.095 1.229-.16 1.629.249.151.155.24.358.327.556l.983 2.261a11.89 11.89 0 0 1 2.781-.777c.338.82.596 1.673.771 2.542a10.793 10.793 0 0 0 2.522-.626l.559 3.133c.396-.226.74-.542.998-.917-.113.165-.029.965-.059 1.203-.028.226-.024.565-.122.774-.268.568-1.179.899-1.741 1.051zm-20.527-2.618c.091-.167.085-.369.14-.551s.225-.364.408-.312c.13.037.2.172.262.292a3.991 3.991 0 0 0 1.25 1.42l1.493-3.971 1.705 2.075a17.813 17.813 0 0 0 1.949-4.101c.651.281.784 1.141 1.248 1.678.027.032.06.064.102.068.063.005.109-.056.142-.11a42.798 42.798 0 0 0 1.499-2.7c-.05-.516.079-1.06.03-1.576l-1.65 1.742-1.892-1.477a125.774 125.774 0 0 0 -1.914 3.566l-1.556-1.351-1.382 3.162a5.386 5.386 0 0 1 -1.009-1.605c-.876.825-1.25 2.623-.825 3.751z" fill="#219da4"/><path d="m200.925 72.738c-.102-.431-.202-.903-.011-1.302.191-.4.815-.598 1.08-.242 3.558 11.476 3.92 23.663 4.255 35.674.097 3.501.195 7.003.166 10.506-.058 7.019-.626 14.025-1.449 20.993-.77 6.509-.929 14.335-3.068 20.508-1.154-.898.139-5.999.305-7.554.306-2.868.603-5.737.879-8.609.553-5.743 1.03-11.495 1.355-17.256.64-11.361.698-22.781-.441-34.113-.632-6.259-1.626-12.483-3.071-18.605z" fill="#fff"/><path d="m37.3 83.138s2.883-4.206 7.051-4.919c0 0-4.376 3.196-5.412 5.656 0 0 6.521-.786 9.671.27 0 0-7.196.214-8.359 2.255 0 0 6.892 5.723 10.974 13.028 0 0-2.583-1.593-3.972-1.355 0 0 3.587 5.216 4.596 8.701 0 0-4.156-4.679-4.839-4.975s3.327 4.656 3.475 9.223c.149 4.567-2.177 28.423-2.619 29.379 0 0-1.523-4.882-4.37-6.898 0 0 3.016 5.892 3.349 8.805l-2.926 10.703s-1.4-4.326-2.739-5.884c0 0 1.918 5.584 1.173 7.499s-6.683 6.588-8.364 7.371c0 0-6.067-5.562-6.811-8.625s-.707-14.262-.373-16.326c.334-2.065 5.136-5.664 5.136-5.664l-5.159 2.759.29-10.362s-.613-4.027 3.529-8.751c0 0-3.382 2.256-4.537 4.021 0 0 .412-9.806.328-11.744s5.052-7.602 5.052-7.602-4.948 3.872-5.669 4.958c0 0 .584-6.068 1.337-8.259s4.914-7.606 6.875-8.519c0 0-3.032-.361-5.151 1.239 0 0 .737-1.639 4.491-2.363 0 0-4.947-1.106-7.733-.354 0 0 6.157-2.593 8.486-1.837z" fill="#d9a6c0"/><path d="m37.782 142.59c-.251-.255-.518-.523-.603-.87-.079-.322.01-.658.096-.978a42.405 42.405 0 0 0 1.395-9.11c.95 1.739 2.12 3.363 3.52 4.765.736.738 1.534 1.413 2.27 2.151 1.235 1.239 2.343 2.79 2.352 4.54.005.865-.261 1.705-.524 2.528-.656 2.051-1.131 4.35-2.053 6.288-1.063-.46-2.114-3.729-2.821-4.811-.86-1.311-2.217-3.745-3.632-4.503zm-1.341-4.439c-.042.943-.098 1.932-.593 2.735-.344.559-.871.976-1.387 1.381l-7.918 6.216-.527-7.772c-.015-.215-.027-.441.068-.634.09-.183.264-.308.431-.425 2.531-1.779 5.132-3.469 7.597-5.339 5.539-4.201 2.387 1.771 2.329 3.838z" fill="#219da4"/><path d="m39.186 128.218c-.219-.138-.454-.287-.555-.526-.072-.17-.066-.363-.057-.548.048-1.013.125-2.025.231-3.034a46.92 46.92 0 0 1 9.015 7.148c.414.421.829.863 1.058 1.407.21.5.249 1.053.258 1.594.014.817.306 3.503-1.091 2.993-.79-.289-1.885-2.685-2.462-3.388a26.723 26.723 0 0 0 -6.397-5.646zm-2.146-1.292c-.008.165-.019.337-.104.478-.095.157-.265.25-.427.336l-5.326 2.803c-1.583.833-3.261 1.76-4.077 3.352a7.407 7.407 0 0 1 -.363-2.499c.009-.331.044-.672.203-.963.109-.199.27-.363.432-.521a23.003 23.003 0 0 1 6-4.239c.614-.3 2.679-1.549 3.343-1.316.762.267.355 1.859.319 2.569z" fill="#fff"/><path d="m47.585 127.987-.898-3.489-1.975 1.123c-.074.042-.16.085-.239.054-.073-.028-.109-.108-.138-.18a16.689 16.689 0 0 1 -.755-2.422c-.04-.176-.097-.378-.263-.451-.118-.052-.254-.019-.377.017a7.295 7.295 0 0 0 -1.771.793c-.101.063-.242.125-.326.042a.27.27 0 0 1 -.058-.116l-1.047-3.442a1.478 1.478 0 0 0 -.902.019 5.79 5.79 0 0 1 .101-1.397c.565-.095 1.229-.16 1.629.249.151.155.241.358.327.556l.983 2.261a11.89 11.89 0 0 1 2.781-.777c.338.82.596 1.673.771 2.542a10.793 10.793 0 0 0 2.522-.626l.559 3.133c.396-.226.74-.542.998-.917-.113.165-.029.965-.059 1.203-.028.226-.024.565-.122.774-.267.568-1.179.899-1.741 1.051zm-20.526-2.619c.091-.167.085-.369.14-.551s.225-.364.408-.312c.13.037.2.172.262.292a3.991 3.991 0 0 0 1.25 1.42l1.493-3.971 1.705 2.075a17.813 17.813 0 0 0 1.949-4.101c.651.281.784 1.141 1.248 1.678.027.032.06.064.102.068.063.005.109-.056.142-.11a42.798 42.798 0 0 0 1.499-2.7c-.05-.517.079-1.06.03-1.576l-1.65 1.742-1.892-1.477a125.774 125.774 0 0 0 -1.914 3.566l-1.556-1.351-1.382 3.162a5.386 5.386 0 0 1 -1.009-1.605c-.876.826-1.25 2.623-.825 3.751z" fill="#219da4"/><path d="m33.544 72.772c-.102-.431-.202-.903-.011-1.302.191-.4.815-.598 1.08-.242 3.558 11.476 3.92 23.663 4.255 35.674.097 3.501.195 7.003.166 10.506-.058 7.019-.626 14.025-1.449 20.993-.77 6.509-.929 14.335-3.068 20.508-1.154-.898.139-5.999.305-7.554.306-2.868.603-5.737.879-8.609.553-5.743 1.03-11.495 1.355-17.256.64-11.361.698-22.781-.441-34.113-.631-6.259-1.626-12.482-3.071-18.605z" fill="#fff"/><path d="m93.136 85.433s4.161 3.681 5.281 6.081l-2.64-1.76s3.6 5.281 4.561 9.601c0 0-2.4-3.841-3.601-4.481 0 0 3.12 5.281 3.601 7.521.48 2.24.96 8.641.96 8.641s0 1.44.8 3.841l1.28 12.642s-2.24-1.6-5.121-3.361c0 0 4.481 3.841 5.121 5.441s2.08 8.801 2.08 8.801-4.641-2.24-7.841-3.2c0 0 5.601 3.681 7.841 5.281s2.56 11.522-.96 22.403c0 0-8.961-1.92-13.442-7.361 0 0 .32-3.68 1.76-5.921 0 0-1.92 1.76-2.88 3.521 0 0-2.4-3.841-2.72-7.361 0 0 1.6-3.521 3.841-5.601 0 0-3.681 1.92-4.801 3.521-1.12 1.6 1.249-5.281-.335-3.04 0 0-2.385-7.361-2.545-12.962v-1.6s-.8-4.801 0-8.801c0 0 2.24-2.08 3.841-2.72 0 0-2.952.16-4.196.64 0 0 .036-11.042.836-13.922l.8-2.88s.48-2.88 3.521-4.001l2.08-.8s-2.4-.32-4.321.32c0 0 .8-2.24 4.001-3.681l2.08-1.28-5.281.8z" fill="#96dce6"/><path d="m93.551 133.963s-3.135 2.838-7.147 8.919c-4.372 6.627.05.457.582 0s1.475-1.499 4.07-2.721l-3.841 5.601s.6 3.875 2.72 7.361c0 0 1.92-2.772 3.841-4.481 0 0-2.08 1.6-2.72 6.881 0 0 5.281 6.241 13.442 7.361 0 0 2.72-7.201 3.521-14.002s-2.56-8.401-2.56-8.401-5.441-4.161-7.841-5.281c0 0 6.881 2.24 7.841 3.2s-1.288-1.007-6.089-2.607-5.819-1.83-5.819-1.83z" fill="#c4e2d2"/><path d="m103.711 129.432a6.152 6.152 0 0 0 .42 3.568 395.742 395.742 0 0 1 -10.101-7.104 33.806 33.806 0 0 1 -9.121 10.699l-.521-3.746a29.448 29.448 0 0 0 9.704-10.824 29.688 29.688 0 0 0 6.081 4.605c1.081.618 2.227 1.187 3.062 2.111.836.924 1.294 2.324.735 3.437m-.485-8.414c-.487-.561-1.129-.857-1.865-.913-.508-.039-.505.753 0 .791.529.04.961.285 1.305.681.335.386.892-.176.56-.559zm-3.656-2.007a6.096 6.096 0 0 1 -1.352-.715c-.419-.291-.815.394-.399.683.481.334.992.592 1.541.795.478.177.684-.587.21-.763zm-3.379-2.027-1.456-.727c-.454-.227-.855.455-.399.683l1.456.727c.453.227.855-.456.399-.683zm-4.934.861-1.571 1.908c-.321.39.235.953.559.559l1.571-1.908c.322-.39-.235-.952-.559-.559zm-3.054 3.731a2.43 2.43 0 0 1 -.966.965c-.444.249-.046.933.399.683.533-.3.95-.716 1.25-1.249.251-.444-.432-.843-.683-.399zm-2.786 2.768-1.107 1.108c-.36.361.199.92.559.559l1.107-1.108c.361-.36-.198-.92-.559-.559zm-1.899 2.056c-.086.071-.17.144-.255.216-.053.045-.286.198-.178.168l.487.487c-.057.106-.047.108.031.005.339-.378-.219-.94-.559-.559-.084.094-.216.211-.234.344-.04.286.167.576.487.487.29-.081.555-.4.782-.587.392-.326-.171-.882-.561-.561zm18.464-14.767a32.288 32.288 0 0 1 -8.558-5.025c-.391-.319-.954.237-.559.559a33.615 33.615 0 0 0 8.907 5.228c.473.189.679-.576.21-.762zm-11.372-4.513-7.785 4.571.479.621.605-.553c.377-.344-.184-.902-.559-.559a303.4 303.4 0 0 0 -.605.553c-.334.306.095.847.479.621l7.785-4.571c.439-.258.041-.942-.399-.683zm10.599.52c-1.536.127-3.242-1.129-4.527-1.882a46.157 46.157 0 0 1 -3.646-2.389c-.414-.298-.809.388-.399.683a45.405 45.405 0 0 0 4.657 2.963c1.202.661 2.494 1.534 3.915 1.416.503-.042.508-.834 0-.791zm-10.437-4.172-8.437 6.26c-.404.3-.01.987.399.683l8.437-6.26c.405-.299.011-.986-.399-.683z" fill="#fff"/><path d="m103.407 160.591c-2.443-2.115-3.576-5.333-4.544-8.417-1.762-5.613-3.316-11.313-4.104-17.144-.45-3.329-.647-6.687-.844-10.041-.784-13.337-1.562-26.803.579-39.99.708-4.359 1.736-8.751 1.262-13.141l-2.28-.204-.032 3.342c-.111 11.738-2.832 23.378-2.562 35.113.115 4.982.539 9.952 1.083 14.905 1.144 10.405 2.886 20.957 7.673 30.266 1.04 2.023 1.842 4.104 3.769 5.311z" fill="#219da4"/><path d="m210.233 191.747 6.666-6.22-6.694-6.189-6.695-6.188-6.665 6.219-6.666 6.22 6.695 6.189 6.694 6.188z" fill="#c4e2d2"/><path d="m230.652 179.964 3.289 3.04 2.747 2.539-2.735 2.552-3.275 3.056-3.289-3.04-2.747-2.539 2.735-2.552zm-.016-6.814-6.665 6.22-6.665 6.22 6.694 6.189 6.694 6.189 6.665-6.22 6.665-6.22-6.694-6.189z" fill="#219da4"/><path d="m129.796 191.747 6.666-6.22-6.695-6.189-6.694-6.188-6.665 6.219-6.666 6.22 6.695 6.189 6.694 6.188z" fill="#c4e2d2"/><path d="m150.215 179.964 3.289 3.04 2.747 2.539-2.735 2.552-3.275 3.056-3.289-3.04-2.747-2.539 2.735-2.552zm-.016-6.814-6.665 6.22-6.665 6.22 6.694 6.189 6.694 6.189 6.665-6.22 6.665-6.22-6.694-6.189z" fill="#219da4"/><path d="m49.359 191.747 6.665-6.22-6.694-6.189-6.694-6.188-6.666 6.219-6.665 6.22 6.694 6.189 6.695 6.188z" fill="#c4e2d2"/><path d="m69.777 179.964 3.289 3.04 2.747 2.539-2.735 2.552-3.275 3.056-3.289-3.04-2.747-2.539 2.735-2.552zm-.016-6.814-6.665 6.22-6.665 6.22 6.694 6.189 6.694 6.189 6.665-6.22 6.665-6.22-6.694-6.189z" fill="#219da4"/><path d="m451.951 191.747 6.666-6.22-6.695-6.189-6.694-6.188-6.666 6.219-6.665 6.22 6.694 6.189 6.695 6.188z" fill="#c4e2d2"/><path d="m472.369 179.964 3.289 3.04 2.747 2.539-2.735 2.552-3.275 3.056-3.289-3.04-2.747-2.539 2.735-2.552zm-.015-6.814-6.665 6.22-6.665 6.22 6.694 6.189 6.694 6.189 6.665-6.22 6.665-6.22-6.694-6.189z" fill="#219da4"/><path d="m371.514 191.747 6.665-6.22-6.694-6.189-6.694-6.188-6.666 6.219-6.665 6.22 6.694 6.189 6.695 6.188z" fill="#c4e2d2"/><path d="m391.932 179.964 3.289 3.04 2.747 2.539-2.735 2.552-3.275 3.056-3.289-3.04-2.747-2.539 2.735-2.552zm-.016-6.814-6.665 6.22-6.665 6.22 6.694 6.189 6.694 6.189 6.665-6.22 6.665-6.22-6.694-6.189z" fill="#219da4"/><path d="m291.077 191.747 6.665-6.22-6.694-6.189-6.694-6.188-6.666 6.219-6.665 6.22 6.694 6.189 6.694 6.188z" fill="#c4e2d2"/><path d="m311.495 179.964 3.289 3.04 2.747 2.539-2.735 2.552-3.275 3.056-3.289-3.04-2.747-2.539 2.735-2.552zm-.016-6.814-6.665 6.22-6.665 6.22 6.694 6.189 6.694 6.189 6.665-6.22 6.665-6.22-6.694-6.189z" fill="#219da4"/><path d="m532.922 191.747 6.665-6.22-6.694-6.189-6.694-6.188-6.666 6.219-6.665 6.22 6.694 6.189 6.695 6.188z" fill="#c4e2d2"/><path d="m553.34 179.964 3.289 3.04 2.747 2.539-2.735 2.552-3.275 3.056-3.289-3.04-2.747-2.539 2.735-2.552zm-.016-6.814-6.665 6.22-6.665 6.22 6.694 6.189 6.694 6.189 6.665-6.22 6.665-6.22-6.694-6.189z" fill="#219da4"/><path d="m-.095 238.149v-20.282l14.851 10.141 14.85 10.141-14.85 10.141-14.851 10.141z" fill="#219da4"/><path d="m58.854 238.149v-20.282l14.851 10.141 14.851 10.141-14.851 10.141-14.851 10.141z" fill="#96dce6"/><path d="m88.329 238.149v-20.282l14.851 10.141 14.85 10.141-14.85 10.141-14.851 10.141z" fill="#c4e2d2"/><path d="m117.804 238.149v-20.282l14.85 10.141 14.851 10.141-14.851 10.141-14.85 10.141z" fill="#219da4"/><path d="m176.753 238.149v-20.282l14.851 10.141 14.85 10.141-14.85 10.141-14.851 10.141z" fill="#96dce6"/><path d="m206.228 238.149v-20.282l14.85 10.141 14.851 10.141-14.851 10.141-14.85 10.141z" fill="#c4e2d2"/><path d="m235.703 238.149v-20.282l14.85 10.141 14.851 10.141-14.851 10.141-14.85 10.141z" fill="#219da4"/><path d="m296.937 238.149v-20.282l14.851 10.141 14.85 10.141-14.85 10.141-14.851 10.141zm237.042 0v-20.282l14.85 10.141 14.851 10.141-14.851 10.141-14.85 10.141z" fill="#96dce6"/><path d="m326.412 238.149v-20.282l14.85 10.141 14.851 10.141-14.851 10.141-14.85 10.141z" fill="#c4e2d2"/><path d="m355.886 238.149v-20.282l14.851 10.141 14.851 10.141-14.851 10.141-14.851 10.141z" fill="#219da4"/><path d="m264.079 191.747 6.665-6.22-6.694-6.189-6.695-6.188-6.665 6.219-6.666 6.22 6.695 6.189 6.694 6.188zm-80.438 0 6.666-6.22-6.695-6.189-6.694-6.188-6.665 6.219-6.666 6.22 6.695 6.189 6.694 6.188zm-80.437 0 6.666-6.22-6.695-6.189-6.694-6.188-6.666 6.219-6.665 6.22 6.695 6.189 6.694 6.188zm402.592 0 6.666-6.22-6.695-6.189-6.694-6.188-6.665 6.219-6.666 6.22 6.695 6.189 6.694 6.188zm-80.437 0 6.665-6.22-6.694-6.189-6.694-6.188-6.666 6.219-6.665 6.22 6.694 6.189 6.695 6.188zm-80.437 0 6.665-6.22-6.694-6.189-6.694-6.188-6.666 6.219-6.665 6.22 6.694 6.189 6.695 6.188zm-322.155 0 6.665-6.22-6.694-6.189-6.694-6.188-6.666 6.219-6.665 6.22 6.694 6.189 6.695 6.188zm6.613 46.402v-20.282l14.85 10.141 14.851 10.141-14.851 10.141-14.85 10.141zm117.898 0v-20.282l14.851 10.141 14.851 10.141-14.851 10.141-14.851 10.141zm118.102 0v-20.282l14.851 10.141 14.851 10.141-14.851 10.141-14.851 10.141zm119.981 0v-20.282l14.851 10.141 14.85 10.141-14.85 10.141-14.851 10.141zm118.102 0v-20.282l14.851 10.141 14.85 10.141-14.85 10.141-14.851 10.141z" fill="#d9a6c0"/><path d="m414.836 238.149v-20.282l14.85 10.141 14.851 10.141-14.851 10.141-14.85 10.141z" fill="#96dce6"/><path d="m444.31 238.149v-20.282l14.851 10.141 14.851 10.141-14.851 10.141-14.851 10.141z" fill="#c4e2d2"/><path d="m473.785 238.149v-20.282l14.851 10.141 14.85 10.141-14.85 10.141-14.851 10.141z" fill="#219da4"/><path d="m484.449 21.751 10.668 11.089-10.734 11.026-10.669-11.089zm.028-9.632-20.084 20.631 19.962 20.749 20.084-20.631z" fill="#219da4"/><path d="m447.707 32.903-17.49-20.661-25.398-.042 16.031 20.659-16.083 20.607 25.398.041z" fill="#d9a6c0"/><path d="m436.485 12.165 7.244.002 17.34 20.691-17.346 20.684-7.244-.001 16.906-20.685zm-45.75-.023 7.245.001 17.339 20.691-17.345 20.685-7.245-.001 16.907-20.685z" fill="#c4e2d2"/><path d="m520.57 32.94 17.49-20.662 25.398-.041-16.031 20.659 16.083 20.607-25.398.041z" fill="#d9a6c0"/><path d="m531.792 12.202-7.244.001-17.34 20.691 17.346 20.685 7.244-.002-16.906-20.684z" fill="#c4e2d2"/><path d="m84.662 21.711 10.734 11.026-10.668 11.089-10.734-11.026zm-.028-9.633-19.962 20.749 20.084 20.631 19.962-20.749z" fill="#219da4"/><path d="m121.405 32.863 17.489-20.661 25.398-.042-16.031 20.659 16.083 20.607-25.398.041z" fill="#d9a6c0"/><path d="m132.626 12.125-7.244.002-17.34 20.691 17.346 20.684 7.245-.001-16.907-20.685zm45.75-.023-7.244.001-17.34 20.691 17.346 20.685 7.244-.002-16.907-20.684z" fill="#c4e2d2"/><path d="m48.541 32.899-17.49-20.661-25.398-.041 16.031 20.659-16.083 20.606 25.398.042z" fill="#d9a6c0"/><path d="m37.319 12.162 7.244.001 17.34 20.691-17.346 20.685-7.244-.002 16.906-20.684z" fill="#c4e2d2"/></svg>