<svg viewBox="0 0 567 269" xmlns="http://www.w3.org/2000/svg"><g fill="#95cebc"><path d="m205.143 143.654s16.22-6.774 15.732-21.445c-.488-14.672-14.79-11.163-19.158-3.076-5.826 10.787-3.247 21.004-3.247 21.004z"/><path d="m187.002 161.543s-6.854-5.141-4.113-18.506c2.742-13.366 17.135-14.394 23.647-9.596 6.511 4.798 7.882 17.135 2.056 28.102 0 0-16.107 1.713-21.59 0z"/><path d="m190.138 136.411s.339-13.37-10.003-17.593c-10.341-4.223-12.351 6.801-8.093 12.349 5.68 7.4 13.578 8.785 13.578 8.785zm23.662-21.557s9.616-9.296 5.203-19.557c-4.413-10.262-13.575-3.811-14.428 3.131-1.139 9.258 3.521 15.784 3.521 15.784z"/><path d="m169.977 124.083s-7.193 1.581-11.077-5.725 3.081-7.535 5.539-7.42c2.458.114 7.057 3.194 8.007 8.017.95 4.822-2.469 5.128-2.469 5.128zm29.23 1.155s-4.78-.346-5.923-4.296c-1.142-3.951.641-6.283 3.976-6.088s5.981 4.308 5.981 4.308zm14.884-33.91c-.149-.043-.965-4.221 2.08-7.305s6.243-2.664 7.5-.704.343 4.473-.8 6.187c-1.142 1.714-3.465 3.125-5.902 3.676-2.437.55-2.878-1.854-2.878-1.854zm-8.144 15.24s-5.282 2.427-8.687-1.571-1.104-5.513.83-6.012 5.579 1.101 6.327 1.443 1.53 5.204 1.53 5.204m13.187 9.882s4.423-3.892 9.221-2.635 6.169 4.798 5.026 8.568c-1.142 3.77-7.49 8.715-12.935 5.433-5.445-3.283-1.312-11.366-1.312-11.366zm-40.284 2.843c-.526-.149-.693-5.112 2.644-9.808s6.993-2.639 7.564-1.268 2.129 7.673-5.333 13.66c-7.461 5.989-4.875-2.584-4.875-2.584z"/></g><g fill="none" stroke="#fff" stroke-miterlimit="10" stroke-width=".4"><path d="m221.559 119.623a3.895 3.895 0 0 1 2.951-1.352c.177.001.366.018.508.124.326.243.214.755.029 1.117a5.526 5.526 0 0 1 -3.218 2.721"/><path d="m221.401 117.558c1.462-.767 3.054-1.558 4.685-1.302 2.253.354 3.814 2.878 3.372 5.116-.441 2.238-2.597 3.929-4.871 4.111-.924.074-1.883-.077-2.687-.539m-52.847-1.946a6.085 6.085 0 0 1 -4.022-2.875c-.423-.728-.659-1.725-.104-2.358.224-.255.547-.406.877-.486.796-.193 1.647.001 2.378.371s1.364.904 1.989 1.434c.394.334.791.671 1.1 1.084-.197.031-.916.565-1.113.595a3.338 3.338 0 0 0 -2.543-1.601c-.157-.014-.347.002-.422.14-.053.097-.025.217.008.322a3.993 3.993 0 0 0 2.123 2.4"/><path d="m166.939 123.442a35.216 35.216 0 0 1 -3.088-1.643c-.801-.478-1.601-1.005-2.156-1.755-.579-.782-.85-1.754-.98-2.718-.116-.859-.123-1.766.235-2.555.604-1.331 2.175-2.042 3.633-1.943s2.796.875 3.891 1.843a11.655 11.655 0 0 1 3.061 4.316c.043.105.113.23.227.221.113-.009.058-.245-.022-.165m8.752-.544a6.184 6.184 0 0 1 2.153-3.21c.113-.088.249-.176.39-.147.803.171-.183 2.992.588 3.62 1.504-1.763 1.596-4.797.789-6.883-.08-.207-.181-.425-.373-.537-.34-.199-.766.025-1.075.269-1.93 1.523-2.91 3.922-3.81 6.21"/><path d="m178.679 115.17c.725-2.078 1.609-4.345 3.559-5.363.617-.322 1.306-.493 2-.554.716-.062 1.497.014 2.045.479.64.544.793 1.464.809 2.303a11.317 11.317 0 0 1 -3.081 7.92.41.41 0 0 1 .13-.377m20.384-15.085a4.095 4.095 0 0 1 -2.844-.91c-.082-.068-.167-.146-.189-.25-.045-.205.164-.372.357-.457a2.436 2.436 0 0 1 2.109.091"/><path d="m204.159 105.963a13.983 13.983 0 0 1 -3.171-.216c-.708-.13-1.445-.338-1.942-.86-.561-.59-.699-1.454-.784-2.263-.027-.25-.048-.517.068-.741.16-.309.529-.439.867-.525a10.6 10.6 0 0 1 5.304.032m11.004-10.848a4.612 4.612 0 0 1 1.382-2.168c.244-.213.576-.41.875-.287.448.185.373.843.174 1.285a7.117 7.117 0 0 1 -1.501 2.153"/><path d="m214.101 89.588a14.458 14.458 0 0 1 4.16-5.3c.305-.241.639-.478 1.025-.528.485-.062.974.197 1.278.581.304.383.444.874.498 1.36.149 1.354-.333 2.718-1.085 3.854-.752 1.135-1.762 2.073-2.781 2.977.063-.254.197-.49.384-.673"/><path d="m199.857 122.034a1.91 1.91 0 0 1 -1.756-1.02c-.216-.426-.18-1.073.268-1.238.164-.061.346-.04.517-.003a2.881 2.881 0 0 1 1.687 1.094"/><path d="m199.16 123.752a17.169 17.169 0 0 1 -2.046-1.467c-.696-.58-1.401-1.355-1.304-2.256.109-1.015 1.253-1.657 2.271-1.584s1.919.658 2.76 1.238c.05.035.106.081.1.142s-.123.069-.113.01"/><path d="m198.606 124.617c-2.132-.789-3.82-2.682-4.36-4.89-.183-.749-.229-1.585.166-2.247.292-.489.792-.824 1.322-1.033 1.954-.772 4.428.221 5.306 2.13l-.144-.327"/><path d="m203.549 131.223a16.41 16.41 0 0 1 2.182-4.691c.675-1 1.707-2.023 2.894-1.807 1.155.21 1.795 1.575 1.633 2.738s-.894 2.155-1.603 3.092l-1.884 2.49"/><path d="m200.691 129.621c.5-2.84 1.814-5.532 3.746-7.672.591-.655 1.253-1.269 2.054-1.637 2.04-.937 4.613.021 5.954 1.821 1.342 1.8 1.606 4.225 1.213 6.435s-1.377 4.265-2.35 6.289"/><path d="m198.741 129.098c1.21-3.611 2.826-7.232 5.667-9.768s7.168-3.727 10.561-1.998c.668.34 1.293.791 1.737 1.394 1.185 1.605.85 3.84.341 5.769a47.626 47.626 0 0 1 -5.681 13.107"/><path d="m184.229 137.635-1.25-.77c-1.234-.76-2.49-1.539-3.417-2.652s-1.483-2.639-1.085-4.032c.126-.439.371-.881.787-1.07.62-.282 1.329.09 1.893.473a26.089 26.089 0 0 1 5.013 4.445c.074.086.153.188.135.3s-.199.174-.242.069"/><path d="m183.598 139.027c-3.336-.373-6.506-2.06-8.68-4.617s-3.327-5.959-3.157-9.311c.056-1.101.311-2.303 1.187-2.972.6-.458 1.391-.581 2.146-.586 2.985-.022 5.8 1.567 7.897 3.692s3.585 4.761 5.048 7.364c.146.26-.267.593-.49.394s.06-.648.336-.532"/><path d="m183.143 138.075a10.542 10.542 0 0 1 -6.267-4.085 10.546 10.546 0 0 1 -1.922-7.23c.046-.433.126-.878.371-1.239.467-.687 1.4-.879 2.229-.841 2.176.1 4.161 1.379 5.593 3.02s2.393 3.63 3.337 5.593"/><path d="m209.326 111.304-.524-4.141c-.177-1.402-.353-2.839-.044-4.218.31-1.379 1.207-2.714 2.553-3.145.197-.063.416-.105.605-.022.224.098.343.341.438.566a18.367 18.367 0 0 1 1.085 10.724c-.025.122-.063.261-.174.316-.112.055-.281-.079-.204-.178"/><path d="m207.445 112.41a17.414 17.414 0 0 1 -1.703-8.656c.126-1.985.628-4.011 1.861-5.572.544-.688 1.261-1.291 2.121-1.46.547-.107 1.117-.032 1.648.134 1.677.521 2.989 1.912 3.721 3.508s.941 3.385.949 5.141a24.214 24.214 0 0 1 -.887 6.606"/><path d="m210.758 110.625a11.297 11.297 0 0 1 -.053-4.618c.035-.175.104-.382.279-.42.095-.02.193.02.276.07.557.335.704 1.063.792 1.707.142 1.045.265 2.093.371 3.142"/><path d="m194.386 160.517a12.665 12.665 0 0 1 -.255-7.475c.258-.938.637-1.866 1.285-2.591s1.601-1.225 2.571-1.15c1.033.081 1.938.803 2.46 1.699s.71 1.946.79 2.98a16.235 16.235 0 0 1 -1.076 7.177l-.166-.353m-7.991-.305c-1.071-1.293-1.544-3.013-1.528-4.691.016-1.679.488-3.326 1.137-4.874.638-1.522 1.522-3.047 2.967-3.846"/><path d="m196.404 146.252c1.497-.603 3.258-.253 4.623.608.478.301.918.662 1.3 1.078.953 1.04 1.508 2.406 1.717 3.802.194 1.296.104 2.616.014 3.924l-.318 4.603"/><path d="m187.775 159.82c-.741-1.62-.935-3.43-1.058-5.207-.141-2.036-.201-4.094.154-6.104.355-2.009 1.15-3.983 2.539-5.477 1.038-1.117 2.365-1.927 3.738-2.591 1.14-.552 2.34-1.017 3.598-1.164a7.508 7.508 0 0 1 5.234 1.374m1.781 1.082c.754.698 1.734 1.196 2.239 2.091.254.45.364.966.462 1.474.94 4.901.993 9.971.154 14.891l.168-.381"/></g><g fill="#95cebc"><path d="m513.048 127.551s-6.854-5.141-4.112-18.506c2.742-13.366 17.135-14.394 23.647-9.596 6.511 4.798 7.882 17.135 2.056 28.102 0 0-16.107 1.714-21.591 0z"/><path d="m516.185 102.42s.339-13.37-10.003-17.593-12.351 6.801-8.093 12.349c5.68 7.4 13.578 8.785 13.578 8.785zm23.662-21.557s9.616-9.296 5.203-19.557c-4.413-10.262-13.575-3.811-14.428 3.131-1.139 9.258 3.521 15.784 3.521 15.784z"/><path d="m531.189 109.663s16.22-6.774 15.732-21.445c-.488-14.672-14.79-11.163-19.158-3.076-5.826 10.787-3.247 21.004-3.247 21.004zm-35.165-19.572s-7.193 1.581-11.077-5.725 3.081-7.535 5.539-7.42c2.458.114 7.057 3.194 8.007 8.017.95 4.822-2.469 5.128-2.469 5.128z"/><path d="m525.254 91.246s-4.78-.346-5.923-4.296.641-6.283 3.976-6.088 5.981 4.308 5.981 4.308zm14.884-33.91c-.149-.043-.965-4.221 2.08-7.305s6.243-2.664 7.5-.704.343 4.473-.8 6.187c-1.142 1.714-3.465 3.125-5.902 3.676s-2.878-1.854-2.878-1.854zm-8.144 15.24s-5.282 2.427-8.687-1.571-1.104-5.513.83-6.012 5.579 1.101 6.327 1.443 1.53 5.204 1.53 5.204m13.186 9.882s4.423-3.892 9.221-2.635 6.169 4.798 5.026 8.568c-1.142 3.77-7.49 8.715-12.935 5.433-5.444-3.283-1.312-11.366-1.312-11.366zm-40.284 2.844c-.526-.149-.693-5.112 2.644-9.808s6.993-2.639 7.564-1.268 2.129 7.673-5.333 13.66c-7.461 5.988-4.875-2.584-4.875-2.584z"/></g><g fill="none" stroke="#fff" stroke-miterlimit="10" stroke-width=".4"><path d="m547.605 85.631a3.895 3.895 0 0 1 2.951-1.352c.177.001.366.018.508.124.326.242.214.755.029 1.117a5.525 5.525 0 0 1 -3.219 2.721"/><path d="m547.447 83.566c1.462-.767 3.054-1.558 4.685-1.302 2.253.354 3.814 2.878 3.372 5.116s-2.597 3.929-4.871 4.111c-.924.074-1.883-.077-2.687-.539m-52.846-1.945a6.085 6.085 0 0 1 -4.022-2.875c-.423-.728-.659-1.725-.104-2.358.224-.255.547-.406.877-.486.796-.193 1.647.001 2.378.371s1.364.904 1.989 1.434c.394.334.791.671 1.1 1.084-.197.031-.916.565-1.113.595a3.338 3.338 0 0 0 -2.543-1.601c-.157-.014-.347.002-.422.14-.053.097-.025.217.008.322a3.993 3.993 0 0 0 2.123 2.4"/><path d="m492.986 89.451a35.216 35.216 0 0 1 -3.088-1.643c-.801-.478-1.601-1.005-2.156-1.755-.579-.782-.85-1.754-.98-2.718-.116-.859-.123-1.766.235-2.555.604-1.331 2.175-2.042 3.633-1.943s2.796.875 3.891 1.843a11.647 11.647 0 0 1 3.061 4.316c.043.105.113.23.227.221.113-.009.058-.245-.022-.165m8.751-.545a6.184 6.184 0 0 1 2.153-3.21c.113-.088.249-.176.39-.147.803.171-.183 2.992.588 3.62 1.504-1.763 1.596-4.797.789-6.883-.08-.207-.181-.425-.373-.537-.34-.199-.766.025-1.075.269-1.93 1.523-2.91 3.922-3.81 6.21"/><path d="m504.725 81.179c.725-2.078 1.609-4.345 3.559-5.363.617-.322 1.306-.493 2-.554.716-.062 1.497.014 2.045.479.64.544.793 1.464.809 2.303a11.317 11.317 0 0 1 -3.081 7.92.41.41 0 0 1 .13-.377m20.385-15.086a4.095 4.095 0 0 1 -2.844-.91c-.082-.068-.167-.146-.189-.25-.045-.205.164-.372.357-.457a2.436 2.436 0 0 1 2.109.091"/><path d="m530.206 71.972a13.983 13.983 0 0 1 -3.171-.216c-.708-.13-1.445-.338-1.942-.86-.561-.59-.699-1.454-.784-2.263-.027-.25-.048-.517.068-.741.16-.309.529-.439.867-.525a10.6 10.6 0 0 1 5.304.032m11.004-10.848a4.612 4.612 0 0 1 1.382-2.168c.244-.213.576-.41.875-.287.448.185.373.843.174 1.285a7.117 7.117 0 0 1 -1.501 2.153"/><path d="m540.148 55.596a14.458 14.458 0 0 1 4.16-5.3c.305-.241.639-.478 1.025-.528.485-.062.974.197 1.278.581.304.383.444.874.498 1.36.149 1.354-.333 2.718-1.085 3.854-.752 1.135-1.762 2.073-2.781 2.977.063-.254.197-.49.384-.673"/><path d="m525.903 88.042a1.91 1.91 0 0 1 -1.756-1.02c-.216-.426-.18-1.073.268-1.238.164-.061.346-.04.517-.003a2.881 2.881 0 0 1 1.687 1.094"/><path d="m525.207 89.76a17.169 17.169 0 0 1 -2.046-1.467c-.696-.58-1.401-1.355-1.304-2.256.109-1.015 1.253-1.657 2.271-1.584s1.919.658 2.76 1.238c.05.035.106.081.1.142s-.123.069-.113.01"/><path d="m524.652 90.625c-2.132-.789-3.82-2.682-4.36-4.89-.183-.749-.229-1.585.166-2.247.292-.489.792-.824 1.322-1.033 1.954-.772 4.428.221 5.306 2.13l-.144-.327"/><path d="m529.595 97.232a16.41 16.41 0 0 1 2.182-4.691c.675-1 1.707-2.023 2.894-1.807 1.155.21 1.795 1.575 1.633 2.738s-.894 2.155-1.603 3.092l-1.884 2.49"/><path d="m526.738 95.629c.5-2.84 1.814-5.532 3.746-7.672.591-.655 1.253-1.269 2.054-1.637 2.04-.937 4.613.021 5.954 1.821 1.342 1.8 1.606 4.225 1.213 6.435s-1.377 4.265-2.35 6.289"/><path d="m524.788 95.106c1.21-3.611 2.826-7.232 5.667-9.768s7.168-3.727 10.561-1.998c.668.34 1.293.791 1.737 1.394 1.185 1.605.85 3.84.341 5.769a47.626 47.626 0 0 1 -5.681 13.107"/><path d="m510.276 103.643-1.25-.77c-1.234-.76-2.49-1.539-3.417-2.652s-1.483-2.639-1.085-4.032c.126-.439.371-.881.787-1.07.62-.282 1.329.091 1.893.473a26.089 26.089 0 0 1 5.013 4.445c.074.086.153.188.135.3s-.199.174-.242.069"/><path d="m509.645 105.036c-3.336-.373-6.506-2.06-8.68-4.617s-3.327-5.959-3.157-9.311c.056-1.101.311-2.303 1.187-2.972.6-.458 1.391-.581 2.146-.586 2.985-.022 5.8 1.567 7.897 3.692s3.585 4.761 5.048 7.364c.146.26-.267.593-.49.394s.06-.648.336-.532"/><path d="m509.19 104.084a10.542 10.542 0 0 1 -6.267-4.085 10.546 10.546 0 0 1 -1.922-7.23c.046-.433.126-.878.371-1.239.467-.687 1.4-.879 2.229-.841 2.176.1 4.161 1.379 5.593 3.02s2.393 3.63 3.337 5.593"/><path d="m535.372 77.312-.524-4.141c-.177-1.402-.353-2.839-.044-4.218.31-1.379 1.207-2.714 2.553-3.145.197-.063.416-.105.605-.022.224.098.343.341.438.566a18.367 18.367 0 0 1 1.085 10.724c-.025.122-.063.261-.174.316-.112.055-.281-.079-.204-.178"/><path d="m533.492 78.419a17.414 17.414 0 0 1 -1.703-8.656c.126-1.985.628-4.011 1.861-5.572.544-.688 1.261-1.291 2.121-1.46.547-.107 1.117-.032 1.648.134 1.677.521 2.989 1.912 3.721 3.508s.941 3.385.949 5.141a24.214 24.214 0 0 1 -.887 6.606"/><path d="m536.805 76.633a11.297 11.297 0 0 1 -.053-4.618c.035-.175.104-.382.279-.42.095-.02.193.02.276.07.557.335.704 1.063.792 1.707.142 1.045.265 2.093.371 3.142"/><path d="m520.432 126.526a12.665 12.665 0 0 1 -.255-7.475c.258-.938.637-1.866 1.285-2.591s1.601-1.225 2.571-1.15c1.033.081 1.938.803 2.46 1.699.521.896.71 1.946.79 2.98a16.235 16.235 0 0 1 -1.076 7.177l-.166-.353m-7.991-.305c-1.071-1.293-1.544-3.013-1.528-4.691.016-1.679.488-3.326 1.137-4.874.638-1.522 1.522-3.047 2.967-3.846"/><path d="m522.45 112.261c1.497-.603 3.258-.253 4.623.608.478.301.918.662 1.3 1.078.953 1.04 1.508 2.406 1.717 3.802.194 1.296.104 2.616.014 3.924l-.318 4.603"/><path d="m513.821 125.828c-.741-1.62-.935-3.43-1.058-5.207-.141-2.036-.201-4.094.154-6.103s1.15-3.983 2.539-5.477c1.038-1.117 2.365-1.927 3.738-2.591 1.14-.552 2.34-1.017 3.598-1.164a7.508 7.508 0 0 1 5.234 1.374m1.782 1.081c.754.698 1.734 1.196 2.239 2.091.254.45.364.966.462 1.474.94 4.901.993 9.971.154 14.891l.168-.381"/></g><path d="m109.985 247.47s11.131-1.19 14.985-2.915c3.855-1.726 8.237-7.095 8.283-17.041s-6.697-19.286-21.186-17.419l-2.999-.049s-4.633-.989-11.642.194c-7.008 1.183-12.773 6.611-13.547 13.546s1.052 16.812 8.978 20.794c7.926 3.981 17.128 2.89 17.128 2.89z" fill="#67a592"/><g fill="none" stroke="#fff" stroke-miterlimit="10" stroke-width=".346"><path d="m112.821 247.092c3.924-.8 7.116-3.888 8.814-7.515s2.074-7.74 1.942-11.743c-.09-2.718-.408-5.453-1.292-8.025s-2.365-4.985-4.492-6.679c-1.874-1.493-4.153-2.367-6.392-3.22"/><path d="m109.618 247.587c3.637-4.515 5.31-10.418 5.296-16.216s-1.624-11.505-3.981-16.802a59.025 59.025 0 0 0 -2.32-4.657c-.409-.144-.856.018-1.216.26-4.05 2.723-6.268 7.45-7.672 12.124-.508 1.69-.937 3.421-.993 5.185-.103 3.198 1.019 6.3 2.246 9.256.925 2.229 1.92 4.429 2.982 6.597.401.819.824 1.649 1.48 2.282.914.883 2.175 1.287 3.389 1.663-.098-.161.886.47.789.308z"/><path d="m101.994 209.821c-3.403.298-6.133 2.908-8.196 5.63-2.499 3.297-4.527 7.185-4.515 11.322.007 2.389.694 4.72 1.435 6.992.574 1.76 1.188 3.517 2.06 5.15 1.283 2.404 3.092 4.479 4.885 6.531.306.35.621.708 1.029.93.443.241.956.302 1.454.381a16.98 16.98 0 0 1 3.804 1.072"/></g><path d="m115.959 204.73c-.259-1.996-1.834-3.754-3.789-4.23.991 1.674 1.844 3.086 1.509 5.564a12.714 12.714 0 0 0 -1.633-5.646c-1.039 1.626-1.036 3.769-1.326 5.526-.513-2.11.232-3.992.943-5.849-1.952 1.25-3.251 3.465-3.389 5.778-.383-1.514.912-3.914 1.989-5.582-.574-.108-1.054.413-1.402.881-1.35 1.811-2.742 3.904-2.401 6.136-.469-2.749.667-4.557 2.1-6.314-.52-.386-1.253-.404-1.85-.153s-1.069.737-1.423 1.279c-1.441 2.201-.925 5.388.972 7.211 3.998 3.84 10.446 1.149 9.7-4.601z" fill="#fbb1af"/><path d="m127.141 219.588a12.24 12.24 0 0 0 -5.784.643l2.046-3.894m4.371 14.9a29.082 29.082 0 0 0 -4.244 1.963 22.256 22.256 0 0 1 1.859 3.297l-.447-.381m-8.41-12.86a25.518 25.518 0 0 1 -3.627 4.712m4.218-.894a11.686 11.686 0 0 0 -4.853-2.557m-12.794-8.444a18.896 18.896 0 0 0 1.232 4.237 11.384 11.384 0 0 0 -4.115.371m.054 10.519a8.072 8.072 0 0 1 3.301 1.834c.121.111.246.242.257.406.015.218-.172.39-.343.526l-2.577 2.056m-7.596-17.431a6.918 6.918 0 0 1 .296 3.286c-.97-.175-1.999 0-2.856.486m4.047 7.814a9.79 9.79 0 0 0 -2.091 4.382m3.506-1.192a13.97 13.97 0 0 1 -4.181-2.014m26.048 11.689-2.576-3.893m3.658.867c-.382-.5-1.172-.193-1.7.15l-3.51 2.281" fill="none" stroke="#fff" stroke-miterlimit="10" stroke-width=".346"/><path d="m364.878 131.432s11.131-1.19 14.985-2.915c3.855-1.726 8.237-7.095 8.283-17.041s-6.697-19.286-21.186-17.419l-2.999-.049s-4.633-.989-11.642.194c-7.008 1.183-12.773 6.611-13.547 13.546s1.052 16.812 8.978 20.794c7.927 3.981 17.128 2.89 17.128 2.89z" fill="#67a592"/><g fill="none" stroke="#fff" stroke-miterlimit="10" stroke-width=".346"><path d="m367.715 131.054c3.924-.8 7.116-3.888 8.814-7.515s2.074-7.74 1.942-11.743c-.09-2.718-.408-5.453-1.292-8.025s-2.365-4.985-4.492-6.679c-1.874-1.493-4.153-2.367-6.392-3.22"/><path d="m364.512 131.549c3.637-4.515 5.31-10.418 5.296-16.216s-1.624-11.505-3.981-16.802a59.362 59.362 0 0 0 -2.319-4.657c-.409-.144-.856.018-1.216.26-4.05 2.723-6.268 7.45-7.672 12.124-.508 1.69-.937 3.421-.993 5.185-.103 3.198 1.019 6.3 2.246 9.256.925 2.229 1.92 4.429 2.982 6.597.401.819.824 1.649 1.48 2.282.914.883 2.175 1.287 3.389 1.663-.099-.162.885.47.788.308z"/><path d="m356.887 93.783c-3.403.298-6.133 2.908-8.196 5.63-2.499 3.297-4.527 7.185-4.515 11.322.007 2.389.694 4.72 1.435 6.992.574 1.76 1.188 3.517 2.06 5.15 1.283 2.404 3.092 4.479 4.885 6.531.306.35.621.708 1.029.93.443.241.956.302 1.454.381 1.304.208 2.583.568 3.804 1.072"/></g><path d="m370.853 88.692c-.259-1.996-1.834-3.754-3.789-4.23.991 1.674 1.844 3.086 1.509 5.564a12.714 12.714 0 0 0 -1.633-5.646c-1.039 1.626-1.036 3.769-1.326 5.526-.513-2.11.232-3.992.943-5.849-1.952 1.249-3.251 3.465-3.389 5.778-.383-1.514.912-3.914 1.989-5.582-.574-.108-1.054.413-1.402.881-1.35 1.811-2.742 3.904-2.401 6.136-.469-2.749.667-4.557 2.1-6.314-.52-.386-1.253-.404-1.85-.153s-1.069.737-1.423 1.279c-1.441 2.201-.925 5.388.972 7.211 3.998 3.84 10.446 1.149 9.7-4.601z" fill="#fbb1af"/><path d="m382.035 103.55a12.24 12.24 0 0 0 -5.784.643l2.046-3.894m4.371 14.9a29.082 29.082 0 0 0 -4.244 1.963 22.256 22.256 0 0 1 1.859 3.297l-.447-.381m-8.41-12.86a25.518 25.518 0 0 1 -3.627 4.712m4.218-.894a11.686 11.686 0 0 0 -4.853-2.557m-12.794-8.444a18.896 18.896 0 0 0 1.232 4.237 11.384 11.384 0 0 0 -4.115.371m.054 10.519a8.072 8.072 0 0 1 3.301 1.834c.121.111.246.242.257.406.015.218-.172.39-.343.526l-2.577 2.056m-7.596-17.431a6.918 6.918 0 0 1 .296 3.286c-.97-.175-1.999 0-2.856.486m4.046 7.814a9.79 9.79 0 0 0 -2.091 4.382m3.507-1.192a13.97 13.97 0 0 1 -4.181-2.014m26.048 11.689-2.576-3.893m3.658.867c-.382-.5-1.172-.193-1.7.15l-3.51 2.281" fill="none" stroke="#fff" stroke-miterlimit="10" stroke-width=".346"/><path d="m109.561 161.726c-1.398-.119-2.819-.157-4.191.134s-1.83.549-2.742 1.614c1.838-2.102 2.29-2.497 4.641-5.918-1.634 1.029-3.726 1.142-5.332 2.214a5.253 5.253 0 0 0 -2.256 3.609c1.345-1.545 2.65-3.472 2.249-5.481-.382-1.915-1.832-3.241-1.943-5.425-.306 1.905-1.166 3.218-1.601 4.777a7.191 7.191 0 0 0 .519 5.167c.027-1.274-1.185-2.193-2.31-2.792-1.124-.6-2.414-1.247-2.774-2.469.001 3.19 1.904 6.307 4.741 7.766-.35-1.267-1.804-1.844-3.095-2.088s-2.733-.4-3.611-1.378c.448 1.923 1.871 3.547 3.631 4.445 2.085 1.064 4.657 1.114 6.908.283 2.522-.932 4.412-3.664 7.166-4.458zm120.207 18.858c1.506-.128 3.037-.169 4.516.145s1.971.591 2.955 1.739c-1.981-2.265-2.467-2.69-5-6.377 1.76 1.108 4.015 1.23 5.745 2.386a5.662 5.662 0 0 1 2.431 3.888c-1.449-1.665-2.855-3.741-2.423-5.905.412-2.063 1.974-3.492 2.094-5.845.329 2.053 1.256 3.467 1.724 5.147a7.741 7.741 0 0 1 -.56 5.567c-.029-1.373 1.277-2.362 2.488-3.009 1.211-.646 2.601-1.344 2.989-2.661-.001 3.437-2.051 6.796-5.108 8.368.377-1.365 1.944-1.987 3.335-2.25s2.944-.431 3.89-1.485c-.482 2.072-2.016 3.822-3.912 4.789-2.247 1.146-5.018 1.2-7.443.305-2.717-1.003-4.754-3.946-7.721-4.802zm-65.848-126.947c1.443-.123 2.91-.162 4.328.139s1.889.566 2.832 1.667c-1.898-2.171-2.364-2.578-4.792-6.111 1.687 1.062 3.847 1.179 5.505 2.286a5.428 5.428 0 0 1 2.33 3.726c-1.388-1.595-2.736-3.585-2.322-5.659.395-1.977 1.892-3.346 2.007-5.602.316 1.967 1.204 3.323 1.653 4.932a7.424 7.424 0 0 1 -.536 5.335c-.028-1.315 1.224-2.264 2.385-2.883s2.492-1.288 2.865-2.55c-.001 3.294-1.966 6.513-4.895 8.019.361-1.308 1.863-1.904 3.196-2.156s2.822-.413 3.728-1.423c-.462 1.986-1.932 3.663-3.749 4.589-2.153 1.098-4.809 1.15-7.133.292-2.607-.961-4.559-3.781-7.402-4.601zm295.737 80.35c1.443-.123 2.911-.162 4.328.139s1.889.566 2.832 1.667c-1.898-2.171-2.364-2.578-4.792-6.111 1.687 1.062 3.847 1.179 5.505 2.286a5.428 5.428 0 0 1 2.33 3.726c-1.388-1.595-2.736-3.585-2.322-5.659.395-1.977 1.892-3.346 2.007-5.602.316 1.967 1.204 3.323 1.653 4.932a7.424 7.424 0 0 1 -.536 5.335c-.028-1.315 1.224-2.264 2.385-2.883s2.492-1.288 2.865-2.55c-.001 3.294-1.966 6.513-4.896 8.019.361-1.308 1.863-1.904 3.196-2.156s2.822-.413 3.728-1.423c-.462 1.986-1.932 3.663-3.749 4.589-2.153 1.098-4.809 1.15-7.133.292-2.606-.961-4.558-3.781-7.401-4.601zm-49.704 95.993c-1.582.077-3.178.248-4.67.78s-1.965.889-2.826 2.218c1.742-2.629 2.187-3.139 4.304-7.321-1.674 1.397-3.999 1.838-5.634 3.279a5.938 5.938 0 0 0 -1.983 4.378c1.273-1.931 2.444-4.284 1.693-6.471-.716-2.085-2.538-3.351-2.99-5.779-.056 2.178-.821 3.777-1.073 5.586a8.116 8.116 0 0 0 1.358 5.704c-.161-1.43-1.656-2.276-3.004-2.778s-2.889-1.033-3.476-2.347c.48 3.57 3.079 6.773 6.473 7.979-.582-1.365-2.296-1.793-3.778-1.872s-3.118-.037-4.248-.999c.79 2.085 2.627 3.689 4.731 4.429 2.493.877 5.379.546 7.773-.721 2.682-1.421 4.388-4.762 7.35-6.065z" fill="#67a592"/><path d="m72.977 38.166c-5.072-2.864-10.274-.065-10.127 10.416s-.052 26.208-1.251 30.418c-.959 3.369-2.151 5.177-4.417 5.578l.044-1.372v-.001c.627-4.87 1.126-12.743 1.631-17.628 1.165-11.266 2.064-18.725 1.094-28.91-.309-3.246-.627-6.531-1.717-9.605s-3.05-5.963-5.923-7.506-6.731-1.46-9.149.728c-1.93 1.748-2.661 4.448-3.029 7.026-.396 2.771-.479 5.578-.502 8.377-.082 9.98.595 19.955 1.684 29.876.307 2.797.645 5.592.913 8.392-.111-.006-.22-.013-.34-.012-5.922.083-4.044-14.319-3.719-21.033s-.398-13.413-2.515-14.851-9.89-2.587-10.378 7.484-1.268 29.161 4.049 34.538c4.752 4.805 11.92 3.214 13.392 2.821.064 8.871-.993 17.767-.127 26.596.248 2.533.386 8.675 2.465 11.734.142.818.285 1.31.429 1.403l1.024-.014a3.33 3.33 0 0 0 1.774.402c.374-.016.684-.206.981-.44l1.206-.017.351-.005 4.66-.065c.513-7.684.951-17.116 1.321-26.941 5.457.333 14.91-.599 16.832-10.643 2.735-14.296 4.416-43.882-.656-46.746z" fill="#66c6ab"/><g fill="none" stroke="#fff" stroke-miterlimit="10"><path d="m46.943 122.203c-.479-4.409.447-8.861.218-13.29-.162-3.132-.9-6.212-1.064-9.344-.176-3.358.308-6.71.522-10.065.338-5.292.004-10.6-.33-15.892l-2.36-37.372c-.132-2.09-.264-4.188-.089-6.275a21.52 21.52 0 0 1 4.178-11.008m3.533 102.926.479-21.992c.124-5.7.248-11.407-.081-17.099-.207-3.577-.592-7.143-.765-10.722-.507-10.5.82-20.989 1.828-31.453.719-7.466 1.141-15.543-2.858-21.888m-8.436 62.64c-2.451-.238-4.942-.486-7.224-1.411s-4.368-2.641-5.144-4.978c-.767-2.309-.175-4.867-.723-7.237-.286-1.239-.881-2.408-.998-3.673-.116-1.249.24-2.49.341-3.74.129-1.6-.161-3.2-.341-4.795-.453-4.001-.22-8.044.015-12.063.143-2.451.717-5.477 3.077-6.155" stroke-width=".342"/><path d="m41.873 77.769c-4.777-.74-8.58-5.479-8.269-10.303.087-1.348.451-2.716.142-4.031-.346-1.473-1.518-2.85-1.138-4.314.145-.559.505-1.034.761-1.552 1.225-2.471-.019-5.395-.075-8.153-.042-2.054.593-4.054.898-6.086s.221-4.283-1.051-5.896m23.478 49.737 4.09-2.074c1.01-.512 2.045-1.043 2.803-1.886 1.077-1.197 1.451-2.862 1.628-4.462a24.858 24.858 0 0 0 -.167-6.706c-.168-1.035-.401-2.068-.386-3.116.017-1.08.298-2.135.472-3.201.447-2.731.194-5.525-.112-8.275-.186-1.675-.392-3.366-.209-5.041.164-1.504.639-2.96.812-4.463.202-1.749-.007-3.52.089-5.278s.559-3.604 1.835-4.817c.211-.201.511-.392.776-.272.266.12.132.664-.13.536" stroke-width=".342"/><path d="m56.402 91.504a22.552 22.552 0 0 0 10.722-5.234c.832-.735 1.619-1.543 2.16-2.512.652-1.166.918-2.508 1.065-3.836.422-3.813-.061-7.676.256-11.499.259-3.116 1.049-6.214.778-9.328-.125-1.437-.475-2.848-.577-4.287-.408-5.782 3.194-11.417 2.225-17.132m-24.821 84.482c-.273-4.488-.546-8.977-.694-13.47a242.68 242.68 0 0 1 .512-25.657c.187-2.565.415-5.141.217-7.706-.415-5.35-2.671-10.449-2.896-15.81-.211-5.021 1.363-10.163.019-15.005-.355-1.28-.912-2.518-1.038-3.84-.194-2.036.647-4.012.991-6.028.758-4.439-.869-9.245.905-13.385m6.773 100.338c.608-2.788-.416-5.637-.784-8.467-.491-3.773.191-7.584.605-11.366.242-2.21.393-4.438.256-6.657-.125-2.022-.489-4.022-.636-6.043-.454-6.222 1.146-12.54.019-18.675-.613-3.335-2.023-6.719-1.172-10.002.508-1.961 1.147-3.875 1.766-5.804 3.479-10.848-2.386-22.764-.134-33.932m-11.873 60.873c-2.45-.377-5.051-.823-6.892-2.482-.989-.891-1.672-2.061-2.493-3.109-.841-1.073-1.849-2.049-2.399-3.296-1.17-2.65.005-5.702-.082-8.598-.065-2.178-.854-4.278-1.002-6.451-.214-3.14.918-6.274.577-9.404-.259-2.385-1.338-4.929-.23-7.057.625-1.201 1.932-2.324 1.517-3.613" stroke-width=".342"/><path d="m42.785 77.927-3.859-2.058c-1.4-.747-2.887-1.581-3.583-3.007-.627-1.283-.506-2.859-1.25-4.077-.268-.439-.646-.826-.783-1.322-.215-.781.219-1.573.549-2.312a9.946 9.946 0 0 0 .456-6.811c-.206-.696-.491-1.383-.519-2.109-.04-1.025.434-1.99.708-2.979a7.88 7.88 0 0 0 -.125-4.599c-.193-.573-.455-1.129-.538-1.728-.237-1.706.999-3.297 1.041-5.019.039-1.598-.941-3.02-1.88-4.315m24.319 49.54c1.04.242 2.12-.271 2.931-.966.81-.696 1.445-1.576 2.246-2.282.613-.54 1.319-.976 1.873-1.576 1.256-1.361 1.54-3.33 1.765-5.169.076-.62.151-1.256.01-1.864-.126-.54-.416-1.03-.559-1.566-.452-1.686.606-3.431.48-5.172-.061-.845-.398-1.643-.571-2.473-.739-3.546 1.562-7.279.549-10.757-.423-1.452-1.412-2.78-1.367-4.292.039-1.343.887-2.506 1.384-3.754a7.488 7.488 0 0 0 .439-3.921c-.14-.888-.441-1.752-.476-2.65s.266-1.888 1.039-2.346" stroke-width=".342"/><path d="m57.092 91.714c1.455-.253 2.9-.564 4.329-.933 1.146-.296 2.369-.689 3.057-1.652.263-.369.429-.8.692-1.169.996-1.4 3.07-1.565 4.274-2.79.929-.945 1.185-2.367 1.149-3.692-.036-1.324-.315-2.639-.262-3.963.121-3.029 1.961-5.809 1.972-8.841.006-1.776-.62-3.492-.811-5.258-.402-3.73 1.149-7.469.724-11.196-.205-1.803-.868-3.636-.384-5.385.368-1.331 1.383-2.508 1.329-3.888-.034-.851-.475-1.624-.776-2.421-.3-.797-.441-1.764.068-2.447m9.445 3.843.114-.002" stroke-width=".342"/></g><path d="m463.259 172.097c-5.123-2.893-10.377-.066-10.229 10.52.149 10.586-.052 26.471-1.263 30.723-.969 3.402-2.172 5.229-4.461 5.634l.044-1.386v-.001c.634-4.919 1.137-12.871 1.648-17.804 1.177-11.379 2.085-18.912 1.105-29.2-.312-3.279-.633-6.597-1.734-9.701s-3.08-6.023-5.982-7.582c-2.902-1.558-6.799-1.475-9.24.736-1.95 1.765-2.688 4.493-3.06 7.097-.4 2.799-.484 5.633-.507 8.461-.083 10.08.601 20.155 1.701 30.175.31 2.825.652 5.648.922 8.476-.113-.006-.222-.014-.344-.012-5.982.084-4.084-14.462-3.756-21.243s-.402-13.547-2.54-14.999-9.99-2.613-10.482 7.559-1.28 29.453 4.09 34.883c4.799 4.853 12.039 3.246 13.526 2.849.065 8.96-1.003 17.945-.128 26.862.251 2.558.39 8.762 2.49 11.851.143.826.288 1.323.433 1.417l1.034-.015c.52.285 1.112.434 1.792.406.377-.016.691-.208.991-.445l1.218-.017.354-.005 4.707-.066c.518-7.761.961-17.287 1.334-27.211 5.511.336 15.06-.605 17-10.75 2.762-14.436 4.46-44.319-.663-47.212z" fill="#66c6ab"/><path d="m436.965 256.977c-.484-4.454.451-8.949.22-13.423-.164-3.163-.909-6.275-1.075-9.438-.178-3.391.311-6.777.528-10.166.341-5.345.004-10.707-.334-16.051l-2.384-37.746c-.133-2.111-.267-4.23-.089-6.338a21.726 21.726 0 0 1 4.22-11.118m3.568 103.956.484-22.212c.125-5.757.251-11.521-.082-17.27-.209-3.613-.598-7.215-.773-10.83-.512-10.605.828-21.199 1.846-31.768.726-7.541 1.152-15.698-2.886-22.108m-8.521 63.268c-2.476-.241-4.991-.491-7.296-1.425-2.305-.935-4.411-2.667-5.195-5.028-.774-2.332-.177-4.916-.73-7.31-.289-1.251-.889-2.432-1.009-3.71-.118-1.262.242-2.515.344-3.778.131-1.616-.162-3.232-.345-4.843-.458-4.041-.222-8.124.015-12.184.144-2.476.724-5.531 3.108-6.217" fill="none" stroke="#fff" stroke-miterlimit="10" stroke-width=".346"/><path d="m431.844 212.097c-4.824-.748-8.666-5.534-8.352-10.406.088-1.362.456-2.743.143-4.071-.35-1.487-1.534-2.879-1.15-4.357.147-.565.51-1.044.769-1.567 1.237-2.496-.019-5.449-.075-8.234-.042-2.074.599-4.095.907-6.146.308-2.052.223-4.326-1.062-5.955m23.714 50.233 4.131-2.095c1.02-.517 2.066-1.054 2.831-1.904 1.087-1.209 1.465-2.891 1.645-4.507.25-2.251.193-4.537-.169-6.773-.169-1.045-.406-2.089-.389-3.147.017-1.091.301-2.157.477-3.233.452-2.759.196-5.58-.113-8.358-.188-1.692-.396-3.399-.211-5.092.166-1.519.645-2.99.82-4.508.204-1.767-.007-3.555.09-5.331s.565-3.64 1.853-4.865c.214-.203.516-.396.784-.275.268.122.134.671-.131.541" fill="none" stroke="#fff" stroke-miterlimit="10" stroke-width=".346"/><path d="m446.518 225.97a22.784 22.784 0 0 0 10.83-5.286c.84-.742 1.635-1.559 2.182-2.537.658-1.178.927-2.533 1.075-3.874.426-3.851-.062-7.753.259-11.614.261-3.147 1.059-6.276.786-9.422-.126-1.451-.48-2.877-.583-4.33-.413-5.84 3.225-11.532 2.246-17.304m-25.069 85.328c-.276-4.533-.552-9.067-.701-13.605a245.129 245.129 0 0 1 .517-25.914c.189-2.591.42-5.193.219-7.783-.419-5.403-2.698-10.553-2.925-15.968-.213-5.071 1.377-10.265.019-15.156-.359-1.293-.921-2.543-1.048-3.879-.196-2.057.653-4.052 1.001-6.088.766-4.484-.878-9.338.914-13.519m6.842 101.343c.614-2.816-.42-5.694-.792-8.552-.496-3.811.193-7.66.611-11.48.245-2.232.397-4.482.258-6.723-.126-2.042-.493-4.063-.642-6.103-.458-6.284 1.157-12.665.019-18.862-.619-3.369-2.043-6.786-1.184-10.102.513-1.98 1.159-3.914 1.783-5.862 3.514-10.957-2.41-22.992-.135-34.272m-11.991 61.482c-2.474-.381-5.101-.831-6.961-2.507-.999-.9-1.689-2.082-2.518-3.14-.85-1.084-1.867-2.069-2.424-3.329-1.182-2.677.005-5.759-.082-8.684-.065-2.2-.862-4.32-1.012-6.516-.216-3.172.927-6.337.583-9.498-.262-2.409-1.352-4.979-.233-7.128.631-1.213 1.951-2.348 1.532-3.649" fill="none" stroke="#fff" stroke-miterlimit="10" stroke-width=".346"/><path d="m432.765 212.257-3.897-2.079c-1.414-.754-2.916-1.597-3.619-3.037-.633-1.296-.511-2.887-1.263-4.118-.271-.444-.653-.834-.791-1.336-.217-.789.221-1.589.555-2.336a10.04 10.04 0 0 0 .46-6.879c-.208-.703-.496-1.397-.524-2.13-.041-1.036.438-2.01.716-3.009a7.96 7.96 0 0 0 -.127-4.645c-.195-.578-.459-1.141-.543-1.745-.239-1.723 1.009-3.33 1.052-5.069.039-1.614-.951-3.051-1.899-4.358m24.562 50.037c1.051.245 2.142-.273 2.96-.976s1.46-1.591 2.269-2.305c.619-.546 1.332-.986 1.892-1.592 1.269-1.375 1.555-3.363 1.783-5.221.077-.626.153-1.268.01-1.883-.127-.546-.42-1.04-.565-1.581-.457-1.703.612-3.465.485-5.224-.062-.854-.402-1.66-.577-2.497-.747-3.582 1.578-7.352.554-10.865-.428-1.467-1.426-2.808-1.381-4.335.04-1.356.895-2.531 1.398-3.791a7.574 7.574 0 0 0 .444-3.96c-.141-.896-.445-1.77-.481-2.676-.036-.907.269-1.907 1.049-2.37" fill="none" stroke="#fff" stroke-miterlimit="10" stroke-width=".346"/><path d="m447.215 226.182a55.774 55.774 0 0 0 4.373-.942c1.157-.299 2.393-.695 3.087-1.668.266-.373.434-.808.699-1.181 1.006-1.414 3.1-1.581 4.317-2.818.938-.954 1.197-2.391 1.161-3.729s-.318-2.666-.264-4.003c.123-3.059 1.981-5.868 1.992-8.929.006-1.794-.626-3.527-.819-5.311-.406-3.767 1.16-7.544.732-11.308-.207-1.821-.876-3.673-.388-5.439.372-1.345 1.397-2.533 1.342-3.927-.034-.86-.48-1.64-.784-2.445s-.445-1.781.069-2.472m9.538 3.881.115-.002" fill="none" stroke="#fff" stroke-miterlimit="10" stroke-width=".346"/><path d="m40.813 188.052c.098.263-.438 9.433 0 12.546s.525 4.528 0 8.207-.827 21.225-.194 23.017c.632 1.792-.556 1.792-.356 2.83s1.067 2.475-.023 2.511-4.591-.696-6.079 0-3.151.813-2.801 0c0 0-1.751.437-2.626.567s-.613-.567-.613-.567-1.751.435-1.926 0c-.175-.436 2.101-1.379 2.101-1.379s2.188.094 4.026-.755 4.726-.755 5.339-2.264 1.139-3.396 1.138-6.603c0-3.207.087-15.093-.438-17.263s-.525-4.151-.175-6.698-.7-14.15-.7-14.15 1.401-5.187 3.327.001z" fill="#fcdfb6"/><path d="m45.354 183.996s5.689 10.188 7.615 12.641 2.362 3.782.261 4.819c-2.101 1.038-6.213 1.595-7.876 2.256-1.663.66-12.691 5.566-14.792 6.981s-.786 2.358-.393 3.396 1.443 5.754.655 5.188-.833-1.604-1.423-1.509c-.59.094-1.203 1.792-1.29 2.83-.088 1.038-.613 1.698-1.838 2.075s-.875 1.981-1.751 1.981c-.875 0 .175-3.962.875-5s1.575-4.622 1.926-6.32c.35-1.698.088-2.924 2.013-3.962 1.926-1.038 11.816-6.415 19.781-10.282l1.399-.734c.006-.449-.607-1.461-1.211-2.325-1.762-2.52-7.17-11.212-7.17-11.212s-.545-2.521 3.219-.823zm-37.031-36.425c-.255.564-.492 1.153-.517 1.772-.022.549.125 1.09.291 1.614a21.28 21.28 0 0 0 2.522 5.286c.16.243.385.512.674.479.81-2.053-.107-4.467.643-6.543.672-1.856 2.489-2.989 3.933-4.335a13.502 13.502 0 0 0 3.233-4.634c.097-.231.189-.472.189-.722 0-.455-.304-.86-.664-1.139a2.856 2.856 0 0 0 -2.727-.395c-1.359.527-1.962 1.925-3.072 2.755-.156-.908-.9.082-1.127.363a26.01 26.01 0 0 0 -1.3 1.765 25.887 25.887 0 0 0 -2.078 3.734z" fill="#fcdfb6"/><path d="m41.892 185.475c.24.112.501.187.759.229.105.017.218.03.301.098.102.084.128.227.15.358.19 1.133 3.075 2.835 3.1 2.94.532-.851.98-1.754 1.336-2.692.109-.287.211-.594.155-.896 2.791.675 5.85 0 8.483-1.144.198-.086.402-.176.617-.179.367-.005.684.239.978.459 2.365 1.765 5.256 2.648 8.082 3.498.039-.342-.103-.676-.243-.99l-1.833-4.151c.88.239 1.365 1.145 1.873 1.903 1.54 2.298 4.054 3.81 5.576 6.12.1-.766-.242-1.515-.587-2.206a64.703 64.703 0 0 0 -5.659-9.278c1.468.557 2.136 2.324 3.52 3.065.184.098.393.179.597.135s.381-.258.316-.455c-.027-.081.204-.118.277-.074 1.65 1.004 2.924 2.616 4.722 3.322-.083-.258-.222-.494-.364-.725a25.85 25.85 0 0 0 -4.814-5.75c.015-.124-.138-.307-.246-.368-.896-.511-1.621-1.268-2.341-2.005-2.231-2.284-4.597-4.524-7.473-5.911a20.19 20.19 0 0 0 -6.874-6.515c-1.613-.921-3.345-1.615-5.084-2.266-3.278-1.228-6.707-2.332-10.202-2.143l.41-.391c-1.559-.359-3.153.409-4.615 1.059a1.484 1.484 0 0 0 -.152-.823c-4.581 2.158-8.284 6.118-10.13 10.834-.435 1.112-.773 2.266-1.326 3.325-.156.298-.349.606-.659.734-.217.09-.463.077-.695.041a3.625 3.625 0 0 1 -2.692-2.056c-.274-.609-.372-1.284-.402-1.951-.127-2.833.763-5.773 2.873-7.669l3.287-2.952c.557-.5 1.116-1.003 1.592-1.58.566-.686 1.005-1.467 1.539-2.179.535-.715 1.161-1.357 1.7-2.068 1.288-1.701 2.265-3.618 2.606-5.725.337-2.077.168-4.246-.577-6.214s-2.076-3.724-3.823-4.897c-1.201-.806-2.568-1.326-3.932-1.808-.471-.167-.946-.33-1.438-.412-.506-.085-1.023-.082-1.536-.062-1.827.072-3.757.419-5.116 1.642-.462.415-.839.916-1.18 1.436-.273.415-.527.851-.649 1.332a2.649 2.649 0 0 0 .23 1.877c.692.224 1.506.371 2.201.158.391-.12.752-.35 1.159-.386s.892.241.857.649c-.014.161-.105.304-.194.439l-.72 1.096.4.02a4.805 4.805 0 0 0 -.427 2.83c.75.046 1.457-.322 2.118-.679l2.446-1.319c.806-.435 1.664-.882 2.579-.839.947.045 1.825.645 2.303 1.464s.576 1.828.373 2.754c-.073.33-.13.718-.297 1.012a23.891 23.891 0 0 1 -5.964 6.948c-.609.481-1.241.931-1.832 1.434a13.544 13.544 0 0 0 -3.481 4.572c-.421.903-.768 1.952-1.113 2.886-.326.882-.639 1.774-.801 2.7-.185 1.053-.171 2.131-.1 3.197.091 1.367.278 2.734.685 4.042a8.56 8.56 0 0 0 .82 1.888c.313.519.697.993 1.117 1.43 2.252 2.349 5.588 3.613 8.831 3.347 2.197-.18 4.58.35 6.708.928 2.128.577 4.188 1.604 5.655 3.25.785.88 1.379 1.911 2.082 2.858.157.212.332.428.577.524s.578.018.673-.228l.299.262a.294.294 0 0 1 .231-.168c.083-.009.166.018.249.03.317.048.636-.126.84-.372.205-.246.314-.557.406-.864.089-.296.245-1.963.464-2.061.404-.182.793.92.895 1.144a8.404 8.404 0 0 0 2.62 3.287l-.104-.698c.223.229.487.418.775.556l.018-.817.531.41c.087-.248.115-.516.083-.777.219.17.468.3.732.384a8.023 8.023 0 0 0 .57-2.948c.001-.627-.12-1.339-.644-1.683-.381-.25-.884-.234-1.318-.093-.433.141-.821.392-1.227.597a6.215 6.215 0 0 1 -2.574.658c.058.057.17.036.203-.038" fill="#fbb1af"/><path d="m9.296 150.07c.144.008.227-.158.271-.296l.655-2.045a6.413 6.413 0 0 0 -.209 1.808c.003.099.012.208.082.278.074.074.19.501.289.535.428.144.454.31.695.692.181.286.382.466.492.786.061.178.04.588.024.775-.077.888-.023 1.57-.099 2.458-.06.698-.067 1.256-.326 1.907-.318.112-.601-.025-.858-.243a2.837 2.837 0 0 1 -.665-.803c-.817-1.563-1.161-2.665-1.625-4.646-.117-.502-.644-2.305-.099-2.645-.002 0 1.274.91 1.373 1.439z" fill="#0e0118"/><path d="m10.209 147.226c-.195.428-.303.889-.409 1.346l-.458 1.965c.232-.078.452-.194.648-.341a.336.336 0 0 0 .126-.144.361.361 0 0 0 -.005-.19 4.022 4.022 0 0 1 .161-2.1c.516-1.446 1.725-2.208 2.753-3.222-1.108.586-2.287 1.524-2.816 2.686z" fill="#0e0118"/><path d="m37.503 188.702c.039-.286.131-.566.271-.818l.954 1.055c.083-.268.177-.551.395-.727s.601-.173.73.076c.117.227.063.632.319.635a7.41 7.41 0 0 0 .507-.977c.236-.035.318.388.556.398.146.006.241-.148.3-.282a9.793 9.793 0 0 0 .81-4.569c-.022-.333-.064-.678-.24-.962-.146-.237-.374-.412-.61-.559-1.2-.748-2.71-.879-4.099-.61-1.024.198-1.995.598-2.92 1.071-.513.262-.901.302-.798.847.075.398.383.854.561 1.22.402.828.845 1.643 1.395 2.383.26.35.543.685.854.991.102.1 1.021.78 1.015.828z" fill="#fbb1af"/><path d="m15.872 141.471c-.084-.203-.365-.263-.563-.169s-.322.296-.404.5c-.062.157-.106.332-.054.492.066.208.278.34.492.384.419.087.914-.164.992-.585s-.425-.856-.797-.645" fill="#0e0118"/><path d="m45.945 176.64c.962-.169 1.917.265 2.794.695 3.39 1.662 6.977 3.482 10.732 3.086.795-.084 1.057-.785 1.642-.907.325-.068.559.26.932.048.326-.185.442-.648.485-.989.288-2.272-1.582-5.322-3.353-7.798.909 1.018 3.528 2.822 4.582 3.688.688.565 1.502 1.446 2.225 1.966a37.29 37.29 0 0 1 7.077 6.646c.604.737 1.174 1.524 1.353 2.46-2.312-.945-3.655-3.336-5.741-4.711.281.411.488 1.425.426 1.919-1.848-.057-3.747-1.34-5.055-2.647.727 1.315 2.018 2.209 2.989 3.356.661.781 1.171 1.676 1.677 2.566 1.416 2.491 1.719 2.259 2.519 5.01-2.357-2.711-3.588-2.67-5.946-5.381 1.1.946 1.996 2.12 2.67 3.404.141.268.276.556.266.859s-.212.621-.513.66c-.213.027-.415-.085-.6-.193a202.373 202.373 0 0 1 -8.033-4.959 8.21 8.21 0 0 1 1.76 2.468c-1.629-.073-3.058-1.055-4.387-2-.684-.487-1.383-.988-1.864-1.676-.284-.406-.485-.867-.795-1.252-.32-.398-.742-.698-1.154-.999a50.522 50.522 0 0 1 -6.374-5.53l.288.363" fill="#c65878"/><path d="m43.626 168.429c.087.215.274.37.454.517l5.133 4.184c.098.08.202.163.327.187.418.08.636-.516.526-.927s-.37-.826-.238-1.231a28.53 28.53 0 0 0 4.196 4.694 2.651 2.651 0 0 0 -.206-2.124l3.437 3.599c.434.454.904.93 1.516 1.07a17.75 17.75 0 0 0 .136-2.35l3.815 5.027c-.517.139-.94-.553-1.475-.524-.199.011-.379.123-.527.255-.614.549-.805 1.436-1.346 2.056-.845.968-2.292 1.06-3.577 1.079-.145.002-.296.003-.427-.06-.137-.066-.233-.192-.328-.31-1.003-1.242-2.47-1.995-3.825-2.839a26.745 26.745 0 0 1 -5.767-4.844c.4.093.769.466 1.157.33.267-.094.401-.41.378-.691-.023-.282-.167-.537-.307-.783l-3.574-6.239 1.444.777" fill="#ea7894"/><path d="m57.505 185.234c.116.024.241.044.352.001.267-.102.29-.47.234-.75a3.705 3.705 0 0 0 -.545-1.322 7.613 7.613 0 0 0 2.256 1.541c.163.073.347.14.516.083.344-.117.335-.604.242-.955a10.495 10.495 0 0 0 -1.468-3.202 12.251 12.251 0 0 0 4.488 2.638c.075-.643-.366-1.225-.81-1.697a15.643 15.643 0 0 0 -2.512-2.162c-.256-.177-.545-.354-.855-.327-.269.023-.497.193-.731.328-1.388.797-3.138.377-4.643-.168s-3.101-1.204-4.655-.816c.253 1.98 2.294 2.7 3.645 3.909 1.325 1.184 2.683 2.522 4.486 2.899z" fill="#ea7894"/><path d="m293.713 126.978c.087.234-.39 8.412 0 11.188s.468 4.038 0 7.318c-.468 3.281-.737 18.926-.173 20.525.564 1.598-.496 1.598-.317 2.524s.951 2.207-.021 2.239-4.094-.621-5.42 0c-1.327.621-2.81.725-2.498 0 0 0-1.561.39-2.341.505-.78.116-.546-.505-.546-.505s-1.561.388-1.717 0 1.873-1.23 1.873-1.23 1.951.084 3.59-.673 4.215-.673 4.761-2.019 1.015-3.028 1.015-5.888.078-13.459-.391-15.393c-.468-1.935-.468-3.701-.156-5.972s-.624-12.618-.624-12.618 1.248-4.628 2.965-.001z" fill="#fcdfb6"/><path d="m297.762 123.361s5.073 9.085 6.79 11.272 2.106 3.372.233 4.297-5.54 1.423-7.023 2.011c-1.483.589-11.317 4.963-13.19 6.225s-.701 2.103-.35 3.028c.35.925 1.287 5.131.585 4.626-.703-.505-.743-1.43-1.269-1.346s-1.072 1.598-1.15 2.524c-.078.925-.546 1.514-1.639 1.851s-.78 1.767-1.561 1.767c-.78 0 .156-3.533.781-4.458.624-.925 1.405-4.122 1.717-5.636s.078-2.608 1.795-3.533 10.537-5.72 17.639-9.169l1.248-.654c.005-.4-.541-1.303-1.08-2.073-1.572-2.248-6.393-9.998-6.393-9.998s-.489-2.249 2.867-.734zm-33.02-32.481c-.227.503-.439 1.028-.461 1.58-.02.49.111.972.259 1.439a19.001 19.001 0 0 0 2.249 4.714c.143.217.343.456.601.427.722-1.83-.096-3.984.574-5.834.599-1.655 2.219-2.666 3.507-3.865a12.034 12.034 0 0 0 2.883-4.132c.087-.206.169-.421.169-.644 0-.406-.271-.767-.592-1.016a2.549 2.549 0 0 0 -2.432-.353c-1.212.47-1.749 1.717-2.739 2.456-.14-.81-.803.073-1.005.324a22.908 22.908 0 0 0 -3.013 4.904z" fill="#fcdfb6"/><path d="m294.675 124.679c.214.1.446.167.677.204.094.015.195.027.268.087.091.075.114.203.133.319.169 1.011 2.742 2.528 2.764 2.622.474-.759.874-1.564 1.192-2.401.097-.256.188-.53.138-.799 2.489.602 5.216-.001 7.565-1.02.177-.077.358-.157.551-.159.327-.004.61.213.872.409 2.109 1.574 4.687 2.361 7.207 3.119.034-.305-.092-.602-.216-.883l-1.634-3.702c.785.213 1.218 1.021 1.67 1.697 1.373 2.049 3.615 3.397 4.972 5.457.089-.683-.216-1.351-.524-1.967a57.705 57.705 0 0 0 -5.046-8.274c1.309.496 1.905 2.072 3.139 2.733.164.088.351.159.532.12.182-.039.34-.23.281-.406-.024-.073.182-.106.247-.066 1.471.895 2.608 2.333 4.211 2.962a2.987 2.987 0 0 0 -.325-.646 23.097 23.097 0 0 0 -4.292-5.128c.013-.11-.123-.273-.219-.328-.799-.455-1.445-1.13-2.087-1.788-1.989-2.037-4.099-4.034-6.663-5.271a18.001 18.001 0 0 0 -6.129-5.809c-1.438-.821-2.983-1.44-4.534-2.021-2.923-1.095-5.98-2.08-9.097-1.911l.366-.349c-1.39-.32-2.812.365-4.115.945a1.309 1.309 0 0 0 -.136-.733c-4.085 1.925-7.387 5.456-9.033 9.661-.388.991-.689 2.021-1.182 2.965-.139.266-.311.54-.588.655-.194.08-.413.069-.619.036a3.236 3.236 0 0 1 -2.401-1.834c-.245-.543-.331-1.145-.358-1.74-.113-2.527.68-5.148 2.562-6.838l2.931-2.633c.497-.446.995-.894 1.42-1.409.505-.612.897-1.308 1.372-1.943.477-.637 1.036-1.21 1.516-1.844 1.149-1.517 2.019-3.226 2.324-5.105.3-1.852.15-3.786-.515-5.541s-1.851-3.321-3.409-4.366c-1.071-.719-2.29-1.182-3.506-1.612-.42-.148-.843-.294-1.283-.368-.451-.075-.912-.073-1.369-.055-1.629.065-3.35.374-4.562 1.464-.412.37-.748.817-1.052 1.28-.243.37-.47.759-.579 1.188a2.362 2.362 0 0 0 .205 1.674c.617.2 1.343.331 1.963.141.349-.107.671-.312 1.034-.344s.795.215.765.578c-.012.144-.094.271-.173.392l-.642.977.357.018a4.29 4.29 0 0 0 -.381 2.524c.669.041 1.299-.287 1.889-.605l2.181-1.176c.719-.388 1.484-.787 2.3-.748.845.04 1.627.575 2.053 1.306s.514 1.63.332 2.456c-.065.294-.116.64-.265.902a21.314 21.314 0 0 1 -5.318 6.196c-.543.428-1.107.83-1.634 1.279a12.08 12.08 0 0 0 -3.104 4.077c-.375.805-.685 1.74-.993 2.573-.291.786-.57 1.582-.715 2.408-.165.939-.153 1.9-.089 2.851.081 1.219.248 2.438.611 3.604a7.68 7.68 0 0 0 .731 1.684c.279.463.622.885.996 1.275 2.008 2.094 4.983 3.222 7.875 2.985 1.96-.161 4.084.312 5.982.827s3.735 1.43 5.043 2.898c.7.785 1.229 1.704 1.856 2.549.14.189.296.382.515.467.219.086.516.016.6-.203l.267.234a.264.264 0 0 1 .206-.15c.074-.008.148.016.222.027.282.043.567-.112.749-.332.183-.22.28-.497.362-.77.079-.264.219-1.75.414-1.838.361-.163.707.821.798 1.021a7.506 7.506 0 0 0 2.336 2.931l-.093-.622c.199.204.434.372.691.496l.016-.729.473.366c.077-.221.103-.46.074-.693.195.151.417.268.653.343a7.152 7.152 0 0 0 .508-2.629c.001-.559-.107-1.194-.574-1.501-.339-.223-.789-.209-1.175-.083s-.732.35-1.094.532c-.711.358-1.5.56-2.295.587.051.051.152.032.181-.034" fill="#fbb1af"/><path d="m265.609 93.109c.129.007.202-.141.241-.264l.584-1.824a5.768 5.768 0 0 0 -.187 1.612c.002.088.011.185.073.248.066.066.169.447.258.477.381.128.405.276.62.617.161.255.34.416.439.701.055.159.036.524.022.691-.068.792-.02 1.4-.088 2.192-.054.622-.06 1.12-.291 1.7-.284.1-.536-.022-.765-.217a2.535 2.535 0 0 1 -.593-.716c-.729-1.393-1.035-2.376-1.449-4.143-.105-.447-.574-2.055-.089-2.358-.001 0 1.137.811 1.225 1.284z" fill="#0e0118"/><path d="m266.423 90.572c-.174.381-.27.792-.365 1.2l-.408 1.753c.207-.07.403-.173.578-.304.046-.035.093-.074.112-.129.019-.054.007-.113-.004-.169a3.595 3.595 0 0 1 .144-1.873c.46-1.289 1.538-1.969 2.455-2.873-.989.523-2.04 1.36-2.512 2.395z" fill="#0e0118"/><path d="m290.761 127.557c.034-.255.117-.504.242-.73l.85.94c.074-.239.158-.491.352-.648s.536-.154.651.068c.105.203.056.564.284.566.172-.279.323-.57.452-.871.211-.031.283.346.496.355.13.005.215-.132.268-.251a8.74 8.74 0 0 0 .722-4.074c-.019-.297-.058-.604-.214-.858-.131-.211-.333-.367-.544-.498-1.07-.667-2.417-.784-3.655-.544-.913.177-1.779.534-2.604.955-.457.233-.803.269-.712.755.067.355.342.761.5 1.088.358.739.753 1.465 1.244 2.125.232.312.484.611.761.884.093.089.913.695.907.738z" fill="#fbb1af"/><path d="m271.473 85.441c-.075-.181-.325-.235-.502-.151s-.288.264-.36.446c-.056.14-.094.296-.048.439.059.185.248.303.439.343.374.078.815-.146.885-.521.069-.375-.379-.763-.71-.575" fill="#0e0118"/><path d="m298.289 116.801c.858-.151 1.71.237 2.492.62 3.023 1.482 6.222 3.105 9.57 2.752.709-.075.943-.7 1.464-.809.29-.061.499.232.831.043.29-.165.394-.578.433-.882.256-2.026-1.411-4.745-2.99-6.953.81.908 3.146 2.516 4.086 3.289.613.504 1.339 1.289 1.984 1.753a33.237 33.237 0 0 1 6.311 5.926c.538.658 1.046 1.359 1.207 2.193-2.062-.843-3.26-2.975-5.119-4.201.251.367.435 1.27.38 1.711-1.648-.051-3.341-1.195-4.508-2.36.648 1.173 1.799 1.97 2.665 2.992.59.696 1.044 1.495 1.495 2.288 1.263 2.221 1.533 2.014 2.246 4.468-2.102-2.417-3.2-2.381-5.302-4.798.981.843 1.78 1.89 2.381 3.035.126.239.246.496.237.766s-.189.554-.457.588c-.19.024-.371-.075-.535-.172a179.585 179.585 0 0 1 -7.163-4.422 7.333 7.333 0 0 1 1.57 2.2c-1.453-.065-2.727-.941-3.912-1.784-.61-.434-1.233-.881-1.663-1.495-.253-.362-.432-.773-.709-1.117-.285-.355-.662-.622-1.029-.891a45.054 45.054 0 0 1 -5.684-4.931l.257.324" fill="#c65878"/><path d="m296.221 109.479c.078.192.244.33.405.461l4.577 3.731c.088.071.18.145.291.167.373.071.568-.46.469-.827-.098-.367-.33-.737-.212-1.098a25.441 25.441 0 0 0 3.742 4.186 2.363 2.363 0 0 0 -.184-1.894l3.065 3.209c.387.405.806.829 1.352.954.087-.695.127-1.395.121-2.095l3.402 4.483c-.461.124-.838-.493-1.315-.468-.177.01-.338.109-.47.228-.547.489-.718 1.281-1.201 1.834-.753.863-2.044.945-3.189.962-.129.002-.264.003-.381-.053-.122-.059-.208-.171-.293-.277-.895-1.107-2.203-1.779-3.411-2.532a23.917 23.917 0 0 1 -5.143-4.319c.357.083.686.416 1.032.294.238-.084.358-.365.337-.617-.021-.251-.149-.479-.274-.698l-3.187-5.564 1.287.693" fill="#ea7894"/><path d="m308.598 124.464c.104.022.215.039.314.001.238-.091.259-.419.209-.669a3.302 3.302 0 0 0 -.486-1.178 6.793 6.793 0 0 0 2.011 1.374c.145.065.309.125.46.074.307-.105.299-.539.216-.852a9.356 9.356 0 0 0 -1.309-2.855 10.916 10.916 0 0 0 4.002 2.352c.067-.574-.326-1.092-.722-1.513a14.006 14.006 0 0 0 -2.24-1.928c-.229-.158-.486-.316-.763-.292-.239.021-.443.172-.652.292-1.238.711-2.798.336-4.14-.15s-2.766-1.074-4.15-.728c.225 1.766 2.045 2.408 3.25 3.485 1.181 1.058 2.392 2.252 4 2.587z" fill="#ea7894"/><path d="m430.952 81.472c-.098.263.438 9.433 0 12.546s-.525 4.528 0 8.207.827 21.225.195 23.017.556 1.792.356 2.83-1.067 2.475.023 2.511 4.591-.696 6.079 0 3.151.813 2.801 0c0 0 1.751.437 2.626.567s.613-.567.613-.567 1.751.436 1.926 0-2.101-1.379-2.101-1.379-2.188.094-4.026-.755-4.726-.755-5.339-2.264-1.139-3.396-1.138-6.603c0-3.207-.087-15.093.438-17.263s.525-4.151.175-6.698.7-14.15.7-14.15-1.403-5.187-3.328.001z" fill="#fcdfb6"/><path d="m426.411 77.416s-5.689 10.188-7.615 12.641-2.362 3.782-.261 4.819c2.101 1.038 6.213 1.595 7.876 2.256 1.663.66 12.691 5.566 14.792 6.981s.786 2.358.393 3.396-1.443 5.754-.656 5.188c.788-.566.833-1.604 1.423-1.509.59.094 1.203 1.792 1.29 2.83.088 1.038.613 1.698 1.838 2.075s.875 1.981 1.751 1.981c.875 0-.175-3.962-.875-5s-1.576-4.622-1.926-6.32-.088-2.924-2.013-3.962c-1.926-1.038-11.816-6.415-19.781-10.282l-1.4-.734c-.006-.449.607-1.461 1.211-2.325 1.762-2.521 7.17-11.212 7.17-11.212s.547-2.521-3.217-.823zm37.031-36.425c.255.564.492 1.153.517 1.772.022.549-.125 1.09-.291 1.614a21.28 21.28 0 0 1 -2.522 5.286c-.16.243-.385.512-.674.479-.81-2.053.107-4.467-.643-6.543-.672-1.856-2.489-2.989-3.933-4.335a13.502 13.502 0 0 1 -3.233-4.634c-.097-.231-.189-.472-.189-.722 0-.455.304-.86.664-1.139a2.856 2.856 0 0 1 2.727-.395c1.359.528 1.962 1.925 3.072 2.755.156-.908.9.082 1.127.363.458.569.892 1.159 1.3 1.765a25.94 25.94 0 0 1 2.078 3.734z" fill="#fcdfb6"/><path d="m429.873 78.895c-.24.112-.501.187-.759.229-.105.017-.218.03-.301.098-.102.084-.128.227-.15.358-.19 1.133-3.074 2.835-3.1 2.94a15.446 15.446 0 0 1 -1.337-2.692c-.109-.287-.211-.594-.155-.896-2.791.675-5.85-.001-8.483-1.144-.198-.086-.402-.176-.617-.179-.367-.005-.684.239-.978.459-2.365 1.765-5.256 2.648-8.082 3.498-.039-.342.103-.676.242-.99l1.833-4.151c-.88.239-1.365 1.145-1.873 1.903-1.54 2.298-4.054 3.81-5.576 6.12-.1-.766.242-1.515.587-2.206a64.703 64.703 0 0 1 5.659-9.278c-1.468.557-2.136 2.324-3.52 3.065-.184.098-.393.179-.597.135s-.381-.258-.316-.455c.027-.081-.204-.119-.277-.074-1.65 1.004-2.924 2.616-4.722 3.322.083-.258.222-.494.364-.725a25.85 25.85 0 0 1 4.814-5.75c-.015-.123.138-.307.246-.368.896-.511 1.621-1.268 2.341-2.005 2.23-2.284 4.597-4.524 7.473-5.911a20.19 20.19 0 0 1 6.874-6.515c1.613-.921 3.345-1.614 5.084-2.266 3.278-1.228 6.707-2.332 10.202-2.143l-.41-.391c1.559-.359 3.153.409 4.615 1.059-.03-.281.024-.571.152-.823 4.581 2.158 8.284 6.118 10.13 10.834.435 1.112.773 2.266 1.326 3.325.156.298.349.606.659.734.217.09.463.078.695.041a3.625 3.625 0 0 0 2.692-2.056c.274-.609.372-1.284.402-1.951.127-2.833-.763-5.773-2.873-7.669l-3.287-2.952c-.557-.5-1.116-1.003-1.592-1.58-.566-.686-1.005-1.467-1.538-2.179-.535-.715-1.161-1.357-1.7-2.068-1.289-1.701-2.265-3.618-2.606-5.725-.337-2.077-.168-4.246.577-6.214s2.076-3.724 3.823-4.897c1.201-.806 2.568-1.326 3.932-1.808.471-.166.946-.33 1.438-.412.506-.085 1.023-.082 1.536-.062 1.827.072 3.757.419 5.116 1.641.462.415.839.917 1.18 1.436.273.415.527.851.649 1.332a2.649 2.649 0 0 1 -.23 1.877c-.692.224-1.506.371-2.201.158-.391-.12-.752-.35-1.159-.386s-.892.241-.857.649c.014.161.105.304.194.439l.72 1.096-.4.02c.425.871.577 1.873.427 2.831-.75.045-1.457-.322-2.118-.679l-2.446-1.319c-.806-.435-1.664-.882-2.579-.839-.947.045-1.825.645-2.303 1.464s-.576 1.828-.373 2.754c.073.33.13.718.297 1.012a23.891 23.891 0 0 0 5.964 6.948c.609.48 1.242.931 1.832 1.434a13.534 13.534 0 0 1 3.481 4.572c.421.903.768 1.952 1.113 2.886.326.882.639 1.774.801 2.7.185 1.053.171 2.131.1 3.197-.091 1.367-.278 2.734-.685 4.042a8.56 8.56 0 0 1 -.82 1.888 8.167 8.167 0 0 1 -1.117 1.43c-2.252 2.349-5.588 3.613-8.831 3.347-2.198-.18-4.58.35-6.708.928-2.128.577-4.188 1.604-5.655 3.25-.785.88-1.379 1.911-2.082 2.858-.157.212-.332.428-.577.524s-.578.018-.673-.228l-.299.262a.294.294 0 0 0 -.231-.168c-.083-.009-.166.018-.249.03-.317.048-.636-.126-.84-.372-.205-.247-.315-.557-.406-.864-.089-.296-.245-1.963-.464-2.062-.404-.182-.793.92-.895 1.144a8.41 8.41 0 0 1 -2.62 3.287l.104-.698a2.747 2.747 0 0 1 -.775.556l-.018-.817-.53.41a1.723 1.723 0 0 1 -.083-.777c-.219.17-.468.3-.732.384a8.023 8.023 0 0 1 -.57-2.948c-.001-.627.12-1.339.644-1.683.381-.25.884-.234 1.318-.093.433.141.821.392 1.227.597a6.215 6.215 0 0 0 2.574.658c-.058.057-.17.036-.203-.038" fill="#fbb1af"/><path d="m462.469 43.49c-.144.008-.227-.158-.271-.296l-.655-2.045c.155.589.226 1.2.209 1.808-.003.099-.012.208-.082.278-.074.074-.19.501-.29.535-.428.144-.454.31-.695.691-.181.286-.382.466-.492.786-.061.178-.04.588-.024.775.077.888.023 1.57.099 2.458.06.698.067 1.256.326 1.907.318.112.601-.025.858-.243s.509-.505.666-.803c.817-1.563 1.161-2.665 1.625-4.646.117-.502.643-2.305.099-2.645.002.001-1.275.911-1.373 1.44z" fill="#0e0118"/><path d="m461.556 40.646c.195.428.303.889.409 1.346l.458 1.965a2.311 2.311 0 0 1 -.648-.341c-.052-.039-.105-.083-.126-.144a.357.357 0 0 1 .005-.189 4.022 4.022 0 0 0 -.161-2.1c-.516-1.446-1.725-2.208-2.753-3.222 1.108.585 2.287 1.524 2.816 2.685z" fill="#0e0118"/><path d="m434.262 82.122a2.343 2.343 0 0 0 -.271-.818l-.954 1.055c-.083-.268-.177-.551-.395-.727s-.601-.173-.73.076c-.117.227-.063.632-.319.635a7.41 7.41 0 0 1 -.507-.977c-.236-.035-.318.388-.556.398-.146.006-.241-.148-.3-.282a9.793 9.793 0 0 1 -.81-4.569c.022-.333.065-.678.24-.962.146-.237.374-.412.61-.559 1.2-.748 2.71-.879 4.099-.61 1.024.198 1.995.598 2.92 1.071.513.262.901.301.798.847-.075.398-.383.853-.561 1.22-.402.828-.845 1.643-1.395 2.383-.26.35-.543.685-.854.991-.102.101-1.021.78-1.015.828z" fill="#fbb1af"/><path d="m455.893 34.892c.084-.203.365-.263.563-.169s.322.296.403.5c.062.156.106.332.054.492-.066.208-.278.34-.492.384-.419.087-.914-.164-.992-.584-.078-.421.425-.856.797-.645" fill="#0e0118"/><path d="m425.82 70.06c-.962-.169-1.917.265-2.794.695-3.39 1.662-6.977 3.482-10.732 3.086-.795-.084-1.057-.784-1.642-.907-.325-.068-.559.26-.932.048-.326-.185-.442-.648-.485-.989-.287-2.272 1.582-5.322 3.353-7.798-.909 1.018-3.528 2.822-4.582 3.688-.688.565-1.502 1.446-2.225 1.966a37.29 37.29 0 0 0 -7.077 6.646c-.604.738-1.174 1.524-1.353 2.46 2.312-.945 3.655-3.336 5.741-4.711-.281.411-.488 1.425-.426 1.919 1.848-.057 3.747-1.34 5.055-2.647-.727 1.315-2.018 2.209-2.989 3.356-.661.781-1.171 1.676-1.677 2.566-1.416 2.491-1.719 2.259-2.519 5.01 2.357-2.711 3.588-2.67 5.946-5.381-1.1.946-1.996 2.12-2.67 3.404-.141.268-.276.556-.266.859s.212.621.513.66c.213.027.416-.085.6-.193a202.373 202.373 0 0 0 8.033-4.959 8.223 8.223 0 0 0 -1.76 2.468c1.629-.073 3.058-1.055 4.387-2 .684-.487 1.383-.988 1.864-1.676.284-.405.485-.867.795-1.252.32-.398.742-.698 1.154-.999a50.441 50.441 0 0 0 6.374-5.53l-.288.363" fill="#c65878"/><path d="m428.139 61.849c-.087.215-.274.37-.454.517l-5.133 4.184c-.098.08-.202.163-.327.187-.418.08-.636-.516-.526-.927s.37-.826.238-1.231a28.53 28.53 0 0 1 -4.196 4.694 2.652 2.652 0 0 1 .206-2.124l-3.437 3.599c-.434.454-.904.93-1.516 1.07a17.75 17.75 0 0 1 -.136-2.35 9474.606 9474.606 0 0 1 -3.815 5.027c.517.139.94-.553 1.475-.524.199.011.379.123.527.255.614.549.805 1.436 1.346 2.056.845.968 2.292 1.059 3.577 1.079.145.002.296.003.427-.059.137-.066.233-.192.328-.31 1.003-1.242 2.47-1.995 3.825-2.839a26.745 26.745 0 0 0 5.767-4.844c-.4.093-.769.466-1.157.33-.267-.094-.401-.41-.378-.691.023-.282.167-.537.307-.783l3.574-6.239-1.443.777" fill="#ea7894"/><path d="m414.26 78.654c-.116.024-.241.044-.352.001-.267-.102-.29-.47-.234-.75.094-.47.28-.922.546-1.322a7.613 7.613 0 0 1 -2.256 1.541c-.163.073-.347.14-.516.083-.344-.117-.335-.604-.242-.955.304-1.14.803-2.227 1.468-3.202a12.251 12.251 0 0 1 -4.488 2.638c-.075-.644.366-1.225.81-1.697a15.643 15.643 0 0 1 2.512-2.162c.257-.177.545-.354.855-.327.268.023.497.193.731.328 1.388.797 3.138.377 4.643-.168s3.101-1.204 4.654-.816c-.253 1.981-2.294 2.7-3.645 3.909-1.325 1.184-2.683 2.523-4.486 2.899z" fill="#ea7894"/><path d="m521.33 200.178c.098.263-.438 9.433 0 12.546s.525 4.528 0 8.207-.827 21.225-.195 23.017-.556 1.792-.356 2.83 1.067 2.475-.023 2.511-4.591-.696-6.079 0-3.151.813-2.801 0c0 0-1.751.437-2.626.567s-.613-.567-.613-.567-1.751.436-1.926 0 2.101-1.379 2.101-1.379 2.188.094 4.026-.755 4.726-.755 5.339-2.264 1.139-3.396 1.138-6.603c0-3.207.087-15.093-.438-17.263s-.525-4.151-.175-6.698-.7-14.15-.7-14.15 1.402-5.187 3.328.001z" fill="#fcdfb6"/><path d="m525.871 196.122s5.689 10.188 7.615 12.641 2.362 3.782.261 4.819c-2.101 1.038-6.213 1.595-7.876 2.256s-12.691 5.566-14.792 6.981-.786 2.358-.393 3.396 1.443 5.754.656 5.188c-.788-.566-.833-1.604-1.423-1.509-.59.094-1.203 1.792-1.29 2.83-.088 1.038-.613 1.698-1.838 2.075s-.875 1.981-1.751 1.981c-.875 0 .175-3.962.875-5s1.576-4.622 1.926-6.32.088-2.924 2.013-3.962c1.926-1.038 11.816-6.415 19.781-10.282l1.399-.734c.006-.449-.607-1.461-1.211-2.325-1.762-2.52-7.17-11.212-7.17-11.212s-.546-2.521 3.218-.823zm-37.031-36.425c-.255.564-.492 1.153-.517 1.772-.022.549.125 1.09.291 1.614a21.28 21.28 0 0 0 2.522 5.286c.16.243.385.512.674.479.81-2.053-.107-4.467.643-6.543.672-1.856 2.489-2.989 3.933-4.335a13.502 13.502 0 0 0 3.233-4.634c.097-.231.189-.472.189-.722 0-.455-.304-.86-.664-1.139a2.856 2.856 0 0 0 -2.727-.395c-1.359.528-1.962 1.925-3.072 2.755-.156-.908-.9.082-1.127.363a25.763 25.763 0 0 0 -1.3 1.765 25.887 25.887 0 0 0 -2.078 3.734z" fill="#fcdfb6"/><path d="m522.409 197.601c.24.112.501.187.759.229.105.017.218.03.301.098.102.084.128.227.15.358.19 1.133 3.074 2.835 3.1 2.94.532-.851.98-1.754 1.337-2.692.109-.287.211-.594.155-.896 2.791.675 5.85-.001 8.483-1.144.198-.086.402-.176.617-.179.367-.005.684.239.978.459 2.365 1.765 5.256 2.648 8.082 3.498.039-.342-.103-.676-.242-.99l-1.833-4.151c.88.239 1.365 1.145 1.873 1.903 1.54 2.298 4.054 3.81 5.576 6.12.1-.766-.242-1.515-.587-2.206a64.703 64.703 0 0 0 -5.659-9.278c1.468.557 2.136 2.324 3.52 3.065.184.098.393.179.597.135s.381-.258.316-.455c-.027-.081.204-.119.277-.074 1.65 1.004 2.924 2.616 4.722 3.322-.083-.258-.222-.494-.364-.725a25.85 25.85 0 0 0 -4.814-5.75c.015-.123-.138-.307-.246-.368-.896-.511-1.621-1.268-2.341-2.005-2.231-2.284-4.597-4.524-7.473-5.911a20.19 20.19 0 0 0 -6.874-6.515c-1.613-.921-3.345-1.614-5.084-2.266-3.278-1.228-6.707-2.332-10.202-2.143l.41-.391c-1.559-.359-3.154.409-4.615 1.059a1.484 1.484 0 0 0 -.152-.823c-4.581 2.158-8.284 6.118-10.13 10.834-.435 1.112-.773 2.266-1.326 3.325-.155.298-.349.606-.659.734-.217.09-.463.078-.695.041a3.623 3.623 0 0 1 -2.692-2.056c-.274-.609-.372-1.284-.402-1.951-.127-2.833.763-5.773 2.873-7.669l3.287-2.952c.557-.5 1.116-1.003 1.592-1.58.566-.686 1.005-1.467 1.538-2.179.535-.715 1.161-1.357 1.7-2.068 1.289-1.701 2.265-3.618 2.606-5.725.337-2.077.168-4.246-.577-6.214s-2.076-3.724-3.823-4.897c-1.201-.806-2.568-1.326-3.932-1.808-.471-.166-.946-.33-1.438-.412-.506-.085-1.023-.082-1.536-.062-1.827.072-3.757.419-5.116 1.641-.462.415-.839.917-1.18 1.436-.273.415-.527.851-.649 1.332a2.649 2.649 0 0 0 .23 1.877c.692.224 1.506.371 2.201.158.391-.12.752-.35 1.159-.386s.892.241.857.649c-.014.161-.105.304-.194.439l-.72 1.096.4.02a4.807 4.807 0 0 0 -.427 2.831c.75.045 1.457-.322 2.118-.679l2.446-1.319c.806-.435 1.664-.882 2.579-.839.947.045 1.825.645 2.303 1.464s.576 1.828.373 2.754c-.073.33-.13.718-.297 1.012a23.891 23.891 0 0 1 -5.964 6.948c-.609.48-1.242.931-1.832 1.434a13.534 13.534 0 0 0 -3.481 4.572c-.421.903-.768 1.952-1.113 2.886-.326.882-.639 1.774-.801 2.7-.185 1.053-.171 2.131-.1 3.197.091 1.367.278 2.734.685 4.042a8.56 8.56 0 0 0 .82 1.888c.313.519.697.993 1.117 1.43 2.252 2.349 5.588 3.613 8.831 3.347 2.197-.18 4.58.35 6.708.928 2.128.577 4.188 1.604 5.655 3.25.785.88 1.379 1.911 2.082 2.858.157.212.332.428.577.524s.578.018.673-.228l.299.262a.294.294 0 0 1 .231-.168c.083-.009.166.018.249.03.317.048.636-.126.84-.372.205-.247.315-.557.406-.864.089-.296.245-1.963.464-2.061.404-.182.793.92.895 1.144a8.41 8.41 0 0 0 2.62 3.287l-.104-.698c.224.229.487.418.775.556l.018-.817.531.41c.087-.248.115-.516.083-.777.219.17.468.3.732.384a8.023 8.023 0 0 0 .57-2.948c.001-.627-.12-1.339-.644-1.683-.381-.25-.884-.234-1.318-.093-.433.141-.821.392-1.227.597a6.215 6.215 0 0 1 -2.574.658c.058.057.17.036.203-.038" fill="#fbb1af"/><path d="m489.813 162.196c.144.008.227-.158.271-.296l.655-2.045a6.413 6.413 0 0 0 -.209 1.808c.003.099.012.208.082.278.074.074.19.501.29.535.428.144.454.31.695.691.181.286.382.466.492.786.061.178.04.588.024.775-.077.888-.023 1.57-.099 2.458-.06.698-.067 1.256-.326 1.907-.318.112-.601-.025-.858-.243a2.857 2.857 0 0 1 -.666-.803c-.817-1.563-1.161-2.665-1.625-4.646-.117-.502-.643-2.305-.099-2.645-.002.001 1.275.911 1.373 1.44z" fill="#0e0118"/><path d="m490.726 159.352c-.195.428-.303.889-.409 1.346l-.458 1.965c.232-.078.452-.194.648-.341.052-.039.105-.083.126-.144a.357.357 0 0 0 -.005-.189 4.022 4.022 0 0 1 .161-2.1c.516-1.446 1.725-2.208 2.753-3.222-1.108.585-2.287 1.523-2.816 2.685z" fill="#0e0118"/><path d="m518.02 200.828c.039-.286.131-.566.271-.818l.954 1.055c.083-.268.177-.551.395-.727s.602-.173.73.076c.117.227.063.632.319.635a7.41 7.41 0 0 0 .507-.977c.236-.035.318.388.556.398.146.006.241-.148.3-.282a9.793 9.793 0 0 0 .81-4.569c-.022-.333-.065-.678-.24-.962-.146-.237-.374-.412-.61-.559-1.2-.748-2.71-.879-4.099-.61-1.024.198-1.995.598-2.92 1.071-.513.262-.901.301-.798.847.075.398.383.853.561 1.22.402.828.845 1.643 1.395 2.383.26.35.543.685.854.991.102.1 1.021.78 1.015.828z" fill="#fbb1af"/><path d="m496.389 153.597c-.084-.203-.365-.263-.563-.169s-.322.296-.403.5c-.062.156-.106.332-.054.492.066.208.278.34.492.384.419.087.914-.164.992-.584.078-.421-.425-.856-.797-.645" fill="#0e0118"/><path d="m526.462 188.766c.962-.169 1.917.265 2.794.695 3.39 1.662 6.977 3.482 10.732 3.086.795-.084 1.057-.784 1.642-.907.325-.068.559.26.932.048.326-.185.442-.648.485-.99.287-2.272-1.582-5.322-3.353-7.798.909 1.018 3.528 2.822 4.582 3.688.688.565 1.502 1.446 2.225 1.966a37.29 37.29 0 0 1 7.077 6.646c.604.738 1.174 1.524 1.353 2.46-2.312-.945-3.655-3.337-5.741-4.711.281.411.488 1.425.426 1.919-1.849-.057-3.747-1.34-5.055-2.647.727 1.315 2.018 2.209 2.989 3.356.661.781 1.171 1.676 1.677 2.566 1.416 2.491 1.719 2.259 2.519 5.01-2.357-2.711-3.588-2.67-5.946-5.381 1.1.946 1.996 2.12 2.67 3.404.141.268.276.556.266.859s-.212.621-.513.66c-.213.027-.416-.085-.6-.193a202.373 202.373 0 0 1 -8.033-4.959 8.223 8.223 0 0 1 1.76 2.468c-1.629-.073-3.058-1.055-4.387-2-.685-.487-1.383-.988-1.865-1.676-.284-.405-.485-.867-.795-1.252-.32-.398-.742-.698-1.154-.999a50.441 50.441 0 0 1 -6.374-5.53l.288.363" fill="#c65878"/><path d="m524.143 180.555c.087.215.274.37.454.517l5.133 4.184c.098.08.202.163.327.187.418.08.636-.516.526-.927s-.37-.826-.238-1.231a28.53 28.53 0 0 0 4.196 4.694 2.652 2.652 0 0 0 -.206-2.124l3.437 3.599c.434.454.904.93 1.516 1.07a17.58 17.58 0 0 0 .135-2.35l3.815 5.027c-.517.139-.94-.553-1.475-.524-.199.011-.379.123-.527.255-.614.549-.805 1.436-1.346 2.056-.845.968-2.292 1.059-3.577 1.079-.145.002-.296.003-.427-.059-.137-.066-.233-.192-.328-.31-1.003-1.242-2.47-1.995-3.825-2.839a26.745 26.745 0 0 1 -5.767-4.844c.4.093.769.466 1.157.33.267-.094.401-.41.378-.691-.023-.282-.167-.537-.307-.783l-3.574-6.239 1.443.777" fill="#ea7894"/><path d="m538.022 197.36c.116.024.241.044.352.001.267-.102.29-.47.234-.75a3.707 3.707 0 0 0 -.546-1.322 7.613 7.613 0 0 0 2.256 1.541c.163.073.347.14.516.083.344-.117.335-.604.242-.955a10.495 10.495 0 0 0 -1.468-3.202 12.251 12.251 0 0 0 4.488 2.638c.075-.644-.366-1.225-.81-1.697a15.643 15.643 0 0 0 -2.512-2.162c-.257-.177-.545-.354-.855-.327-.268.023-.497.193-.731.328-1.388.797-3.138.377-4.643-.168s-3.101-1.204-4.654-.816c.253 1.98 2.294 2.7 3.645 3.909 1.325 1.184 2.683 2.522 4.486 2.899z" fill="#ea7894"/><path d="m157.307 91.24c-.283.286-.57.575-.909.793a2.744 2.744 0 0 1 -.958.384c-.096.019-.21.027-.279-.043-.056-.056-.061-.144-.06-.223.022-1.151.848-2.139 1.029-3.275.056-.347.057-.722.255-1.011.134-.196.343-.326.529-.474a3.026 3.026 0 0 0 1.034-1.566c.217-.795.099-1.637.147-2.46.028-.476.139-.997.519-1.285.128-.097.293-.162.45-.125.262.061.383.358.455.617.088.319.164.642.239.964l.424 1.816c.138.59.426 1.29.443 1.893.011.422-.479.872-.735 1.193-.368.461-.76.904-1.162 1.337-.463.497-.942.981-1.421 1.465z" fill="#020000"/><path d="m159.964 82.287c.322 1.407.544 2.837.664 4.275.035.425.032.922-.302 1.188-.033.026-.074.051-.115.041-.033-.008-.057-.036-.078-.063-.295-.396-.284-.932-.31-1.425-.063-1.191-.415-2.345-.766-3.484-.026.899.289 1.772.397 2.665.057.469.056.943.055 1.416 0 .168-.002.343-.075.494-.126.261-.426.382-.705.462a6.874 6.874 0 0 1 -2.483.244l.174-1.014c.094-.547.189-1.1.166-1.655-.022-.542-.155-1.073-.269-1.604-.262-1.222-.426-2.474-.346-3.721.052-.815.273-1.72.971-2.143.705-.427 1.726-.129 2.146.58.128.216.206.457.283.697.162.504.383 1.014.407 1.547.022.494.186 1.019.186 1.5zm-39.312 13.188c-.081.236.363 8.465 0 11.258s-.435 4.063 0 7.364c.436 3.301.686 19.046.161 20.654-.524 1.608.461 1.608.295 2.54-.166.931-.884 2.221.019 2.253.904.032 3.807-.625 5.041 0s2.613.729 2.323 0c0 0 1.452.392 2.178.509.726.116.508-.509.508-.509s1.452.391 1.597 0-1.742-1.237-1.742-1.237-1.815.085-3.339-.677-3.92-.677-4.428-2.032c-.508-1.354-.944-3.047-.944-5.925s-.072-13.544.363-15.491c.436-1.947.436-3.725.145-6.01-.29-2.285.581-12.697.581-12.697s-1.161-4.656-2.758 0z" fill="#fcdfb6"/><path d="m112.467 88.544-16.849 2.197c-.532.069-1.114.164-1.466.569s-.158 1.013.313 1.271c8.158 4.47 16.428 8.718 24.707 13.019.403.209.835.449 1.018.864.085.193.107.408.124.619.236 2.992-.606 6.307-3.052 8.046l.797-1.794a1.986 1.986 0 0 1 -1.372.872c.077-.505.223-.999.432-1.466-.238.271-.536.49-.867.635-.377-1.135.19-2.339.645-3.445.454-1.106.768-2.487.006-3.408-.251-.304-.593-.517-.928-.723-7.13-4.371-14.673-8.024-22.264-11.533-.66-.305-1.332-.617-1.875-1.102-.542-.485-.946-1.179-.906-1.906s.627-1.436 1.355-1.45c5.457-.105 11.043-1.733 16.462-2.382 1.352-.162 2.913-.25 3.874.716.091.092.181.219.138.341-.044.122-.321.187-.292.06z" fill="#fcdfb6"/><path d="m129.359 93.1c2.542.911 4.751 2.544 7.148 3.788 2.396 1.244 5.201 2.108 7.784 1.321 2.907-.885 4.903-3.778 5.351-6.783.447-3.006-.438-6.075-1.808-8.787-.343-.678-.719-1.348-.924-2.08-.265-.943.186-1.939.012-2.903-.217-1.198 1.102-2.256 2.315-2.15s2.209 1.025 2.877 2.043 1.109 2.175 1.808 3.172a7.37 7.37 0 0 0 2.143 2.027l1.148-2.788c.203-.493.455-1.036.953-1.227s1.461.414 1.203.881c.043.147.269.05.359-.075.64-.891.61-2.137.16-3.137s-1.26-1.792-2.113-2.481c-.718-.58-1.486-1.108-2.33-1.481-1.973-.871-4.372-1.217-6.485-.786-1.819.371-3.496 1.407-4.642 2.867s-1.384 3.269-1.606 5.112c-.173 1.437.278 2.879.873 4.199.594 1.32 1.337 2.577 1.803 3.948s.634 2.914.063 4.245-2.032 2.34-3.449 2.045c-1.173-.244-2.035-1.281-2.497-2.387a6.663 6.663 0 0 1 -.474-3.258c.339-3.176.58-6.491-.467-9.509-1.086-3.13-3.531-5.643-6.322-7.427-2.792-1.783-5.94-2.918-9.06-4.031-2.009-.716-4.084-1.44-6.214-1.329a11.183 11.183 0 0 1 2.16 1.799l-6.296 1.272c-.146.029-.301.064-.404.172-.178.186-.104.513.085.689.189.175.453.238.704.294l-4.68 1.836c-2.229.874-4.603 1.864-5.894 3.881l2.513-.668-2.191 2.935c-3.465.665-6.39 3.127-9.054 5.441l-7.491 6.504 7.653-4.745c-2.26 2.065-4.561 4.18-6.044 6.859 2.009-2.059 4.396-3.9 7.202-4.533 1.121-.253 2.276-.305 3.424-.356 3.735-.167 7.806-.236 10.8 2.004a1.498 1.498 0 0 0 -.513.573 33.47 33.47 0 0 0 9.833 2.56 6.99 6.99 0 0 1 .557 2.116 2.19 2.19 0 0 0 .898-.52l1.12 2.351a15.34 15.34 0 0 0 2.366-1.336l-.305 1.029c1.509-1.887 3.674-4.002 5.948-3.186z" fill="#ea7894"/><path d="m158.048 78.98c.071-.173.311-.224.48-.144s.275.252.344.426c.053.133.09.283.046.42-.057.177-.237.29-.42.328-.357.075-.78-.14-.846-.499s.362-.73.679-.55" fill="#0e0118"/><path d="m114.876 91.066c.198-.306.54-.481.866-.643a8.431 8.431 0 0 1 -4.315.673 1.754 1.754 0 0 1 1.107-1.709 4.585 4.585 0 0 1 -2.33.392c-.49-.047-1.089-.321-1.052-.812.015-.197.136-.368.256-.525a12.72 12.72 0 0 1 1.926-2.01c-.831-.013-1.734-.051-2.373-.584-.241-.201-.427-.461-.657-.675-.753-.703-1.879-.835-2.905-.747-1.026.089-2.04.362-3.069.326a5.17 5.17 0 0 1 -2.205-.58c-.335-.174-.686-.393-1.059-.338-.706.105-.902 1.025-1.405 1.532-.331.334-.802.482-1.252.619l-5.375 1.629c3.457-.146 6.917-.223 10.377-.23.634-.001 1.39.067 1.698.622a3.07 3.07 0 0 0 -1.32.916l6.051 1.508c-.41.617-.283 1.532.28 2.013.866.741 2.182.325 3.314.464l-.274 1.022a8.238 8.238 0 0 0 5.985.314 3.291 3.291 0 0 0 -.773 1.173c.599.389 1.396.143 2.044-.158 0-.116 2.337-1.349 2.588-1.533.823-.604 1.713-1.309 2.316-2.133-1.444-.095-2.939.066-4.378.238-.668.083-5.136.893-4.066-.764z" fill="#a84e6c"/><path d="m116.881 78.718c-.951 2.008-2.979 3.466-5.186 3.727a4.467 4.467 0 0 1 1.258-2.863 9.302 9.302 0 0 1 -5.025 2.817 6.927 6.927 0 0 1 1.261-3.184 6.186 6.186 0 0 1 -4.121 2.743 9.359 9.359 0 0 1 1.58-4.193 7.438 7.438 0 0 1 -4.497 4.172 6.266 6.266 0 0 1 1.515-3.828 10.598 10.598 0 0 1 -3.738 3.96c-1.353.835-3.085 1.615-3.309 3.188a40.523 40.523 0 0 0 4.216-2.056 4.748 4.748 0 0 0 -1.596 3.147 13.377 13.377 0 0 0 4.663-2.402 10.429 10.429 0 0 0 -1.186 2.367c-.052.148-.1.314-.034.456.121.263.501.237.778.154a9.073 9.073 0 0 0 4.653-3.257 5.023 5.023 0 0 0 -1.414 3.03c2.085-.3 4.135-.839 6.097-1.603a4.856 4.856 0 0 0 -2.982 1.844c3.77-.428 6.818-3.033 9.564-5.435-.841.323-2.552 1.632-3.54 1.202-1.419-.619.557-3.091 1.043-3.986z" fill="#c65878"/><path d="m393.426 185.206c-.283.286-.57.575-.909.793a2.744 2.744 0 0 1 -.958.384c-.096.019-.21.027-.279-.043-.056-.056-.061-.144-.06-.223.022-1.151.848-2.139 1.029-3.275.056-.347.057-.722.255-1.011.134-.196.343-.326.529-.474a3.026 3.026 0 0 0 1.034-1.566c.217-.795.099-1.637.147-2.46.028-.476.139-.997.519-1.285.128-.097.293-.162.45-.125.262.061.383.358.455.617.088.319.164.642.239.964l.424 1.816c.138.59.426 1.29.443 1.893.011.422-.479.872-.735 1.193-.368.461-.76.904-1.162 1.337-.463.497-.942.981-1.421 1.465z" fill="#020000"/><path d="m396.083 176.254c.322 1.407.544 2.837.664 4.275.035.425.032.922-.302 1.188-.033.026-.074.051-.115.041-.033-.008-.057-.036-.078-.063-.295-.396-.284-.932-.31-1.425-.063-1.191-.415-2.345-.766-3.484-.026.899.289 1.771.397 2.665.057.469.056.943.055 1.416 0 .168-.002.343-.075.494-.126.261-.426.382-.705.462a6.874 6.874 0 0 1 -2.483.244l.174-1.014c.094-.547.189-1.1.166-1.655-.022-.542-.155-1.073-.269-1.604-.262-1.222-.426-2.474-.346-3.721.052-.815.273-1.72.971-2.143.705-.427 1.726-.129 2.146.58.128.216.206.457.283.697.162.504.383 1.014.407 1.547.022.493.186 1.019.186 1.5zm-39.312 13.187c-.081.236.363 8.465 0 11.258s-.435 4.063 0 7.364c.436 3.301.686 19.046.161 20.654-.524 1.608.461 1.608.295 2.54s-.884 2.221.019 2.253c.904.032 3.807-.625 5.041 0s2.613.729 2.323 0c0 0 1.452.392 2.178.509.726.116.508-.509.508-.509s1.452.391 1.597 0-1.742-1.237-1.742-1.237-1.815.085-3.339-.677-3.92-.677-4.428-2.032c-.508-1.354-.944-3.047-.944-5.925s-.072-13.544.363-15.491.435-3.725.145-6.01.581-12.697.581-12.697-1.161-4.656-2.758 0z" fill="#fcdfb6"/><path d="m348.586 182.511-16.849 2.197c-.532.069-1.114.164-1.466.569s-.158 1.013.313 1.271c8.158 4.47 16.428 8.718 24.707 13.019.403.209.835.449 1.018.864.085.193.107.408.124.619.236 2.992-.606 6.307-3.052 8.046l.797-1.794a1.986 1.986 0 0 1 -1.372.872c.077-.505.223-.999.432-1.466-.238.271-.536.49-.867.635-.377-1.135.19-2.339.645-3.445.454-1.106.768-2.487.006-3.408-.251-.304-.593-.517-.928-.723-7.13-4.371-14.673-8.024-22.264-11.533-.66-.305-1.332-.617-1.875-1.102-.542-.485-.946-1.179-.906-1.906s.627-1.436 1.355-1.45c5.457-.105 11.043-1.733 16.462-2.382 1.352-.162 2.913-.25 3.874.716.091.092.181.219.138.341-.044.122-.321.186-.292.06z" fill="#fcdfb6"/><path d="m365.478 187.066c2.542.911 4.751 2.544 7.148 3.788 2.396 1.244 5.201 2.108 7.784 1.321 2.907-.885 4.903-3.778 5.351-6.783.447-3.006-.438-6.075-1.808-8.787-.343-.678-.719-1.348-.924-2.08-.265-.943.186-1.939.012-2.903-.217-1.198 1.102-2.257 2.315-2.15 1.213.106 2.209 1.025 2.877 2.043s1.109 2.175 1.808 3.172a7.37 7.37 0 0 0 2.143 2.027l1.148-2.788c.203-.493.455-1.036.953-1.227s1.461.414 1.203.881c.043.147.269.05.359-.075.64-.891.61-2.137.16-3.137s-1.26-1.792-2.113-2.481c-.718-.58-1.486-1.108-2.33-1.481-1.973-.871-4.372-1.217-6.485-.786a7.991 7.991 0 0 0 -4.642 2.867c-1.146 1.461-1.384 3.269-1.606 5.112-.173 1.437.278 2.879.872 4.199s1.337 2.577 1.803 3.948.634 2.914.063 4.245-2.032 2.34-3.449 2.045c-1.173-.244-2.035-1.281-2.497-2.387a6.663 6.663 0 0 1 -.474-3.258c.339-3.176.58-6.491-.467-9.509-1.086-3.13-3.531-5.643-6.322-7.427s-5.94-2.918-9.06-4.031c-2.009-.716-4.084-1.44-6.214-1.329a11.183 11.183 0 0 1 2.16 1.799l-6.296 1.272c-.146.029-.301.064-.404.172-.178.186-.104.513.085.689.189.175.453.238.704.294l-4.68 1.836c-2.229.874-4.603 1.864-5.894 3.881l2.513-.668-2.191 2.935c-3.465.665-6.39 3.127-9.054 5.441l-7.491 6.504 7.653-4.745c-2.26 2.065-4.561 4.18-6.044 6.859 2.009-2.059 4.396-3.9 7.202-4.533 1.121-.253 2.276-.305 3.424-.356 3.735-.167 7.806-.236 10.8 2.004a1.498 1.498 0 0 0 -.513.573 33.47 33.47 0 0 0 9.833 2.56 6.99 6.99 0 0 1 .557 2.116 2.19 2.19 0 0 0 .898-.52l1.12 2.351a15.34 15.34 0 0 0 2.366-1.336l-.305 1.029c1.51-1.887 3.674-4.002 5.949-3.186z" fill="#ea7894"/><path d="m394.167 172.947c.071-.173.311-.224.48-.144s.275.252.344.426c.053.133.09.283.046.42-.057.177-.237.29-.42.328-.357.075-.78-.14-.846-.499s.362-.73.679-.55" fill="#0e0118"/><path d="m350.995 185.032c.198-.306.54-.481.866-.643a8.431 8.431 0 0 1 -4.315.673 1.754 1.754 0 0 1 1.107-1.709 4.585 4.585 0 0 1 -2.33.392c-.49-.047-1.089-.321-1.052-.812.015-.197.136-.368.256-.525a12.72 12.72 0 0 1 1.926-2.01c-.831-.013-1.734-.051-2.373-.584-.241-.201-.427-.461-.657-.675-.753-.703-1.879-.835-2.905-.747-1.026.089-2.04.362-3.069.326a5.17 5.17 0 0 1 -2.205-.58c-.335-.174-.686-.393-1.059-.338-.706.105-.902 1.025-1.405 1.532-.331.334-.802.482-1.252.619l-5.375 1.629c3.457-.146 6.917-.223 10.377-.23.634-.001 1.39.067 1.698.622a3.07 3.07 0 0 0 -1.32.916l6.051 1.508c-.41.617-.283 1.532.28 2.013.866.741 2.182.325 3.314.464l-.274 1.022a8.238 8.238 0 0 0 5.985.314 3.291 3.291 0 0 0 -.773 1.173c.599.389 1.396.143 2.044-.158 0-.116 2.337-1.349 2.587-1.533.823-.604 1.713-1.309 2.316-2.133-1.444-.095-2.939.066-4.378.238-.667.083-5.136.894-4.065-.764z" fill="#a84e6c"/><path d="m353 172.684c-.951 2.008-2.979 3.466-5.186 3.727a4.467 4.467 0 0 1 1.258-2.863 9.302 9.302 0 0 1 -5.025 2.817 6.927 6.927 0 0 1 1.261-3.184 6.186 6.186 0 0 1 -4.121 2.743 9.349 9.349 0 0 1 1.581-4.193 7.438 7.438 0 0 1 -4.497 4.172 6.266 6.266 0 0 1 1.515-3.828 10.598 10.598 0 0 1 -3.738 3.96c-1.353.835-3.085 1.615-3.309 3.188a40.523 40.523 0 0 0 4.216-2.056 4.748 4.748 0 0 0 -1.596 3.147 13.377 13.377 0 0 0 4.663-2.402 10.429 10.429 0 0 0 -1.186 2.367c-.052.148-.1.314-.034.456.121.263.501.237.778.154a9.073 9.073 0 0 0 4.653-3.257 5.023 5.023 0 0 0 -1.414 3.03c2.085-.3 4.134-.839 6.097-1.603a4.856 4.856 0 0 0 -2.982 1.844c3.77-.428 6.818-3.033 9.564-5.435-.841.323-2.552 1.632-3.54 1.202-1.42-.618.556-3.091 1.042-3.986z" fill="#c65878"/><path d="m155.947 203.995c.283.286.57.575.909.793.291.187.618.318.958.384.096.019.21.027.279-.043.056-.056.061-.144.06-.223-.022-1.151-.847-2.139-1.029-3.275-.055-.347-.057-.722-.255-1.011-.134-.196-.343-.326-.529-.474a3.026 3.026 0 0 1 -1.034-1.566c-.217-.795-.099-1.637-.147-2.46-.027-.476-.139-.997-.519-1.285-.128-.097-.293-.162-.45-.125-.262.061-.383.358-.455.617-.089.319-.164.642-.239.964l-.424 1.816c-.138.59-.426 1.29-.442 1.893-.011.422.479.872.735 1.193.368.462.76.904 1.162 1.337.462.498.941.982 1.42 1.465z" fill="#020000"/><path d="m153.291 195.043a30.566 30.566 0 0 0 -.664 4.275c-.035.425-.032.922.302 1.188.033.026.074.05.115.041.033-.008.057-.036.078-.063.296-.396.284-.932.31-1.425.063-1.191.416-2.345.766-3.484.026.899-.289 1.771-.397 2.665-.056.469-.056.943-.055 1.416 0 .168.002.343.075.494.126.261.427.382.705.462.804.232 1.65.315 2.483.244l-.174-1.014c-.094-.547-.189-1.1-.166-1.655.022-.542.155-1.073.269-1.604.263-1.222.426-2.474.346-3.721-.052-.815-.273-1.72-.971-2.143-.705-.427-1.726-.129-2.146.58-.128.216-.206.457-.283.697-.162.504-.383 1.014-.407 1.547-.022.494-.186 1.019-.186 1.5zm39.311 13.188c.081.236-.363 8.465 0 11.258s.436 4.063 0 7.364-.686 19.046-.161 20.654c.524 1.608-.461 1.608-.295 2.539s.884 2.221-.019 2.253c-.904.032-3.807-.625-5.041 0s-2.613.729-2.323 0c0 0-1.452.392-2.178.509-.726.116-.508-.509-.508-.509s-1.452.391-1.597 0 1.742-1.237 1.742-1.237 1.815.085 3.339-.677 3.92-.677 4.428-2.032c.508-1.354.944-3.047.944-5.925s.072-13.544-.363-15.491c-.436-1.947-.436-3.725-.145-6.01.29-2.286-.581-12.697-.581-12.697s1.161-4.655 2.758.001z" fill="#fcdfb6"/><path d="m200.787 201.3 16.849 2.197c.532.069 1.114.164 1.465.569.352.405.158 1.013-.313 1.271-8.158 4.47-16.428 8.718-24.707 13.019-.403.209-.835.449-1.018.864-.085.193-.107.408-.124.619-.236 2.992.606 6.307 3.052 8.046l-.797-1.794c.305.469.819.795 1.372.872a5.694 5.694 0 0 0 -.432-1.466c.238.271.536.49.867.635.377-1.135-.19-2.339-.645-3.445-.454-1.106-.768-2.487-.006-3.409.251-.304.592-.517.928-.723 7.129-4.371 14.673-8.024 22.264-11.533.66-.305 1.332-.617 1.875-1.102.542-.485.946-1.179.906-1.906s-.627-1.436-1.355-1.45c-5.457-.105-11.043-1.733-16.462-2.382-1.352-.162-2.913-.25-3.874.716-.091.092-.181.219-.138.341.045.123.322.187.293.061z" fill="#fcdfb6"/><path d="m183.895 205.856c-2.542.911-4.751 2.544-7.148 3.788-2.396 1.244-5.201 2.108-7.783 1.321-2.907-.885-4.903-3.778-5.351-6.783-.447-3.006.438-6.075 1.808-8.788.343-.678.719-1.348.924-2.08.265-.943-.186-1.939-.012-2.903.216-1.198-1.102-2.257-2.315-2.15-1.213.106-2.209 1.025-2.877 2.043s-1.109 2.175-1.808 3.172a7.37 7.37 0 0 1 -2.143 2.027l-1.149-2.788c-.203-.493-.455-1.036-.953-1.227s-1.461.414-1.203.881c-.043.147-.269.05-.359-.075-.64-.891-.61-2.137-.16-3.137s1.26-1.792 2.113-2.481c.718-.58 1.486-1.108 2.33-1.481 1.973-.871 4.373-1.217 6.485-.786a7.991 7.991 0 0 1 4.642 2.867c1.146 1.461 1.384 3.269 1.606 5.112.173 1.437-.278 2.879-.872 4.199s-1.337 2.577-1.803 3.948-.634 2.914-.064 4.245c.571 1.331 2.032 2.34 3.449 2.045 1.173-.244 2.035-1.281 2.497-2.386a6.663 6.663 0 0 0 .474-3.258c-.338-3.176-.58-6.491.467-9.509 1.086-3.13 3.531-5.643 6.323-7.427 2.792-1.783 5.94-2.918 9.06-4.031 2.009-.716 4.084-1.44 6.214-1.329a11.183 11.183 0 0 0 -2.16 1.799l6.296 1.272c.146.029.302.064.404.172.178.186.104.513-.085.689-.189.175-.453.238-.704.294l4.68 1.836c2.229.874 4.603 1.864 5.894 3.881l-2.513-.668 2.191 2.935c3.465.665 6.39 3.127 9.054 5.441l7.491 6.504-7.653-4.745c2.26 2.065 4.561 4.18 6.044 6.859-2.009-2.059-4.396-3.9-7.202-4.533-1.121-.253-2.276-.305-3.424-.356-3.735-.167-7.806-.236-10.8 2.004.217.142.396.342.513.574a33.461 33.461 0 0 1 -9.833 2.56 6.962 6.962 0 0 0 -.557 2.116 2.19 2.19 0 0 1 -.898-.52l-1.12 2.351a15.34 15.34 0 0 1 -2.366-1.336l.305 1.029c-1.51-1.888-3.674-4.003-5.949-3.187z" fill="#ea7894"/><path d="m155.206 191.736c-.071-.173-.311-.224-.48-.144s-.275.252-.344.426c-.053.134-.09.283-.046.42.057.177.237.29.42.328.357.074.78-.14.846-.499s-.362-.73-.679-.55" fill="#0e0118"/><path d="m198.378 203.822c-.198-.306-.54-.481-.866-.643a8.433 8.433 0 0 0 4.316.673 1.754 1.754 0 0 0 -1.107-1.709 4.585 4.585 0 0 0 2.33.392c.49-.047 1.089-.321 1.052-.812-.015-.197-.136-.368-.256-.525a12.72 12.72 0 0 0 -1.926-2.01c.831-.013 1.734-.051 2.373-.584.241-.201.427-.461.657-.675.753-.703 1.878-.835 2.905-.747 1.026.089 2.04.362 3.07.326a5.17 5.17 0 0 0 2.205-.58c.335-.174.686-.393 1.059-.338.706.105.902 1.026 1.405 1.532.331.334.802.482 1.252.619l5.374 1.629a258.323 258.323 0 0 0 -10.377-.23c-.634-.001-1.391.067-1.698.622a3.07 3.07 0 0 1 1.32.916l-6.051 1.508c.41.617.283 1.532-.28 2.013-.866.741-2.182.325-3.313.464l.274 1.022a8.237 8.237 0 0 1 -5.985.314c.338.329.604.733.773 1.173-.599.389-1.396.143-2.044-.158 0-.116-2.337-1.349-2.588-1.533-.822-.604-1.713-1.309-2.316-2.133 1.444-.095 2.939.066 4.378.238.666.083 5.135.893 4.064-.764z" fill="#a84e6c"/><path d="m196.374 191.474c.951 2.008 2.979 3.466 5.186 3.727a4.467 4.467 0 0 0 -1.258-2.863 9.306 9.306 0 0 0 5.025 2.817 6.927 6.927 0 0 0 -1.261-3.184 6.186 6.186 0 0 0 4.121 2.743 9.349 9.349 0 0 0 -1.581-4.193 7.441 7.441 0 0 0 4.497 4.172 6.266 6.266 0 0 0 -1.515-3.828 10.598 10.598 0 0 0 3.738 3.96c1.353.835 3.085 1.615 3.309 3.188a40.523 40.523 0 0 1 -4.216-2.056 4.748 4.748 0 0 1 1.596 3.147 13.377 13.377 0 0 1 -4.663-2.402c.494.734.893 1.532 1.186 2.367.052.148.1.314.034.456-.121.263-.501.236-.778.154a9.07 9.07 0 0 1 -4.653-3.257 5.023 5.023 0 0 1 1.414 3.03 27.702 27.702 0 0 1 -6.097-1.603 4.856 4.856 0 0 1 2.982 1.844c-3.77-.429-6.818-3.033-9.564-5.435.841.323 2.552 1.632 3.54 1.202 1.419-.619-.557-3.091-1.042-3.986z" fill="#c65878"/><path d="m282.787 238.159s6.839-10.601 15.351-19.849c8.512-9.249 13.445-10.134 17.903-5.402 4.871 5.17 1.975 10.256-.666 12.737-2.784 2.615-8.201 7.147-13.675 10.618s-12.938 8.256-12.938 8.256-4.813-3.692-5.975-6.36z" fill="#66c6ab"/><g fill="none" stroke="#fff" stroke-miterlimit="10" stroke-width=".353"><path d="m284.356 239.276c.119-.009-.019.21-.1.119-.082-.091-.015-.229.053-.325a170.348 170.348 0 0 1 15.656-18.999c1.267-1.328 2.558-2.639 3.992-3.786a23.542 23.542 0 0 1 8.382-4.282c1.011-.281 2.226-.452 3.036.26"/><path d="m285.348 240.957c5.911-8.716 13.995-15.655 21.985-22.49 2.606-2.23 5.235-4.475 8.255-6.117m.371.394c-.334 2.659-2.122 4.827-3.866 6.813-5.778 6.579-11.918 12.927-19.137 17.89-.773.532-1.558 1.047-2.342 1.562l-4.233 2.779"/><path d="m287.472 243.054c3.884-3.006 7.142-5.522 10.883-8.096 1.112-.765 2.185-1.585 3.252-2.411 3.986-3.083 7.919-6.261 11.385-9.917 1.188-1.253 2.335-2.584 3.053-4.163.718-1.58.97-3.454.337-5.117"/></g><path d="m314.499 210.611c.387-.009.782.171 1.035.474-.424-.835-.323-1.895.247-2.6l.503 1.298a2.96 2.96 0 0 1 2.111-1.849 21.225 21.225 0 0 0 -.652 1.698 5.08 5.08 0 0 1 2.523-1.084 6.279 6.279 0 0 1 -1.539 2.379 5.949 5.949 0 0 0 2.281-.686c.038.658-.36 1.268-.889 1.639s-1.175.541-1.814.672l2.105.182c-.129.533-.641.896-1.179 1.001-.538.104-1.102-.006-1.641-.146l.668.867c.047.061.065.184-.01.176-.815-.083-1.64-.968-2.081-1.591-.582-.822-1.275-1.48-1.668-2.43z" fill="#ea7894"/><path d="m307.498 211.567a5.229 5.229 0 0 1 -.021 2.262m-7.509 3.704c.477.235.906.574 1.247.986m13.105 1.526 1.908.227m-3.595 2.925 1.565.815m-6.014-1.812c.21.685.279 1.409.201 2.111m-2.625 3.908c.628.446 1.46.58 2.173.348m-6.014-.681a5.4 5.4 0 0 1 .214 2.463m-1.404 3.157 1.183.281m-7.784.873c.4.52.524 1.236.321 1.841m-1.694 2.761a3.317 3.317 0 0 1 1.838-.196m1.608-16.898c.137.6.183 1.217.137 1.824m2.639 1.761 2.632-.884m4.822-7.635c-.033-.077.088-.138.158-.092s.089.138.103.22l.267 1.639m-15.768 10.914a4.744 4.744 0 0 0 1.719-.754m-3.965 5.892.125-.43a4.649 4.649 0 0 1 -.075 1.787m21.68-20.855 1.905-.173" fill="none" stroke="#fff" stroke-miterlimit="10" stroke-width=".476"/><path d="m281.09 253.261s-9.633-14.928-15.104-31.178-1.249-23.024 11.706-25.879c14.154-3.119 19.221 3.555 20.277 8.368 1.113 5.073 2.357 14.615 1.785 23.602-.573 8.987-1.27 21.273-1.27 21.273s-11.648 3.917-17.394 3.814z" fill="#66c6ab"/><g fill="none" stroke="#fff" stroke-miterlimit="10" stroke-width=".353"><path d="m284.743 251.933c.123-.156.325.147.082.198-.244.05-.396-.116-.476-.259-5.596-9.986-10.06-20.374-13.348-31.063-.735-2.39-1.413-4.801-1.655-7.295-.417-4.279.467-8.775 2.584-13.151.7-1.447 1.818-3.088 3.928-3.694"/><path d="m288.664 251.669c-7.589-12.639-9.738-26.982-11.823-41.144-.68-4.619-1.36-9.278-.594-14.074m1.079-.239c4.009 1.994 5.53 5.54 6.801 8.924 4.211 11.209 7.622 22.739 7.505 34.819-.013 1.294-.066 2.592-.119 3.891l-.286 7.006"/><path d="m294.575 250.215c-.492-6.697-.892-12.313-.835-18.574.017-1.861-.102-3.705-.236-5.545-.5-6.872-1.219-13.733-3.264-20.286-.701-2.246-1.578-4.485-3.36-6.328s-4.588-3.269-8.065-3.449"/></g><path d="m272.12 196.802c.431-.496 1.183-.89 1.976-1.032-1.867.044-3.502-.71-4.011-1.849l2.724.129c-1.135-.969-1.376-2.427-.623-3.768.64.634 1.326 1.244 2.054 1.829-.137-1.251.253-2.592 1.116-3.838 1.112.944 1.855 2.099 2.156 3.356.802-1.058 1.313-2.185 1.494-3.296 1.131.341 1.68 1.205 1.683 2.095.004.89-.46 1.809-.981 2.696l2.726-2.561c.733.478.743 1.341.294 2.085s-1.279 1.392-2.131 1.993l2.201-.334c.154-.023.378.027.279.117-1.076.984-3.488 1.507-5.027 1.698-2.022.253-3.908.742-5.93.68z" fill="#ea7894"/><path d="m265.632 206.239c1.42.242 2.698.711 3.713 1.363m-2.534 11.704a11.416 11.416 0 0 1 3.065-.998m17.623-15.707 2.574-2.284m.692 6.283 3.15-1.502m-9.925 6.551c1.374.138 2.649.478 3.719.992m3.432 5.636c1.461-.532 2.641-1.508 3.08-2.548m-8.057 7.219c1.616.139 3.107.548 4.316 1.184m3.598 3.643 1.828-1.332m-7.529 10.379c1.32-.199 2.646.066 3.412.681m2.61 3.777c.267-.865.897-1.723 1.794-2.445m-26.066-12.018c1.149.181 2.222.486 3.172.903m5.952-2.304 1.573-3.858m-7.059-10.62c-.165-.004-.126-.194.031-.254.157-.061.331-.031.482 0l3.015.63m-.139 26.427c.49-.863.741-1.76.735-2.624m5.165 8.505-.566-.412c1.091.238 2.071.631 2.866 1.151m-9.473-39.793 1.91-2.516" fill="none" stroke="#fff" stroke-miterlimit="10" stroke-width=".476"/></svg>