<svg xmlns="http://www.w3.org/2000/svg" viewBox="0 0 567 269"><defs><style>.a{fill:#f9b7b7;}.b{fill:#fcd4d4;}.c{fill:#ffebe3;}.ab,.ah,.am,.ap,.ba,.d,.n,.q,.s,.t{fill:none;}.d{stroke:#edaca9;}.ab,.ah,.am,.ap,.ba,.d,.q,.s,.t{stroke-miterlimit:10;}.d,.q,.s{stroke-width:0.21px;}.e{fill:#edaca9;}.f{fill:#d29890;}.g{fill:#ffbdbd;}.h{fill:#efa3a3;}.i{opacity:0.6;}.j{fill:#c47d7e;}.k{fill:#ffdcdc;opacity:0.78;}.l{fill:#a0a02d;}.m{fill:#aa9100;}.o{fill:#bcaf37;}.p{fill:#8c8517;}.q{stroke:#ffd0cc;}.r{fill:#ffd0cc;}.s{stroke:#aa9100;}.t{stroke:#d1be37;stroke-width:0.5px;}.u{fill:#d1be37;}.v{fill:#ffce33;}.w{fill:#faeae4;}.x{fill:#ff988d;}.y{fill:#fff;}.z{fill:#fbefdb;}.aa{fill:#ff9f9f;}.ab,.ba{stroke:#dba490;}.ab{stroke-width:0.11px;}.ac{fill:#f2b09e;}.ad{fill:#f2dec2;}.ae{fill:#d9d4a3;}.af{fill:#baba38;}.ag{fill:#ffe5a4;}.ah{stroke:#f2958e;}.ah,.ap{stroke-width:0.25px;}.ai{fill:#8c8017;}.aj{opacity:0.5;}.ak{fill:#d8c764;}.al{fill:#ffb1a4;}.am{stroke:#e4cdad;stroke-width:0.18px;}.an{fill:#e4cdad;}.ao{fill:#ffa89f;}.ap{stroke:#ff988d;}.aq{fill:#aa9e2d;}.ar{fill:#ca5b59;}.as{fill:#ffe4d7;}.at{fill:#f9ada5;}.au{opacity:0.57;}.av{fill:#f7c2b5;}.aw{fill:#f4d0c1;opacity:0.45;}.ax{fill:#f9cccc;opacity:0.3;}.ay{fill:#fce5e6;}.az{fill:#f4c5b0;opacity:0.48;}.ba{stroke-width:0.09px;}.bb{fill:#db8f35;}.bc{fill:#d17a1c;}.bd{fill:#e08d68;opacity:0.08;}.be{fill:#dd7e68;opacity:0.13;}.bf{fill:#ddb1a6;}.bg{fill:#1d1d1b;}.bh{fill:#fca9a7;}.bi{fill:#e2cf7c;}.bj{fill:#db8f33;}</style></defs><title>danseuse</title><path class="a" d="M453.5,257.77c-9.58,1.47-19.89-2.26-28-7.53a28.14,28.14,0,0,1,14.67.37c2,.55,7.12,1.92,8.86,3.1A26.8,26.8,0,0,1,453.5,257.77Z"/><path class="a" d="M520.67,259.74c-1.17,1.62-3.35,2.34-5.4,2.87a81,81,0,0,1-24.82,2.5,13.53,13.53,0,0,1,8.08-7.69,31.76,31.76,0,0,1,11.28-1.54,13.33,13.33,0,0,1,6.18,1.05,25,25,0,0,1,2.24,1.43A14,14,0,0,0,520.67,259.74Z"/><path class="b" d="M476.39,193.72a95,95,0,0,0-.71,11.65c-.32,20.49-1.31,41,14.77,59.74l.68-.63c4.26-3.21,8.23-6.3,13.55-6.73s10.83.66,16,2l.39-.47c6.46-11.92,5.14-31.43,3.53-46.54-1.48-13.92-10.17-30.65-11.54-44.65-.68-7,.12-12.76-.28-19.8s-.83-11.69-5.26-17.17-12.34-8.61-18.8-5.8"/><path class="b" d="M453.29,257.79a14.21,14.21,0,0,0-4.61-3.07c-7-3.33-15.52-6.26-23.08-4.43l-.07.07c-.77-8.6-1.74-17.61-2.51-26.21-.74-8.14-1.47-16.43.3-24.41a118.46,118.46,0,0,1,6.2-18.94c2.82-6.94,7.56-13,10.4-19.94s4.6-14.68,6.7-21.69c3.87-12.87,9.82-25.1,23.12-22.6,4.31.81,8.36,3,12.67,3.77t0,0a2.36,2.36,0,0,0,.52.21c4.32,1.22,6.2,4.31,7.17,8.63a21.4,21.4,0,0,1-.88,12.14c-2.66,7.1-5.15,12.14-6.31,19.81-1.34,8.77-3.24,18.14-5,26.85-1.24,6.07-3.79,11.78-5.79,17.65-6,17.59-7.45,37.38-18.71,52.18"/><path class="c" d="M479,138.61a2.45,2.45,0,0,0-.18-1.18,9.1,9.1,0,0,0-2.08-3.33,5,5,0,0,0-5.11-1.11c-3.51,1.06-6.6,4.35-8.6,7.32a65.3,65.3,0,0,0-9.88,23.91c-.83,4.23-1.3,8.62-3.28,12.45-2.09,4.05-5.68,7.08-8.53,10.65-3.25,4.08-6,10.14-2.27,14.83.48.6,5.28-.26,6.09-.38a16.62,16.62,0,0,0,6.15-2.65c3.56-2.33,6.69-6.13,9.13-9.6,2.56-3.64,2.5-3.78,5.14-8.72.79-1.47.83-4.25.94-5.93s-.45-5.06,0-6.74c1.09-4,1.08-8.63,2.65-12.5a72,72,0,0,1,7.92-13.92C477.92,140.55,478.91,139.74,479,138.61Z"/><path class="c" d="M485.15,153.93c-2.27,13.17-6.68,24.72-4.85,38.29.54,4,1.48,8.9,3.95,12.07,1.83,2.35,5.08,3.15,7.7,4.55,4.36,2.33,10.66,3.59,14.12-.92,2.3-3,2.86-11.71,2.55-15.38-.41-5.11-3-12.31-3.54-19.06-.43-5,1-10.33.17-15.25s-3.26-9.81-7.32-11.86-12.1,0-12.78,7.56"/><path class="d" d="M479.76,125.27a17.81,17.81,0,0,0-7.72-5.19c-3.47-1.24-7.84-1.91-11.11.22a12.2,12.2,0,0,0-4,5.13,95.62,95.62,0,0,0-8.4,24.14,43.7,43.7,0,0,1-1.9,7.55,38,38,0,0,1-2.93,5.52c-4.62,7.62-10.45,14.67-14,22.84-2.4,5.5-.49,12.43,4.74,15.24s11.9,1.64,16.89-1.6a38.07,38.07,0,0,0,11.76-12.85A25.24,25.24,0,0,0,466,179a33.26,33.26,0,0,0,.42-6.47,53.12,53.12,0,0,1,9.94-29.76c2.37-3.3,5.07-6.59,5.77-10.72a8.3,8.3,0,0,0-.06-3.33A9,9,0,0,0,479.76,125.27Z"/><path class="e" d="M484.06,140.39a32.47,32.47,0,0,1-4.88,8.86l-1.16,2C468.66,117.4,479,78.54,466,46.64l-.08,0,.86-.9a.74.74,0,0,0,.19-.27l0,.06a26.49,26.49,0,0,1,9.24,17.55c.73,7,1.73,14.13,2,21.16.27,7.52.63,14.3,1.46,21.87,1.23,11.22,2.55,23.18,4.5,34.26"/><path class="e" d="M482,45.08a6.58,6.58,0,0,0,3.49-.48l-.1,0c.31,11,1.15,22.28,1.9,33.29,1.26,18.72,1.78,36.69,5,55l-.19-.22-.83.35a15.79,15.79,0,0,0-1.72-2.93,3.33,3.33,0,0,0-2.45-1.45l.25.22c-6.76-27.68-3.64-53.58-5.23-83.79"/><path class="e" d="M462.06,79.1a56.42,56.42,0,0,1-5.78-11.61v-.18c-9.36,33.81-2,76.8-10.26,109.5,3.82-6.47,7.41-13.69,8.14-20.67s1.73-14.12,2-21.16c.27-7.51.63-14.3,1.46-21.87,1.23-11.22,2.55-23.18,4.49-34.26"/><path class="e" d="M488.68,125.43a10.29,10.29,0,0,1,2.05,4.13,14.48,14.48,0,0,1,.4,4.64,12.59,12.59,0,0,1-.41,2.3l-.55,2.26c-.38,1.5-.81,3-1.31,4.47-2.11,5.82-5,11.4-5.69,17.54-.94,6.11-1.81,12.23-2.81,18.34A95.65,95.65,0,0,1,475.28,197c1-2.93,1.89-5.88,2.71-8.87a69.52,69.52,0,0,0,1.92-9l2.64-18.36c.77-6.25,3.68-11.89,5.84-17.62.54-1.44,1-2.91,1.4-4.4l.6-2.24a13.38,13.38,0,0,0,.45-2.25,13.78,13.78,0,0,0-.26-4.57A10.15,10.15,0,0,0,488.68,125.43Z"/><path class="a" d="M474.35,145.77c-4.66,6-7.2,20.52-7.2,28.57a41.79,41.79,0,0,1-2.57,13c-2.4,5.83-4.95,10.14-10.1,13.22a24.64,24.64,0,0,1-16.85,2.81c-3-.58-6-1.69-7.94-4a11,11,0,0,1-1.86-9.7,19.44,19.44,0,0,1,1.69-4.15c.67-1.28,1.72-2.49,2.3-3.8-2,4.64-4.2,10.79-1.13,15.37a10.07,10.07,0,0,0,2.68,2.8,11.1,11.1,0,0,0,4,1.61c13.45,3,26.22-10.8,28.29-23.2.55-3.32.61-6.7,1-10.05C467.17,163.24,470,149.6,474.35,145.77Z"/><path class="f" d="M490.52,128.86a12.88,12.88,0,0,1,9.23-.25,11.4,11.4,0,0,1,2.16,1,9.16,9.16,0,0,1,1.94,1.43,4,4,0,0,1,.92,2.3c.08.79.17,1.54.3,2.3.47,3.05,1.48,6,2.15,9.07a29,29,0,0,1,.68,4.65,14.23,14.23,0,0,1-.54,4.64,20.1,20.1,0,0,0-.61-9.18c-.77-3-1.78-6-2.31-9.07-.11-.78-.2-1.58-.27-2.33a3.43,3.43,0,0,0-.74-2,11.63,11.63,0,0,0-3.85-2.35A13.48,13.48,0,0,0,490.52,128.86Z"/><path class="e" d="M490.25,40.54a8.53,8.53,0,0,1,2.61-8.14l.44.75-.14-.2a75.72,75.72,0,0,0,4.25,29.51c2,5.73,4.24,22.65,5,28.67,4.21,32.6,5.44,47.06,10.21,76.23.57,3.49.33,6.61.33,10.16,0,4.79-.61,15-3.6,20.95l-.39-2.78a38.14,38.14,0,0,1-1.65-9.56c-.32-4.39.76-8.77.76-13.17"/><path class="a" d="M480,185.24a49.6,49.6,0,0,0,1.15,13.56,15.81,15.81,0,0,0,2.44,6.54,12.76,12.76,0,0,0,4.34,3.58,21.12,21.12,0,0,0,15.77,1.74,14,14,0,0,0,8.43-6,21.55,21.55,0,0,0,2.14-7.61c1-6.8.35-15.61-.7-22.79l-.34-4.17c1,7.48,2.34,16.66,1.31,23.75-.39,2.73-.81,5.55-2.14,7.93a14.11,14.11,0,0,1-8.49,6.29A20.62,20.62,0,0,1,488,206.22a13.06,13.06,0,0,1-4.36-3.74,16.94,16.94,0,0,1-2.46-6.82A53.8,53.8,0,0,1,480,181.53"/><path class="g" d="M460.3,61.59c-1.21,1.13-2.63,2-3.94,3-5,3.86-8.12,9.55-11.13,15.07,5.41.8,9.19,5.89,14.37,7.62a2,2,0,0,0,1.26.11c.61-.21.9-.9,1.1-1.52A81.43,81.43,0,0,0,464.72,75c.54-3,1-6.21,3-8.51a27.35,27.35,0,0,1,2.65-2.39c1.17-1,4.36-4,3.83-5.8-.35-1.19-3.88-2.76-5.05-3C465.06,54.38,462.78,59.18,460.3,61.59Z"/><path class="g" d="M490.15,76.57a8.22,8.22,0,0,0-.38-5A50.5,50.5,0,0,0,487.65,66a17.25,17.25,0,0,0-3.26-5.19,7.52,7.52,0,0,0-5.47-2.44c1.16-.9,2.92-2.21,4.07-3.11a5.06,5.06,0,0,1,1.67-1,5,5,0,0,1,1.49-.09,30.14,30.14,0,0,1,15.36,5.31c3.8,2.65,7.09,6.22,11.48,7.72A38.19,38.19,0,0,0,490.15,76.57Z"/><path class="g" d="M468.7,55.71A57.39,57.39,0,0,1,447.32,67a4.57,4.57,0,0,1-2.28.21,4.24,4.24,0,0,1-1.91-1.31,20.9,20.9,0,0,1-5.63-12.09,42.3,42.3,0,0,1-.09-5.74,28.94,28.94,0,0,1,.26-3.61c.78-4.8,4-8.79,7.07-12.54a3.15,3.15,0,0,1,.85-.82c1.26-.73,2.75.38,3.8,1.38a67.9,67.9,0,0,0,16.87,11.72A21,21,0,0,1,468.7,55.71Z"/><path class="h" d="M483.9,55.07a30.88,30.88,0,0,0-.4-9,2.46,2.46,0,0,1,.05-1.61,2.32,2.32,0,0,1,1.09-.85l3.07-1.52a4.8,4.8,0,0,0,1.3-.83,4.94,4.94,0,0,0,.8-1.25,33.68,33.68,0,0,1,6.3-8.46"/><path class="g" d="M483.52,48A5.63,5.63,0,0,1,483,45.4c.34-2.39,1.48-10,3-11.91,2.36-3.09,5.92-2.7,8.28-5.74.54-.71,9.47-4.07,9.49-3.65.38,6.37,6.73,7.5,7.62,13.48a12.91,12.91,0,0,1-.43,4.57l-2.29,10.67a1.83,1.83,0,0,1-2,1.82c-3.53.37-7.06.72-10.59,1.07-3.07.31-7.76,1.32-10.71.11-2-.82-1.43-.51-1.28-2.67A12.88,12.88,0,0,0,483.52,48Z"/><path class="g" d="M471.89,46a5.72,5.72,0,0,0,2.15.66c1.12,0,2.11-.7,3.15-1.13a12.72,12.72,0,0,1,4.88-.67,2.9,2.9,0,0,1,2.33.67,3,3,0,0,1,.49,1.8l.29,6.63a1.94,1.94,0,0,1-.35,1.48,1.83,1.83,0,0,1-.71.39c-2.47.92-4.22,2.43-6.68,3.35-.57.21-1.86-.16-2.46-.08a7.52,7.52,0,0,1-4-1c-2-.92-4.08-2.07-5-4.06-.81-1.74-1.14-5.94-.21-7.71C467,44,469.82,45.16,471.89,46Z"/><g class="i"><path class="j" d="M465.59,47.87a12.53,12.53,0,0,0,2.09,3.89,12.49,12.49,0,0,1,1.1,2,8.4,8.4,0,0,0,1.06,1.93,8.56,8.56,0,0,0,3.51,2.59c.68.3,1.37.56,2.07.82a2.27,2.27,0,0,0,2.12,0,2.3,2.3,0,0,1-2.15.07c-.71-.25-1.41-.5-2.1-.79a8.8,8.8,0,0,1-3.62-2.59,9.18,9.18,0,0,1-1.05-2,12.6,12.6,0,0,0-1.05-1.95A11,11,0,0,1,465.59,47.87Z"/></g><g class="i"><path class="j" d="M473.74,48.56a4.61,4.61,0,0,1,1.62,2.32c.31.91.44,1.86.68,2.77A5.73,5.73,0,0,0,476.5,55a2.65,2.65,0,0,0,1,1,3.07,3.07,0,0,1,1,1,4.32,4.32,0,0,0,.26.66.41.41,0,0,0,.6.08.43.43,0,0,1-.64-.05c-.17-.19-.19-.45-.31-.64a2.91,2.91,0,0,0-1.05-.91,2.7,2.7,0,0,1-1-1,5.84,5.84,0,0,1-.49-1.36c-.23-.93-.36-1.88-.64-2.78A4.9,4.9,0,0,0,473.74,48.56Z"/></g><g class="i"><path class="j" d="M467.73,55.42a1.84,1.84,0,0,0-1.49.08,3.11,3.11,0,0,0-1.19.94c-.32.4-.62.83-1,1.23a4.41,4.41,0,0,1-1.25,1c-.94.49-1.95.76-2.89,1.18a15.72,15.72,0,0,0-2.71,1.53,12.71,12.71,0,0,1,2.64-1.68c.94-.45,2-.73,2.86-1.22a4.22,4.22,0,0,0,1.21-.92c.35-.37.64-.81,1-1.2a3.2,3.2,0,0,1,1.27-.94A1.86,1.86,0,0,1,467.73,55.42Z"/></g><g class="i"><path class="j" d="M467.92,62.17a6.49,6.49,0,0,0-.86,2.54,4,4,0,0,1-.52,1.27,4.21,4.21,0,0,1-.94,1c-.72.56-1.53,1-2.22,1.55a7.25,7.25,0,0,0-1.62,2.1,15.27,15.27,0,0,0-2.22,4.88,20.68,20.68,0,0,0-.06,5.39,17.84,17.84,0,0,1-.08-5.41,15.71,15.71,0,0,1,2.17-5,7.48,7.48,0,0,1,1.7-2.14c.72-.57,1.53-1,2.24-1.52a4,4,0,0,0,.93-1,4.12,4.12,0,0,0,.52-1.22A6.44,6.44,0,0,1,467.92,62.17Z"/></g><g class="i"><path class="j" d="M485.2,54.6a31.42,31.42,0,0,1,4.18,1,18.92,18.92,0,0,1,4,1.61,16.9,16.9,0,0,1,3.12,3q1.46,1.59,2.86,3.21c-1-1-2-2.06-3-3.11a17.44,17.44,0,0,0-3.13-2.89,18.7,18.7,0,0,0-3.93-1.66C488,55.31,486.6,54.92,485.2,54.6Z"/></g><path class="k" d="M460.66,55.25c-3.07-.33-5.58-2.42-8.6-3a18.14,18.14,0,0,0-4-.18,23.12,23.12,0,0,0-2.89.19,2.53,2.53,0,0,0-1.55.66l2.05.53a1.35,1.35,0,0,1,.45.17c.35.25.3.73.38,1.13a2.44,2.44,0,0,0,2.11,1.61,8.91,8.91,0,0,0,2.95-.2,10.35,10.35,0,0,1,5.13.08c.75.26,1.43.69,2.21.91a5.87,5.87,0,0,0,3.44-.23,13.12,13.12,0,0,0,2.2-1.06c.29-.17,1.72-.79,1.05-1.13-.39-.2-1.95.38-2.43.45A9.74,9.74,0,0,1,460.66,55.25Z"/><path class="k" d="M488.92,51.44c-1.38,0-2,0-2.83-.89l-.66-.49a14.58,14.58,0,0,1,1-1.07,81.05,81.05,0,0,1,8-6.92c2.05-1.55,4.37-3.07,7.07-3.21-.26,1-1.55,1.51-2.5,2.15a17.75,17.75,0,0,0-1.41,1.16c-1.19,1-2.57,1.84-3.83,2.78a9.56,9.56,0,0,0-3.07,3.4,10.37,10.37,0,0,0,2.83-.14,13,13,0,0,1,4.89.39,2.71,2.71,0,0,1,1.31.65l-3,.14a1.36,1.36,0,0,0-.73.17c-.3.21-.33.59-.54.87a1.68,1.68,0,0,1-.63.43c-2,.94-4.48.73-6.76.49"/><g class="i"><path class="j" d="M483.55,45a7.46,7.46,0,0,0,0,3.39,10.77,10.77,0,0,1,.22,3.45,4.19,4.19,0,0,1-.61,1.63A5.54,5.54,0,0,1,482,54.69a2.43,2.43,0,0,0-.89,1.38,3.32,3.32,0,0,0,.14,1.68,3.38,3.38,0,0,1-.24-1.7,2.55,2.55,0,0,1,.88-1.48A5.62,5.62,0,0,0,483,53.32a3.94,3.94,0,0,0,.56-1.57,10.79,10.79,0,0,0-.17-3.39A6.91,6.91,0,0,1,483.55,45Z"/></g><path class="l" d="M482.14,157.92a16.86,16.86,0,0,0,9.13.16,54.71,54.71,0,0,0,8.8-2.84c2.86-1.17,5.74-2.28,8.52-3.61a45.85,45.85,0,0,0,7.91-4.73,62.32,62.32,0,0,0,12.78-13.26c3.65-5,6.83-10.29,10-15.61a158,158,0,0,1-9.67,15.84A61.51,61.51,0,0,1,516.8,147.3a46.88,46.88,0,0,1-8,4.74c-2.82,1.32-5.7,2.44-8.59,3.55a54.9,54.9,0,0,1-8.88,2.73A16.94,16.94,0,0,1,482.14,157.92Z"/><path class="m" d="M515.79,147.65a14,14,0,0,0,3.77-5.28,26.3,26.3,0,0,0,1.76-6.28c.36-2.15.61-4.33.95-6.49a48.61,48.61,0,0,1,1.45-6.43c1.26-4.21,2.87-8.28,4-12.5a30.52,30.52,0,0,0,1.08-13,24,24,0,0,1,.36,6.55,38.37,38.37,0,0,1-1.13,6.48c-1.08,4.26-2.7,8.35-3.91,12.54a47.84,47.84,0,0,0-1.48,6.37c-.36,2.15-.6,4.33-1,6.49a26.29,26.29,0,0,1-1.89,6.3A14.18,14.18,0,0,1,515.79,147.65Z"/><path class="n" d="M502.4,154.07a12.67,12.67,0,0,0,2.24-1.6,13.86,13.86,0,0,0,2.56-3.84,9.66,9.66,0,0,0,1.21-3.46,2.17,2.17,0,0,0-.69-1.94c-2.22-1.62-5.08,1.86-6.93,3.12a7,7,0,0,0-3.11,5.13c-.18,1.34-.44,4.56,1.8,4.16A9.5,9.5,0,0,0,502.4,154.07Z"/><path class="l" d="M508.7,143.94a9.11,9.11,0,0,1-1.43,5.56,20.26,20.26,0,0,1-4,4.16c-1.81,1.5-3.7,1.77-6.28,2.82.24-2.26.18-4.21,1.49-6.23C500.86,146.57,504.27,145.18,508.7,143.94Z"/><path class="l" d="M526.89,149.43a15.29,15.29,0,0,0-1.3-3.41,4.61,4.61,0,0,0-2.59-2.54,3.45,3.45,0,0,0-2.63.45c-.85.51-1.94,1.37-1.34,2.27a7.14,7.14,0,0,0,2.28,1.88,9.92,9.92,0,0,0,2.75,1.11A25.08,25.08,0,0,0,526.89,149.43Z"/><path class="l" d="M514.33,139.53a10.4,10.4,0,0,1-.44-4.44,10.25,10.25,0,0,1,1.63-4.51c.34-.53,2.59,2.84,2.7,3a13.8,13.8,0,0,1,1.72,4.73,8.39,8.39,0,0,1-.21,3.38c-.2.73-.8,3.26-1.65,3.52C516.44,145.74,514.73,140.59,514.33,139.53Z"/><path class="l" d="M527.13,128.86a15,15,0,0,0,3.53-3,8.54,8.54,0,0,0,1.94-4.16.73.73,0,0,0,0-.36.77.77,0,0,0-.46-.38,5.21,5.21,0,0,0-3.59,0,10.61,10.61,0,0,0-3.17,1.84,6.35,6.35,0,0,0-1.32,1.32,7.51,7.51,0,0,0-1,2.77c-.22,1-.87,2.61.44,3.05S526.15,129.49,527.13,128.86Z"/><path class="l" d="M546.32,116.5a11.25,11.25,0,0,0,3.29-8.1.73.73,0,0,0-.13-.46c-.19-.21-.53-.14-.8,0a44.38,44.38,0,0,0-4.37,1.77,9.55,9.55,0,0,0-1.94,1.11,11.47,11.47,0,0,0-2,2.18,12.4,12.4,0,0,0-1.91,3.12,4.82,4.82,0,0,0-.28,2.85c.35.94,1.23.8,2.09.66A11.38,11.38,0,0,0,546.32,116.5Z"/><path class="l" d="M520.11,113.3a11.12,11.12,0,0,1,.38-7.93.25.25,0,0,1,.14-.16c.1,0,.19.06.25.15a58.13,58.13,0,0,1,4.34,6.74,6.67,6.67,0,0,1,1.13,3.65,7.93,7.93,0,0,1-1,2.73c-.54,1.17-.81,1.57-1.83.51A14.58,14.58,0,0,1,520.11,113.3Z"/><path class="l" d="M535.06,136.92a9.1,9.1,0,0,0,6.19-2.48c.07-.07.15-.15.14-.24s-.15-.22-.28-.27l-3-1.18a15.86,15.86,0,0,0-3.79-1.12c-1.62-.21-5.28-.08-4.82,2.41C529.88,136.28,533.17,136.92,535.06,136.92Z"/><path class="l" d="M531.43,107.36a7.41,7.41,0,0,0,1.35-3.26.88.88,0,0,0,0-.66,6.85,6.85,0,0,0-2.39.65c-.47.23-1.17.28-1.31.78a10.47,10.47,0,0,0-.25,1.24c0,.6-.74,2.29-.18,2.74S531,107.85,531.43,107.36Z"/><path class="l" d="M513.44,157.81a10.16,10.16,0,0,0,7.09-1.76l-4.42-2.59a17.43,17.43,0,0,0-4.95-2.06c-1.59-.3-2.38.91-3.94,1.37C503.65,153.8,511.9,157.6,513.44,157.81Z"/><path class="o" d="M511.49,214.78a36,36,0,0,1-11.93-17.95c-.5-1.76-.87-3.57-1.23-5.32-.28-1.35-.57-2.75-.92-4.11C495,178,487.1,168.09,480.33,162.46l.72-.88c6.92,5.76,15,15.89,17.47,25.54.35,1.38.64,2.79.92,4.16.35,1.73.72,3.52,1.21,5.24A34.89,34.89,0,0,0,512.2,213.9Z"/><path class="o" d="M506.69,208.82c2-.27,3.67.77,5.07,1.91a6.5,6.5,0,0,1,2.4,3.19,3.42,3.42,0,0,1-1.53,3.76,3.29,3.29,0,0,1-3.4-.25,6,6,0,0,1-1.88-2.71,17.48,17.48,0,0,1-1.24-6.11l.94.51"/><path class="o" d="M508.69,198.32a5.62,5.62,0,0,1,3.25,1.73,2.05,2.05,0,0,1,.39,1.68,2.45,2.45,0,0,1-1.07,1.41,4.42,4.42,0,0,1-3.83.35,11.3,11.3,0,0,1-3.24-2,19.38,19.38,0,0,1-3.63-3C502.8,197,506.39,197.63,508.69,198.32Z"/><path class="o" d="M496.42,206.25c-.22,1.21-.19,2.65.77,3.41a2.36,2.36,0,0,0,2.43.19,3.6,3.6,0,0,0,1.69-1.87,9,9,0,0,0,.55-3.9,25.51,25.51,0,0,0-.28-4.19c-.31-1.59-1.32-1-2.13-.08A13.91,13.91,0,0,0,496.42,206.25Z"/><path class="o" d="M504.75,185.59a5.84,5.84,0,0,1,5.24,4.19,2.75,2.75,0,0,1-.12,1.77A3.12,3.12,0,0,1,507,193a9,9,0,0,1-5.09-1.74,20,20,0,0,1-2.72-2.31c-.92-.9-1.51-1.21-.22-1.93A10.1,10.1,0,0,1,504.75,185.59Z"/><path class="o" d="M492.75,191.32a5.85,5.85,0,0,0-.45,6.69,2.8,2.8,0,0,0,1.39,1.11,3.12,3.12,0,0,0,3-1.15,9,9,0,0,0,2.15-4.93,19.36,19.36,0,0,0,.13-3.57c0-1.28.13-1.93-1.27-1.47A10.06,10.06,0,0,0,492.75,191.32Z"/><path class="o" d="M492.63,162.5a5.86,5.86,0,0,1,5.25,4.19,2.78,2.78,0,0,1-.12,1.78,3.14,3.14,0,0,1-2.9,1.45,9.09,9.09,0,0,1-5.09-1.73,20.71,20.71,0,0,1-2.72-2.32c-.91-.9-1.51-1.2-.22-1.93A10.14,10.14,0,0,1,492.63,162.5Z"/><path class="o" d="M480.64,168.23a5.85,5.85,0,0,0-.45,6.7,2.81,2.81,0,0,0,1.39,1.11,3.12,3.12,0,0,0,3-1.16,9,9,0,0,0,2.15-4.93,20.16,20.16,0,0,0,.13-3.56c-.05-1.29.13-1.94-1.28-1.47A10.12,10.12,0,0,0,480.64,168.23Z"/><path class="o" d="M486.62,179.55c-2.26,1.77-3.58,4.92-2.58,7.61a3.34,3.34,0,0,0,1.26,1.71,3.75,3.75,0,0,0,3.86-.4,10.79,10.79,0,0,0,4-5,24,24,0,0,0,1.25-4.08c.34-1.5.74-2.2-1-2.09A12.15,12.15,0,0,0,486.62,179.55Z"/><path class="o" d="M500.49,172.24c2.87,0,5.85,1.69,6.71,4.42a3.38,3.38,0,0,1,.05,2.13,3.77,3.77,0,0,1-3.3,2.05,10.79,10.79,0,0,1-6.25-1.52,24.37,24.37,0,0,1-3.49-2.46c-1.19-1-1.93-1.28-.48-2.28A12.1,12.1,0,0,1,500.49,172.24Z"/><path class="p" d="M449.88,154.49a17,17,0,0,1,2.23,8.91,55.21,55.21,0,0,1-.9,9.25c-.51,3-1,6.1-1.76,9.12a47.4,47.4,0,0,1-3.05,8.79,61.13,61.13,0,0,1-10.6,15.22,155.93,155.93,0,0,1-13.58,12.64c4.58-4.14,9.15-8.33,13.3-12.9A62.06,62.06,0,0,0,446,190.35a46.7,46.7,0,0,0,3.06-8.69c.74-3,1.26-6,1.83-9.08a55.59,55.59,0,0,0,1-9.18A16.72,16.72,0,0,0,449.88,154.49Z"/><path class="p" d="M446.54,189.51a14,14,0,0,1-4.29,4.93,26.56,26.56,0,0,1-5.79,3.13c-2,.84-4.12,1.5-6.16,2.28a50.54,50.54,0,0,0-5.94,2.73c-3.86,2-7.54,4.43-11.5,6.34a39.82,39.82,0,0,1-6.14,2.39,23.8,23.8,0,0,1-6.49.94,30.57,30.57,0,0,0,12.46-3.67c3.9-2,7.57-4.36,11.44-6.44a50.65,50.65,0,0,1,6-2.71c2.06-.76,4.14-1.44,6.18-2.22a26.18,26.18,0,0,0,5.79-3A13.93,13.93,0,0,0,446.54,189.51Z"/><path class="n" d="M450.16,175.11a12.82,12.82,0,0,1-1.12,2.51,13.86,13.86,0,0,1-3.26,3.27,9.35,9.35,0,0,1-3.14,1.88,2.19,2.19,0,0,1-2-.28c-2-1.86.81-5.35,1.67-7.42a7,7,0,0,1,4.41-4.07c1.27-.44,4.38-1.34,4.43.93A9.27,9.27,0,0,1,450.16,175.11Z"/><path class="p" d="M441.49,183.3a9,9,0,0,0,5.16-2.51,20.07,20.07,0,0,0,3.28-4.76c1.1-2.08,1-4,1.5-6.72-2.16.69-4.08,1-5.8,2.71C442.5,175.1,441.82,178.72,441.49,183.3Z"/><path class="p" d="M449.53,202.57a14.43,14.43,0,0,1-4.11-.49,4.45,4.45,0,0,1-3.29-2.51,5.51,5.51,0,0,1,.14-3.66c.46-1.32,1.3-3.07,2.43-2.6a7,7,0,0,1,2.48,2.35,11.55,11.55,0,0,1,1.67,3.24C449,199.21,449.61,202.56,449.53,202.57Z"/><path class="p" d="M438.3,189.7a10.55,10.55,0,0,0-8.54,3c-.45.45,3.31,2,3.53,2a13.87,13.87,0,0,0,5,.74,8.29,8.29,0,0,0,3.26-.88c.68-.34,3-1.43,3.12-2.32C444.8,190.53,439.41,189.88,438.3,189.7Z"/><path class="n" d="M426.74,195.31a11.92,11.92,0,0,1-1.67-2.07"/><path class="p" d="M430.4,204.38a14.91,14.91,0,0,1-2.24,4.06,8.52,8.52,0,0,1-3.69,2.73.7.7,0,0,1-.35.06.75.75,0,0,1-.47-.37,5.19,5.19,0,0,1-.72-3.52,10.49,10.49,0,0,1,1.18-3.47,6.27,6.27,0,0,1,1-1.56,7.63,7.63,0,0,1,2.51-1.54c.92-.41,2.39-1.38,3.08-.19S430.83,203.29,430.4,204.38Z"/><path class="p" d="M422.12,225.65a11.18,11.18,0,0,1-7.27,4.84.72.72,0,0,1-.48,0c-.24-.14-.24-.49-.2-.77a45.6,45.6,0,0,1,.85-4.64,10.33,10.33,0,0,1,.7-2.12,11.6,11.6,0,0,1,1.74-2.39,12.16,12.16,0,0,1,2.68-2.49,4.77,4.77,0,0,1,2.74-.85c1,.16,1,1.05,1.06,1.91A11.31,11.31,0,0,1,422.12,225.65Z"/><path class="p" d="M413.75,200.61a11.15,11.15,0,0,0-7.69,1.95c-.06.05-.13.1-.13.18s.1.17.19.21a57,57,0,0,0,7.48,2.91,6.81,6.81,0,0,0,3.8.38,8.18,8.18,0,0,0,2.49-1.48c1-.77,1.37-1.11.13-1.9A14.54,14.54,0,0,0,413.75,200.61Z"/><path class="p" d="M439.88,210.53a9.08,9.08,0,0,1-1.19,6.57c-.05.08-.11.17-.21.18s-.24-.1-.31-.22l-1.77-2.74a16.4,16.4,0,0,1-1.86-3.48c-.52-1.55-1.13-5.16,1.41-5.21C438.22,205.59,439.51,208.68,439.88,210.53Z"/><path class="p" d="M410.2,212.89a7.47,7.47,0,0,1-2.93,2,1,1,0,0,1-.66.08,6.91,6.91,0,0,1,.17-2.48c.13-.51,0-1.2.5-1.43a8.94,8.94,0,0,1,1.16-.49c.58-.16,2.1-1.19,2.65-.73C411.79,210.4,410.6,212.41,410.2,212.89Z"/><path class="p" d="M456,185.18a10.17,10.17,0,0,1-.31,7.3l-3.41-3.82a17.35,17.35,0,0,1-3-4.44c-.61-1.5.42-2.51.55-4.13C450.14,176.38,455.52,183.71,456,185.18Z"/><path class="n" d="M492,157.55l1,.55"/><path class="q" d="M494.05,152.66c4.83,6.83,14.42,9.51,18.65,16.74"/><path class="r" d="M511.67,170.83a5.66,5.66,0,0,0,5.52,5.21,4.72,4.72,0,0,0,2-.35,3,3,0,0,0,1.52-1.45,3.06,3.06,0,0,0-.49-2.83,7.11,7.11,0,0,0-6.48-3.51c-.55,0-2-.09-2.24.48-.11.24.1,1,.1,1.22S511.65,170.42,511.67,170.83Z"/><path class="r" d="M505.77,162.31l0-.05a10.65,10.65,0,0,1,.89,9.16,3.15,3.15,0,0,1-1.6,2.08,2.13,2.13,0,0,1-2.36-.8,4.94,4.94,0,0,1-1-3.3,10.2,10.2,0,0,1,.93-3.6,8.16,8.16,0,0,1,1-1.7A5.89,5.89,0,0,1,505.77,162.31Z"/><path class="r" d="M498.62,159.83a12.84,12.84,0,0,1-.42,4.33,3.79,3.79,0,0,1-1.8,2.75,2.17,2.17,0,0,1-2.7-1,5.29,5.29,0,0,1-.37-3.05,12.53,12.53,0,0,1,.89-3.92c.36-.82,2.18-3.82,2.77-2.81C498,157.87,498.52,158.8,498.62,159.83Z"/><path class="r" d="M509.22,156.58a1.53,1.53,0,0,0,.7-.86,1.08,1.08,0,0,0-.08-.53,2.23,2.23,0,0,0-1.54-1.3,4.33,4.33,0,0,0-1.35-.07,13.64,13.64,0,0,0-4.08.93c-.92.36-4.91,2.24-4.05,2.71a15.17,15.17,0,0,0,6.46.88A10.51,10.51,0,0,0,509.22,156.58Z"/><path class="r" d="M508.34,164.06a.42.42,0,0,1-.43-.24c-.05-.12-.28-.3-.36-.18a20.34,20.34,0,0,0,4.21,1.53,8.12,8.12,0,0,0,4.66-.33,2.77,2.77,0,0,0,1.8-1.74A1.64,1.64,0,0,0,518,162a3.48,3.48,0,0,0-3.48-1.24,19.21,19.21,0,0,0-4,1.24,10,10,0,0,0-3,1.42"/><path class="n" d="M475.37,187.32a3.39,3.39,0,0,1-1.48.2"/><path class="n" d="M475.32,188a17.64,17.64,0,0,0-2.49.58"/><path class="s" d="M458.09,162.86a23,23,0,0,1,5.77,21.06"/><path class="m" d="M456.5,173.33a5.25,5.25,0,0,0-1.35,2.75,2.11,2.11,0,0,0,1.62,2.31,3,3,0,0,0,1.73-.52c1.67-.91,3.37-2,4.1-3.79a9.39,9.39,0,0,0,.47-1.67,12.1,12.1,0,0,0,.23-1.34c.25-2.4-.76-2.29-2.63-1.32A13.4,13.4,0,0,0,456.5,173.33Z"/><path class="m" d="M467.37,170.62a38.9,38.9,0,0,1,3.68,2.06,5.44,5.44,0,0,1,2.17,2.08,1.74,1.74,0,0,1,.13,1.32,1.61,1.61,0,0,1-1.3.95,3.92,3.92,0,0,1-1.66-.21,15.82,15.82,0,0,1-4.61-2.26c-.89-.63-3.84-3.07-3.13-4.47S466.47,170.17,467.37,170.62Z"/><path class="m" d="M460.73,183.18a6.81,6.81,0,0,0,1.06,4.43,4.32,4.32,0,0,0,1.1,1.34,3,3,0,0,0,2.82.25,4.13,4.13,0,0,0,2.05-2c1.08-2.23.38-5-1.14-7-1.14-1.46-2-1.63-3.45-.59A5.6,5.6,0,0,0,460.73,183.18Z"/><path class="t" d="M453.07,143.17a23,23,0,0,1-16-14.88"/><path class="u" d="M448.92,133.43a5.1,5.1,0,0,0-.3-3.05,2.11,2.11,0,0,0-2.59-1.11,3.07,3.07,0,0,0-1.2,1.34c-.94,1.66-1.79,3.51-1.49,5.39a8.75,8.75,0,0,0,.48,1.66,11.54,11.54,0,0,0,.5,1.27c1.05,2.17,1.85,1.54,2.94-.26A13.41,13.41,0,0,0,448.92,133.43Z"/><path class="u" d="M441.09,141.45a39.3,39.3,0,0,1-4.21.18A5.44,5.44,0,0,1,434,141a1.76,1.76,0,0,1-.81-1.05,1.62,1.62,0,0,1,.61-1.49,3.84,3.84,0,0,1,1.52-.7,15.74,15.74,0,0,1,5.11-.5c1.08.07,4.88.59,5,2.16S442.1,141.35,441.09,141.45Z"/><path class="u" d="M440.15,127.28a6.78,6.78,0,0,0-3.23-3.22,4.06,4.06,0,0,0-1.64-.56,3,3,0,0,0-2.53,1.27,4.16,4.16,0,0,0-.67,2.82c.26,2.46,2.31,4.46,4.63,5.33,1.74.65,2.53.35,3.25-1.31A5.61,5.61,0,0,0,440.15,127.28Z"/><path class="v" d="M457.69,146.09a10.51,10.51,0,0,1-8.44-4.16,20.11,20.11,0,0,1,12.86-6.74,8.86,8.86,0,0,1-5.83-3.79,23.17,23.17,0,0,1-3-6.53,16.92,16.92,0,0,1,13.37,1,6.76,6.76,0,0,1-.45-5.49,20.47,20.47,0,0,1,2.65-5,1.64,1.64,0,0,1,.79-.75,1.43,1.43,0,0,1,.94.17,8.3,8.3,0,0,1,4.46,4,4.92,4.92,0,0,1-1.12,5.7,14.81,14.81,0,0,1,11.81-4.94c1.76,5.18-1.55,10.89-5.73,14.4-3.42,2.87-7.42,4.84-11,7.51C465.6,144,462.06,146.14,457.69,146.09Z"/><path class="w" d="M472.75,127.31q-.22,1.45-.48,2.91L471,128.91c-.23-.23-.54-.48-.82-.35a.62.62,0,0,0-.27.66,6.83,6.83,0,0,0,.23.73,1.69,1.69,0,0,1-.16,1.32,6.4,6.4,0,0,0-1.24-.59.69.69,0,0,0-.64,0,.56.56,0,0,0-.16.61,2.11,2.11,0,0,0,.34.58,1.69,1.69,0,0,1,.37.88.73.73,0,0,1-.47.75,1.67,1.67,0,0,1-.5,0,1.48,1.48,0,0,0-1.45,1.39.73.73,0,0,0,.41.76.67.67,0,0,0,.28,0l3.1-.1a5.77,5.77,0,0,0,2.15-.34C474.73,134.11,475,128.85,472.75,127.31Z"/><path class="x" d="M481.13,163.87a.54.54,0,0,1,.31.06c.29.17.14.61-.05.89a8.49,8.49,0,0,1-4.17,3.1c.93.18,1.9,0,2.82.19a3.36,3.36,0,0,1,2.09,1.43,1.09,1.09,0,0,1,.21.48,1,1,0,0,1-.6,1,2.42,2.42,0,0,1-1.25.15,7,7,0,0,1-2.42-.69,4,4,0,0,1-.61,4.76.59.59,0,0,1-.38.2c-.2,0-.35-.2-.45-.38a13.44,13.44,0,0,1-1.74-4,6,6,0,0,1-2,2.78,1.2,1.2,0,0,1-1.1.33.86.86,0,0,1-.49-.72,2.15,2.15,0,0,1,.14-.9,8.32,8.32,0,0,1,1.64-2.82,6.48,6.48,0,0,1-2.31.83,2.16,2.16,0,0,1-2.11-1,.91.91,0,0,1-.11-.7c.12-.38.56-.55.95-.65a12.66,12.66,0,0,1,3.3-.42,6.12,6.12,0,0,1-2.29-2.52,1.84,1.84,0,0,1,0-1.93.63.63,0,0,1,.41-.26,1,1,0,0,1,.63.27,11.48,11.48,0,0,1,3,3.67c-.1-1.63-.12-3.43.95-4.66a1.15,1.15,0,0,1,.94-.47.9.9,0,0,1,.66.62,2.13,2.13,0,0,1,0,.94c-.12.7-.64,2.24-.74,2.9a12.74,12.74,0,0,1,2.05-2A6.73,6.73,0,0,1,481.13,163.87Z"/><path class="y" d="M475.11,168.93a.29.29,0,0,0,.1-.34.59.59,0,0,0-.26-.26c-.1-.06-.24-.11-.33,0s.11.56-.1.71c-.21-.08-.48-.13-.6.05a.35.35,0,0,0,.15.47,1.08,1.08,0,0,0,.54.08.38.38,0,0,0-.24.49.42.42,0,0,0,.51.23.48.48,0,0,0,.28-.5.29.29,0,0,0,.36.24.33.33,0,0,0,.23-.39.37.37,0,0,0-.37-.26.38.38,0,0,0,.4-.22.34.34,0,0,0-.18-.41.3.3,0,0,0-.38.22"/><path class="z" d="M478.49,146.76c-3,.54-6.21,1.36-8.2,3.68a11,11,0,0,0-2.21,6.84,3.34,3.34,0,0,0,.17,1.37c.54,1.33,2.28,1.54,3.62,2.07a24.61,24.61,0,0,1,3.33,2,4.75,4.75,0,0,0,3.7.76c1.4-.44,2.26-1.84,2.83-3.2a19.28,19.28,0,0,0,1.2-10.46A4.1,4.1,0,0,0,478.49,146.76Z"/><path class="z" d="M480.44,158c-.07,2.88.48,6.15,2.84,7.57,2.09,1.27,4.85.59,7.1-.56a5.37,5.37,0,0,0,1.91-1.42,20.27,20.27,0,0,0,1.09-2c.47-.77,1.14-1.4,1.59-2.18a9,9,0,0,0,.77-4.79,5.81,5.81,0,0,0-.59-3c-.92-1.5-2.93-1.71-4.63-2.12-2.24-.53-5.67-3.86-7.84-1.77S480.51,155.34,480.44,158Z"/><path class="z" d="M494.33,153.35a11.19,11.19,0,0,0,2.45.05c3.68-.46,5.11-4.45,2.85-7.36a10.92,10.92,0,0,1-1.72-2.31c-.5-1.27,0-2.73-1-3.8a4.73,4.73,0,0,0-3.12-1.09c-4.91-.44-8.4,2.32-9,6.52a9,9,0,0,0,2.17,6.35C488.54,153.38,492.08,153.14,494.33,153.35Z"/><path class="z" d="M489.85,140.05c-.23-1-.69-1.92-.91-2.91a13.53,13.53,0,0,0-.35-1.68,4.67,4.67,0,0,0-2.92-2.67,8.45,8.45,0,0,0-8.83,2.35,5.15,5.15,0,0,0-1.14,1.74,7.37,7.37,0,0,0-.2,3.07l.21,2.6a2.41,2.41,0,0,0,.26,1.1,2.34,2.34,0,0,0,.95.78c2,1.14,4.11,2.32,6.41,2.29C486.65,146.69,490.68,143.73,489.85,140.05Z"/><path class="z" d="M476.31,139.49a.79.79,0,0,0,0-1.15,2.26,2.26,0,0,0-1.18-.54c-.94-.23-2.11-.39-2.73.36-.23.27-.34.63-.56.91-.5.65-1.42.75-2.18,1a6.27,6.27,0,0,0-3.22,3.86,2.79,2.79,0,0,0-.21.85,3,3,0,0,0,.23,1.07,42.89,42.89,0,0,0,2.2,5.07c1,1.94,3.43,2.51,5.48,2.14,2.21-.41,5.61-1.56,6.9-3.56,1.43-2.2-.33-5.72-1.19-7.86a6.91,6.91,0,0,0-1.51-2.53,2.63,2.63,0,0,0-2.73-.65c-.75.31-1.83.4-2.54.79a5.7,5.7,0,0,1-2.62,1.09,5.29,5.29,0,0,0-3.38,1.46,3.91,3.91,0,0,0-1.1,3.44,7,7,0,0,0,.74,1.79l1.55,2.89a5.93,5.93,0,0,0,2.87,2.95"/><path class="aa" d="M502,123.75a.94.94,0,0,1,.47.08c.44.26.22.93-.07,1.35a12.8,12.8,0,0,1-6.3,4.68c1.4.28,2.87,0,4.26.28a5.16,5.16,0,0,1,3.16,2.17,2.12,2.12,0,0,1,.32.72,1.56,1.56,0,0,1-.92,1.54,3.57,3.57,0,0,1-1.89.22,10.34,10.34,0,0,1-3.65-1,6.08,6.08,0,0,1-.92,7.19.86.86,0,0,1-.57.31c-.31,0-.52-.31-.68-.58a20.26,20.26,0,0,1-2.63-6,9.12,9.12,0,0,1-3,4.2,1.81,1.81,0,0,1-1.65.49,1.31,1.31,0,0,1-.75-1.09,3.28,3.28,0,0,1,.22-1.35,12.6,12.6,0,0,1,2.47-4.27,9.6,9.6,0,0,1-3.48,1.26,3.28,3.28,0,0,1-3.2-1.46,1.41,1.41,0,0,1-.16-1.06c.19-.57.85-.83,1.43-1a19.14,19.14,0,0,1,5-.64A9.16,9.16,0,0,1,486,126a2.76,2.76,0,0,1-.06-2.9.94.94,0,0,1,.62-.39,1.36,1.36,0,0,1,.95.4,17.19,17.19,0,0,1,4.49,5.53c-.15-2.45-.18-5.17,1.44-7a1.69,1.69,0,0,1,1.41-.71,1.33,1.33,0,0,1,1,.93,3,3,0,0,1,0,1.42c-.17,1-1,3.39-1.12,4.37a19,19,0,0,1,3.11-2.94A10,10,0,0,1,502,123.75Z"/><path class="y" d="M492.94,131.38a.4.4,0,0,0,.15-.5.86.86,0,0,0-.39-.41c-.16-.09-.37-.15-.5,0-.3.25.16.86-.16,1.07-.3-.11-.71-.18-.9.09a.52.52,0,0,0,.23.7,1.59,1.59,0,0,0,.81.12.59.59,0,0,0-.36.75.63.63,0,0,0,.77.34.68.68,0,0,0,.42-.75.47.47,0,0,0,.56.37.51.51,0,0,0,.34-.59.57.57,0,0,0-.57-.41.55.55,0,0,0,.61-.32.49.49,0,0,0-.27-.62.43.43,0,0,0-.56.32"/><path class="ab" d="M483.3,148.26l-.21.25c.05,0,0,.09-.06.07s-.06-.08-.07-.12a21.34,21.34,0,0,1-.43-5.56"/><path class="ac" d="M482.26,142.93a.63.63,0,0,0,.83,0,.42.42,0,0,0,.15-.3.3.3,0,0,0-.2-.28c-.13,0-.38-.07-.38,0-.06-.1,0-.1-.13-.16s-.26,0-.28.07c0-.12-.24-.16-.33-.07a.28.28,0,0,0,0,.35.81.81,0,0,0,.57.39"/><path class="ab" d="M482.8,148.7c.05,0,.09.06.06.09s-.1,0-.15,0a31.75,31.75,0,0,1-6-2.2"/><path class="ac" d="M476.62,147c.28-.05.36-.79.33-.85a.68.68,0,0,0-.33-.32.39.39,0,0,0-.44,0,.24.24,0,0,0,.08.37.69.69,0,0,0-.41.08.2.2,0,0,0,0,.33.2.2,0,0,0-.22.3.53.53,0,0,0,.46.2.89.89,0,0,0,.73-.36"/><path class="ab" d="M482.61,149.29s.09,0,.1,0,0,.08,0,.12a23.49,23.49,0,0,1-4.6,3.44"/><path class="ac" d="M478.45,153.2c.1-.33-.31-.68-.71-.72a.68.68,0,0,0-.45.08.3.3,0,0,0-.13.37.3.3,0,0,0,.4.14.55.55,0,0,0-.08.37.26.26,0,0,0,.32.19c-.12.11,0,.33.21.34a.44.44,0,0,0,.39-.25.77.77,0,0,0-.07-.77"/><path class="ab" d="M482.54,149.1c-.05,0,0-.09,0-.09a.17.17,0,0,1,.13.08,26.08,26.08,0,0,1,3.55,4.83"/><path class="ac" d="M486.54,153.56a.66.66,0,0,0-.86.46.55.55,0,0,0,.06.41.42.42,0,0,0,.41.2.22.22,0,0,0,.19-.31.85.85,0,0,0,.4.15c.14,0,.29-.11.24-.23a.24.24,0,0,0,.39-.11c0-.15-.1-.3-.25-.4a1.11,1.11,0,0,0-.87-.12"/><path class="ab" d="M482.82,149.41s-.1,0-.1,0,.06-.07.11-.09a27.81,27.81,0,0,1,5.92-1.43"/><path class="ac" d="M488.44,147.32c-.24.26,0,.71.35.89a.88.88,0,0,0,.47.09.33.33,0,0,0,.29-.29.29.29,0,0,0-.32-.26.6.6,0,0,0,.25-.3.25.25,0,0,0-.22-.28c.16,0,.11-.3-.05-.37a.47.47,0,0,0-.48.08.72.72,0,0,0-.28.7"/><path class="ab" d="M486.07,145.57a30.65,30.65,0,0,0-2.77,2.69"/><path class="ac" d="M486.09,145.25a.87.87,0,0,1,.32.13.25.25,0,0,1,.08.24c0,.09,0,.19-.11.23a.36.36,0,0,1-.25,0,.71.71,0,0,1-.34-.16.3.3,0,0,1,0-.43.27.27,0,0,1,.2,0,.24.24,0,0,1,.14,0Z"/><path class="ab" d="M480.11,145.53a36.5,36.5,0,0,0,2.72,3.13"/><path class="ac" d="M479.77,145.28a.23.23,0,0,1,.07-.19.34.34,0,0,1,.28,0,.35.35,0,0,1,.24.16.26.26,0,0,1,0,.21.43.43,0,0,1-.21.25.42.42,0,0,1-.48-.11.23.23,0,0,1,0-.18s0-.09.05-.11S479.77,145.25,479.77,145.28Z"/><path class="ab" d="M478.32,149.49a38.05,38.05,0,0,0,4.17-.6"/><path class="ac" d="M478.07,149.6a.3.3,0,0,1-.17-.14.22.22,0,0,1,.1-.23.28.28,0,0,1,.24-.11.36.36,0,0,1,.21.13.55.55,0,0,1,.19.29.3.3,0,0,1-.29.33.24.24,0,0,1-.19-.08.22.22,0,0,1-.1-.09S478,149.59,478.07,149.6Z"/><path class="ab" d="M482.39,153.44a24.71,24.71,0,0,0,.39-3.74"/><path class="ac" d="M482.36,153.6c-.05,0,0,.18-.1.17s-.17-.09-.22-.17a.24.24,0,0,1-.06-.25.29.29,0,0,1,.18-.12.68.68,0,0,1,.37,0c.16,0,.32.22.28.37a.2.2,0,0,1-.13.14.56.56,0,0,1-.12,0S482.34,153.62,482.36,153.6Z"/><path class="ab" d="M487.32,150.75a40,40,0,0,0-3.95-1.77"/><path class="ac" d="M487.62,150.8a.27.27,0,0,1,0,.19c0,.08-.14.11-.24.13a.39.39,0,0,1-.28-.05.27.27,0,0,1-.09-.21.44.44,0,0,1,0-.32c.13-.2,0-.36.47-.1a.32.32,0,0,1,.11.17.25.25,0,0,1,0,.12S487.63,150.82,487.62,150.8Z"/><path class="ad" d="M481.91,145.6a2,2,0,0,1,.67-.31.8.8,0,0,1,.73.23.29.29,0,0,0,.11.11.2.2,0,0,0,.15,0c.32,0,.62-.17.94-.21a.81.81,0,0,1,.83.37c.09.22,0,.44,0,.66s.44.6.78.8.73.48.73.83-.29.52-.55.69a1.31,1.31,0,0,1-.31,1.93c-.2.12-.46.21-.55.41a1.68,1.68,0,0,0-.06.45c-.07.48-.61.75-1.1.95a.82.82,0,0,1-.35.08c-.43,0-.62-.57-1-.7s-.79.21-1.22.23a1.21,1.21,0,0,1-.92-.48,5.92,5.92,0,0,1-.49-.89,1.07,1.07,0,0,0-.13-.19,1.7,1.7,0,0,0-.3-.23,1.25,1.25,0,0,1-.35-1.71.55.55,0,0,0,.17-.28c0-.14-.1-.27-.17-.4a.69.69,0,0,1,.5-1,1.43,1.43,0,0,0,.43-.08.67.67,0,0,0,.24-.29c.34-.53.55-.95,1.25-1"/><path class="g" d="M446.69,148.63a7.15,7.15,0,0,0-7.26-3,2.19,2.19,0,0,0-1.1.45,2.23,2.23,0,0,0-.4,2.11,11.79,11.79,0,0,0,3.24,6,6.41,6.41,0,0,0-5.41,4.26,2.4,2.4,0,0,0,.15,2.19,2.87,2.87,0,0,0,1.84.83,36.49,36.49,0,0,0,9.17.41,14.88,14.88,0,0,0-7.82,6.51c-.43.77-.77,1.82-.16,2.4a1.91,1.91,0,0,0,1.27.39,11.67,11.67,0,0,0,6.38-1.62,5.33,5.33,0,0,0,.38,6.31,2.39,2.39,0,0,0,2,.92,3.15,3.15,0,0,0,1.42-.72,13.49,13.49,0,0,0,5.27-11.15,13.32,13.32,0,0,0,2.42,7.29,4.47,4.47,0,0,0,2,1.56,5.55,5.55,0,0,0,3.92-.51,1.78,1.78,0,0,0,.7-.46,1.57,1.57,0,0,0,.11-1.39,13.85,13.85,0,0,0-2.44-4.92,5.64,5.64,0,0,0,7.53.15,1.33,1.33,0,0,0,.43-.57,1.38,1.38,0,0,0,0-.64,10.16,10.16,0,0,0-7.24-8,1.91,1.91,0,0,0,1,.28,14.63,14.63,0,0,0,4.63-.89,5,5,0,0,0,3.08-3.41,1.49,1.49,0,0,0-.05-.89,1.66,1.66,0,0,0-.68-.66,6.72,6.72,0,0,0-5.08-.7c1.26-1.21,2.63-2.76,2.25-4.36s-2.35-2.21-4-1.77a9.67,9.67,0,0,0-4.09,2.88c-.56.57-1.12,1.16-1.66,1.75a22,22,0,0,0,1.79-3.34c.48-1.55.73-3.42-.38-4.49a3.46,3.46,0,0,0-4-.1,11,11,0,0,0-3.09,3.11,2.9,2.9,0,0,0-3.13-3.13,4.25,4.25,0,0,0-3.61,3.4C445.72,146.83,445.39,147.56,446.69,148.63Z"/><path class="y" d="M454.62,158a1.49,1.49,0,0,1-.45,1.68l-.26-.9a3.69,3.69,0,0,1-.71.48c-.11.05-.24.09-.32,0s0-.13,0-.2a1.77,1.77,0,0,1,.57-1.07,1.52,1.52,0,0,1-1,.1.65.65,0,0,1-.48-.72c.07-.32.53-.54.76-.31-.17-.21-.32-.42-.47-.64a.63.63,0,0,1-.12-.32c0-.29.41-.48.68-.37a1.18,1.18,0,0,1,.57.63,1.13,1.13,0,0,1,.23-1.26,1.15,1.15,0,0,1,.72,1.13.55.55,0,0,1,.91-.1.57.57,0,0,1-.49.79,3.53,3.53,0,0,1,1.4.35.43.43,0,0,1,.24.2c.07.17-.1.39-.3.45a1.09,1.09,0,0,1-.59-.08,1.9,1.9,0,0,0,.46.43.49.49,0,0,1,.14.58c-.2.31-.68.1-.86-.2s-.32-.7-.67-.74"/><path class="ae" d="M28.73,194.82a11.23,11.23,0,0,1-.76-2.34,10.7,10.7,0,0,1-.18-2.46,21.37,21.37,0,0,0,.36,2.42A19.65,19.65,0,0,0,28.73,194.82Z"/><path class="ae" d="M26,191a5.2,5.2,0,0,1-.59-2.6c0-.45.07-.9.12-1.34s0-.94.39-1.26a2.49,2.49,0,0,0-.27,1.27c0,.44-.06.89-.06,1.33A6.26,6.26,0,0,0,26,191Z"/><path class="ae" d="M25.94,191a7.05,7.05,0,0,0-2.18-.75,7.37,7.37,0,0,0-2.3-.08,5.3,5.3,0,0,1,4.48.83Z"/><path class="ae" d="M28.86,194.79a9.37,9.37,0,0,0-2.19-.77,4,4,0,0,0-1.15,0,1.75,1.75,0,0,0-1.06.42,1.43,1.43,0,0,1,1-.53,3.71,3.71,0,0,1,1.2,0A6.23,6.23,0,0,1,28.86,194.79Z"/><path class="l" d="M66.43,76.58A7.78,7.78,0,0,1,65.52,73,9,9,0,0,1,66,69.42a31.58,31.58,0,0,1,11.19-15.6,14.7,14.7,0,0,1,2.42-1.34.27.27,0,0,1,.37.21c1.19,8.85-4.36,18.57-11.84,23.45C67.34,76.65,67.26,76.16,66.43,76.58Z"/><path class="u" d="M207.85,77.16a22.35,22.35,0,0,1-12.18-5.45c-.84-.75-1.64-1.57-2.41-2.37-.59-.62-1.21-1.26-1.83-1.85-4.37-4.13-11.79-6.69-17.2-7.39l.09-.7c5.52.72,13.1,3.34,17.59,7.58.64.6,1.26,1.25,1.86,1.87.76.79,1.54,1.6,2.37,2.34a21.62,21.62,0,0,0,11.79,5.27Z"/><path class="u" d="M203.37,75.63a4.13,4.13,0,0,1,3.28-.68,3.93,3.93,0,0,1,2.31.87,2.12,2.12,0,0,1,.45,2.48,2,2,0,0,1-1.86,1,3.59,3.59,0,0,1-1.88-.8A10.71,10.71,0,0,1,203,75.71l.66,0"/><path class="u" d="M200.94,69.47a3.44,3.44,0,0,1,2.27-.17,1.3,1.3,0,0,1,.77.75,1.6,1.6,0,0,1-.1,1.09A2.75,2.75,0,0,1,202,72.6a7.13,7.13,0,0,1-2.35,0,12,12,0,0,1-2.89-.37C197.41,70.72,199.51,69.87,200.94,69.47Z"/><path class="u" d="M197.14,77.68c.29.7.78,1.45,1.54,1.53A1.45,1.45,0,0,0,200,78.5a2.26,2.26,0,0,0,.27-1.53,5.53,5.53,0,0,0-1-2.22,14.47,14.47,0,0,0-1.53-2.1c-.69-.73-1-.12-1.14.66A8.59,8.59,0,0,0,197.14,77.68Z"/><path class="u" d="M194.66,64.11a3.62,3.62,0,0,1,4.13.46,1.7,1.7,0,0,1,.53,1,1.93,1.93,0,0,1-1,1.72,5.58,5.58,0,0,1-3.23.77,11.56,11.56,0,0,1-2.19-.31c-.78-.16-1.19-.13-.76-.93A6.31,6.31,0,0,1,194.66,64.11Z"/><path class="u" d="M190.28,71.08a3.64,3.64,0,0,0,2,3.66,1.74,1.74,0,0,0,1.1.11,1.93,1.93,0,0,0,1.2-1.6,5.59,5.59,0,0,0-.5-3.29,12.57,12.57,0,0,0-1.12-1.91c-.45-.66-.57-1.06-1.15-.35A6.25,6.25,0,0,0,190.28,71.08Z"/><path class="u" d="M180.68,56.05a3.61,3.61,0,0,1,4.13.45,1.73,1.73,0,0,1,.53,1,1.94,1.94,0,0,1-1,1.72,5.59,5.59,0,0,1-3.23.78,13.43,13.43,0,0,1-2.19-.31c-.78-.17-1.19-.13-.76-.94A6.28,6.28,0,0,1,180.68,56.05Z"/><path class="u" d="M176.3,63a3.64,3.64,0,0,0,2,3.66,1.82,1.82,0,0,0,1.1.12,2,2,0,0,0,1.2-1.61,5.53,5.53,0,0,0-.51-3.29A12.17,12.17,0,0,0,179,60c-.45-.66-.57-1-1.15-.35A6.25,6.25,0,0,0,176.3,63Z"/><path class="u" d="M183.18,67a4.32,4.32,0,0,0,1.17,4.83,2.07,2.07,0,0,0,1.22.48,2.33,2.33,0,0,0,1.89-1.49,6.7,6.7,0,0,0,.43-4,14.17,14.17,0,0,0-.7-2.55c-.32-.9-.34-1.4-1.23-.76A7.58,7.58,0,0,0,183.18,67Z"/><path class="u" d="M188,58.54a4.33,4.33,0,0,1,5,.09,2.11,2.11,0,0,1,.73,1.1,2.31,2.31,0,0,1-1.05,2.16,6.73,6.73,0,0,1-3.77,1.28,15.53,15.53,0,0,1-2.64-.14c-.95-.11-1.44,0-1-1A7.4,7.4,0,0,1,188,58.54Z"/><path class="g" d="M64.46,82.76a4.66,4.66,0,0,0,4.75,2,1.15,1.15,0,0,0,1-1.67,7.69,7.69,0,0,0-2.11-3.93,4.18,4.18,0,0,0,3.53-2.78,1.55,1.55,0,0,0-.09-1.43,1.92,1.92,0,0,0-1.21-.55,24,24,0,0,0-6-.27,9.62,9.62,0,0,0,5.11-4.26c.29-.5.51-1.18.11-1.56A1.2,1.2,0,0,0,68.7,68a7.53,7.53,0,0,0-4.17,1.06A3.49,3.49,0,0,0,64.28,65a1.58,1.58,0,0,0-1.33-.6,2.06,2.06,0,0,0-.93.47,8.83,8.83,0,0,0-3.45,7.29A8.68,8.68,0,0,0,57,67.36a2.93,2.93,0,0,0-1.28-1,3.68,3.68,0,0,0-2.56.34,1.23,1.23,0,0,0-.46.3,1,1,0,0,0-.07.91,9,9,0,0,0,1.59,3.22,3.68,3.68,0,0,0-4.92-.1.87.87,0,0,0-.29.37,1,1,0,0,0,0,.42A6.65,6.65,0,0,0,53.73,77a1.36,1.36,0,0,0-.62-.19,9.82,9.82,0,0,0-3,.59,3.29,3.29,0,0,0-2,2.22,1,1,0,0,0,0,.59,1.1,1.1,0,0,0,.45.43,4.39,4.39,0,0,0,3.32.46c-.82.79-1.72,1.81-1.47,2.85A2,2,0,0,0,53,85.11a6.31,6.31,0,0,0,2.68-1.88c.37-.38.73-.76,1.09-1.15a13.21,13.21,0,0,0-1.17,2.19c-.32,1-.48,2.23.25,2.93a2.26,2.26,0,0,0,2.62.07,7.14,7.14,0,0,0,2-2,1.89,1.89,0,0,0,2,2,2.77,2.77,0,0,0,2.37-2.22C65.1,83.94,65.31,83.46,64.46,82.76Z"/><path class="y" d="M59.27,76.63a1,1,0,0,1,.3-1.1l.17.59a2.32,2.32,0,0,1,.46-.31c.07,0,.16-.06.21,0a.21.21,0,0,1,0,.13,1.12,1.12,0,0,1-.37.7.92.92,0,0,1,.63-.06A.42.42,0,0,1,61,77c0,.21-.35.35-.5.2l.31.42a.39.39,0,0,1,.08.21c0,.19-.27.31-.45.24a.82.82,0,0,1-.37-.41.73.73,0,0,1-.15.82.75.75,0,0,1-.47-.74.36.36,0,0,1-.6.07.38.38,0,0,1,.33-.52,2.23,2.23,0,0,1-.92-.23c-.06,0-.13-.06-.15-.13s.06-.26.19-.29a.76.76,0,0,1,.39,0,1.33,1.33,0,0,0-.3-.28.31.31,0,0,1-.1-.38c.13-.2.45-.06.56.13s.21.46.45.48"/><path class="l" d="M188.72,223.84a44.44,44.44,0,0,1-7.94,2.43c-2.26.51-4.54,1-6.82,1.36,2.38-6.71,8.62-11.44,15.28-14,2.06-.78,10.16-3.33,9.93,1.32C199,218.6,191.52,222.61,188.72,223.84Z"/><path class="l" d="M200.65,211a9.31,9.31,0,0,1,3,3.24,10.59,10.59,0,0,1,1.58,4c1.34,7.88.71,15.64-2.7,22.87a16.9,16.9,0,0,1-1.76,2.8.32.32,0,0,1-.51,0c-6.37-8.6-6.19-22-1.16-31.49C199.65,211.42,200,211.89,200.65,211Z"/><path class="g" d="M206.26,213a4.89,4.89,0,0,0,5.36.5,1.58,1.58,0,0,0,.62-.52,1.51,1.51,0,0,0-.17-1.46,8.11,8.11,0,0,0-3.33-3.26,4.37,4.37,0,0,0,2.66-3.88,1.61,1.61,0,0,0-.54-1.39,2,2,0,0,0-1.38-.17,25.08,25.08,0,0,0-6.07,1.6,10.06,10.06,0,0,0,3.78-5.85c.13-.59.13-1.34-.38-1.59a1.3,1.3,0,0,0-.91,0,7.94,7.94,0,0,0-3.83,2.36,3.64,3.64,0,0,0-1.54-4,1.63,1.63,0,0,0-1.51-.19,2.18,2.18,0,0,0-.78.76,9.23,9.23,0,0,0-1.17,8.35A9.09,9.09,0,0,0,194,200a3,3,0,0,0-1.6-.62,3.79,3.79,0,0,0-2.45,1.13,1.23,1.23,0,0,0-.37.45,1,1,0,0,0,.22.92,9.46,9.46,0,0,0,2.59,2.72,3.85,3.85,0,0,0-4.94,1.43.72.72,0,0,0,0,.88,6.91,6.91,0,0,0,6.34,3.72,1.38,1.38,0,0,0-.67,0,9.93,9.93,0,0,0-2.85,1.53,3.44,3.44,0,0,0-1.31,2.85,1,1,0,0,0,.22.57,1,1,0,0,0,.57.29,4.62,4.62,0,0,0,3.46-.57c-.57,1-1.15,2.34-.58,3.3a2.14,2.14,0,0,0,3,.35,6.68,6.68,0,0,0,2.08-2.71c.25-.5.5-1,.73-1.49a14.3,14.3,0,0,0-.48,2.55c0,1.1.21,2.38,1.16,2.85a2.37,2.37,0,0,0,2.64-.75,7.49,7.49,0,0,0,1.37-2.66,2,2,0,0,0,2.69,1.4,2.9,2.9,0,0,0,1.66-3C207.26,214,207.33,213.47,206.26,213Z"/><path class="y" d="M199.18,208.54a1,1,0,0,1-.05-1.19l.35.54a2.33,2.33,0,0,1,.37-.46c.06-.05.14-.11.2-.07a.16.16,0,0,1,.07.12,1.21,1.21,0,0,1-.15.81,1,1,0,0,1,.61-.26.46.46,0,0,1,.47.37c0,.23-.24.46-.44.36l.44.32a.4.4,0,0,1,.14.18c.07.2-.17.4-.37.39a.87.87,0,0,1-.5-.3.77.77,0,0,1,.11.87.79.79,0,0,1-.7-.59.37.37,0,0,1-.57.25.39.39,0,0,1,.16-.62,2.38,2.38,0,0,1-1,.06.3.3,0,0,1-.19-.08c-.09-.1,0-.28.1-.35a.61.61,0,0,1,.4-.07,1.41,1.41,0,0,0-.39-.19.33.33,0,0,1-.21-.35c.07-.24.43-.2.6,0s.35.39.59.34"/><path class="aa" d="M168.69,44a1,1,0,0,1,.24-.39c.38-.3.9.13,1.17.53a12.22,12.22,0,0,1,2,7.19c.72-1.15,1-2.55,1.7-3.69a4.86,4.86,0,0,1,3-2.06,1.9,1.9,0,0,1,.75,0,1.46,1.46,0,0,1,1.05,1.34,3.4,3.4,0,0,1-.44,1.75A10.1,10.1,0,0,1,176,51.51a5.77,5.77,0,0,1,6.07,3.27.8.8,0,0,1,.08.6c-.11.28-.45.37-.75.41a19,19,0,0,1-6.2.3,8.67,8.67,0,0,1,2.7,4.1,1.72,1.72,0,0,1-.13,1.64,1.25,1.25,0,0,1-1.22.29,3,3,0,0,1-1.12-.66,12.11,12.11,0,0,1-2.95-3.65,9.26,9.26,0,0,1-.07,3.52A3.14,3.14,0,0,1,170,63.67a1.32,1.32,0,0,1-1-.22,1.78,1.78,0,0,1-.39-1.61,18.61,18.61,0,0,1,1.14-4.65A8.64,8.64,0,0,1,165.21,59a2.67,2.67,0,0,1-2.6-.94.93.93,0,0,1-.13-.69,1.28,1.28,0,0,1,.69-.7,16.13,16.13,0,0,1,6.44-2.09c-2.23-.71-4.66-1.61-5.75-3.68a1.61,1.61,0,0,1-.14-1.5,1.27,1.27,0,0,1,1.16-.56,2.91,2.91,0,0,1,1.27.46c.88.51,2.68,2,3.5,2.49A17.94,17.94,0,0,1,168.1,48,9.67,9.67,0,0,1,168.69,44Z"/><path class="y" d="M172.36,54.66a.39.39,0,0,0-.39-.31.83.83,0,0,0-.49.21c-.14.11-.27.27-.21.44.11.34.81.14.89.49-.2.24-.41.58-.23.83a.5.5,0,0,0,.7,0,1.54,1.54,0,0,0,.39-.68.55.55,0,0,0,.54.58.6.6,0,0,0,.56-.57.64.64,0,0,0-.52-.63.44.44,0,0,0,.52-.36.49.49,0,0,0-.41-.51.53.53,0,0,0-.55.36.51.51,0,0,0-.09-.64.45.45,0,0,0-.63,0,.41.41,0,0,0,.09.61"/><path class="m" d="M138.85,263.83a18.45,18.45,0,0,0,4.19-.63,27,27,0,0,0,12-6.3c.39.25.22.51-.49,1-3.12,2.34-5.95,5-9.65,6a23.65,23.65,0,0,1-5.78.62,18.87,18.87,0,0,1-3.27-.17,16.49,16.49,0,0,1-6-2.47c-1.59-1-4.05-2.33-5.24-3.94.89-.48,2,.82,2.82,1.39a29.22,29.22,0,0,0,3.74,2.36A16.42,16.42,0,0,0,138.85,263.83Z"/><path class="m" d="M157.43,256.57a1.45,1.45,0,0,0,.37-.8,1,1,0,0,0-.36-.86.76.76,0,0,0-.55,0,2.74,2.74,0,0,0-1.7,1,12,12,0,0,0-.82,2.15c.19-.48,1.11-.35,1.49-.44A2.55,2.55,0,0,0,157.43,256.57Z"/><path class="m" d="M153.83,261.64a2.82,2.82,0,0,0,1,.46,1,1,0,0,0,.95-.25.62.62,0,0,0,.19-.44.85.85,0,0,0-.2-.5,2.22,2.22,0,0,0-1.24-.75,11.18,11.18,0,0,0-1.48-.32c-.41-.06-1-.22-1.27.05C151.93,259.77,153.48,261.41,153.83,261.64Z"/><path class="m" d="M149.44,258.54a2.07,2.07,0,0,0-.07-.89c-.1-.29-.33-.55-.58-.56a.56.56,0,0,0-.42.2,2.93,2.93,0,0,0-.75,1.78,11.07,11.07,0,0,0,0,2.15c0,.35.05.71.1,1A5.94,5.94,0,0,0,149.44,258.54Z"/><path class="m" d="M140.33,261.87a4.11,4.11,0,0,0,1.16-3.11,1.09,1.09,0,0,0-.12-.4.62.62,0,0,0-.6-.23,2,2,0,0,0-1.45,1.1,6.43,6.43,0,0,0-.64,2,13,13,0,0,0-.33,2.94A26.44,26.44,0,0,0,140.33,261.87Z"/><path class="m" d="M135.5,260.39a3.59,3.59,0,0,0,.63-1.25,2.34,2.34,0,0,0-.1-1.52,1.15,1.15,0,0,0-.55-.63.85.85,0,0,0-.47-.06,3.44,3.44,0,0,0-2.41,1.9c-.58.95-1.08,2-1.65,2.92C132.63,263.42,134.47,261.8,135.5,260.39Z"/><path class="m" d="M144.9,261.86a4.59,4.59,0,0,0,1-2.94,1.33,1.33,0,0,0-.21-.68.66.66,0,0,0-.77-.22,1.56,1.56,0,0,0-.59.58,6.49,6.49,0,0,0-.91,3.75,6.47,6.47,0,0,1,0,1.46A8.67,8.67,0,0,0,144.9,261.86Z"/><path class="m" d="M152.06,256.28c-.15-.31-.49-.54-.74-.4a.64.64,0,0,0-.21.27,2.74,2.74,0,0,0,.1,1.92,21.5,21.5,0,0,1,.47,2.13A5.54,5.54,0,0,0,152.06,256.28Z"/><path class="m" d="M150.27,264a2.16,2.16,0,0,0,.79.26.79.79,0,0,0,.7-.31.51.51,0,0,0,.1-.24.78.78,0,0,0-.12-.46A2.35,2.35,0,0,0,150,262.1a4,4,0,0,0-2.06.07A19.82,19.82,0,0,0,150.27,264Z"/><path class="m" d="M145.69,265.85a3.6,3.6,0,0,0,1,.85c.35.17.79.18,1-.17a1.25,1.25,0,0,0-.23-1.08,5.84,5.84,0,0,0-2.16-1.78c-.36-.21-1.42-.77-1.16.1A7.19,7.19,0,0,0,145.69,265.85Z"/><path class="m" d="M139.33,266.38a3.58,3.58,0,0,0,1.71,1.51c.3.09.66.08.79-.22s-.1-.84-.36-1.18a8.12,8.12,0,0,0-1.67-1.69c-.24-.17-1.92-1.09-1.92-.59,0,.17.52.62.61.75C138.8,265.4,139,265.92,139.33,266.38Z"/><path class="m" d="M135,265.84a3.9,3.9,0,0,1,.7,2.39.88.88,0,0,1-.4.72.6.6,0,0,1-.35,0,2.23,2.23,0,0,1-1.51-1.31,11.07,11.07,0,0,1-.7-2.13c-.3-1.11-.74-2.15-1.14-3.22A9.27,9.27,0,0,1,135,265.84Z"/><path class="u" d="M35,107a18.1,18.1,0,0,1,7.92-7.45c.83-.4,1.7-.74,2.54-1.07.65-.25,1.33-.52,2-.8,4.48-2,8.74-6.77,11-10.62l.49.29c-2.27,3.93-6.63,8.81-11.23,10.85-.65.29-1.33.56-2,.81-.83.33-1.69.66-2.5,1a17.6,17.6,0,0,0-7.67,7.22Z"/><path class="u" d="M37.51,104.15a3.38,3.38,0,0,1-.52,2.68,3.23,3.23,0,0,1-1.38,1.47,1.72,1.72,0,0,1-2-.45,1.64,1.64,0,0,1-.16-1.71A3,3,0,0,1,34.64,105a8.78,8.78,0,0,1,2.93-1.14l-.17.51"/><path class="u" d="M42.91,104.25a2.89,2.89,0,0,1-.58,1.77,1.07,1.07,0,0,1-.81.34,1.24,1.24,0,0,1-.79-.42,2.25,2.25,0,0,1-.5-1.88,5.67,5.67,0,0,1,.71-1.77,9.47,9.47,0,0,1,1.19-2.06C43.08,101.21,43.06,103.05,42.91,104.25Z"/><path class="u" d="M37.93,98.82a1.78,1.78,0,0,0-1.64.67,1.22,1.22,0,0,0,.12,1.23,1.8,1.8,0,0,0,1.07.68,4.62,4.62,0,0,0,2-.06,13.41,13.41,0,0,0,2.06-.49c.76-.29.41-.75-.14-1.07A7,7,0,0,0,37.93,98.82Z"/><path class="u" d="M48.91,101.21a3,3,0,0,1-1.64,3,1.44,1.44,0,0,1-.89.09,1.58,1.58,0,0,1-1-1.32,4.63,4.63,0,0,1,.43-2.68,11.5,11.5,0,0,1,.92-1.55c.38-.53.48-.85,1-.27A5.1,5.1,0,0,1,48.91,101.21Z"/><path class="u" d="M45.05,95.73a3,3,0,0,0-3.37.34,1.43,1.43,0,0,0-.44.79,1.6,1.6,0,0,0,.83,1.41,4.58,4.58,0,0,0,2.64.65,9.87,9.87,0,0,0,1.79-.24c.63-.13,1-.1.62-.76A5.15,5.15,0,0,0,45.05,95.73Z"/><path class="u" d="M59.38,93.23a3,3,0,0,1-1.64,3,1.4,1.4,0,0,1-.9.08,1.57,1.57,0,0,1-1-1.31,4.53,4.53,0,0,1,.44-2.68,9.31,9.31,0,0,1,.92-1.55c.37-.54.47-.86.94-.28A5.22,5.22,0,0,1,59.38,93.23Z"/><path class="u" d="M55.51,87.74a3,3,0,0,0-3.37.35,1.37,1.37,0,0,0-.44.78,1.58,1.58,0,0,0,.84,1.41,4.54,4.54,0,0,0,2.63.66A10.84,10.84,0,0,0,57,90.7c.63-.13,1-.1.62-.76A5.17,5.17,0,0,0,55.51,87.74Z"/><path class="u" d="M50.38,91.68a3.54,3.54,0,0,0-4-.64,1.69,1.69,0,0,0-.75.77,1.9,1.9,0,0,0,.53,1.89A5.51,5.51,0,0,0,49,95.27a12.78,12.78,0,0,0,2.14.27c.77,0,1.15.19,1-.68A6.18,6.18,0,0,0,50.38,91.68Z"/><path class="u" d="M55.2,98a3.53,3.53,0,0,1-1.64,3.71,1.68,1.68,0,0,1-1.05.2,1.88,1.88,0,0,1-1.3-1.46,5.45,5.45,0,0,1,.23-3.24,11.62,11.62,0,0,1,.93-2c.38-.68.47-1.07,1.09-.43A6.11,6.11,0,0,1,55.2,98Z"/><path class="l" d="M37.49,191.72a13.27,13.27,0,0,1-4.84-2.41,14,14,0,0,1-3.57-3.61c-5-7.61-7.8-15.66-7.25-24a15.6,15.6,0,0,1,.71-3.35.38.38,0,0,1,.57-.15c11,6.87,16.78,20.55,15.42,31.6C38.39,191,37.77,190.6,37.49,191.72Z"/><path class="af" d="M35.89,196.11c-2.28-5.37-7-9.73-11.84-12.38a16,16,0,0,0-5.74-1.42.88.88,0,0,0-.89.81,9.11,9.11,0,0,0,.54,3.95c1.68,4.76,3.48,7.94,6.24,10.79A37.63,37.63,0,0,0,32.94,204c1.86,1.06,5.15,3.23,5.56-.3C38.8,201.18,36.83,198.34,35.89,196.11Z"/><path class="v" d="M36.89,224.43a6.91,6.91,0,0,1-4.49,4,12.83,12.83,0,0,1-.78-9.19A5.81,5.81,0,0,1,28,221.87a14.48,14.48,0,0,1-4.55.29,11.11,11.11,0,0,1,3.84-7.71,4.13,4.13,0,0,1-3.31-1,12.49,12.49,0,0,1-2.28-2.73,1,1,0,0,1-.24-.65.93.93,0,0,1,.32-.52,5.4,5.4,0,0,1,3.42-1.72,3,3,0,0,1,3,2,9.53,9.53,0,0,1,0-8.15c3.45.15,6,3.43,7,6.73.83,2.69,1,5.52,1.69,8.25S38,221.85,36.89,224.43Z"/><path class="ag" d="M31.54,211.52c.44.43.87.87,1.3,1.31L31.7,213c-.2,0-.44.11-.48.3a.39.39,0,0,0,.23.39,3.36,3.36,0,0,0,.45.14,1.07,1.07,0,0,1,.61.57,4.37,4.37,0,0,0-.76.43.46.46,0,0,0-.25.33.34.34,0,0,0,.25.3,1.2,1.2,0,0,0,.42,0,1.07,1.07,0,0,1,.59.13.46.46,0,0,1,.21.52,1.24,1.24,0,0,1-.19.26.94.94,0,0,0,.16,1.27.44.44,0,0,0,.54.06.35.35,0,0,0,.11-.13L34.71,216a3.64,3.64,0,0,0,.63-1.24C35.74,213,33.16,210.93,31.54,211.52Z"/><path class="ah" d="M52.53,204.6c3.35-4,3.85-9.92,7.5-13.66"/><path class="x" d="M60.94,191.26a3.91,3.91,0,0,0,2.37-4.09,2.46,2.46,0,0,0-.42-1.09,1.38,1.38,0,0,0-1-.59,2,2,0,0,0-1.55.8,4.71,4.71,0,0,0-1.3,4.32c.08.3.16,1.13.51,1.17.15,0,.53-.23.68-.28Z"/><path class="x" d="M56.75,196.18l0,0A6.83,6.83,0,0,1,61.81,194a1.55,1.55,0,0,1,1.35.52A1.32,1.32,0,0,1,63,196a3.33,3.33,0,0,1-1.77,1.16,5.46,5.46,0,0,1-2.13.14,3.84,3.84,0,0,1-1.07-.22A2.77,2.77,0,0,1,56.75,196.18Z"/><path class="x" d="M56.1,200.68a8,8,0,0,1,2.5-.57,1.93,1.93,0,0,1,1.75.51,1.36,1.36,0,0,1-.27,1.7,3.42,3.42,0,0,1-1.69.78,6.94,6.94,0,0,1-2.31.23c-.5-.05-2.4-.52-1.89-1A6.83,6.83,0,0,1,56.1,200.68Z"/><path class="x" d="M53.14,195.3a.78.78,0,0,0-.56-.23.59.59,0,0,0-.3.14,1.55,1.55,0,0,0-.57,1.11,2.61,2.61,0,0,0,.1.78,7,7,0,0,0,1,2.13c.3.45,1.78,2.36,2,1.78a9,9,0,0,0-.19-3.82A5.24,5.24,0,0,0,53.14,195.3Z"/><path class="x" d="M57.47,194.4a.29.29,0,0,1-.09.29c-.07.05-.15.21-.07.24a13.49,13.49,0,0,0,.42-2.67,4.44,4.44,0,0,0-.68-2.57,1.35,1.35,0,0,0-1.18-.69,1,1,0,0,0-.62.35,2.22,2.22,0,0,0-.34,2.2,10.1,10.1,0,0,0,1.13,2A4.85,4.85,0,0,0,57.17,195"/><path class="ai" d="M53.21,219.3A30.9,30.9,0,0,1,61.73,228a.47.47,0,0,1-.08.79,5.14,5.14,0,0,1-3.62.89,11.74,11.74,0,0,1-3.64-1.12,19,19,0,0,1-5.63-3.62c-1.38-1.36-3.6-4-1.7-5.82C48.78,217.46,51.6,218.31,53.21,219.3Z"/><path class="ai" d="M48.08,222.56a23.7,23.7,0,0,1,3.38,13.38.83.83,0,0,1-.22.62.69.69,0,0,1-.58,0,10,10,0,0,1-5-3.82,16.6,16.6,0,0,1-2.25-4.19c-.9-2.49-2.11-8.07-1-10.4C43.85,215,47.18,221.06,48.08,222.56Z"/><g class="aj"><path class="ak" d="M57.73,227.2a23.6,23.6,0,0,1-7.65-5.4c1.26.94,2.48,1.9,3.76,2.79S56.42,226.33,57.73,227.2Z"/></g><g class="aj"><path class="ak" d="M49,232.39a26.4,26.4,0,0,1-2.22-3.87,15.72,15.72,0,0,1-1.26-4.28,38.72,38.72,0,0,0,1.59,4.13C47.73,229.73,48.45,231,49,232.39Z"/></g><path class="al" d="M40,218.57a.5.5,0,0,1,.15-.14c.2-.09.38.16.46.37a5.63,5.63,0,0,1,0,3.42c.45-.42.72-1,1.18-1.43a2.23,2.23,0,0,1,1.57-.57.81.81,0,0,1,.34.08A.67.67,0,0,1,44,221a1.52,1.52,0,0,1-.41.73,4.45,4.45,0,0,1-1.3,1,2.65,2.65,0,0,1,2.31,2.16.38.38,0,0,1,0,.28.39.39,0,0,1-.38.09,8.53,8.53,0,0,1-2.78-.59,4,4,0,0,1,.72,2.13.77.77,0,0,1-.25.71.56.56,0,0,1-.57,0,1.44,1.44,0,0,1-.43-.42,5.63,5.63,0,0,1-.87-2,4.09,4.09,0,0,1-.45,1.55,1.42,1.42,0,0,1-1.33.76.57.57,0,0,1-.41-.21.82.82,0,0,1,0-.76,9,9,0,0,1,1-1.93,4,4,0,0,1-2.23.26,1.22,1.22,0,0,1-1-.72.44.44,0,0,1,0-.32.58.58,0,0,1,.39-.23,7.37,7.37,0,0,1,3.1-.18,4.17,4.17,0,0,1-2.12-2.3.77.77,0,0,1,.11-.68.6.6,0,0,1,.59-.11,1.23,1.23,0,0,1,.5.35c.33.33.95,1.21,1.26,1.51a8.37,8.37,0,0,1-.25-1.85A4.66,4.66,0,0,1,40,218.57Z"/><path class="y" d="M40,223.14a.16.16,0,0,0-.14-.18.34.34,0,0,0-.24,0c-.07,0-.15.08-.14.16s.34.16.34.33-.25.21-.2.34a.22.22,0,0,0,.3.1.63.63,0,0,0,.25-.26.26.26,0,0,0,.17.32.28.28,0,0,0,.32-.19.29.29,0,0,0-.16-.34.2.2,0,0,0,.28-.1.22.22,0,0,0-.13-.27.18.18,0,1,1-.24-.2.22.22,0,0,0-.29-.06.19.19,0,0,0,0,.28"/><path class="l" d="M42.69,180.6a39,39,0,0,1,5.15-5.36,27.32,27.32,0,0,1,5-3.13.38.38,0,0,1,.54.33c.36,6.22-2.91,12.24-7.29,16.71-1.39,1.42-7.07,6.58-8.65,2.68C36.24,188.8,40.85,182.67,42.69,180.6Z"/><path class="am" d="M52.3,215.77c5,.77,11.77,3.27,15.2,8.14"/><path class="an" d="M58,222.55a3.88,3.88,0,0,0,.82,2.13,1.58,1.58,0,0,0,2.08.29,2.27,2.27,0,0,0,.59-1.2,6.31,6.31,0,0,0,0-4.16,6.6,6.6,0,0,0-.67-1.1c-.19-.27-.39-.55-.61-.81-1.18-1.34-1.63-.74-2.06.77A10,10,0,0,0,58,222.55Z"/><path class="an" d="M62,215.26a30.43,30.43,0,0,1,3-1,4.15,4.15,0,0,1,2.23-.13,1.32,1.32,0,0,1,.78.6,1.19,1.19,0,0,1-.14,1.19,3,3,0,0,1-1,.8,11.72,11.72,0,0,1-3.57,1.36c-.79.17-3.61.54-4-.56S61.33,215.53,62,215.26Z"/><path class="an" d="M65.51,225.24a5.13,5.13,0,0,0,2.95,1.67,3.12,3.12,0,0,0,1.29.07,2.19,2.19,0,0,0,1.56-1.41,3.06,3.06,0,0,0-.08-2.15,5.1,5.1,0,0,0-4.37-2.91c-1.37-.12-1.88.25-2.07,1.58A4.15,4.15,0,0,0,65.51,225.24Z"/><path class="ao" d="M38.35,186.27a.67.67,0,0,1,.25-.25c.35-.15.66.27.78.63a9.47,9.47,0,0,1,.08,5.84c.78-.73,1.24-1.74,2-2.45a3.82,3.82,0,0,1,2.68-1,1.62,1.62,0,0,1,.57.12,1.15,1.15,0,0,1,.53,1.23,2.57,2.57,0,0,1-.69,1.23,7.55,7.55,0,0,1-2.22,1.75,4.51,4.51,0,0,1,3.93,3.69.63.63,0,0,1,0,.47.68.68,0,0,1-.65.16,15,15,0,0,1-4.75-1,6.7,6.7,0,0,1,1.22,3.64,1.34,1.34,0,0,1-.42,1.21,1,1,0,0,1-1,0,2.25,2.25,0,0,1-.72-.72,9.41,9.41,0,0,1-1.5-3.34,7.06,7.06,0,0,1-.76,2.64,2.43,2.43,0,0,1-2.27,1.29,1,1,0,0,1-.7-.36,1.37,1.37,0,0,1,0-1.29,14.56,14.56,0,0,1,1.79-3.29,6.69,6.69,0,0,1-3.8.43,2.07,2.07,0,0,1-1.78-1.23.72.72,0,0,1,0-.54,1,1,0,0,1,.66-.4,12.6,12.6,0,0,1,5.29-.29c-1.54-1-3.2-2.15-3.61-3.93a1.25,1.25,0,0,1,.19-1.16,1,1,0,0,1,1-.19,2.24,2.24,0,0,1,.87.59c.56.57,1.62,2.06,2.15,2.58a14,14,0,0,1-.43-3.15A7.57,7.57,0,0,1,38.35,186.27Z"/><path class="y" d="M39,195.07a.31.31,0,0,0-.24-.31.65.65,0,0,0-.41.06c-.13.05-.26.15-.25.29s.59.27.58.55c-.2.14-.42.36-.34.58a.39.39,0,0,0,.52.17,1.18,1.18,0,0,0,.43-.43.44.44,0,0,0,.29.54.47.47,0,0,0,.54-.32.51.51,0,0,0-.27-.58.35.35,0,0,0,.47-.17.38.38,0,0,0-.21-.46.41.41,0,0,0-.49.16.42.42,0,0,0,.07-.51.36.36,0,0,0-.49-.1.33.33,0,0,0,0,.48"/><path class="v" d="M115.29,38.64a8.93,8.93,0,0,1-3.15-7.18,16.63,16.63,0,0,1,11.64,2.79,7.54,7.54,0,0,1-1.7-5.53A18.84,18.84,0,0,1,123.59,23a14.46,14.46,0,0,1,7.93,7.88,5.39,5.39,0,0,1,2.59-3.66,16.26,16.26,0,0,1,4.29-1.69,1.33,1.33,0,0,1,.9,0,1.19,1.19,0,0,1,.51.61,7,7,0,0,1,.71,4.92A3.89,3.89,0,0,1,136.84,34a12.32,12.32,0,0,1,10,3.35c-1.6,4.18-6.67,5.94-11.15,5.85-3.66-.07-7.22-1-10.86-1.28C121.39,41.63,118,41.05,115.29,38.64Z"/><path class="ag" d="M134.4,38.43l-2.25.85.39-1.45c.07-.26.11-.58-.1-.74a.51.51,0,0,0-.58.08,4.49,4.49,0,0,0-.41.46,1.37,1.37,0,0,1-1,.43,6.29,6.29,0,0,0-.11-1.14.58.58,0,0,0-.26-.46.46.46,0,0,0-.5.13,1.72,1.72,0,0,0-.26.48,1.46,1.46,0,0,1-.46.63.6.6,0,0,1-.73,0,1.31,1.31,0,0,1-.21-.36,1.23,1.23,0,0,0-1.59-.48.58.58,0,0,0-.36.61.81.81,0,0,0,.1.21l1.37,2.2a5,5,0,0,0,1.15,1.4C130.45,42.64,134.24,40.65,134.4,38.43Z"/><path class="ap" d="M216.33,136.75c-3.41,4.6-3.89,10.89-7.59,15.24"/><path class="x" d="M207.8,151.76a4.64,4.64,0,0,0-2.4,4.58,2.38,2.38,0,0,0,.43,1.1,1.27,1.27,0,0,0,1,.51,2.31,2.31,0,0,0,1.58-1,5.48,5.48,0,0,0,1.3-4.7c-.08-.3-.16-1.17-.53-1.17-.14,0-.53.3-.68.37S208,151.64,207.8,151.76Z"/><path class="x" d="M212.06,146.1l0,0A7.75,7.75,0,0,1,206.9,149a1.44,1.44,0,0,1-1.39-.39,1.52,1.52,0,0,1,.21-1.59,3.93,3.93,0,0,1,1.8-1.42,5.68,5.68,0,0,1,2.18-.39,3.61,3.61,0,0,1,1.09.11A2.48,2.48,0,0,1,212.06,146.1Z"/><path class="x" d="M212.7,141.28a8.51,8.51,0,0,1-2.55.89c-.65.12-1.4.16-1.79-.34a1.53,1.53,0,0,1,.27-1.83,4,4,0,0,1,1.72-1,7.55,7.55,0,0,1,2.36-.5c.51,0,2.45.28,1.93.88A7.91,7.91,0,0,1,212.7,141.28Z"/><path class="x" d="M215.75,146.62a.68.68,0,0,0,.57.18.78.78,0,0,0,.3-.18,1.88,1.88,0,0,0,.58-1.24,2.44,2.44,0,0,0-.11-.81,6.49,6.49,0,0,0-1-2.13c-.31-.44-1.84-2.28-2-1.66a9.75,9.75,0,0,0,.21,4A4.8,4.8,0,0,0,215.75,146.62Z"/><path class="x" d="M211.33,148.06a.33.33,0,0,1,.09-.31c.07-.07.15-.25.07-.26a14.62,14.62,0,0,0-.41,2.85,4.36,4.36,0,0,0,.7,2.63,1.21,1.21,0,0,0,1.21.6,1.3,1.3,0,0,0,.63-.44,2.46,2.46,0,0,0,.33-2.35,9,9,0,0,0-1.16-2,4.22,4.22,0,0,0-1.15-1.39"/><path class="af" d="M215.77,145.83c.25,6.72,3.59,13.39,7.67,18.23A18.18,18.18,0,0,0,229,168a1,1,0,0,0,1.29-.5,10.47,10.47,0,0,0,1-4.48c.15-5.84-.47-10-2.27-14.22-1.62-3.8-4.28-7-6.9-10.23-1.57-1.91-4.22-5.61-6.12-2C214.72,139.15,215.67,143,215.77,145.83Z"/><path class="n" d="M206.9,119.11l-.91-.27"/><path class="v" d="M235.31,117.44a8,8,0,0,1,7-.07,14.81,14.81,0,0,1-6.36,8.55,6.69,6.69,0,0,1,5.12.54,16.86,16.86,0,0,1,4.16,3.23,12.89,12.89,0,0,1-9.22,3.73,4.83,4.83,0,0,1,2.09,3.4,14.53,14.53,0,0,1-.12,4.11,1.13,1.13,0,0,1-.28.74,1.07,1.07,0,0,1-.68.2,6.2,6.2,0,0,1-4.28-1.13,3.48,3.48,0,0,1-1.12-4,11,11,0,0,1-6.24,7.05c-2.87-2.77-2.53-7.54-.89-11.17,1.33-3,3.35-5.55,4.84-8.44S232.39,118.84,235.31,117.44Z"/><path class="ag" d="M230.05,132.69c0-.71-.08-1.42-.11-2.13l1.12.72c.2.13.46.25.65.11a.43.43,0,0,0,.09-.51,4.48,4.48,0,0,0-.28-.47,1.19,1.19,0,0,1-.09-1,4.73,4.73,0,0,0,1,.22.53.53,0,0,0,.46-.1.41.41,0,0,0,0-.46,1.41,1.41,0,0,0-.34-.35,1.19,1.19,0,0,1-.4-.56.53.53,0,0,1,.21-.61,1.53,1.53,0,0,1,.37-.08,1.09,1.09,0,0,0,.83-1.22c0-.22-.19-.46-.42-.47a.64.64,0,0,0-.2,0l-2.23.58a4.22,4.22,0,0,0-1.51.59C227.54,128.22,228.21,132,230.05,132.69Z"/><path class="p" d="M217.27,109.38a35.56,35.56,0,0,1-.73-14,.72.72,0,0,1,.25-.55.67.67,0,0,1,.42-.07,5.91,5.91,0,0,1,3.82,2,13.86,13.86,0,0,1,2.3,3.75,22.13,22.13,0,0,1,2.09,7.44c.15,2.23,0,6.22-3,6.33C219.69,114.37,217.9,111.47,217.27,109.38Z"/><path class="p" d="M224.2,110.49a27.27,27.27,0,0,1,7.32-14.16,1,1,0,0,1,.66-.37c.23,0,.39.23.52.44a11.45,11.45,0,0,1,1.38,7.1,19.32,19.32,0,0,1-1.26,5.35c-1.13,2.85-4.35,8.6-7.06,9.8C222.07,120.27,223.83,112.48,224.2,110.49Z"/><path class="z" d="M219.83,126.34c2.42-1,4.95-2.3,6.18-4.62a9.35,9.35,0,0,0,.56-6.14,2.94,2.94,0,0,0-.39-1.12c-.71-1-2.2-.87-3.42-1.06a21,21,0,0,1-3.17-1,4,4,0,0,0-3.24.06,4.4,4.4,0,0,0-1.77,3.21,16.53,16.53,0,0,0,.95,9A3.52,3.52,0,0,0,219.83,126.34Z"/><path class="z" d="M217.3,117.3c-.48-2.43-1.55-5.06-3.8-5.81-2-.67-4.18.42-5.85,1.81a4.8,4.8,0,0,0-1.33,1.54,19.35,19.35,0,0,0-.54,1.88c-.24.74-.69,1.39-.92,2.13a7.74,7.74,0,0,0,.25,4.15,5.07,5.07,0,0,0,1,2.37c1.06,1.09,2.78.89,4.28.91,2,0,5.48,2.17,6.9,0S217.74,119.53,217.3,117.3Z"/><path class="z" d="M205.74,123.07a10,10,0,0,0-2.07.42,3.81,3.81,0,0,0-1,6.7,9.52,9.52,0,0,1,1.87,1.62c.66,1,.53,2.28,1.56,3a4.14,4.14,0,0,0,2.83.33c4.19-.56,6.6-3.52,6.28-7.15a7.84,7.84,0,0,0-3-4.91C210.58,122,207.66,122.83,205.74,123.07Z"/><path class="z" d="M212,133.37c.38.79.94,1.48,1.31,2.28a13.36,13.36,0,0,0,.6,1.34,4,4,0,0,0,2.95,1.69,7.27,7.27,0,0,0,7-3.63,4.45,4.45,0,0,0,.63-1.68,6.35,6.35,0,0,0-.41-2.61l-.66-2.14a2.16,2.16,0,0,0-.43-.87,2,2,0,0,0-.94-.47c-1.88-.59-3.88-1.17-5.8-.72C213.42,127.21,210.6,130.45,212,133.37Z"/><path class="z" d="M223.44,131.3a.69.69,0,0,0,.22,1,2,2,0,0,0,1.08.23c.84,0,1.85-.07,2.23-.82.14-.27.16-.59.29-.87.3-.63,1.05-.89,1.63-1.28a5.35,5.35,0,0,0,2-3.83,2.43,2.43,0,0,0,0-.76,2.27,2.27,0,0,0-.39-.85,36.39,36.39,0,0,0-2.79-3.83c-1.2-1.44-3.35-1.47-5-.77s-4.4,2.36-5.12,4.28c-.78,2.11,1.36,4.73,2.48,6.36A5.79,5.79,0,0,0,221.8,132a2.26,2.26,0,0,0,2.41,0,22.63,22.63,0,0,0,2-1.14,4.86,4.86,0,0,1,2-1.4,4.54,4.54,0,0,0,2.55-1.86,3.36,3.36,0,0,0,.28-3.09,5.87,5.87,0,0,0-1-1.36L228.21,121a5,5,0,0,0-3-1.94"/><g class="aj"><path class="ak" d="M219.4,99.09a28.42,28.42,0,0,1,1.75,5.15,28.79,28.79,0,0,1,.74,5.38c-.35-1.78-.66-3.55-1.1-5.3S219.89,100.84,219.4,99.09Z"/></g><g class="aj"><path class="ak" d="M231.61,99.23a30.11,30.11,0,0,1-.9,6.25,13.7,13.7,0,0,1-2.86,5.6,18.51,18.51,0,0,0,2.51-5.7C230.93,103.37,231.21,101.29,231.61,99.23Z"/></g><path class="aq" d="M219.83,143.94a13.4,13.4,0,0,1,2.19,3.58c.61,1.25,1.2,2.53,1.76,3.81a77.65,77.65,0,0,1,2.81,7.92c-.92-2.65-1.86-5.28-3-7.85-.54-1.29-1.1-2.57-1.7-3.83A15.91,15.91,0,0,0,219.83,143.94Z"/><path class="aq" d="M223.24,150.26a10.41,10.41,0,0,1,.11,2.3,10.17,10.17,0,0,1-.45,2.26,26.07,26.07,0,0,0,.34-4.56Z"/><path class="aq" d="M225.09,154.73a5.25,5.25,0,0,1-.13,2.75c-.14.45-.31.88-.48,1.3s-.3.93-.74,1.15c.39-.27.45-.78.63-1.19s.3-.87.42-1.31A6.49,6.49,0,0,0,225.09,154.73Z"/><path class="aq" d="M221.41,146.47a12.9,12.9,0,0,1,.34,2.64,5.65,5.65,0,0,1-.56,2.59,7.18,7.18,0,0,0,.38-2.59A26,26,0,0,0,221.41,146.47Z"/><path class="aq" d="M225.09,154.77a7,7,0,0,0,2,1.34,7.5,7.5,0,0,0,2.27.71,5.39,5.39,0,0,1-4.23-2Z"/><path class="aq" d="M223.11,150.26a8.91,8.91,0,0,0,1.79,1.23,3.34,3.34,0,0,0,1,.32,1.65,1.65,0,0,0,1-.11,1.39,1.39,0,0,1-1.07.23,3.66,3.66,0,0,1-1.08-.28A6,6,0,0,1,223.11,150.26Z"/><path class="aq" d="M221.32,146.44a11,11,0,0,0,1.86.82,10.18,10.18,0,0,0,2,.51,6.39,6.39,0,0,1-2-.33A6.48,6.48,0,0,1,221.32,146.44Z"/><path class="al" d="M228.17,120.15a.39.39,0,0,1-.24,0c-.24-.08-.21-.43-.11-.67a6.42,6.42,0,0,1,2.58-3c-.72,0-1.41.32-2.13.33a2.6,2.6,0,0,1-1.79-.72,1,1,0,0,1-.23-.31.78.78,0,0,1,.28-.86,1.69,1.69,0,0,1,.9-.32,5.33,5.33,0,0,1,1.91.11,3.06,3.06,0,0,1-.34-3.63.41.41,0,0,1,.25-.22c.15,0,.29.09.4.21a10.44,10.44,0,0,1,1.95,2.64,4.52,4.52,0,0,1,1-2.39.9.9,0,0,1,.76-.42.63.63,0,0,1,.48.45,1.46,1.46,0,0,1,0,.69,6.19,6.19,0,0,1-.74,2.37,4.93,4.93,0,0,1,1.57-1,1.65,1.65,0,0,1,1.73.36.66.66,0,0,1,.2.5c0,.3-.32.5-.59.64a10.22,10.22,0,0,1-2.39.87,4.61,4.61,0,0,1,2.13,1.48,1.43,1.43,0,0,1,.35,1.42.49.49,0,0,1-.27.26.67.67,0,0,1-.51-.09,8.57,8.57,0,0,1-2.81-2.22,4.85,4.85,0,0,1,.07,3.61.86.86,0,0,1-.62.5.65.65,0,0,1-.59-.35,1.5,1.5,0,0,1-.17-.69c0-.54.1-1.77.07-2.27a10.18,10.18,0,0,1-1.2,1.79A5.21,5.21,0,0,1,228.17,120.15Z"/><path class="y" d="M231.61,116.14a.2.2,0,0,0,0,.27.41.41,0,0,0,.23.15.24.24,0,0,0,.26,0c.11-.15-.18-.4-.05-.54.17,0,.37,0,.44-.14a.27.27,0,0,0-.19-.32.76.76,0,0,0-.42,0,.3.3,0,0,0,.1-.41.31.31,0,0,0-.42-.08.34.34,0,0,0-.12.41.23.23,0,0,0-.31-.12.26.26,0,0,0-.11.33.3.3,0,0,0,.33.14.28.28,0,0,0-.27.22.26.26,0,0,0,.2.28.24.24,0,0,0,.25-.23"/><path class="am" d="M215.64,113a17.69,17.69,0,0,1-7-15.25"/><path class="an" d="M215.53,104.87a3.94,3.94,0,0,0,.68-2.26,1.61,1.61,0,0,0-1.52-1.54,2.33,2.33,0,0,0-1.24.6,6.6,6.6,0,0,0-2.64,3.39,7.41,7.41,0,0,0-.14,1.33,9.2,9.2,0,0,0,0,1c.11,1.84.86,1.63,2.16.67A10.32,10.32,0,0,0,215.53,104.87Z"/><path class="an" d="M207.62,108.28a29.79,29.79,0,0,1-3-1.1,4.05,4.05,0,0,1-1.9-1.31,1.33,1.33,0,0,1-.27-1,1.23,1.23,0,0,1,.87-.88,3.06,3.06,0,0,1,1.28-.05,11.9,11.9,0,0,1,3.78,1.14c.75.36,3.3,1.85,2.93,3S208.37,108.51,207.62,108.28Z"/><path class="an" d="M211.09,97.93a5.22,5.22,0,0,0-1.35-3.23,3.33,3.33,0,0,0-1-.87,2.29,2.29,0,0,0-2.18.16,3.14,3.14,0,0,0-1.29,1.81,5.25,5.25,0,0,0,1.73,5.14c1.05,1,1.69,1,2.69,0A4.3,4.3,0,0,0,211.09,97.93Z"/><path class="aa" d="M119.5,248a.88.88,0,0,1,.24-.39c.37-.3.89.13,1.16.53a12.12,12.12,0,0,1,2,7.18c.72-1.14,1-2.55,1.7-3.68a4.88,4.88,0,0,1,3-2.06,1.84,1.84,0,0,1,.74,0,1.47,1.47,0,0,1,1,1.35,3.33,3.33,0,0,1-.44,1.75,9.75,9.75,0,0,1-2.18,2.88,5.78,5.78,0,0,1,6.07,3.28.76.76,0,0,1,.08.6c-.11.28-.45.37-.75.41a19,19,0,0,1-6.19.3,8.58,8.58,0,0,1,2.69,4.1,1.67,1.67,0,0,1-.13,1.63,1.19,1.19,0,0,1-1.21.29,2.88,2.88,0,0,1-1.13-.66,11.77,11.77,0,0,1-2.94-3.64,9.2,9.2,0,0,1-.08,3.51,3.1,3.1,0,0,1-2.38,2.34,1.34,1.34,0,0,1-1-.21,1.78,1.78,0,0,1-.38-1.61,18.18,18.18,0,0,1,1.14-4.65A8.68,8.68,0,0,1,116,263a2.68,2.68,0,0,1-2.61-.94.94.94,0,0,1-.13-.69,1.31,1.31,0,0,1,.69-.7,16.35,16.35,0,0,1,6.44-2.1c-2.22-.7-4.65-1.61-5.74-3.67a1.62,1.62,0,0,1-.15-1.5,1.27,1.27,0,0,1,1.17-.56,3,3,0,0,1,1.27.46c.87.51,2.67,2,3.49,2.48A18.25,18.25,0,0,1,118.9,252,9.45,9.45,0,0,1,119.5,248Z"/><path class="y" d="M123.17,258.71a.39.39,0,0,0-.4-.31.83.83,0,0,0-.49.21c-.13.11-.26.27-.21.43.12.35.82.15.9.5-.2.24-.41.58-.24.83a.5.5,0,0,0,.7,0,1.45,1.45,0,0,0,.39-.68.55.55,0,0,0,.54.58.61.61,0,0,0,.57-.57.66.66,0,0,0-.53-.63.44.44,0,0,0,.52-.37.48.48,0,0,0-.41-.5.53.53,0,0,0-.55.36.54.54,0,0,0-.08-.65.48.48,0,0,0-.64,0,.42.42,0,0,0,.09.61"/><path class="ar" d="M115.51,142.5a166,166,0,0,0-16.32,5.14c-2.67,1-5.32,2.05-7.94,3.19-1.31.57-2.61,1.15-3.9,1.76-.64.31-1.3.59-1.91.95A3.36,3.36,0,0,0,84,155l0,0,1.27-.4L84,155h0v0a3.56,3.56,0,0,1,1.46-1.54,20.23,20.23,0,0,1,1.91-1c1.29-.62,2.59-1.21,3.89-1.78,2.61-1.16,5.25-2.25,7.93-3.24A143.79,143.79,0,0,1,115.51,142.5Z"/><path class="as" d="M150.87,59.42a25.63,25.63,0,0,0-2-2.66.26.26,0,0,0-.35,0c-.14.1-.12.29-.08.44a7.6,7.6,0,0,0,1.6,3.21,3.19,3.19,0,0,1,.53.72,5.72,5.72,0,0,1,.25,3,7.29,7.29,0,0,0-2.24-2.35.15.15,0,0,0-.2.13,2.54,2.54,0,0,0,.28,1.4A17.55,17.55,0,0,0,153,69.59c.84.76.5,2.13.25,3.36q-1.08,5.28-1.71,10.66a69.29,69.29,0,0,1-1.7,7.73A16.22,16.22,0,0,1,146.07,98c-1,1.18-1.66,2.46-2.83,3.8-2.08,2.38-5.15,5.77-7.36,8.15a17.42,17.42,0,0,0-.08,4.13,10.57,10.57,0,0,0,1,4.31c.69,1.3,0,2.63.43,4.09l-.19,1a71.82,71.82,0,0,1,5.33-9.65c2.8-4.27,5.87-7.87,8.56-12.4a43.57,43.57,0,0,0,3.52-6,23.8,23.8,0,0,0,1.43-5.53c.64-4.41.34-8.87.51-13.32.06-1.73.2-3.47.14-5.19a22.55,22.55,0,0,0-7.19-15.74c-.16.34,0,.68.15,1,.61,1.61,1.65,2.86,2.3,4.27"/><path class="as" d="M136.63,109.3c-1,.71-2.63,2.68-3.7,2.59s-2-1.24-1.56-2.17c0,0,.19-1.39.2-1.41-.67-.17-1.53.68-2.11.44a12,12,0,0,1-4-2.11,12.4,12.4,0,0,1,.16,3.39,2.26,2.26,0,0,1-.45,1.53,1,1,0,0,1-1.51,0c-.59-.61-2.76-2.69-3.4-3.43-.41,1.62,1.63,4.85,1.81,6.35a9,9,0,0,0,1.12,3.39,4.86,4.86,0,0,0,1.55,1.73,5,5,0,0,0,2.39.66,9.44,9.44,0,0,0,6.13-1.85c1.72-1.29,3.34-2.59,3.75-4.66a5.87,5.87,0,0,0-.44-2.35C136.38,110.89,137.24,109.29,136.63,109.3Z"/><path class="as" d="M109.79,59A28.28,28.28,0,0,1,112,56.39a.25.25,0,0,1,.35,0c.14.11.1.3.06.46A7.65,7.65,0,0,1,110.62,60a3.13,3.13,0,0,0-.56.69,5.89,5.89,0,0,0-.42,3A7.38,7.38,0,0,1,112,61.44a.15.15,0,0,1,.19.14,2.68,2.68,0,0,1-.35,1.4,17.79,17.79,0,0,1-4.69,6.09c-.88.72-.62,2.12-.43,3.37.55,3.58.94,7.19,1.18,10.81a68.18,68.18,0,0,0,1.31,7.86c.63,3.45,2.44,6.15,4.37,9a45.36,45.36,0,0,0,6.41,7.77,13.23,13.23,0,0,1,1.32,1.8,11,11,0,0,1,1.64,4.77c0,1.71-2.23,2.7-3,4-.67,1.11.37,2.29-.12,3.37-.76-1-1.68-1.57-2.44-2.65s-1.35-3-2.12-4.18c-2.06-3.16-3.56-6.72-5.37-10.06s-4.21-6.31-5.49-10a23.75,23.75,0,0,1-1.14-5.63c-.42-4.47.11-9,.17-13.42,0-1.75,0-3.5.12-5.24a22.66,22.66,0,0,1,8-15.44c.15.34-.06.68-.2,1-.69,1.59-1.8,2.65-2.53,4"/><path class="n" d="M121.16,211.5a10.12,10.12,0,0,1,1.4-2"/><path class="as" d="M135,181.69a252.56,252.56,0,0,0-7.35,28.53c-2.06,9.69-4.82,24.73-8,26.95l-1.34.88c-.5.31-.68-1-.48-1.81,1.27-5.44-6.72-11.27,0-12.91,1.63-.4,1.89-3.9,2.18-5,.66-2.42.22-3.93.08-6.4a37.92,37.92,0,0,1,1.21-13.21c.7-2.58,2.12-4.84,2.46-7.52,1.11-8.86.06-15.77.88-24.43a11,11,0,0,1,1.44-5,5.13,5.13,0,0,1,2.42-1.73l8.61-3.64c2-.85,5.52-4,5.17.76C141.65,165.46,137.51,174.27,135,181.69Z"/><path class="at" d="M121.05,235.49a16.79,16.79,0,0,1-1.38,3.45c-.43.72-1.13,1.44-2,1.28s-1.29-1.3-1.16-2.21.61-1.71.8-2.61c.35-1.64-.4-3.24-1-4.81-.33-.8-.56-1.71-.89-2.51a5,5,0,0,1-.5-2.59c.17-.81.38-1,1.57-1.2.41-.06.84.84,1,1.22a68.94,68.94,0,0,1,3.14,7.72,4.9,4.9,0,0,1,.41,2.11,14.6,14.6,0,0,1-.83,2.45"/><path class="at" d="M124.2,225.89c.18-.71.25-1,.38-1.65-1.76-.16-5.76-1.31-7.39-.7a4,4,0,0,0-1.58.77c-1.57,1.27,2.34.95,2.75.86A44.76,44.76,0,0,1,124.2,225.89Z"/><path class="at" d="M126.13,217.43l.16-.77c.08-.32.13-.55.19-.84-1.29.4-.41.16-2.18.67-.43.13-2.85,1.06-3.28,1.13a8.5,8.5,0,0,0-.91.18l-.37,1.84s2.44-.7,3.18-1C124.48,218,126.13,217.43,126.13,217.43Z"/><path class="at" d="M125.49,220.47l.09-.48c.12-.69.26-1.21.26-1.21a12.53,12.53,0,0,1-1.26-.87c-.41-.38-.81-.77-1.23-1.14a7.74,7.74,0,0,0-1.28-.93,6.36,6.36,0,0,0-.75-.34c-.14-.05-1-.74-1-.59a17.22,17.22,0,0,0,0,1.77s0,0,.06.06a4.83,4.83,0,0,0,.67.44,3.41,3.41,0,0,1,.74.43c.83.72,2.34,2,2.34,2A9.87,9.87,0,0,0,125.49,220.47Z"/><path class="at" d="M124.7,224.07c-.4-.18-.78-.41-1-.51-1.68-.94-1.68-.91-3.35-1.73-.26-.13-.83-.45-1.07-.6.16-.53.32-1.09.43-1.63.65.25,1.22.5,1.86.78a14.4,14.4,0,0,1,2.83,1.54,2.32,2.32,0,0,1,.6.57,2.8,2.8,0,0,1-.14.7c0,.15-.06.27-.1.42A3.3,3.3,0,0,1,124.7,224.07Z"/><path class="as" d="M132,239.71a69.92,69.92,0,0,1-2.86-14.28c-.44-4.65-.23-8.65-2.25-13-1-2.11-2.18-4.11-3.21-6.19-3.13-6.26-3.95-13.2-4.92-20-.23-1.68-1.42-3.52-2.12-5.17-.58-1.35-1.44-2.8-2.68-5.24a29.46,29.46,0,0,1-2.87-10.11c4.63-1,11.5-4,16.2-4.56.36,4.7,1.06,12.39.73,17.5-.31,4.8-.23,5.4,1,10.26.66,2.61.88,5.23,1.55,7.84a25.78,25.78,0,0,1,.64,4.88l.88,13a23.86,23.86,0,0,0,.73,5.66c.56,1.76,1.64,3.3,2.21,5.05,1.39,4.27,2.59,8.57,2.27,13a1.69,1.69,0,0,1-.39,1.15,2.26,2.26,0,0,1-1.34.47A7.8,7.8,0,0,1,132,239.71Z"/><path class="at" d="M135,225.27a35.92,35.92,0,0,1,2.4,13.17,2,2,0,0,1-1.05,1.61,3.65,3.65,0,0,1-1.49.32,3.93,3.93,0,0,1-2.73-.51,3.16,3.16,0,0,1-.94-1.78,54,54,0,0,1-2.11-13.27c.1,2.08.63,3.9.85,6,.08.79.08,1.75.73,2.29a5.24,5.24,0,0,0,3,.81,2.38,2.38,0,0,0,2-.77,1.48,1.48,0,0,0,.49-1.24A41.62,41.62,0,0,0,135,225.27Z"/><path class="at" d="M129,224c.85-.74,1.72-1.15,2.56-1.89.49-.43.83-.7,1.47-1.26.09-.09-.25-.78-.33-1a9,9,0,0,1-.32-2,8.31,8.31,0,0,1-3.55,3.36C128.9,222.53,129,222.85,129,224Z"/><path class="at" d="M132.54,219c-1-.21-2.08-.29-3-.5s-.87.12-1-.9c-.07-.46-.24-1.25-.35-1.74a12.08,12.08,0,0,0,4.22,1.3C132.43,217.85,132.45,218.21,132.54,219Z"/><path class="at" d="M135.28,225.89a15.4,15.4,0,0,0-6.2-1.41c0-.61-.12-1.81-.17-2.46a55.94,55.94,0,0,1,5.38,1.85,1.87,1.87,0,0,1,.25.11s.15.3.19.41C134.92,224.9,135.1,225.36,135.28,225.89Z"/><g class="au"><path class="av" d="M126.67,171.66c.23,2.12.32,4.25.41,6.37l.12,3.19a14.07,14.07,0,0,0,.34,3.12l.69,3.1c.25,1,.63,2,.91,3.05.58,2.07.78,4.19,1.37,6.23a29,29,0,0,1-.93-3.05c-.25-1-.49-2.07-.82-3.07s-.7-2-1-3-.5-2.07-.73-3.11c0-.27-.12-.52-.16-.79s-.06-.55-.08-.82l-.06-1.6c0-1.06-.05-2.13-.05-3.19C126.69,175.91,126.74,173.79,126.67,171.66Z"/></g><g class="au"><path class="av" d="M120.77,198.72A28,28,0,0,0,122,201.8c.51,1,.88,2,1.47,3s1,2,1.55,3l1.57,3a27.69,27.69,0,0,1-1.9-2.77c-.6-.95-1.1-2-1.66-2.92a24.18,24.18,0,0,1-1.38-3.07,14.41,14.41,0,0,1-.56-1.6Z"/></g><path class="aw" d="M126.86,174.62c0,.09,0,.22,0,.28a.33.33,0,0,0,.21.09,2.39,2.39,0,0,0,1.53-.26c.29-.16.61-.38.91-.26a1,1,0,0,1,.36.28,2.09,2.09,0,0,0,2.51.22c.3-.19.59-.48.95-.46a1.15,1.15,0,0,1,.44.15,5,5,0,0,1,1,.58,8.15,8.15,0,0,0,.77.68,2.59,2.59,0,0,0,.93.33,9.18,9.18,0,0,0,1.88.28c.09,0,.34-.75.39-.87.26-.64.3-.6.6-1.25a1.6,1.6,0,0,0,0-1.08c-.06-.08-.55-.1-.71-.12a15.49,15.49,0,0,1-2-.33c-.94-.25-3.15-1.29-4.1-1.47-1.7-.31-1.68.12-3.4.26-.52,0-2.42-.08-2.33.55S126.79,174,126.86,174.62Z"/><path class="aw" d="M111.72,174.21a.64.64,0,0,0,.26.23,1.25,1.25,0,0,0,.87.06,5.55,5.55,0,0,1,1.24-.33c.88,0,1.6.85,2.48.85a.4.4,0,0,0,.22-.05,1,1,0,0,0,.18-.17,1.1,1.1,0,0,1,1-.25,4.55,4.55,0,0,1,1,.42,8.38,8.38,0,0,0,2.24.72,1.77,1.77,0,0,0,.85.1c.36-.09.66-.33,1-.44a3.77,3.77,0,0,1,1.53.05,2.3,2.3,0,0,0,1.32-.24c.37-.17.75-.26.76-.73s0-1.08,0-1.57-.11-.58-.11-.94c-1.73.47-3.55,0-5.3-.38a32.17,32.17,0,0,0-9.44-.47c-.67.07-1.58.25-1.28.93a13.84,13.84,0,0,0,.78,1.76C111.54,173.9,111.62,174.07,111.72,174.21Z"/><path class="ax" d="M79.53,161.89a8.63,8.63,0,0,1-4.28-.75,17.66,17.66,0,0,0-3-1.38c-.78-.21-1.61-.2-2.39-.38-.44-.11-.93-.37-.94-.81s.51-.75,1-.92c4.36-1.63,8.87-2.77,13.21-4.52,11.79-4.78,23.33-11.3,36.23-12.46,3.68-.33,7.12-.12,10.81-.17a28.32,28.32,0,0,1,6.57.45,28.73,28.73,0,0,1,5.71,2.19c7.38,3.45,14.76,6.89,22,10.69,5.66,3,11.29,6.35,17.41,7.86.38.09.84.4.69.78a.67.67,0,0,1-.44.34l-2.82,1.09a2.09,2.09,0,0,0-1,.67,3.23,3.23,0,0,0-.34,1,4.38,4.38,0,0,1-2,2.71c-.5.3-1.11.56-1.28,1.15-.1.38,0,.8-.09,1.18a1.65,1.65,0,0,1-.83.91,11,11,0,0,1-7.9,1.37c-1.33-.37-2.62-1.06-4-1-2.13.1-3.86,2-6,2.37-2.68.53-5.3-1.41-8-1.28-3,.13-5.52,2.65-8.47,2.5-2.37-.12-4.38-1.95-6.71-2.44-3.59-.77-7.17,1.75-10.82,1.45-2.75-.22-5.26-2-8-2-4.09,0-8.22,3.84-11.85,1.81-1.43-.8-2.45-2.42-4-2.84s-3,.4-4.6.38c-2.37,0-4.21-1.84-6.18-2.91a7.35,7.35,0,0,0-3.36-.88,5.87,5.87,0,0,1-3.13-.57,3.67,3.67,0,0,1-1.53-2.39,3.66,3.66,0,0,0-.24-1,2.84,2.84,0,0,0-1.48-1.16,20.65,20.65,0,0,1-3.34-2,20.89,20.89,0,0,0-3.47-1.47,1.75,1.75,0,0,1-1-.82c-.42-1,1.5-1.49,2.37-1.7"/><path class="r" d="M140.1,141.21a9.94,9.94,0,0,1-5-10.21c.46-2.7.58-4.49,1.73-7,1-2.11,1.87-4.75,1.42-7a1.49,1.49,0,0,0-1.22-1.18c-2.2-.34-3.91-.38-5.91.89a17.83,17.83,0,0,1-2.3,1.27c-1,.27-2-.38-2.9-.88-2.73-1.5-4.67-2.46-7.51-1-.91.47-1.27,2.51-1,3a24.32,24.32,0,0,1,2.31,9.68c.31,4.39-2.12,8.86-5.12,12.09a84.61,84.61,0,0,1,17.49.53,22.5,22.5,0,0,0,7,.21C138.61,141.41,140.51,141.45,140.1,141.21Z"/><path class="r" d="M79.64,160.47a8.47,8.47,0,0,1-4.27-.74,19.05,19.05,0,0,0-3-1.39c-.78-.2-1.61-.19-2.39-.38-.44-.1-.93-.36-.94-.81s.51-.75,1-.91c4.36-1.63,8.87-2.77,13.21-4.53,11.79-4.77,23.33-11.29,36.23-12.45,3.68-.33,7.12-.12,10.82-.17a27.73,27.73,0,0,1,6.56.45,28.73,28.73,0,0,1,5.71,2.19c7.38,3.44,14.76,6.89,22,10.69,5.66,3,11.29,6.35,17.41,7.86.38.09.85.4.7.78a.74.74,0,0,1-.45.34l-2.82,1.09a2.07,2.07,0,0,0-1,.67,3.13,3.13,0,0,0-.33,1,4.43,4.43,0,0,1-2,2.71c-.49.3-1.11.55-1.28,1.14-.1.38,0,.81-.09,1.19a1.64,1.64,0,0,1-.83.91,11,11,0,0,1-7.9,1.36c-1.33-.37-2.61-1.05-4-1-2.13.1-3.86,2-6,2.37-2.68.52-5.3-1.41-8-1.28-2.94.13-5.52,2.65-8.46,2.5-2.37-.12-4.39-2-6.71-2.45-3.6-.76-7.18,1.75-10.83,1.46-2.75-.22-5.26-2-8-2-4.08,0-8.22,3.83-11.85,1.81-1.43-.8-2.44-2.42-4-2.85s-3,.4-4.6.39c-2.37,0-4.21-1.85-6.18-2.91a7.45,7.45,0,0,0-3.36-.89,5.88,5.88,0,0,1-3.13-.56,3.67,3.67,0,0,1-1.53-2.4,4,4,0,0,0-.23-1,2.85,2.85,0,0,0-1.49-1.16,21.09,21.09,0,0,1-3.34-2A20.08,20.08,0,0,0,70.77,158a1.73,1.73,0,0,1-1-.83c-.42-1,1.5-1.48,2.38-1.69"/><path class="ay" d="M109.62,144.89c-4.45,1.83-8.86,3.74-13.19,5.83-2.17,1-4.32,2.1-6.46,3.21a25.41,25.41,0,0,0-6.06,3.85,23.58,23.58,0,0,1,6-3.93q3.19-1.68,6.45-3.25C100.72,148.55,105.13,146.61,109.62,144.89Z"/><path class="ay" d="M114.21,147.28a36.86,36.86,0,0,0-7,8.86c-2,3.17-4,6.46-6.86,9a47.51,47.51,0,0,0,6.75-9.1C109.1,152.9,111.22,149.65,114.21,147.28Z"/><path class="ay" d="M125.66,146c-.3,1.63-.57,3.26-.82,4.89s-.45,3.27-.56,4.92c-.22,3.29-.28,6.59-.21,9.89h0a60.73,60.73,0,0,1,.16-9.91c.16-1.64.32-3.29.53-4.93s.53-3.26.9-4.87Z"/><path class="ay" d="M135.19,147.89a24.52,24.52,0,0,1,4.12,4.51c1.18,1.66,2.14,3.47,3.21,5.2a20,20,0,0,0,3.78,4.75,18.35,18.35,0,0,0,5.14,3.23,17.06,17.06,0,0,1-5.2-3.17,20,20,0,0,1-3.84-4.74c-1.06-1.74-2-3.55-3.17-5.22A26.93,26.93,0,0,0,135.19,147.89Z"/><path class="ay" d="M139.08,144.86c2.59-.09,5,1.07,7.27,2.16s4.56,2.28,6.83,3.43a71.47,71.47,0,0,0,14.1,5.85,67.34,67.34,0,0,1-14.16-5.73c-2.27-1.16-4.52-2.35-6.81-3.47S141.67,144.82,139.08,144.86Z"/><path class="az" d="M131.54,108.52a18.08,18.08,0,0,0-1.9.1c-.55,0-1,.51-1.52.43a11.42,11.42,0,0,1-1.51-.36,10,10,0,0,0-1.11-.42c.46.33.87.69,1.35,1a1.28,1.28,0,0,0,.87.25,2.65,2.65,0,0,1,1.08.31c.31.11.4-.08.68-.12s.57.07.8-.07S131.46,108.6,131.54,108.52Z"/><path class="aq" d="M33.05,200a11.94,11.94,0,0,1-2.75-2.51c-.83-.93-1.65-1.87-2.44-2.83a64.47,64.47,0,0,1-4.33-6.08c1.43,2,2.88,4.05,4.47,6,.77,1,1.57,1.92,2.39,2.86A14.18,14.18,0,0,0,33.05,200Z"/><path class="aq" d="M28.59,195.39a8.91,8.91,0,0,1-.67-1.94,8.74,8.74,0,0,1-.16-2,19.16,19.16,0,0,0,.34,2A19.54,19.54,0,0,0,28.59,195.39Z"/><path class="aq" d="M25.92,192a4.57,4.57,0,0,1-.58-2.38q0-.62.09-1.23a1.79,1.79,0,0,1,.35-1.16c-.26.34-.18.78-.23,1.17s0,.82,0,1.22A5.53,5.53,0,0,0,25.92,192Z"/><path class="aq" d="M31.09,198.18a11.1,11.1,0,0,1-1-2.17,5.06,5.06,0,0,1-.15-2.35,6.85,6.85,0,0,0,.32,2.3C30.49,196.72,30.83,197.43,31.09,198.18Z"/><path class="aq" d="M25.91,192a7,7,0,0,0-2-.66,6.78,6.78,0,0,0-2.11-.05,4.69,4.69,0,0,1,2.14-.12A4.84,4.84,0,0,1,25.91,192Z"/><path class="aq" d="M28.7,195.36a8.17,8.17,0,0,0-1.83-.6,3,3,0,0,0-.95,0,1.49,1.49,0,0,0-.87.35,1.18,1.18,0,0,1,.85-.47,3.36,3.36,0,0,1,1,0A5.19,5.19,0,0,1,28.7,195.36Z"/><path class="aq" d="M31.17,198.18a10,10,0,0,0-1.79-.24,10.83,10.83,0,0,0-1.8,0,5.52,5.52,0,0,1,1.81-.22A5.71,5.71,0,0,1,31.17,198.18Z"/><path class="ba" d="M216.72,124.08l-.17.21s0,.08-.06.06a.13.13,0,0,1-.06-.1,18.18,18.18,0,0,1-.37-4.75"/><path class="ac" d="M215.83,119.52a.53.53,0,0,0,.71,0,.38.38,0,0,0,.13-.25.26.26,0,0,0-.18-.24c-.1,0-.31-.06-.32,0,0-.08,0-.09-.11-.13s-.22,0-.24.06c0-.11-.2-.14-.28-.07a.24.24,0,0,0,0,.3.71.71,0,0,0,.49.34"/><path class="ba" d="M216.3,124.45s.07,0,0,.08a.19.19,0,0,1-.13,0,27.74,27.74,0,0,1-5.09-1.88"/><path class="ac" d="M211,123c.23,0,.31-.67.28-.72A.57.57,0,0,0,211,122a.35.35,0,0,0-.38,0,.19.19,0,0,0,.07.31.75.75,0,0,0-.35.07.18.18,0,0,0,0,.29.17.17,0,0,0-.19.25.47.47,0,0,0,.4.17.76.76,0,0,0,.62-.31"/><path class="ba" d="M216.13,125s.07,0,.09,0a.1.1,0,0,1-.05.1,19.74,19.74,0,0,1-3.92,2.95"/><path class="ac" d="M212.58,128.3c.08-.29-.27-.58-.61-.62a.65.65,0,0,0-.39.07.27.27,0,0,0-.11.32.28.28,0,0,0,.35.12.43.43,0,0,0-.07.31.23.23,0,0,0,.27.17c-.1.09,0,.27.18.28a.35.35,0,0,0,.33-.21.64.64,0,0,0-.06-.65"/><path class="ba" d="M216.07,124.8s0-.08,0-.08a.15.15,0,0,1,.11.06,22.92,22.92,0,0,1,3,4.13"/><path class="ac" d="M219.49,128.61a.55.55,0,0,0-.73.38.42.42,0,0,0,.05.36.36.36,0,0,0,.34.17.19.19,0,0,0,.16-.27.68.68,0,0,0,.35.13c.12,0,.25-.09.21-.2a.2.2,0,0,0,.33-.09.38.38,0,0,0-.22-.34,1,1,0,0,0-.74-.1"/><path class="ba" d="M216.31,125.06s-.09,0-.08,0,.05-.06.09-.07a23.66,23.66,0,0,1,5.06-1.22"/><path class="ac" d="M221.11,123.27c-.2.23,0,.61.3.76a.72.72,0,0,0,.4.08c.13,0,.25-.12.25-.24a.25.25,0,0,0-.27-.23.56.56,0,0,0,.21-.25.22.22,0,0,0-.19-.25c.14,0,.1-.25,0-.31a.43.43,0,0,0-.41.07.61.61,0,0,0-.24.6"/><path class="ba" d="M219.09,121.78a25.78,25.78,0,0,0-2.37,2.3"/><path class="ac" d="M219.1,121.51a.54.54,0,0,1,.27.11.24.24,0,0,1,.08.21.24.24,0,0,1-.1.19.37.37,0,0,1-.21,0,.65.65,0,0,1-.29-.14.25.25,0,0,1,0-.36.4.4,0,0,1,.28,0S219.13,121.5,219.1,121.51Z"/><path class="ba" d="M214,121.75a29.18,29.18,0,0,0,2.32,2.67"/><path class="ac" d="M213.71,121.53a.22.22,0,0,1,0-.16.44.44,0,0,1,.45.13.22.22,0,0,1,0,.18.4.4,0,0,1-.18.22.35.35,0,0,1-.41-.09.18.18,0,0,1,0-.16s0-.07,0-.09S213.71,121.51,213.71,121.53Z"/><path class="ba" d="M212.47,125.13a34.66,34.66,0,0,0,3.56-.51"/><path class="ac" d="M212.25,125.23a.26.26,0,0,1-.14-.13.21.21,0,0,1,.08-.19.26.26,0,0,1,.21-.1.34.34,0,0,1,.18.11.56.56,0,0,1,.16.25.27.27,0,0,1-.24.29.33.33,0,0,1-.17-.07s-.07,0-.08-.08S212.23,125.21,212.25,125.23Z"/><path class="ba" d="M215.94,128.5a21.31,21.31,0,0,0,.34-3.19"/><path class="ac" d="M215.92,128.64s0,.15-.09.15a.29.29,0,0,1-.19-.15c0-.06-.08-.15,0-.21a.26.26,0,0,1,.16-.11.55.55,0,0,1,.31,0c.14,0,.28.19.25.32a.22.22,0,0,1-.12.11.21.21,0,0,1-.11,0S215.9,128.65,215.92,128.64Z"/><path class="ba" d="M220.16,126.21a32.87,32.87,0,0,0-3.38-1.51"/><path class="ac" d="M220.41,126.24c0,.06.06.12,0,.17s-.11.1-.2.11a.33.33,0,0,1-.24,0,.27.27,0,0,1-.08-.18.41.41,0,0,1,0-.27c.11-.18,0-.31.4-.09a.22.22,0,0,1,.09.14s0,.08,0,.11S220.42,126.27,220.41,126.24Z"/><path class="ad" d="M215.53,121.81a1.54,1.54,0,0,1,.58-.27.67.67,0,0,1,.62.2s.05.07.09.09a.2.2,0,0,0,.13,0c.28,0,.53-.15.8-.18a.72.72,0,0,1,.72.32c.07.18,0,.37,0,.56s.38.51.67.68.62.41.62.71-.25.44-.47.59a1.12,1.12,0,0,1-.26,1.65c-.17.1-.39.18-.47.35a1.24,1.24,0,0,0-.05.38c-.07.41-.53.64-.94.81a.79.79,0,0,1-.3.08c-.37,0-.53-.49-.89-.61s-.67.19-1,.2a1,1,0,0,1-.79-.41,5.08,5.08,0,0,1-.42-.76.76.76,0,0,0-.11-.16,1.57,1.57,0,0,0-.25-.2,1,1,0,0,1-.3-1.45.52.52,0,0,0,.14-.25c0-.12-.09-.23-.14-.34a.57.57,0,0,1,.43-.81,1.35,1.35,0,0,0,.36-.08.61.61,0,0,0,.21-.24c.29-.46.46-.82,1.06-.88"/><path class="n" d="M54.35,207l.75-.34"/><path class="z" d="M42,210.48c-1,2.05-1.89,4.33-1.35,6.54a8.09,8.09,0,0,0,3.16,4.31,2.42,2.42,0,0,0,.9.5c1,.26,1.92-.7,2.82-1.28a17.78,17.78,0,0,1,2.65-1.14,3.48,3.48,0,0,0,2.07-1.9,3.8,3.8,0,0,0-.7-3.1,14.33,14.33,0,0,0-5.77-5.28A3.07,3.07,0,0,0,42,210.48Z"/><path class="z" d="M49.58,214.19c1.71,1.3,3.91,2.4,5.8,1.59,1.67-.71,2.47-2.66,2.76-4.52a4.06,4.06,0,0,0,0-1.77,15.27,15.27,0,0,0-.73-1.53c-.26-.62-.35-1.3-.62-1.91a6.71,6.71,0,0,0-2.55-2.55,4.35,4.35,0,0,0-2-.93c-1.31-.1-2.31,1-3.3,1.87-1.29,1.11-4.8,1.73-4.48,3.95S48,213,49.58,214.19Z"/><path class="z" d="M52.51,204.51a7.92,7.92,0,0,0,1.1-1.45,3.3,3.3,0,0,0-3.19-4.92,8.61,8.61,0,0,1-2.15,0c-1-.25-1.65-1.18-2.72-1a3.5,3.5,0,0,0-2,1.42c-2.41,2.76-2.27,6.06,0,8.23a6.76,6.76,0,0,0,4.78,1.46C50,208,51.4,205.77,52.51,204.51Z"/><path class="z" d="M42.87,200.71c-.7-.29-1.46-.42-2.15-.72a10.16,10.16,0,0,0-1.17-.52,3.48,3.48,0,0,0-2.88.59,6.3,6.3,0,0,0-2.43,6.35,3.93,3.93,0,0,0,.55,1.45,5.56,5.56,0,0,0,1.77,1.45l1.66,1a1.37,1.37,0,0,0,1.65.09,9.76,9.76,0,0,0,4.18-2.86C45.48,205.53,45.45,201.81,42.87,200.71Z"/><path class="z" d="M36.63,208.63a.59.59,0,0,0-.7-.5,1.7,1.7,0,0,0-.83.47c-.55.47-1.16,1.1-1,1.8.07.26.24.48.31.74.18.58-.17,1.18-.32,1.76a4.68,4.68,0,0,0,.92,3.63,2.23,2.23,0,0,0,.42.5,2.27,2.27,0,0,0,.75.32,30.15,30.15,0,0,0,4,.88,3.73,3.73,0,0,0,3.68-2.37c.72-1.51,1.5-4.06.86-5.71-.7-1.82-3.6-2.29-5.26-2.7a5.05,5.05,0,0,0-2.18-.19,2,2,0,0,0-1.58,1.36,17.86,17.86,0,0,0-.63,1.87,4.26,4.26,0,0,1-.49,2.06,3.94,3.94,0,0,0-.59,2.67,2.91,2.91,0,0,0,1.6,2.16,4.77,4.77,0,0,0,1.4.33l2.42.33a4.46,4.46,0,0,0,3-.44"/><path class="ba" d="M45.32,208.32l-.18.22s0,.07,0,.05-.06-.06-.07-.1a18.53,18.53,0,0,1-.36-4.74"/><path class="ac" d="M44.42,203.76a.53.53,0,0,0,.72,0,.3.3,0,0,0,.12-.25.25.25,0,0,0-.17-.24c-.11,0-.32-.05-.32,0-.05-.08,0-.08-.11-.13s-.22,0-.24.06c0-.11-.21-.14-.29-.06a.27.27,0,0,0,0,.3.71.71,0,0,0,.49.33"/><path class="ba" d="M44.89,208.7s.08,0,0,.07a.12.12,0,0,1-.13,0,26.36,26.36,0,0,1-5.09-1.88"/><path class="ac" d="M39.61,207.27c.24,0,.31-.67.29-.72a.61.61,0,0,0-.29-.28.35.35,0,0,0-.37,0,.21.21,0,0,0,.06.32.6.6,0,0,0-.35.07.17.17,0,0,0,0,.28.17.17,0,0,0-.19.25.46.46,0,0,0,.39.18.76.76,0,0,0,.63-.31"/><path class="ba" d="M44.72,209.2s.08,0,.09,0,0,.07,0,.1a19.86,19.86,0,0,1-3.93,2.94"/><path class="ac" d="M41.18,212.54c.08-.28-.27-.58-.61-.61a.57.57,0,0,0-.39.07.25.25,0,0,0-.11.31.25.25,0,0,0,.34.12.52.52,0,0,0-.07.32c0,.1.17.21.28.16-.1.09,0,.28.18.29a.37.37,0,0,0,.33-.21.66.66,0,0,0-.06-.66"/><path class="ba" d="M44.67,209c-.05,0,0-.08,0-.08s.08,0,.11.07a22.51,22.51,0,0,1,3,4.12"/><path class="ac" d="M48.08,212.85a.56.56,0,0,0-.73.39.43.43,0,0,0,0,.35.39.39,0,0,0,.35.18.2.2,0,0,0,.16-.28.67.67,0,0,0,.34.14c.13,0,.25-.1.21-.2a.2.2,0,0,0,.33-.09c0-.13-.08-.26-.21-.34a.93.93,0,0,0-.74-.11"/><path class="ba" d="M44.91,209.3s-.09,0-.09,0,.06-.06.1-.08A24.18,24.18,0,0,1,50,208"/><path class="ac" d="M49.71,207.52c-.21.22,0,.6.3.76a.61.61,0,0,0,.4.07.29.29,0,0,0,.25-.24.26.26,0,0,0-.27-.23c.08-.07.18-.14.2-.25a.2.2,0,0,0-.18-.24c.13,0,.09-.26,0-.32a.43.43,0,0,0-.41.07.62.62,0,0,0-.25.6"/><path class="ba" d="M47.69,206a23.38,23.38,0,0,0-2.37,2.29"/><path class="ac" d="M47.7,205.75a.57.57,0,0,1,.27.11.21.21,0,0,1,.07.21.18.18,0,0,1-.1.19.28.28,0,0,1-.2,0,.55.55,0,0,1-.29-.13.26.26,0,0,1,0-.37c.05,0,.11,0,.18,0a.45.45,0,0,1,.11,0Z"/><path class="ba" d="M42.59,206a30.92,30.92,0,0,0,2.33,2.67"/><path class="ac" d="M42.3,205.78a.18.18,0,0,1,.06-.16c.06-.05.16,0,.24,0a.39.39,0,0,1,.21.14.23.23,0,0,1,0,.18.48.48,0,0,1-.18.22.36.36,0,0,1-.41-.1.15.15,0,0,1,0-.16.11.11,0,0,1,0-.09S42.3,205.75,42.3,205.78Z"/><path class="ba" d="M41.06,209.37a29.91,29.91,0,0,0,3.56-.51"/><path class="ac" d="M40.85,209.47a.28.28,0,0,1-.14-.12.18.18,0,0,1,.08-.2.27.27,0,0,1,.21-.1.28.28,0,0,1,.17.11.46.46,0,0,1,.16.26.26.26,0,0,1-.24.28.28.28,0,0,1-.17-.07.2.2,0,0,1-.08-.08S40.82,209.46,40.85,209.47Z"/><path class="ba" d="M44.54,212.74a22.55,22.55,0,0,0,.34-3.19"/><path class="ac" d="M44.51,212.88s0,.16-.08.15a.28.28,0,0,1-.19-.14.24.24,0,0,1-.06-.22c0-.06.1-.08.17-.1a.63.63,0,0,1,.31,0c.14,0,.27.19.24.32s-.06.09-.12.12a.29.29,0,0,1-.1,0S44.5,212.9,44.51,212.88Z"/><path class="ba" d="M48.75,210.45a33.94,33.94,0,0,0-3.37-1.51"/><path class="ac" d="M49,210.49a.21.21,0,0,1,0,.17.26.26,0,0,1-.2.1.32.32,0,0,1-.25,0,.26.26,0,0,1-.07-.17.44.44,0,0,1,0-.28c.12-.17,0-.3.4-.08a.21.21,0,0,1,.1.14.17.17,0,0,1,0,.1S49,210.51,49,210.49Z"/><path class="ad" d="M44.13,206.05a1.46,1.46,0,0,1,.58-.26.65.65,0,0,1,.61.19s0,.08.1.1a.2.2,0,0,0,.13,0c.27,0,.52-.15.8-.17a.68.68,0,0,1,.71.31c.07.18,0,.37,0,.56s.38.51.68.68.61.41.61.71-.24.45-.46.6a1.11,1.11,0,0,1-.26,1.64c-.18.1-.4.18-.48.36a1.52,1.52,0,0,0,0,.38c-.06.41-.52.64-.94.81a.73.73,0,0,1-.29.07c-.37,0-.54-.49-.89-.6s-.68.18-1,.2a1,1,0,0,1-.78-.42,4,4,0,0,1-.42-.75.62.62,0,0,0-.11-.17,1.24,1.24,0,0,0-.26-.19,1.06,1.06,0,0,1-.3-1.46.54.54,0,0,0,.15-.25.81.81,0,0,0-.15-.33.58.58,0,0,1,.43-.82,1.17,1.17,0,0,0,.37-.08.52.52,0,0,0,.2-.24c.29-.45.47-.81,1.07-.88"/><g class="au"><path class="av" d="M140.91,112.56a4.08,4.08,0,0,0-1.33,1.13,8.34,8.34,0,0,0-1,1.48,1.93,1.93,0,0,1,.13-1,2.69,2.69,0,0,1,.49-.85A2,2,0,0,1,140.91,112.56Z"/></g><g class="au"><path class="av" d="M116.62,112.34a1.82,1.82,0,0,1,1.42.89,3,3,0,0,1,.53,1.58,14.55,14.55,0,0,1-.94-1.3A5.24,5.24,0,0,0,116.62,112.34Z"/></g><g class="au"><path class="av" d="M128.61,116.35a1.57,1.57,0,0,1,.26.86,1.14,1.14,0,0,1-.35.86,2.83,2.83,0,0,1-.15-.86A1.52,1.52,0,0,1,128.61,116.35Z"/></g><path class="bb" d="M140.13,96a3.48,3.48,0,0,1,1.45.9,1.7,1.7,0,0,1,.28,1.76c-.31.67-1,.95-1.58,1.4a2.85,2.85,0,0,0-1,1.58,1.81,1.81,0,0,0,.47,1.67c.71.63,1.82.28,2.68-.26a8.51,8.51,0,0,0,2-1.77,3.73,3.73,0,0,1-1.72,2.25,4.63,4.63,0,0,1-2.6.57,2.92,2.92,0,0,1-1.5-.44,1.72,1.72,0,0,1-.75-1.41A3.87,3.87,0,0,1,139,100a2.88,2.88,0,0,0,.86-2.25c-.32-1.31-2-1.92-2.82-2.57C137.55,94.09,139.37,95.67,140.13,96Z"/><path class="n" d="M114.49,87.52a.88.88,0,0,0,.85.17"/><path class="bb" d="M118.32,93.4c.56.14.83.78.91,1.34a1.54,1.54,0,0,1-.29,1.38c-.4.39-1.06.33-1.63.42-1,.14-3.12,1.47-2.35,2.7.39.63,1.27.19,1.72,1.07.57,1.09-1.12,1.22-1.28,2.12s.58.64,1.07.57c.32,0,.91,0,.92.44s-.69.87-1,1.16c-.59.6-.44,1.12.39,1.25a.75.75,0,0,1-.32-1.08c.29-.41.68-.15,1.09-.23a1.09,1.09,0,0,0,0-2.12c-.44-.07-1.12-.18-.53-.74s.95-.21,1-1-.43-.89-.78-1.41a1.49,1.49,0,0,1,0-1.42c.47-.94,1.9-.94,2.7-1.36,0,0,.1,0,.07,0,1.34-.76.84-3-.17-4a1.17,1.17,0,0,0-.42-.27.79.79,0,0,0-.84.32A2,2,0,0,0,118.32,93.4Z"/><path class="as" d="M120.34,95.13c-2-1.45-3.63-.6-4,.79-.51,1.67,1,3.29,2.15,4.22a1.71,1.71,0,0,0,1.88,0c.68-.4.72-1.22.56-2S121,95.64,120.34,95.13Z"/><g class="au"><path class="av" d="M117.32,97.27a5.59,5.59,0,0,1,.37-1,.57.57,0,0,1,.49-.31,1,1,0,0,1,.53.21,4.59,4.59,0,0,1,.72.81,1.73,1.73,0,0,1,.4,1,2.48,2.48,0,0,0-.49-.92,4.26,4.26,0,0,0-.74-.73.73.73,0,0,0-.43-.21.42.42,0,0,0-.38.22C117.63,96.61,117.49,97,117.32,97.27Z"/></g><g class="au"><path class="av" d="M119.05,96.75c-.11,0-.18,0-.23.13a2,2,0,0,0-.14.25,2.39,2.39,0,0,0-.17.56.79.79,0,0,0,.06.54,1.93,1.93,0,0,1,.18.59l-.29-.54a.94.94,0,0,1-.13-.62,2.16,2.16,0,0,1,.25-.58,1.1,1.1,0,0,1,.18-.26C118.83,96.75,119,96.67,119.05,96.75Z"/></g><path class="as" d="M138.1,96.59c2.17-1.18,3.68-.12,3.91,1.31.28,1.73-1.43,3.14-2.69,3.9a1.72,1.72,0,0,1-1.86-.27c-.62-.49-.56-1.3-.29-2.11S136.55,97.18,138.1,96.59Z"/><g class="au"><path class="av" d="M140.81,99.11c-.13-.33-.22-.7-.34-1a.47.47,0,0,0-.35-.27.78.78,0,0,0-.45.15,4.23,4.23,0,0,0-.83.63,2.46,2.46,0,0,0-.61.85,1.8,1.8,0,0,1,.52-.93,4.66,4.66,0,0,1,.83-.7,1,1,0,0,1,.56-.15.6.6,0,0,1,.43.37A5.78,5.78,0,0,1,140.81,99.11Z"/></g><g class="au"><path class="av" d="M139.17,98.36c.1-.06.21,0,.27.11a1.28,1.28,0,0,1,.15.28,3.05,3.05,0,0,1,.17.61,1,1,0,0,1-.21.6l-.36.49a1.85,1.85,0,0,1,.26-.55.87.87,0,0,0,.13-.54,2,2,0,0,0-.11-.57,1.25,1.25,0,0,0-.1-.27C139.33,98.44,139.28,98.33,139.17,98.36Z"/></g><path class="as" d="M138,95.81c-.22-.87-.87-1.23-1.52-1.68a4.3,4.3,0,0,0-2.66-.7c-1.18.06-1.93-3.7-2.77-2.88s-1-.91-1.28.37c-1.15-4.75-3.51-6.1-4.8-1.88-.35,1.13-.87,1.1-2,1-.92,0-1,3.64-1.74,4.16s-2.16-1.06-1.52,1.68a10.3,10.3,0,0,1,.23,3.37,7.7,7.7,0,0,0,.68,4.44,10.45,10.45,0,0,0,2.78,3.18,9.16,9.16,0,0,0,3,1.77,7.67,7.67,0,0,0,2.55.39,8.71,8.71,0,0,0,2.46-.49,9,9,0,0,0,3-1.77,10.67,10.67,0,0,0,2.78-3.17,7.9,7.9,0,0,0,.68-4.44A10.35,10.35,0,0,1,138,95.81Z"/><path class="bc" d="M131.75,95.36c.08-.26-.27-.37.08-.64a5.49,5.49,0,0,1,2.92-.57c.87.06,2,.42,2.14,1.12-.31-.55-1.28-.64-2-.54a13.06,13.06,0,0,0-1.76.48C132.78,95.32,132,95.61,131.75,95.36Z"/><path class="bc" d="M127.08,95.3c-.08-.27.26-.37-.08-.64a5.35,5.35,0,0,0-2.92-.57c-.88,0-2,.41-2.14,1.12.31-.56,1.28-.64,2-.54a12.28,12.28,0,0,1,1.76.47C126.05,95.26,126.84,95.54,127.08,95.3Z"/><path class="bd" d="M122.35,98.82l-.12.06a1.82,1.82,0,0,0-.36,3.05,2.46,2.46,0,0,0,2.09.45,1.74,1.74,0,0,0,1-.6,2.87,2.87,0,0,0,.33-2.14,1.22,1.22,0,0,0-.42-.82A2.76,2.76,0,0,0,122.35,98.82Z"/><path class="bd" d="M137,101.67a2.06,2.06,0,0,0-.09-1.24,1.81,1.81,0,0,0-1.9-1.34,2.5,2.5,0,0,0-1.81,1.15A2.07,2.07,0,0,0,133,102a3.12,3.12,0,0,0,1.89,1.17,1.62,1.62,0,0,0,.69,0,1.53,1.53,0,0,0,.58-.3A2.2,2.2,0,0,0,137,101.67Z"/><path class="be" d="M124.11,99.6a2.24,2.24,0,0,0-1.53,0c-.38.2,0,.5-.33.75s-.64.34-.29.69a3.17,3.17,0,0,0,1.54.54c.35.09.56.11.79-.18a3.51,3.51,0,0,0,.42-.9C124.91,100,124.48,99.49,124.11,99.6Z"/><path class="be" d="M135.78,100.27a2.5,2.5,0,0,0-1.53,0c-.38.17-.05.44-.33.67s-.64.3-.29.62a3.57,3.57,0,0,0,1.54.48c.35.08.56.1.79-.17a2.79,2.79,0,0,0,.42-.8A.6.6,0,0,0,135.78,100.27Z"/><g class="au"><path class="bf" d="M129.55,101.47c.27-.29.8-.21.88-.47a.68.68,0,0,0,0-.47,2.93,2.93,0,0,0-.18-.52,1,1,0,0,1,.38,1.09.68.68,0,0,1-.55.31A2,2,0,0,0,129.55,101.47Z"/></g><g class="au"><path class="bf" d="M129,101.37c-.2-.13-.42,0-.65,0a.42.42,0,0,1-.34-.12.25.25,0,0,1,0-.33.3.3,0,0,0,.37.36l.34,0A.33.33,0,0,1,129,101.37Z"/></g><path class="y" d="M121.8,99c-.11,0-.17.08-.09.16s.33,0,.35-.09-.37-.2-.37,0"/><path class="y" d="M122.79,99.12c-.19,0-.09.24,0,.19a.1.1,0,1,0-.08-.19"/><path class="y" d="M122,99.49s0,0,0,0,.24,0,.07,0"/><path class="y" d="M135.87,99.75c-.08,0-.12,0-.08.1s.24,0,.27,0-.25-.18-.27,0"/><path class="y" d="M136.79,99.92c-.19,0-.09.24.06.18a.1.1,0,1,0-.09-.18"/><path class="y" d="M136,100.28s0,0-.05,0,.25,0,.07,0"/><path class="bg" d="M126.46,97.16a2.36,2.36,0,0,0-1.18-.61,1.36,1.36,0,0,0-.57.06,2.42,2.42,0,0,0-.68.15,1.55,1.55,0,0,1-.49.14,1.44,1.44,0,0,1-.7-.13,1.69,1.69,0,0,1-.3-.17.42.42,0,0,0-.14-.12c0,.11.14.26.21.36a1.37,1.37,0,0,0,.55.51l.08,0a1.36,1.36,0,0,0,.33.15,3,3,0,0,0,1.27-.1,3.72,3.72,0,0,1,1.24-.1,1.37,1.37,0,0,1,.47.19,3.31,3.31,0,0,0,.29.18A1.3,1.3,0,0,0,126.46,97.16Z"/><path class="bg" d="M132.55,97.06a2.26,2.26,0,0,1,1.18-.6,1.35,1.35,0,0,1,.57.05,2.49,2.49,0,0,1,.69.15,1.42,1.42,0,0,0,.48.14,1.5,1.5,0,0,0,.71-.13,2,2,0,0,0,.29-.17.42.42,0,0,1,.14-.12c0,.12-.14.26-.21.36a1.37,1.37,0,0,1-.55.51l-.07,0a1.42,1.42,0,0,1-.34.15,3,3,0,0,1-1.27-.1,3.72,3.72,0,0,0-1.24-.1,1.37,1.37,0,0,0-.47.19c-.1,0-.19.15-.29.19A1.36,1.36,0,0,1,132.55,97.06Z"/><path class="y" d="M130.64,105.22a1.2,1.2,0,0,1-.33.3,1.76,1.76,0,0,1-1.1.13,3.82,3.82,0,0,1-2.29-1.18c-.16-.18-.76-.76-.61-.93s.68,0,.79,0a5,5,0,0,1,1.6,0q.62,0,1.23.06a8.1,8.1,0,0,1,1.71,0C132.14,103.87,130.88,105,130.64,105.22Z"/><path class="bh" d="M126.64,103.36a1.39,1.39,0,0,0,.33-.07,6.66,6.66,0,0,0,.73-.31,4,4,0,0,1,.69-.15,3.71,3.71,0,0,1,2.4.48,3.45,3.45,0,0,0,1.74.23,2.5,2.5,0,0,1-.88.39,10.31,10.31,0,0,1-5-.32,3.44,3.44,0,0,1-.91-.38,1.76,1.76,0,0,0,.91.13"/><path class="bh" d="M125.87,103.42a6.53,6.53,0,0,1,.55.71c.15.23.3.49.44.73a2.36,2.36,0,0,0,3,1.4,2.7,2.7,0,0,0,1.29-1.12,9.88,9.88,0,0,1,1-1.37.5.5,0,0,0-.49.16c-.56.42-1.06,1-1.44,1.2a2.15,2.15,0,0,1-1.55.24,2.71,2.71,0,0,1-1.4-.91,5.85,5.85,0,0,0-.82-.92C126.23,103.38,126.05,103.44,125.87,103.42Z"/><path class="bh" d="M126.54,103.62a1.36,1.36,0,0,1-1-.54c.15,0,.29.14.45.2a3.24,3.24,0,0,0,.74.15c.08,0,.43,0,.46,0S126.69,103.63,126.54,103.62Z"/><path class="bh" d="M125.69,102.8c-.31,0-.53.12-.49.45.13-.11.21-.41.43-.39,0,0,0,0,0,0"/><g class="aj"><path class="bi" d="M126.34,84.81a6.55,6.55,0,0,1-1.16,3.06,9.46,9.46,0,0,1-2.4,2.24,8.13,8.13,0,0,0-2.39,2.16,5.07,5.07,0,0,0-.81,3.07h0a4.57,4.57,0,0,1,.66-3.19,7,7,0,0,1,2.5-2.13,6.67,6.67,0,0,0,2.33-2.24,9.11,9.11,0,0,0,1.27-3Z"/></g><path class="av" d="M139.71,99.48c.11,0,.2.06.25.14a1.55,1.55,0,0,1,.14.29,2,2,0,0,1,.15.61c0,.46-.36.75-.52,1.13.15-.39.52-.7.47-1.13a2.47,2.47,0,0,0-.13-.6C140,99.75,139.94,99.45,139.71,99.48Z"/><path class="bb" d="M127,86c.68,1.3,0,2.87-1.08,4a46.8,46.8,0,0,1-3.73,2.89,9.65,9.65,0,0,0-3,3.79,14.38,14.38,0,0,1,0-4.53,14.83,14.83,0,0,1,.75-3.7A6.37,6.37,0,0,1,121.13,86a8.18,8.18,0,0,1,1.46-1.48,7.77,7.77,0,0,1,2-1c4.19-1.43,9.66-1.12,12.82,2.3l.35.4a10.47,10.47,0,0,1,1.79,4.08c.42,2.43.68,4.58-.34,6.82-.17.38-.45,1.12-.83,1.29-.23-.48-.17-1.15-.37-1.67a2.87,2.87,0,0,0-.63-1,5.81,5.81,0,0,0-3.18-1.19,31.09,31.09,0,0,1-3.75-.92,4.83,4.83,0,0,1-2.38-1.84c-.7-1.22-.62-1.89-1.38-3.08"/><path class="bc" d="M127.08,84.67a4.1,4.1,0,0,1,1.16.72,2.07,2.07,0,0,1,.55,1.25c0,.45,0,.91.05,1.37a10.29,10.29,0,0,1,0,1.36,3.44,3.44,0,0,0,.14,1.32,2.64,2.64,0,0,0,.75,1.06,6.81,6.81,0,0,0,2.38,1.18,45.58,45.58,0,0,1,5.16,1.78,9.43,9.43,0,0,1,1.19.69,2.37,2.37,0,0,1,.9,1,2.91,2.91,0,0,1-.63,2.58,2.83,2.83,0,0,0,.51-2.54,3.87,3.87,0,0,0-2-1.63A47.15,47.15,0,0,0,132,93.17a7.25,7.25,0,0,1-2.45-1.27,2.68,2.68,0,0,1-.78-1.15,3.61,3.61,0,0,1-.14-1.38,10.33,10.33,0,0,0,0-1.36c0-.45,0-.91,0-1.36a2,2,0,0,0-.48-1.22A3.91,3.91,0,0,0,127.08,84.67Z"/><path class="bc" d="M132.19,84.44A5.53,5.53,0,0,1,135.45,86a2.78,2.78,0,0,1,.66,1.71,7.35,7.35,0,0,0,.28,1.76,9.48,9.48,0,0,0,1.71,3.11A8.71,8.71,0,0,0,140.72,95,7.85,7.85,0,0,1,138,92.66a9.27,9.27,0,0,1-1.8-3.16c-.41-1.17,0-2.51-.85-3.42A5.88,5.88,0,0,0,132.19,84.44Z"/><path class="bc" d="M127.91,84.14a4,4,0,0,1,2.77,2.43c.57,1.15.64,2.51,1.43,3.48a5.13,5.13,0,0,0,1.5,1.11c.56.3,1.13.58,1.69.86a27.37,27.37,0,0,1,3.34,1.87,10.84,10.84,0,0,1,1.47,1.24,2.89,2.89,0,0,1,1,1.68,1.35,1.35,0,0,1-.31,1,3.71,3.71,0,0,1-.72.66,2.7,2.7,0,0,0-1.16,1.39,2.67,2.67,0,0,0,.07,1.81,1.87,1.87,0,0,0,1.57.78,3.68,3.68,0,0,0,1.86-.2,2.26,2.26,0,0,0,1.3-1.29,2.33,2.33,0,0,1-1.28,1.35,3.7,3.7,0,0,1-1.89.26,2,2,0,0,1-1.69-.83,2.82,2.82,0,0,1-.1-1.92,2.86,2.86,0,0,1,1.21-1.5c.49-.37,1-.83.93-1.44a2.62,2.62,0,0,0-.92-1.54,10.3,10.3,0,0,0-1.44-1.2,26.65,26.65,0,0,0-3.29-1.88c-.56-.29-1.13-.58-1.69-.89A5.39,5.39,0,0,1,132,90.16c-.83-1-.87-2.41-1.42-3.54A3.93,3.93,0,0,0,127.91,84.14Z"/><path class="bb" d="M118.86,85.1l-.09-.23a2.88,2.88,0,0,1,.2-2.43c.53-.93,1.53-1.47,2.28-2.23a10.66,10.66,0,0,0,1-1.16,8.94,8.94,0,0,1,1-1.27,5.67,5.67,0,0,1,2.38-1.3,11.3,11.3,0,0,1,10.12,2.29,2.26,2.26,0,0,1,.84,1c.19.65-.16,1.4.14,2a1.79,1.79,0,0,0,.74.7c.93.55,2.12.94,2.48,2s-.44,2.25-1.42,2.85c-2.38,1.46-5.42.92-8.18.49-2.17-.33-4.37-.3-6.54-.55C122.08,87.08,119.7,86.84,118.86,85.1Z"/><path class="bc" d="M127.9,76.46a12.75,12.75,0,0,1,6.77.84,5.09,5.09,0,0,1,1.5.85,1.63,1.63,0,0,1,.55,1.58c-.16.59-.8.86-1,1.39a.61.61,0,0,0,.33.67,2,2,0,0,0,.81.21c1.12.13,2.34-.13,3.4.42a1.85,1.85,0,0,1,1.06,1.32,2.27,2.27,0,0,1-.48,1.63,4.14,4.14,0,0,1-1.3,1.13,2.65,2.65,0,0,0-.66.54,1.31,1.31,0,0,0-.28.79,5.1,5.1,0,0,0,.43,1.65,1.75,1.75,0,0,1,0,1.65,1.68,1.68,0,0,0,0-1.64,5.09,5.09,0,0,1-.43-1.66,1.25,1.25,0,0,1,.28-.81,2.48,2.48,0,0,1,.66-.55,4,4,0,0,0,1.28-1.13,2.13,2.13,0,0,0,.45-1.59,1.72,1.72,0,0,0-1-1.26c-1-.53-2.24-.27-3.38-.39a2.24,2.24,0,0,1-.84-.23.68.68,0,0,1-.37-.77c.2-.59.83-.83,1-1.39a1.56,1.56,0,0,0-.53-1.52,5.38,5.38,0,0,0-1.47-.85A12.67,12.67,0,0,0,127.9,76.46Z"/><path class="bb" d="M121.86,78a2.91,2.91,0,0,1,0-2.62,4.32,4.32,0,0,1,1.84-1.85,5.91,5.91,0,0,1,4-.65c.93.18,1.8.59,2.73.78a9.24,9.24,0,0,1,1.66.35,1.73,1.73,0,0,1,1.12,1.24,2.2,2.2,0,0,1-.82,1.78,7.87,7.87,0,0,1-4.73,2.27,9.8,9.8,0,0,1-3.26.26A3.72,3.72,0,0,1,121.86,78Z"/><path class="bc" d="M120.87,86.73a8.62,8.62,0,0,1-3.13-.64,1.76,1.76,0,0,1-1.22-1,2.34,2.34,0,0,1,0-1.63,3.5,3.5,0,0,1,2.72-1.61,9.16,9.16,0,0,0,3-1,6.49,6.49,0,0,0,1.31-.87,1,1,0,0,0,.25-1.32,2.24,2.24,0,0,0-1.14-1,14.24,14.24,0,0,0-1.52-.5.83.83,0,0,1-.59-.6,1.29,1.29,0,0,1,.14-.82,2.83,2.83,0,0,1,1.17-1.13,4.24,4.24,0,0,1,3.1-.55,4.14,4.14,0,0,0-3,.66,2.66,2.66,0,0,0-1.1,1.08,1.17,1.17,0,0,0-.12.73.68.68,0,0,0,.5.47,15.07,15.07,0,0,1,1.53.49A2.38,2.38,0,0,1,124,78.54a1.29,1.29,0,0,1,.15.84,1.4,1.4,0,0,1-.42.74,6.77,6.77,0,0,1-1.35.93,9.84,9.84,0,0,1-3.07,1,5.57,5.57,0,0,0-1.51.43,2.32,2.32,0,0,0-1.1,1,2.18,2.18,0,0,0-.06,1.51,1.63,1.63,0,0,0,1.13,1A8.7,8.7,0,0,0,120.87,86.73Z"/><path class="bc" d="M122.69,74.33a3.56,3.56,0,0,0-2.41.79.84.84,0,0,0,0,1.16,1.84,1.84,0,0,0,1.16.51.78.78,0,0,1,.56.31,1.52,1.52,0,0,1,.12.64A1.77,1.77,0,0,1,121.9,79a4.5,4.5,0,0,1-2.23,1.29,5.7,5.7,0,0,0-2.29,1.15,2.35,2.35,0,0,0-.61,2.38c.27.85,1.15,1.27,1.88,1.67a10.63,10.63,0,0,0,2.43.91,10.6,10.6,0,0,1-2.43-.9c-.74-.4-1.62-.81-1.91-1.68a2.39,2.39,0,0,1,.61-2.41,5.88,5.88,0,0,1,2.31-1.17A4.46,4.46,0,0,0,121.87,79a1.76,1.76,0,0,0,.25-1.23,1.67,1.67,0,0,0-.11-.63.76.76,0,0,0-.55-.3,1.84,1.84,0,0,1-1.16-.51.87.87,0,0,1,0-1.19A3.54,3.54,0,0,1,122.69,74.33Z"/><path class="bc" d="M122.37,78.62a4.66,4.66,0,0,1-2.25,2.09,6.69,6.69,0,0,0-1.35.78,1.83,1.83,0,0,0-.75,1.3,2.06,2.06,0,0,0,.52,1.41,4.73,4.73,0,0,0,1.23.94,5.14,5.14,0,0,1,1.3.88,1.26,1.26,0,0,1,.24,1.49,4.6,4.6,0,0,1-2.62,1.65,14.57,14.57,0,0,0-2.94,1,2.12,2.12,0,0,0-.43,2.79,3.91,3.91,0,0,0,2.54,1.66A4,4,0,0,1,115.3,93a2.14,2.14,0,0,1,.42-2.84,4.5,4.5,0,0,1,1.45-.6c.51-.13,1-.27,1.5-.44a4.65,4.65,0,0,0,2.55-1.62,1.17,1.17,0,0,0-.22-1.39,5.09,5.09,0,0,0-1.26-.88,4.49,4.49,0,0,1-1.24-1,2.1,2.1,0,0,1-.53-1.45,1.91,1.91,0,0,1,.77-1.33,7.08,7.08,0,0,1,1.37-.77A4.69,4.69,0,0,0,122.37,78.62Z"/><path class="bj" d="M127,88.09a4.81,4.81,0,0,1-1.4,3A15.31,15.31,0,0,1,123,93.19a5.33,5.33,0,0,0-2,2.24,2.32,2.32,0,0,0-.11,1.45,1.88,1.88,0,0,0,.88,1.25,2.29,2.29,0,0,1-1.36-2.89,5.13,5.13,0,0,1,2.14-2.69,27.42,27.42,0,0,0,2.62-1.89A6,6,0,0,0,127,88.09Z"/><path class="bb" d="M119.46,87.39a5.35,5.35,0,0,0-1.91,3.91,8.81,8.81,0,0,0,1,4.32,5.68,5.68,0,0,0,.78,1.15,6.27,6.27,0,0,1,.17-2.2,23.29,23.29,0,0,1,1.16-3.15,8.56,8.56,0,0,0,.87-2.47,2.7,2.7,0,0,0-.37-1.78c-.17-.24-.37-.52-.66-.44A3.71,3.71,0,0,0,119.46,87.39Z"/><path class="bc" d="M123.29,78.57a6.53,6.53,0,0,0,4.48.34,10,10,0,0,0,2.14-.84,2.45,2.45,0,0,1,2.26-.16,2.57,2.57,0,0,0-2.18.33,9.16,9.16,0,0,1-2.16.91,7.09,7.09,0,0,1-2.34.18A5.12,5.12,0,0,1,123.29,78.57Z"/><path class="bc" d="M131.45,79.6A5.25,5.25,0,0,0,130.5,82,4.5,4.5,0,0,1,129,84a8.39,8.39,0,0,1-2.29,1.21c-.82.3-1.65.49-2.42.85a3,3,0,0,0-1.77,1.64,19,19,0,0,1-.7,2.47,12.26,12.26,0,0,1-1.53,2.08,4.14,4.14,0,0,0-.5,2.46,4.26,4.26,0,0,1,.4-2.53,11.78,11.78,0,0,0,1.48-2.08,20.26,20.26,0,0,0,.66-2.47,3.26,3.26,0,0,1,1.86-1.8c.8-.35,1.65-.54,2.45-.81a8.31,8.31,0,0,0,2.26-1.15,4.33,4.33,0,0,0,1.53-2A5.39,5.39,0,0,1,131.45,79.6Z"/><path class="bc" d="M128.05,86.15a3.87,3.87,0,0,1,2.17-.8,8.29,8.29,0,0,1,2.33.2c.77.15,1.52.34,2.28.44a4.68,4.68,0,0,0,2.24-.13.94.94,0,0,0,.62-.76,1.19,1.19,0,0,0-.43-.93,4.23,4.23,0,0,0-2.15-.67,1.57,1.57,0,0,1-1.06-.53,1.72,1.72,0,0,1-.22-1.17,2.39,2.39,0,0,0-.06-1.13.71.71,0,0,0-.93-.42.74.74,0,0,1,1,.4,2.41,2.41,0,0,1,.13,1.16,1.65,1.65,0,0,0,.21,1.08,1.52,1.52,0,0,0,1,.45,4.37,4.37,0,0,1,2.25.67,1.38,1.38,0,0,1,.53,1.1,1.13,1.13,0,0,1-.75,1,4.66,4.66,0,0,1-2.37.11c-.77-.12-1.52-.32-2.28-.48a8.46,8.46,0,0,0-2.29-.24A3.85,3.85,0,0,0,128.05,86.15Z"/><path class="bc" d="M130.09,76.64a8.8,8.8,0,0,1-6,.19c-.46-.2-1-.42-1.18-1a.8.8,0,0,1,.37-.73,3.38,3.38,0,0,1,.69-.39,5.66,5.66,0,0,1,3.07-.42,16.78,16.78,0,0,0,3,.5c.5,0,1-.22,1.54-.17a1.19,1.19,0,0,1,.4.14.4.4,0,0,1,.2.41c-.09.33-.38.45-.6.56a6.51,6.51,0,0,1-3.05.45c-.51,0-1-.06-1.53-.06a3.14,3.14,0,0,0-1.49.26c1.92-.76,4.15.14,6-.79.22-.11.45-.25.49-.45s-.23-.31-.44-.33c-.48,0-1,.18-1.51.19a17,17,0,0,1-3-.46,5.24,5.24,0,0,0-3,.36c-.43.2-1,.44-1,.91s.61.71,1.06.89A9.24,9.24,0,0,0,130.09,76.64Z"/><path class="bc" d="M129.64,79.57a5.69,5.69,0,0,1-3.27,1.4c-1.2.16-2.41.12-3.59.27a5.51,5.51,0,0,0-1.71.43A1.83,1.83,0,0,0,120,82.93a1.22,1.22,0,0,0,.1.8,1.6,1.6,0,0,0,.61.57c.48.3,1.15.61,1.27,1.34a1,1,0,0,1-.44.87,2.36,2.36,0,0,1-.86.38,10.88,10.88,0,0,0-1.71.51,4.38,4.38,0,0,0-1.47.95,2.55,2.55,0,0,0-.72,1.55,5.55,5.55,0,0,0,1.1,3.31,8.53,8.53,0,0,1,1.46,3.27,8.4,8.4,0,0,0-1.57-3.2,5.76,5.76,0,0,1-1.16-3.4,2.79,2.79,0,0,1,.75-1.66,4.58,4.58,0,0,1,1.53-1,11.14,11.14,0,0,1,1.73-.54c.54-.14,1.17-.46,1.11-1s-.64-.86-1.14-1.16a1.9,1.9,0,0,1-.68-.67,1.39,1.39,0,0,1-.11-.94A2,2,0,0,1,121,81.51a5.75,5.75,0,0,1,1.77-.44c1.2-.13,2.41-.08,3.6-.22A5.62,5.62,0,0,0,129.64,79.57Z"/><path class="bb" d="M120.75,87c-.2-.2-.68-.18-1-.18a2.92,2.92,0,0,0-1.5.36,1,1,0,0,0-.5.87c0,.53.36,1,.33,1.51-.07,1.15-1.45.91-2.21,1.3a.72.72,0,0,0-.41.9c.11.25.54.45.71.15-.07.14-.24.13-.38.09a.72.72,0,0,1-.46-.7,1.18,1.18,0,0,1,.41-1c.34-.26.67-.08,1-.1s.92-.2,1-.57-.36-.66-.61-.93-.14-1.22.11-1.65A2.46,2.46,0,0,1,119.71,86c.33,0,1.23.28,1.29.72A.31.31,0,0,1,120.75,87Z"/><path class="bb" d="M138,86.37s-.05,0-.06-.05a3.8,3.8,0,0,1,2.61,1.13,2.3,2.3,0,0,1,.76,1.44A3,3,0,0,1,141,90c-.44,1.12.41,1.78,1.44,2,.77.15,2.23.14,2.57,1s-1,1.81-1.4,2.55-.41,2,.7,1.83c.51-.09,2.31-1.08,2.42-.18.08.58-1,.77-1.24,1.17s.44.88.76.31c-.29.16-.89.55-1.07,0s.66-.68.83-1-.05-.54-.4-.49a1.28,1.28,0,0,0-.73.49,1.55,1.55,0,0,1-2.62-1.22,2.3,2.3,0,0,1,1-1.23c.64-.46,1.86-1.16,1-1.94-.55-.48-1.31.11-1.88.33a2.34,2.34,0,0,1-2.55-.6,2.75,2.75,0,0,1-.27-2c.13-.62.9-1.44.76-2.06s-.87-1-1.37-1.15a20.06,20.06,0,0,0-2.46-.18c-.44-.08-.47-.16-.27-.51a1.2,1.2,0,0,1,.69-.63,3.28,3.28,0,0,1,1.85-.19"/></svg>