<?xml version="1.0" encoding="utf-8"?>
<!-- Generator: Adobe Illustrator 25.2.3, SVG Export Plug-In . SVG Version: 6.00 Build 0)  -->
<svg version="1.1" id="fdm_x5F_amazing_x5F_day" xmlns="http://www.w3.org/2000/svg" xmlns:xlink="http://www.w3.org/1999/xlink"
	 x="0px" y="0px" viewBox="0 0 567 269" style="enable-background:new 0 0 567 269;" xml:space="preserve">
<style type="text/css">
	.st0{fill:#D89500;}
	.st1{fill:#CCC8A3;}
	.st2{fill:#DBA489;}
	.st3{fill:#BA662D;}
	.st4{fill:#E2AC4D;}
	.st5{fill:none;}
</style>
<path class="st0" d="M19.4,126c-0.1,0.1-0.1,0.1-0.2,0.2c0,0.1-0.1,0.1-0.2,0.1c-0.1,0.2-0.2,0.3-0.3,0.4h-0.1l-0.2,0.2
	c-0.2,0.3-0.5,0.5-0.8,0.8s-0.6,0.5-0.9,0.7c-0.5,0.6-1.2,0.9-2,1.1h-0.2c-0.4,0.1-0.9,0-1.3-0.1c-0.4-0.2-0.8-0.4-1.1-0.8
	c-0.5-0.4-0.7-1.1-0.5-1.7v-0.1c0.1-0.7,0.3-1.4,0.4-2.1s0.3-1.3,0.5-2l1.4-3.9c0.2-0.6,0.4-1.3,0.7-1.8c0.7-1.7,1.5-3.3,2.2-5
	s1.5-3.3,2.2-4.8l0.1-0.5c0.3-1.1,0.8-2.1,1.5-3c0.1-0.1,0.2-0.2,0.2-0.4c0-0.2,0.1-0.4,0.2-0.6l2.7-6.9c0.1-0.3,0.2-0.6,0.3-0.9
	c0.1-0.3,0.3-0.6,0.4-0.9c0.1-0.2,0.2-0.5,0.2-0.7c0-0.2,0.1-0.5,0.2-0.7c0.1-0.4,0.4-0.6,0.7-0.7c0.1-0.1,0.3-0.1,0.5-0.1
	c0.1,0,0.2,0,0.3-0.1c0.1,0,0.3,0.1,0.4,0.1c0.2,0.1,0.3,0.2,0.5,0.3c0.2,0.3,0.3,0.6,0.2,0.9v0.7c-0.1,0.2-0.1,0.3-0.2,0.5
	c0,0.1-0.1,0.3-0.2,0.4c-0.3,0.6-0.5,1.3-0.8,1.9c-0.3,0.6-0.5,1.2-0.9,1.8c-0.7,1.4-1.3,2.8-1.9,4.2s-1.2,2.8-1.7,4.2
	c-0.3,0.7-0.5,1.4-0.8,2s-0.5,1.4-0.9,2l-2,4.4c-0.1,0.4-0.3,0.8-0.4,1.2s-0.3,0.8-0.5,1.1s-0.2,0.5-0.3,0.8
	c-0.1,0.3-0.2,0.6-0.4,0.8c-0.8,2-1.5,4-2.1,6.1c0,0.1,0,0.3,0,0.4c0,0.2,0,0.4,0,0.6v0.3c0,0.4,0.2,0.5,0.5,0.4
	c0.1,0,0.3-0.1,0.4-0.2l0.4-0.2c0.3-0.3,0.6-0.5,0.9-0.7c0.3-0.2,0.7-0.4,1-0.6l0.3-0.3h0.1l0.8-0.7v0.1c0.3-0.3,0.6-0.6,0.9-0.9
	c0.1-0.1,0.2-0.2,0.3-0.3c0.1-0.1,0.2-0.2,0.3-0.3l2.2-1.8c0.3-0.2,0.5-0.4,0.8-0.6l0.9-0.6h0c0.1,0.1,0.1,0.2,0.1,0.3
	c-0.1,0.2-0.2,0.4-0.3,0.7c-0.1,0.2-0.3,0.4-0.5,0.5l-0.3,0.3l-0.3,0.3c-0.2,0.2-0.4,0.4-0.5,0.7c-0.1,0.3-0.3,0.5-0.5,0.7
	c-0.2,0.2-0.4,0.4-0.6,0.6l-0.5,0.6l-0.9,1.2c-0.1,0.1-0.1,0.1-0.2,0.2c0,0.1-0.1,0.1-0.2,0.1L19.4,126z"/>
<path class="st0" d="M23.5,129.3c-0.4,0-0.8-0.1-1.2-0.2L22,129c-0.1-0.1-0.3-0.1-0.4-0.1c-0.1,0-0.1-0.1-0.2-0.1
	c-0.1-0.1-0.1-0.1-0.2-0.1c-0.2-0.2-0.4-0.4-0.6-0.6c-0.2-0.2-0.4-0.4-0.5-0.7c-0.2-0.4-0.2-0.9,0-1.3c0.1-0.4,0.2-0.7,0.3-1.1
	c0.1-0.4,0.3-0.8,0.4-1.2c0-0.1,0.1-0.3,0.2-0.5c0.1-0.2,0.1-0.3,0.2-0.5c0.3-0.5,0.4-1,0.5-1.5c0.1-0.4,0.2-0.8,0.5-1.1
	c0.3-0.7,0.7-1.3,1.3-1.7c0.3-0.3,0.5-0.5,0.8-0.8c0.2-0.3,0.5-0.5,0.8-0.8c0.2-0.1,0.3-0.2,0.5-0.3c0.3-0.1,0.5-0.2,0.8-0.2
	l0.9-0.2c0.1,0,0.2-0.1,0.3-0.1h0.3c0.3,0,0.5,0.1,0.8,0.3c0.4,0.3,0.7,0.6,1,1c0.2,0.3,0.4,0.7,0.5,1c0.1,0.4,0.1,0.8-0.1,1.1
	c-0.3,0.4-0.6,0.7-1,1c-0.4,0.3-0.7,0.7-1.1,1s-0.9,0.7-1.4,1.1s-0.9,0.8-1.4,1.1c-0.3,0.2-0.7,0.3-1.1,0.2c-0.1,0-0.3,0-0.4,0.1
	c-0.2,0.1-0.4,0.2-0.5,0.4c-0.1,0.3-0.2,0.5-0.3,0.8c-0.2,0.5-0.3,1.1-0.2,1.7l0.2,0.2c0.1,0.1,0.2,0.2,0.3,0.2
	c0.3,0.1,0.6,0.1,0.9,0.1c0.6-0.1,1.1-0.2,1.6-0.5c0.6-0.2,1.2-0.5,1.7-0.8c0.5-0.3,1-0.6,1.6-0.9s1.2-0.7,1.7-1.1s1.1-0.7,1.7-1.1
	c0.2-0.1,0.4-0.1,0.6-0.1c0.1-0.1,0.3-0.1,0.4,0c0.2,0.1,0.2,0.2,0.2,0.3c-0.1,0.7-0.5,1.3-1,1.7c-0.5,0.3-1,0.6-1.5,1
	c-0.5,0.4-0.9,0.7-1.3,1.1l-1.1,0.7c-0.4,0.3-0.8,0.4-1.3,0.6c-0.3,0.1-0.6,0.3-1,0.4c-0.3,0.1-0.7,0.2-1,0.2
	c-0.3,0.1-0.7,0.2-1,0.2C24.1,129.4,23.8,129.4,23.5,129.3z M27.8,118.8c-0.1-0.1-0.1-0.1-0.1-0.2c0-0.1,0-0.1-0.1-0.1h-0.4
	c-0.1,0.1-0.2,0.2-0.3,0.3c-0.5,0.5-0.9,0.9-1.3,1.4c-0.4,0.5-0.8,1-1.1,1.6c0,0.2,0,0.3,0.1,0.3h0.2c0.2-0.2,0.5-0.4,0.7-0.7
	s0.5-0.4,0.7-0.7c0.3-0.2,0.6-0.5,0.9-0.8c0.2-0.3,0.4-0.7,0.6-1C27.7,119,27.7,118.9,27.8,118.8z"/>
<path class="st0" d="M38.4,114.4c-0.1,0.3-0.2,0.6-0.3,1c-0.1,0.4-0.3,0.8-0.5,1.1c-0.3,0.6-0.5,1.2-0.8,1.8s-0.6,1.2-0.8,1.8
	s-0.3,0.9-0.5,1.4c-0.2,0.4-0.3,0.9-0.4,1.4c-0.1,0.4-0.1,0.8-0.2,1.2c0,0.4,0,0.8,0,1.2c0,0.7,0.3,1.3,0.7,1.8
	c0.6,0.4,1.3,0.5,1.9,0.3c1.3-0.1,2.6-0.5,3.8-1.1l1-0.5c0.3-0.2,0.7-0.3,1-0.4c0.1,0,0.2,0,0.3,0.1c0.1,0,0.3,0.1,0.4,0.1
	c-0.5,0.6-1,1.2-1.4,1.8c-0.4,0.6-0.9,1.1-1.6,1.4c-1.4,0.7-3,1-4.5,0.8c-1.3-0.2-2.5-0.9-3.2-2c-0.8-1-1.2-2.3-1.1-3.6
	c0.1-0.7,0.3-1.3,0.5-1.9c0.2-0.7,0.4-1.4,0.6-2.1l1.5-3.3c0.5-1.1,1.1-2.1,1.7-3.1c0.3-0.3,0.6-0.7,0.8-1.2
	c0.2-0.4,0.4-0.8,0.6-1.3c0.2-0.5,0.2-1.2,0-1.7c-0.3,0-0.5,0-0.8-0.1c-0.3,0-0.5-0.1-0.8-0.1c-1.1,0-2.2,0-3.4,0.1
	s-2.3,0.1-3.5,0.1c-0.8,0-1.6,0-2.5-0.1c-0.8-0.1-1.6-0.3-2.4-0.5c-0.3-0.1-0.5-0.2-0.7-0.4c-0.2-0.2-0.5-0.4-0.7-0.6
	c0.4-0.3,0.9-0.4,1.3-0.5c0.4,0,0.8-0.1,1.2-0.1h13.8c0.7-0.8,1.3-1.7,1.6-2.7c0.4-0.6,0.7-1.2,1.1-1.7c0.3-0.5,0.7-1.1,1-1.6
	c0.1-0.1,0.2-0.2,0.2-0.3c0-0.1,0.1-0.2,0.2-0.3c0.3-0.3,0.6-0.5,1-0.6c0.4-0.1,0.7-0.1,1.1-0.1c0.5,0,0.8,0.1,1,0.4
	c0.2,0.3,0.3,0.6,0.5,0.9c-0.8,0.9-1.5,1.8-2.2,2.7c-0.7,0.9-1.4,1.9-1.9,2.9c1.4,0.2,2.8,0.2,4.2,0.1c1.3-0.1,2.6-0.1,4-0.1
	c1.2,0.1,2.5,0.1,3.8,0.1c1.3-0.1,2.5-0.1,3.7-0.1s2.6,0.2,3.9,0.2s2.6,0.1,4,0.2c-2.3,0.8-4.7,1.1-7.2,1.1l-3.7,0.3l-3.8,0.3
	c-1.4,0.1-2.8,0.2-4.2,0.2s-2.8,0.1-4.2,0.2h-0.8c-0.5,0-0.9,0.1-1.4,0.3c-0.4,0.3-0.7,0.7-0.8,1.1c-0.2,0.5-0.5,1-0.8,1.4
	c-0.3,0.5-0.6,0.9-0.9,1.4h-0.2c-0.1,0.1-0.1,0.3-0.2,0.4C38.5,114.1,38.5,114.2,38.4,114.4z"/>
<path class="st0" d="M51.1,92.7c0.2,0.3,0.4,0.6,0.5,0.9c0.1,0.3,0,0.7-0.2,0.9c-0.1,0.3-0.2,0.7-0.4,1c-0.4,0.7-0.8,1.4-1.2,2.1
	c-0.5,0.7-0.9,1.3-1.4,1.9c-0.6,1-1.8,1.6-3,1.6c-0.1,0-0.2-0.1-0.3-0.1c-0.2-0.1-0.4-0.3-0.4-0.5c-0.1-0.2-0.1-0.3-0.1-0.5
	c0.4-0.6,0.7-1,1-1.5c0.3-0.5,0.6-1,0.8-1.6c0.5-0.8,1-1.5,1.4-2.3c0.4-0.8,0.7-1.7,0.8-2.6c-0.1-0.1-0.1-0.2,0.1-0.3s0.3,0,0.4,0.1
	c0.2,0.1,0.3,0.2,0.5,0.2c0.2,0.1,0.4,0.1,0.5,0.2c0.2,0,0.4,0,0.6,0.1L51.1,92.7z"/>
<path class="st0" d="M59.5,92.7c0.2,0.3,0.4,0.6,0.4,0.9c0.1,0.3,0,0.7-0.2,0.9c-0.1,0.3-0.2,0.7-0.4,1c-0.4,0.7-0.8,1.4-1.2,2.1
	c-0.5,0.7-0.9,1.3-1.4,1.9c-0.6,1-1.8,1.6-3,1.6c-0.1,0-0.2-0.1-0.3-0.1c-0.2-0.1-0.4-0.3-0.4-0.5c-0.1-0.2-0.1-0.3-0.1-0.5
	c0.4-0.6,0.7-1.1,1-1.5c0.3-0.5,0.6-1,0.8-1.6c0.5-0.8,1-1.5,1.4-2.3c0.4-0.8,0.7-1.7,0.8-2.6c-0.1-0.1-0.1-0.2,0.1-0.3
	s0.3,0,0.5,0.1c0.2,0.1,0.3,0.2,0.5,0.2c0.2,0.1,0.3,0.1,0.5,0.2c0.2,0,0.4,0,0.7,0.1L59.5,92.7z"/>
<path class="st0" d="M66.3,123c-0.4,0-0.8,0-1.2,0.1c-0.3,0.1-0.7,0.1-1,0.1c-0.3,0-0.7,0-1-0.1c-0.3-0.1-0.7-0.2-1-0.4
	c-0.9-0.4-1.6-1.3-1.7-2.3c-0.1-1,0.1-2.1,0.6-3c0.3-0.6,0.8-1,1.4-1.4c0.7-0.4,1.4-0.8,2.2-1.1c0.8-0.3,1.6-0.5,2.4-0.7
	c0.7-0.1,1.3-0.2,2-0.2c0.4,0,0.8,0.2,1,0.6c0.1,0.2,0.1,0.5-0.1,0.7c-0.1,0.1-0.3,0.2-0.5,0.2c-0.5,0.1-1,0.2-1.5,0.4
	c-0.6,0.2-1.2,0.5-1.8,0.8c-0.6,0.3-1.1,0.6-1.7,1c-0.5,0.3-0.9,0.7-1.2,1.1c-0.2,0.3-0.3,0.7-0.3,1.1c0,0.3,0.1,0.6,0.4,0.8h2.3
	c0.8,0,1.6,0.2,2.3,0.5c0.8,0.2,1.4,0.7,1.8,1.4c0.3,0.7,0.3,1.4,0,2.1c-0.3,0.9-0.8,1.7-1.3,2.5c-0.7,0.9-1.4,1.8-2.2,2.6
	c-0.8,0.8-1.6,1.6-2.6,2.3c-0.8,0.6-1.6,1.2-2.5,1.6c-0.6,0.4-1.3,0.6-1.9,0.6c-0.4,0-0.7,0-1.1-0.2c-0.3-0.1-0.4-0.3-0.3-0.4
	c1-0.7,2-1.3,2.7-1.8c0.9-0.6,1.7-1.3,2.5-2l1.5-1.7c0.6-0.7,1.2-1.5,1.7-2.3c0.4-0.6,0.7-1.3,0.9-2C67.4,123.3,67.1,123,66.3,123z"
	/>
<path class="st0" d="M104.9,121.9c0.2-0.4,0.6-0.8,1-1c0-0.2,0.2-0.2,0.3,0v0.1l-0.1,0.7l-0.6,1.1l-10.6,13.4
	c-0.2,0.1-0.3,0.3-0.4,0.5c-0.1,0.2-0.2,0.3-0.4,0.5c-0.3,0.4-0.8,0.8-1.3,1c-0.5,0.2-1,0.4-1.6,0.5c-0.2,0-0.5,0-0.7-0.1
	c-0.3,0-0.6-0.1-0.9-0.3c-0.2-0.1-0.4-0.3-0.6-0.4c-0.2-0.2-0.3-0.4-0.5-0.6c-0.2-0.2-0.3-0.4-0.3-0.6l-0.1-0.9v-0.5
	c0-0.3,0-0.6,0.2-0.9l0.4-1c0.2-0.2,0.3-0.4,0.4-0.6l0.2-0.6c0.3-0.9,0.8-1.8,1.3-2.6l1-1.8l0.9-1.5l0.5-1.1l2.3-4.1
	c0-0.2,0-0.4,0-0.6l-0.3-0.1c-0.1,0-0.2,0-0.3,0.1c-1,0.5-2,1.1-2.9,1.8c-0.9,0.7-1.7,1.4-2.5,2.2l-2.4,3.7
	c-0.3,0.4-0.7,0.7-1.2,0.9c-0.1,0.1-0.2,0.2-0.3,0.2c-0.1,0-0.2,0.1-0.2,0.2c-0.4,0.5-0.6,0.8-0.8,0.8c-0.2,0-0.4-0.1-0.5-0.3
	c-0.1-0.3-0.2-0.6-0.2-0.9c0-0.3-0.1-0.7-0.1-1c0.2-0.5,0.4-1,0.8-1.4c0.7-0.8,1.1-1.8,1.4-2.8c0.3-1,0.6-1.9,1.1-2.8
	c0.4-0.9,0.8-1.8,1.3-2.7s0.9-1.8,1.4-2.8l1.4-2.7c0.1-0.3,0.3-0.6,0.5-0.9c0.2-0.3,0.3-0.6,0.4-1c0-0.2,0.1-0.4,0.3-0.5
	c0.2-0.3,0.4-0.6,0.5-0.9c0.1-0.3,0.3-0.6,0.5-1l1-1.5c0.4-0.8,0.8-1.6,1.2-2.5c0.2-0.4,0.4-0.8,0.6-1.2l0.7-1.2
	c0.5-1.1,1-2.1,1.7-3.1c0.6-0.9,1.1-1.8,1.5-2.7c0.1-0.2,0.2-0.4,0.3-0.6c0.1-0.2,0.2-0.4,0.3-0.7c0-0.2,0-0.4,0.1-0.5
	c0.4-0.6,1-1.1,1.7-1.4c0.6,0,1.1,0.3,1.3,0.9c0.1,0.2,0.1,0.4,0,0.5c0,0.1-0.1,0.2-0.1,0.2c0,0.1,0,0.2,0,0.2
	c-0.2,0.2-0.3,0.4-0.4,0.6c-0.1,0.2-0.2,0.4-0.3,0.6l-2.2,3.8l-0.8,1.5c-1.1,2.2-2.1,4.2-3.1,6.1s-1.9,3.5-2.8,5.1s-1.6,2.9-2.3,4.2
	c-0.6,1.1-1.1,2.3-1.6,3.6c-0.1,0.2-0.1,0.4,0,0.5c0.1,0.3,0.2,0.4,0.2,0.5h0.1c0.3-0.2,0.6-0.4,1.1-0.8l1.1-0.8l1.5-1
	c0.3-0.2,0.5-0.3,0.8-0.5c0.3-0.2,0.6-0.3,0.9-0.3c0.8-0.3,1.6-0.4,2.4-0.1l0.3,0.2c0.3,0.2,0.6,0.5,0.6,0.9c0,0.4,0,0.8-0.1,1.2
	c-0.1,0.4-0.3,0.8-0.5,1.2l-0.5,1c-0.3,0.4-0.5,0.8-0.8,1.3c-0.2,0.4-0.5,0.9-0.8,1.3l-1,1.8l-0.2,0.3c-0.1,0.1-0.1,0.2-0.2,0.3
	c-0.6,0.9-1.1,1.8-1.6,2.8s-1,1.9-1.5,3c-0.4,0.6-0.7,1.3-0.8,2c0,0.1,0,0.2,0.1,0.3h0.2c0.1,0,0.1,0,0.1-0.1
	c0.4-0.3,0.7-0.6,1.1-0.9c0.4-0.3,0.7-0.6,0.9-1c0.1,0,0.2-0.1,0.2-0.2c0-0.1,0.1-0.1,0.1-0.2c0.3-0.2,0.8-0.8,1.7-1.6
	s1.8-1.8,2.9-2.9s2.1-2.3,3.2-3.6S104,122.9,104.9,121.9z"/>
<path class="st0" d="M115.1,127.6c-0.6,0-1.2-0.1-1.7-0.3l-0.3-0.2c-0.1-0.1-0.2-0.1-0.3-0.2c-0.4-0.4-0.6-0.9-0.5-1.4
	c0-0.3,0.1-0.5,0.2-0.8c0.1-0.2,0.1-0.4,0.1-0.6c0-0.1-0.1-0.3-0.2-0.3c0,0,0,0-0.1,0c0,0-0.1,0.1-0.1,0.1c0,0-0.1,0-0.1,0.1
	c-0.3,0.4-0.6,0.7-1,1l-0.6,0.5c-0.2,0.2-0.4,0.3-0.6,0.4c-0.2,0.2-0.4,0.4-0.6,0.6c-0.2,0.2-0.5,0.4-0.7,0.5c-1,0.8-2.3,1.2-3.5,1
	c-0.5,0-0.9-0.2-1.2-0.6c-0.1-0.2-0.3-0.4-0.5-0.6c-0.3-0.3-0.3-0.8-0.1-1.2c0.1-0.3,0.3-0.6,0.4-0.9c0.1-0.3,0.2-0.7,0.2-1
	c0.1-0.3,0.2-0.6,0.4-0.8c0.4-0.7,0.9-1.3,1.5-1.8l0.7-0.7c0.2-0.2,0.4-0.5,0.7-0.7c0.1-0.2,0.3-0.3,0.5-0.5
	c0.2-0.2,0.4-0.3,0.5-0.5c0.2-0.2,0.4-0.3,0.6-0.6c0.2-0.2,0.3-0.4,0.5-0.5c0.6-0.7,1.3-1.2,2.2-1.5l1.8-0.8
	c0.1-0.1,0.3-0.2,0.5-0.2c0.2,0,0.4-0.1,0.6-0.1c0.3-0.1,0.6-0.1,0.9,0h0.1c0.3,0.1,0.6,0.2,0.9,0.3l1,0.1c0.4,0,0.7,0.2,0.9,0.5
	c0.2,0.3,0.2,0.6,0.1,0.8c0,0.7-0.2,1.3-0.5,1.9c-0.1,0.4-0.3,0.7-0.5,1.1c-0.2,0.3-0.3,0.7-0.4,1.1c-0.1,0.2-0.2,0.4-0.3,0.7
	s-0.2,0.4-0.3,0.7s-0.3,0.7-0.4,1.1s-0.2,0.7-0.3,1v0.5c0,0,0,0.1,0.1,0.2c0.1,0.1,0.2,0.1,0.3,0.1c0.2,0,0.4,0,0.6-0.1
	c0.4-0.1,0.7-0.3,1.1-0.5l1.1-0.5c0.5-0.4,1.1-0.7,1.7-1.1l1.7-1.1c0.7-0.4,1.5-0.7,2.3-1c0.2-0.1,0.3-0.1,0.5-0.1
	c0.1,0,0.2,0.1,0.3,0.1c0.1,0.1,0.1,0.2,0.1,0.3l-0.4,0.6c-0.3,0.3-0.5,0.6-0.8,0.8s-0.5,0.5-0.8,0.8c-0.6,0.4-1.2,0.8-1.8,1.3
	c-0.5,0.5-1.1,0.9-1.7,1.3c-0.3,0.2-0.7,0.4-1,0.7s-0.7,0.4-1.1,0.6C116.8,127.5,115.9,127.7,115.1,127.6z M115,117.1
	c0-0.3-0.1-0.4-0.3-0.4c-0.1,0.1-0.3,0.1-0.5,0.1c-0.1,0-0.3,0.1-0.4,0.1c-0.3,0.1-0.7,0.2-1,0.4c-0.3,0.2-0.6,0.4-0.8,0.6
	c-0.4,0.3-0.8,0.6-1.1,0.9l-1.1,1.1c-0.5,0.6-1.1,1.3-1.6,2l-1.5,2.1v0.3c0,0.1-0.1,0.2,0,0.2c0,0,0,0.1,0,0.1h0.5
	c0.1-0.1,0.3-0.2,0.4-0.3c0.2-0.1,0.3-0.2,0.4-0.3c0.6-0.5,1.2-1,1.8-1.5l1.7-1.5l1.5-1.3c0.5-0.4,1-0.9,1.4-1.3
	c0.1-0.1,0.2-0.2,0.3-0.4c0.1-0.2,0.2-0.3,0.3-0.5C115,117.2,115,117.2,115,117.1C115,117.1,115,117.1,115,117.1z"/>
<path class="st0" d="M127.9,114.8c0.2,0.4,0.3,0.9,0.2,1.3c0,0.4,0,0.8,0,1.2c-0.2,0.9-0.4,1.8-0.5,2.7c-0.1,0.9-0.2,1.8-0.3,2.6
	c-0.1,0.5-0.2,1-0.2,1.6c-0.1,0.6-0.1,1.2,0,1.8c0.2-0.1,0.4-0.1,0.6-0.2c0.2,0,0.3-0.1,0.4-0.2c0.8-1,1.7-2,2.7-2.9
	c0.9-0.9,1.8-1.9,2.5-2.9c0.6-0.9,1.1-1.7,1.7-2.5c0.6-0.8,1.2-1.5,2-2.2c0.1-0.1,0.2-0.2,0.4-0.2c0.2-0.1,0.4-0.2,0.6-0.3
	c0,0.3,0,0.5-0.2,0.8c-0.2,0.4-0.4,0.9-0.6,1.3c-0.2,0.4-0.5,0.8-0.8,1.3s-0.5,0.7-0.8,1.1c-0.3,0.4-0.4,0.9-0.4,1.4
	c0,0.1,0,0.2-0.1,0.3c0,0.1-0.1,0.2-0.1,0.3c-0.6,0.7-1.2,1.5-1.7,2.3c-0.5,0.8-1,1.6-1.5,2.3c-0.5,0.5-1,1-1.4,1.5
	c-0.5,0.5-1,0.9-1.6,1.1c-0.4,0.2-0.9,0.4-1.4,0.4c-0.6,0-1.1-0.1-1.6-0.4c-0.3-0.2-0.6-0.5-0.9-0.8c-0.3-0.3-0.4-0.8-0.4-1.2
	c-0.1-1.1-0.1-2.2,0-3.3c0.2-2,0.6-4.1,1-6.1c0.1-0.1,0.1-0.3,0.2-0.4c0-0.1,0-0.2,0-0.3c0.2-0.6,0.4-1,0.6-1.1
	C126.8,114.8,127.4,114.8,127.9,114.8z"/>
<path class="st0" d="M139.5,129.3c-0.4,0-0.8-0.1-1.2-0.2L138,129c-0.1-0.1-0.3-0.1-0.4-0.1c-0.1,0-0.1-0.1-0.2-0.1
	c-0.1-0.1-0.1-0.1-0.2-0.1c-0.2-0.2-0.4-0.4-0.6-0.6c-0.2-0.2-0.4-0.4-0.5-0.7c-0.2-0.4-0.2-0.9,0-1.3c0.1-0.4,0.2-0.7,0.3-1.1
	c0.1-0.4,0.3-0.8,0.4-1.2c0.1-0.1,0.1-0.3,0.2-0.5c0.1-0.2,0.1-0.3,0.2-0.5c0.3-0.5,0.4-1,0.5-1.5c0.1-0.4,0.2-0.8,0.6-1.1
	c0.3-0.7,0.7-1.3,1.3-1.7c0.3-0.3,0.5-0.5,0.8-0.8c0.2-0.3,0.5-0.5,0.8-0.8c0.2-0.1,0.3-0.2,0.5-0.3c0.3-0.1,0.5-0.2,0.8-0.2
	l0.9-0.2c0.1,0,0.2-0.1,0.3-0.1h0.3c0.3,0,0.5,0.1,0.8,0.3c0.4,0.3,0.7,0.6,1,1c0.2,0.3,0.4,0.7,0.5,1c0.1,0.4,0.1,0.8-0.1,1.1
	c-0.3,0.4-0.6,0.7-1,1c-0.4,0.3-0.7,0.7-1.1,1s-0.9,0.7-1.4,1.1s-0.9,0.8-1.4,1.1c-0.3,0.2-0.7,0.3-1.1,0.2c-0.1,0-0.3,0-0.4,0.1
	c-0.2,0.1-0.4,0.2-0.5,0.4c-0.1,0.3-0.2,0.5-0.3,0.8c-0.2,0.5-0.3,1.1-0.2,1.7c0.1,0.1,0.1,0.1,0.2,0.2c0.1,0.1,0.2,0.2,0.3,0.2
	c0.3,0.1,0.6,0.1,0.9,0.1c0.6-0.1,1.1-0.2,1.6-0.5c0.6-0.2,1.2-0.5,1.7-0.8c0.5-0.3,1-0.6,1.6-0.9s1.2-0.7,1.7-1.1s1.1-0.7,1.7-1.1
	c0.2-0.1,0.4-0.1,0.6-0.1c0.1-0.1,0.3-0.1,0.4,0c0.2,0.1,0.2,0.2,0.2,0.3c-0.1,0.7-0.5,1.3-1,1.7c-0.5,0.3-1,0.6-1.5,1
	c-0.5,0.4-0.9,0.7-1.3,1.1l-1.1,0.7c-0.4,0.3-0.8,0.4-1.3,0.6c-0.3,0.1-0.6,0.3-1,0.4c-0.3,0.1-0.7,0.2-1.1,0.2
	c-0.3,0.1-0.6,0.2-0.9,0.2C140.1,129.4,139.8,129.4,139.5,129.3z M143.8,118.8c-0.1-0.1-0.1-0.1-0.1-0.2c0-0.1,0-0.1-0.1-0.1h-0.4
	c-0.1,0.1-0.2,0.2-0.3,0.3c-0.4,0.5-0.9,0.9-1.3,1.4c-0.4,0.5-0.8,1-1.1,1.6c0,0.2,0,0.3,0.1,0.3h0.2c0.2-0.2,0.5-0.4,0.7-0.7
	s0.5-0.4,0.7-0.7c0.3-0.2,0.7-0.5,0.9-0.8c0.2-0.3,0.4-0.7,0.6-1C143.7,119,143.8,118.9,143.8,118.8z"/>
<path class="st0" d="M44.2,166.3c-0.6,0-1.2-0.1-1.7-0.3c-0.1,0-0.2-0.1-0.3-0.2c-0.1-0.1-0.2-0.1-0.3-0.2c-0.4-0.4-0.6-0.9-0.5-1.4
	c0-0.3,0.1-0.5,0.2-0.8c0.1-0.2,0.1-0.4,0.1-0.6c0-0.1-0.1-0.3-0.2-0.3c0,0,0,0-0.1,0c0,0-0.1,0.1-0.1,0.1c-0.1,0-0.1,0-0.1,0.1
	c-0.3,0.4-0.6,0.7-1,1l-0.6,0.5c-0.2,0.1-0.4,0.3-0.6,0.4s-0.5,0.4-0.7,0.6c-0.2,0.2-0.5,0.4-0.7,0.5c-1,0.8-2.3,1.2-3.5,1
	c-0.5,0-0.9-0.2-1.2-0.6c-0.1-0.2-0.3-0.4-0.5-0.6c-0.3-0.3-0.3-0.8-0.1-1.2c0.1-0.3,0.3-0.6,0.4-1c0.1-0.3,0.2-0.7,0.2-1
	c0.1-0.3,0.2-0.6,0.4-0.8c0.2-0.3,0.4-0.7,0.7-1c0.3-0.3,0.5-0.6,0.8-0.8c0.2-0.2,0.5-0.5,0.7-0.7l0.7-0.7c0.1-0.2,0.3-0.3,0.5-0.5
	c0.2-0.2,0.4-0.3,0.5-0.6c0.2-0.2,0.4-0.3,0.6-0.5c0.2-0.2,0.3-0.4,0.5-0.6c0.6-0.7,1.3-1.2,2.2-1.5l1.8-0.8
	c0.1-0.1,0.3-0.2,0.5-0.2c0.2,0,0.4-0.1,0.5-0.1c0.3-0.1,0.6-0.1,0.9,0h0.1c0.3,0.1,0.6,0.2,0.9,0.3l1,0.1c0.4,0,0.7,0.2,0.9,0.5
	c0.2,0.3,0.2,0.6,0.1,0.9c0,0.7-0.2,1.3-0.5,1.9c-0.1,0.4-0.3,0.7-0.5,1.1c-0.2,0.3-0.3,0.7-0.4,1.1c-0.1,0.2-0.2,0.4-0.3,0.6
	s-0.2,0.4-0.3,0.6s-0.3,0.7-0.4,1.1s-0.2,0.7-0.3,1v0.5c0,0,0,0.1,0.1,0.2c0.1,0.1,0.2,0.1,0.3,0.1c0.2,0,0.4,0,0.5-0.1
	c0.4-0.1,0.8-0.3,1.1-0.5l1.1-0.5l1.7-1.1l1.7-1.1c0.7-0.4,1.5-0.7,2.3-1c0.2-0.1,0.3-0.1,0.5-0.1c0.1,0,0.2,0.1,0.3,0.1
	c0.1,0.1,0.1,0.2,0.1,0.3l-0.4,0.6l-0.8,0.8c-0.3,0.3-0.5,0.5-0.8,0.8c-0.6,0.4-1.2,0.8-1.8,1.3c-0.5,0.5-1.1,0.9-1.7,1.3
	c-0.3,0.2-0.7,0.4-1,0.6s-0.7,0.4-1.1,0.6C45.9,166.1,45.1,166.3,44.2,166.3z M44.1,155.7c0-0.3-0.1-0.4-0.3-0.4
	c-0.1,0.1-0.3,0.1-0.5,0.1c-0.1,0-0.3,0.1-0.4,0.1c-0.3,0.1-0.6,0.2-0.9,0.4c-0.3,0.2-0.6,0.4-0.8,0.6c-0.4,0.3-0.8,0.6-1.1,1
	c-0.4,0.4-0.7,0.7-1.1,1.1c-0.6,0.6-1.1,1.3-1.6,2c-0.5,0.7-1,1.4-1.5,2.1v0.2c0,0.1-0.1,0.1,0,0.2c0,0,0,0.1,0,0.1h0.5
	c0.1-0.1,0.3-0.2,0.4-0.3c0.2-0.1,0.3-0.2,0.4-0.3c0.6-0.5,1.2-1,1.8-1.5s1.2-1,1.7-1.5l1.5-1.3c0.5-0.4,0.9-0.9,1.4-1.3
	c0.1-0.1,0.2-0.2,0.3-0.4c0.1-0.2,0.2-0.3,0.3-0.5c0-0.1,0-0.1,0-0.2C44.1,155.8,44.1,155.8,44.1,155.7L44.1,155.7z"/>
<path class="st0" d="M59.3,165.4l1.5-0.9c0.5-0.3,1-0.7,1.5-1.1c0.6-0.4,1.2-0.8,1.8-1.1c0.6-0.3,1.3-0.7,1.9-1.1l0.6-0.3
	c0.2-0.1,0.4-0.2,0.7-0.3c0.2-0.1,0.4-0.2,0.6-0.3c0.2-0.1,0.4-0.2,0.7-0.3c0.2,0,0.2,0,0.1,0.2c0,0.1,0,0.2,0,0.4
	c-0.1,0.1-0.1,0.2-0.1,0.3l-1.4,1.1l-0.4,0.3l-0.4,0.3l-2.6,2.4c-0.5,0.5-1.1,1-1.7,1.5s-1.2,1-1.8,1.5c-0.2,0.1-0.5,0.3-0.7,0.5
	c-0.2,0.2-0.4,0.4-0.7,0.6s-0.3,0.3-0.5,0.4c-0.1,0.1-0.2,0.2-0.4,0.3c-0.5,0.2-1.1,0.2-1.5-0.1l-0.3-0.3c-0.2-0.3-0.4-0.6-0.6-0.9
	c-0.1-0.4-0.1-0.8,0.1-1.2l0.3-1.2c0.2-0.6,0.4-1.2,0.6-1.8c0.2-0.6,0.4-1.2,0.7-1.8l0.6-1.7l0.1-0.7c0-0.2-0.1-0.3-0.3-0.4
	c-0.1,0-0.2,0-0.3,0.1l-1.6,1.6c-0.3,0.3-0.6,0.6-0.9,0.9c-0.3,0.2-0.7,0.4-1.1,0.5c-0.1,0.1-0.2,0.1-0.3,0.2
	c-0.1,0.1-0.2,0.2-0.3,0.3c-0.2,0.4-0.6,0.6-1,0.8l-0.5,0.2c-0.4,0.2-0.7,0.1-0.9-0.4c-0.2-0.3-0.2-0.7-0.1-1c0.2-0.3,0.3-0.7,0.5-1
	c0.1-0.3,0.2-0.6,0.4-1c0.2-0.4,0.4-0.8,0.6-1.2c0.2-0.4,0.4-0.8,0.5-1.3c0.1-0.4,0.2-0.7,0.4-1c0.1-0.4,0.3-0.8,0.5-1.2
	c0.2-0.4,0.3-0.9,0.5-1.3c0.1-0.3,0.2-0.5,0.3-0.8c0.1-0.2,0.2-0.4,0.3-0.7c0.1-0.2,0.4-0.4,0.6-0.3h0.7h0.5c0.2,0,0.3,0.1,0.4,0.2
	c0.4,0.2,0.6,0.7,0.5,1.1c0,0.2,0,0.4-0.1,0.6c-0.1,0.2-0.1,0.4-0.1,0.6c0,0.1,0.1,0.1,0.3,0.1c0.1,0,0.2,0,0.3-0.1
	c0.4-0.4,0.8-0.7,1.2-1c0.4-0.3,0.8-0.6,1.2-0.9c0.5-0.3,1.1-0.5,1.7-0.5c0.4,0,0.8,0.1,1.1,0.4c0,0.1,0.1,0.2,0.1,0.2
	c0,0.1,0.1,0.2,0.1,0.2c0.1,0.3,0.2,0.4,0.1,0.5c-0.1,0.3-0.2,0.6-0.3,0.9l-2.4,5.2l-1.2,3.1c-0.2,0.4-0.3,0.9-0.2,1.4
	c0,0.1,0.1,0.2,0.2,0.2c0,0,0,0,0.1,0h0.1v0.1L59.3,165.4z"/>
<path class="st0" d="M91.5,166.3c-0.6,0-1.2-0.1-1.7-0.3c-0.1,0-0.2-0.1-0.3-0.2c-0.1-0.1-0.2-0.1-0.3-0.2c-0.4-0.4-0.6-0.9-0.5-1.4
	c0-0.3,0.1-0.5,0.2-0.8c0.1-0.2,0.1-0.4,0.1-0.6c0-0.1-0.1-0.3-0.2-0.3c0,0,0,0-0.1,0c0,0-0.1,0.1-0.1,0.1c-0.1,0-0.1,0-0.1,0.1
	c-0.3,0.4-0.6,0.7-1,1l-0.6,0.5c-0.2,0.1-0.4,0.3-0.6,0.4c-0.2,0.2-0.4,0.4-0.6,0.6c-0.2,0.2-0.5,0.4-0.7,0.5c-1,0.8-2.3,1.2-3.5,1
	c-0.5,0-0.9-0.2-1.2-0.6c-0.1-0.2-0.3-0.4-0.5-0.6c-0.3-0.3-0.3-0.8-0.1-1.2c0.1-0.3,0.3-0.6,0.4-1c0.1-0.3,0.2-0.7,0.2-1
	c0.1-0.3,0.2-0.6,0.4-0.8c0.2-0.3,0.4-0.7,0.7-1c0.3-0.3,0.5-0.6,0.8-0.8l0.7-0.7c0.2-0.2,0.4-0.5,0.7-0.7c0.1-0.2,0.3-0.3,0.5-0.5
	c0.2-0.2,0.4-0.3,0.5-0.6c0.2-0.2,0.4-0.3,0.6-0.5c0.2-0.2,0.3-0.4,0.5-0.6c0.6-0.7,1.3-1.2,2.2-1.5l1.8-0.8
	c0.1-0.1,0.3-0.2,0.5-0.2c0.2,0,0.4-0.1,0.6-0.1c0.3-0.1,0.6-0.1,0.9,0h0.1c0.3,0.1,0.6,0.2,0.9,0.3l1,0.1c0.4,0,0.7,0.2,0.9,0.5
	c0.2,0.3,0.2,0.6,0.1,0.9c0,0.7-0.2,1.3-0.5,1.9c-0.1,0.4-0.3,0.7-0.5,1.1c-0.2,0.3-0.3,0.7-0.4,1.1c-0.1,0.2-0.2,0.4-0.3,0.6
	s-0.2,0.4-0.3,0.6s-0.3,0.7-0.4,1.1s-0.2,0.7-0.3,1v0.5c0,0,0,0.1,0.1,0.2c0.1,0.1,0.2,0.1,0.3,0.1c0.2,0,0.4,0,0.6-0.1
	c0.4-0.1,0.8-0.3,1.1-0.5l1.1-0.5l1.7-1.1l1.7-1.1c0.7-0.4,1.5-0.7,2.3-1c0.2-0.1,0.3-0.1,0.5-0.1c0.2,0,0.4,0.2,0.4,0.4l-0.4,0.6
	l-0.8,0.8c-0.3,0.3-0.5,0.5-0.8,0.8c-0.6,0.4-1.2,0.8-1.8,1.3c-0.5,0.5-1.1,0.9-1.7,1.3c-0.3,0.2-0.7,0.4-1,0.6s-0.7,0.4-1.1,0.6
	C93.2,166.1,92.4,166.3,91.5,166.3z M91.4,155.7c0-0.3-0.1-0.4-0.3-0.4c-0.1,0.1-0.3,0.1-0.5,0.1c-0.1,0-0.3,0.1-0.4,0.1
	c-0.3,0.1-0.7,0.2-1,0.4c-0.3,0.2-0.6,0.4-0.8,0.6c-0.4,0.3-0.8,0.6-1.1,1l-1.1,1.1c-0.5,0.6-1.1,1.3-1.6,2c-0.5,0.7-1,1.4-1.5,2.1
	v0.3c0,0.1-0.1,0.1,0,0.2c0,0,0,0.1,0,0.1h0.5c0.1-0.1,0.3-0.2,0.4-0.3c0.2-0.1,0.3-0.2,0.4-0.3c0.6-0.5,1.2-1,1.8-1.5l1.8-1.6
	l1.5-1.3c0.5-0.4,1-0.9,1.4-1.3c0.1-0.1,0.2-0.2,0.3-0.4c0.1-0.2,0.2-0.3,0.3-0.5c0-0.1,0-0.1,0-0.2
	C91.5,155.8,91.4,155.8,91.4,155.7L91.4,155.7z"/>
<path class="st0" d="M98,165.8c0-0.5,0.2-1,0.5-1.4c0.2-0.4,0.4-0.8,0.7-1.2c0.2-0.4,0.4-0.8,0.7-1.2c0.1-0.2,0.2-0.4,0.3-0.6
	l0.3-0.6c0-0.2,0.1-0.3,0.1-0.5c0.1-0.6,0.3-1.1,0.5-1.6c0.3-0.5,0.5-1.1,0.7-1.6c0.1-0.3,0.3-0.5,0.5-0.7c0.1-0.2,0.3-0.4,0.5-0.3
	c0.2-0.1,0.5-0.1,0.8-0.1c0.3-0.1,0.4,0,0.6,0.3c0.2,0.3,0.3,0.6,0.3,1v0.4c0,0.1,0.1,0.3,0.2,0.3c0.1,0.1,0.3,0.1,0.4,0
	c0.1-0.1,0.3-0.2,0.5-0.3l0.3-0.4c0.1-0.1,0.3-0.3,0.5-0.3c0.1-0.1,0.2-0.1,0.3-0.1c0.1,0,0.3,0,0.4-0.1c0.3-0.1,0.6-0.1,0.9-0.1
	c0.7,0,1.3,0.3,1.6,0.9c0,0.1,0,0.2,0.1,0.3c0.1,0.2,0.4,0.2,0.5,0.1c0.1,0,0.2-0.1,0.3-0.2c0.1-0.1,0.2-0.1,0.3-0.2l1-1
	c0.3-0.2,0.5-0.4,0.7-0.7c0.2-0.2,0.4-0.4,0.7-0.7c0.1-0.2,0.2-0.3,0.4-0.4l0.4-0.3c0.4-0.2,0.7-0.5,1.1-0.7s0.7-0.5,1.1-0.8
	c0.5-0.3,1.1-0.4,1.7-0.3c0.4,0.1,0.7,0.3,0.8,0.6v0.3c-0.1,0.5-0.2,0.9-0.3,1.2c-0.1,0.4-0.3,0.8-0.5,1.2c-0.4,0.9-0.8,1.7-1.2,2.6
	s-0.8,1.7-1.2,2.5c-0.2,0.6-0.5,1.2-0.7,1.8c-0.3,0.6-0.5,1.2-0.8,1.8c-0.2,0.5-0.4,0.9-0.6,1.3s-0.4,0.9-0.6,1.4c0,0.1,0,0.1,0,0.2
	c0,0.1,0,0.2,0,0.3c0,0.2,0,0.3,0.1,0.3s0.1,0.1,0.2,0c0.2,0,0.3-0.1,0.5-0.2c0.5-0.4,1-0.7,1.5-1.1c0.5-0.4,1-0.8,1.4-1.2
	c0,0,0.1-0.1,0.1-0.1c0,0,0.1-0.1,0.1-0.2c0.3-0.4,0.7-0.7,1.2-0.9c0.4-0.3,0.8-0.6,1.2-0.9c0.4-0.4,0.8-0.7,1.2-1
	c0.4-0.3,0.8-0.6,1.2-1c0.3-0.1,0.5-0.3,0.8-0.5c0.2-0.2,0.5-0.3,0.8-0.4h0.1c0.2,0.1,0.2,0.2,0.1,0.3c0,0.1,0,0.1,0,0.2l-0.1,0.2
	c0,0.3-0.1,0.5-0.3,0.8c-0.4,0.5-0.8,1-1.2,1.4c-0.4,0.4-0.8,0.8-1.2,1.2c-0.4,0.2-0.7,0.5-1,0.8c-0.3,0.3-0.5,0.6-0.8,0.8
	c-0.5,0.5-1.1,1.1-1.6,1.6s-1.1,1-1.6,1.6c-0.6,0.8-1.3,1.4-2.1,2c-0.2,0.2-0.4,0.3-0.7,0.4c-0.2,0.1-0.5,0.1-0.8,0.2
	c-0.4,0-0.8-0.2-1.1-0.5c-0.8-0.6-1.1-1.7-0.8-2.7c0.1-0.5,0.4-1,0.6-1.5c0.2-0.5,0.4-0.9,0.7-1.4s0.4-0.9,0.7-1.4s0.4-0.8,0.7-1.3
	s0.4-0.9,0.7-1.3c0.1-0.2,0.2-0.4,0.3-0.6c0.1-0.2,0.2-0.4,0.2-0.6c0.2-0.5,0.4-1,0.6-1.5s0.4-1,0.6-1.5c0.1-0.2,0.2-0.3,0.3-0.5
	c0-0.2,0-0.3,0-0.5c0-0.1-0.1-0.2-0.2-0.2c-0.1,0-0.2,0-0.3,0c-0.1,0-0.2,0.1-0.3,0.1c-0.2,0.2-0.4,0.3-0.6,0.5s-0.3,0.3-0.5,0.5
	c-0.8,0.7-1.5,1.4-2.2,2.1c-0.7,0.8-1.4,1.5-2.1,2.3c-0.2,0.3-0.5,0.6-0.7,0.9l-0.7,0.9l-0.5,0.6l-0.5,0.6c-0.2,0.4-0.5,0.7-0.8,0.9
	c-0.4,0.4-1.1,0.4-1.5,0c-0.2-0.2-0.4-0.4-0.5-0.6c-0.1-0.2-0.3-0.5-0.3-0.7c0-0.2,0-0.3,0.1-0.3c0.1-0.2,0.2-0.5,0.2-0.7
	c0.1-0.3,0.2-0.5,0.3-0.8c0.1-0.4,0.2-0.8,0.3-1.2c0-0.1,0-0.2-0.1-0.2c0,0-0.1,0-0.2,0c-0.3,0-0.7,0.1-0.8,0.4
	c-0.2,0.2-0.4,0.5-0.6,0.7c-0.2,0.3-0.4,0.6-0.5,0.9c-0.2,0.3-0.3,0.6-0.5,0.8c-0.2,0.3-0.3,0.6-0.4,0.9c-0.3,0.5-0.6,0.9-1,1.3
	c-0.1,0.2-0.2,0.3-0.4,0.3c-0.2,0-0.4,0-0.6-0.1c-0.3,0-0.5-0.1-0.6-0.4C98.1,166.5,98,166.1,98,165.8z"/>
<path class="st0" d="M132.1,166.3c-0.6,0-1.2-0.1-1.7-0.3l-0.3-0.2c-0.1-0.1-0.2-0.1-0.3-0.2c-0.4-0.4-0.6-0.9-0.5-1.4
	c0-0.3,0.1-0.5,0.2-0.8c0.1-0.2,0.1-0.4,0.1-0.6c0-0.1-0.1-0.3-0.2-0.3c0,0,0,0-0.1,0c0,0-0.1,0.1-0.1,0.1c-0.1,0-0.1,0-0.1,0.1
	c-0.3,0.4-0.6,0.7-0.9,1l-0.6,0.5c-0.2,0.1-0.4,0.3-0.6,0.4s-0.4,0.4-0.6,0.6c-0.2,0.2-0.5,0.4-0.7,0.5c-1,0.8-2.3,1.2-3.6,1
	c-0.5,0-0.9-0.2-1.2-0.6c-0.1-0.2-0.3-0.4-0.5-0.6c-0.3-0.3-0.3-0.8-0.1-1.2c0.1-0.3,0.3-0.6,0.4-1c0.1-0.3,0.2-0.7,0.2-1
	c0-0.3,0.2-0.6,0.4-0.8c0.2-0.4,0.4-0.7,0.7-1c0.3-0.3,0.5-0.6,0.8-0.8l0.7-0.7c0.2-0.2,0.4-0.5,0.7-0.7c0.1-0.2,0.3-0.3,0.5-0.5
	c0.2-0.2,0.4-0.3,0.5-0.6c0.2-0.2,0.4-0.3,0.6-0.5c0.2-0.2,0.3-0.4,0.5-0.6c0.6-0.7,1.3-1.2,2.2-1.5l1.8-0.8
	c0.1-0.1,0.3-0.2,0.5-0.2c0.2,0,0.4-0.1,0.6-0.1c0.3-0.1,0.6-0.1,0.9,0h0.1c0.3,0.1,0.6,0.2,0.9,0.3l1,0.1c0.4,0,0.7,0.2,0.9,0.5
	c0.2,0.3,0.2,0.6,0.1,0.9c0,0.7-0.2,1.3-0.5,1.9c-0.1,0.4-0.3,0.7-0.5,1.1c-0.2,0.3-0.3,0.7-0.4,1.1c-0.1,0.2-0.2,0.4-0.3,0.6
	s-0.2,0.4-0.3,0.6s-0.3,0.7-0.4,1.1s-0.2,0.7-0.3,1v0.5c0,0,0.1,0.1,0.1,0.2c0.1,0.1,0.2,0.1,0.3,0.1c0.2,0,0.4,0,0.6-0.1
	c0.4-0.1,0.8-0.3,1.1-0.5l1.1-0.5l1.7-1.1l1.7-1.1c0.7-0.4,1.5-0.7,2.3-1c0.2-0.1,0.3-0.1,0.5-0.1c0.2,0,0.4,0.2,0.4,0.4l-0.4,0.6
	l-0.8,0.8c-0.3,0.3-0.5,0.5-0.8,0.8c-0.6,0.4-1.2,0.8-1.8,1.3c-0.5,0.5-1.1,0.9-1.7,1.3c-0.3,0.2-0.7,0.5-1,0.6
	c-0.4,0.2-0.7,0.4-1.1,0.6C133.9,166.1,133,166.3,132.1,166.3z M132.1,155.7c0-0.3-0.1-0.4-0.3-0.4c-0.1,0.1-0.3,0.1-0.5,0.1
	c-0.1,0-0.3,0.1-0.4,0.1c-0.4,0.1-0.7,0.2-1,0.4c-0.3,0.2-0.6,0.4-0.8,0.6c-0.4,0.3-0.7,0.6-1.1,1l-1.1,1.1c-0.5,0.6-1.1,1.3-1.6,2
	l-1.5,2.1v0.3c0,0.1-0.1,0.1,0,0.2c0,0,0,0.1,0,0.1h0.5c0.1-0.1,0.3-0.2,0.4-0.3c0.2-0.1,0.3-0.2,0.4-0.3c0.6-0.5,1.2-1,1.8-1.5
	l1.7-1.5l1.5-1.3c0.5-0.4,0.9-0.9,1.4-1.3c0.1-0.1,0.2-0.2,0.3-0.4c0.1-0.2,0.2-0.3,0.3-0.5c0.1-0.1,0.1-0.1,0-0.2
	C132,155.8,132,155.8,132.1,155.7L132.1,155.7z"/>
<path class="st0" d="M139.1,173.8c-0.1,1.4-0.7,2.8-1.7,3.8c-0.6,0.8-1.1,1.6-1.6,2.4c-0.5,0.8-1,1.7-1.3,2.6c0,0.1,0,0.3-0.1,0.4
	c-0.1,0.1-0.1,0.2-0.1,0.4c0.2,0.2,0.5,0.3,0.8,0.4c0.3,0.1,0.5,0,0.7-0.2c0.3-0.1,0.5-0.2,0.8-0.4c0.2-0.2,0.5-0.4,0.7-0.6
	c1.1-0.6,2.1-1.3,3.1-2.1l3-2.5c0.4-0.4,0.7-0.7,1-1.1s0.6-0.7,0.9-1.1c0.2-0.5,0.4-1,0.8-1.4c0.3-0.4,0.7-0.9,1.1-1.2
	c0.3-0.3,0.5-0.6,0.7-0.8c0.2-0.3,0.4-0.6,0.6-0.9c0.7-1.3,1.3-2.8,1.7-4.2c0-0.2,0-0.4,0.1-0.5c0.1-0.1,0.1-0.2,0.1-0.3
	c0-0.9-0.3-1.8-1-2.4c-0.7-0.6-1.6-0.8-2.5-0.7c-0.2,0-0.4,0-0.6,0.1c-0.3,0.1-0.6,0.1-0.9,0.1c-0.5,0-1.1,0.2-1.4,0.5
	c-0.2,0.3-0.6,0.5-0.9,0.6h-1.1c-0.3-0.1-0.5-0.2-0.7-0.5c-0.1-0.2-0.3-0.5-0.5-0.8c0.7-1,1.5-2,2.4-2.9c0.4-0.5,0.8-1,1.3-1.5
	c0.5-0.4,0.9-1,1.1-1.6c-0.6,0-1.1,0-1.6,0c-0.5,0-1-0.1-1.5-0.2c-0.2-0.5,0.1-1.1,0.6-1.3c0,0,0.1,0,0.1,0c0.6-0.3,1.3-0.6,2-0.9
	c0.6-0.3,1.3-0.5,2-0.6c0.7-0.2,1.4-0.2,2.1,0c0.7,0.4,1.3,1,1.6,1.7c-0.4,0.9-1,1.7-1.7,2.4c-0.8,0.7-1.5,1.6-2,2.5
	c0.3,0.2,0.6,0.3,0.9,0.3h0.8c0.7,0.1,1.4,0.5,2,0.9c1.2,1,2,2.4,2.2,4c0.1,0.8,0,1.7-0.3,2.5c-0.6,1.6-1.4,3-2.6,4.2
	c-0.4,0.5-0.8,1.1-1.2,1.6c-0.4,0.5-0.7,1.1-1,1.7c-0.3,0.4-0.5,0.8-0.9,1.1c-0.4,0.4-0.7,0.8-1.1,1.1c-0.1,0.2-0.3,0.4-0.5,0.5
	c-0.2,0.1-0.4,0.4-0.5,0.6c-0.8,1-1.7,1.9-2.7,2.7c-1,0.8-2,1.5-3.1,2.3c-1.1,0.8-2.4,1.3-3.7,1.5c-0.8,0.2-1.6,0.1-2.3-0.4
	c-0.7-0.4-1.3-1-1.6-1.7c-0.2-0.2-0.2-0.6,0-1c0.1-0.3,0.2-0.6,0.3-0.9c0.1-0.3,0.2-0.6,0.4-0.9c0.6-0.8,1.2-1.6,1.7-2.3
	c0.6-0.8,1.2-1.5,1.9-2.1c0.4-0.4,0.7-0.8,1-1.2c0.3-0.4,0.7-0.8,1.2-1.1c0.1,0,0.2-0.1,0.3-0.1L139.1,173.8z"/>
<path class="st0" d="M154.4,163.9c0.1-0.3,0.2-0.5,0.2-0.6c0-0.1,0.1-0.3,0.2-0.4c0.4-1.1,0.9-2.2,1.6-3.2c0.6-0.8,1.1-1.7,1.5-2.6
	c0.1-0.2,0.2-0.4,0.2-0.6c0.1-0.2,0.1-0.4,0.2-0.6c0.1-0.2,0.2-0.5,0.3-0.7c0.1-0.2,0.3-0.4,0.4-0.6c0-0.2,0.2-0.3,0.3-0.4l0.5-0.1
	h0.2c0.5,0,1.1,0.3,1.2,0.8c0.1,0.2,0.2,0.5,0.1,0.7c-0.1,0.2-0.2,0.5-0.4,0.7c-0.4,0.6-0.8,1.2-1.2,1.7c-0.4,0.5-0.8,1.1-1.1,1.8
	c-0.2,0.4-0.5,0.8-0.8,1.4l-0.7,1.4c-0.1,0.2-0.2,0.4-0.3,0.7c-0.1,0.2-0.1,0.5-0.2,0.8c0,0.1,0,0.2,0.2,0.2c0.1,0,0.3,0.1,0.4,0.1
	c0.5-0.1,1-0.2,1.5-0.4c0.6-0.2,1.3-0.5,2-0.8c0.7-0.3,1.4-0.6,2.1-1s1.4-0.8,2.1-1.2c0.4-0.2,0.8-0.4,1.1-0.6
	c0.3-0.2,0.7-0.3,1.1-0.3c0.1,0,0.1,0.2,0.1,0.3v0.2c-0.1,0.2-0.3,0.4-0.6,0.6c-0.2,0.2-0.4,0.3-0.7,0.5c-0.5,0.4-1.1,0.9-1.9,1.4
	s-1.6,1.1-2.5,1.6s-1.6,1-2.4,1.4c-0.6,0.4-1.3,0.7-1.9,0.9c-0.5,0.2-1.1,0.3-1.6,0.1l-0.6-0.2c-0.6-0.3-1-0.8-1.1-1.4
	c-0.1-0.1-0.1-0.2-0.1-0.3s0-0.1,0-0.3c0-0.3,0-0.5,0.1-0.8C154.3,164.2,154.3,164.1,154.4,163.9
	C154.4,163.9,154.4,163.9,154.4,163.9z M160.3,152.1c0-0.1,0.1-0.2,0.1-0.3c0-0.1,0-0.2,0.1-0.3c0.1-0.3,0.2-0.7,0.3-1l0.4-0.8
	c0-0.1,0.1-0.2,0.2-0.2c0.1-0.1,0.2-0.1,0.2-0.2c0.7-0.3,1.4-0.1,1.9,0.4c0.4,0.4,0.5,0.8,0.2,1.1c-0.2,0.6-0.6,1.1-1,1.5
	c-0.4,0.4-0.9,0.7-1.5,0.8c-0.1,0-0.1,0-0.2,0h-0.1c-0.3-0.1-0.5-0.3-0.5-0.5C160.4,152.4,160.3,152.3,160.3,152.1z"/>
<path class="st0" d="M173.2,165.4l1.5-0.9c0.5-0.3,1-0.7,1.5-1.1c0.6-0.4,1.2-0.8,1.8-1.1c0.7-0.3,1.3-0.7,1.9-1.1l0.6-0.3
	c0.2-0.1,0.4-0.2,0.6-0.3c0.2-0.1,0.4-0.2,0.6-0.3c0.2-0.1,0.4-0.2,0.7-0.3c0.2,0,0.2,0,0.1,0.2c0,0.1,0,0.2,0,0.4
	c-0.1,0.1-0.1,0.2-0.1,0.3L181,162l-0.4,0.3l-0.4,0.3l-2.6,2.4c-0.5,0.5-1.1,1-1.7,1.5s-1.2,1-1.8,1.5c-0.2,0.1-0.4,0.3-0.6,0.5
	c-0.2,0.2-0.4,0.4-0.6,0.6s-0.4,0.3-0.5,0.4c-0.1,0.1-0.2,0.2-0.4,0.3c-0.5,0.2-1.1,0.2-1.5-0.1l-0.3-0.3c-0.2-0.3-0.4-0.6-0.6-0.9
	c-0.1-0.4-0.1-0.8,0.1-1.2l0.3-1.2c0.2-0.6,0.4-1.2,0.6-1.8c0.2-0.6,0.4-1.2,0.7-1.8l0.6-1.7l0.1-0.7c0-0.2-0.1-0.3-0.3-0.4
	c-0.1,0-0.2,0-0.3,0.1l-1.6,1.6c-0.3,0.3-0.6,0.6-0.9,0.9c-0.3,0.2-0.6,0.4-1,0.5c-0.1,0.1-0.2,0.1-0.3,0.2
	c-0.1,0.1-0.2,0.2-0.3,0.3c-0.2,0.4-0.6,0.6-1,0.8l-0.5,0.2c-0.4,0.2-0.7,0.1-0.9-0.4c-0.2-0.3-0.2-0.7-0.1-1c0.2-0.3,0.3-0.7,0.4-1
	c0.1-0.3,0.2-0.6,0.4-1c0.2-0.4,0.4-0.8,0.6-1.2c0.2-0.4,0.3-0.9,0.5-1.3c0.1-0.4,0.2-0.7,0.4-1c0.1-0.4,0.3-0.8,0.5-1.2
	c0.2-0.4,0.3-0.9,0.5-1.3c0.1-0.3,0.2-0.5,0.3-0.8c0.1-0.2,0.2-0.4,0.3-0.7c0.1-0.2,0.4-0.3,0.6-0.2h0.7h0.4c0.2,0,0.3,0.1,0.4,0.2
	c0.4,0.2,0.6,0.7,0.5,1.1c0,0.2,0,0.4-0.1,0.6s-0.1,0.4-0.1,0.6c0.1,0.1,0.2,0.1,0.3,0.1c0.1,0,0.2,0,0.3-0.1c0.4-0.4,0.8-0.7,1.2-1
	c0.4-0.3,0.8-0.6,1.2-0.9c0.5-0.3,1.1-0.5,1.7-0.5c0.4,0,0.8,0.1,1.1,0.4c0,0.1,0.1,0.2,0.1,0.2c0,0.1,0.1,0.2,0.1,0.2
	c0.1,0.3,0.2,0.4,0.1,0.5c-0.1,0.3-0.2,0.6-0.3,0.9l-2.4,5.2l-1.2,3.1c-0.2,0.4-0.3,0.9-0.2,1.4c0,0.1,0.1,0.2,0.2,0.2c0,0,0,0,0,0
	h0.1v0.1L173.2,165.4z"/>
<path class="st0" d="M171.1,193.2c-0.1,0-0.2,0-0.3,0c-0.1,0-0.2,0-0.2,0c-0.1-0.1-0.2-0.1-0.3-0.1c-0.1,0-0.2-0.1-0.3-0.2
	c-0.5-0.2-0.9-0.5-1.2-0.9c-0.2-0.3-0.3-0.6-0.3-1c0.1-0.5,0.2-0.9,0.4-1.4c0.1-0.4,0.3-0.9,0.5-1.3c0.4-0.5,0.7-1.1,0.8-1.7
	c0.3-0.5,0.6-1.1,0.9-1.6c0.3-0.5,0.7-1,1.1-1.5c0.1-0.2,0.3-0.4,0.4-0.6c0.1-0.2,0.3-0.4,0.3-0.6c0.4-0.8,1-1.6,1.7-2.2
	c0.3-0.2,0.5-0.5,0.8-0.8c0.2-0.3,0.5-0.5,0.7-0.8c0.7-0.8,1.5-1.6,2.2-2.4c0.7-0.8,1.5-1.5,2.3-2.2l0.3-0.3l0.3-0.3
	c0.3-0.3,0.5-0.6,0.9-0.9c0.3-0.3,0.7-0.6,1.1-0.8c0.2-0.1,0.4-0.3,0.5-0.5c0.2-0.2,0.3-0.4,0.5-0.6l0.5-0.5
	c0.2-0.2,0.4-0.4,0.6-0.6c0,0,0.1-0.1,0.1-0.1s0.1-0.1,0.1-0.1c0.5-0.4,1-0.9,1.4-1.5c0.4-0.5,0.7-1.1,1.1-1.7c0,0,0.1-0.1,0.1-0.1
	c0-0.1,0-0.1,0.1-0.1c0.3-0.8,0.5-1.6,0.8-2.4c0.2-0.8,0.4-1.7,0.5-2.6c0-0.2,0-0.3-0.1-0.4s0-0.1-0.2-0.1c-0.1,0-0.2,0-0.2,0.1
	c-0.3,0.3-0.6,0.6-0.8,0.9c-0.5,0.6-1,1.3-1.5,1.9s-1,1.2-1.6,1.8c-0.2,0.2-0.4,0.4-0.5,0.6c-0.2,0.2-0.4,0.4-0.6,0.6
	c-0.1,0.2-0.3,0.3-0.5,0.4c-0.2,0.1-0.5,0.2-0.7,0.4c-0.7,0.4-1.5,0.4-2.2,0.2c-0.8-0.2-1.4-0.7-1.8-1.4c0-0.1,0-0.3-0.1-0.4
	c0-0.1,0-0.3,0-0.4c0.1-1.2,0.5-2.3,1.1-3.3c0.3-0.6,0.7-1.2,1-1.7c0.3-0.5,0.7-1.1,1.1-1.6c0-0.1,0.1-0.2,0.2-0.3
	c0.1-0.1,0.1-0.2,0.2-0.4c0-0.4,0.2-0.8,0.5-1.1c0.4-0.4,0.7-0.7,0.9-1l0.9-1c0.4-0.5,0.9-0.8,1.5-1c0.6-0.2,1.1-0.3,1.7-0.4
	c0.2,0,0.4,0,0.6,0.1c0.5,0,1.1,0.2,1.4,0.7c0.1,0.1,0.2,0.3,0.4,0.3c0,0.1,0.1,0.1,0.3,0.1c0.1-0.1,0.2-0.2,0.3-0.3
	c0.1-0.1,0.2-0.2,0.3-0.2c0.1-0.1,0.2-0.1,0.3-0.1c0.1,0,0.2,0.1,0.2,0.2c0.2,0.4,0.3,0.8,0.3,1.2c0,0.1,0,0.2,0,0.3s0,0.2,0,0.3
	c-0.1,0.2-0.1,0.4,0,0.6c0.1,0.4,0.2,0.9,0.1,1.4c-0.1,0.7-0.2,1.4-0.2,2.1s-0.1,1.4-0.2,2.1c-0.2,0.6-0.2,1.3-0.1,1.9
	c0,0.3,0,0.6-0.1,0.9c-0.1,0.1-0.2,0.3-0.2,0.4c0,0.2-0.1,0.3-0.2,0.4c-0.4,0.5-0.7,1.1-0.9,1.8c-0.1,0.3-0.2,0.6-0.3,0.8
	c-0.1,0.3-0.3,0.5-0.4,0.8c-0.4,1.2-0.9,2.4-1.4,3.5s-1.1,2.3-1.6,3.4c-0.3,0.6-0.6,1.2-1,1.8s-0.7,1.2-1.1,1.8s-0.7,1.2-1,1.8
	s-0.7,1.1-1.1,1.7c-0.5,0.8-1,1.6-1.6,2.3s-1.1,1.5-1.8,2.3c-0.8,0.9-1.6,1.8-2.3,2.5c-0.4,0.3-0.8,0.6-1.2,0.9
	c-0.4,0.3-0.8,0.6-1.2,1c-0.3,0.1-0.5,0.3-0.7,0.5c-0.3,0.2-0.7,0.3-1,0.4c-0.3,0.1-0.7,0.2-1,0.2L171.1,193.2z M185.4,173.2
	c0.1-0.4,0.3-0.7,0.4-1.1s0.2-0.7,0.3-1.1v-0.2c-0.1,0-0.3,0-0.4,0c-0.5,0.4-1,0.8-1.4,1.2c-0.5,0.4-0.9,0.8-1.3,1.3
	c-0.5,0.3-0.9,0.7-1.3,1.2c-0.4,0.4-0.8,0.8-1.1,1.2c-0.7,0.8-1.4,1.6-2.1,2.3s-1.3,1.6-1.9,2.4c-0.4,0.5-0.7,0.9-1,1.3
	s-0.6,0.9-0.9,1.3c-0.5,0.6-0.9,1.3-1.3,2.1c-0.4,0.8-0.7,1.5-1.1,2.4c-0.3,0.6-0.6,1.3-0.9,2.1c-0.1,0.2-0.1,0.4-0.1,0.6
	c0,0.2,0,0.4,0,0.6c0,0.1,0,0.2,0.1,0.3c0.1,0.1,0.2,0.1,0.3,0.1c0.3,0,0.5-0.1,0.8-0.3c0.5-0.4,1-0.7,1.6-0.9
	c0.1-0.1,0.3-0.2,0.5-0.3c0.4-0.4,0.7-0.7,1.1-1c0.4-0.3,0.7-0.7,1-1.1c0.3-0.4,0.6-0.8,1-1.1c0.5-0.5,1-1.1,1.4-1.8
	c0.2-0.2,0.4-0.4,0.5-0.6c0.2-0.2,0.3-0.4,0.4-0.5c0.2-0.2,0.4-0.6,0.5-0.9c0.1-0.3,0.3-0.7,0.5-0.9c0.2-0.4,0.5-0.9,0.8-1.3
	c0.3-0.4,0.6-0.8,0.9-1.3c0.5-0.7,0.9-1.4,1.3-2.2c0.1-0.2,0.2-0.4,0.3-0.6c0.1-0.2,0.2-0.3,0.3-0.5c0.1,0,0.1-0.1,0.2-0.2
	c0-0.1,0-0.2,0-0.3c0.2-0.4,0.3-0.7,0.4-1.1C185.2,173.9,185.3,173.5,185.4,173.2L185.4,173.2z M189.1,155.8c0-0.2-0.1-0.4-0.4-0.5
	c-0.1,0-0.2,0-0.4,0c-0.1,0-0.2,0-0.3,0c-0.4,0.3-0.8,0.6-1.2,0.9c-0.4,0.3-0.7,0.6-1.1,1l-0.9,1.1l-1,1.2c-0.5,0.6-0.9,1.2-1.3,1.9
	c-0.4,0.6-0.8,1.3-1.1,2v0.3c0.1,0.1,0.3,0.2,0.4,0.1c0.5-0.2,0.9-0.4,1.3-0.7l0.3-0.3c0.1-0.1,0.2-0.2,0.3-0.3
	c0.6-0.6,1.2-1.3,1.7-1.9s1.1-1.2,1.6-1.9c0.4-0.4,0.7-0.7,1-1.2c0.3-0.4,0.6-0.8,0.9-1.2c0-0.1,0.1-0.2,0.1-0.2
	c0.1-0.1,0.1-0.1,0.1-0.2L189.1,155.8z"/>
<path class="st0" d="M94.4,205.8c0.3,0.7,0.5,1.5,0.6,2.2c0.1,0.8,0.1,1.6,0,2.3c-0.1,0.6-0.2,1.2-0.3,1.7c-0.1,0.6-0.3,1.1-0.5,1.6
	L94,214c-0.2,0.4-0.4,0.9-0.6,1.3s-0.4,0.9-0.6,1.4c-0.4,0.6-0.9,1.2-1.3,1.9c-0.4,0.6-0.8,1.2-1.2,1.9c-0.3,0.4-0.7,0.8-1,1.2
	l-1,1.2c-1.2,1.5-2.5,3-3.8,4.4c-1.3,1.4-2.7,2.7-4.1,4c-0.6,0.5-1.1,1-1.7,1.5s-1.2,1-1.7,1.5l-0.5,0.4c-0.2,0.1-0.3,0.3-0.5,0.4
	c-0.6,0.4-1.2,0.8-1.8,1.2c-0.6,0.4-1.1,0.9-1.7,1.3c-0.1,0.1-0.1,0.1-0.2,0.1l-2,1.3c-0.6,0.4-1.3,0.8-2,1.2
	c-0.2,0.1-0.4,0.2-0.6,0.2l-0.6,0.1c0-0.5,0.3-0.9,0.7-1.1c0.1-0.1,0.2-0.1,0.3-0.2s0.2-0.1,0.3-0.2c0.3-0.3,0.7-0.6,1.1-0.9
	c0.4-0.3,0.8-0.5,1.2-0.7c0.1-0.1,0.2-0.1,0.2-0.2l0.2-0.2c0.3-0.4,0.6-0.7,1-1c0.4-0.2,0.8-0.5,1.1-0.8l2.1-1.9
	c0.7-0.6,1.4-1.2,2.2-1.9l0.3-0.3c0.3-0.5,0.7-1,1.2-1.4c0.5-0.4,1-0.8,1.4-1.3c0.5-0.6,1-1.2,1.6-1.9c0.6-0.6,1.1-1.3,1.5-2
	c0.2-0.3,0.4-0.5,0.7-0.7l0.6-0.6c0.2-0.1,0.4-0.2,0.6-0.4c0.2-0.2,0.3-0.3,0.4-0.6c0.2-0.3,0.4-0.6,0.7-0.9
	c0.3-0.3,0.4-0.7,0.6-1.1c0.2-0.5,0.4-0.9,0.6-1.3c0.2-0.4,0.5-0.9,0.7-1.3c0.7-1.3,1.4-2.6,2.1-4c0.2-0.3,0.3-0.6,0.4-0.8
	c0.1-0.3,0.2-0.5,0.3-0.8c0.3-0.6,0.4-1.2,0.5-1.9c0-0.2,0-0.4,0.1-0.5c0.2-0.6,0.2-1.2,0.2-1.9c0-0.6-0.1-1.2-0.2-1.8
	c-0.2-0.7-0.5-1.4-1.1-1.9c-0.4-0.4-0.9-0.8-1.5-1l-1.7-0.6c-0.6-0.2-1.2-0.4-1.8-0.5c-1.6-0.3-3.1-0.4-4.7-0.5h-1l-1-0.1
	c-0.8,0-1.6-0.1-2.4,0s-1.6,0.1-2.4,0.1s-1.8,0.2-2.6,0.3s-1.8,0.2-2.7,0.3c-0.9,0.1-1.7,0.2-2.5,0.5c-0.6,0.2-1.1,0.7-1.2,1.3
	c-0.2,0.7-0.4,1.4-0.6,2s-0.4,1.3-0.6,2s-0.4,1.5-0.6,2.2s-0.5,1.5-0.7,2.2c-0.1,0.3-0.2,0.6-0.2,0.9c-0.1,0.3-0.2,0.5-0.2,0.8
	c-0.2,0.5-0.4,1-0.5,1.5s-0.3,1-0.5,1.5c-0.2,0.8-0.5,1.6-0.7,2.4s-0.5,1.6-0.8,2.4c-0.1,0.3-0.2,0.7-0.1,1c0,0.2,0.1,0.3,0.3,0.4
	h0.2c0.8-0.2,1.5-0.4,2.3-0.8c0.4-0.2,0.7-0.4,1.1-0.5s0.8-0.3,1.1-0.5c0.4-0.2,0.8-0.2,1.2-0.1l0.7,0.2c0,0,0.1,0.1,0.1,0.2
	c0,0.1,0,0.2-0.1,0.2c-0.4,0.4-0.8,0.7-1.2,1c-0.4,0.3-0.8,0.6-1.2,0.9c-0.6,0.4-1.1,0.7-1.6,1.1c-0.5,0.4-1,0.8-1.5,1.2
	c-0.2,0.2-0.5,0.3-0.7,0.4c-0.4,0.2-0.8,0.4-1.2,0.7c-0.3,0.3-0.7,0.6-1.1,0.8c-0.3,0.2-0.5,0.4-0.5,0.7c-0.2,0.4-0.3,0.7-0.4,1.1
	c-0.1,0.3-0.2,0.7-0.3,1c-0.1,0.3-0.2,0.6-0.3,1c-0.2,0.5-0.3,0.9-0.5,1.4c-0.1,0.4-0.3,0.8-0.4,1.3l-0.2,0.7
	c-0.1,0.2-0.2,0.5-0.2,0.8c-0.1,0.7-0.3,1.3-0.5,1.9c-0.3,0.6-0.5,1.2-0.7,1.8c-0.1,0.3-0.3,0.5-0.5,0.8c-0.5,0.6-0.8,1.4-0.8,2.2
	c0,0.1-0.1,0.2-0.3,0.3c-0.1,0-0.2,0-0.3,0c-1.3-0.5-2.4-1.4-3.2-2.5c-0.1-0.2-0.2-0.3-0.3-0.5c-0.1-0.2-0.2-0.4-0.3-0.5
	c-0.3-0.9-0.4-1.8-0.2-2.7c0.1-0.3,0.2-0.6,0.3-0.9c0.1-0.3,0.2-0.6,0.4-0.9c0.1-0.5,0.1-1-0.1-1.5c0-0.1-0.1-0.1-0.1-0.2
	s0-0.1-0.1-0.2c-0.2-0.6-0.1-1.2,0.4-1.6c0.2-0.2,0.4-0.5,0.6-0.7c0.2-0.2,0.5-0.4,0.8-0.5c1.1-0.6,2.1-1.5,2.9-2.5
	c0.2-0.3,0.5-0.6,0.8-0.8c0.6-0.5,1-1.2,1.3-2l0.8-2.3c0.3-0.8,0.5-1.5,0.8-2.3s0.5-1.5,0.8-2.2s0.5-1.5,0.8-2.2
	c0.3-1.1,0.7-2.1,1-3.2s0.7-2.1,1-3.1c0.1-0.3,0.2-0.7,0.4-1c0.1-0.4,0.2-0.7,0.3-1.1c0.1-0.3,0-0.7-0.2-0.9
	c-0.2-0.2-0.3-0.5-0.3-0.8c0-0.2-0.1-0.3-0.2-0.4c-0.1-0.1-0.3-0.1-0.4,0c-0.1,0.1-0.2,0.1-0.3,0.1s-0.2,0.1-0.3,0.1l-1.1,0.8
	l-1.1,0.8c-0.3,0.3-0.6,0.6-0.9,0.8c-0.2,0.2-0.5,0.4-0.8,0.6c-0.3,0.3-0.8,0.5-1.2,0.7c-0.2,0.1-0.5,0.1-0.7-0.1c0,0-0.1,0-0.2-0.1
	c-0.3-0.2-0.5-0.5-0.6-0.9c-0.1-0.4,0-0.7,0.2-1.1c0.1-0.3,0.3-0.6,0.5-0.8c0.9-1.1,1.9-2,3-2.9c0.6-0.5,1.3-1,2-1.4
	c0.7-0.4,1.4-0.8,2.2-1.1c0.5-0.2,0.9-0.4,1.4-0.7c0.2-0.2,0.4-0.5,0.5-0.8c0.1-0.2,0.2-0.5,0.2-0.7s0.1-0.5,0.2-0.7
	c0.1-0.2,0.2-0.3,0.3-0.4c0.1-0.1,0.2-0.2,0.3-0.3c0.2-0.1,0.5-0.2,0.7-0.3c0.2-0.1,0.5-0.2,0.8-0.3c0.3-0.1,0.6-0.1,0.8,0
	c0.4,0.1,0.7,0.4,0.8,0.8c0.1,0.3,0.2,0.7,0.2,1.2c0.2,0.5,0.6,0.8,1.1,0.8H68l1.3-0.1l1.3-0.1c0.4,0,0.9-0.1,1.4-0.1
	c0.5,0,0.9,0,1.4-0.1h2c0.5,0,0.9,0,1.4,0c0.5,0,1,0,1.4,0c0.8,0,1.7,0.1,2.5,0.1c0.8,0.1,1.6,0.2,2.4,0.4c0.4,0,0.9,0.1,1.3,0.2
	c0.4,0.1,0.8,0.2,1.2,0.3c0.5,0,0.9,0.2,1.3,0.4l0.6,0.2c0.2,0.1,0.4,0.1,0.6,0.2c0.5,0.2,1.1,0.3,1.6,0.6c0.5,0.2,1,0.5,1.5,0.7
	c0.9,0.5,1.6,1.1,2.3,1.9C93.9,204.8,94.2,205.3,94.4,205.8z M52,234.3c0-0.1,0-0.2,0-0.2c0-0.1,0-0.2,0-0.2c0-0.1-0.1-0.2-0.2-0.3
	c-0.1-0.1-0.2-0.1-0.3-0.1c-0.4,0.1-0.8,0.4-1,0.8c-0.7,1.1-1.3,2.3-1.6,3.5c0,0.2-0.1,0.3-0.1,0.5c0,0.2,0,0.3,0,0.5
	c0,0.5,0.1,1,0.3,1.5c0.1,0.2,0.3,0.5,0.5,0.6c0.2,0.1,0.5,0.2,0.7,0.1c0.1-0.1,0.3-0.2,0.4-0.3c0-0.1,0.1-0.1,0.1-0.2
	s0.1-0.1,0.1-0.2c0.2-1,0.4-2,0.6-3C51.8,236.2,51.9,235.2,52,234.3z M60.2,243.2c0.1,0,0.3,0.1,0.3,0.2c0,0,0,0.1,0,0.1
	c0,0,0,0.1-0.1,0.2s-0.1,0.2-0.2,0.2l-1,0.3l-1,0.3c-0.3,0.1-0.7,0.1-1,0.1c-0.4,0-0.7,0-1.1,0c-0.2-0.1-0.4-0.1-0.7-0.1
	c-0.2,0-0.5,0-0.7-0.2c-0.2,0-0.2-0.2-0.2-0.4l0.2-0.2c0.1,0,0.2-0.1,0.2-0.1h0.4c0.8,0.1,1.5,0.1,2.3,0.1c0.7-0.1,1.5-0.2,2.2-0.5
	c0.1,0,0.1,0,0.2,0C60.1,243.3,60.1,243.2,60.2,243.2L60.2,243.2z M65.9,240.7c0.3-0.3,0.8-0.3,1.2-0.1c-0.4,0.3-0.9,0.6-1.3,0.9
	c-0.5,0.3-0.9,0.6-1.4,0.9s-0.7,0.4-1.1,0.5c-0.4,0.2-0.7,0.3-1.1,0.3c0,0-0.1,0-0.1-0.1s-0.1-0.1-0.1-0.1v-0.2l0.1-0.2
	c0.3-0.3,0.6-0.6,1-0.8c0.4-0.2,0.8-0.4,1.2-0.4c0.3-0.1,0.7-0.2,1-0.4l0.3-0.1L65.9,240.7z"/>
<path class="st0" d="M115,248.9c0-0.1,0-0.3,0-0.4s0-0.3,0-0.4c0.1-0.6,0.2-1.1,0.2-1.6c0.1-0.5,0.2-1,0.4-1.6
	c0.1-0.2,0.1-0.4,0.2-0.5c0-0.2,0.1-0.3,0.1-0.5c0.1-0.6,0.2-1.1,0.3-1.6c0.1-0.5,0.3-1,0.5-1.5c0.1-0.2,0.1-0.3,0.2-0.5
	c0-0.2,0.1-0.4,0.1-0.6c0-0.7,0.2-1.4,0.5-2.1c0.2-0.8,0.5-1.5,0.7-2.2s0.4-1.5,0.6-2.2c0.1-0.3,0.1-0.5,0.2-0.6
	c0.2-0.4,0.4-0.8,0.5-1.2c0.1-0.4,0.2-0.8,0.3-1.3c0.2-0.8,0.3-1.6,0.4-2.3s0.3-1.5,0.5-2.3c0-0.1-0.1-0.2-0.1-0.3
	c-0.1-0.1-0.2-0.2-0.2-0.2c-0.1,0-0.1-0.1-0.2-0.1h-0.9l-0.9,0.2l-0.9,0.2c-0.9,0.3-1.7,0.5-2.6,0.8s-1.7,0.5-2.6,0.8
	c-1.1,0.3-2.2,0.7-3.3,1.1s-2.1,0.8-3.2,1.2c-0.2,0.1-0.4,0.2-0.5,0.3c-0.2,0.1-0.3,0.3-0.5,0.4c0,0-0.1,0.1-0.1,0.1
	c0,0,0,0.1,0,0.1c0,0,0,0,0,0c-0.2,0.4-0.5,0.8-0.7,1.1c-0.2,0.3-0.5,0.7-0.7,1.1l-1.8,3.1c-0.6,1-1.2,2.1-1.7,3.1
	c-0.2,0.5-0.4,0.9-0.7,1.3c-0.3,0.4-0.5,0.9-0.8,1.3c-0.2,0.2-0.4,0.4-0.7,0.5c-0.2,0.1-0.4,0.2-0.6,0.2c-0.5,0.1-1,0.1-1.5-0.1
	c-0.1,0-0.1,0-0.2-0.1c-0.1,0-0.1-0.1-0.2-0.1c-0.2,0-0.3-0.1-0.5-0.2c-0.1-0.1-0.2-0.3-0.3-0.4c-0.2-0.2-0.2-0.4-0.1-0.6
	c0.1-0.1,0.2-0.3,0.3-0.4c0.1-0.1,0.2-0.3,0.3-0.4c0.6-1,1.1-1.9,1.7-2.9s1.1-2,1.6-3c0.2-0.4,0.1-0.7-0.4-0.8h-0.2
	c-0.3,0-0.6,0-0.9-0.1c-0.3-0.1-0.5-0.2-0.8-0.3c-0.1,0-0.2-0.1-0.4-0.2c-0.3-0.2-0.4-0.5-0.1-0.7c0.1-0.1,0.1-0.2,0.2-0.4
	c0.4-0.4,0.8-0.8,1.3-1.1c0.3-0.2,0.6-0.3,0.9-0.4c0.3-0.1,0.6-0.3,0.8-0.4l1.2-0.5c0.4-0.1,0.8-0.3,1.2-0.5
	c0.4-0.2,0.8-0.4,1.1-0.7c0.3-0.3,0.6-0.6,0.9-0.9c0.4-0.6,0.9-1.1,1.3-1.7l1.3-1.7l1.8-2.2c0.6-0.7,1.2-1.4,1.8-2.1
	c0.8-0.9,1.7-1.8,2.5-2.8c0.8-0.9,1.6-1.8,2.4-2.8c0.5-0.6,1-1.1,1.6-1.6l1.6-1.6c0.4-0.4,0.7-0.7,1.1-1.1c0.3-0.4,0.7-0.7,1-1.1
	c0.2-0.2,0.4-0.4,0.5-0.6c0.2-0.2,0.3-0.4,0.5-0.6c0.2-0.2,0.5-0.4,0.7-0.6s0.5-0.4,0.7-0.7c0.4-0.4,0.8-0.8,1.3-1.1
	c0.1-0.2,0.3-0.3,0.5-0.4c0.2-0.1,0.4-0.2,0.5-0.4c0.8-0.7,1.5-1.5,2-2.5c0.1-0.2,0.2-0.3,0.3-0.4c0.1-0.2,0.2-0.3,0.3-0.5
	c0.1-0.3,0.3-0.5,0.6-0.6c0.3-0.1,0.6-0.2,0.8-0.2h0.4c0.1,0,0.3,0,0.4,0c0.2,0.1,0.4,0.2,0.5,0.4c0.1,0.2,0.2,0.4,0.3,0.6
	c0.1,0.3,0.1,0.7-0.1,1c-0.1,0.4-0.2,0.8-0.3,1.2c-0.1,0.4-0.3,0.8-0.4,1.2c-0.6,1.9-1.1,3.7-1.5,5.4c-0.1,0.6-0.3,1.2-0.4,1.9
	c-0.2,0.6-0.4,1.2-0.6,1.9c-0.3,1.1-0.6,2.2-0.9,3.2s-0.6,2.2-0.9,3.2c0,0.1,0,0.2,0,0.3c0,0.1,0,0.2-0.1,0.3
	c-0.2,0.9,0.1,1.3,1,1.2l0.7-0.1l0.7,0h0.3c0.1,0,0.2,0,0.4,0l0.1,0.1c0.1,0.1,0.1,0.3,0,0.4c-0.1,0.3-0.3,0.5-0.6,0.6
	c-0.5,0.4-1.1,0.7-1.7,0.8l-0.6,0.2c-0.2,0.1-0.4,0.1-0.6,0.2c-0.3,0.1-0.5,0.3-0.6,0.6c-0.1,0.2-0.2,0.4-0.2,0.6
	c-0.5,1.7-1,3.4-1.5,5.1c-0.5,1.7-1,3.4-1.4,5.1c0,0.2-0.1,0.3-0.1,0.5c0,0.2-0.1,0.4-0.2,0.5c-0.2,0.5-0.3,0.9-0.4,1.4l-0.4,1.4
	c-0.1,0.4-0.2,0.9-0.4,1.3c-0.2,0.4-0.3,0.8-0.4,1.2c-0.2,0.6-0.4,1.1-0.6,1.7c-0.2,0.6-0.4,1.2-0.6,1.8c-0.1,0.4-0.2,0.7-0.3,1.1
	s-0.2,0.8-0.3,1.2c-0.2,0.7-0.4,1.4-0.6,2.1c-0.1,0.3-0.3,0.5-0.5,0.7c-0.1,0.1-0.2,0.1-0.4,0c-0.1,0-0.3-0.1-0.3-0.3
	c0-0.1-0.1-0.2-0.1-0.3C115,249,115,248.9,115,248.9z M109.7,224.8l2.4-0.6c0.8-0.2,1.6-0.4,2.4-0.5s1.6-0.4,2.4-0.6l2.4-0.6
	c0.7-0.1,1.4-0.4,2-0.7c0.3-0.2,0.5-0.5,0.7-0.8l0.5-1.4c0.2-0.5,0.3-0.9,0.4-1.4c0.2-0.8,0.4-1.7,0.5-2.5c0.2-0.8,0.3-1.7,0.4-2.5
	c0.1-0.2,0.1-0.5,0.1-0.7c0-0.2,0-0.4,0.1-0.6c0.2-0.9,0.4-1.8,0.6-2.7s0.4-1.8,0.6-2.7c0-0.1,0.1-0.3,0.1-0.4
	c0-0.2-0.1-0.3-0.2-0.4c-0.1,0-0.3,0-0.4,0.1c-0.2,0.2-0.4,0.4-0.6,0.7c-0.2,0.2-0.4,0.4-0.7,0.6c-0.3,0.2-0.6,0.5-0.8,0.8
	c-0.2,0.3-0.5,0.5-0.8,0.8c-0.6,0.7-1.1,1.4-1.6,2c-0.5,0.7-1.1,1.3-1.8,1.8c-0.1,0.1-0.2,0.2-0.3,0.4c-0.3,0.3-0.6,0.6-0.9,1
	c-0.3,0.4-0.6,0.7-0.9,1.1l-1,1c-0.3,0.3-0.6,0.7-0.8,1.2l-0.2,0.2l-0.2,0.2c-0.4,0.4-0.7,0.8-1.1,1.2l-1,1.3
	c-0.4,0.5-0.8,1-1.2,1.5s-0.8,1-1.2,1.5l-0.5,0.6c-0.2,0.2-0.3,0.4-0.4,0.6c-0.1,0.1-0.1,0.3-0.1,0.4c0,0.1,0,0.2,0.1,0.3
	c0.1,0.1,0.2,0.1,0.3,0.1c0.1,0,0.2-0.1,0.3-0.1C109.5,224.9,109.6,224.8,109.7,224.8L109.7,224.8z"/>
<path class="st0" d="M156.4,207.5c-0.8,0.8-1.6,1.7-2.2,2.6c-0.8,1.1-1.6,2.1-2.5,3c-1.7,1.8-3.4,3.6-5,5.2s-3.2,3.1-4.6,4.3
	c-0.6,0.6-1.3,1-2,1.4c-0.8,0.4-1.6,0.7-2.4,0.9c-0.6,0.1-1.2,0.2-1.8,0.3c-0.4,0-0.9,0-1.3-0.1c-0.4-0.1-0.8-0.2-1.1-0.4
	c-0.4-0.3-0.8-0.6-1.1-0.9c-0.3-0.2-0.5-0.5-0.7-0.8c-0.1-0.3-0.2-0.6-0.2-0.9c-0.1-0.6-0.1-1.2-0.1-1.7c0-0.6,0.1-1.1,0.3-1.6
	c0.3-1.2,0.7-2.4,1.3-3.6c0.5-1.1,1.1-2.3,1.6-3.4c0.1-0.4,0.2-0.7,0.4-1c0.2-0.3,0.4-0.7,0.5-1.1c0.1-0.3,0.3-0.7,0.5-0.9
	s0.4-0.6,0.5-0.9c0.4-0.6,0.8-1.3,1.2-2c0.4-0.7,0.7-1.3,1.1-1.9c0-0.1,0-0.2,0.1-0.3l0.1-0.1c0.7-1.2,1.7-2.3,2.9-3
	c1-0.5,2.2-0.3,3,0.5c0.1,0,0.1,0,0.1,0.1c-0.1,0.1-0.1,0.2-0.1,0.3c0,0-0.1,0.1-0.3,0.3s-0.4,0.3-0.6,0.5l-0.6,0.5
	c-0.2,0.2-0.3,0.3-0.3,0.3c-1,1.3-1.9,2.8-2.8,4.2c-0.7,1.3-1.6,2.9-2.6,4.6c-0.4,0.7-0.7,1.4-1.2,2.2s-0.8,1.5-1.2,2.3
	s-0.7,1.5-1.1,2.3c-0.3,0.7-0.6,1.4-0.8,2.1c-0.2,0.6-0.2,1.3,0,1.9c0,0.2,0.1,0.4,0.4,0.6c0.8,0.1,1.6,0,2.4-0.2
	c0.7-0.2,1.4-0.5,2-0.9c0.6-0.4,1.2-0.9,1.8-1.4c0.6-0.5,1.1-1,1.7-1.4c1.3-1.1,2.4-2.2,3.6-3.4c1.1-1.2,2.3-2.3,3.5-3.3
	c0.6-0.7,1.2-1.5,1.9-2.2s1.3-1.6,2-2.6c1.6-2.2,2.9-4.7,3.9-7.2c0.1-0.2,0.1-0.5,0.1-0.7l-0.3-0.5c-0.1-0.2-0.1-0.3-0.1-0.4
	c0.1-0.1,0.2-0.1,0.3-0.1c0.4-0.1,0.9-0.1,1.4-0.2c0.5,0,0.9-0.1,1.3-0.2c0.2,0,0.5,0.1,0.7,0.1l0.7,0.3c0.2,0.2,0.3,0.4,0.5,0.7
	c0.1,0.2,0.2,0.5,0.2,0.8c-0.1,0.9-0.3,1.7-0.4,2.5s-0.3,1.6-0.4,2.4c-0.3,1.8-0.8,3.6-1.6,5.2c-0.7,1.6-1.5,3.3-2.3,5
	c-0.9,2-1.7,3.9-2.5,5.8c-0.8,1.9-1.7,3.6-2.8,5.4c-0.2,0.4-0.4,0.9-0.7,1.4c-0.2,0.5-0.5,1-0.6,1.5c-0.3,0.7-0.6,1.3-1,1.9
	c-0.4,0.6-0.7,1.2-1,1.8c-0.7,1.3-1.4,2.5-2.1,3.6s-1.4,2.3-2.1,3.4c-0.4,0.8-0.9,1.6-1.4,2.3c-0.5,0.8-1.1,1.5-1.7,2.2
	c-0.3,0.3-0.6,0.6-0.8,0.9c-0.2,0.3-0.4,0.6-0.6,0.9c-0.4,0.5-0.9,1-1.4,1.5c-0.6,0.6-1.3,1-2.1,1.2c-0.9,0.5-2,0.7-3,0.7
	c-0.7-0.1-1.3-0.4-1.7-0.9c-0.4-0.6-0.7-1.2-0.8-1.9c-0.1-0.8-0.2-1.7-0.2-2.5c-0.2-0.6-0.3-1.3-0.1-2c0.2-0.6,0.3-1.2,0.3-1.8
	c0-0.3,0.1-0.6,0.3-0.9c0.2-0.5,0.4-1,0.7-1.5c0.3-0.5,0.5-1,0.8-1.5c0.1-0.3,0.3-0.5,0.5-0.8c0.1-0.1,0.2-0.2,0.2-0.4
	c0-0.2,0.1-0.3,0.2-0.5c1.1-1.6,2.2-3.1,3.5-4.5c1.3-1.5,2.8-2.9,4.5-4c0.6-0.4,1.4-0.8,2.1-1.1c0.6-0.3,1.4-0.3,2,0.1
	c-0.5,0.5-1,0.9-1.6,1.2c-0.5,0.3-1,0.6-1.5,0.9c-0.7,0.4-1.3,0.9-1.8,1.5c-0.9,0.9-1.7,1.8-2.5,2.8c-0.8,1-1.4,2-2,3.1
	c-0.6,1.2-1.2,2.2-1.8,3.1c-0.7,1.5-1.2,3-1.4,4.6c-0.3,1.6-0.3,3.2-0.2,4.8l0.2,0.2c0,0.1,0.1,0.2,0.4,0.2c0.3-0.1,0.6-0.2,0.9-0.4
	c0.4-0.3,0.9-0.6,1.4-0.9s0.9-0.7,1.3-1c0.3-0.2,0.5-0.5,0.8-0.7c0.7-0.9,1.4-1.7,2.2-2.6c0.8-0.9,1.5-1.8,2.2-2.8
	c0.4-0.6,0.9-1.2,1.3-1.9s0.8-1.3,1.1-1.9c0.5-1,1.1-2,1.7-2.9c0.6-0.9,1.1-1.9,1.5-2.8c0.4-1,0.9-1.9,1.6-2.7
	c1.1-2.2,2.2-4.4,3.4-6.6c1.1-2,1.9-4.1,2.5-6.3c0.1-0.4,0.2-0.9,0.4-1.3c0.2-0.6,0.4-1.3,0.7-2l0.7-2c0.2-0.4,0.3-0.9,0.4-1.4v-0.4
	C156.6,207.3,156.4,207.4,156.4,207.5z"/>
<path class="st0" d="M443.5,255.2c-0.5-13.1,0.6-23.9,1.2-37.1c0.4-8.9,2.1-15.4,5.4-24.9c1.2-3.5,3.4-6.6,6.2-9.1
	c2.6-2.4,6.2-3.3,9.7-2.6c5.6,1.5,8.3,7.9,9.6,13.6c4.5,19.6,2.6,41.6,4.2,61.6c11,0.3,11.8,0.2,19.9,0.2c0.9,0,1.4-0.9,2.1-1.4
	c0.8-0.7,1.4-1.7,1.6-2.7c5.8-15.5,3-32.7-0.1-49c-2.1-11.2-4.5-22.6-9.6-32.8c-4.7-9.3-12.5-18-22.8-19.8c-4-0.6-8.1-0.4-12,0.6
	c-4.3,0.9-8.4,2.5-12.2,4.7c-4.1,2.6-7.5,6.1-10.2,10.1c-5.8,8.4-8.4,18.5-10.4,28.5c-3.9,19.8-2,40.5-0.3,60.6
	C427.5,255.6,443.5,256,443.5,255.2z"/>
<path class="st1" d="M426.4,255.6c-0.2-23.8,2.6-48,11.3-70.2c3.8-9.7,9.4-20.1,19.4-23.1c7.8-2.4,17.5-1.4,23.3,4.7
	c2.7,3.1,4.8,6.6,6.3,10.4c10.3,23.8,9.8,49.6,10.9,75c0,0.8,0,4.3,0,4.3h1.7c0,0,3.5,0.1,7.8,0c2.2-0.1,6.4-0.3,6.4-0.3
	s5.5-2.9,5.7-4.6c3.5-23.7-0.3-47.7-4.5-71.3c-1.7-9.5-3.6-19-7.9-27.6s-11.5-16.1-20.7-18.7c-5.1-1.4-10.6-1.2-15.8-0.4
	c-12.8,2-24.6,7.6-36.1,13.6c-3.6,1.9-7.3,3.9-10.3,6.8c-3.6,3.6-5.8,8.3-7.7,13c-3.6,9.1-6.3,18.7-7.8,28.4
	c-1.4,10.2-2.2,20.4-2.3,30.7c-0.1,4.7-0.2,9.4-0.3,14.1c-0.1,3.9-2.8,15.2,1.1,15.2C411.9,255.9,426.4,255.2,426.4,255.6z"/>
<path class="st2" d="M409.4,255.8c0.1-18.1,1.6-36.1,4.5-54c1.4-8.6,2.8-17.3,5.8-25.4s7.7-16,14.7-21.2c6.6-4.9,14.8-7.3,23-8.6
	c8-1.2,16.3-1.5,23.9,1.4c11,4.1,18.9,14.4,23,25.4s5,23,5.8,34.8l3.4,48.4c7.7-0.2,15.7-0.2,23.3,0.2c4.4-11.9,5.3-24.6,5.7-37.3
	c0.7-20.9-0.9-42.5-10-61.4s-26.8-34.7-47.6-36.6c-8.3-0.8-16.6,0.6-24.8,2.2c-15.2,2.9-31.1,6.9-42.5,17.4
	c-7.3,6.7-12.2,15.5-16.4,24.4c-5.6,11.7-10.3,24.2-10.7,37.1c-0.3,9.1,1.5,18.1,2.5,27.1c0.5,4.6-2.4,9.8-2.6,14.5
	c-0.1,2.4-2,12.1,0.7,12.1c3.7,0,8.1-0.3,9.7-0.3C403.8,255.7,406.6,255.8,409.4,255.8z"/>
<path class="st3" d="M553.3,256.1c-1-24.2-2.2-47.6-6.3-72.8c-3.9-23.9-14.4-45.6-33.2-60.9c-16.3-13.3-37.3-19.5-58.2-17.3
	c-21.2,2.2-38.9,12.3-54.3,26.4c-7.9,7.2-13.5,16.8-17.2,26.8c-5.5,14.6-8.2,30.6-10.5,46s-3.7,31.2-2.3,46.8
	c0.1,1.3,0.8,5.8,0.8,5.8c1.3-0.3,2.6-0.4,3.8-0.3c4.3,0.3,7.6-0.1,12.9-0.5c0.8,0,2.4,0,2.4,0s0.5-6.1,0.6-8.2
	c0.3-7,1.1-14.1,1.7-21.1c0.9-9.4,2-18.7,3.6-27.9c1.5-9.6,3.8-19.1,6.7-28.3c2.5-7.8,5.7-15.6,10.7-22.1c0.8-1.1,1.7-2.1,2.7-3.1
	c8.7-8.8,20.4-14.1,32.5-16.4c20-3.9,40.2-3.1,54.8,13.2c28.7,31.9,22.6,74.9,27.9,114.3C543.9,256.8,535.4,256.6,553.3,256.1z"/>
<path class="st4" d="M520.5,95.5c-2.3,1.3-4.6,2.8-5.8,5.1c-1.1,2.4-2,4.8-2.7,7.4c0.2-0.5-0.7-2-1-2.4c-0.4-0.8-0.8-1.6-1.2-2.4
	c-2-3.4-4.2-6.3-8.2-7.4c3.7-2.9,6.6-6.7,8.5-11.1c0.9-1.7,1.4-3.6,1.4-5.5c0.7,5.3,2.9,9,5.9,13.4
	C518.3,93.7,519.4,94.7,520.5,95.5z"/>
<path class="st4" d="M495.5,76.5c-0.2-0.1-0.4-0.3-0.5-0.5c-1.2-1.5-2-3.4-2.3-5.3c-0.4,1.7-1,3.4-1.9,4.9c-0.2,0.5-0.6,0.9-1,1.1
	c1.6,1.1,2.9,2.7,3.5,4.6c0.1-1.3,0.5-2.6,1.2-3.8C494.7,77.1,495.1,76.7,495.5,76.5z"/>
<path class="st4" d="M536.9,99.3c-1.7-1.2-3.9-3.7-3.5-6c-0.3,2.4-2.1,4.7-4.1,6c2,1.5,3.5,3.6,4.3,6
	C533.2,104.4,536.1,98.7,536.9,99.3z"/>
<rect id="cadre" x="0.3" y="0" class="st5" width="566.3" height="269"/>
</svg>
