<svg id="fdp_foot" xmlns="http://www.w3.org/2000/svg" viewBox="0 0 567 269"><defs><style>.cls-1{fill:#104591;}.cls-2{fill:#c7242e;}.cls-3{fill:#fff;}.cls-4{fill:none;}</style></defs><path class="cls-1" d="M84.14,217v34.06H34.66V217h9.8V173.94h-9.8V139.89h40V217Zm-12.85,3.54V143.42H38v27h9.48v50.12H38v27H81.08v-27Zm7.55,2.41V245.1H40V222.94h9.8V168H40V145.83H69.2v77.11Z"/><path class="cls-1" d="M162.36,236.59l-13.65,14.46H103.57L89.92,236.59V154.5l13.65-14.45h45.14l13.65,14.45ZM159,156.11l-11.72-12.53H105L93.29,156.11V235L105,247.51h42.25L159,235ZM156.74,234,146.3,245.1H106L95.7,234V156.93L106,145.83H146.3l10.44,11.1Zm-20.88-11.06V168H116.58v54.94Zm-17.19-2.25V170.41h14.94v50.28Zm11.57-3.54V173.94H122v43.21Z"/><rect class="cls-1" x="53.07" y="62.47" width="20" height="20"/><rect class="cls-2" x="114.17" y="62.47" width="20" height="20"/><rect class="cls-3" x="73.07" y="62.47" width="41.1" height="20"/><rect class="cls-1" x="397.69" y="200.71" width="21.02" height="21.02"/><rect class="cls-2" x="461.91" y="200.71" width="21.02" height="21.02"/><rect class="cls-3" x="418.71" y="200.71" width="43.2" height="21.02"/><path class="cls-1" d="M369.37,92.3v27h-7.51v-27Z"/><path class="cls-1" d="M381.71,98.63a12,12,0,0,1,4.73-4.86,14,14,0,0,1,7-1.74,13.34,13.34,0,0,1,8.5,2.7,12.2,12.2,0,0,1,4.44,7.33h-8.07a5.23,5.23,0,0,0-5-3.14,5.11,5.11,0,0,0-4.15,1.86,7.43,7.43,0,0,0-1.55,5,7.52,7.52,0,0,0,1.55,5,5.11,5.11,0,0,0,4.15,1.86,5.27,5.27,0,0,0,5-3.14h8.07a12.2,12.2,0,0,1-4.44,7.33,13.34,13.34,0,0,1-8.5,2.7,14,14,0,0,1-7-1.74,12.05,12.05,0,0,1-4.73-4.87,16.1,16.1,0,0,1,0-14.24Z"/><path class="cls-1" d="M427.06,114.88h-9.57L416,119.29h-7.88l9.83-27h8.66l9.8,27h-7.93Zm-1.88-5.74-2.91-8.73-2.87,8.73Z"/><path class="cls-1" d="M463.88,119.29h-7.5l-10-15.09v15.09h-7.51v-27h7.51l10,15.27V92.3h7.5Z"/><path class="cls-1" d="M470,92.3h7.58l-4.4,10.79h-5Z"/><path class="cls-1" d="M501.74,92.3v6h-7.19v21H487v-21h-7.12v-6Z"/><path class="cls-1" d="M512.61,112.85,508.52,124h-4.75l2-11.18Z"/><path class="cls-1" d="M334.11,178.17a6.66,6.66,0,0,1-5.9-2.95,11.92,11.92,0,0,1-1.61-2.78,16.76,16.76,0,0,1-1.38-5.59,10.81,10.81,0,0,1,.47-3.12,22.54,22.54,0,0,1,.79-2.41q1.45-3.9,2.91-4c.82-.06,1.29.8,1.42,2.59a5.23,5.23,0,0,1-.78,2.49,14.78,14.78,0,0,0-.65,1.52,4,4,0,0,0-.23,1.68,5.43,5.43,0,0,0,1.14,3.31,2.89,2.89,0,0,0,2.51,1q3.6-.26,6.05-4.73a52.21,52.21,0,0,0,3.6-9.31q.76-2.4,1.51-4.5c-1.88.26-3.7.46-5.43.58a2.93,2.93,0,0,1-2.44-.71,4.92,4.92,0,0,1-.94-3q-.06-.72,1.68-1.44a43.49,43.49,0,0,1,8.57-2.29c1.39-.24,2.29-.37,2.71-.4a2,2,0,0,1,2.16,1.38,8,8,0,0,1,.39,2.22,7.32,7.32,0,0,1-.44,2.52c-.34,1.1-.76,2.39-1.26,3.85s-1.07,3.19-1.59,4.94q-3.31,11.25-7.36,16A8.34,8.34,0,0,1,334.11,178.17Z"/><path class="cls-1" d="M351.06,157.89a.44.44,0,0,1-.55-.45,2.92,2.92,0,0,1,.7-1.63,16.43,16.43,0,0,0,1-3.39.49.49,0,0,0-.11-.31,2.13,2.13,0,0,1-.74-.3,1.4,1.4,0,0,1-.55-1.16,3.68,3.68,0,0,1,.83-2.71,2.59,2.59,0,0,1,1.59-.77c1.22-.08,1.89.79,2,2.62a10.47,10.47,0,0,1-1.14,5.4,4.86,4.86,0,0,1-2.2,2.43A2.11,2.11,0,0,1,351.06,157.89Z"/><path class="cls-1" d="M377.84,175.17q-2.49.18-4-7.77a76.52,76.52,0,0,1-9.26,3c-1.38,2.94-2.18,4.41-2.38,4.42a4,4,0,0,1-2.46-.73,3.63,3.63,0,0,1-2-2.73q-.24-3.37,5-12.87a141.32,141.32,0,0,1,8.49-13.73,9.89,9.89,0,0,1,2-2.44,3.24,3.24,0,0,1,1.94.79,10.79,10.79,0,0,1,1.79,1.66,4.42,4.42,0,0,1,1.28,2.37,15.87,15.87,0,0,1-.49,3.1,44.41,44.41,0,0,0-1.19,12.67q.54,7.45,1.61,10.47a4.8,4.8,0,0,1,.25,1.14.71.71,0,0,1-.15.42A.5.5,0,0,1,377.84,175.17Zm-11.5-8.3c.62-.21,1.29-.42,2-.63a41.06,41.06,0,0,1,5.09-1.22c-.33-2.15-.58-4.57-.78-7.26l-.1-1.81Q369.31,161.19,366.34,166.87Z"/><path class="cls-1" d="M380.79,176.47c-.24,0-.58-.25-1-.79a2.37,2.37,0,0,1-.53-1.26c-.05-.8.55-1.55,1.82-2.24a16.45,16.45,0,0,1,4-1.54,3,3,0,0,1-.66-1.44,16.35,16.35,0,0,1,.76-4.55q.84-3.21,2.24-7.11,1.83-5.17,3.78-9.4a3.43,3.43,0,0,1-1,.35c-.24,0-.58-.25-1-.81a2.39,2.39,0,0,1-.5-1.24c0-.8.56-1.54,1.81-2.24a15.61,15.61,0,0,1,3.64-1.42c.59-.85,1.08-1.28,1.48-1.31a2.08,2.08,0,0,1,1.58.63c.81-.14,1.6-.23,2.37-.29q3-.23,3.6.72a3.66,3.66,0,0,1,.54,1.65,7.22,7.22,0,0,1-2.23.61c-.9.17-1.87.38-2.91.64a39.89,39.89,0,0,1-1.39,4.17q-2.07,5.58-4.63,14.42c-.65,2.21-1.22,4.13-1.73,5.74a7.33,7.33,0,0,1,2.43.25c.37.11.67.55.91,1.33a3.1,3.1,0,0,1,.15.82,7.29,7.29,0,0,1-2.23.58,51.13,51.13,0,0,0-5.56,1.44,25.19,25.19,0,0,0-4,1.59A5.77,5.77,0,0,1,380.79,176.47Z"/><path class="cls-1" d="M413,172.74l-.74.06a1.19,1.19,0,0,1-.53-.22,11.88,11.88,0,0,1-2.71-2.24,3.2,3.2,0,0,1-.89-1.68,22.56,22.56,0,0,1,1.3-6.48,107.4,107.4,0,0,1,4.66-12.73q3.64-8.43,5.21-8.55a1.93,1.93,0,0,1,1.48.54,4.57,4.57,0,0,1,1.09,1.43,4.09,4.09,0,0,1,.47,1.53,24.73,24.73,0,0,1-1.48,4.63q-2.06,5.61-4.63,14.43l-.82,2.8a54,54,0,0,1,8-1.27,6.72,6.72,0,0,1,1.95.15,4.18,4.18,0,0,1,1.87.86,2.48,2.48,0,0,1,.89,1.85q0,.56-7.23,2.73-5.62,1.66-7.77,2.09A.21.21,0,0,1,413,172.74Z"/><path class="cls-1" d="M429.53,152.27q-.51,0-.54-.45a2.79,2.79,0,0,1,.69-1.63,16.82,16.82,0,0,0,1-3.39.6.6,0,0,0-.12-.32,1.94,1.94,0,0,1-.74-.29,1.46,1.46,0,0,1-.55-1.17,3.69,3.69,0,0,1,.83-2.7,2.56,2.56,0,0,1,1.6-.77c1.21-.09,1.89.79,2,2.62a10.59,10.59,0,0,1-1.15,5.4,4.89,4.89,0,0,1-2.19,2.43A2.5,2.5,0,0,1,429.53,152.27Z"/><path class="cls-1" d="M437.78,170.76a1.23,1.23,0,0,1-.92-.51,3.92,3.92,0,0,1-1.21-2.31,4.84,4.84,0,0,1-.56-.63,3.27,3.27,0,0,1-.89-1.68,16.59,16.59,0,0,1,.77-4.56,106.9,106.9,0,0,1,5.2-14.63q3.65-8.43,5.21-8.54a2.29,2.29,0,0,1,1.93,1c.56-.19,1.16-.37,1.8-.52a29.23,29.23,0,0,1,4.88-.79c2.05-.15,3.25.08,3.61.69a3.36,3.36,0,0,1,.49,1.41l0,.27a7.63,7.63,0,0,1-2.21.58,51.13,51.13,0,0,0-5.56,1.44c-.8.25-1.54.51-2.22.79-.25.78-.65,1.87-1.18,3.29q-1.72,4.69-3.83,11.72a33.12,33.12,0,0,1,6.81-1.58,2.65,2.65,0,0,1,1.66.29c.31.23.48.41.49.55q.07,1.14-9.9,4.06l-1.22,4c2.12-.82,4.5-1.62,7.14-2.42a21.07,21.07,0,0,1,3.37-.82,4.31,4.31,0,0,1,2.15.37,1.7,1.7,0,0,1,1,1.52c0,.31-.11.47-.41.49a3.82,3.82,0,0,1-.89,0,3.58,3.58,0,0,0-.85,0,13.87,13.87,0,0,0-5,1.61c-1.76.89-3.44,1.79-5,2.73-1.07.62-2,1.14-2.83,1.57A5.45,5.45,0,0,1,437.78,170.76Z"/><path class="cls-1" d="M463.76,168.92q-6,.44-7.83-4.71a16.64,16.64,0,0,1-.9-4.37,22.49,22.49,0,0,1,.74-7.18,62.71,62.71,0,0,1,4.12-11.53q2.72-5.53,5.16-5.71a2.08,2.08,0,0,1,2,1.31,6.34,6.34,0,0,1,.86,2.62,34.25,34.25,0,0,1-1.7,5.71q-3.84,11.28-3.56,15.1c.14,2,.67,2.94,1.57,2.88q2.47-.18,5.57-8.37t6.73-18.33a5.42,5.42,0,0,1,.62-1.44,1.65,1.65,0,0,1,1.5.75,5.86,5.86,0,0,1,.9,1.9,9.88,9.88,0,0,1,.36,2q.32,4.23-3.8,13.62Q469.38,168.52,463.76,168.92Z"/><path class="cls-1" d="M495.28,166.11A9.75,9.75,0,0,1,489.7,165a10.49,10.49,0,0,1-3.89-3.71,11,11,0,0,1-1.19-2.59q-1,3.35-1.73,5.68c-.57,1.76-1,2.64-1.27,2.66a3.82,3.82,0,0,1-2.41-.91,9,9,0,0,1-1.57-1.45,3.22,3.22,0,0,1-.86-1.68c-.09-1.21.44-3.64,1.57-7.28.54-1.75,1.17-3.59,1.9-5.55A76.14,76.14,0,0,1,485.72,138c.93-1.6,1.68-2.42,2.23-2.46a2,2,0,0,1,1.48.55,6.65,6.65,0,0,1,3.68-1.54q3.56-.26,5.76,3.3a14.33,14.33,0,0,1,2.1,6.67,11,11,0,0,1-1.41,6.26,14.4,14.4,0,0,1-3.31,4,12.32,12.32,0,0,1-7.16,3c-.37,0-.72,0-1,.05.67,1.14,1.22,2,1.65,2.6a4.37,4.37,0,0,0,3.94,2.22,2.3,2.3,0,0,0,1.47-.51,3.78,3.78,0,0,0,.77-1,3.22,3.22,0,0,1,.52-.68,1.16,1.16,0,0,1,.8-.34,4,4,0,0,1,2,.36.87.87,0,0,1,.56.73,3.48,3.48,0,0,1-.54,2,6.24,6.24,0,0,1-1.67,1.9A4.28,4.28,0,0,1,495.28,166.11ZM486,153.9a11.17,11.17,0,0,0,5.15-2,14.09,14.09,0,0,0,4.07-4.22,8.12,8.12,0,0,0,1.37-4.87,6,6,0,0,0-.47-1.9,4,4,0,0,0-1.12-1.56,2.38,2.38,0,0,0-1.76-.53,6.56,6.56,0,0,0-1.24.2,3.78,3.78,0,0,1-.83.16H491a37.08,37.08,0,0,1-1.47,4.38Q487.92,147.81,486,153.9Z"/><path class="cls-1" d="M511.53,165.13a7.94,7.94,0,0,1-4.95-1.21,10.88,10.88,0,0,1-3.62-3.76,11.62,11.62,0,0,1-1.58-5,17.34,17.34,0,0,1,1.7-8.09,31.67,31.67,0,0,1,3.6-6.08,27.61,27.61,0,0,1,5.68-5.65,12.06,12.06,0,0,1,6.12-2.47,3,3,0,0,1,2.1.53,7.37,7.37,0,0,1,2.16,3.53,4.65,4.65,0,0,0,.71,1.16,16,16,0,0,1,3.5,8.36,13.76,13.76,0,0,1-1.09,6.19,23.17,23.17,0,0,1-6.38,8.79A13.91,13.91,0,0,1,511.53,165.13Zm-1.84-6.26a10,10,0,0,0,4.28-1.42,16,16,0,0,0,2.72-2,17.61,17.61,0,0,0,4.44-6.34,11.93,11.93,0,0,0,.91-5.47,9.87,9.87,0,0,0-.93-3.3c-.67-1.44-1.38-2.13-2.15-2.07a7.2,7.2,0,0,0-4.07,2.12,29.09,29.09,0,0,0-4.26,4.79,31.85,31.85,0,0,0-3.58,6.34,8.66,8.66,0,0,0-.85,3.77C506.39,157.83,507.55,159,509.69,158.87Z"/><path class="cls-1" d="M544.84,156.33q-.57,0-1.29-1.83a7.44,7.44,0,0,1-.48-2.13q-.27-3.83,1.58-14.3a62,62,0,0,1,1.54-6.93c.22-.72.61-1.09,1.18-1.13a1.89,1.89,0,0,1,.41,0,3.37,3.37,0,0,1,2,1.23,3.59,3.59,0,0,1,.87,2,22.55,22.55,0,0,1-.92,4.27q-1.72,6.22-3.26,12.88Q545.1,156.32,544.84,156.33Zm-.34,7.87a4.83,4.83,0,0,1-1.1-.13,1.76,1.76,0,0,1-1.44-1,3.62,3.62,0,0,1-.25-1.14A8.61,8.61,0,0,1,542,159c.28-1,.78-1.53,1.49-1.58a2.79,2.79,0,0,1,1.68.46,1.77,1.77,0,0,1,1,1.41Q546.42,164.06,544.5,164.2Z"/><rect id="cadre" class="cls-4" x="0.32" width="566.35" height="269"/></svg>