<?xml version="1.0" encoding="utf-8"?>
<!-- Generator: Adobe Illustrator 24.1.2, SVG Export Plug-In . SVG Version: 6.00 Build 0)  -->
<svg version="1.1" id="kawaii2" xmlns="http://www.w3.org/2000/svg" xmlns:xlink="http://www.w3.org/1999/xlink" x="0px" y="0px"
	 viewBox="0 0 567 269" style="enable-background:new 0 0 567 269;" xml:space="preserve">
<style type="text/css">
	.st0{fill:#E1B391;}
	.st1{fill:#FFC931;}
	.st2{fill:#F6B4D1;}
	.st3{fill:#201D1D;}
	.st4{fill:#FFF9FA;}
	.st5{fill:#F388A0;}
	.st6{fill:#F9C4D3;}
	.st7{fill:#6AC2B0;}
	.st8{fill:#E9007E;}
	.st9{fill:#FFF5DD;}
	.st10{fill:#672E16;}
	.st11{fill:none;}
	.st12{fill:#BFE3D6;}
	.st13{fill:#FED2A5;}
	.st14{fill:none;stroke:#C58259;stroke-width:0.4035;stroke-linecap:round;stroke-linejoin:round;stroke-miterlimit:10;}
	.st15{fill:#B96633;}
	.st16{fill:#FBEDCF;}
	.st17{fill:#E4BD8F;}
	.st18{fill:#FDF6EB;}
	.st19{fill:#FFFFFF;}
	.st20{fill:#591D08;}
	.st21{fill:#F6B926;}
	.st22{fill:#1D1D1B;}
	.st23{fill:none;stroke:#3D3D3C;stroke-width:0.3454;stroke-linecap:round;stroke-linejoin:round;stroke-miterlimit:10;}
	.st24{fill:none;stroke:#3D3D3C;stroke-width:0.2766;stroke-linecap:round;stroke-linejoin:round;stroke-miterlimit:10;}
	.st25{fill:#602F26;}
	.st26{fill:#C58259;}
	.st27{fill:none;stroke:#C58259;stroke-width:0.1428;stroke-linecap:round;stroke-linejoin:round;stroke-miterlimit:10;}
</style>
<g>
	<g>
		<g>
			<g>
				<path class="st0" d="M67.9,233.9c0.5,2.2,1.2,4.6,2.8,6.2c2,2,4.9,2.5,7.7,2.4c2.8-0.1,5.7-0.8,7.7-2.7c2.5-2.4,3-6.1,3-9.6
					c0-7.3-1.9-14.5-3.7-21.5c-1.9-7.1-2.3-15.1-4.5-21.9c-5,1-10.3,2.4-15.2,3.9c-1.6,0.5-6,1-6.8,2.6c-1.9,4.3,2.4,13.6,3.5,17.9
					c1.8,7.5,3.6,15,5.5,22.4C67.9,233.8,67.9,233.8,67.9,233.9z"/>
				<path class="st1" d="M22.8,190.3c0.6,2.3,1.3,4.8,3.1,6.3c1.5,1.3,3.5,1.7,5.5,2c9.5,1.3,19.1-1,28.4-3.6
					c13.6-3.7,27.1-8,40.3-12.8c4.7-1.7,9.9-4.1,11.2-8.9c0.7-2.7-0.1-5.5-0.8-8.1c-4-14.1-8-28.2-12-42.3
					c-4-14.1-8.1-28.4-14.6-41.5c-1.6-3.2-3.4-6.4-6.2-8.7c-2.8-2.3-6.4-3.4-10-4c-12.3-2-24.8,2.1-35.9,7.8
					C25,80,18.6,84.2,13.4,89.8c-4.6,4.9-10.9,13.8-10,21.1c0.3,2.6,2.2,4.9,3,7.4c1.4,4.6,2,9.7,2.9,14.4
					C13.3,152,17.8,171.2,22.8,190.3z"/>
				<path class="st2" d="M0.1,93.4C0,91,0,88.5,0,86.1c0.5-18,12.9-32.3,28.7-37.2c3.8-1.2,8.1-1.7,12.1-2
					c8.8-0.8,18.2-0.7,26.5,3.7c6.7,3.6,12.1,9.9,15.5,17s5,15.1,5.4,23c0,0.9,0.1,1.9-0.2,2.7c-0.9,2.6-4.5,3-6.7,1.3
					s-3.3-4.5-4-7.3c-0.5-2.1-1-4.5-2.7-5.8c-2.7-2-6.6,0.5-7.5,3.8s0,6.9,0.5,10.3c0.5,3.3,0.6,6.6,0.3,9.8
					c-0.3,3.3-1.8,7.3-4.9,7.2c-1.5,0-2.8-1-3.9-2.1c-4-4-5.8-9.8-6.8-15.4c-0.8-4.1-1.7-9-5.3-10.9c-2.5-1.3-5.6-0.5-7.6,1.4
					c-2,1.9-3.1,4.6-3.7,7.4c-0.6,3-1,6.6-3.6,8.1c-3.5,2-7.6-1.9-11.6-2.5c-4.2-0.7-8.4,2.9-8.7,7.4c-0.2,3.7,1.7,7.5,1.6,11.2
					c0,2.5-1.5,3.7-3.9,3.2c-1.5-0.3-2.9-1.1-3.9-2.3c-1.4-1.6-2-3.6-2.6-5.7C1.6,106.5,0.5,99.9,0.1,93.4z"/>
			</g>
			<g>
				<g>
					<path class="st3" d="M27.6,142.1c2.4-0.3,4.9-0.1,7.2,0.4c2,0.4,5.1,1.3,5.6,3.6c0.1-0.2,0.2-0.4,0.4-0.6
						c-3.8,0.7-7.5,1.5-10.7,3.8c-0.5,0.4,0,1.3,0.5,0.9c3.1-2.2,6.7-3,10.4-3.7c0.3,0,0.4-0.4,0.4-0.6c-0.5-2.7-3.7-3.8-6-4.3
						c-2.6-0.6-5.4-0.8-8.1-0.4C26.7,141.2,27,142.2,27.6,142.1L27.6,142.1z"/>
				</g>
			</g>
			<g>
				<path class="st4" d="M66.2,147.9c0.7,3.2,0.7,5.9,0.3,9.2c-0.1,1.2-0.4,2.3-0.9,3.4c-0.6,1-1.5,1.9-2.6,2.2
					c-1.9,0.4-3.6-1-4.9-2.4c-2.6-3-4.4-6.8-4.9-10.8c3-0.3,6.1-1.1,9.1-1.8c1.3-0.3,2.5-0.6,3.7-1.1
					C66.1,146.7,66.1,147.3,66.2,147.9z"/>
			</g>
			<g>
				<g>
					<path class="st3" d="M84.6,127.8c-1.9,0.5-3.8,1.4-5.5,2.4c-1.9,1.1-3.9,2.5-5,4.5c-0.5,0.9-0.8,1.9-0.6,3
						c0.1,0.3,0.4,0.4,0.6,0.4c3.6-0.8,7.2-1.5,10.9-0.6c0.6,0.1,0.9-0.8,0.3-1c-3.9-0.9-7.6-0.2-11.4,0.6c0.2,0.1,0.4,0.2,0.6,0.4
						c-0.5-2.3,2.1-4.3,3.8-5.5c2-1.3,4.2-2.5,6.6-3.1C85.5,128.6,85.2,127.6,84.6,127.8L84.6,127.8z"/>
				</g>
			</g>
			<path class="st5" d="M83.5,73c-1.1,1.7-2.1,3.2-4.5,3.5c-3.2,0.5-6.2-1.6-9.4-1.9c-3-0.3-6.2,0.9-8.1,3.2c-1.4,1.7-2.6,4-4.7,4.2
				c-2.5,0.2-3.9-2.6-5.4-4.6c-1.9-2.4-4.8-4-7.9-4.3C40.4,72.9,37.3,74,35,76c-3,2.8-4.2,6.9-4.9,11c-0.4,2.6-0.6,5.2-1.6,7.6
				c-0.2,0.4-0.4,0.8-0.7,1.1c-0.5,0.4-1.2,0.4-1.8,0.4c-2.3-0.3-4.2-1.9-6.4-2.4c-4-0.9-8.1,2.2-9.7,6s-1.3,8.1-0.8,12.2
				c0.1,1.1,0.3,2.3,0.1,3.4c-0.3,1.1-1,2.2-2.1,2.4c-0.8,0.2-1.4-0.4-2.1-0.6c0.6,1.1,1.7,2.3,2.8,3c0.6,0.4,1.3,0.8,2.1,1
				c0.8,0.2,1.6,0.1,2.2-0.4c2.1-1.6,2.2-5.4,1.9-7.6c-0.4-2.7-1.1-5.5-0.6-8.2c0.5-2.7,2.5-5.4,5.2-5.5c2.8-0.1,5,2.5,7.6,3.5
				c2.9,1.1,6.6,0.1,8.5-2.4c1.9-2.4,2-5.7,2.8-8.7c0.7-3,2.7-6.2,5.8-6.4c1.9-0.1,3.6,1,4.8,2.5c1.2,1.5,1.8,3.2,2.4,5
				c1.4,3.8,2.8,7.6,4.2,11.4c0.7,2,1.5,4,2.8,5.6s3.3,2.9,5.4,2.7c1.9-0.2,3.5-1.4,4.5-3c1-1.6,1.5-3.4,1.9-5.3
				c0.6-2.9,0.9-5.9,0.9-8.9c0-3.5-0.3-7.2,0.7-10.6c0.2-0.7,0.6-1.5,1.3-1.5c0.7,0,1.2,0.8,1.4,1.5c0.8,2.2,1.3,4.5,2.3,6.6
				c0.9,2.1,2.4,4.2,4.5,5.2c2.1,1.1,4.9,0.9,6.5-0.8c2.5-2.7,2-7.4,1.5-10.8c-0.4-2.6-1-5.1-1.8-7.6c-0.4-1.3-0.8-2.6-1.2-3.9
				c-0.1-0.2-0.6-2.4-1-1.9C84,72.2,83.7,72.6,83.5,73z"/>
			<path class="st6" d="M7.5,83.4C7.7,84.3,8,85.3,8.6,86c1.8,2.1,5.4,1.1,7.3-0.9s2.6-4.8,4.1-7.2c1.8-2.9,4.6-5.2,7.8-6.4
				c1.7-0.6,3.6-1,4.7-2.4c1-1.2,1.1-2.9,1-4.5c-0.6-12.1-10.8-9.8-17.9-4.4C8.7,65.4,5.3,75,7.5,83.4z"/>
		</g>
		<path class="st7" d="M60.4,55.1c0.1,0.2,0.2,0.4,0.4,0.5s0.4,0.2,0.6,0.1c0-0.6-0.4-4-1.3-4C58.8,51.8,60.1,54.7,60.4,55.1z"/>
		<path class="st7" d="M74,63.5c0.2-0.2,0.4-0.3,0.6-0.3c0.2,0.2,0.2,0.5,0.1,0.8c-0.1,0.3-0.3,0.5-0.4,0.7c-0.4,0.5-1.2,1.9-1.8,1
			C72,64.9,73.5,64,74,63.5z"/>
		<path class="st8" d="M60.6,68c0.6-0.2,1.1-0.5,1.6-0.9c0.3-0.2,0.6-0.4,0.9-0.7c0.3-0.2,0.4-0.5,0.3-0.9c-0.1-0.3-0.4-0.5-0.7-0.5
			c-0.4,0-0.7,0.3-1.1,0.5c-0.4,0.3-0.8,0.7-1.1,1c-0.2,0.2-0.3,0.4-0.5,0.5c-0.1,0.1-0.3,0.3-0.3,0.5C59.7,68.1,60.2,68.1,60.6,68z
			"/>
		<path class="st7" d="M41.5,64.2c0.2-0.3,0.9-0.9,1.1-0.7c1,1-0.3,2.7-1.3,3.5c-0.6,0.5-1.1,0.3-1.1-0.5
			C40.2,65.7,41.1,64.8,41.5,64.2z"/>
		<path class="st7" d="M13.9,77.8c-0.3,0.5,0.1,1.1,0.5,1.6c0.4,0.5,2.8,3.2,2.9,1.4C17.4,79.6,14.8,78.2,13.9,77.8z"/>
		<path class="st7" d="M6.5,93.1c0.2-0.1,0.6-0.1,0.7,0.1c0.1,0.3-0.2,0.7-0.5,0.9c-0.3,0.2-0.6,0.4-1,0.5c-0.6,0.2-3.2,1.1-3.2,0.1
			C2.6,93.8,5.8,93.3,6.5,93.1z"/>
		<path class="st7" d="M63.3,91.9c0.2,0.1,0.4,0.2,0.6,0.4c0.2,0.2,0.2,0.5,0.1,0.7c-0.4,0.6-5.1-1.1-5-1.8
			C59.2,89.9,62.8,91.7,63.3,91.9z"/>
		<path class="st9" d="M80,74.4c-1.1,0.9-1.9,2-2.3,3.3c0.3,0.3,0.8,0.2,1.1,0c0.3-0.2,0.5-0.6,0.7-0.9c0.3-0.4,0.5-0.9,0.8-1.3
			c0.1-0.2,0.2-0.4,0.2-0.6c0-0.2-0.3-0.4-0.5-0.4"/>
		<path class="st9" d="M24.3,89.8c-0.2-0.5-0.4-1-0.6-1.5c-0.1-0.3-0.2-0.5-0.1-0.8c0.1-0.3,0.4-0.5,0.7-0.5c0.4,0,0.6,0.4,0.7,0.7
			c0.3,0.9,1,1.9,0.6,2.8C25.3,90.9,24.8,90.9,24.3,89.8"/>
		<path class="st9" d="M30,53.8c-0.2,0.2-0.4,0.4-0.5,0.7c-0.1,0.3,0,0.6,0.2,0.7c0.3,0.2,0.8-0.1,1.1-0.3c0.5-0.4,2.2-1.7,1.6-2.5
			C31.9,51.7,30.4,53.5,30,53.8z"/>
		<path class="st9" d="M10.4,117.8c-0.3,0.3-0.7,0.6-0.8,1c-0.1,0.1-0.1,0.3-0.1,0.5c0,0.2,0.2,0.4,0.4,0.4c0.1,0,0.3,0,0.4-0.1
			c0.7-0.5,1.3-1,1.9-1.5c0.3-0.2,0.5-0.5,0.5-0.9C12.7,115.4,10.6,117.6,10.4,117.8z"/>
		<path class="st9" d="M54.4,80.9c0.1-0.6,0.1-1.3,0-1.9c-0.1-0.5-0.2-1.2-0.7-1.4c-0.1-0.1-0.3-0.1-0.4-0.1c-0.4,0.1-0.5,0.6-0.5,1
			c0,0.8,0.2,1.6,0.4,2.4c0.1,0.2,0.1,0.4,0.3,0.6c0.1,0.2,0.4,0.3,0.6,0.2C54.3,81.6,54.3,81.3,54.4,80.9"/>
		<path class="st8" d="M25,68.2c0,0.2,0,0.4,0.1,0.6c0.1,0.2,0.2,0.4,0.5,0.4c0.4,0,0.6-0.5,0.7-0.9c0.1-0.8,0.2-1.5,0.1-2.3
			c-0.1-0.3-0.2-0.5-0.4-0.7C24.8,64.7,25,67.8,25,68.2z"/>
		<path class="st8" d="M4.3,73c0,0-0.1,0-0.1,0.1c-0.1,0.1,0,0.2,0.1,0.3s0.2,0.1,0.3,0.1c0.8,0.1,1.6,0.1,2.4,0.1
			c1,0,1.3-1,0.3-1.3C6.5,72,5,72.6,4.3,73z"/>
		<path class="st8" d="M59.5,103.1c0-0.1,0-0.3,0-0.4c0.1-0.2,0.3-0.2,0.5-0.1c0.2,0.1,0.3,0.2,0.4,0.4c0.5,0.9,0.8,1.9,1.1,3
			c0.3,1.3-0.6,1.1-1.1,0.2C59.9,105.2,59.6,104.1,59.5,103.1z"/>
		<path class="st8" d="M83.8,87.9c0.4-0.6,0.9-1.2,1.6-1.2c0.2,0.4,0.1,0.8,0,1.2c-0.2,0.4-0.4,0.7-0.7,1c-0.3,0.4-1.5,1.8-1.9,1
			C82.5,89.4,83.5,88.3,83.8,87.9z"/>
		<path class="st10" d="M42.3,78.2c-0.9-0.3-1.8-0.5-2.6-0.7c-0.1,0-0.1,0-0.2,0c-0.1,0-0.1,0.1-0.1,0.2c-0.1,0.3,0.1,0.7,0.4,1
			s0.6,0.3,1,0.4c0.7,0.2,1.5,0.7,2.1,0.3C43.3,79.1,42.9,78.4,42.3,78.2"/>
		<path class="st10" d="M9.5,99.5c0,0.6,0.1,1.1,0.3,1.7c0.1,0.3,0.2,0.5,0.3,0.7s0.5,0.5,0.7,0.3c0.6-0.6,0.1-1.7-0.2-2.4
			c-0.2-0.4-0.6-1-0.9-0.8C9.6,99.1,9.5,99.3,9.5,99.5"/>
		<path class="st10" d="M13.4,60.3c0.6,0.6,1.4-0.7,2-1.3c0.2-0.2,0.5-0.5,0.6-0.8C16.6,55.7,12.8,59.7,13.4,60.3z"/>
		<path class="st10" d="M49.3,50.6c-0.9-0.8-2-1.3-3.1-1.5c-0.1,0.3,0.1,0.7,0.3,0.9c0.8,1,1.8,1.7,2.9,2.2c0.2,0.1,0.4,0.1,0.5,0
			c0.1-0.1,0.2-0.4,0.2-0.6c-0.1-0.7-0.6-1.4-1.2-1.5"/>
	</g>
	<path class="st11" d="M113.4,184.8c0.1-0.2,0.2-0.3,0.3-0.5"/>
	<g>
		<g>
			<path class="st8" d="M250.1,214c-1,0.2-1.8,0.2-2.6-0.2c-0.7-0.3-1.4-0.9-2.2-1.7c-1.2-1.2-2.3-2.8-3.4-5l-0.9-1.8
				c-0.2-0.5-0.5-1.1-0.7-1.6c-0.2-0.4-0.4-0.9-0.8-1.7c-0.4-0.8-0.6-1.4-0.8-1.6l-0.1-0.3c-0.5-1-0.8-1.8-0.9-2.1
				c-0.3-0.8-0.6-1.5-0.9-2c-0.1-0.3-0.3-0.7-0.5-1.1l-0.4-0.7l-0.5,1c-0.5,0.8-1.1,1.4-1.9,2c-0.1,0.1-0.3,0.1-0.4,0.2l-0.2,0.1
				l0.1,0.7c0,0.1,0,0.2,0.1,0.3c0.3,1.5,0.5,2.3,0.5,2.4c0.3,1.3,0.5,2.1,0.6,2.4l0.9,3.5c0.4,1.5,0.6,2.7,0.8,3.4
				c0.1,2.1-0.4,3.2-1.6,3.5c-0.9,0.2-1.8-0.5-2.7-2.3c-0.6-1.5-1.3-3.8-2.2-6.9l-0.7-2.4c-0.5-1.6-0.8-2.7-0.9-3.3
				c-0.4-1.4-0.7-2.7-1-3.7c-0.3-1.1-0.5-2.1-0.8-3.2l-0.2-0.8l-0.4-1.8c-0.2-0.8-0.3-1.8-0.4-3.1c-0.1-1.9,0.5-3.1,1.8-3.4
				c0.4-0.1,0.9,0,1.6,0.1c0.7,0.2,1.3,0.7,1.8,1.5c0.1,0.6,0.4,1.7,0.7,3.3c0,0.2,0.1,0.5,0.2,1l0.2,0.7c0.2,0.7,0.3,1.3,0.4,1.8
				c0,0.2,0.1,0.4,0.1,0.6c0,0.1,0,0.2,0,0.3c0.1-0.2,0.5-0.8,1-1.9l2.6-5.1c0.3-0.6,0.6-1.1,0.9-1.7l0.9-1.6l0.9-1.4
				c0.4-0.8,0.9-1.5,1.5-2.2l0,0c0.4-0.5,0.8-0.8,1.1-0.9c0.6-0.2,1.2-0.1,1.8,0.2c0.6,0.3,0.9,0.7,1.1,1.4l0.1,0.4l-0.2,0.8l0,0
				c-0.3,0.6-0.6,1.3-1.2,2.3c-0.8,1.5-1.6,3-2.4,4.6l-1.8,3.5l0,0c0,0,0,0.1-0.1,0.1c0.2,0.1,0.4,0.2,0.6,0.3
				c0.9,0.6,1.9,1.9,3,3.9l1,1.8c0.5,0.9,1,1.9,1.4,2.9c0,0.1,0.1,0.2,0.2,0.3c0.2,0.4,0.4,0.7,0.5,1.1c0.3,0.7,0.7,1.4,1,2.1
				l0.7,1.5l0.7,1.3c0.4,0.7,0.7,1.4,1.2,2c0,0,0.1,0.1,0.1,0.2c0.2,0.3,0.4,0.5,0.6,0.8l0.1,0.1c0.2,0.3,0.4,0.4,0.5,0.3
				c0.1,0,0.3-0.1,0.4-0.3c0.2-0.3,0.3-0.5,0.5-0.8l0.1-0.2l0.2-0.1c0.2-0.2,0.5-0.4,0.9-0.5c0.4-0.1,0.7,0,0.9,0.2
				c0.3,0.3,0.6,0.6,0.7,1.1c0,0.1,0.1,0.4,0.1,0.8c0,0.4-0.1,0.9-0.5,1.6c-0.2,0.4-0.4,0.7-0.7,1.1c-0.3,0.5-0.7,0.8-1,1
				C251,213.7,250.6,213.9,250.1,214z"/>
			<path class="st2" d="M269.4,214.3c-0.1,0-0.3,0-0.4,0c-0.1,0-0.3-0.1-0.6-0.4l-0.3-0.4c-0.4-0.4-0.8-1.2-1.3-2.3
				c0-0.1-0.1-0.2-0.1-0.3c-0.5-1.4-1-2.9-1.4-4.6c-0.1-0.3-0.1-0.6-0.2-0.9l-0.1,0.1c-0.8,1.7-1.8,3-2.9,3.8l0,0
				c-0.8,0.7-1.8,1.1-2.8,1.2c-1.5,0.2-2.9-0.3-4.1-1.4c-1.5-1.3-2.4-3.4-2.7-6.3c-0.2-2.9,0.2-5.7,1.4-8.3c0.6-1.4,1.2-2.5,2-3.4
				c0-0.1,0.4-0.5,1.2-1.2c1.1-0.9,2.5-1.5,4-1.7c1.1-0.1,2.1,0,2.9,0.5c0.2,0.1,0.4,0.2,0.7,0.5c0,0,0,0,0,0
				c0.5,0.4,0.7,0.9,0.8,1.4c0,0.2,0,0.4,0,0.5c0,0.1-0.1,0.2-0.1,0.3c-0.3,0.4-1.1,0.7-2.5,0.9l-0.3,0c-0.9,0.1-1.7,0.3-2.4,0.7
				c-0.9,0.7-1.6,1.7-2.3,3.1c-0.9,2.1-1.2,4.2-1,6.3c0.1,0.9,0.3,1.6,0.6,2.3c0.4,0.8,0.8,1.1,1.3,1.1c0.5-0.1,1.2-0.6,2-1.7
				c0,0,0,0,0,0c0.4-0.5,0.9-1.4,1.6-2.6l0.5-0.8c0.1-0.3,0.3-0.5,0.4-0.8c0.1-0.2,0.3-0.5,0.4-0.8l0.3-0.6c0-0.3,0-0.6,0-1
				c0-0.6,0-1.1,0.1-1.6l0.2-0.5c0.1-0.4,0.5-0.6,1.1-0.7c0.2,0,0.4,0,0.7,0c0.6,0,1,0.2,1,0.6l0,0.2c0,0,0,0,0,0.1
				c0,0,0.1,0.1,0.2,0.1c0.1,0.1,0.1,0.3,0.2,0.6l0.1,0.8l0.3,2.9c0.2,1.4,0.3,2.5,0.5,3.3c0,0.3,0.2,1.1,0.4,2.2
				c0.3,1.1,0.5,1.8,0.6,2.1c0.3,1.3,0.7,2.4,1.1,3.4l0.1,0.3c0.2,0.3,0.3,0.6,0.3,0.9c0.1,0.7-0.1,1.3-0.6,1.6
				C270.3,214.1,269.8,214.3,269.4,214.3z M263.2,195.7C263.1,195.7,263.1,195.7,263.2,195.7c-0.1,0-0.1,0-0.1,0s0,0,0,0l0.1-0.1
				c0,0,0,0,0,0C263.1,195.6,263.1,195.6,263.2,195.7C263.2,195.7,263.2,195.7,263.2,195.7z"/>
			<path class="st7" d="M277.2,209.2c-0.1,0-0.3,0-0.4,0c-0.2,0-0.5-0.1-0.8-0.3c-0.5-0.3-0.9-0.6-1.2-1.1c-0.4-0.5-0.8-1.4-1.4-2.5
				c-1.1-2.5-1.8-5.1-2.2-7.8l-0.1-0.2c-0.2-1.5-0.3-3.1-0.4-4.7l0-0.3l0-0.7c0-1.5,0.1-3.2,0.3-5c0.5-2,1.2-3,2.1-3
				c0.9,0,1.6,0.4,2.2,1.2c0.4,0.6,0.6,1.2,0.6,1.8c0,0.2,0,0.4-0.1,0.7l-0.1,1.2l0,0.2l-0.1,1.8c0,2.3,0.1,4.4,0.4,6.4
				c0.3,2.2,0.7,4,1.2,5.5l0,0.1c0.3-1.2,0.5-1.9,0.6-2.1c0.1-0.2,0.2-0.6,0.3-1.2c0.2-0.8,0.4-1.3,0.4-1.5c0.1-0.3,0.1-0.5,0.2-0.8
				c0.1-0.5,0.2-0.9,0.3-1.3c0.1-0.4,0.1-0.7,0.2-1c0.1-0.5,0.2-1,0.4-1.4c0.3-0.5,0.7-0.8,1.1-0.9c0.2,0,0.4-0.1,0.6-0.1
				c0.3,0,0.6,0,0.9,0.1c0.2,0,0.4,0.2,0.6,0.5c0.3,0.3,0.5,0.7,0.7,1.2c0,0,0,0,0,0c0.6,1.3,0.9,2.1,0.9,2.3
				c0.1,0.2,0.1,0.3,0.2,0.5l1,2.6c0.7,1.5,1.2,2.5,1.5,3v0c0.2,0.4,0.4,0.8,0.7,1.1l0.1,0.1l0.3-1.4c0.1-0.9,0.2-1.8,0.3-2.7
				l0.2-2.3l0.1-1.8c0.1-0.6,0.1-1.2,0.1-1.9c0-0.6,0.1-1.2,0.1-1.8c0-1.2,0.1-2.2,0.2-3.1l0-0.2c0.5-1.7,1.2-2.6,2.2-2.6
				c0.9,0,1.5,0.9,1.7,2.7v0.1c0.1,0.4,0.1,0.7,0.1,1.1l-0.1,1.4c0,0.5,0,1.1-0.1,1.6l0,1c-0.1,1-0.1,1.7-0.1,2
				c-0.1,2.1-0.3,4.5-0.7,7.2c0,0,0,0.1,0,0.1c-0.2,1.6-0.6,3-1.2,4c-0.7,1-1.5,1.6-2.6,1.6c-1.1,0-2.2-0.6-3.3-1.8
				c-0.6-0.7-1.1-1.5-1.7-2.6l-0.2-0.3c-0.2-0.4-0.4-0.8-0.7-1.3l-0.1-0.2c-0.4-0.9-0.7-1.6-0.8-1.8c0,0,0,0.1,0,0.1l-0.4,2
				l-0.3,1.4c-0.4,2.3-1.2,3.8-2.2,4.7l-0.1,0.1c-0.3,0.2-0.6,0.4-0.7,0.4c-0.1,0-0.2,0-0.4,0L277.2,209.2z"/>
			<path class="st8" d="M307.7,215.9c-0.1,0-0.3,0-0.4-0.1s-0.3-0.2-0.5-0.5l-0.2-0.5c-0.3-0.5-0.5-1.4-0.7-2.5c0-0.1,0-0.2,0-0.3
				c-0.2-1.5-0.2-3.1-0.2-4.8c0-0.3,0-0.6,0.1-0.9l-0.1,0.1c-1.2,1.4-2.4,2.4-3.7,3l0,0c-1,0.5-2,0.6-3,0.5c-1.5-0.2-2.7-1-3.6-2.3
				c-1.1-1.6-1.5-3.9-1.1-6.8c0.5-2.9,1.6-5.4,3.3-7.7c0.9-1.2,1.8-2.1,2.7-2.8c0-0.1,0.5-0.4,1.4-0.9c1.3-0.6,2.7-0.9,4.3-0.7
				c1.1,0.1,2,0.5,2.7,1.2c0.2,0.1,0.4,0.3,0.6,0.6c0,0,0,0,0,0c0.4,0.5,0.5,1.1,0.4,1.5c0,0.2-0.1,0.4-0.1,0.5
				c0,0.1-0.1,0.1-0.2,0.2c-0.4,0.4-1.2,0.4-2.6,0.3l-0.3,0c-0.9-0.1-1.7-0.1-2.5,0.1c-1,0.5-2,1.3-2.9,2.4
				c-1.3,1.8-2.2,3.8-2.5,5.9c-0.1,0.9-0.1,1.7,0.1,2.4c0.2,0.8,0.5,1.3,1.1,1.4c0.5,0.1,1.3-0.3,2.4-1.2c0,0,0,0,0,0
				c0.5-0.4,1.2-1.1,2.2-2.1l0.7-0.7c0.2-0.2,0.4-0.5,0.6-0.7s0.4-0.4,0.6-0.6l0.4-0.5c0-0.3,0.1-0.6,0.2-1c0.1-0.5,0.3-1,0.5-1.5
				l0.3-0.5c0.2-0.3,0.6-0.5,1.3-0.4c0.2,0,0.4,0.1,0.7,0.1c0.6,0.2,0.9,0.5,0.9,0.8l0,0.2c0,0,0,0,0,0.1c0,0,0.1,0.1,0.1,0.2
				c0.1,0.1,0.1,0.4,0,0.7l-0.1,0.8l-0.4,2.8c-0.2,1.4-0.3,2.5-0.3,3.4c0,0.3-0.1,1.1-0.1,2.3c0,1.1,0,1.9,0.1,2.2
				c0,1.3,0.1,2.5,0.3,3.5l0,0.3c0.1,0.3,0.1,0.7,0.1,1c-0.1,0.7-0.4,1.2-1,1.5C308.6,215.9,308.2,216,307.7,215.9z M306.1,196.4
				C306.1,196.3,306.1,196.3,306.1,196.4c-0.1,0-0.1,0-0.1,0c0,0,0,0,0,0l0.1-0.1c0,0,0,0,0,0C306.1,196.2,306.1,196.3,306.1,196.4
				C306.1,196.3,306.1,196.3,306.1,196.4z"/>
			<path class="st12" d="M313.8,213.5c-0.8-0.2-1.4-0.9-1.7-2.2c-0.1-1.6,0-4.1,0.5-7.5l0.1-0.9c0.2-1.2,0.3-1.9,0.2-1.9
				c0.3-2.2,0.6-3.8,0.8-4.7c0.2-1.2,0.4-2.1,0.6-2.8c0.3-1,0.7-1.7,1.3-2.1c0.5-0.3,1-0.4,1.5-0.3c0.6,0.1,1.1,0.5,1.4,1.1
				c0.2,0.5,0.3,1.1,0.2,1.8l-0.1,0.4l-0.3,1.5l-0.3,1.7c-0.1,0.4-0.1,0.8-0.1,1.2l-0.3,1.9c-0.1,0.7-0.2,1.4-0.3,2.1l-0.6,5.2
				c-0.1,1.6-0.3,2.7-0.4,3.6C315.8,213.1,314.9,213.7,313.8,213.5z M317,188c0,0-0.3-0.1-0.8-0.2c-0.5-0.1-0.7-0.7-0.7-1.8l0.3-1.6
				c0.1-0.3,0.1-0.6,0.2-0.7l0-0.2c0.5-1.6,1.3-2.2,2.5-2c0.4,0.1,0.8,0.3,1.1,0.7c0.4,0.5,0.5,1.3,0.3,2.2c0,0.4-0.1,0.8-0.1,1.1
				c0,0.4-0.1,0.9-0.2,1.4c0,0.2-0.1,0.4-0.2,0.6C318.6,188,317.8,188.2,317,188z"/>
			<path class="st2" d="M319.8,214.8c-0.8-0.2-1.4-0.9-1.6-2.2c-0.1-1.6,0.2-4.1,0.8-7.5l0.1-0.9c0.2-1.2,0.3-1.9,0.3-1.9
				c0.4-2.2,0.7-3.8,0.9-4.7c0.3-1.2,0.5-2.1,0.7-2.7c0.3-1,0.8-1.7,1.4-2c0.5-0.3,1-0.4,1.5-0.3c0.6,0.2,1.1,0.5,1.4,1.2
				c0.2,0.5,0.3,1.1,0.1,1.8l-0.1,0.4l-0.3,1.5l-0.3,1.7c-0.1,0.4-0.1,0.8-0.2,1.2l-0.3,1.8c-0.1,0.7-0.2,1.4-0.3,2.1l-0.8,5.2
				c-0.2,1.6-0.4,2.7-0.6,3.5C321.8,214.5,320.9,215.1,319.8,214.8z M323.9,189.5c0,0-0.3-0.1-0.8-0.2c-0.5-0.1-0.7-0.7-0.7-1.9
				l0.4-1.6c0.1-0.3,0.1-0.6,0.2-0.7l0-0.2c0.5-1.5,1.4-2.2,2.5-1.9c0.4,0.1,0.8,0.3,1.1,0.7c0.4,0.5,0.4,1.3,0.2,2.2
				c0,0.4-0.1,0.8-0.2,1.1c0,0.4-0.1,0.9-0.2,1.3c0,0.2-0.1,0.4-0.2,0.6C325.5,189.5,324.8,189.7,323.9,189.5z"/>
		</g>
		<g>
			<path class="st1" d="M343.1,175c-1.1-2.3-2.1-4.4-5.2-5.5c2.3-1.1,4.2-3.2,4.9-5.6c0.5,2.5,2.4,3.9,4.4,5.6c-1,0.3-2.5,1.6-3,2.5
				C343.6,172.9,343.4,174,343.1,175z"/>
			<path class="st1" d="M337.5,192.1c0.4,1,1.2,1.8,2.1,2.3c-1,0.4-1.7,1.3-2,2.3c-0.2-1-1-1.6-1.8-2.3c0.4-0.1,1-0.7,1.3-1
				C337.2,193,337.3,192.6,337.5,192.1z"/>
			<path class="st1" d="M362.5,168c0.4,1,1.2,1.8,2.1,2.3c-1,0.4-1.7,1.3-2,2.3c-0.2-1-1-1.6-1.8-2.3c0.4-0.1,0.1,0.3,0.3-0.1
				C361.4,169.9,362.4,168.4,362.5,168z"/>
			<path class="st1" d="M352.7,194.5c-1.6-3.5-3.2-6.7-7.8-8.3c3.5-1.6,6.3-4.8,7.4-8.5c0.7,3.8,3.6,5.9,6.6,8.4
				c-1.5,0.4-3.7,2.4-4.5,3.8S353.2,192.9,352.7,194.5z"/>
		</g>
		<g>
			<path class="st1" d="M257.4,241.3c-1.1,0-2-0.3-2.8-1c-1-0.8-1.8-2.2-2.4-4.1c-0.3-0.9-0.5-1.8-0.6-2.9c0-0.2,0-0.4-0.1-0.5
				l-0.1-1.1c0-0.2,0-0.5-0.1-0.7c-0.1-0.8-0.1-2.1-0.1-3.9l0.1-1c0-0.6,0.1-1.3,0.1-2c0.1-0.7,0.1-1.1,0.2-1.2
				c-0.2,0-0.7,0.1-1.5,0.4l-0.6,0.1l-0.3,0c-0.2-0.1-0.4-0.2-0.6-0.3c-0.8-0.3-1.2-0.7-1.2-1.1c0-0.3,0.3-0.7,0.9-1.1l0.1,0
				c0.8-0.5,1.7-0.9,2.8-1.2c0.6-0.2,0.9-0.2,1-0.2l0-0.2l0.2-0.6c0.1-0.8,0.3-1.5,0.6-2.1c0.5-1,1-1.5,1.7-1.5
				c0.9,0,1.6,0.7,2.3,1.9l-0.1,0.7l-0.2,0.9l-0.1,0.3c0,0,0,0.1,0,0.1l0.3,0c0.6,0,1,0,1.4,0s0.7,0.1,1.1,0.1
				c0.7,0,1.3,0.1,1.8,0.3c0.3,0.3,0.5,0.6,0.5,1c0,0.1,0,0.3-0.1,0.6c-0.1,0.3-0.3,0.7-0.7,1.1s-0.8,0.7-1.3,0.8l-0.8-0.1
				c-0.9-0.1-1.5-0.2-1.9-0.2l-0.8,0l0,0.1c0,0.5-0.1,0.9-0.1,1.3c0,0.3,0,0.5-0.1,0.7c-0.1,1.2-0.1,2.1-0.1,2.5l-0.1,0.7
				c0,1.7,0,2.8,0.1,3.3c0,0.2,0,0.7,0.1,1.5c0.1,0.4,0.1,0.8,0.2,1.2s0.1,0.8,0.2,1.1c0.1,0.6,0.3,1.1,0.6,1.7
				c0.3,0.5,0.6,0.8,0.9,0.8c0.3,0,0.7-0.3,1-1c0.2-0.3,0.3-0.5,0.3-0.6c0.4-0.9,0.7-1.4,1.1-1.4c0.4,0,0.7,0.9,0.8,2.6
				c0,0,0,0.1,0,0.1v0.2c0,0.6-0.2,1.4-0.7,2.2c-0.4,0.6-0.8,1-1.2,1.3C258.7,241.2,258.1,241.3,257.4,241.3z M256.5,222.7
				c-0.1,0-0.3,0-0.4,0h-0.1v0H256.5z"/>
			<path class="st1" d="M264,218.6c0,0-0.3,0-0.8,0c-0.5,0-0.9-0.6-1.1-1.6v-1.7c0-0.3,0-0.6,0-0.7v-0.2c0.2-1.6,0.8-2.4,2-2.4
				c0.5,0,0.9,0.2,1.2,0.5c0.5,0.4,0.7,1.1,0.7,2.1c0.1,0.4,0.1,0.8,0.1,1.1c0.1,0.4,0.1,0.9,0.1,1.4c0,0.2,0,0.4-0.1,0.6
				C265.6,218.2,264.9,218.6,264,218.6z M265.8,244.2c-0.8,0-1.5-0.6-2.1-1.8c-0.4-1.6-0.8-4.1-1-7.5l-0.1-0.9
				c-0.1-1.2-0.1-1.9-0.1-1.9c-0.1-2.2-0.2-3.8-0.2-4.8c0-1.2,0-2.1,0.1-2.8c0.1-1.1,0.4-1.8,0.9-2.3c0.4-0.4,0.9-0.6,1.4-0.6
				c0.6,0,1.2,0.3,1.6,0.9c0.3,0.4,0.5,1,0.5,1.7l0,0.4l0,1.5l0.1,1.8c0,0.4,0,0.8,0.1,1.2l0.1,1.9c0.1,0.7,0.1,1.4,0.2,2.2l0.5,5.3
				c0.2,1.6,0.3,2.7,0.3,3.6C267.7,243.4,267,244.2,265.8,244.2z"/>
			<path class="st1" d="M271.4,245.5c-0.2,0-0.5-0.1-0.9-0.2c-0.6-0.2-1.1-1.7-1.5-4.5c-0.2-1.2-0.3-2.5-0.4-4c-0.1-1-0.1-2-0.1-3
				c0-1.3,0-2.6,0.1-3.9c0.1-1.7,0.3-3.2,0.4-4.3c0.2-1.3,0.5-2.5,0.8-3.6c0.8-2.5,2-4,3.7-4.7c0.6-0.2,1.1-0.3,1.6-0.3
				c1.2,0,2.4,0.6,3.4,1.9c1,1.2,1.8,3.1,2.4,5.7l0,0.1c0.3-0.8,0.7-1.7,1.2-2.6c0.9-1.6,2-2.7,3.4-3.5c0.7-0.4,1.4-0.6,2.1-0.6
				c0.5,0,1,0.1,1.5,0.3c0.7,0.4,1.3,0.9,1.7,1.6c0.4,0.7,0.7,1.5,0.9,2.3c0.1,0.5,0.2,1.4,0.3,2.6l0,1.5v1.6c0,0.5,0,1.7-0.1,3.4
				c0,0.1,0,0.3,0,0.4l-0.1,3.2l0,1.4c0,1.9-0.1,3.2-0.3,3.9c-0.4,1.2-0.9,1.7-1.7,1.7c-0.7,0-1.3-0.6-1.6-1.7
				c-0.1-0.6-0.2-1.1-0.2-1.7l0-2.2l0-1.5c0-0.7,0-1.3,0.1-1.8l0.1-1.8c0.1-0.6,0.1-1.7,0.1-3.3c0-3.3-0.3-5-0.9-5
				c-0.4,0-0.8,0.7-1.4,2.2c-0.3,0.7-0.6,1.3-0.8,2l-0.1,0.4c-0.3,1-0.5,2-0.8,3c-0.1,0.4-0.2,1.2-0.5,2.6c-0.1,0.7-0.2,1.3-0.3,2
				c-0.1,0.4-0.1,0.8-0.2,1.2c0,0.2-0.1,0.5-0.2,1c0,0.2-0.1,0.5-0.2,0.7c-0.1,0.4-0.4,0.7-0.7,0.9l-1.5,0.3c-0.6-0.1-1-0.7-1.3-1.8
				c-0.4-3.4-1.1-6.9-2.1-10.4l-0.1-0.4c-0.3-1.1-0.5-2-0.8-2.6c-0.4-0.9-0.8-1.3-1.1-1.3c-0.4,0-0.8,1-1.1,2.9
				c-0.4,2-0.6,4.2-0.7,6.6l0,0.6c0,0.5,0,1.1,0,1.6c0.1,2.5,0.1,3.9,0.2,4.3c0.1,1.7,0.3,3,0.4,4l0.1,0.8c0,0.2-0.2,0.5-0.6,0.9
				c-0.4,0.4-0.8,0.7-1.4,0.9C271.9,245.4,271.6,245.5,271.4,245.5z"/>
			<path class="st1" d="M300.2,242.4c-1,0-2-0.2-3.1-0.7c-1.1-0.5-2-1.3-2.8-2.4c-1.2-1.8-1.8-4.2-1.8-7c0-1.7,0.2-3.4,0.6-5.1
				c0.4-1.5,0.9-2.9,1.5-4c0.6-1.1,1.4-2.2,2.3-3.1c0.9-1,1.9-1.7,2.9-2.3c1-0.6,2-0.9,3-1.1h1.5c0.5,0,0.9,0.1,1.4,0.3
				c1.9,0.8,3.2,2.2,3.7,4.3c0.2,0.6,0.3,1.4,0.3,2.1c0,1.3-0.3,2.6-0.8,3.8c-0.4,0.9-0.9,1.9-1.7,2.9c-0.2,0.3-0.5,0.7-1.1,1.3
				c-1.9,1.8-3.8,3-5.7,3.8c-0.9,0.3-1.8,0.5-2.6,0.6c0,0,0,0.1,0.1,0.1c0,0.1,0,0.1,0.1,0.2c0.1,0.3,0.3,0.6,0.6,0.9
				c0.6,0.7,1.2,1.1,1.9,1.1c0.7,0,1.3-0.2,1.9-0.6c0.4-0.2,0.7-0.4,1.1-0.7c0.5-0.4,0.9-0.6,0.9-0.7c0.5-0.5,1.1-0.9,1.6-1.2
				l0.2-0.1c0.3-0.1,0.6-0.1,0.8-0.1c0.4,0,0.8,0.1,1.2,0.2c0.4,0.2,0.7,0.7,0.8,1.5c-0.1,0.5-0.3,0.9-0.5,1.3
				c-0.3,0.4-0.6,0.8-0.9,1.1c-1.6,1.6-3.5,2.7-5.6,3.4C301.3,242.3,300.8,242.4,300.2,242.4z M297.2,232.3
				C297.3,232.3,297.3,232.3,297.2,232.3c0.3,0,0.6-0.1,1.2-0.4c1.4-0.6,2.9-1.7,4.4-3.3c0.6-0.7,1.1-1.4,1.5-2
				c0.6-1.1,0.9-2.1,0.9-3.1c0-0.6-0.2-1.2-0.5-1.8c-0.2-0.3-0.3-0.4-0.6-0.5h0.1h-0.5h0.4c-0.2-0.1-0.4-0.1-0.7-0.1
				c-0.3,0-0.4,0.1-0.4,0.1h0.7c-0.6,0-1.4,0.3-2.2,0.9c-1.5,1.1-2.7,2.6-3.4,4.5C297.5,228.3,297.2,230.2,297.2,232.3z"/>
		</g>
	</g>
	<g>
		<g>
			<path class="st13" d="M169.8,151.5c-8-6.6-16.2-13.1-24.8-19.1l-0.3-0.1c-10.3-1.6-20.8-2.5-31.1-3.2c-7.2-0.5-6.9,1-8,7.8
				c-1,6-1.9,12-2.8,18c-1.8,11.8-3.4,23.7-4.8,35.5c-1.6,13.3-3,26.6-4.3,39.9c-0.3,3.1-0.5,6.2,0.3,9.2c0.8,2.9,2.9,5.7,5.8,6.4
				c2.7,1.4,6,0.8,8.6-0.7c2.6-1.6,4.6-4.1,6.5-6.5c8.2-10.5,16.3-21.2,24.3-31.9c7.1-9.6,14.1-19.3,20.9-29.2c3.5-5,6.9-10,10.3-15
				C174.2,157,175.4,156.1,169.8,151.5z"/>
			<path class="st14" d="M101.7,162.1c20.6-0.4,40.7-0.9,61.4-1.3"/>
			<path class="st14" d="M99,181.4c19.8-0.3,39.5-0.9,59.2-1.8"/>
			<path class="st14" d="M97.2,199.2c15.8,0.5,31.7,0.5,47.5,0"/>
			<path class="st14" d="M95.1,217.9c11.9,0.4,23.7,0.3,35.6-0.1"/>
			<path class="st14" d="M93.3,237.4c7.4,0.4,14.9,0.4,22.3,0.1"/>
			<path class="st14" d="M105.2,142.2c5.3-0.3,10.7-0.2,16.1,0.1"/>
			<path class="st14" d="M95.3,217.4c4.9,8.6,9.6,17.3,14,26.1"/>
			<path class="st14" d="M97.8,191.3c6.5,12.4,16.5,24.9,22.7,37.5"/>
			<path class="st14" d="M101.2,165.6c13,13.3,25.5,29.3,34.9,45.4"/>
			<path class="st14" d="M105.5,142.4c13.3,18.3,28.7,34.2,41.9,52.6"/>
			<path class="st14" d="M140,155.9c1.2,0.8,2.2,1.9,3.1,3c5.5,6.2,10.2,14.1,15.2,20.7"/>
			<path class="st14" d="M168.1,160.5c0.9,1,1.5,1.1,2.2,2.2"/>
			<path class="st11" d="M169.8,151.5c-8-6.6-16.2-13.1-24.8-19.1l-0.3-0.1c-10.3-1.6-20.8-2.5-31.1-3.2c-7.2-0.5-6.9,1-8,7.8
				c-1,6-1.9,12-2.8,18c-1.8,11.8-3.4,23.7-4.8,35.5c-1.6,13.3-3,26.6-4.3,39.9c-0.3,3.1-0.5,6.2,0.3,9.2c0.8,2.9,2.9,5.7,5.8,6.4
				c2.7,1.4,6,0.8,8.6-0.7c2.6-1.6,4.6-4.1,6.5-6.5c8.2-10.5,16.3-21.2,24.3-31.9c7.1-9.6,14.1-19.3,20.9-29.2c3.5-5,6.9-10,10.3-15
				C174.2,157,175.4,156.1,169.8,151.5z"/>
		</g>
		<path class="st12" d="M190.6,144.4c-0.3-0.8-0.6-1.6-1-2.3c1.9-2.2,4.2-4.3,5.6-6.9c10.3-18.6,7.7-43.7-6.5-59.5
			c-14.2-15.8-39.2-21-58.3-11.6s-30.8,32.7-25.9,53.4c0.1,0.6-0.6,0.4-2,0.8c-5.3,1.7-9,9.1-7.2,14.6c1.8,5.5,6.5,8.4,12.2,8.4
			c5.8,0,11.2-2.6,15.9-5.9c-5.4,6.4-1.5,17.6,6.3,20.6c7.8,3,17.2-1.1,21.8-8.1c-2.4,5.8,1.5,13.4,7.7,14.7c4.6,1,9.6-1.7,11.8-5.8
			c3.4,4.2,8.5,7,13.6,4.5c1.8-0.9,3.3-2.5,4.4-4.2C191.3,153.3,191.9,148.6,190.6,144.4z"/>
		<g>
			<g>
				<path class="st3" d="M122.7,97.9c2.6-2.6,6.8-3.4,10.2-1.9c3.4,1.5,5.5,5.1,5.3,8.8c0,0.7,1.1,0.7,1.1,0
					c0.2-4.1-2.3-8.2-6.1-9.8c-3.8-1.6-8.4-0.7-11.3,2.2C121.5,97.6,122.2,98.4,122.7,97.9L122.7,97.9z"/>
			</g>
		</g>
		<g>
			<g>
				<path class="st3" d="M164.7,116.3c2.8-2.5,7.1-3.3,10.6-1.7c3.3,1.5,5.5,4.9,5.7,8.5c0,0.7,1.1,0.7,1.1,0
					c-0.2-4.1-2.7-7.9-6.5-9.5c-3.9-1.7-8.6-0.9-11.7,1.9C163.4,116,164.2,116.8,164.7,116.3L164.7,116.3z"/>
			</g>
		</g>
		<g>
			<g>
				<path class="st3" d="M144.5,110.6c-0.8,0.5-1.2,1.4-1.1,2.2c0.1,1,0.8,1.9,1.6,2.5c1.6,1.3,4,1.8,5.6,0.2
					c-0.3-0.2-0.6-0.4-0.9-0.5c-0.7,2.1,2,3.6,3.8,3.7c2,0.2,3.9-1.1,4.1-3.2c0.1-0.7-1-0.7-1.1,0c-0.1,1.4-1.5,2.2-2.8,2.1
					c-1-0.1-3.4-1-2.9-2.4c0.2-0.5-0.5-0.9-0.9-0.5c-1.1,1.1-2.7,0.8-3.8,0c-0.8-0.6-2.4-2.4-1-3.2
					C145.6,111.2,145.1,110.3,144.5,110.6L144.5,110.6z"/>
			</g>
		</g>
		
			<ellipse transform="matrix(0.3691 -0.9294 0.9294 0.3691 -26.6442 176.7341)" class="st2" cx="116.8" cy="108" rx="3.4" ry="5.4"/>
		
			<ellipse transform="matrix(0.3691 -0.9294 0.9294 0.3691 -11.9118 249.3396)" class="st2" cx="177.7" cy="133.4" rx="3.4" ry="5.4"/>
		<path class="st7" d="M200.6,119.5c0.2-0.7,0.1-1,0.3-1.7c0.1-0.4,0.3-3,0.4-3.3c0.2-2.5,0.2-5,0.1-7.4
			c-1.2-24.1-18.5-44-42.9-47.2c-21.3-2.7-39.8,6.8-49.3,25.3c-0.7,1.4-0.5,3,0.5,4.1c1.7,1.7,4.6,0.7,6.6-0.7
			c2-1.3,4.5-2.9,6.6-1.8c1.2,0.6,1.9,2,3.2,2.5c1.7,0.7,3.5-0.2,5.1-1.1c4.1-2.1,9.4-3.5,13-0.6c2.9,2.3,3.5,6.4,4,10
			s1.7,7.7,5,9.4c2.8,1.4,6.2,0.4,9.1-0.9c2.9-1.3,5.7-3,8.8-3.1c1.2,0,2.4,0.2,3.3,1c1.4,1.3,1.4,3.9,3.1,4.7
			c2.4,1.2,4.7-2.3,7.4-2.3c2.2,0,3.7,2.4,4,4.6c0.3,2.2-0.2,4.5,0.4,6.6c0.9,3.5,6.3,7.5,9.7,5.2
			C200.3,122.1,200.1,121.9,200.6,119.5z"/>
		<path class="st12" d="M193.5,82.3c-1.1,1.6-2.9,2.7-4.9,2.9c-1.9,0.1-3.9-0.6-5.3-1.9c-1.8-1.7-2.9-4.3-5.2-5.3
			c-2-0.9-4.3-0.2-6.2,0.8s-3.6,2.4-5.6,3.2c-4.4,1.6-9.9-0.4-12.1-4.5c-1.2-2.2-1.5-4.7-2.8-6.8c-1.9-3.1-5.8-4.9-9.4-4.1
			c-1.8,0.4-3.3,1.2-5,1.9c-1.7,0.7-3.5,1.2-5.2,0.7c-1.4-0.4-2.8-0.8-3.3-2.3c-0.1-0.4-0.2-0.9,0-1.3c0.3-0.8,1.2-1.1,1.8-1.4
			c0.9-0.4,1.7-0.9,2.6-1.2c1.8-0.7,3.6-1.4,5.4-1.8c2.2-0.6,3.3-0.7,5.5-1c12.5-1.7,25.9,1,36.5,8.4c2.2,1.5,6.1,4.9,7.8,7
			C190.9,78.4,191.7,79.4,193.5,82.3z"/>
		<g>
			<path class="st7" d="M163.3,54.4c1.3-3.8,1.4-8.1,0.9-12.3s-1.5-8.3-2.6-12.5c-0.8-3.1-1.7-6.5-3.8-8.8c-0.9-0.3-1.5,1-1.5,2.1
				c0.1,1.1,0.7,2.1,1.2,3c4.6,7.7,6.3,20.1,5.8,29"/>
			<path class="st8" d="M173.7,53.7c0.2,0.8,0.3,1.6,0.3,2.5c0.1,3.1-1.2,6.2-3.3,8.3c-4,3.9-9.7,3.8-13.4-1
				c-2-2.7-4.7-10.1-0.9-12.5c1.8-1.2,3.9-0.1,5.9,0c2.1,0.1,4-1.2,6.1-1.5c0.8-0.1,1.5-0.1,2.3,0.1
				C172.5,50.1,173.3,52.1,173.7,53.7z"/>
		</g>
		<path class="st12" d="M154.5,62.1c1.9-0.3,3.7-0.6,5.6-0.6c1.9,0.1,3.8,0.5,5.3,1.6c1.5,1.1,2.5,2.7,3.9,3.9
			c2.6,2.2,6.2,3,8.7,5.2c0.4,0.3,0.7,0.7,0.8,1.2c0.1,0.8-0.7,1.5-1.5,1.8c-1.2,0.4-2.6,0.3-3.8,0.5c-1.9,0.3-3.6,1.2-5.4,1.8
			c-2.2,0.8-4.6,1.4-6.9,1.9c-1.1,0.2-2.1,0.5-3.2,0.4c-1.1-0.1-2.2-0.5-2.8-1.4c-0.4-0.6-0.6-1.4-0.7-2.1c-0.5-2.4-1.4-4.7-2.8-6.7
			c-0.7-0.9-1.5-1.8-2.4-2.5c-0.7-0.6-2.1-1-1.6-2.2C148.4,63,152.8,62.4,154.5,62.1z"/>
		<path class="st15" d="M180.8,67.9c0.6-0.5,1.5-0.7,2.2-0.4c0.2,0.1,0.4,0.2,0.5,0.4c0.1,0.2,0.2,0.4,0.3,0.6
			c0.5,1.7-0.5,3.3-2.4,2.8C180,70.9,179.9,68.8,180.8,67.9z"/>
		<path class="st10" d="M180.3,87.1c0.6-0.5,1.5-0.7,2.2-0.4c0.2,0.1,0.4,0.2,0.5,0.4c0.1,0.2,0.2,0.4,0.3,0.6
			c0.5,1.7-0.5,3.3-2.4,2.8C179.5,90.1,179.4,88,180.3,87.1z"/>
		<path class="st16" d="M119.5,87c0.6-0.5,1.5-0.7,2.2-0.4c0.2,0.1,0.4,0.2,0.5,0.4c0.1,0.2,0.2,0.4,0.3,0.6
			c0.5,1.7-0.5,3.3-2.4,2.8C118.7,90,118.5,87.9,119.5,87z"/>
		<path class="st10" d="M190.4,77.9c0.6-0.5,1.5-0.7,2.2-0.4c0.2,0.1,0.4,0.2,0.5,0.4c0.1,0.2,0.2,0.4,0.3,0.6
			c0.5,1.7-0.5,3.3-2.4,2.8C189.6,80.9,189.4,78.8,190.4,77.9z"/>
		<path class="st16" d="M171.8,74.4c0.6-0.5,1.5-0.7,2.2-0.4c0.2,0.1,0.4,0.2,0.5,0.4c0.1,0.2,0.2,0.4,0.3,0.6
			c0.5,1.7-0.5,3.3-2.4,2.8C171,77.4,170.9,75.2,171.8,74.4z"/>
		<path class="st10" d="M155.8,66c0.6-0.5,1.5-0.7,2.2-0.4c0.2,0.1,0.4,0.2,0.5,0.4c0.1,0.2,0.2,0.4,0.3,0.6
			c0.5,1.7-0.5,3.3-2.4,2.8C155,68.9,154.8,66.8,155.8,66z"/>
		<path class="st15" d="M152.6,78.4c0.6-0.5,1.5-0.7,2.2-0.4c0.2,0.1,0.4,0.2,0.5,0.4c0.1,0.2,0.2,0.4,0.3,0.6
			c0.5,1.7-0.5,3.3-2.4,2.8C151.8,81.4,151.6,79.3,152.6,78.4z"/>
		<path class="st15" d="M143.7,58c0.6-0.5,1.5-0.7,2.2-0.4c0.2,0.1,0.4,0.2,0.5,0.4c0.1,0.2,0.2,0.4,0.3,0.6
			c0.5,1.7-0.5,3.3-2.4,2.8C142.9,61,142.8,58.9,143.7,58z"/>
		<path class="st16" d="M127.4,68.3c0.6-0.5,1.5-0.7,2.2-0.4c0.2,0.1,0.4,0.2,0.5,0.4c0.1,0.2,0.2,0.4,0.3,0.6
			c0.5,1.7-0.5,3.3-2.4,2.8C126.6,71.3,126.4,69.2,127.4,68.3z"/>
		<path class="st7" d="M125.6,72c0.8-0.4,1.4-1.1,2.1-1.5c0.4-0.2,0.9-0.3,1.4-0.3c0.5,0,1.1,0.2,1.4,0.6s0.5,1,0.2,1.5
			c-0.1,0.2-0.4,0.4-0.6,0.6c-1.5,0.9-3.3,1-5,1.2c-0.3,0-0.6,0-0.9,0c-0.5-0.1-1.4-0.9-1-1.5C123.7,71.9,125.1,72.2,125.6,72z"/>
		<path class="st12" d="M142.2,60.4c0.6-0.2,1.2-0.3,1.8-0.3c0.4,0,0.9-0.1,1.3-0.1c0.3,0,0.5,0,0.8,0c0.3,0.1,0.5,0.3,0.7,0.6
			c0.1,0.1,0.3,0.3,0.3,0.5c0.1,0.5-0.3,0.9-0.7,1.2c-1.1,0.7-2.7,0.8-3.9,0.1c-0.4-0.2-1.3-0.2-1.5-0.7
			C141,61,141.8,60.6,142.2,60.4z"/>
		<path class="st12" d="M156,67.9c0.1,0.2,0.1,0.5,0.2,0.6c0.1,0.2,0.4,0.2,0.6,0.4c0.6,0.4,0.7,1.4,0.2,1.9
			c-0.5,0.4-1.2,0.5-1.8,0.4c-0.3-0.1-0.7-0.1-1-0.3c-0.4-0.3-0.6-0.7-0.9-1.1c-0.3-0.3-0.7-0.6-1.1-0.8c-0.5-0.4-1.1-1-0.6-1.6
			c0.4-0.5,1.8-0.5,2.5-0.5C154.8,66.9,155.7,67.1,156,67.9z"/>
		<path class="st7" d="M152.9,80.2c0.3,0.1,0.6,0.2,0.9,0.4c0.6,0.5,0.4,1.5,0.8,2.1c0.1,0.1,0.2,0.2,0.2,0.4c0.2,0.4-0.1,1-0.5,1.2
			s-1,0.2-1.4,0.1c-0.9-0.2-1.6-0.7-2.3-1.3c-0.9-0.7-1.8-1.8-1.1-3C150,78.9,151.9,79.9,152.9,80.2z"/>
		<path class="st12" d="M171.5,76.5c0.2,0,0.3,0.1,0.5,0.1c0.5,0.2,1,0.2,1.5,0.1c0.2,0,0.4-0.1,0.6,0c0.2,0.1,0.4,0.2,0.4,0.5
			c0,0.2-0.3,0.4-0.5,0.5c-0.7,0.3-1.4,0.6-2.2,0.6c-0.2,0-0.4,0-0.6-0.2c-0.1-0.1-0.2-0.3-0.3-0.5c-0.1-0.1-0.3-0.2-0.4-0.2
			C170.7,77,171.1,76.5,171.5,76.5z"/>
		<path class="st12" d="M180.7,68.7c0.1,0.1,0.2,0.2,0.3,0.3c0.3,0.4,0.7,0.6,1.1,1c0.5,0.6,0.5,1.6,0,2.2c-0.5,0.6-1.6,0.6-2.1,0.1
			c-0.2-0.2-0.4-0.5-0.5-0.8c-0.3-0.6-1.2-1.8-0.8-2.5C178.9,68.4,180.3,68.4,180.7,68.7z"/>
		<path class="st12" d="M189.2,79c0.4,0.1,0.8,0.4,1,0.8c0.1,0.1,0.1,0.3,0.2,0.4c0.2,0.3,0.7,0.2,1,0.3c0.4,0.2,0.7,0.6,0.7,1.1
			c0,0.2,0,0.4-0.1,0.6c-0.2,0.3-0.6,0.3-0.9,0.3c-1.4,0-3.4-0.4-4.3-1.5C185.8,79.8,188.3,78.8,189.2,79z"/>
		<path class="st7" d="M178,89.6c0.2-0.2,0.4-0.4,0.6-0.5c0.7-0.2,1.5,0.6,2.2,0.3c0.3-0.1,0.5-0.4,0.8-0.4c0.1,0,0.2,0,0.3,0.1
			c0.5,0.2,1.1,0.5,1.3,1.1c0.1,0.5-0.2,1.1-0.6,1.4c-0.4,0.3-1,0.5-1.5,0.6c-0.6,0.2-1.1,0.4-1.7,0.4c-0.3,0-0.5,0-0.8,0
			C177.5,92.3,177.4,90.5,178,89.6z"/>
		<path class="st7" d="M118.2,87.3c0.5,0,1.1,0,1.4,0.4c0.3,0.4,0.2,0.9,0.4,1.3c0.2,0.3,0.5,0.5,0.7,0.8c0.1,0.3,0,0.8-0.3,1
			s-0.7,0.3-1,0.4c-0.9,0.1-1.9-0.1-2.5-0.7c-0.6-0.6-1-1.9-0.7-2.7C116.4,86.9,117.4,87.3,118.2,87.3z"/>
	</g>
	<g>
		<path class="st6" d="M382.1,174.9c8.8,6.1,13,9.1,22.2,11.7c9.5,2.7,18.6,4.1,31.6,5.5c19.4,2.1,34.9,0.2,54.3-2.6
			c4.9-0.7,17.7-8,19.1-12.8c-2,17.3-6,38.5-14.5,54c-6.6,11.9-17.5,19.8-31,21.9c-8,1.2-16.2,0.8-24.3,1
			c-15.6,0.3-28.1-0.9-38.5-14.1c-7.1-9-12-19.6-15.1-30.6c-1.6-5.7-2.7-11.5-3.4-17.4C382,186.9,380.4,179.3,382.1,174.9z"/>
		<path class="st6" d="M387.9,191.5c0.5,0,1.1,0.2,1.6,0.3c-2.9-2.8-6.9-2.9-10.4-2.2c-5.8,1.1-10.3,5-12,11.9
			c-1.9,7.4-0.8,17.9,4.2,22.9c2.9,2.9,8.7,5,11.8,5.4c6.9,0.9,10.7-0.2,17.3-2.6c-1.8-3.2-3.2-8.4-5.4-10.8
			c-3.3,3.6-7.2,4.6-11.6,3.4c-3.9-1.1-7.3-3.9-8.5-8.7c-0.7-2.6-0.5-5.5,0.6-7.9c1.4-2.9,4.3-4.5,7.1-4.6c2.8-0.1,5.5,1.1,7.9,2.9
			c0.1,0.1-0.3-4.8-0.5-5.3C389.5,194.6,388.6,193,387.9,191.5z"/>
		<g>
			<path class="st17" d="M369.9,88.5c18.3,20.4,35.8,41.4,52.6,63.1c1.1,1.4,5,7.3,6.6,7.9s4.4-1.1,5.1-2.8c0.6-1.6-3.7-6.7-4.7-8
				c-18.5-22.8-37.1-45.5-55.9-68.2C367.9,73.7,365.9,84.1,369.9,88.5z"/>
			<path class="st5" d="M391.8,116.7c-7.2-9-14.4-18.1-21.6-27.1c-2.4-3-4.7-5.9-6.7-9.1c-0.7-1.2-1.4-2.4-1.5-3.7
				c-0.1-2.4,2.3-4.9,5.1-4.3c1,0.2,1.9,0.9,2.7,1.5c3,2.4,5.6,5.2,8,8.1c4.4,5.1,8.5,10.5,12.6,15.8c5,6.5,9.9,13,14.9,19.5
				c0.2,0.2,0.4,0.5,0.3,0.8c-0.1,0.2-0.3,0.4-0.5,0.6c-3.4,2.4-6.5,6.2-9.6,2.4C394.5,119.9,392.8,117.9,391.8,116.7z"/>
			<path class="st8" d="M376.5,89.6c-1.1-0.6-0.8-1.9-0.1-2.4c0.2-0.2,0.6-0.3,0.9-0.2c0.2,0.1,0.4,0.2,0.6,0.3
				c0.2,0.2,0.5,0.3,0.6,0.6c0.2,0.5-0.2,1.2-0.5,1.5C377.7,89.7,377.1,89.9,376.5,89.6z"/>
			<path class="st8" d="M375.5,96.2c-1,0.9-2.8-0.4-2.2-1.6c0.2-0.4,0.6-0.6,1-0.7c0.4-0.1,0.9-0.1,1.2,0.1c0.3,0.2,0.4,0.5,0.5,0.8
				C376.1,95.3,375.9,95.9,375.5,96.2z"/>
			<path class="st8" d="M369.5,87.1c0.2,0.6-0.3,1.5-0.9,1.6c-0.2,0.1-0.3,0-0.5,0c-0.2,0-0.3-0.1-0.5-0.1c-0.5-0.2-0.9-0.8-0.8-1.4
				c0.1-0.9,1-1.4,1.8-1c0.3,0.2,0.5,0.4,0.7,0.6C369.4,87,369.5,87,369.5,87.1z"/>
			<path class="st8" d="M372.3,77.9c0.2,0.6-0.3,1.5-0.9,1.6c-0.2,0.1-0.3,0-0.5,0c-0.2,0-0.3-0.1-0.5-0.1c-0.5-0.2-0.9-0.8-0.8-1.4
				c0.1-0.9,1-1.4,1.8-1c0.3,0.2,0.5,0.4,0.7,0.6C372.2,77.7,372.3,77.8,372.3,77.9z"/>
			<path class="st10" d="M380.7,99.8c-0.9,0.5-1.9-0.3-1.9-1.3c0-0.5,0.3-1.2,0.8-1.4c0.1,0,0.1,0,0.2-0.1c0.5-0.1,1.1,0.2,1.4,0.6
				C381.6,98.4,381.4,99.4,380.7,99.8z"/>
			<path class="st10" d="M377.6,83.9c-0.9,0.5-1.9-0.3-1.9-1.3c0-0.5,0.3-1.2,0.8-1.4c0.1,0,0.1,0,0.2-0.1c0.5-0.1,1.1,0.2,1.4,0.6
				C378.5,82.5,378.4,83.5,377.6,83.9z"/>
			<path class="st10" d="M387.7,101.4c0.7,0.8,0.3,2.1-0.7,2.3c-0.5,0.1-1.3,0-1.6-0.5c-0.1-0.1-0.1-0.1-0.1-0.2
				c-0.2-0.5-0.2-1.2,0.2-1.6C386,100.8,387.1,100.8,387.7,101.4z"/>
			<path class="st10" d="M400.6,108.8c0.7,0.8,0.3,2.1-0.7,2.3c-0.5,0.1-1.3,0-1.6-0.5c-0.1-0.1-0.1-0.1-0.1-0.2
				c-0.2-0.5-0.2-1.2,0.2-1.6C399,108.3,400,108.2,400.6,108.8z"/>
			<path class="st10" d="M372.2,83.8c-0.5,0.1-1,0.6-1.1,1.1c0,0.1,0,0.3,0,0.4c0,0.1,0.1,0.3,0.2,0.4c0.7,1,2.1,1,2.6-0.3
				C374.2,84.5,373.1,83.6,372.2,83.8z"/>
			<path class="st10" d="M366.6,80.5c-0.5,0.1-1,0.6-1.1,1.1c0,0.1,0,0.3,0,0.4c0,0.1,0.1,0.3,0.2,0.4c0.7,1,2.1,1,2.6-0.3
				C368.6,81.3,367.5,80.3,366.6,80.5z"/>
			<path class="st8" d="M385.5,106.6c-0.6,0.1-1.1,0.6-1.2,1.2c0,0.2,0,0.3,0,0.5c0,0.2,0.1,0.3,0.2,0.4c0.8,1.1,2.3,1.1,2.8-0.3
				C387.8,107.4,386.5,106.4,385.5,106.6z"/>
			<path class="st8" d="M386.9,91.6c-0.5,0.1-1,0.6-1.1,1.1c0,0.1,0,0.3,0,0.4c0,0.1,0.1,0.3,0.2,0.4c0.7,1,2.1,1,2.6-0.3
				C388.9,92.4,387.8,91.4,386.9,91.6z"/>
			<path class="st13" d="M374,90.3c-0.2-0.5-0.8-0.8-1.4-0.8c-0.1,0-0.3,0-0.4,0.1c-0.1,0.1-0.2,0.2-0.3,0.3
				c-0.8,0.9-0.5,2.2,0.9,2.4C373.8,92.4,374.4,91.1,374,90.3z"/>
			<path class="st13" d="M378.8,92.6c-0.2-0.5-0.8-0.8-1.4-0.8c-0.1,0-0.3,0-0.4,0.1c-0.1,0.1-0.2,0.2-0.3,0.3
				c-0.8,0.9-0.5,2.2,0.9,2.4C378.6,94.8,379.2,93.4,378.8,92.6z"/>
			<path class="st13" d="M383.2,86.4c-0.2-0.5-0.8-0.8-1.4-0.8c-0.1,0-0.3,0-0.4,0.1c-0.1,0.1-0.2,0.2-0.3,0.3
				c-0.8,0.9-0.5,2.2,0.9,2.4C383,88.6,383.6,87.3,383.2,86.4z"/>
			<path class="st13" d="M386.9,96.8c-0.2-0.5-0.8-0.8-1.4-0.8c-0.1,0-0.3,0-0.4,0.1c-0.1,0.1-0.2,0.2-0.3,0.3
				c-0.8,0.9-0.5,2.2,0.9,2.4C386.7,98.9,387.3,97.6,386.9,96.8z"/>
			<path class="st13" d="M395.4,103.5c-0.2-0.5-0.8-0.8-1.4-0.8c-0.1,0-0.3,0-0.4,0.1c-0.1,0.1-0.2,0.2-0.3,0.3
				c-0.8,0.9-0.5,2.2,0.9,2.4C395.2,105.6,395.8,104.3,395.4,103.5z"/>
			<path class="st13" d="M383.1,103c-0.2-0.5-0.8-0.8-1.4-0.8c-0.1,0-0.3,0-0.4,0.1c-0.1,0.1-0.2,0.2-0.3,0.3
				c-0.8,0.9-0.5,2.2,0.9,2.4C382.8,105.1,383.5,103.8,383.1,103z"/>
			<path class="st13" d="M391.1,105.6c-0.2-0.5-0.8-0.8-1.4-0.8c-0.1,0-0.3,0-0.4,0.1c-0.1,0.1-0.2,0.2-0.3,0.3
				c-0.8,0.9-0.5,2.2,0.9,2.4C390.8,107.8,391.5,106.4,391.1,105.6z"/>
			<path class="st10" d="M382.1,91.6c-0.5,0.1-1,0.6-1.1,1.1c0,0.1,0,0.3,0,0.4c0,0.1,0.1,0.3,0.2,0.4c0.7,1,2.1,1,2.6-0.3
				C384.1,92.3,383,91.4,382.1,91.6z"/>
			<path class="st10" d="M392,112.9c-0.5,0.1-1,0.6-1.1,1.1c0,0.1,0,0.3,0,0.4c0,0.1,0.1,0.3,0.2,0.4c0.7,1,2.1,1,2.6-0.3
				C394,113.6,392.8,112.7,392,112.9z"/>
			<path class="st8" d="M392.7,108.5c-0.5,0.1-1,0.6-1.1,1.1c0,0.1,0,0.3,0,0.4c0,0.1,0.1,0.3,0.2,0.4c0.7,1,2.1,1,2.6-0.3
				C394.7,109.3,393.6,108.4,392.7,108.5z"/>
			<path class="st8" d="M391,97.4c-0.5,0.1-1,0.6-1.1,1.1c0,0.1,0,0.3,0,0.4c0,0.1,0.1,0.3,0.2,0.4c0.7,1,2.1,1,2.6-0.3
				C393,98.2,391.9,97.2,391,97.4z"/>
		</g>
		<g>
			<path class="st13" d="M565.1,238.2c0,1.3-2.1,11.9-9.7,16.7c-7,4.5-18.3,10.4-46.4,4.4c-28.1-6.1-38.2-19.4-40.6-25
				s-2.7-16.8,2.4-22.7c5.1-5.9,55.5-6,76.4,6.8C568.1,231.1,565.1,238.2,565.1,238.2z"/>
			<path class="st18" d="M560,217.5c-5.2-5-11.9-8.2-17.9-12.4c-3.4-2.4-6.7-5.2-10.5-6.9c-7.8-3.5-16.9-2.3-25.6-2.7
				c-6.2-0.3-12.6-1.3-18.7,0c-6.3,1.4-11.8,5.4-14.9,10.7c-0.9,1.7-1.7,3.5-1.7,5.4c0,1.9,0.9,3.8,2.5,4.9c0.6,0.4,1.3,0.6,1.7,1.1
				c0.6,0.6,0.7,1.5,0.7,2.3c0,1.6-0.4,3.1-0.4,4.7c0,1.6,0.5,3.2,1.8,4.2c2.1,1.5,5.2,0.5,7.8,0.9c4,0.6,6.6,4.2,9.5,6.9
				c4.3,4,10.2,6.5,16.2,6.8c2.4,0.1,4.9-0.1,7.3,0.1c4.2,0.3,8.2,1.9,12.4,2.9c4.1,1,8.7,1.3,12.4-0.8c3.8-2.1,6.1-6.5,10.4-7.2
				c2.4-0.4,4.9,0.5,7.4,0.7c9.7,0.9,6.4-11.9,3.5-16.5C562.9,220.6,561.6,219,560,217.5z"/>
			<path class="st0" d="M528.2,229.8c-1.5,0.2-3,0.2-4.6,0.2c-3.5,0-7.1,0.1-10.4-1c-1.5-0.5-2.9-1.1-4.3-1.9
				c-3.3-1.8-6.4-4.1-8.9-6.8c-0.4-0.5-0.8-1.1-0.5-1.6c0.2-0.2,0.4-0.4,0.7-0.5c2.6-1,5.6,0.5,8.3-0.1c2.3-0.5,4.2-2.5,6.6-2.7
				c0.8-0.1,1.6,0.1,2.4,0.3c1.8,0.5,3.4,1.4,4.8,2.6c1.5,1.4,2.8,3.2,4.8,3.8c2.1,0.7,4.5,0,6.7,0.5c2,0.5,5,2.9,2.4,4.5
				C534.1,228.6,530.8,229.4,528.2,229.8z"/>
			<path class="st19" d="M506.3,223c0.4-0.2,1-0.3,1.5-0.4c6.8-0.6,13.8,0.7,19.8,3.7c1.3,0.6,2.7,1.5,3.2,2.8c0,0-17,4.1-25.4-4.5
				C504.9,224.2,505.7,223.4,506.3,223z"/>
			<path class="st8" d="M560.6,230c0-0.1,0-0.2,0-0.3c-0.1-0.1-0.2-0.1-0.3-0.2c-1.7-0.6-4.3-2.3-6.1-2.6c-0.4-0.1,0.2,0.8-0.2,0.9
				c-0.4,0.1-0.8,0.3-0.9,0.7c-0.1,0.4,0,0.8,0.3,1.1c0.3,0.3,0.7,0.5,1.1,0.6c1.7,0.6,3.6,1,5.4,1.3
				C560.6,231.6,560.5,230.4,560.6,230z"/>
			<path class="st8" d="M530.5,210.4c0-0.1-0.1-0.1-0.1-0.1c0,0-0.1,0-0.1,0.1c-0.3,0.2-0.7,0.5-1,0.7c-0.1,0.1-0.2,0.2-0.2,0.4
				c0,0.1,0,0.1,0.1,0.2c0.3,0.5,0.3,1.3,0.5,1.9c0.2,0.7,0.5,1.3,0.8,1.9c0.1,0.2,0.2,0.4,0.4,0.5c0.2,0.1,0.3,0,0.5,0
				c0.3-0.1,0.6-0.3,0.9-0.5c0.7-0.5,0-1.8-0.3-2.4C531.3,211.7,531.2,211.5,530.5,210.4z"/>
			<path class="st8" d="M494,203.7c0-0.1-0.1-0.3-0.3-0.4c-0.1,0-0.2,0-0.4,0c-1.9,0.3-3.9,0.9-5.5,1.9c-0.4,0.2-0.8,0.5-1.1,0.9
				s-0.3,0.9-0.1,1.3c0.4,0.7,1.4,0.6,2.2,0.4c1.3-0.3,2.7-0.8,3.9-1.4C494.4,205.6,494.5,205.3,494,203.7z"/>
			<path class="st20" d="M487.2,217.6c0.4,0.1,0.8,0.3,1,0.6c0.3,0.3,0.4,0.7,0.2,1.1c-0.3,0.5-1.2,0.4-1.8,0.2
				c-1.9-0.4-4,0-5.9-0.4c-0.2,0-0.5-0.1-0.6-0.3c-0.1-0.1-0.1-0.3,0-0.4C480.7,215.1,485.3,216.9,487.2,217.6z"/>
			<path class="st12" d="M500.9,229.9c0.3,0.2,0.5,0.4,0.7,0.6c0.3,0.6-0.1,1.2-0.5,1.7c-1.3-0.1-2.6-0.3-3.8-0.6
				c-1.6-0.4-3.2-0.9-4.7-1.5c-0.1-0.1-0.3-0.1-0.3-0.2c-0.1-0.1,0-0.3,0-0.4C493.3,224.7,498.6,228.4,500.9,229.9z"/>
			<path class="st20" d="M528.3,237.3c-1.1,0.6-2.2,1.2-3.4,1.4c-2.7,0.7-4.2,0.2-5.3,0.1c-0.1,0-0.3,0-0.4-0.1
				c-0.1-0.1-0.2-0.3-0.2-0.4c-0.1-0.4-0.2-0.8,0.1-1.1c0.2-0.2,0.5-0.2,0.7-0.3c1.8-0.3,3.6-0.6,5.4-0.8c0.6-0.1,1.7-0.4,2.3-0.1
				C528,236.1,528.8,237,528.3,237.3z"/>
			<path class="st12" d="M527.3,200.4c-0.1,0-0.2,0-0.3,0c-0.1,0.1-0.2,0.2-0.3,0.3c-0.2,0.5-0.4,1.1,0,1.6c0.2,0.3,0.6,0.4,1,0.5
				c1.6,0.5,6.1,2.8,7.1,0.8c0.9-1.7-1-1.8-2.4-2.2C530.7,201,529,200.7,527.3,200.4z"/>
			<path class="st21" d="M513.4,205.3c0-0.6-0.2-1.3-0.7-1.9c-3.2-0.5-3.8-0.4-5.2-0.4c-0.3,0-0.6,0-0.8,0.1
				c-0.3,0.1-0.4,0.3-0.4,0.5c-0.2,0.5-0.4,1.1,0.3,1.5c0.5,0.3,1.2,0.5,1.8,0.6c2,0.3,3.9,0.1,5.4-0.4"/>
			<path class="st21" d="M496.6,214.3c-0.1-0.4-0.2-0.8-0.3-1.2c-1.1-0.2-2.3-0.1-3.3,0.2c-0.1,0-0.3,0.1-0.4,0.2
				c-0.1,0.1-0.1,0.3-0.2,0.4c0,0.3-0.1,0.6-0.1,0.9c0,0.1,0,0.2,0,0.3c0.1,0.1,0.3,0.2,0.4,0.2c1.2,0.1,2.5-0.1,3.7-0.4"/>
			<path class="st12" d="M541.5,235.2c0.4,0.3,0.7,0.6,0.9,1.1c0.2,0.4,0.1,1-0.3,1.3c-0.2,0.1-0.4,0.1-0.5,0.1
				c-0.7,0-1.3-0.4-1.8-0.8s-1-0.9-1.5-1.3c-0.4-0.2-0.8-0.4-1.1-0.7c-0.3-0.3-0.6-0.7-0.6-1.1c0-0.9,1.3-1.6,2-1.2
				C539.6,233.2,540.6,234.4,541.5,235.2z"/>
			<path class="st21" d="M551,218.8c0.3,0.3,0.6,0.6,0.8,0.9c0.2,0.4,0.2,0.8-0.1,1.1c-0.2,0.2-0.6,0.3-0.9,0.3s-0.6-0.2-0.9-0.4
				c-1-0.6-1.8-1.5-2.5-2.4c-0.6-0.8,0.2-1.8,1.1-1.5C549.4,217,550.3,218.1,551,218.8z"/>
			<path class="st8" d="M509.3,237.4c0.3,0.5,0.5,1.1,0.2,1.6c-0.2,0.4-0.7,0.5-1.1,0.7c-0.3,0.1-0.7,0.2-1,0
				c-0.2-0.2-0.3-0.5-0.3-0.7c-0.3-1.3-1.6-2.3-1.5-3.7c0-1.1,1.1-1.2,1.7-0.5C508,235.5,508.7,236.4,509.3,237.4z"/>
		</g>
		<path class="st10" d="M409.2,194.4c0.8-0.6,1.6-1,2.5-1.3c10.8-3.9,22.9,2.1,33,5.2c8,2.5,17.6,3.6,24.4-0.7
			c2.8-1.8,4.9-4.4,7.9-5.8c4.5-2.2,10-1.4,15.1-1.7c4.8-0.3,13.6-1.4,16-5.7c1-1.7,1.1-3.7,1.1-5.7c0-1,0.1-2.1-0.2-3.1
			c-1.4-5.8-12.3-6.5-6.9-11.9c5.2-5.2,0.5-12.7-6-14.3c-2.7-0.6-6.2-0.8-7.1-3c-0.5-1.1,0-2.4,0.4-3.5c1.3-4.3,0.8-9.4-2.7-12.7
			c-3.6-3.3-10.6-3.4-13.2,0.4c-0.8-7.3-3.8-15.2-10.9-19.2c-3.5-2-7.6-2.8-11.4-4.3s-7.3-4.4-7.6-8c-2.4,6.8-15.7,6.8-16.8,13.8
			c-0.4,2.5,1.1,5.3-0.5,7.4c-2,2.8-6.8,1.6-10.6,1.6c-4.4,0.1-8.7,2.6-10.3,6.3c-1.7,3.7-0.4,7.6,2.2,10.8
			c-6.5,1.7-15.9,4.7-13.6,11.3c3,8.9-5,8-8.7,12.2c-6.5,7.4-7.5,20,1.6,25.7c2.4,1.5,4.8,3.1,7.3,4.6c1.6,1,3.2,2,4.1,3.6
			c0.9,1.5,1.1,3.4,1.9,4.9c0.8,1.6,2.8,2.8,4.3,1.9c1.5-0.9,1.4-3.1,1.8-4.8C406.7,196.8,407.8,195.4,409.2,194.4z"/>
		<g>
			<path class="st11" d="M430.4,150.1"/>
		</g>
		<g>
			<path class="st13" d="M421.6,150.1c-0.3-0.1-0.6-0.3-0.8-0.5c-3-2.8-4.1-15.2-5.1-19.4c-2.1-9.2-3.7-18.5-4.9-27.8
				c-1-7.4-4.4-18.5,6.9-16.9c3.2,0.4,6,2.8,6.7,6.2c4,19.3,8.2,38,12.6,56.8C433.5,148.7,425,151.5,421.6,150.1z"/>
			<g>
				<path class="st10" d="M409.4,91.9c0-0.3,0-0.7,0.1-1.2c0.3,0.1,0.6,0.4,0.9,0.6c0.3,0.3,0.7,0.5,1.1,0.8c0.7,0.5,1.4,1,2.2,1.5
					c1.5,0.9,3,1.8,4.6,2.5c1.3,0.6,2.5,1.1,3.9,1.6c0.7,0.2,1.3,0.5,2,0.7c0.3,0.1,0.7,0.2,1,0.3c0.3,0.1,0.9,0.2,0.9,0.2
					s0.2,1.1,0.4,1.6c0.2,0.8,0.2,0.7,0.3,1.3c-0.8,0-1.5-0.2-2.2-0.4c-5.4-1.3-10.3-3.9-14.7-7.5c-0.1-0.1-0.1-0.1-0.2-0.2
					c-0.1-0.1-0.1-0.4-0.1-0.5C409.4,92.7,409.4,92.4,409.4,91.9z"/>
				<path class="st10" d="M414.2,123c6.2,3.1,11.2,4.8,18.2,4.6c0.2,0.7,0.5,1.9,0.6,2.5c-3,0.6-6.2,0-9.1-0.6
					c-1.6-0.3-3.1-0.8-4.7-1.4c-0.7-0.3-1.5-0.6-2.2-0.9c-0.3-0.1-2-0.8-2.1-1.1C414.7,125.1,414.5,124.1,414.2,123z"/>
				<path class="st10" d="M412,111c3,1.6,5.8,3.5,9,4.7c2.9,1.1,6,1.8,9.1,2.2c0,0,0,0.1,0,0.1c0.2,0.7,0.3,1.5,0.5,2.2
					c-1.7,0.5-4.1-0.2-5.7-0.6c-1.8-0.5-3.6-1-5.4-1.6c-1.8-0.6-3.5-1.4-5.1-2.3c-0.5-0.3-1-0.6-1.5-0.9c-0.1,0-0.1-0.1-0.2-0.2
					c0-0.1-0.1-0.1-0.1-0.2c0-0.1,0-0.3-0.1-0.4c-0.1-0.5-0.2-1-0.3-1.6c0-0.3-0.1-0.5-0.1-0.8C412.1,111.5,412.1,111.4,412,111z"/>
				<path class="st10" d="M411,104.2C411,104.2,411,104.2,411,104.2c-0.3-1.4-0.3-1.9-0.5-3.4c0.5,0.4,1.1,0.8,1.6,1.2
					c3.1,2.1,3.4,2.4,6.8,3.7c1.3,0.5,4.6,1.5,5.9,1.9c1,0.3,3.1,0.8,3.1,0.8s0.4,1.5,0.4,1.7c0.2,0.8,0.2,0.7,0.3,1.3
					c0-0.1-5-1.1-5.5-1.3c-1.8-0.5-3.6-1.2-5.4-2c-2.4-1-4.6-2.3-6.8-3.7C411,104.3,411,104.3,411,104.2z"/>
			</g>
		</g>
		<g>
			<g>
				<path class="st3" d="M432.8,215c0.5-1.6,1.7-3.3,3.6-3.3c1.8,0,3.1,1.8,3.6,3.4c0.1,0.4,0.8,0.3,0.7-0.2
					c-0.6-1.9-2.1-3.9-4.3-3.9c-2.2,0-3.7,1.9-4.2,3.8C432,215.3,432.6,215.5,432.8,215L432.8,215z"/>
			</g>
		</g>
		<g>
			<g>
				<path class="st3" d="M452.8,215.2c0.5-1.6,1.8-3.3,3.7-3.3c1.8,0,3.2,1.6,3.8,3.2c0.2,0.4,0.9,0.2,0.7-0.2
					c-0.7-1.9-2.4-3.7-4.5-3.7c-2.2,0-3.7,1.9-4.4,3.8C452,215.5,452.7,215.7,452.8,215.2L452.8,215.2z"/>
			</g>
		</g>
		<g>
			<g>
				<path class="st3" d="M443.5,216.9c-0.5,1,0.2,2.1,1.1,2.4c1.1,0.4,2.2-0.1,2.5-1.2c-0.2,0-0.5-0.1-0.7-0.1
					c0.1,1.1,1.3,1.6,2.3,1.2c1-0.4,1.5-1.6,1.2-2.7c-0.1-0.4-0.8-0.3-0.7,0.2c0.2,0.6,0,1.4-0.6,1.7c-0.5,0.2-1.4,0.2-1.4-0.5
					c0-0.4-0.6-0.5-0.7-0.1c-0.2,0.7-0.8,1-1.5,0.8c-0.5-0.2-1.1-0.8-0.8-1.4C444.3,216.8,443.7,216.5,443.5,216.9L443.5,216.9z"/>
			</g>
		</g>
		
			<ellipse transform="matrix(0.9993 -3.687781e-02 3.687781e-02 0.9993 -7.7941 16.0759)" class="st19" cx="431.9" cy="219.3" rx="2.4" ry="2"/>
		
			<ellipse transform="matrix(0.9993 -3.687781e-02 3.687781e-02 0.9993 -7.7755 17.1421)" class="st19" cx="460.8" cy="219.3" rx="2.4" ry="2"/>
		<g>
			<path class="st20" d="M473.9,134c0.1-0.7,0.8-1.2,1.5-1.5c0.7-0.3,1.5-0.4,2.3-0.2c1.6,0.3,3,1.8,3.1,3.6
				c0.1,1.8-0.9,3.3-1.8,4.5c-1,1.1-2.2,2.1-3.4,3c-2.4,1.7-5.2,2.8-7.9,3.7c-2.7,0.9-5.4,1.6-8.1,2.4c-2.7,0.7-5.3,1.5-7.7,2.5
				c-1.2,0.5-2.4,1.1-3.5,1.8c-1.1,0.7-2.2,1.5-3.4,2.3c-1.1,0.8-2.3,1.7-3.6,2.4c-1.3,0.7-2.7,1.3-4.1,1.7
				c-1.4,0.3-2.9,0.5-4.4,0.3c-0.7-0.1-1.4-0.3-2.1-0.5c-0.7-0.3-1.3-0.6-1.9-1.1c2.6,1.1,5.4,0.6,7.9-0.4c2.5-1,4.4-2.7,6.6-4.5
				c1-0.9,2.1-1.9,3.4-2.7c1.2-0.8,2.5-1.6,3.8-2.2c2.7-1.3,5.4-2.1,8.1-2.9c2.7-0.7,5.4-1.4,8-2.1c2.6-0.7,5.2-1.6,7.4-2.9
				c0.5-0.3,1.1-0.6,1.6-1c0.5-0.4,1.1-0.8,1.5-1.2c0.9-0.8,1.7-1.8,1.8-2.8c0.1-1-0.5-2.2-1.6-2.7c-0.6-0.2-1.2-0.3-1.9-0.2
				C474.9,133.1,474.2,133.4,473.9,134z"/>
		</g>
		<g>
			<path class="st20" d="M420.3,165.8c-1.1-1.2-2.5-1.6-4-1.7c-1.5-0.2-2.9,0-4.4,0.2c-1.5,0.2-3,0.5-4.6,0.7
				c-1.6,0.2-3.3,0.3-5,0.1c-1.7-0.2-3.5-0.6-5.1-1.4c-0.8-0.4-1.7-0.9-2.4-1.8c-0.8-0.9-1.1-1.9-1.3-2.8c-0.2-1-0.1-2.1,0.4-3.1
				c0.2-0.5,0.7-1,1.1-1.3c0.5-0.3,0.9-0.5,1.4-0.6c0.9-0.2,1.8-0.2,2.7,0c0.4,0.2,0.9,0.4,1.2,0.7c0.3,0.4,0.3,0.9,0.3,1.3
				c-0.1-0.4-0.3-0.7-0.6-0.9c-0.3-0.2-0.6-0.2-1-0.2c-0.7,0.1-1.4,0.3-1.9,0.6c-0.3,0.2-0.5,0.4-0.7,0.5c-0.2,0.2-0.2,0.3-0.2,0.6
				c-0.1,0.5,0,1,0.2,1.6c0.2,0.6,0.5,1.1,0.8,1.3c0.3,0.3,0.9,0.6,1.5,0.8c1.2,0.5,2.6,0.8,4,0.9c1.4,0.1,2.9,0.1,4.4,0.1
				c1.5-0.1,3.1-0.2,4.8-0.2c1.6,0,3.4,0.3,5,0.9c0.8,0.3,1.6,0.7,2.2,1.3C419.6,164.2,420.1,165,420.3,165.8z"/>
		</g>
		<g>
			<path class="st20" d="M443.8,98.8c0,1.8,1.2,3,2.4,4c1.2,1,2.7,1.9,4.1,3c0.7,0.6,1.4,1.2,2.1,1.9c0.7,0.7,1.2,1.7,1.6,2.7
				c0.4,1,0.5,2.1,0.5,3.1c0,0.5-0.1,1-0.1,1.5c-0.1,0.5-0.3,1-0.4,1.6c-0.2,0.5-0.5,1-0.7,1.5c-0.3,0.4-0.7,0.9-1,1.3
				c-0.4,0.4-0.8,0.7-1.2,1c-0.4,0.3-0.9,0.5-1.3,0.8c-1.8,0.9-3.6,1.3-5.3,1.5c-3.5,0.5-6.9,0.4-10.4,0.6c3.1-1.6,6.6-2.3,9.8-3.3
				c1.6-0.5,3.1-1,4.4-1.8c1.3-0.7,2.1-1.7,2.6-2.8c0.1-0.3,0.2-0.6,0.3-0.9l0.1-1c0.1-0.7,0-1.3-0.2-2c-0.3-1.2-1.2-2.4-2.4-3.6
				c-1.1-1.2-2.4-2.4-3.5-3.9c-0.5-0.7-1-1.6-1.3-2.5C443.4,100.6,443.4,99.6,443.8,98.8z"/>
		</g>
		<g>
			<path class="st19" d="M446.6,130.5c0,0-11.8-3.8-21.1,4.8c-9.3,8.6-8.3,18.3-5.3,23.6c3,5.3,10,6.7,17.6,6.1s14.9-3.1,18.8-6.3
				s5.5-6.4,5.3-12C461.7,141.2,454.5,132.8,446.6,130.5z"/>
			<path class="st19" d="M431.2,131.8c0,0-8.4-2.4-17.8-1.4c0,0-2,8.6,4.8,18.8C418.2,149.2,418.6,138.1,431.2,131.8z"/>
			<path class="st19" d="M442.7,129.8c0,0,7.1-5.3,16.3-7.4c0,0,4.1,6.9,1.1,18.8C460.1,141.3,454.2,130.8,442.7,129.8z"/>
			<ellipse transform="matrix(0.986 -0.167 0.167 0.986 -19.2021 77.7747)" class="st6" cx="452.8" cy="153.1" rx="1.9" ry="1.6"/>
			<ellipse transform="matrix(0.986 -0.167 0.167 0.986 -20.2314 73.6463)" class="st6" cx="427.8" cy="157.1" rx="1.9" ry="1.6"/>
			<g>
				<g>
					
						<ellipse transform="matrix(1.417492e-02 -0.9999 0.9999 1.417492e-02 294.7753 597.2791)" class="st22" cx="450.3" cy="149.1" rx="2.4" ry="2.4"/>
					
						<ellipse transform="matrix(1.417492e-02 -0.9999 0.9999 1.417492e-02 294.9294 596.02)" class="st19" cx="449.7" cy="148.4" rx="1" ry="1"/>
					
						<ellipse transform="matrix(1.417491e-02 -0.9999 0.9999 1.417491e-02 295.5589 599.4545)" class="st19" cx="451.8" cy="149.8" rx="0.4" ry="0.4"/>
				</g>
				<g>
					
						<ellipse transform="matrix(1.417492e-02 -0.9999 0.9999 1.417492e-02 270.6817 579.8507)" class="st22" cx="429.4" cy="152.7" rx="2.4" ry="2.4"/>
					
						<ellipse transform="matrix(1.417492e-02 -0.9999 0.9999 1.417492e-02 271.6914 581.8696)" class="st19" cx="430.9" cy="153.1" rx="0.4" ry="0.4"/>
					
						<ellipse transform="matrix(1.417492e-02 -0.9999 0.9999 1.417492e-02 270.7921 578.5601)" class="st19" cx="428.8" cy="152" rx="1" ry="1"/>
				</g>
			</g>
			<path class="st23" d="M444,153.6c0.2,0.7-0.3,1.4-0.9,1.7c-1,0.5-2.3,0-2.7-1c0.1,0.7-0.5,1.4-1.2,1.6c-0.5,0.2-1.1,0.3-1.7,0.1
				c-0.5-0.2-1-0.7-1-1.2"/>
			<path class="st6" d="M420.9,141.2c0.1-0.2,0.2-0.3,0.2-0.5c0-0.2-0.1-0.4-0.1-0.6c-1.5-3.7-4.3-7.6-7.6-9.8
				c-0.1,0.9-0.2,2.4-0.2,2.7c0,1.2,0.1,2.7,0.2,3.9c0.4,3.4,1.5,6.5,3.1,9.5c0.2,0.4,1,1.8,1.5,2.6c0.4,0.7,0.7-1.9,0.8-2.4
				C419.4,144.6,419.9,143,420.9,141.2z"/>
			<path class="st6" d="M455.3,135.4c-0.1-0.1-0.3-0.3-0.4-0.4c-0.1-0.2-0.1-0.4-0.1-0.6c0.2-4,1.6-8.7,4.1-11.9
				c0.4,0.7,0.9,2.1,1.3,3.3c0.3,0.8,0.5,2,0.6,2.8c0.3,2.4,0.2,3.2,0.3,5c0.1,1.8-0.8,8.1-1.1,7.6
				C459,139.6,456.9,136.7,455.3,135.4z"/>
			<path class="st24" d="M424.3,155.3c-1.3,0.2-2.6,0.3-4,0.5"/>
			<path class="st24" d="M424.7,157.5c-1.1,0.4-2.2,0.8-3.4,1.3"/>
			<path class="st24" d="M460.3,150.6c0,0.1-0.1,0.1-0.2,0.1c-1.2,0-2.3,0-3.5,0"/>
			<path class="st24" d="M459.1,154.3c-0.1,0-0.3-0.1-0.4-0.1c-0.3-0.1-0.7-0.2-1-0.2c-0.6-0.1-1.3-0.2-1.9-0.6"/>
			<path class="st11" d="M442.7,129.8c0,0,7.1-5.3,16.3-7.4c0,0,4.1,6.9,1.1,18.8C460.1,141.3,454.2,130.8,442.7,129.8z"/>
			<path class="st11" d="M431.2,131.5c0,0-8.4-2.4-17.8-1.4c0,0-2,8.6,4.8,18.8C418.2,148.9,418.6,137.8,431.2,131.5z"/>
			<path class="st11" d="M451.1,137.1c0.1,0,0.3,0,0.4,0"/>
		</g>
		<path class="st25" d="M451.4,157.4c-2.2,0.2-4.2,0.9-6.4,1.3c-3.1,0.6-6.3,0.5-9.4-0.2c-1.3-0.3-2.6-0.7-3.9-0.5
			c-1.5,0.3-2.7,1.4-3.8,2.3c-2.5,2-5.8,3.3-9.2,3.8c-0.6,0.1-1.3,0.4-1.1,0.8c0.1,0.1,0.1,0.2,0.2,0.2c5.5,4.2,13,6,20.4,5.9
			s14.5-1.9,21.2-4.3c4.3-1.5,7.4-3.3,2.7-6.3C459.2,158.5,455.3,157,451.4,157.4z"/>
		<g>
			<path class="st20" d="M489.8,149.3c1.2,0.9,2.4,1.9,3.2,3.5c0.4,0.8,0.5,1.9,0.2,2.8c-0.2,0.9-0.8,1.8-1.4,2.4
				c-1.3,1.3-2.8,2.1-4.4,2.6c-1.6,0.5-3.3,0.7-4.8,0.7c-1.6,0-3.1-0.2-4.5-0.3l-2.1-0.3l-0.5-0.1c-0.1,0-0.2,0-0.2,0
				c0,0-0.1,0-0.2,0c-0.3,0-0.7,0-1,0.1c-1.4,0.1-2.9,0.3-4.3,0.5c-0.7,0.1-1.4,0.2-2.1,0.4c-0.6,0.2-1.4,0.5-0.6,1.1
				c-0.2-0.1-0.4-0.1-0.5-0.3c-0.2-0.1-0.3-0.5-0.1-0.7c0.2-0.5,0.5-0.7,0.9-1c0.6-0.5,1.3-0.9,2-1.2c1.4-0.7,2.8-1.2,4.3-1.6
				c0.4-0.1,0.7-0.2,1.2-0.3c0.1,0,0.2,0,0.4-0.1l0.4,0l0.6,0c0.8,0,1.5,0,2.3,0c1.5,0.1,2.9,0.2,4.3,0.1c1.4,0,2.7-0.1,3.9-0.4
				c1.3-0.3,2.5-0.7,3.4-1.4c0.9-0.7,1.6-1.5,1.4-2.7C491.2,152,490.4,150.6,489.8,149.3z"/>
		</g>
		<g>
			<path class="st11" d="M459.5,123.7"/>
		</g>
		<g>
			<path class="st11" d="M464.3,116.2"/>
		</g>
		<circle class="st10" cx="452.5" cy="162.4" r="4.4"/>
		<circle class="st10" cx="404.7" cy="156.6" r="4.1"/>
		<circle class="st10" cx="483.7" cy="145.7" r="3.9"/>
		<circle class="st10" cx="407.2" cy="181.2" r="3.7"/>
		<circle class="st10" cx="474.7" cy="178.3" r="4.4"/>
		<path class="st26" d="M475.3,180.5c-1,0.5-1.8,1.2-3,1.4c-0.7,0.1-1.5,0.1-1.9,0.6c-0.3,0.4,0,1,0.5,1.2c0.5,0.3,1.1,0.3,1.6,0.3
			c2.9,0.1,5.9,0.2,8.4-0.9c2.2-1,1.1-2.2-0.7-2.8C478.8,179.7,476.8,179.7,475.3,180.5z"/>
		<g>
			<path class="st20" d="M395.1,175c2.6,0.5,5.2,0.7,7.7,0.5c2.6-0.2,5-0.9,7.2-2.1c2.3-1.1,4.3-2.7,6.6-4.1
				c2.3-1.4,4.8-2.6,7.6-3.2c5.3-1,10.7-1.1,16-0.9c5.3,0.3,10.5,1.1,15.7,1.9c5.2,0.9,10.3,1.7,15.4,2.2c2.6,0.3,5.1,0.5,7.7,0.5
				c2.6,0,5.1,0,7.6-0.3c2.5-0.3,5-0.8,7.3-1.7c2.3-0.9,4.4-2.3,6-4.2c1.6-1.9,2.4-4.4,1.8-6.9c-0.3-1.2-0.7-2.5-1.3-3.6
				c-0.6-1.1-1.6-2.1-2.7-2.7c1.2,0.5,2.3,1.4,3.1,2.5c0.8,1.1,1.4,2.3,1.7,3.6c0.4,1.3,0.6,2.7,0.3,4.1c-0.2,1.4-0.8,2.7-1.6,3.8
				c-1.5,2.3-3.8,4.1-6.3,5.3c-2.5,1.2-5.1,2-7.8,2.4c-5.3,0.9-10.7,0.8-16,0.4c-5.3-0.4-10.5-1.3-15.7-2c-5.2-0.8-10.3-1.6-15.4-2
				c-5.1-0.5-10.3-0.4-15.3,0.2c-2.4,0.3-4.7,1.2-6.9,2.4c-2.3,1.2-4.5,2.6-7,3.7c-2.5,1-5.3,1.6-7.9,1.5
				C400.2,176.4,397.6,175.8,395.1,175z"/>
		</g>
		<path class="st26" d="M455.2,163c-1.1,0.5-1.9,1.5-3,1.9c-1.1,0.3-2.3,0.1-3.5,0.1c-0.3,0-0.7,0-1,0.2s-0.4,0.6-0.1,0.8
			c0.1,0.1,0.3,0.1,0.4,0.2c1.6,0.4,3.2,0.8,4.9,0.8c1.7,0,3.4-0.3,4.6-1.3c0.7-0.6,2.2-2.1,1.4-2.7
			C458.1,162.3,456,162.6,455.2,163z"/>
		<path class="st26" d="M410.8,183.3c-0.9-0.4-1.6-1-2.6-1.3c-1.9-0.5-3.9,0.2-5.9,0c-0.3,0-0.7,0-0.8,0.2c-0.1,0.2,0.1,0.4,0.2,0.5
			c1.1,1.1,3,1.5,4.7,1.9c0.8,0.2,1.7,0.4,2.6,0.4c0.7,0,1.4-0.1,2.1-0.2c0.4-0.1,1.5-0.1,1.8-0.5
			C413.4,183.7,411.2,183.5,410.8,183.3z"/>
		<path class="st26" d="M487,149.2c-0.8-0.6-1.5-1.2-2.3-1.8c-0.7-0.6-1.6-1.2-2.6-1.2c-1,0-1.8,0.7-2.8,0.9
			c-0.7,0.1-1.4-0.1-2.1,0.1c-0.8,0.2-1.3,1.2-0.7,1.8c0.2,0.2,0.4,0.3,0.7,0.4c1.1,0.5,2.2,1.1,3.2,1.6c0.7,0.4,1.4,0.7,2.2,0.9
			c1.6,0.3,3.1-0.1,4.5-0.7c0.4-0.2,1.6-0.5,1.4-1C488.4,149.8,487.3,149.4,487,149.2z"/>
		<circle class="st10" cx="441.4" cy="113.3" r="4.6"/>
		<circle class="st10" cx="456.8" cy="193.6" r="4.4"/>
		<path class="st26" d="M460.3,194.6c-1-0.3-2-0.5-3.1-0.8c-1-0.3-2.1-0.5-3,0c-0.9,0.5-1.2,1.6-2,2.3c-0.5,0.4-1.3,0.6-1.7,1.1
			c-0.6,0.7-0.4,1.9,0.4,2.2c0.3,0.1,0.6,0.1,0.9,0.1c1.3,0,2.5,0.1,3.8,0.1c0.8,0,1.7,0,2.4-0.2c1.6-0.4,2.7-1.6,3.6-2.9
			c0.3-0.4,1.1-1.3,0.7-1.8C462,194.5,460.7,194.7,460.3,194.6z"/>
		<g>
			<path class="st20" d="M447.7,174.8c-1.3-0.9-2.9-1-4.4-0.8c-1.5,0.2-2.9,0.7-4.2,1.5c-1.3,0.7-2.6,1.6-4,2.4
				c-1.4,0.8-2.8,1.6-4.2,2.3c-5.7,2.9-11.8,5-18.1,6.3c-6.3,1.3-12.9,1.8-19.3,0.3c-3.2-0.8-6.3-2.1-8.9-4.3
				c-1.3-1.1-2.3-2.5-2.9-4.1c-0.3-0.8-0.5-1.6-0.5-2.4c0-0.8,0.1-1.6,0.5-2.4c-0.3,1.6,0.2,3.1,0.9,4.4c0.8,1.3,1.8,2.3,3.1,3.1
				c1.2,0.8,2.6,1.4,4,1.9c1.4,0.5,2.9,0.8,4.3,1.1c3,0.4,6,0.5,9,0.3c3-0.2,6.1-0.7,9.1-1.3c3-0.6,6-1.4,8.9-2.3
				c3-0.9,5.9-2,8.7-3.1c1.4-0.6,2.9-1.2,4.3-1.8c1.4-0.6,2.8-1.4,4.4-1.9c1.5-0.6,3.2-1,4.9-0.9
				C444.9,173.1,446.6,173.6,447.7,174.8z"/>
		</g>
		<g>
			<path class="st20" d="M508,174.4c0.4,0.7,0.7,1.6,0.7,2.5c0,0.9-0.2,1.8-0.5,2.6c-0.7,1.7-1.9,3.1-3.4,4.2c-3,2.2-6.7,2.9-10.2,3
				c-3.5,0.2-7-0.3-10.4-0.8c-3.4-0.6-6.7-1.3-9.9-1.9c-3.3-0.6-6.5-1.1-9.7-1c-0.8,0-1.6,0-2.4,0.1c-0.8,0.1-1.6,0.2-2.4,0.3
				c-1.6,0.3-3.2,0.7-4.8,1.2c-3.2,0.9-6.4,2-9.8,2.8c-3.4,0.7-7,0.9-10.2-0.2c3.4,0.3,6.7-0.4,9.8-1.5c3.1-1.1,6.2-2.5,9.4-3.7
				c1.6-0.6,3.3-1.2,5-1.6c0.9-0.2,1.7-0.4,2.6-0.5c0.9-0.2,1.8-0.2,2.7-0.3c3.6-0.2,7,0.3,10.4,0.9c3.4,0.6,6.7,1.4,9.9,2.1
				c3.2,0.7,6.5,1.2,9.7,1.4c3.2,0.1,6.5-0.2,9.2-1.7c1.4-0.7,2.6-1.8,3.4-3.2C508.2,177.8,508.6,176,508,174.4z"/>
		</g>
		<g>
			<path class="st20" d="M476.3,192.4c-2.1,1.6-4.3,3.1-6.5,4.6c-1.1,0.7-2.2,1.5-3.4,2.2c-1.2,0.7-2.5,1.2-3.8,1.7
				c-5.2,1.9-11,2-16.4,0.5c-2.6-0.8-5.1-1.7-7.5-2.7l-7.3-2.9c-2.4-0.9-4.9-1.9-7.3-2.6c-2.5-0.5-5.1-0.7-7.7-0.8
				c1.3-0.3,2.6-0.4,3.9-0.6c1.3-0.1,2.7-0.2,4,0c1.4,0.1,2.7,0.4,4,0.6c1.3,0.3,2.6,0.6,3.9,0.9c1.3,0.4,2.6,0.7,3.8,1.1l3.7,1.2
				c2.5,0.8,5,1.7,7.4,2.3c4.7,1.3,9.8,1.4,14.6,0.2c2.4-0.6,4.7-1.6,7.1-2.7C471.4,194.3,473.8,193.2,476.3,192.4z"/>
		</g>
		<g>
			<path class="st13" d="M455.4,114.6c-0.3-0.2,0.1-0.9,0.2-1.2l12.6-26.8c0.4-0.8,1.4-1.2,2.3-0.9l10.3,4.4
				c-0.3,0.2-0.5,0.5-0.6,0.9c-0.1,0.6,0.1,1.1,0.6,1.4c-0.3,0.2-0.5,0.5-0.6,0.8c-0.1,0.7,0.3,1.4,1.1,1.6c0.2,0,0.4,0,0.6,0
				c0,0.1-0.1,0.2-0.1,0.3c-0.2,0.8,0.4,1.6,1.2,1.8c0,0,0.1,0,0.1,0.1l-10.9,24c-0.2,0.4-0.7,1.1-1.2,0.8L455.4,114.6z"/>
			<path class="st27" d="M473,87c-1.3,3-12.4,26.3-13.7,29.3"/>
			<path class="st27" d="M480.5,92.2c-1.3,3-11.5,24.8-12.8,27.8"/>
			<path class="st27" d="M477.1,88.7c-1.3,3-12.4,26.5-13.7,29.4"/>
			<line class="st27" x1="466.8" y1="90" x2="482.8" y2="97.5"/>
			<line class="st27" x1="480.9" y1="101.6" x2="464.9" y2="94.2"/>
			<line class="st27" x1="462.9" y1="98.3" x2="479" y2="105.8"/>
			<line class="st27" x1="477.1" y1="110" x2="461" y2="102.5"/>
			<line class="st27" x1="459" y1="106.5" x2="475.3" y2="114.1"/>
			<line class="st27" x1="473.5" y1="117.9" x2="457.2" y2="110.5"/>
		</g>
		<path class="st10" d="M466.8,116.6c-1.3-1.6-3.2-2.9-5.3-2.9c-1.3,0-2.6,0.4-4,0.5c-0.9,0.1-2.1,0-2.5,0.9
			c-0.5,0.8,0.2,1.8,0.8,2.5c1.3,1.3,2.9,2.3,4.5,3.2c1.9,1.2,6.6,4.5,9,3.3C471.6,122.8,467.8,117.8,466.8,116.6z"/>
		<path class="st10" d="M445,115.4c-1-0.2-2-0.4-3.1-0.7c-1-0.2-2.1-0.4-3,0c-0.9,0.4-1.2,1.4-2,1.9c-0.5,0.4-1.3,0.5-1.7,0.9
			c-0.6,0.6-0.4,1.6,0.4,1.9c0.3,0.1,0.6,0.1,0.9,0.1c1.3,0,2.5,0.1,3.8,0.1c0.8,0,1.7,0,2.4-0.1c1.6-0.3,2.7-1.3,3.6-2.4
			c0.3-0.3,1.1-1.1,0.7-1.5C446.7,115.4,445.5,115.5,445,115.4z"/>
	</g>
</g>
<rect id="cadre_2_" class="st11" width="567" height="269"/>
</svg>
