<svg id="paris_pour_elle" data-name="paris pour elle" xmlns="http://www.w3.org/2000/svg" viewBox="0 0 567 269"><defs><style>.cls-1{fill:#e546a5;}.cls-10,.cls-16,.cls-17,.cls-2,.cls-31,.cls-32,.cls-33,.cls-6,.cls-8{fill:none;}.cls-10,.cls-2,.cls-32,.cls-6,.cls-8{stroke:#1d1e1c;}.cls-2,.cls-31,.cls-32{stroke-linecap:round;}.cls-10,.cls-16,.cls-2,.cls-32{stroke-linejoin:round;}.cls-10,.cls-16,.cls-17,.cls-2,.cls-6,.cls-8{stroke-width:0.59px;}.cls-3{fill:#d8edf0;}.cls-4{fill:#fff;}.cls-5{fill:#e3097e;}.cls-7{fill:#ebebeb;}.cls-8{stroke-miterlimit:10;}.cls-9{fill:#f8d4e6;}.cls-11{fill:#f4b2d0;}.cls-12{fill:#cbcbcb;}.cls-13{fill:#fbbb00;}.cls-14{fill:#fabb05;}.cls-15{fill:#ffd883;}.cls-16{stroke:#000100;}.cls-17{stroke:#91d1dd;}.cls-18{fill:#97c11d;}.cls-19{fill:#15b9e3;}.cls-20{fill:#ef8b05;}.cls-21{fill:#f18c00;}.cls-22{fill:#f6d4e6;}.cls-23{fill:#ffec00;}.cls-24{fill:#cbcaca;}.cls-25{fill:#1d1e1c;}.cls-26{fill:#e30880;}.cls-27{fill:#a4c518;}.cls-28{fill:#d37b37;}.cls-29{fill:#b3970e;}.cls-30{fill:#96c01e;}.cls-31{stroke:#fff;stroke-width:0.29px;}.cls-32{stroke-width:0.62px;}</style></defs><path class="cls-1" d="M276.36,234.87s-1.12-5.71.78-5.62c0,0-1.16-2.21-1.93-1.64,0,0-.38-37.45,1.72-39.36,0,0,4.59-7.83,3.44-8.6s-2.67,1-2.67,1,7.77-14.5,9.49-15.07a8,8,0,0,0,6,4.41c3.67.7,46.91,3.21,51.79,2.05,6.14-1.45,5.16-4.39,7.07-4.58,0,0,3.62.42,3.75-1.95.06-1,3.51,1.57,8.28,11.7l3.44.76s-.38-7.45-11.65-15.67c0,0-7.07-5-14.72-4.77l-42.42,1.33s-6.09-4.72-14.71,6.5c-12,15.67-13.18,21.4-11.08,55.8l-.76,6.87s-4,.39-3.83,1.72c0,0,1.34-.57,1.91,2.49a11.34,11.34,0,0,1,0,5l5.85-1.62"/><path class="cls-2" d="M287.29,166.78c-.31.43-1.61-.64-.83-1.94.92-1.56,2.57,2.55,2.84,3a6,6,0,0,0,3.39,2.62c5.62,1.75,12.88,1.11,18.68,1,9.57-.12,19.23-.14,28.8-.2,2.8,0,6.44-.31,8.94-2,2-1.34,2.39-4.23,4.56-5.45,3-1.69,8,6.76,9.08,8.64,3.24,5.88,3.51,12.66,3.6,19.22.12,9.37.24,18.75,0,28.12-.15,5.67-.47,11.35-.9,17-.35,1.76,3.27-.79,3.27-.79-1.53-3.15-2.06-54.14-2.06-54.14a23.23,23.23,0,0,0-6.83-16.29,33.69,33.69,0,0,0-7.43-5.34c-2-1.16-3.93-2.62-6.23-3.2-.92-.23-5.54-.54-3.79,1.57,0,0-36.26.36-38.48.29a30.07,30.07,0,0,0-5.29.54c-3.79.36-11,3.69-11,3.69s4.72-4,7.21-4.63,2,.36,2,.41c.14-.32,1,.44,1-.46,0-1.08-2-1.51-2.76-1.55-2-.1-3.55,1.57-4.94,2.8a49.43,49.43,0,0,0-8.32,9.76,39.89,39.89,0,0,0-3.51,6.37c-3.92,9.2-3.81,25.83-3.87,36.33s-1.86,19.52-2.86,21.49,1,2.16,1,2.16l3.5-.27s-10.79-43.83,5.29-67.3"/><path class="cls-3" d="M342.76,164.93a4.08,4.08,0,0,1-4.19,4.43c-11.29,0-22.57-.13-33.86,0-2.12,0-5.48-.23-7-2-2.25-2.65.58-6.88,3.79-6.87l37,0a4.23,4.23,0,0,1,4.19,4.43"/><path class="cls-2" d="M342.76,164.93a4.08,4.08,0,0,1-4.19,4.43c-11.29,0-22.57-.13-33.86,0-2.12,0-5.48-.23-7-2-2.25-2.65.58-6.88,3.79-6.87l37,0A4.23,4.23,0,0,1,342.76,164.93Z"/><path class="cls-2" d="M351.12,166.91s2.53-3,3.52-1.2c0,0,0,.84-1.76.69,0,0-1.15-.28-3.12,2.35"/><path class="cls-4" d="M343.75,158.78a15.45,15.45,0,0,1,5.88,1.56s-9.09,1.13-5.88-1.56"/><path class="cls-2" d="M343.75,158.78a15.45,15.45,0,0,1,5.88,1.56S340.54,161.47,343.75,158.78Z"/><path class="cls-2" d="M300.82,166.73s-.8-3.13.5-3.7l1.1,1.78,1.19-1.59a3,3,0,0,1,.53,3"/><polyline class="cls-2" points="307.54 163.05 305.38 163 305.45 164.35 305.56 166.31 308.33 166.32"/><line class="cls-2" x1="306.89" y1="164.52" x2="305.56" y2="164.53"/><line class="cls-2" x1="309.56" y1="163.17" x2="309.61" y2="166.62"/><line class="cls-2" x1="308.42" y1="163.08" x2="310.99" y2="163.01"/><line class="cls-2" x1="311.75" y1="163.08" x2="311.96" y2="166.5"/><path class="cls-2" d="M311.94,163.05a2.35,2.35,0,0,1,1.52-.14,1.14,1.14,0,0,1,.73,1.09.61.61,0,0,1-.44.5c-.75.11-1.57.28-1.57.28l1.9,1.44"/><path class="cls-2" d="M316,162.83a1.23,1.23,0,0,0-1,1.24c0,1.88,1.25,2.62,1.95,1.66s.23-3.68-.79-2.68"/><path class="cls-2" d="M322.05,163a1.23,1.23,0,0,0-1,1.23c0,1.89,1.25,2.62,1.95,1.66s.23-3.67-.79-2.67"/><line class="cls-2" x1="318.6" y1="163.07" x2="318.67" y2="166.39"/><path class="cls-2" d="M318.64,163.07s1.26-.44,1.65.07a1,1,0,0,1-.16,1.6,2,2,0,0,1-1.42.21"/><polyline class="cls-2" points="324.18 163.03 324.15 166.14 325.86 166.14"/><line class="cls-2" x1="327.1" y1="162.96" x2="326.91" y2="166.21"/><line class="cls-2" x1="334.98" y1="162.51" x2="334.8" y2="165.77"/><polyline class="cls-2" points="328 162.93 330.81 162.85 329.1 163.21 329.02 166.22"/><path class="cls-2" d="M330.83,166s1.41-3.83,1.4-3.68,1.61,3.66,1.61,3.66"/><line class="cls-2" x1="331.67" y1="164.48" x2="332.93" y2="164.47"/><path class="cls-2" d="M336.31,165.71l-.07-3.26a32.8,32.8,0,0,0,1.83,3.05,20.91,20.91,0,0,0,.33-3.05"/><path class="cls-2" d="M368.37,233.19s-.75-3,1.61-3.47c0,0-.21-.26-.23-.28a1.6,1.6,0,0,0-.65-.47c-1.45-.54-3.43,1.62-2.53,3A4.45,4.45,0,0,0,368.37,233.19Z"/><path class="cls-5" d="M275.53,232.71s-.75-3,1.61-3.46c0,0-.21-.26-.23-.28a1.6,1.6,0,0,0-.65-.47c-1.45-.54-3.43,1.62-2.53,3a4.33,4.33,0,0,0,1.8,1.23"/><path class="cls-6" d="M275.53,232.71s-.75-3,1.61-3.46c0,0-.21-.26-.23-.28a1.6,1.6,0,0,0-.65-.47c-1.45-.54-3.43,1.62-2.53,3A4.33,4.33,0,0,0,275.53,232.71Z"/><path class="cls-5" d="M272.08,232.18s-.39-3.1-2.75-2.66c0,0,.1-.31.11-.34a1.66,1.66,0,0,1,.45-.68c1.15-1,3.78.29,3.43,1.88a4.45,4.45,0,0,1-1.24,1.8"/><path class="cls-6" d="M272.08,232.18s-.39-3.1-2.75-2.66c0,0,.1-.31.11-.34a1.66,1.66,0,0,1,.45-.68c1.15-1,3.78.29,3.43,1.88A4.45,4.45,0,0,1,272.08,232.18Z"/><path class="cls-2" d="M365.6,233.13s-1.32-2.83-3.43-1.69c0,0,0-.32,0-.35a1.63,1.63,0,0,1,.21-.78c.79-1.33,3.69-.89,3.84.73A4.32,4.32,0,0,1,365.6,233.13Z"/><path class="cls-2" d="M274.54,204.21s0-24.45,4.68-23.63c0,0,1.83-.06-.77,2.72s-7.2,12.13-3.11,24.82"/><path class="cls-2" d="M365.62,206.6s0-25.12-4.66-24.57c0,0-1.82-.17.61,2.76s10.36,12.48,5.54,24.91"/><path class="cls-4" d="M289.8,164.28s5.17-2.4,7.05-2.93c0,0-3.76,5.46-.57,7.53,0,0-5.06,2.41-6.48-4.6"/><path class="cls-2" d="M289.8,164.28s5.17-2.4,7.05-2.93c0,0-3.76,5.46-.57,7.53C296.28,168.88,291.22,171.29,289.8,164.28Z"/><path class="cls-4" d="M344.16,162.25s3.83.23,5.94-.76c0,0,1.82,5.51-2,7.37s-5.46.19-5.46.19a6.59,6.59,0,0,0,1.47-6.8"/><path class="cls-2" d="M344.16,162.25s3.83.23,5.94-.76c0,0,1.82,5.51-2,7.37s-5.46.19-5.46.19A6.59,6.59,0,0,0,344.16,162.25Z"/><path class="cls-2" d="M360.94,168.16c-2.13-2.93-5.18-3.26-5.1-7a2.48,2.48,0,0,1,1.3-2.21c1.62-.71,2.8,1.94,1.35,2.41"/><path class="cls-2" d="M283.73,167.82c.26-3.61,3.61-5.26,1.55-8.43a2.47,2.47,0,0,0-2.27-1.2c-1.75.26-1.36,3.13.12,2.76"/><path class="cls-6" d="M266.4,235.9s47.19-2.17,53.4.37"/><path class="cls-2" d="M294.53,204.31s7.1,1,23.55-.67"/><path class="cls-7" d="M526.14,239.9c-23.59-.26-59.68-1.23-59.46-2.13,0,0-12.25-99.34-.82-117.59,0,0,65.55,4.71,75,4.71,5.38,0,5.17,114.11,5.17,114.76l-13.67,0"/><path class="cls-2" d="M526.14,239.9c-23.59-.26-59.68-1.23-59.46-2.13,0,0-12.25-99.34-.82-117.59,0,0,65.55,4.71,75,4.71,5.38,0,5.17,114.11,5.17,114.76l-13.67,0"/><path class="cls-2" d="M507.2,161.8c-.76-8.66-.93-18.17,1-24.31,0,0-.59-2.65,30.91,0,2.43.21,1.57,33.27,1,43.75"/><path class="cls-3" d="M510,184c.24-10.09-1.1-44.53-.6-46.14,0,0,25.07-1.25,28.67,1.18,1.95,1.32,1.3,33.88.83,43.95"/><path class="cls-8" d="M510,184c.24-10.09-1.1-44.53-.6-46.14,0,0,25.07-1.25,28.67,1.18,1.95,1.32,1.3,33.88.83,43.95"/><polygon class="cls-9" points="523.87 162.32 522.81 137.63 524.42 137.63 525.48 162.4 523.87 162.32"/><polygon class="cls-2" points="523.87 162.32 522.81 137.63 524.42 137.63 525.48 162.4 523.87 162.32"/><path class="cls-3" d="M468,183.21c-.82-5-3-31.33.81-43.77,0,0,24.74-2.4,28.33,0,2.06,1.38,1.55,33.26,1,43.74"/><path class="cls-8" d="M468,183.21c-.82-5-3-31.33.81-43.77,0,0,24.74-2.4,28.33,0,2.06,1.38,1.55,33.26,1,43.74"/><polygon class="cls-9" points="480.95 162.51 480.52 138.57 483.48 138.64 483.18 162.53 480.95 162.51"/><polygon class="cls-2" points="480.95 162.51 480.52 138.57 483.48 138.64 483.18 162.53 480.95 162.51"/><path class="cls-10" d="M190.85,101.61a24.7,24.7,0,0,1-2.86.09c-1.83,0-3.65,0-5.48,0-2.72,0-5.43.17-8.15.21-1.85,0-3.67.12-5.22-1.08A5.3,5.3,0,0,1,167.08,96a5,5,0,0,1,1.6-2.87,9.65,9.65,0,0,1,2.71-1.47,6.67,6.67,0,0,1,.33-3.24,8.29,8.29,0,0,1,5.37-4.93,7.07,7.07,0,0,1,6.19,1c1.49,1,4,3,3,5.12.57-1.27,2.65-1.14,3.76-1a7.53,7.53,0,0,1,6,4.3,5.78,5.78,0,0,1-.17,5.75,8.12,8.12,0,0,1-3,2.43A6.84,6.84,0,0,1,190.85,101.61Z"/><polygon class="cls-9" points="494.83 55.46 501.39 50.32 509.38 55.94 491.35 66.78 484.54 63.37 494.83 55.46"/><path class="cls-9" d="M453.85,41.65s21.75-4.59,48.34,20.06c0,0-61.15-8.22-48.34-20.06"/><path class="cls-9" d="M457.48,50.11s-15.71,8.94-8.7,11.36,16.43-1.94,20.54-6.77"/><path class="cls-9" d="M466.66,41.89s30.7-27.79,32.15-14.74-22,22.71-22,22.71"/><path class="cls-1" d="M530.74,63s-5.41-2.34-4,.14,4.82,3.7,4.82,3.7,6.08-5.71,3.22-6.6-4,2.76-4,2.76"/><path class="cls-6" d="M530.74,63s-5.41-2.34-4,.14,4.82,3.7,4.82,3.7,6.08-5.71,3.22-6.6S530.74,63,530.74,63Z"/><path class="cls-2" d="M466.66,41.89s29.73-29,31.18-15.95-24.65,25.38-24.65,25.38"/><path class="cls-2" d="M456.42,49.7s-16.23,12.08-4.62,10C461.27,58.1,470.05,52,470.05,52"/><path class="cls-2" d="M494,56.2s-39.28-23.78-41.53-15S476.06,56.32,489.19,60,504.92,63,494,56.2Z"/><polyline class="cls-2" points="495.81 56.08 501.61 51.83 507.64 55.49 501.02 61.17"/><polyline class="cls-2" points="489.31 60.46 486.23 63.06 490.96 65.67 498.77 62.71"/><polygon class="cls-2" points="452.16 42.69 449.79 40.11 452.75 40.35 452.16 42.69"/><path class="cls-2" d="M452.67,39.51l5.4-7.32s2.84-.83,2,5.2-5.68,12.9-10.3,11.6-6.5-12.66,6.27-16.92"/><path class="cls-2" d="M504.07,59c6.56,1.8,13.18,3.2,20,2.45s13.7-4.32,20.55-2.76c4,.92,8.39,2.85,12.59,2,2.95-.59,6.43-5.58,9.7-2.77a72.23,72.23,0,0,1-.67,7.51c.31-1.63-4.83.48-5.31.67-3.14,1.25-5.76,2.32-9.28,2.17-5.07-.21-7.81-1.88-12.92-2-6-.15-11.69,3.59-20.35,4.38,0,0-17.08-.24-21.95-6.59"/><line class="cls-2" x1="512.5" y1="61.19" x2="507.79" y2="69.41"/><line class="cls-2" x1="517.65" y1="63.49" x2="521.81" y2="62.92"/><path class="cls-2" d="M520.06,63.71c.06,1.23.49,2.61.2,3.83s-1.51,2.56-2.58,1.06"/><path class="cls-2" d="M473.43,64.37a20,20,0,0,0,7.73,1.93"/><path class="cls-2" d="M474.28,68.14a20,20,0,0,0,8,.19"/><path class="cls-2" d="M447.09,31.85a20,20,0,0,0-5.52,5.76"/><path class="cls-7" d="M352.38,229.32S391,252.9,406.45,34.88c0,0-.41,154.12,43.71,196.3l-15.47-.41s-6.31-16.91-24.34-15.7c-6.72.45-14.53,3.53-18.73,16H373.84"/><path class="cls-2" d="M352.38,229.32S391,252.9,406.45,34.88c0,0-.41,154.12,43.71,196.3l-15.47-.41s-6.31-16.91-24.34-15.7c-6.72.45-14.53,3.53-18.73,16H373.84"/><line class="cls-2" x1="376.08" y1="194.5" x2="432.72" y2="195.05"/><path class="cls-4" d="M391.13,189.6l28.85.59s-15.11-13.74-13.35-41.41c0,0-5.69,37.88-15.5,40.82"/><path class="cls-2" d="M391.13,189.6l28.85.59s-15.11-13.74-13.35-41.41C406.63,148.78,400.94,186.66,391.13,189.6Z"/><line class="cls-2" x1="388.18" y1="158.4" x2="421.55" y2="157.22"/><line class="cls-11" x1="394.69" y1="143.89" x2="401.71" y2="155.56"/><line class="cls-2" x1="394.69" y1="143.89" x2="401.71" y2="155.56"/><line class="cls-11" x1="393.14" y1="145.44" x2="400.16" y2="157.1"/><line class="cls-2" x1="393.14" y1="145.44" x2="400.16" y2="157.1"/><line class="cls-11" x1="394.15" y1="157.11" x2="400.19" y2="167.52"/><line class="cls-2" x1="394.15" y1="157.11" x2="400.19" y2="167.52"/><line class="cls-11" x1="406.45" y1="147.93" x2="395.57" y2="156.12"/><line class="cls-2" x1="406.45" y1="147.93" x2="395.57" y2="156.12"/><line class="cls-11" x1="404.54" y1="143.64" x2="393.67" y2="151.83"/><line class="cls-2" x1="404.54" y1="143.64" x2="393.67" y2="151.83"/><line class="cls-11" x1="402.75" y1="158.89" x2="391.88" y2="167.08"/><line class="cls-2" x1="402.75" y1="158.89" x2="391.88" y2="167.08"/><line class="cls-11" x1="403.8" y1="147.74" x2="392.92" y2="155.93"/><line class="cls-2" x1="403.8" y1="147.74" x2="392.92" y2="155.93"/><line class="cls-11" x1="393.24" y1="150.89" x2="402.32" y2="166.25"/><line class="cls-2" x1="393.24" y1="150.89" x2="402.32" y2="166.25"/><line class="cls-11" x1="397.7" y1="140.88" x2="404.73" y2="152.54"/><line class="cls-2" x1="397.7" y1="140.88" x2="404.73" y2="152.54"/><path class="cls-3" d="M164.22,106.71h-12c-7,0-13.25.27-20.25.27-2.7,0-6.37-.07-8.51-2.06a8.5,8.5,0,0,1-1.65-9.44c1.42-3.2,4.6-5.35,7.7-6.74a10.89,10.89,0,0,1,.61-5.75,12.4,12.4,0,0,1,13.78-8.79,17.06,17.06,0,0,1,12.54,8.13,10.22,10.22,0,0,1,1.18,9.76c.47-1,2.6-2.2,3.6-2.64a10.1,10.1,0,0,1,4.38-.52c3.72.08,8.09,2,9.35,4.75,1.59,3.45,2.09,8.35-1.22,11a8.82,8.82,0,0,1-3.11,1.69,30.86,30.86,0,0,1-6.37.38"/><path class="cls-10" d="M166.56,106.5a47.94,47.94,0,0,1-5.1.16c-3.25,0-6.51,0-9.76,0-4.85.09-9.69.32-14.54.39-3.3,0-6.54.21-9.3-1.93a9.46,9.46,0,0,1-3.68-8.64,9.09,9.09,0,0,1,2.87-5.13c.93-.88,4.75-2.87,4.81-2.62-.56-2.21.4-5.16.6-5.78a12.41,12.41,0,0,1,13.79-8.79,17.07,17.07,0,0,1,12.53,8.13A10.25,10.25,0,0,1,160,92.09c.46-1,2.59-2.2,3.59-2.64a7.82,7.82,0,0,1,4.38-.52A9.48,9.48,0,0,1,175,94c2.25,4.88,0,9.52-4.76,11.55A12.91,12.91,0,0,1,166.56,106.5Z"/><path class="cls-3" d="M408.44,88.67h10.07c5.85,0,11.09.23,16.95.23,2.26,0,5.33-.06,7.12-1.73a7.1,7.1,0,0,0,1.38-7.9c-1.19-2.68-3.85-4.48-6.44-5.64a9.2,9.2,0,0,0-.51-4.81,10.39,10.39,0,0,0-11.54-7.36A14.26,14.26,0,0,0,415,68.27a8.56,8.56,0,0,0-1,8.16c-.39-.87-2.18-1.84-3-2.21a8.51,8.51,0,0,0-3.66-.43c-3.12.07-6.77,1.69-7.83,4-1.33,2.88-1.75,7,1,9.17a7.32,7.32,0,0,0,2.6,1.41,25.68,25.68,0,0,0,5.33.32"/><path class="cls-8" d="M406.48,88.5a40.36,40.36,0,0,0,4.27.13c2.72,0,5.45,0,8.17,0,4.06.08,8.11.27,12.17.33,2.76,0,5.48.18,7.78-1.61A7.9,7.9,0,0,0,442,80.14a7.6,7.6,0,0,0-2.39-4.3c-.79-.72-4-2.39-4-2.18a9.84,9.84,0,0,0-.5-4.84,10.39,10.39,0,0,0-11.54-7.36A14.26,14.26,0,0,0,413,68.27a8.56,8.56,0,0,0-1,8.16c-.39-.87-2.18-1.84-3-2.21a6.59,6.59,0,0,0-3.67-.43,8,8,0,0,0-5.91,4.27c-1.88,4.09,0,8,4,9.67A10.8,10.8,0,0,0,406.48,88.5Z"/><polygon class="cls-7" points="556.39 234.72 554.47 167.44 550.99 163.86 548.4 157.47 562.88 156.13 559.38 163.1 555.76 166.76 557.68 234.48 556.39 234.72"/><polygon class="cls-2" points="556.39 234.72 554.47 167.44 550.99 163.86 548.4 157.47 562.88 156.13 559.38 163.1 555.76 166.76 557.68 234.48 556.39 234.72"/><polygon class="cls-12" points="547.57 158.13 549.86 148.32 559.97 147.96 562.29 156.16 547.57 158.13"/><polygon class="cls-2" points="548.26 158.01 551.53 148.32 558.64 147.9 562.97 156.04 548.26 158.01"/><polygon class="cls-6" points="552.88 148.26 550.29 158 553.99 165.84 556.71 165.88 560.51 156.95 557.23 148.19 552.88 148.26"/><path class="cls-7" d="M387.85,188.53c.25,18.09-1.76,43.89-2.07,49.08,0,0-45.47,2-58,.71-1.65-.16-5.39-1.78-5.4-5.46,0,0-1.82-28.6-1.41-46.92"/><path class="cls-6" d="M387.85,188.53c.25,18.09-1.76,43.89-2.07,49.08,0,0-45.47,2-58,.71-1.65-.16-5.39-1.78-5.4-5.46,0,0-1.82-28.6-1.41-46.92"/><path class="cls-7" d="M380.13,237.7c10.5-32.35-1.26-35.35-1.26-35.35a362.88,362.88,0,0,0-38.51-3c-23.08-.67-11.35,39.05-11.35,39.05"/><path class="cls-2" d="M380.13,237.7c10.5-32.35-1.26-35.35-1.26-35.35a362.88,362.88,0,0,0-38.51-3c-23.08-.67-11.35,39.05-11.35,39.05"/><path class="cls-9" d="M329.8,178s-8.42.59-9.1,5.23c-.82,5.6-3.44,16-2,16.45,1.84.55,76.14,2.81,76.14,2.81s-5-15.94-7.69-19.17c-6.8-8.13-35.77-6.25-57.35-5.32"/><path class="cls-6" d="M331.28,179.34s-9.77.87-10.42,3.26c-1.47,5.46-3.6,16.65-2.16,17.09,1.84.55,76.14,2.81,76.14,2.81S391,187.85,389.21,184C385.38,175.79,353,178.9,331.28,179.34Z"/><path class="cls-9" d="M318.7,199.69l.09,3.11c-.86,4.85,68.68,7.75,73.69,3.44a13.19,13.19,0,0,0,2.36-3.74Z"/><path class="cls-2" d="M318.7,199.69l.09,3.11c-.86,4.85,68.68,7.75,73.69,3.44a13.19,13.19,0,0,0,2.36-3.74Z"/><path class="cls-4" d="M18.6,204.29l.3,1.64s9.31-.78,10.87-.55l-.61-1.86Z"/><path class="cls-7" d="M60.42,161c7,.81,14-.08,15.26,4.79,3.21,12.5,0,57-.33,64,0,0-45.41.49-58-.69-1.65-.16-5.45.09-5.49-3.59,0,0-4.3-60.48.45-61.88,1.3-.39,24.55-4.6,29.66-4.37"/><path class="cls-6" d="M60.42,161c7,.81,14-.08,15.26,4.79,3.21,12.5,0,57-.33,64,0,0-45.41.49-58-.69-1.65-.16-5.45.09-5.49-3.59,0,0-4.3-60.48.45-61.88,1.3-.39,24.55-4.6,29.66-4.37"/><path class="cls-4" d="M13.73,224.93s-2.87-41-.92-42.74,31.21-2.24,33,1.08.15,43.15-.3,44.37-23.18-.6-23.95-.59c-8.24.1-7.86-2.12-7.86-2.12"/><path class="cls-6" d="M13.73,224.93s-2.87-41-.92-42.74,31.21-2.24,33,1.08.15,43.15-.3,44.37-23.18-.6-23.95-.59C13.35,227.15,13.73,224.93,13.73,224.93Z"/><path class="cls-7" d="M71.51,229.08c6-41.54,1-43.84,1-43.84a53.05,53.05,0,0,0-16.46-1.46c-9.91.54-6.58,45.23-6.58,45.23"/><path class="cls-6" d="M71.51,229.08c6-41.54,1-43.84,1-43.84a53.05,53.05,0,0,0-16.46-1.46c-9.91.54-6.58,45.23-6.58,45.23"/><path class="cls-1" d="M12.2,158a3.13,3.13,0,0,0-2.78,2.47C8,165.93,6.68,178.41,8.13,178.84c1.84.55,76.15,2.26,76.15,2.26s-3.56-11.61-5.36-15.41c-3.89-8.22-45-8.3-66.72-7.7"/><polygon class="cls-4" points="19.16 158.2 16.26 179.26 24.88 179.56 24.93 158.02 19.16 158.2"/><polygon class="cls-4" points="35.72 158.55 33.59 179.82 41.79 179.97 41.43 158.59 35.72 158.55"/><polyline class="cls-4" points="51.53 158.59 50.63 180.19 58.47 180.37 57.61 159.25 51.14 158.64"/><polyline class="cls-4" points="65.96 160.62 67.47 180.59 75.31 180.77 71.79 161.95 65.98 160.43"/><path class="cls-4" d="M8,178.87a5,5,0,0,0,4.05,4.31c3.63.6,4.43-4.05,4.43-4.05"/><path class="cls-6" d="M8,178.87a5,5,0,0,0,4.05,4.31c3.63.6,4.43-4.05,4.43-4.05"/><path class="cls-4" d="M16.46,179.31a5,5,0,0,0,4,4.3c3.64.61,4.44-4,4.44-4"/><path class="cls-6" d="M16.46,179.31a5,5,0,0,0,4,4.3c3.64.61,4.44-4,4.44-4"/><path class="cls-4" d="M25,179.58a5,5,0,0,0,4,4.31c3.63.6,4.43-4,4.43-4"/><path class="cls-6" d="M25,179.58a5,5,0,0,0,4,4.31c3.63.6,4.43-4,4.43-4"/><path class="cls-4" d="M33.45,179.88a5,5,0,0,0,4,4.3c3.63.6,4.43-4.05,4.43-4.05"/><path class="cls-6" d="M33.45,179.88a5,5,0,0,0,4,4.3c3.63.6,4.43-4.05,4.43-4.05"/><path class="cls-4" d="M42,180a5,5,0,0,0,4,4.31c3.64.6,4.43-4,4.43-4"/><path class="cls-6" d="M42,180a5,5,0,0,0,4,4.31c3.64.6,4.43-4,4.43-4"/><path class="cls-4" d="M50.42,180.43a5,5,0,0,0,4,4.31c3.64.6,4.44-4.05,4.44-4.05"/><path class="cls-6" d="M50.42,180.43a5,5,0,0,0,4,4.31c3.64.6,4.44-4.05,4.44-4.05"/><path class="cls-4" d="M67.38,180.69a5,5,0,0,0,4,4.31c3.64.6,4.44-4.05,4.44-4.05"/><path class="cls-6" d="M67.38,180.69a5,5,0,0,0,4,4.31c3.64.6,4.44-4.05,4.44-4.05"/><path class="cls-4" d="M58.87,180.52a5,5,0,0,0,4,4.31c3.64.6,4.44-4.05,4.44-4.05"/><path class="cls-6" d="M58.87,180.52a5,5,0,0,0,4,4.31c3.64.6,4.44-4.05,4.44-4.05"/><path class="cls-4" d="M75.66,180.9a5,5,0,0,0,4,4.31c3.64.6,4.44-4.05,4.44-4.05"/><path class="cls-6" d="M75.66,180.9a5,5,0,0,0,4,4.31c3.64.6,4.44-4.05,4.44-4.05"/><path class="cls-4" d="M16.83,135.66H14.48s-1,21.19,2.12,21.6S74,158.4,74,158.4c-3.87,5.29-7.61-25.29,1.14-18.55,6.24,4.81-46.95-3.48-58.26-4.19"/><path class="cls-6" d="M16.83,135.66H14.48s-1,21.19,2.12,21.6S74,158.4,74,158.4c-3.87,5.29-7.61-25.29,1.14-18.55C81.33,144.66,28.14,136.37,16.83,135.66Z"/><path class="cls-4" d="M376.08,187.38h1.72s.74,15.58-1.55,15.88-42.13.83-42.13.83c2.84,3.89,5.59-18.58-.84-13.62-4.59,3.53,34.49-2.56,42.8-3.08"/><path class="cls-6" d="M376.08,187.38h1.72s.74,15.58-1.55,15.88-42.13.83-42.13.83c2.84,3.89,5.59-18.58-.84-13.62C328.69,194,367.77,187.9,376.08,187.38Z"/><path class="cls-13" d="M27,140.09c-10.13,3.36-18.91,4.6-19.36,3.25s7.15-5.71,17.28-9.07,18.21-4.44,18.66-3.09-6.45,5.55-16.58,8.91"/><path class="cls-6" d="M47.52,150.53s.28-2.16,1-1a8.62,8.62,0,0,1,.94,3.7c-.06.14-.91-3.74.48-3.9s1.58,3.78,1.58,3.78"/><path class="cls-6" d="M46.83,149.51a11.53,11.53,0,0,0-2.27.27c-.23.18-.59,3.41.34,3.14S46.83,149.51,46.83,149.51Z"/><path class="cls-6" d="M46.89,149.48s-.54,3.08.54,3.17"/><path class="cls-6" d="M28.5,150.41a11.35,11.35,0,0,0-2.26.27c-.24.18-.6,3.4.33,3.13S28.5,150.41,28.5,150.41Z"/><path class="cls-6" d="M28.57,150.37s-.54,3.08.54,3.17"/><path class="cls-6" d="M55.17,149.23s-2.84-.51-2.93,0,0,3.29.7,3.21S54.51,150.11,55.17,149.23Z"/><path class="cls-6" d="M55.31,149.25c-.31-.65,1.95,6.85.42,7.17a1.75,1.75,0,0,1-2.27-1.52"/><path class="cls-6" d="M56.58,151,58.7,151s-1.82-2.94-2.05-1.73-.79,3.85,1.57,4.24"/><path class="cls-6" d="M65.4,151.35l2.12,0s-1.82-2.93-2-1.73-.79,3.85,1.57,4.24"/><path class="cls-6" d="M37.76,149.31c-.34.12-2.48,2.43-.38,3.51s2.16-4.36,1-3.51.71.73,1.75.49c0,0-.09-1.12-.22-.6"/><path class="cls-6" d="M43.14,144.88s-.37,8.45.45,8.5"/><path class="cls-6" d="M24.78,145.52s-.38,8.45.45,8.5"/><path class="cls-6" d="M39.91,149.13s-.59,3.91,1,3.91,1.07-4,1.07-4l.63,4.32"/><path class="cls-6" d="M33,149.47a13.17,13.17,0,0,1,2.35.45c.29.2,1.42,3,.46,3.14C32.78,153.62,33,149.47,33,149.47Z"/><path class="cls-6" d="M33,149.41a20.07,20.07,0,0,1-.89-3.5c.16-.26,4.27.3,4.08,1.26S33,149.41,33,149.41Z"/><path class="cls-6" d="M32.16,145.83s1.07,5.42,1.19,6.71"/><path class="cls-6" d="M18.29,154.56s-.63-9.2.4-8.19,3.06,7.18,3.06,7.18"/><line class="cls-6" x1="18.75" y1="150.53" x2="21.52" y2="149.9"/><path class="cls-6" d="M59.41,148.7l.55,5.24s-.47-4.61.77-4.66-.12,2.39-.12,2.39l2,1.74"/><line class="cls-6" x1="62.93" y1="149.46" x2="63.57" y2="154.6"/><path class="cls-6" d="M63.14,148.13c.21.19-.2.18-.35.17s-.89-1.15-.36-.76a6.68,6.68,0,0,1,1.07,1.09"/><path class="cls-6" d="M27.25,140.7C17,144.11,8.19,145.41,7.59,143.6s7.23-6,17.49-9.44,19.07-4.71,19.67-2.9S37.52,137.29,27.25,140.7Z"/><line class="cls-6" x1="37.92" y1="132.6" x2="34.6" y2="135.44"/><line class="cls-6" x1="32.78" y1="134.74" x2="29.46" y2="137.59"/><line class="cls-6" x1="27.4" y1="136.25" x2="25.09" y2="138.57"/><line class="cls-6" x1="22.32" y1="138.17" x2="19" y2="141.01"/><line class="cls-6" x1="16.56" y1="140.08" x2="13.24" y2="142.93"/><path class="cls-14" d="M25.76,198.19a5.52,5.52,0,0,1,2.45-.73c.49,0,.78-2.51,1.19-2.53s-.74-1-.74-1l2.22-.11s.5,1.33,0,1.55c0,0-.24,3.56-1.88,4s-3.75,1.36-3.79.64a2,2,0,0,1,.57-1.77"/><path class="cls-6" d="M23.45,199.53c-5.31.2-9.59.37-11.12.41"/><path class="cls-6" d="M36.67,199.05c-1,0-4.59.14-8.37.28"/><path class="cls-6" d="M12.44,201.84l34.24-.94L40.6,199,39,199"/><polyline class="cls-6" points="46.68 200.9 46.52 202.27 12.43 203.29"/><path class="cls-13" d="M36.68,193.11c-.06,3.82-.61,6.94-1.21,7s-1-3.06-1-6.88.61-6.94,1.21-7,1,3.06,1,6.88"/><path class="cls-6" d="M37.27,193c-.07,3.87-.78,7-1.59,7.06s-1.41-3.09-1.34-7,.78-7,1.58-7.06S37.34,189.15,37.27,193Z"/><line class="cls-6" x1="35.51" y1="188.54" x2="36.19" y2="189.97"/><line class="cls-6" x1="35.62" y1="190.91" x2="36" y2="191.62"/><line class="cls-6" x1="35.56" y1="194.47" x2="36.24" y2="195.89"/><line class="cls-6" x1="35.53" y1="196.64" x2="36.21" y2="198.07"/><path class="cls-13" d="M35.67,193.6c-1,3.78-2.21,6.78-2.8,6.7s-.3-3.21.66-7,2.22-6.78,2.81-6.7.29,3.21-.67,7"/><path class="cls-6" d="M36.27,193.61c-1,3.83-2.4,6.84-3.19,6.74s-.65-3.3.32-7.13,2.4-6.84,3.19-6.73S37.24,189.78,36.27,193.61Z"/><line class="cls-6" x1="35.61" y1="188.88" x2="35.93" y2="190.41"/><line class="cls-6" x1="35.16" y1="191.25" x2="35.37" y2="192.01"/><line class="cls-6" x1="34.27" y1="194.76" x2="34.6" y2="196.29"/><line class="cls-6" x1="33.73" y1="196.91" x2="34.05" y2="198.44"/><path class="cls-13" d="M39,193.32c.44,3.78.3,6.91-.3,7s-1.44-2.92-1.88-6.7-.31-6.91.3-7,1.44,2.93,1.88,6.7"/><path class="cls-6" d="M39.54,193.18c.44,3.83.15,7-.66,7.12s-1.82-2.92-2.26-6.75-.15-7,.65-7.12S39.09,189.35,39.54,193.18Z"/><line class="cls-6" x1="37.19" y1="188.92" x2="38.05" y2="190.27"/><line class="cls-6" x1="37.61" y1="191.25" x2="38.08" y2="191.92"/><line class="cls-6" x1="38.02" y1="194.77" x2="38.89" y2="196.11"/><line class="cls-6" x1="38.27" y1="196.92" x2="39.14" y2="198.26"/><path class="cls-13" d="M20,196.53c-.52,2.77-2.21,4.91-3.78,4.77s-2.42-2.49-1.9-5.26,2.21-4.91,3.78-4.78,2.42,2.5,1.9,5.27"/><path class="cls-6" d="M19.44,196.2c-.4,2.89-2,5.17-3.58,5.09s-2.53-2.49-2.13-5.38,2-5.17,3.58-5.09S19.84,193.31,19.44,196.2Z"/><path class="cls-6" d="M16.69,200.17c-.1.05-.45-.31-.79-.82s-.53-.94-.43-1,.45.31.79.82S16.79,200.12,16.69,200.17Z"/><path class="cls-6" d="M17.15,197.48c-.09.05-.44-.32-.78-.82s-.53-.95-.43-1,.44.32.78.82S17.25,197.43,17.15,197.48Z"/><path class="cls-6" d="M17.8,195.1c-.1.05-.45-.32-.79-.82s-.53-.95-.43-1,.45.32.78.82S17.89,195.05,17.8,195.1Z"/><path class="cls-6" d="M18.89,196.4a.12.12,0,0,1-.15.11.12.12,0,0,1-.12-.12.16.16,0,0,1,.16-.11C18.85,196.29,18.9,196.34,18.89,196.4Z"/><path class="cls-6" d="M16.5,197.88a.16.16,0,0,1-.16.11.13.13,0,0,1-.12-.12.14.14,0,0,1,.16-.11A.12.12,0,0,1,16.5,197.88Z"/><path class="cls-6" d="M18.51,197.71c0,.07-.07.11-.15.11a.12.12,0,0,1-.12-.12.15.15,0,0,1,.16-.11A.11.11,0,0,1,18.51,197.71Z"/><path class="cls-6" d="M17,195.48a.16.16,0,0,1-.16.11c-.07,0-.12-.06-.11-.12a.12.12,0,0,1,.15-.11A.12.12,0,0,1,17,195.48Z"/><path class="cls-6" d="M18.07,199s0,.05-.07.05-.07,0-.06-.06,0-.05.07-.05S18.08,199,18.07,199Z"/><path class="cls-6" d="M17,199.08s0,0-.07,0-.07,0-.06-.06a.06.06,0,0,1,.07,0S17,199.05,17,199.08Z"/><path class="cls-6" d="M16.71,200.76s0,.05-.07.05-.07,0-.06-.06,0-.05.07-.05S16.72,200.73,16.71,200.76Z"/><path class="cls-6" d="M19.16,194.71a.08.08,0,0,1-.08,0,.06.06,0,0,1-.06-.06.09.09,0,0,1,.08-.06A.07.07,0,0,1,19.16,194.71Z"/><path class="cls-13" d="M23.42,194.1v.71A5.6,5.6,0,0,1,24,196.9s2.62,2.41,1.26,2.52-3.36-.92-3.13-1.84-.87-3.45-.26-3.79-.12,0-.12,0,2.58-2.49,3.25-2.32.44.45.44.45,1.9-1.94,3.73-.82.48.79.48.79Z"/><path class="cls-6" d="M23.37,195.59c.3,1.13.19,2.17-.26,2.32s-1.05-.65-1.36-1.78-.19-2.17.26-2.32S23.06,194.46,23.37,195.59Z"/><path class="cls-6" d="M24.71,193.48c-.84.87-1.79,1.31-2.11,1s.12-1.29,1-2.16,1.79-1.3,2.11-1S25.56,192.61,24.71,193.48Z"/><path class="cls-6" d="M27.24,192.94c-1.15.26-2.15.09-2.22-.37s.8-1,1.95-1.3,2.14-.09,2.21.37S28.38,192.68,27.24,192.94Z"/><path class="cls-6" d="M29,194.51c-.78-.84-1.12-1.8-.78-2.13s1.25.08,2,.92,1.12,1.81.77,2.14S29.77,195.36,29,194.51Z"/><path class="cls-6" d="M28.61,196.78c.32-1.17.94-2,1.39-1.92s.54,1.13.22,2.29-.94,2-1.39,1.92S28.29,197.94,28.61,196.78Z"/><path class="cls-6" d="M26.72,198.42c1-.64,2-.84,2.25-.44s-.42,1.24-1.43,1.88-2,.84-2.25.45S25.7,199.06,26.72,198.42Z"/><path class="cls-6" d="M24.16,197.83c1.07.39,1.81,1.07,1.63,1.51s-1.19.5-2.27.11-1.81-1.07-1.63-1.52S23.08,197.44,24.16,197.83Z"/><polygon class="cls-15" points="41.09 192.16 14.1 191.52 13.04 194.4 41.15 193.49 41.09 192.16"/><polygon class="cls-6" points="41.43 191.71 13.66 192.2 13.07 193.63 41.13 193.82 41.43 191.71"/><path class="cls-4" d="M67.37,186.65s4.24-3.23,5.18-1.41c4.89,9.47-1.07,43.59-1.07,43.59l-7.26-2.67s1.31-32.47,3.15-39.51"/><path class="cls-6" d="M67.37,186.65s4.24-3.23,5.18-1.41c4.89,9.47-1.07,43.59-1.07,43.59l-7.26-2.67S65.53,193.69,67.37,186.65Z"/><polygon class="cls-4" points="69.64 197.85 67.58 199.74 67.05 202.32 71.34 201.48 71.18 199.01 69.64 197.85"/><polygon class="cls-6" points="69.64 197.85 67.58 199.74 67.05 202.32 71.34 201.48 71.18 199.01 69.64 197.85"/><line class="cls-4" x1="67.58" y1="199.74" x2="71.18" y2="199.01"/><line class="cls-6" x1="67.58" y1="199.74" x2="71.18" y2="199.01"/><path class="cls-6" d="M66,207.85s.25-.17,1,.16.22,2.19,0,2.18S66.48,207.5,66,207.85Z"/><line class="cls-6" x1="51.01" y1="228.13" x2="57.85" y2="220.59"/><path class="cls-6" d="M12.2,158a3.13,3.13,0,0,0-2.78,2.47C8,165.93,6.68,178.41,8.13,178.84c1.84.55,76.15,2.26,76.15,2.26s-3.56-11.61-5.36-15.41C75,157.47,33.88,157.39,12.2,158Z"/><path class="cls-7" d="M13.19,211.61s-1.31,13.58,1,15.07,30.06,1.73,31,1.28,1.36-15.73.42-16.23-30.08-1-32.49-.12"/><path class="cls-6" d="M13.19,211.61s-1.31,13.58,1,15.07,30.06,1.73,31,1.28,1.36-15.73.42-16.23S15.6,210.71,13.19,211.61Z"/><path class="cls-12" d="M14.8,214s-.26,10,1.39,10.78,26.45,2.6,27.67,1.91,1.53-13.1.59-13.6-27.92-1.44-29.65.91"/><path class="cls-16" d="M14.8,214s-.26,10,1.39,10.78,26.45,2.6,27.67,1.91,1.53-13.1.59-13.6S16.53,211.69,14.8,214Z"/><line class="cls-4" x1="68.04" y1="200.92" x2="70.6" y2="200.3"/><line class="cls-6" x1="68.04" y1="200.92" x2="70.6" y2="200.3"/><path class="cls-17" d="M257.73,238.47s-3.24.46-3,.92S257.38,240.46,257.73,238.47Z"/><path class="cls-1" d="M319.84,91.2c-1.27-.49-4.44-1.59-3.36.34,1.33,2.38,4.63,3.55,4.63,3.55s5.84-5.48,3.08-6.34A3.75,3.75,0,0,0,320.3,90a6.6,6.6,0,0,0-.41,1.31"/><path class="cls-2" d="M319.84,91.2c-1.27-.49-4.44-1.59-3.36.34,1.33,2.38,4.63,3.55,4.63,3.55s5.84-5.48,3.08-6.34A3.75,3.75,0,0,0,320.3,90a6.6,6.6,0,0,0-.41,1.31"/><path class="cls-6" d="M332.55,239s-3-28.64-.31-29.46,34.77-.2,37.43,1,.61,27.61.61,27.61"/><path class="cls-2" d="M15.7,239.57s163.31,2,195.1,1.72,148-2.94,162.91-2.45,134.36,1,134.36,1"/><path class="cls-2" d="M488.42,244s-175.16-1-199.11.24-160.16,1.23-175.86.49S0,245,0,245"/><line class="cls-2" x1="39.65" y1="240.06" x2="39.61" y2="244.71"/><line class="cls-2" x1="61.86" y1="240.06" x2="61.83" y2="244.71"/><line class="cls-2" x1="84.15" y1="240.34" x2="83.9" y2="244.35"/><line class="cls-2" x1="106.32" y1="240.62" x2="106.26" y2="244.71"/><line class="cls-2" x1="128.5" y1="240.71" x2="128.47" y2="244.71"/><line class="cls-2" x1="150.72" y1="240.99" x2="150.62" y2="245.24"/><line class="cls-2" x1="172.99" y1="241.21" x2="172.99" y2="245.33"/><line class="cls-2" x1="195.12" y1="241.51" x2="195.12" y2="245.15"/><line class="cls-2" x1="217.69" y1="241.24" x2="217.33" y2="244.71"/><line class="cls-2" x1="239.62" y1="240.71" x2="239.55" y2="244.71"/><line class="cls-2" x1="261.79" y1="240.06" x2="261.76" y2="244.71"/><line class="cls-2" x1="284.01" y1="240.06" x2="283.97" y2="244.71"/><line class="cls-2" x1="306.12" y1="239.42" x2="306.09" y2="244.06"/><line class="cls-2" x1="328.34" y1="239.26" x2="328.3" y2="243.91"/><line class="cls-2" x1="350.6" y1="239.02" x2="350.57" y2="243.66"/><line class="cls-2" x1="372.82" y1="238.77" x2="372.78" y2="243.41"/><line class="cls-2" x1="395.03" y1="239.11" x2="395" y2="243.75"/><line class="cls-2" x1="417.25" y1="238.98" x2="417.21" y2="243.63"/><line class="cls-2" x1="439.41" y1="239.39" x2="439.38" y2="244.03"/><line class="cls-2" x1="461.46" y1="239.21" x2="461.25" y2="243.68"/><line class="cls-2" x1="483.68" y1="239.51" x2="483.63" y2="243.68"/><polyline class="cls-4" points="341.11 195.07 340.94 200.12 344.14 199.95"/><polyline class="cls-2" points="341.11 195.07 340.94 200.12 344.14 199.95"/><path class="cls-4" d="M346.49,194.71c-.11.49,0,5.64,0,5.64"/><path class="cls-2" d="M346.49,194.71c-.11.49,0,5.64,0,5.64"/><polyline class="cls-4" points="348.69 195.23 351.38 200.28 353.06 194.39"/><polyline class="cls-2" points="348.69 195.23 351.38 200.28 353.06 194.39"/><path class="cls-4" d="M355.42,199.61l-.5-6.23s6.9-2.69,4.71-.17a26.56,26.56,0,0,1-3.53,3.54l4,2.69"/><path class="cls-2" d="M355.42,199.61l-.5-6.23s6.9-2.69,4.71-.17a26.56,26.56,0,0,1-3.53,3.54l4,2.69"/><polyline class="cls-4" points="363.67 193.21 361.14 194.39 361.57 196.46 362.15 199.27 366.03 197.93"/><polyline class="cls-2" points="363.67 193.21 361.14 194.39 361.57 196.46 362.15 199.27 366.03 197.93"/><line class="cls-4" x1="364.01" y1="195.57" x2="361.9" y2="196.56"/><line class="cls-2" x1="364.01" y1="195.57" x2="361.9" y2="196.56"/><path class="cls-4" d="M372.93,193.21s-4.91-2.09-4.46.24c.88,4.56,5.13.1,4.8,3.3s-4.38,1-5.22.17"/><path class="cls-2" d="M372.93,193.21s-4.91-2.09-4.46.24c.88,4.56,5.13.1,4.8,3.3s-4.38,1-5.22.17"/><path class="cls-2" d="M340.21,202.84s29-4.65,33.18-2.75"/><path class="cls-18" d="M239.3,183.36s-2.66,55.7-.67,56.63c0,0,19.15,2,22.6-.13l-.39-56.37s-12.5-6.65-21.54-.13"/><path class="cls-4" d="M243.15,188.41s12.77-2,14.36.13l.93,41.48s-8.51,5.45-16.48-.4Z"/><path class="cls-18" d="M240.11,186.77s-3.13-2.38-3.87-8.48c0,0,0-2.07,1.86-2.27,7.36-.85,22.82-3.09,25.81,2.86l-.45,7s-2.79,1-2.11-.71c.95-2.35-14-4.79-20.5-2-.89.38-.1,2.68-.74,3.57"/><path class="cls-18" d="M239.38,175.47s-2.7-8.8,7.38-12.35a9.65,9.65,0,0,1,8,.85c3.83,2.41,8.23,11.36,3.12,13.77s-18.45-2.27-18.45-2.27"/><path class="cls-2" d="M259.47,231.65c1.2,2.82-17.06,1.18-17.06,1.18-3.56-.3-3.12-.75-3.12-.75l1-49.05s-.09-.56,3.9-1c0,0,15.16-.72,15.25,1.48"/><line class="cls-2" x1="259.56" y1="185.7" x2="259.56" y2="231.82"/><path class="cls-2" d="M239.66,186.59s-8-4.78,5.45-5.67,21.45,2.45,14.78,6"/><path class="cls-2" d="M237.41,178.63c.12-1.18,1.92-3.4,13.7-3.49,0,0,11.33-.18,11.52,4.06"/><path class="cls-2" d="M240.77,175.92s-4.91-4.58,3.48-9.11"/><path class="cls-2" d="M248.44,163.81s-8.56,1.67-2.44,11.33"/><path class="cls-2" d="M252.33,163.81s7.56,2.78,2,11.11"/><path class="cls-2" d="M255.78,166.48s8.83,3.38,3.35,10.34"/><path class="cls-2" d="M248.55,164.36v-1.88s1.34-.56,1.67-.78,1.94.77,1.94.77v1.78Z"/><polygon class="cls-2" points="250.32 161.77 248.89 160.69 250.11 160.14 251.5 160.32 251.22 161.25 250.32 161.77"/><polygon class="cls-2" points="249.97 160.02 250.32 155.62 250.57 160.13 249.97 160.02"/><line class="cls-2" x1="249.56" y1="157.56" x2="251.28" y2="157.56"/><path class="cls-2" d="M259.84,232.88s0,2-11.12,2.15-9.72-2.1-9.72-2.1v3.83"/><path class="cls-2" d="M239,236.42s-1.4,2.3,9.72,2.1,11.12-2.15,11.12-2.15"/><path class="cls-2" d="M239,237.77s-1.4,2.29,9.72,2.09,11.12-2.14,11.12-2.14"/><line class="cls-2" x1="237.41" y1="178.63" x2="237.78" y2="185.84"/><line class="cls-2" x1="259.97" y1="233.01" x2="259.97" y2="238.39"/><path class="cls-2" d="M242.49,187.58s8.73-1.85,15.34.4l-.27,41.77a15.12,15.12,0,0,1-7,1.59,27.63,27.63,0,0,1-8.33-1.06Z"/><line class="cls-2" x1="262.53" y1="178.93" x2="262.53" y2="184.07"/><path class="cls-2" d="M262.12,180.8s-2.09-.14-2,1.07"/><path class="cls-2" d="M262.41,178.41s-3.36-.46-3.19,3.42"/><path class="cls-2" d="M237.71,180.8s2.09-.14,2,1.07"/><path class="cls-2" d="M237.42,178.41s3.36-.46,3.19,3.42"/><polygon class="cls-19" points="333.24 210.93 333.39 220.52 335.75 220.37 335.91 211.08 333.24 210.93"/><polygon class="cls-6" points="333.24 210.93 333.39 220.52 335.75 220.37 335.91 211.08 333.24 210.93"/><polygon class="cls-20" points="336.69 210.93 336.85 220.52 339.53 220.21 338.58 211.08 336.69 210.93"/><polygon class="cls-6" points="336.69 210.93 336.85 220.52 339.53 220.21 338.58 211.08 336.69 210.93"/><polygon class="cls-1" points="340.16 210.93 340.31 220.52 342.52 220.68 341.89 211.08 340.16 210.93"/><polygon class="cls-6" points="340.16 210.93 340.31 220.52 342.52 220.68 341.89 211.08 340.16 210.93"/><polygon class="cls-9" points="343.62 212.73 343.78 220.52 346.29 220.4 345.66 212.86 343.62 212.73"/><polygon class="cls-2" points="343.62 212.73 343.78 220.52 346.29 220.4 345.66 212.86 343.62 212.73"/><polygon class="cls-9" points="361.58 212.45 361.74 220.24 364.26 220.12 363.63 212.58 361.58 212.45"/><polygon class="cls-2" points="361.58 212.45 361.74 220.24 364.26 220.12 363.63 212.58 361.58 212.45"/><polygon class="cls-2" points="347.08 210.93 347.24 220.52 349.28 220.84 348.81 211.08 347.08 210.93"/><polygon class="cls-1" points="349.5 213.06 349.65 220.52 351.54 220.03 351.38 213.06 349.5 213.06"/><polygon class="cls-6" points="349.5 213.06 349.65 220.52 351.54 220.03 351.38 213.06 349.5 213.06"/><polygon class="cls-18" points="354 210.93 354.16 220.52 356.52 220.37 356.68 211.08 354 210.93"/><polygon class="cls-2" points="354 210.93 354.16 220.52 356.52 220.37 356.68 211.08 354 210.93"/><polygon class="cls-19" points="356.92 211.59 359.53 219.86 361.47 220.42 359.55 210.49 356.92 211.59"/><polygon class="cls-6" points="356.92 211.59 359.53 219.86 361.47 220.42 359.55 210.49 356.92 211.59"/><path class="cls-7" d="M331.25,220.73s31.73-.22,39.38-1"/><path class="cls-6" d="M331.25,220.73s31.73-.22,39.38-1"/><polygon class="cls-19" points="333.1 222.36 333.66 230.7 335.88 230.56 336.03 222.21 333.1 222.36"/><polygon class="cls-6" points="333.1 222.36 333.66 230.7 335.88 230.56 336.03 222.21 333.1 222.36"/><polygon class="cls-20" points="336.52 223.52 336.67 230.7 339.19 230.47 338.3 223.63 336.52 223.52"/><polygon class="cls-6" points="336.52 223.52 336.67 230.7 339.19 230.47 338.3 223.63 336.52 223.52"/><polygon class="cls-18" points="339.78 221.66 339.93 230.7 341.96 230.71 341.41 221.81 339.78 221.66"/><polygon class="cls-2" points="339.78 221.66 339.93 230.7 341.96 230.71 341.41 221.81 339.78 221.66"/><polygon class="cls-19" points="333.31 233.67 333.36 236.95 335.24 236.89 335.19 233.78 333.31 233.67"/><polygon class="cls-6" points="333.31 233.67 333.36 236.95 335.24 236.89 335.19 233.78 333.31 233.67"/><polygon class="cls-18" points="347.94 233.55 347.99 236.83 349.86 236.78 349.81 233.66 347.94 233.55"/><polygon class="cls-2" points="347.94 233.55 347.99 236.83 349.86 236.78 349.81 233.66 347.94 233.55"/><polygon class="cls-1" points="351.96 231.56 352.09 236.7 353.97 236.64 353.83 231.67 351.96 231.56"/><polygon class="cls-6" points="351.96 231.56 352.09 236.7 353.97 236.64 353.83 231.67 351.96 231.56"/><polygon class="cls-1" points="336.37 233.48 336.16 236.95 337.91 237.01 337.75 233.54 336.37 233.48"/><polygon class="cls-6" points="336.37 233.48 336.16 236.95 337.91 237.01 337.75 233.54 336.37 233.48"/><polygon class="cls-7" points="338.23 232.29 338.52 236.95 340.27 237.01 339.61 232.35 338.23 232.29"/><polygon class="cls-6" points="338.23 232.29 338.52 236.95 340.27 237.01 339.61 232.35 338.23 232.29"/><polygon class="cls-20" points="340.09 231.89 340.38 236.95 342.13 237.01 341.46 231.95 340.09 231.89"/><polygon class="cls-6" points="340.09 231.89 340.38 236.95 342.13 237.01 341.46 231.95 340.09 231.89"/><polygon class="cls-18" points="347.52 234.73 342.86 235.02 342.8 236.77 347.59 236.65 347.52 234.73"/><polygon class="cls-2" points="347.52 234.73 342.86 235.02 342.8 236.77 347.59 236.65 347.52 234.73"/><polygon class="cls-19" points="347.51 232.96 342.42 233.25 342.36 234.58 347.59 234.46 347.51 232.96"/><polygon class="cls-6" points="347.51 232.96 342.42 233.25 342.36 234.58 347.59 234.46 347.51 232.96"/><polygon class="cls-9" points="358.91 234.73 354.25 235.02 354.19 236.77 358.98 236.65 358.91 234.73"/><polygon class="cls-2" points="358.91 234.73 354.25 235.02 354.19 236.77 358.98 236.65 358.91 234.73"/><polygon class="cls-20" points="358.91 232.96 354.25 233.25 354.19 234.58 358.98 234.46 358.91 232.96"/><polygon class="cls-6" points="358.91 232.96 354.25 233.25 354.19 234.58 358.98 234.46 358.91 232.96"/><polygon class="cls-7" points="363.89 234.59 359.23 234.87 359.17 236.51 363.96 236.39 363.89 234.59"/><polygon class="cls-6" points="363.89 234.59 359.23 234.87 359.17 236.51 363.96 236.39 363.89 234.59"/><polygon class="cls-19" points="363.89 233.21 359.23 233.44 359.17 234.47 363.96 234.38 363.89 233.21"/><polygon class="cls-6" points="363.89 233.21 359.23 233.44 359.17 234.47 363.96 234.38 363.89 233.21"/><polygon class="cls-9" points="343.04 221.66 343.19 230.7 345.56 230.56 344.97 221.81 343.04 221.66"/><polygon class="cls-2" points="343.04 221.66 343.19 230.7 345.56 230.56 344.97 221.81 343.04 221.66"/><polygon class="cls-2" points="346.3 221.66 346.45 230.7 348.26 230.48 347.93 221.81 346.3 221.66"/><polygon class="cls-1" points="349.56 221.66 349.66 230.54 351.49 230.11 351.34 221.66 349.56 221.66"/><polygon class="cls-6" points="349.56 221.66 349.66 230.54 351.49 230.11 351.34 221.66 349.56 221.66"/><polygon class="cls-20" points="369.9 227.65 359.69 227.81 359.55 230 369.9 229.65 369.9 227.65"/><polygon class="cls-6" points="369.9 227.65 359.69 227.81 359.55 230 369.9 229.65 369.9 227.65"/><polygon class="cls-18" points="369.75 225.36 359.54 225.53 360.21 227.54 369.75 227.37 369.75 225.36"/><polygon class="cls-2" points="369.75 225.36 359.54 225.53 360.21 227.54 369.75 227.37 369.75 225.36"/><polygon class="cls-18" points="369.7 223.02 360.25 223.04 360.16 225.2 369.7 225.03 369.7 223.02"/><polygon class="cls-2" points="369.7 223.02 360.25 223.04 360.16 225.2 369.7 225.03 369.7 223.02"/><polygon class="cls-20" points="352.82 223.67 352.97 230.7 355.19 230.59 355.34 223.79 352.82 223.67"/><polygon class="cls-6" points="352.82 223.67 352.97 230.7 355.19 230.59 355.34 223.79 352.82 223.67"/><polygon class="cls-1" points="356.39 221.86 356.31 230.39 358.47 230.23 359.02 221.34 356.39 221.86"/><polygon class="cls-6" points="356.39 221.86 356.31 230.39 358.47 230.23 359.02 221.34 356.39 221.86"/><path class="cls-7" d="M331.25,230.87s31.73-.23,39.38-1"/><path class="cls-2" d="M331.25,230.87s31.73-.23,39.38-1"/><path class="cls-7" d="M331.25,237.12s31.73-.22,39.38-1"/><path class="cls-2" d="M331.25,237.12s31.73-.22,39.38-1"/><path class="cls-2" d="M465.21,160.89c-.17-8.47.27-17.63,2.24-23.59,0,0,4.65-2.34,30.88.17,2.62.25,2.28,35.85,1.69,46.33"/><path class="cls-6" d="M463.77,162.51s34.27-.12,37,0L500,183.8l-34.67-.12Z"/><path class="cls-6" d="M505.1,163.19s34.24-1.4,36.95-1.36l.08,21.28-34.66,1.18Z"/><path class="cls-1" d="M461.21,123.9s1.86-11.58,12.51-13.67S539,112.55,539,112.55l6.49,14.82s-64.61,2.31-84.29-3.47"/><path class="cls-6" d="M461.21,123.9s1.86-11.58,12.51-13.67S539,112.55,539,112.55l6.49,14.82S480.89,129.68,461.21,123.9Z"/><path class="cls-2" d="M461.53,122.07s1.12,4.89,6.42.42c0,0,2.09,4.88,6.42.28,0,0,2.65,5.3,6,.56,0,0,2.1,4.88,5,.28,0,0,2,4.6,6.15.41,0,0,2.51,4.19,7,.28,0,0,2.94,3.91,5.87.14,0,0,3.21,3.91,6,.28a4,4,0,0,0,6.42.14s3.77,4.33,7.53.14c0,0,2.52,3.49,5.72-.14,0,0,2,3.63,5.17,0,0,0,3.21,3.63,5.3,0,0,0,2,2.93,3.91-.28"/><path class="cls-2" d="M464.32,120s1.12,4.88,6.42.42c0,0,2.1,4.88,6.42.28,0,0,2.65,5.3,6,.55,0,0,2.1,4.89,5,.28,0,0,1.95,4.61,6.14.42,0,0,2.51,4.19,7,.28,0,0,2.93,3.91,5.86.14,0,0,3.21,3.91,6,.28a4,4,0,0,0,6.42.14s3.77,4.33,7.54.14c0,0,2.51,3.49,5.72-.14,0,0,1.95,3.63,5.16,0,0,0,3.21,3.63,5.3,0l.05.07"/><path class="cls-2" d="M464.13,120.16c1,.15,2.33-.25,4.24-1.86,0,0,2.09,4.89,6.42.28,0,0,2.65,5.3,6,.56,0,0,2.09,4.88,5,.28,0,0,2,4.6,6.14.42,0,0,2.52,4.18,7,.28,0,0,2.93,3.9,5.86.14,0,0,3.22,3.9,6,.28a4,4,0,0,0,6.42.14s3.76,4.32,7.53.13c0,0,2.51,3.49,5.72-.13,0,0,2,3.62,5.17,0,0,0,3.21,3.62,5.3,0a2.76,2.76,0,0,0,2,1.22"/><path class="cls-2" d="M464.74,115.79s1.12,4.89,6.42.42c0,0,2.09,4.88,6.42.28,0,0,2.65,5.3,6,.56,0,0,2.1,4.88,5,.28,0,0,2,4.6,6.15.41,0,0,2.51,4.19,7,.28,0,0,2.94,3.91,5.87.14,0,0,3.21,3.91,6,.28a4,4,0,0,0,6.42.14s3.76,4.33,7.53.14c0,0,2.52,3.49,5.73-.14,0,0,2,3.63,5.16,0,0,0,2.41,2.73,4.42,1.09"/><path class="cls-2" d="M464.4,115.94c1,.22,2.38-.13,4.39-1.82,0,0,2.09,4.88,6.42.27,0,0,2.65,5.31,6,.56,0,0,2.09,4.89,5,.28,0,0,2,4.61,6.14.42,0,0,2.52,4.19,7,.28,0,0,2.93,3.91,5.86.14,0,0,3.21,3.91,6,.28a4,4,0,0,0,6.41.14s3.77,4.33,7.54.14c0,0,2.51,3.49,5.72-.14,0,0,2,3.63,5.17,0,0,0,1.9,2.15,3.73,1.48"/><path class="cls-2" d="M466.33,113.45c.93.7,2.55.85,5.25-1.43,0,0,2.09,4.89,6.42.28,0,0,2.65,5.3,6,.56,0,0,2.09,4.88,5,.28,0,0,2,4.6,6.14.42,0,0,2.52,4.18,7,.28,0,0,2.93,3.9,5.87.14,0,0,3.2,3.9,6,.28,0,0,3,3.08,6.46-.55,0,0,3.72,5,7.49.82,0,0,2.51,3.49,5.72-.13,0,0,2,3.62,5.17,0a6.22,6.22,0,0,0,1,.86"/><path class="cls-2" d="M470.12,111.25c1,1,2.82,1.82,5.51-1,0,0,2.65,4.55,6-.2,0,0,2.54,5.21,5.07-.27,0,0,1.51,6.71,6.23.2,0,0,2.38,5.71,6.84,1.8,0,0,2.93,3.91,5.86.14,0,0,3.21,3.91,6,.28,0,0,3.29,3.19,6.51-1,0,0,3.77,4.73,7.53.54,0,0,2.43,4.21,5.64.58,0,0,2,3.63,5.17,0,0,0,1.69,1.92,3.42,1.57"/><path class="cls-12" d="M485.5,238.87s-7.9-44.32,7.18-45.59c31.17-2.62,25,30.07,24.83,46.17"/><path class="cls-6" d="M484.27,239.33s-7.81-43.59,11.35-46c24.08-3,25.16,25.22,22.53,46.3"/><path class="cls-3" d="M309,98.62s6.43,3,5.64,3.42-4.55-1.3-4.55-1.3,4.23,2,3.05,2.78-3-.87-3-.87"/><path class="cls-2" d="M309,98.62s6.43,3,5.64,3.42-4.55-1.3-4.55-1.3,4.23,2,3.05,2.78-3-.87-3-.87"/><path class="cls-3" d="M304.62,97.78s13.33-6,9.87.86c-4.78,9.41-13.55-.12-9.28-1.15"/><path class="cls-2" d="M304.62,97.78s13.33-6,9.87.86c-4.78,9.41-13.55-.12-9.28-1.15"/><path class="cls-3" d="M310.4,97.12s-5.93-6.06-5.88-4.66,3.34,5,3.34,5-4.78-5.15-5-4,4.93,5.63,4.93,5.63"/><path class="cls-2" d="M310.4,97.12s-5.93-6.06-5.88-4.66,3.34,5,3.34,5-4.78-5.15-5-4,4.93,5.63,4.93,5.63"/><path class="cls-8" d="M313,96.63a.19.19,0,0,0,.37-.11l0-.14a.2.2,0,0,0-.24-.13.19.19,0,0,0-.13.23Z"/><path class="cls-3" d="M304.92,100.67s-4.27-5.75-4.81-4.28,4.69,4.16,4.69,4.16-6.36-2.34-6-.59,6.32,1,6.32,1"/><path class="cls-2" d="M304.92,100.67s-4.27-5.75-4.81-4.28,4.69,4.16,4.69,4.16-6.36-2.34-6-.59,6.32,1,6.32,1"/><path class="cls-2" d="M304.38,102.43a2.5,2.5,0,0,0,2.57,2.21"/><polyline class="cls-21" points="315.02 96.26 316.04 97.03 315.04 97.46"/><polyline class="cls-2" points="315.02 96.26 316.04 97.03 315.04 97.46"/><path class="cls-22" d="M333.61,98.59s-5.41,4.59-4.52,4.8,4-2.47,4-2.47-3.53,3.09-2.2,3.5,2.65-1.64,2.65-1.64"/><path class="cls-2" d="M333.61,98.59s-5.41,4.59-4.52,4.8,4-2.47,4-2.47-3.53,3.09-2.2,3.5,2.65-1.64,2.65-1.64"/><path class="cls-22" d="M337.64,96.6s-14.44-2.19-9.28,3.46c7.12,7.8,13.08-3.35,8.68-3.2"/><path class="cls-2" d="M337.64,96.6s-14.44-2.19-9.28,3.46c7.12,7.8,13.08-3.35,8.68-3.2"/><path class="cls-22" d="M331.9,97.51s2.72-7.16,3.05-5.81-.52,5.48-.52,5.48S335.16,92,336.3,92c2.68,0-1.37,6.66-1.37,6.66"/><path class="cls-2" d="M331.9,97.51s2.72-7.16,3.05-5.81-.52,5.48-.52,5.48S335.16,92,336.3,92c2.68,0-1.37,6.66-1.37,6.66"/><path class="cls-8" d="M329.24,97.73a.19.19,0,1,1-.37,0v-.15a.19.19,0,1,1,.37,0Z"/><path class="cls-22" d="M338.49,98.91s2.22-6.13,3.13-4.86-3.34,5.24-3.34,5.24,4-4.54,4.13-2.76-4.92,3.47-4.92,3.47"/><path class="cls-2" d="M338.49,98.91s2.22-6.13,3.13-4.86-3.34,5.24-3.34,5.24,4-4.54,4.13-2.76-4.92,3.47-4.92,3.47"/><path class="cls-2" d="M339.43,101.16s1.09,3.69-.36,3.7"/><polyline class="cls-21" points="327.21 97.91 326.44 98.93 327.52 99.08"/><polyline class="cls-2" points="327.21 97.91 326.44 98.93 327.52 99.08"/><path class="cls-3" d="M519.49,196.14s14.93-4.75,18.11-.37c1.89,2.62,1.09,9.15.18,12.43s-7.86,2.2-13,.74-5.86-6.58-5.31-12.8"/><path class="cls-8" d="M519.49,196.14s14.93-4.75,18.11-.37c1.89,2.62,1.09,9.15.18,12.43s-7.86,2.2-13,.74S518.94,202.36,519.49,196.14Z"/><path class="cls-2" d="M520,195.71s6-3.4,18.23-.78c3.27.7,1.1,9.81.18,13.34s-9.44,2.19-14.56.62S519.4,202.38,520,195.71Z"/><path class="cls-2" d="M517.78,194.88s-.1-4.34,21.5-1.65c3.78.47,1.75,11.91.71,16s-11.23,2-17.06.22S517.16,202.64,517.78,194.88Z"/><path class="cls-9" d="M511.6,118.63a9.75,9.75,0,0,1-1.27,4.05,6.66,6.66,0,0,1-3,2.83c-2.65,1.27-6.18,1.13-8.31-.94a7.56,7.56,0,0,1-1.7-2,8.27,8.27,0,0,1-.86-3.91,7.56,7.56,0,0,1,15.11,0"/><path class="cls-2" d="M511.6,118.63a9.75,9.75,0,0,1-1.27,4.05,6.66,6.66,0,0,1-3,2.83c-2.65,1.27-6.18,1.13-8.31-.94a7.56,7.56,0,0,1-1.7-2,8.27,8.27,0,0,1-.86-3.91,7.56,7.56,0,0,1,15.11,0Z"/><path class="cls-3" d="M510.93,118.49a9.06,9.06,0,0,1-1.14,3.82,5.76,5.76,0,0,1-2.83,2.55A5.87,5.87,0,0,1,500,123c-2.35-2.89-2.47-7.4.8-9.86a5.89,5.89,0,0,1,3.49-1.51,6.76,6.76,0,0,1,6.63,6.89"/><path class="cls-8" d="M510.93,118.49a9.06,9.06,0,0,1-1.14,3.82,5.76,5.76,0,0,1-2.83,2.55A5.87,5.87,0,0,1,500,123c-2.35-2.89-2.47-7.4.8-9.86a5.89,5.89,0,0,1,3.49-1.51A6.76,6.76,0,0,1,510.93,118.49Z"/><path class="cls-9" d="M496.53,119.13l-4.89-.22s-.05-13.77,11.89-13.77c10.76,0,14.15,9.17,13.54,13.67l-5.22.11s-1.09-8-7.81-7.84-7.87,5.75-7.51,8"/><path class="cls-2" d="M496.53,119.13l-4.89-.22s-.05-13.77,11.89-13.77c10.76,0,14.15,9.17,13.54,13.67l-5.22.11s-1.09-8-7.81-7.84S496.17,116.83,496.53,119.13Z"/><path class="cls-22" d="M503.85,111.45s.2,13.83-.32,14.66"/><path class="cls-2" d="M503.85,111.45s.2,13.83-.32,14.66"/><path class="cls-22" d="M497,118.25s11.81-.15,14.21.37"/><path class="cls-2" d="M497,118.25s11.81-.15,14.21.37"/><polygon class="cls-12" points="468.32 164.29 470.29 171.48 495.5 171.48 496.72 165.4 468.32 164.29"/><polygon class="cls-2" points="468.26 165.05 470.64 170.84 494.4 171.42 495.49 165.71 468.26 165.05"/><polygon class="cls-12" points="510.25 164.25 512.67 171.29 537.52 169.63 538.36 163.48 510.25 164.25"/><polygon class="cls-2" points="510.24 165 512.98 170.64 536.73 169.72 537.45 163.94 510.24 165"/><path class="cls-2" d="M486.65,215.55s25.65-.82,27.91.07c0,0,.48,5.9-.2,6.51s-27,2.27-27.85.83C486.51,223,485.69,216,486.65,215.55Z"/><path class="cls-2" d="M486.85,213.69s26.48.83,27.16.21c0,0-.84-18.78-14-18.59C493.49,195.41,485.07,196.75,486.85,213.69Z"/><path class="cls-2" d="M487.16,224.93s26.5-1.76,27.68-.78c0,0,2.55,13.74-.2,13.74s-25.91.59-27.09-.79S485.79,225.13,487.16,224.93Z"/><line class="cls-2" x1="471.38" y1="165.15" x2="471.1" y2="162.06"/><line class="cls-2" x1="534.23" y1="165.15" x2="533.95" y2="162.06"/><path class="cls-18" d="M472.36,164.94c.64.07,3.15.38,3.38-.55s-1.5-2.13-2.6-2.07-3.38,3.68-2.17,4.07,6.59,1.11,6-1.34"/><path class="cls-2" d="M472.36,164.94c.64.07,3.15.38,3.38-.55s-1.5-2.13-2.6-2.07-3.38,3.68-2.17,4.07,6.59,1.11,6-1.34"/><path class="cls-18" d="M470.73,162.41c.32-.55,1.57-2.74.8-3.32s-2.54.56-2.91,1.6,2.08,4.54,2.91,3.57,3.58-5.64,1.09-6"/><path class="cls-2" d="M470.73,162.41c.32-.55,1.57-2.74.8-3.32s-2.54.56-2.91,1.6,2.08,4.54,2.91,3.57,3.58-5.64,1.09-6"/><path class="cls-18" d="M468.57,166.59c.21-.4,1-2,.48-2.38s-1.78.46-2,1.21,1.59,3.16,2.16,2.46,2.39-4.1.61-4.32"/><path class="cls-2" d="M468.57,166.59c.21-.4,1-2,.48-2.38s-1.78.46-2,1.21,1.59,3.16,2.16,2.46,2.39-4.1.61-4.32"/><path class="cls-1" d="M467.92,164.66a1.81,1.81,0,1,1,2.38,1,1.81,1.81,0,0,1-2.38-1"/><path class="cls-6" d="M467.92,164.66a1.81,1.81,0,1,1,2.38,1A1.81,1.81,0,0,1,467.92,164.66Z"/><path class="cls-18" d="M476.77,165.42c-.47.4-2.33,2-1.82,2.72s2.46.35,3.14-.46-.35-4.77-1.43-4.18-5.09,3.88-3,5.07"/><path class="cls-2" d="M476.77,165.42c-.47.4-2.33,2-1.82,2.72s2.46.35,3.14-.46-.35-4.77-1.43-4.18-5.09,3.88-3,5.07"/><path class="cls-18" d="M479.61,165.94c.18.58.89,2.9,1.8,2.73s1.27-2.14.79-3.08-4.54-1.52-4.41-.31,1.6,6.21,3.51,4.73"/><path class="cls-2" d="M479.61,165.94c.18.58.89,2.9,1.8,2.73s1.27-2.14.79-3.08-4.54-1.52-4.41-.31,1.6,6.21,3.51,4.73"/><path class="cls-18" d="M478.1,161.69c.15.41.71,2,1.35,1.89s.85-1.55.48-2.2-3.26-1-3.13-.11,1.29,4.36,2.61,3.26"/><path class="cls-2" d="M478.1,161.69c.15.41.71,2,1.35,1.89s.85-1.55.48-2.2-3.26-1-3.13-.11,1.29,4.36,2.61,3.26"/><path class="cls-1" d="M480.8,163.17a1.75,1.75,0,0,1,1,2.24,1.74,1.74,0,1,1-1-2.24"/><path class="cls-6" d="M480.8,163.17a1.75,1.75,0,0,1,1,2.24,1.74,1.74,0,1,1-1-2.24Z"/><path class="cls-23" d="M475.51,162.12a1.74,1.74,0,1,1-2.24,1,1.75,1.75,0,0,1,2.24-1"/><path class="cls-6" d="M475.51,162.12a1.74,1.74,0,1,1-2.24,1A1.75,1.75,0,0,1,475.51,162.12Z"/><path class="cls-18" d="M484.84,166.3c.1.61.47,3,1.4,3s1.56-1.93,1.22-2.93-4.28-2.15-4.32-.93.7,6.37,2.8,5.17"/><path class="cls-2" d="M484.84,166.3c.1.61.47,3,1.4,3s1.56-1.93,1.22-2.93-4.28-2.15-4.32-.93.7,6.37,2.8,5.17"/><path class="cls-18" d="M486.74,164.13c.59.15,2.94.73,3.27-.14s-1.18-2.19-2.23-2.26-3.65,3.11-2.53,3.62,6.13,1.82,5.85-.58"/><path class="cls-2" d="M486.74,164.13c.59.15,2.94.73,3.27-.14s-1.18-2.19-2.23-2.26-3.65,3.11-2.53,3.62,6.13,1.82,5.85-.58"/><path class="cls-18" d="M482.36,164.55c.42.09,2.1.44,2.31-.18s-.89-1.52-1.64-1.54-2.5,2.3-1.7,2.63,4.4,1.13,4.14-.57"/><path class="cls-2" d="M482.36,164.55c.42.09,2.1.44,2.31-.18s-.89-1.52-1.64-1.54-2.5,2.3-1.7,2.63,4.4,1.13,4.14-.57"/><path class="cls-1" d="M490.77,163.35a1.74,1.74,0,1,1-.27,2.44,1.73,1.73,0,0,1,.27-2.44"/><path class="cls-6" d="M490.77,163.35a1.74,1.74,0,1,1-.27,2.44A1.73,1.73,0,0,1,490.77,163.35Z"/><path class="cls-23" d="M486.75,166.57a2.2,2.2,0,1,1-.34,3.09,2.19,2.19,0,0,1,.34-3.09"/><path class="cls-6" d="M486.75,166.57a2.2,2.2,0,1,1-.34,3.09A2.19,2.19,0,0,1,486.75,166.57Z"/><path class="cls-18" d="M529.25,165.26c-.63-.13-3.11-.63-3.41.29s1.33,2.23,2.43,2.26,3.66-3.4,2.48-3.89-6.48-1.62-6.08.86"/><path class="cls-2" d="M529.25,165.26c-.63-.13-3.11-.63-3.41.29s1.33,2.23,2.43,2.26,3.66-3.4,2.48-3.89-6.48-1.62-6.08.86"/><path class="cls-18" d="M530.68,167.9c-.36.53-1.79,2.62-1.06,3.25s2.58-.35,3-1.36S530.93,165.1,530,166s-4,5.34-1.57,5.94"/><path class="cls-2" d="M530.68,167.9c-.36.53-1.79,2.62-1.06,3.25s2.58-.35,3-1.36S530.93,165.1,530,166s-4,5.34-1.57,5.94"/><path class="cls-18" d="M533.16,163.91c-.24.39-1.2,1.91-.66,2.33s1.81-.31,2.1-1-1.33-3.28-2-2.62-2.71,3.89-.95,4.25"/><path class="cls-2" d="M533.16,163.91c-.24.39-1.2,1.91-.66,2.33s1.81-.31,2.1-1-1.33-3.28-2-2.62-2.71,3.89-.95,4.25"/><path class="cls-1" d="M533.53,165.91a1.66,1.66,0,1,1-2.11-1.06,1.67,1.67,0,0,1,2.11,1.06"/><path class="cls-6" d="M533.53,165.91a1.66,1.66,0,1,1-2.11-1.06A1.67,1.67,0,0,1,533.53,165.91Z"/><path class="cls-18" d="M524.89,164.43c.5-.35,2.48-1.76,2-2.57s-2.44-.54-3.17.22,0,4.79,1.09,4.28,5.38-3.47,3.38-4.82"/><path class="cls-2" d="M524.89,164.43c.5-.35,2.48-1.76,2-2.57s-2.44-.54-3.17.22,0,4.79,1.09,4.28,5.38-3.47,3.38-4.82"/><path class="cls-18" d="M522.11,163.7c-.14-.6-.66-3-1.58-2.87s-1.44,2-1,3,4.41,1.87,4.38.65-1.11-6.31-3.13-5"/><path class="cls-2" d="M522.11,163.7c-.14-.6-.66-3-1.58-2.87s-1.44,2-1,3,4.41,1.87,4.38.65-1.11-6.31-3.13-5"/><path class="cls-18" d="M523.27,168.05c-.11-.42-.54-2.09-1.19-2s-1,1.48-.66,2.15,3.18,1.22,3.12.35-.95-4.44-2.35-3.45"/><path class="cls-2" d="M523.27,168.05c-.11-.42-.54-2.09-1.19-2s-1,1.48-.66,2.15,3.18,1.22,3.12.35-.95-4.44-2.35-3.45"/><path class="cls-1" d="M524,165.46a1.6,1.6,0,1,1,2.12-.78,1.6,1.6,0,0,1-2.12.78"/><path class="cls-6" d="M524,165.46a1.6,1.6,0,1,1,2.12-.78A1.6,1.6,0,0,1,524,165.46Z"/><path class="cls-23" d="M528.81,167.4a1.87,1.87,0,1,1,2.47-.91,1.87,1.87,0,0,1-2.47.91"/><path class="cls-6" d="M528.81,167.4a1.87,1.87,0,1,1,2.47-.91A1.87,1.87,0,0,1,528.81,167.4Z"/><path class="cls-18" d="M516.92,162.92c0-.61-.24-3-1.16-3.06s-1.71,1.81-1.45,2.83,4.1,2.48,4.24,1.26-.21-6.4-2.4-5.37"/><path class="cls-2" d="M516.92,162.92c0-.61-.24-3-1.16-3.06s-1.71,1.81-1.45,2.83,4.1,2.48,4.24,1.26-.21-6.4-2.4-5.37"/><path class="cls-18" d="M514.86,164.94c-.58-.19-2.88-1-3.27-.12s1,2.28,2,2.43,3.88-2.82,2.81-3.41-5.2-1.43-5.11,1"/><path class="cls-2" d="M514.86,164.94c-.58-.19-2.88-1-3.27-.12s1,2.28,2,2.43,3.88-2.82,2.81-3.41-5.2-1.43-5.11,1"/><path class="cls-18" d="M519.26,164.86c-.42-.12-2.07-.6-2.32,0s.77,1.59,1.51,1.67,2.68-2.1,1.9-2.49-4.3-1.47-4.17.24"/><path class="cls-2" d="M519.26,164.86c-.42-.12-2.07-.6-2.32,0s.77,1.59,1.51,1.67,2.68-2.1,1.9-2.49-4.3-1.47-4.17.24"/><path class="cls-1" d="M517.75,165.46a1.59,1.59,0,1,1,.42-2.22,1.58,1.58,0,0,1-.42,2.22"/><path class="cls-6" d="M517.75,165.46a1.59,1.59,0,1,1,.42-2.22A1.58,1.58,0,0,1,517.75,165.46Z"/><path class="cls-23" d="M520.66,165.18a2.1,2.1,0,1,1,.55-2.92,2.1,2.1,0,0,1-.55,2.92"/><path class="cls-6" d="M520.66,165.18a2.1,2.1,0,1,1,.55-2.92A2.1,2.1,0,0,1,520.66,165.18Z"/><line class="cls-11" x1="492.62" y1="173.55" x2="481.28" y2="181.08"/><line class="cls-2" x1="492.62" y1="173.55" x2="481.28" y2="181.08"/><line class="cls-11" x1="491.01" y1="172.07" x2="479.67" y2="179.6"/><line class="cls-2" x1="491.01" y1="172.07" x2="479.67" y2="179.6"/><line class="cls-11" x1="479.39" y1="173.6" x2="469.26" y2="180.09"/><line class="cls-2" x1="479.39" y1="173.6" x2="469.26" y2="180.09"/><line class="cls-11" x1="489.11" y1="185.48" x2="480.45" y2="174.98"/><line class="cls-2" x1="489.11" y1="185.48" x2="480.45" y2="174.98"/><line class="cls-11" x1="493.31" y1="183.38" x2="484.64" y2="172.89"/><line class="cls-2" x1="493.31" y1="183.38" x2="484.64" y2="172.89"/><line class="cls-11" x1="474.65" y1="183.43" x2="464.54" y2="171.11"/><line class="cls-2" x1="474.65" y1="183.43" x2="464.54" y2="171.11"/><line class="cls-11" x1="489.18" y1="182.82" x2="480.52" y2="172.32"/><line class="cls-2" x1="489.18" y1="182.82" x2="480.52" y2="172.32"/><line class="cls-11" x1="485.57" y1="172.41" x2="470.63" y2="182.16"/><line class="cls-2" x1="485.57" y1="172.41" x2="470.63" y2="182.16"/><line class="cls-11" x1="495.77" y1="176.43" x2="484.43" y2="183.96"/><line class="cls-2" x1="495.77" y1="176.43" x2="484.43" y2="183.96"/><line class="cls-11" x1="535.95" y1="173.55" x2="524.61" y2="181.08"/><line class="cls-2" x1="535.95" y1="173.55" x2="524.61" y2="181.08"/><line class="cls-11" x1="534.34" y1="172.07" x2="523" y2="179.6"/><line class="cls-2" x1="534.34" y1="172.07" x2="523" y2="179.6"/><line class="cls-11" x1="522.72" y1="173.6" x2="508.6" y2="180.33"/><line class="cls-2" x1="522.72" y1="173.6" x2="508.6" y2="180.33"/><line class="cls-11" x1="524" y1="181.2" x2="516.61" y2="172.53"/><line class="cls-2" x1="524" y1="181.2" x2="516.61" y2="172.53"/><line class="cls-11" x1="536.64" y1="183.38" x2="527.98" y2="172.89"/><line class="cls-2" x1="536.64" y1="183.38" x2="527.98" y2="172.89"/><line class="cls-11" x1="521.33" y1="182.27" x2="508.31" y2="166.93"/><line class="cls-2" x1="521.33" y1="182.27" x2="508.31" y2="166.93"/><line class="cls-11" x1="528.09" y1="181.88" x2="519.42" y2="171.38"/><line class="cls-2" x1="528.09" y1="181.88" x2="519.42" y2="171.38"/><line class="cls-11" x1="528.9" y1="172.41" x2="512.14" y2="181.51"/><line class="cls-2" x1="528.9" y1="172.41" x2="512.14" y2="181.51"/><line class="cls-11" x1="539.1" y1="176.43" x2="530.78" y2="181.84"/><line class="cls-2" x1="539.1" y1="176.43" x2="530.78" y2="181.84"/><line class="cls-11" x1="519.61" y1="182.91" x2="508.16" y2="170.17"/><line class="cls-2" x1="519.61" y1="182.91" x2="508.16" y2="170.17"/><path class="cls-9" d="M532,194.31s.44,7.66,6.48,11.49l-3.83,4.56s2.21,0,2.8-.74,3.68-13.25,1.62-14.28-7.07-1-7.07-1"/><path class="cls-6" d="M532,194.31s.44,7.66,6.48,11.49l-3.83,4.56s2.21,0,2.8-.74,3.68-13.25,1.62-14.28S532,194.31,532,194.31Z"/><path class="cls-9" d="M527.9,194.06s-.68,7.06-6.72,10.46l5.19,4.9s-3.57-.84-4.16-1.49-4-11.3-2-12.22,7.67-1.65,7.67-1.65"/><path class="cls-6" d="M527.9,194.06s-.68,7.06-6.72,10.46l5.19,4.9s-3.57-.84-4.16-1.49-4-11.3-2-12.22S527.9,194.06,527.9,194.06Z"/><path class="cls-2" d="M529.07,194s1.2,13.38-.79,15.83"/><path class="cls-2" d="M539.3,202.56s-16.88,1-20.32-.67"/><path class="cls-24" d="M406.16,46.13l-1.36.31S403,40,404.69,38.61c.86-.67,1.91-1.3,3.61.66,1.37,1.59-.89,6.92-.89,6.92Z"/><path class="cls-10" d="M406.16,46.13l-1.36.31S403,40,404.69,38.61c.86-.67,1.91-1.3,3.61.66,1.37,1.59-.89,6.92-.89,6.92Z"/><line class="cls-7" x1="505.1" y1="163.19" x2="506.4" y2="162.08"/><line class="cls-2" x1="505.1" y1="163.19" x2="506.4" y2="162.08"/><line class="cls-7" x1="463.77" y1="162.51" x2="466.5" y2="160.6"/><line class="cls-2" x1="463.77" y1="162.51" x2="466.5" y2="160.6"/><polyline class="cls-7" points="500.75 162.54 502.57 160.46 501.54 182.83 500.51 183.72"/><polyline class="cls-2" points="500.75 162.54 502.57 160.46 501.54 182.83 500.51 183.72"/><polyline class="cls-2" points="542.05 161.83 542.9 160.16 543.35 180.48 542.13 183.11"/><path class="cls-19" d="M481.85,202.26a1.77,1.77,0,0,1-1.92,2.11h-2.86c-3.81-.14-2.88-5.29,1.16-5.44,2.83-.11,3.44,1.67,3.62,3.33"/><path class="cls-6" d="M481.85,202.26a1.77,1.77,0,0,1-1.92,2.11h-2.86c-3.81-.14-2.88-5.29,1.16-5.44C481.06,198.82,481.67,200.6,481.85,202.26Z"/><path class="cls-6" d="M477.45,201.24s1.16-1.7,1.78-.31-1.7,2.09-1.7,2.09l2.4.23"/><path class="cls-9" d="M16.71,78.32s7.45,1.37,6.74,2-5.06-.14-5.06-.14,4.93,1,3.91,2.07S19,82.18,19,82.18"/><path class="cls-2" d="M16.71,78.32s7.45,1.37,6.74,2-5.06-.14-5.06-.14,4.93,1,3.91,2.07S19,82.18,19,82.18"/><path class="cls-9" d="M11.91,78.62s12.21-9.73,10.44-1.74c-2.44,11-13.9,3.87-9.75,1.66"/><path class="cls-2" d="M11.91,78.62s12.21-9.73,10.44-1.74c-2.44,11-13.9,3.87-9.75,1.66"/><path class="cls-9" d="M17.71,76.4s-6.34-5.18-5.93-3.75,3.4,4.8,3.4,4.8-3.41-4.37-4.46-3.77c-2.49,1.43,4.81,5.45,4.81,5.45"/><path class="cls-2" d="M17.71,76.4s-6.34-5.18-5.93-3.75,3.4,4.8,3.4,4.8-3.41-4.37-4.46-3.77c-2.49,1.43,4.81,5.45,4.81,5.45"/><path class="cls-8" d="M20.29,75.19a.2.2,0,0,0,.27.08.21.21,0,0,0,.08-.28l-.08-.14a.21.21,0,0,0-.28-.07.19.19,0,0,0-.07.27Z"/><path class="cls-9" d="M12.15,81S7,76.72,6.86,78.39s5.6,3.14,5.6,3.14-5.87-2.14-5-.43,5.51.79,5.51.79"/><path class="cls-2" d="M12.15,81S7,76.72,6.86,78.39s5.6,3.14,5.6,3.14-5.87-2.14-5-.43,5.51.79,5.51.79"/><path class="cls-2" d="M12.68,83.8s2.12,2.08,3.47,1.31"/><polyline class="cls-21" points="22.17 73.84 23.43 74.37 22.51 75.08"/><polyline class="cls-2" points="22.17 73.84 23.43 74.37 22.51 75.08"/><path class="cls-9" d="M86.62,36.37c-.45,9.64-9,19.54-18.43,21.46C56.51,60.2,46.36,47.18,46.36,36.38c0-6.65,4.61-16.63,11.35-19.17,10.28-3.85,26.36,2,28.48,13.09a25.45,25.45,0,0,1,.43,6.07"/><path class="cls-2" d="M86.62,36.37c-.45,9.64-9,19.54-18.43,21.46C56.51,60.2,46.36,47.18,46.36,36.38c0-6.65,4.61-16.63,11.35-19.17,10.28-3.85,26.36,2,28.48,13.09A25.45,25.45,0,0,1,86.62,36.37Z"/><line class="cls-2" x1="47.06" y1="42.16" x2="54.21" y2="85.69"/><path class="cls-2" d="M85.34,42.47S74.42,84.34,75.28,92.82"/><path class="cls-13" d="M51.65,86.94s17-7.63,27.66-2.74L74,106.33l-16.13.12Z"/><path class="cls-6" d="M51,86.11s17.31-5.81,27.94-.92l-5.6,20.58-13.81.75Z"/><path class="cls-2" d="M51,88.37S71.3,83.1,78,87.11"/><line class="cls-2" x1="74.06" y1="100" x2="70.38" y2="104.93"/><line class="cls-2" x1="74.73" y1="96.82" x2="68.29" y2="104.77"/><line class="cls-2" x1="71.98" y1="97.26" x2="65.54" y2="105.2"/><line class="cls-2" x1="72.96" y1="100.05" x2="63.35" y2="96.55"/><line class="cls-2" x1="71.86" y1="105.01" x2="62.25" y2="101.51"/><line class="cls-2" x1="69.85" y1="95.79" x2="60.24" y2="92.29"/><path class="cls-4" d="M67.81,16.45s-12.45,19.69-3,41.08c0,0,9-29.44,3-41.08"/><path class="cls-4" d="M64.8,16.91s-21.29,18.35.08,40.61c0,0-35-23.74-.08-40.61"/><path class="cls-4" d="M67.76,16.91s21.14,18.35-.23,40.61c0,0,35.19-23.74.23-40.61"/><path class="cls-2" d="M66.56,15.32s2.88,18.06-.23,70.36"/><path class="cls-3" d="M10.91,55.6a15,15,0,0,0,6.25,1.58h4.22c7.21,0,13.65.27,20.86.27,2.78,0,6.57-.07,8.77-2.12,2.61-2.45,5.7-6,4.31-9.19-1.46-3.3-4.94-6-8.14-7.45a16.28,16.28,0,0,0-.28-7.22c-2-6.21-10.44-8.72-16.95-7.79a19.05,19.05,0,0,0-5.24,1.49A18.85,18.85,0,0,0,17,32.06a10.94,10.94,0,0,0-1.36,9.76C14.8,39.36,11.46,39.3,9.5,40,6.31,41,3.59,44.3,4,47.73c.45,3.72,3.74,6.35,6.92,7.87"/><path class="cls-8" d="M11.43,57a45.93,45.93,0,0,0,5.26.16c3.35,0,6.7,0,10,0,5,.1,10,.33,15,.41,3.39,0,6.74.22,9.57-2a9.73,9.73,0,0,0,3.8-8.91,9.43,9.43,0,0,0-3-5.29c-1-.89-4.9-3-5-2.69.58-2.28-.41-5.32-.61-6a12.78,12.78,0,0,0-14.21-9,19.08,19.08,0,0,0-5.23,1.49,18.85,18.85,0,0,0-7.68,6.89,10.51,10.51,0,0,0-1.22,10c-.49-1.07-2.68-2.26-3.71-2.71A8.09,8.09,0,0,0,10,38.85a9.77,9.77,0,0,0-7.27,5.26c-2.32,5,0,9.8,4.9,11.9A13,13,0,0,0,11.43,57Z"/><path class="cls-2" d="M50.24,86.65S48.69,103,57.75,83.24c0,0-2.12,16.64,10.11,15.55,6.26-.55,4.54-16.45,4.54-16.45s5.94,18.08,7.21,13.26-.7-10.41-.7-10.41"/><path class="cls-9" d="M50.43,94.26s-9.39.16-5.66,4.8,5.66-4.8,5.66-4.8"/><path class="cls-2" d="M50.43,94.26s-9.39.16-5.66,4.8S50.43,94.26,50.43,94.26Z"/><path class="cls-9" d="M50.43,94.15S50,91.64,50,91.45s2.32.83,2.32.83Z"/><path class="cls-2" d="M50.43,94.15S50,91.64,50,91.45s2.32.83,2.32.83Z"/><path class="cls-9" d="M78.87,96.45s-5.21,7.37.74,7.29-.74-7.29-.74-7.29"/><path class="cls-2" d="M78.87,96.45s-5.21,7.37.74,7.29S78.87,96.45,78.87,96.45Z"/><path class="cls-9" d="M79,96.57s-1.28-2.2-1.29-2.41a10.12,10.12,0,0,1,2.46,0Z"/><path class="cls-2" d="M79,96.57s-1.28-2.2-1.29-2.41a10.12,10.12,0,0,1,2.46,0Z"/><line class="cls-2" x1="67.51" y1="92.47" x2="61.07" y2="100.41"/><path class="cls-2" d="M86.73,33.81s-5.31,12.38-15.22,13.8"/><path class="cls-2" d="M86.11,39.52S80.8,51.9,70.89,53.32"/><path class="cls-2" d="M85.61,28.48S80.3,40.86,70.4,42.28"/><path class="cls-2" d="M80.48,32.22s3,13.13-4.18,20.1"/><path class="cls-2" d="M79.34,24.76a18.72,18.72,0,0,1,6,15.6"/><path class="cls-2" d="M76.58,30.8s3,13.14-4.18,20.11"/><path class="cls-2" d="M60.93,57.88s1.88,20.53,1,25.49"/><path class="cls-2" d="M50.7,74.33S75.4,72,79.45,72.76"/><path class="cls-9" d="M529.38,243s20.7.27,21.88.66a2.94,2.94,0,0,1-.26,5.13c-3.82,2-19.12,4.57-20.81,4.37s-8.42-7.1-.81-10.16"/><path class="cls-2" d="M518.88,254.73c0,9.73-11.11,16.36-19.91,13.54-2.45-.78-6-2.49-7.69-4.45-2.69-3.06-4.15-8.71-3.14-12.63a14.62,14.62,0,0,1,8.2-9.78,20.72,20.72,0,0,1,7-.86C511.92,240.55,518.88,246.89,518.88,254.73Z"/><path class="cls-2" d="M516.69,254.3c0,8.76-9.71,14.74-17.4,12.2-2.14-.7-5.21-2.24-6.72-4a14.33,14.33,0,0,1-2.75-11.37,13.09,13.09,0,0,1,7.17-8.81,17.65,17.65,0,0,1,6.12-.78C510.61,241.53,516.69,247.25,516.69,254.3Z"/><path class="cls-2" d="M563.73,254.3c0,8.76-9.71,14.74-17.41,12.2-2.14-.7-5.21-2.24-6.72-4a14.36,14.36,0,0,1-2.74-11.37,13.07,13.07,0,0,1,7.16-8.81,17.68,17.68,0,0,1,6.12-.78C557.64,241.53,563.73,247.25,563.73,254.3Z"/><path class="cls-2" d="M565.38,254.72a15.17,15.17,0,0,1-1.55,6.25c-1.18,2.43-4.85,5.19-7.17,6.47a13,13,0,0,1-8.55,1.36c-5.49-.9-11.9-4.51-13.16-10.35-2.08-9.71,5.3-17.9,15-17.9a16.21,16.21,0,0,1,13.18,6.66A12.35,12.35,0,0,1,565.38,254.72Z"/><path class="cls-2" d="M539.61,231.53c-1.19,4.45-7.78,25.3-8.87,24.41s-20.24-20-20.53-20"/><path class="cls-2" d="M511.65,230.51l11.83,15.85s6.56,4.58,11.31-.67"/><path class="cls-2" d="M529,242.93s20.28-.8,21.46-.4,4.06,3.56.1,5.24-19.49,4.46-21.17,4.26S521.39,246,529,242.93Z"/><path class="cls-25" d="M514.71,222.27s-1.56-.49-.91-1.73c.84-1.57,2.05-1.26,2.05-1.26l1.13,1.43"/><path class="cls-1" d="M498,225.9l1.07,12.88s6.12-.41,8.58.41l5-12.64S499.37,223,498,225.9"/><path class="cls-6" d="M498,225.9l1.07,12.88s6.12-.41,8.58.41l5-12.64S499.37,223,498,225.9Z"/><polyline class="cls-2" points="530.69 247.87 522.58 253.02 525.54 253.41 523.23 255.02 522.2 253.98"/><path class="cls-9" d="M536.94,247.18l-.69-.82s3.33-10.12,18.8-7a16.49,16.49,0,0,1,12,11.83l-1.51,1.06s-11.87-20.82-28.55-5.09"/><path class="cls-2" d="M536.94,247.18l-.69-.82s3.33-10.12,18.8-7a16.49,16.49,0,0,1,12,11.83l-1.51,1.06S553.62,231.45,536.94,247.18Z"/><path class="cls-9" d="M490.4,246l-.69-.82s3.33-10.12,18.8-7c0,0,8.25.75,10.83,10.69l-.89,1.16S506.63,231.25,490.4,246"/><path class="cls-2" d="M490.4,246l-.69-.82s3.33-10.12,18.8-7c0,0,8.25.75,10.83,10.69l-.89,1.16S506.63,231.25,490.4,246Z"/><path class="cls-1" d="M540.81,229s-5.2-.59-5.79,1.19,3.56,3.26,6.82,2.52,1.78-3-1-3.71"/><path class="cls-6" d="M540.81,229s-5.2-.59-5.79,1.19,3.56,3.26,6.82,2.52S543.62,229.77,540.81,229Z"/><path class="cls-25" d="M531.81,247.21a1.39,1.39,0,0,1-2.76,0,1.39,1.39,0,0,1,2.76,0"/><path class="cls-7" d="M503.62,245.14a2.07,2.07,0,1,1-2.07-2.07,2.07,2.07,0,0,1,2.07,2.07"/><path class="cls-6" d="M503.62,245.14a2.07,2.07,0,1,1-2.07-2.07A2.07,2.07,0,0,1,503.62,245.14Z"/><path class="cls-7" d="M552.72,245.14a2.07,2.07,0,1,1-2.06-2.07,2.07,2.07,0,0,1,2.06,2.07"/><path class="cls-6" d="M552.72,245.14a2.07,2.07,0,1,1-2.06-2.07A2.07,2.07,0,0,1,552.72,245.14Z"/><path class="cls-18" d="M505.64,220.9c-.44-.74-2.19-3.68-3.38-3.15s-1,3.36-.06,4.49,6.73.57,6.15-1.05-4.27-8-6.4-5.31"/><path class="cls-2" d="M505.64,220.9c-.44-.74-2.19-3.68-3.38-3.15s-1,3.36-.06,4.49,6.73.57,6.15-1.05-4.27-8-6.4-5.31"/><path class="cls-18" d="M504.29,224.74c-.85.12-4.24.59-4.21,1.9s2.69,2.25,4.11,1.79,3.14-6,1.42-6.08-9,.84-7.37,3.84"/><path class="cls-2" d="M504.29,224.74c-.85.12-4.24.59-4.21,1.9s2.69,2.25,4.11,1.79,3.14-6,1.42-6.08-9,.84-7.37,3.84"/><path class="cls-18" d="M510.55,223.6c-.6.1-3,.53-2.94,1.45s2,1.53,3,1.17,2.07-4.33.85-4.35-6.36.83-5.13,2.91"/><path class="cls-2" d="M510.55,223.6c-.6.1-3,.53-2.94,1.45s2,1.53,3,1.17,2.07-4.33.85-4.35-6.36.83-5.13,2.91"/><path class="cls-23" d="M508.49,224.1a1.66,1.66,0,1,1-.63-2.26,1.66,1.66,0,0,1,.63,2.26"/><path class="cls-6" d="M508.49,224.1a1.66,1.66,0,1,1-.63-2.26A1.66,1.66,0,0,1,508.49,224.1Z"/><path class="cls-23" d="M502.75,222.45a1.66,1.66,0,1,1-.63-2.26,1.66,1.66,0,0,1,.63,2.26"/><path class="cls-6" d="M502.75,222.45a1.66,1.66,0,1,1-.63-2.26A1.66,1.66,0,0,1,502.75,222.45Z"/><path class="cls-23" d="M508.67,216.81a2.08,2.08,0,1,1-.79-2.84,2.09,2.09,0,0,1,.79,2.84"/><path class="cls-6" d="M508.67,216.81a2.08,2.08,0,1,1-.79-2.84A2.09,2.09,0,0,1,508.67,216.81Z"/><polyline class="cls-2" points="539.01 233.01 537.66 232.86 530.96 255.32"/><path class="cls-1" d="M517.58,220.3s6.29,1.6,6,3.43c-.2,1.2-8.61-.4-6-3.43"/><path class="cls-2" d="M501.42,254.08s4-3.76,4.45-4.55,7.22-26.21,9-27.9,6.53-.59,7.52.5-.39,1.38-.39,1.38-5-1-5-1.48"/><line class="cls-26" x1="530.43" y1="247.21" x2="535.27" y2="260.86"/><line class="cls-2" x1="530.43" y1="247.21" x2="535.27" y2="260.86"/><polygon class="cls-4" points="138.44 257.34 138.17 260.16 138.68 263.56 135.38 263.56 134.69 258.26 124.59 255.69 122.05 263.55 118.48 263.46 120.44 253.04 120.25 246.5 121.65 249.6 135.78 250.49 140.99 244.73 150.22 250.75 145.96 255.5 141.45 254.09 138.44 257.34"/><polygon class="cls-2" points="138.44 257.34 138.17 260.16 138.68 263.56 135.38 263.56 134.69 258.26 124.59 255.69 122.05 263.55 118.48 263.46 120.44 253.04 120.25 246.5 121.65 249.6 135.78 250.49 140.99 244.73 150.22 250.75 145.96 255.5 141.45 254.09 138.44 257.34"/><polygon class="cls-1" points="141.35 245.17 136 241.04 134.41 241.61 139.59 246.71 141.35 245.17"/><polygon class="cls-2" points="141.35 245.17 136 241.04 134.41 241.61 139.59 246.71 141.35 245.17"/><path class="cls-2" d="M144.9,240.61c-.35-.16-1.42-.51-1.42-.51l.76.94"/><polyline class="cls-4" points="142.79 245.88 140.69 241.62 139.36 246.57"/><polyline class="cls-2" points="142.79 245.88 140.69 241.62 139.36 246.57"/><polygon class="cls-25" points="148.24 241.26 148.41 243.75 149.62 241.85 148.24 241.26"/><path class="cls-23" d="M140.55,245.84s1.74,2.09-.06,2.71,0-2.6,0-2.6"/><path class="cls-6" d="M140.55,245.84s1.74,2.09-.06,2.71,0-2.6,0-2.6"/><path class="cls-22" d="M499.75,104.82l2.46,6.46,4.19,0,2.21-6s-3.06-3.06-8.86-.53"/><path class="cls-2" d="M499.75,104.82l2.46,6.46,4.19,0,2.21-6S505.55,102.29,499.75,104.82Z"/><polyline class="cls-2" points="336.06 102.14 336.65 103.48 335.46 103.78 338.14 102.5 336.09 100.97"/><line class="cls-2" x1="538.54" y1="60.69" x2="538.28" y2="64.97"/><path class="cls-2" d="M537.12,60.43s6.35-1.43,5.7.39-3.89,1.94-3.89,1.94"/><line class="cls-2" x1="545.02" y1="60.43" x2="542.82" y2="65.36"/><line class="cls-2" x1="545.02" y1="60.43" x2="548.27" y2="66.91"/><line class="cls-2" x1="543.6" y1="63.28" x2="546.71" y2="63.54"/><line class="cls-2" x1="549.69" y1="61.34" x2="549.95" y2="66.78"/><path class="cls-2" d="M548.52,61.6s6.49-1,5.71.91-4,1.55-4,1.55l4,2.72"/><path class="cls-2" d="M523.51,62.28s.4,2.1-.24,2.34"/><path class="cls-12" d="M387.43,216.89s7.12-9.3,16.93-9.3,17.22,6.94,17.22,9.3c0,0-20.19-10.46-30.5,13.61l-4.83.52Z"/><path class="cls-2" d="M389.2,214.49c6.31-5.68,14.58-9.06,22.86-5.62,8.8,3.65,16,13.14,16.85,22.66"/><path class="cls-22" d="M539.9,238.59h21.72s1.79-.49-.22-.71-23.15-1.26-21.5.71"/><path class="cls-2" d="M539.9,238.59h21.72s1.79-.49-.22-.71S538.25,236.62,539.9,238.59Z"/><line class="cls-11" x1="410.54" y1="93.53" x2="402" y2="99.96"/><line class="cls-2" x1="410.54" y1="93.53" x2="402" y2="99.96"/><line class="cls-11" x1="409.05" y1="90.16" x2="400.5" y2="96.6"/><line class="cls-2" x1="409.05" y1="90.16" x2="400.5" y2="96.6"/><line class="cls-11" x1="408.46" y1="93.38" x2="399.91" y2="99.82"/><line class="cls-2" x1="408.46" y1="93.38" x2="399.91" y2="99.82"/><line class="cls-11" x1="403.67" y1="87.98" x2="409.19" y2="97.15"/><line class="cls-2" x1="403.67" y1="87.98" x2="409.19" y2="97.15"/><polyline class="cls-7" points="161.4 153.12 151.28 158.62 164.85 156.62"/><polyline class="cls-6" points="161.4 153.12 151.28 158.62 164.85 156.62"/><path class="cls-4" d="M168.66,157.12s-3.46,2.58-6.14-.33,3.55-1.24,6.14.33"/><path class="cls-18" d="M184.65,152.86s-3.87-5.18-.56-5.19,2.15,4.17.56,5.19"/><path class="cls-2" d="M184.65,152.86s-3.87-5.18-.56-5.19S186.24,151.84,184.65,152.86Z"/><path class="cls-27" d="M176.1,150.49s-6,.66-4.36-1.87,4.34.2,4.36,1.87"/><path class="cls-7" d="M165.88,223.19s7.25-56.25-.61-65.92S148,146.33,148,146.33s11.46,1.36,18.65,2.71.47-18.24.47-18.24l6,13.69,18-5.39a30,30,0,0,0-13.41,9.74c-6.21,7.67,23.06,3.81,23.06,3.81l-24.12,4.43,18.74,2.81s-13.8,2.59-18.25,1.71c-6.85-1.37,4.08,62.27,4.08,62.27s-6.53,3.59-15.36-.68"/><path class="cls-2" d="M165.88,223.19s7.25-56.25-.61-65.92S148,146.33,148,146.33s11.46,1.36,18.65,2.71.47-18.24.47-18.24l6,13.69,18-5.39a30,30,0,0,0-13.41,9.74c-6.21,7.67,23.06,3.81,23.06,3.81l-24.12,4.43,18.74,2.81s-13.8,2.59-18.25,1.71c-6.85-1.37,4.08,62.27,4.08,62.27S174.71,227.46,165.88,223.19Z"/><path class="cls-4" d="M168.09,164.21s-7.45-1.47-4.62-4.54c1.78-1.93,3.87,1.51,4.62,4.54"/><path class="cls-6" d="M168.09,164.21s-7.45-1.47-4.62-4.54C165.25,157.74,167.34,161.18,168.09,164.21Z"/><path class="cls-18" d="M185.94,140.23s-.9-7.54,2.89-5.81c2.39,1.1-.24,4.15-2.89,5.81"/><path class="cls-2" d="M185.94,140.23s-.9-7.54,2.89-5.81C191.22,135.52,188.59,138.57,185.94,140.23Z"/><path class="cls-6" d="M184.55,152.26s.91-5.67,3.3-3.62C189.36,149.93,186.82,151.61,184.55,152.26Z"/><path class="cls-6" d="M176,150.59s-4.53,5.1-5.63,1.52C169.71,149.85,173.33,149.79,176,150.59Z"/><path class="cls-6" d="M176.28,150.86s-6.32-1.47-3.38-3.57C174.75,146,176.07,148.6,176.28,150.86Z"/><path class="cls-4" d="M170.55,140.19s2.79-5.89,5.27-3.38c1.56,1.58-2.18,3-5.27,3.38"/><path class="cls-6" d="M170.55,140.19s2.79-5.89,5.27-3.38C177.38,138.39,173.64,139.81,170.55,140.19Z"/><path class="cls-4" d="M187.18,140.59s3.55-3.43,6.47-.45-3.7,1.9-6.47.45"/><path class="cls-6" d="M187.18,140.59s3.55-3.43,6.47-.45S190,142,187.18,140.59Z"/><path class="cls-4" d="M167.35,146.71s-4.24-2.53-2.13-6.12,2.8,3.07,2.13,6.12"/><path class="cls-6" d="M167.35,146.71s-4.24-2.53-2.13-6.12S168,143.66,167.35,146.71Z"/><path class="cls-4" d="M179.89,144.67s5.73-4.83,7.34-.42-5.07,2.61-7.34.42"/><path class="cls-6" d="M179.89,144.67s5.73-4.83,7.34-.42S182.16,146.86,179.89,144.67Z"/><path class="cls-4" d="M168.46,136.37s-7.49.31-6.05-4.17,5.6,1.05,6.05,4.17"/><path class="cls-6" d="M168.46,136.37s-7.49.31-6.05-4.17S168,133.25,168.46,136.37Z"/><path class="cls-4" d="M167.54,148.39s-7.5-.13-5.81-4.52,5.54,1.38,5.81,4.52"/><path class="cls-28" d="M155.28,147.17c0,.06-.15.1-.32.09s-.32-.06-.31-.11.14-.1.32-.09.31.06.31.11"/><path class="cls-8" d="M155.28,147.17c0,.06-.15.1-.32.09s-.32-.06-.31-.11.14-.1.32-.09S155.28,147.12,155.28,147.17Z"/><path class="cls-4" d="M168.73,165.09s-6.75,3.49-6.45-.67c.19-2.62,4-1.23,6.45.67"/><path class="cls-6" d="M168.73,165.09s-6.75,3.49-6.45-.67C162.47,161.8,166.25,163.19,168.73,165.09Z"/><path class="cls-18" d="M168.58,165.18s-5.5,5-6.32,1,4.65-2.89,6.32-1"/><path class="cls-2" d="M168.58,165.18s-5.5,5-6.32,1S166.91,163.33,168.58,165.18Z"/><path class="cls-18" d="M167.88,148.47s-7.43,1-6.44-3.56,5.68.49,6.44,3.56"/><path class="cls-2" d="M167.88,148.47s-7.43,1-6.44-3.56S167.12,145.4,167.88,148.47Z"/><path class="cls-6" d="M167.55,148.36s-7.49-.13-5.8-4.51S167.28,145.22,167.55,148.36Z"/><path class="cls-18" d="M185.44,140.75s-5.61-2.83-2.78-5.89,3.69,3.16,2.78,5.89"/><path class="cls-2" d="M185.44,140.75s-5.61-2.83-2.78-5.89S186.35,138,185.44,140.75Z"/><path class="cls-18" d="M168.39,135.84s-7.49.3-6.06-4.17,5.61,1.05,6.06,4.17"/><path class="cls-2" d="M168.39,135.84s-7.49.3-6.06-4.17S167.94,132.72,168.39,135.84Z"/><path class="cls-18" d="M179.21,159.58s6.32,3.94,2.7,5.81-4-3.71-2.7-5.81"/><path class="cls-2" d="M179.21,159.58s6.32,3.94,2.7,5.81S177.88,161.68,179.21,159.58Z"/><path class="cls-4" d="M179.1,159.6s4.29-.46,5.12,3.42-3.69-.75-5.12-3.42"/><path class="cls-6" d="M179.1,159.6s4.29-.46,5.12,3.42S180.53,162.27,179.1,159.6Z"/><path class="cls-18" d="M158.6,148s-6.11-4.25-2.41-5.93S160,146,158.6,148"/><path class="cls-2" d="M158.6,148s-6.11-4.25-2.41-5.93S160,146,158.6,148Z"/><path class="cls-18" d="M158.71,148s-4.31.24-4.94-3.67,3.65.93,4.94,3.67"/><path class="cls-2" d="M158.71,148s-4.31.24-4.94-3.67S157.42,145.24,158.71,148Z"/><path class="cls-18" d="M153,147.77s-3,6.81-5.37,3.48,3.1-4.51,5.37-3.48"/><path class="cls-2" d="M153,147.77s-3,6.81-5.37,3.48S150.75,146.74,153,147.77Z"/><path class="cls-18" d="M168.72,157.4s-5.95,2.7-5.53-.84,4.66-1.14,5.53.84"/><path class="cls-2" d="M168.72,157.4s-5.95,2.7-5.53-.84S167.85,155.42,168.72,157.4Z"/><path class="cls-6" d="M168.66,157.12s-3.46,2.58-6.14-.33S166.07,155.55,168.66,157.12Z"/><path class="cls-4" d="M179.25,159.48s-.33-2.6,2-3.15-.41,2.24-2,3.15"/><path class="cls-29" d="M179.08,159.43s.35-4,2.1-2.67-.79,2.8-2.1,2.67"/><path class="cls-2" d="M179.08,159.43s.35-4,2.1-2.67S180.39,159.56,179.08,159.43Z"/><path class="cls-18" d="M179.25,159.48s-.33-2.6,2-3.15-.41,2.24-2,3.15"/><path class="cls-2" d="M179.25,159.48s-.33-2.6,2-3.15S180.85,158.57,179.25,159.48Z"/><path class="cls-4" d="M168.83,156.94s1.77,1.94.17,3.73-1-2.07-.17-3.73"/><path class="cls-30" d="M169,156.89s2,3.43-.18,3.39-1-2.75.18-3.39"/><path class="cls-2" d="M169,156.89s2,3.43-.18,3.39S167.85,157.53,169,156.89Z"/><path class="cls-6" d="M168.83,156.94s1.77,1.94.17,3.73S168,158.6,168.83,156.94Z"/><polyline class="cls-6" points="200.04 217.25 199.78 228.87 193.97 229.71 209.37 229.55 202.18 228.82 201.25 217.99"/><path class="cls-18" d="M193.34,215.73s10.34-.86,14.49.18c3.85,1,2.36,2.29-9.48,2.48s-8.07-2.4-5-2.66"/><polygon class="cls-7" points="227.37 232 227.58 164.69 224.22 161 221.83 154.54 236.35 153.65 232.63 160.51 228.9 164.05 228.66 231.8 227.37 232"/><polygon class="cls-2" points="227.37 232 227.58 164.69 224.22 161 221.83 154.54 236.35 153.65 232.63 160.51 228.9 164.05 228.66 231.8 227.37 232"/><polygon class="cls-12" points="220.99 155.17 223.59 145.44 233.7 145.39 235.76 153.67 220.99 155.17"/><polygon class="cls-2" points="221.68 155.07 225.26 145.49 232.37 145.29 236.45 153.57 221.68 155.07"/><polygon class="cls-6" points="226.61 145.47 223.71 155.12 227.16 163.08 229.88 163.2 233.96 154.4 230.96 145.53 226.61 145.47"/><path class="cls-7" d="M226.61,145.43l4.35.1s.2-1.36-.31-1.67-1.24-.67-1.24-.67l-.32-1.34-.56-.08.08,1.29a2.89,2.89,0,0,0-2,2.37"/><path class="cls-2" d="M226.61,145.43l4.35.1s.2-1.36-.31-1.67-1.24-.67-1.24-.67l-.32-1.34-.56-.08.08,1.29A2.89,2.89,0,0,0,226.61,145.43Z"/><polygon class="cls-12" points="227.02 229.8 224.61 232.1 232.01 231.88 229.22 230.08 227.02 229.8"/><polygon class="cls-6" points="227.02 229.8 224.61 232.1 232.01 231.88 229.22 230.08 227.02 229.8"/><path class="cls-7" d="M156.34,178.87c.25,18.08-1.75,43.89-2.07,49.08,0,0-45.4.15-58-1.13-1.64-.16-5.45.06-5.46-3.62,0,0-1.82-28.6-1.41-46.92"/><path class="cls-6" d="M156.34,178.87c.25,18.08-1.75,43.89-2.07,49.08,0,0-45.4.15-58-1.13-1.64-.16-5.45.06-5.46-3.62,0,0-1.82-28.6-1.41-46.92"/><path class="cls-4" d="M93.24,224.39s-1.43-34.95.42-36.5,28.85-2.42,30.43.39-1.13,36.86-1.59,37.91-21.36-.14-22.07-.12c-7.6.23-7.19-1.68-7.19-1.68"/><path class="cls-6" d="M93.24,224.39s-1.43-34.95.42-36.5,28.85-2.42,30.43.39-1.13,36.86-1.59,37.91-21.36-.14-22.07-.12C92.83,226.3,93.24,224.39,93.24,224.39Z"/><path class="cls-7" d="M150.44,227.27c6.36-41.5,1.37-43.84,1.37-43.84a53.25,53.25,0,0,0-16.45-1.57c-9.92.46-6.92,45.18-6.92,45.18"/><path class="cls-6" d="M150.44,227.27c6.36-41.5,1.37-43.84,1.37-43.84a53.25,53.25,0,0,0-16.45-1.57c-9.92.46-6.92,45.18-6.92,45.18"/><path class="cls-19" d="M98,155.56s-9.7.62-10.2,3.33c-1,5.56-1.82,17.24-.37,17.68,1.83.56,76.13,2.81,76.13,2.81s-3.23-15.62-5-19.45c-4.2-9.24-39-5.3-60.59-4.37"/><path class="cls-4" d="M146.62,184.81s4.26-3.2,5.19-1.38c4.82,9.51-1.39,43.59-1.39,43.59l-7.24-2.72s1.55-32.46,3.44-39.49"/><path class="cls-6" d="M146.62,184.81s4.26-3.2,5.19-1.38c4.82,9.51-1.39,43.59-1.39,43.59l-7.24-2.72S144.73,191.84,146.62,184.81Z"/><path class="cls-6" d="M145.09,206s.25-.17,1,.16.2,2.2,0,2.19S145.57,205.66,145.09,206Z"/><path class="cls-6" d="M100,156.22s-9.77.87-10.41,3.26c-1.48,5.46-3.61,16.64-2.16,17.09,1.83.55,76.13,2.81,76.13,2.81s-3.86-14.65-5.63-18.46C154.11,152.67,121.7,155.78,100,156.22Z"/><path class="cls-18" d="M113.81,214.24s-.58-5.64.21-5.55,4.82-.44,5.25.3.07,5.13.07,5.13-5.39.35-5.53.12"/><path class="cls-6" d="M112.1,223.35s0-8.32.32-8.52,8-1.44,8.13,0-.29,9.22-.29,9.22"/><path class="cls-6" d="M113.37,214.67a50.87,50.87,0,0,1,.3-5.87c.25-.46,5.6-1,6,.59a21.46,21.46,0,0,1-.11,5.28"/><path class="cls-6" d="M119.84,211.71s.91-.23.71,3.17"/><path class="cls-6" d="M113.31,211.13s-.69-.39-.89,3.7"/><path class="cls-6" d="M112.66,214.73s6-.72,7.77-.1"/><line class="cls-7" x1="119.51" y1="214.4" x2="119.41" y2="222.07"/><line class="cls-6" x1="119.51" y1="214.4" x2="119.41" y2="222.07"/><path class="cls-19" d="M87.44,176.57l.09,3.11c-2.58,1.76,70.2,6.35,75.2,2a2.38,2.38,0,0,0,.84-2.35Z"/><path class="cls-8" d="M87.44,176.57l.09,3.11c-2.58,1.76,70.2,6.35,75.2,2a2.38,2.38,0,0,0,.84-2.35Z"/><line class="cls-7" x1="93.84" y1="203.31" x2="118.26" y2="203.52"/><line class="cls-6" x1="93.84" y1="203.31" x2="118.26" y2="203.52"/><polyline class="cls-7" points="101.75 211.19 101.12 220.81 96.28 221.3 109.04 221.72 103.11 220.86 102.73 211.85"/><polyline class="cls-6" points="101.75 211.19 101.12 220.81 96.28 221.3 109.04 221.72 103.11 220.86 102.73 211.85"/><path class="cls-7" d="M96.69,210a107.82,107.82,0,0,1,11.62.32c3.3.5,2.14,1.9-7.76,1.59s-6.45-2-3.86-1.91"/><path class="cls-6" d="M96.69,210a107.82,107.82,0,0,1,11.62.32c3.3.5,2.14,1.9-7.76,1.59S94.1,209.91,96.69,210Z"/><path class="cls-18" d="M96.74,210.08s8.25-.13,11.52.28,2.12,1.57-7.69,1.3-6.39-1.66-3.83-1.58"/><polygon class="cls-13" points="101.26 200.66 104.86 200.63 105.27 203.17 101.18 203.01 101.26 200.66"/><path class="cls-6" d="M102.56,194.66s.11,1.48-.58,2-.8,6.31-.8,6.31l4.09.16s-.57-5.46-1.24-6.58-.4-4.4-.4-4.4l-1.49.36Z"/><polygon class="cls-1" points="107.83 194.31 111.4 193.83 112.42 203 108.31 202.88 107.83 194.31"/><path class="cls-6" d="M109.7,191.06s.11,2.13-.58,2.92-.83,9-.83,9l4.09.22s-.55-7.82-1.22-9.42-.38-6.3-.38-6.3l-1.55.09Z"/><line class="cls-4" x1="109.54" y1="188.88" x2="110.86" y2="188.89"/><line class="cls-6" x1="109.54" y1="188.88" x2="110.86" y2="188.89"/><rect class="cls-4" x="109.59" y="196.82" width="2.34" height="2.25" transform="matrix(0.01, -1, 1, 0.01, -88.14, 306.99)"/><rect class="cls-6" x="109.59" y="196.82" width="2.34" height="2.25" transform="matrix(0.01, -1, 1, 0.01, -88.14, 306.99)"/><path class="cls-4" d="M165.66,214.16l.36,1.62s9.28-1.14,10.85-1l-.69-1.83Z"/><path class="cls-6" d="M194,216.35s10-.65,14-.23,2.68,2.18-9.26,2.32S190.86,216.36,194,216.35Z"/><polygon class="cls-13" points="204.19 213.9 207.18 214.02 207.06 216.71 204.44 216.2 204.19 213.9"/><polyline class="cls-6" points="203.55 210.99 203.75 212.57 204.23 216.29 207.06 216.71 207.07 212.16 207.07 210.41"/><polyline class="cls-6" points="204.95 216.16 207.51 206.79 209.85 207.35"/><polyline class="cls-7" points="160.07 205.63 170.84 203.16 177.94 226.72 165.37 230.53 160.07 205.63 158.88 230.79 164.85 229.46"/><polyline class="cls-6" points="160.07 205.63 170.84 203.16 177.94 226.72 165.37 230.53 160.07 205.63 158.88 230.79 164.85 229.46"/><polygon class="cls-25" points="160.5 205.91 165.56 230.09 177.45 226.48 170.92 203.39 160.5 205.91"/><path class="cls-31" d="M164.57,216.6c.77-.26,2.07,0,2.34-.82.32.45.74.56,1,.08a1.81,1.81,0,0,0,.77-.24c.35.75,2.52-.35,3.23-.39"/><path class="cls-31" d="M165,219c.45-.13.66-.32.46-.76a8.69,8.69,0,0,0,.72,2.82,2.31,2.31,0,0,1,.09-2.07c.08.12.25.27.33.37,0-.18.29-.52.32-.73.11.09.29.16.38.24,0-.14.24-.38.3-.52a1.91,1.91,0,0,0,1.12.24c.91-.11.47-1.35.13-1.78-.25.51.08,1.12.41,1.62"/><path class="cls-31" d="M170.78,218.1c.11-.1.48.08.34-.45.27.49.29.3.7.3a.88.88,0,0,0-.1-.36l.14.34a2.12,2.12,0,0,0,.41-.17c.3.2.41,0,.73,0"/><path class="cls-31" d="M165.32,222.83c0-.37.1-.65.49-.77.09.21.31.41.34.71-.06-.64.09-.48.5-.71,0,.1,0,.39,0,.52l.2-.39a.27.27,0,0,1,.13.17,1.15,1.15,0,0,0,.31-2c-.63,1.68,1.69,2.24,1.33,1.07.07.41.19.26.44.49a.27.27,0,0,0,0-.3,7.1,7.1,0,0,0,1.2-.13"/><path class="cls-31" d="M162.18,207.51a3.1,3.1,0,0,1,.26.9c-.39-1.94.29-2,1-.39,0-.54-.11-1.15.35-1.48.54.49.45,1.28.65,1.88a1.1,1.1,0,0,0,.92-1.57c-.25.37-.15.58.08,1a1.87,1.87,0,0,0,.91-.17c-.51-1.65.6-.42.95.33a.85.85,0,0,1,.37-1.36,4,4,0,0,1,.22,1c1,.23.75-.7.8-1.37a9.85,9.85,0,0,0,.37.95c.53-.11.64-.46.44-.93a3.15,3.15,0,0,0,.4.8,1.79,1.79,0,0,0,1-.56"/><path class="cls-31" d="M173.4,221a1.85,1.85,0,0,0-.19-.27c-1.94.3-1.23,2.23.47,1.35"/><path class="cls-31" d="M171.45,221.82c.44-.08.9-.12,1.34-.24"/><path class="cls-31" d="M171.94,222.28c.15-.13.5-.07.65-.15"/><path class="cls-31" d="M163.41,210.57s5.28-2.69,7.45-2.38"/><path class="cls-31" d="M165.2,214.73a1,1,0,0,0,.06-1.33,1.8,1.8,0,0,0,.26,1.08c.48-.06.61-.41.46-.9a4.83,4.83,0,0,0,.24.67l.3-.17a.45.45,0,0,0,.42.07"/><path class="cls-31" d="M168.4,213.91c-.05-.34-.16-.55.09-.81a3.06,3.06,0,0,0,.56,1.11c0-.2.16-.69.15-.92.08.26.33.57.41.77.25-.44.26-.19.32-.74.2.5.12.41.45.73a5.4,5.4,0,0,0-.24-1.89,20.57,20.57,0,0,0,.68,2c0-.19.54-.75.52-1,.06.09-.18.35-.09.48,0,0,.93-.4,1-.43.09.16.66.14.77.09"/><path class="cls-18" d="M214.31,220.3s-.76-6.73.15-7c1.08-.35,6.36-.9,6.87,0s-.78,7-.78,7-6.08.33-6.24.05"/><line class="cls-7" x1="213.76" y1="220.81" x2="213.52" y2="230.06"/><line class="cls-6" x1="213.76" y1="220.81" x2="213.52" y2="230.06"/><path class="cls-6" d="M212.09,231.26s.11-10,.52-10.28,9.67-1.59,9.8.21-.5,11.1-.5,11.1"/><path class="cls-6" d="M221.61,217.35s1.11-.26.8,3.84"/><path class="cls-6" d="M213.75,216.54s-.82-.48-1.14,4.44"/><path class="cls-6" d="M212.91,220.87s7.29-.76,9.36,0"/><path class="cls-6" d="M213.76,220.81s.16-6.51.47-7.06,6.76-1.13,7.19.8-.23,6.36-.23,6.36"/><line class="cls-7" x1="221.17" y1="220.58" x2="220.93" y2="229.83"/><line class="cls-6" x1="221.17" y1="220.58" x2="220.93" y2="229.83"/><path class="cls-2" d="M89.88,190.55c26.33,15.51,66.61.66,66.61.66s58.36,8.77,71.91-19.78c0,0-30.92,21.78-53.29,6.18l-6-.29"/><path class="cls-23" d="M217.06,186.54a1.57,1.57,0,1,1-1.6-1.54,1.56,1.56,0,0,1,1.6,1.54"/><path class="cls-6" d="M217.06,186.54a1.57,1.57,0,1,1-1.6-1.54A1.56,1.56,0,0,1,217.06,186.54Z"/><path class="cls-21" d="M193.11,193.29a1.57,1.57,0,1,1-1.59-1.53,1.56,1.56,0,0,1,1.59,1.53"/><path class="cls-6" d="M193.11,193.29a1.57,1.57,0,1,1-1.59-1.53A1.56,1.56,0,0,1,193.11,193.29Z"/><path class="cls-23" d="M176.64,193.68a1.57,1.57,0,1,1-1.59-1.53,1.57,1.57,0,0,1,1.59,1.53"/><path class="cls-6" d="M176.64,193.68a1.57,1.57,0,1,1-1.59-1.53A1.57,1.57,0,0,1,176.64,193.68Z"/><path class="cls-23" d="M198,184.88a1.57,1.57,0,1,1-1.6-1.53,1.57,1.57,0,0,1,1.6,1.53"/><path class="cls-6" d="M198,184.88a1.57,1.57,0,1,1-1.6-1.53A1.57,1.57,0,0,1,198,184.88Z"/><path class="cls-19" d="M165.65,193a1.57,1.57,0,1,1-1.6-1.54,1.56,1.56,0,0,1,1.6,1.54"/><path class="cls-6" d="M165.65,193a1.57,1.57,0,1,1-1.6-1.54A1.56,1.56,0,0,1,165.65,193Z"/><path class="cls-1" d="M150.08,195.1a1.57,1.57,0,1,1-1.6-1.53,1.57,1.57,0,0,1,1.6,1.53"/><path class="cls-6" d="M150.08,195.1a1.57,1.57,0,1,1-1.6-1.53A1.57,1.57,0,0,1,150.08,195.1Z"/><path class="cls-19" d="M138.62,197.63A1.57,1.57,0,1,1,137,196.1a1.56,1.56,0,0,1,1.59,1.53"/><path class="cls-6" d="M138.62,197.63A1.57,1.57,0,1,1,137,196.1,1.56,1.56,0,0,1,138.62,197.63Z"/><path class="cls-21" d="M127.75,199.12a1.57,1.57,0,1,1-1.6-1.54,1.57,1.57,0,0,1,1.6,1.54"/><path class="cls-6" d="M127.75,199.12a1.57,1.57,0,1,1-1.6-1.54A1.57,1.57,0,0,1,127.75,199.12Z"/><path class="cls-1" d="M214.11,181.26a1.56,1.56,0,1,1-1.59-1.53,1.55,1.55,0,0,1,1.59,1.53"/><path class="cls-6" d="M214.11,181.26a1.56,1.56,0,1,1-1.59-1.53A1.55,1.55,0,0,1,214.11,181.26Z"/><path class="cls-23" d="M116.41,199a1.57,1.57,0,1,1-1.59-1.53,1.56,1.56,0,0,1,1.59,1.53"/><path class="cls-6" d="M116.41,199a1.57,1.57,0,1,1-1.59-1.53A1.56,1.56,0,0,1,116.41,199Z"/><path class="cls-19" d="M100.33,196a1.57,1.57,0,1,1-1.6-1.53,1.56,1.56,0,0,1,1.6,1.53"/><path class="cls-6" d="M100.33,196a1.57,1.57,0,1,1-1.6-1.53A1.56,1.56,0,0,1,100.33,196Z"/><path class="cls-1" d="M91.12,192a1.57,1.57,0,1,1-1.6-1.53,1.56,1.56,0,0,1,1.6,1.53"/><path class="cls-6" d="M91.12,192a1.57,1.57,0,1,1-1.6-1.53A1.56,1.56,0,0,1,91.12,192Z"/><path class="cls-19" d="M206.14,190.58a1.56,1.56,0,1,1-1.59-1.54,1.56,1.56,0,0,1,1.59,1.54"/><path class="cls-6" d="M206.14,190.58a1.56,1.56,0,1,1-1.59-1.54A1.56,1.56,0,0,1,206.14,190.58Z"/><path class="cls-19" d="M183.08,182.67a1.57,1.57,0,1,1-1.6-1.53,1.56,1.56,0,0,1,1.6,1.53"/><path class="cls-6" d="M183.08,182.67a1.57,1.57,0,1,1-1.6-1.53A1.56,1.56,0,0,1,183.08,182.67Z"/><path class="cls-2" d="M321.4,221.74l-27.6.88-17.1,10.64-.32-21.92s13,1.55,18.38-9.56c4.79-9.86-3.82-8.28-1,20.84"/><path class="cls-12" d="M280.57,234.74s-1-6.31,1-6.65,36.48,1.45,38.81,2.3"/><path class="cls-6" d="M280.57,234.74s-1-6.31,1-6.65,36.48,1.45,38.81,2.3"/><path class="cls-12" d="M287.74,227.88s-.79-2.64.66-2.76,30.07,1.52,31.79,1.9"/><path class="cls-6" d="M287.74,227.88s-.79-2.64.66-2.76,30.07,1.52,31.79,1.9"/><path class="cls-12" d="M293.34,225.13s-.82-1.39.62-1.43,21.65.83,23.38,1.05"/><path class="cls-6" d="M293.34,225.13s-.82-1.39.62-1.43,21.65.83,23.38,1.05"/><polyline class="cls-7" points="424.27 166.47 414.49 172.54 427.92 169.77"/><polyline class="cls-6" points="424.27 166.47 414.49 172.54 427.92 169.77"/><path class="cls-4" d="M431.75,170.05s-3.31,2.78-6.15,0,3.48-1.44,6.15,0"/><path class="cls-18" d="M447.47,164.9s-4.16-5-.85-5.14,2.39,4,.85,5.14"/><path class="cls-2" d="M447.47,164.9s-4.16-5-.85-5.14S449,163.79,447.47,164.9Z"/><path class="cls-27" d="M438.81,163s-5.95,1-4.46-1.62,4.34,0,4.46,1.62"/><path class="cls-7" d="M432.71,236.18s4.06-56.57-4.34-65.78-14.31-9.62-14.31-9.62,8,.38,15.25,1.33-.56-18.25-.56-18.25l6.71,13.34,23.92-9.1s-13.27,5.18-19,13.18,16.58,1.53,16.58,1.53l-17.17,6.76,18.86,1.74s-13.62,3.37-18.12,2.74c-6.91-1,7.59,61.94,7.59,61.94s-6.32,4-15.37.19"/><path class="cls-6" d="M432.71,236.18s4.06-56.57-4.34-65.78-14.31-9.62-14.31-9.62,8,.38,15.25,1.33-.56-18.25-.56-18.25l6.71,13.34,23.92-9.1s-13.27,5.18-19,13.18,16.58,1.53,16.58,1.53l-17.17,6.76,18.86,1.74s-13.62,3.37-18.12,2.74c-6.91-1,7.59,61.94,7.59,61.94S441.76,240,432.71,236.18Z"/><path class="cls-4" d="M431.58,177.17s-7.52-1-4.87-4.27c1.67-2,4,1.29,4.87,4.27"/><path class="cls-6" d="M431.58,177.17s-7.52-1-4.87-4.27C428.38,170.87,430.66,174.19,431.58,177.17Z"/><path class="cls-4" d="M448.05,152.22s-1.33-7.48,2.55-6c2.45,1,0,4.15-2.55,6"/><path class="cls-6" d="M448.05,152.22s-1.33-7.48,2.55-6C453.05,147.22,450.6,150.41,448.05,152.22Z"/><path class="cls-6" d="M447.34,164.31s.59-5.71,3.09-3.8C452,161.71,449.57,163.53,447.34,164.31Z"/><path class="cls-6" d="M438.73,163.12s-4.24,5.35-5.53,1.84C432.38,162.74,436,162.48,438.73,163.12Z"/><path class="cls-6" d="M439,163.38s-6.39-1.11-3.58-3.37C437.2,158.58,438.67,161.13,439,163.38Z"/><path class="cls-4" d="M432.68,153.05s2.46-6,5.07-3.68c1.65,1.49-2,3.13-5.07,3.68"/><path class="cls-6" d="M432.68,153.05s2.46-6,5.07-3.68C439.4,150.86,435.75,152.5,432.68,153.05Z"/><path class="cls-4" d="M449.31,152.51s3.35-3.62,6.43-.81-3.59,2.1-6.43.81"/><path class="cls-6" d="M449.31,152.51s3.35-3.62,6.43-.81S452.15,153.8,449.31,152.51Z"/><path class="cls-4" d="M429.85,159.74s-4.38-2.29-2.47-6,3,2.91,2.47,6"/><path class="cls-6" d="M429.85,159.74s-4.38-2.29-2.47-6S430.35,156.66,429.85,159.74Z"/><path class="cls-4" d="M442.26,157s5.45-5.16,7.3-.84-4.91,2.89-7.3.84"/><path class="cls-6" d="M442.26,157s5.45-5.16,7.3-.84S444.65,159.05,442.26,157Z"/><path class="cls-4" d="M430.38,149.36s-7.46.72-6.28-3.82,5.66.72,6.28,3.82"/><path class="cls-6" d="M430.38,149.36s-7.46.72-6.28-3.82S429.76,146.26,430.38,149.36Z"/><path class="cls-4" d="M430.14,161.4s-7.5.3-6.05-4.17,5.6,1.05,6.05,4.17"/><path class="cls-28" d="M417.83,160.88c0,.06-.14.11-.32.11s-.31,0-.31-.1.14-.1.31-.11.32.05.32.1"/><path class="cls-8" d="M417.83,160.88c0,.06-.14.11-.32.11s-.31,0-.31-.1.14-.1.31-.11S417.83,160.83,417.83,160.88Z"/><path class="cls-4" d="M432.27,178s-6.54,3.86-6.48-.31c0-2.62,3.9-1.45,6.48.31"/><path class="cls-6" d="M432.27,178s-6.54,3.86-6.48-.31C425.83,175.08,429.69,176.25,432.27,178Z"/><path class="cls-18" d="M432.12,178.11s-5.2,5.33-6.24,1.39,4.48-3.14,6.24-1.39"/><path class="cls-2" d="M432.12,178.11s-5.2,5.33-6.24,1.39S430.36,176.36,432.12,178.11Z"/><path class="cls-18" d="M430.48,161.46s-7.36,1.45-6.62-3.19,5.7.18,6.62,3.19"/><path class="cls-2" d="M430.48,161.46s-7.36,1.45-6.62-3.19S429.56,158.45,430.48,161.46Z"/><path class="cls-6" d="M430.15,161.37s-7.49.3-6-4.17S429.7,158.25,430.15,161.37Z"/><path class="cls-18" d="M448.15,152.2s-3.45-5.25.53-6.49,1.62,4.58-.53,6.49"/><path class="cls-2" d="M448.15,152.2s-3.45-5.25.53-6.49S450.3,150.29,448.15,152.2Z"/><path class="cls-18" d="M430.28,148.83s-7.47.72-6.28-3.83,5.65.73,6.28,3.83"/><path class="cls-2" d="M430.28,148.83s-7.47.72-6.28-3.83S429.65,145.73,430.28,148.83Z"/><path class="cls-18" d="M442.42,171.92s6.54,3.57,3,5.64-4.24-3.46-3-5.64"/><path class="cls-2" d="M442.42,171.92s6.54,3.57,3,5.64S441.21,174.1,442.42,171.92Z"/><path class="cls-4" d="M442.31,172s4.27-.7,5.31,3.12-3.73-.54-5.31-3.12"/><path class="cls-6" d="M442.31,172s4.27-.7,5.31,3.12S443.89,174.53,442.31,172Z"/><path class="cls-18" d="M421.19,161.51s-6.34-3.89-2.74-5.79,4.06,3.68,2.74,5.79"/><path class="cls-2" d="M421.19,161.51s-6.34-3.89-2.74-5.79S422.51,159.4,421.19,161.51Z"/><path class="cls-4" d="M421.3,161.49s-4.29.49-5.13-3.38,3.69.72,5.13,3.38"/><path class="cls-6" d="M421.3,161.49s-4.29.49-5.13-3.38S419.86,158.83,421.3,161.49Z"/><path class="cls-18" d="M420.55,161.85s1.46,7.3-2.38,5.93-.06-5.47,2.38-5.93"/><path class="cls-2" d="M420.55,161.85s1.46,7.3-2.38,5.93S418.11,162.31,420.55,161.85Z"/><path class="cls-18" d="M431.83,170.34s-5.79,3-5.57-.53,4.59-1.41,5.57.53"/><path class="cls-2" d="M431.83,170.34s-5.79,3-5.57-.53S430.85,168.4,431.83,170.34Z"/><path class="cls-6" d="M431.75,170.05s-3.31,2.78-6.15,0S429.08,168.64,431.75,170.05Z"/><path class="cls-4" d="M442.46,171.81s-.48-2.57,1.82-3.25-.28,2.26-1.82,3.25"/><path class="cls-30" d="M442.29,171.77s.12-4,1.94-2.78-.63,2.84-1.94,2.78"/><path class="cls-2" d="M442.29,171.77s.12-4,1.94-2.78S443.6,171.83,442.29,171.77Z"/><path class="cls-6" d="M442.46,171.81s-.48-2.57,1.82-3.25S444,170.82,442.46,171.81Z"/><path class="cls-4" d="M431.91,169.87s1.87,1.84.38,3.72-1.07-2-.38-3.72"/><path class="cls-18" d="M432.08,169.81s2.16,3.32,0,3.39-1.12-2.68,0-3.39"/><path class="cls-2" d="M432.08,169.81s2.16,3.32,0,3.39S431,170.52,432.08,169.81Z"/><path class="cls-6" d="M431.91,169.87s1.87,1.84.38,3.72S431.22,171.57,431.91,169.87Z"/><path class="cls-14" d="M452.52,154.61a1.71,1.71,0,1,1-1.71-1.71,1.71,1.71,0,0,1,1.71,1.71"/><path class="cls-2" d="M452.52,154.61a1.71,1.71,0,1,1-1.71-1.71A1.71,1.71,0,0,1,452.52,154.61Z"/><path class="cls-14" d="M457.36,164.26a1.72,1.72,0,1,1-1.71-1.71,1.71,1.71,0,0,1,1.71,1.71"/><path class="cls-2" d="M457.36,164.26a1.72,1.72,0,1,1-1.71-1.71A1.71,1.71,0,0,1,457.36,164.26Z"/><path class="cls-14" d="M450.27,173.77a1.71,1.71,0,1,1-1.71-1.71,1.72,1.72,0,0,1,1.71,1.71"/><path class="cls-2" d="M450.27,173.77a1.71,1.71,0,1,1-1.71-1.71A1.72,1.72,0,0,1,450.27,173.77Z"/><path class="cls-14" d="M434.57,154.41a1.72,1.72,0,1,1-1.71-1.71,1.71,1.71,0,0,1,1.71,1.71"/><path class="cls-2" d="M434.57,154.41a1.72,1.72,0,1,1-1.71-1.71A1.71,1.71,0,0,1,434.57,154.41Z"/><path class="cls-14" d="M434.48,169a1.72,1.72,0,1,1-1.71-1.72,1.71,1.71,0,0,1,1.71,1.72"/><path class="cls-2" d="M434.48,169a1.72,1.72,0,1,1-1.71-1.72A1.71,1.71,0,0,1,434.48,169Z"/><path class="cls-14" d="M443.45,172.17a1.72,1.72,0,1,1-1.71-1.71,1.71,1.71,0,0,1,1.71,1.71"/><path class="cls-2" d="M443.45,172.17a1.72,1.72,0,1,1-1.71-1.71A1.71,1.71,0,0,1,443.45,172.17Z"/><path class="cls-14" d="M434.74,178.45a1.71,1.71,0,1,1-1.71-1.71,1.7,1.7,0,0,1,1.71,1.71"/><path class="cls-2" d="M434.74,178.45a1.71,1.71,0,1,1-1.71-1.71A1.7,1.7,0,0,1,434.74,178.45Z"/><path class="cls-14" d="M417.7,173.16a1.71,1.71,0,1,1-1.71-1.71,1.7,1.7,0,0,1,1.71,1.71"/><path class="cls-2" d="M417.7,173.16a1.71,1.71,0,1,1-1.71-1.71A1.7,1.7,0,0,1,417.7,173.16Z"/><path class="cls-14" d="M430.62,144.73a1.71,1.71,0,1,1-1.71-1.71,1.72,1.72,0,0,1,1.71,1.71"/><path class="cls-2" d="M430.62,144.73a1.71,1.71,0,1,1-1.71-1.71A1.72,1.72,0,0,1,430.62,144.73Z"/><path class="cls-14" d="M419.14,162.76a1.71,1.71,0,1,1-1.71-1.71,1.72,1.72,0,0,1,1.71,1.71"/><path class="cls-2" d="M419.14,162.76a1.71,1.71,0,1,1-1.71-1.71A1.72,1.72,0,0,1,419.14,162.76Z"/><line class="cls-32" x1="556.31" y1="61.58" x2="556.58" y2="67.17"/><path class="cls-32" d="M562.85,59.4s-4.63.82-3.4,2.59c0,0,3.81-1.23,3.95.41s-2.18,3.54-3.55,2.72"/><rect id="cadre" class="cls-33" width="567" height="269"/></svg>